<?xml version="1.0" standalone="no"?>
<!DOCTYPE svg PUBLIC "-//W3C//DTD SVG 1.1//EN" "http://www.w3.org/Graphics/SVG/1.1/DTD/svg11.dtd">
<svg xmlns="http://www.w3.org/2000/svg">
<defs >
<font id="Overlock" horiz-adv-x="423" ><font-face
    font-family="Overlock Black"
    units-per-em="1000"
    panose-1="2 0 5 3 4 0 0 9 0 2"
    ascent="966"
    descent="-254"
    alphabetic="0" />
<glyph unicode=" " glyph-name="space" horiz-adv-x="190" />
<glyph unicode="!" glyph-name="exclam" horiz-adv-x="296" d="M123 640Q123 671 121 683Q165 694 201 694Q281 694 281 635Q281 613 252 487T223 279Q223 257 225 248Q189 229 154 229Q123 229 104 242T84 281Q84 287 94 352T113 502T123 640ZM119 -10Q87 -10
66 11T45 65Q45 104 74 136T144 168Q175 168 196 146T218 90Q218 52 188 21T119 -10Z" />
<glyph unicode="&quot;" glyph-name="quotedbl" horiz-adv-x="426" d="M176 737Q236 737 236 692Q236 652 192 504Q176 455 123 455Q97 455 76 463Q89 507 91 587T95 682Q98 709 115 723T176 737ZM388 737Q448 737 448 692Q448 652 404 504Q388 455 335 455Q309
455 288 463Q301 507 303 587T307 682Q310 709 327 723T388 737Z" />
<glyph unicode="#" glyph-name="numbersign" horiz-adv-x="574" d="M215 266Q289 266 324 268Q330 287 355 388Q325 390 286 390H250Q227 317 215 266ZM449 463Q476 464 583 473Q581 429 566 404T509 379Q503 379 473 382T426 385Q410 339 391 268Q418 269 525
278Q523 234 508 209T451 184Q445 184 416 187T370 191Q340 54 340 24Q320 13 296 13Q261 13 261 45Q261 54 264 70T272 100T286 145T301 194Q264 195 235 195H196Q165 54 165 24Q145 13 121 13Q86 13 86 45Q86 62 127 194Q53 190 -7 170Q-9 188 -9 195Q-9 234
13 251T84 269Q91 269 112 269T149 268L179 388Q101 384 42 364Q40 382 40 389Q40 428 62 445T133 463Q140 463 161 463T198 462Q232 595 240 637Q259 641 276 641Q315 641 315 606Q315 599 312 586T304 558T290 515T272 460H373Q409 604 416 637Q435 641 452 641Q491
641 491 606Q491 599 488 586T481 560T467 517T449 463Z" />
<glyph unicode="$" glyph-name="dollar" horiz-adv-x="574" d="M431 502Q423 527 401 546T346 569L321 397Q352 387 365 383T405 364T445 336T469 296T480 239Q480 140 424 74T266 -5Q261 -47 261 -76L239 -79Q203 -79 203 -49Q203 -45 208 -9Q138 -7 87 22T35
92Q35 119 54 135T111 165Q119 135 148 113T221 89L224 107Q230 149 235 191T245 270Q210 282 191 290T146 318T107 369T94 444Q94 530 148 591T299 667Q301 681 303 705T305 734Q323 739 330 739Q365 739 365 710L364 706Q364 702 363 692T360 671Q418 668 465
642T512 571Q512 516 431 502ZM266 420L285 558Q233 531 233 472Q233 440 266 420ZM300 247L281 106Q332 139 332 199Q332 228 300 247Z" />
<glyph unicode="%" glyph-name="percent" horiz-adv-x="854" d="M214 407Q245 407 260 442T276 517Q276 592 239 592Q206 592 191 557T175 481Q175 407 214 407ZM205 333Q139 333 101 370T63 470Q63 553 114 609T248 665Q314 665 351 629T389 528Q389 445 339
389T205 333ZM616 64Q647 64 662 99T678 174Q678 249 641 249Q608 249 593 214T577 138Q577 64 616 64ZM607 -10Q541 -10 503 27T465 127Q465 210 516 266T650 322Q716 322 753 286T791 185Q791 102 741 46T607 -10ZM181 48Q577 594 647 700Q700 689 700 659Q700
642 685 622Q292 77 219 -32Q166 -16 166 12Q166 28 181 48Z" />
<glyph unicode="&amp;" glyph-name="ampersand" horiz-adv-x="757" d="M789 403Q789 358 749 315T648 272Q629 272 621 273Q578 119 493 54T280 -11Q168 -11 102 45T35 179Q35 240 69 292T175 375Q105 410 105 492Q105 566 175 620T348 675Q398 675 450 650T502
579Q502 556 480 539T410 517Q390 576 336 576Q302 576 279 555T256 499Q256 474 274 456T340 437Q350 437 356 438Q361 418 361 402Q361 353 315 344Q260 333 232 294T204 206Q204 158 235 123T319 88Q386 88 426 136T482 303H476Q436 303 410 281Q397 306 397
334Q397 363 414 380T459 398Q483 398 540 384T613 370Q656 370 656 402Q656 418 642 437Q671 468 723 468Q756 468 772 450T789 403Z" />
<glyph unicode="&apos;" glyph-name="quotesingle" horiz-adv-x="214" d="M176 737Q236 737 236 692Q236 652 192 504Q176 455 123 455Q97 455 76 463Q89 507 91 587T95 682Q98 709 115 723T176 737Z" />
<glyph unicode="(" glyph-name="parenleft" horiz-adv-x="343" d="M74 178Q74 275 106 379T182 558T270 682T341 731Q359 731 375 708Q291 601 246 434T200 122Q200 -78 257 -180Q237 -203 218 -203Q198 -203 173 -172T126 -90T89 33T74 178Z" />
<glyph unicode=")" glyph-name="parenright" horiz-adv-x="343" d="M268 350Q268 251 236 146T159 -33T70 -155T1 -203Q-18 -203 -32 -180Q52 -70 97 94T142 408Q142 606 85 708Q105 731 124 731Q144 731 169 700T216 618T253 495T268 350Z" />
<glyph unicode="*" glyph-name="asterisk" horiz-adv-x="464" d="M339 703Q339 680 318 621Q398 674 411 686Q446 656 446 624Q446 579 317 548Q367 492 409 457Q396 437 375 423T331 409Q307 409 291 431T255 503Q243 486 175 392Q147 402 129 418T110 452Q113
489 208 552Q139 578 89 593Q97 623 116 643T162 664Q201 664 233 624Q233 634 234 657T235 695Q235 708 233 734Q265 743 283 743Q339 743 339 703Z" />
<glyph unicode="+" glyph-name="plus" horiz-adv-x="574" d="M328 292Q433 292 536 303Q540 291 540 261Q540 236 526 219T488 201Q464 201 413 206T327 211Q327 132 338 9Q317 5 295 5Q271 5 253 18T235 56Q235 64 239 105T245 212Q199 212 39 201Q35 222 35
243Q35 266 47 284T87 303Q95 303 140 299T247 293Q247 396 235 495Q248 499 278 499Q303 499 320 485T338 448Q338 424 333 376T328 292Z" />
<glyph unicode="," glyph-name="comma" horiz-adv-x="248" d="M29 12Q23 27 23 43Q23 80 50 108T120 136Q157 136 175 112T194 47Q194 -25 144 -94T24 -163Q-16 -163 -16 -130Q-16 -118 -11 -103H-7Q20 -103 42 -79T65 -29Q65 4 29 12Z" />
<glyph unicode="-" glyph-name="hyphen" horiz-adv-x="275" d="M270 291Q270 250 249 227T188 203Q179 203 152 206T109 210Q74 210 27 194Q25 212 25 221Q25 317 108 317Q114 317 140 314T183 311H190Q230 311 266 326Q270 306 270 291Z" />
<glyph unicode="." glyph-name="period" horiz-adv-x="255" d="M103 -10Q64 -10 43 13T22 71Q22 112 50 144T126 177Q164 177 185 152T207 91Q207 51 180 21T103 -10Z" />
<glyph unicode="/" glyph-name="slash" horiz-adv-x="254" d="M247 742Q293 742 293 712Q293 692 176 297T59 -117Q37 -122 25 -122Q-15 -122 -15 -89Q-15 -76 98 310T217 737L247 742Z" />
<glyph unicode="0" glyph-name="zero" horiz-adv-x="574" d="M192 283Q192 200 211 145T267 89Q315 89 348 179T381 382Q381 463 362 518T306 574Q260 574 226 488T192 283ZM236 -10Q140 -10 86 58T32 246Q32 358 68 454T174 612T336 673Q432 673 486 605T541
417Q541 306 505 210T398 52T236 -10Z" />
<glyph unicode="1" glyph-name="one" horiz-adv-x="574" d="M357 93Q420 93 453 97Q455 85 455 73Q455 -2 412 -2Q405 -2 374 -2T291 -1T186 0Q114 0 85 -1Q83 19 83 26Q83 97 145 97H208Q211 122 224 208T245 351Q262 472 271 566Q175 555 159 552Q158 557 158
569Q158 646 219 657Q361 673 386 673Q404 673 417 662T431 623Q431 615 424 574T404 461T383 325L375 269Q360 160 357 93Z" />
<glyph unicode="2" glyph-name="two" horiz-adv-x="574" d="M167 491Q135 494 111 515T87 561Q87 609 150 640T294 672Q389 672 448 630T507 492Q507 429 484 375T415 273T328 193T225 117Q217 112 213 109Q239 106 275 106Q401 106 473 135Q486 102 486 76Q486
57 480 44T460 22T432 9T390 2T343 -1T285 -2Q231 -2 151 -1T43 0Q0 0 0 62Q0 82 5 102Q45 136 108 184T207 260T280 326T336 400T353 475Q353 521 331 547T274 574Q211 574 167 491Z" />
<glyph unicode="3" glyph-name="three" horiz-adv-x="574" d="M349 364Q407 343 435 305T464 219Q464 117 378 54T173 -10Q99 -10 61 13T23 66Q23 104 87 126Q113 89 181 89Q240 89 276 126T312 211Q312 251 279 279T189 307Q149 307 149 356Q149 374 154 396Q234
396 280 429T326 508Q326 536 309 555T263 574Q239 574 215 557T175 507Q139 507 119 523T99 564Q99 600 167 636T313 673Q396 673 441 635T486 541Q486 424 349 364Z" />
<glyph unicode="4" glyph-name="four" horiz-adv-x="574" d="M334 653Q358 674 442 674Q479 674 500 671Q498 660 484 578T460 434T441 296Q512 302 534 312Q541 290 541 265Q541 219 514 204Q493 193 429 190Q418 80 418 54Q418 24 422 1Q387 -10 342 -10T280
3T263 48Q263 53 284 189Q106 189 49 193Q24 194 24 241Q24 268 32 294Q79 363 183 487T334 653ZM183 292Q210 289 239 289Q275 289 299 293Q304 337 310 377T320 450T327 493Q306 468 281 433T226 354T183 292Z" />
<glyph unicode="5" glyph-name="five" horiz-adv-x="574" d="M441 553Q374 553 278 559L256 447Q282 450 304 450Q395 450 443 404T492 271Q492 156 409 73T193 -10Q36 -10 36 60Q36 100 78 128Q110 90 173 90Q235 90 282 130T330 239Q330 287 294 320T191 353Q150
353 118 347Q112 355 112 376Q112 382 162 664Q195 662 389 662Q470 662 519 670Q525 647 525 627Q525 553 441 553Z" />
<glyph unicode="6" glyph-name="six" horiz-adv-x="574" d="M235 -10Q137 -10 95 47T52 198Q52 262 69 329T120 457T199 567T307 644T437 673Q493 673 493 630Q493 603 479 580Q459 584 432 584Q349 584 294 518T218 350Q283 412 358 412Q417 412 456 370T496
247Q496 150 422 70T235 -10ZM279 314Q249 314 211 267Q207 241 207 209Q207 90 268 90Q297 90 316 131T336 223Q336 265 321 289T279 314Z" />
<glyph unicode="7" glyph-name="seven" horiz-adv-x="574" d="M391 556Q259 551 145 551Q85 551 85 609Q85 640 98 670Q153 662 223 662Q495 662 552 664Q557 644 557 630Q557 600 535 549Q496 464 233 60Q188 -10 138 -10Q93 -10 45 48Q127 127 234 289T391 556Z" />
<glyph unicode="8" glyph-name="eight" horiz-adv-x="574" d="M238 -10Q140 -10 89 34T38 145Q38 225 82 280T193 367Q110 417 110 502Q110 577 175 625T334 673Q411 673 463 639T515 549Q515 430 389 367Q439 339 466 301T494 204Q494 117 427 54T238 -10ZM261
89Q294 89 316 124T338 205Q338 244 321 268T267 317Q195 264 195 175Q195 139 212 114T261 89ZM313 574Q294 574 279 554T263 505Q263 453 315 418Q362 459 362 522Q362 545 348 559T313 574Z" />
<glyph unicode="9" glyph-name="nine" horiz-adv-x="574" d="M334 674Q519 674 519 468Q519 407 502 341T451 213T372 101T264 21T134 -10Q105 -10 94 0T83 33Q83 44 89 84Q108 81 126 81Q212 81 270 149T350 314Q282 253 211 253Q152 253 113 297T74 417Q74 514
148 594T334 674ZM293 349Q324 349 362 397Q365 427 365 457Q365 576 305 576Q274 576 255 535T235 441Q235 398 250 374T293 349Z" />
<glyph unicode=":" glyph-name="colon" horiz-adv-x="269" d="M103 -10Q64 -10 43 13T22 71Q22 112 50 144T126 177Q164 177 185 152T207 91Q207 51 180 21T103 -10ZM141 298Q102 298 81 321T60 379Q60 420 88 452T164 485Q202 485 223 460T245 399Q245 359 218
329T141 298Z" />
<glyph unicode=";" glyph-name="semicolon" horiz-adv-x="298" d="M156 298Q117 298 96 321T75 379Q75 420 103 452T179 485Q217 485 238 460T260 399Q260 359 233 329T156 298ZM29 12Q23 27 23 43Q23 80 50 108T120 136Q157 136 175 112T194 47Q194 -25 144 -94T24
-163Q-16 -163 -16 -130Q-16 -118 -11 -103H-7Q20 -103 42 -79T65 -29Q65 4 29 12Z" />
<glyph unicode="&lt;" glyph-name="less" horiz-adv-x="574" d="M198 254Q217 235 258 199T350 117T420 56Q409 35 390 21T350 7Q331 7 314 23L89 254L316 470Q335 486 352 486Q373 486 393 471T422 437Q397 415 344 372T246 293T198 254Z" />
<glyph unicode="=" glyph-name="equal" horiz-adv-x="574" d="M514 361Q514 336 500 319T463 301Q446 301 385 306T294 312Q181 312 78 301Q74 322 74 343Q74 366 86 384T125 403Q129 403 193 398T304 393Q440 393 509 403Q514 383 514 361ZM514 165Q514 140 500
123T463 105Q446 105 385 110T294 116Q181 116 78 105Q74 126 74 147Q74 170 86 188T125 207Q129 207 193 202T304 197Q440 197 509 207Q514 187 514 165Z" />
<glyph unicode="&gt;" glyph-name="greater" horiz-adv-x="574" d="M352 254Q351 255 272 331T165 437Q177 456 197 471T237 486Q253 486 269 470L454 254L212 23Q195 7 176 7Q158 7 142 21T118 56Q137 72 231 150T352 254Z" />
<glyph unicode="?" glyph-name="question" horiz-adv-x="407" d="M244 250Q201 229 171 229Q97 229 97 282Q97 312 114 342T155 398T205 449T247 505T264 565Q264 608 217 608Q193 608 169 588T135 533Q54 543 54 591Q54 638 109 666T238 695Q304 695 357 667T410
576Q410 533 393 498T351 437T301 389T259 338T241 278Q241 265 244 250ZM138 -10Q106 -10 85 11T64 65Q64 104 93 136T163 168Q194 168 215 146T237 90Q237 52 207 21T138 -10Z" />
<glyph unicode="@" glyph-name="at" horiz-adv-x="847" d="M448 204Q455 227 469 281T486 341Q467 354 446 354Q420 354 400 324T371 260T362 197Q362 149 388 149Q418 149 448 204ZM323 54Q285 54 263 81T241 161Q241 225 268 288T348 397T468 443Q561 443 623
397Q557 221 557 150Q557 117 575 117Q604 117 638 193T673 354Q673 514 505 514Q420 514 343 458T222 315T178 143Q178 53 231 12T362 -29Q415 -29 458 -12T514 30Q566 10 566 -22Q566 -62 511 -88T377 -114Q323 -114 273 -100T178 -58T107 21T80 136Q80 246 140
350T305 522T529 590Q649 590 716 530T784 373Q784 305 754 236T664 118T529 69Q457 69 447 146Q390 54 323 54Z" />
<glyph unicode="A" glyph-name="A" horiz-adv-x="593" d="M405 30Q392 84 374 191Q333 188 290 188Q248 188 205 191Q131 13 122 -13Q-10 -10 -10 50Q-10 65 3 92T55 196T130 349Q246 597 267 670Q317 676 349 676Q432 676 444 611Q486 382 507 293Q553 92 577
14Q517 -10 470 -10Q414 -10 405 30ZM335 549Q297 424 243 287Q275 285 309 285Q347 285 361 287Q345 419 335 549Z" />
<glyph unicode="B" glyph-name="B" horiz-adv-x="566" d="M46 56Q74 167 102 387Q126 572 126 660Q208 673 301 673Q542 673 542 527Q542 464 510 420T426 362Q474 337 500 306T526 227Q526 120 451 55T270 -10Q116 -10 46 56ZM280 91Q319 91 346 124T374 211Q374
311 282 311Q266 311 246 308Q231 200 211 111Q235 91 280 91ZM277 566Q268 470 259 402Q277 400 288 400Q391 400 391 499Q391 534 370 553T316 572Q296 572 277 566Z" />
<glyph unicode="C" glyph-name="C" horiz-adv-x="568" d="M456 170Q530 143 530 102Q530 60 465 25T311 -10Q187 -10 116 64T44 264Q44 368 78 450T168 579T284 649T408 673Q483 673 533 641T583 555Q583 526 557 508T489 484Q480 528 453 550T390 572Q310 572
261 487T212 287Q212 200 245 146T345 91Q411 91 456 170Z" />
<glyph unicode="D" glyph-name="D" horiz-adv-x="669" d="M279 570Q259 327 215 116Q251 91 307 91Q356 91 393 119T450 193T479 286T488 382Q488 477 445 524T320 572Q305 572 279 570ZM46 53Q75 184 98 357T125 661Q191 673 298 673Q652 673 652 404Q652 324
626 251T553 119T430 25T264 -10Q117 -10 46 53Z" />
<glyph unicode="E" glyph-name="E" horiz-adv-x="521" d="M517 540Q471 561 358 561Q326 561 276 558Q274 524 258 406Q391 406 423 410Q425 390 425 375Q425 310 381 305Q357 303 243 303Q223 140 223 101Q251 99 287 99Q340 99 395 105T468 121Q476 83 476 65Q476
17 441 7T283 -3Q130 -3 98 -1Q74 0 64 8T54 34Q54 62 87 306T121 631Q121 649 120 656Q238 665 356 665Q509 665 528 646Q536 638 536 618Q536 578 517 540Z" />
<glyph unicode="F" glyph-name="F" horiz-adv-x="497" d="M104 437Q121 568 121 631Q121 649 120 656Q238 665 361 665Q514 665 533 646Q541 638 541 618Q541 578 522 540Q476 561 363 561Q326 561 276 558Q274 524 258 406Q391 406 423 410Q425 390 425 375Q425
310 381 305Q357 303 243 303L230 199Q218 113 218 67Q218 33 222 8Q189 -3 131 -3Q89 -3 72 12T54 59Q54 65 59 100T77 231T104 437Z" />
<glyph unicode="G" glyph-name="G" horiz-adv-x="600" d="M409 295Q445 304 482 304Q566 304 566 253Q566 248 560 224T546 158T532 78Q524 40 461 15T310 -10Q186 -10 115 64T44 264Q44 447 148 560T415 673Q487 673 535 640T583 556Q583 527 557 508T489 484Q480
528 453 550T392 572Q314 572 263 490T212 293Q212 203 240 147T323 91Q367 91 396 123Q403 208 409 295Z" />
<glyph unicode="H" glyph-name="H" horiz-adv-x="668" d="M570 666Q652 666 652 613Q652 608 648 581T635 501T619 392L594 199Q582 113 582 67Q582 33 586 8Q553 -3 495 -3Q453 -3 436 12T418 59Q418 65 421 88T433 177T451 309Q437 309 409 309T366 308Q326
308 244 310L230 199Q218 113 218 67Q218 33 222 8Q189 -3 131 -3Q89 -3 72 12T54 59Q54 65 59 100T77 231T104 437Q123 590 126 660Q157 666 206 666Q288 666 288 613Q288 608 284 584T271 510T257 409Q296 408 376 408Q434 408 464 409L468 437Q487 590 490 660Q521
666 570 666Z" />
<glyph unicode="I" glyph-name="I" horiz-adv-x="304" d="M206 666Q288 666 288 613Q288 608 284 581T271 501T255 392L230 199Q218 113 218 67Q218 33 222 8Q189 -3 131 -3Q89 -3 72 12T54 59Q54 65 59 100T77 231T104 437Q123 590 126 660Q157 666 206 666Z" />
<glyph unicode="J" glyph-name="J" horiz-adv-x="378" d="M1 -16Q77 -10 103 28T142 164L179 441Q192 536 200 660Q234 666 280 666Q362 666 362 613Q362 607 358 579T345 500T330 407L289 122Q273 16 208 -51T59 -119Q0 -119 0 -45Q0 -26 1 -16Z" />
<glyph unicode="K" glyph-name="K" horiz-adv-x="577" d="M206 666Q288 666 288 613Q288 608 284 584T271 511T257 413Q366 500 412 558T476 668Q573 652 573 606Q573 566 532 523T365 379Q412 276 498 126Q508 107 520 103T555 98Q564 98 574 101Q577 85 577
70Q577 -10 489 -10Q455 -10 432 2T385 47Q355 88 317 160T256 298L241 288L230 199Q218 113 218 67Q218 33 222 8Q189 -3 131 -3Q89 -3 72 12T54 59Q54 65 59 100T77 231T104 437Q123 590 126 660Q157 666 206 666Z" />
<glyph unicode="L" glyph-name="L" horiz-adv-x="454" d="M107 454Q119 547 126 660Q155 666 203 666Q288 666 288 614Q288 608 283 579T269 499T254 408Q250 382 246 348T239 297T233 256T228 221T224 193T221 169T219 150T218 132T218 117T217 101Q231 100 265
100Q317 100 371 106T443 122Q454 93 454 63Q454 47 449 36T432 18T409 7T375 1T337 -1T292 -2Q151 -2 106 1Q54 6 54 55Q54 95 107 454Z" />
<glyph unicode="M" glyph-name="M" horiz-adv-x="830" d="M770 436L737 203Q723 111 723 59Q723 33 727 8Q691 -3 632 -3Q592 -3 576 13T559 61Q559 97 633 463Q510 185 460 3Q427 -2 401 -2Q323 -2 312 46Q290 145 239 463Q207 146 207 59Q207 39 211 5Q176 -3
126 -3Q54 -3 54 55Q54 64 58 90T69 160T80 231L116 483Q126 555 126 610Q126 636 123 659Q171 667 222 667Q275 667 296 647T332 573Q345 523 357 463T375 363T394 248T411 142Q497 404 602 609Q633 670 722 670Q763 670 814 659Q790 594 770 436Z" />
<glyph unicode="N" glyph-name="N" horiz-adv-x="648" d="M554 5Q525 -3 492 -3Q419 -3 400 42Q375 98 325 235T248 436Q208 133 208 63Q208 43 212 9Q179 -3 136 -3Q90 -3 72 11T54 57Q54 66 58 96T69 170T80 243Q87 303 99 390T115 521T120 602Q120 634 116
655Q154 667 193 667Q262 667 292 618Q302 602 315 574T345 506T375 433T409 348T441 270L458 429Q477 589 481 660Q512 666 548 666Q632 666 632 607Q632 600 626 567T612 484T598 392T581 258T563 110T554 5Z" />
<glyph unicode="O" glyph-name="O" horiz-adv-x="672" d="M368 572Q299 572 256 491T212 295Q212 207 240 149T329 91Q401 91 443 175T486 374Q486 459 458 515T368 572ZM301 -10Q180 -10 112 63T44 263Q44 438 141 555T395 673Q517 673 586 601T655 402Q655 230
557 110T301 -10Z" />
<glyph unicode="P" glyph-name="P" horiz-adv-x="550" d="M237 255Q218 100 218 67Q218 33 222 8Q189 -3 131 -3Q89 -3 72 12T54 59Q54 65 59 101T77 231T104 437Q122 592 122 661Q201 673 286 673Q338 673 380 665T460 636T519 579T540 488Q540 366 476 295T330
223Q274 223 237 255ZM313 573Q295 573 274 569Q264 458 257 408L247 342Q276 324 299 324Q338 324 362 366T386 477Q386 531 367 552T313 573Z" />
<glyph unicode="Q" glyph-name="Q" horiz-adv-x="672" d="M655 402Q655 245 573 130T354 -6Q377 -49 429 -70T546 -91Q647 -91 693 -2Q758 -33 758 -81Q758 -124 726 -152T656 -189T577 -198Q320 -198 252 -6Q153 8 99 79T44 263Q44 438 141 556T395 674Q517 674
586 602T655 402ZM368 572Q299 572 256 491T212 295Q212 207 240 149T329 91Q401 91 443 175T486 374Q486 459 458 515T368 572Z" />
<glyph unicode="R" glyph-name="R" horiz-adv-x="586" d="M491 123Q500 109 509 104T540 98Q554 98 565 101Q568 83 568 65Q568 27 543 9T480 -10Q419 -10 392 17T340 115Q315 184 290 264Q282 273 282 292Q282 319 295 345Q299 344 307 344Q327 344 341 358T363
394T373 437T376 480Q376 536 360 555T308 574Q287 574 274 570Q269 506 256 402L230 199Q218 98 218 61Q218 29 222 8Q189 -3 131 -3Q54 -3 54 54Q54 65 57 92T67 162T77 231L103 431Q121 564 121 661Q200 673 286 673Q421 673 483 620T545 487Q545 412 511 356T424
288Q461 171 491 123Z" />
<glyph unicode="S" glyph-name="S" horiz-adv-x="520" d="M432 490Q423 525 393 545T330 566Q291 566 264 541T236 470Q236 442 261 425T323 396T397 369T459 320T485 233Q485 118 412 54T213 -10Q139 -10 81 20T23 94Q23 148 98 172Q113 136 148 115T221 93Q263
93 292 119T322 198Q322 219 309 234T275 257T228 273T177 293T131 322T96 371T83 446Q83 552 158 611T349 671Q411 671 465 644T520 570Q520 541 499 519T432 490Z" />
<glyph unicode="T" glyph-name="T" horiz-adv-x="475" d="M43 558Q41 576 41 592Q41 658 91 660Q114 661 188 661H367Q506 661 538 664Q541 628 541 626Q541 564 492 563Q463 562 362 562Q356 521 344 436T327 311T314 214T304 123T301 65Q301 33 305 8Q272 -3
215 -3Q173 -3 155 12T137 59Q137 70 148 145T175 342T201 560Q86 560 43 558Z" />
<glyph unicode="U" glyph-name="U" horiz-adv-x="664" d="M442 274Q482 576 486 660Q517 666 566 666Q648 666 648 613Q648 608 644 581T631 501T615 392L591 199Q579 113 579 67Q579 33 583 8Q547 -3 491 -3Q444 -3 429 13T414 65Q414 68 415 77T419 102T423
132Q380 64 323 27T211 -10Q144 -10 108 38T71 157Q71 181 96 369T126 659Q157 666 206 666Q288 666 288 613Q288 610 284 586T273 514T259 421Q229 224 229 193Q229 102 288 102Q326 102 372 151T442 274Z" />
<glyph unicode="V" glyph-name="V" horiz-adv-x="622" d="M105 521Q105 594 78 650Q114 674 174 674Q272 674 272 579Q272 532 252 406T231 220Q231 124 249 88Q301 95 343 146T408 268T444 412T457 547T440 653Q479 674 536 674Q632 674 632 594Q632 540 617
467T568 309T487 155T368 37T212 -10Q182 -10 152 1Q72 67 72 191Q72 255 88 347T105 521Z" />
<glyph unicode="W" glyph-name="W" horiz-adv-x="963" d="M105 521Q105 594 78 650Q114 674 174 674Q272 674 272 579Q272 532 252 406T231 220Q231 124 249 88Q299 95 338 146T401 268T435 412T447 547T430 653Q469 674 526 674Q622 674 622 594Q622 476 568
329Q566 297 566 280Q566 161 600 88Q650 95 689 146T752 268T786 412T798 547T781 653Q820 674 877 674Q973 674 973 594Q973 540 959 467T911 309T832 155T715 37T562 -10Q533 -10 503 1Q459 28 443 106Q340 -10 211 -10Q182 -10 152 1Q72 67 72 191Q72 255 88
347T105 521Z" />
<glyph unicode="X" glyph-name="X" horiz-adv-x="566" d="M565 76Q502 -10 443 -10Q431 -10 420 -6T398 9T378 29T360 57T344 89T328 127T313 167T297 210T281 253Q237 200 193 121T134 -10Q73 1 40 17T6 66Q6 84 20 110T68 173T122 231T188 297T240 347Q192 449
157 500T70 588Q136 673 191 673Q235 673 265 615Q296 553 333 435Q374 498 407 567T448 674Q489 666 513 659T559 636T581 596Q581 584 574 568T552 530T523 491T485 448T449 408T412 369T384 340Q420 250 462 183T565 76Z" />
<glyph unicode="Y" glyph-name="Y" horiz-adv-x="509" d="M188 282Q101 556 45 609Q79 642 102 655T154 668Q179 668 195 659T222 621Q265 509 302 389Q338 445 383 541T432 672Q565 672 565 609Q565 558 344 282L334 199Q322 96 322 67Q322 33 326 8Q293 -3 235
-3Q193 -3 176 12T158 59Q158 64 161 86T172 166T188 282Z" />
<glyph unicode="Z" glyph-name="Z" horiz-adv-x="586" d="M154 667Q188 667 306 654T481 640Q534 640 561 653Q584 630 584 590Q584 554 564 531L306 236Q254 175 219 123Q226 124 242 124Q275 124 345 111T447 98Q504 98 535 114Q550 80 550 56Q550 20 523 5T425
-10Q394 -10 302 2T156 15Q101 15 63 3Q36 30 36 61Q36 84 52 114Q106 211 388 535Q353 535 278 546T164 558T87 539Q73 574 73 601Q73 667 154 667Z" />
<glyph unicode="[" glyph-name="bracketleft" horiz-adv-x="412" d="M310 640L211 -109Q247 -107 286 -107Q323 -107 323 -141Q323 -160 313 -190H77L197 720H433Q434 713 434 699Q434 638 385 638Q344 638 310 640Z" />
<glyph unicode="\" glyph-name="backslash" horiz-adv-x="270" d="M108 214Q32 682 32 703Q32 742 84 742Q101 742 114 737Q126 600 168 330Q205 88 227 -51Q231 -72 231 -76T232 -82Q232 -122 185 -122Q172 -122 150 -117Q141 -9 108 214Z" />
<glyph unicode="]" glyph-name="bracketright" horiz-adv-x="395" d="M102 -110L201 639Q165 637 126 637Q90 637 90 670Q90 690 99 720H335L215 -190H-21Q-22 -183 -22 -170Q-22 -108 27 -108Q68 -108 102 -110Z" />
<glyph unicode="^" glyph-name="asciicircum" horiz-adv-x="537" d="M270 543Q263 536 237 508T195 463T154 424T111 391T78 380Q52 380 19 413Q47 455 131 541T269 675Q323 626 406 541T518 413Q485 380 460 380Q451 380 439 386T411 405T381 430T348 461T318
492T290 521T270 543Z" />
<glyph unicode="_" glyph-name="underscore" horiz-adv-x="535" d="M535 -110Q535 -128 525 -140T499 -152Q484 -152 430 -148T348 -144H205Q91 -144 3 -152Q0 -137 0 -122Q0 -106 9 -93T36 -80Q39 -80 99 -83T203 -87H345Q472 -87 532 -80Q535 -89 535 -110Z" />
<glyph unicode="`" glyph-name="grave" horiz-adv-x="229" d="M10 755Q28 724 70 690T143 629T174 579Q174 561 167 550T139 523Q109 549 58 580T-20 633T-48 679Q-48 726 10 755Z" />
<glyph unicode="a" glyph-name="a" horiz-adv-x="534" d="M310 189L335 358Q305 394 274 394Q232 394 208 333T184 196Q184 146 195 113T227 79Q246 79 270 109T310 189ZM303 104Q275 49 235 20T152 -10Q96 -10 61 35T26 168Q26 246 55 316T146 434T293 483Q395
483 492 417Q447 205 447 124Q447 86 479 66Q453 -10 379 -10Q338 -10 320 12T302 79Q302 95 303 104Z" />
<glyph unicode="b" glyph-name="b" horiz-adv-x="530" d="M223 286Q219 260 197 110Q227 79 258 79Q295 79 321 130T347 271Q347 320 333 356T294 393Q278 393 258 364T223 286ZM38 46Q57 155 87 365T117 609Q117 654 86 659Q93 697 123 719T193 742Q271 742 271
655Q271 600 239 399Q264 439 300 461T372 484Q430 484 467 435T505 296Q505 218 474 149T380 35T233 -10Q133 -10 38 46Z" />
<glyph unicode="c" glyph-name="c" horiz-adv-x="457" d="M344 314Q341 353 323 372T284 391Q238 391 210 337T182 207Q182 143 204 112T262 80Q283 80 306 97T344 143Q376 131 390 117T405 78Q405 41 365 16T247 -10Q148 -10 87 38T25 184Q25 257 50 316T117
411T206 466T305 485Q334 485 364 477T421 448T447 395Q447 365 418 342T344 314Z" />
<glyph unicode="d" glyph-name="d" horiz-adv-x="530" d="M311 189L335 358Q305 394 270 394Q234 394 209 340T183 201Q183 79 227 79Q245 79 270 110T311 189ZM346 435Q353 475 359 537T366 610Q366 653 335 659Q339 694 370 718T443 742Q520 742 520 653Q520
618 488 383T456 126Q456 88 487 67Q461 -10 386 -10Q301 -10 301 82Q301 97 302 104Q274 49 234 20T151 -10Q95 -10 60 35T25 168Q25 298 87 391T240 484Q290 484 346 435Z" />
<glyph unicode="e" glyph-name="e" horiz-adv-x="467" d="M202 242Q242 242 265 275T288 353Q288 371 278 383T255 395Q231 395 212 354T187 243Q192 242 202 242ZM351 134Q373 123 388 106T404 72Q404 37 353 14T234 -10Q148 -10 87 32T25 164Q25 290 105 387T311
485Q368 485 407 453T447 365Q447 276 381 227T213 177Q201 177 183 179Q183 80 262 80Q314 80 351 134Z" />
<glyph unicode="f" glyph-name="f" horiz-adv-x="380" d="M397 568Q383 625 329 625Q305 625 288 602T264 546T253 473Q323 473 386 478Q392 463 392 442Q392 417 381 400T344 382Q321 380 243 380Q225 188 212 88Q208 56 207 44T200 2T189 -41T174 -75T152 -106T123
-124T83 -132Q54 -132 32 -113T0 -54Q68 -34 95 379Q65 378 35 374Q31 396 31 408Q31 475 88 475H104Q112 583 170 648T346 714Q397 714 438 694T480 630Q480 608 460 591T397 568Z" />
<glyph unicode="g" glyph-name="g" horiz-adv-x="526" d="M286 483Q397 483 493 417Q461 282 444 150Q441 130 438 94T432 35T424 -20T412 -74T394 -122T368 -166T331 -201T283 -230T220 -246T141 -253Q78 -253 36 -236T-6 -186Q-6 -160 15 -141T58 -112Q86 -163
151 -163Q279 -163 289 80Q260 33 223 12T153 -10Q90 -10 59 42T27 170Q27 297 101 390T286 483ZM228 79Q245 79 270 108T311 189Q316 217 324 277T336 358Q308 394 275 394Q236 394 211 337T185 198Q185 145 196 112T228 79Z" />
<glyph unicode="h" glyph-name="h" horiz-adv-x="549" d="M197 742Q273 742 273 652Q273 577 241 385Q272 432 314 457T396 483Q449 483 478 451T507 366Q507 348 487 249T466 126Q466 86 500 66Q488 30 459 10T396 -10Q360 -10 335 12T310 74Q310 106 329 202T348
336Q348 392 315 392Q291 392 262 351T220 255L218 245Q199 104 199 72Q199 49 203 15Q165 -2 119 -2Q42 -2 42 54Q42 83 80 327T119 612Q119 655 88 659Q93 694 123 718T197 742Z" />
<glyph unicode="i" glyph-name="i" horiz-adv-x="283" d="M161 485Q237 485 237 395Q237 355 215 253T193 127Q193 87 225 67Q211 29 184 10T123 -10Q38 -10 38 81Q38 128 60 229T83 355Q83 398 52 402Q57 437 87 461T161 485ZM175 531Q137 531 118 553T98 608Q98
647 124 677T196 708Q233 708 253 684T273 627Q273 588 248 560T175 531Z" />
<glyph unicode="j" glyph-name="j" horiz-adv-x="317" d="M192 485Q268 485 268 392Q268 310 213 -20Q196 -128 133 -190T-40 -253Q-66 -253 -94 -249T-151 -228T-180 -186Q-180 -165 -162 -144T-116 -112Q-105 -133 -84 -148T-40 -163Q-9 -163 18 -131T57 -25Q114
321 114 355Q114 398 83 402Q88 437 118 461T192 485ZM200 531Q162 531 143 553T123 608Q123 647 149 677T221 708Q258 708 278 684T298 627Q298 588 273 560T200 531Z" />
<glyph unicode="k" glyph-name="k" horiz-adv-x="525" d="M318 388Q306 388 292 380T256 341T220 260L218 248Q199 130 199 65Q199 42 203 8Q165 -9 119 -9Q42 -9 42 47Q42 76 80 320T119 605Q119 648 88 652Q93 687 123 711T197 735Q273 735 273 645Q273 572
241 382Q283 436 317 459T393 483Q437 483 466 454T496 379Q496 317 457 267T360 207Q364 196 370 180T379 156T387 137T395 120T402 106T410 95T419 88T429 83T441 82Q462 82 493 91Q500 68 500 57Q500 24 468 7T397 -10Q363 -10 345 -3T311 26Q281 68 249 198Q244
203 244 215Q244 239 260 266Q272 263 281 263Q311 263 332 289T354 349Q354 388 318 388Z" />
<glyph unicode="l" glyph-name="l" horiz-adv-x="271" d="M185 742Q261 742 261 652Q261 612 229 382T197 127Q197 87 229 67Q218 36 194 13T131 -10Q42 -10 42 81Q42 125 74 349T107 612Q107 655 76 659Q81 694 111 718T185 742Z" />
<glyph unicode="m" glyph-name="m" horiz-adv-x="811" d="M213 253Q199 135 199 72Q199 49 203 15Q165 -2 119 -2Q42 -2 42 54Q42 59 62 189T82 351Q82 395 51 402Q57 440 86 462T152 485Q237 485 237 402Q237 400 237 395T236 386Q266 433 308 458T390 483Q438
483 466 456T500 383Q572 483 658 483Q711 483 740 451T769 366Q769 348 749 249T728 126Q728 86 762 66Q750 30 721 10T658 -10Q622 -10 597 12T572 74Q572 106 591 202T610 336Q610 392 577 392Q553 392 524 352T482 259Q482 256 480 248Q467 140 467 72Q467
49 471 15Q433 -2 387 -2Q310 -2 310 54Q310 61 318 113T336 230T349 329V336Q349 361 338 376T309 392Q285 392 256 350T213 253Z" />
<glyph unicode="n" glyph-name="n" horiz-adv-x="543" d="M213 253Q199 135 199 72Q199 49 203 15Q165 -2 119 -2Q42 -2 42 54Q42 59 62 189T82 351Q82 395 51 402Q57 440 86 462T152 485Q237 485 237 402Q237 400 237 395T236 386Q266 433 308 458T390 483Q443
483 472 451T501 366Q501 348 481 249T460 126Q460 86 494 66Q482 30 453 10T390 -10Q354 -10 329 12T304 74Q304 106 323 202T342 336Q342 392 309 392Q285 392 256 350T213 253Z" />
<glyph unicode="o" glyph-name="o" horiz-adv-x="517" d="M267 394Q232 394 210 337T187 206Q187 151 203 116T248 80Q283 80 305 136T328 265Q328 322 313 358T267 394ZM220 -10Q130 -10 78 45T25 191Q25 314 100 399T293 484Q386 484 439 433T492 291Q492 168
414 79T220 -10Z" />
<glyph unicode="p" glyph-name="p" horiz-adv-x="535" d="M379 484Q437 484 473 440T510 304Q510 169 444 80T294 -10Q234 -10 188 35Q168 -76 168 -113Q168 -156 200 -176Q172 -253 94 -253Q13 -253 13 -156Q13 -110 50 106T87 352Q87 394 56 402Q62 441 91 463T157
485Q242 485 242 404Q242 396 241 391Q268 436 304 460T379 484ZM230 294Q224 251 199 110Q227 79 261 79Q298 79 325 133T352 281Q352 332 339 363T302 394Q286 394 266 367T230 294Z" />
<glyph unicode="q" glyph-name="q" horiz-adv-x="515" d="M492 417Q474 343 439 131T404 -117Q404 -157 436 -177Q426 -208 400 -231T339 -254Q286 -254 268 -228T249 -152Q249 -100 287 80Q231 -10 151 -10Q95 -10 60 36T25 169Q25 298 100 390T286 483Q398 483
492 417ZM310 193Q314 217 322 276T334 359Q301 394 273 394Q234 394 209 336T183 184Q183 140 194 110T226 80Q245 80 270 111T310 193Z" />
<glyph unicode="r" glyph-name="r" horiz-adv-x="396" d="M210 233Q198 120 198 63Q198 45 202 15Q165 -2 117 -2Q41 -2 41 54Q41 62 61 191T81 351Q81 395 50 402Q54 435 81 460T153 485Q236 485 236 403Q236 389 232 366Q261 425 297 454T366 484Q417 484 417
431Q417 408 406 384T378 346Q347 371 316 371Q246 371 210 233Z" />
<glyph unicode="s" glyph-name="s" horiz-adv-x="429" d="M305 324Q301 355 285 372T245 389T205 376T187 336Q187 316 206 304T254 285T310 268T357 232T377 167Q377 88 314 39T165 -10Q5 -10 5 65Q5 122 93 158Q99 122 122 104T175 86Q205 86 225 98T245 138Q245
155 226 165T178 182T123 200T76 237T56 305Q56 381 119 433T263 485Q295 485 325 478T381 452T407 405Q407 341 305 324Z" />
<glyph unicode="t" glyph-name="t" horiz-adv-x="390" d="M74 475H107Q110 493 115 532T120 574Q150 580 188 580Q234 580 250 572T267 540Q267 524 258 474Q372 474 414 479Q419 461 419 442Q419 386 369 382Q336 380 243 380Q210 146 210 123Q210 98 225 85T263
72Q303 72 329 103Q356 76 356 48Q356 -10 232 -10Q144 -10 104 24T64 125Q64 144 69 184T84 290T97 380Q84 380 18 374Q16 390 16 401Q16 475 74 475Z" />
<glyph unicode="u" glyph-name="u" horiz-adv-x="548" d="M321 104Q295 57 252 24T158 -10Q105 -10 76 22T47 105Q47 127 67 222T87 350Q87 392 56 402Q62 441 91 463T157 485Q244 485 244 393Q244 358 225 268T204 136Q204 81 236 81Q259 81 287 121T328 217Q355
377 360 464Q400 478 430 478Q508 478 508 406Q508 384 487 263T465 124Q465 85 497 66Q488 36 463 13T399 -10Q353 -10 337 13T320 78Q320 95 321 104Z" />
<glyph unicode="v" glyph-name="v" horiz-adv-x="479" d="M67 366Q67 417 48 457Q85 484 143 484Q191 484 210 465T229 406Q229 377 213 294T197 165Q197 127 205 99Q241 109 269 159T311 267T324 375Q324 430 309 459Q341 484 392 484Q428 484 452 468T477 418Q477
370 452 299T384 159T275 40T139 -10Q115 -10 95 -2Q46 41 46 132Q46 177 56 242T67 366Z" />
<glyph unicode="w" glyph-name="w" horiz-adv-x="727" d="M67 366Q67 417 48 457Q85 484 143 484Q191 484 210 465T229 406Q229 377 213 294T197 165Q197 127 205 99Q241 109 269 159T311 267T324 375Q324 430 309 459Q341 484 392 484Q428 484 452 468T477 418Q477
355 437 261Q437 138 453 99Q489 109 517 159T559 267T572 375Q572 430 557 459Q589 484 640 484Q676 484 700 468T725 418Q725 370 700 299T632 159T523 40T387 -10Q363 -10 343 -2Q316 21 311 70Q229 -10 139 -10Q115 -10 95 -2Q46 41 46 132Q46 177 56 242T67
366Z" />
<glyph unicode="x" glyph-name="x" horiz-adv-x="462" d="M44 370Q40 392 40 405Q40 439 67 463T131 488Q148 488 162 483T188 465T208 443T224 411T236 380T248 345T258 314Q298 374 306 482Q316 484 338 484Q382 484 408 465T435 415Q435 401 428 384T412 354T385
320T358 291T328 262T304 239Q308 231 318 211T332 183T345 160T359 137T373 120T391 105T410 98T433 94Q437 74 437 60Q437 29 413 10T353 -10Q293 -10 267 27T207 165Q140 54 134 -6Q124 -7 107 -7Q62 -7 37 9T11 52Q11 64 16 78T34 107T55 133T84 162T112 186T141
209T164 228Q160 236 151 256T138 283T126 306T113 328T100 345T83 359T65 366T44 370Z" />
<glyph unicode="y" glyph-name="y" horiz-adv-x="485" d="M249 112Q312 273 318 390Q318 428 303 459Q338 484 384 484Q470 484 470 405Q470 332 417 212T298 -4Q266 -52 246 -79T193 -140T131 -190T59 -218T-34 -230Q-100 -230 -140 -209T-180 -156Q-180 -114
-110 -78Q-103 -104 -76 -122T-21 -140Q72 -140 155 3Q153 61 103 217T3 412Q26 444 57 463T116 483Q145 483 167 462T201 397Q228 288 249 112Z" />
<glyph unicode="z" glyph-name="z" horiz-adv-x="472" d="M119 483Q147 483 241 474T379 464Q428 464 450 473Q467 455 467 422Q467 398 452 382Q293 215 210 108Q215 109 225 109Q247 109 294 100T362 90Q397 90 417 102Q428 77 428 54Q428 20 406 5T331 -10Q306
-10 231 -1T113 8Q63 8 30 -1Q11 25 11 41Q11 56 23 79Q59 142 269 372Q245 372 197 378T123 384Q92 384 64 370Q56 399 56 423Q56 483 119 483Z" />
<glyph unicode="{" glyph-name="braceleft" horiz-adv-x="412" d="M182 286Q204 278 223 250T243 191Q243 184 230 84T216 -25Q216 -43 230 -50T282 -58Q321 -58 321 -94Q321 -110 312 -141Q299 -142 278 -142Q178 -142 134 -119T90 -48Q90 -30 104 72T119 190Q119
218 105 239T60 261L66 311Q101 311 123 338T149 395L176 604Q184 660 234 687T392 715Q414 715 426 714Q427 707 427 693Q427 631 374 631Q324 631 311 619T293 571L269 393Q264 358 237 327T182 286Z" />
<glyph unicode="|" glyph-name="bar" horiz-adv-x="503" d="M208 302V319Q208 654 196 732Q219 737 239 737Q305 737 305 682Q305 677 303 606T298 419T295 186V169Q295 -166 307 -244Q284 -249 264 -249Q198 -249 198 -194Q198 -189 200 -118T205 69T208 302Z" />
<glyph unicode="}" glyph-name="braceright" horiz-adv-x="411" d="M229 287Q207 295 188 323T168 382Q168 389 181 489T195 598Q195 616 181 623T129 631Q89 631 89 665Q89 682 99 714Q112 715 133 715Q233 715 277 692T321 621Q321 603 307 499T292 382Q292
355 306 334T351 312L345 262Q310 262 288 235T262 178L235 -31Q227 -87 177 -114T19 -142Q-3 -142 -14 -141Q-15 -134 -15 -121Q-15 -58 37 -58Q87 -58 100 -46T118 2L142 180Q147 215 174 246T229 287Z" />
<glyph unicode="~" glyph-name="asciitilde" horiz-adv-x="608" d="M31 267Q31 349 159 349Q214 349 301 329T431 309Q504 309 543 344Q577 308 577 275Q577 233 532 213T424 193Q389 193 306 213T178 233Q104 233 65 198Q31 234 31 267Z" />
<glyph unicode="&#xa1;" glyph-name="exclamdown" horiz-adv-x="344" d="M212 -165Q212 -196 214 -208Q170 -219 134 -219Q54 -219 54 -160Q54 -138 83 -12T112 196Q112 218 110 227Q146 246 181 246Q212 246 231 233T251 194Q251 188 242 123T222 -27T212 -165ZM216
485Q248 485 269 464T290 410Q290 371 261 339T191 307Q160 307 139 329T117 385Q117 423 147 454T216 485Z" />
<glyph unicode="&#xa2;" glyph-name="cent" horiz-adv-x="574" d="M277 -16Q241 -16 241 14Q241 23 248 73Q167 87 114 138T60 276Q60 402 135 478T316 574Q322 614 326 677Q340 682 351 682Q386 682 386 653Q386 651 376 581H383Q457 581 501 554T546 491Q546
470 528 453T474 426Q437 484 377 484Q374 484 370 484T363 483Q346 355 318 165Q324 164 337 164Q402 164 437 224Q501 212 501 174Q501 144 480 122T426 89T363 73T305 68Q301 40 299 -13L277 -16ZM216 296Q216 227 264 189L301 459Q263 433 240 390T216 296Z"
/>
<glyph unicode="&#xa3;" glyph-name="sterling" horiz-adv-x="574" d="M428 312L361 315Q361 248 333 200T218 104Q238 103 282 95T346 86Q410 86 415 152H425Q509 152 509 96Q509 62 483 39T424 6T355 -3Q267 -3 191 13T106 29Q97 16 79 7T42 -2Q5 -2 5 35Q5
63 31 86T109 112Q162 169 184 205T206 284Q206 302 202 315Q173 315 134 314T73 312Q71 326 71 333Q71 388 117 393Q120 393 178 396Q147 465 147 503Q147 576 216 625T379 674Q426 674 454 653T482 604Q482 581 462 560T403 528Q388 568 351 568Q328 568 312
553T295 510Q295 491 318 451T346 400Q431 404 493 412Q496 392 496 374Q496 344 482 328T428 312Z" />
<glyph unicode="&#xa5;" glyph-name="yen" horiz-adv-x="574" d="M521 354V344Q521 291 478 291H345L338 236Q424 236 506 244V234Q506 181 463 181H331Q318 92 318 58Q318 34 321 7Q289 -3 245 -3Q203 -3 186 10T169 50Q169 74 185 180Q88 178 30 173Q28 179
28 191Q28 236 70 236H194L202 291Q119 290 45 283Q43 289 43 301Q43 346 85 346H181Q112 552 55 613Q106 668 154 668Q200 668 218 624Q268 497 300 383Q343 446 392 540T446 672Q572 672 572 609Q572 582 520 505T398 346Q458 347 521 354Z" />
<glyph unicode="&#xa6;" glyph-name="brokenbar" horiz-adv-x="574" d="M242 554V561Q242 700 230 732Q253 737 273 737Q339 737 339 682Q339 680 337 651T332 573T329 477V470Q329 332 341 300Q318 294 298 294Q232 294 232 348Q232 350 234 379T239 457T242
554ZM242 11V18Q242 157 230 189Q253 194 273 194Q339 194 339 139Q339 137 337 108T332 30T329 -66V-73Q329 -211 341 -243Q318 -249 298 -249Q232 -249 232 -195Q232 -193 234 -164T239 -86T242 11Z" />
<glyph unicode="&#xa7;" glyph-name="section" horiz-adv-x="482" d="M68 309Q68 389 136 437Q117 469 117 507Q117 588 181 630T334 672Q407 672 444 650T482 597Q482 571 457 548T390 516Q386 545 364 563T315 581T268 566T248 523Q248 496 269 474T320 436T381
400T433 352T454 283Q454 211 390 158Q410 126 410 90Q410 12 342 -33T187 -78Q102 -78 61 -56T19 -2Q19 21 38 42T90 75Q114 12 198 12Q230 12 252 31T275 84Q275 112 254 132T202 166T142 196T90 241T68 309ZM162 363Q162 330 192 304T277 248T356 196Q362 209
362 222Q362 252 331 278T248 337T168 395Q162 382 162 363Z" />
<glyph unicode="&#xa8;" glyph-name="dieresis" horiz-adv-x="409" d="M191 530Q156 530 137 551T118 603Q118 640 143 669T212 699Q246 699 265 676T285 621Q285 585 260 558T191 530ZM419 530Q384 530 365 551T346 603Q346 640 371 669T440 699Q474 699 493
676T513 621Q513 585 488 558T419 530Z" />
<glyph unicode="&#xa9;" glyph-name="copyright" horiz-adv-x="840" d="M613 161Q613 135 572 116T475 96Q434 96 397 107T327 143T273 213T253 319Q253 433 319 492T469 551Q499 551 530 543T588 514T614 464Q614 425 541 415Q533 446 510 462T462 478Q422 478
395 437T368 330Q368 246 402 208T484 169Q538 169 572 215Q613 190 613 161ZM808 320Q808 170 708 68T463 -34Q316 -34 216 67T116 320Q116 472 216 573T463 674Q608 674 708 573T808 320ZM736 320Q736 452 657 534T463 617Q347 617 268 535T188 320T267 105T463
23Q577 23 656 105T736 320Z" />
<glyph unicode="&#xaa;" glyph-name="ordfeminine" horiz-adv-x="345" d="M201 482Q183 480 174 479T152 473T134 460T128 439Q128 417 149 417Q176 417 193 432L195 448Q197 468 201 482ZM106 551Q88 553 76 563T63 587Q63 618 102 630T183 643Q230 643 262 625T294
567Q294 559 285 497T275 400Q275 381 277 373Q260 362 230 362Q188 362 188 393Q158 358 112 358Q80 358 58 377T35 430Q35 447 39 460T48 482T66 498T86 509T112 516T140 521T172 525T205 529Q207 549 207 556Q207 573 200 580T172 588Q126 588 106 551ZM281
286Q281 214 203 214Q192 214 163 217T118 221H113Q72 221 22 205Q20 219 20 236Q20 308 94 308Q100 308 130 305T178 302H191Q238 302 277 317Q281 300 281 286Z" />
<glyph unicode="&#xab;" glyph-name="guillemotleft" horiz-adv-x="568" d="M201 235Q225 198 249 149T273 82Q273 52 199 24Q136 87 54 235Q171 380 254 446Q313 415 313 391Q313 364 201 235ZM441 235Q465 198 489 149T513 82Q513 52 439 24Q376 87 294 235Q411
380 494 446Q553 415 553 391Q553 364 441 235Z" />
<glyph unicode="&#xac;" glyph-name="logicalnot" horiz-adv-x="574" d="M495 336Q498 103 498 100Q498 64 485 48T435 32Q397 32 371 44Q396 129 396 246V261H210Q129 261 67 240Q57 262 57 283Q57 336 117 336H495Z" />
<glyph unicode="&#xae;" glyph-name="registered" horiz-adv-x="572" d="M416 356Q420 348 420 340Q420 329 410 323T386 316Q361 316 346 334Q303 379 281 419V396Q281 354 290 328Q271 318 253 318Q206 318 206 348Q206 357 207 378T208 407V474Q208 526 203
560Q278 566 300 566Q412 566 412 488Q412 437 352 418Q359 404 398 360Q402 356 416 356ZM301 451Q340 451 340 488Q340 506 327 517T294 529H281V452Q285 451 301 451ZM533 539T533 440T467 274T305 207Q208 207 142 274T76 440Q76 540 142 606T305 673Q400 673
466 606ZM474 358T474 440T425 572T305 623Q233 623 184 573T135 440T184 308T305 257Q376 257 425 307Z" />
<glyph unicode="&#xaf;" glyph-name="overscore" horiz-adv-x="412" d="M276 646Q335 646 419 654Q419 652 419 637T418 616T415 597T410 578T401 564T388 553T368 550L348 552Q329 554 298 555T239 557H212Q150 557 87 550Q87 552 87 565T87 584T89 603T94 623T102
638T115 650T133 654Q136 654 181 650T249 646H276Z" />
<glyph unicode="&#xb0;" glyph-name="degree" horiz-adv-x="351" d="M47 520Q47 597 96 654T224 711Q282 711 317 674T353 579Q353 502 304 445T177 387Q118 387 83 424T47 520ZM212 642Q175 642 152 607T128 528Q128 495 142 476T184 456Q221 456 243 492T266
571Q266 603 253 622T212 642Z" />
<glyph unicode="&#xb1;" glyph-name="plusminus" horiz-adv-x="574" d="M493 57Q493 32 479 15T442 -3Q425 -3 366 2T276 8Q163 8 60 -3Q56 18 56 39Q56 62 68 80T107 99Q111 99 174 94T284 89Q418 89 487 99Q493 87 493 57ZM326 333Q411 333 514 344Q518 332
518 302Q518 277 504 260T466 242Q442 242 401 247T325 252Q325 187 336 126Q304 120 293 120Q269 120 251 132T233 169Q233 179 238 211T243 253Q209 253 47 242Q43 263 43 284Q43 307 55 325T95 344Q103 344 143 340T245 334Q245 407 233 506Q246 510 276 510Q301
510 318 496T336 459T331 402T326 333Z" />
<glyph unicode="&#xb2;" glyph-name="twosuperior" horiz-adv-x="499" d="M163 509Q106 518 106 559Q106 594 141 621T219 661T295 673Q367 673 403 643T440 564Q440 525 421 489T363 420T296 368T222 320Q239 319 272 319Q358 319 420 338Q435 308 435 285Q435
242 402 232Q361 220 276 220Q238 220 182 221T99 222Q54 222 54 259Q54 276 61 302Q304 449 304 546Q304 582 261 582Q204 582 163 509Z" />
<glyph unicode="&#xb3;" glyph-name="threesuperior" horiz-adv-x="493" d="M172 484Q294 486 294 563Q294 593 255 593Q229 593 200 579T156 545Q118 556 118 591Q118 619 149 638T215 665T278 673Q355 673 392 648T430 581Q430 538 405 506T335 458Q408 433
408 361Q408 284 346 246T189 208Q167 208 140 211T84 229T54 266Q54 303 108 339Q137 292 200 292Q275 292 275 364Q275 389 254 405T191 421Q165 421 165 449Q165 463 172 484Z" />
<glyph unicode="&#xb4;" glyph-name="acute" horiz-adv-x="272" d="M243 629Q218 614 132 578T26 523Q0 548 0 579Q0 600 26 620T88 655T165 697T231 753Q248 742 260 721T272 681Q272 647 243 629Z" />
<glyph unicode="&#xb5;" glyph-name="mu" horiz-adv-x="544" d="M317 104Q303 57 277 24T213 -10Q190 -10 165 5Q153 -33 153 -73Q153 -148 196 -176Q168 -253 90 -253Q9 -253 9 -156Q9 -110 45 105T83 350Q83 392 52 402Q58 441 87 463T153 485Q240 485 240 393Q240
358 221 268T200 136Q200 81 232 81Q255 81 283 121T324 217Q351 377 356 464Q396 478 426 478Q504 478 504 406Q504 384 483 263T461 124Q461 85 493 66Q484 36 459 13T395 -10Q349 -10 333 13T316 78Q316 95 317 104Z" />
<glyph unicode="&#xb6;" glyph-name="paragraph" horiz-adv-x="504" d="M236 228Q234 211 190 211Q132 211 93 251T54 358Q54 453 115 514T262 575Q269 575 334 573T432 571Q498 571 534 572Q536 556 536 550Q536 502 471 502H448Q405 302 381 111Q352 -119 190
-119Q115 -119 115 -65Q115 -47 126 -22Q154 -34 184 -34T234 -19T262 26T275 82T281 147T286 201Q313 382 338 501Q309 501 283 503Q262 420 236 228Z" />
<glyph unicode="&#xb7;" glyph-name="middot" horiz-adv-x="229" d="M107 167Q68 167 47 190T26 248Q26 289 54 321T130 354Q168 354 189 329T211 268Q211 228 184 198T107 167Z" />
<glyph unicode="&#xb8;" glyph-name="cedilla" horiz-adv-x="394" d="M116 32L197 27Q195 21 188 10T177 -12T172 -32T183 -50T207 -68T231 -92T242 -131Q242 -183 189 -217T77 -252Q16 -252 16 -211Q16 -186 46 -153Q57 -166 78 -166Q94 -166 103 -156T113 -129Q113
-114 96 -94T78 -60Q78 -31 116 32Z" />
<glyph unicode="&#xb9;" glyph-name="onesuperior" horiz-adv-x="436" d="M298 308Q334 308 370 312Q373 300 373 285Q373 259 364 239T334 219Q328 219 303 219T235 220T138 221Q91 221 65 220Q63 238 63 248Q63 310 115 310H160Q176 415 195 582Q151 577 111
562Q106 579 106 596Q106 650 145 659Q204 673 283 673Q342 673 342 621Q342 604 329 539T313 450Q298 345 298 308Z" />
<glyph unicode="&#xba;" glyph-name="ordmasculine" horiz-adv-x="385" d="M172 419Q205 419 223 448T242 517Q242 588 195 588Q163 588 145 559T127 491Q127 419 172 419ZM165 366Q109 366 76 397T43 482Q43 547 88 595T201 643Q258 643 291 612T325 528Q325
463 279 415T165 366ZM281 286Q281 214 203 214Q192 214 163 217T118 221H113Q72 221 22 205Q20 219 20 236Q20 308 94 308Q100 308 130 305T178 302H191Q238 302 277 317Q281 300 281 286Z" />
<glyph unicode="&#xbb;" glyph-name="guillemotright" horiz-adv-x="571" d="M129 235Q107 267 82 316T56 384Q56 398 71 412T131 446Q188 389 276 235Q156 89 74 24Q15 48 15 76Q15 110 129 235ZM370 235Q348 267 323 316T297 384Q297 398 312 412T372 446Q429
389 517 235Q397 89 315 24Q256 48 256 76Q256 110 370 235Z" />
<glyph unicode="&#xbc;" glyph-name="onequarter" horiz-adv-x="996" d="M249 -38L533 436Q642 616 706 739Q730 739 750 729T770 700Q770 684 759 668L475 194Q361 6 302 -109Q277 -108 258 -98T238 -68Q238 -55 249 -38ZM298 308Q334 308 370 312Q373 300 373
285Q373 259 364 239T334 219Q328 219 303 219T235 220T138 221Q91 221 65 220Q63 238 63 248Q63 310 115 310H160Q176 415 195 582Q151 577 111 562Q106 579 106 596Q106 650 145 659Q204 673 283 673Q342 673 342 621Q342 604 329 539T313 450Q298 345 298 308ZM757
434Q782 455 841 455Q877 455 902 450Q902 445 897 413T881 321T863 198Q908 201 928 210Q933 180 933 166Q933 134 915 123T851 110Q845 71 845 46Q845 23 850 -2Q820 -10 797 -10Q761 -10 747 -1T733 30Q733 32 745 109Q600 111 571 116Q546 121 546 151Q546
153 553 195Q596 258 655 328T757 434ZM660 195Q679 193 757 193Q766 270 778 341Q706 262 660 195Z" />
<glyph unicode="&#xbd;" glyph-name="onehalf" horiz-adv-x="1026" d="M249 -38L533 436Q642 616 706 739Q730 739 750 729T770 700Q770 684 759 668L475 194Q361 6 302 -109Q277 -108 258 -98T238 -68Q238 -55 249 -38ZM298 308Q334 308 370 312Q373 300 373
285Q373 259 364 239T334 219Q328 219 303 219T235 220T138 221Q91 221 65 220Q63 238 63 248Q63 310 115 310H160Q176 415 195 582Q151 577 111 562Q106 579 106 596Q106 650 145 659Q204 673 283 673Q342 673 342 621Q342 604 329 539T313 450Q298 345 298 308ZM690
287Q633 296 633 337Q633 372 668 399T746 439T822 451Q894 451 930 421T967 342Q967 303 948 267T890 198T823 146T749 98Q766 97 799 97Q885 97 947 116Q962 86 962 63Q962 20 929 10Q888 -2 803 -2Q765 -2 709 -1T626 0Q581 0 581 37Q581 54 588 80Q831 227
831 324Q831 360 788 360Q731 360 690 287Z" />
<glyph unicode="&#xbe;" glyph-name="threequarters" horiz-adv-x="1007" d="M260 -38L544 436Q653 616 717 739Q741 739 761 729T781 700Q781 684 770 668L486 194Q372 6 313 -109Q288 -108 269 -98T249 -68Q249 -55 260 -38ZM768 434Q793 455 852 455Q888 455
913 450Q913 445 908 413T892 321T874 198Q919 201 939 210Q944 180 944 166Q944 134 926 123T862 110Q856 71 856 46Q856 23 861 -2Q831 -10 808 -10Q772 -10 758 -1T744 30Q744 32 756 109Q611 111 582 116Q557 121 557 151Q557 153 564 195Q607 258 666 328T768
434ZM671 195Q690 193 768 193Q777 270 789 341Q717 262 671 195ZM172 484Q294 486 294 563Q294 593 255 593Q229 593 200 579T156 545Q118 556 118 591Q118 619 149 638T215 665T278 673Q355 673 392 648T430 581Q430 538 405 506T335 458Q408 433 408 361Q408
284 346 246T189 208Q167 208 140 211T84 229T54 266Q54 303 108 339Q137 292 200 292Q275 292 275 364Q275 389 254 405T191 421Q165 421 165 449Q165 463 172 484Z" />
<glyph unicode="&#xbf;" glyph-name="questiondown" horiz-adv-x="410" d="M166 226Q209 247 239 247Q313 247 313 194Q313 164 296 134T255 78T205 27T163 -29T146 -89Q146 -132 193 -132Q217 -132 241 -112T275 -57Q356 -67 356 -115Q356 -162 301 -190T172
-219Q106 -219 53 -191T0 -100Q0 -57 17 -22T60 39T109 87T151 138T169 198Q169 211 166 226ZM272 486Q304 486 325 465T346 411Q346 372 317 340T247 308Q216 308 195 330T173 386Q173 424 203 455T272 486Z" />
<glyph unicode="&#xc0;" glyph-name="Agrave" horiz-adv-x="593" d="M405 30Q392 84 374 191Q333 188 290 188Q248 188 205 191Q131 13 122 -13Q-10 -10 -10 50Q-10 65 3 92T55 196T130 349Q246 597 267 670Q317 676 349 676Q432 676 444 611Q486 382 507 293Q553
92 577 14Q517 -10 470 -10Q414 -10 405 30ZM235 948Q253 917 295 883T368 822T399 772Q399 754 392 743T364 716Q334 742 283 773T205 826T177 872Q177 919 235 948ZM335 549Q297 424 243 287Q275 285 309 285Q347 285 361 287Q345 419 335 549Z" />
<glyph unicode="&#xc1;" glyph-name="Aacute" horiz-adv-x="593" d="M405 30Q392 84 374 191Q333 188 290 188Q248 188 205 191Q131 13 122 -13Q-10 -10 -10 50Q-10 65 3 92T55 196T130 349Q246 597 267 670Q317 676 349 676Q432 676 444 611Q486 382 507 293Q553
92 577 14Q517 -10 470 -10Q414 -10 405 30ZM490 822Q465 807 379 771T273 716Q247 741 247 772Q247 793 273 813T335 848T412 890T478 946Q495 935 507 914T519 874Q519 840 490 822ZM335 549Q297 424 243 287Q275 285 309 285Q347 285 361 287Q345 419 335 549Z"
/>
<glyph unicode="&#xc2;" glyph-name="Acircumflex" horiz-adv-x="593" d="M405 30Q392 84 374 191Q333 188 290 188Q248 188 205 191Q131 13 122 -13Q-10 -10 -10 50Q-10 65 3 92T55 196T130 349Q246 597 267 670Q317 676 349 676Q432 676 444 611Q486 382 507
293Q553 92 577 14Q517 -10 470 -10Q414 -10 405 30ZM360 912Q399 886 424 867T472 821T495 771Q495 755 477 737T429 712Q410 740 389 762T356 792L344 801Q240 720 218 720Q201 720 192 727T171 758Q258 847 360 912ZM335 549Q297 424 243 287Q275 285 309 285Q347
285 361 287Q345 419 335 549Z" />
<glyph unicode="&#xc3;" glyph-name="Atilde" horiz-adv-x="593" d="M405 30Q392 84 374 191Q333 188 290 188Q248 188 205 191Q131 13 122 -13Q-10 -10 -10 50Q-10 65 3 92T55 196T130 349Q246 597 267 670Q317 676 349 676Q432 676 444 611Q486 382 507 293Q553
92 577 14Q517 -10 470 -10Q414 -10 405 30ZM518 833Q518 792 474 760T384 727Q361 727 323 748T269 770Q249 770 200 730Q169 743 169 765Q169 805 214 838T303 871Q326 871 364 850T419 828Q440 828 487 868Q498 866 508 857T518 833ZM335 549Q297 424 243 287Q275
285 309 285Q347 285 361 287Q345 419 335 549Z" />
<glyph unicode="&#xc4;" glyph-name="Adieresis" horiz-adv-x="593" d="M405 30Q392 84 374 191Q333 188 290 188Q248 188 205 191Q131 13 122 -13Q-10 -10 -10 50Q-10 65 3 92T55 196T130 349Q246 597 267 670Q317 676 349 676Q432 676 444 611Q486 382 507 293Q553
92 577 14Q517 -10 470 -10Q414 -10 405 30ZM219 723Q184 723 165 744T146 796Q146 833 171 862T240 892Q274 892 293 869T313 814Q313 778 288 751T219 723ZM447 723Q412 723 393 744T374 796Q374 833 399 862T468 892Q502 892 521 869T541 814Q541 778 516 751T447
723ZM335 549Q297 424 243 287Q275 285 309 285Q347 285 361 287Q345 419 335 549Z" />
<glyph unicode="&#xc5;" glyph-name="Aring" horiz-adv-x="593" d="M405 30Q392 84 374 191Q333 188 290 188Q248 188 205 191Q131 13 122 -13Q-10 -10 -10 50Q-10 65 3 92T55 196T130 349Q246 597 267 670Q317 676 349 676Q432 676 444 611Q486 382 507 293Q553
92 577 14Q517 -10 470 -10Q414 -10 405 30ZM339 733Q296 733 270 759T244 830Q244 884 279 925T370 966Q413 966 438 940T463 870Q463 813 430 773T339 733ZM335 549Q297 424 243 287Q275 285 309 285Q347 285 361 287Q345 419 335 549ZM346 783Q373 783 389 805T406
857Q406 884 395 900T363 916Q336 916 319 894T302 842Q302 816 313 800T346 783Z" />
<glyph unicode="&#xc6;" glyph-name="AE" horiz-adv-x="796" d="M792 540Q746 561 633 561Q600 561 551 558Q549 524 533 406Q666 406 698 410Q700 390 700 375Q700 310 656 305Q632 303 518 303Q498 140 498 101Q526 99 562 99Q615 99 670 105T743 121Q751 83
751 65Q751 17 716 7T558 -3Q405 -3 373 -1Q349 0 339 8T329 34Q329 67 346 189Q325 188 283 188Q248 188 190 190Q96 49 66 -10Q-44 5 -44 51Q-44 70 -25 99T42 195T113 298Q255 505 336 654Q512 665 631 665Q784 665 803 646Q811 638 811 618Q811 578 792 540ZM386
491L254 286Q268 285 302 285Q332 285 360 287Q381 447 386 491Z" />
<glyph unicode="&#xc7;" glyph-name="Ccedilla" horiz-adv-x="568" d="M456 170Q530 143 530 102Q530 62 472 29T331 -9Q326 -22 326 -32Q326 -41 337 -50T361 -68T385 -92T396 -131Q396 -183 343 -217T231 -252Q170 -252 170 -211Q170 -186 200 -153Q211 -166
232 -166Q248 -166 257 -156T267 -129Q267 -114 250 -94T232 -60Q232 -36 249 -4Q153 13 99 84T44 264Q44 368 78 450T168 579T284 649T408 673Q483 673 533 641T583 555Q583 526 557 508T489 484Q480 528 453 550T390 572Q310 572 261 487T212 287Q212 200 245
146T345 91Q411 91 456 170Z" />
<glyph unicode="&#xc8;" glyph-name="Egrave" horiz-adv-x="521" d="M517 540Q471 561 358 561Q326 561 276 558Q274 524 258 406Q391 406 423 410Q425 390 425 375Q425 310 381 305Q357 303 243 303Q223 140 223 101Q251 99 287 99Q340 99 395 105T468 121Q476
83 476 65Q476 17 441 7T283 -3Q130 -3 98 -1Q74 0 64 8T54 34Q54 62 87 306T121 631Q121 649 120 656Q238 665 356 665Q509 665 528 646Q536 638 536 618Q536 578 517 540ZM247 948Q265 917 307 883T380 822T411 772Q411 754 404 743T376 716Q346 742 295 773T217
826T189 872Q189 919 247 948Z" />
<glyph unicode="&#xc9;" glyph-name="Eacute" horiz-adv-x="521" d="M517 540Q471 561 358 561Q326 561 276 558Q274 524 258 406Q391 406 423 410Q425 390 425 375Q425 310 381 305Q357 303 243 303Q223 140 223 101Q251 99 287 99Q340 99 395 105T468 121Q476
83 476 65Q476 17 441 7T283 -3Q130 -3 98 -1Q74 0 64 8T54 34Q54 62 87 306T121 631Q121 649 120 656Q238 665 356 665Q509 665 528 646Q536 638 536 618Q536 578 517 540ZM502 822Q477 807 391 771T285 716Q259 741 259 772Q259 793 285 813T347 848T424 890T490
946Q507 935 519 914T531 874Q531 840 502 822Z" />
<glyph unicode="&#xca;" glyph-name="Ecircumflex" horiz-adv-x="521" d="M517 540Q471 561 358 561Q326 561 276 558Q274 524 258 406Q391 406 423 410Q425 390 425 375Q425 310 381 305Q357 303 243 303Q223 140 223 101Q251 99 287 99Q340 99 395 105T468 121Q476
83 476 65Q476 17 441 7T283 -3Q130 -3 98 -1Q74 0 64 8T54 34Q54 62 87 306T121 631Q121 649 120 656Q238 665 356 665Q509 665 528 646Q536 638 536 618Q536 578 517 540ZM372 912Q411 886 436 867T484 821T507 771Q507 755 489 737T441 712Q422 740 401 762T368
792L356 801Q253 720 230 720Q213 720 204 727T183 758Q270 847 372 912Z" />
<glyph unicode="&#xcb;" glyph-name="Edieresis" horiz-adv-x="538" d="M517 540Q471 561 358 561Q326 561 276 558Q274 524 258 406Q391 406 423 410Q425 390 425 375Q425 310 381 305Q357 303 243 303Q223 140 223 101Q251 99 287 99Q340 99 395 105T468 121Q476
83 476 65Q476 17 441 7T283 -3Q130 -3 98 -1Q74 0 64 8T54 34Q54 62 87 306T121 631Q121 649 120 656Q238 665 356 665Q509 665 528 646Q536 638 536 618Q536 578 517 540ZM231 723Q196 723 177 744T158 796Q158 833 183 862T252 892Q286 892 305 869T325 814Q325
778 300 751T231 723ZM459 723Q424 723 405 744T386 796Q386 833 411 862T480 892Q514 892 533 869T553 814Q553 778 528 751T459 723Z" />
<glyph unicode="&#xcc;" glyph-name="Igrave" horiz-adv-x="304" d="M206 666Q288 666 288 613Q288 608 284 581T271 501T255 392L230 199Q218 113 218 67Q218 33 222 8Q189 -3 131 -3Q89 -3 72 12T54 59Q54 65 59 100T77 231T104 437Q123 590 126 660Q157 666
206 666ZM133 948Q151 917 193 883T266 822T297 772Q297 754 290 743T262 716Q232 742 181 773T103 826T75 872Q75 919 133 948Z" />
<glyph unicode="&#xcd;" glyph-name="Iacute" horiz-adv-x="304" d="M206 666Q288 666 288 613Q288 608 284 581T271 501T255 392L230 199Q218 113 218 67Q218 33 222 8Q189 -3 131 -3Q89 -3 72 12T54 59Q54 65 59 100T77 231T104 437Q123 590 126 660Q157 666
206 666ZM368 822Q343 807 257 771T151 716Q125 741 125 772Q125 793 151 813T213 848T290 890T356 946Q373 935 385 914T397 874Q397 840 368 822Z" />
<glyph unicode="&#xce;" glyph-name="Icircumflex" horiz-adv-x="304" d="M206 666Q288 666 288 613Q288 608 284 581T271 501T255 392L230 199Q218 113 218 67Q218 33 222 8Q189 -3 131 -3Q89 -3 72 12T54 59Q54 65 59 100T77 231T104 437Q123 590 126 660Q157
666 206 666ZM238 912Q277 886 302 867T350 821T373 771Q373 755 355 737T307 712Q288 740 267 762T234 792L222 801Q119 720 96 720Q79 720 70 727T49 758Q136 847 238 912Z" />
<glyph unicode="&#xcf;" glyph-name="Idieresis" horiz-adv-x="304" d="M206 666Q288 666 288 613Q288 608 284 581T271 501T255 392L230 199Q218 113 218 67Q218 33 222 8Q189 -3 131 -3Q89 -3 72 12T54 59Q54 65 59 100T77 231T104 437Q123 590 126 660Q157
666 206 666ZM97 723Q62 723 43 744T24 796Q24 833 49 862T118 892Q152 892 171 869T191 814Q191 778 166 751T97 723ZM325 723Q290 723 271 744T252 796Q252 833 277 862T346 892Q380 892 399 869T419 814Q419 778 394 751T325 723Z" />
<glyph unicode="&#xd0;" glyph-name="Eth" horiz-adv-x="713" d="M90 53Q114 163 135 303Q69 303 38 299Q36 319 36 334Q36 399 80 404Q110 406 149 406Q166 545 169 661Q235 673 342 673Q696 673 696 404Q696 324 670 251T597 119T474 25T308 -10Q161 -10 90
53ZM323 570Q319 508 306 406Q428 406 459 410Q461 390 461 375Q461 310 417 305Q394 303 292 303Q276 196 259 116Q295 91 351 91Q400 91 437 119T494 193T523 286T532 382Q532 477 489 524T364 572Q349 572 323 570Z" />
<glyph unicode="&#xd1;" glyph-name="Ntilde" horiz-adv-x="648" d="M554 5Q525 -3 492 -3Q419 -3 400 42Q375 98 325 235T248 436Q208 133 208 63Q208 43 212 9Q179 -3 136 -3Q90 -3 72 11T54 57Q54 66 58 96T69 170T80 243Q87 303 99 390T115 521T120 602Q120
634 116 655Q154 667 193 667Q262 667 292 618Q302 602 315 574T345 506T375 433T409 348T441 270L458 429Q477 589 481 660Q512 666 548 666Q632 666 632 607Q632 600 626 567T612 484T598 392T581 258T563 110T554 5ZM578 833Q578 792 534 760T444 727Q421 727
383 748T329 770Q309 770 260 730Q229 743 229 765Q229 805 274 838T363 871Q386 871 424 850T479 828Q500 828 547 868Q558 866 568 857T578 833Z" />
<glyph unicode="&#xd2;" glyph-name="Ograve" horiz-adv-x="672" d="M368 572Q299 572 256 491T212 295Q212 207 240 149T329 91Q401 91 443 175T486 374Q486 459 458 515T368 572ZM301 -10Q180 -10 112 63T44 263Q44 438 141 555T395 673Q517 673 586 601T655
402Q655 230 557 110T301 -10ZM301 948Q319 917 361 883T434 822T465 772Q465 754 458 743T430 716Q400 742 349 773T271 826T243 872Q243 919 301 948Z" />
<glyph unicode="&#xd3;" glyph-name="Oacute" horiz-adv-x="672" d="M368 572Q299 572 256 491T212 295Q212 207 240 149T329 91Q401 91 443 175T486 374Q486 459 458 515T368 572ZM301 -10Q180 -10 112 63T44 263Q44 438 141 555T395 673Q517 673 586 601T655
402Q655 230 557 110T301 -10ZM556 822Q531 807 445 771T339 716Q313 741 313 772Q313 793 339 813T401 848T478 890T544 946Q561 935 573 914T585 874Q585 840 556 822Z" />
<glyph unicode="&#xd4;" glyph-name="Ocircumflex" horiz-adv-x="672" d="M368 572Q299 572 256 491T212 295Q212 207 240 149T329 91Q401 91 443 175T486 374Q486 459 458 515T368 572ZM301 -10Q180 -10 112 63T44 263Q44 438 141 555T395 673Q517 673 586 601T655
402Q655 230 557 110T301 -10ZM426 912Q465 886 490 867T538 821T561 771Q561 755 543 737T495 712Q476 740 455 762T422 792L410 801Q306 720 284 720Q267 720 258 727T237 758Q324 847 426 912Z" />
<glyph unicode="&#xd5;" glyph-name="Otilde" horiz-adv-x="672" d="M368 572Q299 572 256 491T212 295Q212 207 240 149T329 91Q401 91 443 175T486 374Q486 459 458 515T368 572ZM301 -10Q180 -10 112 63T44 263Q44 438 141 555T395 673Q517 673 586 601T655
402Q655 230 557 110T301 -10ZM584 833Q584 792 540 760T450 727Q427 727 389 748T335 770Q315 770 266 730Q235 743 235 765Q235 805 280 838T369 871Q392 871 430 850T485 828Q506 828 553 868Q564 866 574 857T584 833Z" />
<glyph unicode="&#xd6;" glyph-name="Odieresis" horiz-adv-x="672" d="M368 572Q299 572 256 491T212 295Q212 207 240 149T329 91Q401 91 443 175T486 374Q486 459 458 515T368 572ZM301 -10Q180 -10 112 63T44 263Q44 438 141 555T395 673Q517 673 586 601T655
402Q655 230 557 110T301 -10ZM285 723Q250 723 231 744T212 796Q212 833 237 862T306 892Q340 892 359 869T379 814Q379 778 354 751T285 723ZM513 723Q478 723 459 744T440 796Q440 833 465 862T534 892Q568 892 587 869T607 814Q607 778 582 751T513 723Z" />
<glyph unicode="&#xd7;" glyph-name="multiply" horiz-adv-x="574" d="M348 236Q363 221 423 168T521 83Q488 30 448 30Q430 30 415 45Q395 64 353 111T290 179Q195 85 131 6Q112 19 104 26T86 47T77 79Q77 98 91 112Q98 119 142 156T232 237Q132 334 58 398Q93
452 130 452Q149 452 164 436Q171 429 210 384T291 294Q423 438 449 470Q469 459 485 439T502 397Q502 379 487 364Q469 345 420 302T348 236Z" />
<glyph unicode="&#xd8;" glyph-name="Oslash" horiz-adv-x="672" d="M301 -10Q241 -10 193 8L140 -84Q116 -83 100 -72T84 -43Q84 -29 96 -11L132 44Q44 117 44 263Q44 438 141 556T395 674Q466 674 523 647Q535 666 555 700T581 745Q605 744 621 733T637 704Q637
692 625 672L581 606Q655 534 655 402Q655 230 557 110T301 -10ZM368 572Q299 572 256 491T212 295Q212 234 225 188L448 530Q417 572 368 572ZM486 374Q486 416 479 450L263 118Q290 91 329 91Q401 91 443 175T486 374Z" />
<glyph unicode="&#xd9;" glyph-name="Ugrave" horiz-adv-x="664" d="M442 274Q482 576 486 660Q517 666 566 666Q648 666 648 613Q648 608 644 581T631 501T615 392L591 199Q579 113 579 67Q579 33 583 8Q547 -3 491 -3Q444 -3 429 13T414 65Q414 68 415 77T419
102T423 132Q380 64 323 27T211 -10Q144 -10 108 38T71 157Q71 181 96 369T126 659Q157 666 206 666Q288 666 288 613Q288 610 284 586T273 514T259 421Q229 224 229 193Q229 102 288 102Q326 102 372 151T442 274ZM311 948Q329 917 371 883T444 822T475 772Q475
754 468 743T440 716Q410 742 359 773T281 826T253 872Q253 919 311 948Z" />
<glyph unicode="&#xda;" glyph-name="Uacute" horiz-adv-x="664" d="M442 274Q482 576 486 660Q517 666 566 666Q648 666 648 613Q648 608 644 581T631 501T615 392L591 199Q579 113 579 67Q579 33 583 8Q547 -3 491 -3Q444 -3 429 13T414 65Q414 68 415 77T419
102T423 132Q380 64 323 27T211 -10Q144 -10 108 38T71 157Q71 181 96 369T126 659Q157 666 206 666Q288 666 288 613Q288 610 284 586T273 514T259 421Q229 224 229 193Q229 102 288 102Q326 102 372 151T442 274ZM566 822Q541 807 455 771T349 716Q323 741 323
772Q323 793 349 813T411 848T488 890T554 946Q571 935 583 914T595 874Q595 840 566 822Z" />
<glyph unicode="&#xdb;" glyph-name="Ucircumflex" horiz-adv-x="664" d="M442 274Q482 576 486 660Q517 666 566 666Q648 666 648 613Q648 608 644 581T631 501T615 392L591 199Q579 113 579 67Q579 33 583 8Q547 -3 491 -3Q444 -3 429 13T414 65Q414 68 415
77T419 102T423 132Q380 64 323 27T211 -10Q144 -10 108 38T71 157Q71 181 96 369T126 659Q157 666 206 666Q288 666 288 613Q288 610 284 586T273 514T259 421Q229 224 229 193Q229 102 288 102Q326 102 372 151T442 274ZM436 912Q475 886 500 867T548 821T571
771Q571 755 553 737T505 712Q486 740 465 762T432 792L420 801Q316 720 294 720Q277 720 268 727T247 758Q334 847 436 912Z" />
<glyph unicode="&#xdc;" glyph-name="Udieresis" horiz-adv-x="664" d="M442 274Q482 576 486 660Q517 666 566 666Q648 666 648 613Q648 608 644 581T631 501T615 392L591 199Q579 113 579 67Q579 33 583 8Q547 -3 491 -3Q444 -3 429 13T414 65Q414 68 415 77T419
102T423 132Q380 64 323 27T211 -10Q144 -10 108 38T71 157Q71 181 96 369T126 659Q157 666 206 666Q288 666 288 613Q288 610 284 586T273 514T259 421Q229 224 229 193Q229 102 288 102Q326 102 372 151T442 274ZM295 723Q260 723 241 744T222 796Q222 833 247
862T316 892Q350 892 369 869T389 814Q389 778 364 751T295 723ZM523 723Q488 723 469 744T450 796Q450 833 475 862T544 892Q578 892 597 869T617 814Q617 778 592 751T523 723Z" />
<glyph unicode="&#xdd;" glyph-name="Yacute" horiz-adv-x="509" d="M188 282Q101 556 45 609Q79 642 102 655T154 668Q179 668 195 659T222 621Q265 509 302 389Q338 445 383 541T432 672Q565 672 565 609Q565 558 344 282L334 199Q322 96 322 67Q322 33 326
8Q293 -3 235 -3Q193 -3 176 12T158 59Q158 64 161 86T172 166T188 282ZM512 822Q487 807 401 771T295 716Q269 741 269 772Q269 793 295 813T357 848T434 890T500 946Q517 935 529 914T541 874Q541 840 512 822Z" />
<glyph unicode="&#xde;" glyph-name="Thorn" horiz-adv-x="536" d="M198 666Q280 666 280 613Q280 610 273 570Q526 568 526 385Q526 263 462 192T316 120Q250 120 216 160Q210 114 210 67Q210 33 214 8Q181 -3 123 -3Q81 -3 64 12T46 59Q46 65 51 100T69 231T96
437Q115 590 118 660Q149 666 198 666ZM299 470Q287 470 257 466Q252 438 247 392L227 241Q262 221 285 221Q324 221 348 263T372 374Q372 428 353 449T299 470Z" />
<glyph unicode="&#xdf;" glyph-name="germandbls" horiz-adv-x="573" d="M286 142Q287 115 303 101T341 86Q363 86 377 103T392 146T369 194T318 234T267 277T244 336Q244 363 262 387T301 427T340 471T358 533Q358 578 314 578Q285 578 259 555T227 486Q179 54
159 -34Q148 -79 121 -103T60 -128Q5 -128 -29 -73Q0 -53 25 64T81 465Q87 518 115 560T184 625T269 661T356 673Q435 673 474 643T513 565Q513 531 500 504T468 459T430 427T398 396T385 362T400 326T438 289T483 251T521 201T537 137Q537 75 480 33T341 -10Q288
-10 249 15T209 80Q209 134 286 142Z" />
<glyph unicode="&#xe0;" glyph-name="agrave" horiz-adv-x="543" d="M319 189L344 358Q314 394 283 394Q254 394 233 363T203 288T193 196Q193 146 204 113T236 79Q255 79 279 109T319 189ZM312 104Q284 49 244 20T161 -10Q105 -10 70 35T35 168Q35 246 64 316T155
434T302 483Q404 483 501 417Q456 205 456 124Q456 86 488 66Q462 -10 388 -10Q347 -10 329 12T311 79Q311 95 312 104ZM220 755Q238 724 280 690T353 629T384 579Q384 561 377 550T349 523Q319 549 268 580T190 633T162 679Q162 726 220 755Z" />
<glyph unicode="&#xe1;" glyph-name="aacute" horiz-adv-x="546" d="M319 189L344 358Q314 394 283 394Q254 394 233 363T203 288T193 196Q193 146 204 113T236 79Q255 79 279 109T319 189ZM312 104Q284 49 244 20T161 -10Q105 -10 70 35T35 168Q35 246 64 316T155
434T302 483Q404 483 501 417Q456 205 456 124Q456 86 488 66Q462 -10 388 -10Q347 -10 329 12T311 79Q311 95 312 104ZM475 629Q450 614 364 578T258 523Q232 548 232 579Q232 600 258 620T320 655T397 697T463 753Q480 742 492 721T504 681Q504 647 475 629Z"
/>
<glyph unicode="&#xe2;" glyph-name="acircumflex" horiz-adv-x="543" d="M319 189L344 358Q314 394 283 394Q254 394 233 363T203 288T193 196Q193 146 204 113T236 79Q255 79 279 109T319 189ZM312 104Q284 49 244 20T161 -10Q105 -10 70 35T35 168Q35 246 64
316T155 434T302 483Q404 483 501 417Q456 205 456 124Q456 86 488 66Q462 -10 388 -10Q347 -10 329 12T311 79Q311 95 312 104ZM345 719Q384 693 409 674T457 628T480 578Q480 562 462 544T414 519Q395 547 374 569T341 600L329 608Q226 527 203 527Q186 527 177
534T156 565Q243 654 345 719Z" />
<glyph unicode="&#xe3;" glyph-name="atilde" horiz-adv-x="545" d="M319 189L344 358Q314 394 283 394Q254 394 233 363T203 288T193 196Q193 146 204 113T236 79Q255 79 279 109T319 189ZM312 104Q284 49 244 20T161 -10Q105 -10 70 35T35 168Q35 246 64 316T155
434T302 483Q404 483 501 417Q456 205 456 124Q456 86 488 66Q462 -10 388 -10Q347 -10 329 12T311 79Q311 95 312 104ZM503 640Q503 599 459 567T369 534Q346 534 308 555T254 577Q234 577 185 537Q154 550 154 572Q154 612 199 645T288 678Q310 678 349 657T404
635Q425 635 472 675Q483 673 493 664T503 640Z" />
<glyph unicode="&#xe4;" glyph-name="adieresis" horiz-adv-x="568" d="M319 189L344 358Q314 394 283 394Q254 394 233 363T203 288T193 196Q193 146 204 113T236 79Q255 79 279 109T319 189ZM312 104Q284 49 244 20T161 -10Q105 -10 70 35T35 168Q35 246 64
316T155 434T302 483Q404 483 501 417Q456 205 456 124Q456 86 488 66Q462 -10 388 -10Q347 -10 329 12T311 79Q311 95 312 104ZM204 530Q169 530 150 551T131 603Q131 640 156 669T225 699Q259 699 278 676T298 621Q298 585 273 558T204 530ZM432 530Q397 530
378 551T359 603Q359 640 384 669T453 699Q487 699 506 676T526 621Q526 585 501 558T432 530Z" />
<glyph unicode="&#xe5;" glyph-name="aring" horiz-adv-x="543" d="M319 189L344 358Q314 394 283 394Q254 394 233 363T203 288T193 196Q193 146 204 113T236 79Q255 79 279 109T319 189ZM312 104Q284 49 244 20T161 -10Q105 -10 70 35T35 168Q35 246 64 316T155
434T302 483Q404 483 501 417Q456 205 456 124Q456 86 488 66Q462 -10 388 -10Q347 -10 329 12T311 79Q311 95 312 104ZM331 590Q358 590 374 612T391 664Q391 691 380 707T348 723Q321 723 304 701T287 649Q287 623 298 607T331 590ZM324 540Q281 540 255 566T229
637Q229 691 264 732T355 773Q398 773 423 747T448 677Q448 620 415 580T324 540Z" />
<glyph unicode="&#xe6;" glyph-name="ae" horiz-adv-x="753" d="M653 131Q705 107 705 71Q705 36 656 13T539 -10Q468 -10 410 19T331 111Q262 -10 161 -10Q105 -10 70 35T35 168Q35 246 64 316T155 434T302 483Q380 483 445 436Q515 483 591 483Q650 483 691
450T733 358Q733 267 670 216T509 165Q497 165 479 167Q485 80 563 80Q620 80 653 131ZM319 189L321 195Q325 286 369 356Q323 395 288 395Q242 395 218 338T193 196Q193 146 204 113T236 79Q255 79 279 109T319 189ZM568 346Q568 367 561 381T539 395Q516 395
499 354T479 248Q495 249 505 251T533 261T559 291T568 346Z" />
<glyph unicode="&#xe7;" glyph-name="ccedilla" horiz-adv-x="457" d="M344 314Q341 353 323 372T284 391Q238 391 210 337T182 207Q182 143 204 112T262 80Q283 80 306 97T344 143Q376 131 390 117T405 78Q405 42 366 17T254 -10Q249 -22 249 -32Q249 -41 260
-50T284 -68T308 -92T319 -131Q319 -183 266 -217T154 -252Q93 -252 93 -211Q93 -186 123 -153Q134 -166 155 -166Q171 -166 180 -156T190 -129Q190 -114 173 -94T155 -60Q155 -36 173 -2Q104 14 65 60T25 184Q25 257 50 316T117 411T206 466T305 485Q334 485 364
477T421 448T447 395Q447 365 418 342T344 314Z" />
<glyph unicode="&#xe8;" glyph-name="egrave" horiz-adv-x="467" d="M202 242Q242 242 265 275T288 353Q288 371 278 383T255 395Q231 395 212 354T187 243Q192 242 202 242ZM351 134Q373 123 388 106T404 72Q404 37 353 14T234 -10Q148 -10 87 32T25 164Q25 290
105 387T311 485Q368 485 407 453T447 365Q447 276 381 227T213 177Q201 177 183 179Q183 80 262 80Q314 80 351 134ZM174 755Q192 724 234 690T307 629T338 579Q338 561 331 550T303 523Q273 549 222 580T144 633T116 679Q116 726 174 755Z" />
<glyph unicode="&#xe9;" glyph-name="eacute" horiz-adv-x="478" d="M202 242Q242 242 265 275T288 353Q288 371 278 383T255 395Q231 395 212 354T187 243Q192 242 202 242ZM351 134Q373 123 388 106T404 72Q404 37 353 14T234 -10Q148 -10 87 32T25 164Q25 290
105 387T311 485Q368 485 407 453T447 365Q447 276 381 227T213 177Q201 177 183 179Q183 80 262 80Q314 80 351 134ZM429 629Q404 614 318 578T212 523Q186 548 186 579Q186 600 212 620T274 655T351 697T417 753Q434 742 446 721T458 681Q458 647 429 629Z" />
<glyph unicode="&#xea;" glyph-name="ecircumflex" horiz-adv-x="467" d="M202 242Q242 242 265 275T288 353Q288 371 278 383T255 395Q231 395 212 354T187 243Q192 242 202 242ZM351 134Q373 123 388 106T404 72Q404 37 353 14T234 -10Q148 -10 87 32T25 164Q25
290 105 387T311 485Q368 485 407 453T447 365Q447 276 381 227T213 177Q201 177 183 179Q183 80 262 80Q314 80 351 134ZM299 719Q338 693 363 674T411 628T434 578Q434 562 416 544T368 519Q349 547 328 569T295 600L283 608Q180 527 157 527Q140 527 131 534T110
565Q197 654 299 719Z" />
<glyph unicode="&#xeb;" glyph-name="edieresis" horiz-adv-x="500" d="M202 242Q242 242 265 275T288 353Q288 371 278 383T255 395Q231 395 212 354T187 243Q192 242 202 242ZM351 134Q373 123 388 106T404 72Q404 37 353 14T234 -10Q148 -10 87 32T25 164Q25
290 105 387T311 485Q368 485 407 453T447 365Q447 276 381 227T213 177Q201 177 183 179Q183 80 262 80Q314 80 351 134ZM158 530Q123 530 104 551T85 603Q85 640 110 669T179 699Q213 699 232 676T252 621Q252 585 227 558T158 530ZM386 530Q351 530 332 551T313
603Q313 640 338 669T407 699Q441 699 460 676T480 621Q480 585 455 558T386 530Z" />
<glyph unicode="&#xec;" glyph-name="igrave" horiz-adv-x="283" d="M161 485Q237 485 237 395Q237 355 215 253T193 127Q193 87 225 67Q211 29 184 10T123 -10Q38 -10 38 81Q38 128 60 229T83 355Q83 398 52 402Q57 437 87 461T161 485ZM84 755Q102 724 144 690T217
629T248 579Q248 561 241 550T213 523Q183 549 132 580T54 633T26 679Q26 726 84 755Z" />
<glyph unicode="&#xed;" glyph-name="iacute" horiz-adv-x="283" d="M161 485Q237 485 237 395Q237 355 215 253T193 127Q193 87 225 67Q211 29 184 10T123 -10Q38 -10 38 81Q38 128 60 229T83 355Q83 398 52 402Q57 437 87 461T161 485ZM289 629Q264 614 178
578T72 523Q46 548 46 579Q46 600 72 620T134 655T211 697T277 753Q294 742 306 721T318 681Q318 647 289 629Z" />
<glyph unicode="&#xee;" glyph-name="icircumflex" horiz-adv-x="283" d="M161 485Q237 485 237 395Q237 355 215 253T193 127Q193 87 225 67Q211 29 184 10T123 -10Q38 -10 38 81Q38 128 60 229T83 355Q83 398 52 402Q57 437 87 461T161 485ZM174 719Q213 693
238 674T286 628T309 578Q309 562 291 544T243 519Q224 547 203 569T170 600L158 608Q55 527 32 527Q15 527 6 534T-15 565Q72 654 174 719Z" />
<glyph unicode="&#xef;" glyph-name="idieresis" horiz-adv-x="283" d="M161 485Q237 485 237 395Q237 355 215 253T193 127Q193 87 225 67Q211 29 184 10T123 -10Q38 -10 38 81Q38 128 60 229T83 355Q83 398 52 402Q57 437 87 461T161 485ZM39 530Q4 530 -15
551T-34 603Q-34 640 -9 669T60 699Q94 699 113 676T133 621Q133 585 108 558T39 530ZM267 530Q232 530 213 551T194 603Q194 640 219 669T288 699Q322 699 341 676T361 621Q361 585 336 558T267 530Z" />
<glyph unicode="&#xf0;" glyph-name="eth" horiz-adv-x="565" d="M222 498Q192 521 192 544T219 585Q228 591 251 605Q204 630 132 630Q131 637 131 648Q131 675 146 686T193 698Q270 698 336 661Q370 685 430 733Q456 711 456 684Q456 664 431 646Q426 643 413
633T392 618Q444 568 472 495T501 336Q501 288 492 241T461 149T410 68T333 12T231 -10Q139 -10 86 43T32 188Q32 250 58 316T140 431T264 480Q329 480 357 448Q339 519 307 559L298 553Q292 549 222 498ZM243 86Q283 86 308 118T342 189T351 270Q351 325 334 357T282
389Q252 389 230 371T196 322T179 263T173 203Q173 151 191 119T243 86Z" />
<glyph unicode="&#xf1;" glyph-name="ntilde" horiz-adv-x="543" d="M213 253Q199 135 199 72Q199 49 203 15Q165 -2 119 -2Q42 -2 42 54Q42 59 62 189T82 351Q82 395 51 402Q57 440 86 462T152 485Q237 485 237 402Q237 400 237 395T236 386Q266 433 308 458T390
483Q443 483 472 451T501 366Q501 348 481 249T460 126Q460 86 494 66Q482 30 453 10T390 -10Q354 -10 329 12T304 74Q304 106 323 202T342 336Q342 392 309 392Q285 392 256 350T213 253ZM496 640Q496 599 452 567T362 534Q339 534 301 555T247 577Q227 577 178
537Q147 550 147 572Q147 612 192 645T281 678Q304 678 342 657T397 635Q418 635 465 675Q476 673 486 664T496 640Z" />
<glyph unicode="&#xf2;" glyph-name="ograve" horiz-adv-x="517" d="M267 394Q232 394 210 337T187 206Q187 151 203 116T248 80Q283 80 305 136T328 265Q328 322 313 358T267 394ZM220 -10Q130 -10 78 45T25 191Q25 314 100 399T293 484Q386 484 439 433T492
291Q492 168 414 79T220 -10ZM210 755Q228 724 270 690T343 629T374 579Q374 561 367 550T339 523Q309 549 258 580T180 633T152 679Q152 726 210 755Z" />
<glyph unicode="&#xf3;" glyph-name="oacute" horiz-adv-x="519" d="M267 394Q232 394 210 337T187 206Q187 151 203 116T248 80Q283 80 305 136T328 265Q328 322 313 358T267 394ZM220 -10Q130 -10 78 45T25 191Q25 314 100 399T293 484Q386 484 439 433T492
291Q492 168 414 79T220 -10ZM465 629Q440 614 354 578T248 523Q222 548 222 579Q222 600 248 620T310 655T387 697T453 753Q470 742 482 721T494 681Q494 647 465 629Z" />
<glyph unicode="&#xf4;" glyph-name="ocircumflex" horiz-adv-x="517" d="M267 394Q232 394 210 337T187 206Q187 151 203 116T248 80Q283 80 305 136T328 265Q328 322 313 358T267 394ZM220 -10Q130 -10 78 45T25 191Q25 314 100 399T293 484Q386 484 439 433T492
291Q492 168 414 79T220 -10ZM335 719Q374 693 399 674T447 628T470 578Q470 562 452 544T404 519Q385 547 364 569T331 600L319 608Q216 527 193 527Q176 527 167 534T146 565Q233 654 335 719Z" />
<glyph unicode="&#xf5;" glyph-name="otilde" horiz-adv-x="518" d="M267 394Q232 394 210 337T187 206Q187 151 203 116T248 80Q283 80 305 136T328 265Q328 322 313 358T267 394ZM220 -10Q130 -10 78 45T25 191Q25 314 100 399T293 484Q386 484 439 433T492
291Q492 168 414 79T220 -10ZM493 640Q493 599 449 567T359 534Q336 534 298 555T244 577Q224 577 175 537Q144 550 144 572Q144 612 189 645T278 678Q300 678 339 657T394 635Q415 635 462 675Q473 673 483 664T493 640Z" />
<glyph unicode="&#xf6;" glyph-name="odieresis" horiz-adv-x="541" d="M267 394Q232 394 210 337T187 206Q187 151 203 116T248 80Q283 80 305 136T328 265Q328 322 313 358T267 394ZM220 -10Q130 -10 78 45T25 191Q25 314 100 399T293 484Q386 484 439 433T492
291Q492 168 414 79T220 -10ZM194 530Q159 530 140 551T121 603Q121 640 146 669T215 699Q249 699 268 676T288 621Q288 585 263 558T194 530ZM422 530Q387 530 368 551T349 603Q349 640 374 669T443 699Q477 699 496 676T516 621Q516 585 491 558T422 530Z" />
<glyph unicode="&#xf7;" glyph-name="divide" horiz-adv-x="574" d="M312 359T281 359T228 380T206 437Q206 469 228 491T281 514Q311 514 332 492T354 437Q354 402 333 381ZM509 260Q509 235 495 218T458 200Q441 200 377 205T282 211Q169 211 66 200Q62 221
62 242Q62 265 74 283T113 302Q117 302 180 297T290 292Q434 292 503 302Q509 290 509 260ZM312 -6T281 -6T228 16T206 72Q206 104 228 126T281 149Q311 149 332 127T354 72Q354 37 333 16Z" />
<glyph unicode="&#xf8;" glyph-name="oslash" horiz-adv-x="517" d="M220 -10Q182 -10 152 0L103 -86Q79 -85 63 -74T47 -45Q47 -31 59 -13L89 34Q25 89 25 191Q25 314 100 399T293 484Q334 484 373 471Q403 521 423 557Q447 556 463 545T479 516Q479 504 467
484L435 436Q492 382 492 291Q492 168 414 79T220 -10ZM267 394Q232 394 210 337T187 206V184L307 368Q291 394 267 394ZM248 80Q283 80 305 136T328 265V272L214 97Q228 80 248 80Z" />
<glyph unicode="&#xf9;" glyph-name="ugrave" horiz-adv-x="548" d="M321 104Q295 57 252 24T158 -10Q105 -10 76 22T47 105Q47 127 67 222T87 350Q87 392 56 402Q62 441 91 463T157 485Q244 485 244 393Q244 358 225 268T204 136Q204 81 236 81Q259 81 287 121T328
217Q355 377 360 464Q400 478 430 478Q508 478 508 406Q508 384 487 263T465 124Q465 85 497 66Q488 36 463 13T399 -10Q353 -10 337 13T320 78Q320 95 321 104ZM229 755Q247 724 289 690T362 629T393 579Q393 561 386 550T358 523Q328 549 277 580T199 633T171
679Q171 726 229 755Z" />
<glyph unicode="&#xfa;" glyph-name="uacute" horiz-adv-x="553" d="M321 104Q295 57 252 24T158 -10Q105 -10 76 22T47 105Q47 127 67 222T87 350Q87 392 56 402Q62 441 91 463T157 485Q244 485 244 393Q244 358 225 268T204 136Q204 81 236 81Q259 81 287 121T328
217Q355 377 360 464Q400 478 430 478Q508 478 508 406Q508 384 487 263T465 124Q465 85 497 66Q488 36 463 13T399 -10Q353 -10 337 13T320 78Q320 95 321 104ZM484 629Q459 614 373 578T267 523Q241 548 241 579Q241 600 267 620T329 655T406 697T472 753Q489
742 501 721T513 681Q513 647 484 629Z" />
<glyph unicode="&#xfb;" glyph-name="ucircumflex" horiz-adv-x="548" d="M321 104Q295 57 252 24T158 -10Q105 -10 76 22T47 105Q47 127 67 222T87 350Q87 392 56 402Q62 441 91 463T157 485Q244 485 244 393Q244 358 225 268T204 136Q204 81 236 81Q259 81 287
121T328 217Q355 377 360 464Q400 478 430 478Q508 478 508 406Q508 384 487 263T465 124Q465 85 497 66Q488 36 463 13T399 -10Q353 -10 337 13T320 78Q320 95 321 104ZM354 719Q393 693 418 674T466 628T489 578Q489 562 471 544T423 519Q404 547 383 569T350
600L338 608Q235 527 212 527Q195 527 186 534T165 565Q252 654 354 719Z" />
<glyph unicode="&#xfc;" glyph-name="udieresis" horiz-adv-x="575" d="M321 104Q295 57 252 24T158 -10Q105 -10 76 22T47 105Q47 127 67 222T87 350Q87 392 56 402Q62 441 91 463T157 485Q244 485 244 393Q244 358 225 268T204 136Q204 81 236 81Q259 81 287
121T328 217Q355 377 360 464Q400 478 430 478Q508 478 508 406Q508 384 487 263T465 124Q465 85 497 66Q488 36 463 13T399 -10Q353 -10 337 13T320 78Q320 95 321 104ZM213 530Q178 530 159 551T140 603Q140 640 165 669T234 699Q268 699 287 676T307 621Q307
585 282 558T213 530ZM441 530Q406 530 387 551T368 603Q368 640 393 669T462 699Q496 699 515 676T535 621Q535 585 510 558T441 530Z" />
<glyph unicode="&#xfd;" glyph-name="yacute" horiz-adv-x="485" d="M249 112Q312 273 318 390Q318 428 303 459Q338 484 384 484Q470 484 470 405Q470 332 417 212T298 -4Q266 -52 246 -79T193 -140T131 -190T59 -218T-34 -230Q-100 -230 -140 -209T-180 -156Q-180
-114 -110 -78Q-103 -104 -76 -122T-21 -140Q72 -140 155 3Q153 61 103 217T3 412Q26 444 57 463T116 483Q145 483 167 462T201 397Q228 288 249 112ZM412 629Q387 614 301 578T195 523Q169 548 169 579Q169 600 195 620T257 655T334 697T400 753Q417 742 429 721T441
681Q441 647 412 629Z" />
<glyph unicode="&#xfe;" glyph-name="thorn" horiz-adv-x="535" d="M205 742Q281 742 281 652Q281 608 248 402Q304 484 379 484Q437 484 473 440T510 304Q510 169 444 80T294 -10Q234 -10 188 35Q168 -76 168 -113Q168 -156 200 -176Q172 -253 94 -253Q13 -253
13 -156Q13 -108 70 232T127 612Q127 655 96 659Q101 694 131 718T205 742ZM230 294L199 110Q227 79 261 79Q298 79 325 133T352 281Q352 332 339 363T302 394Q286 394 266 367T230 294Z" />
<glyph unicode="&#xff;" glyph-name="ydieresis" horiz-adv-x="485" d="M249 112Q312 273 318 390Q318 428 303 459Q338 484 384 484Q470 484 470 405Q470 332 417 212T298 -4Q266 -52 246 -79T193 -140T131 -190T59 -218T-34 -230Q-100 -230 -140 -209T-180 -156Q-180
-114 -110 -78Q-103 -104 -76 -122T-21 -140Q72 -140 155 3Q153 61 103 217T3 412Q26 444 57 463T116 483Q145 483 167 462T201 397Q228 288 249 112ZM131 530Q96 530 77 551T58 603Q58 640 83 669T152 699Q186 699 205 676T225 621Q225 585 200 558T131 530ZM359
530Q324 530 305 551T286 603Q286 640 311 669T380 699Q414 699 433 676T453 621Q453 585 428 558T359 530Z" />
<glyph unicode="&#x2013;" glyph-name="endash" horiz-adv-x="574" d="M539 294Q539 255 518 231T457 206Q437 206 382 209T297 213H198Q123 213 31 197Q30 208 30 224Q30 267 49 293T111 320Q123 320 178 317T268 314H380Q464 314 535 329Q539 309 539 294Z" />
<glyph unicode="&#x2014;" glyph-name="emdash" horiz-adv-x="835" d="M802 329Q805 312 805 296Q805 257 785 232T723 206Q702 206 648 209T564 213H198Q125 213 31 197Q30 206 30 223Q30 320 112 320Q124 320 178 317T266 314H646Q729 314 802 329Z" />
<glyph unicode="&#x2018;" glyph-name="quoteleft" horiz-adv-x="261" d="M237 565Q242 551 242 534Q242 496 215 469T146 441Q109 441 91 466T72 532Q72 606 124 673T253 740Q283 740 283 710Q283 696 277 680H273Q248 680 225 658T201 607Q201 572 237 565Z" />
<glyph unicode="&#x2019;" glyph-name="quoteright" horiz-adv-x="263" d="M108 619Q102 634 102 650Q102 687 129 715T199 743Q236 743 254 719T273 654Q273 582 223 513T103 444Q63 444 63 477Q63 489 68 504H72Q99 504 121 528T144 578Q144 611 108 619Z" />
<glyph unicode="&#x201a;" glyph-name="quotesinglbase" horiz-adv-x="269" d="M45 12Q39 27 39 43Q39 80 66 108T136 136Q173 136 191 112T210 47Q210 -25 160 -94T40 -163Q0 -163 0 -130Q0 -118 5 -103H9Q36 -103 58 -79T81 -29Q81 4 45 12Z" />
<glyph unicode="&#x201c;" glyph-name="quotedblleft" horiz-adv-x="507" d="M237 565Q242 551 242 534Q242 496 215 469T146 441Q109 441 91 466T72 532Q72 606 124 673T253 740Q283 740 283 710Q283 696 277 680H273Q248 680 225 658T201 607Q201 572 237 565ZM483
565Q488 551 488 534Q488 496 461 469T392 441Q355 441 337 466T318 532Q318 606 370 673T499 740Q529 740 529 710Q529 696 523 680H519Q494 680 471 658T447 607Q447 572 483 565Z" />
<glyph unicode="&#x201d;" glyph-name="quotedblright" horiz-adv-x="497" d="M108 619Q102 634 102 650Q102 687 129 715T199 743Q236 743 254 719T273 654Q273 582 223 513T103 444Q63 444 63 477Q63 489 68 504H72Q99 504 121 528T144 578Q144 611 108 619ZM342
619Q336 634 336 650Q336 687 363 715T433 743Q470 743 488 719T507 654Q507 582 457 513T337 444Q297 444 297 477Q297 489 302 504H306Q333 504 355 528T378 578Q378 611 342 619Z" />
<glyph unicode="&#x201e;" glyph-name="quotedblbase" horiz-adv-x="503" d="M45 12Q39 27 39 43Q39 80 66 108T136 136Q173 136 191 112T210 47Q210 -25 160 -94T40 -163Q0 -163 0 -130Q0 -118 5 -103H9Q36 -103 58 -79T81 -29Q81 4 45 12ZM279 12Q273 27 273
43Q273 80 300 108T370 136Q407 136 425 112T444 47Q444 -25 394 -94T274 -163Q234 -163 234 -130Q234 -118 239 -103H243Q270 -103 292 -79T315 -29Q315 4 279 12Z" />
<glyph unicode="&#x2022;" glyph-name="bullet" horiz-adv-x="366" d="M165 106Q109 106 73 144T36 244Q36 313 86 372T208 432Q262 432 298 393T334 292Q334 223 286 165T165 106Z" />
<glyph unicode="&#x2039;" glyph-name="guilsinglleft" horiz-adv-x="328" d="M201 235Q225 198 249 149T273 82Q273 52 199 24Q136 87 54 235Q171 380 254 446Q313 415 313 391Q313 364 201 235Z" />
<glyph unicode="&#x203a;" glyph-name="guilsinglright" horiz-adv-x="330" d="M129 235Q107 267 82 316T56 384Q56 398 71 412T131 446Q188 389 276 235Q156 89 74 24Q15 48 15 76Q15 110 129 235Z" />
</font>
</defs>
</svg>
