<?xml version="1.0" standalone="no"?>
<!DOCTYPE svg PUBLIC "-//W3C//DTD SVG 1.1//EN" "http://www.w3.org/Graphics/SVG/1.1/DTD/svg11.dtd">
<svg xmlns="http://www.w3.org/2000/svg">
<defs >
<font id="Spectral" horiz-adv-x="595" ><font-face
    font-family="Spectral"
    units-per-em="1000"
    panose-1="2 2 8 2 6 0 0 0 0 0"
    ascent="1059"
    descent="-463"
    alphabetic="0" />
<glyph unicode=" " glyph-name="uni0020" horiz-adv-x="250" />
<glyph unicode="!" glyph-name="uni0021" horiz-adv-x="269" d="M118 218L56 660H213L150 218H118ZM134 -5Q104 -5 82 17T60 69Q60 100 82 122T134 144Q164 144 186 122T208 69Q208 39 186 17T134 -5Z" />
<glyph unicode="&quot;" glyph-name="uni0022" horiz-adv-x="450" d="M113 490L74 740H176L137 490H113ZM313 490L274 740H376L337 490H313Z" />
<glyph unicode="#" glyph-name="uni0023" horiz-adv-x="561" d="M69 0L128 202H31V251H142L186 402H89V451H200L261 660H314L253 451H380L441 660H494L433 451H529V402H419L375 251H471V202H361L302 0H249L308 202H181L122 0H69ZM195 251H322L366 402H239L195 251Z" />
<glyph unicode="$" glyph-name="uni0024" horiz-adv-x="561" d="M220 -80V-5Q182 2 153 15T109 43Q84 64 72 90T60 140Q60 160 73 166T99 172H142L147 168V141Q147 74 220 50V280Q129 319 94 362T59 474Q59 537 105 588T220 659V740H261V668Q277 670 293 670Q305
670 317 669V740H358V664Q406 654 437 630Q492 587 492 542Q492 522 480 514T455 506H409L404 510V537Q404 585 358 605V382Q438 346 476 305T515 189Q515 121 470 72T358 2V-80H317V-7Q296 -10 275 -10Q268 -10 261 -10V-80H220ZM313 401L317 399V616Q304 618
290 618Q275 618 261 615V424Q283 413 313 401ZM179 530Q179 506 187 487T220 449V600Q179 575 179 530ZM276 41Q298 41 317 45V236Q295 247 261 263V42Q268 41 276 41ZM398 134Q398 181 358 211V61Q398 86 398 134Z" />
<glyph unicode="%" glyph-name="uni0025" horiz-adv-x="792" d="M420 345Q349 345 307 400T264 548Q264 634 308 692T420 750Q493 750 535 696T578 548Q578 461 533 403T420 345ZM428 373Q451 373 459 424T467 530Q467 603 456 662T415 721Q391 721 383 671T374
565Q374 492 385 433T428 373ZM138 20L610 750L655 720L183 -10L138 20ZM627 -10Q556 -10 514 45T471 193Q471 279 515 337T627 395Q700 395 742 341T785 193Q785 106 740 48T627 -10ZM635 18Q658 18 666 69T674 175Q674 248 663 307T622 366Q598 366 590 316T581
210Q581 137 592 78T635 18Z" />
<glyph unicode="&amp;" glyph-name="uni0026" horiz-adv-x="765" d="M248 -10Q154 -10 96 34T37 158Q37 274 175 343Q135 385 115 420T95 502Q95 577 156 623T305 670Q394 670 446 632T498 534Q498 492 461 455T331 383Q340 375 349 366T368 346L516 196Q565 268
604 375L506 414V430H753V414L667 377Q637 316 607 264T546 167L659 52L742 16V0H515L452 64Q408 28 358 9T248 -10ZM229 544Q229 510 248 480T303 412Q363 466 363 542Q363 576 347 600T295 625Q262 625 246 602T229 544ZM172 199Q172 133 207 97T303 61Q365 61
419 97L258 259Q244 273 232 285T208 309Q187 285 180 258T172 199Z" />
<glyph unicode="&apos;" glyph-name="uni0027" horiz-adv-x="250" d="M113 490L74 740H176L137 490H113Z" />
<glyph unicode="(" glyph-name="uni0028" horiz-adv-x="262" d="M224 -150Q49 47 49 295Q49 543 224 740H248V737Q187 640 155 536T122 295Q122 158 154 55T248 -147V-150H224Z" />
<glyph unicode=")" glyph-name="uni0029" horiz-adv-x="262" d="M14 -150V-147Q75 -49 107 54T140 295Q140 432 108 536T14 737V740H38Q213 543 213 295Q213 47 38 -150H14Z" />
<glyph unicode="*" glyph-name="uni002A" horiz-adv-x="399" d="M71 473L178 573L36 592L61 668L187 600L160 740H238L212 600L337 668L363 592L220 573L327 473L262 428L199 554L137 428L71 473Z" />
<glyph unicode="+" glyph-name="uni002B" horiz-adv-x="561" d="M70 245V299H251V482H309V299H490V245H309V62H251V245H70Z" />
<glyph unicode="," glyph-name="uni002C" horiz-adv-x="268" d="M56 -213V-182Q105 -158 123 -129T141 -72Q141 -43 127 -24T89 10L55 29L52 41L93 109Q107 131 118 131Q126 131 143 122Q221 78 221 -11Q221 -67 185 -121T56 -213Z" />
<glyph unicode="-" glyph-name="uni002D" horiz-adv-x="369" d="M47 222V292H322V222H47Z" />
<glyph unicode="." glyph-name="uni002E" horiz-adv-x="268" d="M134 -5Q104 -5 82 17T60 69Q60 100 82 122T134 144Q164 144 186 122T208 69Q208 39 186 17T134 -5Z" />
<glyph unicode="/" glyph-name="uni002F" horiz-adv-x="250" d="M0 -120L200 750H250L50 -120H0Z" />
<glyph unicode="0" glyph-name="uni0030" horiz-adv-x="561" d="M280 -10Q163 -10 98 81T32 330Q32 476 101 573T280 670Q398 670 463 579T529 330Q529 184 460 87T280 -10ZM297 39Q336 39 354 112T373 299Q373 432 350 527T267 622Q227 622 208 552T188 363Q188
230 213 135T297 39Z" />
<glyph unicode="1" glyph-name="uni0031" horiz-adv-x="561" d="M148 0V16L243 51V545L77 470V510L326 660H389V51L474 16V0H148Z" />
<glyph unicode="2" glyph-name="uni0032" horiz-adv-x="561" d="M52 0V37Q153 146 211 213T298 326T334 411T342 506Q342 554 320 587T253 620Q156 620 156 505V458L149 449H81Q61 449 51 456T41 491Q41 520 59 549T119 609Q158 638 196 654T296 670Q386 670 442
619T499 493Q499 441 476 398T386 290T184 112H449L507 212H523L513 0H52Z" />
<glyph unicode="3" glyph-name="uni0033" horiz-adv-x="561" d="M267 -10Q224 -10 181 1T102 35Q74 54 56 76T37 126Q37 152 46 158T76 164H142L152 154V119Q152 38 255 38Q311 38 340 76T369 172Q369 242 334 280T212 318H159V366H209Q269 366 302 407T335 509Q335
623 250 623Q215 623 191 599T166 532V488L158 479H91Q72 479 62 485T52 518Q52 575 118 616Q161 644 197 657T287 670Q374 670 433 628T492 513Q492 454 442 414T316 360Q416 348 471 305T527 182Q527 98 449 44T267 -10Z" />
<glyph unicode="4" glyph-name="uni0034" horiz-adv-x="561" d="M189 0V16L284 51V175H15V204L367 660H430V254H549V175H430V51L515 16V0H189ZM113 254H284V481L113 254Z" />
<glyph unicode="5" glyph-name="uni0035" horiz-adv-x="561" d="M229 -10Q109 -10 66 48Q58 59 58 68Q58 82 76 95L128 135H142L153 112Q170 76 193 56T256 36Q304 36 335 73T366 172Q366 243 323 282T184 321Q159 321 138 319T89 312V660H445V559H142V434Q158
435 177 436T220 437Q362 437 430 377T499 224Q499 124 423 57T229 -10Z" />
<glyph unicode="6" glyph-name="uni0036" horiz-adv-x="561" d="M283 -10Q171 -10 103 59T35 244Q35 408 149 519T463 670V635Q346 599 280 518T196 324Q251 394 351 394Q435 394 482 339T529 205Q529 120 467 55T283 -10ZM190 243Q190 146 215 92T287 38Q336
38 356 85T377 178Q377 240 354 280T282 320Q225 320 191 268Q190 256 190 243Z" />
<glyph unicode="7" glyph-name="uni0037" horiz-adv-x="561" d="M109 0Q157 114 227 237T403 533H57V660H503V622Q431 482 357 318T250 0H109Z" />
<glyph unicode="8" glyph-name="uni0038" horiz-adv-x="561" d="M276 -10Q178 -10 109 33T40 148Q40 189 66 232T171 314Q109 353 86 393T62 489Q62 563 130 616T289 670Q374 670 434 625T495 510Q495 469 460 435T369 373Q450 328 485 285T520 184Q520 99 450
45T276 -10ZM196 538Q196 502 218 471T324 397Q382 439 382 510Q382 568 355 596T285 624Q246 624 221 601T196 538ZM159 163Q159 104 191 70T274 35Q325 35 353 61T381 131Q381 180 347 209T216 288L214 289Q182 267 171 237T159 163Z" />
<glyph unicode="9" glyph-name="uni0039" horiz-adv-x="561" d="M98 -10V25Q215 61 281 142T365 336Q310 266 210 266Q126 266 79 321T32 455Q32 540 94 605T278 670Q390 670 458 601T527 416Q527 252 412 141T98 -10ZM185 482Q185 420 207 380T279 340Q336 340
370 392Q371 404 371 417Q371 514 346 568T274 622Q225 622 205 575T185 482Z" />
<glyph unicode=":" glyph-name="uni003A" horiz-adv-x="268" d="M134 -5Q104 -5 82 17T60 69Q60 100 82 122T134 144Q164 144 186 122T208 69Q208 39 186 17T134 -5ZM134 312Q104 312 82 334T60 386Q60 417 82 439T134 461Q164 461 186 439T208 386Q208 356 186
334T134 312Z" />
<glyph unicode=";" glyph-name="uni003B" horiz-adv-x="268" d="M134 312Q104 312 82 334T60 386Q60 417 82 439T134 461Q164 461 186 439T208 386Q208 356 186 334T134 312ZM56 -213V-182Q105 -158 123 -129T141 -72Q141 -43 127 -24T89 10L55 29L52 41L93 109Q107
131 118 131Q126 131 143 122Q221 78 221 -11Q221 -67 185 -121T56 -213Z" />
<glyph unicode="&lt;" glyph-name="uni003C" horiz-adv-x="561" d="M490 62L70 247V297L490 482V421L152 272L490 123V62Z" />
<glyph unicode="=" glyph-name="uni003D" horiz-adv-x="561" d="M70 347V401H490V347H70ZM70 143V197H490V143H70Z" />
<glyph unicode="&gt;" glyph-name="uni003E" horiz-adv-x="561" d="M70 62V123L408 272L70 421V482L490 297V247L70 62Z" />
<glyph unicode="?" glyph-name="uni003F" horiz-adv-x="479" d="M195 218L163 378Q322 403 322 513Q322 569 297 598T231 627Q194 627 170 600T146 519V485L136 473H63Q46 473 38 479T29 511Q29 568 91 614Q127 641 162 655T247 670Q338 670 391 621T444 493Q444
423 392 371T240 295L227 218H195ZM209 -5Q179 -5 157 17T135 69Q135 100 157 122T209 144Q239 144 261 122T284 69Q284 39 262 17T209 -5Z" />
<glyph unicode="@" glyph-name="uni0040" horiz-adv-x="808" d="M370 -118Q230 -118 144 -40T58 168Q58 275 112 364T256 508T458 562Q592 562 671 484T750 284Q750 218 722 158T642 60T521 21Q429 21 441 122Q402 67 369 44T296 21Q262 21 239 49T215 132Q215
214 252 281T348 389T466 429Q512 429 542 407L586 424H604L552 133Q546 97 551 84T576 71Q625 71 662 136T700 281Q700 387 628 459T436 532Q297 532 215 431T132 186Q132 58 205 -14T397 -86Q462 -86 512 -71T605 -27L615 -49Q562 -82 505 -100T370 -118ZM330
179Q330 135 338 118T367 100Q404 100 447 162L483 367Q462 390 435 390Q391 390 361 327T330 179Z" />
<glyph unicode="A" glyph-name="uni0041" horiz-adv-x="774" d="M19 0V16L80 50L341 665H429L687 52L755 16V0H439V16L526 52L458 218H221L153 52L236 16V0H19ZM244 273H435L340 506L244 273Z" />
<glyph unicode="B" glyph-name="uni0042" horiz-adv-x="706" d="M44 0V16L129 57V603L44 644V660H364Q471 660 542 623T614 512Q614 461 576 418T465 358Q562 345 617 302T673 192Q673 110 592 55T388 0H44ZM314 605H280V365H320Q386 365 423 396T460 482Q460
605 314 605ZM349 316H280V55H356Q430 55 471 92T513 187Q513 316 349 316Z" />
<glyph unicode="C" glyph-name="uni0043" horiz-adv-x="711" d="M399 -10Q242 -10 146 83T49 316Q49 416 100 496T236 623T415 670Q494 670 536 657T622 622L633 435H615L520 590Q472 620 420 620Q328 620 267 540T206 326Q206 195 265 119T411 43Q448 43 477
52T534 77L624 211H641L627 42Q586 18 529 4T399 -10Z" />
<glyph unicode="D" glyph-name="uni0044" horiz-adv-x="802" d="M44 0V16L129 57V603L44 644V660H385Q563 660 660 575T757 360Q757 256 708 175T573 47T378 0H44ZM344 605H280V55H358Q474 55 537 129T600 329Q600 455 536 530T344 605Z" />
<glyph unicode="E" glyph-name="uni0045" horiz-adv-x="681" d="M44 0V16L129 57V603L44 644V660H589V487H573L499 605H280V368H434L490 454H506V229H490L434 313H280V55H523L601 204H617V0H44Z" />
<glyph unicode="F" glyph-name="uni0046" horiz-adv-x="631" d="M44 0V16L129 57V603L44 644V660H579V487H563L495 605H280V365H424L480 451H496V232H480L424 316H280V57L382 16V0H44Z" />
<glyph unicode="G" glyph-name="uni0047" horiz-adv-x="756" d="M395 -10Q299 -10 221 33T96 149T50 316Q50 418 102 498T240 624T427 670Q506 670 553 657T643 622L654 446H636L540 591Q491 621 431 621Q337 621 272 542T206 334Q206 200 269 123T424 45Q463
45 501 52V237L412 284V300H726V284L651 236V74Q605 36 533 13T395 -10Z" />
<glyph unicode="H" glyph-name="uni0048" horiz-adv-x="836" d="M44 0V16L129 57V603L44 644V660H358V644L280 603V367H557V603L477 644V660H792V644L708 603V57L792 16V0H477V16L557 57V312H280V57L358 16V0H44Z" />
<glyph unicode="I" glyph-name="uni0049" horiz-adv-x="413" d="M46 0V16L131 57V603L46 644V660H367V644L282 603V57L367 16V0H46Z" />
<glyph unicode="J" glyph-name="uni004A" horiz-adv-x="432" d="M58 -173Q26 -173 26 -144Q26 -135 29 -118T39 -70H48Q62 -74 71 -76T91 -78Q118 -78 134 -57T150 50V603L65 644V660H386V644L301 603V245Q301 130 262 42T184 -89Q149 -130 120 -151T58 -173Z" />
<glyph unicode="K" glyph-name="uni004B" horiz-adv-x="774" d="M44 0V16L129 57V603L44 644V660H365V644L280 603V57L365 16V0H44ZM280 333L554 607L480 644V660H716V644L650 616L418 393L696 45L766 16V0H544L280 333Z" />
<glyph unicode="L" glyph-name="uni004C" horiz-adv-x="649" d="M44 0V16L129 57V603L44 644V660H375V644L280 603V55H500L581 244H597V0H44Z" />
<glyph unicode="M" glyph-name="uni004D" horiz-adv-x="995" d="M42 0V16L127 57L148 603L60 644V660H308L509 195L708 660H948V644L861 613L878 57L954 16V0H651V16L731 56L721 531L493 -5H437L207 529L194 56L281 16V0H42Z" />
<glyph unicode="N" glyph-name="uni004E" horiz-adv-x="816" d="M42 0V16L127 57V602L42 644V660H232L620 222V604L506 644V660H774V644L690 603V-5H628L197 477V57L311 16V0H42Z" />
<glyph unicode="O" glyph-name="uni004F" horiz-adv-x="789" d="M394 -10Q246 -10 148 86T49 330Q49 477 147 573T394 670Q543 670 641 574T740 330Q740 183 642 87T394 -10ZM410 42Q486 42 533 112T580 300Q580 445 523 532T381 619Q306 619 257 550T208 362Q208
217 267 130T410 42Z" />
<glyph unicode="P" glyph-name="uni0050" horiz-adv-x="684" d="M44 0V16L129 57V603L44 644V660H390Q508 660 579 618T651 482Q651 398 570 346T366 294H280V57L382 16V0H44ZM280 605V343H328Q408 343 453 380T498 473Q498 543 452 574T322 605H280Z" />
<glyph unicode="Q" glyph-name="uni0051" horiz-adv-x="789" d="M686 -155Q616 -155 536 -125T343 -7Q214 10 132 103T49 330Q49 477 147 573T394 670Q543 670 641 574T740 330Q740 213 677 127T509 7Q592 -63 647 -88T746 -114Q768 -114 784 -111T812 -105V-128Q790
-139 759 -147T686 -155ZM410 42Q486 42 533 112T580 300Q580 445 523 532T381 619Q306 619 257 550T208 362Q208 217 267 130T410 42Z" />
<glyph unicode="R" glyph-name="uni0052" horiz-adv-x="727" d="M44 0V16L129 57V603L44 644V660H386Q491 660 551 617T612 497Q612 442 575 403T478 340L663 56L735 16V0H518L333 306H280V58L355 16V0H44ZM320 605H280V355H326Q388 355 424 390T460 481Q460 605
320 605Z" />
<glyph unicode="S" glyph-name="uni0053" horiz-adv-x="572" d="M271 -10Q205 -10 155 3T57 41L47 210H65L136 87Q193 41 259 41Q313 41 347 66T381 142Q381 193 345 219T215 287Q144 318 106 360T68 468Q68 522 103 568T193 642T308 670Q409 670 493 624L503
464H486L416 577Q390 597 366 607T310 618Q269 618 242 592T215 523Q215 482 244 456T347 396Q438 354 481 310T524 194Q524 97 445 44T271 -10Z" />
<glyph unicode="T" glyph-name="uni0054" horiz-adv-x="701" d="M169 0V16L275 57V605H132L52 440H36V660H665V440H649L569 605H426V57L532 16V0H169Z" />
<glyph unicode="U" glyph-name="uni0055" horiz-adv-x="838" d="M423 -10Q292 -10 211 56T130 284V603L44 644V660H367V644L281 603V283Q281 159 336 112T472 65Q538 65 588 106T638 248V605L544 644V660H794V644L708 604V284Q708 122 629 56T423 -10Z" />
<glyph unicode="V" glyph-name="uni0056" horiz-adv-x="764" d="M356 -5L90 605L19 644V660H331V644L249 605L427 196H435L611 606L530 644V660H744V644L686 612L414 -5H356Z" />
<glyph unicode="W" glyph-name="uni0057" horiz-adv-x="1042" d="M281 -5L89 604L12 644V660H327V644L243 606L358 221H363L537 665H596L769 221H774L890 605L804 644V660H1030V644L963 608L767 -5H709L530 439H523L339 -5H281Z" />
<glyph unicode="X" glyph-name="uni0058" horiz-adv-x="780" d="M26 0V16L105 56L313 311L104 607L38 644V660H368V644L289 605V600L425 412L575 600V604L497 644V660H732V644L665 609L461 362L683 56L754 16V0H419V16L491 54V58L349 260L188 59L186 55L266 16V0H26Z" />
<glyph unicode="Y" glyph-name="uni0059" horiz-adv-x="754" d="M216 0V16L306 57V308L88 605L20 644V660H329V644L254 607V603L428 368L584 601V605L507 644V660H735V644L668 611L457 309V57L546 16V0H216Z" />
<glyph unicode="Z" glyph-name="uni005A" horiz-adv-x="701" d="M84 0V32L425 605H186L112 456H96V660H606V628L263 55H522L601 214H617V0H84Z" />
<glyph unicode="[" glyph-name="uni005B" horiz-adv-x="262" d="M59 -150V740H245V714H129V-124H245V-150H59Z" />
<glyph unicode="\" glyph-name="uni005C" horiz-adv-x="250" d="M200 -120L0 750H50L250 -120H200Z" />
<glyph unicode="]" glyph-name="uni005D" horiz-adv-x="262" d="M17 -150V-124H133V714H17V740H203V-150H17Z" />
<glyph unicode="^" glyph-name="uni005E" horiz-adv-x="561" d="M70 250L255 670H305L490 250H429L280 588L131 250H70Z" />
<glyph unicode="_" glyph-name="uni005F" horiz-adv-x="500" d="M25 -140V-90H475V-140H25Z" />
<glyph unicode="`" glyph-name="uni0060" horiz-adv-x="500" d="M324 530L193 638Q153 670 153 707H263L346 530H324Z" />
<glyph unicode="a" glyph-name="uni0061" horiz-adv-x="514" d="M151 -9Q102 -9 67 20T34 106Q34 160 67 191T195 247L289 270V332Q289 370 266 393T207 416Q147 416 147 360V314L143 310H77Q50 310 50 341Q50 384 114 423Q183 466 250 466Q324 466 377 436T430
338V74Q446 58 478 58H507L510 55V41Q499 22 473 6T404 -10Q323 -10 295 58H289Q264 30 229 11T151 -9ZM166 134Q166 71 232 71Q259 71 289 83V230Q214 214 190 193T166 134Z" />
<glyph unicode="b" glyph-name="uni0062" horiz-adv-x="582" d="M90 -4V636L26 683V695L218 750H230V406H236Q305 466 380 466Q447 466 497 408T547 247Q547 127 477 59T312 -10Q224 -10 166 28L102 -4H90ZM297 384Q265 384 230 364V75Q259 42 305 42Q342 42 374
79T407 222Q407 305 373 344T297 384Z" />
<glyph unicode="c" glyph-name="uni0063" horiz-adv-x="484" d="M254 -10Q157 -10 98 49T38 207Q38 321 107 393T289 466Q389 466 431 417Q447 398 447 387Q447 375 434 363L387 323H380L345 372Q328 395 311 408T266 422Q220 422 197 377T173 255Q173 190 207
144T320 98Q348 98 380 105T446 129H449V113Q424 60 374 25T254 -10Z" />
<glyph unicode="d" glyph-name="uni0064" horiz-adv-x="583" d="M200 -10Q133 -10 83 45T32 195Q32 320 98 393T267 466Q315 466 350 457V636L281 684V695L478 750H490V45L560 16V0H360L352 50H345Q274 -10 200 -10ZM173 226Q173 146 207 109T283 72Q315 72 350
92V382Q322 413 282 413Q238 413 206 375T173 226Z" />
<glyph unicode="e" glyph-name="uni0065" horiz-adv-x="496" d="M260 -10Q157 -10 98 49T38 207Q38 321 110 393T285 466Q366 466 411 412T457 259L453 254H173V249Q173 186 209 142T329 98Q358 98 389 105T455 129H458V113Q433 60 382 25T260 -10ZM262 421Q190
421 176 299H345Q338 367 317 394T262 421Z" />
<glyph unicode="f" glyph-name="uni0066" horiz-adv-x="371" d="M36 0V16L103 48V411H27V456H103V487Q103 533 144 595T246 703T370 750Q392 750 412 740Q436 727 436 714Q436 707 430 695L404 641H395L376 649Q342 666 314 666Q270 666 257 633T244 518V456H362V411H244V47L321
16V0H36Z" />
<glyph unicode="g" glyph-name="uni0067" horiz-adv-x="541" d="M257 152Q210 152 170 168Q148 154 148 129Q148 81 225 81H335Q488 81 488 -55Q488 -124 418 -182T226 -240Q129 -240 87 -210T45 -133Q45 -101 63 -71L126 -31V-26Q49 -1 49 73Q49 119 77 148L134
181V187Q65 233 65 309Q65 376 120 420T257 465Q318 465 358 445L512 455V395L412 403L408 399Q448 362 448 309Q448 242 393 197T257 152ZM264 195Q296 195 312 225T329 306Q329 363 308 393T254 424Q220 424 203 393T186 312Q186 195 264 195ZM130 -114Q130 -153
157 -178T236 -204Q300 -204 337 -175T374 -105Q374 -67 354 -52T284 -37H198Q183 -37 169 -36Q130 -61 130 -114Z" />
<glyph unicode="h" glyph-name="uni0068" horiz-adv-x="618" d="M31 0V16L98 48V636L34 683V695L226 750H238V392H242Q278 427 312 446T392 466Q453 466 491 435T530 343V48L597 16V0H339V16L389 47V302Q389 337 369 355T317 374Q271 374 238 347V47L289 16V0H31Z" />
<glyph unicode="i" glyph-name="uni0069" horiz-adv-x="333" d="M168 565Q136 565 116 585T95 637Q95 669 115 689T168 710Q200 710 220 690T241 637Q241 606 221 586T168 565ZM33 0V16L100 48V352L36 399V411L229 466H241V48L300 16V0H33Z" />
<glyph unicode="j" glyph-name="uni006A" horiz-adv-x="330" d="M166 565Q134 565 114 585T93 637Q93 669 113 689T166 710Q198 710 218 690T239 637Q239 606 219 586T166 565ZM35 -230V-212Q75 -179 86 -148T98 -56V352L35 399V411L227 466H239V24Q239 -67 198
-122T35 -230Z" />
<glyph unicode="k" glyph-name="uni006B" horiz-adv-x="603" d="M31 0V16L98 48V636L34 683V695L226 750H238V261L388 398V404L339 440V456H551V440L487 405L351 298L534 50L598 16V0H403L372 52L238 239V47L303 16V0H31Z" />
<glyph unicode="l" glyph-name="uni006C" horiz-adv-x="326" d="M29 0V16L96 48V636L32 683V695L225 750H237V48L296 16V0H29Z" />
<glyph unicode="m" glyph-name="uni006D" horiz-adv-x="901" d="M31 0V16L98 48V352L34 393V405L216 466H228L237 392H242Q277 427 310 446T389 466Q496 466 519 382H523Q561 422 595 444T679 466Q738 466 776 435T814 343V48L880 16V0H622V16L673 48V302Q673
374 603 374Q555 374 524 343V343V48L574 16V0H334V16L383 48V302Q383 374 313 374Q270 374 238 348V48L286 16V0H31Z" />
<glyph unicode="n" glyph-name="uni006E" horiz-adv-x="618" d="M31 0V16L98 48V352L34 393V405L216 466H228L237 392H242Q278 427 312 446T392 466Q453 466 491 435T530 343V48L597 16V0H339V16L389 48V302Q389 337 369 355T317 374Q271 374 238 347V48L289 16V0H31Z" />
<glyph unicode="o" glyph-name="uni006F" horiz-adv-x="547" d="M274 -10Q168 -10 102 60T35 228Q35 326 101 396T274 466Q380 466 446 396T512 228Q512 130 446 60T274 -10ZM285 39Q328 39 348 90T368 208Q368 290 344 354T265 418Q220 418 200 367T179 249Q179
167 204 103T285 39Z" />
<glyph unicode="p" glyph-name="uni0070" horiz-adv-x="589" d="M31 -230V-214L98 -182V346L34 393V405L216 466H228L236 405H242Q312 466 388 466Q455 466 505 408T555 247Q555 127 486 59T323 -10Q274 -10 238 0V-182L316 -214V-230H31ZM305 384Q273 384 238
364V75Q267 42 317 42Q353 42 384 78T415 218Q415 304 381 344T305 384Z" />
<glyph unicode="q" glyph-name="uni0071" horiz-adv-x="580" d="M273 -230V-214L351 -184V48H344Q275 -10 202 -10Q134 -10 84 45T34 195Q34 320 102 393T278 466Q345 466 399 441L480 466H492V-182L558 -214V-230H273ZM175 225Q175 146 208 109T284 72Q314 72
351 92V353Q351 375 350 382T342 394Q320 413 280 413Q236 413 206 375T175 225Z" />
<glyph unicode="r" glyph-name="uni0072" horiz-adv-x="425" d="M33 0V16L99 48V346L36 393V405L218 466H230L239 376H244Q281 434 306 450T360 466Q375 466 397 458Q427 449 427 430Q427 421 423 413L399 348H392L366 357Q340 366 313 366Q271 366 240 327V48L321
16V0H33Z" />
<glyph unicode="s" glyph-name="uni0073" horiz-adv-x="437" d="M209 -10Q160 -10 124 -1T52 26V142H67L102 90Q139 34 205 34Q283 34 283 91Q283 122 258 138T169 180Q59 225 59 311Q59 376 108 421T231 466Q302 466 361 436V317H346L315 364Q277 421 228 421Q161
421 161 364Q161 338 181 322T263 281Q305 264 344 238T383 141Q383 70 330 30T209 -10Z" />
<glyph unicode="t" glyph-name="uni0074" horiz-adv-x="386" d="M221 -10Q160 -10 121 16T82 89V411H10V425L102 456L203 566H222V456H361V411H222V114Q222 88 244 76T296 64Q315 64 329 66T358 72L361 70V53Q344 29 306 10T221 -10Z" />
<glyph unicode="u" glyph-name="uni0075" horiz-adv-x="590" d="M218 -10Q158 -10 120 21T81 113V408L15 440V456H222V154Q222 82 293 82Q338 82 369 108V408L309 440V456H510V47L573 16V0H369V64H365Q330 29 297 10T218 -10Z" />
<glyph unicode="v" glyph-name="uni0076" horiz-adv-x="476" d="M216 0L26 413L-36 440V456H247V440L178 411V408L282 185H286L378 404V408L315 440V456H512V440L441 406L254 0H216Z" />
<glyph unicode="w" glyph-name="uni0077" horiz-adv-x="728" d="M191 0L26 413L-36 440V456H247V440L178 411V408L262 185H267L382 456H420L540 186H544L630 404V408L567 440V456H763V440L693 406L517 0H479L356 271L229 0H191Z" />
<glyph unicode="x" glyph-name="uni0078" horiz-adv-x="549" d="M18 0V16L70 47L208 209L63 413L18 440V456H290V440L234 414V408L310 301L388 402V408L337 440V456H516V440L463 409L338 261L492 43L533 16V0H267V16L322 42V48L235 170L148 54V48L203 16V0H18Z" />
<glyph unicode="y" glyph-name="uni0079" horiz-adv-x="476" d="M83 -241Q60 -241 55 -235T49 -212V-143L54 -138H99Q136 -138 156 -128T199 -64L225 -1L26 413L-36 440V456H240V440L178 411V408L288 177H295L380 404V408L321 440V456H512V440L441 407L241 -79Q227
-114 219 -133T188 -183Q168 -212 139 -226T83 -241Z" />
<glyph unicode="z" glyph-name="uni007A" horiz-adv-x="502" d="M52 0V20L268 409H124L70 300H51L62 466H67Q81 462 101 459T139 456H440V436L224 47H383L429 163H448V0H52Z" />
<glyph unicode="{" glyph-name="uni007B" horiz-adv-x="262" d="M220 -150Q137 -150 100 -113T62 -17Q62 45 86 96T110 199Q110 232 92 257T24 283H-1V308H24Q73 308 91 333T110 391Q110 442 86 493T62 607Q62 666 99 703T220 740H245V714H218Q174 714 153 690T132
625Q132 566 153 516T175 413Q175 376 155 345T83 295Q134 276 154 245T175 177Q175 125 154 75T132 -35Q132 -75 153 -99T218 -124H245V-150H220Z" />
<glyph unicode="|" glyph-name="uni007C" horiz-adv-x="250" d="M100 -250V750H150V-250H100Z" />
<glyph unicode="}" glyph-name="uni007D" horiz-adv-x="262" d="M42 -150H17V-124H44Q88 -124 109 -100T130 -35Q130 24 109 74T87 177Q87 214 108 245T179 295Q129 314 108 345T87 413Q87 465 108 515T130 625Q130 665 109 689T44 714H17V740H42Q125 740 162
703T200 607Q200 545 176 494T152 391Q152 359 170 334T238 308H263V283H238Q189 283 171 258T152 199Q152 148 176 97T200 -17Q200 -76 163 -113T42 -150Z" />
<glyph unicode="~" glyph-name="uni007E" horiz-adv-x="561" d="M70 201Q70 268 101 305T184 343Q232 343 263 321T320 276T379 254Q435 254 435 343H490Q490 201 376 201Q328 201 297 223T240 268T182 290Q125 290 125 201H70Z" />
<glyph unicode="&#xa0;" glyph-name="uni00A0" horiz-adv-x="250" />
<glyph unicode="&#xa1;" glyph-name="uni00A1" horiz-adv-x="269" d="M135 317Q104 317 82 339T60 392Q60 422 82 444T135 466Q165 466 187 444T209 392Q209 361 187 339T135 317ZM56 -199L119 243H151L213 -199H56Z" />
<glyph unicode="&#xa2;" glyph-name="uni00A2" horiz-adv-x="561" d="M192 26L211 102Q144 122 105 176T66 310Q66 423 135 495T318 568Q322 568 325 568L342 635H388L370 563Q431 552 460 519Q475 501 475 489Q475 476 463 465L416 426H409L375 471Q362 489 354
498L284 213Q311 203 347 203Q375 203 408 212T474 242H477V207Q448 158 399 125T283 92Q268 92 255 93L238 26H192ZM204 357Q204 277 244 238L314 521Q306 523 296 523Q250 523 227 478T204 357Z" />
<glyph unicode="&#xa3;" glyph-name="uni00A3" horiz-adv-x="561" d="M54 0V58Q130 119 152 155T175 231Q175 248 168 269T150 312H50V356H129Q115 386 104 417T92 476Q92 553 152 611T307 670Q370 670 411 651T472 607Q488 588 488 577Q488 563 475 553L417 510H410L396
536Q379 568 361 595T306 622Q267 622 249 595T231 533Q231 497 255 450T300 356H439V312H317Q325 287 325 268Q325 217 288 182T177 112H437L467 209H503L493 0H54Z" />
<glyph unicode="&#xa4;" glyph-name="uni00A4" horiz-adv-x="561" d="M69 100L147 178Q117 223 117 272Q117 321 147 366L69 444L110 484L188 406Q230 435 280 435Q333 435 373 406L451 484L492 444L414 366Q444 321 444 272Q444 223 414 178L492 100L451 60L373
138Q331 109 280 109Q228 109 188 138L110 60L69 100ZM280 160Q326 160 356 191T387 272Q387 321 357 352T280 384Q235 384 205 353T174 272Q174 223 204 192T280 160Z" />
<glyph unicode="&#xa5;" glyph-name="uni00A5" horiz-adv-x="561" d="M123 0V16L210 57V248H77V292H210V397L209 398H77V442H178L53 618L1 644V660H285V644L222 619V616L330 455L423 613V616L358 644V660H560V644L504 621L386 442H488V398H357L356 397V292H488V248H356V57L444
16V0H123Z" />
<glyph unicode="&#xa6;" glyph-name="uni00A6" horiz-adv-x="250" d="M100 350V750H150V350H100ZM100 -250V150H150V-250H100Z" />
<glyph unicode="&#xa7;" glyph-name="uni00A7" horiz-adv-x="535" d="M220 -121Q170 -121 137 -107T87 -77Q70 -62 73 -47Q75 -37 85 -28L129 13L137 12L152 -4Q167 -21 193 -45T257 -70Q291 -70 312 -52T333 -3Q333 38 303 57T227 89T137 117T62 163T31 253Q31
304 60 340T138 397Q120 414 110 438T99 496Q99 569 159 619T315 670Q364 670 394 657T442 628Q458 612 455 599Q454 592 443 580L400 540L392 542L378 557Q363 574 342 597T285 620Q251 620 230 602T208 553Q208 512 238 492T312 460T399 432T473 386T503 299Q503
246 474 210T396 153Q417 136 429 112T442 50Q442 -18 376 -69T220 -121ZM137 306Q137 261 171 242T255 211T349 180Q398 199 398 244Q398 291 361 310T272 339T176 372Q137 350 137 306Z" />
<glyph unicode="&#xa8;" glyph-name="uni00A8" horiz-adv-x="500" d="M151 559Q126 559 110 576T93 617Q93 641 109 658T151 675Q176 675 192 658T209 617Q209 593 193 576T151 559ZM349 559Q324 559 308 576T291 617Q291 641 307 658T349 675Q374 675 390 658T407
617Q407 593 391 576T349 559Z" />
<glyph unicode="&#xa9;" glyph-name="uni00A9" horiz-adv-x="806" d="M403 -10Q260 -10 165 86T70 330Q70 477 165 573T403 670Q546 670 641 574T736 330Q736 183 641 87T403 -10ZM403 30Q528 30 611 115T694 330Q694 460 611 545T403 630Q278 630 195 545T112
330Q112 200 195 115T403 30ZM418 129Q318 129 262 183T205 324Q205 414 270 477T428 540Q474 540 501 532T556 509L560 394H530L487 476Q457 495 430 495Q376 495 341 452T306 341Q306 263 340 219T425 175Q460 175 489 189L538 266H566L558 163Q529 148 497 139T418
129Z" />
<glyph unicode="&#xaa;" glyph-name="uni00AA" horiz-adv-x="414" d="M144 417Q118 417 100 432T82 477Q82 506 100 522T168 552L218 565V600Q218 641 181 641Q155 641 155 616V588L153 586H105Q91 586 91 602Q91 626 124 646Q163 670 202 670Q245 670 273 654T301
602V465Q310 456 328 456H343L345 454V445Q338 434 324 426T283 417Q236 417 222 453H219Q186 417 144 417ZM162 493Q162 461 195 461Q207 461 218 465V543Q185 535 174 524T162 493ZM85 291V344H333V291H85Z" />
<glyph unicode="&#xab;" glyph-name="uni00AB" horiz-adv-x="466" d="M229 70L26 247L229 424H248L142 247L248 70H229ZM421 70L218 247L421 424H440L334 247L440 70H421Z" />
<glyph unicode="&#xac;" glyph-name="uni00AC" horiz-adv-x="561" d="M433 62V245H70V299H490V62H433Z" />
<glyph unicode="&#xad;" glyph-name="uni00AD" horiz-adv-x="369" d="M47 222V292H322V222H47Z" />
<glyph unicode="&#xae;" glyph-name="uni00AE" horiz-adv-x="552" d="M276 227Q182 227 121 290T59 449Q59 544 120 607T276 670Q370 670 432 607T494 449Q494 354 432 291T276 227ZM276 260Q356 260 406 314T456 449Q456 529 406 583T276 637Q196 637 146 583T96
449Q96 368 146 314T276 260ZM161 323V330L192 346V556L161 572V578H281Q368 578 368 515Q368 469 315 450L369 343L395 330V323H317L264 440H247V346L277 330V323H161ZM256 555H247V463H258Q280 463 295 475T310 510Q310 555 256 555Z" />
<glyph unicode="&#xaf;" glyph-name="uni00AF" horiz-adv-x="500" d="M105 587V647H395V587H105Z" />
<glyph unicode="&#xb0;" glyph-name="uni00B0" horiz-adv-x="500" d="M250 410Q194 410 157 449T120 540Q120 592 157 631T250 670Q306 670 343 631T380 540Q380 488 343 449T250 410ZM250 453Q284 453 307 476T331 540Q331 580 308 603T250 627Q216 627 193 604T169
540Q169 500 192 477T250 453Z" />
<glyph unicode="&#xb1;" glyph-name="uni00B1" horiz-adv-x="561" d="M251 152V285H70V339H251V482H309V339H490V285H309V152H251ZM70 60V114H490V60H70Z" />
<glyph unicode="&#xb2;" glyph-name="uni00B2" horiz-adv-x="342" d="M26 505V529Q102 611 138 661T185 743T196 804Q196 828 186 846T150 864Q99 864 99 799V771L95 765H42Q20 765 20 789Q20 829 68 863Q88 877 112 888T181 900Q237 900 271 871T306 793Q306
764 293 737T237 672T107 572H274L306 631H322L316 505H26Z" />
<glyph unicode="&#xb3;" glyph-name="uni00B3" horiz-adv-x="342" d="M162 495Q101 495 59 521Q42 531 31 545T20 576Q20 592 26 595T43 599H93L99 593V578Q99 531 152 531Q183 531 197 551T212 602Q212 643 193 664T122 686H91V718H103Q143 718 167 740T192 806Q192
864 148 864Q106 864 106 817V790L101 784H50Q27 784 27 809Q27 842 65 866Q92 884 115 892T173 900Q231 900 266 876T302 808Q302 769 268 745T183 712Q322 701 322 610Q322 560 277 528T162 495Z" />
<glyph unicode="&#xb4;" glyph-name="uni00B4" horiz-adv-x="500" d="M153 530L236 707H346Q346 671 306 638L175 530H153Z" />
<glyph unicode="&#xb5;" glyph-name="uni00B5" horiz-adv-x="561" d="M219 -10Q171 -10 141 18L188 -210L68 -230H66V456H206V154Q206 119 226 101T277 82Q322 82 354 108V456H494V74Q510 58 542 58H571L574 55V41Q563 22 537 6T469 -10Q383 -10 358 64H350Q318
30 289 10T219 -10Z" />
<glyph unicode="&#xb6;" glyph-name="uni00B6" horiz-adv-x="515" d="M264 -110V359H223Q142 359 89 403T35 514Q35 590 82 625T207 660H322V-110H264ZM376 -110V660H519V644L434 603V-110H376Z" />
<glyph unicode="&#xb7;" glyph-name="uni00B7" horiz-adv-x="250" d="M125 197Q95 197 73 219T51 272Q51 302 73 324T125 346Q155 346 177 324T199 272Q199 241 177 219T125 197Z" />
<glyph unicode="&#xb8;" glyph-name="uni00B8" horiz-adv-x="500" d="M238 -240Q187 -240 157 -216V-197H161Q185 -209 218 -209Q273 -209 273 -170Q273 -149 253 -134T174 -103L232 24H270L240 -43Q297 -60 320 -84T343 -148Q343 -188 315 -214T238 -240Z" />
<glyph unicode="&#xb9;" glyph-name="uni00B9" horiz-adv-x="293" d="M56 505V521L113 542V814L15 769V804L161 892H217V542L268 521V505H56Z" />
<glyph unicode="&#xba;" glyph-name="uni00BA" horiz-adv-x="414" d="M207 416Q147 416 111 453T75 543Q75 595 111 632T207 670Q266 670 302 633T339 543Q339 490 303 453T207 416ZM212 443Q233 443 242 470T252 532Q252 576 240 609T202 643Q181 643 172 616T162
554Q162 510 174 477T212 443ZM85 291V344H333V291H85Z" />
<glyph unicode="&#xbb;" glyph-name="uni00BB" horiz-adv-x="466" d="M26 70L132 247L26 424H45L248 247L45 70H26ZM218 70L324 247L218 424H237L440 247L237 70H218Z" />
<glyph unicode="&#xbc;" glyph-name="uni00BC" horiz-adv-x="792" d="M95 355V371L152 392V664L54 619V654L200 742H256V392L307 371V355H95ZM131 20L603 750L648 720L176 -10L131 20ZM519 0V16L576 43V99H413V118L596 387H681V148H751V99H681V43L731 16V0H519ZM478
148H576V299L478 148Z" />
<glyph unicode="&#xbd;" glyph-name="uni00BD" horiz-adv-x="792" d="M89 355V371L146 392V664L48 619V654L194 742H250V392L301 371V355H89ZM113 20L585 750L630 720L158 -10L113 20ZM443 0V24Q519 106 555 156T602 238T613 299Q613 323 603 341T567 359Q516
359 516 294V266L512 260H459Q437 260 437 284Q437 324 485 358Q505 372 529 383T598 395Q654 395 688 366T723 288Q723 259 710 232T654 167T524 67H691L723 126H739L733 0H443Z" />
<glyph unicode="&#xbe;" glyph-name="uni00BE" horiz-adv-x="792" d="M176 345Q115 345 73 371Q56 381 45 395T34 426Q34 442 40 445T57 449H107L113 443V428Q113 381 166 381Q197 381 211 401T226 452Q226 493 207 514T136 536H105V568H117Q157 568 181 590T206
656Q206 714 162 714Q120 714 120 667V640L115 634H64Q41 634 41 659Q41 692 79 716Q106 734 129 742T187 750Q245 750 280 726T316 658Q316 619 282 595T197 562Q336 551 336 460Q336 410 291 378T176 345ZM155 20L627 750L672 720L200 -10L155 20ZM543 0V16L600
43V99H437V118L620 387H705V148H775V99H705V43L755 16V0H543ZM502 148H600V299L502 148Z" />
<glyph unicode="&#xbf;" glyph-name="uni00BF" horiz-adv-x="479" d="M270 317Q240 317 218 339T195 392Q195 422 217 444T270 466Q300 466 322 444T344 392Q344 361 322 339T270 317ZM232 -209Q141 -209 88 -160T35 -32Q35 39 87 91T239 166L252 243H284L316
83Q156 58 156 -52Q156 -109 182 -137T248 -166Q286 -166 309 -139T333 -58V-24L343 -12H416Q433 -12 441 -18T450 -50Q450 -107 388 -153Q352 -179 317 -194T232 -209Z" />
<glyph unicode="&#xc0;" glyph-name="uni00C0" horiz-adv-x="774" d="M19 0V16L80 50L341 665H429L687 52L755 16V0H439V16L526 52L458 218H221L153 52L236 16V0H19ZM244 273H435L340 506L244 273ZM374 710L243 793Q218 809 211 826T203 862H313L396 710H374Z" />
<glyph unicode="&#xc1;" glyph-name="uni00C1" horiz-adv-x="774" d="M19 0V16L80 50L341 665H429L687 52L755 16V0H439V16L526 52L458 218H221L153 52L236 16V0H19ZM244 273H435L340 506L244 273ZM374 710L457 862H567Q567 843 559 826T527 793L396 710H374Z" />
<glyph unicode="&#xc2;" glyph-name="uni00C2" horiz-adv-x="774" d="M19 0V16L80 50L341 665H429L687 52L755 16V0H439V16L526 52L458 218H221L153 52L236 16V0H19ZM244 273H435L340 506L244 273ZM226 710L362 862H410L546 710H524L386 774L248 710H226Z" />
<glyph unicode="&#xc3;" glyph-name="uni00C3" horiz-adv-x="774" d="M19 0V16L80 50L341 665H429L687 52L755 16V0H439V16L526 52L458 218H221L153 52L236 16V0H19ZM244 273H435L340 506L244 273ZM221 722Q246 798 270 823T325 848Q369 848 404 822T472 795Q488
795 501 804T529 848H551Q527 772 503 747T447 722Q403 722 368 748T300 775Q284 775 271 766T243 722H221Z" />
<glyph unicode="&#xc4;" glyph-name="uni00C4" horiz-adv-x="774" d="M19 0V16L80 50L341 665H429L687 52L755 16V0H439V16L526 52L458 218H221L153 52L236 16V0H19ZM244 273H435L340 506L244 273ZM287 727Q262 727 246 744T229 785Q229 810 245 827T287 844Q312
844 328 827T345 785Q345 761 329 744T287 727ZM485 727Q460 727 444 744T427 785Q427 810 443 827T485 844Q510 844 526 827T543 785Q543 761 527 744T485 727Z" />
<glyph unicode="&#xc5;" glyph-name="uni00C5" horiz-adv-x="774" d="M19 0V16L80 50L341 665H429L687 52L755 16V0H439V16L526 52L458 218H221L153 52L236 16V0H19ZM244 273H435L340 506L244 273ZM386 710Q347 710 322 734T297 795Q297 831 322 855T386 880Q426
880 450 856T475 795Q475 758 451 734T386 710ZM390 735Q420 735 420 788Q420 855 382 855Q352 855 352 801Q352 735 390 735Z" />
<glyph unicode="&#xc6;" glyph-name="uni00C6" horiz-adv-x="1029" d="M464 660H937V487H921L847 605H628V368H782L838 454H854V229H838L782 313H628V55H870L949 204H965V0H391V16L477 57V230H266L154 51L233 16V0H17V16L82 51L464 660ZM300 285H477V570L300 285Z" />
<glyph unicode="&#xc7;" glyph-name="uni00C7" horiz-adv-x="711" d="M375 -209Q430 -209 430 -170Q430 -149 411 -134T332 -103L375 -9Q227 -2 138 90T49 316Q49 416 100 496T236 623T415 670Q494 670 536 657T622 622L633 435H615L520 590Q472 620 420 620Q328
620 267 540T206 326Q206 195 265 119T411 43Q448 43 477 52T534 77L624 211H641L627 42Q588 19 534 5T413 -10L398 -43Q455 -60 478 -84T501 -148Q501 -188 473 -214T396 -240Q344 -240 315 -216V-197H318Q342 -209 375 -209Z" />
<glyph unicode="&#xc8;" glyph-name="uni00C8" horiz-adv-x="681" d="M44 0V16L129 57V603L44 644V660H589V487H573L499 605H280V368H434L490 454H506V229H490L434 313H280V55H523L601 204H617V0H44ZM342 710L211 793Q186 809 179 826T171 862H281L364 710H342Z" />
<glyph unicode="&#xc9;" glyph-name="uni00C9" horiz-adv-x="681" d="M44 0V16L129 57V603L44 644V660H589V487H573L499 605H280V368H434L490 454H506V229H490L434 313H280V55H523L601 204H617V0H44ZM342 710L425 862H535Q535 843 527 826T495 793L364 710H342Z" />
<glyph unicode="&#xca;" glyph-name="uni00CA" horiz-adv-x="681" d="M44 0V16L129 57V603L44 644V660H589V487H573L499 605H280V368H434L490 454H506V229H490L434 313H280V55H523L601 204H617V0H44ZM194 710L330 862H378L514 710H492L354 774L216 710H194Z" />
<glyph unicode="&#xcb;" glyph-name="uni00CB" horiz-adv-x="681" d="M44 0V16L129 57V603L44 644V660H589V487H573L499 605H280V368H434L490 454H506V229H490L434 313H280V55H523L601 204H617V0H44ZM255 727Q230 727 214 744T197 785Q197 810 213 827T255 844Q280
844 296 827T313 785Q313 761 297 744T255 727ZM453 727Q428 727 412 744T395 785Q395 810 411 827T453 844Q478 844 494 827T511 785Q511 761 495 744T453 727Z" />
<glyph unicode="&#xcc;" glyph-name="uni00CC" horiz-adv-x="413" d="M46 0V16L131 57V603L46 644V660H367V644L282 603V57L367 16V0H46ZM195 710L64 793Q39 809 32 826T24 862H134L217 710H195Z" />
<glyph unicode="&#xcd;" glyph-name="uni00CD" horiz-adv-x="413" d="M46 0V16L131 57V603L46 644V660H367V644L282 603V57L367 16V0H46ZM195 710L278 862H388Q388 843 380 826T348 793L217 710H195Z" />
<glyph unicode="&#xce;" glyph-name="uni00CE" horiz-adv-x="413" d="M46 0V16L131 57V603L46 644V660H367V644L282 603V57L367 16V0H46ZM47 710L183 862H231L367 710H345L207 774L69 710H47Z" />
<glyph unicode="&#xcf;" glyph-name="uni00CF" horiz-adv-x="413" d="M46 0V16L131 57V603L46 644V660H367V644L282 603V57L367 16V0H46ZM108 727Q83 727 67 744T50 785Q50 810 66 827T108 844Q133 844 149 827T166 785Q166 761 150 744T108 727ZM306 727Q281
727 265 744T248 785Q248 810 264 827T306 844Q331 844 347 827T364 785Q364 761 348 744T306 727Z" />
<glyph unicode="&#xd0;" glyph-name="uni00D0" horiz-adv-x="802" d="M44 0V16L129 57V316H44V369H129V603L44 644V660H385Q563 660 660 575T757 360Q757 256 708 175T573 47T378 0H44ZM431 316H280V55H358Q474 55 537 129T600 329Q600 455 536 530T344 605H280V369H431V316Z"
/>
<glyph unicode="&#xd1;" glyph-name="uni00D1" horiz-adv-x="816" d="M42 0V16L127 57V602L42 644V660H232L620 222V604L506 644V660H774V644L690 603V-5H628L197 477V57L311 16V0H42ZM248 722Q273 798 297 823T352 848Q396 848 431 822T499 795Q515 795 528 804T556
848H578Q554 772 530 747T474 722Q430 722 395 748T327 775Q311 775 298 766T270 722H248Z" />
<glyph unicode="&#xd2;" glyph-name="uni00D2" horiz-adv-x="789" d="M394 -10Q246 -10 148 86T49 330Q49 477 147 573T394 670Q543 670 641 574T740 330Q740 183 642 87T394 -10ZM410 42Q486 42 533 112T580 300Q580 445 523 532T381 619Q306 619 257 550T208
362Q208 217 267 130T410 42ZM378 710L247 793Q222 809 215 826T207 862H317L400 710H378Z" />
<glyph unicode="&#xd3;" glyph-name="uni00D3" horiz-adv-x="789" d="M394 -10Q246 -10 148 86T49 330Q49 477 147 573T394 670Q543 670 641 574T740 330Q740 183 642 87T394 -10ZM410 42Q486 42 533 112T580 300Q580 445 523 532T381 619Q306 619 257 550T208
362Q208 217 267 130T410 42ZM378 710L461 862H571Q571 843 563 826T531 793L400 710H378Z" />
<glyph unicode="&#xd4;" glyph-name="uni00D4" horiz-adv-x="789" d="M394 -10Q246 -10 148 86T49 330Q49 477 147 573T394 670Q543 670 641 574T740 330Q740 183 642 87T394 -10ZM410 42Q486 42 533 112T580 300Q580 445 523 532T381 619Q306 619 257 550T208
362Q208 217 267 130T410 42ZM230 710L366 862H414L550 710H528L390 774L252 710H230Z" />
<glyph unicode="&#xd5;" glyph-name="uni00D5" horiz-adv-x="789" d="M394 -10Q246 -10 148 86T49 330Q49 477 147 573T394 670Q543 670 641 574T740 330Q740 183 642 87T394 -10ZM410 42Q486 42 533 112T580 300Q580 445 523 532T381 619Q306 619 257 550T208
362Q208 217 267 130T410 42ZM225 722Q250 798 274 823T329 848Q373 848 408 822T476 795Q492 795 505 804T533 848H555Q531 772 507 747T451 722Q407 722 372 748T304 775Q288 775 275 766T247 722H225Z" />
<glyph unicode="&#xd6;" glyph-name="uni00D6" horiz-adv-x="789" d="M394 -10Q246 -10 148 86T49 330Q49 477 147 573T394 670Q543 670 641 574T740 330Q740 183 642 87T394 -10ZM410 42Q486 42 533 112T580 300Q580 445 523 532T381 619Q306 619 257 550T208
362Q208 217 267 130T410 42ZM291 727Q266 727 250 744T233 785Q233 810 249 827T291 844Q316 844 332 827T349 785Q349 761 333 744T291 727ZM489 727Q464 727 448 744T431 785Q431 810 447 827T489 844Q514 844 530 827T547 785Q547 761 531 744T489 727Z" />
<glyph unicode="&#xd7;" glyph-name="uni00D7" horiz-adv-x="561" d="M134 86L94 127L240 273L94 418L134 460L280 314L427 460L467 418L321 273L467 127L427 86L280 232L134 86Z" />
<glyph unicode="&#xd8;" glyph-name="uni00D8" horiz-adv-x="789" d="M49 -10L142 92Q49 188 49 330Q49 477 147 573T394 670Q514 670 605 605L664 670H740L647 568Q740 472 740 330Q740 183 642 87T394 -10Q274 -10 184 56L124 -10H49ZM208 362Q208 269 235 195L529
521Q472 619 381 619Q306 619 257 550T208 362ZM410 42Q486 42 533 112T580 300Q580 392 554 465L260 140Q318 42 410 42Z" />
<glyph unicode="&#xd9;" glyph-name="uni00D9" horiz-adv-x="838" d="M423 -10Q292 -10 211 56T130 284V603L44 644V660H367V644L281 603V283Q281 159 336 112T472 65Q538 65 588 106T638 248V605L544 644V660H794V644L708 604V284Q708 122 629 56T423 -10ZM445
710L314 793Q289 809 282 826T274 862H384L467 710H445Z" />
<glyph unicode="&#xda;" glyph-name="uni00DA" horiz-adv-x="838" d="M423 -10Q292 -10 211 56T130 284V603L44 644V660H367V644L281 603V283Q281 159 336 112T472 65Q538 65 588 106T638 248V605L544 644V660H794V644L708 604V284Q708 122 629 56T423 -10ZM445
710L528 862H638Q638 843 630 826T598 793L467 710H445Z" />
<glyph unicode="&#xdb;" glyph-name="uni00DB" horiz-adv-x="838" d="M423 -10Q292 -10 211 56T130 284V603L44 644V660H367V644L281 603V283Q281 159 336 112T472 65Q538 65 588 106T638 248V605L544 644V660H794V644L708 604V284Q708 122 629 56T423 -10ZM296
710L432 862H480L616 710H594L456 774L318 710H296Z" />
<glyph unicode="&#xdc;" glyph-name="uni00DC" horiz-adv-x="838" d="M423 -10Q292 -10 211 56T130 284V603L44 644V660H367V644L281 603V283Q281 159 336 112T472 65Q538 65 588 106T638 248V605L544 644V660H794V644L708 604V284Q708 122 629 56T423 -10ZM358
727Q333 727 317 744T300 785Q300 810 316 827T358 844Q383 844 399 827T416 785Q416 761 400 744T358 727ZM556 727Q531 727 515 744T498 785Q498 810 514 827T556 844Q581 844 597 827T614 785Q614 761 598 744T556 727Z" />
<glyph unicode="&#xdd;" glyph-name="uni00DD" horiz-adv-x="754" d="M216 0V16L306 57V308L88 605L20 644V660H329V644L254 607V603L428 368L584 601V605L507 644V660H735V644L668 611L457 309V57L546 16V0H216ZM404 710L487 862H597Q597 843 589 826T557 793L426
710H404Z" />
<glyph unicode="&#xde;" glyph-name="uni00DE" horiz-adv-x="684" d="M44 0V16L129 57V603L44 644V660H365V644L280 603V532H390Q508 532 579 490T651 354Q651 269 570 218T366 166H280V57L365 16V0H44ZM322 476H280V214H328Q408 214 453 251T498 344Q498 414
452 445T322 476Z" />
<glyph unicode="&#xdf;" glyph-name="uni00DF" horiz-adv-x="673" d="M44 0V16L107 48V409H29V456H107V480Q107 582 178 666T378 750Q478 750 526 711T574 618Q574 576 554 549T506 500T458 454T437 392Q437 355 471 334T554 279Q606 242 623 210T641 138Q641
74 590 32T467 -10Q418 -10 383 -1T312 26V142H328L363 90Q399 34 456 34Q530 34 530 99Q530 138 498 159T417 209Q384 230 361 257T338 333Q338 387 366 418T421 487T449 597Q449 643 426 673T357 703Q296 703 272 660T248 542V0H44Z" />
<glyph unicode="&#xe0;" glyph-name="uni00E0" horiz-adv-x="514" d="M151 -9Q102 -9 67 20T34 106Q34 160 67 191T195 247L289 270V332Q289 370 266 393T207 416Q147 416 147 360V314L143 310H77Q50 310 50 341Q50 384 114 423Q183 466 250 466Q324 466 377 436T430
338V74Q446 58 478 58H507L510 55V41Q499 22 473 6T404 -10Q323 -10 295 58H289Q264 30 229 11T151 -9ZM166 134Q166 71 232 71Q259 71 289 83V230Q214 214 190 193T166 134ZM234 530L103 638Q63 670 63 707H173L256 530H234Z" />
<glyph unicode="&#xe1;" glyph-name="uni00E1" horiz-adv-x="514" d="M151 -9Q102 -9 67 20T34 106Q34 160 67 191T195 247L289 270V332Q289 370 266 393T207 416Q147 416 147 360V314L143 310H77Q50 310 50 341Q50 384 114 423Q183 466 250 466Q324 466 377 436T430
338V74Q446 58 478 58H507L510 55V41Q499 22 473 6T404 -10Q323 -10 295 58H289Q264 30 229 11T151 -9ZM166 134Q166 71 232 71Q259 71 289 83V230Q214 214 190 193T166 134ZM235 530L318 707H428Q428 671 388 638L257 530H235Z" />
<glyph unicode="&#xe2;" glyph-name="uni00E2" horiz-adv-x="514" d="M151 -9Q102 -9 67 20T34 106Q34 160 67 191T195 247L289 270V332Q289 370 266 393T207 416Q147 416 147 360V314L143 310H77Q50 310 50 341Q50 384 114 423Q183 466 250 466Q324 466 377 436T430
338V74Q446 58 478 58H507L510 55V41Q499 22 473 6T404 -10Q323 -10 295 58H289Q264 30 229 11T151 -9ZM166 134Q166 71 232 71Q259 71 289 83V230Q214 214 190 193T166 134ZM85 530L221 707H269L405 530H383L245 613L107 530H85Z" />
<glyph unicode="&#xe3;" glyph-name="uni00E3" horiz-adv-x="514" d="M151 -9Q102 -9 67 20T34 106Q34 160 67 191T195 247L289 270V332Q289 370 266 393T207 416Q147 416 147 360V314L143 310H77Q50 310 50 341Q50 384 114 423Q183 466 250 466Q324 466 377 436T430
338V74Q446 58 478 58H507L510 55V41Q499 22 473 6T404 -10Q323 -10 295 58H289Q264 30 229 11T151 -9ZM166 134Q166 71 232 71Q259 71 289 83V230Q214 214 190 193T166 134ZM80 550Q109 639 132 662T187 686Q228 686 263 655T328 624Q346 624 359 635T388 686H410Q381
597 358 574T303 550Q262 550 227 581T162 612Q144 612 131 601T102 550H80Z" />
<glyph unicode="&#xe4;" glyph-name="uni00E4" horiz-adv-x="514" d="M151 -9Q102 -9 67 20T34 106Q34 160 67 191T195 247L289 270V332Q289 370 266 393T207 416Q147 416 147 360V314L143 310H77Q50 310 50 341Q50 384 114 423Q183 466 250 466Q324 466 377 436T430
338V74Q446 58 478 58H507L510 55V41Q499 22 473 6T404 -10Q323 -10 295 58H289Q264 30 229 11T151 -9ZM166 134Q166 71 232 71Q259 71 289 83V230Q214 214 190 193T166 134ZM146 559Q121 559 105 576T88 617Q88 641 104 658T146 675Q171 675 187 658T204 617Q204
593 188 576T146 559ZM344 559Q319 559 303 576T286 617Q286 641 302 658T344 675Q369 675 385 658T402 617Q402 593 386 576T344 559Z" />
<glyph unicode="&#xe5;" glyph-name="uni00E5" horiz-adv-x="514" d="M151 -9Q102 -9 67 20T34 106Q34 160 67 191T195 247L289 270V332Q289 370 266 393T207 416Q147 416 147 360V314L143 310H77Q50 310 50 341Q50 384 114 423Q183 466 250 466Q324 466 377 436T430
338V74Q446 58 478 58H507L510 55V41Q499 22 473 6T404 -10Q323 -10 295 58H289Q264 30 229 11T151 -9ZM166 134Q166 71 232 71Q259 71 289 83V230Q214 214 190 193T166 134ZM245 703Q285 703 309 679T334 618Q334 581 310 557T245 533Q206 533 181 557T156 618Q156
654 181 678T245 703ZM241 678Q211 678 211 624Q211 558 249 558Q279 558 279 612Q279 678 241 678Z" />
<glyph unicode="&#xe6;" glyph-name="uni00E6" horiz-adv-x="748" d="M152 -9Q103 -9 69 20T34 106Q34 160 67 191T195 247L290 270V332Q290 370 267 393T208 416Q148 416 148 360V314L144 310H77Q51 310 51 341Q51 385 115 423Q182 466 250 466Q294 466 332 455T395
420Q457 466 537 466Q618 466 663 412T709 259L705 254H426V249Q426 186 462 142T581 98Q610 98 641 105T707 129H710V113Q685 60 634 25T513 -10Q388 -10 329 75H321Q292 39 250 15T152 -9ZM514 421Q443 421 429 299H598Q590 368 569 394T514 421ZM166 134Q166
71 233 71Q255 71 275 77T316 95Q290 144 290 208V230Q215 214 191 193T166 134Z" />
<glyph unicode="&#xe7;" glyph-name="uni00E7" horiz-adv-x="484" d="M245 -209Q301 -209 301 -170Q301 -149 281 -134T202 -103L245 -10Q152 -7 95 52T38 207Q38 321 107 393T289 466Q389 466 431 417Q447 398 447 387Q447 375 434 363L387 323H380L347 369Q329
392 313 407T266 422Q220 422 197 377T173 255Q173 190 207 144T320 98Q348 98 380 105T446 129H449V113Q427 66 385 33T283 -8L268 -43Q325 -60 348 -84T371 -148Q371 -188 343 -214T266 -240Q215 -240 185 -216V-197H188Q214 -209 245 -209Z" />
<glyph unicode="&#xe8;" glyph-name="uni00E8" horiz-adv-x="496" d="M260 -10Q157 -10 98 49T38 207Q38 321 110 393T285 466Q366 466 411 412T457 259L453 254H173V249Q173 186 209 142T329 98Q358 98 389 105T455 129H458V113Q433 60 382 25T260 -10ZM262 421Q190
421 176 299H345Q338 367 317 394T262 421ZM255 530L124 638Q84 670 84 707H194L277 530H255Z" />
<glyph unicode="&#xe9;" glyph-name="uni00E9" horiz-adv-x="496" d="M260 -10Q157 -10 98 49T38 207Q38 321 110 393T285 466Q366 466 411 412T457 259L453 254H173V249Q173 186 209 142T329 98Q358 98 389 105T455 129H458V113Q433 60 382 25T260 -10ZM262 421Q190
421 176 299H345Q338 367 317 394T262 421ZM257 530L340 707H450Q450 671 410 638L279 530H257Z" />
<glyph unicode="&#xea;" glyph-name="uni00EA" horiz-adv-x="496" d="M260 -10Q157 -10 98 49T38 207Q38 321 110 393T285 466Q366 466 411 412T457 259L453 254H173V249Q173 186 209 142T329 98Q358 98 389 105T455 129H458V113Q433 60 382 25T260 -10ZM262 421Q190
421 176 299H345Q338 367 317 394T262 421ZM106 530L242 707H290L426 530H404L266 613L128 530H106Z" />
<glyph unicode="&#xeb;" glyph-name="uni00EB" horiz-adv-x="496" d="M260 -10Q157 -10 98 49T38 207Q38 321 110 393T285 466Q366 466 411 412T457 259L453 254H173V249Q173 186 209 142T329 98Q358 98 389 105T455 129H458V113Q433 60 382 25T260 -10ZM262 421Q190
421 176 299H345Q338 367 317 394T262 421ZM167 559Q142 559 126 576T109 617Q109 641 125 658T167 675Q192 675 208 658T225 617Q225 593 209 576T167 559ZM365 559Q340 559 324 576T307 617Q307 641 323 658T365 675Q390 675 406 658T423 617Q423 593 407 576T365
559Z" />
<glyph unicode="&#xec;" glyph-name="uni00EC" horiz-adv-x="333" d="M33 0V16L100 48V352L36 399V411L229 466H241V48L300 16V0H33ZM155 530L24 638Q-16 670 -16 707H94L177 530H155Z" />
<glyph unicode="&#xed;" glyph-name="uni00ED" horiz-adv-x="333" d="M33 0V16L100 48V352L36 399V411L229 466H241V48L300 16V0H33ZM157 530L240 707H350Q350 671 310 638L179 530H157Z" />
<glyph unicode="&#xee;" glyph-name="uni00EE" horiz-adv-x="333" d="M33 0V16L100 48V352L36 399V411L229 466H241V48L300 16V0H33ZM7 530L143 707H191L327 530H305L167 613L29 530H7Z" />
<glyph unicode="&#xef;" glyph-name="uni00EF" horiz-adv-x="333" d="M33 0V16L100 48V352L36 399V411L229 466H241V48L300 16V0H33ZM68 559Q43 559 27 576T10 617Q10 641 26 658T68 675Q93 675 109 658T126 617Q126 593 110 576T68 559ZM266 559Q241 559 225
576T208 617Q208 641 224 658T266 675Q291 675 307 658T324 617Q324 593 308 576T266 559Z" />
<glyph unicode="&#xf0;" glyph-name="uni00F0" horiz-adv-x="552" d="M273 -10Q169 -10 102 57T35 224Q35 334 105 400T276 466Q311 466 340 460Q314 533 266 588L196 523H123L231 623Q170 675 82 706V749Q190 723 279 667L359 741H432L321 638Q412 569 464 472T517
262Q517 139 448 65T273 -10ZM179 231Q179 148 204 94T279 39Q321 39 345 93T369 267Q369 316 363 360Q345 385 326 400T275 415Q179 415 179 231Z" />
<glyph unicode="&#xf1;" glyph-name="uni00F1" horiz-adv-x="618" d="M31 0V16L98 48V352L34 393V405L216 466H228L237 392H242Q278 427 312 446T392 466Q453 466 491 435T530 343V48L597 16V0H339V16L389 48V302Q389 337 369 355T317 374Q271 374 238 347V48L289
16V0H31ZM149 550Q178 639 201 662T256 686Q297 686 332 655T397 624Q415 624 428 635T457 686H479Q450 597 427 574T372 550Q331 550 296 581T231 612Q213 612 200 601T171 550H149Z" />
<glyph unicode="&#xf2;" glyph-name="uni00F2" horiz-adv-x="547" d="M274 -10Q168 -10 102 60T35 228Q35 326 101 396T274 466Q380 466 446 396T512 228Q512 130 446 60T274 -10ZM285 39Q328 39 348 90T368 208Q368 290 344 354T265 418Q220 418 200 367T179
249Q179 167 204 103T285 39ZM261 530L130 638Q90 670 90 707H200L283 530H261Z" />
<glyph unicode="&#xf3;" glyph-name="uni00F3" horiz-adv-x="547" d="M274 -10Q168 -10 102 60T35 228Q35 326 101 396T274 466Q380 466 446 396T512 228Q512 130 446 60T274 -10ZM285 39Q328 39 348 90T368 208Q368 290 344 354T265 418Q220 418 200 367T179
249Q179 167 204 103T285 39ZM263 530L346 707H456Q456 671 416 638L285 530H263Z" />
<glyph unicode="&#xf4;" glyph-name="uni00F4" horiz-adv-x="547" d="M274 -10Q168 -10 102 60T35 228Q35 326 101 396T274 466Q380 466 446 396T512 228Q512 130 446 60T274 -10ZM285 39Q328 39 348 90T368 208Q368 290 344 354T265 418Q220 418 200 367T179
249Q179 167 204 103T285 39ZM112 530L248 707H296L432 530H410L272 613L134 530H112Z" />
<glyph unicode="&#xf5;" glyph-name="uni00F5" horiz-adv-x="547" d="M274 -10Q168 -10 102 60T35 228Q35 326 101 396T274 466Q380 466 446 396T512 228Q512 130 446 60T274 -10ZM285 39Q328 39 348 90T368 208Q368 290 344 354T265 418Q220 418 200 367T179
249Q179 167 204 103T285 39ZM107 550Q136 639 159 662T214 686Q255 686 290 655T355 624Q373 624 386 635T415 686H437Q408 597 385 574T330 550Q289 550 254 581T189 612Q171 612 158 601T129 550H107Z" />
<glyph unicode="&#xf6;" glyph-name="uni00F6" horiz-adv-x="547" d="M274 -10Q168 -10 102 60T35 228Q35 326 101 396T274 466Q380 466 446 396T512 228Q512 130 446 60T274 -10ZM285 39Q328 39 348 90T368 208Q368 290 344 354T265 418Q220 418 200 367T179
249Q179 167 204 103T285 39ZM173 559Q148 559 132 576T115 617Q115 641 131 658T173 675Q198 675 214 658T231 617Q231 593 215 576T173 559ZM371 559Q346 559 330 576T313 617Q313 641 329 658T371 675Q396 675 412 658T429 617Q429 593 413 576T371 559Z" />
<glyph unicode="&#xf7;" glyph-name="uni00F7" horiz-adv-x="561" d="M245 413V482H315V413H245ZM70 245V299H490V245H70ZM245 62V131H315V62H245Z" />
<glyph unicode="&#xf8;" glyph-name="uni00F8" horiz-adv-x="547" d="M35 -10L98 64Q35 131 35 228Q35 326 101 396T274 466Q350 466 409 427L443 466H512L449 393Q512 326 512 228Q512 130 446 60T274 -10Q197 -10 138 30L104 -10H35ZM179 249Q179 204 186 166L345
351Q317 418 265 418Q220 418 200 368T179 249ZM285 39Q328 39 348 90T368 208Q368 253 362 290L203 106Q232 39 285 39Z" />
<glyph unicode="&#xf9;" glyph-name="uni00F9" horiz-adv-x="590" d="M218 -10Q158 -10 120 21T81 113V408L15 440V456H222V154Q222 82 293 82Q338 82 369 108V408L309 440V456H510V47L573 16V0H369V64H365Q330 29 297 10T218 -10ZM282 530L151 638Q111 670 111
707H221L304 530H282Z" />
<glyph unicode="&#xfa;" glyph-name="uni00FA" horiz-adv-x="590" d="M218 -10Q158 -10 120 21T81 113V408L15 440V456H222V154Q222 82 293 82Q338 82 369 108V408L309 440V456H510V47L573 16V0H369V64H365Q330 29 297 10T218 -10ZM284 530L367 707H477Q477 671
437 638L306 530H284Z" />
<glyph unicode="&#xfb;" glyph-name="uni00FB" horiz-adv-x="590" d="M218 -10Q158 -10 120 21T81 113V408L15 440V456H222V154Q222 82 293 82Q338 82 369 108V408L309 440V456H510V47L573 16V0H369V64H365Q330 29 297 10T218 -10ZM134 530L270 707H318L454 530H432L294
613L156 530H134Z" />
<glyph unicode="&#xfc;" glyph-name="uni00FC" horiz-adv-x="590" d="M218 -10Q158 -10 120 21T81 113V408L15 440V456H222V154Q222 82 293 82Q338 82 369 108V408L309 440V456H510V47L573 16V0H369V64H365Q330 29 297 10T218 -10ZM195 559Q170 559 154 576T137
617Q137 641 153 658T195 675Q220 675 236 658T253 617Q253 593 237 576T195 559ZM393 559Q368 559 352 576T335 617Q335 641 351 658T393 675Q418 675 434 658T451 617Q451 593 435 576T393 559Z" />
<glyph unicode="&#xfd;" glyph-name="uni00FD" horiz-adv-x="476" d="M83 -241Q60 -241 55 -235T49 -212V-143L54 -138H99Q136 -138 156 -128T199 -64L225 -1L26 413L-36 440V456H240V440L178 411V408L288 177H295L380 404V408L321 440V456H512V440L441 407L241
-79Q227 -114 219 -133T188 -183Q168 -212 139 -226T83 -241ZM271 530L354 707H464Q464 671 424 638L293 530H271Z" />
<glyph unicode="&#xfe;" glyph-name="uni00FE" horiz-adv-x="586" d="M31 -230V-214L98 -182V636L34 683V695L222 750H238V408H245Q314 466 388 466Q455 466 505 408T555 247Q555 127 486 59T323 -10Q274 -10 238 0V-182L316 -214V-230H31ZM305 384Q273 384 238
364V75Q267 42 317 42Q353 42 384 78T415 218Q415 304 381 344T305 384Z" />
<glyph unicode="&#xff;" glyph-name="uni00FF" horiz-adv-x="476" d="M83 -241Q60 -241 55 -235T49 -212V-143L54 -138H99Q136 -138 156 -128T199 -64L225 -1L26 413L-36 440V456H240V440L178 411V408L288 177H295L380 404V408L321 440V456H512V440L441 407L241
-79Q227 -114 219 -133T188 -183Q168 -212 139 -226T83 -241ZM181 559Q156 559 140 576T123 617Q123 641 139 658T181 675Q206 675 222 658T239 617Q239 593 223 576T181 559ZM379 559Q354 559 338 576T321 617Q321 641 337 658T379 675Q404 675 420 658T437 617Q437
593 421 576T379 559Z" />
<glyph unicode="&#x2013;" glyph-name="uni2013" horiz-adv-x="500" d="M47 247V297H453V247H47Z" />
<glyph unicode="&#x2014;" glyph-name="uni2014" horiz-adv-x="1000" d="M47 247V297H953V247H47Z" />
<glyph unicode="&#x2018;" glyph-name="uni2018" horiz-adv-x="242" d="M141 475Q132 475 118 482Q42 523 42 594Q42 638 77 683T192 751V725Q112 696 112 643Q112 603 159 578L191 561L193 550L164 494Q154 475 141 475Z" />
<glyph unicode="&#x2019;" glyph-name="uni2019" horiz-adv-x="242" d="M50 475V501Q130 530 130 583Q130 623 83 648L51 665L49 676L78 732Q89 751 101 751Q110 751 125 744Q200 703 200 632Q200 591 166 545T50 475Z" />
<glyph unicode="&#x201a;" glyph-name="uni201A" horiz-adv-x="242" d="M50 -195V-169Q130 -140 130 -87Q130 -47 83 -22L51 -5L49 6L78 62Q89 81 101 81Q110 81 125 74Q200 33 200 -38Q200 -79 166 -125T50 -195Z" />
<glyph unicode="&#x201c;" glyph-name="uni201C" horiz-adv-x="436" d="M141 475Q132 475 118 482Q42 523 42 594Q42 638 77 683T192 751V725Q112 696 112 643Q112 603 159 578L191 561L193 550L164 494Q154 475 141 475ZM335 475Q326 475 312 482Q236 523 236
594Q236 638 271 683T386 751V725Q306 696 306 643Q306 603 353 578L385 561L387 550L358 494Q348 475 335 475Z" />
<glyph unicode="&#x201d;" glyph-name="uni201D" horiz-adv-x="436" d="M50 475V501Q130 530 130 583Q130 623 83 648L51 665L49 676L78 732Q89 751 101 751Q110 751 125 744Q200 703 200 632Q200 591 166 545T50 475ZM244 475V501Q324 530 324 583Q324 623 277
648L245 665L243 676L272 732Q283 751 295 751Q304 751 319 744Q394 703 394 632Q394 591 360 545T244 475Z" />
<glyph unicode="&#x201e;" glyph-name="uni201E" horiz-adv-x="436" d="M50 -195V-169Q130 -140 130 -87Q130 -47 83 -22L51 -5L49 6L78 62Q89 81 101 81Q110 81 125 74Q200 33 200 -38Q200 -79 166 -125T50 -195ZM244 -195V-169Q324 -140 324 -87Q324 -47 277
-22L245 -5L243 6L272 62Q283 81 295 81Q304 81 319 74Q394 33 394 -38Q394 -79 360 -125T244 -195Z" />
<glyph unicode="&#x2022;" glyph-name="uni2022" horiz-adv-x="500" d="M250 150Q197 150 163 185T128 272Q128 324 162 358T250 393Q301 393 336 359T371 272Q371 220 336 185T250 150Z" />
<glyph unicode="&#x2039;" glyph-name="uni2039" horiz-adv-x="274" d="M229 70L26 247L229 424H248L142 247L248 70H229Z" />
<glyph unicode="&#x203a;" glyph-name="uni203A" horiz-adv-x="274" d="M26 70L132 247L26 424H45L248 247L45 70H26Z" />
</font>
</defs>
</svg>
