<?xml version="1.0" standalone="no"?>
<!DOCTYPE svg PUBLIC "-//W3C//DTD SVG 1.1//EN" "http://www.w3.org/Graphics/SVG/1.1/DTD/svg11.dtd">
<svg xmlns="http://www.w3.org/2000/svg">
<defs >
<font id="HindSiliguri" horiz-adv-x="514" ><font-face
    font-family="Hind Siliguri Light"
    units-per-em="1000"
    panose-1="2 0 0 0 0 0 0 0 0 0"
    ascent="1116"
    descent="-501"
    alphabetic="0" />
<glyph unicode=" " glyph-name="space" horiz-adv-x="220" />
<glyph unicode="!" glyph-name="exclam" horiz-adv-x="241" d="M151 196H90V674H151V196ZM171 42Q171 20 156 6T119 -8T83 6T69 42Q69 63 83 78T119 93Q141 93 156 78T171 42Z" />
<glyph unicode="&quot;" glyph-name="quotedbl" horiz-adv-x="271" d="M226 451H169V681H226V451ZM102 451H45V681H102V451Z" />
<glyph unicode="#" glyph-name="numbersign" horiz-adv-x="697" d="M436 0H377L414 174H224L187 0H130L166 174H55V225H177L224 449H114V500H235L271 674H330L293 500H483L520 674H577L541 500H642V449H530L483 225H585V174H472L436 0ZM425 225L472 449H282L235 225H425Z" />
<glyph unicode="$" glyph-name="dollar" horiz-adv-x="502" d="M255 -107H200V-5Q121 1 60 37V106Q90 83 137 68T234 53Q305 53 344 84T384 173Q384 200 373 221T339 258T293 285T236 311Q233 312 231 313T226 315T221 317Q184 333 161 346T111 381T71 432T58
500Q58 581 113 628T251 680V781H306V678Q367 671 408 650V581Q384 597 345 608T269 619Q202 619 162 588T122 504Q122 477 133 456T167 419T212 391T268 365Q279 361 285 358Q322 342 345 329T395 294T434 242T447 174Q447 91 394 45T255 -7V-107Z" />
<glyph unicode="%" glyph-name="percent" horiz-adv-x="814" d="M261 -1H200L552 654H614L261 -1ZM350 572T350 510T306 404T200 360T94 404T50 510T94 616T200 660T306 616ZM106 549T106 510T133 444T200 416T266 443T294 510T267 576T200 604T134 577ZM764 143Q764
81 720 37T614 -7T508 37T464 143T508 249T614 293T720 249T764 143ZM520 182T520 143T547 77T614 49T680 76T708 143T681 209T614 237T548 210Z" />
<glyph unicode="&amp;" glyph-name="ampersand" horiz-adv-x="693" d="M199 527Q199 493 216 461T286 374Q361 408 395 442T430 523Q430 568 400 599T312 631Q262 631 231 604T199 527ZM692 0H604L527 71Q448 -8 312 -8Q205 -8 137 42T69 174Q69 233 110 274T230
348Q177 404 156 444T134 528Q134 600 182 645T314 691Q393 691 443 642T494 522Q494 464 456 418T329 333L519 159Q543 201 549 259H610Q600 176 564 118L692 0ZM309 52Q417 52 482 112L272 307Q202 277 168 248T133 174Q133 118 182 85T309 52Z" />
<glyph unicode="&apos;" glyph-name="quotesingle" horiz-adv-x="147" d="M102 451H45V681H102V451Z" />
<glyph unicode="(" glyph-name="parenleft" horiz-adv-x="303" d="M310 -196H240Q80 8 80 262Q80 381 121 498T232 707H303Q145 490 145 257Q145 21 310 -196Z" />
<glyph unicode=")" glyph-name="parenright" horiz-adv-x="303" d="M63 -196H-7Q158 21 158 257Q158 490 0 707H71Q141 615 182 498T223 262Q223 8 63 -196Z" />
<glyph unicode="*" glyph-name="asterisk" horiz-adv-x="381" d="M305 398L265 368L208 446Q193 466 190 485Q188 466 173 445L116 368L75 397L132 475Q147 496 164 504Q160 503 151 503Q135 503 120 508L29 538L44 586L136 556Q161 547 173 535Q164 555 164 578V674H214V578Q214
554 207 537Q221 551 243 558L335 587L351 540L259 509Q244 504 226 504H218Q234 497 249 476L305 398Z" />
<glyph unicode="+" glyph-name="plus" horiz-adv-x="544" d="M484 312H296V120H239V312H60V368H239V560H296V368H484V312Z" />
<glyph unicode="," glyph-name="comma" horiz-adv-x="207" d="M46 -122H-8L83 92H173L46 -122Z" />
<glyph unicode="-" glyph-name="hyphen" horiz-adv-x="345" d="M285 243H60V298H285V243Z" />
<glyph unicode="." glyph-name="period" horiz-adv-x="142" d="M122 65T122 43T108 7T71 -8T35 6T20 43T34 79T71 94T107 80Z" />
<glyph unicode="/" glyph-name="slash" horiz-adv-x="387" d="M50 -102H-11L355 707H417L50 -102Z" />
<glyph unicode="0" glyph-name="zero" horiz-adv-x="543" d="M498 329Q498 177 438 85T269 -8Q169 -8 107 84T45 329T108 570T269 660Q371 660 434 571T498 329ZM108 329Q108 199 155 126T269 52Q344 52 389 124T435 329Q435 460 388 530T269 600Q205 600 157
529T108 329Z" />
<glyph unicode="1" glyph-name="one" horiz-adv-x="308" d="M228 0H167V587L20 495V564L167 654H228V0Z" />
<glyph unicode="2" glyph-name="two" horiz-adv-x="492" d="M447 0H40V55Q360 300 360 463Q360 531 322 566T218 602Q143 602 64 544V606Q132 660 220 660Q304 660 364 610T424 466Q424 292 127 55H447V0Z" />
<glyph unicode="3" glyph-name="three" horiz-adv-x="461" d="M406 180Q406 100 352 47T199 -6Q109 -6 40 27V89Q111 52 200 52Q267 52 305 88T343 182Q343 241 301 272T186 303H142V358H186Q242 358 282 392T322 485T287 572T189 602Q119 602 58 562V624Q112
660 188 660Q284 660 335 611T386 491Q386 377 282 332Q338 319 372 279T406 180Z" />
<glyph unicode="4" glyph-name="four" horiz-adv-x="534" d="M108 219H348V619L108 219ZM408 0H348V164H45V219L307 654H408V219H509V164H408V0Z" />
<glyph unicode="5" glyph-name="five" horiz-adv-x="512" d="M462 200Q462 104 400 48T231 -8Q135 -8 65 25V87Q129 50 221 50Q398 50 398 203Q398 266 356 300T250 334Q177 334 98 299V654H416V599H160V381Q209 392 247 392Q344 392 403 340T462 200Z" />
<glyph unicode="6" glyph-name="six" horiz-adv-x="523" d="M484 213Q484 113 429 53T285 -8Q176 -8 117 76T57 295Q57 400 88 484T188 622T350 675Q397 675 439 660V598Q398 617 349 617Q249 617 190 540T120 348Q152 382 198 401T290 421Q381 421 432 364T484
213ZM285 49Q347 49 383 95T420 215Q420 283 384 323T289 363Q239 363 193 341T117 284Q120 169 166 109T285 49Z" />
<glyph unicode="7" glyph-name="seven" horiz-adv-x="443" d="M158 0H92L368 599H10V654H433V599L158 0Z" />
<glyph unicode="8" glyph-name="eight" horiz-adv-x="533" d="M478 167Q478 88 416 40T263 -8Q176 -8 116 38T55 162Q55 224 89 266T183 325Q128 342 97 382T66 479Q66 564 125 612T263 660Q343 660 402 613T461 477Q461 424 431 384T346 327Q408 311 443 271T478
167ZM118 166Q118 117 156 84T264 50Q337 50 376 86T415 176Q415 227 378 262T264 297Q191 296 155 259T118 166ZM129 479Q129 417 167 386T267 355Q325 355 361 388T398 481Q398 533 363 567T263 602Q202 602 166 567T129 479Z" />
<glyph unicode="9" glyph-name="nine" horiz-adv-x="496" d="M251 293Q338 293 392 361V380Q392 423 385 460T362 531T315 584T240 604Q178 604 141 563T104 450Q104 374 143 334T251 293ZM452 380Q452 201 385 97T175 -8Q117 -8 63 11V73Q116 50 175 50Q364 50
388 298Q336 236 236 236Q158 236 99 294T40 450Q40 541 93 601T239 662Q347 662 399 581T452 380Z" />
<glyph unicode=":" glyph-name="colon" horiz-adv-x="222" d="M162 369Q162 347 147 333T110 319T74 333T60 369Q60 390 74 405T110 420Q132 420 147 405T162 369ZM162 49Q162 27 147 13T110 -1T74 13T60 49Q60 70 74 85T110 100Q132 100 147 85T162 49Z" />
<glyph unicode=";" glyph-name="semicolon" horiz-adv-x="207" d="M46 -122H-8L83 92H173L46 -122ZM171 368Q171 346 156 332T119 318T83 332T69 368Q69 389 83 404T119 419Q141 419 156 404T171 368Z" />
<glyph unicode="&lt;" glyph-name="less" horiz-adv-x="510" d="M460 185V120L60 311V371L460 562V497L127 342L460 185Z" />
<glyph unicode="=" glyph-name="equal" horiz-adv-x="544" d="M484 410H60V465H484V410ZM484 215H60V271H484V215Z" />
<glyph unicode="&gt;" glyph-name="greater" horiz-adv-x="510" d="M450 311L50 120V185L383 342L50 497V562L450 371V311Z" />
<glyph unicode="?" glyph-name="question" horiz-adv-x="450" d="M205 196H144V366Q238 366 292 399T346 500Q346 555 310 589T202 624Q120 624 40 573V638Q67 656 111 669T201 682Q297 682 353 634T410 499Q410 414 351 367T205 312V196ZM225 42Q225 20 210 6T173
-8T137 6T123 42Q123 63 137 78T173 93Q195 93 210 78T225 42Z" />
<glyph unicode="@" glyph-name="at" horiz-adv-x="886" d="M570 -123Q510 -155 400 -155Q246 -155 156 -58T65 195Q65 369 187 483T484 597Q633 597 734 505T836 260Q836 146 784 86T666 26Q580 26 557 106Q502 23 411 23Q339 23 298 73T256 199Q256 285 310 346T446
407Q526 407 564 345Q565 368 567 401H620L602 232Q599 204 599 177Q599 77 670 77Q716 77 747 128T779 257Q779 391 695 467T482 544Q341 544 234 446T127 196Q127 53 207 -23T402 -100Q503 -100 574 -58L570 -123ZM416 77Q458 77 496 106T552 187Q552 200 556
242Q548 296 522 324T443 352Q387 352 352 306T317 195Q317 142 344 110T416 77Z" />
<glyph unicode="A" glyph-name="A" horiz-adv-x="637" d="M204 284L189 242H450L435 285L321 622Q308 582 204 284ZM105 0H38L276 674H366L599 0H532L468 187H170L105 0Z" />
<glyph unicode="B" glyph-name="B" horiz-adv-x="562" d="M314 0H80V674H268Q370 674 433 628T497 499Q497 439 464 397T377 343Q434 336 475 294T517 179Q517 98 465 49T314 0ZM275 619H142V368H263Q350 368 391 405T432 501Q432 551 393 585T275 619ZM295 313H142V55H314Q379
55 415 87T452 181Q452 244 411 278T295 313Z" />
<glyph unicode="C" glyph-name="C" horiz-adv-x="599" d="M559 35Q498 -8 391 -8Q238 -8 144 85T50 341Q50 493 147 588T387 683Q486 683 557 647V582Q513 605 479 614T385 624Q269 624 192 546T114 341Q114 209 190 130T394 51Q493 51 559 103V35Z" />
<glyph unicode="D" glyph-name="D" horiz-adv-x="655" d="M277 0H80V674H272Q420 674 515 582T610 341Q610 250 575 175T463 50T277 0ZM272 617H142V57H277Q346 57 399 81T483 146T529 236T545 341Q545 456 469 536T272 617Z" />
<glyph unicode="E" glyph-name="E" horiz-adv-x="490" d="M445 0H80V674H439V617H142V365H404V308H142V57H445V0Z" />
<glyph unicode="F" glyph-name="F" horiz-adv-x="484" d="M404 303H142V0H80V674H439V617H142V360H404V303Z" />
<glyph unicode="G" glyph-name="G" horiz-adv-x="661" d="M591 50Q512 -8 391 -8Q237 -8 144 84T50 338Q50 490 141 588T373 686Q492 686 569 639V570Q492 624 381 624Q263 624 189 546T114 338Q114 205 188 130T392 54Q469 54 529 85V316H370V371H591V50Z" />
<glyph unicode="H" glyph-name="H" horiz-adv-x="632" d="M552 0H490V315H142V0H80V674H142V372H490V674H552V0Z" />
<glyph unicode="I" glyph-name="I" horiz-adv-x="232" d="M147 0H85V674H147V0Z" />
<glyph unicode="J" glyph-name="J" horiz-adv-x="349" d="M269 165Q269 0 122 0Q68 0 30 23V86Q70 59 116 59Q207 59 207 155V674H269V165Z" />
<glyph unicode="K" glyph-name="K" horiz-adv-x="549" d="M519 0H437L160 332L427 674H505L239 332L519 0ZM142 0H80V674H142V0Z" />
<glyph unicode="L" glyph-name="L" horiz-adv-x="474" d="M439 0H80V674H142V57H439V0Z" />
<glyph unicode="M" glyph-name="M" horiz-adv-x="848" d="M137 0H75L122 674H207L295 427L414 84Q483 274 540 427L632 674H717L774 0H712L689 267L662 593Q602 426 543 267L450 17H377L289 267L177 586Q168 435 156 267L137 0Z" />
<glyph unicode="N" glyph-name="N" horiz-adv-x="667" d="M142 0H80V674H165L337 389L527 73Q525 177 525 388V674H587V0H502L331 283L140 601Q142 493 142 285V0Z" />
<glyph unicode="O" glyph-name="O" horiz-adv-x="691" d="M641 340Q641 180 562 86T347 -8Q213 -8 132 87T50 340Q50 499 129 593T345 688Q485 688 563 595T641 340ZM114 340Q114 207 177 130T347 52Q457 52 517 128T577 340Q577 476 517 552T345 628Q237 628
176 552T114 340Z" />
<glyph unicode="P" glyph-name="P" horiz-adv-x="540" d="M253 256H142V0H80V674H242Q360 674 427 615T495 458Q495 374 430 315T253 256ZM249 619H142V311H260Q339 311 385 353T432 458Q432 532 384 575T249 619Z" />
<glyph unicode="Q" glyph-name="Q" horiz-adv-x="701" d="M641 340Q641 221 596 137T470 17L668 -111L603 -139L401 -4Q378 -8 347 -8Q213 -8 132 87T50 340Q50 499 129 593T345 688Q485 688 563 595T641 340ZM114 340Q114 207 177 130T347 52Q457 52 517 128T577
340Q577 476 517 552T345 628Q237 628 176 552T114 340Z" />
<glyph unicode="R" glyph-name="R" horiz-adv-x="531" d="M239 619H142V329H251Q325 329 365 370T405 472Q405 619 239 619ZM244 274H142V0H80V674H232Q350 674 408 621T467 469Q465 401 429 352T327 285L506 0H432L263 275Q257 274 244 274Z" />
<glyph unicode="S" glyph-name="S" horiz-adv-x="527" d="M462 174Q462 86 403 40T252 -7Q148 -7 75 37V106Q105 83 152 68T249 53Q320 53 359 84T399 173Q399 217 369 244T282 297Q274 301 247 312T209 329T175 346T142 367T115 391T92 421T79 456T73 500Q73
585 134 632T283 680Q367 680 423 650V581Q399 597 360 608T284 619Q217 619 177 588T137 504Q137 477 147 456T183 418T226 391T283 365Q318 350 336 342T382 315T424 280T450 235T462 174Z" />
<glyph unicode="T" glyph-name="T" horiz-adv-x="465" d="M450 617H263V0H201V617H15V674H450V617Z" />
<glyph unicode="U" glyph-name="U" horiz-adv-x="639" d="M559 255Q559 125 496 59T318 -8Q205 -8 143 57T80 247V674H142V248Q142 147 189 100T318 52Q497 52 497 253V674H559V255Z" />
<glyph unicode="V" glyph-name="V" horiz-adv-x="631" d="M354 0H269L40 674H107L196 407L312 55L432 407L524 674H591L354 0Z" />
<glyph unicode="W" glyph-name="W" horiz-adv-x="929" d="M300 0H215L40 674H105L168 424L259 63Q326 302 362 424L432 664H505L580 423L692 59Q747 315 771 422L827 674H889L736 0H651L584 213L470 583Q432 445 363 213L300 0Z" />
<glyph unicode="X" glyph-name="X" horiz-adv-x="600" d="M114 0H42L260 340L55 674H127L294 396L461 674H533L329 340L558 0H486L295 287L114 0Z" />
<glyph unicode="Y" glyph-name="Y" horiz-adv-x="580" d="M320 252V0H258V252L30 674H101L154 575L289 315Q297 334 426 575L479 674H550L320 252Z" />
<glyph unicode="Z" glyph-name="Z" horiz-adv-x="555" d="M505 0H50V55L420 619H54V674H490V619L120 55H505V0Z" />
<glyph unicode="[" glyph-name="bracketleft" horiz-adv-x="296" d="M296 -179H80V707H296V652H142V-123H296V-179Z" />
<glyph unicode="\" glyph-name="backslash" horiz-adv-x="386" d="M398 -103H336L-30 707H32L398 -103Z" />
<glyph unicode="]" glyph-name="bracketright" horiz-adv-x="296" d="M216 -179H0V-123H154V652H0V707H216V-179Z" />
<glyph unicode="^" glyph-name="asciicircum" horiz-adv-x="453" d="M112 332H48L188 594H270L405 332H341L228 558L112 332Z" />
<glyph unicode="_" glyph-name="underscore" horiz-adv-x="565" d="M535 -82H30V-27H535V-82Z" />
<glyph unicode="`" glyph-name="grave" horiz-adv-x="400" d="M293 648H238L110 798H191L293 648Z" />
<glyph unicode="a" glyph-name="a" horiz-adv-x="486" d="M223 51Q283 51 319 84T355 168V241H256Q185 241 150 214T115 145Q115 103 142 77T223 51ZM355 59Q313 -5 209 -5Q139 -5 95 36T50 143Q50 216 106 256T256 297H355V320Q355 388 326 422T229 457Q150 457
87 414V480Q145 515 230 515Q416 515 416 320V0H355V59Z" />
<glyph unicode="b" glyph-name="b" horiz-adv-x="559" d="M141 0H80V707H141V431Q197 515 296 515Q392 515 453 441T514 248Q514 141 457 67T298 -8Q194 -8 141 74V0ZM141 256Q141 145 188 98T300 50T407 105T450 247Q450 348 406 402T294 457Q270 457 246 448T197
417T157 354T141 256Z" />
<glyph unicode="c" glyph-name="c" horiz-adv-x="472" d="M417 17Q374 -12 306 -12Q183 -12 114 65T45 252Q45 358 115 437T306 516Q368 516 417 489V427Q372 457 312 457Q219 457 164 397T109 251Q109 165 162 106T313 47Q374 47 417 79V17Z" />
<glyph unicode="d" glyph-name="d" horiz-adv-x="555" d="M109 247Q109 160 151 105T259 50T371 97T418 256Q418 312 403 353T363 416T314 447T265 457Q197 457 153 403T109 247ZM479 0H418V74Q365 -8 261 -8Q159 -8 102 66T45 248Q45 366 106 440T263 515Q362
515 418 431V707H479V0Z" />
<glyph unicode="e" glyph-name="e" horiz-adv-x="519" d="M439 25Q379 -5 299 -5Q186 -5 116 65T45 251Q45 373 107 443T268 513Q361 513 416 452T471 280Q471 246 467 226H109Q116 142 167 98T302 53Q388 53 439 87V25ZM266 456Q202 456 159 411T109 282H408V305Q408
374 370 415T266 456Z" />
<glyph unicode="f" glyph-name="f" horiz-adv-x="325" d="M300 455H184V0H123V455H30V507H123V561Q123 630 159 671T260 712Q279 712 301 706V646Q280 654 257 654Q227 654 206 631T184 560V507H300V455Z" />
<glyph unicode="g" glyph-name="g" horiz-adv-x="539" d="M469 39Q469 -76 407 -133T247 -191Q160 -191 99 -162V-102Q161 -133 242 -133Q318 -133 363 -92T408 39V105Q357 12 256 12Q168 12 107 77T45 253Q45 367 101 441T250 515Q359 515 408 418V507H469V39ZM109
256Q109 165 155 118T257 70Q314 70 361 114T408 251Q408 356 363 406T262 457Q191 457 150 401T109 256Z" />
<glyph unicode="h" glyph-name="h" horiz-adv-x="529" d="M459 0H398V335Q398 394 368 425T289 456Q227 456 182 409T137 280V0H76V707H137V420Q183 515 298 515Q371 515 415 470T459 354V0Z" />
<glyph unicode="i" glyph-name="i" horiz-adv-x="221" d="M141 0H80V507H141V0ZM153 687T153 669T141 639T110 627T80 639T68 669T80 699T110 712T140 700Z" />
<glyph unicode="j" glyph-name="j" horiz-adv-x="216" d="M141 -64Q141 -126 110 -160T22 -194Q-11 -194 -47 -180V-120Q-12 -136 23 -136Q80 -136 80 -62V507H141V-64ZM152 687T152 669T140 639T109 627T79 639T67 669T79 699T109 712T139 700Z" />
<glyph unicode="k" glyph-name="k" horiz-adv-x="462" d="M137 0H76V707H137V0ZM226 266L440 0H364L152 266L358 507H433L226 266Z" />
<glyph unicode="l" glyph-name="l" horiz-adv-x="221" d="M141 0H80V707H141V0Z" />
<glyph unicode="m" glyph-name="m" horiz-adv-x="807" d="M737 0H676V335Q676 456 570 456Q518 456 478 408T437 280V0H376V335Q376 456 270 456Q218 456 178 408T137 280V0H76V507H137V424Q180 515 279 515Q401 515 429 415Q476 515 579 515Q659 515 698 471T737 354V0Z" />
<glyph unicode="n" glyph-name="n" horiz-adv-x="529" d="M459 0H398V335Q398 394 368 425T289 456Q227 456 182 409T137 280V0H76V507H137V420Q184 515 298 515Q371 515 415 470T459 354V0Z" />
<glyph unicode="o" glyph-name="o" horiz-adv-x="561" d="M516 251Q516 138 453 65T278 -9Q171 -9 108 65T45 251Q45 362 110 438T278 514Q391 514 453 440T516 251ZM109 251Q109 168 155 109T278 49Q361 49 406 107T452 251Q452 339 409 397T278 456Q199 456
154 396T109 251Z" />
<glyph unicode="p" glyph-name="p" horiz-adv-x="555" d="M137 -200H76V507H137V433Q190 515 294 515Q396 515 453 441T510 259Q510 141 449 67T292 -8Q193 -8 137 76V-200ZM137 251Q137 195 152 154T192 91T241 60T290 50Q358 50 402 104T446 260Q446 347 404
402T296 457T184 410T137 251Z" />
<glyph unicode="q" glyph-name="q" horiz-adv-x="555" d="M109 260Q109 159 153 105T265 50Q289 50 313 59T362 90T402 153T418 251Q418 362 371 409T259 457T152 402T109 260ZM479 -200H418V76Q362 -8 263 -8Q167 -8 106 66T45 259Q45 366 102 440T261 515Q365
515 418 433V507H479V-200Z" />
<glyph unicode="r" glyph-name="r" horiz-adv-x="314" d="M137 0H76V507H137V421Q179 513 279 513Q286 513 304 511V449Q284 455 264 455Q210 455 174 402T137 283V0Z" />
<glyph unicode="s" glyph-name="s" horiz-adv-x="406" d="M371 130Q371 67 328 31T208 -6Q116 -6 60 24V87Q127 49 204 49Q255 49 281 70T308 125Q308 165 281 187T190 234Q129 258 93 290T57 378Q57 439 102 475T215 512Q297 512 341 489V428Q294 455 214 455Q170
455 145 435T119 381Q119 361 126 346T152 319T184 300T226 282Q296 254 333 221T371 130Z" />
<glyph unicode="t" glyph-name="t" horiz-adv-x="364" d="M319 14Q290 -5 252 -5Q108 -5 108 143V455H25V507H108V634H170V507H315V455H170V140Q170 53 251 53Q291 53 319 76V14Z" />
<glyph unicode="u" glyph-name="u" horiz-adv-x="529" d="M453 0H392V91Q352 -7 231 -7Q157 -7 114 37T70 155V507H131V172Q131 114 161 83T242 52Q309 52 350 100T392 225V507H453V0Z" />
<glyph unicode="v" glyph-name="v" horiz-adv-x="497" d="M287 0H205L30 507H94L165 294L246 49Q256 86 329 294L403 507H467L287 0Z" />
<glyph unicode="w" glyph-name="w" horiz-adv-x="788" d="M267 0H185L30 507H97L147 339Q175 245 194 176T220 84L225 61Q243 126 305 340L353 507H425L475 340L557 59Q573 118 642 340L694 507H758L598 0H516L467 166L389 436Q372 373 314 166L267 0Z" />
<glyph unicode="x" glyph-name="x" horiz-adv-x="465" d="M96 0H27L194 261L37 508H109L233 308L356 508H427L268 260L438 0H365L232 213L96 0Z" />
<glyph unicode="y" glyph-name="y" horiz-adv-x="482" d="M279 13Q241 -90 189 -129T71 -168Q51 -168 33 -163V-103Q51 -108 67 -108Q174 -108 216 14L9 507H79L148 337L246 93Q253 116 333 337L395 507H463L279 13Z" />
<glyph unicode="z" glyph-name="z" horiz-adv-x="446" d="M401 0H45V51L311 448H55V507H387V461L117 60H401V0Z" />
<glyph unicode="{" glyph-name="braceleft" horiz-adv-x="322" d="M312 -178Q292 -185 270 -185Q219 -185 184 -147T148 -44Q148 -16 159 33T171 107Q171 210 82 232Q74 234 50 234V295Q71 295 82 297Q126 305 148 338T171 420Q171 444 160 493T148 571Q148 636
183 674T270 712Q292 712 312 705V643Q295 652 278 652Q245 652 229 630T212 573Q212 543 223 489T235 404Q235 350 205 312T112 264Q174 254 204 216T235 123Q235 92 224 38T212 -46Q212 -80 228 -102T278 -125Q296 -125 312 -116V-178Z" />
<glyph unicode="|" glyph-name="bar" horiz-adv-x="214" d="M134 -194H80V695H134V-194Z" />
<glyph unicode="}" glyph-name="braceright" horiz-adv-x="322" d="M174 -44Q174 -109 139 -147T52 -185Q30 -185 10 -178V-116Q26 -125 44 -125Q77 -125 93 -103T110 -46Q110 -16 99 38T87 123Q87 177 117 215T210 264Q148 274 118 312T87 404Q87 435 98 489T110
573Q110 607 94 629T44 652Q26 652 10 643V705Q30 712 52 712Q103 712 138 674T174 571Q174 543 163 494T151 420Q151 372 173 339T240 297Q251 295 272 295V234Q248 234 240 232Q151 210 151 107Q151 83 162 34T174 -44Z" />
<glyph unicode="~" glyph-name="asciitilde" horiz-adv-x="585" d="M197 276Q127 276 78 204L38 241Q103 332 190 332Q240 332 308 292T411 252Q467 252 499 312L546 280Q493 195 411 195Q366 195 295 235T197 276Z" />
<glyph unicode="&#xa1;" glyph-name="exclamdown" horiz-adv-x="241" d="M151 -165H90V313H151V-165ZM171 467Q171 446 156 431T119 416Q98 416 84 431T69 467Q69 489 83 503T119 517T156 503T171 467Z" />
<glyph unicode="&#xa2;" glyph-name="cent" horiz-adv-x="445" d="M405 11Q364 -6 327 -7V-111H272V-6Q167 7 109 80T50 252Q50 348 109 422T272 510V614H327V511Q364 509 405 492V430Q362 453 317 453Q224 453 169 394T114 251Q114 166 167 109T318 51Q366 51
405 73V11Z" />
<glyph unicode="&#xa3;" glyph-name="sterling" horiz-adv-x="517" d="M477 0H65V52Q127 80 149 122T171 249Q171 272 168 299H72V350H163Q154 436 154 457Q154 555 206 607T350 659Q403 659 451 635V573Q402 600 351 600Q214 600 214 463Q214 438 223 350H407V299H229Q231
265 231 250Q231 163 209 121T147 55H477V0Z" />
<glyph unicode="&#xa4;" glyph-name="currency" horiz-adv-x="536" d="M136 139L77 80L36 121L94 179Q54 233 54 309Q54 384 97 441L36 503L77 544L138 482Q196 526 272 526Q345 526 401 486L459 544L500 503L442 445Q482 389 482 316Q482 241 437 183L500 121L459
80L396 142Q340 100 264 100Q189 100 136 139ZM108 383T108 313T153 198T268 152T383 197T428 312T383 428T268 474T153 429Z" />
<glyph unicode="&#xa5;" glyph-name="yen" horiz-adv-x="572" d="M493 167H314V0H252V167H73V217H252V252L220 312H73V362H194L40 654H108L283 311L460 654H528L373 362H493V312H346L314 252V217H493V167Z" />
<glyph unicode="&#xa6;" glyph-name="brokenbar" horiz-adv-x="214" d="M134 366H80V695H134V366ZM134 -194H80V135H134V-194Z" />
<glyph unicode="&#xa7;" glyph-name="section" horiz-adv-x="489" d="M260 163Q320 137 348 121Q378 153 378 204Q378 248 347 276T259 329Q245 335 204 351T141 378Q112 349 112 302Q112 280 121 261T141 230T176 204T214 184T260 163ZM439 204Q439 131 396 85Q439
40 439 -26Q439 -114 380 -160T229 -207Q125 -207 52 -163V-94Q82 -117 129 -132T226 -147Q297 -147 336 -116T376 -27Q376 17 346 44T259 97Q251 101 224 112T186 129T152 146T119 167T92 191T69 221T56 256T50 300Q50 367 90 413Q50 451 50 510Q50 594 110 637T260
680Q344 680 400 650V581Q376 597 337 608T261 619Q192 619 153 592T114 514Q114 496 120 481T134 457T159 439T187 424T223 410T260 395Q295 380 313 372T359 345T401 310T427 265T439 204Z" />
<glyph unicode="&#xa8;" glyph-name="dieresis" horiz-adv-x="400" d="M335 726Q335 708 323 696T292 683Q274 683 262 695T249 726Q249 745 261 757T292 769Q311 769 323 757T335 726ZM151 726Q151 708 139 696T108 683Q89 683 77 695T65 726Q65 745 77 757T108
769Q126 769 138 757T151 726Z" />
<glyph unicode="&#xa9;" glyph-name="copyright" horiz-adv-x="780" d="M497 162Q467 140 416 140Q326 140 275 197T224 334Q224 412 275 470T416 529Q462 529 497 509V452Q463 475 420 475Q358 475 320 435T282 333Q282 274 320 234T420 194Q468 194 497 219V162ZM735
477T735 336T633 93T390 -9T147 93T45 336T147 579T390 682T633 580ZM104 454T104 336T188 134T391 49T593 133T678 336T594 539T391 624T189 539Z" />
<glyph unicode="&#xaa;" glyph-name="ordfeminine" horiz-adv-x="337" d="M145 437Q192 437 224 464T256 527V593H187Q53 593 53 513Q53 479 77 458T145 437ZM256 446Q208 388 134 388Q74 388 37 421T0 512Q0 574 47 608T175 643H256V661Q256 718 232 747T150
777Q83 777 31 741V794Q81 825 151 825Q307 825 307 661V392H256V446Z" />
<glyph unicode="&#xab;" glyph-name="guillemotleft" horiz-adv-x="450" d="M277 253L424 91H354L204 253L354 415H424L277 253ZM247 91H177L27 253L177 415H247L100 253L247 91Z" />
<glyph unicode="&#xac;" glyph-name="logicalnot" horiz-adv-x="535" d="M500 166H439V353H20V412H500V166Z" />
<glyph unicode="&#xad;" glyph-name="uni00AD" horiz-adv-x="345" d="M285 243H60V298H285V243Z" />
<glyph unicode="&#xae;" glyph-name="registered" horiz-adv-x="438" d="M196 482H155V690H214Q293 690 293 624Q293 581 258 566L310 482H262L217 558H196V482ZM219 656H196V591H222Q252 591 252 624Q252 656 219 656ZM428 670T428 579T369 430T219 371T69 429T10
579T69 729T219 788T369 729ZM55 653T55 579T100 460T220 414Q294 414 339 459T385 579T340 699T220 745Q145 745 100 699Z" />
<glyph unicode="&#xaf;" glyph-name="overscore" horiz-adv-x="400" d="M331 704H68V749H331V704Z" />
<glyph unicode="&#xb0;" glyph-name="degree" horiz-adv-x="332" d="M302 602T302 543T263 446T164 408T67 444T30 539T69 636T168 674T265 638ZM83 541Q83 505 107 480T168 455T226 479T249 541Q249 577 225 602T164 627T106 603T83 541Z" />
<glyph unicode="&#xb1;" glyph-name="plusminus" horiz-adv-x="544" d="M484 332H296V155H239V332H60V388H239V565H296V388H484V332ZM484 31H60V87H484V31Z" />
<glyph unicode="&#xb2;" glyph-name="twosuperior" horiz-adv-x="365" d="M325 392H50V433Q255 589 255 694Q255 736 233 756T174 777Q120 777 65 733V792Q119 825 172 825Q228 825 269 792T310 696Q310 638 260 570T128 438H325V392Z" />
<glyph unicode="&#xb3;" glyph-name="threesuperior" horiz-adv-x="318" d="M283 507Q283 454 247 421T145 388Q85 388 35 412V463Q85 436 145 436Q184 436 206 455T229 508Q229 545 202 565T128 586H101V632H128Q164 632 189 652T215 708Q215 777 137 777Q94
777 46 746V799Q87 825 136 825Q201 825 235 793T269 711Q269 631 191 611Q228 608 255 579T283 507Z" />
<glyph unicode="&#xb4;" glyph-name="acute" horiz-adv-x="400" d="M165 648H110L212 798H293L165 648Z" />
<glyph unicode="&#xb5;" glyph-name="uni00B5" horiz-adv-x="535" d="M137 -179H76V507H137V172Q137 115 176 84T268 52Q327 52 362 100T398 225V507H459V0H398V81Q362 -7 257 -7Q180 -7 137 41V-179Z" />
<glyph unicode="&#xb6;" glyph-name="paragraph" horiz-adv-x="533" d="M276 -148H216V347Q128 347 79 392T30 507Q30 574 79 624T215 674H276V-148ZM457 -148H397V674H457V-148Z" />
<glyph unicode="&#xb7;" glyph-name="middot" horiz-adv-x="222" d="M162 359T162 337T148 301T111 286T75 300T60 337T74 373T111 388T147 374Z" />
<glyph unicode="&#xb8;" glyph-name="cedilla" horiz-adv-x="400" d="M271 -121Q271 -173 234 -209T128 -248V-199Q215 -190 215 -126Q215 -89 192 -51H253Q271 -77 271 -121Z" />
<glyph unicode="&#xb9;" glyph-name="onesuperior" horiz-adv-x="242" d="M166 392H114V758L10 700V757L123 821H166V392Z" />
<glyph unicode="&#xba;" glyph-name="ordmasculine" horiz-adv-x="358" d="M368 702T368 606T318 448T177 386Q90 386 40 448T-10 606Q-10 699 41 763T177 827Q269 827 318 765ZM43 606Q43 534 80 484T177 434Q243 434 278 483T314 606Q314 681 281 730T177 779Q114
779 79 728T43 606Z" />
<glyph unicode="&#xbb;" glyph-name="guillemotright" horiz-adv-x="453" d="M423 253L273 91H203L350 253L203 415H273L423 253ZM96 91H26L173 253L26 415H96L246 253L96 91Z" />
<glyph unicode="&#xbc;" glyph-name="onequarter" horiz-adv-x="833" d="M211 0H150L606 712H668L211 0ZM236 282H184V648L80 590V647L193 711H236V282ZM518 144H663V386L518 144ZM713 0H663V102H465V144L638 429H713V144H778V102H713V0Z" />
<glyph unicode="&#xbd;" glyph-name="onehalf" horiz-adv-x="833" d="M211 0H150L606 712H668L211 0ZM236 282H184V648L80 590V647L193 711H236V282ZM787 0H512V41Q717 197 717 302Q717 344 695 364T636 385Q582 385 527 341V400Q581 433 634 433Q690 433 731
400T772 304Q772 246 722 178T590 46H787V0Z" />
<glyph unicode="&#xbe;" glyph-name="threequarters" horiz-adv-x="858" d="M268 0H207L663 712H725L268 0ZM333 397Q333 344 297 311T195 278Q135 278 85 302V353Q135 326 195 326Q234 326 256 345T279 398Q279 435 252 455T178 476H151V522H178Q214 522 239
542T265 598Q265 667 187 667Q144 667 96 636V689Q137 715 186 715Q251 715 285 683T319 601Q319 521 241 501Q278 498 305 469T333 397ZM575 144H720V386L575 144ZM770 0H720V102H522V144L695 429H770V144H835V102H770V0Z" />
<glyph unicode="&#xbf;" glyph-name="questiondown" horiz-adv-x="450" d="M410 -129Q383 -147 339 -160T249 -173Q153 -173 97 -125T40 10Q40 95 99 142T245 197V313H306V143Q212 143 158 110T104 9Q104 -46 140 -80T248 -115Q330 -115 410 -64V-129ZM327 467Q327
446 313 431T277 416Q255 416 240 431T225 467Q225 489 240 503T277 517T313 503T327 467Z" />
<glyph unicode="&#xc0;" glyph-name="Agrave" horiz-adv-x="637" d="M204 284L189 242H450L435 285L321 622Q308 582 204 284ZM105 0H38L276 674H366L599 0H532L468 187H170L105 0ZM341 729H286L158 879H239L341 729Z" />
<glyph unicode="&#xc1;" glyph-name="Aacute" horiz-adv-x="637" d="M204 284L189 242H450L435 285L321 622Q308 582 204 284ZM105 0H38L276 674H366L599 0H532L468 187H170L105 0ZM355 729H300L402 879H483L355 729Z" />
<glyph unicode="&#xc2;" glyph-name="Acircumflex" horiz-adv-x="637" d="M204 284L189 242H450L435 285L321 622Q308 582 204 284ZM105 0H38L276 674H366L599 0H532L468 187H170L105 0ZM235 729H171L290 879H353L472 729H408L321 836L235 729Z" />
<glyph unicode="&#xc3;" glyph-name="Atilde" horiz-adv-x="637" d="M204 284L189 242H450L435 285L321 622Q308 582 204 284ZM105 0H38L276 674H366L599 0H532L468 187H170L105 0ZM263 808Q221 808 196 759L160 789Q173 818 199 837T257 857Q285 857 328 834T390
811Q420 811 440 854L482 826Q452 762 393 762Q368 762 324 785T263 808Z" />
<glyph unicode="&#xc4;" glyph-name="Adieresis" horiz-adv-x="637" d="M204 284L189 242H450L435 285L321 622Q308 582 204 284ZM105 0H38L276 674H366L599 0H532L468 187H170L105 0ZM456 805Q456 787 444 775T413 762Q395 762 383 774T370 805Q370 824 382 836T413
848Q432 848 444 836T456 805ZM272 805Q272 787 260 775T229 762Q210 762 198 774T186 805Q186 824 198 836T229 848Q247 848 259 836T272 805Z" />
<glyph unicode="&#xc5;" glyph-name="Aring" horiz-adv-x="637" d="M204 284L189 242H450L435 285L321 622Q308 582 204 284ZM105 0H38L276 674H366L599 0H532L468 187H170L105 0ZM420 858T420 817T391 748T321 719T252 747T223 817T251 887T321 916T391 887ZM268
839T268 817T283 780T321 764T359 779T375 817Q375 840 360 855T321 871Q299 871 284 855Z" />
<glyph unicode="&#xc6;" glyph-name="AE" horiz-adv-x="863" d="M94 0H27L425 674H812V617H515V365H777V308H515V57H818V0H453V187H205L94 0ZM263 284L238 242H453V612Q389 496 263 284Z" />
<glyph unicode="&#xc7;" glyph-name="Ccedilla" horiz-adv-x="599" d="M559 35Q498 -8 391 -8Q238 -8 144 85T50 341Q50 493 147 588T387 683Q486 683 557 647V582Q513 605 479 614T385 624Q269 624 192 546T114 341Q114 209 190 130T394 51Q493 51 559 103V35ZM415
-121Q415 -173 378 -209T272 -248V-199Q359 -190 359 -126Q359 -89 336 -51H397Q415 -77 415 -121Z" />
<glyph unicode="&#xc8;" glyph-name="Egrave" horiz-adv-x="490" d="M445 0H80V674H439V617H142V365H404V308H142V57H445V0ZM313 728H258L130 878H211L313 728Z" />
<glyph unicode="&#xc9;" glyph-name="Eacute" horiz-adv-x="490" d="M445 0H80V674H439V617H142V365H404V308H142V57H445V0ZM305 729H250L352 879H433L305 729Z" />
<glyph unicode="&#xca;" glyph-name="Ecircumflex" horiz-adv-x="490" d="M445 0H80V674H439V617H142V365H404V308H142V57H445V0ZM187 729H123L242 879H305L424 729H360L273 836L187 729Z" />
<glyph unicode="&#xcb;" glyph-name="Edieresis" horiz-adv-x="490" d="M445 0H80V674H439V617H142V365H404V308H142V57H445V0ZM402 803Q402 785 390 773T359 760Q341 760 329 772T316 803Q316 822 328 834T359 846Q378 846 390 834T402 803ZM218 803Q218 785
206 773T175 760Q156 760 144 772T132 803Q132 822 144 834T175 846Q193 846 205 834T218 803Z" />
<glyph unicode="&#xcc;" glyph-name="Igrave" horiz-adv-x="232" d="M147 0H85V674H147V0ZM139 729H84L-44 879H37L139 729Z" />
<glyph unicode="&#xcd;" glyph-name="Iacute" horiz-adv-x="232" d="M147 0H85V674H147V0ZM148 729H93L195 879H276L148 729Z" />
<glyph unicode="&#xce;" glyph-name="Icircumflex" horiz-adv-x="232" d="M147 0H85V674H147V0ZM30 729H-34L85 879H148L267 729H203L116 836L30 729Z" />
<glyph unicode="&#xcf;" glyph-name="Idieresis" horiz-adv-x="232" d="M147 0H85V674H147V0ZM252 804Q252 786 240 774T209 761Q191 761 179 773T166 804Q166 823 178 835T209 847Q228 847 240 835T252 804ZM68 804Q68 786 56 774T25 761Q6 761 -6 773T-18 804Q-18
823 -6 835T25 847Q43 847 55 835T68 804Z" />
<glyph unicode="&#xd0;" glyph-name="Eth" horiz-adv-x="725" d="M347 0H150V313H60V366H150V674H342Q490 674 585 582T680 341Q680 250 645 175T533 50T347 0ZM396 313H212V57H347Q416 57 469 81T553 146T599 236T615 341Q615 456 539 536T342 617H212V366H396V313Z" />
<glyph unicode="&#xd1;" glyph-name="Ntilde" horiz-adv-x="667" d="M142 0H80V674H165L337 389L527 73Q525 177 525 388V674H587V0H502L331 283L140 601Q142 493 142 285V0ZM285 807Q243 807 218 758L182 788Q195 817 221 836T279 856Q307 856 350 833T412 810Q442
810 462 853L504 825Q474 761 415 761Q390 761 346 784T285 807Z" />
<glyph unicode="&#xd2;" glyph-name="Ograve" horiz-adv-x="691" d="M641 340Q641 180 562 86T347 -8Q213 -8 132 87T50 340Q50 499 129 593T345 688Q485 688 563 595T641 340ZM114 340Q114 207 177 130T347 52Q457 52 517 128T577 340Q577 476 517 552T345 628Q237
628 176 552T114 340ZM382 729H327L199 879H280L382 729Z" />
<glyph unicode="&#xd3;" glyph-name="Oacute" horiz-adv-x="691" d="M641 340Q641 180 562 86T347 -8Q213 -8 132 87T50 340Q50 499 129 593T345 688Q485 688 563 595T641 340ZM114 340Q114 207 177 130T347 52Q457 52 517 128T577 340Q577 476 517 552T345 628Q237
628 176 552T114 340ZM382 729H327L429 879H510L382 729Z" />
<glyph unicode="&#xd4;" glyph-name="Ocircumflex" horiz-adv-x="691" d="M641 340Q641 180 562 86T347 -8Q213 -8 132 87T50 340Q50 499 129 593T345 688Q485 688 563 595T641 340ZM114 340Q114 207 177 130T347 52Q457 52 517 128T577 340Q577 476 517 552T345
628Q237 628 176 552T114 340ZM267 729H203L322 879H385L504 729H440L353 836L267 729Z" />
<glyph unicode="&#xd5;" glyph-name="Otilde" horiz-adv-x="691" d="M641 340Q641 180 562 86T347 -8Q213 -8 132 87T50 340Q50 499 129 593T345 688Q485 688 563 595T641 340ZM114 340Q114 207 177 130T347 52Q457 52 517 128T577 340Q577 476 517 552T345 628Q237
628 176 552T114 340ZM290 809Q248 809 223 760L187 790Q200 819 226 838T284 858Q312 858 355 835T417 812Q447 812 467 855L509 827Q479 763 420 763Q395 763 351 786T290 809Z" />
<glyph unicode="&#xd6;" glyph-name="Odieresis" horiz-adv-x="691" d="M641 340Q641 180 562 86T347 -8Q213 -8 132 87T50 340Q50 499 129 593T345 688Q485 688 563 595T641 340ZM114 340Q114 207 177 130T347 52Q457 52 517 128T577 340Q577 476 517 552T345
628Q237 628 176 552T114 340ZM483 805Q483 787 471 775T440 762Q422 762 410 774T397 805Q397 824 409 836T440 848Q459 848 471 836T483 805ZM299 805Q299 787 287 775T256 762Q237 762 225 774T213 805Q213 824 225 836T256 848Q274 848 286 836T299 805Z" />
<glyph unicode="&#xd7;" glyph-name="multiply" horiz-adv-x="481" d="M412 210L372 170L240 301L108 170L68 210L200 341L63 476L103 516L240 381L377 517L417 477L280 341L412 210Z" />
<glyph unicode="&#xd8;" glyph-name="Oslash" horiz-adv-x="664" d="M633 340Q633 180 554 86T339 -8Q235 -8 158 53L112 -9H41L118 94Q42 187 42 340Q42 499 121 593T337 688Q444 688 518 630L562 688H634L560 589Q633 494 633 340ZM106 340Q106 222 157 146L481
580Q424 628 337 628Q229 628 168 552T106 340ZM339 52Q449 52 509 128T569 340Q569 461 520 536L196 103Q255 52 339 52Z" />
<glyph unicode="&#xd9;" glyph-name="Ugrave" horiz-adv-x="639" d="M559 255Q559 125 496 59T318 -8Q205 -8 143 57T80 247V674H142V248Q142 147 189 100T318 52Q497 52 497 253V674H559V255ZM349 729H294L166 879H247L349 729Z" />
<glyph unicode="&#xda;" glyph-name="Uacute" horiz-adv-x="639" d="M559 255Q559 125 496 59T318 -8Q205 -8 143 57T80 247V674H142V248Q142 147 189 100T318 52Q497 52 497 253V674H559V255ZM359 729H304L406 879H487L359 729Z" />
<glyph unicode="&#xdb;" glyph-name="Ucircumflex" horiz-adv-x="639" d="M559 255Q559 125 496 59T318 -8Q205 -8 143 57T80 247V674H142V248Q142 147 189 100T318 52Q497 52 497 253V674H559V255ZM236 729H172L291 879H354L473 729H409L322 836L236 729Z" />
<glyph unicode="&#xdc;" glyph-name="Udieresis" horiz-adv-x="639" d="M559 255Q559 125 496 59T318 -8Q205 -8 143 57T80 247V674H142V248Q142 147 189 100T318 52Q497 52 497 253V674H559V255ZM455 805Q455 787 443 775T412 762Q394 762 382 774T369 805Q369
824 381 836T412 848Q431 848 443 836T455 805ZM271 805Q271 787 259 775T228 762Q209 762 197 774T185 805Q185 824 197 836T228 848Q246 848 258 836T271 805Z" />
<glyph unicode="&#xdd;" glyph-name="Yacute" horiz-adv-x="580" d="M320 252V0H258V252L30 674H101L154 575L289 315Q297 334 426 575L479 674H550L320 252ZM335 728H280L382 878H463L335 728Z" />
<glyph unicode="&#xde;" glyph-name="Thorn" horiz-adv-x="529" d="M243 128H142V0H80V674H142V546H232Q356 546 420 487T485 330Q485 244 423 186T243 128ZM239 491H142V183H250Q335 183 378 224T422 330Q422 406 377 448T239 491Z" />
<glyph unicode="&#xdf;" glyph-name="germandbls" horiz-adv-x="526" d="M494 131Q494 71 451 32T330 -7Q284 -7 252 3V67Q289 50 333 50Q378 50 405 71T432 126Q432 153 417 176T379 217T335 253T297 297T281 352Q281 380 294 405T324 447T354 488T368 541Q368
582 338 606T260 631Q142 631 142 505V0H80V505Q80 598 130 644T265 690Q339 690 384 647T430 541Q430 495 409 461T368 402T347 356Q347 332 370 307T420 263T471 209T494 131Z" />
<glyph unicode="&#xe0;" glyph-name="agrave" horiz-adv-x="486" d="M223 51Q283 51 319 84T355 168V241H256Q185 241 150 214T115 145Q115 103 142 77T223 51ZM355 59Q313 -5 209 -5Q139 -5 95 36T50 143Q50 216 106 256T256 297H355V320Q355 388 326 422T229
457Q150 457 87 414V480Q145 515 230 515Q416 515 416 320V0H355V59ZM282 562H227L99 712H180L282 562Z" />
<glyph unicode="&#xe1;" glyph-name="aacute" horiz-adv-x="486" d="M223 51Q283 51 319 84T355 168V241H256Q185 241 150 214T115 145Q115 103 142 77T223 51ZM355 59Q313 -5 209 -5Q139 -5 95 36T50 143Q50 216 106 256T256 297H355V320Q355 388 326 422T229
457Q150 457 87 414V480Q145 515 230 515Q416 515 416 320V0H355V59ZM286 562H231L333 712H414L286 562Z" />
<glyph unicode="&#xe2;" glyph-name="acircumflex" horiz-adv-x="486" d="M223 51Q283 51 319 84T355 168V241H256Q185 241 150 214T115 145Q115 103 142 77T223 51ZM355 59Q313 -5 209 -5Q139 -5 95 36T50 143Q50 216 106 256T256 297H355V320Q355 388 326 422T229
457Q150 457 87 414V480Q145 515 230 515Q416 515 416 320V0H355V59ZM167 561H103L222 711H285L404 561H340L253 668L167 561Z" />
<glyph unicode="&#xe3;" glyph-name="atilde" horiz-adv-x="486" d="M223 51Q283 51 319 84T355 168V241H256Q185 241 150 214T115 145Q115 103 142 77T223 51ZM355 59Q313 -5 209 -5Q139 -5 95 36T50 143Q50 216 106 256T256 297H355V320Q355 388 326 422T229
457Q150 457 87 414V480Q145 515 230 515Q416 515 416 320V0H355V59ZM191 641Q149 641 124 592L88 622Q101 651 127 670T185 690Q213 690 256 667T318 644Q348 644 368 687L410 659Q380 595 321 595Q296 595 252 618T191 641Z" />
<glyph unicode="&#xe4;" glyph-name="adieresis" horiz-adv-x="486" d="M223 51Q283 51 319 84T355 168V241H256Q185 241 150 214T115 145Q115 103 142 77T223 51ZM355 59Q313 -5 209 -5Q139 -5 95 36T50 143Q50 216 106 256T256 297H355V320Q355 388 326 422T229
457Q150 457 87 414V480Q145 515 230 515Q416 515 416 320V0H355V59ZM384 634Q384 616 372 604T341 591Q323 591 311 603T298 634Q298 653 310 665T341 677Q360 677 372 665T384 634ZM200 634Q200 616 188 604T157 591Q138 591 126 603T114 634Q114 653 126 665T157
677Q175 677 187 665T200 634Z" />
<glyph unicode="&#xe5;" glyph-name="aring" horiz-adv-x="486" d="M223 51Q283 51 319 84T355 168V241H256Q185 241 150 214T115 145Q115 103 142 77T223 51ZM355 59Q313 -5 209 -5Q139 -5 95 36T50 143Q50 216 106 256T256 297H355V320Q355 388 326 422T229
457Q150 457 87 414V480Q145 515 230 515Q416 515 416 320V0H355V59ZM352 691T352 650T323 581T253 552T184 581T155 650Q155 691 183 720T253 749T323 720ZM200 672T200 650T215 613T253 597T291 612T307 650T292 688T253 704Q231 704 216 688Z" />
<glyph unicode="&#xe6;" glyph-name="ae" horiz-adv-x="822" d="M397 102Q377 53 329 24T214 -5Q144 -5 100 34T55 142Q55 216 112 257T264 298H360V320Q360 388 331 422T234 457Q153 457 92 415V478Q151 515 235 515Q367 515 404 420Q465 513 583 513Q680 513
731 451T782 275Q782 246 778 226H422Q429 142 481 98T611 53Q694 53 745 87V25Q685 -5 608 -5Q540 -5 484 24T397 102ZM119 144Q119 103 147 79T228 54Q283 54 321 88T360 178V239H278Q119 239 119 144ZM581 456Q518 456 474 412T422 282H719V305Q719 378 681
417T581 456Z" />
<glyph unicode="&#xe7;" glyph-name="ccedilla" horiz-adv-x="472" d="M417 17Q374 -12 306 -12Q183 -12 114 65T45 252Q45 358 115 437T306 516Q368 516 417 489V427Q372 457 312 457Q219 457 164 397T109 251Q109 165 162 106T313 47Q374 47 417 79V17ZM331
-121Q331 -173 294 -209T188 -248V-199Q275 -190 275 -126Q275 -89 252 -51H313Q331 -77 331 -121Z" />
<glyph unicode="&#xe8;" glyph-name="egrave" horiz-adv-x="519" d="M439 25Q379 -5 299 -5Q186 -5 116 65T45 251Q45 373 107 443T268 513Q361 513 416 452T471 280Q471 246 467 226H109Q116 142 167 98T302 53Q388 53 439 87V25ZM266 456Q202 456 159 411T109
282H408V305Q408 374 370 415T266 456ZM314 562H259L131 712H212L314 562Z" />
<glyph unicode="&#xe9;" glyph-name="eacute" horiz-adv-x="519" d="M439 25Q379 -5 299 -5Q186 -5 116 65T45 251Q45 373 107 443T268 513Q361 513 416 452T471 280Q471 246 467 226H109Q116 142 167 98T302 53Q388 53 439 87V25ZM266 456Q202 456 159 411T109
282H408V305Q408 374 370 415T266 456ZM313 562H258L360 712H441L313 562Z" />
<glyph unicode="&#xea;" glyph-name="ecircumflex" horiz-adv-x="519" d="M439 25Q379 -5 299 -5Q186 -5 116 65T45 251Q45 373 107 443T268 513Q361 513 416 452T471 280Q471 246 467 226H109Q116 142 167 98T302 53Q388 53 439 87V25ZM266 456Q202 456 159 411T109
282H408V305Q408 374 370 415T266 456ZM198 562H134L253 712H316L435 562H371L284 669L198 562Z" />
<glyph unicode="&#xeb;" glyph-name="edieresis" horiz-adv-x="519" d="M439 25Q379 -5 299 -5Q186 -5 116 65T45 251Q45 373 107 443T268 513Q361 513 416 452T471 280Q471 246 467 226H109Q116 142 167 98T302 53Q388 53 439 87V25ZM266 456Q202 456 159 411T109
282H408V305Q408 374 370 415T266 456ZM416 637Q416 619 404 607T373 594Q355 594 343 606T330 637Q330 656 342 668T373 680Q392 680 404 668T416 637ZM232 637Q232 619 220 607T189 594Q170 594 158 606T146 637Q146 656 158 668T189 680Q207 680 219 668T232
637Z" />
<glyph unicode="&#xec;" glyph-name="igrave" horiz-adv-x="221" d="M141 0H80V507H141V0ZM134 561H79L-49 711H32L134 561Z" />
<glyph unicode="&#xed;" glyph-name="iacute" horiz-adv-x="221" d="M141 0H80V507H141V0ZM144 562H89L191 712H272L144 562Z" />
<glyph unicode="&#xee;" glyph-name="icircumflex" horiz-adv-x="221" d="M141 0H80V507H141V0ZM25 562H-39L80 712H143L262 562H198L111 669L25 562Z" />
<glyph unicode="&#xef;" glyph-name="idieresis" horiz-adv-x="221" d="M141 0H80V507H141V0ZM246 639Q246 621 234 609T203 596Q185 596 173 608T160 639Q160 658 172 670T203 682Q222 682 234 670T246 639ZM62 639Q62 621 50 609T19 596Q0 596 -12 608T-24 639Q-24
658 -12 670T19 682Q37 682 49 670T62 639Z" />
<glyph unicode="&#xf0;" glyph-name="eth" horiz-adv-x="506" d="M461 264Q461 128 403 60T247 -9Q155 -9 97 53T39 202Q39 299 99 354T243 410Q339 410 398 337Q379 448 301 542L162 470V526L266 580Q201 642 132 674H240Q284 647 320 608L444 672V616L354 570Q461
434 461 264ZM247 49Q314 49 359 102T404 262Q342 350 240 350Q182 350 143 311T103 202Q103 131 143 90T247 49Z" />
<glyph unicode="&#xf1;" glyph-name="ntilde" horiz-adv-x="529" d="M459 0H398V335Q398 394 368 425T289 456Q227 456 182 409T137 280V0H76V507H137V420Q184 515 298 515Q371 515 415 470T459 354V0ZM219 640Q177 640 152 591L116 621Q129 650 155 669T213 689Q241
689 284 666T346 643Q376 643 396 686L438 658Q408 594 349 594Q324 594 280 617T219 640Z" />
<glyph unicode="&#xf2;" glyph-name="ograve" horiz-adv-x="561" d="M516 251Q516 138 453 65T278 -9Q171 -9 108 65T45 251Q45 362 110 438T278 514Q391 514 453 440T516 251ZM109 251Q109 168 155 109T278 49Q361 49 406 107T452 251Q452 339 409 397T278 456Q199
456 154 396T109 251ZM309 562H254L126 712H207L309 562Z" />
<glyph unicode="&#xf3;" glyph-name="oacute" horiz-adv-x="561" d="M516 251Q516 138 453 65T278 -9Q171 -9 108 65T45 251Q45 362 110 438T278 514Q391 514 453 440T516 251ZM109 251Q109 168 155 109T278 49Q361 49 406 107T452 251Q452 339 409 397T278 456Q199
456 154 396T109 251ZM319 562H264L366 712H447L319 562Z" />
<glyph unicode="&#xf4;" glyph-name="ocircumflex" horiz-adv-x="561" d="M516 251Q516 138 453 65T278 -9Q171 -9 108 65T45 251Q45 362 110 438T278 514Q391 514 453 440T516 251ZM109 251Q109 168 155 109T278 49Q361 49 406 107T452 251Q452 339 409 397T278
456Q199 456 154 396T109 251ZM197 561H133L252 711H315L434 561H370L283 668L197 561Z" />
<glyph unicode="&#xf5;" glyph-name="otilde" horiz-adv-x="561" d="M516 251Q516 138 453 65T278 -9Q171 -9 108 65T45 251Q45 362 110 438T278 514Q391 514 453 440T516 251ZM109 251Q109 168 155 109T278 49Q361 49 406 107T452 251Q452 339 409 397T278 456Q199
456 154 396T109 251ZM225 640Q183 640 158 591L122 621Q135 650 161 669T219 689Q247 689 290 666T352 643Q382 643 402 686L444 658Q414 594 355 594Q330 594 286 617T225 640Z" />
<glyph unicode="&#xf6;" glyph-name="odieresis" horiz-adv-x="561" d="M516 251Q516 138 453 65T278 -9Q171 -9 108 65T45 251Q45 362 110 438T278 514Q391 514 453 440T516 251ZM109 251Q109 168 155 109T278 49Q361 49 406 107T452 251Q452 339 409 397T278
456Q199 456 154 396T109 251ZM423 635Q423 617 411 605T380 592Q362 592 350 604T337 635Q337 654 349 666T380 678Q399 678 411 666T423 635ZM239 635Q239 617 227 605T196 592Q177 592 165 604T153 635Q153 654 165 666T196 678Q214 678 226 666T239 635Z" />
<glyph unicode="&#xf7;" glyph-name="divide" horiz-adv-x="544" d="M484 312H60V368H484V312ZM318 180T318 161T305 129T272 115T240 128T226 161T239 193T272 207T304 194ZM318 538T318 519T305 487T272 473T240 486T226 519T239 551T272 565T304 552Z" />
<glyph unicode="&#xf8;" glyph-name="oslash" horiz-adv-x="563" d="M533 251Q533 138 470 65T295 -9Q218 -9 163 31L133 -9H62L122 69Q62 141 62 251Q62 362 127 438T295 514Q375 514 431 475L461 514H533L473 436Q533 365 533 251ZM123 251Q123 176 160 120L397
430Q355 459 295 459Q215 459 169 399T123 251ZM295 46Q379 46 425 105T472 251Q472 334 437 388L199 78Q242 46 295 46Z" />
<glyph unicode="&#xf9;" glyph-name="ugrave" horiz-adv-x="529" d="M453 0H392V91Q352 -7 231 -7Q157 -7 114 37T70 155V507H131V172Q131 114 161 83T242 52Q309 52 350 100T392 225V507H453V0ZM292 561H237L109 711H190L292 561Z" />
<glyph unicode="&#xfa;" glyph-name="uacute" horiz-adv-x="529" d="M453 0H392V91Q352 -7 231 -7Q157 -7 114 37T70 155V507H131V172Q131 114 161 83T242 52Q309 52 350 100T392 225V507H453V0ZM296 562H241L343 712H424L296 562Z" />
<glyph unicode="&#xfb;" glyph-name="ucircumflex" horiz-adv-x="529" d="M453 0H392V91Q352 -7 231 -7Q157 -7 114 37T70 155V507H131V172Q131 114 161 83T242 52Q309 52 350 100T392 225V507H453V0ZM177 562H113L232 712H295L414 562H350L263 669L177 562Z" />
<glyph unicode="&#xfc;" glyph-name="udieresis" horiz-adv-x="529" d="M453 0H392V91Q352 -7 231 -7Q157 -7 114 37T70 155V507H131V172Q131 114 161 83T242 52Q309 52 350 100T392 225V507H453V0ZM401 635Q401 617 389 605T358 592Q340 592 328 604T315 635Q315
654 327 666T358 678Q377 678 389 666T401 635ZM217 635Q217 617 205 605T174 592Q155 592 143 604T131 635Q131 654 143 666T174 678Q192 678 204 666T217 635Z" />
<glyph unicode="&#xfd;" glyph-name="yacute" horiz-adv-x="482" d="M279 13Q241 -90 189 -129T71 -168Q51 -168 33 -163V-103Q51 -108 67 -108Q174 -108 216 14L9 507H79L148 337L246 93Q253 116 333 337L395 507H463L279 13ZM277 562H222L324 712H405L277 562Z" />
<glyph unicode="&#xfe;" glyph-name="thorn" horiz-adv-x="555" d="M137 -200H76V707H137V433Q190 515 294 515Q396 515 453 441T510 259Q510 141 449 67T292 -8Q193 -8 137 76V-200ZM137 251Q137 195 152 154T192 91T241 60T290 50Q358 50 402 104T446 260Q446
347 404 402T296 457T184 410T137 251Z" />
<glyph unicode="&#xff;" glyph-name="ydieresis" horiz-adv-x="482" d="M279 13Q241 -90 189 -129T71 -168Q51 -168 33 -163V-103Q51 -108 67 -108Q174 -108 216 14L9 507H79L148 337L246 93Q253 116 333 337L395 507H463L279 13ZM385 635Q385 617 373 605T342
592Q324 592 312 604T299 635Q299 654 311 666T342 678Q361 678 373 666T385 635ZM201 635Q201 617 189 605T158 592Q139 592 127 604T115 635Q115 654 127 666T158 678Q176 678 188 666T201 635Z" />
<glyph unicode="&#x2013;" glyph-name="endash" horiz-adv-x="536" d="M476 243H60V298H476V243Z" />
<glyph unicode="&#x2014;" glyph-name="emdash" horiz-adv-x="819" d="M759 245H60V300H759V245Z" />
<glyph unicode="&#x2018;" glyph-name="quoteleft" horiz-adv-x="157" d="M88 481H7L122 695H167L88 481Z" />
<glyph unicode="&#x2019;" glyph-name="quoteright" horiz-adv-x="158" d="M53 481H8L87 695H168L53 481Z" />
<glyph unicode="&#x201a;" glyph-name="quotesinglbase" horiz-adv-x="158" d="M49 -122H4L83 92H164L49 -122Z" />
<glyph unicode="&#x201c;" glyph-name="quotedblleft" horiz-adv-x="290" d="M89 481H8L123 695H168L89 481ZM221 481H140L255 695H300L221 481Z" />
<glyph unicode="&#x201d;" glyph-name="quotedblright" horiz-adv-x="289" d="M53 481H8L87 695H168L53 481ZM185 481H140L219 695H300L185 481Z" />
<glyph unicode="&#x201e;" glyph-name="quotedblbase" horiz-adv-x="289" d="M49 -122H4L83 92H164L49 -122ZM181 -122H136L215 92H296L181 -122Z" />
<glyph unicode="&#x2022;" glyph-name="bullet" horiz-adv-x="455" d="M360 412T360 356T322 262T228 223Q171 223 133 261T95 356T132 451T227 489Q283 489 321 451Z" />
<glyph unicode="&#x2039;" glyph-name="guilsinglleft" horiz-adv-x="280" d="M103 253L250 91H180L30 253L180 415H250L103 253Z" />
<glyph unicode="&#x203a;" glyph-name="guilsinglright" horiz-adv-x="277" d="M250 253L100 91H30L177 253L30 415H100L250 253Z" />
</font>
</defs>
</svg>
