<?xml version="1.0" standalone="no"?>
<!DOCTYPE svg PUBLIC "-//W3C//DTD SVG 1.1//EN" "http://www.w3.org/Graphics/SVG/1.1/DTD/svg11.dtd">
<svg xmlns="http://www.w3.org/2000/svg">
<defs >
<font id="Kanit" horiz-adv-x="562" ><font-face
    font-family="Kanit Medium"
    units-per-em="1000"
    panose-1="0 0 6 0 0 0 0 0 0 0"
    ascent="1100"
    descent="-395"
    alphabetic="0" />
<glyph unicode=" " glyph-name="space" horiz-adv-x="360" />
<glyph unicode="!" glyph-name="exclam" horiz-adv-x="216" d="M41 479V644H176V479L170 169H47L41 479ZM37 99H179V0H37V99Z" />
<glyph unicode="&quot;" glyph-name="quotedbl" horiz-adv-x="361" d="M37 644H151L137 443H37V644ZM210 644H324L310 443H210V644Z" />
<glyph unicode="#" glyph-name="numbersign" horiz-adv-x="705" d="M114 165H37V254H142L184 390H81V480H212L264 644H381L329 480H478L530 644H647L595 480H668V390H567L524 254H624V165H496L444 0H328L380 165H230L178 0H62L114 165ZM408 254L450 390H301L258 254H408Z" />
<glyph unicode="$" glyph-name="dollar" horiz-adv-x="555" d="M232 -9Q117 -6 49 25V144Q90 127 138 116T232 104V279L220 283Q119 311 78 353T37 469Q37 547 86 593T232 651V730H331V653Q424 647 480 627V508Q405 535 331 538V372Q436 342 477 295T518 176Q518
103 471 56T331 -5V-86H232V-9ZM232 532Q174 519 174 469Q174 443 186 429T232 401V532ZM356 118T368 133T380 176Q380 202 369 218T331 247V111Q356 118 368 133Z" />
<glyph unicode="%" glyph-name="percent" horiz-adv-x="742" d="M112 355T75 394T37 498Q37 571 74 612T182 654Q253 654 290 613T327 498Q327 433 290 394T182 355Q112 355 75 394ZM476 644H604L264 0H137L476 644ZM248 432T248 500Q248 540 232 558T182 576Q148
576 133 558T117 500Q117 432 182 432Q248 432 248 500ZM490 -10T453 29T415 133Q415 206 452 247T560 289Q631 289 668 248T705 133Q705 68 668 29T560 -10Q490 -10 453 29ZM626 67T626 135Q626 175 610 193T560 211Q526 211 511 193T495 135Q495 67 560 67Q626
67 626 135Z" />
<glyph unicode="&amp;" glyph-name="ampersand" horiz-adv-x="676" d="M485 62Q451 27 397 9T276 -10Q167 -10 102 36T37 162Q37 226 73 272T181 359Q140 400 121 430T102 501Q102 569 150 611T281 654Q363 654 411 613T460 501Q460 452 437 416T362 343L500 202Q514
230 514 268V288H616V265Q616 228 605 192T576 129L641 63L558 -12L485 62ZM317 422T334 442T351 495Q351 527 334 545T282 564Q247 564 229 545T211 495Q211 466 226 446T277 397Q317 422 334 442ZM318 83T351 96T403 135L262 278Q213 256 190 230T167 165Q167
126 197 105T276 83Q318 83 351 96Z" />
<glyph unicode="&apos;" glyph-name="quotesingle" horiz-adv-x="188" d="M37 644H151L137 443H37V644Z" />
<glyph unicode="(" glyph-name="parenleft" horiz-adv-x="340" d="M102 -10T70 89T37 303Q37 417 69 516T169 678H322Q174 547 174 303Q174 59 322 -72H169Q102 -10 70 89Z" />
<glyph unicode=")" glyph-name="parenright" horiz-adv-x="340" d="M95 -4T130 90T165 303Q165 548 17 678H171Q237 616 269 517T302 303Q302 189 270 90T171 -72H17Q95 -4 130 90Z" />
<glyph unicode="*" glyph-name="asterisk" horiz-adv-x="436" d="M63 369L148 460L37 506L78 589L172 541L167 644H269L264 541L358 589L398 506L287 460L372 369L294 312L218 414L141 312L63 369Z" />
<glyph unicode="+" glyph-name="plus" horiz-adv-x="470" d="M182 219H42V324H182V461H288V324H428V219H288V85H182V219Z" />
<glyph unicode="," glyph-name="comma" horiz-adv-x="221" d="M68 81H184L134 -120H37L68 81Z" />
<glyph unicode="-" glyph-name="hyphen" horiz-adv-x="460" d="M37 324H423V219H37V324Z" />
<glyph unicode="." glyph-name="period" horiz-adv-x="184" d="M37 101H147V0H37V101Z" />
<glyph unicode="/" glyph-name="slash" horiz-adv-x="446" d="M271 662H409L175 0H37L271 662Z" />
<glyph unicode="0" glyph-name="zero" horiz-adv-x="656" d="M174 -26T106 60T37 314Q37 482 105 568T328 654Q482 654 550 568T619 314Q619 146 551 60T328 -26Q174 -26 106 60ZM412 90T447 145T482 314Q482 427 447 482T328 538Q244 538 209 483T174 314Q174
201 209 146T328 90Q412 90 447 145Z" />
<glyph unicode="1" glyph-name="one" horiz-adv-x="334" d="M142 522L37 505V618L277 654V0H142V522Z" />
<glyph unicode="2" glyph-name="two" horiz-adv-x="513" d="M37 65Q61 117 100 160T204 262L230 285Q277 328 296 348T324 390T333 445Q333 491 303 514T215 538Q138 538 60 507V626Q97 639 147 646T245 654Q355 654 412 600T470 448Q470 387 441 341T353 244L337
230Q292 191 263 163T213 104H476V0H37V65Z" />
<glyph unicode="3" glyph-name="three" horiz-adv-x="524" d="M184 -10T127 -1T37 21V139Q114 106 209 106Q282 106 315 126T349 197Q349 239 320 257T231 276H130L140 375H224Q282 375 309 394T336 456Q336 498 305 518T208 539Q166 539 124 531T48 507V622Q81
636 131 645T231 654Q348 654 410 605T473 475Q473 425 451 385T385 326Q436 311 461 274T486 183Q486 87 417 39T229 -10Q184 -10 127 -1Z" />
<glyph unicode="4" glyph-name="four" horiz-adv-x="545" d="M329 135H17V227L346 644H464V244H527V135H464V0H329V135ZM352 239V495L146 239H352Z" />
<glyph unicode="5" glyph-name="five" horiz-adv-x="518" d="M180 -10T127 -2T40 21V138Q74 123 121 115T208 106Q278 106 310 128T343 203Q343 252 319 273T231 294H37V370L54 644H437L427 540H169L160 398H257Q372 398 426 348T480 198Q480 101 416 46T227 -10Q180
-10 127 -2Z" />
<glyph unicode="6" glyph-name="six" horiz-adv-x="578" d="M163 -10T100 52T37 243V381Q37 461 71 523T170 619T321 654Q370 654 407 648T479 630V514Q416 539 330 539Q249 539 207 504T164 408V377Q195 399 237 411T318 423Q431 423 486 368T541 209Q541 108
479 49T290 -10Q163 -10 100 52ZM354 90T387 120T420 204Q420 262 391 291T293 320Q261 320 227 308T164 277V216Q164 90 291 90Q354 90 387 120Z" />
<glyph unicode="7" glyph-name="seven" horiz-adv-x="498" d="M322 540H27V644H470V561L233 0H93L322 540Z" />
<glyph unicode="8" glyph-name="eight" horiz-adv-x="597" d="M37 -10T37 179Q37 232 64 273T141 333Q98 352 76 387T54 466Q54 554 115 604T298 654Q423 654 482 605T542 466Q542 420 520 383T452 326Q559 288 559 179Q559 -10 298 -10Q37 -10 37 179ZM373 380T393
401T414 463Q414 507 386 527T298 548Q239 548 211 528T182 463Q182 428 200 408T258 380L324 367Q373 380 393 401ZM366 95T398 115T431 181Q431 221 410 239T337 269L260 285Q213 274 189 252T165 185Q165 137 197 116T298 95Q366 95 398 115Z" />
<glyph unicode="9" glyph-name="nine" horiz-adv-x="578" d="M208 -10T171 -4T99 14V130Q162 105 248 105Q329 105 371 140T414 236V267Q383 245 341 233T260 221Q147 221 92 276T37 435Q37 536 99 595T288 654Q415 654 478 592T541 401V263Q541 183 507 121T408
25T257 -10Q208 -10 171 -4ZM317 324T351 336T414 367V428Q414 554 287 554Q224 554 191 524T158 440Q158 382 187 353T285 324Q317 324 351 336Z" />
<glyph unicode=":" glyph-name="colon" horiz-adv-x="185" d="M37 426H147V323H37V426ZM37 126H147V23H37V126Z" />
<glyph unicode=";" glyph-name="semicolon" horiz-adv-x="222" d="M72 426H182V323H72V426ZM68 81H184L134 -120H37L68 81Z" />
<glyph unicode="&lt;" glyph-name="less" horiz-adv-x="542" d="M37 248V359L505 570V444L180 304L505 163V37L37 248Z" />
<glyph unicode="=" glyph-name="equal" horiz-adv-x="464" d="M37 400H426V306H37V400ZM37 236H426V141H37V236Z" />
<glyph unicode="&gt;" glyph-name="greater" horiz-adv-x="542" d="M37 163L362 304L37 444V570L505 359V248L37 37V163Z" />
<glyph unicode="?" glyph-name="question" horiz-adv-x="497" d="M143 190Q143 223 157 249T190 295T242 342Q283 375 302 398T322 453Q322 500 293 519T193 538Q154 538 111 528T37 502V616Q73 634 123 644T229 654Q341 654 400 605T459 467Q459 414 437 381T366
307Q360 303 331 279T290 233T278 185V170H143V190ZM139 99H281V0H139V99Z" />
<glyph unicode="@" glyph-name="at" horiz-adv-x="761" d="M226 -132T132 -55T37 188Q37 358 132 441T400 525Q555 525 639 454T723 254Q723 156 675 103T530 50H485Q435 3 343 3Q285 3 249 31T212 115Q212 231 359 231H472V255Q472 294 452 310T376 326Q317 326
257 307V364Q283 375 320 381T397 387Q479 387 515 354T552 246V118Q591 118 610 149T630 248Q630 447 400 447Q266 447 199 384T131 187Q131 -55 387 -55Q497 -55 560 -36V-114Q484 -132 389 -132Q226 -132 132 -55ZM406 60T429 71T472 105V177H379Q335 177 318
162T300 116Q300 86 318 73T373 60Q406 60 429 71Z" />
<glyph unicode="A" glyph-name="A" horiz-adv-x="713" d="M283 644H431L676 0H536L475 155H238L178 0H37L283 644ZM455 259L356 518L258 259H455Z" />
<glyph unicode="B" glyph-name="B" horiz-adv-x="636" d="M57 644H383Q479 644 527 599T575 470Q575 420 556 385T501 330Q549 315 574 282T599 188Q599 95 547 48T395 0H57V644ZM358 377Q449 377 449 459Q449 503 427 523T348 544H192V377H358ZM363 99Q415 99
438 120T462 194Q462 238 438 258T354 279H192V99H363Z" />
<glyph unicode="C" glyph-name="C" horiz-adv-x="600" d="M211 -10T124 76T37 316Q37 478 121 566T370 654Q474 654 562 622V504Q477 539 380 539Q271 539 223 485T174 316Q174 209 225 157T382 104Q480 104 563 138V19Q474 -10 371 -10Q211 -10 124 76Z" />
<glyph unicode="D" glyph-name="D" horiz-adv-x="656" d="M57 644H327Q475 644 547 568T619 319Q619 155 547 78T327 0H57V644ZM308 104Q369 104 406 122T462 187T482 319Q482 405 465 451T410 514T308 532H192V104H308Z" />
<glyph unicode="E" glyph-name="E" horiz-adv-x="556" d="M57 644H519V539H192V374H482V270H192V104H519V0H57V644Z" />
<glyph unicode="F" glyph-name="F" horiz-adv-x="527" d="M57 644H510V539H192V374H473V270H192V0H57V644Z" />
<glyph unicode="G" glyph-name="G" horiz-adv-x="644" d="M207 -10T122 74T37 311Q37 473 123 563T375 654Q485 654 569 627V511Q491 539 385 539Q272 539 223 484T174 311Q174 104 369 104Q436 104 493 124V274H343V360H607V45Q569 21 509 6T367 -10Q207 -10 122 74Z" />
<glyph unicode="H" glyph-name="H" horiz-adv-x="665" d="M57 644H192V374H473V644H608V0H473V270H192V0H57V644Z" />
<glyph unicode="I" glyph-name="I" horiz-adv-x="249" d="M57 644H192V0H57V644Z" />
<glyph unicode="J" glyph-name="J" horiz-adv-x="436" d="M80 -10T17 13V127Q67 105 134 105Q196 105 222 130T249 214V644H384V184Q384 -10 161 -10Q80 -10 17 13Z" />
<glyph unicode="K" glyph-name="K" horiz-adv-x="644" d="M57 644H192V371L440 644H595L362 383L607 0H463L278 297L192 204V0H57V644Z" />
<glyph unicode="L" glyph-name="L" horiz-adv-x="526" d="M57 644H192V104H509V0H57V644Z" />
<glyph unicode="M" glyph-name="M" horiz-adv-x="763" d="M57 644H193L382 257L571 644H706V0H571V419L421 111H343L192 419V0H57V644Z" />
<glyph unicode="N" glyph-name="N" horiz-adv-x="671" d="M57 644H174L479 215V644H614V0H497L192 429V0H57V644Z" />
<glyph unicode="O" glyph-name="O" horiz-adv-x="700" d="M37 -10T37 319Q37 493 114 573T350 654Q508 654 585 574T663 319Q663 -10 350 -10Q37 -10 37 319ZM440 105T483 157T526 319Q526 438 484 488T350 539Q258 539 216 489T174 319Q174 210 217 158T350 105Q440
105 483 157Z" />
<glyph unicode="P" glyph-name="P" horiz-adv-x="598" d="M57 644H359Q468 644 524 583T580 422Q580 357 553 307T474 230T355 202H192V0H57V644ZM327 309Q384 309 414 339T444 422Q444 478 416 507T332 537H192V309H327Z" />
<glyph unicode="Q" glyph-name="Q" horiz-adv-x="700" d="M362 -172T324 -130T283 -6Q37 27 37 319Q37 493 114 573T350 654Q508 654 585 574T663 319Q663 16 398 -8Q399 -47 416 -61T472 -76Q510 -76 543 -65V-159Q525 -164 497 -168T441 -172Q362 -172 324 -130ZM440
105T483 157T526 319Q526 438 484 488T350 539Q258 539 216 489T174 319Q174 210 217 158T350 105Q440 105 483 157Z" />
<glyph unicode="R" glyph-name="R" horiz-adv-x="618" d="M57 644H366Q474 644 527 587T581 428Q581 363 548 316T453 248Q468 235 477 221T498 180L576 0H436L360 173Q350 196 338 204T298 213H192V0H57V644ZM331 325Q386 325 415 349T444 428Q444 482 418 507T339
532H192V325H331Z" />
<glyph unicode="S" glyph-name="S" horiz-adv-x="555" d="M128 -10T49 25V144Q94 126 145 115T244 104Q319 104 349 118T380 176Q380 205 366 222T320 251T220 283Q119 311 78 353T37 469Q37 558 102 606T291 654Q347 654 397 647T480 627V508Q398 539 309 539Q241
539 208 524T174 469Q174 444 186 429T228 403T320 375Q432 345 475 298T518 176Q518 89 452 40T257 -10Q128 -10 49 25Z" />
<glyph unicode="T" glyph-name="T" horiz-adv-x="564" d="M215 540H17V644H547V540H350V0H215V540Z" />
<glyph unicode="U" glyph-name="U" horiz-adv-x="679" d="M205 -10T129 55T52 242V644H187V252Q187 179 226 142T340 105Q414 105 453 142T492 252V644H627V242Q627 121 551 56T340 -10Q205 -10 129 55Z" />
<glyph unicode="V" glyph-name="V" horiz-adv-x="713" d="M37 644H178L356 151L535 644H676L431 0H283L37 644Z" />
<glyph unicode="W" glyph-name="W" horiz-adv-x="875" d="M37 644H170L267 209L372 560V644H482L606 208L706 644H838L689 0H561L443 412L316 0H187L37 644Z" />
<glyph unicode="X" glyph-name="X" horiz-adv-x="702" d="M270 323L43 644H202L351 429L500 644H659L432 323L665 0H504L351 215L198 0H37L270 323Z" />
<glyph unicode="Y" glyph-name="Y" horiz-adv-x="671" d="M268 238L37 644H178L336 353L494 644H634L403 238V0H268V238Z" />
<glyph unicode="Z" glyph-name="Z" horiz-adv-x="579" d="M37 70L361 532H53V644H537V562L216 104H542V0H37V70Z" />
<glyph unicode="[" glyph-name="bracketleft" horiz-adv-x="359" d="M37 706H327L331 601H172V5H332L328 -99H37V706Z" />
<glyph unicode="\" glyph-name="backslash" horiz-adv-x="467" d="M37 662H177L429 -54H290L37 662Z" />
<glyph unicode="]" glyph-name="bracketright" horiz-adv-x="359" d="M27 5H187V601H28L32 706H322V-99H31L27 5Z" />
<glyph unicode="^" glyph-name="asciicircum" horiz-adv-x="493" d="M196 624H291L455 382H330L246 526L163 382H37L196 624Z" />
<glyph unicode="_" glyph-name="underscore" horiz-adv-x="533" d="M37 0H496V-90H37V0Z" />
<glyph unicode="`" glyph-name="grave" horiz-adv-x="277" d="M39 709H156L236 522H127L39 709Z" />
<glyph unicode="a" glyph-name="a" horiz-adv-x="554" d="M134 -10T86 28T37 137Q37 208 87 249T233 291H373V304Q373 334 363 351T326 376T250 384Q169 384 94 359V454Q129 468 176 476T278 484Q502 484 502 301V0H385L378 43Q320 -10 206 -10Q134 -10 86 28ZM286
79T319 93T373 132V207H236Q157 207 157 142Q157 79 243 79Q286 79 319 93Z" />
<glyph unicode="b" glyph-name="b" horiz-adv-x="590" d="M287 -10T250 3T181 44L174 0H57V674H192V448Q251 484 332 484Q438 484 495 425T553 241Q553 116 496 53T336 -10Q287 -10 250 3ZM361 89T388 126T416 241Q416 319 388 352T297 385Q265 385 238 376T192
350V132Q211 111 239 100T298 89Q361 89 388 126Z" />
<glyph unicode="c" glyph-name="c" horiz-adv-x="497" d="M172 -10T105 53T37 237Q37 359 108 421T303 484Q353 484 389 477T459 454V357Q405 383 330 383Q251 383 213 350T174 237Q174 160 210 126T329 91Q403 91 460 119V19Q393 -10 299 -10Q172 -10 105 53Z" />
<glyph unicode="d" glyph-name="d" horiz-adv-x="590" d="M154 -10T96 45T37 223Q37 305 67 364T149 453T265 484Q343 484 398 448V674H533V0H417L409 44Q378 17 341 4T255 -10Q154 -10 96 45ZM325 89T350 99T398 132V348Q356 385 300 385Q238 385 206 344T174
223Q174 150 203 120T292 89Q325 89 350 99Z" />
<glyph unicode="e" glyph-name="e" horiz-adv-x="542" d="M178 -10T108 52T37 238Q37 354 98 419T278 484Q386 484 445 428T505 276V190H162Q172 135 212 113T332 91Q370 91 409 98T477 116V20Q411 -10 304 -10Q178 -10 108 52ZM387 273V299Q387 387 282 387Q216
387 189 361T162 273H387Z" />
<glyph unicode="f" glyph-name="f" horiz-adv-x="354" d="M83 370H17V474H83V522Q83 598 126 644T249 690Q308 690 356 671V578Q325 589 296 589Q253 589 236 574T218 520V474H338L332 370H218V0H83V370Z" />
<glyph unicode="g" glyph-name="g" d="M203 -176T148 -169T55 -149V-48Q94 -61 147 -68T250 -76Q321 -76 351 -69T381 -42Q381 -26 367 -20T311 -14H182Q119 -14 87 10T55 80Q55 110 71 133T122 171Q41 212 41 309Q41 399 97 441T267 484Q288 484 315 481T359
474H537L534 389H459Q490 360 490 308Q490 233 443 191T308 148Q281 148 248 153Q216 149 197 139T177 112Q177 99 187 94T218 89H352Q424 89 463 56T502 -38Q502 -176 257 -176Q203 -176 148 -169ZM327 224T351 244T375 314Q375 364 351 385T268 407Q211 407 186
386T161 314Q161 266 185 245T268 224Q327 224 351 244Z" />
<glyph unicode="h" glyph-name="h" horiz-adv-x="587" d="M57 674H192V434Q223 457 264 470T354 484Q447 484 490 441T534 304V0H399V297Q399 346 379 365T307 385Q276 385 245 372T192 336V0H57V674Z" />
<glyph unicode="i" glyph-name="i" horiz-adv-x="321" d="M117 667H264V561H117V667ZM128 374H57L69 474H263V0H128V374Z" />
<glyph unicode="j" glyph-name="j" horiz-adv-x="321" d="M116 667H263V561H116V667ZM36 -234T-9 -216V-123Q21 -133 51 -133Q91 -133 109 -117T128 -64V374H57L69 474H263V-77Q263 -150 222 -192T99 -234Q36 -234 -9 -216Z" />
<glyph unicode="k" glyph-name="k" horiz-adv-x="571" d="M57 674H192V303L369 474H523L332 280L534 0H391L247 209L192 156V0H57V674Z" />
<glyph unicode="l" glyph-name="l" horiz-adv-x="298" d="M120 -10T89 22T57 124V674H192V135Q192 110 201 101T231 91Q257 91 278 98V5Q257 -3 237 -6T189 -10Q120 -10 89 22Z" />
<glyph unicode="m" glyph-name="m" horiz-adv-x="858" d="M57 474H182L187 428Q261 484 349 484Q397 484 425 470T469 426Q505 454 547 469T645 484Q727 484 766 442T805 312V0H672V297Q672 343 652 364T588 385Q560 385 534 374T488 342Q493 325 493 301V0H367V297Q367
343 351 364T294 385Q243 385 190 334V0H57V474Z" />
<glyph unicode="n" glyph-name="n" horiz-adv-x="587" d="M57 474H182L187 429Q219 453 263 468T354 484Q447 484 490 441T534 304V0H399V297Q399 346 379 365T307 385Q276 385 245 372T192 336V0H57V474Z" />
<glyph unicode="o" glyph-name="o" horiz-adv-x="589" d="M37 -10T37 237Q37 357 100 420T294 484Q424 484 488 421T552 237Q552 -10 294 -10Q37 -10 37 237ZM360 105T387 135T415 237Q415 309 388 339T294 369Q229 369 202 339T174 237Q174 165 201 135T294 105Q360
105 387 135Z" />
<glyph unicode="p" glyph-name="p" horiz-adv-x="590" d="M57 474H174L181 430Q213 457 250 470T336 484Q443 484 498 426T553 243Q553 117 494 54T328 -10Q248 -10 192 26V-216H57V474ZM355 89T385 126T416 242Q416 318 388 351T298 385Q236 385 192 342V125Q215
107 238 98T294 89Q355 89 385 126Z" />
<glyph unicode="q" glyph-name="q" horiz-adv-x="651" d="M467 -242T433 -208T398 -102V26Q343 -10 262 -10Q155 -10 96 49T37 233Q37 357 96 420T256 484Q305 484 341 471T409 430L417 474H533V-89Q533 -118 544 -129T583 -141Q601 -141 624 -134V-227Q602 -235
583 -238T536 -242Q467 -242 433 -208ZM329 89T352 98T398 125V342Q375 364 351 374T294 385Q232 385 203 348T174 235Q174 157 204 123T296 89Q329 89 352 98Z" />
<glyph unicode="r" glyph-name="r" horiz-adv-x="378" d="M57 474H182L188 425Q221 446 268 462T361 484V382Q318 376 269 362T192 331V0H57V474Z" />
<glyph unicode="s" glyph-name="s" horiz-adv-x="471" d="M172 -10T124 -3T46 16V128Q79 114 123 107T206 99Q258 99 277 105T297 132Q297 150 279 160T210 186Q195 190 172 198Q102 221 70 253T37 343Q37 412 87 448T246 484Q287 484 326 478T395 462V351Q369
363 334 370T268 377Q220 377 197 371T174 345Q174 328 190 320T254 297L287 287Q345 269 376 250T420 203T434 134Q434 63 381 27T224 -10Q172 -10 124 -3Z" />
<glyph unicode="t" glyph-name="t" horiz-adv-x="368" d="M164 -10T124 32T84 150V370H17V474H84V576L219 616V474H339L331 370H219V159Q219 121 236 106T293 91Q321 91 351 101V8Q306 -10 245 -10Q164 -10 124 32Z" />
<glyph unicode="u" glyph-name="u" horiz-adv-x="587" d="M146 -10T99 38T52 177V474H187V180Q187 133 209 111T279 89Q313 89 342 102T394 138V474H529V0H404L399 45Q330 -10 232 -10Q146 -10 99 38Z" />
<glyph unicode="v" glyph-name="v" horiz-adv-x="593" d="M37 474H178L296 136L415 474H555L369 0H224L37 474Z" />
<glyph unicode="w" glyph-name="w" horiz-adv-x="757" d="M37 474H172L244 166L323 413V474H426L516 166L586 474H720L596 0H472L381 277L288 0H162L37 474Z" />
<glyph unicode="x" glyph-name="x" horiz-adv-x="585" d="M219 241L44 474H190L292 336L394 474H540L366 241L547 0H400L292 145L184 0H37L219 241Z" />
<glyph unicode="y" glyph-name="y" horiz-adv-x="613" d="M119 -176T79 -160V-65Q107 -75 140 -75Q180 -75 202 -57T249 8L37 474H178L317 152L455 474H595L408 33Q364 -72 313 -124T181 -176Q119 -176 79 -160Z" />
<glyph unicode="z" glyph-name="z" horiz-adv-x="489" d="M37 70L276 362H47V474H445V392L211 104H452V0H37V70Z" />
<glyph unicode="{" glyph-name="braceleft" horiz-adv-x="312" d="M153 -104T127 -92T90 -56T79 12V174Q79 214 65 234T17 258V339Q55 344 67 366T79 441V585Q79 628 89 652T126 689T201 701H284V597H260Q233 597 224 585T214 543V392Q214 360 201 335T161 298Q188
286 201 262T214 205V54Q214 24 223 12T260 0H284V-104H201Q153 -104 127 -92Z" />
<glyph unicode="|" glyph-name="bar" horiz-adv-x="210" d="M37 735H172V-120H37V735Z" />
<glyph unicode="}" glyph-name="braceright" horiz-adv-x="312" d="M27 0H51Q78 0 87 12T97 54V205Q97 237 110 261T150 298Q123 310 110 335T97 392V543Q97 573 88 585T51 597H27V701H110Q158 701 184 689T221 653T232 585V441Q232 389 244 367T294 339V258Q260
254 246 234T232 174V12Q232 -31 222 -55T185 -92T110 -104H27V0Z" />
<glyph unicode="~" glyph-name="asciitilde" horiz-adv-x="552" d="M368 206T342 214T276 240Q236 257 211 265T156 274Q118 274 90 260T37 215V348Q54 371 86 385T156 399Q187 399 214 390T282 364Q319 348 344 340T397 331Q435 331 462 344T514 389V256Q497
232 466 219T397 206Q368 206 342 214Z" />
<glyph unicode="&#xa0;" glyph-name="uni00A0" horiz-adv-x="360" />
<glyph unicode="&#xa1;" glyph-name="exclamdown" horiz-adv-x="216" d="M37 596H179V497H37V596ZM41 117L47 427H170L176 117V-48H41V117Z" />
<glyph unicode="&#xa2;" glyph-name="cent" horiz-adv-x="497" d="M256 -8Q149 2 93 64T37 237Q37 347 95 408T256 481V560H355V482Q409 477 459 454V357Q411 379 355 382V92Q416 97 460 119V19Q415 -1 355 -7V-86H256V-8ZM256 374Q215 361 195 329T174 237Q174
180 194 147T256 100V374Z" />
<glyph unicode="&#xa3;" glyph-name="sterling" horiz-adv-x="494" d="M37 104H60Q86 104 99 119T113 162V289H47V393H113V482Q113 560 162 607T293 654Q367 654 416 632V539Q402 545 379 549T335 553Q290 553 269 534T248 474V393H414L409 289H248V169Q248 145
243 130T224 104H456V0H37V104Z" />
<glyph unicode="&#xa4;" glyph-name="currency" horiz-adv-x="571" d="M37 121L117 180Q92 221 92 269Q92 318 117 357L38 417L97 490L179 425Q226 459 285 459Q345 459 391 424L475 489L534 417L453 357Q479 316 479 269Q479 222 453 180L533 120L475 48L391
112Q344 78 286 78Q227 78 180 112L97 48L37 121ZM325 174T352 201T380 269Q380 309 352 337T285 365Q245 365 218 337T191 269Q191 229 218 202T285 174Q325 174 352 201Z" />
<glyph unicode="&#xa5;" glyph-name="yen" horiz-adv-x="671" d="M268 85H123V164H268V219H123V298H234L37 644H178L336 353L494 644H634L437 298H548V219H403V164H548V85H403V0H268V85Z" />
<glyph unicode="&#xa6;" glyph-name="brokenbar" horiz-adv-x="210" d="M37 735H172V404H37V735ZM37 211H172V-120H37V211Z" />
<glyph unicode="&#xa7;" glyph-name="section" horiz-adv-x="555" d="M128 -10T49 25V144Q94 126 145 115T244 104Q315 104 347 118T380 176Q380 204 363 222T314 252T220 281Q151 301 112 323T55 375T37 448Q37 492 57 518Q38 549 38 591Q38 675 101 720T291
765Q338 765 392 757T480 738V619Q394 650 304 650Q249 650 212 637T174 581Q174 556 187 540T231 512T320 486Q401 465 443 444T501 393T518 319Q518 303 512 280T498 243Q518 211 518 172Q518 82 452 36T257 -10Q128 -10 49 25ZM403 320T403 331Q403 354 376
369T274 404Q232 415 206 426T167 450Q163 440 163 430Q163 412 175 401T211 382T286 359Q333 346 360 335T399 309Q403 320 403 331Z" />
<glyph unicode="&#xa8;" glyph-name="dieresis" horiz-adv-x="376" d="M37 655H143V557H37V655ZM233 655H339V557H233V655Z" />
<glyph unicode="&#xa9;" glyph-name="copyright" horiz-adv-x="739" d="M279 -10T203 34T82 155T37 322Q37 412 81 488T202 609T369 654Q459 654 535 610T656 489T701 322Q701 232 657 156T536 35T369 -10Q279 -10 203 34ZM440 65T498 98T589 190T622 322Q622
395 589 453T498 545T369 579Q298 579 241 546T150 454T117 322Q117 249 150 190T240 98T369 65Q440 65 498 98ZM274 108T218 165T161 322Q161 390 189 438T265 511T374 536Q414 536 444 527T502 501V433Q454 460 396 460Q332 460 292 427T251 322Q251 183 392
183Q421 183 450 191T503 213V142Q447 108 370 108Q274 108 218 165Z" />
<glyph unicode="&#xaa;" glyph-name="ordfeminine" horiz-adv-x="340" d="M90 380T64 400T37 461Q37 549 145 549H223V554Q223 576 209 584T157 593Q113 593 71 579V637Q90 645 118 649T174 654Q235 654 268 629T302 552V386H231L226 409Q208 394 186 387T131
380Q90 380 64 400ZM200 434T223 465V498H162Q135 498 124 491T112 465Q112 448 123 441T157 434Q200 434 223 465Z" />
<glyph unicode="&#xab;" glyph-name="guillemotleft" horiz-adv-x="639" d="M37 259V312L299 505L351 429L157 285L351 141L299 66L37 259ZM287 259V312L549 505L601 429L407 285L601 141L549 66L287 259Z" />
<glyph unicode="&#xac;" glyph-name="logicalnot" horiz-adv-x="517" d="M373 270H37V375H479V136H373V270Z" />
<glyph unicode="&#xad;" glyph-name="uni00AD" horiz-adv-x="460" d="M37 324H423V219H37V324Z" />
<glyph unicode="&#xae;" glyph-name="registered" horiz-adv-x="739" d="M279 -10T203 34T82 155T37 322Q37 412 81 488T202 609T369 654Q459 654 535 610T656 489T701 322Q701 232 657 156T536 35T369 -10Q279 -10 203 34ZM440 65T498 98T589 190T622 322Q622
395 589 453T498 545T369 579Q298 579 241 546T150 454T117 322Q117 249 150 190T240 98T369 65Q440 65 498 98ZM224 517H411Q475 517 507 484T540 392Q540 347 520 318T459 277Q476 263 486 235L529 128H455L412 241Q404 255 394 260T360 265H300V128H224V517ZM364
324Q416 324 440 336T464 392Q464 427 447 442T395 458H300V324H364Z" />
<glyph unicode="&#xaf;" glyph-name="overscore" horiz-adv-x="342" d="M17 644H325V561H17V644Z" />
<glyph unicode="&#xb0;" glyph-name="degree" horiz-adv-x="305" d="M103 497T69 529T35 612Q35 663 69 695T152 727Q202 727 236 695T270 612Q270 561 236 529T152 497Q103 497 69 529ZM172 567T185 580T198 612Q198 631 185 644T152 657Q133 657 120 644T107
612Q107 593 120 580T152 567Q172 567 185 580Z" />
<glyph unicode="&#xb1;" glyph-name="plusminus" horiz-adv-x="470" d="M182 279H42V384H182V521H288V384H428V279H288V145H182V279ZM42 105H428V0H42V105Z" />
<glyph unicode="&#xb2;" glyph-name="uni00B2" horiz-adv-x="303" d="M37 414Q49 432 62 445T90 469T109 485Q117 492 131 502Q155 522 162 530T170 550Q170 567 158 574T118 582Q85 582 44 566V637Q62 644 92 649T149 654Q203 654 233 631T263 570Q263 543 253
524T215 480L194 462Q173 444 171 442H265V370H37V414Z" />
<glyph unicode="&#xb3;" glyph-name="uni00B3" horiz-adv-x="306" d="M111 362T82 366T37 376V439Q71 425 112 425Q145 425 158 431T172 452Q172 481 120 481H78L83 537H117Q166 537 166 567Q166 590 112 590Q75 590 42 576V640Q57 646 84 650T137 654Q202 654
232 633T263 573Q263 526 226 509Q269 496 269 448Q269 362 136 362Q111 362 82 366Z" />
<glyph unicode="&#xb4;" glyph-name="acute" horiz-adv-x="277" d="M119 709H236L148 522H39L119 709Z" />
<glyph unicode="&#xb6;" glyph-name="paragraph" horiz-adv-x="636" d="M278 253Q168 253 103 306T37 477Q37 596 106 653T294 710H618V-77H483V606H413V-77H278V253Z" />
<glyph unicode="&#xb7;" glyph-name="middot" horiz-adv-x="184" d="M37 336H147V235H37V336Z" />
<glyph unicode="&#xb8;" glyph-name="cedilla" horiz-adv-x="273" d="M86 -240T62 -238T27 -232V-164Q56 -172 88 -172Q134 -172 151 -165T168 -135Q168 -111 150 -105T91 -98H47L76 0H164L149 -45Q201 -45 228 -69T255 -136Q255 -240 103 -240Q86 -240 62 -238Z" />
<glyph unicode="&#xb9;" glyph-name="uni00B9" horiz-adv-x="194" d="M84 565L15 551V622L177 654V370H84V565Z" />
<glyph unicode="&#xba;" glyph-name="ordmasculine" horiz-adv-x="361" d="M37 380T37 517Q37 654 180 654Q324 654 324 517Q324 380 180 380Q37 380 37 517ZM213 440T227 458T242 517Q242 557 228 575T180 593Q147 593 133 575T118 517Q118 477 132 459T180 440Q213
440 227 458Z" />
<glyph unicode="&#xbb;" glyph-name="guillemotright" horiz-adv-x="639" d="M37 141L231 285L37 429L89 505L351 312V259L89 66L37 141ZM287 141L481 285L287 429L339 505L601 312V259L339 66L287 141Z" />
<glyph unicode="&#xbc;" glyph-name="onequarter" horiz-adv-x="657" d="M106 565L37 551V622L199 654V370H106V565ZM428 644H556L216 0H89L428 644ZM497 50H358V111L494 284H589V114H619V50H589V0H497V50ZM518 115V207L448 115H518Z" />
<glyph unicode="&#xbd;" glyph-name="onehalf" horiz-adv-x="673" d="M106 565L37 551V622L199 654V370H106V565ZM428 644H556L216 0H89L428 644ZM387 44Q399 62 412 75T440 99T459 115Q467 122 481 132Q505 152 512 160T520 180Q520 197 508 204T468 212Q435
212 394 196V267Q412 274 442 279T499 284Q553 284 583 261T613 200Q613 173 603 154T565 110L544 92Q523 74 521 72H615V0H387V44Z" />
<glyph unicode="&#xbe;" glyph-name="threequarters" horiz-adv-x="679" d="M111 362T82 366T37 376V439Q71 425 112 425Q145 425 158 431T172 452Q172 481 120 481H78L83 537H117Q166 537 166 567Q166 590 112 590Q75 590 42 576V640Q57 646 84 650T137 654Q202
654 232 633T263 573Q263 526 226 509Q269 496 269 448Q269 362 136 362Q111 362 82 366ZM428 644H556L216 0H89L428 644ZM497 50H358V111L494 284H589V114H619V50H589V0H497V50ZM518 115V207L448 115H518Z" />
<glyph unicode="&#xbf;" glyph-name="questiondown" horiz-adv-x="497" d="M261 596H403V497H261V596ZM201 -58T142 -9T83 129Q83 182 105 215T176 289Q182 293 211 317T252 363T264 411V426H399V406Q399 373 385 347T352 301T300 254Q259 221 240 198T220 143Q220
96 249 77T349 58Q388 58 431 68T505 94V-20Q469 -38 419 -48T313 -58Q201 -58 142 -9Z" />
<glyph unicode="&#xc0;" glyph-name="Agrave" horiz-adv-x="713" d="M212 875H329L409 688H300L212 875ZM283 644H431L676 0H536L475 155H238L178 0H37L283 644ZM455 259L356 518L258 259H455Z" />
<glyph unicode="&#xc1;" glyph-name="Aacute" horiz-adv-x="713" d="M377 875H494L406 688H297L377 875ZM283 644H431L676 0H536L475 155H238L178 0H37L283 644ZM455 259L356 518L258 259H455Z" />
<glyph unicode="&#xc2;" glyph-name="Acircumflex" horiz-adv-x="713" d="M313 862H399L534 688H430L356 788L284 688H178L313 862ZM283 644H431L676 0H536L475 155H238L178 0H37L283 644ZM455 259L356 518L258 259H455Z" />
<glyph unicode="&#xc3;" glyph-name="Atilde" horiz-adv-x="713" d="M422 689T403 694T354 710Q307 729 281 729Q225 729 191 692V788Q205 802 228 810T278 819Q299 819 318 814T362 798Q390 788 405 784T439 779Q495 779 522 817V721Q512 707 491 698T442 689Q422
689 403 694ZM283 644H431L676 0H536L475 155H238L178 0H37L283 644ZM455 259L356 518L258 259H455Z" />
<glyph unicode="&#xc4;" glyph-name="Adieresis" horiz-adv-x="713" d="M205 810H311V712H205V810ZM401 810H507V712H401V810ZM283 644H431L676 0H536L475 155H238L178 0H37L283 644ZM455 259L356 518L258 259H455Z" />
<glyph unicode="&#xc5;" glyph-name="Aring" horiz-adv-x="713" d="M676 0H536L475 155H238L178 0H37L274 621Q254 638 243 662T232 714Q232 765 266 799T356 834Q413 834 447 800T481 714Q481 656 439 622L676 0ZM330 771T314 755T298 714Q298 690 314 674T356
657Q383 657 399 673T415 714Q415 739 399 755T356 771Q330 771 314 755ZM455 259L356 518L258 259H455Z" />
<glyph unicode="&#xc6;" glyph-name="AE" horiz-adv-x="849" d="M283 644H812V539H538V374H775V270H538V104H812V0H403V156H243L183 0H37L283 644ZM403 260V544H377L274 260H403Z" />
<glyph unicode="&#xc7;" glyph-name="Ccedilla" horiz-adv-x="600" d="M490 -5T406 -9L394 -45Q446 -45 473 -69T500 -136Q500 -240 348 -240Q331 -240 307 -238T272 -232V-164Q301 -172 333 -172Q379 -172 396 -165T413 -135Q413 -111 395 -105T336 -98H292L319
-7Q183 6 110 91T37 316Q37 478 121 566T370 654Q474 654 562 622V504Q477 539 380 539Q271 539 223 485T174 316Q174 209 225 157T382 104Q480 104 563 138V19Q490 -5 406 -9Z" />
<glyph unicode="&#xc8;" glyph-name="Egrave" horiz-adv-x="556" d="M161 875H278L358 688H249L161 875ZM57 644H519V539H192V374H482V270H192V104H519V0H57V644Z" />
<glyph unicode="&#xc9;" glyph-name="Eacute" horiz-adv-x="556" d="M302 875H419L331 688H222L302 875ZM57 644H519V539H192V374H482V270H192V104H519V0H57V644Z" />
<glyph unicode="&#xca;" glyph-name="Ecircumflex" horiz-adv-x="556" d="M244 862H330L465 688H361L287 788L215 688H109L244 862ZM57 644H519V539H192V374H482V270H192V104H519V0H57V644Z" />
<glyph unicode="&#xcb;" glyph-name="Edieresis" horiz-adv-x="556" d="M141 811H247V713H141V811ZM337 811H443V713H337V811ZM57 644H519V539H192V374H482V270H192V104H519V0H57V644Z" />
<glyph unicode="&#xcc;" glyph-name="Igrave" horiz-adv-x="249" d="M-19 875H98L178 688H69L-19 875ZM57 644H192V0H57V644Z" />
<glyph unicode="&#xcd;" glyph-name="Iacute" horiz-adv-x="250" d="M150 875H267L179 688H70L150 875ZM57 644H192V0H57V644Z" />
<glyph unicode="&#xce;" glyph-name="Icircumflex" horiz-adv-x="250" d="M82 862H168L303 688H199L125 788L53 688H-53L82 862ZM57 644H192V0H57V644Z" />
<glyph unicode="&#xcf;" glyph-name="Idieresis" horiz-adv-x="249" d="M-26 816H80V718H-26V816ZM170 816H276V718H170V816ZM57 644H192V0H57V644Z" />
<glyph unicode="&#xd0;" glyph-name="Eth" horiz-adv-x="704" d="M105 264H37V368H105V644H375Q523 644 595 568T667 319Q667 155 595 78T375 0H105V264ZM356 104Q417 104 454 122T510 187T530 319Q530 405 513 451T458 514T356 532H240V368H389V264H240V104H356Z" />
<glyph unicode="&#xd1;" glyph-name="Ntilde" horiz-adv-x="671" d="M409 700T390 705T341 721Q293 740 268 740Q212 740 178 703V799Q192 813 215 821T265 830Q286 830 305 825T349 809Q377 799 392 795T426 790Q482 790 509 828V732Q499 718 478 709T429 700Q409
700 390 705ZM57 644H174L479 215V644H614V0H497L192 429V0H57V644Z" />
<glyph unicode="&#xd2;" glyph-name="Ograve" horiz-adv-x="700" d="M213 875H330L410 688H301L213 875ZM37 -10T37 319Q37 493 114 573T350 654Q508 654 585 574T663 319Q663 -10 350 -10Q37 -10 37 319ZM440 105T483 157T526 319Q526 438 484 488T350 539Q258
539 216 489T174 319Q174 210 217 158T350 105Q440 105 483 157Z" />
<glyph unicode="&#xd3;" glyph-name="Oacute" horiz-adv-x="700" d="M368 875H485L397 688H288L368 875ZM37 -10T37 319Q37 493 114 573T350 654Q508 654 585 574T663 319Q663 -10 350 -10Q37 -10 37 319ZM440 105T483 157T526 319Q526 438 484 488T350 539Q258
539 216 489T174 319Q174 210 217 158T350 105Q440 105 483 157Z" />
<glyph unicode="&#xd4;" glyph-name="Ocircumflex" horiz-adv-x="700" d="M307 862H393L528 688H424L350 788L278 688H172L307 862ZM37 -10T37 319Q37 493 114 573T350 654Q508 654 585 574T663 319Q663 -10 350 -10Q37 -10 37 319ZM440 105T483 157T526 319Q526
438 484 488T350 539Q258 539 216 489T174 319Q174 210 217 158T350 105Q440 105 483 157Z" />
<glyph unicode="&#xd5;" glyph-name="Otilde" horiz-adv-x="700" d="M416 710T397 715T348 731Q301 750 275 750Q219 750 185 713V809Q199 823 222 831T272 840Q293 840 312 835T356 819Q384 809 399 805T433 800Q489 800 516 838V742Q506 728 485 719T436 710Q416
710 397 715ZM37 -10T37 319Q37 493 114 573T350 654Q508 654 585 574T663 319Q663 -10 350 -10Q37 -10 37 319ZM440 105T483 157T526 319Q526 438 484 488T350 539Q258 539 216 489T174 319Q174 210 217 158T350 105Q440 105 483 157Z" />
<glyph unicode="&#xd6;" glyph-name="Odieresis" horiz-adv-x="700" d="M199 811H305V713H199V811ZM395 811H501V713H395V811ZM37 -10T37 319Q37 493 114 573T350 654Q508 654 585 574T663 319Q663 -10 350 -10Q37 -10 37 319ZM440 105T483 157T526 319Q526 438
484 488T350 539Q258 539 216 489T174 319Q174 210 217 158T350 105Q440 105 483 157Z" />
<glyph unicode="&#xd7;" glyph-name="multiply" horiz-adv-x="418" d="M210 183L109 83L41 150L142 251L37 355L104 422L207 317L313 421L380 354L275 249L380 144L315 78L210 183Z" />
<glyph unicode="&#xd8;" glyph-name="Oslash" horiz-adv-x="700" d="M189 20Q37 89 37 319Q37 493 114 573T350 654Q392 654 428 648L445 693H522L498 630Q581 599 622 523T663 319Q663 -10 350 -10Q299 -10 257 -1L238 -53H161L189 20ZM385 537Q363 539 350 539Q258
539 216 489T174 319Q174 190 234 140L385 537ZM440 105T483 157T526 319Q526 397 509 444T454 515L300 109Q320 105 350 105Q440 105 483 157Z" />
<glyph unicode="&#xd9;" glyph-name="Ugrave" horiz-adv-x="679" d="M209 875H326L406 688H297L209 875ZM205 -10T129 55T52 242V644H187V252Q187 179 226 142T340 105Q414 105 453 142T492 252V644H627V242Q627 121 551 56T340 -10Q205 -10 129 55Z" />
<glyph unicode="&#xda;" glyph-name="Uacute" horiz-adv-x="679" d="M361 875H478L390 688H281L361 875ZM205 -10T129 55T52 242V644H187V252Q187 179 226 142T340 105Q414 105 453 142T492 252V644H627V242Q627 121 551 56T340 -10Q205 -10 129 55Z" />
<glyph unicode="&#xdb;" glyph-name="Ucircumflex" horiz-adv-x="679" d="M297 862H383L518 688H414L340 788L268 688H162L297 862ZM205 -10T129 55T52 242V644H187V252Q187 179 226 142T340 105Q414 105 453 142T492 252V644H627V242Q627 121 551 56T340 -10Q205
-10 129 55Z" />
<glyph unicode="&#xdc;" glyph-name="Udieresis" horiz-adv-x="679" d="M189 811H295V713H189V811ZM385 811H491V713H385V811ZM205 -10T129 55T52 242V644H187V252Q187 179 226 142T340 105Q414 105 453 142T492 252V644H627V242Q627 121 551 56T340 -10Q205 -10 129 55Z" />
<glyph unicode="&#xdd;" glyph-name="Yacute" horiz-adv-x="671" d="M353 875H470L382 688H273L353 875ZM268 238L37 644H178L336 353L494 644H634L403 238V0H268V238Z" />
<glyph unicode="&#xde;" glyph-name="Thorn" horiz-adv-x="617" d="M57 644H192V542H359Q468 542 524 481T580 320Q580 255 553 205T474 128T355 100H192V0H57V644ZM327 207Q384 207 414 237T444 320Q444 376 416 405T332 435H192V207H327Z" />
<glyph unicode="&#xdf;" glyph-name="germandbls" horiz-adv-x="634" d="M307 -10T244 13V127Q294 105 361 105Q406 105 433 128T460 194Q460 245 434 267T350 290H277V394H347Q399 394 423 418T447 491Q447 585 315 585Q251 585 216 551T180 446V0H52V448Q52
519 85 576T177 667T315 700Q398 700 456 672T543 596T573 491Q573 439 553 400T497 342Q543 326 570 285T597 187Q597 94 543 42T388 -10Q307 -10 244 13Z" />
<glyph unicode="&#xe0;" glyph-name="agrave" horiz-adv-x="554" d="M154 709H271L351 522H242L154 709ZM134 -10T86 28T37 137Q37 208 87 249T233 291H373V304Q373 334 363 351T326 376T250 384Q169 384 94 359V454Q129 468 176 476T278 484Q502 484 502 301V0H385L378
43Q320 -10 206 -10Q134 -10 86 28ZM286 79T319 93T373 132V207H236Q157 207 157 142Q157 79 243 79Q286 79 319 93Z" />
<glyph unicode="&#xe1;" glyph-name="aacute" horiz-adv-x="554" d="M309 709H426L338 522H229L309 709ZM134 -10T86 28T37 137Q37 208 87 249T233 291H373V304Q373 334 363 351T326 376T250 384Q169 384 94 359V454Q129 468 176 476T278 484Q502 484 502 301V0H385L378
43Q320 -10 206 -10Q134 -10 86 28ZM286 79T319 93T373 132V207H236Q157 207 157 142Q157 79 243 79Q286 79 319 93Z" />
<glyph unicode="&#xe2;" glyph-name="acircumflex" d="M254 696H340L475 522H371L297 622L225 522H119L254 696ZM142 -10T94 28T45 137Q45 208 95 249T241 291H381V304Q381 334 371 351T334 376T258 384Q177 384 102 359V454Q137 468 184 476T286 484Q510 484
510 301V0H393L386 43Q328 -10 214 -10Q142 -10 94 28ZM294 79T327 93T381 132V207H244Q165 207 165 142Q165 79 251 79Q294 79 327 93Z" />
<glyph unicode="&#xe3;" glyph-name="atilde" horiz-adv-x="554" d="M363 534T344 539T295 555Q248 574 222 574Q166 574 132 537V633Q146 647 169 655T219 664Q240 664 259 659T303 643Q331 633 346 629T380 624Q436 624 463 662V566Q453 552 432 543T383 534Q363
534 344 539ZM134 -10T86 28T37 137Q37 208 87 249T233 291H373V304Q373 334 363 351T326 376T250 384Q169 384 94 359V454Q129 468 176 476T278 484Q502 484 502 301V0H385L378 43Q320 -10 206 -10Q134 -10 86 28ZM286 79T319 93T373 132V207H236Q157 207 157
142Q157 79 243 79Q286 79 319 93Z" />
<glyph unicode="&#xe4;" glyph-name="adieresis" horiz-adv-x="554" d="M146 645H252V547H146V645ZM342 645H448V547H342V645ZM134 -10T86 28T37 137Q37 208 87 249T233 291H373V304Q373 334 363 351T326 376T250 384Q169 384 94 359V454Q129 468 176 476T278
484Q502 484 502 301V0H385L378 43Q320 -10 206 -10Q134 -10 86 28ZM286 79T319 93T373 132V207H236Q157 207 157 142Q157 79 243 79Q286 79 319 93Z" />
<glyph unicode="&#xe5;" glyph-name="aring" horiz-adv-x="554" d="M245 522T211 556T177 641Q177 692 211 726T301 761Q358 761 392 727T426 641Q426 589 392 556T301 522Q245 522 211 556ZM328 584T344 600T360 641Q360 666 344 682T301 698Q275 698 259 682T243
641Q243 617 259 601T301 584Q328 584 344 600ZM134 -10T86 28T37 137Q37 208 87 249T233 291H373V304Q373 334 363 351T326 376T250 384Q169 384 94 359V454Q129 468 176 476T278 484Q502 484 502 301V0H385L378 43Q320 -10 206 -10Q134 -10 86 28ZM286 79T319
93T373 132V207H236Q157 207 157 142Q157 79 243 79Q286 79 319 93Z" />
<glyph unicode="&#xe6;" glyph-name="ae" horiz-adv-x="882" d="M140 -10T89 28T37 137Q37 208 87 249T233 291H373V304Q373 334 363 351T326 376T250 384Q169 384 94 359V454Q129 468 176 476T278 484Q395 484 450 432Q479 457 522 470T618 484Q726 484 785 428T845
276V190H502Q512 134 553 111T672 88Q710 88 749 95T817 113V20Q751 -10 644 -10Q587 -10 533 10T450 67Q403 27 352 9T218 -10Q140 -10 89 28ZM727 273V299Q727 387 622 387Q556 387 529 361T502 273H727ZM326 79T373 128V207H236Q157 207 157 142Q157 79 243
79Q326 79 373 128Z" />
<glyph unicode="&#xe7;" glyph-name="ccedilla" horiz-adv-x="497" d="M402 -5T324 -10L312 -45Q364 -45 391 -69T418 -136Q418 -240 266 -240Q249 -240 225 -238T190 -232V-164Q219 -172 251 -172Q297 -172 314 -165T331 -135Q331 -111 313 -105T254 -98H210L237
-6Q140 8 89 70T37 237Q37 359 108 421T303 484Q353 484 389 477T459 454V357Q405 383 330 383Q251 383 213 350T174 237Q174 160 210 126T329 91Q403 91 460 119V19Q402 -5 324 -10Z" />
<glyph unicode="&#xe8;" glyph-name="egrave" horiz-adv-x="542" d="M138 709H255L335 522H226L138 709ZM178 -10T108 52T37 238Q37 354 98 419T278 484Q386 484 445 428T505 276V190H162Q172 135 212 113T332 91Q370 91 409 98T477 116V20Q411 -10 304 -10Q178
-10 108 52ZM387 273V299Q387 387 282 387Q216 387 189 361T162 273H387Z" />
<glyph unicode="&#xe9;" glyph-name="eacute" horiz-adv-x="542" d="M304 709H421L333 522H224L304 709ZM178 -10T108 52T37 238Q37 354 98 419T278 484Q386 484 445 428T505 276V190H162Q172 135 212 113T332 91Q370 91 409 98T477 116V20Q411 -10 304 -10Q178
-10 108 52ZM387 273V299Q387 387 282 387Q216 387 189 361T162 273H387Z" />
<glyph unicode="&#xea;" glyph-name="ecircumflex" horiz-adv-x="542" d="M237 696H323L458 522H354L280 622L208 522H102L237 696ZM178 -10T108 52T37 238Q37 354 98 419T278 484Q386 484 445 428T505 276V190H162Q172 135 212 113T332 91Q370 91 409 98T477
116V20Q411 -10 304 -10Q178 -10 108 52ZM387 273V299Q387 387 282 387Q216 387 189 361T162 273H387Z" />
<glyph unicode="&#xeb;" glyph-name="edieresis" horiz-adv-x="542" d="M128 645H234V547H128V645ZM324 645H430V547H324V645ZM178 -10T108 52T37 238Q37 354 98 419T278 484Q386 484 445 428T505 276V190H162Q172 135 212 113T332 91Q370 91 409 98T477 116V20Q411
-10 304 -10Q178 -10 108 52ZM387 273V299Q387 387 282 387Q216 387 189 361T162 273H387Z" />
<glyph unicode="&#xec;" glyph-name="igrave" horiz-adv-x="321" d="M49 709H166L246 522H137L49 709ZM128 374H57L69 474H263V0H128V374Z" />
<glyph unicode="&#xed;" glyph-name="iacute" horiz-adv-x="321" d="M207 709H324L236 522H127L207 709ZM128 374H57L69 474H263V0H128V374Z" />
<glyph unicode="&#xee;" glyph-name="icircumflex" horiz-adv-x="321" d="M128 696H214L349 522H245L171 622L99 522H-7L128 696ZM128 374H57L69 474H263V0H128V374Z" />
<glyph unicode="&#xef;" glyph-name="idieresis" horiz-adv-x="321" d="M14 645H120V547H14V645ZM210 645H316V547H210V645ZM128 374H57L69 474H263V0H128V374Z" />
<glyph unicode="&#xf0;" glyph-name="eth" horiz-adv-x="573" d="M160 -10T99 44T37 199Q37 300 95 351T262 403Q300 403 341 391T414 357V392Q414 459 397 499L275 446V506L362 543Q329 567 268 567Q192 567 124 540V629Q194 654 289 654Q402 654 467 589L559
629V569L502 544Q541 475 541 375V243Q541 115 478 53T288 -10Q160 -10 99 44ZM351 80T382 112T414 211V275Q385 295 352 306T287 318Q218 318 188 288T158 199Q158 142 191 111T287 80Q351 80 382 112Z" />
<glyph unicode="&#xf1;" glyph-name="ntilde" horiz-adv-x="587" d="M365 534T346 539T297 555Q249 574 224 574Q168 574 134 537V633Q148 647 171 655T221 664Q242 664 261 659T305 643Q333 633 348 629T382 624Q438 624 465 662V566Q455 552 434 543T385 534Q365
534 346 539ZM57 474H182L187 429Q219 453 263 468T354 484Q447 484 490 441T534 304V0H399V297Q399 346 379 365T307 385Q276 385 245 372T192 336V0H57V474Z" />
<glyph unicode="&#xf2;" glyph-name="ograve" horiz-adv-x="589" d="M155 709H272L352 522H243L155 709ZM37 -10T37 237Q37 357 100 420T294 484Q424 484 488 421T552 237Q552 -10 294 -10Q37 -10 37 237ZM360 105T387 135T415 237Q415 309 388 339T294 369Q229
369 202 339T174 237Q174 165 201 135T294 105Q360 105 387 135Z" />
<glyph unicode="&#xf3;" glyph-name="oacute" horiz-adv-x="589" d="M312 709H429L341 522H232L312 709ZM37 -10T37 237Q37 357 100 420T294 484Q424 484 488 421T552 237Q552 -10 294 -10Q37 -10 37 237ZM360 105T387 135T415 237Q415 309 388 339T294 369Q229
369 202 339T174 237Q174 165 201 135T294 105Q360 105 387 135Z" />
<glyph unicode="&#xf4;" glyph-name="ocircumflex" horiz-adv-x="589" d="M251 696H337L472 522H368L294 622L222 522H116L251 696ZM37 -10T37 237Q37 357 100 420T294 484Q424 484 488 421T552 237Q552 -10 294 -10Q37 -10 37 237ZM360 105T387 135T415 237Q415
309 388 339T294 369Q229 369 202 339T174 237Q174 165 201 135T294 105Q360 105 387 135Z" />
<glyph unicode="&#xf5;" glyph-name="otilde" horiz-adv-x="589" d="M360 544T341 549T292 565Q244 584 219 584Q163 584 129 547V643Q143 657 166 665T216 674Q237 674 256 669T300 653Q328 643 343 639T377 634Q433 634 460 672V576Q450 562 429 553T380 544Q360
544 341 549ZM37 -10T37 237Q37 357 100 420T294 484Q424 484 488 421T552 237Q552 -10 294 -10Q37 -10 37 237ZM360 105T387 135T415 237Q415 309 388 339T294 369Q229 369 202 339T174 237Q174 165 201 135T294 105Q360 105 387 135Z" />
<glyph unicode="&#xf6;" glyph-name="odieresis" horiz-adv-x="589" d="M143 645H249V547H143V645ZM339 645H445V547H339V645ZM37 -10T37 237Q37 357 100 420T294 484Q424 484 488 421T552 237Q552 -10 294 -10Q37 -10 37 237ZM360 105T387 135T415 237Q415 309
388 339T294 369Q229 369 202 339T174 237Q174 165 201 135T294 105Q360 105 387 135Z" />
<glyph unicode="&#xf7;" glyph-name="divide" horiz-adv-x="460" d="M182 492H288V397H182V492ZM42 324H428V219H42V324ZM182 150H288V55H182V150Z" />
<glyph unicode="&#xf8;" glyph-name="oslash" horiz-adv-x="589" d="M166 11Q37 62 37 237Q37 357 100 420T294 484Q321 484 345 481L363 528H440L416 465Q552 415 552 237Q552 -10 294 -10Q260 -10 236 -6L219 -53H142L166 11ZM302 369H294Q229 369 202 339T174
237Q174 195 182 168T210 126L302 369ZM294 105Q360 105 387 135T415 237Q415 282 405 309T372 351L279 105H294Z" />
<glyph unicode="&#xf9;" glyph-name="ugrave" horiz-adv-x="587" d="M162 709H279L359 522H250L162 709ZM146 -10T99 38T52 177V474H187V180Q187 133 209 111T279 89Q313 89 342 102T394 138V474H529V0H404L399 45Q330 -10 232 -10Q146 -10 99 38Z" />
<glyph unicode="&#xfa;" glyph-name="uacute" horiz-adv-x="587" d="M300 709H417L329 522H220L300 709ZM146 -10T99 38T52 177V474H187V180Q187 133 209 111T279 89Q313 89 342 102T394 138V474H529V0H404L399 45Q330 -10 232 -10Q146 -10 99 38Z" />
<glyph unicode="&#xfb;" glyph-name="ucircumflex" horiz-adv-x="587" d="M247 696H333L468 522H364L290 622L218 522H112L247 696ZM146 -10T99 38T52 177V474H187V180Q187 133 209 111T279 89Q313 89 342 102T394 138V474H529V0H404L399 45Q330 -10 232 -10Q146
-10 99 38Z" />
<glyph unicode="&#xfc;" glyph-name="udieresis" horiz-adv-x="587" d="M139 645H245V547H139V645ZM335 645H441V547H335V645ZM146 -10T99 38T52 177V474H187V180Q187 133 209 111T279 89Q313 89 342 102T394 138V474H529V0H404L399 45Q330 -10 232 -10Q146 -10 99 38Z" />
<glyph unicode="&#xfd;" glyph-name="yacute" horiz-adv-x="613" d="M334 709H451L363 522H254L334 709ZM119 -176T79 -160V-65Q107 -75 140 -75Q180 -75 202 -57T249 8L37 474H178L317 152L455 474H595L408 33Q364 -72 313 -124T181 -176Q119 -176 79 -160Z" />
<glyph unicode="&#xfe;" glyph-name="thorn" horiz-adv-x="590" d="M57 700H192V448Q247 484 333 484Q439 484 496 424T553 238Q553 113 494 52T328 -10Q248 -10 192 26V-216H57V700ZM355 89T385 125T416 240Q416 316 388 350T298 385Q236 385 192 342V125Q215
107 238 98T294 89Q355 89 385 125Z" />
<glyph unicode="&#xff;" glyph-name="ydieresis" horiz-adv-x="613" d="M168 659H274V561H168V659ZM364 659H470V561H364V659ZM119 -176T79 -160V-65Q107 -75 140 -75Q180 -75 202 -57T249 8L37 474H178L317 152L455 474H595L408 33Q364 -72 313 -124T181 -176Q119
-176 79 -160Z" />
<glyph unicode="&#x2013;" glyph-name="endash" horiz-adv-x="566" d="M37 324H529V219H37V324Z" />
<glyph unicode="&#x2014;" glyph-name="emdash" horiz-adv-x="839" d="M37 324H802V219H37V324Z" />
<glyph unicode="&#x2018;" glyph-name="quoteleft" horiz-adv-x="246" d="M107 654H209L153 448H37L107 654Z" />
<glyph unicode="&#x2019;" glyph-name="quoteright" horiz-adv-x="246" d="M93 654H209L139 448H37L93 654Z" />
<glyph unicode="&#x201a;" glyph-name="quotesinglbase" horiz-adv-x="246" d="M93 33H209L139 -173H37L93 33Z" />
<glyph unicode="&#x201c;" glyph-name="quotedblleft" horiz-adv-x="393" d="M107 654H199L143 448H37L107 654ZM264 654H355L300 448H194L264 654Z" />
<glyph unicode="&#x201d;" glyph-name="quotedblright" horiz-adv-x="393" d="M93 654H199L129 448H37L93 654ZM249 654H355L285 448H194L249 654Z" />
<glyph unicode="&#x201e;" glyph-name="quotedblbase" horiz-adv-x="393" d="M93 96H199L129 -110H37L93 96ZM249 96H355L285 -110H194L249 96Z" />
<glyph unicode="&#x2022;" glyph-name="bullet" horiz-adv-x="330" d="M111 160T74 197T37 287Q37 340 74 377T164 415Q217 415 254 378T292 287Q292 234 255 197T164 160Q111 160 74 197Z" />
<glyph unicode="&#x2039;" glyph-name="guilsinglleft" horiz-adv-x="389" d="M37 259V312L299 505L351 429L157 285L351 141L299 66L37 259Z" />
<glyph unicode="&#x203a;" glyph-name="guilsinglright" horiz-adv-x="389" d="M37 141L231 285L37 429L89 505L351 312V259L89 66L37 141Z" />
</font>
</defs>
</svg>
