<?xml version="1.0" standalone="no"?>
<!DOCTYPE svg PUBLIC "-//W3C//DTD SVG 1.1//EN" "http://www.w3.org/Graphics/SVG/1.1/DTD/svg11.dtd">
<svg xmlns="http://www.w3.org/2000/svg">
<defs >
<font id="Ruluko" horiz-adv-x="410" ><font-face
    font-family="Ruluko"
    units-per-em="1000"
    panose-1="2 0 0 0 0 0 0 0 0 0"
    ascent="914"
    descent="-241"
    alphabetic="0" />
<glyph unicode=" " glyph-name="space" horiz-adv-x="210" />
<glyph unicode="!" glyph-name="exclam" horiz-adv-x="236" d="M172 -12T126 -12T80 35T124 83Q172 83 172 34Q172 -12 126 -12T80 35T124 83Q172 83 172 34Q172 -12 126 -12ZM119 746Q121 746 176 733L148 183H95L96 663Q96 708 101 727T119 746Z" />
<glyph unicode="&quot;" glyph-name="quotedbl" horiz-adv-x="224" d="M38 502Q31 637 31 663T39 697Q45 702 54 702L97 696L75 498L38 502ZM135 502Q128 637 128 663T136 697Q142 702 151 702L194 696L172 498L135 502Z" />
<glyph unicode="#" glyph-name="numbersign" horiz-adv-x="600" d="M67 426V471H539V426H67ZM61 206V251H533V206H61ZM353 0L383 671Q407 671 433 666L403 0H353ZM175 0L205 671Q235 671 255 666L225 0H175Z" />
<glyph unicode="$" glyph-name="dollar" horiz-adv-x="570" d="M113 568T164 613T292 664L296 745Q321 745 336 740L332 664Q399 661 457 638L442 586Q383 604 330 605L320 371Q354 356 369 349T413 323T454 287Q489 241 489 172T438 55T303 -3L300 -83H260L263
-5Q167 -3 89 57L105 107Q182 56 266 56L277 310Q173 357 146 394Q113 441 113 504ZM355 68T384 98T414 173T389 244T316 293L306 59Q355 68 384 98ZM190 504Q190 433 280 390L290 602Q246 594 218 568T190 504Z" />
<glyph unicode="%" glyph-name="percent" horiz-adv-x="867" d="M209 358Q292 358 292 499Q292 558 277 591T215 624Q138 624 138 486Q138 447 141 423T161 378T209 358ZM350 421T314 367T207 313T108 357T80 484T112 618T215 669T317 623T350 499ZM665 671L231
-33Q209 -26 197 -12L631 692Q653 685 665 671ZM646 52Q729 52 729 193Q729 252 714 285T652 318Q575 318 575 180Q575 141 578 117T598 72T646 52ZM787 115T751 61T644 7T545 51T517 178T549 312T652 363T754 317T787 193Z" />
<glyph unicode="&amp;" glyph-name="ampersand" horiz-adv-x="705" d="M381 406Q381 437 360 454T302 471Q167 471 140 285Q381 288 381 406ZM293 54Q361 54 413 94T490 195T515 324L670 337L664 283L578 271Q554 149 476 69T285 -11T115 56T58 245T125 451T306
536Q365 536 406 507T447 424Q447 406 439 398L443 393Q474 421 498 472T529 567L573 555Q573 494 537 427T450 316Q347 230 138 229Q138 54 293 54Z" />
<glyph unicode="&apos;" glyph-name="quotesingle" horiz-adv-x="128" d="M44 498Q31 642 31 665Q31 702 55 702L98 696L81 502L44 498Z" />
<glyph unicode="(" glyph-name="parenleft" horiz-adv-x="306" d="M70 4T70 283T234 745L266 719Q147 542 147 282T266 -153L234 -179Q70 4 70 283Z" />
<glyph unicode=")" glyph-name="parenright" horiz-adv-x="306" d="M40 -153Q159 22 159 282T40 719L72 745Q236 562 236 283T72 -179L40 -153Z" />
<glyph unicode="*" glyph-name="asterisk" horiz-adv-x="300" d="M15 709V714L24 733H25L113 710L147 797L186 790V697L282 695L289 660L193 627L215 542H214Q195 532 191 532Q175 532 163 555L138 602L53 551L33 571L84 656L37 681Q26 687 21 695T15 709Z" />
<glyph unicode="+" glyph-name="plus" horiz-adv-x="409" d="M171 130V451H238V130H171ZM51 257V324L358 320L352 261L51 257Z" />
<glyph unicode="," glyph-name="comma" horiz-adv-x="208" d="M77 0Q81 20 81 35T75 68L133 75Q155 67 155 44T142 -11L101 -108L58 -93L77 0Z" />
<glyph unicode="-" glyph-name="hyphen" horiz-adv-x="315" d="M51 232V299L280 295L274 236L51 232Z" />
<glyph unicode="." glyph-name="period" horiz-adv-x="208" d="M60 32Q60 79 106 79Q148 79 148 34T104 -12T60 32Z" />
<glyph unicode="/" glyph-name="slash" horiz-adv-x="371" d="M370 735L48 -74Q14 -71 0 -59L322 750Q356 747 370 735Z" />
<glyph unicode="0" glyph-name="zero" horiz-adv-x="550" d="M429 52T383 20T272 -12T163 14T93 88Q50 175 50 324Q50 468 98 564Q124 615 171 643T283 671T392 647T461 576Q506 490 506 350T455 106Q429 52 383 20ZM197 73Q228 50 273 50T350 78T399 154Q429
242 429 350Q429 457 405 526Q376 609 284 609Q238 609 205 584T156 514Q127 434 127 324Q127 125 197 73Z" />
<glyph unicode="1" glyph-name="one" horiz-adv-x="550" d="M145 0V62H268L271 579L133 490L100 535L274 671L344 659V62H463V0H145Z" />
<glyph unicode="2" glyph-name="two" horiz-adv-x="550" d="M65 0V27Q121 83 183 154T261 248T304 310T342 376Q375 448 375 501T338 580T236 607T110 587L95 642Q170 671 256 671T397 627T452 495Q452 330 188 61L466 64L470 0H65Z" />
<glyph unicode="3" glyph-name="three" horiz-adv-x="550" d="M84 108Q151 50 228 50T346 87T388 191T348 288T239 320H175V375Q226 381 258 381T314 378Q376 424 376 499Q376 551 339 579T243 607T124 587L109 642Q184 671 265 671T399 626T453 499T378 358Q465
314 465 193Q465 101 405 45T252 -12Q201 -12 151 5T68 56L84 108Z" />
<glyph unicode="4" glyph-name="four" horiz-adv-x="550" d="M69 195V222L227 671L295 659L156 257H350V470H424V257H500L491 195H424V0H350V195H69Z" />
<glyph unicode="5" glyph-name="five" horiz-adv-x="550" d="M94 108Q164 50 246 50Q408 50 408 205Q408 274 369 310T267 346T121 335L143 659H450L441 597H208L195 402Q246 408 289 408Q381 408 433 354T485 203T424 47T266 -12Q144 -12 78 57L94 108Z" />
<glyph unicode="6" glyph-name="six" horiz-adv-x="550" d="M351 609Q258 609 209 551T150 388Q227 408 290 408Q389 408 442 355T496 206T438 49T288 -12Q185 -12 134 54Q87 113 76 220Q71 266 71 343T99 496T190 622T342 671Q406 671 460 653L445 599Q398 609
351 609ZM288 50Q352 50 386 92T420 203Q420 346 280 346Q217 346 148 332Q148 172 182 110Q196 85 223 68T288 50Z" />
<glyph unicode="7" glyph-name="seven" horiz-adv-x="550" d="M125 317V379H288L382 597H83L79 659H474V632L364 379H470L461 317H337L197 -7L127 5L261 317H125Z" />
<glyph unicode="8" glyph-name="eight" horiz-adv-x="550" d="M98 499Q98 573 149 622T274 671T401 627T453 509Q453 410 359 348Q420 321 454 283T488 177Q488 88 428 38T275 -12T123 36T63 172Q63 227 96 275T182 353Q98 404 98 499ZM133 173Q133 116 173 83T274
49T376 82T418 173Q418 212 402 230T376 257T344 277T311 293Q268 313 231 326Q133 264 133 173ZM382 503Q382 553 353 581T275 610T197 581T166 504T198 430T306 371Q382 428 382 503Z" />
<glyph unicode="9" glyph-name="nine" horiz-adv-x="550" d="M199 50Q292 50 341 108T400 271Q323 251 260 251Q161 251 108 304T54 453T112 610T262 671Q365 671 416 605Q463 546 474 440Q479 393 479 316T451 163T360 37T208 -12Q144 -12 90 6L105 60Q153 50
199 50ZM262 609Q198 609 164 567T130 456Q130 313 270 313Q333 313 402 327Q402 487 368 548Q354 574 327 591T262 609Z" />
<glyph unicode=":" glyph-name="colon" horiz-adv-x="208" d="M60 315Q60 362 106 362Q148 362 148 317T104 271T60 315ZM60 32Q60 79 106 79Q148 79 148 34T104 -12T60 32Z" />
<glyph unicode=";" glyph-name="semicolon" horiz-adv-x="208" d="M60 315Q60 362 106 362Q148 362 148 317T104 271T60 315ZM77 0Q81 20 81 35T75 68L133 75Q155 67 155 44T142 -11L101 -108L58 -93L77 0Z" />
<glyph unicode="&lt;" glyph-name="less" horiz-adv-x="433" d="M54 257L51 319L347 490L382 437L112 288L382 139L347 86L54 257Z" />
<glyph unicode="=" glyph-name="equal" horiz-adv-x="430" d="M51 306V373L379 369L373 310L51 306ZM51 182V249L379 245L373 186L51 182Z" />
<glyph unicode="&gt;" glyph-name="greater" horiz-adv-x="433" d="M86 86L51 139L321 288L51 437L86 490L382 319L379 257L86 86Z" />
<glyph unicode="?" glyph-name="question" horiz-adv-x="360" d="M76 34Q76 83 124 83Q168 83 168 36T122 -12T76 34Q76 83 124 83Q168 83 168 36T122 -12T76 34ZM146 362Q248 362 248 516T130 671Q103 671 74 665L65 713Q104 733 144 733Q230 733 277 674T325
520T285 368T162 310L145 311L151 203L103 191Q86 194 81 211T75 273L74 369Q103 362 146 362Z" />
<glyph unicode="@" glyph-name="at" horiz-adv-x="933" d="M476 -175Q307 -175 189 -54T70 239T186 533T472 655T753 558T863 285Q863 161 817 80T680 -1Q626 -1 604 35Q587 62 587 85T589 122H583Q567 64 530 30T438 -5Q353 -5 315 53T276 219T331 401T492 475Q530
475 567 468T641 445V198Q641 119 652 85T695 50Q793 50 793 285Q793 439 704 520T472 602T235 497T140 240T238 -17T476 -123Q536 -123 593 -103L605 -147Q543 -175 476 -175ZM577 338V409Q548 423 492 423Q349 423 349 207Q349 49 445 49Q485 49 513 76T554 152Q577
236 577 338Z" />
<glyph unicode="A" glyph-name="A" horiz-adv-x="569" d="M22 0L246 690L321 699L546 0H469L408 195H159L99 0H22ZM288 618H282Q281 591 272 561L179 260H388L298 561Q292 583 290 600T288 618Z" />
<glyph unicode="B" glyph-name="B" horiz-adv-x="597" d="M113 682Q185 694 281 694T434 652T491 530Q491 475 463 438T381 386V380Q447 372 487 322T527 204Q527 103 456 46T273 -12T110 11L113 682ZM265 53Q349 53 398 89T447 201T405 307T276 337L188 333V58Q216
53 265 53ZM413 460T413 520T378 604T276 629L188 625V395L260 398Q329 401 371 430Z" />
<glyph unicode="C" glyph-name="C" horiz-adv-x="524" d="M316 -12Q174 -12 120 92Q70 187 70 340T144 593T350 694Q414 694 473 674L458 618Q407 628 359 628Q150 628 150 338Q150 131 240 76Q277 54 331 54Q418 54 488 112L504 61Q438 -12 316 -12Z" />
<glyph unicode="D" glyph-name="D" horiz-adv-x="626" d="M300 694Q558 694 558 349Q558 196 490 95Q457 45 402 17T275 -12Q162 -12 110 11L113 682Q195 694 300 694ZM265 53Q376 53 427 136T478 352Q478 629 276 629L188 625V58Q216 53 265 53Z" />
<glyph unicode="E" glyph-name="E" horiz-adv-x="501" d="M188 154Q188 101 182 65H459L456 0H110L113 690H459L456 625H187Q189 596 189 536L188 405H428V340H188V154Z" />
<glyph unicode="F" glyph-name="F" horiz-adv-x="472" d="M184 625Q187 571 187 536L185 405H415V340H185V0H110V690H443V625H184Z" />
<glyph unicode="G" glyph-name="G" horiz-adv-x="592" d="M429 293H344V359H504V36Q438 -12 324 -12Q180 -12 122 90Q70 182 70 338T145 594T360 694Q428 694 489 674L474 618Q419 628 369 628Q150 628 150 338Q150 130 244 76Q282 54 334 54T429 69V293Z" />
<glyph unicode="H" glyph-name="H" horiz-adv-x="676" d="M188 690V405H489V690H563L566 0H489V340H188V0H110L113 690H188Z" />
<glyph unicode="I" glyph-name="I" horiz-adv-x="298" d="M188 690V0H110L113 690H188Z" />
<glyph unicode="J" glyph-name="J" horiz-adv-x="307" d="M122 119V690L197 702V106Q197 38 191 -6T166 -89Q130 -164 12 -164L2 -105Q47 -105 78 -82Q98 -68 112 -20Q122 10 122 119Z" />
<glyph unicode="K" glyph-name="K" horiz-adv-x="563" d="M110 0V690H185V382L283 385L455 702L531 690L342 356L455 134Q481 85 501 65T551 45L553 -3Q547 -8 524 -8Q478 -8 451 17T395 99L282 320L185 317V0H110Z" />
<glyph unicode="L" glyph-name="L" horiz-adv-x="493" d="M188 154Q188 101 182 65H443L440 0H110L113 690L188 702V154Z" />
<glyph unicode="M" glyph-name="M" horiz-adv-x="828" d="M211 615Q215 611 215 587T214 543L168 0H93L153 690H262L402 238Q410 212 412 181H418Q419 208 428 238L569 690H677L733 0H658Q615 560 615 579T619 615H613L453 101L378 92L217 615H211Z" />
<glyph unicode="N" glyph-name="N" horiz-adv-x="680" d="M495 162V690H570L567 0H466L203 559L181 610L176 609Q185 588 185 528V0H110L113 690H214L477 131L499 80L504 81Q495 102 495 162Z" />
<glyph unicode="O" glyph-name="O" horiz-adv-x="687" d="M337 51Q393 51 433 77T496 150Q539 238 539 365Q539 518 482 584Q438 636 352 636Q298 636 258 611T194 543Q150 458 150 339Q150 51 337 51ZM328 -12Q262 -12 209 13T126 86Q70 177 70 339Q70 554 193
651Q258 702 352 702Q495 702 556 614T617 364Q617 169 521 64Q452 -12 328 -12Z" />
<glyph unicode="P" glyph-name="P" horiz-adv-x="523" d="M300 694Q391 694 447 648T503 515Q503 319 248 316L188 315V0H110L113 682Q175 694 300 694ZM286 629Q210 629 188 625V377L250 378Q423 381 423 510Q423 629 286 629Z" />
<glyph unicode="Q" glyph-name="Q" horiz-adv-x="705" d="M337 -12Q187 -12 126 86Q70 177 70 339Q70 554 193 651Q258 702 352 702Q495 702 556 614T617 364Q617 246 578 153T461 17L466 11Q514 -56 573 -56Q574 -56 585 -56T616 -46L635 -97Q591 -125 549 -125Q468
-125 415 -46L389 -7Q362 -12 337 -12ZM337 51Q393 51 433 77T496 150Q539 238 539 365Q539 518 482 584Q438 636 352 636Q298 636 258 611T194 543Q150 458 150 339Q150 51 337 51Z" />
<glyph unicode="R" glyph-name="R" horiz-adv-x="571" d="M113 682Q202 694 296 694T447 647T503 515Q503 370 356 330L456 133Q480 84 500 65T550 45L553 -3Q549 -7 514 -7T450 18T395 98L283 318Q268 315 248 315H186V0H110L113 682ZM186 378H250Q423 378 423
511Q423 628 285 628Q229 628 186 622V378Z" />
<glyph unicode="S" glyph-name="S" horiz-adv-x="480" d="M53 107Q132 53 205 53T320 87T362 181Q362 230 332 258Q300 289 232 320Q212 330 204 334Q136 366 99 408T61 527T118 653T257 702T405 673L390 618Q330 638 273 638T177 609T138 531T165 454Q196 422
275 386Q347 352 373 329Q409 296 418 276Q437 228 437 185Q437 94 375 41T215 -12T37 54L53 107Z" />
<glyph unicode="T" glyph-name="T" horiz-adv-x="450" d="M264 625V0H184L187 625H10L13 690H443L435 625H264Z" />
<glyph unicode="U" glyph-name="U" horiz-adv-x="650" d="M170 147T209 100T324 53T438 93T476 211V690H549L551 215Q552 106 493 47T324 -12T156 49T99 225L102 690L174 702L171 227Q170 147 209 100Z" />
<glyph unicode="V" glyph-name="V" horiz-adv-x="545" d="M258 88V80H264Q264 85 264 98T271 137L439 690H519L296 0L226 -9L14 690H94L251 137Q258 114 258 88Z" />
<glyph unicode="W" glyph-name="W" horiz-adv-x="843" d="M272 80Q272 117 281 147L402 528L363 690H439L569 137L578 80H584Q584 85 584 107T591 157L735 690H815L617 0L534 -9L433 414H427Q428 411 428 400T415 345L307 0L225 -9L40 690H120L257 137L266 80H272Z" />
<glyph unicode="X" glyph-name="X" horiz-adv-x="567" d="M30 0L233 365L60 690L140 699L288 410L440 690H525L335 365L535 0H450L284 315L115 0H30Z" />
<glyph unicode="Y" glyph-name="Y" horiz-adv-x="489" d="M203 0V310L12 690L87 699L244 378L397 690H477L278 310V0H203Z" />
<glyph unicode="Z" glyph-name="Z" horiz-adv-x="498" d="M20 0V27L349 623V631Q319 628 40 621L36 690H456V663L127 67V59Q158 62 443 69V0H20Z" />
<glyph unicode="[" glyph-name="bracketleft" horiz-adv-x="243" d="M135 -16Q135 -69 129 -105H236L239 -167H60V733H239L236 671H129Q135 642 135 582V-16Z" />
<glyph unicode="\" glyph-name="backslash" horiz-adv-x="371" d="M48 750L370 -59Q356 -71 322 -74L0 735Q14 747 48 750Z" />
<glyph unicode="]" glyph-name="bracketright" horiz-adv-x="243" d="M108 582Q108 635 114 671H7L4 733H183V-167H4L7 -105H114Q108 -76 108 -16V582Z" />
<glyph unicode="^" glyph-name="asciicircum" horiz-adv-x="494" d="M30 428L218 733L280 730L464 427L411 392L247 672L83 392L30 428Z" />
<glyph unicode="_" glyph-name="underscore" horiz-adv-x="531" d="M51 -12V55L480 51L474 -8L51 -12Z" />
<glyph unicode="`" glyph-name="grave" horiz-adv-x="264" d="M124 686Q145 686 182 633L241 550L211 530L82 648L112 683Q117 686 124 686Z" />
<glyph unicode="a" glyph-name="a" horiz-adv-x="531" d="M365 341V414Q336 429 278 429Q130 429 130 206Q130 43 229 43Q271 43 299 71T342 149Q365 234 365 341ZM222 -12Q135 -12 95 48T55 218T111 405T278 482Q317 482 355 474T432 451V197Q432 95 450 68Q467
41 507 41L509 -4Q493 -8 469 -8Q416 -8 393 29Q376 56 376 93Q376 105 378 119H372Q355 59 318 24T222 -12Z" />
<glyph unicode="b" glyph-name="b" horiz-adv-x="525" d="M157 159V56Q186 41 244 41Q392 41 392 275Q392 425 298 425Q245 425 212 380T168 280T157 159ZM159 460Q159 407 151 371H157Q179 428 215 455T310 482Q397 482 432 426T467 256T412 66T244 -12Q205 -12
167 -4T90 19V734L159 745V460Z" />
<glyph unicode="c" glyph-name="c" horiz-adv-x="412" d="M241 -12Q54 -12 54 218Q54 332 109 407T268 482Q327 482 373 462L362 410Q321 424 276 424Q129 424 129 216Q129 47 253 47Q316 47 371 82L382 43Q357 18 318 3T241 -12Z" />
<glyph unicode="d" glyph-name="d" horiz-adv-x="531" d="M222 -12Q135 -12 95 48T55 218T111 405T278 482Q321 482 365 464V733L432 745V197Q432 108 445 75T503 41L505 -4Q492 -8 465 -8Q415 -8 396 22T376 91Q376 101 377 113H371Q331 -12 222 -12ZM365 311V414Q336
429 278 429Q130 429 130 206Q130 43 229 43Q268 43 296 68T339 136Q365 215 365 311Z" />
<glyph unicode="e" glyph-name="e" horiz-adv-x="433" d="M330 367Q330 396 312 411T264 426Q204 426 170 377T131 257Q330 257 330 367ZM244 -12Q56 -12 56 228Q56 338 111 410T268 482Q330 482 366 453T403 372T379 288T312 238Q233 206 129 206Q129 47 256
47Q320 47 377 82L388 43Q363 18 323 3T244 -12Z" />
<glyph unicode="f" glyph-name="f" horiz-adv-x="312" d="M40 417V460L120 470V538Q120 745 272 745Q305 745 331 732L321 688Q307 692 279 692T233 680T206 643Q192 605 192 536V470H321V417H192L191 -93Q191 -135 186 -153T163 -175L107 -163Q122 -145 122 -79L120
417H40Z" />
<glyph unicode="g" glyph-name="g" horiz-adv-x="531" d="M372 30Q372 77 379 119H373Q335 -12 223 -12Q138 -12 97 49T56 220T112 405T279 482Q320 482 360 474T440 448L441 30Q441 -97 395 -168T238 -240Q198 -240 156 -226T89 -185L100 -146Q158 -184 235 -184T342
-130T372 30ZM230 43Q373 43 373 411Q341 429 279 429Q131 429 131 206Q131 137 154 90T230 43Z" />
<glyph unicode="h" glyph-name="h" horiz-adv-x="545" d="M161 460Q161 407 153 371H159Q200 482 312 482Q391 482 421 443T451 324Q451 321 450 222T448 96T454 56T497 43L499 -2Q485 -8 458 -8Q410 -8 393 14T375 84Q375 86 377 192T379 302Q379 360 364 392T298
425T214 380T170 280T159 159V0H90V733L161 745V460Z" />
<glyph unicode="i" glyph-name="i" horiz-adv-x="264" d="M174 -8Q128 -8 110 14T92 86V470H164V127Q164 74 172 59T218 43L220 -1Q197 -8 174 -8ZM85 627Q85 674 131 674Q173 674 173 629T129 583T85 627Z" />
<glyph unicode="j" glyph-name="j" horiz-adv-x="252" d="M-39 -183Q-25 -187 -3 -187T34 -183T58 -172T73 -153T83 -130T88 -100T90 -68V470H162V-31Q162 -138 131 -189T10 -240Q-23 -240 -49 -227L-39 -183ZM81 627Q81 674 127 674Q169 674 169 629T125 583T81 627Z" />
<glyph unicode="k" glyph-name="k" horiz-adv-x="483" d="M90 0V733L158 745L159 470Q159 417 151 371H157Q174 422 215 452T311 482T401 452T437 368T394 277T287 226L345 125Q372 79 394 61T446 42L448 -3Q442 -8 418 -8Q370 -8 341 16T285 93L207 242V260Q270
260 316 288T362 368Q362 396 344 411T296 426Q249 426 216 391Q158 328 158 206V0H90Z" />
<glyph unicode="l" glyph-name="l" horiz-adv-x="264" d="M92 86V733L164 745V127Q164 74 172 59T218 43L220 -1Q204 -8 166 -8T110 14T92 86Z" />
<glyph unicode="m" glyph-name="m" horiz-adv-x="789" d="M161 450Q161 397 153 361H159Q174 418 209 450T296 482Q419 482 419 361H425Q456 482 563 482Q643 482 669 445T695 326Q695 322 694 226T692 99T698 56T741 43L743 -2Q729 -8 702 -8Q654 -8 637 14T619
84Q619 86 621 194T623 312Q623 368 611 396T554 425Q428 425 428 147V0H359V294Q359 383 344 402Q324 425 287 425Q159 425 159 139V0H90V470L161 479V450Z" />
<glyph unicode="n" glyph-name="n" horiz-adv-x="545" d="M161 450Q161 397 153 361H159Q173 417 213 449T312 482Q391 482 421 443T451 324Q451 321 450 222T448 96T454 56T497 43L499 -2Q485 -8 458 -8Q410 -8 393 14T375 84Q375 86 377 192T379 302Q379 360
364 392T305 425T231 397T186 324Q159 237 159 139V0H90V470L161 479V450Z" />
<glyph unicode="o" glyph-name="o" horiz-adv-x="520" d="M252 41Q302 41 334 72T377 147T389 248Q389 427 262 427Q215 427 184 397Q128 344 128 228Q128 41 252 41ZM464 137T409 63T249 -12T100 48T56 226T107 412T261 482T414 420T464 247Z" />
<glyph unicode="p" glyph-name="p" horiz-adv-x="527" d="M142 479Q162 471 162 433T155 357H161Q195 482 312 482Q399 482 434 426T469 256T414 66T246 -12Q203 -12 159 6V-228H92V323Q92 424 81 472L142 479ZM159 159V56Q188 41 246 41Q394 41 394 275Q394 425
300 425Q261 425 232 400T188 332Q159 252 159 159Z" />
<glyph unicode="q" glyph-name="q" horiz-adv-x="522" d="M365 331V414Q336 429 278 429Q130 429 130 206Q130 43 229 43Q270 43 298 70T340 145Q365 230 365 331ZM363 10Q363 63 371 99H365Q325 -12 222 -12Q135 -12 95 48T55 218T111 405T278 482Q317 482 355
474T432 451V-228H363V10Z" />
<glyph unicode="r" glyph-name="r" horiz-adv-x="364" d="M142 479Q162 471 162 428T155 347H161Q183 418 212 450T303 482L334 478L325 409Q312 412 293 412Q254 412 227 387T186 318Q161 241 161 145V0H92V323Q92 424 81 472L142 479Z" />
<glyph unicode="s" glyph-name="s" horiz-adv-x="379" d="M176 43Q220 43 250 63T280 122Q280 162 242 185Q223 196 196 207T163 222Q113 244 86 274T58 359T103 448T209 482T319 458L308 413Q258 427 220 427T153 410T125 361T144 313T183 286T227 268T258 254T284
240T310 220T328 196Q347 171 347 125Q347 59 298 24T174 -12T40 38L51 78Q108 43 176 43Z" />
<glyph unicode="t" glyph-name="t" horiz-adv-x="358" d="M319 50L329 6Q292 -12 240 -12Q166 -12 142 28T118 155V417H38V460L118 470V574L190 586V470H319V417H190V177Q190 84 206 64Q226 41 260 41T319 50Z" />
<glyph unicode="u" glyph-name="u" horiz-adv-x="533" d="M90 401Q90 449 78 472L135 482Q152 478 156 462T161 429Q161 417 157 292T153 152T154 121T164 84Q178 45 232 45Q272 45 300 73T342 149Q367 234 367 335V470H434V197Q434 108 447 75T505 41L507 -4Q491
-8 467 -8Q417 -8 398 21T378 90Q378 101 379 113H373Q357 52 315 20T204 -12T108 30T81 145Q81 154 85 274T90 401Z" />
<glyph unicode="v" glyph-name="v" horiz-adv-x="446" d="M328 374T328 412T319 475L380 482Q401 470 401 426T387 336T330 193L245 0H182L84 328Q54 428 30 470L82 480Q97 480 106 465T130 405L226 87H232Q229 95 229 108T238 143Q309 308 318 341Z" />
<glyph unicode="w" glyph-name="w" horiz-adv-x="672" d="M556 416Q556 450 547 475L603 482Q624 467 624 427T622 366Q614 301 562 193L472 0H409L355 193Q345 227 349 261H343Q338 237 320 193L240 0H177L84 331Q56 433 36 460L30 470L82 480Q98 480 107 466T130
408L221 87H227Q226 92 226 104T238 143L272 222Q314 320 314 416Q314 447 305 472L361 479Q382 462 382 423T378 350L453 87H459Q458 92 458 104T470 143L504 222Q556 343 556 416Z" />
<glyph unicode="x" glyph-name="x" horiz-adv-x="447" d="M421 -1Q415 -8 383 -8T326 15T272 93L220 192L106 0H26L184 244L111 381Q96 410 81 428T49 454L87 482Q126 482 146 452Q157 435 230 298L329 470H409L266 244L326 135Q351 89 371 67T418 44L421 -1Z" />
<glyph unicode="y" glyph-name="y" horiz-adv-x="528" d="M91 401Q91 449 79 472L136 482Q153 478 157 462T162 429Q162 417 158 293T154 162Q154 109 169 77T226 45T295 73T338 146Q370 238 370 345V470H437L438 30Q438 -97 392 -168T235 -240Q195 -240 153 -226T86
-185L97 -146Q155 -184 232 -184T339 -130T369 30Q369 88 376 119H370Q333 -12 211 -12Q134 -12 108 27T82 140Q82 148 86 271T91 401Z" />
<glyph unicode="z" glyph-name="z" horiz-adv-x="402" d="M277 418Q257 415 190 415T56 404L47 465Q64 475 100 475L374 470V452L132 55H215Q320 55 362 66L371 5Q358 -6 304 -6Q278 -6 30 0V18L277 412V418Z" />
<glyph unicode="{" glyph-name="braceleft" horiz-adv-x="307" d="M123 176Q123 213 110 239T60 277L66 305Q123 326 123 405Q123 409 120 491T117 594T120 639T136 691Q160 745 242 745Q276 745 303 733L294 692Q281 695 259 695T222 686Q194 667 194 595Q194
584 197 503T200 414Q200 365 188 337T137 288Q175 268 187 240T200 162Q200 154 197 67T193 -31T194 -59T202 -92Q213 -129 261 -129L294 -126L303 -168Q278 -179 240 -179T174 -166Q117 -136 117 -23Q117 -15 120 78T123 176Z" />
<glyph unicode="|" glyph-name="bar" horiz-adv-x="176" d="M63 -169V733H113V-169H63Z" />
<glyph unicode="}" glyph-name="braceright" horiz-adv-x="307" d="M13 -126Q26 -129 48 -129T85 -119Q114 -100 114 -31Q107 154 107 182Q107 255 170 288Q132 308 120 336T107 414Q107 423 110 504T113 597T112 623T105 657Q93 695 46 695L13 692L4 733Q31 745
68 745T132 732Q190 702 190 589Q190 579 187 494T184 405Q184 326 241 305L247 277Q210 265 197 239T184 176Q184 173 187 83T190 -28T187 -73T172 -125Q146 -179 65 -179Q29 -179 4 -168L13 -126Z" />
<glyph unicode="~" glyph-name="asciitilde" horiz-adv-x="590" d="M98 268T128 285T193 302Q231 302 288 285T363 266T401 263Q455 263 480 286L510 270Q465 203 389 203Q361 203 284 223T190 243Q144 243 110 220L80 236Q98 268 128 285Z" />
<glyph unicode="&#xa1;" glyph-name="exclamdown" horiz-adv-x="237" d="M138 387Q90 387 90 436Q90 482 136 482T182 435T138 387Q90 387 90 436Q90 482 136 482T182 435T138 387ZM137 -241Q135 -241 80 -228L108 287H161L160 -158Q160 -203 155 -222T137 -241Z" />
<glyph unicode="&#xa2;" glyph-name="cent" horiz-adv-x="412" d="M54 288Q54 392 101 465T236 550L242 671Q267 671 282 666L276 552Q330 550 373 532L362 480Q321 494 274 494L257 117Q320 119 371 152L382 113Q336 65 254 58L249 -59H209L214 59Q54 74 54 288ZM129
286Q129 142 217 121L234 489Q129 461 129 286Z" />
<glyph unicode="&#xa3;" glyph-name="sterling" horiz-adv-x="570" d="M111 312V374H179Q171 443 171 461Q171 559 222 615T368 671Q427 671 473 651L462 599Q421 613 376 613Q307 613 276 577T245 467Q245 448 254 374H442L433 312H261Q278 183 278 158T265 102T225
61L494 64L498 0H125V27Q202 71 202 172Q202 188 187 312H111Z" />
<glyph unicode="&#xa4;" glyph-name="currency" horiz-adv-x="462" d="M105 208Q82 243 82 289T107 373L63 419L105 461L150 416Q188 439 232 439T311 416L357 461L399 420L354 375Q381 337 381 291T357 208L402 164L355 117L310 162Q274 140 231 140T151 162L107
117L60 163L105 208ZM130 330T130 289T160 218T231 188T302 218T333 289T303 361T232 392T161 361Z" />
<glyph unicode="&#xa5;" glyph-name="yen" horiz-adv-x="570" d="M496 310Q496 306 496 295T489 268L323 262V205L491 212Q491 208 491 197T484 170L323 164V0H248V161L75 155L77 195L248 202V259L80 253L82 293L242 299L57 659L132 668L289 357L442 659H522L330
303L496 310Z" />
<glyph unicode="&#xa6;" glyph-name="brokenbar" horiz-adv-x="176" d="M67 342L63 733H113L111 342H67ZM63 -169L66 222H111L113 -169H63Z" />
<glyph unicode="&#xa7;" glyph-name="section" horiz-adv-x="833" d="M613 11Q613 -72 559 -115T415 -159Q373 -159 328 -145T254 -105L269 -57Q341 -97 406 -97T507 -70T543 8Q543 59 484 94Q458 110 427 124T364 155T306 192Q247 237 247 317Q247 352 267 384T320
434Q270 482 270 552T321 662T446 702T584 672L570 622Q507 643 457 643T373 621T340 560T362 497T419 457T493 421T567 380T623 323T646 246T625 171T570 121Q613 75 613 11ZM357 405Q319 372 319 326T352 252T447 198T536 151Q574 184 574 236Q574 267 552 292T501
331T428 366T357 405Z" />
<glyph unicode="&#xa8;" glyph-name="dieresis" horiz-adv-x="533" d="M145 601Q145 645 188 645Q206 645 216 634T227 603T216 572T186 560T156 571T145 601ZM305 601Q305 645 348 645Q366 645 376 634T387 603T376 572T346 560T316 571T305 601Z" />
<glyph unicode="&#xa9;" glyph-name="copyright" horiz-adv-x="810" d="M256 -16T152 88T48 340T152 593T404 698T657 593T762 340T658 88T405 -16ZM274 24T404 24T627 117T720 340T627 564T404 658T182 565T90 341T182 117ZM537 166Q488 114 401 114T275 174T237
338T287 507T430 572Q477 572 515 557L501 505Q466 513 437 513Q366 513 337 469T308 342T331 216T415 172T523 206L537 166Z" />
<glyph unicode="&#xaa;" glyph-name="ordfeminine" d="M269 598V642Q247 651 216 651Q123 651 123 514Q123 415 183 415Q269 415 269 598ZM173 370Q62 370 62 515Q62 596 102 646T217 696Q273 696 322 674V516Q322 480 323 464T336 432T372 417L374 376Q363 372
348 372Q310 372 295 391T280 428T282 456H277Q267 416 240 393T173 370Z" />
<glyph unicode="&#xab;" glyph-name="guillemotleft" horiz-adv-x="516" d="M71 200Q60 210 60 222Q60 240 71 253L264 423Q271 423 282 403T294 375L141 226L294 77Q294 69 283 49T264 29L71 200ZM233 200Q222 210 222 222Q222 240 233 253L426 423Q433 423 444
403T456 375L303 226L456 77Q456 69 445 49T426 29L233 200Z" />
<glyph unicode="&#xac;" glyph-name="logicalnot" horiz-adv-x="531" d="M51 218V278L480 277V114L430 117V224Q401 218 341 218H51Z" />
<glyph unicode="&#xae;" glyph-name="registered" horiz-adv-x="560" d="M183 269T116 336T48 500T115 665T279 733T444 665T512 501T444 337T280 269ZM86 420T142 363T279 306T417 363T474 500T417 638T280 696T143 639T86 501ZM278 644Q369 644 369 573Q369
512 310 492L345 426Q361 395 388 395L389 367Q380 364 366 364Q329 364 305 412L268 487H239V367H192L193 639Q238 644 278 644ZM239 523H255Q287 523 304 533T321 571Q321 608 273 608Q251 608 239 606V523Z" />
<glyph unicode="&#xb0;" glyph-name="degree" horiz-adv-x="351" d="M56 532T56 582T90 667T175 702T260 667T295 582T260 498T176 463T91 497ZM145 658T123 636T101 583T123 530T175 508T228 530T250 582T228 635T176 658Z" />
<glyph unicode="&#xb1;" glyph-name="plusminus" horiz-adv-x="409" d="M171 150V471H238V150H171ZM51 277V344L358 340L352 281L51 277ZM51 18V85L358 81L352 22L51 18Z" />
<glyph unicode="&#xb2;" glyph-name="twosuperior" horiz-adv-x="333" d="M36 376V400Q208 549 208 641Q208 696 140 696Q104 696 65 683L53 727Q97 745 146 745Q269 745 269 643Q269 592 225 528T129 419H275L277 376H36Z" />
<glyph unicode="&#xb3;" glyph-name="threesuperior" horiz-adv-x="345" d="M148 415Q222 415 222 482Q222 546 142 546H99V587Q128 591 153 591T191 588Q215 612 215 651Q215 696 152 696Q113 696 76 683L65 727Q109 745 162 745T246 725T276 656T234 574Q283
550 283 488Q283 370 157 370Q87 370 42 404L55 445Q98 415 148 415Z" />
<glyph unicode="&#xb4;" glyph-name="acute" horiz-adv-x="264" d="M82 550L141 633Q178 686 199 686L211 683L241 648L112 530L82 550Z" />
<glyph unicode="&#xb5;" glyph-name="mu" horiz-adv-x="551" d="M108 387Q108 446 96 472L153 482Q170 477 174 460T179 424Q179 411 175 289T171 152T172 121T182 84Q196 45 250 45Q290 45 318 73T360 149Q385 234 385 335V470H452V197Q452 108 465 75T523 41L525
-4Q509 -8 485 -8Q435 -8 416 21T396 90Q396 101 397 113H391Q357 -12 235 -12Q178 -12 159 28L154 27Q159 7 159 -47V-228L92 -216L108 387Z" />
<glyph unicode="&#xb6;" glyph-name="paragraph" horiz-adv-x="630" d="M445 0V682H520V0H445ZM325 0V325L265 326Q169 328 115 375T60 510T113 646T253 694Q323 694 385 682L388 0H325Z" />
<glyph unicode="&#xb7;" glyph-name="middot" horiz-adv-x="208" d="M60 217Q60 264 106 264Q148 264 148 219T104 173T60 217Z" />
<glyph unicode="&#xb8;" glyph-name="cedilla" horiz-adv-x="412" d="M202 -161Q245 -161 245 -119Q245 -80 188 -65L216 39L257 28L239 -38Q306 -59 306 -118Q306 -155 279 -178T214 -201Q178 -201 156 -185L165 -155Q180 -161 202 -161Z" />
<glyph unicode="&#xb9;" glyph-name="onesuperior" horiz-adv-x="310" d="M69 376V419H136L138 674L61 632L36 665L138 745L198 735V419H262V376H69Z" />
<glyph unicode="&#xba;" glyph-name="ordmasculine" horiz-adv-x="397" d="M194 415Q278 415 278 541Q278 594 261 622T200 651T137 616T117 528T133 445T194 415ZM339 467T301 419T192 370T90 409T58 527T93 650T199 696T304 655T339 541Z" />
<glyph unicode="&#xbb;" glyph-name="guillemotright" horiz-adv-x="516" d="M445 253Q456 242 456 230Q456 213 445 200L252 29Q245 29 234 49T222 77L375 226L222 375Q222 383 233 403T252 423L445 253ZM283 253Q294 242 294 230Q294 213 283 200L90 29Q83 29
72 49T60 77L213 226L60 375Q60 383 71 403T90 423L283 253Z" />
<glyph unicode="&#xbc;" glyph-name="onequarter" horiz-adv-x="900" d="M162 302V345H229L231 600L154 558L129 591L231 671L291 661V345H355V302H162ZM542 102V126L629 369L685 358L608 145H705V261H764V145H806L801 102H764V0H705V102H542ZM683 671L249 -33Q227
-26 215 -12L649 692Q671 685 683 671Z" />
<glyph unicode="&#xbd;" glyph-name="onehalf" horiz-adv-x="900" d="M531 7V31Q703 180 703 272Q703 327 635 327Q599 327 560 314L548 358Q592 376 641 376Q764 376 764 274Q764 223 720 159T624 50H770L772 7H531ZM162 302V345H229L231 600L154 558L129 591L231
671L291 661V345H355V302H162ZM683 671L249 -33Q227 -26 215 -12L649 692Q671 685 683 671Z" />
<glyph unicode="&#xbe;" glyph-name="threequarters" horiz-adv-x="900" d="M542 102V126L629 369L685 358L608 145H705V261H764V145H806L801 102H764V0H705V102H542ZM683 671L249 -33Q227 -26 215 -12L649 692Q671 685 683 671ZM218 341Q292 341 292 408Q292
472 212 472H169V513Q198 517 223 517T261 514Q285 538 285 577Q285 622 222 622Q183 622 146 609L135 653Q179 671 232 671T316 651T346 582T304 500Q353 476 353 414Q353 296 227 296Q157 296 112 330L125 371Q168 341 218 341Z" />
<glyph unicode="&#xbf;" glyph-name="questiondown" horiz-adv-x="340" d="M236 387Q192 387 192 434T238 482T284 436Q284 387 236 387Q192 387 192 434T238 482T284 436Q284 387 236 387ZM216 -240Q125 -240 80 -187T35 -36Q35 163 198 163L215 162L209 270L257
282Q274 279 279 262T285 200L286 104Q257 111 214 111Q155 111 134 74T112 -36T138 -143T230 -178Q257 -178 286 -172L295 -220Q256 -240 216 -240Z" />
<glyph unicode="&#xc0;" glyph-name="Agrave" horiz-adv-x="569" d="M22 0L246 690L321 699L546 0H469L408 195H159L99 0H22ZM288 618H282Q281 591 272 561L179 260H388L298 561Q292 583 290 600T288 618ZM197 838Q203 846 219 846T279 812L361 751L339 723L180
795L197 838Z" />
<glyph unicode="&#xc1;" glyph-name="Aacute" horiz-adv-x="569" d="M22 0L246 690L321 699L546 0H469L408 195H159L99 0H22ZM288 618H282Q281 591 272 561L179 260H388L298 561Q292 583 290 600T288 618ZM374 837L391 794L232 722L210 750L292 811Q336 845 351
845T374 837Z" />
<glyph unicode="&#xc2;" glyph-name="Acircumflex" horiz-adv-x="569" d="M22 0L246 690L321 699L546 0H469L408 195H159L99 0H22ZM288 618H282Q281 591 272 561L179 260H388L298 561Q292 583 290 600T288 618ZM191 724L169 752L238 833L309 842Q324 835 340 816L395
752L373 724L282 792L191 724Z" />
<glyph unicode="&#xc3;" glyph-name="Atilde" horiz-adv-x="569" d="M22 0L246 690L321 699L546 0H469L408 195H159L99 0H22ZM288 618H282Q281 591 272 561L179 260H388L298 561Q292 583 290 600T288 618ZM143 807T164 827T213 847Q241 847 284 830Q341 807 353
807Q381 807 404 840L434 824Q425 786 404 767T357 747T279 767T217 787Q188 787 164 754L134 770Q143 807 164 827Z" />
<glyph unicode="&#xc4;" glyph-name="Adieresis" horiz-adv-x="569" d="M22 0L246 690L321 699L546 0H469L408 195H159L99 0H22ZM288 618H282Q281 591 272 561L179 260H388L298 561Q292 583 290 600T288 618ZM168 786Q168 830 211 830Q229 830 239 819T250 788T239
757T209 745T179 756T168 786ZM328 786Q328 830 371 830Q389 830 399 819T410 788T399 757T369 745T339 756T328 786Z" />
<glyph unicode="&#xc5;" glyph-name="Aring" horiz-adv-x="569" d="M22 0L246 690L321 699L546 0H469L408 195H159L99 0H22ZM288 618H282Q281 591 272 561L179 260H388L298 561Q292 583 290 600T288 618ZM243 822Q243 778 287 778T331 823T289 869Q243 869 243
822ZM243 733T218 757T192 823T217 890T288 914T357 890T382 824T357 758T288 733Z" />
<glyph unicode="&#xc6;" glyph-name="AE" horiz-adv-x="722" d="M424 121T424 99T422 59L690 67V0L354 -9L341 195H147L72 0H-8L271 690L648 699V633L387 627Q394 586 404 402L634 409L638 343L408 336Q424 121 424 99ZM172 260L336 261L313 628H307Q304 600 293
571L172 260Z" />
<glyph unicode="&#xc7;" glyph-name="Ccedilla" horiz-adv-x="521" d="M271 -161Q314 -161 314 -119Q314 -80 257 -65L272 -9Q157 7 111 108Q70 198 70 345T144 593T350 694Q414 694 473 674L458 618Q407 628 359 628Q150 628 150 338Q150 131 240 76Q277 54 331
54Q418 54 488 112L504 61Q438 -12 316 -12H315L308 -38Q375 -59 375 -118Q375 -155 348 -178T283 -201Q247 -201 225 -185L234 -155Q249 -161 271 -161Z" />
<glyph unicode="&#xc8;" glyph-name="Egrave" horiz-adv-x="508" d="M198 154Q198 101 192 65H469L466 0H120L123 690H469L466 625H197Q200 596 200 536L198 405H438V340H198V154ZM188 838Q194 846 210 846T270 812L352 751L330 723L171 795L188 838Z" />
<glyph unicode="&#xc9;" glyph-name="Eacute" horiz-adv-x="508" d="M198 154Q198 101 192 65H469L466 0H120L123 690H469L466 625H197Q200 596 200 536L198 405H438V340H198V154ZM393 838L410 795L251 723L229 751L311 812Q355 846 370 846T393 838Z" />
<glyph unicode="&#xca;" glyph-name="Ecircumflex" horiz-adv-x="508" d="M198 154Q198 101 192 65H469L466 0H120L123 690H469L466 625H197Q200 596 200 536L198 405H438V340H198V154ZM203 725L181 753L250 834L321 843Q336 836 352 817L407 753L385 725L294
793L203 725Z" />
<glyph unicode="&#xcb;" glyph-name="Edieresis" horiz-adv-x="508" d="M198 154Q198 101 192 65H469L466 0H120L123 690H469L466 625H197Q200 596 200 536L198 405H438V340H198V154ZM168 786Q168 830 211 830Q229 830 239 819T250 788T239 757T209 745T179 756T168
786ZM328 786Q328 830 371 830Q389 830 399 819T410 788T399 757T369 745T339 756T328 786Z" />
<glyph unicode="&#xcc;" glyph-name="Igrave" horiz-adv-x="323" d="M200 690V0H122L125 690H200ZM73 838Q79 846 95 846T155 812L237 751L215 723L56 795L73 838Z" />
<glyph unicode="&#xcd;" glyph-name="Iacute" horiz-adv-x="323" d="M200 690V0H122L125 690H200ZM251 838L268 795L109 723L87 751L169 812Q213 846 228 846T251 838Z" />
<glyph unicode="&#xce;" glyph-name="Icircumflex" horiz-adv-x="323" d="M200 690V0H122L125 690H200ZM71 724L49 752L118 833L189 842Q204 835 220 816L275 752L253 724L162 792L71 724Z" />
<glyph unicode="&#xcf;" glyph-name="Idieresis" horiz-adv-x="323" d="M57 786Q57 830 100 830Q118 830 128 819T139 788T128 757T98 745T68 756T57 786ZM187 786Q187 830 230 830Q248 830 258 819T269 788T258 757T228 745T198 756T187 786ZM200 690V0H122L125
690H200Z" />
<glyph unicode="&#xd0;" glyph-name="Eth" horiz-adv-x="636" d="M310 694Q568 694 568 349Q568 196 500 95Q467 45 412 17T285 -12Q172 -12 120 11L121 324L45 323V385L122 384L123 682Q205 694 310 694ZM275 53Q386 53 437 136T488 352Q488 629 286 629L198
625V383L344 381L338 327L198 325V58Q226 53 275 53Z" />
<glyph unicode="&#xd1;" glyph-name="Ntilde" horiz-adv-x="700" d="M505 162V690H580L577 0H476L213 559L191 610L186 609Q195 588 195 528V0H120L123 690H224L487 131L509 80L514 81Q505 102 505 162ZM214 798T235 818T284 838Q312 838 354 821Q412 798 424
798Q452 798 475 831L505 815Q496 777 475 758T428 738T350 758T288 778Q259 778 235 745L205 761Q214 798 235 818Z" />
<glyph unicode="&#xd2;" glyph-name="Ograve" horiz-adv-x="693" d="M340 51Q396 51 436 77T500 150Q542 238 542 365Q542 518 486 584Q441 636 355 636Q301 636 261 611T198 543Q153 458 153 339Q153 51 340 51ZM331 -12Q265 -12 212 13T129 86Q73 177 73 339Q73
554 196 651Q261 702 355 702Q498 702 559 614T620 364Q620 169 524 64Q455 -12 331 -12ZM252 843Q258 851 274 851T334 817L416 756L394 728L235 800L252 843Z" />
<glyph unicode="&#xd3;" glyph-name="Oacute" horiz-adv-x="693" d="M340 51Q396 51 436 77T500 150Q542 238 542 365Q542 518 486 584Q441 636 355 636Q301 636 261 611T198 543Q153 458 153 339Q153 51 340 51ZM331 -12Q265 -12 212 13T129 86Q73 177 73 339Q73
554 196 651Q261 702 355 702Q498 702 559 614T620 364Q620 169 524 64Q455 -12 331 -12ZM456 843L473 800L314 728L292 756L374 817Q418 851 433 851T456 843Z" />
<glyph unicode="&#xd4;" glyph-name="Ocircumflex" horiz-adv-x="693" d="M340 51Q396 51 436 77T500 150Q542 238 542 365Q542 518 486 584Q441 636 355 636Q301 636 261 611T198 543Q153 458 153 339Q153 51 340 51ZM331 -12Q265 -12 212 13T129 86Q73 177 73
339Q73 554 196 651Q261 702 355 702Q498 702 559 614T620 364Q620 169 524 64Q455 -12 331 -12ZM255 725L233 753L302 834L373 843Q388 836 404 817L459 753L437 725L346 793L255 725Z" />
<glyph unicode="&#xd5;" glyph-name="Otilde" horiz-adv-x="693" d="M340 51Q396 51 436 77T500 150Q542 238 542 365Q542 518 486 584Q441 636 355 636Q301 636 261 611T198 543Q153 458 153 339Q153 51 340 51ZM331 -12Q265 -12 212 13T129 86Q73 177 73 339Q73
554 196 651Q261 702 355 702Q498 702 559 614T620 364Q620 169 524 64Q455 -12 331 -12ZM205 810T226 830T275 850Q303 850 346 833Q403 810 415 810Q443 810 466 843L496 827Q487 789 466 770T417 750Q387 750 322 777Q290 790 279 790Q250 790 226 757L196 773Q205
810 226 830Z" />
<glyph unicode="&#xd6;" glyph-name="Odieresis" horiz-adv-x="693" d="M340 51Q396 51 436 77T500 150Q542 238 542 365Q542 518 486 584Q441 636 355 636Q301 636 261 611T198 543Q153 458 153 339Q153 51 340 51ZM331 -12Q265 -12 212 13T129 86Q73 177 73
339Q73 554 196 651Q261 702 355 702Q498 702 559 614T620 364Q620 169 524 64Q455 -12 331 -12ZM235 787Q235 831 278 831Q296 831 306 820T317 789T306 758T276 746T246 757T235 787ZM395 787Q395 831 438 831Q456 831 466 820T477 789T466 758T436 746T406 757T395
787Z" />
<glyph unicode="&#xd7;" glyph-name="multiply" horiz-adv-x="357" d="M35 197L277 434L319 393L82 151L35 197ZM275 150L38 392L80 434L322 197L275 150Z" />
<glyph unicode="&#xd8;" glyph-name="Oslash" horiz-adv-x="687" d="M70 339Q70 554 193 651Q258 702 352 702Q410 702 453 687L478 750Q500 748 515 735L489 672Q617 603 617 364Q617 169 521 64Q489 29 442 9T335 -12T224 7L192 -74Q170 -72 155 -59L188 25Q70
99 70 339ZM250 72Q286 51 339 51T433 77T496 150Q539 238 539 365Q539 542 462 602L250 72ZM150 339Q150 167 217 97L427 622Q394 636 346 636T258 611T194 543Q150 458 150 339Z" />
<glyph unicode="&#xd9;" glyph-name="Ugrave" horiz-adv-x="652" d="M170 147T209 100T324 53T438 93T476 211V690H549L551 215Q552 106 493 47T324 -12T156 49T99 225L102 690L174 702L171 227Q170 147 209 100ZM224 838Q230 846 246 846T306 812L388 751L366
723L207 795L224 838Z" />
<glyph unicode="&#xda;" glyph-name="Uacute" horiz-adv-x="652" d="M170 147T209 100T324 53T438 93T476 211V690H549L551 215Q552 106 493 47T324 -12T156 49T99 225L102 690L174 702L171 227Q170 147 209 100ZM438 838L455 795L296 723L274 751L356 812Q400
846 415 846T438 838Z" />
<glyph unicode="&#xdb;" glyph-name="Ucircumflex" horiz-adv-x="652" d="M170 147T209 100T324 53T438 93T476 211V690H549L551 215Q552 106 493 47T324 -12T156 49T99 225L102 690L174 702L171 227Q170 147 209 100ZM239 725L217 753L286 834L357 843Q372 836
388 817L443 753L421 725L330 793L239 725Z" />
<glyph unicode="&#xdc;" glyph-name="Udieresis" horiz-adv-x="652" d="M170 147T209 100T324 53T438 93T476 211V690H549L551 215Q552 106 493 47T324 -12T156 49T99 225L102 690L174 702L171 227Q170 147 209 100ZM205 787Q205 831 248 831Q266 831 276 820T287
789T276 758T246 746T216 757T205 787ZM365 787Q365 831 408 831Q426 831 436 820T447 789T436 758T406 746T376 757T365 787Z" />
<glyph unicode="&#xdd;" glyph-name="Yacute" horiz-adv-x="485" d="M201 0V310L10 690L85 699L242 378L395 690H475L276 310V0H201ZM353 838L370 795L211 723L189 751L271 812Q315 846 330 846T353 838Z" />
<glyph unicode="&#xde;" glyph-name="Thorn" horiz-adv-x="833" d="M198 690V596Q256 600 310 600Q401 600 457 554T513 421Q513 225 258 222L198 221V0H120L123 690H198ZM296 535Q220 535 198 531V283L260 284Q433 287 433 416Q433 535 296 535Z" />
<glyph unicode="&#xdf;" glyph-name="germandbls" horiz-adv-x="550" d="M40 417V460L120 470V553Q120 644 164 694T290 745T421 708T471 603Q471 562 444 516T390 429T363 362T379 315T417 277T463 240Q518 193 518 128T470 25T353 -12Q326 -12 295 -3T245 21L257
61Q306 43 350 43T423 63T451 115T435 167T397 207T351 245Q296 293 296 360Q296 398 350 478T404 600T375 665T292 689T216 655T192 557L191 -93Q191 -135 186 -153T163 -175L107 -163Q122 -145 122 -79L120 417H40Z" />
<glyph unicode="&#xe0;" glyph-name="agrave" horiz-adv-x="531" d="M278 429Q130 429 130 206Q130 43 229 43Q271 43 299 71T342 149Q365 234 365 341V414Q331 429 278 429ZM376 93Q376 105 378 119H372Q355 59 318 24T222 -12Q55 -12 55 218Q55 329 111 405T278
482Q365 482 432 451V197Q432 164 434 127T450 68Q467 41 507 41L509 -4L469 -8Q416 -8 393 29Q376 56 376 93ZM228 686Q249 686 286 633L345 550L315 530L186 648L216 683Q221 686 228 686Z" />
<glyph unicode="&#xe1;" glyph-name="aacute" horiz-adv-x="531" d="M278 429Q130 429 130 206Q130 43 229 43Q271 43 299 71T342 149Q365 234 365 341V414Q331 429 278 429ZM376 93Q376 105 378 119H372Q355 59 318 24T222 -12Q55 -12 55 218Q55 329 111 405T278
482Q365 482 432 451V197Q432 164 434 127T450 68Q467 41 507 41L509 -4L469 -8Q416 -8 393 29Q376 56 376 93ZM217 550L276 633Q313 686 334 686L346 683L376 648L247 530L217 550Z" />
<glyph unicode="&#xe2;" glyph-name="acircumflex" horiz-adv-x="531" d="M278 429Q130 429 130 206Q130 43 229 43Q271 43 299 71T342 149Q365 234 365 341V414Q331 429 278 429ZM376 93Q376 105 378 119H372Q355 59 318 24T222 -12Q55 -12 55 218Q55 329 111
405T278 482Q365 482 432 451V197Q432 164 434 127T450 68Q467 41 507 41L509 -4L469 -8Q416 -8 393 29Q376 56 376 93ZM148 550L221 650L291 659Q312 652 326 630L382 550L352 530L265 609L178 530L148 550Z" />
<glyph unicode="&#xe3;" glyph-name="atilde" horiz-adv-x="531" d="M365 341V414Q336 429 278 429Q130 429 130 206Q130 43 229 43Q271 43 299 71T342 149Q365 234 365 341ZM222 -12Q135 -12 95 48T55 218T111 405T278 482Q317 482 355 474T432 451V197Q432 95
450 68Q467 41 507 41L509 -4Q493 -8 469 -8Q416 -8 393 29Q376 56 376 93Q376 105 378 119H372Q355 59 318 24T222 -12ZM125 609T146 629T195 649Q223 649 266 632Q323 609 335 609Q363 609 386 642L416 626Q407 588 386 569T337 549Q307 549 242 576Q210 589
199 589Q170 589 146 556L116 572Q125 609 146 629Z" />
<glyph unicode="&#xe4;" glyph-name="adieresis" horiz-adv-x="531" d="M278 429Q130 429 130 206Q130 43 229 43Q271 43 299 71T342 149Q365 234 365 341V414Q331 429 278 429ZM376 93Q376 105 378 119H372Q355 59 318 24T222 -12Q55 -12 55 218Q55 329 111 405T278
482Q365 482 432 451V197Q432 164 434 127T450 68Q467 41 507 41L509 -4L469 -8Q416 -8 393 29Q376 56 376 93ZM145 601Q145 645 188 645Q206 645 216 634T227 603T216 572T186 560T156 571T145 601ZM305 601Q305 645 348 645Q366 645 376 634T387 603T376 572T346
560T316 571T305 601Z" />
<glyph unicode="&#xe5;" glyph-name="aring" horiz-adv-x="531" d="M278 429Q130 429 130 206Q130 43 229 43Q271 43 299 71T342 149Q365 234 365 341V414Q331 429 278 429ZM376 93Q376 105 378 119H372Q355 59 318 24T222 -12Q55 -12 55 218Q55 329 111 405T278
482Q365 482 432 451V197Q432 164 434 127T450 68Q467 41 507 41L509 -4L469 -8Q416 -8 393 29Q376 56 376 93ZM224 625Q224 581 268 581T312 626T270 672Q224 672 224 625ZM224 536T199 560T173 626T198 693T269 717T338 693T363 627T338 561T269 536Z" />
<glyph unicode="&#xe6;" glyph-name="ae" horiz-adv-x="691" d="M502 -12Q395 -12 349 64Q306 -12 221 -12T95 48T55 218T111 405T278 482Q355 482 411 448Q461 482 524 482T624 453T661 372T637 288T570 238Q491 206 387 206Q387 47 514 47Q578 47 635 82L646
43Q621 18 581 3T502 -12ZM278 429Q130 429 130 206Q130 43 229 43Q292 43 328 114Q314 160 314 228Q314 335 365 404V410Q326 429 278 429ZM588 367Q588 396 570 411T522 426Q462 426 428 377T389 257Q588 257 588 367Z" />
<glyph unicode="&#xe7;" glyph-name="ccedilla" horiz-adv-x="412" d="M207 -161Q250 -161 250 -119Q250 -80 193 -65L208 -10Q54 9 54 218Q54 332 109 407T268 482Q327 482 373 462L362 410Q321 424 276 424Q129 424 129 216Q129 47 253 47Q316 47 371 82L382
43Q334 -7 251 -12L244 -38Q311 -59 311 -118Q311 -155 284 -178T219 -201Q183 -201 161 -185L170 -155Q185 -161 207 -161Z" />
<glyph unicode="&#xe8;" glyph-name="egrave" horiz-adv-x="433" d="M330 367Q330 396 312 411T264 426Q204 426 170 377T131 257Q330 257 330 367ZM244 -12Q56 -12 56 228Q56 338 111 410T268 482Q330 482 366 453T403 372T379 288T312 238Q233 206 129 206Q129
47 256 47Q320 47 377 82L388 43Q363 18 323 3T244 -12ZM179 686Q200 686 237 633L296 550L266 530L137 648L167 683Q172 686 179 686Z" />
<glyph unicode="&#xe9;" glyph-name="eacute" horiz-adv-x="433" d="M330 367Q330 396 312 411T264 426Q204 426 170 377T131 257Q330 257 330 367ZM244 -12Q56 -12 56 228Q56 338 111 410T268 482Q330 482 366 453T403 372T379 288T312 238Q233 206 129 206Q129
47 256 47Q320 47 377 82L388 43Q363 18 323 3T244 -12ZM208 550L267 633Q304 686 325 686L337 683L367 648L238 530L208 550Z" />
<glyph unicode="&#xea;" glyph-name="ecircumflex" horiz-adv-x="433" d="M330 367Q330 396 312 411T264 426Q204 426 170 377T131 257Q330 257 330 367ZM244 -12Q56 -12 56 228Q56 338 111 410T268 482Q330 482 366 453T403 372T379 288T312 238Q233 206 129
206Q129 47 256 47Q320 47 377 82L388 43Q363 18 323 3T244 -12ZM129 550L202 650L272 659Q293 652 307 630L363 550L333 530L246 609L159 530L129 550Z" />
<glyph unicode="&#xeb;" glyph-name="edieresis" horiz-adv-x="433" d="M330 367Q330 396 312 411T264 426Q204 426 170 377T131 257Q330 257 330 367ZM244 -12Q56 -12 56 228Q56 338 111 410T268 482Q330 482 366 453T403 372T379 288T312 238Q233 206 129 206Q129
47 256 47Q320 47 377 82L388 43Q363 18 323 3T244 -12ZM123 601Q123 645 166 645Q184 645 194 634T205 603T194 572T164 560T134 571T123 601ZM283 601Q283 645 326 645Q344 645 354 634T365 603T354 572T324 560T294 571T283 601Z" />
<glyph unicode="&#xec;" glyph-name="igrave" horiz-adv-x="264" d="M92 84V470H164V127Q164 74 172 59T218 43L220 -1Q200 -8 180 -8Q131 -8 112 12T92 84ZM62 686Q83 686 120 633L179 550L149 530L20 648L50 683Q55 686 62 686Z" />
<glyph unicode="&#xed;" glyph-name="iacute" horiz-adv-x="264" d="M92 84V470H164V127Q164 74 172 59T218 43L220 -1Q200 -8 180 -8Q131 -8 112 12T92 84ZM77 550L136 633Q173 686 194 686L206 683L236 648L107 530L77 550Z" />
<glyph unicode="&#xee;" glyph-name="icircumflex" horiz-adv-x="264" d="M92 84V470H164V127Q164 74 172 59T218 43L220 -1Q200 -8 180 -8Q131 -8 112 12T92 84ZM14 550L87 650L157 659Q178 652 192 630L248 550L218 530L131 609L44 530L14 550Z" />
<glyph unicode="&#xef;" glyph-name="idieresis" horiz-adv-x="264" d="M19 601Q19 645 62 645Q80 645 90 634T101 603T90 572T60 560T30 571T19 601ZM163 601Q163 645 206 645Q224 645 234 634T245 603T234 572T204 560T174 571T163 601ZM92 84V470H164V127Q164
74 172 59T218 43L220 -1Q200 -8 180 -8Q131 -8 112 12T92 84Z" />
<glyph unicode="&#xf0;" glyph-name="eth" horiz-adv-x="514" d="M370 27Q322 -12 251 -12Q163 -12 108 52T53 212T101 367T241 428Q294 428 353 412Q327 487 284 557L148 505L128 563L250 606Q204 669 154 716L207 748Q268 698 318 631L452 682L464 620L353 582Q457
420 457 260T370 27ZM257 366Q129 366 129 209Q129 141 160 96T251 50Q351 50 374 186Q380 222 380 262T370 352Q309 366 257 366Z" />
<glyph unicode="&#xf1;" glyph-name="ntilde" horiz-adv-x="545" d="M161 450Q161 397 153 361H159Q173 417 213 449T312 482Q391 482 421 443T451 324Q451 321 450 222T448 96T454 56T497 43L499 -2Q485 -8 458 -8Q410 -8 393 14T375 84Q375 86 377 192T379 302Q379
360 364 392T305 425T231 397T186 324Q159 237 159 139V0H90V470L161 479V450ZM129 610T151 630T203 650T287 630T353 609Q382 609 405 643L436 627Q427 588 405 568T353 548T270 568T205 589Q174 589 151 555L120 571Q129 610 151 630Z" />
<glyph unicode="&#xf2;" glyph-name="ograve" horiz-adv-x="520" d="M252 41Q302 41 334 72T377 147T389 248Q389 427 262 427Q215 427 184 397Q128 344 128 228Q128 41 252 41ZM464 137T409 63T249 -12T100 48T56 226T107 412T261 482T414 420T464 247ZM192 686Q213
686 250 633L309 550L279 530L150 648L180 683Q185 686 192 686Z" />
<glyph unicode="&#xf3;" glyph-name="oacute" horiz-adv-x="520" d="M252 41Q302 41 334 72T377 147T389 248Q389 427 262 427Q215 427 184 397Q128 344 128 228Q128 41 252 41ZM464 137T409 63T249 -12T100 48T56 226T107 412T261 482T414 420T464 247ZM211 550L270
633Q307 686 328 686L340 683L370 648L241 530L211 550Z" />
<glyph unicode="&#xf4;" glyph-name="ocircumflex" horiz-adv-x="520" d="M252 41Q302 41 334 72T377 147T389 248Q389 427 262 427Q215 427 184 397Q128 344 128 228Q128 41 252 41ZM464 137T409 63T249 -12T100 48T56 226T107 412T261 482T414 420T464 247ZM142
550L215 650L285 659Q306 652 320 630L376 550L346 530L259 609L172 530L142 550Z" />
<glyph unicode="&#xf5;" glyph-name="otilde" horiz-adv-x="520" d="M252 41Q302 41 334 72T377 147T389 248Q389 427 262 427Q215 427 184 397Q128 344 128 228Q128 41 252 41ZM464 137T409 63T249 -12T100 48T56 226T107 412T261 482T414 420T464 247ZM119 609T140
629T189 649Q217 649 259 632Q317 609 329 609Q357 609 380 642L410 626Q401 588 380 569T333 549T255 569T193 589Q164 589 140 556L110 572Q119 609 140 629Z" />
<glyph unicode="&#xf6;" glyph-name="odieresis" horiz-adv-x="520" d="M252 41Q302 41 334 72T377 147T389 248Q389 427 262 427Q215 427 184 397Q128 344 128 228Q128 41 252 41ZM464 137T409 63T249 -12T100 48T56 226T107 412T261 482T414 420T464 247ZM139
601Q139 645 182 645Q200 645 210 634T221 603T210 572T180 560T150 571T139 601ZM299 601Q299 645 342 645Q360 645 370 634T381 603T370 572T340 560T310 571T299 601Z" />
<glyph unicode="&#xf7;" glyph-name="divide" horiz-adv-x="401" d="M243 475T243 434T204 393T164 434T205 475Q243 475 243 434ZM243 183T243 142T204 101T164 142T205 183Q243 183 243 142ZM51 257V324L358 320L352 261L51 257Z" />
<glyph unicode="&#xf8;" glyph-name="oslash" horiz-adv-x="520" d="M56 228Q56 343 107 412T262 482Q296 482 331 472L357 536Q379 534 394 521L368 457Q464 405 464 248Q464 137 409 63T252 -12Q210 -12 179 -3L150 -74Q128 -72 113 -59L142 12Q56 60 56 228ZM252
41Q302 41 334 72T377 147T389 248Q389 357 344 399L201 50Q222 41 252 41ZM168 75L309 419Q288 427 262 427Q215 427 184 397Q128 344 128 232T168 75Z" />
<glyph unicode="&#xf9;" glyph-name="ugrave" horiz-adv-x="533" d="M90 401Q90 449 78 472L135 482Q152 478 156 462T161 429Q161 417 157 292T153 152T154 121T164 84Q178 45 232 45Q272 45 300 73T342 149Q367 234 367 335V470H434V197Q434 108 447 75T505
41L507 -4Q491 -8 467 -8Q417 -8 398 21T378 90Q378 101 379 113H373Q357 52 315 20T204 -12T108 30T81 145Q81 154 85 274T90 401ZM192 686T199 686Q220 686 257 633L316 550L286 530L157 648L187 683Q192 686 199 686Z" />
<glyph unicode="&#xfa;" glyph-name="uacute" horiz-adv-x="533" d="M90 401Q90 449 78 472L135 482Q152 478 156 462T161 429Q161 417 157 292T153 152T154 121T164 84Q178 45 232 45Q272 45 300 73T342 149Q367 234 367 335V470H434V197Q434 108 447 75T505
41L507 -4Q491 -8 467 -8Q417 -8 398 21T378 90Q378 101 379 113H373Q357 52 315 20T204 -12T108 30T81 145Q81 154 85 274T90 401ZM220 550L279 633Q316 686 337 686L349 683L379 648L250 530L220 550Z" />
<glyph unicode="&#xfb;" glyph-name="ucircumflex" horiz-adv-x="533" d="M90 401Q90 449 78 472L135 482Q152 478 156 462T161 429Q161 417 157 292T153 152T154 121T164 84Q178 45 232 45Q272 45 300 73T342 149Q367 234 367 335V470H434V197Q434 108 447 75T505
41L507 -4Q491 -8 467 -8Q417 -8 398 21T378 90Q378 101 379 113H373Q357 52 315 20T204 -12T108 30T81 145Q81 154 85 274T90 401ZM149 550L222 650L292 659Q313 652 327 630L383 550L353 530L266 609L179 530L149 550Z" />
<glyph unicode="&#xfc;" glyph-name="udieresis" horiz-adv-x="533" d="M90 401Q90 449 78 472L135 482Q152 478 156 462T161 429Q161 417 157 292T153 152T154 121T164 84Q178 45 232 45Q272 45 300 73T342 149Q367 234 367 335V470H434V197Q434 108 447 75T505
41L507 -4Q491 -8 467 -8Q417 -8 398 21T378 90Q378 101 379 113H373Q357 52 315 20T204 -12T108 30T81 145Q81 154 85 274T90 401ZM145 601Q145 645 188 645Q206 645 216 634T227 603T216 572T186 560T156 571T145 601ZM305 601Q305 645 348 645Q366 645 376 634T387
603T376 572T346 560T316 571T305 601Z" />
<glyph unicode="&#xfd;" glyph-name="yacute" horiz-adv-x="528" d="M91 401Q91 449 79 472L136 482Q153 478 157 462T162 429Q162 417 158 293T154 162Q154 109 169 77T226 45T295 73T338 146Q370 238 370 345V470H437L438 30Q438 -97 392 -168T235 -240Q195
-240 153 -226T86 -185L97 -146Q155 -184 232 -184T339 -130T369 30Q369 88 376 119H370Q333 -12 211 -12Q134 -12 108 27T82 140Q82 148 86 271T91 401ZM225 550L284 633Q321 686 342 686L354 683L384 648L255 530L225 550Z" />
<glyph unicode="&#xfe;" glyph-name="thorn" horiz-adv-x="525" d="M159 460Q159 407 151 371H157Q179 428 215 455T310 482Q397 482 432 426T467 256T412 66T244 -12Q201 -12 157 6V-228H90V734L159 745V460ZM157 159V56Q186 41 244 41Q392 41 392 275Q392 425
298 425Q245 425 212 380T168 280T157 159Z" />
<glyph unicode="&#xff;" glyph-name="ydieresis" horiz-adv-x="528" d="M91 401Q91 449 79 472L136 482Q153 478 157 462T162 429Q162 417 158 293T154 162Q154 109 169 77T226 45T295 73T338 146Q370 238 370 345V470H437L438 30Q438 -97 392 -168T235 -240Q195
-240 153 -226T86 -185L97 -146Q155 -184 232 -184T339 -130T369 30Q369 88 376 119H370Q333 -12 211 -12Q134 -12 108 27T82 140Q82 148 86 271T91 401ZM145 601Q145 645 188 645Q206 645 216 634T227 603T216 572T186 560T156 571T145 601ZM305 601Q305 645 348
645Q366 645 376 634T387 603T376 572T346 560T316 571T305 601Z" />
<glyph unicode="&#x2013;" glyph-name="endash" horiz-adv-x="425" d="M51 232V299L390 295L384 236L51 232Z" />
<glyph unicode="&#x2014;" glyph-name="emdash" horiz-adv-x="515" d="M51 232V299L480 295L474 236L51 232Z" />
<glyph unicode="&#x2018;" glyph-name="quoteleft" horiz-adv-x="153" d="M116 506Q75 497 66 497T43 505T30 528Q30 543 75 702L123 693Q105 561 105 542T116 506Z" />
<glyph unicode="&#x2019;" glyph-name="quoteright" horiz-adv-x="153" d="M37 693Q78 702 87 702T110 694T123 672Q123 656 78 497L30 506Q48 638 48 657T37 693Z" />
<glyph unicode="&#x201a;" glyph-name="quotesinglbase" horiz-adv-x="153" d="M37 125Q78 134 87 134T110 126T123 104Q123 88 78 -71L30 -62Q48 70 48 89T37 125Z" />
<glyph unicode="&#x201c;" glyph-name="quotedblleft" horiz-adv-x="266" d="M116 506Q75 497 66 497T43 505T30 528Q30 543 75 702L123 693Q105 561 105 542T116 506ZM229 506Q188 497 179 497T156 505T143 528Q143 543 188 702L236 693Q218 561 218 542T229 506Z" />
<glyph unicode="&#x201d;" glyph-name="quotedblright" horiz-adv-x="266" d="M37 689Q78 698 87 698T110 690T123 668Q123 652 78 493L30 502Q48 634 48 653T37 689ZM150 689Q191 698 200 698T223 690T236 668Q236 652 191 493L143 502Q161 634 161 653T150 689Z" />
<glyph unicode="&#x201e;" glyph-name="quotedblbase" horiz-adv-x="266" d="M37 127Q78 136 87 136T110 128T123 106Q123 90 78 -69L30 -60Q48 72 48 91T37 127ZM150 127Q191 136 200 136T223 128T236 106Q236 90 191 -69L143 -60Q161 72 161 91T150 127Z" />
<glyph unicode="&#x2022;" glyph-name="bullet" horiz-adv-x="238" d="M60 216Q60 279 122 279Q178 279 178 218T119 157Q91 157 76 172T60 216Z" />
<glyph unicode="&#x2039;" glyph-name="guilsinglleft" horiz-adv-x="354" d="M71 200Q60 210 60 222Q60 240 71 253L264 423Q271 423 282 403T294 375L141 226L294 77Q294 69 283 49T264 29L71 200Z" />
<glyph unicode="&#x203a;" glyph-name="guilsinglright" horiz-adv-x="354" d="M283 253Q294 242 294 230Q294 213 283 200L90 29Q83 29 72 49T60 77L213 226L60 375Q60 383 71 403T90 423L283 253Z" />
</font>
</defs>
</svg>
