<?xml version="1.0" standalone="no"?>
<!DOCTYPE svg PUBLIC "-//W3C//DTD SVG 1.1//EN" "http://www.w3.org/Graphics/SVG/1.1/DTD/svg11.dtd">
<svg xmlns="http://www.w3.org/2000/svg">
<defs >
<font id="Artifika" horiz-adv-x="1195" ><font-face
    font-family="Artifika"
    units-per-em="2048"
    panose-1="2 0 6 5 0 0 0 2 0 4"
    ascent="1984"
    descent="-508"
    alphabetic="0" />
<glyph unicode=" " glyph-name="space" horiz-adv-x="560" />
<glyph unicode="!" glyph-name="exclam" horiz-adv-x="636" d="M322 260Q355 260 382 250T430 220T461 176T472 123Q472 93 461 67T430 23T383 -7T322 -18Q290 -18 263 -7T217 22T188 67T177 123Q177 151 187 176T217 220T263 249T322 260ZM203 1128Q199 1190
195 1234T186 1310T177 1361T169 1397Q183 1405 203 1411T244 1422T287 1429T326 1432Q377 1432 411 1410T445 1333Q434 1148 426 1015T413 788T405 633T402 532Q402 494 404 470T412 424Q400 415 378 408T336 401Q291 401 268 421T242 489L203 1128Z" />
<glyph unicode="&quot;" glyph-name="quotedbl" horiz-adv-x="906" d="M330 897H260Q216 897 201 916T183 979L154 1413H281Q323 1413 342 1397T361 1343V1331L330 897ZM715 897H645Q601 897 586 916T568 979L539 1413H666Q708 1413 727 1397T746 1343V1331L715 897Z" />
<glyph unicode="#" glyph-name="numbersign" horiz-adv-x="1228" d="M841 442L785 129H726Q684 129 665 140T646 186Q646 189 646 195T651 226T689 442H447L390 129H331Q289 129 270 140T251 186Q251 189 251 195T294 442H111V500Q111 545 130 561T193 578H318L363
829H167V887Q167 932 186 948T249 965H388L445 1274H507Q549 1274 569 1266T589 1223Q589 1219 589 1212T584 1180T570 1105T544 965H783L841 1274H898Q940 1274 960 1266T980 1223Q980 1219 980 1212T975 1180T962 1105T937 965H1117V909Q1117 864 1098 847T1035
829H912L865 578H1062V522Q1062 477 1043 460T980 442H841ZM472 578H714L759 829H519L472 578Z" />
<glyph unicode="$" glyph-name="dollar" horiz-adv-x="1229" d="M698 1450H710Q738 1450 776 1448T855 1440T936 1427T1007 1406T1058 1376T1078 1337Q1078 1320 1066 1298L986 1161Q958 1183 927 1205T861 1247T786 1282T698 1307V778Q781 741 860 697T1001 599T1100
478T1138 330Q1138 245 1103 179T1008 67T868 -6T698 -37V-274H628Q583 -274 567 -255T550 -193V-35Q445 -26 344 8T149 104Q127 118 106 141T85 190Q85 211 100 227L202 348Q236 316 273 281T354 211T445 149T550 106V625Q507 647 459 671T365 723T277 784T203
860T153 953T134 1067Q134 1155 169 1219T262 1328T395 1399T550 1438V1591H618Q663 1591 680 1572T698 1509V1450ZM333 1106Q333 1049 351 1008T399 936T468 883T550 842V1315Q510 1312 471 1298T402 1257T352 1193T333 1106ZM915 301Q915 345 898 381T852 449T784
506T698 557V90Q747 94 787 111T855 155T899 219T915 301Z" />
<glyph unicode="%" glyph-name="percent" horiz-adv-x="1671" d="M463 -12L413 10Q381 26 362 38T342 70Q342 81 352 98L1188 1415L1251 1384Q1280 1370 1296 1358T1312 1329Q1312 1315 1300 1296L463 -12ZM403 807Q482 807 523 873T565 1081Q565 1156 554 1209T521
1295T470 1343T403 1358Q366 1358 336 1343T285 1295T251 1209T239 1081Q239 939 282 873T403 807ZM403 733Q352 733 296 753T191 815T112 924T80 1081Q80 1173 109 1239T184 1348T288 1411T403 1432Q461 1432 518 1412T622 1349T698 1240T727 1081Q727 1020 713
971T673 883T616 816T547 770T474 742T403 733ZM1265 55Q1344 55 1386 121T1429 330Q1429 405 1418 457T1385 543T1333 591T1265 606Q1228 606 1199 591T1148 543T1116 458T1104 330Q1104 188 1145 122T1265 55ZM1265 -18Q1214 -18 1157 2T1052 64T972 172T940
330Q940 422 969 488T1045 597T1150 660T1265 680Q1323 680 1381 660T1485 597T1561 488T1591 330Q1591 238 1559 173T1479 65T1374 2T1265 -18Z" />
<glyph unicode="&amp;" glyph-name="ampersand" horiz-adv-x="1407" d="M1199 745Q1226 758 1248 758Q1283 758 1302 729T1322 651Q1322 610 1309 560T1268 454T1202 340T1111 227Q1134 200 1158 173T1206 121T1249 75T1285 41Q1223 -39 1156 -39Q1087 -39 1025
35L968 102Q884 37 791 -1T589 -39Q491 -39 403 -15T249 60T143 184T104 360Q104 432 130 489T201 591T305 675T429 748L337 858Q286 920 264 981T241 1098Q241 1172 275 1236T367 1348T498 1423T652 1450Q736 1450 803 1427T916 1360T988 1257T1013 1122Q1013
1053 988 1000T917 903T811 821T679 743Q721 695 765 642T853 535T942 427T1029 322Q1061 376 1077 438T1093 563Q1093 633 1074 690L1199 745ZM599 90Q687 90 761 115T898 186L513 647Q465 615 425 583T355 517T310 447T294 371Q294 302 321 250T391 162T489 108T599
90ZM613 842Q663 869 708 898T786 963T839 1039T859 1130Q859 1172 842 1208T795 1273T725 1317T640 1333Q597 1333 556 1318T482 1276T429 1211T409 1126Q409 1099 420 1071T455 1008T514 932T599 834L613 842Z" />
<glyph unicode="&apos;" glyph-name="quotesingle" horiz-adv-x="521" d="M330 897H260Q216 897 201 916T183 979L154 1413H281Q323 1413 342 1397T361 1343V1331L330 897Z" />
<glyph unicode="(" glyph-name="parenleft" horiz-adv-x="662" d="M325 651Q326 561 336 479T363 322T401 184T444 65Q495 -62 559 -164L520 -199Q507 -209 493 -209Q475 -209 452 -195T405 -152Q328 -64 268 55Q242 106 218 168T174 303T143 461T131 639Q131
768 151 879T201 1080T266 1240T331 1357T382 1429T405 1454Q428 1483 451 1496T493 1509Q509 1509 520 1501L559 1466Q495 1364 444 1237Q422 1183 401 1118T364 979T337 823T325 651Z" />
<glyph unicode=")" glyph-name="parenright" horiz-adv-x="663" d="M337 651Q336 740 326 822T299 979T262 1118T219 1237Q168 1364 104 1466L143 1501Q148 1506 154 1507T169 1509Q188 1509 210 1496T257 1454Q333 1366 394 1247Q420 1196 444 1134T488 998T520
840T532 662Q532 533 512 423T462 222T397 62T332 -55T280 -127T257 -152Q209 -209 169 -209Q153 -209 143 -199L104 -164Q168 -62 219 65Q241 119 261 183T298 322T325 478T337 651Z" />
<glyph unicode="*" glyph-name="asterisk" horiz-adv-x="999" d="M451 1133L414 1427H517Q552 1427 569 1412T582 1362L549 1130L785 1317L838 1229Q846 1216 849 1207T853 1188Q853 1174 845 1161T816 1139L595 1053L869 885L803 801Q782 772 758 772Q746 772
735 777T713 795L545 969L584 657H482Q450 657 433 669T416 709Q416 716 451 971L218 770L162 858Q154 870 149 881T144 901Q144 914 152 926T183 948L410 1051L130 1167L181 1257Q192 1276 204 1284T228 1292Q237 1292 248 1290T271 1278L451 1133Z" />
<glyph unicode="+" glyph-name="plus" horiz-adv-x="1120" d="M629 704H1030V642Q1030 598 1011 581T948 563H629V162H565Q521 162 505 181T488 244V563H89V626Q89 671 108 687T171 704H488V1103H549Q594 1103 611 1084T629 1021V704Z" />
<glyph unicode="," glyph-name="comma" horiz-adv-x="599" d="M447 102Q453 72 453 37Q453 -13 441 -68T401 -173T331 -264T226 -328Q218 -332 208 -332Q198 -332 191 -326T183 -301V-246Q207 -231 226 -209T262 -159T289 -100T308 -37Q306 -39 303 -39T296 -39Q264
-39 237 -28T191 2T161 46T150 102Q150 130 160 155T190 199T237 229T296 240Q329 240 354 229T399 200T430 156T447 102Z" />
<glyph unicode="-" glyph-name="hyphen" horiz-adv-x="923" d="M168 551V614Q168 659 187 675T250 692H756V631Q756 586 737 569T674 551H168Z" />
<glyph unicode="." glyph-name="period" horiz-adv-x="594" d="M296 240Q329 240 356 229T403 200T434 156T445 102Q445 72 434 47T404 2T357 -28T296 -39Q264 -39 237 -28T191 2T161 46T150 102Q150 130 160 155T190 199T237 229T296 240Z" />
<glyph unicode="/" glyph-name="slash" horiz-adv-x="1023" d="M219 -246H149Q111 -246 87 -234T63 -195Q63 -180 71 -164L804 1536H872Q910 1536 935 1527T960 1489Q960 1483 959 1474T952 1454L219 -246Z" />
<glyph unicode="0" glyph-name="zero" horiz-adv-x="1394" d="M697 92Q789 92 853 138T956 266T1013 458T1031 696Q1031 831 1014 945T957 1143T853 1272T697 1319Q605 1319 542 1273T438 1143T381 946T363 696Q363 568 380 458T438 267T541 139T697 92ZM697 -39Q567
-39 463 14T287 164T175 396T136 696Q136 861 172 999T279 1237T455 1394T697 1450Q835 1450 939 1394T1115 1238T1222 999T1258 696Q1258 532 1219 397T1107 164T931 14T697 -39Z" />
<glyph unicode="1" glyph-name="one" horiz-adv-x="740" d="M533 315Q533 251 536 202T545 117T555 56T563 16Q503 -18 445 -18Q392 -18 359 3T326 82V1286L70 1194L37 1278Q71 1301 123 1328T233 1378T352 1416T463 1432Q486 1432 499 1428T520 1414T530 1392T533
1360V315Z" />
<glyph unicode="2" glyph-name="two" horiz-adv-x="1207" d="M1033 1047Q1033 953 997 863T900 688T764 523T607 372T451 237T314 119H503Q570 119 644 128T794 151T943 185T1082 225Q1089 204 1094 184Q1099 166 1103 146T1107 106Q1107 59 1084 35T1005 1T858
-11T632 -12Q558 -12 485 -11T347 -9T234 -5T159 0Q112 4 97 23T81 86Q81 85 104 108T165 172T253 264T357 374T464 490T563 598T643 688T693 748Q756 829 787 911T818 1071Q818 1124 804 1169T762 1249T694 1302T603 1321Q552 1321 501 1303T400 1258T304 1198T218
1135L140 1241Q128 1259 128 1276Q128 1299 149 1321T204 1362T284 1397T377 1425T473 1443T562 1450Q686 1450 775 1417T922 1327T1006 1198T1033 1047Z" />
<glyph unicode="3" glyph-name="three" horiz-adv-x="1204" d="M597 1300Q489 1300 414 1282T288 1240Q230 1214 192 1180Q190 1183 178 1202T152 1245T127 1293T116 1329Q116 1350 137 1366T193 1393T274 1412T370 1423T472 1428T570 1430Q614 1430 656 1429T741
1426T829 1421T923 1415Q962 1413 983 1404T1013 1381T1024 1347T1027 1305Q1008 1239 972 1177T891 1060T799 959T713 879T646 825T615 803Q716 789 800 758T946 676T1042 551T1076 379Q1076 281 1038 204T932 74T773 -8T574 -37Q528 -37 476 -31T371 -15T271
11T185 46T126 89T103 137Q103 155 118 182L181 291Q228 259 278 224T382 160T489 113T597 94Q662 94 714 118T802 185T858 282T878 397Q878 479 838 536T730 628T574 677T390 690V748Q390 764 393 773T401 788T410 796T417 801Q483 839 551 899T676 1027T774 1167T826
1300H597Z" />
<glyph unicode="4" glyph-name="four" horiz-adv-x="1217" d="M789 -16Q744 -13 717 9T689 82V365H111Q68 365 54 379T40 414Q40 426 43 437T52 455Q230 720 375 930Q437 1020 497 1106T608 1262T694 1376T740 1427Q749 1429 760 1430T781 1431T801 1432T816 1432Q858
1432 877 1413T896 1360V487H1158V444Q1158 399 1139 382T1076 365H896V305Q896 241 899 194T908 112T918 54T927 16Q867 -18 808 -18Q803 -18 799 -17T789 -16ZM689 487V1124L685 1141L240 492L247 487H689Z" />
<glyph unicode="5" glyph-name="five" horiz-adv-x="1196" d="M419 819Q463 828 503 833T583 838Q691 838 781 806T935 716T1035 583T1071 418Q1071 313 1033 229T927 86T767 -5T569 -37Q532 -37 481 -31T376 -13T268 15T173 51T105 93T79 141Q79 151 82 160T92
182L165 307Q185 295 215 275T283 230T360 182T442 137T522 105T596 92Q653 92 696 109T769 155T820 219T851 289T867 357T872 412Q872 475 847 529T770 623T643 686T464 709Q419 709 371 704T268 690Q260 698 254 705Q249 711 245 716T239 723V1343Q240 1351 242
1363T253 1386T281 1405T337 1413Q404 1413 482 1412T647 1412T830 1420T1032 1442Q1035 1413 1040 1382T1046 1325Q1046 1282 996 1267T843 1251Q779 1251 705 1258T567 1274Q492 1285 419 1298V819Z" />
<glyph unicode="6" glyph-name="six" horiz-adv-x="1234" d="M357 504Q357 471 361 428T378 339T412 249T466 170T545 114T654 92Q714 92 763 116T848 185T902 295T922 442Q922 514 908 568T867 658T805 712T726 731Q688 731 647 715T565 675T488 622T422 568T376
524T357 504ZM240 1163Q279 1233 333 1286T452 1376T593 1431T748 1450Q775 1450 818 1447T904 1434T976 1409T1006 1366Q1006 1355 1000 1346L922 1204Q854 1260 795 1285T681 1311Q623 1311 576 1285T491 1213T427 1107T382 980T356 843T347 709Q347 689 347
671T349 635Q413 710 469 755T575 824T666 856T746 864Q839 864 911 828T1032 731T1107 594T1133 436Q1133 352 1104 268T1014 115T861 4T644 -39Q508 -39 412 11T256 152T168 367T140 639Q140 704 145 775T162 915T193 1048T240 1163Z" />
<glyph unicode="7" glyph-name="seven" horiz-adv-x="1067" d="M532 168Q523 150 513 127T495 80T480 35T473 0Q464 -5 450 -8T419 -14T387 -17T358 -18Q343 -18 327 -16T299 -7T278 11T270 41Q270 54 280 76L804 1298L575 1296Q468 1295 383 1277T237 1236T145
1196T112 1176Q110 1179 98 1198T73 1241T48 1289T36 1325Q36 1347 58 1363T118 1390T205 1408T310 1418T423 1423T532 1425Q626 1425 724 1421T921 1411Q960 1409 981 1401T1013 1380T1026 1341V1300L532 168Z" />
<glyph unicode="8" glyph-name="eight" horiz-adv-x="1238" d="M1053 1096Q1053 1041 1034 990T980 893T899 807T799 733Q862 698 918 663T1016 583T1083 484T1108 356Q1108 248 1064 173T949 51T789 -18T609 -39Q525 -39 443 -19T295 41T189 144T148 291Q148
370 169 435T228 553T315 648T424 725Q343 770 291 816T208 909T166 1003T154 1096Q154 1182 190 1248T288 1359T433 1427T609 1450Q697 1450 777 1427T919 1359T1016 1248T1053 1096ZM609 92Q666 92 718 106T810 150T873 223T897 328Q897 365 880 398T836 463T772
521T697 573T620 619T549 657Q502 625 463 589T395 512T350 426T334 332Q334 272 356 227T417 152T505 107T609 92ZM863 1096Q863 1152 843 1194T789 1263T708 1305T609 1319Q556 1319 510 1305T429 1263T375 1194T355 1098Q355 1053 385 1011T462 931T565 859T676
797Q718 823 752 856T811 927T849 1008T863 1096Z" />
<glyph unicode="9" glyph-name="nine" horiz-adv-x="1238" d="M885 864Q887 881 888 899T889 938Q889 1008 874 1076T824 1198T731 1285T588 1319Q528 1319 479 1295T394 1226T339 1116T319 969Q319 897 333 843T374 752T437 697T516 678Q552 678 593 691T675
725T753 768T819 813T866 848T885 864ZM989 258Q951 188 894 133T766 40T617 -19T455 -39Q426 -39 381 -36T294 -23T222 2T192 45Q192 53 199 66L276 207Q344 151 416 126T547 100Q611 100 661 128T749 205T813 318T857 452T882 595T891 733Q829 662 770 624T660
569T567 548T495 545Q402 545 330 582T209 679T134 817T108 975Q108 1058 137 1142T227 1295T380 1407T598 1450Q728 1450 823 1402T979 1267T1070 1062T1100 801Q1100 732 1094 659T1075 514T1040 378T989 258Z" />
<glyph unicode=":" glyph-name="colon" horiz-adv-x="630" d="M314 240Q347 240 374 229T421 200T452 156T463 102Q463 72 452 47T422 2T375 -28T314 -39Q282 -39 255 -28T209 2T179 46T168 102Q168 130 178 155T208 199T255 229T314 240ZM314 1055Q347 1055 374
1044T421 1015T452 971T463 918Q463 888 452 862T422 817T375 787T314 776Q282 776 255 787T209 817T179 862T168 918Q168 946 178 971T208 1014T255 1044T314 1055Z" />
<glyph unicode=";" glyph-name="semicolon" horiz-adv-x="640" d="M316 1055Q349 1055 376 1044T423 1015T454 971T465 918Q465 888 454 862T424 817T377 787T316 776Q284 776 257 787T211 817T181 862T170 918Q170 946 180 971T210 1014T257 1044T316 1055ZM467
102Q473 72 473 37Q473 -13 461 -68T421 -173T351 -264T246 -328Q238 -332 228 -332Q218 -332 211 -326T203 -301V-246Q227 -231 246 -209T282 -159T309 -100T328 -37Q326 -39 323 -39T316 -39Q284 -39 257 -28T211 2T181 46T170 102Q170 130 180 155T210 199T257
229T316 240Q349 240 374 229T419 200T450 156T467 102Z" />
<glyph unicode="&lt;" glyph-name="less" horiz-adv-x="1312" d="M1046 1077Q1060 1083 1071 1086T1093 1090Q1128 1090 1152 1040L1185 973L306 578V573L1181 176L1152 111Q1128 59 1093 59Q1082 59 1071 63T1046 74L73 520V582Q73 601 79 613T92 633T107 645T118
651L1046 1077Z" />
<glyph unicode="=" glyph-name="equal" horiz-adv-x="1290" d="M175 748V811Q175 856 194 872T257 889H1117V827Q1117 782 1098 765T1035 748H175ZM175 379V442Q175 487 194 503T257 520H1117V459Q1117 414 1098 397T1035 379H175Z" />
<glyph unicode="&gt;" glyph-name="greater" horiz-adv-x="1310" d="M1190 649Q1193 647 1200 643T1215 632T1229 612T1235 580V518L262 72Q248 65 236 61T215 57Q177 57 156 109L127 174L1001 571V575L123 971L156 1038Q168 1063 181 1075T215 1087Q235 1087
262 1075L1190 649Z" />
<glyph unicode="?" glyph-name="question" horiz-adv-x="974" d="M448 240Q481 240 508 229T556 200T587 156T598 102Q598 72 587 47T556 2T509 -28T448 -39Q416 -39 389 -28T343 2T314 46T303 102Q303 130 313 155T343 199T389 229T448 240ZM526 385Q484 385
443 400T369 443T316 509T295 594Q295 642 322 682T389 760T476 835T563 914T630 1005T657 1118Q657 1153 645 1185T610 1242T554 1281T477 1296Q445 1296 408 1287T333 1265T261 1236T200 1206T157 1182T141 1171L80 1311Q75 1320 73 1327T71 1341Q71 1364 89
1381T137 1410T204 1430T279 1442T351 1448T409 1450Q511 1450 599 1428T751 1360T852 1248T889 1090Q889 1041 873 1000T831 924T769 859T694 801T615 745T538 688Q510 665 495 640T479 592Q479 566 498 549T539 522T581 505T600 494Q600 478 596 459T583 424T560
396T526 385Z" />
<glyph unicode="@" glyph-name="at" horiz-adv-x="1874" d="M1012 1450Q1175 1450 1315 1401T1558 1257T1721 1026T1780 717Q1780 629 1762 553T1712 415T1640 305T1552 223T1459 173T1368 156Q1275 156 1216 205T1128 342H1118Q1098 302 1072 268T1011 209T936
170T844 156Q783 156 727 177T628 241T560 350T534 504Q534 558 546 621T585 748T653 871T752 975T885 1048T1053 1075Q1104 1075 1145 1060T1208 1024L1225 1098Q1262 1092 1291 1078Q1316 1066 1337 1045T1358 989Q1358 983 1358 978T1356 967L1270 539Q1265
514 1261 485T1257 426Q1257 397 1262 370T1282 321T1319 287T1380 274Q1419 274 1465 302T1552 386T1620 527T1647 723Q1647 873 1597 987T1461 1179T1258 1296T1008 1335Q917 1335 827 1313T654 1248T500 1141T377 994T294 810T264 590Q264 463 292 358T371 168T491
21T643 -84T817 -147T1003 -168Q1144 -168 1285 -125T1558 6L1606 -68Q1456 -173 1294 -223T971 -274Q857 -274 748 -249T541 -174T362 -51T221 119T129 333T96 590Q96 714 128 825T218 1033T360 1206T544 1337T764 1420T1012 1450ZM727 485Q727 425 739 383T773
315T821 276T879 264Q930 264 967 286T1031 344T1073 425T1098 518L1182 924Q1176 939 1163 951T1134 972T1098 986T1061 991Q1003 991 956 966T872 898T808 803T763 693T736 582T727 485Z" />
<glyph unicode="A" glyph-name="A" horiz-adv-x="1517" d="M973 381H363Q348 328 340 275T332 168Q332 131 336 96T349 29L193 -14Q169 -20 148 -20Q87 -20 87 39Q87 44 88 47T89 55Q98 130 126 228T196 437T286 662T385 885T482 1090T565 1258T624 1371T646 1413H748Q773
1413 791 1410T822 1397T846 1372T867 1331L1328 160L1504 229L1537 158Q1512 135 1474 104T1392 44T1300 -5T1209 -25Q1181 -25 1159 -12T1123 33L973 381ZM670 1184Q626 1082 585 990T507 814T442 657T396 518H922L681 1184H670Z" />
<glyph unicode="B" glyph-name="B" horiz-adv-x="1448" d="M747 1432Q865 1432 962 1412T1130 1344T1238 1220T1276 1030Q1276 1005 1271 974T1252 910T1219 846T1168 787T1098 741T1005 715Q1090 706 1148 678T1243 606T1296 505T1313 381Q1313 262 1267 185T1138
62T946 0T708 -18Q606 -18 518 -14T336 2Q291 7 275 26T258 88V1272L65 1257V1346Q111 1365 185 1380T351 1407T544 1425T747 1432ZM780 639Q749 641 720 641T663 641Q628 641 599 641T547 639Q521 638 500 637V143Q527 134 563 127Q594 121 638 116T739 111Q845
111 911 134T1013 195T1062 277T1075 365Q1075 424 1060 472T1010 556T919 613T780 639ZM745 1294Q693 1294 648 1293T570 1289T519 1285T500 1282V780Q548 771 586 768T657 764Q765 764 839 785T959 844T1025 930T1046 1034Q1046 1094 1029 1142T976 1223T883
1275T745 1294Z" />
<glyph unicode="C" glyph-name="C" horiz-adv-x="1439" d="M128 702Q128 874 175 1012T316 1248T547 1397T869 1450Q906 1450 953 1447T1050 1438T1147 1422T1230 1398T1289 1364T1312 1319Q1312 1301 1300 1280L1216 1139Q1183 1157 1138 1187T1039 1246T922
1296T792 1317Q713 1317 653 1292T547 1222T472 1120T423 995T396 860T388 725Q388 645 402 569T446 424T520 300T623 202T756 138T919 115Q994 115 1067 128T1200 157Q1269 175 1332 199L1373 121Q1317 77 1255 47T1125 -3T987 -30T845 -39Q681 -39 549 13T323
161T179 395T128 702Z" />
<glyph unicode="D" glyph-name="D" horiz-adv-x="1632" d="M63 1350Q121 1369 204 1384T385 1410T586 1426T790 1432Q965 1432 1097 1392T1317 1264T1450 1038T1495 705Q1495 523 1444 391T1300 171T1082 42T807 0H334Q289 0 273 19T256 82L258 1274Q203 1273
161 1272Q124 1271 94 1271T63 1270V1350ZM492 141Q526 137 565 134Q598 131 639 129T723 127Q847 127 943 159T1104 260T1203 440T1237 705Q1237 849 1215 960T1140 1148T996 1263T770 1303Q717 1303 667 1300T577 1294T514 1288T489 1286L492 141Z" />
<glyph unicode="E" glyph-name="E" horiz-adv-x="1333" d="M334 0Q287 4 272 23T256 86V1292H65V1372Q95 1382 160 1392T314 1412T507 1426T721 1432Q768 1432 824 1431T937 1427T1047 1417T1141 1400T1206 1373T1231 1333Q1231 1323 1219 1297T1190 1243T1159
1190T1139 1159Q1139 1160 1113 1178T1033 1217T899 1257T713 1276L491 1278V805H1020V756Q1020 703 998 684T926 664H491V141H672Q806 141 941 159T1206 219Q1206 218 1209 209T1216 183T1223 147T1227 106Q1227 59 1203 35T1126 1T987 -11T776 -12Q708 -12 640
-11T512 -9T406 -5T334 0Z" />
<glyph unicode="F" glyph-name="F" horiz-adv-x="1262" d="M257 1292H66V1372Q96 1382 161 1392T315 1412T508 1426T722 1432Q769 1432 825 1431T938 1427T1048 1417T1142 1400T1207 1373T1232 1333Q1232 1323 1220 1297T1191 1243T1160 1190T1140 1159Q1140 1160
1114 1178T1034 1217T900 1257T714 1276H492V805H1021V756Q1021 703 999 684T927 664H492V317Q492 253 496 204T507 118T520 56T529 16Q514 8 496 2T457 -9T416 -16T378 -18Q352 -18 330 -13T291 3T266 34T257 82V1292Z" />
<glyph unicode="G" glyph-name="G" horiz-adv-x="1525" d="M383 702Q383 555 423 443T530 255T683 139T862 100Q947 100 1024 114T1164 164V547H957V627Q972 634 1006 642T1082 657T1169 668T1254 672Q1294 672 1320 671T1363 666T1385 651T1391 621V139Q1349
96 1286 63T1149 8T996 -27T844 -39Q687 -39 555 11T327 157T177 389T123 698Q123 872 178 1011T336 1248T584 1398T910 1450Q944 1450 987 1447T1074 1438T1160 1421T1234 1397T1287 1365T1307 1323Q1307 1305 1295 1284L1211 1143Q1178 1161 1130 1191T1023 1249T902
1298T774 1319Q702 1319 646 1295T546 1228T471 1127T421 1000T392 855T383 702Z" />
<glyph unicode="H" glyph-name="H" horiz-adv-x="1675" d="M1418 115H1607V29Q1589 20 1558 12T1488 -3T1408 -14T1326 -18Q1295 -18 1269 -15T1224 -1T1194 28T1183 78V670H492V315Q492 251 495 202T504 117T515 56T523 16Q508 8 490 2T453 -9T414 -16T378 -18Q352
-18 330 -13T291 3T266 34T257 82V1307H64V1386Q79 1394 109 1402T178 1417T265 1428T361 1432H406Q425 1432 441 1432T468 1428T486 1413T492 1380V811H1183V1108Q1183 1172 1180 1220T1171 1303T1160 1361T1152 1399Q1167 1407 1185 1413T1222 1424T1261 1430T1297
1432Q1323 1432 1345 1427T1384 1411T1409 1381T1418 1333V115Z" />
<glyph unicode="I" glyph-name="I" horiz-adv-x="751" d="M257 1307H64V1386Q79 1394 109 1402T178 1417T265 1428T361 1432Q401 1432 426 1431T466 1424T486 1408T492 1380V115H681V29Q663 20 632 12T563 -3T483 -14T400 -18Q369 -18 343 -15T298 -1T268 28T257
78V1307Z" />
<glyph unicode="J" glyph-name="J" horiz-adv-x="699" d="M492 23Q492 -105 451 -201T340 -363T175 -461T-28 -494Q-44 -494 -73 -493T-130 -487T-179 -470T-200 -436Q-200 -431 -199 -427T-196 -418L-131 -244Q-43 -279 25 -305T140 -332Q180 -332 203 -303T239
-229T254 -134T258 -39V35V1307H66V1386Q81 1394 111 1402T180 1417T267 1428T363 1432Q401 1432 426 1431T467 1426T488 1410T494 1380L492 23Z" />
<glyph unicode="K" glyph-name="K" horiz-adv-x="1441" d="M566 647Q559 656 554 666Q549 674 546 685T542 709Q542 724 548 737T572 764Q600 787 640 821T724 895T813 981T891 1072T948 1164T970 1251Q970 1268 968 1286T957 1325L1154 1419Q1183 1432 1205 1432Q1236
1432 1255 1411T1275 1354Q1275 1303 1238 1241T1145 1116T1024 992T903 883T767 762L1205 160L1353 258L1400 193Q1380 167 1348 131T1274 62T1184 6T1084 -18Q1056 -18 1036 -8T992 35L566 647ZM492 315Q492 251 495 202T504 117T515 56T523 16Q508 8 490 2T453
-9T414 -16T378 -18Q352 -18 330 -13T291 3T266 34T257 82V1307H64V1386Q79 1394 109 1402T178 1417T265 1428T361 1432Q400 1432 425 1431T465 1426T486 1410T492 1380V315Z" />
<glyph unicode="L" glyph-name="L" horiz-adv-x="1252" d="M492 141H673Q807 141 942 159T1207 219Q1207 218 1210 209T1217 183T1224 147T1228 106Q1228 62 1206 38T1131 3T992 -10T777 -12Q709 -12 641 -11T513 -9T407 -5T335 0Q288 4 273 23T257 86V1307H64V1386Q79
1394 109 1402T178 1417T265 1428T361 1432Q400 1432 425 1431T465 1426T486 1410T492 1380V141Z" />
<glyph unicode="M" glyph-name="M" horiz-adv-x="2110" d="M398 123Q383 93 360 67T307 20T245 -11T175 -23Q149 -23 131 -10T101 35L60 158Q71 163 92 170T139 189T189 220T234 268Q252 296 270 364T304 525T334 726T359 940T376 1142T384 1307H189V1386Q202
1393 232 1401T298 1416T373 1427T443 1432Q484 1432 513 1431T565 1424T602 1407T630 1378Q667 1292 705 1198T779 1006T1045 231Q1250 850 1305 1002T1401 1257T1465 1399Q1464 1400 1480 1405T1521 1417T1572 1427T1623 1432Q1647 1432 1662 1428T1686 1414T1700
1390T1709 1356L1871 135L2061 164L2079 90Q2058 69 2019 49T1934 11T1838 -16T1746 -27Q1729 -27 1712 -24T1680 -12T1655 11T1641 49L1516 1075Q1424 810 1312 508T1172 139T1129 42T1108 5T1103 0H994Q970 0 952 3T920 16T895 41T875 82Q777 344 711 531T605
838Q558 979 531 1071Q526 986 521 896T508 715T490 537T467 373T437 232T398 123Z" />
<glyph unicode="N" glyph-name="N" horiz-adv-x="1577" d="M1228 328Q1223 754 1205 1022T1164 1393Q1165 1393 1170 1394T1243 1414T1334 1432Q1353 1432 1363 1422T1379 1388T1386 1326T1387 1233Q1387 1155 1385 1054T1378 841T1369 611T1357 380T1345 165T1332
-18H1240Q1209 -18 1195 -10T1168 16L417 1053Q435 829 442 650T449 352Q449 237 444 165T434 49Q427 -1 419 -27L296 -4Q257 4 237 25T216 86Q216 97 217 110T222 137Q232 184 240 242T255 385T264 586T267 868Q267 997 265 1102T263 1307H70V1386Q84 1393 112
1401T179 1416T263 1427T357 1432Q388 1432 408 1426T443 1401L1228 328Z" />
<glyph unicode="O" glyph-name="O" horiz-adv-x="1612" d="M391 705Q391 570 413 457T484 261T613 134T807 88Q920 88 998 134T1126 262T1198 457T1221 705Q1221 832 1199 944T1128 1141T1000 1274T807 1323Q693 1323 614 1273T485 1137T413 940T391 705ZM1481
705Q1481 540 1435 403T1302 168T1090 15T807 -39Q649 -39 524 15T311 167T178 403T131 705Q131 870 177 1007T311 1242T523 1395T807 1450Q965 1450 1090 1396T1302 1243T1435 1007T1481 705Z" />
<glyph unicode="P" glyph-name="P" horiz-adv-x="1333" d="M494 702Q514 695 541 691Q564 686 598 683T677 680Q780 680 845 705T947 773T999 869T1013 981Q1013 1045 1002 1102T955 1204T848 1274T658 1300Q621 1300 579 1298T494 1290V702ZM494 315Q494 251
498 202T509 117T522 56T531 16Q516 8 498 2T459 -9T418 -16T380 -18Q354 -18 332 -13T293 3T268 34T259 82V1280L66 1268V1356Q85 1363 131 1375T255 1400T441 1422T697 1432Q811 1432 911 1413T1088 1343T1208 1205T1252 981Q1252 880 1218 800T1120 665T964
580T757 551Q745 551 719 551T657 552T580 555T494 561V315Z" />
<glyph unicode="Q" glyph-name="Q" horiz-adv-x="1612" d="M1479 705Q1479 550 1442 427T1340 213T1184 65T985 -16Q1010 -51 1041 -86T1107 -151T1180 -198T1257 -217Q1291 -217 1332 -204T1409 -175T1472 -143T1505 -125L1554 -205Q1554 -205 1541 -216T1503
-245T1447 -281T1377 -317T1300 -345T1221 -356Q1140 -356 1073 -337T947 -277T836 -177T731 -35Q603 -21 494 31T305 175T179 399T133 705Q133 887 185 1026T329 1259T543 1402T807 1450Q948 1450 1071 1402T1284 1260T1427 1026T1479 705ZM393 705Q393 558 418
443T494 248T623 126T807 84Q912 84 989 126T1118 247T1194 442T1219 705Q1219 842 1195 956T1119 1152T991 1279T807 1325Q701 1325 623 1279T494 1150T418 953T393 705Z" />
<glyph unicode="R" glyph-name="R" horiz-adv-x="1499" d="M494 702Q514 695 541 691Q564 686 598 683T677 680Q780 680 845 705T947 773T999 869T1013 981Q1013 1045 1002 1102T955 1204T848 1274T658 1300Q621 1300 579 1298T494 1290V702ZM1275 158L1437 264L1486
197Q1463 165 1429 128T1354 58T1269 4T1181 -18Q1152 -18 1123 -4T1068 51L757 551Q745 551 719 551T657 552T580 555T494 561V315Q494 251 498 202T509 117T522 56T531 16Q516 8 498 2T459 -9T418 -16T380 -18Q354 -18 332 -13T293 3T268 34T259 82V1280L66 1268V1356Q79
1360 98 1367T148 1383T224 1400T335 1416T490 1427T697 1432Q811 1432 911 1413T1088 1343T1208 1205T1252 981Q1252 834 1184 734T986 588L1275 158Z" />
<glyph unicode="S" glyph-name="S" horiz-adv-x="1267" d="M640 854Q700 829 762 802T881 743T989 674T1077 592T1136 493T1158 373Q1158 275 1119 199T1014 70T860 -11T675 -39Q545 -39 415 -6T169 104Q147 118 126 141T105 190Q105 211 120 227L222 348Q270
310 328 265T447 181T570 116T685 90Q730 90 773 105T849 147T903 214T924 303Q924 366 891 418T804 513T680 593T537 659Q416 710 341 761T225 864T169 967T154 1067Q154 1141 179 1198T246 1297T346 1369T467 1416T598 1442T730 1450Q758 1450 796 1448T875 1440T956
1427T1027 1406T1078 1376T1098 1337Q1098 1320 1086 1298L1006 1161Q962 1186 915 1214T817 1264T712 1302T597 1317Q555 1317 516 1304T448 1265T402 1199T384 1106Q384 1061 405 1024T462 956T544 900T640 854Z" />
<glyph unicode="T" glyph-name="T" horiz-adv-x="1353" d="M567 1272Q473 1272 390 1265T238 1249T119 1232T41 1219Q41 1220 39 1232T32 1263T25 1303T22 1341Q22 1374 51 1389T132 1410T251 1415T397 1413H690Q736 1413 803 1413T952 1416T1129 1426T1323 1446V1446Q1323
1445 1326 1436T1332 1411T1338 1376T1341 1335Q1341 1310 1324 1296T1277 1276T1211 1268T1132 1266Q1018 1266 939 1268T803 1272V315Q803 251 806 202T815 117T825 56T833 16Q818 8 800 2T763 -9T724 -16T688 -18Q662 -18 640 -13T601 3T576 34T567 82V1272Z"
/>
<glyph unicode="U" glyph-name="U" horiz-adv-x="1613" d="M1426 545Q1426 401 1381 292T1257 110T1076 -1T857 -39Q712 -39 598 -2T406 110T286 293T245 547V1307H50V1386Q65 1392 95 1400T164 1415T251 1427T347 1432Q388 1432 413 1431T453 1426T473 1410T478
1380V543Q478 491 486 437T512 333T560 237T631 159T729 106T857 86Q931 86 988 105T1087 158T1159 237T1205 333T1230 439T1238 547V1114Q1238 1176 1235 1224T1226 1307T1216 1365T1209 1403Q1219 1410 1233 1415T1263 1425T1295 1430T1324 1432Q1344 1432 1362
1428T1395 1412T1417 1381T1426 1333V545Z" />
<glyph unicode="V" glyph-name="V" horiz-adv-x="1536" d="M875 213H888Q945 337 996 445T1085 655T1147 854T1170 1057Q1170 1126 1159 1198T1123 1352L1285 1421Q1299 1428 1310 1430T1332 1432Q1369 1432 1390 1398T1412 1307Q1412 1251 1395 1168T1347 981T1271
757T1171 508T1049 246T910 -18H808Q784 -18 766 -14T735 -1T710 23T689 63L177 1255L3 1176L-30 1247Q-5 1270 37 1302T128 1363T223 1412T304 1432Q330 1432 351 1418T388 1368L875 213Z" />
<glyph unicode="W" glyph-name="W" horiz-adv-x="2263" d="M1648 231H1661Q1717 402 1756 526T1821 739T1861 884T1882 977T1890 1035T1892 1073Q1892 1118 1887 1158T1873 1234T1857 1299T1841 1352Q2017 1428 2028 1430T2050 1432Q2087 1432 2107 1398T2127
1305Q2127 1250 2112 1168T2068 983T2001 763T1913 518T1808 260T1691 0H1570Q1546 0 1528 3T1496 16T1471 41T1452 82L1181 838Q1169 785 1150 719T1105 580T1051 430T991 278T927 131T864 0H737Q713 0 695 3T663 16T638 41T618 82L188 1247L12 1169L-21 1241Q4
1264 43 1297T126 1360T215 1411T294 1432Q325 1432 355 1416T399 1362L817 231H829Q861 305 889 385T943 547T989 706T1028 857T1059 990T1083 1098L1075 1124Q1055 1184 1038 1227T1005 1301T979 1350T960 1380Q994 1409 1039 1420T1118 1432Q1145 1432 1165
1429T1202 1415T1230 1387T1253 1339L1648 231Z" />
<glyph unicode="X" glyph-name="X" horiz-adv-x="1519" d="M685 582Q654 537 612 483T530 369T464 247T437 123Q437 109 439 95T446 66L286 -6Q270 -12 258 -15T233 -18Q205 -16 185 4T165 59Q165 105 188 158T248 269T334 385T432 497T530 601T616 688L241 1253L93
1149L42 1212Q69 1242 109 1281T192 1355T275 1414T345 1438Q371 1438 399 1422T458 1360L788 862Q836 932 871 983T930 1072T970 1137T994 1184T1006 1222T1009 1257Q1009 1277 1006 1300T992 1350L1152 1419Q1183 1432 1203 1432Q1221 1432 1234 1423T1257 1399T1270
1365T1275 1327Q1275 1284 1252 1237T1191 1141Q1146 1085 1096 1027T999 916T914 822T855 758L1271 164L1422 272L1474 207Q1449 171 1412 132T1333 59T1248 4T1166 -18Q1139 -18 1110 -3T1054 51L685 582Z" />
<glyph unicode="Y" glyph-name="Y" horiz-adv-x="1352" d="M862 532Q862 435 862 365T864 243T868 157T874 97T882 53T893 16Q878 8 860 2T823 -9T784 -16T747 -18Q695 -18 661 3T627 82V500L172 1253L-4 1176L-37 1247Q-13 1269 27 1301T114 1362T207 1411T287
1432Q310 1432 332 1418T377 1370L801 672H805Q841 735 877 798T942 924T989 1052T1007 1182Q1007 1225 996 1267T967 1354L1124 1421Q1138 1428 1149 1430T1171 1432Q1210 1432 1228 1401T1247 1317Q1247 1245 1216 1157T1132 969T1010 759T862 532Z" />
<glyph unicode="Z" glyph-name="Z" horiz-adv-x="1287" d="M1069 1417Q1086 1416 1104 1414T1138 1404T1163 1383T1173 1348V1307L360 141H507Q574 141 659 145T832 159T1004 183T1153 219Q1153 218 1155 209T1162 183T1169 147T1173 106Q1173 54 1138 29T1032
-6T860 -15T622 -14Q548 -14 477 -13T346 -11T239 -7T170 0Q147 4 132 10T108 25T96 50T92 86V121L882 1274H645Q538 1273 458 1255T325 1216T246 1176T219 1157Q213 1163 198 1187T166 1240T137 1295T124 1331Q124 1353 147 1369T209 1397T300 1415T412 1426T534
1431T657 1432Q760 1432 865 1428T1069 1417Z" />
<glyph unicode="[" glyph-name="bracketleft" horiz-adv-x="642" d="M568 -143V-158Q568 -203 549 -220T486 -238H199V1536H486Q529 1536 548 1519T568 1456V1442H346V-143H568Z" />
<glyph unicode="\" glyph-name="backslash" horiz-adv-x="1072" d="M1015 0H880Q857 0 843 6T819 22T801 48T784 82L52 1575H175Q199 1575 215 1570T242 1554T262 1528T280 1493L1015 0Z" />
<glyph unicode="]" glyph-name="bracketright" horiz-adv-x="643" d="M296 -143V1442H75V1456Q75 1501 94 1518T157 1536H444V-238H157Q113 -238 94 -221T75 -158V-143H296Z" />
<glyph unicode="^" glyph-name="asciicircum" horiz-adv-x="1391" d="M1182 293Q1190 280 1192 268T1194 246Q1194 226 1182 213T1145 186L1077 154L676 791H672L281 158L215 186Q164 208 164 246Q164 255 167 267T178 293L625 1024H686Q705 1024 718 1018T739
1005T751 990T758 979L1182 293Z" />
<glyph unicode="_" glyph-name="underscore" horiz-adv-x="1141" d="M123 -383V-319Q123 -274 142 -258T205 -242H1010V-303Q1010 -348 991 -365T928 -383H123Z" />
<glyph unicode="`" glyph-name="grave" horiz-adv-x="985" d="M555 1327Q563 1313 569 1298T575 1270Q575 1257 567 1250T537 1243H465Q415 1294 371 1340Q352 1359 333 1379T296 1417T264 1449T240 1473Q221 1490 213 1506T205 1534Q205 1573 268 1573H416L555 1327Z" />
<glyph unicode="a" glyph-name="a" horiz-adv-x="1216" d="M776 88Q776 88 763 80T726 58T671 30T602 1T524 -22T442 -31Q377 -31 318 -14T215 41T144 134T117 268Q117 354 155 414T262 511T426 565T635 582H776V657Q776 715 772 768T751 862T703 926T618 950Q567
950 516 932T416 885T322 824T240 760L158 870Q143 888 143 907Q143 940 184 967T288 1013T423 1044T557 1055Q649 1055 731 1033T874 964T972 841T1008 657V100H1182V25Q1165 16 1136 8T1070 -6T995 -15T919 -18Q895 -18 870 -15T825 -2T791 27T776 78V88ZM512
117Q547 117 592 126T679 147Q727 160 776 178V459H608Q570 459 525 452T440 426T373 371T346 279Q346 243 357 214T389 163T441 129T512 117Z" />
<glyph unicode="b" glyph-name="b" horiz-adv-x="1351" d="M762 934Q678 934 596 905T440 836V113Q440 112 460 107T512 96T583 85T663 80Q744 80 804 112T903 206T963 356T983 555Q983 641 972 711T934 830T865 907T762 934ZM440 932Q477 956 520 978T609 1018T702
1045T796 1055Q910 1055 992 1015T1128 904T1206 740T1231 539Q1231 416 1190 312T1076 131T899 12T671 -31Q601 -31 535 -21T410 4T299 38T209 74V1419H32V1495Q53 1504 91 1512T175 1525T267 1533T354 1536Q375 1536 391 1535T418 1529T434 1514T440 1483V932Z"
/>
<glyph unicode="c" glyph-name="c" horiz-adv-x="1138" d="M930 811Q897 830 857 852T774 892T685 923T596 936Q528 936 481 903T403 816T358 697T344 569Q344 471 370 385T450 235T586 135T780 98Q842 98 907 109T1042 141L1075 74Q1034 46 986 26T887 -6T784
-25T682 -31Q573 -31 471 3T289 104T161 269T113 494Q113 625 159 729T287 905T480 1016T723 1055Q733 1055 758 1054T814 1049T880 1039T942 1022T988 998T1006 965Q1006 960 1006 955T1001 944L930 811Z" />
<glyph unicode="d" glyph-name="d" horiz-adv-x="1385" d="M912 844Q882 860 851 876T786 904T711 924T623 932Q555 932 507 900T428 811T383 675T369 500Q369 403 387 328T439 200T522 120T636 92Q711 92 784 124T912 211V844ZM912 1419H736V1495Q757 1504 795
1512T878 1525T971 1533T1058 1536Q1079 1536 1095 1535T1122 1529T1138 1514T1144 1483V100H1318V25Q1301 16 1272 8T1206 -6T1131 -15T1056 -18Q1025 -18 999 -15T954 -1T923 28T912 78V94Q902 87 874 67T804 25T705 -14T582 -31Q477 -31 392 11T247 127T155
299T122 508Q122 630 149 731T233 904T375 1015T574 1055Q662 1055 748 1031T912 950V1419Z" />
<glyph unicode="e" glyph-name="e" horiz-adv-x="1221" d="M867 584Q873 604 875 624T877 666Q877 715 861 764T813 854T735 919T628 944Q551 944 500 915T416 836T368 721T349 584H867ZM116 512Q116 631 154 730T265 902T443 1014T681 1055Q781 1055 860 1023T994
937T1078 812T1107 664Q1107 628 1101 592T1078 527T1030 480T949 461H351Q361 371 398 302T493 186T627 114T791 90Q851 90 915 100T1047 133L1080 66Q1039 38 992 18T895 -14T793 -33T691 -39Q581 -39 478 -5T294 99T165 271T116 512Z" />
<glyph unicode="f" glyph-name="f" horiz-adv-x="846" d="M520 901V-16Q520 -138 479 -228T369 -376T213 -463T35 -492Q15 -492 -18 -490T-82 -482T-137 -464T-160 -432Q-160 -427 -159 -423T-156 -414L-90 -262Q-53 -278 -15 -294T58 -323T124 -344T180 -352Q222
-352 245 -321T278 -241T289 -133T291 -18L289 901H51V946Q51 991 70 1007T133 1024H289V1090Q289 1210 326 1294T427 1432T571 1511T741 1536Q760 1536 796 1534T869 1525T931 1502T958 1460Q958 1452 956 1446T948 1432L874 1298Q836 1318 801 1338T734 1373T673
1399T618 1409Q584 1409 565 1392T535 1343T523 1265T520 1159V1024H807V981Q807 936 788 919T725 901H520Z" />
<glyph unicode="g" glyph-name="g" horiz-adv-x="1370" d="M377 672Q377 538 435 463T614 387Q735 387 793 462T852 672Q852 806 794 880T614 954Q493 954 435 880T377 672ZM236 -135Q273 -191 316 -234T413 -308T529 -353T668 -369Q707 -369 756 -363T850 -340T924
-293T954 -213Q954 -174 921 -151T833 -113T708 -89T565 -69T422 -42T298 1T210 72T176 180Q176 220 191 247T229 294T279 327T330 354Q242 404 192 484T141 672Q141 761 177 832T277 952T427 1028T614 1055Q741 1055 844 1013T1010 893L1069 967Q1102 1007 1128
1032T1179 1072T1226 1091T1278 1096Q1291 1096 1307 1093T1338 1081T1362 1061T1372 1030V895Q1303 895 1255 894T1172 886T1110 862T1055 817Q1070 783 1078 748T1087 670Q1087 581 1051 511T952 390T802 314T614 287Q560 287 512 294T418 315Q380 295 358 273T336
227Q336 187 371 166T465 132T599 114T751 99T904 75T1037 30T1131 -50T1167 -176Q1167 -256 1122 -315T1003 -414T834 -472T639 -492Q569 -492 499 -483T362 -458T239 -420T140 -371T74 -314T49 -252Q49 -237 59 -224T92 -198T150 -169T236 -135Z" />
<glyph unicode="h" glyph-name="h" horiz-adv-x="1374" d="M32 1495Q53 1504 91 1512T174 1525T266 1533T353 1536Q374 1536 390 1535T417 1529T433 1514T439 1483V940Q445 942 465 951T516 973T585 1000T668 1028T758 1049T851 1057Q941 1057 997 1034T1084 968T1127
867T1138 739V100H1312V25Q1295 16 1266 8T1200 -6T1125 -15T1050 -18Q1019 -18 993 -15T948 -1T917 28T906 78V719Q906 770 901 806T880 865T837 898T767 909Q725 909 671 901T568 881T483 861T439 850V301Q439 239 442 192T450 110T460 52T468 14Q454 6 436 1T399
-9T360 -16T325 -18Q299 -18 278 -14T241 2T217 31T208 78V1419H32V1495V1495Z" />
<glyph unicode="i" glyph-name="i" horiz-adv-x="716" d="M474 100H648V25Q631 16 602 8T536 -6T461 -15T386 -18Q355 -18 329 -15T284 -1T253 28T242 78V926H66V1001Q87 1010 125 1018T208 1031T301 1039T388 1042Q409 1042 425 1041T452 1035T468 1020T474 989V100ZM218
1372Q218 1400 229 1425T259 1468T304 1496T359 1507Q388 1507 414 1497T459 1468T489 1425T500 1372Q500 1344 489 1320T459 1278T414 1250T359 1239Q330 1239 304 1249T259 1278T229 1320T218 1372Z" />
<glyph unicode="j" glyph-name="j" horiz-adv-x="659" d="M473 -16Q473 -138 431 -228T320 -376T163 -463T-17 -492Q-37 -492 -69 -490T-133 -482T-188 -464T-211 -432Q-211 -427 -210 -423T-207 -414L-142 -262Q-99 -277 -61 -293T12 -322T75 -343T129 -352Q147
-352 163 -347T194 -328Q208 -315 216 -282T230 -208T237 -124T240 -46T241 9T241 25V926H65V1001Q86 1010 124 1018T207 1031T300 1039T387 1042Q408 1042 424 1041T451 1035T467 1020T473 989V-16ZM217 1372Q217 1400 228 1425T258 1468T303 1496T358 1507Q387
1507 413 1497T458 1468T488 1425T499 1372Q499 1344 488 1320T458 1278T413 1250T358 1239Q329 1239 303 1249T258 1278T228 1320T217 1372Z" />
<glyph unicode="k" glyph-name="k" horiz-adv-x="1235" d="M32 1419V1495Q53 1504 91 1512T175 1525T267 1533T354 1536Q375 1536 391 1535T418 1529T434 1514T440 1483V301Q440 178 451 110T469 14Q455 6 437 1T400 -9T361 -16T325 -18Q300 -18 279 -14T242 2T218
31T209 78V1419H32ZM1077 981Q1077 949 1058 913T1006 840T932 764T846 691T758 623T680 563L997 158L1145 254L1185 193Q1167 159 1134 122T1060 53T976 2T897 -18Q874 -18 852 -7T811 29L483 449Q479 454 476 460Q469 472 469 487Q469 498 474 509T491 532Q512
551 545 578T614 637T688 705T754 779T802 853T821 924Q821 951 813 971Q864 996 894 1012T944 1038T977 1051T1009 1055Q1043 1055 1060 1034T1077 981Z" />
<glyph unicode="l" glyph-name="l" horiz-adv-x="681" d="M440 100H614V25Q597 16 568 8T502 -6T427 -15T352 -18Q321 -18 295 -15T250 -1T220 28T209 78V1419H32V1495Q53 1504 91 1512T175 1525T267 1533T354 1536Q375 1536 391 1535T418 1529T434 1514T440 1483V100Z" />
<glyph unicode="m" glyph-name="m" horiz-adv-x="2036" d="M1135 301Q1135 239 1138 192T1146 110T1156 52T1164 14Q1150 6 1132 1T1095 -9T1056 -16T1021 -18Q995 -18 974 -14T937 2T913 31T904 78V731Q904 772 901 804T887 858T852 893T787 905Q760 905 726
901T657 891T589 877T530 863T489 852T474 848V301Q474 239 477 192T484 110T494 52T502 14Q488 6 471 1T434 -9T395 -16T359 -18Q333 -18 312 -14T275 2T251 31T242 78V924H66V999Q87 1008 125 1016T208 1029T301 1037T388 1040Q409 1040 425 1039T452 1033T468
1018T474 987V938Q474 937 491 945T539 967T610 995T696 1023T790 1046T885 1055Q920 1055 954 1050T1017 1031T1070 995T1107 938Q1107 937 1125 945T1174 967T1246 995T1333 1023T1428 1046T1524 1055Q1612 1055 1666 1033T1749 969T1787 871T1797 745V100H1971V25Q1954
16 1925 8T1859 -6T1784 -15T1709 -18Q1678 -18 1652 -15T1607 -1T1576 28T1565 78V731Q1565 772 1562 804T1548 858T1513 893T1449 905Q1423 905 1378 899T1285 884T1193 866T1129 852Q1135 802 1135 745V301Z" />
<glyph unicode="n" glyph-name="n" horiz-adv-x="1410" d="M242 924H66V999Q87 1008 125 1016T208 1029T301 1037T388 1040Q409 1040 425 1039T452 1033T468 1018T474 987V938Q489 943 529 962T628 1001T755 1038T896 1055Q983 1055 1037 1031T1121 965T1161 864T1172
737V100H1346V25Q1329 16 1300 8T1234 -6T1159 -15T1084 -18Q1053 -18 1027 -15T982 -1T952 28T941 78V717Q941 768 936 804T915 863T872 896T801 907Q773 907 740 903T671 893T602 879T541 866T495 854T474 848V301Q474 239 477 192T484 110T494 52T502 14Q488
6 471 1T434 -9T395 -16T359 -18Q333 -18 312 -14T275 2T251 31T242 78V924Z" />
<glyph unicode="o" glyph-name="o" horiz-adv-x="1333" d="M1216 510Q1216 388 1174 288T1057 117T882 8T668 -31Q552 -31 452 8T277 118T160 288T117 510Q117 633 160 733T277 905T451 1016T668 1055Q783 1055 883 1016T1057 906T1173 734T1216 510ZM364 512Q364
427 377 348T424 209T517 112T668 76Q759 76 817 112T909 208T956 348T969 512Q969 597 956 676T910 815T818 912T668 948Q576 948 518 912T425 816T377 676T364 512Z" />
<glyph unicode="p" glyph-name="p" horiz-adv-x="1386" d="M474 188Q502 172 533 155T599 123T669 100T744 90Q814 90 865 124T949 216T998 353T1014 518Q1014 615 1004 692T969 824T903 907T797 936Q743 936 687 921T583 888Q528 867 474 840V188ZM502 -461Q488
-469 471 -475T434 -485T395 -491T359 -494Q308 -494 275 -472T242 -393V924H64V999Q85 1008 123 1016T207 1029T301 1037T388 1040Q409 1040 425 1039T452 1033T468 1018T474 987V940Q503 961 542 982T628 1019T725 1045T830 1055Q953 1055 1036 1008T1170 885T1242
712T1264 516Q1264 449 1252 382T1214 254T1150 141T1060 51T944 -9T801 -31Q730 -31 670 -16T567 17T499 51T474 68V-174Q474 -236 477 -283T484 -365T494 -423T502 -461Z" />
<glyph unicode="q" glyph-name="q" horiz-adv-x="1322" d="M632 90Q672 90 707 97T775 119T841 151T910 193V911Q910 912 890 917T838 928T767 939T687 944Q532 944 450 831T367 504Q367 412 385 336T438 206T521 121T632 90ZM1316 -373V-449Q1299 -458 1270 -466T1204
-479T1129 -488T1054 -492Q1023 -492 997 -489T952 -475T921 -445T910 -395V76Q881 58 843 39T760 5T667 -21T568 -31Q448 -31 363 12T224 128T145 292T120 483Q120 615 161 721T276 901T452 1015T679 1055Q749 1055 815 1045T940 1020T1051 986T1142 950V-373H1316Z"
/>
<glyph unicode="r" glyph-name="r" horiz-adv-x="992" d="M66 997Q87 1006 125 1014T208 1027T301 1035T388 1038Q409 1038 425 1037T452 1031T468 1016T474 985V745L601 926Q649 992 707 1023T840 1055Q853 1055 873 1054T913 1046T947 1029T961 999Q961 994
961 991T959 983L916 842Q878 854 848 859T791 864Q737 864 688 834T598 762T526 678T474 612V301Q474 239 477 192T484 110T494 52T502 14Q488 6 471 1T434 -9T395 -16T359 -18Q333 -18 312 -14T275 2T251 31T242 78V922H66V997V997Z" />
<glyph unicode="s" glyph-name="s" horiz-adv-x="1022" d="M193 242Q220 222 258 194T343 141T440 97T545 78Q578 78 608 87T663 116T701 162T715 225Q715 266 689 297T624 352T541 394T463 428Q404 454 346 482T241 548T165 640T135 770Q135 847 173 901T273
989T411 1039T561 1055Q607 1055 658 1051T753 1038T825 1013T854 977Q854 969 848 956L780 825Q761 837 729 856T655 894T568 925T473 938Q404 938 360 906T316 815Q316 769 342 735T410 675T507 627T619 582T730 533T827 473T896 393T922 285Q922 197 884 137T786
40T651 -14T504 -31Q442 -31 372 -18T243 16T146 61T107 106Q107 119 113 131L193 242V242Z" />
<glyph unicode="t" glyph-name="t" horiz-adv-x="934" d="M830 1024V981Q830 936 811 919T748 901H482V315Q482 203 523 146T648 88Q685 88 724 97T794 116T844 133T863 139L895 70Q860 48 825 30T751 -2T667 -23T566 -31Q493 -31 435 -9T335 56T272 159T250 297V901H43V946Q43
991 62 1007T125 1024H250V1262Q250 1289 258 1307T283 1336T320 1351T367 1356Q383 1356 402 1354T441 1349T478 1339T510 1325Q507 1311 502 1288T493 1228T485 1142T482 1024H830Z" />
<glyph unicode="u" glyph-name="u" horiz-adv-x="1409" d="M759 928V1004Q780 1013 818 1020T901 1033T994 1041T1081 1044Q1102 1044 1118 1043T1145 1037T1161 1022T1167 991V100H1341V25Q1324 16 1295 8T1229 -6T1154 -15T1079 -18Q1048 -18 1022 -15T977 -1T946
28T935 78V86Q935 87 918 79T870 57T799 29T712 1T617 -22T522 -31Q432 -31 376 -8T290 58T248 159T237 287V928H61V1004Q82 1013 120 1020T203 1033T295 1041T382 1044Q403 1044 419 1043T446 1037T462 1022T468 991V307Q468 256 473 220T494 161T537 128T608
117Q633 117 667 121T738 132T810 146T874 160T918 171T935 176V928H759Z" />
<glyph unicode="v" glyph-name="v" horiz-adv-x="1244" d="M424 995Q425 993 438 957T473 864T523 734T580 586T638 437T690 307T730 212T751 172Q784 224 820 297T887 451T938 611T958 758Q958 793 953 823T939 877T923 923T907 961L1038 1026Q1073 1042 1095
1042Q1113 1042 1125 1033T1145 1009T1156 978T1159 944Q1159 892 1140 819T1090 662T1018 488T934 311T850 143T774 0H669Q635 0 604 18T555 78L223 858L65 788L34 858Q58 879 102 910T195 970T290 1021T364 1042Q383 1042 398 1032T424 995Z" />
<glyph unicode="w" glyph-name="w" horiz-adv-x="1847" d="M34 862Q59 884 94 914T170 973T257 1022T348 1042Q369 1042 389 1030T422 983Q423 981 435 946T468 853T514 724T567 577T622 430T671 300T708 206T729 166Q731 170 743 202T772 284T809 396T849 523T886
649T913 760L831 963Q842 973 861 986T903 1012T951 1033T999 1042Q1022 1042 1042 1030T1075 987Q1151 762 1213 583Q1240 507 1266 434T1313 302T1350 206T1370 166Q1397 222 1426 300T1481 462T1523 629T1540 778Q1540 844 1525 888T1495 961L1593 1010Q1602
1014 1614 1020T1640 1030T1665 1038T1687 1042Q1706 1042 1718 1032T1736 1007T1745 973T1747 940Q1747 888 1731 815T1686 657T1622 481T1547 302T1467 136T1392 -2H1288Q1254 -2 1224 17T1177 74L991 567Q978 527 961 478T923 377T880 272T836 168T792 75T751
-2H647Q613 -2 582 17T534 74L219 862L71 797L34 862V862Z" />
<glyph unicode="x" glyph-name="x" horiz-adv-x="1213" d="M1127 250L1166 188Q1151 153 1120 117T1049 50T965 0T879 -20Q854 -20 834 -10T797 27L539 414Q521 388 496 354T447 280T406 200T389 119Q389 86 402 59Q376 44 352 30T304 5T257 -13T211 -20Q150 -20
150 43Q150 83 179 135T256 248T362 372T481 500L248 854L101 760L62 823Q67 835 84 856T126 902T181 952T242 997T305 1031T363 1044Q378 1044 391 1038T416 1016Q487 914 546 825T662 651Q710 713 736 755T774 825T788 869T791 895Q791 920 784 938T772 969Q825
996 859 1011T915 1034T947 1042T967 1044Q1024 1044 1024 977Q1024 935 996 885T924 781T826 671T719 563L981 152L1127 250Z" />
<glyph unicode="y" glyph-name="y" horiz-adv-x="1265" d="M1104 1042Q1123 1042 1135 1032T1155 1006T1164 972T1167 936Q1167 877 1151 803T1106 645T1041 474T965 302T885 140T809 0Q777 -56 742 -114T665 -227T575 -330T470 -415T346 -473T201 -494Q186 -494
159 -492T107 -484T62 -467T43 -436Q43 -431 44 -428T47 -420L102 -272Q177 -294 232 -311T336 -328Q378 -328 421 -302T502 -236T572 -152T623 -68L219 858L68 791L31 858Q55 880 91 912T169 972T256 1021T344 1042Q369 1042 390 1032T420 995Q420 993 433 960T469
874T519 752T577 610T636 466T690 335T732 235T756 180Q790 243 827 319T896 475T947 629T967 764Q967 817 954 867T915 961L1047 1026Q1082 1042 1104 1042Z" />
<glyph unicode="z" glyph-name="z" horiz-adv-x="1112" d="M541 121Q626 121 706 129T851 147Q926 158 993 174L1010 66V55Q1010 36 1001 24T976 4T944 -5T912 -8L189 0Q150 0 130 19T109 82V135L737 913Q611 910 523 904T375 889T279 872T221 856T185 845T156
840L129 958Q127 963 127 966T127 973Q127 1032 217 1032Q255 1032 304 1032T407 1031T518 1030T628 1028Q753 1026 887 1024Q929 1022 951 1004T973 942V891L340 121H541Z" />
<glyph unicode="{" glyph-name="braceleft" horiz-adv-x="646" d="M355 866Q355 803 337 762T297 695T254 659T228 647Q231 646 250 636T292 601T332 534T351 428L355 -29Q355 -70 360 -93T378 -129T410 -144T459 -147H572V-162Q572 -207 553 -224T490 -242H420Q376
-242 338 -233T271 -201T225 -136T207 -31L203 430Q202 481 191 513T164 566T132 597T103 612V647Q103 664 110 675T130 698T155 721T180 752T199 797T207 864L203 1325Q202 1389 220 1430T268 1494T338 1527T420 1536H490Q533 1536 552 1519T572 1456V1442H459Q432
1442 411 1439T377 1424T357 1389T351 1323L355 866V866Z" />
<glyph unicode="|" glyph-name="bar" horiz-adv-x="552" d="M350 -18H281Q236 -18 220 1T203 63V1536H270Q315 1536 332 1517T350 1454V-18Z" />
<glyph unicode="}" glyph-name="braceright" horiz-adv-x="647" d="M291 866L295 1323Q296 1365 290 1388T270 1424T235 1439T187 1442H74V1456Q74 1501 93 1518T156 1536H225Q267 1536 307 1527T377 1495T426 1430T443 1325L438 864Q438 824 446 798T465 753T490
722T515 698T535 676T543 647V612Q531 607 515 597T482 567T455 514T443 430L438 -31Q437 -95 420 -136T375 -200T308 -233T225 -242H156Q112 -242 93 -225T74 -162V-147H187Q215 -147 235 -144T267 -129T285 -94T291 -29L295 428Q296 492 314 534T354 601T395
636T418 647Q413 648 393 659T350 695T309 761T291 866Z" />
<glyph unicode="~" glyph-name="asciitilde" horiz-adv-x="1273" d="M871 375Q811 375 755 395T643 439T532 484T420 504Q382 504 353 491T302 460T264 423T238 389Q215 410 201 424T178 449T167 467T164 481Q164 494 173 507T199 539Q225 567 259 590Q288 609
329 625T422 641Q478 641 532 622T639 580T746 537T858 518Q901 518 936 528T997 552T1035 576T1049 588Q1081 550 1091 528T1102 489Q1102 464 1082 443T1030 407T956 384T871 375Z" />
<glyph unicode="&#xa0;" glyph-name="nbspace" horiz-adv-x="560" />
<glyph unicode="&#xa1;" glyph-name="exclamdown" horiz-adv-x="633" d="M431 66Q439 -59 449 -130T466 -231Q451 -240 432 -246T390 -258T347 -265T308 -268Q282 -268 260 -263T221 -246T196 -215T189 -168L226 516Q229 564 229 599T230 662Q230 704 228 727T222
770Q234 779 256 786T298 793Q343 793 366 773T392 705L431 66ZM312 950Q279 950 252 961T205 990T174 1034T163 1087Q163 1117 174 1143T204 1188T251 1218T312 1229Q344 1229 371 1218T417 1188T446 1143T457 1087Q457 1059 447 1034T417 991T371 961T312 950Z"
/>
<glyph unicode="&#xa2;" glyph-name="cent" horiz-adv-x="1155" d="M541 1133Q482 1110 441 1066T375 966T339 846T328 723Q328 658 341 600T380 492T446 405T541 342V1133ZM658 1257Q681 1261 705 1262T754 1264Q764 1264 788 1263T843 1258T907 1248T967 1231T1011
1208T1029 1176Q1029 1167 1022 1153L938 1020Q911 1037 878 1056T809 1092T735 1122T658 1141V311Q675 309 692 308T727 307Q789 307 855 318T994 350L1020 283Q940 232 846 208T658 178V0H619Q574 0 558 19T541 82V182Q449 193 368 230T225 327T129 472T93 662Q93
775 127 868T221 1035T363 1158T541 1235V1450H578Q623 1450 640 1431T658 1368V1257Z" />
<glyph unicode="&#xa3;" glyph-name="sterling" horiz-adv-x="1231" d="M551 690Q561 623 565 555T554 416T492 271T356 119H524Q591 119 665 128T816 151T965 185T1104 225Q1109 211 1113 195Q1117 181 1120 165T1126 131Q1129 107 1126 86T1112 47T1081 17T1030
0Q997 -4 930 -7T778 -11T602 -12T426 -10T277 -6T180 0Q134 5 118 24T102 86Q180 129 231 176T311 272T353 373T365 477T357 583T338 690H123V735Q123 767 136 779T180 791H313Q293 869 276 945T258 1094Q258 1171 277 1227T329 1323T406 1388T501 1426T606 1445T715
1450Q731 1450 770 1447T857 1437T953 1417T1037 1385T1088 1340T1083 1280L999 1139Q973 1174 938 1206T861 1263T770 1302T668 1317Q634 1317 601 1304T542 1263T499 1193T483 1094Q483 1016 499 941T530 791H911V748Q911 716 898 703T854 690H551Z" />
<glyph unicode="&#xa4;" glyph-name="currency" horiz-adv-x="1220" d="M1051 377L1002 330Q983 311 963 311Q941 311 922 332L830 428Q782 396 727 377T610 358Q486 358 391 428L254 291L207 340Q198 349 194 359T189 379Q189 390 194 400T209 420L303 514Q271
559 254 615T236 733Q236 795 252 848T303 950L166 1087L215 1135Q224 1144 234 1148T254 1153Q275 1153 295 1133L389 1038Q437 1070 492 1090T610 1110Q670 1110 724 1090T827 1038L965 1176L1012 1126Q1030 1108 1030 1087Q1030 1067 1010 1047L916 952Q987
857 987 733Q987 671 969 615T916 514L1051 377ZM350 733Q350 679 370 632T426 549T509 492T610 471Q665 471 713 492T797 548T852 631T873 733Q873 788 853 836T797 920T714 976T610 997Q556 997 509 977T427 921T371 837T350 733Z" />
<glyph unicode="&#xa5;" glyph-name="yen" horiz-adv-x="1448" d="M961 379V315Q961 251 964 202T973 117T984 56T992 16Q977 8 959 2T922 -9T883 -16T846 -18Q783 -18 752 3T721 82V379H470V408Q470 442 484 454T533 467H719V563H470V592Q470 626 484 638T533
651H695L271 1247L95 1169L62 1241Q86 1263 126 1294T213 1355T306 1404T386 1425Q410 1425 431 1412T476 1364L900 754H904Q957 829 994 888T1056 998T1091 1091T1102 1178Q1102 1218 1093 1260T1066 1354Q1116 1379 1151 1394T1209 1418T1247 1429T1270 1432Q1309
1432 1327 1402T1346 1321Q1346 1256 1318 1183T1240 1026T1125 849T986 651H1219V623Q1219 589 1205 576T1158 563H961V467H1219V440Q1219 405 1205 392T1158 379H961Z" />
<glyph unicode="&#xa6;" glyph-name="brokenbar" horiz-adv-x="530" d="M327 737H282Q237 737 221 756T204 819V1554H247Q292 1554 309 1535T327 1473V737ZM327 -489H282Q237 -489 221 -470T204 -408V328H247Q292 328 309 309T327 246V-489Z" />
<glyph unicode="&#xa7;" glyph-name="section" horiz-adv-x="998" d="M860 752Q860 648 813 577T688 469Q760 427 805 366T850 221Q850 150 824 95T752 3T648 -53T522 -72Q432 -72 344 -49T176 29Q160 40 147 53T133 84Q133 90 135 96T143 111L213 217Q262 169
315 132Q337 116 363 101T416 73T472 54T528 47Q555 47 584 53T637 75T676 113T692 172Q692 208 667 235T604 287T519 334T428 383Q337 436 283 482T201 571T164 654T155 737Q155 784 167 823T202 893T256 947T323 987Q275 1019 244 1052T196 1120T173 1187T166
1253Q166 1331 200 1384T289 1472T409 1521T540 1536Q560 1536 588 1536T646 1533T706 1524T760 1508T798 1483T813 1446Q813 1438 811 1429T803 1411L749 1317Q718 1334 686 1352T620 1387T548 1413T469 1423Q440 1423 414 1415T368 1391T335 1350T323 1290Q323
1249 346 1218T407 1160T493 1111T591 1062T690 1009T776 944T837 861T860 752ZM702 705Q702 742 679 773T619 831T536 881T444 924Q387 904 350 865T313 766Q313 718 334 685T390 627T468 581T553 537Q584 548 611 564T659 601T690 648T702 705Z" />
<glyph unicode="&#xa8;" glyph-name="dieresis" horiz-adv-x="1026" d="M315 1516Q340 1516 361 1508T398 1485T421 1452T430 1411Q430 1365 398 1334T315 1303Q266 1303 236 1334T205 1411Q205 1454 235 1485T315 1516ZM707 1516Q732 1516 753 1508T789 1485T812
1452T821 1411Q821 1365 790 1334T707 1303Q657 1303 627 1334T596 1411Q596 1454 626 1485T707 1516Z" />
<glyph unicode="&#xa9;" glyph-name="copyright" horiz-adv-x="1818" d="M1121 926Q1093 940 1062 957T997 989T928 1014T859 1024Q806 1024 768 999T704 934T668 844T656 745Q656 651 682 580T753 461T860 389T994 365Q1046 365 1103 373T1209 399L1233 346Q1168
303 1088 284T928 264Q837 264 755 293T611 377T513 510T476 686Q476 788 514 868T617 1003T770 1088T959 1118Q989 1118 1027 1114T1100 1101T1158 1079T1182 1049Q1182 1045 1181 1042T1174 1026T1156 991T1121 926ZM214 702Q214 534 265 404T408 186T628 52T910
6Q1063 6 1190 51T1410 185T1553 403T1604 700Q1604 868 1553 998T1410 1216T1191 1351T910 1397Q756 1397 628 1351T408 1217T265 998T214 702ZM1707 702Q1707 519 1646 372T1478 120T1224 -40T908 -96Q738 -96 593 -40T340 120T172 371T111 700Q111 883 172 1030T340
1282T592 1443T908 1499Q1078 1499 1224 1443T1477 1283T1646 1031T1707 702Z" />
<glyph unicode="&#xaa;" glyph-name="ordfeminine" horiz-adv-x="826" d="M494 856Q462 834 427 817Q397 802 359 790T281 778Q239 778 202 789T135 824T89 884T72 971Q72 1026 96 1064T165 1126T270 1160T404 1171H494V1221Q494 1258 491 1291T478 1350T448 1391T394
1407Q362 1407 329 1396T265 1366T205 1327T152 1286L99 1356Q91 1367 91 1380Q91 1402 117 1419T183 1449T269 1468T355 1475Q414 1475 466 1461T558 1417T621 1338T644 1221V862H754V815Q743 809 724 804T682 795T634 789T586 786Q571 786 555 788T526 797T504
816T494 848V856ZM326 874Q349 874 377 879T432 893Q462 902 494 913V1094H388Q364 1094 335 1090T280 1072T237 1037T220 977Q220 932 247 903T326 874Z" />
<glyph unicode="&#xab;" glyph-name="guillemotleft" horiz-adv-x="981" d="M453 526Q453 536 454 545T458 566T469 589T489 618L692 870Q710 891 727 891Q733 891 740 888T760 877T790 854T834 817L627 555L834 297Q809 274 793 258T766 232T747 218T731 213Q714
213 698 233L453 526ZM115 526Q115 546 120 566T152 618L403 930Q422 950 438 950Q444 950 452 947T472 936T501 913T545 877L289 555L543 240Q518 217 502 201T475 175T456 161T440 156Q425 156 408 176L115 526Z" />
<glyph unicode="&#xac;" glyph-name="logicalnot" horiz-adv-x="1222" d="M896 662H150V725Q150 770 169 786T232 803H1037V244H976Q931 244 914 263T896 326V662Z" />
<glyph unicode="&#xad;" glyph-name="uni00AD" horiz-adv-x="867" d="M159 471V565Q159 610 178 626T241 643H710V551Q710 506 691 489T628 471H159Z" />
<glyph unicode="&#xae;" glyph-name="registered" horiz-adv-x="1818" d="M934 600H777V274H678Q652 274 643 285T633 322V1038H519V1085Q528 1090 545 1095T586 1104T638 1111T695 1114H918Q990 1114 1049 1098T1149 1050T1212 971T1235 862Q1235 772 1193 710T1070
621L1244 367L1338 436L1367 397Q1352 377 1331 353T1286 309T1235 274T1186 260Q1169 260 1152 269T1121 301L934 600ZM777 682H918Q965 682 997 698T1050 739T1080 796T1090 858Q1090 887 1081 918T1053 975T1005 1017T934 1034H777V682ZM214 702Q214 534 265
404T408 186T628 52T910 6Q1063 6 1190 51T1410 185T1553 403T1604 700Q1604 868 1553 998T1410 1216T1191 1351T910 1397Q756 1397 628 1351T408 1217T265 998T214 702ZM1707 702Q1707 519 1646 372T1478 120T1224 -40T908 -96Q738 -96 593 -40T340 120T172 371T111
700Q111 883 172 1030T340 1282T592 1443T908 1499Q1078 1499 1224 1443T1477 1283T1646 1031T1707 702Z" />
<glyph unicode="&#xaf;" glyph-name="overscore" horiz-adv-x="1051" d="M82 1161V1225Q82 1270 101 1286T164 1303H969V1241Q969 1196 950 1179T887 1161H82Z" />
<glyph unicode="&#xb0;" glyph-name="degree" horiz-adv-x="895" d="M126 1092Q126 1159 151 1217T219 1319T321 1388T447 1413Q514 1413 573 1388T675 1320T744 1218T769 1092Q769 1025 744 966T676 864T573 795T447 770Q380 770 322 795T220 863T151 966T126
1092ZM232 1092Q232 1047 249 1008T295 940T363 894T447 877Q492 877 531 894T599 940T645 1008T662 1092Q662 1136 645 1175T599 1243T531 1290T447 1307Q403 1307 364 1290T295 1244T249 1175T232 1092Z" />
<glyph unicode="&#xb1;" glyph-name="plusminus" horiz-adv-x="1196" d="M667 721V348H604Q559 348 543 367T526 430V721H153V784Q153 829 172 845T235 862H526V1235H588Q633 1235 650 1216T667 1153V862H1040V801Q1040 756 1021 739T958 721H667ZM153 61V124Q153
169 172 185T235 202H1040V140Q1040 96 1021 79T958 61H153Z" />
<glyph unicode="&#xb2;" glyph-name="twosuperior" horiz-adv-x="917" d="M690 1038Q672 1012 647 983T593 922T531 859T469 799Q398 731 319 662L407 664Q449 665 494 672T585 692T671 719T747 750Q747 747 749 738T754 713T761 679T764 647Q764 612 749 594T700
569T609 561T471 561Q389 561 326 560T220 563T155 581T133 623Q159 650 201 692T292 785T391 893T481 1006T546 1116T571 1214Q571 1274 537 1315T432 1356Q408 1356 374 1340T309 1302T256 1260T233 1233L170 1323Q162 1334 162 1346Q162 1367 190 1385T259 1418T348
1441T434 1450Q515 1450 573 1429T669 1373T725 1294T743 1202Q743 1160 730 1118T690 1038Z" />
<glyph unicode="&#xb3;" glyph-name="threesuperior" horiz-adv-x="891" d="M432 1352Q365 1352 322 1338T253 1307Q223 1287 207 1262Q203 1267 193 1285T171 1325T152 1364T143 1386Q143 1406 171 1418T242 1438T334 1447T426 1450Q447 1450 476 1450T537 1449T599
1446T655 1437T695 1422T710 1397V1372Q692 1310 653 1255T572 1158T498 1089T461 1061Q531 1056 587 1038T682 986T743 906T764 797Q764 736 737 688T663 607T557 557T430 539Q387 539 336 547T241 569T167 603T137 647Q137 652 138 659T145 674L192 764Q221 744
249 723T307 683T367 653T432 641Q512 641 557 686T602 809Q602 893 552 933T405 973H385H315V1038Q315 1058 321 1063T332 1071Q412 1130 466 1202T534 1352H432Z" />
<glyph unicode="&#xb4;" glyph-name="acute" horiz-adv-x="555" d="M250 1573H397Q407 1573 418 1571T439 1564T455 1551T461 1528Q461 1503 426 1473Q417 1464 402 1450T370 1417T333 1379T295 1340Q251 1294 201 1243H129Q107 1243 99 1251T90 1270Q90 1282
96 1297T111 1327L250 1573Z" />
<glyph unicode="&#xb5;" glyph-name="mu" horiz-adv-x="1359" d="M618 -395Q595 -410 565 -427T499 -459T427 -482T354 -492Q320 -492 290 -482T237 -447T201 -382T186 -283V1036Q224 1039 262 1041T333 1044Q354 1044 370 1043T397 1037T413 1022T419 991V369Q419
303 427 255T456 176T514 130T610 115Q679 115 750 130T884 176V1036Q921 1039 961 1041T1031 1044Q1052 1044 1068 1043T1095 1037T1111 1022T1117 991V96H1292V20Q1275 11 1246 3T1180 -10T1105 -19T1029 -23Q998 -23 972 -20T927 -6T897 24T886 74V86Q886 87
872 79T834 57T777 29T708 1T632 -22T554 -31Q454 -31 400 -10T317 47Q317 -40 325 -100T349 -200T389 -262T447 -295T523 -308T616 -311L618 -395Z" />
<glyph unicode="&#xb6;" glyph-name="paragraph" horiz-adv-x="1331" d="M72 1153Q72 1270 110 1344T213 1461T363 1520T543 1536H1029Q1097 1536 1146 1522T1231 1489V1413H1043V-125H1231V-201Q1196 -219 1147 -233T1029 -248Q999 -248 974 -244T929 -230T900
-201T889 -152V1413H697V-152Q697 -182 687 -200T657 -229T613 -244T558 -248Q490 -248 440 -234T355 -201V-125H543V772Q448 772 363 787T213 845T110 961T72 1153Z" />
<glyph unicode="&#xb7;" glyph-name="middot" horiz-adv-x="630" d="M313 762Q346 762 373 751T421 722T452 678T463 625Q463 595 452 569T421 524T374 494T313 483Q281 483 254 494T208 524T179 569T168 625Q168 653 178 678T208 721T254 751T313 762Z" />
<glyph unicode="&#xb8;" glyph-name="cedilla" horiz-adv-x="1063" d="M735 -258Q735 -325 712 -370T652 -442T567 -480T471 -492Q434 -492 404 -488T353 -469T319 -431T307 -365Q344 -373 380 -377T446 -381Q506 -381 538 -351T571 -266Q571 -236 560 -214T528
-176T479 -152T418 -141L461 18H557L537 -70Q637 -78 686 -127T735 -258Z" />
<glyph unicode="&#xb9;" glyph-name="onesuperior" horiz-adv-x="586" d="M396 762Q396 683 404 640T415 578Q396 567 374 562T329 557Q297 557 277 570T257 618V1337L97 1280L77 1354Q98 1369 131 1385T200 1416T274 1440T343 1450Q377 1450 386 1440T396 1405V762Z" />
<glyph unicode="&#xba;" glyph-name="ordmasculine" horiz-adv-x="861" d="M779 1125Q779 1046 752 982T677 873T567 803T431 778Q358 778 295 802T184 872T109 982T82 1125Q82 1204 109 1268T183 1379T294 1450T431 1475Q504 1475 567 1450T678 1379T752 1269T779
1125ZM432 853Q511 853 554 919T598 1127Q598 1202 586 1255T552 1341T500 1389T432 1404Q395 1404 365 1389T312 1341T277 1255T264 1127Q264 986 309 920T432 853Z" />
<glyph unicode="&#xbb;" glyph-name="guillemotright" horiz-adv-x="980" d="M527 526L281 233Q273 222 265 218T249 213Q241 213 234 217T215 232T187 258T146 297L353 555L146 817Q172 839 189 853T219 876T239 888T253 891Q270 891 288 870L490 618Q516 586
521 566T527 526ZM865 526L572 176Q555 156 539 156Q531 156 524 160T505 175T478 201T437 240L691 555L435 877Q461 899 478 913T508 935T527 947T541 950Q559 950 576 930L828 618Q854 586 859 566T865 526Z" />
<glyph unicode="&#xbc;" glyph-name="onequarter" horiz-adv-x="1565" d="M1251 -19Q1223 -19 1206 -4T1188 42V223H825Q799 223 791 231T782 251Q782 261 784 268T790 280Q900 444 991 576Q1030 632 1068 686T1137 784T1191 856T1220 888Q1225 889 1233 889T1251
890T1267 890T1278 890Q1306 890 1317 879T1329 847V319H1493V272Q1493 246 1481 235T1442 223H1329V186Q1329 106 1336 64T1347 4Q1329 -9 1305 -14T1251 -19ZM1186 319V696L938 321L942 319H1186ZM387 762Q387 683 394 640T405 578Q387 567 364 562T319 557Q287
557 268 570T248 618V1337L88 1280L67 1354Q89 1369 122 1385T191 1416T265 1440T334 1450Q368 1450 377 1440T387 1405V762ZM474 0H409Q381 0 369 6T357 27Q357 36 362 49T376 82L990 1413H1037Q1071 1413 1087 1406T1103 1380Q1103 1360 1089 1331L474 0Z" />
<glyph unicode="&#xbd;" glyph-name="onehalf" horiz-adv-x="1679" d="M1496 469Q1478 443 1453 413T1398 352T1337 290T1275 229Q1204 161 1125 92H1213Q1255 93 1300 100T1391 120T1477 148T1553 180Q1553 178 1555 169T1560 143T1566 110T1569 78Q1569 43 1554
25T1505 0T1415 -8T1276 -8Q1194 -8 1131 -9T1026 -6T961 11T939 53Q981 101 1029 151T1126 253T1220 355T1300 456T1356 553T1377 645Q1377 705 1343 745T1238 786Q1202 786 1170 772T1113 739T1069 698T1039 664L975 754Q967 765 967 776Q967 797 995 816T1064
849T1153 872T1240 881Q1321 881 1379 860T1475 804T1531 725T1549 633Q1549 591 1536 549T1496 469ZM387 762Q387 683 394 640T405 578Q387 567 364 562T319 557Q287 557 268 570T248 618V1337L88 1280L67 1354Q89 1369 122 1385T191 1416T265 1440T334 1450Q368
1450 377 1440T387 1405V762ZM476 0H410Q382 0 371 6T359 27Q359 44 377 82L992 1413H1039Q1073 1413 1088 1406T1104 1380Q1104 1360 1090 1331L476 0Z" />
<glyph unicode="&#xbe;" glyph-name="threequarters" horiz-adv-x="1781" d="M1467 -18Q1440 -15 1422 -2T1404 43V221H1041Q1015 221 1007 230T998 250Q998 259 1001 266T1007 279Q1117 444 1208 575Q1247 631 1284 685T1353 782T1407 854T1437 887Q1441 888
1449 888T1467 889T1483 889T1494 889Q1522 889 1533 878T1545 846V317H1709V270Q1709 221 1658 221H1545V184Q1545 144 1547 115T1553 64T1559 28T1564 4Q1545 -8 1522 -13T1478 -18H1467ZM398 1352Q334 1352 292 1339T223 1310T186 1280T173 1262Q169 1269 159
1287T138 1326T119 1363T110 1386Q110 1406 138 1418T209 1438T300 1447T392 1450Q448 1450 499 1447T611 1440Q636 1438 649 1434T669 1423T676 1410T677 1397V1372Q665 1331 643 1293T594 1220T539 1158T486 1108T446 1075T427 1061Q497 1056 553 1038T648 986T709
906T730 797Q730 736 703 688T629 607T523 557T396 539Q353 539 302 547T207 569T133 603T103 647Q103 652 105 659T112 674L159 764Q188 744 216 723T274 683T333 653T398 641Q479 641 523 686T568 809Q568 855 552 887T504 938T429 966T327 975L282 973V1038Q282
1058 288 1063T298 1071Q378 1130 432 1202T501 1352H398ZM697 0H632Q604 0 593 6T581 27Q581 44 599 82L1213 1413H1261Q1295 1413 1310 1406T1326 1380Q1326 1360 1312 1331L697 0ZM1402 317V694L1154 319L1158 317H1402Z" />
<glyph unicode="&#xbf;" glyph-name="questiondown" horiz-adv-x="964" d="M520 829Q487 829 460 840T412 869T381 913T370 967Q370 997 381 1023T412 1067T459 1097T520 1108Q552 1108 579 1097T625 1068T654 1023T665 967Q665 938 655 913T625 870T579 840T520
829ZM497 670Q588 644 630 594T673 471Q673 422 646 382T579 304T492 229T405 150T338 59T311 -53Q311 -89 323 -121T358 -178T414 -217T491 -231Q515 -231 549 -222T620 -200T695 -171T761 -141T809 -117T827 -106L889 -246Q892 -255 894 -263T897 -279Q897 -302
879 -318T831 -346T764 -365T689 -377T617 -383T559 -385Q457 -385 369 -363T217 -295T117 -183T80 -25Q80 49 114 104T200 206T313 292T430 377Q458 399 473 423T489 473Q489 499 470 515T429 542T387 559T368 571Q368 587 372 606T385 641T408 669T442 680Q454
680 468 678T497 670Z" />
<glyph unicode="&#xc0;" glyph-name="Agrave" horiz-adv-x="1517" d="M973 381H363Q348 328 340 275T332 168Q332 131 336 96T349 29L193 -14Q169 -20 148 -20Q87 -20 87 39Q87 44 88 47T89 55Q98 130 126 228T196 437T286 662T385 885T482 1090T565 1258T624
1371T646 1413H748Q773 1413 791 1410T822 1397T846 1372T867 1331L1328 160L1504 229L1537 158Q1512 135 1474 104T1392 44T1300 -5T1209 -25Q1181 -25 1159 -12T1123 33L973 381ZM670 1184Q626 1082 585 990T507 814T442 657T396 518H922L681 1184H670ZM795 1620Q803
1606 809 1591T815 1563Q815 1550 807 1543T777 1536H705Q655 1587 611 1633Q592 1652 573 1672T536 1710T504 1742T480 1766Q461 1783 453 1799T445 1827Q445 1866 508 1866H656L795 1620Z" />
<glyph unicode="&#xc1;" glyph-name="Aacute" horiz-adv-x="1517" d="M973 381H363Q348 328 340 275T332 168Q332 131 336 96T349 29L193 -14Q169 -20 148 -20Q87 -20 87 39Q87 44 88 47T89 55Q98 130 126 228T196 437T286 662T385 885T482 1090T565 1258T624
1371T646 1413H748Q773 1413 791 1410T822 1397T846 1372T867 1331L1328 160L1504 229L1537 158Q1512 135 1474 104T1392 44T1300 -5T1209 -25Q1181 -25 1159 -12T1123 33L973 381ZM670 1184Q626 1082 585 990T507 814T442 657T396 518H922L681 1184H670ZM810 1866H957Q967
1866 978 1864T999 1857T1015 1844T1021 1821Q1021 1796 986 1766Q977 1757 962 1743T930 1710T893 1672T855 1633Q811 1587 761 1536H689Q667 1536 659 1544T650 1563Q650 1575 656 1590T671 1620L810 1866Z" />
<glyph unicode="&#xc2;" glyph-name="Acircumflex" horiz-adv-x="1517" d="M973 381H363Q348 328 340 275T332 168Q332 131 336 96T349 29L193 -14Q169 -20 148 -20Q87 -20 87 39Q87 44 88 47T89 55Q98 130 126 228T196 437T286 662T385 885T482 1090T565 1258T624
1371T646 1413H748Q773 1413 791 1410T822 1397T846 1372T867 1331L1328 160L1504 229L1537 158Q1512 135 1474 104T1392 44T1300 -5T1209 -25Q1181 -25 1159 -12T1123 33L973 381ZM670 1184Q626 1082 585 990T507 814T442 657T396 518H922L681 1184H670ZM507 1536H458Q430
1536 419 1545T408 1567Q408 1582 421 1600L638 1866H830L1047 1600Q1060 1584 1060 1567Q1060 1554 1049 1545T1011 1536H961L736 1720L507 1536Z" />
<glyph unicode="&#xc3;" glyph-name="Atilde" horiz-adv-x="1517" d="M973 381H363Q348 328 340 275T332 168Q332 131 336 96T349 29L193 -14Q169 -20 148 -20Q87 -20 87 39Q87 44 88 47T89 55Q98 130 126 228T196 437T286 662T385 885T482 1090T565 1258T624
1371T646 1413H748Q773 1413 791 1410T822 1397T846 1372T867 1331L1328 160L1504 229L1537 158Q1512 135 1474 104T1392 44T1300 -5T1209 -25Q1181 -25 1159 -12T1123 33L973 381ZM670 1184Q626 1082 585 990T507 814T442 657T396 518H922L681 1184H670ZM908 1675Q930
1675 945 1688T975 1717T1004 1746T1041 1759Q1058 1759 1073 1751T1101 1734Q1115 1723 1127 1710Q1049 1619 993 1578T886 1536Q831 1536 788 1555T708 1598T634 1641T558 1661Q535 1661 520 1648T491 1619T462 1590T425 1577Q408 1577 393 1584T365 1601Q351
1612 339 1626Q378 1671 411 1703T474 1757T532 1788T589 1798Q643 1798 687 1779T770 1737T842 1694T908 1675Z" />
<glyph unicode="&#xc4;" glyph-name="Adieresis" horiz-adv-x="1517" d="M973 381H363Q348 328 340 275T332 168Q332 131 336 96T349 29L193 -14Q169 -20 148 -20Q87 -20 87 39Q87 44 88 47T89 55Q98 130 126 228T196 437T286 662T385 885T482 1090T565 1258T624
1371T646 1413H748Q773 1413 791 1410T822 1397T846 1372T867 1331L1328 160L1504 229L1537 158Q1512 135 1474 104T1392 44T1300 -5T1209 -25Q1181 -25 1159 -12T1123 33L973 381ZM670 1184Q626 1082 585 990T507 814T442 657T396 518H922L681 1184H670ZM535 1823Q560
1823 581 1815T618 1792T641 1759T650 1718Q650 1672 618 1641T535 1610Q486 1610 456 1641T425 1718Q425 1761 455 1792T535 1823ZM927 1823Q952 1823 973 1815T1009 1792T1032 1759T1041 1718Q1041 1672 1010 1641T927 1610Q877 1610 847 1641T816 1718Q816 1761
846 1792T927 1823Z" />
<glyph unicode="&#xc5;" glyph-name="Aring" horiz-adv-x="1517" d="M973 381H363Q348 328 340 275T332 168Q332 131 336 96T349 29L193 -14Q169 -20 148 -20Q87 -20 87 39Q87 44 88 47T89 55Q98 130 126 228T196 437T286 662T385 885T482 1090T565 1258T624 1371T646
1413H748Q773 1413 791 1410T822 1397T846 1372T867 1331L1328 160L1504 229L1537 158Q1512 135 1474 104T1392 44T1300 -5T1209 -25Q1181 -25 1159 -12T1123 33L973 381ZM670 1184Q626 1082 585 990T507 814T442 657T396 518H922L681 1184H670ZM951 1761Q951 1706
933 1665T883 1595T808 1553T715 1538Q665 1538 622 1552T547 1595T497 1664T479 1761Q479 1815 497 1856T547 1926T622 1969T715 1984Q765 1984 808 1970T883 1927T933 1857T951 1761ZM840 1761Q840 1794 831 1817T804 1855T764 1877T715 1884Q689 1884 666 1877T626
1856T600 1818T590 1761Q590 1728 599 1705T626 1667T666 1645T715 1638Q741 1638 764 1645T804 1666T830 1704T840 1761Z" />
<glyph unicode="&#xc6;" glyph-name="AE" horiz-adv-x="1945" d="M986 0Q940 5 924 24T908 86V381H388Q340 285 315 201T290 45Q290 34 290 24T292 4L93 -14Q85 -16 78 -16T62 -16Q30 -16 14 -6T-3 29Q-3 34 -2 40T1 55Q22 115 61 190T150 349T260 522T382 701T508
876T629 1040T739 1182T827 1295T908 1397Q1001 1408 1117 1415T1355 1423Q1400 1423 1453 1422T1561 1418T1666 1408T1756 1391T1818 1364T1842 1325Q1842 1315 1830 1289T1801 1234T1770 1181T1750 1151Q1750 1152 1724 1169T1644 1208T1511 1248T1324 1268L1144
1270V801H1631V752Q1631 699 1609 679T1537 659H1144V141H1283Q1417 141 1552 159T1818 219Q1819 219 1822 209T1828 183T1835 147T1838 106Q1838 61 1817 37T1745 2T1612 -10T1406 -12Q1341 -12 1276 -11T1155 -9T1054 -5T986 0ZM904 1182Q843 1095 783 1009T666
839T558 675T462 518H908V1180Q906 1180 905 1181Q904 1181 904 1182Z" />
<glyph unicode="&#xc7;" glyph-name="Ccedilla" horiz-adv-x="1442" d="M1052 -274Q1052 -341 1029 -386T969 -458T884 -496T788 -508Q751 -508 721 -504T670 -485T636 -447T624 -381Q661 -389 697 -393T763 -397Q823 -397 855 -367T888 -282Q888 -252 877 -230T845
-192T796 -168T735 -157L768 -36Q651 -26 551 13Q419 65 326 161T182 395T131 702Q131 874 178 1012T319 1248T550 1397T872 1450Q909 1450 956 1447T1053 1438T1150 1422T1233 1398T1292 1364T1315 1319Q1315 1301 1303 1280L1219 1139Q1186 1157 1141 1187T1042
1246T925 1296T795 1317Q716 1317 656 1292T550 1222T475 1120T426 995T399 860T391 725Q391 645 405 569T449 424T523 300T626 202T759 138T922 115Q997 115 1070 128T1203 157Q1272 175 1335 199L1376 121Q1320 77 1258 47T1128 -3T989 -30Q927 -38 864 -39L854
-86Q954 -94 1003 -143T1052 -274Z" />
<glyph unicode="&#xc8;" glyph-name="Egrave" horiz-adv-x="1334" d="M335 0Q288 4 273 23T257 86V1292H66V1372Q96 1382 161 1392T315 1412T508 1426T722 1432Q769 1432 825 1431T938 1427T1048 1417T1142 1400T1207 1373T1232 1333Q1232 1323 1220 1297T1191
1243T1160 1190T1140 1159Q1140 1160 1114 1178T1034 1217T900 1257T714 1276L492 1278V805H1021V756Q1021 703 999 684T927 664H492V141H673Q807 141 942 159T1207 219Q1207 218 1210 209T1217 183T1224 147T1228 106Q1228 59 1204 35T1127 1T988 -11T777 -12Q709
-12 641 -11T513 -9T407 -5T335 0ZM785 1618Q793 1604 799 1589T805 1561Q805 1548 797 1541T767 1534H695Q645 1585 601 1631Q582 1650 563 1670T526 1708T494 1740T470 1764Q451 1781 443 1797T435 1825Q435 1864 498 1864H646L785 1618Z" />
<glyph unicode="&#xc9;" glyph-name="Eacute" horiz-adv-x="1334" d="M335 0Q288 4 273 23T257 86V1292H66V1372Q96 1382 161 1392T315 1412T508 1426T722 1432Q769 1432 825 1431T938 1427T1048 1417T1142 1400T1207 1373T1232 1333Q1232 1323 1220 1297T1191
1243T1160 1190T1140 1159Q1140 1160 1114 1178T1034 1217T900 1257T714 1276L492 1278V805H1021V756Q1021 703 999 684T927 664H492V141H673Q807 141 942 159T1207 219Q1207 218 1210 209T1217 183T1224 147T1228 106Q1228 59 1204 35T1127 1T988 -11T777 -12Q709
-12 641 -11T513 -9T407 -5T335 0ZM706 1864H853Q863 1864 874 1862T895 1855T911 1842T917 1819Q917 1794 882 1764Q873 1755 858 1741T826 1708T789 1670T751 1631Q707 1585 657 1534H585Q563 1534 555 1542T546 1561Q546 1573 552 1588T567 1618L706 1864Z"
/>
<glyph unicode="&#xca;" glyph-name="Ecircumflex" horiz-adv-x="1334" d="M335 0Q288 4 273 23T257 86V1292H66V1372Q96 1382 161 1392T315 1412T508 1426T722 1432Q769 1432 825 1431T938 1427T1048 1417T1142 1400T1207 1373T1232 1333Q1232 1323 1220 1297T1191
1243T1160 1190T1140 1159Q1140 1160 1114 1178T1034 1217T900 1257T714 1276L492 1278V805H1021V756Q1021 703 999 684T927 664H492V141H673Q807 141 942 159T1207 219Q1207 218 1210 209T1217 183T1224 147T1228 106Q1228 59 1204 35T1127 1T988 -11T777 -12Q709
-12 641 -11T513 -9T407 -5T335 0ZM433 1534H384Q356 1534 345 1543T334 1565Q334 1580 347 1598L564 1864H756L973 1598Q986 1582 986 1565Q986 1552 975 1543T937 1534H887L662 1718L433 1534Z" />
<glyph unicode="&#xcb;" glyph-name="Edieresis" horiz-adv-x="1334" d="M335 0Q288 4 273 23T257 86V1292H66V1372Q96 1382 161 1392T315 1412T508 1426T722 1432Q769 1432 825 1431T938 1427T1048 1417T1142 1400T1207 1373T1232 1333Q1232 1323 1220 1297T1191
1243T1160 1190T1140 1159Q1140 1160 1114 1178T1034 1217T900 1257T714 1276L492 1278V805H1021V756Q1021 703 999 684T927 664H492V141H673Q807 141 942 159T1207 219Q1207 218 1210 209T1217 183T1224 147T1228 106Q1228 59 1204 35T1127 1T988 -11T777 -12Q709
-12 641 -11T513 -9T407 -5T335 0ZM445 1823Q470 1823 491 1815T528 1792T551 1759T560 1718Q560 1672 528 1641T445 1610Q396 1610 366 1641T335 1718Q335 1761 365 1792T445 1823ZM837 1823Q862 1823 883 1815T919 1792T942 1759T951 1718Q951 1672 920 1641T837
1610Q787 1610 757 1641T726 1718Q726 1761 756 1792T837 1823Z" />
<glyph unicode="&#xcc;" glyph-name="Igrave" horiz-adv-x="751" d="M257 1307H64V1386Q79 1394 109 1402T178 1417T265 1428T361 1432Q401 1432 426 1431T466 1424T486 1408T492 1380V115H681V29Q663 20 632 12T563 -3T483 -14T400 -18Q369 -18 343 -15T298 -1T268
28T257 78V1307ZM420 1618Q428 1604 434 1589T440 1561Q440 1548 432 1541T402 1534H330Q280 1585 236 1631Q217 1650 198 1670T161 1708T129 1740T105 1764Q86 1781 78 1797T70 1825Q70 1864 133 1864H281L420 1618Z" />
<glyph unicode="&#xcd;" glyph-name="Iacute" horiz-adv-x="751" d="M257 1307H64V1386Q79 1394 109 1402T178 1417T265 1428T361 1432Q401 1432 426 1431T466 1424T486 1408T492 1380V115H681V29Q663 20 632 12T563 -3T483 -14T400 -18Q369 -18 343 -15T298 -1T268
28T257 78V1307ZM468 1864H615Q625 1864 636 1862T657 1855T673 1842T679 1819Q679 1794 644 1764Q635 1755 620 1741T588 1708T551 1670T513 1631Q469 1585 419 1534H347Q325 1534 317 1542T308 1561Q308 1573 314 1588T329 1618L468 1864Z" />
<glyph unicode="&#xce;" glyph-name="Icircumflex" horiz-adv-x="751" d="M257 1307H64V1386Q79 1394 109 1402T178 1417T265 1428T361 1432Q401 1432 426 1431T466 1424T486 1408T492 1380V115H681V29Q663 20 632 12T563 -3T483 -14T400 -18Q369 -18 343 -15T298
-1T268 28T257 78V1307ZM150 1534H101Q73 1534 62 1543T51 1565Q51 1580 64 1598L281 1864H473L690 1598Q703 1582 703 1565Q703 1552 692 1543T654 1534H604L379 1718L150 1534Z" />
<glyph unicode="&#xcf;" glyph-name="Idieresis" horiz-adv-x="751" d="M257 1307H64V1386Q79 1394 109 1402T178 1417T265 1428T361 1432Q401 1432 426 1431T466 1424T486 1408T492 1380V115H681V29Q663 20 632 12T563 -3T483 -14T400 -18Q369 -18 343 -15T298
-1T268 28T257 78V1307ZM177 1823Q202 1823 223 1815T260 1792T283 1759T292 1718Q292 1672 260 1641T177 1610Q128 1610 98 1641T67 1718Q67 1761 97 1792T177 1823ZM569 1823Q594 1823 615 1815T651 1792T674 1759T683 1718Q683 1672 652 1641T569 1610Q519 1610
489 1641T458 1718Q458 1761 488 1792T569 1823Z" />
<glyph unicode="&#xd0;" glyph-name="Eth" horiz-adv-x="1643" d="M75 1350Q132 1369 215 1384T396 1410T598 1426T802 1432Q977 1432 1109 1391T1329 1262T1461 1036T1506 702Q1506 521 1455 389T1311 170T1093 42T818 0H345Q300 0 284 19T267 82V668H77V717Q77
752 92 765T142 778H267L269 1274Q215 1271 173 1269Q155 1268 138 1267T107 1266T84 1265T75 1264V1350ZM501 668L503 141Q538 137 577 134Q610 131 651 129T734 127Q858 127 954 159T1115 260T1214 438T1248 702Q1248 846 1226 958T1151 1146T1007 1263T781 1303Q728
1303 678 1301T588 1297T525 1293T501 1292V778H816V729Q816 695 801 682T750 668H501Z" />
<glyph unicode="&#xd1;" glyph-name="Ntilde" horiz-adv-x="1578" d="M1228 328Q1223 754 1205 1022T1164 1393Q1165 1393 1170 1394T1243 1414T1334 1432Q1353 1432 1363 1422T1379 1388T1386 1326T1387 1233Q1387 1155 1385 1054T1378 841T1369 611T1357 380T1345
165T1332 -18H1240Q1209 -18 1195 -10T1168 16L417 1053Q435 829 442 650T449 352Q449 237 444 165T434 49Q427 -1 419 -27L296 -4Q257 4 237 25T216 86Q216 97 217 110T222 137Q232 184 240 242T255 385T264 586T267 868Q267 997 265 1102T263 1307H70V1386Q84
1393 112 1401T179 1416T263 1427T357 1432Q388 1432 408 1426T443 1401L1228 328ZM969 1675Q991 1675 1006 1688T1036 1717T1065 1746T1102 1759Q1119 1759 1134 1751T1162 1734Q1176 1723 1188 1710Q1110 1619 1054 1578T947 1536Q892 1536 849 1555T769 1598T695
1641T619 1661Q596 1661 581 1648T552 1619T523 1590T486 1577Q469 1577 454 1584T426 1601Q412 1612 400 1626Q439 1671 472 1703T535 1757T593 1788T650 1798Q704 1798 748 1779T831 1737T903 1694T969 1675Z" />
<glyph unicode="&#xd2;" glyph-name="Ograve" horiz-adv-x="1612" d="M391 705Q391 570 413 457T484 261T613 134T807 88Q920 88 998 134T1126 262T1198 457T1221 705Q1221 832 1199 944T1128 1141T1000 1274T807 1323Q693 1323 614 1273T485 1137T413 940T391
705ZM1481 705Q1481 540 1435 403T1302 168T1090 15T807 -39Q649 -39 524 15T311 167T178 403T131 705Q131 870 177 1007T311 1242T523 1395T807 1450Q965 1450 1090 1396T1302 1243T1435 1007T1481 705ZM868 1620Q876 1606 882 1591T888 1563Q888 1550 880 1543T850
1536H778Q728 1587 684 1633Q665 1652 646 1672T609 1710T577 1742T553 1766Q534 1783 526 1799T518 1827Q518 1866 581 1866H729L868 1620Z" />
<glyph unicode="&#xd3;" glyph-name="Oacute" horiz-adv-x="1612" d="M391 705Q391 570 413 457T484 261T613 134T807 88Q920 88 998 134T1126 262T1198 457T1221 705Q1221 832 1199 944T1128 1141T1000 1274T807 1323Q693 1323 614 1273T485 1137T413 940T391
705ZM1481 705Q1481 540 1435 403T1302 168T1090 15T807 -39Q649 -39 524 15T311 167T178 403T131 705Q131 870 177 1007T311 1242T523 1395T807 1450Q965 1450 1090 1396T1302 1243T1435 1007T1481 705ZM907 1866H1054Q1064 1866 1075 1864T1096 1857T1112 1844T1118
1821Q1118 1796 1083 1766Q1074 1757 1059 1743T1027 1710T990 1672T952 1633Q908 1587 858 1536H786Q764 1536 756 1544T747 1563Q747 1575 753 1590T768 1620L907 1866Z" />
<glyph unicode="&#xd4;" glyph-name="Ocircumflex" horiz-adv-x="1612" d="M391 705Q391 570 413 457T484 261T613 134T807 88Q920 88 998 134T1126 262T1198 457T1221 705Q1221 832 1199 944T1128 1141T1000 1274T807 1323Q693 1323 614 1273T485 1137T413 940T391
705ZM1481 705Q1481 540 1435 403T1302 168T1090 15T807 -39Q649 -39 524 15T311 167T178 403T131 705Q131 870 177 1007T311 1242T523 1395T807 1450Q965 1450 1090 1396T1302 1243T1435 1007T1481 705ZM588 1536H539Q511 1536 500 1545T489 1567Q489 1582 502
1600L719 1866H911L1128 1600Q1141 1584 1141 1567Q1141 1554 1130 1545T1092 1536H1042L817 1720L588 1536Z" />
<glyph unicode="&#xd5;" glyph-name="Otilde" horiz-adv-x="1612" d="M391 705Q391 570 413 457T484 261T613 134T807 88Q920 88 998 134T1126 262T1198 457T1221 705Q1221 832 1199 944T1128 1141T1000 1274T807 1323Q693 1323 614 1273T485 1137T413 940T391
705ZM1481 705Q1481 540 1435 403T1302 168T1090 15T807 -39Q649 -39 524 15T311 167T178 403T131 705Q131 870 177 1007T311 1242T523 1395T807 1450Q965 1450 1090 1396T1302 1243T1435 1007T1481 705ZM997 1673Q1019 1673 1034 1686T1064 1715T1093 1744T1130
1757Q1147 1757 1162 1749T1190 1732Q1204 1721 1216 1708Q1138 1617 1082 1576T975 1534Q920 1534 877 1553T797 1596T723 1639T647 1659Q624 1659 609 1646T580 1617T551 1588T514 1575Q497 1575 482 1582T454 1599Q440 1610 428 1624Q467 1669 500 1701T563
1755T621 1786T678 1796Q732 1796 776 1777T859 1735T931 1692T997 1673Z" />
<glyph unicode="&#xd6;" glyph-name="Odieresis" horiz-adv-x="1612" d="M391 705Q391 570 413 457T484 261T613 134T807 88Q920 88 998 134T1126 262T1198 457T1221 705Q1221 832 1199 944T1128 1141T1000 1274T807 1323Q693 1323 614 1273T485 1137T413 940T391
705ZM1481 705Q1481 540 1435 403T1302 168T1090 15T807 -39Q649 -39 524 15T311 167T178 403T131 705Q131 870 177 1007T311 1242T523 1395T807 1450Q965 1450 1090 1396T1302 1243T1435 1007T1481 705ZM608 1823Q633 1823 654 1815T691 1792T714 1759T723 1718Q723
1672 691 1641T608 1610Q559 1610 529 1641T498 1718Q498 1761 528 1792T608 1823ZM1000 1823Q1025 1823 1046 1815T1082 1792T1105 1759T1114 1718Q1114 1672 1083 1641T1000 1610Q950 1610 920 1641T889 1718Q889 1761 919 1792T1000 1823Z" />
<glyph unicode="&#xd7;" glyph-name="multiply" horiz-adv-x="1103" d="M547 821L879 1153L918 1116Q945 1090 945 1067Q945 1043 916 1016L636 735L967 403L928 365Q902 338 881 338Q857 338 830 367L547 647L218 317L179 356Q165 370 158 381T150 403Q150 416
158 428T181 455L461 735L132 1065L169 1102Q197 1130 220 1130Q232 1130 243 1123T269 1102L547 821Z" />
<glyph unicode="&#xd8;" glyph-name="Oslash" horiz-adv-x="1610" d="M1174 1350Q1322 1256 1401 1090T1480 705Q1480 540 1434 403T1301 168T1089 15T806 -39Q746 -39 693 -31T588 -8L533 -137H467Q431 -137 409 -125T386 -89Q386 -75 394 -60L444 55Q292 148
211 315T130 705Q130 870 176 1007T310 1242T522 1395T806 1450Q867 1450 923 1442T1031 1417L1082 1536H1145Q1181 1536 1204 1527T1228 1492Q1228 1479 1221 1459L1174 1350ZM390 705Q390 550 419 425T514 217L975 1287Q939 1304 897 1313T806 1323Q692 1323
613 1273T484 1137T412 940T390 705ZM1220 705Q1220 848 1192 971T1101 1181L643 118Q712 88 806 88Q919 88 997 134T1125 262T1197 457T1220 705Z" />
<glyph unicode="&#xd9;" glyph-name="Ugrave" horiz-adv-x="1613" d="M1426 545Q1426 401 1381 292T1257 110T1076 -1T857 -39Q712 -39 598 -2T406 110T286 293T245 547V1307H50V1386Q65 1392 95 1400T164 1415T251 1427T347 1432Q388 1432 413 1431T453 1426T473
1410T478 1380V543Q478 491 486 437T512 333T560 237T631 159T729 106T857 86Q931 86 988 105T1087 158T1159 237T1205 333T1230 439T1238 547V1114Q1238 1176 1235 1224T1226 1307T1216 1365T1209 1403Q1219 1410 1233 1415T1263 1425T1295 1430T1324 1432Q1344
1432 1362 1428T1395 1412T1417 1381T1426 1333V545ZM894 1620Q902 1606 908 1591T914 1563Q914 1550 906 1543T876 1536H804Q754 1587 710 1633Q691 1652 672 1672T635 1710T603 1742T579 1766Q560 1783 552 1799T544 1827Q544 1866 607 1866H755L894 1620Z" />
<glyph unicode="&#xda;" glyph-name="Uacute" horiz-adv-x="1613" d="M1426 545Q1426 401 1381 292T1257 110T1076 -1T857 -39Q712 -39 598 -2T406 110T286 293T245 547V1307H50V1386Q65 1392 95 1400T164 1415T251 1427T347 1432Q388 1432 413 1431T453 1426T473
1410T478 1380V543Q478 491 486 437T512 333T560 237T631 159T729 106T857 86Q931 86 988 105T1087 158T1159 237T1205 333T1230 439T1238 547V1114Q1238 1176 1235 1224T1226 1307T1216 1365T1209 1403Q1219 1410 1233 1415T1263 1425T1295 1430T1324 1432Q1344
1432 1362 1428T1395 1412T1417 1381T1426 1333V545ZM884 1866H1031Q1041 1866 1052 1864T1073 1857T1089 1844T1095 1821Q1095 1796 1060 1766Q1051 1757 1036 1743T1004 1710T967 1672T929 1633Q885 1587 835 1536H763Q741 1536 733 1544T724 1563Q724 1575 730
1590T745 1620L884 1866Z" />
<glyph unicode="&#xdb;" glyph-name="Ucircumflex" horiz-adv-x="1613" d="M1426 545Q1426 401 1381 292T1257 110T1076 -1T857 -39Q712 -39 598 -2T406 110T286 293T245 547V1307H50V1386Q65 1392 95 1400T164 1415T251 1427T347 1432Q388 1432 413 1431T453
1426T473 1410T478 1380V543Q478 491 486 437T512 333T560 237T631 159T729 106T857 86Q931 86 988 105T1087 158T1159 237T1205 333T1230 439T1238 547V1114Q1238 1176 1235 1224T1226 1307T1216 1365T1209 1403Q1219 1410 1233 1415T1263 1425T1295 1430T1324
1432Q1344 1432 1362 1428T1395 1412T1417 1381T1426 1333V545ZM577 1536H528Q500 1536 489 1545T478 1567Q478 1582 491 1600L708 1866H900L1117 1600Q1130 1584 1130 1567Q1130 1554 1119 1545T1081 1536H1031L806 1720L577 1536Z" />
<glyph unicode="&#xdc;" glyph-name="Udieresis" horiz-adv-x="1613" d="M1426 545Q1426 401 1381 292T1257 110T1076 -1T857 -39Q712 -39 598 -2T406 110T286 293T245 547V1307H50V1386Q65 1392 95 1400T164 1415T251 1427T347 1432Q388 1432 413 1431T453 1426T473
1410T478 1380V543Q478 491 486 437T512 333T560 237T631 159T729 106T857 86Q931 86 988 105T1087 158T1159 237T1205 333T1230 439T1238 547V1114Q1238 1176 1235 1224T1226 1307T1216 1365T1209 1403Q1219 1410 1233 1415T1263 1425T1295 1430T1324 1432Q1344
1432 1362 1428T1395 1412T1417 1381T1426 1333V545ZM648 1823Q673 1823 694 1815T731 1792T754 1759T763 1718Q763 1672 731 1641T648 1610Q599 1610 569 1641T538 1718Q538 1761 568 1792T648 1823ZM1040 1823Q1065 1823 1086 1815T1122 1792T1145 1759T1154
1718Q1154 1672 1123 1641T1040 1610Q990 1610 960 1641T929 1718Q929 1761 959 1792T1040 1823Z" />
<glyph unicode="&#xdd;" glyph-name="Yacute" horiz-adv-x="1351" d="M862 532Q862 435 862 365T864 243T868 157T874 97T882 53T893 16Q878 8 860 2T823 -9T784 -16T747 -18Q695 -18 661 3T627 82V500L172 1253L-4 1176L-37 1247Q-13 1269 27 1301T114 1362T207
1411T287 1432Q310 1432 332 1418T377 1370L801 672H805Q841 735 877 798T942 924T989 1052T1007 1182Q1007 1225 996 1267T967 1354L1124 1421Q1138 1428 1149 1430T1171 1432Q1210 1432 1228 1401T1247 1317Q1247 1245 1216 1157T1132 969T1010 759T862 532ZM748
1866H895Q905 1866 916 1864T937 1857T953 1844T959 1821Q959 1796 924 1766Q915 1757 900 1743T868 1710T831 1672T793 1633Q749 1587 699 1536H627Q605 1536 597 1544T588 1563Q588 1575 594 1590T609 1620L748 1866Z" />
<glyph unicode="&#xde;" glyph-name="Thorn" horiz-adv-x="1335" d="M257 1307H64V1386Q79 1394 109 1402T178 1417T265 1428T361 1432Q400 1432 425 1431T465 1426T486 1410T492 1380V1174Q536 1176 585 1178T693 1180Q807 1180 908 1161T1084 1091T1204 953T1248
729Q1248 628 1215 548T1117 413T961 328T752 299Q740 299 714 299T654 300T578 303T494 309Q494 231 498 181T509 99T522 49T531 16Q516 8 498 2T459 -9T418 -16T380 -18Q327 -18 293 3T257 82V362V1307ZM1008 729Q1008 818 987 879T922 978T812 1032T654 1049Q619
1049 577 1047T492 1038V449H494Q505 445 549 437T668 428Q773 428 839 453T942 520T994 616T1008 729Z" />
<glyph unicode="&#xdf;" glyph-name="germandbls" horiz-adv-x="1440" d="M58 922V969Q58 1000 72 1012T117 1024H250V1055Q250 1168 292 1257T403 1408T562 1503T746 1536Q866 1536 955 1504T1104 1410T1191 1263T1219 1069L1217 950Q1203 952 1169 957T1091
964T1000 963T915 946T851 903T826 827Q826 793 844 764T890 709T952 663T1020 625Q1077 597 1135 569T1242 505T1320 418T1350 297Q1350 238 1334 192T1291 111T1226 52T1147 12T1061 -11T973 -18Q935 -18 896 -12T820 4T750 28T689 57Q674 65 658 72T632 90T618
112T623 143L703 254Q727 235 761 207T835 153T921 109T1014 90Q1039 90 1062 100T1104 128T1132 174T1143 238Q1144 278 1122 310T1066 368T997 414T932 449Q881 474 830 501T738 565T672 654T646 782Q646 860 676 912T759 997T881 1046T1029 1067Q1029 1174 1009
1246T954 1362T869 1425T760 1444Q707 1444 658 1425T570 1361T508 1241T484 1055V301Q484 178 495 110T513 14Q497 5 476 -1T431 -11T387 -16T349 -16Q305 -13 279 7T252 78V924L250 922H58Z" />
<glyph unicode="&#xe0;" glyph-name="agrave" horiz-adv-x="1216" d="M776 88Q776 88 763 80T726 58T671 30T602 1T524 -22T442 -31Q377 -31 318 -14T215 41T144 134T117 268Q117 354 155 414T262 511T426 565T635 582H776V657Q776 715 772 768T751 862T703 926T618
950Q567 950 516 932T416 885T322 824T240 760L158 870Q143 888 143 907Q143 940 184 967T288 1013T423 1044T557 1055Q649 1055 731 1033T874 964T972 841T1008 657V100H1182V25Q1165 16 1136 8T1070 -6T995 -15T919 -18Q895 -18 870 -15T825 -2T791 27T776 78V88ZM512
117Q547 117 592 126T679 147Q727 160 776 178V459H608Q570 459 525 452T440 426T373 371T346 279Q346 243 357 214T389 163T441 129T512 117ZM698 1291Q706 1277 712 1262T718 1234Q718 1221 710 1214T680 1207H608Q558 1258 514 1304Q495 1323 476 1343T439 1381T407
1413T383 1437Q364 1454 356 1470T348 1498Q348 1537 411 1537H559L698 1291Z" />
<glyph unicode="&#xe1;" glyph-name="aacute" horiz-adv-x="1216" d="M776 88Q776 88 763 80T726 58T671 30T602 1T524 -22T442 -31Q377 -31 318 -14T215 41T144 134T117 268Q117 354 155 414T262 511T426 565T635 582H776V657Q776 715 772 768T751 862T703 926T618
950Q567 950 516 932T416 885T322 824T240 760L158 870Q143 888 143 907Q143 940 184 967T288 1013T423 1044T557 1055Q649 1055 731 1033T874 964T972 841T1008 657V100H1182V25Q1165 16 1136 8T1070 -6T995 -15T919 -18Q895 -18 870 -15T825 -2T791 27T776 78V88ZM512
117Q547 117 592 126T679 147Q727 160 776 178V459H608Q570 459 525 452T440 426T373 371T346 279Q346 243 357 214T389 163T441 129T512 117ZM668 1537H815Q825 1537 836 1535T857 1528T873 1515T879 1492Q879 1467 844 1437Q835 1428 820 1414T788 1381T751 1343T713
1304Q669 1258 619 1207H547Q525 1207 517 1215T508 1234Q508 1246 514 1261T529 1291L668 1537Z" />
<glyph unicode="&#xe2;" glyph-name="acircumflex" horiz-adv-x="1216" d="M776 88Q776 88 763 80T726 58T671 30T602 1T524 -22T442 -31Q377 -31 318 -14T215 41T144 134T117 268Q117 354 155 414T262 511T426 565T635 582H776V657Q776 715 772 768T751 862T703
926T618 950Q567 950 516 932T416 885T322 824T240 760L158 870Q143 888 143 907Q143 940 184 967T288 1013T423 1044T557 1055Q649 1055 731 1033T874 964T972 841T1008 657V100H1182V25Q1165 16 1136 8T1070 -6T995 -15T919 -18Q895 -18 870 -15T825 -2T791 27T776
78V88ZM512 117Q547 117 592 126T679 147Q727 160 776 178V459H608Q570 459 525 452T440 426T373 371T346 279Q346 243 357 214T389 163T441 129T512 117ZM385 1207H336Q308 1207 297 1216T286 1238Q286 1253 299 1271L516 1537H708L925 1271Q938 1255 938 1238Q938
1225 927 1216T889 1207H839L614 1391L385 1207Z" />
<glyph unicode="&#xe3;" glyph-name="atilde" horiz-adv-x="1216" d="M776 88Q776 88 763 80T726 58T671 30T602 1T524 -22T442 -31Q377 -31 318 -14T215 41T144 134T117 268Q117 354 155 414T262 511T426 565T635 582H776V657Q776 715 772 768T751 862T703 926T618
950Q567 950 516 932T416 885T322 824T240 760L158 870Q143 888 143 907Q143 940 184 967T288 1013T423 1044T557 1055Q649 1055 731 1033T874 964T972 841T1008 657V100H1182V25Q1165 16 1136 8T1070 -6T995 -15T919 -18Q895 -18 870 -15T825 -2T791 27T776 78V88ZM512
117Q547 117 592 126T679 147Q727 160 776 178V459H608Q570 459 525 452T440 426T373 371T346 279Q346 243 357 214T389 163T441 129T512 117ZM774 1413Q796 1413 811 1426T841 1455T870 1484T907 1497Q924 1497 939 1489T967 1472Q981 1461 993 1448Q915 1357
859 1316T752 1274Q697 1274 654 1293T574 1336T500 1379T424 1399Q401 1399 386 1386T357 1357T328 1328T291 1315Q274 1315 259 1322T231 1339Q217 1350 205 1364Q244 1409 277 1441T340 1495T398 1526T455 1536Q509 1536 553 1517T636 1475T708 1432T774 1413Z"
/>
<glyph unicode="&#xe4;" glyph-name="adieresis" horiz-adv-x="1216" d="M776 88Q776 88 763 80T726 58T671 30T602 1T524 -22T442 -31Q377 -31 318 -14T215 41T144 134T117 268Q117 354 155 414T262 511T426 565T635 582H776V657Q776 715 772 768T751 862T703
926T618 950Q567 950 516 932T416 885T322 824T240 760L158 870Q143 888 143 907Q143 940 184 967T288 1013T423 1044T557 1055Q649 1055 731 1033T874 964T972 841T1008 657V100H1182V25Q1165 16 1136 8T1070 -6T995 -15T919 -18Q895 -18 870 -15T825 -2T791 27T776
78V88ZM512 117Q547 117 592 126T679 147Q727 160 776 178V459H608Q570 459 525 452T440 426T373 371T346 279Q346 243 357 214T389 163T441 129T512 117ZM389 1536Q414 1536 435 1528T472 1505T495 1472T504 1431Q504 1385 472 1354T389 1323Q340 1323 310 1354T279
1431Q279 1474 309 1505T389 1536ZM781 1536Q806 1536 827 1528T863 1505T886 1472T895 1431Q895 1385 864 1354T781 1323Q731 1323 701 1354T670 1431Q670 1474 700 1505T781 1536Z" />
<glyph unicode="&#xe5;" glyph-name="aring" horiz-adv-x="1216" d="M776 88Q776 88 763 80T726 58T671 30T602 1T524 -22T442 -31Q377 -31 318 -14T215 41T144 134T117 268Q117 354 155 414T262 511T426 565T635 582H776V657Q776 715 772 768T751 862T703 926T618
950Q567 950 516 932T416 885T322 824T240 760L158 870Q143 888 143 907Q143 940 184 967T288 1013T423 1044T557 1055Q649 1055 731 1033T874 964T972 841T1008 657V100H1182V25Q1165 16 1136 8T1070 -6T995 -15T919 -18Q895 -18 870 -15T825 -2T791 27T776 78V88ZM512
117Q547 117 592 126T679 147Q727 160 776 178V459H608Q570 459 525 452T440 426T373 371T346 279Q346 243 357 214T389 163T441 129T512 117ZM815 1371Q815 1316 797 1275T747 1205T672 1163T579 1148Q529 1148 486 1162T411 1205T361 1274T343 1371Q343 1425
361 1466T411 1536T486 1579T579 1594Q629 1594 672 1580T747 1537T797 1467T815 1371ZM704 1371Q704 1404 695 1427T668 1465T628 1487T579 1494Q553 1494 530 1487T490 1466T464 1428T454 1371Q454 1338 463 1315T490 1277T530 1255T579 1248Q605 1248 628 1255T668
1276T694 1314T704 1371Z" />
<glyph unicode="&#xe6;" glyph-name="ae" horiz-adv-x="1845" d="M790 1018Q828 1002 862 979T924 924Q999 986 1095 1020T1304 1055Q1404 1055 1483 1023T1617 937T1701 812T1730 664Q1730 628 1724 592T1701 525T1654 476T1573 457L1016 459V322Q1068 210 1172
154T1417 98Q1476 98 1539 109T1671 141L1704 74Q1663 46 1616 26T1519 -6T1417 -25T1315 -31Q1190 -31 1077 10T881 137Q845 111 797 82T693 27T575 -14T448 -31Q382 -31 322 -14T217 39T144 132T117 268Q117 354 155 414T262 511T426 565T635 582H776V657Q776
715 772 769T751 864T703 929T618 954Q586 954 546 941T464 906T382 861T310 816T259 780T240 764L158 874Q143 892 143 911Q143 937 165 957T222 994T303 1021T395 1040T486 1051T565 1055Q636 1055 693 1045T790 1018ZM1491 580Q1497 600 1499 620T1501 662Q1501
712 1485 762T1437 852T1359 918T1251 944Q1160 944 1102 904T1012 799V580H1491ZM522 117Q551 118 593 127T677 148Q725 161 776 178V459H608Q570 459 524 452T439 426T373 373T346 285Q346 207 390 162T522 117Z" />
<glyph unicode="&#xe7;" glyph-name="ccedilla" horiz-adv-x="1141" d="M917 -258Q917 -325 894 -370T834 -442T749 -480T653 -492Q616 -492 586 -488T535 -469T501 -431T489 -365Q526 -373 562 -377T628 -381Q688 -381 720 -351T753 -266Q753 -236 742 -214T710
-176T661 -152T600 -141L630 -29Q550 -22 472 3Q370 38 291 104T163 269T115 494Q115 625 161 729T289 905T482 1016T725 1055Q735 1055 760 1054T816 1049T882 1039T944 1022T990 998T1008 965Q1008 960 1008 955T1003 944L932 811Q899 830 859 852T776 892T687
923T598 936Q530 936 483 903T405 816T360 697T346 569Q346 471 372 385T452 235T588 135T782 98Q844 98 909 109T1044 141L1077 74Q1036 46 988 26T889 -6T786 -25Q757 -28 728 -30L719 -70Q819 -78 868 -127T917 -258Z" />
<glyph unicode="&#xe8;" glyph-name="egrave" horiz-adv-x="1221" d="M867 584Q873 604 875 624T877 666Q877 715 861 764T813 854T735 919T628 944Q551 944 500 915T416 836T368 721T349 584H867ZM116 512Q116 631 154 730T265 902T443 1014T681 1055Q781 1055
860 1023T994 937T1078 812T1107 664Q1107 628 1101 592T1078 527T1030 480T949 461H351Q361 371 398 302T493 186T627 114T791 90Q851 90 915 100T1047 133L1080 66Q1039 38 992 18T895 -14T793 -33T691 -39Q581 -39 478 -5T294 99T165 271T116 512ZM765 1291Q773
1277 779 1262T785 1234Q785 1221 777 1214T747 1207H675Q625 1258 581 1304Q562 1323 543 1343T506 1381T474 1413T450 1437Q431 1454 423 1470T415 1498Q415 1537 478 1537H626L765 1291Z" />
<glyph unicode="&#xe9;" glyph-name="eacute" horiz-adv-x="1221" d="M867 584Q873 604 875 624T877 666Q877 715 861 764T813 854T735 919T628 944Q551 944 500 915T416 836T368 721T349 584H867ZM116 512Q116 631 154 730T265 902T443 1014T681 1055Q781 1055
860 1023T994 937T1078 812T1107 664Q1107 628 1101 592T1078 527T1030 480T949 461H351Q361 371 398 302T493 186T627 114T791 90Q851 90 915 100T1047 133L1080 66Q1039 38 992 18T895 -14T793 -33T691 -39Q581 -39 478 -5T294 99T165 271T116 512ZM722 1537H869Q879
1537 890 1535T911 1528T927 1515T933 1492Q933 1467 898 1437Q889 1428 874 1414T842 1381T805 1343T767 1304Q723 1258 673 1207H601Q579 1207 571 1215T562 1234Q562 1246 568 1261T583 1291L722 1537Z" />
<glyph unicode="&#xea;" glyph-name="ecircumflex" horiz-adv-x="1221" d="M867 584Q873 604 875 624T877 666Q877 715 861 764T813 854T735 919T628 944Q551 944 500 915T416 836T368 721T349 584H867ZM116 512Q116 631 154 730T265 902T443 1014T681 1055Q781
1055 860 1023T994 937T1078 812T1107 664Q1107 628 1101 592T1078 527T1030 480T949 461H351Q361 371 398 302T493 186T627 114T791 90Q851 90 915 100T1047 133L1080 66Q1039 38 992 18T895 -14T793 -33T691 -39Q581 -39 478 -5T294 99T165 271T116 512ZM448
1207H399Q371 1207 360 1216T349 1238Q349 1253 362 1271L579 1537H771L988 1271Q1001 1255 1001 1238Q1001 1225 990 1216T952 1207H902L677 1391L448 1207Z" />
<glyph unicode="&#xeb;" glyph-name="edieresis" horiz-adv-x="1221" d="M867 584Q873 604 875 624T877 666Q877 715 861 764T813 854T735 919T628 944Q551 944 500 915T416 836T368 721T349 584H867ZM116 512Q116 631 154 730T265 902T443 1014T681 1055Q781
1055 860 1023T994 937T1078 812T1107 664Q1107 628 1101 592T1078 527T1030 480T949 461H351Q361 371 398 302T493 186T627 114T791 90Q851 90 915 100T1047 133L1080 66Q1039 38 992 18T895 -14T793 -33T691 -39Q581 -39 478 -5T294 99T165 271T116 512ZM457
1516Q482 1516 503 1508T540 1485T563 1452T572 1411Q572 1365 540 1334T457 1303Q408 1303 378 1334T347 1411Q347 1454 377 1485T457 1516ZM849 1516Q874 1516 895 1508T931 1485T954 1452T963 1411Q963 1365 932 1334T849 1303Q799 1303 769 1334T738 1411Q738
1454 768 1485T849 1516Z" />
<glyph unicode="&#xec;" glyph-name="igrave" horiz-adv-x="715" d="M686 1547Q694 1533 700 1518T706 1490Q706 1477 698 1470T668 1463H596Q546 1514 502 1560Q483 1579 464 1599T427 1637T395 1669T371 1693Q352 1710 344 1726T336 1754Q336 1793 399 1793H547L686
1547ZM473 100H647V25Q630 16 601 8T536 -6T461 -15T385 -18Q354 -18 328 -15T283 -1T253 28T242 78V922H66V997Q87 1006 125 1014T208 1027T300 1035T387 1038Q406 1038 422 1038T449 1033T467 1017T473 985V100Z" />
<glyph unicode="&#xed;" glyph-name="iacute" horiz-adv-x="715" d="M427 1537H574Q584 1537 595 1535T616 1528T632 1515T638 1492Q638 1467 603 1437Q594 1428 579 1414T547 1381T510 1343T472 1304Q428 1258 378 1207H306Q284 1207 276 1215T267 1234Q267 1246
273 1261T288 1291L427 1537ZM473 100H647V25Q630 16 601 8T536 -6T461 -15T385 -18Q354 -18 328 -15T283 -1T253 28T242 78V922H66V997Q87 1006 125 1014T208 1027T300 1035T387 1038Q406 1038 422 1038T449 1033T467 1017T473 985V100Z" />
<glyph unicode="&#xee;" glyph-name="icircumflex" horiz-adv-x="715" d="M388 1463H339Q311 1463 300 1472T289 1494Q289 1509 302 1527L519 1793H711L928 1527Q941 1511 941 1494Q941 1481 930 1472T892 1463H842L617 1647L388 1463ZM473 100H647V25Q630 16
601 8T536 -6T461 -15T385 -18Q354 -18 328 -15T283 -1T253 28T242 78V922H66V997Q87 1006 125 1014T208 1027T300 1035T387 1038Q406 1038 422 1038T449 1033T467 1017T473 985V100Z" />
<glyph unicode="&#xef;" glyph-name="idieresis" horiz-adv-x="715" d="M163 1536Q188 1536 209 1528T246 1505T269 1472T278 1431Q278 1385 246 1354T163 1323Q114 1323 84 1354T53 1431Q53 1474 83 1505T163 1536ZM555 1536Q580 1536 601 1528T637 1505T660
1472T669 1431Q669 1385 638 1354T555 1323Q505 1323 475 1354T444 1431Q444 1474 474 1505T555 1536ZM473 100H647V25Q630 16 601 8T536 -6T461 -15T385 -18Q354 -18 328 -15T283 -1T253 28T242 78V922H66V997Q87 1006 125 1014T208 1027T300 1035T387 1038Q406
1038 422 1038T449 1033T467 1017T473 985V100Z" />
<glyph unicode="&#xf0;" glyph-name="eth" horiz-adv-x="1314" d="M894 1315Q968 1247 1020 1165T1104 992T1152 806T1167 618Q1167 552 1157 479T1122 333T1057 195T958 79T818 -1T632 -31Q521 -31 428 6T266 112T160 276T122 489Q122 598 162 687T271 840T433
938T632 973Q732 973 801 949T921 887Q898 990 854 1079T741 1227L456 1065L433 1104Q416 1133 423 1150T456 1184L655 1296Q580 1346 496 1377T321 1423L335 1518Q479 1508 595 1473T804 1380L1081 1536L1099 1497Q1115 1466 1109 1451T1079 1421L894 1315ZM646
76Q730 76 788 124T882 254T929 442T933 666Q915 703 890 738T828 802T743 848T632 866Q559 866 509 833T428 745T384 625T370 492Q370 409 386 334T435 202T521 110T646 76Z" />
<glyph unicode="&#xf1;" glyph-name="ntilde" horiz-adv-x="1410" d="M242 924H66V999Q87 1008 125 1016T208 1029T301 1037T388 1040Q409 1040 425 1039T452 1033T468 1018T474 987V938Q489 943 529 962T628 1001T755 1038T896 1055Q983 1055 1037 1031T1121
965T1161 864T1172 737V100H1346V25Q1329 16 1300 8T1234 -6T1159 -15T1084 -18Q1053 -18 1027 -15T982 -1T952 28T941 78V717Q941 768 936 804T915 863T872 896T801 907Q773 907 740 903T671 893T602 879T541 866T495 854T474 848V301Q474 239 477 192T484 110T494
52T502 14Q488 6 471 1T434 -9T395 -16T359 -18Q333 -18 312 -14T275 2T251 31T242 78V924ZM854 1413Q876 1413 891 1426T921 1455T950 1484T987 1497Q1004 1497 1019 1489T1047 1472Q1061 1461 1073 1448Q995 1357 939 1316T832 1274Q777 1274 734 1293T654 1336T580
1379T504 1399Q481 1399 466 1386T437 1357T408 1328T371 1315Q354 1315 339 1322T311 1339Q297 1350 285 1364Q324 1409 357 1441T420 1495T478 1526T535 1536Q589 1536 633 1517T716 1475T788 1432T854 1413Z" />
<glyph unicode="&#xf2;" glyph-name="ograve" horiz-adv-x="1333" d="M1216 510Q1216 388 1174 288T1057 117T882 8T668 -31Q552 -31 452 8T277 118T160 288T117 510Q117 633 160 733T277 905T451 1016T668 1055Q783 1055 883 1016T1057 906T1173 734T1216 510ZM364
512Q364 427 377 348T424 209T517 112T668 76Q759 76 817 112T909 208T956 348T969 512Q969 597 956 676T910 815T818 912T668 948Q576 948 518 912T425 816T377 676T364 512ZM752 1291Q760 1277 766 1262T772 1234Q772 1221 764 1214T734 1207H662Q612 1258 568
1304Q549 1323 530 1343T493 1381T461 1413T437 1437Q418 1454 410 1470T402 1498Q402 1537 465 1537H613L752 1291Z" />
<glyph unicode="&#xf3;" glyph-name="oacute" horiz-adv-x="1333" d="M1216 510Q1216 388 1174 288T1057 117T882 8T668 -31Q552 -31 452 8T277 118T160 288T117 510Q117 633 160 733T277 905T451 1016T668 1055Q783 1055 883 1016T1057 906T1173 734T1216 510ZM364
512Q364 427 377 348T424 209T517 112T668 76Q759 76 817 112T909 208T956 348T969 512Q969 597 956 676T910 815T818 912T668 948Q576 948 518 912T425 816T377 676T364 512ZM729 1537H876Q886 1537 897 1535T918 1528T934 1515T940 1492Q940 1467 905 1437Q896
1428 881 1414T849 1381T812 1343T774 1304Q730 1258 680 1207H608Q586 1207 578 1215T569 1234Q569 1246 575 1261T590 1291L729 1537Z" />
<glyph unicode="&#xf4;" glyph-name="ocircumflex" horiz-adv-x="1333" d="M1216 510Q1216 388 1174 288T1057 117T882 8T668 -31Q552 -31 452 8T277 118T160 288T117 510Q117 633 160 733T277 905T451 1016T668 1055Q783 1055 883 1016T1057 906T1173 734T1216
510ZM364 512Q364 427 377 348T424 209T517 112T668 76Q759 76 817 112T909 208T956 348T969 512Q969 597 956 676T910 815T818 912T668 948Q576 948 518 912T425 816T377 676T364 512ZM438 1207H389Q361 1207 350 1216T339 1238Q339 1253 352 1271L569 1537H761L978
1271Q991 1255 991 1238Q991 1225 980 1216T942 1207H892L667 1391L438 1207Z" />
<glyph unicode="&#xf5;" glyph-name="otilde" horiz-adv-x="1333" d="M1216 510Q1216 388 1174 288T1057 117T882 8T668 -31Q552 -31 452 8T277 118T160 288T117 510Q117 633 160 733T277 905T451 1016T668 1055Q783 1055 883 1016T1057 906T1173 734T1216 510ZM364
512Q364 427 377 348T424 209T517 112T668 76Q759 76 817 112T909 208T956 348T969 512Q969 597 956 676T910 815T818 912T668 948Q576 948 518 912T425 816T377 676T364 512ZM850 1413Q872 1413 887 1426T917 1455T946 1484T983 1497Q1000 1497 1015 1489T1043
1472Q1057 1461 1069 1448Q991 1357 935 1316T828 1274Q773 1274 730 1293T650 1336T576 1379T500 1399Q477 1399 462 1386T433 1357T404 1328T367 1315Q350 1315 335 1322T307 1339Q293 1350 281 1364Q320 1409 353 1441T416 1495T474 1526T531 1536Q585 1536
629 1517T712 1475T784 1432T850 1413Z" />
<glyph unicode="&#xf6;" glyph-name="odieresis" horiz-adv-x="1333" d="M1216 510Q1216 388 1174 288T1057 117T882 8T668 -31Q552 -31 452 8T277 118T160 288T117 510Q117 633 160 733T277 905T451 1016T668 1055Q783 1055 883 1016T1057 906T1173 734T1216
510ZM364 512Q364 427 377 348T424 209T517 112T668 76Q759 76 817 112T909 208T956 348T969 512Q969 597 956 676T910 815T818 912T668 948Q576 948 518 912T425 816T377 676T364 512ZM469 1534Q494 1534 515 1526T552 1503T575 1470T584 1429Q584 1383 552 1352T469
1321Q420 1321 390 1352T359 1429Q359 1472 389 1503T469 1534ZM861 1534Q886 1534 907 1526T943 1503T966 1470T975 1429Q975 1383 944 1352T861 1321Q811 1321 781 1352T750 1429Q750 1472 780 1503T861 1534Z" />
<glyph unicode="&#xf7;" glyph-name="divide" horiz-adv-x="1172" d="M121 563V626Q121 671 140 687T203 704H1049V642Q1049 598 1030 581T967 563H121ZM572 485Q605 485 632 475T679 445T710 401T721 348Q721 318 710 292T680 248T633 218T572 207Q540 207 513
218T467 247T437 292T426 348Q426 376 436 401T466 445T513 474T572 485ZM572 1068Q605 1068 632 1058T679 1028T710 984T721 931Q721 901 710 875T680 831T633 801T572 790Q540 790 513 801T467 830T437 875T426 931Q426 959 436 984T466 1028T513 1057T572 1068Z"
/>
<glyph unicode="&#xf8;" glyph-name="oslash" horiz-adv-x="1333" d="M962 977Q1020 943 1067 896T1147 789T1198 659T1216 510Q1216 388 1174 288T1057 117T882 8T668 -31Q598 -31 534 -16L442 -231H384Q352 -231 332 -221T312 -189Q312 -177 319 -163L402 30Q338
62 286 110T196 219T138 353T117 510Q117 633 160 733T277 905T451 1016T668 1055Q754 1055 834 1032L926 1246H983Q1015 1246 1035 1238T1056 1207Q1056 1195 1049 1178L962 977ZM364 512Q364 408 384 316T458 161L788 926Q735 948 668 948Q576 948 518 912T425
816T377 676T364 512ZM969 512Q969 603 954 686T899 831L579 87Q620 76 668 76Q759 76 817 112T909 208T956 348T969 512Z" />
<glyph unicode="&#xf9;" glyph-name="ugrave" horiz-adv-x="1409" d="M759 928V1004Q780 1013 818 1020T901 1033T994 1041T1081 1044Q1102 1044 1118 1043T1145 1037T1161 1022T1167 991V100H1341V25Q1324 16 1295 8T1229 -6T1154 -15T1079 -18Q1048 -18 1022
-15T977 -1T946 28T935 78V86Q935 87 918 79T870 57T799 29T712 1T617 -22T522 -31Q432 -31 376 -8T290 58T248 159T237 287V928H61V1004Q82 1013 120 1020T203 1033T295 1041T382 1044Q403 1044 419 1043T446 1037T462 1022T468 991V307Q468 256 473 220T494 161T537
128T608 117Q633 117 667 121T738 132T810 146T874 160T918 171T935 176V928H759ZM753 1291Q761 1277 767 1262T773 1234Q773 1221 765 1214T735 1207H663Q613 1258 569 1304Q550 1323 531 1343T494 1381T462 1413T438 1437Q419 1454 411 1470T403 1498Q403 1537
466 1537H614L753 1291Z" />
<glyph unicode="&#xfa;" glyph-name="uacute" horiz-adv-x="1409" d="M759 928V1004Q780 1013 818 1020T901 1033T994 1041T1081 1044Q1102 1044 1118 1043T1145 1037T1161 1022T1167 991V100H1341V25Q1324 16 1295 8T1229 -6T1154 -15T1079 -18Q1048 -18 1022
-15T977 -1T946 28T935 78V86Q935 87 918 79T870 57T799 29T712 1T617 -22T522 -31Q432 -31 376 -8T290 58T248 159T237 287V928H61V1004Q82 1013 120 1020T203 1033T295 1041T382 1044Q403 1044 419 1043T446 1037T462 1022T468 991V307Q468 256 473 220T494 161T537
128T608 117Q633 117 667 121T738 132T810 146T874 160T918 171T935 176V928H759ZM733 1537H880Q890 1537 901 1535T922 1528T938 1515T944 1492Q944 1467 909 1437Q900 1428 885 1414T853 1381T816 1343T778 1304Q734 1258 684 1207H612Q590 1207 582 1215T573
1234Q573 1246 579 1261T594 1291L733 1537Z" />
<glyph unicode="&#xfb;" glyph-name="ucircumflex" horiz-adv-x="1409" d="M759 928V1004Q780 1013 818 1020T901 1033T994 1041T1081 1044Q1102 1044 1118 1043T1145 1037T1161 1022T1167 991V100H1341V25Q1324 16 1295 8T1229 -6T1154 -15T1079 -18Q1048 -18
1022 -15T977 -1T946 28T935 78V86Q935 87 918 79T870 57T799 29T712 1T617 -22T522 -31Q432 -31 376 -8T290 58T248 159T237 287V928H61V1004Q82 1013 120 1020T203 1033T295 1041T382 1044Q403 1044 419 1043T446 1037T462 1022T468 991V307Q468 256 473 220T494
161T537 128T608 117Q633 117 667 121T738 132T810 146T874 160T918 171T935 176V928H759ZM465 1207H416Q388 1207 377 1216T366 1238Q366 1253 379 1271L596 1537H788L1005 1271Q1018 1255 1018 1238Q1018 1225 1007 1216T969 1207H919L694 1391L465 1207Z" />
<glyph unicode="&#xfc;" glyph-name="udieresis" horiz-adv-x="1409" d="M759 928V1004Q780 1013 818 1020T901 1033T994 1041T1081 1044Q1102 1044 1118 1043T1145 1037T1161 1022T1167 991V100H1341V25Q1324 16 1295 8T1229 -6T1154 -15T1079 -18Q1048 -18 1022
-15T977 -1T946 28T935 78V86Q935 87 918 79T870 57T799 29T712 1T617 -22T522 -31Q432 -31 376 -8T290 58T248 159T237 287V928H61V1004Q82 1013 120 1020T203 1033T295 1041T382 1044Q403 1044 419 1043T446 1037T462 1022T468 991V307Q468 256 473 220T494 161T537
128T608 117Q633 117 667 121T738 132T810 146T874 160T918 171T935 176V928H759ZM497 1534Q522 1534 543 1526T580 1503T603 1470T612 1429Q612 1383 580 1352T497 1321Q448 1321 418 1352T387 1429Q387 1472 417 1503T497 1534ZM889 1534Q914 1534 935 1526T971
1503T994 1470T1003 1429Q1003 1383 972 1352T889 1321Q839 1321 809 1352T778 1429Q778 1472 808 1503T889 1534Z" />
<glyph unicode="&#xfd;" glyph-name="yacute" horiz-adv-x="1265" d="M1104 1042Q1123 1042 1135 1032T1155 1006T1164 972T1167 936Q1167 877 1151 803T1106 645T1041 474T965 302T885 140T809 0Q777 -56 742 -114T665 -227T575 -330T470 -415T346 -473T201 -494Q186
-494 159 -492T107 -484T62 -467T43 -436Q43 -431 44 -428T47 -420L102 -272Q177 -294 232 -311T336 -328Q378 -328 421 -302T502 -236T572 -152T623 -68L219 858L68 791L31 858Q55 880 91 912T169 972T256 1021T344 1042Q369 1042 390 1032T420 995Q420 993 433
960T469 874T519 752T577 610T636 466T690 335T732 235T756 180Q790 243 827 319T896 475T947 629T967 764Q967 817 954 867T915 961L1047 1026Q1082 1042 1104 1042ZM721 1537H868Q878 1537 889 1535T910 1528T926 1515T932 1492Q932 1467 897 1437Q888 1428 873
1414T841 1381T804 1343T766 1304Q722 1258 672 1207H600Q578 1207 570 1215T561 1234Q561 1246 567 1261T582 1291L721 1537Z" />
<glyph unicode="&#xfe;" glyph-name="thorn" horiz-adv-x="1328" d="M186 1419H10V1495Q31 1504 69 1512T152 1525T245 1533T332 1536Q353 1536 369 1535T396 1529T412 1514T418 1483V932Q455 956 498 978T587 1018T680 1045T774 1055Q888 1055 970 1014T1105
901T1183 735T1208 532Q1208 409 1168 306T1053 128T876 11T649 -31Q587 -31 529 -23T418 -2V-174Q418 -281 427 -345T442 -442Q442 -444 443 -445T444 -449Q444 -451 445 -453T446 -457V-461Q432 -469 415 -475T378 -485T339 -491T303 -494Q252 -494 219 -472T186
-393V1419ZM739 934Q656 934 574 905T418 836V113Q418 112 438 107T489 96T561 85T641 80Q722 80 781 112T881 204T940 351T960 549Q960 635 949 706T911 827T843 906T739 934Z" />
<glyph unicode="&#xff;" glyph-name="ydieresis" horiz-adv-x="1265" d="M1104 1042Q1123 1042 1135 1032T1155 1006T1164 972T1167 936Q1167 877 1151 803T1106 645T1041 474T965 302T885 140T809 0Q777 -56 742 -114T665 -227T575 -330T470 -415T346 -473T201
-494Q186 -494 159 -492T107 -484T62 -467T43 -436Q43 -431 44 -428T47 -420L102 -272Q177 -294 232 -311T336 -328Q378 -328 421 -302T502 -236T572 -152T623 -68L219 858L68 791L31 858Q55 880 91 912T169 972T256 1021T344 1042Q369 1042 390 1032T420 995Q420
993 433 960T469 874T519 752T577 610T636 466T690 335T732 235T756 180Q790 243 827 319T896 475T947 629T967 764Q967 817 954 867T915 961L1047 1026Q1082 1042 1104 1042ZM485 1534Q510 1534 531 1526T568 1503T591 1470T600 1429Q600 1383 568 1352T485 1321Q436
1321 406 1352T375 1429Q375 1472 405 1503T485 1534ZM877 1534Q902 1534 923 1526T959 1503T982 1470T991 1429Q991 1383 960 1352T877 1321Q827 1321 797 1352T766 1429Q766 1472 796 1503T877 1534Z" />
<glyph unicode="&#x2013;" glyph-name="endash" horiz-adv-x="1263" d="M168 551V614Q168 659 187 675T250 692H1096V631Q1096 586 1077 569T1014 551H168Z" />
<glyph unicode="&#x2014;" glyph-name="emdash" horiz-adv-x="1771" d="M168 551V614Q168 659 187 675T250 692H1604V631Q1604 586 1585 569T1522 551H168Z" />
<glyph unicode="&#x2018;" glyph-name="quoteleft" horiz-adv-x="574" d="M145 1102Q139 1132 139 1167Q139 1217 151 1272T191 1377T262 1469T367 1532Q375 1536 385 1536Q394 1536 402 1530T410 1505V1450Q386 1435 364 1413T324 1364T296 1306T285 1241Q287
1243 290 1243T297 1243Q329 1243 356 1232T402 1203T431 1158T442 1102Q442 1073 432 1049T402 1005T356 976T297 965Q264 965 238 975T194 1005T163 1048T145 1102Z" />
<glyph unicode="&#x2019;" glyph-name="quoteright" horiz-adv-x="566" d="M440 1399Q446 1367 446 1333Q446 1283 434 1228T394 1123T324 1032T219 969Q211 965 201 965Q191 965 184 971T176 995V1051Q200 1066 222 1088T262 1137T290 1195T301 1260Q299 1258
296 1258T289 1257Q257 1257 230 1268T184 1298T154 1343T143 1399Q143 1427 153 1452T183 1496T230 1525T289 1536Q322 1536 347 1526T392 1496T423 1452T440 1399Z" />
<glyph unicode="&#x201a;" glyph-name="quotesinglbase" horiz-adv-x="599" d="M447 102Q453 72 453 37Q453 -13 441 -68T401 -173T331 -264T226 -328Q218 -332 208 -332Q198 -332 191 -326T183 -301V-246Q207 -231 226 -209T262 -159T289 -100T308 -37Q306 -39
303 -39T296 -39Q264 -39 237 -28T191 2T161 46T150 102Q150 130 160 155T190 199T237 229T296 240Q329 240 354 229T399 200T430 156T447 102Z" />
<glyph unicode="&#x201c;" glyph-name="quotedblleft" horiz-adv-x="990" d="M145 1102Q139 1132 139 1167Q139 1217 151 1272T191 1377T262 1469T367 1532Q375 1536 385 1536Q394 1536 402 1530T410 1505V1450Q386 1435 364 1413T324 1364T296 1306T285 1241Q287
1243 290 1243T297 1243Q329 1243 356 1232T402 1203T431 1158T442 1102Q442 1073 432 1049T402 1005T356 976T297 965Q264 965 238 975T194 1005T163 1048T145 1102ZM563 1102Q557 1132 557 1167Q557 1217 569 1272T609 1377T680 1469T784 1532Q788 1534 792 1535T803
1536Q812 1536 819 1530T827 1505V1450Q803 1435 781 1413T742 1364T714 1306T703 1241Q705 1243 708 1243T715 1243Q747 1243 774 1232T820 1203T849 1158T860 1102Q860 1073 850 1049T820 1005T774 976T715 965Q682 965 656 975T612 1005T581 1048T563 1102Z"
/>
<glyph unicode="&#x201d;" glyph-name="quotedblright" horiz-adv-x="984" d="M858 1399Q864 1367 864 1333Q864 1283 852 1228T812 1123T742 1032T637 969Q629 965 618 965Q609 965 602 971T594 995V1051Q618 1066 640 1088T680 1137T708 1195T719 1260Q717 1258
714 1258T707 1257Q675 1257 648 1268T602 1298T572 1343T561 1399Q561 1427 571 1452T601 1496T648 1525T707 1536Q740 1536 765 1526T810 1496T841 1452T858 1399ZM440 1399Q446 1367 446 1333Q446 1283 434 1228T394 1123T324 1032T219 969Q211 965 201 965Q191
965 184 971T176 995V1051Q200 1066 222 1088T262 1137T290 1195T301 1260Q299 1258 296 1258T289 1257Q257 1257 230 1268T184 1298T154 1343T143 1399Q143 1427 153 1452T183 1496T230 1525T289 1536Q322 1536 347 1526T392 1496T423 1452T440 1399Z" />
<glyph unicode="&#x201e;" glyph-name="quotedblbase" horiz-adv-x="1018" d="M447 102Q453 72 453 37Q453 -13 441 -68T401 -173T331 -264T226 -328Q218 -332 208 -332Q198 -332 191 -326T183 -301V-246Q207 -231 229 -209T269 -160T297 -102T308 -37Q306 -39
303 -39T296 -39Q264 -39 237 -28T191 2T161 46T150 102Q150 130 160 155T190 199T237 229T296 240Q329 240 354 229T399 200T430 156T447 102ZM867 102Q873 72 873 37Q873 -13 861 -68T821 -173T751 -264T646 -328Q638 -332 627 -332Q618 -332 611 -326T603 -301V-246Q627
-231 649 -209T689 -160T717 -102T728 -37Q726 -39 723 -39T715 -39Q683 -39 656 -28T610 2T581 46T570 102Q570 130 580 155T610 199T656 229T715 240Q748 240 774 229T819 200T850 156T867 102Z" />
<glyph unicode="&#x2022;" glyph-name="bullet" horiz-adv-x="717" d="M151 571Q151 614 167 652T211 718T277 763T358 780Q401 780 439 764T505 719T550 652T567 571Q567 528 551 491T506 425T439 381T358 365Q315 365 277 381T211 425T167 490T151 571Z" />
<glyph unicode="&#x2039;" glyph-name="guilsinglleft" horiz-adv-x="656" d="M319 549L476 248Q484 232 488 220T493 197Q493 181 488 170T476 151Q469 142 460 135L112 496V612L460 973Q469 966 476 957Q482 949 487 938T493 911Q493 900 489 887T476 860L319 559V549Z" />
<glyph unicode="&#x203a;" glyph-name="guilsinglright" horiz-adv-x="656" d="M337 559L180 860Q163 892 163 911Q163 926 168 937T179 957Q186 966 196 973L544 612V496L196 135Q186 142 179 151Q173 159 168 170T163 197Q163 208 166 220T180 248L337 549V559Z" />
</font>
</defs>
</svg>
