<?xml version="1.0" standalone="no"?>
<!DOCTYPE svg PUBLIC "-//W3C//DTD SVG 1.1//EN" "http://www.w3.org/Graphics/SVG/1.1/DTD/svg11.dtd">
<svg xmlns="http://www.w3.org/2000/svg">
<defs >
<font id="Paprika" horiz-adv-x="575" ><font-face
    font-family="Paprika"
    units-per-em="1000"
    panose-1="2 0 5 3 6 0 0 2 0 4"
    ascent="1145"
    descent="-274"
    alphabetic="0" />
<glyph unicode=" " glyph-name="space" horiz-adv-x="333" />
<glyph unicode="!" glyph-name="exclam" horiz-adv-x="388" d="M247 83Q247 56 235 14Q191 -14 157 -14T108 -1T93 38T101 106Q144 133 181 133Q247 133 247 83ZM280 887T297 863T315 784T274 527T233 277Q233 267 236 258Q216 242 188 242Q153 242 153 283Q153
286 174 473T195 741T173 864Q184 873 205 880T243 887Q280 887 297 863Z" />
<glyph unicode="&quot;" glyph-name="quotedbl" horiz-adv-x="396" d="M232 863Q232 846 216 786T200 698T212 647Q190 633 161 633Q115 633 115 693Q115 723 124 772T134 845T126 887Q153 910 200 910Q232 910 232 863ZM401 863Q401 846 385 786T369 699T381
647Q359 633 330 633Q284 633 284 693Q284 723 294 772T304 844T295 887Q322 910 369 910Q401 910 401 863Z" />
<glyph unicode="#" glyph-name="numbersign" horiz-adv-x="817" d="M483 247L283 249Q279 206 279 158Q279 71 321 31Q304 -6 255 -6Q170 -6 170 121Q170 164 183 250Q123 248 99 230Q80 259 80 290Q80 346 134 346Q143 346 199 344L229 524H223Q159 524 132 504Q113
533 113 564Q113 620 167 620Q178 620 242 618Q252 700 252 761T229 863Q240 872 262 879T301 886Q334 886 349 864T365 793T342 614Q467 609 529 609H541Q552 704 552 763T529 863Q540 872 562 879T601 886Q634 886 649 864T665 793T642 614Q726 621 752 633Q767
610 767 580Q767 520 664 520H625Q605 414 594 339Q692 347 719 359Q734 336 734 306Q734 246 631 246H583Q579 205 579 158Q579 71 621 31Q604 -6 555 -6Q470 -6 470 121Q470 164 483 247ZM528 521L325 523Q304 412 295 341Q453 335 497 335L528 521Z" />
<glyph unicode="$" glyph-name="dollar" horiz-adv-x="660" d="M129 654Q129 748 183 807T330 883Q339 939 356 962T403 986Q415 986 427 980T445 963Q423 931 413 889Q480 887 525 859T570 783T525 695Q509 734 476 765T399 808Q389 731 376 492Q435 444 451
430Q512 378 540 331T568 204T504 60T338 -14Q314 -105 254 -105Q224 -105 220 -69Q243 -46 257 -15Q177 -8 122 27T67 123Q67 169 119 227Q154 77 277 53Q294 153 305 401Q271 427 248 447Q190 494 160 541T129 654ZM401 59T435 91T469 176T446 266T369 349Q358
121 350 51Q401 59 435 91ZM279 804T251 771T222 688T239 613T311 544Q320 768 323 812Q279 804 251 771Z" />
<glyph unicode="%" glyph-name="percent" horiz-adv-x="901" d="M578 845L577 864Q611 887 637 887Q682 887 682 845Q682 820 666 774T528 488T371 147Q351 87 351 59T362 10Q319 -26 295 -26Q246 -26 246 23Q246 52 264 106T401 400T548 725T578 845ZM319 742T295
784T227 826Q199 826 178 802T146 742Q125 672 125 608Q125 442 217 442Q245 442 266 466T298 528Q319 602 319 672ZM353 474T306 428T192 381T88 439T49 579T70 726T138 839T252 886T356 827T395 687T374 540ZM776 330T752 372T684 414Q656 414 635 390T603 330Q582
260 582 196Q582 30 674 30Q702 30 723 54T756 116Q776 190 776 260ZM810 62T763 16T649 -31T545 27T506 167T527 314T595 427T709 474T813 415T852 275T831 128Z" />
<glyph unicode="&amp;" glyph-name="ampersand" horiz-adv-x="777" d="M325 438T264 371T202 228T244 104T362 55T496 112T554 255Q554 285 547 314Q410 273 366 238Q345 221 334 200Q325 227 325 263T360 326T449 371T562 404Q708 445 748 506Q757 473 757 451Q757
384 635 342Q643 299 643 266Q643 135 552 58T339 -19Q273 -19 223 3T146 60Q91 131 91 217T149 375T311 484Q142 539 142 689Q142 772 207 829T387 887T553 850T604 769Q604 741 588 725T529 692Q500 827 389 827Q324 827 286 785T247 691Q247 541 416 522Q439
520 447 515T455 494T448 459Q325 438 264 371Z" />
<glyph unicode="&apos;" glyph-name="quotesingle" horiz-adv-x="228" d="M232 863Q232 846 216 786T200 699T212 647Q190 633 161 633Q115 633 115 693Q115 723 125 772T135 844T126 887Q153 910 200 910Q232 910 232 863Z" />
<glyph unicode="(" glyph-name="parenleft" horiz-adv-x="407" d="M195 173T255 65T422 -53Q405 -96 382 -111T322 -127Q256 -127 204 -67T125 92T98 306T131 539T214 740T326 876T442 928Q474 928 487 876Q413 849 356 791T264 658Q195 508 195 341Z" />
<glyph unicode=")" glyph-name="parenright" horiz-adv-x="407" d="M212 627T152 735T-15 853Q2 895 25 911T85 927Q151 927 203 867T282 708T309 494T276 261T193 60T81 -76T-35 -128Q-67 -128 -80 -76Q-6 -49 51 9T143 142Q212 292 212 459Z" />
<glyph unicode="*" glyph-name="asterisk" horiz-adv-x="480" d="M437 513Q422 513 402 525T367 551T332 586T304 614Q302 580 302 539T314 471Q288 447 240 447Q223 447 216 456T208 486T212 529T225 579T236 624Q146 583 116 545Q95 553 74 573T53 610T65 637T100
656T141 670Q173 680 210 689Q127 746 81 753Q81 780 90 812T121 845Q137 845 157 833T190 807T225 772T253 743Q255 775 255 811T244 887Q270 911 318 911Q335 911 342 902T350 871T346 829T333 779T321 734Q411 774 442 813Q463 806 484 785T505 748T493 722T458
702T418 688T376 676T348 669Q420 613 477 605Q477 578 468 546T437 513Z" />
<glyph unicode="+" glyph-name="plus" horiz-adv-x="544" d="M109 482L236 476Q246 542 246 576T232 640Q254 658 287 658Q337 658 337 586Q337 570 324 472H342Q374 472 421 478T486 493Q501 476 501 442Q501 386 383 386H312Q307 344 307 319Q307 269 336 235Q310
205 278 205Q216 205 216 303Q216 344 222 388Q200 389 174 389Q101 389 68 372Q49 400 49 437Q49 457 65 469T109 482Z" />
<glyph unicode="," glyph-name="comma" horiz-adv-x="319" d="M41 -89Q79 -89 102 -58T125 21T92 96Q139 133 186 133Q240 133 240 61T185 -74T59 -137Q25 -137 25 -109Q25 -97 26 -88Q31 -89 41 -89Z" />
<glyph unicode="-" glyph-name="hyphen" horiz-adv-x="351" d="M239 343L151 347Q94 347 62 329Q38 361 38 402T101 444L250 433Q297 433 329 455Q344 435 344 403Q344 343 239 343Z" />
<glyph unicode="." glyph-name="period" horiz-adv-x="295" d="M188 133T206 121T225 81T212 14Q168 -14 134 -14T85 -1T71 37T79 106Q121 133 154 133Z" />
<glyph unicode="/" glyph-name="slash" horiz-adv-x="388" d="M114 -76T91 -102T35 -128T-24 -101Q25 -43 50 29Q91 144 151 439T233 798Q286 947 360 947Q378 947 395 937T413 903Q374 882 352 845T312 753Q270 627 214 337T136 -14Z" />
<glyph unicode="0" glyph-name="zero" horiz-adv-x="659" d="M527 487Q527 645 478 727T338 810Q282 810 240 763T175 646Q132 508 132 388Q132 226 180 144T320 61Q378 61 421 109T486 230Q527 369 527 487ZM278 -16Q159 -16 93 87T26 350Q26 548 114 711Q156
790 225 838T381 887Q500 887 566 782T633 517Q633 320 546 158Q503 80 434 32T278 -16Z" />
<glyph unicode="1" glyph-name="one" horiz-adv-x="581" d="M427 729T389 498T350 169T388 29Q357 -7 319 -7Q241 -7 241 125Q241 171 276 403T312 769Q272 710 234 674T178 630T141 622T105 634T66 690Q108 701 140 722T207 775T265 836T309 875T361 887T410
863T427 784Z" />
<glyph unicode="2" glyph-name="two" horiz-adv-x="669" d="M576 692Q576 578 475 430Q438 375 414 342T338 250Q273 174 189 83Q312 116 402 116T527 99T563 21Q563 16 563 5T562 -13Q515 5 463 12T299 19T118 2Q100 -16 82 -16Q45 -16 27 22Q36 32 86 88T176
189T272 306T365 437T430 561T458 680T419 775T311 817Q182 817 160 663Q120 679 105 693T89 733Q89 795 147 841T328 887T513 835T576 692Z" />
<glyph unicode="3" glyph-name="three" horiz-adv-x="679" d="M170 409Q169 416 169 445T176 481T212 492Q322 504 377 556T433 671T397 775T299 817T205 785T154 692Q116 707 102 722T88 763Q88 806 143 846T316 887T491 835T550 692Q550 636 510 576T393 473Q564
434 564 280Q564 203 514 128Q457 39 352 4Q293 -16 217 -16T83 26T26 123Q26 163 95 189Q123 58 246 58Q337 58 391 121T446 255T406 373T282 428Q234 414 170 409Z" />
<glyph unicode="4" glyph-name="four" horiz-adv-x="595" d="M376 820Q376 726 295 558T100 242Q235 277 364 279Q374 326 374 364T357 433Q384 452 419 452T470 435T486 384T471 268Q534 250 534 194Q534 183 532 159Q507 170 456 180Q449 133 449 109Q449 59
485 24Q452 -6 414 -6T357 16T337 87T347 192Q303 195 259 195Q130 195 43 174Q26 157 8 157Q-29 157 -47 194Q64 316 159 495T255 808Q255 832 246 851Q289 887 328 887Q352 887 364 873T376 820Z" />
<glyph unicode="5" glyph-name="five" horiz-adv-x="679" d="M250 58Q341 58 396 121T451 263Q451 322 414 372Q395 398 356 414T271 430T189 424T131 413T106 407Q93 407 93 422Q93 427 102 476Q127 625 127 724T106 866Q133 889 174 889T231 853Q253 852 331
852T462 859T561 884Q563 862 563 850Q563 790 527 773T414 755T242 777Q241 726 200 487Q239 491 281 491Q433 491 501 431T569 280Q569 203 520 128Q462 39 358 4Q298 -16 222 -16T88 26T31 123Q31 163 100 189Q128 58 250 58Z" />
<glyph unicode="6" glyph-name="six" horiz-adv-x="685" d="M204 405Q189 405 189 421Q189 449 202 472Q278 505 355 505Q454 505 518 447T583 280Q583 183 516 90Q483 44 423 14T285 -16Q169 -16 104 83T39 336Q39 432 65 528T139 705T263 836T432 887Q567 887
567 805Q567 788 556 770T529 740Q502 776 469 788T385 800T293 768T225 688T180 582Q146 476 146 382Q146 217 181 139T297 61T420 122T464 268T427 394T327 437Q276 437 224 413Q206 405 204 405Z" />
<glyph unicode="7" glyph-name="seven" horiz-adv-x="589" d="M140 51Q140 182 226 407T425 789Q300 755 208 755T79 772T43 850Q43 862 45 884Q91 866 143 859T307 852T488 868Q505 887 525 887Q562 887 580 849Q449 717 355 473T260 63Q260 39 270 20Q227 -16
188 -16Q164 -16 152 -2T140 51Z" />
<glyph unicode="8" glyph-name="eight" horiz-adv-x="688" d="M430 485T416 494T402 511T416 531T447 561T478 614T492 696T456 777T355 812T247 774T204 679T242 576T335 494T445 419T538 326T577 209Q577 110 498 47T289 -16T97 43T33 186T84 334T235 434Q169
484 132 538T95 660Q95 763 171 825T367 887T542 836T597 711Q597 569 444 483Q430 485 416 494ZM466 202Q466 238 449 259T422 292T390 321T357 346T316 374T277 402Q137 291 137 194Q137 136 180 98T290 59T411 97T466 202Z" />
<glyph unicode="9" glyph-name="nine" horiz-adv-x="655" d="M326 887Q442 887 507 788T572 534Q572 438 546 343T472 166T348 35T179 -16Q44 -16 44 65Q44 82 55 101T82 130Q109 94 142 82T231 70T336 117T411 234Q464 377 464 488Q464 654 429 732T314 810T190
749T146 603T184 477T284 434Q335 434 388 458Q405 466 407 466Q421 466 421 450Q421 423 409 399Q332 365 256 365Q157 365 93 423T28 591Q28 670 70 743Q153 887 326 887Z" />
<glyph unicode=":" glyph-name="colon" horiz-adv-x="295" d="M188 133T206 121T225 81T212 14Q168 -14 134 -14T85 -1T71 37T79 106Q121 133 154 133ZM213 649T231 637T250 597T237 530Q193 502 159 502T110 515T96 553T104 622Q146 649 179 649Z" />
<glyph unicode=";" glyph-name="semicolon" horiz-adv-x="295" d="M213 649T231 637T250 597T237 530Q193 502 159 502T110 515T96 553T104 622Q146 649 179 649ZM22 -89Q60 -89 83 -58T106 21T73 96Q120 133 167 133Q221 133 221 61T166 -74T40 -137Q6 -137 6
-109Q6 -97 7 -88Q12 -89 22 -89Z" />
<glyph unicode="&lt;" glyph-name="less" horiz-adv-x="544" d="M456 261T443 236T407 210T370 219T271 290T128 386T25 428Q25 490 113 530Q146 545 226 577T350 633T411 679Q460 647 460 614T422 562Q398 550 302 518T162 463Q175 454 224 420T295 372T354 336Q421
294 458 292Q456 261 443 236Z" />
<glyph unicode="=" glyph-name="equal" horiz-adv-x="544" d="M383 264L174 267Q101 267 68 250Q49 278 49 315Q49 335 65 347T109 360L342 350Q374 350 421 356T486 371Q501 354 501 320Q501 264 383 264ZM383 508L174 511Q101 511 68 494Q49 522 49 560Q49 580
65 592T109 604L342 594Q374 594 421 600T486 615Q501 598 501 564Q501 508 383 508Z" />
<glyph unicode="&gt;" glyph-name="greater" horiz-adv-x="544" d="M122 562Q84 581 84 614T133 679Q150 656 193 633T317 578T431 530Q519 490 519 428Q475 420 417 386T273 290T174 219T138 210T102 235T86 292Q123 294 175 326T248 371T319 419T382 463Q338
485 242 517T122 562Z" />
<glyph unicode="?" glyph-name="question" horiz-adv-x="496" d="M484 692Q484 547 265 273Q238 237 212 237T171 267Q236 350 301 471T367 675Q367 734 335 775T245 817Q124 817 124 647Q43 683 43 745T103 847T262 887T422 836T484 692ZM279 83Q279 56 267 14Q223
-14 189 -14T140 -1T125 38T133 106Q176 133 213 133Q279 133 279 83Z" />
<glyph unicode="@" glyph-name="at" horiz-adv-x="1116" d="M788 198Q853 198 896 273T940 479Q940 670 855 765T591 861Q468 861 372 791T226 606T176 358Q176 -33 504 -33Q654 -33 809 63Q839 22 839 -12T731 -74T504 -101Q73 -101 73 354Q73 507 142 638T336
849T613 929Q820 929 931 820T1042 510Q1042 415 1013 330T923 188T783 130Q705 130 668 172Q628 219 628 364Q589 273 541 216T454 158Q399 158 364 210T329 350Q329 490 397 588T561 687Q620 687 662 645Q673 680 702 680T754 654Q741 618 731 535T721 390T722
307T729 255Q740 198 788 198ZM430 313T443 282T480 250T542 305T611 441T651 587Q605 622 564 622Q505 622 468 551T430 368Q430 313 443 282Z" />
<glyph unicode="A" glyph-name="A" horiz-adv-x="657" d="M667 29Q651 -7 603 -7T527 18T481 101T451 255H158Q107 140 107 77Q107 48 119 29Q95 -7 50 -7T5 43Q5 71 22 125T151 410T289 723T317 830T314 866Q347 889 386 889T448 870T489 794T529 497T581 156Q602
82 667 29ZM386 737Q363 683 291 537T188 323H444Q439 386 428 487T412 616Q400 687 386 737Z" />
<glyph unicode="B" glyph-name="B" horiz-adv-x="663" d="M482 887T547 837T612 716T565 584T432 479Q626 449 626 290Q626 213 576 136Q481 -11 283 -11Q184 -11 141 19T98 110T136 423T174 746T159 864Q282 887 361 887Q482 887 547 837ZM234 427Q207 249 207
182T215 84Q253 59 310 59Q405 59 462 122T519 262T471 388T320 441Q276 431 234 427ZM373 490T440 547T507 673T469 786T350 829Q326 829 287 822Q286 764 242 482Q373 490 440 547Z" />
<glyph unicode="C" glyph-name="C" horiz-adv-x="608" d="M326 854Q389 887 460 887T574 863T618 793Q618 768 609 747T591 716T567 693Q542 750 506 780T414 810T318 777T253 695T213 585Q186 482 186 382Q186 221 238 135T393 49Q449 49 492 84T559 186Q584
158 584 117Q584 65 517 22T365 -21Q220 -21 149 78T78 336Q78 498 140 638Q208 792 326 854Z" />
<glyph unicode="D" glyph-name="D" horiz-adv-x="730" d="M283 -11Q184 -11 141 19T98 115T136 420T174 733T159 854Q278 880 373 880Q528 880 609 807T691 569T642 276T499 68T283 -11ZM207 160Q207 115 215 85Q257 59 320 59T440 103T526 218Q586 358 586 521T537
751T364 819Q326 819 288 812Q288 761 248 513T207 160Z" />
<glyph unicode="E" glyph-name="E" horiz-adv-x="602" d="M321 867L483 865Q603 865 643 884Q638 819 612 798T528 776Q434 776 293 798Q293 731 251 479Q447 481 507 512Q501 433 462 414Q441 403 422 401T376 398T239 407Q208 208 208 112Q208 92 209 83Q291
79 347 79Q536 79 585 105Q582 65 572 41T537 6T491 -7T419 -10T222 11Q195 -8 168 -8Q96 -8 96 89Q96 152 141 412Q125 413 90 413Q95 450 106 462T152 478Q180 655 180 724T165 839Q200 867 321 867Z" />
<glyph unicode="F" glyph-name="F" horiz-adv-x="570" d="M319 867L470 865Q581 865 619 884Q614 820 587 798T490 776T293 798Q292 741 250 479Q446 481 507 512Q501 433 462 414Q441 403 422 401T377 398T238 407Q214 245 214 159T253 29Q222 -7 184 -7Q106
-7 106 125Q106 186 142 412Q126 413 90 413Q95 450 106 462T153 478Q180 665 180 729T165 839Q200 867 319 867Z" />
<glyph unicode="G" glyph-name="G" horiz-adv-x="689" d="M326 854Q389 887 460 887T574 863T618 793Q618 768 609 747T591 716T567 693Q542 750 506 780T414 810T318 777T253 695T213 585Q186 482 186 382Q186 226 231 138T350 49Q400 49 445 74T521 144Q524
179 535 251T547 362T532 435Q554 454 586 454T631 437T645 384T628 247T611 103T641 24Q615 -6 581 -6Q526 -6 519 70Q432 -21 319 -21T142 80T78 336Q78 498 140 638Q208 792 326 854Z" />
<glyph unicode="H" glyph-name="H" horiz-adv-x="782" d="M250 889T267 865T284 775T240 468H567Q594 655 594 739T573 866Q583 875 603 882T640 889Q675 889 691 865T708 786T670 499T631 170T669 29Q639 -7 600 -7Q522 -7 522 125Q522 175 556 395H229Q207 255
207 163T245 29Q214 -7 176 -7Q98 -7 98 125Q98 180 133 410T169 732T148 866Q175 889 212 889Z" />
<glyph unicode="I" glyph-name="I" horiz-adv-x="332" d="M284 730T246 499T207 169T245 29Q214 -7 176 -7Q98 -7 98 125Q98 180 133 410T169 732T148 866Q175 889 212 889T267 865T284 785Z" />
<glyph unicode="J" glyph-name="J" horiz-adv-x="336" d="M276 783Q276 576 246 352Q217 126 134 -50Q95 -133 37 -181T-92 -229Q-139 -229 -175 -206T-212 -134T-176 -51Q-159 -100 -135 -124T-65 -149T17 -105T78 15T119 180T145 374Q162 569 162 731Q162 824
141 866Q151 875 171 882T208 889Q242 889 259 865T276 783Z" />
<glyph unicode="K" glyph-name="K" horiz-adv-x="632" d="M222 346Q207 238 207 154T245 29Q214 -7 176 -7Q98 -7 98 125Q98 180 133 410T169 732T148 866Q175 889 212 889T267 865T284 783Q284 718 236 440Q366 569 462 701T571 879Q612 879 636 866T661 835T564
702T354 472Q362 457 392 396T441 298Q495 191 523 151Q572 83 632 74Q625 28 601 9T553 -10Q503 -10 458 57Q437 88 283 403Q241 363 222 346Z" />
<glyph unicode="L" glyph-name="L" horiz-adv-x="562" d="M250 889T267 865T284 781T242 469T199 112Q199 92 200 82Q257 79 329 79Q515 79 562 105Q559 65 549 41T517 6T473 -7T404 -10T214 11Q187 -8 158 -8Q86 -8 86 89Q86 153 127 391T169 726T148 866Q175
889 212 889Z" />
<glyph unicode="M" glyph-name="M" horiz-adv-x="886" d="M838 730T800 499T761 170T799 29Q768 -7 730 -7Q652 -7 652 125Q652 179 688 411T724 740Q577 445 552 368T527 254Q527 246 529 230Q522 221 502 214T460 207Q416 207 393 235T350 341T306 529T260 716Q258
697 223 479T187 166T226 29Q212 -7 171 -7Q98 -7 98 125Q98 180 133 410T169 732T148 866Q171 889 218 889T298 862T350 775T399 570T460 330Q482 390 540 511T638 726T678 861Q710 889 770 889Q804 889 821 865T838 785Z" />
<glyph unicode="N" glyph-name="N" horiz-adv-x="769" d="M721 730T683 499T644 171T685 29Q671 -7 623 -7T542 18T477 107T372 394T259 707Q258 698 223 479T187 166T226 29Q212 -7 171 -7Q98 -7 98 125Q98 180 133 410T169 732T148 866Q153 875 172 882T224
889T284 869T339 794T439 510T558 180Q562 219 594 432T626 735T605 866Q613 875 632 882T665 889Q694 889 707 865T721 786Z" />
<glyph unicode="O" glyph-name="O" horiz-adv-x="782" d="M630 487Q630 644 572 727T411 810Q359 810 318 777T253 695T213 584Q186 481 186 380Q186 223 244 140T405 57Q457 57 498 90T563 172T603 282Q630 386 630 487ZM344 -21Q219 -21 149 80T78 336Q78 536
176 706Q223 787 300 838T472 889Q597 889 667 788T738 531Q738 370 674 229Q604 73 486 12Q420 -21 344 -21Z" />
<glyph unicode="P" glyph-name="P" d="M624 684Q624 620 596 565T526 471T427 400Q330 347 218 319Q207 229 207 166Q207 70 245 29Q214 -7 176 -7Q98 -7 98 125Q98 180 136 428T174 746T159 864Q294 889 377 889Q624 889 624 684ZM519 663Q519 828 355 828Q323
828 287 822Q287 760 261 597T227 387Q343 411 427 474Q470 507 494 555T519 663Z" />
<glyph unicode="Q" glyph-name="Q" horiz-adv-x="772" d="M339 -21Q214 -21 144 80T73 336Q73 536 171 706Q218 787 295 838T467 889Q592 889 662 788T733 531Q733 288 604 119Q537 31 446 -2Q535 -51 601 -77T730 -104Q754 -104 773 -100Q773 -145 744 -175T670
-205T582 -180T470 -97T375 -19Q351 -21 339 -21ZM625 487Q625 644 567 727T406 810Q354 810 313 777T248 695T208 584Q181 481 181 380Q181 223 239 140T400 57Q452 57 493 90T558 172T598 282Q625 386 625 487Z" />
<glyph unicode="R" glyph-name="R" horiz-adv-x="654" d="M638 692Q638 512 394 401Q407 375 432 324T470 247T505 185T544 130Q590 81 637 74Q630 28 606 9T558 -10Q507 -10 463 57Q437 94 306 367Q289 361 221 343Q207 240 207 155T245 29Q214 -7 176 -7Q98
-7 98 125Q98 180 136 428T174 746T159 864Q294 889 382 889Q638 889 638 692ZM533 672Q533 753 485 790T358 828Q323 828 287 822Q287 766 274 685Q259 586 231 412Q350 436 436 494Q481 525 507 570T533 672Z" />
<glyph unicode="S" glyph-name="S" horiz-adv-x="563" d="M470 745T423 780T319 815T224 781T187 684Q187 656 191 638T215 599T253 562T322 507T424 423T505 331T533 211Q533 115 457 49T262 -17Q170 -17 101 19T32 123Q32 152 45 175T83 227Q127 49 288 49Q346
49 390 82T434 180Q434 217 425 236T411 267T391 293T368 318T337 346T303 375T260 409T213 447Q155 494 125 541T94 654Q94 765 169 827T365 889Q437 889 486 861T535 784T490 695Q470 745 423 780Z" />
<glyph unicode="T" glyph-name="T" horiz-adv-x="537" d="M540 776L385 788Q383 724 345 493T306 167T345 29Q314 -7 275 -7Q198 -7 198 125Q198 180 234 415T271 741Q271 772 270 789Q131 788 43 757Q47 822 70 845T141 869L513 865Q606 865 637 884Q633 819
611 798T540 776Z" />
<glyph unicode="U" glyph-name="U" horiz-adv-x="742" d="M252 80Q299 80 388 170T537 367Q539 380 548 441T561 526T570 596Q580 671 580 747T559 866Q569 875 589 882T625 889Q660 889 677 865T694 785T656 499T617 170T655 29Q624 -7 586 -7Q508 -7 508 125Q508
169 519 243Q451 137 366 61T223 -16Q98 -16 98 153Q98 207 131 424T165 732T144 866Q171 889 208 889T263 865T280 785T241 495T202 158Q202 80 252 80Z" />
<glyph unicode="V" glyph-name="V" horiz-adv-x="642" d="M90 889Q137 889 166 864T215 775T257 474T307 146Q332 206 409 358T535 627T584 804Q584 833 572 853Q596 889 641 889T686 840T637 678T530 452T423 219T374 40Q374 30 376 16Q360 -7 312 -7T241 12T201
87T162 384T110 725Q89 799 24 853Q33 870 53 879T90 889Z" />
<glyph unicode="W" glyph-name="W" horiz-adv-x="948" d="M92 889Q139 889 167 864T212 775T244 481T280 158Q300 209 378 384T487 645Q469 745 435 763Q448 784 472 798T522 812Q567 812 580 766Q594 712 608 481T644 159Q666 214 736 368T848 633T890 804Q890
833 878 853Q902 889 947 889T992 840T948 678T851 452T753 219T709 40Q709 26 712 16Q703 6 684 0T648 -7Q601 -7 578 12T542 77T524 184T513 345T504 493Q450 371 426 313T373 170T345 40Q345 30 347 16Q326 -7 282 -7T214 12T175 87T145 384T106 725Q88 798
24 853Q34 870 54 879T92 889Z" />
<glyph unicode="X" glyph-name="X" horiz-adv-x="638" d="M514 803Q514 824 505 838Q531 869 572 869Q618 869 618 812Q618 777 540 653T365 409Q437 270 511 171T638 51Q625 -13 568 -13T436 82T284 326Q227 244 186 166T145 60T154 18Q127 -13 86 -13Q41 -13
41 43Q41 74 103 177T251 392Q193 514 155 624T116 774T133 835T200 871Q215 716 333 472Q400 561 457 661T514 803Z" />
<glyph unicode="Y" glyph-name="Y" horiz-adv-x="552" d="M432 645T458 700T484 793T474 849Q500 885 545 885T591 837Q591 800 548 721T487 610T423 502T370 414Q335 355 326 306Q314 210 314 155Q314 69 350 29Q319 -7 281 -7T224 21T205 108T228 309Q125 823
27 823Q38 857 63 873T111 889Q171 889 208 785Q251 658 302 419Q330 476 381 560Z" />
<glyph unicode="Z" glyph-name="Z" horiz-adv-x="571" d="M238 732Q89 732 89 809Q89 852 113 884Q209 825 345 825Q402 825 452 830Q486 866 525 866Q601 866 601 789Q569 784 524 734T435 617T336 446Q262 311 150 78Q289 116 384 116T515 97T551 12Q551 1 549
-23Q494 -1 442 9T293 19T107 -1Q87 -21 64 -21Q28 -21 10 17Q97 208 397 749Q303 732 238 732Z" />
<glyph unicode="[" glyph-name="bracketleft" horiz-adv-x="392" d="M47 -49Q47 15 99 369T151 825Q151 878 136 923Q171 951 291 951T452 970Q452 913 423 887T349 861T264 882Q264 830 212 462T159 -53Q186 -53 247 -39T335 -11Q335 -53 331 -70Q318 -126 172
-126Q99 -126 73 -107T47 -49Z" />
<glyph unicode="\" glyph-name="backslash" horiz-adv-x="388" d="M29 947Q103 947 156 798Q178 734 238 439T339 29Q364 -43 413 -101Q387 -128 355 -128T299 -102T254 -15T176 337T77 753Q59 808 37 845T-24 903Q-23 926 -6 936T29 947Z" />
<glyph unicode="]" glyph-name="bracketright" horiz-adv-x="392" d="M136 861Q51 861 51 942Q51 953 56 970Q87 951 208 951T360 923Q298 832 278 295Q264 -16 208 -91Q184 -124 151 -124Q26 -124 -8 -98Q-25 -85 -29 -68T-33 -9Q9 -31 127 -47Q157 31 172 229T199
624T228 882Q181 861 136 861Z" />
<glyph unicode="^" glyph-name="asciicircum" horiz-adv-x="544" d="M233 891L232 904Q265 916 288 916Q329 916 339 873Q387 669 425 578T519 485Q508 451 484 435T437 419Q371 419 335 522Q326 549 302 648T260 812Q240 767 212 706T170 617Q138 544 138 507T149
451Q126 422 86 422Q40 422 40 473Q40 507 88 599T184 780T233 891Z" />
<glyph unicode="_" glyph-name="underscore" horiz-adv-x="452" d="M334 -86L125 -83Q52 -83 19 -100Q0 -71 0 -43Q0 10 60 10L293 0Q325 0 372 6T437 21Q452 4 452 -30Q452 -86 334 -86Z" />
<glyph unicode="`" glyph-name="grave" horiz-adv-x="309" d="M165 866T159 873T152 890T165 909T205 918T256 913Q269 890 302 860T417 768Q401 740 388 740T309 776T204 839Z" />
<glyph unicode="a" glyph-name="a" horiz-adv-x="687" d="M215 -14Q147 -14 108 53T68 237Q68 425 152 554T361 684Q446 684 502 617Q510 648 522 661T561 674T611 648Q593 600 580 487T567 277T577 126T613 30Q584 -7 545 -7Q459 -7 459 204Q459 238 467 323Q415
178 344 82T215 -14ZM365 615Q280 615 227 516T173 262Q173 183 193 138T249 92T339 170T439 360T494 563Q426 615 365 615Z" />
<glyph unicode="b" glyph-name="b" horiz-adv-x="682" d="M336 54Q417 54 463 142T510 367Q510 458 489 518T428 578T339 500T249 310T205 106Q276 54 336 54ZM112 150T140 413T169 750T165 856T148 915Q173 937 212 937T267 913T284 833T218 346Q263 492 330
588T453 684Q521 684 567 613T614 398Q614 243 550 120Q518 60 465 23T344 -14Q258 -14 198 53Q192 20 180 6T143 -8T91 18Q112 150 140 413Z" />
<glyph unicode="c" glyph-name="c" horiz-adv-x="532" d="M312 -17Q191 -17 130 60T68 259Q68 332 91 406T154 543T257 645T393 684Q532 684 532 603Q532 548 487 511Q463 558 431 583T352 609T274 585T225 525T196 444Q176 366 176 294Q176 178 216 118T331 57Q425
57 469 158Q490 136 490 102Q490 46 433 15T312 -17Z" />
<glyph unicode="d" glyph-name="d" horiz-adv-x="694" d="M506 718Q506 874 484 915Q509 937 548 937T604 912T621 831T593 584T565 292T575 133T612 30Q584 -7 544 -7Q459 -7 459 206Q459 251 467 323Q415 177 343 82T211 -14T110 48T68 237Q68 398 140 535Q174
601 232 642T368 684T502 617Q506 653 506 718ZM365 615Q277 615 225 514T173 262Q173 187 192 140T248 92T339 169T439 359T494 563Q425 615 365 615Z" />
<glyph unicode="e" glyph-name="e" horiz-adv-x="583" d="M230 281Q203 281 176 284Q177 173 217 115T331 57Q434 57 481 158Q505 135 505 102Q505 46 443 15T312 -17Q191 -17 130 60T68 259Q68 332 91 406T154 543T257 645T395 684T509 646T549 548Q549 451 460
366T230 281ZM444 556T419 582T349 609T272 584T220 517Q186 439 178 348Q202 345 223 345Q325 345 384 397T444 515Q444 556 419 582Z" />
<glyph unicode="f" glyph-name="f" horiz-adv-x="363" d="M439 967Q580 967 580 877Q580 826 534 794Q511 893 425 893Q365 893 325 833T262 630Q381 630 423 659Q415 589 383 569T249 547Q192 143 192 -50Q192 -144 230 -187Q200 -223 161 -223Q83 -223 83 -96T152
546Q77 544 39 520Q39 551 42 567T57 600Q78 630 165 630Q194 771 266 869T439 967Z" />
<glyph unicode="g" glyph-name="g" horiz-adv-x="676" d="M566 151Q566 -35 488 -144T279 -254Q239 -254 206 -248T145 -219T117 -156T153 -81Q211 -180 318 -180Q372 -180 396 -150Q411 -133 421 -115T439 -61T451 6T459 95Q463 176 467 322Q415 176 343 81T211
-14T110 48T68 237Q68 398 140 535Q174 601 232 642T368 684T502 617Q510 649 522 661T567 674T626 653Q605 617 581 556Q566 431 566 151ZM365 615Q277 615 225 514T173 262Q173 187 192 140T248 92T339 169T439 359T494 563Q425 615 365 615Z" />
<glyph unicode="h" glyph-name="h" horiz-adv-x="664" d="M209 7Q175 -7 143 -7T97 18T83 100T124 400Q193 817 144 915Q168 937 206 937T262 913T279 826T246 570T206 330Q312 584 388 650Q423 680 458 680Q574 680 574 507Q574 457 563 363T551 220Q551 79 595
29Q560 -7 525 -7Q442 -7 442 187Q442 259 458 368T475 508T463 556T421 574Q381 574 325 483T231 277T192 97T209 7Z" />
<glyph unicode="i" glyph-name="i" horiz-adv-x="332" d="M271 841Q271 816 260 780Q223 757 193 757T150 768T137 799T144 861Q181 884 213 884Q271 884 271 841ZM176 -7Q98 -7 98 125Q98 180 119 311T140 526T119 650Q144 673 180 673Q253 673 253 597Q253 573
230 410T207 158T245 29Q214 -7 176 -7Z" />
<glyph unicode="j" glyph-name="j" horiz-adv-x="328" d="M255 841Q255 817 245 780Q207 757 177 757T135 768T122 802T128 861Q166 884 198 884Q255 884 255 841ZM238 597Q238 196 180 -23Q147 -147 80 -205T-62 -263Q-119 -263 -160 -233T-201 -159T-165 -81Q-145
-126 -113 -153T-42 -180T22 -160T65 -95T95 5T114 145Q125 294 125 521Q125 614 104 650Q111 659 133 666T177 673T218 655T238 597Z" />
<glyph unicode="k" glyph-name="k" horiz-adv-x="600" d="M202 166Q202 72 240 29Q209 -7 171 -7Q93 -7 93 125Q93 174 129 417T165 766T144 915Q168 937 206 937T262 913T279 842T269 720T243 539T218 366Q314 458 384 544T463 668Q504 668 528 655T553 622Q553
589 324 376Q421 212 464 160Q524 87 585 78Q584 29 560 10T511 -10Q449 -10 374 106Q339 161 303 223T252 310L207 270Q202 207 202 166Z" />
<glyph unicode="l" glyph-name="l" horiz-adv-x="332" d="M284 779T246 523T207 169T245 29Q214 -7 176 -7Q98 -7 98 125Q98 174 133 417T169 766T148 915Q159 924 179 930T215 937Q250 937 267 913T284 834Z" />
<glyph unicode="m" glyph-name="m" horiz-adv-x="982" d="M547 7Q512 -7 480 -7T435 18T421 92T439 278T458 477T448 556T409 574Q372 574 320 483T232 276T195 97T212 7Q177 -7 145 -7T100 18T86 91T105 284T124 519T103 650Q113 660 133 666T169 673Q204 673
221 649T238 559T209 330Q309 584 381 650Q414 680 447 680Q557 680 557 507Q557 422 544 330Q671 680 781 680T892 507Q892 457 881 363T869 220Q869 79 913 29Q880 -7 844 -7Q761 -7 761 187Q761 259 777 368T793 508T783 556T743 574Q706 574 654 483T566 276T530
97T547 7Z" />
<glyph unicode="n" glyph-name="n" horiz-adv-x="667" d="M460 680Q577 680 577 507Q577 457 566 363T554 220Q554 79 598 29Q563 -7 528 -7Q445 -7 445 187Q445 259 461 368T478 508T466 556T424 574Q384 574 328 483T234 277T195 97T212 7Q177 -7 145 -7T100
18T86 91T105 284T124 519T103 650Q113 660 133 666T169 673Q204 673 221 649T238 559T209 330Q316 586 391 650Q426 680 460 680Z" />
<glyph unicode="o" glyph-name="o" horiz-adv-x="678" d="M341 609Q294 609 260 574T208 484Q176 384 176 282T218 118T335 57Q383 57 418 92T470 182Q502 285 502 386T460 548T341 609ZM286 -17Q182 -17 125 61T68 259Q68 332 91 406T154 543T257 645T393 684Q497
684 553 606T610 408Q610 285 554 175Q493 56 397 8Q345 -17 286 -17Z" />
<glyph unicode="p" glyph-name="p" horiz-adv-x="689" d="M125 516Q125 609 104 650Q114 660 134 666T170 673Q205 673 222 649T239 556T210 330Q276 499 340 591T459 684Q527 684 574 613T621 398Q621 243 556 120Q525 60 472 23T351 -14Q309 -14 261 1T183 41Q178
-16 178 -61Q178 -187 225 -235Q195 -271 157 -271Q72 -271 72 -118Q72 -76 98 141T125 516ZM432 578Q408 578 373 539T303 435T236 279T190 91Q254 54 339 54T470 142T517 367Q517 458 496 518T432 578Z" />
<glyph unicode="q" glyph-name="q" horiz-adv-x="663" d="M415 177T343 82T211 -14T110 48T68 237Q68 398 140 535Q174 601 232 642T368 684T502 617Q510 649 522 661T560 674T611 645Q587 564 553 299T519 -117Q519 -210 540 -251Q515 -274 477 -274T421 -250T404
-178T414 -50T442 142T467 323Q415 177 343 82ZM365 615Q277 615 225 514T173 262Q173 187 192 140T248 92T339 169T439 359T494 563Q425 615 365 615Z" />
<glyph unicode="r" glyph-name="r" horiz-adv-x="482" d="M176 -7Q98 -7 98 125Q98 180 119 311T140 526T119 650Q144 673 180 673Q253 673 253 597Q253 570 241 486T224 371Q278 513 345 598T457 684Q482 684 494 660T507 611T501 560Q486 563 473 563Q409 563
345 488T244 323T207 174Q207 70 245 29Q214 -7 176 -7Z" />
<glyph unicode="s" glyph-name="s" horiz-adv-x="516" d="M283 614Q241 614 216 593T191 534T215 469T299 393T372 333Q452 267 452 179T394 39T229 -13Q149 -13 96 17T42 106Q42 147 90 195Q107 123 151 88T244 52T324 76T356 139Q356 173 344 192T324 221T297
248T267 274T226 306T181 342Q98 407 98 498T160 636T330 684Q465 684 465 591Q465 547 419 511Q377 614 283 614Z" />
<glyph unicode="t" glyph-name="t" horiz-adv-x="409" d="M180 630L182 676Q182 769 161 811Q171 820 191 827T228 834Q263 834 280 810T297 729Q297 707 285 630Q408 632 448 659Q440 594 403 572T271 548Q225 265 225 123Q225 90 239 74T277 58T328 78T371 130Q389
108 389 83Q389 44 351 15T251 -15T155 17T119 120Q119 183 142 341T171 547Q82 547 39 520Q39 566 48 585T72 612Q109 630 180 630Z" />
<glyph unicode="u" glyph-name="u" horiz-adv-x="677" d="M90 153Q90 208 108 325T127 526T106 650Q131 673 166 673Q240 673 240 597Q240 572 217 405T193 159T241 80Q281 80 338 174T435 385T475 559T460 650Q486 673 521 673Q595 673 595 597Q595 542 576 428T557
249Q557 107 604 30Q574 -7 536 -7Q450 -7 450 204Q450 224 462 335Q377 134 320 60Q296 28 267 6T209 -16Q90 -16 90 153Z" />
<glyph unicode="v" glyph-name="v" horiz-adv-x="563" d="M326 15L327 2Q294 -10 271 -10Q230 -10 220 33Q138 382 92 486Q58 565 38 584T2 604Q13 638 37 654T84 670Q145 670 186 567Q209 506 302 110Q353 232 387 368T421 582Q421 611 410 630Q433 667 481 667Q527
667 527 614T469 379T343 62Q327 29 326 15Z" />
<glyph unicode="w" glyph-name="w" horiz-adv-x="871" d="M326 15L327 2Q294 -10 271 -10Q230 -10 220 33Q138 382 92 486Q58 565 38 584T2 604Q13 638 37 654T84 670Q145 670 186 567Q204 519 249 326T297 99Q393 344 414 466Q385 539 354 555Q365 576 387 590T434
604Q480 604 499 558Q517 510 560 321T605 99Q657 218 693 365T729 582Q729 611 717 630Q741 667 789 667Q834 667 834 613T777 377T651 62Q634 29 634 18T635 2Q600 -10 579 -10Q538 -10 527 33Q471 266 453 335Q401 174 343 62Q327 29 326 15Z" />
<glyph unicode="x" glyph-name="x" horiz-adv-x="557" d="M415 609Q415 626 407 640Q435 667 465 667Q517 667 517 622Q517 586 459 501T316 320Q374 215 434 141T540 51Q527 -10 464 -10Q420 -10 362 58T243 234Q147 97 147 48Q147 31 155 18Q127 -9 97 -9Q45
-9 45 35Q45 66 92 139T210 296Q161 391 127 476T93 592T112 637T183 670Q195 558 285 379Q327 432 371 502T415 609Z" />
<glyph unicode="y" glyph-name="y" horiz-adv-x="563" d="M421 582Q421 611 410 630Q433 667 481 667Q527 667 527 616Q527 566 486 413T403 154T311 -44T194 -195T55 -254Q-83 -254 -83 -161Q-83 -118 -51 -81Q-24 -170 68 -170Q178 -170 271 22Q241 22 228 33T209
66Q133 386 89 494T2 604Q13 638 37 654T84 670Q145 670 186 567Q213 497 303 94Q356 226 388 365T421 582Z" />
<glyph unicode="z" glyph-name="z" horiz-adv-x="523" d="M208 548Q80 548 80 614Q80 647 100 680Q191 630 306 630Q352 630 371 632Q406 673 448 673Q514 673 519 606Q424 600 157 81Q261 105 338 105T446 88T477 13Q477 -7 476 -18Q427 1 383 10T258 19T119
9Q98 -16 66 -16T18 13Q58 93 161 278T322 558Q245 548 208 548Z" />
<glyph unicode="{" glyph-name="braceleft" horiz-adv-x="392" d="M145 424Q200 373 200 274Q200 222 180 122T159 -53Q186 -53 247 -39T335 -11Q335 -53 331 -70Q318 -126 172 -126Q120 -126 97 -117T65 -92T56 -39T87 118T118 296T94 396Q79 391 70 391Q53 391
46 422Q165 507 165 696Q165 731 158 787T150 874T184 928T292 951Q412 951 452 970Q452 913 423 887T349 861T264 882Q255 609 218 520Q193 459 145 424Z" />
<glyph unicode="|" glyph-name="bar" horiz-adv-x="346" d="M259 947T273 921T287 835T240 483T193 78T230 -85Q215 -128 172 -128Q98 -128 98 21Q98 86 142 380T187 774T167 919Q176 930 196 938T230 947Q259 947 273 921Z" />
<glyph unicode="}" glyph-name="braceright" horiz-adv-x="392" d="M230 425Q172 468 172 591Q172 670 209 882Q162 861 123 861T59 880T34 940Q34 954 37 970Q73 951 196 951T320 882Q320 869 304 824Q256 687 256 596Q256 480 331 422Q316 391 299 391Q288 391
275 397Q250 366 238 328T224 265T222 197L227 30Q227 -76 188 -104Q168 -118 147 -122T89 -126Q-60 -126 -60 -67Q-60 -53 -50 -11Q-26 -25 32 -39T118 -53Q131 18 131 118T144 273Q168 373 230 425Z" />
<glyph unicode="~" glyph-name="asciitilde" horiz-adv-x="544" d="M472 472Q472 425 438 386T355 346Q297 346 258 382T192 418Q137 418 125 345Q73 345 73 380Q73 427 107 466T190 506Q248 506 287 470T353 434Q408 434 420 507Q472 507 472 472Z" />
<glyph unicode="&#xa0;" glyph-name="nbspace" horiz-adv-x="333" />
<glyph unicode="&#xa1;" glyph-name="exclamdown" horiz-adv-x="388" d="M141 586Q141 613 153 655Q197 683 231 683T280 670T295 631T287 563Q244 536 207 536Q141 536 141 586ZM108 -218T91 -194T73 -115T114 142T155 392Q155 402 152 411Q172 427 200 427Q235
427 235 386Q235 383 214 196T193 -72T215 -195Q204 -204 183 -211T145 -218Q108 -218 91 -194Z" />
<glyph unicode="&#xa2;" glyph-name="cent" horiz-adv-x="532" d="M382 791L393 792Q532 792 532 711Q532 659 487 619Q445 703 375 716Q368 626 358 422T344 165Q428 173 469 266Q490 243 490 210Q490 160 444 130T339 93Q335 46 332 27Q311 -105 239 -105Q209
-105 205 -69Q250 -26 265 68L269 95Q168 109 118 182T68 376T133 616T306 776Q309 848 316 893Q332 986 388 986Q418 986 430 963Q401 922 387 829Q383 808 382 791ZM176 402Q176 215 277 175Q281 221 302 710Q254 691 224 629T185 510T176 402Z" />
<glyph unicode="&#xa3;" glyph-name="sterling" horiz-adv-x="669" d="M95 376Q76 406 76 432Q76 478 132 478Q138 478 176 476Q175 507 175 571Q175 713 237 800T409 887T567 844T615 746Q615 681 537 663Q530 817 403 817Q335 817 309 764T282 584Q282 545 278
469Q328 467 347 467T408 473T465 488Q480 469 480 442Q480 391 374 391Q316 391 275 392V352Q275 296 273 261T256 175T214 79Q344 116 435 116T563 99T599 21Q599 10 597 -14Q550 5 498 12T336 19T153 1Q134 -16 117 -16Q80 -16 62 21Q129 89 155 156T182 299Q182
330 180 394Q121 392 95 376Z" />
<glyph unicode="&#xa4;" glyph-name="currency" horiz-adv-x="626" d="M389 245Q341 213 284 213T190 242Q133 197 118 154Q94 155 72 174T50 213T71 254T141 315Q132 345 132 382Q132 473 181 546Q147 593 124 615T70 649Q71 673 90 695T130 717T174 693T243
609Q291 641 348 641T442 611Q474 638 489 661T506 716Q537 716 561 702T586 658Q586 613 490 536Q500 503 500 471Q500 381 452 309Q483 270 507 252T566 233Q566 202 552 178T508 153Q464 153 389 245ZM407 447Q407 569 328 569Q278 569 251 512T224 406Q224
284 303 284Q353 284 380 341T407 447Z" />
<glyph unicode="&#xa5;" glyph-name="yen" horiz-adv-x="552" d="M48 244T65 254T108 265T220 260L228 309L214 377Q203 378 189 378Q117 378 85 360Q64 389 64 414Q64 461 125 461Q130 461 155 460T196 459Q111 823 27 823Q38 857 63 873T111 889Q171 889 208
785Q251 658 302 419Q330 476 381 560T458 700T484 793T474 849Q500 885 545 885T591 837Q591 785 462 568Q440 531 393 453Q466 457 492 472Q509 452 509 427T475 388T348 375Q326 329 320 255Q438 255 476 276Q493 256 493 230Q493 178 376 178Q341 178 314 179Q314
121 321 87T350 29Q319 -7 281 -7T224 21T205 118Q205 148 209 181Q193 182 173 182Q101 182 69 164Q48 193 48 218Z" />
<glyph unicode="&#xa6;" glyph-name="brokenbar" horiz-adv-x="346" d="M287 845Q287 773 279 718T261 610T248 533Q172 533 172 590L180 657Q187 724 187 799T167 919Q176 930 196 938T230 947Q287 947 287 845ZM193 65Q193 -37 230 -85Q215 -128 172 -128Q98
-128 98 21Q98 100 131 307Q180 307 204 267L207 264Q193 136 193 65Z" />
<glyph unicode="&#xa7;" glyph-name="section" horiz-adv-x="563" d="M463 731T427 773T331 815T231 776T192 665Q192 610 220 576Q252 539 275 524L402 410Q448 369 461 331T475 210L211 447Q174 480 154 501T116 560T97 637Q97 755 178 822T385 889Q448 889
489 857T530 773Q530 736 522 720T510 696T497 680T485 669T472 660T463 654Q463 731 427 773ZM488 -25Q488 -130 407 -202T200 -274Q110 -274 45 -240T-20 -140Q-20 -93 39 -30Q68 -208 230 -208Q291 -208 338 -172T386 -64Q386 29 312 96L185 210Q139 251 126
289T112 410L376 173Q434 121 461 79T488 -25Z" />
<glyph unicode="&#xa8;" glyph-name="dieresis" horiz-adv-x="378" d="M139 841Q139 821 128 780Q91 757 61 757T18 768T5 803T12 861Q49 884 81 884Q139 884 139 841ZM373 841Q373 816 362 780Q325 757 295 757T252 768T239 799T246 861Q284 884 315 884Q373
884 373 841Z" />
<glyph unicode="&#xa9;" glyph-name="copyright" horiz-adv-x="780" d="M428 822Q465 822 488 809T512 768T479 713Q452 774 402 774Q371 774 349 751T315 691Q294 622 294 564Q294 402 393 402Q450 402 474 475Q495 451 495 427T459 379T379 356Q304 356 267
407T230 532T251 670T319 777T428 822ZM635 630Q635 768 583 836T421 904Q364 904 316 876T237 806T184 714Q145 621 145 541Q145 403 196 335T357 267Q414 267 463 295T542 365T595 458Q635 549 635 630ZM326 210Q203 210 135 295T67 507Q67 670 162 810Q208 877
284 919T454 962Q577 962 645 877T713 664Q713 534 652 418Q583 288 466 238Q401 210 326 210Z" />
<glyph unicode="&#xaa;" glyph-name="ordfeminine" horiz-adv-x="474" d="M298 607H293Q263 540 227 498T161 456Q118 456 93 497T68 609Q68 722 119 799T246 876Q291 876 326 843Q335 870 358 870T399 851Q389 822 381 755T373 611T400 487Q379 460 354 460Q298
460 298 607ZM180 529Q212 529 259 622T317 797Q278 825 248 825Q201 825 171 769T141 623Q141 579 151 554T180 529Z" />
<glyph unicode="&#xab;" glyph-name="guillemotleft" horiz-adv-x="513" d="M132 561T152 582T214 604T275 588Q244 572 227 538T204 470T184 403T142 354Q168 340 178 307T188 242L187 236Q187 204 198 170T239 120Q220 104 182 104T126 119T105 159T101 213T98
270T83 320T40 354Q74 366 92 396T115 461T126 528ZM332 561T352 582T414 604T475 588Q444 572 427 538T404 470T384 403T342 354Q368 340 378 307T388 242L387 236Q387 204 398 170T439 120Q420 104 382 104T326 119T305 159T301 213T298 270T283 320T240 354Q274
366 292 396T315 461T326 528Z" />
<glyph unicode="&#xac;" glyph-name="logicalnot" horiz-adv-x="544" d="M383 386L174 389Q101 389 68 372Q49 400 49 437Q49 457 65 469T109 482L342 472Q374 472 421 478T486 493Q501 476 501 442Q501 434 494 390T486 296T515 212Q489 182 457 182Q395 182
395 280Q395 331 412 387Q403 386 383 386Z" />
<glyph unicode="&#xae;" glyph-name="registered" horiz-adv-x="780" d="M522 713Q522 621 401 565Q447 467 466 443Q488 410 522 407Q519 378 505 367T478 355Q449 355 425 390L347 544Q339 541 313 534Q305 483 305 443T326 379Q306 356 285 356Q241 356 241
428Q241 464 260 577T279 731T271 803Q340 816 389 816Q522 816 522 713ZM460 703Q460 777 376 777Q370 777 346 775Q345 734 319 578Q379 592 419 622T460 703ZM635 630Q635 768 583 836T421 904Q364 904 316 876T237 806T184 714Q145 621 145 541Q145 403 196
335T357 267Q414 267 463 295T542 365T595 458Q635 549 635 630ZM326 210Q203 210 135 295T67 507Q67 670 162 810Q208 877 284 919T454 962Q577 962 645 877T713 664Q713 534 652 418Q583 288 466 238Q401 210 326 210Z" />
<glyph unicode="&#xaf;" glyph-name="overscore" horiz-adv-x="400" d="M256 777L166 781Q114 781 85 766Q64 793 64 829T120 865L265 855Q304 855 336 874Q350 857 350 829Q350 777 256 777Z" />
<glyph unicode="&#xb0;" glyph-name="degree" horiz-adv-x="391" d="M231 919Q208 919 191 901T166 855Q149 801 149 749Q149 648 215 648Q245 648 265 680Q298 733 298 817Q298 919 231 919ZM251 974Q285 974 332 946Q357 930 374 895T391 812Q391 713 333 653T201
592Q166 592 120 621Q94 637 77 672T60 756Q60 854 118 914T251 974Z" />
<glyph unicode="&#xb1;" glyph-name="plusminus" horiz-adv-x="544" d="M109 482L236 476Q246 542 246 576T232 640Q254 658 287 658Q337 658 337 586Q337 570 324 472H342Q374 472 421 478T486 493Q501 476 501 442Q501 386 383 386H312Q307 344 307 319Q307
269 336 235Q310 205 278 205Q216 205 216 303Q216 344 222 388Q200 389 174 389Q101 389 68 372Q49 400 49 437Q49 457 65 469T109 482ZM383 -14L174 -11Q101 -11 68 -28Q49 1 49 29Q49 82 109 82L342 72Q374 72 421 78T486 93Q501 76 501 42Q501 -14 383 -14Z"
/>
<glyph unicode="&#xb2;" glyph-name="twosuperior" horiz-adv-x="397" d="M335 827Q335 757 271 670Q228 611 146 516Q203 528 244 528T307 517T329 467Q329 458 326 435Q273 456 196 456T85 448Q72 437 61 437Q33 437 20 469Q187 650 232 742Q253 786 253 816T235
865T183 885Q122 885 110 799Q80 810 68 821T55 850Q55 887 89 914T193 942T299 911T335 827Z" />
<glyph unicode="&#xb3;" glyph-name="threesuperior" horiz-adv-x="403" d="M98 691Q98 711 103 716T129 725Q182 732 211 760T240 817T223 865T177 885Q120 885 105 816Q76 827 65 838T54 870T86 917T186 942T288 911T322 822T251 714Q330 687 330 606Q330 552
286 498Q264 471 225 454T136 437T54 463T21 522Q21 549 75 571Q91 496 149 496Q194 496 220 527T247 592T228 649T168 676Q135 669 98 666V691Z" />
<glyph unicode="&#xb4;" glyph-name="acute" horiz-adv-x="309" d="M144 740Q131 740 117 768Q197 828 230 858T277 913Q301 918 327 918T367 910T381 891T375 873T330 839T225 776T144 740Z" />
<glyph unicode="&#xb5;" glyph-name="mu" horiz-adv-x="677" d="M202 673T221 655T240 604T215 385T189 175Q189 80 241 80Q281 80 338 174T435 385T475 559T460 650Q486 673 521 673Q595 673 595 597Q595 542 576 428T557 249Q557 107 604 30Q574 -7 536 -7Q450
-7 450 204Q450 224 462 335Q377 134 320 60Q296 28 267 6T213 -16T176 -1Q175 -21 175 -61Q175 -182 227 -235Q197 -271 159 -271Q74 -271 74 -118Q74 -67 100 170T127 509T106 650Q131 673 166 673Z" />
<glyph unicode="&#xb6;" glyph-name="paragraph" horiz-adv-x="567" d="M523 576T535 564T547 529T504 464T394 394Q350 -27 341 -72Q314 -204 226 -204Q202 -204 184 -192T165 -158Q230 -136 250 -34T301 371Q288 369 263 369Q152 369 94 430T35 581Q35 695 125
789Q168 834 235 862T378 890T489 864Q458 825 443 750T404 486Q472 534 492 588Q523 576 535 564ZM140 602Q140 535 176 487T280 439Q289 439 307 441Q332 713 336 733Q348 801 377 833Q264 826 202 759T140 602Z" />
<glyph unicode="&#xb7;" glyph-name="middot" horiz-adv-x="295" d="M188 465T206 453T225 413T212 346Q168 318 134 318T85 331T71 369T79 438Q121 465 154 465Z" />
<glyph unicode="&#xb8;" glyph-name="cedilla" horiz-adv-x="500" d="M267 -76T294 -95T321 -156T285 -235T174 -272Q135 -272 111 -255T86 -216Q86 -191 137 -172Q139 -194 152 -208T189 -223T228 -203T244 -158Q244 -119 204 -113L152 -105Q139 -103 139 -98T177
0H229L202 -69Q267 -76 294 -95Z" />
<glyph unicode="&#xb9;" glyph-name="onesuperior" horiz-adv-x="349" d="M255 847T235 720T214 544T238 471Q213 442 187 442Q136 442 136 523Q136 556 155 677T175 839Q129 781 95 781Q79 781 67 790T38 833Q72 841 98 860T138 897Q172 942 209 942Q232 942
243 927T255 880Z" />
<glyph unicode="&#xba;" glyph-name="ordmasculine" horiz-adv-x="465" d="M234 821Q208 821 189 801T160 750Q143 694 143 636T166 544T230 509Q256 509 275 529T304 580Q323 640 323 696T300 787T234 821ZM202 454Q138 454 103 501T68 621Q68 715 123 795T264
876Q328 876 362 829T397 699T342 535T202 454Z" />
<glyph unicode="&#xbb;" glyph-name="guillemotright" horiz-adv-x="513" d="M381 147T361 126T299 104T238 120Q269 136 286 170T309 238T329 305T371 354Q345 368 335 401T325 466L326 472Q326 504 315 538T274 588Q293 604 331 604T387 589T408 549T412 495T415
438T430 388T473 354Q439 342 421 312T398 247T387 180ZM181 147T161 126T99 104T38 120Q69 136 86 170T109 238T129 305T171 354Q145 368 135 401T125 466L126 472Q126 504 115 538T74 588Q93 604 131 604T187 589T208 549T212 495T215 438T230 388T273 354Q239
342 221 312T198 247T187 180Z" />
<glyph unicode="&#xbc;" glyph-name="onequarter" horiz-adv-x="901" d="M561 845L560 864Q594 887 620 887Q665 887 665 845Q665 820 649 774T511 488T354 147Q334 87 334 59T345 10Q302 -26 278 -26Q229 -26 229 23Q229 52 247 106T384 400T531 725T561 845ZM291
791T271 664T250 488T274 415Q249 386 223 386Q172 386 172 467Q172 500 191 621T211 783Q165 725 131 725Q115 725 103 734T74 777Q108 785 134 804T174 841Q208 886 245 886Q268 886 279 871T291 824ZM744 429Q744 380 705 296T609 133Q663 145 720 147Q723 164
723 182T712 224Q736 240 760 240Q804 240 804 191Q804 174 797 139Q828 127 828 92Q828 89 828 76T827 59Q809 67 785 73Q783 51 783 46Q783 24 807 1Q780 -25 754 -25Q704 -25 704 38Q704 60 707 82H671Q604 82 561 73Q550 62 537 62Q510 62 495 94Q556 160 608
256T660 422Q660 432 653 448Q684 474 705 474T735 465T744 429Z" />
<glyph unicode="&#xbd;" glyph-name="onehalf" horiz-adv-x="901" d="M561 845L560 864Q594 887 620 887Q665 887 665 845Q665 820 649 774T511 488T354 147Q334 87 334 59T345 10Q302 -26 278 -26Q229 -26 229 23Q229 52 247 106T384 400T531 725T561 845ZM291
791T271 664T250 488T274 415Q249 386 223 386Q172 386 172 467Q172 500 191 621T211 783Q165 725 131 725Q115 725 103 734T74 777Q108 785 134 804T174 841Q208 886 245 886Q268 886 279 871T291 824ZM851 359Q851 289 787 202Q744 143 662 48Q719 60 760 60T823
49T845 -1Q845 -11 842 -33Q790 -12 712 -12T601 -20Q588 -31 577 -31Q549 -31 536 1Q703 182 748 274Q769 318 769 348T751 397T699 417Q638 417 626 331Q596 342 584 353T571 382Q571 419 605 446T709 474T815 443T851 359Z" />
<glyph unicode="&#xbe;" glyph-name="threequarters" horiz-adv-x="901" d="M595 845L594 864Q628 887 654 887Q699 887 699 845Q699 820 683 774T545 488T388 147Q368 87 368 59T379 10Q336 -26 312 -26Q263 -26 263 23Q263 52 281 106T418 400T565 725T595 845ZM134
635Q134 655 139 660T165 669Q218 676 247 704T276 761T259 809T213 829Q156 829 141 760Q112 771 101 782T90 814T122 861T222 886T324 855T358 766T287 658Q366 631 366 550Q366 496 322 442Q300 415 261 398T172 381T90 407T57 466Q57 493 111 515Q127 440 185
440Q230 440 256 471T283 536T264 593T204 620Q171 613 134 610V635ZM744 429Q744 380 705 296T609 133Q663 145 720 147Q723 164 723 182T712 224Q736 240 760 240Q804 240 804 191Q804 174 797 139Q828 127 828 92Q828 89 828 76T827 59Q809 67 785 73Q783 51
783 46Q783 24 807 1Q780 -25 754 -25Q704 -25 704 38Q704 60 707 82H671Q604 82 561 73Q550 62 537 62Q510 62 495 94Q556 160 608 256T660 422Q660 432 653 448Q684 474 705 474T735 465T744 429Z" />
<glyph unicode="&#xbf;" glyph-name="questiondown" horiz-adv-x="457" d="M11 -22Q11 123 230 397Q257 433 283 433T324 403Q259 320 194 199T128 -5Q128 -64 160 -105T250 -147Q371 -147 371 23Q452 -13 452 -75T392 -177T233 -217T73 -166T11 -22ZM216 587Q216
614 228 656Q272 684 306 684T355 671T370 632T362 564Q319 537 282 537Q216 537 216 587Z" />
<glyph unicode="&#xc0;" glyph-name="Agrave" horiz-adv-x="657" d="M667 29Q651 -7 603 -7T527 18T481 101T451 255H158Q107 140 107 77Q107 48 119 29Q95 -7 50 -7T5 43Q5 71 22 125T151 410T289 723T317 830T314 866Q347 889 386 889T448 870T489 794T529 497T581
156Q602 82 667 29ZM386 737Q363 683 291 537T188 323H444Q439 386 428 487T412 616Q400 687 386 737ZM298 1037T292 1044T285 1061T298 1080T338 1089T389 1084Q402 1061 435 1031T550 939Q534 911 521 911T442 947T337 1010Z" />
<glyph unicode="&#xc1;" glyph-name="Aacute" horiz-adv-x="657" d="M386 737Q363 683 291 537T188 323H444Q439 386 428 487T412 616Q400 687 386 737ZM311 911Q298 911 284 939Q364 999 397 1029T444 1084Q468 1089 494 1089T534 1081T548 1062T542 1044T497
1010T392 947T311 911ZM667 29Q651 -7 603 -7T527 18T481 101T451 255H158Q107 140 107 77Q107 48 119 29Q95 -7 50 -7T5 43Q5 71 22 125T151 410T289 723T317 830T314 866Q347 889 386 889T448 870T489 794T529 497T581 156Q602 82 667 29Z" />
<glyph unicode="&#xc2;" glyph-name="Acircumflex" horiz-adv-x="657" d="M386 737Q363 683 291 537T188 323H444Q439 386 428 487T412 616Q400 687 386 737ZM537 911Q515 911 401 1002Q270 911 242 911Q231 911 215 939Q309 1009 340 1050Q350 1064 361 1084Q378
1089 409 1089T455 1078Q456 1077 463 1065T479 1041T500 1012Q534 967 564 939Q550 911 537 911ZM667 29Q651 -7 603 -7T527 18T481 101T451 255H158Q107 140 107 77Q107 48 119 29Q95 -7 50 -7T5 43Q5 71 22 125T151 410T289 723T317 830T314 866Q347 889 386
889T448 870T489 794T529 497T581 156Q602 82 667 29Z" />
<glyph unicode="&#xc3;" glyph-name="Atilde" horiz-adv-x="657" d="M386 737Q363 683 291 537T188 323H444Q439 386 428 487T412 616Q400 687 386 737ZM583 1042Q583 999 554 963T489 927T427 943T381 976T342 993T309 976T290 926Q246 926 246 958Q246 1001
275 1037T340 1073T402 1057T448 1024T487 1007T520 1024T539 1074Q583 1074 583 1042ZM667 29Q651 -7 603 -7T527 18T481 101T451 255H158Q107 140 107 77Q107 48 119 29Q95 -7 50 -7T5 43Q5 71 22 125T151 410T289 723T317 830T314 866Q347 889 386 889T448 870T489
794T529 497T581 156Q602 82 667 29Z" />
<glyph unicode="&#xc4;" glyph-name="Adieresis" horiz-adv-x="657" d="M350 1012Q350 992 339 951Q302 928 272 928T229 939T216 974T223 1032Q260 1055 292 1055Q350 1055 350 1012ZM584 1012Q584 987 573 951Q536 928 506 928T463 939T450 970T457 1032Q495
1055 526 1055Q584 1055 584 1012ZM667 29Q651 -7 603 -7T527 18T481 101T451 255H158Q107 140 107 77Q107 48 119 29Q95 -7 50 -7T5 43Q5 71 22 125T151 410T289 723T317 830T314 866Q347 889 386 889T448 870T489 794T529 497T581 156Q602 82 667 29ZM386 737Q363
683 291 537T188 323H444Q439 386 428 487T412 616Q400 687 386 737Z" />
<glyph unicode="&#xc5;" glyph-name="Aring" horiz-adv-x="657" d="M434 1145Q454 1145 474 1135T508 1114Q537 1086 537 1030T505 933T427 882Q466 869 490 793Q507 739 529 498T581 156Q602 82 667 29Q651 -7 603 -7T527 18T481 101T451 255H158Q107 140 107
77Q107 48 119 29Q95 -7 50 -7T5 43Q5 71 22 125T151 410T289 723T317 830T314 866Q336 881 361 887Q294 913 294 993Q294 1061 337 1103T434 1145ZM386 737Q363 683 291 537T188 323H444Q439 386 428 487T412 616Q400 687 386 737ZM419 1099Q392 1099 380 1064T367
990Q367 926 409 926Q436 926 448 961T461 1034Q461 1099 419 1099Z" />
<glyph unicode="&#xc6;" glyph-name="AE" horiz-adv-x="874" d="M530 867L755 865Q875 865 915 884Q910 819 884 798T800 776Q706 776 565 798Q565 724 528 508Q517 443 514 422Q705 428 779 466Q773 388 734 368Q713 358 694 356T641 353H503Q480 194 480 112Q480
101 482 83Q562 79 619 79Q808 79 857 105Q854 65 844 41T809 6T763 -7T690 -10T495 11Q466 -8 440 -8Q368 -8 368 89Q368 155 402 353H182Q56 146 56 64Q56 44 63 29Q37 -7 -8 -7Q-28 -7 -38 5T-49 49Q-49 112 20 229T182 487T309 707T344 836Q390 867 530 867ZM452
741Q452 786 443 810Q435 758 364 642Q320 571 279 508T224 421H414Q452 638 452 741Z" />
<glyph unicode="&#xc7;" glyph-name="Ccedilla" horiz-adv-x="608" d="M365 -21L351 -20L332 -69Q397 -76 424 -95T451 -156T415 -235T304 -272Q265 -272 241 -255T216 -216Q216 -191 267 -172Q269 -194 282 -208T319 -223T358 -203T374 -158Q374 -119 334 -113L282
-105Q269 -103 269 -97T300 -15Q188 6 133 101T78 336Q78 498 140 638Q208 792 326 854Q389 887 460 887T574 863T618 793Q618 768 609 747T591 716T567 693Q542 750 506 780T414 810T318 777T253 695T213 585Q186 482 186 382Q186 221 238 135T393 49Q449 49 492
84T559 186Q584 158 584 117Q584 65 517 22T365 -21Z" />
<glyph unicode="&#xc8;" glyph-name="Egrave" horiz-adv-x="602" d="M321 867L483 865Q603 865 643 884Q638 819 612 798T528 776Q434 776 293 798Q293 731 251 479Q447 481 507 512Q501 433 462 414Q441 403 422 401T376 398T239 407Q208 208 208 112Q208 92
209 83Q291 79 347 79Q536 79 585 105Q582 65 572 41T537 6T491 -7T419 -10T222 11Q195 -8 168 -8Q96 -8 96 89Q96 152 141 412Q125 413 90 413Q95 450 106 462T152 478Q180 655 180 724T165 839Q200 867 321 867ZM292 1037T286 1044T279 1061T292 1080T332 1089T383
1084Q396 1061 429 1031T544 939Q528 911 515 911T436 947T331 1010Z" />
<glyph unicode="&#xc9;" glyph-name="Eacute" horiz-adv-x="602" d="M321 867L483 865Q603 865 643 884Q638 819 612 798T528 776Q434 776 293 798Q293 731 251 479Q447 481 507 512Q501 433 462 414Q441 403 422 401T376 398T239 407Q208 208 208 112Q208 92
209 83Q291 79 347 79Q536 79 585 105Q582 65 572 41T537 6T491 -7T419 -10T222 11Q195 -8 168 -8Q96 -8 96 89Q96 152 141 412Q125 413 90 413Q95 450 106 462T152 478Q180 655 180 724T165 839Q200 867 321 867ZM306 911Q293 911 279 939Q359 999 392 1029T439
1084Q463 1089 489 1089T529 1081T543 1062T537 1044T492 1010T387 947T306 911Z" />
<glyph unicode="&#xca;" glyph-name="Ecircumflex" horiz-adv-x="602" d="M321 867L483 865Q603 865 643 884Q638 819 612 798T528 776Q434 776 293 798Q293 731 251 479Q447 481 507 512Q501 433 462 414Q441 403 422 401T376 398T239 407Q208 208 208 112Q208
92 209 83Q291 79 347 79Q536 79 585 105Q582 65 572 41T537 6T491 -7T419 -10T222 11Q195 -8 168 -8Q96 -8 96 89Q96 152 141 412Q125 413 90 413Q95 450 106 462T152 478Q180 655 180 724T165 839Q200 867 321 867ZM544 911Q522 911 408 1002Q277 911 249 911Q238
911 222 939Q315 1009 346 1050Q357 1064 368 1084Q385 1089 416 1089T462 1078Q463 1077 470 1065T486 1041T508 1012Q541 967 571 939Q557 911 544 911Z" />
<glyph unicode="&#xcb;" glyph-name="Edieresis" horiz-adv-x="602" d="M321 867L483 865Q603 865 643 884Q638 819 612 798T528 776Q434 776 293 798Q293 731 251 479Q447 481 507 512Q501 433 462 414Q441 403 422 401T376 398T239 407Q208 208 208 112Q208
92 209 83Q291 79 347 79Q536 79 585 105Q582 65 572 41T537 6T491 -7T419 -10T222 11Q195 -8 168 -8Q96 -8 96 89Q96 152 141 412Q125 413 90 413Q95 450 106 462T152 478Q180 655 180 724T165 839Q200 867 321 867ZM373 1012Q373 992 362 951Q325 928 295 928T252
939T239 974T246 1032Q283 1055 315 1055Q373 1055 373 1012ZM607 1012Q607 987 596 951Q559 928 529 928T486 939T473 970T480 1032Q518 1055 549 1055Q607 1055 607 1012Z" />
<glyph unicode="&#xcc;" glyph-name="Igrave" horiz-adv-x="332" d="M284 730T246 499T207 169T245 29Q214 -7 176 -7Q98 -7 98 125Q98 180 133 410T169 732T148 866Q175 889 212 889T267 865T284 785ZM104 1037T98 1044T91 1061T104 1080T144 1089T195 1084Q208
1061 241 1031T356 939Q340 911 327 911T248 947T143 1010Z" />
<glyph unicode="&#xcd;" glyph-name="Iacute" horiz-adv-x="332" d="M284 730T246 499T207 169T245 29Q214 -7 176 -7Q98 -7 98 125Q98 180 133 410T169 732T148 866Q175 889 212 889T267 865T284 785ZM116 911Q103 911 89 939Q169 999 202 1029T249 1084Q273
1089 299 1089T339 1081T353 1062T347 1044T302 1010T197 947T116 911Z" />
<glyph unicode="&#xce;" glyph-name="Icircumflex" horiz-adv-x="332" d="M284 730T246 499T207 169T245 29Q214 -7 176 -7Q98 -7 98 125Q98 180 133 410T169 732T148 866Q175 889 212 889T267 865T284 785ZM357 911Q335 911 221 1002Q90 911 62 911Q51 911 35
939Q128 1009 160 1050Q170 1064 181 1084Q198 1089 229 1089T275 1078Q276 1077 283 1065T299 1041T320 1012Q354 967 384 939Q370 911 357 911Z" />
<glyph unicode="&#xcf;" glyph-name="Idieresis" horiz-adv-x="332" d="M199 1012Q199 992 188 951Q151 928 121 928T78 939T65 974T72 1032Q109 1055 141 1055Q199 1055 199 1012ZM433 1012Q433 987 422 951Q385 928 355 928T312 939T299 970T306 1032Q344 1055
375 1055Q433 1055 433 1012ZM284 730T246 499T207 169T245 29Q214 -7 176 -7Q98 -7 98 125Q98 180 133 410T169 732T148 866Q175 889 212 889T267 865T284 785Z" />
<glyph unicode="&#xd0;" glyph-name="Eth" horiz-adv-x="730" d="M63 376Q44 406 44 432Q44 478 100 478Q105 478 145 476Q174 671 174 740T159 854Q278 880 373 880Q528 880 609 807T691 569T642 276T499 68T283 -11Q184 -11 141 19T98 117T132 393Q85 389 63
376ZM229 393Q207 247 207 181T215 85Q257 59 320 59T440 103T526 218Q586 358 586 521T537 751T364 819Q326 819 288 812Q288 761 240 469Q294 467 314 467T376 473T433 488Q448 469 448 442Q448 391 342 391Q317 391 229 393Z" />
<glyph unicode="&#xd1;" glyph-name="Ntilde" horiz-adv-x="769" d="M721 730T683 499T644 171T685 29Q671 -7 623 -7T542 18T477 107T372 394T259 707Q258 698 223 479T187 166T226 29Q212 -7 171 -7Q98 -7 98 125Q98 180 133 410T169 732T148 866Q153 875 172
882T224 889T284 869T339 794T439 510T558 180Q562 219 594 432T626 735T605 866Q613 875 632 882T665 889Q694 889 707 865T721 786ZM637 1042Q637 999 608 963T543 927T481 943T435 976T396 993T363 976T344 926Q300 926 300 958Q300 1001 329 1037T394 1073T456
1057T502 1024T541 1007T574 1024T593 1074Q637 1074 637 1042Z" />
<glyph unicode="&#xd2;" glyph-name="Ograve" horiz-adv-x="782" d="M630 487Q630 644 572 727T411 810Q359 810 318 777T253 695T213 584Q186 481 186 380Q186 223 244 140T405 57Q457 57 498 90T563 172T603 282Q630 386 630 487ZM344 -21Q219 -21 149 80T78
336Q78 536 176 706Q223 787 300 838T472 889Q597 889 667 788T738 531Q738 370 674 229Q604 73 486 12Q420 -21 344 -21ZM357 1037T351 1044T344 1061T357 1080T397 1089T448 1084Q461 1061 494 1031T609 939Q593 911 580 911T501 947T396 1010Z" />
<glyph unicode="&#xd3;" glyph-name="Oacute" horiz-adv-x="782" d="M630 487Q630 644 572 727T411 810Q359 810 318 777T253 695T213 584Q186 481 186 380Q186 223 244 140T405 57Q457 57 498 90T563 172T603 282Q630 386 630 487ZM344 -21Q219 -21 149 80T78
336Q78 536 176 706Q223 787 300 838T472 889Q597 889 667 788T738 531Q738 370 674 229Q604 73 486 12Q420 -21 344 -21ZM367 911Q354 911 340 939Q420 999 453 1029T500 1084Q524 1089 550 1089T590 1081T604 1062T598 1044T553 1010T448 947T367 911Z" />
<glyph unicode="&#xd4;" glyph-name="Ocircumflex" horiz-adv-x="782" d="M630 487Q630 644 572 727T411 810Q359 810 318 777T253 695T213 584Q186 481 186 380Q186 223 244 140T405 57Q457 57 498 90T563 172T603 282Q630 386 630 487ZM344 -21Q219 -21 149
80T78 336Q78 536 176 706Q223 787 300 838T472 889Q597 889 667 788T738 531Q738 370 674 229Q604 73 486 12Q420 -21 344 -21ZM611 911Q589 911 475 1002Q344 911 316 911Q305 911 289 939Q383 1009 414 1050Q424 1064 435 1084Q452 1089 483 1089T529 1078Q530
1077 537 1065T553 1041T574 1012Q608 967 638 939Q624 911 611 911Z" />
<glyph unicode="&#xd5;" glyph-name="Otilde" horiz-adv-x="782" d="M630 487Q630 644 572 727T411 810Q359 810 318 777T253 695T213 584Q186 481 186 380Q186 223 244 140T405 57Q457 57 498 90T563 172T603 282Q630 386 630 487ZM344 -21Q219 -21 149 80T78
336Q78 536 176 706Q223 787 300 838T472 889Q597 889 667 788T738 531Q738 370 674 229Q604 73 486 12Q420 -21 344 -21ZM643 1042Q643 999 614 963T549 927T487 943T441 976T402 993T369 976T350 926Q306 926 306 958Q306 1001 335 1037T400 1073T462 1057T508
1024T547 1007T580 1024T599 1074Q643 1074 643 1042Z" />
<glyph unicode="&#xd6;" glyph-name="Odieresis" horiz-adv-x="782" d="M630 487Q630 644 572 727T411 810Q359 810 318 777T253 695T213 584Q186 481 186 380Q186 223 244 140T405 57Q457 57 498 90T563 172T603 282Q630 386 630 487ZM344 -21Q219 -21 149 80T78
336Q78 536 176 706Q223 787 300 838T472 889Q597 889 667 788T738 531Q738 370 674 229Q604 73 486 12Q420 -21 344 -21ZM423 1012Q423 992 412 951Q375 928 345 928T302 939T289 974T296 1032Q333 1055 365 1055Q423 1055 423 1012ZM657 1012Q657 987 646 951Q609
928 579 928T536 939T523 970T530 1032Q568 1055 599 1055Q657 1055 657 1012Z" />
<glyph unicode="&#xd7;" glyph-name="multiply" horiz-adv-x="544" d="M134 637Q178 637 284 498Q386 595 402 645Q425 644 443 627T461 591Q461 553 405 497L336 430Q383 368 398 353Q433 318 478 314Q478 283 464 259T420 234Q366 234 268 364Q161 261 149 222Q125
226 102 243T78 283T102 330T216 435Q171 494 139 527T76 570Q77 594 96 615T134 637Z" />
<glyph unicode="&#xd8;" glyph-name="Oslash" horiz-adv-x="782" d="M738 531Q738 372 675 230Q606 75 487 14Q422 -20 347 -21Q326 -79 303 -103T248 -128T190 -101Q229 -55 251 -3Q168 31 123 122T78 323T103 528T176 705T300 838T472 889Q483 889 489 888Q526
947 574 947Q592 947 609 937T627 903Q600 889 580 864Q656 826 697 737T738 531ZM630 487Q630 691 532 770Q488 641 432 358T371 59Q393 57 405 57Q457 57 498 90T563 172T603 282Q630 386 630 487ZM186 380Q186 173 285 96Q317 206 371 470T450 806Q424 810 411
810Q359 810 318 777T253 695T213 584Q186 481 186 380Z" />
<glyph unicode="&#xd9;" glyph-name="Ugrave" horiz-adv-x="742" d="M252 80Q299 80 388 170T537 367Q539 380 548 441T561 526T570 596Q580 671 580 747T559 866Q569 875 589 882T625 889Q660 889 677 865T694 785T656 499T617 170T655 29Q624 -7 586 -7Q508
-7 508 125Q508 169 519 243Q451 137 366 61T223 -16Q98 -16 98 153Q98 207 131 424T165 732T144 866Q171 889 208 889T263 865T280 785T241 495T202 158Q202 80 252 80ZM289 1037T283 1044T276 1061T289 1080T329 1089T380 1084Q393 1061 426 1031T541 939Q525
911 512 911T433 947T328 1010Z" />
<glyph unicode="&#xda;" glyph-name="Uacute" horiz-adv-x="742" d="M252 80Q299 80 388 170T537 367Q539 380 548 441T561 526T570 596Q580 671 580 747T559 866Q569 875 589 882T625 889Q660 889 677 865T694 785T656 499T617 170T655 29Q624 -7 586 -7Q508
-7 508 125Q508 169 519 243Q451 137 366 61T223 -16Q98 -16 98 153Q98 207 131 424T165 732T144 866Q171 889 208 889T263 865T280 785T241 495T202 158Q202 80 252 80ZM362 911Q349 911 335 939Q415 999 448 1029T495 1084Q519 1089 545 1089T585 1081T599 1062T593
1044T548 1010T443 947T362 911Z" />
<glyph unicode="&#xdb;" glyph-name="Ucircumflex" horiz-adv-x="742" d="M252 80Q299 80 388 170T537 367Q539 380 548 441T561 526T570 596Q580 671 580 747T559 866Q569 875 589 882T625 889Q660 889 677 865T694 785T656 499T617 170T655 29Q624 -7 586 -7Q508
-7 508 125Q508 169 519 243Q451 137 366 61T223 -16Q98 -16 98 153Q98 207 131 424T165 732T144 866Q171 889 208 889T263 865T280 785T241 495T202 158Q202 80 252 80ZM578 911Q556 911 442 1002Q311 911 283 911Q272 911 256 939Q349 1009 380 1050Q391 1064
402 1084Q419 1089 450 1089T496 1078Q497 1077 504 1065T520 1041T542 1012Q575 967 605 939Q591 911 578 911Z" />
<glyph unicode="&#xdc;" glyph-name="Udieresis" horiz-adv-x="742" d="M252 80Q299 80 388 170T537 367Q539 380 548 441T561 526T570 596Q580 671 580 747T559 866Q569 875 589 882T625 889Q660 889 677 865T694 785T656 499T617 170T655 29Q624 -7 586 -7Q508
-7 508 125Q508 169 519 243Q451 137 366 61T223 -16Q98 -16 98 153Q98 207 131 424T165 732T144 866Q171 889 208 889T263 865T280 785T241 495T202 158Q202 80 252 80ZM389 1012Q389 992 378 951Q341 928 311 928T268 939T255 974T262 1032Q299 1055 331 1055Q389
1055 389 1012ZM623 1012Q623 987 612 951Q575 928 545 928T502 939T489 970T496 1032Q534 1055 565 1055Q623 1055 623 1012Z" />
<glyph unicode="&#xdd;" glyph-name="Yacute" horiz-adv-x="552" d="M432 645T458 700T484 793T474 849Q500 885 545 885T591 837Q591 800 548 721T487 610T423 502T370 414Q335 355 326 306Q314 210 314 155Q314 69 350 29Q319 -7 281 -7T224 21T205 108T228
309Q125 823 27 823Q38 857 63 873T111 889Q171 889 208 785Q251 658 302 419Q330 476 381 560ZM273 911Q260 911 246 939Q326 999 359 1029T406 1084Q430 1089 456 1089T496 1081T510 1062T504 1044T459 1010T354 947T273 911Z" />
<glyph unicode="&#xde;" glyph-name="Thorn" horiz-adv-x="615" d="M207 166Q207 70 245 29Q214 -7 176 -7Q98 -7 98 125Q98 180 133 410T169 732T148 866Q175 889 212 889T267 865T284 783Q284 763 283 751Q331 756 369 756Q615 756 615 551Q615 487 587 431T516
337T416 266Q323 214 207 185V166ZM336 699Q311 699 276 694Q272 663 245 499T211 252Q331 276 415 338Q459 371 484 420T510 530Q510 614 466 656T336 699Z" />
<glyph unicode="&#xdf;" glyph-name="germandbls" horiz-adv-x="688" d="M452 967Q551 967 602 918T653 794T602 643T463 526Q654 480 654 280Q654 173 582 82Q547 38 488 11T355 -16Q244 -16 195 56Q192 -3 192 -50Q192 -144 230 -187Q200 -223 161 -223Q83 -223
83 -96T152 546Q77 544 39 520Q39 551 42 567T56 600Q77 630 164 630Q190 766 258 862Q293 911 342 939T452 967ZM440 893Q358 893 319 827T260 616Q225 376 205 176Q226 186 253 189Q253 58 363 58Q441 58 488 121T536 270T494 420T361 494Q334 490 307 488Q306
495 306 517T313 546T349 556Q439 564 494 633T549 778Q549 828 522 860T440 893Z" />
<glyph unicode="&#xe0;" glyph-name="agrave" horiz-adv-x="687" d="M215 -14Q147 -14 108 53T68 237Q68 425 152 554T361 684Q446 684 502 617Q510 648 522 661T561 674T611 648Q593 600 580 487T567 277T577 126T613 30Q584 -7 545 -7Q459 -7 459 204Q459 238
467 323Q415 178 344 82T215 -14ZM365 615Q280 615 227 516T173 262Q173 183 193 138T249 92T339 170T439 360T494 563Q426 615 365 615ZM276 866T270 873T263 890T276 909T316 918T367 913Q380 890 413 860T528 768Q512 740 499 740T420 776T315 839Z" />
<glyph unicode="&#xe1;" glyph-name="aacute" horiz-adv-x="687" d="M215 -14Q147 -14 108 53T68 237Q68 425 152 554T361 684Q446 684 502 617Q510 648 522 661T561 674T611 648Q593 600 580 487T567 277T577 126T613 30Q584 -7 545 -7Q459 -7 459 204Q459 238
467 323Q415 178 344 82T215 -14ZM365 615Q280 615 227 516T173 262Q173 183 193 138T249 92T339 170T439 360T494 563Q426 615 365 615ZM333 740Q320 740 306 768Q386 828 419 858T466 913Q490 918 516 918T556 910T570 891T564 873T519 839T414 776T333 740Z"
/>
<glyph unicode="&#xe2;" glyph-name="acircumflex" horiz-adv-x="687" d="M215 -14Q147 -14 108 53T68 237Q68 425 152 554T361 684Q446 684 502 617Q510 648 522 661T561 674T611 648Q593 600 580 487T567 277T577 126T613 30Q584 -7 545 -7Q459 -7 459 204Q459
238 467 323Q415 178 344 82T215 -14ZM365 615Q280 615 227 516T173 262Q173 183 193 138T249 92T339 170T439 360T494 563Q426 615 365 615ZM541 740Q519 740 405 831Q274 740 246 740Q235 740 219 768Q312 838 344 879Q354 893 365 913Q382 918 413 918T459 907Q460
906 467 894T483 870T504 840Q538 796 568 768Q554 740 541 740Z" />
<glyph unicode="&#xe3;" glyph-name="atilde" horiz-adv-x="687" d="M215 -14Q147 -14 108 53T68 237Q68 425 152 554T361 684Q446 684 502 617Q510 648 522 661T561 674T611 648Q593 600 580 487T567 277T577 126T613 30Q584 -7 545 -7Q459 -7 459 204Q459 238
467 323Q415 178 344 82T215 -14ZM365 615Q280 615 227 516T173 262Q173 183 193 138T249 92T339 170T439 360T494 563Q426 615 365 615ZM560 871Q560 828 531 792T466 756T404 772T358 805T319 822T286 805T267 755Q223 755 223 787Q223 830 252 866T317 902T379
886T425 853T464 836T497 853T516 903Q560 903 560 871Z" />
<glyph unicode="&#xe4;" glyph-name="adieresis" horiz-adv-x="687" d="M215 -14Q147 -14 108 53T68 237Q68 425 152 554T361 684Q446 684 502 617Q510 648 522 661T561 674T611 648Q593 600 580 487T567 277T577 126T613 30Q584 -7 545 -7Q459 -7 459 204Q459
238 467 323Q415 178 344 82T215 -14ZM365 615Q280 615 227 516T173 262Q173 183 193 138T249 92T339 170T439 360T494 563Q426 615 365 615ZM367 841Q367 821 356 780Q319 757 289 757T246 768T233 803T240 861Q277 884 309 884Q367 884 367 841ZM601 841Q601
816 590 780Q553 757 523 757T480 768T467 799T474 861Q512 884 543 884Q601 884 601 841Z" />
<glyph unicode="&#xe5;" glyph-name="aring" horiz-adv-x="687" d="M215 -14Q147 -14 108 53T68 237Q68 425 152 554T361 684Q446 684 502 617Q510 648 522 661T561 674T611 648Q593 600 580 487T567 277T577 126T613 30Q584 -7 545 -7Q459 -7 459 204Q459 238
467 323Q415 178 344 82T215 -14ZM365 615Q280 615 227 516T173 262Q173 183 193 138T249 92T339 170T439 360T494 563Q426 615 365 615ZM405 928Q378 928 366 893T353 819Q353 755 395 755Q422 755 434 790T447 863Q447 928 405 928ZM420 974Q440 974 460 964T494
942Q523 915 523 854T481 750T384 708Q359 708 324 728Q305 739 293 763T280 822Q280 890 323 932T420 974Z" />
<glyph unicode="&#xe6;" glyph-name="ae" horiz-adv-x="929" d="M361 684Q458 684 541 594Q628 684 738 684Q815 684 855 646T895 556T873 457T811 371T709 306T576 281Q546 281 521 285Q522 174 562 116T676 57Q780 57 827 158Q851 135 851 102Q851 46 789 15T657
-17Q550 -17 490 43T417 205Q369 106 314 46T215 -14Q147 -14 108 53T68 237Q68 425 152 554T361 684ZM173 183T193 138T247 92T326 152T417 308Q430 444 507 552Q436 615 365 615Q280 615 227 516T173 262Q173 183 193 138ZM790 556T765 582T694 609T617 584T566
516Q532 436 524 348Q548 345 569 345Q671 345 730 397T790 515Q790 556 765 582Z" />
<glyph unicode="&#xe7;" glyph-name="ccedilla" horiz-adv-x="532" d="M350 -76T377 -95T404 -156T368 -235T257 -272Q218 -272 194 -255T169 -216Q169 -191 220 -172Q222 -194 235 -208T272 -223T311 -203T327 -158Q327 -119 287 -113L235 -105Q222 -103 222
-97T255 -12Q162 5 115 78T68 259Q68 332 91 406T154 543T257 645T393 684Q532 684 532 603Q532 548 487 511Q463 558 431 583T352 609T274 585T225 525T196 444Q176 366 176 294Q176 178 216 118T331 57Q425 57 469 158Q490 136 490 102Q490 46 432 15T305 -17L285
-69Q350 -76 377 -95Z" />
<glyph unicode="&#xe8;" glyph-name="egrave" horiz-adv-x="583" d="M230 281Q203 281 176 284Q177 173 217 115T331 57Q434 57 481 158Q505 135 505 102Q505 46 443 15T312 -17Q191 -17 130 60T68 259Q68 332 91 406T154 543T257 645T395 684T509 646T549 548Q549
451 460 366T230 281ZM444 556T419 582T349 609T272 584T220 517Q186 439 178 348Q202 345 223 345Q325 345 384 397T444 515Q444 556 419 582ZM244 866T238 873T231 890T244 909T284 918T335 913Q348 890 381 860T496 768Q480 740 467 740T388 776T283 839Z" />
<glyph unicode="&#xe9;" glyph-name="eacute" horiz-adv-x="583" d="M230 281Q203 281 176 284Q177 173 217 115T331 57Q434 57 481 158Q505 135 505 102Q505 46 443 15T312 -17Q191 -17 130 60T68 259Q68 332 91 406T154 543T257 645T395 684T509 646T549 548Q549
451 460 366T230 281ZM444 556T419 582T349 609T272 584T220 517Q186 439 178 348Q202 345 223 345Q325 345 384 397T444 515Q444 556 419 582ZM288 740Q275 740 261 768Q341 828 374 858T421 913Q445 918 471 918T511 910T525 891T519 873T474 839T369 776T288
740Z" />
<glyph unicode="&#xea;" glyph-name="ecircumflex" horiz-adv-x="583" d="M230 281Q203 281 176 284Q177 173 217 115T331 57Q434 57 481 158Q505 135 505 102Q505 46 443 15T312 -17Q191 -17 130 60T68 259Q68 332 91 406T154 543T257 645T395 684T509 646T549
548Q549 451 460 366T230 281ZM444 556T419 582T349 609T272 584T220 517Q186 439 178 348Q202 345 223 345Q325 345 384 397T444 515Q444 556 419 582ZM514 740Q492 740 378 831Q247 740 219 740Q208 740 192 768Q286 838 316 879Q327 893 338 913Q355 918 386
918T432 907Q433 906 440 894T456 870T478 840Q511 796 541 768Q527 740 514 740Z" />
<glyph unicode="&#xeb;" glyph-name="edieresis" horiz-adv-x="583" d="M230 281Q203 281 176 284Q177 173 217 115T331 57Q434 57 481 158Q505 135 505 102Q505 46 443 15T312 -17Q191 -17 130 60T68 259Q68 332 91 406T154 543T257 645T395 684T509 646T549
548Q549 451 460 366T230 281ZM444 556T419 582T349 609T272 584T220 517Q186 439 178 348Q202 345 223 345Q325 345 384 397T444 515Q444 556 419 582ZM320 841Q320 821 309 780Q272 757 242 757T199 768T186 803T193 861Q230 884 262 884Q320 884 320 841ZM554
841Q554 816 543 780Q506 757 476 757T433 768T420 799T427 861Q465 884 496 884Q554 884 554 841Z" />
<glyph unicode="&#xec;" glyph-name="igrave" horiz-adv-x="332" d="M176 -7Q98 -7 98 125Q98 180 119 311T140 526T119 650Q144 673 180 673Q253 673 253 597Q253 573 230 410T207 158T245 29Q214 -7 176 -7ZM64 866T58 873T51 890T64 909T104 918T155 913Q168
890 201 860T316 768Q300 740 287 740T208 776T103 839Z" />
<glyph unicode="&#xed;" glyph-name="iacute" horiz-adv-x="332" d="M176 -7Q98 -7 98 125Q98 180 119 311T140 526T119 650Q144 673 180 673Q253 673 253 597Q253 573 230 410T207 158T245 29Q214 -7 176 -7ZM115 740Q102 740 88 768Q168 828 201 858T248 913Q272
918 298 918T338 910T352 891T346 873T301 839T196 776T115 740Z" />
<glyph unicode="&#xee;" glyph-name="icircumflex" horiz-adv-x="332" d="M176 -7Q98 -7 98 125Q98 180 119 311T140 526T119 650Q144 673 180 673Q253 673 253 597Q253 573 230 410T207 158T245 29Q214 -7 176 -7ZM328 740Q306 740 192 831Q61 740 33 740Q22
740 6 768Q99 838 130 879Q141 893 152 913Q169 918 200 918T246 907Q247 906 254 894T270 870T292 840Q325 796 355 768Q341 740 328 740Z" />
<glyph unicode="&#xef;" glyph-name="idieresis" horiz-adv-x="332" d="M176 -7Q98 -7 98 125Q98 180 119 311T140 526T119 650Q144 673 180 673Q253 673 253 597Q253 573 230 410T207 158T245 29Q214 -7 176 -7ZM155 841Q155 821 144 780Q107 757 77 757T34 768T21
803T28 861Q65 884 97 884Q155 884 155 841ZM389 841Q389 816 378 780Q341 757 311 757T268 768T255 799T262 861Q300 884 331 884Q389 884 389 841Z" />
<glyph unicode="&#xf0;" glyph-name="eth" horiz-adv-x="655" d="M303 754Q303 775 328 791T403 828Q353 877 293 877Q219 877 169 811Q154 822 143 840T131 876Q131 958 266 958Q382 958 468 856Q563 906 581 939Q599 931 610 916T621 886Q621 850 512 794Q602
641 602 429Q602 248 526 120Q489 57 427 20T286 -17Q182 -17 125 55T68 229T103 416T205 560T361 618T502 544L512 547Q498 681 450 767Q375 729 351 693Q303 721 303 754ZM341 561Q294 561 260 529T208 447Q176 355 176 262T218 113T335 57Q383 57 418 89T470
172Q502 265 502 357T460 505T341 561Z" />
<glyph unicode="&#xf1;" glyph-name="ntilde" horiz-adv-x="667" d="M460 680Q577 680 577 507Q577 457 566 363T554 220Q554 79 598 29Q563 -7 528 -7Q445 -7 445 187Q445 259 461 368T478 508T466 556T424 574Q384 574 328 483T234 277T195 97T212 7Q177 -7
145 -7T100 18T86 91T105 284T124 519T103 650Q113 660 133 666T169 673Q204 673 221 649T238 559T209 330Q316 586 391 650Q426 680 460 680ZM543 871Q543 828 514 792T449 756T387 772T341 805T302 822T269 805T250 755Q206 755 206 787Q206 830 235 866T300
902T362 886T408 853T447 836T480 853T499 903Q543 903 543 871Z" />
<glyph unicode="&#xf2;" glyph-name="ograve" horiz-adv-x="678" d="M341 609Q294 609 260 574T208 484Q176 384 176 282T218 118T335 57Q383 57 418 92T470 182Q502 285 502 386T460 548T341 609ZM286 -17Q182 -17 125 61T68 259Q68 332 91 406T154 543T257 645T393
684Q497 684 553 606T610 408Q610 285 554 175Q493 56 397 8Q345 -17 286 -17ZM271 866T265 873T258 890T271 909T311 918T362 913Q375 890 408 860T523 768Q507 740 494 740T415 776T310 839Z" />
<glyph unicode="&#xf3;" glyph-name="oacute" horiz-adv-x="678" d="M341 609Q294 609 260 574T208 484Q176 384 176 282T218 118T335 57Q383 57 418 92T470 182Q502 285 502 386T460 548T341 609ZM286 -17Q182 -17 125 61T68 259Q68 332 91 406T154 543T257 645T393
684Q497 684 553 606T610 408Q610 285 554 175Q493 56 397 8Q345 -17 286 -17ZM313 740Q300 740 286 768Q366 828 399 858T446 913Q470 918 496 918T536 910T550 891T544 873T499 839T394 776T313 740Z" />
<glyph unicode="&#xf4;" glyph-name="ocircumflex" horiz-adv-x="678" d="M341 609Q294 609 260 574T208 484Q176 384 176 282T218 118T335 57Q383 57 418 92T470 182Q502 285 502 386T460 548T341 609ZM286 -17Q182 -17 125 61T68 259Q68 332 91 406T154 543T257
645T393 684Q497 684 553 606T610 408Q610 285 554 175Q493 56 397 8Q345 -17 286 -17ZM547 740Q525 740 411 831Q280 740 252 740Q241 740 225 768Q318 838 350 879Q360 893 371 913Q388 918 419 918T465 907Q466 906 473 894T489 870T510 840Q544 796 574 768Q560
740 547 740Z" />
<glyph unicode="&#xf5;" glyph-name="otilde" horiz-adv-x="678" d="M341 609Q294 609 260 574T208 484Q176 384 176 282T218 118T335 57Q383 57 418 92T470 182Q502 285 502 386T460 548T341 609ZM286 -17Q182 -17 125 61T68 259Q68 332 91 406T154 543T257 645T393
684Q497 684 553 606T610 408Q610 285 554 175Q493 56 397 8Q345 -17 286 -17ZM569 871Q569 828 540 792T475 756T413 772T367 805T328 822T295 805T276 755Q232 755 232 787Q232 830 261 866T326 902T388 886T434 853T473 836T506 853T525 903Q569 903 569 871Z"
/>
<glyph unicode="&#xf6;" glyph-name="odieresis" horiz-adv-x="678" d="M341 609Q294 609 260 574T208 484Q176 384 176 282T218 118T335 57Q383 57 418 92T470 182Q502 285 502 386T460 548T341 609ZM286 -17Q182 -17 125 61T68 259Q68 332 91 406T154 543T257
645T393 684Q497 684 553 606T610 408Q610 285 554 175Q493 56 397 8Q345 -17 286 -17ZM338 841Q338 821 327 780Q290 757 260 757T217 768T204 803T211 861Q248 884 280 884Q338 884 338 841ZM572 841Q572 816 561 780Q524 757 494 757T451 768T438 799T445 861Q483
884 514 884Q572 884 572 841Z" />
<glyph unicode="&#xf7;" glyph-name="divide" horiz-adv-x="544" d="M383 386L174 389Q101 389 68 372Q49 400 49 437Q49 457 65 469T109 482L342 472Q374 472 421 478T486 493Q501 476 501 442Q501 386 383 386ZM292 288T310 276T329 236T316 169Q272 141 238
141T189 154T175 192T183 261Q225 288 258 288ZM340 721T358 709T377 669T364 602Q320 574 286 574T237 587T223 625T231 694Q273 721 306 721Z" />
<glyph unicode="&#xf8;" glyph-name="oslash" horiz-adv-x="678" d="M275 -93T253 -121T200 -150T147 -126Q175 -94 191 -57T215 -5Q144 19 106 90T68 259T104 449T213 610T379 683Q426 817 493 817Q509 817 524 808T541 778Q490 750 460 673Q532 650 571 578T610
409T574 218T466 57T301 -16Q275 -93 253 -121ZM502 373Q502 524 430 580Q403 482 362 273T319 57Q372 57 411 92T468 182Q502 285 502 373ZM357 608L341 609Q294 609 260 574T208 484Q176 384 176 294Q176 147 243 89Q268 181 306 368T357 608Z" />
<glyph unicode="&#xf9;" glyph-name="ugrave" horiz-adv-x="677" d="M90 153Q90 208 108 325T127 526T106 650Q131 673 166 673Q240 673 240 597Q240 572 217 405T193 159T241 80Q281 80 338 174T435 385T475 559T460 650Q486 673 521 673Q595 673 595 597Q595
542 576 428T557 249Q557 107 604 30Q574 -7 536 -7Q450 -7 450 204Q450 224 462 335Q377 134 320 60Q296 28 267 6T209 -16Q90 -16 90 153ZM222 866T216 873T209 890T222 909T262 918T313 913Q326 890 359 860T474 768Q458 740 445 740T366 776T261 839Z" />
<glyph unicode="&#xfa;" glyph-name="uacute" horiz-adv-x="677" d="M90 153Q90 208 108 325T127 526T106 650Q131 673 166 673Q240 673 240 597Q240 572 217 405T193 159T241 80Q281 80 338 174T435 385T475 559T460 650Q486 673 521 673Q595 673 595 597Q595
542 576 428T557 249Q557 107 604 30Q574 -7 536 -7Q450 -7 450 204Q450 224 462 335Q377 134 320 60Q296 28 267 6T209 -16Q90 -16 90 153ZM285 740Q272 740 258 768Q338 828 371 858T418 913Q442 918 468 918T508 910T522 891T516 873T471 839T366 776T285 740Z"
/>
<glyph unicode="&#xfb;" glyph-name="ucircumflex" horiz-adv-x="677" d="M90 153Q90 208 108 325T127 526T106 650Q131 673 166 673Q240 673 240 597Q240 572 217 405T193 159T241 80Q281 80 338 174T435 385T475 559T460 650Q486 673 521 673Q595 673 595 597Q595
542 576 428T557 249Q557 107 604 30Q574 -7 536 -7Q450 -7 450 204Q450 224 462 335Q377 134 320 60Q296 28 267 6T209 -16Q90 -16 90 153ZM513 740Q491 740 377 831Q246 740 218 740Q207 740 191 768Q284 838 316 879Q326 893 337 913Q354 918 385 918T431 907Q432
906 439 894T455 870T476 840Q510 796 540 768Q526 740 513 740Z" />
<glyph unicode="&#xfc;" glyph-name="udieresis" horiz-adv-x="677" d="M90 153Q90 208 108 325T127 526T106 650Q131 673 166 673Q240 673 240 597Q240 572 217 405T193 159T241 80Q281 80 338 174T435 385T475 559T460 650Q486 673 521 673Q595 673 595 597Q595
542 576 428T557 249Q557 107 604 30Q574 -7 536 -7Q450 -7 450 204Q450 224 462 335Q377 134 320 60Q296 28 267 6T209 -16Q90 -16 90 153ZM337 841Q337 821 326 780Q289 757 259 757T216 768T203 803T210 861Q247 884 279 884Q337 884 337 841ZM571 841Q571 816
560 780Q523 757 493 757T450 768T437 799T444 861Q482 884 513 884Q571 884 571 841Z" />
<glyph unicode="&#xfd;" glyph-name="yacute" horiz-adv-x="563" d="M421 582Q421 611 410 630Q433 667 481 667Q527 667 527 616Q527 566 486 413T403 154T311 -44T194 -195T55 -254Q-83 -254 -83 -161Q-83 -118 -51 -81Q-24 -170 68 -170Q178 -170 271 22Q241
22 228 33T209 66Q133 386 89 494T2 604Q13 638 37 654T84 670Q145 670 186 567Q213 497 303 94Q356 226 388 365T421 582ZM257 740Q244 740 230 768Q310 828 343 858T390 913Q414 918 440 918T480 910T494 891T488 873T443 839T338 776T257 740Z" />
<glyph unicode="&#xfe;" glyph-name="thorn" horiz-adv-x="715" d="M98 54T143 351T188 761T167 915Q178 924 198 930T234 937Q269 937 286 913T303 832Q303 756 250 422Q239 352 236 330Q303 500 367 592T486 684Q554 684 600 613T647 398Q647 243 582 120Q551
60 498 23T377 -14Q335 -14 287 1T209 41Q204 -16 204 -61Q204 -187 251 -235Q222 -271 184 -271Q98 -271 98 -118Q98 54 143 351ZM458 578Q426 578 378 514T282 334T216 91Q280 54 365 54T496 142T543 367Q543 459 522 518T458 578Z" />
<glyph unicode="&#xff;" glyph-name="ydieresis" horiz-adv-x="563" d="M421 582Q421 611 410 630Q433 667 481 667Q527 667 527 616Q527 566 486 413T403 154T311 -44T194 -195T55 -254Q-83 -254 -83 -161Q-83 -118 -51 -81Q-24 -170 68 -170Q178 -170 271 22Q241
22 228 33T209 66Q133 386 89 494T2 604Q13 638 37 654T84 670Q145 670 186 567Q213 497 303 94Q356 226 388 365T421 582ZM273 841Q273 821 262 780Q225 757 195 757T152 768T139 803T146 861Q183 884 215 884Q273 884 273 841ZM507 841Q507 816 496 780Q459 757
429 757T386 768T373 799T380 861Q418 884 449 884Q507 884 507 841Z" />
<glyph unicode="&#x2013;" glyph-name="endash" horiz-adv-x="769" d="M648 384L130 388Q54 388 22 368Q0 399 0 438Q0 460 17 472T64 484L489 473Q550 473 635 479T752 497Q770 474 770 444Q770 384 648 384Z" />
<glyph unicode="&#x2014;" glyph-name="emdash" horiz-adv-x="886" d="M766 384L130 388Q54 388 22 368Q0 399 0 438Q0 460 17 472T64 484L606 473Q667 473 752 479T869 497Q887 474 887 444Q887 384 766 384Z" />
<glyph unicode="&#x2018;" glyph-name="quoteleft" horiz-adv-x="269" d="M297 847Q259 847 236 816T213 737T246 662Q199 625 152 625Q98 625 98 697T153 832T279 895Q313 895 313 867Q313 855 312 846Q307 847 297 847Z" />
<glyph unicode="&#x2019;" glyph-name="quoteright" horiz-adv-x="269" d="M89 673Q127 673 150 704T173 783T140 858Q187 895 234 895Q288 895 288 823T233 688T107 625Q73 625 73 653Q73 665 74 674Q79 673 89 673Z" />
<glyph unicode="&#x201a;" glyph-name="quotesinglbase" horiz-adv-x="319" d="M41 -89Q79 -89 102 -58T125 21T92 96Q139 133 186 133Q240 133 240 61T185 -74T59 -137Q25 -137 25 -109Q25 -97 26 -88Q31 -89 41 -89Z" />
<glyph unicode="&#x201c;" glyph-name="quotedblleft" horiz-adv-x="489" d="M517 847Q479 847 456 816T433 737T466 662Q419 625 372 625Q318 625 318 697T373 832T499 895Q533 895 533 867Q533 855 532 846Q527 847 517 847ZM297 847Q259 847 236 816T213 737T246
662Q199 625 152 625Q98 625 98 697T153 832T279 895Q313 895 313 867Q313 855 312 846Q307 847 297 847Z" />
<glyph unicode="&#x201d;" glyph-name="quotedblright" horiz-adv-x="489" d="M309 673Q347 673 370 704T393 783T360 858Q407 895 454 895Q508 895 508 823T453 688T327 625Q293 625 293 653Q293 665 294 674Q299 673 309 673ZM89 673Q127 673 150 704T173 783T140
858Q187 895 234 895Q288 895 288 823T233 688T107 625Q73 625 73 653Q73 665 74 674Q79 673 89 673Z" />
<glyph unicode="&#x201e;" glyph-name="quotedblbase" horiz-adv-x="539" d="M261 -89Q299 -89 322 -58T345 21T312 96Q359 133 406 133Q460 133 460 61T405 -74T279 -137Q245 -137 245 -109Q245 -97 246 -88Q251 -89 261 -89ZM41 -89Q79 -89 102 -58T125 21T92
96Q139 133 186 133Q240 133 240 61T185 -74T59 -137Q25 -137 25 -109Q25 -97 26 -88Q31 -89 41 -89Z" />
<glyph unicode="&#x2022;" glyph-name="bullet" horiz-adv-x="359" d="M237 495T263 478T290 422T271 326Q211 286 162 286T92 305T72 360T83 457Q142 495 189 495Z" />
<glyph unicode="&#x2039;" glyph-name="guilsinglleft" horiz-adv-x="313" d="M132 561T152 582T214 604T275 588Q244 572 227 538T204 470T184 403T142 354Q168 340 178 307T188 242L187 236Q187 204 198 170T239 120Q220 104 182 104T126 119T105 159T101 213T98
270T83 320T40 354Q74 366 92 396T115 461T126 528Z" />
<glyph unicode="&#x203a;" glyph-name="guilsinglright" horiz-adv-x="313" d="M181 147T161 126T99 104T38 120Q69 136 86 170T109 238T129 305T171 354Q145 368 135 401T125 466L126 472Q126 504 115 538T74 588Q93 604 131 604T187 589T208 549T212 495T215
438T230 388T273 354Q239 342 221 312T198 247T187 180Z" />
</font>
</defs>
</svg>
