<?xml version="1.0" standalone="no"?>
<!DOCTYPE svg PUBLIC "-//W3C//DTD SVG 1.1//EN" "http://www.w3.org/Graphics/SVG/1.1/DTD/svg11.dtd">
<svg xmlns="http://www.w3.org/2000/svg">
<defs >
<font id="YanoneKaffeesatz" horiz-adv-x="373" ><font-face
    font-family="Yanone Kaffeesatz"
    units-per-em="1000"
    panose-1="0 0 8 0 0 0 0 0 0 0"
    ascent="957"
    descent="-200"
    alphabetic="0" />
<glyph unicode=" " glyph-name="space" horiz-adv-x="141" />
<glyph unicode="!" glyph-name="exclam" horiz-adv-x="202" d="M27 673Q26 689 37 695T78 704T183 706L158 292Q156 267 147 257T117 243T47 240L27 673ZM62 -8T46 9T30 63Q30 93 49 114T101 135Q139 135 155 117T171 63Q171 33 153 13T101 -8Q62 -8 46 9Z" />
<glyph unicode="&quot;" glyph-name="quotedbl" horiz-adv-x="288" d="M42 604T34 668T25 763Q25 780 28 781Q39 787 72 787Q103 787 131 783Q129 735 120 663T105 586L45 583Q42 604 34 668ZM174 604T166 668T157 763Q157 780 160 781Q171 787 204 787Q233 787
263 783Q261 735 252 663T237 586L177 583Q174 604 166 668Z" />
<glyph unicode="#" glyph-name="numbersign" horiz-adv-x="401" d="M331 266H385Q385 237 384 216T379 188T365 180H327L324 127Q323 113 304 110T228 107L232 180H157L154 127Q153 113 134 110T58 107L62 180H15Q15 209 16 230T21 258T35 266H66L71 350H15Q15
379 16 400T21 428T35 436H75L78 487Q79 501 98 504T174 507L170 436H245L248 487Q249 501 268 504T344 507L340 436H385Q385 407 384 386T379 358T365 350H336L331 266ZM161 266H236L241 350H166L161 266Z" />
<glyph unicode="$" glyph-name="dollar" horiz-adv-x="401" d="M311 282Q357 230 357 161Q357 27 239 -1V-82Q239 -107 216 -115T138 -123V-7Q89 -3 63 11T37 39Q37 52 44 83T62 130Q79 117 106 110T165 102Q197 102 215 116T233 162Q233 185 225 201T191 248L79
371Q36 422 36 478Q36 535 67 569T158 613V695Q158 721 182 729T259 738V615Q309 611 333 600T357 578Q357 563 351 541T330 503Q321 509 295 514T241 520Q200 520 180 512T159 481Q159 461 165 448T193 410L311 282Z" />
<glyph unicode="%" glyph-name="percent" horiz-adv-x="668" d="M169 -6T153 0T121 15T106 34L489 709Q494 707 508 701T536 684T550 662Q550 651 392 373T174 -8Q169 -6 153 0ZM111 339T83 354T40 409T26 526Q26 708 168 708Q215 708 244 692T287 637T301 528Q301
430 266 385T160 339Q111 339 83 354ZM181 423T189 444T198 526Q198 569 196 589T187 617T167 625Q149 625 141 605T132 526Q132 482 135 460T146 431T166 423Q181 423 189 444ZM452 -9T424 6T381 61T367 178Q367 360 509 360Q556 360 585 344T628 289T642 180Q642
82 607 37T501 -9Q452 -9 424 6ZM521 72T530 93T540 175Q540 218 538 238T528 266T507 274Q489 274 480 254T471 175Q471 131 475 109T486 80T506 72Q521 72 530 93Z" />
<glyph unicode="&amp;" glyph-name="ampersand" horiz-adv-x="489" d="M454 89T484 78Q481 55 469 35T440 2T412 -10Q395 -10 344 46Q291 -10 203 -10Q102 -10 59 39T15 169Q15 228 45 277T124 358Q50 496 50 568Q50 631 91 668T217 706Q287 706 329 692T372 654Q372
634 365 611T344 572Q316 593 290 600T231 608Q197 608 183 598T168 553Q168 515 210 431T313 260Q314 276 314 304Q314 375 306 415T282 495Q314 504 406 504Q441 504 472 501Q473 498 474 488T475 463Q475 438 467 425T432 412H410Q418 389 420 368T422 291Q422
213 401 147Q454 89 484 78ZM246 94T274 130Q225 193 172 277Q151 258 141 232T130 167Q130 133 147 114T197 94Q246 94 274 130Z" />
<glyph unicode="&apos;" glyph-name="quotesingle" horiz-adv-x="156" d="M42 604T34 668T25 763Q25 780 28 781Q39 787 72 787Q103 787 131 783Q129 735 120 663T105 586L45 583Q42 604 34 668Z" />
<glyph unicode="(" glyph-name="parenleft" horiz-adv-x="290" d="M196 -193T159 -137T90 34T59 318Q59 471 89 579T157 745T209 802Q236 802 249 787T271 732Q173 586 173 316Q173 170 200 56T271 -109Q262 -153 250 -173T211 -193Q196 -193 159 -137Z" />
<glyph unicode=")" glyph-name="parenright" horiz-adv-x="290" d="M52 -193T40 -173T19 -109Q117 29 117 315Q117 448 94 556T19 732Q27 772 40 787T81 802Q96 802 133 748T200 585T231 318Q231 163 200 48T132 -130T79 -193Q52 -193 40 -173Z" />
<glyph unicode="*" glyph-name="asterisk" horiz-adv-x="469" d="M188 664Q185 693 227 693Q259 693 293 678L267 529Q265 517 260 512T243 506Q233 506 218 509L188 664ZM272 469T272 481Q272 487 276 491T288 501L428 588Q442 576 450 556T458 516Q458 501 453
491T438 478L287 450Q272 469 272 481ZM11 490Q10 517 18 537T41 569T68 580Q74 580 79 577L198 491Q199 453 176 453Q173 453 165 455L11 490ZM249 393Q246 401 246 407Q246 414 253 420T279 433L397 309Q403 302 403 294Q403 275 375 259T317 238L249 393ZM140
241T129 241Q111 241 90 262T56 308L178 419Q190 429 199 429Q211 429 227 409L149 253Q140 241 129 241Z" />
<glyph unicode="+" glyph-name="plus" horiz-adv-x="401" d="M375 330Q375 273 372 254T355 234H248V127Q248 113 229 110T153 107V234H25Q25 291 28 310T45 330H153V437Q153 451 172 454T248 457V330H375Z" />
<glyph unicode="," glyph-name="comma" horiz-adv-x="188" d="M55 -96T45 -90T30 -67Q46 -41 49 -29T57 8Q41 17 35 31T29 68Q29 95 47 113T93 132Q127 132 145 114T164 60Q164 21 147 -14T107 -73T72 -96Q55 -96 45 -90Z" />
<glyph unicode="-" glyph-name="hyphen" horiz-adv-x="264" d="M30 291T33 310T50 330H234Q234 273 231 254T214 234H30Q30 291 33 310Z" />
<glyph unicode="." glyph-name="period" horiz-adv-x="188" d="M55 -7T39 10T23 64Q23 94 42 115T94 136Q132 136 148 118T164 64Q164 34 146 14T94 -7Q55 -7 39 10Z" />
<glyph unicode="/" glyph-name="slash" horiz-adv-x="367" d="M234 736Q239 751 246 756T275 763T357 765L133 6Q129 -8 122 -12T93 -18T10 -20L234 736Z" />
<glyph unicode="0" glyph-name="zero" horiz-adv-x="401" d="M127 -9T88 26T35 128T20 296Q20 449 63 524T199 600Q293 600 336 534T380 333Q380 213 364 140T308 29T197 -9Q127 -9 88 26ZM233 90T248 145T263 333Q263 420 251 461T205 503Q167 503 154 451T141
292Q141 211 145 169T162 109T201 90Q233 90 248 145Z" />
<glyph unicode="1" glyph-name="one" horiz-adv-x="401" d="M19 38T19 73Q19 91 47 97T147 104L156 487Q123 486 96 482T60 475Q43 505 43 543Q43 554 81 567T170 590T246 600Q254 600 263 599T275 594L263 104H319Q338 104 356 105T380 108Q380 59 379 39T373
9T356 0H22Q19 38 19 73Z" />
<glyph unicode="2" glyph-name="two" horiz-adv-x="401" d="M20 12T20 31Q20 58 24 74T46 119Q81 180 153 273Q200 333 222 370T244 440Q244 466 228 480T185 494Q156 494 116 485T53 463Q39 494 39 544Q39 567 94 583T219 600Q301 600 336 565T372 459Q372 405
346 358T261 235Q198 153 168 104H244Q295 104 337 109T380 115Q380 63 379 41T372 10T355 0H24Q20 12 20 31Z" />
<glyph unicode="3" glyph-name="three" horiz-adv-x="401" d="M39 -100T39 -46Q39 -14 45 8T53 35Q67 21 91 14T142 6Q195 6 221 43T248 145Q248 197 206 218T95 237L94 304Q155 328 186 365T218 441Q218 467 208 480T166 494Q137 494 104 486T47 463Q33 494 33
544Q33 568 81 584T207 600Q278 600 312 567T346 479Q346 420 320 375T249 299Q304 293 336 256T369 151Q369 23 306 -38T142 -100Q39 -100 39 -46Z" />
<glyph unicode="4" glyph-name="four" horiz-adv-x="401" d="M208 103H54Q16 141 16 209Q16 227 55 315T141 487T210 589Q233 607 258 607Q294 607 322 592L319 206Q340 206 357 208T380 211Q381 209 383 201T385 179Q385 147 376 125T349 103H319V32Q319 14 314
9T289 2T208 0V103ZM208 206L223 454Q197 423 160 339T111 206H208Z" />
<glyph unicode="5" glyph-name="five" horiz-adv-x="401" d="M101 -100T76 -93T40 -76T28 -58Q28 -27 30 -8T40 32Q70 3 125 3Q166 3 194 27T237 90T252 166Q252 219 242 246T205 284T123 296Q78 296 34 285L65 600H371Q371 557 368 538T353 510T316 502Q285 502
231 504T159 508L147 383Q167 387 191 387Q267 387 319 349T371 194Q371 58 310 -21T139 -100Q101 -100 76 -93Z" />
<glyph unicode="6" glyph-name="six" horiz-adv-x="401" d="M310 441T346 394T382 247Q382 116 334 54T194 -8Q117 -8 80 29T33 134T22 322Q22 531 80 617T247 703Q355 703 355 663Q355 620 344 585Q327 591 303 595T262 599Q197 599 164 550T127 387Q149 415
176 428T246 441Q310 441 346 394ZM234 90T253 129T273 224Q273 278 258 308T211 339Q167 339 128 290Q129 286 129 278Q126 167 146 129T200 90Q234 90 253 129Z" />
<glyph unicode="7" glyph-name="seven" horiz-adv-x="401" d="M142 -92T118 -90T85 -81T76 -61Q76 13 104 121T173 336T251 507Q165 501 66 501Q36 501 36 600H396Q294 371 243 206T190 -92Q142 -92 118 -90Z" />
<glyph unicode="8" glyph-name="eight" horiz-adv-x="401" d="M382 258T382 183Q382 133 363 90T304 20T208 -7Q111 -7 67 47T22 186Q22 245 48 293T120 374Q77 409 56 439Q29 476 29 530Q29 614 76 660T198 706Q381 706 381 544Q381 484 356 442T285 365Q313
339 330 319Q382 258 382 183ZM181 602T161 586T141 537Q141 503 163 475Q174 462 213 427Q245 453 261 480T278 540Q278 564 261 583T214 602Q181 602 161 586ZM232 99T252 122T273 186Q273 217 266 234T244 268Q229 286 198 311Q163 284 144 257T125 194Q125
149 146 124T200 99Q232 99 252 122Z" />
<glyph unicode="9" glyph-name="nine" horiz-adv-x="401" d="M279 609T314 582T363 489T380 288Q378 86 320 -9T131 -104Q35 -104 35 -61Q35 -46 38 -25T45 12Q82 1 116 1Q197 1 231 55T271 206Q250 179 224 167T155 154Q94 154 56 209T18 359Q18 488 66 548T206
609Q279 609 314 582ZM238 256T274 303V309Q274 388 269 431T249 492T208 511Q172 511 150 476T127 371Q127 317 143 287T189 256Q238 256 274 303Z" />
<glyph unicode=":" glyph-name="colon" horiz-adv-x="188" d="M56 314T40 331T24 385Q24 416 43 437T95 458Q133 458 149 440T165 385Q165 355 147 335T95 314Q56 314 40 331ZM56 -7T40 10T24 64Q24 94 43 115T95 136Q133 136 149 118T165 64Q165 34 147 14T95
-7Q56 -7 40 10Z" />
<glyph unicode=";" glyph-name="semicolon" horiz-adv-x="188" d="M51 314T36 331T20 385Q20 416 39 437T90 458Q128 458 144 439T161 385Q161 355 142 335T90 314Q51 314 36 331ZM49 -96T39 -90T24 -67Q40 -41 43 -29T51 8Q36 17 30 31T24 68Q24 95 42 113T87
132Q121 132 139 114T158 60Q158 21 141 -14T101 -73T66 -96Q49 -96 39 -90Z" />
<glyph unicode="&lt;" glyph-name="less" horiz-adv-x="400" d="M308 79T287 87L51 192Q33 221 33 256Q33 276 42 291T68 316L326 440Q344 425 354 405T366 366Q366 343 347 335L177 252L368 164Q367 131 352 105T318 79Q308 79 287 87Z" />
<glyph unicode="=" glyph-name="equal" horiz-adv-x="401" d="M25 391T28 410T45 429H375Q375 373 372 354T355 334H25Q25 391 28 410ZM25 191T28 210T45 230H375Q375 173 372 154T355 135H25Q25 191 28 210Z" />
<glyph unicode="&gt;" glyph-name="greater" horiz-adv-x="400" d="M62 80T52 100T40 137Q40 162 58 170L229 252L38 341Q39 373 55 399T88 426Q98 426 119 418L355 313Q373 282 373 248Q373 229 364 214T337 189L79 64Q62 80 52 100Z" />
<glyph unicode="?" glyph-name="question" horiz-adv-x="294" d="M79 225T75 236T66 265T62 302Q62 334 75 359Q87 382 101 405T120 437Q143 473 153 495T163 543Q163 571 149 584T99 598Q79 598 64 594T41 584T31 577Q13 624 13 666Q13 686 55 698T145 710Q214
710 249 672T284 573Q284 531 275 499T253 444T217 389Q191 353 180 333Q174 321 174 307Q174 295 180 271Q185 254 185 245Q185 237 181 233Q171 220 117 220Q101 220 81 222Q79 225 75 236ZM92 -7T76 10T60 64Q60 94 79 115T131 136Q169 136 185 118T201 64Q201
34 183 14T131 -7Q92 -7 76 10Z" />
<glyph unicode="@" glyph-name="at" horiz-adv-x="720" d="M425 -82T479 -75T584 -50Q613 -92 613 -125Q613 -156 547 -173T360 -191Q255 -191 187 -158T80 -26T40 263Q40 473 130 576T381 680Q480 680 545 651T646 552T681 364Q681 150 635 76T520 1Q487 1 459
22Q447 13 420 7T355 1Q314 1 288 12T246 57T230 159Q230 249 259 286T332 324Q368 324 387 310L388 368Q389 387 380 395T350 404Q322 404 303 399T259 380Q247 403 247 443Q248 458 256 466Q271 477 304 486T386 495Q442 495 468 470T493 382L490 197Q488 128
486 100Q497 97 507 97Q538 97 551 157T565 330Q565 431 550 484T495 559T380 581Q297 581 249 552T177 450T154 248Q154 121 172 50T234 -51T352 -82Q425 -82 479 -75ZM386 246Q385 246 381 247T369 248Q352 248 344 230T336 164Q336 114 339 99T360 83Q374 83
378 94T384 146L386 246Z" />
<glyph unicode="A" glyph-name="A" horiz-adv-x="437" d="M436 8T426 3T384 -2Q349 -2 320 0L287 160H152L123 19Q120 7 112 3T72 -2Q37 -2 2 2L169 681Q173 702 214 702Q248 702 267 698L434 18Q436 8 426 3ZM266 260L246 354Q231 426 220 543Q206 416 193 354L173
260H266Z" />
<glyph unicode="B" glyph-name="B" horiz-adv-x="359" d="M30 680Q30 690 36 695T58 700H156Q231 700 278 666T325 543Q325 472 298 430T233 383Q348 371 348 238Q348 131 302 66T161 0H30V680ZM163 424Q182 424 192 450T203 519Q203 568 194 585T167 603H143V424H163ZM164
96Q188 96 202 131T216 228Q216 272 211 294T195 323T166 330H143V96H164Z" />
<glyph unicode="C" glyph-name="C" horiz-adv-x="325" d="M127 -10T92 17T38 116T20 327Q20 710 220 710Q278 710 296 695T315 651Q315 618 299 584Q276 601 247 601Q197 601 167 544T137 336Q137 249 145 201T170 134T216 114Q266 114 294 129Q309 99 309 64Q309
29 277 10T187 -10Q127 -10 92 17Z" />
<glyph unicode="D" glyph-name="D" horiz-adv-x="361" d="M30 680Q30 690 36 695T58 700H154Q225 700 266 674T329 580T350 385Q350 183 305 92T159 0H30V680ZM162 105Q181 105 194 126T215 212T223 397Q223 483 216 526T195 584T161 599H141V105H162Z" />
<glyph unicode="E" glyph-name="E" horiz-adv-x="301" d="M141 99H283Q283 59 282 35T278 6T264 0H30V680Q30 685 34 692T50 700H290Q290 662 289 638T284 608T270 601H141V430H263Q263 393 262 369T258 336T245 328H141V99Z" />
<glyph unicode="F" glyph-name="F" horiz-adv-x="296" d="M290 700Q290 662 289 639T285 611T270 606H141V430H263Q263 393 262 369T258 337T245 329H141V20V18Q141 0 124 0H30V680Q30 685 34 692T50 700H290Z" />
<glyph unicode="G" glyph-name="G" horiz-adv-x="370" d="M133 -10T93 18T37 118T20 327Q20 483 45 566T117 680T240 710Q291 710 320 693T349 652Q349 621 335 581Q324 590 304 595T264 601Q214 601 187 575T150 493T140 336Q140 234 146 184T168 116T212 99Q237
99 245 109V333H198V405Q198 425 222 425H349L348 21Q301 -10 210 -10Q133 -10 93 18Z" />
<glyph unicode="H" glyph-name="H" horiz-adv-x="383" d="M351 9T347 6T315 1T240 0V321H142V20Q142 9 138 6T106 1T31 0V680Q31 691 35 694T67 699T142 700V425H240V680Q240 691 244 694T276 699T351 700V20Q351 9 347 6Z" />
<glyph unicode="I" glyph-name="I" horiz-adv-x="174" d="M30 651Q30 678 35 687T61 698T143 700V20Q143 9 138 6T105 1T30 0V651Z" />
<glyph unicode="J" glyph-name="J" horiz-adv-x="301" d="M56 -9T33 9T10 58Q10 76 13 88T25 118Q41 106 63 98T105 89Q128 89 139 96T154 123T158 183V651Q158 678 163 687T188 698T271 700V161Q271 75 236 33T121 -9Q56 -9 33 9Z" />
<glyph unicode="K" glyph-name="K" horiz-adv-x="388" d="M373 701T373 682Q373 679 371 673L255 401Q309 351 336 254T365 21Q365 7 357 3T319 -2Q281 -2 239 1Q238 111 225 186T172 306Q158 321 141 329V20Q141 9 136 6T104 1T28 0V680Q28 691 33 694T65 699T141
700V411L252 693Q288 701 323 701Q373 701 373 682Z" />
<glyph unicode="L" glyph-name="L" horiz-adv-x="299" d="M30 672Q30 687 35 692T60 699T141 700V104H283V20Q283 0 264 0H30V672Z" />
<glyph unicode="M" glyph-name="M" horiz-adv-x="477" d="M447 700V20Q447 9 442 6T409 1T333 0L338 192Q340 263 346 329T359 438T367 491L364 493Q327 346 313 307L265 174Q263 167 254 167H208L161 307Q147 349 112 493L109 491Q111 480 117 439T130 331T137
193L140 20Q140 9 134 6T101 1T30 0V680Q30 693 35 696T50 700H134L214 452Q227 414 233 386T241 351Q242 358 248 386T265 450L334 680Q338 692 341 696T354 700H447Z" />
<glyph unicode="N" glyph-name="N" horiz-adv-x="430" d="M289 691T294 694T327 699T400 700V20Q400 11 395 6T380 0H294L188 268Q162 335 128 490Q141 362 141 260V20Q141 9 136 6T104 1T30 0V680Q30 700 50 700H138L243 437Q268 374 302 225Q289 346 289 447V680Q289
691 294 694Z" />
<glyph unicode="O" glyph-name="O" horiz-adv-x="410" d="M131 -10T93 20T38 128T20 354Q20 488 40 566T102 677T211 710Q278 710 316 679T371 572T389 358Q389 218 369 138T309 24T200 -10Q131 -10 93 20ZM231 105T244 130T262 207T267 354Q267 451 264 500T248
572T209 595Q185 595 172 570T153 487T147 329Q147 244 151 197T168 128T206 105Q231 105 244 130Z" />
<glyph unicode="P" glyph-name="P" horiz-adv-x="349" d="M211 700T253 682T317 619T339 494Q339 370 286 320T149 270H141V20Q141 9 136 6T104 1T30 0V680Q30 691 34 695T50 700H144Q211 700 253 682ZM188 373T201 401T214 508Q214 557 204 580T169 604H141V373H162Q188
373 201 401Z" />
<glyph unicode="Q" glyph-name="Q" horiz-adv-x="410" d="M410 -45T414 -62T418 -92Q418 -120 387 -131T320 -142Q262 -142 227 -110T171 -9Q115 -3 83 30T35 140T20 354Q20 488 40 566T102 677T211 710Q278 710 316 679T371 572T389 358Q389 210 367 129T296
15Q301 -20 311 -35T343 -51Q376 -51 403 -34Q410 -45 414 -62ZM185 595T172 570T153 487T147 329Q147 244 151 197T168 128T206 105Q231 105 244 130T262 207T267 354Q267 451 264 500T248 572T209 595Q185 595 172 570Z" />
<glyph unicode="R" glyph-name="R" horiz-adv-x="365" d="M301 263T326 193T355 22Q355 11 352 6T336 -1T297 -3Q270 -3 232 0Q230 104 211 169T167 271Q161 270 149 270H141V20Q141 9 136 6T103 1T30 0V680Q30 685 34 692T50 700H144Q211 700 253 682T317 619T339
494Q339 361 269 306Q301 263 326 193ZM141 373H162Q188 373 201 400T214 500Q214 554 204 579T169 604H141V373Z" />
<glyph unicode="S" glyph-name="S" horiz-adv-x="344" d="M83 -10T50 9T16 57Q16 75 22 96T41 137Q57 122 82 113T134 104Q174 104 191 124T208 182Q208 208 199 231T163 289L72 410Q39 453 27 487T15 557Q15 627 61 668T193 710Q266 710 297 696T329 654Q329
621 303 592Q294 599 268 605T216 612Q178 612 157 599T136 560Q136 537 144 518T173 471L269 348Q304 303 316 267T329 185Q329 98 288 44T147 -10Q83 -10 50 9Z" />
<glyph unicode="T" glyph-name="T" horiz-adv-x="380" d="M370 700V616Q370 604 366 600T350 596H243V20Q243 9 238 6T205 1T132 0V596H10V680Q10 700 30 700H370Z" />
<glyph unicode="U" glyph-name="U" horiz-adv-x="412" d="M135 -10T96 16T43 85T30 192V679Q30 691 35 694T60 699T145 700V188Q145 136 158 114T209 92Q246 92 268 104V679Q268 691 273 694T298 699T381 700V28Q359 14 313 2T209 -10Q135 -10 96 16Z" />
<glyph unicode="V" glyph-name="V" horiz-adv-x="420" d="M136 -6T123 53Q101 152 61 374T7 671Q5 683 5 686Q5 694 11 697T32 700H125L176 372Q191 275 213 91Q227 249 246 372L290 670Q292 687 297 693T317 700H415L282 0Q233 -6 185 -6Q136 -6 123 53Z" />
<glyph unicode="W" glyph-name="W" horiz-adv-x="668" d="M663 700L543 0Q515 -3 494 -4T446 -6Q421 -6 407 10T387 57L364 168Q349 243 331 425Q312 241 300 168L272 0Q223 -5 166 -5Q145 -5 132 12T112 57Q91 158 55 378T7 671Q6 676 6 684Q6 693 11 696T32
700H125L175 372Q196 237 203 113H211Q214 235 236 372L279 640Q281 657 286 663T306 670H384L436 372Q453 274 465 113H473Q478 241 497 372L540 670Q542 687 547 693T566 700H663Z" />
<glyph unicode="X" glyph-name="X" horiz-adv-x="421" d="M411 13T411 8Q411 0 398 0H275L237 117Q228 145 210 209L202 237Q185 169 165 117L126 14Q122 6 117 3T103 0H7L143 359L34 681Q31 691 37 694T78 699T167 700L196 595Q211 541 224 479Q238 545 253 595L279
682Q282 692 288 695T321 699T397 700L285 372L409 16Q411 13 411 8Z" />
<glyph unicode="Y" glyph-name="Y" horiz-adv-x="368" d="M242 20Q242 9 238 6T206 1T131 0V288L6 683Q3 692 8 695T46 699T133 700L162 569Q170 534 179 473T191 376Q194 411 203 472T221 570L245 680Q248 691 254 694T288 699T364 700L242 292V20Z" />
<glyph unicode="Z" glyph-name="Z" horiz-adv-x="376" d="M13 17T13 43Q13 66 22 89L229 602H72Q42 602 25 597V679Q25 689 31 694T46 700H346Q351 691 353 684T356 665Q356 643 346 618L134 98H290Q333 98 357 108V20Q357 10 353 5T337 0H28Q13 17 13 43Z" />
<glyph unicode="[" glyph-name="bracketleft" horiz-adv-x="351" d="M88 789Q88 805 92 810T113 818T173 821H343Q343 770 342 751T334 724T311 717H201V-96H343Q343 -151 341 -170T334 -195T311 -200H88V789Z" />
<glyph unicode="\" glyph-name="backslash" horiz-adv-x="359" d="M12 736Q11 739 10 742T9 748Q9 756 18 759T54 764T122 765L347 -4Q349 -12 349 -15Q349 -22 341 -25T305 -29T236 -30L12 736Z" />
<glyph unicode="]" glyph-name="bracketright" horiz-adv-x="351" d="M8 -149T9 -130T17 -103T40 -96H150V718H8Q8 773 10 792T17 817T40 822H263V-168Q263 -184 259 -189T238 -197T178 -200H8Q8 -149 9 -130Z" />
<glyph unicode="^" glyph-name="asciicircum" horiz-adv-x="430" d="M65 202T52 219T37 259L223 412L373 286Q392 271 392 251Q392 232 377 217T339 199L210 268L117 212Q98 202 88 202Q65 202 52 219Z" />
<glyph unicode="_" glyph-name="underscore" horiz-adv-x="370" d="M10 -70T13 -51T30 -31H360Q360 -88 357 -107T340 -126H10Q10 -70 13 -51Z" />
<glyph unicode="`" glyph-name="grave" horiz-adv-x="280" d="M178 540T123 578T49 637Q54 667 68 692T100 718Q109 718 158 676T231 600Q230 595 225 581T211 553T188 539Q178 540 123 578Z" />
<glyph unicode="a" glyph-name="a" horiz-adv-x="339" d="M119 -10T89 1T39 46T20 146Q20 240 52 275T136 311Q151 311 169 308T200 296V365Q200 385 191 394T158 403Q130 403 96 397T37 382Q22 411 22 446Q22 456 26 466T36 481Q49 491 90 500T185 510Q254 510
282 483T311 388V341Q311 96 306 22Q252 -10 162 -10Q119 -10 89 1ZM189 81T198 91Q200 114 200 221Q190 230 173 230Q155 230 146 213T137 149Q137 112 144 97T170 81Q189 81 198 91Z" />
<glyph unicode="b" glyph-name="b" horiz-adv-x="366" d="M113 -10T83 -2T35 20V685Q35 710 43 720T72 732T146 735V481Q181 510 232 510Q292 510 318 464T345 307Q345 175 317 105T247 13T152 -10Q113 -10 83 -2ZM189 87T204 130T220 287Q220 354 211 382T181
411Q161 411 146 396V95Q156 87 169 87Q189 87 204 130Z" />
<glyph unicode="c" glyph-name="c" horiz-adv-x="292" d="M114 -10T83 10T36 83T20 239Q20 351 45 411T109 490T198 510Q235 510 258 497T281 459Q281 429 271 400Q258 405 241 409T208 413Q175 413 156 379T136 241Q136 181 142 149T162 102T204 88Q220 88 238
92T268 102Q277 66 277 44Q277 19 247 5T168 -10Q114 -10 83 10Z" />
<glyph unicode="d" glyph-name="d" horiz-adv-x="359" d="M132 -10T98 6T42 75T20 227Q20 373 57 441T158 510Q195 510 217 492V686Q217 711 225 720T254 732T328 735V20Q260 -10 182 -10Q132 -10 98 6ZM204 88T217 98V410Q209 415 195 415Q182 415 171 405T153
356T145 241Q145 154 154 121T183 88Q204 88 217 98Z" />
<glyph unicode="e" glyph-name="e" horiz-adv-x="345" d="M250 98T308 126Q317 96 317 52Q317 23 277 7T175 -10Q100 -10 60 41T20 226Q20 340 43 403T105 488T196 510Q324 510 324 347Q324 260 310 205Q253 193 136 191Q139 140 153 119T202 98Q250 98 308 126ZM159
414T149 381T136 278Q192 278 211 287Q216 302 216 339Q216 385 209 399T182 414Q159 414 149 381Z" />
<glyph unicode="f" glyph-name="f" horiz-adv-x="262" d="M70 408H10Q10 456 11 473T17 495T37 500H70V557Q70 662 119 700T244 738Q292 738 318 725T344 686Q344 656 333 626Q306 639 265 639Q224 639 203 624T181 569V500H254Q254 455 253 437T247 414T233 408H181V20Q181
15 178 8T161 0H70V408Z" />
<glyph unicode="g" glyph-name="g" horiz-adv-x="382" d="M377 426T368 416T342 406Q333 406 321 409Q345 372 345 317Q345 234 307 194T183 154Q165 154 156 155Q143 138 143 127Q143 119 154 116T192 110L230 105Q297 94 329 66T362 -19Q362 -97 315 -146T172
-196Q10 -196 10 -84Q10 -18 77 29Q24 46 24 84Q24 107 39 129T87 179Q27 219 27 324Q27 426 70 468T196 510Q220 510 245 501H365Q377 477 377 447Q377 426 368 416ZM212 236T222 259T233 347Q233 394 224 413T191 432Q169 432 157 409T145 329Q145 276 154 256T188
236Q212 236 222 259ZM249 -17T244 -8T221 8T164 18Q147 4 136 -15T125 -55Q125 -76 138 -85T184 -95Q218 -95 233 -76T249 -34Q249 -17 244 -8Z" />
<glyph unicode="h" glyph-name="h" horiz-adv-x="362" d="M33 686Q33 711 41 720T70 732T144 735V475Q161 492 187 501T240 510Q295 510 313 480T332 381V20Q332 9 326 6T291 1T217 0V346Q217 376 211 392T185 408Q164 408 144 395V20Q144 9 139 6T107 1T33 0V686Z" />
<glyph unicode="i" glyph-name="i" horiz-adv-x="180" d="M33 451Q33 476 42 485T72 497T146 500V20Q146 9 141 6T108 1T33 0V451ZM316 546T303 564T289 626Q289 662 304 683T350 704Q380 704 391 688T402 631Q402 591 387 569T343 546Q316 546 303 564Z" />
<glyph unicode="j" glyph-name="j" horiz-adv-x="187" d="M-43 -197T-66 -183T-90 -137Q-90 -102 -75 -83Q-46 -96 -3 -96Q24 -96 32 -81T41 -21V451Q41 476 50 485T79 497T152 500V-36Q152 -109 122 -153T14 -197Q-43 -197 -66 -183ZM320 546T307 564T293 626Q293
662 308 683T354 704Q384 704 395 688T406 631Q406 591 391 569T347 546Q320 546 307 564Z" />
<glyph unicode="k" glyph-name="k" horiz-adv-x="361" d="M33 686Q33 711 42 720T71 732T145 735V481Q196 510 252 510Q298 510 316 486T335 425Q335 375 317 337T276 274Q347 222 349 85Q349 52 346 17Q345 8 339 5T302 1T219 0Q224 57 224 102Q224 222 180 222Q168
222 157 215T145 207V20Q145 9 140 6T108 1T33 0V686ZM178 300T194 324T210 383Q210 411 190 411Q166 411 145 382V281Q178 300 194 324Z" />
<glyph unicode="l" glyph-name="l" horiz-adv-x="178" d="M33 686Q33 711 42 720T71 732T144 735V20Q144 9 139 6T107 1T33 0V686Z" />
<glyph unicode="m" glyph-name="m" horiz-adv-x="531" d="M438 510T462 495T494 451T502 374V20Q502 9 497 6T464 1T391 0V371Q391 395 385 404T361 413Q340 413 323 404V20Q323 9 319 6T288 1T215 0H214H212V375Q212 400 207 407T183 415Q165 415 144 403V20Q144
9 139 6T106 1T33 0V477Q104 510 187 510Q241 510 271 483Q297 496 328 503T389 510Q438 510 462 495Z" />
<glyph unicode="n" glyph-name="n" horiz-adv-x="362" d="M33 477Q59 489 105 499T188 510Q266 510 299 482T332 381V20Q332 9 327 6T293 1T217 0V346Q217 387 211 401T184 415Q162 415 144 403V20Q144 9 139 6T106 1T33 0V477Z" />
<glyph unicode="o" glyph-name="o" horiz-adv-x="362" d="M119 -10T86 9T37 85T20 251Q20 510 186 510Q242 510 275 488T325 410T342 255Q342 114 302 52T178 -10Q119 -10 86 9ZM193 82T201 93T214 142T220 252Q220 325 217 359T206 406T182 418Q163 418 153 384T142
252Q142 177 146 141T159 93T181 82Q193 82 201 93Z" />
<glyph unicode="p" glyph-name="p" horiz-adv-x="363" d="M57 -197T45 -187T33 -148V471Q62 489 101 499T181 510Q260 510 301 466T342 307Q342 180 325 110T280 15T211 -10Q167 -10 144 9V-188Q120 -197 87 -197Q57 -197 45 -187ZM186 88T195 102T211 164T218
300Q218 348 214 372T200 406T175 415Q159 415 144 403V107Q158 88 173 88Q186 88 195 102Z" />
<glyph unicode="q" glyph-name="q" horiz-adv-x="364" d="M250 -198T220 -194V24Q199 -10 145 -10Q88 -10 54 38T20 215Q20 510 228 510Q261 510 285 503T333 480V-149Q333 -171 328 -181T310 -194T268 -198Q250 -198 220 -194ZM211 86T220 122V405Q215 411 211
413T198 415Q173 415 160 373T147 220Q147 143 156 115T186 86Q211 86 220 122Z" />
<glyph unicode="r" glyph-name="r" horiz-adv-x="249" d="M33 465Q101 510 172 510Q211 510 225 499T239 460Q239 427 228 396Q212 404 191 404Q181 404 169 400T147 388L146 20Q146 9 141 6T109 1T33 0V465Z" />
<glyph unicode="s" glyph-name="s" horiz-adv-x="319" d="M19 -10T19 49Q19 78 37 111Q78 89 125 89Q151 89 164 100T177 132Q177 162 154 188L67 280Q42 306 30 334T18 386Q18 443 57 476T183 510Q257 510 281 492T306 447Q306 434 301 420T285 394Q246 415 198
415Q150 415 150 384Q150 374 156 363T180 334L254 259Q283 225 293 199T304 134Q304 67 259 29T137 -10Q19 -10 19 49Z" />
<glyph unicode="t" glyph-name="t" horiz-adv-x="284" d="M130 -10T108 6T78 52T70 131V406H9Q9 452 10 470T15 494T32 500H70V645Q70 663 79 670T108 678T181 680V500H263Q263 453 262 436T257 412T241 406H181V133Q181 109 185 97T205 84Q230 84 257 97Q264
64 264 44Q264 -10 173 -10Q130 -10 108 6Z" />
<glyph unicode="u" glyph-name="u" horiz-adv-x="359" d="M95 -10T62 27T29 141V480Q29 491 34 494T67 499T144 500V134Q144 108 151 97T179 85Q203 85 217 98V480Q217 491 221 494T253 499T328 500V28Q301 12 262 1T180 -10Q95 -10 62 27Z" />
<glyph unicode="v" glyph-name="v" horiz-adv-x="330" d="M107 -5T96 45L10 467Q8 479 8 482Q8 491 17 494T56 499T131 500L150 355Q157 301 163 221T170 116H172Q173 141 179 221T192 356L206 478Q208 490 213 494T239 499T323 500L223 0Q194 -5 142 -5Q107 -5 96 45Z" />
<glyph unicode="w" glyph-name="w" horiz-adv-x="526" d="M416 490T421 494T446 499T521 500Q507 422 466 211T421 0Q417 -1 399 -3T349 -5Q329 -5 313 7T292 45L282 111Q272 180 269 273Q261 159 253 111L235 0Q226 -1 195 -3T139 -5Q105 -5 94 44Q77 118 47
273T6 479Q4 490 11 494T40 499T129 500L149 359Q157 298 163 222T170 121H178L180 149Q182 215 189 267L217 468Q219 483 225 486T252 490H326L360 267Q364 240 367 189T372 121H380Q386 261 399 359L414 478Q416 490 421 494Z" />
<glyph unicode="x" glyph-name="x" horiz-adv-x="380" d="M372 14T372 11Q372 4 356 2T284 0H244L223 49Q208 84 180 166Q155 88 141 49L130 21Q126 10 117 6T79 1T7 0L125 259L22 482Q19 488 19 491Q19 497 39 498T139 500L162 445Q167 431 187 372L198 340Q217
402 234 445L249 481Q253 491 260 494T295 499T370 500L259 267L368 24Q372 14 372 11Z" />
<glyph unicode="y" glyph-name="y" horiz-adv-x="341" d="M29 -193T9 -180T-11 -143Q-11 -128 -7 -111T3 -83Q12 -90 31 -95T71 -100Q91 -100 103 -82T122 -16L12 471Q10 483 10 485Q10 493 18 496T53 499T121 500L151 325Q160 271 167 207T176 124Q177 143 183
206T197 325L217 469Q219 486 225 491T252 498T335 500L223 -23Q209 -90 192 -126T148 -177T81 -193Q29 -193 9 -180Z" />
<glyph unicode="z" glyph-name="z" horiz-adv-x="301" d="M27 1T23 7T14 25T10 55Q10 75 19 94L167 408H85Q46 408 18 403Q14 426 14 453Q14 478 22 489T49 500H280Q281 499 283 495T288 484T291 467Q291 445 278 415L140 102H196Q251 102 285 116Q289 100 289
68Q288 31 279 16T244 0H29Q27 1 23 7Z" />
<glyph unicode="{" glyph-name="braceleft" horiz-adv-x="266" d="M136 -149T105 -114T74 -13Q74 15 77 43T81 79Q88 130 88 170Q88 207 77 224T37 246Q28 265 28 290Q28 308 33 321T48 342Q62 352 70 360T83 385T88 432Q88 470 80 540Q74 602 74 624Q74 683 116
713T229 744Q239 729 244 711T250 675Q250 660 246 650T233 637Q187 630 187 564Q187 543 191 491Q196 414 196 394Q196 351 184 331T148 299Q173 288 184 267T196 203Q196 161 191 114Q187 62 187 41Q187 -2 200 -22T242 -47Q245 -74 245 -89Q245 -116 235 -132T208
-149Q136 -149 105 -114Z" />
<glyph unicode="|" glyph-name="bar" horiz-adv-x="289" d="M88 786Q88 801 93 806T119 813T201 815V-174Q201 -188 196 -193T171 -199T88 -200V786Z" />
<glyph unicode="}" glyph-name="braceright" horiz-adv-x="266" d="M28 -135T23 -116T17 -80Q17 -47 34 -43Q80 -36 80 30Q80 52 76 104Q72 166 72 200Q72 244 83 264T118 296Q95 307 84 328T72 392Q72 423 76 481Q80 531 80 554Q80 596 67 616T25 642Q21 665
21 684Q21 711 31 727T60 744Q193 744 193 608Q193 568 186 517Q185 508 182 480T179 424Q179 386 190 370T229 348Q239 327 239 305Q239 269 218 253Q204 242 197 234T184 209T179 162Q179 124 187 54Q193 -8 193 -30Q193 -88 151 -118T38 -149Q28 -135 23 -116Z"
/>
<glyph unicode="~" glyph-name="asciitilde" horiz-adv-x="400" d="M232 199T216 205T185 221Q170 230 161 233T138 237Q125 237 115 232T90 218Q79 210 71 207T54 203Q35 203 23 222T9 273Q25 297 65 316T148 336Q172 336 186 331T218 316Q233 307 242 304T267
300Q294 300 328 328Q339 334 347 334Q366 334 379 314T393 263Q376 239 339 219T257 199Q232 199 216 205Z" />
<glyph unicode="&#xa0;" glyph-name="uni00A0" horiz-adv-x="141" />
<glyph unicode="&#xa1;" glyph-name="exclamdown" horiz-adv-x="202" d="M70 364T54 382T37 436Q37 466 56 486T108 507Q147 507 162 490T178 436Q178 406 159 385T108 364Q70 364 54 382ZM51 213Q53 238 62 248T92 262T162 265L183 -164Q184 -180 173 -186T132
-195T27 -197L51 213Z" />
<glyph unicode="&#xa2;" glyph-name="cent" horiz-adv-x="401" d="M267 92T287 96T320 106Q324 93 326 72T329 38Q329 23 310 10T264 -8V-85Q264 -110 241 -117T163 -125V-3Q117 9 95 60T73 232Q73 460 190 501V567Q190 593 214 602T291 611V504Q310 499 321 491T333
473Q333 422 323 395Q293 408 260 408Q238 408 222 397T194 349T183 239Q183 172 189 141T210 101T252 92Q267 92 287 96Z" />
<glyph unicode="&#xa3;" glyph-name="sterling" horiz-adv-x="347" d="M309 101Q317 76 317 51Q317 0 270 0H78Q67 109 65 275H15Q15 332 18 351T35 370H67Q74 486 114 540T228 595Q270 595 299 581T328 534Q328 517 325 504T315 469Q287 483 257 483Q223 483
203 458T177 370H287Q287 314 284 295T267 275H176Q178 164 183 109L309 101Z" />
<glyph unicode="&#xa4;" glyph-name="currency" horiz-adv-x="599" d="M592 37Q561 6 546 -7T521 -20Q515 -20 511 -16L426 69Q382 38 302 38Q218 38 172 68L75 -30Q42 3 30 17T17 41Q17 47 21 51L115 145Q98 190 98 266Q98 338 112 383L7 487Q40 520 54 532T79
545Q85 545 89 541L164 466Q211 503 304 503Q393 503 438 468L525 555Q557 523 569 508T582 483Q582 477 578 473L489 385Q501 343 501 282Q501 200 483 146L592 37ZM353 131T373 166T394 282Q394 353 375 383T309 413Q255 413 232 379T209 263Q209 192 231 162T305
131Q353 131 373 166Z" />
<glyph unicode="&#xa5;" glyph-name="yen" horiz-adv-x="401" d="M258 263H382Q382 211 375 192T341 172H258V20Q258 9 254 6T222 1T147 0V172H23Q23 225 30 244T64 263H147V287L130 342H23Q23 394 30 413T64 433H101L21 683Q18 692 23 695T61 699T148 700L176
569Q185 531 193 485T203 406Q206 438 214 485T232 570L260 680Q263 691 269 694T303 699T379 700L299 433H382Q382 381 375 362T341 342H272L258 295V263Z" />
<glyph unicode="&#xa6;" glyph-name="brokenbar" horiz-adv-x="229" d="M83 321T58 327V699Q58 725 70 734T117 744Q145 744 169 736V361Q169 344 165 336T149 324T112 321Q83 321 58 327ZM78 -198T58 -192V182Q58 208 70 217T117 227Q145 227 169 219V-158Q169
-176 165 -184T149 -195T112 -198Q78 -198 58 -192Z" />
<glyph unicode="&#xa7;" glyph-name="section" horiz-adv-x="326" d="M254 217T255 214T259 209Q275 184 282 164T289 122Q289 63 244 30T133 -4Q88 -4 63 9T30 40Q26 47 26 62Q26 98 45 130Q72 115 110 115Q135 115 148 123T161 146Q161 157 156 167T136 194L115
218Q66 274 50 298Q35 320 29 338T22 381Q22 406 34 432T71 480Q70 482 68 484T64 490Q47 515 40 535T33 577Q33 636 78 669T190 703Q234 703 259 690T292 660Q296 649 296 637Q296 604 277 569Q250 584 212 584Q187 584 174 576T161 553Q161 543 166 533T185 505L203
485Q255 428 272 401Q287 380 293 362T299 318Q299 294 287 268T251 220Q254 217 255 214ZM157 303T170 293Q182 298 189 309T197 329Q197 341 192 353T174 383Q164 396 153 406Q141 402 134 391T126 371Q126 358 131 346T149 316Q157 303 170 293Z" />
<glyph unicode="&#xa8;" glyph-name="dieresis" horiz-adv-x="280" d="M47 550T34 567T21 626Q21 660 35 680T79 700Q108 700 119 685T130 631Q130 592 115 571T72 550Q47 550 34 567ZM176 550T163 567T150 626Q150 660 165 680T209 700Q237 700 247 685T258 631Q258
592 244 571T202 550Q176 550 163 567Z" />
<glyph unicode="&#xa9;" glyph-name="copyright" horiz-adv-x="480" d="M132 319T82 374T32 542Q32 652 87 705T246 759Q352 759 400 710T448 545Q448 437 394 378T236 319Q132 319 82 374ZM293 396T329 430T365 545Q365 616 336 652T244 688Q113 688 113 545Q113
465 144 431T238 396Q293 396 329 430ZM215 425T198 433T172 464T163 534Q163 609 189 635T254 662Q268 662 282 657T297 645Q297 638 296 628T292 607Q270 612 259 612Q241 612 231 597T221 532Q221 506 224 494T234 478T255 474Q268 474 289 481Q295 468 295
445Q295 436 281 431T249 425Q215 425 198 433Z" />
<glyph unicode="&#xaa;" glyph-name="ordfeminine" horiz-adv-x="308" d="M108 288T84 297T45 333T30 413Q30 539 131 539Q160 539 187 530V564Q187 593 174 603T136 614Q98 614 49 595Q37 612 37 641Q37 662 44 672Q71 710 169 710Q221 710 249 683T278 602V317Q252
305 215 297T143 288Q108 288 84 297ZM165 364T173 366T187 373V456Q177 462 160 462Q139 462 129 452T118 412Q118 364 156 364Q165 364 173 366Z" />
<glyph unicode="&#xab;" glyph-name="guillemotleft" horiz-adv-x="414" d="M138 15T104 66T38 174T6 250Q6 270 37 325T103 433T148 500Q167 500 181 488T205 461T214 444Q214 421 191 378T142 298T109 250Q117 240 142 205T191 128T215 62Q215 60 206 44T183
14T149 0Q138 15 104 66ZM319 41T286 86T221 182T190 251Q190 270 221 320T285 416T329 476Q347 476 361 465T383 441T393 424Q393 403 371 365T325 293T294 251Q302 242 326 212T372 144T394 85Q392 81 384 67T362 40T329 27Q319 41 286 86Z" />
<glyph unicode="&#xac;" glyph-name="logicalnot" horiz-adv-x="400" d="M360 111Q336 102 309 102Q286 102 271 110T256 136V217H43Q34 243 34 269Q34 292 42 307T68 322H360V111Z" />
<glyph unicode="&#xad;" glyph-name="uni00AD" horiz-adv-x="264" d="M30 291T33 310T50 330H234Q234 273 231 254T214 234H30Q30 291 33 310Z" />
<glyph unicode="&#xae;" glyph-name="registered" horiz-adv-x="480" d="M352 759T400 710T448 545Q448 437 394 378T236 319Q132 319 82 374T32 542Q32 652 87 705T246 759Q352 759 400 710ZM293 396T329 430T365 545Q365 616 336 652T244 688Q113 688 113 545Q113
465 144 431T238 396Q293 396 329 430ZM311 501T313 432Q313 426 310 424T292 421L263 423Q262 487 242 511Q238 510 230 510H227V431Q227 427 225 426T212 424T182 423V657Q182 658 183 660T190 663H227Q306 663 306 590Q306 550 281 528Q311 501 313 432ZM227
624V553Q228 552 235 552Q245 552 250 561T256 595Q256 624 237 624H227Z" />
<glyph unicode="&#xaf;" glyph-name="overscore" horiz-adv-x="280" d="M-1 589T-1 617Q-1 641 11 656T44 672H270Q281 650 281 625Q281 600 270 584T239 568H7Q-1 589 -1 617Z" />
<glyph unicode="&#xb0;" glyph-name="degree" horiz-adv-x="343" d="M116 541T92 563T68 645Q68 750 175 750Q229 750 252 728T276 647Q276 541 169 541Q116 541 92 563ZM207 608T207 646Q207 682 175 682Q139 682 139 645Q139 608 171 608Q207 608 207 646Z" />
<glyph unicode="&#xb1;" glyph-name="plusminus" horiz-adv-x="403" d="M377 395Q377 338 374 319T357 299H250V192Q250 178 231 175T155 172V299H27Q27 356 30 375T47 395H155V502Q155 516 174 519T250 522V395H377ZM25 74T28 93T45 113H375Q375 56 372 37T355
17H25Q25 74 28 93Z" />
<glyph unicode="&#xb2;" glyph-name="uni00B2" horiz-adv-x="364" d="M27 306T27 323Q27 358 42 376Q68 409 120 463Q157 501 172 521T188 561Q188 578 178 587T141 597Q104 597 53 567Q42 590 39 603T36 633Q36 668 87 689T197 710Q268 710 297 684T326 606Q326
560 300 519T228 428Q206 404 197 393H330Q336 363 336 345Q336 289 302 289H35Q27 306 27 323Z" />
<glyph unicode="&#xb3;" glyph-name="uni00B3" horiz-adv-x="349" d="M292 503T308 479T324 428Q324 353 274 316T147 279Q109 279 83 285T43 301Q26 313 26 343Q26 359 32 375T50 402Q94 380 138 380Q209 380 209 420Q209 452 164 456Q150 458 106 458Q103 462
98 481T93 509Q93 525 100 533T126 541Q151 541 163 540Q187 558 187 580Q187 612 140 612Q94 612 52 586Q31 610 31 642Q31 665 43 675Q61 691 99 700T191 710Q311 710 311 621Q311 565 263 517Q292 503 308 479Z" />
<glyph unicode="&#xb4;" glyph-name="acute" horiz-adv-x="282" d="M80 549T71 562T56 590T50 610Q66 632 94 659T149 707T181 728Q198 728 212 703T232 646Q215 626 159 588T93 549Q80 549 71 562Z" />
<glyph unicode="&#xb5;" glyph-name="uni00B5" horiz-adv-x="367" d="M62 -196T29 -189V457Q29 482 42 494T86 506Q119 506 141 499V133Q141 94 181 94Q205 94 225 103V457Q225 483 236 494T280 506Q315 506 336 499V24Q305 9 264 0T178 -10Q153 -10 141 2V-150Q141
-196 79 -196Q62 -196 29 -189Z" />
<glyph unicode="&#xb6;" glyph-name="paragraph" horiz-adv-x="534" d="M256 -3T234 5V202Q211 191 166 191Q22 191 22 417Q22 575 74 642T219 710Q255 710 289 702T345 681V37Q345 -3 292 -3Q256 -3 234 5ZM413 -4T393 2V646Q393 671 405 681T451 691Q474 691
505 682V36Q505 11 494 4T446 -4Q413 -4 393 2ZM220 278T233 287V610Q221 617 203 617Q137 617 137 430Q137 342 153 310T196 278Q220 278 233 287Z" />
<glyph unicode="&#xb7;" glyph-name="middot" horiz-adv-x="235" d="M79 197T63 214T47 268Q47 299 66 320T118 341Q156 341 172 322T188 268Q188 238 169 218T118 197Q79 197 63 214Z" />
<glyph unicode="&#xb8;" glyph-name="cedilla" horiz-adv-x="280" d="M185 -57T200 -75T215 -128Q215 -167 191 -194T125 -221Q110 -221 97 -218T75 -211T65 -206Q66 -199 71 -179T81 -155Q84 -152 93 -156T109 -164T127 -168Q155 -168 155 -136Q155 -120 149
-112T129 -104Q110 -104 99 -106T84 -110L103 2H159L148 -57H164Q185 -57 200 -75Z" />
<glyph unicode="&#xb9;" glyph-name="uni00B9" horiz-adv-x="352" d="M26 314T26 337Q26 365 33 379T62 393H133V588L42 572Q29 595 29 624Q29 661 63 675Q97 688 144 699T214 710Q222 710 231 709T246 706V393H321Q326 363 326 345Q326 314 319 302T294 289H32Q26
314 26 337Z" />
<glyph unicode="&#xba;" glyph-name="ordmasculine" horiz-adv-x="326" d="M114 289T85 308T42 373T27 499Q27 710 168 710Q215 710 243 692T285 629T299 502Q299 289 159 289Q114 289 85 308ZM184 378T195 404T207 497Q207 544 203 569T191 603T167 613Q143 613
131 587T119 495Q119 427 128 403T160 378Q184 378 195 404Z" />
<glyph unicode="&#xbb;" glyph-name="guillemotright" horiz-adv-x="414" d="M265 -1T247 7T214 28T199 62Q199 86 222 127T271 204T305 250Q297 261 272 298T224 378T200 444Q200 461 214 473T245 492T266 500Q277 485 311 433T376 326T408 250Q408 230 376 174T310
67T265 0Q265 -1 247 7ZM80 22T64 30T34 51T20 85Q20 109 42 145T88 212T119 250Q121 250 112 263T98 283Q62 333 42 367T21 424Q21 441 34 453T61 472T80 480Q91 466 125 419T190 321T222 250Q222 230 191 180T125 83T80 23Q80 22 64 30Z" />
<glyph unicode="&#xbc;" glyph-name="onequarter" horiz-adv-x="927" d="M26 315T26 337Q26 366 33 379T62 393H133V588L42 572Q29 593 29 624Q29 661 63 675Q97 688 144 699T214 710Q222 710 231 709T246 706V393H321Q326 363 326 345Q326 314 319 302T294 289H31Q26
315 26 337ZM339 -10T317 0T276 27L540 683Q548 710 578 710Q596 710 616 701T655 673L388 11Q385 2 377 -4T356 -10Q339 -10 317 0ZM774 -7T748 -1V65H594Q574 86 574 123Q574 139 580 158Q596 212 633 275T704 376Q727 403 751 412T805 421Q827 421 851 415V170H898Q907
147 907 120Q907 94 897 80T872 65H851V25Q851 -7 793 -7Q774 -7 748 -1ZM752 162L758 301Q731 284 707 243T673 162H752Z" />
<glyph unicode="&#xbd;" glyph-name="onehalf" horiz-adv-x="910" d="M26 315T26 337Q26 366 33 379T62 393H133V588L42 572Q29 593 29 624Q29 661 63 675Q97 688 144 699T214 710Q222 710 231 709T246 706V393H321Q326 363 326 345Q326 314 319 302T294 289H31Q26
315 26 337ZM339 -10T317 0T276 27L540 683Q548 710 578 710Q596 710 616 701T655 673L388 11Q385 2 377 -4T356 -10Q339 -10 317 0ZM574 17T574 34Q574 69 589 87Q615 120 667 174Q704 212 719 232T735 272Q735 289 725 298T688 308Q651 308 600 278Q589 301 586
314T582 344Q582 379 634 400T744 421Q815 421 844 395T873 317Q873 271 847 230T775 139Q753 115 744 104H877Q883 74 883 56Q883 0 848 0H582Q574 17 574 34Z" />
<glyph unicode="&#xbe;" glyph-name="threequarters" horiz-adv-x="924" d="M291 503T307 479T323 428Q323 353 273 316T146 279Q75 279 43 301Q26 312 26 343Q26 360 32 376T50 402Q92 380 138 380Q208 380 208 420Q208 452 164 456Q150 458 106 458Q103 462
98 481T93 509Q93 524 100 532T125 541Q151 541 163 540Q186 558 186 580Q186 612 140 612Q93 612 52 586Q42 598 37 613T31 642Q31 665 42 675Q60 691 98 700T191 710Q251 710 281 687T311 621Q311 565 263 517Q291 503 307 479ZM336 -10T314 0T273 27L537 683Q545
710 575 710Q593 710 613 701T652 673L385 11Q382 2 374 -4T353 -10Q336 -10 314 0ZM771 -7T745 -1V65H591Q571 86 571 123Q571 139 577 158Q593 212 630 275T701 376Q724 403 748 412T802 421Q824 421 848 415V170H895Q904 147 904 120Q904 94 894 80T869 65H848V25Q848
-7 790 -7Q771 -7 745 -1ZM749 162L755 301Q728 284 704 243T670 162H749Z" />
<glyph unicode="&#xbf;" glyph-name="questiondown" horiz-adv-x="312" d="M129 363T113 381T96 435Q96 465 115 485T167 506Q206 506 222 489T238 435Q238 405 219 384T167 363Q129 363 113 381ZM84 -196T49 -158T14 -59Q14 -17 23 15T45 70T81 125Q107 161 118
181Q124 193 124 207Q124 220 118 244Q113 261 113 270Q113 277 116 281Q128 294 181 294Q197 294 217 292Q219 289 223 278T232 250T236 212Q236 182 223 155Q211 132 197 109T178 77Q155 41 145 19T135 -29Q135 -56 149 -70T198 -84Q218 -84 233 -80T257 -70T267
-63Q285 -110 285 -152Q285 -172 243 -184T153 -196Q84 -196 49 -158Z" />
<glyph unicode="&#xc0;" glyph-name="Agrave" horiz-adv-x="437" d="M436 8T426 3T384 -2Q349 -2 320 0L287 160H152L123 19Q120 7 112 3T72 -2Q37 -2 2 2L169 681Q173 702 214 702Q248 702 267 698L434 18Q436 8 426 3ZM266 260L246 354Q231 426 220 543Q206
416 193 354L173 260H266ZM267 740T212 778T138 837Q143 867 157 892T189 918Q198 918 247 876T320 800Q319 795 314 781T300 753T277 739Q267 740 212 778Z" />
<glyph unicode="&#xc1;" glyph-name="Aacute" horiz-adv-x="437" d="M436 8T426 3T384 -2Q349 -2 320 0L287 160H152L123 19Q120 7 112 3T72 -2Q37 -2 2 2L169 681Q173 702 214 702Q248 702 267 698L434 18Q436 8 426 3ZM266 260L246 354Q231 426 220 543Q206
416 193 354L173 260H266ZM168 749T159 762T144 790T138 810Q154 832 182 859T237 907T269 928Q286 928 300 903T320 846Q303 826 247 788T181 749Q168 749 159 762Z" />
<glyph unicode="&#xc2;" glyph-name="Acircumflex" horiz-adv-x="437" d="M436 8T426 3T384 -2Q349 -2 320 0L287 160H152L123 19Q120 7 112 3T72 -2Q37 -2 2 2L169 681Q173 702 214 702Q248 702 267 698L434 18Q436 8 426 3ZM266 260L246 354Q231 426 220 543Q206
416 193 354L173 260H266ZM273 752T264 761T244 786T223 819Q220 814 210 798T185 766T160 751Q108 751 85 780L202 914Q212 917 224 917Q242 917 255 903Q262 896 285 871T331 817T353 777Q353 750 276 750Q273 752 264 761Z" />
<glyph unicode="&#xc3;" glyph-name="Atilde" horiz-adv-x="437" d="M436 8T426 3T384 -2Q349 -2 320 0L287 160H152L123 19Q120 7 112 3T72 -2Q37 -2 2 2L169 681Q173 702 214 702Q248 702 267 698L434 18Q436 8 426 3ZM266 260L246 354Q231 426 220 543Q206
416 193 354L173 260H266ZM235 746T226 752T207 769Q199 779 193 783T174 788Q155 788 137 768Q127 756 120 756Q106 756 95 768T76 793T67 811Q92 852 127 873T193 894Q207 894 216 889T236 872Q247 861 255 856T275 851Q292 851 300 856T318 871Q321 875 325
878T335 882Q344 882 352 868T365 840T371 820Q371 818 352 799T307 763T253 746Q235 746 226 752Z" />
<glyph unicode="&#xc4;" glyph-name="Adieresis" horiz-adv-x="437" d="M436 8T426 3T384 -2Q349 -2 320 0L287 160H152L123 19Q120 7 112 3T72 -2Q37 -2 2 2L169 681Q173 702 214 702Q248 702 267 698L434 18Q436 8 426 3ZM266 260L246 354Q231 426 220 543Q206
416 193 354L173 260H266ZM126 750T113 767T100 826Q100 860 114 880T158 900Q187 900 198 885T209 831Q209 792 194 771T151 750Q126 750 113 767ZM255 750T242 767T229 826Q229 860 244 880T288 900Q316 900 326 885T337 831Q337 792 323 771T281 750Q255 750
242 767Z" />
<glyph unicode="&#xc5;" glyph-name="Aring" horiz-adv-x="437" d="M436 8T426 3T384 -2Q349 -2 320 0L287 160H152L123 19Q120 7 112 3T72 -2Q37 -2 2 2L169 681Q173 702 214 702Q248 702 267 698L434 18Q436 8 426 3ZM266 260L246 354Q231 426 220 543Q206 416
193 354L173 260H266ZM164 729T140 751T115 833Q115 938 223 938Q277 938 300 916T324 835Q324 729 217 729Q164 729 140 751ZM249 801T249 834Q249 866 223 866Q191 866 191 833Q191 801 219 801Q249 801 249 834Z" />
<glyph unicode="&#xc6;" glyph-name="AE" horiz-adv-x="583" d="M424 99H566Q566 59 565 35T561 6T546 0H313V160H185L137 19Q133 7 123 3T86 -2Q51 -2 16 2L269 681Q275 700 305 700H573Q573 662 572 638T567 608T553 601H424V430H546Q546 393 545 369T541 336T527
328H424V99ZM313 260V583Q285 456 249 351L218 260H313Z" />
<glyph unicode="&#xc7;" glyph-name="Ccedilla" horiz-adv-x="325" d="M266 114T294 129Q309 99 309 64Q309 34 284 15T213 -9L204 -57H220Q241 -57 256 -75T271 -128Q271 -167 247 -194T181 -221Q166 -221 153 -218T131 -211T121 -206Q122 -199 127 -179T137
-155Q140 -152 149 -156T165 -164T183 -168Q211 -168 211 -136Q211 -120 205 -112T185 -104Q166 -104 155 -106T140 -110L157 -8Q109 -3 80 28T35 130T20 327Q20 710 220 710Q278 710 296 695T315 651Q315 618 299 584Q276 601 247 601Q197 601 167 544T137 336Q137
249 145 201T170 134T216 114Q266 114 294 129Z" />
<glyph unicode="&#xc8;" glyph-name="Egrave" horiz-adv-x="301" d="M141 99H283Q283 59 282 35T278 6T264 0H30V680Q30 685 34 692T50 700H290Q290 662 289 638T284 608T270 601H141V430H263Q263 393 262 369T258 336T245 328H141V99ZM203 740T148 778T74 837Q79
867 93 892T125 918Q134 918 183 876T256 800Q255 795 250 781T236 753T213 739Q203 740 148 778Z" />
<glyph unicode="&#xc9;" glyph-name="Eacute" horiz-adv-x="301" d="M141 99H283Q283 59 282 35T278 6T264 0H30V680Q30 685 34 692T50 700H290Q290 662 289 638T284 608T270 601H141V430H263Q263 393 262 369T258 336T245 328H141V99ZM104 749T95 762T80 790T74
810Q90 832 118 859T173 907T205 928Q222 928 236 903T256 846Q239 826 183 788T117 749Q104 749 95 762Z" />
<glyph unicode="&#xca;" glyph-name="Ecircumflex" horiz-adv-x="301" d="M141 99H283Q283 59 282 35T278 6T264 0H30V680Q30 685 34 692T50 700H290Q290 662 289 638T284 608T270 601H141V430H263Q263 393 262 369T258 336T245 328H141V99ZM209 752T200 761T180
786T159 819Q156 814 146 798T121 766T96 751Q44 751 21 780L138 914Q148 917 160 917Q178 917 191 903Q198 896 221 871T267 817T289 777Q289 750 212 750Q209 752 200 761Z" />
<glyph unicode="&#xcb;" glyph-name="Edieresis" horiz-adv-x="301" d="M141 99H283Q283 59 282 35T278 6T264 0H30V680Q30 685 34 692T50 700H290Q290 662 289 638T284 608T270 601H141V430H263Q263 393 262 369T258 336T245 328H141V99ZM62 750T49 767T36 826Q36
860 50 880T94 900Q123 900 134 885T145 831Q145 792 130 771T87 750Q62 750 49 767ZM191 750T178 767T165 826Q165 860 180 880T224 900Q252 900 262 885T273 831Q273 792 259 771T217 750Q191 750 178 767Z" />
<glyph unicode="&#xcc;" glyph-name="Igrave" horiz-adv-x="174" d="M30 651Q30 678 35 687T61 698T143 700V20Q143 9 138 6T105 1T30 0V651ZM135 740T80 778T6 837Q11 867 25 892T57 918Q66 918 115 876T188 800Q187 795 182 781T168 753T145 739Q135 740 80 778Z" />
<glyph unicode="&#xcd;" glyph-name="Iacute" horiz-adv-x="174" d="M30 651Q30 678 35 687T61 698T143 700V20Q143 9 138 6T105 1T30 0V651ZM36 749T27 762T12 790T6 810Q22 832 50 859T105 907T137 928Q154 928 168 903T188 846Q171 826 115 788T49 749Q36 749 27 762Z" />
<glyph unicode="&#xce;" glyph-name="Icircumflex" horiz-adv-x="174" d="M30 651Q30 678 35 687T61 698T143 700V20Q143 9 138 6T105 1T30 0V651ZM141 752T132 761T112 786T91 819Q88 814 78 798T53 766T28 751Q-24 751 -47 780L70 914Q80 917 92 917Q110 917
123 903Q130 896 153 871T199 817T221 777Q221 750 144 750Q141 752 132 761Z" />
<glyph unicode="&#xcf;" glyph-name="Idieresis" horiz-adv-x="174" d="M30 651Q30 678 35 687T61 698T143 700V20Q143 9 138 6T105 1T30 0V651ZM-6 750T-19 767T-32 826Q-32 860 -18 880T26 900Q55 900 66 885T77 831Q77 792 62 771T19 750Q-6 750 -19 767ZM123
750T110 767T97 826Q97 860 112 880T156 900Q184 900 194 885T205 831Q205 792 191 771T149 750Q123 750 110 767Z" />
<glyph unicode="&#xd0;" glyph-name="Eth" horiz-adv-x="361" d="M224 700T266 675T329 584T350 397Q350 256 331 169T269 41T159 0H30V315H-4Q-4 372 -1 391T16 411H30V680Q30 690 36 695T58 700H154Q224 700 266 675ZM181 105T194 126T215 212T223 397Q223 483
216 526T195 584T161 599H141V411H192Q192 354 189 335T173 315H141V106L162 105Q181 105 194 126Z" />
<glyph unicode="&#xd1;" glyph-name="Ntilde" horiz-adv-x="430" d="M289 691T294 694T327 699T400 700V20Q400 11 395 6T380 0H294L188 268Q162 335 128 490Q141 362 141 260V20Q141 9 136 6T104 1T30 0V680Q30 700 50 700H138L243 437Q268 374 302 225Q289 346
289 447V680Q289 691 294 694ZM231 746T222 752T203 769Q195 779 189 783T170 788Q151 788 133 768Q123 756 116 756Q102 756 91 768T72 793T63 811Q88 852 123 873T189 894Q203 894 212 889T232 872Q243 861 251 856T271 851Q288 851 296 856T314 871Q317 875
321 878T331 882Q340 882 348 868T361 840T367 820Q367 818 348 799T303 763T249 746Q231 746 222 752Z" />
<glyph unicode="&#xd2;" glyph-name="Ograve" horiz-adv-x="410" d="M131 -10T93 20T38 128T20 354Q20 488 40 566T102 677T211 710Q278 710 316 679T371 572T389 358Q389 218 369 138T309 24T200 -10Q131 -10 93 20ZM231 105T244 130T262 207T267 354Q267 451
264 500T248 572T209 595Q185 595 172 570T153 487T147 329Q147 244 151 197T168 128T206 105Q231 105 244 130ZM253 740T198 778T124 837Q129 867 143 892T175 918Q184 918 233 876T306 800Q305 795 300 781T286 753T263 739Q253 740 198 778Z" />
<glyph unicode="&#xd3;" glyph-name="Oacute" horiz-adv-x="410" d="M131 -10T93 20T38 128T20 354Q20 488 40 566T102 677T211 710Q278 710 316 679T371 572T389 358Q389 218 369 138T309 24T200 -10Q131 -10 93 20ZM231 105T244 130T262 207T267 354Q267 451
264 500T248 572T209 595Q185 595 172 570T153 487T147 329Q147 244 151 197T168 128T206 105Q231 105 244 130ZM154 749T145 762T130 790T124 810Q140 832 168 859T223 907T255 928Q272 928 286 903T306 846Q289 826 233 788T167 749Q154 749 145 762Z" />
<glyph unicode="&#xd4;" glyph-name="Ocircumflex" horiz-adv-x="410" d="M131 -10T93 20T38 128T20 354Q20 488 40 566T102 677T211 710Q278 710 316 679T371 572T389 358Q389 218 369 138T309 24T200 -10Q131 -10 93 20ZM231 105T244 130T262 207T267 354Q267
451 264 500T248 572T209 595Q185 595 172 570T153 487T147 329Q147 244 151 197T168 128T206 105Q231 105 244 130ZM259 752T250 761T230 786T209 819Q206 814 196 798T171 766T146 751Q94 751 71 780L188 914Q198 917 210 917Q228 917 241 903Q248 896 271 871T317
817T339 777Q339 750 262 750Q259 752 250 761Z" />
<glyph unicode="&#xd5;" glyph-name="Otilde" horiz-adv-x="410" d="M131 -10T93 20T38 128T20 354Q20 488 40 566T102 677T211 710Q278 710 316 679T371 572T389 358Q389 218 369 138T309 24T200 -10Q131 -10 93 20ZM231 105T244 130T262 207T267 354Q267 451
264 500T248 572T209 595Q185 595 172 570T153 487T147 329Q147 244 151 197T168 128T206 105Q231 105 244 130ZM221 746T212 752T193 769Q185 779 179 783T160 788Q141 788 123 768Q113 756 106 756Q92 756 81 768T62 793T53 811Q78 852 113 873T179 894Q193 894
202 889T222 872Q233 861 241 856T261 851Q278 851 286 856T304 871Q307 875 311 878T321 882Q330 882 338 868T351 840T357 820Q357 818 338 799T293 763T239 746Q221 746 212 752Z" />
<glyph unicode="&#xd6;" glyph-name="Odieresis" horiz-adv-x="410" d="M131 -10T93 20T38 128T20 354Q20 488 40 566T102 677T211 710Q278 710 316 679T371 572T389 358Q389 218 369 138T309 24T200 -10Q131 -10 93 20ZM231 105T244 130T262 207T267 354Q267
451 264 500T248 572T209 595Q185 595 172 570T153 487T147 329Q147 244 151 197T168 128T206 105Q231 105 244 130ZM112 750T99 767T86 826Q86 860 100 880T144 900Q173 900 184 885T195 831Q195 792 180 771T137 750Q112 750 99 767ZM241 750T228 767T215 826Q215
860 230 880T274 900Q302 900 312 885T323 831Q323 792 309 771T267 750Q241 750 228 767Z" />
<glyph unicode="&#xd7;" glyph-name="multiply" horiz-adv-x="401" d="M266 282L348 192Q311 156 298 145T276 134Q271 134 267 138L201 211L134 138Q130 134 125 134Q115 134 101 146T53 192L135 282L53 372Q86 405 100 417T125 430Q130 430 134 426L201 353L267
426Q271 430 276 430Q285 430 298 419T348 372L266 282Z" />
<glyph unicode="&#xd8;" glyph-name="Oslash" horiz-adv-x="420" d="M429 677T414 629T383 534Q394 469 394 358Q394 218 374 138T314 24T205 -10Q163 -10 134 0T84 35L63 -15Q44 -16 22 -6T-3 18Q-5 26 41 136Q25 213 25 354Q25 489 45 566T105 677T213 710Q255
710 285 699T336 662Q340 671 347 692T359 719Q364 719 379 716T410 705T428 686Q429 677 414 629ZM152 268L251 574Q238 596 212 596Q189 596 176 571T158 488T152 329V268ZM224 105T239 120T263 190T272 354V417Q248 341 200 199L173 117Q183 105 201 105Q224
105 239 120Z" />
<glyph unicode="&#xd9;" glyph-name="Ugrave" horiz-adv-x="412" d="M135 -10T96 16T43 85T30 192V679Q30 691 35 694T60 699T145 700V188Q145 136 158 114T209 92Q246 92 268 104V679Q268 691 273 694T298 699T381 700V28Q359 14 313 2T209 -10Q135 -10 96 16ZM254
740T199 778T125 837Q130 867 144 892T176 918Q185 918 234 876T307 800Q306 795 301 781T287 753T264 739Q254 740 199 778Z" />
<glyph unicode="&#xda;" glyph-name="Uacute" horiz-adv-x="412" d="M135 -10T96 16T43 85T30 192V679Q30 691 35 694T60 699T145 700V188Q145 136 158 114T209 92Q246 92 268 104V679Q268 691 273 694T298 699T381 700V28Q359 14 313 2T209 -10Q135 -10 96 16ZM155
749T146 762T131 790T125 810Q141 832 169 859T224 907T256 928Q273 928 287 903T307 846Q290 826 234 788T168 749Q155 749 146 762Z" />
<glyph unicode="&#xdb;" glyph-name="Ucircumflex" horiz-adv-x="412" d="M135 -10T96 16T43 85T30 192V679Q30 691 35 694T60 699T145 700V188Q145 136 158 114T209 92Q246 92 268 104V679Q268 691 273 694T298 699T381 700V28Q359 14 313 2T209 -10Q135 -10
96 16ZM260 752T251 761T231 786T210 819Q207 814 197 798T172 766T147 751Q95 751 72 780L189 914Q199 917 211 917Q229 917 242 903Q249 896 272 871T318 817T340 777Q340 750 263 750Q260 752 251 761Z" />
<glyph unicode="&#xdc;" glyph-name="Udieresis" horiz-adv-x="412" d="M135 -10T96 16T43 85T30 192V679Q30 691 35 694T60 699T145 700V188Q145 136 158 114T209 92Q246 92 268 104V679Q268 691 273 694T298 699T381 700V28Q359 14 313 2T209 -10Q135 -10 96
16ZM113 750T100 767T87 826Q87 860 101 880T145 900Q174 900 185 885T196 831Q196 792 181 771T138 750Q113 750 100 767ZM242 750T229 767T216 826Q216 860 231 880T275 900Q303 900 313 885T324 831Q324 792 310 771T268 750Q242 750 229 767Z" />
<glyph unicode="&#xdd;" glyph-name="Yacute" horiz-adv-x="368" d="M242 20Q242 9 238 6T206 1T131 0V288L6 683Q3 692 8 695T46 699T133 700L162 569Q170 534 179 473T191 376Q194 411 203 472T221 570L245 680Q248 691 254 694T288 699T364 700L242 292V20ZM133
749T124 762T109 790T103 810Q119 832 147 859T202 907T234 928Q251 928 265 903T285 846Q268 826 212 788T146 749Q133 749 124 762Z" />
<glyph unicode="&#xde;" glyph-name="Thorn" horiz-adv-x="349" d="M30 673Q30 685 36 690T57 698T106 700H141V570H144Q211 570 253 552T317 489T339 364Q339 240 286 190T149 140H141V20Q141 9 135 6T102 1T30 0V673ZM188 242T201 270T214 378Q214 427 204 450T169
474Q151 474 141 471V246Q142 246 147 244T162 242Q188 242 201 270Z" />
<glyph unicode="&#xdf;" glyph-name="germandbls" horiz-adv-x="458" d="M68 -10T55 -7T34 -1T26 4Q27 7 30 18T37 50T40 97L36 550Q36 627 80 666T202 705Q306 705 357 665T409 559Q409 527 397 509T360 470Q341 454 332 442T323 411Q323 396 333 380T367 336Q408
286 431 243T455 141Q455 74 416 33T307 -9Q248 -9 217 5T186 39Q186 65 193 81T213 112Q215 110 223 105T246 95T278 90Q329 90 329 141Q329 169 314 196T269 260Q235 304 218 336T200 405Q200 439 214 461T254 505Q272 521 280 532T289 559Q289 579 268 590T208
602Q171 602 160 577T148 489L152 63Q152 22 140 6T87 -10Q68 -10 55 -7Z" />
<glyph unicode="&#xe0;" glyph-name="agrave" horiz-adv-x="339" d="M119 -10T89 1T39 46T20 146Q20 240 52 275T136 311Q151 311 169 308T200 296V365Q200 385 191 394T158 403Q130 403 96 397T37 382Q22 411 22 446Q22 456 26 466T36 481Q49 491 90 500T185
510Q254 510 282 483T311 388V341Q311 96 306 22Q252 -10 162 -10Q119 -10 89 1ZM189 81T198 91Q200 114 200 221Q190 230 173 230Q155 230 146 213T137 149Q137 112 144 97T170 81Q189 81 198 91ZM217 540T162 578T88 637Q93 667 107 692T139 718Q148 718 197
676T270 600Q269 595 264 581T250 553T227 539Q217 540 162 578Z" />
<glyph unicode="&#xe1;" glyph-name="aacute" horiz-adv-x="339" d="M119 -10T89 1T39 46T20 146Q20 240 52 275T136 311Q151 311 169 308T200 296V365Q200 385 191 394T158 403Q130 403 96 397T37 382Q22 411 22 446Q22 456 26 466T36 481Q49 491 90 500T185
510Q254 510 282 483T311 388V341Q311 96 306 22Q252 -10 162 -10Q119 -10 89 1ZM189 81T198 91Q200 114 200 221Q190 230 173 230Q155 230 146 213T137 149Q137 112 144 97T170 81Q189 81 198 91ZM118 549T109 562T94 590T88 610Q104 632 132 659T187 707T219
728Q236 728 250 703T270 646Q253 626 197 588T131 549Q118 549 109 562Z" />
<glyph unicode="&#xe2;" glyph-name="acircumflex" horiz-adv-x="339" d="M119 -10T89 1T39 46T20 146Q20 240 52 275T136 311Q151 311 169 308T200 296V365Q200 385 191 394T158 403Q130 403 96 397T37 382Q22 411 22 446Q22 456 26 466T36 481Q49 491 90 500T185
510Q254 510 282 483T311 388V341Q311 96 306 22Q252 -10 162 -10Q119 -10 89 1ZM189 81T198 91Q200 114 200 221Q190 230 173 230Q155 230 146 213T137 149Q137 112 144 97T170 81Q189 81 198 91ZM223 552T214 561T194 586T173 619Q170 614 160 598T135 566T110
551Q58 551 35 580L152 714Q162 717 174 717Q192 717 205 703Q212 696 235 671T281 617T303 577Q303 550 226 550Q223 552 214 561Z" />
<glyph unicode="&#xe3;" glyph-name="atilde" horiz-adv-x="339" d="M119 -10T89 1T39 46T20 146Q20 240 52 275T136 311Q151 311 169 308T200 296V365Q200 385 191 394T158 403Q130 403 96 397T37 382Q22 411 22 446Q22 456 26 466T36 481Q49 491 90 500T185
510Q254 510 282 483T311 388V341Q311 96 306 22Q252 -10 162 -10Q119 -10 89 1ZM189 81T198 91Q200 114 200 221Q190 230 173 230Q155 230 146 213T137 149Q137 112 144 97T170 81Q189 81 198 91ZM185 546T176 552T157 569Q149 579 143 583T124 588Q105 588 87
568Q77 556 70 556Q56 556 45 568T26 593T17 611Q42 652 77 673T143 694Q157 694 166 689T186 672Q197 661 205 656T225 651Q242 651 250 656T268 671Q271 675 275 678T285 682Q294 682 302 668T315 640T321 620Q321 618 302 599T257 563T203 546Q185 546 176 552Z"
/>
<glyph unicode="&#xe4;" glyph-name="adieresis" horiz-adv-x="339" d="M119 -10T89 1T39 46T20 146Q20 240 52 275T136 311Q151 311 169 308T200 296V365Q200 385 191 394T158 403Q130 403 96 397T37 382Q22 411 22 446Q22 456 26 466T36 481Q49 491 90 500T185
510Q254 510 282 483T311 388V341Q311 96 306 22Q252 -10 162 -10Q119 -10 89 1ZM189 81T198 91Q200 114 200 221Q190 230 173 230Q155 230 146 213T137 149Q137 112 144 97T170 81Q189 81 198 91ZM76 550T63 567T50 626Q50 660 64 680T108 700Q137 700 148 685T159
631Q159 592 144 571T101 550Q76 550 63 567ZM205 550T192 567T179 626Q179 660 194 680T238 700Q266 700 276 685T287 631Q287 592 273 571T231 550Q205 550 192 567Z" />
<glyph unicode="&#xe5;" glyph-name="aring" horiz-adv-x="339" d="M119 -10T89 1T39 46T20 146Q20 240 52 275T136 311Q151 311 169 308T200 296V365Q200 385 191 394T158 403Q130 403 96 397T37 382Q22 411 22 446Q22 456 26 466T36 481Q49 491 90 500T185 510Q254
510 282 483T311 388V341Q311 96 306 22Q252 -10 162 -10Q119 -10 89 1ZM189 81T198 91Q200 114 200 221Q190 230 173 230Q155 230 146 213T137 149Q137 112 144 97T170 81Q189 81 198 91ZM114 529T90 551T65 633Q65 738 173 738Q227 738 250 716T274 635Q274 529
167 529Q114 529 90 551ZM199 601T199 634Q199 666 173 666Q141 666 141 633Q141 601 169 601Q199 601 199 634Z" />
<glyph unicode="&#xe6;" glyph-name="ae" horiz-adv-x="537" d="M410 98T437 105T494 126Q498 112 500 84T503 28Q503 20 484 12T431 -3T361 -9Q305 -9 277 12Q234 -10 162 -10Q117 -10 88 0T39 46T20 156Q20 250 52 290T132 331Q177 331 200 316V374Q200 393
187 402T152 412Q85 412 37 386Q28 401 25 420T22 453Q22 461 26 470T34 482Q48 493 88 501T192 510Q226 510 246 501T277 472Q296 494 321 502T382 510Q510 510 510 347Q510 260 496 205Q457 200 413 200Q361 200 321 207Q322 159 327 136T343 106T376 98Q410
98 437 105ZM346 414T336 385T322 293Q352 286 378 286Q391 286 397 287Q402 302 402 339Q402 385 395 399T367 414Q346 414 336 385ZM200 242Q189 249 173 249Q137 249 137 159Q137 125 139 109T148 87T168 81Q176 81 186 83T200 91V242Z" />
<glyph unicode="&#xe7;" glyph-name="ccedilla" horiz-adv-x="292" d="M220 88T238 92T268 102Q277 66 277 44Q277 19 247 5T168 -10H164L155 -57H171Q192 -57 207 -75T222 -128Q222 -167 198 -194T132 -221Q117 -221 104 -218T82 -211T72 -206Q73 -199 78 -179T88
-155Q91 -152 100 -156T116 -164T134 -168Q162 -168 162 -136Q162 -120 156 -112T136 -104Q117 -104 106 -106T91 -110L109 -3Q62 12 41 66T20 239Q20 351 45 411T109 490T198 510Q235 510 258 497T281 459Q281 429 271 400Q258 405 241 409T208 413Q175 413 156
379T136 241Q136 181 142 149T162 102T204 88Q220 88 238 92Z" />
<glyph unicode="&#xe8;" glyph-name="egrave" horiz-adv-x="345" d="M250 98T308 126Q317 96 317 52Q317 23 277 7T175 -10Q100 -10 60 41T20 226Q20 340 43 403T105 488T196 510Q324 510 324 347Q324 260 310 205Q253 193 136 191Q139 140 153 119T202 98Q250
98 308 126ZM159 414T149 381T136 278Q192 278 211 287Q216 302 216 339Q216 385 209 399T182 414Q159 414 149 381ZM221 540T166 578T92 637Q97 667 111 692T143 718Q152 718 201 676T274 600Q273 595 268 581T254 553T231 539Q221 540 166 578Z" />
<glyph unicode="&#xe9;" glyph-name="eacute" horiz-adv-x="345" d="M250 98T308 126Q317 96 317 52Q317 23 277 7T175 -10Q100 -10 60 41T20 226Q20 340 43 403T105 488T196 510Q324 510 324 347Q324 260 310 205Q253 193 136 191Q139 140 153 119T202 98Q250
98 308 126ZM159 414T149 381T136 278Q192 278 211 287Q216 302 216 339Q216 385 209 399T182 414Q159 414 149 381ZM122 549T113 562T98 590T92 610Q108 632 136 659T191 707T223 728Q240 728 254 703T274 646Q257 626 201 588T135 549Q122 549 113 562Z" />
<glyph unicode="&#xea;" glyph-name="ecircumflex" horiz-adv-x="345" d="M250 98T308 126Q317 96 317 52Q317 23 277 7T175 -10Q100 -10 60 41T20 226Q20 340 43 403T105 488T196 510Q324 510 324 347Q324 260 310 205Q253 193 136 191Q139 140 153 119T202 98Q250
98 308 126ZM159 414T149 381T136 278Q192 278 211 287Q216 302 216 339Q216 385 209 399T182 414Q159 414 149 381ZM227 552T218 561T198 586T177 619Q174 614 164 598T139 566T114 551Q62 551 39 580L156 714Q166 717 178 717Q196 717 209 703Q216 696 239 671T285
617T307 577Q307 550 230 550Q227 552 218 561Z" />
<glyph unicode="&#xeb;" glyph-name="edieresis" horiz-adv-x="345" d="M250 98T308 126Q317 96 317 52Q317 23 277 7T175 -10Q100 -10 60 41T20 226Q20 340 43 403T105 488T196 510Q324 510 324 347Q324 260 310 205Q253 193 136 191Q139 140 153 119T202 98Q250
98 308 126ZM159 414T149 381T136 278Q192 278 211 287Q216 302 216 339Q216 385 209 399T182 414Q159 414 149 381ZM80 550T67 567T54 626Q54 660 68 680T112 700Q141 700 152 685T163 631Q163 592 148 571T105 550Q80 550 67 567ZM209 550T196 567T183 626Q183
660 198 680T242 700Q270 700 280 685T291 631Q291 592 277 571T235 550Q209 550 196 567Z" />
<glyph unicode="&#xec;" glyph-name="igrave" horiz-adv-x="180" d="M33 451Q33 476 42 485T72 497T146 500V20Q146 9 141 6T108 1T33 0V451ZM394 540T339 578T265 637Q270 667 284 692T316 718Q325 718 374 676T447 600Q446 595 441 581T427 553T404 539Q394
540 339 578Z" />
<glyph unicode="&#xed;" glyph-name="iacute" horiz-adv-x="180" d="M33 451Q33 476 42 485T72 497T146 500V20Q146 9 141 6T108 1T33 0V451ZM39 549T30 562T15 590T9 610Q25 632 53 659T108 707T140 728Q157 728 171 703T191 646Q174 626 118 588T52 549Q39 549 30 562Z" />
<glyph unicode="&#xee;" glyph-name="icircumflex" horiz-adv-x="180" d="M33 451Q33 476 42 485T72 497T146 500V20Q146 9 141 6T108 1T33 0V451ZM144 552T135 561T115 586T94 619Q91 614 81 598T56 566T31 551Q-21 551 -44 580L73 714Q83 717 95 717Q113 717
126 703Q133 696 156 671T202 617T224 577Q224 550 147 550Q144 552 135 561Z" />
<glyph unicode="&#xef;" glyph-name="idieresis" horiz-adv-x="180" d="M33 451Q33 476 42 485T72 497T146 500V20Q146 9 141 6T108 1T33 0V451ZM253 550T240 567T227 626Q227 660 241 680T285 700Q314 700 325 685T336 631Q336 592 321 571T278 550Q253 550 240
567ZM382 550T369 567T356 626Q356 660 371 680T415 700Q443 700 453 685T464 631Q464 592 450 571T408 550Q382 550 369 567Z" />
<glyph unicode="&#xf0;" glyph-name="eth" horiz-adv-x="386" d="M365 488T365 289Q365 147 330 69T198 -10Q135 -10 96 15T39 99T20 258Q20 337 39 394T91 480T168 510Q208 510 231 494Q216 543 199 575L109 540Q98 567 91 588T83 620Q83 632 93 636L142 655Q142
655 102 695Q115 717 138 731T184 745Q210 745 224 728Q244 708 253 697L312 720Q323 693 330 672T338 640Q338 628 328 625L305 616Q365 488 365 289ZM231 81T241 128T252 278Q252 343 248 386Q229 412 200 412Q166 412 150 361T134 237Q134 81 195 81Q231 81
241 128Z" />
<glyph unicode="&#xf1;" glyph-name="ntilde" horiz-adv-x="362" d="M33 477Q59 489 105 499T188 510Q266 510 299 482T332 381V20Q332 9 327 6T293 1T217 0V346Q217 387 211 401T184 415Q162 415 144 403V20Q144 9 139 6T106 1T33 0V477ZM197 546T188 552T169
569Q161 579 155 583T136 588Q117 588 99 568Q89 556 82 556Q68 556 57 568T38 593T29 611Q54 652 89 673T155 694Q169 694 178 689T198 672Q209 661 217 656T237 651Q254 651 262 656T280 671Q283 675 287 678T297 682Q306 682 314 668T327 640T333 620Q333 618
314 599T269 563T215 546Q197 546 188 552Z" />
<glyph unicode="&#xf2;" glyph-name="ograve" horiz-adv-x="362" d="M119 -10T86 9T37 85T20 251Q20 510 186 510Q242 510 275 488T325 410T342 255Q342 114 302 52T178 -10Q119 -10 86 9ZM193 82T201 93T214 142T220 252Q220 325 217 359T206 406T182 418Q163
418 153 384T142 252Q142 177 146 141T159 93T181 82Q193 82 201 93ZM229 540T174 578T100 637Q105 667 119 692T151 718Q160 718 209 676T282 600Q281 595 276 581T262 553T239 539Q229 540 174 578Z" />
<glyph unicode="&#xf3;" glyph-name="oacute" horiz-adv-x="362" d="M119 -10T86 9T37 85T20 251Q20 510 186 510Q242 510 275 488T325 410T342 255Q342 114 302 52T178 -10Q119 -10 86 9ZM193 82T201 93T214 142T220 252Q220 325 217 359T206 406T182 418Q163
418 153 384T142 252Q142 177 146 141T159 93T181 82Q193 82 201 93ZM130 549T121 562T106 590T100 610Q116 632 144 659T199 707T231 728Q248 728 262 703T282 646Q265 626 209 588T143 549Q130 549 121 562Z" />
<glyph unicode="&#xf4;" glyph-name="ocircumflex" horiz-adv-x="362" d="M119 -10T86 9T37 85T20 251Q20 510 186 510Q242 510 275 488T325 410T342 255Q342 114 302 52T178 -10Q119 -10 86 9ZM193 82T201 93T214 142T220 252Q220 325 217 359T206 406T182 418Q163
418 153 384T142 252Q142 177 146 141T159 93T181 82Q193 82 201 93ZM235 552T226 561T206 586T185 619Q182 614 172 598T147 566T122 551Q70 551 47 580L164 714Q174 717 186 717Q204 717 217 703Q224 696 247 671T293 617T315 577Q315 550 238 550Q235 552 226
561Z" />
<glyph unicode="&#xf5;" glyph-name="otilde" horiz-adv-x="362" d="M119 -10T86 9T37 85T20 251Q20 510 186 510Q242 510 275 488T325 410T342 255Q342 114 302 52T178 -10Q119 -10 86 9ZM193 82T201 93T214 142T220 252Q220 325 217 359T206 406T182 418Q163
418 153 384T142 252Q142 177 146 141T159 93T181 82Q193 82 201 93ZM197 546T188 552T169 569Q161 579 155 583T136 588Q117 588 99 568Q89 556 82 556Q68 556 57 568T38 593T29 611Q54 652 89 673T155 694Q169 694 178 689T198 672Q209 661 217 656T237 651Q254
651 262 656T280 671Q283 675 287 678T297 682Q306 682 314 668T327 640T333 620Q333 618 314 599T269 563T215 546Q197 546 188 552Z" />
<glyph unicode="&#xf6;" glyph-name="odieresis" horiz-adv-x="362" d="M119 -10T86 9T37 85T20 251Q20 510 186 510Q242 510 275 488T325 410T342 255Q342 114 302 52T178 -10Q119 -10 86 9ZM193 82T201 93T214 142T220 252Q220 325 217 359T206 406T182 418Q163
418 153 384T142 252Q142 177 146 141T159 93T181 82Q193 82 201 93ZM88 550T75 567T62 626Q62 660 76 680T120 700Q149 700 160 685T171 631Q171 592 156 571T113 550Q88 550 75 567ZM217 550T204 567T191 626Q191 660 206 680T250 700Q278 700 288 685T299 631Q299
592 285 571T243 550Q217 550 204 567Z" />
<glyph unicode="&#xf7;" glyph-name="divide" horiz-adv-x="401" d="M167 376T154 391T140 438Q140 464 156 482T200 500Q233 500 247 484T262 438Q262 412 245 394T200 376Q167 376 154 391ZM25 291T28 310T45 330H375Q375 273 372 254T355 234H25Q25 291 28
310ZM167 60T154 75T140 121Q140 148 156 166T200 184Q234 184 248 168T262 121Q262 95 245 78T200 60Q167 60 154 75Z" />
<glyph unicode="&#xf8;" glyph-name="oslash" horiz-adv-x="398" d="M406 464T353 367Q360 324 360 255Q360 114 320 52T196 -10Q160 -10 135 -4T91 20Q72 -17 63 -30Q43 -27 23 -14T3 15Q3 26 50 104Q38 160 38 251Q38 510 204 510Q241 510 267 501T312 471Q332
505 344 522Q349 521 363 515T392 500T406 478Q406 464 353 367ZM181 415T171 382T160 252V244L232 380Q228 401 221 408T200 415Q181 415 171 382ZM211 82T219 93T232 142T238 252V256Q193 171 167 123Q171 98 178 90T199 82Q211 82 219 93Z" />
<glyph unicode="&#xf9;" glyph-name="ugrave" horiz-adv-x="359" d="M95 -10T62 27T29 141V480Q29 491 34 494T67 499T144 500V134Q144 108 151 97T179 85Q203 85 217 98V480Q217 491 221 494T253 499T328 500V28Q301 12 262 1T180 -10Q95 -10 62 27ZM227 540T172
578T98 637Q103 667 117 692T149 718Q158 718 207 676T280 600Q279 595 274 581T260 553T237 539Q227 540 172 578Z" />
<glyph unicode="&#xfa;" glyph-name="uacute" horiz-adv-x="359" d="M95 -10T62 27T29 141V480Q29 491 34 494T67 499T144 500V134Q144 108 151 97T179 85Q203 85 217 98V480Q217 491 221 494T253 499T328 500V28Q301 12 262 1T180 -10Q95 -10 62 27ZM128 549T119
562T104 590T98 610Q114 632 142 659T197 707T229 728Q246 728 260 703T280 646Q263 626 207 588T141 549Q128 549 119 562Z" />
<glyph unicode="&#xfb;" glyph-name="ucircumflex" horiz-adv-x="359" d="M95 -10T62 27T29 141V480Q29 491 34 494T67 499T144 500V134Q144 108 151 97T179 85Q203 85 217 98V480Q217 491 221 494T253 499T328 500V28Q301 12 262 1T180 -10Q95 -10 62 27ZM233
552T224 561T204 586T183 619Q180 614 170 598T145 566T120 551Q68 551 45 580L162 714Q172 717 184 717Q202 717 215 703Q222 696 245 671T291 617T313 577Q313 550 236 550Q233 552 224 561Z" />
<glyph unicode="&#xfc;" glyph-name="udieresis" horiz-adv-x="359" d="M95 -10T62 27T29 141V480Q29 491 34 494T67 499T144 500V134Q144 108 151 97T179 85Q203 85 217 98V480Q217 491 221 494T253 499T328 500V28Q301 12 262 1T180 -10Q95 -10 62 27ZM86 550T73
567T60 626Q60 660 74 680T118 700Q147 700 158 685T169 631Q169 592 154 571T111 550Q86 550 73 567ZM215 550T202 567T189 626Q189 660 204 680T248 700Q276 700 286 685T297 631Q297 592 283 571T241 550Q215 550 202 567Z" />
<glyph unicode="&#xfd;" glyph-name="yacute" horiz-adv-x="341" d="M29 -193T9 -180T-11 -143Q-11 -128 -7 -111T3 -83Q12 -90 31 -95T71 -100Q91 -100 103 -82T122 -16L12 471Q10 483 10 485Q10 493 18 496T53 499T121 500L151 325Q160 271 167 207T176 124Q177
143 183 206T197 325L217 469Q219 486 225 491T252 498T335 500L223 -23Q209 -90 192 -126T148 -177T81 -193Q29 -193 9 -180ZM119 549T110 562T95 590T89 610Q105 632 133 659T188 707T220 728Q237 728 251 703T271 646Q254 626 198 588T132 549Q119 549 110 562Z"
/>
<glyph unicode="&#xfe;" glyph-name="thorn" horiz-adv-x="365" d="M260 509T301 466T342 307Q342 127 304 59T211 -10Q167 -10 144 9V-191Q120 -200 78 -200Q49 -200 41 -191T33 -151V686Q33 711 42 720T71 732T144 735V507Q168 509 181 509Q260 509 301 466ZM193
83T205 127T218 300Q218 352 214 376T200 407T173 414Q159 414 144 399V102Q149 90 156 87T173 83Q193 83 205 127Z" />
<glyph unicode="&#xff;" glyph-name="ydieresis" horiz-adv-x="341" d="M29 -193T9 -180T-11 -143Q-11 -128 -7 -111T3 -83Q12 -90 31 -95T71 -100Q91 -100 103 -82T122 -16L12 471Q10 483 10 485Q10 493 18 496T53 499T121 500L151 325Q160 271 167 207T176 124Q177
143 183 206T197 325L217 469Q219 486 225 491T252 498T335 500L223 -23Q209 -90 192 -126T148 -177T81 -193Q29 -193 9 -180ZM77 550T64 567T51 626Q51 660 65 680T109 700Q138 700 149 685T160 631Q160 592 145 571T102 550Q77 550 64 567ZM206 550T193 567T180
626Q180 660 195 680T239 700Q267 700 277 685T288 631Q288 592 274 571T232 550Q206 550 193 567Z" />
<glyph unicode="&#x2013;" glyph-name="endash" horiz-adv-x="410" d="M30 291T33 310T50 330H380Q380 273 377 254T360 234H30Q30 291 33 310Z" />
<glyph unicode="&#x2014;" glyph-name="emdash" horiz-adv-x="700" d="M6 291T9 310T26 330H694Q694 273 691 254T674 234H6Q6 291 9 310Z" />
<glyph unicode="&#x2018;" glyph-name="quoteleft" horiz-adv-x="192" d="M66 570T48 589T29 643Q29 681 46 717T86 776T121 799Q137 799 147 793T162 770Q147 744 143 732T135 694Q151 685 157 671T163 635Q163 608 145 589T100 570Q66 570 48 589Z" />
<glyph unicode="&#x2019;" glyph-name="quoteright" horiz-adv-x="192" d="M55 571T45 577T30 600Q46 626 49 638T57 676Q41 685 35 699T29 735Q29 762 47 781T93 800Q127 800 145 781T163 727Q163 689 146 653T106 594T72 571Q55 571 45 577Z" />
<glyph unicode="&#x201a;" glyph-name="quotesinglbase" horiz-adv-x="186" d="M55 -116T45 -110T30 -87Q46 -61 49 -49T57 -11Q41 -2 35 12T29 48Q29 75 47 94T93 113Q127 113 145 94T163 40Q163 2 146 -34T106 -93T72 -116Q55 -116 45 -110Z" />
<glyph unicode="&#x201c;" glyph-name="quotedblleft" horiz-adv-x="356" d="M66 570T48 589T29 643Q29 681 46 717T86 776T121 799Q137 799 147 793T162 770Q147 744 143 732T135 694Q151 685 157 671T163 635Q163 608 145 589T100 570Q66 570 48 589ZM229 570T211
589T193 643Q193 681 210 717T250 776T284 799Q301 799 311 793T326 770Q311 744 307 732T299 694Q315 685 321 671T327 635Q327 608 309 589T263 570Q229 570 211 589Z" />
<glyph unicode="&#x201d;" glyph-name="quotedblright" horiz-adv-x="356" d="M55 571T45 577T30 600Q46 626 49 638T57 676Q41 685 35 699T29 735Q29 762 47 781T93 800Q127 800 145 781T163 727Q163 689 146 653T106 594T72 571Q55 571 45 577ZM219 571T209
577T194 600Q210 626 213 638T221 676Q205 685 199 699T193 735Q193 762 211 781T256 800Q290 800 308 781T327 727Q327 689 310 653T270 594T235 571Q219 571 209 577Z" />
<glyph unicode="&#x201e;" glyph-name="quotedblbase" horiz-adv-x="351" d="M55 -116T45 -110T30 -87Q46 -61 49 -49T57 -11Q41 -2 35 12T29 48Q29 75 47 94T93 113Q127 113 145 94T163 40Q163 2 146 -34T106 -93T72 -116Q55 -116 45 -110ZM219 -116T209 -110T194
-87Q210 -61 213 -49T221 -11Q205 -2 199 12T193 48Q193 75 211 94T256 113Q290 113 308 94T327 40Q327 2 310 -34T270 -93T235 -116Q219 -116 209 -110Z" />
<glyph unicode="&#x2022;" glyph-name="bullet" horiz-adv-x="235" d="M69 197T49 219T29 286Q29 324 53 350T118 377Q166 377 186 354T206 286Q206 248 183 223T118 197Q69 197 49 219Z" />
<glyph unicode="&#x2039;" glyph-name="guilsinglleft" horiz-adv-x="235" d="M138 15T104 66T38 174T6 250Q6 270 37 325T103 433T148 500Q167 500 181 488T205 461T214 444Q214 421 191 378T142 298T109 250Q117 240 142 205T191 128T215 62Q215 60 206 44T183
14T149 0Q138 15 104 66Z" />
<glyph unicode="&#x203a;" glyph-name="guilsinglright" horiz-adv-x="235" d="M87 -1T69 7T35 28T20 62Q20 86 43 127T92 204T126 250Q118 261 93 298T45 378T21 444Q21 461 35 473T66 492T87 500Q98 485 132 433T197 326T229 250Q229 230 198 174T132 67T87
0Q87 -1 69 7Z" />
</font>
</defs>
</svg>
