<?xml version="1.0" standalone="no"?>
<!DOCTYPE svg PUBLIC "-//W3C//DTD SVG 1.1//EN" "http://www.w3.org/Graphics/SVG/1.1/DTD/svg11.dtd">
<svg xmlns="http://www.w3.org/2000/svg">
<defs >
<font id="LibreFranklin" horiz-adv-x="581" ><font-face
    font-family="Libre Franklin Medium"
    units-per-em="1000"
    panose-1="0 0 6 0 0 0 0 0 0 0"
    ascent="966"
    descent="-246"
    alphabetic="0" />
<glyph unicode=" " glyph-name="space" horiz-adv-x="212" />
<glyph unicode="!" glyph-name="exclam" horiz-adv-x="251" d="M153 210Q152 201 149 199T134 197H98Q81 197 83 214L129 731Q129 738 131 740T138 742H241Q246 742 249 737T252 727L153 210ZM151 15Q150 5 146 3T130 0H45Q26 0 28 19L42 116Q43 124 45 126T53
128H153Q158 128 161 124T165 112L151 15Z" />
<glyph unicode="&quot;" glyph-name="quotedbl" horiz-adv-x="428" d="M337 507Q335 498 332 496T318 493H290Q273 493 275 510L278 732Q279 738 281 740T288 742H385Q390 742 393 738T396 727L337 507ZM407 507Q405 498 402 496T388 493H360Q343 493 345 510L348
732Q349 738 351 740T358 742H455Q460 742 463 738T466 727L407 507Z" />
<glyph unicode="#" glyph-name="numbersign" horiz-adv-x="603" d="M602 510T605 506T607 496L603 462Q602 453 598 451T583 448H481L438 300H534Q539 300 542 296T544 286L540 252Q539 243 535 241T521 238H420L354 14Q352 4 349 2T337 0L307 5Q290 8 291 21L354
238H208L142 14Q140 4 137 2T125 0L96 5Q77 8 80 21L143 238H43Q34 238 30 243T27 256L32 290Q33 296 35 298T44 300H161L204 448H105Q96 448 92 453T90 466L95 500Q96 506 98 508T107 510H223L287 731Q289 738 291 740T299 742L337 737Q343 736 346 731T349 719L288
510H434L498 731Q501 738 503 740T510 742L549 737Q555 736 558 731T561 719L500 510H597Q602 510 605 506ZM415 448H269L226 300H372L415 448Z" />
<glyph unicode="$" glyph-name="dollar" horiz-adv-x="621" d="M575 156T544 107T459 27T335 -7Q318 -8 316 -22L309 -71Q308 -80 305 -82T292 -85H250Q242 -85 238 -80T236 -68L243 -15Q244 -8 244 -7T238 -6Q158 -4 107 23T21 103Q10 109 10 117Q10 121 15 126L62
167Q66 171 71 171Q79 171 84 161Q113 121 149 100T240 75Q255 75 259 88L289 310L290 316Q290 325 278 332Q179 362 136 405T92 512Q92 529 95 547Q106 625 169 678T331 745Q338 746 345 750T353 760L359 806Q360 811 361 812T367 814H416Q423 814 427 809T430
796L424 750Q423 746 424 745T429 743Q484 735 525 714T598 657Q607 653 607 646Q607 642 603 638L555 592Q552 589 549 589Q543 589 536 601Q519 622 490 638T426 662H424Q418 662 414 658T409 649L377 424V419Q377 417 379 416T385 413L427 399Q498 373 536 327T575
217Q575 156 544 107ZM338 657Q339 665 331 662Q273 655 235 623T190 544Q189 539 189 531Q189 502 210 480T282 435Q293 433 300 438T310 455L338 657ZM329 76T330 76T332 77T335 78Q397 79 437 115T478 204Q478 237 455 260T380 304H375Q362 304 359 291L329
79Q329 76 330 76Z" />
<glyph unicode="%" glyph-name="percent" horiz-adv-x="925" d="M363 753T405 705T447 576Q447 556 444 535Q435 474 407 428T336 356T243 330Q173 330 130 378T87 506Q87 526 90 547Q98 608 127 654T200 727T294 753Q363 753 405 705ZM182 3Q178 -2 174 -3T161
-4H130Q117 -4 117 9Q117 16 121 21L704 744Q707 749 710 750T716 751T722 750H761Q768 750 771 746T770 734L182 3ZM289 388T322 431T364 546Q367 570 367 591Q367 640 348 667T293 695Q245 695 212 651T169 534Q166 512 166 492Q166 443 185 416T241 388Q289
388 322 431ZM783 413T825 365T867 238Q867 218 864 195Q855 134 827 88T756 16T663 -10Q593 -10 551 38T508 165Q508 185 511 207Q520 268 549 315T621 387T714 413Q783 413 825 365ZM709 48T742 91T786 206Q789 227 789 246Q789 297 770 326T714 355Q667 355
634 311T590 194Q587 173 587 154Q587 105 606 77T662 48Q709 48 742 91Z" />
<glyph unicode="&amp;" glyph-name="ampersand" horiz-adv-x="797" d="M496 753T546 716T597 615Q597 558 548 501T404 401Q385 398 392 385L510 224Q513 220 516 220Q519 220 530 233Q567 263 608 314T666 399Q670 403 674 403Q677 403 685 401L734 383Q740 381
743 374T744 359Q725 321 682 269T585 160Q575 156 575 151Q575 148 578 143Q602 122 643 108T724 92Q745 92 742 74L735 17Q733 6 730 3T717 0Q655 0 594 23T495 81Q489 83 488 83Q481 83 472 72Q362 -5 235 -5Q137 -5 83 39T28 163Q28 185 30 196Q38 254 80 303T212
401Q219 404 224 407T229 415Q229 419 224 429Q175 484 175 551Q175 607 207 653T294 726T414 753Q496 753 546 716ZM364 683T328 650T285 570L284 558Q284 525 308 491L333 458Q335 456 337 456Q344 456 351 463Q422 493 457 527T500 603Q501 607 501 615Q501
648 478 665T417 683Q364 683 328 650ZM289 343T282 343Q276 343 266 335Q216 313 184 275T144 193Q143 188 143 177Q143 133 175 105T258 77Q297 77 338 94T410 137Q419 142 422 147T422 159L293 336Q289 343 282 343Z" />
<glyph unicode="&apos;" glyph-name="quotesingle" horiz-adv-x="242" d="M188 507Q186 498 183 496T169 493H141Q124 493 126 510L129 732Q130 738 132 740T139 742H236Q241 742 244 738T247 727L188 507Z" />
<glyph unicode="(" glyph-name="parenleft" horiz-adv-x="294" d="M142 -165T140 -151Q99 -63 79 17T58 186Q58 239 65 291Q82 409 134 523T266 738Q274 742 285 742H333Q339 742 341 737T342 726Q275 623 227 508T163 278Q154 215 154 154Q154 11 207 -159Q213
-165 203 -165H153Q142 -165 140 -151Z" />
<glyph unicode=")" glyph-name="parenright" horiz-adv-x="294" d="M-37 -165T-39 -160T-40 -149Q27 -46 75 69T139 299Q147 354 147 420Q147 569 94 736Q88 742 98 742H149Q159 742 161 728Q202 640 223 560T244 393Q244 345 236 286Q219 169 167 55T36 -161Q27
-165 16 -165H-31Q-37 -165 -39 -160Z" />
<glyph unicode="*" glyph-name="asterisk" horiz-adv-x="407" d="M247 512Q247 513 245 513Q243 513 240 507L147 386Q146 384 143 384Q139 384 133 390L95 418Q91 422 90 425T92 434L195 540Q196 541 197 543T195 547L81 581Q76 583 75 587T74 598L97 642Q99
646 101 646T108 643L215 597H217Q221 597 223 600T227 606L236 736Q237 740 238 741T245 742H300Q304 742 307 738T309 729L282 600Q281 597 282 597T286 598L409 648Q411 649 414 649Q421 649 423 638L431 596V590Q431 584 426 583L304 546Q300 545 297 542T296
536L365 434Q366 432 367 431T368 426Q368 420 361 416L320 391Q317 388 313 388Q309 388 306 390T303 395L247 512Z" />
<glyph unicode="+" glyph-name="plus" horiz-adv-x="565" d="M521 413T524 409T528 399L519 346Q519 337 516 335T501 333H333L309 156Q308 151 306 150T298 148H246Q237 148 233 154T230 170L253 332H84Q76 332 72 337T69 350L77 402Q79 409 80 411T87 413H264L288
586Q289 595 291 597T302 599H354Q360 599 364 595T368 585L344 413H516Q521 413 524 409Z" />
<glyph unicode="," glyph-name="comma" horiz-adv-x="225" d="M-14 -147T-14 -142Q-14 -139 -11 -133L52 -22Q56 -15 56 -9Q56 0 44 0H28Q19 0 17 2T16 12L30 112Q31 119 35 123T44 128H145Q155 128 154 115L141 26Q140 16 134 10L33 -131Q21 -147 8 -147H-8Q-14
-147 -14 -142Z" />
<glyph unicode="-" glyph-name="hyphen" horiz-adv-x="381" d="M318 237Q317 229 314 227T299 224H70Q54 224 54 241L62 294Q63 301 65 303T72 305H315Q320 305 323 301T326 291L318 237Z" />
<glyph unicode="." glyph-name="period" horiz-adv-x="222" d="M136 15Q135 5 131 3T115 0H31Q21 0 17 5T14 19L28 118Q29 125 31 127T39 129H139Q145 129 148 125T150 113L136 15Z" />
<glyph unicode="/" glyph-name="slash" horiz-adv-x="349" d="M-27 -35T-30 -31T-31 -22L326 734Q328 739 331 740T341 742H392Q405 742 405 731Q405 726 402 720L52 -22Q48 -30 44 -32T31 -35H-20Q-27 -35 -30 -31Z" />
<glyph unicode="0" glyph-name="zero" horiz-adv-x="694" d="M485 752T540 717T625 615T656 454Q656 421 649 363Q632 246 584 162T466 35T313 -9Q239 -9 184 25T99 126T68 284Q68 329 75 374Q92 492 140 577T259 707T412 752Q485 752 540 717ZM486 80T528 374Q536
441 536 483Q536 664 408 664Q328 664 273 590T196 363Q187 303 187 259Q187 167 221 124T318 80Q486 80 528 374Z" />
<glyph unicode="1" glyph-name="one" horiz-adv-x="479" d="M415 92T414 81L404 11Q402 5 400 3T390 0H23Q16 0 14 3T12 12L22 84Q23 89 25 90T34 92H155Q163 92 165 102L236 611V614Q236 619 228 616L106 575Q104 574 100 574Q89 574 91 587L99 640Q101 648 103
651T112 658L275 734Q293 742 310 742H364Q376 742 374 727L285 100V97Q285 92 291 92H403Q415 92 414 81Z" />
<glyph unicode="2" glyph-name="two" horiz-adv-x="613" d="M288 316Q387 395 431 450T476 560Q476 608 443 634T359 661Q313 661 265 634T179 556Q174 548 166 554L94 599Q91 602 91 605Q91 609 99 620Q150 684 222 718T372 752Q470 752 531 704T593 568Q593
513 571 467T509 381T403 286L188 113Q181 109 181 105T188 101H522Q538 101 535 88L525 11Q524 5 521 3T511 0H29Q8 0 11 20L18 73Q20 84 26 92T55 118L288 316Z" />
<glyph unicode="3" glyph-name="three" horiz-adv-x="649" d="M121 643T121 647Q121 652 126 657Q179 704 243 728T377 752Q451 752 504 731T586 671T615 582Q615 519 572 468T461 395Q455 394 455 391T461 386Q518 371 553 329T588 229Q588 158 549 104T438 20T270
-10Q179 -10 120 21T22 107Q18 112 18 115T21 122L84 165Q88 168 91 168T96 164Q130 119 175 99T277 79Q331 79 375 97T445 150T471 228Q471 281 427 311T316 342L225 343Q214 343 215 353L224 423Q224 430 236 430L307 431Q357 431 400 450T470 501T496 573Q496
613 462 639T372 665Q317 665 278 646T187 587Q185 586 183 585T178 583Q173 583 169 589L125 639Q121 643 121 647Z" />
<glyph unicode="4" glyph-name="four" horiz-adv-x="661" d="M450 738T455 740T472 742H561Q567 742 570 739T573 728L510 285Q509 278 516 278H609Q623 278 622 267L613 203Q611 196 609 194T598 191H506Q496 191 495 180L472 14Q471 5 468 3T453 0H365Q349 0
350 15L374 184V186Q374 191 367 191H47Q38 191 35 194T34 206L43 270Q44 279 48 286T65 308L443 731Q450 738 455 740ZM377 278Q387 278 388 288L431 597V601Q431 604 430 604Q427 604 418 594L150 290Q139 278 151 278H377Z" />
<glyph unicode="5" glyph-name="five" horiz-adv-x="661" d="M619 742Q629 742 631 739T632 726L618 654Q616 647 613 645T601 643H266Q255 643 252 631L209 439V436Q209 428 217 432Q262 451 300 461T383 472Q483 472 546 422T609 277Q609 191 567 126T452 26T286
-10Q202 -10 137 20T29 105Q24 113 24 116Q24 121 31 124L91 166L96 168Q102 168 110 158Q143 121 181 100T275 78Q337 78 386 103T462 171T490 269Q490 325 453 354T354 384Q310 384 274 370T187 328Q181 326 178 326Q172 326 167 330L106 367Q99 373 99 382Q99
385 101 395L177 728Q178 737 182 739T202 742H619Z" />
<glyph unicode="6" glyph-name="six" horiz-adv-x="669" d="M481 751T523 735T593 691T631 633V630Q631 626 626 623L551 595H548Q543 595 533 610Q515 637 492 650T432 663Q336 663 276 594T200 414L198 401Q198 397 202 397Q205 397 211 400Q256 421 300 433T394
446Q498 446 557 394T616 257Q616 182 576 121T467 26T318 -9Q199 -9 133 66T66 276Q66 310 73 364Q90 484 139 571T264 704T434 751Q481 751 523 735ZM334 362T286 349T209 319Q191 308 186 291T180 240Q180 172 215 124T319 75Q366 75 407 99T472 164T497 250Q497
300 463 331T371 362Q334 362 286 349Z" />
<glyph unicode="7" glyph-name="seven" horiz-adv-x="606" d="M614 742Q624 742 627 737T629 724L622 682Q617 659 600 637Q525 546 453 428T327 198T255 16Q253 7 249 4T238 0H132Q119 0 119 14Q119 17 121 25Q173 153 261 307T480 631Q484 635 484 639Q484 643
475 643H105Q91 643 94 659L112 732Q113 738 117 740T129 742H614Z" />
<glyph unicode="8" glyph-name="eight" horiz-adv-x="673" d="M467 752T519 730T601 666T630 569Q630 522 609 487T563 431T504 387Q498 383 498 380Q498 378 504 373Q537 355 558 340T596 294T614 216Q614 144 572 93T458 16T295 -10Q178 -10 110 36T42 168Q42
234 80 281T186 367Q193 372 193 375Q193 379 187 383Q149 409 130 435T111 511Q111 577 148 632T251 719T399 752Q467 752 519 730ZM349 668T310 649T248 597T226 527Q226 495 245 475T303 443L391 419Q399 417 403 417Q428 417 457 440T506 498T526 567Q526 614
492 641T398 668Q349 668 310 649ZM389 74T441 111T494 209Q494 244 474 267T410 304L293 337Q290 338 285 338Q262 338 229 315T172 255T148 176Q148 129 188 102T301 74Q389 74 441 111Z" />
<glyph unicode="9" glyph-name="nine" horiz-adv-x="666" d="M186 -9T134 25T63 106Q62 108 62 111Q62 118 68 119L140 145Q142 146 146 146Q155 146 160 134Q177 106 202 93T268 79Q362 79 421 147T496 328V334Q496 342 491 342Q485 342 482 340Q434 319 394
308T304 296Q235 296 186 320T110 387T83 486Q83 562 124 622T233 717T381 751Q498 751 563 676T629 467Q629 341 586 232T460 57T265 -9Q186 -9 134 25ZM365 380T409 393T486 428Q505 439 511 456T518 505Q518 571 483 619T380 667Q333 667 292 643T227 579T202
493Q202 442 235 411T326 380Q365 380 409 393Z" />
<glyph unicode=":" glyph-name="colon" horiz-adv-x="222" d="M190 398Q189 388 185 386T169 383H84Q65 383 67 402L81 499Q82 506 84 508T93 510H192Q198 510 201 506T204 494L190 398ZM137 18Q136 8 132 6T115 3H31Q22 3 18 8T15 23L28 119Q29 127 31 129T39
131H139Q145 131 148 127T150 115L137 18Z" />
<glyph unicode=";" glyph-name="semicolon" horiz-adv-x="238" d="M65 380T67 399L81 498Q82 505 84 507T92 509H192Q198 509 201 505T204 493L190 395Q189 385 185 383T169 380H84Q65 380 67 399ZM-9 -148T-12 -143T-14 -130L50 -16Q52 -13 54 -10T56 -4Q56 0
47 0H32Q24 0 20 5T17 17L31 119Q32 125 34 126T42 128H142Q148 128 151 124T153 113L140 20Q139 13 136 7L36 -138Q30 -144 25 -146T10 -148H-3Q-9 -148 -12 -143Z" />
<glyph unicode="&lt;" glyph-name="less" horiz-adv-x="554" d="M475 159Q472 143 462 143Q457 143 451 146L73 302Q66 304 62 310T58 324L67 390Q68 398 72 402T84 409L506 566Q512 568 514 568Q522 568 527 562T530 547L523 492Q522 483 516 478T495 467L185
354L458 240Q485 230 482 210L475 159Z" />
<glyph unicode="=" glyph-name="equal" horiz-adv-x="565" d="M534 445Q533 436 530 434T515 431H98Q90 431 86 435T84 448L91 501Q92 508 94 509T101 511L530 512Q535 512 538 507T541 497L534 445ZM502 216Q501 207 497 205T483 203L67 202Q58 202 54 207T51
220L58 272Q60 279 62 281T69 283H497Q502 283 506 279T509 268L502 216Z" />
<glyph unicode="&gt;" glyph-name="greater" horiz-adv-x="554" d="M58 227T63 231T85 242L394 354L121 469Q95 480 96 498L105 553Q107 567 117 567Q122 567 129 564L506 407Q524 400 521 384L512 318Q511 310 508 307T496 300L75 144Q69 142 66 142Q58 142 54
148T50 165L57 217Q58 227 63 231Z" />
<glyph unicode="?" glyph-name="question" horiz-adv-x="527" d="M72 598T70 604T70 618Q111 682 178 717T328 752Q393 752 441 732T514 675T540 591Q540 584 538 568Q533 530 515 499T474 445T412 389Q355 341 324 302T284 208Q282 199 271 199H212Q204 199 200
205T197 222Q204 268 223 305T268 369T331 432Q378 475 402 505T431 575Q432 580 432 591Q432 629 404 651T326 674Q277 674 230 647T160 578Q157 575 154 575L145 577L77 597Q72 598 70 604ZM274 15Q273 5 269 3T253 0H168Q149 0 151 19L165 116Q166 123 168 125T176
128H276Q281 128 284 124T288 112L274 15Z" />
<glyph unicode="@" glyph-name="at" horiz-adv-x="834" d="M570 -79T510 -96T385 -113Q277 -113 200 -71T82 43T41 208Q41 240 45 267Q60 374 123 464T284 607T501 661Q586 661 658 631T775 540T819 387Q819 358 815 333Q805 260 772 203T692 113T589 81Q510 81
502 137Q501 140 499 140Q497 140 490 128Q429 67 346 67Q291 67 256 107T220 213Q220 230 223 249Q231 310 263 362T343 444T447 475Q523 475 552 411H553Q558 411 564 421L573 446Q575 449 577 449T581 449H634Q638 449 640 446T642 439L574 220Q566 196 566
177Q566 162 573 156T596 149Q628 149 658 172T711 238T741 339Q745 373 745 386Q745 493 675 543T500 594Q395 594 313 549T182 426T119 255Q115 231 115 202Q115 87 188 19T399 -49Q458 -49 496 -35T583 10Q586 11 590 11Q599 11 603 3L623 -28Q625 -34 625 -35Q625
-42 617 -50Q570 -79 510 -96ZM304 180T319 160T365 139Q413 139 456 180T513 279Q520 303 520 324Q520 362 501 382T450 403Q411 403 378 377T324 308T304 215Q304 180 319 160Z" />
<glyph unicode="A" glyph-name="A" horiz-adv-x="741" d="M3 0T3 9Q3 15 7 23L363 729Q367 737 372 739T388 742H489Q507 742 509 722L664 17L665 12Q665 0 653 0H558Q545 0 543 14L504 192Q503 196 501 197T494 199H218Q212 199 209 197T203 189L111 8Q109 3
106 2T96 0H12Q3 0 3 9ZM476 293Q488 293 486 308L418 606Q417 615 413 615Q409 615 404 604L253 307Q250 301 250 297Q250 293 257 293H476Z" />
<glyph unicode="B" glyph-name="B" horiz-adv-x="707" d="M51 0T54 17L154 727Q155 742 170 742H412Q538 742 606 699T674 573Q674 501 633 453T519 382Q512 380 512 377T517 372Q643 340 643 225Q643 104 554 52T326 0H64Q51 0 54 17ZM380 419Q454 419 503 456T552
560Q552 608 514 632T406 657H279Q264 657 262 643L233 431L232 426Q232 422 234 421T241 419H380ZM323 85Q406 85 462 119T519 232Q519 283 480 307T373 331H233Q225 331 221 328T216 317L186 97L185 92Q185 85 195 85H323Z" />
<glyph unicode="C" glyph-name="C" horiz-adv-x="712" d="M513 752T571 723T662 645T696 536V533Q696 522 685 522L595 516Q586 516 584 534Q578 593 541 628T442 664Q354 664 298 605T217 456T192 275Q192 178 232 130T355 82Q495 82 564 222Q569 228 575 228Q580
228 583 227L656 207Q660 206 660 200Q660 195 657 186Q637 139 594 95T488 20T347 -10Q215 -10 142 71T68 293Q68 410 109 515T235 686T442 752Q513 752 571 723Z" />
<glyph unicode="D" glyph-name="D" horiz-adv-x="731" d="M62 0T58 5T54 21L154 730Q155 737 158 739T170 742H340Q517 742 605 667T694 450Q694 309 643 208T490 54T243 0H71Q62 0 58 5ZM253 88Q568 88 568 456Q568 561 512 607T338 653H276Q262 653 261 638L188
104L187 99Q187 88 199 88H253Z" />
<glyph unicode="E" glyph-name="E" horiz-adv-x="636" d="M155 738T157 740T166 742H636Q647 742 644 726L636 664Q635 657 631 654T619 651H275Q268 651 266 649T262 639L232 429V426Q232 422 233 421T240 419H490Q496 419 498 417T499 407L489 338Q488 333 486
331T477 329H228Q222 329 220 327T216 317L186 101V97Q186 91 193 91H555Q562 91 564 89T565 79L557 10Q555 4 553 2T543 0H69Q59 0 56 4T54 19L154 730Q155 738 157 740Z" />
<glyph unicode="F" glyph-name="F" horiz-adv-x="611" d="M155 738T157 740T167 742H627Q633 742 635 739T636 729L627 664Q625 656 623 654T612 651H274Q268 651 265 648T261 636L231 419L230 414Q230 408 239 408H495Q500 408 502 406T504 399L495 330Q494 323
492 321T481 319H227Q221 319 219 317T214 304L174 13Q173 5 170 3T157 0H65Q58 0 56 2T53 8Q53 14 54 19L154 729Q155 738 157 740Z" />
<glyph unicode="G" glyph-name="G" horiz-adv-x="743" d="M212 -10T140 70T67 289Q67 414 113 520T245 689T445 752Q517 752 575 723T666 645T700 543Q700 535 699 532T693 528L599 514H597Q592 514 589 532Q584 588 545 625T441 663Q358 663 302 608T219 464T192
275Q192 79 352 79Q408 79 451 103T521 164T559 241L567 290Q568 292 568 296Q568 301 558 301H407Q398 301 399 311L406 369Q407 377 414 377L679 376Q687 376 689 373T691 363L641 12Q640 0 627 0H602Q594 0 590 3T585 13L582 100Q580 105 577 105Q573 105 567
98Q533 51 476 21T341 -10Q212 -10 140 70Z" />
<glyph unicode="H" glyph-name="H" horiz-adv-x="740" d="M230 338Q219 338 218 325L174 14Q173 5 169 3T155 0H67Q58 0 55 3T53 16L154 730Q155 738 157 740T166 742H265Q272 742 274 740T274 729L234 444V440Q234 435 236 434T243 432H544Q553 432 557 448L597
731Q598 738 600 740T609 742H707Q713 742 715 738T716 724L616 13Q615 5 613 3T601 0H513Q503 0 499 4T496 17L540 330V332Q540 338 531 338H230Z" />
<glyph unicode="I" glyph-name="I" horiz-adv-x="298" d="M263 742Q276 742 273 724L174 16Q173 5 170 3T154 0H68Q51 0 54 19L154 730Q155 738 157 740T166 742H263Z" />
<glyph unicode="J" glyph-name="J" horiz-adv-x="427" d="M317 77T270 34T133 -10Q99 -10 73 -4T20 11Q9 15 6 18T4 27L25 99Q27 111 40 106Q43 105 63 99T112 92Q157 92 181 118T214 204L288 730Q289 737 291 739T300 742H398Q410 742 407 724L330 169Q317 77 270 34Z" />
<glyph unicode="K" glyph-name="K" horiz-adv-x="714" d="M638 8Q638 0 628 0H525Q512 0 508 14L354 366Q352 370 351 370Q349 370 345 366T338 359L214 236Q203 225 202 216L174 14Q173 6 169 3T155 0H67Q59 0 56 5T54 19L154 731Q155 738 157 740T166 742H262Q268
742 271 737T274 726L225 380V377Q225 375 226 375Q226 375 234 383L584 732Q590 738 595 740T610 742H704Q709 742 712 740T715 736Q715 732 710 727L451 474Q450 473 448 470T444 464T444 457L636 17L638 8Z" />
<glyph unicode="L" glyph-name="L" horiz-adv-x="610" d="M155 736T158 739T167 742H265Q276 742 273 724L187 103L186 98Q186 91 195 91H533Q547 91 544 76L535 10Q534 4 532 2T522 0H69Q51 0 54 19L154 728Q155 736 158 739Z" />
<glyph unicode="M" glyph-name="M" horiz-adv-x="919" d="M58 0T56 2T53 9Q53 16 54 20L154 730Q155 738 157 740T167 742H300Q313 742 316 729L443 203Q444 196 448 196Q452 196 456 205L729 729Q733 737 736 739T747 742H886Q893 742 895 739T896 729L796 15Q795
5 792 3T778 0H692Q672 0 676 19L752 559Q753 565 751 565T746 560L463 11Q459 4 456 2T444 0H381Q374 0 370 3T365 16L238 556Q237 563 235 563T230 557L153 11Q152 4 150 2T139 0H64Q58 0 56 2Z" />
<glyph unicode="N" glyph-name="N" horiz-adv-x="757" d="M724 742Q731 742 733 739T734 729L633 10Q632 4 629 2T620 0H554Q541 0 534 12L241 537Q238 543 235 543Q230 543 228 532L155 13Q154 5 151 3T139 0H65Q51 0 53 17L154 730Q155 738 157 740T168 742H245Q253
742 257 739T266 728L545 221Q550 213 555 213Q562 213 563 225L634 731Q635 738 637 740T647 742H724Z" />
<glyph unicode="O" glyph-name="O" horiz-adv-x="767" d="M215 -10T142 67T68 287Q68 337 74 374Q91 492 141 577T270 707T448 752Q580 752 654 673T728 450Q728 400 722 363Q706 246 656 162T527 34T349 -10Q215 -10 142 67ZM456 79T516 150T598 373Q605 425
605 472Q605 570 565 617T445 664Q343 664 282 590T199 362Q191 306 191 268Q191 171 231 125T354 79Q456 79 516 150Z" />
<glyph unicode="P" glyph-name="P" horiz-adv-x="698" d="M226 302Q214 302 212 289L174 14Q173 5 169 3T156 0H65Q50 0 54 18L154 729Q155 737 157 739T166 742H433Q548 742 617 694T687 552Q687 473 650 417T545 331T390 302H226ZM564 653T419 653H278Q270 653
267 650T261 638L229 405L228 399Q228 391 237 391H384Q466 391 515 435T564 553Q564 653 419 653Z" />
<glyph unicode="Q" glyph-name="Q" horiz-adv-x="768" d="M91 494T141 578T270 707T447 752Q581 752 655 673T729 451Q729 406 722 363Q692 142 547 47Q538 40 539 33Q543 14 575 -7T648 -35Q655 -37 657 -39T659 -47L650 -111Q649 -120 644 -122T621 -124Q573
-124 525 -95T443 -5Q439 2 426 -1Q387 -10 349 -10Q216 -10 142 67T68 288Q68 338 74 375Q91 494 141 578ZM191 303T191 265Q191 170 231 125T353 79Q455 79 516 151T598 374Q605 424 605 471Q605 569 566 616T445 664Q241 664 199 361Q191 303 191 265Z" />
<glyph unicode="R" glyph-name="R" horiz-adv-x="704" d="M608 11T608 9Q608 0 594 0H498Q484 0 481 17L400 320Q398 326 395 328T383 330H230Q223 330 221 328T217 318L174 15Q173 6 169 3T153 0H69Q51 0 54 19L154 730Q155 738 157 740T166 742H456Q569 742
630 698T692 573Q692 493 646 433T523 349Q509 345 512 337L606 19Q608 11 608 9ZM470 415T518 452T566 565Q566 657 441 657H276Q269 657 267 655T262 644L231 426V423Q231 415 239 415H385Q470 415 518 452Z" />
<glyph unicode="S" glyph-name="S" horiz-adv-x="652" d="M491 664T389 664Q315 664 268 629T221 535Q221 508 242 485T307 445L450 395Q525 367 560 327T596 230Q596 154 557 100T448 18T292 -10Q102 -10 29 122Q26 128 26 132Q26 139 34 144L85 176Q92 180 98
180Q107 180 114 170Q140 135 162 116T218 86T302 75Q381 75 429 107T477 205Q477 234 457 255T386 296L241 348Q174 373 141 416T107 514Q107 585 145 639T250 722T395 752Q473 752 531 724T628 648Q634 641 634 635Q634 631 629 628L566 586Q565 585 562 585Q558
585 547 597Q491 664 389 664Z" />
<glyph unicode="T" glyph-name="T" horiz-adv-x="656" d="M105 731Q106 738 108 740T118 742H673Q680 742 682 739T682 730L673 662Q672 656 669 654T659 652H462Q454 652 451 650T447 640L359 13Q358 5 355 3T346 0H251Q242 0 240 4T239 17L327 640V643Q327 648
325 650T316 652H107Q100 652 98 654T96 663L105 731Z" />
<glyph unicode="U" glyph-name="U" horiz-adv-x="713" d="M612 115T535 53T322 -10Q195 -10 135 43T75 204Q75 237 81 276L145 729Q146 737 148 739T157 742H251Q258 742 262 737T264 724L198 249Q194 217 194 205Q194 141 229 111T334 80Q418 80 469 124T532
258L598 730Q600 738 602 740T610 742H686Q692 742 695 737T698 725L632 253Q612 115 535 53Z" />
<glyph unicode="V" glyph-name="V" horiz-adv-x="715" d="M743 742T743 734Q743 729 741 726L389 14Q385 5 380 3T365 0H279Q267 0 262 3T255 15L107 727L106 732Q106 742 119 742H214Q221 742 224 739T229 726L343 154Q346 145 348 145Q352 145 355 153L634 732Q638
742 650 742H733Q743 742 743 734Z" />
<glyph unicode="W" glyph-name="W" horiz-adv-x="1057" d="M1083 742T1083 732Q1083 727 1080 718L774 14Q770 5 766 3T750 0H674Q654 0 651 15L574 542Q573 552 566 542L340 14Q336 5 331 3T315 0H236Q215 0 214 16L109 722L108 728Q108 742 125 742H209Q225
742 227 726L304 186Q306 176 309 176Q313 176 316 186L548 732Q550 738 554 740T569 742H643Q652 742 655 739T660 726L738 182Q738 175 742 175Q746 175 749 184L980 732Q983 738 987 740T1000 742H1070Q1083 742 1083 732Z" />
<glyph unicode="X" glyph-name="X" horiz-adv-x="701" d="M624 12T624 7Q624 3 621 2T610 0H515Q507 0 503 2T495 11L357 281Q354 289 349 289Q344 289 339 281L123 8Q120 3 115 2T100 0H16Q2 0 2 8Q2 14 13 30L285 367Q293 378 293 384Q293 390 291 394L117 728Q115
734 115 735Q115 742 125 742H226Q235 742 238 740T245 730L370 483Q375 476 378 476Q381 476 386 483L585 734Q589 739 593 740T606 742H698Q706 742 706 735Q706 730 702 722L438 396Q432 390 432 386T433 375L618 24Q624 12 624 7Z" />
<glyph unicode="Y" glyph-name="Y" horiz-adv-x="694" d="M718 742T721 740T724 733Q724 730 721 725L427 330Q421 322 419 315T414 290L375 17Q374 7 369 4T352 0H267Q258 0 256 4T254 17L294 295Q295 300 295 307Q295 316 291 325L107 726Q104 732 104 735Q104
742 117 742H214Q223 742 227 738T236 725L368 424Q371 415 376 415Q380 415 386 424L605 731Q610 738 614 740T629 742H713Q718 742 721 740Z" />
<glyph unicode="Z" glyph-name="Z" horiz-adv-x="647" d="M15 0T11 3T8 15L12 45Q13 53 16 59T27 75L481 642Q486 647 486 648T479 650H132Q117 650 119 668L128 733Q130 739 131 740T138 742H657Q669 742 667 729L662 696Q661 689 659 684T651 673L188 100Q182
92 190 92H563Q569 92 571 90T573 81L563 10Q562 4 560 2T550 0H24Q15 0 11 3Z" />
<glyph unicode="[" glyph-name="bracketleft" horiz-adv-x="296" d="M33 -165T28 -160T24 -147L147 732Q148 739 150 740T161 742H336Q341 742 344 739T346 731L340 682Q339 678 337 677T331 676H247Q240 676 235 671T228 657L122 -90V-95Q122 -98 123 -98T127
-99T131 -99H215Q221 -99 224 -103T228 -113L221 -156Q220 -163 219 -164T211 -165H41Q33 -165 28 -160Z" />
<glyph unicode="\" glyph-name="backslash" horiz-adv-x="349" d="M221 -35T218 -17L76 725Q75 729 75 735Q75 739 77 740T86 742H137Q143 742 147 738T152 728L297 -27V-31Q297 -33 295 -34T288 -35H237Q221 -35 218 -17Z" />
<glyph unicode="]" glyph-name="bracketright" horiz-adv-x="296" d="M-38 -165T-41 -162T-43 -154L-37 -105Q-36 -101 -34 -100T-28 -99H56Q64 -99 69 -94T75 -80L181 667V672Q181 675 180 675T176 676T172 676H88Q82 676 79 680T75 690L82 733Q83 740 84 741T92
742H262Q270 742 275 737T279 724L156 -155Q155 -162 153 -163T142 -165H-32Q-38 -165 -41 -162Z" />
<glyph unicode="^" glyph-name="asciicircum" horiz-adv-x="476" d="M265 406Q263 411 260 411Q254 411 250 400L106 136Q104 132 101 132T95 131T90 131H37Q32 131 29 137T29 150L228 507Q237 523 248 531T272 540Q285 540 295 530T310 502L410 141L411 135Q411
130 402 130H352Q345 130 340 133T334 141L265 406Z" />
<glyph unicode="_" glyph-name="underscore" horiz-adv-x="526" d="M416 -112Q415 -121 411 -123T397 -125L20 -126Q11 -126 8 -121T6 -108L13 -55Q14 -48 16 -47T23 -45L411 -44Q416 -44 420 -49T423 -59L416 -112Z" />
<glyph unicode="`" glyph-name="grave" horiz-adv-x="292" d="M100 754T108 750L328 653Q332 651 334 647T334 636L320 609Q317 602 312 602L303 604L83 672Q74 675 71 681T71 695L96 747Q100 754 108 750Z" />
<glyph unicode="a" glyph-name="a" horiz-adv-x="552" d="M272 -10T167 -10Q97 -10 57 24T16 117Q16 216 103 264T312 318L378 323Q387 324 392 328T399 341L403 366Q404 373 404 386Q404 426 379 447T309 469Q221 469 165 393Q159 385 148 389L83 409Q76 411
76 419Q76 425 80 433Q116 485 176 512T316 540Q411 540 458 502T506 397Q506 387 504 367L455 14Q454 4 451 2T440 0H373Q359 0 359 19L363 60Q363 67 359 67Q355 67 347 58Q272 -10 167 -10ZM386 252V257Q386 262 384 263T376 264L317 260Q241 254 182 226T123
133Q123 101 146 83T210 64Q240 64 269 74T322 102Q345 119 359 137T376 174L386 252Z" />
<glyph unicode="b" glyph-name="b" horiz-adv-x="602" d="M53 0Q43 0 39 5T36 21L136 730Q137 737 139 739T148 742H232Q243 742 241 724L208 486L207 481Q207 477 209 477Q211 477 220 484Q253 507 291 523T380 540Q470 540 516 483T562 328Q562 245 533 168T444
40T296 -10Q239 -10 202 14T145 71Q141 75 139 75Q133 75 130 64L118 16Q116 6 112 3T98 0H53ZM164 177Q163 172 163 161Q163 118 195 90T273 61Q333 61 374 102T435 207T455 332Q455 398 427 432T344 467Q303 467 265 448T196 398L164 177Z" />
<glyph unicode="c" glyph-name="c" horiz-adv-x="545" d="M411 540T460 501T528 401L529 396Q529 391 519 388L450 377H449Q443 377 438 392Q415 431 393 448T334 466Q274 466 232 428T167 330T145 210Q145 139 178 101T273 63Q321 63 357 85T427 156Q431 160
433 160T441 158L491 142Q499 140 499 130L497 122Q461 66 401 28T262 -10Q195 -10 144 18T66 99T38 219Q38 301 74 375T177 494T331 540Q411 540 460 501Z" />
<glyph unicode="d" glyph-name="d" horiz-adv-x="602" d="M409 0Q402 0 398 4T394 16L400 54V58Q400 62 397 62Q395 62 387 56Q313 -10 227 -10Q141 -10 90 44T38 201Q38 286 70 364T164 491T307 540Q352 540 382 525T437 483Q443 477 448 477Q455 477 458 497L492
729Q493 737 496 739T506 742H587Q599 742 596 724L496 16Q495 7 491 4T477 0H409ZM447 408Q423 438 397 452T335 467Q274 467 231 426T167 324T145 200Q145 131 178 97T265 62Q301 62 334 79T388 123T413 176L447 408Z" />
<glyph unicode="e" glyph-name="e" horiz-adv-x="582" d="M198 -10T146 18T66 98T38 217Q38 300 75 374T179 494T334 540Q434 540 491 481T549 317Q549 287 545 260Q544 244 524 244H158Q150 244 147 234T144 199Q144 138 181 103T280 67Q372 67 438 145Q442 149
447 149Q452 149 456 146L503 122Q511 119 511 111Q511 107 508 102Q457 42 400 16T266 -10Q198 -10 146 18ZM428 305Q439 305 445 314T451 348Q451 401 419 435T333 469Q287 469 249 446T188 386T159 305H428Z" />
<glyph unicode="f" glyph-name="f" horiz-adv-x="386" d="M402 530T399 518L392 464Q391 458 388 456T379 454H273Q265 454 263 442L203 12Q201 4 199 2T190 0H110Q104 0 100 5T97 17L157 447Q159 454 152 454H60Q49 454 51 468L59 520Q60 526 62 528T71 530H157Q163
530 167 534T171 545L181 614Q199 742 329 742H417Q435 742 433 727L427 677Q426 668 414 668H351Q322 668 305 650T283 601L274 539V537Q274 530 283 530H389Q402 530 399 518Z" />
<glyph unicode="g" glyph-name="g" horiz-adv-x="611" d="M102 -175T39 -142T-25 -50Q-25 -10 3 20T80 69Q90 74 90 78Q90 80 84 83Q65 94 56 107T46 139Q46 169 73 191T138 226Q147 230 149 234T144 241Q73 275 73 350Q73 411 106 453T194 517T313 538Q422 538
474 490Q477 487 481 487Q489 487 500 498Q520 516 549 529T601 543Q613 543 618 540T622 526L616 482Q615 470 611 467T597 462Q563 462 542 454Q510 446 516 430Q525 408 525 386Q525 327 490 287T399 228T281 209Q239 209 193 200T146 164Q146 152 163 147T221
139L354 131Q516 122 516 1Q516 -92 429 -133T217 -175Q102 -175 39 -142ZM346 269T387 300T428 394Q428 434 399 455T314 477Q254 477 212 443T169 349Q169 311 199 290T284 269Q346 269 387 300ZM308 -116T363 -92T418 -12Q418 16 399 29T335 45L175 54Q130 45
99 22T68 -38Q68 -116 221 -116Q308 -116 363 -92Z" />
<glyph unicode="h" glyph-name="h" horiz-adv-x="588" d="M52 0Q44 0 40 5T36 19L136 730Q137 737 140 739T150 742H228Q240 742 239 728L203 474V470Q203 462 210 466Q271 507 312 523T398 540Q468 540 505 506T543 412Q543 398 540 383L488 15Q486 6 483 3T471
0H397Q389 0 386 5T383 19L432 369Q434 385 434 391Q434 460 355 460Q316 460 282 442T194 382L142 14Q141 5 138 3T123 0H52Z" />
<glyph unicode="i" glyph-name="i" horiz-adv-x="247" d="M231 633Q229 622 225 619T210 615H132Q116 615 120 637L132 725Q135 742 148 742H233Q239 742 242 737T243 723L231 633ZM141 16Q140 5 137 3T121 0H53Q43 0 39 5T36 19L106 518Q107 526 109 528T119
530H201Q207 530 210 525T212 513L141 16Z" />
<glyph unicode="j" glyph-name="j" horiz-adv-x="247" d="M231 633Q229 622 225 619T210 615H132Q116 615 120 637L132 725Q135 742 148 742H233Q239 742 242 737T243 723L231 633ZM125 -100T87 -135T-33 -170Q-76 -170 -89 -166T-101 -151L-94 -97Q-92 -86 -82
-85L-33 -81Q-5 -79 11 -63T32 -9L106 518Q107 525 110 527T120 530H199Q206 530 209 525T212 513L136 -21Q125 -100 87 -135Z" />
<glyph unicode="k" glyph-name="k" horiz-adv-x="576" d="M515 10T515 7Q515 0 504 0H416Q403 0 397 17L294 258Q291 264 288 264Q287 264 280 259L172 162Q161 153 159 140L142 16Q141 5 138 3T122 0H54Q34 0 36 19L136 730Q137 738 139 740T149 742H232Q245
742 241 724L179 277L178 272Q178 271 179 271Q181 271 187 279L450 519Q462 530 474 530H549Q556 530 560 527T564 519Q564 513 558 507L383 352Q377 347 375 343T375 331L513 16Q515 10 515 7Z" />
<glyph unicode="l" glyph-name="l" horiz-adv-x="248" d="M142 16Q141 5 137 3T121 0H53Q33 0 35 19L138 730Q139 738 141 740T150 742H232Q244 742 241 726L142 16Z" />
<glyph unicode="m" glyph-name="m" horiz-adv-x="910" d="M43 0T39 5T36 19L106 518Q107 525 109 527T118 530H200Q206 530 208 527T209 516L202 469Q201 464 202 462T208 464Q265 503 306 521T392 540Q447 540 480 515T522 450Q522 447 524 447Q526 447 539 458Q594
499 638 519T727 540Q792 540 828 505T864 411Q864 402 862 382L810 15Q809 6 806 3T793 0H720Q712 0 708 5T705 19L754 366Q756 375 756 392Q756 460 683 460Q619 460 545 395Q527 379 525 365L476 15Q475 6 471 3T458 0H385Q378 0 374 5T370 19L420 369Q422 385
422 391Q422 460 349 460Q311 460 278 442T194 382L141 14Q140 5 137 3T123 0H52Q43 0 39 5Z" />
<glyph unicode="n" glyph-name="n" horiz-adv-x="588" d="M33 0T36 19L106 518Q107 526 109 528T118 530H201Q212 530 209 519L201 464V461Q201 457 203 457Q206 457 210 461Q308 540 398 540Q466 540 504 505T542 411Q542 402 540 384L488 15Q487 6 483 3T470
0H394Q380 0 383 19L432 367Q434 383 434 391Q434 460 355 460Q315 460 281 442T194 382L141 14Q140 5 136 3T122 0H48Q33 0 36 19Z" />
<glyph unicode="o" glyph-name="o" horiz-adv-x="599" d="M195 -10T144 18T66 98T38 218Q38 310 78 383T186 498T335 540Q403 540 454 511T532 429T559 307Q559 217 520 145T414 31T264 -10Q195 -10 144 18ZM321 65T363 96T429 187T454 325Q454 392 423 429T333
467Q280 467 238 435T170 344T145 205Q145 139 177 102T268 65Q321 65 363 96Z" />
<glyph unicode="p" glyph-name="p" horiz-adv-x="601" d="M16 -165T14 -160T13 -148L106 515Q107 525 110 527T123 530H194Q203 530 207 527T210 515L204 476V474Q204 470 207 470Q209 470 218 477Q222 480 245 498T303 528T377 540Q461 540 511 486T562 330Q562
248 533 170T444 41T298 -10Q255 -10 221 5T164 45Q159 50 155 50Q146 50 143 31L118 -154Q116 -161 115 -163T106 -165H21Q16 -165 14 -160ZM327 62T370 103T434 207T455 332Q455 401 423 434T337 468Q300 468 268 452T214 410T190 361L154 121Q202 62 266 62Q327
62 370 103Z" />
<glyph unicode="q" glyph-name="q" horiz-adv-x="602" d="M365 -165T368 -147L393 31L394 39Q394 42 392 42Q390 42 381 36Q307 -10 233 -10Q141 -10 91 48T40 208Q40 288 68 364T156 490T305 540Q370 540 405 518T460 463Q463 459 466 459Q470 459 476 472L492
515Q495 524 499 527T512 530H555Q561 530 564 528T567 519Q567 513 566 509L474 -153Q472 -165 457 -165H377Q365 -165 368 -147ZM303 62T339 78T404 123L439 352Q440 357 440 367Q440 412 411 441T332 471Q272 471 230 431T167 329T146 206Q146 136 178 99T266
62Q303 62 339 78Z" />
<glyph unicode="r" glyph-name="r" horiz-adv-x="396" d="M43 0T39 5T36 19L106 518Q107 526 109 528T118 530H196Q210 530 207 514L199 460V456Q199 452 202 452Q206 452 210 456Q250 498 291 519T371 540Q410 540 409 527L398 451Q397 444 396 442T390 440Q363
443 338 443Q309 443 275 427T215 385T186 333L141 14Q140 5 137 3T123 0H52Q43 0 39 5Z" />
<glyph unicode="s" glyph-name="s" horiz-adv-x="518" d="M140 -10T83 22T5 105L3 113Q3 118 10 122L57 146Q63 148 66 148Q74 148 78 140Q117 62 222 62Q271 62 317 82T364 147Q364 191 284 213L185 240Q121 258 92 288T62 362Q62 417 94 457T178 519T292 540Q362
540 411 513T485 441Q487 437 487 434Q487 428 481 425L434 403Q430 401 428 401Q421 401 414 411Q398 438 366 454T289 470Q241 470 201 449T161 388Q161 369 174 355T224 330L342 297Q402 280 432 246T462 166Q462 109 427 70T338 10T224 -10Q140 -10 83 22Z"
/>
<glyph unicode="t" glyph-name="t" horiz-adv-x="401" d="M160 0T130 24T100 97Q100 117 102 128L146 444V446Q146 454 135 454H60Q50 454 51 469L59 522Q60 527 62 528T70 530H150Q154 530 157 534T162 542L196 699Q198 710 211 710H280Q286 710 288 706T290
691L267 539V537Q267 530 275 530H393Q407 530 406 519L398 463Q397 458 395 456T385 454H265Q253 454 252 441L211 148Q208 135 208 123Q208 96 221 87T264 77H328Q333 77 337 72T340 62L333 19Q332 5 320 4Q285 0 219 0Q160 0 130 24Z" />
<glyph unicode="u" glyph-name="u" horiz-adv-x="583" d="M124 -10T85 26T46 122Q46 140 47 148L99 515Q101 524 104 527T116 530H190Q198 530 201 525T204 511L155 165Q154 158 154 145Q154 70 230 70Q269 70 308 91T390 151L442 516Q443 525 447 527T461 530H533Q541
530 545 525T549 511L477 11Q475 4 473 2T465 0H387Q374 0 375 12L383 66V68Q383 72 380 72Q377 72 372 68Q318 25 275 8T187 -10Q124 -10 85 26Z" />
<glyph unicode="v" glyph-name="v" horiz-adv-x="555" d="M560 530T563 524T565 510L293 14Q288 5 283 3T267 0H220Q210 0 203 5T195 19L62 515L61 520Q61 530 74 530H156Q163 530 167 525T173 514L267 152Q268 145 272 145Q277 145 283 159L476 520Q480 526 483
528T493 530H552Q560 530 563 524Z" />
<glyph unicode="w" glyph-name="w" horiz-adv-x="803" d="M805 530T809 524T810 510L583 11Q580 4 577 2T564 0H505Q496 0 490 5T484 18L423 360Q422 367 419 367Q415 367 410 355L256 11Q252 4 249 2T237 0H175Q166 0 161 5T154 18L64 515V519Q64 530 76 530H154Q161
530 165 525T170 514L231 159Q233 151 235 151Q240 151 245 165L405 521Q409 530 420 530H479Q485 530 490 525T495 514L558 159Q560 151 562 151Q566 151 571 165L728 520Q734 530 746 530H798Q805 530 809 524Z" />
<glyph unicode="x" glyph-name="x" horiz-adv-x="559" d="M498 9T498 5Q498 0 485 0H398Q390 0 384 4T375 14L270 191Q265 199 263 199Q258 199 249 188L91 9Q84 0 62 0H0Q-14 0 -14 9Q-14 16 0 32L208 257Q217 266 217 273Q217 279 215 282L76 513Q73 518 73
521Q73 530 85 530H169Q184 530 191 516L290 349Q292 345 295 345Q298 345 306 355L448 521Q452 527 456 528T472 530H539Q550 530 550 522Q550 516 545 511L351 292Q342 283 342 276Q342 273 345 268L490 22Q498 9 498 5Z" />
<glyph unicode="y" glyph-name="y" horiz-adv-x="541" d="M9 -165T-3 -162T-14 -149L-7 -99Q-5 -85 27 -85H89Q113 -85 135 -69T171 -28T185 18Q185 24 183 32L58 508Q57 511 57 517Q57 530 70 530H160Q173 530 174 520L262 160Q264 149 269 149Q275 149 281 162L465
515Q472 530 484 530H545Q553 530 553 524Q553 521 550 515L257 -30Q228 -84 198 -113T130 -153T41 -165Q9 -165 -3 -162Z" />
<glyph unicode="z" glyph-name="z" horiz-adv-x="493" d="M-2 0T-4 3T-6 15L-2 43Q-1 52 3 58T17 77L346 445Q350 449 350 453Q350 459 339 459H89Q82 459 80 462T79 474L86 519Q89 530 101 530H485Q494 530 493 520L488 486Q485 470 471 456L141 86Q137 82 137
78Q137 72 146 72H423Q435 72 433 60L426 13Q424 0 412 0H6Q-2 0 -4 3Z" />
<glyph unicode="{" glyph-name="braceleft" horiz-adv-x="324" d="M142 -165T107 -139T71 -69Q71 -58 72 -52L102 168Q103 173 103 183Q103 217 81 238T12 260Q7 260 4 264T2 275L7 313Q8 322 11 322Q67 322 99 350T138 425L169 636Q176 686 217 714T318 742H364Q369
742 372 739T375 731L368 682Q367 678 365 677T359 676H332Q294 676 277 662T257 620L227 405Q219 352 187 325T114 293Q106 293 102 291T104 287Q143 284 169 261T195 190Q195 176 194 169L163 -48Q162 -53 162 -63Q162 -83 174 -91T219 -99H244Q250 -99 253 -103T257
-113L250 -156Q249 -163 248 -164T239 -165H198Q142 -165 107 -139Z" />
<glyph unicode="|" glyph-name="bar" horiz-adv-x="258" d="M47 -165Q39 -165 35 -160T31 -145L169 835Q170 843 172 845T182 847H235Q242 847 246 842T249 830L111 -156Q110 -162 108 -163T99 -165H47Z" />
<glyph unicode="}" glyph-name="braceright" horiz-adv-x="324" d="M-38 -165T-41 -162T-43 -154L-37 -105Q-36 -101 -34 -100T-28 -99H0Q37 -99 54 -85T74 -43L104 172Q112 224 144 251T218 284Q225 284 229 286T228 290Q189 293 163 316T136 386Q136 392 138
408L168 625Q169 630 169 640Q169 660 157 668T112 676H87Q81 676 78 680T75 690L81 733Q82 740 83 741T92 742H134Q190 742 225 716T260 646Q260 635 259 629L229 409Q228 404 228 395Q228 361 250 339T319 317Q324 317 327 313T329 302L324 264Q322 255 319 255Q263
255 232 227T193 152L163 -59Q156 -109 114 -137T13 -165H-32Q-38 -165 -41 -162Z" />
<glyph unicode="~" glyph-name="asciitilde" d="M511 341T476 326T401 311Q371 311 349 318T299 341Q274 354 257 360T219 366Q184 366 157 351T104 309Q103 308 100 308Q94 308 91 318L74 357Q72 363 72 365Q72 370 77 376Q116 406 148 421T219 437Q248 437 270
430T320 407Q345 394 362 388T401 382Q460 382 504 434Q506 436 511 436Q519 436 522 424L536 389Q538 385 538 381Q538 377 534 367Q511 341 476 326Z" />
<glyph unicode="&#xa0;" glyph-name="uni00A0" horiz-adv-x="212" />
<glyph unicode="&#xa1;" glyph-name="exclamdown" horiz-adv-x="251" d="M206 405T205 404T197 402H98Q92 402 89 407T86 420L100 517Q101 525 103 527T116 530H201Q212 530 217 525T221 509L208 412Q206 405 205 404ZM129 -161T127 -163T120 -165H17Q12 -165
9 -160T6 -148L98 322Q100 330 102 331T113 333H150Q160 333 164 328T168 314L129 -156Q129 -161 127 -163Z" />
<glyph unicode="&#xa2;" glyph-name="cent" horiz-adv-x="558" d="M507 507Q507 502 497 499L428 488H427Q421 488 416 503Q393 542 371 559T312 577Q252 577 210 539T145 441T123 321Q123 250 156 212T251 174Q299 174 335 196T405 267Q409 271 411 271T419 269L469
253Q477 251 477 241L475 233Q448 191 406 158T310 110L296 17Q294 6 291 3T276 0H239Q229 0 225 6T222 21L233 101Q134 103 75 165T16 330Q16 412 52 486T155 605T309 651H310L321 728Q322 737 325 739T339 742H380Q388 742 392 737T396 724L384 640Q432 624 462
591T506 512L507 507Z" />
<glyph unicode="&#xa3;" glyph-name="sterling" horiz-adv-x="625" d="M-17 0T-20 5T-23 16L-14 83Q-13 88 -12 89T-5 90H23Q64 90 95 125T137 229Q141 263 144 350Q142 352 141 352T137 352H49Q45 352 42 356T40 364L47 411Q47 415 48 416T53 417H127Q132 417
136 421T140 429L137 506Q134 581 167 637T258 722T382 752Q452 752 508 718T579 627Q581 625 581 624Q581 622 573 620L500 597Q499 596 496 596Q487 596 485 608Q461 663 392 663Q341 663 303 632T258 549Q255 527 255 499Q255 466 259 420Q262 417 267 417H414Q418
417 421 414T423 407L416 358Q415 354 415 353T409 352H276Q263 352 261 338Q261 291 250 231Q240 182 223 151T184 97Q182 96 179 94T177 92T181 91H338Q387 91 420 109T474 169Q479 172 481 172Q484 172 490 170L552 155Q558 153 561 148T563 135Q531 68 473
34T337 0H-11Q-17 0 -20 5Z" />
<glyph unicode="&#xa4;" glyph-name="currency" horiz-adv-x="549" d="M203 172T162 207H159Q150 207 145 200L91 153Q88 150 84 150Q78 150 72 158L46 189Q38 199 44 207L99 254Q106 263 105 274Q87 310 87 349Q87 421 133 485Q141 491 137 496L97 543Q92 548
92 554Q92 558 96 562L131 593Q135 597 139 597Q142 597 144 594T148 589L190 542Q192 540 193 540Q195 540 203 546Q256 574 312 574Q342 574 369 565T416 538H418Q426 538 431 545L488 594Q489 595 491 595Q494 595 498 589L531 551Q533 548 534 545T533 539L476
489Q470 485 470 476Q491 439 491 395Q491 361 479 326T443 260Q440 259 439 257T440 252L482 203Q489 196 485 190L441 153Q439 151 438 151Q435 151 431 157L389 206Q387 208 385 208Q380 208 378 201Q320 172 266 172Q203 172 162 207ZM307 249T341 269T395
324T416 395Q416 438 387 467T312 497Q273 497 239 477T185 422T164 351Q164 308 193 279T268 249Q307 249 341 269Z" />
<glyph unicode="&#xa5;" glyph-name="yen" horiz-adv-x="624" d="M683 742T686 736T686 723L406 349H531Q536 349 540 344T543 334L538 298Q537 289 533 287T519 285H381L368 197H509Q514 197 518 192T521 182L516 146Q515 137 512 135T497 133H359L342 17Q341
7 337 4T320 0H240Q230 0 225 5T222 20L238 132H100Q91 132 87 137T84 150L89 185Q90 192 92 194T99 196H247L259 284H121Q113 284 109 289T106 302L111 338Q112 345 114 346T121 348H249L75 726Q73 730 73 735Q73 742 86 742H185Q194 742 199 738T206 725L338
424Q341 417 344 417Q347 417 355 428L573 731Q579 739 583 740T597 742H675Q683 742 686 736Z" />
<glyph unicode="&#xa6;" glyph-name="brokenbar" horiz-adv-x="258" d="M131 435Q122 435 118 440T116 454L169 835Q170 843 172 845T182 847H235Q242 847 246 842T249 830L195 444Q194 438 192 437T183 435H131ZM47 -165Q39 -165 35 -160T31 -145L84 235Q85 243
87 245T97 247H150Q157 247 161 243T165 230L111 -156Q110 -162 108 -163T99 -165H47Z" />
<glyph unicode="&#xa7;" glyph-name="section" horiz-adv-x="494" d="M396 181T415 155T435 93Q435 45 407 7T329 -53T211 -75Q135 -75 80 -44T7 36Q0 46 4 49L61 75L65 76Q72 76 76 65Q120 -4 212 -4Q266 -4 301 18T337 81Q337 102 319 120T254 156L173 189Q111
215 82 247T52 323Q52 377 83 416T171 478Q129 502 111 529T93 589Q93 634 119 671T194 730T305 752Q372 752 420 724T488 653Q493 647 493 644T490 639L436 614Q434 613 431 613Q424 613 420 624Q372 681 310 681Q257 681 224 659T191 601Q191 583 205 568T257
537L335 505Q404 477 436 441T468 358Q468 303 439 267T358 205Q396 181 415 155ZM310 244T339 268T374 327Q375 333 375 343Q375 365 360 382T303 418L252 438Q212 434 181 408T145 350Q144 346 144 338Q144 318 159 304T218 271L274 247Q310 244 339 268Z" />
<glyph unicode="&#xa8;" glyph-name="dieresis" horiz-adv-x="284" d="M162 639Q161 629 158 627T144 625H78Q61 625 63 643L76 731Q77 739 78 740T87 742H163Q169 742 172 738T175 726L162 639ZM327 639Q326 630 323 628T308 625H243Q234 625 230 630T228 643L240
731Q241 738 243 740T251 742H327Q333 742 336 738T339 726L327 639Z" />
<glyph unicode="&#xa9;" glyph-name="copyright" horiz-adv-x="830" d="M284 -10T208 33T88 152T45 322Q45 352 49 377Q64 479 126 565T282 701T479 752Q574 752 650 708T770 588T814 419Q814 389 810 365Q796 262 733 176T576 40T380 -10Q284 -10 208 33ZM469
58T545 97T674 209T739 377Q743 411 743 427Q743 504 709 562T615 653T478 685Q390 685 313 645T185 532T121 365Q117 341 117 312Q117 235 150 178T244 89T382 58Q469 58 545 97ZM520 588T558 556T613 474Q617 469 609 467L548 455H547Q540 455 538 468Q526 495
508 510T462 525Q410 525 372 483T324 368Q321 349 321 333Q321 280 346 251T414 222Q482 222 533 299H534Q537 299 539 298T544 295L584 282Q591 279 589 265Q559 221 514 191T407 160Q328 160 280 209T232 340Q232 359 235 378Q244 439 275 487T355 561T459 588Q520
588 558 556Z" />
<glyph unicode="&#xaa;" glyph-name="ordfeminine" horiz-adv-x="396" d="M317 750T348 725T379 656Q379 644 378 637L354 470Q352 460 352 443Q352 429 353 419Q354 418 354 416Q354 412 340 412H296Q285 412 283 425V449Q283 452 281 452Q281 452 272 443Q242
423 219 415T169 406Q120 406 94 428T67 489Q67 597 249 612L291 616Q297 616 301 619T307 628L309 642Q310 646 310 654Q310 699 251 699Q224 699 204 689T166 653Q164 651 163 651Q161 651 160 652T155 654L108 668Q107 670 106 675T106 684Q128 717 163 733T253
750Q317 750 348 725ZM137 478T151 467T193 456Q233 456 261 484Q288 501 291 521L297 564V569Q297 571 295 571T289 571L254 568Q205 564 175 546T140 497Q137 478 151 467Z" />
<glyph unicode="&#xab;" glyph-name="guillemotleft" horiz-adv-x="459" d="M196 76L197 72Q197 71 188 71H151Q147 71 144 74T140 80L44 246Q41 254 41 260Q41 266 44 272L190 449Q193 453 196 453T201 452H240Q245 452 248 448T249 438L134 263Q127 252 129
245L196 76ZM380 76L381 72Q381 71 372 71H335Q331 71 328 74T324 80L228 246Q225 254 225 260Q225 266 228 272L374 449Q377 453 379 453T384 452H424Q429 452 432 448T433 438L317 263Q315 259 314 255T313 245L380 76Z" />
<glyph unicode="&#xac;" glyph-name="logicalnot" horiz-adv-x="565" d="M524 376V372L499 196Q498 188 495 186T483 184H426Q419 184 415 188T412 199L430 333L84 332Q76 332 72 337T69 350L77 402Q79 409 80 411T87 413H516Q521 413 524 409T528 399L524 376Z" />
<glyph unicode="&#xad;" glyph-name="uni00AD" horiz-adv-x="381" d="M537 237Q536 229 533 227T518 224H289Q273 224 273 241L281 294Q282 301 284 303T291 305H534Q539 305 542 301T545 291L537 237Z" />
<glyph unicode="&#xae;" glyph-name="registered" horiz-adv-x="545" d="M396 752T444 724T519 648T547 541Q547 519 545 507Q536 444 497 391T400 306T278 275Q218 275 170 302T94 378T67 484Q67 507 69 519Q78 583 117 636T214 721T337 752Q396 752 444 724ZM495
531T495 552Q495 621 453 661T339 702Q253 702 194 649T122 507Q119 489 119 473Q119 404 161 365T277 325Q361 325 421 378T493 519Q495 531 495 552ZM373 630T393 615T414 573Q414 526 363 505Q360 506 358 505T357 501L384 398Q385 396 385 395T382 393H342Q340
393 338 395T336 401L314 500Q313 501 312 501T307 501H266Q263 501 259 494L245 396Q245 394 245 394T241 393H206Q202 393 201 396T200 402L231 628V630H233H336Q373 630 393 615ZM365 585T357 589T328 594H281Q273 594 272 587L265 538Q265 537 267 537H318Q338
537 351 547T365 575Q365 585 357 589Z" />
<glyph unicode="&#xaf;" glyph-name="overscore" horiz-adv-x="338" d="M384 669Q383 662 380 660T367 657H81Q73 657 70 662T68 674L74 721Q75 727 76 728T83 730H381Q386 730 389 726T391 716L384 669Z" />
<glyph unicode="&#xb0;" glyph-name="degree" horiz-adv-x="464" d="M457 662T432 620T365 555T274 531Q208 531 168 570T128 673Q128 725 152 767T218 834T311 858Q376 858 416 818T457 714Q457 662 432 620ZM386 704T386 715Q386 749 366 769T308 790Q261 790
229 756T196 672Q196 637 216 617T273 596Q317 596 347 624T385 699Q386 704 386 715Z" />
<glyph unicode="&#xb1;" glyph-name="plusminus" horiz-adv-x="565" d="M532 494T536 489T539 479L531 426Q530 418 527 416T512 413H344L320 236Q318 231 316 230T309 228H257Q248 228 244 234T241 251L264 413H96Q79 413 81 430L88 483Q89 489 91 491T99 493H275L299
667Q300 675 302 677T313 679H365Q372 679 376 675T379 665L355 494H527Q532 494 536 489ZM482 136T485 131T488 121L481 69Q480 60 477 58T462 56L46 55Q37 55 33 59T31 72L38 125Q39 131 41 133T48 135L477 136Q482 136 485 131Z" />
<glyph unicode="&#xb2;" glyph-name="uni00B2" horiz-adv-x="452" d="M179 583Q241 632 269 667T297 736Q297 766 277 783T224 800Q195 800 165 783T111 734Q108 729 102 732L57 761Q56 762 56 764Q56 767 60 774Q92 814 137 835T232 857Q294 857 332 827T371
741Q371 691 342 653T251 564L116 455Q112 452 112 450T116 448H326Q337 448 335 439L328 391Q328 384 319 384H16Q4 384 5 397L9 430Q11 437 14 442T33 458L179 583Z" />
<glyph unicode="&#xb3;" glyph-name="uni00B3" horiz-adv-x="467" d="M81 791T87 797Q156 857 245 857Q314 857 354 827T395 750Q395 711 368 679T298 632Q294 631 294 630T298 627Q334 617 356 591T378 528Q378 460 324 419T178 378Q120 378 83 397T22 451Q20
454 20 456T21 461L61 488Q66 492 68 487Q110 434 182 434Q234 434 269 459T304 527Q304 561 276 580T207 599L150 600Q143 600 143 606L149 650Q149 654 156 654L201 655Q249 655 284 681T320 744Q320 770 299 786T242 802Q207 802 182 790T126 753Q119 749 114
754L87 786Q81 791 87 797Z" />
<glyph unicode="&#xb4;" glyph-name="acute" horiz-adv-x="292" d="M340 689L341 683Q341 675 328 671L89 603Q87 602 83 602Q73 602 71 614L65 641L64 647Q64 653 69 655L315 752H317Q321 752 324 749T328 742L340 689Z" />
<glyph unicode="&#xb6;" glyph-name="paragraph" horiz-adv-x="574" d="M516 678Q512 678 508 674T504 666L399 -78Q399 -79 399 -81T397 -84T392 -85H343Q337 -85 334 -81T332 -72L436 674Q437 677 436 677T431 678H394Q390 678 387 675T382 666L277 -78Q277
-83 276 -84T269 -85H219Q215 -85 212 -82T209 -72L262 303Q262 306 260 307Q175 310 126 360T76 489Q76 512 78 524Q86 583 119 632T210 712T342 742H566Q570 742 573 739T575 731L569 682Q568 679 567 679T562 678H516Z" />
<glyph unicode="&#xb7;" glyph-name="middot" horiz-adv-x="216" d="M178 328Q177 318 174 316T159 313H70Q61 313 57 318T54 331L67 423Q68 430 70 432T77 434H180Q186 434 189 430T191 418L178 328Z" />
<glyph unicode="&#xb8;" glyph-name="cedilla" horiz-adv-x="234" d="M168 -167T133 -190T47 -213Q-10 -213 -45 -187Q-49 -187 -51 -184T-53 -177L-36 -149Q-34 -146 -32 -149T-29 -153Q-1 -169 32 -169Q60 -169 77 -158T97 -127Q99 -107 83 -98T24 -88Q10 -88
13 -78L62 5H116L87 -53Q85 -56 86 -56Q129 -58 148 -78T168 -127Q168 -167 133 -190Z" />
<glyph unicode="&#xb9;" glyph-name="uni00B9" horiz-adv-x="367" d="M246 438T245 431L239 387Q238 383 237 382T230 380H-1Q-9 380 -7 388L-1 433Q-1 438 6 438H82Q88 438 89 444L133 764Q135 770 128 767L52 742L48 741Q42 741 42 749L47 783Q47 784 48 787T55
794L158 842Q170 847 180 847H214Q221 847 220 837L164 443Q164 438 168 438H238Q246 438 245 431Z" />
<glyph unicode="&#xba;" glyph-name="ordmasculine" horiz-adv-x="407" d="M334 751T372 711T411 604Q411 594 409 572Q398 498 350 453T228 407Q160 407 122 446T84 552Q84 561 86 583Q97 659 147 705T267 751Q334 751 372 711ZM225 699T197 666T161 575Q158
556 158 540Q158 460 226 460Q270 460 298 493T335 586Q337 597 337 617Q337 657 320 678T268 699Q225 699 197 666Z" />
<glyph unicode="&#xbb;" glyph-name="guillemotright" horiz-adv-x="458" d="M145 262T143 269L77 444Q76 449 77 450T83 452H122Q129 452 133 443L229 267Q232 261 232 254Q232 247 227 241L84 74Q81 71 73 71H36Q29 71 26 74T24 82L138 251Q145 262 143 269ZM329
262T327 269L261 444Q260 449 261 450T267 452H306Q313 452 317 443L413 267Q416 261 416 254Q416 247 411 241L268 74Q265 71 257 71H220Q213 71 210 74T208 82L322 251Q329 262 327 269Z" />
<glyph unicode="&#xbc;" glyph-name="onequarter" horiz-adv-x="907" d="M235 334T234 327L228 283Q227 279 226 278T219 276H-12Q-20 276 -18 284L-12 329Q-12 334 -5 334H71Q77 334 78 340L122 660Q124 666 117 663L41 638L37 637Q31 637 31 645L36 679Q36 680
37 683T44 690L147 738Q159 743 169 743H203Q210 743 209 733L153 339Q153 334 157 334H227Q235 334 234 327ZM175 3Q171 -2 167 -3T154 -4H123Q110 -4 110 9Q110 16 114 21L697 744Q700 749 703 750T709 751T715 750H754Q761 750 764 746T763 734L175 3ZM700 464T703
465T714 467H770Q779 467 777 458L738 179Q737 175 742 175H800Q809 175 808 168L803 128Q801 123 800 122T793 120H735Q729 120 728 113L714 9Q713 3 711 2T702 0H647Q637 0 637 9L652 116Q653 120 648 120H447Q437 120 438 130L444 170Q445 179 458 194L696 460Q700
464 703 465ZM654 175Q660 175 661 181L688 376V378Q688 380 687 380Q686 380 680 374L511 182Q504 175 512 175H654Z" />
<glyph unicode="&#xbd;" glyph-name="onehalf" horiz-adv-x="963" d="M235 334T234 327L228 283Q227 279 226 278T219 276H-12Q-20 276 -18 284L-12 329Q-12 334 -5 334H71Q77 334 78 340L122 660Q124 666 117 663L41 638L37 637Q31 637 31 645L36 679Q36 680
37 683T44 690L147 738Q159 743 169 743H203Q210 743 209 733L153 339Q153 334 157 334H227Q235 334 234 327ZM197 3Q193 -2 189 -3T176 -4H145Q132 -4 132 9Q132 16 136 21L719 744Q722 749 725 750T731 751T737 750H776Q783 750 786 746T785 734L197 3ZM669 199Q731
248 759 283T787 352Q787 382 767 399T714 416Q685 416 655 399T601 350Q598 345 592 348L547 377Q546 378 546 380Q546 383 550 390Q582 430 627 451T722 473Q784 473 822 443T861 357Q861 307 832 269T741 180L606 71Q602 68 602 66T606 64H816Q827 64 825 55L818
7Q818 0 809 0H506Q494 0 495 13L499 46Q501 53 504 58T523 74L669 199Z" />
<glyph unicode="&#xbe;" glyph-name="threequarters" horiz-adv-x="957" d="M69 686T75 692Q144 752 233 752Q302 752 342 722T383 645Q383 606 356 574T286 527Q282 526 282 525T286 522Q322 512 344 486T366 423Q366 355 312 314T166 273Q108 273 71 292T10
346Q8 349 8 351T9 356L49 383Q54 387 56 382Q98 329 170 329Q222 329 257 354T292 422Q292 456 264 475T195 494L138 495Q131 495 131 501L137 545Q137 549 144 549L189 550Q237 550 272 576T308 639Q308 665 287 681T230 697Q195 697 170 685T114 648Q107 644
102 649L75 681Q69 686 75 692ZM275 3Q271 -2 267 -3T254 -4H223Q210 -4 210 9Q210 16 214 21L797 744Q800 749 803 750T809 751T815 750H854Q861 750 864 746T863 734L275 3ZM746 464T749 465T760 467H816Q825 467 823 458L784 179Q783 175 788 175H846Q855 175
854 168L849 128Q847 123 846 122T839 120H781Q775 120 774 113L760 9Q759 3 757 2T748 0H693Q683 0 683 9L698 116Q699 120 694 120H493Q483 120 484 130L490 170Q491 179 504 194L742 460Q746 464 749 465ZM700 175Q706 175 707 181L734 376V378Q734 380 733
380Q732 380 726 374L557 182Q550 175 558 175H700Z" />
<glyph unicode="&#xbf;" glyph-name="questiondown" horiz-adv-x="522" d="M248 515Q249 525 253 527T269 530H354Q363 530 367 525T371 511L357 414Q356 407 354 405T346 402H246Q241 402 237 406T234 418L248 515ZM456 -21T458 -27T458 -41Q417 -105 349 -140T200
-175Q99 -175 44 -132T-11 -18Q-11 27 6 60T47 115T114 168Q170 208 200 241T238 326Q240 335 251 335H311Q318 335 322 329T325 312Q319 268 300 235T256 178T194 126Q148 90 125 65T97 2Q96 -3 96 -12Q96 -50 125 -72T203 -95Q252 -95 299 -68T368 -1Q372 3 375
3Q378 3 384 0L451 -20Q456 -21 458 -27Z" />
<glyph unicode="&#xc0;" glyph-name="Agrave" horiz-adv-x="741" d="M3 0T3 9Q3 15 7 23L363 729Q367 737 372 739T388 742H489Q507 742 509 722L664 17L665 12Q665 0 653 0H558Q545 0 543 14L504 192Q503 196 501 197T494 199H218Q212 199 209 197T203 189L111
8Q109 3 106 2T96 0H12Q3 0 3 9ZM476 293Q488 293 486 308L418 606Q417 615 413 615Q409 615 404 604L253 307Q250 301 250 297Q250 293 257 293H476ZM343 966T351 962L571 865Q575 863 577 859T577 848L563 821Q560 814 555 814L546 816L326 884Q317 887 314 893T314
907L339 959Q343 966 351 962Z" />
<glyph unicode="&#xc1;" glyph-name="Aacute" horiz-adv-x="741" d="M3 0T3 9Q3 15 7 23L363 729Q367 737 372 739T388 742H489Q507 742 509 722L664 17L665 12Q665 0 653 0H558Q545 0 543 14L504 192Q503 196 501 197T494 199H218Q212 199 209 197T203 189L111
8Q109 3 106 2T96 0H12Q3 0 3 9ZM476 293Q488 293 486 308L418 606Q417 615 413 615Q409 615 404 604L253 307Q250 301 250 297Q250 293 257 293H476ZM593 901L594 895Q594 887 581 883L342 815Q340 814 336 814Q326 814 324 826L318 853L317 859Q317 865 322 867L568
964H570Q574 964 577 961T581 954L593 901Z" />
<glyph unicode="&#xc2;" glyph-name="Acircumflex" horiz-adv-x="741" d="M3 0T3 9Q3 15 7 23L363 729Q367 737 372 739T388 742H489Q507 742 509 722L664 17L665 12Q665 0 653 0H558Q545 0 543 14L504 192Q503 196 501 197T494 199H218Q212 199 209 197T203 189L111
8Q109 3 106 2T96 0H12Q3 0 3 9ZM476 293Q488 293 486 308L418 606Q417 615 413 615Q409 615 404 604L253 307Q250 301 250 297Q250 293 257 293H476ZM471 896Q464 903 461 903Q458 903 446 891L382 841Q378 837 375 836T369 835T363 836H300Q296 836 294 838T291
843Q291 847 296 852L414 949Q425 959 442 959H492Q501 959 505 953T511 946L601 847Q602 846 605 842T608 837T602 836H534Q523 836 515 846L471 896Z" />
<glyph unicode="&#xc3;" glyph-name="Atilde" horiz-adv-x="741" d="M3 0T3 9Q3 15 7 23L363 729Q367 737 372 739T388 742H489Q507 742 509 722L664 17L665 12Q665 0 653 0H558Q545 0 543 14L504 192Q503 196 501 197T494 199H218Q212 199 209 197T203 189L111
8Q109 3 106 2T96 0H12Q3 0 3 9ZM476 293Q488 293 486 308L418 606Q417 615 413 615Q409 615 404 604L253 307Q250 301 250 297Q250 293 257 293H476ZM567 859T526 859Q494 859 454 873Q440 878 425 881T396 885Q375 885 361 879T330 860Q328 859 324 859Q319 859
317 862T313 872L306 903Q304 909 304 912Q304 917 309 923Q332 937 350 943T392 950Q411 950 425 947T467 935Q504 922 526 922Q545 922 560 928T591 946Q593 947 597 947Q608 947 610 934L616 897V892Q616 885 609 878Q567 859 526 859Z" />
<glyph unicode="&#xc4;" glyph-name="Adieresis" horiz-adv-x="741" d="M3 0T3 9Q3 15 7 23L363 729Q367 737 372 739T388 742H489Q507 742 509 722L664 17L665 12Q665 0 653 0H558Q545 0 543 14L504 192Q503 196 501 197T494 199H218Q212 199 209 197T203 189L111
8Q109 3 106 2T96 0H12Q3 0 3 9ZM476 293Q488 293 486 308L418 606Q417 615 413 615Q409 615 404 604L253 307Q250 301 250 297Q250 293 257 293H476ZM418 851Q417 841 414 839T400 837H334Q317 837 319 855L332 943Q333 951 334 952T343 954H419Q425 954 428 950T431
938L418 851ZM583 851Q582 842 579 840T564 837H499Q490 837 486 842T484 855L496 943Q497 950 499 952T507 954H583Q589 954 592 950T595 938L583 851Z" />
<glyph unicode="&#xc5;" glyph-name="Aring" horiz-adv-x="741" d="M3 0T3 9Q3 15 7 23L363 729Q367 737 372 739T388 742H489Q507 742 509 722L664 17L665 12Q665 0 653 0H558Q545 0 543 14L504 192Q503 196 501 197T494 199H218Q212 199 209 197T203 189L111
8Q109 3 106 2T96 0H12Q3 0 3 9ZM476 293Q488 293 486 308L418 606Q417 615 413 615Q409 615 404 604L253 307Q250 301 250 297Q250 293 257 293H476ZM555 818T520 784T437 750Q395 750 368 777T341 848Q341 878 357 904T400 946T458 962Q500 962 527 935T555 867Q555
818 520 784ZM502 865T502 871Q502 889 490 899T459 910Q435 910 415 893T391 850Q389 830 402 816T435 801Q459 801 478 819T501 862Q502 865 502 871Z" />
<glyph unicode="&#xc6;" glyph-name="AE" horiz-adv-x="1030" d="M952 91T956 87T959 76L950 10Q948 4 946 2T937 0H481Q472 0 468 5T465 19L490 194Q490 198 489 198T484 199H252Q242 199 235 188L110 8Q107 3 103 2T92 0H15Q10 0 7 3T3 12Q3 18 7 23L496 729Q501
737 506 739T520 742H1026Q1032 742 1035 737T1038 726L1028 663Q1027 656 1024 654T1013 651H691Q683 651 678 647T672 635L643 429V425Q643 421 644 420T652 419H884Q891 419 895 415T897 404L887 337Q887 332 886 331T877 329H643Q637 329 633 325T627 315L597
99Q596 93 596 92T603 91H945Q952 91 956 87ZM495 293T500 298T506 309L549 622V627Q549 635 545 635Q542 635 537 630T526 617L305 304Q304 302 301 298T299 294T304 293H489Q495 293 500 298Z" />
<glyph unicode="&#xc7;" glyph-name="Ccedilla" horiz-adv-x="712" d="M696 533Q696 522 685 522L595 516Q586 516 584 534Q578 593 541 628T442 664Q354 664 298 605T217 456T192 275Q192 178 232 130T355 82Q495 82 564 222Q569 228 575 228Q580 228 583 227L656
207Q660 206 660 200Q660 195 657 186Q638 141 598 98T499 25T367 -9L345 -53Q344 -56 344 -56Q387 -58 406 -78T426 -127Q426 -167 391 -190T305 -213Q248 -213 213 -187Q209 -187 207 -184T205 -177L222 -149Q224 -146 226 -149T229 -153Q257 -169 290 -169Q318
-169 335 -158T355 -127Q357 -107 341 -98T282 -88Q268 -88 271 -78L312 -8Q196 2 132 82T68 293Q68 410 109 515T235 686T442 752Q513 752 571 723T662 645T696 536V533Z" />
<glyph unicode="&#xc8;" glyph-name="Egrave" horiz-adv-x="636" d="M155 738T157 740T166 742H636Q647 742 644 726L636 664Q635 657 631 654T619 651H275Q268 651 266 649T262 639L232 429V426Q232 422 233 421T240 419H490Q496 419 498 417T499 407L489 338Q488
333 486 331T477 329H228Q222 329 220 327T216 317L186 101V97Q186 91 193 91H555Q562 91 564 89T565 79L557 10Q555 4 553 2T543 0H69Q59 0 56 4T54 19L154 730Q155 738 157 740ZM315 966T323 962L543 865Q547 863 549 859T549 848L535 821Q532 814 527 814L518
816L298 884Q289 887 286 893T286 907L311 959Q315 966 323 962Z" />
<glyph unicode="&#xc9;" glyph-name="Eacute" horiz-adv-x="636" d="M155 738T157 740T166 742H636Q647 742 644 726L636 664Q635 657 631 654T619 651H275Q268 651 266 649T262 639L232 429V426Q232 422 233 421T240 419H490Q496 419 498 417T499 407L489 338Q488
333 486 331T477 329H228Q222 329 220 327T216 317L186 101V97Q186 91 193 91H555Q562 91 564 89T565 79L557 10Q555 4 553 2T543 0H69Q59 0 56 4T54 19L154 730Q155 738 157 740ZM565 901L566 895Q566 887 553 883L314 815Q312 814 308 814Q298 814 296 826L290
853L289 859Q289 865 294 867L540 964H542Q546 964 549 961T553 954L565 901Z" />
<glyph unicode="&#xca;" glyph-name="Ecircumflex" horiz-adv-x="636" d="M155 738T157 740T166 742H636Q647 742 644 726L636 664Q635 657 631 654T619 651H275Q268 651 266 649T262 639L232 429V426Q232 422 233 421T240 419H490Q496 419 498 417T499 407L489
338Q488 333 486 331T477 329H228Q222 329 220 327T216 317L186 101V97Q186 91 193 91H555Q562 91 564 89T565 79L557 10Q555 4 553 2T543 0H69Q59 0 56 4T54 19L154 730Q155 738 157 740ZM443 896Q436 903 433 903Q430 903 418 891L354 841Q350 837 347 836T341
835T335 836H272Q268 836 266 838T263 843Q263 847 268 852L386 949Q397 959 414 959H464Q473 959 477 953T483 946L573 847Q574 846 577 842T580 837T574 836H506Q495 836 487 846L443 896Z" />
<glyph unicode="&#xcb;" glyph-name="Edieresis" horiz-adv-x="636" d="M155 738T157 740T166 742H636Q647 742 644 726L636 664Q635 657 631 654T619 651H275Q268 651 266 649T262 639L232 429V426Q232 422 233 421T240 419H490Q496 419 498 417T499 407L489
338Q488 333 486 331T477 329H228Q222 329 220 327T216 317L186 101V97Q186 91 193 91H555Q562 91 564 89T565 79L557 10Q555 4 553 2T543 0H69Q59 0 56 4T54 19L154 730Q155 738 157 740ZM390 851Q389 841 386 839T372 837H306Q289 837 291 855L304 943Q305 951
306 952T315 954H391Q397 954 400 950T403 938L390 851ZM555 851Q554 842 551 840T536 837H471Q462 837 458 842T456 855L468 943Q469 950 471 952T479 954H555Q561 954 564 950T567 938L555 851Z" />
<glyph unicode="&#xcc;" glyph-name="Igrave" horiz-adv-x="298" d="M263 742Q276 742 273 724L174 16Q173 5 170 3T154 0H68Q51 0 54 19L154 730Q155 738 157 740T166 742H263ZM125 966T133 962L353 865Q357 863 359 859T359 848L345 821Q342 814 337 814L328
816L108 884Q99 887 96 893T96 907L121 959Q125 966 133 962Z" />
<glyph unicode="&#xcd;" glyph-name="Iacute" horiz-adv-x="298" d="M263 742Q276 742 273 724L174 16Q173 5 170 3T154 0H68Q51 0 54 19L154 730Q155 738 157 740T166 742H263ZM375 901L376 895Q376 887 363 883L124 815Q122 814 118 814Q108 814 106 826L100
853L99 859Q99 865 104 867L350 964H352Q356 964 359 961T363 954L375 901Z" />
<glyph unicode="&#xce;" glyph-name="Icircumflex" horiz-adv-x="298" d="M263 742Q276 742 273 724L174 16Q173 5 170 3T154 0H68Q51 0 54 19L154 730Q155 738 157 740T166 742H263ZM253 896Q246 903 243 903Q240 903 228 891L164 841Q160 837 157 836T151 835T145
836H82Q78 836 76 838T73 843Q73 847 78 852L196 949Q207 959 224 959H274Q283 959 287 953T293 946L383 847Q384 846 387 842T390 837T384 836H316Q305 836 297 846L253 896Z" />
<glyph unicode="&#xcf;" glyph-name="Idieresis" horiz-adv-x="298" d="M263 742Q276 742 273 724L174 16Q173 5 170 3T154 0H68Q51 0 54 19L154 730Q155 738 157 740T166 742H263ZM200 851Q199 841 196 839T182 837H116Q99 837 101 855L114 943Q115 951 116 952T125
954H201Q207 954 210 950T213 938L200 851ZM365 851Q364 842 361 840T346 837H281Q272 837 268 842T266 855L278 943Q279 950 281 952T289 954H365Q371 954 374 950T377 938L365 851Z" />
<glyph unicode="&#xd0;" glyph-name="Eth" horiz-adv-x="702" d="M488 742T576 667T665 450Q665 309 614 208T461 54T214 0H42Q33 0 29 5T25 21L68 328H58Q40 328 42 348L49 399Q51 407 53 409T61 411H80L125 730Q126 737 129 739T141 742H311Q488 742 576 667ZM539
88T539 456Q539 561 483 607T309 653H247Q233 653 232 638L201 411H386Q391 411 394 406T397 395L390 343Q389 333 385 331T369 328H190L159 104L158 99Q158 88 170 88H224Q539 88 539 456Z" />
<glyph unicode="&#xd1;" glyph-name="Ntilde" horiz-adv-x="757" d="M724 742Q731 742 733 739T734 729L633 10Q632 4 629 2T620 0H554Q541 0 534 12L241 537Q238 543 235 543Q230 543 228 532L155 13Q154 5 151 3T139 0H65Q51 0 53 17L154 730Q155 738 157 740T168
742H245Q253 742 257 739T266 728L545 221Q550 213 555 213Q562 213 563 225L634 731Q635 738 637 740T647 742H724ZM587 859T546 859Q514 859 474 873Q460 878 445 881T416 885Q395 885 381 879T350 860Q348 859 344 859Q339 859 337 862T333 872L326 903Q324
909 324 912Q324 917 329 923Q352 937 370 943T412 950Q431 950 445 947T487 935Q524 922 546 922Q565 922 580 928T611 946Q613 947 617 947Q628 947 630 934L636 897V892Q636 885 629 878Q587 859 546 859Z" />
<glyph unicode="&#xd2;" glyph-name="Ograve" horiz-adv-x="767" d="M215 -10T142 67T68 287Q68 337 74 374Q91 492 141 577T270 707T448 752Q580 752 654 673T728 450Q728 400 722 363Q706 246 656 162T527 34T349 -10Q215 -10 142 67ZM456 79T516 150T598 373Q605
425 605 472Q605 570 565 617T445 664Q343 664 282 590T199 362Q191 306 191 268Q191 171 231 125T354 79Q456 79 516 150ZM359 966T367 962L587 865Q591 863 593 859T593 848L579 821Q576 814 571 814L562 816L342 884Q333 887 330 893T330 907L355 959Q359 966
367 962Z" />
<glyph unicode="&#xd3;" glyph-name="Oacute" horiz-adv-x="767" d="M215 -10T142 67T68 287Q68 337 74 374Q91 492 141 577T270 707T448 752Q580 752 654 673T728 450Q728 400 722 363Q706 246 656 162T527 34T349 -10Q215 -10 142 67ZM456 79T516 150T598 373Q605
425 605 472Q605 570 565 617T445 664Q343 664 282 590T199 362Q191 306 191 268Q191 171 231 125T354 79Q456 79 516 150ZM609 901L610 895Q610 887 597 883L358 815Q356 814 352 814Q342 814 340 826L334 853L333 859Q333 865 338 867L584 964H586Q590 964 593
961T597 954L609 901Z" />
<glyph unicode="&#xd4;" glyph-name="Ocircumflex" horiz-adv-x="767" d="M215 -10T142 67T68 287Q68 337 74 374Q91 492 141 577T270 707T448 752Q580 752 654 673T728 450Q728 400 722 363Q706 246 656 162T527 34T349 -10Q215 -10 142 67ZM456 79T516 150T598
373Q605 425 605 472Q605 570 565 617T445 664Q343 664 282 590T199 362Q191 306 191 268Q191 171 231 125T354 79Q456 79 516 150ZM487 896Q480 903 477 903Q474 903 462 891L398 841Q394 837 391 836T385 835T379 836H316Q312 836 310 838T307 843Q307 847 312
852L430 949Q441 959 458 959H508Q517 959 521 953T527 946L617 847Q618 846 621 842T624 837T618 836H550Q539 836 531 846L487 896Z" />
<glyph unicode="&#xd5;" glyph-name="Otilde" horiz-adv-x="767" d="M215 -10T142 67T68 287Q68 337 74 374Q91 492 141 577T270 707T448 752Q580 752 654 673T728 450Q728 400 722 363Q706 246 656 162T527 34T349 -10Q215 -10 142 67ZM456 79T516 150T598 373Q605
425 605 472Q605 570 565 617T445 664Q343 664 282 590T199 362Q191 306 191 268Q191 171 231 125T354 79Q456 79 516 150ZM583 859T542 859Q510 859 470 873Q456 878 441 881T412 885Q391 885 377 879T346 860Q344 859 340 859Q335 859 333 862T329 872L322 903Q320
909 320 912Q320 917 325 923Q348 937 366 943T408 950Q427 950 441 947T483 935Q520 922 542 922Q561 922 576 928T607 946Q609 947 613 947Q624 947 626 934L632 897V892Q632 885 625 878Q583 859 542 859Z" />
<glyph unicode="&#xd6;" glyph-name="Odieresis" horiz-adv-x="767" d="M215 -10T142 67T68 287Q68 337 74 374Q91 492 141 577T270 707T448 752Q580 752 654 673T728 450Q728 400 722 363Q706 246 656 162T527 34T349 -10Q215 -10 142 67ZM456 79T516 150T598
373Q605 425 605 472Q605 570 565 617T445 664Q343 664 282 590T199 362Q191 306 191 268Q191 171 231 125T354 79Q456 79 516 150ZM434 851Q433 841 430 839T416 837H350Q333 837 335 855L348 943Q349 951 350 952T359 954H435Q441 954 444 950T447 938L434 851ZM599
851Q598 842 595 840T580 837H515Q506 837 502 842T500 855L512 943Q513 950 515 952T523 954H599Q605 954 608 950T611 938L599 851Z" />
<glyph unicode="&#xd7;" glyph-name="multiply" horiz-adv-x="551" d="M530 530T525 524L347 369L477 218Q481 214 481 210T478 202L436 165Q431 161 426 161Q419 161 411 171L287 316L111 162Q109 160 106 160Q102 160 96 166L64 203Q58 209 58 215Q58 222 65
229L234 377L107 524Q101 532 101 536Q101 541 106 546L148 583Q152 586 156 586Q159 586 165 580L294 430L468 582Q473 586 477 586Q482 586 488 578L521 541Q530 530 525 524Z" />
<glyph unicode="&#xd8;" glyph-name="Oslash" horiz-adv-x="740" d="M787 702T788 698T784 690L687 601Q716 533 716 450Q716 417 709 363Q692 246 642 162T513 34T336 -10Q266 -10 213 12T124 75L46 -1Q39 -8 33 -8Q26 -8 18 2L-5 28Q-14 39 -14 43Q-14 47 -9
52L83 136Q54 204 54 287Q54 331 61 374Q77 492 128 577T257 707T435 752Q504 752 558 729T647 663L730 745Q735 749 740 749Q745 749 750 744L783 708Q787 702 788 698ZM182 332T182 295Q182 256 189 228L567 592Q530 663 431 663Q329 663 269 589T187 362Q182
332 182 295ZM587 404T587 442Q587 482 580 510L204 147Q241 80 341 80Q443 80 502 151T582 373Q587 404 587 442Z" />
<glyph unicode="&#xd9;" glyph-name="Ugrave" horiz-adv-x="713" d="M612 115T535 53T322 -10Q195 -10 135 43T75 204Q75 237 81 276L145 729Q146 737 148 739T157 742H251Q258 742 262 737T264 724L198 249Q194 217 194 205Q194 141 229 111T334 80Q418 80 469
124T532 258L598 730Q600 738 602 740T610 742H686Q692 742 695 737T698 725L632 253Q612 115 535 53ZM340 966T348 962L568 865Q572 863 574 859T574 848L560 821Q557 814 552 814L543 816L323 884Q314 887 311 893T311 907L336 959Q340 966 348 962Z" />
<glyph unicode="&#xda;" glyph-name="Uacute" horiz-adv-x="713" d="M612 115T535 53T322 -10Q195 -10 135 43T75 204Q75 237 81 276L145 729Q146 737 148 739T157 742H251Q258 742 262 737T264 724L198 249Q194 217 194 205Q194 141 229 111T334 80Q418 80 469
124T532 258L598 730Q600 738 602 740T610 742H686Q692 742 695 737T698 725L632 253Q612 115 535 53ZM590 901L591 895Q591 887 578 883L339 815Q337 814 333 814Q323 814 321 826L315 853L314 859Q314 865 319 867L565 964H567Q571 964 574 961T578 954L590 901Z"
/>
<glyph unicode="&#xdb;" glyph-name="Ucircumflex" horiz-adv-x="713" d="M612 115T535 53T322 -10Q195 -10 135 43T75 204Q75 237 81 276L145 729Q146 737 148 739T157 742H251Q258 742 262 737T264 724L198 249Q194 217 194 205Q194 141 229 111T334 80Q418
80 469 124T532 258L598 730Q600 738 602 740T610 742H686Q692 742 695 737T698 725L632 253Q612 115 535 53ZM468 896Q461 903 458 903Q455 903 443 891L379 841Q375 837 372 836T366 835T360 836H297Q293 836 291 838T288 843Q288 847 293 852L411 949Q422 959
439 959H489Q498 959 502 953T508 946L598 847Q599 846 602 842T605 837T599 836H531Q520 836 512 846L468 896Z" />
<glyph unicode="&#xdc;" glyph-name="Udieresis" horiz-adv-x="713" d="M612 115T535 53T322 -10Q195 -10 135 43T75 204Q75 237 81 276L145 729Q146 737 148 739T157 742H251Q258 742 262 737T264 724L198 249Q194 217 194 205Q194 141 229 111T334 80Q418 80
469 124T532 258L598 730Q600 738 602 740T610 742H686Q692 742 695 737T698 725L632 253Q612 115 535 53ZM415 851Q414 841 411 839T397 837H331Q314 837 316 855L329 943Q330 951 331 952T340 954H416Q422 954 425 950T428 938L415 851ZM580 851Q579 842 576
840T561 837H496Q487 837 483 842T481 855L493 943Q494 950 496 952T504 954H580Q586 954 589 950T592 938L580 851Z" />
<glyph unicode="&#xdd;" glyph-name="Yacute" horiz-adv-x="694" d="M718 742T721 740T724 733Q724 730 721 725L427 330Q421 322 419 315T414 290L375 17Q374 7 369 4T352 0H267Q258 0 256 4T254 17L294 295Q295 300 295 307Q295 316 291 325L107 726Q104 732
104 735Q104 742 117 742H214Q223 742 227 738T236 725L368 424Q371 415 376 415Q380 415 386 424L605 731Q610 738 614 740T629 742H713Q718 742 721 740ZM575 901L576 895Q576 887 563 883L324 815Q322 814 318 814Q308 814 306 826L300 853L299 859Q299 865
304 867L550 964H552Q556 964 559 961T563 954L575 901Z" />
<glyph unicode="&#xde;" glyph-name="Thorn" horiz-adv-x="702" d="M655 272T577 219T376 166H207Q202 166 198 162T193 153L174 14Q173 5 169 3T156 0H69Q61 0 57 5T54 18L154 730Q155 738 157 740T166 742H261Q268 742 271 737T273 724L256 596Q255 593 256
592T260 591H417Q533 591 602 545T672 409Q672 388 670 377Q655 272 577 219ZM549 397T549 409Q549 457 512 479T403 501H260Q252 501 247 497T240 485L209 267V261Q209 257 210 256T217 255H370Q444 255 491 289T548 390Q549 397 549 409Z" />
<glyph unicode="&#xdf;" glyph-name="germandbls" horiz-adv-x="621" d="M473 742T516 707T559 615Q559 572 543 544T497 496T417 453Q380 437 368 426T355 395Q355 385 363 380T396 363Q448 344 482 326T542 275T568 190Q568 181 566 161Q554 79 492 35T341 -10Q303
-10 270 -1T216 23Q209 24 207 28T207 37L241 88Q243 90 245 90Q249 90 253 84Q274 74 293 69T336 63Q390 63 426 89T469 162Q470 166 470 175Q470 200 457 216T424 243T367 268Q323 284 297 307T270 372Q270 415 292 443T365 503Q370 506 397 520T441 555T460
600Q461 604 461 611Q461 638 440 653T379 668Q320 668 280 632T231 532L157 12V7Q157 3 155 2T148 0H66Q61 0 57 5T54 16L113 433Q114 438 113 439T107 440H60Q54 440 51 444T48 454L55 506Q56 512 58 514T67 516H112Q123 516 127 534Q141 627 208 684T388 742Q473
742 516 707Z" />
<glyph unicode="&#xe0;" glyph-name="agrave" horiz-adv-x="552" d="M272 -10T167 -10Q97 -10 57 24T16 117Q16 216 103 264T312 318L378 323Q387 324 392 328T399 341L403 366Q404 373 404 386Q404 426 379 447T309 469Q221 469 165 393Q159 385 148 389L83 409Q76
411 76 419Q76 425 80 433Q116 485 176 512T316 540Q411 540 458 502T506 397Q506 387 504 367L455 14Q454 4 451 2T440 0H373Q359 0 359 19L363 60Q363 67 359 67Q355 67 347 58Q272 -10 167 -10ZM386 252V257Q386 262 384 263T376 264L317 260Q241 254 182 226T123
133Q123 101 146 83T210 64Q240 64 269 74T322 102Q345 119 359 137T376 174L386 252ZM223 754T231 750L451 653Q455 651 457 647T457 636L443 609Q440 602 435 602L426 604L206 672Q197 675 194 681T194 695L219 747Q223 754 231 750Z" />
<glyph unicode="&#xe1;" glyph-name="aacute" horiz-adv-x="552" d="M272 -10T167 -10Q97 -10 57 24T16 117Q16 216 103 264T312 318L378 323Q387 324 392 328T399 341L403 366Q404 373 404 386Q404 426 379 447T309 469Q221 469 165 393Q159 385 148 389L83 409Q76
411 76 419Q76 425 80 433Q116 485 176 512T316 540Q411 540 458 502T506 397Q506 387 504 367L455 14Q454 4 451 2T440 0H373Q359 0 359 19L363 60Q363 67 359 67Q355 67 347 58Q272 -10 167 -10ZM386 252V257Q386 262 384 263T376 264L317 260Q241 254 182 226T123
133Q123 101 146 83T210 64Q240 64 269 74T322 102Q345 119 359 137T376 174L386 252ZM473 689L474 683Q474 675 461 671L222 603Q220 602 216 602Q206 602 204 614L198 641L197 647Q197 653 202 655L448 752H450Q454 752 457 749T461 742L473 689Z" />
<glyph unicode="&#xe2;" glyph-name="acircumflex" horiz-adv-x="552" d="M272 -10T167 -10Q97 -10 57 24T16 117Q16 216 103 264T312 318L378 323Q387 324 392 328T399 341L403 366Q404 373 404 386Q404 426 379 447T309 469Q221 469 165 393Q159 385 148 389L83
409Q76 411 76 419Q76 425 80 433Q116 485 176 512T316 540Q411 540 458 502T506 397Q506 387 504 367L455 14Q454 4 451 2T440 0H373Q359 0 359 19L363 60Q363 67 359 67Q355 67 347 58Q272 -10 167 -10ZM386 252V257Q386 262 384 263T376 264L317 260Q241 254
182 226T123 133Q123 101 146 83T210 64Q240 64 269 74T322 102Q345 119 359 137T376 174L386 252ZM351 684Q344 691 341 691Q338 691 326 679L262 629Q258 625 255 624T249 623T243 624H180Q176 624 174 626T171 631Q171 635 176 640L294 737Q305 747 322 747H372Q381
747 385 741T391 734L481 635Q482 634 485 630T488 625T482 624H414Q403 624 395 634L351 684Z" />
<glyph unicode="&#xe3;" glyph-name="atilde" horiz-adv-x="552" d="M272 -10T167 -10Q97 -10 57 24T16 117Q16 216 103 264T312 318L378 323Q387 324 392 328T399 341L403 366Q404 373 404 386Q404 426 379 447T309 469Q221 469 165 393Q159 385 148 389L83 409Q76
411 76 419Q76 425 80 433Q116 485 176 512T316 540Q411 540 458 502T506 397Q506 387 504 367L455 14Q454 4 451 2T440 0H373Q359 0 359 19L363 60Q363 67 359 67Q355 67 347 58Q272 -10 167 -10ZM386 252V257Q386 262 384 263T376 264L317 260Q241 254 182 226T123
133Q123 101 146 83T210 64Q240 64 269 74T322 102Q345 119 359 137T376 174L386 252ZM447 647T406 647Q374 647 334 661Q320 666 305 669T276 673Q255 673 241 667T210 648Q208 647 204 647Q199 647 197 650T193 660L186 691Q184 697 184 700Q184 705 189 711Q212
725 230 731T272 738Q291 738 305 735T347 723Q384 710 406 710Q425 710 440 716T471 734Q473 735 477 735Q488 735 490 722L496 685V680Q496 673 489 666Q447 647 406 647Z" />
<glyph unicode="&#xe4;" glyph-name="adieresis" horiz-adv-x="552" d="M272 -10T167 -10Q97 -10 57 24T16 117Q16 216 103 264T312 318L378 323Q387 324 392 328T399 341L403 366Q404 373 404 386Q404 426 379 447T309 469Q221 469 165 393Q159 385 148 389L83
409Q76 411 76 419Q76 425 80 433Q116 485 176 512T316 540Q411 540 458 502T506 397Q506 387 504 367L455 14Q454 4 451 2T440 0H373Q359 0 359 19L363 60Q363 67 359 67Q355 67 347 58Q272 -10 167 -10ZM386 252V257Q386 262 384 263T376 264L317 260Q241 254
182 226T123 133Q123 101 146 83T210 64Q240 64 269 74T322 102Q345 119 359 137T376 174L386 252ZM298 639Q297 629 294 627T280 625H214Q197 625 199 643L212 731Q213 739 214 740T223 742H299Q305 742 308 738T311 726L298 639ZM463 639Q462 630 459 628T444
625H379Q370 625 366 630T364 643L376 731Q377 738 379 740T387 742H463Q469 742 472 738T475 726L463 639Z" />
<glyph unicode="&#xe5;" glyph-name="aring" horiz-adv-x="552" d="M272 -10T167 -10Q97 -10 57 24T16 117Q16 216 103 264T312 318L378 323Q387 324 392 328T399 341L403 366Q404 373 404 386Q404 426 379 447T309 469Q221 469 165 393Q159 385 148 389L83 409Q76
411 76 419Q76 425 80 433Q116 485 176 512T316 540Q411 540 458 502T506 397Q506 387 504 367L455 14Q454 4 451 2T440 0H373Q359 0 359 19L363 60Q363 67 359 67Q355 67 347 58Q272 -10 167 -10ZM386 252V257Q386 262 384 263T376 264L317 260Q241 254 182 226T123
133Q123 101 146 83T210 64Q240 64 269 74T322 102Q345 119 359 137T376 174L386 252ZM446 658T411 624T328 590Q286 590 259 617T232 688Q232 718 248 744T291 786T349 802Q391 802 418 775T446 707Q446 658 411 624ZM393 705T393 711Q393 729 381 739T350 750Q326
750 306 733T282 690Q280 670 293 656T326 641Q350 641 369 659T392 702Q393 705 393 711Z" />
<glyph unicode="&#xe6;" glyph-name="ae" horiz-adv-x="923" d="M498 243T493 237T485 216Q483 202 483 196Q483 161 500 132T549 85T620 67Q672 67 707 88T781 149Q783 150 786 150Q789 150 796 146L843 122Q850 119 850 112Q850 108 847 102Q757 -10 605 -10Q479
-10 412 97H411Q405 97 403 88Q353 42 299 16T169 -10Q96 -10 56 24T15 119Q15 206 86 257T299 317L375 323Q383 324 390 329T398 341L402 366Q403 373 403 386Q403 426 378 447T305 469Q266 469 230 449T163 390Q159 386 156 386Q153 386 146 389L82 409Q76 411
76 421Q76 427 79 433Q117 486 174 513T314 540Q454 540 482 454Q556 540 674 540Q773 540 831 481T890 315Q890 285 886 260Q884 250 881 247T867 244L509 243Q498 243 493 237ZM632 469T595 449T533 391T500 305L768 307Q787 307 790 328Q791 335 791 348Q791
399 760 434T674 469Q632 469 595 449ZM386 254Q386 258 383 259T373 260L310 256Q230 250 180 220T122 140Q121 136 121 128Q121 97 141 80T201 62Q242 62 280 77T344 117T374 173L385 248L386 254Z" />
<glyph unicode="&#xe7;" glyph-name="ccedilla" horiz-adv-x="545" d="M529 396Q529 391 519 388L450 377H449Q443 377 438 392Q415 431 393 448T334 466Q274 466 232 428T167 330T145 210Q145 139 178 101T273 63Q321 63 357 85T427 156Q431 160 433 160T441
158L491 142Q499 140 499 130L497 122Q463 70 409 33T282 -9L260 -53Q259 -56 259 -56Q302 -58 321 -78T341 -127Q341 -167 306 -190T220 -213Q163 -213 128 -187Q124 -187 122 -184T120 -177L137 -149Q139 -146 141 -149T144 -153Q172 -169 205 -169Q233 -169
250 -158T270 -127Q272 -107 256 -98T197 -88Q183 -88 186 -78L227 -8Q140 3 89 64T38 219Q38 301 74 375T177 494T331 540Q411 540 460 501T528 401L529 396Z" />
<glyph unicode="&#xe8;" glyph-name="egrave" horiz-adv-x="582" d="M198 -10T146 18T66 98T38 217Q38 300 75 374T179 494T334 540Q434 540 491 481T549 317Q549 287 545 260Q544 244 524 244H158Q150 244 147 234T144 199Q144 138 181 103T280 67Q372 67 438
145Q442 149 447 149Q452 149 456 146L503 122Q511 119 511 111Q511 107 508 102Q457 42 400 16T266 -10Q198 -10 146 18ZM428 305Q439 305 445 314T451 348Q451 401 419 435T333 469Q287 469 249 446T188 386T159 305H428ZM243 754T251 750L471 653Q475 651 477
647T477 636L463 609Q460 602 455 602L446 604L226 672Q217 675 214 681T214 695L239 747Q243 754 251 750Z" />
<glyph unicode="&#xe9;" glyph-name="eacute" horiz-adv-x="582" d="M198 -10T146 18T66 98T38 217Q38 300 75 374T179 494T334 540Q434 540 491 481T549 317Q549 287 545 260Q544 244 524 244H158Q150 244 147 234T144 199Q144 138 181 103T280 67Q372 67 438
145Q442 149 447 149Q452 149 456 146L503 122Q511 119 511 111Q511 107 508 102Q457 42 400 16T266 -10Q198 -10 146 18ZM428 305Q439 305 445 314T451 348Q451 401 419 435T333 469Q287 469 249 446T188 386T159 305H428ZM493 689L494 683Q494 675 481 671L242
603Q240 602 236 602Q226 602 224 614L218 641L217 647Q217 653 222 655L468 752H470Q474 752 477 749T481 742L493 689Z" />
<glyph unicode="&#xea;" glyph-name="ecircumflex" horiz-adv-x="582" d="M198 -10T146 18T66 98T38 217Q38 300 75 374T179 494T334 540Q434 540 491 481T549 317Q549 287 545 260Q544 244 524 244H158Q150 244 147 234T144 199Q144 138 181 103T280 67Q372 67
438 145Q442 149 447 149Q452 149 456 146L503 122Q511 119 511 111Q511 107 508 102Q457 42 400 16T266 -10Q198 -10 146 18ZM428 305Q439 305 445 314T451 348Q451 401 419 435T333 469Q287 469 249 446T188 386T159 305H428ZM371 684Q364 691 361 691Q358 691
346 679L282 629Q278 625 275 624T269 623T263 624H200Q196 624 194 626T191 631Q191 635 196 640L314 737Q325 747 342 747H392Q401 747 405 741T411 734L501 635Q502 634 505 630T508 625T502 624H434Q423 624 415 634L371 684Z" />
<glyph unicode="&#xeb;" glyph-name="edieresis" horiz-adv-x="582" d="M198 -10T146 18T66 98T38 217Q38 300 75 374T179 494T334 540Q434 540 491 481T549 317Q549 287 545 260Q544 244 524 244H158Q150 244 147 234T144 199Q144 138 181 103T280 67Q372 67
438 145Q442 149 447 149Q452 149 456 146L503 122Q511 119 511 111Q511 107 508 102Q457 42 400 16T266 -10Q198 -10 146 18ZM428 305Q439 305 445 314T451 348Q451 401 419 435T333 469Q287 469 249 446T188 386T159 305H428ZM318 639Q317 629 314 627T300 625H234Q217
625 219 643L232 731Q233 739 234 740T243 742H319Q325 742 328 738T331 726L318 639ZM483 639Q482 630 479 628T464 625H399Q390 625 386 630T384 643L396 731Q397 738 399 740T407 742H483Q489 742 492 738T495 726L483 639Z" />
<glyph unicode="&#xec;" glyph-name="igrave" horiz-adv-x="247" d="M141 16Q140 5 137 3T121 0H53Q43 0 39 5T36 19L106 518Q107 526 109 528T118 530H198Q205 530 209 525T212 513L141 16ZM67 754T75 750L295 653Q299 651 301 647T301 636L287 609Q284 602 279
602L270 604L50 672Q41 675 38 681T38 695L63 747Q67 754 75 750Z" />
<glyph unicode="&#xed;" glyph-name="iacute" horiz-adv-x="247" d="M141 16Q140 5 137 3T121 0H53Q43 0 39 5T36 19L106 518Q107 526 109 528T118 530H198Q205 530 209 525T212 513L141 16ZM317 689L318 683Q318 675 305 671L66 603Q64 602 60 602Q50 602 48
614L42 641L41 647Q41 653 46 655L292 752H294Q298 752 301 749T305 742L317 689Z" />
<glyph unicode="&#xee;" glyph-name="icircumflex" horiz-adv-x="247" d="M141 16Q140 5 137 3T121 0H53Q43 0 39 5T36 19L106 518Q107 526 109 528T118 530H198Q205 530 209 525T212 513L141 16ZM195 684Q188 691 185 691Q182 691 170 679L106 629Q102 625 99
624T93 623T87 624H24Q20 624 18 626T15 631Q15 635 20 640L138 737Q149 747 166 747H216Q225 747 229 741T235 734L325 635Q326 634 329 630T332 625T326 624H258Q247 624 239 634L195 684Z" />
<glyph unicode="&#xef;" glyph-name="idieresis" horiz-adv-x="247" d="M141 16Q140 5 137 3T121 0H53Q43 0 39 5T36 19L106 518Q107 526 109 528T118 530H198Q205 530 209 525T212 513L141 16ZM142 639Q141 629 138 627T124 625H58Q41 625 43 643L56 731Q57 739
58 740T67 742H143Q149 742 152 738T155 726L142 639ZM307 639Q306 630 303 628T288 625H223Q214 625 210 630T208 643L220 731Q221 738 223 740T231 742H307Q313 742 316 738T319 726L307 639Z" />
<glyph unicode="&#xf0;" glyph-name="eth" horiz-adv-x="599" d="M546 179T506 118T404 24T263 -10Q195 -10 144 18T65 97T37 214Q37 236 40 258Q51 333 91 393T193 486T326 520Q392 520 428 486Q397 568 322 626L172 545Q170 544 167 544Q159 544 156 554L147
573Q143 579 143 582T147 587L280 655Q246 675 189 701Q183 702 181 705T183 713L234 749Q239 752 241 752Q243 752 251 747Q315 728 363 696L463 751Q464 752 467 752Q470 752 472 750T475 746L488 717Q488 715 489 712T488 707L406 667Q485 607 524 524T563 341Q563
302 557 260Q546 179 506 118ZM337 65T387 119T449 261Q452 282 452 300Q452 367 420 407T330 447Q261 447 211 392T147 249Q144 230 144 210Q144 144 177 105T268 65Q337 65 387 119Z" />
<glyph unicode="&#xf1;" glyph-name="ntilde" horiz-adv-x="588" d="M33 0T36 19L106 518Q107 526 109 528T118 530H201Q212 530 209 519L201 464V461Q201 457 203 457Q206 457 210 461Q308 540 398 540Q466 540 504 505T542 411Q542 402 540 384L488 15Q487 6
483 3T470 0H394Q380 0 383 19L432 367Q434 383 434 391Q434 460 355 460Q315 460 281 442T194 382L141 14Q140 5 136 3T122 0H48Q33 0 36 19ZM471 647T430 647Q398 647 358 661Q344 666 329 669T300 673Q279 673 265 667T234 648Q232 647 228 647Q223 647 221
650T217 660L210 691Q208 697 208 700Q208 705 213 711Q236 725 254 731T296 738Q315 738 329 735T371 723Q408 710 430 710Q449 710 464 716T495 734Q497 735 501 735Q512 735 514 722L520 685V680Q520 673 513 666Q471 647 430 647Z" />
<glyph unicode="&#xf2;" glyph-name="ograve" horiz-adv-x="599" d="M195 -10T144 18T66 98T38 218Q38 310 78 383T186 498T335 540Q403 540 454 511T532 429T559 307Q559 217 520 145T414 31T264 -10Q195 -10 144 18ZM321 65T363 96T429 187T454 325Q454 392
423 429T333 467Q280 467 238 435T170 344T145 205Q145 139 177 102T268 65Q321 65 363 96ZM245 754T253 750L473 653Q477 651 479 647T479 636L465 609Q462 602 457 602L448 604L228 672Q219 675 216 681T216 695L241 747Q245 754 253 750Z" />
<glyph unicode="&#xf3;" glyph-name="oacute" horiz-adv-x="599" d="M195 -10T144 18T66 98T38 218Q38 310 78 383T186 498T335 540Q403 540 454 511T532 429T559 307Q559 217 520 145T414 31T264 -10Q195 -10 144 18ZM321 65T363 96T429 187T454 325Q454 392
423 429T333 467Q280 467 238 435T170 344T145 205Q145 139 177 102T268 65Q321 65 363 96ZM495 689L496 683Q496 675 483 671L244 603Q242 602 238 602Q228 602 226 614L220 641L219 647Q219 653 224 655L470 752H472Q476 752 479 749T483 742L495 689Z" />
<glyph unicode="&#xf4;" glyph-name="ocircumflex" horiz-adv-x="599" d="M195 -10T144 18T66 98T38 218Q38 310 78 383T186 498T335 540Q403 540 454 511T532 429T559 307Q559 217 520 145T414 31T264 -10Q195 -10 144 18ZM321 65T363 96T429 187T454 325Q454
392 423 429T333 467Q280 467 238 435T170 344T145 205Q145 139 177 102T268 65Q321 65 363 96ZM373 684Q366 691 363 691Q360 691 348 679L284 629Q280 625 277 624T271 623T265 624H202Q198 624 196 626T193 631Q193 635 198 640L316 737Q327 747 344 747H394Q403
747 407 741T413 734L503 635Q504 634 507 630T510 625T504 624H436Q425 624 417 634L373 684Z" />
<glyph unicode="&#xf5;" glyph-name="otilde" horiz-adv-x="599" d="M195 -10T144 18T66 98T38 218Q38 310 78 383T186 498T335 540Q403 540 454 511T532 429T559 307Q559 217 520 145T414 31T264 -10Q195 -10 144 18ZM321 65T363 96T429 187T454 325Q454 392
423 429T333 467Q280 467 238 435T170 344T145 205Q145 139 177 102T268 65Q321 65 363 96ZM469 647T428 647Q396 647 356 661Q342 666 327 669T298 673Q277 673 263 667T232 648Q230 647 226 647Q221 647 219 650T215 660L208 691Q206 697 206 700Q206 705 211
711Q234 725 252 731T294 738Q313 738 327 735T369 723Q406 710 428 710Q447 710 462 716T493 734Q495 735 499 735Q510 735 512 722L518 685V680Q518 673 511 666Q469 647 428 647Z" />
<glyph unicode="&#xf6;" glyph-name="odieresis" horiz-adv-x="599" d="M195 -10T144 18T66 98T38 218Q38 310 78 383T186 498T335 540Q403 540 454 511T532 429T559 307Q559 217 520 145T414 31T264 -10Q195 -10 144 18ZM321 65T363 96T429 187T454 325Q454 392
423 429T333 467Q280 467 238 435T170 344T145 205Q145 139 177 102T268 65Q321 65 363 96ZM320 639Q319 629 316 627T302 625H236Q219 625 221 643L234 731Q235 739 236 740T245 742H321Q327 742 330 738T333 726L320 639ZM485 639Q484 630 481 628T466 625H401Q392
625 388 630T386 643L398 731Q399 738 401 740T409 742H485Q491 742 494 738T497 726L485 639Z" />
<glyph unicode="&#xf7;" glyph-name="divide" horiz-adv-x="566" d="M381 511Q380 502 377 500T362 497H271Q262 497 258 502T256 515L269 608Q270 615 272 616T279 618H384Q389 618 392 614T395 603L381 511ZM519 346Q519 337 516 335T501 333L84 332Q76 332
72 337T69 350L77 402Q79 409 80 411T87 413H516Q521 413 524 409T528 399L519 346ZM330 142Q328 132 325 130T310 127H219Q210 127 206 132T204 145L217 238Q218 245 220 247T227 249H332Q337 249 340 245T343 234L330 142Z" />
<glyph unicode="&#xf8;" glyph-name="oslash" horiz-adv-x="587" d="M599 493T599 489Q599 484 594 480L526 422Q550 373 550 307Q550 217 511 145T405 31T255 -10Q204 -10 162 6T90 53L34 5Q27 0 22 0Q15 0 8 10L-5 25Q-12 36 -12 40Q-12 45 -6 51L55 102Q29
152 29 218Q29 310 69 383T177 498T326 540Q430 540 492 473L553 525Q560 530 563 530Q569 530 575 522L594 500Q599 493 599 489ZM136 193T138 173L424 415Q392 467 324 467Q271 467 229 435T161 344T136 205Q136 193 138 173ZM445 336T443 352L160 112Q193 65
259 65Q312 65 354 96T420 187T445 325Q445 336 443 352Z" />
<glyph unicode="&#xf9;" glyph-name="ugrave" horiz-adv-x="583" d="M124 -10T85 26T46 122Q46 140 47 148L99 515Q101 524 104 527T116 530H190Q198 530 201 525T204 511L155 165Q154 158 154 145Q154 70 230 70Q269 70 308 91T390 151L442 516Q443 525 447 527T461
530H533Q541 530 545 525T549 511L477 11Q475 4 473 2T465 0H387Q374 0 375 12L383 66V68Q383 72 380 72Q377 72 372 68Q318 25 275 8T187 -10Q124 -10 85 26ZM225 754T233 750L453 653Q457 651 459 647T459 636L445 609Q442 602 437 602L428 604L208 672Q199 675
196 681T196 695L221 747Q225 754 233 750Z" />
<glyph unicode="&#xfa;" glyph-name="uacute" horiz-adv-x="583" d="M124 -10T85 26T46 122Q46 140 47 148L99 515Q101 524 104 527T116 530H190Q198 530 201 525T204 511L155 165Q154 158 154 145Q154 70 230 70Q269 70 308 91T390 151L442 516Q443 525 447 527T461
530H533Q541 530 545 525T549 511L477 11Q475 4 473 2T465 0H387Q374 0 375 12L383 66V68Q383 72 380 72Q377 72 372 68Q318 25 275 8T187 -10Q124 -10 85 26ZM475 689L476 683Q476 675 463 671L224 603Q222 602 218 602Q208 602 206 614L200 641L199 647Q199 653
204 655L450 752H452Q456 752 459 749T463 742L475 689Z" />
<glyph unicode="&#xfb;" glyph-name="ucircumflex" horiz-adv-x="583" d="M124 -10T85 26T46 122Q46 140 47 148L99 515Q101 524 104 527T116 530H190Q198 530 201 525T204 511L155 165Q154 158 154 145Q154 70 230 70Q269 70 308 91T390 151L442 516Q443 525
447 527T461 530H533Q541 530 545 525T549 511L477 11Q475 4 473 2T465 0H387Q374 0 375 12L383 66V68Q383 72 380 72Q377 72 372 68Q318 25 275 8T187 -10Q124 -10 85 26ZM353 684Q346 691 343 691Q340 691 328 679L264 629Q260 625 257 624T251 623T245 624H182Q178
624 176 626T173 631Q173 635 178 640L296 737Q307 747 324 747H374Q383 747 387 741T393 734L483 635Q484 634 487 630T490 625T484 624H416Q405 624 397 634L353 684Z" />
<glyph unicode="&#xfc;" glyph-name="udieresis" horiz-adv-x="583" d="M124 -10T85 26T46 122Q46 140 47 148L99 515Q101 524 104 527T116 530H190Q198 530 201 525T204 511L155 165Q154 158 154 145Q154 70 230 70Q269 70 308 91T390 151L442 516Q443 525 447
527T461 530H533Q541 530 545 525T549 511L477 11Q475 4 473 2T465 0H387Q374 0 375 12L383 66V68Q383 72 380 72Q377 72 372 68Q318 25 275 8T187 -10Q124 -10 85 26ZM300 639Q299 629 296 627T282 625H216Q199 625 201 643L214 731Q215 739 216 740T225 742H301Q307
742 310 738T313 726L300 639ZM465 639Q464 630 461 628T446 625H381Q372 625 368 630T366 643L378 731Q379 738 381 740T389 742H465Q471 742 474 738T477 726L465 639Z" />
<glyph unicode="&#xfd;" glyph-name="yacute" horiz-adv-x="541" d="M9 -165T-3 -162T-14 -149L-7 -99Q-5 -85 27 -85H89Q113 -85 135 -69T171 -28T185 18Q185 24 183 32L58 508Q57 511 57 517Q57 530 70 530H160Q173 530 174 520L262 160Q264 149 269 149Q275
149 281 162L465 515Q472 530 484 530H545Q553 530 553 524Q553 521 550 515L257 -30Q228 -84 198 -113T130 -153T41 -165Q9 -165 -3 -162ZM478 689L479 683Q479 675 466 671L227 603Q225 602 221 602Q211 602 209 614L203 641L202 647Q202 653 207 655L453 752H455Q459
752 462 749T466 742L478 689Z" />
<glyph unicode="&#xfe;" glyph-name="thorn" horiz-adv-x="599" d="M233 742T237 737T240 723L204 472V470Q204 467 206 467Q209 467 216 477Q219 479 243 497T302 528T377 540Q461 540 511 487T562 330Q562 304 557 266Q539 134 469 62T298 -10Q213 -10 166 44Q159
49 155 49Q146 49 143 31L118 -154Q116 -161 115 -163T106 -165H25Q20 -165 16 -160T13 -148L135 727Q137 737 140 739T153 742H224Q233 742 237 737ZM202 62T266 62Q337 62 386 117T451 278Q455 303 455 329Q455 400 423 434T337 468Q300 468 268 452T214 410T190
361L154 121Q202 62 266 62Z" />
<glyph unicode="&#xff;" glyph-name="ydieresis" horiz-adv-x="541" d="M9 -165T-3 -162T-14 -149L-7 -99Q-5 -85 27 -85H89Q113 -85 135 -69T171 -28T185 18Q185 24 183 32L58 508Q57 511 57 517Q57 530 70 530H160Q173 530 174 520L262 160Q264 149 269 149Q275
149 281 162L465 515Q472 530 484 530H545Q553 530 553 524Q553 521 550 515L257 -30Q228 -84 198 -113T130 -153T41 -165Q9 -165 -3 -162ZM303 639Q302 629 299 627T285 625H219Q202 625 204 643L217 731Q218 739 219 740T228 742H304Q310 742 313 738T316 726L303
639ZM468 639Q467 630 464 628T449 625H384Q375 625 371 630T369 643L381 731Q382 738 384 740T392 742H468Q474 742 477 738T480 726L468 639Z" />
<glyph unicode="&#x2013;" glyph-name="endash" horiz-adv-x="566" d="M503 230Q502 221 499 219T484 216H68Q51 216 53 233L61 287Q62 294 64 295T71 297L499 298Q504 298 508 293T511 283L503 230Z" />
<glyph unicode="&#x2014;" glyph-name="emdash" horiz-adv-x="889" d="M827 230Q826 221 822 219T807 216H68Q51 216 53 233L61 287Q62 294 64 295T71 297L822 298Q827 298 831 293T834 283L827 230Z" />
<glyph unicode="&#x2018;" glyph-name="quoteleft" horiz-adv-x="228" d="M287 742T283 731L225 634Q221 629 221 622Q221 614 231 612L247 611Q255 610 257 609T258 600L245 505Q244 499 240 495T230 490H126Q121 490 120 491T119 498L131 587Q132 592 136 596L236
727Q240 734 247 738T262 742H278Q287 742 283 731Z" />
<glyph unicode="&#x2019;" glyph-name="quoteright" horiz-adv-x="228" d="M77 490T81 501L139 598Q143 603 143 610Q143 618 133 620L117 621Q109 622 107 623T106 632L119 727Q120 733 124 737T134 742H238Q243 742 244 741T245 734L233 645Q232 640 228 636L128
505Q124 498 117 494T102 490H86Q77 490 81 501Z" />
<glyph unicode="&#x201a;" glyph-name="quotesinglbase" horiz-adv-x="228" d="M-12 -131T-6 -120L53 -24Q56 -17 56 -12Q56 -2 46 -1L30 0Q22 0 20 2T19 11L32 106Q33 112 37 116T47 121H150Q155 121 157 120T158 113L146 24Q146 22 140 14L41 -117Q37 -123 30
-127T15 -131H-1Q-12 -131 -6 -120Z" />
<glyph unicode="&#x201c;" glyph-name="quotedblleft" horiz-adv-x="419" d="M292 635Q289 628 289 623Q289 613 299 612H315Q324 611 325 610T326 601L312 506Q312 500 308 495T297 490H174Q169 490 168 491T167 498L180 587Q180 590 185 597L284 728Q288 734
295 738T310 742H326H328H330H346Q351 742 352 739T351 731L292 635Z" />
<glyph unicode="&#x201d;" glyph-name="quotedblright" horiz-adv-x="421" d="M77 490T81 501L139 598Q143 603 143 610Q143 618 133 620L117 621Q109 622 107 623T106 632L119 727Q120 733 124 737T134 742H238Q243 742 244 741T245 734L233 645Q232 640 228
636L128 505Q124 498 117 494T102 490H86Q77 490 81 501ZM268 490T273 501L331 598Q334 606 334 610Q334 619 325 620L308 621Q300 622 298 623T297 632L310 727Q312 733 316 737T326 742H429Q435 742 436 741T436 734L425 645Q424 641 419 636L319 505Q316 499
309 495T294 490H277Q268 490 273 501Z" />
<glyph unicode="&#x201e;" glyph-name="quotedblbase" horiz-adv-x="384" d="M142 -131T148 -120L207 -24Q210 -17 210 -12Q210 -2 200 -1L184 0Q176 0 174 2T173 11L186 106Q187 112 191 116T201 121H304Q309 121 311 120T312 113L300 24Q300 22 294 14L195 -117Q191
-123 184 -127T169 -131H153Q142 -131 148 -120ZM207 -131T213 -120L272 -24Q275 -17 275 -12Q275 -2 265 -1L249 0Q241 0 239 2T238 11L251 106Q252 112 256 116T266 121H369Q374 121 376 120T377 113L365 24Q365 22 359 14L260 -117Q256 -123 249 -127T234 -131H218Q207
-131 213 -120Z" />
<glyph unicode="&#x2022;" glyph-name="bullet" horiz-adv-x="320" d="M123 271T96 298T69 367Q69 398 85 424T128 467T185 483Q226 483 253 456T280 388Q280 340 246 306T164 271Q123 271 96 298Z" />
<glyph unicode="&#x2039;" glyph-name="guilsinglleft" horiz-adv-x="274" d="M196 76L197 72Q197 71 188 71H151Q147 71 144 74T140 80L44 246Q41 254 41 260Q41 266 44 272L190 449Q193 453 196 453T201 452H240Q245 452 248 448T249 438L134 263Q127 252 129
245L196 76Z" />
<glyph unicode="&#x203a;" glyph-name="guilsinglright" horiz-adv-x="275" d="M145 260T144 269L77 444Q76 449 77 450T83 452H122Q126 452 128 450T133 443L229 267Q232 261 232 254Q232 248 228 241L84 74Q82 71 74 71H37Q29 71 26 74T24 82L139 251Q145 260 144 269Z" />
</font>
</defs>
</svg>
