<?xml version="1.0" standalone="no"?>
<!DOCTYPE svg PUBLIC "-//W3C//DTD SVG 1.1//EN" "http://www.w3.org/Graphics/SVG/1.1/DTD/svg11.dtd">
<svg xmlns="http://www.w3.org/2000/svg">
<defs >
<font id="Sanchez" horiz-adv-x="586" ><font-face
    font-family="Sanchez"
    units-per-em="1000"
    panose-1="2 0 0 0 0 0 0 0 0 0"
    ascent="1004"
    descent="-274"
    alphabetic="0" />
<glyph unicode=" " glyph-name="space" horiz-adv-x="313" />
<glyph unicode="!" glyph-name="exclam" horiz-adv-x="182" d="M121 148H61Q49 148 49 160V748Q49 760 61 760H121Q133 760 133 748V160Q133 148 121 148ZM144 26T144 4T129 -33T92 -49T54 -34T38 4T53 41T91 57T129 42Z" />
<glyph unicode="&quot;" glyph-name="quotedbl" horiz-adv-x="278" d="M90 561H56Q43 561 43 574L38 737Q38 750 52 750H95Q110 750 108 737L103 574Q103 561 90 561ZM222 561H188Q175 561 175 574L170 737Q170 750 183 750H227Q242 750 240 737L235 574Q235 561
222 561Z" />
<glyph unicode="#" glyph-name="numbersign" horiz-adv-x="612" d="M507 112H409L378 5Q375 -7 363 -7H314Q300 -7 305 5L335 112H205L174 5Q171 -7 158 -7H109Q97 -7 100 5L131 112H51Q38 112 38 124V161Q38 173 51 173H148L184 299H105Q93 299 93 312V348Q93
361 105 361H202L234 470Q237 483 250 483H300Q311 483 308 470L276 361H407L439 470Q442 483 455 483H504Q517 483 512 470L481 361H561Q574 361 574 348V312Q574 299 561 299H463L426 173H507Q519 173 519 161V124Q519 112 507 112ZM352 173L389 299H258L222
173H352Z" />
<glyph unicode="$" glyph-name="dollar" horiz-adv-x="646" d="M361 -86H307Q295 -86 295 -74V1Q228 10 185 41T119 110H117L119 43Q120 31 107 31H51Q38 31 38 43V231Q38 243 51 243H114Q126 243 126 231V225Q129 197 173 143Q196 115 240 95T351 74T460 106T504
195Q504 230 480 255T416 294T330 319T235 346T148 381T85 440T60 530Q60 611 120 665T283 724V793Q283 805 295 805H349Q361 805 361 793V714Q447 702 492 645L490 684Q490 696 503 696H559Q571 696 571 684V503Q571 491 559 491H496Q484 491 484 503V516Q482
554 444 594Q424 615 388 628T294 642T197 611T156 536T181 466T246 425T334 398T430 371T518 337T583 281T608 195Q608 110 550 54T373 -6V-74Q373 -86 361 -86Z" />
<glyph unicode="%" glyph-name="percent" horiz-adv-x="753" d="M251 359T183 359T77 409T38 541T77 673T183 724T288 674T327 542T289 410ZM143 414T183 414T245 447T268 542T246 636T183 669T120 636T98 542T120 448ZM639 -7T571 -7T465 43T426 176T465 308T570
358T676 308T715 176T677 44ZM531 48T571 48T633 81T655 176T633 270T571 303T508 270T486 176T508 82ZM276 -74H216Q206 -74 206 -66Q206 -64 207 -62L450 748Q453 760 466 760H525Q535 760 535 752Q535 750 534 748L291 -62Q288 -74 276 -74Z" />
<glyph unicode="&amp;" glyph-name="ampersand" horiz-adv-x="674" d="M603 0H522Q501 0 474 37L453 67Q382 -7 271 -7T98 54T37 195Q37 288 100 341Q149 382 208 406Q140 485 140 561T187 680T305 724T423 684T472 572T431 458T319 381L452 192Q478 245 478 342Q478
354 491 354H623Q635 354 635 342V305Q635 293 623 293H549Q545 203 500 125L540 69H603Q616 69 616 57V12Q616 0 603 0ZM126 197Q126 138 169 102T274 66Q360 66 410 126L252 347Q164 309 138 256Q126 229 126 197ZM386 516Q396 537 396 569T374 626T311 652T245
627T220 555T279 435Q368 474 386 516Z" />
<glyph unicode="&apos;" glyph-name="quotesingle" horiz-adv-x="147" d="M90 561H56Q43 561 43 574L38 737Q38 750 52 750H95Q108 750 108 737L103 574Q103 561 90 561Z" />
<glyph unicode="(" glyph-name="parenleft" horiz-adv-x="412" d="M373 -2V-53Q373 -66 360 -66Q239 -66 143 34Q96 83 67 165T38 351T67 535T143 666Q238 765 360 765Q373 765 373 752V701Q373 688 360 688Q275 688 201 606Q165 567 143 500T121 348T143 196T202
90Q275 11 360 11Q373 11 373 -2Z" />
<glyph unicode=")" glyph-name="parenright" horiz-adv-x="412" d="M38 -53V-3Q38 11 52 11Q138 11 210 89Q246 128 268 195T291 346T269 498T211 606Q137 687 52 687Q38 687 38 700V751Q38 764 52 764Q172 764 268 666Q316 617 344 535T373 350T345 165T268 33Q172
-67 52 -67Q38 -67 38 -53Z" />
<glyph unicode="*" glyph-name="asterisk" horiz-adv-x="413" d="M223 420H189Q183 420 179 424T176 433L187 546L119 457Q109 446 99 456L76 480Q65 491 76 500L167 569L52 557Q46 556 42 560T38 570V604Q38 610 42 614T52 617L166 603L75 675Q64 684 75 694L99
718Q110 727 118 718L189 629L176 742Q175 747 179 751T189 755H223Q229 755 233 752T236 742L225 628L294 718Q304 729 313 718L337 695Q348 684 336 675L247 602L360 618Q366 619 370 615T374 605V571Q374 557 360 557L249 568L337 500Q346 492 337 481L313 457Q304
446 294 457L223 544L236 433Q237 427 233 424T223 420Z" />
<glyph unicode="+" glyph-name="plus" horiz-adv-x="401" d="M231 96H173Q161 96 161 109V216H52Q38 216 38 229V280Q38 293 52 293H161V403Q161 415 173 415H231Q243 415 243 403V293H349Q362 293 362 280V229Q362 216 349 216H243V109Q243 96 231 96Z" />
<glyph unicode="," glyph-name="comma" horiz-adv-x="159" d="M45 -90V-73Q45 -67 56 -67T80 -54T93 -14L91 -2Q85 -7 70 -7T41 5T28 38T42 72T79 86T116 67T131 3T109 -69T52 -95Q45 -95 45 -90Z" />
<glyph unicode="-" glyph-name="hyphen" horiz-adv-x="414" d="M363 222H52Q38 222 38 235V286Q38 299 52 299H363Q376 299 376 286V235Q376 222 363 222Z" />
<glyph unicode="." glyph-name="period" horiz-adv-x="151" d="M123 60T123 40T110 7T76 -7T42 6T28 40T42 73T76 87T109 74Z" />
<glyph unicode="/" glyph-name="slash" horiz-adv-x="405" d="M108 -74H48Q38 -74 38 -66Q38 -64 39 -62L281 748Q286 760 298 760H357Q366 760 366 754Q366 751 365 748L123 -62Q120 -74 108 -74Z" />
<glyph unicode="0" glyph-name="zero" horiz-adv-x="654" d="M463 -7T327 -7T115 94T38 359T116 623T327 724T538 624T616 360T540 95ZM235 74T327 74T471 148T523 358T471 569T327 645T184 569T131 359T183 149Z" />
<glyph unicode="1" glyph-name="one" horiz-adv-x="508" d="M458 0H63Q50 0 50 12V63Q50 75 63 75H225V624L87 525Q77 518 70 528L42 569Q39 573 39 577T45 586L219 711Q229 718 237 718H300Q312 718 312 706V75H458Q470 75 470 63V12Q470 0 458 0Z" />
<glyph unicode="2" glyph-name="two" horiz-adv-x="602" d="M551 0H51Q38 0 38 12V43Q38 103 61 151T122 229T205 285T295 331T378 376Q462 428 462 505Q462 563 418 603T297 644T178 603T135 499Q135 487 122 487H57Q45 487 45 499Q45 592 110 658T297 724T485
662T552 511Q552 451 522 403T447 327T349 270T250 218T172 157T136 75H476V147Q476 159 488 159H551Q564 159 564 147V12Q564 0 551 0Z" />
<glyph unicode="3" glyph-name="three" horiz-adv-x="590" d="M407 378V377Q442 377 490 342Q516 323 533 286T551 199Q551 106 478 50T286 -7Q227 -7 194 4T140 26T108 46T82 66Q65 81 50 101L43 110Q38 114 38 118T43 127L86 167Q94 175 104 167L120 150Q164
103 198 90Q241 74 286 74Q366 74 413 111T461 210Q461 337 289 337H249Q237 337 237 350V395Q237 408 249 408H281Q334 408 370 424Q438 456 438 525Q438 576 401 610T295 644T191 609T156 528Q156 516 144 516H83Q71 516 71 528Q71 617 131 670T300 724T469 666T529
535T483 421T407 378Z" />
<glyph unicode="4" glyph-name="four" horiz-adv-x="608" d="M557 0H269Q257 0 257 12V63Q257 75 269 75H384V225H51Q39 225 39 238V278Q39 292 52 310L364 695Q382 718 401 718H458Q471 718 471 706V295H550Q563 295 563 282V238Q563 225 550 225H471V75H557Q570
75 570 63V12Q570 0 557 0ZM384 295V610L129 295H384Z" />
<glyph unicode="5" glyph-name="five" horiz-adv-x="590" d="M286 -7Q233 -7 202 3T154 20T122 37T96 55T76 73T61 89T50 102T41 111T38 118T43 127L86 167Q94 175 100 170T119 150T139 129T163 110T196 91Q240 74 286 74Q369 74 415 116T462 232T415 350T286
394Q227 394 171 378Q109 359 104 359Q84 359 84 384V708Q84 720 96 720H497Q509 720 509 708V578Q509 566 497 566H433Q421 566 421 578V645H172V442Q173 442 186 446T214 453Q258 462 304 462Q423 462 487 399T552 229T480 58T286 -7Z" />
<glyph unicode="6" glyph-name="six" horiz-adv-x="613" d="M535 523H475Q462 523 462 535Q462 575 428 610T327 645Q241 645 192 584T134 411Q215 462 331 462T511 399T575 232T504 60T308 -7T111 91T38 357T112 624T327 724Q427 724 487 672T548 535Q548 523
535 523ZM133 212T180 143T310 74T439 118T485 235T438 350T302 394T131 339Q133 212 180 143Z" />
<glyph unicode="7" glyph-name="seven" horiz-adv-x="598" d="M301 0H238Q226 0 226 12Q226 134 250 224T308 365T376 456Q460 552 463 649H126V577Q126 565 114 565H51Q38 565 38 577V712Q38 724 51 724H547Q559 724 559 712V679Q559 576 510 502Q488 468 462
435T410 363T362 278Q314 176 314 13Q314 0 301 0Z" />
<glyph unicode="8" glyph-name="eight" horiz-adv-x="608" d="M430 387V386Q462 386 511 349Q536 330 553 292T570 205Q570 112 497 53T305 -7T112 52T38 205Q38 254 55 292T96 349Q144 386 178 386V387Q148 387 105 426T62 538T122 666T304 723T486 667T546 536Q546
499 532 468T496 420Q455 387 430 387ZM317 345H291Q213 345 171 310T128 211T176 111T304 74T431 111T479 211T437 309T317 345ZM456 527Q456 577 417 610T304 644T192 611T152 527Q152 492 167 467T206 430Q252 409 290 409T352 414T401 430T441 467T456 527Z"
/>
<glyph unicode="9" glyph-name="nine" horiz-adv-x="612" d="M77 194H138Q150 194 150 182Q150 142 184 107T286 72Q372 72 420 133T478 306Q397 255 281 255T102 317T38 485T109 657T305 724T501 626T573 361T498 94T286 -7Q186 -7 126 45T65 182Q65 194 77 194ZM480
505T433 574T303 643T174 599T128 482T175 367T311 323T482 378Q480 505 433 574Z" />
<glyph unicode=":" glyph-name="colon" horiz-adv-x="171" d="M133 60T133 40T119 7T85 -7T52 6T38 40T52 73T85 87T119 74ZM133 460T133 440T119 407T86 393T52 406T38 440T51 474T85 488T119 474Z" />
<glyph unicode=";" glyph-name="semicolon" horiz-adv-x="179" d="M134 460T134 440T120 407T86 393T53 406T39 440T52 474T86 488T120 474ZM55 -90V-73Q55 -67 66 -67T89 -54T102 -14L100 -2Q95 -7 79 -7T51 6T38 39T51 72T88 86T126 67T141 3T119 -69T61 -95Q55
-95 55 -90Z" />
<glyph unicode="&lt;" glyph-name="less" horiz-adv-x="438" d="M38 245V263Q38 276 52 282L387 443Q391 444 393 444Q400 444 400 435V392Q400 378 387 372L140 254L387 136Q400 131 400 117V74Q400 65 393 65Q391 65 387 66L52 226Q38 232 38 245Z" />
<glyph unicode="=" glyph-name="equal" horiz-adv-x="423" d="M372 335H52Q38 335 38 349V399Q38 413 52 413H372Q385 413 385 399V349Q385 335 372 335ZM372 100H52Q38 100 38 113V164Q38 177 52 177H372Q385 177 385 164V113Q385 100 372 100Z" />
<glyph unicode="&gt;" glyph-name="greater" horiz-adv-x="438" d="M400 263V245Q400 232 387 226L52 66Q48 65 45 65Q38 65 38 74V117Q38 131 52 136L298 254L52 372Q38 379 38 392V435Q38 444 45 444Q48 444 52 443L387 282Q400 276 400 263Z" />
<glyph unicode="?" glyph-name="question" horiz-adv-x="582" d="M303 127H234Q221 127 221 139Q221 202 245 251T303 330T371 386Q453 447 453 509T409 608T287 644T168 604T126 499Q126 487 114 487H51Q38 487 38 499Q38 593 99 658T285 724T476 666T544 520Q544
472 527 434T485 372T430 324T375 276T333 219T316 139Q316 127 303 127ZM322 26T322 4T307 -33T270 -49T232 -34T216 4T231 41T269 57T307 42Z" />
<glyph unicode="@" glyph-name="at" horiz-adv-x="783" d="M392 -126Q241 -126 140 -25T38 234T153 508T420 625T659 547T745 345T677 150T524 78H504Q464 78 464 107Q464 111 465 116L468 141Q468 138 457 124T420 92T364 75Q304 75 262 116T220 248T277 396T408
454T505 408L509 433Q511 444 522 444H552Q564 444 562 432L524 137H546Q599 137 640 193T681 346T612 500T426 558Q291 558 200 460T108 233T190 23T392 -58Q452 -58 502 -49T572 -30L592 -21Q604 -14 609 -27L625 -62Q630 -73 620 -78T591 -91T514 -112T392 -126ZM416
401Q363 401 322 359T280 253T308 162T375 134T446 167T481 231L494 334Q492 364 468 382T416 401Z" />
<glyph unicode="A" glyph-name="A" horiz-adv-x="841" d="M768 0H542Q530 0 530 12V63Q530 75 542 75H612L547 248H268L203 75H273Q285 75 285 63V12Q285 0 273 0H48Q36 0 36 12V63Q36 75 48 75H115L330 643H276Q263 643 263 655V706Q263 718 276 718H412Q436
718 448 708T470 675L700 75H768Q780 75 780 63V12Q780 0 768 0ZM520 317L409 614H406L294 317H520Z" />
<glyph unicode="B" glyph-name="B" horiz-adv-x="681" d="M384 0H61Q48 0 48 12V63Q48 75 61 75H137V643H61Q48 643 48 655V706Q48 718 61 718H383Q483 718 538 665T594 526Q594 425 505 375Q633 338 633 205Q633 111 571 56T384 0ZM224 75H377Q456 75 500 108T545
212Q545 337 383 337H224V75ZM224 403H377Q429 404 467 433T506 524T466 614T366 643H224V403Z" />
<glyph unicode="C" glyph-name="C" horiz-adv-x="752" d="M697 181Q702 177 702 172T698 157T683 132T645 89T586 43T502 8T389 -7Q243 -7 146 95T48 362T146 626T384 724Q539 724 609 617L608 706Q606 718 620 718H676Q689 718 689 706V488Q689 475 676 475H613Q601
475 601 488V497Q601 543 539 592T383 642T216 569T141 361T216 152T392 77Q501 77 564 126Q613 164 636 203Q644 218 655 209L697 181Z" />
<glyph unicode="D" glyph-name="D" horiz-adv-x="740" d="M342 0H55Q43 0 43 12V63Q43 75 55 75H132V643H55Q43 643 43 655V706Q43 718 55 718H325Q491 718 589 623T687 360T594 97T342 0ZM219 75H318Q596 77 596 358Q596 493 525 568T315 643H219V75Z" />
<glyph unicode="E" glyph-name="E" horiz-adv-x="653" d="M592 0H61Q48 0 48 12V63Q48 75 61 75H137V643H61Q48 643 48 655V706Q48 718 61 718H592Q605 718 605 706V545Q605 532 592 532H538Q526 532 526 545V643H224V395H477Q490 395 490 383V332Q490 320 477
320H224V75H525V173Q525 185 538 185H592Q605 185 605 173V12Q605 0 592 0Z" />
<glyph unicode="F" glyph-name="F" horiz-adv-x="635" d="M337 0H61Q48 0 48 12V63Q48 75 61 75H137V643H61Q48 643 48 655V706Q48 718 61 718H574Q587 718 587 706V545Q587 532 574 532H520Q508 532 508 545V643H224V395H459Q472 395 472 383V332Q472 320 459
320H224V75H337Q349 75 349 63V12Q349 0 337 0Z" />
<glyph unicode="G" glyph-name="G" horiz-adv-x="750" d="M690 0H637Q624 0 624 12L625 81Q537 -7 391 -7T146 95T48 363Q48 474 97 558T223 683T389 724Q542 724 609 629L608 706Q606 718 620 718H676Q689 718 689 706V500Q689 488 676 488H613Q601 488 601 500V512Q601
556 541 599T386 642T217 565T141 358T217 153T387 77T535 107T617 178V256H431Q419 256 419 269V315Q419 327 431 327H690Q702 327 702 315V12Q702 0 690 0Z" />
<glyph unicode="H" glyph-name="H" horiz-adv-x="820" d="M760 0H519Q507 0 507 12V63Q507 75 519 75H596V320H224V75H301Q314 75 314 63V12Q314 0 301 0H61Q48 0 48 12V63Q48 75 61 75H137V643H61Q48 643 48 655V706Q48 718 61 718H301Q314 718 314 706V655Q314
643 301 643H224V393H596V643H519Q507 643 507 655V706Q507 718 519 718H760Q772 718 772 706V655Q772 643 760 643H683V75H760Q772 75 772 63V12Q772 0 760 0Z" />
<glyph unicode="I" glyph-name="I" horiz-adv-x="362" d="M301 0H61Q48 0 48 12V63Q48 75 61 75H137V643H61Q48 643 48 655V706Q48 718 61 718H301Q314 718 314 706V655Q314 643 301 643H224V75H301Q314 75 314 63V12Q314 0 301 0Z" />
<glyph unicode="J" glyph-name="J" horiz-adv-x="484" d="M259 262V643H183Q170 643 170 655V706Q170 718 183 718H423Q436 718 436 706V655Q436 643 423 643H346V271Q346 124 277 62T61 0Q48 0 48 12V63Q48 75 61 75Q171 75 215 120T259 262Z" />
<glyph unicode="K" glyph-name="K" horiz-adv-x="763" d="M702 0H615Q579 0 555 48L461 239Q453 255 447 264T419 282T365 291H224V75H316Q329 75 329 63V12Q329 0 316 0H61Q48 0 48 12V63Q48 75 61 75H137V643H61Q48 643 48 655V706Q48 718 61 718H285Q297 718
297 706V655Q297 643 285 643H224V362H329Q435 362 486 424T538 643H470Q458 643 458 655V706Q458 718 470 718H693Q705 718 705 706V655Q705 643 693 643H624Q624 402 488 328Q511 317 524 300T554 248L641 75H702Q714 75 714 63V12Q714 0 702 0Z" />
<glyph unicode="L" glyph-name="L" horiz-adv-x="670" d="M608 0H61Q48 0 48 12V63Q48 75 61 75H137V643H61Q48 643 48 655V706Q48 718 61 718H300Q313 718 313 705V656Q313 643 300 643H224V75H542V173Q542 185 555 185H609Q621 185 621 173V13Q621 0 608 0Z" />
<glyph unicode="M" glyph-name="M" horiz-adv-x="919" d="M859 0H628Q616 0 616 12V63Q616 75 628 75H695V573H694L504 101Q492 71 460 71T416 101L226 573H224V75H291Q304 75 304 63V12Q304 0 291 0H61Q48 0 48 12V63Q48 75 61 75H137V643H61Q48 643 48 655V706Q48
718 61 718H215Q249 718 262 684L411 324L458 198H462Q490 276 508 322L658 684Q671 718 706 718H859Q871 718 871 706V655Q871 643 859 643H782V75H859Q871 75 871 63V12Q871 0 859 0Z" />
<glyph unicode="N" glyph-name="N" horiz-adv-x="820" d="M670 0H616Q597 0 586 7T565 31L276 483L226 567H224V75H301Q314 75 314 63V12Q314 0 301 0H61Q48 0 48 12V63Q48 75 61 75H137V643H61Q48 643 48 655V706Q48 718 61 718H201Q230 718 252 684L537 238L594
141H596V643H519Q507 643 507 655V706Q507 718 519 718H760Q772 718 772 706V655Q772 643 760 643H683V12Q683 0 670 0Z" />
<glyph unicode="O" glyph-name="O" horiz-adv-x="793" d="M744 198T646 96T398 -7T148 96T48 363T151 625T397 724T642 626T744 363ZM295 74T397 74T575 150T651 360T574 569T397 645T220 570T142 361T218 151Z" />
<glyph unicode="P" glyph-name="P" horiz-adv-x="658" d="M322 0H61Q48 0 48 12V63Q48 75 61 75H137V643H61Q48 643 48 655V706Q48 718 61 718H369Q475 718 542 657T610 491T544 329T358 271H224V75H322Q334 75 334 63V12Q334 0 322 0ZM224 342H354Q522 342 522
490Q522 567 475 605T355 643H224V342Z" />
<glyph unicode="Q" glyph-name="Q" horiz-adv-x="769" d="M724 -82Q663 -109 604 -109T498 -98T421 -70T368 -36T335 -8T325 4Q203 26 126 123T48 363Q48 527 151 625T397 724T642 626T744 368T657 108T433 -4Q490 -42 599 -42Q656 -42 702 -22Q713 -17 716 -26L731
-66Q734 -76 724 -82ZM142 227T218 152T396 77T575 152T651 360T574 568T397 642Q301 642 225 574Q188 540 165 485T142 360Q142 227 218 152Z" />
<glyph unicode="R" glyph-name="R" horiz-adv-x="715" d="M655 0H568Q532 0 508 48L414 239Q402 264 389 276T351 289H224V75H314Q326 75 326 63V12Q326 0 314 0H61Q48 0 48 12V63Q48 75 61 75H137V643H61Q48 643 48 655V706Q48 718 61 718H369Q476 718 543 662T610
502Q610 345 463 306Q482 291 510 239L594 75H655Q667 75 667 63V12Q667 0 655 0ZM224 360H352Q522 360 522 499Q522 643 352 643H224V360Z" />
<glyph unicode="S" glyph-name="S" horiz-adv-x="666" d="M117 0H61Q48 0 48 12V246Q48 259 61 259H124Q136 259 136 246V225Q136 206 159 175T205 123T266 89T350 74Q427 74 470 106T514 195Q514 228 490 251T426 289T340 315T245 342T158 379T95 439T70 530Q70
614 133 669T304 724Q439 724 502 645L500 707Q500 719 513 719H569Q581 719 581 707V489Q581 477 569 477H506Q494 477 494 489V517Q494 558 448 600T313 642Q247 642 207 611T166 530Q166 495 191 470T256 430T344 403T440 375T528 339T593 282T618 195Q618 107
555 50T367 -7Q275 -7 215 30T128 110L129 12Q129 0 117 0Z" />
<glyph unicode="T" glyph-name="T" horiz-adv-x="727" d="M478 0H245Q232 0 232 13V62Q232 75 245 75H321V643H132V537Q132 523 118 523H62Q48 523 48 537V705Q48 718 62 718H665Q679 718 679 705V537Q679 523 665 523H608Q595 523 595 537V643H408V75H478Q492
75 492 62V13Q492 0 478 0Z" />
<glyph unicode="U" glyph-name="U" horiz-adv-x="814" d="M590 260V643H513Q501 643 501 655V706Q501 718 513 718H754Q766 718 766 706V655Q766 643 754 643H677V269Q677 134 607 64T408 -7T208 63T137 269V643H61Q48 643 48 655V706Q48 718 61 718H301Q314 718
314 706V655Q314 643 301 643H224V266Q224 74 408 74Q502 74 546 123T590 260Z" />
<glyph unicode="V" glyph-name="V" horiz-adv-x="848" d="M444 0H405Q386 0 376 9T358 40L125 643H61Q48 643 48 655V706Q48 718 61 718H286Q298 718 298 706V655Q298 643 286 643H218L421 106H427L630 643H562Q549 643 549 655V706Q549 718 562 718H787Q800 718
800 706V655Q800 643 787 643H721L490 40Q483 19 474 10T444 0Z" />
<glyph unicode="W" glyph-name="W" horiz-adv-x="1094" d="M748 0H710Q673 0 663 40L547 548H544L430 40Q420 0 382 0H345Q310 0 297 40L114 643H51Q38 643 38 655V706Q38 718 51 718H276Q289 718 289 706V655Q289 643 276 643H206L361 106H367L506 718H586L726
106H732L887 643H816Q804 643 804 655V706Q804 718 816 718H1042Q1054 718 1054 706V655Q1054 643 1042 643H978L795 40Q783 0 748 0Z" />
<glyph unicode="X" glyph-name="X" horiz-adv-x="814" d="M746 0H505Q493 0 493 12V63Q493 75 505 75H571L405 308L234 75H301Q314 75 314 63V12Q314 0 301 0H61Q48 0 48 12V63Q48 75 61 75H138L354 362L137 643H61Q48 643 48 655V706Q48 718 61 718H301Q314 718
314 706V655Q314 643 301 643H233L403 417L573 643H512Q500 643 500 655V706Q500 718 512 718H753Q765 718 765 706V655Q765 643 753 643H670L454 362L666 75H746Q758 75 758 63V12Q758 0 746 0Z" />
<glyph unicode="Y" glyph-name="Y" horiz-adv-x="759" d="M500 0H259Q247 0 247 12V63Q247 75 259 75H336V289L296 358Q166 589 129 643H61Q48 643 48 655V706Q48 718 61 718H286Q298 718 298 706V655Q298 643 286 643H220L377 365H383L539 643H473Q461 643 461
655V706Q461 718 473 718H699Q711 718 711 706V655Q711 643 699 643H630Q581 571 503 431T423 290V75H500Q512 75 512 63V12Q512 0 500 0Z" />
<glyph unicode="Z" glyph-name="Z" horiz-adv-x="641" d="M580 0H62Q48 0 48 13V56Q48 66 68 90L474 643H132V562Q132 548 118 548H62Q48 548 48 562V705Q48 718 62 718H580Q593 718 593 705V668Q593 651 573 627L167 75H510V156Q510 170 523 170H580Q593 170
593 156V13Q593 0 580 0Z" />
<glyph unicode="[" glyph-name="bracketleft" horiz-adv-x="304" d="M252 -71H51Q38 -71 38 -59V754Q38 766 51 766H252Q266 766 266 752V700Q266 687 252 687H122V8H252Q266 8 266 -6V-58Q266 -71 252 -71Z" />
<glyph unicode="\" glyph-name="backslash" horiz-adv-x="405" d="M366 -67Q366 -74 356 -74H297Q286 -74 281 -62L39 748Q38 750 38 752Q38 760 48 760H107Q120 760 123 748L365 -62Q366 -65 366 -67Z" />
<glyph unicode="]" glyph-name="bracketright" horiz-adv-x="304" d="M266 754V-59Q266 -71 253 -71H52Q38 -71 38 -58V-6Q38 8 52 8H182V687H52Q38 687 38 700V752Q38 766 52 766H253Q266 766 266 754Z" />
<glyph unicode="_" glyph-name="underscore" horiz-adv-x="554" d="M503 -100H52Q38 -100 38 -87V-36Q38 -23 52 -23H503Q516 -23 516 -36V-87Q516 -100 503 -100Z" />
<glyph unicode="`" glyph-name="grave" horiz-adv-x="291" d="M227 575Q222 569 217 569T208 573L40 707Q35 711 35 716T38 726L70 763Q75 769 79 769T89 765L250 623Q256 619 256 614T252 604L227 575Z" />
<glyph unicode="a" glyph-name="a" horiz-adv-x="580" d="M529 0H442Q399 0 399 42V93H397Q324 -8 202 -8Q130 -8 84 29T38 131Q38 213 109 251T306 290H390V302Q390 427 260 427Q199 427 172 416T134 397T116 386Q101 374 94 384L66 419Q59 427 68 435Q85 457
138 478Q191 499 263 499Q473 499 473 299V67H529Q541 67 541 55V12Q541 0 529 0ZM390 230H311Q253 230 215 224T151 198T124 143T152 86T227 63Q324 63 390 149V230Z" />
<glyph unicode="b" glyph-name="b" horiz-adv-x="613" d="M170 0H119Q107 0 107 12V651H51Q38 651 38 663V706Q38 718 51 718H174Q187 718 187 706V440L184 401H187Q204 442 246 470T350 499Q451 499 512 430T574 247T512 63T349 -7Q286 -7 244 22T184 94H183V12Q183
0 170 0ZM185 164T228 114T339 63T449 114T492 247T448 379T339 429T229 380T185 248Z" />
<glyph unicode="c" glyph-name="c" horiz-adv-x="539" d="M494 116Q500 111 500 107T496 95T477 72T437 38T371 6T284 -7Q179 -7 109 62T38 247T108 431T281 499T435 425H436L435 480Q435 493 448 493H486Q498 493 498 480V310Q498 298 486 298H440Q428 298 428
310V327Q427 363 387 396T286 429T173 380T122 247T172 113T284 63T389 89T448 141Q455 153 465 144L494 116Z" />
<glyph unicode="d" glyph-name="d" horiz-adv-x="612" d="M562 0H475Q452 0 442 9T431 42V98H430Q414 56 370 25T263 -7Q163 -7 101 63T38 246T100 429T264 499Q326 499 367 471T426 401H427Q426 421 426 434V651H370Q357 651 357 663V706Q357 718 370 718H494Q506
718 506 706V67H562Q574 67 574 55V12Q574 0 562 0ZM120 165T163 114T274 63T384 113T427 248T383 380T274 429T165 380T120 248Z" />
<glyph unicode="e" glyph-name="e" horiz-adv-x="538" d="M483 236H123Q127 153 175 108T285 63T389 89T448 140Q456 150 466 143L493 116Q499 110 499 106T495 94T476 72T437 38T371 6T284 -7Q179 -7 109 62T38 247T108 431T279 499T439 434T497 257Q497 253
497 249Q497 236 483 236ZM411 359T375 396T279 433T176 399T125 297H414Q411 359 375 396Z" />
<glyph unicode="f" glyph-name="f" horiz-adv-x="387" d="M279 0H53Q40 0 40 12V55Q40 67 53 67H108V425H51Q38 425 38 437V480Q38 492 51 492H108V554Q108 637 150 680T269 724Q325 724 370 684Q376 679 376 675T373 667L349 636Q340 627 332 634Q308 653 272
653T214 628T191 553V492H319Q332 492 332 480V437Q332 425 319 425H191V67H279Q291 67 291 55V12Q291 0 279 0Z" />
<glyph unicode="g" glyph-name="g" horiz-adv-x="611" d="M268 -234Q218 -234 193 -227T152 -215T125 -204T104 -192Q60 -163 71 -150L97 -113Q103 -104 114 -112Q115 -112 120 -116T131 -125T146 -134T168 -144T194 -153Q227 -162 267 -162Q339 -162 382 -128T426
-19V95Q408 53 367 23T263 -7Q161 -7 100 64T38 248T100 430T263 499Q325 499 367 471T429 401H431L430 480Q430 492 442 492H560Q572 492 572 480V437Q572 425 560 425H506V-19Q506 -126 441 -180T268 -234ZM120 164T164 114T274 63T383 113T427 247T384 380T274
429T164 379T120 247Z" />
<glyph unicode="h" glyph-name="h" horiz-adv-x="621" d="M570 0H475Q432 0 432 42V305Q432 363 404 395T322 427Q281 427 260 415T227 393T209 374Q197 358 189 341V67H242Q255 67 255 55V12Q255 0 242 0H51Q38 0 38 12V55Q38 67 51 67H106V651H51Q38 651 38
663V706Q38 718 51 718H177Q189 718 189 706V483Q189 450 185 422H187Q236 499 343 499Q423 499 468 452T514 325V67H570Q583 67 583 55V12Q583 0 570 0Z" />
<glyph unicode="i" glyph-name="i" horiz-adv-x="293" d="M242 0H51Q38 0 38 12V55Q38 67 51 67H106V425H51Q38 425 38 437V480Q38 492 51 492H177Q189 492 189 480V67H242Q255 67 255 55V12Q255 0 242 0ZM202 623T202 600T186 561T146 545T107 561T90 600T106
640T146 657T185 640Z" />
<glyph unicode="j" glyph-name="j" horiz-adv-x="326" d="M288 624T288 601T272 562T232 545T193 561T176 601T192 640T232 657T271 641ZM189 -63V425H133Q121 425 121 437V480Q121 492 133 492H260Q272 492 272 480V-64Q272 -147 230 -190T111 -234Q55 -234 11
-195Q5 -190 5 -185T9 -176L32 -146Q41 -137 50 -144Q74 -163 104 -163Q189 -163 189 -63Z" />
<glyph unicode="k" glyph-name="k" horiz-adv-x="614" d="M570 0H516Q485 0 463 31L286 271L189 181V67H242Q255 67 255 55V12Q255 0 242 0H51Q38 0 38 12V55Q38 67 51 67H106V651H51Q38 651 38 663V706Q38 718 51 718H177Q189 718 189 706V258L371 425H335Q323
425 323 437V480Q323 492 335 492H527Q539 492 539 480V437Q539 425 527 425H462L340 318L527 67H570Q582 67 582 55V12Q582 0 570 0Z" />
<glyph unicode="l" glyph-name="l" horiz-adv-x="293" d="M242 0H51Q38 0 38 12V55Q38 67 51 67H106V651H51Q38 651 38 663V706Q38 718 51 718H162Q189 718 189 693V67H242Q255 67 255 55V12Q255 0 242 0Z" />
<glyph unicode="m" glyph-name="m" horiz-adv-x="931" d="M880 0H785Q762 0 752 9T741 42V305Q741 363 714 395T632 427Q553 427 508 358Q514 340 514 318V67H570Q582 67 582 55V12Q582 0 570 0H379Q366 0 366 12V55Q366 67 379 67H432V305Q432 363 404 395T322
427Q281 427 260 415T227 393T209 374Q197 358 189 341V67H238Q250 67 250 55V12Q250 0 238 0H51Q38 0 38 12V55Q38 67 51 67H106V425H51Q38 425 38 437V480Q38 492 51 492H149Q166 492 173 486T181 462L179 412H182Q234 499 343 499T493 416Q550 499 654 499Q734
499 778 452T823 325L824 67H880Q893 67 893 55V12Q893 0 880 0Z" />
<glyph unicode="n" glyph-name="n" horiz-adv-x="621" d="M570 0H475Q432 0 432 42V305Q432 363 404 395T322 427Q245 427 202 364Q197 358 189 342V67H242Q255 67 255 55V12Q255 0 242 0H51Q38 0 38 12V55Q38 67 51 67H106V425H51Q38 425 38 437V480Q38 492 51
492H168Q181 492 181 480L179 412H182Q234 499 343 499Q423 499 468 452T514 325V67H570Q583 67 583 55V12Q583 0 570 0Z" />
<glyph unicode="o" glyph-name="o" horiz-adv-x="575" d="M396 -7T287 -7T108 62T38 247T109 431T287 499T465 431T536 248T466 63ZM122 165T170 114T287 63T405 114T453 247T405 379T288 429T171 379T122 247Z" />
<glyph unicode="p" glyph-name="p" horiz-adv-x="613" d="M252 -225H51Q38 -225 38 -213V-170Q38 -158 51 -158H107V425H53Q40 425 40 437V480Q40 492 53 492H170Q183 492 183 480L182 401H183Q202 442 244 470T349 499Q450 499 512 431T574 249T513 64T350 -7Q288
-7 247 21T187 91H184Q187 59 187 45V-158H252Q265 -158 265 -170V-213Q265 -225 252 -225ZM185 157T230 110T340 63T448 113T492 246T449 379T340 429T230 380T185 244Z" />
<glyph unicode="q" glyph-name="q" horiz-adv-x="613" d="M562 -225H361Q348 -225 348 -213V-170Q348 -158 361 -158H426V50L429 95H426Q408 53 366 23T263 -7Q161 -7 100 64T38 248T100 430T263 499Q325 499 367 471T429 402H431L430 480Q430 492 442 492H494Q506
492 506 480V-158H562Q574 -158 574 -170V-213Q574 -225 562 -225ZM120 164T164 114T274 63T383 113T427 247T384 380T274 429T164 379T120 247Z" />
<glyph unicode="r" glyph-name="r" horiz-adv-x="421" d="M242 0H51Q38 0 38 12V55Q38 67 51 67H106V425H51Q38 425 38 437V480Q38 492 51 492H168Q181 492 181 480V355H184Q187 371 205 399T244 445T306 479T398 494Q411 494 411 481V428Q411 415 398 415H377Q291
415 240 360T189 235V67H242Q255 67 255 55V12Q255 0 242 0Z" />
<glyph unicode="s" glyph-name="s" horiz-adv-x="486" d="M260 -7Q193 -7 153 18T103 65H101Q103 16 103 13Q103 0 89 0H55Q42 0 42 13V163Q42 176 55 176H94Q108 176 108 163V143Q118 113 150 88Q188 58 245 58Q357 58 357 136Q357 163 326 179T251 207T162 232T87
277T56 357Q56 422 103 460T223 499Q322 499 365 441H367Q365 477 365 478Q365 491 378 491H410Q423 491 423 478V339Q423 326 410 326H371Q357 326 357 339V353Q357 380 326 406T244 433T166 412T138 358T169 306T246 277T336 253T412 210T444 127T399 34T260
-7Z" />
<glyph unicode="t" glyph-name="t" horiz-adv-x="401" d="M372 51Q376 47 376 43T370 32Q326 -7 260 -7T151 36T108 163V425H52Q38 425 38 438V479Q38 492 52 492H108V593Q108 607 122 607H178Q191 607 191 593V492H318Q332 492 332 479V438Q332 425 318 425H191V165Q191
115 213 90T273 64T330 83Q340 92 348 82L372 51Z" />
<glyph unicode="u" glyph-name="u" horiz-adv-x="608" d="M557 0H470Q427 0 427 42V79H424Q383 -7 268 -7Q188 -7 142 40T94 167V425H37Q25 425 25 437V480Q25 492 37 492H133Q176 492 176 450V187Q176 129 204 97T286 65Q359 65 401 119Q419 142 419 150V425H365Q353
425 353 437V480Q353 492 365 492H489Q501 492 501 480V67H557Q570 67 570 55V12Q570 0 557 0Z" />
<glyph unicode="v" glyph-name="v" horiz-adv-x="588" d="M326 0H259Q249 0 245 3T237 18L78 425H22Q10 425 10 437V480Q10 492 22 492H208Q220 492 220 480V437Q220 425 208 425H164L292 88H294L424 425H379Q367 425 367 437V480Q367 492 379 492H565Q578 492
578 480V437Q578 425 565 425H510L349 18Q343 0 326 0Z" />
<glyph unicode="w" glyph-name="w" horiz-adv-x="812" d="M576 0H517Q496 0 493 21L408 356H406L321 21Q317 0 296 0H238Q220 0 214 21L82 425H26Q14 425 14 437V480Q14 492 26 492H213Q225 492 225 480V437Q225 425 213 425H167L268 88H270L358 425H319Q307 425
307 437V480Q307 492 319 492H495Q507 492 507 480V437Q507 425 495 425H456L544 88H546L646 425H601Q588 425 588 437V480Q588 492 601 492H787Q799 492 799 480V437Q799 425 787 425H732L600 21Q592 0 576 0Z" />
<glyph unicode="x" glyph-name="x" horiz-adv-x="557" d="M523 0H335Q323 0 323 12V55Q323 67 335 67H385L267 212L157 67H203Q215 67 215 55V12Q215 0 203 0H34Q22 0 22 12V55Q22 67 34 67H82L228 251L82 425H34Q22 425 22 437V480Q22 492 34 492H222Q234 492
234 480V437Q234 425 222 425H175L293 282L394 425H354Q342 425 342 437V480Q342 492 354 492H523Q535 492 535 480V437Q535 425 523 425H469L333 240L479 67H523Q535 67 535 55V12Q535 0 523 0Z" />
<glyph unicode="y" glyph-name="y" horiz-adv-x="590" d="M261 11Q245 11 235 36L82 425H27Q15 425 15 437V480Q15 492 27 492H208Q221 492 221 480V437Q221 425 208 425H167L296 86H298L418 425H373Q361 425 361 437V480Q361 492 373 492H559Q571 492 571 480V437Q571
425 559 425H503L325 -64Q292 -153 257 -193T160 -234T54 -195Q44 -185 51 -177L76 -145Q85 -138 94 -144Q118 -163 151 -163T205 -141T247 -63L274 11H261Z" />
<glyph unicode="z" glyph-name="z" horiz-adv-x="519" d="M468 0H51Q38 0 38 12V53Q38 72 53 87L377 425H106V348Q106 336 94 336H51Q38 336 38 348V480Q38 492 51 492H468Q481 492 481 480V445Q481 427 465 413L137 67H412V146Q412 158 425 158H468Q481 158 481
146V12Q481 0 468 0Z" />
<glyph unicode="{" glyph-name="braceleft" horiz-adv-x="341" d="M302 -7V-59Q302 -72 289 -72Q121 -72 121 84V204Q121 254 97 286T55 319T38 333V364Q38 377 55 377T96 410T121 493V607Q121 765 289 765Q302 765 302 752V700Q302 687 289 687Q245 687 225 667T205
600V494Q205 454 189 422T156 378L140 365V331Q182 303 198 250Q205 228 205 203V91Q205 45 224 26T289 6Q302 6 302 -7Z" />
<glyph unicode="|" glyph-name="bar" horiz-adv-x="160" d="M110 -131H51Q38 -131 38 -119V748Q38 760 51 760H110Q122 760 122 748V-119Q122 -131 110 -131Z" />
<glyph unicode="}" glyph-name="braceright" horiz-adv-x="341" d="M136 203Q136 286 201 331V365Q194 369 183 378T154 421T136 494V600Q136 646 116 666T52 687Q38 687 38 700V752Q38 765 52 765Q220 765 220 607V493Q220 442 244 410T285 378T302 364V333Q302
319 286 319T245 287T220 204V84Q220 -72 52 -72Q38 -72 38 -59V-7Q38 6 52 6Q96 6 116 25T136 91V203Z" />
<glyph unicode="&#xa1;" glyph-name="exclamdown" horiz-adv-x="182" d="M121 -268H61Q49 -268 49 -256V332Q49 344 61 344H121Q133 344 133 332V-256Q133 -268 121 -268ZM144 510T144 488T129 451T92 435T54 450T38 488T53 525T91 541T129 526Z" />
<glyph unicode="&#xa2;" glyph-name="cent" horiz-adv-x="539" d="M300 -13H256Q244 -13 244 -1V53Q154 65 96 132T38 304T97 476T244 553V624Q244 636 257 636H300Q312 636 312 624V551Q402 538 435 481H438L435 537Q435 549 448 549H486Q498 549 498 537V367Q498
355 486 355H440Q428 355 428 367V384Q427 419 387 452T286 485T173 436T122 303T172 170T284 120T389 146T448 198Q455 209 465 201L494 172Q499 168 499 163T494 149T470 120T407 79T312 51V-1Q312 -13 300 -13Z" />
<glyph unicode="&#xa3;" glyph-name="sterling" horiz-adv-x="598" d="M548 0H60Q48 0 48 12V60Q48 75 59 82Q86 95 112 120T148 160Q171 195 171 230T159 296H51Q38 296 38 308V345Q38 357 51 357H124Q79 433 79 500Q79 602 149 663T327 724T495 669T556 518V502Q556
490 543 490H482Q469 490 469 502V519Q469 574 432 610T329 646T217 609T170 494Q170 455 182 430L198 399Q201 393 211 378T224 357H414Q427 357 427 345V308Q427 296 414 296H253Q262 265 262 238Q262 149 171 75H548Q560 75 560 63V12Q560 0 548 0Z" />
<glyph unicode="&#xa5;" glyph-name="yen" horiz-adv-x="759" d="M500 0H259Q247 0 247 12V63Q247 75 259 75H336V215H211Q199 215 199 228V267Q199 279 211 279H324V305L295 355H171Q158 355 158 368V407Q158 419 171 419H255L129 643H61Q48 643 48 655V706Q48
718 61 718H286Q298 718 298 706V655Q298 643 286 643H220L377 365H383L539 643H473Q461 643 461 655V706Q461 718 473 718H699Q711 718 711 706V655Q711 643 699 643H630L504 419H584Q596 419 596 407V368Q596 355 584 355H463L433 305V279H542Q554 279 554 267V228Q554
215 542 215H423V75H500Q512 75 512 63V12Q512 0 500 0Z" />
<glyph unicode="&#xa6;" glyph-name="brokenbar" horiz-adv-x="160" d="M110 410H51Q38 410 38 422V748Q38 760 51 760H110Q122 760 122 748V422Q122 410 110 410ZM110 -131H51Q38 -131 38 -119V207Q38 219 51 219H110Q122 219 122 207V-119Q122 -131 110 -131Z" />
<glyph unicode="&#xa7;" glyph-name="section" horiz-adv-x="646" d="M107 -224H51Q38 -224 38 -212V22Q38 34 51 34H114Q126 34 126 22V0Q129 -27 173 -81Q196 -109 240 -129T351 -150T460 -119T504 -29Q504 6 480 31T416 70T330 95T235 122T148 157T85 216T60
313T99 420Q60 464 60 530Q60 614 123 669T294 724Q429 724 492 645L490 707Q490 719 503 719H559Q571 719 571 707V489Q571 477 559 477H496Q484 477 484 489V514Q484 556 439 599T303 642Q237 642 197 611T156 536T181 466T246 425T334 398T430 371T518 337T583
281T608 195Q608 122 568 75Q608 33 608 -29Q608 -117 545 -174T357 -231Q265 -231 205 -195T119 -115H117L119 -212Q120 -224 107 -224ZM504 153T504 195T469 264T388 303Q230 341 180 369Q156 342 156 306T177 245T237 204T314 178Q441 145 480 124Q504 153 504
195Z" />
<glyph unicode="&#xa8;" glyph-name="dieresis" horiz-adv-x="313" d="M120 616T120 598T108 568T77 556T47 568T35 598T47 628T77 641T107 629ZM278 616T278 598T266 568T235 556T205 568T193 598T205 628T235 641T265 629Z" />
<glyph unicode="&#xa9;" glyph-name="copyright" horiz-adv-x="670" d="M632 469T632 348T544 139T335 51T126 139T38 348T126 557T335 645T544 557ZM580 247T580 348T508 520T335 592T163 521T91 348T162 176T335 104T508 175ZM469 265Q474 261 474 258T469 247T452
224T406 192T333 175Q264 175 216 222T168 351T216 479T333 527Q373 527 406 510T452 478Q474 453 474 447T470 437L441 417Q434 413 430 419Q401 471 333 471Q288 471 258 441T227 352T258 263T335 231Q402 231 430 280Q435 288 441 283L469 265Z" />
<glyph unicode="&#xaa;" glyph-name="ordfeminine" horiz-adv-x="328" d="M212 509Q174 471 131 471T63 491T38 546Q38 619 149 619H208V622Q208 653 197 667T149 682Q112 682 80 661Q76 659 73 663L57 684Q54 689 57 691Q85 724 151 724Q255 724 255 620V514H284Q289
514 289 509V481Q289 475 284 475H235Q213 475 213 496V509H212ZM137 512Q180 512 208 544V588H152Q88 588 88 551Q88 533 101 523T137 512Z" />
<glyph unicode="&#xab;" glyph-name="guillemotleft" horiz-adv-x="521" d="M285 66Q285 58 278 58Q275 58 272 61L52 213Q38 224 38 236V258Q38 270 52 279L272 432Q277 435 281 435T285 427V383Q285 370 272 361L107 246L272 132Q285 121 285 110V66ZM236 223T236
236V258Q236 270 249 279L469 432Q474 435 478 435T483 427V383Q483 370 469 361L304 246L469 132Q483 122 483 110V66Q483 57 479 57T469 61L249 213Q236 223 236 236Z" />
<glyph unicode="&#xac;" glyph-name="logicalnot" horiz-adv-x="565" d="M514 141H468Q455 141 455 153V324H52Q38 324 38 337V380Q38 393 52 393H513Q526 393 526 380V153Q526 141 514 141Z" />
<glyph unicode="&#xae;" glyph-name="registered" horiz-adv-x="670" d="M632 469T632 348T544 139T335 51T126 139T38 348T126 557T335 645T544 557ZM232 100T335 100T510 172T583 348T511 523T335 596T160 524T87 348T159 173ZM480 179H434Q420 179 409 201L358
300Q346 322 332 322H280V225H317Q323 225 323 220V185Q323 179 317 179H200Q195 179 195 185V220Q195 225 200 225H231V480H200Q195 480 195 486V521Q195 526 200 526H348Q399 526 430 500T462 423Q462 347 393 328Q394 327 411 298L448 226H480Q485 226 485 221V185Q485
179 480 179ZM280 365H345Q412 365 412 422Q412 450 394 465T345 480H280V365Z" />
<glyph unicode="&#xaf;" glyph-name="overscore" horiz-adv-x="392" d="M344 554H48Q35 554 35 567V609Q35 623 48 623H344Q357 623 357 609V567Q357 554 344 554Z" />
<glyph unicode="&#xb0;" glyph-name="degree" horiz-adv-x="220" d="M141 419T110 419T59 439T38 493T59 549T110 571T161 550T182 494T162 439ZM96 457T110 457T134 467T144 495T134 522T110 533T86 523T76 495T86 468Z" />
<glyph unicode="&#xb1;" glyph-name="plusminus" horiz-adv-x="401" d="M349 329H243V222Q243 209 231 209H173Q161 209 161 222V329H52Q38 329 38 342V393Q38 406 52 406H161V516Q161 528 173 528H231Q243 528 243 516V406H349Q362 406 362 393V342Q362 329 349
329ZM349 91H52Q38 91 38 104V155Q38 168 52 168H349Q362 168 362 155V104Q362 91 349 91Z" />
<glyph unicode="&#xb4;" glyph-name="acute" horiz-adv-x="291" d="M83 572Q78 569 73 569T64 575L39 604Q35 609 35 614T41 623L202 764Q206 768 211 768T221 763L252 725Q256 720 256 716T251 706L83 572Z" />
<glyph unicode="&#xb6;" glyph-name="paragraph" horiz-adv-x="663" d="M557 -78H494Q482 -78 482 -66V643H410V-66Q410 -78 398 -78H336Q323 -78 323 -66V236H283Q170 236 104 295T38 473T103 655T273 718H613Q625 718 625 706V655Q625 643 613 643H569V-66Q569
-78 557 -78Z" />
<glyph unicode="&#xb7;" glyph-name="middot" horiz-adv-x="151" d="M123 310T123 290T110 257T76 243T42 256T28 290T42 323T76 337T109 324Z" />
<glyph unicode="&#xb8;" glyph-name="cedilla" horiz-adv-x="236" d="M201 -116T178 -136T115 -156T41 -133Q35 -129 35 -125T38 -117L48 -105Q56 -97 65 -102Q84 -115 109 -115Q152 -115 152 -82Q152 -56 103 -56Q90 -56 86 -52T84 -39L104 18L146 17L131 -25Q145
-25 164 -30Q201 -42 201 -79Z" />
<glyph unicode="&#xba;" glyph-name="ordmasculine" horiz-adv-x="317" d="M279 542T244 507T159 471T73 506T38 599T73 690T159 724T244 690T279 599ZM126 513T159 513T214 535T236 598T213 660T159 683T105 660T81 598T103 536Z" />
<glyph unicode="&#xbb;" glyph-name="guillemotright" horiz-adv-x="521" d="M236 427Q236 435 242 435Q245 435 249 432L469 279Q483 270 483 258V236Q483 224 469 213L249 61Q244 58 240 58T236 66V110Q236 122 249 132L414 246L249 361Q236 369 236 383V427ZM52
61Q47 58 43 58T38 66V110Q38 122 52 132L217 246L52 361Q38 370 38 383V427Q38 436 42 436T52 432L272 279Q285 270 285 258V236Q285 223 272 213L52 61Z" />
<glyph unicode="&#xbd;" glyph-name="onehalf" horiz-adv-x="703" d="M238 -74H179Q167 -74 170 -62L412 748Q416 760 429 760H488Q500 760 496 748L254 -62Q251 -74 238 -74ZM655 0H412Q402 0 402 10V31Q402 72 423 100T473 143T531 172T581 204T602 252T584
295T535 311Q459 311 459 249Q459 241 452 241H413Q405 241 405 249Q405 295 438 328T532 362T626 331T659 259T640 192T592 150T536 121Q466 89 463 48H614V83Q614 91 622 91H657Q665 91 665 83V10Q665 0 655 0ZM262 362H71Q62 362 62 372V401Q62 410 71 410H144V660L71
605Q65 601 61 606L40 634Q39 636 39 638T43 644L140 718Q145 721 153 721H192Q200 721 200 712V410H262Q272 410 272 401V372Q272 362 262 362Z" />
<glyph unicode="&#xbf;" glyph-name="questiondown" horiz-adv-x="582" d="M468 -37H531Q544 -37 544 -49Q544 -143 482 -208T297 -274T106 -216T38 -70Q38 -22 55 16T97 78T152 126T207 174T249 231T266 311Q266 323 279 323H348Q361 323 361 311Q361 248 337
199T279 120T211 64Q129 3 129 -59T173 -158T295 -194T414 -154T456 -49Q456 -37 468 -37ZM366 468T366 446T351 409T313 393T275 408T260 446T275 483T312 499T350 484Z" />
<glyph unicode="&#xc0;" glyph-name="Agrave" horiz-adv-x="841" d="M768 0H542Q530 0 530 12V63Q530 75 542 75H612L547 248H268L203 75H273Q285 75 285 63V12Q285 0 273 0H48Q36 0 36 12V63Q36 75 48 75H115L330 643H276Q263 643 263 655V706Q263 718 276 718H412Q436
718 448 708T470 675L700 75H768Q780 75 780 63V12Q780 0 768 0ZM520 317L409 614H406L294 317H520ZM471 801Q466 795 461 795T452 799L284 933Q279 937 279 942T282 952L314 989Q319 995 323 995T333 991L494 849Q500 845 500 840T496 830L471 801Z" />
<glyph unicode="&#xc1;" glyph-name="Aacute" horiz-adv-x="841" d="M768 0H542Q530 0 530 12V63Q530 75 542 75H612L547 248H268L203 75H273Q285 75 285 63V12Q285 0 273 0H48Q36 0 36 12V63Q36 75 48 75H115L330 643H276Q263 643 263 655V706Q263 718 276 718H412Q436
718 448 708T470 675L700 75H768Q780 75 780 63V12Q780 0 768 0ZM520 317L409 614H406L294 317H520ZM403 798Q398 795 393 795T384 801L359 830Q355 835 355 840T361 849L522 990Q526 994 531 994T541 989L572 951Q576 946 576 942T571 932L403 798Z" />
<glyph unicode="&#xc2;" glyph-name="Acircumflex" horiz-adv-x="841" d="M768 0H542Q530 0 530 12V63Q530 75 542 75H612L547 248H268L203 75H273Q285 75 285 63V12Q285 0 273 0H48Q36 0 36 12V63Q36 75 48 75H115L330 643H276Q263 643 263 655V706Q263 718 276
718H412Q436 718 448 708T470 675L700 75H768Q780 75 780 63V12Q780 0 768 0ZM520 317L409 614H406L294 317H520ZM548 801Q544 795 539 795T529 799L405 904L283 799Q278 795 274 795T264 801L239 830Q236 835 236 839T241 849L396 985Q400 989 405 989T416 984L571
849Q576 843 576 839T573 830L548 801Z" />
<glyph unicode="&#xc3;" glyph-name="Atilde" horiz-adv-x="841" d="M768 0H542Q530 0 530 12V63Q530 75 542 75H612L547 248H268L203 75H273Q285 75 285 63V12Q285 0 273 0H48Q36 0 36 12V63Q36 75 48 75H115L330 643H276Q263 643 263 655V706Q263 718 276 718H412Q436
718 448 708T470 675L700 75H768Q780 75 780 63V12Q780 0 768 0ZM520 317L409 614H406L294 317H520ZM525 910H549Q561 910 561 898Q561 785 474 785Q442 785 418 800T374 832T335 848T305 836T295 791Q295 779 283 779H259Q247 779 247 791Q247 899 333 899Q370
899 410 866T472 833T504 847T513 898Q513 910 525 910Z" />
<glyph unicode="&#xc4;" glyph-name="Adieresis" horiz-adv-x="841" d="M768 0H542Q530 0 530 12V63Q530 75 542 75H612L547 248H268L203 75H273Q285 75 285 63V12Q285 0 273 0H48Q36 0 36 12V63Q36 75 48 75H115L330 643H276Q263 643 263 655V706Q263 718 276
718H412Q436 718 448 708T470 675L700 75H768Q780 75 780 63V12Q780 0 768 0ZM520 317L409 614H406L294 317H520ZM371 842T371 824T359 794T328 782T298 794T286 824T298 854T328 867T358 855ZM529 842T529 824T517 794T486 782T456 794T444 824T456 854T486 867T516
855Z" />
<glyph unicode="&#xc5;" glyph-name="Aring" horiz-adv-x="841" d="M768 0H542Q530 0 530 12V63Q530 75 542 75H612L547 248H268L203 75H273Q285 75 285 63V12Q285 0 273 0H48Q36 0 36 12V63Q36 75 48 75H115L330 643H276Q263 643 263 655V706Q263 718 276 718H412Q436
718 448 708T470 675L700 75H768Q780 75 780 63V12Q780 0 768 0ZM520 317L409 614H406L294 317H520ZM452 829Q435 800 398 800Q387 800 370 810Q345 825 345 860Q345 874 355 891Q370 916 404 916Q418 916 435 906Q460 891 460 856Q460 842 452 829ZM415 832Q431
840 431 859Q431 878 411 885Q406 887 401 887Q382 887 375 867Q373 862 373 857Q373 838 394 831Q399 829 404 829T415 832Z" />
<glyph unicode="&#xc6;" glyph-name="AE" horiz-adv-x="1044" d="M984 0H452Q440 0 440 12V63Q440 75 452 75H529V320H320L216 75H285Q298 75 298 63V12Q298 0 285 0H61Q48 0 48 12V63Q48 75 61 75H128L370 643H315Q303 643 303 655V706Q303 718 315 718H984Q996
718 996 706V545Q996 532 984 532H930Q917 532 917 545V643H616V395H869Q881 395 881 383V332Q881 320 869 320H616V75H917V173Q917 185 929 185H984Q996 185 996 173V12Q996 0 984 0ZM529 395V643H458L350 395H529Z" />
<glyph unicode="&#xc7;" glyph-name="Ccedilla" horiz-adv-x="752" d="M461 -116T438 -136T375 -156T301 -133Q290 -126 298 -117L308 -105Q316 -97 325 -102Q344 -115 369 -115Q412 -115 412 -82Q412 -56 363 -56Q350 -56 346 -52T344 -39L356 -5Q222 7 135 107T48
367T146 626T384 724Q539 724 609 617L608 706Q606 718 620 718H676Q689 718 689 706V488Q689 475 676 475H613Q601 475 601 488V497Q601 543 539 592T383 642T216 569T141 361T216 152T392 77Q501 77 564 126Q613 164 636 203Q644 218 655 209L697 181Q702 177
702 172T698 157T683 132T646 90T589 45T506 10T397 -6L391 -25Q405 -25 424 -30Q461 -42 461 -79Z" />
<glyph unicode="&#xc8;" glyph-name="Egrave" horiz-adv-x="653" d="M592 0H61Q48 0 48 12V63Q48 75 61 75H137V643H61Q48 643 48 655V706Q48 718 61 718H592Q605 718 605 706V545Q605 532 592 532H538Q526 532 526 545V643H224V395H477Q490 395 490 383V332Q490
320 477 320H224V75H525V173Q525 185 538 185H592Q605 185 605 173V12Q605 0 592 0ZM380 801Q375 795 370 795T361 799L193 933Q188 937 188 942T191 952L223 989Q228 995 233 995T242 991L403 849Q409 845 409 840T405 830L380 801Z" />
<glyph unicode="&#xc9;" glyph-name="Eacute" horiz-adv-x="653" d="M392 990Q396 994 401 994T411 989L442 951Q450 941 441 932L273 798Q261 791 254 801L229 830Q220 841 231 849L392 990ZM592 0H61Q48 0 48 12V63Q48 75 61 75H137V643H61Q48 643 48 655V706Q48
718 61 718H592Q605 718 605 706V545Q605 532 592 532H538Q526 532 526 545V643H224V395H477Q490 395 490 383V332Q490 320 477 320H224V75H525V173Q525 185 538 185H592Q605 185 605 173V12Q605 0 592 0Z" />
<glyph unicode="&#xca;" glyph-name="Ecircumflex" horiz-adv-x="653" d="M296 985Q300 989 305 989T316 984L471 849Q479 839 473 830L448 801Q440 791 429 799L305 904L183 799Q173 790 164 801L139 830Q132 841 141 849L296 985ZM592 0H61Q48 0 48 12V63Q48
75 61 75H137V643H61Q48 643 48 655V706Q48 718 61 718H592Q605 718 605 706V545Q605 532 592 532H538Q526 532 526 545V643H224V395H477Q490 395 490 383V332Q490 320 477 320H224V75H525V173Q525 185 538 185H592Q605 185 605 173V12Q605 0 592 0Z" />
<glyph unicode="&#xcb;" glyph-name="Edieresis" horiz-adv-x="653" d="M285 842T285 824T273 794T242 782T212 794T200 824T212 854T242 867T272 855ZM443 842T443 824T431 794T400 782T370 794T358 824T370 854T400 867T430 855ZM592 0H61Q48 0 48 12V63Q48
75 61 75H137V643H61Q48 643 48 655V706Q48 718 61 718H592Q605 718 605 706V545Q605 532 592 532H538Q526 532 526 545V643H224V395H477Q490 395 490 383V332Q490 320 477 320H224V75H525V173Q525 185 538 185H592Q605 185 605 173V12Q605 0 592 0Z" />
<glyph unicode="&#xcc;" glyph-name="Igrave" horiz-adv-x="378" d="M317 0H77Q64 0 64 12V63Q64 75 77 75H153V643H77Q64 643 64 655V706Q64 718 77 718H317Q330 718 330 706V655Q330 643 317 643H240V75H317Q330 75 330 63V12Q330 0 317 0ZM224 779Q219 773
214 773T205 777L37 911Q32 915 32 920T35 930L67 967Q72 973 77 973T86 969L247 827Q253 823 253 818T249 808L224 779Z" />
<glyph unicode="&#xcd;" glyph-name="Iacute" horiz-adv-x="391" d="M301 0H61Q48 0 48 12V63Q48 75 61 75H137V643H61Q48 643 48 655V706Q48 718 61 718H301Q314 718 314 706V655Q314 643 301 643H224V75H301Q314 75 314 63V12Q314 0 301 0ZM170 774Q165 771
160 771T151 777L126 806Q122 811 122 816T128 825L289 966Q293 970 298 970T308 965L339 927Q343 922 343 918T338 908L170 774Z" />
<glyph unicode="&#xce;" glyph-name="Icircumflex" horiz-adv-x="381" d="M309 0H69Q56 0 56 12V63Q56 75 69 75H145V643H69Q56 643 56 655V706Q56 718 69 718H309Q322 718 322 706V655Q322 643 309 643H232V75H309Q322 75 322 63V12Q322 0 309 0ZM334 801Q330
795 325 795T315 799L191 904L69 799Q64 795 60 795T50 801L25 830Q22 835 22 839T27 849L182 985Q186 989 191 989T202 984L357 849Q362 843 362 839T359 830L334 801Z" />
<glyph unicode="&#xcf;" glyph-name="Idieresis" horiz-adv-x="362" d="M301 0H61Q48 0 48 12V63Q48 75 61 75H137V643H61Q48 643 48 655V706Q48 718 61 718H301Q314 718 314 706V655Q314 643 301 643H224V75H301Q314 75 314 63V12Q314 0 301 0ZM147 842T147 824T135
794T104 782T74 794T62 824T74 854T104 867T134 855ZM305 842T305 824T293 794T262 782T232 794T220 824T232 854T262 867T292 855Z" />
<glyph unicode="&#xd0;" glyph-name="Eth" horiz-adv-x="741" d="M348 0H61Q48 0 48 12V63Q48 75 61 75H137V324H69Q55 324 55 337V379Q55 393 69 393H137V643H61Q48 643 48 655V706Q48 718 61 718H330Q496 718 594 623T692 360T600 97T348 0ZM224 75H324Q460
76 531 147T602 355T531 568T321 643H224V393H377Q390 393 390 379V337Q390 324 377 324H224V75Z" />
<glyph unicode="&#xd1;" glyph-name="Ntilde" horiz-adv-x="820" d="M670 0H616Q597 0 586 7T565 31L276 483L226 567H224V75H301Q314 75 314 63V12Q314 0 301 0H61Q48 0 48 12V63Q48 75 61 75H137V643H61Q48 643 48 655V706Q48 718 61 718H201Q230 718 252 684L537
238L594 141H596V643H519Q507 643 507 655V706Q507 718 519 718H760Q772 718 772 706V655Q772 643 760 643H683V12Q683 0 670 0ZM539 910H563Q575 910 575 898Q575 785 488 785Q456 785 432 800T388 832T349 848T319 836T309 791Q309 779 297 779H273Q261 779 261
791Q261 899 347 899Q384 899 424 866T486 833T518 847T527 898Q527 910 539 910Z" />
<glyph unicode="&#xd2;" glyph-name="Ograve" horiz-adv-x="793" d="M744 198T646 96T398 -7T148 96T48 363T151 625T397 724T642 626T744 363ZM295 74T397 74T575 150T651 360T574 569T397 645T220 570T142 361T218 151ZM450 801Q445 795 440 795T431 799L263
933Q258 937 258 942T261 952L293 989Q298 995 303 995T312 991L473 849Q479 845 479 840T475 830L450 801Z" />
<glyph unicode="&#xd3;" glyph-name="Oacute" horiz-adv-x="793" d="M450 990Q454 994 459 994T469 989L500 951Q508 941 499 932L331 798Q319 791 312 801L287 830Q278 841 289 849L450 990ZM744 198T646 96T398 -7T148 96T48 363T151 625T397 724T642 626T744
363ZM295 74T397 74T575 150T651 360T574 569T397 645T220 570T142 361T218 151Z" />
<glyph unicode="&#xd4;" glyph-name="Ocircumflex" horiz-adv-x="793" d="M386 985Q390 989 395 989T406 984L561 849Q569 839 563 830L538 801Q530 791 519 799L395 904L273 799Q263 790 254 801L229 830Q222 841 231 849L386 985ZM744 198T646 96T398 -7T148
96T48 363T151 625T397 724T642 626T744 363ZM295 74T397 74T575 150T651 360T574 569T397 645T220 570T142 361T218 151Z" />
<glyph unicode="&#xd5;" glyph-name="Otilde" horiz-adv-x="793" d="M744 198T646 96T398 -7T148 96T48 363T151 625T397 724T642 626T744 363ZM295 74T397 74T575 150T651 360T574 569T397 645T220 570T142 361T218 151ZM524 910H548Q560 910 560 898Q560 785
473 785Q441 785 417 800T373 832T334 848T304 836T294 791Q294 779 282 779H258Q246 779 246 791Q246 899 332 899Q369 899 409 866T471 833T503 847T512 898Q512 910 524 910Z" />
<glyph unicode="&#xd6;" glyph-name="Odieresis" horiz-adv-x="793" d="M360 842T360 824T348 794T317 782T287 794T275 824T287 854T317 867T347 855ZM518 842T518 824T506 794T475 782T445 794T433 824T445 854T475 867T505 855ZM744 198T646 96T398 -7T148
96T48 363T151 625T397 724T642 626T744 363ZM295 74T397 74T575 150T651 360T574 569T397 645T220 570T142 361T218 151Z" />
<glyph unicode="&#xd7;" glyph-name="multiply" horiz-adv-x="352" d="M264 159T260 159T251 163L176 238L99 160Q94 156 90 156T80 160L44 196Q40 201 40 206T44 216L121 293L43 371Q38 376 38 380T43 389L83 429Q87 434 91 434T100 429L178 349L255 426Q259
431 263 431T273 426L309 390Q314 385 314 381T309 371L233 295L308 221Q312 216 312 212T308 203L268 163Q264 159 260 159Z" />
<glyph unicode="&#xd8;" glyph-name="Oslash" horiz-adv-x="793" d="M308 -51H248Q236 -51 239 -39L257 21Q161 62 105 152T48 363Q48 527 151 625T397 724Q430 724 465 716L482 771Q485 783 498 783H557Q569 783 566 771L543 693Q634 653 689 568T744 363Q744
198 646 96T397 -7Q367 -7 335 1L323 -39Q320 -51 308 -51ZM142 360Q142 268 181 204T282 107L442 636Q417 644 388 644Q292 641 217 566T142 360ZM651 360Q651 449 614 511T517 606L359 81Q383 75 409 75Q507 80 579 155T651 360Z" />
<glyph unicode="&#xd9;" glyph-name="Ugrave" horiz-adv-x="814" d="M590 260V643H513Q501 643 501 655V706Q501 718 513 718H754Q766 718 766 706V655Q766 643 754 643H677V269Q677 134 607 64T408 -7T208 63T137 269V643H61Q48 643 48 655V706Q48 718 61 718H301Q314
718 314 706V655Q314 643 301 643H224V266Q224 74 408 74Q502 74 546 123T590 260ZM491 801Q486 795 481 795T472 799L304 933Q299 937 299 942T302 952L334 989Q339 995 343 995T353 991L514 849Q520 845 520 840T516 830L491 801Z" />
<glyph unicode="&#xda;" glyph-name="Uacute" horiz-adv-x="814" d="M496 990Q500 994 505 994T515 989L546 951Q554 941 545 932L377 798Q365 791 358 801L333 830Q324 841 335 849L496 990ZM590 260V643H513Q501 643 501 655V706Q501 718 513 718H754Q766 718
766 706V655Q766 643 754 643H677V269Q677 134 607 64T408 -7T208 63T137 269V643H61Q48 643 48 655V706Q48 718 61 718H301Q314 718 314 706V655Q314 643 301 643H224V266Q224 74 408 74Q502 74 546 123T590 260Z" />
<glyph unicode="&#xdb;" glyph-name="Ucircumflex" horiz-adv-x="814" d="M398 985Q402 989 407 989T418 984L573 849Q581 839 575 830L550 801Q542 791 531 799L407 904L285 799Q275 790 266 801L241 830Q234 841 243 849L398 985ZM590 260V643H513Q501 643 501
655V706Q501 718 513 718H754Q766 718 766 706V655Q766 643 754 643H677V269Q677 134 607 64T408 -7T208 63T137 269V643H61Q48 643 48 655V706Q48 718 61 718H301Q314 718 314 706V655Q314 643 301 643H224V266Q224 74 408 74Q502 74 546 123T590 260Z" />
<glyph unicode="&#xdc;" glyph-name="Udieresis" horiz-adv-x="814" d="M370 842T370 824T358 794T327 782T297 794T285 824T297 854T327 867T357 855ZM528 842T528 824T516 794T485 782T455 794T443 824T455 854T485 867T515 855ZM590 260V643H513Q501 643 501
655V706Q501 718 513 718H754Q766 718 766 706V655Q766 643 754 643H677V269Q677 134 607 64T408 -7T208 63T137 269V643H61Q48 643 48 655V706Q48 718 61 718H301Q314 718 314 706V655Q314 643 301 643H224V266Q224 74 408 74Q502 74 546 123T590 260Z" />
<glyph unicode="&#xdd;" glyph-name="Yacute" horiz-adv-x="759" d="M500 0H259Q247 0 247 12V63Q247 75 259 75H336V289L296 358Q166 589 129 643H61Q48 643 48 655V706Q48 718 61 718H286Q298 718 298 706V655Q298 643 286 643H220L377 365H383L539 643H473Q461
643 461 655V706Q461 718 473 718H699Q711 718 711 706V655Q711 643 699 643H630Q581 571 503 431T423 290V75H500Q512 75 512 63V12Q512 0 500 0ZM320 798Q315 795 310 795T301 801L276 830Q272 835 272 840T278 849L439 990Q443 994 448 994T458 989L489 951Q493
946 493 942T488 932L320 798Z" />
<glyph unicode="&#xde;" glyph-name="Thorn" horiz-adv-x="626" d="M296 0H51Q38 0 38 12V57Q38 69 51 69H121V649H53Q40 649 40 661V706Q40 718 53 718H192Q205 718 205 706L204 584H347Q455 584 521 528T587 369T523 213T336 159H202V69H296Q309 69 309 57V12Q309
0 296 0ZM203 230H344Q500 230 500 369Q500 441 456 475T344 509H203V230Z" />
<glyph unicode="&#xdf;" glyph-name="germandbls" horiz-adv-x="697" d="M232 0H51Q38 0 38 12V57Q38 69 51 69H108V482Q108 593 171 658T324 724T458 685T503 588Q503 530 458 496Q440 482 422 468Q377 436 377 388Q377 356 406 336T476 302T559 273T630 222T659
137Q659 73 601 31T459 -12Q305 -12 254 130Q253 131 253 132Q247 143 259 149L294 165Q307 170 311 159Q334 108 368 82Q402 57 452 57T536 80T571 139T543 196T474 230T393 258T324 304T295 379T314 453T357 496Q419 532 419 574Q419 606 397 627T324 649T233
605T192 482V69H232Q244 69 244 57V12Q244 0 232 0Z" />
<glyph unicode="&#xe0;" glyph-name="agrave" horiz-adv-x="580" d="M529 0H442Q399 0 399 42V93H397Q324 -8 202 -8Q130 -8 84 29T38 131Q38 213 109 251T306 290H390V302Q390 427 260 427Q199 427 172 416T134 397T116 386Q101 374 94 384L66 419Q59 427 68
435Q85 457 138 478Q191 499 263 499Q473 499 473 299V67H529Q541 67 541 55V12Q541 0 529 0ZM390 230H311Q253 230 215 224T151 198T124 143T152 86T227 63Q324 63 390 149V230ZM344 575Q339 569 334 569T325 573L157 707Q152 711 152 716T155 726L187 763Q192
769 197 769T206 765L367 623Q373 619 373 614T369 604L344 575Z" />
<glyph unicode="&#xe1;" glyph-name="aacute" horiz-adv-x="580" d="M529 0H442Q399 0 399 42V93H397Q324 -8 202 -8Q130 -8 84 29T38 131Q38 213 109 251T306 290H390V302Q390 427 260 427Q199 427 172 416T134 397T116 386Q101 374 94 384L66 419Q59 427 68
435Q85 457 138 478Q191 499 263 499Q473 499 473 299V67H529Q541 67 541 55V12Q541 0 529 0ZM390 230H311Q253 230 215 224T151 198T124 143T152 86T227 63Q324 63 390 149V230ZM238 572Q233 569 228 569T219 575L194 604Q190 609 190 614T196 623L357 764Q361
768 366 768T376 763L407 725Q411 720 411 716T406 706L238 572Z" />
<glyph unicode="&#xe2;" glyph-name="acircumflex" horiz-adv-x="580" d="M529 0H442Q399 0 399 42V93H397Q324 -8 202 -8Q130 -8 84 29T38 131Q38 213 109 251T306 290H390V302Q390 427 260 427Q199 427 172 416T134 397T116 386Q101 374 94 384L66 419Q59 427
68 435Q85 457 138 478Q191 499 263 499Q473 499 473 299V67H529Q541 67 541 55V12Q541 0 529 0ZM390 230H311Q253 230 215 224T151 198T124 143T152 86T227 63Q324 63 390 149V230ZM423 575Q419 569 414 569T404 573L280 678L158 573Q154 569 149 569T139 575L114
604Q111 609 111 613T116 623L271 759Q275 763 280 763T291 758L446 623Q451 617 451 613T448 604L423 575Z" />
<glyph unicode="&#xe3;" glyph-name="atilde" horiz-adv-x="580" d="M529 0H442Q399 0 399 42V93H397Q324 -8 202 -8Q130 -8 84 29T38 131Q38 213 109 251T306 290H390V302Q390 427 260 427Q199 427 172 416T134 397T116 386Q101 374 94 384L66 419Q59 427 68
435Q85 457 138 478Q191 499 263 499Q473 499 473 299V67H529Q541 67 541 55V12Q541 0 529 0ZM390 230H311Q253 230 215 224T151 198T124 143T152 86T227 63Q324 63 390 149V230ZM401 684H425Q437 684 437 672Q437 559 350 559Q318 559 294 574T250 606T211 622T181
610T171 565Q171 553 159 553H135Q123 553 123 565Q123 673 209 673Q246 673 286 640T348 607T380 621T389 672Q389 684 401 684Z" />
<glyph unicode="&#xe4;" glyph-name="adieresis" horiz-adv-x="580" d="M529 0H442Q399 0 399 42V93H397Q324 -8 202 -8Q130 -8 84 29T38 131Q38 213 109 251T306 290H390V302Q390 427 260 427Q199 427 172 416T134 397T116 386Q101 374 94 384L66 419Q59 427
68 435Q85 457 138 478Q191 499 263 499Q473 499 473 299V67H529Q541 67 541 55V12Q541 0 529 0ZM390 230H311Q253 230 215 224T151 198T124 143T152 86T227 63Q324 63 390 149V230ZM254 616T254 598T242 568T211 556T181 568T169 598T181 628T211 641T241 629ZM412
616T412 598T400 568T369 556T339 568T327 598T339 628T369 641T399 629Z" />
<glyph unicode="&#xe5;" glyph-name="aring" horiz-adv-x="580" d="M529 0H442Q399 0 399 42V93H397Q324 -8 202 -8Q130 -8 84 29T38 131Q38 213 109 251T306 290H390V302Q390 427 260 427Q199 427 172 416T134 397T116 386Q101 374 94 384L66 419Q59 427 68 435Q85
457 138 478Q191 499 263 499Q473 499 473 299V67H529Q541 67 541 55V12Q541 0 529 0ZM390 230H311Q253 230 215 224T151 198T124 143T152 86T227 63Q324 63 390 149V230ZM339 603Q322 574 285 574Q274 574 257 584Q232 599 232 634Q232 648 242 665Q257 690 291
690Q305 690 322 680Q347 665 347 630Q347 616 339 603ZM302 606Q318 614 318 633Q318 652 298 659Q293 661 288 661Q269 661 262 641Q260 636 260 631Q260 612 281 605Q286 603 291 603T302 606Z" />
<glyph unicode="&#xe6;" glyph-name="ae" horiz-adv-x="890" d="M763 18T723 5T625 -8T511 23T424 111Q393 65 338 29T207 -8T84 29T38 131Q38 213 109 251T306 290H390V303Q390 370 356 398T260 427Q199 427 172 416T134 397T116 386Q101 374 94 384L66 419Q59
427 68 435Q85 457 138 478Q191 499 263 499Q405 499 446 404Q476 449 524 473T626 498Q733 498 791 433T849 257Q849 253 849 249Q849 235 835 235H475Q479 152 527 107T637 62T741 88T800 139Q808 150 818 142L845 115Q851 109 851 105T847 93T828 71T789 37ZM390
236H311Q124 236 124 142Q124 108 152 86T217 63T279 70T321 89T353 114Q368 127 390 158L397 167Q390 195 390 236ZM763 354T727 393T632 432T529 396T477 290H766Q763 354 727 393Z" />
<glyph unicode="&#xe7;" glyph-name="ccedilla" horiz-adv-x="539" d="M375 -116T352 -136T289 -156T215 -133Q204 -126 212 -117L222 -105Q230 -97 239 -102Q258 -115 283 -115Q326 -115 326 -82Q326 -56 277 -56Q264 -56 260 -52T258 -39L269 -7Q170 -2 104
67T38 250T108 431T281 499T435 425H436L435 480Q435 493 448 493H486Q498 493 498 480V310Q498 298 486 298H440Q428 298 428 310V327Q427 363 387 396T286 429T173 380T122 247T172 113T284 63T389 89T448 141Q455 153 465 144L494 116Q500 111 500 107T497 98Q483
71 434 36T312 -5L305 -25Q319 -25 338 -30Q375 -42 375 -79Z" />
<glyph unicode="&#xe8;" glyph-name="egrave" horiz-adv-x="538" d="M483 236H123Q127 153 175 108T285 63T389 89T448 140Q456 150 466 143L493 116Q499 110 499 106T495 94T476 72T437 38T371 6T284 -7Q179 -7 109 62T38 247T108 431T279 499T439 434T497 257Q497
253 497 249Q497 236 483 236ZM411 359T375 396T279 433T176 399T125 297H414Q411 359 375 396ZM347 575Q342 569 337 569T328 573L160 707Q155 711 155 716T158 726L190 763Q195 769 199 769T209 765L370 623Q376 619 376 614T372 604L347 575Z" />
<glyph unicode="&#xe9;" glyph-name="eacute" horiz-adv-x="538" d="M367 764Q371 768 376 768T386 763L417 725Q425 715 416 706L248 572Q236 565 229 575L204 604Q195 615 206 623L367 764ZM483 236H123Q127 153 175 108T285 63T389 89T448 140Q456 150 466
143L493 116Q499 110 499 106T495 94T476 72T437 38T371 6T284 -7Q179 -7 109 62T38 247T108 431T279 499T439 434T497 257Q497 253 497 249Q497 236 483 236ZM411 359T375 396T279 433T176 399T125 297H414Q411 359 375 396Z" />
<glyph unicode="&#xea;" glyph-name="ecircumflex" horiz-adv-x="538" d="M266 759Q270 763 275 763T286 758L441 623Q449 613 443 604L418 575Q410 565 399 573L275 678L153 573Q143 564 134 575L109 604Q102 615 111 623L266 759ZM483 236H123Q127 153 175 108T285
63T389 89T448 140Q456 150 466 143L493 116Q499 110 499 106T495 94T476 72T437 38T371 6T284 -7Q179 -7 109 62T38 247T108 431T279 499T439 434T497 257Q497 253 497 249Q497 236 483 236ZM411 359T375 396T279 433T176 399T125 297H414Q411 359 375 396Z" />
<glyph unicode="&#xeb;" glyph-name="edieresis" horiz-adv-x="538" d="M236 616T236 598T224 568T193 556T163 568T151 598T163 628T193 641T223 629ZM394 616T394 598T382 568T351 556T321 568T309 598T321 628T351 641T381 629ZM483 236H123Q127 153 175 108T285
63T389 89T448 140Q456 150 466 143L493 116Q499 110 499 106T495 94T476 72T437 38T371 6T284 -7Q179 -7 109 62T38 247T108 431T279 499T439 434T497 257Q497 253 497 249Q497 236 483 236ZM411 359T375 396T279 433T176 399T125 297H414Q411 359 375 396Z" />
<glyph unicode="&#xec;" glyph-name="igrave" horiz-adv-x="293" d="M242 0H51Q38 0 38 12V55Q38 67 51 67H106V425H51Q38 425 38 437V480Q38 492 51 492H177Q189 492 189 480V67H242Q255 67 255 55V12Q255 0 242 0ZM150 570Q145 564 140 564T131 568L-37 702Q-42
706 -42 711T-39 721L-7 758Q-2 764 3 764T12 760L173 618Q179 614 179 609T175 599L150 570Z" />
<glyph unicode="&#xed;" glyph-name="iacute" horiz-adv-x="293" d="M242 0H51Q38 0 38 12V55Q38 67 51 67H106V425H51Q38 425 38 437V480Q38 492 51 492H177Q189 492 189 480V67H242Q255 67 255 55V12Q255 0 242 0ZM141 572Q136 569 131 569T122 575L97 604Q93
609 93 614T99 623L260 764Q264 768 269 768T279 763L310 725Q314 720 314 716T309 706L141 572Z" />
<glyph unicode="&#xee;" glyph-name="icircumflex" horiz-adv-x="293" d="M242 0H51Q38 0 38 12V55Q38 67 51 67H106V425H51Q38 425 38 437V480Q38 492 51 492H177Q189 492 189 480V67H242Q255 67 255 55V12Q255 0 242 0ZM285 575Q281 569 276 569T266 573L142
678L20 573Q16 569 11 569T1 575L-24 604Q-27 609 -27 613T-22 623L133 759Q137 763 142 763T153 758L308 623Q313 617 313 613T310 604L285 575Z" />
<glyph unicode="&#xef;" glyph-name="idieresis" horiz-adv-x="293" d="M242 0H51Q38 0 38 12V55Q38 67 51 67H106V425H51Q38 425 38 437V480Q38 492 51 492H177Q189 492 189 480V67H242Q255 67 255 55V12Q255 0 242 0ZM117 616T117 598T105 568T74 556T44 568T32
598T44 628T74 641T104 629ZM275 616T275 598T263 568T232 556T202 568T190 598T202 628T232 641T262 629Z" />
<glyph unicode="&#xf0;" glyph-name="eth" horiz-adv-x="611" d="M286 645Q219 645 185 610T150 535Q150 523 138 523H77Q65 523 65 535Q65 620 125 672T285 724Q357 724 413 695L461 744Q466 748 470 748T480 744L500 723Q509 714 500 704L460 664Q573 573 573
353Q573 189 502 91T305 -7T110 60T39 232T102 399T281 462T477 411Q469 548 397 602L349 553Q340 544 331 553L311 574Q301 583 311 593L351 633Q318 645 286 645ZM481 339Q400 394 311 394T176 351T129 235T174 119T302 74T432 143T481 339Z" />
<glyph unicode="&#xf1;" glyph-name="ntilde" horiz-adv-x="621" d="M570 0H475Q432 0 432 42V305Q432 363 404 395T322 427Q245 427 202 364Q197 358 189 342V67H242Q255 67 255 55V12Q255 0 242 0H51Q38 0 38 12V55Q38 67 51 67H106V425H51Q38 425 38 437V480Q38
492 51 492H168Q181 492 181 480L179 412H182Q234 499 343 499Q423 499 468 452T514 325V67H570Q583 67 583 55V12Q583 0 570 0ZM429 684H453Q465 684 465 672Q465 559 378 559Q346 559 322 574T278 606T239 622T209 610T199 565Q199 553 187 553H163Q151 553 151
565Q151 673 237 673Q274 673 314 640T376 607T408 621T417 672Q417 684 429 684Z" />
<glyph unicode="&#xf2;" glyph-name="ograve" horiz-adv-x="575" d="M396 -7T287 -7T108 62T38 247T109 431T287 499T465 431T536 248T466 63ZM122 165T170 114T287 63T405 114T453 247T405 379T288 429T171 379T122 247ZM327 575Q322 569 317 569T308 573L140
707Q135 711 135 716T138 726L170 763Q175 769 179 769T189 765L350 623Q356 619 356 614T352 604L327 575Z" />
<glyph unicode="&#xf3;" glyph-name="oacute" horiz-adv-x="575" d="M381 764Q385 768 390 768T400 763L431 725Q439 715 430 706L262 572Q250 565 243 575L218 604Q209 615 220 623L381 764ZM396 -7T287 -7T108 62T38 247T109 431T287 499T465 431T536 248T466
63ZM122 165T170 114T287 63T405 114T453 247T405 379T288 429T171 379T122 247Z" />
<glyph unicode="&#xf4;" glyph-name="ocircumflex" horiz-adv-x="575" d="M283 759Q287 763 292 763T303 758L458 623Q466 613 460 604L435 575Q427 565 416 573L292 678L170 573Q160 564 151 575L126 604Q119 615 128 623L283 759ZM396 -7T287 -7T108 62T38 247T109
431T287 499T465 431T536 248T466 63ZM122 165T170 114T287 63T405 114T453 247T405 379T288 429T171 379T122 247Z" />
<glyph unicode="&#xf5;" glyph-name="otilde" horiz-adv-x="575" d="M396 -7T287 -7T108 62T38 247T109 431T287 499T465 431T536 248T466 63ZM122 165T170 114T287 63T405 114T453 247T405 379T288 429T171 379T122 247ZM416 684H440Q452 684 452 672Q452 559
365 559Q333 559 309 574T265 606T226 622T196 610T186 565Q186 553 174 553H150Q138 553 138 565Q138 673 224 673Q261 673 301 640T363 607T395 621T404 672Q404 684 416 684Z" />
<glyph unicode="&#xf6;" glyph-name="odieresis" horiz-adv-x="575" d="M253 616T253 598T241 568T210 556T180 568T168 598T180 628T210 641T240 629ZM411 616T411 598T399 568T368 556T338 568T326 598T338 628T368 641T398 629ZM396 -7T287 -7T108 62T38 247T109
431T287 499T465 431T536 248T466 63ZM122 165T170 114T287 63T405 114T453 247T405 379T288 429T171 379T122 247Z" />
<glyph unicode="&#xf7;" glyph-name="divide" horiz-adv-x="414" d="M363 221H52Q38 221 38 234V285Q38 298 52 298H363Q376 298 376 285V234Q376 221 363 221ZM225 180T237 168T249 139T237 109T208 97T179 109T166 138T178 168T208 180ZM249 404T249 387T237
358T208 345T179 357T166 387T178 416T208 428T237 416Z" />
<glyph unicode="&#xf8;" glyph-name="oslash" horiz-adv-x="575" d="M177 -29H135Q121 -29 126 -17L150 30Q98 62 68 118T38 248Q38 363 109 431T288 499Q336 499 379 482L386 497Q391 510 403 510H445Q459 510 454 497L433 457Q536 388 536 248Q536 133 466 63T287
-7Q246 -7 205 6L193 -17Q187 -29 177 -29ZM288 429Q220 429 171 379T122 242T186 103L345 416Q316 429 288 429ZM289 63Q358 63 405 114T453 248T396 383L239 73Q260 63 289 63Z" />
<glyph unicode="&#xf9;" glyph-name="ugrave" horiz-adv-x="608" d="M557 0H470Q427 0 427 42V79H424Q383 -7 268 -7Q188 -7 142 40T94 167V425H37Q25 425 25 437V480Q25 492 37 492H133Q176 492 176 450V187Q176 129 204 97T286 65Q359 65 401 119Q419 142 419
150V425H365Q353 425 353 437V480Q353 492 365 492H489Q501 492 501 480V67H557Q570 67 570 55V12Q570 0 557 0ZM331 575Q326 569 321 569T312 573L144 707Q139 711 139 716T142 726L174 763Q179 769 183 769T193 765L354 623Q360 619 360 614T356 604L331 575Z"
/>
<glyph unicode="&#xfa;" glyph-name="uacute" horiz-adv-x="608" d="M347 764Q351 768 356 768T366 763L397 725Q405 715 396 706L228 572Q216 565 209 575L184 604Q175 615 186 623L347 764ZM557 0H470Q427 0 427 42V79H424Q383 -7 268 -7Q188 -7 142 40T94 167V425H37Q25
425 25 437V480Q25 492 37 492H133Q176 492 176 450V187Q176 129 204 97T286 65Q359 65 401 119Q419 142 419 150V425H365Q353 425 353 437V480Q353 492 365 492H489Q501 492 501 480V67H557Q570 67 570 55V12Q570 0 557 0Z" />
<glyph unicode="&#xfb;" glyph-name="ucircumflex" horiz-adv-x="608" d="M275 759Q279 763 284 763T295 758L450 623Q458 613 452 604L427 575Q419 565 408 573L284 678L162 573Q152 564 143 575L118 604Q111 615 120 623L275 759ZM557 0H470Q427 0 427 42V79H424Q383
-7 268 -7Q188 -7 142 40T94 167V425H37Q25 425 25 437V480Q25 492 37 492H133Q176 492 176 450V187Q176 129 204 97T286 65Q359 65 401 119Q419 142 419 150V425H365Q353 425 353 437V480Q353 492 365 492H489Q501 492 501 480V67H557Q570 67 570 55V12Q570 0
557 0Z" />
<glyph unicode="&#xfc;" glyph-name="udieresis" horiz-adv-x="608" d="M250 616T250 598T238 568T207 556T177 568T165 598T177 628T207 641T237 629ZM408 616T408 598T396 568T365 556T335 568T323 598T335 628T365 641T395 629ZM557 0H470Q427 0 427 42V79H424Q383
-7 268 -7Q188 -7 142 40T94 167V425H37Q25 425 25 437V480Q25 492 37 492H133Q176 492 176 450V187Q176 129 204 97T286 65Q359 65 401 119Q419 142 419 150V425H365Q353 425 353 437V480Q353 492 365 492H489Q501 492 501 480V67H557Q570 67 570 55V12Q570 0
557 0Z" />
<glyph unicode="&#xfd;" glyph-name="yacute" horiz-adv-x="590" d="M261 11Q245 11 235 36L82 425H27Q15 425 15 437V480Q15 492 27 492H208Q221 492 221 480V437Q221 425 208 425H167L296 86H298L418 425H373Q361 425 361 437V480Q361 492 373 492H559Q571 492
571 480V437Q571 425 559 425H503L325 -64Q292 -153 257 -193T160 -234T54 -195Q44 -185 51 -177L76 -145Q85 -138 94 -144Q118 -163 151 -163T205 -141T247 -63L274 11H261ZM259 572Q254 569 249 569T240 575L215 604Q211 609 211 614T217 623L378 764Q382 768
387 768T397 763L428 725Q432 720 432 716T427 706L259 572Z" />
<glyph unicode="&#xfe;" glyph-name="thorn" horiz-adv-x="613" d="M252 -226H51Q38 -226 38 -213V-171Q38 -158 51 -158H107V650H53Q40 650 40 662V705Q40 717 53 717H177Q190 717 190 705V407Q237 499 343 499T512 431T574 249T513 64T350 -7Q288 -7 247 21T187
91H185Q187 69 187 55V-158H252Q265 -158 265 -171V-213Q265 -226 252 -226ZM185 163T228 113T338 63T448 113T492 246T449 379T339 429T229 380T185 247Z" />
<glyph unicode="&#xff;" glyph-name="ydieresis" horiz-adv-x="590" d="M261 11Q245 11 235 36L82 425H27Q15 425 15 437V480Q15 492 27 492H208Q221 492 221 480V437Q221 425 208 425H167L296 86H298L418 425H373Q361 425 361 437V480Q361 492 373 492H559Q571
492 571 480V437Q571 425 559 425H503L325 -64Q292 -153 257 -193T160 -234T54 -195Q44 -185 51 -177L76 -145Q85 -138 94 -144Q118 -163 151 -163T205 -141T247 -63L274 11H261ZM265 616T265 598T253 568T222 556T192 568T180 598T192 628T222 641T252 629ZM423
616T423 598T411 568T380 556T350 568T338 598T350 628T380 641T410 629Z" />
<glyph unicode="&#x2013;" glyph-name="endash" horiz-adv-x="554" d="M503 222H52Q38 222 38 235V286Q38 299 52 299H503Q516 299 516 286V235Q516 222 503 222Z" />
<glyph unicode="&#x2014;" glyph-name="emdash" horiz-adv-x="879" d="M828 222H52Q38 222 38 235V286Q38 299 52 299H828Q841 299 841 286V235Q841 222 828 222Z" />
<glyph unicode="&#x2018;" glyph-name="quoteleft" horiz-adv-x="179" d="M124 770V753Q124 747 113 747T89 734T76 694L78 682Q84 687 100 687T128 675T141 642T127 608T90 594T53 613T38 677T60 749T117 776Q124 776 124 770Z" />
<glyph unicode="&#x2019;" glyph-name="quoteright" horiz-adv-x="179" d="M55 567V584Q55 590 66 590T89 603T102 643L100 655Q95 650 79 650T51 663T38 696T51 729T88 743T126 724T141 660T119 588T61 561Q55 561 55 567Z" />
<glyph unicode="&#x201a;" glyph-name="quotesinglbase" horiz-adv-x="179" d="M55 -90V-73Q55 -67 66 -67T89 -54T102 -14L100 -2Q95 -7 79 -7T51 6T38 39T51 72T88 86T126 67T141 3T119 -69T61 -95Q55 -95 55 -90Z" />
<glyph unicode="&#x201c;" glyph-name="quotedblleft" horiz-adv-x="341" d="M287 770V753Q287 747 276 747T252 734T239 694L241 682Q246 687 262 687T290 674T303 641T290 608T253 594T216 613T201 677T223 749T280 776Q287 776 287 770ZM124 770V753Q124 747
113 747T89 734T76 694L78 682Q84 687 100 687T128 675T141 642T127 608T90 594T53 613T38 677T60 749T117 776Q124 776 124 770Z" />
<glyph unicode="&#x201d;" glyph-name="quotedblright" horiz-adv-x="341" d="M55 567V584Q55 590 66 590T89 603T102 643L100 655Q95 650 79 650T51 663T38 696T51 729T88 743T126 724T141 660T119 588T61 561Q55 561 55 567ZM217 567V584Q217 590 228 590T252
603T265 643L263 655Q258 650 242 650T214 663T201 696T214 729T251 743T288 724T303 660T281 588T224 561Q217 561 217 567Z" />
<glyph unicode="&#x201e;" glyph-name="quotedblbase" horiz-adv-x="330" d="M55 -90V-73Q55 -67 66 -67T89 -54T102 -14L100 -2Q95 -7 79 -7T51 6T38 39T51 72T88 86T126 67T141 3T119 -69T61 -95Q55 -95 55 -90ZM205 -90V-73Q205 -67 216 -67T240 -54T253 -14L251
-2Q246 -7 230 -7T202 6T189 39T202 72T239 86T276 67T291 3T269 -69T212 -95Q205 -95 205 -90Z" />
<glyph unicode="&#x2022;" glyph-name="bullet" horiz-adv-x="263" d="M225 291T200 265T131 239T63 264T38 334T62 405T130 432T199 405T225 335Z" />
</font>
</defs>
</svg>
