<?xml version="1.0" standalone="no"?>
<!DOCTYPE svg PUBLIC "-//W3C//DTD SVG 1.1//EN" "http://www.w3.org/Graphics/SVG/1.1/DTD/svg11.dtd">
<svg xmlns="http://www.w3.org/2000/svg">
<defs >
<font id="Belgrano" horiz-adv-x="500" ><font-face
    font-family="Belgrano"
    units-per-em="1000"
    panose-1="2 0 0 0 0 0 0 0 0 0"
    ascent="990"
    descent="-278"
    alphabetic="0" />
<glyph unicode=" " glyph-name="space" horiz-adv-x="275" />
<glyph unicode="!" glyph-name="exclam" horiz-adv-x="304" d="M187 216H120L99 768H213L187 216ZM174 115T192 98T211 54T192 9T147 -10T103 8T86 52T103 96T147 115Z" />
<glyph unicode="&quot;" glyph-name="quotedbl" horiz-adv-x="367" d="M144 603H78L68 831H154L144 603ZM289 603H223L213 831H299L289 603Z" />
<glyph unicode="#" glyph-name="numbersign" horiz-adv-x="655" d="M523 165H443L414 59H321L350 165H229L200 59H107L136 165H48V236H156L194 372H126V443H214L248 562H341L307 443H428L462 562H555L521 443H601V372H501L463 236H523V165ZM370 236L408 372H287L249
236H370Z" />
<glyph unicode="$" glyph-name="dollar" horiz-adv-x="534" d="M309 713Q422 703 473 669V532L414 530L391 611Q350 632 284 632Q149 632 149 546Q149 498 185 467T299 407Q487 338 487 187Q487 110 442 58T310 -7L326 -149H215L231 -10Q185 -7 142 6Q75 26 51
47V190H111L139 97Q178 66 266 66Q323 66 357 96T392 171T355 257T226 332Q54 397 54 514Q54 601 104 651T231 712L215 857H326L309 713Z" />
<glyph unicode="%" glyph-name="percent" horiz-adv-x="932" d="M291 316T213 316T86 369T37 514T86 660T213 715T341 660T391 514T341 370ZM170 385T214 385T282 422T307 514T283 607T213 645T144 607T120 515T145 423ZM324 -11H231L608 715H701L324 -11ZM795
-11T717 -11T590 42T541 187T590 333T717 388T845 333T895 187T845 43ZM674 58T718 58T786 95T811 187T787 280T717 318T648 280T624 188T649 96Z" />
<glyph unicode="&amp;" glyph-name="ampersand" horiz-adv-x="640" d="M465 67Q394 -7 283 -7T110 54T49 195Q49 288 112 341Q161 382 220 406Q152 485 152 561T199 680T319 724Q419 724 466 664Q477 650 481 641T484 631V518H422L405 602Q399 617 374 630T318
644T267 621T247 562T281 472T390 315T479 192Q504 232 504 309V329H577V309Q577 258 565 212T540 146L527 125L617 0H514L465 67ZM143 142T185 108T286 74Q370 74 422 126L264 347Q218 324 193 303Q143 262 143 202Z" />
<glyph unicode="&apos;" glyph-name="quotesingle" horiz-adv-x="222" d="M144 603H78L68 831H154L144 603Z" />
<glyph unicode="(" glyph-name="parenleft" horiz-adv-x="305" d="M82 -29T66 59T50 243T65 428T103 580Q149 707 184 754L199 776L274 741Q258 723 231 667T185 558T152 418T137 243T151 72T185 -64Q225 -173 260 -220L274 -239L199 -274Q181 -253 151 -196T102 -84Z" />
<glyph unicode=")" glyph-name="parenright" horiz-adv-x="304" d="M138 -12T153 70T168 242T154 417T120 558Q79 672 45 721L31 741L106 776Q128 746 156 691T203 579T239 430T255 243T240 61T202 -85Q155 -209 122 -254L106 -274L31 -239Q49 -219 75 -167T120 -64Z" />
<glyph unicode="*" glyph-name="asterisk" horiz-adv-x="443" d="M306 503L261 483L213 610L134 503L94 532L187 635L52 650L58 698L190 670L135 790L179 810L225 682L307 796L346 766L253 661L390 646L384 599L248 625L306 503Z" />
<glyph unicode="+" glyph-name="plus" horiz-adv-x="497" d="M447 312H284V149H213V312H50V383H213V546H284V383H447V312Z" />
<glyph unicode="," glyph-name="comma" horiz-adv-x="267" d="M89 -120V-72Q107 -72 121 -59T135 -19V-11H130Q105 -11 88 6T71 48T88 90T135 107T182 81T199 13Q199 -56 168 -88T89 -120Z" />
<glyph unicode="-" glyph-name="hyphen" horiz-adv-x="416" d="M343 235H73V298H343V235Z" />
<glyph unicode="." glyph-name="period" horiz-adv-x="260" d="M155 -11T130 -11T88 6T71 48T88 90T130 107T172 90T189 48T172 6Z" />
<glyph unicode="/" glyph-name="slash" horiz-adv-x="443" d="M129 -279H36L315 715H408L129 -279Z" />
<glyph unicode="0" glyph-name="zero" horiz-adv-x="738" d="M681 186T594 88T369 -10T144 87T57 350T144 615T368 715T593 615T681 351ZM161 232T216 151T368 70T520 151T575 350T520 551T368 634T216 552T161 351Z" />
<glyph unicode="1" glyph-name="one" d="M485 0H65V45L224 79V603L79 502L37 569L231 706H325V79L485 45V0Z" />
<glyph unicode="2" glyph-name="two" horiz-adv-x="615" d="M553 0H66V75Q122 112 187 165T300 267T386 377T425 498T387 595T283 634Q243 634 213 620T171 592L160 578L140 454H64V607Q71 621 91 642T134 677T196 703T281 715Q396 715 463 654T530 491Q530 438
500 379T426 271T333 180Q243 102 190 76H447L480 187H553V0Z" />
<glyph unicode="3" glyph-name="three" horiz-adv-x="613" d="M63 201H139L159 112Q171 97 211 84T297 71Q370 71 412 104T454 194Q454 330 214 330V394Q316 394 365 423T414 525Q414 574 383 603T304 633T223 623T180 602L169 592L149 518H73V621Q78 631 100
650T145 681T208 704T295 714Q399 714 459 662T519 525Q519 461 484 419Q453 383 430 372L419 367Q434 364 463 348T510 315T544 265T559 194Q559 102 488 46T295 -10Q198 -10 138 22Q87 50 70 74L63 83V201Z" />
<glyph unicode="4" glyph-name="four" horiz-adv-x="625" d="M583 0H194V45L353 73V226H30V302L360 706H454V302H572V226H454V73L583 45V0ZM353 302V574L139 302H353Z" />
<glyph unicode="5" glyph-name="five" horiz-adv-x="628" d="M310 70Q382 70 424 115T467 226T422 332T313 371Q270 371 237 360T192 337L181 326H84V704H541V527H478L445 628H185V423Q225 453 316 453Q431 453 501 388T572 222T499 56T308 -11Q179 -11 100 49Q81
63 74 72L66 82V200H142L162 111Q174 96 217 83T310 70Z" />
<glyph unicode="6" glyph-name="six" horiz-adv-x="637" d="M171 182T217 126T332 70T442 110T484 218T443 326T329 365Q274 365 232 338Q197 314 182 298T165 281Q171 182 217 126ZM560 518H484L464 592Q460 597 452 603T411 621T336 633Q171 633 162 376Q164
377 181 389T217 413T270 435T339 446Q442 446 510 385T579 219T514 51T326 -11T132 74T61 325Q61 519 132 617T342 715Q405 715 467 692T560 621V518Z" />
<glyph unicode="7" glyph-name="seven" horiz-adv-x="569" d="M293 0H186Q186 151 238 286Q289 416 348 500Q404 579 438 616L452 631H147L114 495H41V707H553V632Q521 600 470 522T384 374T321 202T293 0Z" />
<glyph unicode="8" glyph-name="eight" horiz-adv-x="648" d="M460 388V387Q490 387 535 350Q558 331 574 293T590 206Q590 110 517 50T325 -11T132 49T58 206Q58 255 74 293T112 350Q156 387 188 387V388Q160 388 121 426T82 534T142 659T324 714T506 660T566
535T527 427T460 388ZM352 341H296Q231 341 190 306T148 209T196 109T324 70T451 109T499 209T458 306T352 341ZM398 417T437 444T476 520T437 602T324 635T212 603T172 520T212 443T300 416Q302 416 304 416H346Q398 417 437 444Z" />
<glyph unicode="9" glyph-name="nine" horiz-adv-x="637" d="M466 522T420 578T305 634T195 594T153 486T194 378T308 339Q363 339 405 366Q440 390 455 406T472 423Q466 522 420 578ZM77 186H153L173 112Q177 107 185 101T226 83T301 71Q466 71 475 328L456 314Q437
300 419 290T367 269T298 258Q195 258 127 319T58 485T123 653T311 715T505 630T576 379Q576 185 505 87T295 -11Q232 -11 170 12T77 83V186Z" />
<glyph unicode=":" glyph-name="colon" horiz-adv-x="264" d="M157 -11T132 -11T90 6T73 48T90 90T132 107T174 90T191 48T174 6ZM157 394T132 394T90 411T73 453T90 495T132 512T174 495T191 453T174 411Z" />
<glyph unicode=";" glyph-name="semicolon" horiz-adv-x="283" d="M162 394T137 394T95 411T78 453T95 495T137 512T179 495T196 453T179 411ZM96 -120V-72Q114 -72 128 -59T142 -19V-11H137Q112 -11 95 6T78 48T95 90T142 107T189 81T206 13Q206 -56 175 -88T96 -120Z" />
<glyph unicode="&lt;" glyph-name="less" horiz-adv-x="421" d="M358 -21L48 208V289L358 518V407L141 248L358 90V-21Z" />
<glyph unicode="=" glyph-name="equal" horiz-adv-x="549" d="M473 165H76V236H473V165ZM473 372H76V443H473V372Z" />
<glyph unicode="&gt;" glyph-name="greater" horiz-adv-x="421" d="M373 289V208L63 -21V90L280 248L63 407V518L373 289Z" />
<glyph unicode="?" glyph-name="question" horiz-adv-x="519" d="M244 177H149V335Q255 335 318 385T381 536Q381 601 338 641T218 682Q161 682 140 670L133 665L115 577H41V684Q44 687 48 692T70 711T106 735Q157 762 217 762Q333 762 402 700T472 543Q472 478
449 425T389 342Q315 279 244 279V177ZM219 115T237 98T256 54T237 9T192 -10T148 8T131 52T148 96T192 115Z" />
<glyph unicode="@" glyph-name="at" horiz-adv-x="799" d="M407 -126Q256 -126 155 -25T53 234T168 508T435 625T674 547T760 345T692 150T539 78H519Q479 78 479 107Q479 111 480 116L483 141Q483 138 472 124T435 92T379 75Q319 75 277 116T235 248T292 396T423
454T520 408L526 444H579L539 137H561Q614 137 655 193T696 346T627 500T441 558Q306 558 215 460T123 233T205 23T407 -58Q467 -58 517 -49T587 -30L607 -21L634 -78Q624 -83 606 -91T529 -112T407 -126ZM431 391Q381 391 343 352T305 254T330 170T390 144T454
173T486 231L499 334Q496 360 476 375T431 391Z" />
<glyph unicode="A" glyph-name="A" horiz-adv-x="745" d="M764 0H492V44L574 77L503 254H243L172 77L252 44V0H-10V44L72 77L318 706H421L677 77L764 44V0ZM477 322L371 603L269 322H477Z" />
<glyph unicode="B" glyph-name="B" horiz-adv-x="683" d="M398 0H51V44L142 77V629L51 662V706H344Q478 706 542 628Q578 584 578 520Q578 426 514 377Q632 334 632 203Q632 149 610 108T552 44Q482 0 398 0ZM243 75H351Q443 75 488 103T534 200T495 299T395 329H243V75ZM244
395H341Q480 395 480 519Q480 583 434 607T297 631H244V395Z" />
<glyph unicode="C" glyph-name="C" horiz-adv-x="669" d="M643 68Q538 -11 394 -11Q259 -11 160 76Q112 118 83 186T54 342T84 502T166 621Q271 716 412 716Q518 716 597 673V510H515L497 614Q477 636 414 636Q295 636 227 553T159 345T229 145T408 70Q459 70
509 85T583 115L607 130L643 68Z" />
<glyph unicode="D" glyph-name="D" horiz-adv-x="779" d="M359 0H51V44L142 77V629L51 662V706H360Q522 706 623 610T724 354T623 97T359 0ZM243 74H371Q479 74 548 147T618 352T548 557T371 632H243V74Z" />
<glyph unicode="E" glyph-name="E" horiz-adv-x="677" d="M617 0H51V44L142 77V629L51 662V706H617V544H565L532 630H243V392H473L492 450H538V253H492L473 320H243V76H532L565 162H617V0Z" />
<glyph unicode="F" glyph-name="F" horiz-adv-x="655" d="M335 0H52V54L143 87V629L52 662V706H618V544H566L533 630H244V392H474L493 450H539V253H493L474 320H244V87L335 54V0Z" />
<glyph unicode="G" glyph-name="G" horiz-adv-x="759" d="M420 716Q522 716 629 673V510H557L539 614Q485 636 422 636Q302 636 231 553T159 344T229 145T408 70Q478 70 550 103V262L451 295V339H734V295L643 262V68Q575 17 479 -2Q437 -11 383 -11T269 11T160
76T83 186T54 342T86 502T170 621Q279 716 420 716Z" />
<glyph unicode="H" glyph-name="H" horiz-adv-x="830" d="M779 0H496V44L587 77V326H243V77L334 44V0H51V44L142 77V629L51 662V706H334V662L243 629V403H587V629L496 662V706H779V662L688 629V77L779 44V0Z" />
<glyph unicode="I" glyph-name="I" horiz-adv-x="385" d="M334 0H51V44L142 77V629L51 662V706H334V662L243 629V77L334 44V0Z" />
<glyph unicode="J" glyph-name="J" horiz-adv-x="482" d="M255 229V629L164 662V706H447V662L356 629V241Q356 117 308 53T145 -11Q108 -11 75 -1T28 19L13 29L48 101Q85 67 144 67T229 104T255 229Z" />
<glyph unicode="K" glyph-name="K" horiz-adv-x="754" d="M757 0H489V48L553 74L243 340V77L334 44V0H51V44L142 77V629L51 662V706H334V662L243 629V375L512 630L444 658V706H704V658L621 624L355 367L672 82L757 48V0Z" />
<glyph unicode="L" glyph-name="L" horiz-adv-x="637" d="M617 0H51V44L142 77V629L51 662V706H334V662L243 629V76H532L565 162H617V0Z" />
<glyph unicode="M" glyph-name="M" horiz-adv-x="933" d="M914 0H620V54L711 92L671 595L519 0H415L263 595L223 92L314 54V0H20V57L126 95L186 611L81 649V706H316L460 129L467 113L474 129L618 706H851V649L747 612L808 95L914 57V0Z" />
<glyph unicode="N" glyph-name="N" horiz-adv-x="792" d="M660 0H568L243 557V77L312 44V0H51V44L142 77V629L51 662V706H256L559 184V629L490 662V706H751V662L660 629V0Z" />
<glyph unicode="O" glyph-name="O" horiz-adv-x="792" d="M535 -10T395 -10T155 89T54 350T155 613T395 715T636 614T738 351T637 90ZM163 232T225 151T395 70T565 151T627 350T565 551T395 634T225 552T163 351Z" />
<glyph unicode="P" glyph-name="P" horiz-adv-x="636" d="M334 0H51V44L142 77V629L51 662V706H363Q455 706 526 646T597 476T530 306T363 245H243V77L334 44V0ZM244 318H316Q394 318 446 357T499 476Q499 631 316 631H244V318Z" />
<glyph unicode="Q" glyph-name="Q" horiz-adv-x="793" d="M236 -2T146 95T55 353T152 614T396 715T641 615T739 350Q739 214 666 122T472 1Q520 -38 580 -63Q672 -101 722 -101L702 -173Q642 -173 586 -155T488 -108Q420 -59 376 -9Q236 -2 146 95ZM159 224T232
147T402 70T566 145T633 350T567 557T395 634T225 558T159 353Z" />
<glyph unicode="R" glyph-name="R" horiz-adv-x="705" d="M701 0H438V48L502 74L368 289H243V77L334 44V0H51V44L142 77V629L51 662V706H363Q466 706 531 654T597 496Q597 355 465 308L610 81L701 48V0ZM244 362H360Q420 362 459 394T499 497T447 599T316 631H244V362Z" />
<glyph unicode="S" glyph-name="S" horiz-adv-x="566" d="M67 190H127L155 97Q194 66 282 66Q339 66 373 96T408 171T371 257T242 332Q70 397 70 514Q70 612 132 663T284 715Q394 715 472 678Q481 674 489 669V532L430 530L407 611Q366 632 300 632Q165 632 165
546Q165 498 201 467T315 407Q503 338 503 187Q503 99 444 44T273 -11Q222 -11 172 2Q99 22 67 47V190Z" />
<glyph unicode="T" glyph-name="T" horiz-adv-x="692" d="M484 0H201V44L292 77V630H116L83 544H21V706H671V544H609L576 630H393V77L484 44V0Z" />
<glyph unicode="U" glyph-name="U" horiz-adv-x="777" d="M557 269V629L466 662V706H749V662L658 629V281Q658 146 590 68T388 -11T187 67T119 281V629L28 662V706H311V662L220 629V269Q220 175 264 122T388 69T512 121T557 269Z" />
<glyph unicode="V" glyph-name="V" horiz-adv-x="778" d="M-13 706H304V657L213 619L391 126L396 115L583 619L488 657V706H791V654L685 616L449 0H329L93 616L-13 654V706Z" />
<glyph unicode="W" glyph-name="W" horiz-adv-x="1093" d="M-8 706H297V652L206 624L364 126L496 635L414 649V706H680V652L608 638L735 126L893 624L802 652V706H1101V649L995 621L789 0H675L549 481L418 0H304L98 621L-8 649V706Z" />
<glyph unicode="X" glyph-name="X" horiz-adv-x="755" d="M746 0H451V57L525 72L361 295L211 72L303 50V0H22V57L121 92L309 368L116 634L17 656V706H332V649L245 634L386 439L530 641L464 656V706H719V649L625 621L438 366L645 79L746 57V0Z" />
<glyph unicode="Y" glyph-name="Y" horiz-adv-x="653" d="M478 0H195V44L286 77V247L71 621L-11 656V706H266V649L179 639L339 351L471 624L388 649V706H647V649L567 626L387 276V77L478 44V0Z" />
<glyph unicode="Z" glyph-name="Z" horiz-adv-x="670" d="M613 0H57V76Q447 570 492 630H159L126 523H55V706H613V630L177 76H507L540 187H613V0Z" />
<glyph unicode="[" glyph-name="bracketleft" horiz-adv-x="360" d="M325 -271H99V772H325V696H190V-195H325V-271Z" />
<glyph unicode="\" glyph-name="backslash" horiz-adv-x="443" d="M128 715L407 -279H314L35 715H128Z" />
<glyph unicode="]" glyph-name="bracketright" horiz-adv-x="360" d="M261 -271H35V-195H170V696H35V772H261V-271Z" />
<glyph unicode="^" glyph-name="asciicircum" horiz-adv-x="420" d="M370 595H281L210 714L139 595H50L161 784H259L370 595Z" />
<glyph unicode="_" glyph-name="underscore" horiz-adv-x="673" d="M539 -89H134V-12H539V-89Z" />
<glyph unicode="`" glyph-name="grave" horiz-adv-x="318" d="M167 784L268 595H179L50 784H167Z" />
<glyph unicode="a" glyph-name="a" horiz-adv-x="562" d="M542 68V8Q503 -11 456 -11T389 7T365 59Q310 -11 221 -11T85 25T39 126Q39 251 213 270L364 286V315Q364 373 340 403T264 433Q168 433 108 412L88 405L70 469Q98 485 155 498T261 512Q368 512 413 470T458
350V68H542ZM180 200T158 182T135 134T159 86T228 68Q311 68 364 113V221L218 205Q180 200 158 182Z" />
<glyph unicode="b" glyph-name="b" horiz-adv-x="587" d="M82 693H-2V753Q37 772 88 772T158 748T176 673V457Q224 512 319 512Q398 512 465 458Q499 430 519 379T540 259T517 138T455 53Q376 -10 271 -10Q222 -10 175 4T104 34L82 48V693ZM271 68Q352 68 397
115T443 250T399 385T305 434Q222 434 176 385V85L188 82Q241 68 271 68Z" />
<glyph unicode="c" glyph-name="c" horiz-adv-x="523" d="M300 -10Q189 -10 118 55T46 243Q46 311 73 364T144 449Q235 512 343 512Q376 512 408 504T456 488L472 479V361H411L397 422Q383 433 343 433Q257 433 200 381T143 250T192 120T324 68Q364 68 398 76T447
94L461 102L490 50Q487 48 482 44T458 29T420 11Q366 -10 300 -10Z" />
<glyph unicode="d" glyph-name="d" horiz-adv-x="618" d="M589 68V8Q550 -11 504 -11T437 6T412 56Q366 -10 268 -10Q189 -10 122 44Q88 72 68 123T47 243T74 364T145 449Q234 512 342 512Q374 512 411 498V693H327V753Q366 772 417 772T487 748T505 673V68H589ZM342
433Q253 433 199 385T144 248T187 112T282 63Q368 63 411 126V418Q366 433 342 433Z" />
<glyph unicode="e" glyph-name="e" horiz-adv-x="555" d="M301 -10Q188 -10 118 54T47 243T119 439T287 512Q515 512 515 242H144V237Q144 166 194 117T330 68Q367 68 400 76T448 94L462 102L491 50Q488 48 483 44T459 29T420 11Q367 -10 301 -10ZM417 368T382
400T290 433T196 402T148 306H422Q417 368 382 400Z" />
<glyph unicode="f" glyph-name="f" horiz-adv-x="403" d="M305 0H40V43L124 76V419H46V479L124 511V571Q124 670 174 721T317 773Q353 773 383 763T426 741L439 730L412 678Q384 694 329 694T247 662T220 543V500H381V419H220V76L305 43V0Z" />
<glyph unicode="g" glyph-name="g" horiz-adv-x="589" d="M503 323Q503 239 439 188T283 137Q233 137 188 154L142 71H336Q443 71 491 30T539 -90T470 -224T277 -279T89 -231T25 -110T97 -4Q55 10 55 56L59 81Q116 168 128 188Q63 240 63 323T128 459T283 512Q340
512 393 488L568 511L565 424L464 433Q503 386 503 323ZM113 -99Q113 -145 155 -172T275 -200T397 -171T443 -91Q443 -9 338 -9L160 -10Q113 -36 113 -99ZM345 212T380 245T415 324T380 404T283 438T186 405T152 325T186 245T283 212Z" />
<glyph unicode="h" glyph-name="h" horiz-adv-x="643" d="M627 0H364V43L444 76V315Q444 374 425 403T354 432Q262 432 207 377V76L292 43V0H29V43L113 76V693H29V753Q68 772 119 772T189 748T207 673V434Q228 464 281 488T382 512Q460 512 499 469T538 350V76L627 43V0Z" />
<glyph unicode="i" glyph-name="i" horiz-adv-x="332" d="M306 0H43V43L127 76V433H43V493Q82 512 133 512T203 488T221 413V76L306 43V0ZM202 604T169 604T113 627T90 683T113 739T169 762T225 739T248 683T225 627Z" />
<glyph unicode="j" glyph-name="j" horiz-adv-x="291" d="M113 -42V433H29V493Q68 512 119 512T189 488T207 413V-70Q207 -169 157 -220T16 -272Q-20 -272 -50 -261T-94 -240L-106 -229L-79 -174Q-51 -190 5 -190T87 -159T113 -42ZM188 604T155 604T99 627T76
683T99 739T155 762T211 739T234 683T211 627Z" />
<glyph unicode="k" glyph-name="k" horiz-adv-x="637" d="M635 0H395V43L447 62L209 296L394 447L323 457V500H574V457L499 438L323 296L560 62L635 43V0ZM292 0H29V43L113 76V693H29V753Q68 772 119 772T189 748T207 673V76L292 43V0Z" />
<glyph unicode="l" glyph-name="l" horiz-adv-x="320" d="M292 0H29V43L113 76V693H29V753Q68 772 119 772T189 748T207 673V76L292 43V0Z" />
<glyph unicode="m" glyph-name="m" horiz-adv-x="973" d="M957 0H694V43L774 76V315Q774 374 755 403T684 432Q604 432 547 375Q550 363 550 350V76L639 43V0H376V43L456 76V315Q456 374 437 403T366 432Q284 432 219 367V76L304 43V0H41V43L125 76V433H41V493Q80
512 130 512T198 490T219 424Q233 442 261 465Q320 512 394 512Q504 512 538 424Q611 512 712 512Q790 512 829 469T868 350V76L957 43V0Z" />
<glyph unicode="n" glyph-name="n" horiz-adv-x="655" d="M639 0H376V43L456 76V315Q456 374 437 403T366 432Q284 432 219 367V76L304 43V0H41V43L125 76V433H41V493Q80 512 130 512T198 490T219 424Q233 442 261 465Q320 512 396 512T511 469T550 350V76L639 43V0Z" />
<glyph unicode="o" glyph-name="o" horiz-adv-x="606" d="M414 -11T303 -11T119 61T46 250T119 439T303 512T487 439T560 250T487 62ZM233 68T303 68T418 116T463 247T418 381T303 433T189 381T143 247T188 117Z" />
<glyph unicode="p" glyph-name="p" horiz-adv-x="619" d="M291 -271H28V-228L113 -195V437H29V492Q68 511 114 511T181 494T205 444Q254 512 351 512Q430 512 497 458Q531 430 551 379T572 259T549 138T487 53Q408 -10 303 -10Q261 -10 207 4V-195L291 -228V-271ZM303
69Q384 69 429 117T475 251T431 385T337 434Q250 434 207 379V87Q263 69 303 69Z" />
<glyph unicode="q" glyph-name="q" horiz-adv-x="587" d="M590 -271H327V-228L411 -195V55Q364 -10 268 -10Q189 -10 122 44Q88 72 68 123T47 243T74 364T145 449Q234 512 342 512Q391 512 432 498T489 468L505 454V-195L590 -228V-271ZM342 433Q253 433 199 385T144
251T188 117T282 68Q368 68 411 126V418Q366 433 342 433Z" />
<glyph unicode="r" glyph-name="r" horiz-adv-x="477" d="M304 0H41V43L125 76V433H41V493Q80 512 129 512T197 491T218 429Q228 459 259 483Q296 512 357 512Q384 512 408 505T444 491L456 484V366H396L383 426Q377 432 350 432T298 425T259 406Q231 382 219
357V76L304 43V0Z" />
<glyph unicode="s" glyph-name="s" horiz-adv-x="478" d="M415 357H352L338 407Q312 432 258 432T175 418T145 381T167 337T212 306T294 276T390 223T428 136Q428 64 376 27T256 -11T140 6T70 40L50 57V164H110L131 102Q132 99 147 92Q194 68 241 68T313 82T338
123T310 174T217 217T107 274T62 362Q62 437 114 474T250 512Q291 512 332 502T394 482L415 472V357Z" />
<glyph unicode="t" glyph-name="t" horiz-adv-x="408" d="M187 133T213 102T292 71T379 87L399 37Q395 32 388 24T350 3T284 -11Q193 -11 143 40T93 191V421H40V480L136 576H187V500H355V421H187V219Q187 133 213 102Z" />
<glyph unicode="u" glyph-name="u" horiz-adv-x="636" d="M608 68V8Q569 -11 520 -11T452 9T430 70Q417 55 400 40T344 7T261 -11Q183 -11 144 32T105 151V433H21V493Q60 512 111 512T181 488T199 413V186Q199 127 218 98T289 69T376 88T430 129V433H346V493Q385
512 436 512T506 488T524 413V68H608Z" />
<glyph unicode="v" glyph-name="v" horiz-adv-x="684" d="M30 499H285V455L217 431L347 99L472 431L404 455V499H654V455L574 429L392 0H292L110 429L30 455V499Z" />
<glyph unicode="w" glyph-name="w" horiz-adv-x="907" d="M3 499H258V455L190 431L297 94L400 431L332 455V499H587V455L508 429L615 95L718 431L650 455V499H900V455L820 429L665 0H565L452 334L347 0H247L83 429L3 455V499Z" />
<glyph unicode="x" glyph-name="x" horiz-adv-x="620" d="M596 -2H346V42L414 66L305 206L206 66L274 42V-2H24V42L104 68L249 247L104 428L24 454V498H274V454L206 430L308 293L414 430L346 454V498H596V454L516 428L364 242L516 68L596 42V-2Z" />
<glyph unicode="y" glyph-name="y" horiz-adv-x="628" d="M-1 499H259V455L191 431L321 102L441 431L373 455V499H623V455L543 429L319 -106Q287 -182 240 -227T113 -272Q77 -272 50 -261T13 -240L4 -229L31 -174Q61 -190 113 -190Q203 -190 251 -62L274 -1L79
429L-1 455V499Z" />
<glyph unicode="z" glyph-name="z" horiz-adv-x="520" d="M472 0H47V68L353 419H132L113 361H56V498H458V419L167 82H401L420 142H472V0Z" />
<glyph unicode="{" glyph-name="braceleft" horiz-adv-x="334" d="M294 -195V-272Q214 -272 162 -232T109 -96V138Q109 171 90 188T45 205H35V277H45Q71 277 90 294T109 344V596Q109 697 167 736Q219 772 294 772V696Q192 696 192 584V325Q192 296 182 276Q166
246 144 241Q163 238 177 211T192 157V-83Q192 -195 294 -195Z" />
<glyph unicode="|" glyph-name="bar" horiz-adv-x="281" d="M182 -279H99V772H182V-279Z" />
<glyph unicode="}" glyph-name="braceright" horiz-adv-x="334" d="M225 138V-96Q225 -191 173 -231T40 -272V-195Q142 -195 142 -83V157Q142 184 152 204Q169 238 190 241Q168 246 155 271T142 325V584Q142 696 40 696V772Q115 772 167 736Q225 697 225 596V344Q225
311 244 294T289 277H299V205H289Q263 205 244 188T225 138Z" />
<glyph unicode="~" glyph-name="asciitilde" horiz-adv-x="506" d="M411 353T378 332T317 311T245 337T184 363Q153 363 114 329L102 318L65 358Q63 358 81 380T131 423T192 445T264 419T326 393Q356 393 394 427L407 438L447 396Q449 396 430 375Z" />
<glyph unicode="&#xa1;" glyph-name="exclamdown" horiz-adv-x="280" d="M173 285L199 -267H85L106 285H173ZM159 511T178 493T197 448T179 404T133 386T89 404T72 449T89 493T132 511Z" />
<glyph unicode="&#xa2;" glyph-name="cent" horiz-adv-x="525" d="M327 -90H244V-6Q159 8 107 71T54 240T108 409T244 498V606H327V512H336Q368 512 399 504T445 488L460 479L432 404Q405 433 336 433H327V68Q402 70 442 86L456 92L483 50Q461 31 416 14T327 -8V-90ZM201
391T176 348T151 247T175 145T244 81V411Q201 391 176 348Z" />
<glyph unicode="&#xa3;" glyph-name="sterling" horiz-adv-x="501" d="M232 177Q232 109 219 90Q237 90 269 81T329 71T379 80T412 100L420 109L456 45Q450 39 439 30T393 5T328 -11T249 4T172 19Q115 19 68 5L52 0V43Q55 44 61 45T81 57T107 82Q136 120 136 190V419H58V479L136
511V571Q136 670 186 721T329 773Q365 773 395 763T438 741L451 730L424 678Q396 694 341 694T259 662T232 543V500H393V419H232V177Z" />
<glyph unicode="&#xa4;" glyph-name="currency" horiz-adv-x="585" d="M400 142Q353 112 294 112T186 144L120 78L60 138L126 204Q95 252 95 309T124 416L59 481L122 544L186 479Q235 512 293 512T402 480L465 543L525 483L463 420Q495 370 495 312T461 201L525
138L465 78L400 142ZM340 202T372 234T405 311T373 389T295 422T217 390T185 312T217 234T294 202Z" />
<glyph unicode="&#xa5;" glyph-name="yen" horiz-adv-x="726" d="M522 0H239V44L330 77V161H191V232H330V247L281 332H156V403H240L115 621L33 656V706H310V649L223 639L383 351L515 624L432 649V706H691V649L611 626L496 403H585V332H460L431 276V232H559V161H431V77L522
44V0Z" />
<glyph unicode="&#xa6;" glyph-name="brokenbar" horiz-adv-x="285" d="M184 -279H101V180H184V-279ZM184 369H101V772H184V369Z" />
<glyph unicode="&#xa7;" glyph-name="section" horiz-adv-x="565" d="M502 187Q502 116 463 66Q502 14 502 -55Q502 -143 443 -198T272 -253Q221 -253 171 -240Q98 -220 66 -195V-52H126L154 -145Q193 -176 281 -176Q338 -176 372 -146T407 -71T370 15T240 90Q69
155 69 272Q69 354 116 406Q69 453 69 514Q69 612 131 663T283 715Q393 715 472 678Q480 674 488 669V532L429 530L406 611Q365 632 300 632Q164 632 164 546Q164 498 200 467T314 407Q502 338 502 187ZM164 304Q164 256 200 225T300 170T397 125Q407 145 407 165Q407
217 370 257T228 337Q204 346 184 356Q164 336 164 304Z" />
<glyph unicode="&#xa8;" glyph-name="dieresis" horiz-adv-x="437" d="M171 662T171 637T154 595T110 577T67 594T50 637T67 680T110 698T153 680ZM387 662T387 637T370 595T326 577T283 594T266 637T283 680T326 698T369 680Z" />
<glyph unicode="&#xa9;" glyph-name="copyright" horiz-adv-x="762" d="M705 479T705 348T609 121T381 24T154 120T57 348T153 575T381 672T608 576ZM273 88T381 88T565 164T641 348T565 532T381 608T197 532T121 348T197 164ZM385 171Q314 171 262 217T210 348T265
484T394 534Q413 534 425 531L444 526Q451 524 457 521T469 516T479 511T492 503V436H446L437 471Q427 482 395 482Q340 482 309 444T278 350T310 260T392 226Q438 226 471 246L482 252L510 210Q491 195 456 183T385 171Z" />
<glyph unicode="&#xaa;" glyph-name="ordfeminine" horiz-adv-x="394" d="M332 481V438Q311 428 286 428Q238 428 235 466Q206 428 157 428T84 447T59 503Q59 576 159 587L234 596V607Q234 633 222 646T183 660Q133 660 102 648L91 644L81 692Q124 715 183 715Q296
715 296 626V481H332ZM162 544Q127 539 127 513T165 486T234 508V553L162 544Z" />
<glyph unicode="&#xab;" glyph-name="guillemotleft" horiz-adv-x="608" d="M282 -21L47 208V289L282 518V407L128 248L282 90V-21ZM545 -21L310 208V289L545 518V407L391 248L545 90V-21Z" />
<glyph unicode="&#xac;" glyph-name="logicalnot" horiz-adv-x="548" d="M466 217H395V380H69V451H466V217Z" />
<glyph unicode="&#xad;" glyph-name="uni00AD" horiz-adv-x="336" d="M263 235H73V298H263V235Z" />
<glyph unicode="&#xae;" glyph-name="registered" horiz-adv-x="762" d="M705 479T705 348T609 121T381 24T154 120T57 348T153 575T381 672T608 576ZM273 88T381 88T565 164T641 348T565 532T381 608T197 532T121 348T197 164ZM553 176H412V210L444 223L377 321H334V225L370
208V176H228V208L274 225V481L228 497V529H384Q435 529 468 503T501 424Q501 353 435 330L508 227L553 210V176ZM335 372H383Q408 372 425 385T442 425T419 463T361 476H335V372Z" />
<glyph unicode="&#xb0;" glyph-name="degree" horiz-adv-x="363" d="M307 639T307 587T270 499T181 462T93 498T57 587T93 676T181 713T270 676ZM258 555T258 587T236 641T182 664T128 642T106 587T128 533T181 511T235 533Z" />
<glyph unicode="&#xb1;" glyph-name="plusminus" horiz-adv-x="551" d="M474 355H311V192H240V355H77V426H240V589H311V426H474V355ZM474 62H77V133H474V62Z" />
<glyph unicode="&#xb2;" glyph-name="twosuperior" horiz-adv-x="423" d="M348 320H77V375Q96 384 135 413T198 466T243 521T263 581T246 626T203 644Q159 644 144 630L139 626L128 577H76V657Q79 663 87 672T125 697T195 713Q265 713 306 677T347 580Q347 547
326 510T274 445Q212 388 179 372H282L300 423H348V320Z" />
<glyph unicode="&#xb3;" glyph-name="threesuperior" horiz-adv-x="422" d="M68 454H120L131 405Q142 387 206 387Q240 387 261 401T282 440Q282 490 161 490V540Q210 540 234 554T259 602Q259 622 245 634T205 647T163 643T138 629L127 580H73V660Q77 666 85
675T127 700T215 716T306 685T343 602Q343 578 329 559Q310 533 288 525Q338 513 358 474Q366 458 366 440Q366 385 323 352T205 318Q159 318 125 332T80 360L68 373V454Z" />
<glyph unicode="&#xb4;" glyph-name="acute" horiz-adv-x="318" d="M139 595H50L151 784H268L139 595Z" />
<glyph unicode="&#xb5;" glyph-name="mu" horiz-adv-x="573" d="M514 0H420V70Q407 55 390 40T334 7T255 -11T189 -2V-273H95V500H189V186Q189 127 208 98T279 69Q367 69 420 119V500H514V0Z" />
<glyph unicode="&#xb6;" glyph-name="paragraph" horiz-adv-x="787" d="M319 318H366V631H319Q136 631 136 476Q136 396 188 357T319 318ZM654 0H553V631H468V0H367V245H272Q172 245 105 305T38 475T109 645T272 706H745V672L654 639V0Z" />
<glyph unicode="&#xb7;" glyph-name="middot" horiz-adv-x="262" d="M156 328T131 328T89 345T72 387T89 429T131 446T173 429T190 387T173 345Z" />
<glyph unicode="&#xb8;" glyph-name="cedilla" horiz-adv-x="272" d="M71 -111Q94 -136 133 -136T172 -102Q172 -64 100 -64L126 4H173L157 -34Q184 -35 203 -53T222 -105T197 -160T139 -180Q84 -180 58 -154L50 -146L71 -111Z" />
<glyph unicode="&#xb9;" glyph-name="onesuperior" horiz-adv-x="406" d="M352 320H90V370L178 388V616L98 561L54 616L181 708H264V388L352 370V320Z" />
<glyph unicode="&#xba;" glyph-name="ordmasculine" horiz-adv-x="412" d="M272 715T314 676T357 572T314 468T206 428T98 467T55 571T97 675T206 715ZM169 478T206 478T266 503T289 570T266 638T206 665T147 639T123 570T146 503Z" />
<glyph unicode="&#xbb;" glyph-name="guillemotright" horiz-adv-x="608" d="M561 289V208L326 -21V90L480 248L326 407V518L561 289ZM298 289V208L63 -21V90L217 248L63 407V518L298 289Z" />
<glyph unicode="&#xbc;" glyph-name="onequarter" horiz-adv-x="856" d="M303 -11H210L587 715H680L303 -11ZM337 320H75V370L163 388V616L83 561L39 616L166 708H249V388L337 370V320ZM820 -1H558V49L646 67V123H485V185L650 387H732V185H797V123H732V67L820
49V-1ZM646 185V281L568 185H646Z" />
<glyph unicode="&#xbd;" glyph-name="onehalf" horiz-adv-x="866" d="M301 -11H208L585 715H678L301 -11ZM335 320H73V370L161 388V616L81 561L37 616L164 708H247V388L335 370V320ZM817 0H546V57Q564 66 603 95T667 147T712 201T732 261T715 306T672 324Q628
324 613 310L608 306L597 257H545V337Q548 343 556 352T594 377T664 393Q734 393 775 357T816 260Q816 227 795 190T742 125Q681 68 648 52H751L769 103H817V0Z" />
<glyph unicode="&#xbe;" glyph-name="threequarters" horiz-adv-x="869" d="M833 -1H571V49L659 67V123H498V185L663 387H745V185H810V123H745V67L833 49V-1ZM316 -11H223L600 715H693L316 -11ZM52 454H104L115 405Q126 387 190 387Q224 387 245 401T266 440Q266
490 145 490V540Q194 540 218 554T243 602Q243 622 229 634T189 647T147 643T122 629L111 580H57V660Q61 666 69 675T111 700T199 716T290 685T327 602Q327 578 313 559Q294 533 272 525Q322 513 342 474Q350 458 350 440Q350 385 307 352T189 318Q143 318 109
332T64 360L52 373V454ZM659 185V281L581 185H659Z" />
<glyph unicode="&#xbf;" glyph-name="questiondown" horiz-adv-x="501" d="M466 -80V-182Q463 -185 459 -190T437 -209T401 -233Q350 -260 290 -260Q174 -260 105 -198T35 -41Q35 24 58 77T118 160Q192 223 263 223V325H358V167Q252 167 189 117T126 -34Q126 -99
169 -139T289 -180Q348 -180 367 -168L374 -163L392 -80H466ZM376 424T359 406T315 387T270 404T251 448T270 493T315 512T359 494T376 450Z" />
<glyph unicode="&#xc0;" glyph-name="Agrave" horiz-adv-x="745" d="M764 0H492V44L574 77L503 254H243L172 77L252 44V0H-10V44L72 77L318 706H421L677 77L764 44V0ZM477 322L371 603L269 322H477ZM328 990L429 801H340L211 990H328Z" />
<glyph unicode="&#xc1;" glyph-name="Aacute" horiz-adv-x="745" d="M764 0H492V44L574 77L503 254H243L172 77L252 44V0H-10V44L72 77L318 706H421L677 77L764 44V0ZM477 322L371 603L269 322H477ZM417 801H328L429 990H546L417 801Z" />
<glyph unicode="&#xc2;" glyph-name="Acircumflex" horiz-adv-x="745" d="M764 0H492V44L574 77L503 254H243L172 77L252 44V0H-10V44L72 77L318 706H421L677 77L764 44V0ZM477 322L371 603L269 322H477ZM531 801H442L371 920L300 801H211L322 990H420L531 801Z" />
<glyph unicode="&#xc3;" glyph-name="Atilde" horiz-adv-x="745" d="M764 0H492V44L574 77L503 254H243L172 77L252 44V0H-10V44L72 77L318 706H421L677 77L764 44V0ZM477 322L371 603L269 322H477ZM518 844T485 823T424 802T352 828T290 854Q258 854 222 820L209
809L172 849Q170 849 188 870T238 914T299 936T371 910T432 884Q465 884 502 918L514 929L554 887Q556 887 537 866Z" />
<glyph unicode="&#xc4;" glyph-name="Adieresis" horiz-adv-x="745" d="M764 0H492V44L574 77L503 254H243L172 77L252 44V0H-10V44L72 77L318 706H421L677 77L764 44V0ZM477 322L371 603L269 322H477ZM327 868T327 843T310 801T266 783T223 800T206 843T223 886T266
904T309 886ZM543 868T543 843T526 801T482 783T439 800T422 843T439 886T482 904T525 886Z" />
<glyph unicode="&#xc5;" glyph-name="Aring" horiz-adv-x="745" d="M764 0H492V44L574 77L503 254H243L172 77L252 44V0H-10V44L72 77L318 706H421L677 77L764 44V0ZM477 322L371 603L269 322H477ZM413 775T375 775T312 800T286 864T311 927T375 953T438 928T464
864T439 801ZM414 847T414 864T403 892T375 903T347 892T336 864T346 836T374 825T403 836Z" />
<glyph unicode="&#xc6;" glyph-name="AE" horiz-adv-x="1025" d="M965 0H399V44L490 77V254H262L155 77L235 44V0H-22V44L60 77L434 706H965V544H913L880 630H591V392H821L840 450H886V253H840L821 320H591V76H880L913 162H965V0ZM490 322V629L304 322H490Z" />
<glyph unicode="&#xc7;" glyph-name="Ccedilla" horiz-adv-x="669" d="M412 716Q518 716 597 673V510H515L497 614Q477 636 414 636Q295 636 227 553T159 345T229 145T408 70Q459 70 509 85T583 115L607 130L643 68Q639 65 633 60T603 41T552 18Q486 -9 399 -11L390
-34Q417 -35 436 -53T455 -105T430 -160T372 -180Q317 -180 292 -154L283 -146L304 -111Q327 -136 366 -136T405 -102Q405 -64 333 -64L354 -9Q227 5 141 95T54 339Q54 429 84 502T166 621Q271 716 412 716Z" />
<glyph unicode="&#xc8;" glyph-name="Egrave" horiz-adv-x="677" d="M617 0H51V44L142 77V629L51 662V706H617V544H565L532 630H243V392H473L492 450H538V253H492L473 320H243V76H532L565 162H617V0ZM370 990L471 801H382L253 990H370Z" />
<glyph unicode="&#xc9;" glyph-name="Eacute" horiz-adv-x="677" d="M617 0H51V44L142 77V629L51 662V706H617V544H565L532 630H243V392H473L492 450H538V253H492L473 320H243V76H532L565 162H617V0ZM375 801H286L387 990H504L375 801Z" />
<glyph unicode="&#xca;" glyph-name="Ecircumflex" horiz-adv-x="677" d="M617 0H51V44L142 77V629L51 662V706H617V544H565L532 630H243V392H473L492 450H538V253H492L473 320H243V76H532L565 162H617V0ZM495 801H406L335 920L264 801H175L286 990H384L495 801Z" />
<glyph unicode="&#xcb;" glyph-name="Edieresis" horiz-adv-x="677" d="M617 0H51V44L142 77V629L51 662V706H617V544H565L532 630H243V392H473L492 450H538V253H492L473 320H243V76H532L565 162H617V0ZM300 868T300 843T283 801T240 783T197 800T179 843T196
886T239 904T282 886ZM516 868T516 843T499 801T456 783T413 800T395 843T412 886T455 904T498 886Z" />
<glyph unicode="&#xcc;" glyph-name="Igrave" horiz-adv-x="385" d="M334 0H51V44L142 77V629L51 662V706H334V662L243 629V77L334 44V0ZM138 990L239 801H150L21 990H138Z" />
<glyph unicode="&#xcd;" glyph-name="Iacute" horiz-adv-x="385" d="M334 0H51V44L142 77V629L51 662V706H334V662L243 629V77L334 44V0ZM224 801H135L236 990H353L224 801Z" />
<glyph unicode="&#xce;" glyph-name="Icircumflex" horiz-adv-x="385" d="M334 0H51V44L142 77V629L51 662V706H334V662L243 629V77L334 44V0ZM344 801H255L184 920L113 801H24L135 990H233L344 801Z" />
<glyph unicode="&#xcf;" glyph-name="Idieresis" horiz-adv-x="385" d="M334 0H51V44L142 77V629L51 662V706H334V662L243 629V77L334 44V0ZM141 868T141 843T124 801T80 783T37 800T20 843T37 886T80 904T123 886ZM357 868T357 843T340 801T296 783T253 800T236
843T253 886T296 904T339 886Z" />
<glyph unicode="&#xd0;" glyph-name="Eth" horiz-adv-x="779" d="M359 0H51V44L142 77V629L51 662V706H360Q522 706 623 610T724 354T623 97T359 0ZM243 74H371Q479 74 548 147T618 352T548 557T371 632H243V375H406V312H243V74Z" />
<glyph unicode="&#xd1;" glyph-name="Ntilde" horiz-adv-x="792" d="M660 0H568L243 557V77L312 44V0H51V44L142 77V629L51 662V706H256L559 184V629L490 662V706H751V662L660 629V0ZM563 844T530 823T469 802T397 828T336 854Q303 854 266 820L254 809L217 849Q215
849 233 870T283 914T344 936T416 910T478 884Q510 884 546 918L559 929L599 887Q601 887 582 866Z" />
<glyph unicode="&#xd2;" glyph-name="Ograve" horiz-adv-x="792" d="M535 -10T395 -10T155 89T54 350T155 613T395 715T636 614T738 351T637 90ZM163 232T225 151T395 70T565 151T627 350T565 551T395 634T225 552T163 351ZM415 990L516 801H427L298 990H415Z" />
<glyph unicode="&#xd3;" glyph-name="Oacute" horiz-adv-x="792" d="M535 -10T395 -10T155 89T54 350T155 613T395 715T636 614T738 351T637 90ZM163 232T225 151T395 70T565 151T627 350T565 551T395 634T225 552T163 351ZM420 801H331L432 990H549L420 801Z" />
<glyph unicode="&#xd4;" glyph-name="Ocircumflex" horiz-adv-x="792" d="M535 -10T395 -10T155 89T54 350T155 613T395 715T636 614T738 351T637 90ZM163 232T225 151T395 70T565 151T627 350T565 551T395 634T225 552T163 351ZM539 801H450L379 920L308 801H219L330
990H428L539 801Z" />
<glyph unicode="&#xd5;" glyph-name="Otilde" horiz-adv-x="792" d="M535 -10T395 -10T155 89T54 350T155 613T395 715T636 614T738 351T637 90ZM163 232T225 151T395 70T565 151T627 350T565 551T395 634T225 552T163 351ZM547 844T514 823T453 802T381 828T320
854Q287 854 250 820L238 809L201 849Q199 849 217 870T267 914T328 936T400 910T462 884Q494 884 530 918L543 929L583 887Q585 887 566 866Z" />
<glyph unicode="&#xd6;" glyph-name="Odieresis" horiz-adv-x="792" d="M535 -10T395 -10T155 89T54 350T155 613T395 715T636 614T738 351T637 90ZM163 232T225 151T395 70T565 151T627 350T565 551T395 634T225 552T163 351ZM345 868T345 843T328 801T284 783T241
800T224 843T241 886T284 904T327 886ZM561 868T561 843T544 801T500 783T457 800T440 843T457 886T500 904T543 886Z" />
<glyph unicode="&#xd7;" glyph-name="multiply" horiz-adv-x="469" d="M350 182L234 297L119 182L69 232L184 347L69 463L119 513L234 398L350 513L400 463L285 347L400 232L350 182Z" />
<glyph unicode="&#xd8;" glyph-name="Oslash" horiz-adv-x="792" d="M175 70Q54 173 54 342T155 613T395 715Q465 715 537 683L556 715H649L605 641Q667 592 702 517T738 350Q738 189 637 90T395 -10Q313 -10 242 26L220 -11H127L175 70ZM396 70Q506 70 569 151T632
356T559 562L284 98Q334 70 396 70ZM394 634Q283 634 221 552T158 349T222 150L494 611Q446 634 394 634Z" />
<glyph unicode="&#xd9;" glyph-name="Ugrave" horiz-adv-x="777" d="M557 269V629L466 662V706H749V662L658 629V281Q658 146 590 68T388 -11T187 67T119 281V629L28 662V706H311V662L220 629V269Q220 175 264 122T388 69T512 121T557 269ZM416 990L517 801H428L299
990H416Z" />
<glyph unicode="&#xda;" glyph-name="Uacute" horiz-adv-x="777" d="M557 269V629L466 662V706H749V662L658 629V281Q658 146 590 68T388 -11T187 67T119 281V629L28 662V706H311V662L220 629V269Q220 175 264 122T388 69T512 121T557 269ZM421 801H332L433 990H550L421
801Z" />
<glyph unicode="&#xdb;" glyph-name="Ucircumflex" horiz-adv-x="777" d="M557 269V629L466 662V706H749V662L658 629V281Q658 146 590 68T388 -11T187 67T119 281V629L28 662V706H311V662L220 629V269Q220 175 264 122T388 69T512 121T557 269ZM540 801H451L380
920L309 801H220L331 990H429L540 801Z" />
<glyph unicode="&#xdc;" glyph-name="Udieresis" horiz-adv-x="777" d="M557 269V629L466 662V706H749V662L658 629V281Q658 146 590 68T388 -11T187 67T119 281V629L28 662V706H311V662L220 629V269Q220 175 264 122T388 69T512 121T557 269ZM346 868T346 843T329
801T286 783T243 800T225 843T242 886T285 904T328 886ZM562 868T562 843T545 801T502 783T459 800T441 843T458 886T501 904T544 886Z" />
<glyph unicode="&#xdd;" glyph-name="Yacute" horiz-adv-x="653" d="M478 0H195V44L286 77V247L71 621L-11 656V706H266V649L179 639L339 351L471 624L388 649V706H647V649L567 626L387 276V77L478 44V0ZM335 801H246L347 990H464L335 801Z" />
<glyph unicode="&#xde;" glyph-name="Thorn" horiz-adv-x="588" d="M311 0H48V43L133 76V698H49V758Q88 777 139 777T209 753T227 678V500H335Q390 500 436 484T517 426T551 319Q551 233 483 187T322 140H227V76L311 43V0ZM227 208H322Q384 208 419 236T454 319T418
403T321 432H227V208Z" />
<glyph unicode="&#xdf;" glyph-name="germandbls" horiz-adv-x="672" d="M291 -147H26V-104L110 -71V419H32V479L110 511V541Q110 653 167 713T320 773T476 723T537 603Q537 520 492 472Q473 451 454 434Q410 393 410 358Q410 315 494 277Q529 261 564 243T623
198T648 136Q648 64 593 27T454 -11Q413 -11 378 6T329 40L315 57V154H375L396 82Q424 68 466 68Q558 68 558 133Q558 169 476 203Q442 217 409 233T351 275T327 340T339 406T369 451T404 484Q446 525 446 603Q446 644 415 670T327 696T239 657T206 513V-71L291
-104V-147Z" />
<glyph unicode="&#xe0;" glyph-name="agrave" horiz-adv-x="562" d="M542 68V8Q503 -11 456 -11T389 7T365 59Q310 -11 221 -11T85 25T39 126Q39 251 213 270L364 286V315Q364 373 340 403T264 433Q168 433 108 412L88 405L70 469Q98 485 155 498T261 512Q368
512 413 470T458 350V68H542ZM180 200T158 182T135 134T159 86T228 68Q311 68 364 113V221L218 205Q180 200 158 182ZM242 784L343 595H254L125 784H242Z" />
<glyph unicode="&#xe1;" glyph-name="aacute" horiz-adv-x="562" d="M542 68V8Q503 -11 456 -11T389 7T365 59Q310 -11 221 -11T85 25T39 126Q39 251 213 270L364 286V315Q364 373 340 403T264 433Q168 433 108 412L88 405L70 469Q98 485 155 498T261 512Q368
512 413 470T458 350V68H542ZM180 200T158 182T135 134T159 86T228 68Q311 68 364 113V221L218 205Q180 200 158 182ZM302 595H213L314 784H431L302 595Z" />
<glyph unicode="&#xe2;" glyph-name="acircumflex" horiz-adv-x="562" d="M542 68V8Q503 -11 456 -11T389 7T365 59Q310 -11 221 -11T85 25T39 126Q39 251 213 270L364 286V315Q364 373 340 403T264 433Q168 433 108 412L88 405L70 469Q98 485 155 498T261 512Q368
512 413 470T458 350V68H542ZM180 200T158 182T135 134T159 86T228 68Q311 68 364 113V221L218 205Q180 200 158 182ZM425 595H336L265 714L194 595H105L216 784H314L425 595Z" />
<glyph unicode="&#xe3;" glyph-name="atilde" horiz-adv-x="562" d="M542 68V8Q503 -11 456 -11T389 7T365 59Q310 -11 221 -11T85 25T39 126Q39 251 213 270L364 286V315Q364 373 340 403T264 433Q168 433 108 412L88 405L70 469Q98 485 155 498T261 512Q368
512 413 470T458 350V68H542ZM180 200T158 182T135 134T159 86T228 68Q311 68 364 113V221L218 205Q180 200 158 182ZM445 638T412 617T351 596T279 622T218 648Q185 648 148 614L136 603L99 643Q97 643 115 664T165 708T226 730T298 704T360 678Q392 678 428 712L441
723L481 681Q483 681 464 660Z" />
<glyph unicode="&#xe4;" glyph-name="adieresis" horiz-adv-x="562" d="M542 68V8Q503 -11 456 -11T389 7T365 59Q310 -11 221 -11T85 25T39 126Q39 251 213 270L364 286V315Q364 373 340 403T264 433Q168 433 108 412L88 405L70 469Q98 485 155 498T261 512Q368
512 413 470T458 350V68H542ZM180 200T158 182T135 134T159 86T228 68Q311 68 364 113V221L218 205Q180 200 158 182ZM242 662T242 637T225 595T182 577T139 594T121 637T138 680T181 698T224 680ZM458 662T458 637T441 595T398 577T355 594T337 637T354 680T397
698T440 680Z" />
<glyph unicode="&#xe5;" glyph-name="aring" horiz-adv-x="562" d="M542 68V8Q503 -11 456 -11T389 7T365 59Q310 -11 221 -11T85 25T39 126Q39 251 213 270L364 286V315Q364 373 340 403T264 433Q168 433 108 412L88 405L70 469Q98 485 155 498T261 512Q368 512
413 470T458 350V68H542ZM180 200T158 182T135 134T159 86T228 68Q311 68 364 113V221L218 205Q180 200 158 182ZM316 569T278 569T215 594T189 658T214 721T278 747T341 722T367 658T342 595ZM317 641T317 658T306 686T278 697T250 686T239 658T249 630T277 619T306
630Z" />
<glyph unicode="&#xe6;" glyph-name="ae" horiz-adv-x="874" d="M620 -10Q475 -10 409 87Q399 70 379 51T314 10T214 -11Q131 -11 85 25T39 126Q39 251 213 270L364 286V315Q364 373 340 403T264 433Q168 433 108 412L88 405L70 469Q98 485 155 498T261 512Q395
512 437 439Q507 512 606 512Q834 512 834 242H463V237Q463 166 513 117T649 68Q686 68 719 76T766 94L781 102L810 50Q807 48 802 44T778 29T740 11Q686 -10 620 -10ZM180 200T158 182T135 134T159 86T228 68Q311 68 364 113V221L218 205Q180 200 158 182ZM736
368T701 400T609 433T515 402T467 306H741Q736 368 701 400Z" />
<glyph unicode="&#xe7;" glyph-name="ccedilla" horiz-adv-x="523" d="M221 -111Q244 -136 283 -136T322 -102Q322 -64 250 -64L271 -8Q171 0 109 64T46 243Q46 311 73 364T144 449Q235 512 343 512Q376 512 408 504T456 488L472 479V361H411L397 422Q383 433
343 433Q257 433 200 381T143 250T192 120T324 68Q364 68 398 76T447 94L461 102L490 50Q466 30 416 12T317 -9L307 -34Q334 -35 353 -53T372 -105T347 -160T289 -180Q234 -180 208 -154L200 -146L221 -111Z" />
<glyph unicode="&#xe8;" glyph-name="egrave" horiz-adv-x="555" d="M301 -10Q188 -10 118 54T47 243T119 439T287 512Q515 512 515 242H144V237Q144 166 194 117T330 68Q367 68 400 76T448 94L462 102L491 50Q488 48 483 44T459 29T420 11Q367 -10 301 -10ZM417
368T382 400T290 433T196 402T148 306H422Q417 368 382 400ZM239 784L340 595H251L122 784H239Z" />
<glyph unicode="&#xe9;" glyph-name="eacute" horiz-adv-x="555" d="M301 -10Q188 -10 118 54T47 243T119 439T287 512Q515 512 515 242H144V237Q144 166 194 117T330 68Q367 68 400 76T448 94L462 102L491 50Q488 48 483 44T459 29T420 11Q367 -10 301 -10ZM417
368T382 400T290 433T196 402T148 306H422Q417 368 382 400ZM325 595H236L337 784H454L325 595Z" />
<glyph unicode="&#xea;" glyph-name="ecircumflex" horiz-adv-x="555" d="M301 -10Q188 -10 118 54T47 243T119 439T287 512Q515 512 515 242H144V237Q144 166 194 117T330 68Q367 68 400 76T448 94L462 102L491 50Q488 48 483 44T459 29T420 11Q367 -10 301 -10ZM417
368T382 400T290 433T196 402T148 306H422Q417 368 382 400ZM451 595H362L291 714L220 595H131L242 784H340L451 595Z" />
<glyph unicode="&#xeb;" glyph-name="edieresis" horiz-adv-x="555" d="M301 -10Q188 -10 118 54T47 243T119 439T287 512Q515 512 515 242H144V237Q144 166 194 117T330 68Q367 68 400 76T448 94L462 102L491 50Q488 48 483 44T459 29T420 11Q367 -10 301 -10ZM417
368T382 400T290 433T196 402T148 306H422Q417 368 382 400ZM231 662T231 637T214 595T170 577T127 594T110 637T127 680T170 698T213 680ZM447 662T447 637T430 595T386 577T343 594T326 637T343 680T386 698T429 680Z" />
<glyph unicode="&#xec;" glyph-name="igrave" horiz-adv-x="332" d="M306 0H43V43L127 76V433H43V493Q82 512 133 512T203 488T221 413V76L306 43V0ZM121 784L222 595H133L4 784H121Z" />
<glyph unicode="&#xed;" glyph-name="iacute" horiz-adv-x="332" d="M306 0H43V43L127 76V433H43V493Q82 512 133 512T203 488T221 413V76L306 43V0ZM210 595H121L222 784H339L210 595Z" />
<glyph unicode="&#xee;" glyph-name="icircumflex" horiz-adv-x="332" d="M306 0H43V43L127 76V433H43V493Q82 512 133 512T203 488T221 413V76L306 43V0ZM323 595H234L163 714L92 595H3L114 784H212L323 595Z" />
<glyph unicode="&#xef;" glyph-name="idieresis" horiz-adv-x="332" d="M306 0H43V43L127 76V433H43V493Q82 512 133 512T203 488T221 413V76L306 43V0ZM112 662T112 637T95 595T52 577T9 594T-9 637T8 680T51 698T94 680ZM328 662T328 637T311 595T268 577T225
594T207 637T224 680T267 698T310 680Z" />
<glyph unicode="&#xf0;" glyph-name="eth" horiz-adv-x="622" d="M503 608Q568 510 568 335T498 74T304 -11T115 51T50 218T118 385T290 446Q325 446 359 436T411 415T448 390L467 376Q463 492 427 556L308 476L272 532L382 607Q346 633 299 633T219 623T176 602L165
592L145 518H69V621Q99 668 161 691T287 715Q392 715 458 658L534 710L570 654L503 608ZM228 365T187 326T145 219T186 110T297 70T412 126T464 281Q463 282 453 293T429 314T397 338Q355 365 292 365Z" />
<glyph unicode="&#xf1;" glyph-name="ntilde" horiz-adv-x="655" d="M639 0H376V43L456 76V315Q456 374 437 403T366 432Q284 432 219 367V76L304 43V0H41V43L125 76V433H41V493Q80 512 130 512T198 490T219 424Q233 442 261 465Q320 512 396 512T511 469T550
350V76L639 43V0ZM489 638T456 617T395 596T323 622T262 648Q229 648 192 614L180 603L143 643Q141 643 159 664T209 708T270 730T342 704T404 678Q436 678 472 712L485 723L525 681Q527 681 508 660Z" />
<glyph unicode="&#xf2;" glyph-name="ograve" horiz-adv-x="606" d="M414 -11T303 -11T119 61T46 250T119 439T303 512T487 439T560 250T487 62ZM233 68T303 68T418 116T463 247T418 381T303 433T189 381T143 247T188 117ZM263 784L364 595H275L146 784H263Z" />
<glyph unicode="&#xf3;" glyph-name="oacute" horiz-adv-x="606" d="M414 -11T303 -11T119 61T46 250T119 439T303 512T487 439T560 250T487 62ZM233 68T303 68T418 116T463 247T418 381T303 433T189 381T143 247T188 117ZM319 595H230L331 784H448L319 595Z" />
<glyph unicode="&#xf4;" glyph-name="ocircumflex" horiz-adv-x="606" d="M414 -11T303 -11T119 61T46 250T119 439T303 512T487 439T560 250T487 62ZM233 68T303 68T418 116T463 247T418 381T303 433T189 381T143 247T188 117ZM469 595H380L309 714L238 595H149L260
784H358L469 595Z" />
<glyph unicode="&#xf5;" glyph-name="otilde" horiz-adv-x="606" d="M414 -11T303 -11T119 61T46 250T119 439T303 512T487 439T560 250T487 62ZM233 68T303 68T418 116T463 247T418 381T303 433T189 381T143 247T188 117ZM462 638T429 617T368 596T296 622T234
648Q202 648 166 614L153 603L116 643Q114 643 132 664T182 708T243 730T315 704T376 678Q409 678 446 712L458 723L498 681Q500 681 481 660Z" />
<glyph unicode="&#xf6;" glyph-name="odieresis" horiz-adv-x="606" d="M414 -11T303 -11T119 61T46 250T119 439T303 512T487 439T560 250T487 62ZM233 68T303 68T418 116T463 247T418 381T303 433T189 381T143 247T188 117ZM260 662T260 637T243 595T199 577T156
594T139 637T156 680T199 698T242 680ZM476 662T476 637T459 595T415 577T372 594T355 637T372 680T415 698T458 680Z" />
<glyph unicode="&#xf7;" glyph-name="divide" horiz-adv-x="539" d="M468 234H71V305H468V234ZM290 -11T265 -11T223 6T206 48T223 90T265 107T307 90T324 48T307 6ZM290 394T265 394T223 411T206 453T223 495T265 512T307 495T324 453T307 411Z" />
<glyph unicode="&#xf8;" glyph-name="oslash" horiz-adv-x="606" d="M303 -11Q250 -11 199 8L188 -11H95L131 50Q46 124 46 245T119 439T303 512Q351 512 396 496L406 512H499L466 457Q560 382 560 250Q560 134 487 62T303 -11ZM303 68Q373 68 418 116T463 245T419
378L241 79Q271 68 303 68ZM234 433T189 381T143 253T178 128L354 424Q330 433 303 433Q234 433 189 381Z" />
<glyph unicode="&#xf9;" glyph-name="ugrave" horiz-adv-x="636" d="M608 68V8Q569 -11 520 -11T452 9T430 70Q417 55 400 40T344 7T261 -11Q183 -11 144 32T105 151V433H21V493Q60 512 111 512T181 488T199 413V186Q199 127 218 98T289 69T376 88T430 129V433H346V493Q385
512 436 512T506 488T524 413V68H608ZM234 784L335 595H246L117 784H234Z" />
<glyph unicode="&#xfa;" glyph-name="uacute" horiz-adv-x="636" d="M608 68V8Q569 -11 520 -11T452 9T430 70Q417 55 400 40T344 7T261 -11Q183 -11 144 32T105 151V433H21V493Q60 512 111 512T181 488T199 413V186Q199 127 218 98T289 69T376 88T430 129V433H346V493Q385
512 436 512T506 488T524 413V68H608ZM311 595H222L323 784H440L311 595Z" />
<glyph unicode="&#xfb;" glyph-name="ucircumflex" horiz-adv-x="636" d="M608 68V8Q569 -11 520 -11T452 9T430 70Q417 55 400 40T344 7T261 -11Q183 -11 144 32T105 151V433H21V493Q60 512 111 512T181 488T199 413V186Q199 127 218 98T289 69T376 88T430 129V433H346V493Q385
512 436 512T506 488T524 413V68H608ZM439 595H350L279 714L208 595H119L230 784H328L439 595Z" />
<glyph unicode="&#xfc;" glyph-name="udieresis" horiz-adv-x="636" d="M608 68V8Q569 -11 520 -11T452 9T430 70Q417 55 400 40T344 7T261 -11Q183 -11 144 32T105 151V433H21V493Q60 512 111 512T181 488T199 413V186Q199 127 218 98T289 69T376 88T430 129V433H346V493Q385
512 436 512T506 488T524 413V68H608ZM233 662T233 637T216 595T172 577T129 594T112 637T129 680T172 698T215 680ZM449 662T449 637T432 595T388 577T345 594T328 637T345 680T388 698T431 680Z" />
<glyph unicode="&#xfd;" glyph-name="yacute" horiz-adv-x="628" d="M-1 499H259V455L191 431L321 102L441 431L373 455V499H623V455L543 429L319 -106Q287 -182 240 -227T113 -272Q77 -272 50 -261T13 -240L4 -229L31 -174Q61 -190 113 -190Q203 -190 251 -62L274
-1L79 429L-1 455V499ZM342 595H253L354 784H471L342 595Z" />
<glyph unicode="&#xfe;" glyph-name="thorn" horiz-adv-x="591" d="M264 -271H1V-228L86 -195V698H2V758Q41 777 92 777T162 753T180 678V447Q228 512 323 512Q402 512 469 458Q503 430 523 379T544 259T521 138T459 53Q380 -10 275 -10Q227 -10 180 4V-195L264
-228V-271ZM275 58Q356 58 401 108T447 260Q447 332 403 378T309 424Q226 424 180 375V75L192 72Q245 58 275 58Z" />
<glyph unicode="&#xff;" glyph-name="ydieresis" horiz-adv-x="628" d="M-1 499H259V455L191 431L321 102L441 431L373 455V499H623V455L543 429L319 -106Q287 -182 240 -227T113 -272Q77 -272 50 -261T13 -240L4 -229L31 -174Q61 -190 113 -190Q203 -190 251
-62L274 -1L79 429L-1 455V499ZM266 662T266 637T249 595T205 577T162 594T145 637T162 680T205 698T248 680ZM482 662T482 637T465 595T421 577T378 594T361 637T378 680T421 698T464 680Z" />
<glyph unicode="&#x2013;" glyph-name="endash" horiz-adv-x="667" d="M594 235H73V298H594V235Z" />
<glyph unicode="&#x2014;" glyph-name="emdash" horiz-adv-x="988" d="M915 235H73V298H915V235Z" />
<glyph unicode="&#x2018;" glyph-name="quoteleft" horiz-adv-x="207" d="M100 774H105Q130 774 147 757T164 715T147 673T100 656T53 682T36 750Q36 819 67 851T146 883V835Q128 835 114 822T100 782V774Z" />
<glyph unicode="&#x2019;" glyph-name="quoteright" horiz-adv-x="248" d="M79 548V596Q97 596 111 609T125 649V657H120Q95 657 78 674T61 716T78 758T125 775T172 749T189 681Q189 612 158 580T79 548Z" />
<glyph unicode="&#x201a;" glyph-name="quotesinglbase" horiz-adv-x="267" d="M89 -120V-72Q107 -72 121 -59T135 -19V-11H130Q105 -11 88 6T71 48T88 90T135 107T182 81T199 13Q199 -56 168 -88T89 -120Z" />
<glyph unicode="&#x201c;" glyph-name="quotedblleft" horiz-adv-x="372" d="M100 774H105Q130 774 147 757T164 715T147 673T100 656T53 682T36 750Q36 819 67 851T146 883V835Q128 835 114 822T100 782V774ZM265 774H270Q295 774 312 757T329 715T312 673T265
656T218 682T201 750Q201 819 232 851T311 883V835Q293 835 279 822T265 782V774Z" />
<glyph unicode="&#x201d;" glyph-name="quotedblright" horiz-adv-x="422" d="M79 548V596Q97 596 111 609T125 649V657H120Q95 657 78 674T61 716T78 758T125 775T172 749T189 681Q189 612 158 580T79 548ZM253 548V596Q271 596 285 609T299 649V657H294Q269
657 252 674T235 716T252 758T299 775T346 749T363 681Q363 612 332 580T253 548Z" />
<glyph unicode="&#x201e;" glyph-name="quotedblbase" horiz-adv-x="441" d="M89 -120V-72Q107 -72 121 -59T135 -19V-11H130Q105 -11 88 6T71 48T88 90T135 107T182 81T199 13Q199 -56 168 -88T89 -120ZM263 -120V-72Q281 -72 295 -59T309 -19V-11H304Q279 -11
262 6T245 48T262 90T309 107T356 81T373 13Q373 -56 342 -88T263 -120Z" />
<glyph unicode="&#x2022;" glyph-name="bullet" horiz-adv-x="398" d="M246 234T199 234T119 267T85 348T118 428T199 462T279 429T313 348T280 268Z" />
<glyph unicode="&#x2039;" glyph-name="guilsinglleft" horiz-adv-x="345" d="M282 -21L47 208V289L282 518V407L128 248L282 90V-21Z" />
<glyph unicode="&#x203a;" glyph-name="guilsinglright" horiz-adv-x="345" d="M298 289V208L63 -21V90L217 248L63 407V518L298 289Z" />
</font>
</defs>
</svg>
