<?xml version="1.0" standalone="no"?>
<!DOCTYPE svg PUBLIC "-//W3C//DTD SVG 1.1//EN" "http://www.w3.org/Graphics/SVG/1.1/DTD/svg11.dtd">
<svg xmlns="http://www.w3.org/2000/svg">
<defs >
<font id="Yrsa" horiz-adv-x="1368" ><font-face
    font-family="Yrsa Medium"
    units-per-em="2750"
    panose-1="2 13 0 0 0 4 0 0 0 0"
    ascent="2300"
    descent="-1050"
    alphabetic="0" />
<glyph unicode=" " glyph-name="space" horiz-adv-x="568" />
<glyph unicode="!" glyph-name="exclam" horiz-adv-x="675" d="M190 1532V1712H485V1532L416 478H259L190 1532ZM497 130Q497 64 454 23T338 -19Q266 -19 222 22T178 130Q178 197 222 238T338 279Q410 279 453 238T497 130Z" />
<glyph unicode="&quot;" glyph-name="quotedbl" horiz-adv-x="1070" d="M728 907L683 1707H935L889 907H728ZM181 907L136 1707H388L342 907H181Z" />
<glyph unicode="#" glyph-name="numbersign" horiz-adv-x="1467" d="M546 500H863L904 891H584L546 500ZM288 0L326 357H111L110 500H344L384 891H144V1033H402L434 1373H636L604 1033H924L957 1373H1159L1125 1033H1361V891H1107L1070 500H1317V357H1053L1018
0H816L850 357H528L492 0H288Z" />
<glyph unicode="$" glyph-name="dollar" horiz-adv-x="1188" d="M643 -210H480V22Q366 33 270 64T113 126Q109 214 115 307T134 482H294L329 284Q333 266 341 252T364 224Q395 194 455 168T599 142Q709 142 771 195T833 329Q833 425 746 481T514 604Q442 637 373
673T251 756T166 862T133 1001Q133 1071 160 1133T240 1242T372 1321T557 1360V1587H720V1358Q801 1351 879 1333T1016 1290Q1023 1204 1018 1118T1000 954L845 953L807 1128Q803 1146 796 1161T769 1191Q742 1213 696 1227T589 1241Q484 1241 433 1194T381 1077Q381
1029 404 994T470 928T572 870T706 808Q792 768 864 727T988 640T1069 536T1098 407Q1098 340 1071 274T989 155T847 65T643 19V-210Z" />
<glyph unicode="%" glyph-name="percent" horiz-adv-x="1981" d="M867 1153Q867 1043 833 959T743 819T614 734T463 705Q373 705 301 735T180 820T105 952T78 1120Q78 1230 112 1314T202 1454T331 1539T482 1568Q572 1568 644 1538T765 1453T840 1321T867 1153ZM610
0H416L1372 1562H1566L610 0ZM297 1151Q297 998 346 912T482 826Q560 826 602 902T644 1121Q644 1272 596 1359T460 1447Q381 1447 339 1371T297 1151ZM1904 442Q1904 332 1870 248T1780 107T1651 22T1500 -7Q1410 -7 1338 23T1217 108T1142 240T1115 408Q1115
518 1149 602T1239 743T1368 827T1519 856Q1609 856 1681 826T1802 741T1877 610T1904 442ZM1334 439Q1334 287 1383 201T1519 114Q1597 114 1639 190T1681 410Q1681 560 1633 647T1497 735Q1418 735 1376 659T1334 439Z" />
<glyph unicode="&amp;" glyph-name="ampersand" horiz-adv-x="1628" d="M490 1251Q490 1185 519 1106T642 898Q733 972 785 1064T838 1263Q838 1361 798 1424T676 1487Q586 1487 538 1419T490 1251ZM662 101Q727 101 796 119T927 178Q869 232 807 298T687 432T577
563T486 677Q431 629 389 566T347 404Q347 271 429 186T662 101ZM1300 -17Q1232 -17 1166 8T1018 99Q934 33 823 3T600 -28Q496 -28 405 -5T246 67T140 190T101 369Q101 459 129 526T203 640T304 720T415 772Q334 887 288 989T241 1195Q241 1278 271 1350T358 1474T497
1556T681 1586Q859 1586 963 1496T1067 1248Q1067 1101 972 992T703 817Q747 762 798 700T904 577T1014 455T1120 344Q1168 413 1185 495T1203 649Q1203 670 1196 688T1161 712L1006 745V864H1532V745L1430 713Q1404 706 1397 692T1386 651Q1369 544 1327 447T1199
267Q1243 226 1278 202T1349 164T1427 146T1527 142V26Q1479 10 1418 -3T1300 -17Z" />
<glyph unicode="&apos;" glyph-name="quotesingle" horiz-adv-x="523" d="M181 907L136 1707H388L342 907H181Z" />
<glyph unicode="(" glyph-name="parenleft" horiz-adv-x="725" d="M683 -369L593 -459Q561 -430 480 -340T316 -96T167 281T102 797Q102 1062 164 1276T307 1647T471 1902T593 2035L683 1944Q644 1888 588 1792T481 1559T392 1239T353 829Q350 575 389 374T482
25T593 -220T683 -369Z" />
<glyph unicode=")" glyph-name="parenright" horiz-adv-x="725" d="M624 779Q624 514 562 300T419 -71T255 -326T133 -459L42 -368Q82 -312 138 -216T245 17T333 337T373 747Q376 1001 337 1202T244 1551T133 1796T42 1944L133 2035Q165 2006 246 1916T410 1672T559
1295T624 779Z" />
<glyph unicode="*" glyph-name="asterisk" horiz-adv-x="1210" d="M694 1042L718 818H492L516 1041L569 1244L421 1097L239 964L126 1159L332 1250L534 1305L332 1361L126 1452L239 1647L421 1514L569 1367L516 1570L492 1793H718L694 1569L641 1367L790 1514L971
1647L1084 1452L878 1361L677 1306L878 1250L1084 1159L971 964L790 1097L641 1244L694 1042Z" />
<glyph unicode="+" glyph-name="plus" horiz-adv-x="1126" d="M656 146H470V370L477 533L315 527H102V701H315L477 694L470 857V1081H656V857L650 694L812 701H1024V527H812L650 533L656 370V146Z" />
<glyph unicode="," glyph-name="comma" horiz-adv-x="613" d="M481 74Q481 -6 455 -80T385 -219T281 -336T155 -426L99 -355Q178 -285 224 -206T271 -58Q271 -18 255 -5T214 24Q185 43 160 77T134 165Q134 232 178 277T291 322Q370 322 425 259T481 74Z" />
<glyph unicode="-" glyph-name="hyphen" horiz-adv-x="1060" d="M151 507V685H910V507H151Z" />
<glyph unicode="." glyph-name="period" horiz-adv-x="595" d="M463 138Q463 68 418 25T298 -19Q223 -19 178 24T132 138Q132 209 177 252T298 295Q372 295 417 252T463 138Z" />
<glyph unicode="/" glyph-name="slash" horiz-adv-x="990" d="M286 -288H68L707 1742H924L286 -288Z" />
<glyph unicode="0" glyph-name="zero" horiz-adv-x="1345" d="M657 -25Q507 -25 406 30T243 181T156 404T129 676Q129 859 169 996T282 1224T459 1359T689 1404Q838 1404 939 1349T1102 1200T1190 977T1216 705Q1216 520 1176 382T1063 154T887 20T657 -25ZM664
1274Q532 1274 477 1140T421 730Q421 434 476 271T681 107Q812 107 868 242T924 651Q924 948 869 1111T664 1274Z" />
<glyph unicode="1" glyph-name="one" horiz-adv-x="960" d="M666 1381V206Q666 180 679 166T718 148L920 115V0H118V115L350 148Q376 152 392 166T408 206V1132Q386 1125 352 1117T278 1101T200 1087T131 1079L107 1202Q162 1215 221 1237T335 1286T440 1344T527
1407L666 1381Z" />
<glyph unicode="2" glyph-name="two" horiz-adv-x="1217" d="M1062 0H136L82 149Q268 314 396 434T601 645T712 810T746 957Q746 1073 675 1134T507 1195Q420 1195 349 1148T221 1012L132 1086Q153 1148 194 1205T294 1307T431 1377T604 1404Q695 1404 774 1377T910
1298T1001 1172T1034 1004Q1034 901 991 806T860 614T639 411T326 180H582Q655 180 716 184T811 195Q848 202 863 215T888 251L964 432L1101 415Q1101 318 1091 207T1062 0Z" />
<glyph unicode="3" glyph-name="three" horiz-adv-x="1170" d="M1059 399Q1059 305 1017 226T903 91T734 4T527 -28Q377 -28 263 24T80 143L149 240Q213 197 294 169T471 140Q530 140 583 154T677 199T741 279T767 397Q769 509 704 578T530 660Q495 651 454 642T379
628L345 753Q419 769 484 795T598 857T675 942T704 1052Q704 1126 652 1176T511 1227Q424 1227 349 1183T223 1085L142 1163Q202 1265 318 1334T594 1404Q672 1404 743 1384T867 1324T951 1225T983 1090Q983 1024 956 966T886 863T788 785T679 736Q742 737 809
718T932 658T1023 552T1059 399Z" />
<glyph unicode="4" glyph-name="four" horiz-adv-x="1233" d="M1169 257H952V0H702V257H101L34 388Q180 624 318 875T583 1390H823L859 1332Q763 1154 682 1010T529 752T388 550T247 393L706 413L731 736L952 748V424L1169 433V257Z" />
<glyph unicode="5" glyph-name="five" horiz-adv-x="1181" d="M157 256Q218 207 298 174T470 140Q606 140 693 219T780 441Q780 566 709 644T507 722Q450 722 392 705T275 657L181 721L226 1377H1000L976 1177H390L352 808Q415 856 487 873T628 890Q832 890 951
775T1071 467Q1071 356 1031 264T919 108T748 8T531 -28Q386 -28 269 24T85 156L157 256Z" />
<glyph unicode="6" glyph-name="six" horiz-adv-x="1271" d="M1167 466Q1167 360 1131 270T1029 113T867 10T653 -28Q532 -28 433 14T264 136T157 335T119 607Q119 782 167 929T303 1182T515 1345T788 1404Q873 1404 952 1385T1092 1328L1051 1209Q998 1230 949
1239T856 1249Q672 1249 555 1119T411 769Q467 829 559 861T751 894Q847 894 924 862T1055 774T1138 638T1167 466ZM668 105Q778 105 838 193T898 421Q898 567 831 649T650 732Q593 732 523 714T404 658Q404 655 404 652T404 644V567Q404 463 421 377T471 231T554
138T668 105Z" />
<glyph unicode="7" glyph-name="seven" horiz-adv-x="1140" d="M916 1200H619Q544 1200 482 1195T381 1181Q353 1175 337 1164T312 1125L239 903L98 901Q91 1022 99 1146T124 1377H1031L1097 1231Q913 994 787 695T632 0H388L347 49Q362 212 412 374T539 684T712
964T916 1200Z" />
<glyph unicode="8" glyph-name="eight" horiz-adv-x="1284" d="M632 -28Q519 -28 423 -3T258 68T150 183T111 339Q111 464 189 560T401 700Q312 756 248 837T183 1037Q183 1119 217 1187T313 1303T462 1377T655 1404Q754 1404 837 1381T980 1315T1073 1213T1107
1081Q1107 971 1033 883T847 751Q912 718 971 681T1074 599T1144 495T1171 363Q1171 273 1132 201T1022 78T851 0T632 -28ZM427 1098Q427 1047 450 1007T513 933T607 870T724 811Q800 860 834 925T868 1059Q868 1165 805 1222T640 1280Q539 1280 483 1229T427 1098ZM649
100Q765 100 830 159T895 309Q895 367 869 410T798 487T695 549T572 609Q559 616 545 622T516 636Q438 587 400 516T361 363Q361 297 384 248T447 166T539 117T649 100Z" />
<glyph unicode="9" glyph-name="nine" horiz-adv-x="1270" d="M622 645Q679 645 747 664T865 717V807Q865 904 848 989T798 1137T715 1236T598 1272Q542 1272 499 1248T428 1181T385 1080T370 954Q370 811 437 728T622 645ZM518 -28Q417 -28 324 0T170 79L219
193Q264 168 327 149T466 129Q623 129 731 252T860 609Q806 553 715 518T523 483Q424 483 346 515T214 603T131 738T102 909Q102 1015 138 1106T240 1263T401 1366T616 1404Q737 1404 836 1363T1004 1240T1112 1037T1150 756Q1150 574 1104 428T974 182T774 27T518
-28Z" />
<glyph unicode=":" glyph-name="colon" horiz-adv-x="643" d="M487 977Q487 907 442 864T321 820Q247 820 202 863T156 977Q156 1047 201 1090T321 1134Q396 1134 441 1091T487 977ZM487 138Q487 68 442 25T321 -19Q247 -19 202 24T156 138Q156 209 201 252T321
295Q396 295 441 252T487 138Z" />
<glyph unicode=";" glyph-name="semicolon" horiz-adv-x="676" d="M502 979Q502 909 457 866T336 822Q262 822 217 865T171 979Q171 1049 216 1092T336 1136Q411 1136 456 1093T502 979ZM518 74Q518 -6 492 -80T422 -219T318 -336T192 -426L136 -355Q215 -285
261 -206T308 -58Q308 -18 292 -5T251 24Q222 43 197 77T171 165Q171 232 215 277T328 322Q407 322 462 259T518 74Z" />
<glyph unicode="&lt;" glyph-name="less" horiz-adv-x="1139" d="M932 117L89 541V686L932 1110L1011 939L312 616L1011 290L932 117Z" />
<glyph unicode="=" glyph-name="equal" horiz-adv-x="1231" d="M1072 732H150V909H1072V732ZM1072 319H150V495H1072V319Z" />
<glyph unicode="&gt;" glyph-name="greater" horiz-adv-x="1139" d="M208 117L129 290L828 614L129 939L208 1110L1051 686V541L208 117Z" />
<glyph unicode="?" glyph-name="question" horiz-adv-x="1100" d="M549 478H401Q380 531 358 598T336 723Q336 810 387 865T520 994Q637 1102 693 1183T749 1370Q749 1473 694 1542T538 1611Q480 1611 433 1589T361 1541Q341 1519 333 1497T321 1441L298 1229H140Q113
1313 97 1410T76 1601Q149 1661 265 1706T515 1751Q633 1751 728 1715T889 1617T992 1474T1028 1302Q1028 1226 1003 1163T935 1044T833 939T709 839Q668 807 643 786T603 745T581 701T569 640L549 478ZM643 130Q643 64 599 23T483 -19Q411 -19 368 22T324 130Q324
197 367 238T483 279Q555 279 599 238T643 130Z" />
<glyph unicode="@" glyph-name="at" horiz-adv-x="2122" d="M923 -520Q730 -520 578 -457T321 -278T160 -1T103 359Q101 622 192 842T437 1220T797 1464T1230 1552Q1398 1552 1541 1503T1788 1357T1951 1119T2010 792Q2010 586 1942 431T1779 173T1581 19T1409
-33Q1331 -33 1292 29T1253 190Q1253 232 1260 295T1281 442Q1248 351 1204 263T1105 106T987 -4T851 -46Q791 -46 737 -16T642 70T577 205T553 382Q553 501 590 623T698 843T870 1003T1099 1065Q1156 1065 1219 1049T1351 995L1403 1061L1557 1012Q1546 959 1528
866T1493 668T1462 459T1449 278Q1449 197 1464 168T1511 138Q1551 138 1609 177T1719 291T1809 479T1847 737Q1847 919 1786 1046T1628 1253T1407 1368T1158 1404Q976 1404 816 1335T539 1139T353 829T285 422Q285 223 338 73T484 -175T701 -323T968 -372Q1024
-372 1086 -365T1206 -345T1312 -315T1392 -277L1437 -372Q1356 -438 1218 -479T923 -520ZM908 162Q950 162 996 199T1087 300T1173 452T1246 641Q1261 687 1272 730T1293 811Q1244 860 1180 886T1063 913Q992 913 938 874T847 770T793 624T774 456Q774 402 782
349T806 254T847 188T908 162Z" />
<glyph unicode="A" glyph-name="A" horiz-adv-x="1567" d="M968 609L722 1341L488 609H968ZM537 116V0H-5V116L123 147Q145 152 159 164T180 198L649 1567H911L1395 198Q1402 176 1416 165T1452 147L1570 116V0H926V116L1121 151L1014 470H444L342 151L537 116Z" />
<glyph unicode="B" glyph-name="B" horiz-adv-x="1533" d="M786 -12Q740 -12 701 -10T624 -6T542 -2T446 0H103V116L267 146Q286 150 298 164T311 199V1357Q311 1377 299 1391T268 1410L103 1443V1562H447Q541 1562 621 1569T796 1576Q945 1576 1046 1553T1210
1483T1299 1368T1326 1210Q1326 1064 1252 965T1046 832Q1218 825 1325 729T1433 460Q1433 360 1402 274T1296 124T1096 25T786 -12ZM786 873Q919 873 986 950T1054 1181Q1054 1324 986 1391T757 1459Q711 1459 660 1455T584 1448V875Q643 874 699 874T786 873ZM776
109Q967 109 1049 194T1132 441Q1132 604 1054 672T815 740Q774 740 710 739T584 737V125Q621 119 675 114T776 109Z" />
<glyph unicode="C" glyph-name="C" horiz-adv-x="1445" d="M828 -31Q648 -31 513 22T290 175T159 421T115 751Q115 961 169 1119T321 1381T561 1537T874 1589Q978 1589 1101 1570T1328 1511Q1333 1420 1328 1316T1307 1105H1145L1094 1342Q1089 1363 1078 1381T1043
1415Q1012 1434 954 1448T831 1463Q643 1463 534 1304T424 789Q424 631 447 502T520 284T648 145T836 96Q896 96 955 112T1053 157Q1070 170 1081 186T1101 230L1171 445L1330 430Q1334 345 1329 247T1308 52Q1214 16 1084 -7T828 -31Z" />
<glyph unicode="D" glyph-name="D" horiz-adv-x="1677" d="M445 1562Q544 1562 630 1569T807 1576Q1191 1576 1376 1389T1562 829Q1562 621 1508 461T1353 194T1107 34T781 -16Q747 -15 705 -13T618 -7T530 -2T449 0H103V116L263 146Q286 150 298 165T311 202V1357Q311
1377 299 1391T268 1410L103 1443V1562H445ZM586 131Q623 121 685 117T796 113Q1018 118 1141 271T1265 785Q1265 1118 1144 1285T766 1452Q706 1452 659 1445T586 1437V131Z" />
<glyph unicode="E" glyph-name="E" horiz-adv-x="1420" d="M1244 1164H1110L1062 1352Q1055 1376 1041 1390T1004 1413Q973 1424 921 1430T809 1436H586V869L1054 885V715L586 727V136H861Q921 136 979 141T1068 159Q1091 168 1103 182T1124 220L1202 448L1335
427Q1334 323 1324 216T1295 0H103V116L261 145Q286 150 298 165T311 206V1351Q311 1376 299 1391T261 1412L103 1443V1562H1243Q1253 1465 1253 1367T1244 1164Z" />
<glyph unicode="F" glyph-name="F" horiz-adv-x="1312" d="M1054 692L586 704V202Q586 181 599 166T634 148L889 116V0H103V116L263 146Q286 150 298 165T311 204V1351Q311 1376 299 1391T261 1412L103 1443V1562H1243Q1253 1465 1253 1367T1244 1164H1110L1062
1352Q1055 1376 1041 1390T1004 1413Q973 1424 921 1430T809 1436H586V846L1054 863V692Z" />
<glyph unicode="G" glyph-name="G" horiz-adv-x="1594" d="M1341 -12L1189 125Q1117 54 1014 13T777 -28Q615 -28 491 28T283 188T157 438T114 764Q114 971 169 1126T325 1384T572 1538T897 1589Q1025 1589 1150 1565T1377 1492Q1382 1401 1376 1308T1356 1120H1191L1142
1331Q1135 1362 1124 1378T1091 1409Q1056 1432 998 1448T867 1464Q668 1464 549 1298T430 777Q430 634 453 515T526 311T660 180T862 133Q940 133 1010 153T1134 218V645L887 666V797H1513V666L1399 647V17L1341 -12Z" />
<glyph unicode="H" glyph-name="H" horiz-adv-x="1846" d="M1743 1562V1443L1584 1412Q1560 1407 1547 1391T1534 1350V206Q1534 181 1547 166T1585 146L1743 116V0H1081V116L1210 145Q1234 151 1247 166T1260 206V725H586V206Q586 181 598 166T636 145L776 116V0H103V116L261
146Q286 151 298 166T311 206V1350Q311 1375 299 1391T262 1412L103 1443V1562H775V1443L635 1412Q610 1407 598 1392T586 1350V871H1260V1350Q1260 1375 1248 1390T1211 1412L1081 1443V1562H1743Z" />
<glyph unicode="I" glyph-name="I" horiz-adv-x="897" d="M795 1562V1443L636 1412Q611 1407 599 1392T586 1351V206Q586 181 598 166T636 146L795 116V0H103V116L261 145Q286 150 298 165T311 206V1351Q311 1376 299 1391T261 1412L103 1443V1562H795Z" />
<glyph unicode="J" glyph-name="J" horiz-adv-x="841" d="M613 1412Q588 1406 576 1391T563 1351V400Q563 226 544 103T469 -109T309 -265T37 -394L-19 -276Q77 -214 137 -157T231 -29T276 134T288 358V1351Q288 1376 276 1391T238 1412L80 1443V1562H752V1443L613 1412Z" />
<glyph unicode="K" glyph-name="K" horiz-adv-x="1617" d="M802 116V0H103V116L259 146Q284 151 297 165T311 205V1351Q311 1376 298 1391T260 1412L103 1443V1562H794V1443L635 1412Q611 1407 598 1392T585 1351V722L1173 1409L993 1443V1562H1560V1443L1412
1412Q1392 1407 1377 1400T1347 1377L959 945Q1012 883 1059 809T1167 630L1409 217Q1428 185 1446 168T1499 142L1605 116V0H1246Q1209 0 1168 57T1074 213L916 513Q876 589 845 645T782 747L585 524V203Q585 178 599 164T638 145L802 116Z" />
<glyph unicode="L" glyph-name="L" horiz-adv-x="1383" d="M1098 222L1189 511L1328 492Q1327 379 1319 250T1286 0H103V116L261 145Q286 149 298 164T311 205V1352Q311 1377 299 1392T261 1412L103 1443V1562H844V1443L637 1410Q612 1406 599 1391T586 1350V137H834Q901
137 955 143T1041 161Q1063 170 1077 184T1098 222Z" />
<glyph unicode="M" glyph-name="M" horiz-adv-x="2220" d="M635 116V0H55V116L207 147Q231 151 244 165T260 205L398 1348Q401 1374 389 1391T351 1412L174 1443V1562H777L1119 432L1421 1562H2027V1443L1845 1412Q1819 1407 1808 1390T1800 1347L1977 203Q1981
180 1994 166T2031 147L2180 116V0H1523V116L1708 148L1526 1349L1180 62H971L562 1348L424 148L635 116Z" />
<glyph unicode="N" glyph-name="N" horiz-adv-x="1789" d="M709 116V0H103V116L261 145Q286 149 298 164T311 205V1351Q311 1376 299 1391T261 1412L103 1443V1562H590L1341 394V1351Q1341 1376 1328 1391T1291 1412L1122 1443V1562H1700V1443L1557 1412Q1532
1406 1520 1391T1507 1351V0H1269L478 1234V206Q478 181 490 165T528 145L709 116Z" />
<glyph unicode="O" glyph-name="O" horiz-adv-x="1601" d="M774 -29Q608 -29 484 26T278 182T156 428T115 754Q115 953 164 1109T304 1372T529 1534T827 1590Q993 1590 1117 1536T1323 1380T1446 1134T1487 808Q1487 610 1438 454T1298 191T1073 28T774 -29ZM804
1459Q619 1459 519 1293T418 776Q418 437 512 270T796 103Q980 103 1081 270T1182 789Q1182 1128 1088 1293T804 1459Z" />
<glyph unicode="P" glyph-name="P" horiz-adv-x="1429" d="M757 707Q822 707 880 727T982 795T1052 923T1078 1122Q1078 1300 998 1377T756 1455Q693 1455 655 1449T586 1442V715Q628 712 666 710T757 707ZM879 116V0H103V116L263 146Q285 150 298 165T311 201V1355Q311
1374 299 1390T268 1410L103 1443V1562H452Q494 1562 531 1564T607 1568T694 1573T803 1575Q963 1575 1071 1545T1243 1458T1335 1317T1362 1127Q1362 999 1319 898T1198 728T1009 621T760 584Q717 584 673 586T586 590V202Q586 181 599 166T634 148L879 116Z"
/>
<glyph unicode="Q" glyph-name="Q" horiz-adv-x="1601" d="M1375 -418Q1266 -418 1188 -372T1044 -264T913 -135T763 -29Q600 -27 478 29T275 186T155 432T115 754Q115 952 164 1108T304 1370T529 1533T827 1590Q993 1590 1117 1535T1323 1379T1446 1132T1487
808Q1487 492 1360 284T1010 6Q1064 -14 1111 -41T1207 -100Q1283 -152 1357 -187T1521 -222Q1549 -222 1575 -220T1622 -214L1649 -317Q1615 -350 1540 -384T1375 -418ZM803 1459Q618 1459 517 1295T416 776Q416 434 511 269T796 103Q981 103 1082 269T1184 789Q1184
1131 1089 1295T803 1459Z" />
<glyph unicode="R" glyph-name="R" horiz-adv-x="1590" d="M585 1443V803Q614 801 647 800T712 799T769 799T810 799Q927 800 1002 883T1078 1145Q1078 1299 1007 1377T755 1455Q704 1455 658 1451T585 1443ZM802 116V0H103V116L259 146Q284 151 297 165T311 205V1352Q311
1377 298 1392T260 1412L103 1443V1562H445Q532 1562 610 1569T790 1576Q1102 1576 1236 1476T1370 1160Q1370 1046 1338 968T1257 841T1148 764T1032 722Q1097 685 1144 629T1235 484L1371 211Q1389 175 1406 162T1455 141L1560 116V0H1212Q1166 0 1129 63T1044
229L944 458Q911 530 879 587T814 679Q751 679 692 679T585 680V203Q585 178 599 164T638 145L802 116Z" />
<glyph unicode="S" glyph-name="S" horiz-adv-x="1295" d="M1191 425Q1191 341 1159 259T1060 112T885 7T630 -33Q473 -33 343 6T127 93Q123 193 129 300T150 501H310L348 258Q351 239 359 221T386 186Q422 150 490 120T644 90Q774 90 844 156T914 335Q914 404
888 455T816 546T706 620T566 690Q491 727 416 767T282 862T186 989T148 1163Q148 1255 182 1333T282 1468T448 1557T679 1590Q792 1590 906 1567T1104 1507Q1111 1408 1106 1311T1087 1123H932L891 1335Q887 1357 878 1375T849 1410Q818 1435 764 1452T649 1470Q533
1470 471 1412T408 1252Q408 1188 432 1141T501 1056T613 983T764 906Q846 866 923 821T1060 719T1155 591T1191 425Z" />
<glyph unicode="T" glyph-name="T" horiz-adv-x="1546" d="M1197 0H350V116L584 152Q609 156 622 171T636 211V1436H529Q472 1436 423 1430T347 1414Q325 1406 313 1393T295 1357L223 1053H82Q70 1190 71 1310T86 1562H1463Q1476 1431 1476 1309T1463 1053H1322L1249
1358Q1244 1380 1232 1393T1199 1414Q1171 1425 1125 1430T1018 1436H911V211Q911 186 924 171T963 152L1197 116V0Z" />
<glyph unicode="U" glyph-name="U" horiz-adv-x="1704" d="M1043 1562H1611V1443L1493 1414Q1469 1408 1457 1392T1445 1351V577Q1445 418 1404 304T1287 117T1100 12T851 -22Q545 -22 400 129T254 596V1352Q254 1377 242 1392T206 1414L96 1443V1562H757V1443L587
1410Q562 1406 550 1390T537 1349V571Q537 325 629 214T896 102Q1096 102 1180 224T1264 562V1351Q1264 1376 1252 1391T1214 1411L1043 1443V1562Z" />
<glyph unicode="V" glyph-name="V" horiz-adv-x="1566" d="M921 -5H673L164 1361Q156 1383 142 1394T106 1412L-13 1443V1562H640V1443L439 1404L849 251L1218 1404L1016 1443V1562H1562V1443L1436 1412Q1414 1406 1400 1394T1379 1361L921 -5Z" />
<glyph unicode="W" glyph-name="W" horiz-adv-x="2268" d="M1433 -9L1138 994L854 -9H601L174 1359Q167 1380 154 1393T118 1412L-6 1443V1562H638V1443L447 1404L777 254L1061 1239L1020 1359Q1013 1380 1000 1392T965 1412L867 1443V1562H1492V1443L1289 1404L1609
262L1924 1404L1733 1443V1562H2264V1443L2136 1412Q2114 1406 2100 1395T2079 1358L1687 -9H1433Z" />
<glyph unicode="X" glyph-name="X" horiz-adv-x="1520" d="M585 116V0H22V116L163 145Q184 149 197 158T224 187L624 758L226 1368Q215 1385 201 1395T167 1412L53 1443V1562H707V1443L525 1407L812 944L1115 1407L937 1443V1562H1459V1443L1332 1412Q1312 1407
1297 1397T1270 1370L895 835L1324 187Q1335 170 1350 160T1385 145L1501 116V0H844V116L1022 150L710 646L386 150L585 116Z" />
<glyph unicode="Y" glyph-name="Y" horiz-adv-x="1483" d="M1135 0H367V116L559 152Q584 157 597 171T610 211V603L173 1367Q163 1386 148 1396T113 1412L-13 1443V1562H648V1443L473 1404L810 784L1123 1406L940 1443V1562H1469V1443L1348 1414Q1327 1410 1312
1400T1287 1370L891 602V211Q891 186 904 172T943 152L1135 116V0Z" />
<glyph unicode="Z" glyph-name="Z" horiz-adv-x="1387" d="M1236 0H122L61 103L940 1436H659Q592 1436 538 1431T452 1414Q429 1406 415 1392T394 1353L317 1094H164Q160 1207 167 1330T192 1564H1226L1274 1462L410 137H771Q839 137 893 142T978 160Q1000 168
1014 182T1036 221L1125 496L1273 477Q1274 427 1272 365T1265 240T1253 115T1236 0Z" />
<glyph unicode="[" glyph-name="bracketleft" horiz-adv-x="808" d="M757 -380Q698 -388 632 -394T499 -403T368 -408T251 -409L214 -373V1948L251 1984Q304 1985 368 1984T498 1979T631 1969T757 1955V1841L504 1817Q477 1814 463 1800T448 1758V-183Q448 -210
462 -224T504 -242L757 -266V-380Z" />
<glyph unicode="\" glyph-name="backslash" horiz-adv-x="990" d="M920 -288H703L64 1742H282L920 -288Z" />
<glyph unicode="]" glyph-name="bracketright" horiz-adv-x="808" d="M594 -373L557 -409Q504 -410 440 -409T310 -404T177 -394T51 -380V-266L304 -242Q331 -239 345 -225T360 -183V1758Q360 1785 346 1799T304 1817L51 1841V1955Q110 1963 176 1969T309 1978T440
1983T557 1984L594 1948V-373Z" />
<glyph unicode="^" glyph-name="asciicircum" horiz-adv-x="1251" d="M1042 781L612 1296L198 781L94 861L505 1528L718 1544L1159 861L1042 781Z" />
<glyph unicode="_" glyph-name="underscore" horiz-adv-x="1751" d="M0 -250H1751V-388H0V-250Z" />
<glyph unicode="`" glyph-name="grave" horiz-adv-x="1000" d="M348 1778L711 1346L633 1257Q567 1297 501 1345T376 1442T268 1540T185 1633L348 1778Z" />
<glyph unicode="a" glyph-name="a" horiz-adv-x="1221" d="M514 138Q577 138 640 160T749 219V479L585 466Q472 458 418 412T363 283Q363 213 399 176T514 138ZM963 -18Q886 -18 835 16T761 122Q700 56 609 17T411 -23Q269 -23 178 50T87 254Q87 339 126 398T227
495T369 552T528 578L749 594V722Q749 866 689 923T510 980Q417 980 334 950T182 854L120 912Q163 1031 288 1097T586 1163Q799 1163 902 1059T1005 744V202Q1005 170 1019 156T1061 139L1170 128V20Q1140 10 1078 -4T963 -18Z" />
<glyph unicode="b" glyph-name="b" horiz-adv-x="1307" d="M593 -23Q529 -23 466 -15T348 4T248 30T175 56V1551Q175 1576 162 1591T123 1610L-19 1631V1740Q28 1753 82 1763T191 1781T300 1793T400 1799L438 1763V1035Q498 1096 580 1132T766 1168Q858 1168 938
1137T1077 1040T1170 871T1204 626Q1204 476 1165 355T1048 151T857 22T593 -23ZM612 99Q762 99 841 210T924 566Q927 809 854 904T653 999Q592 999 538 981T438 928V142Q471 124 514 112T612 99Z" />
<glyph unicode="c" glyph-name="c" horiz-adv-x="1132" d="M100 556Q100 694 138 807T249 1000T426 1124T664 1168Q763 1168 862 1146T1025 1091Q1031 1005 1025 912T1003 736H872L825 914Q817 945 808 963T782 997Q760 1016 725 1028T646 1040Q527 1040 457 934T387
603Q387 376 465 263T695 149Q787 149 858 184T972 263L1038 206Q994 103 884 39T615 -25Q486 -25 389 19T228 141T132 325T100 556Z" />
<glyph unicode="d" glyph-name="d" horiz-adv-x="1366" d="M648 139Q711 139 769 159T873 213V997Q841 1015 792 1027T690 1039Q625 1039 569 1017T472 941T408 797T384 574Q383 328 459 234T648 139ZM1092 -18Q1009 -18 960 20T888 124Q831 61 747 19T554 -23Q460
-23 378 9T235 109T139 284T103 538Q103 695 144 814T262 1011T447 1128T690 1168Q739 1168 786 1162T873 1147V1551Q873 1576 860 1591T822 1610L677 1631V1739Q723 1752 777 1763T887 1781T997 1793T1099 1799L1136 1762V202Q1136 168 1151 155T1192 139L1301
128V20Q1267 8 1206 -5T1092 -18Z" />
<glyph unicode="e" glyph-name="e" horiz-adv-x="1181" d="M618 1043Q524 1043 463 974T383 745H824Q825 756 825 767T826 792Q826 902 773 972T618 1043ZM1072 249Q1032 124 912 50T618 -25Q487 -25 390 18T229 137T134 321T102 558Q102 848 249 1008T647 1168Q850
1168 964 1064T1078 776Q1078 745 1075 704T1064 630H376Q376 626 376 621T376 611Q376 357 460 253T693 149Q786 149 868 187T999 295L1072 249Z" />
<glyph unicode="f" glyph-name="f" horiz-adv-x="905" d="M268 1227Q268 1339 311 1442T424 1624T582 1750T761 1798Q832 1798 901 1772T1032 1707L984 1549Q926 1561 863 1567T758 1574Q640 1573 583 1522T526 1325V1136H858V979H527V194Q527 168 540 154T580
136L790 115V0H94V115L211 135Q236 139 250 153T264 193V973L76 999V1108L268 1137V1227Z" />
<glyph unicode="g" glyph-name="g" horiz-adv-x="1298" d="M389 777Q389 635 441 564T607 493Q711 493 761 560T811 770Q811 917 760 983T598 1049Q506 1049 448 991T389 777ZM1218 -112Q1218 -212 1171 -294T1039 -433T835 -521T572 -552Q323 -552 203 -464T83
-237Q83 -136 139 -72T287 32Q233 58 206 102T179 205Q179 285 221 336T327 418Q225 464 173 551T121 756Q121 858 158 935T260 1064T418 1142T619 1168Q726 1168 811 1142T956 1067Q1000 1115 1048 1142T1147 1170Q1173 1170 1202 1164T1256 1152V962H1037Q1055
925 1064 881T1074 785Q1074 599 947 485T582 371Q539 371 500 375T425 386Q403 366 391 341T379 286Q379 227 430 204T601 180H832Q1022 180 1120 105T1218 -112ZM618 -419Q769 -419 862 -355T955 -163Q955 -87 913 -48T752 -9H512Q482 -9 455 -8T404 -2Q375 -37
356 -84T337 -193Q337 -290 398 -354T618 -419Z" />
<glyph unicode="h" glyph-name="h" horiz-adv-x="1441" d="M642 115V0H63V116L181 135Q206 139 219 154T233 194V1556Q233 1581 220 1596T182 1615L40 1637V1744Q86 1757 140 1767T249 1784T359 1794T459 1799L496 1761V1018Q574 1096 671 1129T875 1163Q1074
1163 1147 1049T1220 728V195Q1220 170 1233 155T1271 135L1390 116V0H811V115L906 135Q929 141 943 154T957 195V688Q957 845 913 919T753 993Q687 993 620 973T496 912V195Q496 169 509 155T547 135L642 115Z" />
<glyph unicode="i" glyph-name="i" horiz-adv-x="758" d="M525 1127V196Q525 170 538 155T577 135L695 116V0H92V116L210 135Q235 139 248 154T262 195V912Q262 937 250 953T213 973L79 994V1109Q172 1136 283 1149T488 1163L525 1127ZM536 1475Q536 1404 491
1361T373 1318Q298 1318 253 1361T208 1475Q208 1544 253 1587T373 1630Q446 1630 491 1587T536 1475Z" />
<glyph unicode="j" glyph-name="j" horiz-adv-x="689" d="M465 1163L502 1127V113Q502 12 493 -63T464 -194T413 -292T339 -370Q270 -427 180 -466T-5 -535L-59 -420Q29 -367 87 -317T179 -206T226 -70T240 108V912Q240 937 228 953T191 973L56 994V1109Q149 1136
260 1149T465 1163ZM494 1475Q494 1404 449 1361T331 1318Q256 1318 211 1361T166 1475Q166 1544 211 1587T331 1630Q404 1630 449 1587T494 1475Z" />
<glyph unicode="k" glyph-name="k" horiz-adv-x="1371" d="M663 116V0H63V116L182 135Q207 139 220 155T233 196V1551Q233 1576 220 1591T182 1610L40 1631V1739Q134 1765 249 1781T459 1799L496 1763V537L919 995L725 1027V1137H1287V1027L1168 1000Q1135 993
1116 985T1076 956L843 718Q874 679 900 637T958 539L1149 203Q1165 175 1182 163T1223 144L1343 116V0H1002Q958 0 925 52T853 180L748 390Q727 431 707 468T667 539L496 365V195Q496 170 509 155T547 135L663 116Z" />
<glyph unicode="l" glyph-name="l" horiz-adv-x="741" d="M502 1762V195Q502 169 515 154T554 135L691 114V0H50V116L187 135Q212 139 225 154T239 194V1551Q239 1576 226 1591T188 1610L43 1631V1739Q89 1752 143 1763T253 1781T363 1793T465 1799L502 1762Z" />
<glyph unicode="m" glyph-name="m" horiz-adv-x="2144" d="M669 115V0H92V115L211 135Q236 139 249 154T262 195V911Q262 936 250 952T213 972L79 994V1109Q169 1134 269 1148T456 1164L497 1125L513 1011Q586 1093 682 1128T882 1163Q1001 1163 1072 1122T1180
1003Q1263 1092 1365 1127T1571 1163Q1673 1163 1741 1134T1849 1049T1905 910T1922 718V195Q1922 170 1935 155T1974 135L2093 115V0H1516V115L1608 135Q1632 141 1645 154T1659 195V684Q1659 845 1614 919T1448 993Q1391 993 1329 975T1207 916Q1216 875 1220
828T1224 728V195Q1224 170 1236 156T1274 135L1368 115V0H817V115L910 135Q933 141 947 154T961 195V688Q961 845 922 919T766 993Q709 993 644 974T525 918V195Q525 170 537 156T574 135L669 115Z" />
<glyph unicode="n" glyph-name="n" horiz-adv-x="1469" d="M671 115V0H92V115L211 135Q236 139 249 154T262 195V912Q262 937 250 953T213 973L79 994V1109Q169 1134 269 1148T456 1164L497 1125L513 1007Q593 1091 693 1127T903 1163Q1102 1163 1175 1049T1248
728V195Q1248 170 1261 155T1299 135L1418 116V0H839V115L934 135Q957 141 971 154T985 195V688Q985 845 941 919T781 993Q715 993 649 973T525 913V195Q525 170 538 156T575 135L671 115Z" />
<glyph unicode="o" glyph-name="o" horiz-adv-x="1297" d="M102 563Q102 724 146 839T266 1027T445 1134T666 1168Q931 1168 1062 1012T1194 580Q1194 419 1150 304T1030 116T851 9T630 -25Q366 -25 234 131T102 563ZM907 558Q907 792 851 917T642 1042Q514 1042
452 937T390 586Q390 353 446 228T655 102Q783 102 845 208T907 558Z" />
<glyph unicode="p" glyph-name="p" horiz-adv-x="1370" d="M677 99Q817 99 901 203T989 570Q991 789 925 894T720 999Q651 999 595 978T502 927V139Q536 119 581 109T677 99ZM717 -381V-496H69V-381L188 -361Q213 -357 226 -342T239 -302V911Q239 936 227 952T192
972L56 994V1109Q144 1133 244 1148T433 1164L474 1125L491 1016Q548 1082 631 1125T831 1168Q924 1168 1004 1136T1143 1038T1234 869T1268 624Q1268 471 1227 350T1110 147T923 21T674 -23Q635 -23 590 -18T502 -2V-302Q502 -328 516 -343T555 -361L717 -381Z"
/>
<glyph unicode="q" glyph-name="q" horiz-adv-x="1321" d="M1276 -496H648V-381L818 -361Q843 -358 857 -343T871 -303V110Q817 52 738 15T557 -23Q461 -23 378 9T233 109T137 284T102 539Q102 689 143 807T260 1004T441 1126T678 1168Q755 1168 830 1150T966
1104L1088 1160L1134 1123V-302Q1134 -328 1147 -342T1185 -362L1276 -381V-496ZM648 139Q711 139 768 160T871 215V984Q837 1012 790 1026T690 1040Q558 1040 471 937T383 582Q383 456 403 371T458 234T542 161T648 139Z" />
<glyph unicode="r" glyph-name="r" horiz-adv-x="1090" d="M770 113V0H92V116L210 135Q235 139 248 154T262 195V908Q262 936 251 952T212 973L79 994V1109Q163 1134 261 1148T444 1164L486 1128L513 939Q579 1035 677 1101T879 1168Q910 1168 953 1160T1022 1139Q1031
1055 1024 944T996 737H874L843 880Q834 914 818 926T770 939Q713 939 648 915T525 836V195Q525 169 539 154T579 135L770 113Z" />
<glyph unicode="s" glyph-name="s" horiz-adv-x="1086" d="M122 59Q112 140 114 221T126 373H263L302 223Q311 190 321 173T351 142Q376 126 425 108T539 90Q635 90 684 135T734 250Q734 296 713 328T651 386T554 438T425 494Q294 551 211 623T127 831Q127 990
245 1078T569 1167Q660 1167 759 1149T925 1102Q929 1029 925 952T907 802L779 803L742 940Q735 968 724 985T688 1018Q665 1032 632 1041T556 1052Q477 1053 424 1015T371 902Q371 855 393 823T450 767T532 724T628 685Q698 657 764 625T880 551T960 451T990 314Q990
231 956 167T860 60T714 -5T527 -28Q405 -28 299 0T122 59Z" />
<glyph unicode="t" glyph-name="t" horiz-adv-x="928" d="M225 301V977L58 1001V1108L184 1129Q211 1133 225 1146T246 1185L331 1487H480L487 1137H840V984H489V375Q489 250 529 207T643 163Q699 163 750 183T840 243L905 179Q858 80 760 30T540 -20Q473 -20
415 -5T315 46T249 144T225 301Z" />
<glyph unicode="u" glyph-name="u" horiz-adv-x="1412" d="M1139 -18Q1057 -18 1008 20T936 124Q871 57 786 17T581 -23Q397 -23 311 78T224 386V914Q224 939 212 955T174 975L56 999V1114Q146 1138 253 1150T450 1163L487 1127V427Q487 273 530 206T686 139Q749
139 808 158T920 218V915Q920 940 908 956T871 976L733 1001V1116Q779 1127 832 1136T939 1151T1047 1160T1146 1163L1183 1127V202Q1183 168 1198 155T1239 139L1348 128V20Q1314 8 1253 -5T1139 -18Z" />
<glyph unicode="v" glyph-name="v" horiz-adv-x="1261" d="M525 -17L145 951Q137 971 124 983T89 1002L14 1025V1137H591V1023L427 993L698 222L958 993L797 1023V1137H1236V1025L1161 1003Q1140 997 1126 986T1103 953L755 -17H525Z" />
<glyph unicode="w" glyph-name="w" horiz-adv-x="1838" d="M458 -17L145 953Q138 975 125 986T89 1005L22 1025V1137H549V1023L400 993L613 246L856 1137H1086L1332 246L1539 993L1386 1023V1137H1812V1025L1742 1005Q1720 999 1706 987T1685 952L1390 -17H1175L917
840L678 -17H458Z" />
<glyph unicode="x" glyph-name="x" horiz-adv-x="1296" d="M533 114V0H45V114L145 130Q165 133 180 142T209 167L513 556L206 970Q194 986 180 995T145 1009L64 1027V1137H628V1026L492 999L697 700L920 999L784 1026V1137H1228V1026L1139 1009Q1120 1005 1105
996T1076 971L783 600L1108 166Q1121 149 1136 141T1172 128L1253 114V0H687V114L817 138L603 452L374 138L533 114Z" />
<glyph unicode="y" glyph-name="y" horiz-adv-x="1269" d="M294 -517Q234 -517 170 -511T47 -495V-355Q164 -342 255 -323T417 -265T543 -164T643 0H524L164 948Q156 970 141 982T104 1001L23 1025V1137H606V1023L442 992L718 213L966 993L810 1023V1137H1252V1025L1171
1001Q1147 994 1134 983T1111 946L774 -35Q689 -281 579 -399T294 -517Z" />
<glyph unicode="z" glyph-name="z" horiz-adv-x="1173" d="M1045 0H123L76 103L750 1019H558Q514 1019 470 1017T391 1008Q362 1003 348 991T326 950L281 760H151Q141 855 139 954T146 1137H1024L1069 1035L404 123H600Q654 123 705 125T800 135Q826 139 843 150T868
186L931 392L1057 377Q1064 286 1061 188T1045 0Z" />
<glyph unicode="{" glyph-name="braceleft" horiz-adv-x="895" d="M858 -289L842 -411Q796 -411 739 -409T624 -401Q435 -387 347 -297T258 -48Q258 98 275 225T292 461Q292 507 285 547T251 617T172 669T29 697V879Q119 886 171 907T250 958T284 1029T292 1115Q292
1223 275 1350T258 1623Q258 1782 346 1872T624 1977Q682 1981 739 1984T842 1987L858 1864L724 1836Q610 1813 557 1756T504 1576Q504 1467 514 1334T525 1086Q525 957 448 889T231 792Q370 764 447 692T525 489Q525 375 515 242T504 -1Q504 -123 557 -180T724
-261L858 -289Z" />
<glyph unicode="|" glyph-name="bar" horiz-adv-x="639" d="M216 -309V1897H424L423 -309H216Z" />
<glyph unicode="}" glyph-name="braceright" horiz-adv-x="895" d="M272 -403Q214 -407 157 -409T54 -411L38 -289L172 -263Q286 -240 339 -182T392 -2Q392 108 380 241T368 489Q368 619 446 689T662 788Q524 816 446 886T368 1086Q368 1201 380 1334T392 1577Q392
1699 339 1757T172 1838L38 1864L54 1987Q100 1987 157 1985T272 1978Q461 1963 549 1873T638 1624Q638 1478 620 1351T601 1115Q601 1069 608 1029T642 959T722 907T867 879V697Q776 690 723 669T643 618T609 547T601 461Q601 352 619 225T638 -49Q638 -208 550
-298T272 -403Z" />
<glyph unicode="~" glyph-name="asciitilde" horiz-adv-x="1310" d="M1162 699Q1113 590 1027 520T839 449Q780 449 725 470T619 517T520 563T425 585Q367 585 314 549T221 463L140 528Q189 638 275 708T464 778Q522 778 577 757T683 710T782 664T877 642Q935
642 988 678T1081 764L1162 699Z" />
<glyph unicode="&#xa0;" glyph-name="uni00A0" horiz-adv-x="568" />
<glyph unicode="&#xa1;" glyph-name="exclamdown" horiz-adv-x="643" d="M481 1020Q481 953 437 912T322 871Q250 871 206 912T162 1020Q162 1086 206 1127T322 1169Q393 1169 437 1128T481 1020ZM469 -563H175V-382L243 672H400L469 -382V-563Z" />
<glyph unicode="&#xa2;" glyph-name="cent" horiz-adv-x="1182" d="M1067 242Q1022 146 918 86T684 12V-210H521V17Q420 33 342 83T211 208T132 381T105 591Q105 851 241 1013T615 1198V1411H778V1198Q862 1189 938 1167T1063 1120Q1068 1034 1062 943T1041 769H905L862
947Q855 977 846 996T819 1031Q797 1050 758 1062T673 1074Q545 1074 469 961T392 636Q392 416 473 299T705 181Q803 181 877 219T996 308L1067 242Z" />
<glyph unicode="&#xa3;" glyph-name="sterling" horiz-adv-x="1353" d="M1253 257Q1253 181 1231 127T1170 38T1080 -13T968 -30Q889 -30 819 -6T682 46T549 99T411 123Q354 72 288 37T162 -15L88 124Q129 151 170 184T245 263T298 375T319 531V631H119V761H319V858Q319
984 353 1086T451 1258T605 1367T808 1406Q895 1406 976 1385T1127 1333Q1132 1247 1126 1157T1107 977H959L918 1173Q914 1193 906 1212T875 1247Q850 1263 819 1271T755 1279Q727 1279 698 1266T644 1218T605 1120T589 960V761H917V631H589V570Q589 441 561 354T497
221Q548 221 597 213T692 194T781 176T864 167Q940 167 979 203T1035 297Q1045 331 1052 379T1064 469H1225Q1234 429 1243 372T1253 257Z" />
<glyph unicode="&#xa4;" glyph-name="currency" horiz-adv-x="1409" d="M703 509Q827 509 888 586T950 770Q950 827 930 876T875 961T794 1017T697 1038Q638 1038 593 1016T518 956T472 869T456 768Q456 660 529 585T703 509ZM701 322Q635 322 574 339T462 389L240
167L122 286L340 503Q302 557 281 623T259 763Q259 839 281 909T345 1037L122 1258L238 1377L462 1153Q513 1187 574 1206T701 1225Q769 1225 831 1207T946 1157L1170 1379L1288 1261L1069 1043Q1108 990 1130 924T1152 784Q1152 708 1129 638T1063 510L1284 290L1166
171L943 395Q892 361 830 342T701 322Z" />
<glyph unicode="&#xa5;" glyph-name="yen" horiz-adv-x="1507" d="M1129 107V0H408V107L592 141Q616 145 628 158T641 196V323H257V444H641V596H257V717H591L259 1203Q248 1219 235 1228T202 1243L84 1271V1377H707V1271L541 1236L823 784L1090 1244L916 1277V1383H1417V1277L1303
1252Q1283 1247 1270 1238T1245 1210L942 717H1280V596H896V444H1280V323H896V196Q896 172 908 159T945 141L1129 107Z" />
<glyph unicode="&#xa6;" glyph-name="brokenbar" horiz-adv-x="634" d="M213 950V1897H421V950H213ZM213 -309V638H421V-309H213Z" />
<glyph unicode="&#xa7;" glyph-name="section" horiz-adv-x="1276" d="M712 468Q760 447 803 427T883 387Q920 427 943 478T966 578Q966 628 942 667T868 743T744 816T570 898Q522 920 479 941T398 985Q361 945 337 893T312 790Q312 690 412 624T712 468ZM633
-285Q473 -285 347 -245T163 -172Q158 -90 162 -7T181 159H336L370 -24Q374 -40 383 -57T415 -93Q455 -124 519 -143T656 -162Q768 -162 829 -115T890 7Q890 54 865 88T790 154T667 217T495 293Q319 371 216 462T112 701Q112 820 172 907T316 1038Q248 1089 212
1152T175 1303Q175 1372 202 1435T287 1547T436 1624T653 1653Q723 1653 790 1644T914 1621T1016 1589T1087 1555Q1093 1473 1088 1390T1070 1225H915L880 1407Q876 1426 867 1443T835 1476Q803 1499 746 1514T627 1529Q518 1529 463 1483T408 1365Q408 1317 433
1281T506 1213T625 1148T787 1072Q958 994 1062 905T1166 667Q1166 551 1110 465T972 335Q1046 284 1084 223T1123 71Q1123 0 1094 -65T1005 -178T852 -256T633 -285Z" />
<glyph unicode="&#xa8;" glyph-name="dieresis" horiz-adv-x="1000" d="M870 1470Q870 1405 831 1365T728 1324Q665 1324 626 1364T586 1470Q586 1534 625 1574T728 1615Q791 1615 830 1575T870 1470ZM412 1470Q412 1405 373 1365T271 1324Q207 1324 168 1364T128
1470Q128 1534 167 1574T271 1615Q334 1615 373 1575T412 1470Z" />
<glyph unicode="&#xa9;" glyph-name="copyright" horiz-adv-x="2003" d="M105 783Q105 976 173 1142T360 1427T645 1615T1002 1683Q1195 1683 1359 1615T1643 1428T1830 1142T1898 783Q1898 590 1830 424T1643 138T1359 -50T1002 -119Q810 -119 645 -51T361 138T173
424T105 783ZM241 784Q241 613 297 469T455 221T696 59T1002 0Q1168 0 1308 58T1548 220T1704 468T1761 784Q1761 955 1705 1099T1548 1346T1308 1508T1002 1567Q836 1567 696 1509T455 1347T298 1099T241 784ZM997 277Q892 277 810 313T671 414T584 571T554 774Q554
898 590 994T690 1156T843 1256T1038 1291Q1134 1291 1222 1266T1356 1210Q1362 1139 1358 1062T1340 906H1217L1179 1059Q1175 1077 1167 1092T1139 1124Q1117 1140 1083 1151T1012 1162Q905 1162 846 1072T787 812Q787 629 857 534T1061 438Q1133 438 1200 463T1308
532L1368 475Q1328 391 1231 334T997 277Z" />
<glyph unicode="&#xaa;" glyph-name="ordfeminine" horiz-adv-x="1101" d="M474 815Q520 815 563 829T641 866V1057L525 1049Q439 1044 402 1009T364 918Q364 867 390 841T474 815ZM827 681Q764 681 720 705T654 785Q605 735 534 707T377 678Q261 678 188 735T115
890Q115 952 145 998T225 1074T339 1120T469 1141L641 1151V1242Q641 1343 595 1382T456 1421Q382 1421 317 1399T198 1329L143 1378Q179 1473 279 1526T526 1580Q705 1580 789 1498T873 1252V859Q873 834 884 824T916 812L1001 803V710Q974 702 923 692T827 681Z"
/>
<glyph unicode="&#xab;" glyph-name="guillemotleft" horiz-adv-x="1441" d="M1258 93L686 537V685L1258 1140L1340 1044L971 612L1343 189L1258 93ZM666 93L94 537V685L666 1140L748 1044L379 612L751 189L666 93Z" />
<glyph unicode="&#xac;" glyph-name="logicalnot" horiz-adv-x="1291" d="M153 525V703H1133V104H943V525H153Z" />
<glyph unicode="&#xad;" glyph-name="uni00AD" horiz-adv-x="1091" d="M151 507V685H941V507H151Z" />
<glyph unicode="&#xae;" glyph-name="registered" horiz-adv-x="1762" d="M110 1092Q110 1258 168 1400T330 1645T575 1806T882 1865Q1047 1865 1189 1807T1433 1645T1593 1400T1652 1092Q1652 926 1594 783T1433 537T1189 375T882 316Q717 316 575 375T330 537T169
783T110 1092ZM233 1092Q233 946 281 823T415 612T621 475T882 425Q1023 425 1142 474T1347 612T1481 823T1529 1092Q1529 1237 1481 1360T1348 1571T1143 1708T882 1758Q741 1758 621 1709T416 1571T282 1360T233 1092ZM888 1108Q954 1108 995 1149T1036 1274Q1036
1357 995 1392T862 1427Q840 1427 819 1425T770 1418V1111Q802 1110 831 1109T888 1108ZM873 749V673H498V749L561 766Q577 770 584 780T592 807V1376Q592 1393 584 1403T560 1417L498 1431V1518H679Q740 1517 796 1519T898 1521Q1064 1521 1144 1464T1225 1285Q1225
1197 1179 1134T1035 1047Q1068 1034 1089 1012T1127 955L1193 823Q1207 795 1226 784T1296 759V673H1110Q1078 673 1060 696T1024 763L963 909Q951 940 937 966T907 1011L770 1012V805Q770 788 778 778T803 764L873 749Z" />
<glyph unicode="&#xaf;" glyph-name="overscore" horiz-adv-x="1000" d="M154 1358V1524H845V1358H154Z" />
<glyph unicode="&#xb0;" glyph-name="degree" horiz-adv-x="925" d="M461 933Q387 933 321 961T206 1039T128 1153T99 1293Q99 1370 128 1436T206 1550T321 1625T461 1653Q540 1653 607 1624T723 1547T799 1432T826 1293Q826 1216 798 1150T720 1036T604 961T461
933ZM463 1083Q551 1083 606 1142T662 1293Q662 1378 604 1440T460 1503Q373 1503 317 1443T261 1293Q261 1209 321 1146T463 1083Z" />
<glyph unicode="&#xb1;" glyph-name="plusminus" horiz-adv-x="1194" d="M690 301H504V490L511 653L349 646H136V816H349L511 810L504 973V1170H690V973L684 810L846 816H1058V646H846L684 653L690 490V301ZM1048 0H146V170H1048V0Z" />
<glyph unicode="&#xb2;" glyph-name="twosuperior" horiz-adv-x="1025" d="M867 625H152L122 721Q364 900 487 1026T610 1279Q610 1361 561 1411T424 1462Q352 1462 292 1427T190 1348L136 1397Q148 1437 177 1475T250 1544T353 1593T487 1612Q571 1612 636 1588T745
1522T812 1426T835 1311Q835 1226 794 1149T685 1004T533 876T363 766H567Q660 766 701 783T754 829L803 937L912 923Q908 855 897 773T867 625Z" />
<glyph unicode="&#xb3;" glyph-name="threesuperior" horiz-adv-x="973" d="M103 745L158 830Q207 796 279 773T428 749Q524 749 585 790T646 909Q646 984 587 1017T420 1051H315V1164H347Q469 1164 530 1208T592 1325Q592 1397 539 1432T409 1467Q352 1467 295
1447T187 1381L137 1436Q157 1482 192 1515T271 1570T367 1602T470 1612Q541 1612 602 1595T709 1545T779 1468T805 1368Q805 1320 786 1280T735 1211T662 1161T578 1134Q637 1134 691 1119T785 1073T848 999T872 898Q872 838 844 786T764 695T638 634T470 611Q351
611 255 648T103 745Z" />
<glyph unicode="&#xb4;" glyph-name="acute" horiz-adv-x="1000" d="M403 1257L329 1341L703 1778L866 1633Q833 1590 782 1541T669 1443T538 1345T403 1257Z" />
<glyph unicode="&#xb5;" glyph-name="uni00B5" horiz-adv-x="1479" d="M458 -456L249 -532L211 -496Q213 -280 215 -66T218 320Q218 417 217 510T212 699T206 902T200 1130L421 1167L458 1131L453 508Q454 423 476 364T533 269T608 217T689 201Q760 201 836 251T955
410L948 1131L1160 1167L1197 1131L1174 363Q1171 245 1201 203T1284 160H1412V58Q1366 23 1304 -1T1186 -26Q1100 -26 1044 39T972 238Q924 107 834 41T647 -26Q585 -26 519 7T410 121L458 -456Z" />
<glyph unicode="&#xb6;" glyph-name="paragraph" horiz-adv-x="1494" d="M289 -362L235 -245Q326 -195 383 -144T473 -28T516 121T528 319V679Q445 686 363 717T217 805T112 948T72 1148Q72 1241 103 1322T198 1461T361 1553T595 1587Q708 1587 850 1575T1162
1562H1382V1443L1235 1412Q1211 1407 1198 1392T1184 1354V203Q1184 181 1197 166T1233 147L1392 116V0H969V1420Q922 1423 860 1426T743 1430V229Q743 94 721 -1T646 -164T506 -277T289 -362Z" />
<glyph unicode="&#xb7;" glyph-name="middot" horiz-adv-x="627" d="M479 666Q479 596 434 553T314 509Q239 509 194 552T148 666Q148 737 193 780T314 823Q388 823 433 780T479 666Z" />
<glyph unicode="&#xb8;" glyph-name="cedilla" horiz-adv-x="1000" d="M452 51H554L512 -88Q519 -88 529 -88T551 -90Q626 -97 675 -144T724 -269Q724 -325 696 -371T619 -451T503 -502T356 -521Q341 -521 331 -521T308 -520L294 -423Q395 -415 448 -374T502 -279Q502
-229 463 -206T373 -182L452 51Z" />
<glyph unicode="&#xb9;" glyph-name="onesuperior" horiz-adv-x="936" d="M615 1586V813Q615 788 624 778T660 763L848 736V625H151V736L366 763Q391 767 401 778T412 814L413 1379Q353 1357 285 1343T151 1323L127 1431Q214 1455 308 1498T488 1609L615 1586Z" />
<glyph unicode="&#xba;" glyph-name="ordmasculine" horiz-adv-x="1107" d="M108 1116Q108 1241 143 1329T240 1472T386 1552T567 1578Q778 1578 888 1465T999 1132Q999 1007 964 919T867 776T721 696T540 671Q330 671 219 784T108 1116ZM739 1113Q739 1298 699
1384T549 1470Q458 1470 413 1395T368 1135Q368 951 408 865T558 779Q649 779 694 854T739 1113Z" />
<glyph unicode="&#xbb;" glyph-name="guillemotright" horiz-adv-x="1426" d="M184 93L99 189L471 612L102 1044L184 1140L756 685V537L184 93ZM760 93L675 189L1047 612L678 1044L760 1140L1332 685V537L760 93Z" />
<glyph unicode="&#xbc;" glyph-name="onequarter" horiz-adv-x="2380" d="M851 1586V813Q851 788 860 778T896 763L1084 736V625H387V736L602 763Q627 767 637 778T648 814L649 1379Q589 1357 521 1343T387 1323L363 1431Q450 1455 544 1498T724 1609L851 1586ZM788
0H593L1550 1562H1744L788 0ZM2313 185H2142V0H1951V185H1514L1448 272Q1565 447 1664 625T1847 979H2031L2064 939Q1989 795 1928 691T1816 512T1719 387T1629 297L1955 315L1989 565H2142V325L2313 334V185Z" />
<glyph unicode="&#xbd;" glyph-name="onehalf" horiz-adv-x="2366" d="M845 1586V813Q845 788 854 778T890 763L1078 736V625H381V736L596 763Q621 767 631 778T642 814L643 1379Q583 1357 515 1343T381 1323L357 1431Q444 1455 538 1498T718 1609L845 1586ZM782
0H587L1544 1562H1738L782 0ZM2246 0H1531L1501 96Q1743 275 1866 401T1989 654Q1989 736 1940 786T1803 837Q1731 837 1671 802T1569 723L1515 772Q1527 812 1556 850T1629 919T1732 968T1866 987Q1950 987 2015 963T2124 897T2191 801T2214 686Q2214 601 2173
524T2064 379T1912 251T1742 141H1946Q2039 141 2080 158T2133 204L2182 312L2291 298Q2287 230 2276 148T2246 0Z" />
<glyph unicode="&#xbe;" glyph-name="threequarters" horiz-adv-x="2379" d="M344 745L399 830Q448 796 520 773T669 749Q765 749 826 790T887 909Q887 984 828 1017T661 1051H556V1164H588Q710 1164 771 1208T833 1325Q833 1397 780 1432T650 1467Q593 1467 536
1447T428 1381L378 1436Q398 1482 433 1515T512 1570T608 1602T711 1612Q782 1612 843 1595T950 1545T1020 1468T1046 1368Q1046 1320 1027 1280T976 1211T903 1161T819 1134Q878 1134 932 1119T1026 1073T1089 999T1113 898Q1113 838 1085 786T1005 695T879 634T711
611Q592 611 496 648T344 745ZM786 0H591L1548 1562H1742L786 0ZM2311 185H2140V0H1949V185H1512L1446 272Q1563 447 1662 625T1845 979H2029L2062 939Q1987 795 1926 691T1814 512T1717 387T1627 297L1953 315L1987 565H2140V325L2311 334V185Z" />
<glyph unicode="&#xbf;" glyph-name="questiondown" horiz-adv-x="1084" d="M450 1020Q450 1086 494 1127T610 1169Q682 1169 725 1128T769 1020Q769 953 726 912T610 871Q538 871 494 912T450 1020ZM544 672H692Q713 619 735 552T757 427Q757 340 706 285T573
156Q456 48 400 -34T344 -220Q344 -323 399 -392T555 -462Q613 -462 660 -440T732 -392Q752 -370 760 -348T772 -292L795 -79H953Q980 -163 996 -261T1017 -451Q944 -512 828 -557T578 -602Q460 -602 365 -566T204 -468T101 -324T65 -152Q65 -76 90 -13T158 106T260
211T384 311Q425 343 450 364T490 405T512 449T524 510L544 672Z" />
<glyph unicode="&#xc0;" glyph-name="Agrave" horiz-adv-x="1567" d="M968 609L722 1341L488 609H968ZM537 116V0H-5V116L123 147Q145 152 159 164T180 198L649 1567H911L1395 198Q1402 176 1416 165T1452 147L1570 116V0H926V116L1121 151L1014 470H444L342 151L537
116ZM548 2103L1021 1764L964 1663Q895 1689 818 1720T666 1786T527 1856T415 1928L548 2103Z" />
<glyph unicode="&#xc1;" glyph-name="Aacute" horiz-adv-x="1567" d="M968 609L722 1341L488 609H968ZM537 116V0H-5V116L123 147Q145 152 159 164T180 198L649 1567H911L1395 198Q1402 176 1416 165T1452 147L1570 116V0H926V116L1121 151L1014 470H444L342 151L537
116ZM1174 1913Q1127 1879 1058 1845T912 1780T755 1719T604 1667L554 1765L1048 2093L1174 1913Z" />
<glyph unicode="&#xc2;" glyph-name="Acircumflex" horiz-adv-x="1567" d="M968 609L722 1341L488 609H968ZM537 116V0H-5V116L123 147Q145 152 159 164T180 198L649 1567H911L1395 198Q1402 176 1416 165T1452 147L1570 116V0H926V116L1121 151L1014 470H444L342
151L537 116ZM456 1661L377 1749L676 2063L864 2073L1190 1756L1107 1662L769 1872L456 1661Z" />
<glyph unicode="&#xc3;" glyph-name="Atilde" horiz-adv-x="1567" d="M968 609L722 1341L488 609H968ZM537 116V0H-5V116L123 147Q145 152 159 164T180 198L649 1567H911L1395 198Q1402 176 1416 165T1452 147L1570 116V0H926V116L1121 151L1014 470H444L342 151L537
116ZM1224 1958Q1210 1909 1184 1861T1121 1776T1038 1715T937 1692Q881 1692 835 1713T748 1761T670 1808T595 1830Q543 1830 502 1790T429 1703L343 1751Q357 1800 383 1848T446 1933T530 1993T631 2016Q687 2016 733 1995T820 1948T898 1901T973 1879Q1025 1879
1066 1919T1139 2005L1224 1958Z" />
<glyph unicode="&#xc4;" glyph-name="Adieresis" horiz-adv-x="1567" d="M968 609L722 1341L488 609H968ZM537 116V0H-5V116L123 147Q145 152 159 164T180 198L649 1567H911L1395 198Q1402 176 1416 165T1452 147L1570 116V0H926V116L1121 151L1014 470H444L342
151L537 116ZM1178 1844Q1178 1778 1139 1738T1037 1698Q973 1698 934 1738T895 1844Q895 1908 934 1948T1037 1989Q1100 1989 1139 1949T1178 1844ZM672 1844Q672 1778 633 1738T531 1698Q467 1698 428 1738T388 1844Q388 1908 427 1948T531 1989Q594 1989 633
1949T672 1844Z" />
<glyph unicode="&#xc5;" glyph-name="Aring" horiz-adv-x="1567" d="M968 609L722 1341L488 609H968ZM537 116V0H-5V116L123 147Q145 152 159 164T180 198L649 1567H911L1395 198Q1402 176 1416 165T1452 147L1570 116V0H926V116L1121 151L1014 470H444L342 151L537
116ZM1072 1788Q1072 1731 1049 1685T986 1606T893 1557T781 1539Q644 1539 570 1609T496 1792Q496 1848 521 1893T586 1970T681 2019T793 2036Q930 2036 1001 1966T1072 1788ZM654 1792Q654 1738 686 1695T785 1651Q848 1651 881 1685T914 1783Q914 1839 884 1881T786
1923Q723 1923 689 1888T654 1792Z" />
<glyph unicode="&#xc6;" glyph-name="AE" horiz-adv-x="2106" d="M893 1422L589 704H1008V1422H893ZM551 116V0H-10V116L129 146Q150 151 164 163T186 195L707 1401L449 1443V1562H1928Q1938 1465 1938 1367T1929 1164H1795L1747 1352Q1740 1376 1726 1390T1689
1413Q1658 1424 1606 1430T1494 1436H1271V864L1739 880V710L1271 722V136H1546Q1606 136 1664 141T1753 159Q1776 168 1788 182T1809 220L1887 448L2020 427Q2019 323 2009 216T1980 0H799V116L958 145Q983 150 995 165T1008 206V566H530L352 145L551 116Z" />
<glyph unicode="&#xc7;" glyph-name="Ccedilla" horiz-adv-x="1445" d="M828 -31Q648 -31 513 22T290 175T159 421T115 751Q115 961 169 1119T321 1381T561 1537T874 1589Q978 1589 1101 1570T1328 1511Q1333 1420 1328 1316T1307 1105H1145L1094 1342Q1089 1363
1078 1381T1043 1415Q1012 1434 954 1448T831 1463Q643 1463 534 1304T424 789Q424 631 447 502T520 284T648 145T836 96Q896 96 955 112T1053 157Q1070 170 1081 186T1101 230L1171 445L1330 430Q1334 345 1329 247T1308 52Q1214 16 1084 -7T828 -31ZM761 51H863L821
-88Q828 -88 838 -88T860 -90Q935 -97 984 -144T1033 -269Q1033 -325 1005 -371T928 -451T812 -502T665 -521Q650 -521 640 -521T617 -520L603 -423Q704 -415 757 -374T811 -279Q811 -229 772 -206T682 -182L761 51Z" />
<glyph unicode="&#xc8;" glyph-name="Egrave" horiz-adv-x="1420" d="M1244 1164H1110L1062 1352Q1055 1376 1041 1390T1004 1413Q973 1424 921 1430T809 1436H586V869L1054 885V715L586 727V136H861Q921 136 979 141T1068 159Q1091 168 1103 182T1124 220L1202
448L1335 427Q1334 323 1324 216T1295 0H103V116L261 145Q286 150 298 165T311 206V1351Q311 1376 299 1391T261 1412L103 1443V1562H1243Q1253 1465 1253 1367T1244 1164ZM501 2103L974 1764L917 1663Q848 1689 771 1720T619 1786T480 1856T368 1928L501 2103Z"
/>
<glyph unicode="&#xc9;" glyph-name="Eacute" horiz-adv-x="1420" d="M1244 1164H1110L1062 1352Q1055 1376 1041 1390T1004 1413Q973 1424 921 1430T809 1436H586V869L1054 885V715L586 727V136H861Q921 136 979 141T1068 159Q1091 168 1103 182T1124 220L1202
448L1335 427Q1334 323 1324 216T1295 0H103V116L261 145Q286 150 298 165T311 206V1351Q311 1376 299 1391T261 1412L103 1443V1562H1243Q1253 1465 1253 1367T1244 1164ZM1127 1913Q1080 1879 1011 1845T865 1780T708 1719T557 1667L507 1765L1001 2093L1127
1913Z" />
<glyph unicode="&#xca;" glyph-name="Ecircumflex" horiz-adv-x="1420" d="M1244 1164H1110L1062 1352Q1055 1376 1041 1390T1004 1413Q973 1424 921 1430T809 1436H586V869L1054 885V715L586 727V136H861Q921 136 979 141T1068 159Q1091 168 1103 182T1124 220L1202
448L1335 427Q1334 323 1324 216T1295 0H103V116L261 145Q286 150 298 165T311 206V1351Q311 1376 299 1391T261 1412L103 1443V1562H1243Q1253 1465 1253 1367T1244 1164ZM409 1661L330 1749L629 2063L817 2073L1143 1756L1060 1662L722 1872L409 1661Z" />
<glyph unicode="&#xcb;" glyph-name="Edieresis" horiz-adv-x="1420" d="M1244 1164H1110L1062 1352Q1055 1376 1041 1390T1004 1413Q973 1424 921 1430T809 1436H586V869L1054 885V715L586 727V136H861Q921 136 979 141T1068 159Q1091 168 1103 182T1124 220L1202
448L1335 427Q1334 323 1324 216T1295 0H103V116L261 145Q286 150 298 165T311 206V1351Q311 1376 299 1391T261 1412L103 1443V1562H1243Q1253 1465 1253 1367T1244 1164ZM1131 1844Q1131 1778 1092 1738T990 1698Q926 1698 887 1738T848 1844Q848 1908 887 1948T990
1989Q1053 1989 1092 1949T1131 1844ZM625 1844Q625 1778 586 1738T484 1698Q420 1698 381 1738T341 1844Q341 1908 380 1948T484 1989Q547 1989 586 1949T625 1844Z" />
<glyph unicode="&#xcc;" glyph-name="Igrave" horiz-adv-x="897" d="M795 1562V1443L636 1412Q611 1407 599 1392T586 1351V206Q586 181 598 166T636 146L795 116V0H103V116L261 145Q286 150 298 165T311 206V1351Q311 1376 299 1391T261 1412L103 1443V1562H795ZM213
2103L686 1764L629 1663Q560 1689 483 1720T331 1786T192 1856T80 1928L213 2103Z" />
<glyph unicode="&#xcd;" glyph-name="Iacute" horiz-adv-x="897" d="M795 1562V1443L636 1412Q611 1407 599 1392T586 1351V206Q586 181 598 166T636 146L795 116V0H103V116L261 145Q286 150 298 165T311 206V1351Q311 1376 299 1391T261 1412L103 1443V1562H795ZM839
1913Q792 1879 723 1845T577 1780T420 1719T269 1667L219 1765L713 2093L839 1913Z" />
<glyph unicode="&#xce;" glyph-name="Icircumflex" horiz-adv-x="897" d="M795 1562V1443L636 1412Q611 1407 599 1392T586 1351V206Q586 181 598 166T636 146L795 116V0H103V116L261 145Q286 150 298 165T311 206V1351Q311 1376 299 1391T261 1412L103 1443V1562H795ZM121
1661L42 1749L341 2063L529 2073L855 1756L772 1662L434 1872L121 1661Z" />
<glyph unicode="&#xcf;" glyph-name="Idieresis" horiz-adv-x="897" d="M795 1562V1443L636 1412Q611 1407 599 1392T586 1351V206Q586 181 598 166T636 146L795 116V0H103V116L261 145Q286 150 298 165T311 206V1351Q311 1376 299 1391T261 1412L103 1443V1562H795ZM843
1844Q843 1778 804 1738T702 1698Q638 1698 599 1738T560 1844Q560 1908 599 1948T702 1989Q765 1989 804 1949T843 1844ZM337 1844Q337 1778 298 1738T196 1698Q132 1698 93 1738T53 1844Q53 1908 92 1948T196 1989Q259 1989 298 1949T337 1844Z" />
<glyph unicode="&#xd0;" glyph-name="Eth" horiz-adv-x="1678" d="M1564 829Q1564 621 1510 461T1354 194T1108 34T782 -16Q748 -15 706 -13T620 -7T531 -2T450 0H104V116L265 146Q287 150 300 165T313 202V731H115V870H313V1357Q313 1377 301 1391T270 1410L104
1443V1562H447Q546 1562 632 1569T809 1576Q1193 1576 1378 1389T1564 829ZM588 131Q625 121 686 117T797 113Q1019 118 1142 271T1266 785Q1266 1118 1145 1285T768 1452Q708 1452 661 1445T588 1437V870H907V731H588V131Z" />
<glyph unicode="&#xd1;" glyph-name="Ntilde" horiz-adv-x="1789" d="M709 116V0H103V116L261 145Q286 149 298 164T311 205V1351Q311 1376 299 1391T261 1412L103 1443V1562H590L1341 394V1351Q1341 1376 1328 1391T1291 1412L1122 1443V1562H1700V1443L1557
1412Q1532 1406 1520 1391T1507 1351V0H1269L478 1234V206Q478 181 490 165T528 145L709 116ZM1333 1958Q1319 1909 1293 1861T1230 1776T1147 1715T1046 1692Q990 1692 944 1713T857 1761T779 1808T704 1830Q652 1830 611 1790T538 1703L452 1751Q466 1800 492
1848T555 1933T639 1993T740 2016Q796 2016 842 1995T929 1948T1007 1901T1082 1879Q1134 1879 1175 1919T1248 2005L1333 1958Z" />
<glyph unicode="&#xd2;" glyph-name="Ograve" horiz-adv-x="1601" d="M774 -29Q608 -29 484 26T278 182T156 428T115 754Q115 953 164 1109T304 1372T529 1534T827 1590Q993 1590 1117 1536T1323 1380T1446 1134T1487 808Q1487 610 1438 454T1298 191T1073 28T774
-29ZM804 1459Q619 1459 519 1293T418 776Q418 437 512 270T796 103Q980 103 1081 270T1182 789Q1182 1128 1088 1293T804 1459ZM565 2103L1038 1764L981 1663Q912 1689 835 1720T683 1786T544 1856T432 1928L565 2103Z" />
<glyph unicode="&#xd3;" glyph-name="Oacute" horiz-adv-x="1601" d="M774 -29Q608 -29 484 26T278 182T156 428T115 754Q115 953 164 1109T304 1372T529 1534T827 1590Q993 1590 1117 1536T1323 1380T1446 1134T1487 808Q1487 610 1438 454T1298 191T1073 28T774
-29ZM804 1459Q619 1459 519 1293T418 776Q418 437 512 270T796 103Q980 103 1081 270T1182 789Q1182 1128 1088 1293T804 1459ZM1191 1913Q1144 1879 1075 1845T929 1780T772 1719T621 1667L571 1765L1065 2093L1191 1913Z" />
<glyph unicode="&#xd4;" glyph-name="Ocircumflex" horiz-adv-x="1601" d="M774 -29Q608 -29 484 26T278 182T156 428T115 754Q115 953 164 1109T304 1372T529 1534T827 1590Q993 1590 1117 1536T1323 1380T1446 1134T1487 808Q1487 610 1438 454T1298 191T1073
28T774 -29ZM804 1459Q619 1459 519 1293T418 776Q418 437 512 270T796 103Q980 103 1081 270T1182 789Q1182 1128 1088 1293T804 1459ZM473 1661L394 1749L693 2063L881 2073L1207 1756L1124 1662L786 1872L473 1661Z" />
<glyph unicode="&#xd5;" glyph-name="Otilde" horiz-adv-x="1601" d="M774 -29Q608 -29 484 26T278 182T156 428T115 754Q115 953 164 1109T304 1372T529 1534T827 1590Q993 1590 1117 1536T1323 1380T1446 1134T1487 808Q1487 610 1438 454T1298 191T1073 28T774
-29ZM804 1459Q619 1459 519 1293T418 776Q418 437 512 270T796 103Q980 103 1081 270T1182 789Q1182 1128 1088 1293T804 1459ZM1241 1958Q1227 1909 1201 1861T1138 1776T1055 1715T954 1692Q898 1692 852 1713T765 1761T687 1808T612 1830Q560 1830 519 1790T446
1703L360 1751Q374 1800 400 1848T463 1933T547 1993T648 2016Q704 2016 750 1995T837 1948T915 1901T990 1879Q1042 1879 1083 1919T1156 2005L1241 1958Z" />
<glyph unicode="&#xd6;" glyph-name="Odieresis" horiz-adv-x="1601" d="M774 -29Q608 -29 484 26T278 182T156 428T115 754Q115 953 164 1109T304 1372T529 1534T827 1590Q993 1590 1117 1536T1323 1380T1446 1134T1487 808Q1487 610 1438 454T1298 191T1073
28T774 -29ZM804 1459Q619 1459 519 1293T418 776Q418 437 512 270T796 103Q980 103 1081 270T1182 789Q1182 1128 1088 1293T804 1459ZM1195 1844Q1195 1778 1156 1738T1054 1698Q990 1698 951 1738T912 1844Q912 1908 951 1948T1054 1989Q1117 1989 1156 1949T1195
1844ZM689 1844Q689 1778 650 1738T548 1698Q484 1698 445 1738T405 1844Q405 1908 444 1948T548 1989Q611 1989 650 1949T689 1844Z" />
<glyph unicode="&#xd7;" glyph-name="multiply" horiz-adv-x="1113" d="M261 182L129 320L435 617L129 914L263 1053L556 736L850 1053L984 914L678 617L984 320L851 182L556 499L261 182Z" />
<glyph unicode="&#xd8;" glyph-name="Oslash" horiz-adv-x="1601" d="M399 776Q399 610 421 485T490 275L1024 1387Q980 1425 924 1444T800 1463Q607 1463 503 1298T399 776ZM792 98Q984 98 1088 265T1193 789Q1193 952 1171 1075T1106 1280L573 171Q616 134 671
116T792 98ZM770 -29Q696 -29 630 -18T507 14L398 -202L268 -134L378 83Q244 179 177 351T110 754Q110 953 159 1109T300 1372T525 1534T823 1590Q899 1590 966 1579T1092 1545L1184 1727L1313 1659L1220 1475Q1351 1379 1416 1208T1482 808Q1482 610 1433 454T1293
191T1069 28T770 -29Z" />
<glyph unicode="&#xd9;" glyph-name="Ugrave" horiz-adv-x="1701" d="M1043 1562H1611V1443L1493 1414Q1469 1408 1457 1392T1445 1351V577Q1445 418 1404 304T1287 117T1100 12T851 -22Q545 -22 400 129T254 596V1352Q254 1377 242 1392T206 1414L96 1443V1562H757V1443L587
1410Q562 1406 550 1390T537 1349V571Q537 325 629 214T896 102Q1096 102 1180 224T1264 562V1351Q1264 1376 1252 1391T1214 1411L1043 1443V1562ZM639 2103L1112 1764L1055 1663Q986 1689 909 1720T757 1786T618 1856T506 1928L639 2103Z" />
<glyph unicode="&#xda;" glyph-name="Uacute" horiz-adv-x="1701" d="M1043 1562H1611V1443L1493 1414Q1469 1408 1457 1392T1445 1351V577Q1445 418 1404 304T1287 117T1100 12T851 -22Q545 -22 400 129T254 596V1352Q254 1377 242 1392T206 1414L96 1443V1562H757V1443L587
1410Q562 1406 550 1390T537 1349V571Q537 325 629 214T896 102Q1096 102 1180 224T1264 562V1351Q1264 1376 1252 1391T1214 1411L1043 1443V1562ZM1265 1913Q1218 1879 1149 1845T1003 1780T846 1719T695 1667L645 1765L1139 2093L1265 1913Z" />
<glyph unicode="&#xdb;" glyph-name="Ucircumflex" horiz-adv-x="1701" d="M1043 1562H1611V1443L1493 1414Q1469 1408 1457 1392T1445 1351V577Q1445 418 1404 304T1287 117T1100 12T851 -22Q545 -22 400 129T254 596V1352Q254 1377 242 1392T206 1414L96 1443V1562H757V1443L587
1410Q562 1406 550 1390T537 1349V571Q537 325 629 214T896 102Q1096 102 1180 224T1264 562V1351Q1264 1376 1252 1391T1214 1411L1043 1443V1562ZM547 1661L468 1749L767 2063L955 2073L1281 1756L1198 1662L860 1872L547 1661Z" />
<glyph unicode="&#xdc;" glyph-name="Udieresis" horiz-adv-x="1701" d="M1043 1562H1611V1443L1493 1414Q1469 1408 1457 1392T1445 1351V577Q1445 418 1404 304T1287 117T1100 12T851 -22Q545 -22 400 129T254 596V1352Q254 1377 242 1392T206 1414L96 1443V1562H757V1443L587
1410Q562 1406 550 1390T537 1349V571Q537 325 629 214T896 102Q1096 102 1180 224T1264 562V1351Q1264 1376 1252 1391T1214 1411L1043 1443V1562ZM1269 1844Q1269 1778 1230 1738T1128 1698Q1064 1698 1025 1738T986 1844Q986 1908 1025 1948T1128 1989Q1191
1989 1230 1949T1269 1844ZM763 1844Q763 1778 724 1738T622 1698Q558 1698 519 1738T479 1844Q479 1908 518 1948T622 1989Q685 1989 724 1949T763 1844Z" />
<glyph unicode="&#xdd;" glyph-name="Yacute" horiz-adv-x="1483" d="M1135 0H367V116L559 152Q584 157 597 171T610 211V603L173 1367Q163 1386 148 1396T113 1412L-13 1443V1562H648V1443L473 1404L810 784L1123 1406L940 1443V1562H1469V1443L1348 1414Q1327
1410 1312 1400T1287 1370L891 602V211Q891 186 904 172T943 152L1135 116V0ZM1144 1913Q1097 1879 1028 1845T882 1780T725 1719T574 1667L524 1765L1018 2093L1144 1913Z" />
<glyph unicode="&#xde;" glyph-name="Thorn" horiz-adv-x="1426" d="M772 448Q900 448 977 526T1054 796Q1054 936 989 1020T761 1104Q715 1104 668 1101T574 1091V461Q628 455 676 452T772 448ZM793 116V0H113V116L253 145Q278 150 290 165T303 206V1351Q303
1376 291 1391T253 1412L113 1443V1562H793V1443L624 1412Q600 1407 587 1392T574 1351V1212Q649 1219 722 1224T868 1230Q1102 1230 1223 1127T1345 806Q1345 560 1206 445T810 330Q738 330 682 333T574 340V206Q574 181 586 166T624 146L793 116Z" />
<glyph unicode="&#xdf;" glyph-name="germandbls" horiz-adv-x="1569" d="M1057 -28Q944 -28 846 -1T684 58Q680 92 678 126T676 192Q676 240 679 285T689 370H825L865 224Q875 189 883 173T913 140Q936 123 977 107T1070 90Q1148 90 1199 132T1251 248Q1251 336
1181 389T1002 503Q951 532 905 563T823 632T768 717T747 826Q747 888 768 939T825 1031T908 1103T1005 1156Q1020 1201 1026 1246T1032 1328Q1032 1456 967 1538T772 1620Q659 1620 592 1543T525 1280V0H92V115L210 135Q235 139 248 154T262 194V972L77 999V1108L262
1138V1206Q262 1328 311 1436T442 1624T633 1750T860 1797Q950 1797 1030 1768T1170 1685T1265 1553T1301 1377Q1301 1313 1287 1244T1251 1114Q1133 1086 1065 1032T996 902Q996 829 1058 784T1224 681Q1352 610 1429 532T1507 323Q1507 238 1473 172T1378 62T1235
-5T1057 -28Z" />
<glyph unicode="&#xe0;" glyph-name="agrave" horiz-adv-x="1221" d="M514 138Q577 138 640 160T749 219V479L585 466Q472 458 418 412T363 283Q363 213 399 176T514 138ZM963 -18Q886 -18 835 16T761 122Q700 56 609 17T411 -23Q269 -23 178 50T87 254Q87 339
126 398T227 495T369 552T528 578L749 594V722Q749 866 689 923T510 980Q417 980 334 950T182 854L120 912Q163 1031 288 1097T586 1163Q799 1163 902 1059T1005 744V202Q1005 170 1019 156T1061 139L1170 128V20Q1140 10 1078 -4T963 -18ZM436 1778L799 1346L721
1257Q655 1297 589 1345T464 1442T356 1540T273 1633L436 1778Z" />
<glyph unicode="&#xe1;" glyph-name="aacute" horiz-adv-x="1221" d="M514 138Q577 138 640 160T749 219V479L585 466Q472 458 418 412T363 283Q363 213 399 176T514 138ZM963 -18Q886 -18 835 16T761 122Q700 56 609 17T411 -23Q269 -23 178 50T87 254Q87 339
126 398T227 495T369 552T528 578L749 594V722Q749 866 689 923T510 980Q417 980 334 950T182 854L120 912Q163 1031 288 1097T586 1163Q799 1163 902 1059T1005 744V202Q1005 170 1019 156T1061 139L1170 128V20Q1140 10 1078 -4T963 -18ZM491 1257L417 1341L791
1778L954 1633Q921 1590 870 1541T757 1443T626 1345T491 1257Z" />
<glyph unicode="&#xe2;" glyph-name="acircumflex" horiz-adv-x="1221" d="M514 138Q577 138 640 160T749 219V479L585 466Q472 458 418 412T363 283Q363 213 399 176T514 138ZM963 -18Q886 -18 835 16T761 122Q700 56 609 17T411 -23Q269 -23 178 50T87 254Q87
339 126 398T227 495T369 552T528 578L749 594V722Q749 866 689 923T510 980Q417 980 334 950T182 854L120 912Q163 1031 288 1097T586 1163Q799 1163 902 1059T1005 744V202Q1005 170 1019 156T1061 139L1170 128V20Q1140 10 1078 -4T963 -18ZM285 1261L198 1340L482
1729L667 1745L982 1347L889 1262L575 1531L285 1261Z" />
<glyph unicode="&#xe3;" glyph-name="atilde" horiz-adv-x="1221" d="M514 138Q577 138 640 160T749 219V479L585 466Q472 458 418 412T363 283Q363 213 399 176T514 138ZM963 -18Q886 -18 835 16T761 122Q700 56 609 17T411 -23Q269 -23 178 50T87 254Q87 339
126 398T227 495T369 552T528 578L749 594V722Q749 866 689 923T510 980Q417 980 334 950T182 854L120 912Q163 1031 288 1097T586 1163Q799 1163 902 1059T1005 744V202Q1005 170 1019 156T1061 139L1170 128V20Q1140 10 1078 -4T963 -18ZM1013 1563Q999 1513
975 1465T915 1378T835 1317T734 1293Q680 1293 636 1315T552 1363T478 1411T405 1433Q356 1433 317 1392T248 1304L163 1352Q177 1402 201 1451T261 1538T341 1599T441 1623Q495 1623 540 1601T623 1553T698 1505T770 1483Q819 1483 858 1523T928 1612L1013 1563Z"
/>
<glyph unicode="&#xe4;" glyph-name="adieresis" horiz-adv-x="1221" d="M514 138Q577 138 640 160T749 219V479L585 466Q472 458 418 412T363 283Q363 213 399 176T514 138ZM963 -18Q886 -18 835 16T761 122Q700 56 609 17T411 -23Q269 -23 178 50T87 254Q87
339 126 398T227 495T369 552T528 578L749 594V722Q749 866 689 923T510 980Q417 980 334 950T182 854L120 912Q163 1031 288 1097T586 1163Q799 1163 902 1059T1005 744V202Q1005 170 1019 156T1061 139L1170 128V20Q1140 10 1078 -4T963 -18ZM958 1470Q958 1405
919 1365T816 1324Q753 1324 714 1364T674 1470Q674 1534 713 1574T816 1615Q879 1615 918 1575T958 1470ZM500 1470Q500 1405 461 1365T359 1324Q295 1324 256 1364T216 1470Q216 1534 255 1574T359 1615Q422 1615 461 1575T500 1470Z" />
<glyph unicode="&#xe5;" glyph-name="aring" horiz-adv-x="1221" d="M514 138Q577 138 640 160T749 219V479L585 466Q472 458 418 412T363 283Q363 213 399 176T514 138ZM963 -18Q886 -18 835 16T761 122Q700 56 609 17T411 -23Q269 -23 178 50T87 254Q87 339
126 398T227 495T369 552T528 578L749 594V722Q749 866 689 923T510 980Q417 980 334 950T182 854L120 912Q163 1031 288 1097T586 1163Q799 1163 902 1059T1005 744V202Q1005 170 1019 156T1061 139L1170 128V20Q1140 10 1078 -4T963 -18ZM868 1520Q868 1464 846
1419T785 1343T694 1295T585 1278Q451 1278 379 1346T307 1524Q307 1578 331 1622T395 1697T487 1744T597 1761Q730 1761 799 1692T868 1520ZM467 1524Q467 1473 497 1432T589 1391Q647 1391 677 1423T709 1515Q709 1567 681 1606T590 1646Q532 1646 500 1614T467
1524Z" />
<glyph unicode="&#xe6;" glyph-name="ae" horiz-adv-x="1815" d="M1254 1041Q1161 1041 1098 972T1017 745H1458Q1459 756 1459 767T1460 792Q1460 902 1407 971T1254 1041ZM1706 249Q1686 184 1643 133T1541 47T1409 -6T1254 -25Q1109 -25 1007 28T844 175Q776
81 664 29T422 -23Q268 -23 178 50T87 252Q87 337 126 397T227 496T368 554T528 579L749 594V722Q749 863 685 921T503 980Q421 980 337 950T182 854L120 912Q141 973 185 1020T289 1098T421 1146T568 1163Q690 1163 770 1124T897 1011Q965 1086 1063 1127T1284
1168Q1483 1168 1597 1065T1712 777Q1712 745 1709 704T1698 630H1010Q1010 626 1010 623T1010 615Q1010 355 1098 252T1327 149Q1416 149 1500 187T1633 295L1706 249ZM515 138Q584 138 661 167T802 254Q782 303 769 360T752 479L585 466Q472 458 418 412T363
283Q363 213 399 176T515 138Z" />
<glyph unicode="&#xe7;" glyph-name="ccedilla" horiz-adv-x="1132" d="M100 556Q100 694 138 807T249 1000T426 1124T664 1168Q763 1168 862 1146T1025 1091Q1031 1005 1025 912T1003 736H872L825 914Q817 945 808 963T782 997Q760 1016 725 1028T646 1040Q527
1040 457 934T387 603Q387 376 465 263T695 149Q787 149 858 184T972 263L1038 206Q994 103 884 39T615 -25Q486 -25 389 19T228 141T132 325T100 556ZM541 51H643L601 -88Q608 -88 618 -88T640 -90Q715 -97 764 -144T813 -269Q813 -325 785 -371T708 -451T592
-502T445 -521Q430 -521 420 -521T397 -520L383 -423Q484 -415 537 -374T591 -279Q591 -229 552 -206T462 -182L541 51Z" />
<glyph unicode="&#xe8;" glyph-name="egrave" horiz-adv-x="1181" d="M618 1043Q524 1043 463 974T383 745H824Q825 756 825 767T826 792Q826 902 773 972T618 1043ZM1072 249Q1032 124 912 50T618 -25Q487 -25 390 18T229 137T134 321T102 558Q102 848 249 1008T647
1168Q850 1168 964 1064T1078 776Q1078 745 1075 704T1064 630H376Q376 626 376 621T376 611Q376 357 460 253T693 149Q786 149 868 187T999 295L1072 249ZM466 1778L829 1346L751 1257Q685 1297 619 1345T494 1442T386 1540T303 1633L466 1778Z" />
<glyph unicode="&#xe9;" glyph-name="eacute" horiz-adv-x="1181" d="M618 1043Q524 1043 463 974T383 745H824Q825 756 825 767T826 792Q826 902 773 972T618 1043ZM1072 249Q1032 124 912 50T618 -25Q487 -25 390 18T229 137T134 321T102 558Q102 848 249 1008T647
1168Q850 1168 964 1064T1078 776Q1078 745 1075 704T1064 630H376Q376 626 376 621T376 611Q376 357 460 253T693 149Q786 149 868 187T999 295L1072 249ZM521 1257L447 1341L821 1778L984 1633Q951 1590 900 1541T787 1443T656 1345T521 1257Z" />
<glyph unicode="&#xea;" glyph-name="ecircumflex" horiz-adv-x="1181" d="M618 1043Q524 1043 463 974T383 745H824Q825 756 825 767T826 792Q826 902 773 972T618 1043ZM1072 249Q1032 124 912 50T618 -25Q487 -25 390 18T229 137T134 321T102 558Q102 848 249
1008T647 1168Q850 1168 964 1064T1078 776Q1078 745 1075 704T1064 630H376Q376 626 376 621T376 611Q376 357 460 253T693 149Q786 149 868 187T999 295L1072 249ZM315 1261L228 1340L512 1729L697 1745L1012 1347L919 1262L605 1531L315 1261Z" />
<glyph unicode="&#xeb;" glyph-name="edieresis" horiz-adv-x="1181" d="M618 1043Q524 1043 463 974T383 745H824Q825 756 825 767T826 792Q826 902 773 972T618 1043ZM1072 249Q1032 124 912 50T618 -25Q487 -25 390 18T229 137T134 321T102 558Q102 848 249
1008T647 1168Q850 1168 964 1064T1078 776Q1078 745 1075 704T1064 630H376Q376 626 376 621T376 611Q376 357 460 253T693 149Q786 149 868 187T999 295L1072 249ZM988 1470Q988 1405 949 1365T846 1324Q783 1324 744 1364T704 1470Q704 1534 743 1574T846 1615Q909
1615 948 1575T988 1470ZM530 1470Q530 1405 491 1365T389 1324Q325 1324 286 1364T246 1470Q246 1534 285 1574T389 1615Q452 1615 491 1575T530 1470Z" />
<glyph unicode="&#xec;" glyph-name="igrave" horiz-adv-x="758" d="M525 1127V196Q525 170 538 155T577 135L695 116V0H92V116L210 135Q235 139 248 154T262 195V912Q262 937 250 953T213 973L79 994V1109Q172 1136 283 1149T488 1163L525 1127ZM198 1778L561
1346L483 1257Q417 1297 351 1345T226 1442T118 1540T35 1633L198 1778Z" />
<glyph unicode="&#xed;" glyph-name="iacute" horiz-adv-x="758" d="M525 1127V196Q525 170 538 155T577 135L695 116V0H92V116L210 135Q235 139 248 154T262 195V912Q262 937 250 953T213 973L79 994V1109Q172 1136 283 1149T488 1163L525 1127ZM253 1257L179
1341L553 1778L716 1633Q683 1590 632 1541T519 1443T388 1345T253 1257Z" />
<glyph unicode="&#xee;" glyph-name="icircumflex" horiz-adv-x="758" d="M525 1127V196Q525 170 538 155T577 135L695 116V0H92V116L210 135Q235 139 248 154T262 195V912Q262 937 250 953T213 973L79 994V1109Q172 1136 283 1149T488 1163L525 1127ZM82 1262L-5
1336L244 1724L429 1741L709 1342L616 1263L337 1532L82 1262Z" />
<glyph unicode="&#xef;" glyph-name="idieresis" horiz-adv-x="758" d="M525 1127V196Q525 170 538 155T577 135L695 116V0H92V116L210 135Q235 139 248 154T262 195V912Q262 937 250 953T213 973L79 994V1109Q172 1136 283 1149T488 1163L525 1127ZM720 1470Q720
1405 681 1365T578 1324Q515 1324 476 1364T436 1470Q436 1534 475 1574T578 1615Q641 1615 680 1575T720 1470ZM262 1470Q262 1405 223 1365T121 1324Q57 1324 18 1364T-22 1470Q-22 1534 17 1574T121 1615Q184 1615 223 1575T262 1470Z" />
<glyph unicode="&#xf0;" glyph-name="eth" horiz-adv-x="1289" d="M609 -23Q369 -23 236 126T103 547Q103 706 146 816T257 995T408 1093T569 1123Q638 1123 707 1102T828 1034Q794 1141 739 1233T607 1406L320 1200L235 1330L504 1501Q440 1552 363 1599T199
1690L248 1796Q367 1763 471 1715T663 1607L922 1790L1008 1662L778 1519Q875 1434 948 1333T1069 1121T1142 890T1167 648Q1167 506 1135 383T1035 170T861 29T609 -23ZM637 104Q771 104 829 228T888 607Q888 678 883 744T867 872Q823 918 765 943T640 968Q528
968 459 876T390 546Q390 451 402 370T443 230T519 138T637 104Z" />
<glyph unicode="&#xf1;" glyph-name="ntilde" horiz-adv-x="1469" d="M671 115V0H92V115L211 135Q236 139 249 154T262 195V912Q262 937 250 953T213 973L79 994V1109Q169 1134 269 1148T456 1164L497 1125L513 1007Q593 1091 693 1127T903 1163Q1102 1163 1175
1049T1248 728V195Q1248 170 1261 155T1299 135L1418 116V0H839V115L934 135Q957 141 971 154T985 195V688Q985 845 941 919T781 993Q715 993 649 973T525 913V195Q525 170 538 156T575 135L671 115ZM1165 1563Q1151 1513 1127 1465T1067 1378T987 1317T886 1293Q832
1293 788 1315T704 1363T630 1411T557 1433Q508 1433 469 1392T400 1304L315 1352Q329 1402 353 1451T413 1538T493 1599T593 1623Q647 1623 692 1601T775 1553T850 1505T922 1483Q971 1483 1010 1523T1080 1612L1165 1563Z" />
<glyph unicode="&#xf2;" glyph-name="ograve" horiz-adv-x="1297" d="M102 563Q102 724 146 839T266 1027T445 1134T666 1168Q931 1168 1062 1012T1194 580Q1194 419 1150 304T1030 116T851 9T630 -25Q366 -25 234 131T102 563ZM907 558Q907 792 851 917T642 1042Q514
1042 452 937T390 586Q390 353 446 228T655 102Q783 102 845 208T907 558ZM497 1778L860 1346L782 1257Q716 1297 650 1345T525 1442T417 1540T334 1633L497 1778Z" />
<glyph unicode="&#xf3;" glyph-name="oacute" horiz-adv-x="1297" d="M102 563Q102 724 146 839T266 1027T445 1134T666 1168Q931 1168 1062 1012T1194 580Q1194 419 1150 304T1030 116T851 9T630 -25Q366 -25 234 131T102 563ZM907 558Q907 792 851 917T642 1042Q514
1042 452 937T390 586Q390 353 446 228T655 102Q783 102 845 208T907 558ZM552 1257L478 1341L852 1778L1015 1633Q982 1590 931 1541T818 1443T687 1345T552 1257Z" />
<glyph unicode="&#xf4;" glyph-name="ocircumflex" horiz-adv-x="1297" d="M102 563Q102 724 146 839T266 1027T445 1134T666 1168Q931 1168 1062 1012T1194 580Q1194 419 1150 304T1030 116T851 9T630 -25Q366 -25 234 131T102 563ZM907 558Q907 792 851 917T642
1042Q514 1042 452 937T390 586Q390 353 446 228T655 102Q783 102 845 208T907 558ZM346 1261L259 1340L543 1729L728 1745L1043 1347L950 1262L636 1531L346 1261Z" />
<glyph unicode="&#xf5;" glyph-name="otilde" horiz-adv-x="1297" d="M102 563Q102 724 146 839T266 1027T445 1134T666 1168Q931 1168 1062 1012T1194 580Q1194 419 1150 304T1030 116T851 9T630 -25Q366 -25 234 131T102 563ZM907 558Q907 792 851 917T642 1042Q514
1042 452 937T390 586Q390 353 446 228T655 102Q783 102 845 208T907 558ZM1074 1563Q1060 1513 1036 1465T976 1378T896 1317T795 1293Q741 1293 697 1315T613 1363T539 1411T466 1433Q417 1433 378 1392T309 1304L224 1352Q238 1402 262 1451T322 1538T402 1599T502
1623Q556 1623 601 1601T684 1553T759 1505T831 1483Q880 1483 919 1523T989 1612L1074 1563Z" />
<glyph unicode="&#xf6;" glyph-name="odieresis" horiz-adv-x="1297" d="M102 563Q102 724 146 839T266 1027T445 1134T666 1168Q931 1168 1062 1012T1194 580Q1194 419 1150 304T1030 116T851 9T630 -25Q366 -25 234 131T102 563ZM907 558Q907 792 851 917T642
1042Q514 1042 452 937T390 586Q390 353 446 228T655 102Q783 102 845 208T907 558ZM1019 1470Q1019 1405 980 1365T877 1324Q814 1324 775 1364T735 1470Q735 1534 774 1574T877 1615Q940 1615 979 1575T1019 1470ZM561 1470Q561 1405 522 1365T420 1324Q356 1324
317 1364T277 1470Q277 1534 316 1574T420 1615Q483 1615 522 1575T561 1470Z" />
<glyph unicode="&#xf7;" glyph-name="divide" horiz-adv-x="1187" d="M740 981Q740 921 700 883T593 845Q528 845 488 883T447 981Q447 1042 487 1080T593 1118Q659 1118 699 1080T740 981ZM1055 533H133V703H1055V533ZM740 254Q740 194 700 156T593 117Q528 117
488 155T447 254Q447 315 487 353T593 391Q659 391 699 353T740 254Z" />
<glyph unicode="&#xf8;" glyph-name="oslash" horiz-adv-x="1297" d="M372 586Q372 470 385 380T430 229L791 1003Q762 1023 725 1033T641 1044Q508 1044 440 938T372 586ZM655 100Q788 100 856 206T924 558Q924 670 912 758T869 906L511 137Q539 119 575 110T655
100ZM630 -25Q581 -25 537 -20T452 -3L354 -199L234 -136L327 51Q214 120 158 251T102 563Q102 724 146 839T266 1027T445 1134T666 1168Q717 1168 763 1162T851 1144L942 1327L1063 1264L975 1089Q1085 1019 1139 889T1194 580Q1194 419 1150 304T1030 116T851
9T630 -25Z" />
<glyph unicode="&#xf9;" glyph-name="ugrave" horiz-adv-x="1412" d="M1139 -18Q1057 -18 1008 20T936 124Q871 57 786 17T581 -23Q397 -23 311 78T224 386V914Q224 939 212 955T174 975L56 999V1114Q146 1138 253 1150T450 1163L487 1127V427Q487 273 530 206T686
139Q749 139 808 158T920 218V915Q920 940 908 956T871 976L733 1001V1116Q779 1127 832 1136T939 1151T1047 1160T1146 1163L1183 1127V202Q1183 168 1198 155T1239 139L1348 128V20Q1314 8 1253 -5T1139 -18ZM518 1778L881 1346L803 1257Q737 1297 671 1345T546
1442T438 1540T355 1633L518 1778Z" />
<glyph unicode="&#xfa;" glyph-name="uacute" horiz-adv-x="1412" d="M1139 -18Q1057 -18 1008 20T936 124Q871 57 786 17T581 -23Q397 -23 311 78T224 386V914Q224 939 212 955T174 975L56 999V1114Q146 1138 253 1150T450 1163L487 1127V427Q487 273 530 206T686
139Q749 139 808 158T920 218V915Q920 940 908 956T871 976L733 1001V1116Q779 1127 832 1136T939 1151T1047 1160T1146 1163L1183 1127V202Q1183 168 1198 155T1239 139L1348 128V20Q1314 8 1253 -5T1139 -18ZM573 1257L499 1341L873 1778L1036 1633Q1003 1590
952 1541T839 1443T708 1345T573 1257Z" />
<glyph unicode="&#xfb;" glyph-name="ucircumflex" horiz-adv-x="1412" d="M1139 -18Q1057 -18 1008 20T936 124Q871 57 786 17T581 -23Q397 -23 311 78T224 386V914Q224 939 212 955T174 975L56 999V1114Q146 1138 253 1150T450 1163L487 1127V427Q487 273 530
206T686 139Q749 139 808 158T920 218V915Q920 940 908 956T871 976L733 1001V1116Q779 1127 832 1136T939 1151T1047 1160T1146 1163L1183 1127V202Q1183 168 1198 155T1239 139L1348 128V20Q1314 8 1253 -5T1139 -18ZM367 1261L280 1340L564 1729L749 1745L1064
1347L971 1262L657 1531L367 1261Z" />
<glyph unicode="&#xfc;" glyph-name="udieresis" horiz-adv-x="1412" d="M1139 -18Q1057 -18 1008 20T936 124Q871 57 786 17T581 -23Q397 -23 311 78T224 386V914Q224 939 212 955T174 975L56 999V1114Q146 1138 253 1150T450 1163L487 1127V427Q487 273 530
206T686 139Q749 139 808 158T920 218V915Q920 940 908 956T871 976L733 1001V1116Q779 1127 832 1136T939 1151T1047 1160T1146 1163L1183 1127V202Q1183 168 1198 155T1239 139L1348 128V20Q1314 8 1253 -5T1139 -18ZM1040 1470Q1040 1405 1001 1365T898 1324Q835
1324 796 1364T756 1470Q756 1534 795 1574T898 1615Q961 1615 1000 1575T1040 1470ZM582 1470Q582 1405 543 1365T441 1324Q377 1324 338 1364T298 1470Q298 1534 337 1574T441 1615Q504 1615 543 1575T582 1470Z" />
<glyph unicode="&#xfd;" glyph-name="yacute" horiz-adv-x="1269" d="M294 -517Q234 -517 170 -511T47 -495V-355Q164 -342 255 -323T417 -265T543 -164T643 0H524L164 948Q156 970 141 982T104 1001L23 1025V1137H606V1023L442 992L718 213L966 993L810 1023V1137H1252V1025L1171
1001Q1147 994 1134 983T1111 946L774 -35Q689 -281 579 -399T294 -517ZM578 1257L504 1341L878 1778L1041 1633Q1008 1590 957 1541T844 1443T713 1345T578 1257Z" />
<glyph unicode="&#xfe;" glyph-name="thorn" horiz-adv-x="1315" d="M622 99Q763 99 847 204T933 570Q936 797 867 898T663 999Q596 999 540 980T447 931V138Q481 119 526 109T622 99ZM662 -381V-496H14V-381L133 -361Q158 -357 171 -342T184 -302V1551Q184 1576
171 1591T132 1610L-10 1631V1740Q37 1753 91 1763T200 1781T309 1793T409 1799L447 1763V1036Q507 1095 587 1131T774 1168Q868 1168 948 1137T1087 1039T1179 870T1213 625Q1213 471 1172 350T1054 147T867 21T618 -23Q577 -23 533 -18T447 -2V-302Q447 -328
460 -343T499 -361L662 -381Z" />
<glyph unicode="&#xff;" glyph-name="ydieresis" horiz-adv-x="1269" d="M294 -517Q234 -517 170 -511T47 -495V-355Q164 -342 255 -323T417 -265T543 -164T643 0H524L164 948Q156 970 141 982T104 1001L23 1025V1137H606V1023L442 992L718 213L966 993L810 1023V1137H1252V1025L1171
1001Q1147 994 1134 983T1111 946L774 -35Q689 -281 579 -399T294 -517ZM1045 1470Q1045 1405 1006 1365T903 1324Q840 1324 801 1364T761 1470Q761 1534 800 1574T903 1615Q966 1615 1005 1575T1045 1470ZM587 1470Q587 1405 548 1365T446 1324Q382 1324 343 1364T303
1470Q303 1534 342 1574T446 1615Q509 1615 548 1575T587 1470Z" />
<glyph unicode="&#x2013;" glyph-name="endash" horiz-adv-x="1469" d="M151 506V685H1319V506H151Z" />
<glyph unicode="&#x2014;" glyph-name="emdash" horiz-adv-x="2232" d="M151 506V685H2082V506H151Z" />
<glyph unicode="&#x2018;" glyph-name="quoteleft" horiz-adv-x="570" d="M97 1436Q97 1510 122 1578T191 1705T294 1812T421 1895L476 1825Q407 1768 357 1700T306 1565Q306 1526 322 1513T362 1484Q391 1465 416 1432T442 1346Q442 1280 398 1236T285 1192Q207
1192 152 1254T97 1436Z" />
<glyph unicode="&#x2019;" glyph-name="quoteright" horiz-adv-x="572" d="M485 1632Q485 1558 460 1490T391 1362T288 1255T161 1172L106 1243Q175 1299 226 1368T277 1503Q277 1542 261 1555T220 1584Q191 1602 166 1635T141 1721Q141 1787 184 1831T297 1875Q375
1875 430 1813T485 1632Z" />
<glyph unicode="&#x201a;" glyph-name="quotesinglbase" horiz-adv-x="630" d="M483 166Q483 92 458 24T389 -104T286 -211T159 -294L104 -223Q173 -167 224 -98T275 37Q275 76 259 89T218 118Q189 136 164 169T139 255Q139 321 182 365T295 409Q373 409 428 347T483
166Z" />
<glyph unicode="&#x201c;" glyph-name="quotedblleft" horiz-adv-x="1012" d="M540 1436Q540 1510 565 1578T634 1705T737 1812T864 1895L919 1825Q850 1768 800 1700T749 1565Q749 1526 765 1513T805 1484Q834 1465 859 1432T885 1346Q885 1280 841 1236T728
1192Q650 1192 595 1254T540 1436ZM97 1436Q97 1510 122 1578T191 1705T294 1812T421 1895L476 1825Q407 1768 357 1700T306 1565Q306 1526 322 1513T362 1484Q391 1465 416 1432T442 1346Q442 1280 398 1236T285 1192Q207 1192 152 1254T97 1436Z" />
<glyph unicode="&#x201d;" glyph-name="quotedblright" horiz-adv-x="1014" d="M485 1632Q485 1558 460 1490T391 1362T288 1255T161 1172L106 1243Q175 1299 226 1368T277 1503Q277 1542 261 1555T220 1584Q191 1602 166 1635T141 1721Q141 1787 184 1831T297
1875Q375 1875 430 1813T485 1632ZM928 1632Q928 1558 903 1490T834 1362T731 1255T604 1172L549 1243Q618 1299 669 1368T720 1503Q720 1542 704 1555T663 1584Q634 1602 609 1635T584 1721Q584 1787 627 1831T740 1875Q818 1875 873 1813T928 1632Z" />
<glyph unicode="&#x201e;" glyph-name="quotedblbase" horiz-adv-x="1072" d="M483 166Q483 92 458 24T389 -104T286 -211T159 -294L104 -223Q173 -167 224 -98T275 37Q275 76 259 89T218 118Q189 136 164 169T139 255Q139 321 182 365T295 409Q373 409 428 347T483
166ZM926 166Q926 92 901 24T832 -104T729 -211T602 -294L547 -223Q616 -167 667 -98T718 37Q718 76 702 89T661 118Q632 136 607 169T582 255Q582 321 625 365T738 409Q816 409 871 347T926 166Z" />
<glyph unicode="&#x2022;" glyph-name="bullet" horiz-adv-x="898" d="M708 635Q708 524 637 457T449 389Q332 389 261 456T190 635Q190 746 261 813T449 880Q566 880 637 813T708 635Z" />
<glyph unicode="&#x2039;" glyph-name="guilsinglleft" horiz-adv-x="850" d="M666 93L94 537V685L666 1140L748 1044L379 612L751 189L666 93Z" />
<glyph unicode="&#x203a;" glyph-name="guilsinglright" horiz-adv-x="850" d="M184 93L99 189L471 612L102 1044L184 1140L756 685V537L184 93Z" />
</font>
</defs>
</svg>
