<?xml version="1.0" standalone="no"?>
<!DOCTYPE svg PUBLIC "-//W3C//DTD SVG 1.1//EN" "http://www.w3.org/Graphics/SVG/1.1/DTD/svg11.dtd">
<svg xmlns="http://www.w3.org/2000/svg">
<defs >
<font id="BigshotOne" horiz-adv-x="519" ><font-face
    font-family="Bigshot One"
    units-per-em="1000"
    panose-1="2 0 5 3 2 0 0 2 0 4"
    ascent="869"
    descent="-179"
    alphabetic="0" />
<glyph unicode=" " glyph-name="space" horiz-adv-x="160" />
<glyph unicode="!" glyph-name="exclam" horiz-adv-x="312" d="M213 198H160L100 492Q100 535 120 560T186 586Q228 586 248 560T268 492L213 198ZM106 62Q106 107 125 128T189 149Q237 149 254 128T272 62Q272 17 253 -3T189 -24Q144 -24 125 -4T106 62Z" />
<glyph unicode="&quot;" glyph-name="quotedbl" horiz-adv-x="282" d="M50 615H122L112 423H60L50 615ZM160 615H232L222 423H170L160 615Z" />
<glyph unicode="#" glyph-name="numbersign" horiz-adv-x="464" d="M116 240L136 342H64V400H148L183 577H245L210 400H298L333 577H395L360 400H424V342H348L328 240H400V182H317L281 0H219L255 182H167L131 0H69L105 182H40V240H116ZM178 240H266L286 342H198L178 240Z" />
<glyph unicode="$" glyph-name="dollar" horiz-adv-x="563" d="M50 404Q50 436 61 464T96 513T160 548T257 565V624H319V565Q342 563 361 559T397 550L491 569V389Q429 391 391 423T344 514L319 519V344L326 342Q357 332 391 317T453 281T499 231T518 165Q518
80 462 37T309 -13V-66H247V-14Q209 -13 185 -9T147 1L63 -15V194Q100 193 128 181T175 147T206 96T219 32L247 30V220Q214 234 180 248T116 283T69 331T50 404ZM345 106Q345 129 336 148T309 182V32L333 34Q336 41 339 52Q341 61 343 74T345 106ZM221 452Q221
423 230 405T257 373V521L234 518Q230 509 227 498Q225 489 223 477T221 452Z" />
<glyph unicode="%" glyph-name="percent" horiz-adv-x="817" d="M302 0H236L516 577H582L302 0ZM177 442Q177 420 178 402T181 370Q183 354 186 340Q196 336 204 336Q212 336 222 340Q224 354 226 371Q228 385 229 403T231 442Q231 464 230 483T226 516Q224 532
222 545Q214 549 204 549Q196 549 186 545Q183 531 181 514Q179 500 178 482T177 442ZM50 443Q50 520 84 553T205 586Q247 586 276 578T323 553T349 509T357 443Q357 404 349 377T323 333T276 308T205 300Q119 300 85 333T50 443ZM587 133Q587 111 588 93T591 61Q593
45 596 31Q606 27 614 27Q622 27 632 31Q634 45 636 62Q638 76 639 94T641 133Q641 155 640 174T636 207Q634 223 632 236Q624 240 614 240Q606 240 596 236Q593 222 591 205Q589 191 588 173T587 133ZM460 134Q460 211 494 244T615 277Q657 277 686 269T733 244T759
200T767 134Q767 95 759 68T733 24T686 -1T615 -9Q529 -9 495 24T460 134Z" />
<glyph unicode="&amp;" glyph-name="ampersand" horiz-adv-x="610" d="M318 559Q306 559 296 559T277 557Q267 556 260 555Q256 546 252 534Q249 523 247 508T245 472Q245 451 246 434T249 404Q251 389 254 377H600V319H496V181Q496 128 481 93T437 37T367 7T274
-2Q220 -2 177 6T105 36T61 92T45 180Q45 246 75 289T168 348Q116 363 91 393T66 474Q66 553 127 585T318 617Q345 617 376 613T433 596T477 561T495 502V495H435V501Q435 519 425 530T399 547T361 556T318 559ZM247 61Q251 59 255 58Q265 56 279 56Q360 56 399
85T438 188V319H252Q245 300 241 278Q237 259 234 234T231 183Q231 155 233 133T239 95Q243 77 247 61Z" />
<glyph unicode="&apos;" glyph-name="quotesingle" horiz-adv-x="172" d="M50 615H122L112 423H60L50 615Z" />
<glyph unicode="(" glyph-name="parenleft" horiz-adv-x="392" d="M322 -135Q252 -127 199 -95T109 -11T54 113T35 272Q35 359 53 430T108 555T198 640T322 680V619Q297 615 279 609T249 595Q235 587 224 577Q219 529 215 477Q211 432 209 379T206 272Q206 219
208 165T215 67Q219 15 224 -32Q235 -42 249 -50Q261 -57 279 -64T322 -74V-135Z" />
<glyph unicode=")" glyph-name="parenright" horiz-adv-x="392" d="M70 -74Q94 -71 112 -64T143 -50Q157 -42 168 -32Q173 15 177 67Q180 111 183 165T186 272Q186 325 183 378T177 477Q173 529 168 577Q157 587 143 595Q131 602 113 608T70 619V680Q140 672 193
640T283 555T338 431T357 272Q357 185 339 114T284 -10T194 -95T70 -135V-74Z" />
<glyph unicode="*" glyph-name="asterisk" horiz-adv-x="436" d="M188 496L165 592Q165 609 175 620T208 631Q228 631 238 620T248 592L227 498L309 550Q317 552 323 552Q340 552 351 538T362 506Q362 494 354 485T334 471L250 464Q252 461 256 457Q259 453 262
448T271 438Q283 424 296 413T327 401Q341 401 355 403T386 411V358Q372 353 358 351T330 348Q281 348 256 371T210 440L171 347Q162 331 141 331Q125 331 111 343T97 372Q97 384 103 395L179 460L78 468Q66 472 58 480T50 502Q50 519 60 534T90 550Q97 550 103
547L188 496Z" />
<glyph unicode="+" glyph-name="plus" horiz-adv-x="472" d="M205 234H50V292H205V449H267V292H422V234H267V77H205V234Z" />
<glyph unicode="," glyph-name="comma" horiz-adv-x="266" d="M50 62Q50 107 69 128T133 149Q181 149 198 128T216 62Q216 8 213 -27T197 -85T155 -116T74 -125V-77H82Q124 -77 142 -66T162 -21Q148 -24 133 -24Q88 -24 69 -4T50 62Z" />
<glyph unicode="-" glyph-name="hyphen" horiz-adv-x="392" d="M342 322V264H50V322H342Z" />
<glyph unicode="." glyph-name="period" horiz-adv-x="266" d="M50 62Q50 107 69 128T133 149Q181 149 198 128T216 62Q216 17 197 -3T133 -24Q88 -24 69 -4T50 62Z" />
<glyph unicode="/" glyph-name="slash" horiz-adv-x="408" d="M108 -46H40L300 644H368L108 -46Z" />
<glyph unicode="0" glyph-name="zero" horiz-adv-x="605" d="M232 288Q232 237 235 193T244 117Q249 79 257 47Q263 45 270 43Q276 41 284 40T302 39Q311 39 319 40T334 43Q341 45 347 47Q354 80 360 119Q365 152 369 195T373 288Q373 339 369 382T360 458Q354
496 347 528Q341 530 334 532Q328 534 320 535T302 536Q293 536 285 535T270 532Q263 530 257 528Q249 495 244 456Q239 423 236 380T232 288ZM50 287Q50 368 64 424T109 517T187 569T303 586Q370 586 418 570T496 517T541 425T555 287Q555 207 541 151T497 58T418
6T303 -11Q235 -11 188 5T109 58T64 150T50 287Z" />
<glyph unicode="1" glyph-name="one" horiz-adv-x="411" d="M134 543L266 595H287V58H376V0H40V58H129V485H40V543H134Z" />
<glyph unicode="2" glyph-name="two" horiz-adv-x="477" d="M225 588Q273 588 308 576T365 541T399 489T410 425Q410 364 381 329T291 269Q259 255 229 241T173 204Q162 194 153 185T137 168Q129 159 123 152H369V219H421Q423 208 426 193Q428 180 430 163T432
124Q432 64 407 32T314 0H20Q25 84 53 141T141 242Q156 253 170 262T196 279L221 294Q224 314 228 335Q230 353 232 375T235 419Q235 436 233 456T227 494Q223 514 220 535Q196 535 172 533T127 524T94 507T81 478V452H21V479Q21 517 43 538T96 571T163 585T225
588Z" />
<glyph unicode="3" glyph-name="three" horiz-adv-x="460" d="M226 339Q228 356 231 376T234 419Q234 436 232 456T226 494Q222 514 219 535Q195 535 171 533T126 524T93 507T80 478V452H20V479Q20 517 42 538T95 571T162 585T224 588Q272 588 306 576T361 541T391
489T401 425Q401 380 388 352T343 303Q380 283 397 249T415 155Q415 77 371 34T224 -10Q197 -10 162 -7T96 7T42 39T20 99V131H80V100Q80 82 93 71T126 54T170 46T219 43Q222 63 226 82Q229 99 231 118T234 156Q234 188 230 224T223 281H129V339H226Z" />
<glyph unicode="4" glyph-name="four" horiz-adv-x="517" d="M-10 182L245 581L403 606V219H512V161H403V58H492V0H146V58H245V161H-10V182ZM245 219V463L92 219H245Z" />
<glyph unicode="5" glyph-name="five" horiz-adv-x="455" d="M121 426V339H203Q254 339 295 334T365 310T409 256T425 160Q425 78 378 34T234 -10Q207 -10 172 -7T106 7T52 39T30 99V126H90V100Q90 82 103 71T136 54T180 46T229 43Q232 65 236 87Q239 106 241
127T244 166Q244 186 242 206T238 244Q235 263 233 281H63V574H339V631H390Q392 623 395 612Q397 602 399 587T401 550Q401 490 376 458T283 426H121Z" />
<glyph unicode="6" glyph-name="six" horiz-adv-x="547" d="M279 -10Q216 -10 173 6T102 58T62 150T50 287Q50 368 62 424T100 517T169 569T273 586Q300 586 335 583T401 569T454 536T476 477V450H416V476Q416 494 404 505T371 522T327 530T278 533Q268 533 261
533T249 531Q244 530 240 529Q237 500 235 467T233 399V342Q244 343 255 343T279 344Q331 344 373 338T445 314T491 262T507 174Q507 128 495 94T456 36T386 2T279 -10ZM232 166Q232 139 234 116T238 76Q241 56 244 40Q248 38 253 37Q258 36 264 36T279 35Q287
35 293 35T305 37Q310 38 314 40Q317 56 320 76Q322 93 324 116T327 166Q327 193 325 216T320 257Q317 277 314 293L304 295Q299 296 293 297T279 298Q271 298 258 298T232 296V166Z" />
<glyph unicode="7" glyph-name="seven" horiz-adv-x="438" d="M211 289Q228 326 245 360T279 426H128Q94 426 72 434T36 458T16 497T10 550Q10 590 15 612Q18 623 21 631H72V574H428V552Q406 515 382 473Q362 437 337 390T289 289H356V231H264Q238 168 221 108T204
0H131Q131 50 146 109T187 231H105V289H211Z" />
<glyph unicode="8" glyph-name="eight" horiz-adv-x="576" d="M73 442Q73 476 83 503T118 548T181 576T278 586H298Q329 586 352 586T392 591T416 605T425 631H479Q479 599 464 583T423 558Q456 540 470 511T484 442Q484 395 465 365T397 321Q454 305 480 268T507
167Q507 76 453 33T278 -10Q158 -10 104 33T50 167Q50 231 76 268T160 321Q112 335 93 365T73 442ZM232 166Q232 139 234 116T238 75Q241 55 244 39Q248 38 253 37Q258 36 264 36T279 35Q287 35 294 35T306 37Q311 38 315 39Q318 55 321 75Q323 92 325 115T327
166Q327 193 325 217T321 258Q318 278 315 295H244Q241 278 238 258Q236 241 234 217T232 166ZM244 442Q244 422 245 405T248 375Q250 360 253 348H306Q308 360 310 375Q312 388 313 405T315 442Q315 462 314 479T310 510Q308 525 306 537Q302 537 298 538Q294
539 290 539T279 540Q268 540 260 538Q256 537 253 537Q250 525 248 510Q246 497 245 480T244 442Z" />
<glyph unicode="9" glyph-name="nine" horiz-adv-x="547" d="M268 586Q331 586 374 570T445 518T485 426T497 289Q497 208 485 152T447 59T378 7T274 -10Q247 -10 212 -7T146 7T93 39T71 99V126H131V100Q131 82 143 71T176 54T220 46T269 43Q279 43 286 43T298
45Q303 46 307 47Q310 76 312 109T314 177V234Q303 233 292 233T268 232Q215 232 173 238T102 262T56 314T40 402Q40 448 52 482T91 540T161 574T268 586ZM315 410Q315 437 313 460T309 500Q306 519 303 536Q299 537 294 538Q289 539 283 540T268 541Q259 541 253
540T242 538Q237 537 233 536Q229 519 226 500Q224 483 222 460T220 410Q220 382 222 359T226 319Q229 299 233 283Q238 281 243 280Q248 279 254 279T268 278Q276 278 289 278T315 280V410Z" />
<glyph unicode=":" glyph-name="colon" horiz-adv-x="286" d="M80 62Q80 107 99 128T163 149Q211 149 228 128T246 62Q246 17 227 -3T163 -24Q118 -24 99 -4T80 62ZM80 369Q80 414 99 435T163 456Q211 456 228 435T246 369Q246 324 227 304T163 283Q118 283 99
303T80 369Z" />
<glyph unicode=";" glyph-name="semicolon" horiz-adv-x="286" d="M80 369Q80 414 99 435T163 456Q211 456 228 435T246 369Q246 324 227 304T163 283Q118 283 99 303T80 369ZM80 62Q80 107 99 128T163 149Q211 149 228 128T246 62Q246 8 243 -27T227 -85T185
-116T104 -125V-77H112Q154 -77 172 -66T192 -21Q178 -24 163 -24Q118 -24 99 -4T80 62Z" />
<glyph unicode="&lt;" glyph-name="less" horiz-adv-x="391" d="M296 450L329 402L134 267L331 130L296 80L30 265L296 450Z" />
<glyph unicode="=" glyph-name="equal" horiz-adv-x="472" d="M412 395V337H60V395H412ZM412 235V177H60V235H412Z" />
<glyph unicode="&gt;" glyph-name="greater" horiz-adv-x="391" d="M95 80L62 128L256 263L60 400L95 450L361 265L95 80Z" />
<glyph unicode="?" glyph-name="question" horiz-adv-x="394" d="M105 62Q105 107 124 128T188 149Q236 149 253 128T271 62Q271 17 252 -3T188 -24Q143 -24 124 -4T105 62ZM159 198V294Q170 306 179 324Q187 339 193 363T199 419Q199 444 198 465T194 502Q191
520 189 535Q141 535 111 523T80 478V452H20V479Q20 516 39 537T85 570T145 584T204 588Q252 588 285 576T337 541T365 489T374 425Q374 391 364 361T334 309T283 273T212 260V198H159Z" />
<glyph unicode="@" glyph-name="at" horiz-adv-x="836" d="M594 94H604Q666 94 686 137T707 260Q707 381 638 443T429 505Q360 505 306 486T213 431T155 342T134 220Q134 83 196 11T389 -62Q414 -62 439 -60T485 -51T519 -36T532 -12V0H594V-11Q594 -37 579 -57T537
-90T471 -111T388 -119Q229 -119 150 -32T70 221Q70 303 94 366T165 473T278 539T428 562Q596 562 683 488T771 261Q771 214 763 174T734 105T681 59T597 42Q551 42 512 52T453 82Q430 63 404 53T347 42Q280 42 245 83T209 225Q209 276 219 310T251 367T310 398T399
408Q429 408 456 403T499 394L594 398V94ZM436 361Q431 362 427 362T419 363Q411 363 405 362T394 360Q389 359 385 358Q382 342 379 322Q377 305 375 281T373 225Q373 187 375 163T379 123Q382 105 385 96Q410 96 436 120V361Z" />
<glyph unicode="A" glyph-name="A" horiz-adv-x="628" d="M77 58L265 598L393 621L618 21V0H436L365 197H187L139 58H247V0H10V58H77ZM207 255H344L275 448L207 255Z" />
<glyph unicode="B" glyph-name="B" horiz-adv-x="639" d="M114 58V557H25V615H255Q273 615 289 616T321 617Q450 617 511 583T573 463Q573 404 544 372T470 327Q533 311 563 274T594 170Q594 123 579 90T532 37T453 7T341 -2Q324 -2 304 -1T261 0H25V58H114ZM282
300V51Q307 48 341 48Q352 48 361 48T378 50Q386 51 392 53Q396 68 400 86Q403 102 405 123T408 173Q408 199 405 222T397 263Q393 283 387 300H282ZM321 566Q300 566 282 563V352H385Q387 366 389 384Q391 399 392 418T394 461Q394 484 392 502T386 535Q382 550
379 562Q372 563 362 564Q354 565 343 565T321 566Z" />
<glyph unicode="C" glyph-name="C" horiz-adv-x="572" d="M516 411Q454 411 418 435T364 489T339 546T333 580Q316 579 303 578T280 575Q269 573 261 571Q252 536 246 494Q241 458 237 410T232 308Q232 253 236 206T246 122Q252 80 261 44Q267 42 277 40Q293 37
328 37Q361 37 388 44T436 68T467 111T479 175V206H537V178Q537 127 520 91T474 31T408 -4T328 -15Q256 -15 203 2T115 59T62 159T45 308Q45 395 62 456T116 556T209 612T344 630Q378 630 409 628T464 622Q492 618 516 615V411Z" />
<glyph unicode="D" glyph-name="D" horiz-adv-x="710" d="M151 615Q168 615 195 616T253 617T313 619T365 620Q443 620 500 604T593 551T647 455T665 308Q665 221 648 161T594 65T500 12T365 -4Q337 -4 307 -4T247 -2T193 -1T151 0H25V58H114V557H25V615H151ZM282
570V48H402Q418 48 429 49Q441 50 449 51Q457 85 463 126Q468 161 473 207T478 308Q478 364 473 410T463 491Q457 531 449 563Q441 564 429 566Q418 568 403 569T365 570H282Z" />
<glyph unicode="E" glyph-name="E" horiz-adv-x="617" d="M552 615V411Q502 411 470 427T417 466T386 514T372 557H282V335H457V277H282V58H387Q391 76 401 101T431 149T484 188T567 205V0H25V58H114V557H25V615H552Z" />
<glyph unicode="F" glyph-name="F" horiz-adv-x="562" d="M542 615V396Q492 396 459 414T405 457T375 510T362 557H282V315H447V257H282V58H373V0H25V58H114V257H25V315H114V557H25V615H542Z" />
<glyph unicode="G" glyph-name="G" horiz-adv-x="661" d="M596 411Q536 411 501 433T446 485T420 541T413 578Q394 580 376 580H344Q324 580 309 579T283 575Q271 573 261 571Q252 536 246 494Q241 458 237 410T232 308Q232 253 236 206T246 122Q252 80 261 44Q272
41 285 39Q296 37 311 36T344 35Q364 35 389 39T438 53V242H380V300H606V4L487 17Q452 0 414 -7T344 -15Q266 -15 210 2T117 59T63 159T45 308Q45 395 62 456T116 556T209 612T344 630Q378 630 421 628T504 622Q550 618 596 615V411Z" />
<glyph unicode="H" glyph-name="H" horiz-adv-x="736" d="M711 615V557H622V58H711V0H454V277H282V58H355V0H25V58H114V557H25V615H332V557H282V335H454V557H404V615H711Z" />
<glyph unicode="I" glyph-name="I" horiz-adv-x="396" d="M371 615V557H282V58H371V0H25V58H114V557H25V615H371Z" />
<glyph unicode="J" glyph-name="J" horiz-adv-x="498" d="M188 236V178H121V122Q121 109 124 96T133 73T151 56T178 49H221V557H132V615H478V557H389V130Q389 90 379 64T346 21T290 -3T209 -10Q164 -10 135 -1T89 24T65 65T58 120V178H-15V236H188Z" />
<glyph unicode="K" glyph-name="K" horiz-adv-x="658" d="M658 0H474L290 286H282V58H351V0H25V58H114V557H25V615H282V347L471 557H395V615H652V557H551L409 399L658 21V0Z" />
<glyph unicode="L" glyph-name="L" horiz-adv-x="567" d="M25 0V58H114V557H25V615H371V557H282V58H366Q368 76 376 103T403 155T454 197T537 215V0H25Z" />
<glyph unicode="M" glyph-name="M" horiz-adv-x="853" d="M288 615L437 264L571 615H828V557H739V58H828V0H571V450L399 2L398 3L397 0H366L177 456V58H266V0H25V58H114V557H25V615H288Z" />
<glyph unicode="N" glyph-name="N" horiz-adv-x="666" d="M178 615L504 285V557H415V615H656V557H567V0H536L177 378V58H266V0H25V58H114V557H25V615H178Z" />
<glyph unicode="O" glyph-name="O" horiz-adv-x="690" d="M45 308Q45 395 62 456T116 556T209 612T344 630Q354 630 363 630T381 629H441Q477 629 505 631T552 640T581 662T591 701H645Q645 644 617 620T534 587Q591 551 617 483T644 308Q644 221 627 160T573
59T479 3T344 -15Q266 -15 210 2T117 59T63 159T45 308ZM232 308Q232 251 236 203T246 120Q252 79 261 44Q271 41 283 39Q294 37 309 36T344 35Q364 35 380 36T407 39Q419 41 428 44Q436 81 442 123Q447 159 452 206T457 308Q457 364 452 412T442 495Q436 536 428
571Q418 573 406 575Q395 577 380 578T344 580Q324 580 309 579T283 575Q271 573 261 571Q252 534 246 492Q241 456 237 409T232 308Z" />
<glyph unicode="P" glyph-name="P" horiz-adv-x="604" d="M261 615Q272 615 285 615T309 616T329 616T341 617Q470 617 532 575T594 431Q594 330 533 288T341 246H313Q298 246 282 247V58H371V0H25V58H114V557H25V615H261ZM341 566Q324 566 309 565T282 562V302Q307
299 341 299Q364 299 378 302Q386 303 392 305Q396 319 400 337Q403 353 405 376T408 430Q408 461 406 485T400 526Q396 545 392 560Q386 561 378 563Q371 564 362 565T341 566Z" />
<glyph unicode="Q" glyph-name="Q" horiz-adv-x="689" d="M45 308Q45 395 62 456T116 556T209 612T344 630Q422 630 479 613T572 556T626 456T644 308Q644 225 628 166T579 67T495 9T374 -14V-78Q374 -99 383 -107T407 -115Q425 -115 431 -104T438 -81V-50H496V-80Q496
-91 493 -105T480 -133T453 -156T407 -166Q359 -166 338 -143T316 -78V-14Q245 -11 194 8T110 66T61 164T45 308ZM374 138V36Q398 37 414 41Q422 43 428 44Q436 81 442 123Q447 159 452 206T457 308Q457 364 452 412T442 495Q436 536 428 571Q418 573 406 575Q395
577 380 578T344 580Q324 580 309 579T283 575Q271 573 261 571Q252 534 246 492Q241 456 237 409T232 308Q232 251 236 203T246 120Q252 79 261 44Q267 43 275 41Q282 39 292 38T316 35V138H374Z" />
<glyph unicode="R" glyph-name="R" horiz-adv-x="650" d="M114 58V557H25V615H255Q273 615 294 616T321 617Q451 617 512 575T573 448Q573 389 545 355T473 303L648 21V0H464L299 280H282V58H351V0H25V58H114ZM321 566Q300 566 282 563V325H385Q387 343 389 363Q391
380 392 401T394 446Q394 469 392 490T386 527Q382 545 379 562Q372 563 362 564Q354 565 343 565T321 566Z" />
<glyph unicode="S" glyph-name="S" horiz-adv-x="553" d="M287 626Q319 626 345 622T392 610L486 629V425Q414 427 370 466T319 573Q299 577 272 577Q262 577 256 576T244 574L234 572Q230 564 227 553Q225 544 223 532T221 504Q221 451 244 426T321 384Q352 373
385 357T445 316T490 260T508 186Q508 82 444 34T265 -15Q216 -15 187 -10T142 1L58 -15V209Q97 208 127 195T178 158T211 104T225 36Q233 35 240 35H257Q267 35 278 35T300 37Q311 38 323 39Q326 46 329 57Q331 66 333 80T335 114Q335 158 314 184T261 230T193
265T124 303T71 358T50 444Q50 483 62 516T101 573T174 612T287 626Z" />
<glyph unicode="T" glyph-name="T" horiz-adv-x="658" d="M623 615V426Q574 426 545 440T499 475T476 517T469 557H413V58H502V0H156V58H245V557H188Q187 540 182 518T160 475T113 441T35 426V615H623Z" />
<glyph unicode="U" glyph-name="U" horiz-adv-x="666" d="M109 557H20V615H277V140Q277 123 279 106T284 74Q287 57 291 42Q294 40 305 39Q313 38 329 38T371 37Q430 37 464 58T499 130V557H395V615H661V557H562V130Q562 86 544 58T496 14T427 -8T344 -15Q291
-15 248 -9T173 13T126 58T109 130V557Z" />
<glyph unicode="V" glyph-name="V" horiz-adv-x="623" d="M550 557L345 -14H320L10 594V615H192L377 249L488 557H381V615H618V557H550Z" />
<glyph unicode="W" glyph-name="W" horiz-adv-x="928" d="M857 557L670 -14H645L452 390L320 -14H295L5 594V615H187L348 261L415 467L355 594V615H537L698 261L795 557H686V615H923V557H857Z" />
<glyph unicode="X" glyph-name="X" horiz-adv-x="626" d="M518 557L386 370L621 22V0H409L260 226L155 58H252V0H15V58H83L223 281L18 593V615H221L350 423L445 557H353V615H590V557H518Z" />
<glyph unicode="Y" glyph-name="Y" horiz-adv-x="598" d="M15 615H197L353 332L453 557H351V615H588V557H514L379 257V58H468V0H122V58H211V253L15 594V615Z" />
<glyph unicode="Z" glyph-name="Z" horiz-adv-x="593" d="M55 18L332 567H210Q210 552 205 528T184 482T138 443T56 426V615H536V596L266 48H385Q386 65 392 92T415 145T464 190T548 209V0H55V18Z" />
<glyph unicode="[" glyph-name="bracketleft" horiz-adv-x="382" d="M307 644V586H218V-47H307V-105H50V644H307Z" />
<glyph unicode="\" glyph-name="backslash" horiz-adv-x="408" d="M40 644H108L368 -46H300L40 644Z" />
<glyph unicode="]" glyph-name="bracketright" horiz-adv-x="382" d="M75 -105V-47H164V586H75V644H332V-105H75Z" />
<glyph unicode="^" glyph-name="asciicircum" horiz-adv-x="520" d="M270 615L445 363L395 328L258 524L123 330L75 363L250 615H270Z" />
<glyph unicode="_" glyph-name="underscore" horiz-adv-x="440" d="M440 -78V-136H0V-78H440Z" />
<glyph unicode="`" glyph-name="grave" horiz-adv-x="520" d="M382 514L357 486L160 595Q139 613 139 638Q139 650 144 661T158 682T178 697T200 703Q220 703 237 689L382 514Z" />
<glyph unicode="a" glyph-name="a" horiz-adv-x="516" d="M448 50H461Q470 50 479 51L501 53V5Q483 2 466 0Q452 -2 436 -3T410 -4Q361 -4 336 14T300 53Q278 25 250 9T184 -8Q116 -8 83 17T50 106Q50 128 50 148T53 183Q55 201 57 215L289 272Q288 301 287 325T285
367Q283 387 282 403Q279 404 273 405Q268 406 258 407T234 408Q225 408 217 408T201 406Q198 392 191 373T169 336T130 306T67 293V444Q99 447 132 450Q161 452 194 454T258 456Q323 456 360 445T417 407T442 335T448 223V50ZM216 46Q236 51 254 71T290 121V227L214
206Q212 190 211 174T210 141Q210 121 210 104T213 74Q214 59 216 46Z" />
<glyph unicode="b" glyph-name="b" horiz-adv-x="559" d="M5 615H64L222 644V403Q250 427 283 441T354 455Q395 455 427 443T480 403T513 331T524 223Q524 159 512 115T472 43T400 3T291 -9Q253 -9 219 -3T164 9L64 4V565H5V615ZM342 401Q309 401 278 380T222
326V45Q239 40 257 38T291 36Q315 36 329 39Q337 40 342 42Q347 65 351 93Q354 117 357 150T360 223Q360 271 357 304T351 360Q347 386 342 401Z" />
<glyph unicode="c" glyph-name="c" horiz-adv-x="445" d="M406 295Q364 295 339 309T298 343T277 381T270 411H246Q239 411 234 410T225 408Q221 406 217 405Q212 381 208 353Q204 329 202 296T199 223Q199 184 201 151T208 94Q212 66 217 43Q221 41 228 40Q233
39 242 39T264 38Q286 38 306 42T340 56T363 85T372 131H420Q420 83 404 55T364 13T311 -6T258 -10Q197 -10 155 2T86 42T47 114T35 223Q35 287 45 331T82 403T151 443T262 456Q286 456 311 455T358 452Q383 450 406 449V295Z" />
<glyph unicode="d" glyph-name="d" horiz-adv-x="568" d="M278 615H337L495 644V50H508Q517 50 526 51L548 53V5Q530 2 513 0Q499 -2 483 -3T457 -4Q408 -4 383 14T347 53Q318 24 282 8T205 -8Q164 -8 132 4T79 44T46 116T35 224Q35 288 47 332T87 404T159 444T268
456Q286 456 303 454L337 450V565H278V615ZM217 46Q250 46 281 67T337 120V401Q320 406 302 408T268 411Q255 411 246 410T230 408Q222 406 217 405Q212 381 208 353Q204 329 202 296T199 224Q199 176 201 143T208 87Q212 61 217 46Z" />
<glyph unicode="e" glyph-name="e" horiz-adv-x="486" d="M262 456Q317 456 353 446T411 412T442 352T451 259Q451 242 450 230T448 209Q447 199 446 194H199Q200 160 203 133T209 85Q213 61 217 43Q220 41 226 40Q231 39 240 39T265 38Q290 38 312 41T352 53T378
75T388 111H442Q442 69 424 45T378 9T318 -7T258 -10Q197 -10 155 2T86 42T47 114T35 223Q35 287 45 331T82 403T151 443T262 456ZM217 405Q212 383 208 357Q205 334 202 304T199 237H296Q294 279 291 310T284 363Q280 388 275 405Q272 406 268 408Q264 409 259
410T246 411Q239 411 234 410T225 408Q221 406 217 405Z" />
<glyph unicode="f" glyph-name="f" horiz-adv-x="369" d="M373 489Q332 489 306 503T265 536T244 574T237 604H203Q201 597 200 586Q197 566 197 526Q197 491 215 470T265 449H343V398H237V51H296V0H20V51H79V488Q79 522 89 552T119 604T171 638T245 651Q270 651
303 649T373 643V489Z" />
<glyph unicode="g" glyph-name="g" horiz-adv-x="538" d="M377 -114H417Q450 -114 458 -108T467 -85V-70H210Q162 -70 129 -63T77 -40T49 0T40 59Q40 85 47 104T64 136T87 157T111 169Q79 187 66 218T52 298Q52 341 63 371T101 420T169 447T272 456H392Q417 456
431 460T453 472T461 493T463 524H517Q517 470 500 446T451 413Q492 376 492 298Q492 254 481 224T443 176T375 149T272 140Q207 140 164 149Q152 146 140 141T116 127T98 107T91 82H381Q464 82 498 52T533 -43Q533 -75 528 -98T511 -136T475 -158T416 -166H377V-114ZM216
298Q216 274 218 254T223 220Q226 203 230 189Q235 188 241 187Q246 186 253 186T271 185Q281 185 289 185T302 187Q308 188 313 189Q316 203 320 220Q322 234 324 254T327 298Q327 321 325 341T320 376Q316 393 313 407L301 409Q296 410 288 410T271 411Q261 411
254 411T241 409Q235 408 230 407Q226 393 223 376Q220 362 218 342T216 298Z" />
<glyph unicode="h" glyph-name="h" horiz-adv-x="593" d="M25 615H84L242 644V399Q254 415 274 427Q291 438 319 447T391 456Q414 456 437 452T480 438T512 409T524 362V51H583V0H366V394Q364 394 360 395Q352 397 338 397Q317 397 301 389T272 369T253 347T242
329V51H301V0H25V51H84V565H25V615Z" />
<glyph unicode="i" glyph-name="i" horiz-adv-x="326" d="M30 441H89L247 465V51H306V0H30V51H89V391H30V441ZM89 597Q89 639 107 659T168 680Q213 680 230 660T247 597Q247 554 229 535T168 515Q125 515 107 534T89 597Z" />
<glyph unicode="j" glyph-name="j" horiz-adv-x="309" d="M27 441H86L244 465V-39Q244 -77 227 -96T166 -131L27 -179L10 -128L86 -101V391H27V441ZM86 597Q86 639 104 659T165 680Q210 680 227 660T244 597Q244 554 226 535T165 515Q122 515 104 534T86 597Z" />
<glyph unicode="k" glyph-name="k" horiz-adv-x="568" d="M288 238H242V51H301V0H25V51H84V565H25V615H84L242 644V292H311Q358 292 377 303T397 352V398H317V449H555V398H460V339Q460 298 438 273L536 50H548Q556 50 564 51Q573 52 583 53V5Q571 2 554 0Q540
-2 518 -3T466 -4Q443 -4 427 0T400 11T382 29T368 54L288 238Z" />
<glyph unicode="l" glyph-name="l" horiz-adv-x="348" d="M10 615H69L227 644V50Q266 50 276 70T287 138H338Q338 107 335 81T318 36T273 7T189 -4Q152 -4 129 7T92 33T74 65T69 93V565H10V615Z" />
<glyph unicode="m" glyph-name="m" horiz-adv-x="855" d="M30 431H89L240 460V393Q244 399 254 410T282 431T323 448T381 456Q400 456 420 453T457 443T489 424T509 393Q512 397 521 407T546 429T588 448T648 456Q671 456 694 452T737 438T769 409T781 362V51H840V0H623V394L620
395Q618 396 614 396T602 397Q585 397 571 388T545 368T525 345T514 328V51H573V0H356V394L353 395Q351 396 347 396T335 397Q318 397 304 388T278 368T258 345T247 328V51H306V0H30V51H89V381H30V431Z" />
<glyph unicode="n" glyph-name="n" horiz-adv-x="603" d="M30 431H89L240 460V390Q242 393 251 404T278 426T325 447T396 456Q419 456 442 452T485 438T517 409T529 362V51H588V0H371V394Q369 394 365 395Q357 397 343 397Q322 397 306 389T277 369T258 347T247
329V51H306V0H30V51H89V381H30V431Z" />
<glyph unicode="o" glyph-name="o" horiz-adv-x="536" d="M199 223Q199 184 201 151T208 93Q212 64 217 41Q222 39 230 38Q243 35 268 35Q292 35 306 38Q314 39 319 41Q324 64 328 93Q331 117 334 150T337 223Q337 262 334 295T328 353Q324 381 319 405Q313 406
305 408Q298 409 289 410T268 411Q255 411 246 410T230 408Q222 406 217 405Q212 381 208 353Q204 328 202 295T199 223ZM35 223Q35 287 47 331T87 403T159 443T268 456Q332 456 376 444T449 404T489 332T501 223Q501 159 489 115T449 43T377 3T268 -10Q203 -10
159 2T87 42T47 114T35 223Z" />
<glyph unicode="p" glyph-name="p" horiz-adv-x="578" d="M25 431H84L235 460V397Q264 424 299 439T373 455Q414 455 446 443T499 403T532 331T543 223Q543 159 531 115T491 43T419 3T310 -9Q292 -9 275 -7T242 -3V-165H25V-114H84V381H25V431ZM361 401Q328 401
297 380T242 328V45Q259 40 277 38T310 36Q334 36 348 39Q356 40 361 42Q366 65 370 93Q373 117 376 150T379 223Q379 271 376 304T370 360Q366 386 361 401Z" />
<glyph unicode="q" glyph-name="q" horiz-adv-x="555" d="M278 -114H337V44Q309 20 276 6T205 -8Q164 -8 132 4T79 44T46 116T35 224Q35 288 47 332T87 404T159 444T268 456Q306 456 340 449T395 437L495 443V-165H278V-114ZM217 46Q250 46 281 67T337 120V402Q320
406 302 408T268 411Q255 411 246 410T230 408Q222 406 217 405Q212 381 208 353Q204 329 202 296T199 224Q199 176 201 143T208 87Q212 61 217 46Z" />
<glyph unicode="r" glyph-name="r" horiz-adv-x="445" d="M30 431H89L240 460V396Q241 399 247 408T268 428T306 447T366 456Q388 456 400 455T420 453Q428 452 430 451V258Q394 258 370 272T331 307T308 351T297 392Q288 387 280 379T266 361T254 343T247 329V51H306V0H30V51H89V381H30V431Z"
/>
<glyph unicode="s" glyph-name="s" horiz-adv-x="457" d="M248 454Q271 454 290 451T324 442L391 457V303Q353 303 329 314T289 342T267 377T256 409H248Q239 409 233 409T221 407Q216 406 213 405Q210 401 208 395Q206 390 205 381T204 360Q204 341 208 329T220
309T243 296T278 285Q305 278 331 268T379 240T413 198T427 136Q427 96 413 69T374 24T311 0T227 -8Q189 -8 164 -5T123 4L54 -11V153Q91 153 116 140T156 109T178 72T188 38Q194 37 199 37H228Q237 37 244 38Q252 39 259 40Q261 44 263 51Q265 57 266 67T268 91Q268
120 252 137T210 165T157 187T103 213T62 254T45 323Q45 353 55 377T89 419T152 445T248 454Z" />
<glyph unicode="t" glyph-name="t" horiz-adv-x="368" d="M65 495L223 538V449H343V399H223V50H244Q302 50 302 138H353Q353 106 350 80T331 35T285 6T200 -4Q163 -4 137 4T95 27T72 58T65 93V495Z" />
<glyph unicode="u" glyph-name="u" horiz-adv-x="580" d="M15 431H74L225 460V55Q227 54 231 53Q235 52 253 52Q274 52 290 60T318 80T338 102T349 119V449H507V50H520Q529 50 538 51L560 53V5Q542 2 525 0Q511 -2 495 -3T469 -4Q443 -4 424 1T392 16T369 36T356
59Q354 56 345 45T318 23T271 2T200 -7Q177 -7 154 -3T111 11T79 40T67 87V381H15V431Z" />
<glyph unicode="v" glyph-name="v" horiz-adv-x="531" d="M-15 449H194L323 192L413 398H333V449H541V398H471L287 -30H266L39 398H-15V449Z" />
<glyph unicode="w" glyph-name="w" horiz-adv-x="734" d="M-15 449H185L301 204L353 310L296 429V449H443L556 200L620 398H546V449H744V398H681L537 -30H516L387 239L257 -30H236L36 398H-15V449Z" />
<glyph unicode="x" glyph-name="x" horiz-adv-x="527" d="M10 449H213L312 310L371 398H311V449H499V398H439L347 262L522 19V0H343L223 172L149 51H212V0H17V51H81L187 223L65 398H10V449Z" />
<glyph unicode="y" glyph-name="y" horiz-adv-x="531" d="M-15 449H194L309 158L413 398H333V449H541V398H471L271 -70Q262 -92 252 -109T228 -139T196 -158T151 -165Q123 -165 107 -156T81 -133T70 -105T67 -79V-49H120V-80Q120 -92 126 -103T151 -114Q178 -114
192 -95T218 -50L229 -24L35 398H-15V449Z" />
<glyph unicode="z" glyph-name="z" horiz-adv-x="468" d="M426 430L221 48H295Q300 64 309 85T335 124T377 156T438 169V0H35V18L248 401H166Q163 386 156 368T134 333T96 305T36 294V449H426V430Z" />
<glyph unicode="{" glyph-name="braceleft" horiz-adv-x="425" d="M30 281L117 341Q114 381 114 415Q114 468 128 511T175 588T257 645T380 680V619Q355 615 337 609T307 595Q293 587 282 577Q279 559 276 536Q274 516 272 489T270 429Q270 409 263 393T244 365T218
341T190 321L122 275L194 222Q207 213 220 202T245 179T263 151T270 116Q270 82 272 56T276 9Q279 -14 282 -32Q293 -42 307 -50Q319 -57 337 -64T380 -74V-135Q308 -123 258 -100T175 -44T129 33T114 130Q114 143 114 163T117 204L30 265V281Z" />
<glyph unicode="|" glyph-name="bar" horiz-adv-x="462" d="M200 644H262V-46H200V644Z" />
<glyph unicode="}" glyph-name="braceright" horiz-adv-x="425" d="M395 265L308 204Q310 184 310 164T311 130Q311 77 297 34T250 -43T168 -100T45 -135V-74Q69 -71 87 -64T118 -50Q132 -42 143 -32Q146 -14 149 9Q151 29 153 55T155 116Q155 135 162 150T180
178T204 202T231 222L303 275L235 321Q221 330 207 341T182 364T163 393T155 429Q155 462 153 489T149 536Q146 559 143 577Q132 587 118 595Q106 602 88 608T45 619V680Q117 668 167 645T250 589T296 512T311 415Q311 381 308 341L395 281V265Z" />
<glyph unicode="~" glyph-name="asciitilde" horiz-adv-x="510" d="M50 270Q64 311 94 327T170 343Q192 343 214 338T257 326T298 314T339 308Q364 308 382 315T411 344L460 323Q446 282 416 266T340 250Q319 250 297 255T253 267T211 279T171 285Q146 285 128
278T99 249L50 270Z" />
<glyph unicode="&#xa0;" glyph-name="uni00A0" horiz-adv-x="160" />
<glyph unicode="&#xa1;" glyph-name="exclamdown" horiz-adv-x="312" d="M99 234H152L212 -60Q212 -103 192 -128T126 -154Q84 -154 64 -128T44 -60L99 234ZM206 370Q206 325 187 304T123 283Q75 283 58 304T40 370Q40 415 59 435T123 456Q168 456 187 436T206 370Z" />
<glyph unicode="&#xa2;" glyph-name="cent" horiz-adv-x="511" d="M267 31Q209 33 168 47T101 89T62 160T50 264Q50 325 61 368T97 440T164 481T267 496V624H329V495Q363 493 394 489T442 483L471 490V337Q438 337 417 349T382 379T363 415T355 447L329 449V81Q365
86 391 105T417 172H465Q465 132 453 106T421 65T377 42T329 32V-66H267V31ZM267 80V452L232 446Q227 422 223 394Q219 370 217 337T214 264Q214 225 216 192T223 135Q227 107 232 84L267 80Z" />
<glyph unicode="&#xa3;" glyph-name="sterling" horiz-adv-x="617" d="M138 342Q143 407 159 453T207 529T287 572T404 586Q438 586 464 584T509 578Q530 574 546 571V367Q486 367 451 389T396 441T370 498T363 534L321 527V479Q321 456 321 422T322 342H462V284H322Q320
190 299 135T230 51H374Q437 51 478 84T519 190V221H577V193Q577 142 560 106T514 46T448 11T368 0H43V51H116Q121 81 125 118Q128 150 131 191T135 284H30V342H138Z" />
<glyph unicode="&#xa4;" glyph-name="currency" horiz-adv-x="628" d="M30 34L129 133Q81 193 81 288Q81 382 129 442L30 542L73 586L175 484Q232 521 314 521Q396 521 453 484L555 586L598 542L499 442Q547 382 547 288Q547 193 499 133L598 34L555 -10L453 92Q396
55 314 55Q232 55 175 92L73 -10L30 34ZM149 289Q149 199 191 156T314 113Q394 113 436 156T479 289Q479 377 437 420T314 463Q234 463 192 421T149 289Z" />
<glyph unicode="&#xa5;" glyph-name="yen" horiz-adv-x="598" d="M15 577H197L355 318L451 519H351V577H588V519H513L395 275H496V217H379V185H496V127H379V58H468V0H122V58H211V127H94V185H211V217H94V275H188L15 556V577Z" />
<glyph unicode="&#xa6;" glyph-name="brokenbar" horiz-adv-x="462" d="M200 644H262V334H200V644ZM200 269H262V-46H200V269Z" />
<glyph unicode="&#xa7;" glyph-name="section" horiz-adv-x="458" d="M223 -96Q193 -96 167 -92T120 -78T89 -48T77 3V30H137V4Q137 -17 155 -30T199 -43Q205 -43 211 -43T223 -41L235 -39Q237 -33 239 -25Q241 -19 242 -11T244 8Q244 24 239 35T225 55T201 69T170
83L130 99Q92 114 71 145T50 221Q50 265 64 301T101 362Q82 378 71 400T60 457Q60 486 69 510T100 551T154 578T235 588Q265 588 291 584T338 570T369 540T381 489V462H321V488Q321 509 303 522T259 535Q253 535 247 535T235 533L223 531Q220 527 218 522Q216 517
215 511T214 494Q214 461 233 447T288 419L328 403Q366 388 387 357T408 281Q408 238 395 201T359 137Q377 121 387 99T398 45Q398 16 389 -10T358 -55T304 -85T223 -96ZM141 338Q130 328 121 311T112 278Q124 261 149 244T207 213L319 163Q329 174 337 192T346
224Q334 241 309 258T251 289L141 338Z" />
<glyph unicode="&#xa8;" glyph-name="dieresis" horiz-adv-x="520" d="M86 597Q86 635 102 653T157 672Q198 672 213 654T228 597Q228 559 212 541T157 523Q119 523 103 541T86 597ZM291 597Q291 635 307 653T362 672Q403 672 418 654T433 597Q433 559 417 541T362
523Q324 523 308 541T291 597Z" />
<glyph unicode="&#xa9;" glyph-name="copyright" horiz-adv-x="570" d="M50 226Q50 278 67 320T115 394T189 442T285 459Q339 459 382 443T456 397T503 323T520 226Q520 174 503 131T455 58T381 10T285 -7Q231 -7 188 9T114 55T67 129T50 226ZM118 227Q118 137
161 94T285 51Q360 51 406 96T452 227Q452 315 409 358T285 401Q210 401 164 357T118 227ZM288 318Q285 307 283 293Q281 281 280 264T279 227Q279 208 280 192T283 162Q285 147 288 135H310Q328 135 337 146T346 185H382Q382 144 362 123T290 101Q227 101 201
129T174 227Q174 262 179 286T199 325T237 346T297 353Q310 353 324 352T349 349Q362 347 374 345V256Q353 256 340 263T318 281T307 303T302 322L288 318Z" />
<glyph unicode="&#xaa;" glyph-name="ordfeminine" horiz-adv-x="430" d="M347 392H356Q362 392 367 393Q373 393 380 394V356Q368 354 357 352Q347 350 336 350T317 349Q290 349 271 357T239 378Q225 363 207 355T164 346Q123 346 102 365T80 416Q80 430 80 441T82
463Q83 474 84 484L221 517Q220 534 220 547T219 569Q218 580 218 588Q217 588 213 589Q205 591 193 591H186Q183 591 180 590Q178 579 173 566T157 541T130 521T89 513V622Q113 624 138 626Q159 628 182 629T226 630Q267 630 291 623T327 600T343 556T347 487V392ZM199
398Q209 401 221 416V476L198 470Q197 460 197 451T196 432Q196 409 197 404Q198 400 199 398Z" />
<glyph unicode="&#xab;" glyph-name="guillemotleft" horiz-adv-x="518" d="M84 196Q74 204 67 215T60 243V248Q61 261 70 272T95 298L259 435L288 408L197 243L288 78L259 52L84 196ZM264 196Q254 204 247 215T240 243V248Q241 261 250 272T275 298L439 435L468
408L377 243L468 78L439 52L264 196Z" />
<glyph unicode="&#xac;" glyph-name="logicalnot" horiz-adv-x="440" d="M338 264H40V322H400V147H338V264Z" />
<glyph unicode="&#xad;" glyph-name="uni00AD" horiz-adv-x="392" d="M342 322V264H50V322H342Z" />
<glyph unicode="&#xae;" glyph-name="registered" horiz-adv-x="570" d="M50 397Q50 449 67 491T115 565T189 613T285 630Q339 630 382 614T456 568T503 494T520 397Q520 345 503 302T455 229T381 181T285 164Q231 164 188 180T114 226T67 300T50 397ZM118 398Q118
308 161 265T285 222Q360 222 406 267T452 398Q452 486 409 529T285 572Q210 572 164 528T118 398ZM194 315V491H176V517H268Q274 517 279 517T286 518Q334 518 362 503T390 455Q390 435 380 422T355 400L415 310L409 289H330L281 384H271V315H297V289H176V315H194ZM303
454Q303 462 302 468T300 480Q299 485 298 489Q296 489 294 490Q292 490 290 490T286 491Q283 491 281 491T276 490H271V415H300Q300 421 301 427Q302 432 302 439T303 454Z" />
<glyph unicode="&#xaf;" glyph-name="overscore" horiz-adv-x="520" d="M431 624V566H89V624H431Z" />
<glyph unicode="&#xb0;" glyph-name="degree" horiz-adv-x="378" d="M50 448Q50 509 88 547T189 586Q254 586 291 550T328 448Q328 387 290 349T189 310Q124 310 87 347T50 448ZM118 449Q118 408 136 388T189 368Q221 368 240 389T260 449Q260 528 189 528Q157
528 138 508T118 449Z" />
<glyph unicode="&#xb1;" glyph-name="plusminus" horiz-adv-x="472" d="M205 238H50V296H205V449H267V296H422V238H267V92H205V238ZM422 58V0H50V58H422Z" />
<glyph unicode="&#xb2;" glyph-name="uni00B2" horiz-adv-x="336" d="M179 630Q231 630 255 612T280 567Q280 541 269 527T241 503T204 488T163 473Q154 469 144 463T128 446H241V478H281Q282 464 283 452Q284 441 285 429T286 407Q286 378 269 368T220 357H50Q52
395 61 426T99 477Q117 490 128 494T145 501T153 513T155 543Q155 549 154 557T152 572Q151 580 150 589Q133 589 116 585T99 567V551H51V569Q51 587 65 599T99 617T141 627T179 630Z" />
<glyph unicode="&#xb3;" glyph-name="uni00B3" horiz-adv-x="339" d="M160 510Q164 520 164 543Q164 549 163 557T161 572Q160 580 159 589Q142 589 125 585T108 567V551H60V569Q60 587 71 599T101 617T139 627T178 630Q227 630 255 611T284 558Q284 530 274 514T245
488Q265 478 277 461T289 416Q289 386 260 366T173 345Q153 345 132 348T94 357T66 376T55 406V424H103V408Q103 394 120 390T154 386Q155 395 156 403Q157 410 158 417T159 432Q159 440 158 447T156 459L154 469H108V510H160Z" />
<glyph unicode="&#xb4;" glyph-name="acute" horiz-adv-x="520" d="M284 689Q301 703 321 703Q332 703 343 698T362 683T376 662T382 638Q382 613 361 595L164 486L139 514L284 689Z" />
<glyph unicode="&#xb5;" glyph-name="uni00B5" horiz-adv-x="596" d="M31 431H90L241 460V48Q267 48 288 57T325 79T351 104T365 121V449H523V50H536Q545 50 554 51L576 53V5Q558 2 541 0Q527 -2 511 -3T485 -4Q459 -4 440 1T408 16T385 36T372 59Q370 56 363
47T340 27T300 7T241 -6V-165H25V-114H84V381H31V431Z" />
<glyph unicode="&#xb6;" glyph-name="paragraph" horiz-adv-x="513" d="M337 557H259V-75H197V250Q106 261 63 303T20 431Q20 533 82 575T273 617Q295 617 312 616T353 615H488V557H399V-75H337V557Z" />
<glyph unicode="&#xb7;" glyph-name="middot" horiz-adv-x="326" d="M80 294Q80 339 99 360T163 381Q211 381 228 360T246 294Q246 249 227 229T163 208Q118 208 99 228T80 294Z" />
<glyph unicode="&#xb8;" glyph-name="cedilla" horiz-adv-x="520" d="M278 10V-34H285Q314 -34 332 -50T350 -94Q350 -126 329 -146T268 -166H209V-116H268Q279 -116 286 -112T294 -95Q294 -84 286 -79T266 -74H216V10H278Z" />
<glyph unicode="&#xb9;" glyph-name="uni00B9" horiz-adv-x="353" d="M127 599L230 630H247V404H308V357H60V404H121V552H60V599H127Z" />
<glyph unicode="&#xba;" glyph-name="ordmasculine" horiz-adv-x="451" d="M191 487Q191 465 192 447T195 414Q197 398 200 385Q203 384 207 383Q215 381 225 381Q231 381 235 381T244 383Q248 384 251 385Q253 398 255 414Q257 428 258 446T259 487Q259 509 258
528T255 561Q253 577 251 590Q248 591 244 592Q234 594 225 594Q215 594 207 592Q203 591 200 590Q197 577 195 561Q193 547 192 528T191 487ZM60 487Q60 526 68 553T96 598T147 622T225 630Q271 630 303 623T354 598T382 554T391 487Q391 448 383 421T355 377T303
353T225 345Q179 345 148 352T97 377T69 421T60 487Z" />
<glyph unicode="&#xbb;" glyph-name="guillemotright" horiz-adv-x="518" d="M259 52L230 78L321 243L230 408L259 435L423 298Q439 284 448 273T458 248V243Q458 226 451 215T434 196L259 52ZM79 52L50 78L141 243L50 408L79 435L243 298Q259 284 268 273T278
248V243Q278 226 271 215T254 196L79 52Z" />
<glyph unicode="&#xbc;" glyph-name="onequarter" horiz-adv-x="776" d="M278 0H212L492 577H558L278 0ZM147 555L250 586H267V360H328V313H80V360H141V508H80V555H147ZM405 97L519 261L645 273V125H706V80H645V47H706V0H458V47H519V80H405V97ZM520 125L532 209L480
125H520Z" />
<glyph unicode="&#xbd;" glyph-name="onehalf" horiz-adv-x="761" d="M278 0H212L492 577H558L278 0ZM147 555L250 586H267V360H328V313H80V360H141V508H80V555H147ZM579 273Q631 273 655 255T680 210Q680 184 669 170T641 146T604 131T563 116Q554 112 544 106T528
89H641V121H681Q682 107 683 95Q684 84 685 72T686 50Q686 21 669 11T620 0H450Q452 38 461 69T499 120Q517 133 528 137T545 144T553 156T555 186Q555 192 554 200T552 215Q551 223 550 232Q533 232 516 228T499 210V194H451V212Q451 230 465 242T499 260T541
270T579 273Z" />
<glyph unicode="&#xbe;" glyph-name="threequarters" horiz-adv-x="780" d="M409 97L523 261L649 273V125H710V80H649V47H710V0H462V47H523V80H409V97ZM165 466Q169 476 169 499Q169 505 168 513T166 528Q165 536 164 545Q147 545 130 541T113 523V507H65V525Q65
543 76 555T106 573T144 583T183 586Q232 586 260 567T289 514Q289 486 279 470T250 444Q270 434 282 417T294 372Q294 342 265 322T178 301Q158 301 137 304T99 313T71 332T60 362V380H108V364Q108 350 125 346T159 342Q160 351 161 359Q162 366 163 373T164 388Q164
396 163 403T161 415L159 425H113V466H165ZM263 0H197L477 577H543L263 0ZM524 125L536 209L484 125H524Z" />
<glyph unicode="&#xbf;" glyph-name="questiondown" horiz-adv-x="394" d="M289 371Q289 326 270 305T206 284Q158 284 141 305T123 371Q123 416 142 436T206 457Q251 457 270 437T289 371ZM235 235V139Q224 127 215 109Q207 93 201 70T195 14Q195 -12 196 -32T200
-69Q202 -87 205 -102Q253 -102 283 -90T314 -45V-19H374V-46Q374 -83 355 -104T309 -137T249 -152T190 -155Q142 -155 109 -143T57 -108T29 -56T20 8Q20 42 30 72T60 124T111 160T182 173V235H235Z" />
<glyph unicode="&#xc0;" glyph-name="Agrave" horiz-adv-x="628" d="M77 58L265 598L393 621L618 21V0H436L365 197H187L139 58H247V0H10V58H77ZM207 255H344L275 448L207 255ZM353 682L331 653L122 739Q97 759 97 789Q97 804 103 816T118 836T137 848T156 853Q170
853 190 842L353 682Z" />
<glyph unicode="&#xc1;" glyph-name="Aacute" horiz-adv-x="628" d="M77 58L265 598L393 621L618 21V0H436L365 197H187L139 58H247V0H10V58H77ZM207 255H344L275 448L207 255ZM472 842Q492 853 506 853Q514 853 524 849T543 836T558 816T565 789Q565 759 540
739L331 653L309 682L472 842Z" />
<glyph unicode="&#xc2;" glyph-name="Acircumflex" horiz-adv-x="628" d="M77 58L265 598L393 621L618 21V0H436L365 197H187L139 58H247V0H10V58H77ZM297 842Q312 850 324 852Q327 853 330 853H333Q335 852 336 852L341 851Q342 851 343 851Q352 848 364 842L527
682L505 653L330 725L156 653L134 682L297 842ZM207 255H344L275 448L207 255Z" />
<glyph unicode="&#xc3;" glyph-name="Atilde" horiz-adv-x="628" d="M77 58L265 598L393 621L618 21V0H436L365 197H187L139 58H247V0H10V58H77ZM207 255H344L275 448L207 255ZM167 723Q177 764 197 780T249 796Q265 796 281 791T312 779T343 767T372 761Q389
761 397 771T411 797L460 776Q450 735 430 719T379 703Q362 703 346 708T315 720T284 732T255 738Q238 738 230 728T216 702L167 723Z" />
<glyph unicode="&#xc4;" glyph-name="Adieresis" horiz-adv-x="628" d="M77 58L265 598L393 621L618 21V0H436L365 197H187L139 58H247V0H10V58H77ZM207 255H344L275 448L207 255ZM140 763Q140 801 156 819T211 838Q252 838 267 820T282 763Q282 725 266 707T211
689Q173 689 157 707T140 763ZM345 763Q345 801 361 819T416 838Q457 838 472 820T487 763Q487 725 471 707T416 689Q378 689 362 707T345 763Z" />
<glyph unicode="&#xc5;" glyph-name="Aring" horiz-adv-x="628" d="M77 58L258 578Q250 583 244 589Q215 619 215 670Q215 719 245 749T326 780Q378 780 407 751T437 670Q437 621 406 590L405 589L618 21V0H436L365 197H187L139 58H247V0H10V58H77ZM207 255H344L275
448L207 255ZM275 671Q275 642 288 627T326 612Q349 612 363 627T377 671Q377 728 326 728Q303 728 289 713T275 671Z" />
<glyph unicode="&#xc6;" glyph-name="AE" horiz-adv-x="905" d="M402 58V227H230L142 58H237V0H0V58H72L334 557H244V615H840V411Q790 411 758 427T705 466T674 514T660 557H570V335H745V277H570V58H675Q679 76 689 101T719 149T772 188T855 205V0H313V58H402ZM402
285V555L261 285H402Z" />
<glyph unicode="&#xc7;" glyph-name="Ccedilla" horiz-adv-x="572" d="M516 411Q454 411 418 435T364 489T339 546T333 580Q316 579 303 578T280 575Q269 573 261 571Q252 536 246 494Q241 458 237 410T232 308Q232 253 236 206T246 122Q252 80 261 44Q267 42
277 40Q293 37 328 37Q361 37 388 44T436 68T467 111T479 175V206H537V178Q537 127 520 91T474 31T407 -4Q384 -11 359 -13V-34H366Q395 -34 413 -50T431 -94Q431 -126 410 -146T349 -166H290V-116H349Q360 -116 367 -112T375 -95Q375 -84 367 -79T347 -74H297V-14Q244
-11 203 2Q150 20 115 59T62 159T45 308Q45 395 62 456T116 556T209 612T344 630Q378 630 409 628T464 622Q492 618 516 615V411Z" />
<glyph unicode="&#xc8;" glyph-name="Egrave" horiz-adv-x="617" d="M552 615V411Q502 411 470 427T417 466T386 514T372 557H282V335H457V277H282V58H387Q391 76 401 101T431 149T484 188T567 205V0H25V58H114V557H25V615H552ZM338 682L316 653L107 739Q82 759
82 789Q82 804 88 816T103 836T122 848T141 853Q155 853 175 842L338 682Z" />
<glyph unicode="&#xc9;" glyph-name="Eacute" horiz-adv-x="617" d="M552 615V411Q502 411 470 427T417 466T386 514T372 557H282V335H457V277H282V58H387Q391 76 401 101T431 149T484 188T567 205V0H25V58H114V557H25V615H552ZM457 842Q477 853 491 853Q499 853
509 849T528 836T543 816T550 789Q550 759 525 739L316 653L294 682L457 842Z" />
<glyph unicode="&#xca;" glyph-name="Ecircumflex" horiz-adv-x="617" d="M552 615V411Q502 411 470 427T417 466T386 514T372 557H282V335H457V277H282V58H387Q391 76 401 101T431 149T484 188T567 205V0H25V58H114V557H25V615H552ZM282 842Q293 848 302 851Q303
851 304 851L309 852Q311 853 312 853H315H316Q319 853 321 852Q333 850 349 842L512 682L490 653L315 725L141 653L119 682L282 842Z" />
<glyph unicode="&#xcb;" glyph-name="Edieresis" horiz-adv-x="617" d="M552 615V411Q502 411 470 427T417 466T386 514T372 557H282V335H457V277H282V58H387Q391 76 401 101T431 149T484 188T567 205V0H25V58H114V557H25V615H552ZM135 763Q135 801 151 819T206
838Q247 838 262 820T277 763Q277 725 261 707T206 689Q168 689 152 707T135 763ZM340 763Q340 801 356 819T411 838Q452 838 467 820T482 763Q482 725 466 707T411 689Q373 689 357 707T340 763Z" />
<glyph unicode="&#xcc;" glyph-name="Igrave" horiz-adv-x="396" d="M371 615V557H282V58H371V0H25V58H114V557H25V615H371ZM221 682L199 653L-10 739Q-35 759 -35 789Q-35 804 -29 816T-14 836T5 848T24 853Q38 853 58 842L221 682Z" />
<glyph unicode="&#xcd;" glyph-name="Iacute" horiz-adv-x="396" d="M371 615V557H282V58H371V0H25V58H114V557H25V615H371ZM340 842Q360 853 374 853Q382 853 392 849T411 836T426 816T433 789Q433 759 408 739L199 653L177 682L340 842Z" />
<glyph unicode="&#xce;" glyph-name="Icircumflex" horiz-adv-x="396" d="M371 615V557H282V58H371V0H25V58H114V557H25V615H371ZM165 842Q176 848 185 851Q186 851 187 851L192 852Q194 853 195 853H199Q202 853 204 853T209 851Q210 851 211 851Q220 848 232
842L395 682L373 653L198 725L24 653L2 682L165 842Z" />
<glyph unicode="&#xcf;" glyph-name="Idieresis" horiz-adv-x="396" d="M371 615V557H282V58H371V0H25V58H114V557H25V615H371ZM25 763Q25 801 41 819T96 838Q137 838 152 820T167 763Q167 725 151 707T96 689Q58 689 42 707T25 763ZM230 763Q230 801 246 819T301
838Q342 838 357 820T372 763Q372 725 356 707T301 689Q263 689 247 707T230 763Z" />
<glyph unicode="&#xd0;" glyph-name="Eth" horiz-adv-x="710" d="M151 615Q168 615 195 616T253 617T313 619T365 620Q443 620 500 604T593 551T647 455T665 308Q665 221 648 161T594 65T500 12T365 -4Q337 -4 307 -4T247 -2T193 -1T151 0H25V58H114V330H50V388H114V557H25V615H151ZM282
570V388H342V330H282V49Q325 46 365 46H401Q417 46 428 47Q440 48 449 49Q457 84 463 125Q468 160 473 207T478 308Q478 364 473 410T463 492Q457 532 449 566Q439 567 427 568Q416 569 401 569T365 570H282Z" />
<glyph unicode="&#xd1;" glyph-name="Ntilde" horiz-adv-x="676" d="M178 615L504 285V557H415V615H656V557H567V0H536L177 378V58H266V0H25V58H114V557H25V615H178ZM184 723Q194 764 214 780T266 796Q282 796 298 791T329 779T360 767T389 761Q406 761 414 771T428
797L477 776Q467 735 447 719T396 703Q379 703 363 708T332 720T301 732T272 738Q255 738 247 728T233 702L184 723Z" />
<glyph unicode="&#xd2;" glyph-name="Ograve" horiz-adv-x="690" d="M45 308Q45 395 62 456T116 556T209 612T344 630Q354 630 363 630T381 629H441Q477 629 505 631T552 640T581 662T591 701H645Q645 644 617 620T534 587Q591 551 617 483T644 308Q644 221 627
160T573 59T479 3T344 -15Q266 -15 210 2T117 59T63 159T45 308ZM232 308Q232 251 236 203T246 120Q252 79 261 44Q271 41 283 39Q294 37 309 36T344 35Q364 35 380 36T407 39Q419 41 428 44Q436 81 442 123Q447 159 452 206T457 308Q457 364 452 412T442 495Q436
536 428 571Q418 573 406 575Q395 577 380 578T344 580Q324 580 309 579T283 575Q271 573 261 571Q252 534 246 492Q241 456 237 409T232 308ZM366 682L344 653L135 739Q110 759 110 789Q110 804 116 816T131 836T150 848T169 853Q183 853 203 842L366 682Z" />
<glyph unicode="&#xd3;" glyph-name="Oacute" horiz-adv-x="690" d="M45 308Q45 395 62 456T116 556T209 612T344 630Q354 630 363 630T381 629H441Q477 629 505 631T552 640T581 662T591 701H645Q645 644 617 620T534 587Q591 551 617 483T644 308Q644 221 627
160T573 59T479 3T344 -15Q266 -15 210 2T117 59T63 159T45 308ZM232 308Q232 251 236 203T246 120Q252 79 261 44Q271 41 283 39Q294 37 309 36T344 35Q364 35 380 36T407 39Q419 41 428 44Q436 81 442 123Q447 159 452 206T457 308Q457 364 452 412T442 495Q436
536 428 571Q418 573 406 575Q395 577 380 578T344 580Q324 580 309 579T283 575Q271 573 261 571Q252 534 246 492Q241 456 237 409T232 308ZM485 842Q505 853 519 853Q527 853 537 849T556 836T571 816T578 789Q578 759 553 739L344 653L322 682L485 842Z" />
<glyph unicode="&#xd4;" glyph-name="Ocircumflex" horiz-adv-x="690" d="M45 308Q45 395 62 456T116 556T209 612T344 630Q354 630 363 630T381 629Q405 629 426 629T462 633T486 644T495 663L346 739L188 652L163 680L301 846Q312 860 322 864T345 869Q368 869
389 848L532 707Q557 682 557 653Q557 633 546 619T518 596Q583 562 613 493T644 308Q644 221 627 160T573 59T479 3T344 -15Q266 -15 210 2T117 59T63 159T45 308ZM232 308Q232 251 236 203T246 120Q252 79 261 44Q271 41 283 39Q294 37 309 36T344 35Q364 35
380 36T407 39Q419 41 428 44Q436 81 442 123Q447 159 452 206T457 308Q457 364 452 412T442 495Q436 536 428 571Q418 573 406 575Q395 577 380 578T344 580Q324 580 309 579T283 575Q271 573 261 571Q252 534 246 492Q241 456 237 409T232 308Z" />
<glyph unicode="&#xd5;" glyph-name="Otilde" horiz-adv-x="690" d="M45 308Q45 395 62 456T116 556T209 612T344 630Q354 630 363 630T381 629H441Q477 629 505 631T552 640T581 662T591 701H645Q645 644 617 620T534 587Q591 551 617 483T644 308Q644 221 627
160T573 59T479 3T344 -15Q266 -15 210 2T117 59T63 159T45 308ZM232 308Q232 251 236 203T246 120Q252 79 261 44Q271 41 283 39Q294 37 309 36T344 35Q364 35 380 36T407 39Q419 41 428 44Q436 81 442 123Q447 159 452 206T457 308Q457 364 452 412T442 495Q436
536 428 571Q418 573 406 575Q395 577 380 578T344 580Q324 580 309 579T283 575Q271 573 261 571Q252 534 246 492Q241 456 237 409T232 308ZM198 723Q208 764 228 780T280 796Q296 796 312 791T343 779T374 767T403 761Q420 761 428 771T442 797L491 776Q481
735 461 719T410 703Q393 703 377 708T346 720T315 732T286 738Q269 738 261 728T247 702L198 723Z" />
<glyph unicode="&#xd6;" glyph-name="Odieresis" horiz-adv-x="690" d="M45 308Q45 395 62 456T116 556T209 612T344 630Q354 630 363 630T381 629H441Q477 629 505 631T552 640T581 662T591 701H645Q645 644 617 620T534 587Q591 551 617 483T644 308Q644 221
627 160T573 59T479 3T344 -15Q266 -15 210 2T117 59T63 159T45 308ZM232 308Q232 251 236 203T246 120Q252 79 261 44Q271 41 283 39Q294 37 309 36T344 35Q364 35 380 36T407 39Q419 41 428 44Q436 81 442 123Q447 159 452 206T457 308Q457 364 452 412T442 495Q436
536 428 571Q418 573 406 575Q395 577 380 578T344 580Q324 580 309 579T283 575Q271 573 261 571Q252 534 246 492Q241 456 237 409T232 308ZM171 763Q171 801 187 819T242 838Q283 838 298 820T313 763Q313 725 297 707T242 689Q204 689 188 707T171 763ZM376
763Q376 801 392 819T447 838Q488 838 503 820T518 763Q518 725 502 707T447 689Q409 689 393 707T376 763Z" />
<glyph unicode="&#xd7;" glyph-name="multiply" horiz-adv-x="502" d="M250 225L101 75L60 116L209 265L67 408L110 451L252 308L394 451L435 410L293 268L442 119L399 76L250 225Z" />
<glyph unicode="&#xd8;" glyph-name="Oslash" horiz-adv-x="689" d="M508 601Q579 569 611 498T644 308Q644 221 627 160T573 59T479 3T344 -15Q282 -15 238 -5L225 -35H157L179 14Q110 46 78 117T45 308Q45 395 62 456T116 556T209 612T344 630Q373 630 399 628T449
620L463 651H531L508 601ZM428 44Q436 81 442 123Q447 159 452 206T457 308V485L260 44Q277 41 299 38T344 35Q364 35 380 36T407 39Q419 41 428 44ZM232 133L427 571Q410 574 389 577T344 580Q324 580 309 579T283 575Q271 573 261 571Q252 534 246 492Q241 456
237 409T232 308V133Z" />
<glyph unicode="&#xd9;" glyph-name="Ugrave" horiz-adv-x="666" d="M109 557H20V615H277V140Q277 123 279 106T284 74Q287 57 291 42Q294 40 305 39Q313 38 329 38T371 37Q430 37 464 58T499 130V557H395V615H661V557H562V130Q562 86 544 58T496 14T427 -8T344
-15Q291 -15 248 -9T173 13T126 58T109 130V557ZM391 682L369 653L160 739Q135 759 135 789Q135 804 141 816T156 836T175 848T194 853Q208 853 228 842L391 682Z" />
<glyph unicode="&#xda;" glyph-name="Uacute" horiz-adv-x="666" d="M109 557H20V615H277V140Q277 123 279 106T284 74Q287 57 291 42Q294 40 305 39Q313 38 329 38T371 37Q430 37 464 58T499 130V557H395V615H661V557H562V130Q562 86 544 58T496 14T427 -8T344
-15Q291 -15 248 -9T173 13T126 58T109 130V557ZM510 842Q530 853 544 853Q552 853 562 849T581 836T596 816T603 789Q603 759 578 739L369 653L347 682L510 842Z" />
<glyph unicode="&#xdb;" glyph-name="Ucircumflex" horiz-adv-x="666" d="M109 557H20V615H277V140Q277 123 279 106T284 74Q287 57 291 42Q294 40 305 39Q313 38 329 38T371 37Q430 37 464 58T499 130V557H395V615H661V557H562V130Q562 86 544 58T496 14T427
-8T344 -15Q291 -15 248 -9T173 13T126 58T109 130V557ZM335 842Q350 850 362 852Q364 853 365 853H369Q371 853 374 852Q386 850 402 842L565 682L543 653L368 725L194 653L172 682L335 842Z" />
<glyph unicode="&#xdc;" glyph-name="Udieresis" horiz-adv-x="666" d="M109 557H20V615H277V140Q277 123 279 106T284 74Q287 57 291 42Q294 40 305 39Q313 38 329 38T371 37Q430 37 464 58T499 130V557H395V615H661V557H562V130Q562 86 544 58T496 14T427 -8T344
-15Q291 -15 248 -9T173 13T126 58T109 130V557ZM159 763Q159 801 175 819T230 838Q271 838 286 820T301 763Q301 725 285 707T230 689Q192 689 176 707T159 763ZM364 763Q364 801 380 819T435 838Q476 838 491 820T506 763Q506 725 490 707T435 689Q397 689 381
707T364 763Z" />
<glyph unicode="&#xdd;" glyph-name="Yacute" horiz-adv-x="598" d="M15 615H197L353 332L453 557H351V615H588V557H514L379 257V58H468V0H122V58H211V253L15 594V615ZM449 842Q469 853 483 853Q491 853 501 849T520 836T535 816T542 789Q542 759 517 739L308
653L286 682L449 842Z" />
<glyph unicode="&#xde;" glyph-name="Thorn" horiz-adv-x="638" d="M114 58V557H25V615H371V557H282V510Q293 511 310 511T340 512Q469 512 531 470T593 326Q593 225 532 183T340 141H313Q297 141 282 142V58H371V0H25V58H114ZM340 454Q323 454 309 453T282 450V202Q306
199 340 199Q363 199 377 202Q385 203 391 205Q395 217 399 235Q402 250 404 272T407 325Q407 356 405 378T399 417Q395 435 391 448Q385 449 377 451Q370 452 361 453T340 454Z" />
<glyph unicode="&#xdf;" glyph-name="germandbls" horiz-adv-x="576" d="M267 651Q315 651 349 641T405 612T437 571T447 522Q447 486 434 464T401 425L439 417Q495 405 523 362T551 240V143Q551 63 514 27T391 -9Q331 -9 299 12T266 87V134H318V91Q318 68 329
53T360 38H380Q384 38 388 39V57Q388 65 388 73T389 87V268Q389 300 382 320T367 352Q357 365 345 372H266V423H288Q313 423 332 431T366 452T387 481T395 515Q395 532 389 548T371 576T338 596T289 604Q278 604 270 604T256 603Q249 602 244 602Q242 590 240 576Q238
564 237 548T236 514V0H20V51H79V488Q79 567 127 609T267 651Z" />
<glyph unicode="&#xe0;" glyph-name="agrave" horiz-adv-x="521" d="M453 50H466Q475 50 484 51L506 53V5Q488 2 471 0Q457 -2 441 -3T415 -4Q366 -4 341 14T305 53Q283 25 255 9T189 -8Q121 -8 88 17T55 106Q55 128 55 148T58 183Q60 201 62 215L294 272Q293
301 292 325T290 367Q288 387 287 403Q284 404 278 405Q273 406 263 407T239 408Q230 408 222 408T206 406Q203 392 196 373T174 336T135 306T72 293V444Q104 447 137 450Q166 452 199 454T263 456Q328 456 365 445T422 407T447 335T453 223V50ZM275 514L250 486L53
595Q32 613 32 638Q32 650 37 661T51 682T71 697T93 703Q113 703 130 689L275 514ZM221 46Q241 51 259 71T295 121V227L219 206Q217 190 216 174T215 141Q215 121 215 104T218 74Q219 59 221 46Z" />
<glyph unicode="&#xe1;" glyph-name="aacute" horiz-adv-x="521" d="M453 50H466Q475 50 484 51L506 53V5Q488 2 471 0Q457 -2 441 -3T415 -4Q366 -4 341 14T305 53Q283 25 255 9T189 -8Q121 -8 88 17T55 106Q55 128 55 148T58 183Q60 201 62 215L294 272Q293
301 292 325T290 367Q288 387 287 403Q284 404 278 405Q273 406 263 407T239 408Q230 408 222 408T206 406Q203 392 196 373T174 336T135 306T72 293V444Q104 447 137 450Q166 452 199 454T263 456Q328 456 365 445T422 407T447 335T453 223V50ZM370 689Q387 703
407 703Q418 703 429 698T448 683T462 662T468 638Q468 613 447 595L250 486L225 514L370 689ZM221 46Q241 51 259 71T295 121V227L219 206Q217 190 216 174T215 141Q215 121 215 104T218 74Q219 59 221 46Z" />
<glyph unicode="&#xe2;" glyph-name="acircumflex" horiz-adv-x="521" d="M453 50H466Q475 50 484 51L506 53V5Q488 2 471 0Q457 -2 441 -3T415 -4Q366 -4 341 14T305 53Q283 25 255 9T189 -8Q121 -8 88 17T55 106Q55 128 55 148T58 183Q60 201 62 215L294 272Q293
301 292 325T290 367Q288 387 287 403Q284 404 278 405Q273 406 263 407T239 408Q230 408 222 408T206 406Q203 392 196 373T174 336T135 306T72 293V444Q104 447 137 450Q166 452 199 454T263 456Q328 456 365 445T422 407T447 335T453 223V50ZM205 680Q212 688
222 695T246 703H254Q277 703 295 680L432 514L407 486L250 573L93 486L68 514L205 680ZM221 46Q241 51 259 71T295 121V227L219 206Q217 190 216 174T215 141Q215 121 215 104T218 74Q219 59 221 46Z" />
<glyph unicode="&#xe3;" glyph-name="atilde" horiz-adv-x="521" d="M453 50H466Q475 50 484 51L506 53V5Q488 2 471 0Q457 -2 441 -3T415 -4Q366 -4 341 14T305 53Q283 25 255 9T189 -8Q121 -8 88 17T55 106Q55 128 55 148T58 183Q60 201 62 215L294 272Q293
301 292 325T290 367Q288 387 287 403Q284 404 278 405Q273 406 263 407T239 408Q230 408 222 408T206 406Q203 392 196 373T174 336T135 306T72 293V444Q104 447 137 450Q166 452 199 454T263 456Q328 456 365 445T422 407T447 335T453 223V50ZM102 557Q112 598
132 614T184 630Q200 630 216 625T247 613T278 601T307 595Q324 595 332 605T346 631L395 610Q385 569 365 553T314 537Q297 537 281 542T250 554T219 566T190 572Q173 572 165 562T151 536L102 557ZM221 46Q241 51 259 71T295 121V227L219 206Q217 190 216 174T215
141Q215 121 215 104T218 74Q219 59 221 46Z" />
<glyph unicode="&#xe4;" glyph-name="adieresis" horiz-adv-x="521" d="M453 50H466Q475 50 484 51L506 53V5Q488 2 471 0Q457 -2 441 -3T415 -4Q366 -4 341 14T305 53Q283 25 255 9T189 -8Q121 -8 88 17T55 106Q55 128 55 148T58 183Q60 201 62 215L294 272Q293
301 292 325T290 367Q288 387 287 403Q284 404 278 405Q273 406 263 407T239 408Q230 408 222 408T206 406Q203 392 196 373T174 336T135 306T72 293V444Q104 447 137 450Q166 452 199 454T263 456Q328 456 365 445T422 407T447 335T453 223V50ZM280 597Q280 635
296 653T351 672Q392 672 407 654T422 597Q422 559 406 541T351 523Q313 523 297 541T280 597ZM75 597Q75 635 91 653T146 672Q187 672 202 654T217 597Q217 559 201 541T146 523Q108 523 92 541T75 597ZM221 46Q241 51 259 71T295 121V227L219 206Q217 190 216
174T215 141Q215 121 215 104T218 74Q219 59 221 46Z" />
<glyph unicode="&#xe5;" glyph-name="aring" horiz-adv-x="521" d="M453 50H466Q475 50 484 51L506 53V5Q488 2 471 0Q457 -2 441 -3T415 -4Q366 -4 341 14T305 53Q283 25 255 9T189 -8Q121 -8 88 17T55 106Q55 128 55 148T58 183Q60 201 62 215L294 272Q293 301
292 325T290 367Q288 387 287 403Q284 404 278 405Q273 406 263 407T239 408Q230 408 222 408T206 406Q203 392 196 373T174 336T135 306T72 293V444Q104 447 137 450Q166 452 199 454T263 456Q328 456 365 445T422 407T447 335T453 223V50ZM144 600Q144 649 174
679T255 710Q307 710 336 681T366 600Q366 551 336 521T255 490Q203 490 174 519T144 600ZM221 46Q241 51 259 71T295 121V227L219 206Q217 190 216 174T215 141Q215 121 215 104T218 74Q219 59 221 46ZM204 601Q204 572 217 557T255 542Q278 542 292 557T306 601Q306
658 255 658Q232 658 218 643T204 601Z" />
<glyph unicode="&#xe6;" glyph-name="ae" horiz-adv-x="746" d="M72 444Q104 447 137 450Q166 452 199 454T263 456Q347 456 390 425Q443 456 522 456Q577 456 613 446T671 412T702 352T711 259Q711 242 710 230T708 209Q707 199 706 194H459Q460 160 463 133T469
85Q473 61 477 43Q480 41 486 40Q491 39 500 39T525 38Q550 38 572 41T612 53T638 75T648 111H702Q702 69 684 45T638 9T578 -7T518 -10Q440 -10 393 10T321 76Q298 39 266 16T189 -8Q121 -8 88 17T55 106Q55 128 55 148T58 183Q60 201 62 215L294 272Q293 301
292 325T290 367Q288 387 287 403Q284 404 278 405Q273 406 263 407T239 408Q230 408 222 408T206 406Q203 392 196 373T174 336T135 306T72 293V444ZM477 405Q472 383 468 357Q465 334 462 304T459 237H556Q554 279 551 310T544 363Q540 388 535 405Q532 406 528
408Q524 409 519 410T506 411Q499 411 494 410T485 408Q481 406 477 405ZM221 46Q243 52 264 77T302 135Q295 170 295 223V227L219 206Q217 190 216 174T215 141Q215 121 215 104T218 74Q219 59 221 46Z" />
<glyph unicode="&#xe7;" glyph-name="ccedilla" horiz-adv-x="445" d="M406 295Q364 295 339 309T298 343T277 381T270 411H246Q239 411 234 410T225 408Q221 406 217 405Q212 381 208 353Q204 329 202 296T199 223Q199 184 201 151T208 94Q212 66 217 43Q221
41 228 40Q233 39 242 39T264 38Q286 38 306 42T340 56T363 85T372 131H420Q420 83 404 55T364 13T310 -6Q295 -8 281 -9V-34H288Q317 -34 335 -50T353 -94Q353 -126 332 -146T271 -166H212V-116H271Q282 -116 289 -112T297 -95Q297 -84 289 -79T269 -74H219V-8Q182
-6 154 2Q112 15 86 42T47 114T35 223Q35 287 45 331T82 403T151 443T262 456Q286 456 311 455T358 452Q383 450 406 449V295Z" />
<glyph unicode="&#xe8;" glyph-name="egrave" horiz-adv-x="486" d="M262 456Q317 456 353 446T411 412T442 352T451 259Q451 242 450 230T448 209Q447 199 446 194H199Q200 160 203 133T209 85Q213 61 217 43Q220 41 226 40Q231 39 240 39T265 38Q290 38 312
41T352 53T378 75T388 111H442Q442 69 424 45T378 9T318 -7T258 -10Q197 -10 155 2T86 42T47 114T35 223Q35 287 45 331T82 403T151 443T262 456ZM217 405Q212 383 208 357Q205 334 202 304T199 237H296Q294 279 291 310T284 363Q280 388 275 405Q272 406 268 408Q264
409 259 410T246 411Q239 411 234 410T225 408Q221 406 217 405ZM271 514L246 486L49 595Q28 613 28 638Q28 650 33 661T47 682T67 697T89 703Q109 703 126 689L271 514Z" />
<glyph unicode="&#xe9;" glyph-name="eacute" horiz-adv-x="486" d="M262 456Q317 456 353 446T411 412T442 352T451 259Q451 242 450 230T448 209Q447 199 446 194H199Q200 160 203 133T209 85Q213 61 217 43Q220 41 226 40Q231 39 240 39T265 38Q290 38 312
41T352 53T378 75T388 111H442Q442 69 424 45T378 9T318 -7T258 -10Q197 -10 155 2T86 42T47 114T35 223Q35 287 45 331T82 403T151 443T262 456ZM217 405Q212 383 208 357Q205 334 202 304T199 237H296Q294 279 291 310T284 363Q280 388 275 405Q272 406 268 408Q264
409 259 410T246 411Q239 411 234 410T225 408Q221 406 217 405ZM366 689Q383 703 403 703Q414 703 425 698T444 683T458 662T464 638Q464 613 443 595L246 486L221 514L366 689Z" />
<glyph unicode="&#xea;" glyph-name="ecircumflex" horiz-adv-x="486" d="M262 456Q317 456 353 446T411 412T442 352T451 259Q451 242 450 230T448 209Q447 199 446 194H199Q200 160 203 133T209 85Q213 61 217 43Q220 41 226 40Q231 39 240 39T265 38Q290 38
312 41T352 53T378 75T388 111H442Q442 69 424 45T378 9T318 -7T258 -10Q197 -10 155 2T86 42T47 114T35 223Q35 287 45 331T82 403T151 443T262 456ZM217 405Q212 383 208 357Q205 334 202 304T199 237H296Q294 279 291 310T284 363Q280 388 275 405Q272 406 268
408Q264 409 259 410T246 411Q239 411 234 410T225 408Q221 406 217 405ZM201 680Q208 688 218 695T242 703H250Q273 703 291 680L428 514L403 486L246 573L89 486L64 514L201 680Z" />
<glyph unicode="&#xeb;" glyph-name="edieresis" horiz-adv-x="486" d="M262 456Q317 456 353 446T411 412T442 352T451 259Q451 242 450 230T448 209Q447 199 446 194H199Q200 160 203 133T209 85Q213 61 217 43Q220 41 226 40Q231 39 240 39T265 38Q290 38 312
41T352 53T378 75T388 111H442Q442 69 424 45T378 9T318 -7T258 -10Q197 -10 155 2T86 42T47 114T35 223Q35 287 45 331T82 403T151 443T262 456ZM217 405Q212 383 208 357Q205 334 202 304T199 237H296Q294 279 291 310T284 363Q280 388 275 405Q272 406 268 408Q264
409 259 410T246 411Q239 411 234 410T225 408Q221 406 217 405ZM71 597Q71 635 87 653T142 672Q183 672 198 654T213 597Q213 559 197 541T142 523Q104 523 88 541T71 597ZM276 597Q276 635 292 653T347 672Q388 672 403 654T418 597Q418 559 402 541T347 523Q309
523 293 541T276 597Z" />
<glyph unicode="&#xec;" glyph-name="igrave" horiz-adv-x="326" d="M30 441H89L247 465V51H306V0H30V51H89V391H30V441ZM195 511L168 486L2 598Q-7 607 -11 617T-15 639Q-15 651 -10 662T4 682T24 696T47 702Q68 702 88 684L195 511Z" />
<glyph unicode="&#xed;" glyph-name="iacute" horiz-adv-x="326" d="M30 441H89L247 465V51H306V0H30V51H89V391H30V441ZM246 685Q265 703 287 703Q299 703 310 698T329 683T343 663T349 640Q349 629 345 619T332 599L166 487L139 512L246 685Z" />
<glyph unicode="&#xee;" glyph-name="icircumflex" horiz-adv-x="326" d="M30 441H89L247 465V51H306V0H30V51H89V391H30V441ZM120 685Q139 703 160 703H165Q186 703 206 685L313 512L286 487L163 570L40 487L13 512L120 685Z" />
<glyph unicode="&#xef;" glyph-name="idieresis" horiz-adv-x="326" d="M30 441H89L247 465V51H306V0H30V51H89V391H30V441ZM6 597Q6 635 22 653T77 672Q118 672 133 654T148 597Q148 559 132 541T77 523Q39 523 23 541T6 597ZM183 597Q183 635 199 653T254 672Q295
672 310 654T325 597Q325 559 309 541T254 523Q216 523 200 541T183 597Z" />
<glyph unicode="&#xf0;" glyph-name="eth" horiz-adv-x="536" d="M213 653Q242 638 269 623T322 591L442 653L475 604L373 553Q443 492 472 413T501 223Q501 159 489 115T449 43T377 3T268 -10Q203 -10 159 2T87 42T47 114T35 223Q35 287 47 331T87 403T159 443T268
456Q343 456 397 429Q383 456 361 480T313 522L219 475L189 523L259 559Q239 570 220 581T183 602L213 653ZM199 223Q199 184 201 151T208 93Q212 64 217 41Q222 39 230 38Q243 35 268 35Q292 35 306 38Q314 39 319 41Q324 64 328 93Q331 117 334 150T337 223Q337
262 334 295T328 353Q324 381 319 405Q313 406 305 408Q298 409 289 410T268 411Q255 411 246 410T230 408Q222 406 217 405Q212 381 208 353Q204 328 202 295T199 223Z" />
<glyph unicode="&#xf1;" glyph-name="ntilde" horiz-adv-x="603" d="M30 431H89L240 460V390Q242 393 251 404T278 426T325 447T396 456Q419 456 442 452T485 438T517 409T529 362V51H588V0H371V394Q369 394 365 395Q357 397 343 397Q322 397 306 389T277 369T258
347T247 329V51H306V0H30V51H89V381H30V431ZM195 557Q205 598 225 614T277 630Q293 630 309 625T340 613T371 601T400 595Q417 595 425 605T439 631L488 610Q478 569 458 553T407 537Q390 537 374 542T343 554T312 566T283 572Q266 572 258 562T244 536L195 557Z"
/>
<glyph unicode="&#xf2;" glyph-name="ograve" horiz-adv-x="536" d="M199 223Q199 184 201 151T208 93Q212 64 217 41Q222 39 230 38Q243 35 268 35Q292 35 306 38Q314 39 319 41Q324 64 328 93Q331 117 334 150T337 223Q337 262 334 295T328 353Q324 381 319
405Q313 406 305 408Q298 409 289 410T268 411Q255 411 246 410T230 408Q222 406 217 405Q212 381 208 353Q204 328 202 295T199 223ZM35 223Q35 287 47 331T87 403T159 443T268 456Q332 456 376 444T449 404T489 332T501 223Q501 159 489 115T449 43T377 3T268
-10Q203 -10 159 2T87 42T47 114T35 223ZM295 514L270 486L73 595Q52 613 52 638Q52 650 57 661T71 682T91 697T113 703Q133 703 150 689L295 514Z" />
<glyph unicode="&#xf3;" glyph-name="oacute" horiz-adv-x="536" d="M199 223Q199 184 201 151T208 93Q212 64 217 41Q222 39 230 38Q243 35 268 35Q292 35 306 38Q314 39 319 41Q324 64 328 93Q331 117 334 150T337 223Q337 262 334 295T328 353Q324 381 319
405Q313 406 305 408Q298 409 289 410T268 411Q255 411 246 410T230 408Q222 406 217 405Q212 381 208 353Q204 328 202 295T199 223ZM35 223Q35 287 47 331T87 403T159 443T268 456Q332 456 376 444T449 404T489 332T501 223Q501 159 489 115T449 43T377 3T268
-10Q203 -10 159 2T87 42T47 114T35 223ZM390 689Q407 703 427 703Q438 703 449 698T468 683T482 662T488 638Q488 613 467 595L270 486L245 514L390 689Z" />
<glyph unicode="&#xf4;" glyph-name="ocircumflex" horiz-adv-x="536" d="M199 223Q199 184 201 151T208 93Q212 64 217 41Q222 39 230 38Q243 35 268 35Q292 35 306 38Q314 39 319 41Q324 64 328 93Q331 117 334 150T337 223Q337 262 334 295T328 353Q324 381
319 405Q313 406 305 408Q298 409 289 410T268 411Q255 411 246 410T230 408Q222 406 217 405Q212 381 208 353Q204 328 202 295T199 223ZM35 223Q35 287 47 331T87 403T159 443T268 456Q332 456 376 444T449 404T489 332T501 223Q501 159 489 115T449 43T377 3T268
-10Q203 -10 159 2T87 42T47 114T35 223ZM225 680Q232 688 242 695T266 703H274Q297 703 315 680L452 514L427 486L270 573L113 486L88 514L225 680Z" />
<glyph unicode="&#xf5;" glyph-name="otilde" horiz-adv-x="536" d="M199 223Q199 184 201 151T208 93Q212 64 217 41Q222 39 230 38Q243 35 268 35Q292 35 306 38Q314 39 319 41Q324 64 328 93Q331 117 334 150T337 223Q337 262 334 295T328 353Q324 381 319
405Q313 406 305 408Q298 409 289 410T268 411Q255 411 246 410T230 408Q222 406 217 405Q212 381 208 353Q204 328 202 295T199 223ZM35 223Q35 287 47 331T87 403T159 443T268 456Q332 456 376 444T449 404T489 332T501 223Q501 159 489 115T449 43T377 3T268
-10Q203 -10 159 2T87 42T47 114T35 223ZM122 557Q132 598 152 614T204 630Q220 630 236 625T267 613T298 601T327 595Q344 595 352 605T366 631L415 610Q405 569 385 553T334 537Q317 537 301 542T270 554T239 566T210 572Q193 572 185 562T171 536L122 557Z"
/>
<glyph unicode="&#xf6;" glyph-name="odieresis" horiz-adv-x="536" d="M199 223Q199 184 201 151T208 93Q212 64 217 41Q222 39 230 38Q243 35 268 35Q292 35 306 38Q314 39 319 41Q324 64 328 93Q331 117 334 150T337 223Q337 262 334 295T328 353Q324 381 319
405Q313 406 305 408Q298 409 289 410T268 411Q255 411 246 410T230 408Q222 406 217 405Q212 381 208 353Q204 328 202 295T199 223ZM35 223Q35 287 47 331T87 403T159 443T268 456Q332 456 376 444T449 404T489 332T501 223Q501 159 489 115T449 43T377 3T268
-10Q203 -10 159 2T87 42T47 114T35 223ZM95 597Q95 635 111 653T166 672Q207 672 222 654T237 597Q237 559 221 541T166 523Q128 523 112 541T95 597ZM300 597Q300 635 316 653T371 672Q412 672 427 654T442 597Q442 559 426 541T371 523Q333 523 317 541T300
597Z" />
<glyph unicode="&#xf7;" glyph-name="divide" horiz-adv-x="472" d="M422 292V234H50V292H422ZM194 112Q194 135 203 145T236 156Q259 156 268 146T277 112Q277 69 236 69Q213 69 204 79T194 112ZM194 412Q194 435 203 445T236 456Q259 456 268 446T277 412Q277
369 236 369Q213 369 204 379T194 412Z" />
<glyph unicode="&#xf8;" glyph-name="oslash" horiz-adv-x="536" d="M401 435Q455 412 478 362T501 223Q501 159 489 115T449 43T377 3T268 -10Q248 -10 230 -9T195 -5L182 -34H114L135 11Q81 34 58 84T35 223Q35 287 47 331T87 403T159 443T268 456Q288 456 306
455T340 451L354 480H422L401 435ZM319 41Q324 64 328 93Q331 117 334 150T337 223V298L216 38Q226 37 240 36T268 35Q292 35 306 38Q314 39 319 41ZM199 148L320 407Q309 409 296 410T268 411Q255 411 246 410T230 408Q222 406 217 405Q212 381 208 353Q204 328
202 295T199 223V148Z" />
<glyph unicode="&#xf9;" glyph-name="ugrave" horiz-adv-x="580" d="M15 431H74L225 460V55Q227 54 231 53Q235 52 253 52Q274 52 290 60T318 80T338 102T349 119V449H507V50H520Q529 50 538 51L560 53V5Q542 2 525 0Q511 -2 495 -3T469 -4Q443 -4 424 1T392 16T369
36T356 59Q354 56 345 45T318 23T271 2T200 -7Q177 -7 154 -3T111 11T79 40T67 87V381H15V431ZM314 514L289 486L92 595Q71 613 71 638Q71 650 76 661T90 682T110 697T132 703Q152 703 169 689L314 514Z" />
<glyph unicode="&#xfa;" glyph-name="uacute" horiz-adv-x="580" d="M15 431H74L225 460V55Q227 54 231 53Q235 52 253 52Q274 52 290 60T318 80T338 102T349 119V449H507V50H520Q529 50 538 51L560 53V5Q542 2 525 0Q511 -2 495 -3T469 -4Q443 -4 424 1T392 16T369
36T356 59Q354 56 345 45T318 23T271 2T200 -7Q177 -7 154 -3T111 11T79 40T67 87V381H15V431ZM409 689Q426 703 446 703Q457 703 468 698T487 683T501 662T507 638Q507 613 486 595L289 486L264 514L409 689Z" />
<glyph unicode="&#xfb;" glyph-name="ucircumflex" horiz-adv-x="580" d="M15 431H74L225 460V55Q227 54 231 53Q235 52 253 52Q274 52 290 60T318 80T338 102T349 119V449H507V50H520Q529 50 538 51L560 53V5Q542 2 525 0Q511 -2 495 -3T469 -4Q443 -4 424 1T392
16T369 36T356 59Q354 56 345 45T318 23T271 2T200 -7Q177 -7 154 -3T111 11T79 40T67 87V381H15V431ZM244 680Q251 688 261 695T285 703H293Q316 703 334 680L471 514L446 486L289 573L132 486L107 514L244 680Z" />
<glyph unicode="&#xfc;" glyph-name="udieresis" horiz-adv-x="580" d="M15 431H74L225 460V55Q227 54 231 53Q235 52 253 52Q274 52 290 60T318 80T338 102T349 119V449H507V50H520Q529 50 538 51L560 53V5Q542 2 525 0Q511 -2 495 -3T469 -4Q443 -4 424 1T392
16T369 36T356 59Q354 56 345 45T318 23T271 2T200 -7Q177 -7 154 -3T111 11T79 40T67 87V381H15V431ZM319 597Q319 635 335 653T390 672Q431 672 446 654T461 597Q461 559 445 541T390 523Q352 523 336 541T319 597ZM114 597Q114 635 130 653T185 672Q226 672
241 654T256 597Q256 559 240 541T185 523Q147 523 131 541T114 597Z" />
<glyph unicode="&#xfd;" glyph-name="yacute" horiz-adv-x="531" d="M-15 449H194L309 158L413 398H333V449H541V398H471L271 -70Q262 -92 252 -109T228 -139T196 -158T151 -165Q123 -165 107 -156T81 -133T70 -105T67 -79V-49H120V-80Q120 -92 126 -103T151 -114Q178
-114 192 -95T218 -50L229 -24L35 398H-15V449ZM412 689Q429 703 449 703Q460 703 471 698T490 683T504 662T510 638Q510 613 489 595L292 486L267 514L412 689Z" />
<glyph unicode="&#xfe;" glyph-name="thorn" horiz-adv-x="579" d="M25 615H84L242 644V403Q270 427 303 441T374 455Q415 455 447 443T500 403T533 331T544 223Q544 159 532 115T492 43T420 3T311 -9Q293 -9 276 -7T242 -3V-165H25V-114H84V565H25V615ZM362 401Q329
401 298 380T242 326V45Q259 40 277 38T311 36Q335 36 349 39Q357 40 362 42Q367 65 371 93Q374 117 377 150T380 223Q380 271 377 304T371 360Q367 386 362 401Z" />
<glyph unicode="&#xff;" glyph-name="ydieresis" horiz-adv-x="531" d="M-15 449H194L309 158L413 398H333V449H541V398H471L271 -70Q262 -92 252 -109T228 -139T196 -158T151 -165Q123 -165 107 -156T81 -133T70 -105T67 -79V-49H120V-80Q120 -92 126 -103T151
-114Q178 -114 192 -95T218 -50L229 -24L35 398H-15V449ZM117 597Q117 635 133 653T188 672Q229 672 244 654T259 597Q259 559 243 541T188 523Q150 523 134 541T117 597ZM322 597Q322 635 338 653T393 672Q434 672 449 654T464 597Q464 559 448 541T393 523Q355
523 339 541T322 597Z" />
<glyph unicode="&#x2013;" glyph-name="endash" horiz-adv-x="440" d="M440 322V264H0V322H440Z" />
<glyph unicode="&#x2014;" glyph-name="emdash" horiz-adv-x="692" d="M692 322V264H0V322H692Z" />
<glyph unicode="&#x2018;" glyph-name="quoteleft" horiz-adv-x="266" d="M216 442Q216 397 197 376T133 355Q85 355 68 376T50 442Q50 496 53 531T69 589T111 620T192 629V581H184Q142 581 124 570T104 525Q116 528 133 528Q178 528 197 508T216 442Z" />
<glyph unicode="&#x2019;" glyph-name="quoteright" horiz-adv-x="266" d="M50 542Q50 587 69 608T133 629Q181 629 198 608T216 542Q216 488 213 453T197 395T155 364T74 355V403H82Q124 403 142 414T162 459Q148 456 133 456Q88 456 69 476T50 542Z" />
<glyph unicode="&#x201a;" glyph-name="quotesinglbase" horiz-adv-x="266" d="M50 62Q50 107 69 128T133 149Q181 149 198 128T216 62Q216 8 213 -27T197 -85T155 -116T74 -125V-77H82Q124 -77 142 -66T162 -21Q148 -24 133 -24Q88 -24 69 -4T50 62Z" />
<glyph unicode="&#x201c;" glyph-name="quotedblleft" horiz-adv-x="466" d="M416 442Q416 397 397 376T333 355Q285 355 268 376T250 442V450Q250 501 253 535T270 590T312 620T392 629V581H384Q342 581 324 570T304 525Q316 528 333 528Q378 528 397 508T416
442ZM216 442Q216 397 197 376T133 355Q85 355 68 376T50 442Q50 496 53 531T69 589T111 620T192 629V581H184Q142 581 124 570T104 525Q116 528 133 528Q178 528 197 508T216 442Z" />
<glyph unicode="&#x201d;" glyph-name="quotedblright" horiz-adv-x="466" d="M50 542Q50 587 69 608T133 629Q181 629 198 608T216 542Q216 488 213 453T197 395T155 364T74 355V403H82Q124 403 142 414T162 459Q148 456 133 456Q88 456 69 476T50 542ZM250 542Q250
587 269 608T333 629Q381 629 398 608T416 542Q416 488 413 453T397 395T355 364T274 355V403H282Q324 403 342 414T362 459Q348 456 333 456Q288 456 269 476T250 542Z" />
<glyph unicode="&#x201e;" glyph-name="quotedblbase" horiz-adv-x="466" d="M50 62Q50 107 69 128T133 149Q181 149 198 128T216 62Q216 8 213 -27T197 -85T155 -116T74 -125V-77H82Q124 -77 142 -66T162 -21Q148 -24 133 -24Q88 -24 69 -4T50 62ZM250 62Q250
107 269 128T333 149Q381 149 398 128T416 62Q416 8 413 -27T397 -85T355 -116T274 -125V-77H282Q324 -77 342 -66T362 -21Q348 -24 333 -24Q288 -24 269 -4T250 62Z" />
<glyph unicode="&#x2022;" glyph-name="bullet" horiz-adv-x="376" d="M80 299Q80 357 104 384T188 412Q250 412 273 385T296 299Q296 240 271 214T188 187Q129 187 105 213T80 299Z" />
<glyph unicode="&#x2039;" glyph-name="guilsinglleft" horiz-adv-x="338" d="M84 196Q74 204 67 215T60 243V248Q61 261 70 272T95 298L259 435L288 408L197 243L288 78L259 52L84 196Z" />
<glyph unicode="&#x203a;" glyph-name="guilsinglright" horiz-adv-x="338" d="M79 52L50 78L141 243L50 408L79 435L243 298Q259 284 268 273T278 248V243Q278 226 271 215T254 196L79 52Z" />
</font>
</defs>
</svg>
