<?xml version="1.0" standalone="no"?>
<!DOCTYPE svg PUBLIC "-//W3C//DTD SVG 1.1//EN" "http://www.w3.org/Graphics/SVG/1.1/DTD/svg11.dtd">
<svg xmlns="http://www.w3.org/2000/svg">
<defs >
<font id="OverpassMono" horiz-adv-x="626" ><font-face
    font-family="Overpass Mono SemiBold"
    units-per-em="1000"
    panose-1="0 0 7 9 0 0 0 0 0 0"
    ascent="982"
    descent="-284"
    alphabetic="0" />
<glyph unicode=" " glyph-name="space" horiz-adv-x="616" />
<glyph unicode="!" glyph-name="exclam" horiz-adv-x="616" d="M280 193L258 491V712H359V491L337 193H280ZM308 -13Q276 -13 255 9T233 61Q233 92 254 114T308 136Q339 136 361 114T383 61T361 9T308 -13Z" />
<glyph unicode="&quot;" glyph-name="quotedbl" horiz-adv-x="616" d="M152 700H274L253 421H172L152 700ZM342 700H464L443 421H362L342 700Z" />
<glyph unicode="#" glyph-name="numbersign" horiz-adv-x="616" d="M97 0L126 190H11L25 278H139L163 437H52L65 524H176L203 700H294L267 524H399L426 700H517L490 524H605L592 437H477L452 278H564L550 190H439L410 0H319L348 190H217L188 0H97ZM230 278H361L386
437H254L230 278Z" />
<glyph unicode="$" glyph-name="dollar" horiz-adv-x="616" d="M261 -95V-6Q193 7 145 49T76 154L170 189Q191 141 229 113T318 85Q372 85 403 112T435 191Q435 240 398 271T295 328Q260 342 239 351T188 380T141 418T112 468T99 536Q99 600 142 648T261 708V787H362V707Q420
695 458 660T510 576L417 545Q404 576 375 596T303 616Q257 616 231 595T205 537Q205 497 238 473T338 422Q372 409 395 398T448 367T496 325T527 268T540 192Q540 108 491 56T362 -8V-95H261Z" />
<glyph unicode="%" glyph-name="percent" horiz-adv-x="616" d="M111 -12H24L502 712H588L111 -12ZM156 371Q83 371 47 419T11 532Q11 593 47 642T156 692T265 645T301 532Q301 494 288 460T241 398T156 371ZM156 434Q192 434 211 462T231 532Q231 576 212 602T156
629Q119 629 100 602T81 532Q81 487 100 461T156 434ZM535 8T461 8T352 56T316 169Q316 230 352 279T461 329T570 282T606 169Q606 107 571 58ZM461 71Q497 71 516 99T536 169Q536 213 517 239T461 266Q424 266 405 239T386 169Q386 124 404 98T461 71Z" />
<glyph unicode="&amp;" glyph-name="ampersand" horiz-adv-x="616" d="M606 0H478L421 72Q334 -12 214 -12Q122 -12 66 41T10 181Q10 255 51 302T166 393Q127 446 110 483T92 559Q92 630 140 671T262 712Q335 712 382 669T429 557Q429 499 396 457T303 377L418
234Q438 285 441 335H538Q533 236 484 151L606 0ZM186 560Q186 536 200 511T250 441Q291 468 313 494T335 555T314 610T259 631T206 612T186 560ZM230 82Q305 82 363 145L219 326Q166 292 139 261T111 188Q111 141 143 112T230 82Z" />
<glyph unicode="&apos;" glyph-name="quotesingle" horiz-adv-x="616" d="M247 700H369L348 421H267L247 700Z" />
<glyph unicode="(" glyph-name="parenleft" horiz-adv-x="616" d="M375 -130Q193 30 193 284Q193 424 248 534T386 712H484Q459 691 430 655T368 564T314 435T293 284Q293 207 313 136T365 11T423 -74T473 -130H375Z" />
<glyph unicode=")" glyph-name="parenright" horiz-adv-x="616" d="M144 -130Q169 -106 193 -75T251 10T304 135T324 284Q324 360 303 434T249 563T187 654T133 712H231Q313 644 368 534T424 284Q424 30 242 -130H144Z" />
<glyph unicode="*" glyph-name="asterisk" horiz-adv-x="616" d="M220 115L142 167L204 262L258 312L185 295H76V390H185L258 374L205 423L143 518L221 570L290 466L308 399L327 466L396 570L474 518L412 423L358 374L431 390H540V295H431L358 312L412 262L474
167L396 115L327 219L308 287L289 219L220 115Z" />
<glyph unicode="+" glyph-name="plus" horiz-adv-x="616" d="M358 294V108H257V294H73V391H257V578H358V391H543V294H358Z" />
<glyph unicode="," glyph-name="comma" horiz-adv-x="616" d="M279 -181L232 -156Q289 -90 296 -14Q268 -9 251 9T234 57Q234 90 256 110T308 131Q341 131 363 107T385 39Q385 -30 353 -90T279 -181Z" />
<glyph unicode="-" glyph-name="hyphen" horiz-adv-x="616" d="M73 249V345H543V249H73Z" />
<glyph unicode="." glyph-name="period" horiz-adv-x="616" d="M339 -13T308 -13T256 8T234 60T255 111T308 133T360 112T382 60T361 9Z" />
<glyph unicode="/" glyph-name="slash" horiz-adv-x="616" d="M61 -130L454 712H555L162 -130H61Z" />
<glyph unicode="0" glyph-name="zero" horiz-adv-x="616" d="M308 -12Q239 -12 189 19T111 105T72 219T59 350Q59 402 65 449T89 546T134 631T206 689T308 712Q377 712 427 681T505 595T544 481T557 350Q557 298 551 251T526 154T481 69T410 11T308 -12ZM308 84Q350
84 380 107T424 172T445 256T452 350Q452 403 445 447T423 532T379 594T308 617Q266 617 236 593T191 529T170 444T163 350Q163 277 174 221T220 125T308 84ZM337 282T308 282T260 302T240 350T259 398T308 418T356 398T376 350T357 302Z" />
<glyph unicode="1" glyph-name="one" horiz-adv-x="616" d="M361 99H532V0H84V99H258V568L105 521V619L361 702V99Z" />
<glyph unicode="2" glyph-name="two" horiz-adv-x="616" d="M82 0Q82 70 99 126T149 223T217 293T300 351Q341 379 362 396T404 444T424 509Q424 557 395 587T315 617Q210 617 179 521L87 562Q110 629 171 670T314 712Q413 712 470 656T528 510Q528 464 515 428T472
361T417 312T345 264Q282 224 245 185T199 99H534V0H82Z" />
<glyph unicode="3" glyph-name="three" horiz-adv-x="616" d="M307 -12Q136 -12 75 152L169 190Q213 85 309 85Q365 85 401 114T437 198T403 284T305 316H247V412H300Q350 412 380 440T411 515Q411 560 382 588T308 616Q229 616 190 530L96 566Q123 631 177 671T308
712Q398 712 456 660T515 526Q515 478 492 438T428 374Q479 354 510 308T541 199Q541 104 475 46T307 -12Z" />
<glyph unicode="4" glyph-name="four" horiz-adv-x="616" d="M377 0V165H48V226L386 700H478V257H571V165H478V0H377ZM377 257V545L181 257H377Z" />
<glyph unicode="5" glyph-name="five" horiz-adv-x="616" d="M288 -12Q217 -12 163 11T77 66L134 145Q205 84 287 84Q352 84 393 124T435 228Q435 288 404 325T317 362Q244 362 193 304L101 343L139 700H499V604H229L205 418Q255 459 327 459Q424 459 481 395T539
231Q539 128 469 58T288 -12Z" />
<glyph unicode="6" glyph-name="six" horiz-adv-x="616" d="M311 -12Q195 -12 132 64T68 259Q68 423 170 550T451 712V621Q362 599 290 536T196 390Q242 439 330 439Q424 439 486 375T548 218Q548 119 481 54T311 -12ZM309 84Q370 84 408 119T447 213Q447 272
409 308T309 345Q249 345 210 308T171 213Q171 156 210 120T309 84Z" />
<glyph unicode="7" glyph-name="seven" horiz-adv-x="616" d="M83 700H533V618Q453 527 403 406T336 189T320 0H217Q218 174 263 319T415 605H83V700Z" />
<glyph unicode="8" glyph-name="eight" horiz-adv-x="616" d="M417 -12T308 -12T131 49T62 204Q62 266 96 314T187 385Q145 405 119 443T92 529Q92 608 152 660T308 712Q403 712 463 660T524 529Q524 481 498 443T428 386Q485 363 519 315T554 204Q554 110 486
49ZM308 425Q359 425 390 451T421 520Q421 565 390 593T308 621T227 594T195 520Q195 478 225 452T308 425ZM308 81Q370 81 410 116T450 210Q450 265 410 302T308 340Q245 340 206 303T166 210Q166 151 205 116T308 81Z" />
<glyph unicode="9" glyph-name="nine" horiz-adv-x="616" d="M181 -12V80Q273 96 342 159T431 317Q381 264 288 264Q193 264 131 326T68 484Q68 584 136 648T310 712Q428 712 488 638T548 441Q548 261 451 136T181 -12ZM307 356Q369 356 407 392T446 488Q446 544
407 581T308 618Q245 618 207 582T169 488Q169 428 206 392T307 356Z" />
<glyph unicode=":" glyph-name="colon" horiz-adv-x="616" d="M339 339T308 339T256 360T234 412T255 463T308 485T360 464T382 412T361 361ZM339 -13T308 -13T256 8T234 60T255 111T308 133T360 112T382 60T361 9Z" />
<glyph unicode=";" glyph-name="semicolon" horiz-adv-x="616" d="M339 339T308 339T256 360T234 412T255 463T308 485T360 464T382 412T361 361ZM279 -181L232 -156Q289 -90 296 -14Q268 -9 251 9T234 57Q234 90 256 110T308 131Q341 131 363 107T385 39Q385
-30 353 -90T279 -181Z" />
<glyph unicode="&lt;" glyph-name="less" horiz-adv-x="616" d="M543 113L73 303V389L543 580V479L209 347L543 214V113Z" />
<glyph unicode="=" glyph-name="equal" horiz-adv-x="616" d="M73 408V507H543V408H73ZM73 179V278H543V179H73Z" />
<glyph unicode="&gt;" glyph-name="greater" horiz-adv-x="616" d="M543 306L73 115V216L408 349L73 482V583L543 392V306Z" />
<glyph unicode="?" glyph-name="question" horiz-adv-x="616" d="M253 180V209Q253 261 271 301T314 365T366 410T410 459T428 520Q428 562 398 589T315 617Q254 617 220 583T186 490H88Q88 591 149 651T315 712Q415 712 472 658T529 519Q529 472 511 436T468
377T416 333T372 280T354 209V180H253ZM334 -13T303 -13T251 8T230 60T251 111T303 133T355 112T377 60T356 9Z" />
<glyph unicode="@" glyph-name="at" horiz-adv-x="616" d="M310 -12Q187 -12 109 81T31 337Q31 499 115 605T321 712Q439 712 512 628T585 413Q585 304 543 232T438 159Q413 159 394 176T368 223Q338 155 279 155Q230 155 198 202T166 326Q166 405 207 469T312
533Q372 533 388 464L395 520H459L430 315Q424 281 424 266Q424 232 449 232Q480 232 501 283T523 414Q523 520 468 584T324 649Q225 649 161 561T97 336Q97 208 155 131T314 54Q371 54 423 73L406 -1Q360 -12 310 -12ZM292 227Q327 227 349 268T371 364Q371 408
355 434T315 461Q279 461 257 421T234 324Q234 280 249 254T292 227Z" />
<glyph unicode="A" glyph-name="A" horiz-adv-x="616" d="M476 0L426 163H191L142 0H32L261 700H354L585 0H476ZM220 256H397L326 488Q315 524 308 561Q301 524 290 488L220 256Z" />
<glyph unicode="B" glyph-name="B" horiz-adv-x="616" d="M86 0V700H305Q421 700 473 647T525 515Q525 411 428 369Q485 351 517 307T550 202Q550 118 495 59T320 0H86ZM189 410H288Q355 410 389 436T424 510Q424 606 309 606H189V410ZM189 95H329Q394 95 421
125T449 199Q449 316 299 316H189V95Z" />
<glyph unicode="C" glyph-name="C" horiz-adv-x="616" d="M326 -12Q255 -12 202 19T117 102T71 217T56 350Q56 419 71 481T118 596T203 680T326 712Q405 712 455 674T531 576L439 531Q417 572 392 593T326 615Q269 615 231 573T178 473T163 350Q163 242 205 164T326
85Q401 85 443 175L536 139Q474 -12 326 -12Z" />
<glyph unicode="D" glyph-name="D" horiz-adv-x="616" d="M86 0V700H256Q321 700 373 680T459 627T517 549T550 454T560 350Q560 299 551 252T520 158T463 77T375 22T252 0H86ZM188 96H260Q313 96 352 118T412 179T444 259T454 350Q454 456 408 530T271 605H188V96Z" />
<glyph unicode="E" glyph-name="E" horiz-adv-x="616" d="M86 0V700H515V603H189V410H406V313H189V98H537V0H86Z" />
<glyph unicode="F" glyph-name="F" horiz-adv-x="616" d="M86 0V700H542V603H189V410H441V313H189V0H86Z" />
<glyph unicode="G" glyph-name="G" horiz-adv-x="616" d="M322 -12Q234 -12 173 41T85 174T58 350Q58 444 85 524T175 658T322 712Q400 712 447 677T527 581L436 529Q389 616 322 616Q267 616 230 574T179 474T164 350Q164 239 204 162T322 85Q379 85 410 124T441
229V253H317V348H547V258Q547 131 484 60T322 -12Z" />
<glyph unicode="H" glyph-name="H" horiz-adv-x="616" d="M86 0V700H189V411H428V700H530V0H428V314H189V0H86Z" />
<glyph unicode="I" glyph-name="I" horiz-adv-x="616" d="M513 608H359V92H513V0H104V92H257V608H104V700H513V608Z" />
<glyph unicode="J" glyph-name="J" horiz-adv-x="616" d="M301 -12Q148 -12 89 125L175 167Q197 124 224 105T301 85Q354 85 389 118T424 233V700H527V233Q527 163 507 113T451 37T379 0T301 -12Z" />
<glyph unicode="K" glyph-name="K" horiz-adv-x="616" d="M456 0L262 366L189 275V0H86V700H189V418L410 700H529L331 453L574 0H456Z" />
<glyph unicode="L" glyph-name="L" horiz-adv-x="616" d="M86 0V700H189V99H517V0H86Z" />
<glyph unicode="M" glyph-name="M" horiz-adv-x="616" d="M86 0V700H190L293 299Q306 250 309 228Q314 262 325 299L430 700H530V0H439V410Q439 453 441 470Q439 464 433 443T424 410L314 0H302L192 410Q191 414 175 470Q177 436 177 410V0H86Z" />
<glyph unicode="N" glyph-name="N" horiz-adv-x="616" d="M86 0V700H185L414 239Q428 213 435 196Q433 234 433 239V700H530V0H435L203 459Q201 463 197 472T188 489T181 503Q183 487 183 460V0H86Z" />
<glyph unicode="O" glyph-name="O" horiz-adv-x="616" d="M308 -12Q243 -12 193 18T114 101T71 216T56 350T70 484T114 599T193 681T308 712Q374 712 424 682T503 599T546 484T560 350T546 216T503 101T424 19T308 -12ZM308 85Q357 85 391 125T440 223T454 350Q454
465 418 540T308 616Q259 616 225 576T177 477T163 350Q163 236 199 161T308 85Z" />
<glyph unicode="P" glyph-name="P" horiz-adv-x="616" d="M86 0V700H318Q437 700 492 639T548 487Q548 403 491 339T318 274H189V0H86ZM189 369H324Q385 369 414 404T444 487Q444 533 416 569T324 605H189V369Z" />
<glyph unicode="Q" glyph-name="Q" horiz-adv-x="616" d="M560 350Q560 146 462 49L515 -30L441 -81L386 1Q353 -12 308 -12Q243 -12 193 18T114 101T71 216T56 350T70 484T114 599T193 681T308 712Q374 712 424 682T503 599T546 484T560 350ZM308 85Q316 85 328
87L280 158L356 209L403 139Q454 213 454 350Q454 465 418 540T308 616Q259 616 225 576T177 477T163 350Q163 236 199 161T308 85Z" />
<glyph unicode="R" glyph-name="R" horiz-adv-x="616" d="M539 495Q539 427 502 373T392 297L537 0H423L283 287H189V0H86V700H314Q433 700 486 642T539 495ZM189 605V383H316Q379 383 407 414T436 493Q436 538 409 571T316 605H189Z" />
<glyph unicode="S" glyph-name="S" horiz-adv-x="616" d="M315 -12Q232 -12 168 34T78 155L173 190Q194 142 233 113T322 84Q373 84 402 111T432 189Q432 234 394 266T290 328Q248 346 222 361T164 401T117 459T101 534Q101 609 157 660T307 712Q381 712 434 674T505
576L412 545Q398 576 370 596T302 617Q259 617 232 595T205 534Q205 514 214 498T245 468T283 445T333 421Q335 420 336 420T339 419T342 417Q382 398 410 382T470 338T519 274T536 192Q536 98 473 43T315 -12Z" />
<glyph unicode="T" glyph-name="T" horiz-adv-x="616" d="M257 0V602H54V700H562V602H359V0H257Z" />
<glyph unicode="U" glyph-name="U" horiz-adv-x="616" d="M308 -12Q203 -12 140 54T77 266V700H180V266Q180 85 308 85Q437 85 437 266V700H539V266Q539 122 477 55T308 -12Z" />
<glyph unicode="V" glyph-name="V" horiz-adv-x="616" d="M262 0L32 700H144L294 202Q300 181 308 142Q318 191 321 202L472 700H584L355 0H262Z" />
<glyph unicode="W" glyph-name="W" horiz-adv-x="616" d="M133 0L26 700H120L181 261L187 214Q190 238 196 261L277 700H340L422 264Q428 239 431 220Q432 229 434 243T436 263L492 700H590L483 0H401L316 444Q313 458 308 492Q306 477 300 445L215 0H133Z" />
<glyph unicode="X" glyph-name="X" horiz-adv-x="616" d="M569 0H452L306 268L163 0H47L254 362L62 700H179L308 461L436 700H552L361 367L569 0Z" />
<glyph unicode="Y" glyph-name="Y" horiz-adv-x="616" d="M451 700H563L360 275V0H258V275L54 700H168L309 381L451 700Z" />
<glyph unicode="Z" glyph-name="Z" horiz-adv-x="616" d="M540 700V623L209 97H538V0H77V76L406 603H100V700H540Z" />
<glyph unicode="[" glyph-name="bracketleft" horiz-adv-x="616" d="M215 -130V712H455V618H315V-36H455V-130H215Z" />
<glyph unicode="\" glyph-name="backslash" horiz-adv-x="616" d="M476 -130L83 712H184L577 -130H476Z" />
<glyph unicode="]" glyph-name="bracketright" horiz-adv-x="616" d="M445 -130H205V-36H344V618H205V712H445V-130Z" />
<glyph unicode="^" glyph-name="asciicircum" horiz-adv-x="616" d="M470 351L330 584L190 351H87L286 712H373L574 351H470Z" />
<glyph unicode="_" glyph-name="underscore" horiz-adv-x="616" d="M40 -177V-89H576V-177H40Z" />
<glyph unicode="`" glyph-name="grave" horiz-adv-x="616" d="M327 576L149 732H284L426 576H327Z" />
<glyph unicode="a" glyph-name="a" horiz-adv-x="616" d="M272 -12Q189 -12 137 32T85 159Q85 242 143 285T285 328Q361 328 418 298V333Q418 436 314 436Q235 436 151 383L121 465Q212 523 323 523Q515 523 515 336V0H418V44Q360 -12 272 -12ZM288 76Q362 76
418 136V213Q365 243 300 243Q249 243 215 222T181 159Q181 121 209 99T288 76Z" />
<glyph unicode="b" glyph-name="b" horiz-adv-x="616" d="M332 -12Q249 -12 195 42V0H95V675L195 722V468Q218 492 255 507T331 523Q428 523 488 452T548 256Q548 128 491 58T332 -12ZM316 82Q381 82 413 128T446 256Q446 429 316 429Q275 429 243 411T195 369V143Q237
82 316 82Z" />
<glyph unicode="c" glyph-name="c" horiz-adv-x="616" d="M319 -12Q215 -12 154 58T93 255Q93 380 155 451T323 523Q474 523 520 395L426 362Q399 429 323 429Q261 429 229 383T196 255Q196 173 228 128T320 82Q405 82 430 158L524 128Q480 -12 319 -12Z" />
<glyph unicode="d" glyph-name="d" horiz-adv-x="616" d="M291 -12Q188 -12 129 59T69 256Q69 380 129 451T289 523Q373 523 421 475V675L521 722V0H421V41Q376 -12 291 -12ZM304 82Q385 82 421 143V371Q384 429 303 429Q239 429 205 385T170 256Q170 179 206
131T304 82Z" />
<glyph unicode="e" glyph-name="e" horiz-adv-x="616" d="M536 279Q536 241 533 216H181Q192 152 227 115T320 78Q387 78 436 124L495 60Q423 -12 319 -12Q208 -12 144 62T80 256Q80 381 144 452T319 523Q414 523 475 461T536 279ZM179 303H437Q434 371 400 403T319
435Q257 435 222 401T179 303Z" />
<glyph unicode="f" glyph-name="f" horiz-adv-x="616" d="M416 623Q334 623 334 565V511H495V423H334V89H470V0H126V89H234V423H126V511H234V584Q234 621 248 647T287 686T339 706T397 712Q462 712 513 688V603Q467 623 416 623Z" />
<glyph unicode="g" glyph-name="g" horiz-adv-x="616" d="M275 -207L223 -125Q332 -118 373 -90T415 -4V43Q370 -12 287 -12Q194 -12 134 58T73 256Q73 379 132 451T289 523Q368 523 415 474V511H515V39Q515 -87 457 -143T275 -207ZM305 82Q377 82 415 145V369Q377
429 305 429Q241 429 208 385T175 256Q175 176 210 129T305 82Z" />
<glyph unicode="h" glyph-name="h" horiz-adv-x="616" d="M93 0V676L193 722V459Q242 523 335 523Q524 523 524 303V0H424V296Q424 366 393 397T312 429Q193 429 193 298V0H93Z" />
<glyph unicode="i" glyph-name="i" horiz-adv-x="616" d="M342 594T316 594T273 612T255 655T272 698T316 716T359 699T377 655T360 612ZM366 89H507V0H125V89H266V423H125V511H366V89Z" />
<glyph unicode="j" glyph-name="j" horiz-adv-x="616" d="M386 594T360 594T317 612T299 655T316 698T360 716T403 699T421 655T404 612ZM410 511V-2Q410 -104 361 -152T204 -214L155 -132Q245 -119 277 -92T310 -4V423H169V511H410Z" />
<glyph unicode="k" glyph-name="k" horiz-adv-x="616" d="M431 0L280 296L195 212V0H95V675L195 722V325L378 511H496L352 368L541 0H431Z" />
<glyph unicode="l" glyph-name="l" horiz-adv-x="616" d="M358 89H504V0H111V89H258V634H137L91 722H358V89Z" />
<glyph unicode="m" glyph-name="m" horiz-adv-x="616" d="M444 523Q508 523 538 480T569 338V0H475V312Q475 374 464 401T422 428Q390 428 374 396T357 309V0H263V319Q263 428 210 428Q178 428 160 396T141 309V0H47V511H135V444Q164 523 235 523Q271 523 296
501T331 447Q373 523 444 523Z" />
<glyph unicode="n" glyph-name="n" horiz-adv-x="616" d="M335 523Q524 523 524 303V0H424V296Q424 429 312 429Q193 429 193 298V0H93V511H186V449Q205 482 245 502T335 523Z" />
<glyph unicode="o" glyph-name="o" horiz-adv-x="616" d="M419 -12T308 -12T132 59T66 255T131 451T308 523T484 451T550 256Q550 132 485 60ZM241 82T308 82T412 129T449 256T413 382T308 429T204 384T168 255Q168 175 204 129Z" />
<glyph unicode="p" glyph-name="p" horiz-adv-x="616" d="M95 -202V511H195V470Q248 523 327 523Q430 523 490 452T550 256T488 60T328 -12Q243 -12 195 45V-155L95 -202ZM314 82Q378 82 413 127T448 256Q448 336 413 382T312 429Q234 429 195 369V143Q241 82 314 82Z" />
<glyph unicode="q" glyph-name="q" horiz-adv-x="616" d="M421 -200V45Q374 -12 290 -12Q189 -12 129 59T68 255T128 451T293 523Q368 523 421 470V511H521V-155L421 -200ZM302 82Q375 82 421 144V369Q383 429 305 429Q241 429 205 381T169 255Q169 172 203 127T302 82Z" />
<glyph unicode="r" glyph-name="r" horiz-adv-x="616" d="M437 523Q508 523 553 497V314H455V427Q448 428 434 428Q357 428 309 390T260 281V89H406V0H51V89H158V423H51V511H253V427Q277 471 328 497T437 523Z" />
<glyph unicode="s" glyph-name="s" horiz-adv-x="616" d="M308 -12Q247 -12 195 12T109 79L176 138Q236 74 315 74Q355 74 380 89T406 134Q406 175 293 221Q291 222 290 222T287 224T284 225T280 227Q237 245 214 256T165 287T128 330T116 386Q116 449 169 486T305
523Q419 523 489 443L423 388Q368 437 301 437Q260 437 235 423T210 385Q210 350 320 307Q324 305 326 304Q362 290 378 283T422 260T464 229T489 190T500 136Q500 67 448 28T308 -12Z" />
<glyph unicode="t" glyph-name="t" horiz-adv-x="616" d="M355 -12Q215 -12 215 122V423H103V511H215V674L315 722V511H487V423H315V146Q315 112 331 95T388 78Q433 78 478 104L467 11Q423 -12 355 -12Z" />
<glyph unicode="u" glyph-name="u" horiz-adv-x="616" d="M284 -12Q92 -12 92 212V511H193V219Q193 148 223 116T304 83Q423 83 423 217V511H524V0H423V50Q375 -12 284 -12Z" />
<glyph unicode="v" glyph-name="v" horiz-adv-x="616" d="M263 0L66 511H171L294 178Q305 147 310 124Q315 147 326 178L447 511H551L354 0H263Z" />
<glyph unicode="w" glyph-name="w" horiz-adv-x="616" d="M150 0L20 511H114L184 214Q190 190 193 168Q200 205 202 215L269 511H347L415 215Q417 207 424 165Q428 191 434 215L502 511H596L466 0H386L320 287Q309 344 308 348Q306 337 301 316T295 288L231 0H150Z" />
<glyph unicode="x" glyph-name="x" horiz-adv-x="616" d="M64 0L251 264L76 511H190L281 382Q297 361 308 341Q316 356 334 382L426 511H540L365 264L552 0H439L334 147Q316 173 308 188Q297 168 281 147L177 0H64Z" />
<glyph unicode="y" glyph-name="y" horiz-adv-x="616" d="M180 -194L257 12L68 511H170L290 182Q297 162 306 133Q311 150 323 182L444 511H548L282 -194H180Z" />
<glyph unicode="z" glyph-name="z" horiz-adv-x="616" d="M107 0V73L380 422H127V511H509V441L236 90H508V0H107Z" />
<glyph unicode="{" glyph-name="braceleft" horiz-adv-x="616" d="M438 -130Q341 -128 285 -69T229 103V161Q229 200 214 224T171 248H148V335H171Q198 335 213 359T229 422V479Q229 592 285 651T438 712H469V623H438Q330 620 330 497V433Q330 364 308 333T241
293V289Q286 281 308 250T330 149V85Q330 -39 438 -42H469V-130H438Z" />
<glyph unicode="|" glyph-name="bar" horiz-adv-x="616" d="M258 -378V1062H358V-378H258Z" />
<glyph unicode="}" glyph-name="braceright" horiz-adv-x="616" d="M148 -130V-42H179Q232 -41 259 -8T287 85V149Q287 219 309 250T376 289V293Q331 302 309 333T287 433V497Q287 620 179 623H148V712H179Q276 710 332 651T388 479V422Q388 382 403 359T446 335H469V248H446Q419
248 404 224T388 161V103Q388 -9 332 -68T179 -130H148Z" />
<glyph unicode="~" glyph-name="asciitilde" horiz-adv-x="616" d="M432 265Q387 265 321 294T229 324Q201 324 185 308T167 265H95Q95 332 127 376T228 421Q274 421 340 392T431 362Q459 362 475 378T493 421H565Q565 354 533 310T432 265Z" />
<glyph unicode="&#xa0;" glyph-name="uni00A0" horiz-adv-x="616" />
<glyph unicode="&#xa1;" glyph-name="exclamdown" horiz-adv-x="616" d="M309 375Q277 375 255 397T233 449T255 501T309 523Q340 523 361 501T383 449T362 397T309 375ZM257 -200V20L287 318H329L358 20V-200H257Z" />
<glyph unicode="&#xa2;" glyph-name="cent" horiz-adv-x="616" d="M263 -12V90Q186 109 144 176T101 350T143 523T263 610V712H360V615Q475 599 513 488L417 455Q392 521 326 521Q267 521 235 476T203 350T234 225T322 180Q397 180 419 255L515 225Q480 101 360
86V-12H263Z" />
<glyph unicode="&#xa3;" glyph-name="sterling" horiz-adv-x="616" d="M99 0V102Q140 120 160 167T184 266Q184 270 184 276T185 285H94V373H162Q149 399 144 412T131 453T124 512Q124 594 182 653T350 712Q462 712 557 643L518 549Q493 569 478 579T427 602T350
615Q291 615 260 585T229 512Q229 489 236 467T255 417T274 373H430V285H290Q290 282 290 277T289 268Q284 170 212 96H566V0H99Z" />
<glyph unicode="&#xa4;" glyph-name="currency" horiz-adv-x="616" d="M388 86T308 86T172 123L105 55L30 131L101 201Q70 256 70 333Q70 406 101 466L30 537L102 610L170 542Q232 581 308 581T443 543L510 610L586 534L516 465Q546 408 546 333Q546 256 514 198L586
128L513 55L444 124Q388 86 308 86ZM308 183Q369 183 406 225T444 333T407 441T308 484Q248 484 210 442T172 333T210 225T308 183Z" />
<glyph unicode="&#xa5;" glyph-name="yen" horiz-adv-x="616" d="M365 327H502V248H358V182H502V103H358V0H258V103H109V182H258V248H109V327H250L39 700H153L308 414L465 700H577L365 327Z" />
<glyph unicode="&#xa6;" glyph-name="brokenbar" horiz-adv-x="616" d="M258 366V825H358V366H258ZM258 -225V234H358V-225H258Z" />
<glyph unicode="&#xa7;" glyph-name="section" horiz-adv-x="616" d="M311 -120Q241 -120 185 -95T97 -28L171 36Q226 -24 310 -24Q415 -24 415 47Q415 61 408 73T391 95T362 114T330 130T291 146T253 163Q217 178 198 188T154 217T120 259T109 316Q109 392 177
424Q109 469 109 555Q109 628 164 670T305 712Q431 712 499 629L423 568Q376 615 305 615Q263 615 239 599T214 554Q214 524 249 503T359 454Q390 442 408 434T450 411T487 380T509 340T519 285Q519 212 460 177Q519 130 519 50Q519 -31 464 -75T311 -120ZM378
224Q415 238 415 278Q415 301 393 320T347 349T273 377Q214 368 214 323Q214 313 218 305T231 289T250 275T277 262T307 250T342 237T378 224Z" />
<glyph unicode="&#xa8;" glyph-name="dieresis" horiz-adv-x="616" d="M244 594T219 594T177 611T159 654T176 697T219 714T261 697T279 654T262 611ZM422 594T397 594T355 611T337 654T354 697T397 714T439 697T457 654T440 611Z" />
<glyph unicode="&#xa9;" glyph-name="copyright" horiz-adv-x="616" d="M432 -12T308 -12T100 92T16 350T100 608T308 712T516 608T600 350T516 92ZM308 58Q402 58 463 141T525 350T464 558T308 642Q215 642 153 559T91 350T153 142T308 58ZM312 140Q232 140 189
199T145 353Q145 443 190 504T316 566Q414 566 453 466L378 433Q357 486 312 486Q270 486 250 449T229 353Q229 292 250 256T313 219Q368 219 382 277L455 250Q416 140 312 140Z" />
<glyph unicode="&#xaa;" glyph-name="ordfeminine" horiz-adv-x="616" d="M395 283V313Q351 273 284 273Q218 273 177 309T135 414Q135 481 183 517T296 554Q351 554 395 533V550Q395 596 375 615T309 635Q242 635 192 596L166 668Q225 712 320 712Q352 712 376
707T427 686T467 638T481 554V283H395ZM299 350Q355 350 395 390V458Q355 478 309 478Q272 478 248 462T223 414Q223 385 243 368T299 350Z" />
<glyph unicode="&#xab;" glyph-name="guillemotleft" horiz-adv-x="616" d="M223 0L71 256L223 511H332L180 256L332 0H223ZM435 0L283 256L435 511H545L393 256L545 0H435Z" />
<glyph unicode="&#xac;" glyph-name="logicalnot" horiz-adv-x="616" d="M442 169V375H73V472H543V169H442Z" />
<glyph unicode="&#xad;" glyph-name="uni00AD" horiz-adv-x="616" d="M73 249V345H543V249H73Z" />
<glyph unicode="&#xae;" glyph-name="registered" horiz-adv-x="616" d="M184 712T308 712T516 608T600 350T516 92T308 -12T100 92T16 350T100 608ZM308 58Q402 58 463 141T525 350T464 558T308 642Q215 642 153 559T91 350T153 142T308 58ZM462 428Q462 386
439 355T376 309L456 155H365L295 300H255V155H173V547H335Q401 547 431 511T462 428ZM255 476V374H336Q358 374 370 389T382 427Q382 446 371 461T336 476H255Z" />
<glyph unicode="&#xaf;" glyph-name="overscore" horiz-adv-x="616" d="M143 598V682H473V598H143Z" />
<glyph unicode="&#xb0;" glyph-name="degree" horiz-adv-x="616" d="M309 449Q235 449 184 499T133 622Q133 696 184 745T309 794Q382 794 432 745T483 622Q483 549 433 499T309 449ZM275 539T309 539T364 562T386 622T365 681T309 704T253 681T230 622Q230 587 252 563Z" />
<glyph unicode="&#xb1;" glyph-name="plusminus" horiz-adv-x="616" d="M358 355V199H257V355H73V452H257V608H358V452H543V355H358ZM73 0V97H543V0H73Z" />
<glyph unicode="&#xb2;" glyph-name="uni00B2" horiz-adv-x="616" d="M173 601Q173 657 201 692T262 740T323 765T351 793Q351 822 312 822Q288 822 270 809T245 771L174 789Q186 830 222 855T314 880T402 857T436 790Q436 761 412 740T357 710T298 688T266 662H435V601H173Z"
/>
<glyph unicode="&#xb3;" glyph-name="uni00B3" horiz-adv-x="616" d="M310 591Q207 591 170 669L245 689Q264 649 313 649Q334 649 347 659T360 685Q360 713 310 713H280V768H303Q345 768 345 794Q345 806 335 814T307 823Q268 823 251 789L181 809Q197 841 232
860T311 880Q363 880 395 858T427 801Q427 781 413 766T377 744Q443 732 443 679Q443 641 408 616T310 591Z" />
<glyph unicode="&#xb4;" glyph-name="acute" horiz-adv-x="616" d="M222 576L364 732H498L320 576H222Z" />
<glyph unicode="&#xb5;" glyph-name="uni00B5" horiz-adv-x="616" d="M416 0V49Q366 -12 292 -12Q231 -12 201 31V-153L100 -200V511H200V205Q200 136 226 109T304 82Q416 82 416 203V511H516V0H416Z" />
<glyph unicode="&#xb6;" glyph-name="paragraph" horiz-adv-x="616" d="M470 -121V603H382V-155L282 -200V276Q162 278 104 341T45 488Q45 577 101 638T276 700H570V-76L470 -121Z" />
<glyph unicode="&#xb7;" glyph-name="middot" horiz-adv-x="616" d="M339 277T308 277T256 298T234 349Q234 379 255 400T308 422T360 401T382 349Q382 320 361 299Z" />
<glyph unicode="&#xb8;" glyph-name="cedilla" horiz-adv-x="616" d="M295 -239Q230 -239 196 -202L247 -166Q258 -180 286 -180Q308 -180 322 -168T336 -135Q336 -117 320 -105T281 -92T242 -101L222 -77L292 10H348L311 -51Q366 -51 393 -75T420 -136Q420 -182
386 -210T295 -239Z" />
<glyph unicode="&#xb9;" glyph-name="uni00B9" horiz-adv-x="616" d="M268 601V768H219V831Q271 831 289 873H350V601H268Z" />
<glyph unicode="&#xba;" glyph-name="ordmasculine" horiz-adv-x="616" d="M396 273T308 273T169 331T117 492T168 653T308 712T447 654T499 492T448 331ZM308 357Q357 357 384 392T411 492T384 593T308 629Q260 629 233 593T205 492Q205 428 232 393T308 357Z" />
<glyph unicode="&#xbb;" glyph-name="guillemotright" horiz-adv-x="616" d="M71 0L223 256L71 511H180L332 256L180 0H71ZM283 0L435 256L283 511H393L545 256L393 0H283Z" />
<glyph unicode="&#xbc;" glyph-name="onequarter" horiz-adv-x="616" d="M268 433V600H219V663Q271 663 289 705H350V433H268ZM40 316V392H576V316H40ZM328 0V55H150V98L331 272H406V112H459V55H406V0H328ZM328 112V195L243 112H328Z" />
<glyph unicode="&#xbd;" glyph-name="onehalf" horiz-adv-x="616" d="M268 433V600H219V663Q271 663 289 705H350V433H268ZM40 316V392H576V316H40ZM173 0Q173 56 201 91T262 139T323 164T351 192Q351 221 312 221Q288 221 270 208T245 170L174 188Q186 229 222
254T314 279T402 256T436 189Q436 160 412 139T357 109T298 87T266 61H435V0H173Z" />
<glyph unicode="&#xbe;" glyph-name="threequarters" horiz-adv-x="616" d="M310 423Q207 423 170 501L245 521Q264 481 313 481Q334 481 347 491T360 517Q360 545 310 545H280V600H303Q345 600 345 626Q345 638 335 646T307 655Q268 655 251 621L181 641Q197
673 232 692T311 712Q363 712 395 690T427 633Q427 613 413 598T377 576Q443 564 443 511Q443 473 408 448T310 423ZM40 316V392H576V316H40ZM328 0V55H150V98L331 272H406V112H459V55H406V0H328ZM328 112V195L243 112H328Z" />
<glyph unicode="&#xbf;" glyph-name="questiondown" horiz-adv-x="616" d="M342 378T311 378T259 399T237 450T258 501T311 523T364 502T386 450Q386 421 364 400ZM298 -200Q197 -200 141 -145T85 -3Q85 42 103 77T146 134T197 178T241 231T260 304V333H360V304Q360
251 342 212T299 149T248 106T204 59T186 -3Q186 -49 215 -77T298 -106Q361 -106 395 -70T430 33H531Q531 -75 467 -137T298 -200Z" />
<glyph unicode="&#xc0;" glyph-name="Agrave" horiz-adv-x="616" d="M370 766H271L93 922H228L370 766ZM476 0L426 163H191L142 0H32L261 700H354L585 0H476ZM220 256H397L326 488Q315 524 308 561Q301 524 290 488L220 256Z" />
<glyph unicode="&#xc1;" glyph-name="Aacute" horiz-adv-x="616" d="M511 922L333 766H235L377 922H511ZM476 0L426 163H191L142 0H32L261 700H354L585 0H476ZM220 256H397L326 488Q315 524 308 561Q301 524 290 488L220 256Z" />
<glyph unicode="&#xc2;" glyph-name="Acircumflex" horiz-adv-x="616" d="M307 851L207 766H115L256 922H359L500 766H407L307 851ZM476 0L426 163H191L142 0H32L261 700H354L585 0H476ZM220 256H397L326 488Q315 524 308 561Q301 524 290 488L220 256Z" />
<glyph unicode="&#xc3;" glyph-name="Atilde" horiz-adv-x="616" d="M222 831Q178 831 175 787H125Q125 911 229 911Q268 911 320 887T394 862Q414 862 427 873T441 907H491Q491 783 387 783Q349 783 297 807T222 831ZM476 0L426 163H191L142 0H32L261 700H354L585
0H476ZM220 256H397L326 488Q315 524 308 561Q301 524 290 488L220 256Z" />
<glyph unicode="&#xc4;" glyph-name="Adieresis" horiz-adv-x="616" d="M244 784T218 784T175 801T158 844T175 887T218 904T261 887T278 844T261 801ZM422 784T396 784T353 801T336 844T353 887T396 904T439 887T456 844T439 801ZM476 0L426 163H191L142 0H32L261
700H354L585 0H476ZM220 256H397L326 488Q315 524 308 561Q301 524 290 488L220 256Z" />
<glyph unicode="&#xc5;" glyph-name="Aring" horiz-adv-x="616" d="M476 0L426 163H191L142 0H32L245 651Q218 667 202 694T186 754Q186 804 222 839T308 874Q359 874 395 839T431 754Q431 686 370 650L585 0H476ZM328 804T308 804T275 790T261 754T274 718T308
703T342 717T356 754T342 790ZM220 256H397L326 488Q315 524 308 561Q301 524 290 488L220 256Z" />
<glyph unicode="&#xc6;" glyph-name="AE" horiz-adv-x="616" d="M434 96H613V0H337V163H177L111 0H0L297 700H592V604H434V409H553V314H434V96ZM214 256L337 257V567Q334 560 327 539T317 511L214 256Z" />
<glyph unicode="&#xc7;" glyph-name="Ccedilla" horiz-adv-x="616" d="M536 139Q478 -2 345 -11L321 -51Q376 -51 403 -75T430 -136Q430 -182 396 -210T305 -239Q240 -239 206 -202L257 -166Q268 -180 296 -180Q318 -180 332 -168T346 -135Q346 -117 330 -105T291
-92T252 -101L232 -77L286 -9Q207 2 154 58T78 188T56 350Q56 419 71 481T118 596T203 680T326 712Q405 712 455 674T531 576L439 531Q417 572 392 593T326 615Q269 615 231 573T178 473T163 350Q163 242 205 164T326 85Q401 85 443 175L536 139Z" />
<glyph unicode="&#xc8;" glyph-name="Egrave" horiz-adv-x="616" d="M283 766L105 922H240L382 766H283ZM86 0V700H515V603H189V410H406V313H189V98H537V0H86Z" />
<glyph unicode="&#xc9;" glyph-name="Eacute" horiz-adv-x="616" d="M227 769L369 925H503L325 769H227ZM86 0V700H515V603H189V410H406V313H189V98H537V0H86Z" />
<glyph unicode="&#xca;" glyph-name="Ecircumflex" horiz-adv-x="616" d="M399 766L299 851L199 766H107L248 922H351L492 766H399ZM86 0V700H515V603H189V410H406V313H189V98H537V0H86Z" />
<glyph unicode="&#xcb;" glyph-name="Edieresis" horiz-adv-x="616" d="M236 784T210 784T167 801T150 844T167 887T210 904T253 887T270 844T253 801ZM414 784T388 784T345 801T328 844T345 887T388 904T431 887T448 844T431 801ZM86 0V700H515V603H189V410H406V313H189V98H537V0H86Z"
/>
<glyph unicode="&#xcc;" glyph-name="Igrave" horiz-adv-x="616" d="M366 766H267L89 922H224L366 766ZM513 608H359V92H513V0H104V92H257V608H104V700H513V608Z" />
<glyph unicode="&#xcd;" glyph-name="Iacute" horiz-adv-x="616" d="M520 925L342 769H244L386 925H520ZM513 700V608H359V92H513V0H104V92H257V608H104V700H513Z" />
<glyph unicode="&#xce;" glyph-name="Icircumflex" horiz-adv-x="616" d="M308 851L208 766H116L257 922H360L501 766H408L308 851ZM514 608H360V92H514V0H105V92H258V608H105V700H514V608Z" />
<glyph unicode="&#xcf;" glyph-name="Idieresis" horiz-adv-x="616" d="M244 784T219 784T177 801T159 844T176 887T219 904T261 887T279 844T262 801ZM422 784T397 784T355 801T337 844T354 887T397 904T439 887T457 844T440 801ZM514 608H360V92H514V0H105V92H258V608H105V700H514V608Z"
/>
<glyph unicode="&#xd0;" glyph-name="Eth" horiz-adv-x="616" d="M256 700Q321 700 373 680T459 627T517 549T550 454T560 350Q560 299 551 252T520 158T463 77T375 22T252 0H86V303H25V397H86V700H256ZM260 96Q313 96 352 118T412 179T444 259T454 350Q454 456
408 530T271 605H188V397H332V303H188V96H260Z" />
<glyph unicode="&#xd1;" glyph-name="Ntilde" horiz-adv-x="616" d="M387 783Q349 783 297 807T222 831Q178 831 175 787H125Q125 911 229 911Q268 911 320 887T394 862Q414 862 427 873T441 907H491Q491 783 387 783ZM86 0V700H185L414 239Q428 213 435 196Q433
234 433 239V700H530V0H435L203 459Q201 463 197 472T188 489T181 503Q183 487 183 460V0H86Z" />
<glyph unicode="&#xd2;" glyph-name="Ograve" horiz-adv-x="616" d="M282 766L104 922H239L381 766H282ZM308 -12Q243 -12 193 18T114 101T71 216T56 350T70 484T114 599T193 681T308 712Q374 712 424 682T503 599T546 484T560 350T546 216T503 101T424 19T308
-12ZM308 85Q357 85 391 125T440 223T454 350Q454 465 418 540T308 616Q259 616 225 576T177 477T163 350Q163 236 199 161T308 85Z" />
<glyph unicode="&#xd3;" glyph-name="Oacute" horiz-adv-x="616" d="M244 766L386 922H520L342 766H244ZM308 -12Q243 -12 193 18T114 101T71 216T56 350T70 484T114 599T193 681T308 712Q374 712 424 682T503 599T546 484T560 350T546 216T503 101T424 19T308
-12ZM308 85Q357 85 391 125T440 223T454 350Q454 465 418 540T308 616Q259 616 225 576T177 477T163 350Q163 236 199 161T308 85Z" />
<glyph unicode="&#xd4;" glyph-name="Ocircumflex" horiz-adv-x="616" d="M408 766L308 851L208 766H116L257 922H360L501 766H408ZM308 -12Q243 -12 193 18T114 101T71 216T56 350T70 484T114 599T193 681T308 712Q374 712 424 682T503 599T546 484T560 350T546
216T503 101T424 19T308 -12ZM308 85Q357 85 391 125T440 223T454 350Q454 465 418 540T308 616Q259 616 225 576T177 477T163 350Q163 236 199 161T308 85Z" />
<glyph unicode="&#xd5;" glyph-name="Otilde" horiz-adv-x="616" d="M388 783Q350 783 298 807T223 831Q179 831 176 787H126Q126 911 230 911Q269 911 321 887T395 862Q415 862 428 873T442 907H492Q492 783 388 783ZM308 -12Q243 -12 193 18T114 101T71 216T56
350T70 484T114 599T193 681T308 712Q374 712 424 682T503 599T546 484T560 350T546 216T503 101T424 19T308 -12ZM308 85Q357 85 391 125T440 223T454 350Q454 465 418 540T308 616Q259 616 225 576T177 477T163 350Q163 236 199 161T308 85Z" />
<glyph unicode="&#xd6;" glyph-name="Odieresis" horiz-adv-x="616" d="M244 784T219 784T177 801T159 844T176 887T219 904T261 887T279 844T262 801ZM422 784T397 784T355 801T337 844T354 887T397 904T439 887T457 844T440 801ZM308 -12Q243 -12 193 18T114
101T71 216T56 350T70 484T114 599T193 681T308 712Q374 712 424 682T503 599T546 484T560 350T546 216T503 101T424 19T308 -12ZM308 85Q357 85 391 125T440 223T454 350Q454 465 418 540T308 616Q259 616 225 576T177 477T163 350Q163 236 199 161T308 85Z" />
<glyph unicode="&#xd7;" glyph-name="multiply" horiz-adv-x="616" d="M310 272L150 112L77 184L238 344L78 503L148 573L308 414L467 574L539 501L379 342L538 182L469 113L310 272Z" />
<glyph unicode="&#xd8;" glyph-name="Oslash" horiz-adv-x="616" d="M601 712L513 581Q560 487 560 350Q560 279 546 216T503 101T424 19T308 -12Q217 -12 155 48L115 -12H15L103 120Q56 215 56 350Q56 421 70 484T114 599T193 681T308 712Q399 712 460 653L500
712H601ZM163 419T163 350T176 228L402 566Q367 616 308 616Q259 616 225 576T177 477ZM454 281T454 350T441 474L214 135Q251 85 308 85Q357 85 391 125T440 223Z" />
<glyph unicode="&#xd9;" glyph-name="Ugrave" horiz-adv-x="616" d="M295 766L117 922H252L394 766H295ZM308 -12Q203 -12 140 54T77 266V700H180V266Q180 85 308 85Q437 85 437 266V700H539V266Q539 122 477 55T308 -12Z" />
<glyph unicode="&#xda;" glyph-name="Uacute" horiz-adv-x="616" d="M232 769L374 925H508L330 769H232ZM308 -12Q203 -12 140 54T77 266V700H180V266Q180 85 308 85Q437 85 437 266V700H539V266Q539 122 477 55T308 -12Z" />
<glyph unicode="&#xdb;" glyph-name="Ucircumflex" horiz-adv-x="616" d="M408 766L308 851L208 766H116L257 922H360L501 766H408ZM308 -12Q203 -12 140 54T77 266V700H180V266Q180 85 308 85Q437 85 437 266V700H539V266Q539 122 477 55T308 -12Z" />
<glyph unicode="&#xdc;" glyph-name="Udieresis" horiz-adv-x="616" d="M244 784T219 784T177 801T159 844T176 887T219 904T261 887T279 844T262 801ZM422 784T397 784T355 801T337 844T354 887T397 904T439 887T457 844T440 801ZM308 -12Q203 -12 140 54T77
266V700H180V266Q180 85 308 85Q437 85 437 266V700H539V266Q539 122 477 55T308 -12Z" />
<glyph unicode="&#xdd;" glyph-name="Yacute" horiz-adv-x="616" d="M516 925L338 769H240L382 925H516ZM451 700H563L360 275V0H258V275L54 700H168L309 381L451 700Z" />
<glyph unicode="&#xde;" glyph-name="Thorn" horiz-adv-x="616" d="M86 0V700H189V569H318Q437 569 492 508T548 356Q548 271 491 207T318 143H189V0H86ZM324 238Q385 238 414 273T444 356Q444 402 416 438T324 474H189V238H324Z" />
<glyph unicode="&#xdf;" glyph-name="germandbls" horiz-adv-x="616" d="M89 -202V474Q89 556 120 611T197 689T299 712Q391 712 447 662T504 529Q504 420 410 385Q472 365 506 319T540 211Q540 108 481 48T330 -12Q271 -12 237 8L283 82Q303 76 327 76Q371 76
404 111T438 208Q438 262 404 299T299 336H278V424H299Q345 424 373 450T402 523Q402 569 376 597T300 625Q249 625 219 589T189 476V-153L89 -202Z" />
<glyph unicode="&#xe0;" glyph-name="agrave" horiz-adv-x="616" d="M294 576L116 732H251L393 576H294ZM272 -12Q189 -12 137 32T85 159Q85 242 143 285T285 328Q361 328 418 298V333Q418 436 314 436Q235 436 151 383L121 465Q212 523 323 523Q515 523 515 336V0H418V44Q360
-12 272 -12ZM288 76Q362 76 418 136V213Q365 243 300 243Q249 243 215 222T181 159Q181 121 209 99T288 76Z" />
<glyph unicode="&#xe1;" glyph-name="aacute" horiz-adv-x="616" d="M247 576L389 732H523L345 576H247ZM272 -12Q189 -12 137 32T85 159Q85 242 143 285T285 328Q361 328 418 298V333Q418 436 314 436Q235 436 151 383L121 465Q212 523 323 523Q515 523 515 336V0H418V44Q360
-12 272 -12ZM288 76Q362 76 418 136V213Q365 243 300 243Q249 243 215 222T181 159Q181 121 209 99T288 76Z" />
<glyph unicode="&#xe2;" glyph-name="acircumflex" horiz-adv-x="616" d="M413 576L313 661L213 576H121L262 732H365L506 576H413ZM272 -12Q189 -12 137 32T85 159Q85 242 143 285T285 328Q361 328 418 298V333Q418 436 314 436Q235 436 151 383L121 465Q212
523 323 523Q515 523 515 336V0H418V44Q360 -12 272 -12ZM288 76Q362 76 418 136V213Q365 243 300 243Q249 243 215 222T181 159Q181 121 209 99T288 76Z" />
<glyph unicode="&#xe3;" glyph-name="atilde" horiz-adv-x="616" d="M397 593Q359 593 307 617T232 641Q188 641 185 597H135Q135 721 239 721Q278 721 330 697T404 672Q424 672 437 683T451 717H501Q501 593 397 593ZM272 -12Q189 -12 137 32T85 159Q85 242 143
285T285 328Q361 328 418 298V333Q418 436 314 436Q235 436 151 383L121 465Q212 523 323 523Q515 523 515 336V0H418V44Q360 -12 272 -12ZM288 76Q362 76 418 136V213Q365 243 300 243Q249 243 215 222T181 159Q181 121 209 99T288 76Z" />
<glyph unicode="&#xe4;" glyph-name="adieresis" horiz-adv-x="616" d="M262 594T237 594T195 611T177 654T194 697T237 714T279 697T297 654T280 611ZM440 594T415 594T373 611T355 654T372 697T415 714T457 697T475 654T458 611ZM272 -12Q189 -12 137 32T85
159Q85 242 143 285T285 328Q361 328 418 298V333Q418 436 314 436Q235 436 151 383L121 465Q212 523 323 523Q515 523 515 336V0H418V44Q360 -12 272 -12ZM288 76Q362 76 418 136V213Q365 243 300 243Q249 243 215 222T181 159Q181 121 209 99T288 76Z" />
<glyph unicode="&#xe5;" glyph-name="aring" horiz-adv-x="616" d="M375 568T325 568T239 603T203 689T239 774T325 809Q376 809 412 774T448 689Q448 640 412 604ZM305 638T325 638T359 652T373 689T359 725T325 739T292 725T278 689T291 653ZM272 -12Q189 -12
137 32T85 159Q85 242 143 285T285 328Q361 328 418 298V333Q418 436 314 436Q235 436 151 383L121 465Q212 523 323 523Q515 523 515 336V0H418V44Q360 -12 272 -12ZM288 76Q362 76 418 136V213Q365 243 300 243Q249 243 215 222T181 159Q181 121 209 99T288 76Z"
/>
<glyph unicode="&#xe6;" glyph-name="ae" horiz-adv-x="616" d="M160 -12Q99 -12 61 32T23 159Q23 243 65 286T171 329Q217 329 258 301V327Q258 442 185 442Q129 442 73 386L50 465Q120 523 196 523Q278 523 309 445Q354 523 437 523Q505 523 549 460T593 279Q593
260 589 216H339Q341 155 369 112T436 69Q480 69 518 123L561 60Q505 -12 432 -12Q348 -12 300 81Q275 34 238 11T160 -12ZM339 296H510Q509 370 487 405T432 441Q394 441 369 405T339 296ZM172 68Q200 68 226 92T267 148Q260 177 258 215Q223 250 180 250Q148
250 126 227T104 158Q104 118 122 93T172 68Z" />
<glyph unicode="&#xe7;" glyph-name="ccedilla" horiz-adv-x="616" d="M524 128Q484 0 343 -11L319 -51Q374 -51 401 -75T428 -136Q428 -182 394 -210T303 -239Q238 -239 204 -202L255 -166Q266 -180 294 -180Q316 -180 330 -168T344 -135Q344 -117 328 -105T289
-92T250 -101L230 -77L284 -10Q195 2 144 71T93 255Q93 380 155 451T323 523Q474 523 520 395L426 362Q399 429 323 429Q261 429 229 383T196 255Q196 173 228 128T320 82Q405 82 430 158L524 128Z" />
<glyph unicode="&#xe8;" glyph-name="egrave" horiz-adv-x="616" d="M419 576H320L142 732H277L419 576ZM536 279Q536 241 533 216H181Q192 152 227 115T320 78Q387 78 436 124L495 60Q423 -12 319 -12Q208 -12 144 62T80 256Q80 381 144 452T319 523Q414 523
475 461T536 279ZM179 303H437Q434 371 400 403T319 435Q257 435 222 401T179 303Z" />
<glyph unicode="&#xe9;" glyph-name="eacute" horiz-adv-x="616" d="M512 732L334 576H236L378 732H512ZM536 279Q536 241 533 216H181Q192 152 227 115T320 78Q387 78 436 124L495 60Q423 -12 319 -12Q208 -12 144 62T80 256Q80 381 144 452T319 523Q414 523
475 461T536 279ZM179 303H437Q434 371 400 403T319 435Q257 435 222 401T179 303Z" />
<glyph unicode="&#xea;" glyph-name="ecircumflex" horiz-adv-x="616" d="M313 661L213 576H121L262 732H365L506 576H413L313 661ZM536 279Q536 241 533 216H181Q192 152 227 115T320 78Q387 78 436 124L495 60Q423 -12 319 -12Q208 -12 144 62T80 256Q80 381
144 452T319 523Q414 523 475 461T536 279ZM179 303H437Q434 371 400 403T319 435Q257 435 222 401T179 303Z" />
<glyph unicode="&#xeb;" glyph-name="edieresis" horiz-adv-x="616" d="M250 594T224 594T181 611T164 654T181 697T224 714T267 697T284 654T267 611ZM428 594T402 594T359 611T342 654T359 697T402 714T445 697T462 654T445 611ZM536 279Q536 241 533 216H181Q192
152 227 115T320 78Q387 78 436 124L495 60Q423 -12 319 -12Q208 -12 144 62T80 256Q80 381 144 452T319 523Q414 523 475 461T536 279ZM179 303H437Q434 371 400 403T319 435Q257 435 222 401T179 303Z" />
<glyph unicode="&#xec;" glyph-name="igrave" horiz-adv-x="616" d="M361 576H262L84 732H219L361 576ZM366 89H507V0H125V89H266V431H125V520H366V89Z" />
<glyph unicode="&#xed;" glyph-name="iacute" horiz-adv-x="616" d="M485 732L307 576H209L351 732H485ZM366 89H507V0H125V89H266V431H125V520H366V89Z" />
<glyph unicode="&#xee;" glyph-name="icircumflex" horiz-adv-x="616" d="M298 661L198 576H106L247 732H350L491 576H398L298 661ZM366 89H507V0H125V89H266V431H125V520H366V89Z" />
<glyph unicode="&#xef;" glyph-name="idieresis" horiz-adv-x="616" d="M234 594T209 594T167 611T149 654T166 697T209 714T251 697T269 654T252 611ZM412 594T387 594T345 611T327 654T344 697T387 714T429 697T447 654T430 611ZM366 89H507V0H125V89H266V431H125V520H366V89Z"
/>
<glyph unicode="&#xf0;" glyph-name="eth" horiz-adv-x="616" d="M308 -12Q208 -12 145 54T81 221T144 389T303 456Q381 456 425 398Q408 503 332 566L270 501L217 551L266 603Q217 625 160 628V712Q255 709 330 671L387 732L440 680L393 630Q461 574 498 481T535
269Q535 141 477 65T308 -12ZM308 82Q361 82 397 122T434 220Q434 281 398 321T308 362Q255 362 219 323T183 221Q183 162 219 122T308 82Z" />
<glyph unicode="&#xf1;" glyph-name="ntilde" horiz-adv-x="616" d="M225 641Q181 641 178 597H128Q128 721 232 721Q271 721 323 697T397 672Q417 672 430 683T444 717H494Q494 593 390 593Q352 593 300 617T225 641ZM335 523Q524 523 524 303V0H424V296Q424
429 312 429Q193 429 193 298V0H93V511H186V449Q205 482 245 502T335 523Z" />
<glyph unicode="&#xf2;" glyph-name="ograve" horiz-adv-x="616" d="M302 576L124 732H259L401 576H302ZM419 -12T308 -12T132 59T66 255T131 451T308 523T484 451T550 256Q550 132 485 60ZM241 82T308 82T412 129T449 256T413 382T308 429T204 384T168 255Q168
175 204 129Z" />
<glyph unicode="&#xf3;" glyph-name="oacute" horiz-adv-x="616" d="M230 576L372 732H506L328 576H230ZM419 -12T308 -12T132 59T66 255T131 451T308 523T484 451T550 256Q550 132 485 60ZM241 82T308 82T412 129T449 256T413 382T308 429T204 384T168 255Q168
175 204 129Z" />
<glyph unicode="&#xf4;" glyph-name="ocircumflex" horiz-adv-x="616" d="M408 576L308 661L208 576H116L257 732H360L501 576H408ZM419 -12T308 -12T132 59T66 255T131 451T308 523T484 451T550 256Q550 132 485 60ZM241 82T308 82T412 129T449 256T413 382T308
429T204 384T168 255Q168 175 204 129Z" />
<glyph unicode="&#xf5;" glyph-name="otilde" horiz-adv-x="616" d="M388 593Q350 593 298 617T223 641Q179 641 176 597H126Q126 721 230 721Q269 721 321 697T395 672Q415 672 428 683T442 717H492Q492 593 388 593ZM419 -12T308 -12T132 59T66 255T131 451T308
523T484 451T550 256Q550 132 485 60ZM241 82T308 82T412 129T449 256T413 382T308 429T204 384T168 255Q168 175 204 129Z" />
<glyph unicode="&#xf6;" glyph-name="odieresis" horiz-adv-x="616" d="M244 594T219 594T177 611T159 654T176 697T219 714T261 697T279 654T262 611ZM422 594T397 594T355 611T337 654T354 697T397 714T439 697T457 654T440 611ZM419 -12T308 -12T132 59T66
255T131 451T308 523T484 451T550 256Q550 132 485 60ZM241 82T308 82T412 129T449 256T413 382T308 429T204 384T168 255Q168 175 204 129Z" />
<glyph unicode="&#xf7;" glyph-name="divide" horiz-adv-x="616" d="M334 474T307 474T262 492T244 536Q244 561 262 579T307 598T352 580T371 536Q371 510 353 492ZM73 294V391H543V294H73ZM334 88T307 88T262 105T244 149T262 193T307 212T352 194T371 149T353 106Z" />
<glyph unicode="&#xf8;" glyph-name="oslash" horiz-adv-x="616" d="M486 450Q550 378 550 256Q550 132 485 60T308 -12Q241 -12 190 15L172 -12H81L130 61Q66 133 66 255Q66 379 131 451T308 523Q375 523 425 497L443 523H535L486 450ZM168 255Q168 194 190 150L371
416Q342 429 308 429Q240 429 204 384T168 255ZM308 82Q375 82 412 129T449 256Q449 319 426 362L245 96Q273 82 308 82Z" />
<glyph unicode="&#xf9;" glyph-name="ugrave" horiz-adv-x="616" d="M287 576L109 732H244L386 576H287ZM284 -12Q92 -12 92 212V511H193V219Q193 148 223 116T304 83Q423 83 423 217V511H524V0H423V50Q375 -12 284 -12Z" />
<glyph unicode="&#xfa;" glyph-name="uacute" horiz-adv-x="616" d="M230 576L372 732H506L328 576H230ZM284 -12Q92 -12 92 212V511H193V219Q193 148 223 116T304 83Q423 83 423 217V511H524V0H423V50Q375 -12 284 -12Z" />
<glyph unicode="&#xfb;" glyph-name="ucircumflex" horiz-adv-x="616" d="M406 576L306 661L206 576H114L255 732H358L499 576H406ZM284 -12Q92 -12 92 212V511H193V219Q193 148 223 116T304 83Q423 83 423 217V511H524V0H423V50Q375 -12 284 -12Z" />
<glyph unicode="&#xfc;" glyph-name="udieresis" horiz-adv-x="616" d="M242 594T217 594T175 611T157 654T174 697T217 714T259 697T277 654T260 611ZM420 594T395 594T353 611T335 654T352 697T395 714T437 697T455 654T438 611ZM284 -12Q92 -12 92 212V511H193V219Q193
148 223 116T304 83Q423 83 423 217V511H524V0H423V50Q375 -12 284 -12Z" />
<glyph unicode="&#xfd;" glyph-name="yacute" horiz-adv-x="616" d="M242 576L384 732H518L340 576H242ZM180 -194L257 12L68 511H170L290 182Q297 162 306 133Q311 150 323 182L444 511H548L282 -194H180Z" />
<glyph unicode="&#xfe;" glyph-name="thorn" horiz-adv-x="616" d="M95 -205V664L196 713V477Q251 532 329 532Q430 532 490 460T550 260Q550 134 488 61T328 -12Q247 -12 196 46V-158L95 -205ZM314 83Q378 83 412 129T447 260Q447 341 412 389T314 437Q236 437
196 376V145Q242 83 314 83Z" />
<glyph unicode="&#xff;" glyph-name="ydieresis" horiz-adv-x="616" d="M242 594T217 594T175 611T157 654T174 697T217 714T259 697T277 654T260 611ZM420 594T395 594T353 611T335 654T352 697T395 714T437 697T455 654T438 611ZM180 -194L257 12L68 511H170L290
182Q297 162 306 133Q311 150 323 182L444 511H548L282 -194H180Z" />
<glyph unicode="&#x2013;" glyph-name="endash" horiz-adv-x="616" d="M110 244V331H505V244H110Z" />
<glyph unicode="&#x2014;" glyph-name="emdash" horiz-adv-x="616" d="M5 244V331H611V244H5Z" />
<glyph unicode="&#x2018;" glyph-name="quoteleft" horiz-adv-x="616" d="M307 440Q274 440 252 464T230 533Q230 601 262 661T336 752L383 727Q326 661 319 585Q347 580 364 562T381 515Q381 482 359 461T307 440Z" />
<glyph unicode="&#x2019;" glyph-name="quoteright" horiz-adv-x="616" d="M279 440L232 466Q289 530 296 608Q268 613 251 631T234 678Q234 711 256 731T308 752Q341 752 363 728T385 660Q385 592 353 532T279 440Z" />
<glyph unicode="&#x201a;" glyph-name="quotesinglbase" horiz-adv-x="616" d="M279 -181L232 -156Q256 -130 274 -92T296 -14Q268 -9 252 9T235 57Q235 90 256 110T308 131Q341 131 363 107T386 39Q386 -30 353 -90T279 -181Z" />
<glyph unicode="&#x201c;" glyph-name="quotedblleft" horiz-adv-x="616" d="M199 440Q166 440 144 464T122 533Q122 601 154 661T228 752L275 727Q218 661 211 585Q239 580 256 562T273 515Q273 482 251 461T199 440ZM417 440Q384 440 362 464T339 533Q339 601
372 661T446 752L493 727Q469 701 451 663T429 585Q457 580 473 562T490 515Q490 482 469 461T417 440Z" />
<glyph unicode="&#x201d;" glyph-name="quotedblright" horiz-adv-x="616" d="M171 440L124 466Q181 530 188 608Q160 613 143 631T126 678Q126 711 148 731T200 752Q233 752 255 728T277 660Q277 592 245 532T171 440ZM388 440L341 466Q398 530 405 608Q377 613
360 631T343 678Q343 711 365 731T417 752Q450 752 472 728T494 660Q494 592 462 532T388 440Z" />
<glyph unicode="&#x201e;" glyph-name="quotedblbase" horiz-adv-x="616" d="M171 -181L124 -156Q181 -90 188 -14Q160 -9 143 9T126 57Q126 90 148 110T200 131Q233 131 255 107T277 39Q277 -30 245 -90T171 -181ZM388 -181L341 -156Q398 -90 405 -14Q377 -9
360 9T343 57Q343 90 365 110T417 131Q450 131 472 107T494 39Q494 -30 462 -90T388 -181Z" />
<glyph unicode="&#x2022;" glyph-name="bullet" horiz-adv-x="616" d="M366 209T307 209T208 250T167 350T207 450T307 492T408 451T450 350T408 250Z" />
<glyph unicode="&#x2039;" glyph-name="guilsinglleft" horiz-adv-x="616" d="M330 0L178 256L330 511H439L287 256L439 0H330Z" />
<glyph unicode="&#x203a;" glyph-name="guilsinglright" horiz-adv-x="616" d="M178 0L330 256L178 511H287L439 256L287 0H178Z" />
</font>
</defs>
</svg>
