<?xml version="1.0" standalone="no"?>
<!DOCTYPE svg PUBLIC "-//W3C//DTD SVG 1.1//EN" "http://www.w3.org/Graphics/SVG/1.1/DTD/svg11.dtd">
<svg xmlns="http://www.w3.org/2000/svg">
<defs >
<font id="Chango" horiz-adv-x="684" ><font-face
    font-family="Chango"
    units-per-em="1000"
    panose-1="2 0 0 0 0 0 0 0 0 0"
    ascent="995"
    descent="-216"
    alphabetic="0" />
<glyph unicode=" " glyph-name="space" horiz-adv-x="400" />
<glyph unicode="!" glyph-name="exclam" horiz-adv-x="496" d="M199 723T251 723T340 718T395 705T423 686T434 665T436 642Q436 494 354 285Q344 258 319 251T254 244H243Q157 244 142 285Q60 494 60 642Q60 655 62 664T75 686T105 705T161 717ZM122 136T157
170T253 204T342 171T371 95T336 16T249 -20T159 9T122 87Z" />
<glyph unicode="&quot;" glyph-name="quotedbl" horiz-adv-x="601" d="M87 719T108 728T167 737T226 733T256 720Q269 706 269 687Q269 593 229 468Q221 443 178 443H170Q128 443 121 468Q80 596 80 689Q80 703 83 711ZM339 719T360 728T419 737T478 733T508 720Q521
706 521 687Q521 593 481 468Q473 443 430 443H422Q380 443 373 468Q332 596 332 689Q332 703 335 711Z" />
<glyph unicode="#" glyph-name="numbersign" horiz-adv-x="877" d="M470 72L481 156H343L332 70Q328 35 313 18T256 -1H237Q196 -1 187 14T178 45T180 72L191 156H126Q103 156 92 165T80 206V247Q80 278 92 287T128 297H209L222 402H158Q135 402 124 411T112 452V493Q112
524 124 533T160 543H241L252 629Q256 664 271 681T328 700H348Q389 700 400 681Q406 670 406 656T403 627L392 543H531L542 629Q546 664 561 681T618 700H638Q679 700 690 681Q696 670 696 656T693 627L682 543H751Q774 543 785 534T797 493V452Q797 421 785 412T749
402H664L651 297H719Q742 297 753 288T765 247V206Q765 175 753 166T717 156H633L622 70Q618 35 603 18T546 -1H527Q486 -1 477 14T468 45T470 72ZM374 402L361 297H499L512 402H374Z" />
<glyph unicode="$" glyph-name="dollar" horiz-adv-x="809" d="M314 -50L311 0Q172 11 97 57Q64 76 52 90T39 126T41 161T48 192T64 220T89 231T162 209T256 188Q308 188 308 226Q308 249 283 268T222 306T150 347T89 412T64 508Q64 584 131 633T312 696Q312 720
314 744T328 781T370 794H428Q458 794 470 781Q486 764 486 699Q597 691 661 664T725 597T707 530T669 503Q662 503 623 517T551 531Q489 531 489 485Q489 463 519 444T591 408T676 370T749 310T779 223Q779 129 697 76T486 5Q484 -41 483 -60Q481 -104 428 -104H370Q340
-104 328 -91T314 -50Z" />
<glyph unicode="%" glyph-name="percent" horiz-adv-x="1511" d="M412 595T376 595T340 507T376 419T412 507ZM935 662Q958 688 971 694T1010 700H1161Q1185 700 1192 682Q1194 677 1194 667T1169 631T935 380T609 35Q587 9 574 3T534 -3H383Q359 -3 352 16Q350
20 350 30T364 55Q546 243 935 662ZM120 594T188 654T376 715T564 655T632 509Q632 426 578 366Q550 335 499 317T377 298T255 316T174 366Q120 425 120 509ZM1211 286T1175 286T1139 198T1175 110T1211 198ZM919 285T987 345T1175 406T1363 346T1431 200Q1431
117 1377 57Q1349 26 1298 8T1176 -11T1054 7T974 57Q919 116 919 200Z" />
<glyph unicode="&amp;" glyph-name="ampersand" horiz-adv-x="1022" d="M570 263Q570 280 529 280T467 257T446 205T471 155T537 133Q550 133 561 137T573 160Q570 238 570 263ZM949 104L952 45Q952 -1 914 -13Q884 -23 839 -23Q710 -23 648 31Q521 -23 355 -23Q235
-23 151 22Q108 45 84 86T60 183Q60 304 162 356Q88 405 88 506Q88 562 119 605T205 674Q312 724 450 724T688 691Q738 675 738 616Q738 583 725 564T682 545T614 555T543 566T481 548T450 490T470 450Q472 450 489 453T543 456T666 443T784 430T854 442T906 454Q947
454 947 375Q947 328 910 308Q884 294 844 283V190Q844 157 861 146T909 135Q949 135 949 104Z" />
<glyph unicode="&apos;" glyph-name="quotesingle" horiz-adv-x="349" d="M87 719T108 728T167 737T226 733T256 720Q269 706 269 687Q269 593 229 468Q221 443 178 443H170Q128 443 121 468Q80 596 80 689Q80 703 83 711Z" />
<glyph unicode="(" glyph-name="parenleft" horiz-adv-x="530" d="M391 704T355 589T319 344T355 99T455 -98Q470 -123 470 -142Q470 -175 414 -175H340Q280 -175 215 -104T105 90T60 327T87 538T154 706T245 819T340 863H414Q470 863 470 830Q470 811 455 786Q391
704 355 589Z" />
<glyph unicode=")" glyph-name="parenright" horiz-adv-x="530" d="M139 -16T175 99T211 343T175 588T75 786Q60 811 60 830Q60 863 116 863H190Q235 863 285 820T375 706T443 539T470 327T425 91T315 -103T190 -175H116Q60 -175 60 -142Q60 -123 75 -98Q139 -16 175 99Z" />
<glyph unicode="*" glyph-name="asterisk" horiz-adv-x="626" d="M104 481Q80 489 80 512T89 562T109 604T130 618Q183 613 261 558Q242 626 242 683Q242 694 244 701T263 715T308 723T351 720T374 708Q383 698 383 682Q383 626 364 558Q415 594 476 614Q485 615
494 616T516 604T537 562T546 512T522 481Q471 464 394 461Q453 416 483 372Q490 362 490 352Q490 327 449 297Q417 274 393 274Q382 274 370 289Q335 337 312 396Q290 335 256 289Q244 274 236 274T214 276T176 297T141 332T133 355T143 372H142Q174 416 231 461Q165
463 104 481Z" />
<glyph unicode="+" glyph-name="plus" horiz-adv-x="801" d="M80 349V356Q80 402 98 416T153 431H315V598Q315 633 329 650T389 669H411Q457 669 471 651T486 596V431H650Q685 431 702 417T721 356V350Q721 302 699 288Q682 277 648 277H486V109Q486 74 472 57T411
38H390Q344 38 330 56T315 111V277H151Q97 277 86 309Q81 324 80 349Z" />
<glyph unicode="," glyph-name="comma" horiz-adv-x="369" d="M119 1Q60 24 60 103Q60 153 98 182T188 211T274 183T309 101Q309 12 241 -56T82 -125Q72 -125 61 -109T49 -82T56 -66Q108 -39 119 1Z" />
<glyph unicode="-" glyph-name="hyphen" horiz-adv-x="506" d="M425 279V238Q425 207 413 198T377 188H126Q103 188 92 197T80 238V279Q80 310 92 319T128 329H379Q402 329 413 320T425 279Z" />
<glyph unicode="." glyph-name="period" horiz-adv-x="369" d="M60 144T95 178T191 212T280 179T309 103T274 24T187 -12T97 17T60 95Z" />
<glyph unicode="/" glyph-name="slash" horiz-adv-x="718" d="M117 -178Q75 -178 75 -148Q75 -138 80 -124Q106 -30 166 140Q390 768 405 803T436 851T483 864H601Q643 864 643 834Q643 824 638 810Q605 694 480 343Q352 -26 310 -124Q298 -152 282 -165T235 -178H117Z" />
<glyph unicode="0" glyph-name="zero" horiz-adv-x="880" d="M358 281T379 228T438 175T497 228T519 351T498 471T439 521T380 472T358 352ZM536 -21T440 -21T266 10T140 95T66 213T40 350T65 487T139 606T266 691T440 723T614 691T740 606T814 487T840 350T815
214T741 95T614 11Z" />
<glyph unicode="1" glyph-name="one" horiz-adv-x="604" d="M474 701Q516 701 529 680T546 610Q554 495 554 332T544 61Q541 38 524 20T477 0Q420 -4 345 -4T203 0Q173 2 155 20T136 61Q128 198 128 322T129 488L84 491Q40 494 40 547T49 618T94 643Q293 684 474 701Z" />
<glyph unicode="2" glyph-name="two" horiz-adv-x="852" d="M81 36L72 91Q70 100 70 109Q70 142 96 161Q199 235 279 319T360 459Q360 498 335 522T278 547Q205 547 140 489Q130 479 116 482Q72 491 72 579Q72 609 85 626T131 659Q258 721 421 721T665 665T745
519T699 364T555 220Q534 204 534 190Q534 173 562 173Q564 173 566 173L783 182Q784 182 785 182Q802 182 812 161T822 98T808 29T752 0Q604 -3 461 -3T231 -1T136 1T112 5T91 15T81 36Z" />
<glyph unicode="3" glyph-name="three" horiz-adv-x="800" d="M109 184L235 179Q291 179 322 204Q341 219 341 244Q341 308 264 308Q236 308 200 301T157 294Q114 294 114 367Q114 398 125 407T153 418T198 420T247 422Q306 427 329 445T352 491T332 534T279 549Q216
549 151 493Q141 485 128 485T102 502Q84 525 84 568T97 628T150 664T267 702T414 721T530 713T621 684T693 626T721 537T694 445T617 391Q684 367 718 319T752 212Q752 98 663 39T439 -21Q197 -21 103 10Q58 25 52 61Q50 73 50 98T52 135Q57 184 109 184Z" />
<glyph unicode="4" glyph-name="four" horiz-adv-x="904" d="M810 145L787 144Q786 110 782 62Q779 39 762 21T715 1Q658 -3 583 -3T441 1Q412 3 395 21T374 69T368 144H149Q98 146 75 157T51 202L50 249Q50 289 70 315Q192 478 396 687Q413 700 444 700H712Q754
700 767 679T785 600T789 343V303H810Q831 303 842 289T854 257V199Q854 147 810 145ZM247 321Q247 303 266 303H366V471Q346 449 327 426T287 379T257 343T247 321Z" />
<glyph unicode="5" glyph-name="five" horiz-adv-x="768" d="M657 626Q657 534 611 534L394 537Q369 537 366 522Q360 498 360 486Q360 462 380 462Q393 463 418 463Q558 463 633 397T708 232T625 57T401 -21Q190 -21 108 10Q69 24 63 60Q61 72 61 92T67 149Q71
201 101 201Q115 201 153 193T214 184Q315 184 315 261Q315 289 292 309T227 329Q226 329 154 323Q123 323 110 335T97 390T117 641Q120 672 136 687T187 702L453 704Q544 704 585 703T639 691Q657 677 657 626Z" />
<glyph unicode="6" glyph-name="six" horiz-adv-x="855" d="M805 233Q805 112 704 46T461 -21Q254 -21 144 78Q106 112 83 166T60 284T79 406T139 518T240 613T388 679T582 704Q618 704 666 699Q699 695 718 665T737 598T721 535T671 507Q640 510 611 510Q545
510 507 489T449 414Q503 435 560 435Q665 435 735 382T805 233ZM496 251T483 275T444 300T404 274T390 208T405 147T441 125T479 149T496 212Z" />
<glyph unicode="7" glyph-name="seven" horiz-adv-x="788" d="M312 704L665 702Q702 702 716 693Q738 679 738 608Q738 572 726 547T663 419T592 278Q530 153 460 35Q446 12 434 4T393 -4Q182 -4 109 2Q60 6 60 40Q60 59 76 88Q163 243 227 349T307 482T322 516Q322
537 299 537Q299 537 106 533Q85 533 75 551T65 596T68 651T84 690T155 702T312 704Z" />
<glyph unicode="8" glyph-name="eight" horiz-adv-x="809" d="M40 210Q40 337 165 392Q78 448 78 516T128 632Q221 722 409 722Q587 722 677 644Q723 604 723 550Q723 463 639 412Q769 345 769 216Q769 143 712 88T568 6T387 -21T217 3T91 80T40 210ZM461 205Q461
248 375 291Q343 262 343 226T364 174T409 159T447 173T461 205ZM347 554Q347 514 421 487Q449 512 449 548Q449 569 436 583T400 597T362 584T347 554Z" />
<glyph unicode="9" glyph-name="nine" horiz-adv-x="843" d="M181 148L227 147Q293 147 339 174T411 271Q349 243 275 243Q176 243 113 294T50 437T100 588Q195 702 401 702Q601 702 704 602Q740 567 761 513T783 385T755 242T666 113T500 16T251 -26H237Q211
-26 176 -24T121 11T101 82T122 135T181 148ZM344 434T359 408T399 382T437 407T450 471T435 533T398 557T360 534T344 472Z" />
<glyph unicode=":" glyph-name="colon" horiz-adv-x="369" d="M60 144T95 178T191 212T280 179T309 103T274 24T187 -12T97 17T60 95ZM60 595T95 629T191 663T280 630T309 554T274 475T187 439T97 468T60 546Z" />
<glyph unicode=";" glyph-name="semicolon" horiz-adv-x="369" d="M60 595T95 629T191 663T280 630T309 554T274 475T187 439T97 468T60 546ZM119 1Q60 24 60 103Q60 153 98 182T188 211T274 183T309 101Q309 12 241 -56T82 -125Q72 -125 61 -109T49 -82T56 -66Q108
-39 119 1Z" />
<glyph unicode="&lt;" glyph-name="less" horiz-adv-x="757" d="M80 376Q80 417 105 429L532 633Q542 638 562 638T602 621T622 574V537Q622 495 584 476L325 354Q369 332 391 322L473 283Q491 274 528 256T583 229Q622 209 622 171V134Q622 105 602 88T562 70T532
75L105 280Q80 292 80 332V376Z" />
<glyph unicode="=" glyph-name="equal" horiz-adv-x="751" d="M696 512V491Q696 445 678 431T623 416H126Q91 416 74 430T55 490V512Q55 558 73 572T128 587H625Q660 587 677 573T696 512ZM696 219V198Q696 152 678 138T623 123H126Q91 123 74 137T55 197V219Q55
265 73 279T128 294H625Q660 294 677 280T696 219Z" />
<glyph unicode="&gt;" glyph-name="greater" horiz-adv-x="702" d="M622 376V332Q622 292 597 280L170 75Q160 70 140 70T100 87T80 134V171Q80 209 119 229Q137 238 174 256T229 283L311 322Q333 332 377 354L118 476Q80 495 80 537V574Q80 603 100 620T140 638T170
633L597 429Q622 417 622 376Z" />
<glyph unicode="?" glyph-name="question" horiz-adv-x="679" d="M135 285L129 343Q129 376 154 399T209 432T264 460T289 505T270 547T221 562Q175 562 135 528Q110 508 91 508T46 537T20 588T41 631Q135 725 349 725Q459 725 529 681T599 543Q599 507 576 479T519
434T451 400Q370 364 370 320Q370 317 370 304T371 287T368 273T362 259Q338 238 253 238Q228 238 184 242T135 285ZM128 136T163 170T259 204T348 171T377 95T342 16T255 -20T165 9T128 87Z" />
<glyph unicode="@" glyph-name="at" horiz-adv-x="1524" d="M780 339T769 353T740 367T711 342T700 275T710 207T738 181T767 195T780 240V318Q780 339 769 353ZM911 500L1026 499Q1052 499 1072 486T1092 450V180Q1092 146 1119 146Q1152 146 1175 203T1199 339Q1199
478 1083 557T781 636Q570 636 448 539T326 261Q326 86 445 2Q508 -43 604 -43T768 11Q782 23 800 23T847 -4T875 -54T835 -106T716 -161T546 -185Q307 -185 189 -69T70 255Q70 403 165 516T420 687T780 745Q1076 745 1258 654Q1352 607 1403 526T1454 332Q1454
27 1024 27Q938 27 876 57T797 149Q784 108 746 78Q678 26 599 26T464 83T408 262T473 447T632 511T770 438Q773 495 827 499Q845 500 911 500Z" />
<glyph unicode="A" glyph-name="A" horiz-adv-x="1084" d="M702 653L1029 100Q1049 67 1049 45T1031 11T989 0H667Q618 0 604 18Q600 24 593 39L564 101Q551 130 503 134H314Q293 134 282 130T264 112L225 31Q215 13 203 7T168 0H78Q39 0 36 28Q35 32 35 36Q35
59 50 80L363 632Q408 710 509 710H589Q669 710 702 653ZM378 397L332 306Q328 297 328 290Q328 264 353 264H444Q465 264 473 274T481 293T478 309L440 395Q428 421 409 421T378 397Z" />
<glyph unicode="B" glyph-name="B" horiz-adv-x="974" d="M464 290L463 160Q463 151 469 145T485 138Q546 138 585 162T625 237T584 309Q551 325 512 325Q502 325 492 324Q464 322 464 290ZM463 565L464 483Q464 464 487 464Q588 464 588 521Q588 587 498 587Q492
587 487 587Q463 587 463 565ZM136 699Q260 703 446 703T703 700T830 644T885 524Q885 441 813 402Q806 398 806 393T813 385Q865 371 900 325T936 216Q936 137 875 73T688 4T506 -2T132 1Q103 1 85 19T64 62Q56 150 56 318T63 606Q66 655 80 676T136 699Z" />
<glyph unicode="C" glyph-name="C" horiz-adv-x="822" d="M413 -20Q233 -20 129 71T24 330Q24 432 57 509T152 632Q273 723 471 723Q599 723 727 688Q776 672 776 609Q776 523 722 523Q713 523 663 531T593 539Q522 539 484 490T445 372T481 251T579 197Q621 195
728 195Q780 195 785 146Q788 128 788 110T785 72Q779 36 729 20T585 -8T413 -20Z" />
<glyph unicode="D" glyph-name="D" horiz-adv-x="899" d="M520 2Q453 -4 328 -4T158 -1T89 16T64 57Q58 165 58 303T62 597Q64 693 151 699Q212 703 338 703T535 700T673 667T780 590Q863 493 863 365Q863 230 776 124Q734 73 668 40T520 2ZM475 484V242Q475 234
481 227T497 220Q561 220 595 264T630 368T599 472T514 517Q501 517 494 516Q475 511 475 484Z" />
<glyph unicode="E" glyph-name="E" horiz-adv-x="844" d="M106 0T87 18T62 79T56 334T63 612Q71 696 134 698Q206 700 731 700Q790 700 790 625Q790 566 738 566H518Q497 566 485 552T472 516V444Q472 414 499 414H681Q697 414 705 411T721 394T728 346T717 302T679
291H516Q491 291 482 279T472 240V191Q472 148 513 148H762Q780 148 794 138T808 92T791 28T751 0H134Q106 0 87 18Z" />
<glyph unicode="F" glyph-name="F" horiz-adv-x="813" d="M57 70L56 613Q64 696 127 700Q172 701 726 701Q786 701 786 612Q786 567 733 567H515Q494 567 482 553T469 516V445Q469 414 495 414H661Q685 414 697 403T709 353T698 302T660 291H511Q486 291 477 279T467
241V69Q467 34 452 17T413 0H129Q101 0 81 18T57 70Z" />
<glyph unicode="G" glyph-name="G" horiz-adv-x="881" d="M631 538Q541 538 505 492T468 344Q468 185 561 185Q580 185 586 186Q574 186 567 228T559 316T584 375T653 389T715 389T755 385T790 374Q818 358 818 326V180Q818 102 790 56T685 1Q577 -10 355 -10Q266
-10 203 18T104 96Q40 189 40 332T132 588T377 708Q482 714 529 714Q700 714 772 693Q821 679 821 614Q821 527 770 527Q754 528 706 533T631 538Z" />
<glyph unicode="H" glyph-name="H" horiz-adv-x="1092" d="M1024 63Q1022 40 1005 22T957 2Q875 -3 822 -3T697 2Q642 7 639 50Q638 67 637 94T635 143T624 176T590 188H515Q491 188 482 176T471 143T468 95T466 50Q463 7 408 2Q336 -3 277 -3T135 2Q105 4 88
22T68 63Q60 151 60 346T64 599T82 679T138 701H382Q417 701 441 677T466 615V405Q466 369 497 369H608Q639 369 639 405V615Q639 653 663 677T723 701H954Q996 701 1010 680T1028 600T1032 346T1024 63Z" />
<glyph unicode="I" glyph-name="I" horiz-adv-x="544" d="M138 700H406Q448 700 461 679T479 593T484 339T476 62Q473 39 456 21T409 1Q352 -3 277 -3T135 1Q106 3 89 21T68 62Q60 150 60 338T64 592T82 679T138 700Z" />
<glyph unicode="J" glyph-name="J" horiz-adv-x="659" d="M185 273L182 581Q182 626 183 639Q184 671 198 685T255 700H523Q565 700 579 686T595 639Q597 576 597 488T593 273Q590 78 392 16Q278 -20 100 -20Q60 -20 47 4T34 87T80 152Q136 159 160 199T185 273Z" />
<glyph unicode="K" glyph-name="K" horiz-adv-x="1046" d="M656 17L539 157Q521 179 502 179Q479 179 479 141V46Q479 28 463 17T425 4Q362 0 283 0T132 4Q102 6 84 24T64 66Q56 154 56 339T60 591T78 678T134 700H402Q435 700 457 674T479 610L480 498Q480 477
491 477Q498 477 519 494L715 677Q739 700 772 700T844 701L921 700Q937 700 943 685T937 658Q822 543 707 445Q697 436 697 427T708 406L762 352Q803 311 829 285T892 222Q964 148 1002 102Q1022 78 1022 53Q1022 44 1019 34Q1008 0 971 0H702Q671 0 656 17Z"
/>
<glyph unicode="L" glyph-name="L" horiz-adv-x="858" d="M477 459L476 259Q476 215 489 194T546 172H799Q845 171 845 102Q845 49 832 25T779 0Q638 -4 500 -4T148 -2Q112 -2 90 15T64 64Q56 151 56 338T60 591T79 678T134 700H402Q444 700 457 678T474 607T477 459Z" />
<glyph unicode="M" glyph-name="M" horiz-adv-x="1118" d="M447 602T495 530T562 433T592 409T613 422T679 522T773 654T832 701T889 702T971 700T1033 676T1052 612Q1058 507 1058 334T1049 60Q1047 36 1031 17T987 -2Q926 -3 852 -3T733 0Q717 1 705 12T691
43L685 208Q684 232 675 235T657 222Q604 128 525 12Q506 -17 475 -17T424 12Q389 62 305 224Q300 234 294 236T282 231T277 208L272 43Q271 24 255 13T218 0H119Q92 1 76 19T56 60Q48 149 48 336T53 612Q56 654 72 677T129 700Q339 700 356 697T410 648Z" />
<glyph unicode="N" glyph-name="N" horiz-adv-x="965" d="M738 700H845Q879 700 892 689T907 644Q913 492 913 317T906 61Q904 38 889 19T848 0H681Q646 0 604 25Q372 162 312 192Q300 197 293 189T285 157V46Q285 27 271 16Q250 -1 163 -1Q139 -1 116 0T79 21T63
62Q60 182 60 363T61 600T74 677T120 700H230Q264 700 300 681Q610 520 662 494Q679 486 689 492T699 514V654Q699 674 709 687T738 700Z" />
<glyph unicode="O" glyph-name="O" horiz-adv-x="1043" d="M543 -20Q422 -20 324 11T165 96T72 214T40 351T72 487T165 606T324 691T539 723T746 694T891 615Q1003 513 1003 373Q1003 302 973 234T886 111T740 20T543 -20ZM741 416T707 451T604 487T493 450T452
360T495 275T598 243T700 282T741 368Z" />
<glyph unicode="P" glyph-name="P" horiz-adv-x="894" d="M473 129V45Q473 2 415 -1T288 -4T131 1Q102 3 85 21T64 62Q56 150 56 338T62 613T149 700Q242 702 348 702T577 699T779 606T857 408T788 230T586 160H508Q495 160 484 151T473 129ZM472 491L474 306Q474
287 495 287Q557 287 592 321T628 403T595 484T496 518Q472 518 472 491Z" />
<glyph unicode="Q" glyph-name="Q" horiz-adv-x="1078" d="M756 23Q657 -20 538 -20T320 11T161 96T68 214T36 351T68 487T161 606T320 691T535 723T742 694T887 615Q999 513 999 373Q999 256 923 154L1018 145Q1041 142 1041 115T1030 51T1008 -4T969 -22Q935
-22 756 23ZM737 416T703 451T600 487T489 450T448 360T491 275T594 243T696 282T737 368Z" />
<glyph unicode="R" glyph-name="R" horiz-adv-x="915" d="M472 491L474 306Q474 287 495 287Q557 287 592 321T628 403T595 484T496 518Q472 518 472 491ZM734 192Q753 172 869 41Q876 32 876 25Q876 -1 853 -1Q800 -2 747 -2T640 -1Q611 -1 587 22L501 152Q496
158 489 160Q473 166 473 147V45Q473 2 417 -1T293 -4T131 1Q102 3 85 21T64 62Q56 150 56 338T62 613T149 700Q225 701 356 701T573 699Q697 697 776 607T855 404Q855 338 825 282T734 192Z" />
<glyph unicode="S" glyph-name="S" horiz-adv-x="809" d="M284 -20T210 -1T105 37T64 64Q38 85 38 122Q38 151 45 177Q58 226 92 226Q103 225 162 203T256 181Q307 181 307 221Q307 245 282 265T222 305T150 348T89 416T64 518Q64 614 158 668T401 723T637 693T725
608Q725 569 707 540T669 510Q662 510 623 525T551 541Q488 541 488 492Q488 468 518 448T590 410T676 368T749 305T779 208T743 104T646 31Q527 -20 370 -20Q284 -20 210 -1Z" />
<glyph unicode="T" glyph-name="T" horiz-adv-x="838" d="M629 61Q628 39 610 21T562 0Q505 -4 425 -4T278 0Q248 2 230 20T211 61Q208 213 208 320T209 478Q209 516 175 516H85Q64 516 51 526T37 561T35 613T36 659T52 689T84 700Q214 702 436 702T754 700Q771
699 785 689T801 660T803 614T802 564Q799 519 753 519H663Q629 519 629 484Q632 358 632 256T629 61Z" />
<glyph unicode="U" glyph-name="U" horiz-adv-x="885" d="M448 595L446 504V311Q446 269 472 246T533 223T593 246T619 311V609Q619 656 631 678T686 700H778Q810 700 822 681Q845 647 845 418Q845 343 843 303Q840 222 806 159T717 57Q608 -20 470 -20Q288 -20
169 65Q109 108 75 179T39 346Q38 393 38 484T40 616T56 678T111 700H378Q418 700 431 679Q448 652 448 595Z" />
<glyph unicode="V" glyph-name="V" horiz-adv-x="963" d="M640 52Q622 18 578 -1T481 -20T386 -2T324 50Q174 327 45 594Q30 626 30 643Q30 697 79 697L368 699Q405 699 424 686T459 634L556 386Q562 370 578 370T602 386L733 670Q746 697 761 700Q767 701 782
701L897 699Q916 699 924 681Q927 674 927 664T905 609T788 359T640 52Z" />
<glyph unicode="W" glyph-name="W" horiz-adv-x="1423" d="M783 647L922 645Q953 645 970 633T995 593L1056 391Q1058 383 1063 380T1073 380T1080 390L1164 662Q1170 682 1182 690T1222 698H1335Q1354 698 1362 680Q1366 672 1366 662T1348 606T1265 362T1154
63Q1114 -21 999 -21Q937 -21 882 7T809 78T760 203T717 317Q665 153 624 64Q605 24 555 2T443 -20Q297 -20 249 88Q96 436 41 599Q33 625 33 643Q33 699 86 699L372 702Q409 702 427 689T456 639L526 393Q528 384 533 381Q544 375 550 392L617 596Q632 644 679
645Q741 647 783 647Z" />
<glyph unicode="X" glyph-name="X" horiz-adv-x="1028" d="M55 0Q35 0 35 15Q35 24 46 36L312 317L69 600Q48 626 48 642T53 669Q68 699 106 699L484 700Q513 700 527 691T562 654L615 578Q630 555 639 555T667 574L768 676Q783 692 791 696T814 700H973Q992 700
992 687Q992 677 981 663L746 403Q899 198 969 96Q991 65 991 40Q991 4 950 3Q858 1 773 1T629 1T559 18L444 161Q432 176 424 176T400 161L268 23Q253 7 246 4T223 0H55Z" />
<glyph unicode="Y" glyph-name="Y" horiz-adv-x="955" d="M887 700Q907 700 907 680Q907 667 896 652L672 297Q672 216 667 61Q666 39 648 21T600 0Q543 -4 463 -4T316 0Q286 2 268 20T249 61Q247 162 247 271L45 610Q30 633 30 648Q30 698 79 698L421 700Q450
700 464 691T499 654L560 523Q576 501 586 501T612 519L714 679Q731 700 757 700H887Z" />
<glyph unicode="Z" glyph-name="Z" horiz-adv-x="844" d="M75 577V651Q75 677 87 687T154 699T319 702T562 703Q562 703 742 703Q766 703 786 690T807 657V575Q807 559 802 550Q802 550 796 538Q795 535 789 526L781 514Q688 367 566 197Q554 180 557 169T576
157H767Q788 157 799 143T811 111V53Q811 1 767 -1Q636 -4 443 -4T135 0Q84 2 61 13T37 58V135Q37 168 57 201Q161 366 274 516Q283 529 277 538T254 547H122Q102 547 89 555T75 577Z" />
<glyph unicode="[" glyph-name="bracketleft" horiz-adv-x="523" d="M64 -95L60 343L64 781Q64 818 86 840T137 864H230L244 863L403 862Q463 862 463 773Q463 728 410 728H334Q291 728 289 693Q284 505 284 353T289 -7Q291 -42 334 -42H410Q463 -42 463 -87Q463
-176 403 -176L244 -177L230 -178H137Q108 -176 86 -154T64 -95Z" />
<glyph unicode="\" glyph-name="backslash" horiz-adv-x="718" d="M75 834Q75 864 117 864H235Q265 864 281 851T313 803T409 539T551 140T638 -124Q643 -138 643 -148Q643 -178 601 -178H483Q453 -178 437 -165T408 -124Q366 -26 238 343Q113 694 80 810Q75 824 75 834Z" />
<glyph unicode="]" glyph-name="bracketright" horiz-adv-x="523" d="M459 781L463 343L459 -95Q459 -132 437 -154T386 -178H293L279 -177L120 -176Q60 -176 60 -87Q60 -42 113 -42H189Q232 -42 234 -7Q239 200 239 352T234 693Q232 728 189 728H113Q60 728 60
773Q60 862 120 862L279 863L293 864H386Q415 862 437 840T459 781Z" />
<glyph unicode="^" glyph-name="asciicircum" horiz-adv-x="672" d="M317 625H355Q389 625 400 603L587 212Q591 204 591 198T588 184T569 176H464Q451 176 443 192L336 413L229 192Q221 176 208 176H103Q88 176 85 184T81 198T85 212L272 603Q283 625 317 625Z" />
<glyph unicode="_" glyph-name="underscore" horiz-adv-x="751" d="M641 -121Q597 -127 388 -127T134 -121Q106 -119 93 -107T80 -65V-50Q80 -20 93 -8T134 6Q178 12 387 12T641 6Q657 4 664 -8T671 -51V-66Q671 -95 664 -107T641 -121Z" />
<glyph unicode="`" glyph-name="grave" horiz-adv-x="427" d="M104 704Q104 723 136 723H256Q286 723 303 697L355 599Q361 591 361 585Q361 570 337 570H268Q248 570 232 583T197 611T159 643T126 671Q104 689 104 704Z" />
<glyph unicode="a" glyph-name="a" horiz-adv-x="803" d="M412 525Q738 525 741 313Q743 223 743 148T742 47T729 10T680 -2H468Q436 -2 424 9T411 44Q411 45 411 47T410 52Q344 -16 230 -16Q151 -16 96 23T40 132T79 243T173 300T290 315T413 303V307Q413 357
394 379T331 401T258 394T214 378Q173 354 157 354T129 369T116 415T127 459T164 483Q251 525 412 525ZM365 116Q409 116 410 133Q412 166 412 220Q412 241 380 241T328 226T308 180T324 133T365 116Z" />
<glyph unicode="b" glyph-name="b" horiz-adv-x="812" d="M438 152Q497 152 497 249T438 347Q415 347 397 332T378 288V211Q378 183 396 168T438 152ZM62 47L60 374Q60 524 63 666Q64 699 75 715T120 731H312Q345 731 356 716T371 648T375 464Q375 458 378 455T387
456Q457 522 556 522T718 459T781 253T718 49T553 -13Q403 -13 363 56Q362 30 344 16T304 0T224 -2L118 0Q99 0 81 13T62 47Z" />
<glyph unicode="c" glyph-name="c" horiz-adv-x="676" d="M480 365Q433 365 410 334T387 257T414 178T501 145Q520 145 557 155T609 165Q644 165 646 98Q646 69 643 44T605 8Q505 -23 429 -23T304 -18T206 5T124 50T71 125T50 245T81 375T168 462Q272 518 428
518Q512 518 599 491Q636 479 636 411T601 342Q586 342 547 353T480 365Z" />
<glyph unicode="d" glyph-name="d" horiz-adv-x="826" d="M388 356Q329 356 329 259T388 161Q411 161 429 176T448 220V297Q448 325 430 340T388 356ZM718 2L612 0Q554 0 534 2Q472 6 472 72Q435 30 377 4T269 -22Q169 -22 105 44T40 248Q40 420 157 488Q219 525
302 525T443 488Q462 475 464 496T466 560V643Q466 663 467 683T479 717T524 731H716Q749 731 760 715T773 666Q776 524 776 376Q776 376 774 49Q774 29 756 16T718 2Z" />
<glyph unicode="e" glyph-name="e" horiz-adv-x="742" d="M244 501T292 511T412 521T549 504T646 456Q702 401 702 327Q702 211 506 211Q437 211 363 224Q366 158 387 131T464 104T555 116T613 140T650 153T677 139Q694 121 694 90T682 47T642 24Q547 -16 372
-16Q227 -16 134 53T40 241Q40 298 61 345T117 424T198 478ZM430 407Q369 407 364 308Q412 304 414 304Q480 304 480 348Q480 407 430 407Z" />
<glyph unicode="f" glyph-name="f" horiz-adv-x="606" d="M502 349H409Q391 349 391 328V66Q391 32 379 16T332 0H137Q102 0 91 15T77 66Q73 151 73 316Q73 339 69 344T54 350Q20 350 20 411Q20 447 30 459T61 472Q67 472 72 477T77 488V509Q77 707 317 734Q365
740 437 740T591 713Q626 701 626 633T594 564Q580 564 544 575T483 587Q437 587 414 562T391 499Q391 472 413 472H503Q527 472 539 461T551 411T540 360T502 349Z" />
<glyph unicode="g" glyph-name="g" horiz-adv-x="826" d="M388 356Q329 356 329 270T386 183Q411 183 429 196T448 235V304Q448 328 430 342T388 356ZM764 461L766 154Q766 54 765 2T735 -92T656 -158Q558 -203 395 -203T128 -159Q103 -148 92 -136T80 -92T92
-45T122 -30T164 -42Q241 -80 318 -80Q353 -80 381 -73T430 -42T452 17L451 70Q451 80 445 80Q442 80 439 77Q359 0 263 0T103 61T38 254T114 453T300 521T463 452Q464 478 482 492T522 508T602 510L708 508Q727 508 745 495T764 461Z" />
<glyph unicode="h" glyph-name="h" horiz-adv-x="856" d="M67 47L65 374Q65 524 68 666Q69 699 80 715T125 731H317Q350 731 361 716T375 660T380 443Q458 522 567 522T740 468T804 319T806 149T805 48T792 11T743 -1L551 -3Q519 -3 507 8T494 43L495 287Q495
317 480 332T443 347T402 332T383 288L377 47Q376 28 359 15T318 0T263 -2L123 0Q104 0 86 13T67 47Z" />
<glyph unicode="i" glyph-name="i" horiz-adv-x="443" d="M124 506H319Q353 506 364 491T379 425T383 237T377 44Q374 27 360 14T311 -1T226 -4T137 -2T83 14T67 44Q60 109 60 243T64 427T79 491T124 506ZM232 742Q298 742 331 716T365 643Q365 535 221 535Q163
535 122 560T81 635Q81 742 232 742Z" />
<glyph unicode="j" glyph-name="j" horiz-adv-x="456" d="M396 252L392 59Q392 -79 281 -129Q182 -174 3 -174Q-29 -174 -39 -155T-50 -88T-13 -36Q79 -25 79 62L78 440Q78 474 90 490T137 506H332Q367 506 378 491T392 440Q396 355 396 252ZM245 742Q311 742
344 716T378 643Q378 535 234 535Q176 535 135 560T94 635Q94 742 245 742Z" />
<glyph unicode="k" glyph-name="k" horiz-adv-x="851" d="M646 -1L536 0Q498 0 483 23L390 171Q382 177 381 176T379 142T373 43Q371 27 357 14T310 -1T229 -3T123 0Q99 1 86 13T70 43Q60 165 60 369T68 666Q71 700 81 715T125 731H317Q350 731 361 716T375 666Q381
579 381 374Q381 351 389 351Q394 351 400 357L531 477Q548 492 559 496T590 501H736Q749 501 755 484Q757 480 757 472T747 454L608 332Q600 324 608 315Q703 203 810 53Q821 38 821 26Q821 1 784 1L646 -1Z" />
<glyph unicode="l" glyph-name="l" horiz-adv-x="441" d="M125 731H317Q350 731 361 716T375 666Q381 546 381 335T373 43Q371 27 357 14T308 -1T224 -4T138 -2Q73 3 70 43Q60 130 60 351T68 666Q71 700 81 715T125 731Z" />
<glyph unicode="m" glyph-name="m" horiz-adv-x="1278" d="M916 43L917 287Q917 317 902 332T865 347T824 332T805 288L806 143Q806 74 805 48T792 11T743 -1L551 -3Q519 -3 507 8T494 43L495 287Q495 317 480 332T443 347T402 332T383 288V227Q383 95 377 47Q374
30 360 17T311 2T240 -1T121 3Q97 4 83 17T67 47Q60 112 60 246T64 429T79 494T124 509H319Q353 509 364 494T379 443V442Q456 522 575 522Q648 522 702 494T782 412Q815 466 872 494T997 522Q1099 522 1162 468T1226 319T1228 149T1227 48T1214 11T1165 -1L973
-3Q941 -3 929 8T916 43Z" />
<glyph unicode="n" glyph-name="n" horiz-adv-x="856" d="M494 43L495 287Q495 317 480 332T443 347T402 332T383 288V227Q383 95 377 47Q374 30 360 17T311 2T240 -1T121 3Q97 4 83 17T67 47Q60 112 60 246T64 429T79 494T124 509H319Q353 509 364 494T379 443V442Q456
522 566 522T740 468T804 319T806 149T805 48T792 11T743 -1L551 -3Q519 -3 507 8T494 43Z" />
<glyph unicode="o" glyph-name="o" horiz-adv-x="826" d="M354 138T413 138T472 250Q472 301 460 328T413 356T366 329T354 250Q354 138 413 138ZM786 -22T413 -22T40 250Q40 379 135 450T413 521T691 450T786 250Q786 -22 413 -22Z" />
<glyph unicode="p" glyph-name="p" horiz-adv-x="812" d="M439 152Q498 152 498 249T439 347Q416 347 398 332T379 288V211Q379 183 397 168T439 152ZM119 509L303 508Q327 508 345 494T364 452Q403 487 458 505T568 523Q662 523 722 457T782 255Q782 178 761
124T704 40Q635 -13 540 -13T390 49Q383 56 380 53T376 44Q376 -27 370 -111Q368 -144 357 -158T312 -173H120Q87 -173 76 -157T63 -108Q61 -13 61 135L63 462Q63 482 81 495T119 509Z" />
<glyph unicode="q" glyph-name="q" horiz-adv-x="826" d="M388 356Q329 356 329 259T388 161Q411 161 429 176T448 220V297Q448 325 430 340T388 356ZM764 461L766 134Q766 34 763 -108Q762 -141 751 -157T706 -173H514Q480 -173 469 -160Q451 -137 451 44Q451
50 448 53T439 52Q360 -22 265 -22T105 42T40 244Q40 320 63 376T126 463Q202 521 306 521T463 452Q464 478 482 492T522 508T602 510L708 508Q727 508 745 495T764 461Z" />
<glyph unicode="r" glyph-name="r" horiz-adv-x="657" d="M124 509H319Q353 509 366 495T379 451V415Q435 521 561 521Q603 521 630 494T657 422T633 333T566 288Q546 288 510 308T452 329T407 313T383 260Q383 99 377 47Q374 30 360 17T311 2T240 -1T121 3Q97
4 83 17T67 47Q60 112 60 246T64 429T79 494T124 509Z" />
<glyph unicode="s" glyph-name="s" horiz-adv-x="650" d="M280 131Q280 159 257 175T200 199T132 219T75 259T51 335Q51 521 340 521Q464 521 539 479Q563 466 573 455T583 414T572 371T549 356T499 378T419 402Q386 402 386 369Q386 347 409 334T465 312T531
289T587 244T610 164Q610 -22 321 -22Q180 -22 91 19Q64 30 52 41T40 83T52 127T73 140T131 118T230 96T280 131Z" />
<glyph unicode="t" glyph-name="t" horiz-adv-x="661" d="M102 364Q102 380 80 380Q41 380 34 406Q30 419 30 446T37 484T66 501T105 520T177 580T253 640T307 654H357Q392 654 404 646T416 619V524Q416 503 434 503H541Q567 503 578 492T590 442T578 391T542
380H438Q424 380 420 373T416 353V233Q418 199 441 176T508 153Q529 153 560 164T602 176Q629 176 629 96Q629 38 598 26Q566 15 508 8T392 1T282 10T186 44Q102 93 102 231V364Z" />
<glyph unicode="u" glyph-name="u" horiz-adv-x="856" d="M362 465L361 221Q361 192 374 177T407 162T446 177T473 220V281Q473 413 479 461Q482 478 496 491T545 506T616 509T735 505Q759 504 773 491T789 461Q796 396 796 262T792 78T777 14T732 -1H537Q503
-1 492 14T477 65V66Q374 -13 268 -13T108 39T52 188T50 359T51 460T64 497T113 509L305 511Q337 511 349 500T362 465Z" />
<glyph unicode="v" glyph-name="v" horiz-adv-x="767" d="M20 472Q20 508 61 508L281 509Q314 509 331 500T361 461L454 287Q458 275 470 275T488 287L584 486Q592 504 606 507Q610 508 620 508L725 509Q739 509 744 496Q747 490 747 483T742 466Q606 186 519
32Q502 6 465 -8T384 -22Q286 -22 254 28T185 144T103 297T31 432Q20 455 20 472Z" />
<glyph unicode="w" glyph-name="w" horiz-adv-x="1140" d="M1099 508Q1119 508 1119 483Q1119 475 1111 451T1074 345T1031 224Q992 118 948 32Q934 6 897 -8T811 -22T715 -8T651 37T610 130T580 202Q529 64 514 35T461 -8T375 -22T279 -8T217 34Q132 198 45 432Q36
457 36 474Q36 509 75 509H285Q321 509 340 500T365 461L410 287Q413 275 426 275T444 287L528 464Q546 510 589 510H697Q731 510 748 501T777 462L846 287Q850 275 863 275T880 287L958 485Q964 500 971 504T992 508H1099Z" />
<glyph unicode="x" glyph-name="x" horiz-adv-x="806" d="M343 509L358 508Q361 508 364 507T370 505T375 501T379 498T384 493T389 488Q398 479 400 475Q464 402 467 399Q568 504 570 504Q575 507 576 507L585 508H758Q770 508 774 499T770 481L563 295Q683 165
768 69Q786 48 786 30Q786 2 755 1T663 0L480 1Q446 1 422 25L335 118Q226 4 224 4Q219 1 218 1L209 0H37Q25 0 22 6T19 16T25 27L241 220L40 437Q24 456 24 468T28 487Q39 509 67 509H343Z" />
<glyph unicode="y" glyph-name="y" horiz-adv-x="768" d="M132 -39Q264 -39 264 0Q264 13 248 39Q175 153 32 432Q21 455 21 468Q21 509 62 509H282Q314 509 330 499T362 461L455 287Q461 275 472 275T489 287L585 486Q594 506 606 508Q610 508 621 509H726Q740
509 746 496Q748 490 748 483T741 461T665 301T562 88T512 -5T473 -64T427 -116T372 -152Q314 -183 224 -183T104 -168T75 -100Q75 -75 84 -57T110 -39H132Z" />
<glyph unicode="z" glyph-name="z" horiz-adv-x="679" d="M316 -4L87 -1Q70 -1 55 8T40 32V91Q40 116 55 132T112 192Q202 286 249 344Q258 355 256 364T242 373H94Q79 373 71 383T62 407V470Q62 509 94 509Q463 509 584 508Q601 508 616 499T631 475V416Q631
393 610 368T526 278T422 163Q413 152 415 143T429 134H617Q632 134 640 124T649 100V37Q649 -2 617 -2L316 -4Z" />
<glyph unicode="{" glyph-name="braceleft" horiz-adv-x="539" d="M356 647L357 497Q357 372 281 351Q357 320 357 197L356 47Q356 13 376 -7T445 -34Q471 -38 484 -56T498 -98Q498 -171 383 -171Q233 -171 164 -110T94 48Q94 120 136 194Q151 220 151 241T132
280T87 297T51 313T40 347T50 380T87 397T132 414T151 452T137 499T109 562T94 646Q94 743 163 804T383 865Q498 865 498 792Q498 768 485 750T445 728Q396 721 376 701T356 647Z" />
<glyph unicode="|" glyph-name="bar" horiz-adv-x="352" d="M60 -42T60 343T66 810Q68 838 80 851T122 864H230Q260 864 272 851T286 810Q292 728 292 343T286 -124Q284 -152 272 -165T230 -178H122Q92 -178 80 -165T66 -124Q60 -42 60 343Z" />
<glyph unicode="}" glyph-name="braceright" horiz-adv-x="539" d="M183 47L182 197Q182 320 258 351Q182 372 182 497L183 647Q183 681 163 701T94 728Q68 732 55 750T41 792Q41 865 156 865Q306 865 375 804T445 646Q445 599 431 562T402 499T388 452T407 414T452
397T488 381T499 347T489 314T452 297T407 280T388 242T402 194Q445 116 445 48Q445 -49 376 -110T156 -171Q41 -171 41 -98Q41 -74 54 -56T94 -34Q143 -27 163 -7T183 47Z" />
<glyph unicode="~" glyph-name="asciitilde" horiz-adv-x="852" d="M540 217Q494 217 411 265T279 314Q198 314 173 239Q169 227 161 227L97 230Q80 235 80 257Q80 359 148 419T312 480Q370 480 441 432Q468 413 504 398T573 383Q654 383 679 458Q683 470 691
470L755 467Q772 462 772 440Q772 338 704 278T540 217Z" />
<glyph unicode="&#xa0;" glyph-name="nbspace" horiz-adv-x="400" />
<glyph unicode="&#xa1;" glyph-name="exclamdown" horiz-adv-x="496" d="M303 -20T251 -20T162 -15T105 -2T75 17T62 38T60 61Q60 209 142 418Q157 459 243 459H254Q280 459 295 458T329 447T354 418Q436 209 436 61Q436 47 435 39T423 18T395 -2T340 -14ZM371
565T342 532T253 499T158 533T122 615T159 693T248 723T336 688T371 609Z" />
<glyph unicode="&#xa2;" glyph-name="cent" horiz-adv-x="676" d="M467 457Q420 457 398 428T375 355T402 281T489 250Q508 250 545 259T597 268Q632 268 634 206Q634 178 631 155T593 122Q514 98 430 93Q429 77 428 51T415 12T373 -1H315Q285 -1 273 12T259 53L256
103Q38 140 38 338T257 586V624Q257 672 271 687T315 702H373Q403 702 415 689Q431 672 431 627V602Q509 599 586 576Q623 565 623 507Q623 479 615 457T590 435T534 446T467 457Z" />
<glyph unicode="&#xa3;" glyph-name="sterling" horiz-adv-x="1015" d="M736 371T736 340T724 300T688 290H559Q565 256 565 241Q565 192 536 159Q622 125 712 125T888 199Q898 207 911 207T937 190Q955 167 955 117T910 32Q823 -31 666 -31Q606 -31 516 3T340
38Q287 38 210 8T111 -22T75 1T60 55T76 109T124 134Q202 139 202 220Q202 247 192 290H102Q79 290 68 299T56 340Q56 371 68 380T104 390H164Q141 464 141 494Q141 723 482 723Q653 723 774 666Q806 651 819 635T833 577T819 516T790 495T765 501Q732 529 683
546T597 563T538 541T514 482T530 390H690Q713 390 724 381Z" />
<glyph unicode="&#xa4;" glyph-name="currency" horiz-adv-x="635" d="M215 529Q258 552 315 552T420 529Q460 583 472 595T498 607T534 585Q566 553 566 535Q566 530 554 518T491 467Q528 411 528 344T491 223Q566 167 566 155Q566 137 539 110T498 83T474 92T419
160Q375 138 317 138T215 161Q175 107 163 95T137 83T101 105Q69 137 69 155Q69 160 78 169T143 223Q107 277 107 345T143 467Q87 511 80 519Q69 530 69 535Q69 553 96 580T137 607T158 600Q184 571 215 529ZM397 377T376 399T317 422T257 400T236 346T257 291T316
268T376 291T397 345Z" />
<glyph unicode="&#xa5;" glyph-name="yen" horiz-adv-x="955" d="M887 700Q907 700 907 680Q907 667 896 652L688 323H776Q799 323 810 314T822 273T810 233T774 223H671Q671 195 670 181H776Q799 181 810 172T822 131T810 91T774 81H668L667 61Q666 39 648 21T600
0Q543 -4 463 -4T316 0Q286 2 268 20T249 61L248 81H150Q127 81 116 90T104 131Q104 162 116 171T152 181H247V223H150Q127 223 116 232T104 273Q104 304 116 313T152 323H216L45 610Q30 633 30 648Q30 698 79 698L421 700Q450 700 464 691T499 654L560 523Q576
501 586 501T612 519L714 679Q731 700 757 700H887Z" />
<glyph unicode="&#xa6;" glyph-name="brokenbar" horiz-adv-x="352" d="M60 216Q60 258 104 258H248Q292 258 292 216Q290 -74 287 -113T272 -165T230 -178H122Q92 -178 80 -165T66 -124Q60 -43 60 216ZM60 469Q60 729 66 810Q68 838 80 851T122 864H230Q260 864
272 851T286 810Q292 729 292 469Q292 427 248 427H104Q60 427 60 469Z" />
<glyph unicode="&#xa7;" glyph-name="section" horiz-adv-x="823" d="M345 348Q314 340 314 308Q314 285 329 273T354 254T379 240T404 229T430 220T451 212Q482 220 482 252Q482 275 467 287T442 306T417 320T392 331T366 340T345 348ZM358 28Q358 52 330 74T260
116T178 159T109 221T80 307Q80 388 150 441Q111 482 111 535Q111 723 422 723Q565 723 672 677Q727 653 727 621T707 564T665 539Q658 539 614 552T535 565Q465 565 465 523Q465 499 493 477T563 435T645 392T714 330T743 244Q743 163 673 110Q712 69 712 16Q712
-172 401 -172Q258 -172 152 -126Q96 -102 96 -70T116 -13T158 12Q165 12 209 -1T288 -14Q358 -14 358 28Z" />
<glyph unicode="&#xa8;" glyph-name="dieresis" horiz-adv-x="596" d="M65 678T94 704T170 731T241 706T264 646T236 585T166 557T95 580T65 640ZM331 678T360 704T436 731T507 706T530 646T502 585T432 557T361 580T331 640Z" />
<glyph unicode="&#xa9;" glyph-name="copyright" horiz-adv-x="833" d="M671 50T600 15T437 -20T267 11T140 96T66 214T40 351T66 487T140 606T267 691T453 723T647 672T770 544T809 384T785 233T716 107ZM571 193Q523 177 417 177T258 221T204 357T267 495T428
541T567 529Q592 521 592 494T586 452T561 438Q508 446 501 446Q464 446 445 424T425 369T443 313T488 287T568 286Q593 286 597 260Q598 249 598 239T597 218Q593 199 571 193ZM442 80Q524 80 586 124T679 235T709 373Q709 477 640 550T435 623T220 542T140 351T219
160T442 80Z" />
<glyph unicode="&#xaa;" glyph-name="ordfeminine" horiz-adv-x="579" d="M538 581L539 467Q539 421 538 404T528 379T494 371H343Q322 371 314 378T305 401V407Q258 362 169 362Q114 362 77 386T40 457T70 532Q123 582 232 582Q265 582 307 574V576Q307 601 292
612T234 624T158 609T116 594T98 602Q87 613 87 643T122 693Q189 722 306 722Q535 722 538 581ZM308 515Q308 527 289 527T261 516T252 491T259 466T285 456T307 467Q308 485 308 515Z" />
<glyph unicode="&#xab;" glyph-name="guillemotleft" horiz-adv-x="765" d="M70 201V247Q70 273 91 291L295 466Q309 478 318 478T335 475Q401 439 401 405Q401 393 392 382L263 224L392 66Q401 55 401 39T379 2T341 -24T317 -30T301 -23L91 157Q70 175 70 201ZM374
201V247Q374 273 395 291L599 466Q613 478 622 478T639 475Q705 439 705 405Q705 393 696 382L567 224L696 66Q705 55 705 39T683 2T645 -24T621 -30T605 -23L395 157Q374 175 374 201Z" />
<glyph unicode="&#xac;" glyph-name="logicalnot" horiz-adv-x="732" d="M60 364V381Q60 451 133 451H601Q635 451 653 436T672 381V157Q672 121 658 104T597 86H576Q530 86 516 104T501 159V297H131Q96 297 78 310T60 364Z" />
<glyph unicode="&#xad;" glyph-name="uni00AD" horiz-adv-x="506" d="M425 279V238Q425 207 413 198T377 188H126Q103 188 92 197T80 238V279Q80 310 92 319T128 329H379Q402 329 413 320T425 279Z" />
<glyph unicode="&#xae;" glyph-name="registered" horiz-adv-x="833" d="M671 50T600 15T437 -20T267 11T140 96T66 214T40 351T66 487T140 606T267 691T453 723T647 672T770 544T809 384T785 233T716 107ZM442 80Q524 80 586 124T679 235T709 373Q709 477 640
550T435 623T220 542T140 351T219 160T442 80ZM403 195L346 193Q290 193 268 194Q230 197 228 226Q224 264 224 364T227 497Q230 542 270 543H368Q448 543 491 542Q553 541 592 497T631 396Q631 324 571 290Q599 262 629 226Q633 222 633 214Q633 196 614 195Q601
194 564 194T512 194T488 206L445 270Q441 275 436 275T431 268V217Q431 195 403 195ZM426 429L427 357Q427 347 437 347Q468 347 485 360T502 395Q502 442 438 442Q426 442 426 429Z" />
<glyph unicode="&#xaf;" glyph-name="overscore" horiz-adv-x="581" d="M472 587L109 588Q83 588 72 599T60 649T71 699T108 710H473Q497 710 509 699T521 649T510 598T472 587Z" />
<glyph unicode="&#xb0;" glyph-name="degree" horiz-adv-x="424" d="M238 614T213 614T175 600T162 564T175 528T212 513T250 529T264 565T251 600ZM374 515T331 464T210 413T92 463T50 571T93 676T210 723T329 679T373 575Z" />
<glyph unicode="&#xb1;" glyph-name="plusminus" horiz-adv-x="833" d="M55 449V459Q55 505 73 519T128 534H290V659Q290 694 304 711T364 730H386Q432 730 446 712T461 657V534H625Q660 534 677 520T696 459V450Q696 402 674 388Q657 377 623 377H461V242Q461
207 447 190T386 171H365Q319 171 305 189T290 244V377H126Q72 377 61 409Q56 424 55 449ZM696 70V49Q696 3 678 -11T623 -26H126Q91 -26 74 -12T55 48V70Q55 116 73 130T128 145H625Q660 145 677 131T696 70Z" />
<glyph unicode="&#xb2;" glyph-name="twosuperior" horiz-adv-x="568" d="M73 683Q156 723 265 723T423 690T472 603Q472 506 352 451Q340 445 340 442T351 438T480 443Q491 443 497 427T503 380T495 327T463 304Q339 302 276 302T142 303T64 305T49 311T39 328L34
364Q33 370 33 376Q33 400 48 411Q55 416 79 430T120 457T158 486Q200 521 200 558Q200 577 189 590T156 603Q112 603 78 570Q72 564 62 566Q35 572 35 632Q35 665 73 683Z" />
<glyph unicode="&#xb3;" glyph-name="threesuperior" horiz-adv-x="543" d="M90 572Q60 572 60 640Q60 658 68 668T95 687Q165 723 267 723Q486 723 486 609Q486 554 417 527Q460 513 481 484T503 421Q503 354 440 321T253 287T73 305Q45 315 43 336Q41 343 41
355T43 375Q45 417 75 417Q77 417 110 411T165 404Q212 404 212 446Q212 468 174 468L120 460Q100 460 94 473T88 510T95 539T121 546Q218 553 218 587Q218 610 180 610T101 577Q94 572 90 572Z" />
<glyph unicode="&#xb4;" glyph-name="acute" horiz-adv-x="427" d="M109 570Q85 570 85 585Q85 591 91 599L143 697Q160 723 190 723H310Q342 723 342 704Q342 689 320 671L212 581Q198 570 178 570H109Z" />
<glyph unicode="&#xb5;" glyph-name="mu" horiz-adv-x="866" d="M372 465L371 221Q371 192 384 177T417 162T456 177T483 220V281Q483 413 489 461Q492 478 506 491T555 506T626 509T745 505Q769 504 783 491T799 461Q806 396 806 262T802 78T787 14T742 -1H569Q537
-1 526 20T512 90Q503 49 469 20T392 -9T330 6Q328 8 326 7T325 -4T332 -38Q342 -92 342 -107Q342 -143 312 -160T201 -178Q78 -178 68 -132Q67 -125 64 33T60 312T61 460T74 497T123 509L315 511Q347 511 359 500T372 465Z" />
<glyph unicode="&#xb6;" glyph-name="paragraph" horiz-adv-x="1032" d="M829 267L827 60Q827 -77 711 -128Q608 -173 428 -173Q396 -173 386 -154T375 -87T412 -35Q503 -25 503 63V137Q503 147 495 153T477 160H399Q266 160 197 230T128 408T206 605T412 699Q508
702 593 702T754 700H899Q913 700 923 689Q942 668 942 633T934 588T909 577H846Q828 577 828 556Q829 457 829 320V267Z" />
<glyph unicode="&#xb7;" glyph-name="middot" horiz-adv-x="369" d="M60 303T95 337T191 371T280 338T309 262T274 183T187 147T97 176T60 254Z" />
<glyph unicode="&#xb8;" glyph-name="cedilla" horiz-adv-x="833" d="M296 -105L310 -106Q347 -106 347 -88Q347 -74 323 -65T298 -40T309 -17L412 -23Q480 -35 480 -98Q480 -126 452 -149T372 -174H360Q281 -174 281 -154Q281 -106 296 -105Z" />
<glyph unicode="&#xb9;" glyph-name="onesuperior" horiz-adv-x="469" d="M345 716Q373 716 382 703T394 660Q399 588 399 503T392 351Q390 337 378 326T342 313T255 311T167 312T130 325T119 350Q114 425 114 487T115 573L87 575Q60 576 60 614T65 663T93 680Q233
706 345 716Z" />
<glyph unicode="&#xba;" glyph-name="ordmasculine" horiz-adv-x="636" d="M280 472T318 472T357 543T319 614T280 543ZM596 543Q596 369 318 369T40 539Q40 626 111 673T318 721T525 675T596 543Z" />
<glyph unicode="&#xbb;" glyph-name="guillemotright" horiz-adv-x="765" d="M705 247V201Q705 175 684 157L474 -23Q467 -30 458 -30T434 -25T397 2T374 39T383 66L512 224L383 382Q374 393 374 405Q374 439 440 475Q447 478 456 478T480 466L684 291Q705 273
705 247ZM401 247V201Q401 175 380 157L170 -23Q163 -30 154 -30T130 -25T93 2T70 39T79 66L208 224L79 382Q70 393 70 405Q70 439 136 475Q143 478 152 478T176 466L380 291Q401 273 401 247Z" />
<glyph unicode="&#xbc;" glyph-name="onequarter" horiz-adv-x="1266" d="M786 662Q809 688 822 694T861 700H992Q1016 700 1023 682Q1025 677 1025 667T1000 631T766 380T440 35Q418 9 405 3T365 -3H234Q210 -3 203 16Q201 20 201 30T215 55Q397 243 786 662ZM1181
85L1168 84Q1168 59 1166 42Q1160 6 1121 4T1034 1T938 4Q921 5 912 15T900 38Q897 80 897 84H774Q710 86 710 117L709 143Q709 166 720 180Q808 297 898 390Q907 397 925 397H1120Q1147 397 1155 386T1167 341T1170 196V174H1181Q1193 174 1199 166T1206 148V115Q1206
85 1181 85ZM345 716Q373 716 382 703T394 660Q399 588 399 503T392 351Q390 337 378 326T342 313T255 311T167 312T130 325T119 350Q114 425 114 487T115 573L87 575Q60 576 60 614T65 663T93 680Q233 706 345 716ZM898 248Q883 232 865 209T846 184T850 182H898V248Z"
/>
<glyph unicode="&#xbd;" glyph-name="onehalf" horiz-adv-x="1337" d="M847 375Q930 415 1039 415T1197 382T1246 295Q1246 198 1126 143Q1114 137 1114 134T1125 130T1254 135Q1265 135 1271 119T1277 72T1269 19T1237 -4Q1113 -6 1050 -6T916 -5T838 -3T823
3T813 20L808 56Q807 62 807 68Q807 92 822 103Q829 108 853 122T894 149T932 178Q974 213 974 250Q974 269 963 282T930 295Q886 295 852 262Q846 256 836 258Q809 264 809 324Q809 357 847 375ZM786 662Q809 688 822 694T861 700H992Q1016 700 1023 682Q1025
677 1025 667T1000 631T766 380T440 35Q418 9 405 3T365 -3H234Q210 -3 203 16Q201 20 201 30T215 55Q397 243 786 662ZM345 716Q373 716 382 703T394 660Q399 588 399 503T392 351Q390 337 378 326T342 313T255 311T167 312T130 325T119 350Q114 425 114 487T115
573L87 575Q60 576 60 614T65 663T93 680Q233 706 345 716Z" />
<glyph unicode="&#xbe;" glyph-name="threequarters" horiz-adv-x="1385" d="M905 662Q928 688 941 694T980 700H1111Q1135 700 1142 682Q1144 677 1144 667T1119 631T885 380T559 35Q537 9 524 3T484 -3H353Q329 -3 322 16Q320 20 320 30T334 55Q516 243 905
662ZM1300 85Q1290 84 1287 84Q1287 59 1284 42Q1279 6 1240 4T1153 1T1057 4Q1040 5 1031 15T1019 38Q1016 80 1016 84H893Q829 86 829 117L828 143Q828 166 839 180Q927 297 1017 390Q1026 397 1044 397H1239Q1266 397 1274 386T1286 341T1289 196V174H1300Q1312
174 1318 166T1325 148V115Q1325 85 1300 85ZM969 191Q962 182 969 182H1017V248Q1002 232 969 191ZM111 572Q81 572 81 640Q81 658 89 668T116 687Q186 723 288 723Q507 723 507 609Q507 554 438 527Q481 513 502 484T524 421Q524 354 461 321T274 287T94 305Q66
315 64 336Q62 343 62 355T64 375Q66 417 96 417Q98 417 132 411T186 404Q233 404 233 446Q233 468 195 468L141 460Q121 460 115 473T109 510T116 539T142 546Q239 553 239 587Q239 610 201 610T122 577Q115 572 111 572Z" />
<glyph unicode="&#xbf;" glyph-name="questiondown" horiz-adv-x="679" d="M544 266L550 208Q550 175 525 152T470 119T415 91T390 46T409 4T458 -11Q504 -11 544 23Q569 43 588 43T633 14T659 -37T638 -80Q544 -174 330 -174Q220 -174 150 -130T80 8Q80 44 103
72T161 117T228 150Q309 188 309 231Q309 234 309 247T308 264T311 278T318 292Q341 313 426 313Q451 313 495 309T544 266ZM551 415T516 381T420 347T331 380T302 456T337 535T424 571T514 542T551 464Z" />
<glyph unicode="&#xc0;" glyph-name="Agrave" horiz-adv-x="1084" d="M702 653L1029 100Q1049 67 1049 45T1031 11T989 0H667Q618 0 604 18Q600 24 593 39L564 101Q551 130 503 134H314Q293 134 282 130T264 112L225 31Q215 13 203 7T168 0H78Q39 0 36 28Q35 32
35 36Q35 59 50 80L363 632Q408 710 509 710H589Q669 710 702 653ZM378 397L332 306Q328 297 328 290Q328 264 353 264H444Q465 264 473 274T481 293T478 309L440 395Q428 421 409 421T378 397ZM689 758H418Q371 758 371 787Q371 802 411 883Q423 905 444 905Q468
905 535 880T643 839T699 818T714 785T689 758Z" />
<glyph unicode="&#xc1;" glyph-name="Aacute" horiz-adv-x="1084" d="M702 653L1029 100Q1049 67 1049 45T1031 11T989 0H667Q618 0 604 18Q600 24 593 39L564 101Q551 130 503 134H314Q293 134 282 130T264 112L225 31Q215 13 203 7T168 0H78Q39 0 36 28Q35 32
35 36Q35 59 50 80L363 632Q408 710 509 710H589Q669 710 702 653ZM378 397L332 306Q328 297 328 290Q328 264 353 264H444Q465 264 473 274T481 293T478 309L440 395Q428 421 409 421T378 397ZM705 758H434Q409 758 409 785T423 817T479 839T548 865Q655 905 677
905T712 883Q752 802 752 787Q752 758 705 758Z" />
<glyph unicode="&#xc2;" glyph-name="Acircumflex" horiz-adv-x="1084" d="M702 653L1029 100Q1049 67 1049 45T1031 11T989 0H667Q618 0 604 18Q600 24 593 39L564 101Q551 130 503 134H314Q293 134 282 130T264 112L225 31Q215 13 203 7T168 0H78Q39 0 36 28Q35
32 35 36Q35 59 50 80L363 632Q408 710 509 710H589Q669 710 702 653ZM378 397L332 306Q328 297 328 290Q328 264 353 264H444Q465 264 473 274T481 293T478 309L440 395Q428 421 409 421T378 397ZM509 942H575Q595 942 630 912L747 810Q752 802 752 794Q752 764
741 751T721 737T706 740L542 814L378 740Q372 737 364 737T344 750T333 774T332 793T337 810L454 912Q489 942 509 942Z" />
<glyph unicode="&#xc3;" glyph-name="Atilde" horiz-adv-x="1084" d="M702 653L1029 100Q1049 67 1049 45T1031 11T989 0H667Q618 0 604 18Q600 24 593 39L564 101Q551 130 503 134H314Q293 134 282 130T264 112L225 31Q215 13 203 7T168 0H78Q39 0 36 28Q35 32
35 36Q35 59 50 80L363 632Q408 710 509 710H589Q669 710 702 653ZM378 397L332 306Q325 290 331 277T353 264H444Q465 264 473 274T481 293T478 309L440 395Q428 421 409 421T378 397ZM620 745Q575 745 516 780T432 816T391 804T363 760Q358 749 347 749L294 752Q284
755 282 760T279 778Q279 877 327 932T456 988Q501 988 560 953T644 917T685 929T713 973Q718 984 729 984L782 981Q792 978 794 973T797 955Q797 856 749 801T620 745Z" />
<glyph unicode="&#xc4;" glyph-name="Adieresis" horiz-adv-x="1084" d="M702 653L1029 100Q1049 67 1049 45T1031 11T989 0H667Q618 0 604 18Q600 24 593 39L564 101Q551 130 503 134H314Q293 134 282 130T264 112L225 31Q215 13 203 7T168 0H78Q39 0 36 28Q35
32 35 36Q35 59 50 80L363 632Q408 710 509 710H589Q669 710 702 653ZM378 397L332 306Q325 290 331 277T353 264H444Q465 264 473 274T481 293T478 309L440 395Q428 421 409 421T378 397ZM310 864T339 890T415 917T486 892T509 832T481 771T411 743T340 766T310
826ZM576 864T605 890T681 917T752 892T775 832T747 771T677 743T606 766T576 826Z" />
<glyph unicode="&#xc5;" glyph-name="Aring" horiz-adv-x="1084" d="M702 653L1029 100Q1049 67 1049 45T1031 11T989 0H667Q618 0 604 18Q600 24 593 39L564 101Q551 130 503 134H314Q293 134 282 130T264 112L225 31Q215 13 203 7T168 0H78Q39 0 36 28Q35 32
35 36Q35 59 50 80L363 632Q408 710 509 710H589Q669 710 702 653ZM378 397L332 306Q328 297 328 290Q328 264 353 264H444Q465 264 473 274T481 293T478 309L440 395Q428 421 409 421T378 397ZM558 893T540 893T513 882T503 856T512 830T539 819T567 831T578 858T568
883ZM678 815T641 772T538 728T437 770T401 862T438 952T538 992T640 954T677 866Z" />
<glyph unicode="&#xc6;" glyph-name="AE" horiz-adv-x="1234" d="M828 701L1121 700Q1180 700 1180 625Q1180 566 1128 566H908Q887 566 875 552T862 516V444Q862 414 889 414H1071Q1087 414 1095 411T1111 394T1118 346T1107 302T1069 291H906Q881 291 872 279T862
240V191Q862 148 903 148H1152Q1170 148 1184 138T1198 92T1181 28T1141 0H553Q525 0 506 18T483 68T479 105T477 116T467 128T445 134H326Q292 134 278 112L229 31Q218 13 208 7T176 0H86Q47 0 38 29Q35 39 35 52T47 80L407 619Q460 697 542 697L828 701ZM345
285Q345 264 372 264H441Q475 264 475 302L474 393Q474 408 467 416T446 424T418 404L353 306Q345 296 345 285Z" />
<glyph unicode="&#xc7;" glyph-name="Ccedilla" horiz-adv-x="822" d="M326 -105L340 -106Q377 -106 377 -88Q377 -74 353 -65T328 -39Q328 -33 332 -25Q335 -17 324 -13Q183 8 104 96T24 330Q24 432 57 509T152 632Q273 723 471 723Q599 723 727 688Q776 672
776 609Q776 523 722 523Q713 523 663 531T593 539Q522 539 484 490T445 372T481 251T579 197Q621 195 728 195Q780 195 785 146Q788 128 788 110T785 72Q779 36 734 21Q633 -12 460 -19Q456 -19 458 -23L462 -25Q510 -42 510 -98Q510 -126 482 -149T402 -174H390Q311
-174 311 -154Q311 -106 326 -105Z" />
<glyph unicode="&#xc8;" glyph-name="Egrave" horiz-adv-x="844" d="M106 0T87 18T62 79T56 334T63 612Q71 696 134 698Q206 700 731 700Q790 700 790 625Q790 566 738 566H518Q497 566 485 552T472 516V444Q472 414 499 414H681Q697 414 705 411T721 394T728
346T717 302T679 291H516Q491 291 482 279T472 240V191Q472 148 513 148H762Q780 148 794 138T808 92T791 28T751 0H134Q106 0 87 18ZM569 758H298Q251 758 251 787Q251 802 291 883Q303 905 324 905Q348 905 415 880T523 839T579 818T594 785T569 758Z" />
<glyph unicode="&#xc9;" glyph-name="Eacute" horiz-adv-x="844" d="M106 0T87 18T62 79T56 334T63 612Q71 696 134 698Q206 700 731 700Q790 700 790 625Q790 566 738 566H518Q497 566 485 552T472 516V444Q472 414 499 414H681Q697 414 705 411T721 394T728
346T717 302T679 291H516Q491 291 482 279T472 240V191Q472 148 513 148H762Q780 148 794 138T808 92T791 28T751 0H134Q106 0 87 18ZM596 758H325Q300 758 300 785T314 817T370 839T439 865Q546 905 568 905T603 883Q643 802 643 787Q643 758 596 758Z" />
<glyph unicode="&#xca;" glyph-name="Ecircumflex" horiz-adv-x="844" d="M106 0T87 18T62 79T56 334T63 612Q71 696 134 698Q206 700 731 700Q790 700 790 625Q790 566 738 566H518Q497 566 485 552T472 516V444Q472 414 499 414H681Q697 414 705 411T721 394T728
346T717 302T679 291H516Q491 291 482 279T472 240V191Q472 148 513 148H762Q780 148 794 138T808 92T791 28T751 0H134Q106 0 87 18ZM389 942H455Q475 942 510 912L627 810Q632 802 632 794Q632 764 621 751T601 737T586 740L422 814L258 740Q252 737 244 737T224
750T213 774T212 793T217 810L334 912Q369 942 389 942Z" />
<glyph unicode="&#xcb;" glyph-name="Edieresis" horiz-adv-x="844" d="M106 0T87 18T62 79T56 334T63 612Q71 696 134 698Q206 700 731 700Q790 700 790 625Q790 566 738 566H518Q497 566 485 552T472 516V444Q472 414 499 414H681Q697 414 705 411T721 394T728
346T717 302T679 291H516Q491 291 482 279T472 240V191Q472 148 513 148H762Q780 148 794 138T808 92T791 28T751 0H134Q106 0 87 18ZM189 864T218 890T294 917T365 892T388 832T360 771T290 743T219 766T189 826ZM455 864T484 890T560 917T631 892T654 832T626
771T556 743T485 766T455 826Z" />
<glyph unicode="&#xcc;" glyph-name="Igrave" horiz-adv-x="544" d="M138 700H406Q448 700 461 679T479 593T484 339T476 62Q473 39 456 21T409 1Q352 -3 277 -3T135 1Q106 3 89 21T68 62Q60 150 60 338T64 592T82 679T138 700ZM419 758H148Q101 758 101 787Q101
802 141 883Q153 905 174 905Q198 905 265 880T373 839T429 818T444 785T419 758Z" />
<glyph unicode="&#xcd;" glyph-name="Iacute" horiz-adv-x="544" d="M138 700H406Q448 700 461 679T479 593T484 339T476 62Q473 39 456 21T409 1Q352 -3 277 -3T135 1Q106 3 89 21T68 62Q60 150 60 338T64 592T82 679T138 700ZM404 758H133Q108 758 108 785T122
817T178 839T247 865Q354 905 376 905T411 883Q451 802 451 787Q451 758 404 758Z" />
<glyph unicode="&#xce;" glyph-name="Icircumflex" horiz-adv-x="544" d="M138 700H406Q448 700 461 679T479 593T484 339T476 62Q473 39 456 21T409 1Q352 -3 277 -3T135 1Q106 3 89 21T68 62Q60 150 60 338T64 592T82 679T138 700ZM239 942H305Q325 942 360
912L477 810Q482 802 482 794Q482 764 471 751T451 737T436 740L272 814L108 740Q102 737 94 737T74 750T63 774T62 793T67 810L184 912Q219 942 239 942Z" />
<glyph unicode="&#xcf;" glyph-name="Idieresis" horiz-adv-x="544" d="M138 700H406Q448 700 461 679T479 593T484 339T476 62Q473 39 456 21T409 1Q352 -3 277 -3T135 1Q106 3 89 21T68 62Q60 150 60 338T64 592T82 679T138 700ZM40 864T69 890T145 917T216
892T239 832T211 771T141 743T70 766T40 826ZM306 864T335 890T411 917T482 892T505 832T477 771T407 743T336 766T306 826Z" />
<glyph unicode="&#xd0;" glyph-name="Eth" horiz-adv-x="909" d="M530 2Q463 -4 338 -4T168 -1T99 16T74 57Q67 179 67 306H38Q22 306 14 309T-2 326T-9 374T2 418T40 429H68Q70 541 72 597Q74 693 161 699Q222 703 348 703T545 700T683 667T790 590Q873 493 873
365Q873 230 786 124Q744 73 678 40T530 2ZM485 484V429H544Q560 429 568 426T584 409T591 361T580 317T542 306H485V242Q485 234 491 227T507 220Q571 220 605 264T640 368T609 472T524 517Q511 517 504 516Q485 511 485 484Z" />
<glyph unicode="&#xd1;" glyph-name="Ntilde" horiz-adv-x="965" d="M738 700H845Q879 700 892 689T907 644Q913 492 913 317T906 61Q904 38 889 19T848 0H681Q646 0 604 25Q372 162 312 192Q300 197 293 189T285 157V46Q285 27 271 16Q250 -1 163 -1Q139 -1 117
0T80 20T63 62Q56 152 56 337T60 590T75 678T120 700H230Q264 700 300 681Q610 520 662 494Q679 486 689 492T699 514V654Q699 674 709 687T738 700ZM573 740Q528 740 469 775T385 811T344 799T316 755Q310 744 300 744L247 747Q237 750 235 755T232 773Q232 872
280 927T409 983Q454 983 513 948T597 912T638 924T666 968Q672 979 682 979L735 976Q745 973 747 968T750 950Q750 851 702 796T573 740Z" />
<glyph unicode="&#xd2;" glyph-name="Ograve" horiz-adv-x="1043" d="M543 -20Q422 -20 324 11T165 96T72 214T40 351T72 487T165 606T324 691T539 723T746 694T891 615Q1003 513 1003 373Q1003 302 973 234T886 111T740 20T543 -20ZM741 416T707 451T604 487T493
450T452 360T495 275T598 243T700 282T741 368ZM669 758H398Q351 758 351 787Q351 802 391 883Q403 905 424 905Q448 905 515 880T623 839T679 818T694 785T669 758Z" />
<glyph unicode="&#xd3;" glyph-name="Oacute" horiz-adv-x="1043" d="M543 -20Q422 -20 324 11T165 96T72 214T40 351T72 487T165 606T324 691T539 723T746 694T891 615Q1003 513 1003 373Q1003 302 973 234T886 111T740 20T543 -20ZM741 416T707 451T604 487T493
450T452 360T495 275T598 243T700 282T741 368ZM703 758H432Q407 758 407 785T421 817T477 839T546 865Q653 905 675 905T710 883Q750 802 750 787Q750 758 703 758Z" />
<glyph unicode="&#xd4;" glyph-name="Ocircumflex" horiz-adv-x="1043" d="M543 -20Q422 -20 324 11T165 96T72 214T40 351T72 487T165 606T324 691T539 723T746 694T891 615Q1003 513 1003 373Q1003 302 973 234T886 111T740 20T543 -20ZM741 416T707 451T604
487T493 450T452 360T495 275T598 243T700 282T741 368ZM501 942H567Q587 942 622 912L739 810Q744 802 744 794Q744 764 733 751T713 737T698 740L534 814L370 740Q364 737 356 737T336 750T325 774T324 793T329 810L446 912Q481 942 501 942Z" />
<glyph unicode="&#xd5;" glyph-name="Otilde" horiz-adv-x="1043" d="M543 -20Q422 -20 324 11T165 96T72 214T40 351T72 487T165 606T324 691T539 723T746 694T891 615Q1003 513 1003 373Q1003 302 973 234T886 111T740 20T543 -20ZM741 416T707 451T604 487T493
450T452 360T495 275T598 243T700 282T741 368ZM635 752Q590 752 531 787T447 823T406 811T378 767Q372 756 362 756L309 759Q299 762 297 767T294 785Q294 884 342 939T471 995Q516 995 575 960T659 924T700 936T728 980Q734 991 744 991L797 988Q807 985 809
980T812 962Q812 863 764 808T635 752Z" />
<glyph unicode="&#xd6;" glyph-name="Odieresis" horiz-adv-x="1043" d="M543 -20Q422 -20 324 11T165 96T72 214T40 351T72 487T165 606T324 691T539 723T746 694T891 615Q1003 513 1003 373Q1003 302 973 234T886 111T740 20T543 -20ZM741 416T707 451T604 487T493
450T452 360T495 275T598 243T700 282T741 368ZM302 864T331 890T407 917T478 892T501 832T473 771T403 743T332 766T302 826ZM568 864T597 890T673 917T744 892T767 832T739 771T669 743T598 766T568 826Z" />
<glyph unicode="&#xd7;" glyph-name="multiply" horiz-adv-x="751" d="M141 572L156 588Q183 615 209 615T261 589L375 475L491 591Q515 615 539 615T594 588L610 573Q637 546 637 520T611 468L497 353L613 238Q637 214 637 189T610 134L595 119Q568 92 542 92T490
118L375 232L260 116Q236 92 211 92T156 119L141 134Q114 161 114 187T140 239L254 353L138 469Q114 493 114 517T141 572Z" />
<glyph unicode="&#xd8;" glyph-name="Oslash" horiz-adv-x="1043" d="M543 -20Q375 -20 254 39L226 14Q201 -23 166 -23H102Q86 -23 79 -12T71 7T78 26L161 99Q40 202 40 351Q40 422 72 487T165 606T324 691T559 723T808 668L831 689Q857 726 892 726H956Q971
726 978 715T985 696T980 678L899 607Q1003 512 1003 373Q1003 302 973 234T886 111T740 20T543 -20ZM741 416T707 451T604 487T493 450T452 360T495 275T598 243T700 282T741 368Z" />
<glyph unicode="&#xd9;" glyph-name="Ugrave" horiz-adv-x="885" d="M448 595L446 504V311Q446 269 472 246T533 223T593 246T619 311V609Q619 656 631 678T686 700H778Q810 700 822 681Q845 647 845 418Q845 343 843 303Q840 222 806 159T717 57Q608 -20 470
-20Q288 -20 169 65Q109 108 75 179T39 346Q38 393 38 484T40 616T56 678T111 700H378Q418 700 431 679Q448 652 448 595ZM609 758H338Q291 758 291 787Q291 802 331 883Q343 905 364 905Q388 905 455 880T563 839T619 818T634 785T609 758Z" />
<glyph unicode="&#xda;" glyph-name="Uacute" horiz-adv-x="885" d="M448 595L446 504V311Q446 269 472 246T533 223T593 246T619 311V609Q619 656 631 678T686 700H778Q810 700 822 681Q845 647 845 418Q845 343 843 303Q840 222 806 159T717 57Q608 -20 470
-20Q288 -20 169 65Q109 108 75 179T39 346Q38 393 38 484T40 616T56 678T111 700H378Q418 700 431 679Q448 652 448 595ZM679 758H408Q383 758 383 785T397 817T453 839T522 865Q629 905 651 905T686 883Q726 802 726 787Q726 758 679 758Z" />
<glyph unicode="&#xdb;" glyph-name="Ucircumflex" horiz-adv-x="885" d="M448 595L446 504V311Q446 269 472 246T533 223T593 246T619 311V609Q619 656 631 678T686 700H778Q810 700 822 681Q845 647 845 418Q845 343 843 303Q840 222 806 159T717 57Q608 -20
470 -20Q288 -20 169 65Q109 108 75 179T39 346Q38 393 38 484T40 616T56 678T111 700H378Q418 700 431 679Q448 652 448 595ZM499 942H565Q585 942 620 912L737 810Q742 802 742 794Q742 764 731 751T711 737T696 740L532 814L368 740Q362 737 354 737T334 750T323
774T322 793T327 810L444 912Q479 942 499 942Z" />
<glyph unicode="&#xdc;" glyph-name="Udieresis" horiz-adv-x="885" d="M448 595L446 504V311Q446 269 472 246T533 223T593 246T619 311V609Q619 656 631 678T686 700H778Q810 700 822 681Q845 647 845 418Q845 343 843 303Q840 222 806 159T717 57Q608 -20 470
-20Q288 -20 169 65Q109 108 75 179T39 346Q38 393 38 484T40 616T56 678T111 700H378Q418 700 431 679Q448 652 448 595ZM297 864T326 890T402 917T473 892T496 832T468 771T398 743T327 766T297 826ZM563 864T592 890T668 917T739 892T762 832T734 771T664 743T593
766T563 826Z" />
<glyph unicode="&#xdd;" glyph-name="Yacute" horiz-adv-x="955" d="M887 700Q907 700 907 680Q907 667 896 652L672 297Q672 216 667 61Q666 39 648 21T600 0Q543 -4 463 -4T316 0Q286 2 268 20T249 61Q247 162 247 271L45 610Q30 633 30 648Q30 698 79 698L421
700Q450 700 464 691T499 654L560 523Q576 501 586 501T612 519L714 679Q731 700 757 700H887ZM711 757H440Q415 757 415 784T429 816T485 838T554 864Q661 904 683 904T718 882Q758 801 758 786Q758 757 711 757Z" />
<glyph unicode="&#xde;" glyph-name="Thorn" horiz-adv-x="927" d="M138 700H406Q448 700 461 679T478 609Q478 604 479 600Q508 600 588 598Q715 596 792 522T869 347T800 176T598 106H479L476 62Q474 40 457 22T409 1Q352 -3 277 -3T135 1Q106 3 89 21T68 62Q60
150 60 338T64 592T82 679T138 700ZM484 452L486 252Q486 231 507 231Q570 231 605 268T641 357T608 444T509 481Q484 481 484 452Z" />
<glyph unicode="&#xdf;" glyph-name="germandbls" horiz-adv-x="992" d="M805 510Q805 475 788 449T753 402T736 356T770 310T844 276T919 232T953 159T931 77T874 15Q811 -22 689 -22T487 19Q460 30 448 41T436 83T448 127T470 140T492 128Q533 94 578 94Q595
94 608 105T622 139T604 178T560 204T509 224T465 263T447 332T470 404T517 461T541 509T519 551T468 570Q419 570 397 542T374 472V66Q374 32 362 16T315 0H120Q85 0 73 16T60 66Q61 202 61 458Q61 527 93 579T179 663Q287 725 436 725Q642 725 748 632Q805 581
805 510Z" />
<glyph unicode="&#xe0;" glyph-name="agrave" horiz-adv-x="813" d="M500 697L552 599Q561 586 556 578T534 570H465Q445 570 429 583T394 611T356 643T323 671T305 693T304 714T333 723H453Q483 723 500 697ZM422 525Q748 525 751 313Q753 223 753 148T752 47T739
10T690 -2H478Q446 -2 434 9T421 44Q421 45 421 47T420 52Q354 -16 240 -16Q161 -16 106 23T50 132T89 243T183 300T300 315T423 303V307Q423 357 404 379T341 401T268 394T224 378Q183 354 167 354T139 369T126 415T137 459T174 483Q261 525 422 525ZM375 116Q419
116 420 133Q422 166 422 220Q422 241 390 241T338 226T318 180T334 133T375 116Z" />
<glyph unicode="&#xe1;" glyph-name="aacute" horiz-adv-x="813" d="M382 599L434 697Q451 723 481 723H601Q623 723 630 714Q642 697 611 671L503 581Q489 570 469 570H400Q384 570 379 578T382 599ZM422 525Q748 525 751 313Q753 223 753 148T752 47T739 10T690
-2H478Q446 -2 434 9T421 44Q421 45 421 47T420 52Q354 -16 240 -16Q161 -16 106 23T50 132T89 243T183 300T300 315T423 303V307Q423 357 404 379T341 401T268 394T224 378Q183 354 167 354T139 369T126 415T137 459T174 483Q261 525 422 525ZM375 116Q419 116
420 133Q422 166 422 220Q422 241 390 241T338 226T318 180T334 133T375 116Z" />
<glyph unicode="&#xe2;" glyph-name="acircumflex" horiz-adv-x="813" d="M422 525Q748 525 751 313Q753 223 753 148T752 47T739 10T690 -2H478Q446 -2 434 9T421 44Q421 45 421 47T420 52Q354 -16 240 -16Q161 -16 106 23T50 132T89 243T183 300T300 315T423
303V307Q423 357 404 379T341 401T268 394T224 378Q183 354 167 354T139 369T126 415T137 459T174 483Q261 525 422 525ZM375 116Q419 116 420 133Q422 166 422 220Q422 241 390 241T338 226T318 180T334 133T375 116ZM414 745H480Q500 745 535 715L652 613Q657
605 657 596Q657 567 646 554T626 540T611 543L447 617L283 543Q277 540 269 540T249 553T238 577T237 596T242 613L359 715Q394 745 414 745Z" />
<glyph unicode="&#xe3;" glyph-name="atilde" horiz-adv-x="813" d="M516 554Q482 554 439 583T376 613T345 604T323 571Q314 562 304 562H240Q227 562 227 585Q227 658 270 699T386 740Q420 740 463 711T526 681T557 690T579 723Q588 732 598 732H662Q675 732
675 709Q675 636 632 595T516 554ZM422 525Q748 525 751 313Q753 223 753 148T752 47T739 10T690 -2H478Q446 -2 434 9T421 44Q421 45 421 47T420 52Q354 -16 240 -16Q161 -16 106 23T50 132T89 243T183 300T300 315T423 303V307Q423 357 404 379T341 401T268 394T224
378Q183 354 167 354T139 369T126 415T137 459T174 483Q261 525 422 525ZM375 116Q419 116 420 133Q422 166 422 220Q422 241 390 241T338 226T318 180T334 133T375 116Z" />
<glyph unicode="&#xe4;" glyph-name="adieresis" horiz-adv-x="813" d="M422 525Q748 525 751 313Q753 223 753 148T752 47T739 10T690 -2H478Q446 -2 434 9T421 44Q421 45 421 47T420 52Q354 -16 240 -16Q161 -16 106 23T50 132T89 243T183 300T300 315T423 303V307Q423
357 404 379T341 401T268 394T224 378Q183 354 167 354T139 369T126 415T137 459T174 483Q261 525 422 525ZM375 116Q419 116 420 133Q422 166 422 220Q422 241 390 241T338 226T318 180T334 133T375 116ZM191 678T220 704T296 731T367 706T390 646T362 585T292
557T221 580T191 640ZM457 678T486 704T562 731T633 706T656 646T628 585T558 557T487 580T457 640Z" />
<glyph unicode="&#xe5;" glyph-name="aring" horiz-adv-x="803" d="M412 525Q738 525 741 313Q743 223 743 148T742 47T729 10T680 -2H468Q436 -2 424 9T411 44Q411 45 411 47T410 52Q344 -16 230 -16Q151 -16 96 23T40 132T79 243T173 300T290 315T413 303V307Q413
357 394 379T331 401T258 394T214 378Q173 354 157 354T129 369T116 415T127 459T164 483Q251 525 412 525ZM365 116Q409 116 410 133Q412 166 412 220Q412 241 380 241T328 226T308 180T324 133T365 116ZM458 743T440 743T413 732T403 706T412 680T439 669T467
681T478 708T468 733ZM578 665T541 622T438 578T337 620T301 712T338 802T438 842T540 804T577 716Z" />
<glyph unicode="&#xe6;" glyph-name="ae" horiz-adv-x="1114" d="M429 147Q412 186 412 220Q412 241 380 241T328 226T308 181T324 134T367 116Q414 116 429 147ZM458 97Q363 -16 230 -16Q151 -16 96 23T40 132T79 243T173 300T290 315T413 303V307Q413 357 394
379T331 401T258 394T214 378Q173 354 157 354T129 369T116 415T127 459T164 483Q251 525 392 525T610 495Q685 521 770 521T921 504T1018 456Q1074 401 1074 327Q1074 211 878 211Q809 211 735 224Q738 158 759 131T836 104T927 116T985 140T1022 153T1049 139Q1066
121 1066 90T1054 47T1014 24Q919 -16 738 -16Q648 -16 574 14T458 97ZM802 407Q741 407 736 308Q784 304 786 304Q852 304 852 348Q852 407 802 407Z" />
<glyph unicode="&#xe7;" glyph-name="ccedilla" horiz-adv-x="676" d="M296 -105L310 -106Q347 -106 347 -88Q347 -74 323 -65T298 -39Q298 -28 304 -21V-17Q119 6 70 126Q50 173 50 245T81 375T168 462Q272 518 428 518Q512 518 599 491Q636 479 636 411T601
342Q586 342 547 353T480 365Q433 365 410 334T387 257T414 178T501 145Q520 145 557 155T609 165Q644 165 646 98Q646 69 643 44T605 8Q516 -20 425 -23Q425 -25 427 -26Q480 -41 480 -98Q480 -126 452 -149T372 -174H360Q281 -174 281 -154Q281 -106 296 -105Z"
/>
<glyph unicode="&#xe8;" glyph-name="egrave" horiz-adv-x="742" d="M424 695L476 597Q485 584 480 576T458 568H389Q369 568 353 581T318 609T280 641T247 669T229 691T228 712T257 721H377Q407 721 424 695ZM244 501T292 511T412 521T549 504T646 456Q702 401
702 327Q702 211 506 211Q437 211 363 224Q366 158 387 131T464 104T555 116T613 140T650 153T677 139Q694 121 694 90T682 47T642 24Q547 -16 372 -16Q227 -16 134 53T40 241Q40 298 61 345T117 424T198 478ZM430 407Q369 407 364 308Q412 304 414 304Q480 304
480 348Q480 407 430 407Z" />
<glyph unicode="&#xe9;" glyph-name="eacute" horiz-adv-x="742" d="M344 597L396 695Q413 721 443 721H563Q585 721 591 712T592 691T573 669T540 642Q495 603 465 579Q451 568 431 568H362Q346 568 341 576T344 597ZM244 501T292 511T412 521T549 504T646 456Q702
401 702 327Q702 211 506 211Q437 211 363 224Q366 158 387 131T464 104T555 116T613 140T650 153T677 139Q694 121 694 90T682 47T642 24Q547 -16 372 -16Q227 -16 134 53T40 241Q40 298 61 345T117 424T198 478ZM430 407Q369 407 364 308Q412 304 414 304Q480
304 480 348Q480 407 430 407Z" />
<glyph unicode="&#xea;" glyph-name="ecircumflex" horiz-adv-x="742" d="M244 501T292 511T412 521T549 504T646 456Q702 401 702 327Q702 211 506 211Q437 211 363 224Q366 158 387 131T464 104T555 116T613 140T650 153T677 139Q694 121 694 90T682 47T642
24Q547 -16 372 -16Q227 -16 134 53T40 241Q40 298 61 345T117 424T198 478ZM430 407Q369 407 364 308Q412 304 414 304Q480 304 480 348Q480 407 430 407ZM384 747H450Q470 747 505 717L622 615Q627 607 627 598Q627 569 616 556T596 542T581 545L417 619L253
545Q247 542 239 542T219 555T208 579T207 598T212 615L329 717Q364 747 384 747Z" />
<glyph unicode="&#xeb;" glyph-name="edieresis" horiz-adv-x="742" d="M244 501T292 511T412 521T549 504T646 456Q702 401 702 327Q702 211 506 211Q437 211 363 224Q366 158 387 131T464 104T555 116T613 140T650 153T677 139Q694 121 694 90T682 47T642 24Q547
-16 372 -16Q227 -16 134 53T40 241Q40 298 61 345T117 424T198 478ZM430 407Q369 407 364 308Q412 304 414 304Q480 304 480 348Q480 407 430 407ZM180 679T209 705T285 732T356 707T379 647T351 586T281 558T210 581T180 641ZM446 679T475 705T551 732T622 707T645
647T617 586T547 558T476 581T446 641Z" />
<glyph unicode="&#xec;" glyph-name="igrave" horiz-adv-x="443" d="M266 697L318 599Q327 586 322 578T300 570H231Q211 570 195 583T160 611T122 643T89 671T71 693T70 714T99 723H219Q249 723 266 697ZM124 506H319Q353 506 364 491T379 425T383 237T377 44Q374
27 360 14T311 -1T226 -4T137 -2T83 14T67 44Q60 109 60 243T64 427T79 491T124 506Z" />
<glyph unicode="&#xed;" glyph-name="iacute" horiz-adv-x="443" d="M372 723Q404 723 404 704Q404 689 387 675T350 644Q304 605 274 581Q260 570 240 570H171Q155 570 150 578T153 599L205 697Q222 723 252 723H372ZM124 506H319Q353 506 364 491T379 425T383
237T377 44Q374 27 360 14T311 -1T226 -4T137 -2T83 14T67 44Q60 109 60 243T64 427T79 491T124 506Z" />
<glyph unicode="&#xee;" glyph-name="icircumflex" horiz-adv-x="443" d="M124 506H319Q353 506 364 491T379 425T383 237T377 44Q374 27 360 14T311 -1T226 -4T137 -2T83 14T67 44Q60 109 60 243T64 427T79 491T124 506ZM189 746H255Q275 746 310 716L427 614Q432
606 432 598Q432 568 421 555T401 541T386 544L222 618L58 544Q52 541 44 541T24 554T13 578T12 597T17 614L134 716Q169 746 189 746Z" />
<glyph unicode="&#xef;" glyph-name="idieresis" horiz-adv-x="443" d="M124 506H319Q353 506 364 491T379 425T383 237T377 44Q374 27 360 14T311 -1T226 -4T137 -2T83 14T67 44Q60 109 60 243T64 427T79 491T124 506ZM-11 678T18 704T94 731T165 706T188 646T160
585T90 557T19 580T-11 640ZM255 678T284 704T360 731T431 706T454 646T426 585T356 557T285 580T255 640Z" />
<glyph unicode="&#xf0;" glyph-name="eth" horiz-adv-x="826" d="M228 732L265 731L278 763Q286 782 292 786T307 790T332 786L351 779Q380 768 380 744Q380 732 373 718Q566 680 667 564T769 292Q769 127 676 48Q594 -22 413 -22Q40 -22 40 237Q40 359 131 429T397
503Q364 544 316 570L308 549Q300 530 294 527T279 523T253 527L236 533Q206 546 206 568Q206 578 211 588L217 605L180 611Q148 614 148 634T167 686T198 725T228 732ZM413 138Q464 138 464 246Q464 338 412 338Q377 338 365 313T353 241T365 166T413 138Z" />
<glyph unicode="&#xf1;" glyph-name="ntilde" horiz-adv-x="866" d="M529 554Q495 554 452 583T389 613T358 604T336 571Q327 562 317 562H253Q240 562 240 585Q240 658 283 699T399 740Q433 740 476 711T539 681T570 690T592 723Q601 732 611 732H675Q688 732
688 709Q688 636 645 595T529 554ZM494 43L495 287Q495 317 480 332T443 347T402 332T383 288V227Q383 95 377 47Q374 30 360 17T311 2T240 -1T121 3Q97 4 83 17T67 47Q60 112 60 246T64 429T79 494T124 509H319Q353 509 364 494T379 443V442Q456 522 566 522T740
468T804 319T806 149T805 48T792 11T743 -1L551 -3Q519 -3 507 8T494 43Z" />
<glyph unicode="&#xf2;" glyph-name="ograve" horiz-adv-x="826" d="M410 697L462 599Q471 586 466 578T444 570H375Q355 570 341 581L233 671Q202 697 214 714Q221 723 243 723H363Q393 723 410 697ZM354 138T413 138T472 250Q472 301 460 328T413 356T366 329T354
250Q354 138 413 138ZM786 -22T413 -22T40 250Q40 379 135 450T413 521T691 450T786 250Q786 -22 413 -22Z" />
<glyph unicode="&#xf3;" glyph-name="oacute" horiz-adv-x="826" d="M365 599L417 697Q434 723 464 723H584Q606 723 612 714T613 693T594 671T562 644Q516 605 486 581Q472 570 452 570H383Q367 570 362 578T365 599ZM354 138T413 138T472 250Q472 301 460 328T413
356T366 329T354 250Q354 138 413 138ZM786 -22T413 -22T40 250Q40 379 135 450T413 521T691 450T786 250Q786 -22 413 -22Z" />
<glyph unicode="&#xf4;" glyph-name="ocircumflex" horiz-adv-x="826" d="M354 138T413 138T472 250Q472 301 460 328T413 356T366 329T354 250Q354 138 413 138ZM786 -22T413 -22T40 250Q40 379 135 450T413 521T691 450T786 250Q786 -22 413 -22ZM380 745H446Q466
745 501 715L618 613Q623 605 623 596Q623 567 612 554T592 540T577 543L413 617L249 543Q243 540 235 540T215 553T204 577T203 596T208 613L325 715Q360 745 380 745Z" />
<glyph unicode="&#xf5;" glyph-name="otilde" horiz-adv-x="826" d="M484 554Q450 554 407 583T344 613T313 604T291 571Q282 562 272 562H208Q195 562 195 585Q195 658 238 699T354 740Q388 740 431 711T494 681T525 690T547 723Q556 732 566 732H630Q643 732
643 709Q643 636 600 595T484 554ZM354 138T413 138T472 250Q472 301 460 328T413 356T366 329T354 250Q354 138 413 138ZM786 -22T413 -22T40 250Q40 379 135 450T413 521T691 450T786 250Q786 -22 413 -22Z" />
<glyph unicode="&#xf6;" glyph-name="odieresis" horiz-adv-x="826" d="M354 138T413 138T472 250Q472 301 460 328T413 356T366 329T354 250Q354 138 413 138ZM786 -22T413 -22T40 250Q40 379 135 450T413 521T691 450T786 250Q786 -22 413 -22ZM180 679T209
705T285 732T356 707T379 647T351 586T281 558T210 581T180 641ZM446 679T475 705T551 732T622 707T645 647T617 586T547 558T476 581T446 641Z" />
<glyph unicode="&#xf7;" glyph-name="divide" horiz-adv-x="801" d="M311 613T340 639T416 666T487 641T510 581T482 520T412 492T341 515T311 575ZM311 162T340 188T416 215T487 190T510 130T482 69T412 41T341 64T311 124ZM721 363V342Q721 296 703 282T648
267H151Q116 267 99 281T80 341V363Q80 409 98 423T153 438H650Q685 438 702 424T721 363Z" />
<glyph unicode="&#xf8;" glyph-name="oslash" horiz-adv-x="826" d="M635 598Q650 598 657 587T664 565T625 486Q786 420 786 250Q786 -22 413 -22Q382 -22 328 -18L292 -78Q267 -115 232 -115H183Q168 -115 161 -104T154 -82T199 10Q40 70 40 250Q40 379 135
450T413 521Q461 521 497 517L525 561Q551 598 586 598H635ZM354 138T413 138T472 250Q472 301 460 328T413 356T366 329T354 250Q354 138 413 138Z" />
<glyph unicode="&#xf9;" glyph-name="ugrave" horiz-adv-x="866" d="M438 697L490 599Q499 586 494 578T472 570H403Q383 570 367 583T332 611T294 643T261 671T243 693T242 714T271 723H391Q421 723 438 697ZM372 465L371 221Q371 192 384 177T417 162T456 177T483
220V281Q483 413 489 461Q492 478 506 491T555 506T626 509T745 505Q769 504 783 491T799 461Q806 396 806 262T802 78T787 14T742 -1H547Q513 -1 502 14T487 65V66Q384 -13 278 -13T118 39T62 188T60 359T61 460T74 497T123 509L315 511Q347 511 359 500T372 465Z"
/>
<glyph unicode="&#xfa;" glyph-name="uacute" horiz-adv-x="866" d="M386 599L438 697Q455 723 485 723H605Q627 723 633 714T634 693T615 671T582 644Q537 605 507 581Q493 570 473 570H404Q388 570 383 578T386 599ZM372 465L371 221Q371 192 384 177T417 162T456
177T483 220V281Q483 413 489 461Q492 478 506 491T555 506T626 509T745 505Q769 504 783 491T799 461Q806 396 806 262T802 78T787 14T742 -1H547Q513 -1 502 14T487 65V66Q384 -13 278 -13T118 39T62 188T60 359T61 460T74 497T123 509L315 511Q347 511 359 500T372
465Z" />
<glyph unicode="&#xfb;" glyph-name="ucircumflex" horiz-adv-x="866" d="M372 465L371 221Q371 192 384 177T417 162T456 177T483 220V281Q483 413 489 461Q492 478 506 491T555 506T626 509T745 505Q769 504 783 491T799 461Q806 396 806 262T802 78T787 14T742
-1H547Q513 -1 502 14T487 65V66Q384 -13 278 -13T118 39T62 188T60 359T61 460T74 497T123 509L315 511Q347 511 359 500T372 465ZM409 746H475Q495 746 530 716L647 614Q652 606 652 598Q652 568 641 555T621 541T606 544L442 618L278 544Q272 541 264 541T244
554T233 578T232 597T237 614L354 716Q389 746 409 746Z" />
<glyph unicode="&#xfc;" glyph-name="udieresis" horiz-adv-x="866" d="M372 465L371 221Q371 192 384 177T417 162T456 177T483 220V281Q483 413 489 461Q492 478 506 491T555 506T626 509T745 505Q769 504 783 491T799 461Q806 396 806 262T802 78T787 14T742
-1H547Q513 -1 502 14T487 65V66Q384 -13 278 -13T118 39T62 188T60 359T61 460T74 497T123 509L315 511Q347 511 359 500T372 465ZM206 678T235 704T311 731T382 706T405 646T377 585T307 557T236 580T206 640ZM472 678T501 704T577 731T648 706T671 646T643 585T573
557T502 580T472 640Z" />
<glyph unicode="&#xfd;" glyph-name="yacute" horiz-adv-x="768" d="M398 597L450 695Q467 721 497 721H617Q639 721 645 712T646 691T627 669T594 642Q549 603 519 579Q505 568 485 568H416Q400 568 395 576T398 597ZM132 -39Q264 -39 264 0Q264 13 248 39Q175
153 32 432Q21 455 21 468Q21 509 62 509H282Q314 509 330 499T362 461L455 287Q461 275 472 275T489 287L585 486Q594 506 606 508Q610 508 621 509H726Q740 509 746 496Q748 490 748 483T741 461T665 301T562 88T512 -5T473 -64T427 -116T372 -152Q314 -183 224
-183T104 -168T75 -100Q75 -75 84 -57T110 -39H132Z" />
<glyph unicode="&#xfe;" glyph-name="thorn" horiz-adv-x="813" d="M65 -109Q60 129 60 320T64 666Q65 699 76 715T121 731H313Q346 731 357 716T372 648T376 464Q376 458 379 455T388 456Q458 522 558 522T720 459T782 258Q782 181 762 126T704 41Q635 -14 541
-14T392 48Q385 55 382 52T378 43Q378 -28 372 -112Q370 -145 359 -159T314 -174H122Q89 -174 78 -158T65 -109ZM439 152Q498 152 498 249T439 347Q416 347 398 332T379 288V211Q379 183 397 168T439 152Z" />
<glyph unicode="&#xff;" glyph-name="ydieresis" horiz-adv-x="768" d="M132 -39Q264 -39 264 0Q264 13 248 39Q175 153 32 432Q21 455 21 468Q21 509 62 509H282Q314 509 330 499T362 461L455 287Q461 275 472 275T489 287L585 486Q594 506 606 508Q610 508 621
509H726Q740 509 746 496Q748 490 748 483T741 461T665 301T562 88T512 -5T473 -64T427 -116T372 -152Q314 -183 224 -183T104 -168T75 -100Q75 -75 84 -57T110 -39H132ZM232 677T261 703T337 730T408 705T431 645T403 584T333 556T262 579T232 639ZM498 677T527
703T603 730T674 705T697 645T669 584T599 556T528 579T498 639Z" />
<glyph unicode="&#x2013;" glyph-name="endash" horiz-adv-x="751" d="M641 194Q597 188 388 188T134 194Q106 196 93 208T80 250V265Q80 295 93 307T134 321Q178 327 387 327T641 321Q657 319 664 307T671 264V249Q671 220 664 208T641 194Z" />
<glyph unicode="&#x2014;" glyph-name="emdash" horiz-adv-x="1202" d="M986 187T601 187T134 193Q106 195 93 207T80 249V264Q80 294 93 306T134 320Q216 326 601 326T1068 320Q1096 318 1109 306T1122 264V249Q1122 219 1109 207T1068 193Q986 187 601 187Z" />
<glyph unicode="&#x2018;" glyph-name="quoteleft" horiz-adv-x="400" d="M333 664Q271 632 281 604Q286 590 296 576Q329 535 329 490T291 416T201 387T115 415T80 497Q80 586 148 654T307 723Q317 723 328 707T340 680T333 664Z" />
<glyph unicode="&#x2019;" glyph-name="quoteright" horiz-adv-x="400" d="M67 446Q129 478 119 506Q114 520 104 534Q71 575 71 620T109 694T199 723T285 695T320 613Q320 524 252 456T93 387Q83 387 72 403T60 430T67 446Z" />
<glyph unicode="&#x201a;" glyph-name="quotesinglbase" horiz-adv-x="400" d="M67 -66Q129 -34 119 -6Q114 8 104 22Q71 63 71 108T109 182T199 211T285 183T320 101Q320 12 252 -56T93 -125Q83 -125 72 -109T60 -82T67 -66Z" />
<glyph unicode="&#x201c;" glyph-name="quotedblleft" horiz-adv-x="721" d="M654 664Q592 632 602 604Q607 590 618 576Q650 535 650 490T612 416T522 387T436 415T401 497Q401 586 469 654T628 723Q638 723 649 707T661 680T654 664ZM333 664Q271 632 281 604Q286
590 296 576Q329 535 329 490T291 416T201 387T115 415T80 497Q80 586 148 654T307 723Q317 723 328 707T340 680T333 664Z" />
<glyph unicode="&#x201d;" glyph-name="quotedblright" horiz-adv-x="721" d="M67 446Q129 478 119 506Q114 520 104 534Q71 575 71 620T109 694T199 723T285 695T320 613Q320 524 252 456T93 387Q83 387 72 403T60 430T67 446ZM388 446Q450 478 440 506Q435 520
424 534Q392 575 392 620T430 694T520 723T606 695T641 613Q641 524 573 456T414 387Q404 387 393 403T381 430T388 446Z" />
<glyph unicode="&#x201e;" glyph-name="quotedblbase" horiz-adv-x="721" d="M67 -66Q129 -34 119 -6Q114 8 104 22Q71 63 71 108T109 182T199 211T285 183T320 101Q320 12 252 -56T93 -125Q83 -125 72 -109T60 -82T67 -66ZM388 -66Q450 -34 440 -6Q435 8 424
22Q392 63 392 108T430 182T520 211T606 183T641 101Q641 12 573 -56T414 -125Q404 -125 393 -109T381 -82T388 -66Z" />
<glyph unicode="&#x2022;" glyph-name="bullet" horiz-adv-x="717" d="M376 86Q236 86 158 164T80 350T158 537T369 617T569 546T637 373Q637 302 608 238T517 130T376 86Z" />
<glyph unicode="&#x2039;" glyph-name="guilsinglleft" horiz-adv-x="451" d="M60 201V247Q60 273 81 291L285 466Q299 478 308 478T325 475Q391 439 391 405Q391 393 382 382L253 224L382 66Q391 55 391 39T369 2T331 -24T307 -30T291 -23L81 157Q60 175 60 201Z" />
<glyph unicode="&#x203a;" glyph-name="guilsinglright" horiz-adv-x="451" d="M391 247V201Q391 175 370 157L160 -23Q153 -30 144 -30T120 -25T83 2T60 39T69 66L198 224L69 382Q60 393 60 405Q60 439 126 475Q133 478 142 478T166 466L370 291Q391 273 391 247Z" />
</font>
</defs>
</svg>
