<?xml version="1.0" standalone="no"?>
<!DOCTYPE svg PUBLIC "-//W3C//DTD SVG 1.1//EN" "http://www.w3.org/Graphics/SVG/1.1/DTD/svg11.dtd">
<svg xmlns="http://www.w3.org/2000/svg">
<defs >
<font id="AmaticaSC" horiz-adv-x="774" ><font-face
    font-family="Amatica SC"
    units-per-em="2048"
    panose-1="0 0 5 0 0 0 0 0 0 0"
    ascent="2448"
    descent="-543"
    alphabetic="0" />
<glyph unicode=" " glyph-name="space" horiz-adv-x="700" />
<glyph unicode="!" glyph-name="exclam" horiz-adv-x="520" d="M253 326L254 322H281L275 332Q291 370 291 453Q291 481 290 502Q289 522 289 543Q289 715 311 1033Q332 1359 332 1522Q332 1548 306 1548Q284 1548 263 1531T242 1493Q242 1448 250 1334Q257 1235
257 1171L255 996Q252 881 252 821V330L253 326ZM212 6T228 -4Q245 -15 254 -16Q264 -17 267 -27Q318 -24 318 27Q318 60 302 81T257 102Q237 102 216 81T195 39Q212 6 228 -4Z" />
<glyph unicode="&quot;" glyph-name="quotedbl" horiz-adv-x="680" d="M208 1257T211 1257Q223 1257 238 1301T265 1403T277 1497Q277 1529 264 1552T229 1575Q207 1575 207 1401V1384Q207 1287 203 1262Q208 1257 211 1257ZM442 1255T447 1255Q456 1255 468 1348T481
1497Q481 1530 474 1552Q466 1575 455 1575Q446 1575 438 1570Q426 1561 420 1529Q417 1519 416 1496T414 1455V1409Q414 1298 440 1257Q442 1255 447 1255Z" />
<glyph unicode="#" glyph-name="numbersign" horiz-adv-x="820" d="M459 -57T496 -57L519 -31Q519 94 546 325Q571 554 576 610H656Q689 624 689 637Q689 676 631 676Q620 676 611 675L593 674L582 678Q582 867 613 987L656 985L699 983Q713 983 726 1016L699
1044H623L619 1055Q619 1138 656 1290Q691 1441 693 1522Q685 1542 668 1542Q651 1542 638 1526Q624 1344 562 1044Q523 1030 453 1030H427Q369 1030 339 1038Q339 1119 357 1276Q375 1434 375 1513L361 1542Q330 1542 330 1497Q330 1486 331 1477Q332 1468 332
1456Q332 1346 304 1162Q288 1055 285 1028Q266 1022 191 1022H148L132 1004Q133 967 212 967L248 969L281 971Q281 941 266 805T244 657Q230 655 203 655H160Q91 655 91 635Q91 592 152 592Q172 592 197 596Q222 600 240 600Q216 488 191 267T165 -37Q165 -45
176 -51T199 -57Q215 -57 230 56Q244 159 261 349Q279 548 287 600Q311 608 359 608Q470 608 525 602Q525 534 506 411Q486 280 486 219Q486 173 473 91Q459 2 459 -37Q459 -57 496 -57ZM297 670L296 674Q296 723 309 835T332 971Q354 983 400 983Q558 983 558
963Q558 944 556 906Q553 869 542 788L521 670Q455 662 332 662Q319 662 298 666L297 670Z" />
<glyph unicode="$" glyph-name="dollar" horiz-adv-x="720" d="M365 10T370 -4T384 -18Q419 -18 419 68Q419 93 415 126Q410 168 410 184Q457 217 475 232T513 272Q534 298 542 328T550 403Q540 530 431 753Q386 841 376 870Q363 900 346 1070T329 1309Q329 1336
326 1390Q322 1438 322 1470L329 1487Q364 1483 383 1471T420 1430Q436 1404 449 1391Q457 1383 465 1393T474 1417Q474 1428 423 1479Q384 1524 345 1524Q312 1524 312 1599Q312 1627 314 1645L298 1663Q269 1663 269 1610Q269 1590 273 1565Q277 1540 277 1522Q251
1522 230 1497T199 1431Q179 1353 179 1300Q179 1243 200 1169Q214 1120 230 1080T260 1009T278 970L293 939Q314 894 316 881Q333 724 351 505T370 213Q344 205 312 205Q276 205 263 217T243 255Q236 277 216 289H212Q193 289 193 268Q193 216 265 166Q294 170
367 170L374 164V29L365 23Q365 10 370 -4ZM226 1335T240 1402T273 1473Q276 1394 292 1236Q309 1070 310 981Q304 984 304 989Q226 1160 226 1288Q226 1335 240 1402ZM406 324T389 508Q372 692 372 776Q397 740 428 661T482 502T505 387Q505 343 477 299T408 236L406
240Q406 324 389 508Z" />
<glyph unicode="%" glyph-name="percent" horiz-adv-x="1244" d="M351 723T385 750Q419 776 437 811T466 902Q475 948 477 980T480 1059L478 1106L476 1153L480 1159Q480 1369 417 1477Q380 1552 280 1552H276Q239 1552 209 1507T162 1393Q147 1329 139 1274T130
1188V1180Q130 723 302 723Q351 723 385 750ZM806 1517T797 1524T775 1532Q770 1532 766 1525Q763 1520 757 1506Q746 1470 744 1461Q740 1448 740 1448Q625 1007 484 387L456 274Q433 182 423 128T413 31Q413 8 433 -6Q458 -4 470 29Q481 60 487 93L493 121L534
299L765 1317L777 1369L797 1456Q806 1498 806 1505Q806 1517 797 1524ZM183 1123L181 1178Q181 1185 186 1205Q190 1221 190 1231L195 1274Q203 1348 219 1414Q228 1452 244 1474T282 1497Q319 1497 349 1477T396 1421T413 1346L417 1327Q417 1287 425 1199Q433
1111 433 1071Q433 1029 429 991T414 899Q402 843 372 810T298 776Q264 776 240 812T204 906Q185 1005 185 1065L183 1123ZM726 815T726 358V350Q726 321 734 273T757 169Q773 107 803 67T871 27Q932 27 976 62T1041 158Q1060 215 1068 267T1076 379L1072 385L1074
432L1076 479Q1076 504 1074 550Q1071 589 1061 640T1034 725Q1015 764 979 789T898 815Q726 815 726 358ZM781 534T800 632Q811 688 835 723T892 758Q928 758 953 734Q977 711 990 680T1012 600Q1019 560 1021 533T1023 469V403Q1023 362 1022 345Q1020 278 1008
227Q993 165 965 132Q950 114 927 104T876 94Q850 94 832 125Q815 153 808 182T793 266L785 313Q785 323 781 340Q777 356 777 367L779 420L781 475Q781 534 800 632Z" />
<glyph unicode="&amp;" glyph-name="ampersand" horiz-adv-x="920" d="M418 -21T465 -3T583 63Q625 32 641 23Q667 6 702 -6T769 -19Q861 -19 861 14L839 32Q827 32 801 29Q776 26 763 26Q675 26 605 108Q657 208 675 309T693 575H706Q720 575 731 574Q742 573
755 573Q791 573 824 582T857 606Q857 618 847 626T822 637Q802 629 721 621T601 612L595 602L599 589L597 585Q607 570 628 572H630Q636 572 641 566Q646 558 646 540Q646 301 568 143Q521 157 461 310Q422 407 390 516T340 714T321 845Q321 862 329 880T355 922Q369
941 376 954Q390 981 405 1016T430 1080Q436 1097 437 1100Q456 1159 476 1212Q474 1222 474 1237Q474 1258 477 1298Q480 1339 480 1359Q480 1386 455 1410T394 1449T325 1464Q302 1464 286 1439Q259 1397 259 1335V1165Q259 1110 266 1022Q273 932 273 878L238
810L218 771Q214 764 204 744L177 688Q154 641 150 627L131 572Q116 532 113 509L109 488L102 447Q95 411 93 377T91 292Q91 221 124 151Q157 76 219 28T351 -21Q418 -21 465 -3ZM306 1339Q306 1355 325 1384T359 1413Q435 1413 435 1290Q435 1253 415 1179T365
1038T314 950Q314 967 311 995Q308 1024 308 1040Q308 1064 312 1075L308 1085L306 1339ZM136 454T173 575T280 786Q289 759 297 693L300 669Q304 632 308 610Q335 473 387 341T501 147Q533 115 542 100Q540 79 509 61T437 30T366 18Q307 18 261 45T188 121Q136
213 136 329Q136 454 173 575ZM765 389T763 389L765 387Q765 389 763 389Z" />
<glyph unicode="&apos;" glyph-name="quotesingle" horiz-adv-x="480" d="M216 1257T219 1257Q231 1257 246 1301T273 1403T285 1497Q285 1529 272 1552T237 1575Q215 1575 215 1401V1384Q215 1287 211 1262Q216 1257 219 1257Z" />
<glyph unicode="(" glyph-name="parenleft" horiz-adv-x="600" d="M171 685T195 474T264 71T370 -258Q370 -261 377 -276Q384 -295 390 -304T399 -318Q406 -330 414 -335T435 -340Q451 -340 466 -315Q457 -280 424 -218Q389 -157 382 -139Q227 231 227 879Q227
1165 319 1423Q327 1442 346 1480Q367 1521 378 1551T390 1610L370 1626Q321 1625 271 1457Q226 1303 199 1131T171 879Q171 685 195 474Z" />
<glyph unicode=")" glyph-name="parenright" horiz-adv-x="720" d="M542 863T528 994Q486 1347 425 1516Q385 1625 343 1626L323 1610Q323 1582 334 1552T368 1481Q388 1444 395 1423Q487 1165 487 817Q487 617 439 374T311 -78Q296 -114 279 -145L242 -216Q227
-246 227 -254Q227 -265 236 -272T257 -279Q286 -279 323 -203Q360 -125 394 -8Q443 163 479 319Q542 585 542 817Q542 863 528 994Z" />
<glyph unicode="*" glyph-name="asterisk" horiz-adv-x="880" d="M536 1120T621 1115Q706 1110 737 1110Q784 1110 784 1139Q784 1153 772 1165T745 1178Q722 1178 657 1173Q599 1167 569 1167Q507 1167 446 1176L444 1178Q465 1224 494 1314Q526 1413 549 1458Q575
1501 575 1513Q575 1523 564 1533T542 1544Q521 1544 491 1474Q464 1410 433 1316Q406 1232 395 1212Q374 1227 343 1304Q335 1322 332 1332Q305 1395 281 1455Q251 1526 237 1526Q224 1526 215 1520T205 1503Q205 1491 267 1359T354 1180L350 1176Q273 1176 212
1177Q151 1178 73 1178Q64 1178 58 1171T51 1153Q51 1120 73 1120Q83 1120 90 1121Q97 1122 106 1122H338Q349 1122 360 1118Q353 1074 275 920Q198 768 198 745L227 715L254 719Q266 740 285 790L297 823L377 1012Q392 1053 401 1065Q457 962 512 831L520 794Q526
759 537 742T569 725Q580 725 589 733T598 754Q598 777 520 933Q442 1085 440 1114Q451 1120 479 1120H504Q536 1120 621 1115ZM436 1118Q436 1120 438 1120V1118H436Z" />
<glyph unicode="+" glyph-name="plus" horiz-adv-x="820" d="M362 374T377 365T405 356Q423 356 435 365T448 389Q448 417 439 466Q430 516 430 553Q430 584 436 598T457 616T504 621H514Q536 621 578 618Q614 614 639 614Q674 614 674 647Q674 684 610 684Q589
684 549 681Q508 678 487 678Q456 678 443 688T430 727Q430 760 426 808Q422 856 422 889L430 909Q430 944 393 944Q370 944 361 934T352 899Q352 872 357 797Q362 720 362 694Q362 678 278 678Q260 678 224 681Q188 684 170 684Q156 684 152 678T147 655Q147 612
207 612Q222 612 252 618Q285 623 297 623Q326 623 339 621T358 608Q364 598 365 590T366 555L364 501L362 449V385Q362 374 377 365Z" />
<glyph unicode="," glyph-name="comma" horiz-adv-x="560" d="M164 -149T164 -156Q164 -166 171 -172T190 -179Q203 -179 218 -170Q261 -141 298 -96T359 -3T382 78Q382 160 292 160Q259 160 237 144T215 96Q215 56 228 35T274 6Q274 -13 268 -29Q257 -57 223
-91Q199 -115 167 -143Q164 -149 164 -156Z" />
<glyph unicode="-" glyph-name="hyphen" horiz-adv-x="720" d="M550 753T536 763T505 774Q450 774 366 765T218 742T155 715Q155 700 168 690T198 680Q255 680 340 689T487 712T550 739Q550 753 536 763Z" />
<glyph unicode="." glyph-name="period" horiz-adv-x="520" d="M203 23T216 8T248 -8Q305 -8 305 43Q305 61 290 78T256 96Q236 96 220 79T203 41Q203 23 216 8Z" />
<glyph unicode="/" glyph-name="slash" horiz-adv-x="680" d="M548 1532T518 1532Q513 1532 509 1525Q506 1520 500 1506Q489 1470 487 1461Q483 1448 483 1448Q368 1007 227 387Q219 349 199 273Q175 182 165 128T155 31Q155 8 175 -6Q200 -4 212 29Q223 60 229
93L235 121L276 299L507 1317L519 1369L539 1456Q548 1498 548 1505Q548 1532 518 1532Z" />
<glyph unicode="0" glyph-name="zero" horiz-adv-x="800" d="M447 -14T479 3Q510 20 530 45T565 113Q579 155 587 194T599 291Q603 342 604 389T605 492Q605 878 559 1215Q519 1542 335 1542Q261 1542 233 1515Q215 1499 207 1486T195 1449Q191 1424 190 1407T189
1364Q189 1273 188 1200Q187 1127 187 1036Q187 823 192 681T212 393Q242 89 343 12Q350 6 375 -4T409 -14Q447 -14 479 3ZM368 1498T406 1468Q440 1441 461 1395T500 1285Q520 1212 527 1089Q528 1070 528 1041Q528 979 540 760Q552 540 552 474Q552 416 547 322Q541
227 513 129Q500 83 478 58T427 33Q389 33 358 73T308 184Q268 330 255 492Q243 643 243 746V946Q243 1025 239 1138Q234 1280 234 1329V1364Q233 1379 233 1396Q233 1449 252 1473T320 1498Q368 1498 406 1468Z" />
<glyph unicode="1" glyph-name="one" horiz-adv-x="740" d="M481 14T372 10Q263 6 207 6Q190 6 183 14T175 46Q175 52 180 58T191 65H249L308 64Q331 64 341 66T355 77T359 104Q359 573 313 1284L314 1349L315 1415Q315 1449 309 1462T285 1479T221 1483L198 1481L174
1479Q139 1479 139 1501Q139 1522 181 1526Q218 1530 342 1530Q356 1530 365 1520T375 1497V1434Q375 1384 380 1241Q385 1098 385 1047Q385 1036 396 814L399 757Q412 501 412 360V334L417 222Q421 135 421 102Q421 94 420 87L418 72L427 66Q442 66 473 69Q505
72 519 72Q582 72 582 43Q582 14 537 14Q481 14 372 10Z" />
<glyph unicode="2" glyph-name="two" horiz-adv-x="720" d="M147 25Q147 7 162 -4T198 -16Q250 -16 351 -7Q452 1 497 2Q515 2 515 29Q515 61 485 61Q351 60 239 39Q228 39 228 49Q228 55 233 72Q249 115 281 184L327 286L386 420Q427 513 463 657T520 952T542
1212Q542 1236 539 1287Q536 1338 536 1362L540 1366Q538 1426 513 1476T445 1555T345 1585Q311 1585 285 1552Q260 1521 249 1482T237 1407Q237 1392 238 1387Q239 1379 245 1373T264 1366Q291 1366 299 1440Q302 1472 319 1502T364 1544Q491 1544 491 1249Q491
1000 434 769T257 274L147 25Z" />
<glyph unicode="3" glyph-name="three" horiz-adv-x="680" d="M210 40T250 19T337 -2Q374 -2 405 12Q435 26 454 47T487 103Q501 136 508 165T519 237Q525 303 525 367Q525 421 523 437T509 508Q502 538 495 588Q485 651 477 687T455 765Q423 857 343 889Q350
897 377 940Q401 981 410 987Q447 1051 447 1102Q447 1371 365 1489L359 1491Q343 1513 318 1526T267 1540Q206 1540 166 1506T91 1403Q92 1391 103 1383T126 1374Q152 1374 174 1433Q183 1456 206 1473T261 1491Q296 1491 321 1461Q346 1432 359 1392T381 1293Q392
1212 392 1130Q392 1082 372 1031Q357 994 339 968T305 924T283 899Q263 876 261 868L271 858V850Q289 842 310 842Q316 842 321 843Q325 844 330 844Q368 803 397 748Q424 693 438 644T460 527Q467 465 468 423T470 297Q470 37 314 37Q304 42 288 55Q268 69 254
76T226 84L210 74Q210 40 250 19Z" />
<glyph unicode="4" glyph-name="four" horiz-adv-x="660" d="M411 -25L444 0V29L437 43L444 68Q435 83 435 117Q435 142 437 152Q431 166 425 297T419 498Q419 523 436 533T477 542Q482 541 491 541Q510 541 522 547T534 567Q534 590 495 590Q479 590 456 586Q433
582 419 582Q411 590 405 707T398 901Q398 949 392 1046Q386 1142 386 1190L368 1212Q352 1212 341 1206T329 1188Q329 1163 337 1104Q343 1061 345 1024Q360 657 360 582Q348 576 313 570T257 563Q237 563 237 602Q237 613 244 630Q251 645 251 657Q251 669 244
687Q237 705 237 717Q237 803 249 975Q261 1148 261 1233Q261 1258 257 1290L261 1296Q255 1331 255 1366Q255 1400 259 1448Q263 1496 263 1530Q263 1544 252 1551T226 1559Q202 1559 202 1532Q202 1522 206 1507Q210 1491 210 1481V1155Q210 1081 200 954Q190
827 190 754Q190 736 181 703Q171 672 171 653L190 612Q179 554 179 547V541Q183 537 191 532Q199 525 208 521Q215 518 235 518Q256 518 295 524Q334 530 355 530Q376 520 376 440L374 394L372 348Q372 308 379 244Q386 178 386 139Q386 101 378 66L380 61V-12L411
-25Z" />
<glyph unicode="5" glyph-name="five" horiz-adv-x="740" d="M428 -4T454 24Q479 52 495 80T523 148Q534 189 539 220T548 296Q552 357 552 438Q552 511 542 610Q531 724 501 831T434 967Q420 978 379 986T293 999Q257 1004 257 1004L260 1006Q245 1179 233 1350L226
1434Q219 1500 219 1544L227 1542L241 1546L323 1536L329 1540H372L395 1559Q395 1587 337 1587H333L176 1585L155 1565Q156 1500 181 1351Q204 1202 204 1130Q204 1082 194 1026Q194 1026 196 996Q198 970 200 962Q203 949 214 940T245 930Q251 930 267 939Q284
948 290 948Q292 948 293 947Q294 946 296 946L305 952H352Q400 952 433 873Q466 790 479 675Q501 479 501 328Q501 298 493 250T471 148Q455 92 429 55T372 18Q363 18 346 27Q327 35 319 35Q280 35 280 12Q280 -20 381 -20H397Q428 -4 454 24ZM217 1337T219 1337L217
1335Q217 1337 219 1337Z" />
<glyph unicode="6" glyph-name="six" horiz-adv-x="700" d="M406 -29T433 -17Q459 -6 474 12T498 58Q506 83 508 108T511 170V231Q510 241 510 270L509 310Q508 374 498 477Q498 484 496 502Q491 554 483 596T460 698Q449 744 432 780T391 851Q370 881 341 897T278
913Q256 913 233 897Q234 957 243 1090Q252 1219 276 1345T331 1497Q340 1504 356 1510Q378 1519 389 1528T401 1550Q401 1556 392 1562T376 1569Q341 1569 312 1544T263 1472Q241 1421 227 1369T205 1249Q194 1165 189 1113T182 998Q179 905 179 816V807Q179 590
210 369Q212 356 214 322T218 270L222 216Q224 174 234 128T258 49Q273 14 302 -7T370 -29Q406 -29 433 -17ZM233 828T294 868Q332 868 361 827T409 713Q444 566 454 405Q462 271 462 174Q462 12 386 12Q344 12 325 32Q313 45 307 54T298 78Q291 110 288 138L284
166Q233 456 233 728V758Q233 828 294 868Z" />
<glyph unicode="7" glyph-name="seven" horiz-adv-x="600" d="M212 -26T225 5T239 70Q239 78 237 86Q250 104 292 379T378 976T429 1395Q430 1400 430 1417L431 1438Q431 1494 444 1530Q439 1545 426 1556T398 1567Q362 1567 290 1564Q217 1561 181 1561L163 1542L194
1522Q213 1522 254 1525Q294 1528 315 1528Q386 1528 386 1516Q386 1443 365 1307Q362 1289 351 1212Q329 1027 314 881Q286 622 262 457T202 143Q194 112 188 97Q176 61 171 39T165 -4L190 -27Q212 -26 225 5Z" />
<glyph unicode="8" glyph-name="eight" horiz-adv-x="680" d="M192 110T221 24Q236 -22 265 -50T331 -78Q392 -78 428 -50T499 45Q497 51 497 55Q497 64 500 80Q503 97 503 104Q503 389 368 795Q367 800 359 817Q342 857 342 868Q342 873 372 1008Q413 1228 413
1331Q413 1471 374 1559Q370 1570 360 1579Q351 1587 343 1591T323 1601L303 1610H266Q234 1610 210 1596T172 1555Q147 1505 147 1442Q147 1315 241 1030L256 985L271 938Q273 929 279 911Q288 878 288 868Q288 840 270 791Q261 769 258 756Q192 498 192 186Q192
110 221 24ZM198 1531T245 1569Q254 1563 270 1563Q277 1563 282 1564L292 1565Q322 1565 340 1514Q356 1468 361 1426T366 1335Q366 1164 305 969Q287 980 262 1075T218 1283T198 1438Q198 1531 245 1569ZM239 127T239 168Q239 274 248 405T276 645T321 788Q332
769 341 740T361 662Q370 620 376 598Q454 313 454 119Q454 47 424 4T331 -39Q303 -39 285 -11T264 53L266 59Q239 127 239 168Z" />
<glyph unicode="9" glyph-name="nine" horiz-adv-x="740" d="M506 -47T506 10Q506 23 505 34Q504 44 504 57Q504 85 511 133Q518 181 518 209Q518 325 521 554Q524 784 524 899Q524 916 531 940Q538 964 538 981L540 1102Q541 1156 541 1223Q541 1525 526 1550Q512
1570 470 1586T393 1602Q325 1602 275 1564T198 1461T171 1316Q171 1186 243 1079Q279 1025 337 989T465 944L479 948L481 838L483 727Q483 654 478 442Q473 230 473 156Q473 26 454 -27L471 -47Q506 -47 506 10ZM391 1005T339 1063Q286 1122 256 1204T225 1366Q225
1457 268 1510T395 1563Q447 1563 469 1532T491 1440Q491 1174 481 1001L452 997Q391 1005 339 1063Z" />
<glyph unicode=":" glyph-name="colon" horiz-adv-x="520" d="M215 1006T228 991T260 975Q318 975 318 1026Q318 1044 302 1061T268 1079Q248 1079 232 1062T215 1024Q215 1006 228 991ZM195 232T208 217T240 201Q297 201 297 252Q297 270 282 287T248 305Q228
305 212 288T195 250Q195 232 208 217Z" />
<glyph unicode=";" glyph-name="semicolon" horiz-adv-x="560" d="M265 1006T278 991T310 975Q368 975 368 1026Q368 1044 352 1061T318 1079Q298 1079 282 1062T265 1024Q265 1006 278 991ZM250 0T290 50Q328 98 352 158T376 258Q376 290 357 313T308 336Q278
336 254 318T230 272Q230 247 247 223T290 182Q290 164 284 147Q273 119 239 85Q215 61 183 33L179 14L212 -2Q250 0 290 50Z" />
<glyph unicode="&lt;" glyph-name="less" horiz-adv-x="700" d="M511 2L524 0Q532 0 540 13T552 39L534 53Q499 111 359 397T219 700Q219 753 253 847T336 1039Q387 1142 426 1241T475 1401L448 1421Q435 1420 421 1395Q409 1373 401 1350T382 1287L370 1247Q359
1211 301 1081Q247 961 195 837Q147 723 147 698Q147 668 185 618Q223 566 229 549Q238 529 253 499L274 455L376 242L412 164Q460 53 493 4H497L511 2Z" />
<glyph unicode="=" glyph-name="equal" horiz-adv-x="760" d="M592 731T592 737Q592 748 583 755T561 762H330Q150 762 148 756Q145 749 145 743Q145 721 175 721H373Q589 721 590 727Q592 731 592 737ZM552 594T552 610Q552 619 547 627T536 635L216 637H133Q123
637 123 626Q123 616 129 607T143 598Q538 598 538 594Q552 594 552 610Z" />
<glyph unicode="&gt;" glyph-name="greater" horiz-adv-x="700" d="M230 68L241 90L417 455L438 498Q454 529 462 549Q469 567 507 618Q544 668 544 698Q544 724 496 838Q448 952 391 1081Q334 1207 321 1247L310 1288L293 1346Q285 1373 271 1395T243 1421L217
1401Q226 1340 266 1240T357 1039Q406 940 439 847T473 700Q473 684 337 408T157 53L139 39Q141 27 150 14T168 0L182 2L198 4L230 68Z" />
<glyph unicode="?" glyph-name="question" horiz-adv-x="640" d="M205 1273T217 1273Q228 1273 253 1283Q238 1377 238 1406Q238 1533 310 1533H333Q363 1533 381 1482Q397 1436 401 1395T406 1303Q406 1234 394 1156T355 969Q331 870 322 819Q283 567 283 260Q288
236 306 236Q314 236 328 243Q329 244 331 242L329 357Q329 513 348 658T395 897Q423 994 441 1101T460 1305Q460 1363 449 1427T417 1533Q393 1578 306 1578Q274 1578 250 1564T212 1523Q187 1473 187 1410Q187 1360 202 1283Q205 1273 217 1273ZM261 23T274 8T306
-8Q363 -8 363 43Q363 61 348 78T314 96Q294 96 278 79T261 41Q261 23 274 8Z" />
<glyph unicode="@" glyph-name="at" horiz-adv-x="1140" d="M336 39T485 39Q533 39 597 55T725 99Q791 128 840 173T905 268L887 287Q880 286 842 248Q759 161 675 124T478 86Q437 86 398 121T327 207T278 307Q256 367 250 404T237 538Q232 606 228 650T218 751Q216
773 214 783L208 846Q205 875 202 925T199 1014Q199 1033 195 1040Q203 1061 203 1106Q203 1138 199 1186Q205 1201 210 1221T216 1247Q220 1267 224 1314L226 1350L228 1380Q231 1439 235 1467Q238 1506 247 1550T267 1622Q280 1655 301 1685T349 1733Q378 1752
419 1763T509 1774Q586 1774 639 1751T730 1680T799 1550Q913 1249 913 915Q913 625 834 625Q817 625 791 676L768 686L757 794L737 974Q711 1205 688 1326Q675 1393 664 1405Q613 1464 530 1464Q488 1464 457 1448Q424 1432 403 1408T366 1343Q350 1304 343 1268T330
1179Q323 1100 323 1006V954Q323 896 324 871Q325 831 330 780T343 688Q352 644 367 602T403 533Q424 503 456 485T526 467Q588 467 644 509T728 616Q742 611 772 589Q802 565 831 565Q983 565 983 903Q983 978 952 1174L947 1207L928 1330Q919 1381 901 1455T866
1570Q843 1624 810 1677T742 1759Q700 1792 642 1812T519 1833Q445 1833 391 1818Q335 1802 300 1776T238 1703Q213 1658 198 1610T166 1479Q131 1307 131 1024Q131 954 142 808T169 530T199 360Q201 353 210 335Q225 304 226 279Q336 39 485 39ZM552 1409T571
1401Q589 1392 598 1383T616 1352Q623 1334 626 1319T631 1297L635 1275L642 1233L650 1193L658 1150Q662 1135 666 1111T673 1067Q677 1035 678 1027Q680 1014 683 983L686 943Q687 928 687 899V745Q687 706 665 654T608 564T541 526Q496 526 467 553T425 633Q413
682 409 724T405 831V1094Q405 1127 407 1173Q409 1213 416 1259T435 1333Q448 1366 473 1387T530 1409Q552 1409 571 1401Z" />
<glyph unicode="A" glyph-name="A" horiz-adv-x="800" d="M576 0T564 10T552 35V303Q552 319 501 334T382 359T276 369Q270 369 250 292Q233 225 213 138T187 20Q183 5 165 5Q149 5 136 15T123 39Q123 41 124 42V45L148 147L190 336L220 471Q251 604 298 877Q349
1170 372 1274Q389 1350 409 1419Q422 1466 439 1502Q455 1536 468 1536Q500 1536 515 1516Q526 1498 547 1311T585 940L613 600Q613 512 625 333Q636 146 636 66V57Q636 30 630 17Q623 0 591 0Q576 0 564 10ZM550 396T550 416Q550 543 536 763T506 1151Q498 1239
481 1389L477 1411Q473 1426 473 1436Q457 1390 444 1323T409 1122Q362 821 325 664Q321 641 307 594Q292 542 285 506T277 438V426Q364 397 484 397H496Q502 396 510 396Q550 396 550 416Z" />
<glyph unicode="B" glyph-name="B" horiz-adv-x="740" d="M183 -12T259 -12H263Q280 -12 304 -2Q327 6 344 8Q407 36 450 65Q494 95 520 127T560 205Q574 250 579 300T584 433Q584 526 565 598T504 735T387 874Q519 1053 519 1214Q519 1309 486 1382T388 1495T232
1536Q179 1536 179 1389Q179 1227 186 962Q193 697 193 535Q193 468 188 276Q183 83 183 16Q183 -12 259 -12ZM250 988T246 1133Q242 1278 242 1378Q242 1466 295 1466Q339 1466 378 1437T441 1361T465 1268Q465 1214 451 1150T410 1026Q383 964 342 925T256 885L250
887Q250 988 246 1133ZM260 502T250 788Q262 789 297 800Q327 809 351 811Q527 737 527 371Q527 292 493 222T400 110T273 68L267 69Q264 70 260 70Q260 502 250 788Z" />
<glyph unicode="C" glyph-name="C" horiz-adv-x="780" d="M173 793T185 621T215 299T249 115Q266 78 301 44T379 -12T460 -33Q533 -33 604 -4Q641 11 664 38T687 102Q687 132 668 132Q647 132 630 106Q580 47 487 47Q433 47 386 68T313 127Q294 155 275 297T242
608T229 860L227 967L225 1081Q225 1145 230 1205Q235 1263 250 1319T290 1410Q317 1449 362 1472T466 1495Q485 1495 522 1481Q557 1466 569 1466Q601 1466 601 1489Q601 1509 582 1526T535 1554T483 1565Q422 1565 377 1552Q329 1539 297 1518T242 1461Q218 1426
205 1389T184 1300Q177 1249 174 1202T171 1090Q171 1033 172 986Q173 938 173 877Q173 793 185 621Z" />
<glyph unicode="D" glyph-name="D" horiz-adv-x="820" d="M172 19T196 8T247 -4Q266 -4 319 34T430 137T526 284Q587 414 620 562T654 837V902Q653 935 649 990T639 1089Q633 1139 620 1197T590 1301Q572 1351 545 1398T485 1475Q450 1508 403 1527T303 1546H293Q139
1546 139 1497Q139 1478 153 1441Q166 1405 168 1391Q175 1342 180 1105V1079Q183 865 184 858L198 299L204 119Q206 104 189 78Q172 50 172 37Q172 19 196 8ZM268 460T253 719Q237 971 237 1110Q237 1167 228 1279Q219 1392 219 1450Q219 1473 262 1473Q592 1473
592 874Q592 807 586 733Q579 652 558 554T506 378Q471 290 412 215T278 100H268V330Q268 460 253 719Z" />
<glyph unicode="E" glyph-name="E" horiz-adv-x="620" d="M192 5T212 -3T280 -12H367Q446 -12 467 -4Q486 3 486 35Q486 62 448 62H430H343L256 61V137Q256 274 252 462Q248 649 248 766Q248 776 256 776H373Q390 776 397 783T404 810Q404 840 370 840Q328 840
259 836H257H255Q251 836 251 840V1096V1270Q250 1347 250 1444Q250 1459 254 1463T274 1468L307 1466L340 1464Q365 1464 374 1465Q388 1466 401 1476T414 1503Q414 1531 393 1538Q383 1541 374 1541T351 1542H224Q207 1542 197 1526T187 1485Q191 1357 191 1257L193
412L191 113V109Q191 88 192 71V33Q192 5 212 -3Z" />
<glyph unicode="F" glyph-name="F" horiz-adv-x="580" d="M296 -4T296 34Q296 46 290 61L296 72Q296 193 277 417Q257 652 257 762Q257 782 300 786Q307 787 345 790T405 802T427 827Q427 841 417 854T395 868Q373 868 326 856Q280 844 257 844Q257 868 242 1145Q227
1421 227 1443Q227 1470 231 1476T252 1483L305 1482L352 1481Q390 1481 390 1501Q390 1520 381 1534T356 1548Q323 1548 300 1549H254Q200 1549 183 1545Q163 1540 163 1525V1512L171 1355Q179 1193 185 1027T192 819Q192 659 212 326L218 201V49Q218 -4 251 -4Q296
-4 296 34Z" />
<glyph unicode="G" glyph-name="G" horiz-adv-x="920" d="M171 407T244 188Q318 -33 473 -33Q560 -33 679 35L678 30L677 25Q677 -20 726 -20Q753 -20 753 12Q753 70 733 195Q712 317 712 377Q712 415 696 439T648 463Q608 463 552 449T495 418Q495 383 542 383Q560
383 584 387Q608 391 624 391Q640 391 652 357Q664 318 668 272Q677 186 677 127Q611 25 503 25Q439 25 392 71Q345 115 317 183T270 353Q253 444 247 529T240 715Q240 805 241 827L243 962Q245 1066 254 1143Q267 1261 286 1325Q298 1367 316 1405T354 1466Q376
1492 406 1507T470 1522Q477 1522 499 1517Q518 1511 528 1511Q558 1511 558 1536Q558 1571 497 1571Q448 1571 403 1554Q359 1537 328 1510T272 1440Q246 1395 230 1354T203 1258Q191 1200 185 1156T176 1054Q171 977 171 877Q171 407 244 188Z" />
<glyph unicode="H" glyph-name="H" horiz-adv-x="740" d="M537 -20T544 -8T552 20V49Q552 122 537 638Q522 1153 522 1518Q522 1530 512 1537T487 1545Q460 1545 460 1520Q460 1393 470 1172Q479 940 479 825L477 821Q442 821 360 813Q277 805 242 805Q231 805
231 858V958Q231 1019 223 1166Q214 1304 214 1374V1526Q215 1538 208 1545T189 1553Q163 1553 163 1532Q163 1091 200 598Q205 531 214 299T223 20Q223 -8 255 -8Q276 -8 276 23Q276 135 259 393Q241 644 241 763Q268 770 386 770Q407 770 425 771H464H477Q497
373 497 59Q497 46 496 36Q495 25 495 12Q495 -5 501 -12T524 -20Q537 -20 544 -8Z" />
<glyph unicode="I" glyph-name="I" horiz-adv-x="660" d="M175 70T175 44Q175 31 185 21T211 10Q287 10 335 9Q382 8 447 8Q457 8 466 19T475 42Q475 71 429 71H355Q355 101 356 127Q357 153 357 184Q357 390 332 830Q306 1287 306 1474Q306 1479 309 1482Q311
1484 318 1485T333 1487H355Q367 1487 378 1486Q389 1485 404 1485Q415 1485 422 1495T429 1518Q429 1532 419 1539T392 1547Q344 1547 314 1548H256Q197 1548 180 1542Q163 1534 163 1513Q163 1484 185 1484H255Q261 1465 261 1354Q261 1276 260 1218L259 1114L266
919L275 663Q289 266 289 70H209Q175 70 175 44Z" />
<glyph unicode="J" glyph-name="J" horiz-adv-x="620" d="M188 -199T231 -199Q283 -164 317 -121Q352 -78 371 -37T401 64Q411 120 413 168T416 305Q416 355 394 798Q371 1260 371 1489H417Q451 1489 462 1494T473 1520Q473 1533 464 1542T440 1552Q372 1552 331
1553L253 1554Q193 1554 176 1547Q158 1540 158 1516Q158 1504 166 1495T186 1485L247 1487L309 1489Q309 1348 319 1119L320 1095Q330 796 330 801Q332 720 342 524Q352 337 352 221Q352 -2 262 -92Q255 -99 237 -110Q214 -125 202 -137T188 -160Q188 -199 231
-199Z" />
<glyph unicode="K" glyph-name="K" horiz-adv-x="820" d="M389 803T505 403L627 -19Q631 -32 651 -32Q666 -32 676 -24T687 -2Q687 5 684 12Q669 67 633 194T562 444Q529 559 479 712T387 969Q383 974 383 982Q383 985 385 993Q391 1003 461 1173L473 1203Q546
1382 576 1448Q581 1458 596 1484Q624 1529 629 1567Q629 1581 619 1589T594 1597Q560 1597 449 1313Q436 1282 372 1122Q306 959 262 864H260L264 1112Q267 1351 267 1453Q267 1511 260 1525Q253 1540 223 1540Q206 1540 201 1516Q196 1488 196 1443Q196 1291
192 1050Q187 748 187 657V38Q187 1 193 -12T221 -26Q241 -26 247 -13T254 34V763L283 811Q291 823 298 835T313 860Q317 870 324 880Q336 900 341 908T347 919L361 884Q389 803 505 403Z" />
<glyph unicode="L" glyph-name="L" horiz-adv-x="580" d="M211 13T220 1T245 -12Q367 -12 410 -11Q420 -11 427 -10L441 -9Q452 -9 459 3T466 31Q466 68 438 68H312Q287 68 284 69Q278 71 278 75Q277 137 266 330Q255 533 255 610L245 977Q237 1175 237 1545Q237
1574 201 1574Q189 1574 180 1568T171 1550Q171 1422 182 1122Q192 849 192 694Q192 587 202 403Q212 219 212 113V64L211 31Q211 13 220 1Z" />
<glyph unicode="M" glyph-name="M" horiz-adv-x="980" d="M741 -20T750 -33T786 -47Q802 -47 809 -34Q816 -21 816 24Q816 105 811 230Q806 355 806 399Q806 561 790 861Q773 1179 773 1325V1528Q773 1545 765 1555T745 1566Q733 1566 724 1555T710 1523L706 1495L700
1462L679 1347L659 1241L653 1208Q574 780 565 739Q545 626 534 559L502 376Q458 641 442 717Q405 887 331 1186T239 1544Q233 1561 218 1561Q207 1561 198 1553T188 1533V1354Q188 1273 185 1111Q182 949 182 868Q182 752 181 660L179 453V111Q179 4 237 4Q253
20 253 57Q253 83 248 155Q243 227 243 252Q243 360 240 577Q237 795 237 903Q237 1120 245 1317Q252 1306 298 1083T392 608T448 302Q452 272 464 255T491 238Q507 238 520 254T538 296Q552 377 575 483Q599 601 646 857T718 1268Q719 1279 722 1282L727 1198Q730
1135 730 1100L728 985L726 870Q726 772 734 534Q741 325 741 197V10Q741 -20 750 -33Z" />
<glyph unicode="N" glyph-name="N" horiz-adv-x="900" d="M317 1064T328 1016Q354 907 580 94L586 64Q592 30 594 24Q598 6 610 -8T637 -23Q689 -23 689 37Q689 77 694 199Q699 321 699 360Q699 522 702 843L704 1329V1460L706 1493Q707 1510 707 1535Q707 1595
691 1595Q656 1595 649 1567L651 1278Q651 1190 650 1120L648 961Q648 816 644 605Q640 393 640 248Q640 177 627 150Q583 283 521 539Q379 1069 373 1096Q356 1169 325 1313L315 1360Q286 1492 281 1513Q277 1527 262 1539T234 1552Q205 1552 192 1543T179 1509Q179
1497 180 1488Q181 1478 181 1466L183 1273Q184 1187 184 1079V811Q184 692 187 455L189 98Q189 31 185 16L191 0H238L252 16Q252 93 247 308Q242 523 242 600V1341Q242 1400 244 1426Q317 1064 328 1016Z" />
<glyph unicode="O" glyph-name="O" horiz-adv-x="840" d="M171 -43T455 -43Q533 -43 577 31Q601 73 616 112T640 208Q651 277 655 320T663 423Q666 510 666 612V618Q666 893 617 1239Q612 1278 601 1336Q591 1381 573 1427T531 1501Q505 1533 464 1552T373 1571Q320
1571 283 1537Q246 1504 225 1454T191 1323Q179 1250 175 1184T171 1025V942Q171 -43 455 -43ZM423 1518T456 1490T511 1408Q536 1346 552 1287T578 1154L581 1127Q598 979 603 867Q606 762 606 662V653Q606 570 600 439Q594 301 561 157Q546 90 519 52T459 14Q407
14 365 86Q325 153 301 250T259 484Q232 692 232 831V931Q232 1018 238 1139Q242 1209 252 1268T279 1393Q294 1453 321 1485T383 1518Q423 1518 456 1490Z" />
<glyph unicode="P" glyph-name="P" horiz-adv-x="660" d="M248 -12T257 3T267 51Q267 150 259 388Q250 612 250 725Q327 742 388 824Q446 902 476 998T506 1186Q506 1255 488 1321T434 1442Q398 1499 339 1532T209 1565Q198 1565 194 1563Q188 1561 184 1555Q179
1550 176 1544L171 1536Q171 1450 179 1266Q189 999 189 758Q189 665 190 592Q191 519 191 426Q191 364 194 242Q197 121 197 59Q197 -12 222 -12Q248 -12 257 3ZM285 1505T331 1476T403 1395Q449 1299 449 1182Q449 981 316 848L302 833L287 817Q270 802 250 801L246
805Q246 923 234 1155Q222 1388 222 1505Q285 1505 331 1476Z" />
<glyph unicode="Q" glyph-name="Q" horiz-adv-x="860" d="M729 -283T729 -244Q729 -217 665 -217H657Q624 -217 605 -192Q588 -171 583 -147T573 -69Q568 -24 565 -14L555 15Q547 36 545 53Q672 234 672 594Q672 1072 616 1391Q608 1436 573 1479T488 1550T391
1577Q317 1577 275 1500Q231 1419 212 1306Q190 1172 185 1044Q179 919 179 765Q179 709 180 666V573Q180 534 182 482Q184 434 190 376T208 277Q220 228 243 180T295 101Q327 67 375 47T481 27Q488 6 500 -71Q513 -152 533 -196T590 -256Q597 -258 619 -270Q642
-283 651 -283Q729 -283 729 -244ZM238 749T240 839Q247 1059 263 1188Q275 1287 291 1360T330 1475Q356 1520 387 1520Q424 1520 455 1505T507 1460Q530 1427 546 1392T571 1312Q582 1250 587 1213T596 1124Q600 1024 600 941V887Q600 464 566 273Q532 80 457
80Q404 80 363 121Q324 160 301 216T262 354Q238 473 238 590V713Q238 749 240 839Z" />
<glyph unicode="R" glyph-name="R" horiz-adv-x="700" d="M515 -20T556 -20Q570 -20 578 -8T586 24Q586 37 583 47L363 902Q377 916 396 956T425 1026Q466 1135 466 1231Q466 1290 452 1346T412 1451Q384 1500 339 1528T239 1556Q202 1556 202 1538V1274Q202 1040
195 663Q187 231 187 51V20Q187 5 197 -4T222 -14Q259 -14 259 27V57L255 846Q264 848 282 859L303 870Q327 780 356 631Q390 459 396 432Q416 336 480 110Q500 40 505 20Q515 -20 556 -20ZM257 1491T259 1492H264Q299 1492 327 1461T371 1379Q398 1287 398 1206Q398
1160 389 1103T364 1018Q348 990 310 952T254 913V1491Q257 1491 259 1492Z" />
<glyph unicode="S" glyph-name="S" horiz-adv-x="700" d="M311 1573T262 1526Q216 1480 194 1418T171 1288Q171 1189 201 1090Q224 1015 254 950T333 790L361 736Q408 645 436 543T464 340Q464 296 454 242T424 133Q403 74 366 37T282 0Q262 0 227 16Q190 31 169
31Q147 31 147 6Q161 -18 185 -29Q208 -40 226 -42T282 -45Q343 -45 395 -9T478 88Q507 145 522 208T538 330Q538 424 516 515Q499 587 475 646T409 791L390 831Q351 910 318 981Q283 1054 262 1139T241 1305Q241 1353 256 1399Q272 1450 308 1485T391 1520Q406
1520 425 1510Q445 1499 458 1499Q471 1499 471 1515Q471 1528 454 1541T414 1564T376 1573Q311 1573 262 1526Z" />
<glyph unicode="T" glyph-name="T" horiz-adv-x="720" d="M340 18T351 3T382 -12Q396 -12 403 -3Q409 5 410 13T412 42V48L411 199L410 368V1200V1359L409 1478H408L426 1480L518 1481H609Q648 1481 648 1511Q648 1529 639 1537T605 1546L380 1545L175 1544Q123
1544 93 1539Q67 1533 61 1527T54 1505Q54 1490 67 1482T97 1474H328Q333 1474 333 1253Q333 1153 332 1120L331 1061Q331 975 336 733Q341 490 341 406V223Q341 77 340 40Q340 18 351 3Z" />
<glyph unicode="U" glyph-name="U" horiz-adv-x="860" d="M199 439Q201 397 203 374Q206 339 214 289T233 200Q245 155 266 110T313 34Q340 1 381 -19T469 -39Q517 -39 555 -16Q591 6 612 39T646 123Q658 168 662 207T666 295Q666 408 663 634Q659 835 659 983V1167Q658
1249 658 1352V1507Q658 1529 647 1542T618 1555Q601 1555 590 1542T578 1507Q578 1461 583 1333Q587 1230 587 1159L596 897Q605 644 605 514V281Q605 253 603 213Q600 178 591 143T568 85Q552 59 525 43T462 27Q424 27 392 59Q361 89 341 131T305 237Q279 333
271 422Q256 564 242 888T228 1452Q228 1461 229 1468V1483Q229 1508 220 1520T187 1532Q155 1532 155 1479Q155 1469 156 1462V1448Q156 1256 171 913T197 473L199 439Z" />
<glyph unicode="V" glyph-name="V" horiz-adv-x="740" d="M576 1211T545 947Q512 672 480 377T446 27Q430 -18 407 -18Q404 -18 398 -16L376 -10Q342 129 294 442L182 1174L162 1263Q118 1447 118 1512Q118 1526 127 1537T147 1548Q155 1548 161 1545Q170 1541
179 1522Q185 1509 188 1491L192 1462Q201 1414 238 1197L341 493L368 299L394 112Q403 198 408 258L431 494Q444 609 480 943L510 1231L517 1298Q520 1323 532 1401Q544 1484 546 1516Q549 1554 585 1554L597 1546H593L614 1530Q614 1468 597 1355L585 1276Q576
1211 545 947ZM390 101H397L394 106L390 101Z" />
<glyph unicode="W" glyph-name="W" horiz-adv-x="960" d="M357 -27T322 -27Q283 -27 283 19Q283 32 284 42Q285 52 285 64V74Q279 124 248 322L230 434Q223 479 191 754Q159 1032 128 1259Q97 1490 83 1513Q89 1524 101 1532T126 1540Q157 1540 168 1529T179 1493V1475Q178
1466 178 1454Q178 1437 179 1432Q235 831 312 179H316Q324 236 340 504Q358 788 362 838Q367 901 386 1018Q406 1136 410 1184L417 1277L420 1319Q422 1345 422 1346Q422 1351 423 1359T425 1372Q425 1375 428 1379T437 1386Q452 1386 460 1383T474 1372Q479 1364
481 1358T485 1341L488 1323Q509 1217 576 759T658 156L664 152L740 981Q746 1065 766 1227Q787 1406 787 1503Q787 1514 786 1523Q785 1532 785 1542Q785 1567 796 1579T838 1591Q851 1591 864 1581T877 1559Q877 1538 855 1520Q857 1514 857 1507Q857 1497 853
1481T849 1462Q828 1297 794 919Q760 556 752 496Q744 407 735 334L712 126Q711 116 708 88Q701 33 701 23Q701 -3 694 -15T664 -27Q632 -27 625 -2Q619 17 618 55L615 86Q555 485 467 1209L461 1213L460 1211L459 1209Q379 321 357 90V54Q357 -27 322 -27Z" />
<glyph unicode="X" glyph-name="X" horiz-adv-x="680" d="M139 4T150 -4T170 -12Q175 -12 185 -10Q187 -9 194 -7T205 2Q212 14 214 22Q217 32 219 48Q221 61 221 61Q235 140 286 377T346 629Q363 563 419 279L429 225L439 166Q450 100 450 53Q450 41 456 35Q462
29 467 28T487 27Q520 27 520 70Q520 88 516 109L511 134L489 238L381 791Q381 814 384 839Q388 882 401 951Q405 978 411 1010T422 1061Q479 1354 506 1448Q509 1458 520 1483Q532 1513 532 1530Q532 1552 495 1552Q482 1552 472 1539T455 1501Q444 1462 438 1411Q435
1382 434 1380Q365 1004 354 922Q341 1001 303 1189Q266 1365 254 1434Q254 1433 252 1461Q251 1469 251 1476T250 1491Q248 1503 238 1512T211 1522Q194 1522 178 1495Q180 1454 202 1382Q225 1307 229 1288Q238 1245 262 1146Q288 1035 299 962T311 821Q311 807
309 773Q305 728 293 668L272 565Q237 399 177 170Q139 35 139 12Q139 4 150 -4Z" />
<glyph unicode="Y" glyph-name="Y" horiz-adv-x="620" d="M325 6T332 -9T354 -25Q375 -25 387 -8T399 35Q399 39 398 42Q397 45 397 49L391 55Q395 176 395 469Q395 515 388 592Q380 680 380 715V731L393 762Q393 774 390 796Q387 819 387 829Q387 895 395 980T414
1129Q430 1225 468 1434Q470 1447 477 1474Q485 1504 485 1518Q485 1529 480 1534Q476 1538 472 1539T462 1540T454 1540Q420 1540 394 1405Q367 1264 353 1107Q336 939 333 930Q316 953 287 1075T233 1335T204 1530L180 1546Q163 1546 151 1537T139 1513Q139 1478
169 1380Q186 1321 201 1254T237 1079L264 938Q265 935 267 925T275 892Q296 803 296 776Q296 743 309 682Q321 619 321 586Q321 555 328 503Q335 451 335 420Q335 369 330 222Q325 75 325 25Q325 6 332 -9Z" />
<glyph unicode="Z" glyph-name="Z" horiz-adv-x="620" d="M166 -18T186 -18Q236 -18 308 -14Q379 -10 429 -10L448 8Q448 49 362 49Q344 49 296 44Q248 39 229 39Q229 70 251 121Q273 172 276 195Q307 384 358 775L384 974Q420 1243 419 1239Q423 1264 428 1329Q433
1404 440 1451T460 1526Q460 1563 427 1563Q391 1563 331 1553Q265 1542 235 1542Q201 1542 186 1546L171 1530Q171 1489 263 1489Q281 1489 333 1494Q385 1499 401 1499Q400 1440 384 1339L378 1300L374 1268Q355 1127 296 702L280 588Q269 539 254 407Q240 270
218 175T155 8Q166 -18 186 -18Z" />
<glyph unicode="[" glyph-name="bracketleft" horiz-adv-x="620" d="M413 -43T372 -32Q328 -21 270 -18Q207 -15 202 -14L211 2V51Q224 90 237 371L254 627L260 720Q272 891 274 931Q280 1030 285 1187T290 1458Q290 1501 352 1501Q372 1501 409 1495Q447 1489
467 1489Q479 1489 489 1495T499 1511Q499 1524 479 1533Q448 1546 363 1550Q323 1552 264 1552L223 1528Q225 1520 234 1506Q243 1491 243 1481Q243 1319 217 976Q190 640 190 471Q190 386 169 218Q147 54 147 -35Q147 -59 227 -73T378 -88Q413 -88 413 -68Q413
-43 372 -32Z" />
<glyph unicode="\" glyph-name="backslash" horiz-adv-x="680" d="M524 8T524 31Q524 73 514 126T481 272Q468 319 452 387Q311 1007 196 1448Q195 1449 193 1461L187 1483Q179 1514 171 1525Q167 1532 162 1532Q149 1532 140 1525T131 1505Q131 1498 140 1456L160
1369L172 1317Q195 1195 226 1057Q266 874 321 644L344 549L390 356L403 299L444 121L450 93Q456 60 467 29Q479 -4 504 -6Q524 8 524 31Z" />
<glyph unicode="]" glyph-name="bracketright" horiz-adv-x="740" d="M313 -88T348 -88Q419 -88 499 -74T579 -35Q579 52 559 238Q538 420 538 510Q538 672 511 996Q483 1313 483 1481Q483 1491 492 1506Q501 1520 503 1528L462 1552Q403 1552 364 1550Q278 1546
247 1533Q227 1524 227 1511Q227 1491 275 1491H286Q311 1491 344 1495Q377 1499 401 1499Q421 1499 428 1490T436 1458Q436 1412 442 1326L448 1204Q456 938 479 511T516 51V2L524 -14Q520 -15 457 -18Q398 -21 355 -32Q313 -43 313 -68Q313 -88 348 -88Z" />
<glyph unicode="^" glyph-name="asciicircum" horiz-adv-x="800" d="M388 1395T372 1377T348 1325Q334 1267 330 1198Q329 1175 326 1151Q316 1099 301 1035L293 1002Q278 945 271 904T245 740Q221 583 217 565Q186 431 186 389Q186 383 193 377T209 368L236 379Q292
656 318 817Q323 848 336 944Q349 1046 360 1109T388 1223Q457 751 504 570Q511 535 511 535Q524 467 536 425Q545 395 556 378T582 361Q590 361 599 370T608 386Q608 393 597 439L590 464Q572 531 571 534L553 597Q497 824 484 913Q471 996 462 1068Q447 1168
443 1223Q435 1309 435 1376L412 1395Q388 1395 372 1377ZM392 1233L390 1229V1237L392 1233Z" />
<glyph unicode="_" glyph-name="underscore" horiz-adv-x="880" d="M847 -30T833 -20T803 -9H509Q227 -9 227 -15Q227 -30 240 -40T269 -50H571Q785 -50 785 -44H847Q847 -30 833 -20Z" />
<glyph unicode="`" glyph-name="grave" horiz-adv-x="680" d="M143 1215T240 1181T342 1146Q349 1146 357 1151T366 1163Q366 1180 327 1202Q293 1221 243 1241Q189 1262 162 1271Q152 1274 146 1276T137 1279Q119 1302 58 1302H45Q32 1293 32 1257Q32 1216 102
1216Q118 1216 135 1220Q143 1215 240 1181Z" />
<glyph unicode="a" glyph-name="a" horiz-adv-x="740" d="M281 315T333 310Q385 305 408 305Q472 305 509 295L543 27Q546 5 550 -4T563 -15T594 -18Q610 -9 610 12V18Q521 721 496 1010L484 1118Q476 1188 473 1236T469 1343Q469 1356 458 1365T432 1374Q420
1362 395 1362Q387 1362 381 1363L367 1364Q362 1355 354 1303Q349 1275 344 1220L340 1187L332 1112Q322 1047 296 922Q269 800 260 743L238 608L226 536Q219 490 212 453L189 326Q161 168 127 37L125 31L123 25Q123 13 137 2T164 -10Q180 -10 195 25Q208 59 219
111Q237 206 242 258L246 299Q247 300 247 302T248 306Q249 311 252 313T262 315Q281 315 333 310ZM264 441T311 674Q316 694 422 1221Q485 565 500 350H479Q422 350 343 358T264 376Q264 441 311 674Z" />
<glyph unicode="b" glyph-name="b" horiz-adv-x="660" d="M173 2T183 -10T212 -23Q304 -23 369 27Q491 121 491 317V346L489 399Q486 452 481 507Q474 558 450 614T388 698Q392 706 417 742Q443 782 448 795H446Q479 885 479 1038Q479 1131 466 1191T415 1309L417
1315Q417 1327 380 1342T298 1370T233 1382Q209 1382 200 1369T190 1329V1317L198 1307Q200 1253 200 1188Q200 1107 194 943Q188 780 188 698L190 608L192 516Q192 438 182 301Q171 149 171 84Q171 46 173 20Q173 2 183 -10ZM251 832T252 864Q253 895 253 934Q253
955 252 974Q251 993 251 1044Q251 1313 296 1313Q323 1313 344 1296T377 1250Q394 1204 399 1143L403 1139L406 1100Q409 1052 409 1012Q409 739 274 739H259L255 753L251 766V791Q251 832 252 864ZM247 283T247 342V389Q247 522 257 668Q300 668 334 642Q366
616 384 580T413 490Q423 443 425 408T428 325V303V286L427 279Q427 227 402 175T335 90T243 57L242 97Q241 118 241 150Q241 226 253 248Q247 283 247 342Z" />
<glyph unicode="c" glyph-name="c" horiz-adv-x="720" d="M488 -23T514 -4T540 31Q540 53 509 53Q488 35 458 35Q409 35 372 51T312 100Q288 134 273 168T252 248Q246 294 244 330T241 414Q241 497 245 620Q249 743 249 827L253 838Q253 879 256 927Q259 980 269
1050T295 1170Q313 1228 344 1265T415 1303H501L528 1333Q528 1338 526 1346Q525 1349 520 1354Q519 1355 511 1359Q509 1359 500 1362Q497 1362 495 1363L489 1364H407Q388 1354 356 1342Q319 1327 300 1313Q263 1285 237 1220Q211 1157 199 1094T180 937Q174
851 173 806T171 680V446Q171 370 175 323Q184 169 226 89Q251 43 279 20T346 -15Q380 -25 394 -33H462Q488 -23 514 -4Z" />
<glyph unicode="d" glyph-name="d" horiz-adv-x="800" d="M192 -10T210 -10H352Q415 24 461 69T531 160Q552 200 567 259T587 371Q604 553 616 618Q605 640 605 680Q605 691 606 700V717Q606 744 607 765Q608 786 608 813Q608 969 575 1057Q567 1077 540 1115Q510
1156 509 1167L511 1171Q488 1188 442 1233Q390 1281 360 1296Q348 1303 312 1309Q278 1314 264 1321Q261 1322 243 1340Q226 1356 212 1356Q197 1356 180 1341T163 1311Q163 1284 180 1270Q188 1086 188 885L186 643L184 401Q184 215 192 45Q192 -10 210 -10ZM270
119Q247 450 247 883Q247 1262 270 1262Q328 1262 379 1222T464 1118Q495 1056 513 992T534 872L544 666Q544 647 545 631Q546 614 546 592Q546 230 401 100L385 87Q381 84 378 82T371 76Q357 66 345 49H282L276 76L268 80L270 119Z" />
<glyph unicode="e" glyph-name="e" horiz-adv-x="640" d="M186 54T185 42Q184 30 184 16Q187 -27 225 -27H394Q483 -27 483 10Q483 37 423 37L384 35L347 33Q298 33 280 48T259 111Q253 194 253 274L255 420L257 565Q257 680 253 727V733L263 743H272L339 733Q352
717 386 717Q405 717 416 732T427 770Q426 807 347 807Q342 807 312 805L278 803Q249 803 249 860Q249 924 253 1019Q257 1114 257 1178Q257 1228 255 1266L265 1278Q319 1276 431 1239Q469 1261 469 1280Q469 1299 431 1311Q393 1323 342 1329Q295 1334 282 1337Q272
1350 249 1350Q217 1350 204 1336T190 1292Q190 1242 194 1170Q198 1097 198 1047Q198 930 191 738Q184 546 184 430Q184 395 189 295Q194 195 194 160Q194 117 179 76L186 68Q186 54 185 42Z" />
<glyph unicode="f" glyph-name="f" horiz-adv-x="620" d="M253 -29T253 53Q253 103 247 200Q241 298 241 346V578Q241 678 278 678Q290 678 312 672Q335 666 346 666Q364 666 379 677T395 705Q395 737 292 737H281Q258 737 258 743V815Q258 893 268 1030Q278 1166
278 1247Q284 1261 286 1269Q289 1280 291 1283T300 1288Q310 1290 325 1290Q400 1290 438 1270Q511 1270 511 1305Q511 1323 469 1336T368 1357T266 1364Q244 1364 227 1354T210 1325Q210 1198 196 913Q182 627 182 500Q182 193 163 2L204 -29Q253 -29 253 53Z"
/>
<glyph unicode="g" glyph-name="g" horiz-adv-x="820" d="M155 502T180 302Q197 159 219 95T286 9T425 -14Q528 -14 634 92Q634 156 630 249Q626 342 626 406Q626 432 638 483Q649 536 649 559Q649 573 625 582Q603 590 564 595Q503 600 460 600Q411 600 411 565Q411
541 460 541Q474 541 483 542L499 543Q550 543 571 522V409Q571 332 566 253Q563 210 555 178T533 110Q520 79 498 62T448 45Q377 45 336 80Q299 112 285 162T267 284Q261 370 256 413T237 479Q231 529 231 629Q231 703 234 787Q236 846 240 894T254 1012Q262 1072
275 1119T310 1213Q328 1255 355 1277T417 1300L437 1298L456 1296Q471 1296 484 1305T497 1327Q497 1356 434 1356Q422 1356 402 1354Q309 1344 263 1288T202 1154T178 939L176 911L165 783Q155 684 155 623Q155 502 180 302Z" />
<glyph unicode="h" glyph-name="h" horiz-adv-x="740" d="M555 -2T556 -23L569 0Q556 169 556 406Q556 576 543 884Q530 1190 530 1362L512 1369Q494 1374 493 1374Q480 1374 469 1365T458 1343Q458 1255 472 1061Q485 879 485 778Q485 741 468 726T411 711H404Q247
711 247 735Q247 832 251 983Q255 1132 255 1235Q255 1354 214 1354Q200 1354 190 1342T179 1315Q179 1246 187 1076Q194 926 194 836Q194 719 184 700Q190 687 190 500L188 313L186 125Q186 2 231 2Q248 2 256 17T265 55Q265 112 259 226Q253 340 253 397L247
406Q247 450 250 535Q253 621 253 664L274 672Q298 672 339 662Q385 651 405 651Q428 651 446 657L478 649Q485 608 485 573L478 555L483 547Q483 431 493 -2Q555 -2 556 -23ZM431 735L427 739V735H431Z" />
<glyph unicode="i" glyph-name="i" horiz-adv-x="700" d="M308 0T356 0Q369 0 391 12Q415 23 429 23Q441 23 463 20Q483 16 497 16Q516 16 529 27T542 57Q542 86 481 86Q464 86 451 85Q438 84 421 84Q376 84 376 104L378 109Q372 118 372 166Q372 188 373 203L374
229Q374 314 367 454Q360 593 360 678Q360 759 363 922Q366 1084 366 1165Q366 1256 360 1274L370 1280Q413 1280 429 1268L476 1272Q481 1284 481 1288Q481 1310 445 1323Q404 1338 351 1342Q263 1350 196 1350Q183 1350 165 1342T147 1325Q147 1290 186 1290L211
1292L235 1294Q277 1294 296 1288Q306 1195 306 1051Q306 990 301 813Q296 635 296 573Q296 507 304 349Q311 210 311 125Q311 118 308 101Q304 86 304 82L296 74H237L225 63Q216 57 213 52T210 39Q222 18 266 18Q275 18 283 19Q290 20 300 20Q308 0 356 0Z" />
<glyph unicode="j" glyph-name="j" horiz-adv-x="620" d="M103 -201L104 -205L151 -252H165Q214 -252 256 -218T324 -130Q348 -79 361 -28T374 66Q374 125 386 152V377Q386 531 376 801Q366 1071 366 1227Q366 1268 384 1268Q406 1268 440 1258Q476 1247 495 1247Q508
1247 518 1254T528 1274Q528 1291 462 1311T311 1345T186 1360Q176 1360 160 1352T143 1335Q143 1319 173 1308Q205 1296 243 1292Q284 1286 292 1282L304 1260Q304 1062 314 716Q323 353 323 172Q323 99 306 25T257 -84Q251 -91 210 -118L164 -148L136 -167Q102
-189 102 -197L103 -201Z" />
<glyph unicode="k" glyph-name="k" horiz-adv-x="760" d="M350 746T372 637T431 396T511 147Q578 -37 626 -37Q641 -37 651 -29T661 -6Q661 13 652 33T622 81Q606 101 597 117Q565 178 520 319T441 600T407 799L409 864L411 930Q504 1124 630 1309Q627 1343 575
1343Q561 1343 422 1069Q282 794 262 786Q262 874 266 1003Q270 1132 270 1219Q270 1284 288 1317Q288 1332 276 1344T249 1356Q222 1356 210 1333V1049Q210 977 200 851Q190 724 190 653Q190 610 181 524Q171 443 171 395V10Q171 -16 180 -24T216 -33Q229 -33
239 -26T249 -8Q249 14 242 50Q235 86 235 109V371Q235 390 240 445Q245 500 245 518Q245 555 256 599Q266 638 274 659T311 737L343 803L348 795Q350 746 372 637Z" />
<glyph unicode="l" glyph-name="l" horiz-adv-x="640" d="M385 -18T455 -20Q488 -17 488 6Q488 18 478 29T457 41H451L364 44Q288 47 258 47Q249 47 248 57Q246 69 246 98V111L252 307Q246 319 246 336Q246 341 247 344Q248 347 248 352L246 350L252 367L250 454L248
541Q248 564 251 625L254 713Q254 837 253 936Q252 1035 252 1159Q252 1204 253 1240Q254 1276 254 1321Q254 1320 249 1322Q230 1329 220 1329Q205 1329 205 1315L200 1253Q195 1188 195 1180Q195 1016 189 647Q183 277 183 88Q183 37 179 20Q184 -27 213 -27Q228
-27 251 -23Q277 -20 289 -20L285 -18Q385 -18 455 -20Z" />
<glyph unicode="m" glyph-name="m" horiz-adv-x="1160" d="M973 -106T986 -84T999 -39Q999 -32 996 -20L991 -4Q975 66 975 193L977 301L979 408Q952 453 952 1311Q952 1323 934 1335T901 1348Q867 1348 852 1306Q845 1286 840 1269T832 1227Q827 1195 827 1196Q815
1131 759 914T646 503T575 287Q574 333 566 385T539 508Q521 582 516 608L489 662Q483 696 471 741T445 838Q429 892 428 897L422 918Q407 972 363 1071Q315 1178 305 1235Q305 1234 303 1260Q302 1290 294 1321Q290 1336 280 1344T254 1352Q199 1352 199 1321Q199
1314 205 1302Q211 1289 211 1282Q211 1073 179 636Q147 199 147 -10Q147 -17 161 -28T182 -39Q216 -39 225 -12Q223 24 223 70Q223 222 229 392T250 812Q263 1036 268 1149Q291 1127 351 913T463 468T516 182Q516 147 530 131T577 115Q591 115 602 127T619 161Q629
195 635 244Q636 259 639 274Q845 1106 885 1137Q893 1110 893 1040Q893 989 889 913Q885 837 885 786Q885 759 893 697Q898 660 901 621Q913 455 913 159V25Q913 -106 954 -106Q973 -106 986 -84ZM880 1147L883 1149H885V1145L880 1147Z" />
<glyph unicode="n" glyph-name="n" horiz-adv-x="1000" d="M554 387T582 311Q636 166 650 76L648 70Q653 62 657 41Q662 17 670 5T693 -8Q697 -8 715 -3L716 -4V-3Q740 4 751 6Q764 32 779 256T805 748T816 1128L827 1145V1282Q827 1304 814 1322T782 1341Q753
1341 753 1298L755 1272L757 1247Q757 583 710 131L706 125Q677 175 656 239T614 394Q594 477 581 520Q544 634 435 887Q323 1147 288 1294L286 1305L283 1317Q279 1328 274 1335Q265 1344 255 1348L235 1343L229 1350Q192 1319 192 1218V1192Q192 1133 186 1011Q179
898 179 829Q179 717 186 535Q192 339 192 240Q192 212 188 173Q184 133 184 106Q184 -4 227 -4Q244 -4 254 8T265 37Q265 66 257 80V264Q243 301 243 641H249L245 707Q241 751 241 784L243 833L245 883L243 963L241 1044Q241 1127 257 1188Q305 1142 489 571Q537
426 544 418Q554 387 582 311Z" />
<glyph unicode="o" glyph-name="o" horiz-adv-x="820" d="M457 -39T492 -14Q527 9 550 46T592 140Q608 192 617 242T633 359Q638 415 639 459T640 547L638 669L636 791L640 801Q640 931 619 1050T554 1243Q516 1315 476 1322Q472 1323 431 1330T347 1352Q329 1357
319 1357Q171 1357 171 786V715Q171 -39 411 -39Q457 -39 492 -14ZM237 636L235 717Q235 741 240 813Q245 885 245 909Q252 941 254 986T257 1069T258 1116Q259 1160 267 1204Q284 1294 378 1294Q425 1294 464 1264T527 1183T550 1073L546 1063L554 1047Q554 966
566 805Q577 637 577 563Q577 472 569 367Q560 246 522 134Q504 80 473 50T403 20Q362 20 331 69Q302 115 285 178T256 333Q239 465 239 555L237 636Z" />
<glyph unicode="p" glyph-name="p" horiz-adv-x="640" d="M266 -41T266 -4Q266 53 258 195Q249 329 249 395V639Q297 654 334 672Q373 691 397 709T438 753Q457 783 466 806T479 867Q483 905 484 941T485 1026Q485 1222 434 1268Q405 1292 364 1313T300 1335H210Q199
1335 180 1284Q192 1253 192 887Q192 733 171 698Q171 680 184 651Q184 574 180 461Q175 319 175 270Q175 101 198 -25L227 -41Q266 -41 266 -4ZM257 960T252 1070Q247 1178 247 1217Q247 1247 256 1259T292 1272Q326 1272 350 1260Q374 1248 387 1231T408 1186Q415
1160 417 1138T419 1079V1024Q416 938 407 887Q390 801 362 763Q344 739 319 724T262 709L249 729Q249 768 253 825Q257 882 257 922Q257 960 252 1070Z" />
<glyph unicode="q" glyph-name="q" horiz-adv-x="840" d="M484 -417T525 -425T605 -434Q632 -434 632 -408Q632 -392 621 -385T591 -378Q544 -380 529 -365L514 -294Q501 -239 497 -216Q490 -185 485 -144T480 -70Q480 -62 486 -57T505 -46L519 -39Q556 -16 586
83T633 318Q647 442 655 549T663 721V817Q663 876 662 916T654 1010Q648 1065 636 1110T602 1205Q562 1297 470 1341Q455 1348 427 1355Q394 1363 382 1368Q179 1356 179 716V707Q179 462 202 227Q209 145 225 93T270 8Q297 -24 331 -40T423 -68L439 -148Q440 -155
446 -188L455 -237Q461 -270 465 -317T470 -401Q484 -417 525 -425ZM239 670T236 683Q232 695 232 702Q232 770 240 905Q248 1044 280 1177Q295 1241 319 1278T376 1315Q601 1315 601 872V514Q601 458 585 346Q567 214 532 106T458 -2Q448 -2 428 -8Q408 -14 398
-14Q239 -14 239 575V664Q239 670 236 683Z" />
<glyph unicode="r" glyph-name="r" horiz-adv-x="660" d="M542 -35T542 -6Q542 12 526 43Q515 64 512 70T509 78Q503 94 425 414T347 741Q347 744 374 793Q405 852 429 916T454 1018V1167Q454 1262 391 1314T224 1366Q205 1366 194 1352Q184 1339 182 1326T179
1288Q179 885 212 -2L227 -18H257L272 16Q262 50 255 231Q237 569 237 680Q237 709 282 709H290Q312 709 337 606Q364 496 384 375Q408 231 436 117T489 -25L519 -35Q542 -35 542 -6ZM245 865T241 1012Q237 1159 237 1260Q237 1278 243 1295T261 1313Q306 1313
335 1295T378 1241Q390 1207 394 1176T399 1098Q399 1062 391 1009T366 899Q350 839 319 800T249 760L245 764Q245 865 241 1012Z" />
<glyph unicode="s" glyph-name="s" horiz-adv-x="660" d="M182 6T201 -7T245 -25L255 -20Q305 -20 345 4Q383 26 407 61T450 148Q478 229 478 332Q478 395 471 444Q463 498 453 535T423 616Q404 657 385 691T338 772L322 799L286 862L271 899L261 935Q250 967
249 976L242 1010Q232 1050 232 1090Q232 1153 257 1228Q270 1268 294 1292T349 1317Q358 1317 371 1311Q385 1305 392 1305Q419 1305 419 1321Q419 1342 393 1360T341 1378Q301 1378 268 1349T216 1271Q198 1226 189 1181T179 1098Q179 1016 205 935Q223 876 247
828T314 702L338 659Q377 588 401 510T425 356Q425 258 395 156Q378 98 344 63T263 27Q249 27 225 34Q205 39 189 41L179 25Q182 6 201 -7ZM408 1313T408 1311H406V1313Q408 1313 408 1311Z" />
<glyph unicode="t" glyph-name="t" horiz-adv-x="700" d="M383 12T401 24T419 51Q419 252 395 652Q371 1053 371 1253Q371 1282 373 1292Q375 1298 381 1298Q408 1298 469 1294Q530 1290 556 1290Q575 1290 588 1297T601 1317Q601 1343 564 1343L521 1342L477
1341Q423 1341 299 1351Q168 1360 121 1360Q91 1360 82 1337Q82 1313 124 1305Q163 1298 294 1298Q295 1161 316 808Q336 465 336 299Q344 277 344 250L342 214L340 178L342 104L344 29L367 12Q383 12 401 24Z" />
<glyph unicode="u" glyph-name="u" horiz-adv-x="800" d="M442 -31T479 3T538 100Q580 224 587 401Q593 538 596 739Q598 841 601 879Q601 891 600 900Q599 909 599 920Q599 939 604 1001Q609 1063 609 1083Q609 1090 607 1096Q620 1145 620 1305Q620 1361 615
1376Q609 1389 585 1389Q550 1389 550 1366L552 1348L554 1329Q554 997 540 496L537 454Q511 25 417 25Q263 25 263 258Q263 323 252 475Q241 627 241 692L235 1235Q235 1342 188 1348L175 1319Q182 1265 185 1121T193 703L194 637Q197 419 214 248T259 41Q283
12 321 -9T392 -31Q442 -31 479 3Z" />
<glyph unicode="v" glyph-name="v" horiz-adv-x="800" d="M407 -25T423 -7T448 45Q460 97 465 173Q466 194 469 219Q474 243 495 327Q513 395 519 436T537 600Q537 608 539 624Q552 760 563 831T605 1036L641 1198L653 1252Q672 1333 672 1374Q672 1380 665 1386T649
1395L622 1384Q613 1331 559 1063Q506 801 477 553Q448 284 407 147L393 247Q380 333 378 352L373 386Q368 416 361 463T347 553Q331 649 331 649Q321 718 313 754Q306 785 295 851L274 956Q248 1076 227 1157Q221 1188 220 1193Q206 1265 195 1303Q186 1332 175
1349T149 1366Q141 1366 132 1357T123 1341Q123 1332 135 1288L161 1194L178 1130Q260 769 310 462T360 -6L383 -25Q407 -25 423 -7ZM403 137L405 141V133L403 137Z" />
<glyph unicode="w" glyph-name="w" horiz-adv-x="920" d="M476 1032T495 880Q511 752 530 533Q543 363 547 324T564 218Q565 213 572 177Q589 81 594 23L595 5Q595 -18 601 -42Q604 -54 611 -61T629 -68Q647 -68 660 -40Q673 -12 677 31Q684 100 684 156Q684 177
695 223Q706 267 707 279Q715 344 731 592T748 913L754 922L748 961Q748 973 754 985L748 999L760 1040Q756 1045 756 1063Q756 1174 774 1255L770 1268Q780 1302 780 1356Q780 1371 775 1375T752 1380Q711 1380 711 1348Q719 1334 719 1313Q719 1257 706 1154Q692
1044 692 995Q692 796 675 526T633 186Q620 220 612 264Q604 304 602 332T597 422L592 498Q565 884 483 1159Q488 1171 488 1176Q488 1188 478 1196T453 1204L416 1188Q416 1165 402 1061Q394 1006 389 864Q383 730 375 648L372 619Q363 528 351 435Q342 374 338
335L307 121H305Q299 132 294 176Q290 214 283 231Q278 422 237 765Q193 1114 189 1171V1198Q187 1250 183 1281Q179 1302 170 1314T148 1327Q124 1327 115 1311Q134 1259 143 1202Q151 1149 155 1107T161 1001L163 967Q167 876 171 829T191 671L199 616Q211 536
215 495T227 310Q238 141 254 49Q271 -43 301 -43Q315 -43 325 -18Q337 10 344 47Q360 132 366 198Q371 242 371 242Q384 333 396 411Q417 550 425 634T434 803Q434 856 444 942L455 1053Q476 1032 495 880ZM635 178T635 176H633V178Q635 178 635 176Z" />
<glyph unicode="x" glyph-name="x" horiz-adv-x="640" d="M178 -6T216 -6Q232 -6 239 9T247 45Q247 63 243 70Q257 112 280 294Q302 473 325 508Q352 368 402 165L440 10Q452 4 466 4Q479 4 488 12T497 33Q497 50 482 75Q473 90 472 92Q456 132 403 372T350 645Q350
734 385 900Q419 1060 425 1124L427 1126Q427 1133 426 1139Q425 1144 425 1151Q425 1282 458 1331L440 1356L424 1353L407 1350Q393 1345 380 1180Q376 1114 356 978T323 817Q306 874 281 1008Q257 1137 229 1212L226 1259Q222 1287 211 1311T184 1335Q173 1335
160 1329T147 1315Q147 1308 156 1291Q165 1275 165 1262Q165 1258 164 1255L163 1247Q176 1232 207 1103T265 834T292 659Q292 556 235 337Q178 118 178 18Q178 -6 216 -6Z" />
<glyph unicode="y" glyph-name="y" horiz-adv-x="720" d="M361 -15T371 -23T388 -31Q431 -31 431 108V117Q431 208 430 280Q429 352 429 442Q429 470 421 536Q413 602 413 629Q413 641 419 660Q425 678 425 688Q425 699 415 723Q415 810 439 910Q450 960 461 1001T489
1097L495 1119Q552 1308 552 1339Q552 1348 544 1354T525 1360Q501 1360 472 1246Q445 1136 420 1004Q394 875 380 858L384 848L376 811Q360 816 322 943L307 991Q270 1114 243 1199Q203 1326 183 1329L155 1307Q157 1281 172 1230Q185 1183 211 1108T246 1011L268
950Q293 880 318 813T355 717L349 692L362 666L371 521Q378 417 378 350Q378 43 358 -8Q361 -15 371 -23Z" />
<glyph unicode="z" glyph-name="z" horiz-adv-x="700" d="M163 -4T194 -4Q199 -4 223 7Q245 18 267 18Q287 18 328 15Q368 12 388 12Q435 12 435 39Q435 66 376 66Q362 66 333 63Q308 59 290 59Q248 59 231 63Q232 261 361 688Q413 863 423 915Q423 943 473 1099Q523
1255 523 1323Q523 1337 515 1345Q507 1353 499 1354T472 1356Q388 1356 319 1349Q245 1341 245 1323Q245 1311 253 1301T274 1290Q310 1290 370 1297Q434 1303 466 1303Q466 1220 441 1112T367 848Q325 718 311 663T272 486Q249 373 233 317L202 203L184 133Q163
52 163 27Q163 -4 194 -4Z" />
<glyph unicode="{" glyph-name="braceleft" horiz-adv-x="560" d="M214 362T211 296Q208 229 208 188Q208 75 243 12T339 -51Q417 -51 417 -29Q417 -19 412 -14T395 -5Q378 -2 343 -2Q270 -2 270 197V420Q270 458 273 528Q276 599 276 631Q276 683 265 712T222
758Q253 775 264 805T276 887Q276 912 273 964Q270 1017 270 1044V1296Q270 1495 343 1495Q358 1495 369 1491Q380 1487 384 1487Q397 1487 400 1488Q406 1488 411 1493T417 1509Q417 1521 390 1532T339 1544Q279 1544 244 1481T208 1305Q208 1206 215 1060Q222
913 222 872Q222 829 209 803T171 776Q155 773 155 760Q155 742 163 739Q222 734 222 645Q222 611 218 542Q214 473 214 403Q214 362 211 296Z" />
<glyph unicode="|" glyph-name="bar" horiz-adv-x="520" d="M267 144T267 371Q267 554 287 952Q306 1331 306 1530Q306 1552 293 1552Q280 1552 273 1548Q265 1544 261 1539T255 1522Q252 1508 252 1487Q252 1304 236 977Q220 650 220 471Q220 380 208 200Q195
25 195 -72Q195 -82 199 -85T220 -88Q254 -88 254 -68L261 2V51Q267 144 267 371Z" />
<glyph unicode="}" glyph-name="braceright" horiz-adv-x="640" d="M430 1131T433 1198Q436 1264 436 1305Q436 1418 401 1481T305 1544Q278 1544 253 1536T227 1516Q227 1495 270 1495H301Q374 1495 374 1296V1073Q374 1037 371 966Q368 896 368 862Q368 808
379 780T421 735Q390 718 379 689T368 606Q368 582 371 529Q374 477 374 449V197Q374 -2 301 -2Q283 -2 275 -1L260 0Q227 0 227 -23Q227 -34 252 -42T305 -51Q365 -51 400 12T436 188Q436 286 429 433Q421 601 421 621Q421 663 434 690T473 717Q489 720 489 733Q489
751 481 754Q421 759 421 848Q421 863 426 951Q430 1022 430 1090Q430 1131 433 1198Z" />
<glyph unicode="~" glyph-name="asciitilde" horiz-adv-x="800" d="M179 1025T198 1025Q220 1025 240 1051Q240 1058 235 1073Q230 1088 230 1094Q230 1112 251 1131T296 1151Q309 1151 320 1143Q353 1104 372 1085Q394 1062 431 1042T502 1022Q530 1022 555 1037T595
1077T611 1130Q611 1159 599 1179T564 1200Q549 1200 543 1188Q545 1180 550 1170Q555 1155 555 1149Q555 1131 550 1119T536 1101Q513 1087 508 1073L494 1077Q486 1075 478 1075Q461 1075 439 1093T396 1138Q375 1164 351 1182T304 1200Q245 1200 212 1160T179
1055Q179 1025 198 1025Z" />
<glyph unicode="&#xa0;" glyph-name="uni00A0" horiz-adv-x="0" />
<glyph unicode="&#xa1;" glyph-name="exclamdown" horiz-adv-x="560" d="M227 1463T248 1441T289 1419Q318 1419 334 1440T350 1495Q350 1545 299 1548Q296 1539 286 1538Q277 1537 260 1526Q244 1516 227 1483Q227 1463 248 1441ZM284 642T287 525L289 350Q289
287 282 188Q274 74 274 29Q274 9 295 -9T338 -27Q364 -27 364 0Q364 165 343 490Q321 808 321 979L322 1021Q323 1042 323 1069Q323 1152 307 1190L313 1200H286L285 1196L284 1192V700Q284 642 287 525Z" />
<glyph unicode="&#xa2;" glyph-name="cent" horiz-adv-x="800" d="M423 20T429 16T443 11Q456 11 456 27Q456 60 453 124Q450 189 450 221Q450 250 451 273Q452 296 452 326H470Q500 326 545 346T624 397T658 453Q658 489 636 489Q593 424 556 397T462 369Q445
383 445 401L446 415Q447 422 447 430Q447 561 417 814Q386 1063 386 1198L388 1194H425Q432 1185 458 1177Q479 1171 485 1166T498 1150T510 1133Q526 1108 544 1108Q550 1108 556 1118T562 1135Q562 1157 538 1176Q519 1191 498 1199T455 1215T423 1225L380 1239Q370
1310 370 1374Q370 1403 372 1427L359 1436Q333 1436 333 1370Q333 1353 338 1306Q343 1259 343 1243Q179 1154 179 842Q179 632 206 512Q211 480 227 455Q243 429 260 413T309 379Q348 356 394 338Q393 338 415 330V203Q415 124 419 23L423 25Q423 20 429 16ZM244
990T256 1035T290 1119T335 1161Q355 1085 368 870Q400 545 400 401L392 397Q230 397 230 781V788Q230 833 247 977Q244 990 256 1035Z" />
<glyph unicode="&#xa3;" glyph-name="sterling" horiz-adv-x="860" d="M123 33T154 27Q217 65 254 77T346 90L381 86Q421 82 464 72T526 51L533 55Q549 55 580 52Q612 49 627 49Q723 49 723 94L694 115Q652 98 604 98Q556 98 456 121Q359 143 307 143Q311 159
331 213Q349 266 356 300T363 375Q363 489 329 641T248 899Q343 918 467 918Q492 918 492 950Q492 962 484 969T463 977Q424 977 356 964Q281 950 248 950Q236 950 226 1065T215 1268Q215 1348 241 1447Q253 1497 277 1529T328 1562Q355 1562 378 1542T414 1490T428
1425L438 1405Q445 1388 452 1383T475 1378L494 1399Q494 1431 479 1477Q462 1528 424 1567T341 1606Q307 1606 277 1592Q247 1577 229 1557T198 1504Q185 1468 179 1439T169 1369Q166 1330 165 1300T164 1235Q164 1186 176 1090Q188 993 188 944Q162 944 162 915Q162
903 170 895T191 887Q194 887 196 888Q198 889 201 889Q210 848 245 731Q280 617 296 535T313 379Q313 305 295 233T242 135Q233 129 201 115Q123 80 123 49Q123 33 154 27Z" />
<glyph unicode="&#xa4;" glyph-name="currency" horiz-adv-x="940" d="M711 219T766 219Q793 219 793 248Q793 262 774 284Q748 315 732 342T715 397Q715 429 733 490Q743 524 744 530Q783 686 783 774Q783 855 727 1032Q693 1133 693 1143Q693 1166 739 1224Q786
1283 787 1298L758 1329Q737 1329 715 1302T663 1227Q641 1191 629 1190Q571 1230 521 1247T408 1264Q400 1264 372 1238L315 1179Q285 1147 277 1141Q265 1151 248 1177Q228 1206 210 1220T170 1235Q146 1235 146 1212Q146 1199 195 1149Q244 1097 244 1075Q216
1046 198 940Q170 777 170 592Q170 539 171 522Q172 494 181 457T205 395Q199 376 157 329Q115 283 115 279Q115 252 124 240T156 227Q175 227 190 247T221 301Q231 326 244 326Q281 284 329 258T424 231Q575 231 668 334Q672 329 711 258Q711 219 766 219ZM256
440T245 480T234 586Q234 634 240 659Q236 680 236 696Q236 731 245 804T267 943T291 1024Q296 1032 309 1032Q323 1031 330 1039T338 1075L320 1094Q322 1111 347 1137T403 1184T453 1204Q494 1204 536 1187T598 1141Q598 1122 609 1108T637 1094Q657 1081 674
1025T701 898T711 780Q711 694 694 583Q675 469 620 378Q593 333 552 308T461 283Q385 283 336 316T287 412Q256 440 245 480Z" />
<glyph unicode="&#xa5;" glyph-name="yen" horiz-adv-x="920" d="M393 16T434 16Q481 16 481 90Q481 104 480 116Q479 128 479 143Q479 260 495 471Q510 689 510 797L518 801H745Q754 801 767 797L782 793L778 791H786Q798 791 810 800T823 821Q823 847 813 856T780
866Q770 866 761 865Q752 864 741 864H514L516 920L518 975H682Q825 975 827 1001Q802 1044 790 1044Q762 1044 680 1039Q598 1034 569 1034Q543 1034 518 1047Q520 1078 551 1142Q583 1208 583 1245Q612 1320 664 1503Q716 1684 757 1780Q757 1793 747 1801T723
1810Q703 1810 693 1797T664 1737Q646 1691 597 1539Q594 1529 592 1521T587 1506Q538 1348 528 1311Q499 1214 477 1171Q470 1172 458 1187Q448 1199 429 1229Q401 1276 376 1323Q373 1329 370 1334T365 1344Q353 1365 333 1395Q275 1480 274 1497Q272 1501 266
1510T246 1540Q223 1576 201 1609Q139 1702 105 1734Q83 1755 69 1755L43 1747V1716Q87 1680 163 1555T346 1235Q423 1096 446 1083V1044Q434 1030 336 1030Q290 1030 255 1031Q220 1032 176 1032L162 1010Q162 973 276 973Q306 973 350 977Q394 981 424 981Q446
981 446 954Q446 888 442 860Q303 852 149 852L141 825Q158 796 176 786Q341 797 432 797Q436 786 436 774Q436 706 428 541Q420 375 420 307Q420 274 410 163T393 41Q393 16 434 16Z" />
<glyph unicode="&#xa6;" glyph-name="brokenbar" horiz-adv-x="500" d="M285 1057T285 1214L291 1356Q296 1504 296 1530Q296 1552 283 1552Q270 1552 263 1548Q255 1544 251 1539T245 1522Q242 1508 242 1487L240 1410L238 1315Q238 1255 233 1095Q228 933 228
874Q228 864 232 861T253 858Q263 858 268 862T273 879L279 948V997Q285 1057 285 1214ZM261 140T261 268L266 419Q271 576 271 604Q271 618 270 621Q269 625 267 626T259 627Q229 627 223 604Q218 584 218 561L216 475L214 369Q214 314 209 169Q203 39 203 -31Q203
-41 207 -44T228 -47Q236 -47 238 -46Q241 -46 244 -41T248 -27L255 43V92Q261 140 261 268Z" />
<glyph unicode="&#xa7;" glyph-name="section" horiz-adv-x="660" d="M486 592T468 643T421 731Q372 797 351 827Q295 905 268 962T240 1090Q240 1153 265 1228Q278 1268 302 1292T357 1317Q365 1317 379 1311Q392 1305 400 1305Q427 1305 427 1321Q427 1342 401
1360T349 1378Q309 1378 276 1349T224 1271Q206 1226 197 1181T187 1098Q187 1028 216 961Q171 891 171 784Q171 724 189 669T235 572L306 466Q362 381 389 321T416 190Q416 139 392 77Q379 45 355 25T300 4Q293 4 279 10Q266 16 257 16Q230 16 230 0Q230 -21 256
-39T308 -57Q348 -57 381 -28T433 50Q451 95 460 140T470 223Q470 288 439 354Q486 431 486 537Q486 592 468 643ZM433 454T406 391Q385 424 348 476Q318 516 286 565Q261 604 243 657T224 760Q224 837 249 897Q272 860 307 810Q352 745 370 719Q396 679 414 625T433
520Q433 454 406 391Z" />
<glyph unicode="&#xa8;" glyph-name="dieresis" horiz-adv-x="920" d="M639 1118T652 1104T680 1089Q734 1089 734 1136Q734 1152 720 1168T689 1185Q670 1185 655 1169T639 1134Q639 1118 652 1104ZM179 1113T190 1097T218 1081Q238 1081 253 1090T269 1116Q269
1144 259 1163T228 1183Q210 1183 195 1167T179 1132Q179 1113 190 1097Z" />
<glyph unicode="&#xa9;" glyph-name="copyright" horiz-adv-x="1240" d="M115 854T126 694L128 662Q134 541 137 503Q150 335 188 229T319 63T582 2Q1082 2 1082 756Q1082 889 1059 1056Q1035 1217 973 1396Q914 1559 805 1673Q753 1728 683 1758T533 1788Q456
1788 395 1754Q334 1721 292 1667T215 1531Q183 1457 165 1381T134 1211Q123 1130 119 1064T115 924Q115 854 126 694ZM187 998T190 1059Q193 1124 203 1205T230 1354Q247 1429 276 1500T341 1621Q380 1674 436 1705T558 1737Q575 1737 591 1733Q595 1732 603 1729T621
1721Q643 1708 649 1704Q656 1699 662 1696Q668 1692 676 1686T689 1677Q911 1524 975 1124Q976 1115 996 1027Q1014 939 1014 893V588Q1014 572 1003 533Q992 494 992 475Q992 471 994 465Q970 366 938 296T857 171Q755 57 556 57Q488 57 437 76Q382 95 348 121T288
193Q260 243 247 281T225 383Q216 445 213 482T205 594L201 655L198 703Q187 851 187 940Q187 998 190 1059ZM465 302T488 290Q518 274 531 269Q548 261 573 256T623 250Q658 250 707 268T791 315T826 373Q826 418 795 418Q786 418 773 405T736 364Q717 341 684
325T613 309Q581 309 552 324Q525 338 513 348T472 391V397Q442 436 425 514Q410 584 406 638T402 786V823Q402 880 410 909L406 918Q408 930 413 997L422 1103Q427 1155 439 1214T469 1312Q488 1356 521 1383T597 1411Q632 1411 661 1387T706 1329Q722 1294 741
1271T779 1247Q791 1247 798 1255T805 1276Q805 1303 748 1380Q712 1429 688 1449T645 1473T588 1477Q546 1477 511 1459Q476 1441 451 1414T406 1342Q385 1297 373 1256T352 1158Q343 1103 339 1061T332 960Q328 884 328 801V793Q328 708 331 659T344 544Q364
414 445 311Q465 302 488 290Z" />
<glyph unicode="&#xaa;" glyph-name="ordfeminine" horiz-adv-x="740" d="M594 503T594 540Q594 570 577 666L443 1345Q443 1358 432 1367T406 1376Q394 1364 369 1364L341 1366Q331 1351 316 1211Q172 609 131 539Q131 532 139 522T158 506T172 504Q186 518 222
652L274 827Q324 821 338 815L392 817Q448 817 484 807Q485 795 493 755L497 731Q508 669 512 627T517 545Q517 514 529 504T578 494Q594 503 594 540ZM330 1032T386 1282L484 862H463Q449 868 364 876L290 892Q330 1032 386 1282ZM453 428T321 423T189 410Q189
396 203 386T233 375Q330 375 457 380T585 393Q585 407 570 417T539 428Q453 428 321 423Z" />
<glyph unicode="&#xab;" glyph-name="guillemotleft" horiz-adv-x="800" d="M515 -35T530 -28T545 -12Q545 2 457 156Q347 348 268 499T186 692Q198 710 254 868Q329 1073 391 1235L410 1285Q418 1308 423 1321T432 1341Q463 1412 481 1438Q478 1466 440 1466Q423
1466 383 1360V1358Q371 1324 305 1164Q253 1037 181 855Q123 711 123 698Q123 685 159 605Q191 535 248 422Q340 239 399 127L412 101Q425 74 434 58Q463 3 484 -21Q496 -35 504 -35Q515 -35 530 -28ZM661 2L674 0Q682 0 691 13T703 39L684 53Q649 111 509 397T369
700Q369 753 403 847T486 1039Q537 1142 576 1241T625 1401L598 1421Q585 1420 571 1395Q559 1373 551 1350T532 1287L520 1247Q509 1211 451 1081Q397 961 345 837Q297 723 297 698Q297 668 335 618Q373 566 379 549Q388 529 403 499L424 455L526 242L562 164Q610
53 643 4H647L661 2Z" />
<glyph unicode="&#xac;" glyph-name="logicalnot" horiz-adv-x="800" d="M598 730Q602 749 602 766Q602 780 588 789T554 801Q537 797 487 797Q452 797 392 794Q331 791 296 791Q275 791 223 787L161 782Q147 782 147 768Q147 755 154 739Q156 733 155 733H317Q340
733 380 736Q421 739 444 739H477Q507 739 519 737Q528 736 528 727Q528 696 531 630Q534 564 534 528Q534 518 546 508T569 498Q579 498 587 506T595 530Q593 600 593 700L598 730Z" />
<glyph unicode="&#xad;" glyph-name="uni00AD" horiz-adv-x="720" d="M550 753T536 763T505 774Q412 774 284 768T155 756Q155 741 168 731T198 721Q295 721 422 727T550 739Q550 753 536 763Z" />
<glyph unicode="&#xae;" glyph-name="registered" horiz-adv-x="1300" d="M163 664T165 590Q167 528 173 455T189 327Q201 261 220 196T263 83Q291 28 330 -19T415 -96Q465 -129 530 -147T671 -166Q757 -166 824 -130T970 -12Q1008 27 1036 91T1080 238Q1099 338
1108 408T1121 571Q1126 739 1126 854V920Q1126 993 1117 1075T1085 1279Q1030 1587 1030 1632Q1010 1649 1002 1689Q999 1705 989 1717T962 1735Q908 1812 827 1863T667 1915Q165 1915 165 985Q165 910 164 850Q163 790 163 715Q163 664 165 590ZM496 -73T450
-46Q404 -22 378 12Q247 182 247 616Q247 696 240 829Q233 962 233 1042Q233 1104 238 1179Q243 1254 255 1336T288 1485Q309 1560 344 1629T424 1746Q470 1797 537 1826T682 1855Q723 1855 765 1834Q803 1814 827 1794T892 1731Q930 1717 950 1667L935 1651Q1058
1296 1058 707Q1058 625 1057 592Q1055 535 1050 467T1036 349Q1025 288 1008 228T969 124Q943 74 908 30T830 -42Q783 -72 723 -89T593 -106L575 -98Q543 -98 507 -84Q496 -73 450 -46ZM565 190T565 211Q565 315 543 504Q520 702 520 797Q520 821 521 834L524
891Q526 909 526 913Q544 913 572 927Q597 940 614 940Q624 940 643 871Q655 827 687 696Q714 587 727 545Q732 532 742 484Q756 418 764 385Q797 250 828 201Q848 168 868 168Q907 185 907 199Q907 204 900 222L885 263L876 289V291Q874 291 827 452Q781 612 734
782Q688 950 688 969Q688 983 699 996T738 1032Q756 1048 779 1075Q801 1102 815 1153T829 1270Q829 1350 817 1425Q810 1465 796 1496T758 1556Q735 1583 699 1597T616 1612Q559 1612 528 1607T471 1586Q445 1570 434 1538T423 1454Q423 1383 436 1263Q448 1139
448 1075V676Q448 635 461 569Q474 494 475 473Q483 379 483 209Q483 191 497 180T532 168Q551 168 559 179Q565 190 565 211ZM499 1473T507 1500T541 1537T622 1548Q647 1548 671 1537Q692 1526 705 1510T729 1468Q738 1440 742 1420T750 1367Q753 1323 753 1272Q753
1193 735 1137Q727 1114 687 1075T601 1006T534 975Q523 975 516 1030Q508 1091 505 1168Q499 1333 499 1415Q499 1473 507 1500Z" />
<glyph unicode="&#xaf;" glyph-name="overscore" horiz-adv-x="720" d="M550 1132T540 1139T506 1149Q483 1152 460 1152T402 1153H286Q157 1153 155 1136Q155 1129 160 1122Q166 1114 199 1107Q218 1103 264 1103H304H419Q548 1103 550 1120Q550 1132 540 1139Z" />
<glyph unicode="&#xb0;" glyph-name="degree" horiz-adv-x="720" d="M179 1099T202 1059T264 992T345 965Q535 965 535 1190Q535 1241 509 1284T436 1353T335 1378Q283 1378 246 1335Q211 1295 195 1242T179 1133Q179 1099 202 1059ZM224 1169T237 1214Q250 1263
278 1297T341 1331Q411 1331 453 1287T496 1174Q496 1121 470 1069Q454 1039 423 1022T349 1004Q315 1004 287 1022T241 1069T224 1122Q224 1169 237 1214Z" />
<glyph unicode="&#xb1;" glyph-name="plusminus" horiz-adv-x="800" d="M346 374T361 365T389 356Q407 356 419 365T432 389Q432 417 423 466Q414 516 414 553Q414 584 420 598T441 616T488 621H498Q520 621 562 618Q598 614 623 614Q658 614 658 647Q658 684
594 684Q574 684 533 681Q493 678 471 678Q440 678 427 688T414 727Q414 760 410 808Q406 856 406 889L414 909Q414 944 377 944Q354 944 345 934T336 899Q336 872 341 797Q346 720 346 694Q346 678 262 678Q242 678 208 681Q172 684 154 684Q140 684 136 678T131
655Q131 612 191 612Q206 612 236 618Q269 623 281 623Q310 623 323 621T342 608Q348 598 349 590T350 555L348 501L346 449V385Q346 374 361 365ZM572 250T558 260T527 270Q434 270 305 264T176 252Q176 237 189 227T219 217Q313 217 442 223T572 236Q572 250
558 260Z" />
<glyph unicode="&#xb4;" glyph-name="acute" horiz-adv-x="620" d="M187 1125T197 1117T224 1109Q375 1238 480 1285L486 1316Q486 1348 441 1348Q434 1341 365 1288Q288 1229 243 1192Q187 1147 187 1139Q187 1125 197 1117Z" />
<glyph unicode="&#xb6;" glyph-name="paragraph" horiz-adv-x="1040" d="M756 2T807 2Q821 2 831 11T842 35Q842 74 836 150Q829 221 829 264Q829 429 836 702Q842 995 842 1141Q842 1260 835 1453Q827 1674 827 1765Q848 1761 866 1761Q907 1761 907 1790Q907
1805 889 1811T831 1822Q800 1827 790 1839Q775 1835 743 1835Q729 1835 702 1843Q675 1851 663 1851Q625 1851 614 1831Q599 1829 558 1827Q477 1825 436 1808Q419 1801 365 1787Q323 1775 296 1763T243 1726T194 1660Q159 1597 145 1531T131 1389Q138 1379 140
1355L143 1325Q167 1230 225 1195Q253 1178 278 1169T353 1145Q405 1129 426 1120H598L600 1042L602 963Q602 812 581 509Q559 213 559 55Q559 14 598 14Q611 14 624 24T637 45Q637 50 633 57Q636 112 641 208T652 370Q659 482 666 677Q672 835 672 979Q672 1106
659 1334Q645 1578 645 1688Q645 1792 668 1792Q722 1792 742 1767T762 1688Q762 1670 761 1656Q760 1641 760 1622Q760 1538 767 1399Q774 1260 774 1176Q774 998 765 639Q756 281 756 102Q756 2 807 2ZM195 1532T233 1606T336 1726T475 1772Q563 1772 582 1753Q582
1738 581 1725Q580 1712 580 1696Q580 1615 589 1454Q598 1294 598 1212Q598 1187 587 1179T539 1171Q456 1171 398 1184T292 1227Q195 1288 195 1454Q195 1532 233 1606Z" />
<glyph unicode="&#xb7;" glyph-name="middot" horiz-adv-x="520" d="M203 727T216 712T248 696Q305 696 305 748Q305 766 290 783T256 801Q236 801 220 784T203 745Q203 727 216 712Z" />
<glyph unicode="&#xb8;" glyph-name="cedilla" horiz-adv-x="620" d="M398 -184T398 -251Q398 -308 376 -351T318 -394Q307 -394 285 -383Q265 -373 252 -373Q230 -373 230 -394Q230 -419 258 -434T318 -449Q357 -449 393 -423T451 -358T473 -287Q473 -92 324
-81Q324 -28 332 22L273 14V-9Q273 -86 256 -126Q282 -167 312 -167Q323 -167 340 -163Q358 -160 367 -160Q398 -184 398 -251Z" />
<glyph unicode="&#xba;" glyph-name="ordmasculine" horiz-adv-x="800" d="M629 1114T548 1243Q525 1287 496 1306T439 1329T361 1333Q295 1333 255 1304T205 1220L192 1148Q186 1118 179 1071L175 1046Q168 1004 166 971Q163 928 163 887Q163 538 405 538Q449
538 486 563Q634 663 634 826Q629 1114 548 1243ZM247 1294T372 1294Q423 1294 507 1210Q571 1145 571 842Q571 598 396 598Q234 598 229 954Q247 1294 372 1294ZM448 484T316 479T184 466Q184 451 197 441T227 431Q324 431 451 436T579 449Q579 463 565 473T534
484Q448 484 316 479Z" />
<glyph unicode="&#xbb;" glyph-name="guillemotright" horiz-adv-x="800" d="M678 710T621 855L496 1164Q430 1324 418 1358V1360Q378 1466 361 1466Q323 1466 320 1438Q338 1410 348 1389Q365 1352 384 1304L391 1285L410 1235Q472 1073 547 868Q603 710 615
692Q610 621 345 156Q257 2 257 -12Q257 -20 272 -27T298 -35Q306 -35 318 -21Q340 3 367 58L402 127L463 245Q582 473 642 605Q678 685 678 698Q678 710 621 855ZM190 68L201 90L377 455L398 498Q415 530 422 549Q430 567 467 618Q504 668 504 698Q504 724 456
838Q408 952 351 1081Q294 1207 281 1247L270 1288L253 1346Q245 1373 231 1395T203 1421L177 1401Q186 1340 226 1240T317 1039Q366 940 399 847T433 700Q433 684 297 408T117 53L99 39Q101 27 110 14T128 0L142 2L158 4L190 68Z" />
<glyph unicode="&#xbc;" glyph-name="onequarter" horiz-adv-x="1580" d="M1403 -25L1436 0V29L1430 43L1436 68Q1428 82 1428 117Q1428 142 1430 152Q1424 166 1418 299T1411 498Q1411 523 1428 533T1469 542Q1474 541 1483 541Q1502 541 1514 547T1526 567Q1526
590 1487 590Q1471 590 1448 586Q1425 582 1411 582Q1403 590 1397 705T1391 901Q1391 949 1385 1046Q1379 1142 1379 1190L1360 1212Q1344 1212 1333 1206T1321 1188Q1321 1163 1329 1104Q1337 1048 1338 1024Q1352 668 1352 582Q1340 576 1305 570T1249 563Q1229
563 1229 602Q1229 613 1236 630Q1243 645 1243 657Q1243 669 1236 687Q1229 705 1229 717Q1229 809 1242 975Q1254 1148 1254 1233Q1254 1240 1249 1290L1254 1296Q1247 1334 1247 1366Q1247 1388 1252 1448Q1256 1496 1256 1530Q1256 1544 1245 1551T1219 1559Q1194
1559 1194 1532Q1194 1522 1198 1507Q1202 1491 1202 1481V1155Q1202 1081 1192 954Q1182 827 1182 754Q1182 736 1173 703Q1163 672 1163 653L1182 612Q1172 565 1172 547V541Q1175 538 1178 536T1186 530Q1192 525 1196 523T1203 521T1208 520Q1218 518 1227
518Q1247 518 1288 524Q1328 530 1348 530Q1368 519 1368 440L1366 394L1364 348Q1364 318 1372 244Q1379 178 1379 139Q1379 104 1370 66L1372 61V-12L1403 -25ZM991 1532T961 1532Q956 1532 952 1525Q949 1520 943 1506Q932 1470 930 1461Q926 1448 926 1448Q811
1007 670 387Q662 349 642 273Q618 182 608 128T598 31Q598 8 619 -6Q643 -4 656 29Q665 53 672 93L678 121L719 299L950 1317L962 1369L982 1456Q991 1498 991 1505Q991 1532 961 1532ZM103 24T112 15T135 6Q186 6 261 10Q336 14 387 14Q432 14 432 43Q432 72
369 72Q355 72 323 69Q292 66 277 66L268 72L270 87Q271 94 271 102Q271 153 267 234T258 334Q262 349 262 360Q262 468 245 704Q228 939 228 1047Q228 1112 213 1241Q197 1366 197 1434Q197 1467 203 1497H199Q199 1510 190 1520T166 1530Q-12 1530 -12 1501Q-12
1479 21 1479L45 1481L68 1483Q121 1483 141 1451T162 1354Q162 1333 161 1318Q160 1303 160 1284L200 687Q207 558 213 397T219 111Q219 80 208 68T168 55Q153 55 141 56Q128 57 113 57L103 37Q103 24 112 15Z" />
<glyph unicode="&#xbd;" glyph-name="onehalf" horiz-adv-x="1640" d="M1149 7T1164 -4T1200 -16Q1250 -16 1350 -7Q1449 2 1499 2L1518 29L1487 61Q1308 52 1241 39L1225 41Q1226 66 1258 141Q1284 201 1337 311L1389 420Q1430 513 1466 656T1523 950T1544 1212Q1544
1236 1541 1287Q1538 1338 1538 1362L1542 1366Q1540 1426 1516 1476T1448 1555T1348 1585Q1314 1585 1288 1552Q1263 1521 1251 1483T1239 1407Q1239 1392 1240 1387Q1241 1379 1247 1373T1266 1366Q1293 1366 1301 1440Q1304 1472 1321 1502T1366 1544Q1493 1544
1493 1249Q1493 999 1437 767T1260 274Q1252 258 1219 166Q1185 71 1149 25Q1149 7 1164 -4ZM991 1532T961 1532Q956 1532 952 1525Q949 1520 943 1506Q932 1470 930 1461Q926 1448 926 1448Q811 1007 670 387Q662 349 642 273Q618 182 608 128T598 31Q598 8 619
-6Q643 -4 656 29Q665 53 672 93L678 121L719 299L950 1317L962 1369L982 1456Q991 1498 991 1505Q991 1532 961 1532ZM103 24T112 15T135 6Q186 6 261 10Q336 14 387 14Q432 14 432 43Q432 72 369 72Q355 72 323 69Q292 66 277 66L268 72L270 87Q271 94 271 102Q271
153 267 234T258 334Q262 349 262 360Q262 468 245 704Q228 939 228 1047Q228 1112 213 1241Q197 1366 197 1434Q197 1467 203 1497H199Q199 1510 190 1520T166 1530Q-12 1530 -12 1501Q-12 1479 21 1479L45 1481L68 1483Q121 1483 141 1451T162 1354Q162 1333
161 1318Q160 1303 160 1284L200 687Q207 558 213 397T219 111Q219 80 208 68T168 55Q153 55 141 56Q128 57 113 57L103 37Q103 24 112 15Z" />
<glyph unicode="&#xbe;" glyph-name="threequarters" horiz-adv-x="1480" d="M1300 -25L1332 0V29L1326 43L1332 68Q1324 82 1324 117Q1324 142 1326 152Q1320 166 1314 297T1308 498Q1308 523 1325 533T1366 542Q1371 541 1380 541Q1399 541 1411 547T1423 567Q1423
590 1384 590Q1368 590 1345 586Q1322 582 1308 582Q1300 590 1294 707T1287 901Q1287 949 1281 1046Q1275 1142 1275 1190L1257 1212Q1241 1212 1230 1206T1218 1188Q1218 1163 1226 1104Q1232 1061 1234 1024Q1249 657 1249 582Q1237 576 1202 570T1146 563Q1126
563 1126 602Q1126 613 1133 630Q1140 645 1140 657Q1140 669 1133 687Q1126 705 1126 717Q1126 803 1138 975Q1150 1148 1150 1233Q1150 1258 1146 1290L1150 1296Q1144 1331 1144 1366Q1144 1400 1148 1448Q1152 1496 1152 1530Q1152 1544 1141 1551T1115 1559Q1091
1559 1091 1532Q1091 1522 1095 1507Q1099 1491 1099 1481V1155Q1099 1081 1089 954Q1079 827 1079 754Q1079 736 1070 703Q1060 672 1060 653L1079 612Q1068 554 1068 547V541Q1073 537 1080 532Q1088 525 1097 521Q1104 518 1124 518Q1144 518 1184 524Q1225
530 1244 530Q1265 520 1265 440L1263 394L1261 348Q1261 308 1268 244Q1275 178 1275 139Q1275 101 1267 66L1269 61V-12L1300 -25ZM14 40T54 19T141 -2Q178 -2 209 12Q239 26 258 47T291 103Q305 136 312 165T323 237Q329 303 329 367Q329 421 327 437T313 508Q306
538 299 588Q289 651 281 687T259 765Q227 857 147 889Q154 897 181 940Q205 981 214 987Q251 1051 251 1102Q251 1371 169 1489L163 1491Q147 1513 122 1526T71 1540Q13 1540 -26 1507T-100 1403Q-99 1391 -88 1383T-65 1374Q-40 1374 -18 1433Q-9 1457 13 1474T65
1491Q99 1491 125 1461Q150 1432 163 1392T185 1293Q196 1212 196 1130Q196 1082 176 1031Q161 994 143 968T109 924T87 899Q67 876 65 868L75 858V850Q93 842 114 842Q120 842 125 843Q129 844 134 844Q172 803 201 748Q228 693 242 644T264 527Q271 465 272 423T274
297Q274 37 118 37Q108 42 92 55Q72 69 58 76T30 84L14 74Q14 40 54 19ZM888 1517T879 1524T857 1532Q852 1532 848 1525Q845 1520 839 1506Q831 1479 827 1461Q823 1448 823 1448Q708 1007 567 387Q559 349 539 273Q515 182 505 128T495 31Q495 8 515 -6Q540 -4
552 29Q563 60 569 93L575 121L616 299L847 1317L859 1369L879 1456Q888 1498 888 1505Q888 1517 879 1524Z" />
<glyph unicode="&#xbf;" glyph-name="questiondown" horiz-adv-x="640" d="M386 1361T373 1376T341 1392Q284 1392 284 1341Q284 1323 299 1306T333 1288Q353 1288 369 1305T386 1343Q386 1361 373 1376ZM444 111T430 111Q417 111 394 101Q409 7 409 -22Q409 -149
337 -149H314Q284 -149 266 -97Q250 -52 246 -11T241 81Q241 151 254 229T293 416Q317 521 325 565Q364 817 364 1124Q359 1148 341 1148Q336 1148 330 1146T320 1142Q317 1141 316 1142L318 1027Q318 871 299 726T253 487Q225 391 206 284T187 79Q187 21 198 -43T230
-149Q254 -194 341 -194Q373 -194 397 -179T435 -138Q460 -88 460 -26Q460 25 445 101Q444 111 430 111Z" />
<glyph unicode="&#xc0;" glyph-name="Agrave" horiz-adv-x="800" d="M289 1946T386 1912T488 1877Q495 1877 503 1882T512 1894Q512 1911 473 1933Q439 1952 389 1972Q335 1993 308 2002Q298 2005 292 2007T283 2010Q265 2033 204 2033H191Q178 2024 178 1988Q178
1947 248 1947Q264 1947 281 1951Q289 1946 386 1912ZM552 20T564 10T591 0Q623 0 630 17Q636 30 636 57V66Q636 146 625 333Q613 512 613 600L585 940Q569 1124 548 1311T515 1516Q500 1536 468 1536Q455 1536 439 1502Q422 1466 409 1419Q389 1350 372 1274Q349
1170 298 877Q251 604 220 471L190 336L148 147L124 45V42Q123 41 123 39Q123 25 136 15T165 5Q183 5 187 20Q193 51 213 138T250 292Q270 369 276 369Q314 369 381 360T500 335T552 303V35Q552 20 564 10ZM277 469T284 505T307 594Q321 641 325 664Q362 821 409
1122Q430 1256 443 1323T473 1436Q473 1426 477 1411L481 1389Q498 1239 506 1151Q522 983 536 763T550 416Q550 396 510 396Q502 396 496 397H484Q364 397 277 426V438Q277 469 284 505Z" />
<glyph unicode="&#xc1;" glyph-name="Aacute" horiz-adv-x="800" d="M353 1856T363 1848T390 1840Q541 1969 646 2016L652 2047Q652 2079 607 2079Q600 2072 531 2019Q454 1960 409 1923Q353 1878 353 1870Q353 1856 363 1848ZM552 20T564 10T591 0Q623 0 630
17Q636 30 636 57V66Q636 146 625 333Q613 512 613 600L585 940Q569 1124 548 1311T515 1516Q500 1536 468 1536Q455 1536 439 1502Q422 1466 409 1419Q389 1350 372 1274Q349 1170 298 877Q251 604 220 471L190 336L148 147L124 45V42Q123 41 123 39Q123 25 136
15T165 5Q183 5 187 20Q193 51 213 138T250 292Q270 369 276 369Q314 369 381 360T500 335T552 303V35Q552 20 564 10ZM277 469T284 505T307 594Q321 641 325 664Q362 821 409 1122Q430 1256 443 1323T473 1436Q473 1426 477 1411L481 1389Q498 1239 506 1151Q522
983 536 763T550 416Q550 396 510 396Q502 396 496 397H484Q364 397 277 426V438Q277 469 284 505Z" />
<glyph unicode="&#xc2;" glyph-name="Acircumflex" horiz-adv-x="800" d="M618 1687T618 1706Q618 1710 610 1728L612 1739L597 1769L599 1782Q590 1811 575 1856Q556 1907 547 1945T538 2021Q538 2064 509 2064Q490 2064 450 1992T374 1834T337 1718L374 1692L409
1739Q411 1760 427 1809Q441 1853 463 1917T495 2005Q543 1827 554 1698L581 1681Q618 1687 618 1706ZM552 20T564 10T591 0Q623 0 630 17Q636 30 636 57V66Q636 146 625 333Q613 512 613 600L585 940Q569 1124 548 1311T515 1516Q500 1536 468 1536Q455 1536 439
1502Q422 1466 409 1419Q389 1350 372 1274Q349 1170 298 877Q251 604 220 471L190 336L148 147L124 45V42Q123 41 123 39Q123 25 136 15T165 5Q183 5 187 20Q193 51 213 138T250 292Q270 369 276 369Q314 369 381 360T500 335T552 303V35Q552 20 564 10ZM277 469T284
505T307 594Q321 641 325 664Q362 821 409 1122Q430 1256 443 1323T473 1436Q473 1426 477 1411L481 1389Q498 1239 506 1151Q522 983 536 763T550 416Q550 396 510 396Q502 396 496 397H484Q364 397 277 426V438Q277 469 284 505Z" />
<glyph unicode="&#xc3;" glyph-name="Atilde" horiz-adv-x="800" d="M245 1774T258 1763T284 1751L306 1782Q296 1815 296 1825Q296 1848 319 1864T372 1880L386 1874Q419 1835 438 1816Q460 1793 497 1773T568 1753Q596 1753 621 1768T661 1808T677 1861Q677
1890 665 1910T630 1931Q615 1931 609 1919Q611 1911 616 1901Q621 1886 621 1880Q621 1807 568 1807Q538 1807 502 1831T451 1886Q415 1928 364 1928Q314 1928 280 1889T245 1786Q245 1774 258 1763ZM552 20T564 10T591 0Q623 0 630 17Q636 30 636 57V66Q636 146
625 333Q613 512 613 600L585 940Q569 1124 548 1311T515 1516Q500 1536 468 1536Q455 1536 439 1502Q422 1466 409 1419Q389 1350 372 1274Q349 1170 298 877Q251 604 220 471L190 336L148 147L124 45V42Q123 41 123 39Q123 25 136 15T165 5Q183 5 187 20Q193
51 213 138T250 292Q270 369 276 369Q314 369 381 360T500 335T552 303V35Q552 20 564 10ZM277 469T284 505T307 594Q321 641 325 664Q362 821 409 1122Q430 1256 443 1323T473 1436Q473 1426 477 1411L481 1389Q498 1239 506 1151Q522 983 536 763T550 416Q550
396 510 396Q502 396 496 397H484Q364 397 277 426V438Q277 469 284 505Z" />
<glyph unicode="&#xc4;" glyph-name="Adieresis" horiz-adv-x="800" d="M665 1849T678 1835T706 1820Q760 1820 760 1867Q760 1883 746 1899T715 1916Q696 1916 681 1900T665 1865Q665 1849 678 1835ZM205 1844T216 1828T244 1812Q264 1812 279 1821T295 1847Q295
1875 285 1894T254 1914Q236 1914 221 1898T205 1863Q205 1844 216 1828ZM552 20T564 10T591 0Q623 0 630 17Q636 30 636 57V66Q636 146 625 333Q613 512 613 600L585 940Q569 1124 548 1311T515 1516Q500 1536 468 1536Q455 1536 439 1502Q422 1466 409 1419Q389
1350 372 1274Q349 1170 298 877Q251 604 220 471L190 336L148 147L124 45V42Q123 41 123 39Q123 25 136 15T165 5Q183 5 187 20Q193 51 213 138T250 292Q270 369 276 369Q314 369 381 360T500 335T552 303V35Q552 20 564 10ZM277 469T284 505T307 594Q321 641
325 664Q362 821 409 1122Q430 1256 443 1323T473 1436Q473 1426 477 1411L481 1389Q498 1239 506 1151Q522 983 536 763T550 416Q550 396 510 396Q502 396 496 397H484Q364 397 277 426V438Q277 469 284 505Z" />
<glyph unicode="&#xc5;" glyph-name="Aring" horiz-adv-x="800" d="M363 1869T377 1844T414 1804T463 1788Q522 1788 558 1818T594 1905Q594 1930 577 1958T534 2004T482 2023Q453 2023 426 2004T381 1956T363 1896Q363 1869 377 1844ZM410 1934T433 1959T482
1984Q510 1984 525 1954T541 1884Q541 1862 512 1845T455 1827Q436 1827 426 1843Q416 1857 413 1871T410 1907Q410 1934 433 1959ZM552 20T564 10T591 0Q623 0 630 17Q636 30 636 57V66Q636 146 625 333Q613 512 613 600L585 940Q569 1124 548 1311T515 1516Q500
1536 468 1536Q455 1536 439 1502Q422 1466 409 1419Q389 1350 372 1274Q349 1170 298 877Q251 604 220 471L190 336L148 147L124 45V42Q123 41 123 39Q123 25 136 15T165 5Q183 5 187 20Q193 51 213 138T250 292Q270 369 276 369Q314 369 381 360T500 335T552
303V35Q552 20 564 10ZM277 469T284 505T307 594Q321 641 325 664Q362 821 409 1122Q430 1256 443 1323T473 1436Q473 1426 477 1411L481 1389Q498 1239 506 1151Q522 983 536 763T550 416Q550 396 510 396Q502 396 496 397H484Q364 397 277 426V438Q277 469 284
505Z" />
<glyph unicode="&#xc6;" glyph-name="AE" horiz-adv-x="940" d="M545 -39T561 -28L580 -14Q591 -9 665 -7Q736 -6 798 2Q859 9 859 31Q859 43 845 50T814 57Q778 57 698 46Q618 35 582 35Q564 35 564 70Q564 93 565 112Q566 131 566 154Q566 254 562 398Q558 542
558 641H612Q758 641 758 676L730 711Q699 711 649 701Q594 690 568 690L558 702Q558 782 561 941Q564 1100 564 1180Q564 1238 557 1333Q550 1428 550 1485Q652 1497 752 1497L765 1522Q765 1554 701 1554Q679 1554 621 1549Q563 1544 543 1544Q519 1544 498 1515Q477
1486 449 1393Q306 931 181 432Q100 120 99 27Q99 19 104 11T115 2Q132 2 147 43Q159 77 171 133T187 209L289 600Q292 610 336 618Q368 623 436 629Q493 634 500 635L511 621Q511 571 516 426Q521 281 521 229Q521 104 504 -12L533 -41Q545 -39 561 -28ZM517 1296T517
1153Q517 1064 514 903L509 688Q433 669 304 664Q307 697 353 874T446 1215T504 1393Q517 1296 517 1153Z" />
<glyph unicode="&#xc7;" glyph-name="Ccedilla" horiz-adv-x="780" d="M543 -29T479 -32Q477 -64 477 -81Q626 -92 626 -287Q626 -319 604 -357T546 -422T471 -449Q439 -449 411 -434T383 -394Q383 -373 405 -373Q418 -373 438 -383Q460 -394 471 -394Q506 -394
528 -351T551 -251Q551 -184 520 -160Q511 -160 493 -163Q476 -167 465 -167Q435 -167 409 -126Q423 -94 426 -29Q373 -16 323 25T249 115Q233 150 215 299T185 620T173 877Q173 938 172 986Q171 1033 171 1090Q171 1155 174 1202T184 1300Q191 1352 204 1389T242
1461Q265 1496 297 1517T377 1552Q422 1565 483 1565Q507 1565 535 1555T582 1527T601 1489Q601 1466 569 1466Q557 1466 522 1481Q485 1495 466 1495Q408 1495 363 1472T290 1410Q266 1375 251 1319T230 1205Q225 1145 225 1081L227 967L229 860Q229 776 242 608T274
298T313 127Q338 89 385 68T487 47Q580 47 630 106Q647 132 668 132Q687 132 687 102Q687 66 664 39T604 -4Q543 -29 479 -32Z" />
<glyph unicode="&#xc8;" glyph-name="Egrave" horiz-adv-x="620" d="M137 1946T234 1912T336 1877Q343 1877 351 1882T360 1894Q360 1911 321 1933Q287 1952 237 1972Q183 1993 156 2002Q146 2005 140 2007T131 2010Q113 2033 52 2033H39Q26 2024 26 1988Q26 1947
96 1947Q112 1947 129 1951Q137 1946 234 1912ZM192 5T212 -3T280 -12H367Q446 -12 467 -4Q486 3 486 35Q486 62 448 62H430H343L256 61V137Q256 274 252 462Q248 649 248 766Q248 776 256 776H373Q390 776 397 783T404 810Q404 840 370 840Q328 840 259 836H257H255Q251
836 251 840V1096V1270Q250 1347 250 1444Q250 1459 254 1463T274 1468L307 1466L340 1464Q365 1464 374 1465Q388 1466 401 1476T414 1503Q414 1531 393 1538Q383 1541 374 1541T351 1542H224Q207 1542 197 1526T187 1485Q191 1357 191 1257L193 412L191 113V109Q191
88 192 71V33Q192 5 212 -3Z" />
<glyph unicode="&#xc9;" glyph-name="Eacute" horiz-adv-x="620" d="M201 1856T211 1848T238 1840Q389 1969 494 2016L500 2047Q500 2079 455 2079Q448 2072 379 2019Q302 1960 257 1923Q201 1878 201 1870Q201 1856 211 1848ZM192 5T212 -3T280 -12H367Q446 -12
467 -4Q486 3 486 35Q486 62 448 62H430H343L256 61V137Q256 274 252 462Q248 649 248 766Q248 776 256 776H373Q390 776 397 783T404 810Q404 840 370 840Q328 840 259 836H257H255Q251 836 251 840V1096V1270Q250 1347 250 1444Q250 1459 254 1463T274 1468L307
1466L340 1464Q365 1464 374 1465Q388 1466 401 1476T414 1503Q414 1531 393 1538Q383 1541 374 1541T351 1542H224Q207 1542 197 1526T187 1485Q191 1357 191 1257L193 412L191 113V109Q191 88 192 71V33Q192 5 212 -3Z" />
<glyph unicode="&#xca;" glyph-name="Ecircumflex" horiz-adv-x="620" d="M466 1687T466 1706Q466 1710 458 1728L460 1739L445 1769L447 1782Q438 1811 423 1856Q404 1907 395 1945T386 2021Q386 2064 357 2064Q338 2064 298 1992T222 1834T185 1718L222 1692L257
1739Q259 1760 275 1809Q289 1853 311 1917T343 2005Q391 1827 402 1698L429 1681Q466 1687 466 1706ZM192 5T212 -3T280 -12H367Q446 -12 467 -4Q486 3 486 35Q486 62 448 62H430H343L256 61V137Q256 274 252 462Q248 649 248 766Q248 776 256 776H373Q390 776
397 783T404 810Q404 840 370 840Q328 840 259 836H257H255Q251 836 251 840V1096V1270Q250 1347 250 1444Q250 1459 254 1463T274 1468L307 1466L340 1464Q365 1464 374 1465Q388 1466 401 1476T414 1503Q414 1531 393 1538Q383 1541 374 1541T351 1542H224Q207
1542 197 1526T187 1485Q191 1357 191 1257L193 412L191 113V109Q191 88 192 71V33Q192 5 212 -3Z" />
<glyph unicode="&#xcb;" glyph-name="Edieresis" horiz-adv-x="620" d="M513 1849T526 1835T554 1820Q608 1820 608 1867Q608 1883 594 1899T563 1916Q544 1916 529 1900T513 1865Q513 1849 526 1835ZM53 1844T64 1828T92 1812Q112 1812 127 1821T143 1847Q143
1875 133 1894T102 1914Q84 1914 69 1898T53 1863Q53 1844 64 1828ZM192 5T212 -3T280 -12H367Q446 -12 467 -4Q486 3 486 35Q486 62 448 62H430H343L256 61V137Q256 274 252 462Q248 649 248 766Q248 776 256 776H373Q390 776 397 783T404 810Q404 840 370 840Q328
840 259 836H257H255Q251 836 251 840V1096V1270Q250 1347 250 1444Q250 1459 254 1463T274 1468L307 1466L340 1464Q365 1464 374 1465Q388 1466 401 1476T414 1503Q414 1531 393 1538Q383 1541 374 1541T351 1542H224Q207 1542 197 1526T187 1485Q191 1357 191
1257L193 412L191 113V109Q191 88 192 71V33Q192 5 212 -3Z" />
<glyph unicode="&#xcc;" glyph-name="Igrave" horiz-adv-x="660" d="M107 1946T204 1912T306 1877Q313 1877 321 1882T330 1894Q330 1911 291 1933Q257 1952 207 1972Q153 1993 126 2002Q116 2005 110 2007T101 2010Q83 2033 22 2033H9Q-4 2024 -4 1988Q-4 1947
66 1947Q82 1947 99 1951Q107 1946 204 1912ZM175 70T175 44Q175 31 185 21T211 10Q287 10 335 9Q382 8 447 8Q457 8 466 19T475 42Q475 71 429 71H355Q355 101 356 127Q357 153 357 184Q357 390 332 830Q306 1287 306 1474Q306 1479 309 1482Q311 1484 318 1485T333
1487H355Q367 1487 378 1486Q389 1485 404 1485Q415 1485 422 1495T429 1518Q429 1532 419 1539T392 1547Q344 1547 314 1548H256Q197 1548 180 1542Q163 1534 163 1513Q163 1484 185 1484H255Q261 1465 261 1354Q261 1276 260 1218L259 1114L266 919L275 663Q289
266 289 70H209Q175 70 175 44Z" />
<glyph unicode="&#xcd;" glyph-name="Iacute" horiz-adv-x="660" d="M171 1856T181 1848T208 1840Q359 1969 464 2016L470 2047Q470 2079 425 2079Q418 2072 349 2019Q272 1960 227 1923Q171 1878 171 1870Q171 1856 181 1848ZM175 70T175 44Q175 31 185 21T211
10Q287 10 335 9Q382 8 447 8Q457 8 466 19T475 42Q475 71 429 71H355Q355 101 356 127Q357 153 357 184Q357 390 332 830Q306 1287 306 1474Q306 1479 309 1482Q311 1484 318 1485T333 1487H355Q367 1487 378 1486Q389 1485 404 1485Q415 1485 422 1495T429 1518Q429
1532 419 1539T392 1547Q344 1547 314 1548H256Q197 1548 180 1542Q163 1534 163 1513Q163 1484 185 1484H255Q261 1465 261 1354Q261 1276 260 1218L259 1114L266 919L275 663Q289 266 289 70H209Q175 70 175 44Z" />
<glyph unicode="&#xce;" glyph-name="Icircumflex" horiz-adv-x="660" d="M436 1687T436 1706Q436 1710 428 1728L430 1739L415 1769L417 1782Q408 1811 393 1856Q374 1907 365 1945T356 2021Q356 2064 327 2064Q308 2064 268 1992T192 1834T155 1718L192 1692L227
1739Q229 1760 245 1809Q259 1853 281 1917T313 2005Q361 1827 372 1698L399 1681Q436 1687 436 1706ZM175 70T175 44Q175 31 185 21T211 10Q287 10 335 9Q382 8 447 8Q457 8 466 19T475 42Q475 71 429 71H355Q355 101 356 127Q357 153 357 184Q357 390 332 830Q306
1287 306 1474Q306 1479 309 1482Q311 1484 318 1485T333 1487H355Q367 1487 378 1486Q389 1485 404 1485Q415 1485 422 1495T429 1518Q429 1532 419 1539T392 1547Q344 1547 314 1548H256Q197 1548 180 1542Q163 1534 163 1513Q163 1484 185 1484H255Q261 1465
261 1354Q261 1276 260 1218L259 1114L266 919L275 663Q289 266 289 70H209Q175 70 175 44Z" />
<glyph unicode="&#xcf;" glyph-name="Idieresis" horiz-adv-x="660" d="M483 1849T496 1835T524 1820Q578 1820 578 1867Q578 1883 564 1899T533 1916Q514 1916 499 1900T483 1865Q483 1849 496 1835ZM23 1844T34 1828T62 1812Q82 1812 97 1821T113 1847Q113 1875
103 1894T72 1914Q54 1914 39 1898T23 1863Q23 1844 34 1828ZM175 70T175 44Q175 31 185 21T211 10Q287 10 335 9Q382 8 447 8Q457 8 466 19T475 42Q475 71 429 71H355Q355 101 356 127Q357 153 357 184Q357 390 332 830Q306 1287 306 1474Q306 1479 309 1482Q311
1484 318 1485T333 1487H355Q367 1487 378 1486Q389 1485 404 1485Q415 1485 422 1495T429 1518Q429 1532 419 1539T392 1547Q344 1547 314 1548H256Q197 1548 180 1542Q163 1534 163 1513Q163 1484 185 1484H255Q261 1465 261 1354Q261 1276 260 1218L259 1114L266
919L275 663Q289 266 289 70H209Q175 70 175 44Z" />
<glyph unicode="&#xd0;" glyph-name="Eth" horiz-adv-x="880" d="M248 -64T255 -70T278 -80Q299 -87 301 -88Q418 -36 517 93Q611 218 661 365T712 649Q712 966 616 1237V1241Q548 1367 445 1476Q389 1536 323 1571T194 1606Q186 1606 174 1589T161 1563Q161 1502
170 1380Q178 1250 178 1196Q178 1139 192 1011Q206 883 206 827L205 822L204 817L196 813H178Q51 813 51 776Q51 757 56 749T79 741Q102 741 141 748Q182 754 204 754Q210 733 221 602Q239 223 239 -49H241Q248 -64 255 -70ZM287 462T282 591T276 756Q343 770
444 770L464 795Q462 814 450 829T421 844Q400 844 351 833Q305 821 280 821Q268 838 257 972T238 1274T231 1534L235 1538Q375 1497 468 1376T595 1087Q615 1012 625 925Q634 843 636 790T638 616Q638 529 603 425T509 224T382 59L369 46Q352 27 343 21Q329 11
309 6Q309 87 299 228Q288 384 288 449L290 451Q287 462 282 591Z" />
<glyph unicode="&#xd1;" glyph-name="Ntilde" horiz-adv-x="900" d="M233 1774T246 1763T272 1751L294 1782Q284 1815 284 1825Q284 1848 307 1864T360 1880L374 1874Q407 1835 426 1816Q448 1793 485 1773T556 1753Q584 1753 609 1768T649 1808T665 1861Q665
1890 653 1910T618 1931Q603 1931 597 1919Q599 1911 604 1901Q609 1886 609 1880Q609 1807 556 1807Q526 1807 490 1831T439 1886Q403 1928 352 1928Q302 1928 268 1889T233 1786Q233 1774 246 1763ZM317 1064T328 1016Q354 907 580 94L586 64Q592 30 594 24Q598
6 610 -8T637 -23Q689 -23 689 37Q689 77 694 199Q699 321 699 360Q699 522 702 843L704 1329V1460L706 1493Q707 1510 707 1535Q707 1595 691 1595Q656 1595 649 1567L651 1278Q651 1190 650 1120L648 961Q648 816 644 605Q640 393 640 248Q640 177 627 150Q583
283 521 539Q379 1069 373 1096Q356 1169 325 1313L315 1360Q286 1492 281 1513Q277 1527 262 1539T234 1552Q205 1552 192 1543T179 1509Q179 1497 180 1488Q181 1478 181 1466L183 1273Q184 1187 184 1079V811Q184 692 187 455L189 98Q189 31 185 16L191 0H238L252
16Q252 93 247 308Q242 523 242 600V1341Q242 1400 244 1426Q317 1064 328 1016Z" />
<glyph unicode="&#xd2;" glyph-name="Ograve" horiz-adv-x="840" d="M197 1946T294 1912T396 1877Q403 1877 411 1882T420 1894Q420 1911 381 1933Q347 1952 297 1972Q243 1993 216 2002Q206 2005 200 2007T191 2010Q173 2033 112 2033H99Q86 2024 86 1988Q86
1947 156 1947Q172 1947 189 1951Q197 1946 294 1912ZM171 -43T455 -43Q533 -43 577 31Q601 73 616 112T640 208Q651 277 655 320T663 423Q666 510 666 612V618Q666 893 617 1239Q612 1278 601 1336Q591 1381 573 1427T531 1501Q505 1533 464 1552T373 1571Q320
1571 283 1537Q246 1504 225 1454T191 1323Q179 1250 175 1184T171 1025V942Q171 -43 455 -43ZM423 1518T456 1490T511 1408Q536 1346 552 1287T578 1154L581 1127Q598 979 603 867Q606 762 606 662V653Q606 570 600 439Q594 301 561 157Q546 90 519 52T459 14Q407
14 365 86Q325 153 301 250T259 484Q232 692 232 831V931Q232 1018 238 1139Q242 1209 252 1268T279 1393Q294 1453 321 1485T383 1518Q423 1518 456 1490Z" />
<glyph unicode="&#xd3;" glyph-name="Oacute" horiz-adv-x="840" d="M261 1856T271 1848T298 1840Q449 1969 554 2016L560 2047Q560 2079 515 2079Q508 2072 439 2019Q362 1960 317 1923Q261 1878 261 1870Q261 1856 271 1848ZM171 -43T455 -43Q533 -43 577 31Q601
73 616 112T640 208Q651 277 655 320T663 423Q666 510 666 612V618Q666 893 617 1239Q612 1278 601 1336Q591 1381 573 1427T531 1501Q505 1533 464 1552T373 1571Q320 1571 283 1537Q246 1504 225 1454T191 1323Q179 1250 175 1184T171 1025V942Q171 -43 455 -43ZM423
1518T456 1490T511 1408Q536 1346 552 1287T578 1154L581 1127Q598 979 603 867Q606 762 606 662V653Q606 570 600 439Q594 301 561 157Q546 90 519 52T459 14Q407 14 365 86Q325 153 301 250T259 484Q232 692 232 831V931Q232 1018 238 1139Q242 1209 252 1268T279
1393Q294 1453 321 1485T383 1518Q423 1518 456 1490Z" />
<glyph unicode="&#xd4;" glyph-name="Ocircumflex" horiz-adv-x="840" d="M526 1687T526 1706Q526 1710 518 1728L520 1739L505 1769L507 1782Q498 1811 483 1856Q464 1907 455 1945T446 2021Q446 2064 417 2064Q398 2064 358 1992T282 1834T245 1718L282 1692L317
1739Q319 1760 335 1809Q349 1853 371 1917T403 2005Q451 1827 462 1698L489 1681Q526 1687 526 1706ZM171 -43T455 -43Q533 -43 577 31Q601 73 616 112T640 208Q651 277 655 320T663 423Q666 510 666 612V618Q666 893 617 1239Q612 1278 601 1336Q591 1381 573
1427T531 1501Q505 1533 464 1552T373 1571Q320 1571 283 1537Q246 1504 225 1454T191 1323Q179 1250 175 1184T171 1025V942Q171 -43 455 -43ZM423 1518T456 1490T511 1408Q536 1346 552 1287T578 1154L581 1127Q598 979 603 867Q606 762 606 662V653Q606 570
600 439Q594 301 561 157Q546 90 519 52T459 14Q407 14 365 86Q325 153 301 250T259 484Q232 692 232 831V931Q232 1018 238 1139Q242 1209 252 1268T279 1393Q294 1453 321 1485T383 1518Q423 1518 456 1490Z" />
<glyph unicode="&#xd5;" glyph-name="Otilde" horiz-adv-x="840" d="M153 1774T166 1763T192 1751L214 1782Q204 1815 204 1825Q204 1848 227 1864T280 1880L294 1874Q327 1835 346 1816Q368 1793 405 1773T476 1753Q504 1753 529 1768T569 1808T585 1861Q585
1890 573 1910T538 1931Q523 1931 517 1919Q519 1911 524 1901Q529 1886 529 1880Q529 1807 476 1807Q446 1807 410 1831T359 1886Q323 1928 272 1928Q222 1928 188 1889T153 1786Q153 1774 166 1763ZM171 -43T455 -43Q533 -43 577 31Q601 73 616 112T640 208Q651
277 655 320T663 423Q666 510 666 612V618Q666 893 617 1239Q612 1278 601 1336Q591 1381 573 1427T531 1501Q505 1533 464 1552T373 1571Q320 1571 283 1537Q246 1504 225 1454T191 1323Q179 1250 175 1184T171 1025V942Q171 -43 455 -43ZM423 1518T456 1490T511
1408Q536 1346 552 1287T578 1154L581 1127Q598 979 603 867Q606 762 606 662V653Q606 570 600 439Q594 301 561 157Q546 90 519 52T459 14Q407 14 365 86Q325 153 301 250T259 484Q232 692 232 831V931Q232 1018 238 1139Q242 1209 252 1268T279 1393Q294 1453
321 1485T383 1518Q423 1518 456 1490Z" />
<glyph unicode="&#xd6;" glyph-name="Odieresis" horiz-adv-x="840" d="M573 1849T586 1835T614 1820Q668 1820 668 1867Q668 1883 654 1899T623 1916Q604 1916 589 1900T573 1865Q573 1849 586 1835ZM113 1844T124 1828T152 1812Q172 1812 187 1821T203 1847Q203
1875 193 1894T162 1914Q144 1914 129 1898T113 1863Q113 1844 124 1828ZM171 -43T455 -43Q533 -43 577 31Q601 73 616 112T640 208Q651 277 655 320T663 423Q666 510 666 612V618Q666 893 617 1239Q612 1278 601 1336Q591 1381 573 1427T531 1501Q505 1533 464
1552T373 1571Q320 1571 283 1537Q246 1504 225 1454T191 1323Q179 1250 175 1184T171 1025V942Q171 -43 455 -43ZM423 1518T456 1490T511 1408Q536 1346 552 1287T578 1154L581 1127Q598 979 603 867Q606 762 606 662V653Q606 570 600 439Q594 301 561 157Q546
90 519 52T459 14Q407 14 365 86Q325 153 301 250T259 484Q232 692 232 831V931Q232 1018 238 1139Q242 1209 252 1268T279 1393Q294 1453 321 1485T383 1518Q423 1518 456 1490Z" />
<glyph unicode="&#xd7;" glyph-name="multiply" horiz-adv-x="740" d="M534 424T542 424Q564 424 579 438T594 471Q594 486 570 508T511 554Q476 577 452 601T428 643Q428 660 464 693L485 712Q528 751 550 775T573 813Q573 824 563 834T542 844Q523 844 498 821T436
754L420 736Q389 700 368 700Q342 700 215 827L205 848Q195 858 180 858Q167 858 153 843T139 817Q139 801 170 771Q205 736 246 703Q289 667 309 647Q309 637 293 615Q277 593 267 583T231 551Q197 521 189 513Q172 496 172 487Q172 478 186 468T213 457Q232 457
253 475T292 521Q309 547 328 565T364 584Q377 584 396 566Q425 537 443 516Q470 485 483 473L528 430Q534 424 542 424Z" />
<glyph unicode="&#xd8;" glyph-name="Oslash" horiz-adv-x="760" d="M254 -53T265 20H267Q297 -20 368 -20Q443 -20 485 34Q508 63 522 92T545 160Q555 208 560 239T568 313Q571 373 571 444Q571 508 568 637Q564 752 564 831L560 838V850Q560 912 545 1039Q530
1167 530 1227L534 1229Q534 1309 511 1366Q510 1369 507 1373T501 1383Q485 1406 480 1427L482 1432Q452 1467 452 1491L495 1739L497 1798H460L441 1689Q425 1595 407 1540L396 1550L388 1546Q379 1546 360 1558Q340 1569 329 1569Q179 1569 179 1081V952Q179
449 222 184Q223 176 233 150Q241 123 241 111Q226 9 211 -66L201 -114Q190 -165 186 -189T181 -240L212 -264Q254 -53 265 20ZM222 747T222 839V852Q222 1466 286 1505L298 1501Q298 1501 308 1505L323 1511L331 1513Q357 1513 376 1497T396 1456Q396 1424 392
1384T382 1299Q376 1264 372 1227L359 1089L336 848L329 777Q298 472 284 371Q270 280 265 274Q265 346 253 490Q241 634 241 705Q222 747 222 839ZM294 136T308 215Q347 412 382 817Q414 1206 444 1389Q517 1244 517 399Q517 23 384 23Q335 23 315 45T294 119Q294
136 308 215Z" />
<glyph unicode="&#xd9;" glyph-name="Ugrave" horiz-adv-x="860" d="M217 1946T314 1912T416 1877Q423 1877 431 1882T440 1894Q440 1911 401 1933Q367 1952 317 1972Q263 1993 236 2002Q226 2005 220 2007T211 2010Q193 2033 132 2033H119Q106 2024 106 1988Q106
1947 176 1947Q192 1947 209 1951Q217 1946 314 1912ZM199 439Q201 397 203 374Q206 339 214 289T233 200Q245 155 266 110T313 34Q340 1 381 -19T469 -39Q517 -39 555 -16Q591 6 612 39T646 123Q658 168 662 207T666 295Q666 408 663 634Q659 835 659 983V1167Q658
1249 658 1352V1507Q658 1529 647 1542T618 1555Q601 1555 590 1542T578 1507Q578 1461 583 1333Q587 1230 587 1159L596 897Q605 644 605 514V281Q605 253 603 213Q600 178 591 143T568 85Q552 59 525 43T462 27Q424 27 392 59Q361 89 341 131T305 237Q279 333
271 422Q256 564 242 888T228 1452Q228 1461 229 1468V1483Q229 1508 220 1520T187 1532Q155 1532 155 1479Q155 1469 156 1462V1448Q156 1256 171 913T197 473L199 439Z" />
<glyph unicode="&#xda;" glyph-name="Uacute" horiz-adv-x="860" d="M281 1856T291 1848T318 1840Q469 1969 574 2016L580 2047Q580 2079 535 2079Q528 2072 459 2019Q382 1960 337 1923Q281 1878 281 1870Q281 1856 291 1848ZM199 439Q201 397 203 374Q206 339
214 289T233 200Q245 155 266 110T313 34Q340 1 381 -19T469 -39Q517 -39 555 -16Q591 6 612 39T646 123Q658 168 662 207T666 295Q666 408 663 634Q659 835 659 983V1167Q658 1249 658 1352V1507Q658 1529 647 1542T618 1555Q601 1555 590 1542T578 1507Q578 1461
583 1333Q587 1230 587 1159L596 897Q605 644 605 514V281Q605 253 603 213Q600 178 591 143T568 85Q552 59 525 43T462 27Q424 27 392 59Q361 89 341 131T305 237Q279 333 271 422Q256 564 242 888T228 1452Q228 1461 229 1468V1483Q229 1508 220 1520T187 1532Q155
1532 155 1479Q155 1469 156 1462V1448Q156 1256 171 913T197 473L199 439Z" />
<glyph unicode="&#xdb;" glyph-name="Ucircumflex" horiz-adv-x="860" d="M546 1687T546 1706Q546 1710 538 1728L540 1739L525 1769L527 1782Q518 1811 503 1856Q484 1907 475 1945T466 2021Q466 2064 437 2064Q418 2064 378 1992T302 1834T265 1718L302 1692L337
1739Q339 1760 355 1809Q369 1853 391 1917T423 2005Q471 1827 482 1698L509 1681Q546 1687 546 1706ZM199 439Q201 397 203 374Q206 339 214 289T233 200Q245 155 266 110T313 34Q340 1 381 -19T469 -39Q517 -39 555 -16Q591 6 612 39T646 123Q658 168 662 207T666
295Q666 408 663 634Q659 835 659 983V1167Q658 1249 658 1352V1507Q658 1529 647 1542T618 1555Q601 1555 590 1542T578 1507Q578 1461 583 1333Q587 1230 587 1159L596 897Q605 644 605 514V281Q605 253 603 213Q600 178 591 143T568 85Q552 59 525 43T462 27Q424
27 392 59Q361 89 341 131T305 237Q279 333 271 422Q256 564 242 888T228 1452Q228 1461 229 1468V1483Q229 1508 220 1520T187 1532Q155 1532 155 1479Q155 1469 156 1462V1448Q156 1256 171 913T197 473L199 439Z" />
<glyph unicode="&#xdc;" glyph-name="Udieresis" horiz-adv-x="860" d="M593 1849T606 1835T634 1820Q688 1820 688 1867Q688 1883 674 1899T643 1916Q624 1916 609 1900T593 1865Q593 1849 606 1835ZM133 1844T144 1828T172 1812Q192 1812 207 1821T223 1847Q223
1875 213 1894T182 1914Q164 1914 149 1898T133 1863Q133 1844 144 1828ZM199 439Q201 397 203 374Q206 339 214 289T233 200Q245 155 266 110T313 34Q340 1 381 -19T469 -39Q517 -39 555 -16Q591 6 612 39T646 123Q658 168 662 207T666 295Q666 408 663 634Q659
835 659 983V1167Q658 1249 658 1352V1507Q658 1529 647 1542T618 1555Q601 1555 590 1542T578 1507Q578 1461 583 1333Q587 1230 587 1159L596 897Q605 644 605 514V281Q605 253 603 213Q600 178 591 143T568 85Q552 59 525 43T462 27Q424 27 392 59Q361 89 341
131T305 237Q279 333 271 422Q256 564 242 888T228 1452Q228 1461 229 1468V1483Q229 1508 220 1520T187 1532Q155 1532 155 1479Q155 1469 156 1462V1448Q156 1256 171 913T197 473L199 439Z" />
<glyph unicode="&#xdd;" glyph-name="Yacute" horiz-adv-x="620" d="M201 1856T211 1848T238 1840Q389 1969 494 2016L500 2047Q500 2079 455 2079Q448 2072 379 2019Q302 1960 257 1923Q201 1878 201 1870Q201 1856 211 1848ZM325 6T332 -9T354 -25Q375 -25 387
-8T399 35Q399 39 398 42Q397 45 397 49L391 55Q395 176 395 469Q395 515 388 592Q380 680 380 715V731L393 762Q393 774 390 796Q387 819 387 829Q387 895 395 980T414 1129Q430 1225 468 1434Q470 1447 477 1474Q485 1504 485 1518Q485 1529 480 1534Q476 1538
472 1539T462 1540T454 1540Q420 1540 394 1405Q367 1264 353 1107Q336 939 333 930Q316 953 287 1075T233 1335T204 1530L180 1546Q163 1546 151 1537T139 1513Q139 1478 169 1380Q186 1321 201 1254T237 1079L264 938Q265 935 267 925T275 892Q296 803 296 776Q296
743 309 682Q321 619 321 586Q321 555 328 503Q335 451 335 420Q335 369 330 222Q325 75 325 25Q325 6 332 -9Z" />
<glyph unicode="&#xde;" glyph-name="Thorn" horiz-adv-x="700" d="M251 -12T260 3T270 51Q270 156 265 239Q259 314 259 427Q351 447 369 459Q383 468 395 473Q413 480 422 488Q465 522 500 591T555 740T575 887Q575 945 565 994Q554 1046 528 1096T463 1182Q423
1220 361 1242T223 1266V1268Q220 1322 219 1404Q217 1491 214 1540Q214 1539 209 1541Q189 1546 180 1546Q165 1542 165 1530L166 1525V1515Q166 1482 165 1451L163 1395Q163 1380 165 1366Q165 1307 172 1219Q172 1213 180 1100L187 936Q198 699 198 569Q198
537 200 443Q202 349 202 317Q202 233 201 188Q200 143 200 59Q200 -12 225 -12Q251 -12 260 3ZM518 1207T518 883Q518 682 385 549Q371 535 328 520T259 502Q258 595 245 824Q233 1021 231 1154V1207Q518 1207 518 883Z" />
<glyph unicode="&#xdf;" glyph-name="germandbls" horiz-adv-x="720" d="M375 23T386 27Q507 89 539 200Q555 254 560 301T565 426V473Q565 606 514 706T368 854Q433 916 466 1010T499 1214Q499 1309 480 1381T423 1495T335 1536Q180 1536 180 1266Q180 1126 187
901Q194 676 194 535Q194 468 189 276Q184 83 184 16Q184 -12 221 -12H223Q261 -12 261 49Q261 147 256 429Q251 711 251 809V887Q251 962 247 1071Q243 1180 243 1255Q243 1466 337 1466Q382 1466 414 1389Q446 1311 446 1190Q446 1138 428 1070T381 949T325 889L311
885Q304 883 299 876Q294 869 294 858Q294 845 304 831T327 811Q377 788 415 738T472 620Q507 498 507 371V360Q507 249 479 197Q473 173 432 141T350 88Q325 70 325 53Q325 41 338 32T368 23Q375 23 386 27Z" />
<glyph unicode="&#xe0;" glyph-name="agrave" horiz-adv-x="740" d="M227 1766T324 1732T426 1697Q433 1697 441 1702T450 1714Q450 1731 411 1753Q377 1772 327 1792Q273 1813 246 1822Q236 1825 230 1827T221 1830Q203 1853 142 1853H129Q116 1844 116 1808Q116
1767 186 1767Q202 1767 219 1771Q227 1766 324 1732ZM281 315T333 310Q385 305 408 305Q472 305 509 295L543 27Q546 5 550 -4T563 -15T594 -18Q610 -9 610 12V18Q521 721 496 1010L484 1118Q476 1188 473 1236T469 1343Q469 1356 458 1365T432 1374Q420 1362
395 1362Q387 1362 381 1363L367 1364Q362 1355 354 1303Q349 1275 344 1220L340 1187L332 1112Q322 1047 296 922Q269 800 260 743L238 608L226 536Q219 490 212 453L189 326Q161 168 127 37L125 31L123 25Q123 13 137 2T164 -10Q180 -10 195 25Q208 59 219 111Q237
206 242 258L246 299Q247 300 247 302T248 306Q249 311 252 313T262 315Q281 315 333 310ZM264 441T311 674Q316 694 422 1221Q485 565 500 350H479Q422 350 343 358T264 376Q264 441 311 674Z" />
<glyph unicode="&#xe1;" glyph-name="aacute" horiz-adv-x="740" d="M291 1676T301 1668T328 1660Q479 1789 584 1836L590 1867Q590 1899 545 1899Q538 1892 469 1839Q392 1780 347 1743Q291 1698 291 1690Q291 1676 301 1668ZM281 315T333 310Q385 305 408 305Q472
305 509 295L543 27Q546 5 550 -4T563 -15T594 -18Q610 -9 610 12V18Q521 721 496 1010L484 1118Q476 1188 473 1236T469 1343Q469 1356 458 1365T432 1374Q420 1362 395 1362Q387 1362 381 1363L367 1364Q362 1355 354 1303Q349 1275 344 1220L340 1187L332 1112Q322
1047 296 922Q269 800 260 743L238 608L226 536Q219 490 212 453L189 326Q161 168 127 37L125 31L123 25Q123 13 137 2T164 -10Q180 -10 195 25Q208 59 219 111Q237 206 242 258L246 299Q247 300 247 302T248 306Q249 311 252 313T262 315Q281 315 333 310ZM264
441T311 674Q316 694 422 1221Q485 565 500 350H479Q422 350 343 358T264 376Q264 441 311 674Z" />
<glyph unicode="&#xe2;" glyph-name="acircumflex" horiz-adv-x="740" d="M556 1507T556 1526Q556 1530 548 1548L550 1559L535 1589L537 1602Q528 1631 513 1676Q494 1727 485 1765T476 1841Q476 1884 447 1884Q428 1884 388 1812T312 1654T275 1538L312 1512L347
1559Q349 1580 365 1629Q379 1673 401 1737T433 1825Q481 1647 492 1518L519 1501Q556 1507 556 1526ZM281 315T333 310Q385 305 408 305Q472 305 509 295L543 27Q546 5 550 -4T563 -15T594 -18Q610 -9 610 12V18Q521 721 496 1010L484 1118Q476 1188 473 1236T469
1343Q469 1356 458 1365T432 1374Q420 1362 395 1362Q387 1362 381 1363L367 1364Q362 1355 354 1303Q349 1275 344 1220L340 1187L332 1112Q322 1047 296 922Q269 800 260 743L238 608L226 536Q219 490 212 453L189 326Q161 168 127 37L125 31L123 25Q123 13 137
2T164 -10Q180 -10 195 25Q208 59 219 111Q237 206 242 258L246 299Q247 300 247 302T248 306Q249 311 252 313T262 315Q281 315 333 310ZM264 441T311 674Q316 694 422 1221Q485 565 500 350H479Q422 350 343 358T264 376Q264 441 311 674Z" />
<glyph unicode="&#xe3;" glyph-name="atilde" horiz-adv-x="740" d="M183 1594T196 1583T222 1571L244 1602Q234 1635 234 1645Q234 1668 257 1684T310 1700L324 1694Q357 1655 376 1636Q398 1613 435 1593T506 1573Q534 1573 559 1588T599 1628T615 1681Q615
1710 603 1730T568 1751Q553 1751 547 1739Q549 1731 554 1721Q559 1706 559 1700Q559 1627 506 1627Q476 1627 440 1651T389 1706Q353 1748 302 1748Q252 1748 218 1709T183 1606Q183 1594 196 1583ZM281 315T333 310Q385 305 408 305Q472 305 509 295L543 27Q546
5 550 -4T563 -15T594 -18Q610 -9 610 12V18Q521 721 496 1010L484 1118Q476 1188 473 1236T469 1343Q469 1356 458 1365T432 1374Q420 1362 395 1362Q387 1362 381 1363L367 1364Q362 1355 354 1303Q349 1275 344 1220L340 1187L332 1112Q322 1047 296 922Q269
800 260 743L238 608L226 536Q219 490 212 453L189 326Q161 168 127 37L125 31L123 25Q123 13 137 2T164 -10Q180 -10 195 25Q208 59 219 111Q237 206 242 258L246 299Q247 300 247 302T248 306Q249 311 252 313T262 315Q281 315 333 310ZM264 441T311 674Q316
694 422 1221Q485 565 500 350H479Q422 350 343 358T264 376Q264 441 311 674Z" />
<glyph unicode="&#xe4;" glyph-name="adieresis" horiz-adv-x="740" d="M603 1669T616 1655T644 1640Q698 1640 698 1687Q698 1703 684 1719T653 1736Q634 1736 619 1720T603 1685Q603 1669 616 1655ZM143 1664T154 1648T182 1632Q202 1632 217 1641T233 1667Q233
1695 223 1714T192 1734Q174 1734 159 1718T143 1683Q143 1664 154 1648ZM281 315T333 310Q385 305 408 305Q472 305 509 295L543 27Q546 5 550 -4T563 -15T594 -18Q610 -9 610 12V18Q521 721 496 1010L484 1118Q476 1188 473 1236T469 1343Q469 1356 458 1365T432
1374Q420 1362 395 1362Q387 1362 381 1363L367 1364Q362 1355 354 1303Q349 1275 344 1220L340 1187L332 1112Q322 1047 296 922Q269 800 260 743L238 608L226 536Q219 490 212 453L189 326Q161 168 127 37L125 31L123 25Q123 13 137 2T164 -10Q180 -10 195 25Q208
59 219 111Q237 206 242 258L246 299Q247 300 247 302T248 306Q249 311 252 313T262 315Q281 315 333 310ZM264 441T311 674Q316 694 422 1221Q485 565 500 350H479Q422 350 343 358T264 376Q264 441 311 674Z" />
<glyph unicode="&#xe5;" glyph-name="aring" horiz-adv-x="740" d="M301 1689T315 1664T352 1624T401 1608Q460 1608 496 1638T532 1725Q532 1750 515 1778T472 1824T420 1843Q391 1843 364 1824T319 1776T301 1716Q301 1689 315 1664ZM348 1754T371 1779T420
1804Q448 1804 463 1774T479 1704Q479 1682 450 1665T393 1647Q374 1647 364 1663Q354 1677 351 1691T348 1727Q348 1754 371 1779ZM281 315T333 310Q385 305 408 305Q472 305 509 295L543 27Q546 5 550 -4T563 -15T594 -18Q610 -9 610 12V18Q521 721 496 1010L484
1118Q476 1188 473 1236T469 1343Q469 1356 458 1365T432 1374Q420 1362 395 1362Q387 1362 381 1363L367 1364Q362 1355 354 1303Q349 1275 344 1220L340 1187L332 1112Q322 1047 296 922Q269 800 260 743L238 608L226 536Q219 490 212 453L189 326Q161 168 127
37L125 31L123 25Q123 13 137 2T164 -10Q180 -10 195 25Q208 59 219 111Q237 206 242 258L246 299Q247 300 247 302T248 306Q249 311 252 313T262 315Q281 315 333 310ZM264 441T311 674Q316 694 422 1221Q485 565 500 350H479Q422 350 343 358T264 376Q264 441
311 674Z" />
<glyph unicode="&#xe6;" glyph-name="ae" horiz-adv-x="940" d="M551 -14T558 -13L572 -12Q580 -12 588 -14Q599 -9 673 -7Q744 -6 806 2Q867 9 867 31Q867 43 853 50T822 57Q786 57 706 46Q626 35 590 35Q572 35 572 70Q572 93 573 112Q574 131 574 154Q574 251
570 388Q566 525 566 621H621Q766 621 766 655L738 690Q633 690 576 670L566 682Q566 765 565 829Q564 892 564 975Q564 1026 561 1132Q558 1239 558 1288Q587 1292 658 1292H760L773 1317Q773 1350 709 1350Q664 1350 629 1349Q594 1348 551 1348Q501 1348 463
1217L462 1213L461 1208L457 1196Q295 769 189 432Q108 120 107 27Q107 19 112 11T123 2Q140 2 155 43Q167 77 179 133T195 209L297 580Q300 591 345 598Q377 603 445 609Q497 612 508 614L519 600Q519 553 524 416Q529 278 529 229Q529 113 512 14L541 -14Q551
-14 558 -13ZM519 1203T519 1163V1085Q519 1047 518 1016Q517 985 517 948V668Q404 643 312 643Q315 669 362 813T457 1091T517 1237Q519 1203 519 1163Z" />
<glyph unicode="&#xe7;" glyph-name="ccedilla" horiz-adv-x="720" d="M551 -92T551 -287Q551 -319 529 -357T471 -422T396 -449Q364 -449 336 -434T308 -394Q308 -373 330 -373Q343 -373 363 -383Q385 -394 396 -394Q431 -394 453 -351T476 -251Q476 -184 445
-160Q436 -160 418 -163Q401 -167 390 -167Q360 -167 334 -126Q350 -87 351 -17L346 -15Q307 -3 279 20T226 89Q184 169 175 323Q171 370 171 446V680Q171 760 172 805T180 937Q186 1031 198 1094T237 1220Q263 1285 300 1313Q319 1327 356 1342Q388 1354 407 1364H489L495
1363Q497 1362 500 1362Q509 1359 511 1359Q519 1355 520 1354Q525 1349 526 1346Q528 1338 528 1333L501 1303H415Q375 1303 344 1266T295 1170Q280 1120 270 1050T256 927Q253 879 253 838L249 827Q249 743 245 620Q241 497 241 414Q241 366 243 330T252 248Q258
203 273 169T312 100Q335 68 372 52T458 35Q488 35 509 53Q540 53 540 31Q540 16 514 -3T462 -33H404Q402 -63 402 -81Q551 -92 551 -287Z" />
<glyph unicode="&#xe8;" glyph-name="egrave" horiz-adv-x="640" d="M167 1766T264 1732T366 1697Q373 1697 381 1702T390 1714Q390 1731 351 1753Q317 1772 267 1792Q213 1813 186 1822Q176 1825 170 1827T161 1830Q143 1853 82 1853H69Q56 1844 56 1808Q56 1767
126 1767Q142 1767 159 1771Q167 1766 264 1732ZM186 54T185 42Q184 30 184 16Q187 -27 225 -27H394Q483 -27 483 10Q483 37 423 37L384 35L347 33Q298 33 280 48T259 111Q253 194 253 274L255 420L257 565Q257 680 253 727V733L263 743H272L339 733Q352 717 386
717Q405 717 416 732T427 770Q426 807 347 807Q342 807 312 805L278 803Q249 803 249 860Q249 924 253 1019Q257 1114 257 1178Q257 1228 255 1266L265 1278Q319 1276 431 1239Q469 1261 469 1280Q469 1299 431 1311Q393 1323 342 1329Q295 1334 282 1337Q272 1350
249 1350Q217 1350 204 1336T190 1292Q190 1242 194 1170Q198 1097 198 1047Q198 930 191 738Q184 546 184 430Q184 395 189 295Q194 195 194 160Q194 117 179 76L186 68Q186 54 185 42Z" />
<glyph unicode="&#xe9;" glyph-name="eacute" horiz-adv-x="640" d="M231 1676T241 1668T268 1660Q419 1789 524 1836L530 1867Q530 1899 485 1899Q478 1892 409 1839Q332 1780 287 1743Q231 1698 231 1690Q231 1676 241 1668ZM186 54T185 42Q184 30 184 16Q187
-27 225 -27H394Q483 -27 483 10Q483 37 423 37L384 35L347 33Q298 33 280 48T259 111Q253 194 253 274L255 420L257 565Q257 680 253 727V733L263 743H272L339 733Q352 717 386 717Q405 717 416 732T427 770Q426 807 347 807Q342 807 312 805L278 803Q249 803
249 860Q249 924 253 1019Q257 1114 257 1178Q257 1228 255 1266L265 1278Q319 1276 431 1239Q469 1261 469 1280Q469 1299 431 1311Q393 1323 342 1329Q295 1334 282 1337Q272 1350 249 1350Q217 1350 204 1336T190 1292Q190 1242 194 1170Q198 1097 198 1047Q198
930 191 738Q184 546 184 430Q184 395 189 295Q194 195 194 160Q194 117 179 76L186 68Q186 54 185 42Z" />
<glyph unicode="&#xea;" glyph-name="ecircumflex" horiz-adv-x="640" d="M496 1507T496 1526Q496 1530 488 1548L490 1559L475 1589L477 1602Q468 1631 453 1676Q434 1727 425 1765T416 1841Q416 1884 387 1884Q368 1884 328 1812T252 1654T215 1538L252 1512L287
1559Q289 1580 305 1629Q319 1673 341 1737T373 1825Q421 1647 432 1518L459 1501Q496 1507 496 1526ZM186 54T185 42Q184 30 184 16Q187 -27 225 -27H394Q483 -27 483 10Q483 37 423 37L384 35L347 33Q298 33 280 48T259 111Q253 194 253 274L255 420L257 565Q257
680 253 727V733L263 743H272L339 733Q352 717 386 717Q405 717 416 732T427 770Q426 807 347 807Q342 807 312 805L278 803Q249 803 249 860Q249 924 253 1019Q257 1114 257 1178Q257 1228 255 1266L265 1278Q319 1276 431 1239Q469 1261 469 1280Q469 1299 431
1311Q393 1323 342 1329Q295 1334 282 1337Q272 1350 249 1350Q217 1350 204 1336T190 1292Q190 1242 194 1170Q198 1097 198 1047Q198 930 191 738Q184 546 184 430Q184 395 189 295Q194 195 194 160Q194 117 179 76L186 68Q186 54 185 42Z" />
<glyph unicode="&#xeb;" glyph-name="edieresis" horiz-adv-x="640" d="M543 1669T556 1655T584 1640Q638 1640 638 1687Q638 1703 624 1719T593 1736Q574 1736 559 1720T543 1685Q543 1669 556 1655ZM83 1664T94 1648T122 1632Q142 1632 157 1641T173 1667Q173
1695 163 1714T132 1734Q114 1734 99 1718T83 1683Q83 1664 94 1648ZM186 54T185 42Q184 30 184 16Q187 -27 225 -27H394Q483 -27 483 10Q483 37 423 37L384 35L347 33Q298 33 280 48T259 111Q253 194 253 274L255 420L257 565Q257 680 253 727V733L263 743H272L339
733Q352 717 386 717Q405 717 416 732T427 770Q426 807 347 807Q342 807 312 805L278 803Q249 803 249 860Q249 924 253 1019Q257 1114 257 1178Q257 1228 255 1266L265 1278Q319 1276 431 1239Q469 1261 469 1280Q469 1299 431 1311Q393 1323 342 1329Q295 1334
282 1337Q272 1350 249 1350Q217 1350 204 1336T190 1292Q190 1242 194 1170Q198 1097 198 1047Q198 930 191 738Q184 546 184 430Q184 395 189 295Q194 195 194 160Q194 117 179 76L186 68Q186 54 185 42Z" />
<glyph unicode="&#xec;" glyph-name="igrave" horiz-adv-x="700" d="M139 1766T236 1732T338 1697Q345 1697 353 1702T362 1714Q362 1731 323 1753Q289 1772 239 1792Q185 1813 158 1822Q148 1825 142 1827T133 1830Q115 1853 54 1853H41Q28 1844 28 1808Q28 1767
98 1767Q114 1767 131 1771Q139 1766 236 1732ZM308 0T356 0Q369 0 391 12Q415 23 429 23Q441 23 463 20Q483 16 497 16Q516 16 529 27T542 57Q542 86 481 86Q464 86 451 85Q438 84 421 84Q376 84 376 104L378 109Q372 118 372 166Q372 188 373 203L374 229Q374
314 367 454Q360 593 360 678Q360 759 363 922Q366 1084 366 1165Q366 1256 360 1274L370 1280Q413 1280 429 1268L476 1272Q481 1284 481 1288Q481 1310 445 1323Q404 1338 351 1342Q263 1350 196 1350Q183 1350 165 1342T147 1325Q147 1290 186 1290L211 1292L235
1294Q277 1294 296 1288Q306 1195 306 1051Q306 990 301 813Q296 635 296 573Q296 507 304 349Q311 210 311 125Q311 118 308 101Q304 86 304 82L296 74H237L225 63Q216 57 213 52T210 39Q222 18 266 18Q275 18 283 19Q290 20 300 20Q308 0 356 0Z" />
<glyph unicode="&#xed;" glyph-name="iacute" horiz-adv-x="700" d="M203 1676T213 1668T240 1660Q391 1789 496 1836L502 1867Q502 1899 457 1899Q450 1892 381 1839Q304 1780 259 1743Q203 1698 203 1690Q203 1676 213 1668ZM308 0T356 0Q369 0 391 12Q415 23
429 23Q441 23 463 20Q483 16 497 16Q516 16 529 27T542 57Q542 86 481 86Q464 86 451 85Q438 84 421 84Q376 84 376 104L378 109Q372 118 372 166Q372 188 373 203L374 229Q374 314 367 454Q360 593 360 678Q360 759 363 922Q366 1084 366 1165Q366 1256 360 1274L370
1280Q413 1280 429 1268L476 1272Q481 1284 481 1288Q481 1310 445 1323Q404 1338 351 1342Q263 1350 196 1350Q183 1350 165 1342T147 1325Q147 1290 186 1290L211 1292L235 1294Q277 1294 296 1288Q306 1195 306 1051Q306 990 301 813Q296 635 296 573Q296 507
304 349Q311 210 311 125Q311 118 308 101Q304 86 304 82L296 74H237L225 63Q216 57 213 52T210 39Q222 18 266 18Q275 18 283 19Q290 20 300 20Q308 0 356 0Z" />
<glyph unicode="&#xee;" glyph-name="icircumflex" horiz-adv-x="700" d="M468 1507T468 1526Q468 1530 460 1548L462 1559L447 1589L449 1602Q440 1631 425 1676Q406 1727 397 1765T388 1841Q388 1884 359 1884Q340 1884 300 1812T224 1654T187 1538L224 1512L259
1559Q261 1580 277 1629Q291 1673 313 1737T345 1825Q393 1647 404 1518L431 1501Q468 1507 468 1526ZM308 0T356 0Q369 0 391 12Q415 23 429 23Q441 23 463 20Q483 16 497 16Q516 16 529 27T542 57Q542 86 481 86Q464 86 451 85Q438 84 421 84Q376 84 376 104L378
109Q372 118 372 166Q372 188 373 203L374 229Q374 314 367 454Q360 593 360 678Q360 759 363 922Q366 1084 366 1165Q366 1256 360 1274L370 1280Q413 1280 429 1268L476 1272Q481 1284 481 1288Q481 1310 445 1323Q404 1338 351 1342Q263 1350 196 1350Q183 1350
165 1342T147 1325Q147 1290 186 1290L211 1292L235 1294Q277 1294 296 1288Q306 1195 306 1051Q306 990 301 813Q296 635 296 573Q296 507 304 349Q311 210 311 125Q311 118 308 101Q304 86 304 82L296 74H237L225 63Q216 57 213 52T210 39Q222 18 266 18Q275
18 283 19Q290 20 300 20Q308 0 356 0Z" />
<glyph unicode="&#xef;" glyph-name="idieresis" horiz-adv-x="700" d="M515 1669T528 1655T556 1640Q610 1640 610 1687Q610 1703 596 1719T565 1736Q546 1736 531 1720T515 1685Q515 1669 528 1655ZM55 1664T66 1648T94 1632Q114 1632 129 1641T145 1667Q145
1695 135 1714T104 1734Q86 1734 71 1718T55 1683Q55 1664 66 1648ZM308 0T356 0Q369 0 391 12Q415 23 429 23Q441 23 463 20Q483 16 497 16Q516 16 529 27T542 57Q542 86 481 86Q464 86 451 85Q438 84 421 84Q376 84 376 104L378 109Q372 118 372 166Q372 188
373 203L374 229Q374 314 367 454Q360 593 360 678Q360 759 363 922Q366 1084 366 1165Q366 1256 360 1274L370 1280Q413 1280 429 1268L476 1272Q481 1284 481 1288Q481 1310 445 1323Q404 1338 351 1342Q263 1350 196 1350Q183 1350 165 1342T147 1325Q147 1290
186 1290L211 1292L235 1294Q277 1294 296 1288Q306 1195 306 1051Q306 990 301 813Q296 635 296 573Q296 507 304 349Q311 210 311 125Q311 118 308 101Q304 86 304 82L296 74H237L225 63Q216 57 213 52T210 39Q222 18 266 18Q275 18 283 19Q290 20 300 20Q308
0 356 0Z" />
<glyph unicode="&#xf0;" glyph-name="eth" horiz-adv-x="680" d="M545 1333T533 1333Q499 1333 451 1329Q398 1569 293 1569Q286 1569 278 1563T269 1550Q269 1538 280 1529T314 1510Q330 1504 339 1497Q376 1466 400 1323Q331 1313 269 1313Q246 1313 246 1284Q246
1276 257 1276Q290 1276 404 1288Q430 1123 437 897Q414 913 392 913Q354 913 323 889T270 819Q246 769 231 718T207 602Q196 523 191 471T183 355Q179 262 179 170Q179 137 182 111Q184 83 193 56T216 12Q232 -7 258 -18T320 -29Q358 -29 387 -8T433 49Q447 80
456 126T469 216Q476 343 480 369Q490 599 490 807V815Q490 1103 455 1296Q543 1306 543 1313L545 1323Q545 1333 533 1333ZM437 433T404 166Q402 160 401 138Q398 108 392 79Q389 62 384 54T365 32Q346 12 304 12Q228 12 228 174Q228 243 235 405Q241 552 275
713Q290 785 316 826T375 868Q416 860 437 844V727Q437 433 404 166Z" />
<glyph unicode="&#xf1;" glyph-name="ntilde" horiz-adv-x="1000" d="M273 1594T286 1583T312 1571L334 1602Q324 1635 324 1645Q324 1668 347 1684T400 1700L414 1694Q447 1655 466 1636Q488 1613 525 1593T596 1573Q624 1573 649 1588T689 1628T705 1681Q705
1710 693 1730T658 1751Q643 1751 637 1739Q639 1731 644 1721Q649 1706 649 1700Q649 1627 596 1627Q566 1627 530 1651T479 1706Q443 1748 392 1748Q342 1748 308 1709T273 1606Q273 1594 286 1583ZM554 387T582 311Q636 166 650 76L648 70Q653 62 657 41Q662
17 670 5T693 -8Q697 -8 715 -3L716 -4V-3Q740 4 751 6Q764 32 779 256T805 748T816 1128L827 1145V1282Q827 1304 814 1322T782 1341Q753 1341 753 1298L755 1272L757 1247Q757 583 710 131L706 125Q677 175 656 239T614 394Q594 477 581 520Q544 634 435 887Q323
1147 288 1294L286 1305L283 1317Q279 1328 274 1335Q265 1344 255 1348L235 1343L229 1350Q192 1319 192 1218V1192Q192 1133 186 1011Q179 898 179 829Q179 717 186 535Q192 339 192 240Q192 212 188 173Q184 133 184 106Q184 -4 227 -4Q244 -4 254 8T265 37Q265
66 257 80V264Q243 301 243 641H249L245 707Q241 751 241 784L243 833L245 883L243 963L241 1044Q241 1127 257 1188Q305 1142 489 571Q537 426 544 418Q554 387 582 311Z" />
<glyph unicode="&#xf2;" glyph-name="ograve" horiz-adv-x="820" d="M227 1766T324 1732T426 1697Q433 1697 441 1702T450 1714Q450 1731 411 1753Q377 1772 327 1792Q273 1813 246 1822Q236 1825 230 1827T221 1830Q203 1853 142 1853H129Q116 1844 116 1808Q116
1767 186 1767Q202 1767 219 1771Q227 1766 324 1732ZM457 -39T492 -14Q527 9 550 46T592 140Q608 192 617 242T633 359Q638 415 639 459T640 547L638 669L636 791L640 801Q640 931 619 1050T554 1243Q516 1315 476 1322Q472 1323 431 1330T347 1352Q329 1357 319
1357Q171 1357 171 786V715Q171 -39 411 -39Q457 -39 492 -14ZM237 636L235 717Q235 741 240 813Q245 885 245 909Q252 941 254 986T257 1069T258 1116Q259 1160 267 1204Q284 1294 378 1294Q425 1294 464 1264T527 1183T550 1073L546 1063L554 1047Q554 966 566
805Q577 637 577 563Q577 472 569 367Q560 246 522 134Q504 80 473 50T403 20Q362 20 331 69Q302 115 285 178T256 333Q239 465 239 555L237 636Z" />
<glyph unicode="&#xf3;" glyph-name="oacute" horiz-adv-x="820" d="M291 1676T301 1668T328 1660Q479 1789 584 1836L590 1867Q590 1899 545 1899Q538 1892 469 1839Q392 1780 347 1743Q291 1698 291 1690Q291 1676 301 1668ZM457 -39T492 -14Q527 9 550 46T592
140Q608 192 617 242T633 359Q638 415 639 459T640 547L638 669L636 791L640 801Q640 931 619 1050T554 1243Q516 1315 476 1322Q472 1323 431 1330T347 1352Q329 1357 319 1357Q171 1357 171 786V715Q171 -39 411 -39Q457 -39 492 -14ZM237 636L235 717Q235 741
240 813Q245 885 245 909Q252 941 254 986T257 1069T258 1116Q259 1160 267 1204Q284 1294 378 1294Q425 1294 464 1264T527 1183T550 1073L546 1063L554 1047Q554 966 566 805Q577 637 577 563Q577 472 569 367Q560 246 522 134Q504 80 473 50T403 20Q362 20 331
69Q302 115 285 178T256 333Q239 465 239 555L237 636Z" />
<glyph unicode="&#xf4;" glyph-name="ocircumflex" horiz-adv-x="820" d="M556 1507T556 1526Q556 1530 548 1548L550 1559L535 1589L537 1602Q528 1631 513 1676Q494 1727 485 1765T476 1841Q476 1884 447 1884Q428 1884 388 1812T312 1654T275 1538L312 1512L347
1559Q349 1580 365 1629Q379 1673 401 1737T433 1825Q481 1647 492 1518L519 1501Q556 1507 556 1526ZM457 -39T492 -14Q527 9 550 46T592 140Q608 192 617 242T633 359Q638 415 639 459T640 547L638 669L636 791L640 801Q640 931 619 1050T554 1243Q516 1315 476
1322Q472 1323 431 1330T347 1352Q329 1357 319 1357Q171 1357 171 786V715Q171 -39 411 -39Q457 -39 492 -14ZM237 636L235 717Q235 741 240 813Q245 885 245 909Q252 941 254 986T257 1069T258 1116Q259 1160 267 1204Q284 1294 378 1294Q425 1294 464 1264T527
1183T550 1073L546 1063L554 1047Q554 966 566 805Q577 637 577 563Q577 472 569 367Q560 246 522 134Q504 80 473 50T403 20Q362 20 331 69Q302 115 285 178T256 333Q239 465 239 555L237 636Z" />
<glyph unicode="&#xf5;" glyph-name="otilde" horiz-adv-x="820" d="M183 1594T196 1583T222 1571L244 1602Q234 1635 234 1645Q234 1668 257 1684T310 1700L324 1694Q357 1655 376 1636Q398 1613 435 1593T506 1573Q534 1573 559 1588T599 1628T615 1681Q615
1710 603 1730T568 1751Q553 1751 547 1739Q549 1731 554 1721Q559 1706 559 1700Q559 1627 506 1627Q476 1627 440 1651T389 1706Q353 1748 302 1748Q252 1748 218 1709T183 1606Q183 1594 196 1583ZM457 -39T492 -14Q527 9 550 46T592 140Q608 192 617 242T633
359Q638 415 639 459T640 547L638 669L636 791L640 801Q640 931 619 1050T554 1243Q516 1315 476 1322Q472 1323 431 1330T347 1352Q329 1357 319 1357Q171 1357 171 786V715Q171 -39 411 -39Q457 -39 492 -14ZM237 636L235 717Q235 741 240 813Q245 885 245 909Q252
941 254 986T257 1069T258 1116Q259 1160 267 1204Q284 1294 378 1294Q425 1294 464 1264T527 1183T550 1073L546 1063L554 1047Q554 966 566 805Q577 637 577 563Q577 472 569 367Q560 246 522 134Q504 80 473 50T403 20Q362 20 331 69Q302 115 285 178T256 333Q239
465 239 555L237 636Z" />
<glyph unicode="&#xf6;" glyph-name="odieresis" horiz-adv-x="820" d="M603 1669T616 1655T644 1640Q698 1640 698 1687Q698 1703 684 1719T653 1736Q634 1736 619 1720T603 1685Q603 1669 616 1655ZM143 1664T154 1648T182 1632Q202 1632 217 1641T233 1667Q233
1695 223 1714T192 1734Q174 1734 159 1718T143 1683Q143 1664 154 1648ZM457 -39T492 -14Q527 9 550 46T592 140Q608 192 617 242T633 359Q638 415 639 459T640 547L638 669L636 791L640 801Q640 931 619 1050T554 1243Q516 1315 476 1322Q472 1323 431 1330T347
1352Q329 1357 319 1357Q171 1357 171 786V715Q171 -39 411 -39Q457 -39 492 -14ZM237 636L235 717Q235 741 240 813Q245 885 245 909Q252 941 254 986T257 1069T258 1116Q259 1160 267 1204Q284 1294 378 1294Q425 1294 464 1264T527 1183T550 1073L546 1063L554
1047Q554 966 566 805Q577 637 577 563Q577 472 569 367Q560 246 522 134Q504 80 473 50T403 20Q362 20 331 69Q302 115 285 178T256 333Q239 465 239 555L237 636Z" />
<glyph unicode="&#xf7;" glyph-name="divide" horiz-adv-x="720" d="M415 928T429 941T444 969Q444 1022 397 1022Q381 1022 365 1008T348 977Q348 958 364 943T399 928Q415 928 429 941ZM569 725T569 741Q569 748 562 755T546 762H356Q155 762 155 756Q155 741
167 731T198 721H417Q465 721 530 725Q569 725 569 741ZM420 467T436 478T452 506Q452 526 443 541T417 557Q389 557 370 547T350 516Q350 498 366 483T401 467Q420 467 436 478Z" />
<glyph unicode="&#xf8;" glyph-name="oslash" horiz-adv-x="720" d="M185 -248T204 -248Q227 -248 257 8L259 23H261Q286 -14 351 -14Q389 -14 419 4Q449 21 468 46T502 113Q516 153 522 187T533 271Q538 334 538 410Q538 470 535 587Q532 704 532 764L527 770V780Q527
831 514 925Q501 1017 501 1069L505 1071Q505 1145 482 1196Q481 1199 468 1220Q455 1241 454 1251L456 1255L448 1268L439 1282Q435 1288 432 1296T429 1311Q429 1323 450 1443Q470 1566 470 1573V1591H437Q430 1563 415 1478L411 1455L392 1350L378 1364L372
1360Q371 1361 346 1375Q327 1382 316 1382Q179 1382 179 993V870Q179 420 220 172Q223 157 228 141Q235 119 235 104Q229 39 210 -57Q192 -152 185 -219Q185 -248 204 -248ZM220 686T220 768V782Q220 1292 278 1323L288 1321Q317 1331 319 1331Q342 1331 360 1316T378
1280Q378 1229 365 1135Q360 1104 355 1069Q350 1036 332 860Q275 349 259 254Q259 321 247 451Q235 582 235 647Q220 686 220 768ZM284 145T298 201Q306 233 326 416Q384 996 421 1217Q451 1159 467 973Q482 805 485 676T489 369Q489 25 368 25Q323 25 304 45T284
111Q284 145 298 201Z" />
<glyph unicode="&#xf9;" glyph-name="ugrave" horiz-adv-x="800" d="M217 1766T314 1732T416 1697Q423 1697 431 1702T440 1714Q440 1731 401 1753Q367 1772 317 1792Q263 1813 236 1822Q226 1825 220 1827T211 1830Q193 1853 132 1853H119Q106 1844 106 1808Q106
1767 176 1767Q192 1767 209 1771Q217 1766 314 1732ZM442 -31T479 3T538 100Q580 224 587 401Q593 538 596 739Q598 841 601 879Q601 891 600 900Q599 909 599 920Q599 939 604 1001Q609 1063 609 1083Q609 1090 607 1096Q620 1145 620 1305Q620 1361 615 1376Q609
1389 585 1389Q550 1389 550 1366L552 1348L554 1329Q554 997 540 496L537 454Q511 25 417 25Q263 25 263 258Q263 323 252 475Q241 627 241 692L235 1235Q235 1342 188 1348L175 1319Q182 1265 185 1121T193 703L194 637Q197 419 214 248T259 41Q283 12 321 -9T392
-31Q442 -31 479 3Z" />
<glyph unicode="&#xfa;" glyph-name="uacute" horiz-adv-x="800" d="M281 1676T291 1668T318 1660Q469 1789 574 1836L580 1867Q580 1899 535 1899Q528 1892 459 1839Q382 1780 337 1743Q281 1698 281 1690Q281 1676 291 1668ZM442 -31T479 3T538 100Q580 224
587 401Q593 538 596 739Q598 841 601 879Q601 891 600 900Q599 909 599 920Q599 939 604 1001Q609 1063 609 1083Q609 1090 607 1096Q620 1145 620 1305Q620 1361 615 1376Q609 1389 585 1389Q550 1389 550 1366L552 1348L554 1329Q554 997 540 496L537 454Q511
25 417 25Q263 25 263 258Q263 323 252 475Q241 627 241 692L235 1235Q235 1342 188 1348L175 1319Q182 1265 185 1121T193 703L194 637Q197 419 214 248T259 41Q283 12 321 -9T392 -31Q442 -31 479 3Z" />
<glyph unicode="&#xfb;" glyph-name="ucircumflex" horiz-adv-x="800" d="M546 1507T546 1526Q546 1530 538 1548L540 1559L525 1589L527 1602Q518 1631 503 1676Q484 1727 475 1765T466 1841Q466 1884 437 1884Q418 1884 378 1812T302 1654T265 1538L302 1512L337
1559Q339 1580 355 1629Q369 1673 391 1737T423 1825Q471 1647 482 1518L509 1501Q546 1507 546 1526ZM442 -31T479 3T538 100Q580 224 587 401Q593 538 596 739Q598 841 601 879Q601 891 600 900Q599 909 599 920Q599 939 604 1001Q609 1063 609 1083Q609 1090
607 1096Q620 1145 620 1305Q620 1361 615 1376Q609 1389 585 1389Q550 1389 550 1366L552 1348L554 1329Q554 997 540 496L537 454Q511 25 417 25Q263 25 263 258Q263 323 252 475Q241 627 241 692L235 1235Q235 1342 188 1348L175 1319Q182 1265 185 1121T193
703L194 637Q197 419 214 248T259 41Q283 12 321 -9T392 -31Q442 -31 479 3Z" />
<glyph unicode="&#xfc;" glyph-name="udieresis" horiz-adv-x="800" d="M593 1669T606 1655T634 1640Q688 1640 688 1687Q688 1703 674 1719T643 1736Q624 1736 609 1720T593 1685Q593 1669 606 1655ZM133 1664T144 1648T172 1632Q192 1632 207 1641T223 1667Q223
1695 213 1714T182 1734Q164 1734 149 1718T133 1683Q133 1664 144 1648ZM442 -31T479 3T538 100Q580 224 587 401Q593 538 596 739Q598 841 601 879Q601 891 600 900Q599 909 599 920Q599 939 604 1001Q609 1063 609 1083Q609 1090 607 1096Q620 1145 620 1305Q620
1361 615 1376Q609 1389 585 1389Q550 1389 550 1366L552 1348L554 1329Q554 997 540 496L537 454Q511 25 417 25Q263 25 263 258Q263 323 252 475Q241 627 241 692L235 1235Q235 1342 188 1348L175 1319Q182 1265 185 1121T193 703L194 637Q197 419 214 248T259
41Q283 12 321 -9T392 -31Q442 -31 479 3Z" />
<glyph unicode="&#xfd;" glyph-name="yacute" horiz-adv-x="720" d="M241 1676T251 1668T278 1660Q429 1789 534 1836L540 1867Q540 1899 495 1899Q488 1892 419 1839Q342 1780 297 1743Q241 1698 241 1690Q241 1676 251 1668ZM361 -15T371 -23T388 -31Q431 -31
431 108V117Q431 208 430 280Q429 352 429 442Q429 470 421 536Q413 602 413 629Q413 641 419 660Q425 678 425 688Q425 699 415 723Q415 810 439 910Q450 960 461 1001T489 1097L495 1119Q552 1308 552 1339Q552 1348 544 1354T525 1360Q501 1360 472 1246Q445
1136 420 1004Q394 875 380 858L384 848L376 811Q360 816 322 943L307 991Q270 1114 243 1199Q203 1326 183 1329L155 1307Q157 1281 172 1230Q185 1183 211 1108T246 1011L268 950Q293 880 318 813T355 717L349 692L362 666L371 521Q378 417 378 350Q378 43 358
-8Q361 -15 371 -23Z" />
<glyph unicode="&#xfe;" glyph-name="thorn" horiz-adv-x="660" d="M542 721T476 628T286 486Q285 428 294 275Q302 133 302 74Q302 40 291 25T255 10Q243 10 235 23T227 58Q227 229 216 620Q205 1011 205 1178L203 1487Q203 1509 210 1518T233 1527Q259 1527
273 1491T287 1380Q287 1347 284 1294Q282 1271 281 1254T280 1230V1214Q358 1210 422 1153T517 1005Q542 929 542 845Q542 721 476 628ZM383 595T430 666T478 828Q478 902 472 941T446 1015Q426 1051 401 1075T311 1150H277L279 850L281 532Q383 595 430 666Z"
/>
<glyph unicode="&#xff;" glyph-name="ydieresis" horiz-adv-x="720" d="M553 1669T566 1655T594 1640Q648 1640 648 1687Q648 1703 634 1719T603 1736Q584 1736 569 1720T553 1685Q553 1669 566 1655ZM93 1664T104 1648T132 1632Q152 1632 167 1641T183 1667Q183
1695 173 1714T142 1734Q124 1734 109 1718T93 1683Q93 1664 104 1648ZM361 -15T371 -23T388 -31Q431 -31 431 108V117Q431 208 430 280Q429 352 429 442Q429 470 421 536Q413 602 413 629Q413 641 419 660Q425 678 425 688Q425 699 415 723Q415 810 439 910Q450
960 461 1001T489 1097L495 1119Q552 1308 552 1339Q552 1348 544 1354T525 1360Q501 1360 472 1246Q445 1136 420 1004Q394 875 380 858L384 848L376 811Q360 816 322 943L307 991Q270 1114 243 1199Q203 1326 183 1329L155 1307Q157 1281 172 1230Q185 1183 211
1108T246 1011L268 950Q293 880 318 813T355 717L349 692L362 666L371 521Q378 417 378 350Q378 43 358 -8Q361 -15 371 -23Z" />
<glyph unicode="&#x2013;" glyph-name="endash" horiz-adv-x="880" d="M744 741T730 751T699 762H406Q123 762 123 756Q123 741 135 731T166 721H467Q682 721 682 727H744Q744 741 730 751Z" />
<glyph unicode="&#x2014;" glyph-name="emdash" horiz-adv-x="1060" d="M983 741T968 751T937 762H645Q75 762 75 756Q75 741 87 731T118 721H706Q921 721 921 727H983Q983 741 968 751Z" />
<glyph unicode="&#x2018;" glyph-name="quoteleft" horiz-adv-x="560" d="M317 1553T277 1505Q239 1459 213 1401T187 1307Q187 1289 191 1282L187 1276Q208 1217 255 1217Q285 1217 309 1235T333 1280Q333 1305 316 1329T273 1370Q273 1389 279 1405Q288 1431
324 1467Q337 1480 353 1496T380 1520L384 1538L351 1554Q317 1553 277 1505Z" />
<glyph unicode="&#x2019;" glyph-name="quoteright" horiz-adv-x="390" d="M166 1218T206 1266Q244 1312 270 1370T296 1464Q296 1482 292 1489L296 1495Q275 1554 228 1554Q198 1554 174 1536T150 1491Q150 1466 167 1442T210 1401Q210 1383 204 1366Q196 1343
160 1304Q147 1291 130 1275T103 1251L99 1233L132 1217Q166 1218 206 1266Z" />
<glyph unicode="&#x201a;" glyph-name="quotesinglbase" horiz-adv-x="560" d="M230 -177T270 -128Q308 -82 334 -24T360 70Q360 87 356 94L360 100Q338 160 292 160Q263 160 239 142T215 96Q215 70 232 46T274 6Q274 -13 268 -29Q257 -57 223 -91Q199 -115 167
-143L163 -162L196 -178Q230 -177 270 -128Z" />
<glyph unicode="&#x201c;" glyph-name="quotedblleft" horiz-adv-x="700" d="M285 1553T245 1505Q207 1459 181 1401T155 1307Q155 1289 159 1282L155 1276Q176 1217 223 1217Q253 1217 277 1235T301 1280Q301 1305 284 1329T241 1370Q241 1389 247 1405Q256 1431
292 1467Q305 1480 321 1496T348 1520L352 1538L319 1554Q285 1553 245 1505ZM498 1553T458 1505Q420 1459 394 1401T368 1307Q368 1289 372 1282L368 1276Q389 1217 436 1217Q466 1217 490 1235T514 1280Q514 1305 497 1329T454 1370Q454 1389 460 1405Q469 1431
505 1467Q518 1480 534 1496T561 1520L565 1538L532 1554Q498 1553 458 1505Z" />
<glyph unicode="&#x201d;" glyph-name="quotedblright" horiz-adv-x="720" d="M214 1218T254 1266Q292 1312 318 1370T344 1464Q344 1482 340 1489L344 1495Q323 1554 276 1554Q246 1554 222 1536T198 1491Q198 1466 215 1442T258 1401Q258 1383 252 1366Q244
1343 208 1304Q195 1291 178 1275T151 1251L147 1233L180 1217Q214 1218 254 1266ZM460 1218T500 1266Q538 1312 564 1370T590 1464Q590 1482 586 1489L590 1495Q569 1554 522 1554Q492 1554 468 1536T444 1491Q444 1466 461 1442T504 1401Q504 1383 498 1366Q490
1343 454 1304Q441 1291 424 1275T397 1251L393 1233L426 1217Q460 1218 500 1266Z" />
<glyph unicode="&#x201e;" glyph-name="quotedblbase" horiz-adv-x="720" d="M190 -174T233 -126Q274 -80 299 -21T324 82Q324 114 305 137T256 160Q227 160 203 142T179 96Q179 70 196 46T238 6Q238 -24 219 -50T163 -108Q134 -134 123 -158L148 -174Q190 -174
233 -126ZM423 -176T463 -126Q501 -78 525 -18T549 82Q549 114 530 137T482 160Q452 160 428 142T404 96Q404 70 421 46T463 6Q463 -32 437 -63Q424 -79 413 -91T383 -119L357 -143L353 -162L385 -178Q423 -176 463 -126Z" />
<glyph unicode="&#x2022;" glyph-name="bullet" horiz-adv-x="620" d="M171 665T188 637T233 590T296 571Q339 571 370 588T417 636Q443 688 443 741Q443 792 401 825T288 858Q254 858 227 833T186 769T171 690Q171 665 188 637Z" />
<glyph unicode="&#x2039;" glyph-name="guilsinglleft" horiz-adv-x="700" d="M511 2L524 0Q532 0 540 13T552 39L534 53Q499 111 359 397T219 700Q219 753 253 847T336 1039Q387 1142 426 1241T475 1401L448 1421Q435 1420 421 1395Q409 1373 401 1350T382 1287L370
1247Q359 1211 301 1081Q247 961 195 837Q147 723 147 698Q147 668 185 618Q223 566 229 549Q238 529 253 499L274 455L376 242L412 164Q460 53 493 4H497L511 2Z" />
<glyph unicode="&#x203a;" glyph-name="guilsinglright" horiz-adv-x="700" d="M230 68L241 90L417 455L438 498Q454 529 462 549Q469 567 507 618Q544 668 544 698Q544 724 496 838Q448 952 391 1081Q334 1207 321 1247L310 1288L293 1346Q285 1373 271 1395T243
1421L217 1401Q226 1340 266 1240T357 1039Q406 940 439 847T473 700Q473 684 337 408T157 53L139 39Q141 27 150 14T168 0L182 2L198 4L230 68Z" />
</font>
</defs>
</svg>
