<?xml version="1.0" standalone="no"?>
<!DOCTYPE svg PUBLIC "-//W3C//DTD SVG 1.1//EN" "http://www.w3.org/Graphics/SVG/1.1/DTD/svg11.dtd">
<svg xmlns="http://www.w3.org/2000/svg">
<defs >
<font id="Rasa" horiz-adv-x="1323" ><font-face
    font-family="Rasa Light"
    units-per-em="2750"
    panose-1="2 13 0 0 0 4 0 0 0 0"
    ascent="2300"
    descent="-1050"
    alphabetic="0" />
<glyph unicode=" " glyph-name="space" horiz-adv-x="618" />
<glyph unicode="!" glyph-name="exclam" horiz-adv-x="640" d="M224 1562V1712H415V1562L369 447H271L224 1562ZM438 96Q438 45 405 12T320 -22Q268 -22 235 11T202 96Q202 148 235 181T320 214Q372 214 405 181T438 96Z" />
<glyph unicode="&quot;" glyph-name="quotedbl" horiz-adv-x="1019" d="M714 961L676 1684H860L821 961H714ZM198 961L160 1684H344L305 961H198Z" />
<glyph unicode="#" glyph-name="numbersign" horiz-adv-x="1429" d="M501 469H869L913 921H542L501 469ZM318 0L353 364H129V469H366L408 921H163V1026H417L447 1373H583L553 1026H924L955 1373H1090L1059 1026H1304V921H1049L1009 469H1260V364H998L966 0H831L862
364H489L456 0H318Z" />
<glyph unicode="$" glyph-name="dollar" horiz-adv-x="1143" d="M614 -210H485V20Q366 30 271 64T125 131Q123 209 126 289T141 454H249L281 272Q283 259 290 245T311 216Q345 180 415 148T585 116Q720 116 793 181T866 344Q866 443 786 500T549 629Q479 660 408
695T281 776T190 882T154 1023Q154 1156 254 1250T544 1358V1583H673V1358Q752 1352 829 1334T963 1289Q970 1204 967 1129T951 982L846 980L813 1140Q811 1150 803 1165T775 1197Q746 1222 691 1241T558 1261Q431 1261 372 1205T312 1066Q312 1015 334 977T398
907T502 845T644 778Q729 738 802 699T927 615T1009 515T1039 390Q1039 325 1013 262T933 148T800 62T614 19V-210Z" />
<glyph unicode="%" glyph-name="percent" horiz-adv-x="1889" d="M830 1163Q830 1057 797 975T711 837T590 754T453 725Q369 725 301 755T185 838T112 964T86 1124Q86 1230 119 1312T205 1450T326 1533T463 1562Q547 1562 615 1532T731 1449T804 1323T830 1163ZM549
0H397L1340 1562H1492L549 0ZM241 1156Q241 1015 302 922T469 829Q565 829 617 913T670 1130Q670 1199 655 1259T610 1363T539 1432T442 1458Q346 1458 294 1374T241 1156ZM1803 438Q1803 332 1770 250T1684 112T1563 29T1426 0Q1342 0 1274 30T1158 113T1085 239T1059
399Q1059 505 1092 587T1178 725T1299 808T1436 837Q1520 837 1588 807T1704 724T1777 598T1803 438ZM1214 431Q1214 290 1275 197T1442 104Q1538 104 1590 188T1643 405Q1643 474 1628 534T1583 638T1512 707T1415 733Q1319 733 1267 649T1214 431Z" />
<glyph unicode="&amp;" glyph-name="ampersand" horiz-adv-x="1582" d="M409 1232Q409 1172 441 1086T573 862Q624 900 671 941T754 1030T811 1134T833 1256Q833 1299 823 1343T789 1421T728 1478T636 1500Q580 1500 537 1476T466 1414T424 1328T409 1232ZM614
76Q704 76 789 104T944 183L943 184Q886 240 823 309T698 448T582 587T484 709Q408 652 348 575T287 379Q287 248 372 162T614 76ZM1288 -13Q1225 -13 1161 16T1015 116Q923 38 808 6T586 -26Q492 -26 408 -3T260 67T160 188T122 361Q122 446 149 512T219 629T318
715T431 778Q343 900 295 1003T247 1207Q247 1281 272 1348T347 1467T468 1549T632 1580Q708 1580 774 1558T887 1494T961 1391T988 1252Q988 1098 886 988T621 798Q670 735 727 669T842 537T958 411T1069 297Q1129 375 1151 475T1174 669Q1174 683 1168 703T1127
731L968 763V851H1465V763L1364 731Q1335 722 1327 708T1314 666Q1299 545 1263 436T1137 230Q1177 192 1208 169T1275 133T1355 116T1466 112V25Q1427 11 1382 -1T1288 -13Z" />
<glyph unicode="&apos;" glyph-name="quotesingle" horiz-adv-x="503" d="M198 961L160 1684H344L305 961H198Z" />
<glyph unicode="(" glyph-name="parenleft" horiz-adv-x="702" d="M653 -384L582 -452Q551 -423 475 -331T321 -83T183 298T123 812Q123 1068 179 1279T312 1645T465 1902T582 2042L653 1974Q612 1924 552 1828T436 1592T339 1266T293 849Q289 584 333 372T437
5T560 -247T653 -384Z" />
<glyph unicode=")" glyph-name="parenright" horiz-adv-x="702" d="M579 778Q579 522 523 311T390 -55T237 -312T120 -452L49 -384Q90 -334 150 -238T266 -2T363 324T409 741Q413 1006 369 1218T265 1585T142 1837T49 1974L120 2042Q151 2013 227 1921T381 1673T519
1292T579 778Z" />
<glyph unicode="*" glyph-name="asterisk" horiz-adv-x="1202" d="M656 1136L686 842H516L546 1135L577 1278L470 1180L230 1007L145 1154L414 1275L553 1319L414 1364L145 1485L230 1632L470 1459L577 1361L546 1504L516 1797H686L656 1503L625 1361L733 1459L972
1632L1057 1485L787 1364L649 1320L787 1275L1057 1154L972 1007L733 1180L625 1278L656 1136Z" />
<glyph unicode="+" glyph-name="plus" horiz-adv-x="1149" d="M642 155H507V382L513 557L339 551H122V678H339L513 672L507 847V1074H642V847L636 672L810 678H1027V551H810L636 557L642 382V155Z" />
<glyph unicode="," glyph-name="comma" horiz-adv-x="605" d="M443 65Q443 -70 367 -188T166 -379L124 -324Q207 -255 247 -181T288 -41Q288 -7 276 6T242 31Q215 46 190 75T164 153Q164 204 199 241T288 279Q346 279 394 227T443 65Z" />
<glyph unicode="-" glyph-name="hyphen" horiz-adv-x="1089" d="M172 534V658H917V534H172Z" />
<glyph unicode="." glyph-name="period" horiz-adv-x="566" d="M413 108Q413 51 377 15T283 -22Q226 -22 190 14T153 108Q153 165 189 201T283 238Q340 238 376 202T413 108Z" />
<glyph unicode="/" glyph-name="slash" horiz-adv-x="944" d="M234 -288H81L713 1742H866L234 -288Z" />
<glyph unicode="0" glyph-name="zero" horiz-adv-x="1294" d="M635 -18Q492 -18 398 40T248 193T169 415T146 676Q146 1027 283 1211T661 1396Q803 1396 897 1338T1047 1184T1125 962T1148 700Q1148 343 1011 163T635 -18ZM634 1290Q548 1290 490 1250T398 1137T349
957T334 719Q334 590 348 475T399 274T498 138T659 88Q745 88 803 127T895 240T945 420T960 657Q960 788 946 903T895 1104T795 1240T634 1290Z" />
<glyph unicode="1" glyph-name="one" horiz-adv-x="922" d="M602 1379V182Q602 154 617 140T660 121L870 88V0H143V88L369 121Q397 125 417 139T437 182V1196Q416 1186 380 1174T303 1151T219 1130T143 1116L121 1212Q223 1234 326 1285T504 1400L602 1379Z" />
<glyph unicode="2" glyph-name="two" horiz-adv-x="1180" d="M1008 0H144L101 111Q301 295 435 425T649 653T761 826T795 978Q795 1043 774 1093T716 1176T630 1227T525 1245Q427 1245 354 1193T226 1045L155 1093Q169 1146 203 1200T292 1298T419 1368T583 1396Q668
1396 741 1370T869 1296T954 1176T985 1014Q985 905 938 806T802 604T581 388T283 135H562Q651 135 712 138T811 148Q857 157 871 171T894 210L953 372L1044 359Q1044 278 1035 184T1008 0Z" />
<glyph unicode="3" glyph-name="three" horiz-adv-x="1147" d="M1014 392Q1014 304 976 228T871 96T713 9T518 -23Q397 -23 284 17T104 121L150 189Q221 148 306 123T485 98Q551 98 611 112T718 159T792 245T823 376Q827 510 749 585T545 676Q507 665 468 657T390
644L364 738Q544 776 654 856T765 1068Q765 1152 701 1210T527 1268Q434 1268 358 1223T221 1115L166 1170Q218 1274 331 1335T576 1396Q652 1396 719 1374T835 1313T912 1219T941 1097Q941 1028 916 969T852 864T762 784T661 733Q718 733 781 713T895 651T980
545T1014 392Z" />
<glyph unicode="4" glyph-name="four" horiz-adv-x="1194" d="M1112 272H889V0H719V272H117L52 380Q200 623 346 878T623 1396H791L813 1342Q605 979 465 751T203 376L722 392L739 733L889 743V398L1112 405V272Z" />
<glyph unicode="5" glyph-name="five" horiz-adv-x="1164" d="M162 217Q222 170 305 134T491 98Q567 98 631 120T741 185T814 291T840 436Q840 577 759 666T525 756Q471 756 406 741T275 690L204 742L241 1373H965L946 1231H368L335 806Q397 848 463 863T596 879Q799
879 914 766T1030 459Q1030 352 994 263T893 111T733 13T524 -23Q382 -23 277 27T111 144L162 217Z" />
<glyph unicode="6" glyph-name="six" horiz-adv-x="1246" d="M1118 458Q1118 355 1083 267T983 114T830 14T633 -23Q408 -23 275 141T141 607Q141 777 182 922T303 1172T498 1336T762 1396Q849 1396 921 1375T1050 1318L1019 1229Q958 1257 904 1268T800 1280Q699
1280 618 1240T480 1130T386 963T338 753Q400 822 498 852T692 883Q789 883 868 851T1003 763T1088 629T1118 458ZM648 83Q720 83 774 110T863 185T917 295T935 428Q935 574 857 666T642 758Q566 758 479 732T331 657Q331 650 331 642T331 627V566Q331 465 350
377T408 223T507 121T648 83Z" />
<glyph unicode="7" glyph-name="seven" horiz-adv-x="1113" d="M909 1233H596Q509 1233 446 1229T342 1217Q311 1211 292 1200T263 1158L204 950L107 946Q106 1062 115 1172T144 1373H1000L1050 1258Q961 1149 881 1015T738 724T632 385T570 0H408L378 43Q400
210 448 378T565 701T722 992T909 1233Z" />
<glyph unicode="8" glyph-name="eight" horiz-adv-x="1260" d="M624 -23Q522 -23 432 2T276 74T171 190T132 346Q132 472 212 571T432 717Q339 774 272 854T205 1048Q205 1125 238 1189T330 1299T469 1370T644 1396Q735 1396 813 1373T947 1307T1036 1206T1069
1077Q1069 964 990 868T792 729Q861 695 922 659T1027 578T1098 480T1124 354Q1124 269 1086 199T982 80T823 4T624 -23ZM686 780Q686 780 687 780T692 777Q793 828 847 897T901 1060Q901 1170 828 1234T630 1298Q502 1298 434 1235T366 1083Q366 1027 391 985T459
907T561 842T686 780ZM642 79Q779 79 860 145T942 322Q942 386 916 431T845 509T744 568T625 621Q599 632 572 644T518 670Q410 616 360 536T310 363Q310 291 336 238T408 149T514 97T642 79Z" />
<glyph unicode="9" glyph-name="nine" horiz-adv-x="1243" d="M605 615Q683 615 767 642T912 713Q912 720 912 727T912 741V807Q912 900 893 987T835 1141T735 1249T590 1290Q520 1290 467 1262T378 1187T325 1077T307 943Q307 798 384 707T605 615ZM511 -23Q410
-23 323 5T186 78L229 161Q271 136 335 115T477 93Q570 93 645 130T774 236T861 402T906 618Q846 556 751 523T555 490Q455 490 375 522T239 610T154 744T124 914Q124 1018 159 1106T258 1259T412 1359T611 1396Q835 1396 968 1232T1101 760Q1101 585 1061 440T945
193T759 34T511 -23Z" />
<glyph unicode=":" glyph-name="colon" horiz-adv-x="604" d="M432 959Q432 902 396 866T302 829Q245 829 209 865T172 959Q172 1016 208 1052T302 1089Q359 1089 395 1053T432 959ZM432 108Q432 51 396 15T302 -22Q245 -22 209 14T172 108Q172 165 208 201T302
238Q359 238 395 202T432 108Z" />
<glyph unicode=";" glyph-name="semicolon" horiz-adv-x="664" d="M460 959Q460 902 424 866T330 829Q273 829 237 865T200 959Q200 1016 236 1052T330 1089Q387 1089 423 1053T460 959ZM480 65Q480 -70 404 -188T203 -379L161 -324Q244 -255 284 -181T325 -41Q325
-7 313 6T279 31Q252 46 227 75T201 153Q201 204 236 241T325 279Q383 279 431 227T480 65Z" />
<glyph unicode="&lt;" glyph-name="less" horiz-adv-x="1165" d="M955 147L106 564V665L955 1082L1011 961L267 617L1011 268L955 147Z" />
<glyph unicode="=" glyph-name="equal" horiz-adv-x="1255" d="M1080 738H175V864H1080V738ZM1080 365H175V491H1080V365Z" />
<glyph unicode="&gt;" glyph-name="greater" horiz-adv-x="1165" d="M210 147L154 268L898 612L154 961L210 1082L1059 665V564L210 147Z" />
<glyph unicode="?" glyph-name="question" horiz-adv-x="1042" d="M484 447H396Q381 505 368 572T354 691Q354 774 396 824T516 945Q583 1007 632 1056T713 1152T760 1246T776 1352Q776 1474 710 1555T514 1637Q442 1637 382 1613T291 1558Q269 1536 261 1513T249
1459L232 1272H131Q109 1347 97 1435T84 1607Q148 1660 255 1703T488 1746Q598 1746 687 1710T837 1613T931 1475T964 1315Q964 1240 938 1178T870 1063T772 961T660 863Q617 826 588 800T542 749T515 695T502 623L484 447ZM573 96Q573 45 540 12T455 -22Q403 -22
370 11T337 96Q337 148 370 181T455 214Q507 214 540 181T573 96Z" />
<glyph unicode="@" glyph-name="at" horiz-adv-x="2117" d="M929 -512Q736 -512 586 -446T333 -263T178 21T124 386Q124 651 214 866T454 1230T803 1459T1217 1540Q1381 1540 1522 1492T1765 1349T1925 1111T1983 779Q1983 578 1922 426T1773 174T1588 24T1419
-26Q1328 -26 1293 44T1258 214Q1258 257 1263 315T1282 447Q1249 358 1203 273T1102 121T983 15T847 -26Q787 -26 736 4T649 88T593 214T572 373Q572 485 608 604T712 819T878 978T1101 1040Q1161 1040 1227 1022T1356 969L1395 1033L1507 996Q1490 910 1472 810T1440
610T1416 419T1407 257Q1407 164 1424 134T1475 104Q1522 104 1588 146T1715 270T1817 472T1860 747Q1860 923 1802 1051T1647 1262T1426 1383T1167 1423Q987 1423 822 1354T534 1157T336 841T262 420Q262 224 315 71T460 -185T681 -342T960 -396Q1019 -396 1083
-388T1207 -367T1318 -336T1402 -296L1437 -366Q1361 -426 1227 -469T929 -512ZM886 122Q938 122 990 163T1091 273T1181 429T1256 611Q1277 671 1292 725T1317 826Q1261 876 1192 897T1069 919Q987 919 924 879T819 771T755 614T733 427Q733 367 742 312T769 214T816
147T886 122Z" />
<glyph unicode="A" glyph-name="A" horiz-adv-x="1526" d="M1018 589L731 1392L462 589H1018ZM507 88V0H8V88L126 116Q149 121 165 134T188 170L672 1567H840L1350 170Q1358 147 1373 135T1412 116L1523 88V0H984V88L1184 126L1056 483H427L307 126L507 88Z" />
<glyph unicode="B" glyph-name="B" horiz-adv-x="1477" d="M732 -12Q695 -12 662 -10T592 -6T511 -2T408 0H116V88L283 118Q304 122 317 137T331 175V1384Q331 1405 319 1420T285 1440L116 1474V1562H416Q507 1562 584 1570T744 1578Q1010 1578 1128 1484T1246
1214Q1246 1076 1176 971T967 830Q1148 829 1251 727T1355 458Q1355 360 1325 274T1222 125T1030 25T732 -12ZM499 1471V865Q571 863 644 863T752 863Q906 863 991 942T1077 1187Q1077 1336 996 1410T713 1484Q638 1484 584 1478T499 1471ZM731 84Q968 84 1070
169T1172 429Q1172 603 1081 680T793 758Q769 758 734 758T660 758T578 757T499 755V101Q544 95 611 90T731 84Z" />
<glyph unicode="C" glyph-name="C" horiz-adv-x="1431" d="M847 -26Q666 -26 532 28T310 183T179 429T135 755Q135 958 187 1114T336 1374T571 1531T879 1585Q969 1585 1084 1569T1300 1513Q1303 1430 1297 1335T1279 1153H1179L1135 1365Q1130 1389 1119 1404T1086
1431Q1052 1450 979 1467T823 1485Q597 1485 463 1318T328 792Q328 639 355 507T442 279T596 128T824 73Q896 73 966 91T1083 136Q1105 149 1116 165T1136 204L1204 401L1304 391Q1305 312 1297 223T1275 52Q1194 17 1079 -4T847 -26Z" />
<glyph unicode="D" glyph-name="D" horiz-adv-x="1664" d="M415 1562Q511 1562 598 1570T781 1578Q1169 1578 1349 1381T1529 824Q1529 615 1474 456T1317 191T1072 34T752 -15Q686 -14 597 -7T418 0H116V88L277 117Q303 121 317 137T331 179V1384Q331 1405 319
1420T285 1440L116 1474V1562H415ZM501 101Q526 97 560 94T632 88T708 85T777 85Q1049 94 1198 263T1348 793Q1348 1154 1192 1316T726 1478Q657 1478 600 1473T501 1465V101Z" />
<glyph unicode="E" glyph-name="E" horiz-adv-x="1388" d="M1190 1192H1101L1058 1383Q1053 1405 1039 1418T1001 1440Q964 1453 906 1458T778 1464H501V855L1007 872V736L501 749V108H840Q910 108 973 113T1073 132Q1097 141 1110 154T1130 189L1201 397L1289
384Q1288 295 1277 196T1246 0H116V88L277 117Q304 122 317 138T331 182V1377Q331 1403 317 1420T277 1442L116 1474V1562H1195Q1201 1472 1200 1382T1190 1192Z" />
<glyph unicode="F" glyph-name="F" horiz-adv-x="1276" d="M1007 716L501 729V179Q501 157 515 141T552 121L805 88V0H116V88L277 117Q304 122 317 138T331 182V1377Q331 1403 317 1420T277 1442L116 1474V1562H1195Q1201 1472 1200 1382T1190 1192H1101L1058
1383Q1053 1405 1039 1418T1001 1440Q964 1453 906 1458T778 1464H501V835L1007 852V716Z" />
<glyph unicode="G" glyph-name="G" horiz-adv-x="1592" d="M1323 -7L1215 120Q1138 48 1039 13T814 -23Q647 -23 519 35T306 197T177 446T133 763Q133 966 190 1120T349 1378T593 1533T904 1585Q1023 1585 1140 1562T1358 1485Q1362 1401 1355 1320T1337 1155H1237L1194
1348Q1187 1377 1176 1394T1142 1425Q1097 1451 1022 1469T857 1487Q744 1487 646 1445T477 1318T366 1103T325 796Q325 653 355 526T450 306T618 157T866 102Q956 102 1042 126T1197 213V656L893 677V785H1495V677L1369 656V10L1323 -7Z" />
<glyph unicode="H" glyph-name="H" horiz-adv-x="1802" d="M1686 1562V1474L1525 1442Q1499 1437 1485 1420T1471 1376V183Q1471 156 1484 140T1525 118L1686 88V0H1100V88L1247 117Q1273 122 1287 139T1301 183V748H501V182Q501 155 514 139T555 117L710 88V0H116V88L277
118Q304 123 317 139T331 183V1376Q331 1403 317 1420T277 1442L116 1474V1562H709V1474L554 1442Q528 1437 515 1421T501 1377V856H1301V1377Q1301 1404 1288 1420T1248 1442L1101 1474V1562H1686Z" />
<glyph unicode="I" glyph-name="I" horiz-adv-x="832" d="M716 1562V1474L555 1442Q529 1437 515 1421T501 1377V182Q501 154 514 138T555 117L716 88V0H116V88L277 117Q304 122 317 138T331 182V1377Q331 1403 317 1420T277 1442L116 1474V1562H716Z" />
<glyph unicode="J" glyph-name="J" horiz-adv-x="778" d="M533 1442Q507 1436 493 1420T479 1377V449Q479 276 467 155T412 -57T283 -218T51 -364L4 -281Q96 -209 155 -144T249 -3T296 172T309 411V1377Q309 1403 295 1420T255 1442L94 1474V1562H674V1474L533 1442Z" />
<glyph unicode="K" glyph-name="K" horiz-adv-x="1559" d="M731 88V0H116V88L274 118Q301 123 316 138T331 181V1378Q331 1406 316 1421T275 1442L116 1474V1562H716V1474L555 1442Q529 1437 515 1421T501 1377V692L1161 1436L978 1474V1562H1497V1474L1361 1442Q1339
1437 1323 1429T1291 1404L847 920Q895 866 945 792T1062 610L1324 197Q1352 154 1372 139T1428 115L1544 88V0H1266Q1235 0 1188 61T1078 229L891 549Q848 622 810 683T734 797L501 542V181Q501 153 515 139T558 119L731 88Z" />
<glyph unicode="L" glyph-name="L" horiz-adv-x="1349" d="M1113 189L1195 444L1285 431Q1283 332 1272 215T1241 0H116V88L277 116Q304 120 317 136T331 180V1378Q331 1405 318 1421T277 1443L116 1474V1562H764V1474L555 1442Q528 1438 514 1422T500 1377V108H823Q895
108 956 113T1056 132Q1079 140 1092 153T1113 189Z" />
<glyph unicode="M" glyph-name="M" horiz-adv-x="2143" d="M605 88V0H70V88L219 116Q244 120 258 136T276 178L421 1374Q425 1402 412 1420T371 1442L187 1474V1562H669L1082 353L1443 1562H1927V1474L1743 1442Q1715 1437 1703 1419T1695 1372L1888 176Q1892
151 1906 136T1946 116L2095 88V0H1535V88L1724 122L1518 1374L1123 69H1011L550 1379L403 122L605 88Z" />
<glyph unicode="N" glyph-name="N" horiz-adv-x="1770" d="M689 88V0H116V88L277 117Q304 122 317 138T331 182V1377Q331 1403 317 1420T277 1442L116 1474V1562H498L1345 293V1377Q1345 1403 1331 1420T1291 1442L1120 1474V1562H1663V1474L1522 1442Q1496 1436
1482 1420T1468 1377V0H1335L454 1316V182Q454 154 467 138T508 117L689 88Z" />
<glyph unicode="O" glyph-name="O" horiz-adv-x="1603" d="M775 -23Q619 -23 499 31T299 186T177 432T135 757Q135 957 186 1112T329 1372T548 1530T829 1585Q985 1585 1105 1531T1305 1377T1427 1131T1468 807Q1468 609 1418 454T1276 194T1057 33T775 -23ZM803
1479Q578 1479 452 1304T325 782Q325 449 443 267T798 84Q1022 84 1149 260T1276 784Q1276 1116 1158 1297T803 1479Z" />
<glyph unicode="P" glyph-name="P" horiz-adv-x="1392" d="M721 715Q798 715 870 735T998 805T1086 936T1120 1141Q1120 1326 1023 1402T723 1478Q650 1478 597 1472T501 1465V722Q556 719 605 717T721 715ZM795 88V0H116V88L278 117Q303 121 317 137T331 178V1380Q331
1401 319 1418T285 1440L116 1474V1562H416Q467 1562 504 1564T580 1569T663 1574T776 1577Q925 1577 1026 1548T1189 1462T1277 1325T1303 1141Q1303 1016 1257 918T1133 752T947 649T718 613Q665 613 611 615T501 621V179Q501 157 515 141T552 121L795 88Z" />
<glyph unicode="Q" glyph-name="Q" horiz-adv-x="1603" d="M1389 -413Q1284 -413 1206 -364T1059 -249T925 -119T777 -23H775Q619 -23 499 31T299 186T177 432T135 757Q135 957 186 1112T329 1372T548 1530T829 1585Q985 1585 1105 1531T1305 1377T1427 1131T1468
807Q1468 484 1338 279T988 7Q1042 -17 1088 -49T1178 -115Q1251 -174 1327 -222T1510 -270Q1532 -270 1555 -269T1594 -266L1614 -353Q1586 -370 1525 -391T1389 -413ZM803 1479Q577 1479 450 1306T322 782Q322 445 441 265T798 84Q1023 84 1151 258T1279 784Q1279
1121 1161 1300T803 1479Z" />
<glyph unicode="R" glyph-name="R" horiz-adv-x="1525" d="M501 1463V798Q538 797 582 797T668 796T745 796T797 796Q934 797 1018 883T1103 1152Q1103 1226 1086 1286T1025 1389T906 1454T717 1477Q650 1477 589 1471T501 1463ZM731 88V0H116V88L274 118Q301
123 316 138T331 181V1378Q331 1406 316 1421T275 1442L116 1474V1562H419Q506 1562 582 1570T756 1578Q1044 1578 1165 1474T1287 1165Q1287 1046 1252 966T1166 835T1056 758T949 720Q996 681 1034 626T1116 491L1280 187Q1300 149 1319 135T1375 113L1491 88V0H1223Q1177
0 1136 69T1036 255L937 452Q899 528 861 593T787 695Q700 695 624 695T501 697V181Q501 153 515 139T558 119L731 88Z" />
<glyph unicode="S" glyph-name="S" horiz-adv-x="1267" d="M1145 407Q1145 324 1113 245T1017 104T853 5T620 -33Q461 -33 337 10T142 100Q139 191 143 284T159 476H264L301 250Q303 236 310 219T335 182Q377 137 457 102T639 67Q800 67 884 145T968 358Q968 433
943 486T871 579T757 652T608 722Q537 754 460 793T319 886T215 1015T173 1193Q173 1279 205 1352T299 1477T453 1558T667 1588Q773 1588 880 1566T1063 1505Q1070 1406 1067 1319T1050 1148H949L910 1345Q907 1361 898 1379T868 1415Q834 1444 769 1467T625 1491Q482
1491 408 1426T334 1239Q334 1168 359 1117T432 1026T552 950T714 870Q793 833 870 792T1009 697T1107 573T1145 407Z" />
<glyph unicode="T" glyph-name="T" horiz-adv-x="1482" d="M1116 0H366V88L600 123Q628 127 642 142T656 186V1464H527Q452 1464 391 1457T300 1440Q276 1432 263 1418T243 1379L184 1116H86Q79 1235 84 1345T103 1562H1384Q1396 1455 1398 1345T1392 1116H1294L1238
1379Q1233 1404 1220 1418T1184 1440Q1152 1452 1095 1458T960 1464H826V186Q826 158 840 143T882 123L1116 88V0Z" />
<glyph unicode="U" glyph-name="U" horiz-adv-x="1678" d="M1040 1562H1576V1474L1451 1444Q1425 1438 1412 1421T1399 1377V575Q1399 266 1249 124T826 -19Q539 -19 409 138T279 601V1378Q279 1405 266 1421T227 1444L107 1474V1562H689V1474L507 1442Q481 1438
467 1421T453 1376V583Q453 439 483 342T567 187T695 105T857 80Q1073 80 1171 203T1269 567V1377Q1269 1404 1256 1421T1216 1442L1040 1474V1562Z" />
<glyph unicode="V" glyph-name="V" horiz-adv-x="1522" d="M854 -5H696L167 1388Q158 1411 144 1423T105 1442L-5 1474V1562H546V1474L336 1432L797 189L1211 1432L1001 1474V1562H1510V1474L1394 1442Q1371 1435 1355 1423T1332 1388L854 -5Z" />
<glyph unicode="W" glyph-name="W" horiz-adv-x="2213" d="M1442 -11L1112 1082L788 -11H623L177 1386Q170 1409 155 1422T116 1442L1 1474V1562H556V1474L346 1432L727 197L1049 1274L1010 1386Q1002 1409 988 1422T949 1442L844 1474V1562H1384V1474L1176 1432L1547
193L1904 1432L1694 1474V1562H2199V1474L2083 1442Q2059 1435 2044 1424T2020 1385L1609 -11H1442Z" />
<glyph unicode="X" glyph-name="X" horiz-adv-x="1485" d="M566 88V0H28V88L162 117Q184 122 199 132T228 162L654 773L244 1395Q232 1414 217 1425T180 1442L64 1474V1562H638V1474L428 1437L765 900L1113 1437L929 1474V1562H1418V1474L1299 1442Q1277 1436
1262 1426T1234 1396L832 815L1271 162Q1284 143 1299 133T1337 117L1456 88V0H886V88L1087 122L726 685L355 122L566 88Z" />
<glyph unicode="Y" glyph-name="Y" horiz-adv-x="1455" d="M1071 0H401V88L595 123Q623 128 637 143T651 186V595L190 1395Q179 1414 163 1425T125 1443L-1 1474V1562H559V1474L366 1437L762 738L1126 1439L935 1474V1562H1435V1474L1309 1446Q1286 1441 1270
1430T1243 1398L821 594V186Q821 158 835 143T877 123L1071 88V0Z" />
<glyph unicode="Z" glyph-name="Z" horiz-adv-x="1347" d="M1189 0H121L73 80L995 1458H622Q550 1458 489 1454T389 1436Q366 1428 352 1415T332 1379L269 1138H175Q171 1239 177 1350T197 1562H1173L1217 1486L300 108H764Q836 108 897 113T997 132Q1020 140
1033 153T1054 189L1129 446L1222 436Q1223 387 1221 331T1215 217T1204 103T1189 0Z" />
<glyph unicode="[" glyph-name="bracketleft" horiz-adv-x="780" d="M718 -373Q667 -379 607 -384T487 -393T369 -397T264 -398L238 -370V1960L264 1988Q311 1989 369 1988T487 1983T607 1975T718 1963V1877L452 1857Q423 1855 408 1841T392 1797V-207Q392 -236
407 -250T452 -267L718 -287V-373Z" />
<glyph unicode="\" glyph-name="backslash" horiz-adv-x="944" d="M863 -288H710L78 1742H231L863 -288Z" />
<glyph unicode="]" glyph-name="bracketright" horiz-adv-x="780" d="M542 -370L516 -398Q469 -399 411 -398T293 -393T173 -385T62 -373V-287L328 -267Q357 -265 372 -251T388 -207V1797Q388 1826 373 1840T328 1857L62 1877V1963Q113 1969 173 1974T293 1983T411
1987T516 1988L542 1960V-370Z" />
<glyph unicode="^" glyph-name="asciicircum" horiz-adv-x="1202" d="M1004 816L590 1344L193 816L114 873L513 1522L671 1531L1089 873L1004 816Z" />
<glyph unicode="_" glyph-name="underscore" horiz-adv-x="1751" d="M0 -250H1751V-363H0V-250Z" />
<glyph unicode="`" glyph-name="grave" horiz-adv-x="1000" d="M338 1743L682 1324L622 1263Q565 1302 504 1351T387 1450T284 1549T209 1636L338 1743Z" />
<glyph unicode="a" glyph-name="a" horiz-adv-x="1190" d="M476 99Q557 99 642 131T785 213V487L567 466Q438 454 364 410T290 265Q290 187 336 143T476 99ZM951 -16Q883 -16 843 23T789 131Q724 62 628 20T423 -23Q357 -23 300 -6T200 45T133 130T108 249Q108
339 149 397T255 489T397 540T547 562L785 583V726Q785 892 722 959T525 1027Q429 1027 342 995T182 893L141 938Q159 993 201 1034T301 1104T428 1146T570 1160Q755 1160 851 1064T948 764V175Q948 142 963 127T1008 110L1128 100V19Q1118 15 1097 9T1051 -3T1000
-12T951 -16Z" />
<glyph unicode="b" glyph-name="b" horiz-adv-x="1286" d="M581 -23Q455 -23 352 6T199 56V1583Q199 1611 185 1626T142 1645L-11 1667V1742Q70 1767 163 1781T337 1797L364 1770V1026Q424 1088 508 1128T710 1168Q805 1168 888 1138T1032 1042T1128 873T1163
624Q1163 477 1125 357T1014 153T831 23T581 -23ZM594 81Q780 81 879 198T983 571Q987 831 895 936T649 1042Q561 1042 491 1013T364 935V137Q407 114 462 98T594 81Z" />
<glyph unicode="c" glyph-name="c" horiz-adv-x="1124" d="M121 556Q121 682 153 794T252 988T422 1119T663 1168Q754 1168 849 1149T1000 1101Q1004 1031 998 943T981 783H893L856 938Q850 964 842 983T813 1020Q785 1042 739 1056T636 1071Q476 1071 391 952T306
601Q306 350 402 226T659 102Q755 102 831 140T958 235L1013 183Q962 86 858 32T617 -23Q496 -23 403 20T248 139T153 323T121 556Z" />
<glyph unicode="d" glyph-name="d" horiz-adv-x="1348" d="M635 106Q722 106 794 137T925 219V1005Q886 1028 820 1046T679 1064Q604 1064 536 1040T416 960T335 807T304 569Q304 432 332 342T405 200T511 127T635 106ZM1094 -16Q1015 -16 978 29T930 136Q871
72 782 25T573 -23Q483 -23 402 8T258 108T160 283T123 539Q123 700 166 819T287 1015T471 1130T704 1168Q766 1168 823 1160T925 1141V1583Q925 1611 910 1626T868 1645L709 1667V1742Q787 1767 886 1780T1064 1797L1090 1769V176Q1090 139 1107 126T1150 110L1270
100V19Q1238 7 1187 -4T1094 -16Z" />
<glyph unicode="e" glyph-name="e" horiz-adv-x="1177" d="M613 1066Q491 1066 411 986T308 738H873Q874 751 875 762T876 786Q876 911 807 988T613 1066ZM1049 248Q1010 132 898 55T616 -23Q492 -23 399 21T244 142T152 326T121 556Q121 698 159 812T266 1004T432
1125T645 1168Q729 1168 803 1144T932 1072T1019 948T1051 772Q1051 747 1049 710T1041 642H300Q299 632 299 621T299 599Q299 456 329 360T408 208T522 127T656 103Q760 103 845 152T980 283L1049 248Z" />
<glyph unicode="f" glyph-name="f" horiz-adv-x="868" d="M292 1273Q292 1390 332 1487T435 1652T579 1759T741 1797Q801 1797 861 1779T980 1730L956 1610Q899 1620 836 1625T723 1631Q580 1631 519 1567T457 1348V1135H804V1014H457V169Q457 141 472 125T515
107L730 88V0H107V88L235 107Q263 111 277 126T292 169V1006L84 1028V1109L292 1135V1273Z" />
<glyph unicode="g" glyph-name="g" horiz-adv-x="1260" d="M317 778Q317 630 383 549T598 467Q723 467 790 534T858 763Q858 920 790 993T578 1067Q526 1067 479 1056T395 1013T338 924T317 778ZM1173 -131Q1173 -227 1127 -305T1001 -437T809 -522T567 -552Q341
-552 221 -466T101 -234Q101 -133 153 -66T283 44Q240 67 217 106T194 200Q194 282 238 332T342 414Q253 457 199 542T144 754Q144 861 183 939T286 1068T434 1143T606 1168Q693 1168 767 1145T897 1079Q950 1121 996 1144T1091 1168Q1116 1168 1147 1163T1206
1150V1016H959Q994 970 1013 911T1032 783Q1032 687 997 610T901 479T754 396T569 366Q530 366 493 370T420 385Q387 366 366 337T344 262Q344 198 397 171T570 144H830Q1002 144 1087 70T1173 -131ZM600 -448Q691 -448 767 -431T899 -379T986 -289T1017 -162Q1017
-90 972 -45T789 0H515Q472 0 434 3T363 15Q322 -25 295 -78T267 -209Q267 -311 337 -379T600 -448Z" />
<glyph unicode="h" glyph-name="h" horiz-adv-x="1414" d="M606 88V0H76V88L204 107Q232 111 246 126T261 169V1583Q261 1611 246 1626T204 1645L51 1667V1742Q128 1767 225 1780T400 1797L426 1769V1006Q513 1096 618 1130T828 1164Q1026 1164 1097 1048T1169
723V170Q1169 142 1184 127T1226 107L1354 88V0H824V88L947 107Q971 111 987 125T1004 170V684Q1004 857 958 946T768 1036Q675 1036 587 1008T426 921V170Q426 142 440 127T483 107L606 88Z" />
<glyph unicode="i" glyph-name="i" horiz-adv-x="715" d="M454 1133V172Q454 144 468 128T511 107L639 88V0H104V88L232 107Q260 111 274 127T289 171V945Q289 973 275 989T234 1009L89 1027V1109Q167 1134 258 1146T428 1161L454 1133ZM477 1469Q477 1411 440
1374T345 1337Q287 1337 250 1374T213 1469Q213 1526 250 1563T345 1601Q402 1601 439 1564T477 1469Z" />
<glyph unicode="j" glyph-name="j" horiz-adv-x="641" d="M404 1161L430 1133V126Q430 14 423 -65T398 -202T351 -302T277 -381Q220 -430 149 -466T9 -530L-36 -450Q54 -389 112 -334T205 -214T252 -66T265 135V945Q265 973 251 989T210 1009L65 1027V1109Q143
1134 234 1146T404 1161ZM432 1469Q432 1411 395 1374T300 1337Q242 1337 205 1374T168 1469Q168 1526 205 1563T300 1601Q357 1601 394 1564T432 1469Z" />
<glyph unicode="k" glyph-name="k" horiz-adv-x="1315" d="M611 88V0H76V88L205 107Q232 111 246 127T261 171V1583Q261 1611 247 1626T204 1645L51 1667V1742Q131 1767 225 1781T400 1797L426 1770V494L902 1021L698 1052V1136H1226V1052L1105 1027Q1080 1022
1061 1014T1026 989L746 693Q774 656 796 621T845 543L1069 178Q1087 149 1107 134T1147 115L1280 88V0H1013Q976 0 943 44T867 164L744 385Q713 439 687 487T636 576L426 354V170Q426 142 441 127T483 107L611 88Z" />
<glyph unicode="l" glyph-name="l" horiz-adv-x="697" d="M431 1769V170Q431 142 445 127T488 107L641 86V0H56V88L209 107Q237 111 251 126T266 169V1583Q266 1611 251 1626T209 1645L50 1667V1742Q128 1767 227 1780T405 1797L431 1769Z" />
<glyph unicode="m" glyph-name="m" horiz-adv-x="2117" d="M634 88V0H104V88L233 107Q260 111 274 127T289 171V945Q289 973 275 989T234 1009L89 1027V1109Q162 1133 247 1146T405 1161L436 1129L448 1004Q528 1095 630 1129T828 1164Q947 1164 1017 1122T1121
999Q1215 1098 1320 1131T1519 1164Q1723 1164 1797 1050T1872 713V170Q1872 142 1887 127T1929 107L2057 88V0H1527V88L1650 107Q1674 111 1690 125T1707 170V684Q1707 865 1658 950T1458 1036Q1380 1036 1299 1012T1144 927Q1154 884 1158 832T1163 723V170Q1163
142 1178 127T1220 107L1343 88V0H818V88L941 107Q965 111 981 125T998 170V684Q998 771 991 837T960 947T894 1013T778 1036Q700 1036 612 1009T454 927V171Q454 143 468 127T510 107L634 88Z" />
<glyph unicode="n" glyph-name="n" horiz-adv-x="1441" d="M634 88V0H104V88L232 107Q260 111 274 127T289 171V945Q289 973 275 989T234 1009L89 1027V1109Q162 1133 247 1146T405 1161L436 1129L448 1001Q535 1094 642 1129T855 1164Q1053 1164 1124 1048T1196
723V170Q1196 142 1211 127T1253 107L1381 88V0H851V88L974 107Q998 111 1014 125T1031 170V684Q1031 857 985 946T795 1036Q702 1036 614 1007T454 921V171Q454 143 468 127T510 107L634 88Z" />
<glyph unicode="o" glyph-name="o" horiz-adv-x="1278" d="M123 567Q123 721 165 835T281 1022T451 1132T658 1168Q792 1168 887 1124T1041 1000T1127 812T1155 576Q1155 422 1113 309T997 122T826 13T619 -23Q485 -23 390 21T236 144T150 331T123 567ZM969 559Q969
668 953 761T897 921T793 1027T630 1066Q467 1066 388 950T308 586Q308 479 324 386T379 225T484 118T648 79Q811 79 890 196T969 559Z" />
<glyph unicode="p" glyph-name="p" horiz-adv-x="1351" d="M664 81Q836 81 940 192T1049 571Q1052 801 971 921T719 1042Q620 1042 548 1007T430 927V138Q467 114 528 98T664 81ZM657 -408V-496H80V-408L209 -389Q237 -385 251 -370T265 -326V944Q265 971 252
988T212 1009L65 1027V1109Q143 1133 223 1146T381 1161L412 1129L425 1007Q479 1074 564 1121T778 1168Q874 1168 956 1137T1099 1040T1193 871T1228 624Q1228 475 1190 355T1078 151T899 22T657 -23Q605 -23 543 -15T430 12V-327Q430 -355 444 -370T487 -389L657
-408Z" />
<glyph unicode="q" glyph-name="q" horiz-adv-x="1297" d="M1230 -496H694V-408L864 -389Q892 -386 906 -371T921 -327V128Q863 67 776 22T579 -23Q485 -23 402 8T257 108T159 283T122 540Q122 695 165 813T284 1009T465 1128T691 1168Q766 1168 835 1152T958
1110L1051 1162L1086 1132V-327Q1086 -355 1101 -370T1142 -391L1230 -408V-496ZM636 106Q720 106 792 136T921 216V993Q878 1029 816 1047T689 1065Q609 1065 539 1041T416 959T334 806T303 572Q303 434 330 344T404 201T510 127T636 106Z" />
<glyph unicode="r" glyph-name="r" horiz-adv-x="1053" d="M726 84V0H104V88L232 107Q260 111 274 126T289 170V938Q289 970 276 987T232 1009L89 1027V1109Q162 1131 248 1145T406 1161L433 1133L449 955Q479 992 523 1030T618 1098T727 1148T842 1168Q871 1168
908 1162T970 1142Q976 1060 970 959T947 779H860L833 947Q828 978 813 992T769 1006Q687 1006 605 973T454 867V170Q454 142 469 126T513 107L726 84Z" />
<glyph unicode="s" glyph-name="s" horiz-adv-x="1053" d="M138 64Q128 145 130 222T141 364H234L271 212Q279 178 290 160T323 128Q351 111 410 92T547 72Q663 72 722 122T781 262Q781 312 762 347T704 409T607 462T470 517Q401 544 343 572T243 638T178 726T154
847Q154 929 186 989T272 1089T401 1148T558 1168Q642 1168 731 1149T876 1105Q878 1032 874 960T856 818H768L738 953Q732 981 720 1000T680 1036Q659 1048 622 1060T530 1074Q437 1076 372 1033T307 897Q307 842 330 806T392 744T479 700T578 662Q646 637 710
607T823 536T903 439T934 304Q934 227 904 166T818 63T684 -1T510 -23Q394 -23 296 6T138 64Z" />
<glyph unicode="t" glyph-name="t" horiz-adv-x="906" d="M248 266V1006L68 1026V1109L196 1124Q223 1127 237 1141T257 1181L315 1468H414V1136H808V1015H414V333Q414 198 461 154T588 109Q660 109 716 135T810 207L870 157Q827 71 738 24T544 -23Q488 -23 435
-10T340 35T274 123T248 266Z" />
<glyph unicode="u" glyph-name="u" horiz-adv-x="1377" d="M1123 -16Q1046 -16 1009 29T960 136Q893 69 806 23T602 -23Q412 -23 329 83T246 402V947Q246 974 233 990T191 1011L61 1031V1113Q136 1136 223 1147T385 1161L411 1133V436Q411 269 459 186T649 103Q734
103 811 131T955 220V947Q955 975 941 991T900 1011L739 1034V1116Q817 1136 916 1148T1094 1161L1120 1133V176Q1120 139 1137 126T1180 110L1300 100V19Q1268 7 1217 -4T1123 -16Z" />
<glyph unicode="v" glyph-name="v" horiz-adv-x="1223" d="M546 -17L158 976Q150 998 135 1011T97 1031L22 1052V1136H517V1052L334 1023L647 166L943 1022L763 1052V1136H1191V1052L1116 1032Q1093 1026 1078 1013T1054 978L692 -17H546Z" />
<glyph unicode="w" glyph-name="w" horiz-adv-x="1794" d="M470 -17L154 980Q147 1003 132 1015T93 1035L32 1052V1136H479V1052L319 1023L568 168L841 1136H882V1136H1011L1277 169L1522 1022L1362 1052V1136H1761V1052L1695 1035Q1671 1029 1656 1016T1634 979L1330
-17H1179L898 934L624 -17H470Z" />
<glyph unicode="x" glyph-name="x" horiz-adv-x="1259" d="M521 87V0H50V87L147 99Q169 102 186 110T217 138L537 564L228 994Q215 1012 199 1022T161 1036L82 1052V1136H555V1052L408 1028L653 671L915 1028L757 1052V1136H1187V1052L1101 1036Q1079 1032 1063
1022T1033 995L721 588L1051 137Q1064 118 1081 109T1120 97L1201 87V0H715V87L862 104L608 478L341 105L521 87Z" />
<glyph unicode="y" glyph-name="y" horiz-adv-x="1238" d="M263 -516Q212 -516 157 -513T44 -500V-389Q163 -381 253 -362T411 -301T532 -187T628 0H542L177 975Q169 997 154 1010T116 1029L31 1052V1136H530V1052L351 1023L674 137L954 1023L784 1052V1136H1213V1052L1128
1029Q1104 1022 1090 1010T1066 971L722 -51Q641 -292 539 -404T263 -516Z" />
<glyph unicode="z" glyph-name="z" horiz-adv-x="1154" d="M1009 0H129L94 76L809 1041H557Q507 1041 458 1039T369 1029Q334 1022 321 1009T300 966L258 786H163Q156 876 157 967T168 1136H993L1028 1060L318 101H587Q648 101 701 103T805 113Q833 117 852 129T880
170L934 362L1027 349Q1031 268 1027 176T1009 0Z" />
<glyph unicode="{" glyph-name="braceleft" horiz-adv-x="873" d="M824 -309L815 -398Q778 -398 740 -398T648 -394Q469 -384 382 -301T295 -52Q295 108 308 233T321 472Q321 514 315 554T281 627T197 683T41 713V877Q140 884 196 907T280 962T314 1035T321 1118Q321
1231 308 1356T295 1642Q295 1807 382 1890T648 1984Q702 1987 740 1987T815 1988L824 1899L684 1875Q571 1856 513 1798T455 1608Q455 1487 463 1349T471 1086Q471 973 410 904T205 799Q348 765 409 691T471 504Q471 380 463 242T455 -18Q455 -149 513 -207T684
-285L824 -309Z" />
<glyph unicode="|" glyph-name="bar" horiz-adv-x="625" d="M239 -298V1888H386V-298H239Z" />
<glyph unicode="}" glyph-name="braceright" horiz-adv-x="873" d="M226 -394Q172 -397 134 -397T59 -398L50 -309L190 -285Q303 -266 361 -208T419 -18Q419 103 409 241T398 504Q398 617 459 686T664 791Q521 825 460 899T398 1086Q398 1210 408 1348T419 1608Q419
1739 361 1797T190 1875L50 1899L59 1988Q96 1988 134 1988T226 1984Q405 1974 492 1891T579 1642Q579 1482 564 1357T548 1118Q548 1076 554 1036T589 963T674 907T833 877V713Q732 706 675 683T589 628T555 555T548 472Q548 359 563 234T579 -52Q579 -217 492
-300T226 -394Z" />
<glyph unicode="~" glyph-name="asciitilde" horiz-adv-x="1319" d="M1144 688Q1123 647 1093 609T1025 541T942 494T847 476Q790 476 736 497T631 543T533 590T440 611Q383 611 330 576T238 490L175 541Q196 582 226 620T294 688T377 735T472 753Q529 753 583
732T688 686T786 639T879 618Q936 618 989 653T1081 739L1144 688Z" />
<glyph unicode="&#xa0;" glyph-name="uni00A0" horiz-adv-x="618" />
<glyph unicode="&#xa1;" glyph-name="exclamdown" horiz-adv-x="606" d="M421 1050Q421 998 388 965T303 932Q251 932 218 965T185 1050Q185 1101 218 1134T303 1168Q355 1168 388 1135T421 1050ZM399 -566H208V-416L254 699H352L399 -416V-566Z" />
<glyph unicode="&#xa2;" glyph-name="cent" horiz-adv-x="1182" d="M1043 226Q994 129 890 75T668 12V-210H539V16Q443 31 366 78T236 200T155 374T126 592Q126 713 157 820T252 1007T411 1138T635 1199V1408H764V1198Q846 1192 921 1174T1042 1134Q1046 1064
1040 976T1023 816H935L898 971Q892 997 884 1017T854 1054Q827 1076 776 1090T666 1104Q497 1104 404 977T311 621Q311 387 406 261T667 135Q763 135 849 175T988 278L1043 226Z" />
<glyph unicode="&#xa3;" glyph-name="sterling" horiz-adv-x="1308" d="M1191 239Q1191 104 1117 40T928 -25Q850 -25 780 -1T643 52T505 105T357 130Q306 76 252 42T163 -11L104 86Q140 116 181 152T256 239T314 365T337 547V647H128V752H337V882Q337 1003 374
1100T474 1263T621 1364T799 1400Q859 1400 928 1384T1068 1333Q1071 1255 1065 1167T1048 997H954L920 1186Q916 1208 908 1225T877 1257Q846 1277 806 1284T725 1292Q690 1292 652 1277T582 1221T531 1108T511 922V752H876V647H511V548Q511 422 484 333T420 201Q489
201 551 189T670 163T778 137T875 125Q956 125 995 170T1047 271Q1054 302 1061 352T1073 437H1166Q1173 403 1182 349T1191 239Z" />
<glyph unicode="&#xa4;" glyph-name="currency" horiz-adv-x="1412" d="M704 455Q779 455 835 480T929 547T984 647T1002 770Q1002 835 978 893T913 995T816 1065T698 1091Q627 1091 572 1064T481 992T426 888T407 766Q407 701 430 644T493 545T587 479T704 455ZM703
330Q635 330 574 348T462 400L251 190L148 294L356 502Q317 556 296 622T274 763Q274 839 297 909T360 1037L148 1250L250 1354L463 1140Q514 1176 575 1196T703 1216Q772 1216 834 1198T949 1145L1161 1356L1265 1252L1057 1045Q1097 991 1120 925T1143 783Q1143
706 1119 636T1052 508L1261 298L1158 194L946 406Q895 370 833 350T703 330Z" />
<glyph unicode="&#xa5;" glyph-name="yen" horiz-adv-x="1485" d="M1080 86V0H427V86L617 120Q644 124 658 139T672 181V337H275V437H672V599H275V699H636L281 1210Q268 1229 254 1240T218 1257L95 1287V1373H647V1287L459 1251L779 769L1080 1263L893 1297V1383H1385V1297L1262
1270Q1240 1265 1226 1255T1198 1223L867 699H1232V599H835V437H1232V337H835V181Q835 154 849 139T890 120L1080 86Z" />
<glyph unicode="&#xa6;" glyph-name="brokenbar" horiz-adv-x="619" d="M236 950V1888H383V950H236ZM236 -298V640H383V-298H236Z" />
<glyph unicode="&#xa7;" glyph-name="section" horiz-adv-x="1281" d="M717 432Q760 413 800 396T875 360Q929 403 962 465T996 590Q996 644 969 686T889 766T757 842T573 926Q530 945 489 964T411 1005Q355 962 321 899T286 772Q286 717 313 675T395 594T530
517T717 432ZM647 -283Q489 -283 367 -244T179 -166Q174 -84 179 0T197 167H303L337 -30Q340 -48 349 -65T381 -100Q427 -136 504 -159T672 -182Q804 -182 875 -126T947 18Q947 73 919 111T838 182T712 246T545 319Q447 363 370 404T241 493T161 596T133 724Q133
837 194 919T344 1047Q275 1095 235 1157T194 1310Q194 1380 221 1441T305 1548T447 1619T650 1645Q716 1645 780 1637T901 1616T1003 1585T1078 1548Q1083 1466 1078 1382T1060 1215H954L920 1412Q916 1434 906 1450T875 1481Q838 1507 768 1525T620 1544Q486
1544 421 1488T355 1350Q355 1293 384 1252T464 1176T588 1110T745 1039Q838 997 913 957T1041 870T1121 768T1149 638Q1149 529 1092 448T947 320Q1023 274 1065 214T1108 63Q1108 -11 1079 -74T992 -184T847 -256T647 -283Z" />
<glyph unicode="&#xa8;" glyph-name="dieresis" horiz-adv-x="1000" d="M831 1456Q831 1404 799 1371T715 1337Q664 1337 632 1370T599 1456Q599 1507 631 1541T715 1575Q766 1575 798 1541T831 1456ZM398 1456Q398 1404 366 1371T282 1337Q231 1337 199 1370T166
1456Q166 1507 198 1541T282 1575Q333 1575 365 1541T398 1456Z" />
<glyph unicode="&#xa9;" glyph-name="copyright" horiz-adv-x="2001" d="M125 784Q125 972 192 1134T375 1414T653 1599T1000 1667Q1186 1667 1347 1600T1625 1415T1809 1135T1876 784Q1876 596 1809 434T1625 153T1347 -33T1000 -101Q814 -101 653 -34T376 152T192
433T125 784ZM238 785Q238 615 295 471T453 222T694 59T1000 0Q1165 0 1305 59T1547 222T1705 470T1762 785Q1762 955 1705 1099T1547 1348T1306 1511T1000 1570Q835 1570 695 1511T453 1348T295 1100T238 785ZM995 295Q893 295 814 331T680 430T598 582T570 776Q570
892 604 986T699 1145T847 1245T1039 1280Q1134 1280 1219 1257T1339 1208Q1341 1148 1337 1079T1320 943H1229L1197 1077Q1193 1093 1185 1110T1152 1144Q1124 1162 1085 1172T1003 1182Q866 1182 799 1079T732 806Q732 622 809 522T1035 422Q1113 422 1183 449T1295
522L1345 470Q1302 397 1212 346T995 295Z" />
<glyph unicode="&#xaa;" glyph-name="ordfeminine" horiz-adv-x="1090" d="M449 784Q509 784 570 805T675 859V1062L516 1049Q417 1041 364 1007T311 903Q311 846 345 815T449 784ZM822 682Q765 682 729 710T680 791Q629 740 554 709T393 678Q285 678 212 731T138
886Q138 952 170 997T253 1069T367 1110T490 1128L675 1142V1245Q675 1364 626 1411T474 1459Q398 1459 329 1435T203 1360L165 1399Q180 1442 214 1475T295 1532T399 1566T518 1578Q675 1578 754 1502T833 1268V837Q833 812 845 802T879 789L972 781V710Q953 703
906 693T822 682Z" />
<glyph unicode="&#xab;" glyph-name="guillemotleft" horiz-adv-x="1381" d="M1197 111L650 544V680L1197 1125L1260 1058L837 616L1266 182L1197 111ZM664 111L117 544V680L664 1125L727 1058L304 616L733 182L664 111Z" />
<glyph unicode="&#xac;" glyph-name="logicalnot" horiz-adv-x="1322" d="M177 550V679H1147V106H1009V550H177Z" />
<glyph unicode="&#xad;" glyph-name="uni00AD" horiz-adv-x="1129" d="M172 534V658H957V534H172Z" />
<glyph unicode="&#xae;" glyph-name="registered" horiz-adv-x="1795" d="M130 1092Q130 1257 188 1399T349 1644T593 1806T897 1865Q1060 1865 1201 1806T1445 1644T1606 1399T1665 1092Q1665 927 1607 784T1446 538T1202 375T897 315Q734 315 593 374T350 537T189
784T130 1092ZM233 1092Q233 944 283 818T420 602T630 461T896 409Q1040 409 1162 460T1373 602T1511 819T1561 1093Q1561 1240 1511 1365T1373 1581T1163 1723T897 1774Q753 1774 631 1723T421 1582T283 1366T233 1092ZM900 1107Q987 1107 1036 1150T1086 1284Q1086
1369 1035 1404T869 1440Q843 1440 819 1439T758 1431V1111Q794 1109 829 1108T900 1107ZM875 736V670H517V736L588 753Q605 757 614 768T623 797V1386Q623 1404 614 1414T587 1429L517 1444V1518H686Q755 1518 820 1520T923 1522Q1071 1522 1152 1466T1234 1293Q1234
1189 1179 1127T1035 1045Q1060 1032 1079 1012T1116 960L1199 812Q1215 784 1234 772T1310 747V670H1160Q1126 670 1109 688T1071 749L993 912Q980 940 964 968T928 1019L758 1021V795Q758 777 767 767T794 752L875 736Z" />
<glyph unicode="&#xaf;" glyph-name="overscore" horiz-adv-x="1000" d="M177 1361V1487H822V1361H177Z" />
<glyph unicode="&#xb0;" glyph-name="degree" horiz-adv-x="930" d="M463 951Q393 951 331 978T222 1052T149 1160T121 1293Q121 1366 148 1429T222 1537T330 1608T463 1634Q538 1634 601 1607T710 1534T782 1425T808 1293Q808 1219 781 1157T708 1049T598 977T463
951ZM465 1065Q563 1065 625 1128T688 1293Q688 1386 623 1453T462 1521Q366 1521 303 1456T239 1293Q239 1200 306 1133T465 1065Z" />
<glyph unicode="&#xb1;" glyph-name="plusminus" horiz-adv-x="1221" d="M678 273H543V472L549 647L375 641H158V768H375L549 762L543 937V1136H678V937L672 762L846 768H1063V641H846L672 647L678 472V273ZM1053 0H168V129H1053V0Z" />
<glyph unicode="&#xb2;" glyph-name="twosuperior" horiz-adv-x="1012" d="M831 626H171L146 700Q284 808 380 889T536 1036T621 1158T648 1274Q648 1365 594 1417T449 1469Q363 1469 301 1426T204 1340L161 1372Q172 1412 199 1450T268 1518T364 1566T486 1585Q560
1585 620 1562T721 1499T784 1407T807 1295Q807 1214 767 1140T660 998T508 864T331 735H572Q653 735 697 751T756 802L797 900L874 889Q870 825 860 756T831 626Z" />
<glyph unicode="&#xb3;" glyph-name="threesuperior" horiz-adv-x="980" d="M127 749L173 813Q225 773 301 746T462 718Q561 718 629 761T698 891Q698 974 632 1010T452 1046H344V1146H387Q507 1146 572 1192T637 1317Q637 1391 582 1432T438 1473Q377 1473 316
1450T201 1373L163 1407Q197 1500 284 1542T472 1585Q609 1585 699 1519T790 1349Q790 1303 772 1264T723 1194T653 1144T571 1117Q696 1117 776 1054T856 888Q856 771 752 692T484 613Q368 613 272 652T127 749Z" />
<glyph unicode="&#xb4;" glyph-name="acute" horiz-adv-x="1000" d="M406 1263L349 1321L700 1743L829 1636Q801 1598 753 1550T647 1451T526 1351T406 1263Z" />
<glyph unicode="&#xb5;" glyph-name="uni00B5" horiz-adv-x="1443" d="M410 -472L256 -524L229 -496Q230 -376 231 -274T233 -78T235 105T236 289Q236 444 229 647T214 1131L370 1168L396 1140V462Q396 369 420 307T481 207T565 153T654 137Q735 137 824 191T968
364L961 1132L1111 1168L1137 1140L1122 374Q1119 234 1149 181T1239 128H1371V48Q1329 15 1276 -5T1172 -26Q1091 -26 1042 34T979 231Q951 165 910 116T820 36T721 -11T621 -26Q561 -26 489 4T375 119L410 -472Z" />
<glyph unicode="&#xb6;" glyph-name="paragraph" horiz-adv-x="1400" d="M283 -326L238 -243Q337 -186 397 -130T488 -7T530 142T541 331V692Q458 695 375 725T227 812T120 953T78 1146Q78 1237 109 1316T206 1455T372 1548T610 1582Q698 1582 812 1572T1065 1562H1282V1474L1132
1442Q1107 1437 1092 1421T1077 1382V177Q1077 154 1092 139T1129 119L1292 88V0H927V1445Q877 1448 815 1451T693 1454V251Q693 123 675 33T610 -123T484 -236T283 -326Z" />
<glyph unicode="&#xb7;" glyph-name="middot" horiz-adv-x="604" d="M432 663Q432 606 396 570T302 533Q245 533 209 569T172 663Q172 720 208 756T302 793Q359 793 395 757T432 663Z" />
<glyph unicode="&#xb8;" glyph-name="cedilla" horiz-adv-x="1000" d="M460 51H545L501 -86Q508 -86 521 -87T549 -91Q610 -103 652 -148T695 -264Q695 -319 668 -365T595 -444T487 -495T356 -514Q343 -514 338 -514T325 -513L315 -434Q415 -428 471 -382T527
-275Q527 -218 482 -194T386 -169L460 51Z" />
<glyph unicode="&#xb9;" glyph-name="onesuperior" horiz-adv-x="899" d="M570 1561V780Q570 753 579 743T616 729L790 707V626H173V707L383 729Q410 732 419 742T429 781V1404Q368 1379 299 1362T167 1336L148 1419Q227 1442 313 1477T484 1576L570 1561Z" />
<glyph unicode="&#xba;" glyph-name="ordmasculine" horiz-adv-x="1102" d="M130 1119Q130 1239 164 1326T258 1469T396 1551T566 1578Q673 1578 750 1546T876 1455T949 1313T973 1129Q973 1010 939 923T845 781T706 699T536 672Q429 672 352 704T226 794T154
936T130 1119ZM794 1114Q794 1284 741 1386T545 1488Q425 1488 367 1405T308 1135Q308 967 361 864T558 761Q678 761 736 845T794 1114Z" />
<glyph unicode="&#xbb;" glyph-name="guillemotright" horiz-adv-x="1359" d="M184 111L115 182L544 616L121 1058L184 1125L731 680V544L184 111ZM695 111L626 182L1055 616L632 1058L695 1125L1242 680V544L695 111Z" />
<glyph unicode="&#xbc;" glyph-name="onequarter" horiz-adv-x="2269" d="M796 1561V780Q796 753 805 743T842 729L1016 707V626H399V707L609 729Q636 732 645 742T655 781V1404Q594 1379 525 1362T393 1336L374 1419Q453 1442 539 1477T710 1576L796 1561ZM717
0H565L1508 1562H1660L717 0ZM2195 182H2023V0H1892V182H1444L1395 246Q1514 419 1614 597T1804 953H1929L1956 922Q1876 769 1814 661T1701 477T1608 353T1524 266L1894 283L1919 548H2023V288L2195 296V182Z" />
<glyph unicode="&#xbd;" glyph-name="onehalf" horiz-adv-x="2268" d="M790 1561V780Q790 753 799 743T836 729L1010 707V626H393V707L603 729Q630 732 639 742T649 781V1404Q588 1379 519 1362T387 1336L368 1419Q447 1442 533 1477T704 1576L790 1561ZM711 0H559L1502
1562H1654L711 0ZM2142 0H1482L1457 74Q1595 182 1691 263T1847 410T1932 532T1959 648Q1959 739 1905 791T1760 843Q1674 843 1612 800T1515 714L1472 746Q1483 786 1510 824T1579 892T1675 940T1797 959Q1871 959 1931 936T2032 873T2095 781T2118 669Q2118 588
2078 514T1971 372T1819 238T1642 109H1883Q1964 109 2008 125T2067 176L2108 274L2185 263Q2181 199 2171 130T2142 0Z" />
<glyph unicode="&#xbe;" glyph-name="threequarters" horiz-adv-x="2291" d="M356 749L402 813Q454 773 530 746T691 718Q790 718 858 761T927 891Q927 974 861 1010T681 1046H573V1146H616Q736 1146 801 1192T866 1317Q866 1391 811 1432T667 1473Q606 1473 545
1450T430 1373L392 1407Q426 1500 513 1542T701 1585Q838 1585 928 1519T1019 1349Q1019 1303 1001 1264T952 1194T882 1144T800 1117Q925 1117 1005 1054T1085 888Q1085 771 981 692T713 613Q597 613 501 652T356 749ZM739 0H587L1530 1562H1682L739 0ZM2217 182H2045V0H1914V182H1466L1417
246Q1536 419 1636 597T1826 953H1951L1978 922Q1898 769 1836 661T1723 477T1630 353T1546 266L1916 283L1941 548H2045V288L2217 296V182Z" />
<glyph unicode="&#xbf;" glyph-name="questiondown" horiz-adv-x="1026" d="M462 1050Q462 1101 495 1134T580 1168Q632 1168 665 1135T698 1050Q698 998 665 965T580 932Q528 932 495 965T462 1050ZM551 699H639Q654 641 667 574T681 455Q681 372 639 322T519
201Q452 139 403 90T322 -6T275 -100T259 -206Q259 -328 325 -409T521 -491Q593 -491 653 -467T744 -412Q766 -390 774 -367T786 -313L803 -126H904Q926 -201 938 -289T951 -461Q887 -514 780 -557T547 -600Q437 -600 348 -564T198 -467T104 -329T71 -169Q71 -94
97 -32T165 83T263 185T375 283Q418 320 447 346T493 397T520 451T533 523L551 699Z" />
<glyph unicode="&#xc0;" glyph-name="Agrave" horiz-adv-x="1526" d="M1018 589L731 1392L462 589H1018ZM507 88V0H8V88L126 116Q149 121 165 134T188 170L672 1567H840L1350 170Q1358 147 1373 135T1412 116L1523 88V0H984V88L1184 126L1056 483H427L307 126L507
88ZM520 2064L955 1739L913 1666Q850 1695 778 1728T639 1796T512 1866T414 1933L520 2064Z" />
<glyph unicode="&#xc1;" glyph-name="Aacute" horiz-adv-x="1526" d="M1018 589L731 1392L462 589H1018ZM507 88V0H8V88L126 116Q149 121 165 134T188 170L672 1567H840L1350 170Q1358 147 1373 135T1412 116L1523 88V0H984V88L1184 126L1056 483H427L307 126L507
88ZM1128 1918Q1088 1888 1026 1855T892 1789T745 1725T606 1668L569 1738L1027 2053L1128 1918Z" />
<glyph unicode="&#xc2;" glyph-name="Acircumflex" horiz-adv-x="1526" d="M1018 589L731 1392L462 589H1018ZM507 88V0H8V88L126 116Q149 121 165 134T188 170L672 1567H840L1350 170Q1358 147 1373 135T1412 116L1523 88V0H984V88L1184 126L1056 483H427L307
126L507 88ZM452 1666L392 1731L670 2033L824 2043L1131 1737L1067 1667L747 1886L452 1666Z" />
<glyph unicode="&#xc3;" glyph-name="Atilde" horiz-adv-x="1526" d="M1018 589L731 1392L462 589H1018ZM507 88V0H8V88L126 116Q149 121 165 134T188 170L672 1567H840L1350 170Q1358 147 1373 135T1412 116L1523 88V0H984V88L1184 126L1056 483H427L307 126L507
88ZM1177 1930Q1164 1890 1140 1849T1082 1773T1005 1718T912 1696Q859 1696 815 1718T731 1767T654 1816T579 1839Q551 1839 527 1826T482 1794T444 1751T412 1707L347 1744Q360 1784 384 1825T442 1901T519 1956T612 1978Q665 1978 709 1956T793 1907T870 1858T945
1835Q973 1835 997 1848T1042 1880T1080 1923T1112 1967L1177 1930Z" />
<glyph unicode="&#xc4;" glyph-name="Adieresis" horiz-adv-x="1526" d="M1018 589L731 1392L462 589H1018ZM507 88V0H8V88L126 116Q149 121 165 134T188 170L672 1567H840L1350 170Q1358 147 1373 135T1412 116L1523 88V0H984V88L1184 126L1056 483H427L307 126L507
88ZM1114 1829Q1114 1777 1082 1744T998 1710Q947 1710 915 1743T882 1829Q882 1880 914 1914T998 1948Q1049 1948 1081 1914T1114 1829ZM641 1829Q641 1777 609 1744T525 1710Q474 1710 442 1743T409 1829Q409 1880 441 1914T525 1948Q576 1948 608 1914T641 1829Z"
/>
<glyph unicode="&#xc5;" glyph-name="Aring" horiz-adv-x="1526" d="M1018 589L731 1392L462 589H1018ZM507 88V0H8V88L126 116Q149 121 165 134T188 170L672 1567H840L1350 170Q1358 147 1373 135T1412 116L1523 88V0H984V88L1184 126L1056 483H427L307 126L507
88ZM1017 1783Q1017 1730 996 1687T939 1615T857 1569T760 1553Q639 1553 573 1619T507 1787Q508 1838 531 1879T592 1949T676 1993T770 2009Q886 2009 952 1944T1017 1783ZM631 1786Q631 1734 663 1689T764 1643Q828 1643 861 1680T895 1778Q895 1829 865 1873T765
1917Q702 1917 667 1879T631 1786Z" />
<glyph unicode="&#xc6;" glyph-name="AE" horiz-adv-x="2067" d="M880 1451L556 689H1015V1451H880ZM510 88V0H1V88L126 115Q149 120 164 132T189 166L732 1430L472 1474V1562H1874Q1880 1472 1879 1382T1869 1192H1780L1737 1383Q1732 1405 1718 1418T1680 1440Q1643
1453 1585 1458T1457 1464H1180V855L1686 872V736L1180 749V108H1519Q1589 108 1652 113T1752 132Q1776 141 1789 154T1809 189L1880 397L1968 384Q1967 295 1956 196T1925 0H800V88L961 117Q988 122 1001 138T1015 182V583H510L312 117L510 88Z" />
<glyph unicode="&#xc7;" glyph-name="Ccedilla" horiz-adv-x="1431" d="M847 -26Q666 -26 532 28T310 183T179 429T135 755Q135 958 187 1114T336 1374T571 1531T879 1585Q969 1585 1084 1569T1300 1513Q1303 1430 1297 1335T1279 1153H1179L1135 1365Q1130 1389
1119 1404T1086 1431Q1052 1450 979 1467T823 1485Q597 1485 463 1318T328 792Q328 639 355 507T442 279T596 128T824 73Q896 73 966 91T1083 136Q1105 149 1116 165T1136 204L1204 401L1304 391Q1305 312 1297 223T1275 52Q1194 17 1079 -4T847 -26ZM786 51H871L827
-86Q834 -86 847 -87T875 -91Q936 -103 978 -148T1021 -264Q1021 -319 994 -365T921 -444T813 -495T682 -514Q669 -514 664 -514T651 -513L641 -434Q741 -428 797 -382T853 -275Q853 -218 808 -194T712 -169L786 51Z" />
<glyph unicode="&#xc8;" glyph-name="Egrave" horiz-adv-x="1388" d="M1190 1192H1101L1058 1383Q1053 1405 1039 1418T1001 1440Q964 1453 906 1458T778 1464H501V855L1007 872V736L501 749V108H840Q910 108 973 113T1073 132Q1097 141 1110 154T1130 189L1201
397L1289 384Q1288 295 1277 196T1246 0H116V88L277 117Q304 122 317 138T331 182V1377Q331 1403 317 1420T277 1442L116 1474V1562H1195Q1201 1472 1200 1382T1190 1192ZM488 2064L923 1739L881 1666Q818 1695 746 1728T607 1796T480 1866T382 1933L488 2064Z"
/>
<glyph unicode="&#xc9;" glyph-name="Eacute" horiz-adv-x="1388" d="M1190 1192H1101L1058 1383Q1053 1405 1039 1418T1001 1440Q964 1453 906 1458T778 1464H501V855L1007 872V736L501 749V108H840Q910 108 973 113T1073 132Q1097 141 1110 154T1130 189L1201
397L1289 384Q1288 295 1277 196T1246 0H116V88L277 117Q304 122 317 138T331 182V1377Q331 1403 317 1420T277 1442L116 1474V1562H1195Q1201 1472 1200 1382T1190 1192ZM1096 1918Q1056 1888 994 1855T860 1789T713 1725T574 1668L537 1738L995 2053L1096 1918Z"
/>
<glyph unicode="&#xca;" glyph-name="Ecircumflex" horiz-adv-x="1388" d="M1190 1192H1101L1058 1383Q1053 1405 1039 1418T1001 1440Q964 1453 906 1458T778 1464H501V855L1007 872V736L501 749V108H840Q910 108 973 113T1073 132Q1097 141 1110 154T1130 189L1201
397L1289 384Q1288 295 1277 196T1246 0H116V88L277 117Q304 122 317 138T331 182V1377Q331 1403 317 1420T277 1442L116 1474V1562H1195Q1201 1472 1200 1382T1190 1192ZM420 1666L360 1731L638 2033L792 2043L1099 1737L1035 1667L715 1886L420 1666Z" />
<glyph unicode="&#xcb;" glyph-name="Edieresis" horiz-adv-x="1388" d="M1190 1192H1101L1058 1383Q1053 1405 1039 1418T1001 1440Q964 1453 906 1458T778 1464H501V855L1007 872V736L501 749V108H840Q910 108 973 113T1073 132Q1097 141 1110 154T1130 189L1201
397L1289 384Q1288 295 1277 196T1246 0H116V88L277 117Q304 122 317 138T331 182V1377Q331 1403 317 1420T277 1442L116 1474V1562H1195Q1201 1472 1200 1382T1190 1192ZM1082 1829Q1082 1777 1050 1744T966 1710Q915 1710 883 1743T850 1829Q850 1880 882 1914T966
1948Q1017 1948 1049 1914T1082 1829ZM609 1829Q609 1777 577 1744T493 1710Q442 1710 410 1743T377 1829Q377 1880 409 1914T493 1948Q544 1948 576 1914T609 1829Z" />
<glyph unicode="&#xcc;" glyph-name="Igrave" horiz-adv-x="832" d="M716 1562V1474L555 1442Q529 1437 515 1421T501 1377V182Q501 154 514 138T555 117L716 88V0H116V88L277 117Q304 122 317 138T331 182V1377Q331 1403 317 1420T277 1442L116 1474V1562H716ZM174
2064L609 1739L567 1666Q504 1695 432 1728T293 1796T166 1866T68 1933L174 2064Z" />
<glyph unicode="&#xcd;" glyph-name="Iacute" horiz-adv-x="832" d="M716 1562V1474L555 1442Q529 1437 515 1421T501 1377V182Q501 154 514 138T555 117L716 88V0H116V88L277 117Q304 122 317 138T331 182V1377Q331 1403 317 1420T277 1442L116 1474V1562H716ZM782
1918Q742 1888 680 1855T546 1789T399 1725T260 1668L223 1738L681 2053L782 1918Z" />
<glyph unicode="&#xce;" glyph-name="Icircumflex" horiz-adv-x="832" d="M716 1562V1474L555 1442Q529 1437 515 1421T501 1377V182Q501 154 514 138T555 117L716 88V0H116V88L277 117Q304 122 317 138T331 182V1377Q331 1403 317 1420T277 1442L116 1474V1562H716ZM106
1666L46 1731L324 2033L478 2043L785 1737L721 1667L401 1886L106 1666Z" />
<glyph unicode="&#xcf;" glyph-name="Idieresis" horiz-adv-x="832" d="M716 1562V1474L555 1442Q529 1437 515 1421T501 1377V182Q501 154 514 138T555 117L716 88V0H116V88L277 117Q304 122 317 138T331 182V1377Q331 1403 317 1420T277 1442L116 1474V1562H716ZM768
1829Q768 1777 736 1744T652 1710Q601 1710 569 1743T536 1829Q536 1880 568 1914T652 1948Q703 1948 735 1914T768 1829ZM295 1829Q295 1777 263 1744T179 1710Q128 1710 96 1743T63 1829Q63 1880 95 1914T179 1948Q230 1948 262 1914T295 1829Z" />
<glyph unicode="&#xd0;" glyph-name="Eth" horiz-adv-x="1666" d="M1531 824Q1531 615 1476 456T1319 191T1074 34T754 -15Q688 -14 599 -7T420 0H118V88L279 117Q305 121 319 137T333 179V749H128V861H333V1384Q333 1405 321 1420T287 1440L118 1474V1562H417Q513
1562 600 1570T783 1578Q1171 1578 1351 1381T1531 824ZM503 101Q528 97 562 94T634 88T710 85T779 85Q1051 94 1200 263T1350 793Q1350 1154 1194 1316T728 1478Q659 1478 602 1473T503 1465V861H887V749H503V101Z" />
<glyph unicode="&#xd1;" glyph-name="Ntilde" horiz-adv-x="1770" d="M689 88V0H116V88L277 117Q304 122 317 138T331 182V1377Q331 1403 317 1420T277 1442L116 1474V1562H498L1345 293V1377Q1345 1403 1331 1420T1291 1442L1120 1474V1562H1663V1474L1522 1442Q1496
1436 1482 1420T1468 1377V0H1335L454 1316V182Q454 154 467 138T508 117L689 88ZM1283 1930Q1270 1890 1246 1849T1188 1773T1111 1718T1018 1696Q965 1696 921 1718T837 1767T760 1816T685 1839Q657 1839 633 1826T588 1794T550 1751T518 1707L453 1744Q466 1784
490 1825T548 1901T625 1956T718 1978Q771 1978 815 1956T899 1907T976 1858T1051 1835Q1079 1835 1103 1848T1148 1880T1186 1923T1218 1967L1283 1930Z" />
<glyph unicode="&#xd2;" glyph-name="Ograve" horiz-adv-x="1603" d="M775 -23Q619 -23 499 31T299 186T177 432T135 757Q135 957 186 1112T329 1372T548 1530T829 1585Q985 1585 1105 1531T1305 1377T1427 1131T1468 807Q1468 609 1418 454T1276 194T1057 33T775
-23ZM803 1479Q578 1479 452 1304T325 782Q325 449 443 267T798 84Q1022 84 1149 260T1276 784Q1276 1116 1158 1297T803 1479ZM560 2064L995 1739L953 1666Q890 1695 818 1728T679 1796T552 1866T454 1933L560 2064Z" />
<glyph unicode="&#xd3;" glyph-name="Oacute" horiz-adv-x="1603" d="M775 -23Q619 -23 499 31T299 186T177 432T135 757Q135 957 186 1112T329 1372T548 1530T829 1585Q985 1585 1105 1531T1305 1377T1427 1131T1468 807Q1468 609 1418 454T1276 194T1057 33T775
-23ZM803 1479Q578 1479 452 1304T325 782Q325 449 443 267T798 84Q1022 84 1149 260T1276 784Q1276 1116 1158 1297T803 1479ZM1168 1918Q1128 1888 1066 1855T932 1789T785 1725T646 1668L609 1738L1067 2053L1168 1918Z" />
<glyph unicode="&#xd4;" glyph-name="Ocircumflex" horiz-adv-x="1603" d="M775 -23Q619 -23 499 31T299 186T177 432T135 757Q135 957 186 1112T329 1372T548 1530T829 1585Q985 1585 1105 1531T1305 1377T1427 1131T1468 807Q1468 609 1418 454T1276 194T1057
33T775 -23ZM803 1479Q578 1479 452 1304T325 782Q325 449 443 267T798 84Q1022 84 1149 260T1276 784Q1276 1116 1158 1297T803 1479ZM492 1666L432 1731L710 2033L864 2043L1171 1737L1107 1667L787 1886L492 1666Z" />
<glyph unicode="&#xd5;" glyph-name="Otilde" horiz-adv-x="1603" d="M775 -23Q619 -23 499 31T299 186T177 432T135 757Q135 957 186 1112T329 1372T548 1530T829 1585Q985 1585 1105 1531T1305 1377T1427 1131T1468 807Q1468 609 1418 454T1276 194T1057 33T775
-23ZM803 1479Q578 1479 452 1304T325 782Q325 449 443 267T798 84Q1022 84 1149 260T1276 784Q1276 1116 1158 1297T803 1479ZM1217 1930Q1204 1890 1180 1849T1122 1773T1045 1718T952 1696Q899 1696 855 1718T771 1767T694 1816T619 1839Q591 1839 567 1826T522
1794T484 1751T452 1707L387 1744Q400 1784 424 1825T482 1901T559 1956T652 1978Q705 1978 749 1956T833 1907T910 1858T985 1835Q1013 1835 1037 1848T1082 1880T1120 1923T1152 1967L1217 1930Z" />
<glyph unicode="&#xd6;" glyph-name="Odieresis" horiz-adv-x="1603" d="M775 -23Q619 -23 499 31T299 186T177 432T135 757Q135 957 186 1112T329 1372T548 1530T829 1585Q985 1585 1105 1531T1305 1377T1427 1131T1468 807Q1468 609 1418 454T1276 194T1057
33T775 -23ZM803 1479Q578 1479 452 1304T325 782Q325 449 443 267T798 84Q1022 84 1149 260T1276 784Q1276 1116 1158 1297T803 1479ZM1154 1829Q1154 1777 1122 1744T1038 1710Q987 1710 955 1743T922 1829Q922 1880 954 1914T1038 1948Q1089 1948 1121 1914T1154
1829ZM681 1829Q681 1777 649 1744T565 1710Q514 1710 482 1743T449 1829Q449 1880 481 1914T565 1948Q616 1948 648 1914T681 1829Z" />
<glyph unicode="&#xd7;" glyph-name="multiply" horiz-adv-x="1116" d="M252 209L158 309L474 617L158 925L253 1025L558 701L863 1025L958 925L642 617L958 309L864 209L558 533L252 209Z" />
<glyph unicode="&#xd8;" glyph-name="Oslash" horiz-adv-x="1603" d="M319 782Q319 597 354 457T462 228L1062 1410Q1010 1447 946 1465T804 1484Q576 1484 448 1309T319 782ZM799 78Q1027 78 1155 255T1284 784Q1284 968 1249 1107T1142 1335L541 153Q592 116
657 97T799 78ZM775 -23Q692 -23 619 -8T485 38L376 -170L278 -118L389 97Q264 193 200 362T135 757Q135 957 186 1112T329 1372T548 1530T829 1585Q912 1585 985 1570T1119 1525L1207 1692L1305 1640L1215 1466Q1340 1370 1404 1201T1468 807Q1468 609 1418 454T1276
194T1057 33T775 -23Z" />
<glyph unicode="&#xd9;" glyph-name="Ugrave" horiz-adv-x="1678" d="M1040 1562H1576V1474L1451 1444Q1425 1438 1412 1421T1399 1377V575Q1399 266 1249 124T826 -19Q539 -19 409 138T279 601V1378Q279 1405 266 1421T227 1444L107 1474V1562H689V1474L507 1442Q481
1438 467 1421T453 1376V583Q453 439 483 342T567 187T695 105T857 80Q1073 80 1171 203T1269 567V1377Q1269 1404 1256 1421T1216 1442L1040 1474V1562ZM619 2064L1054 1739L1012 1666Q949 1695 877 1728T738 1796T611 1866T513 1933L619 2064Z" />
<glyph unicode="&#xda;" glyph-name="Uacute" horiz-adv-x="1678" d="M1040 1562H1576V1474L1451 1444Q1425 1438 1412 1421T1399 1377V575Q1399 266 1249 124T826 -19Q539 -19 409 138T279 601V1378Q279 1405 266 1421T227 1444L107 1474V1562H689V1474L507 1442Q481
1438 467 1421T453 1376V583Q453 439 483 342T567 187T695 105T857 80Q1073 80 1171 203T1269 567V1377Q1269 1404 1256 1421T1216 1442L1040 1474V1562ZM1227 1918Q1187 1888 1125 1855T991 1789T844 1725T705 1668L668 1738L1126 2053L1227 1918Z" />
<glyph unicode="&#xdb;" glyph-name="Ucircumflex" horiz-adv-x="1678" d="M1040 1562H1576V1474L1451 1444Q1425 1438 1412 1421T1399 1377V575Q1399 266 1249 124T826 -19Q539 -19 409 138T279 601V1378Q279 1405 266 1421T227 1444L107 1474V1562H689V1474L507
1442Q481 1438 467 1421T453 1376V583Q453 439 483 342T567 187T695 105T857 80Q1073 80 1171 203T1269 567V1377Q1269 1404 1256 1421T1216 1442L1040 1474V1562ZM551 1666L491 1731L769 2033L923 2043L1230 1737L1166 1667L846 1886L551 1666Z" />
<glyph unicode="&#xdc;" glyph-name="Udieresis" horiz-adv-x="1678" d="M1040 1562H1576V1474L1451 1444Q1425 1438 1412 1421T1399 1377V575Q1399 266 1249 124T826 -19Q539 -19 409 138T279 601V1378Q279 1405 266 1421T227 1444L107 1474V1562H689V1474L507
1442Q481 1438 467 1421T453 1376V583Q453 439 483 342T567 187T695 105T857 80Q1073 80 1171 203T1269 567V1377Q1269 1404 1256 1421T1216 1442L1040 1474V1562ZM1213 1829Q1213 1777 1181 1744T1097 1710Q1046 1710 1014 1743T981 1829Q981 1880 1013 1914T1097
1948Q1148 1948 1180 1914T1213 1829ZM740 1829Q740 1777 708 1744T624 1710Q573 1710 541 1743T508 1829Q508 1880 540 1914T624 1948Q675 1948 707 1914T740 1829Z" />
<glyph unicode="&#xdd;" glyph-name="Yacute" horiz-adv-x="1455" d="M1071 0H401V88L595 123Q623 128 637 143T651 186V595L190 1395Q179 1414 163 1425T125 1443L-1 1474V1562H559V1474L366 1437L762 738L1126 1439L935 1474V1562H1435V1474L1309 1446Q1286
1441 1270 1430T1243 1398L821 594V186Q821 158 835 143T877 123L1071 88V0ZM1083 1918Q1043 1888 981 1855T847 1789T700 1725T561 1668L524 1738L982 2053L1083 1918Z" />
<glyph unicode="&#xde;" glyph-name="Thorn" horiz-adv-x="1384" d="M747 429Q907 429 1005 508T1104 796Q1104 961 1021 1044T734 1128Q672 1128 611 1123T496 1112V443Q563 436 623 433T747 429ZM721 88V0H133V88L274 117Q301 122 314 138T328 182V1377Q328
1403 314 1419T274 1442L133 1474V1562H721V1474L550 1442Q524 1437 510 1421T496 1377V1211Q574 1219 645 1223T792 1228Q1032 1228 1160 1124T1289 803Q1289 560 1148 448T753 335Q672 335 611 338T496 345V182Q496 154 509 138T550 117L721 88Z" />
<glyph unicode="&#xdf;" glyph-name="germandbls" horiz-adv-x="1469" d="M969 -26Q855 -26 768 4T630 63Q626 98 624 131T622 195Q622 238 625 277T633 353H726L763 211Q772 176 781 160T814 127Q839 110 889 90T1009 69Q1108 69 1170 120T1233 261Q1233 354
1162 405T976 517Q926 543 877 572T788 638T725 724T701 839Q701 905 725 958T789 1051T879 1121T979 1169Q998 1216 1004 1266T1010 1350Q1010 1414 994 1470T943 1567T856 1632T730 1656Q602 1656 529 1567T455 1258V0H105V88L233 107Q261 111 275 126T290 169V1006L86
1028V1109L290 1135V1213Q290 1343 333 1451T448 1635T614 1753T808 1795Q895 1795 965 1764T1084 1678T1159 1548T1186 1386Q1186 1320 1173 1248T1141 1127Q1004 1096 929 1032T854 884Q854 798 925 753T1097 656Q1156 627 1208 595T1300 522T1363 430T1386 310Q1386
230 1354 167T1266 62T1134 -3T969 -26Z" />
<glyph unicode="&#xe0;" glyph-name="agrave" horiz-adv-x="1190" d="M476 99Q557 99 642 131T785 213V487L567 466Q438 454 364 410T290 265Q290 187 336 143T476 99ZM951 -16Q883 -16 843 23T789 131Q724 62 628 20T423 -23Q357 -23 300 -6T200 45T133 130T108
249Q108 339 149 397T255 489T397 540T547 562L785 583V726Q785 892 722 959T525 1027Q429 1027 342 995T182 893L141 938Q159 993 201 1034T301 1104T428 1146T570 1160Q755 1160 851 1064T948 764V175Q948 142 963 127T1008 110L1128 100V19Q1118 15 1097 9T1051
-3T1000 -12T951 -16ZM407 1743L751 1324L691 1263Q634 1302 573 1351T456 1450T353 1549T278 1636L407 1743Z" />
<glyph unicode="&#xe1;" glyph-name="aacute" horiz-adv-x="1190" d="M476 99Q557 99 642 131T785 213V487L567 466Q438 454 364 410T290 265Q290 187 336 143T476 99ZM951 -16Q883 -16 843 23T789 131Q724 62 628 20T423 -23Q357 -23 300 -6T200 45T133 130T108
249Q108 339 149 397T255 489T397 540T547 562L785 583V726Q785 892 722 959T525 1027Q429 1027 342 995T182 893L141 938Q159 993 201 1034T301 1104T428 1146T570 1160Q755 1160 851 1064T948 764V175Q948 142 963 127T1008 110L1128 100V19Q1118 15 1097 9T1051
-3T1000 -12T951 -16ZM475 1263L418 1321L769 1743L898 1636Q870 1598 822 1550T716 1451T595 1351T475 1263Z" />
<glyph unicode="&#xe2;" glyph-name="acircumflex" horiz-adv-x="1190" d="M476 99Q557 99 642 131T785 213V487L567 466Q438 454 364 410T290 265Q290 187 336 143T476 99ZM951 -16Q883 -16 843 23T789 131Q724 62 628 20T423 -23Q357 -23 300 -6T200 45T133
130T108 249Q108 339 149 397T255 489T397 540T547 562L785 583V726Q785 892 722 959T525 1027Q429 1027 342 995T182 893L141 938Q159 993 201 1034T301 1104T428 1146T570 1160Q755 1160 851 1064T948 764V175Q948 142 963 127T1008 110L1128 100V19Q1118 15
1097 9T1051 -3T1000 -12T951 -16ZM279 1258L214 1313L482 1698L633 1712L933 1319L864 1259L559 1545L279 1258Z" />
<glyph unicode="&#xe3;" glyph-name="atilde" horiz-adv-x="1190" d="M476 99Q557 99 642 131T785 213V487L567 466Q438 454 364 410T290 265Q290 187 336 143T476 99ZM951 -16Q883 -16 843 23T789 131Q724 62 628 20T423 -23Q357 -23 300 -6T200 45T133 130T108
249Q108 339 149 397T255 489T397 540T547 562L785 583V726Q785 892 722 959T525 1027Q429 1027 342 995T182 893L141 938Q159 993 201 1034T301 1104T428 1146T570 1160Q755 1160 851 1064T948 764V175Q948 142 963 127T1008 110L1128 100V19Q1118 15 1097 9T1051
-3T1000 -12T951 -16ZM969 1528Q957 1488 935 1447T881 1371T807 1316T714 1294Q663 1294 620 1316T538 1364T464 1412T391 1434Q338 1434 300 1390T234 1305L169 1342Q181 1382 203 1423T257 1499T331 1554T424 1576Q475 1576 518 1554T600 1506T674 1458T747
1436Q799 1436 838 1480T904 1565L969 1528Z" />
<glyph unicode="&#xe4;" glyph-name="adieresis" horiz-adv-x="1190" d="M476 99Q557 99 642 131T785 213V487L567 466Q438 454 364 410T290 265Q290 187 336 143T476 99ZM951 -16Q883 -16 843 23T789 131Q724 62 628 20T423 -23Q357 -23 300 -6T200 45T133 130T108
249Q108 339 149 397T255 489T397 540T547 562L785 583V726Q785 892 722 959T525 1027Q429 1027 342 995T182 893L141 938Q159 993 201 1034T301 1104T428 1146T570 1160Q755 1160 851 1064T948 764V175Q948 142 963 127T1008 110L1128 100V19Q1118 15 1097 9T1051
-3T1000 -12T951 -16ZM900 1456Q900 1404 868 1371T784 1337Q733 1337 701 1370T668 1456Q668 1507 700 1541T784 1575Q835 1575 867 1541T900 1456ZM467 1456Q467 1404 435 1371T351 1337Q300 1337 268 1370T235 1456Q235 1507 267 1541T351 1575Q402 1575 434
1541T467 1456Z" />
<glyph unicode="&#xe5;" glyph-name="aring" horiz-adv-x="1190" d="M476 99Q557 99 642 131T785 213V487L567 466Q438 454 364 410T290 265Q290 187 336 143T476 99ZM951 -16Q883 -16 843 23T789 131Q724 62 628 20T423 -23Q357 -23 300 -6T200 45T133 130T108
249Q108 339 149 397T255 489T397 540T547 562L785 583V726Q785 892 722 959T525 1027Q429 1027 342 995T182 893L141 938Q159 993 201 1034T301 1104T428 1146T570 1160Q755 1160 851 1064T948 764V175Q948 142 963 127T1008 110L1128 100V19Q1118 15 1097 9T1051
-3T1000 -12T951 -16ZM819 1508Q819 1456 798 1414T743 1343T662 1299T567 1283Q448 1283 383 1348T318 1512Q319 1562 342 1602T401 1670T484 1713T577 1729Q690 1729 755 1665T819 1508ZM446 1511Q446 1461 476 1418T571 1375Q631 1375 661 1410T693 1503Q693
1552 664 1593T572 1635Q513 1635 480 1599T446 1511Z" />
<glyph unicode="&#xe6;" glyph-name="ae" horiz-adv-x="1836" d="M1271 1062Q1151 1062 1071 984T967 738H1532Q1533 751 1534 761T1535 785Q1535 910 1466 986T1271 1062ZM1708 248Q1669 132 1553 55T1275 -23Q1134 -23 1034 33T875 186Q803 85 682 31T433 -23Q291
-23 200 45T108 248Q108 338 149 396T253 489T395 540T547 562L785 581V726Q785 891 717 959T517 1027Q436 1027 347 997T182 893L141 938Q158 993 201 1034T302 1104T427 1146T560 1160Q690 1160 775 1111T900 968Q968 1064 1071 1116T1302 1168Q1386 1168 1461
1144T1591 1072T1678 949T1710 774Q1710 748 1708 710T1700 642H959Q958 632 958 621T958 599Q958 456 988 360T1067 208T1180 127T1312 103Q1411 103 1500 152T1639 283L1708 248ZM477 99Q517 99 564 107T660 134T755 182T841 251Q819 302 806 361T787 485L567
466Q438 455 364 411T290 265Q290 187 336 143T477 99Z" />
<glyph unicode="&#xe7;" glyph-name="ccedilla" horiz-adv-x="1124" d="M121 556Q121 682 153 794T252 988T422 1119T663 1168Q754 1168 849 1149T1000 1101Q1004 1031 998 943T981 783H893L856 938Q850 964 842 983T813 1020Q785 1042 739 1056T636 1071Q476
1071 391 952T306 601Q306 350 402 226T659 102Q755 102 831 140T958 235L1013 183Q962 86 858 32T617 -23Q496 -23 403 20T248 139T153 323T121 556ZM547 51H632L588 -86Q595 -86 608 -87T636 -91Q697 -103 739 -148T782 -264Q782 -319 755 -365T682 -444T574
-495T443 -514Q430 -514 425 -514T412 -513L402 -434Q502 -428 558 -382T614 -275Q614 -218 569 -194T473 -169L547 51Z" />
<glyph unicode="&#xe8;" glyph-name="egrave" horiz-adv-x="1177" d="M613 1066Q491 1066 411 986T308 738H873Q874 751 875 762T876 786Q876 911 807 988T613 1066ZM1049 248Q1010 132 898 55T616 -23Q492 -23 399 21T244 142T152 326T121 556Q121 698 159 812T266
1004T432 1125T645 1168Q729 1168 803 1144T932 1072T1019 948T1051 772Q1051 747 1049 710T1041 642H300Q299 632 299 621T299 599Q299 456 329 360T408 208T522 127T656 103Q760 103 845 152T980 283L1049 248ZM457 1743L801 1324L741 1263Q684 1302 623 1351T506
1450T403 1549T328 1636L457 1743Z" />
<glyph unicode="&#xe9;" glyph-name="eacute" horiz-adv-x="1177" d="M613 1066Q491 1066 411 986T308 738H873Q874 751 875 762T876 786Q876 911 807 988T613 1066ZM1049 248Q1010 132 898 55T616 -23Q492 -23 399 21T244 142T152 326T121 556Q121 698 159 812T266
1004T432 1125T645 1168Q729 1168 803 1144T932 1072T1019 948T1051 772Q1051 747 1049 710T1041 642H300Q299 632 299 621T299 599Q299 456 329 360T408 208T522 127T656 103Q760 103 845 152T980 283L1049 248ZM525 1263L468 1321L819 1743L948 1636Q920 1598
872 1550T766 1451T645 1351T525 1263Z" />
<glyph unicode="&#xea;" glyph-name="ecircumflex" horiz-adv-x="1177" d="M613 1066Q491 1066 411 986T308 738H873Q874 751 875 762T876 786Q876 911 807 988T613 1066ZM1049 248Q1010 132 898 55T616 -23Q492 -23 399 21T244 142T152 326T121 556Q121 698 159
812T266 1004T432 1125T645 1168Q729 1168 803 1144T932 1072T1019 948T1051 772Q1051 747 1049 710T1041 642H300Q299 632 299 621T299 599Q299 456 329 360T408 208T522 127T656 103Q760 103 845 152T980 283L1049 248ZM329 1258L264 1313L532 1698L683 1712L983
1319L914 1259L609 1545L329 1258Z" />
<glyph unicode="&#xeb;" glyph-name="edieresis" horiz-adv-x="1177" d="M613 1066Q491 1066 411 986T308 738H873Q874 751 875 762T876 786Q876 911 807 988T613 1066ZM1049 248Q1010 132 898 55T616 -23Q492 -23 399 21T244 142T152 326T121 556Q121 698 159
812T266 1004T432 1125T645 1168Q729 1168 803 1144T932 1072T1019 948T1051 772Q1051 747 1049 710T1041 642H300Q299 632 299 621T299 599Q299 456 329 360T408 208T522 127T656 103Q760 103 845 152T980 283L1049 248ZM950 1456Q950 1404 918 1371T834 1337Q783
1337 751 1370T718 1456Q718 1507 750 1541T834 1575Q885 1575 917 1541T950 1456ZM517 1456Q517 1404 485 1371T401 1337Q350 1337 318 1370T285 1456Q285 1507 317 1541T401 1575Q452 1575 484 1541T517 1456Z" />
<glyph unicode="&#xec;" glyph-name="igrave" horiz-adv-x="715" d="M454 1133V172Q454 144 468 128T511 107L639 88V0H104V88L232 107Q260 111 274 127T289 171V945Q289 973 275 989T234 1009L89 1027V1109Q167 1134 258 1146T428 1161L454 1133ZM163 1743L507
1324L447 1263Q390 1302 329 1351T212 1450T109 1549T34 1636L163 1743Z" />
<glyph unicode="&#xed;" glyph-name="iacute" horiz-adv-x="715" d="M454 1133V172Q454 144 468 128T511 107L639 88V0H104V88L232 107Q260 111 274 127T289 171V945Q289 973 275 989T234 1009L89 1027V1109Q167 1134 258 1146T428 1161L454 1133ZM231 1263L174
1321L525 1743L654 1636Q626 1598 578 1550T472 1451T351 1351T231 1263Z" />
<glyph unicode="&#xee;" glyph-name="icircumflex" horiz-adv-x="715" d="M454 1133V172Q454 144 468 128T511 107L639 88V0H104V88L232 107Q260 111 274 127T289 171V945Q289 973 275 989T234 1009L89 1027V1109Q167 1134 258 1146T428 1161L454 1133ZM65 1259L0
1309L238 1694L389 1708L659 1315L590 1260L315 1541L65 1259Z" />
<glyph unicode="&#xef;" glyph-name="idieresis" horiz-adv-x="715" d="M454 1133V172Q454 144 468 128T511 107L639 88V0H104V88L232 107Q260 111 274 127T289 171V945Q289 973 275 989T234 1009L89 1027V1109Q167 1134 258 1146T428 1161L454 1133ZM656 1456Q656
1404 624 1371T540 1337Q489 1337 457 1370T424 1456Q424 1507 456 1541T540 1575Q591 1575 623 1541T656 1456ZM223 1456Q223 1404 191 1371T107 1337Q56 1337 24 1370T-9 1456Q-9 1507 23 1541T107 1575Q158 1575 190 1541T223 1456Z" />
<glyph unicode="&#xf0;" glyph-name="eth" horiz-adv-x="1267" d="M597 -23Q482 -23 394 17T246 130T155 309T124 544Q124 703 167 813T277 991T427 1088T591 1118Q668 1118 745 1093T880 1015Q839 1134 772 1239T615 1433L324 1210L249 1309L534 1506Q462 1565
379 1616T202 1708L237 1793Q353 1754 454 1701T642 1585L899 1783L974 1684L729 1515Q828 1427 902 1325T1026 1111T1100 881T1125 641Q1125 486 1089 363T984 154T818 23T597 -23ZM622 76Q794 76 869 219T944 615Q944 684 938 749T918 876Q861 938 784 969T625
1001Q557 1001 499 976T398 897T331 755T306 543Q306 451 321 366T373 217T471 115T622 76Z" />
<glyph unicode="&#xf1;" glyph-name="ntilde" horiz-adv-x="1441" d="M634 88V0H104V88L232 107Q260 111 274 127T289 171V945Q289 973 275 989T234 1009L89 1027V1109Q162 1133 247 1146T405 1161L436 1129L448 1001Q535 1094 642 1129T855 1164Q1053 1164 1124
1048T1196 723V170Q1196 142 1211 127T1253 107L1381 88V0H851V88L974 107Q998 111 1014 125T1031 170V684Q1031 857 985 946T795 1036Q702 1036 614 1007T454 921V171Q454 143 468 127T510 107L634 88ZM1127 1528Q1115 1488 1093 1447T1039 1371T965 1316T872
1294Q821 1294 778 1316T696 1364T622 1412T549 1434Q496 1434 458 1390T392 1305L327 1342Q339 1382 361 1423T415 1499T489 1554T582 1576Q633 1576 676 1554T758 1506T832 1458T905 1436Q957 1436 996 1480T1062 1565L1127 1528Z" />
<glyph unicode="&#xf2;" glyph-name="ograve" horiz-adv-x="1278" d="M123 567Q123 721 165 835T281 1022T451 1132T658 1168Q792 1168 887 1124T1041 1000T1127 812T1155 576Q1155 422 1113 309T997 122T826 13T619 -23Q485 -23 390 21T236 144T150 331T123 567ZM969
559Q969 668 953 761T897 921T793 1027T630 1066Q467 1066 388 950T308 586Q308 479 324 386T379 225T484 118T648 79Q811 79 890 196T969 559ZM477 1743L821 1324L761 1263Q704 1302 643 1351T526 1450T423 1549T348 1636L477 1743Z" />
<glyph unicode="&#xf3;" glyph-name="oacute" horiz-adv-x="1278" d="M123 567Q123 721 165 835T281 1022T451 1132T658 1168Q792 1168 887 1124T1041 1000T1127 812T1155 576Q1155 422 1113 309T997 122T826 13T619 -23Q485 -23 390 21T236 144T150 331T123 567ZM969
559Q969 668 953 761T897 921T793 1027T630 1066Q467 1066 388 950T308 586Q308 479 324 386T379 225T484 118T648 79Q811 79 890 196T969 559ZM545 1263L488 1321L839 1743L968 1636Q940 1598 892 1550T786 1451T665 1351T545 1263Z" />
<glyph unicode="&#xf4;" glyph-name="ocircumflex" horiz-adv-x="1278" d="M123 567Q123 721 165 835T281 1022T451 1132T658 1168Q792 1168 887 1124T1041 1000T1127 812T1155 576Q1155 422 1113 309T997 122T826 13T619 -23Q485 -23 390 21T236 144T150 331T123
567ZM969 559Q969 668 953 761T897 921T793 1027T630 1066Q467 1066 388 950T308 586Q308 479 324 386T379 225T484 118T648 79Q811 79 890 196T969 559ZM349 1258L284 1313L552 1698L703 1712L1003 1319L934 1259L629 1545L349 1258Z" />
<glyph unicode="&#xf5;" glyph-name="otilde" horiz-adv-x="1278" d="M123 567Q123 721 165 835T281 1022T451 1132T658 1168Q792 1168 887 1124T1041 1000T1127 812T1155 576Q1155 422 1113 309T997 122T826 13T619 -23Q485 -23 390 21T236 144T150 331T123 567ZM969
559Q969 668 953 761T897 921T793 1027T630 1066Q467 1066 388 950T308 586Q308 479 324 386T379 225T484 118T648 79Q811 79 890 196T969 559ZM1039 1528Q1027 1488 1005 1447T951 1371T877 1316T784 1294Q733 1294 690 1316T608 1364T534 1412T461 1434Q408 1434
370 1390T304 1305L239 1342Q251 1382 273 1423T327 1499T401 1554T494 1576Q545 1576 588 1554T670 1506T744 1458T817 1436Q869 1436 908 1480T974 1565L1039 1528Z" />
<glyph unicode="&#xf6;" glyph-name="odieresis" horiz-adv-x="1278" d="M123 567Q123 721 165 835T281 1022T451 1132T658 1168Q792 1168 887 1124T1041 1000T1127 812T1155 576Q1155 422 1113 309T997 122T826 13T619 -23Q485 -23 390 21T236 144T150 331T123
567ZM969 559Q969 668 953 761T897 921T793 1027T630 1066Q467 1066 388 950T308 586Q308 479 324 386T379 225T484 118T648 79Q811 79 890 196T969 559ZM970 1456Q970 1404 938 1371T854 1337Q803 1337 771 1370T738 1456Q738 1507 770 1541T854 1575Q905 1575
937 1541T970 1456ZM537 1456Q537 1404 505 1371T421 1337Q370 1337 338 1370T305 1456Q305 1507 337 1541T421 1575Q472 1575 504 1541T537 1456Z" />
<glyph unicode="&#xf7;" glyph-name="divide" horiz-adv-x="1251" d="M737 964Q737 915 706 884T625 852Q576 852 545 883T513 964Q513 1013 544 1044T625 1076Q674 1076 705 1045T737 964ZM1078 550H173V679H1078V550ZM737 265Q737 216 706 185T625 153Q576 153
545 184T513 265Q513 314 544 345T625 377Q674 377 705 346T737 265Z" />
<glyph unicode="&#xf8;" glyph-name="oslash" horiz-adv-x="1278" d="M307 586Q307 464 328 362T401 192L805 1019Q771 1041 727 1052T630 1064Q467 1064 387 948T307 586ZM648 81Q811 81 890 197T970 559Q970 679 950 780T879 950L477 123Q511 103 554 92T648
81ZM619 -23Q563 -23 514 -15T422 9L327 -173L236 -124L328 56Q220 131 172 265T123 567Q123 721 165 835T281 1022T451 1132T658 1168Q715 1168 766 1160T860 1135L950 1307L1041 1258L953 1086Q1060 1011 1107 877T1155 576Q1155 422 1113 309T997 122T826 13T619
-23Z" />
<glyph unicode="&#xf9;" glyph-name="ugrave" horiz-adv-x="1377" d="M1123 -16Q1046 -16 1009 29T960 136Q893 69 806 23T602 -23Q412 -23 329 83T246 402V947Q246 974 233 990T191 1011L61 1031V1113Q136 1136 223 1147T385 1161L411 1133V436Q411 269 459 186T649
103Q734 103 811 131T955 220V947Q955 975 941 991T900 1011L739 1034V1116Q817 1136 916 1148T1094 1161L1120 1133V176Q1120 139 1137 126T1180 110L1300 100V19Q1268 7 1217 -4T1123 -16ZM476 1743L820 1324L760 1263Q703 1302 642 1351T525 1450T422 1549T347
1636L476 1743Z" />
<glyph unicode="&#xfa;" glyph-name="uacute" horiz-adv-x="1377" d="M1123 -16Q1046 -16 1009 29T960 136Q893 69 806 23T602 -23Q412 -23 329 83T246 402V947Q246 974 233 990T191 1011L61 1031V1113Q136 1136 223 1147T385 1161L411 1133V436Q411 269 459 186T649
103Q734 103 811 131T955 220V947Q955 975 941 991T900 1011L739 1034V1116Q817 1136 916 1148T1094 1161L1120 1133V176Q1120 139 1137 126T1180 110L1300 100V19Q1268 7 1217 -4T1123 -16ZM544 1263L487 1321L838 1743L967 1636Q939 1598 891 1550T785 1451T664
1351T544 1263Z" />
<glyph unicode="&#xfb;" glyph-name="ucircumflex" horiz-adv-x="1377" d="M1123 -16Q1046 -16 1009 29T960 136Q893 69 806 23T602 -23Q412 -23 329 83T246 402V947Q246 974 233 990T191 1011L61 1031V1113Q136 1136 223 1147T385 1161L411 1133V436Q411 269
459 186T649 103Q734 103 811 131T955 220V947Q955 975 941 991T900 1011L739 1034V1116Q817 1136 916 1148T1094 1161L1120 1133V176Q1120 139 1137 126T1180 110L1300 100V19Q1268 7 1217 -4T1123 -16ZM348 1258L283 1313L551 1698L702 1712L1002 1319L933 1259L628
1545L348 1258Z" />
<glyph unicode="&#xfc;" glyph-name="udieresis" horiz-adv-x="1377" d="M1123 -16Q1046 -16 1009 29T960 136Q893 69 806 23T602 -23Q412 -23 329 83T246 402V947Q246 974 233 990T191 1011L61 1031V1113Q136 1136 223 1147T385 1161L411 1133V436Q411 269 459
186T649 103Q734 103 811 131T955 220V947Q955 975 941 991T900 1011L739 1034V1116Q817 1136 916 1148T1094 1161L1120 1133V176Q1120 139 1137 126T1180 110L1300 100V19Q1268 7 1217 -4T1123 -16ZM969 1456Q969 1404 937 1371T853 1337Q802 1337 770 1370T737
1456Q737 1507 769 1541T853 1575Q904 1575 936 1541T969 1456ZM536 1456Q536 1404 504 1371T420 1337Q369 1337 337 1370T304 1456Q304 1507 336 1541T420 1575Q471 1575 503 1541T536 1456Z" />
<glyph unicode="&#xfd;" glyph-name="yacute" horiz-adv-x="1238" d="M263 -516Q212 -516 157 -513T44 -500V-389Q163 -381 253 -362T411 -301T532 -187T628 0H542L177 975Q169 997 154 1010T116 1029L31 1052V1136H530V1052L351 1023L674 137L954 1023L784 1052V1136H1213V1052L1128
1029Q1104 1022 1090 1010T1066 971L722 -51Q641 -292 539 -404T263 -516ZM555 1263L498 1321L849 1743L978 1636Q950 1598 902 1550T796 1451T675 1351T555 1263Z" />
<glyph unicode="&#xfe;" glyph-name="thorn" horiz-adv-x="1294" d="M607 81Q782 81 885 194T992 571Q996 814 910 928T658 1042Q564 1042 492 1011T373 934V138Q410 114 471 98T607 81ZM600 -408V-496H23V-408L152 -389Q180 -385 194 -370T208 -326V1583Q208
1611 194 1626T151 1645L-2 1667V1742Q79 1767 172 1781T346 1797L373 1770V1027Q435 1089 518 1128T718 1168Q815 1168 898 1137T1042 1041T1136 872T1171 625Q1171 475 1133 355T1021 151T841 22T598 -23Q542 -23 482 -15T373 13V-327Q373 -355 387 -370T430
-389L600 -408Z" />
<glyph unicode="&#xff;" glyph-name="ydieresis" horiz-adv-x="1238" d="M263 -516Q212 -516 157 -513T44 -500V-389Q163 -381 253 -362T411 -301T532 -187T628 0H542L177 975Q169 997 154 1010T116 1029L31 1052V1136H530V1052L351 1023L674 137L954 1023L784
1052V1136H1213V1052L1128 1029Q1104 1022 1090 1010T1066 971L722 -51Q641 -292 539 -404T263 -516ZM980 1456Q980 1404 948 1371T864 1337Q813 1337 781 1370T748 1456Q748 1507 780 1541T864 1575Q915 1575 947 1541T980 1456ZM547 1456Q547 1404 515 1371T431
1337Q380 1337 348 1370T315 1456Q315 1507 347 1541T431 1575Q482 1575 514 1541T547 1456Z" />
<glyph unicode="&#x2013;" glyph-name="endash" horiz-adv-x="1504" d="M172 532V658H1332V532H172Z" />
<glyph unicode="&#x2014;" glyph-name="emdash" horiz-adv-x="2224" d="M172 533V658H2052V533H172Z" />
<glyph unicode="&#x2018;" glyph-name="quoteleft" horiz-adv-x="554" d="M122 1455Q122 1578 196 1684T399 1859L441 1804Q375 1753 326 1690T277 1561Q277 1527 289 1514T323 1489Q350 1474 375 1445T401 1367Q401 1316 366 1279T277 1241Q219 1241 171 1293T122 1455Z" />
<glyph unicode="&#x2019;" glyph-name="quoteright" horiz-adv-x="558" d="M447 1625Q447 1502 373 1396T170 1221L128 1276Q194 1327 243 1390T292 1519Q292 1553 280 1566T246 1591Q219 1606 194 1635T168 1713Q168 1764 203 1801T292 1839Q350 1839 398 1787T447
1625Z" />
<glyph unicode="&#x201a;" glyph-name="quotesinglbase" horiz-adv-x="623" d="M447 147Q447 24 373 -82T170 -257L128 -202Q194 -151 243 -88T292 41Q292 75 280 88T246 113Q219 128 194 157T168 235Q168 286 203 323T292 361Q350 361 398 309T447 147Z" />
<glyph unicode="&#x201c;" glyph-name="quotedblleft" horiz-adv-x="954" d="M522 1455Q522 1578 596 1684T799 1859L841 1804Q775 1753 726 1690T677 1561Q677 1527 689 1514T723 1489Q750 1474 775 1445T801 1367Q801 1316 766 1279T677 1241Q619 1241 571 1293T522
1455ZM122 1455Q122 1578 196 1684T399 1859L441 1804Q375 1753 326 1690T277 1561Q277 1527 289 1514T323 1489Q350 1474 375 1445T401 1367Q401 1316 366 1279T277 1241Q219 1241 171 1293T122 1455Z" />
<glyph unicode="&#x201d;" glyph-name="quotedblright" horiz-adv-x="958" d="M447 1625Q447 1502 373 1396T170 1221L128 1276Q194 1327 243 1390T292 1519Q292 1553 280 1566T246 1591Q219 1606 194 1635T168 1713Q168 1764 203 1801T292 1839Q350 1839 398
1787T447 1625ZM847 1625Q847 1502 773 1396T570 1221L528 1276Q594 1327 643 1390T692 1519Q692 1553 680 1566T646 1591Q619 1606 594 1635T568 1713Q568 1764 603 1801T692 1839Q750 1839 798 1787T847 1625Z" />
<glyph unicode="&#x201e;" glyph-name="quotedblbase" horiz-adv-x="1023" d="M447 147Q447 24 373 -82T170 -257L128 -202Q194 -151 243 -88T292 41Q292 75 280 88T246 113Q219 128 194 157T168 235Q168 286 203 323T292 361Q350 361 398 309T447 147ZM847 147Q847
24 773 -82T570 -257L528 -202Q594 -151 643 -88T692 41Q692 75 680 88T646 113Q619 128 594 157T568 235Q568 286 603 323T692 361Q750 361 798 309T847 147Z" />
<glyph unicode="&#x2022;" glyph-name="bullet" horiz-adv-x="836" d="M646 636Q646 537 583 477T418 417Q316 417 253 477T190 636Q190 735 253 795T418 855Q520 855 583 795T646 636Z" />
<glyph unicode="&#x2039;" glyph-name="guilsinglleft" horiz-adv-x="848" d="M664 111L117 544V680L664 1125L727 1058L304 616L733 182L664 111Z" />
<glyph unicode="&#x203a;" glyph-name="guilsinglright" horiz-adv-x="848" d="M184 111L115 182L544 616L121 1058L184 1125L731 680V544L184 111Z" />
</font>
</defs>
</svg>
