<?xml version="1.0" standalone="no"?>
<!DOCTYPE svg PUBLIC "-//W3C//DTD SVG 1.1//EN" "http://www.w3.org/Graphics/SVG/1.1/DTD/svg11.dtd">
<svg xmlns="http://www.w3.org/2000/svg">
<defs >
<font id="Viga" horiz-adv-x="449" ><font-face
    font-family="Viga"
    units-per-em="1000"
    panose-1="2 11 8 0 3 0 0 2 0 4"
    ascent="1015"
    descent="-329"
    alphabetic="0" />
<glyph unicode=" " glyph-name="space" horiz-adv-x="232" />
<glyph unicode="!" glyph-name="exclam" horiz-adv-x="347" d="M273 712L243 280Q239 252 224 237T189 221T156 237T141 280L112 712H273ZM275 119T275 69T260 3T194 -13T128 3T112 69T128 134T194 150T259 135Z" />
<glyph unicode="&quot;" glyph-name="quotedbl" horiz-adv-x="464" d="M181 501H78L68 712H191L181 501ZM386 501H283L273 712H396L386 501Z" />
<glyph unicode="#" glyph-name="numbersign" horiz-adv-x="691" d="M62 179V300H146L154 430H86V551H162L172 718H311L301 551H426L436 718H575L565 551H634V430H557L549 300H610V179H542L531 0H392L403 179H278L267 0H128L139 179H62ZM293 430L285 300H410L418 430H293Z" />
<glyph unicode="$" glyph-name="dollar" horiz-adv-x="495" d="M190 -109V-1Q117 13 70 69T22 226L148 232Q148 172 169 145T236 118T311 142T342 206Q342 278 274 291L181 303Q111 316 71 365T30 499T73 640T190 712V786H291V714Q372 701 419 648T467 516L342
510Q334 560 310 578T249 597T188 570T164 509T184 454T233 428L298 416Q376 403 428 352T480 214T424 72T291 0V-109H190Z" />
<glyph unicode="%" glyph-name="percent" horiz-adv-x="848" d="M269 471V582Q269 609 257 619T218 629T180 619T167 582V471Q167 444 179 434T218 424T256 434T269 471ZM798 250V111Q798 -6 653 -6T508 111V250Q508 367 653 367T798 250ZM704 125V236Q704 263
692 273T653 283T615 273T602 236V125Q602 98 614 88T653 78T691 88T704 125ZM363 596V457Q363 340 218 340T73 457V596Q73 712 218 712H644L307 0H205L505 634H358Q363 616 363 596Z" />
<glyph unicode="&amp;" glyph-name="ampersand" horiz-adv-x="721" d="M434 299V405H703V299H611Q611 286 611 250T602 163T574 79T522 26T452 1T361 -6Q231 -6 166 47T100 196Q100 250 117 293T184 374Q127 440 127 537T185 680T357 727T529 672T587 501H456Q456
564 436 585T361 607T284 583T261 538Q261 479 286 434Q327 452 338 456L362 345Q305 321 273 290T240 209T267 137T363 114T456 153T482 299H434Z" />
<glyph unicode="&apos;" glyph-name="quotesingle" horiz-adv-x="259" d="M181 501H78L68 712H191L181 501Z" />
<glyph unicode="(" glyph-name="parenleft" horiz-adv-x="336" d="M281 -7L194 -94Q137 -36 88 89T38 349T88 617T194 806L281 719Q247 676 214 569T180 352T212 139T281 -7Z" />
<glyph unicode=")" glyph-name="parenright" horiz-adv-x="336" d="M125 -94L38 -7Q74 35 106 139T139 352T106 568T38 719L125 806Q181 749 231 617T281 350T232 89T125 -94Z" />
<glyph unicode="*" glyph-name="asterisk" horiz-adv-x="494" d="M440 461L390 385L277 452L264 448L210 333L124 369L194 492L53 512L74 601L192 576L152 694L242 720L272 598L357 682L423 618L313 526L440 461Z" />
<glyph unicode="+" glyph-name="plus" horiz-adv-x="543" d="M493 216H333V56H211V216H50V338H211V498H333V338H493V216Z" />
<glyph unicode="," glyph-name="comma" horiz-adv-x="279" d="M211 142V37Q211 -34 166 -89T68 -165V142H211Z" />
<glyph unicode="-" glyph-name="hyphen" horiz-adv-x="426" d="M367 225H59V346H367V225Z" />
<glyph unicode="." glyph-name="period" horiz-adv-x="295" d="M226 119T226 69T211 3T145 -13T79 3T63 69T79 134T145 150T210 135Z" />
<glyph unicode="/" glyph-name="slash" horiz-adv-x="403" d="M407 786L122 -74H0L285 786H407Z" />
<glyph unicode="0" glyph-name="zero" horiz-adv-x="567" d="M526 376V335Q526 261 521 211T501 117T459 48T389 8T283 -6T178 8T107 48T65 117T45 212T40 337V375Q40 529 64 602Q79 646 106 670Q163 718 283 718Q423 718 474 642T526 376ZM392 304V415Q391 514
370 554T283 594T196 555T174 419V304Q175 197 195 158T284 118T372 156T392 304Z" />
<glyph unicode="1" glyph-name="one" horiz-adv-x="438" d="M325 0H189V584L102 616V713H220Q286 713 305 689T325 594V0Z" />
<glyph unicode="2" glyph-name="two" horiz-adv-x="548" d="M490 0H149Q105 0 74 18T43 78Q43 113 68 146Q77 157 98 180L205 299Q251 345 278 382T318 439T338 472Q355 506 355 530T337 577T270 601T203 573T184 494H53Q53 545 61 581T92 651Q137 718 278 718Q383
718 440 675T497 552Q497 503 475 451T427 366T368 295T328 248L215 117H490V0Z" />
<glyph unicode="3" glyph-name="three" horiz-adv-x="535" d="M239 325L261 435L323 406Q361 454 361 531Q361 551 338 575T265 599T197 577T179 494H57Q57 609 109 663T268 718Q486 718 486 532Q486 423 420 355Q496 312 496 192Q496 99 437 47T270 -6T111 49T58
196H185Q185 179 189 163T213 130T273 113T340 139T366 199Q366 234 354 250T335 273T313 290T290 302T264 314T239 325Z" />
<glyph unicode="4" glyph-name="four" horiz-adv-x="590" d="M550 153H470V0H346V153H139Q88 153 63 174T37 234Q37 254 54 305T149 567H288L179 276H346V712H470V276H550V153Z" />
<glyph unicode="5" glyph-name="five" horiz-adv-x="551" d="M77 700H454V589H205V477Q359 477 416 414T474 230Q474 -6 246 -6Q141 -6 89 49T36 196H163Q163 179 167 163T191 130T242 113Q295 113 319 142T344 212T339 275T315 322Q279 372 154 372H77V700Z" />
<glyph unicode="6" glyph-name="six" horiz-adv-x="549" d="M502 493L379 494Q372 550 353 572T284 594Q214 594 196 552T175 387L288 436Q406 436 457 386T508 215Q508 -6 275 -6Q160 -6 101 51T41 222V375Q41 529 66 602Q80 646 108 670Q164 718 284 718Q502
718 502 493ZM278 116Q379 116 379 214Q379 272 362 301T291 330L174 267Q174 185 197 151T278 116Z" />
<glyph unicode="7" glyph-name="seven" horiz-adv-x="553" d="M508 598L245 0H105L368 588H55V713H508V598Z" />
<glyph unicode="8" glyph-name="eight" horiz-adv-x="560" d="M52 197Q52 238 71 289T115 377Q62 428 62 522Q62 718 280 718Q388 718 448 670T508 521T437 336Q508 288 508 197Q508 84 452 39T283 -6T111 45T52 197ZM195 510Q195 477 227 449T341 383Q384 437
384 506Q384 548 359 573T283 599Q195 599 195 510ZM182 159T207 138T283 117T356 136T378 195Q378 223 339 257T218 325Q182 270 182 193Q182 159 207 138Z" />
<glyph unicode="9" glyph-name="nine" horiz-adv-x="549" d="M508 506V221Q508 108 450 51T283 -6T123 49T70 196H197Q197 179 201 163T225 130T276 113Q329 113 353 142T378 219V324L269 262Q41 262 41 503Q41 624 98 674T274 724T451 676T508 506ZM278 598Q177
598 177 500Q177 445 198 415T275 384L382 447Q382 529 359 563T278 598Z" />
<glyph unicode=":" glyph-name="colon" horiz-adv-x="319" d="M254 119T254 69T239 3T173 -13T107 3T91 69T107 134T173 150T238 135ZM252 397T252 347T237 281T171 265T105 281T89 347T105 412T171 428T236 413Z" />
<glyph unicode=";" glyph-name="semicolon" horiz-adv-x="309" d="M245 142V37Q245 -34 200 -89T102 -165V142H245ZM252 397T252 347T237 281T171 265T105 281T89 347T105 412T171 428T236 413Z" />
<glyph unicode="&lt;" glyph-name="less" horiz-adv-x="507" d="M441 170V40L56 229V335L441 523V393L189 281L441 170Z" />
<glyph unicode="=" glyph-name="equal" horiz-adv-x="543" d="M493 333H50V455H493V333ZM493 116H50V238H493V116Z" />
<glyph unicode="&gt;" glyph-name="greater" horiz-adv-x="494" d="M56 40V170L308 281L56 393V523L441 335V229L56 40Z" />
<glyph unicode="?" glyph-name="question" horiz-adv-x="523" d="M487 518Q487 479 472 452T451 417T429 387T411 364L344 295Q326 272 326 244V213H196V253Q196 320 234 357L296 414Q342 455 352 486Q357 502 357 519Q357 569 338 585T273 601T205 584T183 518T214
421L113 381Q81 420 68 449T55 518Q55 619 106 668T276 718Q487 718 487 518ZM346 119T346 69T331 3T265 -13T199 3T183 69T199 134T265 150T330 135Z" />
<glyph unicode="@" glyph-name="at" horiz-adv-x="866" d="M838 348Q838 6 681 6Q635 6 601 19T552 52Q522 90 522 128Q522 144 524 166Q502 97 471 69T391 41Q306 41 258 101T209 277Q209 422 259 472T435 523H535L607 529V206Q607 131 621 97T681 63Q779 63
779 347Q779 515 697 586T436 658T173 572T88 297T181 -1T464 -110L457 -169Q361 -169 286 -144T163 -78T84 24Q28 131 28 286Q28 530 136 626Q190 675 261 696T429 718Q638 718 738 635T838 348ZM506 424H435Q365 424 341 391T316 279T340 174T416 147Q448 147
477 194T506 304V424Z" />
<glyph unicode="A" glyph-name="A" horiz-adv-x="638" d="M623 0H478L438 123H199L160 0H15L243 652Q258 686 276 699T322 712T365 700T395 652L623 0ZM406 240L322 522L234 240H406Z" />
<glyph unicode="B" glyph-name="B" horiz-adv-x="658" d="M599 205Q599 106 546 53T396 0H300Q182 0 133 41T83 183V712H384Q486 712 537 661T589 517Q589 463 562 425T501 371Q599 325 599 205ZM373 434Q450 434 450 511T373 588H222V434H373ZM460 212Q460 260
443 284T382 309H222V197Q222 156 242 140T310 124H382Q460 124 460 212Z" />
<glyph unicode="C" glyph-name="C" horiz-adv-x="607" d="M443 276H572Q572 140 504 67T312 -6Q39 -6 39 315V375Q39 628 179 692Q234 718 312 718Q426 718 497 656T569 475H439Q428 534 400 564T312 594Q242 594 208 550Q184 519 180 444Q178 420 178 379V317Q178
202 210 160Q243 118 312 118T408 156T443 276Z" />
<glyph unicode="D" glyph-name="D" horiz-adv-x="659" d="M620 359L621 282Q617 209 603 159T548 68Q480 0 350 0Q197 0 140 40T83 187V712H360Q480 712 548 644Q603 589 613 510Q620 454 620 359ZM470 191T475 231T481 358T476 482T451 544Q415 588 347 588H222V194Q222
154 249 139T345 124T451 168Q470 191 475 231Z" />
<glyph unicode="E" glyph-name="E" horiz-adv-x="605" d="M552 0H300Q180 0 132 41T83 188V712H552V588H222V421H453L443 297H222V198Q222 156 241 140T310 124H552V0Z" />
<glyph unicode="F" glyph-name="F" horiz-adv-x="590" d="M552 588H301Q257 588 240 571T222 512V413H483L473 289H222V0H83V567Q83 646 117 679T236 712H552V588Z" />
<glyph unicode="G" glyph-name="G" horiz-adv-x="637" d="M39 335V423Q39 562 112 640T314 718T521 640Q576 585 576 475H446Q446 594 319 594Q281 594 255 580T215 546T195 490T187 428T186 361T186 305T189 258T197 211T213 175T240 144Q281 118 333 118Q420
118 456 192V240H370V356H575V141Q544 68 477 31T325 -6Q174 -6 107 78T39 335Z" />
<glyph unicode="H" glyph-name="H" horiz-adv-x="685" d="M612 0H473V288H212V0H73V712H212V411H473V712H612V0Z" />
<glyph unicode="I" glyph-name="I" horiz-adv-x="305" d="M222 0H83V712H222V0Z" />
<glyph unicode="J" glyph-name="J" horiz-adv-x="511" d="M447 712V254Q447 111 388 53T217 -6Q145 -6 97 13T7 73L85 158Q102 141 136 130T215 118T284 139T308 220V712H447Z" />
<glyph unicode="K" glyph-name="K" horiz-adv-x="665" d="M404 377L649 0H487L319 269L222 139V0H83V712H222V314L491 712H631L404 377Z" />
<glyph unicode="L" glyph-name="L" horiz-adv-x="550" d="M522 0H310Q190 0 137 46T83 198V712H222V198Q222 156 241 140T310 124H522V0Z" />
<glyph unicode="M" glyph-name="M" horiz-adv-x="811" d="M609 425L481 155Q453 101 412 101T342 158L212 425V0H73V712H210L411 301L611 712H748V0H609V425Z" />
<glyph unicode="N" glyph-name="N" horiz-adv-x="699" d="M638 712V72Q638 39 618 16T571 -8Q502 -8 458 72L212 457V0H73V712H207L499 246V712H638Z" />
<glyph unicode="O" glyph-name="O" horiz-adv-x="644" d="M605 389V335Q605 156 538 75T321 -6T106 75T39 338V390Q39 556 106 637T320 718T536 636T605 389ZM466 338V375Q466 471 442 528Q414 594 322 594Q229 594 201 528Q178 474 178 375V338Q178 209 214 164Q228
145 255 132T321 118T387 131T429 163T452 213Q466 262 466 338Z" />
<glyph unicode="P" glyph-name="P" horiz-adv-x="628" d="M594 589T594 470T533 290T359 228H222V0H83V712H359Q471 712 532 651ZM455 470Q455 588 352 588H222V353H352Q402 353 428 380T455 470Z" />
<glyph unicode="Q" glyph-name="Q" horiz-adv-x="643" d="M605 376V335Q605 165 520 100Q575 103 622 117V-6H322Q260 -6 203 14T105 76T51 176T39 337V375Q39 478 51 536T104 635T203 697T322 718T440 698T539 635T593 537T605 376ZM466 341V389Q466 514 432
553Q398 594 322 594T210 552Q184 521 180 444Q178 419 178 375V338Q179 232 194 193Q222 118 322 118Q409 118 438 168Q457 204 461 238Q466 281 466 341Z" />
<glyph unicode="R" glyph-name="R" horiz-adv-x="654" d="M622 0H461L322 264H222V0H83V559Q83 639 120 675T244 712H362Q468 712 530 648T593 484Q593 412 556 360T463 287L622 0ZM397 380T425 410T454 486T427 560T353 588H284Q222 588 222 525V380H353Q397
380 425 410Z" />
<glyph unicode="S" glyph-name="S" horiz-adv-x="591" d="M563 210Q563 109 489 52T300 -6Q209 -6 124 44Q82 70 55 117T28 226L154 232Q154 178 200 148T302 118Q427 118 427 206Q427 278 342 291L226 303Q139 316 88 365T37 506T110 658T294 718T474 662T542
516L418 510Q401 597 301 597Q240 597 206 571T171 510T196 454T258 428L372 416Q563 390 563 210Z" />
<glyph unicode="T" glyph-name="T" horiz-adv-x="571" d="M546 588H355V0H216V588H26V712H546V588Z" />
<glyph unicode="U" glyph-name="U" horiz-adv-x="668" d="M606 712V244Q606 128 528 61T334 -6T141 61T62 244V712H201V249Q201 183 237 151T334 118T431 150T468 249V712H606Z" />
<glyph unicode="V" glyph-name="V" horiz-adv-x="581" d="M578 712L354 40Q336 -6 290 -6Q242 -6 224 40L3 712H147L290 248L433 712H578Z" />
<glyph unicode="W" glyph-name="W" horiz-adv-x="887" d="M881 712L690 0H574L443 432L312 0H196L6 712H151L261 263L370 634Q388 717 446 717Q475 717 490 696T517 634L625 263L736 712H881Z" />
<glyph unicode="X" glyph-name="X" horiz-adv-x="640" d="M645 0H473L324 248L177 0H5L244 365L20 712H191L324 482L459 712H629L405 365L645 0Z" />
<glyph unicode="Y" glyph-name="Y" horiz-adv-x="572" d="M569 712L355 292V0H217V292L3 712H154L287 425L418 712H569Z" />
<glyph unicode="Z" glyph-name="Z" horiz-adv-x="548" d="M508 0H146Q91 0 62 26T33 94T64 182L344 588H53V712H508V602L183 124H508V0Z" />
<glyph unicode="[" glyph-name="bracketleft" horiz-adv-x="378" d="M337 -74H80V786H337V669H210V43H337V-74Z" />
<glyph unicode="\" glyph-name="backslash" horiz-adv-x="403" d="M403 -74H281L0 773H122L403 -74Z" />
<glyph unicode="]" glyph-name="bracketright" horiz-adv-x="378" d="M299 -74H42V42H169V670H42V786H299V-74Z" />
<glyph unicode="^" glyph-name="asciicircum" horiz-adv-x="602" d="M539 389H403L313 578L288 577L199 389H63L241 719H361L539 389Z" />
<glyph unicode="_" glyph-name="underscore" horiz-adv-x="552" d="M552 -178H0V-91H552V-178Z" />
<glyph unicode="`" glyph-name="grave" horiz-adv-x="500" d="M176 676L102 782H239L277 676Q281 664 281 654Q281 628 253 628Q210 628 176 676Z" />
<glyph unicode="a" glyph-name="a" horiz-adv-x="534" d="M466 0H379L339 69L200 -6Q84 -6 44 78Q24 119 17 166T9 265T10 341T15 398T26 453T48 498T82 536Q127 567 199 567H336L466 575V0ZM336 182V450H237Q182 450 161 408T139 283T159 165T237 131L336 182Z" />
<glyph unicode="b" glyph-name="b" horiz-adv-x="560" d="M317 -1L204 0Q129 0 91 44T52 149V752H182V500L337 572Q426 572 468 524Q505 481 514 385Q517 345 517 286Q517 -1 317 -1ZM215 111H279Q387 111 387 286Q387 375 371 410T299 445L182 382V157Q182 117 215 111Z" />
<glyph unicode="c" glyph-name="c" horiz-adv-x="519" d="M365 209L483 210Q482 202 481 181T480 153T477 129T473 106T466 86Q448 34 368 4Q317 -14 262 -14T161 4T90 50Q31 112 31 282T90 515Q116 543 161 561T261 579Q369 579 425 525T481 375H363Q363 419
341 440T260 462T181 425T161 314V262Q161 143 207 116Q228 103 262 103T317 109T348 132T361 163T365 209Z" />
<glyph unicode="d" glyph-name="d" horiz-adv-x="561" d="M488 0H401L361 69L222 -6Q106 -6 66 78Q46 119 39 166T31 265T32 341T37 398T48 453T70 498T104 536Q149 567 221 567H358V752H488V0ZM358 182V450H259Q204 450 183 408T161 283T181 165T259 131L358 182Z" />
<glyph unicode="e" glyph-name="e" horiz-adv-x="548" d="M501 255H168Q168 177 192 141T291 105Q339 105 362 135T385 194H502Q502 87 445 37T293 -13T146 14Q39 69 39 306Q39 447 100 512T286 578Q503 578 503 337Q503 311 501 255ZM171 344H385Q385 410 360
440T284 470T202 440T171 344Z" />
<glyph unicode="f" glyph-name="f" horiz-adv-x="342" d="M315 450H209V0H79V450H25V549H79V604Q79 665 118 709T231 753H315V643H254Q209 643 209 596V549H315V450Z" />
<glyph unicode="g" glyph-name="g" horiz-adv-x="555" d="M353 567L483 575V26Q483 -69 430 -119T271 -170Q190 -170 129 -138Q97 -122 78 -90T59 -14L180 -8Q180 -36 200 -48T268 -60T334 -36T352 33L357 119L217 44Q102 44 62 122Q26 191 26 291Q26 410 44 459Q63
513 98 537Q143 567 216 567H353ZM353 232V450H254Q198 450 177 412T156 306T177 210T254 181L353 232Z" />
<glyph unicode="h" glyph-name="h" horiz-adv-x="569" d="M514 0H384V358Q384 450 312 450L188 401V0H58V752H188V503L353 577Q441 577 477 527T514 387V0Z" />
<glyph unicode="i" glyph-name="i" horiz-adv-x="275" d="M186 789T200 775T214 714T200 653T139 638T78 653T63 714T77 774T139 789ZM203 0H73V550H203V0Z" />
<glyph unicode="j" glyph-name="j" horiz-adv-x="275" d="M203 550V-21Q203 -82 165 -126T51 -170H-23V-60H27Q73 -60 73 -13V550H203ZM186 789T200 775T214 714T200 653T139 638T78 653T63 714T77 774T139 789Z" />
<glyph unicode="k" glyph-name="k" horiz-adv-x="559" d="M564 0H408L258 202L201 121V0H71V752H201V277L383 548H530L343 292L564 0Z" />
<glyph unicode="l" glyph-name="l" horiz-adv-x="265" d="M198 0L68 -1V752H198V0Z" />
<glyph unicode="m" glyph-name="m" horiz-adv-x="876" d="M809 0H679V355Q679 408 667 429T623 450L506 401V0H376V355Q376 450 310 450L203 401V0H73V571H170L200 503L350 577Q428 577 468 501L654 577Q732 577 770 525T809 383V0Z" />
<glyph unicode="n" glyph-name="n" horiz-adv-x="573" d="M516 0H386V365Q386 414 366 432T310 450L193 401V0H63V571H160L190 503L350 577Q417 577 466 528T516 383V0Z" />
<glyph unicode="o" glyph-name="o" horiz-adv-x="543" d="M382 258V310Q382 384 361 423T271 462Q161 462 161 314V262Q161 103 271 103Q342 103 364 156Q382 198 382 258ZM512 288Q512 103 442 40Q383 -14 271 -14Q128 -14 78 70Q31 147 31 288Q31 420 78 495Q130
579 267 579T458 506T512 288Z" />
<glyph unicode="p" glyph-name="p" horiz-adv-x="560" d="M529 301Q529 78 414 16Q367 -9 299 -9L203 53V-170H73V567H329Q445 567 487 502T529 301ZM399 281Q399 450 291 450H203V185L291 128Q349 128 374 164T399 281Z" />
<glyph unicode="q" glyph-name="q" horiz-adv-x="561" d="M487 -169H359L360 69L221 -6Q105 -6 65 78Q45 119 38 166T30 265T31 341T36 398T47 453T69 498T102 536Q148 567 220 567H357L487 575V-169ZM357 182V450H258Q203 450 182 408T160 283T180 165T258 131L357 182Z" />
<glyph unicode="r" glyph-name="r" horiz-adv-x="390" d="M376 569L340 441Q325 447 306 447Q256 447 183 404V0H53V571H150L180 521L318 578Q328 579 345 579T376 569Z" />
<glyph unicode="s" glyph-name="s" horiz-adv-x="501" d="M465 158V143Q459 68 402 30T258 -8Q131 -8 80 38Q33 80 33 162V174H151Q151 128 175 111T258 94Q338 94 338 152Q338 200 310 216Q297 224 277 228L176 245Q44 266 44 410Q44 490 102 534T251 579Q456
579 456 402V389H343Q341 436 318 453T254 470T191 454T170 417Q170 360 216 352L337 330Q465 306 465 158Z" />
<glyph unicode="t" glyph-name="t" horiz-adv-x="352" d="M317 0H236Q162 0 124 44T85 149V449H30V548H85V660H215V548H307V449H215V157Q215 110 260 110H317V0Z" />
<glyph unicode="u" glyph-name="u" horiz-adv-x="573" d="M500 0H403L373 68L213 -6Q146 -6 97 43T47 188V571H177V216Q177 121 253 121L370 184V571H500V0Z" />
<glyph unicode="v" glyph-name="v" horiz-adv-x="493" d="M489 571L298 0H196L4 571H141L247 199L352 571H489Z" />
<glyph unicode="w" glyph-name="w" horiz-adv-x="759" d="M755 571L596 0H489L380 347L271 0H164L4 571H142L226 199L313 505Q328 571 381 571Q406 571 421 555T446 505L534 199L618 571H755Z" />
<glyph unicode="x" glyph-name="x" horiz-adv-x="527" d="M510 0H364L263 175L168 0H12L197 291L19 571H165L265 406L362 571H508L330 291L510 0Z" />
<glyph unicode="y" glyph-name="y" horiz-adv-x="494" d="M490 571L273 -64Q258 -107 234 -131Q194 -171 122 -171H61V-54H101Q129 -54 142 -45T166 -7L176 21L4 571H141L243 174L353 571H490Z" />
<glyph unicode="z" glyph-name="z" horiz-adv-x="478" d="M434 0H123Q72 0 45 21T17 82T50 164L288 459H50V571H444V472L160 112H434V0Z" />
<glyph unicode="{" glyph-name="braceleft" horiz-adv-x="457" d="M414 -74H312Q237 -74 198 -35T158 74L188 219Q188 249 175 272T138 297T102 315T91 355T102 396T136 414T174 438T188 493L158 638Q158 707 197 746T312 786H414V669Q335 669 312 654T288 591L318
476Q318 428 296 397T249 356Q274 346 296 315T318 236L288 121Q288 91 296 76Q312 43 414 43V-74Z" />
<glyph unicode="|" glyph-name="bar" horiz-adv-x="350" d="M240 -74H110V786H240V-74Z" />
<glyph unicode="}" glyph-name="braceright" horiz-adv-x="457" d="M175 -74H73V43Q175 43 192 76Q199 91 199 121L169 236Q169 284 191 315T238 356Q213 366 191 397T169 476L199 591Q199 638 176 653T73 669V786H175Q250 786 289 747T329 638L299 493Q299 462
313 438T350 414T385 397T396 356T385 315T350 297T312 273T299 219L329 74Q329 5 290 -34T175 -74Z" />
<glyph unicode="~" glyph-name="asciitilde" horiz-adv-x="606" d="M486 363L569 281Q522 234 486 215T400 195T296 224T201 253T119 211L37 293Q85 341 120 360T205 379T309 350T404 321T486 363Z" />
<glyph unicode="&#xa0;" glyph-name="nbspace" horiz-adv-x="232" />
<glyph unicode="&#xa1;" glyph-name="exclamdown" horiz-adv-x="347" d="M234 262L264 -170H103L132 262Q132 289 146 305T179 321T214 306T234 262ZM263 523T263 473T248 407T182 391T116 407T100 473T116 538T182 554T247 539Z" />
<glyph unicode="&#xa2;" glyph-name="cent" horiz-adv-x="499" d="M218 -110V-11Q126 5 83 62Q44 113 35 201Q31 239 31 293T38 390T64 473Q103 554 218 576V667H320V574Q399 560 440 509T481 375H363Q363 419 341 440T261 462Q210 462 184 436Q165 417 162 363Q161
346 161 314V262Q161 162 183 134Q208 103 261 103Q331 103 348 132Q358 148 361 163T365 209L483 210Q476 128 465 93T436 43Q398 8 320 -8V-110H218Z" />
<glyph unicode="&#xa3;" glyph-name="sterling" horiz-adv-x="579" d="M524 0H239Q156 0 129 31T101 150V297H40V397H101V472Q101 615 155 663T352 712Q410 712 452 695T534 639L443 548Q403 588 346 588T264 559T239 466V397H352V297H239V173Q239 142 251 133T301
124H524V0Z" />
<glyph unicode="&#xa4;" glyph-name="currency" horiz-adv-x="669" d="M610 96L525 10L451 83Q397 51 335 51T218 83L144 10L58 96L132 169Q99 225 99 286T132 403L58 476L144 562L218 489Q272 521 334 521T451 489L525 562L610 476L537 403Q569 349 569 286T537
169L610 96ZM452 237T452 286T418 369T334 403T251 369T217 286T251 203T334 169T417 203Z" />
<glyph unicode="&#xa5;" glyph-name="yen" horiz-adv-x="517" d="M395 96H315V-1H203V96H126V191H203V261H128V356H176L20 712H152L260 434L366 712H499L342 356H397V261H315V191H395V96Z" />
<glyph unicode="&#xa6;" glyph-name="brokenbar" horiz-adv-x="353" d="M240 436H110V786H240V436ZM240 -74H110V276H240V-74Z" />
<glyph unicode="&#xa7;" glyph-name="section" horiz-adv-x="531" d="M522 210Q522 88 451 13T251 -63Q74 -63 20 52Q-2 100 -5 172H115Q115 122 155 91T249 60T338 88Q273 104 229 135Q128 207 80 299T31 488Q31 615 101 679T292 744Q350 744 391 727T455 691T496
637T522 557L403 548Q403 587 370 605T284 623T200 595Q326 546 391 491T489 369T522 210ZM302 246Q339 216 387 204V215Q387 328 312 393Q255 442 166 472Q177 343 302 246Z" />
<glyph unicode="&#xa8;" glyph-name="dieresis" horiz-adv-x="500" d="M430 733T430 694T413 641T363 627T314 641T296 694T313 747T363 761T412 747ZM204 733T204 694T187 641T137 627T88 641T70 694T87 747T137 761T186 747Z" />
<glyph unicode="&#xa9;" glyph-name="copyright" horiz-adv-x="844" d="M491 321H581Q581 237 541 192T429 147Q268 147 268 333V366Q268 459 304 512T429 565Q496 565 538 526T580 412H490Q479 477 429 477Q384 477 374 442Q365 414 365 368V334Q365 260 394
243Q407 235 434 235T475 256T491 321ZM784 544T784 356T697 81T422 -6T147 81T60 356T147 631T422 718T697 631ZM594 34T669 109T744 352T666 599T419 678T181 604T110 356T180 108T422 34Z" />
<glyph unicode="&#xaa;" glyph-name="ordfeminine" horiz-adv-x="454" d="M194 629Q125 629 125 586H29Q29 724 194 724Q276 724 319 684T363 577V297H279L259 339L163 294Q102 294 63 328T23 418T58 515T162 555H253Q253 595 240 612T194 629ZM253 431V478H176Q152
478 140 466T127 435T138 403T168 388L253 431Z" />
<glyph unicode="&#xab;" glyph-name="guillemotleft" horiz-adv-x="628" d="M283 27L89 200Q47 247 47 277T91 352L283 523V368L169 275L283 182V27ZM564 27L370 200Q328 247 328 277T372 352L564 523V368L450 275L564 182V27Z" />
<glyph unicode="&#xac;" glyph-name="logicalnot" horiz-adv-x="543" d="M497 90H376V245H56V360H497V90Z" />
<glyph unicode="&#xae;" glyph-name="registered" horiz-adv-x="844" d="M784 544T784 356T697 81T422 -6T147 81T60 356T147 631T422 718T697 631ZM594 34T669 109T744 352T666 599T419 678T181 604T110 356T180 108T422 34ZM596 160H489L415 300H378V160H284V466Q284
514 306 535T380 557H442Q503 557 538 520T574 435Q574 346 508 316Q561 223 596 160ZM457 380T469 393T481 427T469 459T437 472H401Q378 472 378 447V380H437Q457 380 469 393Z" />
<glyph unicode="&#xaf;" glyph-name="overscore" horiz-adv-x="500" d="M408 630H92V717H408V630Z" />
<glyph unicode="&#xb0;" glyph-name="degree" horiz-adv-x="478" d="M423 645T423 542T379 399T239 358T99 398T55 542T99 686T239 727T378 686ZM318 495T318 542T300 605T239 622T178 606T160 542T178 479T239 462T300 478Z" />
<glyph unicode="&#xb1;" glyph-name="plusminus" horiz-adv-x="543" d="M493 341H333V180H211V341H50V462H211V623H333V462H493V341ZM493 0H50V122H493V0Z" />
<glyph unicode="&#xb2;" glyph-name="twosuperior" horiz-adv-x="358" d="M310 296H112Q43 296 43 348Q43 375 71 405L145 487Q217 567 217 598T179 629Q156 629 148 614T140 570H49Q49 638 76 675T174 713T279 687T313 620T297 544T264 489T214 431T168 380H310V296Z" />
<glyph unicode="&#xb3;" glyph-name="threesuperior" horiz-adv-x="368" d="M154 477L170 557L210 539Q224 565 224 599Q224 607 214 617T180 627T149 615T140 568H53Q53 713 182 713Q314 713 314 599Q314 539 282 501Q319 470 319 411T283 319T182 287T86 323T54
419H144Q144 372 180 372Q204 372 215 384T227 411T218 439T199 457T171 470L154 477Z" />
<glyph unicode="&#xb4;" glyph-name="acute" horiz-adv-x="500" d="M401 782L327 676Q293 628 250 628Q222 628 222 654Q222 664 226 676L264 782H401Z" />
<glyph unicode="&#xb5;" glyph-name="mu" horiz-adv-x="555" d="M48 -140V159Q47 168 47 188V571H177V211Q178 164 199 143T253 121L370 184V571H500V0H403L373 68L213 -6Q194 -6 177 -3V-39Q177 -73 149 -106T89 -140H48Z" />
<glyph unicode="&#xb6;" glyph-name="paragraph" horiz-adv-x="668" d="M355 665V-198H225V211Q109 211 67 262T25 432Q25 497 33 537T64 608T132 652T246 665H355ZM425 -198V665Q507 665 531 643T555 561V-86Q555 -163 533 -180T425 -198Z" />
<glyph unicode="&#xb7;" glyph-name="middot" horiz-adv-x="295" d="M226 340T226 290T211 224T145 208T79 224T63 290T79 355T145 371T210 356Z" />
<glyph unicode="&#xb8;" glyph-name="cedilla" horiz-adv-x="500" d="M303 21L285 -24Q333 -37 333 -79T305 -146T217 -171Q204 -171 170 -167L191 -116Q209 -119 226 -119Q267 -119 267 -88Q267 -54 209 -54L239 21H303Z" />
<glyph unicode="&#xb9;" glyph-name="onesuperior" horiz-adv-x="292" d="M212 282H119V635L63 654V713H148Q188 713 200 699T212 641V282Z" />
<glyph unicode="&#xba;" glyph-name="ordmasculine" horiz-adv-x="462" d="M324 717T365 664T407 506T367 346T232 292T97 344T55 502T95 662T230 717ZM274 386T288 413T302 502T290 594T233 623T174 596T160 506T172 415T229 386Z" />
<glyph unicode="&#xbb;" glyph-name="guillemotright" horiz-adv-x="628" d="M347 523L541 350Q583 303 583 273T539 198L347 27V182L461 275L347 368V523ZM66 523L260 350Q302 303 302 273T258 198L66 27V182L180 275L66 368V523Z" />
<glyph unicode="&#xbc;" glyph-name="onequarter" horiz-adv-x="836" d="M811 89H764V0H672V89H560Q491 89 491 146Q491 177 555 351H656L598 181H672V436H764V181H811V89ZM625 712L288 0H186L523 712H625ZM220 282H127V635L71 654V713H156Q196 713 208 699T220 641V282Z" />
<glyph unicode="&#xbd;" glyph-name="onehalf" horiz-adv-x="862" d="M620 712L283 0H182L519 712H620ZM220 282H127V635L71 654V713H156Q196 713 208 699T220 641V282ZM810 1H612Q543 1 543 53Q543 80 571 110L645 192Q717 272 717 303T679 334Q656 334 648 319T640
275H549Q549 343 576 380T674 418T779 392T813 325T797 249T764 194T714 136T668 85H810V1Z" />
<glyph unicode="&#xbe;" glyph-name="threequarters" horiz-adv-x="865" d="M657 712L320 0H218L555 712H657ZM154 477L170 557L210 539Q224 565 224 599Q224 607 214 617T180 627T149 615T140 568H53Q53 713 182 713Q314 713 314 599Q314 539 282 501Q319 470
319 411T283 319T182 287T86 323T54 419H144Q144 372 180 372Q204 372 215 384T227 411T218 439T199 457T171 470L154 477ZM811 89H764V0H672V89H560Q491 89 491 146Q491 177 555 351H656L598 181H672V436H764V181H811V89Z" />
<glyph unicode="&#xbf;" glyph-name="questiondown" horiz-adv-x="523" d="M38 3Q38 42 53 69T74 104T96 134T114 157L181 226Q199 249 199 277V308H329V268Q329 201 291 164L229 108Q183 66 173 35Q168 19 168 2Q168 -48 187 -64T252 -80T320 -63T342 3T311 100L412
140Q444 101 457 72T470 3Q470 -98 419 -147T249 -197Q38 -197 38 3ZM179 402T179 452T194 518T260 534T326 518T342 452T326 387T260 371T195 386Z" />
<glyph unicode="&#xc0;" glyph-name="Agrave" horiz-adv-x="638" d="M623 0H478L438 123H199L160 0H15L243 652Q258 686 276 699T322 712T365 700T395 652L623 0ZM406 240L322 502L234 240H406ZM243 853L169 959H306L344 853Q348 841 348 831Q348 805 320 805Q277
805 243 853Z" />
<glyph unicode="&#xc1;" glyph-name="Aacute" horiz-adv-x="638" d="M623 0H478L438 123H199L160 0H15L243 652Q258 686 276 699T322 712T365 700T395 652L623 0ZM406 240L322 502L234 240H406ZM468 959L394 853Q360 805 317 805Q289 805 289 831Q289 841 293
853L331 959H468Z" />
<glyph unicode="&#xc2;" glyph-name="Acircumflex" horiz-adv-x="638" d="M623 0H478L438 123H199L160 0H15L243 652Q258 686 276 699T322 712T365 700T395 652L623 0ZM406 240L322 502L234 240H406ZM317 885L272 829Q233 781 195 781Q182 781 174 790T166 810T171
829L265 950H369L463 829Q468 821 468 811T460 791T439 781Q401 781 362 829L317 885Z" />
<glyph unicode="&#xc3;" glyph-name="Atilde" horiz-adv-x="638" d="M623 0H478L438 123H199L160 0H15L243 652Q258 686 276 699T322 712T365 700T395 652L623 0ZM406 240L322 502L234 240H406ZM451 901L497 851Q438 792 384 792Q347 792 312 812T245 833T186
809L136 861Q169 894 194 907T253 920T322 899T392 878T451 901Z" />
<glyph unicode="&#xc4;" glyph-name="Adieresis" horiz-adv-x="638" d="M623 0H478L438 123H199L160 0H15L243 652Q258 686 276 699T322 712T365 700T395 652L623 0ZM406 240L322 502L234 240H406ZM497 910T497 871T480 818T430 804T381 818T363 871T380 924T430
938T479 924ZM271 910T271 871T254 818T204 804T155 818T137 871T154 924T204 938T253 924Z" />
<glyph unicode="&#xc5;" glyph-name="Aring" horiz-adv-x="638" d="M623 0H478L438 123H199L160 0H15L243 652Q258 686 276 699T322 712T365 700T395 652L623 0ZM406 240L322 502L234 240H406ZM448 1015T448 884T317 753T186 884T317 1015ZM375 848T375 884T361
931T317 942T274 931T259 884T274 837T317 825T360 836Z" />
<glyph unicode="&#xc6;" glyph-name="AE" horiz-adv-x="979" d="M458 240V502L296 240H458ZM927 0H685Q589 0 536 29T466 123H238L164 0H19L458 712H927V588H597V421H828L808 297H597V198Q597 156 616 140T685 124H927V0Z" />
<glyph unicode="&#xc7;" glyph-name="Ccedilla" horiz-adv-x="576" d="M443 276H572Q572 150 514 78T347 -4L339 -24Q387 -37 387 -79T359 -146T271 -171Q258 -171 224 -167L245 -116Q263 -119 280 -119Q321 -119 321 -88Q321 -54 263 -54L282 -5Q39 12 39 315V375Q39
628 179 692Q234 718 312 718Q426 718 497 656T569 475H439Q428 534 400 564T312 594Q242 594 208 550Q184 519 180 444Q178 420 178 379V317Q178 202 210 160Q243 118 312 118T408 156T443 276Z" />
<glyph unicode="&#xc8;" glyph-name="Egrave" horiz-adv-x="605" d="M552 0H310Q190 0 137 46T83 198V712H552V588H222V421H453L433 297H222V198Q222 156 241 140T310 124H552V0ZM236 853L162 959H299L337 853Q341 841 341 831Q341 805 313 805Q270 805 236 853Z" />
<glyph unicode="&#xc9;" glyph-name="Eacute" horiz-adv-x="605" d="M552 0H310Q190 0 137 46T83 198V712H552V588H222V421H453L433 297H222V198Q222 156 241 140T310 124H552V0ZM460 959L386 853Q352 805 309 805Q281 805 281 831Q281 841 285 853L323 959H460Z" />
<glyph unicode="&#xca;" glyph-name="Ecircumflex" horiz-adv-x="605" d="M552 0H310Q190 0 137 46T83 198V712H552V588H222V421H453L433 297H222V198Q222 156 241 140T310 124H552V0ZM310 885L265 829Q226 781 188 781Q175 781 167 790T159 810T164 829L258 950H362L456
829Q461 821 461 811T453 791T432 781Q394 781 355 829L310 885Z" />
<glyph unicode="&#xcb;" glyph-name="Edieresis" horiz-adv-x="605" d="M552 0H310Q190 0 137 46T83 198V712H552V588H222V421H453L433 297H222V198Q222 156 241 140T310 124H552V0ZM490 910T490 871T473 818T423 804T374 818T356 871T373 924T423 938T472 924ZM264
910T264 871T247 818T197 804T148 818T130 871T147 924T197 938T246 924Z" />
<glyph unicode="&#xcc;" glyph-name="Igrave" horiz-adv-x="305" d="M222 0H83V712H222V0ZM105 853L31 959H168L206 853Q210 841 210 831Q210 805 182 805Q139 805 105 853Z" />
<glyph unicode="&#xcd;" glyph-name="Iacute" horiz-adv-x="305" d="M222 0H83V712H222V0ZM280 959L206 853Q172 805 129 805Q101 805 101 831Q101 841 105 853L143 959H280Z" />
<glyph unicode="&#xce;" glyph-name="Icircumflex" horiz-adv-x="305" d="M222 0H83V712H222V0ZM151 885L106 829Q67 781 29 781Q16 781 8 790T0 810T5 829L99 950H203L297 829Q302 821 302 811T294 791T273 781Q235 781 196 829L151 885Z" />
<glyph unicode="&#xcf;" glyph-name="Idieresis" horiz-adv-x="305" d="M222 0H83V712H222V0ZM333 910T333 871T316 818T266 804T217 818T199 871T216 924T266 938T315 924ZM107 910T107 871T90 818T40 804T-9 818T-27 871T-10 924T40 938T89 924Z" />
<glyph unicode="&#xd0;" glyph-name="Eth" horiz-adv-x="682" d="M36 307V413H93V712H370Q490 712 558 644Q613 589 623 510Q630 454 630 359L631 282Q627 209 613 159T558 68Q490 0 370 0Q217 0 155 45T93 197V307H36ZM480 191T485 231T491 358T486 482T461 544Q425
588 357 588H232V413H362V307H232V194Q232 154 259 139T355 124T461 168Q480 191 485 231Z" />
<glyph unicode="&#xd1;" glyph-name="Ntilde" horiz-adv-x="712" d="M638 712V72Q638 39 618 16T571 -8Q502 -8 458 72L212 457V0H73V712H207L499 246V712H638ZM490 901L536 851Q477 792 423 792Q386 792 351 812T284 833T225 809L175 861Q208 894 233 907T292
920T361 899T431 878T490 901Z" />
<glyph unicode="&#xd2;" glyph-name="Ograve" horiz-adv-x="644" d="M605 389V335Q605 156 538 75T321 -6T106 74T39 337V375Q39 551 106 634T322 718Q605 718 605 389ZM466 341V389Q466 514 432 553Q398 594 322 594T210 552Q184 521 180 444Q178 419 178 375V338Q179
232 194 193Q222 118 322 118Q409 118 438 168Q457 204 461 238Q466 281 466 341ZM248 853L174 959H311L349 853Q353 841 353 831Q353 805 325 805Q282 805 248 853Z" />
<glyph unicode="&#xd3;" glyph-name="Oacute" horiz-adv-x="644" d="M605 389V335Q605 156 538 75T321 -6T106 74T39 337V375Q39 551 106 634T322 718Q605 718 605 389ZM466 341V389Q466 514 432 553Q398 594 322 594T210 552Q184 521 180 444Q178 419 178 375V338Q179
232 194 193Q222 118 322 118Q409 118 438 168Q457 204 461 238Q466 281 466 341ZM473 959L399 853Q365 805 322 805Q294 805 294 831Q294 841 298 853L336 959H473Z" />
<glyph unicode="&#xd4;" glyph-name="Ocircumflex" horiz-adv-x="644" d="M605 389V335Q605 156 538 75T321 -6T106 74T39 337V375Q39 551 106 634T322 718Q605 718 605 389ZM466 341V389Q466 514 432 553Q398 594 322 594T210 552Q184 521 180 444Q178 419 178
375V338Q179 232 194 193Q222 118 322 118Q409 118 438 168Q457 204 461 238Q466 281 466 341ZM322 885L277 829Q238 781 200 781Q187 781 179 790T171 810T176 829L270 950H374L468 829Q473 821 473 811T465 791T444 781Q406 781 367 829L322 885Z" />
<glyph unicode="&#xd5;" glyph-name="Otilde" horiz-adv-x="644" d="M605 389V335Q605 156 538 75T321 -6T106 74T39 337V375Q39 551 106 634T322 718Q605 718 605 389ZM466 341V389Q466 514 432 553Q398 594 322 594T210 552Q184 521 180 444Q178 419 178 375V338Q179
232 194 193Q222 118 322 118Q409 118 438 168Q457 204 461 238Q466 281 466 341ZM456 901L502 851Q443 792 389 792Q352 792 317 812T250 833T191 809L141 861Q174 894 199 907T258 920T327 899T397 878T456 901Z" />
<glyph unicode="&#xd6;" glyph-name="Odieresis" horiz-adv-x="644" d="M605 389V335Q605 156 538 75T321 -6T106 74T39 337V375Q39 551 106 634T322 718Q605 718 605 389ZM466 341V389Q466 514 432 553Q398 594 322 594T210 552Q184 521 180 444Q178 419 178
375V338Q179 232 194 193Q222 118 322 118Q409 118 438 168Q457 204 461 238Q466 281 466 341ZM502 910T502 871T485 818T435 804T386 818T368 871T385 924T435 938T484 924ZM276 910T276 871T259 818T209 804T160 818T142 871T159 924T209 938T258 924Z" />
<glyph unicode="&#xd7;" glyph-name="multiply" horiz-adv-x="543" d="M494 145L412 63L271 204L131 63L49 145L190 286L49 427L131 509L271 368L412 509L494 427L353 286L494 145Z" />
<glyph unicode="&#xd8;" glyph-name="Oslash" horiz-adv-x="661" d="M80 -45L126 53Q39 131 39 338V390Q39 556 106 637T322 718Q381 718 432 702L457 754H559L514 658Q605 579 605 389V335Q605 156 538 75T322 -6Q256 -6 207 9L182 -45H80ZM466 338V375Q466 468
447 517L263 127Q287 118 323 118T387 131T429 163T452 213Q466 262 466 338ZM178 375V338Q178 243 195 198L377 585Q354 594 315 594T245 578T201 528Q178 474 178 375Z" />
<glyph unicode="&#xd9;" glyph-name="Ugrave" horiz-adv-x="668" d="M606 712V244Q606 128 528 61T334 -6T141 61T62 244V712H201V249Q201 183 237 151T334 118T431 150T468 249V712H606ZM260 853L186 959H323L361 853Q365 841 365 831Q365 805 337 805Q294 805 260 853Z" />
<glyph unicode="&#xda;" glyph-name="Uacute" horiz-adv-x="668" d="M606 712V244Q606 128 528 61T334 -6T141 61T62 244V712H201V249Q201 183 237 151T334 118T431 150T468 249V712H606ZM485 959L411 853Q377 805 334 805Q306 805 306 831Q306 841 310 853L348 959H485Z" />
<glyph unicode="&#xdb;" glyph-name="Ucircumflex" horiz-adv-x="668" d="M606 712V244Q606 128 528 61T334 -6T141 61T62 244V712H201V249Q201 183 237 151T334 118T431 150T468 249V712H606ZM334 885L289 829Q250 781 212 781Q199 781 191 790T183 810T188 829L282
950H386L480 829Q485 821 485 811T477 791T456 781Q418 781 379 829L334 885Z" />
<glyph unicode="&#xdc;" glyph-name="Udieresis" horiz-adv-x="668" d="M606 712V244Q606 128 528 61T334 -6T141 61T62 244V712H201V249Q201 183 237 151T334 118T431 150T468 249V712H606ZM514 910T514 871T497 818T447 804T398 818T380 871T397 924T447 938T496
924ZM288 910T288 871T271 818T221 804T172 818T154 871T171 924T221 938T270 924Z" />
<glyph unicode="&#xdd;" glyph-name="Yacute" horiz-adv-x="572" d="M569 712L355 292V0H217V292L3 712H154L287 425L418 712H569ZM436 959L362 853Q328 805 285 805Q257 805 257 831Q257 841 261 853L299 959H436Z" />
<glyph unicode="&#xde;" glyph-name="Thorn" horiz-adv-x="633" d="M574 360Q574 138 339 138H222V0H83V712H222V581H339Q463 581 518 528T574 360ZM435 301T435 360T415 438T332 457H222V262H332Q394 262 414 281Z" />
<glyph unicode="&#xdf;" glyph-name="germandbls" horiz-adv-x="600" d="M546 217Q546 -10 349 -10H297V100H323Q364 100 389 130T415 219T379 310T295 343V445Q319 445 337 471T355 531T337 585T278 605T220 578T203 501V0H73V511Q73 718 285 718Q485 718 485
533Q485 490 467 456T424 406Q546 343 546 217Z" />
<glyph unicode="&#xe0;" glyph-name="agrave" horiz-adv-x="534" d="M187 676L113 782H250L288 676Q292 664 292 654Q292 628 264 628Q221 628 187 676ZM466 0H379L339 69L200 -6Q84 -6 44 78Q24 119 17 166T9 265T10 341T15 398T26 453T48 498T82 536Q127 567
199 567H336L466 575V0ZM336 182V450H237Q182 450 161 408T139 283T159 165T237 131L336 182Z" />
<glyph unicode="&#xe1;" glyph-name="aacute" horiz-adv-x="534" d="M402 782L328 676Q294 628 251 628Q223 628 223 654Q223 664 227 676L265 782H402ZM466 0H379L339 69L200 -6Q84 -6 44 78Q24 119 17 166T9 265T10 341T15 398T26 453T48 498T82 536Q127 567
199 567H336L466 575V0ZM336 182V450H237Q182 450 161 408T139 283T159 165T237 131L336 182Z" />
<glyph unicode="&#xe2;" glyph-name="acircumflex" horiz-adv-x="534" d="M261 718L216 662Q177 614 139 614Q126 614 118 623T110 643T115 662L209 783H313L407 662Q412 654 412 644T404 624T383 614Q345 614 306 662L261 718ZM466 0H379L339 69L200 -6Q84 -6
44 78Q24 119 17 166T9 265T10 341T15 398T26 453T48 498T82 536Q127 567 199 567H336L466 575V0ZM336 182V450H237Q182 450 161 408T139 283T159 165T237 131L336 182Z" />
<glyph unicode="&#xe3;" glyph-name="atilde" horiz-adv-x="534" d="M395 724L441 674Q382 615 328 615Q291 615 256 635T189 656T130 632L80 684Q113 717 138 730T197 743T266 722T336 701T395 724ZM466 0H379L339 69L200 -6Q84 -6 44 78Q24 119 17 166T9 265T10
341T15 398T26 453T48 498T82 536Q127 567 199 567H336L466 575V0ZM336 182V450H237Q182 450 161 408T139 283T159 165T237 131L336 182Z" />
<glyph unicode="&#xe4;" glyph-name="adieresis" horiz-adv-x="534" d="M441 733T441 694T424 641T374 627T325 641T307 694T324 747T374 761T423 747ZM215 733T215 694T198 641T148 627T99 641T81 694T98 747T148 761T197 747ZM466 0H379L339 69L200 -6Q84 -6
44 78Q24 119 17 166T9 265T10 341T15 398T26 453T48 498T82 536Q127 567 199 567H336L466 575V0ZM336 182V450H237Q182 450 161 408T139 283T159 165T237 131L336 182Z" />
<glyph unicode="&#xe5;" glyph-name="aring" horiz-adv-x="534" d="M392 846T392 715T261 584T130 715T261 846ZM319 679T319 715T305 762T261 773T218 762T203 715T218 668T261 656T304 667ZM466 0H379L339 69L200 -6Q84 -6 44 78Q24 119 17 166T9 265T10 341T15
398T26 453T48 498T82 536Q127 567 199 567H336L466 575V0ZM336 182V450H237Q182 450 161 408T139 283T159 165T237 131L336 182Z" />
<glyph unicode="&#xe6;" glyph-name="ae" horiz-adv-x="854" d="M358 169V253H235Q195 253 174 227T152 169T171 120T228 101L358 169ZM488 344H702Q702 423 679 449T602 475T518 448T488 344ZM818 255H488Q488 168 511 132T608 95Q660 95 681 120T702 199H819Q819
86 763 37T611 -13Q527 -13 475 9T395 83L213 -5Q135 -5 83 39T31 159T77 290T215 346H357Q358 351 358 360V383Q358 472 261 472Q200 472 175 452T149 382H41Q41 478 96 528T261 579T430 525Q490 578 603 578Q820 578 820 337Q820 311 818 255Z" />
<glyph unicode="&#xe7;" glyph-name="ccedilla" horiz-adv-x="482" d="M365 209L483 210Q482 202 481 181T480 153T477 129T473 106T466 86Q459 66 443 50Q394 -1 293 -12L285 -33Q333 -46 333 -88T305 -155T217 -180Q204 -180 170 -176L191 -125Q209 -128 226
-128Q267 -128 267 -97Q267 -63 209 -63L229 -12Q138 -2 90 50Q31 112 31 282T90 515Q116 543 161 561T261 579Q369 579 425 525T481 375H363Q363 419 341 440T261 462Q210 462 184 436Q165 417 162 363Q161 346 161 314V232Q161 190 165 178T173 152T185 131T202
116Q221 103 258 103T317 109T348 132T361 163T365 209Z" />
<glyph unicode="&#xe8;" glyph-name="egrave" horiz-adv-x="548" d="M501 255H171Q171 168 194 132T291 95Q343 95 364 120T385 199H502Q502 86 446 37T294 -13Q200 -13 147 14T66 111T39 314T100 512T286 578Q503 578 503 337Q503 311 501 255ZM171 344H385Q385
423 362 449T285 475T201 448T171 344ZM203 676L129 782H266L304 676Q308 664 308 654Q308 628 280 628Q237 628 203 676Z" />
<glyph unicode="&#xe9;" glyph-name="eacute" horiz-adv-x="548" d="M501 255H171Q171 168 194 132T291 95Q343 95 364 120T385 199H502Q502 86 446 37T294 -13Q200 -13 147 14T66 111T39 314T100 512T286 578Q503 578 503 337Q503 311 501 255ZM171 344H385Q385
423 362 449T285 475T201 448T171 344ZM428 782L354 676Q320 628 277 628Q249 628 249 654Q249 664 253 676L291 782H428Z" />
<glyph unicode="&#xea;" glyph-name="ecircumflex" horiz-adv-x="548" d="M501 255H171Q171 168 194 132T291 95Q343 95 364 120T385 199H502Q502 86 446 37T294 -13Q200 -13 147 14T66 111T39 314T100 512T286 578Q503 578 503 337Q503 311 501 255ZM171 344H385Q385
423 362 449T285 475T201 448T171 344ZM277 718L232 662Q193 614 155 614Q142 614 134 623T126 643T131 662L225 783H329L423 662Q428 654 428 644T420 624T399 614Q361 614 322 662L277 718Z" />
<glyph unicode="&#xeb;" glyph-name="edieresis" horiz-adv-x="548" d="M501 255H171Q171 168 194 132T291 95Q343 95 364 120T385 199H502Q502 86 446 37T294 -13Q200 -13 147 14T66 111T39 314T100 512T286 578Q503 578 503 337Q503 311 501 255ZM171 344H385Q385
423 362 449T285 475T201 448T171 344ZM457 733T457 694T440 641T390 627T341 641T323 694T340 747T390 761T439 747ZM231 733T231 694T214 641T164 627T115 641T97 694T114 747T164 761T213 747Z" />
<glyph unicode="&#xec;" glyph-name="igrave" horiz-adv-x="275" d="M203 0H73V521H203V0ZM91 676L17 782H154L192 676Q196 664 196 654Q196 628 168 628Q125 628 91 676Z" />
<glyph unicode="&#xed;" glyph-name="iacute" horiz-adv-x="275" d="M203 0H73V521H203V0ZM265 782L191 676Q157 628 114 628Q86 628 86 654Q86 664 90 676L128 782H265Z" />
<glyph unicode="&#xee;" glyph-name="icircumflex" horiz-adv-x="275" d="M203 0H73V521H203V0ZM140 718L95 662Q56 614 18 614Q5 614 -3 623T-11 643T-6 662L88 783H192L286 662Q291 654 291 644T283 624T262 614Q224 614 185 662L140 718Z" />
<glyph unicode="&#xef;" glyph-name="idieresis" horiz-adv-x="275" d="M203 0H73V521H203V0ZM317 733T317 694T300 641T250 627T201 641T183 694T200 747T250 761T299 747ZM91 733T91 694T74 641T24 627T-25 641T-43 694T-26 747T24 761T73 747Z" />
<glyph unicode="&#xf0;" glyph-name="eth" horiz-adv-x="549" d="M358 152V430H259Q161 430 161 271Q161 189 181 155T259 121Q264 122 277 123T294 124T308 127T322 130T334 135Q345 139 358 152ZM249 582V658L312 679Q298 704 266 752H396L419 716L500 743V667L451
650Q488 553 488 430V109Q387 -6 259 -6Q117 -6 71 72Q48 112 40 157T31 252T32 324T37 378T48 430T70 475T104 514Q149 547 221 547H358Q353 580 341 613L249 582Z" />
<glyph unicode="&#xf1;" glyph-name="ntilde" horiz-adv-x="573" d="M516 0H386V365Q386 414 366 432T310 450L193 401V0H63V571H160L190 503L350 577Q417 577 466 528T516 383V0ZM424 732L470 682Q411 623 357 623Q320 623 285 643T218 664T159 640L109 692Q142
725 167 738T226 751T295 730T365 709T424 732Z" />
<glyph unicode="&#xf2;" glyph-name="ograve" horiz-adv-x="543" d="M383 258V310Q383 415 358 436Q329 462 267 462T184 426T162 314V262Q162 196 179 153Q199 103 272 103Q331 103 359 134Q379 157 382 211Q383 227 383 258ZM513 288Q513 103 443 40Q384 -14
272 -14Q130 -14 78 70Q32 147 32 288Q32 420 78 495Q131 579 268 579T459 506T513 288ZM194 676L120 782H257L295 676Q299 664 299 654Q299 628 271 628Q228 628 194 676Z" />
<glyph unicode="&#xf3;" glyph-name="oacute" horiz-adv-x="543" d="M384 258V310Q384 415 360 436Q330 462 268 462T185 426T163 314V262Q163 196 180 153Q200 103 273 103Q332 103 360 134Q380 157 383 211Q384 227 384 258ZM514 288Q514 103 444 40Q385 -14
273 -14Q130 -14 80 70Q33 147 33 288Q33 420 80 495Q132 579 269 579T460 506T514 288ZM423 782L349 676Q315 628 272 628Q244 628 244 654Q244 664 248 676L286 782H423Z" />
<glyph unicode="&#xf4;" glyph-name="ocircumflex" horiz-adv-x="543" d="M381 258V310Q381 415 356 436Q327 462 265 462T182 426T160 314V262Q160 196 177 153Q197 103 270 103Q329 103 357 134Q377 157 380 211Q381 227 381 258ZM511 288Q511 103 441 40Q382
-14 270 -14Q128 -14 76 70Q30 147 30 288Q30 420 76 495Q129 579 266 579T457 506T511 288ZM272 718L227 662Q188 614 150 614Q137 614 129 623T121 643T126 662L220 783H324L418 662Q423 654 423 644T415 624T394 614Q356 614 317 662L272 718Z" />
<glyph unicode="&#xf5;" glyph-name="otilde" horiz-adv-x="543" d="M383 258V310Q383 415 358 436Q329 462 267 462T184 426T162 314V262Q162 196 179 153Q199 103 272 103Q331 103 359 134Q379 157 382 211Q383 227 383 258ZM513 288Q513 103 443 40Q384 -14
272 -14Q130 -14 78 70Q32 147 32 288Q32 420 78 495Q131 579 268 579T459 506T513 288ZM406 734L452 684Q393 625 339 625Q302 625 267 645T200 666T141 642L91 694Q124 727 149 740T208 753T277 732T347 711T406 734Z" />
<glyph unicode="&#xf6;" glyph-name="odieresis" horiz-adv-x="543" d="M383 258V310Q383 415 358 436Q329 462 267 462T184 426T162 314V262Q162 196 179 153Q199 103 272 103Q331 103 359 134Q379 157 382 211Q383 227 383 258ZM513 288Q513 103 443 40Q384
-14 272 -14Q130 -14 78 70Q32 147 32 288Q32 420 78 495Q131 579 268 579T459 506T513 288ZM452 733T452 694T435 641T385 627T336 641T318 694T335 747T385 761T434 747ZM226 733T226 694T209 641T159 627T110 641T92 694T109 747T159 761T208 747Z" />
<glyph unicode="&#xf7;" glyph-name="divide" horiz-adv-x="543" d="M497 225H46V346H497V225ZM354 547T354 497T339 431T273 415T207 431T191 497T207 562T273 578T338 563ZM354 132T354 82T339 16T273 0T207 16T191 82T207 147T273 163T338 148Z" />
<glyph unicode="&#xf8;" glyph-name="oslash" horiz-adv-x="543" d="M442 40Q383 -14 271 -14Q235 -14 198 -7L180 -45H83L117 27Q31 92 31 288Q31 420 78 495Q130 579 271 579Q330 579 372 564L381 582H478L447 517Q512 449 512 276T442 40ZM161 314V262Q161
187 177 153L321 456Q300 462 271 462Q204 462 183 426T161 314ZM382 258V310Q382 356 380 375L251 104Q257 103 280 103T325 112T358 134T374 171Q382 204 382 258Z" />
<glyph unicode="&#xf9;" glyph-name="ugrave" horiz-adv-x="573" d="M500 0H403L373 68L213 -6Q146 -6 97 43T47 188V571H177V216Q177 121 253 121L370 184V571H500V0ZM209 676L135 782H272L310 676Q314 664 314 654Q314 628 286 628Q243 628 209 676Z" />
<glyph unicode="&#xfa;" glyph-name="uacute" horiz-adv-x="573" d="M500 0H403L373 68L213 -6Q146 -6 97 43T47 188V571H177V216Q177 121 253 121L370 184V571H500V0ZM434 782L360 676Q326 628 283 628Q255 628 255 654Q255 664 259 676L297 782H434Z" />
<glyph unicode="&#xfb;" glyph-name="ucircumflex" horiz-adv-x="573" d="M500 0H403L373 68L213 -6Q146 -6 97 43T47 188V571H177V216Q177 121 253 121L370 184V571H500V0ZM283 718L238 662Q199 614 161 614Q148 614 140 623T132 643T137 662L231 783H335L429
662Q434 654 434 644T426 624T405 614Q367 614 328 662L283 718Z" />
<glyph unicode="&#xfc;" glyph-name="udieresis" horiz-adv-x="573" d="M500 0H403L373 68L213 -6Q146 -6 97 43T47 188V571H177V216Q177 121 253 121L370 184V571H500V0ZM463 733T463 694T446 641T396 627T347 641T329 694T346 747T396 761T445 747ZM237 733T237
694T220 641T170 627T121 641T103 694T120 747T170 761T219 747Z" />
<glyph unicode="&#xfd;" glyph-name="yacute" horiz-adv-x="538" d="M510 571L293 -64Q278 -107 254 -131Q214 -171 142 -171H81V-54H121Q149 -54 162 -45T186 -7L196 21L24 571H161L263 174L373 571H510ZM415 782L341 676Q307 628 264 628Q236 628 236 654Q236
664 240 676L278 782H415Z" />
<glyph unicode="&#xfe;" glyph-name="thorn" horiz-adv-x="562" d="M526 360Q529 323 529 268T527 183T519 118T500 64T464 26Q425 -6 329 -6L203 66V-191H73V751H203V475Q250 527 329 527Q432 527 480 487Q518 454 526 360ZM360 121T379 151T399 264T380 378T291
410H203V171L291 121Q360 121 379 151Z" />
<glyph unicode="&#xff;" glyph-name="ydieresis" horiz-adv-x="494" d="M490 571L273 -64Q258 -107 234 -131Q194 -171 122 -171H61V-54H101Q129 -54 142 -45T166 -7L176 21L4 571H141L243 174L353 571H490ZM424 733T424 694T407 641T357 627T308 641T290 694T307
747T357 761T406 747ZM198 733T198 694T181 641T131 627T82 641T64 694T81 747T131 761T180 747Z" />
<glyph unicode="&#x2013;" glyph-name="endash" horiz-adv-x="543" d="M493 225H50V346H493V225Z" />
<glyph unicode="&#x2014;" glyph-name="emdash" horiz-adv-x="1027" d="M968 226H59V351H968V226Z" />
<glyph unicode="&#x2018;" glyph-name="quoteleft" horiz-adv-x="273" d="M67 659V711Q67 746 86 777T128 817V753Q128 736 134 729T164 721T198 711T209 658T196 602T138 588T81 601T67 659Z" />
<glyph unicode="&#x2019;" glyph-name="quoteright" horiz-adv-x="273" d="M209 643V591Q209 556 190 525T148 485V549Q148 566 142 573T112 581T78 591T67 644T80 700T138 714T195 701T209 643Z" />
<glyph unicode="&#x201a;" glyph-name="quotesinglbase" horiz-adv-x="271" d="M209 54V2Q209 -33 190 -64T148 -104V-40Q148 -23 142 -16T112 -8T78 2T67 55T80 111T138 125T195 112T209 54Z" />
<glyph unicode="&#x201c;" glyph-name="quotedblleft" horiz-adv-x="482" d="M281 659V711Q281 746 300 777T342 817V753Q342 736 348 729T378 721T412 711T423 658T410 602T352 588T295 601T281 659ZM67 659V711Q67 746 86 777T128 817V753Q128 736 134 729T164
721T198 711T209 658T196 602T138 588T81 601T67 659Z" />
<glyph unicode="&#x201d;" glyph-name="quotedblright" horiz-adv-x="482" d="M209 643V591Q209 556 190 525T148 485V549Q148 566 142 573T112 581T78 591T67 644T80 700T138 714T195 701T209 643ZM423 643V591Q423 556 404 525T362 485V549Q362 566 356 573T326
581T292 591T281 644T294 700T352 714T409 701T423 643Z" />
<glyph unicode="&#x201e;" glyph-name="quotedblbase" horiz-adv-x="485" d="M209 54V2Q209 -33 190 -64T148 -104V-40Q148 -23 142 -16T112 -8T78 2T67 55T80 111T138 125T195 112T209 54ZM423 54V2Q423 -33 404 -64T362 -104V-40Q362 -23 356 -16T326 -8T292
2T281 55T294 111T352 125T409 112T423 54Z" />
<glyph unicode="&#x2022;" glyph-name="bullet" horiz-adv-x="493" d="M409 418T409 334T372 211T246 171T121 210T83 334T120 457T246 497T371 458Z" />
<glyph unicode="&#x2039;" glyph-name="guilsinglleft" horiz-adv-x="350" d="M303 27L109 200Q67 247 67 277T111 352L303 523V368L189 275L303 182V27Z" />
<glyph unicode="&#x203a;" glyph-name="guilsinglright" horiz-adv-x="350" d="M67 523L261 350Q303 303 303 273T259 198L67 27V182L181 275L67 368V523Z" />
</font>
</defs>
</svg>
