<?xml version="1.0" standalone="no"?>
<!DOCTYPE svg PUBLIC "-//W3C//DTD SVG 1.1//EN" "http://www.w3.org/Graphics/SVG/1.1/DTD/svg11.dtd">
<svg xmlns="http://www.w3.org/2000/svg">
<defs >
<font id="Mada" horiz-adv-x="533" ><font-face
    font-family="Mada SemiBold"
    units-per-em="1000"
    panose-1="0 0 0 0 0 0 0 0 0 0"
    ascent="900"
    descent="-300"
    alphabetic="0" />
<glyph unicode=" " glyph-name="space" horiz-adv-x="200" />
<glyph unicode="!" glyph-name="exclam" horiz-adv-x="315" d="M119 215L103 556L100 670H216L212 556L196 215H119ZM158 -12Q126 -12 105 10T83 66Q83 100 104 122T158 144Q190 144 211 122T232 66Q232 32 211 10T158 -12Z" />
<glyph unicode="&quot;" glyph-name="quotedbl" horiz-adv-x="482" d="M104 392L82 575L78 688H196L193 575L170 392H104ZM311 392L289 575L285 688H403L400 575L377 392H311Z" />
<glyph unicode="#" glyph-name="numbersign" horiz-adv-x="513" d="M190 271H308L324 400H206L190 271ZM88 0L112 195H35V271H120L136 400H55V476H146L168 650H237L216 476H333L356 650H424L403 476H483V400H394L378 271H463V195H369L346 0H276L299 195H182L158 0H88Z" />
<glyph unicode="$" glyph-name="dollar" horiz-adv-x="513" d="M298 -110H218V-10Q172 -5 126 15T45 66L97 144Q132 116 168 99T245 82Q342 82 342 168Q342 208 315 232T247 277T166 320T98 378T70 469Q70 539 110 585T218 644V746H298V646Q346 640 380 619T443
568L384 501Q356 526 330 540T268 554Q181 554 181 474Q181 438 208 416T276 376T357 334T425 274T453 176Q453 105 413 56T298 -7V-110Z" />
<glyph unicode="%" glyph-name="percent" horiz-adv-x="841" d="M186 252Q117 252 74 306T30 460Q30 558 73 612T186 666Q255 666 298 612T342 460Q342 361 299 307T186 252ZM186 319Q218 319 238 352T259 460Q259 534 239 566T186 599Q154 599 134 567T113 460Q113
386 133 353T186 319ZM207 -12L564 666H634L278 -12H207ZM655 -12Q586 -12 543 42T499 196Q499 294 542 348T655 402Q724 402 767 348T811 196Q811 97 768 43T655 -12ZM655 55Q687 55 707 88T728 196Q728 270 708 302T655 335Q623 335 603 303T582 196Q582 122
602 89T655 55Z" />
<glyph unicode="&amp;" glyph-name="ampersand" horiz-adv-x="639" d="M593 -12Q514 7 434 58Q395 26 346 7T237 -12Q140 -12 84 41T28 172Q28 240 65 283T153 359Q111 438 111 503Q111 570 156 618T276 666Q343 666 381 628T420 527Q420 462 376 418T278 337Q308
296 346 258T427 187Q484 262 510 361H616Q598 299 570 242T504 134Q536 114 566 101T622 82L593 -12ZM207 504Q207 461 233 408Q273 433 301 460T330 526Q330 552 318 570T277 588Q246 588 227 565T207 504ZM251 77Q302 77 356 116Q265 192 201 281Q173 259 156
234T138 179Q138 133 170 105T251 77Z" />
<glyph unicode="&apos;" glyph-name="quotesingle" horiz-adv-x="275" d="M104 392L82 575L78 688H196L193 575L170 392H104Z" />
<glyph unicode="(" glyph-name="parenleft" horiz-adv-x="324" d="M209 -178Q147 -76 112 35T77 278Q77 410 112 521T209 734L281 702Q225 606 198 497T171 278Q171 168 198 59T281 -146L209 -178Z" />
<glyph unicode=")" glyph-name="parenright" horiz-adv-x="324" d="M115 -178L43 -146Q99 -50 126 59T153 278Q153 388 126 497T43 702L115 734Q177 632 212 521T247 278Q247 146 212 35T115 -178Z" />
<glyph unicode="*" glyph-name="asterisk" horiz-adv-x="438" d="M143 384L92 421L150 519L48 564L67 624L176 599L187 712H250L261 599L371 624L390 564L287 519L345 421L294 384L219 471L143 384Z" />
<glyph unicode="+" glyph-name="plus" horiz-adv-x="513" d="M213 99V288H34V372H213V561H300V372H479V288H300V99H213Z" />
<glyph unicode="," glyph-name="comma" horiz-adv-x="275" d="M72 -182L47 -119Q150 -80 148 2Q144 2 139 2Q110 2 88 20T65 73Q65 105 87 124T142 144Q182 144 205 113T228 26Q228 -48 187 -102T72 -182Z" />
<glyph unicode="-" glyph-name="hyphen" horiz-adv-x="322" d="M42 210V294H280V210H42Z" />
<glyph unicode="." glyph-name="period" horiz-adv-x="275" d="M138 -12Q106 -12 85 10T63 66Q63 100 84 122T138 144Q170 144 191 122T212 66Q212 32 191 10T138 -12Z" />
<glyph unicode="/" glyph-name="slash" horiz-adv-x="344" d="M12 -160L245 710H323L90 -160H12Z" />
<glyph unicode="0" glyph-name="zero" horiz-adv-x="513" d="M256 -12Q157 -12 99 74T40 321Q40 482 98 565T256 648Q355 648 413 565T472 321Q472 160 414 74T256 -12ZM256 78Q302 78 332 132T362 321Q362 456 332 507T256 558Q210 558 180 507T150 321Q150 186
180 132T256 78Z" />
<glyph unicode="1" glyph-name="one" horiz-adv-x="513" d="M74 0V94H216V512H99V584Q187 601 246 636H332V94H457V0H74Z" />
<glyph unicode="2" glyph-name="two" horiz-adv-x="513" d="M38 0V67Q171 195 248 284T326 447Q326 497 299 527T221 557Q184 557 153 536T97 486L33 550Q76 596 123 622T236 648Q328 648 382 595T437 453Q437 368 369 280T206 91Q231 93 260 95T312 98H468V0H38Z" />
<glyph unicode="3" glyph-name="three" horiz-adv-x="513" d="M240 -12Q163 -12 111 14T24 78L79 152Q108 123 145 103T230 82Q282 82 314 107T347 178Q347 228 308 257T160 286V370Q254 370 290 399T326 472Q326 512 301 534T232 557Q194 557 164 541T104 497L45
568Q86 604 132 626T236 648Q328 648 385 605T442 480Q442 427 413 391T331 334V330Q387 315 425 275T463 172Q463 85 398 37T240 -12Z" />
<glyph unicode="4" glyph-name="four" horiz-adv-x="513" d="M132 253H299V397Q299 425 300 463T304 529H300Q288 504 275 480T248 430L132 253ZM487 164H407V0H299V164H18V242L270 636H407V253H487V164Z" />
<glyph unicode="5" glyph-name="five" horiz-adv-x="513" d="M241 -12Q164 -12 112 14T24 76L77 150Q106 123 142 103T226 82Q279 82 314 114T349 204Q349 261 317 292T232 323Q201 323 180 315T130 287L75 322L94 636H434V539H194L181 385Q201 395 220 400T265
406Q347 406 406 358T465 207Q465 103 397 46T241 -12Z" />
<glyph unicode="6" glyph-name="six" horiz-adv-x="513" d="M475 197Q475 102 416 45T275 -12Q181 -12 113 63T44 299Q44 422 79 499T172 612T294 648Q352 648 394 627T464 576L402 506Q363 554 301 554Q241 554 198 503T151 319Q178 354 216 374T289 394Q372
394 423 346T475 197ZM273 76Q313 76 340 107T368 197Q368 310 268 310Q241 310 211 294T154 237Q163 153 195 115T273 76Z" />
<glyph unicode="7" glyph-name="seven" horiz-adv-x="513" d="M168 0Q174 113 192 202T247 373T345 539H44V636H471V566Q396 474 358 392T305 217T285 0H168Z" />
<glyph unicode="8" glyph-name="eight" horiz-adv-x="513" d="M257 -12Q164 -12 103 37T41 163Q41 222 76 262T156 326V330Q119 356 94 392T68 479Q68 556 123 602T260 648Q346 648 396 601T447 476Q447 429 420 391T362 330V326Q406 301 439 263T472 161Q472
88 413 38T257 -12ZM299 359Q352 412 352 469Q352 511 327 538T258 566Q221 566 196 543T171 479Q171 431 208 406T299 359ZM259 70Q305 70 334 95T364 165Q364 217 320 242T211 294Q181 272 162 242T142 175Q142 128 176 99T259 70Z" />
<glyph unicode="9" glyph-name="nine" horiz-adv-x="513" d="M244 326Q272 326 302 343T358 400Q349 484 317 522T238 560Q199 560 171 529T143 440Q143 326 244 326ZM217 -12Q160 -12 118 9T47 60L109 130Q127 109 154 96T211 82Q271 82 314 133T361 317Q333
283 295 263T222 243Q140 243 89 291T37 440Q37 535 96 591T237 648Q330 648 398 573T467 338Q467 214 432 137T340 24T217 -12Z" />
<glyph unicode=":" glyph-name="colon" horiz-adv-x="275" d="M138 330Q106 330 85 352T63 408Q63 442 84 464T138 486Q170 486 191 464T212 408Q212 374 191 352T138 330ZM138 -12Q106 -12 85 10T63 66Q63 100 84 122T138 144Q170 144 191 122T212 66Q212 32
191 10T138 -12Z" />
<glyph unicode=";" glyph-name="semicolon" horiz-adv-x="275" d="M72 -182L47 -119Q150 -80 148 2Q144 2 139 2Q110 2 88 20T65 73Q65 105 87 124T142 144Q182 144 205 113T228 26Q228 -48 187 -102T72 -182ZM138 330Q106 330 85 352T63 408Q63 442 84 464T138
486Q170 486 191 464T212 408Q212 374 191 352T138 330Z" />
<glyph unicode="&lt;" glyph-name="less" horiz-adv-x="513" d="M479 117L34 290V374L479 547V450L286 382L151 334V330L286 282L479 214V117Z" />
<glyph unicode="=" glyph-name="equal" horiz-adv-x="513" d="M34 400V484H479V400H34ZM34 432V516H479V432H34Z" />
<glyph unicode="&gt;" glyph-name="greater" horiz-adv-x="513" d="M34 117V214L227 282L362 330V334L227 382L34 450V547L479 374V290L34 117Z" />
<glyph unicode="?" glyph-name="question" horiz-adv-x="444" d="M157 215Q149 270 167 310T214 382T265 444T288 508Q288 544 267 566T207 588Q176 588 151 574T104 536L40 595Q73 633 119 657T221 682Q299 682 349 640T400 516Q400 468 377 433T324 367T274
299T258 215H157ZM208 -12Q176 -12 155 10T134 66Q134 100 155 122T208 144Q240 144 261 122T283 66Q283 32 262 10T208 -12Z" />
<glyph unicode="@" glyph-name="at" horiz-adv-x="875" d="M416 -164Q317 -164 234 -123T100 0T50 204Q50 341 109 443T267 601T484 658Q641 658 733 562T826 314Q826 224 793 164T711 74T612 44Q569 44 539 63T502 120H500Q478 90 445 71T379 52Q324 52 289 91T253
198Q253 255 278 310T347 401T450 437Q502 437 528 388H530L543 429H616L573 218Q548 117 623 117Q670 117 710 169T750 310Q750 424 684 505T475 586Q388 586 309 539T180 407T130 208Q130 60 216 -15T425 -91Q467 -91 508 -80T582 -50L609 -114Q521 -164 416
-164ZM403 127Q440 127 482 179L508 326Q486 361 453 361Q418 361 394 336T356 275T342 205Q342 127 403 127Z" />
<glyph unicode="A" glyph-name="A" horiz-adv-x="558" d="M217 348L194 268H361L338 348Q322 400 308 455T279 564H275Q262 509 248 455T217 348ZM438 0L387 177H167L116 0H-2L211 654H347L560 0H438Z" />
<glyph unicode="B" glyph-name="B" horiz-adv-x="597" d="M83 0V654H292Q393 654 459 619T526 493Q526 446 502 406T435 351V347Q489 335 524 297T560 192Q560 94 489 47T309 0H83ZM199 384H282Q350 384 381 409T412 476Q412 524 380 544T284 564H199V384ZM199
90H297Q447 90 447 198Q447 297 297 297H199V90Z" />
<glyph unicode="C" glyph-name="C" horiz-adv-x="576" d="M344 -12Q220 -12 135 75T49 325Q49 432 89 508T198 625T348 666Q410 666 458 641T537 583L475 508Q450 534 420 549T351 565Q271 565 220 502T168 328Q168 216 217 153T348 89Q392 89 426 107T488 156L550
83Q467 -12 344 -12Z" />
<glyph unicode="D" glyph-name="D" horiz-adv-x="625" d="M83 0V654H258Q408 654 492 573T576 330Q576 167 493 84T264 0H83ZM199 94H250Q349 94 403 151T457 330Q457 450 403 505T250 560H199V94Z" />
<glyph unicode="E" glyph-name="E" horiz-adv-x="538" d="M83 0V654H477V556H199V389H434V291H199V98H487V0H83Z" />
<glyph unicode="F" glyph-name="F" horiz-adv-x="510" d="M83 0V654H478V556H199V371H437V273H199V0H83Z" />
<glyph unicode="G" glyph-name="G" horiz-adv-x="628" d="M357 -12Q224 -12 137 75T49 325Q49 486 138 576T358 666Q428 666 476 640T556 583L494 508Q469 532 439 548T362 565Q275 565 222 502T168 328Q168 216 219 153T368 89Q430 89 462 118V259H338V354H566V66Q533
33 479 11T357 -12Z" />
<glyph unicode="H" glyph-name="H" horiz-adv-x="663" d="M83 0V654H199V391H464V654H580V0H464V290H199V0H83Z" />
<glyph unicode="I" glyph-name="I" horiz-adv-x="282" d="M83 0V654H199V0H83Z" />
<glyph unicode="J" glyph-name="J" horiz-adv-x="494" d="M219 -12Q86 -12 24 99L104 158Q141 89 206 89Q252 89 275 117T298 215V654H414V205Q414 116 368 52T219 -12Z" />
<glyph unicode="K" glyph-name="K" horiz-adv-x="597" d="M83 0V654H199V357H202L435 654H564L363 399L598 0H470L293 308L199 191V0H83Z" />
<glyph unicode="L" glyph-name="L" horiz-adv-x="502" d="M83 0V654H199V98H471V0H83Z" />
<glyph unicode="M" glyph-name="M" horiz-adv-x="745" d="M83 0V654H214L330 334Q340 303 351 271T372 206H376Q386 238 396 270T417 334L530 654H662V0H555V299Q555 345 560 403T570 507H566L513 355L406 61H337L229 355L177 507H173Q177 462 182 404T188 299V0H83Z" />
<glyph unicode="N" glyph-name="N" horiz-adv-x="656" d="M83 0V654H202L406 286L473 147H477Q473 197 468 256T462 370V654H573V0H454L250 368L183 507H179Q183 455 188 398T194 286V0H83Z" />
<glyph unicode="O" glyph-name="O" horiz-adv-x="674" d="M337 -12Q210 -12 130 79T49 330Q49 488 129 577T337 666Q465 666 545 577T626 330Q626 171 546 80T337 -12ZM337 89Q414 89 460 154T506 330Q506 440 460 502T337 565Q260 565 214 503T168 330Q168 220
214 155T337 89Z" />
<glyph unicode="P" glyph-name="P" horiz-adv-x="582" d="M83 0V654H289Q398 654 470 610T542 452Q542 343 471 292T293 240H199V0H83ZM199 333H284Q428 333 428 452Q428 514 391 537T280 561H199V333Z" />
<glyph unicode="Q" glyph-name="Q" horiz-adv-x="674" d="M545 -174Q448 -174 381 -127T283 -7Q177 11 113 100T49 330Q49 488 129 577T337 666Q465 666 545 577T626 330Q626 193 566 106T406 -4Q429 -43 470 -61T558 -79Q597 -79 629 -69L650 -155Q634 -162 607
-168T545 -174ZM337 83Q414 83 460 149T506 330Q506 440 460 502T337 565Q260 565 214 503T168 330Q168 215 214 149T337 83Z" />
<glyph unicode="R" glyph-name="R" horiz-adv-x="592" d="M199 348H292Q430 348 430 460Q430 516 395 538T292 561H199V348ZM199 0H83V654H304Q406 654 475 612T544 460Q544 385 509 339T414 273L570 0H440L299 256H199V0Z" />
<glyph unicode="S" glyph-name="S" horiz-adv-x="545" d="M274 -12Q136 -12 38 84L106 163Q141 130 186 110T276 89Q332 89 361 112T390 173Q390 214 362 232T289 269L199 308Q151 328 109 369T67 482Q67 560 129 613T287 666Q344 666 397 644T488 583L429 509Q398
535 364 550T287 565Q240 565 212 545T184 488Q184 450 216 431T288 396L377 359Q435 334 472 294T509 182Q509 102 447 45T274 -12Z" />
<glyph unicode="T" glyph-name="T" horiz-adv-x="546" d="M215 0V556H26V654H520V556H331V0H215Z" />
<glyph unicode="U" glyph-name="U" horiz-adv-x="655" d="M328 -12Q215 -12 148 57T80 287V654H196V278Q196 172 232 131T328 89Q388 89 426 130T464 278V654H575V287Q575 126 509 57T328 -12Z" />
<glyph unicode="V" glyph-name="V" horiz-adv-x="536" d="M200 0L-4 654H119L211 325Q227 270 239 219T269 112H273Q290 168 302 219T330 325L421 654H540L337 0H200Z" />
<glyph unicode="W" glyph-name="W" horiz-adv-x="800" d="M148 0L18 654H137L194 324Q202 272 210 220T226 115H230Q240 167 251 219T273 324L353 654H454L534 324Q545 273 556 221T578 115H582Q590 168 598 220T613 324L670 654H781L656 0H512L431 344Q423 382
416 420T402 495H398Q385 423 368 344L289 0H148Z" />
<glyph unicode="X" glyph-name="X" horiz-adv-x="541" d="M13 0L199 337L25 654H154L226 509Q238 486 249 462T276 409H280Q292 438 302 462T324 509L393 654H516L342 332L528 0H399L319 154Q306 180 294 205T266 261H262Q249 231 238 206T214 154L136 0H13Z" />
<glyph unicode="Y" glyph-name="Y" horiz-adv-x="501" d="M192 0V243L-4 654H120L191 487Q205 450 219 415T249 343H253Q269 380 284 415T313 487L384 654H505L308 243V0H192Z" />
<glyph unicode="Z" glyph-name="Z" horiz-adv-x="540" d="M40 0V70L356 556H69V654H500V584L183 98H502V0H40Z" />
<glyph unicode="[" glyph-name="bracketleft" horiz-adv-x="324" d="M90 -152V708H286V645H177V-89H286V-152H90Z" />
<glyph unicode="\" glyph-name="backslash" horiz-adv-x="344" d="M255 -160L21 710H99L333 -160H255Z" />
<glyph unicode="]" glyph-name="bracketright" horiz-adv-x="324" d="M38 -152V-89H147V645H38V708H234V-152H38Z" />
<glyph unicode="^" glyph-name="asciicircum" horiz-adv-x="513" d="M55 279L208 670H304L458 279H361L306 430L258 565H254L207 430L152 279H55Z" />
<glyph unicode="_" glyph-name="underscore" horiz-adv-x="500" d="M12 -133V-64H488V-133H12Z" />
<glyph unicode="`" glyph-name="grave" horiz-adv-x="549" d="M276 573L106 728L186 804L333 630L276 573Z" />
<glyph unicode="a" glyph-name="a" horiz-adv-x="516" d="M229 78Q259 78 283 92T336 132V242Q236 229 197 204T158 141Q158 108 178 93T229 78ZM192 -12Q128 -12 88 28T47 132Q47 211 115 254T336 314Q334 353 315 381T246 410Q210 410 176 396T108 362L66 439Q106
464 158 483T268 503Q451 503 451 291V0H356L348 54H344Q311 26 274 7T192 -12Z" />
<glyph unicode="b" glyph-name="b" horiz-adv-x="563" d="M311 -12Q241 -12 177 52H174L164 0H73V706H188V524L185 442Q216 469 253 486T327 503Q419 503 470 435T521 254Q521 127 457 58T311 -12ZM287 83Q336 83 369 126T402 252Q402 326 377 367T296 408Q244
408 188 353V124Q214 102 239 93T287 83Z" />
<glyph unicode="c" glyph-name="c" horiz-adv-x="462" d="M278 -12Q178 -12 110 55T41 245Q41 368 115 435T287 503Q334 503 369 487T431 448L375 373Q334 409 293 409Q234 409 197 364T159 245Q159 172 195 127T290 82Q318 82 344 94T391 124L438 48Q404 18 362
3T278 -12Z" />
<glyph unicode="d" glyph-name="d" horiz-adv-x="564" d="M273 83Q328 83 376 138V367Q350 390 326 399T276 408Q229 408 196 366T162 246Q162 83 273 83ZM245 -12Q153 -12 98 56T43 245Q43 365 107 434T251 503Q293 503 322 489T380 449L376 528V706H491V0H396L388
53H384Q357 26 321 7T245 -12Z" />
<glyph unicode="e" glyph-name="e" horiz-adv-x="507" d="M283 -12Q181 -12 111 56T41 245Q41 325 73 383T158 472T267 503Q367 503 418 438T470 270Q470 234 465 214H153Q160 149 199 113T298 77Q330 77 357 86T412 113L451 41Q416 18 373 3T283 -12ZM152 292H370Q370
349 345 381T270 414Q226 414 193 383T152 292Z" />
<glyph unicode="f" glyph-name="f" horiz-adv-x="317" d="M304 400H208V0H93V400H27V486L93 491V542Q93 618 131 668T256 718Q282 718 306 713T346 701L324 615Q297 627 270 627Q208 627 208 544V491H304V400Z" />
<glyph unicode="g" glyph-name="g" horiz-adv-x="520" d="M250 228Q285 228 310 254T335 327Q335 373 311 398T250 424Q214 424 189 399T164 327Q164 280 189 254T250 228ZM244 -217Q156 -217 98 -186T40 -89Q40 -28 110 16V20Q91 32 79 52T66 102Q66 130 82 154T120
193V197Q95 216 76 250T56 327Q56 412 114 457T250 503Q288 503 322 491H498V406H408Q436 373 436 323Q436 241 382 199T250 156Q215 156 183 169Q172 159 166 149T159 122Q159 101 176 89T239 77H326Q506 77 506 -44Q506 -117 435 -167T244 -217ZM262 -142Q321
-142 358 -118T395 -63Q395 -34 373 -24T308 -14H241Q201 -14 174 -7Q136 -36 136 -72Q136 -105 170 -123T262 -142Z" />
<glyph unicode="h" glyph-name="h" horiz-adv-x="558" d="M73 0V706H188V524L184 429Q215 458 253 480T341 503Q420 503 456 452T492 308V0H377V293Q377 354 359 379T300 404Q268 404 244 389T188 343V0H73Z" />
<glyph unicode="i" glyph-name="i" horiz-adv-x="262" d="M131 577Q100 577 80 595T60 642Q60 671 80 689T131 708Q162 708 182 690T202 642Q202 614 182 596T131 577ZM73 0V491H188V0H73Z" />
<glyph unicode="j" glyph-name="j" horiz-adv-x="263" d="M132 577Q102 577 82 595T61 642Q61 671 81 689T132 708Q163 708 183 690T204 642Q204 614 184 596T132 577ZM34 -206Q7 -206 -12 -202T-46 -193L-24 -107Q-14 -110 -4 -112T18 -115Q51 -115 62 -93T74
-27V491H190V-25Q190 -103 156 -154T34 -206Z" />
<glyph unicode="k" glyph-name="k" horiz-adv-x="522" d="M73 0V706H186V265H189L371 491H497L329 291L514 0H389L263 213L186 125V0H73Z" />
<glyph unicode="l" glyph-name="l" horiz-adv-x="271" d="M185 -12Q124 -12 99 25T73 126V706H188V120Q188 99 196 91T213 82Q222 82 231 84L246 -2Q223 -12 185 -12Z" />
<glyph unicode="m" glyph-name="m" horiz-adv-x="843" d="M73 0V491H168L176 424H180Q211 457 247 480T330 503Q384 503 416 480T466 415Q501 452 539 477T624 503Q702 503 739 452T776 308V0H660V293Q660 354 642 379T585 404Q539 404 482 343V0H367V293Q367
354 349 379T291 404Q245 404 188 343V0H73Z" />
<glyph unicode="n" glyph-name="n" horiz-adv-x="560" d="M73 0V491H168L176 425H180Q213 457 252 480T341 503Q420 503 456 452T492 308V0H377V293Q377 354 359 379T300 404Q268 404 244 389T188 343V0H73Z" />
<glyph unicode="o" glyph-name="o" horiz-adv-x="549" d="M274 -12Q182 -12 112 55T41 245Q41 368 111 435T274 503Q366 503 437 436T508 245Q508 123 437 56T274 -12ZM274 82Q328 82 359 127T390 245Q390 319 359 364T274 409Q220 409 190 364T159 245Q159 172
189 127T274 82Z" />
<glyph unicode="p" glyph-name="p" horiz-adv-x="564" d="M287 83Q336 83 369 126T402 252Q402 326 377 367T296 408Q244 408 188 353V124Q215 102 240 93T287 83ZM73 -194V491H168L176 439H180Q211 465 249 484T328 503Q420 503 470 435T521 253Q521 127 457
58T311 -12Q249 -12 185 42L188 -40V-194H73Z" />
<glyph unicode="q" glyph-name="q" horiz-adv-x="564" d="M376 -194V-33L380 49Q353 23 318 6T245 -12Q153 -12 98 56T43 245Q43 365 107 434T251 503Q327 503 387 444H390L400 491H491V-194H376ZM273 83Q328 83 376 138V367Q350 390 326 399T276 408Q229 408
196 366T162 246Q162 83 273 83Z" />
<glyph unicode="r" glyph-name="r" horiz-adv-x="373" d="M73 0V491H168L176 404H180Q234 503 319 503Q354 503 375 493L355 393Q342 397 331 399T304 401Q275 401 243 379T188 300V0H73Z" />
<glyph unicode="s" glyph-name="s" horiz-adv-x="431" d="M210 -12Q160 -12 110 7T24 56L78 130Q111 104 143 90T214 75Q254 75 273 91T292 134Q292 165 259 181T187 213Q138 231 94 262T49 356Q49 420 97 461T228 503Q279 503 320 485T391 444L338 374Q312 393
286 404T230 416Q193 416 176 401T158 362Q158 333 189 318T260 289Q310 270 355 240T401 140Q401 77 352 33T210 -12Z" />
<glyph unicode="t" glyph-name="t" horiz-adv-x="361" d="M246 -12Q160 -12 125 37T90 166V400H20V486L96 491L110 625H206V491H331V400H206V166Q206 80 275 80Q300 80 326 91L346 6Q326 -1 301 -6T246 -12Z" />
<glyph unicode="u" glyph-name="u" horiz-adv-x="556" d="M219 -12Q140 -12 104 39T68 183V491H183V198Q183 137 201 112T259 87Q291 87 315 103T368 155V491H483V0H389L380 72H377Q345 34 307 11T219 -12Z" />
<glyph unicode="v" glyph-name="v" horiz-adv-x="495" d="M183 0L12 491H129L207 236Q217 200 227 163T248 88H252Q262 126 273 163T294 236L372 491H483L316 0H183Z" />
<glyph unicode="w" glyph-name="w" horiz-adv-x="748" d="M154 0L24 491H140L199 236Q206 201 212 166T225 95H229Q236 131 243 166T260 236L324 491H429L494 236Q503 201 511 166T527 95H531Q538 131 544 166T557 236L616 491H724L599 0H462L405 229Q397 264
390 298T375 372H371Q364 333 357 298T342 228L286 0H154Z" />
<glyph unicode="x" glyph-name="x" horiz-adv-x="481" d="M14 0L170 256L24 491H148L203 398Q214 378 225 357T248 315H252Q261 335 271 356T290 398L337 491H456L311 243L467 0H343L283 97Q271 119 259 141T233 184H229Q218 163 207 142T186 97L134 0H14Z" />
<glyph unicode="y" glyph-name="y" horiz-adv-x="495" d="M106 -202Q86 -202 71 -199T42 -192L63 -102Q70 -104 79 -106T98 -109Q137 -109 160 -86T196 -25L205 6L12 491H129L214 250Q224 218 235 182T257 112H261Q270 146 279 181T298 250L372 491H483L305 -22Q274
-105 230 -153T106 -202Z" />
<glyph unicode="z" glyph-name="z" horiz-adv-x="443" d="M34 0V62L266 400H60V491H410V430L179 92H418V0H34Z" />
<glyph unicode="{" glyph-name="braceleft" horiz-adv-x="324" d="M232 -152Q169 -152 139 -123T109 -14Q109 40 113 79T118 167Q118 195 100 218T32 243V313Q82 314 100 337T118 388Q118 438 114 477T109 570Q109 650 139 679T232 708H286V645H263Q227 645 215
628T202 565Q202 522 204 482T207 393Q207 340 191 315T140 280V276Q175 267 191 242T207 163Q207 115 205 75T202 -9Q202 -54 214 -71T263 -89H286V-152H232Z" />
<glyph unicode="|" glyph-name="bar" horiz-adv-x="255" d="M89 -250V750H166V-250H89Z" />
<glyph unicode="}" glyph-name="braceright" horiz-adv-x="324" d="M38 -152V-89H61Q97 -89 109 -72T122 -9Q122 34 120 74T117 163Q117 216 133 241T184 276V280Q149 289 133 314T117 393Q117 441 119 481T122 565Q122 610 110 627T61 645H38V708H92Q155 708
185 679T215 570Q215 516 211 477T206 388Q206 361 224 338T292 313V243Q242 242 224 219T206 167Q206 118 210 79T215 -14Q215 -94 185 -123T92 -152H38Z" />
<glyph unicode="~" glyph-name="asciitilde" horiz-adv-x="513" d="M343 248Q302 248 274 268T221 308T168 328Q126 328 94 269L32 315Q64 367 100 389T170 412Q210 412 239 392T292 352T345 332Q387 332 419 391L480 344Q448 293 413 271T343 248Z" />
<glyph unicode="&#xa0;" glyph-name="space" horiz-adv-x="200" />
<glyph unicode="&#xa1;" glyph-name="exclamdown" horiz-adv-x="315" d="M158 347Q126 347 105 369T83 426Q83 459 104 481T158 503Q190 503 211 481T232 426Q232 392 211 370T158 347ZM100 -179L103 -65L119 276H196L212 -65L216 -179H100Z" />
<glyph unicode="&#xa2;" glyph-name="cent" horiz-adv-x="513" d="M471 123Q412 70 335 61V-37H269V62Q175 74 118 137T61 308Q61 413 120 476T269 553V654H335V556Q376 554 408 538T463 499L409 428Q372 459 335 463V155Q361 158 383 169T423 196L471 123ZM173
308Q173 191 269 162V455Q173 424 173 308Z" />
<glyph unicode="&#xa3;" glyph-name="sterling" horiz-adv-x="513" d="M476 98V0H51V71Q99 95 128 138T157 237Q157 256 153 278H53V347L120 352H132Q124 378 118 403T111 454Q111 544 166 596T311 648Q366 648 405 627T475 570L411 507Q392 529 371 541T321 554Q274
554 248 526T222 448Q222 424 227 400T239 352H393V278H256Q259 256 259 236Q259 192 246 161T206 102V98H476Z" />
<glyph unicode="&#xa4;" glyph-name="currency" horiz-adv-x="513" d="M82 93L23 153L85 216Q50 265 50 329Q50 394 85 443L23 506L82 566L150 496Q198 527 256 527Q314 527 362 496L431 566L490 506L427 443Q462 394 462 329Q462 265 427 216L490 153L431 93L362
163Q316 132 256 132Q197 132 151 163L82 93ZM256 214Q299 214 328 245T358 329Q358 382 329 413T256 445Q214 445 184 414T154 329Q154 277 184 246T256 214Z" />
<glyph unicode="&#xa5;" glyph-name="yen" horiz-adv-x="513" d="M198 0V152H41V212H198V271H41V330H172L18 636H137L201 485Q214 452 227 419T256 352H260Q274 386 288 419T315 485L379 636H495L340 330H472V271H314V212H472V152H314V0H198Z" />
<glyph unicode="&#xa6;" glyph-name="brokenbar" horiz-adv-x="255" d="M89 302V750H166V302H89ZM89 -250V209H166V-250H89Z" />
<glyph unicode="&#xa7;" glyph-name="section" horiz-adv-x="513" d="M140 342Q140 305 170 283T243 244T327 203Q373 228 373 275Q373 313 344 335T271 375T187 415Q140 388 140 342ZM238 -74Q184 -74 135 -54T54 4L122 64Q174 12 238 12Q273 12 291 28T310 68Q310
97 283 115T216 149T136 187T68 243T41 334Q41 374 63 407T124 463Q94 497 94 545Q94 605 136 646T258 687Q310 687 353 668T426 626L372 553Q349 573 322 586T264 600Q198 600 198 550Q198 523 225 505T294 470T376 431T444 374T472 284Q472 239 450 208T389 153Q415
119 415 73Q415 10 368 -32T238 -74Z" />
<glyph unicode="&#xa8;" glyph-name="dieresis" horiz-adv-x="549" d="M377 578Q350 578 333 596T316 639Q316 664 333 682T377 700Q403 700 420 682T438 639Q438 614 421 596T377 578ZM171 578Q145 578 128 596T110 639Q110 664 127 682T171 700Q198 700 215
682T232 639Q232 614 215 596T171 578Z" />
<glyph unicode="&#xa9;" glyph-name="copyright" horiz-adv-x="747" d="M374 -10Q286 -10 212 31T92 147T47 324Q47 426 92 500T211 614T374 654Q462 654 536 614T655 500T700 324Q700 222 655 147T536 31T374 -10ZM374 42Q486 42 564 119T642 324Q642 451 564
527T374 603Q262 603 184 527T105 324Q105 197 183 120T374 42ZM384 126Q304 126 250 179T196 323Q196 411 253 462T385 514Q429 514 459 497T514 456L469 406Q450 424 432 433T391 443Q340 443 311 409T282 323Q282 265 310 231T387 197Q416 197 437 208T478 236L517
180Q489 157 457 142T384 126Z" />
<glyph unicode="&#xaa;" glyph-name="ordfeminine" horiz-adv-x="352" d="M160 441Q192 441 226 474V544Q163 536 139 520T114 481Q114 441 160 441ZM133 377Q87 377 60 404T33 474Q33 526 79 554T226 593Q224 620 212 636T170 652Q147 652 123 643T75 620L45
675Q74 692 109 705T184 718Q309 718 309 577V385H242L234 420H230Q210 402 186 390T133 377Z" />
<glyph unicode="&#xab;" glyph-name="guillemotleft" horiz-adv-x="455" d="M182 61L47 210V294L182 443L228 406L113 252L228 97L182 61ZM356 61L221 210V294L356 443L402 406L287 252L402 97L356 61Z" />
<glyph unicode="&#xac;" glyph-name="logicalnot" horiz-adv-x="513" d="M392 99V288H34V372H479V99H392Z" />
<glyph unicode="&#xad;" glyph-name="uni00AD" horiz-adv-x="322" d="M42 210V294H280V210H42Z" />
<glyph unicode="&#xae;" glyph-name="registered" horiz-adv-x="443" d="M221 315Q142 315 85 370T28 514Q28 602 85 658T221 714Q301 714 357 658T414 514Q414 426 358 371T221 315ZM221 358Q284 358 325 401T367 514Q367 584 326 628T221 672Q158 672 117 628T75
514Q75 444 116 401T221 358ZM194 518H217Q254 518 254 548Q254 578 218 578H194V518ZM144 417V616H227Q260 616 283 601T307 551Q307 511 270 496L314 417H261L228 482H194V417H144Z" />
<glyph unicode="&#xaf;" glyph-name="overscore" horiz-adv-x="549" d="M134 596V672H414V596H134Z" />
<glyph unicode="&#xb0;" glyph-name="degree" horiz-adv-x="348" d="M175 413Q120 413 80 450T40 549Q40 610 80 647T175 685Q230 685 270 648T310 549Q310 488 270 451T175 413ZM175 472Q206 472 226 493T246 549Q246 584 226 605T175 627Q144 627 124 606T104
549Q104 515 124 494T175 472Z" />
<glyph unicode="&#xb1;" glyph-name="plusminus" horiz-adv-x="513" d="M213 143V299H34V382H213V561H300V382H479V299H300V143H213ZM34 0V83H479V0H34Z" />
<glyph unicode="&#xb2;" glyph-name="two.sups" horiz-adv-x="372" d="M48 385V433Q131 504 178 553T226 644Q226 715 160 715Q138 715 119 701T83 663L33 709Q89 787 173 787Q234 787 272 754T310 658Q310 606 274 560T186 458H327V385H48Z" />
<glyph unicode="&#xb3;" glyph-name="three.sups" horiz-adv-x="372" d="M183 373Q134 373 95 394T31 451L85 493Q121 440 176 440Q204 440 223 455T243 498Q243 558 136 558V609Q179 609 203 625T228 669Q228 720 169 720Q149 720 131 708T97 677L47 721Q76 753
108 770T183 787Q236 787 274 759T313 680Q313 647 297 625T251 587Q282 577 305 553T328 492Q328 438 285 406T183 373Z" />
<glyph unicode="&#xb4;" glyph-name="acute" horiz-adv-x="549" d="M272 573L215 630L362 804L442 728L272 573Z" />
<glyph unicode="&#xb5;" glyph-name="uni00B5" horiz-adv-x="578" d="M73 -178V491H188V198Q188 87 263 87Q292 87 317 103T370 166V491H486Q484 399 481 298T478 123Q478 82 518 82Q533 82 548 88L563 2Q550 -4 533 -8T490 -12Q398 -12 382 76H378Q334 -8 259
-8Q235 -8 215 -2T181 26Q182 -37 183 -80T190 -178H73Z" />
<glyph unicode="&#xb6;" glyph-name="paragraph" horiz-adv-x="599" d="M295 212Q188 212 114 267T40 436Q40 558 112 606T288 654H332V212H295ZM387 -80V654H503V-80H387Z" />
<glyph unicode="&#xb7;" glyph-name="middot" horiz-adv-x="275" d="M138 243Q106 243 85 265T63 321Q63 355 84 377T138 399Q170 399 191 377T212 321Q212 287 191 265T138 243Z" />
<glyph unicode="&#xb8;" glyph-name="cedilla" horiz-adv-x="549" d="M184 -233L174 -183Q235 -179 257 -169T280 -136Q280 -119 264 -108T203 -91L249 3H319L290 -62Q326 -71 345 -87T365 -135Q365 -182 318 -205T184 -233Z" />
<glyph unicode="&#xb9;" glyph-name="one.sups" horiz-adv-x="372" d="M168 385V679H82V733Q119 739 141 749T186 775H255V385H168Z" />
<glyph unicode="&#xba;" glyph-name="ordmasculine" horiz-adv-x="369" d="M184 377Q121 377 74 422T27 547Q27 628 74 673T184 718Q247 718 294 673T341 547Q341 467 294 422T184 377ZM184 444Q219 444 237 472T256 547Q256 594 238 623T184 652Q149 652 131
623T112 547Q112 500 130 472T184 444Z" />
<glyph unicode="&#xbb;" glyph-name="guillemotright" horiz-adv-x="455" d="M99 61L54 97L168 252L54 406L99 443L235 294V210L99 61ZM273 61L228 97L342 252L228 406L273 443L409 294V210L273 61Z" />
<glyph unicode="&#xbc;" glyph-name="onequarter" horiz-adv-x="795" d="M141 264V558H55V612Q92 618 114 628T159 654H228V264H141ZM183 -12L540 666H610L254 -12H183ZM545 154H640V209L645 322H641L596 243L545 154ZM775 95H717V0H640V95H461V139L613 390H717V154H775V95Z"
/>
<glyph unicode="&#xbd;" glyph-name="onehalf" horiz-adv-x="827" d="M141 264V558H55V612Q92 618 114 628T159 654H228V264H141ZM165 -12L522 666H592L236 -12H165ZM503 0V48Q586 119 633 168T681 259Q681 330 615 330Q593 330 574 316T538 278L488 324Q544 402
628 402Q689 402 727 369T765 273Q765 221 729 175T641 73H782V0H503Z" />
<glyph unicode="&#xbe;" glyph-name="threequarters" horiz-adv-x="807" d="M181 252Q132 252 93 273T29 330L83 372Q119 319 174 319Q202 319 221 334T241 377Q241 437 134 437V488Q177 488 201 504T226 548Q226 599 167 599Q147 599 129 587T95 556L45 600Q74
632 106 649T181 666Q234 666 272 638T311 559Q311 526 295 504T249 466Q280 456 303 432T326 371Q326 317 283 285T181 252ZM213 -12L570 666H640L284 -12H213ZM557 154H652V209L657 322H653L608 243L557 154ZM787 95H729V0H652V95H473V139L625 390H729V154H787V95Z"
/>
<glyph unicode="&#xbf;" glyph-name="questiondown" horiz-adv-x="444" d="M236 347Q204 347 183 369T162 426Q162 459 183 481T236 503Q268 503 289 481T310 426Q310 392 289 370T236 347ZM224 -191Q145 -191 95 -149T45 -25Q45 23 68 58T120 124T170 192T186
276H288Q296 221 277 181T230 109T179 47T156 -17Q156 -52 177 -74T238 -97Q268 -97 293 -83T340 -45L405 -104Q371 -142 326 -166T224 -191Z" />
<glyph unicode="&#xc0;" glyph-name="Agrave" horiz-adv-x="558" d="M217 348L194 268H361L338 348Q322 400 308 455T279 564H275Q262 509 248 455T217 348ZM438 0L387 177H167L116 0H-2L211 654H347L560 0H438ZM291 688L123 805L185 881L342 746L291 688Z" />
<glyph unicode="&#xc1;" glyph-name="Aacute" horiz-adv-x="558" d="M217 348L194 268H361L338 348Q322 400 308 455T279 564H275Q262 509 248 455T217 348ZM438 0L387 177H167L116 0H-2L211 654H347L560 0H438ZM263 688L212 746L369 881L431 805L263 688Z" />
<glyph unicode="&#xc2;" glyph-name="Acircumflex" horiz-adv-x="558" d="M217 348L194 268H361L338 348Q322 400 308 455T279 564H275Q262 509 248 455T217 348ZM438 0L387 177H167L116 0H-2L211 654H347L560 0H438ZM118 725L215 836H339L436 725L386 692L279
780H275L168 692L118 725Z" />
<glyph unicode="&#xc3;" glyph-name="Atilde" horiz-adv-x="558" d="M217 348L194 268H361L338 348Q322 400 308 455T279 564H275Q262 509 248 455T217 348ZM438 0L387 177H167L116 0H-2L211 654H347L560 0H438ZM350 700Q313 700 289 716T246 748T207 764Q171
764 165 707L89 713Q93 780 124 813T204 846Q241 846 265 830T308 798T347 782Q382 782 389 840L465 834Q461 767 430 734T350 700Z" />
<glyph unicode="&#xc4;" glyph-name="Adieresis" horiz-adv-x="558" d="M217 348L194 268H361L338 348Q322 400 308 455T279 564H275Q262 509 248 455T217 348ZM438 0L387 177H167L116 0H-2L211 654H347L560 0H438ZM384 708Q358 708 341 725T324 767Q324 793 341
810T384 827Q410 827 426 810T443 767Q443 742 427 725T384 708ZM170 708Q144 708 128 725T111 767Q111 793 127 810T170 827Q196 827 213 810T230 767Q230 742 213 725T170 708Z" />
<glyph unicode="&#xc5;" glyph-name="Aring" horiz-adv-x="558" d="M277 698Q230 698 201 723T171 792Q171 836 200 861T277 887Q323 887 353 862T383 792Q383 749 353 724T277 698ZM277 744Q296 744 309 757T323 792Q323 814 310 827T277 841Q258 841 244 828T230
792Q230 770 244 757T277 744ZM217 348L194 268H361L338 348Q322 400 308 455T279 564H275Q262 509 248 455T217 348ZM438 0L387 177H167L116 0H-2L211 654H347L560 0H438Z" />
<glyph unicode="&#xc6;" glyph-name="AE" horiz-adv-x="834" d="M297 366L246 261H394V565H390Q366 515 343 465T297 366ZM394 0V170H202L119 0H-3L324 654H773V556H510V389H731V291H510V98H783V0H394Z" />
<glyph unicode="&#xc7;" glyph-name="Ccedilla" horiz-adv-x="576" d="M433 -135Q433 -182 386 -205T252 -233L242 -183Q303 -179 325 -169T348 -136Q348 -119 332 -108T271 -91L310 -10Q199 1 124 87T49 325Q49 432 89 508T198 625T348 666Q410 666 458 641T537
583L475 508Q450 534 420 549T351 565Q271 565 220 502T168 328Q168 216 217 153T348 89Q392 89 426 107T488 156L550 83Q481 3 381 -10L358 -62Q394 -71 413 -87T433 -135Z" />
<glyph unicode="&#xc8;" glyph-name="Egrave" horiz-adv-x="538" d="M83 0V654H477V556H199V389H434V291H199V98H487V0H83ZM300 688L132 805L194 881L351 746L300 688Z" />
<glyph unicode="&#xc9;" glyph-name="Eacute" horiz-adv-x="538" d="M83 0V654H477V556H199V389H434V291H199V98H487V0H83ZM272 688L221 746L378 881L440 805L272 688Z" />
<glyph unicode="&#xca;" glyph-name="Ecircumflex" horiz-adv-x="538" d="M83 0V654H477V556H199V389H434V291H199V98H487V0H83ZM127 725L224 836H348L445 725L395 692L288 780H284L177 692L127 725Z" />
<glyph unicode="&#xcb;" glyph-name="Edieresis" horiz-adv-x="538" d="M83 0V654H477V556H199V389H434V291H199V98H487V0H83ZM393 708Q367 708 350 725T333 767Q333 793 350 810T393 827Q419 827 435 810T452 767Q452 742 436 725T393 708ZM179 708Q153 708 137
725T120 767Q120 793 136 810T179 827Q205 827 222 810T239 767Q239 742 222 725T179 708Z" />
<glyph unicode="&#xcc;" glyph-name="Igrave" horiz-adv-x="282" d="M83 0V654H199V0H83ZM155 688L-13 805L49 881L206 746L155 688Z" />
<glyph unicode="&#xcd;" glyph-name="Iacute" horiz-adv-x="282" d="M83 0V654H199V0H83ZM127 688L76 746L233 881L295 805L127 688Z" />
<glyph unicode="&#xce;" glyph-name="Icircumflex" horiz-adv-x="282" d="M83 0V654H199V0H83ZM-18 725L79 836H203L300 725L250 692L143 780H139L32 692L-18 725Z" />
<glyph unicode="&#xcf;" glyph-name="Idieresis" horiz-adv-x="282" d="M83 0V654H199V0H83ZM248 708Q222 708 205 725T188 767Q188 793 205 810T248 827Q274 827 290 810T307 767Q307 742 291 725T248 708ZM34 708Q8 708 -8 725T-25 767Q-25 793 -9 810T34 827Q60
827 77 810T94 767Q94 742 77 725T34 708Z" />
<glyph unicode="&#xd0;" glyph-name="Eth" horiz-adv-x="649" d="M288 0H107V311H30V366L107 370V654H282Q432 654 516 573T600 330Q600 167 517 84T288 0ZM223 94H274Q373 94 427 151T481 330Q481 450 427 505T274 560H223V370H360V311H223V94Z" />
<glyph unicode="&#xd1;" glyph-name="Ntilde" horiz-adv-x="656" d="M83 0V654H202L406 286L473 147H477Q473 197 468 256T462 370V654H573V0H454L250 368L183 507H179Q183 455 188 398T194 286V0H83ZM403 700Q366 700 342 716T299 748T260 764Q224 764 218 707L142
713Q146 780 177 813T257 846Q294 846 318 830T361 798T400 782Q435 782 442 840L518 834Q514 767 483 734T403 700Z" />
<glyph unicode="&#xd2;" glyph-name="Ograve" horiz-adv-x="674" d="M337 -12Q210 -12 130 79T49 330Q49 488 129 577T337 666Q465 666 545 577T626 330Q626 171 546 80T337 -12ZM337 89Q414 89 460 154T506 330Q506 440 460 502T337 565Q260 565 214 503T168
330Q168 220 214 155T337 89ZM351 688L183 805L245 881L402 746L351 688Z" />
<glyph unicode="&#xd3;" glyph-name="Oacute" horiz-adv-x="674" d="M337 -12Q210 -12 130 79T49 330Q49 488 129 577T337 666Q465 666 545 577T626 330Q626 171 546 80T337 -12ZM337 89Q414 89 460 154T506 330Q506 440 460 502T337 565Q260 565 214 503T168
330Q168 220 214 155T337 89ZM323 688L272 746L429 881L491 805L323 688Z" />
<glyph unicode="&#xd4;" glyph-name="Ocircumflex" horiz-adv-x="674" d="M337 -12Q210 -12 130 79T49 330Q49 488 129 577T337 666Q465 666 545 577T626 330Q626 171 546 80T337 -12ZM337 89Q414 89 460 154T506 330Q506 440 460 502T337 565Q260 565 214 503T168
330Q168 220 214 155T337 89ZM178 725L275 836H399L496 725L446 692L339 780H335L228 692L178 725Z" />
<glyph unicode="&#xd5;" glyph-name="Otilde" horiz-adv-x="674" d="M337 -12Q210 -12 130 79T49 330Q49 488 129 577T337 666Q465 666 545 577T626 330Q626 171 546 80T337 -12ZM337 89Q414 89 460 154T506 330Q506 440 460 502T337 565Q260 565 214 503T168
330Q168 220 214 155T337 89ZM410 700Q373 700 349 716T306 748T267 764Q231 764 225 707L149 713Q153 780 184 813T264 846Q301 846 325 830T368 798T407 782Q442 782 449 840L525 834Q521 767 490 734T410 700Z" />
<glyph unicode="&#xd6;" glyph-name="Odieresis" horiz-adv-x="674" d="M337 -12Q210 -12 130 79T49 330Q49 488 129 577T337 666Q465 666 545 577T626 330Q626 171 546 80T337 -12ZM337 89Q414 89 460 154T506 330Q506 440 460 502T337 565Q260 565 214 503T168
330Q168 220 214 155T337 89ZM444 708Q418 708 401 725T384 767Q384 793 401 810T444 827Q470 827 486 810T503 767Q503 742 487 725T444 708ZM230 708Q204 708 188 725T171 767Q171 793 187 810T230 827Q256 827 273 810T290 767Q290 742 273 725T230 708Z" />
<glyph unicode="&#xd7;" glyph-name="multiply" horiz-adv-x="513" d="M108 119L49 179L197 329L49 480L108 540L256 388L405 540L464 480L315 329L464 179L405 119L256 270L108 119Z" />
<glyph unicode="&#xd8;" glyph-name="Oslash" horiz-adv-x="674" d="M106 -36L45 12L578 690L640 642L106 -36ZM339 -12Q212 -12 132 79T51 330Q51 488 131 577T339 666Q467 666 547 577T628 330Q628 171 548 80T339 -12ZM339 89Q416 89 462 154T508 330Q508 440
462 502T339 565Q262 565 216 503T170 330Q170 220 216 155T339 89Z" />
<glyph unicode="&#xd9;" glyph-name="Ugrave" horiz-adv-x="655" d="M328 -12Q215 -12 148 57T80 287V654H196V278Q196 172 232 131T328 89Q388 89 426 130T464 278V654H575V287Q575 126 509 57T328 -12ZM342 688L174 805L236 881L393 746L342 688Z" />
<glyph unicode="&#xda;" glyph-name="Uacute" horiz-adv-x="655" d="M328 -12Q215 -12 148 57T80 287V654H196V278Q196 172 232 131T328 89Q388 89 426 130T464 278V654H575V287Q575 126 509 57T328 -12ZM314 688L263 746L420 881L482 805L314 688Z" />
<glyph unicode="&#xdb;" glyph-name="Ucircumflex" horiz-adv-x="655" d="M328 -12Q215 -12 148 57T80 287V654H196V278Q196 172 232 131T328 89Q388 89 426 130T464 278V654H575V287Q575 126 509 57T328 -12ZM169 725L266 836H390L487 725L437 692L330 780H326L219
692L169 725Z" />
<glyph unicode="&#xdc;" glyph-name="Udieresis" horiz-adv-x="655" d="M328 -12Q215 -12 148 57T80 287V654H196V278Q196 172 232 131T328 89Q388 89 426 130T464 278V654H575V287Q575 126 509 57T328 -12ZM435 708Q409 708 392 725T375 767Q375 793 392 810T435
827Q461 827 477 810T494 767Q494 742 478 725T435 708ZM221 708Q195 708 179 725T162 767Q162 793 178 810T221 827Q247 827 264 810T281 767Q281 742 264 725T221 708Z" />
<glyph unicode="&#xdd;" glyph-name="Yacute" horiz-adv-x="501" d="M192 0V243L-4 654H120L191 487Q205 450 219 415T249 343H253Q269 380 284 415T313 487L384 654H505L308 243V0H192ZM236 688L185 746L342 881L404 805L236 688Z" />
<glyph unicode="&#xde;" glyph-name="Thorn" horiz-adv-x="600" d="M83 0V654H199V550H303Q410 550 481 506T552 348Q552 238 481 187T303 136H199V0H83ZM199 229H294Q438 229 438 348Q438 409 402 433T294 457H199V229Z" />
<glyph unicode="&#xdf;" glyph-name="germandbls" horiz-adv-x="604" d="M404 -12Q362 -12 327 0T258 35L300 114Q351 75 401 75Q434 75 452 94T470 139Q470 175 442 195T377 233T312 278T284 357Q284 398 304 426T343 481T363 547Q363 581 345 603T290 625Q187
625 187 484V0H73V501Q73 596 128 656T290 716Q381 716 427 669T474 560Q474 511 453 481T411 426T390 371Q390 341 418 323T483 287T549 236T577 144Q577 79 532 34T404 -12Z" />
<glyph unicode="&#xe0;" glyph-name="agrave" horiz-adv-x="516" d="M229 78Q259 78 283 92T336 132V242Q236 229 197 204T158 141Q158 108 178 93T229 78ZM192 -12Q128 -12 88 28T47 132Q47 211 115 254T336 314Q334 353 315 381T246 410Q210 410 176 396T108
362L66 439Q106 464 158 483T268 503Q451 503 451 291V0H356L348 54H344Q311 26 274 7T192 -12ZM271 573L101 728L181 804L328 630L271 573Z" />
<glyph unicode="&#xe1;" glyph-name="aacute" horiz-adv-x="516" d="M229 78Q259 78 283 92T336 132V242Q236 229 197 204T158 141Q158 108 178 93T229 78ZM192 -12Q128 -12 88 28T47 132Q47 211 115 254T336 314Q334 353 315 381T246 410Q210 410 176 396T108
362L66 439Q106 464 158 483T268 503Q451 503 451 291V0H356L348 54H344Q311 26 274 7T192 -12ZM267 573L210 630L357 804L437 728L267 573Z" />
<glyph unicode="&#xe2;" glyph-name="acircumflex" horiz-adv-x="516" d="M229 78Q259 78 283 92T336 132V242Q236 229 197 204T158 141Q158 108 178 93T229 78ZM192 -12Q128 -12 88 28T47 132Q47 211 115 254T336 314Q334 353 315 381T246 410Q210 410 176 396T108
362L66 439Q106 464 158 483T268 503Q451 503 451 291V0H356L348 54H344Q311 26 274 7T192 -12ZM100 607L211 742H327L438 607L393 564L271 667H267L145 564L100 607Z" />
<glyph unicode="&#xe3;" glyph-name="atilde" horiz-adv-x="516" d="M229 78Q259 78 283 92T336 132V242Q236 229 197 204T158 141Q158 108 178 93T229 78ZM192 -12Q128 -12 88 28T47 132Q47 211 115 254T336 314Q334 353 315 381T246 410Q210 410 176 396T108
362L66 439Q106 464 158 483T268 503Q451 503 451 291V0H356L348 54H344Q311 26 274 7T192 -12ZM338 575Q305 575 282 593T240 630T202 649Q167 649 161 582L87 586Q89 654 117 692T200 730Q233 730 256 712T298 675T337 656Q371 656 377 723L451 719Q449 652 421
614T338 575Z" />
<glyph unicode="&#xe4;" glyph-name="adieresis" horiz-adv-x="516" d="M229 78Q259 78 283 92T336 132V242Q236 229 197 204T158 141Q158 108 178 93T229 78ZM192 -12Q128 -12 88 28T47 132Q47 211 115 254T336 314Q334 353 315 381T246 410Q210 410 176 396T108
362L66 439Q106 464 158 483T268 503Q451 503 451 291V0H356L348 54H344Q311 26 274 7T192 -12ZM372 578Q345 578 328 596T311 639Q311 664 328 682T372 700Q398 700 415 682T433 639Q433 614 416 596T372 578ZM166 578Q140 578 123 596T105 639Q105 664 122 682T166
700Q193 700 210 682T227 639Q227 614 210 596T166 578Z" />
<glyph unicode="&#xe5;" glyph-name="aring" horiz-adv-x="516" d="M229 78Q259 78 283 92T336 132V242Q236 229 197 204T158 141Q158 108 178 93T229 78ZM192 -12Q128 -12 88 28T47 132Q47 211 115 254T336 314Q334 353 315 381T246 410Q210 410 176 396T108
362L66 439Q106 464 158 483T268 503Q451 503 451 291V0H356L348 54H344Q311 26 274 7T192 -12ZM269 559Q211 559 180 588T148 660Q148 704 179 733T269 762Q327 762 358 733T390 660Q390 617 359 588T269 559ZM269 605Q290 605 304 620T319 660Q319 686 305 701T269
716Q248 716 234 701T219 660Q219 635 233 620T269 605Z" />
<glyph unicode="&#xe6;" glyph-name="ae" horiz-adv-x="785" d="M198 -12Q134 -12 93 28T52 132Q52 211 120 254T338 314Q336 353 318 381T250 410Q215 410 181 396T114 362L72 439Q112 464 161 483T265 503Q315 503 350 479T404 414Q434 456 472 479T557 503Q651
503 699 437T748 268Q748 234 743 214H443Q449 150 487 115T578 80Q610 80 636 90T689 118L730 41Q695 18 653 3T563 -12Q505 -12 463 12T392 72Q294 -12 198 -12ZM443 287H649Q649 346 625 380T553 414Q511 414 481 381T443 287ZM234 78Q296 78 354 136Q346 153
343 175T338 219L336 242Q242 229 203 204T164 141Q164 108 183 93T234 78Z" />
<glyph unicode="&#xe7;" glyph-name="ccedilla" horiz-adv-x="462" d="M278 -12Q178 -12 110 55T41 245Q41 368 115 435T287 503Q334 503 369 487T431 448L375 373Q334 409 293 409Q234 409 197 364T159 245Q159 172 195 127T290 82Q318 82 344 94T391 124L438
48Q404 18 362 3T278 -12ZM183 -233L173 -183Q234 -179 256 -169T279 -136Q279 -119 263 -108T202 -91L248 3H318L289 -62Q325 -71 344 -87T364 -135Q364 -182 317 -205T183 -233Z" />
<glyph unicode="&#xe8;" glyph-name="egrave" horiz-adv-x="507" d="M283 -12Q181 -12 111 56T41 245Q41 325 73 383T158 472T267 503Q367 503 418 438T470 270Q470 234 465 214H153Q160 149 199 113T298 77Q330 77 357 86T412 113L451 41Q416 18 373 3T283 -12ZM152
292H370Q370 349 345 381T270 414Q226 414 193 383T152 292ZM269 573L99 728L179 804L326 630L269 573Z" />
<glyph unicode="&#xe9;" glyph-name="eacute" horiz-adv-x="507" d="M283 -12Q181 -12 111 56T41 245Q41 325 73 383T158 472T267 503Q367 503 418 438T470 270Q470 234 465 214H153Q160 149 199 113T298 77Q330 77 357 86T412 113L451 41Q416 18 373 3T283 -12ZM152
292H370Q370 349 345 381T270 414Q226 414 193 383T152 292ZM265 573L208 630L355 804L435 728L265 573Z" />
<glyph unicode="&#xea;" glyph-name="ecircumflex" horiz-adv-x="507" d="M283 -12Q181 -12 111 56T41 245Q41 325 73 383T158 472T267 503Q367 503 418 438T470 270Q470 234 465 214H153Q160 149 199 113T298 77Q330 77 357 86T412 113L451 41Q416 18 373 3T283
-12ZM152 292H370Q370 349 345 381T270 414Q226 414 193 383T152 292ZM98 607L209 742H325L436 607L391 564L269 667H265L143 564L98 607Z" />
<glyph unicode="&#xeb;" glyph-name="edieresis" horiz-adv-x="507" d="M283 -12Q181 -12 111 56T41 245Q41 325 73 383T158 472T267 503Q367 503 418 438T470 270Q470 234 465 214H153Q160 149 199 113T298 77Q330 77 357 86T412 113L451 41Q416 18 373 3T283
-12ZM152 292H370Q370 349 345 381T270 414Q226 414 193 383T152 292ZM370 578Q343 578 326 596T309 639Q309 664 326 682T370 700Q396 700 413 682T431 639Q431 614 414 596T370 578ZM164 578Q138 578 121 596T103 639Q103 664 120 682T164 700Q191 700 208 682T225
639Q225 614 208 596T164 578Z" />
<glyph unicode="&#xec;" glyph-name="igrave" horiz-adv-x="262" d="M73 0V491H188V0H73ZM133 573L-37 728L43 804L190 630L133 573Z" />
<glyph unicode="&#xed;" glyph-name="iacute" horiz-adv-x="262" d="M73 0V491H188V0H73ZM129 573L72 630L219 804L299 728L129 573Z" />
<glyph unicode="&#xee;" glyph-name="icircumflex" horiz-adv-x="262" d="M73 0V491H188V0H73ZM-38 607L73 742H189L300 607L255 564L133 667H129L7 564L-38 607Z" />
<glyph unicode="&#xef;" glyph-name="idieresis" horiz-adv-x="262" d="M73 0V491H188V0H73ZM234 578Q207 578 190 596T173 639Q173 664 190 682T234 700Q260 700 277 682T295 639Q295 614 278 596T234 578ZM28 578Q2 578 -15 596T-33 639Q-33 664 -16 682T28
700Q55 700 72 682T89 639Q89 614 72 596T28 578Z" />
<glyph unicode="&#xf0;" glyph-name="eth" horiz-adv-x="552" d="M271 -12Q182 -12 115 52T48 225Q48 330 109 390T252 451Q286 451 317 438T372 397Q358 447 334 486T276 559L134 487L103 540L225 602Q202 619 177 634T124 664L175 735Q211 716 246 695T313 647L456
720L487 666L363 603Q422 543 460 460T498 262Q498 141 437 65T271 -12ZM274 82Q329 82 359 128T389 256Q389 282 387 306Q360 340 332 352T273 364Q218 364 186 327T154 225Q154 158 189 120T274 82Z" />
<glyph unicode="&#xf1;" glyph-name="ntilde" horiz-adv-x="560" d="M73 0V491H168L176 425H180Q213 457 252 480T341 503Q420 503 456 452T492 308V0H377V293Q377 354 359 379T300 404Q268 404 244 389T188 343V0H73ZM369 575Q336 575 313 593T271 630T233 649Q198
649 192 582L118 586Q120 654 148 692T231 730Q264 730 287 712T329 675T368 656Q402 656 408 723L482 719Q480 652 452 614T369 575Z" />
<glyph unicode="&#xf2;" glyph-name="ograve" horiz-adv-x="549" d="M274 -12Q182 -12 112 55T41 245Q41 368 111 435T274 503Q366 503 437 436T508 245Q508 123 437 56T274 -12ZM274 82Q328 82 359 127T390 245Q390 319 359 364T274 409Q220 409 190 364T159
245Q159 172 189 127T274 82ZM276 573L106 728L186 804L333 630L276 573Z" />
<glyph unicode="&#xf3;" glyph-name="oacute" horiz-adv-x="549" d="M274 -12Q182 -12 112 55T41 245Q41 368 111 435T274 503Q366 503 437 436T508 245Q508 123 437 56T274 -12ZM274 82Q328 82 359 127T390 245Q390 319 359 364T274 409Q220 409 190 364T159
245Q159 172 189 127T274 82ZM272 573L215 630L362 804L442 728L272 573Z" />
<glyph unicode="&#xf4;" glyph-name="ocircumflex" horiz-adv-x="549" d="M274 -12Q182 -12 112 55T41 245Q41 368 111 435T274 503Q366 503 437 436T508 245Q508 123 437 56T274 -12ZM274 82Q328 82 359 127T390 245Q390 319 359 364T274 409Q220 409 190 364T159
245Q159 172 189 127T274 82ZM105 607L216 742H332L443 607L398 564L276 667H272L150 564L105 607Z" />
<glyph unicode="&#xf5;" glyph-name="otilde" horiz-adv-x="549" d="M274 -12Q182 -12 112 55T41 245Q41 368 111 435T274 503Q366 503 437 436T508 245Q508 123 437 56T274 -12ZM274 82Q328 82 359 127T390 245Q390 319 359 364T274 409Q220 409 190 364T159
245Q159 172 189 127T274 82ZM343 575Q310 575 287 593T245 630T207 649Q172 649 166 582L92 586Q94 654 122 692T205 730Q238 730 261 712T303 675T342 656Q376 656 382 723L456 719Q454 652 426 614T343 575Z" />
<glyph unicode="&#xf6;" glyph-name="odieresis" horiz-adv-x="549" d="M274 -12Q182 -12 112 55T41 245Q41 368 111 435T274 503Q366 503 437 436T508 245Q508 123 437 56T274 -12ZM274 82Q328 82 359 127T390 245Q390 319 359 364T274 409Q220 409 190 364T159
245Q159 172 189 127T274 82ZM377 578Q350 578 333 596T316 639Q316 664 333 682T377 700Q403 700 420 682T438 639Q438 614 421 596T377 578ZM171 578Q145 578 128 596T110 639Q110 664 127 682T171 700Q198 700 215 682T232 639Q232 614 215 596T171 578Z" />
<glyph unicode="&#xf7;" glyph-name="divide" horiz-adv-x="513" d="M256 444Q228 444 208 462T188 510Q188 538 208 556T256 575Q285 575 304 557T324 510Q324 481 305 463T256 444ZM34 288V372H479V288H34ZM256 84Q228 84 208 102T188 150Q188 178 208 196T256
215Q285 215 304 197T324 150Q324 121 305 103T256 84Z" />
<glyph unicode="&#xf8;" glyph-name="oslash" horiz-adv-x="549" d="M153 251Q153 199 167 160L349 384Q319 413 274 413Q220 413 187 368T153 251ZM274 78Q328 78 362 122T396 239Q396 292 382 331L199 108Q229 78 274 78ZM274 -12Q198 -12 138 32L92 -24L46
12L96 73Q71 105 56 148T41 245Q41 368 111 435T274 503Q351 503 410 459L457 516L503 480L453 418Q478 386 493 343T508 245Q508 123 437 56T274 -12Z" />
<glyph unicode="&#xf9;" glyph-name="ugrave" horiz-adv-x="556" d="M219 -12Q140 -12 104 39T68 183V491H183V198Q183 137 201 112T259 87Q291 87 315 103T368 155V491H483V0H389L380 72H377Q345 34 307 11T219 -12ZM281 573L111 728L191 804L338 630L281 573Z" />
<glyph unicode="&#xfa;" glyph-name="uacute" horiz-adv-x="556" d="M219 -12Q140 -12 104 39T68 183V491H183V198Q183 137 201 112T259 87Q291 87 315 103T368 155V491H483V0H389L380 72H377Q345 34 307 11T219 -12ZM277 573L220 630L367 804L447 728L277 573Z" />
<glyph unicode="&#xfb;" glyph-name="ucircumflex" horiz-adv-x="556" d="M219 -12Q140 -12 104 39T68 183V491H183V198Q183 137 201 112T259 87Q291 87 315 103T368 155V491H483V0H389L380 72H377Q345 34 307 11T219 -12ZM110 607L221 742H337L448 607L403 564L281
667H277L155 564L110 607Z" />
<glyph unicode="&#xfc;" glyph-name="udieresis" horiz-adv-x="556" d="M219 -12Q140 -12 104 39T68 183V491H183V198Q183 137 201 112T259 87Q291 87 315 103T368 155V491H483V0H389L380 72H377Q345 34 307 11T219 -12ZM382 578Q355 578 338 596T321 639Q321
664 338 682T382 700Q408 700 425 682T443 639Q443 614 426 596T382 578ZM176 578Q150 578 133 596T115 639Q115 664 132 682T176 700Q203 700 220 682T237 639Q237 614 220 596T176 578Z" />
<glyph unicode="&#xfd;" glyph-name="yacute" horiz-adv-x="495" d="M106 -202Q86 -202 71 -199T42 -192L63 -102Q70 -104 79 -106T98 -109Q137 -109 160 -86T196 -25L205 6L12 491H129L214 250Q224 218 235 182T257 112H261Q270 146 279 181T298 250L372 491H483L305
-22Q274 -105 230 -153T106 -202ZM253 573L196 630L343 804L423 728L253 573Z" />
<glyph unicode="&#xfe;" glyph-name="thorn" horiz-adv-x="564" d="M287 83Q336 83 369 126T402 252Q402 326 377 367T296 408Q244 408 188 353V124Q215 102 240 93T287 83ZM73 -194V706H188V524L186 447Q215 471 249 487T322 503Q416 503 468 435T521 253Q521
127 457 58T311 -12Q276 -12 246 1T186 38L188 -40V-194H73Z" />
<glyph unicode="&#xff;" glyph-name="ydieresis" horiz-adv-x="495" d="M106 -202Q86 -202 71 -199T42 -192L63 -102Q70 -104 79 -106T98 -109Q137 -109 160 -86T196 -25L205 6L12 491H129L214 250Q224 218 235 182T257 112H261Q270 146 279 181T298 250L372 491H483L305
-22Q274 -105 230 -153T106 -202ZM358 578Q331 578 314 596T297 639Q297 664 314 682T358 700Q384 700 401 682T419 639Q419 614 402 596T358 578ZM152 578Q126 578 109 596T91 639Q91 664 108 682T152 700Q179 700 196 682T213 639Q213 614 196 596T152 578Z"
/>
<glyph unicode="&#x2013;" glyph-name="endash" horiz-adv-x="480" d="M42 214V290H438V214H42Z" />
<glyph unicode="&#x2014;" glyph-name="emdash" horiz-adv-x="800" d="M42 214V290H758V214H42Z" />
<glyph unicode="&#x2018;" glyph-name="quoteleft" horiz-adv-x="275" d="M134 382Q56 382 56 493Q56 624 180 689L208 638Q167 614 146 585T125 512Q129 513 134 513Q161 513 180 497T200 451Q200 420 181 401T134 382Z" />
<glyph unicode="&#x2019;" glyph-name="quoteright" horiz-adv-x="275" d="M95 391L67 442Q108 466 129 495T150 568Q146 567 141 567Q115 567 96 583T76 629Q76 660 94 679T141 698Q220 698 220 587Q220 456 95 391Z" />
<glyph unicode="&#x201a;" glyph-name="quotesinglbase" horiz-adv-x="275" d="M95 -157L67 -106Q108 -82 129 -53T150 20Q146 19 141 19Q115 19 96 35T76 81Q76 112 94 131T141 150Q220 150 220 39Q220 -92 95 -157Z" />
<glyph unicode="&#x201c;" glyph-name="quotedblleft" horiz-adv-x="482" d="M134 382Q56 382 56 493Q56 624 180 689L208 638Q167 614 146 585T125 512Q129 513 134 513Q161 513 180 497T200 451Q200 420 181 401T134 382ZM341 382Q263 382 263 493Q263 624 387
689L415 638Q374 614 353 585T332 512Q336 513 341 513Q368 513 387 497T407 451Q407 420 388 401T341 382Z" />
<glyph unicode="&#x201d;" glyph-name="quotedblright" horiz-adv-x="482" d="M95 391L67 442Q108 466 129 495T150 568Q146 567 141 567Q115 567 96 583T76 629Q76 660 94 679T141 698Q220 698 220 587Q220 456 95 391ZM302 391L274 442Q315 466 336 495T357
568Q353 567 348 567Q322 567 303 583T283 629Q283 660 301 679T348 698Q427 698 427 587Q427 456 302 391Z" />
<glyph unicode="&#x201e;" glyph-name="quotedblbase" horiz-adv-x="482" d="M95 -157L67 -106Q108 -82 129 -53T150 20Q146 19 141 19Q115 19 96 35T76 81Q76 112 94 131T141 150Q220 150 220 39Q220 -92 95 -157ZM302 -157L274 -106Q315 -82 336 -53T357 20Q353
19 348 19Q322 19 303 35T283 81Q283 112 301 131T348 150Q427 150 427 39Q427 -92 302 -157Z" />
<glyph unicode="&#x2022;" glyph-name="bullet" horiz-adv-x="325" d="M162 133Q112 133 76 169T40 263Q40 319 76 356T162 393Q213 393 249 356T285 263Q285 206 249 170T162 133Z" />
<glyph unicode="&#x2039;" glyph-name="guilsinglleft" horiz-adv-x="282" d="M182 61L47 210V294L182 443L228 406L113 252L228 97L182 61Z" />
<glyph unicode="&#x203a;" glyph-name="guilsinglright" horiz-adv-x="282" d="M99 61L54 97L168 252L54 406L99 443L235 294V210L99 61Z" />
</font>
</defs>
</svg>
