<?xml version="1.0" standalone="no"?>
<!DOCTYPE svg PUBLIC "-//W3C//DTD SVG 1.1//EN" "http://www.w3.org/Graphics/SVG/1.1/DTD/svg11.dtd">
<svg xmlns="http://www.w3.org/2000/svg">
<defs >
<font id="Amita" horiz-adv-x="568" ><font-face
    font-family="Amita"
    units-per-em="1000"
    panose-1="0 0 5 0 0 0 0 0 0 0"
    ascent="1292"
    descent="-650"
    alphabetic="0" />
<glyph unicode=" " glyph-name="space" horiz-adv-x="215" />
<glyph unicode="!" glyph-name="exclam" horiz-adv-x="243" d="M98 149L147 164L187 712L56 674L98 149ZM183 67T165 85T123 103Q98 103 80 85T62 42Q62 17 79 0T123 -17Q147 -17 165 0T183 42Q183 67 165 85Z" />
<glyph unicode="&quot;" glyph-name="quotedbl" horiz-adv-x="369" d="M96 449L139 467L170 712L62 669L96 449ZM234 449L276 467L307 712L200 669L234 449Z" />
<glyph unicode="#" glyph-name="numbersign" horiz-adv-x="609" d="M113 115L192 124L239 257H322L280 115L358 124L405 257H509L523 292H416L441 363H551L563 395H453L509 554L408 535L365 395H289L345 554L242 535L200 395H95L83 363H191L168 292H55L41 257H157L113
115ZM355 363L334 292H251L277 363H355Z" />
<glyph unicode="$" glyph-name="dollar" horiz-adv-x="553" d="M123 491T149 455T212 397T312 347Q372 320 406 300T465 248T489 169Q490 88 440 42T309 -11L325 -118L248 -146L263 -12Q202 -8 148 18T61 95L139 182Q173 102 222 69T317 35Q360 35 390 58T421
120Q421 155 400 181T346 226T259 270Q189 302 147 328T75 396T45 500Q45 558 72 606T148 685T259 725L243 836L321 864L304 728Q370 727 429 697T530 611L452 515Q427 585 378 631T260 677Q195 677 159 640T123 545Q123 491 149 455Z" />
<glyph unicode="%" glyph-name="percent" horiz-adv-x="1054" d="M313 317T350 344T407 416T426 511Q426 561 407 606T351 678T260 706Q207 706 170 679T114 606T95 511Q95 461 114 417T170 345T260 317Q313 317 350 344ZM277 678T303 648T343 571T357 477Q357
422 337 387T279 351Q246 351 220 381T180 459T165 554Q165 608 185 643T245 678Q277 678 303 648ZM708 697L299 50L352 15L755 663L708 697ZM847 -5T884 22T941 94T960 189Q960 239 941 283T885 355T794 383Q741 383 704 356T648 284T629 189Q629 139 648 95T704
23T794 -5Q847 -5 884 22ZM811 355T837 325T877 249T891 154Q891 99 872 64T813 29Q780 29 754 59T714 137T699 231Q699 285 719 320T779 355Q811 355 837 325Z" />
<glyph unicode="&amp;" glyph-name="ampersand" horiz-adv-x="629" d="M663 99Q634 42 595 14T510 -14Q478 -14 454 -4T407 31Q334 -21 238 -21Q183 -21 137 2T62 69T34 170Q34 238 74 290T187 375L174 395Q149 443 139 479T129 550Q129 597 154 632T218 685T301
704Q355 704 394 683T455 629T476 559Q476 515 441 476T341 422L331 442Q364 458 376 488T388 550Q388 599 362 632T292 665Q251 665 229 641T207 579Q207 527 235 472L428 151Q447 213 447 307L533 331Q533 184 466 90Q482 69 501 59T546 49Q574 50 601 65T646
110L663 99ZM337 25T378 66L351 107L207 341Q125 287 125 189Q125 129 148 92T204 40T266 25Q337 25 378 66Z" />
<glyph unicode="&apos;" glyph-name="quotesingle" horiz-adv-x="232" d="M96 449L139 467L170 712L62 669L96 449Z" />
<glyph unicode="(" glyph-name="parenleft" horiz-adv-x="323" d="M262 -78T220 -7T155 145T133 304Q133 381 155 463T219 618T320 737L309 757Q229 715 166 643T67 483T31 304Q31 214 67 126T166 -34T310 -147L320 -123Q262 -78 220 -7Z" />
<glyph unicode=")" glyph-name="parenright" horiz-adv-x="322" d="M95 715T157 644T256 485T292 306Q292 216 256 128T158 -33T16 -147L3 -127Q62 -81 104 -9T168 145T190 306Q190 383 168 464T104 616T3 733L16 757Q95 715 157 644Z" />
<glyph unicode="*" glyph-name="asterisk" horiz-adv-x="398" d="M218 498L297 416L349 478L248 543L349 608L297 671L220 582L239 711H151L172 590L101 671L49 608L151 543L49 478L101 416L169 486L151 380H239L218 498Z" />
<glyph unicode="+" glyph-name="plus" horiz-adv-x="455" d="M381 335L411 414H268V559L187 527V414H75L42 335H187V189L268 221V335H381Z" />
<glyph unicode="," glyph-name="comma" horiz-adv-x="217" d="M134 103T152 85T170 42Q170 4 147 -28T85 -81L66 -65Q76 -57 84 -43T95 -16Q74 -11 61 5T48 42Q48 67 66 85T109 103Q134 103 152 85Z" />
<glyph unicode="-" glyph-name="hyphen" horiz-adv-x="472" d="M59 332H398L428 417H91L59 332Z" />
<glyph unicode="." glyph-name="period" horiz-adv-x="217" d="M170 17T152 0T109 -17Q84 -17 66 0T48 42Q48 67 66 85T109 103Q134 103 152 85T170 42Q170 17 152 0Z" />
<glyph unicode="/" glyph-name="slash" horiz-adv-x="577" d="M537 697L85 -15L40 15L498 723L537 697Z" />
<glyph unicode="0" glyph-name="zero" horiz-adv-x="685" d="M438 -9T506 42T609 178T644 356Q644 451 610 535T507 671T342 723Q246 723 179 671T77 535T43 356Q43 262 77 178T178 43T342 -9Q438 -9 506 42ZM380 675T438 617T528 470T560 292Q560 187 515 119T380
50Q309 50 252 108T163 256T131 436Q131 540 175 607T308 675Q380 675 438 617Z" />
<glyph unicode="1" glyph-name="one" horiz-adv-x="318" d="M13 590L30 559L135 620V-19L228 16V710L13 590Z" />
<glyph unicode="2" glyph-name="two" horiz-adv-x="560" d="M365 717T423 660T481 504Q481 416 435 341T326 213T177 98L181 94Q218 104 249 104Q281 104 329 93Q387 81 429 81Q482 81 523 144L539 133L457 -9L402 -2Q318 9 266 14T163 20Q129 20 98 12T52 -9L34
7Q58 33 109 78Q189 151 243 208T338 334T378 471Q378 517 357 555T298 614T215 636Q164 636 119 612T42 547L23 564Q64 626 132 671T267 717Q365 717 423 660Z" />
<glyph unicode="3" glyph-name="three" horiz-adv-x="525" d="M287 432T350 488T414 611Q414 665 378 695T286 725Q219 725 150 689T28 585L46 569Q76 602 128 626T224 651Q257 651 278 634T299 581Q299 457 72 353L83 327Q127 345 152 351T211 358Q285 358 333
317T382 208Q382 137 329 83T198 -4T46 -46L51 -71Q145 -71 247 -41T419 52T490 211Q490 266 463 308T388 373T284 396Q247 396 206 386L204 392Q287 432 350 488Z" />
<glyph unicode="4" glyph-name="four" horiz-adv-x="560" d="M441 713L351 679V290H132Q184 342 234 432T302 594L248 627Q214 501 155 393T5 189H351V-19L441 16V189H495L532 290H441V713Z" />
<glyph unicode="5" glyph-name="five" horiz-adv-x="514" d="M474 286T441 335T354 407T234 431Q190 431 158 424T95 404L144 603H439L474 711H129L37 349Q93 379 169 379Q222 379 267 362T341 310T370 225Q370 113 268 43T36 -57L46 -86Q129 -80 229 -45T402
57T474 214Q474 286 441 335Z" />
<glyph unicode="6" glyph-name="six" horiz-adv-x="624" d="M596 297T571 348T496 431T377 463Q262 463 177 403Q197 468 248 527T367 628T505 688L497 715Q387 699 283 635T112 472T46 264Q46 184 79 118T174 14T315 -25Q391 -25 456 11T558 107T596 237Q596
297 571 348ZM188 378T226 393T306 409Q370 409 412 380T474 303T494 202Q494 125 454 76T335 27Q240 27 193 91T146 249Q146 286 159 349Q188 378 226 393Z" />
<glyph unicode="7" glyph-name="seven" horiz-adv-x="501" d="M521 702Q440 620 376 515T276 298T239 90Q239 46 244 35L114 -19Q114 135 194 302T388 602H188Q132 602 98 586T33 531L5 551L99 699H435Q456 699 474 705T505 720L521 702Z" />
<glyph unicode="8" glyph-name="eight" horiz-adv-x="589" d="M547 242T517 279T433 347L336 401Q499 471 499 575Q499 646 453 684T326 722Q266 722 213 702T127 639T94 537Q94 488 123 448T201 380Q133 346 87 292T41 172Q41 110 74 64T164 -7T286 -32Q411 -32
479 26T547 186Q547 242 517 279ZM416 514T381 478T295 418Q244 445 208 487T171 576Q171 623 206 651T294 679Q350 679 383 645T416 560Q416 514 381 478ZM429 261T450 226T472 148Q472 114 454 85T399 39T313 21Q238 21 193 67T147 191Q147 238 173 283T244 358L377
288Q429 261 450 226Z" />
<glyph unicode="9" glyph-name="nine" horiz-adv-x="624" d="M31 394T55 342T129 259T248 227Q364 227 449 289Q427 223 376 164T256 63T118 4L128 -25Q238 -9 343 56T514 219T581 427Q581 507 547 573T452 677T309 715Q233 715 169 679T68 584T31 455Q31 394
55 342ZM437 313T399 298T318 282Q254 282 212 312T151 389T131 489Q131 565 171 613T290 662Q384 662 430 599T477 441Q477 394 466 342Q437 313 399 298Z" />
<glyph unicode=":" glyph-name="colon" horiz-adv-x="222" d="M171 364T153 382T110 401Q86 401 69 383T51 338Q51 315 68 297T110 279Q135 279 153 297T171 338Q171 364 153 382ZM171 67T153 85T110 103Q86 103 69 85T51 42Q51 17 68 0T110 -17Q135 -17 153 0T171
42Q171 67 153 85Z" />
<glyph unicode=";" glyph-name="semicolon" horiz-adv-x="222" d="M135 401T153 383T171 338Q171 315 153 297T110 279Q86 279 69 297T51 338Q51 364 68 382T110 401Q135 401 153 383ZM135 103T153 85T171 42Q171 4 148 -28T87 -81L67 -65Q78 -57 86 -44T96 -16Q76
-11 64 5T51 42Q51 67 68 85T110 103Q135 103 153 85Z" />
<glyph unicode="&lt;" glyph-name="less" horiz-adv-x="374" d="M311 528L294 544L54 349L294 171L311 192L179 349L311 528Z" />
<glyph unicode="=" glyph-name="equal" horiz-adv-x="509" d="M69 416H409L439 496H103L69 416ZM69 253H409L439 334H103L69 253Z" />
<glyph unicode="&gt;" glyph-name="greater" horiz-adv-x="374" d="M62 528L194 349L62 192L80 171L319 349L80 544L62 528Z" />
<glyph unicode="?" glyph-name="question" horiz-adv-x="505" d="M465 583T438 627T364 696T257 720Q201 720 151 695T71 625T40 529Q40 498 52 467T89 415L161 477Q141 496 129 521T116 573Q116 615 148 644T221 673Q283 673 323 630T364 520Q364 471 344 435T281
350Q251 315 233 290T202 230T189 154L235 164Q235 205 260 238T339 320Q381 358 405 385T447 447T465 525Q465 583 438 627ZM272 67T254 85T211 103Q186 103 169 85T152 42Q152 17 169 0T211 -17Q237 -17 254 0T272 42Q272 67 254 85Z" />
<glyph unicode="@" glyph-name="at" horiz-adv-x="622" d="M428 447T482 418T563 340T589 233Q589 184 572 139T526 67T462 39Q431 39 418 56T405 109H401Q388 77 365 56T310 35Q262 35 235 71T208 163Q208 211 229 252T288 319T375 344Q408 344 436 332T479 292L414
268Q404 285 390 295T360 306Q324 306 303 272T281 187Q281 141 294 111T336 81Q373 81 387 120T401 206V233L479 259V102Q479 94 483 89T493 83Q509 83 525 103T551 157T562 228Q562 280 541 324T472 396T350 424Q279 424 227 386T147 288T120 163Q120 108 140
62T200 -12T297 -40Q339 -40 385 -22L393 -41Q366 -55 329 -62T258 -70Q189 -70 139 -40T63 42T37 156Q37 228 72 295T178 404T348 447Q428 447 482 418Z" />
<glyph unicode="A" glyph-name="A" horiz-adv-x="689" d="M524 683Q413 668 324 607T185 452T134 249Q134 158 169 105T261 52Q317 52 368 129T451 332T483 594L577 631V107Q577 79 589 62T622 45Q638 45 655 55T681 81L695 68Q681 37 652 16T586 -5Q540 -5 512
27T483 118V309H478Q406 -11 234 -11Q145 -11 91 51T37 223Q37 348 103 458T281 637T524 712V683Z" />
<glyph unicode="B" glyph-name="B" horiz-adv-x="646" d="M371 389T408 389Q493 389 552 348T612 225Q612 132 543 66T373 -35T182 -71L176 -47Q305 -20 405 45T505 218Q505 257 481 288T420 336T341 353Q271 353 204 328L196 355Q283 392 351 452T419 585Q419
623 396 646T331 669Q272 669 236 626T185 523T170 409V26L77 -8V354Q77 461 119 544T238 673T411 720Q459 720 492 695T525 624Q525 558 459 492T312 382L314 378Q371 389 408 389Z" />
<glyph unicode="C" glyph-name="C" horiz-adv-x="614" d="M507 730T546 694T585 600Q585 554 561 505T496 419T412 369L402 387Q445 406 471 448T498 537Q498 597 462 633T366 670Q306 670 253 627T168 513T136 360Q136 272 163 205T239 102T353 65Q401 65 447
85T531 145L553 123Q447 -11 302 -11Q221 -11 162 29T72 137T40 290Q40 413 94 513T242 672T443 730Q507 730 546 694Z" />
<glyph unicode="D" glyph-name="D" horiz-adv-x="675" d="M509 713T572 646T635 463Q635 336 556 230T351 59T94 -13V541L187 575V41Q286 67 363 125T483 267T527 446Q527 501 508 548T449 625T346 655Q267 655 190 624T50 541L30 562Q94 625 198 669T389 713Q509
713 572 646Z" />
<glyph unicode="E" glyph-name="E" horiz-adv-x="540" d="M435 717T488 656L427 606Q399 636 371 653T306 671Q273 671 242 657T192 618T172 560Q172 528 192 501T243 459T309 443Q322 443 334 444T355 450L364 422Q277 396 208 340T139 203Q139 143 174 105T270
66Q320 66 368 85T454 136T511 200L534 180Q485 98 403 44T226 -11Q170 -11 126 11T56 74T30 168Q30 240 85 298T219 392Q169 404 139 439T109 522Q109 585 148 629T246 695T361 717Q435 717 488 656Z" />
<glyph unicode="F" glyph-name="F" horiz-adv-x="590" d="M291 587T282 565T273 513V368H353Q406 368 437 379T496 411L511 396Q453 310 332 310H273V115Q273 39 249 -6T172 -92L151 -71Q166 -55 173 -28T180 26V310H78L123 368H180V455Q180 498 205 538T266 612L128
613Q90 613 62 600T8 557L-9 572Q40 633 95 666T208 699H379Q451 699 513 706T605 739L615 728Q583 680 527 646T421 612H312Q291 587 282 565Z" />
<glyph unicode="G" glyph-name="G" horiz-adv-x="660" d="M496 726T534 700T572 632Q572 591 540 550T456 481T350 449L340 468Q393 481 430 519T467 599Q467 632 444 651T383 671Q315 671 261 627T177 504T146 328Q146 208 186 140T306 72Q352 72 394 105T464
190T492 299L587 332V-71L499 -107V199H493Q478 136 444 89T363 17T266 -8Q198 -8 147 24T69 117T41 257Q41 388 93 495T235 664T436 726Q496 726 534 700Z" />
<glyph unicode="H" glyph-name="H" horiz-adv-x="658" d="M475 694V336H194V730L100 694V336H48L19 277H100V-14L194 20V277H475V-14L568 20V730L475 694Z" />
<glyph unicode="I" glyph-name="I" horiz-adv-x="290" d="M184 19L91 -14V695L184 730V19Z" />
<glyph unicode="J" glyph-name="J" horiz-adv-x="410" d="M307 629Q276 592 263 563T250 500V111Q250 44 224 -12T141 -102T-1 -136Q-41 -136 -83 -122T-162 -83L-78 -15Q-56 -47 -23 -70T55 -93Q110 -93 133 -58T157 25V442Q157 489 185 535T259 612L144 613Q105
613 78 600T23 556L5 572Q110 699 229 699H372L307 629Z" />
<glyph unicode="K" glyph-name="K" horiz-adv-x="624" d="M621 120Q592 60 551 26T467 -8Q431 -8 408 5T367 44T314 130L224 282L183 233V20L90 -14V694L183 730V306L526 712L587 707L285 354L427 116Q447 80 463 68T504 56Q529 56 556 77T604 132L621 120Z" />
<glyph unicode="L" glyph-name="L" horiz-adv-x="561" d="M448 730T481 704T515 633Q515 593 484 553T402 485T297 450L288 469Q342 486 378 525T414 607Q414 639 394 656T339 674Q257 674 217 618T177 483V173Q177 142 168 120T138 73L143 70Q167 88 189 97T240
106Q280 106 324 99Q330 98 355 95T409 92Q443 92 473 110T524 156L542 144L468 -11Q421 -6 360 8Q299 20 261 25T177 31Q148 31 115 21T57 -8L34 11Q84 50 84 119V401Q84 493 123 568T232 686T394 730Q448 730 481 704Z" />
<glyph unicode="M" glyph-name="M" horiz-adv-x="886" d="M187 730V469Q208 552 245 610T325 698T405 728Q443 728 462 702T481 633V470Q502 553 539 611T618 698T699 728Q737 728 756 703T775 633V107Q775 79 787 62T820 45Q836 45 852 55T880 81L894 68Q880
37 852 16T784 -5Q739 -5 711 26T683 118V607Q683 630 674 642T650 655Q619 655 579 607T509 475T480 288V19L388 -14V607Q388 630 380 642T358 655Q327 655 286 607T216 475T187 288V19L94 -14V694L187 730Z" />
<glyph unicode="N" glyph-name="N" horiz-adv-x="628" d="M184 731V537Q206 621 257 675T394 730Q454 730 485 689T516 587V107Q516 79 527 62T560 45Q577 45 594 55T620 81L634 68Q621 38 592 17T525 -5Q479 -5 451 26T423 118V547Q423 603 411 640T353 677Q296
677 258 621T202 488T184 357V24L92 -13V696L184 731Z" />
<glyph unicode="O" glyph-name="O" horiz-adv-x="728" d="M463 723T535 670T647 531T687 351Q687 258 652 174T544 36T368 -17Q272 -17 198 36T85 174T45 351Q45 446 80 531T189 669T368 723Q463 723 535 670ZM258 668T216 631T155 537T136 424Q136 337 164 250T254
103T409 43Q473 43 514 81T575 175T594 288Q594 373 566 461T477 608T322 668Q258 668 216 631Z" />
<glyph unicode="P" glyph-name="P" horiz-adv-x="620" d="M483 715T543 664T604 509Q604 427 549 357T409 244T237 202Q228 202 226 204L231 231Q298 238 362 273T466 364T507 490Q507 565 462 610T327 655Q258 655 182 623T48 538L29 559Q102 627 199 671T388
715Q483 715 543 664ZM185 22L93 -13V534L185 570V22Z" />
<glyph unicode="Q" glyph-name="Q" horiz-adv-x="728" d="M628 -40T650 -24L670 -44Q627 -101 568 -101Q528 -101 496 -81T426 -13Q402 -17 368 -17Q272 -17 198 36T85 174T45 351Q45 446 80 531T189 669T368 723Q463 723 535 670T647 531T687 351Q687 246 643
154T515 17Q540 -13 559 -26T598 -40Q628 -40 650 -24ZM136 358T153 289T203 165Q244 213 297 213Q342 213 379 186T460 92L483 59Q539 87 566 152T594 288Q594 373 566 461T477 608T322 668Q258 668 216 631T155 537T136 424Q136 358 153 289ZM286 53T388 43Q346
103 319 127T266 152Q241 152 220 140Q286 53 388 43Z" />
<glyph unicode="R" glyph-name="R" horiz-adv-x="648" d="M483 715T543 664T604 509Q604 442 568 383T471 280T341 217L450 84Q479 57 508 57Q532 57 557 75T608 119L623 106Q619 101 593 66T532 7T464 -16Q436 -16 411 1T355 57L235 204L241 231Q308 238 369
272T469 364T507 490Q507 565 462 610T327 655Q258 655 182 623T48 538L29 559Q102 627 199 671T388 715Q483 715 543 664ZM182 22L90 -15V535L182 570V22Z" />
<glyph unicode="S" glyph-name="S" horiz-adv-x="553" d="M369 728T429 698T530 611L452 515Q427 585 378 631T260 677Q195 677 159 640T123 545Q123 491 149 455T212 397T312 347Q372 320 406 300T465 248T489 169Q490 82 433 35T285 -12Q218 -12 158 14T61 95L139
182Q173 102 222 69T317 35Q360 35 390 58T421 120Q421 155 400 181T346 226T259 270Q189 302 147 328T75 396T45 500Q45 564 78 616T171 698T302 728Q369 728 429 698Z" />
<glyph unicode="T" glyph-name="T" horiz-adv-x="500" d="M533 728Q494 677 436 645T316 612Q296 587 287 565T278 513V187Q278 109 254 65T177 -21L156 -1Q171 16 178 43T186 97V455Q186 500 210 541T271 612L133 613Q95 613 68 600T15 557L-4 572Q46 633 101
666T215 699H298Q370 699 432 706T522 739L533 728Z" />
<glyph unicode="U" glyph-name="U" horiz-adv-x="632" d="M506 107Q506 79 517 62T550 45Q566 45 583 55T610 81L623 68Q611 38 582 17T513 -5Q469 -5 441 26T413 117V187Q391 105 339 48T205 -9Q145 -9 114 31T83 134V680L176 713V174Q176 134 179 110T197 65T247
45Q304 45 341 102T395 236T413 368V679L506 713V107Z" />
<glyph unicode="V" glyph-name="V" horiz-adv-x="578" d="M517 750T540 707T563 619Q563 549 517 451L294 -32L1 665L92 712L323 141L443 392Q464 445 474 474T484 531Q484 621 394 689L476 777Q517 750 540 707Z" />
<glyph unicode="W" glyph-name="W" horiz-adv-x="789" d="M722 749T743 706T764 619Q764 581 753 538T723 453L515 -24L386 323L258 -24L-1 677L94 712L285 180L363 387L272 631L369 667L548 161L650 392Q667 434 677 468T687 530Q687 620 602 689L684 777Q722
749 743 706Z" />
<glyph unicode="X" glyph-name="X" horiz-adv-x="573" d="M474 -21L272 284Q233 187 200 125T120 21T11 -21L40 100Q42 99 45 99T49 98Q112 98 156 155T248 321L15 675L105 710L291 427Q328 517 361 577T440 675T546 714L517 593L507 594Q446 594 403 541T316
389L564 13L474 -21Z" />
<glyph unicode="Y" glyph-name="Y" horiz-adv-x="628" d="M416 101T366 51T236 0Q177 0 146 41T115 145V592Q115 618 104 635T69 652Q54 652 37 642T10 619L-4 631Q9 660 38 682T97 704Q149 704 178 667T208 582V184Q208 129 221 92T278 54Q335 54 372 110T426
242T443 373V679L535 713V26Q535 -41 507 -98T427 -189T305 -223Q217 -223 154 -168L235 -100Q250 -129 280 -153T344 -178Q379 -178 401 -159T433 -113T443 -63V180H440Q416 101 366 51Z" />
<glyph unicode="Z" glyph-name="Z" horiz-adv-x="578" d="M551 707L123 73L126 70Q177 106 240 106Q274 106 301 103T335 99Q381 92 422 92Q455 92 485 110T539 156L555 144L482 -11Q450 -8 415 -1T369 8Q306 20 268 25T184 31Q151 31 112 21T44 -8L20 14L416
603H275Q200 603 162 599T99 579T47 531L26 547L116 699H409Q457 699 484 704T532 726L551 707Z" />
<glyph unicode="[" glyph-name="bracketleft" horiz-adv-x="288" d="M170 -107V714H269V747H75V-141H269V-107H170Z" />
<glyph unicode="\" glyph-name="backslash" horiz-adv-x="577" d="M535 15L491 -15L40 697L78 722L535 15Z" />
<glyph unicode="]" glyph-name="bracketright" horiz-adv-x="288" d="M215 -141H20V-107H120V714H20V747H215V-141Z" />
<glyph unicode="^" glyph-name="asciicircum" horiz-adv-x="301" d="M248 399L121 530L27 392L0 414L140 620L301 456L248 399Z" />
<glyph unicode="_" glyph-name="underscore" horiz-adv-x="554" d="M104 -153H443L474 -74H136L104 -153Z" />
<glyph unicode="`" glyph-name="grave" horiz-adv-x="182" d="M171 469L48 609L-12 536L156 448L171 469Z" />
<glyph unicode="a" glyph-name="a" horiz-adv-x="575" d="M362 500T405 479T469 415L397 376Q381 399 353 417T293 436Q242 436 204 410T146 338T126 238Q126 159 153 110T238 60Q320 60 351 126T382 270V315L470 352V89Q470 76 477 64T498 52Q527 52 551 92L566
76Q554 42 524 19T464 -5Q421 -5 401 27T380 112H378Q353 59 311 24T221 -12Q136 -12 93 46T49 203Q49 281 84 349T179 459T313 500Q362 500 405 479Z" />
<glyph unicode="b" glyph-name="b" horiz-adv-x="544" d="M498 203T459 138T363 31T254 -12Q172 -12 126 43T79 185V886L170 924V163Q170 115 199 79T281 43Q325 43 357 68T406 129T423 199Q423 249 397 302T330 389T243 423L332 497Q375 483 413 444T475 355T498
264Q498 203 459 138Z" />
<glyph unicode="c" glyph-name="c" horiz-adv-x="520" d="M367 506T402 483T457 410L375 368Q365 403 336 423T273 443Q225 443 188 418T131 354T111 275Q111 205 134 155T197 78T287 51Q347 51 392 80T477 156L494 140Q445 65 391 27T257 -12Q195 -12 146 17T69
99T41 223Q41 301 73 365T169 468T326 506Q367 506 402 483Z" />
<glyph unicode="d" glyph-name="d" horiz-adv-x="585" d="M476 89Q476 75 482 64T503 52Q517 52 531 64T552 92L571 76Q555 42 526 19T468 -5Q422 -5 401 21T381 111H377Q316 -12 228 -12Q141 -12 95 48T48 200Q48 272 79 343T167 460T300 506Q347 506 382 482V886L476
924V89ZM238 447T202 412T148 328T131 235Q131 201 143 160T182 90T251 60Q327 60 354 125T382 270V407Q365 425 343 436T294 447Q238 447 202 412Z" />
<glyph unicode="e" glyph-name="e" horiz-adv-x="522" d="M384 509T420 480T456 394Q456 348 407 292T291 188T177 122Q202 82 234 67T309 51Q357 51 404 75T483 139L495 118Q446 55 391 22T256 -12Q195 -12 147 18T72 98T45 208Q45 282 85 352T191 465T330 509Q384
509 420 480ZM234 446T200 418T146 346T126 255Q126 193 155 149Q197 168 246 206T329 290T363 372Q363 446 278 446Q234 446 200 418Z" />
<glyph unicode="f" glyph-name="f" horiz-adv-x="368" d="M356 932T395 910T461 853L394 816Q378 849 350 872T283 895Q230 895 208 860T185 777V500H396L365 436H185V-134L93 -178V436H28L54 500H93V635Q93 713 116 780T191 889T327 932Q356 932 395 910Z" />
<glyph unicode="g" glyph-name="g" horiz-adv-x="545" d="M358 513T402 487T469 415L397 376Q382 411 354 431T292 451Q242 451 205 417T147 333T126 238Q126 168 155 114T250 60Q324 60 352 126T380 270V315L470 352V46Q470 -29 435 -109T339 -242T200 -295Q145
-295 113 -257L198 -185Q205 -203 221 -214T263 -225Q338 -225 360 -170T383 -30L380 52Q380 89 387 112H380Q343 54 309 21T226 -12Q140 -12 94 44T48 188Q48 273 82 347T177 467T310 513Q358 513 402 487Z" />
<glyph unicode="h" glyph-name="h" horiz-adv-x="565" d="M177 213H181Q191 268 216 336T285 457T386 509Q417 509 431 487T448 436T451 362V84Q451 72 458 61T482 50Q508 50 535 89L547 74Q533 41 503 18T441 -5Q363 -5 363 96V361Q363 374 358 385T339 396Q288
396 251 317T194 142T174 12L85 -14V886L177 924V213Z" />
<glyph unicode="i" glyph-name="i" horiz-adv-x="296" d="M149 601L116 589L75 797L183 834L149 601ZM182 84Q182 69 189 60T211 50Q222 50 235 60T263 89L279 74Q256 31 224 13T164 -5Q128 -5 109 18T89 96V460L182 496V84Z" />
<glyph unicode="j" glyph-name="j" horiz-adv-x="275" d="M123 589L158 601L195 834L84 797L123 589ZM99 459V-12Q99 -130 67 -171T-16 -213Q-75 -213 -114 -178L-186 -267Q-146 -294 -101 -294Q-29 -294 38 -246T146 -117T188 54V496L99 459Z" />
<glyph unicode="k" glyph-name="k" horiz-adv-x="554" d="M176 194H183Q212 308 267 408T402 509Q434 509 453 484T472 423Q472 362 420 306T301 210Q306 203 335 160T400 82T460 48Q496 48 525 82L541 65Q519 31 481 11T405 -10Q362 -10 328 22T253 110Q221 154
205 167L196 160Q189 137 184 92T178 12L86 -14V886L176 924V194ZM310 401T280 351T218 224Q202 187 200 185Q267 213 321 262T375 361Q375 374 366 387T340 401Q310 401 280 351Z" />
<glyph unicode="l" glyph-name="l" horiz-adv-x="299" d="M182 84Q182 72 189 61T213 50Q227 50 242 62T266 89L283 74Q266 41 236 18T176 -5Q92 -5 92 96V886L182 924V84Z" />
<glyph unicode="m" glyph-name="m" horiz-adv-x="779" d="M622 509T638 490T655 424V84Q655 69 662 60T681 50Q693 50 707 60T734 89L750 74Q729 29 700 12T689 -6T646 -5Q563 -5 563 96V372Q563 382 558 389T545 396Q523 396 497 348T453 213T435 12L344 -14V372Q344
382 339 389T327 396Q307 396 281 348T235 212T215 12L129 -14V414Q129 431 121 441T99 451Q74 451 48 408L32 424Q53 469 82 488T117 508T137 509Q185 509 202 489T219 434V267H222Q247 376 289 442T374 509Q405 509 420 490T436 424V267H442Q467 376 508 442T592
509Q622 509 638 490Z" />
<glyph unicode="n" glyph-name="n" horiz-adv-x="608" d="M473 509T485 480T497 398V367V84Q497 73 504 62T524 50Q541 50 553 61T577 89L592 74Q577 42 547 19T490 -5Q450 -5 428 20T406 96V361Q406 376 403 386T388 396Q347 396 304 317T231 141T200 12L113
-14V414Q113 428 106 439T84 451Q60 451 32 408L17 424Q30 460 60 484T120 509Q162 509 182 489T203 434V171H207Q234 260 259 326T329 450T433 509Q473 509 485 480Z" />
<glyph unicode="o" glyph-name="o" horiz-adv-x="550" d="M296 488Q221 440 178 381T135 242Q135 197 154 152T211 76T302 46Q345 46 378 66T430 120T449 195Q449 242 421 291T346 374T252 412Q272 432 300 454T357 497Q426 474 466 410T506 266Q506 196 478 132T394
27T264 -14Q204 -14 154 15T74 96T45 209Q45 318 109 398T278 509L296 488Z" />
<glyph unicode="p" glyph-name="p" horiz-adv-x="584" d="M395 505T440 475T511 392T537 277Q537 189 513 125T442 25T334 -10Q319 -10 305 -6T268 10L294 67Q319 51 366 51Q408 51 434 106T461 249Q461 299 441 340T386 405T308 429Q256 429 228 373T200 214V-289L113
-326V411Q113 429 105 440T84 451Q74 451 62 441T32 409L17 424Q29 458 59 481T119 505Q164 505 184 479T204 393H208Q231 443 267 474T342 505Q395 505 440 475Z" />
<glyph unicode="q" glyph-name="q" horiz-adv-x="545" d="M360 510T403 484T469 415L396 376Q371 411 343 431T289 451Q245 451 208 422T148 344T126 238Q126 188 142 148T186 84T250 60Q288 60 317 86T363 160T380 269V315L468 352V-202Q468 -217 476 -226T497
-235Q512 -235 527 -225T550 -199L564 -214Q552 -248 522 -271T461 -295Q420 -295 400 -271T380 -195V21Q380 65 380 86T384 116H382Q363 57 322 23T226 -12Q144 -12 96 42T48 188Q48 278 82 351T177 467T310 510Q360 510 403 484Z" />
<glyph unicode="r" glyph-name="r" horiz-adv-x="440" d="M231 331T199 256T166 118Q166 64 189 28T265 -9Q307 -9 345 13T411 70L400 85Q369 64 339 64Q292 64 268 97T244 177Q244 253 283 321T382 453L366 467Q296 423 238 423Q204 423 176 453T133 521L52 430Q59
410 90 384L23 244L60 227L125 370Q142 363 153 361T183 359Q232 359 273 381L276 378Q231 331 199 256Z" />
<glyph unicode="s" glyph-name="s" horiz-adv-x="384" d="M229 541T244 529T260 492Q260 465 250 444T227 408T211 387Q223 367 256 340Q283 317 299 299T326 251T338 176Q338 124 315 81T250 13T156 -12Q124 -12 86 1T30 40L97 129Q121 98 147 76T205 54Q248
54 278 82T309 151Q309 183 283 214T208 289Q202 294 185 309T160 335L90 232L58 253L138 364Q124 403 124 441Q124 484 143 512T195 541Q229 541 244 529ZM182 502T179 495T175 474Q175 456 180 443T187 425Q198 432 207 450T217 482Q217 491 212 496T195 502Q182
502 179 495Z" />
<glyph unicode="t" glyph-name="t" horiz-adv-x="346" d="M193 500H332L302 436H193V84Q193 69 202 60T226 50Q247 50 284 89L298 74Q279 36 253 18T203 -5T179 -6Q180 -6 182 -6T188 -5Q100 -5 100 96V436H25L56 500H100V730L193 766V500Z" />
<glyph unicode="u" glyph-name="u" horiz-adv-x="593" d="M484 87Q484 72 491 63T513 53Q534 53 564 92L579 77Q558 32 529 14T499 -5T473 -5Q441 -5 425 13T401 77T394 216Q394 271 395 304L387 324H384Q358 201 312 95T179 -12Q147 -12 133 4T115 47T112 132V414Q112
431 105 441T84 451Q60 451 30 411L18 427Q34 465 58 483T104 506T126 508Q125 508 123 508T117 507Q203 507 203 408V120Q203 98 208 89T220 79Q263 79 300 163T360 348T384 469L484 514V87Z" />
<glyph unicode="v" glyph-name="v" horiz-adv-x="515" d="M457 521T479 491T501 422Q501 401 496 376T481 333L307 -11Q305 -13 299 -15T287 -17Q279 -17 272 -14T263 -8L90 370Q65 416 38 416Q28 416 20 410T8 401L-1 412Q11 450 43 475T109 500Q128 500 142
475T166 427T178 396L318 85L407 266Q408 269 415 288T423 325Q423 399 343 436L417 534Q457 521 479 491Z" />
<glyph unicode="w" glyph-name="w" horiz-adv-x="715" d="M684 504T684 419Q684 399 680 375T668 332L535 17Q530 -1 507 -1Q481 -1 475 18L393 303L286 20Q280 7 275 2T257 -4Q245 -4 239 1T229 15L117 366Q109 394 98 405T67 416Q44 416 24 396L13 412Q35 452
65 476T134 500Q153 500 165 487T184 458T204 401L289 136L376 365L344 475L437 510L543 134L602 277Q610 293 610 325Q610 362 592 390T540 436L613 537Q684 504 684 419Z" />
<glyph unicode="x" glyph-name="x" horiz-adv-x="563" d="M527 65Q508 36 483 15T440 -7Q406 -7 365 44T267 190Q250 128 232 87T180 20T96 -7Q54 -7 25 23L76 132Q82 125 98 117T127 109Q171 109 196 141T241 232Q182 331 143 382T71 433Q52 433 38 422L26 439Q46
468 70 488T116 509Q147 509 184 464T272 337Q298 425 335 473T444 521Q491 521 517 489L471 384Q461 392 445 398T413 405Q369 405 343 377T297 294Q344 216 371 174T428 102T483 71Q493 71 514 82L527 65Z" />
<glyph unicode="y" glyph-name="y" horiz-adv-x="566" d="M484 54Q484 -40 447 -122T347 -253T215 -302Q188 -302 164 -294T114 -267L184 -178Q205 -199 233 -212T287 -225Q318 -225 343 -188T382 -86T397 61Q397 247 398 300V360H392Q310 -12 179 -12Q150 -12
136 -1T117 41T112 132V414Q112 430 104 441T84 452Q59 452 31 411L15 427Q37 474 58 491T121 508Q161 508 181 483T201 408V135Q201 98 222 98Q247 98 286 166T355 323T385 469L484 514V54Z" />
<glyph unicode="z" glyph-name="z" horiz-adv-x="497" d="M166 90T197 95T256 100Q271 100 307 98Q336 95 360 95Q424 95 472 113L393 3Q379 -7 360 -7Q340 -7 314 -2T279 4Q219 16 194 16Q126 16 44 -9L31 8L340 409L335 417Q301 399 226 399Q205 399 167 401Q134
404 96 404Q87 404 63 400T31 394L112 500Q145 501 195 495Q230 490 260 490Q379 490 446 512L453 494L137 84L142 79Q166 90 197 95Z" />
<glyph unicode="{" glyph-name="braceleft" horiz-adv-x="314" d="M284 752T300 746L293 718Q283 722 274 722Q238 722 227 699T215 634L216 537Q216 444 186 382T75 309V304Q156 297 185 232T215 72V-20Q215 -51 217 -69T233 -99T274 -111Q288 -111 293 -110L300
-137Q284 -143 256 -143Q172 -143 145 -85T117 68L118 138Q118 203 96 242T7 288V323Q56 329 79 350T110 403T117 484V539Q117 601 126 646T165 721T256 752Q284 752 300 746Z" />
<glyph unicode="|" glyph-name="bar" horiz-adv-x="250" d="M79 715V-138L171 -105V742L79 715Z" />
<glyph unicode="}" glyph-name="braceright" horiz-adv-x="314" d="M118 752T148 722T188 646T197 539V484Q197 435 204 404T234 351T307 323V288Q240 281 218 242T196 138L197 68Q197 -26 170 -84T58 -143Q30 -143 14 -137L21 -110Q26 -111 40 -111Q68 -111 81
-99T96 -69T99 -20V72Q99 167 128 232T239 304V309Q158 319 128 381T98 537L99 634Q99 676 88 699T40 722Q31 722 21 718L14 746Q30 752 58 752Q118 752 148 722Z" />
<glyph unicode="~" glyph-name="asciitilde" horiz-adv-x="353" d="M90 431T70 412T50 360Q50 327 75 303L96 313Q86 328 86 341Q86 356 93 363T112 370Q120 370 129 364T153 345Q175 326 192 316T229 306Q266 306 286 326T306 377Q306 411 281 436L260 426Q271
406 271 397Q271 370 243 370Q234 370 225 376T202 394Q181 412 164 421T126 431Q90 431 70 412Z" />
<glyph unicode="&#xa0;" glyph-name="uni00A0" horiz-adv-x="215" />
<glyph unicode="&#xa1;" glyph-name="exclamdown" horiz-adv-x="243" d="M60 424T78 406T120 388Q145 388 163 406T182 449Q182 474 164 491T120 508Q96 508 78 491T60 449Q60 424 78 406ZM145 342L97 326L56 -221L187 -184L145 342Z" />
<glyph unicode="&#xa2;" glyph-name="cent" horiz-adv-x="400" d="M494 296Q445 221 391 183T257 144Q244 144 238 145L254 34L174 5L190 154Q122 175 82 234T41 379Q41 460 74 525T173 626L167 673L246 700L241 652Q277 662 326 662Q367 662 402 639T457 566L375
523Q365 559 336 579T273 599Q255 599 235 594L229 535L189 518L181 569Q149 545 130 507T111 431Q111 361 134 310T197 233T287 206Q347 206 391 235T477 311L494 296Z" />
<glyph unicode="&#xa3;" glyph-name="sterling" horiz-adv-x="561" d="M542 144L468 -11Q421 -6 360 8Q299 20 261 25T177 31Q148 31 115 21T57 -8L34 11Q84 50 84 119V280H3L28 331H84V401Q84 493 123 568T232 686T394 730Q448 730 481 704T515 633Q515 593 484
553T402 485T297 450L288 469Q342 486 378 525T414 607Q414 639 394 656T339 674Q257 674 217 618T177 483V331H367L342 280H177V173Q177 142 168 120T138 73L143 70Q167 88 189 97T240 106Q280 106 324 99Q330 98 355 95T409 92Q443 92 473 110T524 156L542 144Z"
/>
<glyph unicode="&#xa4;" glyph-name="currency" horiz-adv-x="533" d="M563 359T540 299T472 200L499 180L450 120L416 162Q373 142 321 142Q275 142 234 160T162 210L93 119L35 168L134 248Q102 301 102 365Q102 416 117 461L33 524L82 583L139 512Q170 567 220
606T335 664L353 644Q279 596 236 537T192 398Q192 353 211 308T268 232T359 202Q367 202 383 204L371 219L395 258L439 224Q470 243 488 277T506 351Q506 386 489 423T443 492L399 456L360 481L398 532Q355 564 309 568Q329 587 357 609T414 652Q483 629 523 565T563
422Q563 359 540 299Z" />
<glyph unicode="&#xa5;" glyph-name="yen" horiz-adv-x="545" d="M319 270H508L483 217H318V22L225 -16V217H17L41 270H210L159 367H15L40 418H132L2 665L90 700L291 302L345 393Q373 439 385 472T398 535Q398 618 319 681L389 760Q426 736 449 696T472 615Q472
564 458 520T409 421L407 418H510L484 367H377L319 270Z" />
<glyph unicode="&#xa6;" glyph-name="brokenbar" horiz-adv-x="240" d="M74 714V327L166 360V744L74 714ZM74 246V-138L166 -105V278L74 246Z" />
<glyph unicode="&#xa7;" glyph-name="section" horiz-adv-x="487" d="M408 298T385 266T324 216Q364 195 386 170T408 104Q408 36 360 -1T242 -39Q193 -39 150 -19T81 41L141 108Q163 48 198 21T273 -6Q304 -6 325 12T346 59Q346 86 330 106T291 140T225 174Q175
197 144 217T90 268T68 346Q68 381 84 412T128 467Q68 513 68 583Q68 633 94 672T166 734T268 756Q319 756 364 734T441 668L378 597Q360 648 324 681T239 715Q192 715 166 689T140 620Q140 582 158 556T203 514T275 478Q319 459 345 444T390 403T408 341Q408 298
385 266ZM312 238T329 255T346 300Q346 326 330 345T291 379T226 412Q179 434 163 444Q140 419 140 380Q140 340 160 314T207 272T285 234Q312 238 329 255Z" />
<glyph unicode="&#xa8;" glyph-name="dieresis" horiz-adv-x="296" d="M83 606T100 589T118 547Q118 522 101 506T59 489Q35 489 18 506T1 547Q1 570 18 588T59 606Q83 606 100 589ZM260 606T277 589T294 547Q294 522 278 506T236 489Q212 489 195 506T177 547Q177
570 194 588T236 606Q260 606 277 589Z" />
<glyph unicode="&#xa9;" glyph-name="copyright" horiz-adv-x="580" d="M353 575T405 545T489 461T520 346Q520 285 489 233T405 149T291 118Q229 118 176 149T92 232T61 346Q61 408 92 461T176 544T291 575Q353 575 405 545ZM234 553T187 525T112 450T84 346Q84
290 111 243T186 168T291 140Q346 140 393 167T469 242T497 346Q497 402 469 449T394 525T291 553Q234 553 187 525ZM354 498T370 485T386 446Q386 416 364 389T312 353L307 361Q323 368 333 386T344 422Q344 445 332 460T298 475Q272 475 253 456T225 408T215
353Q215 305 237 273T300 241Q336 241 365 275L373 266Q326 207 267 207Q223 207 195 242T167 325Q167 369 188 409T246 473T329 498Q354 498 370 485Z" />
<glyph unicode="&#xaa;" glyph-name="ordfeminine" horiz-adv-x="418" d="M321 801T355 784T406 733L349 702Q336 721 314 735T266 750Q204 750 168 705T132 592Q132 528 153 489T221 449Q287 449 312 502T337 617V653L407 683V472Q407 462 412 453T429 443Q454
443 472 475L484 462Q474 435 450 416T402 397Q368 397 352 423T335 491H334Q313 448 279 420T208 392Q140 392 106 439T71 564Q71 626 99 681T175 768T281 801Q321 801 355 784ZM55 251H333L357 319H79L55 251Z" />
<glyph unicode="&#xab;" glyph-name="guillemotleft" horiz-adv-x="428" d="M224 303L203 321L30 189L203 57L224 81L143 189L224 303ZM377 303L357 321L183 189L357 57L377 81L296 189L377 303Z" />
<glyph unicode="&#xac;" glyph-name="logicalnot" horiz-adv-x="472" d="M413 234V414H76L44 335H353V183L413 234Z" />
<glyph unicode="&#xad;" glyph-name="uni00AD" horiz-adv-x="472" d="M59 332H398L428 417H91L59 332Z" />
<glyph unicode="&#xae;" glyph-name="registered" horiz-adv-x="580" d="M353 575T405 545T489 461T520 346Q520 285 489 233T405 149T291 118Q229 118 176 149T92 232T61 346Q61 408 92 461T176 544T291 575Q353 575 405 545ZM234 553T187 525T112 450T84 346Q84
290 111 243T186 168T291 140Q346 140 393 167T469 242T497 346Q497 402 469 449T394 525T291 553Q234 553 187 525ZM354 501T378 478T402 418Q402 376 372 351T293 306L340 250Q349 239 362 239Q371 239 381 246T399 263L406 256Q393 237 375 222T338 207Q324
207 315 213T291 237L246 300L247 309Q291 316 323 343T356 411Q356 440 339 458T293 477Q263 477 236 465T180 430L172 438Q203 467 236 484T317 501Q354 501 378 478ZM239 221L196 205V430L239 446V221Z" />
<glyph unicode="&#xaf;" glyph-name="overscore" horiz-adv-x="248" d="M248 580H37L1 511H213L248 580Z" />
<glyph unicode="&#xb0;" glyph-name="degree" horiz-adv-x="387" d="M232 747T265 729T319 678T339 608Q339 569 320 537T267 486T193 467Q154 467 122 485T71 536T52 608Q52 646 70 678T121 728T193 747Q232 747 265 729ZM145 706T134 688T123 644Q123 618 135
586T170 532T220 509Q244 509 254 527T265 572Q265 598 253 629T218 683T168 706Q145 706 134 688Z" />
<glyph unicode="&#xb1;" glyph-name="plusminus" horiz-adv-x="473" d="M277 559L197 527V414H83L51 335H197V189L277 221V335H392L421 414H277V559ZM51 60H392L421 140H83L51 60Z" />
<glyph unicode="&#xb2;" glyph-name="uni00B2" horiz-adv-x="320" d="M209 702T244 672T280 590Q280 545 256 509T202 449T116 388L120 386Q139 395 160 395Q171 395 182 393T198 390Q218 385 235 385Q268 385 293 421L306 412L260 317Q232 319 184 327Q176 328
147 332T89 336Q57 336 32 317L16 332Q16 332 52 365Q123 429 162 477T201 576Q201 614 181 636T125 658Q101 658 76 644T32 608L16 622Q40 655 77 678T151 702Q209 702 244 672Z" />
<glyph unicode="&#xb3;" glyph-name="uni00B3" horiz-adv-x="314" d="M177 554T209 583T242 646Q242 675 222 691T168 707Q132 707 93 688T26 632L40 618Q54 635 77 648T121 661Q159 661 159 624Q159 587 125 557T47 508L54 489Q95 507 123 507Q156 507 178 487T201
432Q201 396 175 368T109 324T34 303L37 285Q89 285 146 301T242 350T282 434Q282 478 250 505T171 533Q147 533 136 529L134 533Q177 554 209 583Z" />
<glyph unicode="&#xb4;" glyph-name="acute" horiz-adv-x="182" d="M123 609L1 469L16 449L184 536L123 609Z" />
<glyph unicode="&#xb5;" glyph-name="mu" horiz-adv-x="671" d="M530 87Q530 74 540 64T561 53Q572 53 587 62T617 92L630 77Q607 34 575 15T515 -5Q486 -5 464 12T441 70V360H439Q411 235 367 127T241 -13V-193L152 -240V414Q152 431 143 441T117 452Q109 452
95 442T65 411L50 427Q73 469 106 488T165 508Q181 508 198 498T228 466T241 408V135Q241 98 262 98Q313 98 358 211T439 469L530 514V87Z" />
<glyph unicode="&#xb6;" glyph-name="paragraph" horiz-adv-x="509" d="M389 22L295 -14V261Q188 282 119 337T50 482Q50 557 100 609T229 688T389 715V22ZM226 634T186 590T146 482Q146 418 186 373T295 303V659Q226 634 186 590Z" />
<glyph unicode="&#xb7;" glyph-name="middot" horiz-adv-x="212" d="M167 387T149 405T106 423Q81 423 64 406T46 363Q46 337 63 320T106 303Q131 303 149 320T167 363Q167 387 149 405Z" />
<glyph unicode="&#xb8;" glyph-name="cedilla" horiz-adv-x="152" d="M34 -49Q60 -36 84 -36Q116 -36 138 -57T160 -116Q160 -153 134 -175T73 -198Q49 -198 28 -186T-6 -150L13 -139Q28 -160 51 -160Q68 -160 79 -148T90 -116Q90 -96 78 -83T47 -70Q31 -70 16
-80L-2 -66L43 9H68L34 -49Z" />
<glyph unicode="&#xb9;" glyph-name="uni00B9" horiz-adv-x="225" d="M8 635L20 612L67 636V310L138 332V703L8 635Z" />
<glyph unicode="&#xba;" glyph-name="ordmasculine" horiz-adv-x="406" d="M274 792Q214 754 180 707T145 595Q145 559 160 523T205 462T278 438Q330 438 363 472T396 557Q396 594 373 633T313 700T238 731Q258 751 300 782L322 799Q377 780 409 729T441 614Q441
558 419 507T352 423T248 390Q200 390 160 413T96 478T72 569Q72 655 124 719T259 808L274 792ZM55 251H333L357 319H79L55 251Z" />
<glyph unicode="&#xbb;" glyph-name="guillemotright" horiz-adv-x="428" d="M246 189L71 57L52 80L131 189L52 302L71 321L246 189ZM400 189L226 57L205 80L286 189L205 302L226 321L400 189Z" />
<glyph unicode="&#xbc;" glyph-name="onequarter" horiz-adv-x="967" d="M157 635L169 612L216 636V310L287 332V703L157 635ZM617 697L208 50L261 15L664 663L617 697ZM750 381L679 360V154H577Q604 185 630 231T666 314L613 336Q596 266 568 208T495 99H679V-13L750
9V99H777L796 154H750V381Z" />
<glyph unicode="&#xbd;" glyph-name="onehalf" horiz-adv-x="969" d="M157 635L169 612L216 636V310L287 332V703L157 635ZM617 697L208 50L261 15L664 663L617 697ZM708 380T743 350T779 267Q779 222 755 186T700 127T615 67L619 63Q639 72 659 72Q677 72 697
67Q721 63 734 63Q767 63 792 99L805 90L759 -5Q731 -3 683 5Q675 6 646 10T588 14Q556 14 531 -5L515 10Q515 10 551 43Q622 107 661 155T700 254Q700 291 680 313T624 336Q600 336 575 323T531 287L515 300Q539 333 576 356T650 380Q708 380 743 350Z" />
<glyph unicode="&#xbe;" glyph-name="threequarters" horiz-adv-x="1057" d="M326 554T358 583T391 646Q391 675 371 691T317 707Q281 707 242 688T175 632L189 618Q203 635 226 648T270 661Q308 661 308 624Q308 587 274 557T196 508L203 489Q244 507 272 507Q305
507 327 487T350 432Q350 396 324 368T258 324T183 303L186 285Q238 285 295 301T391 350T431 434Q431 478 399 505T320 533Q296 533 285 529L283 533Q326 554 358 583ZM706 697L297 50L350 15L753 663L706 697ZM840 381L769 360V154H667Q694 185 720 231T756 314L703
336Q686 266 658 208T585 99H769V-13L840 9V99H867L886 154H840V381Z" />
<glyph unicode="&#xbf;" glyph-name="questiondown" horiz-adv-x="505" d="M233 424T251 406T294 388Q319 388 336 406T353 449Q353 475 337 491T294 508Q268 508 251 491T233 449Q233 424 251 406ZM40 -93T67 -137T141 -206T248 -230Q304 -230 354 -205T434 -135T465
-39Q465 -8 453 24T416 76L344 14Q364 -5 376 -30T389 -82Q389 -125 357 -153T284 -182Q221 -182 181 -140T141 -30Q141 19 161 55T224 140Q255 176 273 201T303 261T316 337L270 326Q270 285 245 252T166 170Q125 133 100 106T58 43T40 -35Q40 -93 67 -137Z" />
<glyph unicode="&#xc0;" glyph-name="Agrave" horiz-adv-x="689" d="M524 683Q413 668 324 607T185 452T134 249Q134 158 169 105T261 52Q317 52 368 129T451 332T483 594L577 631V107Q577 79 589 62T622 45Q638 45 655 55T681 81L695 68Q681 37 652 16T586 -5Q540
-5 512 27T483 118V309H478Q406 -11 234 -11Q145 -11 91 51T37 223Q37 348 103 458T281 637T524 712V683ZM477 798L354 938L294 865L462 777L477 798Z" />
<glyph unicode="&#xc1;" glyph-name="Aacute" horiz-adv-x="689" d="M524 683Q413 668 324 607T185 452T134 249Q134 158 169 105T261 52Q317 52 368 129T451 332T483 594L577 631V107Q577 79 589 62T622 45Q638 45 655 55T681 81L695 68Q681 37 652 16T586 -5Q540
-5 512 27T483 118V309H478Q406 -11 234 -11Q145 -11 91 51T37 223Q37 348 103 458T281 637T524 712V683ZM430 938L308 798L323 778L491 865L430 938Z" />
<glyph unicode="&#xc2;" glyph-name="Acircumflex" horiz-adv-x="689" d="M524 683Q413 668 324 607T185 452T134 249Q134 158 169 105T261 52Q317 52 368 129T451 332T483 594L577 631V107Q577 79 589 62T622 45Q638 45 655 55T681 81L695 68Q681 37 652 16T586
-5Q540 -5 512 27T483 118V309H478Q406 -11 234 -11Q145 -11 91 51T37 223Q37 348 103 458T281 637T524 712V683ZM530 832L478 774L367 875L291 788L263 809L392 957L530 832Z" />
<glyph unicode="&#xc3;" glyph-name="Atilde" horiz-adv-x="689" d="M524 683Q413 668 324 607T185 452T134 249Q134 158 169 105T261 52Q317 52 368 129T451 332T483 594L577 631V107Q577 79 589 62T622 45Q638 45 655 55T681 81L695 68Q681 37 652 16T586 -5Q540
-5 512 27T483 118V309H478Q406 -11 234 -11Q145 -11 91 51T37 223Q37 348 103 458T281 637T524 712V683ZM511 920T511 887Q511 855 493 834T441 813Q421 813 408 822T379 848Q360 869 348 869Q329 869 329 840Q329 828 336 815L306 805Q284 832 284 865Q284 896
302 917T354 939Q373 939 386 930T414 905Q425 893 431 888T446 883Q465 883 465 912Q465 926 459 937L489 946Q511 920 511 887Z" />
<glyph unicode="&#xc4;" glyph-name="Adieresis" horiz-adv-x="689" d="M524 683Q413 668 324 607T185 452T134 249Q134 158 169 105T261 52Q317 52 368 129T451 332T483 594L577 631V107Q577 79 589 62T622 45Q638 45 655 55T681 81L695 68Q681 37 652 16T586
-5Q540 -5 512 27T483 118V309H478Q406 -11 234 -11Q145 -11 91 51T37 223Q37 348 103 458T281 637T524 712V683ZM331 935T348 918T366 876Q366 851 349 835T307 818Q283 818 266 835T249 876Q249 899 266 917T307 935Q331 935 348 918ZM508 935T525 918T542 876Q542
851 526 835T484 818Q460 818 443 835T425 876Q425 899 442 917T484 935Q508 935 525 918Z" />
<glyph unicode="&#xc5;" glyph-name="Aring" horiz-adv-x="689" d="M524 683Q413 668 324 607T185 452T134 249Q134 158 169 105T261 52Q317 52 368 129T451 332T483 594L577 631V107Q577 79 589 62T622 45Q638 45 655 55T681 81L695 68Q681 37 652 16T586 -5Q540
-5 512 27T483 118V309H478Q406 -11 234 -11Q145 -11 91 51T37 223Q37 348 103 458T281 637T524 712V683ZM437 995T466 967T495 898Q495 858 466 829T395 800Q355 800 326 829T297 898Q297 938 326 966T395 995Q437 995 466 967ZM366 962T359 951T352 922Q352 887
371 861T412 835Q425 835 432 847T439 875Q439 898 430 918T406 950T379 962Q366 962 359 951Z" />
<glyph unicode="&#xc6;" glyph-name="AE" horiz-adv-x="898" d="M895 180Q847 98 765 44T588 -11Q514 -11 462 26T397 128Q329 -11 221 -11Q166 -11 125 20T62 104T40 223Q40 344 103 452T297 629T614 697Q671 717 723 717Q796 717 851 656L789 606Q761 636 733
653T668 671Q635 671 604 657T554 618T534 560Q534 528 554 501T606 459T671 443Q705 443 717 450L726 422Q636 395 568 339T500 202Q500 143 535 105T633 66Q683 66 731 85T816 136T872 200L895 180ZM409 266T459 314T577 394Q528 408 500 442T471 522Q471 608
550 663Q406 643 314 580T181 431T139 249Q139 172 164 112T248 52Q341 52 396 205Q409 266 459 314Z" />
<glyph unicode="&#xc7;" glyph-name="Ccedilla" horiz-adv-x="614" d="M401 65T447 85T531 145L553 123Q447 -11 302 -11Q292 -11 288 -10L265 -49Q291 -36 315 -36Q347 -36 369 -57T391 -116Q391 -153 365 -175T304 -198Q280 -198 259 -186T225 -150L244 -139Q259
-160 282 -160Q299 -160 310 -148T321 -116Q321 -96 309 -83T278 -70Q262 -70 247 -80L230 -66L264 -8Q194 1 144 42T67 147T40 290Q40 413 94 513T242 672T443 730Q507 730 546 694T585 600Q585 554 561 505T496 419T412 369L402 387Q445 406 471 448T498 537Q498
597 462 633T366 670Q306 670 253 627T168 513T136 360Q136 272 163 205T239 102T353 65Q401 65 447 85Z" />
<glyph unicode="&#xc8;" glyph-name="Egrave" horiz-adv-x="540" d="M435 717T488 656L427 606Q399 636 371 653T306 671Q273 671 242 657T192 618T172 560Q172 528 192 501T243 459T309 443Q322 443 334 444T355 450L364 422Q277 396 208 340T139 203Q139 143
174 105T270 66Q320 66 368 85T454 136T511 200L534 180Q485 98 403 44T226 -11Q170 -11 126 11T56 74T30 168Q30 240 85 298T219 392Q169 404 139 439T109 522Q109 585 148 629T246 695T361 717Q435 717 488 656ZM403 798L280 938L220 865L388 777L403 798Z" />
<glyph unicode="&#xc9;" glyph-name="Eacute" horiz-adv-x="540" d="M435 717T488 656L427 606Q399 636 371 653T306 671Q273 671 242 657T192 618T172 560Q172 528 192 501T243 459T309 443Q322 443 334 444T355 450L364 422Q277 396 208 340T139 203Q139 143
174 105T270 66Q320 66 368 85T454 136T511 200L534 180Q485 98 403 44T226 -11Q170 -11 126 11T56 74T30 168Q30 240 85 298T219 392Q169 404 139 439T109 522Q109 585 148 629T246 695T361 717Q435 717 488 656ZM356 938L234 798L249 778L417 865L356 938Z" />
<glyph unicode="&#xca;" glyph-name="Ecircumflex" horiz-adv-x="540" d="M435 717T488 656L427 606Q399 636 371 653T306 671Q273 671 242 657T192 618T172 560Q172 528 192 501T243 459T309 443Q322 443 334 444T355 450L364 422Q277 396 208 340T139 203Q139
143 174 105T270 66Q320 66 368 85T454 136T511 200L534 180Q485 98 403 44T226 -11Q170 -11 126 11T56 74T30 168Q30 240 85 298T219 392Q169 404 139 439T109 522Q109 585 148 629T246 695T361 717Q435 717 488 656ZM457 832L405 774L294 875L218 788L190 809L319
957L457 832Z" />
<glyph unicode="&#xcb;" glyph-name="Edieresis" horiz-adv-x="540" d="M435 717T488 656L427 606Q399 636 371 653T306 671Q273 671 242 657T192 618T172 560Q172 528 192 501T243 459T309 443Q322 443 334 444T355 450L364 422Q277 396 208 340T139 203Q139
143 174 105T270 66Q320 66 368 85T454 136T511 200L534 180Q485 98 403 44T226 -11Q170 -11 126 11T56 74T30 168Q30 240 85 298T219 392Q169 404 139 439T109 522Q109 585 148 629T246 695T361 717Q435 717 488 656ZM258 935T275 918T293 876Q293 851 276 835T234
818Q210 818 193 835T176 876Q176 899 193 917T234 935Q258 935 275 918ZM435 935T452 918T469 876Q469 851 453 835T411 818Q387 818 370 835T352 876Q352 899 369 917T411 935Q435 935 452 918Z" />
<glyph unicode="&#xcc;" glyph-name="Igrave" horiz-adv-x="290" d="M184 19L91 -14V695L184 730V19ZM220 798L97 938L37 865L205 777L220 798Z" />
<glyph unicode="&#xcd;" glyph-name="Iacute" horiz-adv-x="290" d="M184 19L91 -14V695L184 730V19ZM173 938L51 798L66 778L234 865L173 938Z" />
<glyph unicode="&#xce;" glyph-name="Icircumflex" horiz-adv-x="290" d="M184 19L91 -14V695L184 730V19ZM273 832L221 774L110 875L34 788L6 809L135 957L273 832Z" />
<glyph unicode="&#xcf;" glyph-name="Idieresis" horiz-adv-x="290" d="M184 19L91 -14V695L184 730V19ZM75 935T92 918T110 876Q110 851 93 835T51 818Q27 818 10 835T-7 876Q-7 899 10 917T51 935Q75 935 92 918ZM252 935T269 918T286 876Q286 851 270 835T228
818Q204 818 187 835T169 876Q169 899 186 917T228 935Q252 935 269 918Z" />
<glyph unicode="&#xd0;" glyph-name="Eth" horiz-adv-x="675" d="M509 713T572 646T635 463Q635 336 556 230T351 59T94 -13V324H-10L11 374H94V541L187 575V374H353L332 324H187V41Q286 67 363 125T483 267T527 446Q527 501 508 548T449 625T346 655Q267 655
190 624T50 541L30 562Q94 625 198 669T389 713Q509 713 572 646Z" />
<glyph unicode="&#xd1;" glyph-name="Ntilde" horiz-adv-x="628" d="M184 731V537Q206 621 257 675T394 730Q454 730 485 689T516 587V107Q516 79 527 62T560 45Q577 45 594 55T620 81L634 68Q621 38 592 17T525 -5Q479 -5 451 26T423 118V547Q423 603 411 640T353
677Q296 677 258 621T202 488T184 357V24L92 -13V696L184 731ZM425 920T425 887Q425 855 407 834T355 813Q335 813 322 822T293 848Q274 869 262 869Q243 869 243 840Q243 828 250 815L220 805Q198 832 198 865Q198 896 216 917T268 939Q287 939 300 930T328 905Q339
893 345 888T360 883Q379 883 379 912Q379 926 373 937L403 946Q425 920 425 887Z" />
<glyph unicode="&#xd2;" glyph-name="Ograve" horiz-adv-x="728" d="M463 723T535 670T647 531T687 351Q687 258 652 174T544 36T368 -17Q272 -17 198 36T85 174T45 351Q45 446 80 531T189 669T368 723Q463 723 535 670ZM258 668T216 631T155 537T136 424Q136
337 164 250T254 103T409 43Q473 43 514 81T575 175T594 288Q594 373 566 461T477 608T322 668Q258 668 216 631ZM450 798L327 938L267 865L435 777L450 798Z" />
<glyph unicode="&#xd3;" glyph-name="Oacute" horiz-adv-x="728" d="M463 723T535 670T647 531T687 351Q687 258 652 174T544 36T368 -17Q272 -17 198 36T85 174T45 351Q45 446 80 531T189 669T368 723Q463 723 535 670ZM258 668T216 631T155 537T136 424Q136
337 164 250T254 103T409 43Q473 43 514 81T575 175T594 288Q594 373 566 461T477 608T322 668Q258 668 216 631ZM403 938L281 798L296 778L464 865L403 938Z" />
<glyph unicode="&#xd4;" glyph-name="Ocircumflex" horiz-adv-x="728" d="M463 723T535 670T647 531T687 351Q687 258 652 174T544 36T368 -17Q272 -17 198 36T85 174T45 351Q45 446 80 531T189 669T368 723Q463 723 535 670ZM258 668T216 631T155 537T136 424Q136
337 164 250T254 103T409 43Q473 43 514 81T575 175T594 288Q594 373 566 461T477 608T322 668Q258 668 216 631ZM504 832L452 774L341 875L265 788L237 809L366 957L504 832Z" />
<glyph unicode="&#xd5;" glyph-name="Otilde" horiz-adv-x="728" d="M463 723T535 670T647 531T687 351Q687 258 652 174T544 36T368 -17Q272 -17 198 36T85 174T45 351Q45 446 80 531T189 669T368 723Q463 723 535 670ZM258 668T216 631T155 537T136 424Q136
337 164 250T254 103T409 43Q473 43 514 81T575 175T594 288Q594 373 566 461T477 608T322 668Q258 668 216 631ZM484 920T484 887Q484 855 466 834T414 813Q394 813 381 822T352 848Q333 869 321 869Q302 869 302 840Q302 828 309 815L279 805Q257 832 257 865Q257
896 275 917T327 939Q346 939 359 930T387 905Q398 893 404 888T419 883Q438 883 438 912Q438 926 432 937L462 946Q484 920 484 887Z" />
<glyph unicode="&#xd6;" glyph-name="Odieresis" horiz-adv-x="728" d="M463 723T535 670T647 531T687 351Q687 258 652 174T544 36T368 -17Q272 -17 198 36T85 174T45 351Q45 446 80 531T189 669T368 723Q463 723 535 670ZM258 668T216 631T155 537T136 424Q136
337 164 250T254 103T409 43Q473 43 514 81T575 175T594 288Q594 373 566 461T477 608T322 668Q258 668 216 631ZM305 935T322 918T340 876Q340 851 323 835T281 818Q257 818 240 835T223 876Q223 899 240 917T281 935Q305 935 322 918ZM482 935T499 918T516 876Q516
851 500 835T458 818Q434 818 417 835T399 876Q399 899 416 917T458 935Q482 935 499 918Z" />
<glyph unicode="&#xd7;" glyph-name="multiply" horiz-adv-x="439" d="M221 436L140 553L60 518L177 375L60 231L140 197L221 315L300 197L379 231L262 375L379 518L300 553L221 436Z" />
<glyph unicode="&#xd8;" glyph-name="Oslash" horiz-adv-x="728" d="M628 585T657 509T687 351Q687 258 652 174T544 36T368 -17Q271 -17 194 39L160 -15L115 15L153 74Q101 126 73 199T45 351Q45 446 80 531T189 669T368 723Q463 723 538 669L573 723L612 697L574
637Q628 585 657 509ZM136 356T154 285T208 158L490 595Q422 668 322 668Q258 668 216 631T155 537T136 424Q136 356 154 285ZM473 43T514 81T575 175T594 288Q594 356 576 427T521 554L242 114Q310 43 409 43Q473 43 514 81Z" />
<glyph unicode="&#xd9;" glyph-name="Ugrave" horiz-adv-x="632" d="M506 107Q506 79 517 62T550 45Q566 45 583 55T610 81L623 68Q611 38 582 17T513 -5Q469 -5 441 26T413 117V187Q391 105 339 48T205 -9Q145 -9 114 31T83 134V680L176 713V174Q176 134 179
110T197 65T247 45Q304 45 341 102T395 236T413 368V679L506 713V107ZM399 798L276 938L216 865L384 777L399 798Z" />
<glyph unicode="&#xda;" glyph-name="Uacute" horiz-adv-x="632" d="M506 107Q506 79 517 62T550 45Q566 45 583 55T610 81L623 68Q611 38 582 17T513 -5Q469 -5 441 26T413 117V187Q391 105 339 48T205 -9Q145 -9 114 31T83 134V680L176 713V174Q176 134 179
110T197 65T247 45Q304 45 341 102T395 236T413 368V679L506 713V107ZM352 938L230 798L245 778L413 865L352 938Z" />
<glyph unicode="&#xdb;" glyph-name="Ucircumflex" horiz-adv-x="632" d="M506 107Q506 79 517 62T550 45Q566 45 583 55T610 81L623 68Q611 38 582 17T513 -5Q469 -5 441 26T413 117V187Q391 105 339 48T205 -9Q145 -9 114 31T83 134V680L176 713V174Q176 134
179 110T197 65T247 45Q304 45 341 102T395 236T413 368V679L506 713V107ZM452 832L400 774L289 875L213 788L185 809L314 957L452 832Z" />
<glyph unicode="&#xdc;" glyph-name="Udieresis" horiz-adv-x="632" d="M506 107Q506 79 517 62T550 45Q566 45 583 55T610 81L623 68Q611 38 582 17T513 -5Q469 -5 441 26T413 117V187Q391 105 339 48T205 -9Q145 -9 114 31T83 134V680L176 713V174Q176 134 179
110T197 65T247 45Q304 45 341 102T395 236T413 368V679L506 713V107ZM254 935T271 918T289 876Q289 851 272 835T230 818Q206 818 189 835T172 876Q172 899 189 917T230 935Q254 935 271 918ZM431 935T448 918T465 876Q465 851 449 835T407 818Q383 818 366 835T348
876Q348 899 365 917T407 935Q431 935 448 918Z" />
<glyph unicode="&#xdd;" glyph-name="Yacute" horiz-adv-x="628" d="M416 101T366 51T236 0Q177 0 146 41T115 145V592Q115 618 104 635T69 652Q54 652 37 642T10 619L-4 631Q9 660 38 682T97 704Q149 704 178 667T208 582V184Q208 129 221 92T278 54Q335 54 372
110T426 242T443 373V679L535 713V26Q535 -41 507 -98T427 -189T305 -223Q217 -223 154 -168L235 -100Q250 -129 280 -153T344 -178Q379 -178 401 -159T433 -113T443 -63V180H440Q416 101 366 51ZM353 938L231 798L246 778L414 865L353 938Z" />
<glyph unicode="&#xde;" glyph-name="Thorn" horiz-adv-x="619" d="M484 625T544 574T605 420Q605 338 550 267T410 155T238 113Q229 113 226 115L231 141Q299 149 363 183T467 274T508 401Q508 476 463 521T328 566Q262 566 184 534V-3L91 -39V483Q61 461 48
449L29 469Q58 495 91 519V694L184 730V574Q289 625 389 625Q484 625 544 574Z" />
<glyph unicode="&#xdf;" glyph-name="germandbls" horiz-adv-x="635" d="M380 935T416 898T453 793Q453 760 440 732T400 664Q373 623 360 594T346 530Q346 494 361 465T398 415T458 364Q499 332 523 308T564 251T581 174Q581 123 556 78T486 6T390 -21Q361 -21
324 -9T264 32L347 115Q365 90 395 68T450 45Q499 45 529 73T560 142Q560 172 540 194T475 251Q425 290 393 322T338 407T314 532Q314 551 322 575T349 643Q371 692 382 727T394 792Q394 816 380 839T342 878T290 893Q187 893 187 753V-136L92 -182V423H43L66 473H92Q92
595 103 689T165 859T321 935Q380 935 416 898Z" />
<glyph unicode="&#xe0;" glyph-name="agrave" horiz-adv-x="575" d="M362 500T405 479T469 415L397 376Q381 399 353 417T293 436Q242 436 204 410T146 338T126 238Q126 159 153 110T238 60Q320 60 351 126T382 270V315L470 352V89Q470 76 477 64T498 52Q527 52
551 92L566 76Q554 42 524 19T464 -5Q421 -5 401 27T380 112H378Q353 59 311 24T221 -12Q136 -12 93 46T49 203Q49 281 84 349T179 459T313 500Q362 500 405 479ZM415 593L292 733L232 660L400 572L415 593Z" />
<glyph unicode="&#xe1;" glyph-name="aacute" horiz-adv-x="575" d="M362 500T405 479T469 415L397 376Q381 399 353 417T293 436Q242 436 204 410T146 338T126 238Q126 159 153 110T238 60Q320 60 351 126T382 270V315L470 352V89Q470 76 477 64T498 52Q527 52
551 92L566 76Q554 42 524 19T464 -5Q421 -5 401 27T380 112H378Q353 59 311 24T221 -12Q136 -12 93 46T49 203Q49 281 84 349T179 459T313 500Q362 500 405 479ZM369 733L247 593L262 573L430 660L369 733Z" />
<glyph unicode="&#xe2;" glyph-name="acircumflex" horiz-adv-x="575" d="M362 500T405 479T469 415L397 376Q381 399 353 417T293 436Q242 436 204 410T146 338T126 238Q126 159 153 110T238 60Q320 60 351 126T382 270V315L470 352V89Q470 76 477 64T498 52Q527
52 551 92L566 76Q554 42 524 19T464 -5Q421 -5 401 27T380 112H378Q353 59 311 24T221 -12Q136 -12 93 46T49 203Q49 281 84 349T179 459T313 500Q362 500 405 479ZM469 627L417 569L306 670L230 583L202 604L331 752L469 627Z" />
<glyph unicode="&#xe3;" glyph-name="atilde" horiz-adv-x="575" d="M362 500T405 479T469 415L397 376Q381 399 353 417T293 436Q242 436 204 410T146 338T126 238Q126 159 153 110T238 60Q320 60 351 126T382 270V315L470 352V89Q470 76 477 64T498 52Q527 52
551 92L566 76Q554 42 524 19T464 -5Q421 -5 401 27T380 112H378Q353 59 311 24T221 -12Q136 -12 93 46T49 203Q49 281 84 349T179 459T313 500Q362 500 405 479ZM449 715T449 682Q449 650 431 629T379 608Q359 608 346 617T317 643Q298 664 286 664Q267 664 267
635Q267 623 274 610L244 600Q222 627 222 660Q222 691 240 712T292 734Q311 734 324 725T352 700Q363 688 369 683T384 678Q403 678 403 707Q403 721 397 732L427 741Q449 715 449 682Z" />
<glyph unicode="&#xe4;" glyph-name="adieresis" horiz-adv-x="575" d="M362 500T405 479T469 415L397 376Q381 399 353 417T293 436Q242 436 204 410T146 338T126 238Q126 159 153 110T238 60Q320 60 351 126T382 270V315L470 352V89Q470 76 477 64T498 52Q527
52 551 92L566 76Q554 42 524 19T464 -5Q421 -5 401 27T380 112H378Q353 59 311 24T221 -12Q136 -12 93 46T49 203Q49 281 84 349T179 459T313 500Q362 500 405 479ZM270 730T287 713T305 671Q305 646 288 630T246 613Q222 613 205 630T188 671Q188 694 205 712T246
730Q270 730 287 713ZM447 730T464 713T481 671Q481 646 465 630T423 613Q399 613 382 630T364 671Q364 694 381 712T423 730Q447 730 464 713Z" />
<glyph unicode="&#xe5;" glyph-name="aring" horiz-adv-x="575" d="M362 500T405 479T469 415L397 376Q381 399 353 417T293 436Q242 436 204 410T146 338T126 238Q126 159 153 110T238 60Q320 60 351 126T382 270V315L470 352V89Q470 76 477 64T498 52Q527 52
551 92L566 76Q554 42 524 19T464 -5Q421 -5 401 27T380 112H378Q353 59 311 24T221 -12Q136 -12 93 46T49 203Q49 281 84 349T179 459T313 500Q362 500 405 479ZM376 790T405 762T434 693Q434 653 405 624T334 595Q294 595 265 624T236 693Q236 733 265 761T334
790Q376 790 405 762ZM305 757T298 746T291 717Q291 682 310 656T351 630Q364 630 371 642T378 670Q378 693 369 713T345 745T318 757Q305 757 298 746Z" />
<glyph unicode="&#xe6;" glyph-name="ae" horiz-adv-x="847" d="M822 120Q776 61 712 25T581 -12Q513 -12 461 26T385 127Q360 56 316 22T218 -12Q162 -12 123 15T64 87T44 188Q44 266 78 338T173 455T305 500Q345 500 390 479T470 428Q510 466 559 487T660 509Q713
509 748 480T783 394Q783 348 735 292T620 188T507 122Q571 53 637 53Q679 53 721 78T807 140L822 120ZM456 199T487 149Q528 168 574 206T653 290T685 372Q685 410 666 428T608 446Q565 446 531 417T476 343T456 255Q456 199 487 149ZM373 60T373 343Q373 388
346 412T288 436Q238 436 201 410T143 338T123 238Q123 202 135 161T175 90T246 60Q373 60 373 343Z" />
<glyph unicode="&#xe7;" glyph-name="ccedilla" horiz-adv-x="520" d="M243 -12T236 -11L214 -49Q240 -36 264 -36Q296 -36 318 -57T340 -116Q340 -153 314 -175T253 -198Q229 -198 208 -186T174 -150L193 -139Q208 -160 231 -160Q248 -160 259 -148T270 -116Q270
-96 258 -83T227 -70Q211 -70 196 -80L179 -66L213 -8Q135 6 88 68T41 223Q41 301 73 365T169 468T326 506Q367 506 402 483T457 410L375 368Q365 403 336 423T273 443Q225 443 188 418T131 354T111 275Q111 205 134 155T197 78T287 51Q347 51 392 80T477 156L494
140Q445 65 391 27T257 -12Q243 -12 236 -11Z" />
<glyph unicode="&#xe8;" glyph-name="egrave" horiz-adv-x="522" d="M384 509T420 480T456 394Q456 348 407 292T291 188T177 122Q202 82 234 67T309 51Q357 51 404 75T483 139L495 118Q446 55 391 22T256 -12Q195 -12 147 18T72 98T45 208Q45 282 85 352T191
465T330 509Q384 509 420 480ZM234 446T200 418T146 346T126 255Q126 193 155 149Q197 168 246 206T329 290T363 372Q363 446 278 446Q234 446 200 418ZM362 593L239 733L179 660L347 572L362 593Z" />
<glyph unicode="&#xe9;" glyph-name="eacute" horiz-adv-x="522" d="M384 509T420 480T456 394Q456 348 407 292T291 188T177 122Q202 82 234 67T309 51Q357 51 404 75T483 139L495 118Q446 55 391 22T256 -12Q195 -12 147 18T72 98T45 208Q45 282 85 352T191
465T330 509Q384 509 420 480ZM234 446T200 418T146 346T126 255Q126 193 155 149Q197 168 246 206T329 290T363 372Q363 446 278 446Q234 446 200 418ZM315 733L193 593L208 573L376 660L315 733Z" />
<glyph unicode="&#xea;" glyph-name="ecircumflex" horiz-adv-x="522" d="M384 509T420 480T456 394Q456 348 407 292T291 188T177 122Q202 82 234 67T309 51Q357 51 404 75T483 139L495 118Q446 55 391 22T256 -12Q195 -12 147 18T72 98T45 208Q45 282 85 352T191
465T330 509Q384 509 420 480ZM234 446T200 418T146 346T126 255Q126 193 155 149Q197 168 246 206T329 290T363 372Q363 446 278 446Q234 446 200 418ZM415 627L363 569L252 670L176 583L148 604L277 752L415 627Z" />
<glyph unicode="&#xeb;" glyph-name="edieresis" horiz-adv-x="522" d="M384 509T420 480T456 394Q456 348 407 292T291 188T177 122Q202 82 234 67T309 51Q357 51 404 75T483 139L495 118Q446 55 391 22T256 -12Q195 -12 147 18T72 98T45 208Q45 282 85 352T191
465T330 509Q384 509 420 480ZM234 446T200 418T146 346T126 255Q126 193 155 149Q197 168 246 206T329 290T363 372Q363 446 278 446Q234 446 200 418ZM216 730T233 713T251 671Q251 646 234 630T192 613Q168 613 151 630T134 671Q134 694 151 712T192 730Q216
730 233 713ZM393 730T410 713T427 671Q427 646 411 630T369 613Q345 613 328 630T310 671Q310 694 327 712T369 730Q393 730 410 713Z" />
<glyph unicode="&#xec;" glyph-name="igrave" horiz-adv-x="297" d="M182 84Q182 69 190 60T212 50Q235 50 264 89L280 74Q257 31 224 13T164 -5Q127 -5 109 17T90 96V460L182 496V84ZM207 593L84 733L24 660L192 572L207 593Z" />
<glyph unicode="&#xed;" glyph-name="iacute" horiz-adv-x="297" d="M182 84Q182 69 190 60T212 50Q235 50 264 89L280 74Q257 31 224 13T164 -5Q127 -5 109 17T90 96V460L182 496V84ZM160 733L38 593L53 573L221 660L160 733Z" />
<glyph unicode="&#xee;" glyph-name="icircumflex" horiz-adv-x="297" d="M182 84Q182 69 190 60T212 50Q235 50 264 89L280 74Q257 31 224 13T164 -5Q127 -5 109 17T90 96V460L182 496V84ZM516 627L464 569L353 670L277 583L249 604L378 752L516 627Z" />
<glyph unicode="&#xef;" glyph-name="idieresis" horiz-adv-x="297" d="M182 84Q182 69 190 60T212 50Q235 50 264 89L280 74Q257 31 224 13T164 -5Q127 -5 109 17T90 96V460L182 496V84ZM317 730T334 713T352 671Q352 646 335 630T293 613Q269 613 252 630T235
671Q235 694 252 712T293 730Q317 730 334 713ZM494 730T511 713T528 671Q528 646 512 630T470 613Q446 613 429 630T411 671Q411 694 428 712T470 730Q494 730 511 713Z" />
<glyph unicode="&#xf0;" glyph-name="eth" horiz-adv-x="586" d="M444 617T482 508T520 277Q520 202 486 135T394 27T269 -14Q208 -14 155 17T70 112T37 271Q37 332 68 388T154 480T270 521L302 497Q350 462 376 436Q287 437 223 397T125 300T92 193Q92 130 131
87T245 44Q300 44 341 79T405 171T428 294Q428 398 396 496T298 678L136 622V686L255 727Q183 800 93 851L112 870Q232 827 319 750L476 805V739L368 702Q444 617 482 508Z" />
<glyph unicode="&#xf1;" glyph-name="ntilde" horiz-adv-x="608" d="M473 509T485 480T497 398V367V84Q497 73 504 62T524 50Q541 50 553 61T577 89L592 74Q577 42 547 19T490 -5Q450 -5 428 20T406 96V361Q406 376 403 386T388 396Q347 396 304 317T231 141T200
12L113 -14V414Q113 428 106 439T84 451Q60 451 32 408L17 424Q30 460 60 484T120 509Q162 509 182 489T203 434V171H207Q234 260 259 326T329 450T433 509Q473 509 485 480ZM433 715T433 682Q433 650 415 629T363 608Q343 608 330 617T301 643Q282 664 270 664Q251
664 251 635Q251 623 258 610L228 600Q206 627 206 660Q206 691 224 712T276 734Q295 734 308 725T336 700Q347 688 353 683T368 678Q387 678 387 707Q387 721 381 732L411 741Q433 715 433 682Z" />
<glyph unicode="&#xf2;" glyph-name="ograve" horiz-adv-x="550" d="M296 488Q221 440 178 381T135 242Q135 197 154 152T211 76T302 46Q345 46 378 66T430 120T449 195Q449 242 421 291T346 374T252 412Q272 432 300 454T357 497Q426 474 466 410T506 266Q506
196 478 132T394 27T264 -14Q204 -14 154 15T74 96T45 209Q45 318 109 398T278 509L296 488ZM366 593L243 733L183 660L351 572L366 593Z" />
<glyph unicode="&#xf3;" glyph-name="oacute" horiz-adv-x="550" d="M296 488Q221 440 178 381T135 242Q135 197 154 152T211 76T302 46Q345 46 378 66T430 120T449 195Q449 242 421 291T346 374T252 412Q272 432 300 454T357 497Q426 474 466 410T506 266Q506
196 478 132T394 27T264 -14Q204 -14 154 15T74 96T45 209Q45 318 109 398T278 509L296 488ZM319 733L197 593L212 573L380 660L319 733Z" />
<glyph unicode="&#xf4;" glyph-name="ocircumflex" horiz-adv-x="550" d="M296 488Q221 440 178 381T135 242Q135 197 154 152T211 76T302 46Q345 46 378 66T430 120T449 195Q449 242 421 291T346 374T252 412Q272 432 300 454T357 497Q426 474 466 410T506 266Q506
196 478 132T394 27T264 -14Q204 -14 154 15T74 96T45 209Q45 318 109 398T278 509L296 488ZM419 627L367 569L256 670L180 583L152 604L281 752L419 627Z" />
<glyph unicode="&#xf5;" glyph-name="otilde" horiz-adv-x="550" d="M296 488Q221 440 178 381T135 242Q135 197 154 152T211 76T302 46Q345 46 378 66T430 120T449 195Q449 242 421 291T346 374T252 412Q272 432 300 454T357 497Q426 474 466 410T506 266Q506
196 478 132T394 27T264 -14Q204 -14 154 15T74 96T45 209Q45 318 109 398T278 509L296 488ZM400 715T400 682Q400 650 382 629T330 608Q310 608 297 617T268 643Q249 664 237 664Q218 664 218 635Q218 623 225 610L195 600Q173 627 173 660Q173 691 191 712T243
734Q262 734 275 725T303 700Q314 688 320 683T335 678Q354 678 354 707Q354 721 348 732L378 741Q400 715 400 682Z" />
<glyph unicode="&#xf6;" glyph-name="odieresis" horiz-adv-x="550" d="M296 488Q221 440 178 381T135 242Q135 197 154 152T211 76T302 46Q345 46 378 66T430 120T449 195Q449 242 421 291T346 374T252 412Q272 432 300 454T357 497Q426 474 466 410T506 266Q506
196 478 132T394 27T264 -14Q204 -14 154 15T74 96T45 209Q45 318 109 398T278 509L296 488ZM220 730T237 713T255 671Q255 646 238 630T196 613Q172 613 155 630T138 671Q138 694 155 712T196 730Q220 730 237 713ZM397 730T414 713T431 671Q431 646 415 630T373
613Q349 613 332 630T314 671Q314 694 331 712T373 730Q397 730 414 713Z" />
<glyph unicode="&#xf7;" glyph-name="divide" horiz-adv-x="465" d="M217 544T203 530T189 496Q189 476 203 464T236 451Q255 451 269 463T283 496Q283 515 269 529T236 544Q217 544 203 530ZM49 335H386L418 414H80L49 335ZM217 299T203 286T189 253Q189 234
203 221T236 207Q254 207 268 220T283 253Q283 271 269 285T236 299Q217 299 203 286Z" />
<glyph unicode="&#xf8;" glyph-name="oslash" horiz-adv-x="550" d="M426 474T466 410T506 266Q506 196 478 132T394 27T264 -14Q204 -14 154 15T74 96T45 209Q45 318 109 398T278 509L296 488Q221 440 178 381T135 242Q135 197 154 152T211 76T302 46Q345 46
378 66T430 120T449 195Q449 242 421 291T346 374T252 412Q272 432 300 454T357 497Q426 474 466 410Z" />
<glyph unicode="&#xf9;" glyph-name="ugrave" horiz-adv-x="593" d="M484 87Q484 72 491 63T513 53Q534 53 564 92L579 77Q558 32 529 14T499 -5T473 -5Q441 -5 425 13T401 77T394 216Q394 271 395 304L387 324H384Q358 201 312 95T179 -12Q147 -12 133 4T115
47T112 132V414Q112 431 105 441T84 451Q60 451 30 411L18 427Q34 465 58 483T104 506T126 508Q125 508 123 508T117 507Q203 507 203 408V120Q203 98 208 89T220 79Q263 79 300 163T360 348T384 469L484 514V87ZM379 593L256 733L196 660L364 572L379 593Z" />
<glyph unicode="&#xfa;" glyph-name="uacute" horiz-adv-x="593" d="M484 87Q484 72 491 63T513 53Q534 53 564 92L579 77Q558 32 529 14T499 -5T473 -5Q441 -5 425 13T401 77T394 216Q394 271 395 304L387 324H384Q358 201 312 95T179 -12Q147 -12 133 4T115
47T112 132V414Q112 431 105 441T84 451Q60 451 30 411L18 427Q34 465 58 483T104 506T126 508Q125 508 123 508T117 507Q203 507 203 408V120Q203 98 208 89T220 79Q263 79 300 163T360 348T384 469L484 514V87ZM332 733L210 593L225 573L393 660L332 733Z" />
<glyph unicode="&#xfb;" glyph-name="ucircumflex" horiz-adv-x="593" d="M484 87Q484 72 491 63T513 53Q534 53 564 92L579 77Q558 32 529 14T499 -5T473 -5Q441 -5 425 13T401 77T394 216Q394 271 395 304L387 324H384Q358 201 312 95T179 -12Q147 -12 133 4T115
47T112 132V414Q112 431 105 441T84 451Q60 451 30 411L18 427Q34 465 58 483T104 506T126 508Q125 508 123 508T117 507Q203 507 203 408V120Q203 98 208 89T220 79Q263 79 300 163T360 348T384 469L484 514V87ZM432 627L380 569L269 670L193 583L165 604L294
752L432 627Z" />
<glyph unicode="&#xfc;" glyph-name="udieresis" horiz-adv-x="593" d="M484 87Q484 72 491 63T513 53Q534 53 564 92L579 77Q558 32 529 14T499 -5T473 -5Q441 -5 425 13T401 77T394 216Q394 271 395 304L387 324H384Q358 201 312 95T179 -12Q147 -12 133 4T115
47T112 132V414Q112 431 105 441T84 451Q60 451 30 411L18 427Q34 465 58 483T104 506T126 508Q125 508 123 508T117 507Q203 507 203 408V120Q203 98 208 89T220 79Q263 79 300 163T360 348T384 469L484 514V87ZM233 730T250 713T268 671Q268 646 251 630T209
613Q185 613 168 630T151 671Q151 694 168 712T209 730Q233 730 250 713ZM410 730T427 713T444 671Q444 646 428 630T386 613Q362 613 345 630T327 671Q327 694 344 712T386 730Q410 730 427 713Z" />
<glyph unicode="&#xfd;" glyph-name="yacute" horiz-adv-x="566" d="M484 54Q484 -40 447 -122T347 -253T215 -302Q188 -302 164 -294T114 -267L184 -178Q205 -199 233 -212T287 -225Q318 -225 343 -188T382 -86T397 61Q397 247 398 300V360H392Q310 -12 179 -12Q150
-12 136 -1T117 41T112 132V414Q112 430 104 441T84 452Q59 452 31 411L15 427Q37 474 58 491T121 508Q161 508 181 483T201 408V135Q201 98 222 98Q247 98 286 166T355 323T385 469L484 514V54ZM332 733L210 593L225 573L393 660L332 733Z" />
<glyph unicode="&#xfe;" glyph-name="thorn" horiz-adv-x="558" d="M369 505T413 475T484 392T511 277Q511 188 486 124T415 25T307 -10Q295 -10 279 -6T244 6L262 68Q290 51 337 51Q381 51 408 106T435 249Q435 299 414 340T357 405T283 429Q214 429 194 363T174
214V-289L84 -326V806Q84 820 77 830T56 841Q39 841 26 829T4 798L-11 818Q1 850 32 874T90 898Q134 898 154 874T174 802V393H179Q193 439 232 472T317 505Q369 505 413 475Z" />
<glyph unicode="&#xff;" glyph-name="ydieresis" horiz-adv-x="566" d="M484 54Q484 -40 447 -122T347 -253T215 -302Q188 -302 164 -294T114 -267L184 -178Q205 -199 233 -212T287 -225Q318 -225 343 -188T382 -86T397 61Q397 247 398 300V360H392Q310 -12 179
-12Q150 -12 136 -1T117 41T112 132V414Q112 430 104 441T84 452Q59 452 31 411L15 427Q37 474 58 491T121 508Q161 508 181 483T201 408V135Q201 98 222 98Q247 98 286 166T355 323T385 469L484 514V54ZM234 730T251 713T269 671Q269 646 252 630T210 613Q186
613 169 630T152 671Q152 694 169 712T210 730Q234 730 251 713ZM411 730T428 713T445 671Q445 646 429 630T387 613Q363 613 346 630T328 671Q328 694 345 712T387 730Q411 730 428 713Z" />
<glyph unicode="&#x2013;" glyph-name="endash" horiz-adv-x="513" d="M50 332H456V417H50V332Z" />
<glyph unicode="&#x2014;" glyph-name="emdash" horiz-adv-x="919" d="M50 332H862V417H50V332Z" />
<glyph unicode="&#x2018;" glyph-name="quoteleft" horiz-adv-x="244" d="M182 606T169 621T136 642Q138 655 146 669T165 693L145 710Q62 655 62 585Q62 559 79 542T122 524Q147 524 164 542T182 585Q182 606 169 621Z" />
<glyph unicode="&#x2019;" glyph-name="quoteright" horiz-adv-x="244" d="M182 673T165 691T122 710Q97 710 80 692T62 648Q62 627 75 611T108 590Q107 577 99 563T80 540L98 524Q135 546 158 578T182 648Q182 673 165 691Z" />
<glyph unicode="&#x201a;" glyph-name="quotesinglbase" horiz-adv-x="217" d="M134 103T152 85T170 42Q170 4 147 -28T85 -81L66 -65Q76 -57 84 -43T95 -16Q74 -11 61 5T48 42Q48 67 66 85T109 103Q134 103 152 85Z" />
<glyph unicode="&#x201c;" glyph-name="quotedblleft" horiz-adv-x="403" d="M182 606T169 621T136 642Q138 655 146 669T165 693L145 710Q62 655 62 585Q62 559 79 542T122 524Q147 524 164 542T182 585Q182 606 169 621ZM341 606T328 621T295 642Q298 656 306
670T325 693L304 710Q220 653 220 585Q220 560 238 542T281 524Q305 524 323 542T341 585Q341 606 328 621Z" />
<glyph unicode="&#x201d;" glyph-name="quotedblright" horiz-adv-x="403" d="M182 673T165 691T122 710Q97 710 80 692T62 648Q62 627 75 611T108 590Q107 577 99 563T80 540L98 524Q135 546 158 578T182 648Q182 673 165 691ZM341 673T323 691T280 710Q255 710
238 692T220 648Q220 627 233 611T266 590Q264 577 256 563T237 540L257 524Q294 546 317 578T341 648Q341 673 323 691Z" />
<glyph unicode="&#x201e;" glyph-name="quotedblbase" horiz-adv-x="376" d="M133 103T151 85T170 42Q170 4 146 -27T85 -81L66 -65Q76 -57 84 -43T95 -16Q74 -11 61 5T48 42Q48 67 66 85T108 103Q133 103 151 85ZM293 103T310 85T328 42Q328 4 305 -27T244 -81L225
-65Q235 -56 243 -43T254 -16Q233 -11 220 5T206 42Q206 67 224 85T268 103Q293 103 310 85Z" />
<glyph unicode="&#x2022;" glyph-name="bullet" horiz-adv-x="292" d="M253 419T222 451T147 483Q102 483 71 452T39 375Q39 331 70 301T147 270Q191 270 222 300T253 375Q253 419 222 451Z" />
<glyph unicode="&#x2039;" glyph-name="guilsinglleft" horiz-adv-x="276" d="M224 303L203 321L30 189L203 57L224 81L143 189L224 303Z" />
<glyph unicode="&#x203a;" glyph-name="guilsinglright" horiz-adv-x="276" d="M246 189L71 57L52 80L131 189L52 302L71 321L246 189Z" />
</font>
</defs>
</svg>
