<?xml version="1.0" standalone="no"?>
<!DOCTYPE svg PUBLIC "-//W3C//DTD SVG 1.1//EN" "http://www.w3.org/Graphics/SVG/1.1/DTD/svg11.dtd">
<svg xmlns="http://www.w3.org/2000/svg">
<defs >
<font id="Cinzel" horiz-adv-x="605" ><font-face
    font-family="Cinzel"
    units-per-em="1000"
    panose-1="0 0 5 0 0 0 0 0 0 0"
    ascent="971"
    descent="-372"
    alphabetic="0" />
<glyph unicode=" " glyph-name="space" horiz-adv-x="250" />
<glyph unicode="!" glyph-name="exclam" horiz-adv-x="230" d="M140 403L119 170H109L89 403L77 702H152L140 403ZM134 -4T115 -4T83 9T70 41T83 73T115 86T147 73T160 41T147 9Z" />
<glyph unicode="&quot;" glyph-name="quotedbl" horiz-adv-x="315" d="M50 505Q68 590 68 629T66 700L136 714Q136 709 136 693T131 641T107 560T59 500L50 505ZM180 505Q198 590 198 629T196 700L266 714Q266 709 266 693T261 641T237 560T189 500L180 505Z" />
<glyph unicode="#" glyph-name="numbersign" horiz-adv-x="536" d="M516 467H403L365 247H472V217H359L321 0H289L327 217H159L121 0H89L127 217H20V247H133L171 467H64V497H177L212 700H244L209 497H377L412 700H444L409 497H516V467ZM333 247L371 467H203L165 247H333Z" />
<glyph unicode="$" glyph-name="dollar" horiz-adv-x="469" d="M59 41Q55 55 55 95T70 180H79Q78 169 78 159Q78 105 106 66T190 18L215 339L126 421Q72 471 72 546Q72 592 94 630T155 691T243 714L249 788L279 787L274 713Q306 710 335 704H373V581H364Q364 637
320 665Q299 678 271 682L250 402L365 295Q415 249 415 182T392 73Q344 -13 218 -14L211 -102L181 -99L188 -11Q99 -1 59 41ZM194 681T161 648T128 564T169 477L221 428L241 683Q194 681 161 648ZM280 18T318 55T357 150T318 243L243 313L220 16H223Q280 18 318
55Z" />
<glyph unicode="%" glyph-name="percent" horiz-adv-x="684" d="M311 660Q327 629 327 596Q327 476 261 408Q215 361 154 361T64 408Q44 440 44 476Q44 598 109 665Q154 712 217 714Q235 714 253 709T311 681Q355 657 381 657T430 664T484 690T519 709L541 700L168
-11L143 0L499 676Q495 674 485 669T469 661T453 653T436 646T418 641T398 638T376 638Q349 640 311 660ZM269 537Q275 571 275 600T267 652Q252 694 213 694Q160 694 127 621Q96 554 96 477Q96 445 104 423Q119 381 158 381T226 423T269 537ZM470 339T531 339T621
291Q641 259 641 224Q641 101 576 34Q529 -14 468 -14T378 34Q358 66 358 101Q358 224 423 291Q470 339 531 339ZM583 162Q589 196 589 225T581 277Q566 319 527 319T459 277T416 162Q410 129 410 100T418 48Q433 6 472 6T540 48T583 162Z" />
<glyph unicode="&amp;" glyph-name="ampersand" horiz-adv-x="646" d="M627 375Q606 375 598 365T589 345T593 313T598 255Q598 176 561 111Q597 80 618 64T673 30T736 10V0Q735 0 720 0T698 0T674 1T645 4T616 11T584 22Q548 38 521 59Q450 -10 336 -10Q190 -10
110 51T30 224Q30 348 151 409Q113 470 113 543Q113 617 167 665Q223 714 314 714Q365 714 411 695T484 643L466 530H456Q456 602 417 643Q378 684 318 684T220 644T182 544T219 431T364 282T522 144Q543 190 543 239T522 331T458 375H443V385H642V375H627ZM487
88Q231 299 167 385Q103 325 103 229T164 76T336 20Q428 20 487 88Z" />
<glyph unicode="&apos;" glyph-name="quotesingle" horiz-adv-x="170" d="M35 505Q53 590 53 629T51 700L121 714Q121 709 121 693T116 641T92 560T44 500L35 505Z" />
<glyph unicode="(" glyph-name="parenleft" horiz-adv-x="338" d="M160 198T204 74T307 -91L301 -100Q215 -55 153 68Q90 194 90 335T152 589T303 732L309 724Q246 694 203 586T160 338Z" />
<glyph unicode=")" glyph-name="parenright" horiz-adv-x="338" d="M179 478T136 586T30 724L36 732Q125 701 187 589T249 340Q249 194 186 70T38 -100L32 -91Q90 -51 133 71Q179 198 179 338Z" />
<glyph unicode="*" glyph-name="asterisk" horiz-adv-x="386" d="M348 623L248 604L200 605L239 579L310 505L291 474L256 466L207 555L194 601L180 555L132 466L97 474L78 504L148 579L187 605L140 604L39 623L36 658L60 685L152 642L190 613L174 658L160 759L193
773L226 759L214 658L198 613L235 642L327 686L351 659L348 623Z" />
<glyph unicode="+" glyph-name="plus" horiz-adv-x="481" d="M442 332V287H263V109H218V287H40V332H218V511H263V332H442Z" />
<glyph unicode="," glyph-name="comma" horiz-adv-x="185" d="M45 -81Q72 -72 81 -56T91 -32Q91 -7 71 15Q56 33 54 40Q51 54 56 66Q65 86 89 86Q119 86 130 59T141 14Q141 -38 104 -67Q79 -88 47 -89L45 -81Z" />
<glyph unicode="-" glyph-name="hyphen" horiz-adv-x="380" d="M34 292L40 314H340L346 292L340 269H40L34 292Z" />
<glyph unicode="." glyph-name="period" horiz-adv-x="179" d="M109 -4T90 -4T58 9T45 41T58 73T90 86T122 73T135 41T122 9Z" />
<glyph unicode="/" glyph-name="slash" horiz-adv-x="406" d="M7 5L368 714L399 696L38 -14L7 5Z" />
<glyph unicode="0" glyph-name="zero" horiz-adv-x="596" d="M189 714T298 714T470 617T533 350T470 84T298 -14T126 83T63 350T126 616ZM375 684T298 684T177 595T133 350T177 106T298 16T419 105T463 350T419 594Z" />
<glyph unicode="1" glyph-name="one" horiz-adv-x="344" d="M263 10H284V0H67L68 10H89Q111 10 127 26T144 64V591Q144 640 98 640H60V650Q107 656 139 669T198 714H208V64Q208 41 224 26T263 10Z" />
<glyph unicode="2" glyph-name="two" horiz-adv-x="553" d="M253 714Q353 714 412 661T472 516Q472 459 444 400Q413 336 382 297T331 234T285 183T241 136T198 93T161 56H391Q434 56 457 74T508 141H518L470 0H60V10Q166 108 271 242Q326 313 361 385T397 512Q397
593 359 638T256 684Q183 684 142 645T102 536L92 535L74 649Q113 688 187 706Q221 714 253 714Z" />
<glyph unicode="3" glyph-name="three" horiz-adv-x="503" d="M61 641Q124 712 233 712Q311 712 362 671T414 566T371 452T277 397Q341 386 387 339T433 225T403 107Q340 0 203 -30Q165 -38 130 -38T60 -32L62 -22Q67 -22 72 -22Q145 -22 210 7T317 92T358 225T302
342T153 384L155 394Q155 394 156 394Q226 394 282 438Q309 459 323 490T338 556Q338 611 306 646T214 682T121 647T88 558Q88 553 88 548H78L61 641Z" />
<glyph unicode="4" glyph-name="four" horiz-adv-x="583" d="M416 249V63Q416 41 432 26T471 10H482V0H284L285 10H295Q318 10 334 25T351 62V249H40V259L406 714H416V304H459Q485 304 494 308T514 324H524L503 249H416ZM351 304V596L115 304H351Z" />
<glyph unicode="5" glyph-name="five" horiz-adv-x="498" d="M108 451Q164 463 209 463T294 449Q423 403 423 265Q423 209 405 164T359 89T298 35T229 -2Q140 -33 98 -33Q74 -33 50 -31L52 -21Q53 -21 64 -21T103 -14T163 6T226 43T284 95Q348 165 348 261Q348
317 313 358Q270 408 182 408Q130 408 66 389L57 393L135 664L333 679Q387 679 412 729H422L389 624L154 609L108 451Z" />
<glyph unicode="6" glyph-name="six" horiz-adv-x="560" d="M296 367Q224 367 185 315L179 324Q210 361 251 382T334 404T413 386T476 324Q505 271 505 195T449 53Q392 -15 292 -15T128 60T65 264Q65 373 102 477Q138 577 213 648Q289 721 401 734L405 727Q335
705 284 660T201 553Q140 433 140 272Q140 155 180 85T291 15T396 68T430 196Q430 305 368 346Q338 367 296 367Z" />
<glyph unicode="7" glyph-name="seven" horiz-adv-x="502" d="M120 645Q91 645 74 631T45 585H35L63 698H463L355 410Q325 329 282 201T221 0Q221 0 151 0Q264 284 314 414L402 645H120Z" />
<glyph unicode="8" glyph-name="eight" horiz-adv-x="552" d="M492 91T433 39T276 -14T119 38T60 171Q60 240 97 286T204 366Q96 444 96 547Q96 619 145 666Q195 714 276 714T406 669T456 545Q456 485 424 440T333 373Q424 328 458 283Q492 236 492 175Q492 91
433 39ZM171 560Q171 462 274 403L296 391Q381 454 381 553Q381 613 353 648T276 684T199 648T171 560ZM135 168Q135 99 172 58T277 16T381 58T417 161Q417 197 409 214T394 242T377 261T358 277T337 291T315 303T292 315Q257 333 234 347Q135 280 135 168Z" />
<glyph unicode="9" glyph-name="nine" horiz-adv-x="560" d="M420 542T381 612T270 682T165 630T131 501T166 377T269 330T376 382L381 373Q352 336 311 316T229 295Q128 295 82 376Q56 423 56 491Q56 588 114 649Q174 712 273 712T434 637T495 424Q495 322 459
221Q424 120 349 47Q272 -27 159 -37L156 -30Q224 -11 276 33T359 140Q420 261 420 401Z" />
<glyph unicode=":" glyph-name="colon" horiz-adv-x="170" d="M109 379T90 379T58 392T45 423T58 455T90 469T122 456T135 424T122 392ZM109 -4T90 -4T58 9T45 41T58 73T90 86T122 73T135 41T122 9Z" />
<glyph unicode=";" glyph-name="semicolon" horiz-adv-x="600" d="M109 407T90 407T58 420T45 452T58 484T90 497T122 484T135 453T122 421ZM45 -81Q72 -72 81 -56T91 -32Q91 -7 71 15Q56 33 54 40Q51 54 56 66Q65 86 89 86Q119 86 130 59T141 14Q141 -38 104
-67Q79 -88 47 -89L45 -81Z" />
<glyph unicode="&lt;" glyph-name="less" horiz-adv-x="481" d="M442 523V475L99 310L442 144V96L40 287V332L442 523Z" />
<glyph unicode="=" glyph-name="equal" horiz-adv-x="481" d="M40 364V409H442V364H40ZM40 189V234H442V189H40Z" />
<glyph unicode="&gt;" glyph-name="greater" horiz-adv-x="481" d="M40 523L442 332V287L40 96V144L382 310L40 475V523Z" />
<glyph unicode="?" glyph-name="question" horiz-adv-x="413" d="M168 714Q259 714 311 669T363 544Q363 482 323 433Q290 392 257 362Q198 308 186 267Q179 247 179 223T196 175L190 170Q146 211 146 266Q146 311 196 369Q217 393 238 419Q288 480 288 544Q288
633 232 667Q205 684 168 684Q108 684 74 644T40 536Q40 533 40 530H30L20 625Q43 667 81 690T168 714ZM199 -4T181 -4T149 9T135 41T148 73T180 86T212 73T225 41T212 9Z" />
<glyph unicode="@" glyph-name="at" horiz-adv-x="977" d="M59 166T59 240T91 395Q156 549 298 630Q408 693 540 693Q748 693 849 562Q917 473 917 357Q917 275 892 203T833 78T754 -15Q661 -100 520 -119Q493 -123 455 -123Q336 -123 194 -63L190 -53Q312 -98
416 -98Q465 -98 510 -88Q650 -57 740 49T850 309Q853 339 853 367Q853 471 803 546Q725 662 553 662Q440 662 343 606Q220 534 156 390Q115 299 115 220Q115 175 130 145Q150 103 192 103Q252 103 332 210Q343 224 363 253T390 291L517 464Q564 521 572 541H579L620
137Q623 114 634 102T661 90H666L665 83H507L508 90H515Q528 90 542 100T556 127L550 234H386Q326 150 283 112Q240 73 188 73T98 119ZM538 451L402 257H549L538 451Z" />
<glyph unicode="A" glyph-name="A" horiz-adv-x="712" d="M715 10H723V0H498V10H507Q528 10 538 23T549 49T545 73L481 243H211L144 72Q140 60 140 49T150 24T182 10H191V0H-10V10H-1Q24 10 48 26T87 73L313 611Q350 692 350 714H359L627 73Q641 42 665 26T715
10ZM223 273H469L349 594L223 273Z" />
<glyph unicode="B" glyph-name="B" horiz-adv-x="586" d="M304 0H60L61 10H73Q99 10 117 28T137 72V628Q137 654 118 672T73 690H61L60 700H259Q362 700 419 655T476 533Q476 473 444 434T366 381Q445 369 491 316T537 183T476 51T304 0ZM202 36H300Q301 36 302
36Q378 36 420 77T462 195Q462 238 448 270T411 322Q353 370 237 370Q237 370 236 370V379Q237 379 245 379T270 381T306 388T342 404T372 430Q401 463 401 528T364 631T255 668H202V36Z" />
<glyph unicode="C" glyph-name="C" horiz-adv-x="760" d="M259 -13T160 87T60 350T159 614T423 714Q557 714 660 646L680 505H671Q649 591 582 637T423 684Q292 684 214 593T135 352T212 111T417 16Q529 16 604 77Q685 143 702 292H710L698 135Q607 -14 417 -14Q259
-13 160 87Z" />
<glyph unicode="D" glyph-name="D" horiz-adv-x="807" d="M559 700T658 604T758 350T659 97T399 0H60V10H73Q99 10 117 28T137 73V633Q137 657 118 673T73 690H61L60 700H399Q559 700 658 604ZM202 670V30H399Q483 30 547 70T647 182T683 350Q683 494 605 582T399
670H202Z" />
<glyph unicode="E" glyph-name="E" horiz-adv-x="577" d="M73 10Q99 10 117 28T137 73V633Q134 657 116 673T73 690H61L60 700H353Q384 700 420 706T472 718V592H462V610Q462 634 446 651T406 669H202V360H371Q391 361 405 375T419 410V424H429V266H419V281Q419
301 406 315T372 330H202V31H345Q419 31 458 64T523 162H533L475 0H60V10H73Z" />
<glyph unicode="F" glyph-name="F" horiz-adv-x="541" d="M472 689V605H462V620Q462 640 448 654T413 669H202V360H371Q391 361 405 375T419 409V424H429V266H419V281Q419 301 406 315T372 330H202V73Q202 47 221 29T266 10H279V0H60V10H73Q99 10 117 28T137 73V633Q137
657 118 673T73 690H61L60 700H353Q384 700 420 706T472 718V689Z" />
<glyph unicode="G" glyph-name="G" horiz-adv-x="798" d="M259 -13T160 87T60 350T159 613T419 714Q557 714 662 646L682 505H673Q651 591 585 637T419 684Q292 684 214 592T135 350T213 109T419 16Q484 16 542 39T645 103V280Q645 302 632 313T594 325H578V335H774V325H759Q734
325 721 314T709 280V115Q683 81 647 54T551 7T419 -14Q259 -13 160 87Z" />
<glyph unicode="H" glyph-name="H" horiz-adv-x="813" d="M547 10Q573 10 591 28T611 72V331H202V73Q202 47 221 29T266 10H279V0H60V10H73Q99 10 117 28T137 73V628Q136 654 118 672T73 690H60V700H279V690H266Q240 690 222 672T202 628V361H611V628Q610 664
579 682Q564 690 547 690H534V700H753V690H740Q714 690 696 672T676 627V73Q677 47 695 29T740 10H753V0H534V10H547Z" />
<glyph unicode="I" glyph-name="I" horiz-adv-x="338" d="M73 10Q99 10 117 28T137 73V628Q136 654 118 672T73 690H60V700H279V690H266Q240 690 222 672T202 628V73Q202 47 221 29T266 10H279V0H60V10H73Z" />
<glyph unicode="J" glyph-name="J" horiz-adv-x="324" d="M266 690Q230 690 211 659Q203 645 202 627V0Q202 -84 150 -142T20 -200V-191Q69 -174 103 -118T137 3V627Q136 653 118 671T73 690H60V700H279V690H266Z" />
<glyph unicode="K" glyph-name="K" horiz-adv-x="657" d="M266 10H279V0H60V10H73Q99 10 117 28T137 73V628Q136 654 118 672T73 690H60V700H279V690H266Q240 690 222 672T202 628V73Q202 47 221 29T266 10ZM668 0H625Q523 0 475 57L234 348L470 644Q478 654 478
662T475 676Q467 691 446 691H436V700H647V691H643Q577 691 535 644L300 372L573 51Q613 11 668 10V0Z" />
<glyph unicode="L" glyph-name="L" horiz-adv-x="562" d="M73 10Q99 10 117 28T137 73V627Q136 653 118 671T73 690H60V700H279V690H266Q230 690 211 659Q202 644 202 627V31H345Q419 31 458 64T523 162H533L475 0H60V10H73Z" />
<glyph unicode="M" glyph-name="M" horiz-adv-x="931" d="M900 10H916V0H699V9H714Q731 9 743 22T753 52L708 555L498 88Q470 27 464 -14H454L198 541L155 52Q153 36 165 23T193 9H209V0H15V10H31Q59 10 79 27T104 73L179 714H189L468 111L741 714H750L827 73Q832
33 867 17Q882 10 900 10Z" />
<glyph unicode="N" glyph-name="N" horiz-adv-x="841" d="M778 690Q753 690 735 673T716 630V114Q716 56 723 4L725 -14H716L171 568V70Q172 35 202 18Q216 10 232 10H251V0H45V10H64Q89 10 107 27T125 71V590Q125 651 118 699L116 715H126L671 133V629Q670 655
652 672T609 690H590V700H796V690H778Z" />
<glyph unicode="O" glyph-name="O" horiz-adv-x="838" d="M269 714T429 714T689 614T789 350T689 87T429 -14T170 86T70 350T169 613ZM302 16T429 16T634 108T712 350Q712 449 677 525T578 642T429 684Q302 684 225 592T147 350T224 108Z" />
<glyph unicode="P" glyph-name="P" horiz-adv-x="577" d="M527 507Q527 463 509 425Q476 354 393 326Q364 316 343 316Q281 316 236 339V349Q309 333 371 365Q426 393 446 457Q452 477 452 495T452 517Q450 587 415 628T317 670H202V73Q203 47 221 29T266 10H279V0H60V10H73Q99
10 117 28T137 73V632Q134 657 116 673T73 690H61L60 700H321Q417 700 472 649T527 507Z" />
<glyph unicode="Q" glyph-name="Q" horiz-adv-x="837" d="M1270 -163T1224 -188T1131 -226T1048 -239Q932 -239 828 -194Q791 -178 703 -133Q506 -32 408 -14Q253 -10 157 90T60 351T159 613T419 714T678 614T777 350Q777 211 703 116T505 -5Q614 -38 836 -133Q942
-177 1052 -177Q1114 -177 1177 -162Q1265 -139 1324 -84L1328 -89Q1320 -110 1295 -136ZM291 684T213 592T135 350T213 108T419 16T624 108T702 350Q702 449 667 525T568 642T419 684Q291 684 213 592Z" />
<glyph unicode="R" glyph-name="R" horiz-adv-x="677" d="M266 669H202V73Q202 47 220 29T266 10H278L279 0H60V10H73Q99 10 117 28T137 72V627Q136 653 118 671T73 690H60V700H330Q421 700 473 650T525 519T476 380T355 321Q370 314 390 294T427 251Q513 128
539 100T576 61T600 40T626 24Q655 10 688 10V0H633Q590 0 553 15T498 47T466 79T391 183T320 283T299 308Q267 342 235 342V352Q243 351 256 351T288 352Q412 355 444 456Q450 476 450 493T450 516Q448 583 415 624T326 668Q302 669 266 669Z" />
<glyph unicode="S" glyph-name="S" horiz-adv-x="475" d="M61 41Q58 55 58 95T73 180H82Q81 169 81 158Q81 97 118 57T216 16Q279 16 319 54T360 149T321 243L129 421Q75 471 75 542T122 663T251 714Q289 714 337 704H376V581H367Q367 628 335 656T251 684T166
650T131 565T171 477L368 295Q418 249 418 169T367 38T231 -14Q187 -14 138 -1T61 41Z" />
<glyph unicode="T" glyph-name="T" horiz-adv-x="618" d="M589 611Q589 635 572 652T532 671H342V72Q343 46 361 28T406 10H419V0H200V10H213Q239 10 257 28T277 71V671H87Q63 670 47 653T30 611V594L20 593V719Q35 713 72 707T140 701H478Q527 701 559 708T599
719V593L589 594V611Z" />
<glyph unicode="U" glyph-name="U" horiz-adv-x="785" d="M735 690H719Q698 690 683 677T666 643V247Q666 130 592 58T395 -14T196 57T119 246V640Q119 670 93 684Q81 690 66 690H50V700H253V690H237Q215 690 200 677T184 642V260Q184 151 242 84T399 17T558 80T619
247V642Q618 663 603 676T566 690H550V700H735V690Z" />
<glyph unicode="V" glyph-name="V" horiz-adv-x="740" d="M750 690H741Q707 690 679 663Q663 649 654 628L413 89Q376 8 376 -14H367L86 627Q72 659 48 674T-2 690H-10V700H215V690H206Q176 690 166 662Q164 656 164 648T169 628L378 104L596 628Q600 640 600
651T590 676T558 690H549V700H750V690Z" />
<glyph unicode="W" glyph-name="W" horiz-adv-x="982" d="M992 690H984Q947 690 919 663Q903 649 896 628L730 99Q710 36 708 -12H699L495 560L343 99Q324 37 322 -12H313L86 629Q74 659 49 674T-2 690H-10V700H212V690H203Q182 690 172 677T161 651T164 629L316
142L502 716L511 715L708 162L842 630Q845 641 845 652T835 677T804 690H795V700H992V690Z" />
<glyph unicode="X" glyph-name="X" horiz-adv-x="662" d="M659 10H673V0H429V10H441Q463 10 475 30Q482 41 482 51T477 71L323 314L169 72Q163 62 163 52T170 31Q183 10 204 10H217V0H-10V10H4Q34 10 61 27T106 69L297 354L122 631Q98 666 61 682Q41 690 21 690H7V700H249V690H237Q216
690 203 670Q196 659 196 649T201 629L339 413L475 628Q481 638 481 648T475 669Q463 690 441 690H429V700H654V690H640Q610 690 584 673T539 631L364 373L558 68Q582 34 619 18Q639 10 659 10Z" />
<glyph unicode="Y" glyph-name="Y" horiz-adv-x="661" d="M672 690H658Q628 690 602 674T557 632L360 312V73Q360 47 378 29T424 10H436V0H218V10H231Q257 10 275 28T295 72V313L104 632Q89 656 62 673T4 690H-10V700H236V690H223Q201 690 189 670Q183 659 183
649T188 628L338 348L498 629Q503 639 503 649T496 670Q484 690 462 690H450V700H672V690Z" />
<glyph unicode="Z" glyph-name="Z" horiz-adv-x="651" d="M584 0H60V9L480 671H143Q118 670 101 653T84 611V593H74V719Q89 713 127 707T180 701T196 701H474Q523 701 549 706T580 714V705L152 30H470Q523 30 557 64T607 154H617L584 0Z" />
<glyph unicode="[" glyph-name="bracketleft" horiz-adv-x="332" d="M120 -90V722H289V712L185 692V-60L292 -80V-90H120Z" />
<glyph unicode="\" glyph-name="backslash" horiz-adv-x="406" d="M7 696L38 714L399 5L368 -14L7 696Z" />
<glyph unicode="]" glyph-name="bracketright" horiz-adv-x="332" d="M43 722H212V-90H40V-80L147 -60V692L43 712V722Z" />
<glyph unicode="^" glyph-name="asciicircum" horiz-adv-x="523" d="M232 371H292L488 182H425L262 336L98 182H35L232 371Z" />
<glyph unicode="_" glyph-name="underscore" horiz-adv-x="500" d="M0 -90V-60H500V-90H0Z" />
<glyph unicode="`" glyph-name="grave" horiz-adv-x="439" d="M240 753L233 746Q152 784 72 831Q86 859 113 884Q176 823 240 753Z" />
<glyph unicode="a" glyph-name="a" horiz-adv-x="663" d="M660 10H668V0H463V10H471Q490 10 500 23T510 47T506 70L451 203H198L143 73Q138 60 138 49T148 24T178 10H186V0H-5V10H3Q24 10 45 24T81 68Q300 536 309 558Q326 600 327 614H336L583 68Q612 10 660
10ZM211 233H439L327 507L211 233Z" />
<glyph unicode="b" glyph-name="b" horiz-adv-x="570" d="M452 517Q467 488 467 447T434 372T357 326Q430 318 477 273T525 175T505 87T450 35Q385 0 303 0H55V10H67Q92 10 109 25T127 64V536Q126 569 97 583Q84 590 67 590H55V600H259Q408 600 452 517ZM454 168Q454
317 221 317V327Q397 327 397 450Q397 570 258 570H190V30H302Q370 30 412 64T454 168Z" />
<glyph unicode="c" glyph-name="c" horiz-adv-x="705" d="M227 -13T139 71T50 300T138 530T380 614Q442 614 505 598T614 554L636 412H627Q584 584 379 584Q260 584 191 508T122 300Q122 214 153 151T243 52Q302 17 380 17T516 40T613 118T657 252H666L655 115Q616
55 542 21T380 -14Q227 -13 139 71Z" />
<glyph unicode="d" glyph-name="d" horiz-adv-x="760" d="M710 300Q710 161 624 81T389 0H55V10H68Q92 10 108 26T125 64V536Q124 560 108 575T67 590H55V600H389Q487 600 559 564T671 460T710 300ZM190 570V30H389Q504 30 571 102T638 300Q638 425 571 497T389 570H190Z" />
<glyph unicode="e" glyph-name="e" horiz-adv-x="546" d="M69 10Q93 10 109 25T127 63V538Q127 560 110 575T69 590H55V600H347Q388 600 419 606T459 616V502L448 503V518Q448 539 434 554T398 569H190V315H361Q381 315 391 327T402 357V370H413V230H402V243Q402
271 381 281Q373 284 364 285H190V31H347Q393 31 424 47T472 85T506 143H516L461 0H55V10H69Z" />
<glyph unicode="f" glyph-name="f" horiz-adv-x="523" d="M452 518Q452 552 423 565Q413 569 402 569H191V315H365Q385 315 395 327T405 357V370H417V230H405V243Q405 267 389 278Q380 284 367 285H191V64Q192 37 215 20Q230 10 250 10H264V0H55V10H69Q93 10 110
25T128 63V538Q127 569 99 583Q85 590 69 590H55V600H191H350Q379 600 414 605T463 616V502L452 503V518Z" />
<glyph unicode="g" glyph-name="g" horiz-adv-x="742" d="M229 -13T140 71T50 300T139 529T370 614T611 554L633 412H624Q603 500 543 542T372 584T192 508T122 300T192 93T385 16T598 103L599 236Q600 254 588 264T553 275H539V285H722V275H708Q663 275 663 235V115Q621
63 548 25T378 -14Q229 -13 140 71Z" />
<glyph unicode="h" glyph-name="h" horiz-adv-x="746" d="M500 10Q523 10 540 25T558 63V281H189V63Q190 41 207 26T247 10H259V0H55V10H67Q91 10 107 26T125 64V536Q124 558 107 574T67 590H55V600H259V590H247Q224 590 207 575T189 537V311H558V536Q558 558
545 570Q524 590 500 590H488V600H692V590H680Q657 590 640 575T622 538V63Q623 41 635 30Q657 10 680 10H692V0H488V10H500Z" />
<glyph unicode="i" glyph-name="i" horiz-adv-x="336" d="M69 10Q96 10 116 26T136 64V536Q136 558 116 574T68 590H55V600H281V590H268Q241 590 222 575T200 538V63Q201 41 221 26T268 10H281L282 0H55V10H69Z" />
<glyph unicode="j" glyph-name="j" horiz-adv-x="309" d="M261 590Q224 590 205 563Q197 551 196 536V0Q196 -73 142 -125T13 -178V-168Q62 -153 97 -104T132 0V540Q130 561 112 575T67 590H55L54 600H274V590H261Z" />
<glyph unicode="k" glyph-name="k" horiz-adv-x="624" d="M629 0H592Q494 0 445 57L225 298L440 551Q451 565 444 577T418 590H409V600H613V590H609Q548 590 512 554L294 321L542 51Q560 29 579 20T629 10V0ZM249 10H260V0H55V10H67Q91 10 108 26T126 64V536Q125
558 108 574T67 590H55V600H260V590H248Q216 590 198 564Q190 552 190 537V63Q190 41 207 26T249 10Z" />
<glyph unicode="l" glyph-name="l" horiz-adv-x="536" d="M69 10Q93 10 109 25T127 63V536Q126 558 109 574T67 590H55V600H262V590H250Q226 590 209 574T191 536V31H347Q393 31 425 47T473 85T506 143H516L461 0H55V10H69Z" />
<glyph unicode="m" glyph-name="m" horiz-adv-x="878" d="M856 10H871V0H663V9H678Q693 9 704 20T714 48L662 460L473 88Q445 27 438 -14H428L187 451L142 48Q140 33 151 21T179 9H193V0H8V10H23Q59 10 79 36Q89 49 91 67L169 614H179L443 106L698 614H707L788
65Q792 40 811 25T856 10Z" />
<glyph unicode="n" glyph-name="n" horiz-adv-x="779" d="M727 590Q705 590 689 576T672 540V114Q672 56 679 4L681 -14H672L152 479V62Q152 40 168 25T207 10H224V0H35V10H52Q75 10 91 25T107 62V490Q107 551 100 599L98 615L109 614L628 125V540Q626 561 610
575T572 590H555V600H744V590H727Z" />
<glyph unicode="o" glyph-name="o" horiz-adv-x="774" d="M295 614T387 614T557 575T679 463T725 300T680 137T557 26T399 -14T256 9T149 73T77 173T50 311T95 463T218 574ZM275 16T387 16T575 95T651 300T575 504T387 584T200 505T124 300T199 96Z" />
<glyph unicode="p" glyph-name="p" horiz-adv-x="553" d="M229 284Q252 278 271 278T302 279T336 285T376 303Q418 329 438 385Q445 405 445 439Q445 500 403 535T287 570H190V64Q191 32 219 17Q232 10 248 10H262V0H55V10H69Q93 10 109 25T127 63V537Q126 560
110 575T69 590H55V600H289Q394 600 455 554T517 430Q517 374 491 332Q440 250 333 250Q280 250 229 274V284Z" />
<glyph unicode="q" glyph-name="q" horiz-adv-x="777" d="M953 -153Q1105 -153 1191 -74L1194 -78Q1187 -96 1165 -119T1102 -166Q1021 -212 932 -212Q841 -212 752 -174Q715 -159 642 -121Q468 -30 385 -14Q242 -14 146 74T50 300Q50 368 76 427T146 527T252
591T392 614T547 575T667 463T711 300Q711 184 642 102T461 -5Q547 -30 758 -114Q855 -153 953 -153ZM124 425T124 300T197 96T380 16T564 95T638 300T564 504T381 584T198 505Z" />
<glyph unicode="r" glyph-name="r" horiz-adv-x="627" d="M242 569H189V64Q190 33 217 17Q230 10 246 10H259L260 0H55V10H69Q92 10 108 25T125 63V538Q125 560 109 575T69 590H55V600H306Q400 600 454 557T509 444T465 327T353 273Q385 259 430 195Q429 195 464
151T521 83T557 45Q594 10 642 10V0H611Q532 0 487 31Q453 54 425 88Q419 96 375 158T327 225Q273 292 226 292V302Q343 302 367 314Q400 331 412 350Q437 390 437 438Q437 499 401 532T304 568Q277 569 242 569Z" />
<glyph unicode="s" glyph-name="s" horiz-adv-x="462" d="M58 33Q55 45 55 82T68 157H80Q79 148 79 139Q79 85 114 51T213 16Q279 16 316 46T353 125T317 206L117 360Q69 401 69 470Q69 509 90 542T150 594T241 614T333 605H366L368 496H357Q357 538 328 561T245
584T156 557T121 486T160 410L362 254Q408 216 408 148T357 33T231 -14Q182 -14 133 -2T58 33Z" />
<glyph unicode="t" glyph-name="t" horiz-adv-x="578" d="M322 571V63Q323 32 352 17Q365 10 381 10H392V0H186V10H198Q222 10 239 26T257 64V571H76Q53 571 40 556T26 520V504H15V617Q35 609 71 605T126 601H452Q524 601 564 617V504H553V520Q553 541 539 556T503
571H322Z" />
<glyph unicode="u" glyph-name="u" horiz-adv-x="700" d="M665 590H650Q623 590 609 569Q603 560 602 548V211Q602 107 536 47T353 -14T170 46T103 210V547Q103 565 89 577T55 590H40V600H230V590H215Q195 590 181 578T167 547V222Q167 125 216 69T356 13T501
66T556 211V547Q555 566 542 578T508 590H493V600H665V590Z" />
<glyph unicode="v" glyph-name="v" horiz-adv-x="663" d="M668 590H660Q638 590 617 576T581 532Q363 64 354 42Q337 0 336 -14H327L80 531Q51 590 3 590H-5V600H200V590H192Q173 590 164 577T154 552T157 529L336 93L520 527Q525 540 525 551T515 576T485 590H478V600H668V590Z"
/>
<glyph unicode="w" glyph-name="w" horiz-adv-x="899" d="M904 590H897Q837 590 815 531L670 99Q648 36 647 -12H637L451 464L321 99Q301 37 299 -12H290L80 535Q57 590 0 590H-8V600H198V590H190Q172 590 163 579T153 557T156 536L289 129L458 616L468 615L647
159L759 530Q764 544 764 555T756 578T729 590H721V600H904V590Z" />
<glyph unicode="x" glyph-name="x" horiz-adv-x="626" d="M637 0H400V10H412Q432 10 441 23T451 45T446 63L308 261L162 64Q155 55 155 46T164 24T195 10H207V0H-11V10H2Q56 10 97 59L283 297L114 540Q99 561 73 575T18 590H5V600H240V590H228Q208 590 199 577T189
555T195 537L322 355L443 537Q449 545 449 554T440 576T410 590H398V600H620V590H606Q578 590 553 576T510 539L349 315L528 59Q550 30 577 20T624 10H637V0Z" />
<glyph unicode="y" glyph-name="y" horiz-adv-x="640" d="M645 590H633Q606 590 582 576T541 539L349 248V64Q349 42 366 26T407 10H419V0H214V10H226Q250 10 267 26T284 64V249L99 540Q65 590 7 590H-5V600H227V590H215Q196 590 188 578T179 558T181 542L327
283L482 541Q485 549 485 557T477 578T448 590H436V600H645V590Z" />
<glyph unicode="z" glyph-name="z" horiz-adv-x="608" d="M76 520V504H65V617Q78 611 112 607T177 601H407Q438 601 474 605T520 614V605L140 30H414Q460 31 492 46T540 84T573 143H583L529 0H50V9L423 571H125Q95 570 82 545Q76 533 76 520Z" />
<glyph unicode="{" glyph-name="braceleft" horiz-adv-x="337" d="M192 210L189 121Q189 31 204 -8T242 -65T298 -92L296 -100Q210 -100 167 -40T124 119Q124 144 129 186Q138 257 138 267T135 292Q127 310 85 314V324Q130 325 138 340Q140 352 140 362T138 389Q124
484 124 514Q124 613 167 673T296 733L298 725Q230 707 209 652Q189 602 189 511L191 424Q191 379 185 362Q171 325 141 316Q185 306 190 241Q192 224 192 210Z" />
<glyph unicode="|" glyph-name="bar" horiz-adv-x="245" d="M100 -180V700H145V-180H100Z" />
<glyph unicode="}" glyph-name="braceright" horiz-adv-x="337" d="M146 424L148 511Q148 602 133 641T96 698T40 725L42 733Q100 733 139 703Q213 648 213 514Q213 476 206 434Q192 352 200 340Q207 325 253 324V314Q210 310 202 292Q200 278 200 268T206 201T213
119Q213 20 171 -40T42 -100L40 -92Q107 -75 129 -20Q148 31 148 121L146 210Q146 254 152 272Q166 309 197 316Q154 329 148 391Q146 410 146 424Z" />
<glyph unicode="~" glyph-name="asciitilde" horiz-adv-x="493" d="M458 313Q458 274 435 249Q402 214 346 214Q310 214 260 248Q239 262 219 277Q167 313 138 313T96 294T82 255T85 219H40Q37 237 37 253Q37 295 59 321Q90 358 142 358Q186 358 250 309Q317 259
349 259T401 284Q414 299 414 317T408 353H453Q458 331 458 313Z" />
<glyph unicode="&#xa1;" glyph-name="exclamdown" horiz-adv-x="230" d="M96 706T115 706T147 693T160 661T147 629T115 616T83 629T70 660T83 692ZM90 299L111 529H121L141 299L153 0H78L90 299Z" />
<glyph unicode="&#xa2;" glyph-name="cent" horiz-adv-x="602" d="M181 88T116 159T50 352T127 545T336 617L343 701L373 700L367 615Q457 606 521 565L539 443H532Q501 572 364 586L325 105Q425 105 487 154T555 304H563L555 186Q522 133 462 104T322 75L315
-9L286 -6L293 77Q181 88 116 159ZM125 346Q125 209 203 146Q241 116 295 108L334 587Q234 587 180 524T125 346Z" />
<glyph unicode="&#xa3;" glyph-name="sterling" horiz-adv-x="577" d="M337 46Q481 46 538 159H548L502 24Q427 -10 346 -10Q293 -10 199 17Q165 27 130 27T68 0H58V10Q100 44 129 128T160 329H50L62 365H159Q158 387 158 407Q158 695 360 714Q369 715 391 715T446
700T502 657L475 566H465Q467 579 467 592Q467 636 442 660T374 685Q330 685 302 667T259 621Q228 562 228 431Q228 400 229 365H413L400 329H229Q228 202 194 141Q176 109 163 93T125 54Q156 64 191 61T241 56Q311 46 337 46Z" />
<glyph unicode="&#xa4;" glyph-name="currency" horiz-adv-x="541" d="M410 193Q350 139 270 139T130 191L71 132L50 154L109 212Q56 272 56 352T110 493L50 553L71 574L131 514Q191 565 270 565T409 513L470 574L492 553L430 492Q482 432 482 353T431 214L492
154L470 132L410 193ZM194 169T269 169T398 222T452 352T399 481T270 535T140 482T86 352T140 223Z" />
<glyph unicode="&#xa5;" glyph-name="yen" horiz-adv-x="661" d="M672 690H658Q628 690 602 674T557 632L423 415H550V385H405L360 312V295H550V265H360V72Q360 46 379 28T424 10H436V0H218V10H231Q257 10 275 28T295 73V265H105V295H295V313L252 385H105V415H234L104
632Q89 656 62 673T4 690H-10V700H236V690H223Q201 690 189 670Q183 659 183 649T188 628L338 348L498 629Q503 639 503 649T496 670Q484 690 462 690H450V700H672V690Z" />
<glyph unicode="&#xa6;" glyph-name="brokenbar" horiz-adv-x="245" d="M100 350V700H145V350H100ZM100 -180V170H145V-180H100Z" />
<glyph unicode="&#xa7;" glyph-name="section" horiz-adv-x="511" d="M404 677Q421 659 421 645Q421 624 408 614T380 612T347 634Q303 674 261 674Q239 674 207 652T175 597Q175 529 336 367Q447 255 447 120Q447 39 402 -34Q364 -97 303 -130Q258 -154 203 -154T116
-121Q99 -103 99 -89Q99 -66 115 -54Q120 -50 127 -50T152 -60T190 -90Q221 -116 251 -116T307 -98Q342 -74 342 -36Q342 40 179 197Q112 261 89 323T65 433Q65 506 108 582Q139 634 185 667Q247 711 310 711T404 677ZM139 583Q104 517 104 459Q104 357 224 248Q376
110 376 15Q376 0 371 -15Q407 41 407 98Q407 204 289 317Q169 433 146 506Q138 532 138 552T139 583Z" />
<glyph unicode="&#xa8;" glyph-name="dieresis" horiz-adv-x="600" d="M202 700T186 700T159 711T147 739T158 766T186 778T213 767T225 739T214 712ZM391 700T375 700T347 711T336 739T347 766T374 778T402 767T414 739T403 712Z" />
<glyph unicode="&#xa9;" glyph-name="copyright" horiz-adv-x="848" d="M273 714T424 714T681 608T788 350T682 93T424 -14T167 92T60 350T166 607ZM513 677T424 677T260 634T141 515T97 350T140 186T259 67T424 23T588 66T707 185T751 350T708 514T589 633ZM332
127T267 191T201 350T266 509T426 573T588 530L602 430H596Q583 484 539 515T427 547T314 491T267 351T313 211T421 154T521 169T586 222T616 316H622L615 219Q589 176 540 152T430 127Q332 127 267 191Z" />
<glyph unicode="&#xaa;" glyph-name="ordfeminine" horiz-adv-x="368" d="M364 383H368V378H245V383H250Q265 383 271 400Q273 408 269 420L243 486H120L91 419Q85 403 92 393T110 383H114V378H0V383H4Q31 383 48 418L160 655Q180 699 181 714H186L321 420Q339
383 364 383ZM130 510H234L184 638L130 510Z" />
<glyph unicode="&#xab;" glyph-name="guillemotleft" horiz-adv-x="453" d="M215 490L223 485L105 292L224 95L215 90L40 292L215 490ZM385 490L393 485L275 292L394 95L385 90L210 292L385 490Z" />
<glyph unicode="&#xac;" glyph-name="logicalnot" horiz-adv-x="601" d="M40 397H562V195H517V352H40V397Z" />
<glyph unicode="&#xad;" glyph-name="softhyphen" horiz-adv-x="380" d="M34 292L40 314H340L346 292L340 269H40L34 292Z" />
<glyph unicode="&#xae;" glyph-name="registered" horiz-adv-x="245" d="M76 701T123 701T203 668T236 588T203 508T123 475T43 508T10 588T43 668ZM84 495T122 495T188 522T216 588T189 653T123 681T57 654T30 588T57 523ZM145 652T156 643T168 621T160 598T139
586Q147 585 156 570T172 546T188 534V532H176Q156 532 148 540T137 552T129 565Q116 590 112 590V592H122Q142 596 142 619T117 642Q117 642 117 642L105 643V545Q105 534 115 534H118V532H68V534H70Q80 534 81 544V639Q80 650 70 650H68V652H105H126Q145 652
156 643Z" />
<glyph unicode="&#xaf;" glyph-name="overscore" horiz-adv-x="600" d="M170 703V738H420V703H170Z" />
<glyph unicode="&#xb0;" glyph-name="degree" horiz-adv-x="257" d="M88 664T128 664T198 636T227 566T198 496T129 467T59 496T30 566T59 635ZM153 625T129 625T87 608T69 566T86 524T128 507T170 524T188 566T171 608Z" />
<glyph unicode="&#xb1;" glyph-name="plusminus" horiz-adv-x="481" d="M263 402H442V357H263V179H218V357H40V402H218V581H263V402ZM40 60V105H442V60H40Z" />
<glyph unicode="&#xb2;" glyph-name="twosuperior" horiz-adv-x="375" d="M59 690T90 702T158 714T228 699T282 656T302 595T289 531T261 478T216 430Q180 398 149 375T113 350H251Q285 350 303 368Q315 381 329 406H335L304 308H30V315Q42 326 81 359T142 414T192
467Q247 530 247 583T222 662T156 689Q113 689 85 664T58 595H51L40 670Q59 690 90 702Z" />
<glyph unicode="&#xb3;" glyph-name="threesuperior" horiz-adv-x="310" d="M40 675Q71 712 130 712T223 687T258 627T232 565T172 532Q212 527 242 502T272 439Q272 351 202 309Q155 280 93 280Q63 280 30 286L31 293Q36 293 40 293Q117 293 168 330T219 437Q219
523 89 523L90 529Q140 529 173 554T206 615T186 670T131 688Q58 688 58 618Q58 615 58 613H51L40 675Z" />
<glyph unicode="&#xb4;" glyph-name="acute" horiz-adv-x="439" d="M208 746L201 753Q277 835 328 884Q354 857 369 831Q304 794 208 746Z" />
<glyph unicode="&#xb6;" glyph-name="paragraph" horiz-adv-x="520" d="M392 670V147Q392 88 383 55T344 -13L335 -5Q360 37 361 85Q362 100 362 145V670H279V0Q279 -93 259 -133Q237 -176 193 -199L186 -190Q227 -148 237 -115T247 -47T246 0V333Q161 333 106
383T50 516T106 649T246 700H408Q408 700 415 700T424 700T432 700T443 702T453 705T465 710T477 718Q489 726 503 743L510 737Q481 672 405 670H392Z" />
<glyph unicode="&#xb7;" glyph-name="middot" horiz-adv-x="170" d="M104 305T85 305T53 318T40 350T53 382T85 395T117 382T130 350T117 318Z" />
<glyph unicode="&#xb8;" glyph-name="cedilla" horiz-adv-x="600" d="M282 -48Q313 -37 338 -44Q387 -57 387 -105T343 -174Q317 -186 293 -186T246 -179L247 -169Q283 -169 310 -154T337 -108Q337 -64 286 -64Q269 -64 253 -72L248 -62L296 1H323L282 -48Z" />
<glyph unicode="&#xb9;" glyph-name="onesuperior" horiz-adv-x="211" d="M191 315V308H45V315H59Q74 315 85 325T96 351V632Q96 665 65 665H40V671Q72 676 94 684T134 714H140V350Q140 336 151 326T177 315H191Z" />
<glyph unicode="&#xba;" glyph-name="ordmasculine" horiz-adv-x="412" d="M133 714T206 714T331 664T383 542T331 420T206 370T82 420T30 542T81 664ZM154 391T206 391T293 434T328 542T294 650T207 693T120 650T85 542T119 434Z" />
<glyph unicode="&#xbb;" glyph-name="guillemotright" horiz-adv-x="453" d="M69 90L60 95L179 292L61 485L69 490L244 292L69 90ZM239 90L230 95L349 292L231 485L239 490L414 292L239 90Z" />
<glyph unicode="&#xbc;" glyph-name="onequarter" horiz-adv-x="713" d="M578 714L602 697L125 -14L100 2L578 714ZM211 308H65V315H79Q94 315 105 325T116 351V632Q116 665 85 665H60V671Q92 676 114 684T154 714H161V350Q161 336 171 326T197 315H211V308ZM617
130V41Q618 27 628 17T654 6H661V-1H529V6H536Q551 6 561 15T573 40V130H391V136L611 405H617V163H646Q663 163 669 166T683 177H689L675 130H617ZM573 163V323L445 163H573Z" />
<glyph unicode="&#xbd;" glyph-name="onehalf" horiz-adv-x="805" d="M577 714L601 697L124 -14L99 2L577 714ZM211 315V308H65V315H79Q94 315 105 325T116 351V632Q116 665 85 665H60V671Q81 674 95 678Q131 687 154 714H160V350Q160 336 171 326T197 315H211ZM583
406Q646 406 689 372T732 284Q732 183 601 84Q584 71 566 58T543 42H681Q709 42 724 53T759 98H765L734 0H460V7Q473 19 502 44T551 87T597 132T639 181Q677 235 677 281T652 354T586 381Q543 381 515 356T488 287H481L469 362Q489 382 520 394T583 406Z" />
<glyph unicode="&#xbe;" glyph-name="threequarters" horiz-adv-x="713" d="M621 714L645 697L168 -14L143 2L621 714ZM40 675Q71 712 130 712T223 687T258 627T232 565T172 532Q228 525 257 484Q272 464 272 439Q272 351 202 309Q155 280 93 280Q63 280 30 286L31
293Q35 293 55 293T107 301T165 327Q219 365 219 437Q219 523 89 523L90 529Q140 529 173 554T206 615T186 670T131 688Q58 688 58 618Q58 615 58 613H51L40 675ZM622 130V41Q622 27 633 17T659 6H666V-1H534V6H541Q556 6 566 15T578 40V130H396V136L616 405H622V163H651Q668
163 674 166T687 177H694L680 130H622ZM578 163V323L450 163H578Z" />
<glyph unicode="&#xbf;" glyph-name="questiondown" horiz-adv-x="433" d="M214 704T233 704T265 691T278 659T265 627T233 614T201 627T188 659T201 691ZM393 75Q345 -14 239 -14Q185 -14 141 6Q50 48 50 156Q50 218 90 267Q124 308 156 338Q215 392 227 433Q235
453 235 477T217 525L223 530Q268 489 268 434Q268 389 217 331Q196 307 175 281Q125 220 125 155T157 53T247 16T339 56T373 164Q373 167 373 170H383L393 75Z" />
<glyph unicode="&#xc0;" glyph-name="Agrave" horiz-adv-x="712" d="M364 771L357 764Q276 802 196 849Q210 877 237 902Q300 841 364 771ZM715 10H723V0H498V10H507Q528 10 538 23T549 49T545 73L481 243H211L144 72Q130 30 164 14Q173 10 182 10H191V0H-10V10H-1Q24
10 48 26T87 73L313 611Q350 692 350 714H359L627 73Q646 31 683 16Q698 10 715 10ZM223 273H469L349 594L223 273Z" />
<glyph unicode="&#xc1;" glyph-name="Aacute" horiz-adv-x="712" d="M357 764L350 771Q426 853 477 902Q503 875 517 849Q453 812 357 764ZM715 10H723V0H498V10H507Q528 10 538 23T549 49T545 73L481 243H211L144 72Q140 60 140 49T150 24T182 10H191V0H-10V10H-1Q24
10 48 26T87 73L313 611Q350 692 350 714H359L627 73Q641 42 665 26T715 10ZM223 273H469L349 594L223 273Z" />
<glyph unicode="&#xc2;" glyph-name="Acircumflex" horiz-adv-x="712" d="M351 890H361L476 771L470 763L356 829L251 763L245 771L351 890ZM715 10H723V0H498V10H507Q528 10 538 23T549 49T545 73L481 243H211L144 72Q140 60 140 49T150 24T182 10H191V0H-10V10H-1Q24
10 48 26T87 73L313 611Q350 692 350 714H359L627 73Q641 42 665 26T715 10ZM223 273H469L349 594L223 273Z" />
<glyph unicode="&#xc3;" glyph-name="Atilde" horiz-adv-x="712" d="M427 809Q468 809 482 843H492Q487 793 458 773Q444 764 424 764T363 786T306 808Q269 808 252 767H242Q248 806 265 829T306 852T370 831T427 809ZM715 10H723V0H498V10H507Q528 10 538 23T549
49T545 73L481 243H211L144 72Q140 60 140 49T150 24T182 10H191V0H-10V10H-1Q24 10 48 26T87 73L313 611Q350 692 350 714H359L627 73Q641 42 665 26T715 10ZM223 273H469L349 594L223 273Z" />
<glyph unicode="&#xc4;" glyph-name="Adieresis" horiz-adv-x="712" d="M279 764T263 764T235 775T223 803T234 830T262 842T290 831T302 803T291 776ZM467 764T451 764T424 775T412 803T423 830T451 842T478 831T490 803T479 776ZM715 10H723V0H498V10H507Q528
10 538 23T549 49T545 73L481 243H211L144 72Q140 60 140 49T150 24T182 10H191V0H-10V10H-1Q24 10 48 26T87 73L313 611Q350 692 350 714H359L627 73Q641 42 665 26T715 10ZM223 273H469L349 594L223 273Z" />
<glyph unicode="&#xc5;" glyph-name="Aring" horiz-adv-x="712" d="M715 10H723V0H498V10H507Q528 10 538 23T549 49T545 73L481 243H211L144 72Q130 30 164 14Q173 10 182 10H191V0H-10V10H-1Q24 10 48 26T87 73L313 611Q341 671 348 702Q315 704 293 722T271
770T295 818T356 837T417 819T441 772T420 723T365 702L627 73Q641 42 665 26T715 10ZM311 794T311 770T323 731T355 717T387 731T400 769T388 808T356 822T324 808ZM223 273H469L349 594L223 273Z" />
<glyph unicode="&#xc6;" glyph-name="AE" horiz-adv-x="902" d="M802 0H406L407 10H416Q436 10 450 24T466 58V320H302L152 67Q145 54 145 45T148 27Q156 10 176 10Q178 10 179 10H189V0H-10V10H-3Q21 10 47 28T89 71L463 655Q469 668 463 679T442 690H438V700H681Q712
700 749 706T800 718V605H790V620Q790 640 776 654T742 669H531V350H700Q720 351 734 365T748 400V414H758V256H748V271Q748 291 734 305T701 320H531V31H695Q803 32 848 139H858L802 0ZM466 350V598L319 350H466Z" />
<glyph unicode="&#xc7;" glyph-name="Ccedilla" horiz-adv-x="760" d="M394 -57Q425 -46 450 -53Q499 -66 499 -114T455 -183Q430 -195 406 -195T358 -188L359 -178Q395 -178 422 -163T449 -117Q449 -73 398 -73Q382 -73 365 -81L360 -71L404 -14Q251 -9 156 90T60
352T159 614T423 714Q557 714 660 646L680 505H671Q649 591 582 637T423 684Q292 684 214 593T135 352T212 111T417 16Q529 16 604 77Q685 143 702 292H710L698 135Q611 -8 432 -14L394 -57Z" />
<glyph unicode="&#xc8;" glyph-name="Egrave" horiz-adv-x="577" d="M305 771L298 764Q218 802 137 849Q152 877 178 902Q242 841 305 771ZM73 10Q99 10 117 28T137 73V633Q134 657 116 673T73 690H61L60 700H353Q396 700 429 707T472 718V592H462V610Q462 634
446 651T406 669H202V360H371Q391 361 405 375T419 410V424H429V266H419V281Q419 301 406 315T372 330H202V31H345Q419 31 458 64T523 162H533L475 0H60V10H73Z" />
<glyph unicode="&#xc9;" glyph-name="Eacute" horiz-adv-x="577" d="M298 764L291 771Q367 853 418 902Q445 875 459 849Q395 812 298 764ZM73 10Q99 10 117 28T137 73V633Q134 657 116 673T73 690H61L60 700H353Q396 700 429 707T472 718V592H462V610Q462 634
446 651T406 669H202V360H371Q391 361 405 375T419 410V424H429V266H419V281Q419 301 406 315T372 330H202V31H345Q419 31 458 64T523 162H533L475 0H60V10H73Z" />
<glyph unicode="&#xca;" glyph-name="Ecircumflex" horiz-adv-x="577" d="M293 890H303L417 771L411 763L298 829L193 763L187 771L293 890ZM73 10Q99 10 117 28T137 73V633Q133 666 104 683Q90 690 73 690H61L60 700H353Q396 700 429 707T472 718V592H462V610Q462
634 446 651T406 669H202V360H371Q391 361 405 375T419 410V424H429V266H419V281Q419 301 406 315T372 330H202V31H345Q419 31 458 64T523 162H533L475 0H60V10H73Z" />
<glyph unicode="&#xcb;" glyph-name="Edieresis" horiz-adv-x="577" d="M220 764T204 764T177 775T165 803T176 830T204 842T231 831T243 803T232 776ZM409 764T393 764T365 775T353 803T364 830T392 842T420 831T432 803T421 776ZM73 10Q99 10 117 28T137 73V633Q133
666 104 683Q89 690 73 690H61L60 700H353Q396 700 429 707T472 718V592H462V610Q462 634 446 651T406 669H202V360H371Q391 361 405 375T419 410V424H429V266H419V281Q419 312 390 326Q382 330 372 330H202V31H345Q419 31 458 64T523 162H533L475 0H60V10H73Z"
/>
<glyph unicode="&#xcc;" glyph-name="Igrave" horiz-adv-x="338" d="M176 771L169 764Q89 802 8 849Q23 877 49 902Q113 841 176 771ZM73 10Q99 10 117 28T137 73V628Q136 654 118 672T73 690H60V700H279V690H266Q240 690 222 672T202 628V73Q202 47 221 29T266
10H279V0H60V10H73Z" />
<glyph unicode="&#xcd;" glyph-name="Iacute" horiz-adv-x="338" d="M169 764L162 771Q238 853 289 902Q316 875 330 849Q266 812 169 764ZM73 10Q99 10 117 28T137 73V628Q136 654 118 672T73 690H60V700H279V690H266Q240 690 222 672T202 628V73Q202 47 221
29T266 10H279V0H60V10H73Z" />
<glyph unicode="&#xce;" glyph-name="Icircumflex" horiz-adv-x="338" d="M164 890H174L288 771L282 763L169 829L64 763L58 771L164 890ZM73 10Q99 10 117 28T137 73V628Q136 654 118 672T73 690H60V700H279V690H266Q240 690 222 672T202 628V73Q202 47 221 29T266
10H279V0H60V10H73Z" />
<glyph unicode="&#xcf;" glyph-name="Idieresis" horiz-adv-x="338" d="M91 764T75 764T48 775T36 803T47 830T75 842T102 831T114 803T103 776ZM280 764T264 764T236 775T224 803T235 830T263 842T291 831T303 803T292 776ZM73 10Q99 10 117 28T137 73V628Q136
654 118 672T73 690H60V700H279V690H266Q240 690 222 672T202 628V73Q202 47 221 29T266 10H279V0H60V10H73Z" />
<glyph unicode="&#xd0;" glyph-name="Eth" horiz-adv-x="807" d="M563 700T660 604T758 350T661 96T403 0H65V10H78Q104 10 122 28T142 73V335H60V365H142V633Q142 657 123 673T78 690H65V700H403Q563 700 660 604ZM207 335V30H403Q531 30 609 118T688 350T610
582T403 670H207V365H370V335H207Z" />
<glyph unicode="&#xd1;" glyph-name="Ntilde" horiz-adv-x="841" d="M496 809Q538 809 552 843H562Q556 793 527 773Q513 764 493 764T432 786T376 808Q338 808 321 767H311Q317 806 334 829T375 852T440 831T496 809ZM778 690Q753 690 735 673T716 630V114Q716
56 723 4L725 -14H716L171 568V70Q172 35 202 18Q216 10 232 10H251V0H45V10H64Q89 10 107 27T125 71V590Q125 651 118 699L116 715H126L671 133V629Q670 655 652 672T609 690H590V700H796V690H778Z" />
<glyph unicode="&#xd2;" glyph-name="Ograve" horiz-adv-x="838" d="M426 771L419 764Q339 802 258 849Q273 877 299 902Q363 841 426 771ZM259 714T419 714T679 614T779 350T679 87T419 -14T160 86T60 350T159 613ZM292 16T419 16T624 108T702 350Q702 449 667
525T568 642T419 684Q292 684 215 592T137 350T214 108Z" />
<glyph unicode="&#xd3;" glyph-name="Oacute" horiz-adv-x="838" d="M429 764L422 771Q498 853 549 902Q576 875 590 849Q525 812 429 764ZM269 714T429 714T689 614T789 350T689 87T429 -14T170 86T70 350T169 613ZM302 16T429 16T634 108T712 350Q712 449 677
525T578 642T429 684Q302 684 225 592T147 350T224 108Z" />
<glyph unicode="&#xd4;" glyph-name="Ocircumflex" horiz-adv-x="838" d="M424 890H434L548 771L542 763L428 829L324 763L318 771L424 890ZM269 714T429 714T689 614T789 350T689 87T429 -14T170 86T70 350T169 613ZM302 16T429 16T634 108T712 350Q712 449 677
525T578 642T429 684Q302 684 225 592T147 350T224 108Z" />
<glyph unicode="&#xd5;" glyph-name="Otilde" horiz-adv-x="838" d="M499 809Q541 809 555 843H565Q559 793 530 773Q517 764 497 764T435 786T379 808Q341 808 325 767H315Q320 806 337 829T379 852T443 831T499 809ZM269 714T429 714T689 614T789 350T689 87T429
-14T170 86T70 350T169 613ZM302 16T429 16T634 108T712 350Q712 449 677 525T578 642T429 684Q302 684 225 592T147 350T224 108Z" />
<glyph unicode="&#xd6;" glyph-name="Odieresis" horiz-adv-x="838" d="M351 764T335 764T308 775T296 803T307 830T335 842T362 831T374 803T363 776ZM539 764T523 764T496 775T484 803T495 830T523 842T550 831T562 803T551 776ZM269 714T429 714T689 614T789
350T689 87T429 -14T170 86T70 350T169 613ZM302 16T429 16T634 108T712 350Q712 449 677 525T578 642T429 684Q302 684 225 592T147 350T224 108Z" />
<glyph unicode="&#xd7;" glyph-name="multiply" horiz-adv-x="415" d="M366 436L240 310L366 184L334 152L208 278L82 152L50 184L176 310L50 436L82 468L208 342L334 468L366 436Z" />
<glyph unicode="&#xd8;" glyph-name="Oslash" horiz-adv-x="828" d="M769 350Q769 242 725 159T601 31T414 -14Q282 -14 190 57L123 -23L98 -1L164 79Q60 180 60 350Q60 431 85 499T157 614T269 687T414 714Q544 714 635 646L699 722L725 700L661 624Q769 523
769 350ZM605 608Q529 684 408 684T210 592T132 356T199 121L605 608ZM221 95Q297 16 419 16T619 108T697 346T627 583L221 95Z" />
<glyph unicode="&#xd9;" glyph-name="Ugrave" horiz-adv-x="785" d="M409 771L402 764Q321 802 241 849Q255 877 282 902Q345 841 409 771ZM735 690H719Q698 690 683 677T666 643V247Q666 130 592 58T395 -14T196 57T119 246V640Q119 670 93 684Q81 690 66 690H50V700H253V690H237Q215
690 200 677T184 642V260Q184 151 242 84T399 17T558 80T619 247V642Q618 663 603 676T566 690H550V700H735V690Z" />
<glyph unicode="&#xda;" glyph-name="Uacute" horiz-adv-x="785" d="M402 764L395 771Q471 853 522 902Q548 875 562 849Q498 812 402 764ZM735 690H719Q698 690 683 677T666 643V247Q666 130 592 58T395 -14T196 57T119 246V641Q119 662 104 676T66 690H50V700H253V690H237Q207
690 192 667Q185 656 184 642V260Q184 151 242 84T396 17Q497 17 558 80T619 247V642Q618 675 587 686Q577 690 566 690H550V700H735V690Z" />
<glyph unicode="&#xdb;" glyph-name="Ucircumflex" horiz-adv-x="785" d="M396 890H406L521 771L515 763L401 829L296 763L290 771L396 890ZM735 690H719Q698 690 683 677T666 643V247Q666 130 592 58T395 -14T196 57T119 246V640Q119 662 104 676T66 690H50V700H253V690H237Q215
690 200 677T184 642V260Q184 151 242 84T399 17T558 80T619 247V642Q618 675 587 686Q577 690 566 690H550V700H735V690Z" />
<glyph unicode="&#xdc;" glyph-name="Udieresis" horiz-adv-x="785" d="M324 764T308 764T280 775T268 803T279 830T307 842T335 831T347 803T336 776ZM512 764T496 764T469 775T457 803T468 830T496 842T523 831T535 803T524 776ZM735 690H719Q698 690 683 677T666
643V247Q666 130 592 58T395 -14T196 57T119 246V640Q119 670 93 684Q81 690 66 690H50V700H253V690H237Q207 690 192 667Q185 656 184 642V260Q184 151 242 84T396 17Q497 17 558 80T619 247V642Q618 675 587 686Q577 690 566 690H550V700H735V690Z" />
<glyph unicode="&#xdd;" glyph-name="Yacute" horiz-adv-x="661" d="M340 764L333 771Q409 853 460 902Q487 875 501 849Q437 812 340 764ZM672 690H658Q628 690 602 674T557 632L360 312V73Q360 47 378 29T424 10H436V0H218V10H231Q257 10 275 28T295 72V313L104
632Q89 656 62 673T4 690H-10V700H236V690H223Q201 690 189 670Q183 659 183 649T188 628L338 348L498 629Q503 639 503 649T496 670Q483 690 462 690H450V700H672V690Z" />
<glyph unicode="&#xde;" glyph-name="Thorn" horiz-adv-x="554" d="M505 399T505 355T487 273Q455 202 374 174Q345 164 325 164Q263 164 219 187V197Q291 181 354 213Q408 240 428 305Q435 325 435 342T435 365Q433 435 398 476T300 518H185V73Q185 36 217 18Q231
10 249 10H261V0H43V10H55Q82 10 100 28T120 73V628Q119 654 101 672T56 690H43V700H261V690H249Q223 690 204 672T185 628V548H304Q451 548 492 435Q505 399 505 355Z" />
<glyph unicode="&#xdf;" glyph-name="germandbls" horiz-adv-x="924" d="M58 33Q55 45 55 82T68 157H80Q79 148 79 139Q79 85 114 51T213 16Q279 16 316 46T353 125T317 206L117 360Q69 401 69 470Q69 509 90 542T150 594T241 614T333 605H366L368 496H357Q357
538 328 561T245 584T156 557T121 486T160 410L362 254Q408 216 408 148T357 33T231 -14Q182 -14 133 -2T58 33ZM520 33Q517 45 517 82T530 157H542Q541 148 541 139Q541 85 576 51T675 16Q741 16 778 46T815 125T779 206L579 360Q531 401 531 470Q531 509 552
542T612 594T703 614T795 605H828L830 496H819Q819 538 790 561T707 584T618 557T583 486T622 410L825 254Q870 216 870 148T819 33T693 -14Q644 -14 595 -2T520 33Z" />
<glyph unicode="&#xe0;" glyph-name="agrave" horiz-adv-x="663" d="M339 671L332 664Q252 702 171 749Q186 777 212 802Q276 741 339 671ZM660 10H668V0H463V10H471Q490 10 500 23T510 47T506 70L451 203H198L143 73Q138 60 138 49T148 24T178 10H186V0H-5V10H3Q24
10 45 24T81 68Q288 511 306 551T327 614H336L583 68Q612 10 660 10ZM211 233H439L327 507L211 233Z" />
<glyph unicode="&#xe1;" glyph-name="aacute" horiz-adv-x="663" d="M332 664L325 671Q401 753 452 802Q479 775 493 749Q429 712 332 664ZM660 10H668V0H463V10H471Q490 10 500 23T510 47T506 70L451 203H198L143 73Q138 60 138 49T148 24T178 10H186V0H-5V10H3Q24
10 45 24T81 68Q300 536 309 558Q326 600 327 614H336L583 68Q612 10 660 10ZM211 233H439L327 507L211 233Z" />
<glyph unicode="&#xe2;" glyph-name="acircumflex" horiz-adv-x="663" d="M327 790H337L451 671L445 663L331 729L227 663L221 671L327 790ZM660 10H668V0H463V10H471Q490 10 500 23T510 47T506 70L451 203H198L143 73Q139 60 139 52T142 35T155 18T178 10H186V0H-5V10H3Q24
10 45 24T81 68Q300 536 309 558Q326 600 327 614H336L583 68Q612 10 660 10ZM211 233H439L327 507L211 233Z" />
<glyph unicode="&#xe3;" glyph-name="atilde" horiz-adv-x="663" d="M402 709Q444 709 458 743H468Q462 693 433 673Q420 664 400 664T339 686T282 708Q244 708 228 667Q228 667 218 667Q225 721 253 742Q266 752 286 752T346 731T402 709ZM660 10H668V0H463V10H471Q490
10 500 23T510 47T506 70L451 203H198L143 73Q139 60 139 52T142 35T155 18T178 10H186V0H-5V10H3Q24 10 45 24T81 68Q300 536 309 558Q326 600 327 614H336L583 68Q612 10 660 10ZM211 233H439L327 507L211 233Z" />
<glyph unicode="&#xe4;" glyph-name="adieresis" horiz-adv-x="663" d="M254 664T238 664T211 675T199 703T210 730T238 742T265 731T277 703T266 676ZM442 664T426 664T399 675T387 703T398 730T426 742T453 731T465 703T454 676ZM660 10H668V0H463V10H471Q490
10 500 23T510 47T506 70L451 203H198L143 73Q138 60 138 49T148 24T178 10H186V0H-5V10H3Q24 10 45 24T81 68Q300 536 309 558Q326 600 327 614H336L583 68Q612 10 660 10ZM211 233H439L327 507L211 233Z" />
<glyph unicode="&#xe5;" glyph-name="aring" horiz-adv-x="663" d="M373 814T399 794T426 746T414 701Q388 664 340 664T266 685T239 739T265 793T332 814ZM354 797T333 797T297 782T283 739T297 697T332 682T367 697T381 739T368 781ZM660 10H668V0H463V10H471Q490
10 500 23T510 47T506 70L451 203H198L143 73Q138 60 138 49T148 24T178 10H186V0H-5V10H3Q24 10 45 24T81 68Q288 511 306 551T327 614H336L583 68Q612 10 660 10ZM211 233H439L327 507L211 233Z" />
<glyph unicode="&#xe6;" glyph-name="ae" horiz-adv-x="834" d="M390 10Q408 10 420 21T433 50V271H280L140 51Q132 27 147 16Q155 10 166 10H174V0H-5V10H1Q22 10 44 25T81 61H82L431 562Q436 573 430 582T412 592H409V600H648Q689 600 716 607T750 616V513H740V526Q740
543 728 555T698 568H498V302H663Q681 302 693 314T705 344V357H715V219H705V229Q705 252 685 265Q676 271 664 271H498V30H660Q750 31 789 124H800L752 0H382V10H390ZM433 302V511L300 302H433Z" />
<glyph unicode="&#xe7;" glyph-name="ccedilla" horiz-adv-x="705" d="M356 -61Q387 -50 412 -57Q461 -70 461 -118T417 -187Q392 -199 368 -199T320 -192L321 -182Q357 -182 384 -167T411 -121Q411 -77 360 -77Q344 -77 327 -85L322 -75L369 -14Q221 -10 136
74T50 302T138 530T380 614Q442 614 505 598T614 554L636 412H627Q584 584 379 584Q260 584 191 508T122 300Q122 214 153 151T243 52Q302 17 380 17T516 40T613 118T657 252H666L655 115Q618 58 549 24T396 -14L356 -61Z" />
<glyph unicode="&#xe8;" glyph-name="egrave" horiz-adv-x="546" d="M304 671L297 664Q217 702 136 749Q151 777 177 802Q240 741 304 671ZM69 10Q93 10 109 25T127 63V538Q127 560 110 575T69 590H55V600H347Q376 600 410 605T459 616V502L448 503V518Q448 548
424 562Q413 569 398 569H190V315H361Q388 316 398 336Q402 346 402 357V370H413V230H402V243Q402 260 392 272T364 285H190V31H347Q393 31 424 47T472 85T506 143H516L461 0H55V10H69Z" />
<glyph unicode="&#xe9;" glyph-name="eacute" horiz-adv-x="546" d="M297 664L290 671Q366 753 417 802Q444 775 458 749Q393 712 297 664ZM69 10Q93 10 109 25T127 63V538Q127 560 110 575T69 590H55V600H347Q376 600 410 605T459 616V503H448V518Q448 548 424
562Q413 569 398 569H190V315H361Q388 316 398 336Q402 346 402 357V370H413V230H402V243Q402 260 392 272T364 285H190V31H347Q393 31 424 47T472 85T506 143H516L461 0H55V10H69Z" />
<glyph unicode="&#xea;" glyph-name="ecircumflex" horiz-adv-x="546" d="M292 790H302L416 671L410 663L296 729L192 663L186 671L292 790ZM69 10Q93 10 109 25T127 63V538Q127 560 110 575T69 590H55V600H347Q376 600 410 605T459 616V503H448V518Q448 548 424
562Q413 569 398 569H191V315H361Q388 316 398 336Q402 346 402 357V370H413V230H402V243Q402 260 392 272T364 285H191V31H347Q413 31 447 59T506 143H516L461 0H55V10H69Z" />
<glyph unicode="&#xeb;" glyph-name="edieresis" horiz-adv-x="546" d="M219 664T203 664T176 675T164 703T175 730T203 742T230 731T242 703T231 676ZM407 664T391 664T364 675T352 703T363 730T391 742T418 731T430 703T419 676ZM69 10Q93 10 109 25T127 63V538Q127
560 110 575T69 590H55V600H347Q376 600 410 605T459 616V502L448 503V518Q448 539 434 554T398 569H190V315H361Q388 316 398 336Q402 346 402 357V370H413V230H402V243Q402 260 392 272T364 285H190V31H347Q393 31 424 47T472 85T506 143H516L461 0H55V10H69Z"
/>
<glyph unicode="&#xec;" glyph-name="igrave" horiz-adv-x="306" d="M161 671L154 664Q72 702 -7 749Q7 777 34 802Q97 741 161 671ZM66 10Q89 10 105 26T121 64V536Q121 567 93 583Q81 590 66 590H55V600H252L251 590H240Q218 590 202 575T185 537V63Q186 41
202 26T241 10H251L252 0H55V10H66Z" />
<glyph unicode="&#xed;" glyph-name="iacute" horiz-adv-x="306" d="M154 664L147 671Q223 753 273 802Q300 775 314 749Q250 712 154 664ZM66 10Q89 10 105 26T121 64V536Q121 558 105 574T66 590H55V600H252L251 590H241Q218 590 202 575T185 537V63Q186 41
202 26T241 10H251L252 0H55V10H66Z" />
<glyph unicode="&#xee;" glyph-name="icircumflex" horiz-adv-x="306" d="M148 790H158L273 671L267 663L153 729L48 663L42 671L148 790ZM66 10Q89 10 105 26T121 64V536Q121 567 93 583Q81 590 66 590H55V600H252L251 590H241Q218 590 202 575T185 537V63Q186
41 202 26T241 10H251L252 0H55V10H66Z" />
<glyph unicode="&#xef;" glyph-name="idieresis" horiz-adv-x="306" d="M76 664T60 664T32 675T20 703T31 730T59 742T87 731T98 703T87 676ZM264 664T248 664T221 675T209 703T220 730T248 742T275 731T287 703T276 676ZM66 10Q89 10 105 26T121 64V536Q121 567
93 583Q81 590 66 590H55V600H252L251 590H240Q218 590 202 575T185 537V63Q186 32 213 17Q226 10 241 10H251L252 0H55V10H66Z" />
<glyph unicode="&#xf0;" glyph-name="eth" horiz-adv-x="760" d="M710 300Q710 161 624 81T389 0H55V10H68Q92 10 108 26T125 64V285H62V315H125V536Q124 560 108 575T67 590H55V600H389Q487 600 559 564T671 460T710 300ZM190 285V30H389Q504 30 571 102T638
300Q638 425 571 497T389 570H190V315H347V285H190Z" />
<glyph unicode="&#xf1;" glyph-name="ntilde" horiz-adv-x="779" d="M458 709Q500 709 514 743H524Q519 706 502 685T460 664T394 686T338 708Q300 708 284 667H274Q281 721 309 742Q322 752 342 752T402 731T458 709ZM727 590Q705 590 689 576T672 540V114Q672
56 679 4L681 -14H672L152 479V62Q152 32 180 17Q192 10 207 10H224V0H35V10H52Q75 10 91 25T107 62V490Q107 551 100 599L98 615L109 614L628 125V540Q626 561 610 575T572 590H555V600H744V590H727Z" />
<glyph unicode="&#xf2;" glyph-name="ograve" horiz-adv-x="774" d="M394 671L387 664Q307 702 227 749Q241 777 267 802Q331 741 394 671ZM295 614T387 614T557 575T679 463T725 300T680 137T557 26T388 -14T218 25T96 137T50 300T95 463T218 574ZM275 16T387
16T575 95T651 300T575 504T387 584T200 505T124 300T199 96Z" />
<glyph unicode="&#xf3;" glyph-name="oacute" horiz-adv-x="774" d="M387 664L380 671Q457 753 507 802Q534 775 548 749Q484 712 387 664ZM295 614T387 614T557 575T679 463T725 300T680 137T557 26T388 -14T218 25T96 137T50 300T95 463T218 574ZM275 16T387
16T575 95T651 300T575 504T387 584T200 505T124 300T199 96Z" />
<glyph unicode="&#xf4;" glyph-name="ocircumflex" horiz-adv-x="774" d="M382 790H392L506 671L500 663L387 729L282 663L276 671L382 790ZM295 614T387 614T557 575T679 463T725 300T680 137T557 26T399 -14T256 9T149 73T77 173T50 311T95 463T218 574ZM275
16T387 16T575 95T651 300T575 504T387 584T200 505T124 300T199 96Z" />
<glyph unicode="&#xf5;" glyph-name="otilde" horiz-adv-x="774" d="M458 709Q499 709 513 743H523Q519 706 502 685T460 664T394 686T337 708Q299 708 283 667H273Q281 721 308 742Q321 752 341 752T401 731T458 709ZM295 614T387 614T557 575T679 463T725 300T680
137T557 26T388 -14T218 25T96 137T50 300T95 463T218 574ZM275 16T387 16T575 95T651 300T575 504T387 584T200 505T124 300T199 96Z" />
<glyph unicode="&#xf6;" glyph-name="odieresis" horiz-adv-x="774" d="M309 664T293 664T266 675T254 703T265 730T293 742T320 731T332 703T321 676ZM498 664T482 664T454 675T443 703T454 730T481 742T509 731T521 703T510 676ZM295 614T387 614T557 575T679
463T725 300T680 137T557 26T388 -14T218 25T96 137T50 300T95 463T218 574ZM275 16T387 16T575 95T651 300T575 504T387 584T200 505T124 300T199 96Z" />
<glyph unicode="&#xf7;" glyph-name="divide" horiz-adv-x="481" d="M255 433T241 433T216 443T205 468T215 493T240 503T265 493T276 469T266 444ZM40 287V332H442V287H40ZM255 117T241 117T216 127T205 152T215 177T240 187T265 177T276 153T266 128Z" />
<glyph unicode="&#xf8;" glyph-name="oslash" horiz-adv-x="774" d="M654 511T689 446T725 295T680 137T557 26T387 -14Q266 -14 175 52L113 -23L88 -1L149 73Q50 162 50 300Q50 391 95 463T218 574T389 614T563 571L613 631L639 608L593 553Q654 511 689 446ZM387
584Q275 584 200 505T124 308T184 114L536 538Q471 584 387 584ZM206 89Q280 16 389 16T575 95T651 305T563 517L206 89Z" />
<glyph unicode="&#xf9;" glyph-name="ugrave" horiz-adv-x="700" d="M358 671L351 664Q270 702 190 749Q204 777 231 802Q294 741 358 671ZM665 590H650Q631 590 617 578T602 548V211Q602 107 536 47T353 -14T170 46T103 210V547Q103 565 89 577T55 590H40V600H230V590H215Q195
590 181 578T167 547V222Q167 125 216 69T356 13T501 66T556 211V547Q555 566 542 578T508 590H493V600H665V590Z" />
<glyph unicode="&#xfa;" glyph-name="uacute" horiz-adv-x="700" d="M350 664L344 671Q420 753 470 802Q497 775 511 749Q447 712 350 664ZM665 590H650Q623 590 609 569Q603 560 602 548V211Q602 107 536 47T353 -14T170 46T103 210V547Q103 565 89 577T55 590H40V600H230V590H215Q195
590 181 578T167 547V222Q167 125 216 69T356 13T501 66T556 211V547Q555 566 542 578T508 590H493V600H665V590Z" />
<glyph unicode="&#xfb;" glyph-name="ucircumflex" horiz-adv-x="700" d="M345 790H355L470 671L464 663L350 729L245 663L239 671L345 790ZM665 590H650Q623 590 609 569Q603 560 602 548V211Q602 107 536 47T353 -14T170 46T103 210V547Q103 565 89 577T55 590H40V600H230V590H215Q195
590 181 578T167 547V222Q167 125 216 69T356 13T501 66T556 211V547Q555 576 526 587Q518 590 508 590H493V600H665V590Z" />
<glyph unicode="&#xfc;" glyph-name="udieresis" horiz-adv-x="700" d="M273 664T257 664T229 675T217 703T228 730T256 742T284 731T295 703T284 676ZM461 664T445 664T418 675T406 703T417 730T445 742T472 731T484 703T473 676ZM665 590H650Q623 590 609 569Q603
560 602 548V211Q602 107 536 47T353 -14T170 46T103 210V547Q103 565 89 577T55 590H40V600H230V590H215Q195 590 181 578T167 547V222Q167 125 216 69T356 13T501 66T556 211V547Q555 576 526 587Q518 590 508 590H493V600H665V590Z" />
<glyph unicode="&#xfd;" glyph-name="yacute" horiz-adv-x="640" d="M333 664L326 671Q403 753 453 802Q480 775 494 749Q430 712 333 664ZM645 590H633Q606 590 582 576T541 539L349 248V64Q349 42 366 26T407 10H419V0H214V10H226Q250 10 267 26T284 64V249L99
540Q65 590 7 590H-5V600H227V590H215Q196 590 188 578T179 558T181 542L327 283L482 541Q485 549 485 557T477 578T448 590H436V600H645V590Z" />
<glyph unicode="&#xfe;" glyph-name="thorn" horiz-adv-x="527" d="M492 304Q492 249 468 207Q422 125 325 125Q276 125 229 150V159Q274 146 324 160Q392 180 417 260Q424 280 424 314Q424 375 386 410T280 445H184V64Q184 41 199 26T237 10H250V0H53L54 10H66Q88
10 103 25T120 63V537Q119 560 104 575T66 590H54L53 600H250V590H237Q215 590 200 576T184 539V475H284Q381 475 436 430T492 304Z" />
<glyph unicode="&#xff;" glyph-name="ydieresis" horiz-adv-x="640" d="M255 664T239 664T212 675T200 703T211 730T239 742T266 731T278 703T267 676ZM444 664T428 664T400 675T389 703T400 730T427 742T455 731T467 703T456 676ZM645 590H633Q606 590 582 576T541
539L349 248V64Q349 42 366 26T407 10H419V0H214V10H226Q250 10 267 26T284 64V249L99 540Q65 590 7 590H-5V600H227V590H215Q196 590 188 578T179 558T181 542L327 283L482 541Q485 549 485 557T477 578T448 590H436V600H645V590Z" />
<glyph unicode="&#x2013;" glyph-name="endash" horiz-adv-x="500" d="M0 271V311H500V271H0Z" />
<glyph unicode="&#x2014;" glyph-name="emdash" horiz-adv-x="800" d="M0 271V311H800V271H0Z" />
<glyph unicode="&#x2018;" glyph-name="quoteleft" horiz-adv-x="200" d="M103 592Q94 592 80 598T57 628T47 679T64 733Q95 782 150 784L152 775Q130 767 118 754T103 726Q101 695 123 670Q151 639 141 616T103 592Z" />
<glyph unicode="&#x2019;" glyph-name="quoteright" horiz-adv-x="200" d="M50 606Q78 615 88 632T98 658Q98 683 77 707Q61 725 60 732Q56 747 62 760Q71 780 96 780Q127 780 139 752T151 697T134 645Q104 599 53 598L50 606Z" />
<glyph unicode="&#x201a;" glyph-name="quotesinglbase" horiz-adv-x="200" d="M48 -89Q77 -79 87 -62T98 -35Q98 -7 76 17Q59 36 58 44Q54 59 60 73Q69 94 96 94Q128 94 140 64T153 7T136 -47Q105 -95 50 -97L48 -89Z" />
<glyph unicode="&#x201c;" glyph-name="quotedblleft" horiz-adv-x="340" d="M103 592Q94 592 80 598T57 628T47 679T64 733Q95 782 150 784L152 775Q130 767 118 754T103 726Q101 695 123 670Q151 639 141 616T103 592ZM292 775Q263 765 253 748T242 721Q242
693 263 670Q291 639 281 615Q271 592 244 592Q212 592 200 622T187 679T204 733Q235 782 290 784L292 775Z" />
<glyph unicode="&#x201d;" glyph-name="quotedblright" horiz-adv-x="340" d="M50 606Q78 615 88 632T98 658Q98 683 77 707Q61 725 60 732Q56 747 62 760Q71 780 96 780Q127 780 139 752T151 697T134 645Q104 599 53 598L50 606ZM190 606Q218 615 228 632T238
658Q238 683 217 707Q201 725 200 732Q196 747 202 760Q211 780 236 780Q267 780 279 752T291 697T274 645Q244 599 193 598L190 606Z" />
<glyph unicode="&#x201e;" glyph-name="quotedblbase" horiz-adv-x="340" d="M54 63Q54 69 58 77T73 92T91 98T105 98T124 89T146 58T156 8T138 -50Q105 -100 48 -102L45 -93Q69 -85 82 -71T96 -42Q100 -9 76 17Q51 45 54 63ZM189 75Q200 99 229 99Q238 99 252
92T277 60T287 16Q287 -43 245 -77Q216 -101 180 -102L177 -93Q201 -85 214 -71T229 -42Q231 -11 215 9Q213 12 207 18T199 28T192 37T187 49Q184 62 189 75Z" />
<glyph unicode="&#x2022;" glyph-name="bullet" horiz-adv-x="335" d="M70 326T70 333T78 364T99 401T136 422T168 431T193 425T225 411T245 390T259 359T266 333T260 307T245 276T225 255T194 241T168 235L154 237Q111 252 99 264T79 301Z" />
<glyph unicode="&#x2039;" glyph-name="guilsinglleft" horiz-adv-x="283" d="M215 490L223 485L105 292L224 95L215 90L40 292L215 490Z" />
<glyph unicode="&#x203a;" glyph-name="guilsinglright" horiz-adv-x="283" d="M69 90L60 95L179 292L61 485L69 490L244 292L69 90Z" />
</font>
</defs>
</svg>
