<?xml version="1.0" standalone="no"?>
<!DOCTYPE svg PUBLIC "-//W3C//DTD SVG 1.1//EN" "http://www.w3.org/Graphics/SVG/1.1/DTD/svg11.dtd">
<svg xmlns="http://www.w3.org/2000/svg">
<defs >
<font id="Combo" horiz-adv-x="461" ><font-face
    font-family="Combo"
    units-per-em="1000"
    panose-1="2 0 0 0 0 0 0 0 0 0"
    ascent="907"
    descent="-269"
    alphabetic="0" />
<glyph unicode=" " glyph-name="space" horiz-adv-x="300" />
<glyph unicode="!" glyph-name="exclam" horiz-adv-x="265" d="M132 186Q125 186 119 209T108 271T99 356T91 449T87 536T85 603Q85 632 87 649T95 675T110 687T132 690Q145 690 154 687T169 675T176 649T179 603Q179 577 178 536T173 449T166 356T156 271T145
210T132 186ZM132 120Q143 120 152 112T168 90T178 59T182 24Q182 -2 168 -8T132 -15Q111 -15 97 -9T83 24Q83 42 86 59T97 89T112 111T132 120Z" />
<glyph unicode="&quot;" glyph-name="quotedbl" horiz-adv-x="351" d="M96 497Q86 497 78 520T63 574T54 638T50 688Q50 714 63 721T96 728Q115 728 128 721T141 688Q141 670 138 638T128 575T114 520T96 497ZM256 497Q246 497 238 520T223 574T214 638T210 688Q210
714 223 721T256 728Q275 728 288 721T301 688Q301 670 298 638T288 575T274 520T256 497Z" />
<glyph unicode="#" glyph-name="numbersign" horiz-adv-x="654" d="M381 191H201L130 -47L84 -34L151 191H50L65 239H165L211 391H110L124 439H225L296 677L342 664L275 439H455L526 677L572 664L505 439H604L591 391H490L445 239H545L531 191H431L360 -47L314
-34L381 191ZM215 239H395L441 391H260L215 239Z" />
<glyph unicode="$" glyph-name="dollar" horiz-adv-x="520" d="M237 -14Q204 -11 176 1T126 35T91 90T75 171L156 190Q157 146 163 117T181 69T206 40T237 27V296Q210 313 183 331T135 370T101 420T88 484Q88 561 128 600T237 644V744H280V644Q311 641 339 631T388
598T424 542T442 457L367 440Q366 483 359 513T339 561T312 590T280 603V358Q309 341 338 322T392 279T431 224T446 152Q446 -5 280 -14V-100H237V-14ZM363 146Q363 187 339 216T280 269V26Q322 33 342 66T363 146ZM167 494Q167 459 187 434T237 386V603Q197 595
182 564T167 494Z" />
<glyph unicode="%" glyph-name="percent" horiz-adv-x="842" d="M504 677L550 664L338 -47L292 -34L504 677ZM191 610Q177 610 166 590T146 536T132 461T127 376Q127 346 132 328T146 301T166 288T191 285Q204 285 215 288T236 300T250 328T255 376Q255 419 250
461T237 536T216 589T191 610ZM191 645Q217 645 239 622T277 560T303 474T312 376Q312 334 303 308T277 268T238 250T191 245Q166 245 144 249T106 268T80 308T70 376Q70 425 79 473T104 560T143 621T191 645ZM651 350Q637 350 626 330T606 276T592 201T587 116Q587
86 592 68T606 41T626 28T651 25Q664 25 675 28T696 40T710 68T715 116Q715 159 710 201T697 276T676 329T651 350ZM651 385Q677 385 699 362T737 300T763 214T772 116Q772 74 763 48T737 8T698 -10T651 -15Q626 -15 604 -11T566 8T540 48T530 116Q530 165 539
213T564 300T603 361T651 385Z" />
<glyph unicode="&amp;" glyph-name="ampersand" horiz-adv-x="529" d="M366 -148L375 121H368Q359 94 349 69T325 26T296 -4T262 -15Q220 -15 183 26T119 134T76 286T60 462Q60 535 76 579T119 646T184 677T262 685Q301 685 335 679T397 653T441 597T463 501L377
477Q376 532 367 565T342 616T306 639T262 645Q239 645 218 639T182 614T157 559T148 462Q148 431 149 401T152 342H529V281L430 284L444 -148H366ZM262 25Q278 25 295 47T327 105T356 188T377 286L157 293Q164 236 174 187T198 102T228 46T262 25Z" />
<glyph unicode="&apos;" glyph-name="quotesingle" horiz-adv-x="191" d="M96 497Q86 497 78 520T63 574T54 638T50 688Q50 714 63 721T96 728Q115 728 128 721T141 688Q141 670 138 638T128 575T114 520T96 497Z" />
<glyph unicode="(" glyph-name="parenleft" horiz-adv-x="250" d="M93 322Q93 232 97 169T110 63T129 -4T155 -40T185 -56T220 -60V-100Q194 -100 171 -95T128 -75T93 -32T66 44T49 159T43 322Q43 464 56 548T92 675T148 731T220 744V704Q202 704 186 701T155
685T130 648T110 582T98 476T93 322Z" />
<glyph unicode=")" glyph-name="parenright" horiz-adv-x="250" d="M157 322Q157 412 153 475T140 581T121 648T95 684T65 700T30 704V744Q69 744 101 732T157 676T194 548T207 322Q207 227 201 159T184 44T158 -31T122 -75T79 -95T30 -100V-60Q48 -60 64 -57T95
-41T120 -4T140 62T152 168T157 322Z" />
<glyph unicode="*" glyph-name="asterisk" horiz-adv-x="536" d="M268 555Q260 555 253 574T240 620T232 674T229 716Q229 739 240 744T268 750Q284 750 295 745T306 716Q306 701 303 674T295 621T283 575T268 555ZM302 530Q299 530 294 531T289 538Q289 546 303
561T338 593T378 625T411 647Q421 653 430 653Q444 653 455 637T466 607Q466 593 448 583Q438 577 418 568T376 551T334 536T302 530ZM234 530Q223 530 203 536T160 550T118 568T88 583Q70 593 70 607Q70 621 81 637T106 653Q115 653 125 647Q137 640 157 625T198
594T232 562T247 538Q247 533 242 532T234 530ZM268 489Q276 489 283 470T295 424T303 370T306 328Q306 305 295 300T268 294Q252 294 241 299T229 328Q229 343 232 370T240 423T252 469T268 489ZM302 514Q313 514 333 508T376 494T418 476T448 461Q466 451 466
437Q466 423 455 407T430 391Q421 391 411 397Q399 404 379 419T338 450T304 482T289 506Q289 511 294 512T302 514ZM234 514Q237 514 242 513T247 506Q247 498 233 483T198 451T158 419T125 397Q115 391 106 391Q92 391 81 407T70 437Q70 451 88 461Q98 467 118
476T160 493T202 508T234 514Z" />
<glyph unicode="+" glyph-name="plus" horiz-adv-x="520" d="M285 347H450V297H285V132H235V297H70V347H235V512H285V347Z" />
<glyph unicode="," glyph-name="comma" horiz-adv-x="205" d="M32 -89Q52 -72 67 -46T82 6Q68 16 59 36T50 86Q50 114 65 121T103 128Q125 128 140 121T155 86Q155 45 145 12T120 -46T88 -88T55 -116L32 -89V-89Z" />
<glyph unicode="-" glyph-name="hyphen" horiz-adv-x="389" d="M339 340V273L50 287V340H339Z" />
<glyph unicode="." glyph-name="period" horiz-adv-x="205" d="M103 -15Q92 -15 82 -7T65 16T54 49T50 86Q50 114 65 121T103 128Q125 128 140 121T155 86Q155 67 151 49T140 17T124 -6T103 -15Z" />
<glyph unicode="/" glyph-name="slash" horiz-adv-x="240" d="M242 743L289 726L-2 -73L-49 -56L242 743Z" />
<glyph unicode="0" glyph-name="zero" horiz-adv-x="520" d="M260 601Q235 601 214 566T178 474T153 345T144 198Q144 145 153 113T178 64T215 41T260 35Q284 35 305 40T342 63T367 113T376 198Q376 272 367 344T343 474T306 566T260 601ZM260 645Q302 645 338
606T400 504T442 361T457 198Q457 129 442 87T399 23T336 -7T260 -15Q220 -15 184 -8T121 22T79 87T63 198Q63 281 78 361T119 504T182 606T260 645Z" />
<glyph unicode="1" glyph-name="one" horiz-adv-x="520" d="M254 635H310V56L443 61V0H90V48L224 53L251 578L79 481L52 536L254 635Z" />
<glyph unicode="2" glyph-name="two" horiz-adv-x="520" d="M443 489Q443 440 423 384T364 271T271 160T149 58L433 50V0H60V49Q120 87 175 140T271 252T337 373T362 489Q362 513 357 533T340 569T309 592T261 601Q219 601 190 584T160 519Q160 494 165 466L90
456Q79 489 79 519Q79 555 93 579T133 618T191 639T261 645Q351 645 397 603T443 489Z" />
<glyph unicode="3" glyph-name="three" horiz-adv-x="520" d="M452 519Q452 477 434 435T379 360T287 307T157 286V326Q208 326 244 336T304 362T341 399T361 441T369 482T371 519Q371 566 342 583T270 601Q228 601 199 584T169 519Q169 494 174 466L99 456Q88
489 88 519Q88 555 102 579T142 618T200 639T270 645Q307 645 340 639T398 618T437 579T452 519ZM293 329Q338 318 369 297T419 251T448 199T457 152Q457 103 442 71T399 20T336 -7T260 -15Q220 -15 184 -8T121 16T79 58T63 122Q63 152 72 179L148 168Q144 148
144 122Q144 97 153 80T178 53T215 39T260 35Q284 35 305 39T342 57T367 93T376 152Q376 170 371 191T351 234T314 273T255 302L293 329Z" />
<glyph unicode="4" glyph-name="four" horiz-adv-x="520" d="M330 125H273Q235 125 197 131T129 154T79 204T60 291Q60 338 73 383T109 470T161 553T222 630H261Q237 592 217 552T180 473T155 395T146 323Q146 243 174 204T273 165H332L354 516H410V165H478V125H410V0H322L330
125Z" />
<glyph unicode="5" glyph-name="five" horiz-adv-x="520" d="M403 574L189 583L153 363Q238 363 296 341T390 287T441 219T457 152Q457 103 442 71T399 20T336 -7T260 -15Q220 -15 184 -8T121 16T79 58T63 122Q63 152 72 179L148 168Q144 148 144 122Q144 97 153
80T178 53T215 39T260 35Q284 35 305 39T342 57T367 93T376 152Q376 176 368 205T335 260T264 303T140 321H90L110 635H403V574Z" />
<glyph unicode="6" glyph-name="six" horiz-adv-x="520" d="M64 149Q64 222 88 291T152 422T244 541T354 645L388 612Q316 546 268 484T191 358Q263 353 313 331T395 277T441 207T456 130Q456 90 440 63T397 18T333 -7T255 -15Q216 -15 182 -8T121 18T79 69T64
149ZM375 138Q375 169 368 200T339 257T278 300T175 320Q159 278 152 236T145 151Q145 114 154 92T178 57T213 40T257 35Q312 35 343 56T375 138Z" />
<glyph unicode="7" glyph-name="seven" horiz-adv-x="520" d="M330 263Q279 169 219 97T110 -15L76 18Q132 72 178 139T259 280L155 306L166 350L278 322Q304 386 321 449T347 572L78 580V630H441Q438 544 414 462T352 304L414 289L403 245L330 263Z" />
<glyph unicode="8" glyph-name="eight" horiz-adv-x="520" d="M63 122Q63 154 74 185T103 242T146 290T196 324Q172 337 151 358T114 405T88 460T78 519Q78 555 92 579T132 618T190 639T260 645Q297 645 330 639T388 618T427 579T442 519Q442 489 433 460T407
406T369 359T323 324Q350 312 374 291T416 243T446 185T457 122Q457 84 442 58T399 16T336 -7T260 -15Q220 -15 184 -8T121 16T79 58T63 122ZM260 301Q235 301 214 286T178 247T153 190T144 122Q144 97 153 80T178 53T215 39T260 35Q284 35 305 39T342 53T367 80T376
122Q376 157 367 189T343 246T306 286T260 301ZM260 345Q281 345 299 360T331 399T353 454T361 519Q361 566 332 583T260 601Q218 601 189 584T159 519Q159 486 167 455T188 399T220 360T260 345Z" />
<glyph unicode="9" glyph-name="nine" horiz-adv-x="520" d="M457 468Q457 395 432 325T366 191T278 76T183 -15L149 18Q218 84 264 146T336 271Q262 277 210 300T126 356T78 429T63 508Q63 545 78 571T121 614T184 637T260 645Q300 645 336 637T399 609T441 555T457
468ZM144 508Q144 475 151 441T180 380T242 333T350 310Q364 349 370 388T376 468Q376 508 367 533T342 571T305 590T260 595Q236 595 215 591T178 577T153 550T144 508Z" />
<glyph unicode=":" glyph-name="colon" horiz-adv-x="205" d="M103 -15Q92 -15 82 -7T65 16T54 49T50 86Q50 114 65 121T103 128Q125 128 140 121T155 86Q155 67 151 49T140 17T124 -6T103 -15ZM103 335Q92 335 82 343T65 366T54 399T50 436Q50 464 65 471T103
478Q125 478 140 471T155 436Q155 417 151 399T140 367T124 344T103 335Z" />
<glyph unicode=";" glyph-name="semicolon" horiz-adv-x="205" d="M32 -89Q52 -72 67 -46T82 6Q68 16 59 36T50 86Q50 114 65 121T103 128Q125 128 140 121T155 86Q155 45 145 12T120 -46T88 -88T55 -116L32 -89V-89ZM103 335Q92 335 82 343T65 366T54 399T50
436Q50 464 65 471T103 478Q125 478 140 471T155 436Q155 417 151 399T140 367T124 344T103 335Z" />
<glyph unicode="&lt;" glyph-name="less" horiz-adv-x="520" d="M70 297V347L450 497V447L128 322L450 197V147L70 297Z" />
<glyph unicode="=" glyph-name="equal" horiz-adv-x="520" d="M70 387V437H450V387H70ZM70 207V257H450V207H70Z" />
<glyph unicode="&gt;" glyph-name="greater" horiz-adv-x="520" d="M70 147V197L392 322L70 447V497L450 347V297L70 147Z" />
<glyph unicode="?" glyph-name="question" d="M229 120Q240 120 249 112T265 90T275 59T279 24Q279 -2 265 -8T229 -15Q208 -15 194 -9T180 24Q180 42 183 59T194 89T209 111T229 120ZM193 207Q224 245 250 287T296 371T326 454T337 534Q337 558 332 578T314 614T283
637T236 646Q181 646 160 620T138 554Q138 528 145 500T165 443L95 420Q65 486 65 539Q65 575 78 603T114 650T169 680T239 690Q329 690 375 648T421 534Q421 454 369 364T222 179L193 207Z" />
<glyph unicode="@" glyph-name="at" horiz-adv-x="835" d="M561 292Q563 276 564 260T565 228Q565 182 553 154T520 111T472 90T413 85Q382 85 356 89T311 107T280 143T269 203Q269 233 283 257T321 297T376 321T442 330H487Q482 364 475 394T458 448T437 484T413
497Q396 497 382 467T368 387L296 404Q306 442 318 466T346 505T378 525T413 531Q438 531 460 515T500 472T533 408T555 330H677Q681 355 682 380T684 432Q684 490 663 525T604 580T518 605T413 611Q359 611 311 605T228 580T172 526T151 432Q151 375 160 319T185
210T225 114T278 36T341 -15T413 -34Q461 -34 502 -5T579 72L623 47Q579 -6 526 -37T413 -68Q342 -68 281 -25T176 90T106 250T80 432Q80 501 106 543T177 607T283 637T413 645Q483 645 545 638T653 608T727 543T755 432Q755 395 751 362T739 293L561 292ZM494
228Q494 260 491 292H465Q440 292 418 287T378 272T350 244T340 203Q340 177 345 161T360 135T383 122T413 118Q430 118 444 122T470 137T487 170T494 228Z" />
<glyph unicode="A" glyph-name="A" horiz-adv-x="544" d="M397 0Q397 42 396 81T393 160H152Q150 121 149 82T148 0H60Q61 138 77 262T122 481T189 630T272 685Q317 685 355 630T421 481T466 263T484 0H397ZM272 645Q251 645 232 612T198 519T172 380T155 205H390Q384
299 373 379T346 519T312 611T272 645Z" />
<glyph unicode="B" glyph-name="B" horiz-adv-x="497" d="M80 670Q155 685 216 685Q332 685 394 635T457 488Q457 418 416 360T308 255Q363 226 387 193T412 118Q412 84 397 59T355 18T293 -7T216 -15Q158 -15 97 0L80 670ZM215 642Q192 642 167 639L158 218Q199
239 237 267T304 329T351 403T369 487Q369 562 332 602T215 642ZM324 119Q324 151 312 179T269 230Q216 198 157 174L154 34Q187 25 218 25Q264 25 294 48T324 119Z" />
<glyph unicode="C" glyph-name="C" horiz-adv-x="503" d="M420 174Q406 132 389 98T352 38T309 -1T262 -15Q220 -15 183 26T119 134T76 286T60 462Q60 535 76 579T119 646T184 677T262 685Q301 685 335 679T397 653T441 597T463 501L377 477Q376 532 367 565T342
616T306 639T262 645Q239 645 218 639T182 614T157 559T148 462Q148 379 156 301T180 161T217 62T262 25Q290 25 312 70T351 188L420 174Z" />
<glyph unicode="D" glyph-name="D" horiz-adv-x="517" d="M467 488Q467 432 450 367T394 236T297 109T153 0H97L80 670Q156 685 220 685Q341 685 404 635T467 488ZM219 642Q207 642 194 641T167 638L154 51Q214 89 256 141T326 253T366 372T379 487Q379 562 341
602T219 642Z" />
<glyph unicode="E" glyph-name="E" horiz-adv-x="503" d="M420 174Q406 132 389 98T352 38T309 -1T262 -15Q220 -15 183 26T119 134T76 286T60 462Q60 535 76 579T119 646T184 677T262 685Q301 685 335 679T397 653T441 597T463 501L377 477Q376 532 367 565T342
616T306 639T262 645Q239 645 218 639T182 614T157 559T148 462Q148 421 149 382T156 305H351V260H162Q169 210 179 167T202 93T230 43T262 25Q290 25 312 70T351 188L420 174Z" />
<glyph unicode="F" glyph-name="F" horiz-adv-x="398" d="M97 670H383V599L154 618L161 305H333V260H162L168 0H80L97 670Z" />
<glyph unicode="G" glyph-name="G" horiz-adv-x="520" d="M463 263Q450 204 431 154T387 66T333 7T272 -15Q228 -15 189 26T122 134T77 286T60 462Q60 535 77 579T123 646T190 677T272 685Q313 685 350 678T416 651T462 593T480 496L393 473Q392 505 389 536T373
591T337 630T272 645Q247 645 225 639T185 614T158 559T148 462Q148 379 157 301T183 161T222 62T272 25Q288 25 303 39T331 79T355 140T374 218H267V263H463Z" />
<glyph unicode="H" glyph-name="H" horiz-adv-x="569" d="M400 260H168V0H80L113 670H168V305H400V670H455L489 0H401L400 260Z" />
<glyph unicode="I" glyph-name="I" horiz-adv-x="248" d="M97 670H153L168 0H80L97 670Z" />
<glyph unicode="J" glyph-name="J" horiz-adv-x="417" d="M102 207Q98 193 96 174T94 138Q94 116 98 96T113 60T140 35T181 25Q203 25 219 33T247 63T263 120T268 210V670H323Q329 548 333 464T339 324T343 239T345 193T346 174T346 169Q346 116 333 81T297 24T244
-6T181 -15Q146 -15 115 -8T60 19T24 73T10 160Q10 177 11 195T17 230L102 207Z" />
<glyph unicode="K" glyph-name="K" horiz-adv-x="482" d="M97 670H153L163 201Q248 310 294 423T352 670H441Q428 543 381 441T271 259Q299 251 323 229T366 173T394 95T404 0H323Q323 53 320 91T307 157T283 200T244 225Q224 202 205 181T165 142L168 0H80L97 670Z" />
<glyph unicode="L" glyph-name="L" horiz-adv-x="393" d="M97 670H153L167 51L373 71V0H80L97 670Z" />
<glyph unicode="M" glyph-name="M" horiz-adv-x="849" d="M629 645Q611 645 591 613T550 523T512 387T478 218Q479 207 479 198T479 177Q479 134 478 90T472 0H385Q391 69 393 134T396 260Q396 343 391 413T377 535T355 616T324 645Q304 645 282 607T238 503T197
348T164 155L168 0H80L97 670H153L160 363Q176 435 194 494T234 595T279 661T331 685Q356 685 378 663T417 601T447 505T468 380Q485 448 503 504T541 601T585 663T636 685Q670 685 697 646T744 539T773 378T784 177Q784 134 783 90T777 0H690Q696 69 698 134T701
260Q701 343 696 413T682 535T660 616T629 645Z" />
<glyph unicode="N" glyph-name="N" horiz-adv-x="576" d="M97 670H153L160 345Q180 420 200 482T244 590T293 660T351 685Q388 685 417 646T468 539T500 378T511 177Q511 134 510 90T504 0H417Q423 69 425 134T428 260Q428 343 423 413T408 535T382 616T348 645Q325
645 300 606T249 499T202 340T165 143L168 0H80L97 670Z" />
<glyph unicode="O" glyph-name="O" horiz-adv-x="544" d="M272 25Q299 25 322 62T361 160T387 300T397 462Q397 523 387 559T360 614T321 639T272 645Q247 645 225 639T185 614T158 559T148 462Q148 379 157 301T183 161T222 62T272 25ZM272 -15Q228 -15 189 26T122
134T77 286T60 462Q60 535 77 579T123 646T190 677T272 685Q316 685 354 678T422 647T467 579T484 462Q484 372 468 287T423 134T356 26T272 -15Z" />
<glyph unicode="P" glyph-name="P" horiz-adv-x="472" d="M80 670Q146 685 201 685Q317 685 379 635T442 488Q442 433 419 385T357 294T266 218T156 156L153 0H97L80 670ZM200 642Q192 642 184 642T167 640L157 202Q196 225 232 255T295 322T338 399T354 487Q354
562 317 602T200 642Z" />
<glyph unicode="Q" glyph-name="Q" horiz-adv-x="544" d="M417 -124Q401 -124 380 -113T339 -90T301 -66T273 -55Q268 -55 262 -56T249 -64T239 -82T235 -114L197 -108Q202 -64 212 -41T239 -8Q201 6 168 51T111 160T74 302T60 462Q60 535 77 579T123 646T190
677T272 685Q316 685 354 678T422 647T467 579T484 462Q484 381 471 304T434 162T378 52T307 -8Q321 -14 334 -22T360 -39T385 -53T407 -59Q412 -59 417 -58T426 -50T432 -32T435 0L493 -16Q490 -48 483 -69T466 -102T444 -119T417 -124ZM272 25Q299 25 322 62T361
160T387 300T397 462Q397 523 387 559T360 614T321 639T272 645Q247 645 225 639T185 614T158 559T148 462Q148 379 157 301T183 161T222 62T272 25Z" />
<glyph unicode="R" glyph-name="R" horiz-adv-x="492" d="M80 670Q146 685 201 685Q317 685 379 635T442 488Q442 417 399 355T287 244Q338 223 371 160T404 0H323Q323 53 320 90T307 153T283 192T243 215Q223 203 202 192T157 170L153 0H97L80 670ZM200 642Q192
642 184 642T167 640L158 216Q197 238 232 267T295 331T338 405T354 487Q354 562 317 602T200 642Z" />
<glyph unicode="S" glyph-name="S" horiz-adv-x="502" d="M156 476Q156 442 178 419T234 376T307 337T379 293T435 235T458 152Q458 69 410 27T259 -15Q218 -15 180 -9T113 19T66 79T44 182Q66 184 89 186T132 190Q134 134 145 101T173 51T212 30T259 25Q321 25
348 59T375 146Q375 184 353 210T298 258T227 299T156 341T101 394T79 467Q79 504 93 542T131 612T186 664T251 685Q275 685 298 672T343 634T381 577T411 503L326 478Q325 518 318 549T301 601T277 634T251 645Q231 645 214 629T184 588T164 533T156 476Z" />
<glyph unicode="T" glyph-name="T" horiz-adv-x="433" d="M187 616L10 622V670H423V609L246 614L260 0H172L187 616Z" />
<glyph unicode="U" glyph-name="U" horiz-adv-x="548" d="M274 -15Q214 -15 173 7T107 67T71 155T60 261Q60 316 66 373T84 483T110 584T140 670H232Q208 617 190 559T159 442T139 328T132 224Q132 127 170 76T274 25Q338 25 377 76T416 224Q416 272 409 327T390
441T359 558T316 670H408Q423 632 437 584T463 483T481 373T488 261Q488 205 477 155T441 67T375 7T274 -15Z" />
<glyph unicode="V" glyph-name="V" horiz-adv-x="555" d="M280 25Q298 25 314 49T344 115T369 218T388 349T400 502T405 670H492Q491 532 475 408T430 189T363 40T280 -15Q236 -15 198 40T131 189T86 407T68 670H156Q156 541 166 424T192 219T231 78T280 25Z" />
<glyph unicode="W" glyph-name="W" horiz-adv-x="821" d="M279 25Q306 25 323 77T352 218T367 424T372 670H459Q459 541 463 424T479 219T507 78T552 25Q579 25 601 77T640 218T666 424T676 670H764Q763 532 747 408T702 189T635 40T552 -15Q524 -15 502 8T463
74T434 176T415 307Q407 235 396 176T368 75T329 9T279 -15Q235 -15 197 40T130 189T85 407T67 670H155Q155 541 164 424T190 219T229 78T279 25Z" />
<glyph unicode="X" glyph-name="X" horiz-adv-x="580" d="M294 338Q261 338 240 312T206 239T188 132T182 0H94Q95 134 130 225T223 355Q194 371 174 401T141 473T122 564T114 670H199Q199 610 201 557T212 464T240 401T294 377Q329 377 348 400T376 462T387 555T389
670H472Q470 614 464 564T445 473T413 402T364 355Q420 317 455 226T492 0H405Q405 70 400 131T382 239T348 311T294 338Z" />
<glyph unicode="Y" glyph-name="Y" horiz-adv-x="492" d="M218 168Q182 180 152 220T99 324T63 476T50 670H135Q135 576 140 491T158 342T192 240T247 202Q280 202 301 240T334 342T352 491T358 670H442Q442 564 429 477T394 325T341 220T275 168L290 0H202L218 168Z" />
<glyph unicode="Z" glyph-name="Z" horiz-adv-x="448" d="M423 670Q420 577 389 487T310 316T206 170T98 58L410 50V0H25V47Q92 102 143 170T231 314T290 465T322 612L37 620V670H423Z" />
<glyph unicode="[" glyph-name="bracketleft" horiz-adv-x="250" d="M131 -60H220V-100H81V744H220V704H131V-60Z" />
<glyph unicode="\" glyph-name="backslash" horiz-adv-x="240" d="M289 -56L242 -73L-49 726L-2 743L289 -56Z" />
<glyph unicode="]" glyph-name="bracketright" horiz-adv-x="250" d="M119 704H30V744H169V-100H30V-60H119V704Z" />
<glyph unicode="^" glyph-name="asciicircum" horiz-adv-x="520" d="M235 630H285L435 350H385L260 582L135 350H85L235 630Z" />
<glyph unicode="_" glyph-name="underscore" horiz-adv-x="437" d="M2 -49V1H439V-49H2Z" />
<glyph unicode="`" glyph-name="grave" horiz-adv-x="277" d="M214 574Q203 574 183 580T140 594T98 612T68 627Q50 637 50 651Q50 665 61 681T86 697Q95 697 105 691Q117 684 137 669T178 638T212 606T227 582Q227 577 222 576T214 574Z" />
<glyph unicode="a" glyph-name="a" horiz-adv-x="435" d="M213 531Q249 531 280 499T335 414T372 295T385 160Q385 103 372 69T335 16T280 -9T213 -15Q178 -15 148 -10T96 12T62 56T49 130Q49 167 65 196T108 244T170 274T245 285Q269 285 297 280Q292 323 284
361T264 427T240 472T213 489Q194 489 178 452T161 355L80 376Q91 422 105 452T136 499T172 524T213 531ZM304 160Q304 198 301 236Q293 237 286 237T272 238Q243 238 218 232T173 213T142 180T130 130Q130 98 136 78T153 46T179 30T213 26Q232 26 248 30T277 49T297
90T304 160Z" />
<glyph unicode="b" glyph-name="b" horiz-adv-x="464" d="M80 750H131L137 410Q154 463 179 495T242 528Q278 528 309 496T364 412T401 294T414 160Q414 103 401 69T364 16T309 -9T242 -15Q207 -15 176 -9T121 16T84 69T70 160L80 750ZM242 487Q222 487 205 459T175
385T154 280T146 160Q146 116 154 90T175 50T206 31T242 26Q261 26 277 30T306 49T326 90T333 160Q333 221 326 280T307 385T278 459T242 487Z" />
<glyph unicode="c" glyph-name="c" horiz-adv-x="425" d="M303 356Q303 399 296 425T278 466T251 485T217 490Q199 490 184 486T157 467T138 426T131 356Q131 295 137 236T155 131T182 56T216 27Q233 27 247 61T273 155L344 142Q321 70 286 28T215 -15Q180 -15
150 17T98 102T63 221T50 356Q50 413 63 447T98 500T151 525T215 531Q249 531 279 525T333 503T370 456T384 376L303 356Z" />
<glyph unicode="d" glyph-name="d" horiz-adv-x="464" d="M384 750Q386 602 388 500T391 332T392 230T393 177T394 157T394 152Q394 98 380 65T343 15T288 -9T222 -15Q187 -15 156 -9T101 16T64 69T50 160Q50 228 63 294T99 412T154 496T222 528Q259 528 284 496T327
410L333 750H384ZM222 487Q202 487 186 459T157 385T138 280T131 160Q131 116 138 90T157 50T186 31T222 26Q241 26 258 30T288 49T310 90T318 160Q318 221 311 280T290 385T259 459T222 487Z" />
<glyph unicode="e" glyph-name="e" horiz-adv-x="472" d="M407 386Q407 356 397 328T365 276T310 239T232 225Q214 225 194 227T153 235Q158 192 166 154T186 88T210 44T237 27Q255 27 270 61T298 155L369 142Q346 70 310 28T237 -15Q201 -15 170 17T115 102T78
221T65 356Q65 413 78 447T115 500T170 525T237 531Q272 531 303 524T357 500T393 456T407 386ZM146 356Q146 315 149 278Q166 275 181 274T210 273Q245 273 268 281T304 305T322 341T327 386Q327 443 301 466T237 490Q218 490 202 486T173 467T153 426T146 356Z"
/>
<glyph unicode="f" glyph-name="f" horiz-adv-x="308" d="M130 516Q134 571 143 616T166 695T201 746T250 765Q264 765 280 760T311 741T337 706T353 650L274 626Q270 671 259 692T232 713Q220 713 213 699T200 658T193 595T190 516H296V458L190 462Q190 456 190
448T190 423T190 377T191 298T193 176T196 0H120Q121 103 122 175T124 297T125 377T125 424T126 450T127 465L50 468V516H130Z" />
<glyph unicode="g" glyph-name="g" horiz-adv-x="462" d="M232 135Q197 135 168 155Q163 139 161 127T159 101Q159 80 177 67T224 44T284 25T345 -1T391 -41T410 -103Q410 -168 363 -201T230 -235Q193 -235 160 -230T100 -207T58 -158T40 -74L121 -68Q122 -109
131 -133T155 -171T189 -189T231 -194Q281 -194 306 -169T332 -103Q332 -76 316 -60T274 -33T219 -14T165 7T123 36T106 84Q106 106 111 130T135 184Q100 222 80 280T60 401Q60 441 73 466T109 504T162 523T227 528Q240 566 254 590T283 627T317 645T356 650Q368
650 381 646T405 633T425 608T437 568L356 546Q355 572 348 585T328 598Q297 598 271 526Q299 524 323 518T366 497T394 460T404 401Q404 352 391 304T355 219T300 158T232 135ZM232 176Q251 176 268 195T297 245T316 316T323 397Q323 426 316 444T297 471T268
484T232 487Q213 487 197 484T168 472T148 444T141 397Q141 356 148 316T167 245T195 195T232 176Z" />
<glyph unicode="h" glyph-name="h" horiz-adv-x="464" d="M259 486Q239 486 221 447T189 340T164 185T151 0H70L80 750H131L135 229Q142 294 153 349T179 443T215 505T261 528Q295 528 323 491T371 389T403 239T415 56Q415 42 415 28T414 0H333Q334 23 334 44T334
88Q334 170 329 242T314 369T290 454T259 486Z" />
<glyph unicode="i" glyph-name="i" horiz-adv-x="251" d="M88 516H166L155 0H99L88 516ZM126 585Q116 585 108 592T93 612T84 641T80 673Q80 697 93 703T126 710Q145 710 158 704T171 673Q171 657 168 641T158 613T144 593T126 585Z" />
<glyph unicode="j" glyph-name="j" horiz-adv-x="251" d="M126 585Q116 585 108 592T93 612T84 641T80 673Q80 697 93 703T126 710Q145 710 158 704T171 673Q171 657 168 641T158 613T144 593T126 585ZM11 -96Q15 -141 26 -162T53 -183Q66 -183 74 -165T86 -115T93
-39T95 56Q95 63 95 72T95 98T95 146T93 224T91 344T88 516H166L160 145Q159 65 153 -4T132 -125T95 -205T35 -235Q21 -235 5 -230T-26 -211T-52 -176T-68 -120L11 -96Z" />
<glyph unicode="k" glyph-name="k" horiz-adv-x="464" d="M92 750H141L150 301Q187 308 214 330T260 383T287 449T296 516H374Q374 483 366 449T339 383T293 326T225 285Q273 271 306 245T362 183T394 100T404 0H323Q323 55 311 101T276 181T222 237T151 264L157
0H79L92 750Z" />
<glyph unicode="l" glyph-name="l" horiz-adv-x="236" d="M79 750H157L146 0H90L79 750Z" />
<glyph unicode="m" glyph-name="m" horiz-adv-x="677" d="M472 489Q452 489 438 449T412 342T394 186T384 0H313Q316 78 316 152Q316 223 313 284T303 391T285 463T259 489Q239 489 221 449T189 342T164 186T151 0H70L80 516H116L135 229Q142 295 153 350T179
445T215 508T261 531Q284 531 301 513T329 461T348 382T358 281Q365 336 375 382T400 461T432 512T474 531Q508 531 536 493T584 391T616 240T628 56Q628 42 628 28T627 0H546Q547 23 547 44T547 88Q547 170 542 243T527 371T503 457T472 489Z" />
<glyph unicode="n" glyph-name="n" horiz-adv-x="464" d="M259 486Q239 486 221 447T189 340T164 185T151 0H70L80 516H116L135 229Q142 294 153 349T179 443T215 505T261 528Q295 528 323 491T371 389T403 239T415 56Q415 42 415 28T414 0H333Q334 23 334 44T334
88Q334 170 329 242T314 369T290 454T259 486Z" />
<glyph unicode="o" glyph-name="o" horiz-adv-x="444" d="M222 26Q241 26 258 54T287 128T306 233T313 353Q313 396 306 422T287 463T258 482T222 487Q203 487 187 483T158 464T138 423T131 353Q131 292 138 233T157 128T185 54T222 26ZM222 -15Q186 -15 155 17T100
101T63 219T50 353Q50 410 63 444T100 497T155 522T222 528Q257 528 288 522T343 497T380 444T394 353Q394 285 381 219T345 101T290 17T222 -15Z" />
<glyph unicode="p" glyph-name="p" horiz-adv-x="464" d="M80 -220Q77 -76 76 23T73 186T72 285T71 337T70 357T70 361Q70 415 84 448T121 498T176 522T242 528Q277 528 308 522T363 497T400 444T414 353Q414 285 401 219T365 101T310 17T242 -15Q205 -15 179
17T136 103L131 -220H80ZM242 26Q261 26 278 54T307 128T326 233T333 353Q333 396 326 422T307 463T278 482T242 487Q223 487 206 483T176 464T154 423T146 353Q146 292 153 233T174 128T205 54T242 26Z" />
<glyph unicode="q" glyph-name="q" horiz-adv-x="464" d="M384 -220H333L327 103Q310 49 285 17T222 -15Q186 -15 155 17T100 101T63 219T50 353Q50 410 63 444T100 497T155 522T222 528Q257 528 288 522T343 497T380 444T394 353L384 -220ZM222 26Q241 26 258
54T289 128T310 233T318 353Q318 396 310 422T289 463T258 482T222 487Q203 487 187 483T158 464T138 423T131 353Q131 292 138 233T157 128T185 54T222 26Z" />
<glyph unicode="r" glyph-name="r" horiz-adv-x="366" d="M130 263Q136 322 146 371T171 456T207 511T256 531Q273 531 292 524T328 500T355 452T366 376L285 355Q285 415 273 452T242 489Q222 489 206 449T177 342T158 186T151 0H70L80 516H116L130 263Z" />
<glyph unicode="s" glyph-name="s" horiz-adv-x="423" d="M149 361Q149 331 166 313T210 282T267 257T324 228T368 185T386 117Q386 52 342 19T220 -15Q186 -15 156 -10T102 13T64 62T48 146L129 152Q130 111 137 87T157 49T185 31T220 26Q263 26 285 51T307 117Q307
148 290 167T247 199T192 223T136 250T93 290T76 354Q76 382 87 413T118 469T163 511T217 528Q259 528 295 487T350 376L269 355Q269 415 253 452T217 489Q203 489 191 477T169 445T155 403T149 361Z" />
<glyph unicode="t" glyph-name="t" horiz-adv-x="353" d="M220 -15Q189 -15 169 -4T138 34T122 102T117 205Q117 221 117 241T117 282T117 325T119 365L123 464L30 468V516H124L128 650H183L185 516H296V458L186 462Q187 342 189 260T195 128T208 55T232 32Q246
32 254 64T265 155L338 142Q328 70 297 28T220 -15Z" />
<glyph unicode="u" glyph-name="u" horiz-adv-x="492" d="M246 -15Q196 -15 163 2T109 49T79 117T70 199Q70 242 75 286T89 371T106 450T124 516H205Q176 433 156 346T136 161Q136 123 144 98T168 56T203 33T246 26Q269 26 289 33T324 56T347 97T356 161Q356 258
336 345T287 516H368Q376 487 385 450T403 372T416 286T422 199Q422 156 413 117T384 49T330 3T246 -15Z" />
<glyph unicode="v" glyph-name="v" horiz-adv-x="444" d="M222 30Q241 30 258 69T287 176T306 331T313 516H394Q394 410 381 314T345 146T290 31T222 -12Q186 -12 155 30T100 145T63 314T50 516H131Q131 419 138 331T157 176T185 70T222 30Z" />
<glyph unicode="w" glyph-name="w" horiz-adv-x="657" d="M222 27Q241 27 255 67T277 174T289 330T293 516H364Q364 419 368 331T380 175T401 67T435 27Q454 27 471 67T500 174T519 330T526 516H607Q607 410 594 314T558 144T503 28T435 -15Q412 -15 394 3T364
54T342 133T328 235Q323 179 315 133T293 54T263 3T222 -15Q186 -15 155 28T100 144T63 313T50 516H131Q131 419 138 331T157 175T185 67T222 27Z" />
<glyph unicode="x" glyph-name="x" horiz-adv-x="464" d="M232 256Q184 256 168 189T151 0H70Q70 100 97 170T167 271Q119 298 97 363T73 516H147Q147 470 149 430T161 359T186 311T232 293Q260 293 277 311T303 359T314 430T317 516H391Q389 429 367 364T296
271Q340 240 367 170T394 0H313Q313 122 297 189T232 256Z" />
<glyph unicode="y" glyph-name="y" horiz-adv-x="444" d="M169 -204Q202 -146 229 -87T278 32Q254 0 222 0Q186 0 155 41T100 152T63 316T50 516H131Q131 419 138 333T157 183T185 80T222 42Q248 42 266 70T295 147T310 263T315 408Q315 434 315 461T313 516H394Q394
404 381 301T346 104T295 -75T235 -234L169 -204Z" />
<glyph unicode="z" glyph-name="z" horiz-adv-x="418" d="M383 516Q377 440 350 374T284 250T197 144T101 58L380 50V0H25V47Q90 104 136 155T212 255T261 353T289 458L47 466V516H383Z" />
<glyph unicode="{" glyph-name="braceleft" horiz-adv-x="250" d="M3 342Q46 342 67 357T88 397Q88 415 87 436T85 480T82 523T81 560Q81 620 91 656T119 711T162 737T220 744V704Q202 704 187 700T160 681T141 640T134 570Q134 538 137 500T141 427Q141 345 73
322Q106 310 123 285T141 217Q141 182 138 144T134 74Q134 30 141 4T159 -36T186 -55T220 -60V-100Q188 -100 163 -94T119 -68T91 -12T81 84Q81 100 82 121T84 164T87 207T88 247Q88 271 67 286T3 302V342Z" />
<glyph unicode="|" glyph-name="bar" horiz-adv-x="350" d="M150 744H200V-100H150V744Z" />
<glyph unicode="}" glyph-name="braceright" horiz-adv-x="250" d="M247 302Q204 302 183 287T162 247Q162 229 163 208T165 164T168 121T169 84Q169 24 159 -12T131 -67T87 -93T30 -100V-60Q48 -60 63 -56T90 -37T109 4T116 74Q116 106 113 144T109 217Q109 259
126 284T177 322Q109 345 109 427Q109 462 112 500T116 570Q116 613 109 639T91 680T64 699T30 704V744Q61 744 87 738T131 712T159 656T169 560Q169 544 168 523T166 480T163 437T162 397Q162 373 183 358T247 342V302Z" />
<glyph unicode="~" glyph-name="asciitilde" horiz-adv-x="520" d="M450 298Q408 323 359 323Q334 323 310 315T261 297T211 279T157 271Q133 271 111 277T70 299V349Q88 334 110 328T156 321Q181 321 205 329T254 347T304 365T356 373Q407 373 450 348V298V298Z" />
<glyph unicode="&#xa0;" glyph-name="uni00A0" horiz-adv-x="300" />
<glyph unicode="&#xa1;" glyph-name="exclamdown" horiz-adv-x="265" d="M133 330Q140 330 146 307T157 245T166 160T174 67T178 -20T180 -87Q180 -116 178 -133T170 -159T155 -171T133 -174Q119 -174 110 -171T96 -159T89 -133T86 -87Q86 -61 87 -20T92 67T99
160T109 245T120 306T133 330ZM133 396Q122 396 113 404T97 425T87 456T83 492Q83 518 97 524T133 531Q154 531 168 525T182 492Q182 474 179 457T168 426T152 404T133 396Z" />
<glyph unicode="&#xa2;" glyph-name="cent" horiz-adv-x="425" d="M198 86Q169 96 145 128T103 207T75 311T65 426Q65 475 75 506T103 555T145 580T198 590V710H241V590Q269 588 294 581T338 558T367 513T378 441L297 422Q297 462 291 486T275 524T250 542T221
546Q206 546 193 542T169 525T152 489T146 426Q146 370 152 317T168 221T191 153T221 127Q234 127 246 159T269 244L343 233Q324 174 297 136T241 86V-40H198V86Z" />
<glyph unicode="&#xa3;" glyph-name="sterling" horiz-adv-x="520" d="M112 339Q101 375 92 411T83 489Q83 561 129 603T265 645Q302 645 335 639T393 618T432 579T447 519Q447 489 436 456L361 466Q366 494 366 519Q366 566 337 583T265 601Q236 601 217 593T186
569T169 534T164 489Q164 451 170 414T185 339H362V296H192Q194 279 196 262T198 228Q198 181 183 136T123 43L436 71V0H63V38Q105 87 120 130T136 214Q136 235 133 255T124 296H73V339H112Z" />
<glyph unicode="&#xa4;" glyph-name="currency" horiz-adv-x="520" d="M445 332Q445 297 437 267T413 213L497 130L462 95L382 175Q330 128 260 128Q225 128 194 140T138 175L58 95L23 130L107 214Q76 262 76 332Q76 400 107 450L23 534L58 569L138 488Q191 536
260 536Q294 536 325 524T382 489L462 569L497 534L414 451Q428 427 436 397T445 332ZM153 368Q153 342 158 308T177 242T213 190T269 169Q318 169 343 204T369 297Q369 343 360 379T334 441T297 481T251 495Q202 495 178 460T153 368Z" />
<glyph unicode="&#xa5;" glyph-name="yen" horiz-adv-x="520" d="M108 339Q89 394 78 466T67 630H147Q147 537 154 460T176 327T211 240T259 209Q285 209 305 240T340 327T362 460T370 630H450Q449 539 438 467T408 339H478V296H391Q367 240 336 209H478V166H289L302
0H214L228 166H41V209H181Q150 242 125 296H41V339H108Z" />
<glyph unicode="&#xa6;" glyph-name="brokenbar" horiz-adv-x="350" d="M150 734H200V444H150V734ZM150 190H200V-100H150V190Z" />
<glyph unicode="&#xa7;" glyph-name="section" horiz-adv-x="534" d="M474 192Q474 150 456 118T407 65Q421 49 430 29T439 -17Q439 -54 425 -92T387 -162T332 -214T267 -235Q243 -235 220 -222T175 -184T137 -127T107 -53L192 -28Q193 -68 200 -99T217 -151T241
-184T267 -195Q286 -195 303 -179T334 -138T354 -83T362 -26Q362 7 340 28T284 64T211 93T139 127T83 178T60 258Q60 300 78 331T127 384Q112 400 104 420T95 467Q95 504 109 542T147 612T202 664T267 685Q291 685 314 672T359 634T397 577T427 503L342 478Q341
518 334 549T317 601T293 634T267 645Q247 645 230 629T200 588T180 533T172 476Q172 443 194 422T250 386T323 357T395 323T451 272T474 192ZM391 186Q391 224 369 247T314 287T243 318T171 351Q157 335 150 313T143 264Q143 226 165 202T220 162T291 131T363
98Q377 115 384 137T391 186Z" />
<glyph unicode="&#xa8;" glyph-name="dieresis" horiz-adv-x="339" d="M94 588Q85 588 77 595T63 615T54 642T50 672Q50 695 63 701T94 707Q112 707 124 701T137 672Q137 657 134 642T125 615T111 596T94 588ZM246 588Q237 588 229 595T215 615T206 642T202 672Q202
695 215 701T246 707Q264 707 276 701T289 672Q289 657 286 642T277 615T263 596T246 588Z" />
<glyph unicode="&#xa9;" glyph-name="copyright" horiz-adv-x="835" d="M478 525Q478 560 473 581T459 613T438 628T413 632Q400 632 388 629T367 614T353 583T348 529Q348 481 353 435T366 352T387 294T413 271Q424 271 434 298T454 372L518 362Q498 302 469
267T412 232Q383 232 359 258T316 326T288 421T278 529Q278 575 288 603T317 646T359 666T412 671Q440 671 464 666T507 647T537 608T548 542L478 525ZM413 132Q342 132 281 170T176 272T106 414T80 576Q80 637 106 674T177 732T283 758T413 765Q483 765 545 759T653
732T727 675T755 576Q755 494 729 415T656 272T547 171T413 132ZM413 166Q470 166 519 201T605 295T663 426T684 574Q684 625 663 656T604 703T518 725T413 731Q359 731 311 726T228 704T172 656T151 574Q151 499 171 426T226 295T309 202T413 166Z" />
<glyph unicode="&#xaa;" glyph-name="ordfeminine" horiz-adv-x="321" d="M157 721Q179 721 198 702T232 651T254 579T262 498Q262 463 254 442T231 410T198 395T157 391Q135 391 117 394T85 407T64 434T56 480Q56 502 66 520T92 550T130 568T176 575Q182 575
190 575T204 573Q198 622 186 656T157 690Q146 690 138 668T130 610L74 624Q88 682 109 701T157 721ZM208 498Q208 509 208 519T207 540Q200 540 197 540T192 541Q160 541 136 528T111 480Q111 444 124 433T157 422Q167 422 176 424T193 435T204 458T208 498Z"
/>
<glyph unicode="&#xab;" glyph-name="guillemotleft" horiz-adv-x="490" d="M158 309Q158 289 177 245T240 147L230 120Q191 137 163 162T117 214T89 266T80 309Q80 326 89 351T116 403T163 455T230 498L240 471Q196 417 177 373T158 309ZM328 309Q328 289 347
245T410 147L400 120Q361 137 333 162T287 214T259 266T250 309Q250 326 259 351T286 403T333 455T400 498L410 471Q366 417 347 373T328 309Z" />
<glyph unicode="&#xac;" glyph-name="logicalnot" horiz-adv-x="520" d="M451 162H403V297H70V347H451V162Z" />
<glyph unicode="&#xae;" glyph-name="registered" horiz-adv-x="835" d="M413 132Q342 132 281 170T176 272T106 414T80 576Q80 637 106 674T177 732T283 758T413 765Q483 765 545 759T653 732T727 675T755 576Q755 494 729 415T656 272T547 171T413 132ZM413
166Q470 166 519 201T605 295T663 426T684 574Q684 625 663 656T604 703T518 725T413 731Q359 731 311 726T228 704T172 656T151 574Q151 499 171 426T226 295T309 202T413 166ZM314 661Q334 666 356 668T398 670Q473 670 515 637T557 541Q557 496 533 461T464
395Q494 377 514 336T534 235H468Q468 300 459 330T426 369Q415 363 403 357T375 344L372 235H324L314 661ZM382 632L375 385Q422 411 455 450T488 541Q488 586 467 609T397 632H382Z" />
<glyph unicode="&#xaf;" glyph-name="overscore" horiz-adv-x="334" d="M274 671Q279 671 282 662T286 640Q286 628 283 619T274 609H60Q55 609 52 618T48 640Q48 652 51 661T60 671H274Z" />
<glyph unicode="&#xb0;" glyph-name="degree" horiz-adv-x="330" d="M165 422Q176 422 185 434T202 465T213 509T217 560Q217 595 202 605T165 615Q145 615 130 605T115 560Q115 534 119 510T129 466T145 434T165 422ZM165 391Q143 391 124 406T91 445T68 500T60
563Q60 589 68 605T91 630T124 642T165 645Q187 645 206 642T239 630T262 605T270 563Q270 531 262 501T240 446T207 406T165 391Z" />
<glyph unicode="&#xb1;" glyph-name="plusminus" horiz-adv-x="520" d="M285 347H450V297H285V132H235V297H70V347H235V512H285V347ZM70 1V51H450V1H70Z" />
<glyph unicode="&#xb2;" glyph-name="twosuperior" horiz-adv-x="372" d="M298 624Q298 596 286 564T253 499T201 434T134 374Q173 373 213 372T292 369V330H62V366Q98 389 130 420T186 486T225 556T240 624Q240 650 228 668T186 686Q163 686 147 677T131 641Q131
634 132 626T135 607L80 599Q72 621 72 641Q72 664 81 679T105 704T142 717T186 721Q241 721 269 695T298 624Z" />
<glyph unicode="&#xb3;" glyph-name="threesuperior" horiz-adv-x="372" d="M302 640Q302 608 285 577T233 524Q253 516 267 504T289 478T301 450T305 424Q305 394 296 374T270 343T231 326T185 321Q160 321 138 325T100 340T74 367T64 407Q64 428 70 446L125
438Q121 422 121 407Q121 380 140 370T185 360Q198 360 209 362T229 372T243 391T248 424Q248 444 235 468T185 506Q171 503 156 501T119 499V532Q164 532 189 544T227 573T242 608T245 640Q245 665 229 674T190 684Q167 684 149 675T130 640Q130 632 131 624T133
606L80 598Q74 619 74 640Q74 663 83 678T109 702T146 715T190 719Q213 719 233 715T269 702T293 678T302 640Z" />
<glyph unicode="&#xb4;" glyph-name="acute" horiz-adv-x="444" d="M177 574Q174 574 169 575T164 582Q164 590 178 605T213 637T253 669T286 691Q296 697 305 697Q319 697 330 681T341 651Q341 637 323 627Q313 621 293 612T251 595T209 580T177 574Z" />
<glyph unicode="&#xb5;" glyph-name="mu" horiz-adv-x="444" d="M336 185H332Q324 140 314 104T290 42T260 2T222 -12Q201 -12 183 3T150 46T124 112T103 199H98L116 -220H40L50 516H131Q131 419 138 331T157 176T185 70T222 30Q241 30 258 69T287 176T306 331T313
516H393L383 0H347L336 185Z" />
<glyph unicode="&#xb6;" glyph-name="paragraph" horiz-adv-x="472" d="M368 -100H312V263Q199 295 140 354T80 501Q80 545 95 579T139 636T205 672T291 685Q333 685 392 670L368 -100Z" />
<glyph unicode="&#xb7;" glyph-name="middot" horiz-adv-x="205" d="M103 235Q92 235 82 243T65 266T54 299T50 336Q50 364 65 371T103 378Q125 378 140 371T155 336Q155 317 151 299T140 267T124 244T103 235Z" />
<glyph unicode="&#xb8;" glyph-name="cedilla" horiz-adv-x="326" d="M184 23Q227 -18 251 -57T276 -138Q276 -183 248 -209T164 -235Q141 -235 120 -231T84 -218T59 -194T50 -155Q50 -135 58 -113L113 -121Q111 -131 110 -139T109 -155Q109 -181 125 -190T164
-200Q194 -200 206 -182T218 -138Q218 -101 199 -65T148 5L184 23Z" />
<glyph unicode="&#xb9;" glyph-name="onesuperior" horiz-adv-x="372" d="M179 715H219V373L298 376V330H79V368L158 371Q162 448 166 520T175 670Q150 656 124 642T74 613L55 654L179 715Z" />
<glyph unicode="&#xba;" glyph-name="ordmasculine" horiz-adv-x="326" d="M162 422Q173 422 182 438T199 481T210 542T214 613Q214 637 210 652T199 675T182 686T162 689Q152 689 143 687T127 676T116 652T112 613Q112 577 116 543T126 482T142 439T162 422ZM162
391Q140 391 121 410T88 461T65 532T57 613Q57 647 65 668T88 700T121 715T162 719Q184 719 203 715T236 700T259 668T267 613Q267 572 259 533T237 462T204 411T162 391Z" />
<glyph unicode="&#xbb;" glyph-name="guillemotright" horiz-adv-x="490" d="M332 309Q332 328 313 372T250 471L260 498Q299 481 327 456T373 404T401 352T410 309Q410 292 401 267T374 215T327 163T260 120L250 147Q294 201 313 245T332 309ZM162 309Q162 328
143 372T80 471L90 498Q129 481 157 456T203 404T231 352T240 309Q240 292 231 267T204 215T157 163T90 120L80 147Q124 201 143 245T162 309Z" />
<glyph unicode="&#xbc;" glyph-name="onequarter" horiz-adv-x="842" d="M504 677L550 664L338 -47L292 -34L504 677ZM185 639H225V297L304 300V254H85V292L164 295Q168 372 172 444T181 594Q156 580 130 566T80 537L61 578L185 639ZM687 74H659Q636 74 613 77T570
92T540 124T528 177Q528 205 536 232T557 285T589 335T626 382H661Q631 334 610 285T589 196Q589 151 604 129T659 107H688L701 315H744V107H785V74H744V0H682L687 74Z" />
<glyph unicode="&#xbd;" glyph-name="onehalf" horiz-adv-x="842" d="M504 677L550 664L338 -47L292 -34L504 677ZM185 639H225V297L304 300V254H85V292L164 295Q168 372 172 444T181 594Q156 580 130 566T80 537L61 578L185 639ZM764 294Q764 266 752 234T719
169T667 104T600 44Q639 43 679 42T758 39V0H528V36Q564 59 596 90T652 156T691 226T706 294Q706 320 694 338T652 356Q629 356 613 347T597 311Q597 304 598 296T601 277L546 269Q538 291 538 311Q538 334 547 349T571 374T608 387T652 391Q707 391 735 365T764
294Z" />
<glyph unicode="&#xbe;" glyph-name="threequarters" horiz-adv-x="842" d="M504 677L550 664L338 -47L292 -34L504 677ZM308 564Q308 532 291 501T239 448Q259 440 273 428T295 402T307 374T311 348Q311 318 302 298T276 267T237 250T191 245Q166 245 144 249T106
264T80 291T70 331Q70 352 76 370L131 362Q127 346 127 331Q127 304 146 294T191 284Q204 284 215 286T235 296T249 315T254 348Q254 368 241 392T191 430Q177 427 162 425T125 423V456Q170 456 195 468T233 497T248 532T251 564Q251 589 235 598T196 608Q173 608
155 599T136 564Q136 556 137 548T139 530L86 522Q80 543 80 564Q80 587 89 602T115 626T152 639T196 643Q219 643 239 639T275 626T299 602T308 564ZM687 74H659Q636 74 613 77T570 92T540 124T528 177Q528 205 536 232T557 285T589 335T626 382H661Q631 334 610
285T589 196Q589 151 604 129T659 107H688L701 315H744V107H785V74H744V0H682L687 74Z" />
<glyph unicode="&#xbf;" glyph-name="questiondown" d="M232 396Q221 396 212 404T196 425T186 456T182 492Q182 518 196 524T232 531Q253 531 267 525T281 492Q281 474 278 457T267 426T251 404T232 396ZM268 309Q237 271 211 229T165 145T135 62T124 -18Q124
-42 129 -62T147 -98T178 -121T225 -130Q280 -130 301 -104T323 -38Q323 -12 316 16T296 73L366 96Q396 30 396 -23Q396 -59 383 -87T347 -134T292 -164T222 -174Q132 -174 86 -132T40 -18Q40 62 92 152T239 337L268 309Z" />
<glyph unicode="&#xc0;" glyph-name="Agrave" horiz-adv-x="544" d="M397 0Q397 42 396 81T393 160H152Q150 121 149 82T148 0H60Q61 138 77 262T122 481T189 630T272 685Q317 685 355 630T421 481T466 263T484 0H397ZM272 645Q251 645 232 612T198 519T172 380T155
205H390Q384 299 373 379T346 519T312 611T272 645ZM347 724Q336 724 316 730T273 744T231 762T201 777Q183 787 183 801Q183 815 194 831T219 847Q228 847 238 841Q250 834 270 819T311 788T345 756T360 732Q360 727 355 726T347 724Z" />
<glyph unicode="&#xc1;" glyph-name="Aacute" horiz-adv-x="544" d="M397 0Q397 42 396 81T393 160H152Q150 121 149 82T148 0H60Q61 138 77 262T122 481T189 630T272 685Q317 685 355 630T421 481T466 263T484 0H397ZM272 645Q251 645 232 612T198 519T172 380T155
205H390Q384 299 373 379T346 519T312 611T272 645ZM216 724Q213 724 208 725T203 732Q203 740 217 755T252 787T292 819T325 841Q335 847 344 847Q358 847 369 831T380 801Q380 787 362 777Q352 771 332 762T290 745T248 730T216 724Z" />
<glyph unicode="&#xc2;" glyph-name="Acircumflex" horiz-adv-x="544" d="M397 0Q397 42 396 81T393 160H152Q150 121 149 82T148 0H60Q61 138 77 262T122 481T189 630T272 685Q317 685 355 630T421 481T466 263T484 0H397ZM272 645Q251 645 232 612T198 519T172
380T155 205H390Q384 299 373 379T346 519T312 611T272 645ZM376 724Q368 724 355 729T328 743T298 760T272 777Q261 769 246 760T217 743T189 730T168 724Q165 724 160 725T155 732Q155 740 167 757T196 792T230 827T256 851Q265 857 272 857Q277 857 288 851Q297
844 314 828T347 793T376 757T389 732Q389 727 384 726T376 724Z" />
<glyph unicode="&#xc3;" glyph-name="Atilde" horiz-adv-x="544" d="M397 0Q397 42 396 81T393 160H152Q150 121 149 82T148 0H60Q61 138 77 262T122 481T189 630T272 685Q317 685 355 630T421 481T466 263T484 0H397ZM272 645Q251 645 232 612T198 519T172 380T155
205H390Q384 299 373 379T346 519T312 611T272 645ZM329 733Q313 733 299 742T271 762T247 783T225 792Q220 792 215 791T206 783T200 765T197 733L139 749Q142 781 149 802T166 835T188 852T215 857Q233 857 247 848T272 828T295 807T319 798Q324 798 329 799T338
807T344 825T347 857L405 841Q402 809 395 788T378 755T356 738T329 733Z" />
<glyph unicode="&#xc4;" glyph-name="Adieresis" horiz-adv-x="544" d="M397 0Q397 42 396 81T393 160H152Q150 121 149 82T148 0H60Q61 138 77 262T122 481T189 630T272 685Q317 685 355 630T421 481T466 263T484 0H397ZM272 645Q251 645 232 612T198 519T172
380T155 205H390Q384 299 373 379T346 519T312 611T272 645ZM196 738Q187 738 179 745T165 765T156 792T152 822Q152 845 165 851T196 857Q214 857 226 851T239 822Q239 807 236 792T227 765T213 746T196 738ZM348 738Q339 738 331 745T317 765T308 792T304 822Q304
845 317 851T348 857Q366 857 378 851T391 822Q391 807 388 792T379 765T365 746T348 738Z" />
<glyph unicode="&#xc5;" glyph-name="Aring" horiz-adv-x="544" d="M397 0Q397 42 396 81T393 160H152Q150 121 149 82T148 0H60Q61 138 77 262T122 481T189 630T272 685Q317 685 355 630T421 481T466 263T484 0H397ZM272 645Q251 645 232 612T198 519T172 380T155
205H390Q384 299 373 379T346 519T312 611T272 645ZM273 720Q256 720 242 729T216 753T199 787T192 826Q192 855 216 863T273 871Q306 871 329 863T352 826Q352 806 346 787T330 753T305 729T273 720ZM273 760Q286 760 294 777T303 809Q303 821 295 826T273 831Q259
831 250 826T241 809Q241 794 250 777T273 760Z" />
<glyph unicode="&#xc6;" glyph-name="AE" horiz-adv-x="792" d="M709 174Q695 132 678 98T641 38T598 -1T551 -15Q521 -15 494 6T443 64T401 151T370 260H167Q163 197 162 132T158 0H70Q72 198 93 329T148 540T223 652T307 685Q333 685 359 674T405 643Q433 669
470 677T551 685Q590 685 624 679T686 653T730 597T752 501L666 477Q665 532 656 565T631 616T595 639T551 645Q528 645 507 639T471 614T446 559T437 462Q437 421 438 382T445 305H640V260H451Q458 210 468 167T491 93T519 43T551 25Q579 25 601 70T640 188L709
174ZM306 645Q273 645 250 619T212 547T187 439T171 305H362Q356 343 353 382T349 462Q349 516 357 553T383 616Q341 645 306 645Z" />
<glyph unicode="&#xc7;" glyph-name="Ccedilla" horiz-adv-x="503" d="M420 174Q406 132 389 98T352 38T309 -1T262 -15Q220 -15 183 26T119 134T76 286T60 462Q60 535 76 579T119 646T184 677T262 685Q301 685 335 679T397 653T441 597T463 501L377 477Q376 532
367 565T342 616T306 639T262 645Q239 645 218 639T182 614T157 559T148 462Q148 379 156 301T180 161T217 62T262 25Q290 25 312 70T351 188L420 174ZM241 23Q284 -18 308 -57T333 -138Q333 -183 305 -209T221 -235Q198 -235 177 -231T141 -218T116 -194T107 -155Q107
-135 115 -113L170 -121Q168 -131 167 -139T166 -155Q166 -181 182 -190T221 -200Q251 -200 263 -182T275 -138Q275 -101 256 -65T205 5L241 23Z" />
<glyph unicode="&#xc8;" glyph-name="Egrave" horiz-adv-x="503" d="M420 174Q406 132 389 98T352 38T309 -1T262 -15Q220 -15 183 26T119 134T76 286T60 462Q60 535 76 579T119 646T184 677T262 685Q301 685 335 679T397 653T441 597T463 501L377 477Q376 532
367 565T342 616T306 639T262 645Q239 645 218 639T182 614T157 559T148 462Q148 421 149 382T156 305H351V260H162Q169 210 179 167T202 93T230 43T262 25Q290 25 312 70T351 188L420 174ZM327 724Q316 724 296 730T253 744T211 762T181 777Q163 787 163 801Q163
815 174 831T199 847Q208 847 218 841Q230 834 250 819T291 788T325 756T340 732Q340 727 335 726T327 724Z" />
<glyph unicode="&#xc9;" glyph-name="Eacute" horiz-adv-x="503" d="M420 174Q406 132 389 98T352 38T309 -1T262 -15Q220 -15 183 26T119 134T76 286T60 462Q60 535 76 579T119 646T184 677T262 685Q301 685 335 679T397 653T441 597T463 501L377 477Q376 532
367 565T342 616T306 639T262 645Q239 645 218 639T182 614T157 559T148 462Q148 421 149 382T156 305H351V260H162Q169 210 179 167T202 93T230 43T262 25Q290 25 312 70T351 188L420 174ZM197 724Q194 724 189 725T184 732Q184 740 198 755T233 787T273 819T306
841Q316 847 325 847Q339 847 350 831T361 801Q361 787 343 777Q333 771 313 762T271 745T229 730T197 724Z" />
<glyph unicode="&#xca;" glyph-name="Ecircumflex" horiz-adv-x="503" d="M420 174Q406 132 389 98T352 38T309 -1T262 -15Q220 -15 183 26T119 134T76 286T60 462Q60 535 76 579T119 646T184 677T262 685Q301 685 335 679T397 653T441 597T463 501L377 477Q376
532 367 565T342 616T306 639T262 645Q239 645 218 639T182 614T157 559T148 462Q148 421 149 382T156 305H351V260H162Q169 210 179 167T202 93T230 43T262 25Q290 25 312 70T351 188L420 174ZM355 724Q347 724 334 729T307 743T277 760T251 777Q240 769 225 760T196
743T168 730T147 724Q144 724 139 725T134 732Q134 740 146 757T175 792T209 827T235 851Q244 857 251 857Q256 857 267 851Q276 844 293 828T326 793T355 757T368 732Q368 727 363 726T355 724Z" />
<glyph unicode="&#xcb;" glyph-name="Edieresis" horiz-adv-x="503" d="M420 174Q406 132 389 98T352 38T309 -1T262 -15Q220 -15 183 26T119 134T76 286T60 462Q60 535 76 579T119 646T184 677T262 685Q301 685 335 679T397 653T441 597T463 501L377 477Q376
532 367 565T342 616T306 639T262 645Q239 645 218 639T182 614T157 559T148 462Q148 421 149 382T156 305H351V260H162Q169 210 179 167T202 93T230 43T262 25Q290 25 312 70T351 188L420 174ZM176 738Q167 738 159 745T145 765T136 792T132 822Q132 845 145 851T176
857Q194 857 206 851T219 822Q219 807 216 792T207 765T193 746T176 738ZM328 738Q319 738 311 745T297 765T288 792T284 822Q284 845 297 851T328 857Q346 857 358 851T371 822Q371 807 368 792T359 765T345 746T328 738Z" />
<glyph unicode="&#xcc;" glyph-name="Igrave" horiz-adv-x="248" d="M97 670H153L168 0H80L97 670ZM457 724Q446 724 426 730T383 744T341 762T311 777Q293 787 293 801Q293 815 304 831T329 847Q338 847 348 841Q360 834 380 819T421 788T455 756T470 732Q470
727 465 726T457 724Z" />
<glyph unicode="&#xcd;" glyph-name="Iacute" horiz-adv-x="248" d="M97 670H153L168 0H80L97 670ZM326 724Q323 724 318 725T313 732Q313 740 327 755T362 787T402 819T435 841Q445 847 454 847Q468 847 479 831T490 801Q490 787 472 777Q462 771 442 762T400
745T358 730T326 724Z" />
<glyph unicode="&#xce;" glyph-name="Icircumflex" horiz-adv-x="248" d="M97 670H153L168 0H80L97 670ZM485 724Q477 724 464 729T437 743T407 760T381 777Q370 769 355 760T326 743T298 730T277 724Q274 724 269 725T264 732Q264 740 276 757T305 792T339 827T365
851Q374 857 381 857Q386 857 397 851Q406 844 423 828T456 793T485 757T498 732Q498 727 493 726T485 724Z" />
<glyph unicode="&#xcf;" glyph-name="Idieresis" horiz-adv-x="248" d="M97 670H153L168 0H80L97 670ZM306 738Q297 738 289 745T275 765T266 792T262 822Q262 845 275 851T306 857Q324 857 336 851T349 822Q349 807 346 792T337 765T323 746T306 738ZM458 738Q449
738 441 745T427 765T418 792T414 822Q414 845 427 851T458 857Q476 857 488 851T501 822Q501 807 498 792T489 765T475 746T458 738Z" />
<glyph unicode="&#xd0;" glyph-name="Eth" horiz-adv-x="517" d="M467 488Q467 432 450 367T394 236T297 109T153 0H97L80 670Q156 685 220 685Q341 685 404 635T467 488ZM219 642Q207 642 194 641T167 638L154 51Q214 89 256 141T326 253T366 372T379 487Q379
562 341 602T219 642ZM296 623V578H27V623H296Z" />
<glyph unicode="&#xd1;" glyph-name="Ntilde" horiz-adv-x="576" d="M97 670H153L160 345Q180 420 200 482T244 590T293 660T351 685Q388 685 417 646T468 539T500 378T511 177Q511 134 510 90T504 0H417Q423 69 425 134T428 260Q428 343 423 413T408 535T382
616T348 645Q325 645 300 606T249 499T202 340T165 143L168 0H80L97 670ZM349 733Q333 733 319 742T291 762T267 783T245 792Q240 792 235 791T226 783T220 765T217 733L159 749Q162 781 169 802T186 835T208 852T235 857Q253 857 267 848T292 828T315 807T339
798Q344 798 349 799T358 807T364 825T367 857L425 841Q422 809 415 788T398 755T376 738T349 733Z" />
<glyph unicode="&#xd2;" glyph-name="Ograve" horiz-adv-x="544" d="M272 25Q299 25 322 62T361 160T387 300T397 462Q397 523 387 559T360 614T321 639T272 645Q247 645 225 639T185 614T158 559T148 462Q148 379 157 301T183 161T222 62T272 25ZM272 -15Q228
-15 189 26T122 134T77 286T60 462Q60 535 77 579T123 646T190 677T272 685Q316 685 354 678T422 647T467 579T484 462Q484 372 468 287T423 134T356 26T272 -15ZM347 724Q336 724 316 730T273 744T231 762T201 777Q183 787 183 801Q183 815 194 831T219 847Q228
847 238 841Q250 834 270 819T311 788T345 756T360 732Q360 727 355 726T347 724Z" />
<glyph unicode="&#xd3;" glyph-name="Oacute" horiz-adv-x="544" d="M272 25Q299 25 322 62T361 160T387 300T397 462Q397 523 387 559T360 614T321 639T272 645Q247 645 225 639T185 614T158 559T148 462Q148 379 157 301T183 161T222 62T272 25ZM272 -15Q228
-15 189 26T122 134T77 286T60 462Q60 535 77 579T123 646T190 677T272 685Q316 685 354 678T422 647T467 579T484 462Q484 372 468 287T423 134T356 26T272 -15ZM216 724Q213 724 208 725T203 732Q203 740 217 755T252 787T292 819T325 841Q335 847 344 847Q358
847 369 831T380 801Q380 787 362 777Q352 771 332 762T290 745T248 730T216 724Z" />
<glyph unicode="&#xd4;" glyph-name="Ocircumflex" horiz-adv-x="544" d="M272 25Q299 25 322 62T361 160T387 300T397 462Q397 523 387 559T360 614T321 639T272 645Q247 645 225 639T185 614T158 559T148 462Q148 379 157 301T183 161T222 62T272 25ZM272 -15Q228
-15 189 26T122 134T77 286T60 462Q60 535 77 579T123 646T190 677T272 685Q316 685 354 678T422 647T467 579T484 462Q484 372 468 287T423 134T356 26T272 -15ZM376 724Q368 724 355 729T328 743T298 760T272 777Q261 769 246 760T217 743T189 730T168 724Q165
724 160 725T155 732Q155 740 167 757T196 792T230 827T256 851Q265 857 272 857Q277 857 288 851Q297 844 314 828T347 793T376 757T389 732Q389 727 384 726T376 724Z" />
<glyph unicode="&#xd5;" glyph-name="Otilde" horiz-adv-x="544" d="M272 25Q299 25 322 62T361 160T387 300T397 462Q397 523 387 559T360 614T321 639T272 645Q247 645 225 639T185 614T158 559T148 462Q148 379 157 301T183 161T222 62T272 25ZM272 -15Q228
-15 189 26T122 134T77 286T60 462Q60 535 77 579T123 646T190 677T272 685Q316 685 354 678T422 647T467 579T484 462Q484 372 468 287T423 134T356 26T272 -15ZM329 733Q313 733 299 742T271 762T247 783T225 792Q220 792 215 791T206 783T200 765T197 733L139
749Q142 781 149 802T166 835T188 852T215 857Q233 857 247 848T272 828T295 807T319 798Q324 798 329 799T338 807T344 825T347 857L405 841Q402 809 395 788T378 755T356 738T329 733Z" />
<glyph unicode="&#xd6;" glyph-name="Odieresis" horiz-adv-x="544" d="M272 25Q299 25 322 62T361 160T387 300T397 462Q397 523 387 559T360 614T321 639T272 645Q247 645 225 639T185 614T158 559T148 462Q148 379 157 301T183 161T222 62T272 25ZM272 -15Q228
-15 189 26T122 134T77 286T60 462Q60 535 77 579T123 646T190 677T272 685Q316 685 354 678T422 647T467 579T484 462Q484 372 468 287T423 134T356 26T272 -15ZM196 738Q187 738 179 745T165 765T156 792T152 822Q152 845 165 851T196 857Q214 857 226 851T239
822Q239 807 236 792T227 765T213 746T196 738ZM348 738Q339 738 331 745T317 765T308 792T304 822Q304 845 317 851T348 857Q366 857 378 851T391 822Q391 807 388 792T379 765T365 746T348 738Z" />
<glyph unicode="&#xd7;" glyph-name="multiply" horiz-adv-x="520" d="M260 357L398 495L433 460L295 322L433 184L398 149L260 287L122 149L87 184L225 322L87 460L122 495L260 357Z" />
<glyph unicode="&#xd8;" glyph-name="Oslash" horiz-adv-x="544" d="M272 25Q299 25 322 62T361 160T387 300T397 462Q397 523 387 559T360 614T321 639T272 645Q247 645 225 639T185 614T158 559T148 462Q148 379 157 301T183 161T222 62T272 25ZM272 -15Q228
-15 189 26T122 134T77 286T60 462Q60 535 77 579T123 646T190 677T272 685Q316 685 354 678T422 647T467 579T484 462Q484 372 468 287T423 134T356 26T272 -15ZM394 743L441 726L150 -73L103 -56L394 743Z" />
<glyph unicode="&#xd9;" glyph-name="Ugrave" horiz-adv-x="546" d="M274 -15Q214 -15 173 7T107 67T71 155T60 261Q60 316 66 373T84 483T110 584T140 670H232Q208 617 190 559T159 442T139 328T132 224Q132 127 170 76T274 25Q338 25 377 76T416 224Q416 272
409 327T390 441T359 558T316 670H408Q423 632 437 584T463 483T481 373T488 261Q488 205 477 155T441 67T375 7T274 -15ZM348 724Q337 724 317 730T274 744T232 762T202 777Q184 787 184 801Q184 815 195 831T220 847Q229 847 239 841Q251 834 271 819T312 788T346
756T361 732Q361 727 356 726T348 724Z" />
<glyph unicode="&#xda;" glyph-name="Uacute" horiz-adv-x="546" d="M274 -15Q214 -15 173 7T107 67T71 155T60 261Q60 316 66 373T84 483T110 584T140 670H232Q208 617 190 559T159 442T139 328T132 224Q132 127 170 76T274 25Q338 25 377 76T416 224Q416 272
409 327T390 441T359 558T316 670H408Q423 632 437 584T463 483T481 373T488 261Q488 205 477 155T441 67T375 7T274 -15ZM217 724Q214 724 209 725T204 732Q204 740 218 755T253 787T293 819T326 841Q336 847 345 847Q359 847 370 831T381 801Q381 787 363 777Q353
771 333 762T291 745T249 730T217 724Z" />
<glyph unicode="&#xdb;" glyph-name="Ucircumflex" horiz-adv-x="548" d="M274 -15Q214 -15 173 7T107 67T71 155T60 261Q60 316 66 373T84 483T110 584T140 670H232Q208 617 190 559T159 442T139 328T132 224Q132 127 170 76T274 25Q338 25 377 76T416 224Q416
272 409 327T390 441T359 558T316 670H408Q423 632 437 584T463 483T481 373T488 261Q488 205 477 155T441 67T375 7T274 -15ZM378 724Q370 724 357 729T330 743T300 760T274 777Q263 769 248 760T219 743T191 730T170 724Q167 724 162 725T157 732Q157 740 169
757T198 792T232 827T258 851Q267 857 274 857Q279 857 290 851Q299 844 316 828T349 793T378 757T391 732Q391 727 386 726T378 724Z" />
<glyph unicode="&#xdc;" glyph-name="Udieresis" horiz-adv-x="546" d="M274 -15Q214 -15 173 7T107 67T71 155T60 261Q60 316 66 373T84 483T110 584T140 670H232Q208 617 190 559T159 442T139 328T132 224Q132 127 170 76T274 25Q338 25 377 76T416 224Q416
272 409 327T390 441T359 558T316 670H408Q423 632 437 584T463 483T481 373T488 261Q488 205 477 155T441 67T375 7T274 -15ZM197 738Q188 738 180 745T166 765T157 792T153 822Q153 845 166 851T197 857Q215 857 227 851T240 822Q240 807 237 792T228 765T214
746T197 738ZM349 738Q340 738 332 745T318 765T309 792T305 822Q305 845 318 851T349 857Q367 857 379 851T392 822Q392 807 389 792T380 765T366 746T349 738Z" />
<glyph unicode="&#xdd;" glyph-name="Yacute" horiz-adv-x="492" d="M218 168Q182 180 152 220T99 324T63 476T50 670H135Q135 576 140 491T158 342T192 240T247 202Q280 202 301 240T334 342T352 491T358 670H442Q442 564 429 477T394 325T341 220T275 168L290
0H202L218 168ZM428 724Q425 724 420 725T415 732Q415 740 429 755T464 787T504 819T537 841Q547 847 556 847Q570 847 581 831T592 801Q592 787 574 777Q564 771 544 762T502 745T460 730T428 724Z" />
<glyph unicode="&#xde;" glyph-name="Thorn" horiz-adv-x="472" d="M80 670H168L166 593Q175 594 184 594T201 595Q317 595 379 545T442 398Q442 343 419 294T357 203T265 127T154 65L153 0H97L80 670ZM200 552Q192 552 183 552T165 550L155 110Q194 133 230 163T293
230T337 308T354 397Q354 472 317 512T200 552Z" />
<glyph unicode="&#xdf;" glyph-name="germandbls" horiz-adv-x="610" d="M393 -15Q359 -15 329 -8T277 16T242 58T229 122H307Q307 72 332 54T393 35Q411 35 426 39T454 57T472 93T479 152Q479 176 475 203T451 253T395 291T290 306V346Q304 346 318 351T343 370T362
410T369 479Q369 545 361 591T339 665T310 707T280 720Q266 720 251 706T223 658T202 568T194 429V0H107L125 382Q127 425 131 464L50 468V516H138Q146 570 159 615T189 693T229 744T280 762Q316 762 344 737T393 672T424 580T435 478Q435 405 416 373T360 331Q417
323 455 305T517 261T550 208T560 152Q560 103 547 71T511 20T458 -7T393 -15Z" />
<glyph unicode="&#xe0;" glyph-name="agrave" horiz-adv-x="435" d="M213 531Q249 531 280 499T335 414T372 295T385 160Q385 103 372 69T335 16T280 -9T213 -15Q178 -15 148 -10T96 12T62 56T49 130Q49 167 65 196T108 244T170 274T245 285Q269 285 297 280Q292
323 284 361T264 427T240 472T213 489Q194 489 178 452T161 355L80 376Q91 422 105 452T136 499T172 524T213 531ZM304 160Q304 198 301 236Q293 237 286 237T272 238Q243 238 218 232T173 213T142 180T130 130Q130 98 136 78T153 46T179 30T213 26Q232 26 248
30T277 49T297 90T304 160ZM293 574Q282 574 262 580T219 594T177 612T147 627Q129 637 129 651Q129 665 140 681T165 697Q174 697 184 691Q196 684 216 669T257 638T291 606T306 582Q306 577 301 576T293 574Z" />
<glyph unicode="&#xe1;" glyph-name="aacute" horiz-adv-x="435" d="M213 531Q249 531 280 499T335 414T372 295T385 160Q385 103 372 69T335 16T280 -9T213 -15Q178 -15 148 -10T96 12T62 56T49 130Q49 167 65 196T108 244T170 274T245 285Q269 285 297 280Q292
323 284 361T264 427T240 472T213 489Q194 489 178 452T161 355L80 376Q91 422 105 452T136 499T172 524T213 531ZM304 160Q304 198 301 236Q293 237 286 237T272 238Q243 238 218 232T173 213T142 180T130 130Q130 98 136 78T153 46T179 30T213 26Q232 26 248
30T277 49T297 90T304 160ZM403 574Q400 574 395 575T390 582Q390 590 404 605T439 637T479 669T512 691Q522 697 531 697Q545 697 556 681T567 651Q567 637 549 627Q539 621 519 612T477 595T435 580T403 574Z" />
<glyph unicode="&#xe2;" glyph-name="acircumflex" horiz-adv-x="435" d="M213 531Q249 531 280 499T335 414T372 295T385 160Q385 103 372 69T335 16T280 -9T213 -15Q178 -15 148 -10T96 12T62 56T49 130Q49 167 65 196T108 244T170 274T245 285Q269 285 297
280Q292 323 284 361T264 427T240 472T213 489Q194 489 178 452T161 355L80 376Q91 422 105 452T136 499T172 524T213 531ZM304 160Q304 198 301 236Q293 237 286 237T272 238Q243 238 218 232T173 213T142 180T130 130Q130 98 136 78T153 46T179 30T213 26Q232
26 248 30T277 49T297 90T304 160ZM321 574Q313 574 300 579T273 593T243 610T217 627Q206 619 191 610T162 593T134 580T113 574Q110 574 105 575T100 582Q100 590 112 607T141 642T175 677T201 701Q210 707 217 707Q222 707 233 701Q242 694 259 678T292 643T321
607T334 582Q334 577 329 576T321 574Z" />
<glyph unicode="&#xe3;" glyph-name="atilde" horiz-adv-x="435" d="M213 531Q249 531 280 499T335 414T372 295T385 160Q385 103 372 69T335 16T280 -9T213 -15Q178 -15 148 -10T96 12T62 56T49 130Q49 167 65 196T108 244T170 274T245 285Q269 285 297 280Q292
323 284 361T264 427T240 472T213 489Q194 489 178 452T161 355L80 376Q91 422 105 452T136 499T172 524T213 531ZM304 160Q304 198 301 236Q293 237 286 237T272 238Q243 238 218 232T173 213T142 180T130 130Q130 98 136 78T153 46T179 30T213 26Q232 26 248
30T277 49T297 90T304 160ZM274 583Q258 583 244 592T216 612T192 633T170 642Q165 642 160 641T151 633T145 615T142 583L84 599Q87 631 94 652T111 685T133 702T160 707Q178 707 192 698T217 678T240 657T264 648Q269 648 274 649T283 657T289 675T292 707L350
691Q347 659 340 638T323 605T301 588T274 583Z" />
<glyph unicode="&#xe4;" glyph-name="adieresis" horiz-adv-x="435" d="M213 531Q249 531 280 499T335 414T372 295T385 160Q385 103 372 69T335 16T280 -9T213 -15Q178 -15 148 -10T96 12T62 56T49 130Q49 167 65 196T108 244T170 274T245 285Q269 285 297 280Q292
323 284 361T264 427T240 472T213 489Q194 489 178 452T161 355L80 376Q91 422 105 452T136 499T172 524T213 531ZM304 160Q304 198 301 236Q293 237 286 237T272 238Q243 238 218 232T173 213T142 180T130 130Q130 98 136 78T153 46T179 30T213 26Q232 26 248
30T277 49T297 90T304 160ZM142 588Q133 588 125 595T111 615T102 642T98 672Q98 695 111 701T142 707Q160 707 172 701T185 672Q185 657 182 642T173 615T159 596T142 588ZM294 588Q285 588 277 595T263 615T254 642T250 672Q250 695 263 701T294 707Q312 707
324 701T337 672Q337 657 334 642T325 615T311 596T294 588Z" />
<glyph unicode="&#xe5;" glyph-name="aring" horiz-adv-x="435" d="M213 531Q249 531 280 499T335 414T372 295T385 160Q385 103 372 69T335 16T280 -9T213 -15Q178 -15 148 -10T96 12T62 56T49 130Q49 167 65 196T108 244T170 274T245 285Q269 285 297 280Q292
323 284 361T264 427T240 472T213 489Q194 489 178 452T161 355L80 376Q91 422 105 452T136 499T172 524T213 531ZM304 160Q304 198 301 236Q293 237 286 237T272 238Q243 238 218 232T173 213T142 180T130 130Q130 98 136 78T153 46T179 30T213 26Q232 26 248
30T277 49T297 90T304 160ZM218 570Q201 570 187 579T161 603T144 637T137 676Q137 705 161 713T218 721Q251 721 274 713T297 676Q297 656 291 637T275 603T250 579T218 570ZM218 610Q231 610 239 627T248 659Q248 671 240 676T218 681Q204 681 195 676T186 659Q186
644 195 627T218 610Z" />
<glyph unicode="&#xe6;" glyph-name="ae" horiz-adv-x="700" d="M635 386Q635 356 625 327T593 274T538 235T460 220Q422 220 382 230Q387 188 395 151T414 87T438 43T465 27Q483 27 498 61T526 155L597 142Q574 70 538 28T465 -15Q437 -15 412 4T366 57Q355 34
340 20T304 -1T261 -12T213 -15Q178 -15 148 -10T96 12T62 56T49 130Q49 167 65 196T108 247T170 279T245 290Q268 290 296 285Q291 327 283 364T263 429T240 473T213 489Q194 489 178 452T161 355L80 376Q91 422 105 452T136 499T172 524T213 531Q241 531 266
512T311 459Q333 504 373 517T465 531Q500 531 531 524T585 500T621 456T635 386ZM374 356Q374 313 377 273Q394 270 409 269T438 268Q473 268 496 277T532 303T550 340T555 386Q555 443 529 466T465 490Q446 490 430 486T401 467T381 426T374 356ZM304 160Q304
180 303 201T300 242Q293 243 286 243T272 243Q243 243 218 237T173 216T142 181T130 130Q130 98 136 78T153 46T179 30T213 26Q232 26 248 30T277 49T297 90T304 160Z" />
<glyph unicode="&#xe7;" glyph-name="ccedilla" horiz-adv-x="425" d="M303 356Q303 399 296 425T278 466T251 485T217 490Q199 490 184 486T157 467T138 426T131 356Q131 295 137 236T155 131T182 56T216 27Q233 27 247 61T273 155L344 142Q321 70 286 28T215
-15Q180 -15 150 17T98 102T63 221T50 356Q50 413 63 447T98 500T151 525T215 531Q249 531 279 525T333 503T370 456T384 376L303 356ZM199 23Q242 -18 266 -57T291 -138Q291 -183 263 -209T179 -235Q156 -235 135 -231T99 -218T74 -194T65 -155Q65 -135 73 -113L128
-121Q126 -131 125 -139T124 -155Q124 -181 140 -190T179 -200Q209 -200 221 -182T233 -138Q233 -101 214 -65T163 5L199 23Z" />
<glyph unicode="&#xe8;" glyph-name="egrave" horiz-adv-x="472" d="M407 386Q407 356 397 328T365 276T310 239T232 225Q214 225 194 227T153 235Q158 192 166 154T186 88T210 44T237 27Q255 27 270 61T298 155L369 142Q346 70 310 28T237 -15Q201 -15 170 17T115
102T78 221T65 356Q65 413 78 447T115 500T170 525T237 531Q272 531 303 524T357 500T393 456T407 386ZM146 356Q146 315 149 278Q166 275 181 274T210 273Q245 273 268 281T304 305T322 341T327 386Q327 443 301 466T237 490Q218 490 202 486T173 467T153 426T146
356ZM311 574Q300 574 280 580T237 594T195 612T165 627Q147 637 147 651Q147 665 158 681T183 697Q192 697 202 691Q214 684 234 669T275 638T309 606T324 582Q324 577 319 576T311 574Z" />
<glyph unicode="&#xe9;" glyph-name="eacute" horiz-adv-x="472" d="M407 386Q407 356 397 328T365 276T310 239T232 225Q214 225 194 227T153 235Q158 192 166 154T186 88T210 44T237 27Q255 27 270 61T298 155L369 142Q346 70 310 28T237 -15Q201 -15 170 17T115
102T78 221T65 356Q65 413 78 447T115 500T170 525T237 531Q272 531 303 524T357 500T393 456T407 386ZM146 356Q146 315 149 278Q166 275 181 274T210 273Q245 273 268 281T304 305T322 341T327 386Q327 443 301 466T237 490Q218 490 202 486T173 467T153 426T146
356ZM421 574Q418 574 413 575T408 582Q408 590 422 605T457 637T497 669T530 691Q540 697 549 697Q563 697 574 681T585 651Q585 637 567 627Q557 621 537 612T495 595T453 580T421 574Z" />
<glyph unicode="&#xea;" glyph-name="ecircumflex" horiz-adv-x="472" d="M407 386Q407 356 397 328T365 276T310 239T232 225Q214 225 194 227T153 235Q158 192 166 154T186 88T210 44T237 27Q255 27 270 61T298 155L369 142Q346 70 310 28T237 -15Q201 -15 170
17T115 102T78 221T65 356Q65 413 78 447T115 500T170 525T237 531Q272 531 303 524T357 500T393 456T407 386ZM146 356Q146 315 149 278Q166 275 181 274T210 273Q245 273 268 281T304 305T322 341T327 386Q327 443 301 466T237 490Q218 490 202 486T173 467T153
426T146 356ZM340 574Q332 574 319 579T292 593T262 610T236 627Q225 619 210 610T181 593T153 580T132 574Q129 574 124 575T119 582Q119 590 131 607T160 642T194 677T220 701Q229 707 236 707Q241 707 252 701Q261 694 278 678T311 643T340 607T353 582Q353
577 348 576T340 574Z" />
<glyph unicode="&#xeb;" glyph-name="edieresis" horiz-adv-x="472" d="M407 386Q407 356 397 328T365 276T310 239T232 225Q214 225 194 227T153 235Q158 192 166 154T186 88T210 44T237 27Q255 27 270 61T298 155L369 142Q346 70 310 28T237 -15Q201 -15 170
17T115 102T78 221T65 356Q65 413 78 447T115 500T170 525T237 531Q272 531 303 524T357 500T393 456T407 386ZM146 356Q146 315 149 278Q166 275 181 274T210 273Q245 273 268 281T304 305T322 341T327 386Q327 443 301 466T237 490Q218 490 202 486T173 467T153
426T146 356ZM160 588Q151 588 143 595T129 615T120 642T116 672Q116 695 129 701T160 707Q178 707 190 701T203 672Q203 657 200 642T191 615T177 596T160 588ZM312 588Q303 588 295 595T281 615T272 642T268 672Q268 695 281 701T312 707Q330 707 342 701T355
672Q355 657 352 642T343 615T329 596T312 588Z" />
<glyph unicode="&#xec;" glyph-name="igrave" horiz-adv-x="251" d="M88 516H166L155 0H99L88 516ZM458 574Q447 574 427 580T384 594T342 612T312 627Q294 637 294 651Q294 665 305 681T330 697Q339 697 349 691Q361 684 381 669T422 638T456 606T471 582Q471
577 466 576T458 574Z" />
<glyph unicode="&#xed;" glyph-name="iacute" horiz-adv-x="251" d="M88 516H166L155 0H99L88 516ZM311 574Q308 574 303 575T298 582Q298 590 312 605T347 637T387 669T420 691Q430 697 439 697Q453 697 464 681T475 651Q475 637 457 627Q447 621 427 612T385
595T343 580T311 574Z" />
<glyph unicode="&#xee;" glyph-name="icircumflex" horiz-adv-x="251" d="M88 516H166L155 0H99L88 516ZM487 574Q479 574 466 579T439 593T409 610T383 627Q372 619 357 610T328 593T300 580T279 574Q276 574 271 575T266 582Q266 590 278 607T307 642T341 677T367
701Q376 707 383 707Q388 707 399 701Q408 694 425 678T458 643T487 607T500 582Q500 577 495 576T487 574Z" />
<glyph unicode="&#xef;" glyph-name="idieresis" horiz-adv-x="251" d="M88 516H166L155 0H99L88 516ZM307 588Q298 588 290 595T276 615T267 642T263 672Q263 695 276 701T307 707Q325 707 337 701T350 672Q350 657 347 642T338 615T324 596T307 588ZM459 588Q450
588 442 595T428 615T419 642T415 672Q415 695 428 701T459 707Q477 707 489 701T502 672Q502 657 499 642T490 615T476 596T459 588Z" />
<glyph unicode="&#xf0;" glyph-name="eth" horiz-adv-x="444" d="M154 670Q137 685 120 700T84 732L118 765Q141 748 163 730T207 693L315 739V694L240 662Q272 631 300 597T349 524T382 443T394 353Q394 285 381 219T345 101T290 17T222 -15Q186 -15 155 17T100
101T63 219T50 353Q50 410 63 444T100 497T155 522T222 528Q234 528 248 526T275 519L280 524Q263 553 240 581T186 639L79 594V639L154 670ZM222 26Q241 26 258 54T287 128T306 233T313 353Q313 396 306 422T287 463T258 482T222 487Q203 487 187 483T158 464T138
423T131 353Q131 292 138 233T157 128T185 54T222 26Z" />
<glyph unicode="&#xf1;" glyph-name="ntilde" horiz-adv-x="464" d="M259 486Q239 486 221 447T189 340T164 185T151 0H70L80 516H116L135 229Q142 294 153 349T179 443T215 505T261 528Q295 528 323 491T371 389T403 239T415 56Q415 42 415 28T414 0H333Q334
23 334 44T334 88Q334 170 329 242T314 369T290 454T259 486ZM299 583Q283 583 269 592T241 612T217 633T195 642Q190 642 185 641T176 633T170 615T167 583L109 599Q112 631 119 652T136 685T158 702T185 707Q203 707 217 698T242 678T265 657T289 648Q294 648
299 649T308 657T314 675T317 707L375 691Q372 659 365 638T348 605T326 588T299 583Z" />
<glyph unicode="&#xf2;" glyph-name="ograve" horiz-adv-x="444" d="M222 26Q241 26 258 54T287 128T306 233T313 353Q313 396 306 422T287 463T258 482T222 487Q203 487 187 483T158 464T138 423T131 353Q131 292 138 233T157 128T185 54T222 26ZM222 -15Q186
-15 155 17T100 101T63 219T50 353Q50 410 63 444T100 497T155 522T222 528Q257 528 288 522T343 497T380 444T394 353Q394 285 381 219T345 101T290 17T222 -15ZM297 574Q286 574 266 580T223 594T181 612T151 627Q133 637 133 651Q133 665 144 681T169 697Q178
697 188 691Q200 684 220 669T261 638T295 606T310 582Q310 577 305 576T297 574Z" />
<glyph unicode="&#xf3;" glyph-name="oacute" horiz-adv-x="444" d="M222 26Q241 26 258 54T287 128T306 233T313 353Q313 396 306 422T287 463T258 482T222 487Q203 487 187 483T158 464T138 423T131 353Q131 292 138 233T157 128T185 54T222 26ZM222 -15Q186
-15 155 17T100 101T63 219T50 353Q50 410 63 444T100 497T155 522T222 528Q257 528 288 522T343 497T380 444T394 353Q394 285 381 219T345 101T290 17T222 -15ZM407 574Q404 574 399 575T394 582Q394 590 408 605T443 637T483 669T516 691Q526 697 535 697Q549
697 560 681T571 651Q571 637 553 627Q543 621 523 612T481 595T439 580T407 574Z" />
<glyph unicode="&#xf4;" glyph-name="ocircumflex" horiz-adv-x="444" d="M222 26Q241 26 258 54T287 128T306 233T313 353Q313 396 306 422T287 463T258 482T222 487Q203 487 187 483T158 464T138 423T131 353Q131 292 138 233T157 128T185 54T222 26ZM222 -15Q186
-15 155 17T100 101T63 219T50 353Q50 410 63 444T100 497T155 522T222 528Q257 528 288 522T343 497T380 444T394 353Q394 285 381 219T345 101T290 17T222 -15ZM326 574Q318 574 305 579T278 593T248 610T222 627Q211 619 196 610T167 593T139 580T118 574Q115
574 110 575T105 582Q105 590 117 607T146 642T180 677T206 701Q215 707 222 707Q227 707 238 701Q247 694 264 678T297 643T326 607T339 582Q339 577 334 576T326 574Z" />
<glyph unicode="&#xf5;" glyph-name="otilde" horiz-adv-x="444" d="M222 26Q241 26 258 54T287 128T306 233T313 353Q313 396 306 422T287 463T258 482T222 487Q203 487 187 483T158 464T138 423T131 353Q131 292 138 233T157 128T185 54T222 26ZM222 -15Q186
-15 155 17T100 101T63 219T50 353Q50 410 63 444T100 497T155 522T222 528Q257 528 288 522T343 497T380 444T394 353Q394 285 381 219T345 101T290 17T222 -15ZM279 583Q263 583 249 592T221 612T197 633T175 642Q170 642 165 641T156 633T150 615T147 583L89
599Q92 631 99 652T116 685T138 702T165 707Q183 707 197 698T222 678T245 657T269 648Q274 648 279 649T288 657T294 675T297 707L355 691Q352 659 345 638T328 605T306 588T279 583Z" />
<glyph unicode="&#xf6;" glyph-name="odieresis" horiz-adv-x="444" d="M222 26Q241 26 258 54T287 128T306 233T313 353Q313 396 306 422T287 463T258 482T222 487Q203 487 187 483T158 464T138 423T131 353Q131 292 138 233T157 128T185 54T222 26ZM222 -15Q186
-15 155 17T100 101T63 219T50 353Q50 410 63 444T100 497T155 522T222 528Q257 528 288 522T343 497T380 444T394 353Q394 285 381 219T345 101T290 17T222 -15ZM146 588Q137 588 129 595T115 615T106 642T102 672Q102 695 115 701T146 707Q164 707 176 701T189
672Q189 657 186 642T177 615T163 596T146 588ZM298 588Q289 588 281 595T267 615T258 642T254 672Q254 695 267 701T298 707Q316 707 328 701T341 672Q341 657 338 642T329 615T315 596T298 588Z" />
<glyph unicode="&#xf7;" glyph-name="divide" horiz-adv-x="520" d="M209 479Q209 501 224 516T261 531Q283 531 298 516T313 479Q313 457 298 442T261 427Q239 427 224 442T209 479ZM209 165Q209 187 224 202T261 217Q283 217 298 202T313 165Q313 143 298 128T261
113Q239 113 224 128T209 165ZM70 297V347H450V297H70Z" />
<glyph unicode="&#xf8;" glyph-name="oslash" horiz-adv-x="444" d="M222 26Q241 26 258 54T287 128T306 233T313 353Q313 396 306 422T287 463T258 482T222 487Q203 487 187 483T158 464T138 423T131 353Q131 292 138 233T157 128T185 54T222 26ZM222 -15Q186
-15 155 17T100 101T63 219T50 353Q50 410 63 444T100 497T155 522T222 528Q257 528 288 522T343 497T380 444T394 353Q394 285 381 219T345 101T290 17T222 -15ZM344 921L391 904L100 105L53 122L344 921Z" />
<glyph unicode="&#xf9;" glyph-name="ugrave" horiz-adv-x="492" d="M246 -15Q196 -15 163 2T109 49T79 117T70 199Q70 242 75 286T89 371T106 450T124 516H205Q176 433 156 346T136 161Q136 123 144 98T168 56T203 33T246 26Q269 26 289 33T324 56T347 97T356
161Q356 258 336 345T287 516H368Q376 487 385 450T403 372T416 286T422 199Q422 156 413 117T384 49T330 3T246 -15ZM312 574Q301 574 281 580T238 594T196 612T166 627Q148 637 148 651Q148 665 159 681T184 697Q193 697 203 691Q215 684 235 669T276 638T310
606T325 582Q325 577 320 576T312 574Z" />
<glyph unicode="&#xfa;" glyph-name="uacute" horiz-adv-x="492" d="M246 -15Q196 -15 163 2T109 49T79 117T70 199Q70 242 75 286T89 371T106 450T124 516H205Q176 433 156 346T136 161Q136 123 144 98T168 56T203 33T246 26Q269 26 289 33T324 56T347 97T356
161Q356 258 336 345T287 516H368Q376 487 385 450T403 372T416 286T422 199Q422 156 413 117T384 49T330 3T246 -15ZM191 574Q188 574 183 575T178 582Q178 590 192 605T227 637T267 669T300 691Q310 697 319 697Q333 697 344 681T355 651Q355 637 337 627Q327
621 307 612T265 595T223 580T191 574Z" />
<glyph unicode="&#xfb;" glyph-name="ucircumflex" horiz-adv-x="492" d="M246 -15Q196 -15 163 2T109 49T79 117T70 199Q70 242 75 286T89 371T106 450T124 516H205Q176 433 156 346T136 161Q136 123 144 98T168 56T203 33T246 26Q269 26 289 33T324 56T347 97T356
161Q356 258 336 345T287 516H368Q376 487 385 450T403 372T416 286T422 199Q422 156 413 117T384 49T330 3T246 -15ZM350 574Q342 574 329 579T302 593T272 610T246 627Q235 619 220 610T191 593T163 580T142 574Q139 574 134 575T129 582Q129 590 141 607T170
642T204 677T230 701Q239 707 246 707Q251 707 262 701Q271 694 288 678T321 643T350 607T363 582Q363 577 358 576T350 574Z" />
<glyph unicode="&#xfc;" glyph-name="udieresis" horiz-adv-x="492" d="M246 -15Q196 -15 163 2T109 49T79 117T70 199Q70 242 75 286T89 371T106 450T124 516H205Q176 433 156 346T136 161Q136 123 144 98T168 56T203 33T246 26Q269 26 289 33T324 56T347 97T356
161Q356 258 336 345T287 516H368Q376 487 385 450T403 372T416 286T422 199Q422 156 413 117T384 49T330 3T246 -15ZM171 588Q162 588 154 595T140 615T131 642T127 672Q127 695 140 701T171 707Q189 707 201 701T214 672Q214 657 211 642T202 615T188 596T171
588ZM323 588Q314 588 306 595T292 615T283 642T279 672Q279 695 292 701T323 707Q341 707 353 701T366 672Q366 657 363 642T354 615T340 596T323 588Z" />
<glyph unicode="&#xfd;" glyph-name="yacute" horiz-adv-x="444" d="M169 -204Q202 -146 229 -87T278 32Q254 0 222 0Q186 0 155 41T100 152T63 316T50 516H131Q131 419 138 333T157 183T185 80T222 42Q248 42 266 70T295 147T310 263T315 408Q315 434 315 461T313
516H394Q394 404 381 301T346 104T295 -75T235 -234L169 -204ZM177 574Q174 574 169 575T164 582Q164 590 178 605T213 637T253 669T286 691Q296 697 305 697Q319 697 330 681T341 651Q341 637 323 627Q313 621 293 612T251 595T209 580T177 574Z" />
<glyph unicode="&#xfe;" glyph-name="thorn" horiz-adv-x="464" d="M70 750H141L138 482Q171 528 242 528Q277 528 308 522T363 497T400 444T414 353Q414 285 401 219T365 101T310 17T242 -15Q204 -15 178 19T134 111L131 -220H80L70 750ZM242 26Q261 26 278 54T307
128T326 233T333 353Q333 396 326 422T307 463T278 482T242 487Q223 487 206 483T176 464T154 423T146 353Q146 292 153 233T174 128T205 54T242 26Z" />
<glyph unicode="&#xff;" glyph-name="ydieresis" horiz-adv-x="444" d="M169 -204Q202 -146 229 -87T278 32Q254 0 222 0Q186 0 155 41T100 152T63 316T50 516H131Q131 419 138 333T157 183T185 80T222 42Q248 42 266 70T295 147T310 263T315 408Q315 434 315
461T313 516H394Q394 404 381 301T346 104T295 -75T235 -234L169 -204ZM146 588Q137 588 129 595T115 615T106 642T102 672Q102 695 115 701T146 707Q164 707 176 701T189 672Q189 657 186 642T177 615T163 596T146 588ZM298 588Q289 588 281 595T267 615T258 642T254
672Q254 695 267 701T298 707Q316 707 328 701T341 672Q341 657 338 642T329 615T315 596T298 588Z" />
<glyph unicode="&#x2013;" glyph-name="endash" horiz-adv-x="544" d="M0 340H544V290H0V340Z" />
<glyph unicode="&#x2014;" glyph-name="emdash" horiz-adv-x="817" d="M0 340H817V290H0V340Z" />
<glyph unicode="&#x2018;" glyph-name="quoteleft" horiz-adv-x="223" d="M173 701Q153 684 138 658T123 606Q137 596 146 576T155 526Q155 498 140 491T102 484Q80 484 65 491T50 526Q50 567 60 600T85 658T117 700T150 728L173 701V701Z" />
<glyph unicode="&#x2019;" glyph-name="quoteright" horiz-adv-x="223" d="M50 511Q70 528 85 554T100 606Q86 616 77 636T68 686Q68 714 83 721T121 728Q143 728 158 721T173 686Q173 645 163 612T138 554T106 512T73 484L50 511V511Z" />
<glyph unicode="&#x201a;" glyph-name="quotesinglbase" horiz-adv-x="205" d="M32 -89Q52 -72 67 -46T82 6Q68 16 59 36T50 86Q50 114 65 121T103 128Q125 128 140 121T155 86Q155 45 145 12T120 -46T88 -88T55 -116L32 -89V-89Z" />
<glyph unicode="&#x201c;" glyph-name="quotedblleft" horiz-adv-x="383" d="M333 701Q313 684 298 658T283 606Q297 596 306 576T315 526Q315 498 300 491T262 484Q240 484 225 491T210 526Q210 567 220 600T245 658T277 700T310 728L333 701ZM173 701Q153 684
138 658T123 606Q137 596 146 576T155 526Q155 498 140 491T102 484Q80 484 65 491T50 526Q50 567 60 600T85 658T117 700T150 728L173 701Z" />
<glyph unicode="&#x201d;" glyph-name="quotedblright" horiz-adv-x="383" d="M50 511Q70 528 85 554T100 606Q86 616 77 636T68 686Q68 714 83 721T121 728Q143 728 158 721T173 686Q173 645 163 612T138 554T106 512T73 484L50 511ZM210 511Q230 528 245 554T260
606Q246 616 237 636T228 686Q228 714 243 721T281 728Q303 728 318 721T333 686Q333 645 323 612T298 554T266 512T233 484L210 511Z" />
<glyph unicode="&#x201e;" glyph-name="quotedblbase" horiz-adv-x="383" d="M50 -88Q70 -71 85 -45T100 7Q86 17 77 37T68 87Q68 115 83 122T121 129Q143 129 158 122T173 87Q173 46 163 13T138 -45T106 -87T73 -115L50 -88ZM210 -88Q230 -71 245 -45T260 7Q246
17 237 37T228 87Q228 115 243 122T281 129Q303 129 318 122T333 87Q333 46 323 13T298 -45T266 -87T233 -115L210 -88Z" />
<glyph unicode="&#x2022;" glyph-name="bullet" horiz-adv-x="245" d="M123 215Q107 215 94 225T71 253T56 291T50 336Q50 357 56 369T72 387T95 396T123 398Q138 398 151 396T174 388T189 369T195 336Q195 313 190 292T175 253T152 226T123 215Z" />
<glyph unicode="&#x2039;" glyph-name="guilsinglleft" horiz-adv-x="320" d="M158 309Q158 289 177 245T240 147L230 120Q191 137 163 162T117 214T89 266T80 309Q80 326 89 351T116 403T163 455T230 498L240 471Q196 417 177 373T158 309Z" />
<glyph unicode="&#x203a;" glyph-name="guilsinglright" horiz-adv-x="320" d="M162 309Q162 328 143 372T80 471L90 498Q129 481 157 456T203 404T231 352T240 309Q240 292 231 267T204 215T157 163T90 120L80 147Q124 201 143 245T162 309Z" />
</font>
</defs>
</svg>
