<?xml version="1.0" standalone="no"?>
<!DOCTYPE svg PUBLIC "-//W3C//DTD SVG 1.1//EN" "http://www.w3.org/Graphics/SVG/1.1/DTD/svg11.dtd">
<svg xmlns="http://www.w3.org/2000/svg">
<defs >
<font id="EncodeSansSemiCondensed" horiz-adv-x="1106" ><font-face
    font-family="Encode Sans Semi Condensed SmBd"
    units-per-em="2000"
    panose-1="0 0 7 6 0 0 0 0 0 0"
    ascent="2060"
    descent="-440"
    alphabetic="0" />
<glyph unicode=" " glyph-name="space" horiz-adv-x="463" />
<glyph unicode="!" glyph-name="exclam" horiz-adv-x="531" d="M189 434L131 948V1480H400V948L345 434H189ZM190 -15T144 28T97 142Q97 214 143 257T266 300Q342 300 388 257T434 142Q434 72 388 29T266 -15Q190 -15 144 28Z" />
<glyph unicode="&quot;" glyph-name="quotedbl" horiz-adv-x="808" d="M137 874L86 1616H342L291 874H137ZM517 874L466 1616H722L671 874H517Z" />
<glyph unicode="#" glyph-name="numbersign" horiz-adv-x="1165" d="M1070 862H883L860 618H1070V424H842L802 0H606L646 424H460L420 0H224L264 424H95V618H282L305 862H95V1056H323L363 1480H559L519 1056H705L745 1480H941L901 1056H1070V862ZM664 618L687
862H501L478 618H664Z" />
<glyph unicode="$" glyph-name="dollar" horiz-adv-x="1044" d="M992 258T902 150T641 2V-240H405V-18Q324 -16 240 -2T83 38V252Q170 225 264 210T440 195Q592 195 663 247T735 402Q735 459 713 498T642 566T503 621L408 649Q233 700 142 802T51 1065Q51 1227
140 1333T405 1478V1720H641V1499Q715 1498 789 1488T922 1461V1246Q856 1265 781 1275T633 1285Q462 1285 386 1233T309 1081Q309 1026 328 989T393 925T520 873L614 845Q805 790 898 689T992 422Q992 258 902 150Z" />
<glyph unicode="%" glyph-name="percent" horiz-adv-x="1901" d="M274 571T178 686T81 1036Q81 1271 177 1385T443 1499Q613 1499 709 1385T806 1036Q806 801 709 686T443 571Q274 571 178 686ZM537 0L1157 1480H1364L744 0H537ZM519 737T560 805T602 1035Q602
1198 561 1266T443 1334Q367 1334 326 1266T285 1036Q285 874 326 806T443 737Q519 737 560 805ZM1288 -18T1192 96T1095 446Q1095 681 1191 795T1457 910Q1626 910 1723 796T1820 446Q1820 211 1723 97T1457 -18Q1288 -18 1192 96ZM1533 147T1574 215T1616 445Q1616
608 1575 676T1457 744Q1382 744 1341 677T1299 447Q1299 285 1340 216T1457 147Q1533 147 1574 215Z" />
<glyph unicode="&amp;" glyph-name="ampersand" horiz-adv-x="1477" d="M1348 -20L1110 158Q1032 71 915 27T645 -18Q472 -18 351 34T168 181T106 405Q106 532 167 630T334 782Q284 848 263 914T241 1056Q241 1269 381 1384T800 1499Q924 1499 1038 1475V1260Q929
1285 818 1285Q650 1285 574 1227T498 1055Q498 1003 514 961T568 874T675 774L1037 502Q1041 535 1041 581Q1041 642 1032 709T1006 840H1215Q1248 713 1248 583Q1248 465 1220 364L1477 171L1348 -20ZM859 172T951 278L545 583Q494 622 456 654Q362 569 362 434Q362
311 442 242T672 172Q859 172 951 278Z" />
<glyph unicode="&apos;" glyph-name="quotesingle" horiz-adv-x="428" d="M137 874L86 1616H342L291 874H137Z" />
<glyph unicode="(" glyph-name="parenleft" horiz-adv-x="656" d="M103 -29T103 588Q103 1205 414 1616H673Q515 1392 440 1137T364 588Q364 295 439 40T673 -440H414Q103 -29 103 588Z" />
<glyph unicode=")" glyph-name="parenright" horiz-adv-x="656" d="M141 -216T216 39T292 588Q292 881 217 1136T-17 1616H242Q553 1205 553 588Q553 -29 242 -440H-17Q141 -216 216 39Z" />
<glyph unicode="*" glyph-name="asterisk" horiz-adv-x="952" d="M569 1156L709 1016L803 888L660 784L567 912L476 1094L385 912L292 784L149 888L242 1016L383 1156L188 1187L30 1238L85 1405L242 1354L420 1262L388 1460V1616H564V1460L532 1262L710 1354L867
1405L922 1238L764 1187L569 1156Z" />
<glyph unicode="+" glyph-name="plus" horiz-adv-x="1058" d="M426 339V661H118V859H426V1181H633V859H940V661H633V339H426Z" />
<glyph unicode="," glyph-name="comma" horiz-adv-x="491" d="M325 310T369 257T413 98Q413 -14 377 -127T281 -333H135Q175 -238 196 -163T224 -14Q158 -7 118 36T77 148Q77 224 122 267T241 310Q325 310 369 257Z" />
<glyph unicode="-" glyph-name="hyphen" horiz-adv-x="802" d="M118 462V669H684V462H118Z" />
<glyph unicode="." glyph-name="period" horiz-adv-x="491" d="M170 -15T124 29T77 147Q77 222 123 266T246 310Q322 310 368 266T414 147Q414 74 368 30T246 -15Q170 -15 124 29Z" />
<glyph unicode="/" glyph-name="slash" horiz-adv-x="662" d="M0 -240L416 1616H662L246 -240H0Z" />
<glyph unicode="0" glyph-name="zero" horiz-adv-x="1222" d="M359 -19T226 163T93 740Q93 1135 225 1317T611 1499Q863 1499 996 1317T1129 740Q1129 346 996 164T611 -19Q359 -19 226 163ZM698 195T756 245T844 415T875 738Q875 943 845 1063T756 1234T611 1285Q523
1285 465 1235T377 1065T346 742Q346 537 376 417T465 246T611 195Q698 195 756 245Z" />
<glyph unicode="1" glyph-name="one" horiz-adv-x="720" d="M416 1485H576V0H320V1177L19 969V1211L416 1485Z" />
<glyph unicode="2" glyph-name="two" horiz-adv-x="972" d="M920 220V0H47V141L427 671Q519 798 558 889T597 1064Q597 1179 532 1232T326 1285Q165 1285 29 1231V1445Q90 1469 180 1484T356 1499Q598 1499 724 1400T851 1090Q851 974 807 858T652 593L380 220H920Z" />
<glyph unicode="3" glyph-name="three" horiz-adv-x="993" d="M780 735T857 642T934 404Q934 270 871 175T685 31T385 -19Q201 -19 40 31V232Q118 208 208 195T377 181Q690 181 690 418Q690 535 613 595T369 656H194V860H320Q482 860 562 920T642 1091Q642 1195
575 1247T370 1299Q291 1299 213 1285T64 1245V1446Q128 1470 219 1484T398 1499Q638 1499 763 1400T888 1114Q888 986 821 896T633 767Q780 735 857 642Z" />
<glyph unicode="4" glyph-name="four" horiz-adv-x="1167" d="M1133 527V327H946V0H715V327H39V469L545 1480H792L321 527H715L744 980H946V527H1133Z" />
<glyph unicode="5" glyph-name="five" horiz-adv-x="1004" d="M584 866T711 814T898 668T959 432Q959 210 819 96T413 -19Q231 -19 67 34V234Q145 209 235 196T406 182Q562 182 638 242T714 424Q714 507 675 559T540 642T275 682L113 692L161 1480H901V1273H390L364
880L382 879Q584 866 711 814Z" />
<glyph unicode="6" glyph-name="six" horiz-adv-x="1141" d="M778 875T877 828T1034 682T1092 437Q1092 293 1034 190T870 34T626 -19Q380 -19 242 151T103 695Q103 1105 271 1302T756 1499Q918 1499 1022 1458V1253Q909 1294 764 1294Q561 1294 460 1173T354
782Q411 826 489 850T652 875Q778 875 877 828ZM731 175T794 238T858 428Q858 557 790 619T604 682Q536 682 471 661T355 595Q360 436 395 344T488 213T628 175Q731 175 794 238Z" />
<glyph unicode="7" glyph-name="seven" horiz-adv-x="929" d="M10 1480H872V1339L402 0H138L596 1260H10V1480Z" />
<glyph unicode="8" glyph-name="eight" horiz-adv-x="1222" d="M1019 702T1080 613T1141 392Q1141 270 1080 178T900 33T617 -19Q441 -19 321 29T140 165T79 372Q79 494 146 589T340 740Q223 805 171 893T119 1100Q119 1221 178 1311T349 1450T620 1499Q768 1499
876 1454T1042 1324T1100 1124Q1100 1011 1045 921T874 769Q1019 702 1080 613ZM495 1314T429 1259T363 1109Q363 1042 390 997T488 913T690 836L696 834Q792 886 835 950T878 1103Q878 1205 811 1259T620 1314Q495 1314 429 1259ZM756 166T828 221T900 379Q900
448 871 494T772 576T574 648Q543 656 510 668Q418 626 369 554T320 395Q320 284 395 225T617 166Q756 166 828 221Z" />
<glyph unicode="9" glyph-name="nine" horiz-adv-x="1141" d="M761 1499T899 1329T1038 785Q1038 375 870 178T385 -19Q223 -19 119 22V227Q232 186 377 186Q580 186 681 307T787 698Q730 654 652 630T489 605Q363 605 264 652T107 798T49 1043Q49 1187 107 1290T271
1446T515 1499Q761 1499 899 1329ZM283 923T351 861T537 798Q605 798 670 819T786 885Q781 1044 746 1136T653 1267T513 1305Q410 1305 347 1242T283 1052Q283 923 351 861Z" />
<glyph unicode=":" glyph-name="colon" horiz-adv-x="491" d="M170 -15T124 29T77 147Q77 222 123 266T246 310Q322 310 368 266T414 147Q414 74 368 30T246 -15Q170 -15 124 29ZM170 781T124 825T77 943Q77 1018 123 1062T246 1106Q322 1106 368 1062T414 943Q414
870 368 826T246 781Q170 781 124 825Z" />
<glyph unicode=";" glyph-name="semicolon" horiz-adv-x="491" d="M325 310T369 257T413 98Q413 -14 377 -127T281 -333H135Q175 -238 196 -163T224 -14Q158 -7 118 36T77 148Q77 224 122 267T241 310Q325 310 369 257ZM170 781T124 825T77 943Q77 1018 123 1062T246
1106Q322 1106 368 1062T414 943Q414 870 368 826T246 781Q170 781 124 825Z" />
<glyph unicode="&lt;" glyph-name="less" horiz-adv-x="1058" d="M940 1211V1009L304 761L940 511V309L118 639V881L940 1211Z" />
<glyph unicode="=" glyph-name="equal" horiz-adv-x="1058" d="M118 872V1070H940V872H118ZM118 450V648H940V450H118Z" />
<glyph unicode="&gt;" glyph-name="greater" horiz-adv-x="1058" d="M118 1211L940 881V639L118 309V511L754 761L118 1009V1211Z" />
<glyph unicode="?" glyph-name="question" horiz-adv-x="901" d="M275 808Q401 842 473 882T576 972T606 1090Q606 1194 539 1245T333 1296Q254 1296 176 1283T29 1243V1446Q93 1470 184 1484T363 1499Q603 1499 728 1399T853 1113Q853 958 765 855T495 686L475
427H318L275 808ZM321 -15T275 28T228 142Q228 214 274 257T397 300Q473 300 519 257T565 142Q565 72 519 29T397 -15Q321 -15 275 28Z" />
<glyph unicode="@" glyph-name="at" horiz-adv-x="1909" d="M1383 1498T1605 1270T1827 575Q1826 267 1718 124T1426 -19Q1327 -19 1259 18T1155 128H1141Q1103 53 1030 17T864 -19Q766 -19 693 18T581 124T541 289Q541 442 639 525T949 626L1133 644V692Q1133
770 1109 814T1034 878T899 897Q836 897 764 885T625 847L626 1047Q695 1071 780 1084T942 1097Q1094 1097 1189 1057T1331 926T1378 682V287Q1378 219 1402 188T1476 156Q1552 156 1596 248T1641 562Q1641 837 1567 1004T1343 1248T962 1325Q730 1325 582 1247T358
992T283 522Q283 225 360 48T593 -208T999 -287Q1201 -287 1403 -232V-405Q1207 -460 999 -460Q548 -460 316 -223T83 520Q83 1021 309 1259T962 1498Q1383 1498 1605 1270ZM996 169T1046 191T1133 260V495L973 480Q880 471 835 431T790 318Q790 244 830 207T945
169Q996 169 1046 191Z" />
<glyph unicode="A" glyph-name="A" horiz-adv-x="1320" d="M1052 0L924 426H392L264 0H13L473 1480H847L1307 0H1052ZM456 639H860L658 1312L456 639Z" />
<glyph unicode="B" glyph-name="B" horiz-adv-x="1240" d="M1039 735T1112 644T1186 408Q1186 267 1117 174T899 33T511 -15Q422 -15 322 -8T134 11V1453Q229 1474 338 1485T557 1497Q861 1497 1002 1399T1144 1094Q1144 974 1083 886T903 764Q1039 735 1112 644ZM481
1301T384 1284V859H599Q710 859 776 883T872 955T902 1080Q902 1159 871 1207T772 1278T590 1301Q481 1301 384 1284ZM713 181T793 206T909 283T945 419Q945 541 870 598T630 656H384V191Q469 181 576 181Q713 181 793 206Z" />
<glyph unicode="C" glyph-name="C" horiz-adv-x="1115" d="M433 -19T258 160T83 737Q83 1125 263 1312T784 1499Q940 1499 1079 1463V1246Q947 1282 802 1282Q649 1282 550 1229T401 1057T351 741Q351 538 401 419T548 249T795 198Q923 198 1079 247V31Q1014 7
933 -6T767 -19Q433 -19 258 160Z" />
<glyph unicode="D" glyph-name="D" horiz-adv-x="1358" d="M320 -15T134 6V1454Q337 1497 537 1497Q907 1497 1091 1312T1275 740Q1275 477 1188 311T928 65T489 -15Q320 -15 134 6ZM708 199T808 252T960 425T1011 741Q1011 935 961 1054T811 1229T558 1284Q478
1284 390 1269V207Q466 199 552 199Q708 199 808 252Z" />
<glyph unicode="E" glyph-name="E" horiz-adv-x="1134" d="M387 215H1074V0H134V1480H1064V1265H387V865H965V650H387V215Z" />
<glyph unicode="F" glyph-name="F" horiz-adv-x="1089" d="M1060 1262H390V840H962V622H390V0H134V1480H1060V1262Z" />
<glyph unicode="G" glyph-name="G" horiz-adv-x="1300" d="M1180 720V14Q1010 -15 851 -15Q465 -15 274 166T83 738Q82 1127 274 1313T832 1499Q996 1499 1146 1460V1244Q995 1282 854 1282Q682 1282 572 1229T406 1056T350 735Q350 543 403 425T562 254T829 200Q881
200 941 205V720H1180Z" />
<glyph unicode="H" glyph-name="H" horiz-adv-x="1398" d="M134 0V1480H390V873H1008V1480H1264V0H1008V642H390V0H134Z" />
<glyph unicode="I" glyph-name="I" horiz-adv-x="524" d="M134 0V1480H390V0H134Z" />
<glyph unicode="J" glyph-name="J" horiz-adv-x="524" d="M-24 -235Q64 -111 99 8T135 296V1480H390V291Q387 105 331 -43T143 -346L-24 -235Z" />
<glyph unicode="K" glyph-name="K" horiz-adv-x="1223" d="M990 0L547 642H390V0H134V1480H390V873H550L958 1480H1229L747 764L1269 0H990Z" />
<glyph unicode="L" glyph-name="L" horiz-adv-x="1045" d="M134 0V1480H390V222H1038V0H134Z" />
<glyph unicode="M" glyph-name="M" horiz-adv-x="1736" d="M1286 1480H1597V0H1358V1120L974 211H762L377 1100V0H138V1480H449L872 482L1286 1480Z" />
<glyph unicode="N" glyph-name="N" horiz-adv-x="1418" d="M1043 1480H1284V0H1025L375 1073V0H134V1480H393L1043 407V1480Z" />
<glyph unicode="O" glyph-name="O" horiz-adv-x="1404" d="M411 -19T247 167T83 740Q83 1126 247 1312T702 1499Q993 1499 1157 1313T1321 740Q1321 354 1157 168T702 -19Q411 -19 247 167ZM876 194T967 319T1058 734Q1058 1030 967 1158T702 1286Q529 1286 438
1160T347 746Q347 449 437 322T702 194Q876 194 967 319Z" />
<glyph unicode="P" glyph-name="P" horiz-adv-x="1215" d="M134 1456Q337 1497 532 1497Q838 1497 990 1370T1143 973Q1143 715 991 582T537 449Q492 449 390 455V0H134V1456ZM723 653T807 728T892 969Q892 1139 810 1216T554 1294Q464 1294 390 1281V662Q453
653 541 653Q723 653 807 728Z" />
<glyph unicode="Q" glyph-name="Q" horiz-adv-x="1404" d="M1321 426T1204 241T861 15Q1059 -45 1299 -72L1254 -280Q808 -212 553 -85T191 240T83 738Q83 1126 247 1312T702 1499Q993 1499 1157 1313T1321 740Q1321 426 1204 241ZM347 544T389 422T509 247T702
194Q876 194 967 319T1058 734Q1058 1030 967 1158T702 1286Q529 1286 438 1160T347 746Q347 544 389 422Z" />
<glyph unicode="R" glyph-name="R" horiz-adv-x="1278" d="M976 0L588 569Q574 568 544 568Q510 568 474 569T422 571Q398 573 386 573V0H134V1454Q342 1497 545 1497Q844 1497 991 1383T1139 1035Q1140 874 1061 766T832 609L1254 0H976ZM386 775Q467 768 544
768Q726 768 811 831T896 1034Q896 1172 818 1235T572 1299Q481 1299 386 1284V775Z" />
<glyph unicode="S" glyph-name="S" horiz-adv-x="1044" d="M357 -19T261 -4T83 40V255Q170 226 265 211T447 195Q735 195 735 402Q735 459 713 498T642 566T503 621L408 649Q233 700 142 802T51 1065Q51 1201 113 1298T300 1447T606 1499Q693 1499 775 1489T922
1458V1243Q787 1285 624 1285Q459 1285 384 1232T309 1081Q309 1026 328 989T393 925T520 873L614 845Q805 790 898 689T992 422Q992 285 928 186T742 34T449 -19Q357 -19 261 -4Z" />
<glyph unicode="T" glyph-name="T" horiz-adv-x="1169" d="M456 0V1258H10V1480H1160V1258H713V0H456Z" />
<glyph unicode="U" glyph-name="U" horiz-adv-x="1370" d="M495 -19T371 44T187 238T127 574V1480H383V546Q383 363 457 280T688 196Q845 196 919 279T993 546V1480H1243V574Q1243 369 1184 238T1003 44T688 -19Q495 -19 371 44Z" />
<glyph unicode="V" glyph-name="V" horiz-adv-x="1292" d="M1044 1480H1293L837 0H455L-1 1480H266L653 194L1044 1480Z" />
<glyph unicode="W" glyph-name="W" horiz-adv-x="2065" d="M1789 1480H2031L1663 0H1330L1038 1180L734 0H402L33 1480H293L586 247L897 1480H1183L1486 235L1789 1480Z" />
<glyph unicode="X" glyph-name="X" horiz-adv-x="1268" d="M783 765L1279 0H996L632 565L267 0H-15L483 763L14 1480H299L634 964L968 1480H1247L783 765Z" />
<glyph unicode="Y" glyph-name="Y" horiz-adv-x="1169" d="M1208 1480L714 640V0H457V638L-47 1480H226L591 865L955 1480H1208Z" />
<glyph unicode="Z" glyph-name="Z" horiz-adv-x="1123" d="M382 221H1072V0H51V143L730 1259H62V1480H1062V1337L382 221Z" />
<glyph unicode="[" glyph-name="bracketleft" horiz-adv-x="656" d="M154 -440V1616H690V1415H406V-239H687V-440H154Z" />
<glyph unicode="\" glyph-name="backslash" horiz-adv-x="663" d="M417 -240L0 1616H247L663 -240H417Z" />
<glyph unicode="]" glyph-name="bracketright" horiz-adv-x="656" d="M-31 -440V-239H250V1415H-34V1616H502V-440H-31Z" />
<glyph unicode="^" glyph-name="asciicircum" horiz-adv-x="1165" d="M1086 740H843L582 1256L321 740H79L465 1480H699L1086 740Z" />
<glyph unicode="_" glyph-name="underscore" horiz-adv-x="1095" d="M87 -201V0H1008V-201H87Z" />
<glyph unicode="`" glyph-name="grave" horiz-adv-x="1069" d="M422 1240L183 1616H445L647 1240H422Z" />
<glyph unicode="a" glyph-name="a" horiz-adv-x="1011" d="M613 1108T709 1068T853 935T900 684V0H693L675 115H662Q617 48 546 15T386 -19Q288 -19 216 18T104 125T64 289Q64 442 162 526T473 627L655 644V697Q655 778 631 823T554 888T415 908Q353 908 281 897T140
865V1064Q208 1085 294 1096T459 1108Q613 1108 709 1068ZM519 167T568 188T655 257V492L498 478Q402 469 357 429T312 315Q312 242 352 205T467 167Q519 167 568 188Z" />
<glyph unicode="b" glyph-name="b" d="M386 -19T292 -5T119 35V1616H371V982H384Q426 1041 493 1074T646 1108Q756 1108 844 1052T984 874T1036 565Q1036 273 898 127T479 -19Q386 -19 292 -5ZM639 176T709 261T779 543Q779 679 751 756T673 865T550 896Q498 896
450 875T371 814V193Q427 176 496 176Q639 176 709 261Z" />
<glyph unicode="c" glyph-name="c" horiz-adv-x="855" d="M323 -20T197 117T70 544Q70 835 207 971T606 1108Q723 1108 819 1085V879Q730 898 645 898Q535 898 467 864T365 754T332 548Q332 416 363 337T456 224T614 189Q699 189 819 226V20Q700 -20 567 -20Q323
-20 197 117Z" />
<glyph unicode="d" glyph-name="d" d="M362 -20T271 36T125 213T70 523Q70 814 208 961T624 1108Q667 1108 735 1100V1616H987V0H773L757 115H744Q702 52 634 16T478 -20Q362 -20 271 36ZM605 192T654 215T735 281V900Q677 912 613 912Q468 912 397 827T326 545Q326
410 354 332T431 223T552 192Q605 192 654 215Z" />
<glyph unicode="e" glyph-name="e" horiz-adv-x="1005" d="M947 468H325Q329 360 361 298T459 208T636 180Q752 180 893 218V19Q747 -20 604 -20Q420 -20 303 38T128 221T70 548Q70 824 188 966T523 1108Q731 1108 839 966T947 540V468ZM458 939T416 910T350 812T324
624H710Q708 743 686 812T624 910T521 939Q458 939 416 910Z" />
<glyph unicode="f" glyph-name="f" horiz-adv-x="716" d="M545 1431T494 1383T442 1230V1091H727V890H442V0H192V890H15V1091H192V1217Q192 1420 301 1528T623 1636Q699 1636 768 1624V1422Q710 1431 658 1431Q545 1431 494 1383Z" />
<glyph unicode="g" glyph-name="g" d="M381 -460T297 -450T142 -418V-215Q294 -260 439 -260Q541 -260 606 -232T703 -142T735 25V114H722Q679 55 612 22T460 -12Q352 -12 264 43T123 219T70 524Q70 1107 631 1108Q721 1108 816 1094T987 1053V68Q987 -119 929
-235T754 -406T459 -460Q381 -460 297 -450ZM607 198T655 219T735 280V898Q676 912 609 912Q468 912 397 827T326 547Q326 413 354 336T432 229T556 198Q607 198 655 219Z" />
<glyph unicode="h" glyph-name="h" horiz-adv-x="1107" d="M119 1616H371V975H384Q493 1108 676 1108Q821 1108 908 1014T996 716V0H744V698Q744 799 703 842T583 885Q525 885 467 859T371 780V0H119V1616Z" />
<glyph unicode="i" glyph-name="i" horiz-adv-x="491" d="M119 0V1091H372V0H119ZM166 1277T125 1314T84 1420Q84 1488 125 1525T246 1563Q326 1563 366 1526T407 1420Q407 1351 367 1314T246 1277Q166 1277 125 1314Z" />
<glyph unicode="j" glyph-name="j" horiz-adv-x="491" d="M-40 -358Q48 -233 83 -114T119 174V1091H372V186Q372 -8 316 -160T127 -469L-40 -358ZM165 1279T124 1316T83 1422Q83 1490 124 1527T245 1565Q325 1565 365 1528T406 1422Q406 1353 366 1316T245 1279Q165
1279 124 1316Z" />
<glyph unicode="k" glyph-name="k" horiz-adv-x="1050" d="M807 0L497 459H371V0H119V1616H371V661H496L779 1091H1048L705 564L1082 0H807Z" />
<glyph unicode="l" glyph-name="l" horiz-adv-x="490" d="M119 0V1616H371V0H119Z" />
<glyph unicode="m" glyph-name="m" horiz-adv-x="1655" d="M1369 1108T1456 1015T1544 714V0H1293V701Q1293 886 1142 886Q1093 886 1042 863T955 790Q958 760 958 725V0H711V701Q711 801 673 843T565 886Q512 886 459 859T371 777V0H119V1091H329L347 974H360Q473
1108 652 1108Q738 1108 805 1073T911 962Q973 1036 1053 1072T1219 1108Q1369 1108 1456 1015Z" />
<glyph unicode="n" glyph-name="n" horiz-adv-x="1107" d="M119 1091H329L347 974H360Q417 1039 494 1073T663 1108Q817 1108 906 1015T996 717V0H744V700Q744 800 703 843T583 886Q524 886 466 860T371 780V0H119V1091Z" />
<glyph unicode="o" glyph-name="o" horiz-adv-x="1083" d="M316 -20T193 118T70 542Q70 830 192 969T542 1108Q768 1108 891 968T1014 544Q1014 258 891 119T542 -20Q316 -20 193 118ZM613 173T660 206T732 320T757 541Q757 684 732 766T660 881T542 915Q471 915
424 882T352 767T326 545Q326 403 351 322T423 207T542 173Q613 173 660 206Z" />
<glyph unicode="p" glyph-name="p" d="M119 1091H332L349 973H362Q403 1036 471 1072T628 1108Q743 1108 835 1053T981 876T1036 565Q1036 274 897 128T482 -19Q431 -19 371 -12V-440H119V1091ZM589 177T652 213T747 329T779 543Q779 679 751 757T674 866T554
897Q500 897 452 874T371 807V189Q428 177 492 177Q589 177 652 213Z" />
<glyph unicode="q" glyph-name="q" d="M735 106H722Q679 48 612 15T460 -19Q350 -19 262 37T122 215T70 524Q70 1108 630 1108Q720 1108 815 1094T987 1053V-440H735V106ZM607 193T655 214T735 275V898Q676 912 609 912Q468 912 397 827T326 546Q326 410 354 333T433
224T556 193Q607 193 655 214Z" />
<glyph unicode="r" glyph-name="r" horiz-adv-x="731" d="M119 1091H327L347 944H360Q403 1025 476 1064T641 1104Q683 1104 720 1097V865Q678 872 626 872Q551 872 481 839T371 748V0H119V1091Z" />
<glyph unicode="s" glyph-name="s" horiz-adv-x="872" d="M222 -20T88 25V222Q234 175 385 175Q591 175 591 311Q591 363 564 391T475 434L327 467Q190 498 125 573T60 774Q60 874 111 949T263 1066T512 1108Q649 1108 766 1078V881Q655 912 522 912Q401 912 348
875T294 777Q294 729 320 701T407 658L555 626Q694 594 759 521T824 319Q824 214 773 138T623 21T389 -20Q222 -20 88 25Z" />
<glyph unicode="t" glyph-name="t" horiz-adv-x="754" d="M660 195T731 208V1Q644 -19 554 -19Q373 -19 279 74T184 367V890H7V1091H184L229 1480H436V1091H721V890H436V402Q436 324 455 279T513 215T618 195Q660 195 731 208Z" />
<glyph unicode="u" glyph-name="u" horiz-adv-x="1098" d="M290 -19T201 74T111 372V1091H363V389Q363 289 404 247T519 204Q575 204 632 230T727 309V1091H979V0H769L751 115H738Q679 49 604 15T443 -19Q290 -19 201 74Z" />
<glyph unicode="v" glyph-name="v" horiz-adv-x="1045" d="M792 1091H1042L684 0H361L3 1091H266L529 234L792 1091Z" />
<glyph unicode="w" glyph-name="w" horiz-adv-x="1656" d="M1390 1091H1619L1335 0H1055L830 837L602 0H322L37 1091H275L477 278L694 1091H974L1186 288L1390 1091Z" />
<glyph unicode="x" glyph-name="x" horiz-adv-x="1009" d="M653 553L1017 0H739L503 368L264 0H-5L354 549L1 1091H278L507 737L736 1091H1005L653 553Z" />
<glyph unicode="y" glyph-name="y" horiz-adv-x="1045" d="M792 1091H1042L539 -440H291L437 0H361L3 1091H266L525 222L792 1091Z" />
<glyph unicode="z" glyph-name="z" horiz-adv-x="896" d="M352 201H852V0H55V157L545 890H66V1091H842V934L352 201Z" />
<glyph unicode="{" glyph-name="braceleft" horiz-adv-x="696" d="M446 777T405 715T273 628Q364 603 405 541T446 375V-101Q446 -180 486 -217T610 -255H730V-448Q655 -460 573 -460Q385 -460 290 -369T194 -100V388Q194 456 158 491T56 527H16V728H56Q122 728
158 763T194 867V1276Q194 1454 289 1545T573 1636Q655 1636 730 1624V1431H610Q527 1431 487 1394T446 1277V880Q446 777 405 715Z" />
<glyph unicode="|" glyph-name="bar" horiz-adv-x="495" d="M134 -440V1616H361V-440H134Z" />
<glyph unicode="}" glyph-name="braceright" horiz-adv-x="696" d="M680 728V527H640Q574 527 538 492T502 388V-100Q502 -278 407 -369T124 -460Q41 -460 -34 -448V-255H86Q169 -255 209 -218T250 -101V375Q250 477 292 540T424 628Q334 652 292 715T250 880V1277Q250
1356 210 1393T86 1431H-34V1624Q41 1636 124 1636Q311 1636 406 1545T502 1276V867Q502 799 538 764T640 728H680Z" />
<glyph unicode="~" glyph-name="asciitilde" horiz-adv-x="1058" d="M665 601T621 616T508 664Q451 691 414 704T340 718Q275 718 222 692T118 609V817Q161 866 216 889T342 913Q394 913 439 898T552 850Q607 823 644 810T718 796Q782 796 835 822T940 905V698Q858
601 717 601Q665 601 621 616Z" />
<glyph unicode="&#xa0;" glyph-name="uni00A0" horiz-adv-x="463" />
<glyph unicode="&#xa1;" glyph-name="exclamdown" horiz-adv-x="531" d="M341 1106T387 1062T434 944Q434 870 388 826T266 781Q189 781 143 825T97 944Q97 1018 143 1062T266 1106Q341 1106 387 1062ZM189 647H345L400 138V-380H131V138L189 647Z" />
<glyph unicode="&#xa2;" glyph-name="cent" horiz-adv-x="856" d="M534 898T466 864T365 754T332 548Q332 416 363 337T456 224T614 189Q699 189 819 226V20Q738 -7 654 -15V-240H440V-10Q258 23 164 159T70 544Q70 785 164 919T440 1092V1331H654V1107Q742 1104
819 1085V879Q730 898 643 898Q534 898 466 864Z" />
<glyph unicode="&#xa3;" glyph-name="sterling" horiz-adv-x="1225" d="M1172 214V0H69V214H262V652H69V848H262V1032Q262 1262 404 1380T828 1499Q909 1499 989 1489T1135 1461V1246Q1069 1265 994 1275T846 1285Q726 1285 653 1260T547 1181T513 1039V848H966V652H513V214H1172Z"
/>
<glyph unicode="&#xa4;" glyph-name="currency" horiz-adv-x="1165" d="M986 467L1090 366L957 232L855 336L775 432Q692 381 582 381Q472 381 389 432L309 336L208 232L74 366L179 467L277 548Q229 632 229 740Q229 847 277 931L179 1013L73 1114L207 1248L309
1144L390 1046Q473 1097 582 1097Q690 1097 775 1046L856 1144L958 1248L1091 1114L986 1013L888 931Q936 847 936 740Q936 632 888 548L986 467ZM389 676T413 629T482 557T582 532Q668 532 721 587T775 740Q775 832 724 890T584 948Q527 948 483 923T414 851T389
740Q389 676 413 629Z" />
<glyph unicode="&#xa5;" glyph-name="yen" horiz-adv-x="1193" d="M1221 1480L802 769H1030V610H725V438H1030V279H725V0H469V279H165V438H469V610H165V769H390L-33 1480H239L604 865L968 1480H1221Z" />
<glyph unicode="&#xa6;" glyph-name="brokenbar" horiz-adv-x="495" d="M134 836V1616H361V836H134ZM134 -440V340H361V-440H134Z" />
<glyph unicode="&#xa7;" glyph-name="section" horiz-adv-x="990" d="M900 585T800 496Q865 428 865 314Q865 211 814 136T662 21T421 -20Q266 -20 130 20V206Q272 165 419 165Q531 165 582 199T634 300Q634 353 607 381T518 425L346 464Q219 494 155 567T90 765Q90
895 191 983Q123 1054 123 1163Q123 1264 173 1339T325 1455T581 1497Q712 1497 826 1472V1286Q717 1312 598 1312Q467 1312 411 1275T354 1176Q354 1128 381 1100T468 1056L642 1019Q774 989 837 917T900 718Q900 585 800 496ZM600 596Q623 591 637 586Q666 613
679 641T692 704Q692 763 661 797T560 848L388 886L348 896Q298 843 298 776Q298 720 328 685T428 634L600 596Z" />
<glyph unicode="&#xa8;" glyph-name="dieresis" horiz-adv-x="1069" d="M247 1282T209 1319T171 1420Q171 1484 209 1521T314 1558Q381 1558 419 1521T458 1420Q458 1356 420 1319T314 1282Q247 1282 209 1319ZM688 1282T650 1319T611 1420Q611 1484 649 1521T755
1558Q822 1558 860 1521T899 1420Q899 1356 861 1319T755 1282Q688 1282 650 1319Z" />
<glyph unicode="&#xa9;" glyph-name="copyright" horiz-adv-x="1660" d="M608 -22T439 73T176 340T83 740Q83 967 176 1139T438 1407T830 1502Q1052 1502 1221 1407T1484 1140T1577 740Q1577 513 1484 341T1222 73T830 -22Q608 -22 439 73ZM1013 125T1147 200T1353
415T1425 740Q1425 926 1353 1065T1147 1279T830 1355Q647 1355 513 1280T307 1065T235 740Q235 554 307 415T513 201T830 125Q1013 125 1147 200ZM757 324T663 371T518 511T466 733Q466 862 518 954T668 1095T902 1144Q1006 1144 1094 1119V952Q998 974 918 974Q663
974 663 735Q663 615 725 555T902 494Q946 494 991 501T1094 526V359Q1006 324 884 324Q757 324 663 371Z" />
<glyph unicode="&#xaa;" glyph-name="ordfeminine" horiz-adv-x="847" d="M513 1497T596 1463T721 1353T762 1146V610H569L552 702H540Q504 648 444 621T311 594Q229 594 168 625T75 713T42 844Q42 971 124 1037T387 1117L530 1129V1170Q530 1224 511 1255T450
1301T334 1316Q222 1316 106 1280V1461Q167 1479 239 1488T379 1497Q513 1497 596 1463ZM433 760T468 774T530 821V1001L417 992Q341 986 306 958T271 875Q271 817 303 789T396 760Q433 760 468 774Z" />
<glyph unicode="&#xab;" glyph-name="guillemotleft" horiz-adv-x="1058" d="M312 135L89 565L312 996H565L342 565L565 135H312ZM756 135L533 565L756 996H1009L786 565L1009 135H756Z" />
<glyph unicode="&#xac;" glyph-name="logicalnot" horiz-adv-x="1287" d="M968 193V661H118V859H1176V193H968Z" />
<glyph unicode="&#xad;" glyph-name="uni00AD" horiz-adv-x="802" d="M118 462V669H684V462H118Z" />
<glyph unicode="&#xae;" glyph-name="registered" horiz-adv-x="1438" d="M898 1498T1036 1420T1252 1202T1329 882Q1329 702 1252 563T1037 346T719 268Q540 268 402 345T186 562T109 882Q109 1062 186 1202T401 1420T719 1498Q898 1498 1036 1420ZM865 383T975
444T1146 619T1206 882Q1206 1033 1146 1146T976 1321T719 1383Q573 1383 463 1321T292 1146T232 882Q232 732 292 619T462 445T719 383Q865 383 975 444ZM963 862T840 822L992 600H858L717 804H708H627L624 600H503V1192H708Q835 1192 899 1143T963 997Q963 862
840 822ZM728 904Q787 904 816 927T845 997Q845 1092 728 1092H627V904H728Z" />
<glyph unicode="&#xaf;" glyph-name="overscore" horiz-adv-x="1069" d="M211 1340V1502H858V1340H211Z" />
<glyph unicode="&#xb0;" glyph-name="degree" horiz-adv-x="942" d="M368 782T286 828T156 956T109 1141Q109 1243 156 1324T285 1452T471 1498Q575 1498 657 1452T786 1325T833 1141Q833 1038 787 957T658 829T471 782Q368 782 286 828ZM527 937T572 962T642
1033T667 1141Q667 1202 642 1248T572 1318T471 1343Q415 1343 371 1319T301 1248T275 1141Q275 1079 300 1033T370 962T471 937Q527 937 572 962Z" />
<glyph unicode="&#xb1;" glyph-name="plusminus" horiz-adv-x="1058" d="M426 357V672H118V870H426V1184H633V870H940V672H633V357H426ZM118 1V199H940V1H118Z" />
<glyph unicode="&#xb2;" glyph-name="uni00B2" horiz-adv-x="794" d="M709 35V-136H86V-26L348 321Q412 405 439 463T467 573Q467 645 423 678T280 712Q226 712 172 703T73 675V841Q119 858 182 867T310 877Q485 877 577 808T669 591Q668 515 635 438T527 263L355
35H709Z" />
<glyph unicode="&#xb3;" glyph-name="uni00B3" horiz-adv-x="794" d="M607 362T659 300T711 139Q711 1 610 -74T317 -149Q186 -149 71 -116V40Q126 23 189 15T309 6Q415 6 466 42T518 152Q518 223 469 259T314 296H173V454H285Q386 454 436 490T486 594Q486 723
301 723Q246 723 190 713T87 685V841Q132 858 197 867T326 877Q500 877 590 810T680 614Q680 528 635 468T508 382Q607 362 659 300Z" />
<glyph unicode="&#xb4;" glyph-name="acute" horiz-adv-x="1069" d="M422 1240L625 1616H886L647 1240H422Z" />
<glyph unicode="&#xb5;" glyph-name="uni00B5" horiz-adv-x="1098" d="M979 1091V0H769L751 115H738Q690 49 629 15T497 -19Q419 -19 363 19V-440H111V1091H363V389Q363 289 404 247T519 204Q575 204 632 230T727 309V1091H979Z" />
<glyph unicode="&#xb6;" glyph-name="paragraph" horiz-adv-x="1215" d="M589 453Q521 449 492 449Q283 449 178 581T73 973Q73 1244 181 1370T518 1497Q647 1497 773 1480V0H589V453ZM897 0V1480H1081V0H897Z" />
<glyph unicode="&#xb7;" glyph-name="middot" horiz-adv-x="491" d="M170 397T124 441T77 559Q77 634 123 678T246 722Q322 722 368 678T414 559Q414 486 368 442T246 397Q170 397 124 441Z" />
<glyph unicode="&#xb8;" glyph-name="cedilla" horiz-adv-x="1069" d="M681 -107T721 -149T761 -260Q761 -341 703 -387T529 -433Q439 -433 361 -402V-294Q434 -326 519 -326Q571 -326 596 -308T621 -251Q621 -172 517 -172H478V20H607V-95Q681 -107 721 -149Z" />
<glyph unicode="&#xb9;" glyph-name="uni00B9" horiz-adv-x="794" d="M537 35H727V-136H133V35H334V634L136 502V685L409 868H537V35Z" />
<glyph unicode="&#xba;" glyph-name="ordmasculine" horiz-adv-x="908" d="M261 594T155 708T49 1046Q49 1269 155 1383T454 1497Q647 1497 753 1382T859 1046Q859 824 753 709T454 594Q261 594 155 708ZM537 769T580 830T623 1046Q623 1152 603 1213T546 1298T454
1323Q371 1323 328 1262T285 1046Q285 891 328 830T454 769Q537 769 580 830Z" />
<glyph unicode="&#xbb;" glyph-name="guillemotright" horiz-adv-x="1058" d="M49 135L272 565L49 996H302L525 565L302 135H49ZM493 135L716 565L493 996H746L969 565L746 135H493Z" />
<glyph unicode="&#xbc;" glyph-name="onequarter" horiz-adv-x="1892" d="M537 787H727V616H133V787H334V1386L136 1254V1437L409 1620H537V787ZM459 -136L1221 1616H1433L670 -136H459ZM1867 231V76H1746V-136H1568V76H1126V188L1443 864H1635L1340 231H1568L1608
526H1746V231H1867Z" />
<glyph unicode="&#xbd;" glyph-name="onehalf" horiz-adv-x="1892" d="M537 787H727V616H133V787H334V1386L136 1254V1437L409 1620H537V787ZM459 -136L1221 1616H1433L670 -136H459ZM1807 35V-136H1184V-26L1446 321Q1510 405 1537 463T1565 573Q1565 645 1521
678T1378 712Q1324 712 1270 703T1171 675V841Q1217 858 1280 867T1408 877Q1583 877 1675 808T1767 591Q1766 515 1733 438T1625 263L1453 35H1807Z" />
<glyph unicode="&#xbe;" glyph-name="threequarters" horiz-adv-x="1892" d="M607 1114T659 1052T711 891Q711 753 610 678T317 603Q187 603 71 636V792Q126 775 189 767T309 758Q415 758 466 794T518 904Q518 975 469 1011T314 1048H173V1206H285Q386 1206 436
1242T486 1346Q486 1475 301 1475Q246 1475 190 1465T87 1437V1593Q132 1610 197 1619T326 1629Q500 1629 590 1562T680 1366Q680 1280 635 1220T508 1134Q607 1114 659 1052ZM459 -136L1221 1616H1433L670 -136H459ZM1867 231V76H1746V-136H1568V76H1126V188L1443
864H1635L1340 231H1568L1608 526H1746V231H1867Z" />
<glyph unicode="&#xbf;" glyph-name="questiondown" horiz-adv-x="901" d="M580 1106T626 1063T673 949Q673 877 627 834T504 791Q428 791 382 834T336 949Q336 1019 382 1062T504 1106Q580 1106 626 1063ZM626 283Q500 249 428 210T325 121T295 4Q295 -96 362
-146T568 -197Q647 -197 725 -184T872 -144V-347Q808 -371 717 -385T538 -400Q298 -400 173 -301T48 -18Q48 135 136 237T406 405L426 664H583L626 283Z" />
<glyph unicode="&#xc0;" glyph-name="Agrave" horiz-adv-x="1320" d="M1052 0L924 426H392L264 0H13L473 1480H847L1307 0H1052ZM456 639H860L658 1312L456 639ZM547 1600L344 1896H609L772 1600H547Z" />
<glyph unicode="&#xc1;" glyph-name="Aacute" horiz-adv-x="1320" d="M1052 0L924 426H392L264 0H13L473 1480H847L1307 0H1052ZM456 639H860L658 1312L456 639ZM546 1600L710 1896H975L772 1600H546Z" />
<glyph unicode="&#xc2;" glyph-name="Acircumflex" horiz-adv-x="1320" d="M1052 0L924 426H392L264 0H13L473 1480H847L1307 0H1052ZM456 639H860L658 1312L456 639ZM992 1600H803L660 1799L516 1600H328L550 1896H769L992 1600Z" />
<glyph unicode="&#xc3;" glyph-name="Atilde" horiz-adv-x="1320" d="M1052 0L924 426H392L264 0H13L473 1480H847L1307 0H1052ZM456 639H860L658 1312L456 639ZM774 1636T735 1646T644 1678Q593 1697 563 1705T498 1714Q444 1714 402 1697T317 1641V1799Q352
1835 396 1852T501 1869Q546 1869 585 1859T677 1827Q727 1808 757 1800T821 1791Q876 1791 918 1808T1002 1863V1705Q967 1670 923 1653T818 1636Q774 1636 735 1646Z" />
<glyph unicode="&#xc4;" glyph-name="Adieresis" horiz-adv-x="1320" d="M1052 0L924 426H392L264 0H13L473 1480H847L1307 0H1052ZM456 639H860L658 1312L456 639ZM356 1624T319 1657T281 1751Q281 1811 318 1844T425 1878Q494 1878 532 1845T570 1751Q570 1691
532 1658T425 1624Q356 1624 319 1657ZM825 1624T787 1657T749 1751Q749 1811 787 1844T894 1878Q963 1878 1000 1845T1038 1751Q1038 1691 1001 1658T894 1624Q825 1624 787 1657Z" />
<glyph unicode="&#xc5;" glyph-name="Aring" horiz-adv-x="1320" d="M1052 0L924 426H392L264 0H13L473 1480H847L1307 0H1052ZM456 639H860L658 1312L456 639ZM602 1507T555 1533T480 1606T453 1711Q453 1769 480 1815T554 1888T662 1915Q721 1915 768 1889T843
1816T870 1711Q870 1653 843 1607T769 1534T662 1507Q602 1507 555 1533ZM707 1606T735 1634T763 1711Q763 1759 735 1787T662 1816Q616 1816 588 1788T560 1711Q560 1663 588 1635T662 1606Q707 1606 735 1634Z" />
<glyph unicode="&#xc6;" glyph-name="AE" horiz-adv-x="1828" d="M1146 215H1768V0H911L883 425H398L267 0H13L478 1480H1758V1265H1072L1100 865H1659V650H1115L1146 215ZM464 640H869L827 1265H657L464 640Z" />
<glyph unicode="&#xc7;" glyph-name="Ccedilla" horiz-adv-x="1115" d="M649 1282T550 1229T401 1057T351 741Q351 538 401 419T548 249T795 198Q923 198 1079 247V31Q1014 7 933 -6T767 -19H743V-92Q828 -103 874 -145T920 -259Q920 -342 857 -387T671 -433Q567
-433 481 -400V-292Q567 -326 659 -326Q719 -326 749 -308T779 -251Q779 -172 657 -172H614V-9Q354 28 219 208T83 737Q83 1125 263 1312T784 1499Q940 1499 1079 1463V1246Q947 1282 802 1282Q649 1282 550 1229Z" />
<glyph unicode="&#xc8;" glyph-name="Egrave" horiz-adv-x="1134" d="M387 215H1074V0H134V1480H1064V1265H387V865H965V650H387V215ZM508 1600L305 1896H570L733 1600H508Z" />
<glyph unicode="&#xc9;" glyph-name="Eacute" horiz-adv-x="1134" d="M387 215H1074V0H134V1480H1064V1265H387V865H965V650H387V215ZM507 1600L671 1896H936L733 1600H507Z" />
<glyph unicode="&#xca;" glyph-name="Ecircumflex" horiz-adv-x="1134" d="M387 215H1074V0H134V1480H1064V1265H387V865H965V650H387V215ZM953 1600H764L621 1799L477 1600H289L511 1896H730L953 1600Z" />
<glyph unicode="&#xcb;" glyph-name="Edieresis" horiz-adv-x="1134" d="M387 215H1074V0H134V1480H1064V1265H387V865H965V650H387V215ZM317 1624T280 1657T242 1751Q242 1811 279 1844T386 1878Q455 1878 493 1845T531 1751Q531 1691 493 1658T386 1624Q317
1624 280 1657ZM786 1624T748 1657T710 1751Q710 1811 748 1844T855 1878Q924 1878 961 1845T999 1751Q999 1691 962 1658T855 1624Q786 1624 748 1657Z" />
<glyph unicode="&#xcc;" glyph-name="Igrave" horiz-adv-x="524" d="M134 0V1480H390V0H134ZM149 1600L-54 1896H211L374 1600H149Z" />
<glyph unicode="&#xcd;" glyph-name="Iacute" horiz-adv-x="524" d="M134 0V1480H390V0H134ZM148 1600L312 1896H577L374 1600H148Z" />
<glyph unicode="&#xce;" glyph-name="Icircumflex" horiz-adv-x="524" d="M134 0V1480H390V0H134ZM594 1600H405L262 1799L118 1600H-70L152 1896H371L594 1600Z" />
<glyph unicode="&#xcf;" glyph-name="Idieresis" horiz-adv-x="524" d="M134 0V1480H390V0H134ZM-42 1624T-79 1657T-117 1751Q-117 1811 -80 1844T27 1878Q96 1878 134 1845T172 1751Q172 1691 134 1658T27 1624Q-42 1624 -79 1657ZM427 1624T389 1657T351 1751Q351
1811 389 1844T496 1878Q565 1878 602 1845T640 1751Q640 1691 603 1658T496 1624Q427 1624 389 1657Z" />
<glyph unicode="&#xd0;" glyph-name="Eth" horiz-adv-x="1358" d="M907 1497T1091 1312T1275 740Q1275 477 1188 311T928 65T489 -15Q320 -15 134 6V676H0V848H134V1454Q337 1497 537 1497Q907 1497 1091 1312ZM708 199T808 252T960 425T1011 741Q1011 935 961
1054T811 1229T558 1284Q478 1284 390 1269V848H658V676H390V207Q466 199 552 199Q708 199 808 252Z" />
<glyph unicode="&#xd1;" glyph-name="Ntilde" horiz-adv-x="1418" d="M1043 1480H1284V0H1025L375 1073V0H134V1480H393L1043 407V1480ZM823 1636T784 1646T693 1678Q642 1697 612 1705T547 1714Q493 1714 451 1697T366 1641V1799Q401 1835 445 1852T550 1869Q595
1869 634 1859T726 1827Q776 1808 806 1800T870 1791Q925 1791 967 1808T1051 1863V1705Q1016 1670 972 1653T867 1636Q823 1636 784 1646Z" />
<glyph unicode="&#xd2;" glyph-name="Ograve" horiz-adv-x="1404" d="M411 -19T247 167T83 740Q83 1126 247 1312T702 1499Q993 1499 1157 1313T1321 740Q1321 354 1157 168T702 -19Q411 -19 247 167ZM876 194T967 319T1058 734Q1058 1030 967 1158T702 1286Q529
1286 438 1160T347 746Q347 449 437 322T702 194Q876 194 967 319ZM589 1600L386 1896H651L814 1600H589Z" />
<glyph unicode="&#xd3;" glyph-name="Oacute" horiz-adv-x="1404" d="M411 -19T247 167T83 740Q83 1126 247 1312T702 1499Q993 1499 1157 1313T1321 740Q1321 354 1157 168T702 -19Q411 -19 247 167ZM876 194T967 319T1058 734Q1058 1030 967 1158T702 1286Q529
1286 438 1160T347 746Q347 449 437 322T702 194Q876 194 967 319ZM588 1600L752 1896H1017L814 1600H588Z" />
<glyph unicode="&#xd4;" glyph-name="Ocircumflex" horiz-adv-x="1404" d="M411 -19T247 167T83 740Q83 1126 247 1312T702 1499Q993 1499 1157 1313T1321 740Q1321 354 1157 168T702 -19Q411 -19 247 167ZM876 194T967 319T1058 734Q1058 1030 967 1158T702 1286Q529
1286 438 1160T347 746Q347 449 437 322T702 194Q876 194 967 319ZM1034 1600H845L702 1799L558 1600H370L592 1896H811L1034 1600Z" />
<glyph unicode="&#xd5;" glyph-name="Otilde" horiz-adv-x="1404" d="M411 -19T247 167T83 740Q83 1126 247 1312T702 1499Q993 1499 1157 1313T1321 740Q1321 354 1157 168T702 -19Q411 -19 247 167ZM876 194T967 319T1058 734Q1058 1030 967 1158T702 1286Q529
1286 438 1160T347 746Q347 449 437 322T702 194Q876 194 967 319ZM816 1636T777 1646T686 1678Q635 1697 605 1705T540 1714Q486 1714 444 1697T359 1641V1799Q394 1835 438 1852T543 1869Q588 1869 627 1859T719 1827Q769 1808 799 1800T863 1791Q918 1791 960
1808T1044 1863V1705Q1009 1670 965 1653T860 1636Q816 1636 777 1646Z" />
<glyph unicode="&#xd6;" glyph-name="Odieresis" horiz-adv-x="1404" d="M411 -19T247 167T83 740Q83 1126 247 1312T702 1499Q993 1499 1157 1313T1321 740Q1321 354 1157 168T702 -19Q411 -19 247 167ZM876 194T967 319T1058 734Q1058 1030 967 1158T702 1286Q529
1286 438 1160T347 746Q347 449 437 322T702 194Q876 194 967 319ZM398 1624T361 1657T323 1751Q323 1811 360 1844T467 1878Q536 1878 574 1845T612 1751Q612 1691 574 1658T467 1624Q398 1624 361 1657ZM867 1624T829 1657T791 1751Q791 1811 829 1844T936 1878Q1005
1878 1042 1845T1080 1751Q1080 1691 1043 1658T936 1624Q867 1624 829 1657Z" />
<glyph unicode="&#xd7;" glyph-name="multiply" horiz-adv-x="1003" d="M232 351L92 491L362 760L92 1029L232 1169L501 900L771 1169L910 1029L641 760L910 491L771 351L501 620L232 351Z" />
<glyph unicode="&#xd8;" glyph-name="Oslash" horiz-adv-x="1404" d="M1321 1097T1321 740Q1321 354 1157 168T702 -19Q479 -19 333 87L243 -41L126 42L229 189Q83 382 83 740Q83 1126 247 1312T702 1499Q925 1499 1072 1392L1162 1521L1279 1438L1175 1290Q1321
1097 1321 740ZM347 545T390 419L935 1197Q852 1286 702 1286Q529 1286 438 1160T347 746Q347 545 390 419ZM876 194T967 319T1058 734Q1058 937 1014 1060L469 282Q554 194 702 194Q876 194 967 319Z" />
<glyph unicode="&#xd9;" glyph-name="Ugrave" horiz-adv-x="1370" d="M495 -19T371 44T187 238T127 574V1480H383V546Q383 363 457 280T688 196Q845 196 919 279T993 546V1480H1243V574Q1243 369 1184 238T1003 44T688 -19Q495 -19 371 44ZM575 1600L372 1896H637L800
1600H575Z" />
<glyph unicode="&#xda;" glyph-name="Uacute" horiz-adv-x="1370" d="M495 -19T371 44T187 238T127 574V1480H383V546Q383 363 457 280T688 196Q845 196 919 279T993 546V1480H1243V574Q1243 369 1184 238T1003 44T688 -19Q495 -19 371 44ZM574 1600L738 1896H1003L800
1600H574Z" />
<glyph unicode="&#xdb;" glyph-name="Ucircumflex" horiz-adv-x="1370" d="M495 -19T371 44T187 238T127 574V1480H383V546Q383 363 457 280T688 196Q845 196 919 279T993 546V1480H1243V574Q1243 369 1184 238T1003 44T688 -19Q495 -19 371 44ZM1020 1600H831L688
1799L544 1600H356L578 1896H797L1020 1600Z" />
<glyph unicode="&#xdc;" glyph-name="Udieresis" horiz-adv-x="1370" d="M495 -19T371 44T187 238T127 574V1480H383V546Q383 363 457 280T688 196Q845 196 919 279T993 546V1480H1243V574Q1243 369 1184 238T1003 44T688 -19Q495 -19 371 44ZM384 1624T347 1657T309
1751Q309 1811 346 1844T453 1878Q522 1878 560 1845T598 1751Q598 1691 560 1658T453 1624Q384 1624 347 1657ZM853 1624T815 1657T777 1751Q777 1811 815 1844T922 1878Q991 1878 1028 1845T1066 1751Q1066 1691 1029 1658T922 1624Q853 1624 815 1657Z" />
<glyph unicode="&#xdd;" glyph-name="Yacute" horiz-adv-x="1169" d="M1208 1480L714 640V0H457V638L-47 1480H226L591 865L955 1480H1208ZM472 1600L636 1896H901L698 1600H472Z" />
<glyph unicode="&#xde;" glyph-name="Thorn" horiz-adv-x="1225" d="M134 1480H390V1275Q475 1284 535 1284Q840 1284 991 1157T1143 760Q1143 501 991 369T539 236Q492 236 390 242V0H134V1480ZM723 440T807 515T892 757Q892 926 810 1003T554 1081Q464 1081
390 1068V449Q453 440 541 440Q723 440 807 515Z" />
<glyph unicode="&#xdf;" glyph-name="germandbls" horiz-adv-x="1398" d="M1221 594T1286 521T1351 319Q1351 214 1299 138T1147 21T906 -20Q747 -20 614 19V216Q757 175 902 175Q1015 175 1066 210T1117 311Q1117 363 1090 391T1002 434L854 467Q717 497 652
572T587 773Q587 873 637 946T786 1060T1031 1101H1046Q1048 1135 1048 1153Q1048 1311 972 1381T763 1452Q603 1452 524 1363T444 1079V0H192V888H15V1091H192Q194 1265 260 1387T451 1572T746 1636Q970 1636 1101 1516T1232 1144Q1232 1028 1199 901Q1135 912
1059 912Q931 912 876 875T820 777Q820 729 847 701T933 658L1081 626Q1221 594 1286 521Z" />
<glyph unicode="&#xe0;" glyph-name="agrave" horiz-adv-x="1011" d="M613 1108T709 1068T853 935T900 684V0H693L675 115H662Q617 48 546 15T386 -19Q288 -19 216 18T104 125T64 289Q64 442 162 526T473 627L655 644V697Q655 778 631 823T554 888T415 908Q353
908 281 897T140 865V1064Q208 1085 294 1096T459 1108Q613 1108 709 1068ZM519 167T568 188T655 257V492L498 478Q402 469 357 429T312 315Q312 242 352 205T467 167Q519 167 568 188ZM389 1240L150 1616H412L614 1240H389Z" />
<glyph unicode="&#xe1;" glyph-name="aacute" horiz-adv-x="1011" d="M613 1108T709 1068T853 935T900 684V0H693L675 115H662Q617 48 546 15T386 -19Q288 -19 216 18T104 125T64 289Q64 442 162 526T473 627L655 644V697Q655 778 631 823T554 888T415 908Q353
908 281 897T140 865V1064Q208 1085 294 1096T459 1108Q613 1108 709 1068ZM519 167T568 188T655 257V492L498 478Q402 469 357 429T312 315Q312 242 352 205T467 167Q519 167 568 188ZM389 1240L592 1616H853L614 1240H389Z" />
<glyph unicode="&#xe2;" glyph-name="acircumflex" horiz-adv-x="1011" d="M613 1108T709 1068T853 935T900 684V0H693L675 115H662Q617 48 546 15T386 -19Q288 -19 216 18T104 125T64 289Q64 442 162 526T473 627L655 644V697Q655 778 631 823T554 888T415 908Q353
908 281 897T140 865V1064Q208 1085 294 1096T459 1108Q613 1108 709 1068ZM519 167T568 188T655 257V492L498 478Q402 469 357 429T312 315Q312 242 352 205T467 167Q519 167 568 188ZM817 1240H636L502 1497L367 1240H187L394 1616H610L817 1240Z" />
<glyph unicode="&#xe3;" glyph-name="atilde" horiz-adv-x="1011" d="M613 1108T709 1068T853 935T900 684V0H693L675 115H662Q617 48 546 15T386 -19Q288 -19 216 18T104 125T64 289Q64 442 162 526T473 627L655 644V697Q655 778 631 823T554 888T415 908Q353
908 281 897T140 865V1064Q208 1085 294 1096T459 1108Q613 1108 709 1068ZM519 167T568 188T655 257V492L498 478Q402 469 357 429T312 315Q312 242 352 205T467 167Q519 167 568 188ZM608 1308T573 1320T486 1355Q440 1376 411 1386T352 1396Q301 1396 260 1377T178
1314V1482Q213 1520 256 1538T355 1556Q395 1556 431 1544T519 1508Q563 1487 592 1477T651 1467Q702 1467 743 1486T825 1549V1381Q791 1344 748 1326T648 1308Q608 1308 573 1320Z" />
<glyph unicode="&#xe4;" glyph-name="adieresis" horiz-adv-x="1011" d="M613 1108T709 1068T853 935T900 684V0H693L675 115H662Q617 48 546 15T386 -19Q288 -19 216 18T104 125T64 289Q64 442 162 526T473 627L655 644V697Q655 778 631 823T554 888T415 908Q353
908 281 897T140 865V1064Q208 1085 294 1096T459 1108Q613 1108 709 1068ZM519 167T568 188T655 257V492L498 478Q402 469 357 429T312 315Q312 242 352 205T467 167Q519 167 568 188ZM214 1282T176 1319T138 1420Q138 1484 176 1521T281 1558Q348 1558 386 1521T425
1420Q425 1356 387 1319T281 1282Q214 1282 176 1319ZM655 1282T617 1319T578 1420Q578 1484 616 1521T722 1558Q789 1558 827 1521T866 1420Q866 1356 828 1319T722 1282Q655 1282 617 1319Z" />
<glyph unicode="&#xe5;" glyph-name="aring" horiz-adv-x="1011" d="M613 1108T709 1068T853 935T900 684V0H693L675 115H662Q617 48 546 15T386 -19Q288 -19 216 18T104 125T64 289Q64 442 162 526T473 627L655 644V697Q655 778 631 823T554 888T415 908Q353
908 281 897T140 865V1064Q208 1085 294 1096T459 1108Q613 1108 709 1068ZM519 167T568 188T655 257V492L498 478Q402 469 357 429T312 315Q312 242 352 205T467 167Q519 167 568 188ZM442 1235T395 1261T320 1333T293 1439Q293 1497 320 1543T394 1616T502 1642Q561
1642 608 1616T683 1544T710 1439Q710 1380 683 1334T609 1261T502 1235Q442 1235 395 1261ZM547 1334T575 1362T603 1439Q603 1486 575 1514T502 1543Q456 1543 428 1515T400 1439Q400 1391 428 1363T502 1334Q547 1334 575 1362Z" />
<glyph unicode="&#xe6;" glyph-name="ae" horiz-adv-x="1573" d="M1516 468H901Q905 360 936 298T1033 208T1206 180Q1321 180 1461 218V19Q1315 -20 1176 -20Q1023 -20 919 21T753 150Q684 59 598 20T409 -19Q301 -19 224 18T105 124T64 291Q64 446 167 535T489
624H658V696Q658 777 632 823T553 888T413 908Q353 908 281 897T140 865V1064Q291 1108 449 1108Q580 1108 666 1073T800 963Q852 1035 929 1072T1105 1109Q1301 1109 1408 968T1516 541V468ZM999 940T951 869T900 624H1279Q1277 744 1255 813T1193 911T1092 940Q999
940 951 869ZM605 167T689 287Q666 370 660 474H513Q408 474 360 431T312 312Q312 241 353 204T471 167Q605 167 689 287Z" />
<glyph unicode="&#xe7;" glyph-name="ccedilla" horiz-adv-x="855" d="M535 898T467 864T365 754T332 548Q332 416 363 337T456 224T614 189Q699 189 819 226V20Q702 -20 569 -20V-95Q643 -107 683 -149T723 -260Q723 -341 665 -387T491 -433Q401 -433 323 -402V-294Q396
-326 481 -326Q533 -326 558 -308T583 -251Q583 -172 479 -172H440V-10Q258 23 164 159T70 544Q70 835 207 971T606 1108Q723 1108 819 1085V879Q730 898 645 898Q535 898 467 864Z" />
<glyph unicode="&#xe8;" glyph-name="egrave" horiz-adv-x="1005" d="M947 468H325Q329 360 361 298T459 208T636 180Q752 180 893 218V19Q747 -20 604 -20Q420 -20 303 38T128 221T70 548Q70 824 188 966T523 1108Q731 1108 839 966T947 540V468ZM458 939T416
910T350 812T324 624H710Q708 743 686 812T624 910T521 939Q458 939 416 910ZM404 1240L165 1616H427L629 1240H404Z" />
<glyph unicode="&#xe9;" glyph-name="eacute" horiz-adv-x="1005" d="M947 468H325Q329 360 361 298T459 208T636 180Q752 180 893 218V19Q747 -20 604 -20Q420 -20 303 38T128 221T70 548Q70 824 188 966T523 1108Q731 1108 839 966T947 540V468ZM458 939T416
910T350 812T324 624H710Q708 743 686 812T624 910T521 939Q458 939 416 910ZM404 1240L607 1616H868L629 1240H404Z" />
<glyph unicode="&#xea;" glyph-name="ecircumflex" horiz-adv-x="1005" d="M947 468H325Q329 360 361 298T459 208T636 180Q752 180 893 218V19Q747 -20 604 -20Q420 -20 303 38T128 221T70 548Q70 824 188 966T523 1108Q731 1108 839 966T947 540V468ZM458 939T416
910T350 812T324 624H710Q708 743 686 812T624 910T521 939Q458 939 416 910ZM832 1240H651L517 1497L382 1240H202L409 1616H625L832 1240Z" />
<glyph unicode="&#xeb;" glyph-name="edieresis" horiz-adv-x="1005" d="M947 468H325Q329 360 361 298T459 208T636 180Q752 180 893 218V19Q747 -20 604 -20Q420 -20 303 38T128 221T70 548Q70 824 188 966T523 1108Q731 1108 839 966T947 540V468ZM458 939T416
910T350 812T324 624H710Q708 743 686 812T624 910T521 939Q458 939 416 910ZM229 1282T191 1319T153 1420Q153 1484 191 1521T296 1558Q363 1558 401 1521T440 1420Q440 1356 402 1319T296 1282Q229 1282 191 1319ZM670 1282T632 1319T593 1420Q593 1484 631 1521T737
1558Q804 1558 842 1521T881 1420Q881 1356 843 1319T737 1282Q670 1282 632 1319Z" />
<glyph unicode="&#xec;" glyph-name="igrave" horiz-adv-x="491" d="M119 0V1091H372V0H119ZM133 1240L-106 1616H156L358 1240H133Z" />
<glyph unicode="&#xed;" glyph-name="iacute" horiz-adv-x="491" d="M119 0V1091H372V0H119ZM133 1240L336 1616H597L358 1240H133Z" />
<glyph unicode="&#xee;" glyph-name="icircumflex" horiz-adv-x="491" d="M119 0V1091H372V0H119ZM561 1240H380L246 1497L111 1240H-69L138 1616H354L561 1240Z" />
<glyph unicode="&#xef;" glyph-name="idieresis" horiz-adv-x="491" d="M119 0V1091H372V0H119ZM-42 1282T-80 1319T-118 1420Q-118 1484 -80 1521T25 1558Q92 1558 130 1521T169 1420Q169 1356 131 1319T25 1282Q-42 1282 -80 1319ZM399 1282T361 1319T322 1420Q322
1484 360 1521T466 1558Q533 1558 571 1521T610 1420Q610 1356 572 1319T466 1282Q399 1282 361 1319Z" />
<glyph unicode="&#xf0;" glyph-name="eth" horiz-adv-x="1083" d="M895 1156T954 968T1013 598Q1013 -22 543 -22Q317 -22 194 117T70 542Q70 828 190 966T523 1104Q610 1104 680 1067Q632 1178 564 1277L181 1204L151 1345L465 1405Q368 1517 245 1616H534Q624
1544 700 1449L958 1498L988 1357L792 1320Q895 1156 954 968ZM649 172T703 255T757 538Q757 681 732 763T660 879T542 913Q471 913 424 880T352 765T326 543Q326 401 351 320T423 205T543 172Q649 172 703 255Z" />
<glyph unicode="&#xf1;" glyph-name="ntilde" horiz-adv-x="1107" d="M119 1091H329L347 974H360Q417 1039 494 1073T663 1108Q817 1108 906 1015T996 717V0H744V700Q744 800 703 843T583 886Q524 886 466 860T371 780V0H119V1091ZM664 1308T629 1320T542 1355Q496
1376 467 1386T408 1396Q357 1396 316 1377T234 1314V1482Q269 1520 312 1538T411 1556Q451 1556 487 1544T575 1508Q619 1487 648 1477T707 1467Q758 1467 799 1486T881 1549V1381Q847 1344 804 1326T704 1308Q664 1308 629 1320Z" />
<glyph unicode="&#xf2;" glyph-name="ograve" horiz-adv-x="1083" d="M316 -20T193 118T70 542Q70 830 192 969T542 1108Q768 1108 891 968T1014 544Q1014 258 891 119T542 -20Q316 -20 193 118ZM613 173T660 206T732 320T757 541Q757 684 732 766T660 881T542
915Q471 915 424 882T352 767T326 545Q326 403 351 322T423 207T542 173Q613 173 660 206ZM429 1240L190 1616H452L654 1240H429Z" />
<glyph unicode="&#xf3;" glyph-name="oacute" horiz-adv-x="1083" d="M316 -20T193 118T70 542Q70 830 192 969T542 1108Q768 1108 891 968T1014 544Q1014 258 891 119T542 -20Q316 -20 193 118ZM613 173T660 206T732 320T757 541Q757 684 732 766T660 881T542
915Q471 915 424 882T352 767T326 545Q326 403 351 322T423 207T542 173Q613 173 660 206ZM429 1240L632 1616H893L654 1240H429Z" />
<glyph unicode="&#xf4;" glyph-name="ocircumflex" horiz-adv-x="1083" d="M316 -20T193 118T70 542Q70 830 192 969T542 1108Q768 1108 891 968T1014 544Q1014 258 891 119T542 -20Q316 -20 193 118ZM613 173T660 206T732 320T757 541Q757 684 732 766T660 881T542
915Q471 915 424 882T352 767T326 545Q326 403 351 322T423 207T542 173Q613 173 660 206ZM857 1240H676L542 1497L407 1240H227L434 1616H650L857 1240Z" />
<glyph unicode="&#xf5;" glyph-name="otilde" horiz-adv-x="1083" d="M316 -20T193 118T70 542Q70 830 192 969T542 1108Q768 1108 891 968T1014 544Q1014 258 891 119T542 -20Q316 -20 193 118ZM613 173T660 206T732 320T757 541Q757 684 732 766T660 881T542
915Q471 915 424 882T352 767T326 545Q326 403 351 322T423 207T542 173Q613 173 660 206ZM648 1308T613 1320T526 1355Q480 1376 451 1386T392 1396Q341 1396 300 1377T218 1314V1482Q253 1520 296 1538T395 1556Q435 1556 471 1544T559 1508Q603 1487 632 1477T691
1467Q742 1467 783 1486T865 1549V1381Q831 1344 788 1326T688 1308Q648 1308 613 1320Z" />
<glyph unicode="&#xf6;" glyph-name="odieresis" horiz-adv-x="1083" d="M316 -20T193 118T70 542Q70 830 192 969T542 1108Q768 1108 891 968T1014 544Q1014 258 891 119T542 -20Q316 -20 193 118ZM613 173T660 206T732 320T757 541Q757 684 732 766T660 881T542
915Q471 915 424 882T352 767T326 545Q326 403 351 322T423 207T542 173Q613 173 660 206ZM254 1282T216 1319T178 1420Q178 1484 216 1521T321 1558Q388 1558 426 1521T465 1420Q465 1356 427 1319T321 1282Q254 1282 216 1319ZM695 1282T657 1319T618 1420Q618
1484 656 1521T762 1558Q829 1558 867 1521T906 1420Q906 1356 868 1319T762 1282Q695 1282 657 1319Z" />
<glyph unicode="&#xf7;" glyph-name="divide" horiz-adv-x="1058" d="M461 990T419 1030T376 1137Q376 1205 417 1245T529 1285Q599 1285 640 1245T682 1137Q682 1071 640 1031T529 990Q461 990 419 1030ZM118 661V859H940V661H118ZM461 235T419 275T376 382Q376
450 417 490T529 530Q599 530 640 490T682 382Q682 316 640 276T529 235Q461 235 419 275Z" />
<glyph unicode="&#xf8;" glyph-name="oslash" horiz-adv-x="1083" d="M1014 813T1014 544Q1014 258 891 119T542 -20Q388 -20 281 44L220 -45L106 35L177 139Q70 280 70 542Q70 830 192 969T542 1108Q693 1108 797 1047L858 1136L972 1056L902 954Q1014 813 1014
544ZM468 918T419 885T344 769T317 545Q317 425 335 348L687 865Q637 918 542 918Q468 918 419 885ZM616 169T665 202T740 318T767 541Q767 669 746 748L392 227Q443 169 542 169Q616 169 665 202Z" />
<glyph unicode="&#xf9;" glyph-name="ugrave" horiz-adv-x="1098" d="M290 -19T201 74T111 372V1091H363V389Q363 289 404 247T519 204Q575 204 632 230T727 309V1091H979V0H769L751 115H738Q679 49 604 15T443 -19Q290 -19 201 74ZM432 1240L193 1616H455L657 1240H432Z" />
<glyph unicode="&#xfa;" glyph-name="uacute" horiz-adv-x="1098" d="M290 -19T201 74T111 372V1091H363V389Q363 289 404 247T519 204Q575 204 632 230T727 309V1091H979V0H769L751 115H738Q679 49 604 15T443 -19Q290 -19 201 74ZM432 1240L635 1616H896L657 1240H432Z" />
<glyph unicode="&#xfb;" glyph-name="ucircumflex" horiz-adv-x="1098" d="M290 -19T201 74T111 372V1091H363V389Q363 289 404 247T519 204Q575 204 632 230T727 309V1091H979V0H769L751 115H738Q679 49 604 15T443 -19Q290 -19 201 74ZM860 1240H679L545 1497L410
1240H230L437 1616H653L860 1240Z" />
<glyph unicode="&#xfc;" glyph-name="udieresis" horiz-adv-x="1098" d="M290 -19T201 74T111 372V1091H363V389Q363 289 404 247T519 204Q575 204 632 230T727 309V1091H979V0H769L751 115H738Q679 49 604 15T443 -19Q290 -19 201 74ZM257 1282T219 1319T181
1420Q181 1484 219 1521T324 1558Q391 1558 429 1521T468 1420Q468 1356 430 1319T324 1282Q257 1282 219 1319ZM698 1282T660 1319T621 1420Q621 1484 659 1521T765 1558Q832 1558 870 1521T909 1420Q909 1356 871 1319T765 1282Q698 1282 660 1319Z" />
<glyph unicode="&#xfd;" glyph-name="yacute" horiz-adv-x="1045" d="M792 1091H1042L539 -440H291L437 0H361L3 1091H266L525 222L792 1091ZM410 1240L613 1616H874L635 1240H410Z" />
<glyph unicode="&#xfe;" glyph-name="thorn" d="M119 1616H371V982H384Q426 1041 493 1074T647 1108Q757 1108 844 1052T984 874T1036 565Q1036 274 897 128T482 -19Q431 -19 371 -12V-440H119V1616ZM589 177T652 213T747 329T779 543Q779 679 751 756T673 865T551
896Q498 896 450 875T371 812V189Q428 177 492 177Q589 177 652 213Z" />
<glyph unicode="&#xff;" glyph-name="ydieresis" horiz-adv-x="1045" d="M792 1091H1042L539 -440H291L437 0H361L3 1091H266L525 222L792 1091ZM235 1282T197 1319T159 1420Q159 1484 197 1521T302 1558Q369 1558 407 1521T446 1420Q446 1356 408 1319T302 1282Q235
1282 197 1319ZM676 1282T638 1319T599 1420Q599 1484 637 1521T743 1558Q810 1558 848 1521T887 1420Q887 1356 849 1319T743 1282Q676 1282 638 1319Z" />
<glyph unicode="&#x2013;" glyph-name="endash" horiz-adv-x="850" d="M0 476V655H850V476H0Z" />
<glyph unicode="&#x2014;" glyph-name="emdash" horiz-adv-x="1700" d="M0 476V655H1700V476H0Z" />
<glyph unicode="&#x2018;" glyph-name="quoteleft" horiz-adv-x="491" d="M334 1291T374 1248T414 1135Q414 1060 371 1017T258 973Q78 973 78 1185Q78 1297 114 1410T211 1616H357Q318 1522 296 1447T268 1298Q334 1291 374 1248Z" />
<glyph unicode="&#x2019;" glyph-name="quoteright" horiz-adv-x="491" d="M325 1631T369 1578T413 1419Q413 1308 378 1195T281 988H135Q175 1083 196 1158T224 1307Q158 1314 118 1357T77 1469Q77 1545 122 1588T241 1631Q325 1631 369 1578Z" />
<glyph unicode="&#x201a;" glyph-name="quotesinglbase" horiz-adv-x="491" d="M325 310T369 257T413 98Q413 -14 377 -127T281 -333H135Q175 -238 196 -163T224 -14Q158 -7 118 36T77 148Q77 224 122 267T241 310Q325 310 369 257Z" />
<glyph unicode="&#x201c;" glyph-name="quotedblleft" horiz-adv-x="913" d="M334 1291T374 1248T414 1135Q414 1060 371 1017T258 973Q78 973 78 1185Q78 1297 114 1410T211 1616H357Q318 1522 296 1447T268 1298Q334 1291 374 1248ZM756 1291T796 1248T836 1135Q836
1060 793 1017T680 973Q500 973 500 1185Q500 1297 536 1410T633 1616H779Q740 1522 718 1447T690 1298Q756 1291 796 1248Z" />
<glyph unicode="&#x201d;" glyph-name="quotedblright" horiz-adv-x="913" d="M325 1631T369 1578T413 1419Q413 1308 378 1195T281 988H135Q175 1083 196 1158T224 1307Q158 1314 118 1357T77 1469Q77 1545 122 1588T241 1631Q325 1631 369 1578ZM747 1631T791
1578T835 1419Q835 1308 800 1195T703 988H557Q597 1083 618 1158T646 1307Q580 1314 540 1357T499 1469Q499 1545 544 1588T663 1631Q747 1631 791 1578Z" />
<glyph unicode="&#x201e;" glyph-name="quotedblbase" horiz-adv-x="913" d="M325 310T369 257T413 98Q413 -14 377 -127T281 -333H135Q175 -238 196 -163T224 -14Q158 -7 118 36T77 148Q77 224 122 267T241 310Q325 310 369 257ZM747 310T791 257T835 98Q835
-14 799 -127T703 -333H557Q597 -238 618 -163T646 -14Q580 -7 540 36T499 148Q499 224 544 267T663 310Q747 310 791 257Z" />
<glyph unicode="&#x2022;" glyph-name="bullet" horiz-adv-x="722" d="M282 277T217 313T115 415T77 560Q77 641 114 705T217 806T361 843Q440 843 504 807T606 706T644 560Q644 479 607 415T505 314T361 277Q282 277 217 313Z" />
<glyph unicode="&#x2039;" glyph-name="guilsinglleft" horiz-adv-x="613" d="M312 135L89 565L312 996H565L342 565L565 135H312Z" />
<glyph unicode="&#x203a;" glyph-name="guilsinglright" horiz-adv-x="613" d="M49 135L272 565L49 996H302L525 565L302 135H49Z" />
</font>
</defs>
</svg>
