<?xml version="1.0" standalone="no"?>
<!DOCTYPE svg PUBLIC "-//W3C//DTD SVG 1.1//EN" "http://www.w3.org/Graphics/SVG/1.1/DTD/svg11.dtd">
<svg xmlns="http://www.w3.org/2000/svg">
<defs >
<font id="Saira" horiz-adv-x="569" ><font-face
    font-family="Saira Light"
    units-per-em="1000"
    panose-1="0 0 4 0 0 0 0 0 0 0"
    ascent="1135"
    descent="-439"
    alphabetic="0" />
<glyph unicode=" " glyph-name="space" horiz-adv-x="230" />
<glyph unicode="!" glyph-name="exclam" horiz-adv-x="226" d="M86 340Q80 514 80 570V688H150V570Q150 514 144 340L139 189H91L86 340ZM78 0V86H152V0H78Z" />
<glyph unicode="&quot;" glyph-name="quotedbl" horiz-adv-x="314" d="M75 447L65 607V688H126V607L116 447H75ZM197 447L187 607V688H249V607L239 447H197Z" />
<glyph unicode="#" glyph-name="numbersign" horiz-adv-x="809" d="M361 0L406 195H221L176 0H127L171 195H71V246H183L227 434H108V485H238L285 688H335L288 485H473L520 688H570L522 485H627V434H511L467 246H591V195H455L411 0H361ZM461 434H276L232 246H417L461 434Z" />
<glyph unicode="$" glyph-name="dollar" horiz-adv-x="537" d="M463 162T447 130T396 85T296 69V-8H246V68Q146 72 90 80V137Q167 127 246 126V319L187 325Q142 330 118 345T84 389T74 465Q74 525 93 557T149 603T246 618V696H296V618Q376 616 435 605V549Q372
558 296 561V375L359 369Q401 364 422 351T453 309T463 221Q463 162 447 130ZM246 380V561Q207 560 184 554T148 528T135 470Q135 434 140 417T160 394T204 384L246 380ZM341 128T363 137T393 165T401 220Q401 260 395 277T377 301T334 310L296 314V126Q341 128
363 137Z" />
<glyph unicode="%" glyph-name="percent" horiz-adv-x="812" d="M131 311T103 326T66 378T58 503Q58 590 66 627T102 680T197 696Q262 696 290 681T327 628T335 503Q335 416 327 379T291 326T197 311Q131 311 103 326ZM154 0L603 688H658L209 0H154ZM243 356T259
363T281 398T287 503Q287 583 283 610T262 644T197 651Q151 651 134 644T112 608T106 503Q106 427 111 399T134 363T197 356Q243 356 259 363ZM550 -8T522 7T486 59T477 184Q477 270 485 308T522 361T616 377Q682 377 710 362T746 309T754 184Q754 97 746 60T710
7T616 -8Q550 -8 522 7ZM662 37T678 44T700 79T706 184Q706 264 702 291T681 325T616 332Q570 332 554 325T532 290T526 184Q526 107 531 79T553 44T616 37Q662 37 678 44Z" />
<glyph unicode="&amp;" glyph-name="ampersand" horiz-adv-x="734" d="M693 377V320H575V10Q550 5 487 -1T363 -8Q240 -8 177 14T93 77T72 184Q72 239 86 271T126 321T197 349V353Q135 368 107 405T78 515Q78 574 100 613T185 674T362 696Q408 696 467 691T571
678V624Q527 631 474 635T385 639Q278 639 226 626T157 586T140 506Q140 469 149 442T193 396T294 377H398V320H294Q224 320 190 305T145 261T134 183Q134 126 158 97T229 58T363 48Q449 48 514 56V377H693Z" />
<glyph unicode="&apos;" glyph-name="quotesingle" horiz-adv-x="191" d="M75 447L65 607V688H126V607L116 447H75Z" />
<glyph unicode="(" glyph-name="parenleft" horiz-adv-x="295" d="M166 -77T138 -28T97 94T84 297Q84 427 97 500T138 622T226 743H275Q221 672 197 629T158 509T144 297Q144 161 158 85T196 -35T275 -150H226Q166 -77 138 -28Z" />
<glyph unicode=")" glyph-name="parenright" horiz-adv-x="295" d="M74 -79T98 -36T137 84T151 297Q151 432 137 508T99 628T20 743H69Q129 672 157 623T198 500T211 297Q211 167 198 94T157 -28T69 -150H20Q74 -79 98 -36Z" />
<glyph unicode="*" glyph-name="asterisk" horiz-adv-x="440" d="M238 471L244 320H196L203 471L73 389L49 433L185 503L49 575L73 618L203 535L196 688H244L237 536L367 618L391 575L256 503L391 433L367 389L238 471Z" />
<glyph unicode="+" glyph-name="plus" horiz-adv-x="540" d="M243 52V226H70V280H243V453H295V280H470V226H295V52H243Z" />
<glyph unicode="," glyph-name="comma" horiz-adv-x="202" d="M74 -81T84 -69T94 -17V0H64V86H138V7Q138 -44 131 -68T103 -103T39 -113V-81Q74 -81 84 -69Z" />
<glyph unicode="-" glyph-name="hyphen" horiz-adv-x="359" d="M62 255V316H297V255H62Z" />
<glyph unicode="." glyph-name="period" horiz-adv-x="202" d="M64 0V86H138V0H64Z" />
<glyph unicode="/" glyph-name="slash" horiz-adv-x="345" d="M-2 -55L288 743H347L56 -55H-2Z" />
<glyph unicode="0" glyph-name="zero" horiz-adv-x="673" d="M209 -8T159 17T95 108T82 344Q82 513 95 579T158 671T336 696Q463 696 513 671T577 580T590 344Q590 175 577 109T514 17T336 -8Q209 -8 159 17ZM437 52T472 66T516 135T526 344Q526 499 517 553T472
621T336 636Q235 636 201 622T156 553T146 344Q146 189 156 135T200 67T336 52Q437 52 472 66Z" />
<glyph unicode="1" glyph-name="one" horiz-adv-x="371" d="M188 0V608L43 535V599L205 688H252V0H188Z" />
<glyph unicode="2" glyph-name="two" horiz-adv-x="608" d="M137 60H534V0H74V77Q74 163 80 200T109 261T190 310L382 392Q419 408 437 423T463 459T470 516Q470 568 455 593T403 627T291 636Q253 636 195 633T88 624V680Q129 687 191 691T310 696Q385 696 431
686T505 638T534 525Q534 467 522 433T484 377T409 335L191 242Q154 227 145 201Q140 185 139 166T137 114V60Z" />
<glyph unicode="3" glyph-name="three" horiz-adv-x="599" d="M217 -8T160 -4T62 8V64Q179 52 258 52Q329 52 370 61T433 98T455 183Q455 257 423 288T314 319H181V379H314Q373 379 410 406T447 506Q447 563 427 590T366 627T248 636Q208 636 157 633T66 624V680Q107
687 163 691T263 696Q358 696 412 677T489 619T512 515Q512 442 483 404T395 354V350Q456 339 487 301T519 184Q519 118 499 77T423 14T262 -8Q217 -8 160 -4Z" />
<glyph unicode="4" glyph-name="four" horiz-adv-x="640" d="M421 0V166H50V220L322 688H394L122 226H422L432 491H486V226H590V166H486V0H421Z" />
<glyph unicode="5" glyph-name="five" horiz-adv-x="617" d="M205 52T282 52Q364 52 406 65T463 110T479 201Q479 266 463 295T403 334T266 344Q210 344 93 330V688H492V628H154V393Q218 404 313 404Q411 404 460 383T526 322T543 210Q543 126 522 80T446 13T286
-8Q241 -8 185 -4T85 8V64Q205 52 282 52Z" />
<glyph unicode="6" glyph-name="six" horiz-adv-x="652" d="M271 -8T225 -1T149 30T102 100Q91 131 87 187T82 336Q82 424 87 481T105 577Q121 624 152 650T231 686T355 696Q433 696 554 680V623Q455 636 368 636Q266 636 221 616T162 539T147 355H153Q172 378
217 392T355 406Q450 406 498 393T569 339T592 215Q592 123 574 77T504 12T348 -8Q271 -8 225 -1ZM423 52T460 61T513 100T529 196Q529 268 515 298T464 337T340 346Q254 346 214 335T162 299T150 227Q150 148 166 112T221 64T340 52Q423 52 460 61Z" />
<glyph unicode="7" glyph-name="seven" horiz-adv-x="561" d="M148 0L436 628H43V688H508V634L220 0H148Z" />
<glyph unicode="8" glyph-name="eight" horiz-adv-x="682" d="M232 -8T176 13T99 74T79 184Q79 242 92 274T132 323T204 349V353Q141 364 113 402T85 515Q85 580 107 619T185 677T341 696Q441 696 496 677T574 619T597 515Q597 441 569 403T478 353V349Q523 339
549 323T589 275T603 184Q603 116 583 75T506 13T341 -8Q232 -8 176 13ZM420 378T460 389T516 427T532 506Q532 560 517 587T462 625T341 636Q260 636 220 625T165 587T150 506Q150 453 166 427T222 389T341 378Q420 378 460 389ZM421 52T462 62T520 99T538 183Q538
243 522 271T466 308T341 318Q256 318 216 309T160 271T144 183Q144 127 161 100T220 62T341 52Q421 52 462 62Z" />
<glyph unicode="9" glyph-name="nine" horiz-adv-x="652" d="M260 -8T204 -4T98 8V65Q195 52 284 52Q387 52 431 72T490 149T505 333H499Q480 310 435 296T297 282Q203 282 154 295T83 349T60 473Q60 565 79 611T149 676T305 696Q383 696 429 689T506 658T551
588Q562 552 566 498T570 352Q570 260 565 201T544 101Q521 38 465 15T298 -8Q260 -8 204 -4ZM398 342T438 353T490 389T502 461Q502 540 486 576T432 624T313 636Q230 636 192 627T139 588T124 492Q124 420 138 390T189 351T313 342Q398 342 438 353Z" />
<glyph unicode=":" glyph-name="colon" horiz-adv-x="202" d="M64 424V510H138V424H64ZM64 0V86H138V0H64Z" />
<glyph unicode=";" glyph-name="semicolon" horiz-adv-x="202" d="M64 424V510H138V424H64ZM74 -81T84 -69T94 -17V0H64V86H138V7Q138 -44 131 -68T103 -103T39 -113V-81Q74 -81 84 -69Z" />
<glyph unicode="&lt;" glyph-name="less" horiz-adv-x="541" d="M471 45L71 218V288L471 461V403L118 253L471 103V45Z" />
<glyph unicode="=" glyph-name="equal" horiz-adv-x="540" d="M70 326V380H470V326H70ZM70 125V180H470V125H70Z" />
<glyph unicode="&gt;" glyph-name="greater" horiz-adv-x="541" d="M70 45V103L422 253L70 403V461L470 288V218L70 45Z" />
<glyph unicode="?" glyph-name="question" horiz-adv-x="500" d="M158 271Q158 308 165 328T189 358T237 379L269 390Q311 405 329 418T354 453T361 521Q361 573 347 597T301 628T205 636Q137 636 39 624V681Q80 688 132 692T223 696Q297 696 340 681T404 629T425
527Q425 454 409 415T338 357L309 347Q260 329 244 321T222 300T217 259V189H158V271ZM151 0V86H225V0H151Z" />
<glyph unicode="@" glyph-name="at" horiz-adv-x="927" d="M272 -108T198 -80T105 22T86 294Q86 491 104 565T197 668T463 696Q654 696 728 669T821 567T840 294Q840 190 828 144T792 87T713 75H593L590 140H585Q568 96 529 82T433 68Q352 68 317 95T282 195Q282
245 293 272T333 312T413 324Q474 324 586 320V350Q586 406 577 429T540 459T448 466Q417 466 375 464T312 457V507Q380 518 468 518Q544 518 581 504T630 455T643 353V113H725Q756 113 770 122T791 169T799 294Q799 442 791 507T750 605T644 647Q581 657 462 657Q359
657 290 649Q212 640 179 609T136 511T127 294Q127 137 137 71T186 -25T317 -64Q365 -69 463 -69Q593 -69 643 -65V-106Q606 -108 463 -108Q272 -108 198 -80ZM502 117T531 128T573 168T586 249V279H427Q388 279 371 274T346 251T339 198Q339 163 347 147T378 124T447
117Q502 117 531 128Z" />
<glyph unicode="A" glyph-name="A" horiz-adv-x="683" d="M582 0L503 200H178L99 0H33L303 688H380L650 0H582ZM343 613H338L199 260H482L343 613Z" />
<glyph unicode="B" glyph-name="B" horiz-adv-x="683" d="M106 688H420Q517 688 557 644T598 516Q598 448 570 407T481 354V350Q554 337 580 294T606 181Q606 98 566 49T414 0H106V688ZM534 379T534 503Q534 570 506 599T401 628H170V379H401Q534 379 534 503ZM481
60T511 90T542 189Q542 258 510 288T405 319H170V60H405Q481 60 511 90Z" />
<glyph unicode="C" glyph-name="C" horiz-adv-x="576" d="M484 -1T439 -4T355 -8Q232 -8 177 17T102 113T82 344Q82 502 101 573T176 670T355 696Q394 696 437 692T511 682V626Q439 636 371 636Q261 636 218 619T160 544T146 344Q146 201 160 144T217 70T371 52Q450
52 515 62V4Q484 -1 439 -4Z" />
<glyph unicode="D" glyph-name="D" horiz-adv-x="690" d="M106 688H319Q460 688 517 664T591 574T607 344Q607 180 591 114T518 24T319 0H106V688ZM302 60Q429 60 473 73T530 140T543 344Q543 493 530 547T472 614T302 628H170V60H302Z" />
<glyph unicode="E" glyph-name="E" horiz-adv-x="601" d="M106 0V688H544V628H170V378H497V318H170V60H544V0H106Z" />
<glyph unicode="F" glyph-name="F" horiz-adv-x="563" d="M106 0V688H524V628H170V363H487V303H170V0H106Z" />
<glyph unicode="G" glyph-name="G" horiz-adv-x="679" d="M351 303V362H585V11Q536 3 476 -2T370 -8Q244 -8 185 18T104 116T82 344Q82 499 104 572T186 670T370 696Q420 696 480 691T582 677V620Q474 636 406 636Q283 636 235 622T166 549T146 344Q146 209 161
151T221 72T370 51Q402 51 448 54T523 61V303H351Z" />
<glyph unicode="H" glyph-name="H" horiz-adv-x="734" d="M563 0V317H170V0H106V688H170V378H563V688H627V0H563Z" />
<glyph unicode="I" glyph-name="I" horiz-adv-x="277" d="M106 0V688H170V0H106Z" />
<glyph unicode="J" glyph-name="J" horiz-adv-x="341" d="M113 60T139 70T172 114T179 251V688H243V275Q243 132 232 81T183 16T36 0V58Q113 60 139 70Z" />
<glyph unicode="K" glyph-name="K" horiz-adv-x="668" d="M560 0L316 319H170V0H106V688H170V379H316L560 688H632L368 352L635 0H560Z" />
<glyph unicode="L" glyph-name="L" horiz-adv-x="537" d="M106 0V688H170V62H504V0H106Z" />
<glyph unicode="M" glyph-name="M" horiz-adv-x="909" d="M740 0V574H736L478 0H429L171 574H167V0H106V688H192L452 110H457L718 688H803V0H740Z" />
<glyph unicode="N" glyph-name="N" horiz-adv-x="734" d="M566 0L172 567H168V0H106V688H171L562 127H566V688H627V0H566Z" />
<glyph unicode="O" glyph-name="O" horiz-adv-x="720" d="M225 -8T169 17T98 110T82 344Q82 510 97 577T169 670T360 696Q495 696 551 671T622 578T638 344Q638 178 623 111T551 18T360 -8Q225 -8 169 17ZM470 52T509 66T561 136T574 344Q574 496 562 551T510
621T360 636Q250 636 211 622T159 552T146 344Q146 192 158 137T210 67T360 52Q470 52 509 66Z" />
<glyph unicode="P" glyph-name="P" horiz-adv-x="653" d="M106 688H402Q486 688 527 661T581 590T594 474Q594 406 582 361T527 289T401 261H170V0H106V688ZM384 321Q450 321 481 337T521 385T530 474Q530 534 522 564T483 611T385 628H170V321H384Z" />
<glyph unicode="Q" glyph-name="Q" horiz-adv-x="720" d="M653 -113V-115H579L494 0Q446 -8 360 -8Q225 -8 169 17T98 110T82 344Q82 510 97 577T169 670T360 696Q495 696 551 671T622 578T638 344Q638 232 633 173T610 76T554 19L653 -113ZM429 52T454 54L333
218H404L517 68Q542 81 554 110T570 192T574 344Q574 496 562 551T510 621T360 636Q250 636 211 622T159 552T146 344Q146 192 158 137T210 67T360 52Q429 52 454 54Z" />
<glyph unicode="R" glyph-name="R" horiz-adv-x="682" d="M542 0L431 281H403H170V0H106V688H418Q499 688 539 662T591 593T603 484Q603 410 582 360T493 292L611 0H542ZM456 341T488 357T529 402T539 484Q539 538 531 567T493 612T400 628H170V341H390Q456 341 488 357Z" />
<glyph unicode="S" glyph-name="S" horiz-adv-x="631" d="M273 -8T207 -5T93 5V65Q145 60 208 56T312 52Q367 52 399 56T456 75Q479 88 486 115T494 188Q494 244 489 266T462 297T386 313L211 332Q149 338 120 360T82 415T73 508Q73 587 99 627T177 682T315 696Q373
696 431 692T524 681V624Q484 629 428 632T325 636Q266 636 230 630T173 611Q151 597 144 573T137 508Q137 463 143 442T168 411T228 396L398 378Q466 371 499 357T547 303Q558 270 558 193Q558 103 531 60T458 4T330 -8Q273 -8 207 -5Z" />
<glyph unicode="T" glyph-name="T" horiz-adv-x="581" d="M258 0V626H34V688H547V626H323V0H258Z" />
<glyph unicode="U" glyph-name="U" horiz-adv-x="712" d="M614 688V298Q614 165 598 104T528 17T356 -8Q237 -8 184 17T114 104T97 298V688H161V266Q161 169 172 128T223 69T356 52Q449 52 488 69T539 127T550 266V688H614Z" />
<glyph unicode="V" glyph-name="V" horiz-adv-x="662" d="M293 0L34 688H101L329 84H334L563 688H628L369 0H293Z" />
<glyph unicode="W" glyph-name="W" horiz-adv-x="985" d="M677 0L495 580H491L309 0H236L41 688H108L273 95H279L460 688H528L711 95H716L879 688H944L750 0H677Z" />
<glyph unicode="X" glyph-name="X" horiz-adv-x="674" d="M563 0L340 289H332L108 0H34L298 346L38 688H115L334 404H342L562 688H637L376 347L640 0H563Z" />
<glyph unicode="Y" glyph-name="Y" horiz-adv-x="604" d="M269 0V269L15 688H86L299 338H306L520 688H589L334 269V0H269Z" />
<glyph unicode="Z" glyph-name="Z" horiz-adv-x="603" d="M56 0V57L463 628H67V688H544V632L137 60H551V0H56Z" />
<glyph unicode="[" glyph-name="bracketleft" horiz-adv-x="324" d="M106 -150V743H283V693L164 689V-96L283 -100V-150H106Z" />
<glyph unicode="\" glyph-name="backslash" horiz-adv-x="345" d="M289 -55L-2 743H57L347 -55H289Z" />
<glyph unicode="]" glyph-name="bracketright" horiz-adv-x="324" d="M41 -150V-100L160 -96V689L41 693V743H218V-150H41Z" />
<glyph unicode="^" glyph-name="asciicircum" horiz-adv-x="462" d="M350 443L231 705L112 443H59L198 749H264L403 443H350Z" />
<glyph unicode="_" glyph-name="underscore" horiz-adv-x="350" d="M0 -167V-112H350V-167H0Z" />
<glyph unicode="`" glyph-name="grave" horiz-adv-x="213" d="M147 603L20 738V743H90L193 608V603H147Z" />
<glyph unicode="a" glyph-name="a" horiz-adv-x="571" d="M172 -8T135 4T78 49T59 139Q59 198 72 230T119 276T213 290Q242 290 417 285V322Q417 389 405 417T361 453T252 462Q219 462 170 459T94 450V505Q169 518 275 518Q363 518 405 501T463 444T478 324V0H425L422
76H417Q397 25 349 9T234 -8Q172 -8 135 4ZM308 47T343 57T395 98Q407 122 412 148T417 209V240H229Q182 240 160 234T129 207T120 144Q120 103 130 83T168 55T251 47Q308 47 343 57Z" />
<glyph unicode="b" glyph-name="b" horiz-adv-x="592" d="M263 -8T219 9T154 76H149L146 0H92V743H153V442H158Q177 483 219 500T331 518Q411 518 451 496T507 419T523 255Q523 146 507 91T451 14T329 -8Q263 -8 219 9ZM379 50T410 64T451 119T462 255Q462 350
452 391T410 446T307 460Q251 460 218 445T170 398Q160 372 157 340T153 255Q153 202 156 170T170 113Q183 80 216 65T307 50Q379 50 410 64Z" />
<glyph unicode="c" glyph-name="c" horiz-adv-x="459" d="M385 -1T347 -4T274 -8Q181 -8 138 18T82 97T69 255Q69 359 84 414T143 493T270 518Q304 518 341 515T404 506V451Q342 462 284 462Q215 462 184 446T141 387T130 256Q130 163 141 121T184 64T287 48Q347
48 409 59V5Q385 -1 347 -4Z" />
<glyph unicode="d" glyph-name="d" horiz-adv-x="592" d="M182 -8T142 14T85 91T69 255Q69 363 85 418T141 495T262 518Q332 518 373 501T434 442H439V743H500V0H447L443 76H438Q418 26 374 9T263 -8Q182 -8 142 14ZM401 50T424 114Q434 142 436 174T439 264Q439
309 437 337T426 388Q412 426 378 443T282 460Q212 460 182 446T141 391T130 255Q130 160 141 119T183 64T285 50Q401 50 424 114Z" />
<glyph unicode="e" glyph-name="e" horiz-adv-x="560" d="M491 233H130Q130 150 141 114T187 63T305 48Q343 48 390 51T471 60V6Q441 -1 392 -4T293 -8Q193 -8 146 15T84 91T69 254Q69 364 82 416T141 493T292 518Q385 518 427 494T480 418T491 255V233ZM215 462T183
449T141 400T130 282H432V296Q432 371 420 405T378 451T289 462Q215 462 183 449Z" />
<glyph unicode="f" glyph-name="f" horiz-adv-x="360" d="M133 454H28V510H133V603Q133 666 152 696T211 734T328 743V691Q271 691 244 685T205 663T194 614V510H328V454H194V0H133V454Z" />
<glyph unicode="g" glyph-name="g" horiz-adv-x="592" d="M177 -206T93 -198V-143Q184 -150 264 -150Q344 -150 380 -134T427 -76T439 52V70H434Q416 29 374 12T263 -6Q182 -6 142 16T85 92T69 255Q69 363 85 418T141 496T263 518Q329 518 373 501T438 433H443L447
510H500V68Q500 -42 485 -98T422 -180T276 -206Q177 -206 93 -198ZM343 52T376 67T423 116Q433 140 436 171T439 255Q439 307 437 337T425 390Q411 427 377 443T285 460Q214 460 183 446T141 391T130 255Q130 161 141 121T183 66T285 52Q343 52 376 67Z" />
<glyph unicode="h" glyph-name="h" horiz-adv-x="601" d="M447 299Q447 373 437 405T399 449T307 460Q236 460 203 437T161 374T153 264V0H92V743H153V440H158Q173 475 211 496T328 518Q405 518 443 498T495 437T508 320V0H447V299Z" />
<glyph unicode="i" glyph-name="i" horiz-adv-x="246" d="M89 664V743H157V664H89ZM92 0V510H153V0H92Z" />
<glyph unicode="j" glyph-name="j" horiz-adv-x="246" d="M89 664V743H157V664H89ZM-6 -148Q39 -148 59 -143T86 -127T92 -92V510H153V-77Q153 -134 138 -159T91 -192T-6 -200V-148Z" />
<glyph unicode="k" glyph-name="k" horiz-adv-x="529" d="M421 0L227 230H153V0H92V743H153V287H227L421 510H492L276 263L495 0H421Z" />
<glyph unicode="l" glyph-name="l" horiz-adv-x="246" d="M92 0V743H153V0H92Z" />
<glyph unicode="m" glyph-name="m" horiz-adv-x="886" d="M733 299Q733 373 724 405T691 449T610 460Q546 460 517 438T481 378T474 264V0H413V299Q413 373 404 405T371 449T290 460Q227 460 198 437T161 374T153 264V0H92V510H146L149 433H154Q168 473 204 495T312
518Q382 518 416 498T464 433H470Q484 473 521 495T631 518Q700 518 735 498T782 437T794 320V0H733V299Z" />
<glyph unicode="n" glyph-name="n" horiz-adv-x="601" d="M447 299Q447 373 437 405T399 449T307 460Q236 460 203 437T161 374T153 264V0H92V510H146L149 433H154Q170 473 209 495T329 518Q405 518 443 498T495 437T508 320V0H447V299Z" />
<glyph unicode="o" glyph-name="o" horiz-adv-x="578" d="M184 -8T139 13T82 85T69 255Q69 373 81 424T139 497T289 518Q394 518 439 497T496 425T509 255Q509 137 497 86T439 13T289 -8Q184 -8 139 13ZM370 48T401 62T440 115T447 255Q447 357 440 394T402 447T289
462Q208 462 177 447T138 395T130 255Q130 153 137 115T176 63T289 48Q370 48 401 62Z" />
<glyph unicode="p" glyph-name="p" horiz-adv-x="592" d="M92 510H146L149 433H154Q174 483 218 500T329 518Q410 518 450 496T507 419T523 255Q523 147 508 92T452 15T331 -8Q261 -8 219 9T158 68H153V-200H92V510ZM379 50T410 64T451 119T462 255Q462 350 452
391T410 446T307 460Q248 460 215 444T168 392Q158 367 156 337T153 255Q153 207 155 176T165 124Q180 85 214 68T307 50Q379 50 410 64Z" />
<glyph unicode="q" glyph-name="q" horiz-adv-x="593" d="M439 68H434Q415 27 374 10T262 -8Q182 -8 142 14T85 91T69 255Q69 363 85 418T142 495T263 518Q329 518 373 501T438 433H443L447 510H500V-200H439V68ZM344 50T378 67T426 121Q434 144 436 174T439 255Q439
308 436 339T422 399Q399 460 285 460Q214 460 183 446T141 391T130 255Q130 161 141 120T183 64T285 50Q344 50 378 67Z" />
<glyph unicode="r" glyph-name="r" horiz-adv-x="355" d="M92 510H145L149 408H154Q171 470 214 494T327 518V453Q257 453 220 430T168 362T153 241V0H92V510Z" />
<glyph unicode="s" glyph-name="s" horiz-adv-x="499" d="M214 -8T163 -5T75 4V59Q134 53 172 51T258 48Q312 48 338 56T372 83T380 138Q380 175 374 192T355 214T310 223L171 237Q126 242 102 256T69 297T59 370Q59 435 81 467T145 508T256 518Q292 518 335 514T411
505V450Q338 462 248 462Q200 462 175 457T134 434T119 375Q119 341 125 326T145 304T189 295L329 280Q374 275 396 264T429 224T439 139Q439 78 420 47T362 4T255 -8Q214 -8 163 -5Z" />
<glyph unicode="t" glyph-name="t" horiz-adv-x="345" d="M133 0V454H28V510H133V658H194V510H317V454H194V0H133Z" />
<glyph unicode="u" glyph-name="u" horiz-adv-x="601" d="M452 77H446Q431 37 392 15T272 -8Q196 -8 158 12T106 73T92 190V510H153V211Q153 137 163 105T202 61T294 50Q365 50 398 73T439 135T447 246V510H508V0H455L452 77Z" />
<glyph unicode="v" glyph-name="v" horiz-adv-x="526" d="M227 0L30 510H95L260 72H267L432 510H495L299 0H227Z" />
<glyph unicode="w" glyph-name="w" horiz-adv-x="810" d="M538 0L408 401H401L272 0H204L35 510H99L236 84H243L376 510H436L570 84H576L713 510H775L606 0H538Z" />
<glyph unicode="x" glyph-name="x" horiz-adv-x="542" d="M435 0L272 209H267L104 0H34L233 259L41 510H113L269 310H274L430 510H500L309 260L507 0H435Z" />
<glyph unicode="y" glyph-name="y" horiz-adv-x="601" d="M179 -206T112 -198V-144Q203 -150 271 -150Q351 -150 388 -132T436 -75T447 42V71H442Q428 36 390 15T272 -6Q196 -6 158 14T106 75T92 191V510H153V212Q153 138 163 106T202 63T294 52Q365 52 398 75T439
136T447 247V510H508V64Q508 -43 492 -98T428 -180T283 -206Q179 -206 112 -198Z" />
<glyph unicode="z" glyph-name="z" horiz-adv-x="502" d="M53 0V51L367 454H65V510H447V459L134 56H449V0H53Z" />
<glyph unicode="{" glyph-name="braceleft" horiz-adv-x="314" d="M219 -139T194 -112T151 -47T133 34V150Q133 203 109 240T28 277V316Q85 316 109 353T133 443V558Q133 601 150 639T193 705T242 743H294Q257 721 224 671T191 568V447Q191 322 99 299V294Q191
271 191 146V25Q191 -28 224 -78T294 -150H242Q219 -139 194 -112Z" />
<glyph unicode="|" glyph-name="bar" horiz-adv-x="272" d="M107 -161V743H164V-161H107Z" />
<glyph unicode="}" glyph-name="braceright" horiz-adv-x="314" d="M57 -128T89 -78T122 25V146Q122 271 214 294V299Q122 322 122 447V568Q122 621 90 671T20 743H71Q94 732 119 705T162 640T180 558V443Q180 390 204 353T285 316V277Q228 277 204 240T180 150V34Q180
-9 163 -47T120 -112T71 -150H20Q57 -128 89 -78Z" />
<glyph unicode="~" glyph-name="asciitilde" horiz-adv-x="497" d="M425 301T412 278T356 254Q330 254 305 260T236 280Q230 282 210 288T173 297T143 300Q122 300 116 288T110 243H71Q71 303 84 326T140 350Q166 350 191 344T260 325Q293 314 313 309T354 304Q375
304 380 315T386 361H425Q425 301 412 278Z" />
<glyph unicode="&#xa0;" glyph-name="uni00A0" horiz-adv-x="230" />
<glyph unicode="&#xa1;" glyph-name="exclamdown" horiz-adv-x="223" d="M74 424V510H149V424H74ZM77 -60Q77 -4 83 170L88 321H135L140 170Q146 -4 146 -60V-178H77V-60Z" />
<glyph unicode="&#xa2;" glyph-name="cent" horiz-adv-x="467" d="M414 81Q375 71 300 68V-8H250V69Q174 72 135 99T83 183T69 342Q69 446 85 504T141 589T250 619V696H300V618Q352 617 409 606V549Q358 560 300 560V126Q368 128 414 139V81ZM134 256T143 213T176
151T250 128V559Q200 555 176 536T143 474T134 343Q134 256 143 213Z" />
<glyph unicode="&#xa3;" glyph-name="sterling" horiz-adv-x="586" d="M537 60V0H56V60H130V327H56V386H131Q131 516 150 580T221 670T381 696Q419 696 460 692T525 682V626Q447 636 402 636Q342 636 308 632T251 613Q217 593 206 539T195 386H450V327H195V60H537Z" />
<glyph unicode="&#xa4;" glyph-name="currency" horiz-adv-x="737" d="M69 26L176 131Q159 160 154 207T148 344Q148 432 153 479T175 556L69 660L106 699L213 593Q237 607 274 613T368 619Q426 619 463 613T523 592L631 699L667 661L561 557Q578 527 583 480T588
344Q588 256 583 208T561 131L668 26L631 -13L522 95Q498 81 462 75T368 69Q311 69 274 75T213 95L105 -12L69 26ZM449 125T480 140T519 196T526 344Q526 451 519 491T481 547T368 563Q287 563 256 548T217 492T209 344Q209 236 216 196T255 141T368 125Q449 125
480 140Z" />
<glyph unicode="&#xa5;" glyph-name="yen" horiz-adv-x="621" d="M585 688L448 448H550V400H421L361 295H550V247H342V0H278V247H70V295H258L198 400H70V448H171L35 688H105L237 448H384L518 688H585ZM314 322L357 400H264L307 322H314Z" />
<glyph unicode="&#xa6;" glyph-name="brokenbar" horiz-adv-x="272" d="M107 390V743H164V390H107ZM107 -161V192H164V-161H107Z" />
<glyph unicode="&#xa7;" glyph-name="section" horiz-adv-x="697" d="M277 -171T230 -167T155 -159V-103Q219 -111 305 -111Q374 -111 409 -106T462 -83T481 -24Q481 12 476 30T457 59T413 77L225 129Q160 146 127 162T79 206T64 281Q64 353 85 399T171 449Q159
467 156 489T153 547Q153 607 177 639T249 684T370 696Q461 696 542 684V628Q517 631 473 633T391 636Q322 636 287 631T234 608T215 549Q215 512 221 494T245 465T301 444L481 393Q541 377 572 361T618 318T633 243Q633 172 611 126T525 76Q537 57 540 34T544
-23Q544 -82 519 -114T448 -159T326 -171Q277 -171 230 -167ZM572 120T572 227Q572 274 561 292T515 320L262 389L234 396Q207 404 196 404Q160 404 143 378T125 297Q125 264 130 247T149 219T191 201L437 134Q444 132 466 126T501 120Q572 120 572 227Z" />
<glyph unicode="&#xa8;" glyph-name="dieresis" horiz-adv-x="287" d="M20 657V731H82V657H20ZM205 657V731H267V657H205Z" />
<glyph unicode="&#xa9;" glyph-name="copyright" horiz-adv-x="728" d="M224 -8T170 16T101 105T87 344Q87 516 101 582T169 672T364 696Q504 696 558 672T627 582T641 344Q641 171 627 106T559 16T364 -8Q224 -8 170 16ZM489 27T535 44T593 121T605 344Q605 508
593 566T536 642T364 660Q239 660 194 643T136 567T124 344Q124 180 136 121T193 45T364 27Q489 27 535 44ZM320 154T290 167T250 219T239 343Q239 428 249 466T290 519T387 533Q444 533 474 526V486Q437 491 395 491Q340 491 319 482T290 445T283 343Q283 270
290 242T318 204T395 195Q441 195 476 200V159Q439 154 387 154Q320 154 290 167Z" />
<glyph unicode="&#xaa;" glyph-name="ordfeminine" horiz-adv-x="405" d="M101 315T72 337T43 423Q43 466 52 489T85 522T155 532L297 529V553Q297 599 289 618T259 643T181 649Q157 649 123 647T67 641V687Q125 696 198 696Q263 696 294 684T337 642T348 554V319H303L298
362H294Q276 333 245 324T169 315Q101 315 72 337ZM223 358T249 365T285 395Q297 423 297 471V492H167Q135 492 120 487T98 468T91 426Q91 398 98 384T125 364T181 358Q223 358 249 365Z" />
<glyph unicode="&#xab;" glyph-name="guillemotleft" horiz-adv-x="465" d="M184 99L52 304L184 510H231L115 304L231 99H184ZM345 99L213 304L345 510H391L275 304L391 99H345Z" />
<glyph unicode="&#xac;" glyph-name="logicalnot" horiz-adv-x="539" d="M417 53V227H70V283H469V53H417Z" />
<glyph unicode="&#xad;" glyph-name="uni00AD" horiz-adv-x="359" d="M62 255V316H297V255H62Z" />
<glyph unicode="&#xae;" glyph-name="registered" horiz-adv-x="728" d="M504 696T558 672T627 582T641 344Q641 171 627 106T559 16T364 -8Q224 -8 170 16T101 105T87 344Q87 516 101 582T169 672T364 696Q504 696 558 672ZM489 27T535 44T593 121T605 344Q605
508 593 566T536 642T364 660Q239 660 194 643T136 567T124 344Q124 180 136 121T193 45T364 27Q489 27 535 44ZM504 378T493 351T449 313L512 157H463L405 306Q398 305 384 305H278V157H234V529H399Q445 529 468 514T497 476T504 417Q504 378 493 351ZM418 346T434
354T455 377T460 417Q460 443 456 457T437 479T391 487H278V346H384Q418 346 434 354Z" />
<glyph unicode="&#xaf;" glyph-name="overscore" horiz-adv-x="359" d="M62 681V742H297V681H62Z" />
<glyph unicode="&#xb0;" glyph-name="degree" horiz-adv-x="387" d="M134 397T108 409T74 451T66 546Q66 611 73 640T107 683T194 696Q254 696 280 683T314 641T321 546Q321 480 314 451T281 410T194 397Q134 397 108 409ZM235 438T251 446T270 474T274 546Q274
599 271 619T251 647T194 655Q153 655 137 647T117 619T113 546Q113 494 116 474T136 446T194 438Q235 438 251 446Z" />
<glyph unicode="&#xb1;" glyph-name="plusminus" horiz-adv-x="540" d="M243 184V357H70V411H243V585H295V411H470V357H295V184H243ZM70 -1V54H470V-1H70Z" />
<glyph unicode="&#xb2;" glyph-name="uni00B2" horiz-adv-x="357" d="M97 367H307V319H50V363Q50 408 53 428T67 461T104 486L215 532Q240 543 248 555T257 594Q257 618 250 629T225 644T172 648Q140 648 57 640V687Q127 696 182 696Q223 696 249 690T291 663T307
599Q307 553 292 531T237 491L128 445Q108 437 103 426T97 386V367Z" />
<glyph unicode="&#xb3;" glyph-name="uni00B3" horiz-adv-x="347" d="M97 310T40 320V364Q129 357 150 357Q201 357 223 369T245 418Q245 454 230 469T180 484H103V527H180Q241 527 241 588Q241 625 220 636T145 648Q103 648 42 641V686Q99 696 153 696Q231 696
261 672T291 593Q291 533 244 509V505Q296 483 296 418Q296 381 285 358T242 323T152 310Q97 310 40 320Z" />
<glyph unicode="&#xb4;" glyph-name="acute" horiz-adv-x="213" d="M20 603V608L123 743H193V738L66 603H20Z" />
<glyph unicode="&#xb5;" glyph-name="uni00B5" horiz-adv-x="601" d="M508 510V0H455L452 77H446Q431 37 392 15T272 -8Q193 -8 153 25V-190H92V510H153V211Q153 137 163 105T202 61T294 50Q365 50 398 73T439 135T447 246V510H508Z" />
<glyph unicode="&#xb6;" glyph-name="paragraph" horiz-adv-x="574" d="M313 222Q192 222 144 238T82 298T69 454Q69 566 82 610T144 671T313 688H364V-144H313V222ZM430 -144V688H480V-144H430Z" />
<glyph unicode="&#xb7;" glyph-name="middot" horiz-adv-x="202" d="M64 256V343H138V256H64Z" />
<glyph unicode="&#xb8;" glyph-name="cedilla" horiz-adv-x="145" d="M20 -190V-185L82 8H125V3L83 -190H20Z" />
<glyph unicode="&#xb9;" glyph-name="uni00B9" horiz-adv-x="231" d="M110 319V626L33 588V637L124 688H159V319H110Z" />
<glyph unicode="&#xba;" glyph-name="ordmasculine" horiz-adv-x="418" d="M133 314T100 330T57 383T48 504Q48 588 57 625T99 679T209 696Q285 696 318 680T361 626T370 504Q370 420 361 383T319 330T209 314Q133 314 100 330ZM265 360T287 370T314 406T319 504Q319
575 314 601T287 638T209 649Q153 649 132 639T105 602T100 504Q100 433 105 407T131 370T209 360Q265 360 287 370Z" />
<glyph unicode="&#xbb;" glyph-name="guillemotright" horiz-adv-x="465" d="M74 99L190 304L74 510H120L252 304L120 99H74ZM235 99L350 304L235 510H281L413 304L281 99H235Z" />
<glyph unicode="&#xbc;" glyph-name="onequarter" horiz-adv-x="693" d="M110 319V626L33 588V637L124 688H159V319H110ZM67 0L516 688H570L122 0H67ZM534 0V82H337V120L480 370H534L393 129H535L543 266H584V129H638V82H584V0H534Z" />
<glyph unicode="&#xbd;" glyph-name="onehalf" horiz-adv-x="780" d="M110 319V626L33 588V637L124 688H159V319H110ZM516 688H570L122 0H67L516 688ZM499 48H708V0H452V44Q452 90 454 110T468 142T506 167L617 214Q642 224 650 236T658 275Q658 299 651 310T627
326T574 330Q551 330 459 321V368Q518 377 583 377Q625 377 650 371T692 344T708 280Q708 234 693 212T638 173L527 126Q509 118 504 107T499 67V48Z" />
<glyph unicode="&#xbe;" glyph-name="threequarters" horiz-adv-x="794" d="M145 357T165 357Q216 357 238 369T260 418Q260 454 245 469T195 484H118V527H195Q256 527 256 588Q256 625 235 636T160 648Q119 648 56 641V686Q114 696 168 696Q245 696 275 672T306
593Q306 532 258 509V505Q311 484 311 418Q311 381 300 358T257 323T167 310Q112 310 54 320V364Q145 357 165 357ZM172 0L621 688H676L227 0H172ZM635 0V82H438V120L581 370H635L494 129H636L644 266H685V129H739V82H685V0H635Z" />
<glyph unicode="&#xbf;" glyph-name="questiondown" horiz-adv-x="432" d="M266 424V510H340V424H266ZM194 -186T151 -171T87 -119T66 -17Q66 32 72 63T97 117T154 153L205 171Q242 185 254 191T270 210T274 251V321H333V239Q333 202 326 182T303 152T256 131L227
121Q183 106 164 93T137 58T130 -11Q130 -63 144 -87T190 -118T286 -126Q353 -126 452 -114V-171Q411 -178 359 -182T267 -186Q194 -186 151 -171Z" />
<glyph unicode="&#xc0;" glyph-name="Agrave" horiz-adv-x="683" d="M582 0L503 200H178L99 0H33L303 688H380L650 0H582ZM343 613H338L199 260H482L343 613ZM334 750L207 885V890H277L380 755V750H334Z" />
<glyph unicode="&#xc1;" glyph-name="Aacute" horiz-adv-x="683" d="M582 0L503 200H178L99 0H33L303 688H380L650 0H582ZM343 613H338L199 260H482L343 613ZM302 750V755L405 890H475V885L348 750H302Z" />
<glyph unicode="&#xc2;" glyph-name="Acircumflex" horiz-adv-x="683" d="M582 0L503 200H178L99 0H33L303 688H380L650 0H582ZM343 613H338L199 260H482L343 613ZM203 750V756L307 890H375L479 756V750H436L341 851L246 750H203Z" />
<glyph unicode="&#xc3;" glyph-name="Atilde" horiz-adv-x="683" d="M582 0L503 200H178L99 0H33L303 688H380L650 0H582ZM343 613H338L199 260H482L343 613ZM518 808T505 785T449 761Q422 761 397 767T330 787Q323 789 303 795T266 804T236 807Q215 807 209 795T203
750H165Q165 791 170 813T189 846T233 857Q259 857 284 851T353 832Q386 821 406 816T447 811Q468 811 474 823T480 868H518Q518 808 505 785Z" />
<glyph unicode="&#xc4;" glyph-name="Adieresis" horiz-adv-x="683" d="M582 0L503 200H178L99 0H33L303 688H380L650 0H582ZM343 613H338L199 260H482L343 613ZM218 773V847H280V773H218ZM403 773V847H465V773H403Z" />
<glyph unicode="&#xc5;" glyph-name="Aring" horiz-adv-x="683" d="M650 0H582L503 200H178L99 0H33L293 668Q260 672 245 683T226 713T221 767Q221 809 228 829T260 858T341 868Q397 868 422 859T455 829T462 767Q462 731 458 713T439 683T389 668L650 0ZM265
739T268 727T288 710T341 704Q379 704 394 709T414 727T418 767Q418 795 414 807T395 824T341 830Q304 830 288 825T269 807T265 767Q265 739 268 727ZM199 260H482L343 613H338L199 260Z" />
<glyph unicode="&#xc6;" glyph-name="AE" horiz-adv-x="951" d="M545 0L487 200H162L62 0H-4L339 688H894V628H431L506 378H847V318H520L597 60H894V0H545ZM371 613H366L189 260H472L371 613Z" />
<glyph unicode="&#xc7;" glyph-name="Ccedilla" horiz-adv-x="576" d="M450 52T515 62V4Q484 -1 439 -4T355 -8Q323 -8 309 -7L269 -190H206V-185L264 -4Q186 4 148 36T96 137T82 344Q82 502 101 573T176 670T355 696Q394 696 437 692T511 682V626Q439 636 371
636Q261 636 218 619T160 544T146 344Q146 201 160 144T217 70T371 52Q450 52 515 62Z" />
<glyph unicode="&#xc8;" glyph-name="Egrave" horiz-adv-x="601" d="M106 0V688H544V628H170V378H497V318H170V60H544V0H106ZM320 750L193 885V890H263L366 755V750H320Z" />
<glyph unicode="&#xc9;" glyph-name="Eacute" horiz-adv-x="601" d="M106 0V688H544V628H170V378H497V318H170V60H544V0H106ZM293 750V755L396 890H466V885L339 750H293Z" />
<glyph unicode="&#xca;" glyph-name="Ecircumflex" horiz-adv-x="601" d="M106 0V688H544V628H170V378H497V318H170V60H544V0H106ZM190 750V756L294 890H362L466 756V750H423L328 851L233 750H190Z" />
<glyph unicode="&#xcb;" glyph-name="Edieresis" horiz-adv-x="601" d="M106 0V688H544V628H170V378H497V318H170V60H544V0H106ZM209 773V847H271V773H209ZM394 773V847H456V773H394Z" />
<glyph unicode="&#xcc;" glyph-name="Igrave" horiz-adv-x="277" d="M106 0V688H170V0H106ZM132 750L5 885V890H75L178 755V750H132Z" />
<glyph unicode="&#xcd;" glyph-name="Iacute" horiz-adv-x="277" d="M106 0V688H170V0H106ZM102 750V755L205 890H275V885L148 750H102Z" />
<glyph unicode="&#xce;" glyph-name="Icircumflex" horiz-adv-x="277" d="M106 0V688H170V0H106ZM0 750V756L104 890H172L276 756V750H233L138 851L43 750H0Z" />
<glyph unicode="&#xcf;" glyph-name="Idieresis" horiz-adv-x="277" d="M106 0V688H170V0H106ZM271 772V846H333V772H271ZM456 772V846H518V772H456Z" />
<glyph unicode="&#xd0;" glyph-name="Eth" horiz-adv-x="690" d="M106 320H37V378H106V688H319Q460 688 517 664T591 574T607 344Q607 180 591 114T518 24T319 0H106V320ZM429 60T473 73T530 140T543 344Q543 493 530 547T472 614T302 628H170V378H289V320H170V60H302Q429
60 473 73Z" />
<glyph unicode="&#xd1;" glyph-name="Ntilde" horiz-adv-x="734" d="M566 0L172 567H168V0H106V688H171L562 127H566V688H627V0H566ZM546 809T533 786T477 762Q450 762 425 768T358 788Q351 790 331 796T294 805T264 808Q243 808 237 796T231 751H193Q193 792
198 814T217 847T261 858Q287 858 312 852T381 833Q414 822 434 817T475 812Q496 812 502 824T508 869H546Q546 809 533 786Z" />
<glyph unicode="&#xd2;" glyph-name="Ograve" horiz-adv-x="720" d="M225 -8T169 17T98 110T82 344Q82 510 97 577T169 670T360 696Q495 696 551 671T622 578T638 344Q638 178 623 111T551 18T360 -8Q225 -8 169 17ZM470 52T509 66T561 136T574 344Q574 496 562
551T510 621T360 636Q250 636 211 622T159 552T146 344Q146 192 158 137T210 67T360 52Q470 52 509 66ZM342 750L215 885V890H285L388 755V750H342Z" />
<glyph unicode="&#xd3;" glyph-name="Oacute" horiz-adv-x="720" d="M225 -8T169 17T98 110T82 344Q82 510 97 577T169 670T360 696Q495 696 551 671T622 578T638 344Q638 178 623 111T551 18T360 -8Q225 -8 169 17ZM470 52T509 66T561 136T574 344Q574 496 562
551T510 621T360 636Q250 636 211 622T159 552T146 344Q146 192 158 137T210 67T360 52Q470 52 509 66ZM326 750V755L429 890H499V885L372 750H326Z" />
<glyph unicode="&#xd4;" glyph-name="Ocircumflex" horiz-adv-x="720" d="M225 -8T169 17T98 110T82 344Q82 510 97 577T169 670T360 696Q495 696 551 671T622 578T638 344Q638 178 623 111T551 18T360 -8Q225 -8 169 17ZM470 52T509 66T561 136T574 344Q574 496
562 551T510 621T360 636Q250 636 211 622T159 552T146 344Q146 192 158 137T210 67T360 52Q470 52 509 66ZM222 750V756L326 890H394L498 756V750H455L360 851L265 750H222Z" />
<glyph unicode="&#xd5;" glyph-name="Otilde" horiz-adv-x="720" d="M225 -8T169 17T98 110T82 344Q82 510 97 577T169 670T360 696Q495 696 551 671T622 578T638 344Q638 178 623 111T551 18T360 -8Q225 -8 169 17ZM470 52T509 66T561 136T574 344Q574 496 562
551T510 621T360 636Q250 636 211 622T159 552T146 344Q146 192 158 137T210 67T360 52Q470 52 509 66ZM537 808T524 785T468 761Q441 761 416 767T349 787Q342 789 322 795T285 804T255 807Q234 807 228 795T222 750H184Q184 791 189 813T208 846T252 857Q278
857 303 851T372 832Q405 821 425 816T466 811Q487 811 493 823T499 868H537Q537 808 524 785Z" />
<glyph unicode="&#xd6;" glyph-name="Odieresis" horiz-adv-x="720" d="M225 -8T169 17T98 110T82 344Q82 510 97 577T169 670T360 696Q495 696 551 671T622 578T638 344Q638 178 623 111T551 18T360 -8Q225 -8 169 17ZM470 52T509 66T561 136T574 344Q574 496
562 551T510 621T360 636Q250 636 211 622T159 552T146 344Q146 192 158 137T210 67T360 52Q470 52 509 66ZM237 773V847H299V773H237ZM422 773V847H484V773H422Z" />
<glyph unicode="&#xd7;" glyph-name="multiply" horiz-adv-x="475" d="M237 214L106 83L70 121L201 252L69 383L106 422L238 291L371 422L406 384L274 253L406 121L370 82L237 214Z" />
<glyph unicode="&#xd8;" glyph-name="Oslash" horiz-adv-x="720" d="M617 619T627 553T638 344Q638 178 623 111T551 18T360 -8Q235 -8 182 12L140 -55H82L139 37Q103 69 93 135T82 344Q82 510 97 577T169 670T360 696Q484 696 537 676L579 743H638L581 651Q617
619 627 553ZM146 232T152 178T176 95L505 623Q483 631 451 633T360 636Q250 636 211 622T159 552T146 344Q146 232 152 178ZM470 52T509 66T561 136T574 344Q574 456 568 510T544 593L215 65Q237 57 269 55T360 52Q470 52 509 66Z" />
<glyph unicode="&#xd9;" glyph-name="Ugrave" horiz-adv-x="712" d="M614 688V298Q614 165 598 104T528 17T356 -8Q237 -8 184 17T114 104T97 298V688H161V266Q161 169 172 128T223 69T356 52Q449 52 488 69T539 127T550 266V688H614ZM360 750L233 885V890H303L406
755V750H360Z" />
<glyph unicode="&#xda;" glyph-name="Uacute" horiz-adv-x="712" d="M614 688V298Q614 165 598 104T528 17T356 -8Q237 -8 184 17T114 104T97 298V688H161V266Q161 169 172 128T223 69T356 52Q449 52 488 69T539 127T550 266V688H614ZM322 750V755L425 890H495V885L368
750H322Z" />
<glyph unicode="&#xdb;" glyph-name="Ucircumflex" horiz-adv-x="712" d="M614 688V298Q614 165 598 104T528 17T356 -8Q237 -8 184 17T114 104T97 298V688H161V266Q161 169 172 128T223 69T356 52Q449 52 488 69T539 127T550 266V688H614ZM219 750V756L323 890H391L495
756V750H452L357 851L262 750H219Z" />
<glyph unicode="&#xdc;" glyph-name="Udieresis" horiz-adv-x="712" d="M614 688V298Q614 165 598 104T528 17T356 -8Q237 -8 184 17T114 104T97 298V688H161V266Q161 169 172 128T223 69T356 52Q449 52 488 69T539 127T550 266V688H614ZM232 773V847H294V773H232ZM417
773V847H479V773H417Z" />
<glyph unicode="&#xdd;" glyph-name="Yacute" horiz-adv-x="604" d="M269 0V269L15 688H86L299 338H306L520 688H589L334 269V0H269ZM278 750V755L381 890H451V885L324 750H278Z" />
<glyph unicode="&#xde;" glyph-name="Thorn" horiz-adv-x="653" d="M106 688H170V564H402Q486 564 527 537T581 466T594 350Q594 282 582 237T527 165T401 137H170V0H106V688ZM384 197Q450 197 481 213T521 261T530 350Q530 410 522 440T483 487T385 504H170V197H384Z" />
<glyph unicode="&#xdf;" glyph-name="germandbls" horiz-adv-x="610" d="M255 0V56H318Q395 56 426 66T468 113T479 237Q479 307 465 343T419 393T324 407H288V463H324Q404 463 437 487T470 573Q470 621 457 646T410 683T312 694Q253 694 220 681T170 632T153
526V0H92V535Q92 611 113 657T183 727T319 750Q402 750 448 731T512 674T531 575Q531 515 503 483T415 441V437Q479 426 509 382T540 242Q540 147 525 97T467 23T338 0H255Z" />
<glyph unicode="&#xe0;" glyph-name="agrave" horiz-adv-x="571" d="M172 -8T135 4T78 49T59 139Q59 198 72 230T119 276T213 290Q242 290 417 285V322Q417 389 405 417T361 453T252 462Q219 462 170 459T94 450V505Q169 518 275 518Q363 518 405 501T463 444T478
324V0H425L422 76H417Q397 25 349 9T234 -8Q172 -8 135 4ZM308 47T343 57T395 98Q407 122 412 148T417 209V240H229Q182 240 160 234T129 207T120 144Q120 103 130 83T168 55T251 47Q308 47 343 57ZM287 603L160 738V743H230L333 608V603H287Z" />
<glyph unicode="&#xe1;" glyph-name="aacute" horiz-adv-x="571" d="M172 -8T135 4T78 49T59 139Q59 198 72 230T119 276T213 290Q242 290 417 285V322Q417 389 405 417T361 453T252 462Q219 462 170 459T94 450V505Q169 518 275 518Q363 518 405 501T463 444T478
324V0H425L422 76H417Q397 25 349 9T234 -8Q172 -8 135 4ZM308 47T343 57T395 98Q407 122 412 148T417 209V240H229Q182 240 160 234T129 207T120 144Q120 103 130 83T168 55T251 47Q308 47 343 57ZM246 603V608L349 743H419V738L292 603H246Z" />
<glyph unicode="&#xe2;" glyph-name="acircumflex" horiz-adv-x="571" d="M172 -8T135 4T78 49T59 139Q59 198 72 230T119 276T213 290Q242 290 417 285V322Q417 389 405 417T361 453T252 462Q219 462 170 459T94 450V505Q169 518 275 518Q363 518 405 501T463
444T478 324V0H425L422 76H417Q397 25 349 9T234 -8Q172 -8 135 4ZM308 47T343 57T395 98Q407 122 412 148T417 209V240H229Q182 240 160 234T129 207T120 144Q120 103 130 83T168 55T251 47Q308 47 343 57ZM150 603V609L254 743H322L426 609V603H383L288 704L193
603H150Z" />
<glyph unicode="&#xe3;" glyph-name="atilde" horiz-adv-x="571" d="M172 -8T135 4T78 49T59 139Q59 198 72 230T119 276T213 290Q242 290 417 285V322Q417 389 405 417T361 453T252 462Q219 462 170 459T94 450V505Q169 518 275 518Q363 518 405 501T463 444T478
324V0H425L422 76H417Q397 25 349 9T234 -8Q172 -8 135 4ZM308 47T343 57T395 98Q407 122 412 148T417 209V240H229Q182 240 160 234T129 207T120 144Q120 103 130 83T168 55T251 47Q308 47 343 57ZM462 683T449 660T393 636Q366 636 341 642T274 662Q267 664 247
670T210 679T180 682Q159 682 153 670T147 625H109Q109 666 114 688T133 721T177 732Q203 732 228 726T297 707Q330 696 350 691T391 686Q412 686 418 698T424 743H462Q462 683 449 660Z" />
<glyph unicode="&#xe4;" glyph-name="adieresis" horiz-adv-x="571" d="M172 -8T135 4T78 49T59 139Q59 198 72 230T119 276T213 290Q242 290 417 285V322Q417 389 405 417T361 453T252 462Q219 462 170 459T94 450V505Q169 518 275 518Q363 518 405 501T463 444T478
324V0H425L422 76H417Q397 25 349 9T234 -8Q172 -8 135 4ZM308 47T343 57T395 98Q407 122 412 148T417 209V240H229Q182 240 160 234T129 207T120 144Q120 103 130 83T168 55T251 47Q308 47 343 57ZM164 657V731H226V657H164ZM349 657V731H411V657H349Z" />
<glyph unicode="&#xe5;" glyph-name="aring" horiz-adv-x="571" d="M172 -8T135 4T78 49T59 139Q59 198 72 230T119 276T213 290Q242 290 417 285V322Q417 389 405 417T361 453T252 462Q219 462 170 459T94 450V505Q169 518 275 518Q363 518 405 501T463 444T478
324V0H425L422 76H417Q397 25 349 9T234 -8Q172 -8 135 4ZM308 47T343 57T395 98Q407 122 412 148T417 209V240H229Q182 240 160 234T129 207T120 144Q120 103 130 83T168 55T251 47Q308 47 343 57ZM228 600T203 609T171 639T164 701Q164 743 171 763T203 792T284
802Q340 802 365 793T398 763T405 701Q405 659 398 639T366 610T284 600Q228 600 203 609ZM322 638T337 643T357 660T361 701Q361 729 357 741T338 758T284 764Q247 764 231 759T212 741T208 701Q208 672 211 660T231 643T284 638Q322 638 337 643Z" />
<glyph unicode="&#xe6;" glyph-name="ae" horiz-adv-x="909" d="M839 236H479Q479 153 489 116T536 63T653 48Q691 48 737 51T819 60V6Q790 -1 740 -4T641 -8Q550 -8 505 11T441 79Q415 26 364 9T240 -8Q176 -8 137 4T79 49T59 139Q59 196 72 228T119 273T213
287L417 286V322Q417 389 405 417T361 453T252 462Q218 462 169 458T94 450V505Q170 518 275 518Q353 518 393 505T452 456Q474 489 517 503T640 518Q733 518 775 494T828 419T839 258V236ZM563 462T531 450T489 402T479 285H780V296Q780 371 768 405T727 451T637
462Q563 462 531 450ZM417 237H229Q182 237 160 231T129 205T120 144Q120 103 130 83T168 55T251 47Q309 47 345 58T398 103Q408 126 412 150T417 209V237Z" />
<glyph unicode="&#xe7;" glyph-name="ccedilla" horiz-adv-x="459" d="M347 48T409 59V5Q385 -1 347 -4T274 -8H250L210 -190H147V-185L205 -4Q145 5 116 35T78 115T69 255Q69 359 84 414T143 493T270 518Q304 518 341 515T404 506V451Q342 462 284 462Q215 462
184 446T141 387T130 256Q130 163 141 121T184 64T287 48Q347 48 409 59Z" />
<glyph unicode="&#xe8;" glyph-name="egrave" horiz-adv-x="560" d="M491 233H130Q130 150 141 114T187 63T305 48Q343 48 390 51T471 60V6Q441 -1 392 -4T293 -8Q193 -8 146 15T84 91T69 254Q69 364 82 416T141 493T292 518Q385 518 427 494T480 418T491 255V233ZM215
462T183 449T141 400T130 282H432V296Q432 371 420 405T378 451T289 462Q215 462 183 449ZM276 603L149 738V743H219L322 608V603H276Z" />
<glyph unicode="&#xe9;" glyph-name="eacute" horiz-adv-x="560" d="M491 233H130Q130 150 141 114T187 63T305 48Q343 48 390 51T471 60V6Q441 -1 392 -4T293 -8Q193 -8 146 15T84 91T69 254Q69 364 82 416T141 493T292 518Q385 518 427 494T480 418T491 255V233ZM215
462T183 449T141 400T130 282H432V296Q432 371 420 405T378 451T289 462Q215 462 183 449ZM250 603V608L353 743H423V738L296 603H250Z" />
<glyph unicode="&#xea;" glyph-name="ecircumflex" horiz-adv-x="560" d="M491 233H130Q130 150 141 114T187 63T305 48Q343 48 390 51T471 60V6Q441 -1 392 -4T293 -8Q193 -8 146 15T84 91T69 254Q69 364 82 416T141 493T292 518Q385 518 427 494T480 418T491
255V233ZM215 462T183 449T141 400T130 282H432V296Q432 371 420 405T378 451T289 462Q215 462 183 449ZM143 603V609L247 743H315L419 609V603H376L281 704L186 603H143Z" />
<glyph unicode="&#xeb;" glyph-name="edieresis" horiz-adv-x="560" d="M491 233H130Q130 150 141 114T187 63T305 48Q343 48 390 51T471 60V6Q441 -1 392 -4T293 -8Q193 -8 146 15T84 91T69 254Q69 364 82 416T141 493T292 518Q385 518 427 494T480 418T491 255V233ZM215
462T183 449T141 400T130 282H432V296Q432 371 420 405T378 451T289 462Q215 462 183 449ZM158 657V731H220V657H158ZM343 657V731H405V657H343Z" />
<glyph unicode="&#xec;" glyph-name="igrave" horiz-adv-x="246" d="M92 0V510H153V0H92ZM366 603L239 738V743H309L412 608V603H366Z" />
<glyph unicode="&#xed;" glyph-name="iacute" horiz-adv-x="246" d="M92 0V510H153V0H92ZM90 603V608L193 743H263V738L136 603H90Z" />
<glyph unicode="&#xee;" glyph-name="icircumflex" horiz-adv-x="246" d="M92 0V510H153V0H92ZM241 603V609L345 743H413L517 609V603H474L379 704L284 603H241Z" />
<glyph unicode="&#xef;" glyph-name="idieresis" horiz-adv-x="246" d="M92 0V510H153V0H92ZM256 657V731H318V657H256ZM441 657V731H503V657H441Z" />
<glyph unicode="&#xf0;" glyph-name="eth" horiz-adv-x="579" d="M185 -8T140 13T82 86T69 254Q69 367 81 419T136 495T278 518Q367 518 416 488L421 490Q395 567 350 627L231 607V655L320 670Q294 699 272 717T247 739V743H316Q355 710 381 680L486 699V651L411
638Q440 596 463 540T497 426Q509 353 509 274Q509 145 498 91T441 15T289 -8Q185 -8 140 13ZM371 48T402 62T440 114T448 254Q448 342 441 381T400 441T289 462Q208 462 177 447T138 394T130 254Q130 152 137 115T176 63T289 48Q371 48 402 62Z" />
<glyph unicode="&#xf1;" glyph-name="ntilde" horiz-adv-x="601" d="M447 299Q447 373 437 405T399 449T307 460Q236 460 203 437T161 374T153 264V0H92V510H146L149 433H154Q170 473 209 495T329 518Q405 518 443 498T495 437T508 320V0H447V299ZM477 683T464
660T408 636Q381 636 356 642T289 662Q282 664 262 670T225 679T195 682Q174 682 168 670T162 625H124Q124 666 129 688T148 721T192 732Q218 732 243 726T312 707Q345 696 365 691T406 686Q427 686 433 698T439 743H477Q477 683 464 660Z" />
<glyph unicode="&#xf2;" glyph-name="ograve" horiz-adv-x="578" d="M184 -8T139 13T82 85T69 255Q69 373 81 424T139 497T289 518Q394 518 439 497T496 425T509 255Q509 137 497 86T439 13T289 -8Q184 -8 139 13ZM370 48T401 62T440 115T447 255Q447 357 440
394T402 447T289 462Q208 462 177 447T138 395T130 255Q130 153 137 115T176 63T289 48Q370 48 401 62ZM284 603L157 738V743H227L330 608V603H284Z" />
<glyph unicode="&#xf3;" glyph-name="oacute" horiz-adv-x="578" d="M184 -8T139 13T82 85T69 255Q69 373 81 424T139 497T289 518Q394 518 439 497T496 425T509 255Q509 137 497 86T439 13T289 -8Q184 -8 139 13ZM370 48T401 62T440 115T447 255Q447 357 440
394T402 447T289 462Q208 462 177 447T138 395T130 255Q130 153 137 115T176 63T289 48Q370 48 401 62ZM255 603V608L358 743H428V738L301 603H255Z" />
<glyph unicode="&#xf4;" glyph-name="ocircumflex" horiz-adv-x="578" d="M184 -8T139 13T82 85T69 255Q69 373 81 424T139 497T289 518Q394 518 439 497T496 425T509 255Q509 137 497 86T439 13T289 -8Q184 -8 139 13ZM370 48T401 62T440 115T447 255Q447 357
440 394T402 447T289 462Q208 462 177 447T138 395T130 255Q130 153 137 115T176 63T289 48Q370 48 401 62ZM151 603V609L255 743H323L427 609V603H384L289 704L194 603H151Z" />
<glyph unicode="&#xf5;" glyph-name="otilde" horiz-adv-x="578" d="M184 -8T139 13T82 85T69 255Q69 373 81 424T139 497T289 518Q394 518 439 497T496 425T509 255Q509 137 497 86T439 13T289 -8Q184 -8 139 13ZM370 48T401 62T440 115T447 255Q447 357 440
394T402 447T289 462Q208 462 177 447T138 395T130 255Q130 153 137 115T176 63T289 48Q370 48 401 62ZM465 683T452 660T396 636Q369 636 344 642T277 662Q270 664 250 670T213 679T183 682Q162 682 156 670T150 625H112Q112 666 117 688T136 721T180 732Q206
732 231 726T300 707Q333 696 353 691T394 686Q415 686 421 698T427 743H465Q465 683 452 660Z" />
<glyph unicode="&#xf6;" glyph-name="odieresis" horiz-adv-x="578" d="M184 -8T139 13T82 85T69 255Q69 373 81 424T139 497T289 518Q394 518 439 497T496 425T509 255Q509 137 497 86T439 13T289 -8Q184 -8 139 13ZM370 48T401 62T440 115T447 255Q447 357 440
394T402 447T289 462Q208 462 177 447T138 395T130 255Q130 153 137 115T176 63T289 48Q370 48 401 62ZM165 657V731H227V657H165ZM350 657V731H412V657H350Z" />
<glyph unicode="&#xf7;" glyph-name="divide" horiz-adv-x="540" d="M240 406V478H300V406H240ZM70 226V280H470V226H70ZM240 28V100H300V28H240Z" />
<glyph unicode="&#xf8;" glyph-name="oslash" horiz-adv-x="578" d="M490 461T499 411T509 255Q509 137 497 86T439 13T289 -8Q205 -8 160 5L123 -55H70L119 25Q87 49 78 99T69 255Q69 373 81 424T139 497T289 518Q371 518 416 505L453 565H508L458 485Q490 461
499 411ZM130 172T134 136T154 80L384 454Q355 462 289 462Q208 462 177 447T138 395T130 255Q130 172 134 136ZM370 48T401 62T440 115T447 255Q447 338 444 374T424 430L192 57Q222 48 289 48Q370 48 401 62Z" />
<glyph unicode="&#xf9;" glyph-name="ugrave" horiz-adv-x="601" d="M452 77H446Q431 37 392 15T272 -8Q196 -8 158 12T106 73T92 190V510H153V211Q153 137 163 105T202 61T294 50Q365 50 398 73T439 135T447 246V510H508V0H455L452 77ZM291 603L164 738V743H234L337
608V603H291Z" />
<glyph unicode="&#xfa;" glyph-name="uacute" horiz-adv-x="601" d="M452 77H446Q431 37 392 15T272 -8Q196 -8 158 12T106 73T92 190V510H153V211Q153 137 163 105T202 61T294 50Q365 50 398 73T439 135T447 246V510H508V0H455L452 77ZM274 603V608L377 743H447V738L320
603H274Z" />
<glyph unicode="&#xfb;" glyph-name="ucircumflex" horiz-adv-x="601" d="M452 77H446Q431 37 392 15T272 -8Q196 -8 158 12T106 73T92 190V510H153V211Q153 137 163 105T202 61T294 50Q365 50 398 73T439 135T447 246V510H508V0H455L452 77ZM162 603V609L266
743H334L438 609V603H395L300 704L205 603H162Z" />
<glyph unicode="&#xfc;" glyph-name="udieresis" horiz-adv-x="601" d="M452 77H446Q431 37 392 15T272 -8Q196 -8 158 12T106 73T92 190V510H153V211Q153 137 163 105T202 61T294 50Q365 50 398 73T439 135T447 246V510H508V0H455L452 77ZM176 657V731H238V657H176ZM361
657V731H423V657H361Z" />
<glyph unicode="&#xfd;" glyph-name="yacute" horiz-adv-x="601" d="M179 -206T112 -198V-144Q203 -150 271 -150Q351 -150 388 -132T436 -75T447 42V71H442Q428 36 390 15T272 -6Q196 -6 158 14T106 75T92 191V510H153V212Q153 138 163 106T202 63T294 52Q365
52 398 75T439 136T447 247V510H508V64Q508 -43 492 -98T428 -180T283 -206Q179 -206 112 -198ZM273 603V608L376 743H446V738L319 603H273Z" />
<glyph unicode="&#xfe;" glyph-name="thorn" horiz-adv-x="592" d="M92 743H153V440H158Q177 483 219 500T329 518Q410 518 450 496T507 419T523 255Q523 147 508 92T452 15T331 -8Q261 -8 219 9T158 68H153V-190H92V743ZM379 50T410 64T451 119T462 255Q462 350
452 391T410 446T307 460Q249 460 215 444T167 391Q158 368 156 338T153 255Q153 160 164 128Q179 86 213 68T307 50Q379 50 410 64Z" />
<glyph unicode="&#xff;" glyph-name="ydieresis" horiz-adv-x="601" d="M179 -206T112 -198V-144Q203 -150 271 -150Q351 -150 388 -132T436 -75T447 42V71H442Q428 36 390 15T272 -6Q196 -6 158 14T106 75T92 191V510H153V212Q153 138 163 106T202 63T294 52Q365
52 398 75T439 136T447 247V510H508V64Q508 -43 492 -98T428 -180T283 -206Q179 -206 112 -198ZM178 657V731H240V657H178ZM363 657V731H425V657H363Z" />
<glyph unicode="&#x2013;" glyph-name="endash" horiz-adv-x="471" d="M60 276V332H411V276H60Z" />
<glyph unicode="&#x2014;" glyph-name="emdash" horiz-adv-x="872" d="M60 276V332H812V276H60Z" />
<glyph unicode="&#x2018;" glyph-name="quoteleft" horiz-adv-x="200" d="M64 571Q64 620 71 644T99 678T161 688V656Q126 656 117 644T107 594V577H136V493H64V571Z" />
<glyph unicode="&#x2019;" glyph-name="quoteright" horiz-adv-x="200" d="M74 524T84 536T94 587V604H64V688H136V610Q136 561 129 537T101 503T39 493V524Q74 524 84 536Z" />
<glyph unicode="&#x201a;" glyph-name="quotesinglbase" horiz-adv-x="200" d="M74 -80T84 -68T94 -17V0H64V84H136V6Q136 -43 129 -67T101 -101T39 -111V-80Q74 -80 84 -68Z" />
<glyph unicode="&#x201c;" glyph-name="quotedblleft" horiz-adv-x="347" d="M64 571Q64 620 71 644T99 678T161 688V656Q126 656 117 644T107 594V577H136V493H64V571ZM210 571Q210 620 217 644T245 678T308 688V656Q273 656 263 644T253 594V577H283V493H210V571Z" />
<glyph unicode="&#x201d;" glyph-name="quotedblright" horiz-adv-x="347" d="M74 524T84 536T94 587V604H64V688H136V610Q136 561 129 537T101 503T39 493V524Q74 524 84 536ZM220 524T230 536T240 587V604H210V688H283V610Q283 561 276 537T248 503T186 493V524Q220
524 230 536Z" />
<glyph unicode="&#x201e;" glyph-name="quotedblbase" horiz-adv-x="347" d="M74 -80T84 -68T94 -17V0H64V84H136V6Q136 -43 129 -67T101 -101T39 -111V-80Q74 -80 84 -68ZM220 -80T230 -68T240 -17V0H210V84H283V6Q283 -43 276 -67T248 -101T186 -111V-80Q220
-80 230 -68Z" />
<glyph unicode="&#x2022;" glyph-name="bullet" horiz-adv-x="363" d="M288 291T283 271T255 243T180 235Q128 235 107 242T81 270T75 342Q75 395 80 416T107 444T180 452Q234 452 255 445T282 416T288 342Q288 291 283 271Z" />
<glyph unicode="&#x2039;" glyph-name="guilsinglleft" horiz-adv-x="304" d="M184 99L52 304L184 510H230L114 304L230 99H184Z" />
<glyph unicode="&#x203a;" glyph-name="guilsinglright" horiz-adv-x="304" d="M74 99L190 304L74 510H120L252 304L120 99H74Z" />
</font>
</defs>
</svg>
