<?xml version="1.0" standalone="no"?>
<!DOCTYPE svg PUBLIC "-//W3C//DTD SVG 1.1//EN" "http://www.w3.org/Graphics/SVG/1.1/DTD/svg11.dtd">
<svg xmlns="http://www.w3.org/2000/svg">
<defs >
<font id="Miltonian" horiz-adv-x="564" ><font-face
    font-family="Miltonian"
    units-per-em="1000"
    panose-1="4 6 5 5 6 9 2 4 0 4"
    ascent="918"
    descent="-274"
    alphabetic="0" />
<glyph unicode=" " glyph-name="space" horiz-adv-x="240" />
<glyph unicode="!" glyph-name="exclam" horiz-adv-x="322" d="M49 85Q49 112 59 131T87 163T127 181T175 187Q201 187 215 173T237 139T247 99T249 66Q249 46 242 33T222 10T193 -3T159 -7Q140 -7 121 -1T85 18T59 47T49 85ZM92 86Q92 74 98 64T114 46T136 34T159
30Q188 30 206 47T224 93Q224 115 211 132T174 149Q160 149 146 145T119 132T100 112T92 86ZM67 443Q67 445 67 451T68 459Q69 469 71 496T77 554T83 612T87 651Q93 672 112 680T150 688Q173 688 196 684T237 669T267 641T279 596L217 297Q212 278 199 260T165
241Q132 241 113 264T84 320T70 387T67 443ZM111 455Q112 445 114 427T118 392T122 361T124 347Q124 344 128 336T137 319T148 301T155 291L174 310L229 508Q229 510 229 512T228 516Q228 531 232 546T236 579Q236 597 235 608T223 638Q203 642 189 644T156 646Q148
646 141 645T130 632Q120 592 116 544T111 455Z" />
<glyph unicode="&quot;" glyph-name="quotedbl" horiz-adv-x="483" d="M47 453Q57 453 58 455T60 463Q60 487 56 510T47 555T38 601T34 647Q34 670 42 675T66 681L190 670Q198 668 200 663T202 652Q202 597 196 532T184 409Q176 404 167 403T147 402Q136 402 122
402T90 403Q74 408 64 423T47 453ZM72 623Q72 612 75 584T84 527Q89 493 97 453H140Q143 474 144 490T146 522T147 552T147 588V638Q129 642 117 643T89 645Q76 645 74 641T72 623ZM289 453Q298 453 299 455T301 463Q301 487 297 510T288 555T279 601T275 647Q275
670 283 675T307 681L431 670Q439 668 441 663T443 652Q443 597 437 532T425 409Q417 404 408 403T388 402Q377 402 363 402T331 403Q315 408 305 423T289 453ZM313 623Q313 612 316 584T325 527Q330 493 338 453H381Q384 474 385 490T387 522T388 552T389 588Q389
591 389 598T389 613T388 628T388 638Q370 642 358 643T331 645Q318 645 316 641T313 623Z" />
<glyph unicode="#" glyph-name="numbersign" horiz-adv-x="563" d="M158 -20Q158 26 166 72T175 165Q172 165 166 165T153 166T138 166T126 167Q106 167 100 164T94 146Q94 132 96 129Q87 135 85 145T71 161Q63 164 56 166T42 173T31 183T27 201Q27 206 28 211T37
217Q56 217 74 214T112 210Q121 210 129 211T146 217L108 285Q104 284 96 284Q84 284 74 288T64 307Q64 320 73 326T94 336T119 339T139 341Q148 343 161 344T188 348Q203 350 220 353L282 588Q285 602 301 602Q309 602 311 594T313 579Q313 577 313 574T312 570L263
371V361Q270 361 279 360T299 359Q316 359 331 363T350 384L400 576Q402 584 410 596T428 608Q436 608 440 601T444 587Q444 585 444 581T443 576L383 369H499Q510 369 517 361T524 343Q524 338 523 330T512 322H375L356 229L493 217Q497 216 504 212T512 201Q512
199 509 189T505 179H346L312 18V11Q312 -2 319 -13T327 -37Q316 -37 307 -41T287 -45Q275 -45 272 -36T269 -16Q269 -14 269 -8T270 0L306 173V185Q305 185 304 185T301 186Q297 185 287 184T266 180T246 176T232 173Q222 169 216 148T207 102T202 54T201 20Q201
1 204 -4T207 -19Q207 -27 199 -36T183 -45Q158 -45 158 -20ZM102 123Q103 123 104 122V121Q104 118 102 118Q99 118 99 121Q99 123 102 123ZM124 296Q124 290 130 277T146 250T166 226T183 216Q191 216 196 226T203 249T207 274T208 292Q208 304 196 304Q177 304
160 300T124 296ZM251 310Q241 289 235 267T229 221Q248 221 271 222T312 229Q315 229 319 238T326 261T331 290T333 317Q312 317 292 315T251 310Z" />
<glyph unicode="$" glyph-name="dollar" horiz-adv-x="473" d="M168 41Q150 53 126 60T80 68H74Q69 66 54 61T34 54Q33 56 33 64T33 74Q33 88 38 104T50 135T67 164T87 187Q89 189 85 191T82 193Q82 189 84 179T89 157T95 135T102 121Q103 119 109 115T124 106T140
99T154 94Q160 93 175 94T207 97T240 101T261 103V294Q261 296 251 300T234 307Q230 308 217 310T188 314T159 318T141 321Q132 323 117 331T86 351T59 376T47 401Q47 425 56 449T79 494T113 533T154 561Q155 561 161 563T174 567T186 572T194 574Q200 576 210
581T220 587Q221 589 223 599T228 620T232 641T234 654Q236 662 241 677T247 694Q251 697 257 699T268 703Q274 705 281 705V587Q281 585 293 580T314 574Q315 574 319 574T330 573T341 573T350 573Q357 573 368 573T380 574Q382 574 386 578T394 587T402 596T407
600Q410 601 420 596T435 587V581V574Q432 568 425 553T408 521T391 488T380 467Q379 465 374 460T367 454Q365 454 361 457T352 465T345 473T341 480Q341 483 342 489T345 501T349 513T354 521Q334 533 312 534T266 536Q259 536 247 536T234 534L220 508V347Q224
346 234 343T254 335T274 326T287 321Q292 318 301 314T318 306T333 298T341 294Q345 291 356 281T379 257T404 232T421 214Q431 203 433 194T435 174Q435 128 418 105T373 71T312 55T247 41Q232 36 231 21T231 -11T231 -41T208 -54Q200 -54 192 -52T181 -39Q179
-35 177 -24T173 1T170 25T168 41ZM301 90Q321 90 344 100T380 121Q392 131 393 147T395 178Q395 182 395 191T394 201Q393 202 385 211T367 230T345 251T328 267Q325 270 315 274T301 280V90ZM99 415Q99 397 106 386T124 368T151 359T184 356Q184 395 180 432T168
508H164Q162 508 161 509Q150 509 139 498T119 472T105 441T99 415Z" />
<glyph unicode="%" glyph-name="percent" horiz-adv-x="793" d="M89 -43Q89 -23 108 -18Q112 -17 124 -16T148 -12T172 -8T189 -6L512 534L443 546Q438 547 438 551T437 558Q437 568 445 574T462 583Q466 582 477 582T502 582Q515 582 526 582T542 583Q552 583
563 589T579 596Q585 596 590 593T604 589Q606 589 613 590T629 592T644 595T654 596H656Q664 596 671 591T679 577Q679 568 674 564T663 557T649 554T636 552Q629 550 619 548T598 545T581 542T573 540L554 521L226 -12Q225 -13 225 -14Q225 -19 232 -21T245 -24Q264
-24 280 -21T317 -17Q317 -33 310 -47T282 -62H108Q101 -62 95 -56T89 -43ZM454 120Q454 149 464 179T493 233T538 272T596 287Q626 287 655 282T708 264T746 226T761 165Q761 161 761 153T759 143Q750 105 738 75T705 24T656 -8T587 -19Q559 -19 535 -8T492 22T464
66T454 120ZM566 136Q566 130 566 118T567 105Q569 96 573 83T583 56T592 34T598 25H604Q605 25 610 28T621 37T633 47T642 56Q655 73 657 99T660 146Q660 156 660 173T655 207T643 236T618 249Q601 249 591 236T575 205T568 168T566 136ZM492 120Q492 92 511 68T554
31Q554 33 554 39T555 46Q555 48 555 51T554 56V62Q554 64 552 72T546 90T539 107T536 118Q535 123 535 134T534 158Q534 172 534 183T536 199Q522 190 522 179T518 155Q516 148 512 148T503 147T495 141T492 120ZM686 139Q686 113 683 91T679 44Q691 54 700 68T716
99T726 132T729 164Q729 173 726 186T715 211T699 231T678 239Q678 213 682 189T686 139ZM34 372Q34 375 34 381T34 394T33 407T33 416Q33 468 50 508T108 583Q114 586 123 588T143 592T163 595T179 596Q195 596 215 583T253 551T283 514T295 484V410L245 317Q239
307 229 299T207 284T181 275T156 272Q136 272 118 281T84 305T56 337T34 372ZM78 385Q78 382 83 375T94 359T107 343T114 335H121Q123 341 124 347Q125 352 125 357T127 366Q125 381 124 390T121 411T120 436T120 474Q120 493 120 510T121 534Q120 533 118 531T114
528Q102 506 95 491T83 465T77 443T75 419Q75 415 76 402T78 385ZM151 446Q151 430 151 418T152 392T154 366T158 335Q169 354 175 372T185 410T189 450T190 497Q190 510 189 523T183 546Q170 546 164 535T154 507T151 474T151 446ZM226 521Q227 516 227 510T228
499Q228 478 224 458T215 416T205 375T201 333Q214 333 223 346T239 379T249 416T252 446Q252 465 249 487T226 521Z" />
<glyph unicode="&amp;" glyph-name="ampersand" horiz-adv-x="719" d="M36 187Q36 194 36 208T37 224Q38 228 44 242T59 273T76 306T89 330Q91 333 99 342T117 363T135 384T144 397Q145 399 145 405T145 420Q145 439 145 462T144 496V504Q144 506 145 515T149
534T153 555T157 571Q166 607 178 628T210 661T257 676T321 679Q336 679 347 677T371 668T399 650T437 623Q454 611 458 591T463 551Q463 531 455 510T435 468T409 429T383 397Q377 390 360 373T324 337T287 300T263 277Q279 257 303 238T352 202T403 171T450 144Q452
143 457 143T463 142Q473 142 490 156T525 191T556 231T570 263Q570 264 570 271T571 287T571 307T571 323Q571 327 571 335T571 353T571 371T570 384Q564 394 544 401T503 411V437H703V411Q699 411 690 410T670 406T650 402T637 397Q632 394 627 376T619 334T613
284T610 237Q608 235 603 231T596 224L529 130V123Q529 105 548 99T590 90T632 80T651 56Q651 45 643 41T624 37Q604 37 586 42T550 55T514 68T477 78Q475 78 465 73T450 64L410 37L383 23Q355 5 329 1T274 -4H238Q194 -4 157 9T93 47T51 107T36 187ZM196 151Q196
128 200 110T223 78Q230 73 239 66T260 53T283 42T304 37Q305 37 311 38T326 42T343 46T356 50Q362 52 374 57T397 70T416 84T425 97Q425 100 409 111T372 137T331 164T304 183Q298 187 287 196T263 215T242 231T229 238Q219 238 213 228T203 203T198 174T196 151ZM170
251Q185 280 211 302T263 343Q291 369 316 393T362 445T398 502T423 571Q426 581 420 589T403 598Q402 598 400 597T396 596Q390 575 382 558T361 525T331 490T290 450Q284 444 273 436T250 420T227 402T210 384Q209 382 205 377Q201 372 193 365T170 343Q165 340
156 331T136 311T116 291T104 277Q93 265 87 254T79 232T76 207T75 174Q75 139 79 118T96 84T129 60T183 37H196Q169 59 156 83T142 143Q142 159 143 171T148 195T156 220T170 251ZM304 637Q267 637 246 627T213 599T199 554T196 496V437Q222 454 249 472T299 512T337
561T356 623Q344 635 332 636T304 637Z" />
<glyph unicode="&apos;" glyph-name="quotesingle" horiz-adv-x="242" d="M47 453Q57 453 58 455T60 463Q60 487 56 510T47 555T38 601T34 647Q34 670 42 675T66 681L190 670Q198 668 200 663T202 652Q202 597 196 532T184 409Q176 404 167 403T147 402Q136 402
122 402T90 403Q74 408 64 423T47 453ZM72 623Q72 612 75 584T84 527Q89 493 97 453H140Q143 474 144 490T146 522T147 552T147 588V638Q129 642 117 643T89 645Q76 645 74 641T72 623Z" />
<glyph unicode="(" glyph-name="parenleft" horiz-adv-x="400" d="M273 56Q211 148 178 224T145 380Q145 428 157 478T193 587Q148 554 123 521T85 458T70 409T67 381Q67 333 75 288T107 202T170 123T273 56ZM398 28Q398 19 392 14T377 5T358 1T339 0Q307 0 271
14T200 54T133 113T77 185T39 263T24 342Q24 371 32 408T58 485T102 562T165 630T249 678T355 696Q366 696 369 692T373 682Q373 674 367 670T350 662T328 655T304 645Q259 621 235 586T198 510T184 424T182 337Q182 326 184 309T194 266T221 205T273 124Q304 81
327 67T366 50T390 45T398 28Z" />
<glyph unicode=")" glyph-name="parenright" horiz-adv-x="400" d="M2 28Q2 44 10 45T33 49T72 67T127 124Q160 170 178 205T205 265T216 308T218 337Q218 379 216 423T202 509T166 586T96 645Q84 651 72 654T50 661T34 669T27 682Q27 688 30 692T45 696Q103 696
150 678T234 630T298 562T342 485T367 409T376 342Q376 304 362 264T323 185T267 114T200 55T129 15T61 0Q52 0 42 1T23 5T8 13T2 28ZM127 56Q190 86 230 123T292 201T323 288T332 381Q332 388 330 408T315 458T278 520T207 587Q231 528 243 478T255 380Q255 301
222 225T127 56Z" />
<glyph unicode="*" glyph-name="asterisk" horiz-adv-x="343" d="M167 529Q164 526 156 521T139 509T122 498T111 490H104Q96 490 91 496T85 510Q85 516 87 520T98 529H91Q80 529 72 522T53 515Q45 515 40 521T34 535Q34 536 34 538T35 541Q39 543 50 548T73 559T96
570T111 579Q119 584 121 587T123 597Q123 610 119 617T109 631T99 647T94 671Q104 671 110 667T122 656T133 642T148 629Q151 626 159 630Q163 632 167 635V692H198V629Q214 646 233 653T276 661Q276 647 273 638T262 616Q271 613 282 607T299 591Q277 583 255
577T211 566Q218 554 229 548T254 536T279 523T299 504Q299 500 294 495T287 490Q285 490 271 495T249 504Q246 505 238 508T220 515T203 523T192 529V440H167V529Z" />
<glyph unicode="+" glyph-name="plus" horiz-adv-x="459" d="M227 123Q225 123 221 123T214 124Q212 124 211 124T207 123H202Q193 122 171 119T124 112T77 104T47 99Q27 109 27 123Q27 131 32 138T47 148L220 173L227 179Q227 187 227 207T229 251T231 294T233
322Q234 332 237 343T252 354Q254 354 259 353T264 346V186Q264 181 269 180T280 179Q309 179 338 182T397 186Q411 186 421 183T432 170Q430 166 429 162Q425 154 425 154L270 129Q269 120 269 111V84Q269 52 273 21T277 -42Q277 -57 260 -57Q247 -57 241 -39T231
7T228 65T227 123Z" />
<glyph unicode="," glyph-name="comma" horiz-adv-x="214" d="M30 -136Q17 -136 13 -133T8 -126Q8 -116 16 -109T33 -95T51 -76T59 -45Q59 -43 59 -39T58 -33Q58 -32 56 -25T50 -10T45 6T42 15Q42 27 48 37T64 54T85 65T107 69Q140 69 156 49T172 -6Q172 -16 171
-26T164 -42Q154 -53 139 -69T105 -100T68 -125T30 -136Z" />
<glyph unicode="-" glyph-name="hyphen" horiz-adv-x="510" d="M55 247Q55 258 63 265T81 276Q135 276 181 273T275 270Q312 270 347 273T419 276Q433 276 443 273T453 257Q453 232 428 232Q383 229 349 228T282 225T212 224T126 224Q99 224 77 228T55 247Z" />
<glyph unicode="." glyph-name="period" horiz-adv-x="216" d="M40 32Q40 47 47 58T67 78T93 91T121 96Q146 96 158 79T171 39Q171 11 154 -6T107 -23Q96 -23 84 -19T63 -8T47 10T40 32Z" />
<glyph unicode="/" glyph-name="slash" horiz-adv-x="367" d="M36 -1Q36 6 42 26T59 74T82 134T106 195T127 246T140 279Q152 309 156 325T166 360T181 410T215 499Q223 520 236 549T262 604T289 650T313 669Q319 669 326 664T334 653Q334 645 321 608T288 517T243
403T197 286T157 187T133 128Q124 107 113 82T91 34T70 -3T54 -18Q46 -18 41 -14T36 -1Z" />
<glyph unicode="0" glyph-name="zero" horiz-adv-x="669" d="M311 -1Q261 -1 213 22T127 83T66 171T43 274Q43 315 49 360T68 450T103 536T155 608T226 657T317 676Q407 676 466 647T561 571T611 470T626 362Q626 315 617 276T594 205T564 148T534 105Q492 52
434 26T311 -1ZM223 287Q223 225 242 166T298 50Q301 45 308 44T321 43Q358 43 389 55T429 105Q437 142 442 168T449 218T453 267T454 327Q454 346 453 376T448 439T437 507T417 569T386 614T341 631Q322 631 304 620T270 585T246 527T237 443Q237 405 230 365T223
287ZM80 291Q80 261 93 222T129 148T181 86T242 55Q242 56 242 57T243 59Q232 81 221 116T201 186T185 252T179 296Q179 302 179 317T180 335L229 603Q203 603 182 582T145 529T116 458T96 384T84 324T80 291ZM498 313Q498 265 495 217T478 118H484Q485 118 491
124T504 139T518 157T528 173Q538 192 547 207T564 240T576 283T581 346Q581 385 571 423T542 498T497 565T438 621Q459 568 471 526T489 448T496 380T498 313Z" />
<glyph unicode="1" glyph-name="one" horiz-adv-x="525" d="M36 9Q36 17 38 22T48 31Q62 31 80 32T116 36T145 40T160 43Q160 75 161 113T164 190T167 266T166 337Q165 353 167 374T172 418T175 462T171 500Q143 500 120 496T62 492Q48 492 35 497T22 519Q22 526
28 531T41 537H51Q60 537 72 537T97 539T119 541T134 543Q141 544 155 548T183 558T208 568T221 574L379 696H406Q406 682 409 665T407 634Q407 623 407 601T406 553T406 506T405 472Q405 436 403 391T397 297T391 204T385 123T382 66T383 44L495 31Q507 29 510
23T514 5Q514 1 514 -6T505 -13Q491 -13 479 -12T452 -10Q367 -10 286 -11T120 -13H48Q40 -8 38 -4T36 9ZM214 431Q215 418 214 388T211 320T206 238T201 155T198 86T197 43H225Q226 43 243 41T280 38T317 35T334 37L370 531L354 591Q354 593 352 595T348 597Q347
597 343 595T336 591L214 512V480V431Z" />
<glyph unicode="2" glyph-name="two" horiz-adv-x="602" d="M50 28Q50 35 67 41T109 53T160 66T205 80Q208 81 220 88T247 105T276 123T298 137Q315 148 319 153T323 167Q323 172 323 177T322 192Q324 255 325 323T328 452T329 561T330 629Q330 637 325 638T315
639Q296 639 266 633T207 616T157 587T136 545Q136 528 143 513T161 485T185 460T211 440Q211 439 211 437T212 434Q212 424 194 409T154 380T111 356T87 346Q73 346 64 358T48 386T40 419T37 445Q37 457 37 466T40 484T46 503T56 527Q84 566 113 594T175 640T247
668T334 677Q378 677 412 656T469 603T503 530T515 453L459 285Q421 210 366 150T236 50V44Q236 41 251 39T285 34T320 31T338 30Q378 30 417 33T497 37Q499 50 501 75T508 125T524 168T555 187Q555 184 555 174T554 153T553 131T552 118Q551 106 550 87T546 50T542
19T539 6L534 0H261Q241 5 229 6T197 7Q167 7 138 3T79 -1Q64 -1 57 4T50 28ZM381 628Q370 628 367 617T364 592Q364 582 365 575T366 564Q364 531 363 503T361 446T360 386T359 313Q359 307 359 292T359 259T360 226T360 204L397 254L478 434Q479 435 479 447T480
465Q480 484 475 512T457 566T426 610T381 628ZM87 455Q87 444 92 430T112 415Q114 415 120 417T132 423T144 429T149 434V440Q139 460 130 477Q122 491 115 502T105 514Q97 511 94 504T89 489T87 471T87 455Z" />
<glyph unicode="3" glyph-name="three" horiz-adv-x="586" d="M40 146Q40 156 41 165T56 174Q73 174 82 162T99 133T114 102T134 80Q163 66 188 61T246 55Q251 55 260 55T271 56L277 62Q277 63 277 72T277 92T278 116T278 135Q278 197 277 250T271 366Q261 366
253 362T238 353T222 344T204 340Q188 340 183 342T177 360Q177 373 186 383T209 399T235 411T258 421Q258 426 258 441T259 462Q259 483 259 499T257 531T253 565T246 608Q232 613 216 614T183 615Q163 615 142 615T109 614L96 608Q99 593 99 572Q99 557 96 541T85
514Q78 514 70 515T60 527L54 638Q54 645 60 649T74 655T92 657T110 658Q144 658 177 654T244 645T311 636T379 632Q403 632 426 635T474 639Q486 639 493 633T501 613Q501 612 501 612T500 610V608L363 440V428Q403 419 436 397T494 344T531 276T544 198Q544 136
519 100T453 44T361 18T257 12Q227 12 190 18T119 39T63 80T40 146ZM308 373Q308 367 309 345T311 293T313 227T316 159T318 100T320 62H342Q372 62 401 72T452 100T487 144T501 202Q501 237 488 270T452 328T398 369T329 385Q321 385 315 385T308 373ZM302 453L314
459L426 589V602H302V453Z" />
<glyph unicode="4" glyph-name="four" horiz-adv-x="619" d="M79 12Q79 30 92 33T119 37Q125 37 150 38T204 40T255 42T278 43L284 49Q284 60 284 75T285 118Q285 136 285 156T282 195T277 224T267 236Q254 236 241 229H30Q23 229 11 235T-2 251V253Q-2 254 -1
254L389 707Q391 707 392 707T396 708Q408 708 415 698T427 672T433 637T435 601Q435 590 435 580T433 564L464 297Q463 296 463 293T463 285Q463 266 471 266H545Q546 266 548 273T551 285Q551 296 548 309T544 326Q544 335 547 338T560 341Q570 341 576 334T585
317T589 294T590 271Q590 266 589 254T588 236L576 223L464 211Q463 206 463 202V187Q463 149 469 113T476 40H582Q586 40 587 35T588 24V13Q588 8 587 5T582 0Q467 -7 352 -10T121 -13Q107 -13 93 -10T79 12ZM302 501Q302 495 303 461T307 380T313 277T320 175T327
94T334 55L340 43H436Q436 61 434 87T429 138T424 184T421 212V335Q420 352 417 395T409 486T402 578T396 638H389L303 546Q303 546 303 541T303 528T302 513T302 501ZM67 272H268Q268 324 260 375T252 478H241L67 272Z" />
<glyph unicode="5" glyph-name="five" horiz-adv-x="620" d="M14 124Q14 135 19 142T37 149Q45 149 54 145T65 130L146 49Q157 37 173 31T208 21T245 18T277 17Q285 17 293 18T306 25Q306 29 306 39T307 60T307 82T308 96Q308 144 303 203T288 322Q285 322 274
322T260 323Q240 323 221 319T183 310T144 300T105 296Q90 296 87 300T83 318Q83 326 83 337T89 354L127 583Q126 586 126 591Q126 599 129 609T137 629T150 645T166 652Q168 652 172 652T177 651Q179 651 189 648T210 642T232 635T245 632Q245 632 253 632T271
631T292 631T309 631Q333 631 359 631T412 633T464 640T512 657Q518 660 524 666T538 679T552 690T567 695Q581 695 587 683T596 654T599 621T598 596Q598 585 598 567T596 532T586 502T564 489Q560 489 554 489T548 496V614L314 582L243 365L350 354L474 291Q488
284 497 272T511 245T517 214T519 185Q519 170 517 153T510 120T497 90T474 68L331 -19Q331 -19 324 -21T307 -25T287 -28T270 -31Q245 -31 202 -20T117 12T45 61T14 124ZM337 310Q337 306 338 288T341 245T345 189T350 132T353 82T356 49H362Q383 57 404 71T442
103T469 142T480 186Q480 203 477 216T468 240T451 260T424 279Q418 282 408 287T386 298T367 306T356 310H337ZM139 352Q145 352 154 352T171 353T186 356T195 365L270 571V583Q269 584 265 584T255 586T244 587T238 588Q237 588 232 589T220 592T208 594T201
595Q180 595 177 577L139 371V352Z" />
<glyph unicode="6" glyph-name="six" horiz-adv-x="577" d="M39 259Q39 266 40 284T44 321T49 356T55 378L133 527L269 657Q280 668 298 672T338 677T381 677T422 676Q442 657 457 642T483 611T499 576T505 532Q505 525 503 520T495 514Q487 514 482 514T468 521Q464
539 457 557T439 591T411 617T374 627Q339 627 315 618T287 571L273 409L279 370Q282 370 290 371T307 373T325 376T340 378Q342 378 355 374T386 363T420 351T443 341Q457 327 474 311T508 275T534 234T545 184Q545 137 524 100T469 38T391 0T302 -13H289L173
19Q170 20 163 26T146 39T129 55T117 68Q97 94 82 121T58 173T44 221T39 259ZM252 112Q252 109 252 98T252 75T251 53T250 40Q250 33 251 31H327L347 55Q350 58 353 72T360 106T365 143T368 173Q368 174 368 180T367 187Q362 251 353 290T333 329H284L273 316L252
118V112ZM393 43Q416 46 435 59T468 91T489 133T497 179Q497 227 466 265T385 316Q389 288 396 260T407 204L391 55L393 43ZM85 240Q90 202 101 164T138 93Q141 88 148 81T163 67T181 54T199 49Q205 49 207 51T211 62L217 229V236L242 565L227 558L103 384L82 266Q82
261 83 256Q84 251 84 247T85 240Z" />
<glyph unicode="7" glyph-name="seven" horiz-adv-x="620" d="M25 12Q16 17 14 20T12 30Q12 54 33 58T87 62H124L130 68L230 285H174Q169 285 168 295T167 307Q167 313 169 322T180 332H251L362 593L205 638H201Q199 638 198 638T195 639Q184 639 180 636T168
620Q165 616 159 606T145 583T132 561T124 546Q124 544 124 538T123 530Q123 516 130 505T138 480Q138 468 127 463T113 458Q101 458 92 466T78 485T71 508T68 530Q68 550 77 570T99 608T126 644T149 676Q160 686 170 687T194 689Q197 689 203 689T211 688L354
638Q355 638 361 638T375 638T392 637T405 637Q428 637 443 637T473 638T502 644T539 657Q547 660 553 665T567 671Q570 671 577 668T591 661T603 653T608 645L475 304H533Q535 304 537 297T540 288Q540 287 535 280T527 273L453 254L356 50H422Q430 50 432 43T435
31Q435 14 409 9T350 4Q302 4 261 4T182 4T105 7T25 12ZM310 56L409 261Q406 265 406 272Q406 284 415 294T434 310L539 596V602Q530 602 509 601T467 598T428 594T409 589L168 56H310Z" />
<glyph unicode="8" glyph-name="eight" horiz-adv-x="599" d="M55 117Q38 118 21 122T4 148Q4 160 9 166T24 175T43 178T62 178Q62 206 74 234T104 288T146 334T191 371Q191 372 191 373T192 375Q192 377 187 384T179 396L142 514Q133 518 131 523T129 537Q129
544 130 546T135 551T143 557T154 570Q177 600 192 621T224 655T266 675T333 682Q367 682 394 677T452 657Q453 655 455 653T458 651Q477 639 494 627T525 600T545 563T553 511Q553 460 535 415T471 340Q465 340 458 338T451 331Q451 328 460 321T482 305T505 286T520
266Q521 264 524 255T531 233T539 210T545 192Q545 186 543 171T539 140T534 112T532 99Q531 95 526 83T515 57T501 32T489 18L359 -44L272 -56Q263 -52 257 -51T244 -50T230 -49T210 -44Q188 -38 161 -21T111 18T71 67T55 117ZM254 99Q254 91 254 73T259 35T270
2T293 -13Q337 -13 375 0T442 36T486 92T502 164Q502 194 492 220T463 267T418 299T360 311Q331 311 311 285T278 224T260 154T254 99ZM97 134Q97 109 107 85T134 41T174 9T223 -3Q223 12 221 29T217 62T212 94T210 121Q210 128 216 150T231 202T251 261T272 316V329Q235
329 203 312T148 268T111 205T97 134ZM315 462Q315 441 315 423T319 390T336 368T375 359Q404 359 429 370T473 400T502 445T513 499Q513 528 502 554T470 601T422 633T365 645Q351 645 342 622T326 568T318 507T315 462ZM191 501Q191 486 198 464T217 420T247
384T285 369Q285 389 279 408T272 449Q272 473 276 497T285 544T294 591T298 639Q288 639 282 636T272 629T264 618T254 607Q252 606 244 605T235 601Q212 582 202 555T191 501Z" />
<glyph unicode="9" glyph-name="nine" horiz-adv-x="594" d="M175 28Q175 49 194 62L281 242V251Q236 251 199 253T130 267T74 303T27 372Q27 375 27 382T26 396T25 411T25 421Q25 456 33 491T64 564Q68 570 76 580T93 600T109 617T120 626L269 676Q271 677 285
678T306 679Q343 679 382 669T448 632Q503 579 528 513T554 373Q554 355 545 316T517 229Q512 217 508 212T501 203T496 195T492 179Q476 157 457 135T418 93T380 61T349 44L212 6Q211 5 210 5H206Q195 5 185 10T175 28ZM269 68Q321 73 365 105T442 184T493 283T512
385Q512 423 501 466T467 547T411 608T334 633Q331 633 323 633T312 632Q317 616 326 605T345 582T361 559T368 527V391L269 80V68ZM69 424Q69 377 95 343T170 297Q170 327 161 358T151 421Q151 447 153 468T159 509T169 550T182 596V602L151 589Q149 588 141 580T124
561T107 539T95 521Q78 493 74 473T69 424ZM194 421Q192 413 192 407Q192 392 196 373T207 337T219 309T231 297H294Q295 297 299 307T305 322Q312 344 316 359T322 388T325 417T326 455Q326 484 323 505T314 542T296 573T269 602Q255 602 245 594T231 571L194
421Z" />
<glyph unicode=":" glyph-name="colon" horiz-adv-x="241" d="M55 32Q55 47 62 58T82 78T108 91T136 96Q160 96 173 79T186 39Q186 11 168 -6T122 -23Q111 -23 99 -19T77 -8T61 10T55 32ZM55 389Q55 404 62 415T82 435T108 448T136 453Q160 453 173 436T186 396Q186
368 168 351T122 334Q111 334 99 338T77 349T61 367T55 389Z" />
<glyph unicode=";" glyph-name="semicolon" horiz-adv-x="260" d="M70 389Q70 404 77 415T97 435T123 448T151 453Q175 453 188 436T201 396Q201 368 183 351T137 334Q126 334 114 338T92 349T76 367T70 389ZM51 -136Q69 -136 88 -126T126 -100T160 -69T186 -42Q191
-36 192 -26T194 -6Q194 28 178 48T129 69Q118 69 107 65T85 54T69 37T63 15Q63 13 65 6T71 -9T76 -25T79 -33Q79 -35 79 -39T80 -45Q80 -64 72 -75T55 -94T37 -109T29 -126Q29 -136 51 -136Z" />
<glyph unicode="&lt;" glyph-name="less" horiz-adv-x="437" d="M85 286Q85 289 76 294T57 306T38 319T29 332Q29 337 30 343T36 354L358 552L361 553Q363 553 369 548T378 537Q378 536 375 531T369 519T362 508T358 503L221 415L215 409L110 341V329L358 155Q363
151 364 150T365 143Q365 139 364 132T358 124H327L85 286Z" />
<glyph unicode="=" glyph-name="equal" horiz-adv-x="439" d="M268 221Q282 221 292 221T313 220T336 216T363 208Q364 208 364 206T364 202Q364 192 355 189T338 183Q333 183 317 183T281 183T245 183T224 183Q220 183 206 181T174 177T143 173T124 171Q120 171
111 171T93 170T74 169T61 168V196Q61 196 81 199T129 207T187 215T237 221H268ZM363 410Q370 410 373 403T376 391Q376 390 376 389T375 387V385Q363 384 333 382T269 378T205 374T162 371Q157 371 147 371T124 371T101 370T86 370V410H363Z" />
<glyph unicode="&gt;" glyph-name="greater" horiz-adv-x="438" d="M111 124H79Q75 124 74 131T72 143Q72 148 73 149T79 155L328 329V341L222 409L216 415L79 503Q79 503 76 508T70 519T63 530T60 537Q62 542 68 547T77 553L79 552L402 354Q407 350 408 344T409
332Q409 326 400 319T381 306T362 295T353 286L111 124Z" />
<glyph unicode="?" glyph-name="question" horiz-adv-x="527" d="M146 37Q146 69 161 90T214 112Q246 112 267 90T289 38Q289 2 264 -18T202 -38Q185 -38 175 -31T158 -14T149 10T146 37ZM183 25Q183 17 185 11T205 4Q222 4 237 11T253 38Q253 52 247 60T227 69Q225
69 225 69T223 68H221L184 30Q183 29 183 28V25ZM146 198L271 341L326 502Q327 504 327 513T328 528Q328 543 327 555T322 579T314 603T302 632Q293 638 286 646T271 663T255 676T236 682Q202 682 172 663T120 614T84 549T71 483Q71 479 71 465T72 446Q78 423 97
416T136 408Q152 408 161 416T176 436T182 462T184 490Q181 499 177 509Q174 517 171 525T165 539Q165 551 169 555T184 559Q186 559 190 559T196 558Q209 533 218 506T239 453V450Q239 448 239 448T240 446Q240 425 231 410T206 384T173 370T137 365Q107 365 88
375T56 402T39 441T34 489Q34 532 51 574T97 650T167 705T252 726Q291 726 333 715T412 681T471 625T495 547Q495 538 493 520T486 481T475 441T462 409L326 161Q288 161 251 158T174 154Q160 154 153 165T146 187V198ZM370 502Q355 421 321 348T233 211H246Q250
211 258 211T274 212T288 214T296 217L450 514V588Q450 608 436 623T401 650T359 667T326 676Q326 675 332 667T338 651Q356 608 363 585T371 536Q371 532 371 519T370 502Z" />
<glyph unicode="@" glyph-name="at" horiz-adv-x="704" d="M46 269Q46 309 61 343T96 413Q123 458 159 484T239 525T329 548T424 564H442Q452 564 471 560T511 551T552 539T587 526Q606 517 618 497T638 453T649 403T652 360Q652 330 638 299T600 243T547 202T486
186Q481 186 462 193T424 212Q422 212 418 218T412 224Q410 224 405 222T393 218T381 214T373 212Q361 212 344 215T311 225T284 246T272 281V285Q272 286 273 287Q280 305 291 327T317 368T351 401T393 415Q414 415 427 404T448 376T459 340T462 305Q462 291 457
280T451 257Q454 257 466 253T484 249Q485 249 485 249T487 250Q505 257 515 274T530 311T536 353T538 388Q538 393 538 401T538 418T537 432T537 438Q535 454 524 468T496 492T462 508T431 514Q396 514 363 499T300 462T244 412T197 362Q170 331 164 301T158 230Q158
227 158 219T158 202T159 185T160 174Q179 150 205 134T260 107T319 91T379 86Q421 86 460 94T537 124Q543 128 556 136T583 153T607 168T619 175Q624 175 630 172T637 162Q637 156 633 149T622 134T610 120T600 112Q567 88 538 73T478 50T414 38T341 35Q311 35
280 38T217 49T159 72T110 112Q83 142 65 184T46 269ZM160 130Q155 130 155 124Q155 118 160 118Q164 118 164 124Q164 130 160 130ZM135 155Q130 155 130 149Q130 143 135 143Q139 143 139 149Q139 155 135 155ZM122 187Q116 187 116 180Q116 174 121 174Q124
174 126 176T128 180Q128 185 122 187ZM96 271Q96 265 96 260T95 247Q95 234 97 221T110 199L122 212Q123 233 126 258T134 309T148 359T172 401Q176 406 188 419T215 446T242 472T261 488Q226 473 196 453T143 405T109 345T96 271ZM310 280Q310 277 316 270T329
255T342 243T349 237Q365 237 377 252T397 285T408 321T412 344Q412 355 410 365T392 376Q391 376 389 376T386 375Q373 364 360 352T335 326T317 301T310 280ZM587 413Q587 376 580 337T562 262Q581 275 591 288T607 314T613 342T614 373Q614 388 613 405T609
439T597 468T575 488Q575 468 581 451T587 413Z" />
<glyph unicode="A" glyph-name="A" horiz-adv-x="847" d="M38 18Q38 32 50 41Q62 42 77 43T106 45T130 47T142 52L245 326Q245 328 245 329T246 333Q246 348 233 357T201 371T165 377T137 379Q97 379 68 352T38 281Q38 268 45 260T66 252Q86 252 91 261T97 285V309Q100
318 104 320T116 322Q125 322 131 317T140 305T146 290T148 274Q148 262 142 250T125 229T103 213T80 206Q41 206 20 225T-2 283Q-2 312 8 338T36 383T78 413T130 424Q168 424 198 418T262 388Q262 388 264 387Q265 387 269 390T273 395L354 606V609Q354 611 352
614T347 618H211Q206 618 205 622T204 629Q204 635 208 649T222 663Q321 664 387 665T497 668T564 669T603 670T629 671T657 672Q665 672 669 664T673 646Q673 642 671 633T663 623H572L645 406Q647 395 650 391T661 387Q693 387 723 396T788 406Q796 406 800 401T805
387Q805 375 796 369T776 361L685 349Q680 349 677 346T673 338L775 43L829 29Q837 28 839 24T841 13Q841 3 835 -4Q828 -3 823 -3T811 -3Q762 -3 718 -5T622 -8Q611 -8 608 -4T605 11Q605 28 619 33T652 44Q656 45 665 45T686 43T706 42T721 41V53L633 326H622Q621
326 610 317T585 296T555 269T530 246Q519 236 516 227T496 218Q482 218 474 227T458 247T442 267T419 276Q418 276 418 276T417 275H416L337 57Q336 56 336 53T335 48Q335 40 340 38T353 34T365 26T371 8Q371 4 370 0T364 -5H56Q47 -5 43 2T38 18ZM192 57Q192
50 193 46T205 41H279Q280 41 284 45T291 54T298 64T302 69L496 601V618H399L193 69Q192 69 192 64T192 57ZM438 332Q438 324 440 322T450 315Q456 311 464 305T481 293T496 284T502 280L605 365Q609 367 613 369T617 374Q617 374 616 376V378L540 594L439 338Q439
337 439 335T438 332Z" />
<glyph unicode="B" glyph-name="B" horiz-adv-x="721" d="M223 40Q226 37 243 35T283 31T325 28T355 26Q355 86 354 141T347 245Q344 296 344 343T341 436T334 528T316 625Q312 629 305 630T291 632Q263 632 245 632T204 625Q204 580 205 556T207 517T210 487T211
449Q211 432 213 410T215 362Q215 356 215 349T214 332T214 306T213 266Q213 233 214 182T217 53L223 40ZM55 -25Q55 -8 69 4T102 23T142 34T174 40L180 46V295Q180 305 173 308T158 313T143 320T136 337Q136 354 147 361T174 369Q174 373 173 429T155 600Q134
600 118 582T89 541T63 500T37 481Q26 481 19 490T11 510Q11 511 11 514T12 520Q27 558 54 588T115 638T188 670T267 681Q345 681 402 670T500 640T567 600T607 556T627 515T633 485Q633 478 632 476Q633 475 634 464T635 448Q635 411 622 387T577 337Q632 316
660 280T689 184Q689 131 672 95T630 34T573 -4T514 -25T465 -33T437 -35Q392 -35 349 -28T261 -21H217Q213 -29 210 -32T198 -35Q187 -35 181 -28T161 -21Q149 -21 139 -26T118 -37T98 -49T78 -54Q64 -54 60 -46T55 -25ZM385 275Q385 212 388 151T397 28Q396 27
396 26V23Q396 18 405 16T420 14Q451 14 490 21T563 47T621 93T645 164Q645 202 641 225T626 263T594 287T539 307H520Q513 306 495 303T456 297T417 292T391 288Q385 287 385 279V275ZM371 619Q371 580 373 547T378 481T383 415T386 342Q388 342 394 342T406 343T419
343T428 344Q438 345 453 346T484 350T509 354T520 356Q556 378 570 409T585 462Q585 510 560 540T503 589T439 613T396 620Q391 620 391 619H371Z" />
<glyph unicode="C" glyph-name="C" horiz-adv-x="648" d="M26 293Q21 293 20 298T18 308Q18 317 23 323T35 332T50 338T66 342Q70 394 80 437T103 511T128 563T148 590Q174 614 208 630T277 658T347 674T409 679Q410 679 427 675T465 666T503 657T522 653Q528
664 540 671T566 678Q587 678 592 663T597 631L566 497Q566 495 563 495T557 493L549 491Q542 491 534 493T522 504Q506 549 488 574T452 611T417 626T387 629Q325 629 325 583Q325 577 326 573V581Q326 581 326 576T327 558T327 519T327 454Q327 355 325 283T321
162T317 82T315 35Q315 18 318 12T328 6Q340 6 352 6T377 5Q401 5 425 7T473 15T520 35T563 70Q571 79 574 91T581 116T592 136T616 145Q618 145 625 140T633 126Q633 105 625 83T603 42T572 7T538 -17Q497 -36 454 -43T375 -50Q328 -50 278 -37T186 14T113 119T76
293H26ZM263 20Q269 55 272 100T277 196T279 301T280 408V427Q280 481 280 530T284 617Q277 617 267 613T246 602T226 589T211 578Q183 555 167 523T141 454T130 379T127 305Q127 245 136 199T164 119T207 60T263 20ZM547 553Q550 566 552 585T555 621Q545 620
536 619Q528 618 520 617T505 614L547 553Z" />
<glyph unicode="D" glyph-name="D" horiz-adv-x="763" d="M357 617Q357 483 353 341T348 63Q348 43 351 31T361 13T378 4T404 2Q470 2 520 27T604 95T655 192T673 308Q673 363 658 423T610 534T525 618T400 651Q383 651 370 647T356 627Q356 623 356 621T357 617ZM67
-18Q62 -13 61 -7T60 4Q60 16 65 18T94 20H155Q162 20 162 30Q162 60 161 94T157 162T153 230T150 294Q139 302 126 308T99 321Q113 329 129 343T153 373V393Q152 401 151 420T148 463T144 513T140 564T137 606T134 634Q132 641 120 641Q104 641 92 637T69 625T49
608T29 590Q16 590 7 593T-3 611V621Q25 656 55 671T128 689Q152 680 182 677T238 674Q273 674 296 677T338 684T372 691T410 694Q468 694 524 667T624 590T695 467T722 306Q722 223 697 159T627 51T517 -15T373 -38Q341 -38 310 -35T247 -28T182 -21T110 -17Q99
-17 89 -17T67 -18ZM187 631Q187 620 187 599T185 552T184 501T183 460Q183 432 184 389T188 298T194 200T199 112T203 47T205 20L212 13Q225 13 236 14Q246 14 257 14T278 15Q292 15 297 15T310 14Q310 17 310 24T310 39T310 54T309 64Q309 72 309 96T310 154T311
224T312 297T313 360T314 403Q314 420 314 424T313 437Q313 456 313 478T313 521T314 559T314 584Q314 601 313 612T307 635Q302 634 291 634Q260 634 239 633T187 631Z" />
<glyph unicode="E" glyph-name="E" horiz-adv-x="634" d="M191 -15Q176 -15 170 -15T162 -16T157 -16T148 -16Q91 -16 65 -14T39 4Q39 9 42 15T53 24Q78 24 97 23T138 22Q138 94 133 160T127 298Q123 305 117 308T104 313T93 319T88 335Q88 346 93 348T104 351T117
353T127 361Q127 365 127 375T127 397T128 419T128 435Q128 461 128 480T129 518T128 556T123 603Q119 602 105 602T80 602Q60 602 50 602T34 602T28 605T27 611Q27 634 33 643T59 653Q92 653 122 653T179 654Q231 654 283 650T388 646Q426 646 464 648T539 664Q547
668 552 673T565 678Q572 678 578 673T584 659Q584 657 584 657T583 655V653Q573 636 567 626T557 610T548 602T539 600Q530 600 475 602T312 599Q306 534 304 481T301 362Q329 362 348 366T380 376T405 386T427 391Q438 391 444 384T450 355Q450 331 440 319T402
306Q389 306 378 310T363 325L301 321Q301 321 300 308T298 277T296 241T295 212Q295 210 295 198T295 167T296 129T298 90T299 60T301 46L307 34Q313 34 326 34T357 33T391 33T421 32Q477 32 510 38T560 51T585 65T597 71Q633 71 633 37L631 23Q629 10 627 10L614
-3Q614 -3 604 -4T580 -6T552 -8T528 -9Q517 -9 512 -9T497 -10T471 -10T419 -10T330 -12T191 -15ZM163 371Q163 339 164 302T166 227T170 155T174 94T178 51T183 35L189 29L265 28Q265 55 264 78T261 124T258 174T256 233Q256 296 260 363T264 502Q264 513 264
530T263 562V599L165 604Q165 603 165 598T165 580T164 543T163 479V371Z" />
<glyph unicode="F" glyph-name="F" horiz-adv-x="672" d="M50 -3Q50 9 56 16T71 26T91 30T112 31Q131 31 134 41T138 71Q138 98 135 122T131 174Q131 204 134 228T137 286Q133 286 124 286T105 288T88 296T81 311Q81 320 88 325T104 333T123 335T137 336Q142 356
143 384T145 461Q145 470 145 487T145 524T144 561T144 589L137 614L32 627Q22 629 21 637T19 652Q19 660 20 666T32 677Q69 677 105 673T177 664T249 655T321 651Q325 651 332 651T347 651T360 651T367 652L565 689H658L664 677Q664 662 665 640T667 586Q667 561
660 541T629 520H620Q617 520 615 521L521 621H510Q498 621 470 619T412 614T360 606T336 596Q333 569 332 549T330 509T329 470T329 425V361Q337 354 352 351T377 348Q390 349 401 352Q411 354 420 356T435 361Q444 365 446 375T451 395T457 414T472 423Q481 423
486 418T493 406T496 392T497 379Q497 368 495 345T487 300T474 260T454 243L444 247Q435 251 435 254V311H336L329 298V235Q329 180 330 133T336 31Q337 25 347 25Q366 25 384 28T420 31Q433 31 440 27T448 9Q448 0 443 -5T430 -13T414 -17T398 -18Q327 -20 256
-22T112 -25Q86 -25 68 -23T50 -3ZM173 124Q173 116 173 104T173 79T174 56T175 44L181 31H211Q229 31 249 32T287 37Q292 39 293 43T294 54Q294 59 294 63T293 69Q293 76 294 104T295 165T297 225T298 261Q298 292 297 319T295 372T293 426T292 490Q292 519 292
546T293 584L287 596L199 614L193 602Q192 601 191 581T189 530T185 459T181 381T178 305T175 243Q175 239 175 224T174 189T173 152T173 124ZM583 637Q583 624 595 616T615 602Q617 605 619 614T621 627Q621 641 619 643T607 646Q602 646 593 645T583 637Z" />
<glyph unicode="G" glyph-name="G" horiz-adv-x="793" d="M8 302Q3 302 2 309T1 319Q1 321 1 324T2 329Q5 330 12 333T28 339T45 345T56 350Q57 350 61 368T71 409T81 454T90 487Q107 533 135 571T201 636T281 677T373 692Q398 692 422 687T470 677T518 666T569
661Q590 661 601 666T620 676T635 687T654 692Q656 692 659 689T667 681L677 671V527Q677 516 667 511T649 506Q614 522 582 545T518 591T451 628T377 644Q375 644 370 644T363 643Q355 575 349 504T343 359Q343 301 347 244T363 129Q364 124 367 103T373 58T380
15T384 -6Q391 -17 401 -19T422 -21Q425 -21 438 -18T469 -9T504 2T534 13Q559 30 577 55T595 108Q595 128 590 143T577 173T557 201T534 232Q527 232 517 228T498 218T480 209T469 204Q458 204 448 214T437 235Q437 250 452 260T487 275T528 283T562 285Q575 285
600 283T649 281Q681 281 713 292T766 328Q776 328 784 323T793 307Q793 284 782 275T757 262T730 254T711 239Q705 227 704 214T701 186T700 159T697 136Q685 81 658 43T591 -18T504 -52T404 -63Q341 -63 286 -40T186 29T109 143T62 302H8ZM116 341Q116 297 128
250T158 160T198 86T240 38Q247 33 260 26T286 11T309 -1T321 -6H339Q325 79 309 163T293 334Q293 341 294 356T296 392T299 434T301 479Q301 523 301 562T302 616Q296 623 291 623Q290 623 278 618T261 610Q189 561 153 497T116 341ZM589 241Q609 209 622 180T636
116Q637 120 644 146T656 204Q656 214 649 221T631 233T609 239T589 241ZM543 620Q547 617 560 610T590 593T622 575T644 558V627Q641 626 632 626T608 624T577 622T543 620Z" />
<glyph unicode="H" glyph-name="H" horiz-adv-x="895" d="M48 -6Q39 -2 37 1T34 12L36 26Q37 31 38 35T41 40H167Q167 73 170 109T173 181Q173 190 173 208T170 243T163 273T149 286Q130 286 114 276T78 266Q69 266 64 272T59 287Q59 293 59 297T66 304L153 341V378L116
577H41Q38 584 35 591Q33 596 31 602T29 610Q29 623 43 625T75 627Q84 627 92 627T103 626Q107 637 112 641T128 646Q139 646 146 642T165 637Q225 637 285 647T406 658Q420 658 429 654T439 635Q439 618 431 614T412 609Q406 609 400 609T387 610Q373 610 362
604T351 571Q351 556 352 545T354 522T357 495T358 455Q358 436 358 420T357 396L364 384H469L699 337V577Q699 578 698 583T694 593T688 603T680 607H581Q576 607 575 612T574 622Q574 634 589 641T627 651T677 656T731 657Q756 657 774 658T805 659T823 654T829
641Q829 622 812 617T777 612Q769 612 761 612T749 613L742 607Q742 541 739 478T736 350Q746 350 749 348T756 346Q759 346 774 362T809 399T844 436T866 453Q873 453 879 447T885 434Q885 412 868 390T827 348T778 313T736 291Q736 258 736 229T737 170T739 109T742
43Q750 39 762 37T787 31T808 21T817 3Q817 -11 808 -15T787 -20Q749 -20 712 -13T637 -5Q632 -5 628 -5T618 -6Q613 -5 612 -1T611 7Q611 30 626 37T665 45Q673 45 680 45T692 43L699 74V285L469 335Q461 335 449 335T420 336Q403 336 388 333T364 316Q364 265
361 215T357 114Q357 106 357 93T357 67T359 44T364 30Q377 30 394 30T427 28T453 20T464 3Q464 -2 459 -6T447 -15T434 -21T425 -25Q412 -25 404 -22T381 -18Q373 -18 367 -20T356 -25T347 -30T336 -32H334Q333 -32 332 -31Q300 -15 255 -11T162 -7Q145 -7 128
-7T95 -8Q81 -8 70 -8T48 -6ZM208 118Q208 110 209 98T211 73T213 52T215 43L221 37H307Q310 37 311 52T314 86Q315 108 314 136Q314 142 316 166T320 217T324 267T326 297Q326 330 325 367T323 442T319 517T314 588Q314 591 312 598T307 607Q278 607 251 605T204
599T171 591T159 582L208 198V118Z" />
<glyph unicode="I" glyph-name="I" horiz-adv-x="457" d="M34 0Q34 14 48 16T79 17T112 15T133 24Q133 65 134 99T135 164Q135 173 135 187T136 216T136 246T137 272Q137 283 136 287Q130 285 127 285Q116 285 107 297T98 321Q98 330 104 333T117 339T130 343T136
350Q133 380 133 415T131 487T130 560T126 627Q124 629 122 631T117 634H79Q66 634 51 635Q40 635 33 643T26 662Q26 668 26 672T33 679L132 684Q141 683 149 683T167 682Q195 682 215 682T255 684T296 685T345 686Q349 686 359 686T380 686T401 685T416 685Q421
683 422 679T423 671Q423 647 413 641T376 634Q362 634 349 635T328 636Q328 540 324 440T319 240Q319 184 321 125T330 12Q346 12 364 10T398 7Q408 7 414 1T420 -17V-16Q419 -18 417 -20Q415 -22 413 -24T407 -27L324 -34Q323 -34 315 -34T296 -35T274 -36T255
-36Q236 -36 225 -35T203 -33T182 -30T152 -28H68Q51 -28 44 -23T34 0ZM170 623Q170 589 170 531T171 405T173 267T175 141T178 48T182 12H274L280 18Q280 19 280 28T281 43Q281 46 281 51T281 63T280 74T280 80Q280 120 281 177T283 296T286 417T287 521Q287 543
286 563T283 600T276 626T265 636Q260 636 249 636T225 636T198 636T176 634Q171 632 171 630T170 623Z" />
<glyph unicode="J" glyph-name="J" horiz-adv-x="646" d="M19 109Q19 118 19 133T23 165T35 192T60 204Q70 204 78 200T95 188T112 172T132 155Q144 146 153 142T167 135T174 128T177 114Q177 101 174 85T166 53T157 27T151 12Q151 5 151 -4T153 -23T160 -38T174
-45Q205 -45 239 -39T299 -13Q308 24 310 60T312 126Q312 216 314 279T319 395T323 496T325 605Q325 607 325 611T324 619V627L299 633L200 621Q188 619 175 611T151 591T132 563T125 531Q125 506 140 497T175 486T209 481T225 468Q225 454 206 444T167 434Q147
434 130 445T100 471T79 504T71 533Q71 534 73 545T82 573T104 609T143 644T202 671T288 682Q310 682 325 680T354 676T381 672T412 670Q424 670 441 671T474 673T503 675T521 676Q547 676 555 648T564 573Q564 551 564 508T562 413T554 308T540 212Q518 116 483
56T404 -37T310 -83T210 -95Q169 -95 134 -85T74 -52T34 11T19 109ZM71 96Q76 51 82 26T109 -16Q109 18 111 48T123 107Q120 110 114 114T100 122T87 130T80 133Q74 133 72 124T70 107Q70 102 70 100T71 96ZM374 614Q374 546 372 466T367 302T357 138T344 -12Q374
-3 401 24T448 90T481 175T498 266Q502 316 504 360T509 439T512 499T513 532Q513 538 513 550T512 574T512 596T511 608L505 614Q504 615 498 616T484 618T468 620T455 621Q450 621 439 620T414 618T390 616T374 614Z" />
<glyph unicode="K" glyph-name="K" horiz-adv-x="827" d="M146 62Q146 66 146 77T147 93Q147 143 142 187T130 288H90Q90 305 100 319T130 334V616Q126 615 115 613T92 609T70 605T55 601L47 600Q33 600 28 610T23 631Q23 633 23 638T24 646Q45 654 71 660T123
669T169 675T200 677Q233 677 254 677T294 676T338 676T402 675Q410 675 416 675T424 676Q438 676 446 672T455 653Q455 647 445 643T423 636T399 629T387 616Q381 590 378 558T374 492T372 427T371 371Q371 368 371 360T371 344T372 329T372 319Q383 327 411 352T475
410T551 481T628 552T693 610T732 643Q748 654 755 656T779 659Q788 659 795 658T807 643Q781 609 736 567T643 481T549 395T478 319Q517 303 550 274T613 211T671 141T728 76Q752 52 775 45T831 37Q831 20 807 10T752 -6T691 -14T650 -16Q648 -16 645 -16T636
-17Q625 -17 616 -14T606 0Q606 17 616 24T637 35T659 41T669 52Q669 61 665 63T653 76Q634 98 612 129T565 190T510 239T447 260Q426 260 405 254T372 228Q369 203 369 177T368 129Q368 106 371 86T387 46L451 60Q454 60 460 51T467 38Q467 27 459 21T440 10T418
4T401 2H60Q60 15 62 23T70 35T82 42T100 46Q110 48 122 54T146 62ZM190 62Q198 56 213 52T247 45T285 42T322 41Q322 105 324 168T328 295T334 428T341 571Q341 574 341 580T342 594T342 607T342 616H190Q189 605 188 576T186 510T183 430T180 350T177 283T175
243V228Q176 219 178 195T183 145T187 95T190 62Z" />
<glyph unicode="L" glyph-name="L" horiz-adv-x="751" d="M129 39Q129 45 129 67T128 116Q128 132 128 146T130 171Q130 189 130 208T128 244T127 273T126 291Q120 292 112 293T96 297T83 302T78 312Q78 321 84 328T97 343T112 359T122 378Q123 382 127 408T135
467T142 527T146 562Q146 565 146 574T145 594T145 613T144 625Q139 625 130 624T108 623T85 621T65 620Q44 620 44 642Q44 645 50 648T66 655T83 661T97 663Q103 663 110 663T119 662Q127 662 150 663T203 666T268 669T334 672T388 675T420 676Q425 676 432 676T446
673T458 667T463 655Q463 639 447 633Q445 632 434 631T411 627T388 623T375 619Q375 619 373 614T369 602T364 588T360 575Q359 572 358 556T354 518T349 470T344 422T340 383T337 363Q332 335 331 299T329 224Q329 191 329 160T330 104Q330 79 336 65T374 50Q394
50 412 48T447 45Q458 45 469 47T491 54Q495 56 507 61T531 74T555 88T572 100Q581 108 600 128T641 172T682 215T709 245Q726 239 732 223T739 183Q739 175 737 157T730 116T719 71T703 28T683 -3T659 -16Q612 -16 567 -9T473 -1Q469 -1 463 -1T450 -1T439 -2T433
-2Q366 -11 303 -15T171 -19Q136 -19 108 -17T42 -4Q29 0 26 7T23 39H129ZM172 39Q177 30 181 28T193 25Q197 25 209 27T236 32T261 37T274 39Q275 40 277 45T281 58T285 72T288 84Q294 112 298 161T306 267T311 383T314 490T316 570T317 604V620H205L190 590Q189
588 187 561T183 494T178 406T173 311T168 228T163 171Q163 169 164 161T166 143T169 122T171 105Q171 101 171 92T171 72T171 52T172 39ZM683 154Q672 142 658 127T628 95T592 65T551 42Q561 40 580 40T613 39Q655 39 669 68T683 154Z" />
<glyph unicode="M" glyph-name="M" horiz-adv-x="1123" d="M230 608Q213 608 196 605T165 602Q160 602 152 603T135 607T120 615T113 628Q113 644 132 654Q175 660 209 663T279 668T358 670T463 671Q464 650 473 605T495 503T523 387T553 278Q554 278 557 277T561
276Q570 276 581 292T605 335T631 394T655 459T676 518T692 561Q692 561 692 568T692 584T691 603T691 620Q691 623 694 634T709 646Q721 648 749 652T808 662T868 673T908 680Q913 680 921 680T937 677T951 669T957 654Q957 638 947 633T923 625T900 617T889 596Q889
582 896 548T913 478T934 413T955 379Q961 376 970 374T989 369T1004 363T1010 355Q1010 343 1004 337T991 325T978 311T972 287V261Q973 258 979 240T993 200T1010 156T1023 121Q1032 96 1040 82T1060 59T1088 47T1129 37Q1129 36 1129 32T1130 26Q1130 21 1127
12T1113 2H891L842 54L727 465L709 450Q704 438 694 415T670 362T643 302T615 242T590 191T571 157Q563 144 551 127T524 93T493 65T462 53Q437 53 426 68T406 106Q369 205 333 306T278 510Q274 498 266 468T248 399T227 316T204 231T181 157T161 106Q158 101 156
94T151 79T148 65T147 56Q147 51 151 43Q153 39 155 37H229Q228 34 227 27T222 13T208 1T183 -5H-11Q-11 16 -2 24T21 35T47 43T70 62Q76 75 85 93T103 128T118 158T125 175Q140 226 159 275T195 373T223 469T235 560Q235 572 234 584T230 608ZM750 563Q750 550
755 530T766 486T779 439T790 396Q813 315 835 236T887 79Q893 65 900 57T915 44T932 39T951 38Q968 38 984 42T1010 46Q1010 47 1005 53T993 66T982 80T976 88Q966 127 953 180T926 292T896 406T867 507T841 579T819 607Q790 607 774 599T750 563ZM313 576Q313
572 313 563T314 552L437 139Q439 129 447 125T462 121H472Q476 125 485 138T504 165T520 192T528 207Q517 235 505 280T479 381T448 498T413 620Q411 620 405 620T393 621T380 621T371 621Q357 621 346 621T328 616T317 602T313 576Z" />
<glyph unicode="N" glyph-name="N" horiz-adv-x="816" d="M50 33Q50 46 57 50T73 57T92 64T106 80Q114 129 120 192T130 323T137 453T140 563Q140 574 140 586T138 610Q126 610 109 612T80 616Q72 617 68 623T62 636T58 651T57 663Q102 667 154 670T252 676T328
680T362 682Q396 682 422 678T448 657Q448 649 442 644T427 635T413 627T406 616Q406 607 419 583T451 529T488 473T517 433Q519 435 524 435T538 436T555 440T573 453Q575 449 575 442T576 431Q576 424 572 419T563 407T553 393T549 373Q549 363 551 363Q553 357
561 340T580 301T603 254T627 207T647 168T659 146Q664 168 666 204T668 294Q668 351 665 410T659 518T651 597T644 628L550 620Q550 624 550 632T554 648T563 664T582 672Q587 673 599 674T625 677T650 680T664 682Q674 683 687 683T713 684T734 685T745 686Q761
686 771 683T783 677L785 654Q775 653 760 649T733 642Q730 640 719 634T705 625Q704 617 703 598T701 558T698 518T697 493V477Q698 381 700 310T704 191T708 115T710 76Q709 58 694 45T655 24T604 11T553 4T513 1T494 0H500Q480 0 471 7T461 41Q461 52 463 56L340
266L276 261Q276 265 277 269Q277 276 279 282Q286 297 296 304T306 328Q306 346 293 376T261 440T221 504T185 552Q183 549 182 542T181 528T180 516T180 509Q180 470 177 422T171 322T164 218T161 121Q161 101 162 81T167 55Q171 50 183 50T208 49T232 43T243
23Q243 16 240 9T230 2L69 4Q57 4 54 14T50 33ZM197 610Q197 603 205 592T227 563T256 525T287 476Q289 472 302 447T335 384T375 305T417 224T452 156T472 116Q477 105 482 93T496 72T517 56T548 49Q549 49 560 51T587 57T616 64T637 71Q637 83 630 106T611 158T584
220T552 287T519 350T489 403Q459 454 365 585Q353 600 340 608T311 621T278 626T241 627Q238 627 231 627T216 626T203 621T197 610Z" />
<glyph unicode="O" glyph-name="O" horiz-adv-x="780" d="M360 -29Q292 -29 234 -3T133 65T65 163T40 276Q40 319 47 366T71 460T114 549T176 624Q213 657 264 676T378 696Q485 696 554 665T665 586T722 478T739 363Q739 271 711 199T633 76T513 -2T360 -29ZM240
288Q240 255 247 220T267 148T298 78T337 13Q339 8 347 7T364 5Q385 5 406 8T445 18T476 39T496 74Q507 116 517 145T536 201T549 254T554 322Q554 344 551 377T541 446T523 520T494 586T453 634T399 653Q367 653 343 634T301 585T272 515T253 435T243 356T240
288ZM93 295Q93 261 103 217T136 133T193 63T274 28Q274 29 274 30T275 32Q259 63 244 95T217 161T198 230T190 304Q190 367 210 447T269 630Q230 623 202 601T155 546T123 477T105 405T96 341T93 295ZM602 337Q602 306 594 267T573 186T548 106T526 40Q609 86
651 172T693 378Q693 420 678 460T638 536T579 598T508 642Q538 606 556 568T584 490T598 413T602 337Z" />
<glyph unicode="P" glyph-name="P" horiz-adv-x="644" d="M61 8Q61 16 64 21T80 26Q84 26 92 25T110 24T126 22T137 21V357Q132 357 123 355T105 353Q97 353 91 357T85 372Q85 375 90 378T104 383T120 388T133 390Q133 404 133 428T130 481T124 538T113 590T96
628T72 643Q67 643 59 642T43 641Q34 641 28 645T22 660Q22 673 36 679Q80 682 118 682T207 682Q218 682 248 681T318 677T405 665T492 641T567 603T616 546Q622 533 625 517T629 479Q629 468 627 451T618 412T595 369T554 329Q524 308 489 298T419 283T357 279T313
278V38L325 26Q330 27 342 27T369 27Q388 27 400 27T422 24T437 16T451 1L438 -12H73Q65 -12 63 -5T61 8ZM174 38Q176 38 187 36T211 32T234 29T247 26Q258 26 264 36T273 61T276 96T277 134Q277 187 276 225T275 290Q273 316 271 352T265 427T258 505T251 573T244
623T238 642H148Q148 639 148 630T150 617Q150 610 151 582T155 523T159 464T162 429Q163 416 164 386T166 317T168 233T171 150T173 81T174 38ZM286 643Q286 597 288 550T294 460T303 386T315 341Q320 330 331 327T372 324Q390 324 398 324T412 325Q442 326 459
341T484 379T495 428T497 478Q497 504 494 527T480 569T451 603T400 627Q383 632 366 635T332 640T304 642T286 643ZM513 586Q530 554 534 528T539 471Q539 439 532 405T498 343Q510 345 526 354T555 379T578 418T588 473Q588 503 580 524T560 559T535 579T513
586Z" />
<glyph unicode="Q" glyph-name="Q" horiz-adv-x="829" d="M570 3Q569 3 569 3T568 2H567Q522 -21 469 -40T364 -60Q339 -60 307 -51T241 -23T174 24T116 89T74 174T58 278Q58 285 58 292T60 308Q58 309 50 311T34 317T18 326T11 338Q11 347 19 351T36 358T55 361T67
362Q75 410 91 458T132 550T187 632T257 698Q294 725 338 725Q358 725 379 720T421 704Q426 702 428 698T432 689T437 682T448 679Q453 679 461 679T480 680Q493 680 509 678T545 668T591 647T647 610Q674 590 689 561T712 498T720 431T722 367Q722 333 716 289T699
201T671 116T635 50Q629 47 628 44T627 36Q627 27 638 14T665 -12T697 -33T726 -42Q740 -42 751 -36T771 -19T784 5T789 32Q789 42 784 52T773 71T761 90T756 108Q756 109 760 117T771 124Q786 122 797 112T815 88T825 57T829 28Q829 7 821 -12T799 -47T763 -72T716
-81Q701 -81 688 -77T658 -63T622 -37T573 2H572Q571 2 570 3ZM278 74Q285 59 296 43T322 13T354 -10T389 -19Q401 -19 426 -14T476 0T520 20T539 42Q539 55 528 69T503 96T473 116T450 124Q442 124 436 120T423 109T411 99T396 94Q383 94 376 103T368 124Q368
147 390 160T436 173Q461 173 481 166T518 146T551 116T587 78Q587 77 588 77Q589 76 590 76Q601 76 612 93T633 138T651 197T666 259T676 311T680 341Q680 408 670 461T637 550T575 605T481 624Q442 624 410 607T353 562T310 498T280 423T262 346T256 275Q256
230 261 178T278 74ZM115 262Q115 204 132 159T174 82T225 31T271 4Q255 23 244 54T225 121T215 198T211 277Q211 339 221 391T254 490T311 575T396 651Q365 671 338 671Q291 671 250 635T179 541T132 410T115 262Z" />
<glyph unicode="R" glyph-name="R" horiz-adv-x="752" d="M501 237Q492 235 477 231T447 223T422 216T411 213L405 207L417 21H448Q466 21 482 20T498 4Q498 -5 491 -10T474 -19T454 -23T436 -24Q367 -24 300 -17T163 -9Q155 -9 148 -9T132 -10Q119 -4 119 9Q119
23 130 27T156 33T187 34T212 39Q212 44 212 58T213 77Q213 198 207 327T188 579Q187 581 185 588T182 597L179 598Q171 598 160 589T136 566T111 536T88 504Q75 486 73 465T70 421Q70 393 71 373T78 337T95 305T127 272Q127 264 117 258T101 250Q79 250 65 269T42
315T30 367T26 406Q26 474 53 532T138 629Q176 648 214 654T294 661Q348 661 409 653T523 618T611 544T646 414Q646 411 645 405T643 392T641 380T640 374L572 269V262Q602 251 620 230T649 180T662 121T666 62Q666 53 666 44T665 27Q670 22 677 15T687 8Q694 14
700 22T714 36T730 48T750 53Q755 53 759 53T764 44Q764 31 759 16T745 -12T723 -33T695 -42Q678 -42 668 -36T640 -16Q622 -2 618 19T613 67Q613 72 613 76T614 86Q614 104 613 122T605 157T587 190T553 220Q543 226 529 231T501 237ZM269 39Q295 36 322 34T377
32Q377 37 377 49T376 76T375 103T374 121Q374 122 371 132T368 145Q362 232 361 318T349 492Q347 507 344 529T338 571T333 607T330 622H244L231 616Q231 614 231 603T230 576T229 545T229 520Q229 404 236 289T256 58Q261 55 264 50T269 39ZM405 281Q407 276
409 275T417 274Q487 274 535 306T603 405Q603 429 598 454T582 502T553 543T511 572Q499 577 481 584T445 599T414 611T399 616H379Q379 614 379 607T380 597Q386 519 389 439T405 281Z" />
<glyph unicode="S" glyph-name="S" horiz-adv-x="620" d="M45 -27Q45 -22 45 -7T44 13Q44 33 44 48T46 79T48 112T52 153Q57 167 75 167Q91 167 103 152T126 115T148 73T174 41Q176 39 189 32T224 16T271 0T324 -7Q351 -7 373 2T410 28T433 66T441 113Q441 130
425 150T386 187T338 216T294 228Q289 228 283 225T269 217T256 209T245 205Q246 210 246 214T246 221Q246 235 242 243Q185 272 151 294T99 340T76 391T71 456Q71 486 78 525T105 599Q129 640 172 657T265 675Q293 675 317 670T363 656T407 634T454 605H462L515
668Q516 668 520 668T527 669Q536 669 544 667T556 655Q561 613 566 567T571 478Q571 473 567 470T557 465T545 463T534 462Q528 462 514 474T480 506T435 546T384 587T333 618T286 631Q263 631 240 627T197 613T166 586T154 543Q154 528 165 511T203 473T276 431T392
385Q394 387 400 395T413 413T427 430T437 438Q445 438 449 433T454 420Q454 417 452 411T445 398T438 385T433 374Q467 350 491 329T532 285T555 235T563 171Q563 128 544 90T491 23T409 -23T304 -40Q248 -40 194 -22T105 41Q105 41 103 42Q101 42 97 40T93 35L79
-33Q78 -38 74 -39T65 -40Q57 -40 54 -38T45 -27ZM111 539Q111 535 111 522T111 492T110 462T110 444Q110 431 113 419T120 395Q125 379 134 362T170 326T246 284T379 235Q435 217 454 187T474 120Q474 83 460 43Q469 43 480 52T500 80T516 126T523 187Q523 238
495 272T424 330T330 374T234 415T154 466T111 539ZM477 568Q477 566 484 557T499 537T514 519T524 511H532Q532 511 530 522T526 547T520 576T515 599Q511 596 505 593T492 585T482 577T477 568Z" />
<glyph unicode="T" glyph-name="T" horiz-adv-x="693" d="M148 4Q148 10 150 15T161 20H236Q238 45 242 81T250 162T257 256T260 361V604L199 595L34 489Q33 489 33 485T30 480Q19 480 11 490T3 511L70 687L183 652Q202 646 223 645T266 643Q287 643 306 644T343
645Q372 645 395 645T440 644Q474 644 502 648T560 666Q569 670 575 674T586 683T599 689T618 691Q625 691 629 685L696 548L697 546Q697 544 694 540T688 532T681 525T678 523L562 572L479 604Q467 604 460 598T448 574T442 523T440 436Q440 402 439 364T437 288T435
219T434 168Q434 121 435 93T439 48T446 27T456 21Q466 21 481 23T510 26Q523 26 531 25T540 10Q540 4 538 -4T527 -14L465 -18H161Q152 -18 150 -10T148 4ZM296 458Q296 451 296 430T294 381T293 319T292 254Q292 217 291 187T287 130T284 77T282 21Q294 21 309
21T341 21T371 23T396 25L408 605Q381 596 355 596Q342 596 329 598T302 603Q301 594 300 573T298 529T297 486T296 458ZM119 623Q115 623 112 623T106 624Q98 624 91 614T79 590T71 566T68 554L167 610Q153 619 143 621T119 623ZM643 579Q643 583 641 591T636
608T626 622T612 629Q597 629 577 624T550 604L643 579Z" />
<glyph unicode="U" glyph-name="U" horiz-adv-x="741" d="M232 9Q212 30 199 44T178 70T163 98T151 138T138 200T119 296L90 309Q93 323 98 329T115 340Q116 342 118 352T123 375T128 397T130 410Q130 413 129 423T127 444T125 466T124 479Q124 516 126 552T129
626Q103 626 92 610T75 574T64 538T46 521Q33 521 26 530T18 551Q18 587 33 612T72 653T127 676T190 683Q217 683 243 680T298 676Q323 676 345 680T379 684Q386 684 394 682T402 671Q402 658 392 650T369 635T341 626T320 621Q318 618 316 607T312 583T309 554T307
528Q307 519 307 491T308 432T309 373T310 335Q324 335 336 337T360 340Q368 340 369 335T371 324Q371 300 353 296T313 290V271L351 19Q352 14 365 13T387 12Q441 12 480 33T545 87T587 163T611 249T622 334T625 405Q625 428 625 442T624 460Q624 485 620 510T612
559T603 609T599 659Q599 673 607 678T628 684Q635 684 641 676T648 658Q651 628 654 604T658 558T661 514T662 467Q662 374 658 303T637 178T589 80T506 0Q502 -3 486 -8T451 -19T416 -28T397 -32Q382 -32 358 -30T309 -22T263 -10T232 9ZM171 520Q171 506 170
474T168 397Q168 345 172 285T191 170T231 74T302 21L277 324L271 627Q271 628 261 629T237 631T213 633T201 634Q180 634 174 616T167 576Q167 559 169 544T171 520Z" />
<glyph unicode="V" glyph-name="V" horiz-adv-x="661" d="M263 3Q257 7 252 13T245 28L161 296H100Q95 296 94 303T93 312Q93 325 102 328T121 331T141 334T150 346L99 618H1Q-4 618 -5 624T-6 634Q-6 647 4 653T29 663T57 666T81 668Q96 669 108 670T133 673T160
674T196 675Q199 675 206 675T222 675T238 674T249 674Q260 669 263 662T268 647T271 629T279 612L418 89H424L532 526V532Q533 534 535 546T539 572T543 598T545 612V619Q545 621 544 627T538 634H464Q459 634 458 644T457 659Q457 668 462 672T477 680Q483 681
500 682T535 684T571 686T595 687Q599 687 612 687T639 683T664 674T676 655Q676 642 663 639T635 635Q624 635 617 636T607 637L436 -4Q432 -18 424 -20T406 -23Q369 -23 335 -15T263 3ZM300 33Q300 33 311 30T337 24T366 17T387 14V46L235 624H150Q146 624 138
620T130 612L275 46L300 33Z" />
<glyph unicode="W" glyph-name="W" horiz-adv-x="890" d="M534 329V333Q531 333 530 334T527 335Q525 335 521 322T513 294Q509 276 504 254L454 37Q454 33 460 32T475 27T490 18T497 0Q497 -13 494 -16T472 -19Q456 -18 417 -17T333 -13T249 -9T193 -6Q180 -1
180 12Q180 22 186 28T202 37T221 42T237 43V68L94 571L87 577Q76 554 73 531T69 483Q69 466 72 455T76 430Q76 419 72 417T57 414Q36 414 28 426T19 477Q19 493 19 515T24 558T37 598T63 626Q69 629 80 634T102 645T121 653T131 657H268Q275 657 287 651T299 636Q299
630 296 627T289 621T282 615T279 605Q279 603 279 600T280 595L416 118L422 112L447 173L497 440Q496 445 496 448T496 456Q496 491 506 525T516 595Q510 599 490 603T454 607Q452 611 450 616T447 622Q447 630 452 637T466 645L559 651Q591 651 591 625Q591 611
587 602T571 583Q560 545 553 516T546 451V428L658 74L664 68L763 558V593Q748 593 735 591T707 588Q699 588 694 589T688 601Q688 619 700 629T729 644T764 650T793 651Q797 651 813 651T848 647T880 637T895 616Q895 607 891 601T875 595Q873 595 867 596T854
598T841 600T832 601Q830 601 825 599T820 595L689 0Q687 -10 679 -18T662 -26Q651 -26 644 -20T637 -3Q637 0 639 6L534 329ZM130 587Q130 585 131 583L280 62Q280 60 282 56T288 48T295 40T298 37H386L398 43L229 607H144Q133 607 132 603T130 593V587Z" />
<glyph unicode="X" glyph-name="X" horiz-adv-x="773" d="M390 -16Q390 -7 395 -2T408 8T424 14T440 17V29L316 240Q312 247 307 247Q306 247 305 246H304L138 42H223Q229 42 232 32T236 17Q236 8 223 2T189 -9T144 -15T97 -19T58 -20T37 -21Q33 -21 22 -21T6
-20Q1 -16 -6 -8T-13 2Q-13 18 -1 23T28 30T60 31T80 36L283 296L87 600Q71 625 44 625Q29 625 28 631T24 640Q24 650 36 656T55 662H390Q393 662 401 653T409 638Q409 632 403 628T388 620T371 614T360 612L459 439Q459 436 463 434Q465 433 468 432H470L471 433L638
612V624Q635 624 629 624T616 624T604 625T596 625Q594 625 587 624T571 622T555 620T546 619Q532 619 529 629T526 650Q526 652 526 657T527 662L539 669Q541 670 554 671T585 673T625 676T666 679T698 681T714 682Q729 682 742 678T756 658Q756 655 754 651T750
644L707 625L508 396L490 383L695 29L701 23Q706 24 714 24T734 25Q757 25 772 20T788 -6Q788 -11 787 -15T781 -20Q765 -22 744 -23T704 -25T670 -26T651 -26Q622 -26 590 -26T526 -26T468 -29T421 -39Q409 -39 400 -35T390 -16ZM490 23H654L312 619H127L341 259L347
253L490 23Z" />
<glyph unicode="Y" glyph-name="Y" horiz-adv-x="709" d="M143 31Q143 36 140 47T137 65V69Q143 91 154 111T177 152T196 194T204 240Q204 263 197 269T180 276T163 277T155 289Q155 292 160 296T172 303T187 308T201 311Q197 318 189 336T171 375T154 415T143
442Q143 443 137 464T123 510T108 559T100 588V603Q89 603 74 604T44 609T21 621T11 646Q11 648 11 654T12 662Q20 662 41 664T85 669T129 674T158 676Q167 676 177 675T197 669T212 658T218 638Q218 637 218 637T217 634V631L158 603Q157 601 157 600V597Q157
595 157 592T158 588Q170 535 183 488T208 404T230 347T246 325H260L404 609Q403 612 403 620T402 638Q402 660 407 671T432 683Q455 683 475 682T514 681Q542 681 567 682T619 684T675 686T739 687Q739 669 727 660T700 646T671 640T653 639Q648 620 636 606T608
580L623 566Q620 564 614 558T601 544T588 531T579 522V508Q577 503 562 478T529 424T496 369T479 340Q479 338 479 336T478 331Q478 324 482 322T493 318T503 314T508 304Q508 290 499 284T478 275T454 267T435 253Q409 214 388 164T356 69Q355 67 355 63Q355
55 356 52L358 46H487L502 24Q496 13 471 5T408 -8T321 -17T219 -21T110 -23T2 -24Q2 -17 3 -7T7 11T12 25T21 31H143ZM180 38Q183 38 202 40T242 45T281 50T298 54L608 639Q605 639 598 640T583 642T568 643T557 644Q552 644 544 644T528 642T514 640T507 639Q503
637 494 630T476 614T458 595T447 580L180 54V38Z" />
<glyph unicode="Z" glyph-name="Z" horiz-adv-x="769" d="M61 -21Q61 -20 61 -18T62 -14L167 239Q174 249 183 263T192 283Q178 278 169 277T145 276Q125 276 121 281T117 296Q117 305 119 314T136 327L235 346L415 593Q410 603 399 609T375 619T347 623T322 624Q290
624 250 619T172 600T110 559T85 491Q85 475 91 464T104 445T118 430T124 416Q124 409 118 405T105 400Q90 400 77 409T55 432T41 461T36 491Q36 542 65 576T138 631T230 659T318 668H334L538 624Q580 624 614 630T687 637H712L706 612L502 346Q501 345 501 344V342Q501
333 513 332T541 329T569 326T582 312Q582 295 564 292T526 288Q510 288 493 288T471 289L458 277L365 85Q365 84 364 83Q364 81 378 78T412 70T448 62T471 59Q476 59 477 60L620 16Q625 16 629 16T638 15Q665 15 681 18T706 27T718 40T721 54Q721 61 720 67T719
79Q719 84 721 87T733 91Q762 91 762 63Q762 43 756 26T737 -6T708 -28T671 -36Q660 -36 650 -33L336 34L161 -8Q141 -22 124 -31T87 -40Q77 -40 69 -36T61 -21ZM123 29L304 79Q309 80 314 91T324 116T334 142T346 159L607 569V580H464L396 506L123 54V29Z" />
<glyph unicode="[" glyph-name="bracketleft" horiz-adv-x="472" d="M237 7Q236 11 235 20T233 40T231 59T229 71Q229 72 229 77T230 84Q229 94 227 113T223 153T219 190T215 212Q215 214 215 234T215 283T215 345T216 408T216 457T216 479Q216 481 215 490T213
511T210 531T209 543Q209 544 207 552T201 571T194 591T189 607Q187 610 186 614T183 623L179 633L115 638Q115 637 115 633T114 626Q115 612 116 577T118 497T119 402T121 311T122 240T123 207Q123 203 124 188T127 156T130 124T131 105Q131 102 132 91T134 68T136
44T137 29Q138 26 142 21T148 15L237 7ZM395 660Q397 662 402 668T415 680T428 692T436 700Q438 701 439 701T443 700Q445 700 447 700T449 699Q459 682 459 665T457 628Q457 622 456 615T453 601T447 590T433 586Q422 587 416 595T404 614L255 639Q244 641 242
631T239 616V603L275 17L363 9Q373 8 375 17T377 37T379 58T393 71Q404 62 412 49T427 20T439 -11T447 -36Q447 -38 447 -43T448 -51Q436 -50 427 -47T408 -39T388 -32T366 -27Q340 -25 314 -27T262 -32T209 -37T156 -37Q132 -35 116 -29T97 6L74 592Q74 593 74
597T74 608T75 620T76 629Q77 636 78 650T81 666Q81 671 87 678T95 685L395 660Z" />
<glyph unicode="\" glyph-name="backslash" horiz-adv-x="366" d="M330 -1Q330 -18 312 -18Q306 -18 297 -3T276 34T254 81T234 128Q228 144 211 187T171 286T124 403T79 517T46 607T33 653Q33 659 40 664T53 669Q63 669 76 650T104 605T130 549T152 499Q167 460
176 435T191 391T200 361T206 337T214 312T227 279Q231 269 240 247T260 195T284 134T306 75T323 26T330 -1Z" />
<glyph unicode="]" glyph-name="bracketright" horiz-adv-x="472" d="M377 685Q379 685 385 678T392 666Q393 665 394 651T396 629Q396 626 396 620T397 608T398 598T398 592L375 6Q372 -22 356 -28T317 -37Q290 -39 264 -37T211 -32T158 -27T106 -27Q94 -28 84
-31T65 -39T46 -46T24 -51Q24 -49 24 -44T25 -36Q28 -26 33 -11T44 19T59 48T79 71Q90 69 92 59T95 37T96 17T109 9L197 17L234 603Q233 604 233 608T233 616Q233 621 231 631T218 639L68 614Q62 604 56 596T39 586Q30 585 26 589T19 600T17 614T15 628Q13 647
13 664T23 699Q23 700 25 700T29 700Q31 700 32 700T36 700Q39 698 45 693T57 681T69 668T77 660L377 685ZM324 15Q326 15 330 20T335 29Q335 32 336 43T338 67T340 91T341 105Q341 109 342 123T345 155T347 188T349 207Q349 211 350 240T351 310T352 401T354 496T356
577T358 626Q358 628 358 632T357 638L293 633L289 623Q287 618 286 614T283 607Q281 601 278 591T272 571T266 553T263 543Q263 541 262 532T260 511T257 491T256 479Q256 477 256 457T256 408T256 346T257 283T257 234T257 212Q256 207 254 190T249 153T245 114T243
84V71Q243 68 242 59T240 40T237 21T235 7L324 15Z" />
<glyph unicode="^" glyph-name="asciicircum" horiz-adv-x="409" d="M12 440Q18 469 30 482T69 508L198 663H201Q203 663 204 663T206 664Q216 662 228 660T248 651L379 533Q381 531 386 523T391 512Q391 501 383 499T366 496L236 601Q232 605 227 606Q223 607
220 608Q219 608 219 608T218 607H217L69 446Q58 435 52 431T34 427Q26 427 22 429T12 440Z" />
<glyph unicode="_" glyph-name="underscore" horiz-adv-x="641" d="M48 15Q48 26 57 33T74 44Q101 44 137 43T210 41T281 38T340 37Q358 37 387 38T447 40T508 43T555 44Q569 44 579 41T589 25Q589 0 564 0Q520 -3 464 -4T347 -7T228 -8T120 -8Q92 -8 70 -4T48 15Z" />
<glyph unicode="`" glyph-name="grave" horiz-adv-x="242" d="M232 700Q232 688 227 685T211 682H204Q202 682 200 683L12 743Q11 743 11 744V746Q11 757 19 763T37 769Q37 768 38 768H40H43L231 708V705Q231 703 231 702T232 700Z" />
<glyph unicode="a" glyph-name="a" horiz-adv-x="539" d="M19 71Q19 108 36 134T86 180T162 213T261 237Q284 241 298 243T321 250T332 269T335 312Q335 328 332 342T321 367T299 384T262 391Q245 391 236 384T223 368T217 350T216 335Q216 324 220 320T225 305Q225
295 219 290T204 282T185 279T166 278Q157 278 146 275T123 269T103 263T90 260Q81 260 77 271T72 291Q72 301 79 317T96 349T117 380T136 400Q167 423 193 437T257 452Q274 452 294 450T334 443T374 428T408 406Q423 392 432 375T447 339T455 302T457 269Q457
242 450 214T443 149Q443 134 447 117T459 83T477 57T498 46Q504 46 509 50T520 54Q532 54 536 48T541 33Q541 25 535 14T517 -7T488 -24T450 -32Q421 -32 407 -28T375 -13Q371 -10 363 -3T347 13T333 28T325 35Q292 -5 248 -26T153 -47Q121 -47 96 -35T54 -4T28
35T19 71ZM55 79Q55 61 64 46T88 21T118 5T149 -1Q160 -1 169 3Q159 26 152 50T144 105Q144 128 152 148T175 189Q156 180 135 170T96 146T67 117T55 79ZM185 111Q185 103 186 88T190 57T200 29T216 15Q228 15 241 20T265 34T284 54T293 79L305 204Q284 204 263
199T224 182T196 153T185 111ZM380 298Q380 275 375 258T363 224T351 189T345 147Q345 121 350 97T369 55T404 25T458 13Q426 50 415 90T404 175Q404 193 406 206T412 233T418 260T421 294Q421 308 416 323T401 351T379 372T354 383Q369 360 374 341T380 298ZM183
385Q171 384 159 376T137 354T121 326T114 298Q119 303 135 304T165 306Q172 306 177 306T186 305Q182 316 182 341Q182 352 182 363T183 385Z" />
<glyph unicode="b" glyph-name="b" horiz-adv-x="574" d="M64 2Q64 41 69 82T74 163Q74 201 73 253T70 361T65 470T58 566Q56 565 46 564T22 563Q2 563 -8 568T-18 587Q-18 596 -15 601T-6 610T5 614T14 616Q22 618 38 623T73 635T106 646T127 654Q136 657 149
663T175 676T202 688T227 693Q242 693 247 685T253 662Q253 650 247 643T239 622Q238 611 234 582T224 514T214 435T208 361Q220 373 230 383T254 402T287 414T336 419Q383 419 421 402T485 354T526 281T541 190Q541 153 525 120T479 61T407 16T314 -11Q288 -11
271 -5T232 14Q229 18 228 19T220 21Q206 14 191 4T161 -15T129 -30T96 -37Q74 -37 69 -29T64 2ZM103 371Q105 311 108 250T112 114Q112 108 111 94T109 64T106 31T105 4Q110 8 124 16T152 33T178 50T189 64Q189 65 187 70T181 82T174 96T170 108Q168 116 167 140T165
191T164 242T164 275Q164 314 166 360T173 453T183 548T193 636L98 597Q98 591 99 574T101 544Q101 537 101 510T101 453T102 399T103 371ZM328 369Q313 369 292 362T253 343T221 313T208 274V127Q208 111 216 94T237 64T267 42T303 33Q323 33 339 51T366 99T383
165T389 237Q389 263 386 287T375 329T356 358T328 369ZM411 361Q418 331 422 295T427 217Q427 174 420 131T395 49L420 58Q430 63 443 77T468 110T488 149T496 186Q496 221 488 252T466 306T439 344T411 361Z" />
<glyph unicode="c" glyph-name="c" horiz-adv-x="547" d="M294 -29Q238 -29 191 -18T108 19T53 91T33 204Q33 244 48 283T95 352T173 402T283 421Q313 421 338 416T394 410Q422 410 440 418T472 437Q476 437 482 435T494 429T504 423T508 419V305Q508 295 496
288T475 281Q463 281 449 295T414 327T367 359T304 374Q293 374 284 369T269 355Q250 330 240 305T226 257T220 212T219 172Q219 142 226 113T246 60T275 21T309 6Q351 6 384 23T446 67Q452 74 455 82T462 98T473 111T493 116Q509 116 515 106T521 86Q520 84 517
79T509 68T500 57T493 49Q471 26 450 11T404 -13T353 -25T294 -29ZM89 179Q89 152 97 124T120 72T156 34T205 19H209Q211 19 212 19T214 20Q198 30 190 52T177 98T173 145T172 180Q172 195 174 220T180 271T189 322T199 362Q179 355 160 344T124 313T99 261T89
179ZM462 337Q466 342 467 348T468 359Q468 366 466 373T462 387L418 365L462 337Z" />
<glyph unicode="d" glyph-name="d" horiz-adv-x="665" d="M33 190Q33 235 60 275T124 346T200 395T263 413Q303 413 328 408T368 395T393 381T410 371Q424 398 426 429T429 497Q429 509 429 522T427 548T424 567T418 575Q400 575 386 567T353 559Q339 559 334
566T328 581Q328 591 335 600T351 611Q358 612 385 619T443 635T501 651T536 662Q538 662 542 663T548 666Q555 670 559 673T568 678T576 681T587 682Q607 682 612 676T617 655Q617 640 610 631T602 610Q596 562 590 509T576 401T564 292T555 187Q554 168 552 153T548
124T545 94T543 61Q543 45 547 28Q576 30 597 44T638 78Q662 76 662 54Q662 33 648 19T614 -5T573 -18T535 -22Q515 -22 499 -13T469 9T445 40T427 72Q389 24 331 -7T206 -39Q158 -39 125 -21T71 27T42 100T33 190ZM83 188Q83 135 94 101T123 46T163 18T207 10Q209
10 210 10T212 11Q196 23 185 44T167 90T157 143T154 196Q156 221 160 247Q164 270 170 296T188 349Q130 311 107 267T83 188ZM199 224Q199 199 202 165T215 99T241 45T284 23Q312 23 333 37T370 74T395 125T411 180T419 232T421 271Q421 284 413 300T391 329T359
352T319 361Q293 361 271 351T233 322T208 278T199 224ZM468 584Q468 582 468 574T469 556T469 538T470 527Q470 521 469 493T465 432T462 370T460 332Q460 303 461 274T463 213Q463 201 462 183T460 136Q460 122 463 105T472 73T486 45T506 30Q506 49 508 77T512
135T517 194T523 244Q534 334 541 428T553 605Q547 605 533 605T505 602T480 597T469 587L468 584Z" />
<glyph unicode="e" glyph-name="e" horiz-adv-x="552" d="M28 208Q28 251 59 295T135 374T231 432T325 454Q351 454 383 449T442 430T489 393T508 334Q508 288 483 252T419 190T334 149T247 129Q247 127 247 123T246 116Q246 105 248 91T256 64T268 39T286 22Q288
21 298 21T312 21Q320 21 334 22T365 26T402 36T442 54Q453 60 464 72T487 97T509 119T528 129Q535 129 539 120T543 107Q544 97 516 66Q493 41 462 23T395 -6T323 -23T254 -29Q187 -29 139 5T53 91Q34 117 31 146T28 208ZM78 191Q78 153 90 127T122 82T169 52T223
29Q208 69 198 112T188 198Q188 249 206 299T247 395Q223 388 194 368T139 320T96 259T78 191ZM234 203Q234 193 244 186T272 179Q290 179 309 196T345 238T372 290T383 338Q383 350 379 361T368 382T351 398T328 404Q307 404 290 383T260 331T241 265T234 203ZM410
397Q420 382 424 367T428 337Q428 299 406 263T354 191Q382 207 403 222T438 253T459 286T467 326Q467 332 463 344T452 368T434 388T410 397Z" />
<glyph unicode="f" glyph-name="f" horiz-adv-x="431" d="M31 19Q31 38 40 45T63 54T91 57T117 66Q117 68 117 76T118 87Q118 115 114 140T105 192T96 245T92 303Q72 305 54 308T35 325Q35 334 40 338T53 345T69 349T85 353Q85 420 87 465T96 540T111 591T135
628Q156 649 174 661T210 681T249 690T293 692Q322 692 353 678T414 653Q423 653 429 656T439 663T449 670T461 673Q474 673 489 667Q489 658 491 636T495 588T500 541T502 510Q502 496 499 484T480 471Q470 471 450 488T402 535Q390 548 383 565T367 598T349 625T319
636Q310 636 297 635T279 622Q274 607 272 598T268 579T266 557T266 527Q266 500 267 471T271 417T280 376T298 360Q306 360 316 361T336 363T353 366T362 367Q371 367 378 363T386 347Q386 336 374 329T347 318T317 312T298 310Q308 283 320 219T342 53Q345 45
353 44T370 42T386 37T393 19Q393 4 380 0T353 -5Q351 -5 329 -4T268 -3T174 -1T53 0Q45 0 38 5T31 19ZM123 435Q123 354 133 273T160 110Q161 102 161 94T162 79T166 66T179 53Q194 53 211 53T233 52Q240 52 251 52T272 54T290 59T298 69Q298 89 295 114T286 168T273
227T258 285Q247 326 240 364T228 442T223 529T221 631Q197 630 179 606T148 549T130 484T123 435ZM414 597Q422 584 432 571T452 547V604Q433 604 414 597Z" />
<glyph unicode="g" glyph-name="g" horiz-adv-x="599" d="M174 -274Q144 -274 119 -264T76 -235T47 -190T37 -130Q37 -105 40 -89T53 -62T77 -44T116 -32Q117 -32 124 -32T140 -31T160 -31T178 -29Q203 -42 203 -74Q203 -77 202 -88T199 -112T196 -137T195 -155Q195
-158 198 -169T204 -193T212 -215T218 -226Q264 -217 296 -181T347 -96T374 6T383 102Q369 80 347 65T300 39T250 23T204 18Q167 18 136 29T83 61T48 112T35 182Q35 219 48 259T88 333T152 388T239 410Q251 410 271 402T313 383T352 359T380 336Q379 339 378 349T377
369T376 389T376 401Q376 426 395 431T440 437Q458 437 478 437T517 434T546 425T558 408Q558 401 554 396T543 385T531 376T522 365Q525 333 527 294T530 218Q530 165 527 117T512 22T481 -67T425 -151Q402 -178 378 -200T324 -239T258 -265T174 -274ZM97 -129Q97
-143 100 -163T110 -202T130 -234T162 -248Q164 -248 165 -248T169 -247Q168 -241 165 -226T156 -190T146 -143T137 -92Q130 -93 123 -93T110 -97T101 -107T97 -129ZM409 384Q414 357 417 321T422 245T424 169T425 103Q425 36 412 -29T364 -155Q403 -123 427 -85T465
-4T483 81T488 166Q488 182 487 208T483 267T478 333T470 399Q453 397 438 394T409 384ZM228 148Q231 120 242 98T271 76Q287 76 304 81T336 103T360 148T370 224Q370 281 346 308T282 335Q265 335 255 321T237 286T228 240T225 193Q225 167 228 148ZM82 175Q82
131 115 103T197 75Q199 75 200 75T204 76Q199 91 194 108T185 142T179 171T177 194Q177 236 186 276T213 352Q186 349 163 331T121 287T93 232T82 175Z" />
<glyph unicode="h" glyph-name="h" horiz-adv-x="660" d="M-11 -9Q-11 0 -7 4T3 11T18 15T33 20Q58 30 72 46T93 80T101 120T102 162Q107 262 110 360T114 559Q109 559 104 559T93 558Q78 558 71 563T64 588Q64 600 77 602T102 607Q134 615 175 629T247 662Q251
667 258 674T270 682Q281 682 285 673T290 654Q290 639 282 624T271 595Q268 575 265 546T258 488T253 438T251 416Q251 413 251 402T252 387Q255 390 263 397T280 410T297 423T309 431Q329 445 345 448T385 452Q423 452 455 440T514 400Q538 376 550 347T569 287T576
223T577 161V148Q579 129 582 113Q584 99 587 86T596 69Q598 69 604 69T617 70Q648 70 656 65T665 37Q661 29 646 21T610 7T569 -3T533 -7Q482 -7 452 14T403 82Q401 87 398 95T391 112T386 128T383 137V319Q383 342 371 356T336 371Q322 371 308 357T281 321T259
274T247 225Q245 214 243 195T239 157T235 124T233 106Q233 102 234 92T236 69T238 46T239 31Q244 26 248 25T256 24Q261 24 264 24T273 25Q279 25 288 21T302 0Q302 -18 291 -21T267 -25Q247 -25 237 -24T216 -22T190 -19T144 -18Q124 -18 110 -19T82 -24T56 -30T27
-38H21Q-11 -38 -11 -9ZM235 604Q228 604 216 601T191 594T169 583T158 569Q156 553 156 521T154 429T148 279T133 56V50Q133 45 132 41T127 31H196V220Q197 221 199 242T203 293T209 357T215 419Q215 421 215 431T214 450V458Q214 460 215 462Q215 466 217 483T223
519T230 554T233 576Q234 578 234 589T235 604ZM434 216Q434 176 441 140T465 69Q465 64 475 59T499 51T523 45T537 43Q541 43 550 45T559 51L537 106V270Q534 276 526 297T506 342T474 383T430 401Q428 400 426 400H421Q431 377 435 353T439 304Q439 281 437 260T434
216ZM414 407Q414 410 412 410Q408 410 408 408Q408 404 412 404Q414 404 414 407Z" />
<glyph unicode="i" glyph-name="i" horiz-adv-x="399" d="M49 4Q49 23 59 28T84 33T111 35T130 46Q130 49 130 56T130 72T131 87T131 97Q131 150 127 201T111 304Q99 322 82 325T50 328T23 332T11 354Q11 364 25 372T59 386T97 396T124 404Q162 418 202 433T287
448Q299 448 302 443T306 417Q306 409 305 401T300 385Q300 330 300 283T299 212Q299 185 299 169T302 139T309 111T320 74Q323 60 335 50T360 31T383 16T394 4Q394 -13 382 -17T355 -22Q353 -22 349 -22T343 -21Q314 -12 279 -10T211 -8Q178 -8 147 -11T80 -21Q78
-21 77 -21T74 -22Q49 -22 49 4ZM186 41H286Q283 48 279 62T271 91T264 117T261 127Q261 158 260 191T258 257T256 319T255 372L249 391Q237 387 226 386T200 385Q195 385 185 382T164 376T143 368T130 360Q145 351 152 329T161 291Q161 288 163 262T168 200T172
125T174 54L186 41ZM80 563Q80 607 105 636T168 685Q210 685 235 662T261 597Q261 577 251 557T224 520T187 494T147 484Q111 484 96 506T80 563ZM123 567Q123 548 129 539T155 529Q167 529 179 536T201 554T217 575T224 591Q224 593 218 603T211 616Q211 617 211
621T208 629T202 638T189 642Q177 638 166 631T145 615T129 593T123 567Z" />
<glyph unicode="j" glyph-name="j" horiz-adv-x="463" d="M59 -236Q56 -233 48 -225T31 -208T14 -191T3 -180Q-11 -166 -14 -146T-17 -105Q-17 -83 -17 -59T-16 -24L3 -4Q28 -4 47 -5T91 -12Q104 -15 107 -22T116 -43Q114 -43 113 -52T110 -73T109 -96T109 -111Q109
-137 118 -160T147 -193Q187 -193 205 -173T228 -118Q236 -64 242 -4T248 111Q248 121 248 136T245 169T237 202T222 233Q210 250 198 256T175 266T159 278T152 306Q152 311 153 315T159 321Q161 321 170 321T187 320Q200 320 203 321T209 324T218 328T242 334T293
340T384 346Q386 346 394 340T403 327V257Q403 164 401 95T392 -26T373 -115T341 -180Q330 -196 316 -211T282 -237T237 -255T179 -262Q159 -262 137 -258T97 -248Q88 -246 75 -241T59 -236ZM292 111Q292 110 291 93T287 48T281 -14T272 -81T261 -144T248 -193Q275
-183 296 -155T331 -95T352 -34T359 7V304H319Q298 304 274 302T234 288Q255 271 266 250T284 204T291 156T292 111ZM76 -187L53 -67Q51 -62 45 -61T34 -60V-137L76 -187ZM190 440Q190 445 190 454T191 464Q193 475 202 488T224 512T251 531T278 539Q282 539 294
532T320 514T344 491T354 470Q354 428 330 402T264 376Q227 376 209 388T190 440ZM241 438Q241 429 247 425T263 420Q269 420 276 423T289 430T299 441T304 454Q304 467 294 469T279 471Q264 471 253 464T241 438Z" />
<glyph unicode="k" glyph-name="k" horiz-adv-x="618" d="M28 -3Q28 10 36 17T53 32T71 50T79 79Q84 115 87 141T91 191T93 240T93 301Q93 336 93 361T91 408T87 454T79 511Q76 529 68 535T50 542T29 546T10 560Q10 561 10 562T9 564Q9 578 22 585T48 592Q50 592
51 592T54 591Q62 594 82 603T123 622T164 641T192 654Q196 655 202 660T214 671T227 681T239 686Q254 686 257 677T261 659Q261 648 260 638T254 617Q251 580 249 531T245 436T242 357T241 319Q241 316 241 309T241 293T242 277T242 266Q287 292 333 325T418 397Q404
399 390 403T375 426Q375 442 392 447T434 453Q450 453 469 452T505 448T533 437T545 417Q545 408 539 403T523 395T502 392T480 391L354 292Q387 274 415 243T466 178T510 113T549 65Q556 58 568 54T593 44T615 31T624 12Q624 4 615 0T591 -7T561 -10T532 -11Q516
-11 505 -11T484 -10T465 -7T445 -2Q420 5 404 23T375 65T352 115T329 162T302 198T263 212Q259 212 252 212T242 210L229 198Q229 198 228 190T226 172T224 153T223 141Q223 136 224 123T225 94T227 66T229 47Q232 37 244 35T270 31T295 23T306 1Q306 -15 293
-15Q285 -15 267 -16T226 -18T178 -20T129 -23T87 -26T60 -28Q28 -28 28 -3ZM130 287Q130 274 129 245T124 178T118 102T110 29Q123 29 131 29T147 29T161 31T179 35Q178 37 178 42T178 54Q178 63 180 89T185 148T191 220T198 293T203 354T205 391Q205 397 206
409T207 438T209 471T210 504Q210 509 210 537T205 610Q188 605 158 590T98 560Q110 526 116 488T126 412T129 342T130 287ZM299 239Q328 218 354 194T394 137Q401 120 407 102T426 69T457 44T510 34Q485 56 473 78T448 125T412 181T343 253Q340 253 333 251T319
246T306 241T299 239Z" />
<glyph unicode="l" glyph-name="l" horiz-adv-x="324" d="M3 16Q3 23 9 29T22 35H103Q105 35 107 42T110 54Q110 56 109 64T107 82T105 101T103 116Q91 206 91 296Q91 361 94 425T98 554Q98 562 97 569T92 586Q87 585 81 584T70 583Q59 583 50 587T41 607Q41 614
48 620T66 632T87 641T103 648Q138 661 169 675T229 698Q231 698 232 698T235 699Q248 699 254 685T260 661Q260 649 257 632T251 599T244 569T241 549Q241 491 238 442T232 347T225 254T222 154Q222 134 223 121T229 85Q230 72 233 65T240 55T252 52T270 51H276Q293
51 306 49T320 33Q320 23 316 15T300 4Q268 3 240 2T185 -2T131 -8T72 -15Q71 -15 65 -15T57 -16Q49 -16 40 -15T22 -10T9 0T3 16ZM128 347Q128 306 129 269T134 196T142 124T154 47Q159 47 165 47T177 46Q184 46 188 48T192 60Q189 75 188 86T186 110T185 137T185
173Q185 215 188 268T195 382T202 508T205 638Q202 638 191 635T169 628T147 619T135 610L129 598Q130 594 131 583T133 560T134 538T135 523Q135 502 134 486T132 452T129 409T128 347Z" />
<glyph unicode="m" glyph-name="m" horiz-adv-x="867" d="M33 15Q34 30 45 33T69 37T94 40T106 54Q106 57 104 71T101 99Q101 105 102 129T104 183T106 240T110 278Q108 285 106 294T101 312T95 326T88 332L31 335Q26 335 23 345T19 357Q19 361 20 364T26 369L140
388Q150 390 160 394T179 404T199 413T221 417Q233 417 239 412T248 399T251 382T252 364Q275 372 298 381T344 399T387 413T423 419Q435 419 447 411T472 391T495 368T513 351Q528 363 545 375T582 396T621 412T661 419Q673 419 695 417T738 405T775 379T791 332Q791
289 788 242T785 153Q785 121 785 99T793 62Q797 55 805 53T821 49T836 42T842 24Q842 8 826 5T790 1Q776 1 769 0T755 -2T743 -4T728 -5Q717 -5 702 -5T672 -1T647 8T636 27Q636 89 645 152T655 278Q655 305 648 322T614 341Q603 340 589 334T561 318T539 296T529
271Q537 248 537 215T538 150Q538 137 536 113T530 64T517 21T495 1Q490 0 482 0T466 -1T450 -2T439 -3Q427 -2 417 -1T400 5T389 16T385 37Q385 89 392 136T399 234Q399 279 381 307T339 335Q316 335 299 325T271 299T253 268T246 239L237 44Q243 39 252 38T270
36T285 30T292 14Q292 1 278 -8Q266 -8 240 -8T184 -8T128 -9T89 -10Q57 -8 45 -6T33 15ZM148 265Q148 212 144 159T137 45L191 42Q196 42 197 47T198 54Q198 88 199 116T201 173T204 230T205 293Q205 309 204 326T202 360Q202 359 192 357T170 353T148 347T138
338Q143 312 145 296T148 265ZM445 220Q445 207 444 193T440 159T434 109T428 36Q443 36 457 36T486 40Q491 73 495 115T500 195Q500 280 478 321T417 368Q408 368 396 367T375 360Q401 352 415 337T436 303T444 263T445 220ZM680 47Q680 42 696 40T731 38Q740
38 744 40T748 53Q748 75 745 101T741 149Q741 170 743 192T747 233T752 269T754 294Q754 322 749 337T734 359T711 367T679 368H672Q686 330 691 294T696 216Q696 210 696 202T694 175T689 127T680 47Z" />
<glyph unicode="n" glyph-name="n" horiz-adv-x="631" d="M23 15Q25 29 31 32T47 35Q49 35 50 35T55 34Q70 34 78 40T90 57T95 81T96 108Q96 159 103 211T110 318Q110 351 107 384Q100 384 92 384T75 383T61 382T51 382Q42 384 31 388T20 404Q20 408 26 415T35
426Q41 425 46 425T56 425Q85 425 97 426T115 427T128 429T155 430Q175 430 195 437T233 452Q245 450 253 445T266 437L261 388Q262 387 264 387Q265 386 268 386Q272 386 282 392T297 402Q344 423 372 433T422 444Q432 444 447 439T479 425T508 402T529 371Q543
337 548 315T553 275Q553 261 551 249T547 222T542 189T540 145Q540 136 540 130T542 118Q543 113 546 102T553 79T561 57T568 46Q573 41 581 40T596 36T609 30T615 17Q615 8 601 3T568 -5T531 -8T504 -9Q471 -9 447 8T407 56T384 129T376 220Q376 232 375 254T369
299T354 337T324 354Q310 354 298 347T276 328T260 304T252 280L232 82Q232 47 252 34T305 17Q312 16 312 7Q312 -4 301 -8T276 -12Q264 -12 255 -10T236 -5T217 0T191 3Q155 3 120 -4T51 -20Q37 -18 30 -8T23 15ZM141 364Q141 350 141 335T142 304Q142 295 140
272T136 219T132 156T130 95Q130 74 131 62T135 45T147 38T171 37Q186 37 192 40T198 54Q198 66 194 86Q196 103 198 128T204 182T210 241T216 297T220 342T222 371V375Q222 384 221 394T209 404Q207 404 198 403T177 399T157 393T145 386L141 364ZM376 387Q376
380 381 376T392 364T404 346T413 314Q416 287 415 246T418 161T437 81T488 26Q498 26 508 36T518 57Q518 60 516 72T510 97T505 123T502 140Q502 175 505 209T509 277Q509 305 503 331T476 382Q471 389 462 393T442 399T421 402T404 403Q393 403 385 400T376 387Z"
/>
<glyph unicode="o" glyph-name="o" horiz-adv-x="580" d="M57 82Q37 111 34 143T31 210Q31 259 60 298T134 366T232 410T336 426Q387 426 426 400T493 333T535 246T550 156Q550 100 520 54T432 -18Q425 -21 406 -25T366 -33T326 -40T300 -43Q226 -43 165 -16T57
82ZM225 364Q205 364 179 348T128 306T88 249T71 188Q71 167 77 146T100 107Q113 92 128 76T158 48T188 27T214 18Q204 58 191 100T178 186Q178 197 181 219T190 268T205 321T225 364ZM223 179Q223 160 225 133T235 81T254 38T284 20Q319 20 338 44T366 102T376
176T378 246Q378 265 375 287T365 330T350 363T332 377Q297 377 276 357T243 306T227 241T223 179ZM385 45Q384 43 384 41Q384 32 397 32Q422 32 441 45T474 81T493 130T500 186Q500 249 471 291T394 363Q408 325 413 288T419 215Q419 195 416 173T408 129T397
85T385 45Z" />
<glyph unicode="p" glyph-name="p" horiz-adv-x="596" d="M16 -257Q16 -241 23 -234T39 -223T56 -214T66 -195Q76 -150 82 -113T91 -40T94 35T95 125V161Q95 194 93 227T74 282Q69 289 60 293T41 301T24 313T17 332Q17 335 30 340T64 353T109 368T154 384T192
399T212 413H246V357Q255 361 258 367T267 382Q290 410 316 421T378 433Q402 433 413 432T437 426Q475 408 499 390T538 348T557 290T562 207Q562 195 555 177T537 141T516 106T499 82Q486 67 463 52T416 26T373 8T346 1Q335 1 322 5T294 13T264 22T233 26Q231
26 230 6T228 -43T226 -101T222 -151Q222 -155 222 -164T224 -183T225 -203T226 -215Q243 -215 252 -221T262 -242Q262 -250 257 -256T242 -263Q195 -266 163 -268T109 -271T75 -272T55 -273Q39 -273 28 -270T16 -257ZM137 176Q137 173 136 162T134 139T131 115T130
101Q130 28 126 -46T111 -213Q121 -213 131 -213T147 -214Q154 -214 161 -213T173 -208Q179 -165 183 -107T187 14Q187 23 186 32T185 53Q185 62 186 71T193 88Q192 96 192 115T192 157Q192 183 193 199T195 226T198 246T199 270Q199 275 199 287T199 314T200 341T200
359Q194 358 178 353T145 341T114 326T98 313Q104 304 109 294T119 273T127 255T130 245Q131 232 133 220Q135 209 136 197T137 176ZM236 82Q261 70 292 64T349 57Q372 57 387 72T411 112T423 167T427 227Q427 263 424 287T413 328T389 357T349 382Q319 367 297
337T259 269T237 190T230 112Q230 103 231 99T233 93T236 90T237 85Q237 84 237 84T236 83V82ZM474 255Q474 215 463 178T443 101Q443 100 442 96T441 89Q475 120 500 159T525 247Q525 267 519 291T499 337T467 373T423 388Q422 388 419 388T413 387Q427 377 438
362T457 328T469 291T474 255Z" />
<glyph unicode="q" glyph-name="q" horiz-adv-x="664" d="M314 -232Q323 -215 331 -211T347 -207T366 -206T389 -195Q394 -175 394 -154T395 -113Q395 -85 396 -63T398 -21T401 14T402 49Q402 59 395 63Q373 41 350 28T304 7T263 -3T232 -6Q188 -6 152 7T89 46T47
106T32 186Q32 212 39 237T58 287Q84 350 133 388T251 426Q277 426 303 422T352 407Q352 406 356 403T368 396T382 388T395 382V388Q395 389 394 394T392 404T390 414T389 420Q389 432 394 437T407 445T424 448T439 451Q466 460 489 466T534 475T577 480T623 482Q647
482 647 457Q647 446 642 441T627 432Q602 411 590 387T571 332Q570 322 569 301T565 254T561 198T557 143T554 95T551 63Q551 38 552 8T556 -52T565 -111T582 -163Q588 -175 597 -177T616 -181T633 -188T640 -213Q640 -216 639 -220T633 -226Q622 -225 610 -225T587
-224Q535 -224 487 -233T383 -252Q372 -252 363 -255T340 -258Q332 -258 323 -254T314 -236V-232ZM439 135Q439 97 438 56T436 -28T433 -111T432 -190Q442 -190 459 -188T493 -182T523 -176T539 -170Q539 -152 531 -135T520 -101Q519 -97 517 -76T513 -31T510 14T508
35Q508 38 508 48T511 69Q512 81 514 96V136Q514 135 515 150T518 190T522 245T526 303T530 354T533 388Q536 396 541 410T551 432Q531 432 508 427T464 413Q453 408 447 405T437 397T433 385T432 366Q432 342 433 326T435 288T438 231T439 135ZM277 363Q229 331
206 277T183 152Q183 136 184 118T192 83T211 56T246 45Q285 45 315 64T365 114T395 181T405 252Q405 304 379 337T306 371Q294 371 290 370T277 363ZM77 191Q77 181 80 168T87 143T95 119T101 100Q105 93 114 85T133 71T151 60T164 55Q164 61 161 74T155 103T148
131T145 151Q145 189 149 219T160 275T176 323T195 370Q170 368 149 348T111 300T86 242T77 191Z" />
<glyph unicode="r" glyph-name="r" horiz-adv-x="533" d="M28 23Q28 31 36 34T54 38T75 40T90 47Q103 61 107 98T112 179Q112 205 111 231T109 278T106 312T103 329Q99 345 86 348T57 354T31 361T19 387Q19 396 26 398Q41 399 64 402T114 408T167 415T215 422T251
428T266 430Q289 430 289 399Q289 379 287 360T278 323Q291 334 305 355T335 397T368 433T406 449Q431 449 452 437T488 406T511 364T520 317Q520 299 516 281T500 247T472 222T429 212Q408 212 396 226T377 260T363 302T350 343Q319 314 301 286T273 229T261 174T258
120Q258 106 258 92T259 55Q259 42 267 38T285 32T303 26T311 10Q311 -2 299 -9Q291 -9 283 -9T267 -8Q219 -8 174 -11T82 -15Q59 -15 44 -9T28 23ZM134 34Q141 31 153 31Q164 31 176 34T199 41T215 52T222 66Q222 108 223 142T226 210T232 285T245 380Q213 379
182 377T122 372Q136 345 141 309T147 230Q147 173 142 125T134 34ZM388 399Q388 378 392 353T403 305T419 268T440 253Q463 253 473 272T483 315Q483 333 475 348T454 374T423 392T388 399Z" />
<glyph unicode="s" glyph-name="s" horiz-adv-x="490" d="M45 -4Q34 -4 29 4T23 22Q23 35 28 44T40 63T54 81T65 104Q68 112 70 121T75 138T85 151T103 156Q119 156 131 133T160 83T200 32T263 9Q274 9 286 10T307 15T323 26T330 46Q330 64 310 85T260 130T194
178T128 228T77 279T57 330Q57 366 77 388T128 422T192 439T254 446Q261 446 274 446T304 447T340 447T380 448Q401 448 414 447T434 441T443 427T446 399Q446 376 446 355T443 319T437 294T423 285Q401 285 384 302T352 341T320 379T281 397Q275 397 262 397T234
394T209 386T198 372Q198 341 217 317T264 272T325 230T387 188T434 140T453 79Q453 39 431 17T375 -17T303 -30T231 -33Q184 -33 138 -22T45 -4ZM84 35Q91 27 107 22T162 14Q159 21 151 33T134 59T115 83T99 98Q96 94 93 84T88 64T85 45T84 35ZM99 329Q99 311
119 290T169 246T234 197T299 144T349 88T369 30Q376 33 385 36T402 45T415 58T421 78Q421 97 401 118T350 163T284 212T218 264T167 319T146 378Q99 371 99 329ZM340 404Q346 398 355 388T374 367T392 346T406 329Q407 342 408 352T410 371Q410 388 402 397T365
406Q360 406 354 406T340 404Z" />
<glyph unicode="t" glyph-name="t" horiz-adv-x="459" d="M119 151Q119 152 120 169T124 210T129 262T133 310Q133 311 133 317T132 331T132 344T131 354H8Q1 354 -2 363T-6 377Q-6 392 8 398Q24 399 46 400T88 403T125 407T145 411Q147 423 149 436T151 466Q151
469 150 477T148 495T146 512T145 523Q145 523 142 523T132 522T119 520T107 517Q96 517 86 525T76 546Q76 558 85 565T110 578T144 586T183 592Q184 592 189 592T201 591Q203 591 205 591T208 592Q222 596 235 603T262 618T290 631T321 636Q338 636 341 625T345
597Q345 598 343 586T339 556T334 518T332 484Q332 476 332 464T333 440T334 418T335 404Q358 404 380 408T425 412Q435 412 443 408T451 392Q451 387 451 383T445 372Q430 372 412 371T378 367T349 364T333 361Q330 359 326 345T319 313T312 277T308 247Q308 227
306 212T301 181T296 146T294 101Q294 81 309 64T345 47Q353 47 363 48T383 49Q397 49 408 45T420 26Q420 25 419 24V23Q408 8 387 -1T343 -14T298 -20T263 -21Q218 -21 190 -5T146 36T125 91T119 151ZM169 154Q169 129 171 107T182 69T208 44T258 35Q260 35 267
35T276 36Q263 56 260 75T257 119Q257 152 260 178T263 221Q263 236 263 245T264 260T266 272T270 286Q283 364 286 432T290 574Q286 573 272 570T242 560T214 545T201 524Q201 502 199 469T193 399T185 324T178 252T172 192T169 154Z" />
<glyph unicode="u" glyph-name="u" horiz-adv-x="645" d="M400 87Q395 66 375 47T328 12T273 -12T222 -21Q186 -21 158 -5T110 35T80 88T69 143V310Q69 322 63 329T50 344T37 360T31 383Q31 394 42 400T68 408T100 411T129 412Q135 412 147 412T172 412T199 412T219
410L256 397Q256 369 253 334T247 262T240 190T237 128V117Q237 106 237 96T242 78T254 65T276 60Q283 60 288 61T299 65T313 73T332 87Q333 89 339 97T353 115T366 133T372 143V397Q372 409 387 415T426 425T481 429T543 430Q554 430 561 426T569 404Q569 400
568 397T562 391Q559 369 555 351T546 314T540 277T537 235Q537 212 538 188T543 141T554 98T574 61Q583 49 595 41T618 28T636 21T644 17Q644 10 634 1T610 -15T579 -28T551 -33Q521 -33 498 -24T457 2T425 40T400 87ZM418 296Q418 282 419 251T423 185T432 119T450
74Q467 53 489 35T541 17Q543 17 548 17T556 18Q537 34 525 59T505 112T496 171T493 228Q493 249 497 268T506 305T515 343T519 386L431 379Q427 379 425 371T421 351T419 324T418 296ZM123 370Q116 341 114 313T112 255Q112 232 112 210T114 167Q114 153 119 130T134
85T163 47T207 30Q200 50 196 61T190 81T187 97T186 119Q186 131 188 152T194 200T199 255T202 310Q202 313 202 321T201 339T199 355T198 363L192 370H123Z" />
<glyph unicode="v" glyph-name="v" horiz-adv-x="587" d="M14 365Q4 368 1 372T-3 392Q-3 406 14 414T55 425T104 430T145 431Q171 431 195 418T227 382Q253 298 275 228T322 104Q324 99 329 90T339 72T348 56T355 49Q373 85 388 118T417 180T440 231T456 267Q462
278 467 295T472 328Q472 355 459 361T431 369T402 373T389 397Q389 408 392 413T407 423Q442 420 476 415T547 410Q551 410 554 410T560 411Q573 411 581 406T589 379Q583 370 577 367T563 362T547 360T528 358Q527 333 522 307T500 242T456 147T381 5Q376 -4
356 -7T313 -10Q286 -10 262 -8T217 2T181 25T155 68Q140 105 131 143T114 217T96 286T72 347Q65 360 49 360T14 365ZM106 386Q108 376 114 351T129 292T149 222T173 149T197 86T222 42H302Q288 66 275 100T249 172T222 248T190 316T153 365T106 386Z" />
<glyph unicode="w" glyph-name="w" horiz-adv-x="828" d="M176 32Q153 78 139 112T116 177T99 241T81 321Q76 340 62 349T33 366T6 383T-6 412Q-6 420 2 429T19 440Q35 443 57 445T101 450T137 453T154 454Q173 454 190 447T219 415Q233 382 243 344T263 268T283
192T307 120Q308 118 310 114T313 108Q319 111 324 124T335 153T344 184T351 208Q354 216 359 237T371 282T381 327T388 358Q391 371 391 385T392 412T398 431T415 439Q426 439 446 438T495 433Q504 428 508 419T516 399T521 377T526 358Q529 348 537 324T554 274T571
225T582 191Q594 163 605 140Q614 120 623 103T639 81Q644 94 656 128T681 203T704 285T714 357Q714 364 714 369T712 380Q699 380 686 381T662 388T645 401T638 423Q638 438 654 442T689 447Q729 447 755 447T795 443T815 435T821 420Q821 409 817 404T806 396T791
391T777 385Q777 384 772 365T759 314T739 244T717 166T695 92T677 31Q670 8 660 -3T617 -14Q586 -14 560 -5T514 31Q498 52 481 83T447 144T420 196T407 220Q403 214 397 199T384 163T370 120T358 80T349 50T345 39V8Q338 5 335 3T329 -2T323 -5T312 -6Q281 -6
259 -3T213 1Q213 1 207 4T194 12T182 20T176 26V32ZM100 378Q112 370 121 351T137 307T151 255T161 202T169 159T176 133Q180 123 189 108T208 79T229 55T245 45Q249 45 255 45T267 47T277 51T282 57Q282 77 273 103T257 151Q251 172 242 205T221 274T199 342T175
396Q169 406 160 407T142 409Q123 409 109 408T75 403Q78 395 85 389T100 378ZM425 299Q425 280 432 259T448 218T468 179T487 145Q507 105 521 83T548 49T574 34T608 31Q579 87 548 168T488 339Q485 349 483 358T476 375T466 389T447 399Q439 375 432 349T425
299Z" />
<glyph unicode="x" glyph-name="x" horiz-adv-x="669" d="M324 -19Q324 -2 330 3T346 10T363 11T374 20Q359 39 349 54T328 82T308 107T284 133Q278 133 263 124T228 101T186 72T146 44Q144 42 141 40T135 37Q140 26 154 25T184 23T211 18T223 -1Q223 -14 216
-18T182 -23Q168 -23 141 -23T84 -23T28 -21T-10 -19Q-10 -11 -8 -1T8 12Q35 17 51 22T74 34Q87 46 107 61T150 93T195 126T233 156Q233 157 235 159T237 162Q230 184 220 201T198 235T173 268T146 305Q138 314 133 330T120 353Q112 359 102 361T82 365T66 374T59
398Q59 405 63 411T75 418H294Q295 420 301 422T310 424Q315 424 322 422T337 414T349 402T354 386Q354 380 350 373T344 362H294Q294 360 302 351T322 329T347 304T370 281Q378 273 383 266T401 258Q406 258 424 271T462 301T499 335T518 359Q504 360 490 365T476
387Q476 396 482 398T496 401Q495 401 509 400T543 398T585 394T624 388Q629 386 632 380T635 368Q635 357 614 352T563 347Q547 333 524 312T480 272T445 237T430 220Q430 217 437 206T454 181T473 155T487 139L512 109Q514 107 520 97T535 74T549 51T558 37Q558
29 574 28T611 26T648 19T665 -4Q657 -11 646 -16T616 -25T568 -31T494 -33Q446 -33 413 -35T354 -46Q331 -46 328 -39T324 -19ZM167 359Q167 343 175 336T191 318Q215 283 235 253T284 192Q325 156 357 114T421 26Q425 26 438 26T456 25Q479 25 495 27T512 32V37Q503
50 492 66T470 98T452 124T441 139Q434 139 431 146T415 172T374 221T288 299Q283 306 275 316T258 336T242 352T233 359H167Z" />
<glyph unicode="y" glyph-name="y" horiz-adv-x="615" d="M24 -74Q24 -64 30 -59T45 -50T65 -47T88 -46Q101 -46 114 -48T138 -60T156 -94T163 -159Q170 -168 177 -177T193 -195T212 -208T234 -213Q246 -213 262 -196T293 -153T318 -99T328 -48Q328 -17 317 10T288
65T250 119T210 178Q180 228 146 267T59 328Q52 331 42 333T21 338T4 348T-4 364Q-4 382 10 390T46 403T95 410T147 415Q148 415 153 415T165 414T181 412T197 409Q212 402 229 384T264 343T297 297T322 259L384 158Q387 154 391 147T401 131T410 115T416 103H422Q426
112 445 174T491 353Q491 354 491 360T490 368Q474 368 460 366T433 363Q428 363 421 363T407 366T396 373T391 384Q391 385 395 393T403 403L597 415Q598 415 602 412T610 406T618 399T622 396Q622 387 614 382T593 375T566 373T541 371Q528 282 500 200T441 33Q433
10 420 -22T389 -87T353 -154T313 -213T271 -255T231 -271Q208 -271 184 -259T136 -227T93 -184T57 -139T33 -100T24 -74ZM116 353Q133 333 153 319T191 284Q241 224 277 164T348 43Q350 39 353 31T361 15T368 0T375 -7Q380 -7 384 0T391 16T395 34T397 46Q371
90 346 141T291 234Q277 251 262 272T229 313T195 346T161 359Q147 359 138 359T116 353Z" />
<glyph unicode="z" glyph-name="z" horiz-adv-x="580" d="M29 1Q30 14 40 31T66 66T97 101T126 132Q128 134 134 141T148 158T161 175T170 185Q185 209 198 234T225 285T254 334T289 377Q261 377 238 376T192 370T147 356T101 331Q90 323 80 311T56 298Q46 298
39 307T32 328Q32 346 37 366T50 405T67 435T84 447Q98 447 111 443T139 438Q176 437 221 436T311 434T399 432T474 430Q480 430 487 429T501 424T512 415T517 398Q517 399 517 396T516 387Q512 382 502 371T480 346T459 321T445 304Q436 292 421 271T389 223T353
168T319 117T294 79T284 61Q284 59 296 56T313 51Q360 51 396 64T474 105Q490 116 504 130T539 145Q553 145 556 141T559 119Q559 117 557 106T551 81T542 50T533 22Q531 15 531 7T528 -8T521 -19T509 -24Q504 -24 500 -23T490 -17Q469 -11 448 -6T407 2T373 6T352
8Q316 8 280 4T207 -7T133 -17T57 -22Q47 -22 38 -19T29 1ZM346 383Q320 366 297 335T252 270Q249 266 241 250T222 214T202 178T190 157Q161 118 133 85T90 26Q92 25 96 25T104 25Q125 25 147 32T190 42Q194 42 197 42T203 41Q220 41 227 46T245 67Q280 115 312
167T379 271Q386 281 396 298T417 331T434 358T441 371V377L346 383ZM426 41Q431 33 445 31T473 29Q480 29 485 29T494 30Q496 30 498 37T503 54T507 70T509 77Q503 74 492 70T468 60T445 50T426 41ZM119 407Q107 407 99 397T89 370Q90 370 103 372T134 379T166
387T186 396Q185 396 175 397T153 401T131 405T119 407Z" />
<glyph unicode="{" glyph-name="braceleft" horiz-adv-x="436" d="M210 171Q210 195 214 218T218 265Q218 281 212 291T199 310T185 327T179 346Q179 358 185 363T199 372T214 381T223 396L272 651Q260 649 248 642T224 626T203 606T186 589Q162 565 158 534T151
470T141 405T99 347Q107 325 108 303T110 259Q110 220 113 180T130 109T173 57T257 37H285Q253 66 232 96T210 171ZM415 0Q410 0 406 0T396 1Q361 1 328 -6T257 -13Q215 -13 179 4T115 50T71 117T55 196Q55 217 58 237T62 279V304Q56 313 47 317T28 324T12 331T5
346Q5 359 11 364T28 371T48 373T68 379Q71 380 76 384T86 393T95 402T99 409L124 577Q127 600 157 623T225 666T303 698T365 710Q371 710 380 710T397 707T410 701T416 688Q416 679 401 674T366 662T328 646T304 620Q293 589 291 559T289 500T285 441T266 384Q261
374 254 362T247 347Q247 331 257 316T267 281Q267 255 261 230T254 179Q254 155 265 133T294 95T335 68T382 58Q397 58 409 62Q420 56 424 45T429 21Q429 13 427 8T415 0Z" />
<glyph unicode="|" glyph-name="bar" horiz-adv-x="221" d="M97 40Q95 54 94 88T92 159T91 231T91 279Q91 309 89 325T85 360T81 410T79 499Q79 520 80 543T84 587T92 620T106 633Q112 633 121 627T131 614Q132 482 133 399T135 264T138 182T139 128Q139 107 138
87T135 52T129 27T120 18Q100 18 97 40Z" />
<glyph unicode="}" glyph-name="braceright" horiz-adv-x="436" d="M21 0Q11 3 9 8T7 21Q7 33 11 44T27 62Q39 58 54 58Q78 58 101 68T142 94T171 133T182 179Q182 205 176 230T169 281Q169 301 179 316T189 347Q189 349 182 361T170 384Q155 412 152 441T148
499T145 559T132 620Q126 637 108 646T70 661T35 673T20 688Q20 696 25 700T39 707T56 709T71 710Q86 710 109 705T158 689T210 666T259 639T295 608T312 577L337 409Q337 407 341 403T349 393T359 384T368 379Q377 374 387 374T408 372T424 365T431 346Q431 336
424 332T408 324T390 317T374 304V279Q374 257 377 237T381 196Q381 155 365 117T322 50T258 4T179 -13Q141 -13 108 -6T40 1Q35 1 31 1T21 0ZM226 171Q226 126 205 96T151 37H179Q233 37 262 57T306 108T323 180T326 259Q326 281 327 303T337 347Q304 373 296
405T285 470T279 534T250 589Q243 596 234 606T213 625T189 642T164 651L213 396Q215 386 222 381T237 373T251 364T257 346Q257 335 251 327T238 311T224 292T218 265Q218 241 222 218T226 171Z" />
<glyph unicode="~" glyph-name="asciitilde" horiz-adv-x="644" d="M42 284Q42 310 60 326T98 360Q123 383 157 391T224 399Q230 399 244 398T260 397L445 347Q446 347 449 347T454 346Q501 346 532 362T588 416Q600 416 604 412T613 397Q608 371 594 354T558
325T513 309T466 304H452L235 354H223Q186 354 162 340T122 307T92 275T64 260Q52 260 47 267T42 284Z" />
<glyph unicode="&#xa0;" glyph-name="uni00A0" horiz-adv-x="240" />
<glyph unicode="&#xa1;" glyph-name="exclamdown" horiz-adv-x="323" d="M112 226Q112 185 116 137T131 49Q133 38 141 37T157 36Q175 36 189 37T224 43Q235 61 236 73T237 103Q237 119 233 135T229 165Q229 167 229 169T230 173L175 371L156 390Q154 388 149
380T139 363T129 345T125 334Q125 333 124 320T120 290T115 254T112 226ZM68 238Q68 260 71 294T84 360T114 416T166 440Q186 440 199 422T217 384L280 86Q280 59 269 41T239 13T197 -2T151 -7Q132 -7 113 1T88 30Q86 41 84 68T78 126T73 184T69 222Q69 224 69
230T68 238ZM93 596Q93 581 100 570T120 550T146 537T175 532Q199 532 212 549T225 588Q225 617 207 634T160 651Q149 651 137 647T116 636T100 618T93 596ZM50 596Q50 617 60 634T85 663T120 681T159 688Q177 688 193 684T222 671T242 648T250 615Q250 603 248
583T239 543T216 509T175 495Q150 495 128 500T88 518T60 550T50 596Z" />
<glyph unicode="&#xa2;" glyph-name="cent" horiz-adv-x="494" d="M165 21Q165 22 167 32T172 58T178 89T185 118V120Q185 124 183 126T179 130Q153 144 128 160T82 196T48 242T35 301Q35 303 35 308T36 316Q43 368 61 413T109 496T179 560T271 602Q274 616 279
632T290 662T302 689T314 707Q328 707 331 697T334 678Q334 662 331 647T327 616Q327 614 344 606T385 584T431 554T463 521V516Q463 514 464 512Q464 489 442 489Q440 489 437 489T432 490Q418 506 406 519T379 541T347 554T305 559Q288 559 272 556T253 539L172
198Q172 197 172 194T171 189Q171 184 172 180T179 173Q207 158 225 153T271 147Q309 147 339 167T396 217H398Q399 217 400 217T402 218Q408 218 414 214T421 202Q421 182 406 168T377 143Q351 121 323 113T262 104Q254 104 245 104T228 105L203 6Q203 3 196 -2T187
-7Q173 -7 169 1T165 21ZM79 304Q79 272 91 246T129 198L135 211L191 502H185Q183 502 178 499T167 490T156 480T147 471Q118 437 99 393T79 304Z" />
<glyph unicode="&#xa3;" glyph-name="sterling" horiz-adv-x="673" d="M221 35Q192 35 163 26T105 17Q97 17 84 23T57 40T35 62T26 87Q26 99 27 110T40 126Q43 123 50 118T67 107T83 96T94 89Q95 88 97 88H101Q109 88 118 101T135 133T150 169T160 196Q163 208
167 226T177 262Q182 282 187 304L134 340V359Q138 357 149 358T174 362T198 369T213 376Q215 378 219 388T227 411T235 434T240 447Q259 487 281 528T329 604T388 660T459 682Q480 682 502 678T545 664T583 636T613 592Q614 590 615 584T618 570T620 557T621 548Q598
548 590 555T576 570T560 586T522 593Q502 593 487 593T454 574Q432 550 416 524T387 465Q382 453 375 436T362 401T351 372T346 359L360 340H462Q462 326 453 319T429 308T398 303T365 298T337 289T321 270Q318 261 312 240T299 197T288 154T280 126Q280 125 280
118T279 107Q279 83 292 72T321 53Q328 50 340 44T366 33T388 23T400 17Q401 17 408 17T426 16T445 16T460 15Q464 15 472 15T490 16T508 16T520 17Q566 70 600 143Q601 143 603 144Q604 144 605 144T607 145Q618 145 627 126Q625 119 620 104T608 71T596 38T587
17Q580 1 568 -9T543 -26T515 -35T487 -38Q453 -38 420 -27T354 -2T288 23T221 35ZM422 610Q398 610 373 586T324 526T283 445T254 359Q251 351 242 324T222 266T201 205T187 160Q182 146 177 126T172 87Q186 87 201 93T227 107Q231 122 242 153T266 222T295 304T324
386T348 456T364 502Q368 514 375 528T391 556T408 585T422 610Z" />
<glyph unicode="&#xa4;" glyph-name="currency" horiz-adv-x="488" d="M65 147Q65 148 66 149L121 217V219Q121 220 121 220T122 222V221Q121 221 111 241T72 310Q71 313 71 324T71 338Q71 350 74 361T81 382T88 404T91 428Q79 438 70 446T54 462T43 481T39 505Q66
505 85 493T121 459Q122 459 124 459T128 458Q143 458 155 467T178 486T202 506T230 515Q254 515 274 506T318 496H326L382 564Q383 566 388 568T395 571Q402 571 407 565T413 552Q413 547 405 535T388 509T371 487T363 478Q394 441 410 409T426 332Q426 298 410
269T370 217V204L413 149V130H382L326 186Q307 186 290 180T254 173Q231 173 210 183T164 193Q163 193 163 193T161 192H159L103 130Q103 129 98 127T91 124H88Q80 124 73 129T65 143V147ZM121 336Q121 309 133 287T165 249T209 225T259 216Q269 216 276 218T289
225T300 233T314 242Q333 251 346 259T367 278T379 304T383 344Q383 354 382 368T376 397T365 423T345 440L264 471Q263 472 259 472T252 472Q238 472 223 464T193 444T161 414T128 379Q122 368 122 358T121 336Z" />
<glyph unicode="&#xa5;" glyph-name="yen" horiz-adv-x="640" d="M152 16Q152 26 157 32T171 43T189 48T207 50Q213 50 216 62T220 90T221 121T221 145Q221 148 221 152T220 162V173L146 186L121 211L134 223H227Q234 223 234 231T234 242Q234 246 233 249T227
254Q213 256 195 259T161 267T133 276T121 285Q121 299 127 301T144 304Q167 304 188 301T233 298V310L140 620L121 638Q117 642 102 642T70 643T41 650T28 671Q28 672 30 675T34 683T40 691T47 695H277Q290 701 302 701Q308 701 313 699T320 688L390 454L456 620Q458
647 463 662T480 685T509 694T555 696Q562 696 573 696T594 695T611 689T618 676Q618 667 608 662T582 653T550 649T519 645L512 638L395 372V326H475Q477 326 479 316T482 304Q482 301 481 295T475 288H396Q396 284 396 272T395 252Q395 250 395 244T397 232T399
222T401 217H475Q476 217 480 212T487 204L488 202Q488 193 475 189T445 183T415 179T401 173V51L475 37Q479 36 480 29T482 19Q482 14 481 11T475 6Q460 6 423 5T342 3T261 1T208 0Q199 0 192 -1T176 -2Q165 -2 159 1T152 16ZM278 302Q278 238 274 176T269 50H345L357
55Q357 63 357 81T358 112Q358 129 357 148T351 179Q348 185 343 187T337 198Q337 210 351 217V279Q343 281 338 285T332 298Q332 307 336 311T351 322V428L283 645Q283 645 275 646T256 648T234 650T214 651Q207 651 196 649T184 645V632L277 372Q277 372 277
364T277 344T278 321T278 302Z" />
<glyph unicode="&#xa6;" glyph-name="brokenbar" horiz-adv-x="174" d="M64 257Q75 257 82 250T94 232T99 210T101 191Q101 180 100 161T96 124T92 93T89 78L76 65L64 78V257ZM96 620Q104 620 108 613T113 597T115 579T114 564Q114 522 111 487T101 404H76V606Q76
613 83 616T96 620Z" />
<glyph unicode="&#xa7;" glyph-name="section" horiz-adv-x="627" d="M95 72Q82 52 66 40T26 28Q26 41 35 63T59 108T89 146T120 162Q121 162 125 162T132 160Q131 155 132 145T135 122T140 100T145 85Q146 83 150 79T161 71T173 64T182 59Q183 59 192 58T214
54T238 49T258 46H264Q279 46 299 49T339 61T372 82T386 117Q386 120 385 127T383 135Q381 138 376 144T365 156T354 166T345 172L195 223Q194 223 189 228T178 239T166 251T157 261Q146 275 139 296T131 336Q131 375 155 406T207 462Q186 479 171 497T156 544V555Q156
559 157 562Q167 598 186 618T231 649T287 661T351 664Q357 664 366 664T385 664T401 663T409 662Q415 662 431 657T465 646T499 634T521 625Q523 636 527 644T540 652Q551 652 560 637Q560 634 558 625T554 606T550 587T547 575Q545 573 541 568T534 562Q529 565
515 572T484 588T454 602T434 612Q420 618 411 621T393 626T375 627T350 627Q345 627 339 627T326 627T314 626T308 625Q303 624 293 621T270 614T247 606T232 600Q239 587 262 580T312 569T367 560T409 550Q461 527 499 499T572 424V399Q572 365 562 346T535 313T499
285T459 248Q462 245 469 238T485 223T500 208T509 197Q522 183 522 171T523 141Q523 137 522 125T521 110Q517 105 507 94T484 71T461 49T446 34Q444 32 434 27T421 21Q376 15 327 12T229 8Q209 8 192 9T157 21Q153 24 144 31T125 46T107 61T95 72ZM169 316Q169
281 189 265T240 238T305 220T368 195T412 147T421 59Q425 62 434 71T453 90T472 109T484 122Q489 128 493 137T497 154Q496 154 496 155V157V160L421 236Q412 237 391 241T345 252T300 264T270 273Q270 273 264 277T250 288T233 300T220 311Q205 323 198 338T182
374Q173 356 171 345T169 316ZM231 365Q231 362 231 356T232 348Q233 346 238 341T249 329T261 318T270 311Q285 300 302 299T336 297Q386 297 386 348Q386 368 376 383T349 407T314 421T277 426Q272 426 260 426T245 424Q237 407 234 395T231 365ZM205 537Q205
533 206 530Q206 527 207 525Q224 497 251 484T308 464T364 449T409 424Q419 413 424 397T433 362T436 326T437 296Q445 296 457 303T471 311Q483 319 496 327T521 346T539 369T547 399Q547 401 542 411T534 424Q531 428 524 436T508 452T493 466T484 474Q477 478
463 486T432 502T402 517T383 525Q374 527 349 531T296 539T243 546T207 550Q207 548 206 544T205 537Z" />
<glyph unicode="&#xa8;" glyph-name="dieresis" horiz-adv-x="582" d="M126 746Q126 758 132 768T148 784T169 794T192 798Q212 798 222 785T232 754Q232 730 218 717T180 703Q171 703 162 706T144 715T131 729T126 746ZM328 746Q328 758 334 768T349 784T371
794T394 798Q413 798 423 785T434 754Q434 730 419 717T381 703Q364 703 346 715T328 746Z" />
<glyph unicode="&#xa9;" glyph-name="copyright" horiz-adv-x="640" d="M47 337Q47 371 63 406T104 472T161 526T222 562Q227 564 241 568T260 575Q262 576 269 577T285 581T301 585T311 587Q312 588 319 592T335 600T351 608T361 612Q363 613 369 613T380 614Q384
614 390 614T398 612Q438 599 472 575T532 519T573 449T588 368Q588 315 570 274T524 186Q509 161 487 148T438 129T384 122T331 121Q293 121 257 126T190 143T131 178T84 236Q79 245 73 257T61 283T51 311T47 337ZM96 346Q96 292 116 254T170 192T249 157T346
146Q366 146 387 147T429 153T467 168T499 198Q502 203 508 212T520 232T531 250T537 261Q539 267 543 282T551 313T558 343T562 362Q562 363 561 370T557 388T553 408T549 424Q542 453 530 474T500 510T461 538T411 562H409Q408 562 407 562T405 563Q404 563 402
563T398 562Q397 562 392 561T380 557T368 552T361 550Q359 550 352 550T336 550T320 550T311 550Q274 542 236 525T167 482T116 422T96 346ZM209 318Q209 321 210 323Q211 329 215 341T223 365T230 387T235 399Q236 402 243 409T258 424T274 439T286 449Q287 450
291 451T302 455T314 459T323 462Q326 462 339 464T367 468T395 471T411 474Q412 474 415 476T423 481T432 485T437 487Q439 488 449 489T463 490Q463 483 460 468T450 437T436 410T417 398Q406 398 404 405T402 420Q398 420 390 422T374 425T358 424T348 412Q343
381 339 352T335 291Q335 274 337 264T348 236Q371 241 393 251T437 273Q445 269 447 265T449 254Q449 240 435 230T401 212T363 201T336 197Q316 197 301 203T272 220T247 244T222 273Q214 284 212 292T209 311V318ZM245 329Q245 323 246 312T247 298Q249 294
255 287T270 271T286 257T298 248Q303 289 308 331T313 416Q311 416 306 414T298 412Q293 408 285 400T269 384T254 370T247 362Q247 360 246 348T245 329Z" />
<glyph unicode="&#xaa;" glyph-name="ordfeminine" horiz-adv-x="495" d="M71 263Q71 275 79 278T97 282Q151 284 184 285T242 289T286 293T334 301Q337 301 349 304T374 310T400 316T415 319Q429 319 432 315T435 301Q435 284 421 277T391 270Q347 263 316 259T258
253T208 250T156 249Q151 249 140 249T117 249T94 250T78 251Q73 253 72 256T71 263ZM52 448Q52 450 52 458T53 470L97 513Q117 531 147 536T203 545L209 595Q209 597 203 606T190 620Q180 619 160 610T122 588Q111 581 99 569T72 551Q56 551 48 560T40 584Q40
591 41 602T45 625T56 643T75 651Q81 651 85 652T96 654T111 658T134 663Q136 663 146 663T165 662Q174 662 180 663T192 666T209 669T240 671Q263 671 279 668T309 651Q344 619 358 601T372 562Q372 553 372 538T375 506T383 473T397 445Q405 434 416 434T436
432T453 424T460 397Q460 392 459 388T454 381Q434 376 413 371T371 363T334 357T307 355Q293 355 284 363Q280 366 273 373T258 388T245 402T238 408Q236 408 233 405T225 397T217 388T209 381Q193 370 175 363T137 356Q114 356 92 369T59 401Q54 409 53 423T52
448ZM97 438Q97 422 110 411T138 400Q146 400 160 406T188 423T212 444T222 463Q222 476 215 482T187 488Q176 488 161 486T132 477T107 462T97 438ZM251 627Q251 616 251 605T250 582Q250 552 254 524T272 476Q279 468 284 457T294 434T307 414T331 406Q341 406
347 407T365 412Q358 420 352 438T342 479T334 528T329 576Q317 598 297 612T251 627Z" />
<glyph unicode="&#xab;" glyph-name="guillemotleft" horiz-adv-x="424" d="M172 515Q176 520 180 521T190 522Q194 522 201 521T209 515V484L85 341Q81 338 80 333T79 323L147 218Q158 210 160 198T162 174H129L12 336L172 515ZM351 515Q354 520 359 521T369
522Q372 522 380 521T388 515V484L263 341Q260 338 259 333T257 323L326 218Q337 210 338 198T340 174H307L190 336L351 515Z" />
<glyph unicode="&#xac;" glyph-name="logicalnot" horiz-adv-x="582" d="M433 311Q427 311 413 311T381 311T347 312T317 312Q260 312 204 303T90 293Q82 293 73 293T56 296T42 304T36 319Q36 331 42 338T57 349T78 354T99 356Q141 360 182 364T269 372T367 382T481
395Q494 395 502 382T514 347T519 294T520 229Q520 217 520 201T519 168T519 137T518 112L512 106Q511 106 505 105T494 104Q475 104 466 107T452 117T447 131T443 150Q443 183 437 202T431 237Q431 241 431 252T432 274T432 296T433 311Z" />
<glyph unicode="&#xad;" glyph-name="uni00AD" horiz-adv-x="510" d="M55 247Q55 258 63 265T81 276Q135 276 181 273T275 270Q312 270 347 273T419 276Q433 276 443 273T453 257Q453 232 428 232Q383 229 349 228T282 225T212 224T126 224Q99 224 77 228T55 247Z" />
<glyph unicode="&#xae;" glyph-name="registered" horiz-adv-x="727" d="M48 329Q48 334 48 343T48 363T48 380T49 388Q49 389 50 394T54 405T58 417T62 426Q64 431 68 440T74 452Q83 461 98 477T130 509T159 537T175 552Q179 555 195 562T232 577T271 592T301
603Q305 604 317 606T344 610T370 613T388 615Q391 615 398 614T413 610T429 606T439 603Q444 600 459 592T492 573T527 554T552 539Q618 499 648 443T679 312Q679 269 668 237T635 180T584 136T514 99Q509 97 498 93T475 85T453 78T439 74Q438 74 431 74T414 73T396
72T380 72Q375 72 367 72T350 72T334 73T326 74Q324 74 312 78T285 89T252 101T225 112Q205 120 176 137T120 177T73 225T49 275Q49 276 49 282T48 297T48 314T48 329ZM74 332Q74 316 76 296T87 262Q88 260 97 250T119 228T143 205T162 187Q163 186 168 183T180
175T191 167T200 162Q226 148 249 136T296 116T343 104T397 99Q427 99 464 110T536 140T599 184T640 237Q643 243 647 253T655 274T662 292T665 301Q665 302 664 311T661 332T657 356T653 376Q645 409 627 435T585 482T532 520T477 552Q472 555 465 559T449 567T435
574T427 577Q425 578 417 578T403 579Q386 579 357 574T295 559T233 538T187 514Q165 496 145 477T109 436T84 388T74 332ZM175 250Q181 263 198 268T225 275V439Q209 432 193 422T162 401Q160 401 155 406T150 413Q150 422 156 430T170 445T186 457T200 464Q203
465 213 468T235 476T258 483T276 489Q283 491 298 495T329 503T358 510T376 514Q378 514 384 514T395 515Q427 515 447 496T467 444Q467 439 466 427T464 413Q463 410 458 405T447 393T436 382T427 376Q429 373 434 366T446 351T457 336T464 326Q468 319 470 314T474
304T479 296T489 288Q494 301 509 302T535 304Q535 294 533 283T526 261T512 244T490 237Q473 237 464 251T445 283T424 317T388 338Q384 339 373 337T356 335Q356 328 354 320T350 303T351 287T363 275Q366 274 373 272T388 268T404 264T414 262V250Q414 249 407
247T390 243T369 240T351 237Q349 237 337 237T309 237T278 236T253 236Q247 236 237 236T216 236T197 237T187 237L175 250ZM250 343Q250 331 250 319T253 296T264 279T288 272Q291 272 301 273T313 275Q314 284 316 305T320 351T324 396T326 426Q327 431 327
446T327 467Q293 467 263 452Q259 434 257 421T253 395T251 371T250 343ZM350 412Q350 407 351 398T363 388Q374 388 387 393T412 408T432 428T440 451Q440 462 436 468T425 476T409 479T390 479Q385 479 375 478T363 477Q363 476 362 470T358 456T354 440T351
426Q350 423 350 420V412Z" />
<glyph unicode="&#xb0;" glyph-name="degree" horiz-adv-x="232" d="M22 605Q22 629 36 651T73 682Q77 682 90 683T107 684Q124 684 142 679T175 664T199 639T209 603Q209 586 201 568T179 536T148 512T114 502Q108 502 99 502T85 509L30 577Q25 582 24 590T22
605ZM71 605Q71 597 74 587T82 568T95 553T113 546Q124 546 133 551T150 565T162 584T166 605Q166 628 151 633T116 639Q83 639 77 631T71 605Z" />
<glyph unicode="&#xb1;" glyph-name="plusminus" horiz-adv-x="433" d="M56 75Q56 80 59 87T70 94Q72 94 79 92T95 88T110 84T120 81H132Q160 81 191 84T253 94T315 107T372 120Q373 118 374 111T375 100Q375 97 374 90T372 81Q371 79 357 75T334 69Q328 68 315
66T288 62T262 58T246 56Q244 56 234 56T209 56T181 55T158 55Q153 55 141 55T114 55T88 56T70 56Q56 64 56 75ZM196 380Q191 380 177 382T158 383Q156 383 149 381T133 377T117 373T107 371Q103 370 89 369T70 368V396L196 434Q196 437 196 446T195 465T195 484T196
496Q196 505 198 518T202 543T205 563T208 572H230Q230 568 230 559T231 541T232 522T233 509Q234 502 235 491T239 470T243 453T246 446H359V421Q347 420 331 419T298 414T263 407T233 396Q232 392 230 381T226 358T223 336T221 321Q221 319 221 312T221 296T221
280T221 271Q220 268 216 263T208 257L196 271V380Z" />
<glyph unicode="&#xb2;" glyph-name="uni00B2" horiz-adv-x="383" d="M37 409Q37 424 50 429Q52 429 62 429T75 429Q98 434 116 451T148 491T169 539T177 587Q177 610 173 620T145 630Q113 630 92 610T50 567Q40 570 39 577T37 592V604Q59 639 94 654T167 669Q227
669 258 641T290 550Q290 517 277 496T245 459T203 427T163 390Q189 383 206 381T246 378Q273 378 286 392T309 423T327 455T354 469Q354 452 350 428T339 390Q332 375 321 367T295 356T266 353T237 352Q232 352 225 352T209 352T195 352T188 353Q185 353 170 357T138
365T106 373T87 378Q87 378 84 378T76 378T67 378T62 378Q60 379 50 388T37 403V409ZM226 617Q227 569 208 524T163 441Q178 449 196 461T229 489T255 523T265 559Q265 579 257 596T226 617Z" />
<glyph unicode="&#xb3;" glyph-name="uni00B3" horiz-adv-x="371" d="M47 379Q47 391 58 394T80 398H86L149 335Q165 361 170 386T175 442Q175 445 175 451T175 464T174 477T174 486Q169 484 155 480T136 473H129Q110 473 110 492Q110 500 113 503T124 512Q127
513 134 516T149 524T164 531T174 537V620Q169 620 157 621T130 623T104 624T86 624Q84 624 79 623T67 619T55 614T48 612Q46 611 45 611H41Q33 611 28 616T22 630Q22 642 31 648T52 657T77 660T99 662Q102 662 117 664T149 669T180 673T199 675Q203 675 215 674T241
670T268 666T287 662Q300 659 300 646T300 623Q300 604 292 590T274 566T256 547T248 530V527Q248 526 249 524Q285 496 312 462T339 380Q339 373 339 361T337 347Q337 346 332 342T324 335Q290 315 260 306T192 296Q172 296 156 296T124 310Q121 311 114 318T98
335T83 351T73 361Q71 362 60 366T48 373Q47 375 47 376V379ZM224 486Q216 445 213 408T209 330Q214 330 229 331T249 335Q274 343 293 354T313 392Q313 394 313 401T312 411Q309 415 300 424T281 442T262 461T249 473Q247 476 237 481T224 486ZM211 558Q219 558
228 565T245 582T258 602T263 619Q263 626 259 629T249 633T237 635T224 637H217H211V558Z" />
<glyph unicode="&#xb4;" glyph-name="acute" horiz-adv-x="242" d="M11 705Q11 707 12 708L200 768H202Q203 768 204 768T206 769Q216 769 224 763T232 746Q232 745 232 745T231 744V743L43 683Q41 682 39 682H32Q21 682 16 685T11 700V705Z" />
<glyph unicode="&#xb5;" glyph-name="uni00B5" horiz-adv-x="719" d="M114 -165V-121Q114 -110 115 -74T117 11T119 115T122 219T124 304T126 352V359V365Q124 367 119 372T107 384T96 395T88 402Q95 414 112 419T139 427Q147 428 168 430T214 435T259 438T290
440Q292 440 297 435T302 427Q302 424 297 414T290 402Q290 397 290 382T289 348T289 315T288 294Q288 285 288 271T289 243T289 218T290 206Q290 204 291 196T294 178T298 158T302 143Q309 114 323 87T365 43Q365 42 370 42T377 41Q380 41 385 41T390 43Q416 60
431 82T454 131T464 185T466 243Q466 264 466 280T464 313T460 347T453 388Q452 390 446 400T440 413Q440 415 445 419T453 425Q457 429 466 433T478 438H616L629 425Q623 416 613 410T591 400V240Q597 240 603 241T616 243T626 238T630 224Q630 216 624 215T611
213T597 210T591 201V194Q592 183 594 163T598 123T601 87T604 68Q605 61 606 51T610 30T614 13T616 4Q618 3 627 3T647 3T667 4T679 4Q681 4 686 0T691 -8Q688 -17 679 -22T659 -29T637 -33T617 -34Q615 -34 610 -34T604 -33Q595 -32 581 -30T553 -26T527 -23T515
-21Q514 -20 510 -16T499 -5T487 7T478 18Q476 20 472 30T465 43H460Q448 43 438 39T419 29T399 20T375 15Q371 15 362 16T352 18Q348 19 339 26T320 41T302 56T290 68L277 43V-108L315 -146L277 -196H38V-165H114ZM148 15Q148 3 148 -20T148 -66T149 -109T151
-133L164 -159H239V390H176Q174 390 170 371T162 326T155 273T151 231Q150 226 150 199T149 137T148 68T148 15ZM503 43Q503 30 510 22T527 10T550 4T571 2Q571 5 571 14T569 34T567 54T566 68L554 155Q553 170 552 204T548 278T543 351T540 400H503V43Z" />
<glyph unicode="&#xb6;" glyph-name="paragraph" horiz-adv-x="697" d="M207 19Q207 24 209 30T220 37H321V235Q278 239 227 245T133 268T60 319T30 411Q30 451 46 485T89 546T150 594T220 625Q230 628 258 635T319 651T380 666T422 675Q428 675 433 676Q438 676
443 676T451 677Q499 677 541 669T635 650Q642 646 653 635T664 612H547Q547 581 552 550T560 487Q560 474 561 441T564 366T566 275T569 185T571 109T572 63Q576 62 584 60T601 55T616 45T623 31Q623 20 610 12Q602 11 581 10T535 6T489 2T459 0Q457 0 443 0T409
0T371 -1T339 -1Q333 -1 316 -1T280 -1T244 0T220 0Q207 6 207 19ZM396 625Q396 620 396 606T397 587Q398 569 399 527T403 429T408 313T413 196T418 98T422 37H428H434Q437 38 444 39T459 43T474 47T484 50Q484 57 484 85T484 145T485 206T485 241Q485 318 479
390T459 537Q458 542 456 554T452 581T449 607T447 625H396ZM271 298Q276 290 288 281T308 272Q311 272 316 277T321 286Q321 292 321 307T321 339T322 371T322 392Q322 449 321 496T308 600H302H296Q291 598 277 594T258 587Q258 582 258 569T258 540T257 512T257
493Q257 466 257 442T258 396T262 349T271 298Z" />
<glyph unicode="&#xb7;" glyph-name="middot" horiz-adv-x="226" d="M46 291Q46 305 53 316T73 336T99 349T127 354Q151 354 164 338T177 298Q177 270 159 253T113 236Q102 236 90 240T69 251T53 269T46 291Z" />
<glyph unicode="&#xb8;" glyph-name="cedilla" horiz-adv-x="192" d="M19 -204Q19 -203 20 -200T25 -196Q33 -196 39 -200T51 -208T63 -217T77 -221Q89 -221 99 -214T115 -197T126 -174T130 -152Q130 -138 121 -131T100 -118T77 -109T62 -96V-71Q62 -63 63 -49T69
-20T80 5T99 16Q107 16 109 12T112 0Q112 -16 105 -29T98 -59Q98 -63 99 -65L162 -127Q166 -132 167 -142T168 -160Q168 -175 163 -192T147 -223T122 -248T90 -258Q78 -258 66 -256T43 -247T26 -230T19 -204Z" />
<glyph unicode="&#xb9;" glyph-name="uni00B9" horiz-adv-x="334" d="M119 572Q107 563 99 549T81 523T61 501T31 491V509Q35 513 44 525T63 552T82 579T94 597Q95 599 98 606T106 622T114 637T119 647Q131 667 153 670T195 674Q204 674 213 674T229 673T240 666T245
648Q245 622 239 598T232 547V534Q233 527 234 509T238 471T242 433T245 408Q250 409 260 410T281 411T300 406T308 389V383Q306 382 301 380T290 376T279 373T270 371Q219 363 162 359T52 355Q52 377 55 384T65 393T78 394T94 396Q99 399 109 408T119 421V572ZM207
647Q204 648 199 647T187 644T176 640T169 635Q168 633 166 627T162 613T159 597T157 585Q157 575 156 549T154 494T152 440T151 404Q154 404 160 404T173 405T186 407T194 408Q197 409 202 414T207 421V647Z" />
<glyph unicode="&#xba;" glyph-name="ordmasculine" horiz-adv-x="482" d="M89 221Q89 234 97 237T120 243Q134 244 170 246T248 252T325 258T376 262Q388 262 401 259T415 239Q415 233 410 229T399 223T386 219T376 218Q363 217 331 216T261 212T191 208T145
205Q140 205 128 205T111 204Q102 204 96 207T89 221ZM45 405Q35 421 34 436T32 470Q32 514 53 550T105 613T167 654T219 669Q220 669 234 669T268 665T309 656T345 637Q364 620 382 602T414 562T437 518T446 468Q446 425 426 394T374 343T304 314T231 304Q218
304 203 304T170 305Q157 308 141 317T108 340T75 371T45 405ZM75 472Q75 471 75 470T74 465Q74 457 75 446T82 430L157 355Q163 350 169 349T181 348Q182 348 189 348T201 349Q186 368 175 390T157 434T147 475T144 509Q144 523 144 532T147 551T155 571T170 599Q154
599 138 586T114 562Q102 545 95 534T83 512T77 493T75 472ZM365 479Q365 448 355 421T326 368H339Q382 396 395 419T408 471Q408 502 392 531T352 580V578Q360 544 362 524T365 479ZM188 505Q188 493 194 472T210 430T235 394T264 379Q279 379 290 390T308 416T320
447T326 474Q326 487 325 509T317 552T297 590T262 606Q247 606 234 596T210 570T194 538T188 505Z" />
<glyph unicode="&#xbb;" glyph-name="guillemotright" horiz-adv-x="424" d="M234 336L117 174H84Q84 185 85 197T98 218L167 323Q167 327 166 332T161 341L36 484V515Q36 520 44 521T55 522Q60 522 65 521T73 515L234 336ZM412 336L295 174H262Q262 185 264 197T277
218L345 323Q345 327 344 332T339 341L215 484V515Q215 520 222 521T234 522Q239 522 243 521T252 515L412 336Z" />
<glyph unicode="&#xbc;" glyph-name="onequarter" horiz-adv-x="832" d="M472 62Q476 63 485 64T504 68T523 72T535 75Q541 77 551 81T561 87V170H435Q429 170 425 179T421 196L422 201Q424 203 429 207T441 215T452 222T460 226Q467 238 488 267T534 328T580
388T611 428Q614 431 622 438T640 453T659 468T673 478Q677 479 688 482T702 485Q702 428 699 374T686 264Q685 260 690 250T699 238Q702 237 706 237H716Q720 237 727 237T737 238Q738 238 741 240T749 245T757 250T762 252Q769 252 772 245T775 232Q775 231 775
229T774 226Q753 214 735 209T703 196T681 174T673 131V113Q675 107 679 97T686 87H803Q803 75 796 68T778 58T756 53T737 50Q730 49 705 48T650 44T591 40T548 37Q544 37 533 37T510 37T487 36T472 36V62ZM245 82Q245 84 246 87Q249 93 255 108T270 139T285 169T296
188Q315 220 343 265T403 359T466 458T524 548T567 613T586 641L636 691Q649 686 649 672Q649 671 649 669T648 666Q646 663 637 649T623 629Q542 520 467 407T321 176Q317 169 308 152T289 114T271 76T259 50Q248 53 247 60T245 75V82ZM611 113Q617 100 629 100Q631
100 633 100T636 101Q653 163 657 228T662 358Q662 361 662 369T662 386T661 403T661 415Q642 404 635 388T623 352Q620 340 616 318T608 273T601 234T598 213Q598 207 599 193T602 163T606 133T611 113ZM573 327Q571 326 567 321T561 314Q558 310 551 300T536
277T520 254T510 238Q508 236 504 226T497 213Q501 212 513 211T529 209Q535 209 547 210T561 213Q561 214 563 220T567 234T570 250T573 264V296V327ZM45 352Q60 357 76 363T108 377Q109 384 110 402T114 440T118 478T121 503Q121 504 121 507T120 512Q108 512
97 508T76 500T55 491T32 487V515Q36 518 47 525T70 540T92 555T108 566L121 579Q121 581 126 591T133 604Q134 604 145 604T158 604Q169 607 176 619T191 645T206 668T227 679Q234 679 239 677T246 666Q255 630 257 595T260 524T257 452T254 377H309V352Q309 352
302 350T285 346T264 342T246 339Q244 339 239 339T227 339T215 339T208 339Q205 339 192 337T164 333T137 329T121 327Q118 326 104 326T82 326Q77 326 68 326T57 327L45 352ZM146 389Q145 383 150 380T162 376T175 375T183 376Q187 376 192 376T204 376T214 380T221
389Q221 394 221 406T221 433T222 460T222 478Q222 487 222 501T222 529T221 553T221 566Q221 571 216 585T208 604L158 540L146 389Z" />
<glyph unicode="&#xbd;" glyph-name="onehalf" horiz-adv-x="819" d="M612 648Q613 649 619 654T634 665T649 677T662 686Q664 687 668 688T675 689V661Q675 660 668 651T648 626T621 592T591 553T561 516T536 485Q534 481 525 471T511 459L273 45L197 -31H182Q182
-29 183 -25T185 -19Q186 -17 191 -8T203 12T215 32T222 45Q224 48 228 55T236 70T243 85T248 95L612 648ZM474 32Q474 34 474 38T473 45Q473 55 476 60T486 68T498 73T511 82Q518 88 534 104T569 138T603 172T625 196Q640 212 646 237T652 285Q652 295 650 308T631
321Q622 321 611 316T591 302T573 286T562 271Q559 266 553 254T541 227T530 201T524 183Q524 182 522 182T518 181Q508 181 504 190T499 208Q499 214 500 225T504 248T508 270T511 283Q512 285 518 292T533 307T549 323T562 334Q588 353 619 362T682 372Q702 372
721 366T755 347T779 317T789 277Q789 271 787 261T781 241T773 222T763 208Q758 202 744 188T714 158T683 128T662 107Q660 105 653 100T637 89T621 77T612 70Q611 68 610 61T609 51Q609 47 610 40T612 32Q613 30 618 28T629 24T641 21T650 19Q658 19 671 26T697
44T722 65T738 82Q752 75 752 63Q752 62 752 62T751 60V57Q728 27 699 10T631 -7Q625 -7 613 -7T600 -6Q598 -5 591 -2T575 6T559 14T550 19Q545 20 535 22T512 26T489 30T474 32ZM679 337Q679 331 679 317T678 285T677 254T675 233Q675 229 670 215T662 196Q659
190 651 178T632 151T613 125T600 107Q624 117 650 135T699 176T737 227T752 283Q752 314 730 325T679 337ZM33 327Q33 338 43 344T68 354T98 361T122 371Q123 377 124 391T128 422T132 452T135 471Q135 475 135 485T134 508T133 530T132 545Q122 545 113 541T96
533T78 525T59 521Q51 521 44 522T34 535L46 547Q51 551 63 560T90 579T117 598T135 610Q134 613 135 618T138 630T142 641T147 648Q148 649 155 651T172 655T188 658T197 661Q202 663 216 672T235 686Q245 680 251 669T261 648Q261 637 262 611T266 554T270 496T273
459Q273 455 275 445T279 422T283 399T286 384Q289 384 296 382T311 378T326 374T336 371Q338 370 342 366T348 359Q320 338 287 337T222 334Q217 333 203 332T173 328T143 324T122 321Q120 321 111 319T91 315T71 311T59 308H53Q45 308 39 313T33 327ZM222 610Q220
609 210 604T197 597Q195 595 190 591T185 585V368Q198 368 210 382T222 409V610Z" />
<glyph unicode="&#xbe;" glyph-name="threequarters" horiz-adv-x="889" d="M187 15Q187 16 188 18Q204 39 238 82T314 179T403 294T492 409T567 507T616 571Q618 574 622 579T630 591T637 602T641 609Q647 621 650 630T659 647T672 658T696 662Q696 643 693 627T679
596L277 81Q254 62 239 37T201 -7Q187 0 187 12V15ZM465 144Q457 144 455 150T452 162V166Q452 167 453 169Q455 172 460 179T471 195T482 210T490 220Q509 239 535 266T591 323T649 380T701 432T738 469T754 483H767Q768 483 770 473T774 449T777 420T779 396Q779
393 778 380T774 351T769 323T767 307Q767 301 767 286T768 254T770 222T771 200H829Q844 200 844 187Q844 181 840 178T829 174T815 171T804 169Q801 168 794 167T779 163T764 159T754 156V43Q758 44 769 46T792 50T814 53T829 56H837Q844 56 847 54T855 43Q848
32 835 26T807 15T778 8T754 5Q749 5 729 5T685 5T641 5T616 5Q614 5 605 3T585 -1T565 -5T554 -7Q551 -7 542 -7T523 -8T504 -9T492 -10Q492 8 500 16T522 27T551 31T580 34T604 44T616 69Q616 73 616 83T615 106T613 128T612 144H465ZM742 433Q710 406 699 370T679
295Q674 269 669 239T659 178T653 116T650 56H717Q718 66 719 93T723 150T727 207T729 245V257Q729 261 731 275T735 307T740 339T742 358Q742 360 742 374T743 396Q743 400 743 414T742 433ZM503 181Q520 178 545 174T593 169H604Q607 170 611 173T619 181T626
188T629 194L654 332H641Q641 332 634 325T616 308T596 288T579 270Q574 265 563 253T540 226T518 200T503 181ZM29 375Q45 375 55 371T72 360T88 350T107 345H113Q116 351 121 367T133 401T144 435T151 458Q152 460 152 463T150 470Q149 474 148 477H89Q90 483
92 489Q94 494 95 499T101 509Q102 510 107 512T119 516T131 519T138 521Q164 532 176 557T189 611Q189 612 189 613T188 617V621Q187 622 183 624T172 629T160 632T151 634Q146 635 134 635T107 635T80 635T62 634Q64 636 68 641T75 646Q99 656 121 658T166 661T213
660T264 660Q267 660 276 661T295 665T315 670T327 672H347Q358 672 368 670T378 653Q378 651 378 649T377 646L302 559Q292 564 284 556T275 539Q275 537 276 536Q276 535 277 534Q291 520 305 513T330 497T347 475T354 437Q354 417 352 401T345 372T329 346T302
320Q299 318 289 313T277 307Q274 307 257 305T217 301T173 298T138 295Q137 295 132 295T124 294Q113 294 99 304T75 320Q64 326 56 330T41 340T32 354T29 375ZM238 497Q224 497 217 497T201 483Q179 445 163 409T147 328Q181 328 213 329T271 341T312 373T328
436Q328 441 328 449T327 458Q326 461 317 471T302 483Q301 484 297 484T289 484T282 484T277 483Q275 484 271 490T264 496Q263 496 254 496T238 497ZM238 621Q233 620 231 615T228 602T226 588T226 578V559Q252 578 278 600T327 646L238 621Z" />
<glyph unicode="&#xbf;" glyph-name="questiondown" horiz-adv-x="527" d="M381 634Q381 602 366 581T312 559Q297 559 283 565T259 581T243 604T237 632Q237 668 262 688T325 708Q341 708 352 702T369 685T378 661T381 634ZM344 646Q344 653 341 659T321 666Q304
666 289 659T274 632Q274 618 279 610T300 602H304Q305 602 306 603L343 640V642Q343 643 343 644T344 646ZM381 483Q381 481 381 477T380 472L256 329L201 169Q200 167 200 158T199 143Q199 113 204 91T225 38Q234 32 241 24T256 7T272 -6T291 -12Q325 -12 354
7T406 56T442 121T455 187Q455 192 455 206T454 224Q448 247 430 254T391 262Q375 262 366 254T351 234T345 208T343 180Q346 170 350 161Q353 153 356 145T362 131Q362 119 358 116T343 112H330Q317 138 308 165T287 218V224Q287 245 296 260T321 286T354 300T390
305Q420 305 439 295T471 268T488 229T493 181Q493 139 476 97T430 21T360 -34T275 -55Q236 -55 193 -44T115 -11T56 45T32 123Q32 132 34 150T41 189T51 230T64 262L201 510Q239 510 276 513T353 516Q367 516 374 505T381 483ZM157 169Q172 250 206 323T294 460H281Q276
460 269 460T253 459T239 457T231 454L77 156V82Q77 62 91 47T126 20T168 3T201 -5Q201 -4 195 4T188 20Q170 63 163 86T155 135Q155 138 155 151T157 169Z" />
<glyph unicode="&#xc0;" glyph-name="Agrave" horiz-adv-x="847" d="M38 18Q38 32 50 41Q62 42 77 43T106 45T130 47T142 52L245 326Q245 328 245 329T246 333Q246 348 233 357T201 371T165 377T137 379Q97 379 68 352T38 281Q38 268 45 260T66 252Q86 252 91
261T97 285V309Q100 318 104 320T116 322Q125 322 131 317T140 305T146 290T148 274Q148 262 142 250T125 229T103 213T80 206Q41 206 20 225T-2 283Q-2 312 8 338T36 383T78 413T130 424Q168 424 198 418T262 388Q262 388 264 387Q265 387 269 390T273 395L354
606V609Q354 611 352 614T347 618H211Q206 618 205 622T204 629Q204 635 208 649T222 663Q321 664 387 665T497 668T564 669T603 670T629 671T657 672Q665 672 669 664T673 646Q673 642 671 633T663 623H572L645 406Q647 395 650 391T661 387Q693 387 723 396T788
406Q796 406 800 401T805 387Q805 375 796 369T776 361L685 349Q680 349 677 346T673 338L775 43L829 29Q837 28 839 24T841 13Q841 3 835 -4Q828 -3 823 -3T811 -3Q762 -3 718 -5T622 -8Q611 -8 608 -4T605 11Q605 28 619 33T652 44Q656 45 665 45T686 43T706
42T721 41V53L633 326H622Q621 326 610 317T585 296T555 269T530 246Q519 236 516 227T496 218Q482 218 474 227T458 247T442 267T419 276Q418 276 418 276T417 275H416L337 57Q336 56 336 53T335 48Q335 40 340 38T353 34T365 26T371 8Q371 4 370 0T364 -5H56Q47
-5 43 2T38 18ZM192 57Q192 50 193 46T205 41H279Q280 41 284 45T291 54T298 64T302 69L496 601V618H399L193 69Q192 69 192 64T192 57ZM438 332Q438 324 440 322T450 315Q456 311 464 305T481 293T496 284T502 280L605 365Q609 367 613 369T617 374Q617 374 616
376V378L540 594L439 338Q439 337 439 335T438 332ZM524 720Q524 708 519 705T503 702H496Q494 702 492 703L304 763Q303 763 303 764V766Q303 777 311 783T329 789Q329 788 330 788H332H335L523 728V725Q523 723 523 722T524 720Z" />
<glyph unicode="&#xc1;" glyph-name="Aacute" horiz-adv-x="847" d="M38 18Q38 32 50 41Q62 42 77 43T106 45T130 47T142 52L245 326Q245 328 245 329T246 333Q246 348 233 357T201 371T165 377T137 379Q97 379 68 352T38 281Q38 268 45 260T66 252Q86 252 91
261T97 285V309Q100 318 104 320T116 322Q125 322 131 317T140 305T146 290T148 274Q148 262 142 250T125 229T103 213T80 206Q41 206 20 225T-2 283Q-2 312 8 338T36 383T78 413T130 424Q168 424 198 418T262 388Q262 388 264 387Q265 387 269 390T273 395L354
606V609Q354 611 352 614T347 618H211Q206 618 205 622T204 629Q204 635 208 649T222 663Q321 664 387 665T497 668T564 669T603 670T629 671T657 672Q665 672 669 664T673 646Q673 642 671 633T663 623H572L645 406Q647 395 650 391T661 387Q693 387 723 396T788
406Q796 406 800 401T805 387Q805 375 796 369T776 361L685 349Q680 349 677 346T673 338L775 43L829 29Q837 28 839 24T841 13Q841 3 835 -4Q828 -3 823 -3T811 -3Q762 -3 718 -5T622 -8Q611 -8 608 -4T605 11Q605 28 619 33T652 44Q656 45 665 45T686 43T706
42T721 41V53L633 326H622Q621 326 610 317T585 296T555 269T530 246Q519 236 516 227T496 218Q482 218 474 227T458 247T442 267T419 276Q418 276 418 276T417 275H416L337 57Q336 56 336 53T335 48Q335 40 340 38T353 34T365 26T371 8Q371 4 370 0T364 -5H56Q47
-5 43 2T38 18ZM192 57Q192 50 193 46T205 41H279Q280 41 284 45T291 54T298 64T302 69L496 601V618H399L193 69Q192 69 192 64T192 57ZM438 332Q438 324 440 322T450 315Q456 311 464 305T481 293T496 284T502 280L605 365Q609 367 613 369T617 374Q617 374 616
376V378L540 594L439 338Q439 337 439 335T438 332ZM419 725Q419 727 420 728L608 788H610Q611 788 612 788T614 789Q624 789 632 783T640 766Q640 765 640 765T639 764V763L451 703Q449 702 447 702H440Q429 702 424 705T419 720V725Z" />
<glyph unicode="&#xc2;" glyph-name="Acircumflex" horiz-adv-x="847" d="M38 18Q38 32 50 41Q62 42 77 43T106 45T130 47T142 52L245 326Q245 328 245 329T246 333Q246 348 233 357T201 371T165 377T137 379Q97 379 68 352T38 281Q38 268 45 260T66 252Q86 252
91 261T97 285V309Q100 318 104 320T116 322Q125 322 131 317T140 305T146 290T148 274Q148 262 142 250T125 229T103 213T80 206Q41 206 20 225T-2 283Q-2 312 8 338T36 383T78 413T130 424Q168 424 198 418T262 388Q262 388 264 387Q265 387 269 390T273 395L354
606V609Q354 611 352 614T347 618H211Q206 618 205 622T204 629Q204 635 208 649T222 663Q321 664 387 665T497 668T564 669T603 670T629 671T657 672Q665 672 669 664T673 646Q673 642 671 633T663 623H572L645 406Q647 395 650 391T661 387Q693 387 723 396T788
406Q796 406 800 401T805 387Q805 375 796 369T776 361L685 349Q680 349 677 346T673 338L775 43L829 29Q837 28 839 24T841 13Q841 3 835 -4Q828 -3 823 -3T811 -3Q762 -3 718 -5T622 -8Q611 -8 608 -4T605 11Q605 28 619 33T652 44Q656 45 665 45T686 43T706
42T721 41V53L633 326H622Q621 326 610 317T585 296T555 269T530 246Q519 236 516 227T496 218Q482 218 474 227T458 247T442 267T419 276Q418 276 418 276T417 275H416L337 57Q336 56 336 53T335 48Q335 40 340 38T353 34T365 26T371 8Q371 4 370 0T364 -5H56Q47
-5 43 2T38 18ZM192 57Q192 50 193 46T205 41H279Q280 41 284 45T291 54T298 64T302 69L496 601V618H399L193 69Q192 69 192 64T192 57ZM438 332Q438 324 440 322T450 315Q456 311 464 305T481 293T496 284T502 280L605 365Q609 367 613 369T617 374Q617 374 616
376V378L540 594L439 338Q439 337 439 335T438 332ZM259 709Q262 724 266 731T277 743T293 750T316 759L445 807H448Q450 807 451 807T453 808Q463 807 475 804T495 795L626 731Q628 729 633 720T638 709Q638 699 630 696T613 693L483 745Q479 749 474 750Q470
751 467 752Q466 752 466 752T465 751H464Q420 732 390 721T341 704T311 697T294 695Q282 695 274 696T259 709Z" />
<glyph unicode="&#xc3;" glyph-name="Atilde" horiz-adv-x="847" d="M38 18Q38 32 50 41Q62 42 77 43T106 45T130 47T142 52L245 326Q245 328 245 329T246 333Q246 348 233 357T201 371T165 377T137 379Q97 379 68 352T38 281Q38 268 45 260T66 252Q86 252 91
261T97 285V309Q100 318 104 320T116 322Q125 322 131 317T140 305T146 290T148 274Q148 262 142 250T125 229T103 213T80 206Q41 206 20 225T-2 283Q-2 312 8 338T36 383T78 413T130 424Q168 424 198 418T262 388Q262 388 264 387Q265 387 269 390T273 395L354
606V609Q354 611 352 614T347 618H211Q206 618 205 622T204 629Q204 635 208 649T222 663Q321 664 387 665T497 668T564 669T603 670T629 671T657 672Q665 672 669 664T673 646Q673 642 671 633T663 623H572L645 406Q647 395 650 391T661 387Q693 387 723 396T788
406Q796 406 800 401T805 387Q805 375 796 369T776 361L685 349Q680 349 677 346T673 338L775 43L829 29Q837 28 839 24T841 13Q841 3 835 -4Q828 -3 823 -3T811 -3Q762 -3 718 -5T622 -8Q611 -8 608 -4T605 11Q605 28 619 33T652 44Q656 45 665 45T686 43T706
42T721 41V53L633 326H622Q621 326 610 317T585 296T555 269T530 246Q519 236 516 227T496 218Q482 218 474 227T458 247T442 267T419 276Q418 276 418 276T417 275H416L337 57Q336 56 336 53T335 48Q335 40 340 38T353 34T365 26T371 8Q371 4 370 0T364 -5H56Q47
-5 43 2T38 18ZM192 57Q192 50 193 46T205 41H279Q280 41 284 45T291 54T298 64T302 69L496 601V618H399L193 69Q192 69 192 64T192 57ZM438 332Q438 324 440 322T450 315Q456 311 464 305T481 293T496 284T502 280L605 365Q609 367 613 369T617 374Q617 374 616
376V378L540 594L439 338Q439 337 439 335T438 332ZM182 724Q182 750 199 763T238 791Q263 808 292 819T359 831Q380 831 408 823T465 804T519 786T558 777Q605 777 636 793T692 847Q704 847 708 843T717 828Q712 802 696 785T658 756T610 739T561 734Q545 734
520 742T467 760T411 778T360 786Q323 786 299 773T257 743T228 713T204 699Q192 699 187 706T182 724Z" />
<glyph unicode="&#xc4;" glyph-name="Adieresis" horiz-adv-x="847" d="M38 18Q38 32 50 41Q62 42 77 43T106 45T130 47T142 52L245 326Q245 328 245 329T246 333Q246 348 233 357T201 371T165 377T137 379Q97 379 68 352T38 281Q38 268 45 260T66 252Q86 252
91 261T97 285V309Q100 318 104 320T116 322Q125 322 131 317T140 305T146 290T148 274Q148 262 142 250T125 229T103 213T80 206Q41 206 20 225T-2 283Q-2 312 8 338T36 383T78 413T130 424Q168 424 198 418T262 388Q262 388 264 387Q265 387 269 390T273 395L354
606V609Q354 611 352 614T347 618H211Q206 618 205 622T204 629Q204 635 208 649T222 663Q321 664 387 665T497 668T564 669T603 670T629 671T657 672Q665 672 669 664T673 646Q673 642 671 633T663 623H572L645 406Q647 395 650 391T661 387Q693 387 723 396T788
406Q796 406 800 401T805 387Q805 375 796 369T776 361L685 349Q680 349 677 346T673 338L775 43L829 29Q837 28 839 24T841 13Q841 3 835 -4Q828 -3 823 -3T811 -3Q762 -3 718 -5T622 -8Q611 -8 608 -4T605 11Q605 28 619 33T652 44Q656 45 665 45T686 43T706
42T721 41V53L633 326H622Q621 326 610 317T585 296T555 269T530 246Q519 236 516 227T496 218Q482 218 474 227T458 247T442 267T419 276Q418 276 418 276T417 275H416L337 57Q336 56 336 53T335 48Q335 40 340 38T353 34T365 26T371 8Q371 4 370 0T364 -5H56Q47
-5 43 2T38 18ZM192 57Q192 50 193 46T205 41H279Q280 41 284 45T291 54T298 64T302 69L496 601V618H399L193 69Q192 69 192 64T192 57ZM438 332Q438 324 440 322T450 315Q456 311 464 305T481 293T496 284T502 280L605 365Q609 367 613 369T617 374Q617 374 616
376V378L540 594L439 338Q439 337 439 335T438 332ZM331 766Q331 778 337 788T353 804T374 814T397 818Q417 818 427 805T437 774Q437 750 423 737T385 723Q376 723 367 726T349 735T336 749T331 766ZM533 766Q533 778 539 788T554 804T576 814T599 818Q618 818
628 805T639 774Q639 750 624 737T586 723Q569 723 551 735T533 766Z" />
<glyph unicode="&#xc5;" glyph-name="Aring" horiz-adv-x="847" d="M38 18Q38 32 50 41Q62 42 77 43T106 45T130 47T142 52L245 326Q245 328 245 329T246 333Q246 348 233 357T201 371T165 377T137 379Q97 379 68 352T38 281Q38 268 45 260T66 252Q86 252 91 261T97
285V309Q100 318 104 320T116 322Q125 322 131 317T140 305T146 290T148 274Q148 262 142 250T125 229T103 213T80 206Q41 206 20 225T-2 283Q-2 312 8 338T36 383T78 413T130 424Q168 424 198 418T262 388Q262 388 264 387Q265 387 269 390T273 395L354 606V609Q354
611 352 614T347 618H211Q206 618 205 622T204 629Q204 635 208 649T222 663Q321 664 387 665T497 668T564 669T603 670T629 671T657 672Q665 672 669 664T673 646Q673 642 671 633T663 623H572L645 406Q647 395 650 391T661 387Q693 387 723 396T788 406Q796 406
800 401T805 387Q805 375 796 369T776 361L685 349Q680 349 677 346T673 338L775 43L829 29Q837 28 839 24T841 13Q841 3 835 -4Q828 -3 823 -3T811 -3Q762 -3 718 -5T622 -8Q611 -8 608 -4T605 11Q605 28 619 33T652 44Q656 45 665 45T686 43T706 42T721 41V53L633
326H622Q621 326 610 317T585 296T555 269T530 246Q519 236 516 227T496 218Q482 218 474 227T458 247T442 267T419 276Q418 276 418 276T417 275H416L337 57Q336 56 336 53T335 48Q335 40 340 38T353 34T365 26T371 8Q371 4 370 0T364 -5H56Q47 -5 43 2T38 18ZM192
57Q192 50 193 46T205 41H279Q280 41 284 45T291 54T298 64T302 69L496 601V618H399L193 69Q192 69 192 64T192 57ZM438 332Q438 324 440 322T450 315Q456 311 464 305T481 293T496 284T502 280L605 365Q609 367 613 369T617 374Q617 374 616 376V378L540 594L439
338Q439 337 439 335T438 332ZM329 840Q329 863 343 885T380 916Q383 916 396 917T414 918Q431 918 449 913T482 898T506 873T516 837Q516 820 508 802T486 770T455 746T421 736Q415 736 406 736T392 743L336 811Q332 816 331 824T329 840ZM378 840Q378 832 381
822T389 803T402 788T420 781Q431 781 440 786T457 800T469 819T473 840Q473 863 458 868T423 874Q390 874 384 865T378 840Z" />
<glyph unicode="&#xc6;" glyph-name="AE" horiz-adv-x="906" d="M416 25Q416 27 417 29Q417 32 419 41T423 60T428 80T430 91Q430 92 430 101T430 122T431 147T431 168Q431 172 431 190T431 229T430 267T430 289Q413 277 397 268T361 258Q359 258 355 258T350
259L283 337Q282 337 280 337T277 338Q265 338 257 327T244 306Q239 299 228 280T201 234T168 178T136 122T110 75T94 47Q107 42 122 31T137 0H0Q-8 0 -11 8T-14 23V28Q-14 29 -13 30Q5 36 24 57T61 103T95 155T123 197Q135 213 153 239T188 289T217 332T229 353V368Q229
369 223 371T209 375T192 380T177 383Q174 383 165 383T144 383T123 383T110 383Q107 384 102 390T97 398Q102 410 112 416T135 426T159 429T182 430Q190 430 202 430T216 429Q218 429 226 427T243 422T260 417T270 414Q271 414 276 419T283 429Q290 440 307 467T344
525T380 583T403 622H323V668Q338 668 375 667T455 665T536 663T590 661Q593 661 604 659T629 653T655 648T670 645H703Q743 645 783 653T863 661Q878 661 881 647T885 622Q885 617 884 609T883 600Q881 595 876 584T864 560T852 537T843 522Q841 521 836 521T829
520Q827 520 822 520T816 522Q814 523 811 530T803 545T795 560T790 569Q787 572 783 577T775 587T767 596T763 600H603V354Q618 354 629 359T651 370T673 382T700 387Q700 385 700 378T699 362T698 347T696 337Q696 333 694 326T690 312T686 298T683 289H677Q664
289 654 297T628 306Q603 306 603 277V259Q603 256 605 238T609 199T614 159T617 137Q617 136 617 132T617 122T616 112T617 106Q621 77 631 64T655 46T689 42T730 43Q733 43 741 43T759 43T778 44T790 44Q803 51 808 67T818 100T832 128T861 141Q861 138 861 129T859
109T858 89T856 76Q856 74 855 68T851 54T846 39T843 29Q842 26 840 21T835 10T831 1T829 -3H430Q421 -3 419 5T416 21V25ZM496 600Q496 599 495 579T491 527T485 455T479 373T474 294T470 229Q470 221 469 194T468 135T467 77T466 43Q493 43 523 48T577 59V114V168Q577
173 576 190T573 232T570 283T567 335T564 376T563 398Q563 403 563 423T563 468T563 512T563 538Q563 542 561 553T557 576T553 599T549 614L496 600ZM309 390Q309 386 317 375T335 351T357 329T376 321Q380 321 388 325T404 334T420 344T430 353Q431 362 433
386T437 437T441 488T444 522Q444 525 444 532T444 547T445 562T445 572Q433 572 429 568T417 554Q410 544 397 527T372 493T349 462T336 445Q334 442 330 435T322 421T314 407T310 398Q310 397 310 394T309 390ZM829 607Q824 607 824 599T829 591Q834 591 834
599T829 607Z" />
<glyph unicode="&#xc7;" glyph-name="Ccedilla" horiz-adv-x="652" d="M30 293Q25 293 24 298T22 308Q22 317 27 323T39 332T54 338T70 342Q74 394 84 437T107 511T132 563T152 590Q178 614 212 630T281 658T351 674T413 679Q414 679 431 675T469 666T507 657T526
653Q532 664 544 671T570 678Q591 678 596 663T601 631L570 497Q570 495 567 495T561 493L553 491Q546 491 538 493T526 504Q510 549 492 574T456 611T421 626T391 629Q329 629 329 583Q329 577 330 573V581Q330 581 330 576T331 558T331 519T331 454Q331 355 329
283T325 162T321 82T319 35Q319 18 322 12T332 6Q344 6 356 6T381 5Q405 5 429 7T477 15T524 35T567 70Q575 79 578 91T585 116T596 136T620 145Q622 145 629 140T637 126Q637 105 629 83T607 42T576 7T542 -17Q501 -36 458 -43T379 -50Q332 -50 282 -37T190 14T117
119T80 293H30ZM267 20Q273 55 276 100T281 196T283 301T284 408V427Q284 481 284 530T288 617Q281 617 271 613T250 602T230 589T215 578Q187 555 171 523T145 454T134 379T131 305Q131 245 140 199T168 119T211 60T267 20ZM551 553Q554 566 556 585T559 621Q549
620 540 619Q532 618 524 617T509 614L551 553ZM277 -204Q277 -203 278 -200T283 -196Q291 -196 297 -200T309 -208T321 -217T335 -221Q347 -221 357 -214T373 -197T384 -174T388 -152Q388 -138 379 -131T358 -118T335 -109T320 -96V-71Q320 -63 321 -49T327 -20T338
5T357 16Q365 16 367 12T370 0Q370 -16 363 -29T356 -59Q356 -63 357 -65L420 -127Q424 -132 425 -142T426 -160Q426 -175 421 -192T405 -223T380 -248T348 -258Q336 -258 324 -256T301 -247T284 -230T277 -204Z" />
<glyph unicode="&#xc8;" glyph-name="Egrave" horiz-adv-x="634" d="M191 -15Q176 -15 170 -15T162 -16T157 -16T148 -16Q91 -16 65 -14T39 4Q39 9 42 15T53 24Q78 24 97 23T138 22Q138 94 133 160T127 298Q123 305 117 308T104 313T93 319T88 335Q88 346 93 348T104
351T117 353T127 361Q127 365 127 375T127 397T128 419T128 435Q128 461 128 480T129 518T128 556T123 603Q119 602 105 602T80 602Q60 602 50 602T34 602T28 605T27 611Q27 634 33 643T59 653Q92 653 122 653T179 654Q231 654 283 650T388 646Q426 646 464 648T539
664Q547 668 552 673T565 678Q572 678 578 673T584 659Q584 657 584 657T583 655V653Q573 636 567 626T557 610T548 602T539 600Q530 600 475 602T312 599Q306 534 304 481T301 362Q329 362 348 366T380 376T405 386T427 391Q438 391 444 384T450 355Q450 331 440
319T402 306Q389 306 378 310T363 325L301 321Q301 321 300 308T298 277T296 241T295 212Q295 210 295 198T295 167T296 129T298 90T299 60T301 46L307 34Q313 34 326 34T357 33T391 33T421 32Q477 32 510 38T560 51T585 65T597 71Q633 71 633 37L631 23Q629 10
627 10L614 -3Q614 -3 604 -4T580 -6T552 -8T528 -9Q517 -9 512 -9T497 -10T471 -10T419 -10T330 -12T191 -15ZM163 371Q163 339 164 302T166 227T170 155T174 94T178 51T183 35L189 29L265 28Q265 55 264 78T261 124T258 174T256 233Q256 296 260 363T264 502Q264
513 264 530T263 562V599L165 604Q165 603 165 598T165 580T164 543T163 479V371ZM419 720Q419 708 414 705T398 702H391Q389 702 387 703L199 763Q198 763 198 764V766Q198 777 206 783T224 789Q224 788 225 788H227H230L418 728V725Q418 723 418 722T419 720Z"
/>
<glyph unicode="&#xc9;" glyph-name="Eacute" horiz-adv-x="634" d="M191 -15Q176 -15 170 -15T162 -16T157 -16T148 -16Q91 -16 65 -14T39 4Q39 9 42 15T53 24Q78 24 97 23T138 22Q138 94 133 160T127 298Q123 305 117 308T104 313T93 319T88 335Q88 346 93 348T104
351T117 353T127 361Q127 365 127 375T127 397T128 419T128 435Q128 461 128 480T129 518T128 556T123 603Q119 602 105 602T80 602Q60 602 50 602T34 602T28 605T27 611Q27 634 33 643T59 653Q92 653 122 653T179 654Q231 654 283 650T388 646Q426 646 464 648T539
664Q547 668 552 673T565 678Q572 678 578 673T584 659Q584 657 584 657T583 655V653Q573 636 567 626T557 610T548 602T539 600Q530 600 475 602T312 599Q306 534 304 481T301 362Q329 362 348 366T380 376T405 386T427 391Q438 391 444 384T450 355Q450 331 440
319T402 306Q389 306 378 310T363 325L301 321Q301 321 300 308T298 277T296 241T295 212Q295 210 295 198T295 167T296 129T298 90T299 60T301 46L307 34Q313 34 326 34T357 33T391 33T421 32Q477 32 510 38T560 51T585 65T597 71Q633 71 633 37L631 23Q629 10
627 10L614 -3Q614 -3 604 -4T580 -6T552 -8T528 -9Q517 -9 512 -9T497 -10T471 -10T419 -10T330 -12T191 -15ZM163 371Q163 339 164 302T166 227T170 155T174 94T178 51T183 35L189 29L265 28Q265 55 264 78T261 124T258 174T256 233Q256 296 260 363T264 502Q264
513 264 530T263 562V599L165 604Q165 603 165 598T165 580T164 543T163 479V371ZM216 725Q216 727 217 728L405 788H407Q408 788 409 788T411 789Q421 789 429 783T437 766Q437 765 437 765T436 764V763L248 703Q246 702 244 702H237Q226 702 221 705T216 720V725Z"
/>
<glyph unicode="&#xca;" glyph-name="Ecircumflex" horiz-adv-x="634" d="M191 -15Q176 -15 170 -15T162 -16T157 -16T148 -16Q91 -16 65 -14T39 4Q39 9 42 15T53 24Q78 24 97 23T138 22Q138 94 133 160T127 298Q123 305 117 308T104 313T93 319T88 335Q88 346
93 348T104 351T117 353T127 361Q127 365 127 375T127 397T128 419T128 435Q128 461 128 480T129 518T128 556T123 603Q119 602 105 602T80 602Q60 602 50 602T34 602T28 605T27 611Q27 634 33 643T59 653Q92 653 122 653T179 654Q231 654 283 650T388 646Q426
646 464 648T539 664Q547 668 552 673T565 678Q572 678 578 673T584 659Q584 657 584 657T583 655V653Q573 636 567 626T557 610T548 602T539 600Q530 600 475 602T312 599Q306 534 304 481T301 362Q329 362 348 366T380 376T405 386T427 391Q438 391 444 384T450
355Q450 331 440 319T402 306Q389 306 378 310T363 325L301 321Q301 321 300 308T298 277T296 241T295 212Q295 210 295 198T295 167T296 129T298 90T299 60T301 46L307 34Q313 34 326 34T357 33T391 33T421 32Q477 32 510 38T560 51T585 65T597 71Q633 71 633
37L631 23Q629 10 627 10L614 -3Q614 -3 604 -4T580 -6T552 -8T528 -9Q517 -9 512 -9T497 -10T471 -10T419 -10T330 -12T191 -15ZM163 371Q163 339 164 302T166 227T170 155T174 94T178 51T183 35L189 29L265 28Q265 55 264 78T261 124T258 174T256 233Q256 296
260 363T264 502Q264 513 264 530T263 562V599L165 604Q165 603 165 598T165 580T164 543T163 479V371ZM109 709Q112 724 116 731T127 743T143 750T166 759L295 807H298Q300 807 301 807T303 808Q313 807 325 804T345 795L476 731Q478 729 483 720T488 709Q488
699 480 696T463 693L333 745Q329 749 324 750Q320 751 317 752Q316 752 316 752T315 751H314Q270 732 240 721T191 704T161 697T144 695Q132 695 124 696T109 709Z" />
<glyph unicode="&#xcb;" glyph-name="Edieresis" horiz-adv-x="634" d="M191 -15Q176 -15 170 -15T162 -16T157 -16T148 -16Q91 -16 65 -14T39 4Q39 9 42 15T53 24Q78 24 97 23T138 22Q138 94 133 160T127 298Q123 305 117 308T104 313T93 319T88 335Q88 346 93
348T104 351T117 353T127 361Q127 365 127 375T127 397T128 419T128 435Q128 461 128 480T129 518T128 556T123 603Q119 602 105 602T80 602Q60 602 50 602T34 602T28 605T27 611Q27 634 33 643T59 653Q92 653 122 653T179 654Q231 654 283 650T388 646Q426 646
464 648T539 664Q547 668 552 673T565 678Q572 678 578 673T584 659Q584 657 584 657T583 655V653Q573 636 567 626T557 610T548 602T539 600Q530 600 475 602T312 599Q306 534 304 481T301 362Q329 362 348 366T380 376T405 386T427 391Q438 391 444 384T450 355Q450
331 440 319T402 306Q389 306 378 310T363 325L301 321Q301 321 300 308T298 277T296 241T295 212Q295 210 295 198T295 167T296 129T298 90T299 60T301 46L307 34Q313 34 326 34T357 33T391 33T421 32Q477 32 510 38T560 51T585 65T597 71Q633 71 633 37L631 23Q629
10 627 10L614 -3Q614 -3 604 -4T580 -6T552 -8T528 -9Q517 -9 512 -9T497 -10T471 -10T419 -10T330 -12T191 -15ZM163 371Q163 339 164 302T166 227T170 155T174 94T178 51T183 35L189 29L265 28Q265 55 264 78T261 124T258 174T256 233Q256 296 260 363T264 502Q264
513 264 530T263 562V599L165 604Q165 603 165 598T165 580T164 543T163 479V371ZM154 766Q154 778 160 788T176 804T197 814T220 818Q240 818 250 805T260 774Q260 750 246 737T208 723Q199 723 190 726T172 735T159 749T154 766ZM356 766Q356 778 362 788T377
804T399 814T422 818Q441 818 451 805T462 774Q462 750 447 737T409 723Q392 723 374 735T356 766Z" />
<glyph unicode="&#xcc;" glyph-name="Igrave" horiz-adv-x="456" d="M34 0Q34 14 48 16T79 17T112 15T133 24Q133 65 134 99T135 164Q135 173 135 187T136 216T136 246T137 272Q137 283 136 287Q130 285 127 285Q116 285 107 297T98 321Q98 330 104 333T117 339T130
343T136 350Q133 380 133 415T131 487T130 560T126 627Q124 629 122 631T117 634H79Q66 634 51 635Q40 635 33 643T26 662Q26 668 26 672T33 679L132 684Q141 683 149 683T167 682Q195 682 215 682T255 684T296 685T345 686Q349 686 359 686T380 686T401 685T416
685Q421 683 422 679T423 671Q423 647 413 641T376 634Q362 634 349 635T328 636Q328 540 324 440T319 240Q319 184 321 125T330 12Q346 12 364 10T398 7Q408 7 414 1T420 -17V-16Q419 -18 417 -20Q415 -22 413 -24T407 -27L324 -34Q323 -34 315 -34T296 -35T274
-36T255 -36Q236 -36 225 -35T203 -33T182 -30T152 -28H68Q51 -28 44 -23T34 0ZM170 623Q170 589 170 531T171 405T173 267T175 141T178 48T182 12H274L280 18Q280 19 280 28T281 43Q281 46 281 51T281 63T280 74T280 80Q280 120 281 177T283 296T286 417T287 521Q287
543 286 563T283 600T276 626T265 636Q260 636 249 636T225 636T198 636T176 634Q171 632 171 630T170 623ZM345 737Q345 725 340 722T324 719H317Q315 719 313 720L125 780Q124 780 124 781V783Q124 794 132 800T150 806Q150 805 151 805H153H156L344 745V742Q344
740 344 739T345 737Z" />
<glyph unicode="&#xcd;" glyph-name="Iacute" horiz-adv-x="457" d="M34 0Q34 14 48 16T79 17T112 15T133 24Q133 65 134 99T135 164Q135 173 135 187T136 216T136 246T137 272Q137 283 136 287Q130 285 127 285Q116 285 107 297T98 321Q98 330 104 333T117 339T130
343T136 350Q133 380 133 415T131 487T130 560T126 627Q124 629 122 631T117 634H79Q66 634 51 635Q40 635 33 643T26 662Q26 668 26 672T33 679L132 684Q141 683 149 683T167 682Q195 682 215 682T255 684T296 685T345 686Q349 686 359 686T380 686T401 685T416
685Q421 683 422 679T423 671Q423 647 413 641T376 634Q362 634 349 635T328 636Q328 540 324 440T319 240Q319 184 321 125T330 12Q346 12 364 10T398 7Q408 7 414 1T420 -17V-16Q419 -18 417 -20Q415 -22 413 -24T407 -27L324 -34Q323 -34 315 -34T296 -35T274
-36T255 -36Q236 -36 225 -35T203 -33T182 -30T152 -28H68Q51 -28 44 -23T34 0ZM170 623Q170 589 170 531T171 405T173 267T175 141T178 48T182 12H274L280 18Q280 19 280 28T281 43Q281 46 281 51T281 63T280 74T280 80Q280 120 281 177T283 296T286 417T287 521Q287
543 286 563T283 600T276 626T265 636Q260 636 249 636T225 636T198 636T176 634Q171 632 171 630T170 623ZM124 742Q124 744 125 745L313 805H315Q316 805 317 805T319 806Q329 806 337 800T345 783Q345 782 345 782T344 781V780L156 720Q154 719 152 719H145Q134
719 129 722T124 737V742Z" />
<glyph unicode="&#xce;" glyph-name="Icircumflex" horiz-adv-x="457" d="M34 0Q34 14 48 16T79 17T112 15T133 24Q133 65 134 99T135 164Q135 173 135 187T136 216T136 246T137 272Q137 283 136 287Q130 285 127 285Q116 285 107 297T98 321Q98 330 104 333T117
339T130 343T136 350Q133 380 133 415T131 487T130 560T126 627Q124 629 122 631T117 634H79Q66 634 51 635Q40 635 33 643T26 662Q26 668 26 672T33 679L132 684Q141 683 149 683T167 682Q195 682 215 682T255 684T296 685T345 686Q349 686 359 686T380 686T401
685T416 685Q421 683 422 679T423 671Q423 647 413 641T376 634Q362 634 349 635T328 636Q328 540 324 440T319 240Q319 184 321 125T330 12Q346 12 364 10T398 7Q408 7 414 1T420 -17V-16Q419 -18 417 -20Q415 -22 413 -24T407 -27L324 -34Q323 -34 315 -34T296
-35T274 -36T255 -36Q236 -36 225 -35T203 -33T182 -30T152 -28H68Q51 -28 44 -23T34 0ZM170 623Q170 589 170 531T171 405T173 267T175 141T178 48T182 12H274L280 18Q280 19 280 28T281 43Q281 46 281 51T281 63T280 74T280 80Q280 120 281 177T283 296T286 417T287
521Q287 543 286 563T283 600T276 626T265 636Q260 636 249 636T225 636T198 636T176 634Q171 632 171 630T170 623ZM45 726Q48 741 52 748T63 760T79 767T102 776L231 824H234Q236 824 237 824T239 825Q249 824 261 821T281 812L412 748Q414 746 419 737T424 726Q424
716 416 713T399 710L269 762Q265 766 260 767Q256 768 253 769Q252 769 252 769T251 768H250Q206 749 176 738T127 721T97 714T80 712Q68 712 60 713T45 726Z" />
<glyph unicode="&#xcf;" glyph-name="Idieresis" horiz-adv-x="456" d="M34 0Q34 14 48 16T79 17T112 15T133 24Q133 65 134 99T135 164Q135 173 135 187T136 216T136 246T137 272Q137 283 136 287Q130 285 127 285Q116 285 107 297T98 321Q98 330 104 333T117
339T130 343T136 350Q133 380 133 415T131 487T130 560T126 627Q124 629 122 631T117 634H79Q66 634 51 635Q40 635 33 643T26 662Q26 668 26 672T33 679L132 684Q141 683 149 683T167 682Q195 682 215 682T255 684T296 685T345 686Q349 686 359 686T380 686T401
685T416 685Q421 683 422 679T423 671Q423 647 413 641T376 634Q362 634 349 635T328 636Q328 540 324 440T319 240Q319 184 321 125T330 12Q346 12 364 10T398 7Q408 7 414 1T420 -17V-16Q419 -18 417 -20Q415 -22 413 -24T407 -27L324 -34Q323 -34 315 -34T296
-35T274 -36T255 -36Q236 -36 225 -35T203 -33T182 -30T152 -28H68Q51 -28 44 -23T34 0ZM170 623Q170 589 170 531T171 405T173 267T175 141T178 48T182 12H274L280 18Q280 19 280 28T281 43Q281 46 281 51T281 63T280 74T280 80Q280 120 281 177T283 296T286 417T287
521Q287 543 286 563T283 600T276 626T265 636Q260 636 249 636T225 636T198 636T176 634Q171 632 171 630T170 623ZM339 766Q339 778 345 788T361 804T382 814T405 818Q425 818 435 805T445 774Q445 750 431 737T393 723Q384 723 375 726T357 735T344 749T339
766ZM541 766Q541 778 547 788T562 804T584 814T607 818Q626 818 636 805T647 774Q647 750 632 737T594 723Q577 723 559 735T541 766Z" />
<glyph unicode="&#xd0;" glyph-name="Eth" horiz-adv-x="776" d="M29 21Q35 37 47 47T74 63T104 70T131 72Q132 82 134 106T138 157T143 208T146 241Q146 244 146 251T145 267T145 282T144 293H43Q41 293 36 299T29 310Q27 316 26 326T24 346Q23 357 22 369H146V614Q142
615 133 622T115 637T98 652T87 664Q84 669 81 683T77 702Q79 702 89 701T102 699Q104 698 112 693T130 681T149 670T160 664Q161 664 167 665T174 664Q178 662 189 656T204 647H510Q522 647 538 642T570 630T602 613T627 597Q633 592 647 581T678 556T709 530T729
512Q729 507 729 496T730 471T730 445T730 428Q730 406 730 389T730 357T726 327T714 293Q714 291 708 285T700 275Q698 274 699 267T700 258Q698 253 694 243T686 222T677 202T671 191Q666 183 658 170T640 144T622 119T612 106Q610 104 596 96T564 76T526 55T496
38Q459 19 419 11T336 1T254 -1T176 1Q164 1 143 1T100 2T63 4T43 5L29 21ZM350 54Q350 54 365 58T401 67T444 79T481 90Q525 102 563 133T627 208Q636 223 644 241T660 280T674 320T685 360Q686 367 689 378T694 399T698 418T700 428Q700 431 698 438T694 454T689
469T685 479Q664 513 638 536T582 573T519 592T452 598Q449 598 441 598T423 598T406 597T393 597Q384 589 375 573T364 546Q362 528 362 501T360 447Q359 417 358 385H447Q449 377 451 369Q453 362 453 355T452 344Q450 339 445 333T437 327Q432 326 420 326T394
325T368 325T350 327L335 90L350 54ZM189 72H277Q279 72 284 85T292 106Q292 110 294 131T298 180T302 233T306 275Q306 280 306 292T307 310H189V72ZM189 375Q192 375 203 375T218 377Q223 377 235 379T262 384T288 390T306 395Q307 396 309 400T314 410T319 420T321
428Q321 430 321 441T322 468T323 497T324 521Q324 527 324 537T322 556Q321 567 321 579L189 599V375Z" />
<glyph unicode="&#xd1;" glyph-name="Ntilde" horiz-adv-x="816" d="M50 33Q50 46 57 50T73 57T92 64T106 80Q114 129 120 192T130 323T137 453T140 563Q140 574 140 586T138 610Q126 610 109 612T80 616Q72 617 68 623T62 636T58 651T57 663Q102 667 154 670T252
676T328 680T362 682Q396 682 422 678T448 657Q448 649 442 644T427 635T413 627T406 616Q406 607 419 583T451 529T488 473T517 433Q519 435 524 435T538 436T555 440T573 453Q575 449 575 442T576 431Q576 424 572 419T563 407T553 393T549 373Q549 363 551 363Q553
357 561 340T580 301T603 254T627 207T647 168T659 146Q664 168 666 204T668 294Q668 351 665 410T659 518T651 597T644 628L550 620Q550 624 550 632T554 648T563 664T582 672Q587 673 599 674T625 677T650 680T664 682Q674 683 687 683T713 684T734 685T745 686Q761
686 771 683T783 677L785 654Q775 653 760 649T733 642Q730 640 719 634T705 625Q704 617 703 598T701 558T698 518T697 493V477Q698 381 700 310T704 191T708 115T710 76Q709 58 694 45T655 24T604 11T553 4T513 1T494 0H500Q480 0 471 7T461 41Q461 52 463 56L340
266L276 261Q276 265 277 269Q277 276 279 282Q286 297 296 304T306 328Q306 346 293 376T261 440T221 504T185 552Q183 549 182 542T181 528T180 516T180 509Q180 470 177 422T171 322T164 218T161 121Q161 101 162 81T167 55Q171 50 183 50T208 49T232 43T243
23Q243 16 240 9T230 2L69 4Q57 4 54 14T50 33ZM197 610Q197 603 205 592T227 563T256 525T287 476Q289 472 302 447T335 384T375 305T417 224T452 156T472 116Q477 105 482 93T496 72T517 56T548 49Q549 49 560 51T587 57T616 64T637 71Q637 83 630 106T611 158T584
220T552 287T519 350T489 403Q459 454 365 585Q353 600 340 608T311 621T278 626T241 627Q238 627 231 627T216 626T203 621T197 610ZM149 724Q149 750 166 763T205 791Q230 808 259 819T326 831Q347 831 375 823T432 804T486 786T525 777Q572 777 603 793T659
847Q671 847 675 843T684 828Q679 802 663 785T625 756T577 739T528 734Q512 734 487 742T434 760T378 778T327 786Q290 786 266 773T224 743T195 713T171 699Q159 699 154 706T149 724Z" />
<glyph unicode="&#xd2;" glyph-name="Ograve" horiz-adv-x="780" d="M360 -29Q292 -29 234 -3T133 65T65 163T40 276Q40 319 47 366T71 460T114 549T176 624Q213 657 264 676T378 696Q485 696 554 665T665 586T722 478T739 363Q739 271 711 199T633 76T513 -2T360
-29ZM240 288Q240 255 247 220T267 148T298 78T337 13Q339 8 347 7T364 5Q385 5 406 8T445 18T476 39T496 74Q507 116 517 145T536 201T549 254T554 322Q554 344 551 377T541 446T523 520T494 586T453 634T399 653Q367 653 343 634T301 585T272 515T253 435T243
356T240 288ZM93 295Q93 261 103 217T136 133T193 63T274 28Q274 29 274 30T275 32Q259 63 244 95T217 161T198 230T190 304Q190 367 210 447T269 630Q230 623 202 601T155 546T123 477T105 405T96 341T93 295ZM602 337Q602 306 594 267T573 186T548 106T526 40Q609
86 651 172T693 378Q693 420 678 460T638 536T579 598T508 642Q538 606 556 568T584 490T598 413T602 337ZM466 746Q466 734 461 731T445 728H438Q436 728 434 729L246 789Q245 789 245 790V792Q245 803 253 809T271 815Q271 814 272 814H274H277L465 754V751Q465
749 465 748T466 746Z" />
<glyph unicode="&#xd3;" glyph-name="Oacute" horiz-adv-x="780" d="M360 -29Q292 -29 234 -3T133 65T65 163T40 276Q40 319 47 366T71 460T114 549T176 624Q213 657 264 676T378 696Q485 696 554 665T665 586T722 478T739 363Q739 271 711 199T633 76T513 -2T360
-29ZM240 288Q240 255 247 220T267 148T298 78T337 13Q339 8 347 7T364 5Q385 5 406 8T445 18T476 39T496 74Q507 116 517 145T536 201T549 254T554 322Q554 344 551 377T541 446T523 520T494 586T453 634T399 653Q367 653 343 634T301 585T272 515T253 435T243
356T240 288ZM93 295Q93 261 103 217T136 133T193 63T274 28Q274 29 274 30T275 32Q259 63 244 95T217 161T198 230T190 304Q190 367 210 447T269 630Q230 623 202 601T155 546T123 477T105 405T96 341T93 295ZM602 337Q602 306 594 267T573 186T548 106T526 40Q609
86 651 172T693 378Q693 420 678 460T638 536T579 598T508 642Q538 606 556 568T584 490T598 413T602 337ZM290 751Q290 753 291 754L479 814H481Q482 814 483 814T485 815Q495 815 503 809T511 792Q511 791 511 791T510 790V789L322 729Q320 728 318 728H311Q300
728 295 731T290 746V751Z" />
<glyph unicode="&#xd4;" glyph-name="Ocircumflex" horiz-adv-x="780" d="M360 -29Q292 -29 234 -3T133 65T65 163T40 276Q40 319 47 366T71 460T114 549T176 624Q213 657 264 676T378 696Q485 696 554 665T665 586T722 478T739 363Q739 271 711 199T633 76T513
-2T360 -29ZM240 288Q240 255 247 220T267 148T298 78T337 13Q339 8 347 7T364 5Q385 5 406 8T445 18T476 39T496 74Q507 116 517 145T536 201T549 254T554 322Q554 344 551 377T541 446T523 520T494 586T453 634T399 653Q367 653 343 634T301 585T272 515T253
435T243 356T240 288ZM93 295Q93 261 103 217T136 133T193 63T274 28Q274 29 274 30T275 32Q259 63 244 95T217 161T198 230T190 304Q190 367 210 447T269 630Q230 623 202 601T155 546T123 477T105 405T96 341T93 295ZM602 337Q602 306 594 267T573 186T548 106T526
40Q609 86 651 172T693 378Q693 420 678 460T638 536T579 598T508 642Q538 606 556 568T584 490T598 413T602 337ZM183 735Q186 750 190 757T201 769T217 776T240 785L369 833H372Q374 833 375 833T377 834Q387 833 399 830T419 821L550 757Q552 755 557 746T562
735Q562 725 554 722T537 719L407 771Q403 775 398 776Q394 777 391 778Q390 778 390 778T389 777H388Q344 758 314 747T265 730T235 723T218 721Q206 721 198 722T183 735Z" />
<glyph unicode="&#xd5;" glyph-name="Otilde" horiz-adv-x="780" d="M360 -29Q292 -29 234 -3T133 65T65 163T40 276Q40 319 47 366T71 460T114 549T176 624Q213 657 264 676T378 696Q485 696 554 665T665 586T722 478T739 363Q739 271 711 199T633 76T513 -2T360
-29ZM240 288Q240 255 247 220T267 148T298 78T337 13Q339 8 347 7T364 5Q385 5 406 8T445 18T476 39T496 74Q507 116 517 145T536 201T549 254T554 322Q554 344 551 377T541 446T523 520T494 586T453 634T399 653Q367 653 343 634T301 585T272 515T253 435T243
356T240 288ZM93 295Q93 261 103 217T136 133T193 63T274 28Q274 29 274 30T275 32Q259 63 244 95T217 161T198 230T190 304Q190 367 210 447T269 630Q230 623 202 601T155 546T123 477T105 405T96 341T93 295ZM602 337Q602 306 594 267T573 186T548 106T526 40Q609
86 651 172T693 378Q693 420 678 460T638 536T579 598T508 642Q538 606 556 568T584 490T598 413T602 337ZM115 733Q115 759 132 772T171 800Q196 817 225 828T292 840Q313 840 341 832T398 813T452 795T491 786Q538 786 569 802T625 856Q637 856 641 852T650 837Q645
811 629 794T591 765T543 748T494 743Q478 743 453 751T400 769T344 787T293 795Q256 795 232 782T190 752T161 722T137 708Q125 708 120 715T115 733Z" />
<glyph unicode="&#xd6;" glyph-name="Odieresis" horiz-adv-x="780" d="M360 -29Q292 -29 234 -3T133 65T65 163T40 276Q40 319 47 366T71 460T114 549T176 624Q213 657 264 676T378 696Q485 696 554 665T665 586T722 478T739 363Q739 271 711 199T633 76T513
-2T360 -29ZM240 288Q240 255 247 220T267 148T298 78T337 13Q339 8 347 7T364 5Q385 5 406 8T445 18T476 39T496 74Q507 116 517 145T536 201T549 254T554 322Q554 344 551 377T541 446T523 520T494 586T453 634T399 653Q367 653 343 634T301 585T272 515T253
435T243 356T240 288ZM93 295Q93 261 103 217T136 133T193 63T274 28Q274 29 274 30T275 32Q259 63 244 95T217 161T198 230T190 304Q190 367 210 447T269 630Q230 623 202 601T155 546T123 477T105 405T96 341T93 295ZM602 337Q602 306 594 267T573 186T548 106T526
40Q609 86 651 172T693 378Q693 420 678 460T638 536T579 598T508 642Q538 606 556 568T584 490T598 413T602 337ZM229 775Q229 787 235 797T251 813T272 823T295 827Q315 827 325 814T335 783Q335 759 321 746T283 732Q274 732 265 735T247 744T234 758T229 775ZM431
775Q431 787 437 797T452 813T474 823T497 827Q516 827 526 814T537 783Q537 759 522 746T484 732Q467 732 449 744T431 775Z" />
<glyph unicode="&#xd7;" glyph-name="multiply" horiz-adv-x="446" d="M196 289L53 484Q51 486 55 491T65 496Q69 496 78 491T90 484L216 321L367 484H383Q383 470 380 458T367 434Q361 426 345 406T311 364T277 323T254 296Q254 295 254 293T253 289Q253 278
259 268T273 250T289 234T304 220Q307 217 314 208T329 189T344 170T354 157Q349 144 335 144H332Q331 144 329 145L228 245H226H224Q223 245 223 246Q215 246 213 243T203 232Q198 226 180 204T141 157T101 109T78 81Q68 70 63 68T40 65V94L196 289ZM354 132Q354
137 363 142T377 147Q377 136 380 132T386 123T393 112T396 91Q382 91 368 103T354 132Z" />
<glyph unicode="&#xd8;" glyph-name="Oslash" horiz-adv-x="831" d="M-15 40Q-15 42 -14 44L110 162Q111 162 111 166T111 171Q111 188 107 205T98 240T88 276T84 314Q84 337 87 364T98 409L178 589Q189 607 212 627T266 663T329 690T393 701Q404 701 407 699T411
692Q411 688 410 683T409 671Q431 671 450 674T493 677Q497 677 503 677T516 677T527 676T532 676Q540 674 554 670T581 661T605 652T618 645L687 564L811 657H815Q817 657 817 657T819 658Q833 658 835 652T837 633Q837 631 837 629T836 625Q835 622 835 621L711
521Q711 489 715 459T719 397Q719 391 719 382T719 363T718 348T718 341L668 179Q667 176 661 167T647 146T631 123T618 105Q581 60 527 36T415 12Q380 12 341 17T265 34T196 66T142 118L18 12H7Q-7 12 -11 15T-15 33V40ZM334 74Q342 57 361 53T401 48Q407 48 413
48T426 49Q448 49 478 60T536 88T586 128T618 174L675 322V485Q671 485 665 483T656 478L284 174L334 74ZM127 312Q127 287 130 257T141 198T165 144T203 105Q209 102 219 97T241 86T260 78T271 74H286L228 211Q228 211 227 219T225 237T223 256T222 267L284 558Q288
580 299 592T323 613T349 629T371 651Q336 651 301 632T241 589Q236 584 228 575T212 556T198 538T191 527L129 354Q129 353 129 348T128 336T127 322T127 312ZM265 224L650 533V535Q650 536 650 537T651 539Q651 543 645 552T631 572T614 591T600 602L507 632H504Q502
632 501 632T499 633Q473 633 443 627T395 602Q388 594 377 581T354 555T335 532T327 521L265 291V224Z" />
<glyph unicode="&#xd9;" glyph-name="Ugrave" horiz-adv-x="741" d="M232 9Q212 30 199 44T178 70T163 98T151 138T138 200T119 296L90 309Q93 323 98 329T115 340Q116 342 118 352T123 375T128 397T130 410Q130 413 129 423T127 444T125 466T124 479Q124 516
126 552T129 626Q103 626 92 610T75 574T64 538T46 521Q33 521 26 530T18 551Q18 587 33 612T72 653T127 676T190 683Q217 683 243 680T298 676Q323 676 345 680T379 684Q386 684 394 682T402 671Q402 658 392 650T369 635T341 626T320 621Q318 618 316 607T312
583T309 554T307 528Q307 519 307 491T308 432T309 373T310 335Q324 335 336 337T360 340Q368 340 369 335T371 324Q371 300 353 296T313 290V271L351 19Q352 14 365 13T387 12Q441 12 480 33T545 87T587 163T611 249T622 334T625 405Q625 428 625 442T624 460Q624
485 620 510T612 559T603 609T599 659Q599 673 607 678T628 684Q635 684 641 676T648 658Q651 628 654 604T658 558T661 514T662 467Q662 374 658 303T637 178T589 80T506 0Q502 -3 486 -8T451 -19T416 -28T397 -32Q382 -32 358 -30T309 -22T263 -10T232 9ZM171
520Q171 506 170 474T168 397Q168 345 172 285T191 170T231 74T302 21L277 324L271 627Q271 628 261 629T237 631T213 633T201 634Q180 634 174 616T167 576Q167 559 169 544T171 520ZM487 746Q487 734 482 731T466 728H459Q457 728 455 729L267 789Q266 789 266
790V792Q266 803 274 809T292 815Q292 814 293 814H295H298L486 754V751Q486 749 486 748T487 746Z" />
<glyph unicode="&#xda;" glyph-name="Uacute" horiz-adv-x="741" d="M232 9Q212 30 199 44T178 70T163 98T151 138T138 200T119 296L90 309Q93 323 98 329T115 340Q116 342 118 352T123 375T128 397T130 410Q130 413 129 423T127 444T125 466T124 479Q124 516
126 552T129 626Q103 626 92 610T75 574T64 538T46 521Q33 521 26 530T18 551Q18 587 33 612T72 653T127 676T190 683Q217 683 243 680T298 676Q323 676 345 680T379 684Q386 684 394 682T402 671Q402 658 392 650T369 635T341 626T320 621Q318 618 316 607T312
583T309 554T307 528Q307 519 307 491T308 432T309 373T310 335Q324 335 336 337T360 340Q368 340 369 335T371 324Q371 300 353 296T313 290V271L351 19Q352 14 365 13T387 12Q441 12 480 33T545 87T587 163T611 249T622 334T625 405Q625 428 625 442T624 460Q624
485 620 510T612 559T603 609T599 659Q599 673 607 678T628 684Q635 684 641 676T648 658Q651 628 654 604T658 558T661 514T662 467Q662 374 658 303T637 178T589 80T506 0Q502 -3 486 -8T451 -19T416 -28T397 -32Q382 -32 358 -30T309 -22T263 -10T232 9ZM171
520Q171 506 170 474T168 397Q168 345 172 285T191 170T231 74T302 21L277 324L271 627Q271 628 261 629T237 631T213 633T201 634Q180 634 174 616T167 576Q167 559 169 544T171 520ZM302 742Q302 744 303 745L491 805H493Q494 805 495 805T497 806Q507 806 515
800T523 783Q523 782 523 782T522 781V780L334 720Q332 719 330 719H323Q312 719 307 722T302 737V742Z" />
<glyph unicode="&#xdb;" glyph-name="Ucircumflex" horiz-adv-x="741" d="M232 9Q212 30 199 44T178 70T163 98T151 138T138 200T119 296L90 309Q93 323 98 329T115 340Q116 342 118 352T123 375T128 397T130 410Q130 413 129 423T127 444T125 466T124 479Q124
516 126 552T129 626Q103 626 92 610T75 574T64 538T46 521Q33 521 26 530T18 551Q18 587 33 612T72 653T127 676T190 683Q217 683 243 680T298 676Q323 676 345 680T379 684Q386 684 394 682T402 671Q402 658 392 650T369 635T341 626T320 621Q318 618 316 607T312
583T309 554T307 528Q307 519 307 491T308 432T309 373T310 335Q324 335 336 337T360 340Q368 340 369 335T371 324Q371 300 353 296T313 290V271L351 19Q352 14 365 13T387 12Q441 12 480 33T545 87T587 163T611 249T622 334T625 405Q625 428 625 442T624 460Q624
485 620 510T612 559T603 609T599 659Q599 673 607 678T628 684Q635 684 641 676T648 658Q651 628 654 604T658 558T661 514T662 467Q662 374 658 303T637 178T589 80T506 0Q502 -3 486 -8T451 -19T416 -28T397 -32Q382 -32 358 -30T309 -22T263 -10T232 9ZM171
520Q171 506 170 474T168 397Q168 345 172 285T191 170T231 74T302 21L277 324L271 627Q271 628 261 629T237 631T213 633T201 634Q180 634 174 616T167 576Q167 559 169 544T171 520ZM187 744Q190 759 194 766T205 778T221 785T244 794L373 842H376Q378 842 379
842T381 843Q391 842 403 839T423 830L554 766Q556 764 561 755T566 744Q566 734 558 731T541 728L411 780Q407 784 402 785Q398 786 395 787Q394 787 394 787T393 786H392Q348 767 318 756T269 739T239 732T222 730Q210 730 202 731T187 744Z" />
<glyph unicode="&#xdc;" glyph-name="Udieresis" horiz-adv-x="741" d="M232 9Q212 30 199 44T178 70T163 98T151 138T138 200T119 296L90 309Q93 323 98 329T115 340Q116 342 118 352T123 375T128 397T130 410Q130 413 129 423T127 444T125 466T124 479Q124 516
126 552T129 626Q103 626 92 610T75 574T64 538T46 521Q33 521 26 530T18 551Q18 587 33 612T72 653T127 676T190 683Q217 683 243 680T298 676Q323 676 345 680T379 684Q386 684 394 682T402 671Q402 658 392 650T369 635T341 626T320 621Q318 618 316 607T312
583T309 554T307 528Q307 519 307 491T308 432T309 373T310 335Q324 335 336 337T360 340Q368 340 369 335T371 324Q371 300 353 296T313 290V271L351 19Q352 14 365 13T387 12Q441 12 480 33T545 87T587 163T611 249T622 334T625 405Q625 428 625 442T624 460Q624
485 620 510T612 559T603 609T599 659Q599 673 607 678T628 684Q635 684 641 676T648 658Q651 628 654 604T658 558T661 514T662 467Q662 374 658 303T637 178T589 80T506 0Q502 -3 486 -8T451 -19T416 -28T397 -32Q382 -32 358 -30T309 -22T263 -10T232 9ZM171
520Q171 506 170 474T168 397Q168 345 172 285T191 170T231 74T302 21L277 324L271 627Q271 628 261 629T237 631T213 633T201 634Q180 634 174 616T167 576Q167 559 169 544T171 520ZM214 783Q214 795 220 805T236 821T257 831T280 835Q300 835 310 822T320 791Q320
767 306 754T268 740Q259 740 250 743T232 752T219 766T214 783ZM416 783Q416 795 422 805T437 821T459 831T482 835Q501 835 511 822T522 791Q522 767 507 754T469 740Q452 740 434 752T416 783Z" />
<glyph unicode="&#xdd;" glyph-name="Yacute" horiz-adv-x="709" d="M143 31Q143 36 140 47T137 65V69Q143 91 154 111T177 152T196 194T204 240Q204 263 197 269T180 276T163 277T155 289Q155 292 160 296T172 303T187 308T201 311Q197 318 189 336T171 375T154
415T143 442Q143 443 137 464T123 510T108 559T100 588V603Q89 603 74 604T44 609T21 621T11 646Q11 648 11 654T12 662Q20 662 41 664T85 669T129 674T158 676Q167 676 177 675T197 669T212 658T218 638Q218 637 218 637T217 634V631L158 603Q157 601 157 600V597Q157
595 157 592T158 588Q170 535 183 488T208 404T230 347T246 325H260L404 609Q403 612 403 620T402 638Q402 660 407 671T432 683Q455 683 475 682T514 681Q542 681 567 682T619 684T675 686T739 687Q739 669 727 660T700 646T671 640T653 639Q648 620 636 606T608
580L623 566Q620 564 614 558T601 544T588 531T579 522V508Q577 503 562 478T529 424T496 369T479 340Q479 338 479 336T478 331Q478 324 482 322T493 318T503 314T508 304Q508 290 499 284T478 275T454 267T435 253Q409 214 388 164T356 69Q355 67 355 63Q355
55 356 52L358 46H487L502 24Q496 13 471 5T408 -8T321 -17T219 -21T110 -23T2 -24Q2 -17 3 -7T7 11T12 25T21 31H143ZM180 38Q183 38 202 40T242 45T281 50T298 54L608 639Q605 639 598 640T583 642T568 643T557 644Q552 644 544 644T528 642T514 640T507 639Q503
637 494 630T476 614T458 595T447 580L180 54V38ZM255 742Q255 744 256 745L444 805H446Q447 805 448 805T450 806Q460 806 468 800T476 783Q476 782 476 782T475 781V780L287 720Q285 719 283 719H276Q265 719 260 722T255 737V742Z" />
<glyph unicode="&#xde;" glyph-name="Thorn" horiz-adv-x="703" d="M75 6Q75 12 77 20T87 28H162V148H76Q72 148 67 151T56 159T48 169T44 177Q44 183 51 186T63 192Q68 191 78 191T100 191Q137 191 147 196T158 216Q158 222 157 230T156 248Q156 260 156 289T154
349T150 403T144 428Q127 430 106 430T66 432T35 445T22 479Q52 479 82 475T143 471Q143 475 143 486T144 502Q144 508 143 524T141 558T138 591T137 613H125Q123 613 117 612T103 610T89 608T81 607Q73 607 65 615T56 632Q56 645 65 649T86 655T110 656T131 663Q137
667 138 671T140 677T144 680T156 682Q162 682 166 680T173 676T179 672T188 670Q233 670 277 673T367 677Q375 677 380 675T385 664Q385 652 383 646T377 637T365 631T348 626Q345 601 344 580T342 535Q342 524 342 516T348 496Q369 499 391 499Q437 499 482 487T571
459Q595 451 616 438T654 406T680 365T690 315Q690 281 678 247T634 192Q627 188 614 182T586 169T561 159T546 154L360 143L348 137Q346 135 345 128T344 113T343 97T342 89Q342 81 342 71T343 53Q343 43 344 34H392Q396 34 397 29T398 18V7Q398 2 397 -1T392
-6L329 -19H94Q84 -19 80 -11T75 6ZM181 584Q181 578 181 554T183 497T185 431T187 371Q187 358 188 328T191 260T195 180T200 104T205 47T211 25H299L304 68Q304 97 304 142T305 234T305 327T306 401Q306 485 305 533T299 607L293 626Q291 628 284 628T267 628Q242
628 220 628T181 620V586V584ZM596 315Q596 275 572 244T516 192Q538 192 562 201T606 227T639 264T652 311Q652 346 628 374T571 415Q571 414 571 414T570 413V412Q570 411 574 404T584 390Q589 385 591 375T595 354T596 333T596 315ZM349 454Q349 391 345 330T341
207Q373 207 410 211T479 230T532 269T553 337Q553 346 552 356T546 371L478 434Q468 443 451 447T416 453T379 455T349 454Z" />
<glyph unicode="&#xdf;" glyph-name="germandbls" horiz-adv-x="614" d="M35 -99Q34 -97 34 -93T34 -87Q34 -63 49 -57T84 -51T118 -50T134 -38Q134 16 127 76T116 192Q115 206 113 222T107 252T95 275T76 284Q58 284 45 280T17 264Q12 277 11 285T9 305Q9 310
12 321T23 332H103L109 338V375Q109 416 115 455T135 529T175 595T240 649Q246 652 257 657T280 667T302 675T314 679H426Q435 679 453 669T488 644T518 616T531 593V531Q531 529 526 518T514 492T500 465T488 444Q484 438 477 430T462 413T449 398T443 388Q443
383 444 381T451 376Q470 364 493 344T535 298T568 244T582 187Q582 171 581 148T574 103T557 62T525 37L364 -19Q363 -20 362 -20H360Q349 -20 344 -7T338 15Q338 24 352 29T389 39T437 53T485 74T522 110T537 166Q537 193 528 220T503 272T466 315T419 345Q402
358 398 365T394 387Q394 396 395 403T401 420Q415 435 429 450T456 482T475 518T483 558Q483 592 461 617T401 643Q394 643 383 641T360 636T339 626T326 612L295 537V531Q291 502 288 477T282 426T278 374T276 316Q276 286 277 244T281 156T286 64T295 -19Q295
-39 305 -45T327 -55T349 -63T359 -83Q359 -86 358 -92T351 -99H147Q138 -99 131 -102T118 -109T106 -116T91 -119Q74 -119 64 -115T35 -99ZM151 345Q151 337 151 323T151 295T152 270T153 258Q154 239 157 210T163 147T169 79T175 18T180 -27T184 -44H247Q247
-5 245 41T240 136T235 231T233 317Q233 324 233 342T233 381T234 419T234 444Q234 447 236 459T240 475Q243 509 254 541T265 605L246 599Q244 599 237 593T221 577T203 559T190 544Q182 534 176 519T166 488T158 456T153 432Q153 427 153 415T152 389T151 363T151
345Z" />
<glyph unicode="&#xe0;" glyph-name="agrave" horiz-adv-x="539" d="M19 71Q19 108 36 134T86 180T162 213T261 237Q284 241 298 243T321 250T332 269T335 312Q335 328 332 342T321 367T299 384T262 391Q245 391 236 384T223 368T217 350T216 335Q216 324 220
320T225 305Q225 295 219 290T204 282T185 279T166 278Q157 278 146 275T123 269T103 263T90 260Q81 260 77 271T72 291Q72 301 79 317T96 349T117 380T136 400Q167 423 193 437T257 452Q274 452 294 450T334 443T374 428T408 406Q423 392 432 375T447 339T455
302T457 269Q457 242 450 214T443 149Q443 134 447 117T459 83T477 57T498 46Q504 46 509 50T520 54Q532 54 536 48T541 33Q541 25 535 14T517 -7T488 -24T450 -32Q421 -32 407 -28T375 -13Q371 -10 363 -3T347 13T333 28T325 35Q292 -5 248 -26T153 -47Q121 -47
96 -35T54 -4T28 35T19 71ZM55 79Q55 61 64 46T88 21T118 5T149 -1Q160 -1 169 3Q159 26 152 50T144 105Q144 128 152 148T175 189Q156 180 135 170T96 146T67 117T55 79ZM185 111Q185 103 186 88T190 57T200 29T216 15Q228 15 241 20T265 34T284 54T293 79L305
204Q284 204 263 199T224 182T196 153T185 111ZM380 298Q380 275 375 258T363 224T351 189T345 147Q345 121 350 97T369 55T404 25T458 13Q426 50 415 90T404 175Q404 193 406 206T412 233T418 260T421 294Q421 308 416 323T401 351T379 372T354 383Q369 360 374
341T380 298ZM183 385Q171 384 159 376T137 354T121 326T114 298Q119 303 135 304T165 306Q172 306 177 306T186 305Q182 316 182 341Q182 352 182 363T183 385ZM382 586Q382 574 377 571T361 568H354Q352 568 350 569L162 629Q161 629 161 630V632Q161 643 169
649T187 655Q187 654 188 654H190H193L381 594V591Q381 589 381 588T382 586Z" />
<glyph unicode="&#xe1;" glyph-name="aacute" horiz-adv-x="539" d="M19 71Q19 108 36 134T86 180T162 213T261 237Q284 241 298 243T321 250T332 269T335 312Q335 328 332 342T321 367T299 384T262 391Q245 391 236 384T223 368T217 350T216 335Q216 324 220
320T225 305Q225 295 219 290T204 282T185 279T166 278Q157 278 146 275T123 269T103 263T90 260Q81 260 77 271T72 291Q72 301 79 317T96 349T117 380T136 400Q167 423 193 437T257 452Q274 452 294 450T334 443T374 428T408 406Q423 392 432 375T447 339T455
302T457 269Q457 242 450 214T443 149Q443 134 447 117T459 83T477 57T498 46Q504 46 509 50T520 54Q532 54 536 48T541 33Q541 25 535 14T517 -7T488 -24T450 -32Q421 -32 407 -28T375 -13Q371 -10 363 -3T347 13T333 28T325 35Q292 -5 248 -26T153 -47Q121 -47
96 -35T54 -4T28 35T19 71ZM55 79Q55 61 64 46T88 21T118 5T149 -1Q160 -1 169 3Q159 26 152 50T144 105Q144 128 152 148T175 189Q156 180 135 170T96 146T67 117T55 79ZM185 111Q185 103 186 88T190 57T200 29T216 15Q228 15 241 20T265 34T284 54T293 79L305
204Q284 204 263 199T224 182T196 153T185 111ZM380 298Q380 275 375 258T363 224T351 189T345 147Q345 121 350 97T369 55T404 25T458 13Q426 50 415 90T404 175Q404 193 406 206T412 233T418 260T421 294Q421 308 416 323T401 351T379 372T354 383Q369 360 374
341T380 298ZM183 385Q171 384 159 376T137 354T121 326T114 298Q119 303 135 304T165 306Q172 306 177 306T186 305Q182 316 182 341Q182 352 182 363T183 385ZM161 591Q161 593 162 594L350 654H352Q353 654 354 654T356 655Q366 655 374 649T382 632Q382 631
382 631T381 630V629L193 569Q191 568 189 568H182Q171 568 166 571T161 586V591Z" />
<glyph unicode="&#xe2;" glyph-name="acircumflex" horiz-adv-x="539" d="M19 71Q19 108 36 134T86 180T162 213T261 237Q284 241 298 243T321 250T332 269T335 312Q335 328 332 342T321 367T299 384T262 391Q245 391 236 384T223 368T217 350T216 335Q216 324
220 320T225 305Q225 295 219 290T204 282T185 279T166 278Q157 278 146 275T123 269T103 263T90 260Q81 260 77 271T72 291Q72 301 79 317T96 349T117 380T136 400Q167 423 193 437T257 452Q274 452 294 450T334 443T374 428T408 406Q423 392 432 375T447 339T455
302T457 269Q457 242 450 214T443 149Q443 134 447 117T459 83T477 57T498 46Q504 46 509 50T520 54Q532 54 536 48T541 33Q541 25 535 14T517 -7T488 -24T450 -32Q421 -32 407 -28T375 -13Q371 -10 363 -3T347 13T333 28T325 35Q292 -5 248 -26T153 -47Q121 -47
96 -35T54 -4T28 35T19 71ZM55 79Q55 61 64 46T88 21T118 5T149 -1Q160 -1 169 3Q159 26 152 50T144 105Q144 128 152 148T175 189Q156 180 135 170T96 146T67 117T55 79ZM185 111Q185 103 186 88T190 57T200 29T216 15Q228 15 241 20T265 34T284 54T293 79L305
204Q284 204 263 199T224 182T196 153T185 111ZM380 298Q380 275 375 258T363 224T351 189T345 147Q345 121 350 97T369 55T404 25T458 13Q426 50 415 90T404 175Q404 193 406 206T412 233T418 260T421 294Q421 308 416 323T401 351T379 372T354 383Q369 360 374
341T380 298ZM183 385Q171 384 159 376T137 354T121 326T114 298Q119 303 135 304T165 306Q172 306 177 306T186 305Q182 316 182 341Q182 352 182 363T183 385ZM81 840Q84 855 88 862T99 874T115 881T138 890L267 938H270Q272 938 273 938T275 939Q285 938 297
935T317 926L448 862Q450 860 455 851T460 840Q460 830 452 827T435 824L305 876Q301 880 296 881Q292 882 289 883Q288 883 288 883T287 882H286Q242 863 212 852T163 835T133 828T116 826Q104 826 96 827T81 840Z" />
<glyph unicode="&#xe3;" glyph-name="atilde" horiz-adv-x="539" d="M19 71Q19 108 36 134T86 180T162 213T261 237Q284 241 298 243T321 250T332 269T335 312Q335 328 332 342T321 367T299 384T262 391Q245 391 236 384T223 368T217 350T216 335Q216 324 220
320T225 305Q225 295 219 290T204 282T185 279T166 278Q157 278 146 275T123 269T103 263T90 260Q81 260 77 271T72 291Q72 301 79 317T96 349T117 380T136 400Q167 423 193 437T257 452Q274 452 294 450T334 443T374 428T408 406Q423 392 432 375T447 339T455
302T457 269Q457 242 450 214T443 149Q443 134 447 117T459 83T477 57T498 46Q504 46 509 50T520 54Q532 54 536 48T541 33Q541 25 535 14T517 -7T488 -24T450 -32Q421 -32 407 -28T375 -13Q371 -10 363 -3T347 13T333 28T325 35Q292 -5 248 -26T153 -47Q121 -47
96 -35T54 -4T28 35T19 71ZM55 79Q55 61 64 46T88 21T118 5T149 -1Q160 -1 169 3Q159 26 152 50T144 105Q144 128 152 148T175 189Q156 180 135 170T96 146T67 117T55 79ZM185 111Q185 103 186 88T190 57T200 29T216 15Q228 15 241 20T265 34T284 54T293 79L305
204Q284 204 263 199T224 182T196 153T185 111ZM380 298Q380 275 375 258T363 224T351 189T345 147Q345 121 350 97T369 55T404 25T458 13Q426 50 415 90T404 175Q404 193 406 206T412 233T418 260T421 294Q421 308 416 323T401 351T379 372T354 383Q369 360 374
341T380 298ZM183 385Q171 384 159 376T137 354T121 326T114 298Q119 303 135 304T165 306Q172 306 177 306T186 305Q182 316 182 341Q182 352 182 363T183 385ZM5 572Q5 598 22 611T61 639Q86 656 115 667T182 679Q203 679 231 671T288 652T342 634T381 625Q428
625 459 641T515 695Q527 695 531 691T540 676Q535 650 519 633T481 604T433 587T384 582Q368 582 343 590T290 608T234 626T183 634Q146 634 122 621T80 591T51 561T27 547Q15 547 10 554T5 572Z" />
<glyph unicode="&#xe4;" glyph-name="adieresis" horiz-adv-x="539" d="M19 71Q19 108 36 134T86 180T162 213T261 237Q284 241 298 243T321 250T332 269T335 312Q335 328 332 342T321 367T299 384T262 391Q245 391 236 384T223 368T217 350T216 335Q216 324 220
320T225 305Q225 295 219 290T204 282T185 279T166 278Q157 278 146 275T123 269T103 263T90 260Q81 260 77 271T72 291Q72 301 79 317T96 349T117 380T136 400Q167 423 193 437T257 452Q274 452 294 450T334 443T374 428T408 406Q423 392 432 375T447 339T455
302T457 269Q457 242 450 214T443 149Q443 134 447 117T459 83T477 57T498 46Q504 46 509 50T520 54Q532 54 536 48T541 33Q541 25 535 14T517 -7T488 -24T450 -32Q421 -32 407 -28T375 -13Q371 -10 363 -3T347 13T333 28T325 35Q292 -5 248 -26T153 -47Q121 -47
96 -35T54 -4T28 35T19 71ZM55 79Q55 61 64 46T88 21T118 5T149 -1Q160 -1 169 3Q159 26 152 50T144 105Q144 128 152 148T175 189Q156 180 135 170T96 146T67 117T55 79ZM185 111Q185 103 186 88T190 57T200 29T216 15Q228 15 241 20T265 34T284 54T293 79L305
204Q284 204 263 199T224 182T196 153T185 111ZM380 298Q380 275 375 258T363 224T351 189T345 147Q345 121 350 97T369 55T404 25T458 13Q426 50 415 90T404 175Q404 193 406 206T412 233T418 260T421 294Q421 308 416 323T401 351T379 372T354 383Q369 360 374
341T380 298ZM183 385Q171 384 159 376T137 354T121 326T114 298Q119 303 135 304T165 306Q172 306 177 306T186 305Q182 316 182 341Q182 352 182 363T183 385ZM375 906Q375 918 381 928T397 944T418 954T441 958Q461 958 471 945T481 914Q481 890 467 877T429
863Q420 863 411 866T393 875T380 889T375 906ZM577 906Q577 918 583 928T598 944T620 954T643 958Q662 958 672 945T683 914Q683 890 668 877T630 863Q613 863 595 875T577 906Z" />
<glyph unicode="&#xe5;" glyph-name="aring" horiz-adv-x="539" d="M19 71Q19 108 36 134T86 180T162 213T261 237Q284 241 298 243T321 250T332 269T335 312Q335 328 332 342T321 367T299 384T262 391Q245 391 236 384T223 368T217 350T216 335Q216 324 220 320T225
305Q225 295 219 290T204 282T185 279T166 278Q157 278 146 275T123 269T103 263T90 260Q81 260 77 271T72 291Q72 301 79 317T96 349T117 380T136 400Q167 423 193 437T257 452Q274 452 294 450T334 443T374 428T408 406Q423 392 432 375T447 339T455 302T457
269Q457 242 450 214T443 149Q443 134 447 117T459 83T477 57T498 46Q504 46 509 50T520 54Q532 54 536 48T541 33Q541 25 535 14T517 -7T488 -24T450 -32Q421 -32 407 -28T375 -13Q371 -10 363 -3T347 13T333 28T325 35Q292 -5 248 -26T153 -47Q121 -47 96 -35T54
-4T28 35T19 71ZM55 79Q55 61 64 46T88 21T118 5T149 -1Q160 -1 169 3Q159 26 152 50T144 105Q144 128 152 148T175 189Q156 180 135 170T96 146T67 117T55 79ZM185 111Q185 103 186 88T190 57T200 29T216 15Q228 15 241 20T265 34T284 54T293 79L305 204Q284 204
263 199T224 182T196 153T185 111ZM380 298Q380 275 375 258T363 224T351 189T345 147Q345 121 350 97T369 55T404 25T458 13Q426 50 415 90T404 175Q404 193 406 206T412 233T418 260T421 294Q421 308 416 323T401 351T379 372T354 383Q369 360 374 341T380 298ZM183
385Q171 384 159 376T137 354T121 326T114 298Q119 303 135 304T165 306Q172 306 177 306T186 305Q182 316 182 341Q182 352 182 363T183 385ZM178 634Q178 657 192 679T229 710Q232 710 245 711T263 712Q280 712 298 707T331 692T355 667T365 631Q365 614 357
596T335 564T304 540T270 530Q264 530 255 530T241 537L185 605Q181 610 180 618T178 634ZM227 634Q227 626 230 616T238 597T251 582T269 575Q280 575 289 580T306 594T318 613T322 634Q322 657 307 662T272 668Q239 668 233 659T227 634Z" />
<glyph unicode="&#xe6;" glyph-name="ae" horiz-adv-x="726" d="M327 46Q316 37 308 26T291 4T272 -16T247 -31Q231 -37 220 -40T199 -45T180 -47T158 -48Q147 -48 140 -47T123 -41Q95 -29 79 -17T54 8T43 38T40 74Q40 85 41 93T45 108T55 124T73 146Q78 157 93
160T123 168Q150 178 173 187T215 196Q238 196 266 198T315 202Q332 204 336 219T340 255V346Q327 363 315 375T290 395T260 409T222 417Q221 417 219 415T215 412Q197 374 192 331T185 246L179 240Q179 240 164 239T128 235T87 231T57 229Q30 229 30 251Q30 254
33 270T41 305T50 339T55 357Q65 382 76 401T103 434T142 455T198 462Q206 462 210 461T222 457Q246 449 268 442T311 424T348 399T377 362Q383 378 396 392T427 417T463 434T501 441Q504 441 512 439T530 433T553 425T575 417Q597 409 611 403T635 388T654 366T674
334Q675 331 678 324T685 307T690 290T693 279Q693 271 688 255T675 221T661 190T649 174H606Q589 174 582 175T563 180Q553 181 540 181T514 183T487 187T464 196Q464 194 464 187T463 177Q463 161 466 152T470 129Q470 127 470 119T469 102Q469 98 469 95T470
91Q470 85 473 67T485 30T507 -5T539 -21Q557 -21 566 -10T581 18T588 54T592 90T597 118T609 129Q611 129 617 127T631 121T643 115T649 112Q654 109 661 103T675 91T687 78T693 70Q691 60 689 48T686 34Q686 30 686 28T687 23Q687 15 681 8Q667 -9 646 -22T601
-45T551 -60T505 -65Q502 -65 499 -65T495 -64Q488 -63 474 -60T444 -53T416 -46T402 -41Q380 -30 361 -5T327 46ZM365 52Q365 51 369 43T377 29Q395 4 421 -10T482 -26Q482 -13 468 3T445 46Q443 55 440 79T432 129T425 179T420 212Q420 239 422 259T430 298T444
334T464 374Q464 383 471 387T478 403Q478 403 470 400T452 391T431 378T415 362Q410 354 405 341T396 313T389 283T383 257Q375 241 373 230T370 210T369 194T365 180V52ZM79 66Q79 35 104 13T166 -9L154 14Q153 20 153 25Q152 30 152 34T152 42Q152 106 203 157Q202
157 200 157T197 158Q182 150 162 144T123 129T92 106T79 66ZM197 19Q198 17 208 10T222 2Q223 2 232 6T247 14Q253 14 264 29T286 64T306 104T315 136Q315 143 314 150T304 158Q281 158 262 147T227 118T204 81T195 44Q195 41 195 31T197 19ZM626 77Q626 60 622
42T613 8Q614 8 615 7Q621 7 627 14T638 30T646 48T649 62Q649 68 642 72T626 77ZM594 223Q596 219 602 216T613 212Q622 212 628 221T640 244T647 271T650 294Q650 314 642 327T619 357Q614 364 603 377T579 390Q578 390 578 390T577 389H575Q589 365 595 337T601
291V285Q601 269 600 255T594 223ZM463 236Q463 224 470 221T495 218Q504 218 519 218T550 219Q548 220 546 224T544 229Q546 246 549 256T557 274Q557 282 555 299T547 332T534 361T517 374Q511 374 507 368Q487 334 475 304T463 236ZM166 417Q152 417 141 410T121
391T106 367T97 346Q90 329 85 308T79 268H140L166 417Z" />
<glyph unicode="&#xe7;" glyph-name="ccedilla" horiz-adv-x="547" d="M294 -29Q238 -29 191 -18T108 19T53 91T33 204Q33 244 48 283T95 352T173 402T283 421Q313 421 338 416T394 410Q422 410 440 418T472 437Q476 437 482 435T494 429T504 423T508 419V305Q508
295 496 288T475 281Q463 281 449 295T414 327T367 359T304 374Q293 374 284 369T269 355Q250 330 240 305T226 257T220 212T219 172Q219 142 226 113T246 60T275 21T309 6Q351 6 384 23T446 67Q452 74 455 82T462 98T473 111T493 116Q509 116 515 106T521 86Q520
84 517 79T509 68T500 57T493 49Q471 26 450 11T404 -13T353 -25T294 -29ZM89 179Q89 152 97 124T120 72T156 34T205 19H209Q211 19 212 19T214 20Q198 30 190 52T177 98T173 145T172 180Q172 195 174 220T180 271T189 322T199 362Q179 355 160 344T124 313T99
261T89 179ZM462 337Q466 342 467 348T468 359Q468 366 466 373T462 387L418 365L462 337ZM187 -204Q187 -203 188 -200T193 -196Q201 -196 207 -200T219 -208T231 -217T245 -221Q257 -221 267 -214T283 -197T294 -174T298 -152Q298 -138 289 -131T268 -118T245
-109T230 -96V-71Q230 -63 231 -49T237 -20T248 5T267 16Q275 16 277 12T280 0Q280 -16 273 -29T266 -59Q266 -63 267 -65L330 -127Q334 -132 335 -142T336 -160Q336 -175 331 -192T315 -223T290 -248T258 -258Q246 -258 234 -256T211 -247T194 -230T187 -204Z"
/>
<glyph unicode="&#xe8;" glyph-name="egrave" horiz-adv-x="552" d="M28 208Q28 251 59 295T135 374T231 432T325 454Q351 454 383 449T442 430T489 393T508 334Q508 288 483 252T419 190T334 149T247 129Q247 127 247 123T246 116Q246 105 248 91T256 64T268
39T286 22Q288 21 298 21T312 21Q320 21 334 22T365 26T402 36T442 54Q453 60 464 72T487 97T509 119T528 129Q535 129 539 120T543 107Q544 97 516 66Q493 41 462 23T395 -6T323 -23T254 -29Q187 -29 139 5T53 91Q34 117 31 146T28 208ZM78 191Q78 153 90 127T122
82T169 52T223 29Q208 69 198 112T188 198Q188 249 206 299T247 395Q223 388 194 368T139 320T96 259T78 191ZM234 203Q234 193 244 186T272 179Q290 179 309 196T345 238T372 290T383 338Q383 350 379 361T368 382T351 398T328 404Q307 404 290 383T260 331T241
265T234 203ZM410 397Q420 382 424 367T428 337Q428 299 406 263T354 191Q382 207 403 222T438 253T459 286T467 326Q467 332 463 344T452 368T434 388T410 397ZM398 631Q398 619 393 616T377 613H370Q368 613 366 614L178 674Q177 674 177 675V677Q177 688 185
694T203 700Q203 699 204 699H206H209L397 639V636Q397 634 397 633T398 631Z" />
<glyph unicode="&#xe9;" glyph-name="eacute" horiz-adv-x="552" d="M28 208Q28 251 59 295T135 374T231 432T325 454Q351 454 383 449T442 430T489 393T508 334Q508 288 483 252T419 190T334 149T247 129Q247 127 247 123T246 116Q246 105 248 91T256 64T268
39T286 22Q288 21 298 21T312 21Q320 21 334 22T365 26T402 36T442 54Q453 60 464 72T487 97T509 119T528 129Q535 129 539 120T543 107Q544 97 516 66Q493 41 462 23T395 -6T323 -23T254 -29Q187 -29 139 5T53 91Q34 117 31 146T28 208ZM78 191Q78 153 90 127T122
82T169 52T223 29Q208 69 198 112T188 198Q188 249 206 299T247 395Q223 388 194 368T139 320T96 259T78 191ZM234 203Q234 193 244 186T272 179Q290 179 309 196T345 238T372 290T383 338Q383 350 379 361T368 382T351 398T328 404Q307 404 290 383T260 331T241
265T234 203ZM410 397Q420 382 424 367T428 337Q428 299 406 263T354 191Q382 207 403 222T438 253T459 286T467 326Q467 332 463 344T452 368T434 388T410 397ZM177 627Q177 629 178 630L366 690H368Q369 690 370 690T372 691Q382 691 390 685T398 668Q398 667
398 667T397 666V665L209 605Q207 604 205 604H198Q187 604 182 607T177 622V627Z" />
<glyph unicode="&#xea;" glyph-name="ecircumflex" horiz-adv-x="552" d="M28 208Q28 251 59 295T135 374T231 432T325 454Q351 454 383 449T442 430T489 393T508 334Q508 288 483 252T419 190T334 149T247 129Q247 127 247 123T246 116Q246 105 248 91T256 64T268
39T286 22Q288 21 298 21T312 21Q320 21 334 22T365 26T402 36T442 54Q453 60 464 72T487 97T509 119T528 129Q535 129 539 120T543 107Q544 97 516 66Q493 41 462 23T395 -6T323 -23T254 -29Q187 -29 139 5T53 91Q34 117 31 146T28 208ZM78 191Q78 153 90 127T122
82T169 52T223 29Q208 69 198 112T188 198Q188 249 206 299T247 395Q223 388 194 368T139 320T96 259T78 191ZM234 203Q234 193 244 186T272 179Q290 179 309 196T345 238T372 290T383 338Q383 350 379 361T368 382T351 398T328 404Q307 404 290 383T260 331T241
265T234 203ZM410 397Q420 382 424 367T428 337Q428 299 406 263T354 191Q382 207 403 222T438 253T459 286T467 326Q467 332 463 344T452 368T434 388T410 397ZM98 849Q101 864 105 871T116 883T132 890T155 899L284 947H287Q289 947 290 947T292 948Q302 947
314 944T334 935L465 871Q467 869 472 860T477 849Q477 839 469 836T452 833L322 885Q318 889 313 890Q309 891 306 892Q305 892 305 892T304 891H303Q259 872 229 861T180 844T150 837T133 835Q121 835 113 836T98 849Z" />
<glyph unicode="&#xeb;" glyph-name="edieresis" horiz-adv-x="552" d="M28 208Q28 251 59 295T135 374T231 432T325 454Q351 454 383 449T442 430T489 393T508 334Q508 288 483 252T419 190T334 149T247 129Q247 127 247 123T246 116Q246 105 248 91T256 64T268
39T286 22Q288 21 298 21T312 21Q320 21 334 22T365 26T402 36T442 54Q453 60 464 72T487 97T509 119T528 129Q535 129 539 120T543 107Q544 97 516 66Q493 41 462 23T395 -6T323 -23T254 -29Q187 -29 139 5T53 91Q34 117 31 146T28 208ZM78 191Q78 153 90 127T122
82T169 52T223 29Q208 69 198 112T188 198Q188 249 206 299T247 395Q223 388 194 368T139 320T96 259T78 191ZM234 203Q234 193 244 186T272 179Q290 179 309 196T345 238T372 290T383 338Q383 350 379 361T368 382T351 398T328 404Q307 404 290 383T260 331T241
265T234 203ZM410 397Q420 382 424 367T428 337Q428 299 406 263T354 191Q382 207 403 222T438 253T459 286T467 326Q467 332 463 344T452 368T434 388T410 397ZM135 888Q135 900 141 910T157 926T178 936T201 940Q221 940 231 927T241 896Q241 872 227 859T189
845Q180 845 171 848T153 857T140 871T135 888ZM337 888Q337 900 343 910T358 926T380 936T403 940Q422 940 432 927T443 896Q443 872 428 859T390 845Q373 845 355 857T337 888Z" />
<glyph unicode="&#xec;" glyph-name="igrave" horiz-adv-x="399" d="M49 4Q49 23 59 28T84 33T111 35T130 46Q130 49 130 56T130 72T131 87T131 97Q131 150 127 201T111 304Q99 322 82 325T50 328T23 332T11 354Q11 364 25 372T59 386T97 396T124 404Q163 418
203 433T287 448Q299 448 302 443T306 417Q306 409 305 401T300 385Q300 330 300 283T299 212Q299 183 299 166T302 135T310 105T324 60Q328 46 339 39T363 26T384 16T394 4Q394 -13 382 -17T355 -22Q353 -22 349 -22T343 -21Q314 -12 279 -10T211 -8Q178 -8 147
-11T80 -21Q78 -21 77 -21T74 -22Q49 -22 49 4ZM186 41H286Q283 48 279 62T271 91T264 117T261 127V140Q259 170 258 202T256 264T255 322T255 372L249 391Q237 387 226 386T200 385Q195 385 185 382T164 376T143 368T130 360Q145 351 152 329T161 291Q162 288
164 262T168 200T172 125T174 54L186 41ZM316 869Q316 857 311 854T295 851H288Q286 851 284 852L96 912Q95 912 95 913V915Q95 926 103 932T121 938Q121 937 122 937H124H127L315 877V874Q315 872 315 871T316 869Z" />
<glyph unicode="&#xed;" glyph-name="iacute" horiz-adv-x="399" d="M49 4Q49 23 59 28T84 33T111 35T130 46Q130 49 130 56T130 72T131 87T131 97Q131 150 127 201T111 304Q99 322 82 325T50 328T23 332T11 354Q11 364 25 372T59 386T97 396T124 404Q163 418
203 433T287 448Q299 448 302 443T306 417Q306 409 305 401T300 385Q300 330 300 283T299 212Q299 183 299 166T302 135T310 105T324 60Q328 46 339 39T363 26T384 16T394 4Q394 -13 382 -17T355 -22Q353 -22 349 -22T343 -21Q314 -12 279 -10T211 -8Q178 -8 147
-11T80 -21Q78 -21 77 -21T74 -22Q49 -22 49 4ZM186 41H286Q283 48 279 62T271 91T264 117T261 127V140Q259 170 258 202T256 264T255 322T255 372L249 391Q237 387 226 386T200 385Q195 385 185 382T164 376T143 368T130 360Q145 351 152 329T161 291Q162 288
164 262T168 200T172 125T174 54L186 41ZM95 865Q95 867 96 868L284 928H286Q287 928 288 928T290 929Q300 929 308 923T316 906Q316 905 316 905T315 904V903L127 843Q125 842 123 842H116Q105 842 100 845T95 860V865Z" />
<glyph unicode="&#xee;" glyph-name="icircumflex" horiz-adv-x="399" d="M49 4Q49 23 59 28T84 33T111 35T130 46Q130 49 130 56T130 72T131 87T131 97Q131 150 127 201T111 304Q99 322 82 325T50 328T23 332T11 354Q11 364 25 372T59 386T97 396T124 404Q163
418 203 433T287 448Q299 448 302 443T306 417Q306 409 305 401T300 385Q300 330 300 283T299 212Q299 183 299 166T302 135T310 105T324 60Q328 46 339 39T363 26T384 16T394 4Q394 -13 382 -17T355 -22Q353 -22 349 -22T343 -21Q314 -12 279 -10T211 -8Q178 -8
147 -11T80 -21Q78 -21 77 -21T74 -22Q49 -22 49 4ZM186 41H286Q283 48 279 62T271 91T264 117T261 127V140Q259 170 258 202T256 264T255 322T255 372L249 391Q237 387 226 386T200 385Q195 385 185 382T164 376T143 368T130 360Q145 351 152 329T161 291Q162
288 164 262T168 200T172 125T174 54L186 41ZM15 831Q18 846 22 853T33 865T49 872T72 881L201 929H204Q206 929 207 929T209 930Q219 929 231 926T251 917L382 853Q384 851 389 842T394 831Q394 821 386 818T369 815L239 867Q235 871 230 872Q226 873 223 874Q222
874 222 874T221 873H220Q176 854 146 843T97 826T67 819T50 817Q38 817 30 818T15 831Z" />
<glyph unicode="&#xef;" glyph-name="idieresis" horiz-adv-x="399" d="M49 4Q49 23 59 28T84 33T111 35T130 46Q130 49 130 56T130 72T131 87T131 97Q131 150 127 201T111 304Q99 322 82 325T50 328T23 332T11 354Q11 364 25 372T59 386T97 396T124 404Q163 418
203 433T287 448Q299 448 302 443T306 417Q306 409 305 401T300 385Q300 330 300 283T299 212Q299 183 299 166T302 135T310 105T324 60Q328 46 339 39T363 26T384 16T394 4Q394 -13 382 -17T355 -22Q353 -22 349 -22T343 -21Q314 -12 279 -10T211 -8Q178 -8 147
-11T80 -21Q78 -21 77 -21T74 -22Q49 -22 49 4ZM186 41H286Q283 48 279 62T271 91T264 117T261 127V140Q259 170 258 202T256 264T255 322T255 372L249 391Q237 387 226 386T200 385Q195 385 185 382T164 376T143 368T130 360Q145 351 152 329T161 291Q162 288
164 262T168 200T172 125T174 54L186 41ZM310 879Q310 891 316 901T332 917T353 927T376 931Q396 931 406 918T416 887Q416 863 402 850T364 836Q355 836 346 839T328 848T315 862T310 879ZM512 879Q512 891 518 901T533 917T555 927T578 931Q597 931 607 918T618
887Q618 863 603 850T565 836Q548 836 530 848T512 879Z" />
<glyph unicode="&#xf0;" glyph-name="eth" horiz-adv-x="580" d="M241 627Q229 645 227 661Q227 670 233 676T250 683Q295 683 331 659T392 604Q405 612 423 622T453 633Q458 633 464 628T472 610Q472 597 461 593L419 568Q446 525 467 474T501 374T522 284T529
220Q529 183 527 147T510 84Q491 48 470 26T422 -9T364 -26T294 -31Q226 -31 170 -6T63 80Q42 112 37 148T31 222Q31 228 32 234T37 248Q48 275 56 291T73 319T91 338T115 357Q160 390 197 405T281 421Q313 421 345 414Q335 441 327 464T307 510L256 486Q245 481
234 477T215 472Q206 472 200 476T193 494Q193 506 203 515T229 530T259 542T285 552Q277 569 266 586T241 627ZM234 182Q234 163 236 137T245 86T263 44T292 27Q329 27 343 46T362 97Q364 115 366 129T371 158T374 187T376 223Q376 238 373 263T363 312T346 354T323
372Q296 372 279 358T251 320T237 270T233 215Q233 207 233 199T234 182ZM318 629Q305 636 295 639T279 642Q273 642 273 636Q273 630 280 621T296 597Q353 514 381 428T409 235Q409 219 408 194T404 140T394 87T378 45Q378 35 380 31T391 27Q411 28 428 43T458
82T478 136T485 196Q485 232 481 273T468 358T445 441T409 517Q383 559 363 585T318 629ZM75 203Q75 174 89 142T124 84T172 40T223 22Q222 22 222 23V26Q221 28 221 29Q207 75 201 126T194 226Q194 242 195 261T199 300T207 337T220 368Q206 367 182 351T134 310T93
257T75 203Z" />
<glyph unicode="&#xf1;" glyph-name="ntilde" horiz-adv-x="631" d="M23 15Q25 29 31 32T47 35Q49 35 50 35T55 34Q70 34 78 40T90 57T95 81T96 108Q96 159 103 211T110 318Q110 351 107 384Q100 384 92 384T75 383T61 382T51 382Q42 384 31 388T20 404Q20 408
26 415T35 426Q41 425 46 425T56 425Q85 425 97 426T115 427T128 429T155 430Q175 430 195 437T233 452Q245 450 253 445T266 437L261 388Q262 387 264 387Q265 386 268 386Q272 386 282 392T297 402Q344 423 372 433T422 444Q432 444 447 439T479 425T508 402T529
371Q543 337 548 315T553 275Q553 261 551 249T547 222T542 189T540 145Q540 136 540 130T542 118Q543 113 546 102T553 79T561 57T568 46Q573 41 581 40T596 36T609 30T615 17Q615 8 601 3T568 -5T531 -8T504 -9Q471 -9 447 8T407 56T384 129T376 220Q376 232
375 254T369 299T354 337T324 354Q310 354 298 347T276 328T260 304T252 280L232 82Q232 47 252 34T305 17Q312 16 312 7Q312 -4 301 -8T276 -12Q264 -12 255 -10T236 -5T217 0T191 3Q155 3 120 -4T51 -20Q37 -18 30 -8T23 15ZM141 364Q141 350 141 335T142 304Q142
295 140 272T136 219T132 156T130 95Q130 74 131 62T135 45T147 38T171 37Q186 37 192 40T198 54Q198 66 194 86Q196 103 198 128T204 182T210 241T216 297T220 342T222 371V375Q222 384 221 394T209 404Q207 404 198 403T177 399T157 393T145 386L141 364ZM376
387Q376 380 381 376T392 364T404 346T413 314Q416 287 415 246T418 161T437 81T488 26Q498 26 508 36T518 57Q518 60 516 72T510 97T505 123T502 140Q502 175 505 209T509 277Q509 305 503 331T476 382Q471 389 462 393T442 399T421 402T404 403Q393 403 385 400T376
387ZM69 837Q69 863 86 876T125 904Q150 921 179 932T246 944Q267 944 295 936T352 917T406 899T445 890Q492 890 523 906T579 960Q591 960 595 956T604 941Q599 915 583 898T545 869T497 852T448 847Q432 847 407 855T354 873T298 891T247 899Q210 899 186 886T144
856T115 826T91 812Q79 812 74 819T69 837Z" />
<glyph unicode="&#xf2;" glyph-name="ograve" horiz-adv-x="580" d="M57 82Q37 111 34 143T31 210Q31 259 60 298T134 366T232 410T336 426Q387 426 426 400T493 333T535 246T550 156Q550 100 520 54T432 -18Q425 -21 406 -25T366 -33T326 -40T300 -43Q226 -43
165 -16T57 82ZM225 364Q205 364 179 348T128 306T88 249T71 188Q71 167 77 146T100 107Q113 92 128 76T158 48T188 27T214 18Q204 58 191 100T178 186Q178 197 181 219T190 268T205 321T225 364ZM223 179Q223 160 225 133T235 81T254 38T284 20Q319 20 338 44T366
102T376 176T378 246Q378 265 375 287T365 330T350 363T332 377Q297 377 276 357T243 306T227 241T223 179ZM385 45Q384 43 384 41Q384 32 397 32Q422 32 441 45T474 81T493 130T500 186Q500 249 471 291T394 363Q408 325 413 288T419 215Q419 195 416 173T408
129T397 85T385 45ZM401 613Q401 601 396 598T380 595H373Q371 595 369 596L181 656Q180 656 180 657V659Q180 670 188 676T206 682Q206 681 207 681H209H212L400 621V618Q400 616 400 615T401 613Z" />
</font>
</defs>
</svg>
