<?xml version="1.0" standalone="no"?>
<!DOCTYPE svg PUBLIC "-//W3C//DTD SVG 1.1//EN" "http://www.w3.org/Graphics/SVG/1.1/DTD/svg11.dtd">
<svg xmlns="http://www.w3.org/2000/svg">
<defs >
<font id="Signika" horiz-adv-x="497" ><font-face
    font-family="Signika Light"
    units-per-em="1000"
    panose-1="2 1 0 3 2 6 0 0 0 4"
    ascent="940"
    descent="-292"
    alphabetic="0" />
<glyph unicode=" " glyph-name="space" horiz-adv-x="220" />
<glyph unicode="!" glyph-name="exclam" horiz-adv-x="277" d="M108 186L101 667Q130 689 181 689L186 684L167 186Q161 184 154 183T138 182Q119 182 108 186ZM91 83Q111 94 139 94Q150 94 160 93T177 88T188 73T192 43Q192 24 188 14T177 -1T160 -6T138 -7Q126
-7 116 -7T99 -2T88 13T84 43Q84 72 91 83Z" />
<glyph unicode="&quot;" glyph-name="quotedbl" horiz-adv-x="355" d="M215 736Q231 747 257 747T300 736Q306 715 306 703T302 666Q286 588 278 517Q271 512 258 512T236 517Q230 581 220 635T209 702T215 736ZM56 736Q73 747 98 747T141 736Q147 715 147 703T142
666Q127 588 119 517Q112 512 99 512T77 517Q71 581 61 635T50 702T56 736Z" />
<glyph unicode="#" glyph-name="numbersign" horiz-adv-x="605" d="M406 479L441 632Q454 636 475 636T511 632L476 479H577Q588 446 577 414H462L421 232H532Q545 199 532 167H406L372 14Q360 8 338 8T303 14L337 167H207L173 14Q161 8 138 8T103 14L137 167H31Q18
200 31 232H152L193 414H75Q64 446 75 479H207L242 632Q255 636 276 636T312 632L277 479H406ZM263 414L222 232H351L392 414H263Z" />
<glyph unicode="$" glyph-name="dollar" horiz-adv-x="494" d="M39 101Q40 137 71 161Q168 104 254 104Q305 104 337 125T370 185Q370 217 349 241T282 282L179 319Q62 361 62 456Q62 513 99 553T206 603V687Q211 689 220 689T238 690Q260 690 272 687V605Q349
600 427 563Q427 525 399 503Q320 541 245 541Q196 541 167 520T137 466Q137 433 156 417T218 385L318 349Q375 329 411 290T447 189Q447 159 435 133T400 86T344 53T268 39V-38Q260 -40 252 -40T234 -40Q226 -40 218 -40T202 -38V42Q107 54 39 101Z" />
<glyph unicode="%" glyph-name="percent" horiz-adv-x="861" d="M764 28Q724 -12 662 -12Q592 -12 552 36T512 187Q512 288 551 336T662 385Q734 385 773 336T812 187Q812 77 764 28ZM661 332Q580 332 580 186Q580 41 661 41Q743 41 743 186Q743 332 661 332ZM302
655Q349 606 349 497Q349 395 309 347T199 298Q130 298 90 346T50 497Q50 597 88 646T199 695Q265 695 302 655ZM199 642Q118 642 118 496Q118 351 199 351Q281 351 281 496Q281 642 199 642ZM205 0L582 683Q595 688 619 688Q630 688 640 687T656 683L280 0Q273
-3 263 -4T242 -5Q231 -5 221 -4T205 0Z" />
<glyph unicode="&amp;" glyph-name="ampersand" horiz-adv-x="604" d="M480 147L486 0Q471 -3 450 -3Q429 -3 414 0L408 39Q331 -12 242 -12Q154 -12 105 40T56 180Q56 213 66 243T95 297T138 340T189 366Q144 382 114 424T84 519Q84 556 98 588T140 644T204 681T289
695Q303 695 331 693T386 688T456 667Q456 627 435 606Q393 618 358 624T294 631Q232 631 199 600T165 514Q165 460 199 429T302 397H481Q543 397 570 410Q580 397 580 373Q580 331 515 331H479V268L480 147ZM406 267Q406 287 406 303T407 331H293Q254 331 225
319T176 286T147 238T137 180Q137 120 169 86T258 52Q344 52 406 103V267Z" />
<glyph unicode="&apos;" glyph-name="quotesingle" horiz-adv-x="194" d="M51 736Q68 747 93 747T136 736Q142 715 142 703T138 666Q122 588 114 517Q107 512 94 512T72 517Q66 581 56 635T45 702T51 736Z" />
<glyph unicode="(" glyph-name="parenleft" horiz-adv-x="308" d="M294 -127Q281 -159 248 -170Q206 -128 172 -70T115 54T78 190T65 326Q65 392 78 462T114 598T172 721T248 821Q281 813 294 779Q147 594 147 326Q147 57 294 -127Z" />
<glyph unicode=")" glyph-name="parenright" horiz-adv-x="308" d="M13 779Q28 813 60 821Q102 779 135 722T193 598T230 462T243 326Q243 260 230 190T194 54T136 -70T60 -170Q28 -159 13 -127Q161 57 161 326Q161 595 13 779Z" />
<glyph unicode="*" glyph-name="asterisk" horiz-adv-x="495" d="M49 562Q47 576 54 596T72 629L120 614Q146 606 226 563Q211 629 211 680L212 731Q225 737 247 737T283 731L284 680Q285 648 268 562Q336 602 376 614L424 628Q434 618 440 598T446 561L398 545Q360
532 281 523Q338 473 364 436L392 395Q384 382 367 370T334 354L305 394Q280 424 247 498Q219 430 191 394L160 354Q146 357 129 369T103 396L132 436Q151 462 214 523Q139 529 97 545L49 562Z" />
<glyph unicode="+" glyph-name="plus" horiz-adv-x="530" d="M229 324L228 362V506Q243 510 266 510T302 506V362Q302 362 301 324L338 325H471Q475 303 475 289T471 256H338L301 257L302 219V75Q289 71 266 71T228 75V219L229 257L192 256H59Q55 268 55 290T59
325H192L229 324Z" />
<glyph unicode="," glyph-name="comma" horiz-adv-x="254" d="M181 91Q192 71 192 32Q192 -29 159 -78T61 -151Q49 -144 45 -134T40 -110Q116 -72 117 -9Q101 -6 92 -3T78 7T72 23T70 48Q70 69 75 80T88 96T108 101T133 102Q165 102 181 91Z" />
<glyph unicode="-" glyph-name="hyphen" horiz-adv-x="335" d="M283 231H53Q49 243 49 264T53 300H283Q286 284 286 264T283 231Z" />
<glyph unicode="." glyph-name="period" horiz-adv-x="250" d="M73 3Q65 17 65 47Q65 68 69 79T82 96T102 101T126 102Q139 102 149 102T168 96T180 79T185 47Q185 28 182 17T172 1T154 -5T127 -7Q92 -7 73 3Z" />
<glyph unicode="/" glyph-name="slash" horiz-adv-x="407" d="M10 -81L327 758Q366 754 393 733L76 -106Q43 -106 10 -81Z" />
<glyph unicode="0" glyph-name="zero" horiz-adv-x="530" d="M129 606Q181 660 264 660Q372 660 423 578T475 323Q475 156 426 72T265 -12Q157 -12 105 72T55 324Q55 378 58 420T70 497T93 557T129 606ZM184 83Q215 49 265 49Q298 49 322 63T363 111T387 196T395
324Q395 399 387 451T363 537T323 584T265 599Q231 599 207 585T166 537T143 452T135 324Q135 139 184 83Z" />
<glyph unicode="1" glyph-name="one" horiz-adv-x="530" d="M256 63L255 126V408Q255 409 258 532Q202 456 108 416Q82 433 75 462Q143 503 191 554T258 648Q274 652 293 652T329 648V126L328 63L382 64H459Q462 47 462 32T459 0H105Q102 16 102 32T105 64H202L256 63Z" />
<glyph unicode="2" glyph-name="two" horiz-adv-x="530" d="M467 68Q467 33 458 17T415 0H98Q63 27 63 50Q62 94 95 141T194 246L286 326Q330 364 351 399T373 485Q373 534 342 565T264 597Q218 597 182 570T125 498Q83 503 70 527Q82 555 101 579T146 622T204
650T274 660Q312 660 344 647T401 609T438 553T452 482Q452 444 443 415T416 361T376 314T325 266L245 197Q145 111 138 63Q166 65 196 66T258 68H467Z" />
<glyph unicode="3" glyph-name="three" horiz-adv-x="530" d="M426 560L306 429Q297 418 265 393H277Q316 393 350 381T410 345T450 285T465 198Q465 149 448 110T399 44T328 3T246 -12Q129 -12 55 49Q63 82 90 102Q160 50 230 50Q302 50 344 90T386 200Q386 268
353 303T267 338Q215 338 184 319Q158 333 151 360L294 518Q315 541 332 557T362 585L359 589Q343 585 313 583T234 581H80Q77 593 77 607Q77 625 83 648H425Q443 615 443 596Q443 579 426 560Z" />
<glyph unicode="4" glyph-name="four" horiz-adv-x="530" d="M376 152L377 109V0Q360 -3 339 -3T303 0V109L304 152L262 151H66Q48 183 48 194T69 256L243 653Q258 657 279 653T314 641L172 317Q134 234 124 215L126 212Q183 215 231 215H304L303 254V358Q303
412 350 412H373L377 409V257L376 215L416 216H483Q485 204 485 185T480 151H416L376 152Z" />
<glyph unicode="5" glyph-name="five" horiz-adv-x="530" d="M432 648Q437 630 437 617Q437 581 403 581H224Q205 581 191 581T169 582V518L162 401Q214 429 269 429Q357 429 411 375T466 214Q466 162 450 120T402 49T330 4T240 -12Q142 -12 66 48Q71 80 100 100Q137
74 173 62T241 50Q304 50 345 93T386 217Q386 259 376 287T346 333T300 359T244 367Q181 367 123 316Q101 319 88 341L101 642L107 648H432Z" />
<glyph unicode="6" glyph-name="six" horiz-adv-x="530" d="M133 46L118 64Q106 77 96 103T77 164T65 242T60 332Q60 408 76 469T123 572T201 637T309 660Q393 660 443 630Q438 591 413 575Q362 598 311 598Q267 598 235 581T182 532T151 458T139 364Q206 431
293 431Q381 431 429 376T478 218Q478 168 464 126T422 53T358 5T275 -12Q185 -12 133 46ZM277 365Q242 365 204 346T139 293V277Q139 226 147 184T173 112T215 66T276 49Q333 49 366 92T399 210Q399 365 277 365Z" />
<glyph unicode="7" glyph-name="seven" horiz-adv-x="530" d="M75 648H462Q477 621 477 603T464 564L433 519Q349 392 305 284T245 30L242 0Q227 -4 201 -4T162 0L166 38Q192 279 341 499L351 514Q365 535 403 585L400 588Q372 581 239 581H72Q69 594 69 611T75 648Z" />
<glyph unicode="8" glyph-name="eight" horiz-adv-x="530" d="M54 162Q54 219 88 266T176 339Q72 392 72 492Q72 529 87 560T128 613T189 647T265 660Q305 660 340 648T401 614T442 563T457 497Q457 446 429 408T356 346Q475 287 475 170Q475 128 459 95T413 37T344
1T259 -12Q213 -12 175 0T110 34T69 89T54 162ZM238 316H237Q188 295 160 255T132 161Q132 135 142 114T169 78T211 55T262 46Q290 46 314 54T357 79T385 118T396 170Q396 199 385 222T355 262T309 292T251 313L238 316ZM283 372L295 368Q335 388 357 421T380 499Q380
521 371 540T347 572T310 594T264 602Q216 602 183 572T150 494Q150 405 283 372Z" />
<glyph unicode="9" glyph-name="nine" horiz-adv-x="530" d="M397 602L412 584Q423 570 435 544T454 483T466 406T470 316Q470 240 454 179T407 76T329 11T221 -12Q136 -12 87 18Q92 57 117 73Q168 50 219 50Q262 50 294 67T347 116T379 190T391 284Q324 217 237
217Q149 217 101 271T52 429Q52 480 67 522T108 595T172 643T255 660Q345 660 397 602ZM253 283Q288 283 326 302T391 354V371Q391 423 383 465T357 537T313 583T253 599Q198 599 165 556T131 438Q131 283 253 283Z" />
<glyph unicode=":" glyph-name="colon" horiz-adv-x="254" d="M75 3Q67 17 67 47Q67 68 71 79T84 96T104 101T128 102Q141 102 151 102T170 96T182 79T187 47Q187 28 184 17T174 1T156 -5T129 -7Q94 -7 75 3ZM75 343Q67 357 67 387Q67 408 71 419T84 436T104 441T128
442Q141 442 151 442T170 436T182 419T187 387Q187 368 184 357T174 341T156 335T129 333Q94 333 75 343Z" />
<glyph unicode=";" glyph-name="semicolon" horiz-adv-x="258" d="M179 91Q190 71 190 32Q190 -29 157 -78T59 -151Q47 -144 43 -134T38 -110Q114 -72 115 -9Q99 -6 90 -3T76 7T70 23T68 48Q68 69 73 80T86 96T106 101T131 102Q163 102 179 91ZM77 343Q69 357
69 387Q69 408 73 419T86 436T106 441T130 442Q143 442 153 442T172 436T184 419T189 387Q189 368 186 357T176 341T158 335T131 333Q96 333 77 343Z" />
<glyph unicode="&lt;" glyph-name="less" horiz-adv-x="530" d="M55 321L432 527Q464 505 468 467L200 326Q190 321 163 308T133 293V286Q135 285 162 272T200 253L468 112Q462 73 432 52L55 258Q46 295 55 321Z" />
<glyph unicode="=" glyph-name="equal" horiz-adv-x="530" d="M471 171H59Q55 184 55 205T59 240H471Q475 227 475 206T471 171ZM471 343H59Q55 356 55 377T59 413H471Q475 398 475 377T471 343Z" />
<glyph unicode="&gt;" glyph-name="greater" horiz-adv-x="530" d="M475 259L97 53Q66 76 62 113L330 254Q340 259 367 272T397 287V294Q395 295 368 308T330 327L62 468Q66 506 98 528L475 322Q484 285 475 259Z" />
<glyph unicode="?" glyph-name="question" horiz-adv-x="382" d="M16 648Q105 694 190 694Q275 694 323 650T372 530Q372 415 242 339L179 302L171 186Q160 182 142 182Q124 182 113 186L109 335L115 345L161 369Q227 403 259 442T292 524Q292 569 264 597T181
625Q152 625 118 617T44 589Q19 611 16 648ZM96 83Q116 93 143 93Q155 93 165 93T182 88T193 73T197 43Q197 24 193 14T182 -1T165 -6T143 -7Q131 -7 121 -7T104 -2T93 13T89 43Q89 72 96 83Z" />
<glyph unicode="@" glyph-name="at" horiz-adv-x="932" d="M645 413L644 154Q644 109 656 91T695 73Q719 73 740 86T776 126T801 193T811 290Q811 362 788 422T721 525T616 592T478 616Q403 616 340 587T230 506T158 383T132 229Q132 146 154 81T217 -29T315 -97T442
-121Q562 -121 648 -85Q670 -103 670 -139Q556 -180 438 -180Q354 -180 284 -153T164 -73T85 55T57 227Q57 323 89 404T177 545T310 639T479 673Q570 673 645 645T773 565T855 443T885 287Q885 225 870 175T827 89T764 34T688 14Q606 14 581 80Q554 49 517 29T439
9Q367 9 324 67T281 229Q281 279 294 324T333 404T396 458T480 478Q572 478 645 413ZM453 71Q468 71 485 77T518 93T548 118T572 149V385Q536 421 479 421Q450 421 427 406T389 364T365 304T356 233Q356 157 380 114T453 71Z" />
<glyph unicode="A" glyph-name="A" horiz-adv-x="596" d="M431 178L361 177H227L157 178L99 -1Q86 -4 67 -4T28 1L26 4L255 683Q272 686 300 686T341 683L570 4Q554 -6 530 -6T496 2T479 34L431 178ZM179 243L237 244H352Q353 244 376 244T410 243L347 433Q309
550 296 600H291Q272 526 257 481L179 243Z" />
<glyph unicode="B" glyph-name="B" horiz-adv-x="600" d="M105 0L99 6V677L105 683L300 686Q409 686 459 639T510 506Q510 457 484 419T412 364Q439 356 463 340T505 301T533 247T543 180Q543 145 530 112T488 54T416 13T311 -3L105 0ZM175 60L317 61Q359 61 387
72T431 102T455 144T462 194Q462 216 454 239T428 282T381 314T308 327H175V60ZM175 623V391H298Q335 391 360 400T401 425T423 462T430 507Q430 622 301 622Q256 622 225 622T175 623Z" />
<glyph unicode="C" glyph-name="C" horiz-adv-x="600" d="M476 467Q476 497 468 526T440 579T390 617T316 631Q231 631 185 556T138 343Q138 204 186 130T322 55Q411 55 502 134Q533 116 544 84Q502 41 441 15T310 -12Q243 -12 195 15T117 91T72 202T57 338Q57
427 77 494T132 605T214 672T315 695Q369 695 413 679T488 637T536 577T553 507Q553 462 510 462Q496 462 476 467Z" />
<glyph unicode="D" glyph-name="D" horiz-adv-x="638" d="M476 47Q462 35 442 26T400 10T355 0T315 -4Q297 -4 245 -3T105 0L99 6V677L105 683Q192 686 308 686Q386 686 438 659T521 586T566 476T579 340Q579 290 575 248T558 169T526 103T476 47ZM175 61L307
60Q364 60 401 82T459 142T489 225T498 317Q498 384 491 440T462 536T401 599T307 622L175 623V61Z" />
<glyph unicode="E" glyph-name="E" horiz-adv-x="563" d="M173 103L172 65Q206 67 234 67H508Q508 46 506 35Q499 0 457 0H142Q122 0 111 13T99 50V677L105 683H491Q493 671 493 652T488 617H172L173 555V378L233 379H440Q443 361 443 346T440 313H233Q195 313
173 314V103Z" />
<glyph unicode="F" glyph-name="F" horiz-adv-x="514" d="M175 378L230 379H435Q438 361 438 346T435 313H230Q195 313 175 314V0Q160 -3 137 -3T99 0V677L105 683H484Q489 668 489 651Q489 616 442 616H283Q204 616 174 618L175 478V378Z" />
<glyph unicode="G" glyph-name="G" horiz-adv-x="637" d="M355 344H507Q539 344 553 332T567 291V32Q460 -12 329 -12Q255 -12 200 17T115 98Q57 198 57 337Q57 431 81 502T147 614Q228 695 341 695Q402 695 463 675T566 620Q558 583 525 561Q444 626 336 626Q250
626 194 557T138 336Q138 55 343 55Q423 55 492 78V214Q492 258 493 275H384Q349 275 349 311Q349 324 355 344Z" />
<glyph unicode="H" glyph-name="H" horiz-adv-x="668" d="M494 386L493 460V683Q506 686 529 686T569 683V0Q552 -3 530 -3T493 0V246L494 320L433 319H235L174 320L175 246V0Q160 -3 137 -3T99 0V683Q114 686 137 686T175 683V460L174 386L235 387H433L494 386Z" />
<glyph unicode="I" glyph-name="I" horiz-adv-x="282" d="M103 0V683Q117 686 139 686T179 683V0Q162 -3 140 -3T103 0Z" />
<glyph unicode="J" glyph-name="J" horiz-adv-x="436" d="M41 90Q96 56 159 56Q223 56 248 94T274 226V683Q290 686 313 686Q336 686 351 683V241Q351 193 347 160T336 103T319 64T300 38Q256 -10 166 -10Q78 -10 10 31Q17 65 41 90Z" />
<glyph unicode="K" glyph-name="K" horiz-adv-x="583" d="M561 21Q544 -5 515 -5T474 6T453 45L389 208Q365 269 336 293T262 318T175 316V0Q160 -3 137 -3T99 0V683Q114 686 137 686T175 683V384L248 386Q267 386 282 410L429 648Q442 669 452 677T478 685T524
683L530 675L362 403Q347 379 331 366Q379 359 406 330T459 238L520 82Q537 40 561 21Z" />
<glyph unicode="L" glyph-name="L" horiz-adv-x="506" d="M262 68H475Q475 46 472 35Q466 0 423 0H143Q124 0 112 13T99 51V680L105 686H135Q159 686 167 675T175 636V65Q220 68 262 68Z" />
<glyph unicode="M" glyph-name="M" horiz-adv-x="793" d="M84 1L137 683Q156 686 188 686T238 683L353 332Q362 307 377 252T394 186H399Q413 255 440 332L555 683Q576 686 605 686T656 683L709 1Q691 -4 672 -4T635 -1L606 413Q603 458 598 602H593L435 107Q411
103 395 103T359 107L200 602H195Q194 577 192 508T187 413L159 -1Q141 -4 121 -4T84 1Z" />
<glyph unicode="N" glyph-name="N" horiz-adv-x="671" d="M567 686L573 681V0Q554 -3 526 -3T478 0L235 453Q205 509 167 591H164Q170 405 170 375V0Q149 -3 133 -3T99 0V683Q117 686 144 686T192 683L435 230Q459 187 505 89H508Q501 217 501 317V636Q501 663
509 674T541 686H567Z" />
<glyph unicode="O" glyph-name="O" horiz-adv-x="653" d="M146 443Q141 419 140 394T138 342Q138 297 145 247T172 153T229 81T326 52Q366 52 396 66T447 102T480 155T500 217T511 282T514 342Q514 386 507 437T480 531T423 602T326 631Q281 631 249 615T197 572T165
512T146 443ZM163 46Q57 140 57 341Q57 420 74 485T126 597T210 669T326 695Q395 695 446 667T530 590T580 477T596 342Q596 263 579 198T527 86T443 14T326 -12Q227 -12 163 46Z" />
<glyph unicode="P" glyph-name="P" horiz-adv-x="556" d="M105 683L296 686Q345 686 386 672T455 631T500 563T516 472Q516 369 456 313T296 257H175V0Q160 -3 137 -3Q114 -3 99 0V677L105 683ZM175 623V320Q195 321 225 321T298 321Q336 321 362 333T405 367T428
416T435 475Q435 503 428 530T405 577T361 609T292 622Q252 622 223 622T175 623Z" />
<glyph unicode="Q" glyph-name="Q" horiz-adv-x="642" d="M462 -98L340 -11L326 -12Q191 -12 124 81T57 341Q57 424 73 489T123 601T205 671T320 695Q386 695 435 671T518 601T568 490T585 344Q585 281 575 227T544 129T495 57T430 14L452 -1Q477 -19 495 -30T527
-48T553 -57T579 -61Q577 -87 561 -102T520 -118Q491 -118 462 -98ZM320 631Q138 631 138 343Q138 55 320 55Q503 55 503 343Q503 631 320 631Z" />
<glyph unicode="R" glyph-name="R" horiz-adv-x="592" d="M105 683L307 686Q410 686 467 634T524 488Q524 421 489 373T393 306Q434 293 460 225L512 90Q523 62 534 45T555 19Q539 -6 502 -6Q481 -6 470 5T447 44L389 196Q372 241 349 264T279 288H175V0Q157 -3
136 -3Q114 -3 99 0V677L105 683ZM175 623V352Q196 353 226 353T299 354Q341 354 368 365T413 394T437 436T444 488Q444 516 437 540T413 583T368 611T296 622Q254 622 224 622T175 623Z" />
<glyph unicode="S" glyph-name="S" horiz-adv-x="555" d="M39 63Q42 100 74 124Q176 55 274 55Q345 55 386 85T427 167Q427 244 321 291L204 342Q69 400 69 510Q69 548 85 582T129 641T198 680T287 695Q384 695 485 647Q485 608 454 583Q405 608 364 619T287 630Q255
630 230 621T186 598T157 564T147 523Q147 479 172 455T244 411L357 362Q506 297 506 181Q506 94 447 41T264 -12Q142 -12 39 63Z" />
<glyph unicode="T" glyph-name="T" horiz-adv-x="483" d="M335 617L280 618V0Q264 -3 242 -3T203 0V618L149 617H21Q18 634 18 649T21 683H461Q467 670 467 651Q467 617 420 617H335Z" />
<glyph unicode="U" glyph-name="U" horiz-adv-x="666" d="M576 683V233Q576 173 559 128T510 51T433 4T333 -12Q278 -12 233 4T157 51T108 127T91 233V680L97 686H127Q151 686 159 675T167 636V234Q167 146 210 99T333 51Q412 51 455 97T499 234V683Q514 686 537
686Q559 686 576 683Z" />
<glyph unicode="V" glyph-name="V" horiz-adv-x="557" d="M290 74L464 683Q478 686 497 686T532 682L536 676L332 -1Q302 -4 278 -4T241 3T220 36L27 677Q53 689 75 689Q107 689 117 652L236 249Q252 196 282 83Q284 74 290 74Z" />
<glyph unicode="W" glyph-name="W" horiz-adv-x="821" d="M168 38L39 680Q58 689 79 689T109 680T123 648L197 265L231 73Q232 66 233 65T240 63L363 668Q385 671 416 671T464 668L577 73Q579 63 585 63Q594 113 624 265L712 683Q727 686 748 686T784 682L788
677L639 1Q614 -4 581 -4T535 4T519 37L463 333Q431 504 416 588H410Q381 429 360 333L290 0Q263 -4 220 -4T168 38Z" />
<glyph unicode="X" glyph-name="X" horiz-adv-x="572" d="M452 683Q457 685 466 686T484 687Q495 687 505 686T523 680L526 674L333 362L548 12Q525 -6 501 -6Q487 -6 473 1T448 26L281 297L100 0Q94 -2 86 -3T67 -4Q56 -4 45 -3T26 3L23 9L242 360L51 671Q62
679 74 684T100 689Q131 689 151 657L294 425L452 683Z" />
<glyph unicode="Y" glyph-name="Y" horiz-adv-x="481" d="M290 421L394 683Q402 685 410 686T428 687Q445 687 465 682L468 676L280 222V0Q263 -3 241 -3Q218 -3 203 0V225L15 674Q27 681 39 685T62 690Q76 690 87 682T107 653L203 421Q210 404 220 376T244 306H249Q251
315 261 343T290 421Z" />
<glyph unicode="Z" glyph-name="Z" horiz-adv-x="553" d="M65 90L334 509Q349 532 411 619L408 622Q374 615 251 615H81Q78 628 78 645T84 683H480Q491 644 491 630T479 595L212 181Q203 166 133 67L136 64Q188 69 241 69H372Q457 69 492 85Q499 64 499 45Q499
0 443 0H64Q53 36 53 53T65 90Z" />
<glyph unicode="[" glyph-name="bracketleft" horiz-adv-x="316" d="M283 -134L106 -141L100 -135V802L106 808L283 801Q285 793 285 778T279 744L176 741V-74L279 -77Q285 -97 285 -111T283 -134Z" />
<glyph unicode="\" glyph-name="backslash" horiz-adv-x="407" d="M330 -106L13 733Q42 756 79 758L396 -81Q366 -104 330 -106Z" />
<glyph unicode="]" glyph-name="bracketright" horiz-adv-x="316" d="M209 -141L32 -134Q30 -126 30 -112T36 -77L139 -74V741L36 744Q30 762 30 777T32 801L209 808L216 802V-135L209 -141Z" />
<glyph unicode="^" glyph-name="asciicircum" horiz-adv-x="530" d="M305 648L477 306Q466 302 441 302T401 306L300 513Q293 528 268 585H262L230 513L129 306Q114 302 89 302T53 306L225 648Q265 658 305 648Z" />
<glyph unicode="_" glyph-name="underscore" horiz-adv-x="510" d="M510 -143H0Q-3 -131 -3 -113T0 -82H510Q513 -94 513 -112T510 -143Z" />
<glyph unicode="`" glyph-name="grave" horiz-adv-x="398" d="M131 722L268 568Q257 542 233 536L70 666Q88 709 131 722Z" />
<glyph unicode="a" glyph-name="a" horiz-adv-x="504" d="M448 31Q437 3 414 -7Q365 11 352 63Q275 -12 201 -12Q163 -12 135 0T89 32T61 78T51 133Q51 173 64 203T101 254T157 284T226 294Q301 294 348 285V335Q348 437 258 437Q189 437 95 396Q69 419 69 454Q177
501 265 501Q420 501 420 334V128Q419 92 426 69T448 31ZM348 131V231Q324 235 298 236T243 238Q186 238 156 212T126 142Q126 100 147 76T204 51Q241 51 279 71T348 131Z" />
<glyph unicode="b" glyph-name="b" horiz-adv-x="524" d="M88 25V729L94 735H121Q145 735 153 724T161 685V438Q223 499 304 499Q385 499 429 432T473 243Q473 183 457 137T411 58T344 10T262 -7Q176 -7 88 25ZM161 364V67Q206 50 262 50Q320 50 359 101T398 248Q398
296 390 331T368 389T335 423T296 434Q254 434 220 415T161 364Z" />
<glyph unicode="c" glyph-name="c" horiz-adv-x="469" d="M355 317V328Q355 350 349 371T331 408T299 433T252 443Q195 443 162 391T129 243Q129 147 161 100T250 52Q309 52 385 107Q412 91 420 60Q343 -12 247 -12Q199 -12 163 7T102 58T65 135T52 231Q52 300
67 351T110 436T175 486T254 503Q297 503 329 490T382 455T415 409T426 362Q426 314 387 314Q373 314 355 317Z" />
<glyph unicode="d" glyph-name="d" horiz-adv-x="525" d="M238 499Q298 499 363 458V729L369 735H396Q419 735 427 724T435 685V138Q435 59 463 31Q453 4 430 -7Q384 9 369 60Q307 -12 223 -12Q136 -12 94 56T51 245Q51 306 67 353T109 433T168 482T238 499ZM233
52Q267 52 302 72T363 129V390Q297 435 247 435Q196 435 161 387T126 241Q126 144 156 98T233 52Z" />
<glyph unicode="e" glyph-name="e" horiz-adv-x="503" d="M440 223H130Q135 53 259 53Q327 53 404 95Q426 75 431 44Q349 -12 247 -12Q195 -12 158 7T98 61T63 143T52 246Q52 303 65 350T105 431T167 484T251 503Q297 503 333 487T394 442T432 374T445 289Q445
271 444 255T440 223ZM130 280H370V293Q370 362 341 404T254 446Q197 446 166 401T130 280Z" />
<glyph unicode="f" glyph-name="f" horiz-adv-x="320" d="M108 0V435L22 434Q19 449 19 462Q19 476 22 491L105 489Q101 534 100 559T98 593Q98 625 107 651T135 697T178 728T236 739Q299 739 355 718Q355 686 337 667Q308 675 286 679T247 683Q208 683 188 658T167
585Q167 547 176 489L322 491Q325 476 325 462Q325 449 322 434L180 435V0Q165 -3 144 -3Q123 -3 108 0Z" />
<glyph unicode="g" glyph-name="g" horiz-adv-x="524" d="M378 449Q392 484 431 498Q455 484 464 459Q436 432 436 352V38Q436 -32 424 -81T387 -161T328 -206T245 -220Q151 -220 73 -186Q74 -151 94 -128Q161 -160 231 -160Q271 -160 297 -149T338 -117T360 -67T366
0V58Q301 -8 220 -8Q139 -8 95 59T51 248Q51 309 66 356T108 436T168 486T240 503Q316 503 378 449ZM366 130V389Q337 414 307 426T250 439Q194 439 160 391T126 245Q126 149 155 103T227 56Q269 56 305 76T366 130Z" />
<glyph unicode="h" glyph-name="h" horiz-adv-x="544" d="M461 342V95Q461 38 473 10Q456 -6 426 -6Q388 -6 388 43V319Q388 380 372 405T316 431Q276 431 233 410T161 354V0Q146 -3 124 -3Q103 -3 88 0V729L94 735H121Q145 735 153 724T161 685V427Q195 459 241
479T333 499Q400 499 430 456T461 342Z" />
<glyph unicode="i" glyph-name="i" horiz-adv-x="256" d="M170 422V0Q155 -3 133 -3Q111 -3 96 0V386Q96 414 87 424T55 434H46Q42 445 42 461Q42 477 46 489Q65 491 77 492T96 494H104Q135 494 152 475T170 422ZM72 662Q88 672 118 672Q147 672 158 663T169 625Q169
596 157 587T118 577Q94 577 80 584T65 625Q65 648 72 662Z" />
<glyph unicode="j" glyph-name="j" horiz-adv-x="263" d="M177 422V-17Q177 -45 176 -74T165 -131T130 -181T58 -219Q41 -202 35 -172Q55 -162 68 -151T89 -125T100 -93T103 -48V386Q103 414 94 424T62 434H44Q40 451 40 461Q40 470 44 489Q63 491 78 492T105
494H113Q143 494 160 475T177 422ZM79 662Q95 672 125 672Q154 672 165 663T176 625Q176 596 164 587T125 577Q101 577 87 584T72 625Q72 648 79 662Z" />
<glyph unicode="k" glyph-name="k" horiz-adv-x="490" d="M381 179L420 91Q446 32 468 16Q452 -6 424 -6T385 6T361 46L315 150Q296 194 276 209T223 224T161 220V0Q146 -3 125 -3T88 0V729L94 735H121Q145 735 153 724T161 685V283L204 285Q218 285 227 299L334
457Q347 477 358 485T384 494T427 492L433 484L306 299Q293 280 282 271Q316 264 339 243T381 179Z" />
<glyph unicode="l" glyph-name="l" horiz-adv-x="283" d="M196 57H238Q242 48 243 37T245 17Q245 11 245 8T244 2Q228 -1 213 -3T183 -5Q142 -5 114 13T86 79V729L92 735H119Q143 735 151 724T159 685V100Q159 57 196 57Z" />
<glyph unicode="m" glyph-name="m" horiz-adv-x="791" d="M361 320Q361 380 346 406T295 432Q261 432 225 411T162 354V0Q147 -3 125 -3Q103 -3 88 0V487L94 494H122Q146 494 154 482T162 442V427Q225 499 308 499Q391 499 421 424Q503 499 583 499Q646 499 677
457T708 345V95Q708 38 720 10Q703 -6 673 -6Q635 -6 635 43V321Q635 381 620 406T569 432Q535 432 499 412T435 356V0Q420 -3 398 -3Q376 -3 361 0V320Z" />
<glyph unicode="n" glyph-name="n" horiz-adv-x="545" d="M463 343V95Q463 38 474 10Q458 -6 427 -6Q389 -6 389 43V320Q389 381 374 406T317 432Q277 432 234 411T162 355V0Q147 -3 125 -3Q103 -3 88 0V488L94 494H122Q146 494 154 482T162 442V428Q196 460 242
479T334 499Q401 499 432 456T463 343Z" />
<glyph unicode="o" glyph-name="o" horiz-adv-x="519" d="M397 41Q344 -12 259 -12Q209 -12 171 7T106 59T66 140T52 245Q52 302 65 349T105 431T170 484T259 503Q309 503 347 484T412 431T453 350T467 245Q467 111 397 41ZM260 46Q324 46 357 100T391 245Q391
285 384 321T360 385T319 429T259 445Q225 445 201 430T160 387T137 324T129 245Q129 203 136 167T159 104T200 62T260 46Z" />
<glyph unicode="p" glyph-name="p" horiz-adv-x="526" d="M161 33V-165Q161 -192 153 -203T121 -215H94L88 -209V488L94 494H120Q144 494 152 482T161 441V436Q221 503 304 503Q389 503 432 435T475 245Q475 186 460 139T419 60T360 10T292 -8Q223 -8 161 33ZM161
358V101Q222 56 276 56Q330 56 365 104T400 249Q400 297 392 332T369 391T337 426T297 438Q257 438 221 417T161 358Z" />
<glyph unicode="q" glyph-name="q" horiz-adv-x="524" d="M364 -165V54Q302 -8 220 -8Q139 -8 95 59T51 248Q51 309 66 356T108 436T168 486T240 503Q317 503 378 451Q395 485 431 498Q455 484 464 459Q436 432 436 352V-209L430 -215H403Q380 -215 372 -204T364
-165ZM364 127V391Q308 439 252 439Q197 439 162 391T126 245Q126 150 156 103T227 56Q269 56 304 75T364 127Z" />
<glyph unicode="r" glyph-name="r" horiz-adv-x="353" d="M61 456Q68 482 93 498Q149 477 165 409Q206 497 299 497Q320 497 345 493Q345 450 328 423Q316 424 293 424Q212 424 171 333V0Q156 -3 134 -3T97 0V354Q97 422 61 456Z" />
<glyph unicode="s" glyph-name="s" horiz-adv-x="434" d="M37 38Q38 69 66 92Q111 66 146 56T211 46Q236 46 254 52T286 69T306 93T314 119Q314 149 296 169T241 204L185 226Q121 251 89 284T57 365Q57 396 70 421T106 465T160 493T228 503Q302 503 376 470Q376
435 353 412Q315 429 284 436T226 443Q180 443 157 422T133 374Q133 345 151 329T208 297L267 274Q391 225 391 129Q391 62 340 25T202 -12Q117 -12 37 38Z" />
<glyph unicode="t" glyph-name="t" horiz-adv-x="337" d="M305 491Q308 476 308 463T305 434L178 435V99Q178 57 217 57H293Q300 40 300 23T298 2Q252 -4 203 -4Q106 -4 106 79V435L35 434Q32 449 32 462T35 491L106 490V595Q106 622 114 633T145 645H172L178
639V489L305 491Z" />
<glyph unicode="u" glyph-name="u" horiz-adv-x="546" d="M83 147V396Q83 449 71 481Q88 497 118 497Q156 497 156 448V171Q156 108 172 83T228 58Q268 58 311 79T383 135V490Q389 492 399 493T420 494Q431 494 440 493T457 490V138Q457 58 485 31Q476 3 451 -7Q402
9 388 67Q354 33 307 12T211 -9Q144 -9 114 34T83 147Z" />
<glyph unicode="v" glyph-name="v" horiz-adv-x="442" d="M229 64L363 491Q379 495 392 495T430 489L432 486Q340 200 268 0Q248 -5 220 -5T182 3T160 43L11 485Q37 498 56 498Q85 498 93 469L173 231Q203 137 220 72Q222 64 229 64Z" />
<glyph unicode="w" glyph-name="w" horiz-adv-x="704" d="M140 43L32 486Q59 498 78 498Q106 498 112 468L165 236Q179 174 201 64Q203 55 209 55L310 490Q325 493 355 493T400 490L495 64Q497 55 503 55Q522 144 544 236L604 491Q616 495 638 495T674 489L676
486L552 -1Q531 -4 501 -4T457 5T437 43L402 199Q398 215 382 295T356 418H352Q347 391 304 200L256 0Q233 -4 203 -4T160 5T140 43Z" />
<glyph unicode="x" glyph-name="x" horiz-adv-x="449" d="M334 490Q344 495 364 495Q375 495 385 494T402 488L405 482L264 260L427 11Q400 -7 377 -7Q353 -7 338 15L219 199L94 -1Q89 -3 82 -4T64 -5Q53 -5 43 -4T25 2L22 8L181 257L36 481Q61 499 84 499Q110
499 124 476L227 317L334 490Z" />
<glyph unicode="y" glyph-name="y" horiz-adv-x="452" d="M436 486L299 17Q261 -112 218 -165T89 -218Q45 -218 8 -205Q5 -177 24 -151Q55 -162 90 -162Q143 -162 171 -126T222 -14L225 -4Q199 -2 186 8T163 45L23 485Q54 498 67 498Q96 498 106 463L185 212Q189
200 231 56Q233 49 241 49L363 491Q376 495 397 495T434 489L436 486Z" />
<glyph unicode="z" glyph-name="z" horiz-adv-x="444" d="M54 77L242 335L320 432L317 435Q297 433 263 432T179 430H59Q57 440 57 452Q57 461 58 471T61 490H387Q400 460 400 445Q400 430 388 414L203 162Q192 146 172 121T124 61L127 58Q179 61 227 61H282Q366
61 398 73Q404 56 404 38Q404 0 350 0H53Q47 17 44 28T41 47Q41 55 44 61T54 77Z" />
<glyph unicode="{" glyph-name="braceleft" horiz-adv-x="318" d="M41 350Q76 364 98 395T121 472V647Q121 713 157 752T253 802L296 809Q304 800 308 784T308 755L265 741Q198 722 198 646V474Q198 427 176 387T118 328V320Q154 302 176 262T198 175V1Q198 -73
265 -94L308 -107Q316 -138 296 -162L253 -155Q193 -145 157 -105T121 0V177Q121 221 99 253T41 299Q37 308 37 324T41 350Z" />
<glyph unicode="|" glyph-name="bar" horiz-adv-x="247" d="M88 -140V775Q103 778 122 778T159 775V-140Q142 -143 123 -143T88 -140Z" />
<glyph unicode="}" glyph-name="braceright" horiz-adv-x="318" d="M276 350Q280 341 280 325T276 299Q241 285 219 253T196 177V0Q196 -65 160 -105T64 -155L22 -162Q2 -140 9 -107L53 -94Q120 -73 120 1V175Q120 221 142 261T200 320V328Q164 346 142 386T120
474V646Q120 722 53 741L9 755Q2 789 22 809L64 802Q124 792 160 753T196 647V472Q196 426 218 395T276 350Z" />
<glyph unicode="~" glyph-name="asciitilde" horiz-adv-x="560" d="M261 340L338 305Q369 292 393 292Q429 292 457 328L472 347Q485 346 498 339T516 319L506 301Q465 221 381 221Q342 221 299 241L222 276Q195 288 163 288T104 253L88 234Q75 235 62 242T44
262L54 280Q95 360 179 360Q218 360 261 340Z" />
<glyph unicode="&#xa1;" glyph-name="exclamdown" horiz-adv-x="277" d="M169 304L176 -177Q145 -199 96 -199L90 -193L109 304Q115 306 123 307T139 308Q147 308 155 307T169 304ZM186 407Q177 402 165 400T138 397Q126 397 116 397T99 402T88 417T84 447Q84
483 98 490T138 498Q167 498 180 491T193 447Q193 418 186 407Z" />
<glyph unicode="&#xa2;" glyph-name="cent" horiz-adv-x="471" d="M216 -30V70Q173 76 143 98T92 154T61 234T51 331Q51 384 63 427T98 502T151 555T219 581V680Q231 683 251 683Q271 683 286 680V582Q321 577 347 563T391 528T417 485T426 440Q426 395 386 395Q371
395 355 398V409Q355 433 349 453T330 490T298 515T251 524Q194 524 163 472T131 323Q131 133 257 133Q320 133 383 190Q395 184 406 172T422 147Q367 83 283 70V-30Q274 -32 265 -32T248 -32Q240 -32 232 -32T216 -30Z" />
<glyph unicode="&#xa3;" glyph-name="sterling" horiz-adv-x="524" d="M213 275L214 255Q214 168 141 65L144 62Q202 64 231 65T262 66H481Q481 32 471 16T430 0H71Q59 36 59 54Q58 65 62 73T71 89L89 117Q112 155 127 189T140 257L139 275Q126 274 107 274T63
274Q60 287 60 302Q60 317 63 335Q83 335 98 335T124 334Q112 371 97 409T81 486Q81 520 93 551T130 607T189 645T270 660Q381 660 460 590Q459 574 447 558T420 536Q387 564 348 579T266 595Q246 595 227 588T193 566T168 531T158 484Q158 466 164 442T177 395T190
355T199 334L390 335Q392 327 393 320T394 304Q394 296 393 289T390 274L213 275Z" />
<glyph unicode="&#xa4;" glyph-name="currency" horiz-adv-x="566" d="M109 459L37 536Q54 565 81 580L158 508Q213 546 281 546Q351 546 406 509L484 581Q515 564 528 537L456 460Q476 431 485 399T495 334Q495 266 457 211L529 134Q516 109 485 90L408 162Q352
124 283 124Q214 124 158 162L81 90Q67 98 56 109T37 134L109 211Q89 238 80 270T71 335Q71 368 80 399T109 459ZM283 488Q253 488 229 476T187 444T159 395T149 335Q149 304 158 277T185 228T227 195T283 183Q313 183 338 195T380 228T407 276T417 335Q417 367
407 395T380 443T338 476T283 488Z" />
<glyph unicode="&#xa5;" glyph-name="yen" horiz-adv-x="498" d="M439 183H286V0Q269 -3 248 -3Q226 -3 211 0V183H58Q54 194 54 211Q54 227 58 239H207L168 327H58Q54 338 54 355Q54 371 58 383H143L29 642Q40 649 52 653T75 657Q89 657 100 650T120 625L209
408Q215 393 225 367T249 302H254Q271 350 281 376T294 408L395 651Q415 656 431 656Q440 656 449 655T466 652L469 646L353 383H439Q442 368 442 355Q442 342 439 327H328L290 239H439Q442 224 442 211Q442 198 439 183Z" />
<glyph unicode="&#xa6;" glyph-name="brokenbar" horiz-adv-x="241" d="M86 -140V247Q100 250 120 250T156 247V-140Q140 -143 120 -143T86 -140ZM86 388V775Q99 778 119 778T156 775V388Q140 385 120 385T86 388Z" />
<glyph unicode="&#xa7;" glyph-name="section" horiz-adv-x="477" d="M333 152Q404 107 404 39Q404 -28 354 -65T219 -103Q133 -103 69 -61Q69 -47 77 -31T96 -5Q169 -43 222 -43Q276 -43 302 -24T328 30Q328 77 253 107L194 130Q120 159 78 195T35 285Q35 339
65 377T144 440Q74 486 74 553Q74 587 87 613T124 658T178 685T246 695Q322 695 393 661Q393 626 370 603Q296 635 243 635Q197 635 174 614T151 562Q151 515 226 485L284 462Q359 432 401 397T444 307Q444 253 413 215T333 152ZM258 390L202 410Q112 368 112 301Q112
266 140 245T220 203L274 181Q367 224 367 291Q367 326 338 348T258 390Z" />
<glyph unicode="&#xa8;" glyph-name="dieresis" horiz-adv-x="398" d="M248 640Q263 649 288 649Q319 649 326 637T334 605Q334 585 326 574T288 563Q271 563 262 566T248 576T242 589T241 606Q241 623 248 640ZM71 640Q78 645 88 647T110 649Q133 649 150 640Q153
631 155 622T157 605Q157 584 149 574T110 563Q93 563 84 566T71 576T65 590T64 606Q64 623 71 640Z" />
<glyph unicode="&#xa9;" glyph-name="copyright" horiz-adv-x="810" d="M148 85Q45 188 45 341Q45 416 72 482T148 596T262 673T404 701Q479 701 545 673T660 596T737 482T765 341Q765 266 737 201T660 87T546 10T404 -18Q251 -18 148 85ZM198 555Q115 466 115
341Q115 279 137 224T198 128T289 63T404 39Q466 39 519 63T612 128T673 224T695 341Q695 402 673 457T611 554T519 619T404 644Q281 644 198 555ZM491 389V398Q491 433 470 460T404 488Q358 488 331 451T303 342Q303 271 331 234T414 197Q469 197 519 242Q541
231 552 203Q525 175 485 158T402 140Q323 140 277 195T231 344Q231 392 245 429T284 491T340 530T407 544Q443 544 470 533T517 505T546 466T556 425Q556 384 521 384Q506 384 491 389Z" />
<glyph unicode="&#xaa;" glyph-name="ordfeminine" horiz-adv-x="406" d="M356 340Q350 320 325 307Q286 321 276 357Q217 304 158 304Q100 304 70 337T40 416Q40 479 79 509T187 539Q206 539 227 538T271 534V564Q271 638 206 638Q143 638 76 608Q53 629 53 659Q138
695 210 695Q333 695 333 567V415Q333 363 356 340ZM164 357Q221 357 271 413V484Q248 486 229 488T194 490Q152 490 130 472T107 421Q107 396 121 377T159 357H164Z" />
<glyph unicode="&#xab;" glyph-name="guillemotleft" horiz-adv-x="526" d="M481 422L334 256L487 84Q475 55 444 43L248 229Q239 255 248 281L438 463Q469 451 481 422ZM276 422L129 256L282 84Q270 55 239 43L43 229Q34 255 43 281L233 463Q264 451 276 422Z" />
<glyph unicode="&#xac;" glyph-name="logicalnot" horiz-adv-x="530" d="M397 263L359 262H54Q50 274 50 295T54 331H463L470 325V110Q455 107 434 107T396 110V225L397 263Z" />
<glyph unicode="&#xad;" glyph-name="uni00AD" horiz-adv-x="335" d="M283 231H53Q49 243 49 264T53 300H283Q286 284 286 264T283 231Z" />
<glyph unicode="&#xae;" glyph-name="registered" horiz-adv-x="588" d="M112 306Q38 380 38 487Q38 540 58 587T112 668T193 723T293 743Q346 743 392 723T474 668T529 587T549 487Q549 434 529 388T475 307T393 252T293 232Q186 232 112 306ZM152 631Q95 572
95 487Q95 445 110 408T152 344T215 300T293 284Q335 284 371 300T435 343T477 408T493 487Q493 529 478 566T435 631T372 675T293 691Q209 691 152 631ZM392 546Q392 491 341 475Q354 469 374 434L390 406Q400 386 411 379Q400 359 380 359Q358 357 341 389L315
438Q304 459 283 459H252V364Q240 360 226 360Q211 360 200 364V611L203 614Q233 615 258 615T303 616Q345 616 368 596T392 546ZM252 575V501H294Q339 501 339 538Q339 575 298 575H252Z" />
<glyph unicode="&#xaf;" glyph-name="overscore" horiz-adv-x="398" d="M332 578H66Q63 592 63 610T66 644H332Q335 629 335 611T332 578Z" />
<glyph unicode="&#xb0;" glyph-name="degree" horiz-adv-x="314" d="M59 432Q20 472 20 531Q20 560 30 585T59 629T103 659T157 670Q186 670 211 660T255 630T284 585T294 531Q294 502 284 477T255 433T211 403T157 392Q99 392 59 432ZM156 614Q123 614 103 591T82
530Q82 494 102 471T156 448Q190 448 210 471T231 531Q231 567 211 590T156 614Z" />
<glyph unicode="&#xb1;" glyph-name="plusminus" horiz-adv-x="530" d="M229 367L228 405V530Q244 533 265 533T302 530V405Q302 405 301 367L338 368H461Q464 351 464 333T461 300H338L301 301L302 263V136Q287 133 266 133T228 136V263L229 301L192 300H69Q66
314 66 333T69 368H192L229 367ZM461 0H69Q66 18 66 34T69 69H461Q464 50 464 34T461 0Z" />
<glyph unicode="&#xb2;" glyph-name="twosuperior" horiz-adv-x="420" d="M344 410Q344 378 337 364T309 350H87Q64 376 64 390Q63 419 84 448T146 511L209 563Q239 588 251 605T264 650Q264 676 246 694T200 712Q150 712 121 650Q86 655 71 676Q86 718 121 744T209
770Q235 770 257 761T297 735T323 697T333 653Q333 630 328 612T313 578T288 547T251 515L195 470Q147 431 137 406Q154 408 171 409T206 410H344Z" />
<glyph unicode="&#xb3;" glyph-name="threesuperior" horiz-adv-x="420" d="M314 703L248 634Q243 628 236 622T219 609H225Q276 609 309 575T343 478Q343 447 331 423T297 381T246 354T181 345Q112 345 59 386Q64 415 84 434Q112 416 137 408T185 400Q229 400
252 424T275 486Q275 526 251 544T197 563Q171 563 150 551Q129 559 125 587L211 678Q220 687 228 695T246 709L244 712Q230 710 211 709T166 707H77Q74 720 74 735Q74 752 78 763H314Q325 744 325 729Q325 714 314 703Z" />
<glyph unicode="&#xb4;" glyph-name="acute" horiz-adv-x="398" d="M134 568L271 722Q314 709 332 666L169 536Q145 542 134 568Z" />
<glyph unicode="&#xb6;" glyph-name="paragraph" horiz-adv-x="627" d="M293 58V260H271Q171 260 111 315T51 474T111 632T271 687Q308 687 364 684L370 678V68Q370 5 362 -35T328 -104Q285 -153 209 -153T79 -130Q79 -96 100 -69Q150 -91 199 -91T271 -60T293
58ZM437 -134V677L443 683H594Q598 671 598 649T594 615H547Q524 615 514 616V-134Q497 -137 475 -137T437 -134Z" />
<glyph unicode="&#xb7;" glyph-name="middot" horiz-adv-x="291" d="M97 238Q89 252 89 282Q89 303 93 314T105 330T123 336T146 337Q159 337 169 336T186 330T198 313T202 282Q202 265 200 255T192 238T175 230T147 228Q114 228 97 238Z" />
<glyph unicode="&#xb8;" glyph-name="cedilla" horiz-adv-x="398" d="M151 -72Q161 -34 177 0H233Q228 -11 224 -21T216 -40Q254 -43 279 -66T304 -128Q304 -168 273 -193T195 -219Q148 -219 120 -200Q121 -179 138 -156Q161 -170 188 -170Q215 -170 227 -158T239
-126Q239 -103 224 -93T191 -83Q178 -83 166 -88Q156 -84 151 -72Z" />
<glyph unicode="&#xb9;" glyph-name="onesuperior" horiz-adv-x="420" d="M152 408L198 407V608Q198 623 200 661Q167 617 101 588Q77 601 74 631Q164 683 201 763Q216 767 231 767T263 763V407L310 408H346Q349 396 349 382T346 352H95Q92 368 92 382T95 408H152Z" />
<glyph unicode="&#xba;" glyph-name="ordmasculine" horiz-adv-x="389" d="M302 656Q356 597 356 499Q356 458 346 423T316 361T266 320T194 304Q153 304 123 319T72 361T42 422T32 499Q32 540 42 575T72 637T122 679T194 695Q260 695 302 656ZM123 601Q101 561
101 500Q101 470 106 444T122 400T151 370T194 359Q219 359 236 370T265 400T282 444T288 500Q288 529 283 555T266 600T236 631T194 642Q146 642 123 601Z" />
<glyph unicode="&#xbb;" glyph-name="guillemotright" horiz-adv-x="526" d="M45 84L193 250L39 422Q53 451 83 463L278 277Q282 267 282 251T278 225L89 43Q59 55 45 84ZM250 84L398 250L244 422Q258 451 288 463L483 277Q488 267 488 252T483 225L294 43Q264
55 250 84Z" />
<glyph unicode="&#xbc;" glyph-name="onequarter" horiz-adv-x="886" d="M376 585L422 584V785Q422 800 424 838Q391 794 325 765Q301 778 298 808Q388 860 425 940Q440 944 455 944T487 940V584L534 585H570Q573 573 573 559T570 529H319Q316 545 316 559T319
585H376ZM255 0L632 683Q644 688 669 688T706 683L330 0Q317 -5 292 -5T255 0ZM710 1V83H550Q535 107 535 121T550 166L669 416Q684 418 703 414T730 401L641 208Q618 160 605 142L606 140Q628 141 664 141H710V213Q710 234 721 246T750 258H772L773 256V141H839Q842
130 842 113T836 83H773V1Q764 -3 743 -3T710 1Z" />
<glyph unicode="&#xbd;" glyph-name="onehalf" horiz-adv-x="886" d="M376 585L422 584V785Q422 800 424 838Q391 794 325 765Q301 778 298 808Q388 860 425 940Q440 944 455 944T487 940V584L534 585H570Q573 573 573 559T570 529H319Q316 545 316 559T319 585H376ZM238
0L615 683Q627 688 652 688T689 683L313 0Q300 -5 275 -5T238 0ZM835 59Q835 27 828 13T800 -1H578Q555 25 555 39Q554 68 575 97T637 160L700 212Q730 237 742 254T755 299Q755 325 737 343T691 361Q641 361 612 299Q577 304 562 325Q577 367 612 393T700 419Q726
419 748 410T788 384T814 346T824 302Q824 279 819 261T804 227T779 196T742 164L686 119Q638 80 628 55Q645 57 662 58T697 59H835Z" />
<glyph unicode="&#xbe;" glyph-name="threequarters" horiz-adv-x="886" d="M567 880L501 811Q496 805 489 799T472 786H478Q529 786 562 752T596 655Q596 624 584 600T550 558T499 531T434 522Q365 522 312 563Q317 592 337 611Q365 593 390 585T438 577Q482
577 505 601T528 663Q528 703 504 721T450 740Q424 740 403 728Q382 736 378 764L464 855Q473 864 481 872T499 886L497 889Q483 887 464 886T419 884H330Q327 897 327 912Q327 929 331 940H567Q578 921 578 906Q578 891 567 880ZM247 0L624 683Q636 688 661 688T698
683L322 0Q309 -5 284 -5T247 0ZM715 1V83H555Q540 107 540 121T555 166L674 416Q689 418 708 414T735 401L646 208Q623 160 610 142L611 140Q633 141 669 141H715V213Q715 234 726 246T755 258H777L778 256V141H844Q847 130 847 113T841 83H778V1Q769 -3 748 -3T715
1Z" />
<glyph unicode="&#xbf;" glyph-name="questiondown" horiz-adv-x="382" d="M366 -157Q277 -204 192 -204Q107 -204 59 -160T10 -40Q9 20 41 66T140 151L204 188L211 304Q217 306 224 307T240 308Q248 308 256 307T270 304L274 155L267 146L222 122Q91 51 91 -33Q91
-79 119 -107T202 -136Q260 -136 339 -98Q363 -122 366 -157ZM286 407Q277 402 265 400T239 397Q227 397 217 397T200 402T189 417T185 447Q185 483 198 490T239 498Q266 498 280 491T294 447Q294 418 286 407Z" />
<glyph unicode="&#xc0;" glyph-name="Agrave" horiz-adv-x="596" d="M431 178L361 177H227L157 178L99 -1Q86 -4 67 -4T28 1L26 4L255 683Q272 686 300 686T341 683L570 4Q554 -6 530 -6T496 2T479 34L431 178ZM179 243L237 244H352Q353 244 376 244T410 243L347
433Q309 550 296 600H291Q272 526 257 481L179 243ZM210 882L401 771Q395 741 377 729L172 815Q179 863 210 882Z" />
<glyph unicode="&#xc1;" glyph-name="Aacute" horiz-adv-x="596" d="M431 178L361 177H227L157 178L99 -1Q86 -4 67 -4T28 1L26 4L255 683Q272 686 300 686T341 683L570 4Q554 -6 530 -6T496 2T479 34L431 178ZM179 243L237 244H352Q353 244 376 244T410 243L347
433Q309 550 296 600H291Q272 526 257 481L179 243ZM210 771L401 882Q430 864 439 815L234 729Q214 743 210 771Z" />
<glyph unicode="&#xc2;" glyph-name="Acircumflex" horiz-adv-x="596" d="M431 178L361 177H227L157 178L99 -1Q86 -4 67 -4T28 1L26 4L255 683Q272 686 300 686T341 683L570 4Q554 -6 530 -6T496 2T479 34L431 178ZM179 243L237 244H352Q353 244 376 244T410
243L347 433Q309 550 296 600H291Q272 526 257 481L179 243ZM407 738L298 813L185 732Q157 744 151 768L262 876Q297 882 333 876L444 773Q435 746 407 738Z" />
<glyph unicode="&#xc3;" glyph-name="Atilde" horiz-adv-x="596" d="M431 178L361 177H227L157 178L99 -1Q86 -4 67 -4T28 1L26 4L255 683Q272 686 300 686T341 683L570 4Q554 -6 530 -6T496 2T479 34L431 178ZM179 243L237 244H352Q353 244 376 244T410 243L347
433Q309 550 296 600H291Q272 526 257 481L179 243ZM315 755L254 784Q245 788 237 790T221 793Q211 792 200 787T178 768L166 752Q139 754 128 775L136 795Q149 827 174 843T228 859Q241 860 254 856T281 846L342 817Q350 813 358 811T374 808Q384 808 395 813T418
833L430 849Q454 848 468 824L460 805Q446 773 423 757T369 741Q345 741 315 755Z" />
<glyph unicode="&#xc4;" glyph-name="Adieresis" horiz-adv-x="596" d="M431 178L361 177H227L157 178L99 -1Q86 -4 67 -4T28 1L26 4L255 683Q272 686 300 686T341 683L570 4Q554 -6 530 -6T496 2T479 34L431 178ZM179 243L237 244H352Q353 244 376 244T410 243L347
433Q309 550 296 600H291Q272 526 257 481L179 243ZM356 818Q362 822 373 824T396 826Q421 826 439 818Q445 798 445 781Q445 772 445 764T440 750T426 741T396 737Q377 737 368 741T354 751T349 765T348 781Q348 802 356 818ZM157 818Q165 822 176 824T200 826Q217
826 226 823T240 813T246 799T247 781Q247 773 247 765T243 751T228 741T199 737Q179 737 170 741T156 751T151 765T151 781Q151 797 157 818Z" />
<glyph unicode="&#xc5;" glyph-name="Aring" horiz-adv-x="596" d="M431 178L227 177L157 178L99 -1Q87 -4 69 -4Q59 -4 49 -3T26 4L254 679Q224 692 207 718T189 782Q189 801 197 819T220 851T255 873T298 882Q321 882 341 874T376 851T399 818T408 782Q408 744
390 718T342 679L570 4Q554 -6 530 -6Q506 -6 496 2T479 34L431 178ZM179 243L352 244L410 243L347 433Q327 492 315 533T296 600H291Q281 563 273 534T257 481L179 243ZM298 833Q276 833 262 817T247 776Q247 752 261 736T298 720Q320 720 334 736T349 776Q349
801 335 817T298 833Z" />
<glyph unicode="&#xc6;" glyph-name="AE" horiz-adv-x="871" d="M407 178L342 177H252L191 178L100 -1Q84 -4 64 -4T28 1L21 4L367 675Q384 683 413 683H800Q802 671 802 651T796 617H481L482 555V378L541 379H748Q751 361 751 346T748 313H541Q503 313 482 314V103L481
65Q517 67 542 67H816Q816 46 814 35Q808 0 765 0H451Q431 0 419 13T407 50V178ZM343 244L407 243V600H401Q394 583 346 481L224 243L271 244H343Z" />
<glyph unicode="&#xc7;" glyph-name="Ccedilla" horiz-adv-x="600" d="M266 -72Q276 -36 287 -11Q227 -7 183 22T112 99T71 208T57 338Q57 427 77 494T132 605T214 672T315 695Q369 695 413 679T488 637T536 577T553 507Q553 462 510 462Q507 462 502 462T490
464T480 467T476 472Q476 502 467 530T439 581T389 617T316 631Q231 631 185 556T138 343Q138 204 186 130T322 55Q411 55 502 134Q533 116 544 84Q465 3 344 -10Q339 -19 336 -26T331 -40Q370 -43 395 -66T420 -128Q420 -148 412 -164T388 -193T353 -212T310 -219Q263
-219 235 -200Q237 -176 254 -156Q276 -170 302 -170Q330 -170 342 -158T355 -126Q355 -103 340 -93T307 -83Q294 -83 282 -88Q271 -84 266 -72Z" />
<glyph unicode="&#xc8;" glyph-name="Egrave" horiz-adv-x="563" d="M173 103L172 65Q206 67 234 67H508Q508 46 506 35Q499 0 457 0H142Q122 0 111 13T99 50V677L105 683H491Q493 671 493 652T488 617H172L173 555V378L233 379H440Q443 361 443 346T440 313H233Q195
313 173 314V103ZM211 882L402 771Q396 741 378 729L173 815Q180 863 211 882Z" />
<glyph unicode="&#xc9;" glyph-name="Eacute" horiz-adv-x="563" d="M173 103L172 65Q206 67 234 67H508Q508 46 506 35Q499 0 457 0H142Q122 0 111 13T99 50V677L105 683H491Q493 671 493 652T488 617H172L173 555V378L233 379H440Q443 361 443 346T440 313H233Q195
313 173 314V103ZM211 771L402 882Q431 864 440 815L235 729Q215 743 211 771Z" />
<glyph unicode="&#xca;" glyph-name="Ecircumflex" horiz-adv-x="563" d="M173 103L172 65Q206 67 234 67H508Q508 46 506 35Q499 0 457 0H142Q122 0 111 13T99 50V677L105 683H491Q493 671 493 652T488 617H172L173 555V378L233 379H440Q443 361 443 346T440
313H233Q195 313 173 314V103ZM408 738L299 813L186 732Q158 744 152 768L263 876Q298 882 334 876L445 773Q436 746 408 738Z" />
<glyph unicode="&#xcb;" glyph-name="Edieresis" horiz-adv-x="563" d="M173 103L172 65Q206 67 234 67H508Q508 46 506 35Q499 0 457 0H142Q122 0 111 13T99 50V677L105 683H491Q493 671 493 652T488 617H172L173 555V378L233 379H440Q443 361 443 346T440 313H233Q195
313 173 314V103ZM357 818Q363 822 374 824T397 826Q422 826 440 818Q446 798 446 781Q446 772 446 764T441 750T427 741T397 737Q378 737 369 741T355 751T350 765T349 781Q349 802 357 818ZM158 818Q166 822 177 824T201 826Q218 826 227 823T241 813T247 799T248
781Q248 773 248 765T244 751T229 741T200 737Q180 737 171 741T157 751T152 765T152 781Q152 797 158 818Z" />
<glyph unicode="&#xcc;" glyph-name="Igrave" horiz-adv-x="282" d="M103 0V683Q117 686 139 686T179 683V0Q162 -3 140 -3T103 0ZM310 882L501 771Q495 741 477 729L272 815Q279 863 310 882Z" />
<glyph unicode="&#xcd;" glyph-name="Iacute" horiz-adv-x="282" d="M103 0V683Q117 686 139 686T179 683V0Q162 -3 140 -3T103 0ZM310 771L501 882Q530 864 539 815L334 729Q314 743 310 771Z" />
<glyph unicode="&#xce;" glyph-name="Icircumflex" horiz-adv-x="282" d="M103 0V683Q117 686 139 686T179 683V0Q162 -3 140 -3T103 0ZM507 738L398 813L285 732Q257 744 251 768L362 876Q397 882 433 876L544 773Q535 746 507 738Z" />
<glyph unicode="&#xcf;" glyph-name="Idieresis" horiz-adv-x="282" d="M103 0V683Q117 686 139 686T179 683V0Q162 -3 140 -3T103 0ZM456 818Q462 822 473 824T496 826Q521 826 539 818Q545 798 545 781Q545 772 545 764T540 750T526 741T496 737Q477 737 468
741T454 751T449 765T448 781Q448 802 456 818ZM257 818Q265 822 276 824T300 826Q317 826 326 823T340 813T346 799T347 781Q347 773 347 765T343 751T328 741T299 737Q279 737 270 741T256 751T251 765T251 781Q251 797 257 818Z" />
<glyph unicode="&#xd0;" glyph-name="Eth" horiz-adv-x="654" d="M492 47Q478 35 458 26T416 10T371 0T331 -4Q313 -4 261 -3T121 0L115 6V313H32Q29 328 29 345Q29 361 32 379H115V677L121 683Q208 686 324 686Q402 686 454 659T538 585T582 475T595 341Q595
241 574 170T492 47ZM323 622H191V379H361Q364 361 364 345Q364 328 361 313H191V61L323 60Q381 60 419 82T477 144T505 234T514 342Q514 484 467 553T323 622Z" />
<glyph unicode="&#xd1;" glyph-name="Ntilde" horiz-adv-x="671" d="M567 686L573 681V0Q554 -3 526 -3T478 0L235 453Q205 509 167 591H164Q170 405 170 375V0Q149 -3 133 -3T99 0V683Q117 686 144 686T192 683L435 230Q459 187 505 89H508Q501 217 501 317V636Q501
663 509 674T541 686H567ZM355 755L294 784Q285 788 277 790T261 793Q251 792 240 787T218 768L206 752Q179 754 168 775L176 795Q189 827 214 843T268 859Q281 860 294 856T321 846L382 817Q390 813 398 811T414 808Q424 808 435 813T458 833L470 849Q494 848
508 824L500 805Q486 773 463 757T409 741Q385 741 355 755Z" />
<glyph unicode="&#xd2;" glyph-name="Ograve" horiz-adv-x="653" d="M146 443Q141 419 140 394T138 342Q138 297 145 247T172 153T229 81T326 52Q366 52 396 66T447 102T480 155T500 217T511 282T514 342Q514 386 507 437T480 531T423 602T326 631Q281 631 249
615T197 572T165 512T146 443ZM163 46Q57 140 57 341Q57 420 74 485T126 597T210 669T326 695Q395 695 446 667T530 590T580 477T596 342Q596 263 579 198T527 86T443 14T326 -12Q227 -12 163 46ZM238 882L429 771Q423 741 405 729L200 815Q207 863 238 882Z" />
<glyph unicode="&#xd3;" glyph-name="Oacute" horiz-adv-x="653" d="M146 443Q141 419 140 394T138 342Q138 297 145 247T172 153T229 81T326 52Q366 52 396 66T447 102T480 155T500 217T511 282T514 342Q514 386 507 437T480 531T423 602T326 631Q281 631 249
615T197 572T165 512T146 443ZM163 46Q57 140 57 341Q57 420 74 485T126 597T210 669T326 695Q395 695 446 667T530 590T580 477T596 342Q596 263 579 198T527 86T443 14T326 -12Q227 -12 163 46ZM238 771L429 882Q458 864 467 815L262 729Q242 743 238 771Z" />
<glyph unicode="&#xd4;" glyph-name="Ocircumflex" horiz-adv-x="653" d="M146 443Q141 419 140 394T138 342Q138 297 145 247T172 153T229 81T326 52Q366 52 396 66T447 102T480 155T500 217T511 282T514 342Q514 386 507 437T480 531T423 602T326 631Q281 631
249 615T197 572T165 512T146 443ZM163 46Q57 140 57 341Q57 420 74 485T126 597T210 669T326 695Q395 695 446 667T530 590T580 477T596 342Q596 263 579 198T527 86T443 14T326 -12Q227 -12 163 46ZM435 738L326 813L213 732Q185 744 179 768L290 876Q325 882
361 876L472 773Q463 746 435 738Z" />
<glyph unicode="&#xd5;" glyph-name="Otilde" horiz-adv-x="653" d="M146 443Q141 419 140 394T138 342Q138 297 145 247T172 153T229 81T326 52Q366 52 396 66T447 102T480 155T500 217T511 282T514 342Q514 386 507 437T480 531T423 602T326 631Q281 631 249
615T197 572T165 512T146 443ZM163 46Q57 140 57 341Q57 420 74 485T126 597T210 669T326 695Q395 695 446 667T530 590T580 477T596 342Q596 263 579 198T527 86T443 14T326 -12Q227 -12 163 46ZM344 755L283 784Q274 788 266 790T250 793Q240 792 229 787T207
768L195 752Q168 754 157 775L165 795Q178 827 203 843T257 859Q270 860 283 856T310 846L371 817Q379 813 387 811T403 808Q413 808 424 813T447 833L459 849Q483 848 497 824L489 805Q475 773 452 757T398 741Q374 741 344 755Z" />
<glyph unicode="&#xd6;" glyph-name="Odieresis" horiz-adv-x="653" d="M146 443Q141 419 140 394T138 342Q138 297 145 247T172 153T229 81T326 52Q366 52 396 66T447 102T480 155T500 217T511 282T514 342Q514 386 507 437T480 531T423 602T326 631Q281 631
249 615T197 572T165 512T146 443ZM163 46Q57 140 57 341Q57 420 74 485T126 597T210 669T326 695Q395 695 446 667T530 590T580 477T596 342Q596 263 579 198T527 86T443 14T326 -12Q227 -12 163 46ZM384 818Q390 822 401 824T424 826Q449 826 467 818Q473 798
473 781Q473 772 473 764T468 750T454 741T424 737Q405 737 396 741T382 751T377 765T376 781Q376 802 384 818ZM185 818Q193 822 204 824T228 826Q245 826 254 823T268 813T274 799T275 781Q275 773 275 765T271 751T256 741T227 737Q207 737 198 741T184 751T179
765T179 781Q179 797 185 818Z" />
<glyph unicode="&#xd7;" glyph-name="multiply" horiz-adv-x="530" d="M265 242L130 105Q115 111 101 125T80 156L216 290Q192 314 80 425Q96 463 130 476L242 363Q249 353 265 339L400 476Q437 457 450 425Q337 314 331 308Q322 299 313 290L450 156Q435 118
400 105L288 218Q280 225 265 242Z" />
<glyph unicode="&#xd8;" glyph-name="Oslash" horiz-adv-x="653" d="M57 342Q57 413 73 477T122 589T203 666T316 695Q404 695 459 660L496 725Q531 720 550 696L508 619Q596 524 596 332Q596 258 579 195T527 86T443 14T326 -12Q248 -12 193 23L157 -42Q122 -38
103 -12L145 63Q57 160 57 342ZM183 133L426 600Q385 631 328 631Q274 631 237 608T178 543T147 447T137 330Q137 209 183 133ZM515 342Q515 474 470 549L226 83Q267 52 319 52Q377 52 415 76T475 141T506 234T515 342Z" />
<glyph unicode="&#xd9;" glyph-name="Ugrave" horiz-adv-x="666" d="M576 683V233Q576 173 559 128T510 51T433 4T333 -12Q278 -12 233 4T157 51T108 127T91 233V680L97 686H127Q151 686 159 675T167 636V234Q167 146 210 99T333 51Q412 51 455 97T499 234V683Q514
686 537 686Q559 686 576 683ZM245 882L436 771Q430 741 412 729L207 815Q214 863 245 882Z" />
<glyph unicode="&#xda;" glyph-name="Uacute" horiz-adv-x="666" d="M576 683V233Q576 173 559 128T510 51T433 4T333 -12Q278 -12 233 4T157 51T108 127T91 233V680L97 686H127Q151 686 159 675T167 636V234Q167 146 210 99T333 51Q412 51 455 97T499 234V683Q514
686 537 686Q559 686 576 683ZM245 771L436 882Q465 864 474 815L269 729Q249 743 245 771Z" />
<glyph unicode="&#xdb;" glyph-name="Ucircumflex" horiz-adv-x="666" d="M576 683V233Q576 173 559 128T510 51T433 4T333 -12Q278 -12 233 4T157 51T108 127T91 233V680L97 686H127Q151 686 159 675T167 636V234Q167 146 210 99T333 51Q412 51 455 97T499 234V683Q514
686 537 686Q559 686 576 683ZM442 738L333 813L220 732Q192 744 186 768L297 876Q332 882 368 876L479 773Q470 746 442 738Z" />
<glyph unicode="&#xdc;" glyph-name="Udieresis" horiz-adv-x="666" d="M576 683V233Q576 173 559 128T510 51T433 4T333 -12Q278 -12 233 4T157 51T108 127T91 233V680L97 686H127Q151 686 159 675T167 636V234Q167 146 210 99T333 51Q412 51 455 97T499 234V683Q514
686 537 686Q559 686 576 683ZM391 818Q397 822 408 824T431 826Q456 826 474 818Q480 798 480 781Q480 772 480 764T475 750T461 741T431 737Q412 737 403 741T389 751T384 765T383 781Q383 802 391 818ZM192 818Q200 822 211 824T235 826Q252 826 261 823T275
813T281 799T282 781Q282 773 282 765T278 751T263 741T234 737Q214 737 205 741T191 751T186 765T186 781Q186 797 192 818Z" />
<glyph unicode="&#xdd;" glyph-name="Yacute" horiz-adv-x="481" d="M290 421L394 683Q402 685 410 686T428 687Q445 687 465 682L468 676L280 222V0Q263 -3 241 -3Q218 -3 203 0V225L15 674Q27 681 39 685T62 690Q76 690 87 682T107 653L203 421Q210 404 220
376T244 306H249Q251 315 261 343T290 421ZM156 771L347 882Q376 864 385 815L180 729Q160 743 156 771Z" />
<glyph unicode="&#xde;" glyph-name="Thorn" horiz-adv-x="560" d="M99 0V683Q114 686 137 686Q160 686 175 683V577Q213 578 242 578T294 579Q343 579 384 565T454 524T499 456T515 365Q515 314 499 274T454 207T385 165T294 150H175V0Q160 -3 137 -3Q114 -3
99 0ZM175 214L296 215Q334 215 360 227T403 260T426 308T433 368Q433 396 426 422T403 469T360 502T294 514Q256 514 226 514T175 515V214Z" />
<glyph unicode="&#xdf;" glyph-name="germandbls" horiz-adv-x="611" d="M110 0V407L24 406Q21 421 21 438Q21 455 24 470L110 468V510Q110 555 125 590T167 649T232 685T317 698Q363 698 401 684T465 645T506 584T521 504Q521 468 506 426H504L506 425Q461 414
438 392T415 345Q415 331 425 314T460 276L497 246Q535 215 553 183T572 122Q572 93 560 69T525 26T471 -2T404 -12Q332 -12 276 17Q277 30 285 46T306 72Q329 59 351 54T395 48Q437 48 465 66T493 115Q492 132 482 152T447 194L406 228Q338 284 338 338Q338 377
365 408T441 457Q447 478 447 498Q447 561 414 601T314 641Q250 641 218 605T185 502V0Q168 -3 147 -3Q125 -3 110 0Z" />
<glyph unicode="&#xe0;" glyph-name="agrave" horiz-adv-x="504" d="M448 31Q437 3 414 -7Q365 11 352 63Q275 -12 201 -12Q163 -12 135 0T89 32T61 78T51 133Q51 173 64 203T101 254T157 284T226 294Q301 294 348 285V335Q348 437 258 437Q189 437 95 396Q69
419 69 454Q177 501 265 501Q420 501 420 334V128Q419 92 426 69T448 31ZM348 131V231Q324 235 298 236T243 238Q186 238 156 212T126 142Q126 100 147 76T204 51Q241 51 279 71T348 131ZM177 722L314 568Q303 542 279 536L116 666Q134 709 177 722Z" />
<glyph unicode="&#xe1;" glyph-name="aacute" horiz-adv-x="504" d="M448 31Q437 3 414 -7Q365 11 352 63Q275 -12 201 -12Q163 -12 135 0T89 32T61 78T51 133Q51 173 64 203T101 254T157 284T226 294Q301 294 348 285V335Q348 437 258 437Q189 437 95 396Q69
419 69 454Q177 501 265 501Q420 501 420 334V128Q419 92 426 69T448 31ZM348 131V231Q324 235 298 236T243 238Q186 238 156 212T126 142Q126 100 147 76T204 51Q241 51 279 71T348 131ZM178 568L315 722Q358 709 376 666L213 536Q189 542 178 568Z" />
<glyph unicode="&#xe2;" glyph-name="acircumflex" horiz-adv-x="504" d="M448 31Q437 3 414 -7Q365 11 352 63Q275 -12 201 -12Q163 -12 135 0T89 32T61 78T51 133Q51 173 64 203T101 254T157 284T226 294Q301 294 348 285V335Q348 437 258 437Q189 437 95 396Q69
419 69 454Q177 501 265 501Q420 501 420 334V128Q419 92 426 69T448 31ZM348 131V231Q324 235 298 236T243 238Q186 238 156 212T126 142Q126 100 147 76T204 51Q241 51 279 71T348 131ZM336 543L241 637L140 538Q116 548 104 573L210 705Q235 712 275 706L376
579Q363 553 336 543Z" />
<glyph unicode="&#xe3;" glyph-name="atilde" horiz-adv-x="504" d="M448 31Q437 3 414 -7Q365 11 352 63Q275 -12 201 -12Q163 -12 135 0T89 32T61 78T51 133Q51 173 64 203T101 254T157 284T226 294Q301 294 348 285V335Q348 437 258 437Q189 437 95 396Q69
419 69 454Q177 501 265 501Q420 501 420 334V128Q419 92 426 69T448 31ZM348 131V231Q324 235 298 236T243 238Q186 238 156 212T126 142Q126 100 147 76T204 51Q241 51 279 71T348 131ZM258 571L197 601Q179 610 164 610Q153 610 144 604T122 584L109 568Q78
570 71 592L80 612Q109 677 170 677Q194 677 224 663L285 634Q293 630 301 628T317 625Q337 624 360 651L373 666Q400 665 411 642L402 622Q372 557 312 557Q288 557 258 571Z" />
<glyph unicode="&#xe4;" glyph-name="adieresis" horiz-adv-x="504" d="M448 31Q437 3 414 -7Q365 11 352 63Q275 -12 201 -12Q163 -12 135 0T89 32T61 78T51 133Q51 173 64 203T101 254T157 284T226 294Q301 294 348 285V335Q348 437 258 437Q189 437 95 396Q69
419 69 454Q177 501 265 501Q420 501 420 334V128Q419 92 426 69T448 31ZM348 131V231Q324 235 298 236T243 238Q186 238 156 212T126 142Q126 100 147 76T204 51Q241 51 279 71T348 131ZM290 640Q305 649 330 649Q361 649 368 637T376 605Q376 585 368 574T330
563Q313 563 304 566T290 576T284 589T283 606Q283 623 290 640ZM113 640Q120 645 130 647T152 649Q175 649 192 640Q195 631 197 622T199 605Q199 584 191 574T152 563Q135 563 126 566T113 576T107 590T106 606Q106 623 113 640Z" />
<glyph unicode="&#xe5;" glyph-name="aring" horiz-adv-x="504" d="M448 31Q437 3 414 -7Q365 11 352 63Q275 -12 201 -12Q163 -12 135 0T89 32T61 78T51 133Q51 173 64 203T101 254T157 284T226 294Q301 294 348 285V335Q348 437 258 437Q189 437 95 396Q69 419
69 454Q177 501 265 501Q420 501 420 334V128Q419 92 426 69T448 31ZM348 131V231Q324 235 298 236T243 238Q186 238 156 212T126 142Q126 100 147 76T204 51Q241 51 279 71T348 131ZM241 536Q217 536 197 544T163 567T140 600T131 641Q131 686 162 716T241 747Q289
747 320 717T351 641Q351 620 343 601T320 567T285 545T241 536ZM241 698Q219 698 205 682T190 641Q190 617 204 601T241 585Q263 585 277 601T292 641Q292 666 278 682T241 698Z" />
<glyph unicode="&#xe6;" glyph-name="ae" horiz-adv-x="796" d="M734 223H424Q429 53 552 53Q621 53 697 96Q719 77 724 44Q644 -12 543 -12Q428 -12 380 80Q347 41 299 15T188 -12Q157 -12 132 -1T88 31T61 77T51 134Q51 215 100 254T238 294Q292 294 348 284V336Q348
437 258 437Q189 437 95 396Q69 419 69 454Q177 501 269 501Q363 501 399 428Q454 503 546 503Q592 503 627 487T687 443T725 375T738 289Q738 272 737 256T734 223ZM359 139Q350 178 347 229Q296 238 241 238Q187 238 157 212T126 143Q126 101 147 76T206 51Q245
51 287 72T359 139ZM424 280H662V291Q662 360 634 403T547 446Q490 446 459 402T424 280Z" />
<glyph unicode="&#xe7;" glyph-name="ccedilla" horiz-adv-x="469" d="M199 -72Q208 -39 220 -10Q176 -5 145 16T93 72T62 149T52 241Q52 305 67 354T110 436T175 486T254 503Q297 503 329 490T382 455T415 409T426 362Q426 314 387 314Q373 314 355 317V328Q355
350 349 371T331 408T299 433T252 443Q195 443 162 391T129 243Q129 147 161 100T250 52Q309 52 385 107Q412 91 420 60Q358 1 277 -10Q273 -17 270 -24T264 -40Q303 -43 327 -66T352 -128Q352 -168 321 -193T243 -219Q196 -219 168 -200Q170 -176 187 -156Q209
-170 238 -170Q287 -170 287 -126Q287 -83 239 -83Q228 -83 215 -88Q204 -84 199 -72Z" />
<glyph unicode="&#xe8;" glyph-name="egrave" horiz-adv-x="503" d="M440 223H130Q135 53 259 53Q327 53 404 95Q426 75 431 44Q349 -12 247 -12Q195 -12 158 7T98 61T63 143T52 246Q52 303 65 350T105 431T167 484T251 503Q297 503 333 487T394 442T432 374T445
289Q445 271 444 255T440 223ZM130 280H370V293Q370 362 341 404T254 446Q197 446 166 401T130 280ZM191 722L328 568Q317 542 293 536L130 666Q148 709 191 722Z" />
<glyph unicode="&#xe9;" glyph-name="eacute" horiz-adv-x="503" d="M440 223H130Q135 53 259 53Q327 53 404 95Q426 75 431 44Q349 -12 247 -12Q195 -12 158 7T98 61T63 143T52 246Q52 303 65 350T105 431T167 484T251 503Q297 503 333 487T394 442T432 374T445
289Q445 271 444 255T440 223ZM130 280H370V293Q370 362 341 404T254 446Q197 446 166 401T130 280ZM189 568L326 722Q369 709 387 666L224 536Q200 542 189 568Z" />
<glyph unicode="&#xea;" glyph-name="ecircumflex" horiz-adv-x="503" d="M440 223H130Q135 53 259 53Q327 53 404 95Q426 75 431 44Q349 -12 247 -12Q195 -12 158 7T98 61T63 143T52 246Q52 303 65 350T105 431T167 484T251 503Q297 503 333 487T394 442T432
374T445 289Q445 271 444 255T440 223ZM130 280H370V293Q370 362 341 404T254 446Q197 446 166 401T130 280ZM350 543L255 637L154 538Q130 548 118 573L224 705Q249 712 289 706L390 579Q377 553 350 543Z" />
<glyph unicode="&#xeb;" glyph-name="edieresis" horiz-adv-x="503" d="M440 223H130Q135 53 259 53Q327 53 404 95Q426 75 431 44Q349 -12 247 -12Q195 -12 158 7T98 61T63 143T52 246Q52 303 65 350T105 431T167 484T251 503Q297 503 333 487T394 442T432 374T445
289Q445 271 444 255T440 223ZM130 280H370V293Q370 362 341 404T254 446Q197 446 166 401T130 280ZM304 640Q319 649 344 649Q375 649 382 637T390 605Q390 585 382 574T344 563Q327 563 318 566T304 576T298 589T297 606Q297 623 304 640ZM127 640Q134 645 144
647T166 649Q189 649 206 640Q209 631 211 622T213 605Q213 584 205 574T166 563Q149 563 140 566T127 576T121 590T120 606Q120 623 127 640Z" />
<glyph unicode="&#xec;" glyph-name="igrave" horiz-adv-x="256" d="M170 422V0Q155 -3 133 -3Q111 -3 96 0V386Q96 414 87 424T55 434H46Q42 445 42 461Q42 477 46 489Q65 491 77 492T96 494H104Q135 494 152 475T170 422ZM308 722L445 568Q434 542 410 536L247
666Q265 709 308 722Z" />
<glyph unicode="&#xed;" glyph-name="iacute" horiz-adv-x="256" d="M170 422V0Q155 -3 133 -3Q111 -3 96 0V386Q96 414 87 424T55 434H46Q42 445 42 461Q42 477 46 489Q65 491 77 492T96 494H104Q135 494 152 475T170 422ZM307 568L444 722Q487 709 505 666L342
536Q318 542 307 568Z" />
<glyph unicode="&#xee;" glyph-name="icircumflex" horiz-adv-x="256" d="M170 422V0Q155 -3 133 -3Q111 -3 96 0V386Q96 414 87 424T55 434H46Q42 445 42 461Q42 477 46 489Q65 491 77 492T96 494H104Q135 494 152 475T170 422ZM468 543L373 637L272 538Q248
548 236 573L342 705Q367 712 407 706L508 579Q495 553 468 543Z" />
<glyph unicode="&#xef;" glyph-name="idieresis" horiz-adv-x="256" d="M170 422V0Q155 -3 133 -3Q111 -3 96 0V386Q96 414 87 424T55 434H46Q42 445 42 461Q42 477 46 489Q65 491 77 492T96 494H104Q135 494 152 475T170 422ZM421 640Q436 649 461 649Q492 649
499 637T507 605Q507 585 499 574T461 563Q444 563 435 566T421 576T415 589T414 606Q414 623 421 640ZM244 640Q251 645 261 647T283 649Q306 649 323 640Q326 631 328 622T330 605Q330 584 322 574T283 563Q266 563 257 566T244 576T238 590T237 606Q237 623
244 640Z" />
<glyph unicode="&#xf0;" glyph-name="eth" horiz-adv-x="516" d="M127 572L221 637Q181 671 130 695Q137 731 161 744Q228 713 276 675L364 736Q374 729 384 716T395 691L317 637Q465 486 465 242Q465 186 452 140T412 60T347 7T257 -12Q207 -12 169 7T104 59T64
138T50 238Q50 291 64 336T104 415T168 468T256 487Q301 487 349 464Q323 534 262 599L158 527Q148 533 138 547T127 572ZM371 390Q321 428 255 428Q222 428 198 414T158 374T135 314T127 239Q127 199 134 164T157 103T198 61T258 46Q296 46 321 63T361 108T382
173T389 249Q389 282 385 318T371 390Z" />
<glyph unicode="&#xf1;" glyph-name="ntilde" horiz-adv-x="545" d="M463 343V95Q463 38 474 10Q458 -6 427 -6Q389 -6 389 43V320Q389 381 374 406T317 432Q277 432 234 411T162 355V0Q147 -3 125 -3Q103 -3 88 0V488L94 494H122Q146 494 154 482T162 442V428Q196
460 242 479T334 499Q401 499 432 456T463 343ZM294 571L233 601Q215 610 200 610Q189 610 180 604T158 584L145 568Q114 570 107 592L116 612Q145 677 206 677Q230 677 260 663L321 634Q329 630 337 628T353 625Q373 624 396 651L409 666Q436 665 447 642L438
622Q408 557 348 557Q324 557 294 571Z" />
<glyph unicode="&#xf2;" glyph-name="ograve" horiz-adv-x="519" d="M397 41Q344 -12 259 -12Q209 -12 171 7T106 59T66 140T52 245Q52 302 65 349T105 431T170 484T259 503Q309 503 347 484T412 431T453 350T467 245Q467 111 397 41ZM260 46Q324 46 357 100T391
245Q391 285 384 321T360 385T319 429T259 445Q225 445 201 430T160 387T137 324T129 245Q129 203 136 167T159 104T200 62T260 46ZM195 722L332 568Q321 542 297 536L134 666Q152 709 195 722Z" />
<glyph unicode="&#xf3;" glyph-name="oacute" horiz-adv-x="519" d="M397 41Q344 -12 259 -12Q209 -12 171 7T106 59T66 140T52 245Q52 302 65 349T105 431T170 484T259 503Q309 503 347 484T412 431T453 350T467 245Q467 111 397 41ZM260 46Q324 46 357 100T391
245Q391 285 384 321T360 385T319 429T259 445Q225 445 201 430T160 387T137 324T129 245Q129 203 136 167T159 104T200 62T260 46ZM194 568L331 722Q374 709 392 666L229 536Q205 542 194 568Z" />
<glyph unicode="&#xf4;" glyph-name="ocircumflex" horiz-adv-x="519" d="M397 41Q344 -12 259 -12Q209 -12 171 7T106 59T66 140T52 245Q52 302 65 349T105 431T170 484T259 503Q309 503 347 484T412 431T453 350T467 245Q467 111 397 41ZM260 46Q324 46 357
100T391 245Q391 285 384 321T360 385T319 429T259 445Q225 445 201 430T160 387T137 324T129 245Q129 203 136 167T159 104T200 62T260 46ZM354 543L259 637L158 538Q134 548 122 573L228 705Q253 712 293 706L394 579Q381 553 354 543Z" />
<glyph unicode="&#xf5;" glyph-name="otilde" horiz-adv-x="519" d="M397 41Q344 -12 259 -12Q209 -12 171 7T106 59T66 140T52 245Q52 302 65 349T105 431T170 484T259 503Q309 503 347 484T412 431T453 350T467 245Q467 111 397 41ZM260 46Q324 46 357 100T391
245Q391 285 384 321T360 385T319 429T259 445Q225 445 201 430T160 387T137 324T129 245Q129 203 136 167T159 104T200 62T260 46ZM276 571L215 601Q197 610 182 610Q171 610 162 604T140 584L127 568Q96 570 89 592L98 612Q127 677 188 677Q212 677 242 663L303
634Q311 630 319 628T335 625Q355 624 378 651L391 666Q418 665 429 642L420 622Q390 557 330 557Q306 557 276 571Z" />
<glyph unicode="&#xf6;" glyph-name="odieresis" horiz-adv-x="519" d="M397 41Q344 -12 259 -12Q209 -12 171 7T106 59T66 140T52 245Q52 302 65 349T105 431T170 484T259 503Q309 503 347 484T412 431T453 350T467 245Q467 111 397 41ZM260 46Q324 46 357 100T391
245Q391 285 384 321T360 385T319 429T259 445Q225 445 201 430T160 387T137 324T129 245Q129 203 136 167T159 104T200 62T260 46ZM308 640Q323 649 348 649Q379 649 386 637T394 605Q394 585 386 574T348 563Q331 563 322 566T308 576T302 589T301 606Q301 623
308 640ZM131 640Q138 645 148 647T170 649Q193 649 210 640Q213 631 215 622T217 605Q217 584 209 574T170 563Q153 563 144 566T131 576T125 590T124 606Q124 623 131 640Z" />
<glyph unicode="&#xf7;" glyph-name="divide" horiz-adv-x="530" d="M221 431Q213 447 213 467T221 504Q235 515 265 515T309 504Q316 490 316 468T309 431Q296 420 266 420T221 431ZM221 75Q213 91 213 111T221 148Q235 159 265 159T309 148Q316 134 316 112T309
75Q298 64 267 64T221 75ZM471 257H59Q55 269 55 290T59 326H471Q475 311 475 290T471 257Z" />
<glyph unicode="&#xf8;" glyph-name="oslash" horiz-adv-x="519" d="M398 447Q467 378 467 244Q467 187 453 140T413 59T348 7T259 -12Q204 -12 164 9L128 -53Q115 -52 100 -44T78 -26L118 45Q52 114 52 246Q52 303 66 350T106 431T170 484T259 503Q311 503 352
482L389 545Q401 544 416 536T438 517L398 447ZM364 385L194 63Q222 45 260 45Q296 45 321 61T363 104T386 168T394 247Q394 332 364 385ZM153 109L322 430Q293 447 260 447Q224 447 199 431T157 388T133 323T125 245Q125 161 153 109Z" />
<glyph unicode="&#xf9;" glyph-name="ugrave" horiz-adv-x="546" d="M83 147V396Q83 449 71 481Q88 497 118 497Q156 497 156 448V171Q156 108 172 83T228 58Q268 58 311 79T383 135V490Q389 492 399 493T420 494Q431 494 440 493T457 490V138Q457 58 485 31Q476
3 451 -7Q402 9 388 67Q354 33 307 12T211 -9Q144 -9 114 34T83 147ZM205 722L342 568Q331 542 307 536L144 666Q162 709 205 722Z" />
<glyph unicode="&#xfa;" glyph-name="uacute" horiz-adv-x="546" d="M83 147V396Q83 449 71 481Q88 497 118 497Q156 497 156 448V171Q156 108 172 83T228 58Q268 58 311 79T383 135V490Q389 492 399 493T420 494Q431 494 440 493T457 490V138Q457 58 485 31Q476
3 451 -7Q402 9 388 67Q354 33 307 12T211 -9Q144 -9 114 34T83 147ZM204 568L341 722Q384 709 402 666L239 536Q215 542 204 568Z" />
<glyph unicode="&#xfb;" glyph-name="ucircumflex" horiz-adv-x="546" d="M83 147V396Q83 449 71 481Q88 497 118 497Q156 497 156 448V171Q156 108 172 83T228 58Q268 58 311 79T383 135V490Q389 492 399 493T420 494Q431 494 440 493T457 490V138Q457 58 485
31Q476 3 451 -7Q402 9 388 67Q354 33 307 12T211 -9Q144 -9 114 34T83 147ZM364 543L269 637L168 538Q144 548 132 573L238 705Q263 712 303 706L404 579Q391 553 364 543Z" />
<glyph unicode="&#xfc;" glyph-name="udieresis" horiz-adv-x="546" d="M83 147V396Q83 449 71 481Q88 497 118 497Q156 497 156 448V171Q156 108 172 83T228 58Q268 58 311 79T383 135V490Q389 492 399 493T420 494Q431 494 440 493T457 490V138Q457 58 485 31Q476
3 451 -7Q402 9 388 67Q354 33 307 12T211 -9Q144 -9 114 34T83 147ZM317 640Q332 649 357 649Q388 649 395 637T403 605Q403 585 395 574T357 563Q340 563 331 566T317 576T311 589T310 606Q310 623 317 640ZM140 640Q147 645 157 647T179 649Q202 649 219 640Q222
631 224 622T226 605Q226 584 218 574T179 563Q162 563 153 566T140 576T134 590T133 606Q133 623 140 640Z" />
<glyph unicode="&#xfd;" glyph-name="yacute" horiz-adv-x="452" d="M436 486L299 17Q261 -112 218 -165T89 -218Q45 -218 8 -205Q5 -177 24 -151Q55 -162 90 -162Q143 -162 171 -126T222 -14L225 -4Q199 -2 186 8T163 45L23 485Q54 498 67 498Q96 498 106 463L185
212Q189 200 231 56Q233 49 241 49L363 491Q376 495 397 495T434 489L436 486ZM160 568L297 722Q340 709 358 666L195 536Q171 542 160 568Z" />
<glyph unicode="&#xfe;" glyph-name="thorn" horiz-adv-x="525" d="M160 33V-165Q160 -192 152 -203T120 -215H94L88 -209V729L94 735H120Q144 735 152 724T160 685V432Q220 499 303 499Q387 499 430 432T474 243Q474 184 459 137T418 58T359 9T291 -8Q222 -8
160 33ZM160 354V101Q191 78 220 67T275 56Q329 56 364 103T399 248Q399 296 391 331T368 389T336 423T296 434Q256 434 220 413T160 354Z" />
<glyph unicode="&#xff;" glyph-name="ydieresis" horiz-adv-x="452" d="M436 486L299 17Q261 -112 218 -165T89 -218Q45 -218 8 -205Q5 -177 24 -151Q55 -162 90 -162Q143 -162 171 -126T222 -14L225 -4Q199 -2 186 8T163 45L23 485Q54 498 67 498Q96 498 106
463L185 212Q189 200 231 56Q233 49 241 49L363 491Q376 495 397 495T434 489L436 486ZM274 640Q289 649 314 649Q345 649 352 637T360 605Q360 585 352 574T314 563Q297 563 288 566T274 576T268 589T267 606Q267 623 274 640ZM97 640Q104 645 114 647T136 649Q159
649 176 640Q179 631 181 622T183 605Q183 584 175 574T136 563Q119 563 110 566T97 576T91 590T90 606Q90 623 97 640Z" />
<glyph unicode="&#x2013;" glyph-name="endash" horiz-adv-x="517" d="M450 232H67Q64 245 64 262T67 297H450Q454 282 454 263T450 232Z" />
<glyph unicode="&#x2014;" glyph-name="emdash" horiz-adv-x="789" d="M707 232H82Q79 245 79 262T82 297H707Q710 280 710 263T707 232Z" />
<glyph unicode="&#x2018;" glyph-name="quoteleft" horiz-adv-x="206" d="M55 526Q45 547 45 594Q45 640 73 682T156 747Q167 741 173 730T179 708Q119 674 117 623Q136 621 146 617T161 607T165 590T166 567Q166 547 162 537T149 521T130 516T103 515Q69 515 55 526Z" />
<glyph unicode="&#x2019;" glyph-name="quoteright" horiz-adv-x="206" d="M151 734Q161 715 161 675Q161 559 49 513Q38 518 33 529T27 552Q87 586 88 637Q70 639 60 642T46 652T41 668T40 692Q40 712 44 722T55 738T74 744T101 745Q137 745 151 734Z" />
<glyph unicode="&#x201a;" glyph-name="quotesinglbase" horiz-adv-x="207" d="M158 88Q168 67 168 20Q168 -26 140 -68T57 -133Q46 -129 40 -118T34 -94Q94 -62 96 -9Q76 -7 66 -4T52 7T48 23T47 47Q47 68 52 78T67 93T87 98T111 99Q142 99 158 88Z" />
<glyph unicode="&#x201c;" glyph-name="quotedblleft" horiz-adv-x="377" d="M55 526Q45 547 45 594Q45 640 73 682T156 747Q167 741 173 730T179 708Q119 674 117 623Q136 621 146 617T161 607T165 590T166 567Q166 547 162 537T149 521T130 516T103 515Q69 515
55 526ZM226 526Q216 547 216 594Q216 640 244 682T327 747Q338 741 344 730T350 708Q290 674 288 623Q307 621 317 617T332 607T336 590T337 567Q337 547 333 537T320 521T301 516T274 515Q240 515 226 526Z" />
<glyph unicode="&#x201d;" glyph-name="quotedblright" horiz-adv-x="377" d="M151 734Q161 715 161 675Q161 559 49 513Q38 518 33 529T27 552Q87 586 88 637Q70 639 60 642T46 652T41 668T40 692Q40 712 44 722T55 738T74 744T101 745Q137 745 151 734ZM323
734Q333 715 333 675Q333 559 221 513Q210 518 205 529T199 552Q259 586 260 637Q242 639 232 642T218 652T213 668T212 692Q212 712 216 722T227 738T246 744T273 745Q309 745 323 734Z" />
<glyph unicode="&#x201e;" glyph-name="quotedblbase" horiz-adv-x="378" d="M158 88Q168 67 168 20Q168 -26 140 -68T57 -133Q46 -129 40 -118T34 -94Q94 -62 96 -9Q76 -7 66 -4T52 7T48 23T47 47Q47 68 52 78T67 93T87 98T111 99Q142 99 158 88ZM330 88Q340
67 340 20Q340 -26 312 -68T229 -133Q218 -129 212 -118T206 -94Q266 -62 268 -9Q248 -7 238 -4T224 7T220 23T219 47Q219 68 224 78T239 93T259 98T283 99Q314 99 330 88Z" />
<glyph unicode="&#x2022;" glyph-name="bullet" horiz-adv-x="438" d="M131 192Q118 218 118 272T131 350Q169 370 219 370Q240 370 267 364T307 350Q321 328 321 273T307 192Q297 185 269 180T219 174Q165 174 131 192Z" />
<glyph unicode="&#x2039;" glyph-name="guilsinglleft" horiz-adv-x="322" d="M276 422L129 256L282 84Q270 55 239 43L43 229Q34 255 43 281L233 463Q264 451 276 422Z" />
<glyph unicode="&#x203a;" glyph-name="guilsinglright" horiz-adv-x="322" d="M45 84L193 250L39 422Q53 451 83 463L278 277Q282 267 282 251T278 225L89 43Q59 55 45 84Z" />
</font>
</defs>
</svg>
