<?xml version="1.0" standalone="no"?>
<!DOCTYPE svg PUBLIC "-//W3C//DTD SVG 1.1//EN" "http://www.w3.org/Graphics/SVG/1.1/DTD/svg11.dtd">
<svg xmlns="http://www.w3.org/2000/svg">
<defs >
<font id="Montserrat" horiz-adv-x="588" ><font-face
    font-family="Montserrat Light"
    units-per-em="1000"
    panose-1="0 0 4 0 0 0 0 0 0 0"
    ascent="968"
    descent="-251"
    alphabetic="0" />
<glyph unicode=" " glyph-name="space" horiz-adv-x="275" />
<glyph unicode="!" glyph-name="exclam" horiz-adv-x="201" d="M76 687H141V519L131 205H85L76 519V687ZM127 83T140 70T153 38Q153 19 140 6T108 -8Q89 -8 77 5T64 38Q64 57 76 70T108 83Q127 83 140 70Z" />
<glyph unicode="&quot;" glyph-name="quotedbl" horiz-adv-x="299" d="M60 699H114V482H60V699ZM185 699H239V482H185V699Z" />
<glyph unicode="#" glyph-name="numbersign" horiz-adv-x="716" d="M674 452H527L501 243H645L641 191H494L471 0H419L442 191H233L210 0H158L181 191H37L41 243H188L214 452H70L73 504H220L244 699H296L272 504H481L505 699H557L533 504H677L674 452ZM449 243L475
452H266L240 243H449Z" />
<glyph unicode="$" glyph-name="dollar" horiz-adv-x="608" d="M149 492T173 465T232 423T328 388Q399 367 442 347T516 287T547 184Q547 106 489 55T332 -4L331 -130H278V-5Q210 -1 146 27T34 101L66 158Q113 112 175 86T297 60Q377 60 424 92T471 180Q471 224
447 252T388 295T290 330Q219 352 176 371T103 429T73 530Q73 603 128 650T278 705V818H331L332 705Q384 703 436 687T528 644L498 585Q455 612 404 626T308 641Q236 641 193 613T149 535Q149 492 173 465Z" />
<glyph unicode="%" glyph-name="percent" horiz-adv-x="944" d="M307 703T353 649T400 495Q400 396 354 342T223 287Q140 287 94 341T47 495Q47 594 93 648T223 703Q307 703 353 649ZM162 661T129 618T96 495Q96 415 129 372T223 329Q285 329 318 372T351 495Q351
575 318 618T223 661Q162 661 129 618ZM700 700H758L232 0H173L700 700ZM804 413T850 359T897 205Q897 106 851 52T720 -3Q637 -3 591 51T544 205Q544 304 590 358T720 413Q804 413 850 359ZM659 371T626 328T593 205Q593 125 626 82T720 39Q782 39 815 82T848
205Q848 285 815 328T720 371Q659 371 626 328Z" />
<glyph unicode="&amp;" glyph-name="ampersand" horiz-adv-x="645" d="M601 -9Q556 36 482 108Q434 54 378 26T263 -3Q207 -3 160 22T86 90T58 187Q58 256 100 301T220 387Q183 435 165 476T146 555Q146 597 167 630T226 683T314 702Q384 702 428 664T472 564Q472
520 448 486T389 429T296 374Q348 311 475 186Q516 247 549 326L596 292Q559 208 514 148L637 26L601 -9ZM202 496T266 411Q316 437 346 457T396 503T416 565Q416 606 388 631T314 657Q264 657 233 628T202 555Q202 496 266 411ZM359 50T444 146Q307 281 250 349Q186
313 151 278T116 191Q116 130 159 90T265 50Q359 50 444 146Z" />
<glyph unicode="&apos;" glyph-name="quotesingle" horiz-adv-x="174" d="M60 699H114V482H60V699Z" />
<glyph unicode="(" glyph-name="parenleft" horiz-adv-x="294" d="M211 657T181 546T151 309Q151 184 181 73T266 -124H204Q147 -40 117 71T87 309Q87 435 117 546T204 742H266Q211 657 181 546Z" />
<glyph unicode=")" glyph-name="parenright" horiz-adv-x="294" d="M90 742Q147 658 177 547T207 309Q207 183 177 72T90 -124H28Q83 -39 113 72T143 309Q143 434 113 545T28 742H90Z" />
<glyph unicode="*" glyph-name="asterisk" horiz-adv-x="323" d="M142 722H181V612L276 667L295 632L199 578L295 523L276 487L180 543L181 433H142L143 544L47 488L28 523L123 578L28 632L47 668L142 612V722Z" />
<glyph unicode="+" glyph-name="plus" horiz-adv-x="489" d="M452 347V298H268V115H221V298H38V347H221V529H268V347H452Z" />
<glyph unicode="," glyph-name="comma" horiz-adv-x="192" d="M116 82T128 70T141 37Q141 23 130 -1L80 -115H40L79 -2Q67 3 61 14T54 37Q54 56 66 69T98 82Q116 82 128 70Z" />
<glyph unicode="-" glyph-name="hyphen" horiz-adv-x="363" d="M65 327H297V278H65V327Z" />
<glyph unicode="." glyph-name="period" horiz-adv-x="194" d="M116 83T129 70T142 38Q142 19 129 6T97 -8Q78 -8 66 5T53 38Q53 57 65 70T97 83Q116 83 129 70Z" />
<glyph unicode="/" glyph-name="slash" horiz-adv-x="313" d="M303 821H363L51 -124H-9L303 821Z" />
<glyph unicode="0" glyph-name="zero" horiz-adv-x="715" d="M510 703T584 612T658 350Q658 180 584 88T371 -4Q233 -4 159 88T84 350Q84 520 158 611T371 703Q510 703 584 612ZM265 648T210 573T155 350Q155 203 210 128T371 52Q477 52 532 127T588 350Q588 497
533 572T371 648Q265 648 210 573Z" />
<glyph unicode="1" glyph-name="one" horiz-adv-x="362" d="M6 700H244V0H175V638H6V700Z" />
<glyph unicode="2" glyph-name="two" horiz-adv-x="570" d="M535 62V0H39V57L315 345Q363 395 391 442T419 525Q419 580 378 611T264 642Q214 642 161 620T65 557L34 608Q85 653 147 678T272 703Q372 703 431 657T491 534Q491 487 457 429T362 307L126 62H535Z" />
<glyph unicode="3" glyph-name="three" horiz-adv-x="580" d="M395 396T460 347T526 214Q526 150 494 101T400 24T258 -4Q194 -4 131 14T20 64L51 118Q93 89 146 72T254 55Q349 55 404 97T459 210Q459 280 405 316T252 353H162V398L400 638H53V700H490V654L240
402L284 400Q395 396 460 347Z" />
<glyph unicode="4" glyph-name="four" horiz-adv-x="584" d="M554 252V190H442V0H377V190H23V246L288 700H356L97 252H377V448H442V252H554Z" />
<glyph unicode="5" glyph-name="five" horiz-adv-x="612" d="M396 431T453 405T541 333T572 227Q572 158 541 106T451 25T315 -4Q255 -4 189 16T69 71L98 125Q145 93 201 75T309 57Q396 57 447 102T499 222Q499 290 448 329T306 369Q270 369 215 363T120 346V700H544V638H185V419Q215
424 253 427T320 431Q396 431 453 405Z" />
<glyph unicode="6" glyph-name="six" horiz-adv-x="640" d="M492 622T448 633T363 645Q255 645 196 566T137 348Q137 334 139 302Q162 371 218 408T357 446Q461 446 521 387T582 226Q582 120 518 58T344 -4Q215 -4 143 84T70 334Q70 445 105 528T205 657T358 703Q406
703 459 690T556 654L528 602Q492 622 448 633ZM289 390T246 367T180 305T157 221Q157 183 177 145T238 82T339 56Q419 56 468 102T517 228Q517 303 471 346T346 390Q289 390 246 367Z" />
<glyph unicode="7" glyph-name="seven" horiz-adv-x="563" d="M22 700H535V643L217 0H143L460 638H86L85 533H22V700Z" />
<glyph unicode="8" glyph-name="eight" horiz-adv-x="641" d="M425 703T484 657T543 529Q543 474 513 435T427 375Q498 354 537 308T577 196Q577 103 509 50T322 -4Q203 -4 135 49T66 194Q66 261 106 307T219 375Q162 396 131 436T99 531Q99 611 159 657T321 703Q425
703 484 657ZM245 651T202 618T159 525Q159 466 202 432T322 398Q398 398 440 432T483 525Q483 584 441 617T322 651Q245 651 202 618ZM232 343T182 306T131 202Q131 131 181 92T322 52Q411 52 461 91T512 201Q512 267 461 305T321 343Q232 343 182 306Z" />
<glyph unicode="9" glyph-name="nine" horiz-adv-x="637" d="M159 78T202 67T287 55Q394 55 452 134T511 353Q511 367 509 399Q486 330 430 292T293 254Q190 254 130 313T70 474Q70 580 134 641T306 703Q434 703 506 615T578 367Q578 256 543 172T444 42T292 -4Q245
-4 193 9T96 45L124 98Q159 78 202 67ZM232 643T184 598T135 473Q135 398 180 354T304 310Q361 310 403 333T468 395T491 479Q491 517 471 555T411 618T311 643Q232 643 184 598Z" />
<glyph unicode=":" glyph-name="colon" horiz-adv-x="194" d="M116 380T129 367T142 335Q142 316 129 303T97 289Q78 289 66 302T53 335Q53 354 65 367T97 380Q116 380 129 367ZM116 83T129 70T142 38Q142 19 129 6T97 -8Q78 -8 66 5T53 38Q53 57 65 70T97 83Q116
83 129 70Z" />
<glyph unicode=";" glyph-name="semicolon" horiz-adv-x="193" d="M116 380T129 367T142 335Q142 316 129 303T97 289Q78 289 66 302T53 335Q53 354 65 367T97 380Q116 380 129 367ZM116 82T128 70T141 37Q141 23 130 -1L80 -115H40L79 -2Q67 3 61 14T54 37Q54
56 66 69T98 82Q116 82 128 70Z" />
<glyph unicode="&lt;" glyph-name="less" horiz-adv-x="489" d="M452 544V490L86 327L452 164V110L38 295V358L452 544Z" />
<glyph unicode="=" glyph-name="equal" horiz-adv-x="489" d="M38 449H452V400H38V449ZM38 244H452V195H38V244Z" />
<glyph unicode="&gt;" glyph-name="greater" horiz-adv-x="489" d="M37 112V166L403 329L37 492V546L451 361V298L37 112Z" />
<glyph unicode="?" glyph-name="question" horiz-adv-x="419" d="M28 598T79 642T214 687Q298 687 349 646T401 528Q401 489 389 460T358 410T309 364Q266 328 244 297T222 216H168Q168 257 180 287T211 337T258 382Q286 407 301 423T326 464T337 520Q337 574
303 601T209 629Q150 629 116 600T79 515L24 517Q28 598 79 642ZM213 83T226 70T239 38Q239 19 226 6T194 -8Q175 -8 163 5T150 38Q150 57 162 70T194 83Q213 83 226 70Z" />
<glyph unicode="@" glyph-name="at" horiz-adv-x="990" d="M723 89T740 70T784 50Q815 50 840 77T880 152T895 264Q895 377 845 467T705 608T500 660Q387 660 294 609T148 467T95 265Q95 157 146 71T286 -64T487 -113Q532 -113 584 -99T673 -61L698 -107Q657 -133
598 -149T487 -165Q361 -165 260 -110T100 44T42 265Q42 391 102 493T266 653T500 711Q628 711 730 654T890 495T948 266Q948 187 927 128T867 37T777 4Q734 4 706 29T673 100L672 142Q642 84 589 53T469 21Q402 21 347 52T260 140T227 268Q227 338 257 395T341
484T464 517Q533 517 586 484T659 404V511H723V123Q723 89 740 70ZM423 456T383 432T319 365T296 270Q296 217 319 174T382 106T475 81Q528 81 569 105T633 173T656 270Q656 323 633 365T569 431T474 456Q423 456 383 432Z" />
<glyph unicode="A" glyph-name="A" horiz-adv-x="712" d="M632 0L549 186H161L79 0H5L320 699H392L707 0H632ZM188 248H522L354 626L188 248Z" />
<glyph unicode="B" glyph-name="B" horiz-adv-x="719" d="M508 700T567 654T627 525Q627 463 593 421T496 366Q573 356 616 309T659 190Q659 100 592 50T406 0H110V700H403Q508 700 567 654ZM474 391T515 423T556 516Q556 574 515 606T400 637H179V391H400Q474
391 515 423ZM490 62T539 97T589 197Q589 260 539 295T400 330H179V62H400Q490 62 539 97Z" />
<glyph unicode="C" glyph-name="C" horiz-adv-x="701" d="M576 598T521 621T407 644Q326 644 259 605T152 499T112 351Q112 271 151 204T258 98T407 58Q465 58 520 80T618 143L660 98Q608 50 541 22T404 -6Q305 -6 222 42T91 172T42 351Q42 448 91 529T223 657T406
705Q477 705 543 679T659 605L618 557Q576 598 521 621Z" />
<glyph unicode="D" glyph-name="D" horiz-adv-x="793" d="M491 699T573 653T703 527T751 349Q751 252 704 172T573 46T389 0H110V699H391Q491 699 573 653ZM472 62T538 100T642 203T681 349Q681 429 642 495T537 599T390 637H179V62H393Q472 62 538 100Z" />
<glyph unicode="E" glyph-name="E" horiz-adv-x="650" d="M110 699H578V637H179V387H536V325H179V62H591V0H110V699Z" />
<glyph unicode="F" glyph-name="F" horiz-adv-x="560" d="M110 699H548V637H179V368H508V306H179V0H110V699Z" />
<glyph unicode="G" glyph-name="G" horiz-adv-x="755" d="M601 342H662V86Q611 43 544 19T406 -6Q307 -6 224 42T91 172T42 351Q42 448 91 529T224 657T409 705Q480 705 546 680T664 610L624 561Q581 601 525 622T409 644Q328 644 260 605T152 498T112 351Q112
270 152 203T260 96T410 56Q460 56 509 72T601 119V342Z" />
<glyph unicode="H" glyph-name="H" horiz-adv-x="795" d="M110 699H179V379H616V699H685V0H616V317H179V0H110V699Z" />
<glyph unicode="I" glyph-name="I" horiz-adv-x="289" d="M110 699H179V0H110V699Z" />
<glyph unicode="J" glyph-name="J" horiz-adv-x="479" d="M386 106T335 52T191 -3Q135 -3 86 22T1 96L36 148Q68 107 108 86T190 64Q251 64 283 101T316 208V637H64V700H386V206Q386 106 335 52Z" />
<glyph unicode="K" glyph-name="K" horiz-adv-x="694" d="M671 0H586L321 340L179 186V0H110V700H179V274L567 700H651L370 394L671 0Z" />
<glyph unicode="L" glyph-name="L" horiz-adv-x="513" d="M110 699H179V62H487V0H110V699Z" />
<glyph unicode="M" glyph-name="M" horiz-adv-x="937" d="M110 700H196L470 175L741 700H827V0H763L762 604L488 75H450L175 604V0H110V700Z" />
<glyph unicode="N" glyph-name="N" horiz-adv-x="796" d="M617 699H685V0H612L179 592V0H110V699H183L617 107V699Z" />
<glyph unicode="O" glyph-name="O" horiz-adv-x="814" d="M507 705T590 658T723 529T772 351Q772 254 723 172T591 42T407 -6Q307 -6 224 42T91 172T42 351Q42 448 91 529T223 657T407 705Q507 705 590 658ZM328 643T260 604T152 498T112 351Q112 271 152 203T260
96T408 56Q487 56 554 95T662 203T702 351Q702 431 662 498T555 604T408 643Q328 643 260 604Z" />
<glyph unicode="P" glyph-name="P" horiz-adv-x="668" d="M498 699T569 639T640 467Q640 352 569 289T368 226H179V0H110V699H368Q498 699 569 639ZM465 288T519 333T574 465Q574 549 520 593T365 637H179V288H365Q465 288 519 333Z" />
<glyph unicode="Q" glyph-name="Q" horiz-adv-x="827" d="M813 -62Q773 -99 728 -119T638 -139Q524 -139 420 -6H407Q307 -6 224 42T91 172T42 351Q42 448 91 529T223 657T407 705Q507 705 590 658T723 529T772 351Q772 268 736 196T637 73T494 4Q575 -79 645
-79Q708 -79 782 -14L813 -62ZM112 271T152 203T260 96T408 56Q487 56 554 95T662 203T702 351Q702 431 662 498T555 604T408 643Q328 643 260 604T152 498T112 351Q112 271 152 203Z" />
<glyph unicode="R" glyph-name="R" horiz-adv-x="723" d="M571 0L420 228Q388 226 371 226H179V0H110V699H371Q502 699 573 639T645 467Q645 380 603 322T483 241L651 0H571ZM371 288Q471 288 525 333T579 465Q579 549 525 593T371 637H179V288H371Z" />
<glyph unicode="S" glyph-name="S" horiz-adv-x="608" d="M455 612T404 626T308 641Q236 641 193 613T149 535Q149 492 173 465T232 423T328 388Q399 367 442 347T516 287T547 184Q547 128 516 85T427 19T296 -5Q223 -5 154 24T34 101L66 158Q113 112 175 86T297
60Q377 60 424 92T471 180Q471 224 447 252T388 295T290 330Q219 352 176 371T103 429T73 530Q73 583 103 623T187 684T312 706Q369 706 426 689T528 644L498 585Q455 612 404 626Z" />
<glyph unicode="T" glyph-name="T" horiz-adv-x="553" d="M11 700H542V637H311V0H242V637H11V700Z" />
<glyph unicode="U" glyph-name="U" horiz-adv-x="767" d="M163 176T221 116T384 56Q488 56 546 116T604 284V700H673V284Q673 148 597 71T384 -6Q248 -6 171 71T94 284V700H163V284Q163 176 221 116Z" />
<glyph unicode="V" glyph-name="V" horiz-adv-x="658" d="M7 699H81L330 76L578 699H651L364 0H292L7 699Z" />
<glyph unicode="W" glyph-name="W" horiz-adv-x="1025" d="M946 700H1019L782 0H710L513 613L314 0H243L7 700H82L281 73L479 700H549L748 73L946 700Z" />
<glyph unicode="X" glyph-name="X" horiz-adv-x="658" d="M42 699H123L324 417L525 699H606L367 363L626 0H543L324 306L105 0H24L282 361L42 699Z" />
<glyph unicode="Y" glyph-name="Y" horiz-adv-x="622" d="M616 699L347 249V0H278V249L5 699H77L313 323L544 699H616Z" />
<glyph unicode="Z" glyph-name="Z" horiz-adv-x="658" d="M58 699H609V646L135 62H613V0H45V54L520 637H58V699Z" />
<glyph unicode="[" glyph-name="bracketleft" horiz-adv-x="307" d="M95 742H283V687H157V-69H283V-124H95V742Z" />
<glyph unicode="\" glyph-name="backslash" horiz-adv-x="313" d="M10 821L322 -124H262L-50 821H10Z" />
<glyph unicode="]" glyph-name="bracketright" horiz-adv-x="307" d="M212 742V-124H24V-69H150V687H24V742H212Z" />
<glyph unicode="^" glyph-name="asciicircum" horiz-adv-x="508" d="M471 129H417L254 480L91 129H37L222 527H285L471 129Z" />
<glyph unicode="_" glyph-name="underscore" horiz-adv-x="552" d="M0 -160H551V-204H0V-160Z" />
<glyph unicode="`" glyph-name="grave" horiz-adv-x="337" d="M145 747L262 624L202 617L76 717L145 747Z" />
<glyph unicode="a" glyph-name="a" horiz-adv-x="574" d="M427 0L426 88Q395 42 345 20T230 -3Q177 -3 137 17T74 74T52 155Q52 223 104 262T249 301H425V341Q425 403 388 437T280 471Q196 471 111 408L81 454Q134 491 182 508T292 526Q387 526 439 479T492 347L493
0H427ZM312 53T360 85T426 177V249H257Q188 249 152 226T116 157Q116 110 150 82T242 53Q312 53 360 85Z" />
<glyph unicode="b" glyph-name="b" horiz-adv-x="675" d="M452 526T509 493T599 399T631 261Q631 185 599 125T510 32T380 -2Q308 -2 254 30T170 121V0H103V742H170V403Q199 461 253 493T379 526Q452 526 509 493ZM423 56T468 82T538 156T563 263Q563 322 538
369T468 442T367 469Q310 469 266 443T196 369T170 263Q170 203 195 156T265 83T367 56Q423 56 468 82Z" />
<glyph unicode="c" glyph-name="c" horiz-adv-x="561" d="M399 467T306 467Q250 467 205 441T135 369T110 262Q110 202 135 155T205 82T306 56Q357 56 399 74T471 126L509 86Q474 44 421 21T303 -2Q228 -2 169 31T77 125T43 262Q43 338 76 398T169 492T303 526Q364
526 414 506T501 450L463 405Q399 467 306 467Z" />
<glyph unicode="d" glyph-name="d" horiz-adv-x="678" d="M575 742V0H508V120Q478 61 424 29T298 -4Q224 -4 166 30T76 125T44 263Q44 340 76 400T166 494T297 528Q369 528 423 495T508 403V742H575ZM367 54T412 80T482 154T508 261Q508 321 483 368T412 443T310
470Q253 470 208 443T137 369T111 261Q111 201 136 154T207 81T310 54Q367 54 412 80Z" />
<glyph unicode="e" glyph-name="e" horiz-adv-x="589" d="M424 526T488 449T547 240H110Q117 156 172 105T308 53Q358 53 401 71T475 122L513 84Q475 43 422 21T304 -2Q228 -2 169 31T77 125T43 262Q43 338 76 398T169 492T302 526Q424 526 488 449ZM487 292Q482
374 433 422T303 471Q224 471 171 422T110 292H487Z" />
<glyph unicode="f" glyph-name="f" horiz-adv-x="325" d="M236 690T208 661T179 584V510H333V457H179V0H112V457H45V510H112V576Q112 628 134 667T193 728T273 749Q322 749 365 725L348 671Q312 690 278 690Q236 690 208 661Z" />
<glyph unicode="g" glyph-name="g" horiz-adv-x="635" d="M551 524V55Q551 -21 519 -78T428 -165T290 -196Q174 -196 75 -116L107 -68Q147 -103 191 -121T287 -139Q377 -139 430 -87T484 54V139Q456 84 404 53T284 22Q214 22 160 54T75 144T44 275Q44 348 74 405T160
494T285 526Q353 526 404 496T484 409V524H551ZM350 76T393 101T460 172T484 273Q484 330 460 375T393 445T296 471Q242 471 199 446T132 375T107 273Q107 216 131 172T198 102T296 76Q350 76 393 101Z" />
<glyph unicode="h" glyph-name="h" horiz-adv-x="660" d="M472 526T525 472T579 322V0H511V306Q511 380 470 422T356 464Q269 463 220 407T170 257V0H103V742H170V400Q223 524 378 526Q472 526 525 472Z" />
<glyph unicode="i" glyph-name="i" horiz-adv-x="262" d="M98 524H165V0H98V524ZM152 722T165 709T178 675Q178 655 165 641T132 627Q112 627 99 641T85 675Q85 695 98 708T132 722Q152 722 165 709Z" />
<glyph unicode="j" glyph-name="j" horiz-adv-x="247" d="M-14 -138T11 -139Q52 -140 73 -110T95 -20V524H162V-28Q162 -109 127 -152T25 -196Q-15 -196 -57 -179L-41 -128Q-14 -138 11 -139ZM149 722T162 709T175 675Q175 655 162 641T129 627Q109 627 96 641T82
675Q82 695 95 708T129 722Q149 722 162 709Z" />
<glyph unicode="k" glyph-name="k" horiz-adv-x="567" d="M474 0L288 273L170 152V0H103V742H170V238L452 524H532L335 321L555 0H474Z" />
<glyph unicode="l" glyph-name="l" horiz-adv-x="273" d="M103 742H170V0H103V742Z" />
<glyph unicode="m" glyph-name="m" horiz-adv-x="1045" d="M860 526T912 472T964 322V0H896V306Q896 381 856 422T744 464Q660 462 613 406T565 258V0H497V306Q497 381 457 422T345 464Q261 462 213 406T165 258V0H98V524H165V401Q191 463 242 494T368 526Q443
526 492 489T558 385Q582 455 635 490T767 526Q860 526 912 472Z" />
<glyph unicode="n" glyph-name="n" horiz-adv-x="654" d="M466 526T519 472T573 322V0H505V306Q505 380 464 422T350 464Q269 463 221 414T165 282V0H98V524H165V402Q192 463 244 494T372 526Q466 526 519 472Z" />
<glyph unicode="o" glyph-name="o" horiz-adv-x="616" d="M384 526T444 493T538 399T572 263Q572 186 538 126T444 32T308 -2Q232 -2 172 31T78 125T44 263Q44 339 78 399T172 492T308 526Q384 526 444 493ZM251 468T206 442T136 369T111 262Q111 201 136 154T206
81T308 55Q365 55 410 81T480 154T505 262Q505 322 480 369T410 442T308 468Q251 468 206 442Z" />
<glyph unicode="p" glyph-name="p" horiz-adv-x="675" d="M452 526T509 493T599 399T631 261Q631 185 599 125T510 32T380 -2Q308 -2 254 30T170 121V-194H103V524H170V403Q199 461 253 493T379 526Q452 526 509 493ZM423 56T468 82T538 156T563 263Q563 322 538
369T468 442T367 469Q310 469 266 443T196 369T170 263Q170 203 195 156T265 83T367 56Q423 56 468 82Z" />
<glyph unicode="q" glyph-name="q" horiz-adv-x="678" d="M575 524V-194H508V120Q478 61 424 29T298 -4Q224 -4 166 30T76 125T44 263Q44 340 76 400T166 494T297 528Q369 528 423 495T508 403V524H575ZM367 54T412 80T482 154T508 261Q508 321 483 368T412 443T310
470Q253 470 208 443T137 369T111 261Q111 201 136 154T207 81T310 54Q367 54 412 80Z" />
<glyph unicode="r" glyph-name="r" horiz-adv-x="366" d="M191 462T239 493T356 526V463Q273 464 223 415T165 280V0H98V524H165V402Q191 462 239 493Z" />
<glyph unicode="s" glyph-name="s" horiz-adv-x="449" d="M339 450T302 460T229 471Q179 471 149 452T118 393Q118 366 134 349T175 322T244 298Q298 282 332 267T390 222T414 144Q414 73 360 36T225 -2Q168 -2 115 17T26 71L53 119Q87 88 133 70T228 52Q281 52
314 74T348 138Q348 167 331 185T289 214T218 239Q165 255 132 270T76 313T53 388Q53 457 104 492T233 527Q278 527 320 515T395 482L369 431Q339 450 302 460Z" />
<glyph unicode="t" glyph-name="t" horiz-adv-x="385" d="M362 36Q308 -1 246 -3Q186 -3 151 34T116 145V457H41L40 509H116V644H183V509L353 510V457H183V156Q183 59 255 59Q295 59 342 87L362 36Z" />
<glyph unicode="u" glyph-name="u" horiz-adv-x="645" d="M548 524V0H480V125Q454 63 403 31T278 -2Q185 -2 133 52T80 202V524H148V218Q148 144 188 103T300 61Q384 62 432 118T480 267V524H548Z" />
<glyph unicode="v" glyph-name="v" horiz-adv-x="491" d="M5 524H77L251 67L423 524H493L285 0H214L5 524Z" />
<glyph unicode="w" glyph-name="w" horiz-adv-x="856" d="M5 524H77L238 67L397 524H468L628 67L788 524H858L662 0H592L432 443L272 0H202L5 524Z" />
<glyph unicode="x" glyph-name="x" horiz-adv-x="522" d="M37 524H115L261 316L408 524H483L305 270L496 0H417L260 224L99 0H23L216 270L37 524Z" />
<glyph unicode="y" glyph-name="y" horiz-adv-x="494" d="M230 -135T191 -166T100 -197Q39 -197 -8 -161L22 -109Q57 -133 97 -133Q129 -133 155 -112T198 -51L220 3L3 524H74L254 74L427 524H496L254 -75Q230 -135 191 -166Z" />
<glyph unicode="z" glyph-name="z" horiz-adv-x="524" d="M63 524L472 523V473L134 56L479 55V-1L53 0V51L391 468L63 469V524Z" />
<glyph unicode="{" glyph-name="braceleft" horiz-adv-x="331" d="M196 375T189 359T170 333T132 308Q158 292 170 283T189 258T196 213V5Q196 -35 219 -53T297 -71V-126H273Q200 -126 167 -99T134 -11V217Q134 250 122 265T85 280H60V336H85Q134 336 134 399V628Q134
689 167 716T273 743H297V688Q243 688 220 670T196 611V403Q196 375 189 359Z" />
<glyph unicode="|" glyph-name="bar" horiz-adv-x="245" d="M95 817H149V-123H95V817Z" />
<glyph unicode="}" glyph-name="braceright" horiz-adv-x="331" d="M271 336V280H246Q221 280 209 265T197 217V-11Q197 -72 164 -99T58 -126H34V-71Q88 -71 111 -53T135 5V213Q135 241 142 257T161 283T199 308Q173 323 161 333T142 359T135 403V611Q135 651
112 669T34 688V743H58Q131 743 164 716T197 628V399Q197 336 246 336H271Z" />
<glyph unicode="~" glyph-name="asciitilde" horiz-adv-x="489" d="M415 316T394 288T332 259Q308 259 286 268T236 295Q214 309 199 316T169 323Q147 323 136 309T124 268H75Q75 321 96 349T158 377Q180 377 201 368T251 342Q275 328 291 321T321 313Q343 313
354 327T366 369H415Q415 316 394 288Z" />
<glyph unicode="&#xa0;" glyph-name="uni00A0" horiz-adv-x="275" />
<glyph unicode="&#xa1;" glyph-name="exclamdown" horiz-adv-x="201" d="M89 440T76 453T63 485Q63 504 76 517T108 531Q127 531 139 518T152 485Q152 466 140 453T108 440Q89 440 76 453ZM140 -164H75V4L85 318H131L140 4V-164Z" />
<glyph unicode="&#xa2;" glyph-name="cent" horiz-adv-x="600" d="M478 48T433 26T332 -1V-140H278V-1Q210 4 157 39T73 132T43 262Q43 334 73 392T156 485T278 525V669H332V525Q383 521 426 502T501 450L463 405Q399 467 306 467Q250 467 205 441T135 369T110
262Q110 202 135 155T205 82T306 56Q357 56 399 74T471 126L509 86Q478 48 433 26Z" />
<glyph unicode="&#xa3;" glyph-name="sterling" horiz-adv-x="540" d="M202 57H500V0H45V57H133V326H45V367H133V493Q133 594 183 648T326 702Q380 702 428 678T512 608L481 556Q450 597 412 618T332 640Q269 640 236 602T202 492V367H386V326H202V57Z" />
<glyph unicode="&#xa4;" glyph-name="currency" horiz-adv-x="719" d="M635 270T618 227T570 148L675 42L635 1L528 108Q493 81 450 67T359 52Q312 52 269 67T191 109L83 1L43 42L148 148Q118 183 102 227T85 318Q85 365 101 408T147 488L43 593L83 634L189 528Q225
556 268 571T359 586Q454 586 530 528L635 634L675 593L572 489Q602 453 618 410T635 318Q635 270 618 227ZM141 261T170 213T250 137T359 109Q419 109 469 137T550 213T580 318Q580 375 550 423T470 500T359 529Q300 529 250 501T171 424T141 318Q141 261 170
213Z" />
<glyph unicode="&#xa5;" glyph-name="yen" horiz-adv-x="621" d="M616 700L370 288H557V247H347V173H557V132H347V0H278V132H68V173H278V247H68V288H254L5 700H77L312 323L544 700H616Z" />
<glyph unicode="&#xa6;" glyph-name="brokenbar" horiz-adv-x="245" d="M95 817H149V468H95V817ZM95 227H149V-123H95V227Z" />
<glyph unicode="&#xa7;" glyph-name="section" horiz-adv-x="465" d="M317 645T243 645Q188 645 155 624T122 564Q122 535 140 516T185 485T260 459Q315 442 349 427T407 383T431 310Q431 261 397 225T316 179Q369 159 394 130T419 58Q419 -5 366 -44T229 -83Q171
-83 118 -63T26 -8L50 35Q88 2 133 -15T227 -33Q283 -33 320 -8T358 57Q358 86 340 105T296 135T222 161Q166 179 133 194T75 238T51 311Q51 361 86 393T185 435Q119 458 91 487T62 561Q62 621 112 657T243 694Q333 694 407 648L383 605Q317 645 243 645ZM177 397T144
376T110 318Q110 290 130 267T183 229T255 215Q306 215 338 240T370 304Q370 346 333 371T234 397Q177 397 144 376Z" />
<glyph unicode="&#xa8;" glyph-name="dieresis" horiz-adv-x="329" d="M112 718T124 706T137 674Q137 656 125 643T94 630Q76 630 64 643T51 674Q51 693 63 705T94 718Q112 718 124 706ZM276 718T288 706T301 674Q301 656 289 643T258 630Q240 630 228 643T215
674Q215 693 227 705T258 718Q276 718 288 706Z" />
<glyph unicode="&#xa9;" glyph-name="copyright" horiz-adv-x="761" d="M474 689T551 644T674 520T719 350Q719 259 674 181T551 56T379 9Q286 9 209 55T87 179T42 348Q42 439 87 517T209 642T381 689Q474 689 551 644ZM298 650T229 609T121 499T81 348Q81 266
120 198T228 89T379 48Q463 48 532 89T641 199T681 350Q681 432 642 500T533 609T381 650Q298 650 229 609ZM470 468T443 479T386 490Q347 490 314 471T262 420T242 350Q242 311 261 279T314 227T386 208Q415 208 442 219T491 249L515 224Q489 199 455 185T384
171Q334 171 293 195T227 259T202 349Q202 397 226 438T293 502T386 526Q421 526 455 513T515 475L491 447Q470 468 443 479Z" />
<glyph unicode="&#xaa;" glyph-name="ordfeminine" horiz-adv-x="379" d="M269 458V515Q231 456 147 456Q99 456 71 481T42 548Q42 588 74 610T163 632H269V656Q268 690 246 709T182 728Q131 728 74 693L59 728Q128 768 193 768Q253 768 286 740T318 661L319 458H269ZM240
492T269 556V604H172Q133 604 112 590T90 551Q90 525 110 509T163 492Q240 492 269 556Z" />
<glyph unicode="&#xab;" glyph-name="guillemotleft" horiz-adv-x="419" d="M153 418H213L106 253L213 90H153L41 253L153 418ZM300 418H360L253 253L360 90H300L188 253L300 418Z" />
<glyph unicode="&#xac;" glyph-name="logicalnot" horiz-adv-x="548" d="M463 381V153H411V333H38V381H463Z" />
<glyph unicode="&#xad;" glyph-name="uni00AD" horiz-adv-x="363" d="M65 327H297V278H65V327Z" />
<glyph unicode="&#xae;" glyph-name="registered" horiz-adv-x="761" d="M474 689T551 644T674 520T719 350Q719 259 674 181T551 56T379 9Q286 9 209 55T87 179T42 348Q42 439 87 517T209 642T381 689Q474 689 551 644ZM463 48T532 89T641 199T681 350Q681 432
642 500T533 609T381 650Q298 650 229 609T121 499T81 348Q81 266 120 198T228 89T379 48Q463 48 532 89ZM527 373T506 343T445 301L532 178H486L409 294Q402 293 386 293H291V178H253V536H386Q454 536 490 505T527 417Q527 373 506 343ZM386 327Q436 327 463 350T490
416Q490 458 463 480T386 502H291V327H386Z" />
<glyph unicode="&#xaf;" glyph-name="overscore" horiz-adv-x="350" d="M38 697H314V651H38V697Z" />
<glyph unicode="&#xb0;" glyph-name="degree" horiz-adv-x="323" d="M239 803T273 770T307 691Q307 645 273 613T192 580Q146 580 112 613T78 691Q78 720 93 746T135 787T192 803Q239 803 273 770ZM160 768T137 745T113 691Q113 660 136 638T192 615Q225 615 249
637T273 691Q273 722 249 745T192 768Q160 768 137 745Z" />
<glyph unicode="&#xb1;" glyph-name="plusminus" horiz-adv-x="489" d="M268 404H452V356H268V175H221V356H38V404H221V584H268V404ZM38 38V87H452V38H38Z" />
<glyph unicode="&#xb2;" glyph-name="uni00B2" horiz-adv-x="341" d="M238 625T238 665Q238 695 216 712T156 730Q128 730 96 716T39 678L16 716Q48 743 86 758T163 774Q221 774 256 746T292 671Q292 613 215 538L86 402H316V360H21V398L180 565Q238 625 238 665Z" />
<glyph unicode="&#xb3;" glyph-name="uni00B3" horiz-adv-x="340" d="M234 592T268 563T303 483Q303 426 262 391T153 355Q116 355 80 366T17 396L40 437Q63 417 91 407T150 396Q197 396 224 420T252 483Q252 521 225 541T149 561H95V591L222 728H36V768H283V736L153
596L176 595Q234 592 268 563Z" />
<glyph unicode="&#xb4;" glyph-name="acute" horiz-adv-x="350" d="M203 747L272 717L146 617L86 624L203 747Z" />
<glyph unicode="&#xb5;" glyph-name="uni00B5" horiz-adv-x="668" d="M571 524V0H503V125Q477 63 426 31T301 -2Q222 -2 171 38V-194H103V524H171V218Q171 144 211 103T323 61Q407 62 455 118T503 267V524H571Z" />
<glyph unicode="&#xb6;" glyph-name="paragraph" horiz-adv-x="586" d="M188 387T178 387Q114 387 75 414T19 481T3 561Q3 638 55 690T214 742H476V-110H422V697H266V-110H212V389Q188 387 178 387Z" />
<glyph unicode="&#xb7;" glyph-name="middot" horiz-adv-x="198" d="M120 324T133 311T146 277Q146 257 133 243T100 229Q80 229 67 243T53 277Q53 297 66 310T100 324Q120 324 133 311Z" />
<glyph unicode="&#xb8;" glyph-name="cedilla" horiz-adv-x="274" d="M185 0L168 -53Q208 -57 228 -79T249 -130Q249 -168 221 -192T146 -216Q125 -216 102 -210T61 -194L77 -151Q90 -158 107 -162T139 -167Q165 -167 179 -154T194 -124Q194 -108 180 -97T140
-85H110L138 7L185 0Z" />
<glyph unicode="&#xb9;" glyph-name="uni00B9" horiz-adv-x="223" d="M8 770H146V360H94V727H8V770Z" />
<glyph unicode="&#xba;" glyph-name="ordmasculine" horiz-adv-x="402" d="M272 768T318 725T364 612Q364 543 319 500T201 457Q128 457 83 500T37 612Q37 681 82 724T201 768Q272 768 318 725ZM151 726T120 695T88 612Q88 561 119 529T201 497Q250 497 281 529T312
612Q312 663 281 694T201 726Q151 726 120 695Z" />
<glyph unicode="&#xbb;" glyph-name="guillemotright" horiz-adv-x="425" d="M119 90H59L166 255L59 418H119L231 255L119 90ZM266 90H206L313 255L206 418H266L378 255L266 90Z" />
<glyph unicode="&#xbc;" glyph-name="onequarter" horiz-adv-x="700" d="M8 700H146V290H94V657H8V700ZM538 700H596L70 0H11L538 700ZM523 410H574L425 147H576V261H626V147H689V108H626V0H576V108H373V147L523 410Z" />
<glyph unicode="&#xbd;" glyph-name="onehalf" horiz-adv-x="721" d="M263 700H401V290H349V657H263V700ZM538 700H596L70 0H11L538 700ZM617 265T617 305Q617 335 595 352T535 370Q507 370 475 356T418 318L395 356Q427 383 465 398T542 414Q600 414 635 386T671
311Q671 253 594 178L465 42H695V0H400V38L559 205Q617 265 617 305Z" />
<glyph unicode="&#xbe;" glyph-name="threequarters" horiz-adv-x="786" d="M234 523T268 494T303 414Q303 357 262 322T153 286Q116 286 80 297T17 327L40 368Q63 348 91 338T150 327Q197 327 224 351T252 414Q252 452 225 472T149 492H95V522L222 659H36V699H283V667L153
527L176 526Q234 523 268 494ZM625 700H683L157 0H98L625 700ZM610 410H661L512 147H663V261H713V147H776V108H713V0H663V108H460V147L610 410Z" />
<glyph unicode="&#xbf;" glyph-name="questiondown" horiz-adv-x="419" d="M206 440T193 453T180 485Q180 504 193 517T225 531Q244 531 256 518T269 485Q269 466 257 453T225 440Q206 440 193 453ZM391 -75T340 -119T205 -164Q121 -164 70 -123T18 -5Q18 34 30
63T61 113T110 159Q153 195 175 226T197 307H251Q251 266 239 236T208 186T161 141Q133 116 118 100T93 59T82 3Q82 -51 116 -78T210 -106Q269 -106 303 -77T340 8L395 6Q391 -75 340 -119Z" />
<glyph unicode="&#xc0;" glyph-name="Agrave" horiz-adv-x="712" d="M632 0L549 186H161L79 0H5L320 699H392L707 0H632ZM188 248H522L354 626L188 248ZM287 896L404 773L344 766L218 866L287 896Z" />
<glyph unicode="&#xc1;" glyph-name="Aacute" horiz-adv-x="712" d="M632 0L549 186H161L79 0H5L320 699H392L707 0H632ZM188 248H522L354 626L188 248ZM430 896L499 866L373 766L313 773L430 896Z" />
<glyph unicode="&#xc2;" glyph-name="Acircumflex" horiz-adv-x="712" d="M632 0L549 186H161L79 0H5L320 699H392L707 0H632ZM188 248H522L354 626L188 248ZM496 768H427L357 844L286 768H217L320 893H394L496 768Z" />
<glyph unicode="&#xc3;" glyph-name="Atilde" horiz-adv-x="712" d="M632 0L549 186H161L79 0H5L320 699H392L707 0H632ZM188 248H522L354 626L188 248ZM503 827T484 797T425 767Q404 767 388 775T349 799Q329 813 319 818T296 824Q277 824 268 810T258 771H209Q209
818 228 848T287 878Q308 878 325 870T363 845Q383 831 393 826T416 820Q454 820 454 874H503Q503 827 484 797Z" />
<glyph unicode="&#xc4;" glyph-name="Adieresis" horiz-adv-x="712" d="M632 0L549 186H161L79 0H5L320 699H392L707 0H632ZM188 248H522L354 626L188 248ZM293 854T305 842T318 810Q318 792 306 779T275 766Q256 766 244 779T231 810Q231 829 243 841T275 854Q293
854 305 842ZM458 854T470 842T483 810Q483 792 471 779T440 766Q421 766 409 779T396 810Q396 829 408 841T440 854Q458 854 470 842Z" />
<glyph unicode="&#xc5;" glyph-name="Aring" horiz-adv-x="712" d="M632 0L549 186H161L79 0H5L320 699H392L707 0H632ZM188 248H522L354 626L188 248ZM397 952T426 923T456 853Q456 813 427 784T356 755Q315 755 286 784T256 853Q256 893 285 922T356 952Q397
952 426 923ZM330 913T312 896T294 853Q294 829 312 812T356 794Q381 794 399 811T418 853Q418 878 400 895T356 913Q330 913 312 896Z" />
<glyph unicode="&#xc6;" glyph-name="AE" horiz-adv-x="1019" d="M548 62H961V0H480V199H195L79 0H5L419 699H480V700H948V637H548V387H905V325H548V62ZM227 254H480V642H453L227 254Z" />
<glyph unicode="&#xc7;" glyph-name="Ccedilla" horiz-adv-x="701" d="M447 -57T467 -79T488 -130Q488 -168 460 -192T385 -216Q364 -216 341 -210T300 -194L316 -151Q329 -158 346 -162T378 -167Q404 -167 418 -154T433 -124Q433 -108 419 -97T379 -85H349L373
-5Q281 2 206 51T86 180T42 351Q42 448 91 529T223 657T406 705Q477 705 543 679T659 605L618 557Q576 598 521 621T407 644Q326 644 259 605T152 499T112 351Q112 271 151 204T258 98T407 58Q465 58 520 80T618 143L660 98Q611 53 549 26T422 -5L407 -53Q447 -57
467 -79Z" />
<glyph unicode="&#xc8;" glyph-name="Egrave" horiz-adv-x="650" d="M110 699H578V637H179V387H536V325H179V62H591V0H110V699ZM282 897L399 774L339 767L213 867L282 897Z" />
<glyph unicode="&#xc9;" glyph-name="Eacute" horiz-adv-x="650" d="M110 699H578V637H179V387H536V325H179V62H591V0H110V699ZM425 897L494 867L368 767L308 774L425 897Z" />
<glyph unicode="&#xca;" glyph-name="Ecircumflex" horiz-adv-x="650" d="M110 699H578V637H179V387H536V325H179V62H591V0H110V699ZM491 769H422L352 845L281 769H212L315 894H389L491 769Z" />
<glyph unicode="&#xcb;" glyph-name="Edieresis" horiz-adv-x="650" d="M110 699H578V637H179V387H536V325H179V62H591V0H110V699ZM288 855T300 843T313 811Q313 793 301 780T270 767Q251 767 239 780T226 811Q226 830 238 842T270 855Q288 855 300 843ZM453 855T465
843T478 811Q478 793 466 780T435 767Q416 767 404 780T391 811Q391 830 403 842T435 855Q453 855 465 843Z" />
<glyph unicode="&#xcc;" glyph-name="Igrave" horiz-adv-x="289" d="M110 699H179V0H110V699ZM74 896L191 773L131 766L5 866L74 896Z" />
<glyph unicode="&#xcd;" glyph-name="Iacute" horiz-adv-x="289" d="M110 699H179V0H110V699ZM218 896L287 866L161 766L101 773L218 896Z" />
<glyph unicode="&#xce;" glyph-name="Icircumflex" horiz-adv-x="289" d="M110 699H179V0H110V699ZM284 768H215L145 844L74 768H5L108 893H182L284 768Z" />
<glyph unicode="&#xcf;" glyph-name="Idieresis" horiz-adv-x="289" d="M110 699H179V0H110V699ZM80 854T92 842T105 810Q105 792 93 779T62 766Q43 766 31 779T18 810Q18 829 30 841T62 854Q80 854 92 842ZM245 854T257 842T270 810Q270 792 258 779T227 766Q208
766 196 779T183 810Q183 829 195 841T227 854Q245 854 257 842Z" />
<glyph unicode="&#xd0;" glyph-name="Eth" horiz-adv-x="793" d="M491 700T573 654T703 527T751 350Q751 252 704 172T574 46T390 0H110V328H39V372H110V700H391Q491 700 573 654ZM472 62T538 100T643 203T682 349Q682 429 643 495T537 599T390 637H179V372H420V328H179V62H393Q472
62 538 100Z" />
<glyph unicode="&#xd1;" glyph-name="Ntilde" horiz-adv-x="796" d="M617 699H685V0H612L179 592V0H110V699H183L617 107V699ZM558 828T539 798T480 768Q459 768 443 776T404 800Q384 814 374 819T351 825Q332 825 323 811T313 772H264Q264 819 283 849T342 879Q363
879 380 871T418 846Q438 832 448 827T471 821Q509 821 509 875H558Q558 828 539 798Z" />
<glyph unicode="&#xd2;" glyph-name="Ograve" horiz-adv-x="814" d="M507 705T590 658T723 529T772 351Q772 254 723 172T591 42T407 -6Q307 -6 224 42T91 172T42 351Q42 448 91 529T223 657T407 705Q507 705 590 658ZM328 643T260 604T152 498T112 351Q112 271
152 203T260 96T408 56Q487 56 554 95T662 203T702 351Q702 431 662 498T555 604T408 643Q328 643 260 604ZM338 897L455 774L395 767L269 867L338 897Z" />
<glyph unicode="&#xd3;" glyph-name="Oacute" horiz-adv-x="814" d="M507 705T590 658T723 529T772 351Q772 254 723 172T591 42T407 -6Q307 -6 224 42T91 172T42 351Q42 448 91 529T223 657T407 705Q507 705 590 658ZM328 643T260 604T152 498T112 351Q112 271
152 203T260 96T408 56Q487 56 554 95T662 203T702 351Q702 431 662 498T555 604T408 643Q328 643 260 604ZM481 897L550 867L424 767L364 774L481 897Z" />
<glyph unicode="&#xd4;" glyph-name="Ocircumflex" horiz-adv-x="814" d="M507 705T590 658T723 529T772 351Q772 254 723 172T591 42T407 -6Q307 -6 224 42T91 172T42 351Q42 448 91 529T223 657T407 705Q507 705 590 658ZM328 643T260 604T152 498T112 351Q112
271 152 203T260 96T408 56Q487 56 554 95T662 203T702 351Q702 431 662 498T555 604T408 643Q328 643 260 604ZM547 769H478L408 845L337 769H268L371 894H445L547 769Z" />
<glyph unicode="&#xd5;" glyph-name="Otilde" horiz-adv-x="814" d="M507 705T590 658T723 529T772 351Q772 254 723 172T591 42T407 -6Q307 -6 224 42T91 172T42 351Q42 448 91 529T223 657T407 705Q507 705 590 658ZM328 643T260 604T152 498T112 351Q112 271
152 203T260 96T408 56Q487 56 554 95T662 203T702 351Q702 431 662 498T555 604T408 643Q328 643 260 604ZM554 828T535 798T476 768Q455 768 439 776T400 800Q380 814 370 819T347 825Q328 825 319 811T309 772H260Q260 819 279 849T338 879Q359 879 376 871T414
846Q434 832 444 827T467 821Q505 821 505 875H554Q554 828 535 798Z" />
<glyph unicode="&#xd6;" glyph-name="Odieresis" horiz-adv-x="814" d="M507 705T590 658T723 529T772 351Q772 254 723 172T591 42T407 -6Q307 -6 224 42T91 172T42 351Q42 448 91 529T223 657T407 705Q507 705 590 658ZM328 643T260 604T152 498T112 351Q112
271 152 203T260 96T408 56Q487 56 554 95T662 203T702 351Q702 431 662 498T555 604T408 643Q328 643 260 604ZM344 855T356 843T369 811Q369 793 357 780T326 767Q307 767 295 780T282 811Q282 830 294 842T326 855Q344 855 356 843ZM509 855T521 843T534 811Q534
793 522 780T491 767Q472 767 460 780T447 811Q447 830 459 842T491 855Q509 855 521 843Z" />
<glyph unicode="&#xd7;" glyph-name="multiply" horiz-adv-x="489" d="M407 451L278 322L407 193L374 159L245 289L115 159L82 193L211 322L82 451L115 486L245 356L374 486L407 451Z" />
<glyph unicode="&#xd8;" glyph-name="Oslash" horiz-adv-x="814" d="M698 578T735 506T772 350Q772 254 723 173T591 45T407 -3Q307 -3 223 45L153 -55H93L182 71Q116 121 79 193T42 350Q42 446 91 526T223 654T407 701Q507 701 590 654L661 755H722L632 627Q698
578 735 506ZM112 284T141 225T220 126L553 601Q485 639 408 639Q328 639 260 601T152 496T112 350Q112 284 141 225ZM487 59T554 98T662 204T702 350Q702 417 673 475T594 573L260 98Q329 59 408 59Q487 59 554 98Z" />
<glyph unicode="&#xd9;" glyph-name="Ugrave" horiz-adv-x="767" d="M163 176T221 116T384 56Q488 56 546 116T604 284V700H673V284Q673 148 597 71T384 -6Q248 -6 171 71T94 284V700H163V284Q163 176 221 116ZM315 897L432 774L372 767L246 867L315 897Z" />
<glyph unicode="&#xda;" glyph-name="Uacute" horiz-adv-x="767" d="M163 176T221 116T384 56Q488 56 546 116T604 284V700H673V284Q673 148 597 71T384 -6Q248 -6 171 71T94 284V700H163V284Q163 176 221 116ZM458 897L527 867L401 767L341 774L458 897Z" />
<glyph unicode="&#xdb;" glyph-name="Ucircumflex" horiz-adv-x="767" d="M163 176T221 116T384 56Q488 56 546 116T604 284V700H673V284Q673 148 597 71T384 -6Q248 -6 171 71T94 284V700H163V284Q163 176 221 116ZM524 769H455L385 845L314 769H245L348 894H422L524
769Z" />
<glyph unicode="&#xdc;" glyph-name="Udieresis" horiz-adv-x="767" d="M163 176T221 116T384 56Q488 56 546 116T604 284V700H673V284Q673 148 597 71T384 -6Q248 -6 171 71T94 284V700H163V284Q163 176 221 116ZM321 855T333 843T346 811Q346 793 334 780T303
767Q284 767 272 780T259 811Q259 830 271 842T303 855Q321 855 333 843ZM486 855T498 843T511 811Q511 793 499 780T468 767Q449 767 437 780T424 811Q424 830 436 842T468 855Q486 855 498 843Z" />
<glyph unicode="&#xdd;" glyph-name="Yacute" horiz-adv-x="622" d="M616 699L347 249V0H278V249L5 699H77L313 323L544 699H616ZM385 896L454 866L328 766L268 773L385 896Z" />
<glyph unicode="&#xde;" glyph-name="Thorn" horiz-adv-x="670" d="M492 594T567 537T643 367Q643 252 567 192T346 132H179V0H110V699H179V594H346Q492 594 567 537ZM572 190T572 365Q572 536 344 536H179V190H344Q572 190 572 365Z" />
<glyph unicode="&#xdf;" glyph-name="germandbls" horiz-adv-x="647" d="M94 567T123 624T206 713T332 745Q396 745 445 722T522 656T549 557Q549 493 513 445T417 379Q494 367 540 321T587 204Q587 144 556 98T469 26T337 0H284V53H341Q422 53 471 94T521 202Q521
269 468 307T324 346H315V399Q392 399 438 440T484 549Q484 613 442 651T331 689Q253 689 207 637T161 495V0H94V491Q94 567 123 624Z" />
<glyph unicode="&#xe0;" glyph-name="agrave" horiz-adv-x="574" d="M427 0L426 88Q395 42 345 20T230 -3Q177 -3 137 17T74 74T52 155Q52 223 104 262T249 301H425V341Q425 403 388 437T280 471Q196 471 111 408L81 454Q134 491 182 508T292 526Q387 526 439
479T492 347L493 0H427ZM312 53T360 85T426 177V249H257Q188 249 152 226T116 157Q116 110 150 82T242 53Q312 53 360 85ZM214 747L331 624L271 617L145 717L214 747Z" />
<glyph unicode="&#xe1;" glyph-name="aacute" horiz-adv-x="574" d="M427 0L426 88Q395 42 345 20T230 -3Q177 -3 137 17T74 74T52 155Q52 223 104 262T249 301H425V341Q425 403 388 437T280 471Q196 471 111 408L81 454Q134 491 182 508T292 526Q387 526 439
479T492 347L493 0H427ZM312 53T360 85T426 177V249H257Q188 249 152 226T116 157Q116 110 150 82T242 53Q312 53 360 85ZM357 747L426 717L300 617L240 624L357 747Z" />
<glyph unicode="&#xe2;" glyph-name="acircumflex" horiz-adv-x="574" d="M427 0L426 88Q395 42 345 20T230 -3Q177 -3 137 17T74 74T52 155Q52 223 104 262T249 301H425V341Q425 403 388 437T280 471Q196 471 111 408L81 454Q134 491 182 508T292 526Q387 526
439 479T492 347L493 0H427ZM312 53T360 85T426 177V249H257Q188 249 152 226T116 157Q116 110 150 82T242 53Q312 53 360 85ZM423 619H354L284 695L213 619H144L247 744H321L423 619Z" />
<glyph unicode="&#xe3;" glyph-name="atilde" horiz-adv-x="574" d="M427 0L426 88Q395 42 345 20T230 -3Q177 -3 137 17T74 74T52 155Q52 223 104 262T249 301H425V341Q425 403 388 437T280 471Q196 471 111 408L81 454Q134 491 182 508T292 526Q387 526 439
479T492 347L493 0H427ZM312 53T360 85T426 177V249H257Q188 249 152 226T116 157Q116 110 150 82T242 53Q312 53 360 85ZM430 676T411 646T352 616Q331 616 315 624T276 648Q256 662 246 667T223 673Q204 673 195 659T185 620H136Q136 667 155 697T214 727Q235
727 252 719T290 694Q310 680 320 675T343 669Q381 669 381 723H430Q430 676 411 646Z" />
<glyph unicode="&#xe4;" glyph-name="adieresis" horiz-adv-x="574" d="M427 0L426 88Q395 42 345 20T230 -3Q177 -3 137 17T74 74T52 155Q52 223 104 262T249 301H425V341Q425 403 388 437T280 471Q196 471 111 408L81 454Q134 491 182 508T292 526Q387 526 439
479T492 347L493 0H427ZM312 53T360 85T426 177V249H257Q188 249 152 226T116 157Q116 110 150 82T242 53Q312 53 360 85ZM220 718T232 706T245 674Q245 656 233 643T202 630Q184 630 172 643T159 674Q159 693 171 705T202 718Q220 718 232 706ZM384 718T396 706T409
674Q409 656 397 643T366 630Q348 630 336 643T323 674Q323 693 335 705T366 718Q384 718 396 706Z" />
<glyph unicode="&#xe5;" glyph-name="aring" horiz-adv-x="574" d="M427 0L426 88Q395 42 345 20T230 -3Q177 -3 137 17T74 74T52 155Q52 223 104 262T249 301H425V341Q425 403 388 437T280 471Q196 471 111 408L81 454Q134 491 182 508T292 526Q387 526 439 479T492
347L493 0H427ZM312 53T360 85T426 177V249H257Q188 249 152 226T116 157Q116 110 150 82T242 53Q312 53 360 85ZM324 777T353 748T383 678Q383 638 354 609T283 580Q242 580 213 609T183 678Q183 718 212 747T283 777Q324 777 353 748ZM257 738T239 721T221 678Q221
654 239 637T283 619Q308 619 326 636T345 678Q345 703 327 720T283 738Q257 738 239 721Z" />
<glyph unicode="&#xe6;" glyph-name="ae" horiz-adv-x="982" d="M496 183T523 143T597 78T695 53Q745 53 787 70T861 122L899 84Q860 42 807 20T690 -2Q611 -2 550 36T458 141Q393 -3 230 -3Q151 -3 102 40T52 152Q52 219 104 256T250 293H427V341Q426 404 388
437T280 471Q195 471 101 408L81 456Q190 526 292 526Q366 526 414 496T478 409Q509 464 564 495T689 526Q764 526 822 492T911 394T941 250H496V229Q496 183 523 143ZM869 374T819 424T689 475Q610 475 557 424T496 290H873Q869 374 819 424ZM192 253T154 228T116
157Q116 108 151 78T243 47Q311 47 355 78T428 176V253H261Q192 253 154 228Z" />
<glyph unicode="&#xe7;" glyph-name="ccedilla" horiz-adv-x="561" d="M476 47T428 24T319 -2L303 -53Q343 -57 363 -79T384 -130Q384 -168 356 -192T281 -216Q260 -216 237 -210T196 -194L212 -151Q225 -158 242 -162T274 -167Q300 -167 314 -154T329 -124Q329
-108 315 -97T275 -85H245L271 0Q204 7 153 42T72 134T43 262Q43 338 76 398T169 492T303 526Q364 526 414 506T501 450L463 405Q399 467 306 467Q250 467 205 441T135 369T110 262Q110 202 135 155T205 82T306 56Q357 56 399 74T471 126L509 86Q476 47 428 24Z"
/>
<glyph unicode="&#xe8;" glyph-name="egrave" horiz-adv-x="589" d="M424 526T488 449T547 240H110Q117 156 172 105T308 53Q358 53 401 71T475 122L513 84Q475 43 422 21T304 -2Q228 -2 169 31T77 125T43 262Q43 338 76 398T169 492T302 526Q424 526 488 449ZM487
292Q482 374 433 422T303 471Q224 471 171 422T110 292H487ZM228 747L345 624L285 617L159 717L228 747Z" />
<glyph unicode="&#xe9;" glyph-name="eacute" horiz-adv-x="589" d="M424 526T488 449T547 240H110Q117 156 172 105T308 53Q358 53 401 71T475 122L513 84Q475 43 422 21T304 -2Q228 -2 169 31T77 125T43 262Q43 338 76 398T169 492T302 526Q424 526 488 449ZM487
292Q482 374 433 422T303 471Q224 471 171 422T110 292H487ZM371 747L440 717L314 617L254 624L371 747Z" />
<glyph unicode="&#xea;" glyph-name="ecircumflex" horiz-adv-x="589" d="M424 526T488 449T547 240H110Q117 156 172 105T308 53Q358 53 401 71T475 122L513 84Q475 43 422 21T304 -2Q228 -2 169 31T77 125T43 262Q43 338 76 398T169 492T302 526Q424 526 488
449ZM487 292Q482 374 433 422T303 471Q224 471 171 422T110 292H487ZM437 619H368L298 695L227 619H158L261 744H335L437 619Z" />
<glyph unicode="&#xeb;" glyph-name="edieresis" horiz-adv-x="589" d="M424 526T488 449T547 240H110Q117 156 172 105T308 53Q358 53 401 71T475 122L513 84Q475 43 422 21T304 -2Q228 -2 169 31T77 125T43 262Q43 338 76 398T169 492T302 526Q424 526 488 449ZM487
292Q482 374 433 422T303 471Q224 471 171 422T110 292H487ZM234 718T246 706T259 674Q259 656 247 643T216 630Q198 630 186 643T173 674Q173 693 185 705T216 718Q234 718 246 706ZM398 718T410 706T423 674Q423 656 411 643T380 630Q362 630 350 643T337 674Q337
693 349 705T380 718Q398 718 410 706Z" />
<glyph unicode="&#xec;" glyph-name="igrave" horiz-adv-x="262" d="M98 524H165V0H98V524ZM62 747L179 624L119 617L-7 717L62 747Z" />
<glyph unicode="&#xed;" glyph-name="iacute" horiz-adv-x="262" d="M98 524H165V0H98V524ZM205 747L274 717L148 617L88 624L205 747Z" />
<glyph unicode="&#xee;" glyph-name="icircumflex" horiz-adv-x="262" d="M98 524H165V0H98V524ZM270 619H201L131 695L60 619H-9L94 744H168L270 619Z" />
<glyph unicode="&#xef;" glyph-name="idieresis" horiz-adv-x="262" d="M98 524H165V0H98V524ZM83 718T95 706T107 674Q107 656 95 643T64 630Q46 630 34 643T21 674Q21 693 33 705T64 718Q83 718 95 706ZM216 718T228 706T241 674Q241 656 229 643T198 630Q180
630 168 643T155 674Q155 693 167 705T198 718Q216 718 228 706Z" />
<glyph unicode="&#xf0;" glyph-name="eth" horiz-adv-x="578" d="M448 530T492 436T536 245Q536 171 505 115T416 28T282 -3Q212 -3 159 25T77 104T48 223Q48 288 76 337T155 414T275 441Q339 441 391 413T467 337Q453 402 414 466T315 586L141 506L123 546L279
618Q214 672 140 709L184 745Q268 701 333 643L469 706L488 666L368 611Q448 530 492 436ZM369 57T417 102T465 221Q465 298 417 344T288 390Q208 390 161 346T113 227Q113 150 160 104T288 57Q369 57 417 102Z" />
<glyph unicode="&#xf1;" glyph-name="ntilde" horiz-adv-x="654" d="M466 526T519 472T573 322V0H505V306Q505 380 464 422T350 464Q269 463 221 414T165 282V0H98V524H165V402Q192 463 244 494T372 526Q466 526 519 472ZM491 676T472 646T413 616Q392 616 376
624T337 648Q317 662 307 667T284 673Q265 673 256 659T246 620H197Q197 667 216 697T275 727Q296 727 313 719T351 694Q371 680 381 675T404 669Q442 669 442 723H491Q491 676 472 646Z" />
<glyph unicode="&#xf2;" glyph-name="ograve" horiz-adv-x="616" d="M384 526T444 493T538 399T572 263Q572 186 538 126T444 32T308 -2Q232 -2 172 31T78 125T44 263Q44 339 78 399T172 492T308 526Q384 526 444 493ZM251 468T206 442T136 369T111 262Q111 201
136 154T206 81T308 55Q365 55 410 81T480 154T505 262Q505 322 480 369T410 442T308 468Q251 468 206 442ZM239 747L356 624L296 617L170 717L239 747Z" />
<glyph unicode="&#xf3;" glyph-name="oacute" horiz-adv-x="616" d="M384 526T444 493T538 399T572 263Q572 186 538 126T444 32T308 -2Q232 -2 172 31T78 125T44 263Q44 339 78 399T172 492T308 526Q384 526 444 493ZM251 468T206 442T136 369T111 262Q111 201
136 154T206 81T308 55Q365 55 410 81T480 154T505 262Q505 322 480 369T410 442T308 468Q251 468 206 442ZM382 747L451 717L325 617L265 624L382 747Z" />
<glyph unicode="&#xf4;" glyph-name="ocircumflex" horiz-adv-x="616" d="M384 526T444 493T538 399T572 263Q572 186 538 126T444 32T308 -2Q232 -2 172 31T78 125T44 263Q44 339 78 399T172 492T308 526Q384 526 444 493ZM251 468T206 442T136 369T111 262Q111
201 136 154T206 81T308 55Q365 55 410 81T480 154T505 262Q505 322 480 369T410 442T308 468Q251 468 206 442ZM448 619H379L309 695L238 619H169L272 744H346L448 619Z" />
<glyph unicode="&#xf5;" glyph-name="otilde" horiz-adv-x="616" d="M384 526T444 493T538 399T572 263Q572 186 538 126T444 32T308 -2Q232 -2 172 31T78 125T44 263Q44 339 78 399T172 492T308 526Q384 526 444 493ZM251 468T206 442T136 369T111 262Q111 201
136 154T206 81T308 55Q365 55 410 81T480 154T505 262Q505 322 480 369T410 442T308 468Q251 468 206 442ZM455 676T436 646T377 616Q356 616 340 624T301 648Q281 662 271 667T248 673Q229 673 220 659T210 620H161Q161 667 180 697T239 727Q260 727 277 719T315
694Q335 680 345 675T368 669Q406 669 406 723H455Q455 676 436 646Z" />
<glyph unicode="&#xf6;" glyph-name="odieresis" horiz-adv-x="616" d="M384 526T444 493T538 399T572 263Q572 186 538 126T444 32T308 -2Q232 -2 172 31T78 125T44 263Q44 339 78 399T172 492T308 526Q384 526 444 493ZM251 468T206 442T136 369T111 262Q111
201 136 154T206 81T308 55Q365 55 410 81T480 154T505 262Q505 322 480 369T410 442T308 468Q251 468 206 442ZM245 718T257 706T270 674Q270 656 258 643T227 630Q209 630 197 643T184 674Q184 693 196 705T227 718Q245 718 257 706ZM409 718T421 706T434 674Q434
656 422 643T391 630Q373 630 361 643T348 674Q348 693 360 705T391 718Q409 718 421 706Z" />
<glyph unicode="&#xf7;" glyph-name="divide" horiz-adv-x="489" d="M265 546T277 533T290 501Q290 482 278 469T246 456Q227 456 214 469T201 501Q201 520 214 533T246 546Q265 546 277 533ZM38 347H452V297H38V347ZM265 193T277 180T290 148Q290 129 278 116T246
103Q227 103 214 116T201 148Q201 167 214 180T246 193Q265 193 277 180Z" />
<glyph unicode="&#xf8;" glyph-name="oslash" horiz-adv-x="616" d="M522 435T547 382T572 263Q572 186 538 126T444 32T308 -2Q233 -2 175 30L84 -103H33L140 53Q94 89 69 143T44 263Q44 339 78 399T172 492T308 526Q383 526 441 494L532 627H584L477 471Q522
435 547 382ZM108 213T124 172T172 101L409 447Q364 472 308 472Q250 472 205 446T134 371T108 262Q108 213 124 172ZM366 50T411 77T482 152T508 262Q508 312 491 353T443 422L206 76Q252 50 308 50Q366 50 411 77Z" />
<glyph unicode="&#xf9;" glyph-name="ugrave" horiz-adv-x="645" d="M548 524V0H480V125Q454 63 403 31T278 -2Q185 -2 133 52T80 202V524H148V218Q148 144 188 103T300 61Q384 62 432 118T480 267V524H548ZM254 747L371 624L311 617L185 717L254 747Z" />
<glyph unicode="&#xfa;" glyph-name="uacute" horiz-adv-x="645" d="M548 524V0H480V125Q454 63 403 31T278 -2Q185 -2 133 52T80 202V524H148V218Q148 144 188 103T300 61Q384 62 432 118T480 267V524H548ZM397 747L466 717L340 617L280 624L397 747Z" />
<glyph unicode="&#xfb;" glyph-name="ucircumflex" horiz-adv-x="645" d="M548 524V0H480V125Q454 63 403 31T278 -2Q185 -2 133 52T80 202V524H148V218Q148 144 188 103T300 61Q384 62 432 118T480 267V524H548ZM463 619H394L324 695L253 619H184L287 744H361L463 619Z" />
<glyph unicode="&#xfc;" glyph-name="udieresis" horiz-adv-x="645" d="M548 524V0H480V125Q454 63 403 31T278 -2Q185 -2 133 52T80 202V524H148V218Q148 144 188 103T300 61Q384 62 432 118T480 267V524H548ZM260 718T272 706T285 674Q285 656 273 643T242 630Q224
630 212 643T199 674Q199 693 211 705T242 718Q260 718 272 706ZM424 718T436 706T449 674Q449 656 437 643T406 630Q388 630 376 643T363 674Q363 693 375 705T406 718Q424 718 436 706Z" />
<glyph unicode="&#xfd;" glyph-name="yacute" horiz-adv-x="494" d="M230 -135T191 -166T100 -197Q39 -197 -8 -161L22 -109Q57 -133 97 -133Q129 -133 155 -112T198 -51L220 3L3 524H74L254 74L427 524H496L254 -75Q230 -135 191 -166ZM325 747L394 717L268 617L208
624L325 747Z" />
<glyph unicode="&#xfe;" glyph-name="thorn" horiz-adv-x="675" d="M199 462T253 494T379 526Q452 526 509 493T599 399T631 261Q631 185 599 125T510 32T380 -2Q308 -2 254 30T170 121V-194H103V742H170V404Q199 462 253 494ZM310 469T266 443T196 369T170 263Q170
203 195 156T265 83T367 56Q423 56 468 82T538 156T563 263Q563 322 538 369T468 442T367 469Q310 469 266 443Z" />
<glyph unicode="&#xff;" glyph-name="ydieresis" horiz-adv-x="494" d="M230 -135T191 -166T100 -197Q39 -197 -8 -161L22 -109Q57 -133 97 -133Q129 -133 155 -112T198 -51L220 3L3 524H74L254 74L427 524H496L254 -75Q230 -135 191 -166ZM188 718T200 706T213
674Q213 656 201 643T170 630Q152 630 140 643T127 674Q127 693 139 705T170 718Q188 718 200 706ZM352 718T364 706T377 674Q377 656 365 643T334 630Q316 630 304 643T291 674Q291 693 303 705T334 718Q352 718 364 706Z" />
<glyph unicode="&#x2013;" glyph-name="endash" horiz-adv-x="403" d="M0 326H403V277H0V326Z" />
<glyph unicode="&#x2014;" glyph-name="emdash" horiz-adv-x="726" d="M0 326H726V277H0V326Z" />
<glyph unicode="&#x2018;" glyph-name="quoteleft" horiz-adv-x="192" d="M115 629T121 618T128 595Q128 576 116 563T84 550Q66 550 54 562T41 595Q41 609 52 633L102 747H142L103 634Q115 629 121 618Z" />
<glyph unicode="&#x2019;" glyph-name="quoteright" horiz-adv-x="192" d="M116 742T128 730T141 697Q141 683 130 659L80 545H40L79 658Q67 663 61 674T54 697Q54 716 66 729T98 742Q116 742 128 730Z" />
<glyph unicode="&#x201a;" glyph-name="quotesinglbase" horiz-adv-x="192" d="M116 82T128 70T141 37Q141 23 130 -1L80 -115H40L79 -2Q67 3 61 14T54 37Q54 56 66 69T98 82Q116 82 128 70Z" />
<glyph unicode="&#x201c;" glyph-name="quotedblleft" horiz-adv-x="312" d="M115 629T121 618T128 595Q128 576 116 563T84 550Q66 550 54 562T41 595Q41 609 52 633L102 747H142L103 634Q115 629 121 618ZM235 629T241 618T248 595Q248 576 236 563T204 550Q186
550 174 562T161 595Q161 609 172 633L222 747H262L223 634Q235 629 241 618Z" />
<glyph unicode="&#x201d;" glyph-name="quotedblright" horiz-adv-x="312" d="M116 742T128 730T141 697Q141 683 130 659L80 545H40L79 658Q67 663 61 674T54 697Q54 716 66 729T98 742Q116 742 128 730ZM236 742T248 730T261 697Q261 683 250 659L200 545H160L199
658Q187 663 181 674T174 697Q174 716 186 729T218 742Q236 742 248 730Z" />
<glyph unicode="&#x201e;" glyph-name="quotedblbase" horiz-adv-x="312" d="M116 82T128 70T141 37Q141 23 130 -1L80 -115H40L79 -2Q67 3 61 14T54 37Q54 56 66 69T98 82Q116 82 128 70ZM236 82T248 70T261 37Q261 23 250 -1L200 -115H160L199 -2Q187 3 181
14T174 37Q174 56 186 69T218 82Q236 82 248 70Z" />
<glyph unicode="&#x2022;" glyph-name="bullet" horiz-adv-x="239" d="M148 336T167 317T186 268Q186 239 167 220T119 200Q91 200 72 219T53 268Q53 297 72 316T119 336Q148 336 167 317Z" />
<glyph unicode="&#x2039;" glyph-name="guilsinglleft" horiz-adv-x="272" d="M153 418H213L106 253L213 90H153L41 253L153 418Z" />
<glyph unicode="&#x203a;" glyph-name="guilsinglright" horiz-adv-x="272" d="M119 90H59L166 255L59 418H119L231 255L119 90Z" />
</font>
</defs>
</svg>
