<?xml version="1.0" standalone="no"?>
<!DOCTYPE svg PUBLIC "-//W3C//DTD SVG 1.1//EN" "http://www.w3.org/Graphics/SVG/1.1/DTD/svg11.dtd">
<svg xmlns="http://www.w3.org/2000/svg">
<defs >
<font id="Rosarivo" horiz-adv-x="418" ><font-face
    font-family="Rosarivo"
    units-per-em="1000"
    panose-1="2 0 0 0 0 0 0 0 0 0"
    ascent="979"
    descent="-424"
    alphabetic="0" />
<glyph unicode=" " glyph-name="space" horiz-adv-x="267" />
<glyph unicode="!" glyph-name="exclam" horiz-adv-x="232" d="M148 37Q148 20 122 0T73 -21Q56 27 36 52Q60 92 109 111Q148 74 148 37ZM132 649T132 663T119 677L92 668Q83 675 79 695Q82 697 146 734T212 772Q220 772 227 763Q223 742 209 679T186 569Q159
427 133 217Q132 208 123 200T96 191Q98 361 124 578Q132 649 132 663Z" />
<glyph unicode="&quot;" glyph-name="quotedbl" horiz-adv-x="311" d="M123 840Q137 847 154 847T189 840L140 573Q133 571 125 571T108 573L123 840ZM273 840Q288 847 304 847T340 840L289 573Q284 571 276 571T259 573L273 840Z" />
<glyph unicode="#" glyph-name="numbersign" horiz-adv-x="584" d="M511 377Q517 373 517 367T501 316H412L391 180Q429 181 493 188Q500 185 500 172Q493 159 484 127H383L360 -19Q332 -25 316 -32Q308 -32 303 -23Q320 37 335 128H212L191 -19Q161 -25 145 -32Q136
-32 132 -23Q147 29 164 127Q132 127 73 120Q67 123 67 135Q79 167 83 179H172L193 317Q154 316 89 309Q83 313 83 324Q95 356 99 368H200L220 493Q246 498 265 507Q274 507 280 497Q260 422 249 368H371L391 493Q421 500 436 507Q445 507 451 497Q443 473 420
369Q476 373 511 377ZM220 179H343L364 317H243L220 179Z" />
<glyph unicode="$" glyph-name="dollar" horiz-adv-x="423" d="M355 128Q355 69 308 28T192 -19L180 -117Q173 -119 148 -128Q142 -128 137 -121Q147 -68 153 -19Q62 -12 20 16L63 152Q76 152 87 145Q84 133 84 97T85 53Q105 25 160 19L184 229Q151 257 133 274T97
320T80 377Q80 436 121 471T225 512L236 588Q261 594 269 599Q274 599 279 592Q269 554 261 513Q325 512 384 487Q367 438 355 365Q351 364 342 364T331 367L323 453Q300 470 256 476L235 292Q327 209 346 169Q355 148 355 128ZM227 22T248 45T269 109T217 199L196
17Q227 22 248 45ZM152 407Q152 373 201 324L221 479Q152 475 152 407Z" />
<glyph unicode="%" glyph-name="percent" horiz-adv-x="629" d="M276 520T299 490T323 402T287 295T181 235Q139 235 116 264T93 351T128 459T235 520Q276 520 299 490ZM215 449Q135 449 135 371Q135 343 153 324T209 305T266 330T284 383T266 430T215 449ZM500
523Q504 524 508 524T513 521Q526 492 536 476L324 204Q158 -12 135 -55Q129 -56 125 -56L121 -53Q120 -51 96 -12L287 232Q321 274 396 375T500 523ZM490 229T513 199T536 111T501 4T395 -56Q352 -56 330 -27T307 61T342 169T448 229Q490 229 513 199ZM428 159Q348
159 348 80Q348 53 366 34T422 15T479 40T497 92T479 139T428 159Z" />
<glyph unicode="&amp;" glyph-name="ampersand" horiz-adv-x="769" d="M744 444Q769 409 769 375T720 301T601 260L576 104Q559 -9 559 -55Q559 -84 577 -84Q611 -84 680 -59Q688 -72 688 -88Q597 -126 568 -143T495 -189L479 -183Q475 -167 475 -115T504 116Q391
-20 249 -20Q158 -20 101 52T43 226T90 409T223 533Q273 533 307 511T341 437Q341 357 229 308H587Q652 308 690 320T728 353T696 409Q706 432 734 441L744 444ZM121 259Q121 176 165 110T276 44Q373 44 443 113T527 260Q254 260 121 269V259ZM267 449T251 470T208
491T157 433T123 301Q178 307 222 342T267 419Q267 449 251 470Z" />
<glyph unicode="&apos;" glyph-name="quotesingle" horiz-adv-x="160" d="M123 840Q137 847 154 847T189 840L140 573Q133 571 125 571T108 573L123 840Z" />
<glyph unicode="(" glyph-name="parenleft" horiz-adv-x="319" d="M159 224Q159 6 235 -153Q228 -173 203 -173Q73 23 73 271Q73 643 297 904Q320 904 327 884Q159 629 159 224Z" />
<glyph unicode=")" glyph-name="parenright" horiz-adv-x="319" d="M160 511Q160 720 83 884Q92 904 115 904Q245 705 245 455Q245 91 20 -173Q0 -173 -8 -153Q160 112 160 511Z" />
<glyph unicode="*" glyph-name="asterisk" horiz-adv-x="465" d="M333 872Q293 791 280 709L408 787Q431 749 447 735L443 724Q360 713 293 680L405 600Q385 557 380 533L372 531Q332 599 276 652L261 496Q223 491 199 480L192 488Q227 556 247 652L117 576Q94
614 80 628Q80 634 84 639Q154 646 232 679L119 756Q134 791 143 823L152 827Q192 759 249 708L264 864Q302 869 327 880L333 872Z" />
<glyph unicode="+" glyph-name="plus" horiz-adv-x="512" d="M455 301Q461 297 461 285L445 237H280Q269 128 268 33Q265 24 255 24Q247 28 208 37L227 237Q142 237 57 229Q51 232 51 244Q61 269 67 292H231Q240 380 241 499Q245 508 256 508Q260 506 303 495L284
292Q371 292 455 301Z" />
<glyph unicode="," glyph-name="comma" horiz-adv-x="172" d="M57 -21Q57 6 16 51Q48 97 93 111Q131 63 131 35Q131 -17 96 -56T-8 -140Q-21 -134 -21 -119Q57 -57 57 -21Z" />
<glyph unicode="-" glyph-name="hyphen" horiz-adv-x="347" d="M184 275Q248 275 307 284Q315 280 315 268Q301 242 297 221H155Q91 221 32 212Q24 216 24 227Q34 248 41 275H184Z" />
<glyph unicode="." glyph-name="period" horiz-adv-x="171" d="M128 37Q128 20 102 0T53 -21Q36 27 16 51Q40 92 89 111Q128 74 128 37Z" />
<glyph unicode="/" glyph-name="slash" horiz-adv-x="361" d="M424 897L260 455Q93 1 69 -97Q63 -103 52 -103Q45 -96 7 -72L205 472Q343 854 360 923Q367 928 377 928Q385 921 404 910T424 897Z" />
<glyph unicode="0" glyph-name="zero" horiz-adv-x="543" d="M388 524T437 459T487 277T427 78T244 -20Q154 -20 105 44T56 201T80 358T160 468T299 524Q388 524 437 459ZM273 437Q104 437 104 247Q104 176 152 121T280 65T398 119T437 250T391 382T273 437Z" />
<glyph unicode="1" glyph-name="one" horiz-adv-x="348" d="M277 -3L172 0Q88 0 23 -8Q20 -1 20 8L21 17Q110 39 124 67Q138 98 152 272L163 415L65 401Q57 409 57 420T59 435Q172 474 241 528Q255 524 260 513L261 509Q243 468 236 426T219 269L208 141Q203 93
203 32Q228 29 280 29Q281 24 281 15T277 -3Z" />
<glyph unicode="2" glyph-name="two" horiz-adv-x="439" d="M56 337L52 448Q52 460 67 467Q125 492 220 524Q282 524 323 495T364 403Q364 324 271 233L96 64H191Q271 64 299 70T340 95Q349 108 371 147Q384 147 395 139Q370 66 360 8Q338 -3 272 -3L127 0Q32
0 -1 -7Q-7 1 -7 15L112 132Q116 136 138 156T170 188T201 220T233 258T258 295Q283 335 283 374T257 440T195 467T107 440L81 337Q75 335 68 335T56 337Z" />
<glyph unicode="3" glyph-name="three" horiz-adv-x="423" d="M56 336L52 447Q52 457 68 465Q107 486 239 524Q387 524 387 419Q387 390 371 360T337 309T280 251L243 215Q353 130 353 25Q353 -27 331 -72T279 -148T197 -209T107 -257T9 -297Q0 -288 0 -273Q31
-258 44 -252T92 -226T145 -194T192 -157T234 -114Q271 -62 271 -6T238 92T144 175L223 249Q305 324 305 391Q305 465 212 465Q175 465 107 439L81 336Q75 333 68 333T56 336Z" />
<glyph unicode="4" glyph-name="four" horiz-adv-x="489" d="M275 -3Q182 0 108 0T-8 -7Q-13 1 -13 16Q-7 23 8 40T28 64L247 351Q314 438 356 502L372 527Q387 525 397 517Q381 461 363 256L345 61Q411 64 425 89L445 129Q460 129 469 121Q451 69 440 7Q415 -4
340 -4Q334 -72 323 -263Q292 -265 252 -295Q241 -295 235 -289Q256 -216 267 -95L275 -3ZM307 368L72 60H280L307 368Z" />
<glyph unicode="5" glyph-name="five" horiz-adv-x="425" d="M408 444Q388 429 314 429T136 433L109 309Q340 201 340 52Q340 1 320 -46T270 -128T192 -199Q118 -255 12 -307Q0 -299 0 -284Q41 -258 63 -243T127 -195T192 -133T234 -64T253 17Q253 86 197 142T55
236L119 512Q224 507 298 507T389 524Q392 528 409 557Q422 557 432 551Q413 481 408 444Z" />
<glyph unicode="6" glyph-name="six" horiz-adv-x="521" d="M60 227Q60 393 175 524T460 715Q471 706 471 692Q393 654 338 614T238 517Q148 405 148 215Q148 127 176 73T260 19T354 69T393 205Q393 260 361 308T281 356Q249 356 216 337Q205 344 205 363Q255
395 318 395T428 348T475 228Q475 124 410 62T237 -20Q154 -20 107 48T60 227Z" />
<glyph unicode="7" glyph-name="seven" horiz-adv-x="463" d="M480 515Q487 510 489 495Q373 336 284 164T75 -279Q73 -280 67 -280T57 -277Q40 -252 10 -243L0 -240Q32 -184 93 -76T194 100Q285 260 399 431Q319 439 256 439T175 439T133 436Q89 431 80 412L59
369Q39 369 35 377Q40 400 48 431Q64 492 67 516Q133 509 280 509T480 515Z" />
<glyph unicode="8" glyph-name="eight" horiz-adv-x="463" d="M427 568Q427 528 406 493T361 437T287 381Q420 287 420 195T358 48T207 -20Q142 -20 89 24T36 132Q36 249 209 353Q149 397 117 434T84 517Q84 593 137 644T275 707Q334 707 380 667T427 568ZM171
290T142 249T113 151T143 56T225 16T311 59T345 159Q345 244 225 333Q171 290 142 249ZM357 553Q357 604 330 639T258 675T182 639T149 561Q149 493 269 401Q357 473 357 553Z" />
<glyph unicode="9" glyph-name="nine" horiz-adv-x="521" d="M461 263Q461 85 359 -69T93 -297Q80 -294 80 -275Q242 -175 307 -42T373 275Q373 369 346 427T258 485T163 426T129 299T157 179T239 127Q268 127 307 145Q316 139 316 120Q266 88 202 88T92 140T47
265Q47 367 113 436T285 524Q367 524 414 452T461 263Z" />
<glyph unicode=":" glyph-name="colon" horiz-adv-x="171" d="M164 383Q164 366 138 345T89 324Q73 371 52 396Q77 439 125 456Q164 420 164 383ZM128 37Q128 20 102 0T53 -21Q36 27 16 51Q40 92 89 111Q128 74 128 37Z" />
<glyph unicode=";" glyph-name="semicolon" horiz-adv-x="172" d="M168 383Q168 366 142 345T93 324Q77 371 56 396Q81 439 129 456Q168 420 168 383ZM57 -21Q57 6 16 51Q48 97 93 111Q131 63 131 35Q131 -17 96 -56T-8 -140Q-21 -134 -21 -119Q57 -57 57 -21Z" />
<glyph unicode="&lt;" glyph-name="less" horiz-adv-x="496" d="M47 260L272 352Q283 357 319 371Q398 402 449 428Q457 424 457 417Q452 392 449 367L144 248L419 141Q416 127 413 92Q409 85 400 81Q350 106 244 149L40 232L47 260Z" />
<glyph unicode="=" glyph-name="equal" horiz-adv-x="608" d="M293 325Q189 325 88 317Q81 320 81 333Q94 367 99 383H355Q454 383 548 392Q555 388 555 375Q542 349 537 325H293ZM265 147Q177 147 60 139Q53 141 53 155Q65 185 71 204H327Q425 204 520 213Q527
209 527 196Q514 170 509 147H265Z" />
<glyph unicode="&gt;" glyph-name="greater" horiz-adv-x="496" d="M449 249L224 157Q212 152 177 138Q104 110 47 81Q39 85 39 92Q43 124 44 141L359 264L77 368Q80 382 83 417Q88 426 96 428Q146 403 252 360L456 277L449 249Z" />
<glyph unicode="?" glyph-name="question" horiz-adv-x="383" d="M196 815L185 789Q265 720 298 669T332 547Q332 474 270 426Q221 388 153 357Q158 347 166 304T175 231Q175 220 144 198T97 175Q97 207 80 269T53 349Q68 359 111 377T185 411T242 457T269 525T246
600T194 662T143 705T119 728Q119 737 136 772T172 829Q186 827 196 815ZM184 37Q184 20 158 0T109 -21Q92 27 72 52Q96 92 145 111Q184 74 184 37Z" />
<glyph unicode="@" glyph-name="at" horiz-adv-x="867" d="M607 44Q646 44 681 93T735 214T755 356Q755 474 700 539T537 604T337 538T186 358T129 117Q129 19 189 -61T342 -141T508 -105Q520 -112 520 -135Q423 -180 341 -180Q208 -180 127 -92T45 115T89 331T206
494T371 598T559 636Q690 636 758 560T827 347T753 117T549 -23Q531 -14 520 9T509 79T529 213Q494 160 469 125T398 43T311 -20Q276 -14 253 20T229 111Q229 191 274 265Q341 375 458 430Q513 457 537 460Q584 465 592 468L641 488Q647 488 652 481Q581 142 581
106T586 57T607 44ZM304 143Q304 56 347 56T465 158T560 352L575 416Q517 416 488 412Q440 406 397 359T329 252T304 143Z" />
<glyph unicode="A" glyph-name="A" horiz-adv-x="673" d="M216 308L324 304Q382 304 420 307L359 613L216 308ZM621 -3L516 0Q448 0 393 -8Q391 -6 391 3L393 17Q434 26 449 39T465 72T459 119L427 269Q385 272 321 272L201 269L171 205Q117 93 112 29Q132 28
175 28Q176 23 176 15T172 -3L77 0Q21 0 -24 -8Q-27 4 -27 8L-25 17Q23 31 47 61T123 197L363 688L369 716L421 733L540 169Q565 60 579 31Q604 28 625 28Q627 25 627 17T621 -3Z" />
<glyph unicode="B" glyph-name="B" horiz-adv-x="608" d="M276 371Q275 375 275 385T281 407H309Q358 407 405 442Q429 459 444 492T459 574T428 657T332 692Q290 692 252 684Q235 592 216 388L197 172Q191 106 191 79T192 40Q224 36 253 36Q452 36 452 204Q452
278 416 324T317 371H276ZM75 705Q295 727 368 727T492 687T544 578T505 462T413 397Q548 350 548 217Q548 121 475 61T264 0Q82 0 23 -8Q19 -3 19 7L20 17Q52 24 70 39T95 68T105 104Q125 208 140 381T156 616T149 681Q120 681 75 679Q72 684 72 693T75 705Z"
/>
<glyph unicode="C" glyph-name="C" horiz-adv-x="680" d="M204 114Q228 71 269 46T365 20Q470 20 576 157Q593 157 602 142L605 137Q531 19 512 13Q411 -20 331 -20Q206 -20 131 66T55 275T110 502T260 671T463 736T661 704Q667 699 667 695T662 662Q646 569 641
519Q634 515 625 515T607 517Q601 628 597 645Q577 666 534 683T451 700Q371 700 303 641T197 491T159 299T204 114Z" />
<glyph unicode="D" glyph-name="D" horiz-adv-x="737" d="M339 692Q281 692 252 687Q239 643 215 366T191 49Q245 32 323 32T466 85T563 223T595 408Q595 536 527 614T339 692ZM321 -4L188 0Q79 0 21 -8Q19 0 19 5L20 17Q52 24 70 39T94 68Q117 121 136 337T156
617T148 681Q105 681 75 679Q72 685 72 693T75 705Q82 706 120 710T192 718Q282 727 359 727Q510 727 600 651T691 428Q691 317 647 219T516 59T321 -4Z" />
<glyph unicode="E" glyph-name="E" horiz-adv-x="603" d="M97 723L193 720H333L548 727Q561 727 561 717Q561 715 556 692Q542 630 532 544Q525 541 519 541T501 544Q496 657 493 668Q414 689 319 689Q280 689 255 685Q247 668 241 622T219 392Q232 388 294 388T397
393T452 433Q467 433 476 427Q462 353 457 269Q449 267 447 267L432 271V347Q378 356 314 356T215 351L199 169Q193 106 193 36Q218 32 256 32Q350 32 447 59Q464 85 478 121T496 167Q511 167 525 159Q511 109 493 15Q490 4 480 3Q440 -4 375 -4L221 0H171Q79 0
21 -8Q19 0 19 5L20 17Q52 24 70 39T94 68Q120 129 140 382T160 664T156 693Q139 696 95 696Q93 700 93 704T97 723Z" />
<glyph unicode="F" glyph-name="F" horiz-adv-x="595" d="M97 723L193 720H333L560 727Q573 727 573 717Q573 716 568 692Q550 610 544 544Q536 541 529 541T513 544Q508 657 505 668Q419 689 319 689Q280 689 255 685Q245 667 217 381Q239 377 293 377T392 383Q437
387 451 423Q465 423 475 416Q462 353 456 257Q448 255 445 255L431 259V336Q395 345 317 345T213 340L204 224Q193 83 193 37Q235 31 307 31Q308 21 308 13T304 -3L171 0Q79 0 21 -8Q19 0 19 5L20 17Q52 24 70 39T94 68Q120 129 140 382T160 664T156 693Q139 696
95 696Q93 700 93 704T97 723Z" />
<glyph unicode="G" glyph-name="G" horiz-adv-x="703" d="M427 281L571 279Q626 279 667 287Q669 279 669 272L667 257Q640 253 626 241T605 192L579 56Q539 24 469 2T329 -20Q205 -20 129 66T53 275T108 502T258 671T462 736T660 704Q665 700 665 696T660 662Q643
550 640 519Q633 515 623 515T605 517Q601 623 596 645Q576 666 533 683T449 700Q370 700 302 641T195 491T157 308Q157 198 203 114Q226 71 267 46T356 20T444 32T507 65L527 243Q488 248 424 248Q421 255 421 263T427 281Z" />
<glyph unicode="H" glyph-name="H" horiz-adv-x="772" d="M536 723L628 720Q709 720 756 724Q760 720 760 709L759 699Q721 688 706 668T685 616Q666 518 649 317L636 168Q631 108 631 70T635 31Q652 28 701 28Q703 23 703 17T699 -3L605 0Q509 0 448 -8Q445 -4
445 5L447 17Q500 27 518 47T544 104Q557 175 576 352L408 357Q335 357 215 352L199 168Q193 96 193 64T197 31Q213 28 259 28Q260 23 260 15T256 -3L167 0Q79 0 21 -8Q19 0 19 5L20 17Q52 24 70 39T94 68Q120 129 140 382T160 664T156 693Q139 696 95 696Q93 700
93 704T97 723L189 720Q272 720 319 724Q323 718 323 709L321 699Q283 688 269 669T246 604T219 396Q307 392 412 392L580 396L593 552Q599 624 599 658T595 693Q577 696 533 696Q532 700 532 708T536 723Z" />
<glyph unicode="I" glyph-name="I" horiz-adv-x="339" d="M83 723L211 720L325 723Q327 719 327 712L323 696Q284 696 263 693Q247 691 228 464L215 301Q201 137 201 82T204 27Q228 24 297 24Q299 20 299 16T295 -3L167 0Q75 0 13 -8Q9 0 9 8L11 16Q67 28 83 44T107
97Q128 211 139 352L148 464Q159 591 159 642T152 693Q119 696 80 696Q79 700 79 708T83 723Z" />
<glyph unicode="J" glyph-name="J" horiz-adv-x="327" d="M72 723L193 720Q268 720 308 728Q312 723 312 713L311 703Q283 697 269 667Q257 641 251 616Q239 575 224 395L196 84Q184 -39 162 -90T67 -200L-29 -276Q-44 -272 -44 -253L7 -200Q63 -140 86 -62T123
167L145 433Q159 592 159 642T153 692Q114 696 71 696Q69 700 69 707L72 723Z" />
<glyph unicode="K" glyph-name="K" horiz-adv-x="645" d="M640 27Q643 18 643 13T639 0Q581 -3 540 -11T493 -20Q465 -20 325 274Q270 390 264 401L393 524Q476 605 519 685Q503 695 451 697Q451 715 456 724Q547 720 565 720T639 725Q645 719 645 712T644 700Q585
665 544 624L345 429L447 225Q497 123 528 78T578 30T640 27ZM111 723L207 720Q288 720 335 724Q339 718 339 709L337 699Q299 688 285 669T261 603T239 435L216 168Q211 108 211 70T215 31Q235 28 287 28Q288 23 288 15T284 -3L184 0Q84 0 21 -8Q19 0 19 5L20
17Q75 28 93 47T119 104Q138 218 155 418T173 655T169 693Q152 696 108 696Q107 700 107 707T111 723Z" />
<glyph unicode="L" glyph-name="L" horiz-adv-x="584" d="M391 -4L237 0H171Q79 0 21 -8Q19 0 19 5L20 17Q52 24 70 39T94 68Q117 121 138 369T160 655T156 693Q139 696 95 696Q93 700 93 704T97 723L193 720Q287 720 344 724Q348 720 348 709L347 699Q296 688
278 671T251 621Q236 558 225 435L203 168Q197 106 197 76T199 36Q228 32 272 32Q366 32 463 59Q481 87 496 128T515 176Q530 176 544 168Q534 131 523 80T509 15Q508 4 496 3Q459 -4 391 -4Z" />
<glyph unicode="M" glyph-name="M" horiz-adv-x="909" d="M849 -3L756 0Q662 0 603 -8Q599 -3 599 7L600 17Q651 27 670 46T695 101Q705 181 716 396L724 560Q679 489 573 283T429 -23L404 -16Q267 425 227 517L195 591Q167 330 160 239T152 27Q173 24 224 24Q225
20 225 13T221 -3L119 0Q57 0 15 -8Q11 -3 11 7L12 17Q55 27 73 49T99 103Q137 292 169 643Q152 676 121 692Q104 699 61 703Q61 718 68 729Q102 727 120 727L217 731Q241 731 308 572Q360 448 431 208Q455 127 456 124Q477 168 594 399T749 720Q842 720 896 729Q899
717 899 716L897 704Q851 693 833 671T809 616Q797 544 788 382T779 137T780 27Q796 24 852 24Q853 20 853 13T849 -3Z" />
<glyph unicode="N" glyph-name="N" horiz-adv-x="799" d="M224 -3L123 0Q60 0 17 -8Q15 -4 15 5L16 17Q60 28 76 49T101 104Q132 247 169 653Q143 682 128 690T67 703Q65 707 65 715T69 729Q88 728 113 728L216 733Q244 733 374 539T624 136Q627 215 642 405T657
634T656 693Q635 696 583 696Q580 701 580 708T584 723L680 720Q743 720 785 728Q787 725 787 717L785 703Q741 692 727 672T708 616Q688 478 644 -15L620 -25Q589 28 485 192T340 421Q255 559 196 623Q193 585 184 478T169 308Q155 134 155 89T156 27Q176 24 227
24Q228 20 228 12T224 -3Z" />
<glyph unicode="O" glyph-name="O" horiz-adv-x="747" d="M700 431Q700 349 682 281T637 167T573 86T501 32T431 0Q376 -20 340 -20Q215 -20 135 67T55 283Q55 365 73 434T121 548T188 629T262 684T332 716Q389 736 416 736Q540 736 620 648T700 431ZM372 32Q432
32 478 62T552 144Q605 247 605 374T547 593T387 685Q309 685 254 632Q149 531 149 335Q149 213 210 123T372 32Z" />
<glyph unicode="P" glyph-name="P" horiz-adv-x="564" d="M249 284Q248 289 248 299T255 321Q267 320 296 320Q372 320 421 379T471 517T431 644T323 692Q286 692 252 684Q235 592 213 352L197 168Q192 106 192 69T196 31Q220 28 303 28Q304 23 304 15T300 -3L171
0Q79 0 21 -8Q19 0 19 5L20 17Q52 24 70 39T94 68Q117 121 136 337T156 617T148 681Q105 681 75 679Q72 685 72 693T75 705Q80 705 119 709T191 718Q278 727 352 727Q448 727 506 678T564 532T493 359T317 283Q265 283 249 284Z" />
<glyph unicode="Q" glyph-name="Q" horiz-adv-x="739" d="M700 431Q700 281 652 182Q547 -30 289 -161Q340 -165 465 -210T627 -256Q644 -256 721 -188Q737 -193 747 -211L632 -335Q567 -332 413 -280T195 -227Q160 -227 119 -243Q104 -228 104 -208Q232 -153
315 -103T463 15T566 185T605 369T582 520T507 637T382 685T254 632Q149 531 149 335Q149 267 173 199T247 81T359 32Q359 26 340 7T309 -20Q204 -20 130 74T55 283Q55 365 73 434T121 548T188 629T262 684T332 716Q389 736 416 736Q540 736 620 648T700 431Z"
/>
<glyph unicode="R" glyph-name="R" horiz-adv-x="624" d="M260 -3L171 0Q79 0 21 -8Q19 0 19 5L20 17Q52 24 70 39T94 68Q117 121 136 337T156 617T148 681Q105 681 75 679Q72 685 72 693T75 705Q77 705 131 712Q247 727 339 727T487 679T543 548T501 416T371
331Q396 273 437 191T505 71T551 30T612 27Q615 18 615 13T611 0Q554 -3 512 -11T465 -20Q439 -20 337 200L276 336Q373 370 409 416T445 530T410 645T309 692Q286 692 252 684Q235 593 213 352L197 168Q192 106 192 69T196 31Q212 28 263 28Q264 23 264 15T260
-3Z" />
<glyph unicode="S" glyph-name="S" horiz-adv-x="544" d="M312 703Q254 703 215 666T176 568Q176 526 209 492T296 425T374 374T424 330Q480 276 480 197Q480 97 403 39T227 -20Q174 -20 115 -8T33 16L52 209Q59 213 70 213T91 208Q92 107 112 76Q148 16 249 16Q307
16 347 57T388 155T357 249T244 336T124 426T85 527Q85 625 160 680T340 736Q381 736 429 724T504 699L479 527Q471 523 462 523T445 527Q440 638 423 658T376 690T312 703Z" />
<glyph unicode="T" glyph-name="T" horiz-adv-x="623" d="M423 -3L275 0Q164 0 99 -8Q96 -3 96 3L99 17Q163 28 189 44T225 93Q245 171 262 364T280 611T279 684Q255 689 223 689Q138 689 101 669Q97 660 80 614T49 540Q29 540 20 548L52 716Q55 727 69 727L225
720H447L620 727Q635 727 635 719Q635 718 630 694Q612 617 605 555Q598 551 588 551T573 555L565 669Q528 689 441 689Q408 689 387 684Q366 639 349 412L335 228Q329 156 329 104T331 35Q371 28 425 28Q427 23 427 17T423 -3Z" />
<glyph unicode="U" glyph-name="U" horiz-adv-x="764" d="M547 723L655 720Q721 720 759 728Q763 722 763 713L761 703Q731 696 712 676T688 640Q665 573 640 284Q627 137 555 59T353 -20Q108 -20 108 229Q108 263 122 475T137 693Q120 696 81 696Q80 700 80 707T84
723Q84 723 171 720Q253 720 303 728Q307 722 307 713L305 703Q260 692 245 676T224 628Q211 557 198 405T185 245Q185 141 230 82T365 23Q482 23 534 93T599 309Q601 337 606 391T612 465T617 521T620 579T622 631T623 693Q603 696 545 696Q544 701 544 709T547
723Z" />
<glyph unicode="V" glyph-name="V" horiz-adv-x="739" d="M48 728Q104 720 170 720T311 723Q312 716 312 708L309 696Q257 696 236 695Q236 574 284 404L368 108L513 404Q557 495 591 581T628 692Q611 696 560 696Q559 700 559 708T563 723Q620 720 667 720T761
728Q764 723 764 716L763 703Q726 692 700 663T646 584T553 404L333 -39H319L169 480Q128 631 100 672Q88 689 41 703Q41 716 48 728Z" />
<glyph unicode="W" glyph-name="W" horiz-adv-x="981" d="M821 696Q820 700 820 707T824 723Q884 720 924 720T1012 728Q1015 719 1015 717L1012 703Q989 694 969 674T917 596T868 504L620 -39H597L495 332L300 -39H285L141 480Q96 642 73 672Q59 690 15 703Q15
717 20 728Q76 720 139 720T276 723Q279 714 279 712L275 696Q224 696 201 695Q201 595 251 404L331 101L480 380Q472 409 460 456T440 529T422 588Q404 649 394 669T351 699Q351 713 355 724Q399 720 469 720T569 719L657 720Q703 720 736 724Q740 717 740 709L739
699Q718 692 704 673Q670 627 555 425L645 101L780 404Q874 614 889 692Q873 696 821 696ZM641 693L568 696Q550 696 521 694L492 693Q492 620 540 463Q630 646 641 693Z" />
<glyph unicode="X" glyph-name="X" horiz-adv-x="708" d="M109 728L216 733Q228 733 262 676Q310 595 385 417L456 505Q506 566 526 594T581 687Q536 689 497 689Q496 695 496 703T500 720H592Q648 720 711 728Q715 718 715 713L713 703Q668 679 623 637T511 515L400
379Q418 334 479 201Q554 39 611 32Q627 31 664 31Q665 27 665 19T663 0Q609 -3 566 -11T515 -20T492 -4Q453 39 403 147T328 316L281 259Q187 143 132 33Q176 31 209 31Q211 25 211 15T207 0H116Q80 0 19 -8Q13 -1 13 8L15 17Q80 71 196 212L312 351Q306 364 282
421T228 544T164 655Q142 681 125 690T67 703Q64 708 64 716T68 729Q84 728 109 728Z" />
<glyph unicode="Y" glyph-name="Y" horiz-adv-x="588" d="M51 728L140 733Q145 733 160 714T197 660T239 580Q289 474 305 369Q336 457 380 551T468 690T545 736Q577 736 600 714L608 707Q593 661 565 632Q551 645 543 649T519 653Q493 653 459 610T395 500Q322
337 315 220Q312 180 312 113L313 35Q350 28 405 28Q405 8 403 -3L271 0Q167 0 97 -8Q95 -4 95 5L96 17Q161 25 186 44T221 96Q236 156 236 256T191 468T91 656Q72 682 55 691T1 703Q0 707 0 714T4 729L51 728Z" />
<glyph unicode="Z" glyph-name="Z" horiz-adv-x="679" d="M520 1L272 5Q145 5 28 -12Q21 -2 21 5T23 16L513 681H393Q232 681 157 656L108 537Q103 536 96 536T79 543L109 712Q111 723 128 723L377 720H432Q542 720 632 733Q640 727 640 716L639 707L147 40Q222
45 305 45Q472 45 516 77Q551 103 587 185Q591 187 600 187T620 177Q591 78 577 16Q574 4 564 3Q557 1 520 1Z" />
<glyph unicode="[" glyph-name="bracketleft" horiz-adv-x="300" d="M167 239Q143 -44 143 -67T148 -102T176 -117L240 -124Q243 -129 243 -137L237 -151Q147 -165 72 -197Q64 -197 60 -188Q81 -81 109 255L124 423Q152 765 152 865Q157 875 167 875Q239 842 324
828Q327 824 327 817T321 801L255 795Q229 791 221 774T210 721Q192 511 184 439L167 239Z" />
<glyph unicode="\" glyph-name="backslash" horiz-adv-x="331" d="M195 387L284 -73Q254 -88 233 -103Q231 -104 227 -104L215 -99Q210 -24 137 369L41 868Q75 883 92 896Q95 897 100 897L111 892Q115 817 195 387Z" />
<glyph unicode="]" glyph-name="bracketright" horiz-adv-x="328" d="M160 439Q184 713 184 740T179 779T151 795L87 801Q84 807 84 815L89 828Q175 842 255 875Q263 875 267 865Q243 744 217 423L203 255Q203 252 197 182T187 61Q175 -92 175 -188Q169 -197 160
-197Q91 -165 3 -151Q0 -147 0 -141T5 -124Q49 -120 73 -117T105 -97T118 -18T143 239L160 439Z" />
<glyph unicode="^" glyph-name="asciicircum" horiz-adv-x="489" d="M307 856H335Q374 710 449 365Q431 348 409 348L305 748L56 348Q37 348 23 368Q226 727 307 856Z" />
<glyph unicode="_" glyph-name="underscore" horiz-adv-x="569" d="M288 -43Q447 -43 561 -33Q569 -36 569 -49Q557 -71 552 -97H285Q123 -97 8 -105Q0 -101 0 -91Q10 -69 17 -43H288Z" />
<glyph unicode="`" glyph-name="grave" horiz-adv-x="603" d="M404 573Q265 665 189 745Q201 785 243 795Q274 750 318 699T391 620L420 592Q417 581 404 573Z" />
<glyph unicode="a" glyph-name="a" horiz-adv-x="537" d="M167 60Q214 60 290 165T387 371L404 453Q337 453 297 448Q241 441 179 357T117 166T167 60ZM483 521Q423 196 423 132T441 68Q445 68 504 89Q513 82 513 65Q444 36 422 20Q378 -13 367 -24L351 -17Q340
-1 340 56T360 225Q231 19 129 -20Q92 -13 66 25T40 125Q40 222 84 299Q147 412 262 467Q316 493 348 499Q415 506 419 508L471 528Q476 528 483 521Z" />
<glyph unicode="b" glyph-name="b" horiz-adv-x="529" d="M405 366T388 397T339 429T263 379T184 259T144 136L136 61Q179 43 220 37T267 31Q317 31 361 117T405 313Q405 366 388 397ZM61 -21Q50 -19 44 -9Q57 35 75 172L123 549Q148 741 148 767Q148 807 117
808L55 811Q52 817 52 823L55 836Q147 850 225 876Q235 876 237 867Q217 728 155 253Q266 482 376 509Q423 503 453 459T484 341T460 199T402 91T328 26Q261 -20 219 -20Q202 -20 160 -10T112 0L61 -21Z" />
<glyph unicode="c" glyph-name="c" horiz-adv-x="409" d="M255 459Q213 459 170 373T127 175Q127 120 148 81T203 41Q265 41 353 101Q363 98 367 81L245 1Q219 -20 163 -20T76 27T45 148T70 290T129 398T202 464Q270 509 304 509Q318 509 393 496Q393 477 384
455T364 420Q286 459 255 459Z" />
<glyph unicode="d" glyph-name="d" horiz-adv-x="549" d="M461 68L523 89Q532 83 532 65Q444 30 385 -24L368 -16Q359 42 359 83T369 225Q248 22 129 -20Q92 -15 70 27T47 141T75 284T141 394T224 462Q300 509 336 509Q349 509 409 499Q411 518 421 589Q441 731
441 760T435 797T413 808L348 811Q345 823 345 825T348 836Q443 850 519 876Q526 876 531 867L464 373Q441 210 441 139T461 68ZM171 60Q206 60 257 112T348 239T395 371L403 437Q361 449 326 454T287 459Q230 459 178 366T125 169Q125 118 137 89T171 60Z" />
<glyph unicode="e" glyph-name="e" horiz-adv-x="409" d="M391 411Q391 328 279 255Q205 205 124 192Q124 125 143 83T200 41Q261 41 351 101Q362 99 364 81L243 1Q212 -20 158 -20T73 28T43 152Q43 264 104 362T272 509Q329 509 360 488T391 411ZM252 468Q218
468 175 385T125 215Q192 231 245 276Q309 333 309 385Q309 468 252 468Z" />
<glyph unicode="f" glyph-name="f" horiz-adv-x="289" d="M-176 -356Q-166 -307 -136 -283Q-106 -305 -75 -320T-28 -335Q-2 -335 26 -270T65 -107L127 448L57 447Q51 450 51 457Q59 476 63 493H131L144 591Q153 658 178 709T232 788T294 833Q345 860 376 860Q428
860 489 821Q476 767 436 748Q408 777 379 797T335 817Q302 817 264 752T217 616L203 493Q253 493 316 497Q323 495 323 485Q314 469 311 449H197L144 -69Q136 -151 113 -212T63 -304T7 -354Q-36 -380 -74 -380T-176 -356Z" />
<glyph unicode="g" glyph-name="g" horiz-adv-x="499" d="M43 139Q43 212 72 277T148 387Q242 478 335 499Q419 512 427 516L469 540Q478 539 481 531L467 469Q452 402 432 256T412 0V-85Q412 -173 368 -242T262 -346T127 -380T8 -351T-40 -259Q-40 -225 -16 -189T69
-92T155 0Q43 22 43 139ZM343 -104L340 23Q340 114 353 212Q315 138 172 -21Q120 -78 80 -138T39 -235T71 -302T179 -332Q343 -332 343 -104ZM195 71Q218 71 257 119T333 240T383 375L400 453Q340 453 285 448T175 352T120 168Q120 124 135 98T195 71Z" />
<glyph unicode="h" glyph-name="h" horiz-adv-x="547" d="M56 811L53 823L56 836Q148 849 227 876Q235 876 239 867L153 240Q256 470 373 509Q469 509 469 380Q469 331 453 236T436 122T437 94Q439 73 456 73Q460 73 505 89Q513 83 515 65Q440 35 368 -24L352
-17Q349 -3 349 42T370 197T391 340Q391 429 343 429T224 322T141 113L129 0L51 -20L124 549Q149 745 149 766T142 797Q131 811 56 811Z" />
<glyph unicode="i" glyph-name="i" horiz-adv-x="272" d="M204 479Q204 405 181 277T157 108T172 68Q181 68 236 89Q245 83 245 65Q155 28 96 -24L80 -17Q72 -1 72 45T95 207T119 366T101 409Q88 409 48 388Q39 397 39 412Q75 432 119 463T185 516L203 511Q204
499 204 479ZM272 725Q272 710 248 693T203 675Q188 717 169 737Q192 774 237 789Q272 758 272 725Z" />
<glyph unicode="j" glyph-name="j" horiz-adv-x="253" d="M115 359Q115 409 95 409Q84 409 44 388Q40 390 36 398T32 412Q67 431 110 463T176 516L193 511Q196 488 196 460T192 394Q185 321 173 240L136 -56Q123 -161 98 -215T13 -320L-61 -383Q-75 -380 -75 -364L-29
-320Q7 -284 26 -231T60 -73L105 264Q115 334 115 359ZM251 725Q251 710 227 693T181 675Q165 719 148 737Q171 774 216 789Q251 758 251 725Z" />
<glyph unicode="k" glyph-name="k" horiz-adv-x="492" d="M56 811L53 823L56 836Q148 849 227 876Q235 876 239 867L156 255Q257 467 373 509Q463 495 463 416Q463 357 427 308T333 235Q333 198 356 125T407 52Q413 52 452 67Q460 60 460 43Q380 13 344 -23L325
-16Q304 24 282 102T256 235Q317 259 350 303T384 387Q384 408 375 421T348 435Q309 435 262 379T182 252T144 137L129 0L51 -20L124 549Q149 745 149 766T142 797Q131 811 56 811Z" />
<glyph unicode="l" glyph-name="l" horiz-adv-x="260" d="M152 767Q152 807 121 808Q92 811 59 811Q56 817 56 823L59 836Q151 850 229 876Q239 876 241 867L199 553Q152 255 152 135Q152 69 172 69Q176 69 236 91Q245 84 245 67Q168 36 96 -24L79 -16Q71 23 71
88T81 225L125 549Q152 746 152 767Z" />
<glyph unicode="m" glyph-name="m" horiz-adv-x="797" d="M452 380Q452 332 437 248Q526 471 633 509Q720 509 720 380Q720 331 704 236T687 122T688 94Q690 73 706 73T756 89Q765 82 765 65Q704 41 674 20T613 -24L597 -17Q597 66 620 187T643 340Q643 429 600
429Q573 429 534 380T462 255T421 112L408 -5L332 -20Q376 284 376 337Q376 429 332 429Q305 429 266 381T194 257T153 113L140 -5L64 -20L101 253Q109 317 109 344Q109 409 83 409Q76 409 36 388Q24 398 24 412Q99 453 164 516L181 511Q185 484 185 441T168 245Q254
468 365 509Q452 509 452 380Z" />
<glyph unicode="n" glyph-name="n" horiz-adv-x="556" d="M401 340Q401 429 354 429T236 322T153 113L140 -5L64 -20L101 253Q109 317 109 344Q109 409 83 409Q76 409 36 388Q24 398 24 412Q99 453 164 516L181 511Q185 484 185 451T182 383T173 301T165 240Q268
470 384 509Q479 509 479 380Q479 331 462 236T445 117T448 84T465 73T515 89Q524 80 524 65Q450 35 372 -24L356 -17Q356 65 378 186T401 340Z" />
<glyph unicode="o" glyph-name="o" horiz-adv-x="509" d="M380 509T422 457T464 311T419 135Q397 94 364 62T300 12Q237 -20 205 -20Q140 -20 93 31T45 168Q45 278 104 367Q149 434 216 471T317 509Q380 509 422 457ZM295 25T337 109T380 283Q380 463 284 463Q240
463 205 422T151 320T132 195Q132 25 235 25Q295 25 337 109Z" />
<glyph unicode="p" glyph-name="p" horiz-adv-x="533" d="M437 503T466 459T495 343T472 207T416 105T344 43Q278 0 237 0H143Q107 -257 107 -291T115 -325Q139 -327 217 -327Q220 -335 220 -345T217 -360H63Q-1 -360 -49 -364Q-53 -357 -53 -348L-52 -336Q-11
-331 4 -315T27 -268Q49 -167 80 63L105 253Q113 305 113 344Q113 413 92 413Q83 413 29 392Q21 398 21 416Q99 458 159 516L176 511Q187 475 187 430T177 293Q284 473 392 509Q437 503 466 459ZM353 429Q310 429 252 357T172 209Q155 131 149 61Q208 51 284 51Q332
51 374 131T416 313Q416 366 399 397T353 429Z" />
<glyph unicode="q" glyph-name="q" horiz-adv-x="507" d="M241 441T179 357T117 166T167 60Q214 60 290 165T387 371L404 453Q337 453 297 448Q241 441 179 357ZM40 125Q40 222 84 299Q147 412 262 467Q316 493 348 499Q415 506 419 508L471 528Q476 528 483 521Q453
359 439 259Q373 -208 373 -267T432 -331Q435 -337 435 -344T431 -357Q333 -361 308 -363L177 -373Q173 -363 173 -356L176 -340Q256 -334 275 -331Q284 -329 323 -61L365 225Q361 217 327 171T266 93T221 44Q170 -4 129 -20Q92 -13 66 25T40 125Z" />
<glyph unicode="r" glyph-name="r" horiz-adv-x="395" d="M109 344Q109 409 83 409Q76 409 36 388Q24 398 24 412Q99 453 164 516L181 511Q187 476 187 435T180 336Q245 468 324 509Q370 509 408 495Q390 423 382 354L379 329Q373 327 365 327T349 329L340 420Q325
429 301 429Q268 429 225 363T169 235Q153 140 140 -5L64 -20L101 253Q109 317 109 344Z" />
<glyph unicode="s" glyph-name="s" horiz-adv-x="423" d="M227 479Q152 479 152 407Q152 381 183 345T253 277T323 204T355 128Q355 65 303 23T176 -20Q136 -20 89 -9T20 16L63 152Q76 152 87 145Q84 133 84 97T85 53Q109 17 187 17Q219 17 244 41T269 99T250
161T202 213T146 261Q80 319 80 380T130 477T251 513T384 487Q367 438 355 365Q351 364 342 364T331 367L323 453Q288 479 227 479Z" />
<glyph unicode="t" glyph-name="t" horiz-adv-x="311" d="M152 111Q152 81 171 81Q202 81 273 107Q281 96 281 77Q213 49 180 32T88 -24L72 -17Q68 -1 68 52T94 267T121 438T115 448Q83 448 47 447Q41 450 41 457Q52 478 55 493H121Q131 493 138 542T145 613Q183
628 224 675Q235 675 241 669Q217 564 207 493Q251 493 304 499Q311 494 311 487Q301 472 296 449H199L169 269Q152 165 152 111Z" />
<glyph unicode="u" glyph-name="u" horiz-adv-x="552" d="M125 -20T99 12T72 103T90 268T109 416Q106 416 80 404T47 388Q39 396 35 412Q103 461 165 516L183 511Q187 479 187 447T168 304T149 163Q149 60 192 60Q245 60 314 176T405 408L421 493L495 505Q435
154 435 124Q435 68 447 68T512 89Q521 83 521 65Q474 46 447 28T381 -24L365 -17Q359 3 359 66T380 252Q344 162 287 84T164 -20Q125 -20 99 12Z" />
<glyph unicode="v" glyph-name="v" horiz-adv-x="431" d="M76 412Q71 412 52 396T28 376Q14 381 11 396Q24 410 125 521L141 520Q167 465 174 394Q177 370 180 323T185 264L195 65Q277 142 316 215T355 339Q355 413 304 441Q328 494 373 515Q415 490 415 431Q415
326 347 209T143 -20H129Q117 196 106 304T76 412Z" />
<glyph unicode="w" glyph-name="w" horiz-adv-x="713" d="M336 480L400 521L416 520Q440 472 456 388T479 241T493 65Q639 210 639 335Q639 411 583 441Q604 494 648 515Q672 501 682 479T693 416Q693 193 445 -20H432Q408 201 389 311Q336 141 152 -20H139Q125
207 115 309T85 412Q83 412 37 376Q26 380 20 396Q102 483 135 521L151 520Q172 478 178 432T187 367T191 311T195 264L204 65Q287 155 323 233T359 408Q359 438 336 480Z" />
<glyph unicode="x" glyph-name="x" horiz-adv-x="479" d="M408 427Q372 427 338 386T260 267Q342 63 369 63Q371 63 441 91Q450 84 452 67Q368 21 320 -20H304Q267 40 213 179Q162 83 123 32T41 -20Q13 -20 -16 9Q-2 54 29 84Q48 63 67 63Q97 63 128 102T200 213Q121
404 108 404Q102 404 52 363Q41 365 35 383Q101 451 144 511L160 509Q177 477 247 301Q300 400 344 454T436 509Q464 509 495 480Q479 434 448 405Q429 427 408 427Z" />
<glyph unicode="y" glyph-name="y" horiz-adv-x="419" d="M-119 -352L-207 -300Q-204 -283 -191 -273Q-165 -287 -151 -287Q-37 -287 151 -68Q108 247 96 307Q75 412 55 412Q49 412 11 376Q-3 380 -5 396Q59 473 95 521L113 520Q163 437 211 7Q268 88 303 182T339
348Q339 387 326 407T289 441Q317 496 357 515Q403 492 403 436Q403 345 355 214T221 -31T58 -214T-119 -352Z" />
<glyph unicode="z" glyph-name="z" horiz-adv-x="421" d="M368 -8Q332 -23 304 -23T218 -9T116 5T11 -12Q2 -7 0 4Q41 35 106 128Q134 169 156 197T218 280Q300 394 323 420Q281 428 200 428T103 404Q94 390 80 356Q63 356 53 364Q76 480 77 500Q121 493 237 493T411
499Q419 493 421 480Q343 401 230 239T116 75Q129 76 148 76T219 63T300 49T341 67L379 131Q392 131 403 124Q376 43 368 -8Z" />
<glyph unicode="{" glyph-name="braceleft" horiz-adv-x="325" d="M200 276Q192 175 192 16T208 -160Q229 -181 254 -197L264 -203Q264 -218 252 -228L141 -187Q136 -125 131 39T123 231T108 297T73 359Q101 386 119 423T145 487T182 655T232 864L348 903Q359
897 359 877Q313 851 293 834T248 679T215 432Q192 399 127 359Q152 341 170 321T194 288L200 276Z" />
<glyph unicode="|" glyph-name="bar" horiz-adv-x="284" d="M104 68L164 840Q191 846 213 856Q222 856 227 847Q212 772 179 364L119 -408Q92 -414 69 -424Q61 -424 56 -415Q70 -345 104 68Z" />
<glyph unicode="}" glyph-name="braceright" horiz-adv-x="360" d="M159 432Q168 540 168 678T152 833Q134 851 106 870L96 877Q96 893 108 903L216 864Q227 750 231 631T237 487T251 424T287 359Q259 335 241 298T215 232T181 68T123 -187L4 -227Q-7 -217 -7
-201Q40 -176 61 -156T108 13T144 276Q168 319 232 359Q183 395 165 422L159 432Z" />
<glyph unicode="~" glyph-name="asciitilde" horiz-adv-x="605" d="M40 355Q167 443 197 443Q222 443 263 431T324 415Q389 395 448 395Q479 395 494 401T526 415T553 427Q565 415 565 403Q553 395 529 378T492 353T462 334Q430 315 413 315T283 343Q211 363 177
363T128 360T105 354T80 343T52 331Q40 343 40 355Z" />
<glyph unicode="&#xa1;" glyph-name="exclamdown" horiz-adv-x="232" d="M84 451Q84 468 110 488T159 509Q176 461 196 436Q172 396 123 377Q84 414 84 451ZM100 -161T100 -175T113 -189L140 -180Q149 -187 153 -207Q150 -209 86 -246T20 -284Q12 -284 5 -275Q9
-254 23 -191T46 -81Q73 61 99 271Q100 280 109 288T136 297Q134 127 108 -90Q100 -161 100 -175Z" />
<glyph unicode="&#xa2;" glyph-name="cent" horiz-adv-x="399" d="M159 -20Q103 -20 74 28T45 148T63 285T112 392Q166 465 233 503L244 615Q259 618 277 625Q282 625 287 619Q280 585 273 520Q284 524 294 524T375 511Q375 465 348 432Q302 457 268 467L231 47Q274
58 337 105Q348 99 349 84L227 -4L216 -121Q209 -123 184 -132Q178 -132 173 -125Q181 -68 187 -17Q175 -20 159 -20ZM121 180Q121 124 141 84T193 43Q231 442 231 469Q192 453 157 369T121 180Z" />
<glyph unicode="&#xa3;" glyph-name="sterling" horiz-adv-x="459" d="M32 -11Q27 -4 27 6V9Q64 37 83 90T111 244Q94 244 63 241Q57 244 57 253Q67 271 69 285H113Q118 334 137 376T180 445T230 490Q275 524 301 524T362 515T416 497Q411 485 392 387Q387 383
379 383T367 385Q367 389 359 461Q335 489 284 489Q253 489 224 435T183 285Q271 285 325 292Q331 291 331 280Q326 272 319 245H180L177 223Q161 110 113 49Q145 47 209 47T323 65Q354 133 361 151Q365 152 373 152T388 143Q367 48 363 26T353 3Q331 -3 255 -3L173
-1H140Q69 -1 32 -11Z" />
<glyph unicode="&#xa4;" glyph-name="currency" horiz-adv-x="560" d="M441 279Q441 198 397 151L473 69Q457 51 436 13Q435 12 432 12L428 13Q414 53 360 120Q320 95 265 87Q220 87 185 113L96 19Q78 36 52 51Q51 52 51 55L53 60Q91 81 157 145Q136 182 136 227Q136
296 175 352L111 428Q130 449 149 481Q151 483 153 483L157 481Q169 446 211 384Q250 409 312 420Q355 420 391 392L469 483Q488 464 515 452Q516 451 516 448L513 443Q483 424 419 360Q441 324 441 279ZM275 136Q332 136 355 178T379 269Q379 371 304 371Q251
371 224 334T196 245T216 165T275 136Z" />
<glyph unicode="&#xa5;" glyph-name="yen" horiz-adv-x="524" d="M336 -3L237 0Q168 0 111 -8Q109 -1 109 7L112 17Q166 25 184 44Q198 60 203 84T209 155Q156 155 61 148Q55 152 55 160Q65 179 68 195H211Q211 223 195 271Q166 271 87 264Q80 268 80 276Q91 294
93 311H176Q152 358 92 451Q80 468 68 474T28 483Q27 485 27 493T29 509L131 513Q138 513 164 477T221 382T268 271Q374 513 447 513Q473 513 497 491Q480 461 460 440Q444 456 438 456H428Q390 456 316 311Q376 311 443 317Q449 315 449 305Q437 281 436 271H299Q280
223 277 195Q343 195 417 201Q424 199 424 189Q412 169 411 155H273Q271 113 271 33Q292 28 339 28Q340 21 340 16L336 -3Z" />
<glyph unicode="&#xa6;" glyph-name="brokenbar" horiz-adv-x="284" d="M124 300L171 840Q207 850 220 856Q228 856 232 847Q213 751 176 323L124 300ZM61 -415L111 152Q135 159 156 168Q164 168 168 159Q156 92 111 -392L61 -415Z" />
<glyph unicode="&#xa7;" glyph-name="section" horiz-adv-x="627" d="M416 736Q496 736 567 715Q545 631 529 512Q521 509 511 509T493 513Q493 534 490 604T484 688Q449 695 439 695Q383 695 342 653T300 545Q300 479 379 392Q412 355 445 316T501 221T524 103Q524
-30 430 -123T208 -217Q162 -217 106 -204T25 -176L77 -5Q97 -5 111 -13Q105 -67 105 -90T108 -141Q127 -171 191 -171Q241 -171 280 -122T320 -4Q320 71 242 165Q209 204 177 245Q99 345 99 439Q99 556 196 646T416 736ZM346 155T369 109T392 16T374 -69T319 -149Q381
-121 418 -61T455 67T432 187T375 276T309 350Q229 436 229 520Q229 586 285 660Q233 627 201 578T169 474T192 371T247 280T313 197Z" />
<glyph unicode="&#xa8;" glyph-name="dieresis" horiz-adv-x="603" d="M261 665Q261 650 237 633T192 615Q176 659 159 677Q180 713 227 729Q261 698 261 665ZM435 665Q435 650 411 633T365 615Q349 659 332 677Q355 714 400 729Q435 698 435 665Z" />
<glyph unicode="&#xa9;" glyph-name="copyright" horiz-adv-x="869" d="M279 -21T170 89T60 357T169 625T435 736T700 626T809 358T700 90T435 -21ZM113 495T113 357T208 122T435 24T661 121T756 357T662 593T435 691T208 593ZM423 548Q377 548 344 499T311 378T346
249T452 191Q499 191 580 225Q587 219 587 208L503 148Q496 145 492 143T480 139T465 135Q451 131 432 131Q335 131 284 195T233 355Q233 412 253 457T302 525T364 564Q414 588 448 588Q509 588 587 564Q581 540 572 452Q560 449 556 449T545 451Q545 454 531 523Q485
548 423 548Z" />
<glyph unicode="&#xaa;" glyph-name="ordfeminine" horiz-adv-x="343" d="M133 491Q150 491 189 549T241 660L251 701Q213 701 197 699Q170 695 141 650T111 548T133 491ZM220 447Q213 455 213 484T223 565Q174 477 104 447Q84 450 69 471T53 525Q53 628 140 689Q185
722 229 729Q259 729 271 735L299 745Q303 745 305 741Q273 554 273 528T279 501T316 515Q323 510 323 497Q266 470 232 445L220 447Z" />
<glyph unicode="&#xab;" glyph-name="guillemotleft" horiz-adv-x="503" d="M53 241L55 255Q196 366 275 447Q290 445 294 432L296 428L139 245L241 48Q233 33 215 32Q147 142 53 241ZM209 241L211 255Q352 366 431 447Q446 445 450 432L452 428L295 245L397 48Q389
33 371 32Q303 142 209 241Z" />
<glyph unicode="&#xac;" glyph-name="logicalnot" horiz-adv-x="491" d="M191 291Q127 291 47 283Q40 287 40 297Q50 321 57 348H444L439 296Q432 235 432 139Q427 129 417 129Q396 138 371 143L384 291H191Z" />
<glyph unicode="&#xae;" glyph-name="registered" horiz-adv-x="551" d="M176 252T105 323T33 499T104 676T278 748T453 676T524 500T453 324T279 252ZM198 707T140 646T81 500T139 354T279 293T418 354T477 499T419 645T279 707ZM277 631Q371 631 371 561Q371
508 315 492Q324 466 333 449Q351 420 360 412T379 403H395Q399 397 399 391T397 381Q369 379 351 377T330 375T317 396T293 450T276 488H269Q252 488 241 489V440Q241 413 243 403Q251 399 273 399Q275 393 275 387T273 377H171Q168 377 168 385L169 395Q191 401
194 420T197 500T197 586T192 612Q188 615 173 615Q172 619 172 623T173 631H277ZM323 557Q323 608 276 608Q255 608 244 607Q241 581 241 512Q245 511 268 511T307 523T323 557Z" />
<glyph unicode="&#xaf;" glyph-name="overscore" horiz-adv-x="624" d="M164 652Q379 652 476 659Q483 655 483 643Q472 627 461 599Q267 599 149 592Q143 596 143 607Q156 630 164 652Z" />
<glyph unicode="&#xb0;" glyph-name="degree" horiz-adv-x="412" d="M352 607Q352 526 301 480T168 419Q115 419 81 455T47 549Q47 630 101 677T232 736Q285 736 318 700T352 607ZM113 520T133 491T195 461T262 500T288 586T269 663T208 693T140 657T113 570Z" />
<glyph unicode="&#xb1;" glyph-name="plusminus" horiz-adv-x="520" d="M55 285L71 333H236Q244 405 247 500Q251 509 261 509Q265 507 308 496L289 333Q365 333 459 343Q465 339 465 327Q458 314 449 279H283Q272 187 271 115Q268 105 257 105Q245 111 211 119L229
279Q160 279 61 271Q55 273 55 285ZM465 48Q458 35 449 0H231Q146 0 61 -8Q55 -5 55 7Q59 17 71 55H288Q375 55 459 64Q465 60 465 48Z" />
<glyph unicode="&#xb2;" glyph-name="twosuperior" horiz-adv-x="320" d="M209 303L143 304H37Q33 312 33 321L136 437Q219 530 219 591Q219 613 208 627T180 641T116 627L103 567Q100 564 91 564T77 567Q76 635 76 641T83 651L187 683Q230 683 257 663T285 599Q285
577 273 552T250 511T215 469L115 352H168Q240 352 247 367L269 413Q286 413 296 407Q277 362 268 312Q248 303 209 303Z" />
<glyph unicode="&#xb3;" glyph-name="threesuperior" horiz-adv-x="323" d="M279 436Q279 377 233 335T133 293T39 316Q45 345 72 369Q124 327 151 327T196 358T215 421Q215 479 131 495L216 627H165Q141 627 113 623L104 579Q99 576 92 576T79 579Q80 661 80
668T87 676H209Q251 676 284 681Q289 678 289 668L203 535Q279 508 279 436Z" />
<glyph unicode="&#xb4;" glyph-name="acute" horiz-adv-x="603" d="M295 573Q283 581 279 592Q387 693 456 795Q497 785 509 745Q475 709 422 666T332 598L295 573Z" />
<glyph unicode="&#xb5;" glyph-name="mu" horiz-adv-x="549" d="M504 497Q435 249 435 124Q435 68 447 68T512 89Q521 83 521 65Q474 46 447 28T381 -24L365 -17Q359 3 359 66T380 252Q344 162 287 84T164 -20Q148 -20 126 -9T96 25Q89 -25 89 -75T101 -170T124
-231Q143 -255 157 -261Q160 -267 160 -274T157 -285Q86 -273 40 -269Q33 -227 33 -186T36 -103T47 -7T58 77T73 168T85 237L127 493L201 509Q209 505 217 497Q151 245 151 153T192 60Q244 60 312 175T405 408L424 493L488 509L504 497Z" />
<glyph unicode="&#xb6;" glyph-name="paragraph" horiz-adv-x="839" d="M360 127L299 124Q196 124 138 196T79 388Q79 519 160 620Q198 669 260 698T400 727Q548 727 577 725L519 68Q513 1 508 -29Q495 -107 443 -179L468 -167Q568 -118 584 68L613 413Q626 566
637 720Q715 720 772 717Q775 711 775 700L771 681Q752 683 737 683T716 672Q703 639 688 473L653 76Q633 -150 512 -199L295 -287Q279 -277 279 -257L280 -245L343 -213Q384 -193 404 -140Q428 -82 434 -38Q443 30 448 81L500 685Q472 688 448 688Q403 688 369
651T316 555Q281 442 281 328Q281 164 352 164H389Q392 159 392 145L387 127H360Z" />
<glyph unicode="&#xb7;" glyph-name="middot" horiz-adv-x="159" d="M123 281Q123 264 97 244T48 223Q31 271 11 295Q35 336 84 355Q123 318 123 281Z" />
<glyph unicode="&#xb8;" glyph-name="cedilla" horiz-adv-x="409" d="M174 -87T191 -106T209 -160T189 -224T132 -268H32Q31 -265 31 -259L35 -243Q161 -240 161 -177Q161 -140 88 -117Q81 -116 81 -109L85 -89L115 0H151L135 -68Q174 -87 191 -106Z" />
<glyph unicode="&#xb9;" glyph-name="onesuperior" horiz-adv-x="237" d="M164 685Q181 681 185 671Q171 626 160 500L145 335Q157 332 189 332Q191 328 191 322T188 304H33Q33 323 35 328Q84 338 89 352Q98 380 107 497L116 611L56 595Q45 604 45 621Q102 647 164 685Z" />
<glyph unicode="&#xba;" glyph-name="ordmasculine" horiz-adv-x="341" d="M252 736T276 708T301 627T276 533T209 470T145 449Q105 449 76 477T47 560T79 654T152 715T215 736Q252 736 276 708ZM240 619Q240 704 191 704Q155 704 133 662T111 567Q111 480 164
480Q196 480 218 523T240 619Z" />
<glyph unicode="&#xbb;" glyph-name="guillemotright" horiz-adv-x="503" d="M449 237L448 224Q304 109 228 32Q221 32 216 37T207 51L364 233L261 431Q269 445 288 447Q348 347 449 237ZM293 237L292 224Q148 109 72 32Q65 32 60 37T51 51L208 233L105 431Q113
445 132 447Q192 347 293 237Z" />
<glyph unicode="&#xbc;" glyph-name="onequarter" horiz-adv-x="653" d="M515 725Q517 728 522 728T531 725Q535 720 560 695L359 341Q339 306 259 157T164 -25Q162 -28 157 -28T149 -25Q138 -12 116 5L323 368Q439 572 515 725ZM511 276L413 135H497L511 276ZM580
28Q581 24 581 16T579 0H439Q439 16 440 24Q480 31 487 44Q489 48 495 93L413 95Q384 95 351 92Q345 100 345 108Q372 136 379 147L557 393Q570 393 580 384Q570 338 561 233L552 135Q575 135 583 153L595 180Q607 180 613 173Q608 155 604 129T600 101Q584 93
549 93L544 31Q555 28 580 28ZM184 685Q201 681 205 671Q191 626 180 500L165 335Q177 332 209 332Q211 328 211 322T208 304H53Q53 323 55 328Q104 338 109 352Q118 380 127 497L136 611L76 595Q65 604 65 621Q122 647 184 685Z" />
<glyph unicode="&#xbd;" glyph-name="onehalf" horiz-adv-x="708" d="M515 725Q517 728 522 728T531 725Q535 720 560 695L359 341Q339 306 259 157T164 -25Q162 -28 157 -28T149 -25Q138 -12 116 5L323 368Q439 572 515 725ZM561 -1L495 0H389Q385 8 385 17L488
133Q571 226 571 287Q571 309 560 323T532 337T468 323L455 263Q452 260 443 260T429 263Q428 331 428 337T435 347L539 379Q582 379 609 359T637 295Q637 273 625 248T602 207T567 165L467 48H520Q592 48 599 63L621 109Q638 109 648 103Q629 58 620 8Q600 -1
561 -1ZM184 685Q201 681 205 671Q191 626 180 500L165 335Q177 332 209 332Q211 328 211 322T208 304H53Q53 323 55 328Q104 338 109 352Q118 380 127 497L136 611L76 595Q65 604 65 621Q122 647 184 685Z" />
<glyph unicode="&#xbe;" glyph-name="threequarters" horiz-adv-x="685" d="M547 725Q549 728 554 728T563 725Q567 720 592 695L391 341Q371 306 291 157T196 -25Q194 -28 189 -28T181 -25Q170 -12 148 5L355 368Q471 572 547 725ZM279 436Q279 377 233 335T133
293T39 316Q45 345 72 369Q124 327 151 327T196 358T215 421Q215 479 131 495L216 627H165Q141 627 113 623L104 579Q99 576 92 576T79 579Q80 661 80 668T87 676H209Q251 676 284 681Q289 678 289 668L203 535Q279 508 279 436ZM543 276L445 135H529L543 276ZM612
28Q613 24 613 16T611 0H471Q471 16 472 24Q512 31 519 44Q521 48 527 93L445 95Q416 95 383 92Q377 100 377 108Q404 136 411 147L589 393Q602 393 612 384Q602 338 593 233L584 135Q607 135 615 153L627 180Q639 180 645 173Q640 155 636 129T632 101Q616 93
581 93L576 31Q587 28 612 28Z" />
<glyph unicode="&#xbf;" glyph-name="questiondown" horiz-adv-x="383" d="M51 -56Q51 -20 66 10Q99 73 229 133Q225 144 217 187T208 260Q208 270 239 293T285 316Q285 284 301 223T329 141Q314 132 271 114T197 79T140 33T113 -34T136 -109T188 -171T240 -214T264
-237Q264 -247 247 -282T211 -339Q197 -336 187 -324Q188 -319 197 -299Q117 -229 84 -178T51 -56ZM199 453Q199 470 225 491T273 512Q292 462 311 439Q286 397 237 380Q199 416 199 453Z" />
<glyph unicode="&#xc0;" glyph-name="Agrave" horiz-adv-x="673" d="M471 773Q313 829 221 889Q236 925 268 943Q346 875 448 814L481 795Q481 784 471 773ZM216 308L324 304Q382 304 420 307L359 613L216 308ZM621 -3L516 0Q448 0 393 -8Q391 -6 391 3L393 17Q434
26 449 39T465 72T459 119L427 269Q385 272 321 272L201 269L171 205Q117 93 112 29Q132 28 175 28Q176 23 176 15T172 -3L77 0Q21 0 -24 -8Q-27 4 -27 8L-25 17Q23 31 47 61T123 197L363 688L369 716L421 733L540 169Q565 60 579 31Q604 28 625 28Q627 25 627
17T621 -3Z" />
<glyph unicode="&#xc1;" glyph-name="Aacute" horiz-adv-x="673" d="M340 773Q331 782 329 795Q452 864 543 943Q575 925 589 889Q548 862 486 833T382 788L340 773ZM216 308L324 304Q382 304 420 307L359 613L216 308ZM621 -3L516 0Q448 0 393 -8Q391 -6 391
3L393 17Q434 26 449 39T465 72T459 119L427 269Q385 272 321 272L201 269L171 205Q117 93 112 29Q132 28 175 28Q176 23 176 15T172 -3L77 0Q21 0 -24 -8Q-27 4 -27 8L-25 17Q23 31 47 61T123 197L363 688L369 716L421 733L540 169Q565 60 579 31Q604 28 625 28Q627
25 627 17T621 -3Z" />
<glyph unicode="&#xc2;" glyph-name="Acircumflex" horiz-adv-x="673" d="M405 861L255 761Q249 761 245 765T239 779Q344 869 417 944H429L513 776Q505 761 491 761L405 861ZM216 308L324 304Q382 304 420 307L359 613L216 308ZM621 -3L516 0Q448 0 393 -8Q391
-6 391 3L393 17Q434 26 449 39T465 72T459 119L427 269Q385 272 321 272L201 269L171 205Q117 93 112 29Q132 28 175 28Q176 23 176 15T172 -3L77 0Q21 0 -24 -8Q-27 4 -27 8L-25 17Q23 31 47 61T123 197L363 688L369 716L421 733L540 169Q565 60 579 31Q604 28
625 28Q627 25 627 17T621 -3Z" />
<glyph unicode="&#xc3;" glyph-name="Atilde" horiz-adv-x="673" d="M483 797T478 795T458 793T398 811T334 829T310 828T296 822T284 816Q265 805 260 800Q245 806 245 819L303 867Q329 888 350 888T414 871T484 853T551 883Q564 877 565 864L529 833Q526 831
516 823T502 811T491 803ZM216 308L324 304Q382 304 420 307L359 613L216 308ZM621 -3L516 0Q448 0 393 -8Q391 -6 391 3L393 17Q434 26 449 39T465 72T459 119L427 269Q385 272 321 272L201 269L171 205Q117 93 112 29Q132 28 175 28Q176 23 176 15T172 -3L77
0Q21 0 -24 -8Q-27 4 -27 8L-25 17Q23 31 47 61T123 197L363 688L369 716L421 733L540 169Q565 60 579 31Q604 28 625 28Q627 25 627 17T621 -3Z" />
<glyph unicode="&#xc4;" glyph-name="Adieresis" horiz-adv-x="673" d="M367 841Q367 826 343 809T297 791Q281 835 264 853Q287 890 332 905Q367 874 367 841ZM540 841Q540 826 516 809T471 791Q456 833 437 853Q460 890 505 905Q540 874 540 841ZM216 308L324
304Q382 304 420 307L359 613L216 308ZM621 -3L516 0Q448 0 393 -8Q391 -6 391 3L393 17Q434 26 449 39T465 72T459 119L427 269Q385 272 321 272L201 269L171 205Q117 93 112 29Q132 28 175 28Q176 23 176 15T172 -3L77 0Q21 0 -24 -8Q-27 4 -27 8L-25 17Q23 31
47 61T123 197L363 688L369 716L421 733L540 169Q565 60 579 31Q604 28 625 28Q627 25 627 17T621 -3Z" />
<glyph unicode="&#xc5;" glyph-name="Aring" horiz-adv-x="673" d="M533 900Q533 856 493 815T395 768Q366 768 349 784T332 828Q332 872 366 916T469 968Q498 968 515 949T533 900ZM381 799T413 799T463 829T481 898T450 937T400 908T381 839ZM216 308L324 304Q382
304 420 307L359 613L216 308ZM621 -3L516 0Q448 0 393 -8Q391 -6 391 3L393 17Q434 26 449 39T465 72T459 119L427 269Q385 272 321 272L201 269L171 205Q117 93 112 29Q132 28 175 28Q176 23 176 15T172 -3L77 0Q21 0 -24 -8Q-27 4 -27 8L-25 17Q23 31 47 61T123
197L363 688L369 716L421 733L540 169Q565 60 579 31Q604 28 625 28Q627 25 627 17T621 -3Z" />
<glyph unicode="&#xc6;" glyph-name="AE" horiz-adv-x="964" d="M391 285L260 283L211 205Q135 82 120 29Q140 28 183 28Q184 23 184 15T180 -3L77 0Q21 0 -24 -8Q-27 4 -27 8L-25 17Q25 31 55 61T155 197L483 692Q469 696 421 696Q420 700 420 707T424 723Q424
723 516 720H695L909 727Q923 727 923 717Q923 715 918 692Q902 619 893 544Q887 541 881 541T863 544Q862 560 860 590Q857 661 855 668Q774 689 680 689Q641 689 616 685Q604 661 580 392Q595 388 656 388T759 393T813 433Q828 433 837 427Q825 361 819 269Q811
267 808 267L793 271V347Q739 356 677 356T576 351L560 169Q555 116 555 36Q579 32 617 32Q711 32 808 59Q825 85 857 167Q871 167 887 159Q875 117 855 15Q851 4 841 3Q801 -4 736 -4L583 0H532Q440 0 383 -8Q380 -2 380 5L381 17Q413 24 432 39T456 68Q474 109
492 283Q436 285 391 285ZM283 321Q343 319 406 319T496 320Q521 580 521 683Q499 659 337 406L283 321Z" />
<glyph unicode="&#xc7;" glyph-name="Ccedilla" horiz-adv-x="680" d="M204 114Q228 71 269 46T365 20Q470 20 576 157Q593 157 602 142L605 137Q531 19 512 13Q421 -16 345 -20L335 -68Q374 -87 391 -106T409 -160T389 -224T332 -268H232Q231 -265 231 -259L235
-243Q361 -240 361 -177Q361 -140 288 -117Q281 -116 281 -109L285 -89L308 -19Q193 -11 124 74T55 278T110 502T260 671T463 736T661 704Q667 699 667 695T662 662Q646 569 641 519Q634 515 625 515T607 517Q601 628 597 645Q577 666 534 683T451 700Q371 700
303 641T197 491T159 299T204 114Z" />
<glyph unicode="&#xc8;" glyph-name="Egrave" horiz-adv-x="603" d="M457 773Q300 829 208 889Q224 926 255 943Q333 875 435 814L468 795Q468 784 457 773ZM97 723L193 720H333Q333 720 548 727Q561 727 561 717Q561 715 556 692Q542 630 532 544Q525 541 519
541T501 544Q496 657 493 668Q414 689 319 689Q280 689 255 685Q247 668 241 622T219 392Q232 388 294 388T397 393T452 433Q467 433 476 427Q462 353 457 269Q449 267 447 267L432 271V347Q378 356 314 356T215 351L199 169Q193 106 193 36Q218 32 256 32Q350
32 447 59Q464 85 478 121T496 167Q511 167 525 159Q511 109 493 15Q490 4 480 3Q440 -4 375 -4L221 0H171Q79 0 21 -8Q19 0 19 5L20 17Q52 24 70 39T94 68Q120 129 140 382T160 664T156 693Q139 696 95 696Q93 700 93 704T97 723Z" />
<glyph unicode="&#xc9;" glyph-name="Eacute" horiz-adv-x="603" d="M255 773Q246 782 244 795Q367 864 457 943Q488 926 504 889Q463 862 401 833T297 788L255 773ZM97 723L193 720H333L548 727Q561 727 561 717Q561 715 556 692Q542 630 532 544Q525 541 519
541T501 544Q496 657 493 668Q414 689 319 689Q280 689 255 685Q247 668 241 622T219 392Q232 388 294 388T397 393T452 433Q467 433 476 427Q462 353 457 269Q449 267 447 267L432 271V347Q378 356 314 356T215 351L199 169Q193 106 193 36Q218 32 256 32Q350
32 447 59Q464 85 478 121T496 167Q511 167 525 159Q511 109 493 15Q490 4 480 3Q440 -4 375 -4L221 0H171Q79 0 21 -8Q19 0 19 5L20 17Q52 24 70 39T94 68Q120 129 140 382T160 664T156 693Q139 696 95 696Q93 700 93 704T97 723Z" />
<glyph unicode="&#xca;" glyph-name="Ecircumflex" horiz-adv-x="603" d="M380 861L229 761Q223 761 219 765T213 779Q319 869 392 944H404L488 776Q480 761 465 761L380 861ZM97 723L193 720H333Q333 720 548 727Q561 727 561 717Q561 715 556 692Q542 630 532
544Q525 541 519 541T501 544Q496 657 493 668Q414 689 319 689Q280 689 255 685Q247 668 241 622T219 392Q232 388 294 388T397 393T452 433Q467 433 476 427Q462 353 457 269Q449 267 447 267L432 271V347Q378 356 314 356T215 351L199 169Q193 106 193 36Q218
32 256 32Q350 32 447 59Q464 85 478 121T496 167Q511 167 525 159Q511 109 493 15Q490 4 480 3Q440 -4 375 -4L221 0H171Q79 0 21 -8Q19 0 19 5L20 17Q52 24 70 39T94 68Q120 129 140 382T160 664T156 693Q139 696 95 696Q93 700 93 704T97 723Z" />
<glyph unicode="&#xcb;" glyph-name="Edieresis" horiz-adv-x="603" d="M319 841Q319 826 295 809T249 791Q233 835 216 853Q239 890 284 905Q319 874 319 841ZM492 841Q492 826 468 809T423 791Q408 833 389 853Q412 890 457 905Q492 874 492 841ZM97 723L193
720H333L548 727Q561 727 561 717Q561 715 556 692Q542 630 532 544Q525 541 519 541T501 544Q496 657 493 668Q414 689 319 689Q280 689 255 685Q247 668 241 622T219 392Q232 388 294 388T397 393T452 433Q467 433 476 427Q462 353 457 269Q449 267 447 267L432
271V347Q378 356 314 356T215 351L199 169Q193 106 193 36Q218 32 256 32Q350 32 447 59Q464 85 478 121T496 167Q511 167 525 159Q511 109 493 15Q490 4 480 3Q440 -4 375 -4L221 0H171Q79 0 21 -8Q19 0 19 5L20 17Q52 24 70 39T94 68Q120 129 140 382T160 664T156
693Q139 696 95 696Q93 700 93 704T97 723Z" />
<glyph unicode="&#xcc;" glyph-name="Igrave" horiz-adv-x="339" d="M296 773Q139 829 47 889Q61 925 93 943Q133 908 186 871T274 814L307 795Q307 784 296 773ZM83 723L211 720L325 723Q327 719 327 712L323 696Q284 696 263 693Q247 691 228 464L215 301Q201
137 201 82T204 27Q228 24 297 24Q299 20 299 16T295 -3L167 0Q75 0 13 -8Q9 0 9 8L11 16Q67 28 83 44T107 97Q128 211 139 352L148 464Q159 591 159 642T152 693Q119 696 80 696Q79 700 79 708T83 723Z" />
<glyph unicode="&#xcd;" glyph-name="Iacute" horiz-adv-x="339" d="M165 773Q157 783 155 795Q277 864 368 943Q400 925 415 889Q374 862 312 833T207 788L165 773ZM83 723L211 720L325 723Q327 719 327 712L323 696Q284 696 263 693Q247 691 228 464L215 301Q201
137 201 82T204 27Q228 24 297 24Q299 20 299 16T295 -3L167 0Q75 0 13 -8Q9 0 9 8L11 16Q67 28 83 44T107 97Q128 211 139 352L148 464Q159 591 159 642T152 693Q119 696 80 696Q79 700 79 708T83 723Z" />
<glyph unicode="&#xce;" glyph-name="Icircumflex" horiz-adv-x="339" d="M239 861L88 761Q82 761 78 765T72 779Q177 869 251 944H263L347 776Q339 761 324 761L239 861ZM83 723L211 720Q211 720 325 723Q327 719 327 712L323 696Q284 696 263 693Q247 691 228
464L215 301Q201 137 201 82T204 27Q228 24 297 24Q299 20 299 16T295 -3L167 0Q75 0 13 -8Q9 0 9 8L11 16Q67 28 83 44T107 97Q128 211 139 352L148 464Q159 591 159 642T152 693Q119 696 80 696Q79 700 79 708T83 723Z" />
<glyph unicode="&#xcf;" glyph-name="Idieresis" horiz-adv-x="339" d="M175 841Q175 826 151 809T105 791Q89 835 72 853Q95 890 140 905Q175 874 175 841ZM348 841Q348 826 324 809T279 791Q264 833 245 853Q268 890 313 905Q348 874 348 841ZM83 723L211 720L325
723Q327 719 327 712L323 696Q284 696 263 693Q247 691 228 464L215 301Q201 137 201 82T204 27Q228 24 297 24Q299 20 299 16T295 -3L167 0Q75 0 13 -8Q9 0 9 8L11 16Q67 28 83 44T107 97Q128 211 139 352L148 464Q159 591 159 642T152 693Q119 696 80 696Q79
700 79 708T83 723Z" />
<glyph unicode="&#xd0;" glyph-name="Eth" horiz-adv-x="737" d="M321 -4L188 0Q79 0 21 -8Q19 0 19 5L20 17Q52 24 70 39T94 68T109 120T136 341Q102 341 60 335Q52 339 52 347Q62 368 67 391H141Q156 560 156 620T148 681Q105 681 75 679Q72 685 72 693T75 705Q82
706 120 710T192 718Q282 727 359 727Q510 727 600 651T691 428Q691 317 647 219T516 59T321 -4ZM217 396Q217 394 216 391Q324 391 399 399Q407 397 407 385Q392 366 392 343H212Q191 105 191 49Q245 32 323 32T466 85T563 223T595 408Q595 536 527 614T339 692Q281
692 252 687Q239 643 217 396Z" />
<glyph unicode="&#xd1;" glyph-name="Ntilde" horiz-adv-x="799" d="M541 797T536 795T516 793T456 811T392 829T368 828T354 822T342 816Q323 805 318 800Q303 806 303 819L361 867Q387 888 408 888T472 871T542 853T609 883Q622 877 623 864L587 833Q584 831
574 823T560 811T549 803ZM224 -3L123 0Q60 0 17 -8Q15 -4 15 5L16 17Q60 28 76 49T101 104Q132 247 169 653Q143 682 128 690T67 703Q65 707 65 715T69 729Q88 728 113 728L216 733Q244 733 374 539T624 136Q627 215 642 405T657 634T656 693Q635 696 583 696Q580
701 580 708T584 723L680 720Q743 720 785 728Q787 725 787 717L785 703Q741 692 727 672T708 616Q688 478 644 -15L620 -25Q589 28 485 192T340 421Q255 559 196 623Q193 585 184 478T169 308Q155 134 155 89T156 27Q176 24 227 24Q228 20 228 12T224 -3Z" />
<glyph unicode="&#xd2;" glyph-name="Ograve" horiz-adv-x="747" d="M507 773Q349 829 257 889Q272 925 304 943Q382 875 484 814L517 795Q517 784 507 773ZM700 431Q700 349 682 281T637 167T573 86T501 32T431 0Q376 -20 340 -20Q215 -20 135 67T55 283Q55 365
73 434T121 548T188 629T262 684T332 716Q389 736 416 736Q540 736 620 648T700 431ZM372 32Q432 32 478 62T552 144Q605 247 605 374T547 593T387 685Q309 685 254 632Q149 531 149 335Q149 213 210 123T372 32Z" />
<glyph unicode="&#xd3;" glyph-name="Oacute" horiz-adv-x="747" d="M337 773Q329 783 327 795Q449 864 540 943Q572 925 587 889Q546 862 484 833T379 788L337 773ZM700 431Q700 349 682 281T637 167T573 86T501 32T431 0Q376 -20 340 -20Q215 -20 135 67T55
283Q55 365 73 434T121 548T188 629T262 684T332 716Q389 736 416 736Q540 736 620 648T700 431ZM372 32Q432 32 478 62T552 144Q605 247 605 374T547 593T387 685Q309 685 254 632Q149 531 149 335Q149 213 210 123T372 32Z" />
<glyph unicode="&#xd4;" glyph-name="Ocircumflex" horiz-adv-x="747" d="M460 861L309 761Q303 761 299 765T293 779Q399 869 472 944H484L568 776Q560 761 545 761L460 861ZM700 431Q700 349 682 281T637 167T573 86T501 32T431 0Q376 -20 340 -20Q215 -20 135
67T55 283Q55 365 73 434T121 548T188 629T262 684T332 716Q389 736 416 736Q540 736 620 648T700 431ZM372 32Q432 32 478 62T552 144Q605 247 605 374T547 593T387 685Q309 685 254 632Q149 531 149 335Q149 213 210 123T372 32Z" />
<glyph unicode="&#xd5;" glyph-name="Otilde" horiz-adv-x="747" d="M700 431Q700 349 682 281T637 167T573 86T501 32T431 0Q376 -20 340 -20Q215 -20 135 67T55 283Q55 365 73 434T121 548T188 629T262 684T332 716Q389 736 416 736Q540 736 620 648T700 431ZM372
32Q432 32 478 62T552 144Q605 247 605 374T547 593T387 685Q309 685 254 632Q149 531 149 335Q149 213 210 123T372 32ZM575 833Q529 793 509 793T443 811T379 829T355 828T341 822T330 816Q310 805 305 800Q291 805 291 819L348 867Q374 888 395 888T459 871T529
853T596 883Q609 878 611 864L575 833Z" />
<glyph unicode="&#xd6;" glyph-name="Odieresis" horiz-adv-x="747" d="M700 431Q700 349 682 281T637 167T573 86T501 32T431 0Q376 -20 340 -20Q215 -20 135 67T55 283Q55 365 73 434T121 548T188 629T262 684T332 716Q389 736 416 736Q540 736 620 648T700
431ZM372 32Q432 32 478 62T552 144Q605 247 605 374T547 593T387 685Q309 685 254 632Q149 531 149 335Q149 213 210 123T372 32ZM396 841Q396 826 372 809T327 791Q312 833 293 853Q316 890 361 905Q396 874 396 841ZM569 841Q569 826 545 809T500 791Q484 835
467 853Q488 889 535 905Q569 874 569 841Z" />
<glyph unicode="&#xd7;" glyph-name="multiply" horiz-adv-x="457" d="M381 121Q379 110 376 105Q361 98 339 77L224 223Q138 147 79 87Q72 87 67 93Q65 99 47 135L193 263Q139 331 79 396Q79 406 83 411Q91 416 120 439L232 296Q294 350 379 437Q387 437 392
431Q394 423 411 389L263 257Q322 183 381 121Z" />
<glyph unicode="&#xd8;" glyph-name="Oslash" horiz-adv-x="747" d="M700 431Q700 349 682 281T637 167T573 86T501 32T431 0Q376 -20 340 -20Q258 -20 195 17Q156 -46 137 -84Q134 -87 131 -87T124 -85Q116 -60 99 -45L156 47Q108 88 82 149T55 288T73 434T121
548T188 629T262 684T332 716Q389 736 416 736Q491 736 559 697Q599 767 613 796Q617 800 621 800T629 799Q637 782 657 756L600 667Q700 578 700 431ZM372 32Q432 32 478 62T552 144Q605 247 605 375T549 588L435 407Q352 278 239 89Q293 32 372 32ZM517 629Q461
685 385 685T254 632Q149 531 149 335Q149 213 207 128L517 629Z" />
<glyph unicode="&#xd9;" glyph-name="Ugrave" horiz-adv-x="764" d="M555 773Q397 829 305 889Q320 925 352 943Q430 875 532 814L565 795Q565 784 555 773ZM547 723L655 720Q721 720 759 728Q763 722 763 713L761 703Q731 696 712 676T688 640Q665 573 640 284Q627
137 555 59T353 -20Q108 -20 108 229Q108 263 122 475T137 693Q120 696 81 696Q80 700 80 707T84 723L171 720Q253 720 303 728Q307 722 307 713L305 703Q260 692 245 676T224 628Q211 557 198 405T185 245Q185 141 230 82T365 23Q482 23 534 93T599 309Q601 337
606 391T612 465T617 521T620 579T622 631T623 693Q603 696 545 696Q544 701 544 709T547 723Z" />
<glyph unicode="&#xda;" glyph-name="Uacute" horiz-adv-x="764" d="M385 773Q377 783 375 795Q497 864 588 943Q620 925 635 889Q594 862 532 833T427 788L385 773ZM547 723L655 720Q721 720 759 728Q763 722 763 713L761 703Q731 696 712 676T688 640Q665 573
640 284Q627 137 555 59T353 -20Q108 -20 108 229Q108 263 122 475T137 693Q120 696 81 696Q80 700 80 707T84 723L171 720Q253 720 303 728Q307 722 307 713L305 703Q260 692 245 676T224 628Q211 557 198 405T185 245Q185 141 230 82T365 23Q482 23 534 93T599
309Q601 337 606 391T612 465T617 521T620 579T622 631T623 693Q603 696 545 696Q544 701 544 709T547 723Z" />
<glyph unicode="&#xdb;" glyph-name="Ucircumflex" horiz-adv-x="764" d="M464 861L313 761Q307 761 303 765T297 779Q403 869 476 944H488L572 776Q564 761 549 761L464 861ZM547 723L655 720Q721 720 759 728Q763 722 763 713L761 703Q731 696 712 676T688 640Q665
573 640 284Q627 137 555 59T353 -20Q108 -20 108 229Q108 263 122 475T137 693Q120 696 81 696Q80 700 80 707T84 723L171 720Q253 720 303 728Q307 722 307 713L305 703Q260 692 245 676T224 628Q211 557 198 405T185 245Q185 141 230 82T365 23Q482 23 534 93T599
309Q601 337 606 391T612 465T617 521T620 579T622 631T623 693Q603 696 545 696Q544 701 544 709T547 723Z" />
<glyph unicode="&#xdc;" glyph-name="Udieresis" horiz-adv-x="764" d="M547 723L655 720Q721 720 759 728Q763 722 763 713L761 703Q731 696 712 676T688 640Q665 573 640 284Q627 137 555 59T353 -20Q108 -20 108 229Q108 263 122 475T137 693Q120 696 81 696Q80
700 80 707T84 723Q84 723 171 720Q253 720 303 728Q307 722 307 713L305 703Q260 692 245 676T224 628Q211 557 198 405T185 245Q185 141 230 82T365 23Q482 23 534 93T599 309Q601 337 606 391T612 465T617 521T620 579T622 631T623 693Q603 696 545 696Q544
701 544 709T547 723ZM411 841Q411 826 387 809T341 791Q325 835 308 853Q331 890 376 905Q411 874 411 841ZM584 841Q584 826 560 809T515 791Q500 833 481 853Q504 890 549 905Q584 874 584 841Z" />
<glyph unicode="&#xdd;" glyph-name="Yacute" horiz-adv-x="588" d="M319 773Q310 782 308 795Q431 864 521 943Q552 926 568 889Q527 862 465 833T361 788L319 773ZM51 728L140 733Q145 733 160 714T197 660T239 580Q289 474 305 369Q336 457 380 551T468 690T545
736Q577 736 600 714L608 707Q593 661 565 632Q551 645 543 649T519 653Q493 653 459 610T395 500Q322 337 315 220Q312 180 312 113L313 35Q350 28 405 28Q405 8 403 -3L271 0Q167 0 97 -8Q95 -4 95 5L96 17Q161 25 186 44T221 96Q236 156 236 256T191 468T91
656Q72 682 55 691T1 703Q0 707 0 714T4 729L51 728Z" />
<glyph unicode="&#xde;" glyph-name="Thorn" horiz-adv-x="535" d="M83 723L211 720L325 723Q327 719 327 712L323 696Q284 696 263 693Q252 691 240 587Q296 589 323 589Q418 589 476 540T535 394T463 222T288 145Q229 145 204 148Q201 112 201 72T204 31Q232
28 305 28Q307 20 307 16T303 -3L167 0Q75 0 13 -8Q9 0 9 8L11 16Q67 28 83 44T107 97Q128 212 139 352L148 464Q159 593 159 643T152 693Q119 696 80 696Q79 700 79 708T83 723ZM267 183Q343 183 392 242T441 380T401 507T293 555Q262 555 236 549L205 185Q224
183 267 183Z" />
<glyph unicode="&#xdf;" glyph-name="germandbls" horiz-adv-x="556" d="M375 480T355 455T335 403T366 340T433 275T501 204T532 128Q532 65 480 23T353 -20Q317 -20 271 -9T203 15L245 151Q260 151 269 144Q267 128 267 94T268 52Q276 40 301 29T361 17T421
41T447 99T428 160T382 210T328 256Q263 313 263 369Q263 437 336 492Q366 516 396 539T447 596T468 675T426 767T335 813Q302 813 261 749T212 623L137 -69Q128 -150 105 -211T56 -303T0 -353Q-43 -380 -81 -380T-183 -356Q-173 -307 -143 -283Q-113 -305 -82
-320T-35 -335Q-9 -335 19 -270T59 -107L137 591Q145 658 171 710T228 788T294 832Q347 856 381 856Q439 856 485 811T531 709T511 611T462 546T404 501Z" />
<glyph unicode="&#xe0;" glyph-name="agrave" horiz-adv-x="537" d="M167 60Q214 60 290 165T387 371L404 453Q337 453 297 448Q241 441 179 357T117 166T167 60ZM483 521Q423 196 423 132T441 68Q445 68 504 89Q513 82 513 65Q444 36 422 20Q378 -13 367 -24L351
-17Q340 -1 340 56T360 225Q231 19 129 -20Q92 -13 66 25T40 125Q40 222 84 299Q147 412 262 467Q316 493 348 499Q415 506 419 508L471 528Q476 528 483 521ZM425 573Q287 665 211 745Q223 785 264 795Q295 750 339 699T412 620L441 592Q439 581 425 573Z" />
<glyph unicode="&#xe1;" glyph-name="aacute" horiz-adv-x="537" d="M167 60Q214 60 290 165T387 371L404 453Q337 453 297 448Q241 441 179 357T117 166T167 60ZM483 521Q423 196 423 132T441 68Q445 68 504 89Q513 82 513 65Q444 36 422 20Q378 -13 367 -24L351
-17Q340 -1 340 56T360 225Q231 19 129 -20Q92 -13 66 25T40 125Q40 222 84 299Q147 412 262 467Q316 493 348 499Q415 506 419 508L471 528Q476 528 483 521ZM304 573Q292 581 288 592Q396 693 465 795Q507 785 519 745Q485 709 432 666T341 598L304 573Z" />
<glyph unicode="&#xe2;" glyph-name="acircumflex" horiz-adv-x="537" d="M167 60Q214 60 290 165T387 371L404 453Q337 453 297 448Q241 441 179 357T117 166T167 60ZM483 521Q423 196 423 132T441 68Q445 68 504 89Q513 82 513 65Q444 36 422 20Q378 -13 367
-24L351 -17Q340 -1 340 56T360 225Q231 19 129 -20Q92 -13 66 25T40 125Q40 222 84 299Q147 412 262 467Q316 493 348 499Q415 506 419 508L471 528Q476 528 483 521ZM365 661L215 547Q208 547 204 551T197 564Q304 669 377 756H389L476 559Q465 547 451 547L365
661Z" />
<glyph unicode="&#xe3;" glyph-name="atilde" horiz-adv-x="537" d="M167 60Q214 60 290 165T387 371L404 453Q337 453 297 448Q241 441 179 357T117 166T167 60ZM483 521Q423 196 423 132T441 68Q445 68 504 89Q513 82 513 65Q444 36 422 20Q378 -13 367 -24L351
-17Q340 -1 340 56T360 225Q231 19 129 -20Q92 -13 66 25T40 125Q40 222 84 299Q147 412 262 467Q316 493 348 499Q415 506 419 508L471 528Q476 528 483 521ZM420 613Q396 613 351 631T287 649T263 648T249 642T238 636Q218 625 213 620Q199 625 199 639L256 687Q282
708 303 708T367 691T437 673T504 703Q517 698 519 684L483 653Q435 613 420 613Z" />
<glyph unicode="&#xe4;" glyph-name="adieresis" horiz-adv-x="537" d="M167 60Q214 60 290 165T387 371L404 453Q337 453 297 448Q241 441 179 357T117 166T167 60ZM483 521Q423 196 423 132T441 68Q445 68 504 89Q513 82 513 65Q444 36 422 20Q378 -13 367 -24L351
-17Q340 -1 340 56T360 225Q231 19 129 -20Q92 -13 66 25T40 125Q40 222 84 299Q147 412 262 467Q316 493 348 499Q415 506 419 508L471 528Q476 528 483 521ZM317 665Q317 650 293 633T248 615Q232 659 215 677Q236 713 283 729Q317 698 317 665ZM491 665Q491
650 467 633T421 615Q405 659 388 677Q411 714 456 729Q491 698 491 665Z" />
<glyph unicode="&#xe5;" glyph-name="aring" horiz-adv-x="537" d="M167 60Q214 60 290 165T387 371L404 453Q337 453 297 448Q241 441 179 357T117 166T167 60ZM483 521Q423 196 423 132T441 68Q445 68 504 89Q513 82 513 65Q444 36 422 20Q378 -13 367 -24L351
-17Q340 -1 340 56T360 225Q231 19 129 -20Q92 -13 66 25T40 125Q40 222 84 299Q147 412 262 467Q316 493 348 499Q415 506 419 508L471 528Q476 528 483 521ZM456 685Q456 641 416 600T317 553Q289 553 272 569T255 613Q255 658 289 701T392 753Q421 753 438 734T456
685ZM341 723T323 694T304 624T335 584T385 614T404 683T373 723Z" />
<glyph unicode="&#xe6;" glyph-name="ae" horiz-adv-x="709" d="M691 411Q691 328 579 255Q505 205 424 192Q424 125 443 83T500 41Q561 41 651 101Q662 99 664 81L543 1Q512 -20 458 -20T373 28T343 152Q343 181 347 204Q226 16 129 -20Q92 -13 66 25T40 125Q40
222 84 299Q147 412 262 467Q316 493 348 499Q415 506 419 508L471 528Q476 528 483 521L468 440Q516 483 572 509Q629 509 660 488T691 411ZM167 60Q214 60 290 165T387 371L404 453Q337 453 297 448Q241 441 179 357T117 166T167 60ZM552 468Q518 468 475 385T425
215Q492 231 545 276Q609 333 609 385Q609 468 552 468Z" />
<glyph unicode="&#xe7;" glyph-name="ccedilla" horiz-adv-x="409" d="M255 459Q213 459 170 373T127 175Q127 120 148 81T203 41Q265 41 353 101Q363 98 367 81L245 1Q201 -17 188 -19L177 -68Q216 -87 234 -106T252 -160T231 -224T175 -268H75Q73 -265 73 -259L77
-243Q204 -240 204 -177Q204 -140 131 -117Q124 -116 124 -109L128 -89L151 -19Q99 -13 72 32T45 150T70 290T129 398T202 464Q270 509 304 509Q318 509 393 496Q393 477 384 455T364 420Q286 459 255 459Z" />
<glyph unicode="&#xe8;" glyph-name="egrave" horiz-adv-x="409" d="M391 411Q391 328 279 255Q205 205 124 192Q124 125 143 83T200 41Q261 41 351 101Q362 99 364 81L243 1Q212 -20 158 -20T73 28T43 152Q43 264 104 362T272 509Q329 509 360 488T391 411ZM252
468Q218 468 175 385T125 215Q192 231 245 276Q309 333 309 385Q309 468 252 468ZM345 573Q207 665 131 745Q143 785 184 795Q215 750 259 699T332 620L361 592Q359 581 345 573Z" />
<glyph unicode="&#xe9;" glyph-name="eacute" horiz-adv-x="409" d="M391 411Q391 328 279 255Q205 205 124 192Q124 125 143 83T200 41Q261 41 351 101Q362 99 364 81L243 1Q212 -20 158 -20T73 28T43 152Q43 264 104 362T272 509Q329 509 360 488T391 411ZM252
468Q218 468 175 385T125 215Q192 231 245 276Q309 333 309 385Q309 468 252 468ZM247 573Q235 581 231 592Q339 693 408 795Q449 785 461 745Q427 709 374 666T284 598L247 573Z" />
<glyph unicode="&#xea;" glyph-name="ecircumflex" horiz-adv-x="409" d="M391 411Q391 328 279 255Q205 205 124 192Q124 125 143 83T200 41Q261 41 351 101Q362 99 364 81L243 1Q212 -20 158 -20T73 28T43 152Q43 264 104 362T272 509Q329 509 360 488T391 411ZM252
468Q218 468 175 385T125 215Q192 231 245 276Q309 333 309 385Q309 468 252 468ZM301 661L151 547Q144 547 140 551T133 564Q240 669 313 756H325L412 559Q401 547 387 547L301 661Z" />
<glyph unicode="&#xeb;" glyph-name="edieresis" horiz-adv-x="409" d="M391 411Q391 328 279 255Q205 205 124 192Q124 125 143 83T200 41Q261 41 351 101Q362 99 364 81L243 1Q212 -20 158 -20T73 28T43 152Q43 264 104 362T272 509Q329 509 360 488T391 411ZM252
468Q218 468 175 385T125 215Q192 231 245 276Q309 333 309 385Q309 468 252 468ZM259 665Q259 650 235 633T189 615Q173 659 156 677Q179 714 224 729Q259 698 259 665ZM432 665Q432 650 408 633T363 615Q348 657 329 677Q352 714 397 729Q432 698 432 665Z" />
<glyph unicode="&#xec;" glyph-name="igrave" horiz-adv-x="271" d="M204 479Q204 405 181 277T157 108T172 68Q181 68 236 89Q245 83 245 65Q155 28 96 -24L80 -17Q72 -1 72 45T95 207T119 366T101 409Q88 409 48 388Q39 397 39 412Q75 432 119 463T185 516L203
511Q204 499 204 479ZM225 573Q87 665 11 745Q23 785 64 795Q95 750 139 699T212 620L241 592Q239 581 225 573Z" />
<glyph unicode="&#xed;" glyph-name="iacute" horiz-adv-x="271" d="M204 479Q204 405 181 277T157 108T172 68Q181 68 236 89Q245 83 245 65Q155 28 96 -24L80 -17Q72 -1 72 45T95 207T119 366T101 409Q88 409 48 388Q39 397 39 412Q75 432 119 463T185 516L203
511Q204 499 204 479ZM119 573Q107 581 103 592Q211 693 280 795Q321 785 333 745Q299 709 246 666T156 598L119 573Z" />
<glyph unicode="&#xee;" glyph-name="icircumflex" horiz-adv-x="272" d="M204 479Q204 405 181 277T157 108T172 68Q181 68 236 89Q245 83 245 65Q155 28 96 -24L80 -17Q72 -1 72 45T95 207T119 366T101 409Q88 409 48 388Q39 397 39 412Q75 432 119 463T185
516L203 511Q204 499 204 479ZM200 661L49 547Q42 547 38 551T32 564Q139 669 212 756H224L311 559Q300 547 285 547L200 661Z" />
<glyph unicode="&#xef;" glyph-name="idieresis" horiz-adv-x="271" d="M137 665Q137 650 113 633T68 615Q52 659 35 677Q56 713 103 729Q137 698 137 665ZM297 665Q297 650 273 633T228 615Q212 659 195 677Q216 713 263 729Q297 698 297 665ZM204 479Q204 405
181 277T157 108T172 68Q181 68 236 89Q245 83 245 65Q155 28 96 -24L80 -17Q72 -1 72 45T95 207T119 366T101 409Q88 409 48 388Q39 397 39 412Q75 432 119 463T185 516L203 511Q204 499 204 479Z" />
<glyph unicode="&#xf0;" glyph-name="eth" horiz-adv-x="509" d="M464 319Q464 218 419 135Q397 94 364 62T300 12Q237 -20 205 -20Q140 -20 93 31T45 168Q45 283 104 367Q150 432 211 470T297 509T344 499Q312 584 240 657L117 597Q103 607 101 639L208 685Q151
735 77 775Q77 784 84 796T97 811Q193 766 259 713L389 776Q405 764 405 736L292 685Q464 527 464 319ZM295 25T337 109T379 280T367 419Q336 463 273 463T171 380T132 195Q132 25 235 25Q295 25 337 109Z" />
<glyph unicode="&#xf1;" glyph-name="ntilde" horiz-adv-x="556" d="M409 591Q385 591 340 609T270 627T203 597Q188 603 188 616L245 664Q271 685 292 685T357 668T432 651Q448 651 493 680Q507 674 508 661L472 631Q424 591 409 591ZM401 340Q401 429 354 429T236
322T153 113L140 -5L64 -20L101 253Q109 317 109 344Q109 409 83 409Q76 409 36 388Q24 398 24 412Q99 453 164 516L181 511Q185 484 185 451T182 383T173 301T165 240Q268 470 384 509Q479 509 479 380Q479 331 462 236T445 117T448 84T465 73T515 89Q524 80 524
65Q450 35 372 -24L356 -17Q356 65 378 186T401 340Z" />
<glyph unicode="&#xf2;" glyph-name="ograve" horiz-adv-x="509" d="M380 509T422 457T464 311T419 135Q397 94 364 62T300 12Q237 -20 205 -20Q140 -20 93 31T45 168Q45 278 104 367Q149 434 216 471T317 509Q380 509 422 457ZM295 25T337 109T380 283Q380 463
284 463Q240 463 205 422T151 320T132 195Q132 25 235 25Q295 25 337 109ZM389 573Q251 665 175 745Q187 785 228 795Q259 750 303 699T376 620L405 592Q403 581 389 573Z" />
<glyph unicode="&#xf3;" glyph-name="oacute" horiz-adv-x="509" d="M380 509T422 457T464 311T419 135Q397 94 364 62T300 12Q237 -20 205 -20Q140 -20 93 31T45 168Q45 278 104 367Q149 434 216 471T317 509Q380 509 422 457ZM295 25T337 109T380 283Q380 463
284 463Q240 463 205 422T151 320T132 195Q132 25 235 25Q295 25 337 109ZM268 573Q256 581 252 592Q360 693 429 795Q471 785 483 745Q449 709 396 666T305 598L268 573Z" />
<glyph unicode="&#xf4;" glyph-name="ocircumflex" horiz-adv-x="509" d="M380 509T422 457T464 311T419 135Q397 94 364 62T300 12Q237 -20 205 -20Q140 -20 93 31T45 168Q45 278 104 367Q149 434 216 471T317 509Q380 509 422 457ZM295 25T337 109T380 283Q380
463 284 463Q240 463 205 422T151 320T132 195Q132 25 235 25Q295 25 337 109ZM344 661L193 547Q186 547 182 551T176 564Q283 669 356 756H368L455 559Q444 547 429 547L344 661Z" />
<glyph unicode="&#xf5;" glyph-name="otilde" horiz-adv-x="509" d="M380 509T422 457T464 311T419 135Q397 94 364 62T300 12Q237 -20 205 -20Q140 -20 93 31T45 168Q45 278 104 367Q149 434 216 471T317 509Q380 509 422 457ZM295 25T337 109T380 283Q380 463
284 463Q240 463 205 422T151 320T132 195Q132 25 235 25Q295 25 337 109ZM391 591Q367 591 322 609T250 627T184 597Q169 603 169 616L227 664Q253 685 274 685T338 668T413 651Q430 651 475 680Q488 674 489 661L453 631Q405 591 391 591Z" />
<glyph unicode="&#xf6;" glyph-name="odieresis" horiz-adv-x="509" d="M380 509T422 457T464 311T419 135Q397 94 364 62T300 12Q237 -20 205 -20Q140 -20 93 31T45 168Q45 278 104 367Q149 434 216 471T317 509Q380 509 422 457ZM295 25T337 109T380 283Q380
463 284 463Q240 463 205 422T151 320T132 195Q132 25 235 25Q295 25 337 109ZM295 665Q295 650 271 633T225 615Q209 659 192 677Q215 714 260 729Q295 698 295 665ZM468 665Q468 650 444 633T399 615Q384 657 365 677Q388 714 433 729Q468 698 468 665Z" />
<glyph unicode="&#xf7;" glyph-name="divide" horiz-adv-x="520" d="M55 244Q63 265 71 292H288Q375 292 459 301Q465 295 465 285L449 237H231Q146 237 61 229Q55 233 55 244ZM319 392Q319 376 296 358T252 339Q238 382 219 404Q241 441 284 457Q319 427 319
392ZM287 115Q287 100 264 82T220 63Q204 105 187 127Q206 164 252 181Q287 149 287 115Z" />
<glyph unicode="&#xf8;" glyph-name="oslash" horiz-adv-x="509" d="M53 -71Q51 -72 46 -72T37 -68Q32 -48 19 -29L79 49Q45 97 45 168Q45 278 104 367Q149 434 216 471T324 509T403 477Q437 527 457 561Q460 563 464 563T473 559Q477 544 492 520L432 441Q464
390 464 319Q464 218 419 135Q397 94 364 62T300 12Q237 -20 205 -20Q150 -20 109 15Q77 -31 53 -71ZM380 293Q380 328 373 365Q264 227 152 75Q177 25 236 25T337 109T380 293ZM169 381T151 320T132 205T137 125Q241 257 328 376L357 415Q331 463 286 463T205
422Z" />
<glyph unicode="&#xf9;" glyph-name="ugrave" horiz-adv-x="552" d="M125 -20T99 12T72 103T90 268T109 416Q106 416 80 404T47 388Q39 396 35 412Q103 461 165 516L183 511Q187 479 187 447T168 304T149 163Q149 60 192 60Q245 60 314 176T405 408L421 493L495
505Q435 154 435 124Q435 68 447 68T512 89Q521 83 521 65Q474 46 447 28T381 -24L365 -17Q359 3 359 66T380 252Q344 162 287 84T164 -20Q125 -20 99 12ZM389 573Q251 665 175 745Q187 785 228 795Q259 750 303 699T376 620L405 592Q403 581 389 573Z" />
<glyph unicode="&#xfa;" glyph-name="uacute" horiz-adv-x="552" d="M277 573Q265 581 261 592Q369 693 439 795Q480 785 492 745Q458 709 405 666T314 598L277 573ZM125 -20T99 12T72 103T90 268T109 416Q106 416 80 404T47 388Q39 396 35 412Q103 461 165 516L183
511Q187 479 187 447T168 304T149 163Q149 60 192 60Q245 60 314 176T405 408L421 493L495 505Q435 154 435 124Q435 68 447 68T512 89Q521 83 521 65Q474 46 447 28T381 -24L365 -17Q359 3 359 66T380 252Q344 162 287 84T164 -20Q125 -20 99 12Z" />
<glyph unicode="&#xfb;" glyph-name="ucircumflex" horiz-adv-x="552" d="M125 -20T99 12T72 103T90 268T109 416Q106 416 80 404T47 388Q39 396 35 412Q103 461 165 516L183 511Q187 479 187 447T168 304T149 163Q149 60 192 60Q245 60 314 176T405 408L421 493L495
505Q435 154 435 124Q435 68 447 68T512 89Q521 83 521 65Q474 46 447 28T381 -24L365 -17Q359 3 359 66T380 252Q344 162 287 84T164 -20Q125 -20 99 12ZM344 661L193 547Q186 547 182 551T176 564Q283 669 356 756H368L455 559Q444 547 429 547L344 661Z" />
<glyph unicode="&#xfc;" glyph-name="udieresis" horiz-adv-x="552" d="M288 665Q288 650 264 633T219 615Q204 657 185 677Q208 714 253 729Q288 698 288 665ZM461 665Q461 650 437 633T392 615Q376 659 359 677Q380 713 427 729Q461 698 461 665ZM125 -20T99
12T72 103T90 268T109 416Q106 416 80 404T47 388Q39 396 35 412Q103 461 165 516L183 511Q187 479 187 447T168 304T149 163Q149 60 192 60Q245 60 314 176T405 408L421 493L495 505Q435 154 435 124Q435 68 447 68T512 89Q521 83 521 65Q474 46 447 28T381 -24L365
-17Q359 3 359 66T380 252Q344 162 287 84T164 -20Q125 -20 99 12Z" />
<glyph unicode="&#xfd;" glyph-name="yacute" horiz-adv-x="419" d="M-119 -352L-207 -300Q-204 -283 -191 -273Q-165 -287 -151 -287Q-37 -287 151 -68Q108 247 96 307Q75 412 55 412Q49 412 11 376Q-3 380 -5 396Q59 473 95 521L113 520Q163 437 211 7Q268 88
303 182T339 348Q339 387 326 407T289 441Q317 496 357 515Q403 492 403 436Q403 345 355 214T221 -31T58 -214T-119 -352ZM207 573Q195 581 191 592Q299 693 368 795Q409 785 421 745Q387 709 334 666T244 598L207 573Z" />
<glyph unicode="&#xfe;" glyph-name="thorn" horiz-adv-x="533" d="M72 811L69 823L72 836Q163 849 243 876Q251 876 255 867Q240 768 177 293Q284 473 392 509Q437 503 466 459T495 343T472 207T416 105T344 43Q278 0 237 0H143Q107 -257 107 -291T115 -325Q139
-327 217 -327Q220 -335 220 -345T217 -360H63Q-1 -360 -49 -364Q-53 -357 -53 -348L-52 -336Q-11 -331 4 -315T27 -268Q54 -146 80 63L140 549Q165 756 165 772Q165 804 135 808L72 811ZM353 429Q310 429 252 357T172 209Q155 131 149 61Q208 51 284 51Q332 51
374 131T416 313Q416 366 399 397T353 429Z" />
<glyph unicode="&#xff;" glyph-name="ydieresis" horiz-adv-x="419" d="M-119 -352L-207 -300Q-204 -283 -191 -273Q-165 -287 -151 -287Q-37 -287 151 -68Q108 247 96 307Q75 412 55 412Q49 412 11 376Q-3 380 -5 396Q59 473 95 521L113 520Q163 437 211 7Q268
88 303 182T339 348Q339 387 326 407T289 441Q317 496 357 515Q403 492 403 436Q403 345 355 214T221 -31T58 -214T-119 -352ZM231 665Q231 650 207 633T161 615Q145 659 128 677Q151 714 196 729Q231 698 231 665ZM404 665Q404 650 380 633T335 615Q320 657 301
677Q324 714 369 729Q404 698 404 665Z" />
<glyph unicode="&#x2013;" glyph-name="endash" horiz-adv-x="632" d="M312 272Q477 272 592 281Q600 279 600 265Q585 239 583 217H309Q147 217 32 209Q24 213 24 224Q34 245 41 272H312Z" />
<glyph unicode="&#x2014;" glyph-name="emdash" horiz-adv-x="1040" d="M520 272Q807 272 1001 281Q1009 279 1009 265Q996 242 992 217H517Q227 217 32 209Q24 213 24 224Q34 245 41 272H520Z" />
<glyph unicode="&#x2018;" glyph-name="quoteleft" horiz-adv-x="153" d="M113 725Q113 699 155 653Q123 606 77 593Q40 641 40 674T73 761T148 856Q164 851 167 839Q113 769 113 725Z" />
<glyph unicode="&#x2019;" glyph-name="quoteright" horiz-adv-x="173" d="M47 608Q100 681 100 724Q100 749 59 793Q89 840 136 853Q173 808 173 774T140 686T65 591Q49 595 47 608Z" />
<glyph unicode="&#x201a;" glyph-name="quotesinglbase" horiz-adv-x="184" d="M24 -109T40 -76T57 -18T16 51Q48 97 93 111Q131 63 131 30T98 -57T23 -152Q5 -147 4 -135Q24 -109 40 -76Z" />
<glyph unicode="&#x201c;" glyph-name="quotedblleft" horiz-adv-x="304" d="M264 725Q264 698 305 653Q276 607 228 593Q191 640 191 673T224 761T299 856Q316 850 317 839Q264 767 264 725ZM113 725Q113 699 155 653Q123 606 77 593Q40 641 40 674T73 761T148
856Q164 851 167 839Q113 769 113 725Z" />
<glyph unicode="&#x201d;" glyph-name="quotedblright" horiz-adv-x="324" d="M47 608Q100 681 100 724Q100 749 59 793Q89 840 136 853Q173 808 173 774T140 686T65 591Q49 595 47 608ZM217 633T234 666T251 724T209 793Q242 841 287 853Q324 806 324 773T291
686T216 591Q200 594 197 608Q217 633 234 666Z" />
<glyph unicode="&#x201e;" glyph-name="quotedblbase" horiz-adv-x="335" d="M24 -109T40 -76T57 -18T16 51Q48 97 93 111Q131 63 131 30T98 -57T23 -152Q5 -147 4 -135Q24 -109 40 -76ZM208 -21Q208 6 167 51Q196 97 244 111Q281 64 281 31T248 -57T173 -152Q156
-146 155 -135Q208 -63 208 -21Z" />
<glyph unicode="&#x2022;" glyph-name="bullet" horiz-adv-x="423" d="M280 379T301 339T323 265T272 190T175 148Q140 247 100 291Q125 334 158 362T245 411Q280 379 301 339Z" />
<glyph unicode="&#x2039;" glyph-name="guilsinglleft" horiz-adv-x="347" d="M53 241L55 255Q196 366 275 447Q290 445 294 432L296 428L139 245L241 48Q233 33 215 32Q147 142 53 241Z" />
<glyph unicode="&#x203a;" glyph-name="guilsinglright" horiz-adv-x="347" d="M293 237L292 224Q148 109 72 32Q65 32 60 37T51 51L208 233L105 431Q113 445 132 447Q192 347 293 237Z" />
</font>
</defs>
</svg>
