<?xml version="1.0" standalone="no"?>
<!DOCTYPE svg PUBLIC "-//W3C//DTD SVG 1.1//EN" "http://www.w3.org/Graphics/SVG/1.1/DTD/svg11.dtd">
<svg xmlns="http://www.w3.org/2000/svg">
<defs >
<font id="SairaCondensed" horiz-adv-x="435" ><font-face
    font-family="Saira Condensed Medium"
    units-per-em="1000"
    panose-1="0 0 6 6 0 0 0 0 0 0"
    ascent="1135"
    descent="-439"
    alphabetic="0" />
<glyph unicode=" " glyph-name="space" horiz-adv-x="192" />
<glyph unicode="!" glyph-name="exclam" horiz-adv-x="225" d="M78 279Q76 310 69 432T62 600V688H167V600Q167 554 160 432T151 279L146 199H83L78 279ZM65 0V102H165V0H65Z" />
<glyph unicode="&quot;" glyph-name="quotedbl" horiz-adv-x="322" d="M59 440L48 617V688H133V617L121 440H59ZM200 440L188 617V688H274V617L262 440H200Z" />
<glyph unicode="#" glyph-name="numbersign" horiz-adv-x="531" d="M258 0L288 190H176L147 0H78L107 190H43V256H118L145 427H68V492H155L186 688H254L224 492H335L366 688H435L404 492H473V427H394L367 256H449V190H356L327 0H258ZM325 427H213L187 256H299L325 427Z" />
<glyph unicode="$" glyph-name="dollar" horiz-adv-x="415" d="M176 69Q106 71 59 82V155Q136 145 190 145Q227 145 245 152T270 175T277 224Q277 259 274 274T262 294T232 302L155 314Q111 320 88 336T56 382T47 462Q47 542 79 577T176 618V696H246V619Q273 617
301 613T345 604V531Q318 536 284 539T224 543Q174 542 156 526T137 466Q137 435 141 421T154 401T183 392L264 381Q302 376 323 363T356 319T367 229Q367 149 338 113T246 70V-8H176V69Z" />
<glyph unicode="%" glyph-name="percent" horiz-adv-x="659" d="M109 311T86 326T56 380T48 503Q48 587 55 626T86 680T161 696Q212 696 235 681T265 626T273 503Q273 419 266 381T235 327T161 311Q109 311 86 326ZM130 0L469 688H530L190 0H130ZM185 363T194
370T207 406T211 503Q211 573 208 600T196 635T161 643Q136 643 127 636T114 601T111 503Q111 433 114 406T126 371T161 363Q185 363 194 370ZM448 -8T425 7T395 61T387 184Q387 268 394 307T425 361T499 377Q550 377 573 362T604 307T612 184Q612 100 605 62T574
8T499 -8Q448 -8 425 7ZM524 44T533 51T546 86T549 184Q549 254 546 281T534 316T499 324Q475 324 466 317T453 282T450 184Q450 113 453 86T465 52T499 44Q524 44 533 51Z" />
<glyph unicode="&amp;" glyph-name="ampersand" horiz-adv-x="532" d="M516 386V310H433V9Q395 2 349 -3T265 -8Q176 -8 128 13T63 75T46 183Q46 263 68 298T141 349V353Q95 367 73 404T51 515Q51 576 70 615T136 675T266 696Q301 696 347 691T431 678V607Q351
620 290 620Q224 620 193 610T152 575T142 501Q142 463 148 439T173 401T231 386H282V310H231Q190 310 170 297T144 259T137 188Q137 136 150 111T192 76T271 67Q308 67 344 73V386H516Z" />
<glyph unicode="&apos;" glyph-name="quotesingle" horiz-adv-x="181" d="M59 440L48 617V688H133V617L121 440H59Z" />
<glyph unicode="(" glyph-name="parenleft" horiz-adv-x="258" d="M124 -75T102 -27T69 94T58 297Q58 426 68 499T102 622T173 743H243Q202 675 184 632T156 512T145 297Q145 159 155 82T184 -39T243 -150H173Q124 -75 102 -27Z" />
<glyph unicode=")" glyph-name="parenright" horiz-adv-x="258" d="M55 -83T73 -40T102 81T112 297Q112 435 102 512T74 632T15 743H85Q133 671 155 622T188 500T199 297Q199 167 189 95T156 -26T85 -150H15Q55 -83 73 -40Z" />
<glyph unicode="*" glyph-name="asterisk" horiz-adv-x="406" d="M223 487L233 359H173L182 487L76 416L46 467L161 523L46 580L76 631L182 559L173 688H233L223 559L331 632L360 580L244 523L360 467L331 416L223 487Z" />
<glyph unicode="+" glyph-name="plus" horiz-adv-x="481" d="M204 73V216H61V289H204V432H277V289H420V216H277V73H204Z" />
<glyph unicode="," glyph-name="comma" horiz-adv-x="209" d="M63 -84T74 -79T88 -59T92 -16V0H54V102H155V15Q155 -45 147 -74T115 -115T40 -127V-84Q63 -84 74 -79Z" />
<glyph unicode="-" glyph-name="hyphen" horiz-adv-x="307" d="M54 245V325H253V245H54Z" />
<glyph unicode="." glyph-name="period" horiz-adv-x="209" d="M55 0V102H155V0H55Z" />
<glyph unicode="/" glyph-name="slash" horiz-adv-x="301" d="M16 -55L205 743H285L95 -55H16Z" />
<glyph unicode="0" glyph-name="zero" horiz-adv-x="481" d="M149 -8T110 19T60 114T49 344Q49 505 60 573T110 669T241 696Q334 696 373 669T422 575T432 344Q432 183 421 115T372 19T241 -8Q149 -8 110 19ZM290 74T308 88T332 154T338 344Q338 482 333 534T309
600T241 614Q191 614 173 600T149 534T143 344Q143 206 148 154T172 88T241 74Q290 74 308 88Z" />
<glyph unicode="1" glyph-name="one" horiz-adv-x="283" d="M121 0V577L25 531V618L147 688H215V0H121Z" />
<glyph unicode="2" glyph-name="two" horiz-adv-x="439" d="M136 82H395V0H43V82Q43 171 47 210T67 274T124 322L250 396Q282 415 291 437T301 508Q301 555 292 577T262 606T197 614Q134 614 52 603V679Q84 686 132 691T221 696Q278 696 314 684T373 633T395 517Q395
460 387 425T361 369T311 329Q242 288 175 251Q151 237 144 221Q139 209 138 190T136 124V82Z" />
<glyph unicode="3" glyph-name="three" horiz-adv-x="426" d="M150 -8T107 -4T28 8V84Q108 74 171 74Q214 74 238 81T274 113T286 188Q286 256 267 281T199 307H109V389H199Q239 389 259 412T280 501Q280 551 269 574T235 606T165 614Q95 614 31 603V679Q62 686
105 691T185 696Q256 696 297 678T356 620T374 515Q374 442 352 404T285 353V349Q333 338 356 301T380 183Q380 117 364 76T305 14T184 -8Q150 -8 107 -4Z" />
<glyph unicode="4" glyph-name="four" horiz-adv-x="468" d="M277 0V156H29V228L199 688H298L127 237H278L299 470H371V237H439V156H371V0H277Z" />
<glyph unicode="5" glyph-name="five" horiz-adv-x="442" d="M129 74T192 74Q241 74 265 85T299 124T308 205Q308 262 298 289T263 325T184 334Q128 334 56 321V688H368V606H144V406Q184 415 238 415Q306 415 341 392T390 327T403 215Q403 132 387 85T329 15T208
-8Q174 -8 130 -4T52 8V84Q129 74 192 74Z" />
<glyph unicode="6" glyph-name="six" horiz-adv-x="476" d="M188 -8T153 2T95 39T60 121Q54 150 52 201T49 338Q49 421 52 475T65 564Q83 636 128 666T263 696Q294 696 335 691T409 678V602Q334 614 279 614Q216 614 188 596T152 528T143 367H148Q162 388 189
402T271 416Q333 416 367 402T417 346T434 220Q434 130 420 82T366 13T249 -8Q188 -8 153 2ZM287 73T306 81T334 115T342 201Q342 265 335 292T308 327T243 335Q198 335 178 326T152 294T145 225Q145 157 153 125T182 83T243 73Q287 73 306 81Z" />
<glyph unicode="7" glyph-name="seven" horiz-adv-x="408" d="M81 0L281 606H24V688H381V615L181 0H81Z" />
<glyph unicode="8" glyph-name="eight" horiz-adv-x="490" d="M165 -8T122 12T63 73T46 183Q46 240 56 273T85 322T138 349V353Q93 365 72 403T50 516Q50 582 68 621T128 678T245 696Q319 696 361 678T421 621T439 516Q439 441 418 403T351 353V349Q384 339 403
323T433 274T443 183Q443 114 427 74T367 13T245 -8Q165 -8 122 12ZM287 386T307 395T336 428T344 501Q344 550 337 574T309 607T245 616Q202 616 182 607T153 574T145 501Q145 452 153 429T182 396T245 386Q287 386 307 395ZM288 72T309 80T339 113T349 189Q349
242 341 267T311 300T245 309Q200 309 179 301T149 267T140 189Q140 138 149 114T180 81T245 72Q288 72 309 80Z" />
<glyph unicode="9" glyph-name="nine" horiz-adv-x="476" d="M181 -8T140 -3T67 10V86Q142 74 196 74Q260 74 288 92T324 160T333 321H328Q314 300 287 286T205 272Q143 272 109 286T59 342T42 468Q42 558 56 606T110 675T227 696Q286 696 321 687T379 653T412
583Q421 549 424 495T427 350Q427 256 423 199T407 106Q385 44 341 18T213 -8Q181 -8 140 -3ZM278 353T298 362T324 394T331 463Q331 531 323 563T294 605T233 615Q189 615 170 607T142 573T134 487Q134 423 141 396T168 361T233 353Q278 353 298 362Z" />
<glyph unicode=":" glyph-name="colon" horiz-adv-x="209" d="M55 408V510H155V408H55ZM55 0V102H155V0H55Z" />
<glyph unicode=";" glyph-name="semicolon" horiz-adv-x="209" d="M55 408V510H155V408H55ZM63 -84T74 -79T88 -59T92 -16V0H54V102H155V15Q155 -45 147 -74T115 -115T40 -127V-84Q63 -84 74 -79Z" />
<glyph unicode="&lt;" glyph-name="less" horiz-adv-x="482" d="M421 66L61 212V293L421 439V363L147 253L421 142V66Z" />
<glyph unicode="=" glyph-name="equal" horiz-adv-x="481" d="M61 307V381H420V307H61ZM61 125V199H420V125H61Z" />
<glyph unicode="&gt;" glyph-name="greater" horiz-adv-x="482" d="M61 66V142L335 253L61 363V439L420 293V212L61 66Z" />
<glyph unicode="?" glyph-name="question" horiz-adv-x="368" d="M97 282Q97 319 103 340T121 371T157 395L175 405Q197 418 207 428T222 458T227 516Q227 557 220 577T193 606T134 614Q85 614 23 604V680Q54 687 93 691T165 696Q250 696 286 656T322 527Q322
457 307 417T249 354L233 346Q208 333 198 323T184 301T181 261V198H97V282ZM89 0V102H189V0H89Z" />
<glyph unicode="@" glyph-name="at" horiz-adv-x="687" d="M200 -108T144 -81T74 22T59 294Q59 491 73 566T144 668T344 696Q488 696 544 669T614 567T629 294Q629 189 620 144T591 87T529 75H411L406 130H401Q389 93 365 81T307 68Q252 68 228 96T204 196Q204
246 213 274T244 314T308 327Q342 327 404 323V350Q404 398 398 418T376 445T322 451Q303 451 273 449T225 443V505Q280 518 345 518Q405 518 434 502T473 452T483 349V120H536Q555 120 563 128T576 173T580 294Q580 448 575 512T546 606T466 645Q434 650 343 650Q259
650 227 646Q169 639 145 609T115 515T109 294Q109 128 116 64T154 -28T259 -60Q280 -62 344 -62Q450 -62 483 -59V-106Q452 -108 344 -108Q200 -108 144 -81ZM363 134T377 143T398 176T404 243V273H329Q308 273 298 268T284 249T280 202Q280 173 284 159T299 140T335
134Q363 134 377 143Z" />
<glyph unicode="A" glyph-name="A" horiz-adv-x="495" d="M385 0L343 176H149L108 0H14L183 688H313L481 0H385ZM249 586H243L168 257H324L249 586Z" />
<glyph unicode="B" glyph-name="B" horiz-adv-x="489" d="M64 688H281Q365 688 403 645T441 515Q441 444 417 405T342 353V349Q401 336 424 296T447 182Q447 96 410 48T278 0H64V688ZM303 389T324 413T346 497Q346 540 339 563T311 596T254 606H158V389H254Q303
389 324 413ZM295 81T315 91T344 126T352 194Q352 258 331 283T257 308H158V81H257Q295 81 315 91Z" />
<glyph unicode="C" glyph-name="C" horiz-adv-x="399" d="M347 0T315 -4T254 -8Q162 -8 120 20T64 119T49 344Q49 496 63 567T120 667T254 696Q284 696 315 692T366 681V605Q313 614 273 614Q209 614 184 597T152 528T144 344Q144 212 151 160T184 91T273 74Q329
74 368 83V6Q347 0 315 -4Z" />
<glyph unicode="D" glyph-name="D" horiz-adv-x="496" d="M64 688H234Q336 688 379 661T435 568T447 344Q447 187 435 121T380 27T234 0H64V688ZM232 82Q292 82 314 95T344 159T352 344Q352 477 345 528T315 592T232 606H158V82H232Z" />
<glyph unicode="E" glyph-name="E" horiz-adv-x="430" d="M64 0V688H392V606H158V389H361V307H158V82H392V0H64Z" />
<glyph unicode="F" glyph-name="F" horiz-adv-x="404" d="M64 0V688H377V606H158V372H353V290H158V0H64Z" />
<glyph unicode="G" glyph-name="G" horiz-adv-x="484" d="M251 297V377H431V11Q395 3 349 -2T265 -8Q173 -8 129 19T67 120T49 344Q49 494 66 567T129 668T268 696Q307 696 352 691T429 676V600Q347 614 302 614Q226 614 196 600T155 532T143 344Q143 220 151
166T184 92T265 72Q303 72 340 79V297H251Z" />
<glyph unicode="H" glyph-name="H" horiz-adv-x="523" d="M365 0V304H158V0H64V688H158V390H365V688H460V0H365Z" />
<glyph unicode="I" glyph-name="I" horiz-adv-x="227" d="M66 0V688H161V0H66Z" />
<glyph unicode="J" glyph-name="J" horiz-adv-x="264" d="M65 79T82 87T104 125T109 239V688H204V269Q204 131 194 81T148 16T14 0V78Q65 79 82 87Z" />
<glyph unicode="K" glyph-name="K" horiz-adv-x="485" d="M368 0L224 308H158V0H64V688H158V390H224L370 688H469L302 356L471 0H368Z" />
<glyph unicode="L" glyph-name="L" horiz-adv-x="379" d="M64 0V688H159V84H366V0H64Z" />
<glyph unicode="M" glyph-name="M" horiz-adv-x="672" d="M517 0V539H512L378 0H291L159 539H153V0H64V688H203L334 157H340L471 688H608V0H517Z" />
<glyph unicode="N" glyph-name="N" horiz-adv-x="525" d="M370 0L159 487H155V0H64V688H162L366 217H370V688H461V0H370Z" />
<glyph unicode="O" glyph-name="O" horiz-adv-x="515" d="M158 -8T116 20T61 116T49 344Q49 503 61 571T115 668T257 696Q356 696 398 668T453 572T465 344Q465 185 453 117T399 20T257 -8Q158 -8 116 20ZM314 74T335 88T364 154T371 344Q371 481 364 533T336
600T257 614Q200 614 179 600T151 534T144 344Q144 206 151 154T179 88T257 74Q314 74 335 88Z" />
<glyph unicode="P" glyph-name="P" horiz-adv-x="466" d="M64 688H275Q345 688 380 661T427 588T438 467Q438 394 427 348T381 274T274 246H158V0H64V688ZM250 328Q292 328 312 341T338 383T344 467Q344 524 338 551T313 592T250 606H158V328H250Z" />
<glyph unicode="Q" glyph-name="Q" horiz-adv-x="515" d="M487 -111V-115H387L326 -4Q299 -8 257 -8Q158 -8 116 20T61 116T49 344Q49 503 61 571T115 668T257 696Q356 696 398 668T453 572T465 344Q465 197 455 129T408 28L487 -111ZM283 74L204 218H299L356
118Q365 144 368 194T371 344Q371 481 364 533T336 600T257 614Q200 614 179 600T151 534T144 344Q144 206 151 154T179 88T257 74H283Z" />
<glyph unicode="R" glyph-name="R" horiz-adv-x="492" d="M359 0L279 266H273H158V0H64V688H281Q352 688 388 663T435 593T446 477Q446 402 431 354T368 284L458 0H359ZM299 347T319 360T345 399T351 477Q351 529 346 555T321 593T258 606H158V347H257Q299 347 319 360Z" />
<glyph unicode="S" glyph-name="S" horiz-adv-x="442" d="M183 -8T135 -4T50 6V85Q136 74 195 74Q233 74 255 79T291 98Q303 110 307 132T311 190Q311 239 307 259T287 288T233 303L125 321Q71 330 54 372T36 501Q36 609 82 652T226 696Q268 696 310 692T379 680V603Q315
614 249 614Q208 614 185 608T150 589Q138 576 134 556T130 503Q130 461 134 443T149 417T188 405L290 388Q330 381 354 366T393 314Q405 280 405 201Q405 120 387 75T329 11T223 -8Q183 -8 135 -4Z" />
<glyph unicode="T" glyph-name="T" horiz-adv-x="414" d="M160 0V604H14V688H400V604H254V0H160Z" />
<glyph unicode="U" glyph-name="U" horiz-adv-x="510" d="M451 688V301Q451 166 440 105T388 18T255 -8Q164 -8 124 18T71 105T59 301V688H154V264Q154 175 159 139T185 88T255 74Q304 74 324 88T350 138T356 264V688H451Z" />
<glyph unicode="V" glyph-name="V" horiz-adv-x="466" d="M169 0L9 688H106L231 115H237L362 688H457L297 0H169Z" />
<glyph unicode="W" glyph-name="W" horiz-adv-x="708" d="M453 0L357 534H352L256 0H133L15 688H110L196 123H203L302 688H410L511 123H516L600 688H694L576 0H453Z" />
<glyph unicode="X" glyph-name="X" horiz-adv-x="488" d="M369 0L246 270H239L116 0H15L183 346L17 688H121L243 424H249L371 688H471L307 348L474 0H369Z" />
<glyph unicode="Y" glyph-name="Y" horiz-adv-x="442" d="M173 0V256L1 688H99L220 368H226L346 688H440L268 256V0H173Z" />
<glyph unicode="Z" glyph-name="Z" horiz-adv-x="428" d="M29 0V78L287 606H37V688H396V611L138 82H399V0H29Z" />
<glyph unicode="[" glyph-name="bracketleft" horiz-adv-x="264" d="M64 -150V743H235V681L148 677V-84L235 -88V-150H64Z" />
<glyph unicode="\" glyph-name="backslash" horiz-adv-x="301" d="M205 -55L16 743H96L285 -55H205Z" />
<glyph unicode="]" glyph-name="bracketright" horiz-adv-x="264" d="M29 -150V-88L116 -84V677L29 681V743H200V-150H29Z" />
<glyph unicode="^" glyph-name="asciicircum" horiz-adv-x="404" d="M292 476L202 684L112 476H36L163 750H242L368 476H292Z" />
<glyph unicode="_" glyph-name="underscore" horiz-adv-x="329" d="M0 -174V-101H329V-174H0Z" />
<glyph unicode="`" glyph-name="grave" horiz-adv-x="156" d="M83 601L6 738V743H98L150 606V601H83Z" />
<glyph unicode="a" glyph-name="a" horiz-adv-x="424" d="M90 -8T61 25T31 142Q31 200 42 232T81 279T159 294Q204 294 280 290V322Q280 380 272 404T244 436T174 443Q132 443 55 434V503Q122 518 199 518Q271 518 307 500T356 441T369 320V0H288L284 67H278Q263
22 231 7T157 -8Q90 -8 61 25ZM219 67T237 74T265 103Q280 138 280 201V232H184Q156 232 143 226T124 203T119 149Q119 114 124 97T145 74T191 67Q219 67 237 74Z" />
<glyph unicode="b" glyph-name="b" horiz-adv-x="448" d="M223 -8T193 7T148 67H142L138 0H58V743H147V451H152Q166 487 194 502T266 518Q322 518 351 495T393 416T405 254Q405 147 393 92T351 14T265 -8Q223 -8 193 7ZM271 72T287 83T310 131T316 255Q316 342
310 378T287 427T230 439Q199 439 182 428T157 389Q151 367 149 337T147 255Q147 203 148 176T155 126Q162 97 180 85T230 72Q271 72 287 83Z" />
<glyph unicode="c" glyph-name="c" horiz-adv-x="349" d="M266 -8T208 -8Q134 -8 99 18T54 98T43 255Q43 358 55 413T101 493T206 518Q234 518 264 514T314 504V434Q275 443 228 443Q184 443 165 429T139 377T132 255Q132 169 138 132T165 81T229 67Q278 67 317
76V6Q266 -8 208 -8Z" />
<glyph unicode="d" glyph-name="d" horiz-adv-x="448" d="M126 -8T97 14T55 91T43 254Q43 360 55 416T96 495T181 518Q226 518 254 503T296 451H301V743H390V0H309L305 67H299Q286 23 256 8T182 -8Q126 -8 97 14ZM250 72T267 83T292 123Q298 146 299 176T301 260Q301
339 295 373Q288 409 270 424T216 439Q177 439 160 427T138 379T132 255Q132 167 138 131T160 84T218 72Q250 72 267 83Z" />
<glyph unicode="e" glyph-name="e" horiz-adv-x="427" d="M383 227H131Q131 153 138 122T167 79T244 67Q299 67 369 77V7Q345 1 305 -3T226 -8Q143 -8 105 16T55 92T43 254Q43 362 53 414T101 492T220 518Q298 518 332 494T374 419T383 255V227ZM178 445T161 434T138
392T131 289H298V297Q298 365 292 395T269 435T218 445Q178 445 161 434Z" />
<glyph unicode="f" glyph-name="f" horiz-adv-x="290" d="M89 435H19V510H89V581Q89 656 105 690T156 733T269 743V675Q229 675 211 670T186 649T179 598V510H269V435H179V0H89V435Z" />
<glyph unicode="g" glyph-name="g" horiz-adv-x="447" d="M130 -199T65 -190V-121Q86 -121 118 -123L182 -124Q238 -124 262 -111T293 -65T301 44V64H295Q282 27 254 12T182 -3Q126 -3 97 19T55 96T43 256Q43 363 55 418T96 496T182 518Q224 518 254 502T299 442H305L309
510H390V71Q390 -37 378 -91T326 -172T200 -199Q130 -199 65 -190ZM250 75T267 88T292 132Q301 171 301 256Q301 340 294 373Q287 409 270 423T217 438Q176 438 160 427T138 379T132 256Q132 170 137 134T160 87T217 75Q250 75 267 88Z" />
<glyph unicode="h" glyph-name="h" horiz-adv-x="451" d="M307 292Q307 361 302 390T281 429T230 438Q191 438 174 420T152 369T147 266V0H58V743H147V450H152Q179 518 269 518Q323 518 350 498T386 438T396 327V0H307V292Z" />
<glyph unicode="i" glyph-name="i" horiz-adv-x="204" d="M56 648V743H148V648H56ZM58 0V510H147V0H58Z" />
<glyph unicode="j" glyph-name="j" horiz-adv-x="204" d="M56 648V743H148V648H56ZM-8 -124Q22 -124 36 -119T54 -103T58 -69V510H147V-41Q147 -111 134 -143T89 -184T-8 -193V-124Z" />
<glyph unicode="k" glyph-name="k" horiz-adv-x="415" d="M302 0L192 219H147V0H58V743H147V294H192L302 510H396L265 264L399 0H302Z" />
<glyph unicode="l" glyph-name="l" horiz-adv-x="204" d="M58 0V743H147V0H58Z" />
<glyph unicode="m" glyph-name="m" horiz-adv-x="683" d="M538 292Q538 362 534 391T515 429T468 438Q430 438 413 421T391 370T387 266V0H298V292Q298 361 293 390T275 429T228 438Q190 438 173 420T151 368T147 266V0H58V510H138L142 442H148Q162 479 189 498T265
518Q318 518 343 501T379 442H385Q398 479 426 498T504 518Q556 518 582 499T617 439T627 327V0H538V292Z" />
<glyph unicode="n" glyph-name="n" horiz-adv-x="451" d="M307 292Q307 361 302 390T281 429T230 438Q191 438 174 420T152 369T147 266V0H58V510H138L142 442H148Q161 480 190 499T269 518Q323 518 350 498T386 438T396 325V0H307V292Z" />
<glyph unicode="o" glyph-name="o" horiz-adv-x="437" d="M137 -8T101 13T54 87T43 255Q43 371 53 423T100 496T219 518Q301 518 337 497T384 423T395 255Q395 139 385 87T338 14T219 -8Q137 -8 101 13ZM262 67T279 79T301 128T306 255Q306 346 302 382T280 430T219
443Q175 443 158 431T137 383T132 255Q132 163 136 128T158 80T219 67Q262 67 279 79Z" />
<glyph unicode="p" glyph-name="p" horiz-adv-x="448" d="M58 510H138L142 442H148Q162 486 192 502T265 518Q321 518 350 496T392 419T405 256Q405 150 393 94T352 15T266 -8Q222 -8 194 7T152 60H147V-192H58V510ZM271 71T287 82T310 130T316 255Q316 343 310
379T288 426T230 438Q197 438 179 425T154 380Q149 359 148 333T147 255Q147 172 152 141Q159 102 177 87T230 71Q271 71 287 82Z" />
<glyph unicode="q" glyph-name="q" horiz-adv-x="448" d="M301 60H296Q282 23 254 8T181 -8Q125 -8 96 15T55 94T43 256Q43 363 55 418T96 496T182 518Q225 518 255 502T299 442H305L309 510H390V-192H301V60ZM251 71T268 85T294 132Q301 165 301 255Q301 304
300 333T292 386Q285 414 268 426T218 438Q177 438 161 427T138 379T132 255Q132 167 138 131T160 83T218 71Q251 71 268 85Z" />
<glyph unicode="r" glyph-name="r" horiz-adv-x="294" d="M58 510H138L142 418H148Q162 475 193 496T276 518V428Q226 428 198 409T159 348T147 237V0H58V510Z" />
<glyph unicode="s" glyph-name="s" horiz-adv-x="376" d="M154 -8T114 -4T46 5V75Q106 66 173 66Q208 66 226 74T249 97T255 141Q255 174 252 188T239 207T208 215L112 229Q68 236 51 266T34 368Q34 455 74 486T195 518Q228 518 263 514T320 504V434Q270 444 203
444Q158 444 140 430T122 371Q122 341 125 328T137 309T166 301L254 289Q285 285 303 273T332 231T342 145Q342 58 305 25T187 -8Q154 -8 114 -4Z" />
<glyph unicode="t" glyph-name="t" horiz-adv-x="283" d="M89 0V435H19V510H89V658H179V510H263V435H179V0H89Z" />
<glyph unicode="u" glyph-name="u" horiz-adv-x="451" d="M309 68H303Q290 30 261 11T182 -8Q128 -8 101 12T65 72T55 185V510H144V218Q144 149 149 120T170 81T220 72Q260 72 277 90T299 141T304 244V510H393V0H313L309 68Z" />
<glyph unicode="v" glyph-name="v" horiz-adv-x="409" d="M147 0L17 510H108L202 103H209L302 510H392L262 0H147Z" />
<glyph unicode="w" glyph-name="w" horiz-adv-x="620" d="M385 0L314 356H307L236 0H126L19 510H109L182 112H188L266 510H356L436 112H443L515 510H601L494 0H385Z" />
<glyph unicode="x" glyph-name="x" horiz-adv-x="416" d="M303 0L209 190H203L108 0H16L152 259L20 510H117L207 330H213L302 510H395L264 260L400 0H303Z" />
<glyph unicode="y" glyph-name="y" horiz-adv-x="451" d="M130 -199T74 -191V-121Q121 -124 188 -124Q242 -124 266 -110T297 -63T304 41V66H298Q286 32 259 14T181 -4Q126 -4 99 17T64 82T55 206V510H144V221Q144 152 149 123T170 84T220 75Q260 75 277 93T299
144T304 246V510H393V68Q393 -37 381 -91T329 -172T207 -199Q130 -199 74 -191Z" />
<glyph unicode="z" glyph-name="z" horiz-adv-x="378" d="M33 0V69L238 435H41V510H344V441L139 75H346V0H33Z" />
<glyph unicode="{" glyph-name="braceleft" horiz-adv-x="273" d="M151 -126T123 -74T95 34V150Q95 268 21 272V319Q95 323 95 441V558Q95 615 123 667T192 743H256Q180 658 180 564V446Q180 322 96 300V293Q180 271 180 146V28Q180 -65 256 -150H192Q151 -126 123 -74Z" />
<glyph unicode="|" glyph-name="bar" horiz-adv-x="229" d="M74 -161V743H155V-161H74Z" />
<glyph unicode="}" glyph-name="braceright" horiz-adv-x="273" d="M93 -64T93 28V146Q93 271 176 293V300Q93 322 93 446V564Q93 653 16 743H81Q122 718 149 667T177 558V441Q177 323 251 319V272Q177 268 177 150V34Q177 -22 150 -73T81 -150H16Q93 -64 93 28Z" />
<glyph unicode="~" glyph-name="asciitilde" horiz-adv-x="442" d="M385 322T381 299T360 263T310 250Q288 250 266 256T210 273Q203 275 180 282T139 290Q120 290 115 280T110 239H56Q56 283 61 306T82 342T132 355Q155 355 177 349T233 332Q283 316 303 316Q322
316 327 326T332 366H385Q385 322 381 299Z" />
<glyph unicode="&#xa0;" glyph-name="uni00A0" horiz-adv-x="192" />
<glyph unicode="&#xa1;" glyph-name="exclamdown" horiz-adv-x="221" d="M60 408V510H160V408H60ZM57 -90Q57 -39 70 178Q76 269 78 311H142L149 184Q162 -35 162 -90V-178H57V-90Z" />
<glyph unicode="&#xa2;" glyph-name="cent" horiz-adv-x="369" d="M180 69Q122 76 94 106T56 191T47 342Q47 441 57 497T96 581T180 616V696H250V617Q291 615 325 604V531Q278 541 237 541Q193 541 173 526T145 471T138 343Q138 255 145 215T172 160T238 145Q276
145 328 155V82Q284 70 250 69V-8H180V69Z" />
<glyph unicode="&#xa3;" glyph-name="sterling" horiz-adv-x="440" d="M399 81V0H38V81H93V315H38V396H94V426Q94 527 111 585T168 669T283 696Q311 696 341 692T391 682V605Q344 614 303 614Q274 614 255 610T223 596Q202 579 195 541T188 429V396H339V315H188V81H399Z" />
<glyph unicode="&#xa4;" glyph-name="currency" horiz-adv-x="547" d="M43 51L121 130Q106 158 101 206T96 346Q96 435 101 482T121 558L43 636L95 688L180 603Q211 615 272 615Q336 615 367 602L452 688L504 636L424 555Q439 527 443 480T448 346Q448 257 444
209T424 132L504 52L452 0L366 86Q336 73 272 73Q210 73 181 85L96 0L43 51ZM316 148T333 161T354 211T359 346Q359 441 355 478T333 528T272 541Q228 541 211 528T190 478T185 346Q185 249 189 212T211 161T272 148Q316 148 333 161Z" />
<glyph unicode="&#xa5;" glyph-name="yen" horiz-adv-x="483" d="M194 0V248H49V304H179L140 401H49V457H118L29 688H126L240 368H246L360 688H453L364 457H433V401H342L303 304H433V248H288V0H194Z" />
<glyph unicode="&#xa6;" glyph-name="brokenbar" horiz-adv-x="229" d="M74 390V743H155V390H74ZM74 -161V192H155V-161H74Z" />
<glyph unicode="&#xa7;" glyph-name="section" horiz-adv-x="505" d="M196 -171T158 -167T98 -156V-79Q119 -84 156 -87T227 -90Q277 -90 298 -73T319 -11Q319 16 315 30T302 51T271 65L161 106Q114 124 91 138T55 184T42 273Q42 343 61 380T125 428Q108 445 102
469T95 533Q95 626 139 661T270 696Q308 696 346 692T407 681V604Q385 609 348 612T277 615Q227 615 207 598T186 536Q186 508 190 494T203 474T235 459L344 419Q391 401 414 387T450 341T463 252Q463 183 444 145T379 95Q396 79 403 55T410 -8Q410 -101 366 -136T234
-171Q196 -171 158 -167ZM347 143T360 166T374 237Q374 282 366 300T339 325L211 372Q184 382 178 382Q158 382 145 358T131 287Q131 240 139 223T171 197L297 151Q318 143 327 143Q347 143 360 166Z" />
<glyph unicode="&#xa8;" glyph-name="dieresis" horiz-adv-x="295" d="M18 646V730H99V646H18ZM196 646V730H277V646H196Z" />
<glyph unicode="&#xa9;" glyph-name="copyright" horiz-adv-x="575" d="M178 -8T134 16T79 107T67 344Q67 514 78 581T134 672T287 696Q396 696 440 672T495 581T507 344Q507 174 496 107T440 16T287 -8Q178 -8 134 16ZM380 32T413 49T456 124T465 344Q465 505
456 563T414 638T287 655Q195 655 162 638T119 563T109 344Q109 183 118 125T161 49T287 32Q380 32 413 49ZM256 154T233 169T203 222T195 343Q195 424 202 463T233 517T305 533Q345 533 366 525V478Q343 483 316 483Q285 483 273 475T257 439T253 343Q253 275
256 248T272 213T316 204Q345 204 367 209V161Q341 154 305 154Q256 154 233 169Z" />
<glyph unicode="&#xaa;" glyph-name="ordfeminine" horiz-adv-x="329" d="M75 311T54 336T32 423Q32 485 52 509T125 533Q172 533 211 530V552Q211 592 206 609T185 631T135 637Q111 637 49 629V684Q99 696 155 696Q208 696 234 683T270 639T280 550V317H216L212
360H207Q183 311 123 311Q75 311 54 336ZM171 370T184 377T204 402Q211 418 211 464V485H144Q116 485 108 475T99 427Q99 392 108 381T149 370Q171 370 184 377Z" />
<glyph unicode="&#xab;" glyph-name="guillemotleft" horiz-adv-x="375" d="M123 106L29 307L123 510H187L109 307L187 106H123ZM263 106L168 307L263 510H327L249 307L327 106H263Z" />
<glyph unicode="&#xac;" glyph-name="logicalnot" horiz-adv-x="481" d="M345 72V215H61V290H420V72H345Z" />
<glyph unicode="&#xad;" glyph-name="uni00AD" horiz-adv-x="307" d="M54 245V325H253V245H54Z" />
<glyph unicode="&#xae;" glyph-name="registered" horiz-adv-x="575" d="M396 696T440 672T495 581T507 344Q507 174 496 107T440 16T287 -8Q178 -8 134 16T79 107T67 344Q67 514 78 581T134 672T287 696Q396 696 440 672ZM379 32T412 49T455 124T465 344Q465
504 456 562T413 638T287 655Q195 655 162 638T119 563T109 344Q109 183 118 125T161 49T287 32Q379 32 412 49ZM393 374T385 348T352 309L400 158H340L298 299H244V158H188V528H303Q342 528 362 514T387 477T393 415Q393 374 385 348ZM310 348T320 354T332 374T335
414Q335 452 327 465T289 478H244V348H288Q310 348 320 354Z" />
<glyph unicode="&#xaf;" glyph-name="overscore" horiz-adv-x="308" d="M54 663V743H254V663H54Z" />
<glyph unicode="&#xb0;" glyph-name="degree" horiz-adv-x="315" d="M105 397T82 410T53 452T46 546Q46 610 52 639T82 682T158 696Q211 696 234 683T263 640T269 546Q269 481 263 452T234 410T158 397Q105 397 82 410ZM183 447T192 454T204 480T207 546Q207 594
205 612T193 638T158 646Q133 646 123 638T111 612T108 546Q108 499 110 481T123 455T158 447Q183 447 192 454Z" />
<glyph unicode="&#xb1;" glyph-name="plusminus" horiz-adv-x="481" d="M204 195V338H61V412H204V555H277V412H420V338H277V195H204ZM61 30V104H420V30H61Z" />
<glyph unicode="&#xb2;" glyph-name="uni00B2" horiz-adv-x="294" d="M108 373H248V316H46V370Q46 429 52 452T83 489L126 516L154 533Q172 544 178 555T184 590Q184 621 174 630T133 640Q107 640 51 633V686Q99 696 148 696Q181 696 202 690T235 661T248 595Q248
550 237 528T199 490Q188 483 178 478T160 467L129 449Q116 441 112 432T108 401V373Z" />
<glyph unicode="&#xb3;" glyph-name="uni00B3" horiz-adv-x="292" d="M94 308T44 318V370Q96 364 127 364Q157 364 169 374T182 420Q182 452 173 464T142 477H87V531H142Q161 531 170 542T179 585Q179 618 167 629T123 640Q97 640 46 632V686Q98 696 135 696Q194
696 218 673T242 593Q242 558 232 539T197 508V504Q221 495 233 475T245 416Q245 359 222 334T135 308Q94 308 44 318Z" />
<glyph unicode="&#xb4;" glyph-name="acute" horiz-adv-x="156" d="M6 601V606L59 743H150V738L73 601H6Z" />
<glyph unicode="&#xb5;" glyph-name="uni00B5" horiz-adv-x="454" d="M396 510V0H315L311 68H305Q292 31 265 12T187 -7Q167 -7 146 -1V-189H58V510H147V218Q147 148 152 119T172 81T223 72Q262 72 280 90T302 142T307 244V510H396Z" />
<glyph unicode="&#xb6;" glyph-name="paragraph" horiz-adv-x="447" d="M194 222Q116 222 85 238T44 298T35 454Q35 565 44 610T84 671T194 688H264V-144H194V222ZM314 -144V688H383V-144H314Z" />
<glyph unicode="&#xb7;" glyph-name="middot" horiz-adv-x="209" d="M55 248V350H155V248H55Z" />
<glyph unicode="&#xb8;" glyph-name="cedilla" horiz-adv-x="155" d="M16 -190V-185L79 8H139V3L99 -190H16Z" />
<glyph unicode="&#xb9;" glyph-name="uni00B9" horiz-adv-x="215" d="M95 316V613L43 589V647L113 688H158V316H95Z" />
<glyph unicode="&#xba;" glyph-name="ordmasculine" horiz-adv-x="340" d="M110 311T84 327T49 381T41 503Q41 587 49 625T83 680T170 696Q230 696 256 680T291 626T299 503Q299 419 291 381T257 327T170 311Q110 311 84 327ZM200 370T212 378T227 412T230 503Q230
569 227 594T212 629T170 638Q140 638 129 629T114 595T111 503Q111 437 114 412T128 379T170 370Q200 370 212 378Z" />
<glyph unicode="&#xbb;" glyph-name="guillemotright" horiz-adv-x="375" d="M48 106L126 307L48 510H112L206 307L112 106H48ZM188 106L266 307L188 510H252L346 307L252 106H188Z" />
<glyph unicode="&#xbc;" glyph-name="onequarter" horiz-adv-x="565" d="M95 316V613L43 589V647L113 688H159V316H95ZM65 0L401 688H463L126 0H65ZM423 0V77H288V123L377 373H443L353 133H425L441 259H486V133H522V77H486V0H423Z" />
<glyph unicode="&#xbd;" glyph-name="onehalf" horiz-adv-x="607" d="M95 316V613L43 589V647L113 688H159V316H95ZM401 688H463L126 0H65L401 688ZM419 57H558V0H357V54Q357 114 363 136T393 173L464 217Q482 228 488 239T495 274Q495 305 485 314T444 324Q419
324 361 317V370Q409 380 459 380Q491 380 512 374T545 345T558 279Q558 234 548 212T510 174Q498 166 482 158L441 133Q427 125 423 115T419 85V57Z" />
<glyph unicode="&#xbe;" glyph-name="threequarters" horiz-adv-x="622" d="M96 364T128 364Q158 364 170 374T182 420Q182 452 173 464T143 477H87V531H143Q161 531 170 542T179 585Q179 619 168 629T124 640Q99 640 46 632V686Q98 696 135 696Q195 696 219 673T243
593Q243 558 232 539T197 508V504Q221 495 233 475T246 416Q246 359 223 334T135 308Q95 308 45 318V370Q96 364 128 364ZM122 0L459 688H520L183 0H122ZM481 0V77H345V123L434 373H500L410 133H482L498 259H544V133H579V77H544V0H481Z" />
<glyph unicode="&#xbf;" glyph-name="questiondown" horiz-adv-x="333" d="M176 408V510H276V408H176ZM116 -186T80 -147T44 -17Q44 55 59 95T115 156L148 173Q172 186 178 199T185 249V312H268V228Q268 190 262 170T244 139T208 115L192 106Q169 93 159 83T143
52T138 -6Q138 -47 145 -67T172 -95T231 -104Q281 -104 343 -94V-170Q312 -177 272 -181T201 -186Q116 -186 80 -147Z" />
<glyph unicode="&#xc0;" glyph-name="Agrave" horiz-adv-x="495" d="M385 0L343 176H149L108 0H14L183 688H313L481 0H385ZM249 586H243L168 257H324L249 586ZM224 750L147 887V892H239L291 755V750H224Z" />
<glyph unicode="&#xc1;" glyph-name="Aacute" horiz-adv-x="495" d="M385 0L343 176H149L108 0H14L183 688H313L481 0H385ZM249 586H243L168 257H324L249 586ZM201 750V755L254 892H345V887L268 750H201Z" />
<glyph unicode="&#xc2;" glyph-name="Acircumflex" horiz-adv-x="495" d="M385 0L343 176H149L108 0H14L183 688H313L481 0H385ZM249 586H243L168 257H324L249 586ZM125 750V756L201 887H294L370 756V750H308L247 841L187 750H125Z" />
<glyph unicode="&#xc3;" glyph-name="Atilde" horiz-adv-x="495" d="M385 0L343 176H149L108 0H14L183 688H313L481 0H385ZM249 586H243L168 257H324L249 586ZM392 833T388 810T369 774T326 761Q307 761 287 766T240 783Q223 790 207 795T177 801Q163 801 159
791T155 750H103Q103 795 107 818T125 854T169 866Q188 866 205 861T256 844Q273 837 289 832T318 827Q332 827 335 837T339 877H392Q392 833 388 810Z" />
<glyph unicode="&#xc4;" glyph-name="Adieresis" horiz-adv-x="495" d="M385 0L343 176H149L108 0H14L183 688H313L481 0H385ZM249 586H243L168 257H324L249 586ZM118 777V861H199V777H118ZM296 777V861H377V777H296Z" />
<glyph unicode="&#xc5;" glyph-name="Aring" horiz-adv-x="495" d="M481 0H385L343 176H149L108 0H14L182 685Q153 693 145 713T136 778Q136 819 142 839T172 870T247 880Q298 880 321 870T351 840T358 778Q358 735 350 715T313 686L481 0ZM223 833T213 828T199
813T196 778Q196 755 199 745T212 730T247 725Q271 725 282 729T296 744T299 778Q299 802 296 812T282 828T247 833Q223 833 213 828ZM168 257H324L249 586H243L168 257Z" />
<glyph unicode="&#xc6;" glyph-name="AE" horiz-adv-x="680" d="M362 0L336 176H142L86 0H-7L221 688H642V606H363L397 388H611V306H410L445 82H642V0H362ZM277 587H272L168 257H325L277 587Z" />
<glyph unicode="&#xc7;" glyph-name="Ccedilla" horiz-adv-x="399" d="M329 74T368 83V6Q347 0 315 -4T254 -8H229L191 -190H108V-185L168 0Q117 12 92 47T58 150T49 344Q49 496 63 567T120 667T254 696Q284 696 315 692T366 681V605Q313 614 273 614Q209 614
184 597T152 528T144 344Q144 212 151 160T184 91T273 74Q329 74 368 83Z" />
<glyph unicode="&#xc8;" glyph-name="Egrave" horiz-adv-x="429" d="M64 0V688H392V606H158V389H361V307H158V82H392V0H64ZM209 750L132 887V892H224L276 755V750H209Z" />
<glyph unicode="&#xc9;" glyph-name="Eacute" horiz-adv-x="429" d="M64 0V688H392V606H158V389H361V307H158V82H392V0H64ZM196 750V755L249 892H340V887L263 750H196Z" />
<glyph unicode="&#xca;" glyph-name="Ecircumflex" horiz-adv-x="429" d="M64 0V688H392V606H158V389H361V307H158V82H392V0H64ZM104 750V756L180 887H273L349 756V750H287L226 841L166 750H104Z" />
<glyph unicode="&#xcb;" glyph-name="Edieresis" horiz-adv-x="429" d="M64 0V688H392V606H158V389H361V307H158V82H392V0H64ZM98 774V858H179V774H98ZM276 774V858H357V774H276Z" />
<glyph unicode="&#xcc;" glyph-name="Igrave" horiz-adv-x="227" d="M66 0V688H161V0H66ZM94 750L17 887V892H109L161 755V750H94Z" />
<glyph unicode="&#xcd;" glyph-name="Iacute" horiz-adv-x="227" d="M66 0V688H161V0H66ZM68 750V755L121 892H212V887L135 750H68Z" />
<glyph unicode="&#xce;" glyph-name="Icircumflex" horiz-adv-x="227" d="M66 0V688H161V0H66ZM-9 750V756L67 887H160L236 756V750H174L113 841L53 750H-9Z" />
<glyph unicode="&#xcf;" glyph-name="Idieresis" horiz-adv-x="227" d="M66 0V688H161V0H66ZM-15 777V861H66V777H-15ZM163 777V861H244V777H163Z" />
<glyph unicode="&#xd0;" glyph-name="Eth" horiz-adv-x="496" d="M64 309H9V388H64V688H234Q336 688 379 661T435 568T447 344Q447 187 435 121T380 27T234 0H64V309ZM292 82T314 95T344 159T352 344Q352 477 345 528T315 592T232 606H158V388H249V309H158V82H232Q292
82 314 95Z" />
<glyph unicode="&#xd1;" glyph-name="Ntilde" horiz-adv-x="525" d="M370 0L159 487H155V0H64V688H162L366 217H370V688H461V0H370ZM407 833T403 810T384 774T341 761Q322 761 302 766T255 783Q238 790 222 795T192 801Q178 801 174 791T170 750H118Q118 795 122
818T140 854T184 866Q203 866 220 861T271 844Q288 837 304 832T333 827Q347 827 350 837T354 877H407Q407 833 403 810Z" />
<glyph unicode="&#xd2;" glyph-name="Ograve" horiz-adv-x="514" d="M158 -8T116 20T61 116T49 344Q49 503 61 571T115 668T257 696Q356 696 398 668T453 572T465 344Q465 185 453 117T399 20T257 -8Q158 -8 116 20ZM314 74T335 88T364 154T371 344Q371 481 364
533T336 600T257 614Q200 614 179 600T151 534T144 344Q144 206 151 154T179 88T257 74Q314 74 335 88ZM229 750L152 887V892H244L296 755V750H229Z" />
<glyph unicode="&#xd3;" glyph-name="Oacute" horiz-adv-x="514" d="M158 -8T116 20T61 116T49 344Q49 503 61 571T115 668T257 696Q356 696 398 668T453 572T465 344Q465 185 453 117T399 20T257 -8Q158 -8 116 20ZM314 74T335 88T364 154T371 344Q371 481 364
533T336 600T257 614Q200 614 179 600T151 534T144 344Q144 206 151 154T179 88T257 74Q314 74 335 88ZM215 750V755L268 892H359V887L282 750H215Z" />
<glyph unicode="&#xd4;" glyph-name="Ocircumflex" horiz-adv-x="514" d="M158 -8T116 20T61 116T49 344Q49 503 61 571T115 668T257 696Q356 696 398 668T453 572T465 344Q465 185 453 117T399 20T257 -8Q158 -8 116 20ZM314 74T335 88T364 154T371 344Q371 481
364 533T336 600T257 614Q200 614 179 600T151 534T144 344Q144 206 151 154T179 88T257 74Q314 74 335 88ZM134 750V756L210 887H303L379 756V750H317L256 841L196 750H134Z" />
<glyph unicode="&#xd5;" glyph-name="Otilde" horiz-adv-x="514" d="M158 -8T116 20T61 116T49 344Q49 503 61 571T115 668T257 696Q356 696 398 668T453 572T465 344Q465 185 453 117T399 20T257 -8Q158 -8 116 20ZM314 74T335 88T364 154T371 344Q371 481 364
533T336 600T257 614Q200 614 179 600T151 534T144 344Q144 206 151 154T179 88T257 74Q314 74 335 88ZM401 833T397 810T378 774T335 761Q316 761 296 766T249 783Q232 790 216 795T186 801Q172 801 168 791T164 750H112Q112 795 116 818T134 854T178 866Q197
866 214 861T265 844Q282 837 298 832T327 827Q341 827 344 837T348 877H401Q401 833 397 810Z" />
<glyph unicode="&#xd6;" glyph-name="Odieresis" horiz-adv-x="514" d="M158 -8T116 20T61 116T49 344Q49 503 61 571T115 668T257 696Q356 696 398 668T453 572T465 344Q465 185 453 117T399 20T257 -8Q158 -8 116 20ZM314 74T335 88T364 154T371 344Q371 481
364 533T336 600T257 614Q200 614 179 600T151 534T144 344Q144 206 151 154T179 88T257 74Q314 74 335 88ZM127 777V861H208V777H127ZM305 777V861H386V777H305Z" />
<glyph unicode="&#xd7;" glyph-name="multiply" horiz-adv-x="439" d="M219 200L113 93L60 145L167 252L60 359L112 412L220 305L327 412L379 359L272 252L379 145L326 93L219 200Z" />
<glyph unicode="&#xd8;" glyph-name="Oslash" horiz-adv-x="514" d="M424 645Q450 611 457 545T465 344Q465 185 453 117T399 20T257 -8Q190 -8 153 3L129 -55H49L90 43Q64 77 57 143T49 344Q49 503 61 571T115 668T257 696Q324 696 361 685L385 743H465L424 645ZM144
231T148 179L327 606Q309 614 257 614Q200 614 179 600T151 534T144 344Q144 231 148 179ZM371 459T367 511L187 82Q205 74 257 74Q314 74 335 88T364 154T371 344Q371 459 367 511Z" />
<glyph unicode="&#xd9;" glyph-name="Ugrave" horiz-adv-x="510" d="M451 688V301Q451 166 440 105T388 18T255 -8Q164 -8 124 18T71 105T59 301V688H154V264Q154 175 159 139T185 88T255 74Q304 74 324 88T350 138T356 264V688H451ZM230 750L153 887V892H245L297
755V750H230Z" />
<glyph unicode="&#xda;" glyph-name="Uacute" horiz-adv-x="510" d="M451 688V301Q451 166 440 105T388 18T255 -8Q164 -8 124 18T71 105T59 301V688H154V264Q154 175 159 139T185 88T255 74Q304 74 324 88T350 138T356 264V688H451ZM219 750V755L272 892H363V887L286
750H219Z" />
<glyph unicode="&#xdb;" glyph-name="Ucircumflex" horiz-adv-x="510" d="M451 688V301Q451 166 440 105T388 18T255 -8Q164 -8 124 18T71 105T59 301V688H154V264Q154 175 159 139T185 88T255 74Q304 74 324 88T350 138T356 264V688H451ZM133 750V756L209 887H302L378
756V750H316L255 841L195 750H133Z" />
<glyph unicode="&#xdc;" glyph-name="Udieresis" horiz-adv-x="510" d="M451 688V301Q451 166 440 105T388 18T255 -8Q164 -8 124 18T71 105T59 301V688H154V264Q154 175 159 139T185 88T255 74Q304 74 324 88T350 138T356 264V688H451ZM125 777V861H206V777H125ZM303
777V861H384V777H303Z" />
<glyph unicode="&#xdd;" glyph-name="Yacute" horiz-adv-x="442" d="M173 0V256L1 688H99L220 368H226L346 688H440L268 256V0H173ZM187 750V755L240 892H331V887L254 750H187Z" />
<glyph unicode="&#xde;" glyph-name="Thorn" horiz-adv-x="466" d="M64 688H158V571H275Q346 571 381 544T427 472T438 351Q438 278 427 232T381 158T274 130H158V0H64V688ZM250 211Q292 211 312 225T338 267T344 351Q344 408 339 435T313 476T250 490H158V211H250Z" />
<glyph unicode="&#xdf;" glyph-name="germandbls" horiz-adv-x="462" d="M209 0V75H236Q281 75 298 84T322 126T328 241Q328 308 321 340T296 384T243 396H224V471H243Q291 471 306 493T322 574Q322 615 313 636T286 666T234 675Q200 675 182 665T155 629T146
553V0H58V554Q58 626 75 668T130 730T234 750Q332 750 372 711T412 583Q412 516 390 483T320 439V435Q371 424 394 381T418 241Q418 147 406 97T357 24T249 0H209Z" />
<glyph unicode="&#xe0;" glyph-name="agrave" horiz-adv-x="424" d="M90 -8T61 25T31 142Q31 200 42 232T81 279T159 294Q204 294 280 290V322Q280 380 272 404T244 436T174 443Q132 443 55 434V503Q122 518 199 518Q271 518 307 500T356 441T369 320V0H288L284
67H278Q263 22 231 7T157 -8Q90 -8 61 25ZM219 67T237 74T265 103Q280 138 280 201V232H184Q156 232 143 226T124 203T119 149Q119 114 124 97T145 74T191 67Q219 67 237 74ZM186 601L109 738V743H201L253 606V601H186Z" />
<glyph unicode="&#xe1;" glyph-name="aacute" horiz-adv-x="424" d="M90 -8T61 25T31 142Q31 200 42 232T81 279T159 294Q204 294 280 290V322Q280 380 272 404T244 436T174 443Q132 443 55 434V503Q122 518 199 518Q271 518 307 500T356 441T369 320V0H288L284
67H278Q263 22 231 7T157 -8Q90 -8 61 25ZM219 67T237 74T265 103Q280 138 280 201V232H184Q156 232 143 226T124 203T119 149Q119 114 124 97T145 74T191 67Q219 67 237 74ZM171 601V606L224 743H315V738L238 601H171Z" />
<glyph unicode="&#xe2;" glyph-name="acircumflex" horiz-adv-x="424" d="M90 -8T61 25T31 142Q31 200 42 232T81 279T159 294Q204 294 280 290V322Q280 380 272 404T244 436T174 443Q132 443 55 434V503Q122 518 199 518Q271 518 307 500T356 441T369 320V0H288L284
67H278Q263 22 231 7T157 -8Q90 -8 61 25ZM219 67T237 74T265 103Q280 138 280 201V232H184Q156 232 143 226T124 203T119 149Q119 114 124 97T145 74T191 67Q219 67 237 74ZM90 606V612L166 743H259L335 612V606H273L212 697L152 606H90Z" />
<glyph unicode="&#xe3;" glyph-name="atilde" horiz-adv-x="424" d="M90 -8T61 25T31 142Q31 200 42 232T81 279T159 294Q204 294 280 290V322Q280 380 272 404T244 436T174 443Q132 443 55 434V503Q122 518 199 518Q271 518 307 500T356 441T369 320V0H288L284
67H278Q263 22 231 7T157 -8Q90 -8 61 25ZM219 67T237 74T265 103Q280 138 280 201V232H184Q156 232 143 226T124 203T119 149Q119 114 124 97T145 74T191 67Q219 67 237 74ZM356 699T352 676T333 640T290 627Q271 627 251 632T204 649Q187 656 171 661T141 667Q127
667 123 657T119 616H67Q67 661 71 684T89 720T133 732Q152 732 169 727T220 710Q237 703 253 698T282 693Q296 693 299 703T303 743H356Q356 699 352 676Z" />
<glyph unicode="&#xe4;" glyph-name="adieresis" horiz-adv-x="424" d="M90 -8T61 25T31 142Q31 200 42 232T81 279T159 294Q204 294 280 290V322Q280 380 272 404T244 436T174 443Q132 443 55 434V503Q122 518 199 518Q271 518 307 500T356 441T369 320V0H288L284
67H278Q263 22 231 7T157 -8Q90 -8 61 25ZM219 67T237 74T265 103Q280 138 280 201V232H184Q156 232 143 226T124 203T119 149Q119 114 124 97T145 74T191 67Q219 67 237 74ZM83 898V982H164V898H83ZM261 898V982H342V898H261Z" />
<glyph unicode="&#xe5;" glyph-name="aring" horiz-adv-x="424" d="M90 -8T61 25T31 142Q31 200 42 232T81 279T159 294Q204 294 280 290V322Q280 380 272 404T244 436T174 443Q132 443 55 434V503Q122 518 199 518Q271 518 307 500T356 441T369 320V0H288L284
67H278Q263 22 231 7T157 -8Q90 -8 61 25ZM219 67T237 74T265 103Q280 138 280 201V232H184Q156 232 143 226T124 203T119 149Q119 114 124 97T145 74T191 67Q219 67 237 74ZM162 852T140 862T111 891T104 952Q104 993 110 1012T139 1042T212 1052Q262 1052 285
1042T315 1012T322 952Q322 912 316 892T286 862T212 852Q162 852 140 862ZM237 899T247 903T260 918T263 952Q263 975 260 985T247 1001T212 1006Q188 1006 178 1001T165 986T162 952Q162 928 164 918T177 904T212 899Q237 899 247 903Z" />
<glyph unicode="&#xe6;" glyph-name="ae" horiz-adv-x="664" d="M620 229H368Q368 154 375 123T405 79T482 67Q536 67 606 77V7Q582 0 543 -4T464 -8Q403 -8 369 7T316 57Q294 18 258 5T173 -8Q120 -8 90 6T45 52T31 142Q31 199 42 231T81 278T159 292L279 291V322Q279
379 272 403T243 435T173 443Q129 443 55 433V503Q133 518 197 518Q247 518 277 507T326 469Q345 494 377 506T459 518Q536 518 569 494T611 419T620 256V229ZM415 445T398 435T375 393T368 291H535V297Q535 364 529 395T506 435T455 445Q415 445 398 435ZM279
229H182Q154 229 141 224T122 201T117 148Q117 113 122 96T143 72T190 65Q221 65 240 74T269 110Q279 140 279 199V229Z" />
<glyph unicode="&#xe7;" glyph-name="ccedilla" horiz-adv-x="349" d="M278 67T317 76V6Q266 -8 208 -8H205L167 -190H84V-185L144 -1Q99 10 78 40T50 119T43 255Q43 358 55 413T101 493T206 518Q234 518 264 514T314 504V434Q275 443 228 443Q184 443 165 429T139
377T132 255Q132 169 138 132T165 81T229 67Q278 67 317 76Z" />
<glyph unicode="&#xe8;" glyph-name="egrave" horiz-adv-x="427" d="M383 227H131Q131 153 138 122T167 79T244 67Q299 67 369 77V7Q345 1 305 -3T226 -8Q143 -8 105 16T55 92T43 254Q43 362 53 414T101 492T220 518Q298 518 332 494T374 419T383 255V227ZM178
445T161 434T138 392T131 289H298V297Q298 365 292 395T269 435T218 445Q178 445 161 434ZM191 601L114 738V743H206L258 606V601H191Z" />
<glyph unicode="&#xe9;" glyph-name="eacute" horiz-adv-x="427" d="M383 227H131Q131 153 138 122T167 79T244 67Q299 67 369 77V7Q345 1 305 -3T226 -8Q143 -8 105 16T55 92T43 254Q43 362 53 414T101 492T220 518Q298 518 332 494T374 419T383 255V227ZM178
445T161 434T138 392T131 289H298V297Q298 365 292 395T269 435T218 445Q178 445 161 434ZM182 601V606L235 743H326V738L249 601H182Z" />
<glyph unicode="&#xea;" glyph-name="ecircumflex" horiz-adv-x="427" d="M383 227H131Q131 153 138 122T167 79T244 67Q299 67 369 77V7Q345 1 305 -3T226 -8Q143 -8 105 16T55 92T43 254Q43 362 53 414T101 492T220 518Q298 518 332 494T374 419T383 255V227ZM178
445T161 434T138 392T131 289H298V297Q298 365 292 395T269 435T218 445Q178 445 161 434ZM95 606V612L171 743H264L340 612V606H278L217 697L157 606H95Z" />
<glyph unicode="&#xeb;" glyph-name="edieresis" horiz-adv-x="427" d="M383 227H131Q131 153 138 122T167 79T244 67Q299 67 369 77V7Q345 1 305 -3T226 -8Q143 -8 105 16T55 92T43 254Q43 362 53 414T101 492T220 518Q298 518 332 494T374 419T383 255V227ZM178
445T161 434T138 392T131 289H298V297Q298 365 292 395T269 435T218 445Q178 445 161 434ZM90 898V982H171V898H90ZM268 898V982H349V898H268Z" />
<glyph unicode="&#xec;" glyph-name="igrave" horiz-adv-x="204" d="M58 0V510H147V0H58ZM335 601L258 738V743H350L402 606V601H335Z" />
<glyph unicode="&#xed;" glyph-name="iacute" horiz-adv-x="204" d="M58 0V510H147V0H58ZM58 601V606L111 743H202V738L125 601H58Z" />
<glyph unicode="&#xee;" glyph-name="icircumflex" horiz-adv-x="204" d="M58 0V510H147V0H58ZM236 606V612L312 743H405L481 612V606H419L358 697L298 606H236Z" />
<glyph unicode="&#xef;" glyph-name="idieresis" horiz-adv-x="204" d="M58 0V510H147V0H58ZM229 898V982H310V898H229ZM407 898V982H488V898H407Z" />
<glyph unicode="&#xf0;" glyph-name="eth" horiz-adv-x="439" d="M136 -8T100 14T53 87T43 254Q43 363 52 415T92 492T193 517Q249 517 281 494L284 496Q267 565 241 621L143 607V664L211 674Q184 714 162 739V743H257Q278 717 297 687L383 700V643L329 634Q365
552 382 439Q394 370 394 268Q394 145 385 92T339 16T219 -8Q136 -8 100 14ZM263 66T280 79T302 127T306 254Q306 339 302 374T280 426T219 443Q174 443 157 431T136 384T132 254Q132 162 136 128T157 80T219 66Q263 66 280 79Z" />
<glyph unicode="&#xf1;" glyph-name="ntilde" horiz-adv-x="451" d="M307 292Q307 361 302 390T281 429T230 438Q191 438 174 420T152 369T147 266V0H58V510H138L142 442H148Q161 480 190 499T269 518Q323 518 350 498T386 438T396 325V0H307V292ZM374 699T370
676T351 640T308 627Q289 627 269 632T222 649Q205 656 189 661T159 667Q145 667 141 657T137 616H85Q85 661 89 684T107 720T151 732Q170 732 187 727T238 710Q255 703 271 698T300 693Q314 693 317 703T321 743H374Q374 699 370 676Z" />
<glyph unicode="&#xf2;" glyph-name="ograve" horiz-adv-x="437" d="M137 -8T101 13T54 87T43 255Q43 371 53 423T100 496T219 518Q301 518 337 497T384 423T395 255Q395 139 385 87T338 14T219 -8Q137 -8 101 13ZM262 67T279 79T301 128T306 255Q306 346 302
382T280 430T219 443Q175 443 158 431T137 383T132 255Q132 163 136 128T158 80T219 67Q262 67 279 79ZM191 601L114 738V743H206L258 606V601H191Z" />
<glyph unicode="&#xf3;" glyph-name="oacute" horiz-adv-x="437" d="M137 -8T101 13T54 87T43 255Q43 371 53 423T100 496T219 518Q301 518 337 497T384 423T395 255Q395 139 385 87T338 14T219 -8Q137 -8 101 13ZM262 67T279 79T301 128T306 255Q306 346 302
382T280 430T219 443Q175 443 158 431T137 383T132 255Q132 163 136 128T158 80T219 67Q262 67 279 79ZM177 601V606L230 743H321V738L244 601H177Z" />
<glyph unicode="&#xf4;" glyph-name="ocircumflex" horiz-adv-x="437" d="M137 -8T101 13T54 87T43 255Q43 371 53 423T100 496T219 518Q301 518 337 497T384 423T395 255Q395 139 385 87T338 14T219 -8Q137 -8 101 13ZM262 67T279 79T301 128T306 255Q306 346
302 382T280 430T219 443Q175 443 158 431T137 383T132 255Q132 163 136 128T158 80T219 67Q262 67 279 79ZM97 606V612L173 743H266L342 612V606H280L219 697L159 606H97Z" />
<glyph unicode="&#xf5;" glyph-name="otilde" horiz-adv-x="437" d="M137 -8T101 13T54 87T43 255Q43 371 53 423T100 496T219 518Q301 518 337 497T384 423T395 255Q395 139 385 87T338 14T219 -8Q137 -8 101 13ZM262 67T279 79T301 128T306 255Q306 346 302
382T280 430T219 443Q175 443 158 431T137 383T132 255Q132 163 136 128T158 80T219 67Q262 67 279 79ZM364 699T360 676T341 640T298 627Q279 627 259 632T212 649Q195 656 179 661T149 667Q135 667 131 657T127 616H75Q75 661 79 684T97 720T141 732Q160 732
177 727T228 710Q245 703 261 698T290 693Q304 693 307 703T311 743H364Q364 699 360 676Z" />
<glyph unicode="&#xf6;" glyph-name="odieresis" horiz-adv-x="437" d="M137 -8T101 13T54 87T43 255Q43 371 53 423T100 496T219 518Q301 518 337 497T384 423T395 255Q395 139 385 87T338 14T219 -8Q137 -8 101 13ZM262 67T279 79T301 128T306 255Q306 346 302
382T280 430T219 443Q175 443 158 431T137 383T132 255Q132 163 136 128T158 80T219 67Q262 67 279 79ZM91 898V982H172V898H91ZM269 898V982H350V898H269Z" />
<glyph unicode="&#xf7;" glyph-name="divide" horiz-adv-x="481" d="M201 383V459H280V383H201ZM61 216V289H420V216H61ZM201 47V122H280V47H201Z" />
<glyph unicode="&#xf8;" glyph-name="oslash" horiz-adv-x="437" d="M358 480Q381 454 388 405T395 255Q395 139 385 87T338 14T219 -8Q175 -8 145 -2L122 -55H43L80 30Q57 56 50 105T43 255Q43 371 53 423T100 496T219 518Q259 518 292 513L315 565H395L358 480ZM132
178T134 152L260 440Q243 443 219 443Q175 443 158 431T137 383T132 255Q132 178 134 152ZM306 333T304 359L177 70Q194 67 219 67Q262 67 279 79T301 128T306 255Q306 333 304 359Z" />
<glyph unicode="&#xf9;" glyph-name="ugrave" horiz-adv-x="451" d="M309 68H303Q290 30 261 11T182 -8Q128 -8 101 12T65 72T55 185V510H144V218Q144 149 149 120T170 81T220 72Q260 72 277 90T299 141T304 244V510H393V0H313L309 68ZM197 601L120 738V743H212L264
606V601H197Z" />
<glyph unicode="&#xfa;" glyph-name="uacute" horiz-adv-x="451" d="M309 68H303Q290 30 261 11T182 -8Q128 -8 101 12T65 72T55 185V510H144V218Q144 149 149 120T170 81T220 72Q260 72 277 90T299 141T304 244V510H393V0H313L309 68ZM189 601V606L242 743H333V738L256
601H189Z" />
<glyph unicode="&#xfb;" glyph-name="ucircumflex" horiz-adv-x="451" d="M309 68H303Q290 30 261 11T182 -8Q128 -8 101 12T65 72T55 185V510H144V218Q144 149 149 120T170 81T220 72Q260 72 277 90T299 141T304 244V510H393V0H313L309 68ZM102 606V612L178 743H271L347
612V606H285L224 697L164 606H102Z" />
<glyph unicode="&#xfc;" glyph-name="udieresis" horiz-adv-x="451" d="M309 68H303Q290 30 261 11T182 -8Q128 -8 101 12T65 72T55 185V510H144V218Q144 149 149 120T170 81T220 72Q260 72 277 90T299 141T304 244V510H393V0H313L309 68ZM94 898V982H175V898H94ZM272
898V982H353V898H272Z" />
<glyph unicode="&#xfd;" glyph-name="yacute" horiz-adv-x="451" d="M130 -199T74 -191V-121Q121 -124 188 -124Q242 -124 266 -110T297 -63T304 41V66H298Q286 32 259 14T181 -4Q126 -4 99 17T64 82T55 206V510H144V221Q144 152 149 123T170 84T220 75Q260 75
277 93T299 144T304 246V510H393V68Q393 -37 381 -91T329 -172T207 -199Q130 -199 74 -191ZM189 601V606L242 743H333V738L256 601H189Z" />
<glyph unicode="&#xfe;" glyph-name="thorn" horiz-adv-x="448" d="M58 743H147V447H152Q165 486 194 502T265 518Q321 518 350 496T392 419T405 256Q405 150 393 94T352 15T266 -8Q222 -8 194 7T152 60H147V-191H58V743ZM271 71T287 82T310 130T316 255Q316 343
310 379T288 427T230 439Q195 439 178 425T153 373Q149 353 148 322T147 255Q147 180 151 148Q158 105 176 88T230 71Q271 71 287 82Z" />
<glyph unicode="&#xff;" glyph-name="ydieresis" horiz-adv-x="451" d="M130 -199T74 -191V-121Q121 -124 188 -124Q242 -124 266 -110T297 -63T304 41V66H298Q286 32 259 14T181 -4Q126 -4 99 17T64 82T55 206V510H144V221Q144 152 149 123T170 84T220 75Q260
75 277 93T299 144T304 246V510H393V68Q393 -37 381 -91T329 -172T207 -199Q130 -199 74 -191ZM94 898V982H175V898H94ZM272 898V982H353V898H272Z" />
<glyph unicode="&#x2013;" glyph-name="endash" horiz-adv-x="432" d="M52 267V341H380V267H52Z" />
<glyph unicode="&#x2014;" glyph-name="emdash" horiz-adv-x="823" d="M52 267V341H771V267H52Z" />
<glyph unicode="&#x2018;" glyph-name="quoteleft" horiz-adv-x="194" d="M46 551Q46 608 54 636T85 676T157 688V648Q124 648 115 635T105 582V566H142V468H46V551Z" />
<glyph unicode="&#x2019;" glyph-name="quoteright" horiz-adv-x="194" d="M69 508T78 521T88 574V590H50V688H147V604Q147 546 139 519T108 480T36 468V508Q69 508 78 521Z" />
<glyph unicode="&#x201a;" glyph-name="quotesinglbase" horiz-adv-x="206" d="M73 -82T82 -69T92 -16V0H54V98H151V14Q151 -44 143 -71T112 -110T40 -122V-82Q73 -82 82 -69Z" />
<glyph unicode="&#x201c;" glyph-name="quotedblleft" horiz-adv-x="345" d="M46 551Q46 608 54 636T85 676T157 688V648Q124 648 115 635T105 582V566H142V468H46V551ZM198 551Q198 609 206 637T237 676T309 688V648Q276 648 267 635T257 582V566H294V468H198V551Z" />
<glyph unicode="&#x201d;" glyph-name="quotedblright" horiz-adv-x="345" d="M69 508T78 521T88 574V590H50V688H147V604Q147 546 139 519T108 480T36 468V508Q69 508 78 521ZM221 508T230 521T240 574V590H202V688H299V604Q299 547 291 519T260 480T188 468V508Q221
508 230 521Z" />
<glyph unicode="&#x201e;" glyph-name="quotedblbase" horiz-adv-x="358" d="M73 -82T82 -69T92 -16V0H54V98H151V14Q151 -44 143 -71T112 -110T40 -122V-82Q73 -82 82 -69ZM225 -82T234 -69T244 -16V0H206V98H303V14Q303 -43 295 -71T264 -110T192 -122V-82Q225
-82 234 -69Z" />
<glyph unicode="&#x2022;" glyph-name="bullet" horiz-adv-x="298" d="M242 298T237 281T213 256T147 249Q102 249 84 256T60 280T55 342Q55 387 60 405T83 430T147 437Q194 437 213 431T237 406T242 342Q242 298 237 281Z" />
<glyph unicode="&#x2039;" glyph-name="guilsinglleft" horiz-adv-x="236" d="M123 106L29 307L123 510H186L109 307L186 106H123Z" />
<glyph unicode="&#x203a;" glyph-name="guilsinglright" horiz-adv-x="236" d="M48 106L126 307L48 510H112L207 307L112 106H48Z" />
</font>
</defs>
</svg>
