<?xml version="1.0" standalone="no"?>
<!DOCTYPE svg PUBLIC "-//W3C//DTD SVG 1.1//EN" "http://www.w3.org/Graphics/SVG/1.1/DTD/svg11.dtd">
<svg xmlns="http://www.w3.org/2000/svg">
<defs >
<font id="SofadiOne" horiz-adv-x="516" ><font-face
    font-family="Sofadi One"
    units-per-em="1000"
    panose-1="2 0 0 0 0 0 0 0 0 0"
    ascent="856"
    descent="-310"
    alphabetic="0" />
<glyph unicode=" " glyph-name="space" horiz-adv-x="300" />
<glyph unicode="!" glyph-name="exclam" horiz-adv-x="241" d="M121 177Q96 177 88 186T79 210L73 709Q73 723 84 734T121 745Q146 745 157 734T169 709L163 210Q163 196 155 187T121 177ZM121 -4Q95 -4 83 6T70 33V65Q70 81 82 91T121 102Q147 102 159 92T171
65V33Q171 17 159 7T121 -4Z" />
<glyph unicode="&quot;" glyph-name="quotedbl" horiz-adv-x="331" d="M131 464Q131 447 120 437T90 427Q50 427 50 464V665Q50 702 90 702Q109 702 120 692T131 665V464ZM281 464Q281 447 270 437T240 427Q200 427 200 464V665Q200 702 240 702Q259 702 270 692T281
665V464Z" />
<glyph unicode="#" glyph-name="numbersign" horiz-adv-x="600" d="M128 522V589Q128 603 138 612T171 622Q194 622 204 613T214 589V522H387V589Q387 603 396 612T428 622Q452 622 462 613T472 589V522H536Q551 522 560 512T570 478Q570 455 561 446T536 436H472V176H536Q551
176 560 166T570 133Q570 111 561 101T536 90H472V23Q472 9 462 0T428 -10Q406 -10 397 -1T387 23V90H214V23Q214 9 204 0T171 -10Q148 -10 138 -1T128 23V90H63Q49 90 40 100T30 133Q30 156 39 166T63 176H128V436H63Q49 436 40 445T30 478Q30 501 39 511T63 522H128ZM214
176H387V436H214V176Z" />
<glyph unicode="$" glyph-name="dollar" horiz-adv-x="685" d="M335 59Q372 59 401 69T450 95T481 133T492 175Q492 189 489 200T475 220T445 237T395 255L262 293Q199 311 165 348T130 444Q130 472 143 499T182 548T242 587T319 612V682Q319 699 331 710T369
722Q396 722 408 711T420 682V618Q454 615 490 606T556 583T605 550T624 508Q624 488 608 473T561 457Q542 457 528 464T505 480Q485 502 470 516T439 538T407 550T369 554Q341 554 318 546T277 524T250 493T240 457Q240 431 254 408T310 374L479 326Q550 306 576
271T603 190Q603 165 589 137T549 84T487 37T407 4V-60Q407 -77 395 -88T356 -100Q330 -100 318 -89T306 -60V-7Q257 -5 214 8T137 43T84 97T61 166Q61 189 75 208T115 227Q138 227 151 217T175 173Q194 117 238 88T335 59Z" />
<glyph unicode="%" glyph-name="percent" horiz-adv-x="1004" d="M352 -21Q346 -31 340 -37T323 -44Q312 -44 296 -34Q283 -26 278 -19T273 -4Q273 2 276 8T284 23L654 633Q660 643 666 649T682 656Q693 656 709 646Q722 638 727 631T732 616Q732 606 722 589L352
-21ZM309 603Q383 603 415 576T448 504Q448 463 426 421T365 343T277 286T169 263Q95 263 63 291T30 364Q30 405 52 447T113 524T202 581T309 603ZM272 547Q240 547 213 535T165 502T134 454T122 398Q122 361 143 340T203 319Q234 319 262 331T311 365T344 413T357
469Q357 505 335 526T272 547ZM835 349Q909 349 941 322T974 250Q974 209 952 167T891 89T803 32T695 9Q621 9 589 37T556 110Q556 151 578 193T639 270T728 327T835 349ZM798 293Q766 293 739 281T691 248T660 200T648 144Q648 107 669 86T729 65Q760 65 788 77T837
111T870 159T883 215Q883 251 861 272T798 293Z" />
<glyph unicode="&amp;" glyph-name="ampersand" horiz-adv-x="586" d="M516 261V177Q516 85 457 36T262 -14Q203 -14 161 -4T92 23T53 62T40 109Q40 136 51 163T83 216T133 261T198 293Q131 308 102 342T73 412Q73 451 96 489T157 558T244 607T345 626Q405 626
429 610T453 564Q453 529 438 510T400 490Q379 490 367 499T355 525Q355 559 305 559Q278 559 254 548T211 519T181 475T169 422Q169 373 211 346T358 319H419V358Q419 375 430 386T467 398Q494 398 505 387T516 358V318H558Q587 318 587 290Q587 261 558 261H516ZM302
262Q229 262 189 230T148 145Q148 94 182 69T293 43Q330 43 354 49T393 71T413 114T419 183V262H302Z" />
<glyph unicode="&apos;" glyph-name="quotesingle" horiz-adv-x="181" d="M131 464Q131 447 120 437T90 427Q50 427 50 464V665Q50 702 90 702Q109 702 120 692T131 665V464Z" />
<glyph unicode="(" glyph-name="parenleft" horiz-adv-x="349" d="M174 63Q174 -22 196 -98T267 -227Q275 -235 277 -240T279 -251Q279 -261 270 -270T247 -280Q237 -280 229 -277T209 -263Q176 -233 150 -195T106 -114T79 -25T70 69V463Q70 510 79 556T106 646T150
727T209 795Q220 806 228 809T247 812Q260 812 269 803T279 783Q279 778 277 773T267 759Q219 706 197 630T174 468V63Z" />
<glyph unicode=")" glyph-name="parenright" horiz-adv-x="349" d="M175 468Q175 553 153 629T82 759Q74 767 72 772T70 783Q70 793 79 802T102 812Q112 812 120 809T140 795Q173 765 199 727T243 646T270 557T279 463V69Q279 22 270 -24T243 -114T199 -195T140
-263Q129 -274 121 -277T102 -280Q89 -280 80 -271T70 -251Q70 -246 72 -241T82 -227Q130 -174 152 -98T175 63V468Z" />
<glyph unicode="*" glyph-name="asterisk" horiz-adv-x="413" d="M307 468Q312 461 312 454Q312 441 300 430T274 419Q262 419 255 429L206 508L157 429Q150 419 138 419Q124 419 112 430T100 455Q100 461 105 468L167 538L77 560Q68 562 64 569T60 584Q60 598
69 610T90 623Q92 623 98 621L182 585L174 676Q172 689 183 695T207 702Q220 702 230 696T239 676L231 584L315 620Q321 622 324 622Q336 622 344 610T353 584Q353 576 349 569T336 559L246 537L307 468Z" />
<glyph unicode="+" glyph-name="plus" horiz-adv-x="347" d="M140 222H59Q45 222 38 231T30 256Q30 270 37 279T59 289H140V369Q140 383 149 390T174 398Q188 398 197 391T207 369V289H288Q302 289 309 280T317 256Q317 241 310 232T288 222H207V140Q207 126 198
119T174 111Q159 111 150 118T140 140V222Z" />
<glyph unicode="," glyph-name="comma" horiz-adv-x="221" d="M161 37Q161 25 156 12T137 -33L104 -106Q98 -120 83 -120Q75 -120 66 -116Q43 -107 43 -91Q43 -88 45 -82L81 1Q60 11 60 33V65Q60 81 72 91T111 102Q137 102 149 92T161 65V37Z" />
<glyph unicode="-" glyph-name="hyphen" horiz-adv-x="347" d="M59 222Q45 222 38 231T30 256Q30 270 37 279T59 289H288Q302 289 309 280T317 256Q317 241 310 232T288 222H59Z" />
<glyph unicode="." glyph-name="period" horiz-adv-x="221" d="M111 -4Q85 -4 73 6T60 33V65Q60 81 72 91T111 102Q137 102 149 92T161 65V33Q161 17 149 7T111 -4Z" />
<glyph unicode="/" glyph-name="slash" horiz-adv-x="382" d="M98 -16Q90 -40 65 -40Q51 -40 36 -33Q1 -18 1 6Q1 15 5 23L284 701Q292 725 317 725Q331 725 345 718Q381 704 381 679Q381 670 377 662L98 -16Z" />
<glyph unicode="0" glyph-name="zero" horiz-adv-x="569" d="M350 627Q396 627 432 614T495 571T535 495T549 384Q549 296 530 223T472 97T378 15T247 -14Q202 -14 166 0T104 44T64 120T50 230Q50 319 69 392T127 517T221 598T350 627ZM329 564Q245 564 201 493T156
271Q156 210 164 168T187 99T222 61T266 49Q348 49 395 121T442 344Q442 404 434 446T411 514T375 552T329 564Z" />
<glyph unicode="1" glyph-name="one" horiz-adv-x="375" d="M216 612Q235 621 254 621Q281 621 293 608T305 571V30Q305 13 293 2T254 -10Q228 -10 216 1T204 30V526L81 453Q70 447 60 447Q36 447 25 473Q20 486 20 494Q20 515 46 528L216 612Z" />
<glyph unicode="2" glyph-name="two" horiz-adv-x="533" d="M57 0Q41 0 36 10T30 36Q30 47 35 52T57 70Q147 133 206 189T300 295T350 386T365 460Q365 507 344 531T277 556Q233 556 203 536T159 479Q153 464 142 455T107 446Q88 446 75 455T62 484Q62 508 83
533T139 578T219 612T313 626Q385 626 428 587T471 483Q471 441 448 388T383 279T286 170T166 73H329Q361 73 378 77T404 87T416 101T424 114T436 125T461 129Q480 129 491 117T503 82Q503 44 474 22T368 0H57Z" />
<glyph unicode="3" glyph-name="three" horiz-adv-x="577" d="M290 357Q343 363 372 396T402 473Q402 510 382 533T321 556Q277 556 242 536T193 479Q187 464 176 455T141 446Q122 446 109 455T96 484Q96 508 117 533T173 578T253 612T347 626Q419 626 462 595T505
504Q505 484 500 462T484 419T453 380T406 351H418Q477 351 507 321T537 247Q537 202 510 156T436 73T324 11T185 -13Q103 -13 62 18T20 94Q20 121 34 137T70 154Q88 154 97 147T113 128T125 105T142 81T171 63T221 55Q267 55 304 67T368 101T409 152T424 217Q424
241 417 258T397 285T370 300T337 305Q326 305 311 302T282 294T254 286T233 282Q205 282 205 311Q205 333 213 341T247 352L290 357Z" />
<glyph unicode="4" glyph-name="four" horiz-adv-x="609" d="M444 337Q403 270 345 237T212 203Q121 203 76 241T30 336Q30 366 41 401T71 473T119 544T180 608Q191 619 199 622T218 625Q231 625 240 616T250 596Q250 591 248 586T238 572Q214 546 196 519T165
464T145 411T138 366Q138 315 164 290T239 264Q278 264 314 280T378 327T423 398T440 488V576Q440 593 451 604T490 616Q516 616 527 605T539 576V29Q539 12 528 1T492 -11Q466 -11 455 0T444 29V337Z" />
<glyph unicode="5" glyph-name="five" horiz-adv-x="603" d="M439 611Q505 611 534 589T563 529Q563 503 554 489T518 475Q501 475 494 480T483 493T477 510T466 527T440 540T389 545H304Q268 545 252 534T228 498L217 459Q212 442 208 424T202 385T196 340Q237
366 281 378T370 390Q452 390 492 356T533 259Q533 214 505 166T429 78T316 13T180 -13Q98 -13 57 18T15 94Q15 121 29 137T65 154Q83 154 92 147T108 128T120 105T137 81T166 63T216 55Q262 55 300 69T365 108T407 165T422 233Q422 278 397 303T331 328Q290 328
252 311T184 269Q158 248 139 248Q128 248 119 254Q101 266 101 283Q101 288 102 294T105 309L141 471Q161 542 202 576T296 611H439Z" />
<glyph unicode="6" glyph-name="six" horiz-adv-x="587" d="M358 386Q447 386 487 353T527 269Q527 221 500 171T427 80T319 13T188 -14Q99 -14 60 18T20 98Q20 152 52 208Q60 227 68 248T83 290T94 327T98 355Q98 398 122 446T194 534T314 600T481 626Q522 626
539 612T557 572Q557 535 542 517T504 498Q484 498 472 507T459 533Q459 550 451 558T423 566Q376 566 335 549T260 499T203 421T168 321Q210 354 258 370T358 386ZM317 324Q276 324 241 308T181 266T141 207T126 138Q126 96 153 72T227 48Q267 48 302 63T364 104T406
162T422 229Q422 271 395 297T317 324Z" />
<glyph unicode="7" glyph-name="seven" horiz-adv-x="496" d="M370 550H241Q199 550 177 546T143 534T128 519T120 504T107 493T76 488Q50 488 40 500T30 539Q30 559 39 574T71 599T128 614T216 619H422Q456 619 471 610T486 575Q486 560 476 537T451 484L215
9Q210 -2 202 -8T181 -14Q167 -14 152 -7Q119 9 119 34Q119 43 123 51L370 550Z" />
<glyph unicode="8" glyph-name="eight" horiz-adv-x="564" d="M399 626Q478 626 511 600T544 532Q544 489 516 442T443 363Q485 352 510 326T536 265Q536 215 513 165T447 75T345 10T215 -15Q121 -15 81 17T40 101Q40 129 50 160T80 220T124 276T178 324Q153 335
137 353T121 397Q121 438 142 479T201 552T289 605T399 626ZM325 321Q286 321 253 306T196 266T159 208T145 140Q145 95 171 70T248 44Q287 44 320 59T378 99T417 158T432 227Q432 269 404 295T325 321ZM361 561Q329 561 303 551T259 522T230 481T219 433Q219 402
240 384T302 366Q330 366 356 376T403 405T435 446T447 495Q447 526 425 543T361 561Z" />
<glyph unicode="9" glyph-name="nine" horiz-adv-x="602" d="M429 291Q346 204 233 204Q144 204 104 238T63 328Q63 379 89 432T161 528T265 598T389 625Q481 625 521 591T562 502Q562 473 553 443T528 383Q528 350 529 331T531 300T533 284T534 273Q534 222 507
171T432 79T322 13T185 -13Q103 -13 62 18T20 94Q20 121 34 137T70 154Q88 154 97 147T113 128T125 105T142 81T171 63T221 55Q267 55 305 70T370 111T413 175T429 258V291ZM352 562Q314 562 281 546T224 503T185 441T171 369Q171 321 196 294T270 267Q308 267
341 283T400 327T440 389T455 462Q455 507 428 534T352 562Z" />
<glyph unicode=":" glyph-name="colon" horiz-adv-x="221" d="M111 249Q85 249 73 259T60 286V318Q60 334 72 344T111 355Q137 355 149 345T161 318V286Q161 270 149 260T111 249ZM111 -4Q85 -4 73 6T60 33V65Q60 81 72 91T111 102Q137 102 149 92T161 65V33Q161
17 149 7T111 -4Z" />
<glyph unicode=";" glyph-name="semicolon" horiz-adv-x="221" d="M111 249Q85 249 73 259T60 286V318Q60 334 72 344T111 355Q137 355 149 345T161 318V286Q161 270 149 260T111 249ZM161 37Q161 25 156 12T137 -33L104 -106Q98 -120 83 -120Q75 -120 66 -116Q43
-107 43 -91Q43 -88 45 -82L81 1Q60 11 60 33V65Q60 81 72 91T111 102Q137 102 149 92T161 65V37Z" />
<glyph unicode="&lt;" glyph-name="less" horiz-adv-x="433" d="M358 431Q364 434 370 434Q389 434 399 411Q403 403 403 394Q403 376 386 368L134 264L386 161Q403 153 403 135Q403 126 399 118Q389 95 370 95Q364 95 358 98L48 234Q30 242 30 265Q30 287 48
295L358 431Z" />
<glyph unicode="=" glyph-name="equal" horiz-adv-x="347" d="M59 162Q45 162 38 171T30 196Q30 210 37 219T59 229H288Q302 229 309 220T317 196Q317 181 310 172T288 162H59ZM59 312Q45 312 38 321T30 346Q30 360 37 369T59 379H288Q302 379 309 370T317 346Q317
331 310 322T288 312H59Z" />
<glyph unicode="&gt;" glyph-name="greater" horiz-adv-x="433" d="M385 295Q403 287 403 265Q403 242 385 234L75 98Q69 95 63 95Q44 95 34 118Q30 126 30 135Q30 153 47 161L299 264L47 368Q30 376 30 394Q30 403 34 411Q44 434 63 434Q69 434 75 431L385 295Z" />
<glyph unicode="?" glyph-name="question" horiz-adv-x="509" d="M264 177Q239 177 232 186T222 210Q219 234 219 263Q219 286 229 309T269 364Q306 403 334 447T363 541Q363 585 335 608T258 632Q211 632 183 612T138 555Q131 540 120 531T86 522Q67 522 54 531T41
560Q41 584 58 609T106 654T183 688T284 702Q368 702 418 665T469 564Q469 537 457 505T426 440T385 378T345 329Q333 316 327 308T316 293T311 277T309 255L306 210Q305 196 297 187T264 177ZM266 -4Q240 -4 228 6T215 33V65Q215 81 227 91T266 102Q292 102 304
92T316 65V33Q316 17 304 7T266 -4Z" />
<glyph unicode="@" glyph-name="at" horiz-adv-x="879" d="M483 280Q451 280 420 268T363 235T323 185T308 119Q308 77 330 59T393 41Q425 41 457 54T516 88T558 139T575 201Q575 240 550 260T483 280ZM583 478Q634 478 680 465T762 427T818 365T839 282Q839 232
822 178T776 80T709 8T629 -21Q602 -21 590 -8T578 29V90Q485 -21 364 -21Q288 -21 256 8T224 95Q224 142 251 185T320 261T412 313T510 333Q570 333 609 308T649 226Q649 213 646 198T642 180V72Q642 52 645 45T658 38Q674 38 690 54T720 99T742 164T750 241Q750
326 696 369T549 413Q471 413 396 386T262 313T167 205T130 74Q130 30 146 -3T191 -59T256 -93T337 -105H364Q381 -105 390 -108T399 -124Q399 -146 375 -156T291 -166Q240 -166 195 -152T115 -111T60 -46T40 40Q40 134 85 214T205 353T379 445T583 478Z" />
<glyph unicode="A" glyph-name="A" horiz-adv-x="665" d="M491 344V378Q491 475 453 517T346 560Q314 560 284 547T230 507T187 440T159 344H491ZM154 280Q154 214 166 164T199 78Q208 63 211 52T215 30Q215 13 200 0T158 -14Q141 -14 125 -3T96 31Q77 68 66 121T55
231Q55 317 80 389T150 514T253 596T378 626Q487 626 541 572T595 402V28Q595 9 582 -2T543 -14Q517 -14 504 -3T491 28V280H154Z" />
<glyph unicode="B" glyph-name="B" horiz-adv-x="686" d="M167 121Q167 99 171 85T189 64T231 54T305 51Q368 51 412 60T484 86T524 129T537 189Q537 214 529 233T500 265T445 285T358 292H167V121ZM70 468Q70 496 74 516T88 552T116 577T162 598Q197 611 246
618T354 625Q414 625 456 615T525 587T564 548T576 502Q576 479 569 456T547 411T510 371T457 341Q557 336 601 306T646 215Q646 165 621 124T547 51T425 3T255 -14Q202 -14 167 -9T110 9T79 42T70 92V468ZM243 561Q217 555 202 549T180 534T170 509T167 468V349H314Q384
349 426 380T468 466Q468 517 434 542T323 568Q305 568 281 566T243 561Z" />
<glyph unicode="C" glyph-name="C" horiz-adv-x="785" d="M364 55Q403 55 437 63T501 86T555 118T598 158Q610 172 621 179T650 186Q666 186 675 178T684 156Q684 140 669 124Q643 96 607 71T527 27T437 -3T343 -14Q266 -14 209 2T115 48T59 119T40 210Q40 262
57 313T105 410T179 496T276 564T390 609T518 626Q609 626 667 602T752 543Q765 527 765 505Q765 484 748 469T704 454Q690 454 676 461T651 482Q618 522 575 539T473 557Q407 557 350 532T250 463T182 363T157 244Q157 204 171 170T212 110T277 70T364 55Z" />
<glyph unicode="D" glyph-name="D" horiz-adv-x="731" d="M245 -14Q186 -14 151 -11T98 3T75 33T70 84V466Q70 502 77 526T105 567T163 595T262 615Q290 619 329 622T402 625Q465 625 515 609T602 564T657 492T676 399Q676 306 645 230T558 100T422 16T245 -14ZM565
363Q565 467 513 513T352 560Q336 560 322 559T296 556Q258 551 235 545T198 529T179 503T174 463V99Q174 84 177 75T190 61T221 54T276 52Q340 52 393 70T484 125T543 222T565 363Z" />
<glyph unicode="E" glyph-name="E" horiz-adv-x="609" d="M511 106Q541 106 541 77Q541 63 534 54T509 35Q492 26 465 17T403 2T326 -9T241 -14Q182 -14 148 -9T96 7T75 37T70 84V421Q70 467 76 499T99 552T143 586T214 608Q232 612 252 615T291 620T326 623T353
625Q415 625 455 620T518 604T550 580T559 550Q559 527 544 513T509 499Q495 499 481 504T458 518Q447 528 436 536T410 549T373 557T323 560Q316 560 306 559T284 557T262 554T246 551Q222 545 208 539T186 520T176 488T174 435V345H389Q403 345 411 336T419 313Q419
299 411 290T389 281H174V101Q174 84 176 75T187 60T211 54T255 52Q298 52 332 55T394 65T445 80T488 99Q501 106 511 106Z" />
<glyph unicode="F" glyph-name="F" horiz-adv-x="589" d="M70 421Q70 467 76 499T99 552T143 586T214 608Q232 612 252 615T291 620T326 623T353 625Q415 625 455 620T518 604T550 580T559 550Q559 527 544 513T509 499Q495 499 481 504T458 518Q447 528 436 536T410
549T373 557T323 560Q316 560 306 559T284 557T262 554T246 551Q222 545 208 539T186 520T176 488T174 435V345H389Q403 345 411 336T419 313Q419 299 411 290T389 281H174V28Q174 9 161 -2T122 -14Q96 -14 83 -3T70 28V421Z" />
<glyph unicode="G" glyph-name="G" horiz-adv-x="790" d="M40 210Q40 262 57 313T105 410T180 496T277 564T393 609T523 626Q614 626 672 602T757 543Q770 527 770 505Q770 484 753 469T709 454Q695 454 681 461T656 482Q623 522 580 539T478 557Q410 557 352
532T250 463T182 363T157 244Q157 204 172 170T215 111T281 71T366 56Q426 56 475 77T558 125T611 179T630 215Q630 224 617 224H414Q388 224 388 260Q388 294 414 294H671Q700 294 712 282T725 250Q725 229 711 202T673 145T614 87T538 36T451 0T355 -14Q276 -14
217 2T119 49T60 120T40 210Z" />
<glyph unicode="H" glyph-name="H" horiz-adv-x="673" d="M603 28Q603 9 590 -2T551 -14Q525 -14 512 -3T499 28V298H174V28Q174 9 161 -2T122 -14Q96 -14 83 -3T70 28V579Q70 598 83 609T122 621Q148 621 161 610T174 579V362H499V579Q499 598 512 609T551 621Q577
621 590 610T603 579V28Z" />
<glyph unicode="I" glyph-name="I" horiz-adv-x="234" d="M169 28Q169 9 156 -2T117 -14Q91 -14 78 -3T65 28V579Q65 598 78 609T117 621Q143 621 156 610T169 579V28Z" />
<glyph unicode="J" glyph-name="J" horiz-adv-x="564" d="M400 579Q400 598 413 609T452 621Q478 621 491 610T504 579V284Q504 229 482 176T418 80T316 12T179 -14Q141 -14 110 -4T57 23T22 63T10 113Q10 144 27 163T70 183Q116 183 116 143Q117 94 142 71T215
48Q260 48 294 65T352 110T388 177T400 259V579Z" />
<glyph unicode="K" glyph-name="K" horiz-adv-x="579" d="M174 331Q194 397 226 451T298 542T382 600T469 621Q516 621 537 608T559 570Q559 546 549 533T524 520Q515 520 510 521T497 526Q477 535 462 538T427 542Q394 542 360 520T299 465T254 393T236 318Q236
280 258 241T317 168T405 109T511 74Q537 69 546 60T556 30Q556 12 542 0T502 -12Q445 -12 391 13T293 84T218 190T174 322V28Q174 9 161 -2T122 -14Q96 -14 83 -3T70 28V579Q70 598 83 609T122 621Q148 621 161 610T174 579V331Z" />
<glyph unicode="L" glyph-name="L" horiz-adv-x="474" d="M433 64Q445 64 452 55T459 32Q459 18 452 9T433 0H211Q130 0 95 38T60 140Q60 166 64 193T69 247V583Q69 600 82 610T121 621Q147 621 160 611T173 583V207Q173 164 175 136T187 92T216 70T267 64H433Z" />
<glyph unicode="M" glyph-name="M" horiz-adv-x="684" d="M174 496Q179 459 195 418T235 343T287 285T342 262Q375 262 405 289T459 356T496 442T510 528V579Q510 598 523 609T562 621Q588 621 601 610T614 579V28Q614 9 601 -2T562 -14Q536 -14 523 -3T510 28V353Q497
319 481 290T443 238T397 204T340 191Q299 191 271 205T223 239T192 281T174 321V28Q174 9 161 -2T122 -14Q96 -14 83 -3T70 28V579Q70 598 83 609T122 621Q148 621 161 610T174 579V496Z" />
<glyph unicode="N" glyph-name="N" horiz-adv-x="739" d="M175 524Q176 418 196 332T249 183T326 87T419 53Q455 53 484 65T535 104T568 171T580 268Q580 331 559 397T496 528Q482 550 477 562T472 584Q472 601 489 613T527 625Q546 625 561 615T602 573Q640 522
662 450T684 293Q684 230 663 174T606 77T519 11T411 -14Q317 -14 254 49T170 229V28Q170 9 157 -2T120 -14Q96 -14 83 -3T70 28V579Q70 598 83 609T122 621Q148 621 161 610T174 579L175 524Z" />
<glyph unicode="O" glyph-name="O" horiz-adv-x="851" d="M513 626Q580 626 635 610T729 563T789 491T811 399Q811 351 795 302T748 207T675 121T579 51T465 4T336 -14Q266 -14 211 2T118 48T60 120T40 215Q40 297 79 371T183 502T334 592T513 626ZM473 557Q408
557 351 533T250 468T183 370T158 249Q158 202 173 166T215 106T282 68T368 55Q440 55 500 81T603 150T671 247T695 358Q695 403 679 440T633 503T563 543T473 557Z" />
<glyph unicode="P" glyph-name="P" horiz-adv-x="623" d="M174 28Q174 11 161 1T123 -10Q98 -10 84 0T70 28V461Q70 491 74 513T90 551T126 579T188 602Q203 606 224 610T269 618T313 624T352 626Q471 626 527 584T583 476Q583 429 562 385T499 307T398 252T262
231Q243 231 220 233T174 239V28ZM174 293Q191 290 214 289T261 287Q375 287 426 333T478 458Q478 512 440 540T331 569Q311 569 289 567T250 560Q224 554 209 548T186 531T176 504T174 459V293Z" />
<glyph unicode="Q" glyph-name="Q" horiz-adv-x="851" d="M564 42Q513 16 456 1T336 -14Q266 -14 211 2T118 48T60 120T40 215Q40 297 79 371T183 502T334 592T513 626Q580 626 635 610T729 563T789 491T811 399Q811 320 768 241T650 99L750 47Q763 40 768 31T774
10Q774 -10 758 -27T720 -45Q708 -45 694 -37L564 42ZM473 557Q408 557 351 533T250 468T183 370T158 249Q158 202 173 166T215 106T282 68T368 55Q439 55 500 81L412 136Q399 145 399 160Q399 176 411 191T441 206Q450 206 457 202L585 134Q637 178 666 236T695
358Q695 403 679 440T633 503T563 543T473 557Z" />
<glyph unicode="R" glyph-name="R" horiz-adv-x="649" d="M174 28Q174 11 161 1T123 -10Q98 -10 84 0T70 28V461Q70 491 74 513T90 551T126 579T188 602Q203 606 224 610T269 618T313 624T352 626Q471 626 527 584T583 476Q583 441 570 409T531 351T468 305T383
277Q426 270 465 246T534 187T581 111T599 30Q599 10 586 -1T546 -12Q520 -12 508 -1T494 29Q490 78 470 118T419 188T352 234T277 251H257Q238 251 216 252T174 257V28ZM174 311Q191 308 214 308T261 307Q375 307 426 347T478 458Q478 509 442 539T331 569Q311
569 289 567T250 560Q224 554 209 548T186 531T176 504T174 459V311Z" />
<glyph unicode="S" glyph-name="S" horiz-adv-x="697" d="M338 53Q387 53 424 62T487 88T526 124T539 167Q539 181 536 191T522 210T492 227T440 244L244 302Q170 324 140 359T110 449Q110 486 129 518T184 575T275 612T400 626Q445 626 492 618T578 593T641 556T666
508Q666 488 650 472T602 456Q582 456 567 463T544 480Q509 522 466 541T366 560Q297 560 260 531T222 460Q222 431 241 413T313 379L526 318Q562 307 586 295T626 267T647 232T653 188Q653 155 630 120T564 55T463 6T333 -14Q264 -14 208 0T113 38T53 97T31 170Q31
199 46 216T87 233Q112 233 126 220T152 169Q159 145 176 124T218 88T273 63T338 53Z" />
<glyph unicode="T" glyph-name="T" horiz-adv-x="568" d="M517 619Q548 619 548 582Q548 545 517 545H336V28Q336 9 323 -2T284 -14Q258 -14 245 -3T232 28V545H51Q20 545 20 582Q20 619 51 619H517Z" />
<glyph unicode="U" glyph-name="U" horiz-adv-x="649" d="M306 55Q350 55 385 76T444 134T482 222T495 331Q495 435 441 536Q436 546 433 556T429 579Q429 599 445 612T485 625Q532 625 557 579Q575 545 584 491T594 379Q594 294 570 222T503 98T402 16T276 -14Q160
-14 110 44T60 210Q60 258 62 300T69 384T81 470T98 567Q105 605 149 605Q173 605 185 595T197 566Q197 558 192 520T181 432T169 330T164 240Q164 187 172 152T199 95T243 64T306 55Z" />
<glyph unicode="V" glyph-name="V" horiz-adv-x="609" d="M531 623Q542 623 553 620T572 610T585 593T587 569Q559 447 534 357T485 202T438 96T389 31T335 -2T275 -11Q191 -11 131 130T21 567Q19 581 23 591T36 609T56 620T79 624Q96 624 110 616T129 591Q159
467 181 379T220 232T249 138T270 85T287 62T302 57Q322 57 337 82T371 168T419 334T494 596Q499 611 508 617T531 623Z" />
<glyph unicode="W" glyph-name="W" horiz-adv-x="877" d="M395 600Q415 600 432 587T463 551T483 495T491 422Q491 395 488 373T481 328T474 282T471 230Q471 181 478 149T498 97T528 69T566 61Q593 61 619 81T667 139T701 227T714 340Q714 431 668 524Q662 536
660 546T658 570Q658 589 676 603T720 618Q738 618 756 604T788 563T812 495T822 402Q822 312 800 236T739 105T648 18T534 -14Q507 -14 485 -2T446 33T420 88T410 159Q378 77 325 32T211 -14Q180 -14 153 0T105 46T72 124T60 238Q60 292 61 334T66 415T73 490T84
566Q89 594 100 605T133 617Q160 617 172 603T183 569Q178 509 175 462T170 377T167 310T166 258Q166 199 172 161T188 100T214 69T248 60Q272 60 296 83T340 146T372 239T385 355Q385 433 352 508Q346 522 345 531T344 552Q344 571 359 585T395 600Z" />
<glyph unicode="X" glyph-name="X" horiz-adv-x="620" d="M308 355Q318 412 337 461T384 545T452 601T542 621Q579 621 594 608T610 568Q610 542 600 527T574 512Q563 512 555 514T539 520T523 526T504 529Q481 529 456 513T411 469T377 407T363 335Q363 290 378
248T420 171T485 112T569 81Q608 75 608 33Q608 15 597 3T567 -10Q508 -10 463 18T385 92T333 200T308 327Q303 262 285 202T236 94T159 19T56 -10Q33 -10 22 2T11 34Q11 54 19 65T50 81Q97 89 135 113T200 171T241 248T256 335Q256 370 243 405T210 467T164 512T114
530Q103 530 95 527T80 521T64 515T44 512Q10 512 10 565Q10 594 24 608T79 622Q130 622 168 602T234 547T279 462T308 355Z" />
<glyph unicode="Y" glyph-name="Y" horiz-adv-x="624" d="M362 28Q362 9 349 -2T310 -14Q284 -14 271 -3T258 28V133Q258 168 252 211T234 299T207 386T175 461T141 514T108 534Q99 534 91 531T74 523T57 516T39 512Q25 512 18 527T10 565Q10 582 17 591T36 606T59
612T79 614Q130 614 171 588T243 514T292 396T315 239Q321 326 337 395T381 513T450 588T545 614Q578 614 596 601T614 566Q614 538 605 525T580 512Q571 512 563 515T548 523T532 530T513 534Q496 534 478 514T444 462T412 387T386 300T369 212T362 133V28Z" />
<glyph unicode="Z" glyph-name="Z" horiz-adv-x="568" d="M456 619Q491 619 505 608T520 570Q520 547 507 527T475 484L139 72H292Q335 72 359 80T396 101T415 128T427 155T443 175T476 184Q509 184 523 168T538 120Q538 99 522 78T476 39T403 11T307 0H89Q57
0 44 11T30 45Q30 66 62 110T145 215L418 545H271Q225 545 200 538T162 519T145 494T135 469T121 450T90 442Q64 442 54 456T44 502Q44 526 54 547T86 584T143 609T230 619H456Z" />
<glyph unicode="[" glyph-name="bracketleft" horiz-adv-x="366" d="M70 772Q70 789 82 800T120 812H267Q296 812 296 779Q296 745 267 745H171V-213H267Q296 -213 296 -246Q296 -280 267 -280H120Q94 -280 82 -269T70 -240V772Z" />
<glyph unicode="\" glyph-name="backslash" horiz-adv-x="382" d="M5 662Q3 667 2 671T1 679Q1 704 37 718Q52 724 65 724Q89 724 98 701L377 23Q379 18 380 14T381 6Q381 -18 346 -33Q331 -40 318 -40Q294 -40 284 -16L5 662Z" />
<glyph unicode="]" glyph-name="bracketright" horiz-adv-x="366" d="M296 -240Q296 -257 284 -268T246 -280H99Q70 -280 70 -246Q70 -213 99 -213H195V745H99Q70 745 70 779Q70 812 99 812H246Q272 812 284 801T296 772V-240Z" />
<glyph unicode="^" glyph-name="asciicircum" horiz-adv-x="532" d="M266 702Q282 702 293 688L485 412Q490 404 490 396Q490 379 473 367Q460 359 449 359Q434 359 427 371L266 610L105 371Q97 359 83 359Q72 359 59 367Q42 379 42 396Q42 404 47 412L239 688Q251
702 266 702Z" />
<glyph unicode="_" glyph-name="underscore" horiz-adv-x="641" d="M79 -296Q50 -296 50 -264Q50 -233 79 -233H562Q591 -233 591 -264Q591 -296 562 -296H79Z" />
<glyph unicode="`" glyph-name="grave" horiz-adv-x="175" d="M26 568Q20 575 20 585Q20 599 33 610T64 621Q78 621 86 616T103 598L148 517Q153 508 154 504T155 497Q155 485 144 477T117 468Q95 468 79 492L26 568Z" />
<glyph unicode="a" glyph-name="a" horiz-adv-x="618" d="M386 407Q476 407 517 373T558 284Q558 267 553 250T547 219V30Q547 13 536 2T498 -10Q471 -10 460 1T448 30V97Q403 46 342 16T212 -14Q121 -14 81 21T40 118Q40 170 68 221T144 314T254 381T386 407ZM351
348Q307 348 270 332T206 288T163 226T147 154Q147 107 173 82T249 56Q291 56 328 72T392 116T436 178T453 251Q453 295 426 321T351 348Z" />
<glyph unicode="b" glyph-name="b" horiz-adv-x="618" d="M234 -14Q189 -14 156 -4T102 25T71 67T60 118Q60 141 65 154T71 187V662Q71 679 82 690T120 702Q147 702 158 691T170 662V294Q211 348 275 377T410 407Q500 407 539 371T578 273Q578 222 550 171T475
78T365 12T234 -14ZM267 55Q310 55 347 71T412 113T455 174T471 247Q471 295 446 321T372 347Q330 347 293 331T227 287T182 225T165 152Q165 108 192 82T267 55Z" />
<glyph unicode="c" glyph-name="c" horiz-adv-x="565" d="M147 154Q147 109 173 83T244 56Q291 56 331 72T404 117Q419 131 432 131Q444 131 452 123T461 103Q461 98 459 93T450 81Q412 43 349 15T205 -14Q124 -14 82 22T40 121Q40 173 68 224T143 316T250 382T373
407Q459 407 502 380T545 313Q545 294 534 281T499 267Q479 267 468 273T450 287T436 306T419 325T391 340T344 346Q302 346 266 330T204 287T162 226T147 154Z" />
<glyph unicode="d" glyph-name="d" horiz-adv-x="543" d="M375 352Q364 354 354 355T327 356Q291 356 258 341T199 298T158 233T142 153Q142 107 167 81T227 54Q259 54 295 65T372 102Q374 123 374 145T375 196V352ZM473 148Q473 134 475 126T477 111Q477 103
471 96T444 73Q419 54 389 38T328 11T267 -7T210 -14Q124 -14 82 22T40 122Q40 177 65 228T132 319T224 383T327 407Q341 407 353 407T374 405V662Q374 679 385 690T423 702Q450 702 461 691T473 662V148Z" />
<glyph unicode="e" glyph-name="e" horiz-adv-x="570" d="M386 407Q471 407 510 378T550 307Q550 258 516 224T398 175L149 133Q149 96 169 75T245 53Q295 53 337 65T419 96Q437 105 447 105Q470 105 470 77Q470 60 449 49Q333 -14 216 -14Q169 -14 136 -4T81
23T50 65T40 117Q40 169 68 221T143 314T253 381T386 407ZM353 350Q318 350 284 337T223 302T176 252T150 193L368 228Q418 236 433 251T449 289Q449 313 425 331T353 350Z" />
<glyph unicode="f" glyph-name="f" horiz-adv-x="453" d="M173 30Q173 13 162 2T123 -10Q97 -10 86 1T74 30V331H29Q0 331 0 363Q0 394 29 394H74V404Q74 416 71 427T67 451Q67 489 95 533T168 614T269 677T382 702Q417 702 435 688T453 648Q453 611 438 593T400
574Q380 574 368 583T355 609Q355 626 347 634T319 642Q294 642 268 626T221 583T187 520T173 445V394H300Q329 394 329 363Q329 331 300 331H173V30Z" />
<glyph unicode="g" glyph-name="g" horiz-adv-x="619" d="M548 27Q548 11 551 0T554 -23Q554 -74 527 -125T452 -217T342 -283T205 -309Q123 -309 82 -278T40 -202Q40 -175 54 -159T90 -142Q108 -142 117 -149T133 -168T145 -191T162 -215T191 -233T241 -241Q287
-241 325 -226T390 -185T433 -121T449 -38V97Q404 46 343 16T213 -14Q122 -14 82 21T41 118Q41 170 69 221T145 314T255 381T387 407Q477 407 518 373T559 284Q559 267 554 250T548 219V27ZM352 348Q308 348 271 332T207 288T164 226T148 154Q148 107 174 82T250
56Q292 56 329 72T393 116T437 178T454 251Q454 295 427 321T352 348Z" />
<glyph unicode="h" glyph-name="h" horiz-adv-x="629" d="M167 277Q207 340 266 373T407 407Q495 407 537 372T579 280Q579 249 568 213T538 140T490 68T429 3Q418 -8 410 -11T391 -14Q378 -14 369 -5T359 15Q359 20 361 25T371 39Q395 64 413 92T444 148T464
201T471 246Q471 298 445 323T370 348Q332 348 296 331T231 284T186 212T169 121V28Q169 11 158 0T119 -12Q93 -12 82 -1T70 28V662Q70 679 81 690T118 702Q167 702 167 665V277Z" />
<glyph unicode="i" glyph-name="i" horiz-adv-x="241" d="M171 30Q171 13 159 2T120 -10Q94 -10 82 1T70 30V363Q70 380 82 391T120 403Q147 403 159 392T171 363V30ZM120 494Q90 494 76 506T62 536V574Q62 591 76 603T120 616Q149 616 163 604T178 574V536Q178
519 164 507T120 494Z" />
<glyph unicode="j" glyph-name="j" horiz-adv-x="239" d="M119 494Q89 494 75 506T61 536V574Q61 591 75 603T119 616Q148 616 162 604T177 574V536Q177 519 163 507T119 494ZM70 363Q70 380 81 391T119 403Q146 403 157 392T169 363V44Q169 20 172 -4T179 -50T186
-93T189 -129Q189 -166 180 -198T152 -255T104 -294T34 -309Q12 -309 -8 -302T-44 -283T-69 -252T-79 -212Q-79 -183 -66 -168T-33 -152Q-7 -152 1 -166T13 -196T22 -227T49 -241Q68 -241 78 -228T88 -179Q88 -150 85 -124T79 -71T73 -15T70 50V363Z" />
<glyph unicode="k" glyph-name="k" horiz-adv-x="455" d="M169 30Q169 13 158 2T119 -10Q93 -10 82 1T70 30V662Q70 679 81 690T119 702Q146 702 157 691T169 662L166 261Q176 288 197 314T247 360T310 393T379 405Q415 405 430 393T445 360Q445 315 411 315Q401
315 393 317T375 323T356 329T331 332Q307 332 286 324T250 302T226 270T217 233Q217 207 234 182T277 136T335 100T397 80Q423 75 432 66T441 33Q441 14 429 0T393 -14Q356 -14 318 5T247 57T192 134Q170 177 166 226L169 30Z" />
<glyph unicode="l" glyph-name="l" horiz-adv-x="241" d="M171 30Q171 13 159 2T120 -10Q94 -10 82 1T70 30V662Q70 679 82 690T120 702Q147 702 159 691T171 662V30Z" />
<glyph unicode="m" glyph-name="m" horiz-adv-x="770" d="M317 407Q364 407 391 377T420 290Q452 353 491 380T584 407Q618 407 642 397T683 368T707 325T715 272Q715 241 707 204T684 129T650 58T607 1Q596 -10 587 -13T568 -16Q555 -16 546 -7T536 12Q536 17
538 22T549 38Q560 53 570 76T589 127T603 186T608 246Q608 348 544 348Q521 348 500 331T461 283T434 211T423 120V28Q423 11 412 0T373 -12Q347 -12 336 -1T324 28V260Q324 309 314 328T280 348Q260 348 241 330T205 282T179 210T169 121V28Q169 11 158 0T119
-12Q93 -12 82 -1T70 28V358Q70 375 81 386T117 398Q143 398 154 387T165 358V279Q189 349 226 378T317 407Z" />
<glyph unicode="n" glyph-name="n" horiz-adv-x="629" d="M165 276Q246 407 407 407Q495 407 537 372T579 280Q579 249 568 213T538 140T490 68T429 3Q418 -8 410 -11T391 -14Q378 -14 369 -5T359 15Q359 20 361 25T371 39Q395 64 413 92T444 148T464 201T471
246Q471 298 445 323T370 348Q332 348 296 331T231 284T186 212T169 121V28Q169 11 158 0T119 -12Q93 -12 82 -1T70 28V358Q70 375 81 386T117 398Q143 398 154 387T165 358V276Z" />
<glyph unicode="o" glyph-name="o" horiz-adv-x="598" d="M385 407Q477 407 517 373T558 284Q558 233 530 181T455 85T345 14T212 -14Q121 -14 81 20T40 110Q40 161 68 214T143 310T253 380T385 407ZM343 344Q301 344 266 328T204 285T163 223T148 151Q148 103
176 76T252 49Q293 49 329 65T392 109T435 171T451 244Q451 289 423 316T343 344Z" />
<glyph unicode="p" glyph-name="p" horiz-adv-x="583" d="M169 -269Q169 -286 158 -297T119 -309Q93 -309 82 -298T70 -269V252Q70 268 68 278T65 296Q65 305 71 313T94 332Q118 348 150 361T217 385T287 401T352 407Q443 407 493 370T543 271Q543 221 517 171T449
81T353 15T242 -10Q225 -10 204 -8T169 -3V-269ZM438 247Q438 298 407 324T318 351Q278 351 240 339T171 304Q169 284 169 259V59Q186 51 201 49T234 46Q277 46 314 62T378 105T422 169T438 247Z" />
<glyph unicode="q" glyph-name="q" horiz-adv-x="618" d="M386 407Q476 407 517 373T558 284Q558 267 553 250T547 219V-269Q547 -286 536 -297T498 -309Q471 -309 460 -298T448 -269V97Q403 46 342 16T212 -14Q121 -14 81 21T40 118Q40 170 68 221T144 314T254
381T386 407ZM351 348Q307 348 270 332T206 288T163 226T147 154Q147 107 173 82T249 56Q291 56 328 72T392 116T436 178T453 251Q453 295 426 321T351 348Z" />
<glyph unicode="r" glyph-name="r" horiz-adv-x="487" d="M165 246Q194 330 243 368T348 407Q405 407 438 383T472 328Q472 307 458 292T420 277Q386 277 367 306Q356 323 344 330T314 337Q291 337 266 314T219 255T183 172T169 79V28Q169 11 158 0T119 -12Q93
-12 82 -1T70 28V358Q70 375 81 386T117 398Q143 398 154 387T165 358V246Z" />
<glyph unicode="s" glyph-name="s" horiz-adv-x="505" d="M228 49Q282 49 309 69T337 110Q337 125 326 136T284 156L173 190Q130 203 111 224T92 274Q92 300 105 324T146 366T214 396T309 407Q390 407 435 383T480 330Q480 310 467 296T429 281Q402 281 389 296Q360
329 338 340T284 352Q245 352 220 335T195 294Q195 280 207 269T255 247L352 217Q399 203 419 182T440 128Q440 106 425 81T379 35T306 0T206 -14Q164 -14 130 -5T73 20T38 56T25 99Q25 125 36 139T69 153Q86 153 98 144T120 109Q133 76 158 63T228 49Z" />
<glyph unicode="t" glyph-name="t" horiz-adv-x="413" d="M246 -14Q213 -14 185 -5T137 20T106 58T95 106Q95 129 99 142T104 175V331H59Q30 331 30 363Q30 394 59 394H104V483Q104 500 115 511T153 523Q180 523 191 512T203 483V394H330Q359 394 359 363Q359
331 330 331H203V147Q203 51 276 51Q302 51 319 55T354 67Q362 71 368 71Q379 71 386 64T393 46Q393 29 376 19Q349 4 314 -5T246 -14Z" />
<glyph unicode="u" glyph-name="u" horiz-adv-x="629" d="M464 119Q423 52 365 19T232 -14Q141 -14 96 23T50 118Q50 148 61 183T91 255T139 326T200 390Q211 401 219 404T238 407Q251 407 260 398T270 378Q270 373 268 368T258 354Q234 328 216 301T185 246T165
193T158 148Q158 96 184 71T259 45Q298 45 334 62T398 109T443 180T460 270V358Q460 375 471 386T510 398Q536 398 547 387T559 358V30Q559 13 548 2T512 -10Q486 -10 475 1T464 30V119Z" />
<glyph unicode="v" glyph-name="v" horiz-adv-x="581" d="M162 402Q177 402 188 394T199 371Q199 369 199 367T198 363Q179 281 171 229T162 141Q162 103 183 83T243 62Q282 62 315 76T372 114T409 170T422 240Q422 263 418 286T402 338Q397 353 397 362Q397 378
413 392T456 407Q495 407 515 373Q536 338 536 291Q536 240 512 187T445 90T344 18T216 -10Q135 -10 98 20T60 108Q60 157 75 226T119 373Q125 388 134 395T162 402Z" />
<glyph unicode="w" glyph-name="w" horiz-adv-x="804" d="M208 57Q237 57 264 73T313 115T348 175T361 248Q361 287 343 326Q336 340 336 352Q336 366 352 378T392 390Q410 390 425 382T450 357Q460 340 464 321T468 281Q468 257 464 237T453 199T443 164T438
130Q438 88 451 72T492 55Q522 55 550 69T599 108T634 165T647 231Q647 276 624 336Q619 351 619 360Q619 375 636 388T678 401Q719 401 738 367Q759 331 759 284Q759 234 735 182T670 86T576 14T466 -14Q421 -14 396 12T371 86Q328 36 278 11T181 -14Q118 -14
89 17T60 100Q60 125 64 158T76 227T95 302T121 376Q133 402 164 402Q183 402 193 393T204 369Q204 364 203 361Q192 310 184 272T171 207T164 160T162 128Q162 92 174 75T208 57Z" />
<glyph unicode="x" glyph-name="x" horiz-adv-x="488" d="M123 14Q107 -3 87 -3Q70 -3 57 9T43 38Q43 57 63 76L195 195L63 295Q35 316 35 341Q35 364 53 380T95 396Q123 396 144 371L247 244L366 380Q382 397 402 397Q419 397 432 385T446 356Q446 337 426 318L293
198L425 99Q440 88 446 76T453 51Q453 29 436 13T395 -3Q382 -3 370 3T346 23L242 151L123 14Z" />
<glyph unicode="y" glyph-name="y" horiz-adv-x="635" d="M464 119Q423 52 365 19T232 -14Q141 -14 96 23T50 118Q50 148 61 183T91 255T139 326T200 390Q211 401 219 404T238 407Q251 407 260 398T270 378Q270 373 268 368T258 354Q234 328 216 301T185 246T165
193T158 148Q158 96 184 71T259 45Q298 45 334 62T398 109T443 180T460 270V358Q460 375 471 386T510 398Q536 398 547 387T559 358V27Q559 11 562 0T565 -23Q565 -74 538 -125T463 -217T353 -283T216 -309Q134 -309 93 -278T51 -202Q51 -175 65 -159T101 -142Q119
-142 128 -149T144 -168T156 -191T173 -215T202 -233T252 -241Q298 -241 336 -226T403 -185T448 -121T464 -38V119Z" />
<glyph unicode="z" glyph-name="z" horiz-adv-x="478" d="M400 394Q426 394 434 387T443 361Q443 348 437 337T414 308L140 62H252Q284 62 302 67T330 79T345 95T355 111T369 124T395 129Q416 129 428 117T441 82Q441 51 400 26T281 0H81Q56 0 46 9T35 35Q35 49
43 63T82 104L342 331H212Q182 331 166 327T141 317T128 303T120 290T108 279T84 275Q63 275 53 287T42 322Q42 353 71 373T175 394H400Z" />
<glyph unicode="{" glyph-name="braceleft" horiz-adv-x="361" d="M96 264Q109 263 125 253T154 225T177 182T186 124V64Q186 -21 208 -97T279 -227Q287 -235 289 -240T291 -251Q291 -261 282 -270T259 -280Q249 -280 241 -277T221 -263Q188 -233 162 -195T118
-114T91 -25T82 69V170Q82 201 73 215T49 229H39Q25 229 18 239T10 266Q10 283 17 293T39 303H49Q63 303 72 317T82 362V463Q82 510 91 556T118 646T162 727T221 795Q232 806 240 809T259 812Q272 812 281 803T291 783Q291 778 289 773T279 759Q231 706 209 630T186
468V408Q186 376 177 350T155 306T125 279T96 268V264Z" />
<glyph unicode="|" glyph-name="bar" horiz-adv-x="241" d="M171 -240Q171 -257 159 -268T120 -280Q94 -280 82 -269T70 -240V772Q70 789 82 800T120 812Q147 812 159 801T171 772V-240Z" />
<glyph unicode="}" glyph-name="braceright" horiz-adv-x="361" d="M205 268Q191 269 176 278T147 306T124 350T115 408V468Q115 553 93 629T22 759Q14 767 12 772T10 783Q10 793 19 802T42 812Q52 812 60 809T80 795Q113 765 139 727T183 646T210 557T219 463V362Q219
331 228 317T252 303H262Q276 303 283 293T291 266Q291 249 284 239T262 229H252Q238 229 229 215T219 170V69Q219 22 210 -24T183 -114T139 -195T80 -263Q69 -274 61 -277T42 -280Q29 -280 20 -271T10 -251Q10 -246 12 -241T22 -227Q70 -174 92 -98T115 64V124Q115
156 124 181T146 225T175 253T205 264V268Z" />
<glyph unicode="~" glyph-name="asciitilde" horiz-adv-x="359" d="M231 261Q218 261 204 255T175 243T142 230T106 224Q66 224 43 240T20 279Q20 293 29 302T55 312Q80 312 90 291Q94 283 102 279T125 274Q140 274 153 280T180 292T212 305T253 311Q292 311 315
295T339 258Q339 245 329 234T303 223Q293 223 284 227T270 242Q265 253 257 257T231 261Z" />
<glyph unicode="&#xa0;" glyph-name="nbspace" horiz-adv-x="300" />
<glyph unicode="&#xa1;" glyph-name="exclamdown" horiz-adv-x="241" d="M121 224Q146 224 154 215T163 191L169 -273Q169 -287 158 -298T121 -309Q96 -309 85 -298T73 -273L79 191Q79 205 87 214T121 224ZM121 405Q147 405 159 395T171 368V336Q171 320 159 310T121
299Q95 299 83 309T70 336V368Q70 384 82 394T121 405Z" />
<glyph unicode="&#xa2;" glyph-name="cent" horiz-adv-x="562" d="M326 403Q337 405 349 406T373 407Q459 407 502 380T545 313Q545 294 534 281T499 267Q479 267 468 273T450 287T436 306T419 325T391 340T344 346Q302 346 266 330T204 287T162 226T147 154Q147
109 173 83T242 56Q280 56 320 71T394 117Q411 131 422 131Q434 131 442 123T451 103Q451 98 449 93T440 81Q418 59 387 40T319 7V-73Q319 -89 309 -99T274 -109Q251 -109 240 -99T229 -73V-13Q223 -13 217 -13T205 -14Q124 -14 82 22T40 121Q40 158 55 195T96
267T158 329T236 376V465Q236 481 247 491T281 501Q305 501 315 491T326 465V403Z" />
<glyph unicode="&#xa3;" glyph-name="sterling" horiz-adv-x="588" d="M252 293Q276 287 298 287Q318 287 326 293T340 308T351 323T375 330Q389 330 398 321T408 299Q408 274 384 257T312 239Q297 239 281 241T248 247Q245 227 240 211T231 181T223 155T219 129Q219
92 251 83T346 74H541Q554 74 561 63T568 37Q568 22 561 11T541 0H290Q201 0 159 33T116 131Q116 149 122 163T134 191T147 223T153 266Q145 267 139 267T128 268Q111 266 103 260T90 245T78 231T58 225Q44 225 33 234T21 258Q21 281 46 298T117 315Q126 315 134
315T153 313V348Q153 360 148 371T143 395Q143 437 159 478T211 552T305 605T449 626Q496 626 519 612T543 572Q543 535 528 517T491 498Q471 498 455 507T439 533Q439 550 427 558T391 566Q329 566 288 535T247 445Q247 433 249 421T252 389V293Z" />
<glyph unicode="&#xa4;" glyph-name="currency" horiz-adv-x="512" d="M103 218Q87 238 87 268Q87 300 102 331T143 390L99 434Q91 444 91 453Q91 467 103 479Q114 490 128 490Q139 490 147 482L197 431Q223 445 251 453T312 462Q320 462 328 462T344 460L385
501Q394 510 405 510Q418 510 430 498Q441 485 441 473Q441 461 433 454L409 430Q425 411 425 382Q425 350 410 318T368 259L413 215Q422 206 422 195Q422 184 411 171Q399 159 386 159Q375 159 366 168L315 218Q289 204 260 196T199 187H182Q175 187 168 189L126
147Q117 138 106 138Q94 138 82 150Q70 162 70 175Q70 186 79 194L103 218ZM280 407Q257 407 236 398T200 374T175 340T166 299Q166 271 183 257T230 242Q253 242 274 251T311 275T337 310T347 351Q347 379 329 393T280 407Z" />
<glyph unicode="&#xa5;" glyph-name="yen" horiz-adv-x="624" d="M369 222Q364 193 363 169H466Q480 169 487 160T495 136Q495 121 488 112T466 102H362V28Q362 9 349 -2T310 -14Q284 -14 271 -3T258 28V102H157Q143 102 136 111T128 136Q128 150 135 159T157
169H256Q255 182 253 195T249 222H157Q143 222 136 231T128 256Q128 270 135 279T157 289H235Q224 335 209 379T176 457T142 513T108 534Q99 534 91 531T74 523T57 516T39 512Q25 512 18 527T10 565Q10 582 17 591T36 606T59 612T79 614Q128 614 169 588T241 514T291
396T315 239Q321 326 338 395T384 513T453 588T545 614Q578 614 596 601T614 566Q614 538 605 525T580 512Q571 512 563 515T548 523T532 530T513 534Q495 534 477 513T441 458T409 379T383 289H466Q480 289 487 280T495 256Q495 241 488 232T466 222H369Z" />
<glyph unicode="&#xa6;" glyph-name="brokenbar" horiz-adv-x="241" d="M171 390Q171 373 159 362T120 350Q94 350 82 361T70 390V772Q70 789 82 800T120 812Q147 812 159 801T171 772V390ZM171 -240Q171 -257 159 -268T120 -280Q94 -280 82 -269T70 -240V132Q70
149 82 160T120 172Q147 172 159 161T171 132V-240Z" />
<glyph unicode="&#xa7;" glyph-name="section" horiz-adv-x="638" d="M296 -24Q350 -24 374 1T398 61Q398 94 382 112T337 141L246 172Q215 182 194 194T159 223T141 259T135 306Q135 349 159 383T231 435Q201 449 180 480T158 553Q158 584 170 611T209 658T273
690T365 702Q446 702 492 678T542 625Q542 605 530 591T493 576Q466 576 453 591Q423 624 398 635T342 647Q304 647 282 624T260 565Q260 536 275 515T326 482L427 447Q474 430 498 401T523 325Q523 284 498 247T427 189Q458 175 479 147T500 75Q500 46 486 17T445
-35T376 -72T280 -87Q234 -87 199 -77T139 -50T101 -12T88 32Q88 55 98 67T129 80Q146 80 159 71T183 36Q198 3 222 -10T296 -24ZM341 397Q331 399 320 399Q282 399 260 378T238 319Q238 299 241 286T251 263T271 247T302 234L333 224Q420 232 420 308Q420 344
406 363T363 391L341 397Z" />
<glyph unicode="&#xa8;" glyph-name="dieresis" horiz-adv-x="316" d="M71 505Q45 505 33 516T20 542V575Q20 590 32 601T71 612Q97 612 109 601T121 575V542Q121 527 109 516T71 505ZM245 506Q219 506 207 517T195 543V576Q195 591 207 602T245 613Q271 613 283
602T296 576V543Q296 528 284 517T245 506Z" />
<glyph unicode="&#xa9;" glyph-name="copyright" horiz-adv-x="755" d="M267 243Q267 209 286 190T338 171Q406 171 457 216Q466 225 476 225Q485 225 491 219T498 205Q498 190 480 175T433 148T372 127T310 119Q250 119 220 146T189 218Q189 256 210 293T265
361T343 409T434 428Q497 428 528 408T559 359Q559 345 552 335T526 325Q504 325 496 334T479 354T458 374T412 383Q382 383 356 371T310 340T279 295T267 243ZM443 555Q504 555 554 540T639 496T694 428T714 342Q714 279 685 216T602 101T475 18T310 -14Q245 -14
195 1T111 45T59 114T41 203Q41 273 73 337T159 449T287 526T443 555ZM411 502Q354 502 302 481T211 422T148 334T124 225Q124 134 178 87T335 39Q398 39 452 63T546 126T609 216T632 317Q632 405 574 453T411 502Z" />
<glyph unicode="&#xaa;" glyph-name="ordfeminine" horiz-adv-x="531" d="M341 626Q419 626 455 597T491 519Q491 505 486 490T481 463V298Q481 283 471 273T438 263Q415 263 405 273T395 298V356Q357 311 304 286T190 260Q111 260 76 290T40 375Q40 420 64 465T130
546T226 604T341 626ZM310 573Q273 573 241 559T186 522T149 469T135 407Q135 366 158 345T223 323Q258 323 289 337T345 374T383 427T397 489Q397 527 374 550T310 573ZM69 0Q55 0 48 9T40 34Q40 48 47 57T69 67H462Q476 67 483 58T491 34Q491 19 484 10T462 0H69Z"
/>
<glyph unicode="&#xab;" glyph-name="guillemotleft" horiz-adv-x="450" d="M128 230L224 129Q231 122 231 112Q231 98 218 85Q207 74 194 74Q182 74 173 84L65 204Q50 220 50 231Q50 237 53 243T65 257L174 377Q183 387 195 387Q208 387 219 376Q232 363 232
350Q232 339 225 332L128 230ZM295 230L391 129Q398 122 398 112Q398 98 385 85Q374 74 361 74Q349 74 340 84L232 204Q217 220 217 231Q217 237 220 243T232 257L341 377Q350 387 362 387Q375 387 386 376Q399 363 399 350Q399 339 392 332L295 230Z" />
<glyph unicode="&#xac;" glyph-name="logicalnot" horiz-adv-x="357" d="M260 222H59Q45 222 38 231T30 256Q30 270 37 279T59 289H298Q310 289 318 281T327 259V140Q327 126 318 119T294 111Q279 111 270 118T260 140V222Z" />
<glyph unicode="&#xad;" glyph-name="uni00AD" horiz-adv-x="347" d="M59 222Q45 222 38 231T30 256Q30 270 37 279T59 289H288Q302 289 309 280T317 256Q317 241 310 232T288 222H59Z" />
<glyph unicode="&#xae;" glyph-name="registered" horiz-adv-x="617" d="M265 388Q265 370 239 370Q228 370 221 374T213 388V548Q213 562 217 573T234 593T267 606T321 611Q366 611 386 596T407 554Q407 528 388 507T331 479Q349 476 364 467T390 445T407 417T413
386Q413 369 386 369Q372 369 366 373T359 385Q356 421 336 441T291 462Q287 462 280 462T265 465V388ZM265 497Q269 496 273 496T286 495Q321 495 337 508T353 544Q353 577 312 577Q296 577 287 576T273 571T267 558T265 537V497ZM352 702Q400 702 440 690T508
655T551 601T567 532Q567 482 546 435T486 350T391 289T265 266Q163 266 107 313T50 438Q50 493 73 541T137 625T233 681T352 702ZM330 657Q286 657 247 642T178 600T132 536T115 456Q115 382 161 347T280 311Q329 311 370 328T441 373T487 437T504 513Q504 547
491 574T453 619T398 647T330 657Z" />
<glyph unicode="&#xaf;" glyph-name="overscore" horiz-adv-x="311" d="M49 528Q20 528 20 561Q20 593 49 593H262Q291 593 291 561Q291 528 262 528H49Z" />
<glyph unicode="&#xb0;" glyph-name="degree" horiz-adv-x="458" d="M265 702Q325 702 351 680T378 622Q378 588 361 553T312 490T240 445T152 427Q92 427 66 449T40 508Q40 543 58 577T106 640T178 685T265 702ZM233 647Q210 647 190 638T156 614T133 580T124
539Q124 513 140 498T183 482Q206 482 226 491T262 515T286 550T295 591Q295 617 279 632T233 647Z" />
<glyph unicode="&#xb1;" glyph-name="plusminus" horiz-adv-x="347" d="M140 222H59Q45 222 38 231T30 256Q30 270 37 279T59 289H140V369Q140 383 149 390T174 398Q188 398 197 391T207 369V289H288Q302 289 309 280T317 256Q317 241 310 232T288 222H207V150Q207
136 198 129T174 121Q159 121 150 128T140 150V222ZM59 0Q45 0 38 9T30 34Q30 48 37 57T59 67H288Q302 67 309 58T317 34Q317 19 310 10T288 0H59Z" />
<glyph unicode="&#xb2;" glyph-name="twosuperior" horiz-adv-x="414" d="M88 244Q71 244 66 253T60 277Q60 287 63 292T81 307Q130 341 163 372T215 430T243 479T251 519Q251 561 213 561Q193 561 179 552T157 525Q152 513 143 506T116 499Q100 499 89 508T78
535Q78 550 91 566T126 596T175 617T233 626Q280 626 308 601T336 532Q336 509 325 481T295 424T248 365T189 310H252Q272 310 277 314T284 324Q288 332 294 337T318 343Q335 343 344 332T354 303Q354 276 335 260T266 244H88Z" />
<glyph unicode="&#xb3;" glyph-name="threesuperior" horiz-adv-x="441" d="M225 474Q250 477 264 492T279 527Q279 543 271 553T245 564Q216 564 205 554T187 532T172 510T142 500Q127 500 116 508T104 533Q104 548 116 565T150 595T200 618T260 627Q307 627
334 606T362 545Q362 526 356 505T330 466Q356 459 368 441T381 399Q381 371 365 343T319 291T251 253T167 238Q114 238 87 260T60 312Q60 333 72 345T101 358Q122 358 128 349T140 330T154 311T188 302Q235 302 263 324T291 382Q291 402 280 411T254 420Q240 420
225 414T193 407Q166 407 166 435Q166 455 173 461T201 471L225 474Z" />
<glyph unicode="&#xb4;" glyph-name="acute" horiz-adv-x="175" d="M96 492Q79 468 58 468Q42 468 31 476T20 497Q20 500 21 504T27 517L72 598Q79 611 87 616T111 621Q129 621 142 610T155 585Q155 575 149 568L96 492Z" />
<glyph unicode="&#xb5;" glyph-name="mu" horiz-adv-x="629" d="M464 119Q423 52 363 19T247 -14Q223 -14 199 -9T157 5V-266Q157 -283 148 -294T111 -306Q85 -306 76 -295T66 -266V57Q50 83 50 118Q50 148 61 183T91 255T139 326T200 390Q211 401 219 404T238
407Q251 407 260 398T270 378Q270 373 268 368T258 354Q234 328 216 301T185 246T165 193T158 148Q158 96 184 71T259 45Q298 45 334 62T398 109T443 180T460 270V358Q460 375 471 386T510 398Q536 398 547 387T559 358V30Q559 13 548 2T512 -10Q486 -10 475 1T464
30V119Z" />
<glyph unicode="&#xb6;" glyph-name="paragraph" horiz-adv-x="640" d="M570 -269Q570 -286 558 -297T522 -309Q499 -309 487 -298T475 -269V652Q475 669 487 680T522 692Q545 692 557 681T570 652V-269ZM315 449Q280 410 236 394T147 378Q85 378 50 405T15 479Q15
520 35 560T89 631T169 682T267 702Q345 702 382 675T419 602Q419 588 415 575T410 549V-269Q410 -286 398 -297T362 -309Q339 -309 327 -298T315 -269V449ZM238 654Q208 654 183 642T141 609T113 561T103 506Q103 472 124 454T180 436Q208 436 233 446T278 474T309
518T321 575Q321 610 297 632T238 654Z" />
<glyph unicode="&#xb7;" glyph-name="middot" horiz-adv-x="221" d="M111 146Q85 146 73 156T60 183V215Q60 231 72 241T111 252Q137 252 149 242T161 215V183Q161 167 149 157T111 146Z" />
<glyph unicode="&#xb8;" glyph-name="cedilla" horiz-adv-x="833" d="M307 -89Q316 -85 329 -84T351 -82Q454 -82 454 -164Q454 -192 440 -218T400 -264T340 -297T265 -309Q218 -309 193 -294T168 -255Q168 -241 175 -232T196 -223Q212 -223 218 -228T229 -240T245
-252T279 -258Q323 -258 350 -236T378 -181Q378 -158 365 -144T331 -130Q311 -130 294 -134T263 -147Q249 -155 239 -155Q229 -155 221 -147Q212 -140 212 -128Q212 -116 226 -100L363 40Q372 51 379 51Q386 51 395 42Q406 31 406 25Q406 21 404 17T397 8L307 -89Z"
/>
<glyph unicode="&#xb9;" glyph-name="onesuperior" horiz-adv-x="311" d="M180 620Q193 627 207 627Q230 627 240 616T251 585V278Q251 262 241 252T207 241Q185 241 175 251T165 278V535L117 506Q106 500 97 500Q86 500 78 506T65 524Q60 536 60 543Q60 561 85
574L180 620Z" />
<glyph unicode="&#xba;" glyph-name="ordmasculine" horiz-adv-x="531" d="M341 626Q421 626 456 597T491 519Q491 475 467 429T402 346T306 284T190 260Q111 260 76 290T41 368Q41 413 65 458T131 541T226 602T341 626ZM303 569Q268 569 238 555T185 518T150
466T137 404Q137 363 160 340T226 317Q261 317 292 331T346 368T382 421T396 483Q396 522 372 545T303 569ZM69 0Q55 0 48 9T40 34Q40 48 47 57T69 67H462Q476 67 483 58T491 34Q491 19 484 10T462 0H69Z" />
<glyph unicode="&#xbb;" glyph-name="guillemotright" horiz-adv-x="450" d="M225 332Q218 339 218 350Q218 363 231 376Q242 387 255 387Q267 387 276 377L385 257Q393 249 396 243T400 231Q400 220 385 204L277 84Q268 74 256 74Q243 74 232 85Q219 98 219 112Q219
122 226 129L322 230L225 332ZM58 332Q51 339 51 350Q51 363 64 376Q75 387 88 387Q100 387 109 377L218 257Q226 249 229 243T233 231Q233 220 218 204L110 84Q101 74 89 74Q76 74 65 85Q52 98 52 112Q52 122 59 129L155 230L58 332Z" />
<glyph unicode="&#xbc;" glyph-name="onequarter" horiz-adv-x="949" d="M811 160Q788 137 757 123T691 109Q633 109 604 134T575 196Q575 214 582 235T601 279T629 322T664 362Q680 374 695 374Q707 374 716 365T725 345Q725 340 724 335T716 323Q690 295 676
265T661 213Q661 190 673 179T706 168Q726 168 744 176T777 200T800 237T809 284V333Q809 349 818 358T850 368Q871 368 880 359T889 333V21Q889 6 880 -4T851 -14Q830 -14 821 -4T811 21V160ZM295 -22Q289 -32 283 -38T268 -44Q257 -44 241 -34Q219 -20 219 -5Q219
6 229 21L601 634Q607 644 613 649T628 655Q633 655 639 653T654 646Q677 632 677 616Q677 606 667 591L295 -22ZM180 620Q193 627 207 627Q230 627 240 616T251 585V278Q251 262 241 252T207 241Q185 241 175 251T165 278V535L117 506Q106 500 97 500Q86 500 78
506T65 524Q60 536 60 543Q60 561 85 574L180 620Z" />
<glyph unicode="&#xbd;" glyph-name="onehalf" horiz-adv-x="925" d="M295 -22Q290 -32 284 -38T268 -44Q257 -44 241 -34Q218 -20 218 -5Q218 1 221 7T229 21L601 634Q607 644 613 650T628 656Q638 656 654 646Q677 632 677 617Q677 606 667 591L295 -22ZM180
620Q193 627 207 627Q230 627 240 616T251 585V278Q251 262 241 252T207 241Q185 241 175 251T165 278V535L117 506Q106 500 97 500Q86 500 78 506T65 524Q60 536 60 543Q60 561 85 574L180 620ZM599 0Q582 0 577 9T571 33Q571 43 574 48T592 63Q641 97 674 128T726
186T754 235T762 275Q762 317 724 317Q704 317 690 308T668 281Q663 269 654 262T627 255Q611 255 600 264T589 291Q589 306 602 322T637 352T686 373T744 382Q791 382 819 357T847 288Q847 265 836 237T806 180T759 121T700 66H763Q783 66 788 70T795 80Q799 88
805 93T829 99Q846 99 855 88T865 59Q865 32 846 16T777 0H599Z" />
<glyph unicode="&#xbe;" glyph-name="threequarters" horiz-adv-x="979" d="M841 160Q818 137 787 123T721 109Q663 109 634 134T605 196Q605 214 612 235T631 279T659 322T694 362Q710 374 725 374Q737 374 746 365T755 345Q755 340 754 335T746 323Q720 295
706 265T691 213Q691 190 703 179T736 168Q756 168 774 176T807 200T830 237T839 284V333Q839 349 848 358T880 368Q901 368 910 359T919 333V21Q919 6 910 -4T881 -14Q860 -14 851 -4T841 21V160ZM325 -22Q319 -32 313 -38T298 -44Q287 -44 271 -34Q249 -20 249
-5Q249 6 259 21L631 634Q637 644 643 649T658 655Q663 655 669 653T684 646Q707 632 707 616Q707 606 697 591L325 -22ZM225 474Q250 477 264 492T279 527Q279 543 271 553T245 564Q216 564 205 554T187 532T172 510T142 500Q127 500 116 508T104 533Q104 548
116 565T150 595T200 618T260 627Q307 627 334 606T362 545Q362 526 356 505T330 466Q356 459 368 441T381 399Q381 371 365 343T319 291T251 253T167 238Q114 238 87 260T60 312Q60 333 72 345T101 358Q122 358 128 349T140 330T154 311T188 302Q235 302 263 324T291
382Q291 402 280 411T254 420Q240 420 225 414T193 407Q166 407 166 435Q166 455 173 461T201 471L225 474Z" />
<glyph unicode="&#xbf;" glyph-name="questiondown" horiz-adv-x="509" d="M245 227Q270 227 277 218T287 194Q290 170 290 141Q290 118 280 95T240 40Q203 1 175 -43T146 -137Q146 -181 174 -204T251 -228Q298 -228 326 -208T371 -151Q378 -136 389 -127T423
-118Q442 -118 455 -127T468 -156Q468 -180 451 -205T403 -250T326 -284T225 -298Q141 -298 91 -261T40 -160Q40 -133 52 -101T83 -36T124 26T164 75Q176 88 182 96T193 111T198 127T200 149L203 194Q204 208 212 217T245 227ZM243 408Q269 408 281 398T294 371V339Q294
323 282 313T243 302Q217 302 205 312T193 339V371Q193 387 205 397T243 408Z" />
<glyph unicode="&#xc0;" glyph-name="Agrave" horiz-adv-x="665" d="M491 344V378Q491 475 453 517T346 560Q314 560 284 547T230 507T187 440T159 344H491ZM154 280Q154 214 166 164T199 78Q208 63 211 52T215 30Q215 13 200 0T158 -14Q141 -14 125 -3T96 31Q77
68 66 121T55 231Q55 317 80 389T150 514T253 596T378 626Q487 626 541 572T595 402V28Q595 9 582 -2T543 -14Q517 -14 504 -3T491 28V280H154ZM273 768Q267 775 267 785Q267 799 280 810T311 821Q325 821 333 816T350 798L395 717Q400 708 401 704T402 697Q402
685 391 677T364 668Q342 668 326 692L273 768Z" />
<glyph unicode="&#xc1;" glyph-name="Aacute" horiz-adv-x="665" d="M501 344V378Q501 475 463 517T356 560Q324 560 294 547T240 507T197 440T169 344H501ZM164 280Q164 214 176 164T209 78Q218 63 221 52T225 30Q225 13 210 0T168 -14Q151 -14 135 -3T106 31Q87
68 76 121T65 231Q65 317 90 389T160 514T263 596T388 626Q497 626 551 572T605 402V28Q605 9 592 -2T553 -14Q527 -14 514 -3T501 28V280H164ZM383 692Q366 668 345 668Q329 668 318 676T307 697Q307 700 308 704T314 717L359 798Q366 811 374 816T398 821Q416
821 429 810T442 785Q442 775 436 768L383 692Z" />
<glyph unicode="&#xc2;" glyph-name="Acircumflex" horiz-adv-x="665" d="M491 344V378Q491 475 453 517T346 560Q314 560 284 547T230 507T187 440T159 344H491ZM154 280Q154 214 166 164T199 78Q208 63 211 52T215 30Q215 13 200 0T158 -14Q141 -14 125 -3T96
31Q77 68 66 121T55 231Q55 317 80 389T150 514T253 596T378 626Q487 626 541 572T595 402V28Q595 9 582 -2T543 -14Q517 -14 504 -3T491 28V280H154ZM415 676Q395 676 395 691Q395 697 396 700Q404 727 407 738T410 757Q410 765 404 771T376 778Q338 778 319 764T300
731Q300 717 308 703Q311 698 311 693Q311 685 301 680T276 675Q263 675 252 678T234 688Q224 698 224 715Q224 732 235 750T267 785T318 811T389 821Q437 821 457 808T477 775Q477 761 470 737T453 695Q447 684 440 680T415 676Z" />
<glyph unicode="&#xc3;" glyph-name="Atilde" horiz-adv-x="665" d="M491 344V378Q491 475 453 517T346 560Q314 560 284 547T230 507T187 440T159 344H491ZM154 280Q154 214 166 164T199 78Q208 63 211 52T215 30Q215 13 200 0T158 -14Q141 -14 125 -3T96 31Q77
68 66 121T55 231Q55 317 80 389T150 514T253 596T378 626Q487 626 541 572T595 402V28Q595 9 582 -2T543 -14Q517 -14 504 -3T491 28V280H154ZM404 812Q450 812 471 797T492 755Q492 740 483 731T454 721Q440 721 433 727T418 743Q407 759 385 759Q374 759 365
753T345 740T322 727T295 721Q249 721 228 736T207 778Q207 793 216 802T245 812Q259 812 266 806T281 790Q292 774 314 774Q325 774 333 780T350 793T372 806T404 812Z" />
<glyph unicode="&#xc4;" glyph-name="Adieresis" horiz-adv-x="665" d="M491 344V378Q491 475 453 517T346 560Q314 560 284 547T230 507T187 440T159 344H491ZM154 280Q154 214 166 164T199 78Q208 63 211 52T215 30Q215 13 200 0T158 -14Q141 -14 125 -3T96
31Q77 68 66 121T55 231Q55 317 80 389T150 514T253 596T378 626Q487 626 541 572T595 402V28Q595 9 582 -2T543 -14Q517 -14 504 -3T491 28V280H154ZM258 705Q232 705 220 716T207 742V775Q207 790 219 801T258 812Q284 812 296 801T308 775V742Q308 727 296 716T258
705ZM432 706Q406 706 394 717T382 743V776Q382 791 394 802T432 813Q458 813 470 802T483 776V743Q483 728 471 717T432 706Z" />
<glyph unicode="&#xc5;" glyph-name="Aring" horiz-adv-x="665" d="M491 344V378Q491 475 453 517T346 560Q314 560 284 547T230 507T187 440T159 344H491ZM154 280Q154 214 166 164T199 78Q208 63 211 52T215 30Q215 13 200 0T158 -14Q141 -14 125 -3T96 31Q77
68 66 121T55 231Q55 317 80 389T150 514T253 596T378 626Q487 626 541 572T595 402V28Q595 9 582 -2T543 -14Q517 -14 504 -3T491 28V280H154ZM384 856Q422 856 442 842T463 802Q463 782 451 761T419 723T373 696T319 685Q277 685 259 701T241 740Q241 761 253
781T285 818T331 845T384 856ZM406 787Q406 803 395 812T366 821Q338 821 318 801T298 755Q298 722 339 722Q366 722 386 742T406 787Z" />
<glyph unicode="&#xc6;" glyph-name="AE" horiz-adv-x="1030" d="M932 106Q962 106 962 77Q962 60 940 44T879 14T784 -6T662 -14Q603 -14 569 -9T517 7T496 37T491 84V280H154Q154 214 166 164T199 78Q208 63 211 52T215 30Q215 13 200 0T158 -14Q133 -14 114
7T81 64T62 143T55 231Q55 317 80 389T150 514T253 596T378 626Q431 626 470 607T536 540Q554 570 584 587T649 613T717 623T774 625Q836 625 876 620T939 604T971 580T980 550Q980 527 965 513T930 499Q916 499 902 504T879 518Q868 528 857 536T831 549T794 557T744
560Q737 560 727 559T705 557T683 554T667 551Q643 545 629 539T607 520T597 488T595 435V345H810Q824 345 832 336T840 313Q840 299 832 290T810 281H595V101Q595 84 597 75T608 60T632 54T676 52Q719 52 753 55T815 65T866 80T909 99Q922 106 932 106ZM491 344V378Q491
475 453 517T346 560Q314 560 284 547T230 507T187 440T159 344H491Z" />
<glyph unicode="&#xc7;" glyph-name="Ccedilla" horiz-adv-x="785" d="M364 55Q403 55 437 63T501 86T555 118T598 158Q610 172 621 179T650 186Q666 186 675 178T684 156Q684 140 669 124Q645 98 613 75T542 34T463 4T378 -12L307 -89Q316 -85 329 -84T351 -82Q454
-82 454 -164Q454 -192 440 -218T400 -264T340 -297T265 -309Q218 -309 193 -294T168 -255Q168 -241 175 -232T196 -223Q212 -223 218 -228T229 -240T245 -252T279 -258Q323 -258 350 -236T378 -181Q378 -158 365 -144T331 -130Q311 -130 294 -134T263 -147Q249
-155 239 -155Q229 -155 221 -147T212 -128Q212 -116 226 -100L311 -13Q174 -6 107 54T40 210Q40 262 57 313T105 410T179 496T276 564T390 609T518 626Q609 626 667 602T752 543Q765 527 765 505Q765 484 748 469T704 454Q690 454 676 461T651 482Q618 522 575
539T473 557Q407 557 350 532T250 463T182 363T157 244Q157 204 171 170T212 110T277 70T364 55Z" />
<glyph unicode="&#xc8;" glyph-name="Egrave" horiz-adv-x="609" d="M511 106Q541 106 541 77Q541 63 534 54T509 35Q492 26 465 17T403 2T326 -9T241 -14Q182 -14 148 -9T96 7T75 37T70 84V421Q70 467 76 499T99 552T143 586T214 608Q232 612 252 615T291 620T326
623T353 625Q415 625 455 620T518 604T550 580T559 550Q559 527 544 513T509 499Q495 499 481 504T458 518Q447 528 436 536T410 549T373 557T323 560Q316 560 306 559T284 557T262 554T246 551Q222 545 208 539T186 520T176 488T174 435V345H389Q403 345 411 336T419
313Q419 299 411 290T389 281H174V101Q174 84 176 75T187 60T211 54T255 52Q298 52 332 55T394 65T445 80T488 99Q501 106 511 106ZM249 768Q243 775 243 785Q243 799 256 810T287 821Q301 821 309 816T326 798L371 717Q376 708 377 704T378 697Q378 685 367 677T340
668Q318 668 302 692L249 768Z" />
<glyph unicode="&#xc9;" glyph-name="Eacute" horiz-adv-x="609" d="M511 106Q541 106 541 77Q541 63 534 54T509 35Q492 26 465 17T403 2T326 -9T241 -14Q182 -14 148 -9T96 7T75 37T70 84V421Q70 467 76 499T99 552T143 586T214 608Q232 612 252 615T291 620T326
623T353 625Q415 625 455 620T518 604T550 580T559 550Q559 527 544 513T509 499Q495 499 481 504T458 518Q447 528 436 536T410 549T373 557T323 560Q316 560 306 559T284 557T262 554T246 551Q222 545 208 539T186 520T176 488T174 435V345H389Q403 345 411 336T419
313Q419 299 411 290T389 281H174V101Q174 84 176 75T187 60T211 54T255 52Q298 52 332 55T394 65T445 80T488 99Q501 106 511 106ZM324 692Q307 668 286 668Q270 668 259 676T248 697Q248 700 249 704T255 717L300 798Q307 811 315 816T339 821Q357 821 370 810T383
785Q383 775 377 768L324 692Z" />
<glyph unicode="&#xca;" glyph-name="Ecircumflex" horiz-adv-x="609" d="M511 106Q541 106 541 77Q541 63 534 54T509 35Q492 26 465 17T403 2T326 -9T241 -14Q182 -14 148 -9T96 7T75 37T70 84V421Q70 467 76 499T99 552T143 586T214 608Q232 612 252 615T291
620T326 623T353 625Q415 625 455 620T518 604T550 580T559 550Q559 527 544 513T509 499Q495 499 481 504T458 518Q447 528 436 536T410 549T373 557T323 560Q316 560 306 559T284 557T262 554T246 551Q222 545 208 539T186 520T176 488T174 435V345H389Q403 345
411 336T419 313Q419 299 411 290T389 281H174V101Q174 84 176 75T187 60T211 54T255 52Q298 52 332 55T394 65T445 80T488 99Q501 106 511 106ZM374 676Q354 676 354 691Q354 697 355 700Q363 727 366 738T369 757Q369 765 363 771T335 778Q297 778 278 764T259
731Q259 717 267 703Q270 698 270 693Q270 685 260 680T235 675Q222 675 211 678T193 688Q183 698 183 715Q183 732 194 750T226 785T277 811T348 821Q396 821 416 808T436 775Q436 761 429 737T412 695Q406 684 399 680T374 676Z" />
<glyph unicode="&#xcb;" glyph-name="Edieresis" horiz-adv-x="609" d="M511 106Q541 106 541 77Q541 63 534 54T509 35Q492 26 465 17T403 2T326 -9T241 -14Q182 -14 148 -9T96 7T75 37T70 84V421Q70 467 76 499T99 552T143 586T214 608Q232 612 252 615T291
620T326 623T353 625Q415 625 455 620T518 604T550 580T559 550Q559 527 544 513T509 499Q495 499 481 504T458 518Q447 528 436 536T410 549T373 557T323 560Q316 560 306 559T284 557T262 554T246 551Q222 545 208 539T186 520T176 488T174 435V345H389Q403 345
411 336T419 313Q419 299 411 290T389 281H174V101Q174 84 176 75T187 60T211 54T255 52Q298 52 332 55T394 65T445 80T488 99Q501 106 511 106ZM223 705Q197 705 185 716T172 742V775Q172 790 184 801T223 812Q249 812 261 801T273 775V742Q273 727 261 716T223
705ZM397 706Q371 706 359 717T347 743V776Q347 791 359 802T397 813Q423 813 435 802T448 776V743Q448 728 436 717T397 706Z" />
<glyph unicode="&#xcc;" glyph-name="Igrave" horiz-adv-x="234" d="M169 28Q169 9 156 -2T117 -14Q91 -14 78 -3T65 28V579Q65 598 78 609T117 621Q143 621 156 610T169 579V28ZM56 768Q50 775 50 785Q50 799 63 810T94 821Q108 821 116 816T133 798L178 717Q183
708 184 704T185 697Q185 685 174 677T147 668Q125 668 109 692L56 768Z" />
<glyph unicode="&#xcd;" glyph-name="Iacute" horiz-adv-x="234" d="M169 28Q169 9 156 -2T117 -14Q91 -14 78 -3T65 28V579Q65 598 78 609T117 621Q143 621 156 610T169 579V28ZM126 692Q109 668 88 668Q72 668 61 676T50 697Q50 700 51 704T57 717L102 798Q109
811 117 816T141 821Q159 821 172 810T185 785Q185 775 179 768L126 692Z" />
<glyph unicode="&#xce;" glyph-name="Icircumflex" horiz-adv-x="234" d="M169 28Q169 9 156 -2T117 -14Q91 -14 78 -3T65 28V579Q65 598 78 609T117 621Q143 621 156 610T169 579V28ZM184 676Q164 676 164 691Q164 697 165 700Q173 727 176 738T179 757Q179 765
173 771T145 778Q107 778 88 764T69 731Q69 717 77 703Q80 698 80 693Q80 685 70 680T45 675Q32 675 21 678T3 688Q-7 698 -7 715Q-7 732 4 750T36 785T87 811T158 821Q206 821 226 808T246 775Q246 761 239 737T222 695Q216 684 209 680T184 676Z" />
<glyph unicode="&#xcf;" glyph-name="Idieresis" horiz-adv-x="234" d="M169 28Q169 9 156 -2T117 -14Q91 -14 78 -3T65 28V579Q65 598 78 609T117 621Q143 621 156 610T169 579V28ZM32 705Q6 705 -6 716T-19 742V775Q-19 790 -7 801T32 812Q58 812 70 801T82
775V742Q82 727 70 716T32 705ZM206 706Q180 706 168 717T156 743V776Q156 791 168 802T206 813Q232 813 244 802T257 776V743Q257 728 245 717T206 706Z" />
<glyph unicode="&#xd0;" glyph-name="Eth" horiz-adv-x="731" d="M245 -14Q186 -14 151 -11T98 3T75 33T70 84V280H13Q3 280 -5 288T-13 313Q-13 330 -5 338T13 347H70V466Q70 502 77 526T105 567T163 595T262 615Q290 619 329 622T402 625Q465 625 515 609T602
564T657 492T676 399Q676 306 645 230T558 100T422 16T245 -14ZM565 363Q565 467 513 513T352 560Q336 560 322 559T296 556Q258 551 235 545T198 529T179 503T174 463V347H348Q358 347 366 339T374 313Q374 296 366 288T348 280H174V99Q174 84 177 75T190 61T221
54T276 52Q340 52 393 70T484 125T543 222T565 363Z" />
<glyph unicode="&#xd1;" glyph-name="Ntilde" horiz-adv-x="739" d="M175 524Q176 418 196 332T249 183T326 87T419 53Q455 53 484 65T535 104T568 171T580 268Q580 331 559 397T496 528Q482 550 477 562T472 584Q472 601 489 613T527 625Q546 625 561 615T602
573Q640 522 662 450T684 293Q684 230 663 174T606 77T519 11T411 -14Q317 -14 254 49T170 229V28Q170 9 157 -2T120 -14Q96 -14 83 -3T70 28V579Q70 598 83 609T122 621Q148 621 161 610T174 579L175 524ZM399 812Q445 812 466 797T487 755Q487 740 478 731T449
721Q435 721 428 727T413 743Q402 759 380 759Q369 759 360 753T340 740T317 727T290 721Q244 721 223 736T202 778Q202 793 211 802T240 812Q254 812 261 806T276 790Q287 774 309 774Q320 774 328 780T345 793T367 806T399 812Z" />
<glyph unicode="&#xd2;" glyph-name="Ograve" horiz-adv-x="851" d="M513 626Q580 626 635 610T729 563T789 491T811 399Q811 351 795 302T748 207T675 121T579 51T465 4T336 -14Q266 -14 211 2T118 48T60 120T40 215Q40 297 79 371T183 502T334 592T513 626ZM473
557Q408 557 351 533T250 468T183 370T158 249Q158 202 173 166T215 106T282 68T368 55Q440 55 500 81T603 150T671 247T695 358Q695 403 679 440T633 503T563 543T473 557ZM362 768Q356 775 356 785Q356 799 369 810T400 821Q414 821 422 816T439 798L484 717Q489
708 490 704T491 697Q491 685 480 677T453 668Q431 668 415 692L362 768Z" />
<glyph unicode="&#xd3;" glyph-name="Oacute" horiz-adv-x="851" d="M513 626Q580 626 635 610T729 563T789 491T811 399Q811 351 795 302T748 207T675 121T579 51T465 4T336 -14Q266 -14 211 2T118 48T60 120T40 215Q40 297 79 371T183 502T334 592T513 626ZM473
557Q408 557 351 533T250 468T183 370T158 249Q158 202 173 166T215 106T282 68T368 55Q440 55 500 81T603 150T671 247T695 358Q695 403 679 440T633 503T563 543T473 557ZM449 692Q432 668 411 668Q395 668 384 676T373 697Q373 700 374 704T380 717L425 798Q432
811 440 816T464 821Q482 821 495 810T508 785Q508 775 502 768L449 692Z" />
<glyph unicode="&#xd4;" glyph-name="Ocircumflex" horiz-adv-x="851" d="M513 626Q580 626 635 610T729 563T789 491T811 399Q811 351 795 302T748 207T675 121T579 51T465 4T336 -14Q266 -14 211 2T118 48T60 120T40 215Q40 297 79 371T183 502T334 592T513
626ZM473 557Q408 557 351 533T250 468T183 370T158 249Q158 202 173 166T215 106T282 68T368 55Q440 55 500 81T603 150T671 247T695 358Q695 403 679 440T633 503T563 543T473 557ZM492 676Q472 676 472 691Q472 697 473 700Q481 727 484 738T487 757Q487 765
481 771T453 778Q415 778 396 764T377 731Q377 717 385 703Q388 698 388 693Q388 685 378 680T353 675Q340 675 329 678T311 688Q301 698 301 715Q301 732 312 750T344 785T395 811T466 821Q514 821 534 808T554 775Q554 761 547 737T530 695Q524 684 517 680T492
676Z" />
<glyph unicode="&#xd5;" glyph-name="Otilde" horiz-adv-x="851" d="M513 626Q580 626 635 610T729 563T789 491T811 399Q811 351 795 302T748 207T675 121T579 51T465 4T336 -14Q266 -14 211 2T118 48T60 120T40 215Q40 297 79 371T183 502T334 592T513 626ZM473
557Q408 557 351 533T250 468T183 370T158 249Q158 202 173 166T215 106T282 68T368 55Q440 55 500 81T603 150T671 247T695 358Q695 403 679 440T633 503T563 543T473 557ZM483 812Q529 812 550 797T571 755Q571 740 562 731T533 721Q519 721 512 727T497 743Q486
759 464 759Q453 759 444 753T424 740T401 727T374 721Q328 721 307 736T286 778Q286 793 295 802T324 812Q338 812 345 806T360 790Q371 774 393 774Q404 774 412 780T429 793T451 806T483 812Z" />
<glyph unicode="&#xd6;" glyph-name="Odieresis" horiz-adv-x="851" d="M513 626Q580 626 635 610T729 563T789 491T811 399Q811 351 795 302T748 207T675 121T579 51T465 4T336 -14Q266 -14 211 2T118 48T60 120T40 215Q40 297 79 371T183 502T334 592T513 626ZM473
557Q408 557 351 533T250 468T183 370T158 249Q158 202 173 166T215 106T282 68T368 55Q440 55 500 81T603 150T671 247T695 358Q695 403 679 440T633 503T563 543T473 557ZM342 705Q316 705 304 716T291 742V775Q291 790 303 801T342 812Q368 812 380 801T392
775V742Q392 727 380 716T342 705ZM516 706Q490 706 478 717T466 743V776Q466 791 478 802T516 813Q542 813 554 802T567 776V743Q567 728 555 717T516 706Z" />
<glyph unicode="&#xd7;" glyph-name="multiply" horiz-adv-x="288" d="M97 255L40 312Q31 321 31 332Q31 345 43 357Q56 368 67 368Q78 368 87 359L144 302L201 359Q211 367 220 367Q234 367 246 355Q257 344 257 331Q257 320 248 311L191 254L249 197Q258 189
258 178Q258 164 246 154Q233 141 221 141Q209 141 202 150L144 207L86 149Q78 141 67 141Q54 141 43 152Q30 165 30 177Q30 188 39 197L97 255Z" />
<glyph unicode="&#xd8;" glyph-name="Oslash" horiz-adv-x="851" d="M513 626Q548 626 580 621T642 607L683 650Q696 663 712 663Q732 663 750 644Q770 625 770 605Q770 591 759 578L737 555Q772 526 791 487T811 399Q811 351 795 302T748 207T675 121T579 51T465
4T336 -14Q266 -14 207 3L168 -38Q155 -51 140 -51Q121 -51 101 -32Q81 -13 81 7Q81 22 93 34L112 53Q40 114 40 215Q40 297 79 371T183 502T334 592T513 626ZM473 557Q408 557 351 533T250 468T183 370T158 249Q158 175 196 126L587 533Q562 544 534 550T473 557ZM695
358Q695 395 684 426T652 483L261 76Q307 55 368 55Q440 55 500 81T603 150T671 247T695 358Z" />
<glyph unicode="&#xd9;" glyph-name="Ugrave" horiz-adv-x="649" d="M306 55Q350 55 385 76T444 134T482 222T495 331Q495 435 441 536Q436 546 433 556T429 579Q429 599 445 612T485 625Q532 625 557 579Q575 545 584 491T594 379Q594 294 570 222T503 98T402
16T276 -14Q160 -14 110 44T60 210Q60 258 62 300T69 384T81 470T98 567Q105 605 149 605Q173 605 185 595T197 566Q197 558 192 520T181 432T169 330T164 240Q164 187 172 152T199 95T243 64T306 55ZM234 768Q228 775 228 785Q228 799 241 810T272 821Q286 821
294 816T311 798L356 717Q361 708 362 704T363 697Q363 685 352 677T325 668Q303 668 287 692L234 768Z" />
<glyph unicode="&#xda;" glyph-name="Uacute" horiz-adv-x="649" d="M306 55Q350 55 385 76T444 134T482 222T495 331Q495 435 441 536Q436 546 433 556T429 579Q429 599 445 612T485 625Q532 625 557 579Q575 545 584 491T594 379Q594 294 570 222T503 98T402
16T276 -14Q160 -14 110 44T60 210Q60 258 62 300T69 384T81 470T98 567Q105 605 149 605Q173 605 185 595T197 566Q197 558 192 520T181 432T169 330T164 240Q164 187 172 152T199 95T243 64T306 55ZM334 692Q317 668 296 668Q280 668 269 676T258 697Q258 700
259 704T265 717L310 798Q317 811 325 816T349 821Q367 821 380 810T393 785Q393 775 387 768L334 692Z" />
<glyph unicode="&#xdb;" glyph-name="Ucircumflex" horiz-adv-x="649" d="M306 55Q350 55 385 76T444 134T482 222T495 331Q495 435 441 536Q436 546 433 556T429 579Q429 599 445 612T485 625Q532 625 557 579Q575 545 584 491T594 379Q594 294 570 222T503 98T402
16T276 -14Q160 -14 110 44T60 210Q60 258 62 300T69 384T81 470T98 567Q105 605 149 605Q173 605 185 595T197 566Q197 558 192 520T181 432T169 330T164 240Q164 187 172 152T199 95T243 64T306 55ZM379 676Q359 676 359 691Q359 697 360 700Q368 727 371 738T374
757Q374 765 368 771T340 778Q302 778 283 764T264 731Q264 717 272 703Q275 698 275 693Q275 685 265 680T240 675Q227 675 216 678T198 688Q188 698 188 715Q188 732 199 750T231 785T282 811T353 821Q401 821 421 808T441 775Q441 761 434 737T417 695Q411 684
404 680T379 676Z" />
<glyph unicode="&#xdc;" glyph-name="Udieresis" horiz-adv-x="649" d="M306 55Q350 55 385 76T444 134T482 222T495 331Q495 435 441 536Q436 546 433 556T429 579Q429 599 445 612T485 625Q532 625 557 579Q575 545 584 491T594 379Q594 294 570 222T503 98T402
16T276 -14Q160 -14 110 44T60 210Q60 258 62 300T69 384T81 470T98 567Q105 605 149 605Q173 605 185 595T197 566Q197 558 192 520T181 432T169 330T164 240Q164 187 172 152T199 95T243 64T306 55ZM222 705Q196 705 184 716T171 742V775Q171 790 183 801T222
812Q248 812 260 801T272 775V742Q272 727 260 716T222 705ZM396 706Q370 706 358 717T346 743V776Q346 791 358 802T396 813Q422 813 434 802T447 776V743Q447 728 435 717T396 706Z" />
<glyph unicode="&#xdd;" glyph-name="Yacute" horiz-adv-x="624" d="M362 28Q362 9 349 -2T310 -14Q284 -14 271 -3T258 28V133Q258 168 252 211T234 299T207 386T175 461T141 514T108 534Q99 534 91 531T74 523T57 516T39 512Q25 512 18 527T10 565Q10 582 17
591T36 606T59 612T79 614Q130 614 171 588T243 514T292 396T315 239Q321 326 337 395T381 513T450 588T545 614Q578 614 596 601T614 566Q614 538 605 525T580 512Q571 512 563 515T548 523T532 530T513 534Q496 534 478 514T444 462T412 387T386 300T369 212T362
133V28ZM316 692Q299 668 278 668Q262 668 251 676T240 697Q240 700 241 704T247 717L292 798Q299 811 307 816T331 821Q349 821 362 810T375 785Q375 775 369 768L316 692Z" />
<glyph unicode="&#xde;" glyph-name="Thorn" horiz-adv-x="591" d="M172 28Q172 11 159 1T121 -10Q96 -10 82 0T68 28V585Q68 602 82 612T121 623Q146 623 159 613T172 585V486Q186 489 208 494T256 503T305 511T350 514Q469 514 525 472T581 364Q581 317 560
273T498 195T397 140T260 119Q241 119 218 121T172 127V28ZM172 181Q189 178 212 177T259 175Q373 175 424 221T476 346Q476 400 438 428T329 457Q309 457 287 455T248 448Q222 442 207 436T184 419T174 392T172 347V181Z" />
<glyph unicode="&#xdf;" glyph-name="germandbls" horiz-adv-x="581" d="M387 540Q354 502 339 464T324 389Q324 363 335 347T378 313L465 262Q515 233 533 207T551 150Q551 120 536 91T493 38T431 0T355 -14Q326 -14 299 -5T252 19T219 52T206 88Q206 110 216
123T247 136Q262 136 272 127T297 93Q322 49 369 49Q408 49 430 71T453 128Q453 150 443 165T397 201L296 260Q259 281 244 305T228 365Q228 417 257 474T355 609Q355 626 347 634T319 642Q294 642 268 626T221 583T187 520T173 445V30Q173 13 162 2T123 -10Q97
-10 86 1T74 30V331H29Q0 331 0 363Q0 394 29 394H74V404Q74 416 71 427T67 451Q67 489 95 533T168 614T269 677T382 702Q417 702 435 688T453 653Q453 633 449 621T437 597T417 573T387 540Z" />
<glyph unicode="&#xe0;" glyph-name="agrave" horiz-adv-x="618" d="M386 407Q476 407 517 373T558 284Q558 267 553 250T547 219V30Q547 13 536 2T498 -10Q471 -10 460 1T448 30V97Q403 46 342 16T212 -14Q121 -14 81 21T40 118Q40 170 68 221T144 314T254 381T386
407ZM351 348Q307 348 270 332T206 288T163 226T147 154Q147 107 173 82T249 56Q291 56 328 72T392 116T436 178T453 251Q453 295 426 321T351 348ZM254 568Q248 575 248 585Q248 599 261 610T292 621Q306 621 314 616T331 598L376 517Q381 508 382 504T383 497Q383
485 372 477T345 468Q323 468 307 492L254 568Z" />
<glyph unicode="&#xe1;" glyph-name="aacute" horiz-adv-x="618" d="M386 407Q476 407 517 373T558 284Q558 267 553 250T547 219V30Q547 13 536 2T498 -10Q471 -10 460 1T448 30V97Q403 46 342 16T212 -14Q121 -14 81 21T40 118Q40 170 68 221T144 314T254 381T386
407ZM351 348Q307 348 270 332T206 288T163 226T147 154Q147 107 173 82T249 56Q291 56 328 72T392 116T436 178T453 251Q453 295 426 321T351 348ZM334 492Q317 468 296 468Q280 468 269 476T258 497Q258 500 259 504T265 517L310 598Q317 611 325 616T349 621Q367
621 380 610T393 585Q393 575 387 568L334 492Z" />
<glyph unicode="&#xe2;" glyph-name="acircumflex" horiz-adv-x="618" d="M386 407Q476 407 517 373T558 284Q558 267 553 250T547 219V30Q547 13 536 2T498 -10Q471 -10 460 1T448 30V97Q403 46 342 16T212 -14Q121 -14 81 21T40 118Q40 170 68 221T144 314T254
381T386 407ZM351 348Q307 348 270 332T206 288T163 226T147 154Q147 107 173 82T249 56Q291 56 328 72T392 116T436 178T453 251Q453 295 426 321T351 348ZM396 476Q376 476 376 491Q376 497 377 500Q385 527 388 538T391 557Q391 565 385 571T357 578Q319 578
300 564T281 531Q281 517 289 503Q292 498 292 493Q292 485 282 480T257 475Q244 475 233 478T215 488Q205 498 205 515Q205 532 216 550T248 585T299 611T370 621Q418 621 438 608T458 575Q458 561 451 537T434 495Q428 484 421 480T396 476Z" />
<glyph unicode="&#xe3;" glyph-name="atilde" horiz-adv-x="618" d="M386 407Q476 407 517 373T558 284Q558 267 553 250T547 219V30Q547 13 536 2T498 -10Q471 -10 460 1T448 30V97Q403 46 342 16T212 -14Q121 -14 81 21T40 118Q40 170 68 221T144 314T254 381T386
407ZM351 348Q307 348 270 332T206 288T163 226T147 154Q147 107 173 82T249 56Q291 56 328 72T392 116T436 178T453 251Q453 295 426 321T351 348ZM371 612Q417 612 438 597T459 555Q459 540 450 531T421 521Q407 521 400 527T385 543Q374 559 352 559Q341 559
332 553T312 540T289 527T262 521Q216 521 195 536T174 578Q174 593 183 602T212 612Q226 612 233 606T248 590Q259 574 281 574Q292 574 300 580T317 593T339 606T371 612Z" />
<glyph unicode="&#xe4;" glyph-name="adieresis" horiz-adv-x="618" d="M386 407Q476 407 517 373T558 284Q558 267 553 250T547 219V30Q547 13 536 2T498 -10Q471 -10 460 1T448 30V97Q403 46 342 16T212 -14Q121 -14 81 21T40 118Q40 170 68 221T144 314T254
381T386 407ZM351 348Q307 348 270 332T206 288T163 226T147 154Q147 107 173 82T249 56Q291 56 328 72T392 116T436 178T453 251Q453 295 426 321T351 348ZM229 505Q203 505 191 516T178 542V575Q178 590 190 601T229 612Q255 612 267 601T279 575V542Q279 527
267 516T229 505ZM403 506Q377 506 365 517T353 543V576Q353 591 365 602T403 613Q429 613 441 602T454 576V543Q454 528 442 517T403 506Z" />
<glyph unicode="&#xe5;" glyph-name="aring" horiz-adv-x="618" d="M386 407Q476 407 517 373T558 284Q558 267 553 250T547 219V30Q547 13 536 2T498 -10Q471 -10 460 1T448 30V97Q403 46 342 16T212 -14Q121 -14 81 21T40 118Q40 170 68 221T144 314T254 381T386
407ZM351 348Q307 348 270 332T206 288T163 226T147 154Q147 107 173 82T249 56Q291 56 328 72T392 116T436 178T453 251Q453 295 426 321T351 348ZM347 656Q385 656 405 642T426 602Q426 582 414 561T382 523T336 496T282 485Q240 485 222 501T204 540Q204 561
216 581T248 618T294 645T347 656ZM369 587Q369 603 358 612T329 621Q301 621 281 601T261 555Q261 522 302 522Q329 522 349 542T369 587Z" />
<glyph unicode="&#xe6;" glyph-name="ae" horiz-adv-x="880" d="M696 407Q781 407 820 378T860 307Q860 260 826 227T708 180L459 138Q459 99 479 76T555 53Q605 53 647 65T729 96Q747 105 757 105Q779 105 779 77Q779 60 759 49Q643 -14 526 -14Q491 -14 467
-6T425 17T398 50T380 89Q368 69 347 50T299 17T240 -5T177 -14Q96 -14 58 11T20 82Q20 111 35 140T81 192T154 229T252 244Q267 244 285 242T320 235T353 225T377 214Q384 237 387 257T390 292Q390 327 364 343T290 360Q248 360 223 345T197 309Q197 283 157 283Q108
283 108 325Q108 360 154 383T299 407Q370 407 410 384T451 326Q451 318 450 309T445 287Q459 312 483 333Q509 356 542 372T614 398T696 407ZM663 350Q628 350 594 337T533 302T486 252T460 193L678 228Q728 236 743 251T759 289Q759 313 735 331T663 350ZM259
196Q229 196 204 188T160 166T131 135T120 98Q120 77 141 63T204 49Q238 49 265 58T313 83T346 119T364 161L365 167Q348 179 322 187T259 196Z" />
<glyph unicode="&#xe7;" glyph-name="ccedilla" horiz-adv-x="565" d="M147 154Q147 109 173 83T244 56Q291 56 331 72T404 117Q419 131 432 131Q444 131 452 123T461 103Q461 98 459 93T450 81Q423 54 384 31T293 -3L214 -89Q223 -85 236 -84T258 -82Q361 -82
361 -164Q361 -192 347 -218T307 -264T247 -297T172 -309Q125 -309 100 -294T75 -255Q75 -241 82 -232T103 -223Q119 -223 125 -228T136 -240T152 -252T186 -258Q230 -258 257 -236T285 -181Q285 -158 272 -144T238 -130Q218 -130 201 -134T170 -147Q156 -155 146
-155Q136 -155 128 -147Q119 -140 119 -128Q119 -116 133 -100L217 -14H205Q124 -14 82 22T40 121Q40 173 68 224T143 316T250 382T373 407Q459 407 502 380T545 313Q545 294 534 281T499 267Q479 267 468 273T450 287T436 306T419 325T391 340T344 346Q302 346
266 330T204 287T162 226T147 154Z" />
<glyph unicode="&#xe8;" glyph-name="egrave" horiz-adv-x="570" d="M386 407Q471 407 510 378T550 307Q550 258 516 224T398 175L149 133Q149 96 169 75T245 53Q295 53 337 65T419 96Q437 105 447 105Q470 105 470 77Q470 60 449 49Q333 -14 216 -14Q169 -14
136 -4T81 23T50 65T40 117Q40 169 68 221T143 314T253 381T386 407ZM353 350Q318 350 284 337T223 302T176 252T150 193L368 228Q418 236 433 251T449 289Q449 313 425 331T353 350ZM231 568Q225 575 225 585Q225 599 238 610T269 621Q283 621 291 616T308 598L353
517Q358 508 359 504T360 497Q360 485 349 477T322 468Q300 468 284 492L231 568Z" />
<glyph unicode="&#xe9;" glyph-name="eacute" horiz-adv-x="570" d="M386 407Q471 407 510 378T550 307Q550 258 516 224T398 175L149 133Q149 96 169 75T245 53Q295 53 337 65T419 96Q437 105 447 105Q470 105 470 77Q470 60 449 49Q333 -14 216 -14Q169 -14
136 -4T81 23T50 65T40 117Q40 169 68 221T143 314T253 381T386 407ZM353 350Q318 350 284 337T223 302T176 252T150 193L368 228Q418 236 433 251T449 289Q449 313 425 331T353 350ZM310 492Q293 468 272 468Q256 468 245 476T234 497Q234 500 235 504T241 517L286
598Q293 611 301 616T325 621Q343 621 356 610T369 585Q369 575 363 568L310 492Z" />
<glyph unicode="&#xea;" glyph-name="ecircumflex" horiz-adv-x="570" d="M386 407Q471 407 510 378T550 307Q550 258 516 224T398 175L149 133Q149 96 169 75T245 53Q295 53 337 65T419 96Q437 105 447 105Q470 105 470 77Q470 60 449 49Q333 -14 216 -14Q169
-14 136 -4T81 23T50 65T40 117Q40 169 68 221T143 314T253 381T386 407ZM353 350Q318 350 284 337T223 302T176 252T150 193L368 228Q418 236 433 251T449 289Q449 313 425 331T353 350ZM364 476Q344 476 344 491Q344 497 345 500Q353 527 356 538T359 557Q359
565 353 571T325 578Q287 578 268 564T249 531Q249 517 257 503Q260 498 260 493Q260 485 250 480T225 475Q212 475 201 478T183 488Q173 498 173 515Q173 532 184 550T216 585T267 611T338 621Q386 621 406 608T426 575Q426 561 419 537T402 495Q396 484 389 480T364
476Z" />
<glyph unicode="&#xeb;" glyph-name="edieresis" horiz-adv-x="570" d="M386 407Q471 407 510 378T550 307Q550 258 516 224T398 175L149 133Q149 96 169 75T245 53Q295 53 337 65T419 96Q437 105 447 105Q470 105 470 77Q470 60 449 49Q333 -14 216 -14Q169 -14
136 -4T81 23T50 65T40 117Q40 169 68 221T143 314T253 381T386 407ZM353 350Q318 350 284 337T223 302T176 252T150 193L368 228Q418 236 433 251T449 289Q449 313 425 331T353 350ZM214 505Q188 505 176 516T163 542V575Q163 590 175 601T214 612Q240 612 252
601T264 575V542Q264 527 252 516T214 505ZM388 506Q362 506 350 517T338 543V576Q338 591 350 602T388 613Q414 613 426 602T439 576V543Q439 528 427 517T388 506Z" />
<glyph unicode="&#xec;" glyph-name="igrave" horiz-adv-x="241" d="M121 403Q147 403 159 393T171 366V27Q171 12 159 1T121 -10Q95 -10 83 1T70 27V366Q70 382 82 392T121 403ZM60 568Q54 575 54 585Q54 599 67 610T98 621Q112 621 120 616T137 598L182 517Q187
508 188 504T189 497Q189 485 178 477T151 468Q129 468 113 492L60 568Z" />
<glyph unicode="&#xed;" glyph-name="iacute" horiz-adv-x="241" d="M121 403Q147 403 159 393T171 366V27Q171 12 159 1T121 -10Q95 -10 83 1T70 27V366Q70 382 82 392T121 403ZM130 492Q113 468 92 468Q76 468 65 476T54 497Q54 500 55 504T61 517L106 598Q113
611 121 616T145 621Q163 621 176 610T189 585Q189 575 183 568L130 492Z" />
<glyph unicode="&#xee;" glyph-name="icircumflex" horiz-adv-x="241" d="M121 403Q147 403 159 393T171 366V27Q171 12 159 1T121 -10Q95 -10 83 1T70 27V366Q70 382 82 392T121 403ZM444 476Q424 476 424 491Q424 497 425 500Q433 527 436 538T439 557Q439 565
433 571T405 578Q367 578 348 564T329 531Q329 517 337 503Q340 498 340 493Q340 485 330 480T305 475Q292 475 281 478T263 488Q253 498 253 515Q253 532 264 550T296 585T347 611T418 621Q466 621 486 608T506 575Q506 561 499 537T482 495Q476 484 469 480T444
476Z" />
<glyph unicode="&#xef;" glyph-name="idieresis" horiz-adv-x="241" d="M121 403Q147 403 159 393T171 366V27Q171 12 159 1T121 -10Q95 -10 83 1T70 27V366Q70 382 82 392T121 403ZM291 505Q265 505 253 516T240 542V575Q240 590 252 601T291 612Q317 612 329
601T341 575V542Q341 527 329 516T291 505ZM465 506Q439 506 427 517T415 543V576Q415 591 427 602T465 613Q491 613 503 602T516 576V543Q516 528 504 517T465 506Z" />
<glyph unicode="&#xf0;" glyph-name="eth" horiz-adv-x="604" d="M520 533Q534 503 537 474Q542 416 551 369T560 274Q560 243 548 210T512 144T457 83T387 33T305 -1T214 -14Q123 -14 83 20T42 110Q42 161 70 213T144 306T246 373T359 399Q373 399 389 397T421
392T451 384T475 373Q471 447 444 503L342 463Q334 461 332 461Q324 461 317 466T305 482Q302 489 302 496Q302 512 321 520L411 555Q379 595 336 614T241 634Q210 634 192 627T162 608T145 585T133 561T118 543T90 535Q69 535 55 551T40 595Q40 639 81 670T205
702Q245 702 285 694T361 670T429 632T485 584L564 616Q568 618 576 618Q595 618 601 600Q604 591 604 585Q604 567 585 559L520 533ZM345 338Q303 338 268 322T206 280T165 220T150 151Q150 103 178 76T254 49Q295 49 331 65T394 109T437 171T453 244Q453 289
425 313T345 338Z" />
<glyph unicode="&#xf1;" glyph-name="ntilde" horiz-adv-x="629" d="M165 276Q246 407 407 407Q495 407 537 372T579 280Q579 249 568 213T538 140T490 68T429 3Q418 -8 410 -11T391 -14Q378 -14 369 -5T359 15Q359 20 361 25T371 39Q395 64 413 92T444 148T464
201T471 246Q471 298 445 323T370 348Q332 348 296 331T231 284T186 212T169 121V28Q169 11 158 0T119 -12Q93 -12 82 -1T70 28V358Q70 375 81 386T117 398Q143 398 154 387T165 358V276ZM363 612Q409 612 430 597T451 555Q451 540 442 531T413 521Q399 521 392
527T377 543Q366 559 344 559Q333 559 324 553T304 540T281 527T254 521Q208 521 187 536T166 578Q166 593 175 602T204 612Q218 612 225 606T240 590Q251 574 273 574Q284 574 292 580T309 593T331 606T363 612Z" />
<glyph unicode="&#xf2;" glyph-name="ograve" horiz-adv-x="598" d="M385 407Q477 407 517 373T558 284Q558 233 530 181T455 85T345 14T212 -14Q121 -14 81 20T40 110Q40 161 68 214T143 310T253 380T385 407ZM343 344Q301 344 266 328T204 285T163 223T148 151Q148
103 176 76T252 49Q293 49 329 65T392 109T435 171T451 244Q451 289 423 316T343 344ZM236 568Q230 575 230 585Q230 599 243 610T274 621Q288 621 296 616T313 598L358 517Q363 508 364 504T365 497Q365 485 354 477T327 468Q305 468 289 492L236 568Z" />
<glyph unicode="&#xf3;" glyph-name="oacute" horiz-adv-x="598" d="M385 407Q477 407 517 373T558 284Q558 233 530 181T455 85T345 14T212 -14Q121 -14 81 20T40 110Q40 161 68 214T143 310T253 380T385 407ZM343 344Q301 344 266 328T204 285T163 223T148 151Q148
103 176 76T252 49Q293 49 329 65T392 109T435 171T451 244Q451 289 423 316T343 344ZM318 492Q301 468 280 468Q264 468 253 476T242 497Q242 500 243 504T249 517L294 598Q301 611 309 616T333 621Q351 621 364 610T377 585Q377 575 371 568L318 492Z" />
<glyph unicode="&#xf4;" glyph-name="ocircumflex" horiz-adv-x="598" d="M385 407Q477 407 517 373T558 284Q558 233 530 181T455 85T345 14T212 -14Q121 -14 81 20T40 110Q40 161 68 214T143 310T253 380T385 407ZM343 344Q301 344 266 328T204 285T163 223T148
151Q148 103 176 76T252 49Q293 49 329 65T392 109T435 171T451 244Q451 289 423 316T343 344ZM365 476Q345 476 345 491Q345 497 346 500Q354 527 357 538T360 557Q360 565 354 571T326 578Q288 578 269 564T250 531Q250 517 258 503Q261 498 261 493Q261 485
251 480T226 475Q213 475 202 478T184 488Q174 498 174 515Q174 532 185 550T217 585T268 611T339 621Q387 621 407 608T427 575Q427 561 420 537T403 495Q397 484 390 480T365 476Z" />
<glyph unicode="&#xf5;" glyph-name="otilde" horiz-adv-x="598" d="M385 407Q477 407 517 373T558 284Q558 233 530 181T455 85T345 14T212 -14Q121 -14 81 20T40 110Q40 161 68 214T143 310T253 380T385 407ZM343 344Q301 344 266 328T204 285T163 223T148 151Q148
103 176 76T252 49Q293 49 329 65T392 109T435 171T451 244Q451 289 423 316T343 344ZM354 612Q400 612 421 597T442 555Q442 540 433 531T404 521Q390 521 383 527T368 543Q357 559 335 559Q324 559 315 553T295 540T272 527T245 521Q199 521 178 536T157 578Q157
593 166 602T195 612Q209 612 216 606T231 590Q242 574 264 574Q275 574 283 580T300 593T322 606T354 612Z" />
<glyph unicode="&#xf6;" glyph-name="odieresis" horiz-adv-x="598" d="M385 407Q477 407 517 373T558 284Q558 233 530 181T455 85T345 14T212 -14Q121 -14 81 20T40 110Q40 161 68 214T143 310T253 380T385 407ZM343 344Q301 344 266 328T204 285T163 223T148
151Q148 103 176 76T252 49Q293 49 329 65T392 109T435 171T451 244Q451 289 423 316T343 344ZM211 505Q185 505 173 516T160 542V575Q160 590 172 601T211 612Q237 612 249 601T261 575V542Q261 527 249 516T211 505ZM385 506Q359 506 347 517T335 543V576Q335
591 347 602T385 613Q411 613 423 602T436 576V543Q436 528 424 517T385 506Z" />
<glyph unicode="&#xf7;" glyph-name="divide" horiz-adv-x="347" d="M174 314Q154 314 144 322T134 344V369Q134 383 144 391T174 399Q196 399 205 391T215 369V344Q215 331 206 323T174 314ZM174 112Q154 112 144 120T134 142V167Q134 179 144 188T174 197Q196
197 205 188T215 167V142Q215 128 206 120T174 112ZM59 222Q45 222 38 231T30 256Q30 270 37 279T59 289H288Q302 289 309 280T317 256Q317 241 310 232T288 222H59Z" />
<glyph unicode="&#xf8;" glyph-name="oslash" horiz-adv-x="598" d="M385 407Q399 407 411 406T435 403L479 448Q489 458 502 458Q519 458 536 441Q553 424 553 408Q553 396 542 385L524 367Q558 336 558 284Q558 233 530 181T455 85T345 14T212 -14Q186 -14 165
-11L121 -55Q110 -66 96 -66Q80 -66 64 -49Q47 -32 47 -16Q47 -3 58 8L75 25Q57 41 49 62T40 110Q40 161 68 214T143 310T253 380T385 407ZM343 344Q301 344 265 328T203 284T161 222T145 151Q145 119 160 98L385 338Q365 344 343 344ZM454 244Q454 257 451 270T439
294L215 54Q223 51 232 50T252 49Q293 49 329 65T394 109T438 172T454 244Z" />
<glyph unicode="&#xf9;" glyph-name="ugrave" horiz-adv-x="629" d="M464 119Q423 52 365 19T232 -14Q141 -14 96 23T50 118Q50 148 61 183T91 255T139 326T200 390Q211 401 219 404T238 407Q251 407 260 398T270 378Q270 373 268 368T258 354Q234 328 216 301T185
246T165 193T158 148Q158 96 184 71T259 45Q298 45 334 62T398 109T443 180T460 270V358Q460 375 471 386T510 398Q536 398 547 387T559 358V30Q559 13 548 2T512 -10Q486 -10 475 1T464 30V119ZM272 568Q266 575 266 585Q266 599 279 610T310 621Q324 621 332
616T349 598L394 517Q399 508 400 504T401 497Q401 485 390 477T363 468Q341 468 325 492L272 568Z" />
<glyph unicode="&#xfa;" glyph-name="uacute" horiz-adv-x="629" d="M464 119Q423 52 365 19T232 -14Q141 -14 96 23T50 118Q50 148 61 183T91 255T139 326T200 390Q211 401 219 404T238 407Q251 407 260 398T270 378Q270 373 268 368T258 354Q234 328 216 301T185
246T165 193T158 148Q158 96 184 71T259 45Q298 45 334 62T398 109T443 180T460 270V358Q460 375 471 386T510 398Q536 398 547 387T559 358V30Q559 13 548 2T512 -10Q486 -10 475 1T464 30V119ZM385 492Q368 468 347 468Q331 468 320 476T309 497Q309 500 310
504T316 517L361 598Q368 611 376 616T400 621Q418 621 431 610T444 585Q444 575 438 568L385 492Z" />
<glyph unicode="&#xfb;" glyph-name="ucircumflex" horiz-adv-x="629" d="M464 119Q423 52 365 19T232 -14Q141 -14 96 23T50 118Q50 148 61 183T91 255T139 326T200 390Q211 401 219 404T238 407Q251 407 260 398T270 378Q270 373 268 368T258 354Q234 328 216
301T185 246T165 193T158 148Q158 96 184 71T259 45Q298 45 334 62T398 109T443 180T460 270V358Q460 375 471 386T510 398Q536 398 547 387T559 358V30Q559 13 548 2T512 -10Q486 -10 475 1T464 30V119ZM423 476Q403 476 403 491Q403 497 404 500Q412 527 415
538T418 557Q418 565 412 571T384 578Q346 578 327 564T308 531Q308 517 316 503Q319 498 319 493Q319 485 309 480T284 475Q271 475 260 478T242 488Q232 498 232 515Q232 532 243 550T275 585T326 611T397 621Q445 621 465 608T485 575Q485 561 478 537T461 495Q455
484 448 480T423 476Z" />
<glyph unicode="&#xfc;" glyph-name="udieresis" horiz-adv-x="629" d="M464 119Q423 52 365 19T232 -14Q141 -14 96 23T50 118Q50 148 61 183T91 255T139 326T200 390Q211 401 219 404T238 407Q251 407 260 398T270 378Q270 373 268 368T258 354Q234 328 216
301T185 246T165 193T158 148Q158 96 184 71T259 45Q298 45 334 62T398 109T443 180T460 270V358Q460 375 471 386T510 398Q536 398 547 387T559 358V30Q559 13 548 2T512 -10Q486 -10 475 1T464 30V119ZM278 505Q252 505 240 516T227 542V575Q227 590 239 601T278
612Q304 612 316 601T328 575V542Q328 527 316 516T278 505ZM452 506Q426 506 414 517T402 543V576Q402 591 414 602T452 613Q478 613 490 602T503 576V543Q503 528 491 517T452 506Z" />
<glyph unicode="&#xfd;" glyph-name="yacute" horiz-adv-x="635" d="M464 119Q423 52 365 19T232 -14Q141 -14 96 23T50 118Q50 148 61 183T91 255T139 326T200 390Q211 401 219 404T238 407Q251 407 260 398T270 378Q270 373 268 368T258 354Q234 328 216 301T185
246T165 193T158 148Q158 96 184 71T259 45Q298 45 334 62T398 109T443 180T460 270V358Q460 375 471 386T510 398Q536 398 547 387T559 358V27Q559 11 562 0T565 -23Q565 -74 538 -125T463 -217T353 -283T216 -309Q134 -309 93 -278T51 -202Q51 -175 65 -159T101
-142Q119 -142 128 -149T144 -168T156 -191T173 -215T202 -233T252 -241Q298 -241 336 -226T403 -185T448 -121T464 -38V119ZM380 492Q363 468 342 468Q326 468 315 476T304 497Q304 500 305 504T311 517L356 598Q363 611 371 616T395 621Q413 621 426 610T439
585Q439 575 433 568L380 492Z" />
<glyph unicode="&#xfe;" glyph-name="thorn" horiz-adv-x="618" d="M234 -14Q197 -14 170 -7V-269Q170 -286 159 -297T120 -309Q94 -309 83 -298T71 -269V65Q60 87 60 118Q60 138 64 151T71 181V662Q71 679 82 690T120 702Q147 702 158 691T170 662V294Q211 348
275 377T410 407Q500 407 539 371T578 273Q578 222 550 171T475 78T365 12T234 -14ZM267 55Q310 55 347 71T412 113T455 174T471 247Q471 295 446 321T372 347Q330 347 293 331T227 287T182 225T165 152Q165 108 192 82T267 55Z" />
<glyph unicode="&#xff;" glyph-name="ydieresis" horiz-adv-x="635" d="M464 119Q423 52 365 19T232 -14Q141 -14 96 23T50 118Q50 148 61 183T91 255T139 326T200 390Q211 401 219 404T238 407Q251 407 260 398T270 378Q270 373 268 368T258 354Q234 328 216
301T185 246T165 193T158 148Q158 96 184 71T259 45Q298 45 334 62T398 109T443 180T460 270V358Q460 375 471 386T510 398Q536 398 547 387T559 358V27Q559 11 562 0T565 -23Q565 -74 538 -125T463 -217T353 -283T216 -309Q134 -309 93 -278T51 -202Q51 -175 65
-159T101 -142Q119 -142 128 -149T144 -168T156 -191T173 -215T202 -233T252 -241Q298 -241 336 -226T403 -185T448 -121T464 -38V119ZM255 505Q229 505 217 516T204 542V575Q204 590 216 601T255 612Q281 612 293 601T305 575V542Q305 527 293 516T255 505ZM429
506Q403 506 391 517T379 543V576Q379 591 391 602T429 613Q455 613 467 602T480 576V543Q480 528 468 517T429 506Z" />
<glyph unicode="&#x2013;" glyph-name="endash" horiz-adv-x="411" d="M99 179Q70 179 70 211Q70 242 99 242H312Q341 242 341 211Q341 179 312 179H99Z" />
<glyph unicode="&#x2014;" glyph-name="emdash" horiz-adv-x="641" d="M79 179Q50 179 50 211Q50 242 79 242H562Q591 242 591 211Q591 179 562 179H79Z" />
<glyph unicode="&#x2018;" glyph-name="quoteleft" horiz-adv-x="163" d="M30 581Q30 591 34 602T50 640L71 687Q75 699 89 699Q95 699 103 696Q122 688 122 674Q122 672 120 666L97 612Q116 602 116 585V558Q116 544 105 536T72 527Q51 527 41 535T30 558V581Z" />
<glyph unicode="&#x2019;" glyph-name="quoteright" horiz-adv-x="163" d="M133 648Q133 638 129 627T113 589L92 542Q87 530 74 530Q67 530 60 533Q41 541 41 555Q41 557 43 563L66 617Q47 627 47 644V671Q47 685 58 693T91 702Q112 702 122 694T133 671V648Z" />
<glyph unicode="&#x201a;" glyph-name="quotesinglbase" horiz-adv-x="163" d="M133 31Q133 21 129 10T113 -28L92 -75Q87 -87 74 -87Q67 -87 60 -84Q41 -76 41 -62Q41 -60 43 -54L66 0Q47 10 47 27V54Q47 68 58 76T91 85Q112 85 122 77T133 54V31Z" />
<glyph unicode="&#x201c;" glyph-name="quotedblleft" horiz-adv-x="280" d="M30 581Q30 591 34 602T50 640L71 687Q75 699 89 699Q95 699 103 696Q122 688 122 674Q122 672 120 666L97 612Q116 602 116 585V558Q116 544 105 536T72 527Q51 527 41 535T30 558V581ZM147
581Q147 591 151 602T167 640L188 687Q192 699 206 699Q212 699 220 696Q239 688 239 674Q239 672 237 666L214 612Q233 602 233 585V558Q233 544 222 536T189 527Q168 527 158 535T147 558V581Z" />
<glyph unicode="&#x201d;" glyph-name="quotedblright" horiz-adv-x="280" d="M133 648Q133 638 129 627T113 589L92 542Q87 530 74 530Q67 530 60 533Q41 541 41 555Q41 557 43 563L66 617Q47 627 47 644V671Q47 685 58 693T91 702Q112 702 122 694T133 671V648ZM250
648Q250 638 246 627T230 589L209 542Q204 530 191 530Q184 530 177 533Q158 541 158 555Q158 557 160 563L183 617Q164 627 164 644V671Q164 685 175 693T208 702Q229 702 239 694T250 671V648Z" />
<glyph unicode="&#x201e;" glyph-name="quotedblbase" horiz-adv-x="280" d="M133 31Q133 21 129 10T113 -28L92 -75Q87 -87 74 -87Q67 -87 60 -84Q41 -76 41 -62Q41 -60 43 -54L66 0Q47 10 47 27V54Q47 68 58 76T91 85Q112 85 122 77T133 54V31ZM250 31Q250 21
246 10T230 -28L209 -75Q204 -87 191 -87Q184 -87 177 -84Q158 -76 158 -62Q158 -60 160 -54L183 0Q164 10 164 27V54Q164 68 175 76T208 85Q229 85 239 77T250 54V31Z" />
<glyph unicode="&#x2022;" glyph-name="bullet" horiz-adv-x="241" d="M121 136Q89 136 75 148T60 180V218Q60 237 74 249T121 262Q152 262 166 250T181 218V180Q181 161 167 149T121 136Z" />
<glyph unicode="&#x2039;" glyph-name="guilsinglleft" horiz-adv-x="283" d="M128 230L224 129Q231 122 231 112Q231 98 218 85Q207 74 194 74Q182 74 173 84L65 204Q50 220 50 231Q50 237 53 243T65 257L174 377Q183 387 195 387Q208 387 219 376Q232 363 232
350Q232 339 225 332L128 230Z" />
<glyph unicode="&#x203a;" glyph-name="guilsinglright" horiz-adv-x="283" d="M58 332Q51 339 51 350Q51 363 64 376Q75 387 88 387Q100 387 109 377L218 257Q226 249 229 243T233 231Q233 220 218 204L110 84Q101 74 89 74Q76 74 65 85Q52 98 52 112Q52 122
59 129L155 230L58 332Z" />
</font>
</defs>
</svg>
