<?xml version="1.0" standalone="no"?>
<!DOCTYPE svg PUBLIC "-//W3C//DTD SVG 1.1//EN" "http://www.w3.org/Graphics/SVG/1.1/DTD/svg11.dtd">
<svg xmlns="http://www.w3.org/2000/svg">
<defs >
<font id="CodaCaption" horiz-adv-x="1236" ><font-face
    font-family="Coda Caption ExtraBold"
    units-per-em="2048"
    panose-1="2 0 5 5 2 0 0 2 0 4"
    ascent="2450"
    descent="-783"
    alphabetic="0" />
<glyph unicode=" " glyph-name="space" horiz-adv-x="639" />
<glyph unicode="!" glyph-name="exclam" horiz-adv-x="780" d="M553 492H86V1604H601L553 492ZM86 0V397H601V0H86Z" />
<glyph unicode="&quot;" glyph-name="quotedbl" horiz-adv-x="1229" d="M408 798H120L35 1604H493L408 798ZM936 798H648L563 1604H1021L936 798Z" />
<glyph unicode="#" glyph-name="numbersign" horiz-adv-x="1804" d="M1393 300H1243L1205 0H715L754 299H649L611 0H121L160 299H39L92 730H216L234 872H100L153 1304H291L329 1595H817L779 1304H885L923 1595H1411L1373 1304H1507L1455 873H1318L1299 730H1446L1393
300ZM705 730H809L828 872H724L705 730Z" />
<glyph unicode="$" glyph-name="dollar" horiz-adv-x="1573" d="M623 1106Q623 1090 652 1084T730 1072T840 1058T966 1032T1092 982T1202 897T1280 766T1310 578Q1310 512 1307 448T1293 324T1259 211T1196 113T1095 36T947 -16V-248H437V-17Q351 -1 289 24T183
82T114 151T73 226T54 301T49 371V533H623V233H735V553Q735 568 706 578T628 601T518 627T392 664T266 719T156 800T79 912T49 1064Q49 1195 66 1291T128 1453T247 1558T437 1615V1843H947V1612Q1024 1597 1077 1574T1167 1521T1223 1457T1254 1387T1266 1316T1269
1247V1128H735V1364H623V1106Z" />
<glyph unicode="%" glyph-name="percent" horiz-adv-x="2902" d="M540 1334H458V669H540V1334ZM497 454Q384 454 307 468T179 506T102 561T62 627T47 697T45 765V1244Q45 1276 47 1311T61 1380T101 1446T179 1501T306 1539T497 1553Q610 1553 687 1539T815 1501T892
1446T932 1381T947 1311T949 1244V765Q949 733 947 698T933 628T893 562T815 506T688 468T497 454ZM2023 955H1942V290H2023V955ZM1979 75Q1866 75 1789 89T1662 127T1585 182T1546 248T1531 318T1529 386V863Q1529 895 1531 930T1545 1000T1585 1066T1662 1122T1789
1160T1979 1174Q2092 1174 2169 1160T2297 1122T2375 1067T2415 1001T2430 931T2432 863V386Q2432 354 2430 319T2416 248T2376 182T2298 127T2170 89T1979 75ZM1639 1670L1300 -40H840L1184 1670H1639Z" />
<glyph unicode="&amp;" glyph-name="ampersand" horiz-adv-x="1688" d="M784 1154V1364H598V952H787V1080H1296V952H1433V728H1296V635Q1296 503 1289 402T1259 227T1195 101T1085 20T919 -24T685 -38Q546 -38 446 -25T278 16T168 89T104 199T75 349T68 543Q68
631 86 688T126 779T168 825T189 840Q187 841 168 855T127 903T86 993T68 1137Q68 1290 94 1387T190 1539T379 1614T685 1635Q821 1635 918 1627T1083 1599T1192 1543T1255 1455T1284 1327T1292 1154H784ZM787 236V728H598V236H787Z" />
<glyph unicode="&apos;" glyph-name="quotesingle" horiz-adv-x="606" d="M408 798H120L35 1604H493L408 798Z" />
<glyph unicode="(" glyph-name="parenleft" horiz-adv-x="934" d="M57 803Q57 1068 81 1254T153 1567T269 1766T426 1876T622 1924T854 1935V1657Q802 1657 761 1653T688 1624T634 1548T597 1401T576 1161T569 803Q569 591 575 446T596 205T633 58T687 -18T760
-46T854 -51V-330Q730 -330 623 -320T427 -272T270 -161T154 38T82 351T57 803Z" />
<glyph unicode=")" glyph-name="parenright" horiz-adv-x="934" d="M736 803Q736 538 712 351T640 39T524 -160T367 -271T171 -319T-61 -330V-51Q-9 -51 32 -47T105 -18T159 58T196 205T217 445T224 803Q224 1015 218 1160T197 1401T160 1548T106 1624T33 1652T-61
1657V1935Q63 1935 170 1925T366 1877T524 1766T640 1567T711 1255T736 803Z" />
<glyph unicode="*" glyph-name="asterisk" horiz-adv-x="1343" d="M494 346L142 478L320 791L43 733V1164L320 1097L122 1347L464 1601L576 1287L690 1601L1032 1347L832 1097L1110 1164V733L832 791L1011 478L660 346L576 647L494 346Z" />
<glyph unicode="+" glyph-name="plus" horiz-adv-x="1343" d="M354 891V1298H800V891H1111V408H800V0H354V408H43V891H354Z" />
<glyph unicode="," glyph-name="comma" horiz-adv-x="727" d="M98 -168Q150 -156 191 -133Q209 -123 225 -111T255 -82T277 -45T285 0H74V487H566V150Q566 -2 534 -101T442 -260T295 -343T98 -367V-168Z" />
<glyph unicode="-" glyph-name="hyphen" horiz-adv-x="1006" d="M812 897V461H59V897H812Z" />
<glyph unicode="." glyph-name="period" horiz-adv-x="686" d="M532 0H74V467H532V0Z" />
<glyph unicode="/" glyph-name="slash" horiz-adv-x="1110" d="M351 1595L33 0H607L925 1595H351Z" />
<glyph unicode="0" glyph-name="zero" horiz-adv-x="1495" d="M554 237H790V1358H554V237ZM676 -39Q529 -39 426 -21T254 27T146 97T87 180T62 267T57 352V1242Q57 1282 62 1326T86 1414T145 1497T254 1567T426 1615T676 1633Q823 1633 925 1615T1096 1567T1202
1498T1259 1415T1282 1327T1287 1242V352Q1287 312 1283 268T1259 180T1202 97T1096 27T926 -21T676 -39Z" />
<glyph unicode="1" glyph-name="one" horiz-adv-x="989" d="M762 1595V0H265V1200H16V1384Q60 1384 110 1396T208 1435T295 1501T358 1595H762Z" />
<glyph unicode="2" glyph-name="two" horiz-adv-x="1430" d="M64 1064Q64 1216 94 1324T196 1500T388 1600T689 1632Q826 1632 931 1604T1108 1515T1217 1363T1254 1143Q1254 1059 1224 985T1146 844T1035 720T907 611T780 515T669 433T590 361T560 300H1194V0H64V222Q64
337 94 426T172 586T283 713T410 818T537 912T648 1007T727 1114T757 1244V1358H561V1064H64Z" />
<glyph unicode="3" glyph-name="three" horiz-adv-x="1458" d="M54 1025Q54 1176 76 1290T162 1481T343 1596T649 1635Q781 1635 878 1617T1043 1564T1154 1483T1221 1378T1254 1254T1263 1117Q1263 1059 1250 1015T1215 938T1170 883T1124 847T1088 827T1072
820Q1073 819 1088 813T1124 794T1169 759T1215 704T1249 627T1263 523Q1263 450 1255 380T1222 248T1155 133T1044 42T878 -17T649 -38Q460 -38 343 4T162 130T76 334T54 615L551 614V237H766V708H473V932H766V1358H551V1025H54Z" />
<glyph unicode="4" glyph-name="four" horiz-adv-x="1479" d="M1234 0H737V237H43V657L310 1595H803L539 657V603H737V938H1234V0Z" />
<glyph unicode="5" glyph-name="five" horiz-adv-x="1438" d="M523 474V237H759V838H542L522 655H26L179 1595H1177V1300H606L563 998Q580 1028 618 1053Q650 1073 707 1090T856 1108Q960 1108 1035 1072T1160 966T1232 793T1256 553Q1256 454 1248 372T1215 224T1148
109T1037 28T871 -21T642 -38Q447 -38 326 -1T139 104T49 266T26 474H523Z" />
<glyph unicode="6" glyph-name="six" horiz-adv-x="1462" d="M549 237H785V798H549V237ZM666 -38Q535 -38 439 -21T274 27T162 104T95 207T61 331T52 475V1055Q52 1122 60 1190T91 1323T156 1443T266 1542T433 1608T666 1632Q808 1632 904 1609T1063 1548T1157
1461T1204 1359T1220 1254T1222 1158H784V1358H549V1068H677Q861 1068 978 1038T1163 942T1256 773T1282 523Q1282 434 1273 358T1240 220T1172 109T1061 29T895 -21T666 -38Z" />
<glyph unicode="7" glyph-name="seven" horiz-adv-x="1096" d="M711 1595V1351L514 0H17L208 1358H16V1595H711Z" />
<glyph unicode="8" glyph-name="eight" horiz-adv-x="1432" d="M637 1630Q775 1630 883 1605T1067 1525T1182 1385T1222 1181Q1222 1127 1213 1085T1188 1011T1153 956T1112 916Q1064 878 1002 865Q1072 852 1127 805Q1150 785 1172 756T1212 687T1241 593T1252
471Q1252 397 1243 330T1210 206T1143 104T1032 26T866 -24T637 -41Q505 -41 408 -24T243 25T131 103T64 206T31 329T22 471Q22 539 29 592T48 686T75 756T106 805Q143 852 191 865Q149 878 116 917Q102 933 89 956T65 1012T48 1086T41 1181Q41 1300 82 1385T201
1524T388 1604T637 1630ZM519 1358V961H755V1358H519ZM519 236H755V721H519V236Z" />
<glyph unicode="9" glyph-name="nine" horiz-adv-x="1464" d="M762 1358H526V796H762V1358ZM646 1632Q777 1632 873 1615T1038 1567T1149 1490T1216 1387T1250 1263T1259 1119V539Q1259 472 1251 404T1220 271T1155 151T1045 52T879 -14T646 -38Q499 -38 399 -15T235
46T137 133T89 235T72 340T70 436H526V237H762V526H635Q451 526 333 556T148 652T55 821T29 1071Q29 1160 38 1236T71 1374T139 1485T250 1565T416 1615T646 1632Z" />
<glyph unicode=":" glyph-name="colon" horiz-adv-x="741" d="M558 92H100V559H558V92ZM558 1000H100V1497H558V1000Z" />
<glyph unicode=";" glyph-name="semicolon" horiz-adv-x="774" d="M579 1000H121V1497H579V1000ZM137 -48Q189 -36 230 -13Q248 -3 264 9T294 38T316 75T324 120H113V607H605V270Q605 118 573 19T481 -140T334 -223T137 -247V-48Z" />
<glyph unicode="&lt;" glyph-name="less" horiz-adv-x="1042" d="M43 1098L835 1597V1092L292 797L835 504V0L43 489V1098Z" />
<glyph unicode="=" glyph-name="equal" horiz-adv-x="1026" d="M824 336V0H70V336H824ZM824 897V561H70V897H824Z" />
<glyph unicode="&gt;" glyph-name="greater" horiz-adv-x="1042" d="M861 489L68 0V504L611 797L68 1092V1597L861 1098V489Z" />
<glyph unicode="?" glyph-name="question" horiz-adv-x="1436" d="M235 462Q235 573 253 653T302 792T370 887T448 949T526 988T594 1014T642 1036T660 1066L664 1364H564V1070H39V1247Q39 1287 42 1331T61 1418T111 1499T207 1567T363 1614T596 1632Q727 1632
822 1620T983 1581T1090 1511T1153 1404T1184 1257T1192 1064Q1192 948 1162 873T1087 751T989 680T891 640T815 614T785 583V462H235ZM237 397H785V0H237V397Z" />
<glyph unicode="@" glyph-name="at" horiz-adv-x="2277" d="M1063 235Q1036 199 1002 172Q973 148 931 129T834 109Q757 109 705 125T619 170T567 235T540 315T530 401T528 489Q528 522 529 560T539 636T566 709T619 772T705 815T834 832Q915 832 963 817T1036
784V1018H983V883H574Q574 922 574 964T581 1046T613 1122T684 1185T809 1229T1004 1245Q1103 1245 1173 1231T1290 1194T1366 1138T1408 1068T1427 990T1431 910Q1431 888 1431 868T1430 827L1428 328H1510Q1510 458 1510 580T1509 830Q1509 955 1495 1042T1454
1187T1385 1278T1289 1327T1166 1348T1017 1352Q888 1352 795 1336T635 1285T528 1197T464 1070T433 902T425 690Q425 523 437 406T480 209T560 85T684 16T860 -13T1093 -19Q1120 -19 1153 -18T1220 -13T1290 -7T1359 1Q1436 10 1516 21L1569 -234Q1506 -279 1431
-314Q1367 -344 1282 -369T1097 -394Q917 -394 769 -378T503 -319T300 -200T156 -4T71 286T43 687Q43 893 69 1051T148 1327T281 1523T469 1651T713 1720T1015 1741Q1191 1741 1325 1718T1558 1647T1723 1529T1830 1361T1888 1145T1906 878Q1906 643 1873 490T1775
248T1611 124T1381 88Q1287 88 1226 110T1129 161Q1087 194 1063 235ZM952 637V332H1036V637H952Z" />
<glyph unicode="A" glyph-name="A" horiz-adv-x="1606" d="M554 393L513 0H-2L254 1595H1112L1368 0H851L812 393H554ZM580 572H786L682 1361L580 572Z" />
<glyph unicode="B" glyph-name="B" horiz-adv-x="1618" d="M1326 460Q1326 397 1324 338T1306 228T1256 135T1160 63T1002 17T766 0H96V1595H775Q905 1595 994 1578T1140 1531T1229 1461T1274 1376T1291 1283T1294 1188Q1294 1123 1282 1077T1251 998T1207 944T1157
909Q1097 876 1021 870Q1109 864 1177 827Q1207 811 1234 787T1281 720T1314 616T1326 460ZM593 237H829V750H593V237ZM593 981H829V1358H593V981Z" />
<glyph unicode="C" glyph-name="C" horiz-adv-x="1628" d="M811 1358H575V237H811V686H1308V371Q1308 331 1304 285T1280 194T1221 106T1114 32T943 -19T693 -39Q547 -39 445 -20T275 32T167 106T108 193T83 285T78 371V1227Q78 1267 83 1312T107 1403T166 1489T274
1562T443 1613T690 1632Q838 1632 941 1613T1113 1563T1221 1490T1279 1403T1303 1313T1308 1227V909H811V1358Z" />
<glyph unicode="D" glyph-name="D" horiz-adv-x="1661" d="M593 237H829V1358H593V237ZM1326 393Q1326 353 1324 309T1306 220T1256 137T1160 67T1003 18T767 0H96V1595H767Q907 1595 1002 1577T1160 1529T1256 1460T1305 1377T1323 1289T1326 1204V393Z" />
<glyph unicode="E" glyph-name="E" horiz-adv-x="1198" d="M902 1595V1358H593V961H881V711H593V237H902V0H96V1595H902Z" />
<glyph unicode="F" glyph-name="F" horiz-adv-x="1174" d="M902 1595V1358H593V954H881V705H593V0H96V1595H902Z" />
<glyph unicode="G" glyph-name="G" horiz-adv-x="1645" d="M1308 686V0H873L825 104Q805 64 770 33Q740 7 690 -15T562 -37Q467 -37 395 -19T268 30T178 101T119 185T88 273T78 358V1227Q78 1270 83 1317T108 1409T167 1494T274 1565T443 1614T689 1632Q830 1632
930 1613T1099 1563T1209 1490T1272 1403T1301 1313T1308 1227V909H811V1358H575V237H897V455H753V686H1308Z" />
<glyph unicode="H" glyph-name="H" horiz-adv-x="1677" d="M1376 1595V0H879V688H593V0H96V1595H593V938H879V1595H1376Z" />
<glyph unicode="I" glyph-name="I" horiz-adv-x="870" d="M593 1595V0H96V1595H593Z" />
<glyph unicode="J" glyph-name="J" horiz-adv-x="1612" d="M768 1595H1265V371Q1265 331 1259 285T1232 194T1171 106T1065 32T900 -19T664 -39Q510 -39 403 -20T226 32T118 106T61 193T39 285T35 371V603H532V237H768V1595Z" />
<glyph unicode="K" glyph-name="K" horiz-adv-x="1872" d="M593 0H96V1595H593V1034L913 1595H1513L1058 834L1531 0H930L667 531L593 440V0Z" />
<glyph unicode="L" glyph-name="L" horiz-adv-x="1161" d="M96 0V1595H593V237H901V0H96Z" />
<glyph unicode="M" glyph-name="M" horiz-adv-x="2056" d="M1008 0H644L439 916V0H59V1595H673L826 622L979 1595H1593V0H1213V916L1008 0Z" />
<glyph unicode="N" glyph-name="N" horiz-adv-x="1741" d="M893 0L508 711V0H96V1595H550L958 834V1595H1357V0H893Z" />
<glyph unicode="O" glyph-name="O" horiz-adv-x="1640" d="M577 237H813V1358H577V237ZM688 -39Q543 -39 441 -20T272 32T166 106T108 193T85 285T80 371V1227Q80 1267 84 1312T108 1403T165 1489T271 1562T440 1613T688 1632Q835 1632 938 1613T1111 1563T1220
1490T1280 1403T1305 1313T1310 1227V371Q1310 331 1305 285T1280 194T1220 106T1111 32T939 -19T688 -39Z" />
<glyph unicode="P" glyph-name="P" horiz-adv-x="1626" d="M96 1595H766Q906 1595 1001 1577T1159 1529T1255 1460T1305 1377T1323 1289T1326 1204V823Q1326 783 1324 739T1305 651T1256 568T1160 498T1002 450T766 432H593V0H96V1595ZM593 650H829V1358H593V650Z" />
<glyph unicode="Q" glyph-name="Q" horiz-adv-x="1642" d="M812 237H1048V1358H812V237ZM923 -39Q778 -39 676 -20T507 32T401 106T343 193T320 285T315 371V1227Q315 1267 319 1312T343 1403T400 1489T506 1562T675 1613T923 1632Q1070 1632 1173 1613T1346 1563T1455
1490T1515 1403T1540 1313T1545 1227V371Q1545 331 1540 285T1515 194T1455 106T1346 32T1174 -19T923 -39Z" />
<glyph unicode="R" glyph-name="R" horiz-adv-x="1649" d="M829 649H593V0H96V1595H745Q890 1595 989 1577T1153 1526T1253 1448T1304 1349T1323 1234T1326 1110Q1326 1051 1319 996T1288 895T1223 818T1111 774Q1143 771 1180 757T1250 710T1304 623T1326 487V0H829V649ZM593
881H829V1358H593V881Z" />
<glyph unicode="S" glyph-name="S" horiz-adv-x="1585" d="M577 1128Q577 1096 608 1077T691 1044T809 1015T943 980T1078 925T1195 838T1278 706T1310 518Q1310 439 1306 367T1284 234T1228 122T1122 37T949 -18T695 -37Q562 -37 463 -24T292 18T176 89T104 192T67
327T57 496H577V237H813V533Q813 562 782 581T699 615T581 646T447 682T312 733T195 807T112 914T80 1064Q80 1172 91 1256T129 1404T202 1510T317 1581T482 1620T705 1632Q887 1632 1004 1608T1190 1528T1284 1381T1310 1158H813V1358H577V1128Z" />
<glyph unicode="T" glyph-name="T" horiz-adv-x="1448" d="M1212 1595V1358H866V0H369V1358H25V1595H1212Z" />
<glyph unicode="U" glyph-name="U" horiz-adv-x="1671" d="M591 237H827V1595H1324V371Q1324 331 1319 285T1294 194T1234 106T1125 32T953 -19T703 -39Q558 -39 456 -20T287 32T181 106T123 193T99 285T94 371V1595H591V237Z" />
<glyph unicode="V" glyph-name="V" horiz-adv-x="1653" d="M551 1595L670 224L789 1595H1356L1100 0H242L-14 1595H551Z" />
<glyph unicode="W" glyph-name="W" horiz-adv-x="2376" d="M1958 1595L1696 0H1118L979 718L840 0H261L0 1595H543L657 666L765 1595H1194L1300 666L1415 1595H1958Z" />
<glyph unicode="X" glyph-name="X" horiz-adv-x="1556" d="M496 1595L657 1162L822 1595H1339L977 782L1339 0H789L657 388L529 0H-20L339 782L-20 1595H496Z" />
<glyph unicode="Y" glyph-name="Y" horiz-adv-x="1571" d="M476 1595L643 988L816 1595H1298L894 449V0H397V459L-18 1595H476Z" />
<glyph unicode="Z" glyph-name="Z" horiz-adv-x="1147" d="M960 1595L646 294H950V0H23L369 1304H33V1595H960Z" />
<glyph unicode="[" glyph-name="bracketleft" horiz-adv-x="1104" d="M92 1819H973V1578H666V-77H973V-319H92V1819Z" />
<glyph unicode="\" glyph-name="backslash" horiz-adv-x="1110" d="M603 1595L921 0H347L29 1595H603Z" />
<glyph unicode="]" glyph-name="bracketright" horiz-adv-x="1102" d="M854 -319H-27V-77H282V1578H-27V1819H854V-319Z" />
<glyph unicode="^" glyph-name="asciicircum" horiz-adv-x="1706" d="M1084 676L1340 61H905L825 381L749 61H315L561 676H1084Z" />
<glyph unicode="_" glyph-name="underscore" horiz-adv-x="967" d="M814 1V-435H10V1H814Z" />
<glyph unicode="`" glyph-name="grave" horiz-adv-x="1706" d="M593 809L1280 246L1210 41L385 266L593 809Z" />
<glyph unicode="a" glyph-name="a" horiz-adv-x="1481" d="M852 0L807 167Q781 116 741 78T652 15T548 -23T437 -36Q322 -36 245 -2T121 89T55 218T35 368Q35 447 58 523T139 660T294 758T540 795Q591 795 650 792T768 782V1060H532V893L138 894Q127 933 120 971T113
1044Q113 1104 138 1158T226 1254T394 1319T661 1343Q806 1343 907 1325T1075 1277T1180 1208T1237 1125T1260 1037T1265 952V257Q1265 209 1271 164T1286 82Q1296 39 1308 0H852ZM532 602V237H768V602H532Z" />
<glyph unicode="b" glyph-name="b" horiz-adv-x="1505" d="M577 1710V1199Q641 1270 734 1307T935 1344Q1006 1344 1073 1321T1193 1250T1278 1129T1310 955V377Q1310 272 1278 194T1192 65T1069 -12T928 -37Q868 -37 811 -24T703 14T610 78T537 167L491 0H80V1710H577ZM577
237H813V1060H577V237Z" />
<glyph unicode="c" glyph-name="c" horiz-adv-x="1479" d="M1291 451V354Q1291 315 1288 271T1268 183T1214 100T1108 30T933 -19T673 -37Q523 -37 420 -19T248 29T142 99T86 182T65 269T61 354V954Q61 994 64 1038T86 1125T142 1207T248 1277T419 1325T673 1343Q819
1343 921 1327T1092 1283T1201 1219T1261 1142T1286 1059T1291 978V855H794V1060H558V237H794V451H1291Z" />
<glyph unicode="d" glyph-name="d" horiz-adv-x="1505" d="M1293 1710V0H882L836 167Q806 117 764 79T670 15T562 -24T445 -37Q373 -37 304 -12T182 64T96 194T63 377V955Q63 1055 95 1128T179 1250T299 1321T438 1344Q545 1344 638 1307T796 1199V1710H1293ZM796
1060H560V237H796V1060Z" />
<glyph unicode="e" glyph-name="e" horiz-adv-x="1481" d="M1290 451Q1290 380 1285 317T1261 199T1202 101T1094 28T923 -19T673 -36Q523 -36 420 -18T248 30T142 99T86 182T65 270T61 354V954Q61 994 64 1038T86 1125T142 1207T248 1277T419 1325T673 1343Q819
1343 922 1325T1093 1277T1201 1208T1261 1125T1286 1038T1291 954V579H558V237H794V450L1290 451ZM558 757H794V1060H558V757Z" />
<glyph unicode="f" glyph-name="f" horiz-adv-x="1186" d="M195 1300Q195 1418 228 1500T320 1635T460 1710T639 1734Q715 1734 797 1721T968 1683V1477H692V1300H976V1098H692V0H195V1098H8V1300H195Z" />
<glyph unicode="g" glyph-name="g" horiz-adv-x="1505" d="M796 101Q765 66 725 39T638 -6T540 -34T438 -44Q367 -44 300 -21T180 50T95 171T63 345V923Q63 1028 95 1106T181 1235T304 1312T445 1337Q503 1337 560 1324T668 1286T763 1222T836 1133L882 1300H1293V58Q1293
-59 1268 -152T1200 -318T1099 -441T972 -524T829 -572T679 -587Q611 -587 546 -575T421 -541T311 -486T224 -415T167 -329T146 -232Q146 -210 150 -196T163 -159L666 -171V-288H796V101ZM796 1060H560V237H796V1060Z" />
<glyph unicode="h" glyph-name="h" horiz-adv-x="1520" d="M80 0V1710H577V1188Q600 1225 637 1254T720 1302T819 1332T928 1343Q998 1343 1066 1321T1189 1254T1276 1137T1310 968V0H813V1060H577V0H80Z" />
<glyph unicode="i" glyph-name="i" horiz-adv-x="780" d="M577 0H80V1300H577V0ZM577 1710V1473H80V1710H577Z" />
<glyph unicode="j" glyph-name="j" horiz-adv-x="780" d="M-24 1300H473V94Q473 -5 442 -83T353 -217T215 -302T37 -332Q-23 -332 -87 -321T-221 -285V-66H-24V1300ZM473 1710V1473H-24V1710H473Z" />
<glyph unicode="k" glyph-name="k" horiz-adv-x="1612" d="M80 0V1710H577V888L819 1300H1349L1032 820L1356 0H850L679 485L577 348V0H80Z" />
<glyph unicode="l" glyph-name="l" horiz-adv-x="780" d="M577 0H80V1710H577V0Z" />
<glyph unicode="m" glyph-name="m" horiz-adv-x="2249" d="M80 0V1300H471L517 1133Q543 1185 585 1224T679 1290T789 1330T906 1344Q955 1344 1002 1333T1092 1298T1169 1239T1228 1157Q1256 1203 1298 1238T1392 1296T1500 1332T1614 1344Q1683 1344 1749 1321T1868
1251T1951 1134T1983 968V0H1506V1060H1269Q1270 1055 1270 1050T1270 1039V0H793V1060H557V0H80Z" />
<glyph unicode="n" glyph-name="n" horiz-adv-x="1520" d="M80 0V1300H491L537 1133Q563 1185 605 1224T699 1290T810 1330T930 1344Q1001 1344 1069 1321T1191 1252T1277 1134T1310 968V0H813V1060H577V0H80Z" />
<glyph unicode="o" glyph-name="o" horiz-adv-x="1487" d="M558 237H794V1060H558V237ZM682 -39Q532 -39 428 -21T254 27T147 97T89 180T66 267T61 352V952Q61 992 65 1036T89 1124T146 1207T254 1277T427 1325T682 1343Q831 1343 934 1325T1105 1277T1210 1208T1266
1125T1287 1037T1291 952V352Q1291 312 1288 268T1266 180T1211 97T1106 27T935 -21T682 -39Z" />
<glyph unicode="p" glyph-name="p" horiz-adv-x="1503" d="M80 -408V1300H491L537 1133Q567 1183 610 1221T704 1285T812 1324T928 1337Q1000 1337 1069 1312T1191 1236T1277 1106T1310 923V345Q1310 245 1278 172T1194 50T1074 -21T935 -44Q883 -44 833 -35T736
-7T649 39T577 101V-408H80ZM577 236H813V1060H577V236Z" />
<glyph unicode="q" glyph-name="q" horiz-adv-x="1481" d="M796 -408V101Q765 66 725 39T638 -6T541 -34T438 -44Q367 -44 300 -21T180 50T95 171T63 345V923Q63 1028 95 1106T181 1235T304 1312T445 1337Q503 1337 560 1324T669 1286T763 1222T836 1133L882 1300H1293V-408H796ZM796
1060H560V237H796V1060Z" />
<glyph unicode="r" glyph-name="r" horiz-adv-x="1014" d="M80 0V1300H481L537 1095Q547 1145 568 1183T616 1248T676 1294T740 1322T802 1337T855 1343V949L577 869V0H80Z" />
<glyph unicode="s" glyph-name="s" horiz-adv-x="1425" d="M764 444Q756 453 720 458T631 469T513 486T381 515T251 564T139 640T61 750T31 902Q31 966 41 1023T76 1130T147 1218T262 1285T430 1328T661 1343Q794 1341 888 1328T1045 1293T1146 1239T1203 1167T1228
1079T1234 975V889L764 919V1060H528V867Q537 858 573 852T663 839T781 820T912 790T1041 742T1153 669T1231 564T1261 421Q1261 308 1236 223T1141 80T950 -7T635 -36Q505 -33 412 -20T254 17T152 72T94 145T68 233T61 335V413L528 378V237H764V444Z" />
<glyph unicode="t" glyph-name="t" horiz-adv-x="954" d="M636 0H139V1100H16V1300H139V1595H636V1300H800V1100H636V0Z" />
<glyph unicode="u" glyph-name="u" horiz-adv-x="1520" d="M1308 1300V0H897L851 167Q825 115 783 76T689 10T578 -30T458 -44Q387 -44 319 -21T197 48T111 166T78 332V1300H575V237H811V1300H1308Z" />
<glyph unicode="v" glyph-name="v" horiz-adv-x="1434" d="M-8 1300H508L607 420L708 1300H1225L914 0H304L-8 1300Z" />
<glyph unicode="w" glyph-name="w" horiz-adv-x="2181" d="M925 739L845 0H212L6 1300H501L578 420L687 1300H1169L1276 420L1354 1300H1850L1644 0H1007L925 739Z" />
<glyph unicode="x" glyph-name="x" horiz-adv-x="1364" d="M-18 0L319 652L-18 1300H498L577 1049L655 1300H1172L835 652L1172 0H659L577 258L495 0H-18Z" />
<glyph unicode="y" glyph-name="y" horiz-adv-x="1520" d="M575 237H811V1300H1308V58Q1308 -59 1284 -152T1216 -318T1113 -441T986 -524T842 -572T691 -587Q623 -587 558 -575T433 -541T323 -486T236 -415T179 -329T158 -232Q158 -210 162 -187T175 -141L678
-171V-235H812V101Q781 66 740 39T653 -6T555 -34T453 -44Q382 -44 315 -21T195 50T110 171T78 345V1300H575V237Z" />
<glyph unicode="z" glyph-name="z" horiz-adv-x="1122" d="M59 1300H919V1079L597 246H925V0H37V233L362 1051H59V1300Z" />
<glyph unicode="{" glyph-name="braceleft" horiz-adv-x="1057" d="M694 1348Q681 1241 675 1156T659 1004T630 885T569 797Q610 760 629 710T659 592T675 439T694 247Q708 136 730 76T784 -12T859 -46T958 -51V-330Q853 -330 760 -323T588 -293T443 -224T326
-101T239 91T183 367Q174 439 167 489T151 571T132 621T105 647T67 656T12 658V937Q44 937 66 938T105 948T131 974T150 1024T166 1106T183 1228Q203 1389 239 1503T326 1695T442 1818T587 1887T760 1918T958 1925V1646Q902 1646 860 1641T785 1608T730 1519T694
1348Z" />
<glyph unicode="|" glyph-name="bar" horiz-adv-x="862" d="M666 1795V-100H92V1795H666Z" />
<glyph unicode="}" glyph-name="braceright" horiz-adv-x="1057" d="M196 1348Q182 1459 160 1519T106 1607T30 1641T-68 1646V1925Q36 1925 128 1918T300 1888T446 1819T563 1696T651 1504T707 1228Q716 1156 723 1106T738 1024T757 974T784 948T823 939T878
937V658Q846 658 823 657T784 647T757 621T738 571T723 489T707 367Q687 206 651 92T564 -100T446 -223T301 -292T129 -323T-68 -330V-51Q-13 -51 30 -46T105 -13T160 76T196 247Q209 353 215 438T231 591T260 709T321 797Q280 834 261 885T231 1003T215 1156T196
1348Z" />
<glyph unicode="~" glyph-name="asciitilde" horiz-adv-x="1456" d="M835 806Q810 806 789 792T743 757T689 711T621 665T531 630T410 616Q321 616 253 642T138 736T67 922T43 1227H311Q311 1194 316 1164T333 1110T364 1073T412 1059Q437 1059 460 1073T510 1109T567
1155T636 1202T724 1237T835 1252Q924 1252 993 1227T1108 1133T1179 947T1203 642H934Q934 670 929 699T913 752T882 791T835 806Z" />
<glyph unicode="&#xa0;" glyph-name="uni00A0" horiz-adv-x="639" />
<glyph unicode="&#xa1;" glyph-name="exclamdown" horiz-adv-x="776" d="M553 1112H86V0H601L553 1112ZM86 1604V1207H601V1604H86Z" />
<glyph unicode="&#xa2;" glyph-name="cent" horiz-adv-x="1430" d="M399 79Q311 92 250 115T150 170T90 236T58 310T47 385T45 457V1022Q45 1055 46 1092T58 1167T89 1240T150 1306T249 1360T399 1397V1709H828V1397Q917 1384 978 1361T1078 1307T1139 1241T1169
1168T1180 1093T1182 1022L1180 866H663V1157H561V319H663V645H1182V457Q1182 423 1181 386T1169 311T1138 237T1077 170T977 116T828 79V-304H399V79Z" />
<glyph unicode="&#xa3;" glyph-name="sterling" horiz-adv-x="1642" d="M1105 718H720V268H835V562H1360V385Q1360 345 1358 301T1345 214T1311 133T1244 65T1135 18T971 0Q897 0 849 14T770 49T719 91T685 130Q657 98 632 76T576 39T503 16T398 5T250 1T45 0V265Q84
270 116 283Q143 294 165 315T188 375V718H45V940H188V1064Q188 1172 196 1256T226 1404T290 1510T397 1581T559 1620T785 1632Q922 1632 1017 1615T1173 1568T1269 1500T1319 1418T1339 1331T1342 1247V1070H816V1364H720V940H1105V718Z" />
<glyph unicode="&#xa4;" glyph-name="currency" horiz-adv-x="1446" d="M286 1286Q346 1312 428 1327T623 1343Q732 1343 813 1328T956 1287L1061 1414L1134 1330L1052 1231Q1104 1189 1132 1137T1173 1028T1188 914T1190 804Q1190 765 1188 713T1170 605T1121
495T1027 398L1134 272L1061 188L929 346Q870 324 795 312T623 299Q524 299 447 312T313 348L179 188L107 272L214 400Q154 443 121 497T73 606T56 713T53 804Q53 856 55 913T70 1026T111 1134T190 1229L107 1330L179 1414L286 1286ZM570 569H671V1069H570V569Z"
/>
<glyph unicode="&#xa5;" glyph-name="yen" horiz-adv-x="1665" d="M425 442V459L381 585H127V728H332L29 1595H543L710 938L883 1595H1396L1095 728H1301V585H1045L997 449V442H1301V299H997V0H425V299H127V442H425Z" />
<glyph unicode="&#xa6;" glyph-name="brokenbar" horiz-adv-x="864" d="M668 656V-255H94V656H668ZM668 1708V797H94V1708H668Z" />
<glyph unicode="&#xa7;" glyph-name="section" horiz-adv-x="1401" d="M66 1331Q66 1395 72 1452T98 1559T155 1647T253 1714T405 1757T622 1772Q744 1772 830 1760T975 1724T1067 1669T1118 1596T1141 1510T1146 1412Q1146 1386 1146 1360T1145 1307H646V1498H580V1249Q588
1240 617 1237T688 1232T781 1228T884 1216T985 1190T1072 1142T1133 1064T1156 950Q1156 895 1143 855T1109 785T1064 737T1019 707T982 691T965 686Q967 685 981 680T1014 662T1056 628T1097 576T1128 501T1141 402Q1141 338 1135 281T1109 174T1053 86T954 19T802
-24T586 -39Q464 -39 378 -27T233 9T141 64T90 137T67 223T62 321Q62 347 62 373T63 426H561V235H627V484Q621 493 585 493Q552 493 503 489T396 484Q356 484 315 488T235 504T164 537T105 591T66 671T51 783Q51 834 63 873T94 942T135 990T176 1022T209 1039T225
1046Q222 1047 197 1061T143 1109T90 1196T66 1331ZM635 750V973H573V750H635Z" />
<glyph unicode="&#xa8;" glyph-name="dieresis" horiz-adv-x="774" d="M198 418V82H-209V418H198ZM816 418V82H409V418H816Z" />
<glyph unicode="&#xa9;" glyph-name="copyright" horiz-adv-x="1911" d="M819 -102Q673 -102 563 -82T372 -27T235 54T144 152T89 258T62 364T52 460T51 539V1116Q51 1160 54 1224T77 1358T144 1498T275 1624T492 1714T819 1749Q964 1749 1074 1729T1266 1675T1402
1596T1493 1499T1548 1394T1575 1289T1585 1194T1586 1116V539Q1586 506 1585 461T1576 364T1548 259T1494 152T1403 54T1266 -26T1075 -81T819 -102ZM819 69Q950 69 1041 88T1194 140T1291 215T1343 304T1365 396T1370 482V1165Q1370 1205 1366 1250T1344 1341T1291
1428T1195 1502T1042 1554T819 1573Q688 1573 596 1554T443 1503T347 1428T295 1341T273 1250T268 1165Q268 1151 269 1138T269 1113V534Q269 522 269 509T268 482Q268 442 272 396T294 304T347 216T443 141T596 89T819 69ZM768 375H839V752H1189V485Q1189 457
1187 427T1174 366T1140 309T1072 261T961 228T795 215Q702 215 638 227T531 261T465 309T431 367T418 429T416 489V1159Q416 1188 418 1219T431 1281T465 1339T530 1388T637 1421T795 1434Q893 1434 960 1422T1072 1389T1139 1341T1174 1283T1187 1222T1189 1163V915H839V1274H768V375Z"
/>
<glyph unicode="&#xaa;" glyph-name="ordfeminine" horiz-adv-x="1487" d="M854 289L809 456Q783 405 743 367T654 304T550 266T439 253Q324 253 247 287T123 378T57 507T37 657Q37 736 60 812T141 949T296 1047T542 1084Q593 1084 652 1081T770 1071V1349H534V1182L140
1183Q129 1222 122 1260T115 1333Q115 1393 140 1447T228 1543T396 1608T663 1632Q808 1632 909 1614T1077 1566T1182 1497T1239 1414T1262 1326T1267 1241V546Q1267 498 1273 453T1288 371Q1298 328 1310 289H854ZM534 891V526H770V891H534Z" />
<glyph unicode="&#xab;" glyph-name="guillemotleft" horiz-adv-x="1870" d="M43 1098L750 1597V1092L292 797L750 504V0L43 489V1098ZM825 1098L1532 1597V1092L1074 797L1532 504V0L825 489V1098Z" />
<glyph unicode="&#xac;" glyph-name="logicalnot" horiz-adv-x="1313" d="M1044 278H837V641H53V1317H1044V278Z" />
<glyph unicode="&#xad;" glyph-name="uni00AD" horiz-adv-x="1006" d="M812 897V461H59V897H812Z" />
<glyph unicode="&#xae;" glyph-name="registered" horiz-adv-x="1911" d="M819 -102Q673 -102 563 -82T372 -27T235 54T144 152T89 258T62 364T52 460T51 539V1116Q51 1160 54 1224T77 1358T144 1498T275 1624T492 1714T819 1749Q964 1749 1074 1729T1266 1675T1402
1596T1493 1499T1548 1394T1575 1289T1585 1194T1586 1116V539Q1586 506 1585 461T1576 364T1548 259T1494 152T1403 54T1266 -26T1075 -81T819 -102ZM861 756H786V279H434V1434H813Q911 1434 978 1422T1090 1389T1157 1341T1192 1283T1205 1222T1207 1163V1010Q1207
963 1193 933T1158 885T1113 857T1067 842Q1092 839 1118 829T1167 797T1205 737T1220 643L1222 279H861V756ZM786 915H861V1274H786V915ZM819 69Q950 69 1041 88T1194 140T1291 215T1343 304T1365 396T1370 482V1165Q1370 1205 1366 1250T1344 1341T1291 1428T1195
1502T1042 1554T819 1573Q688 1573 596 1554T443 1503T347 1428T295 1341T273 1250T268 1165Q268 1151 269 1138T269 1113V534Q269 522 269 509T268 482Q268 442 272 396T294 304T347 216T443 141T596 89T819 69Z" />
<glyph unicode="&#xaf;" glyph-name="overscore" horiz-adv-x="774" d="M777 418V82H-147V418H777Z" />
<glyph unicode="&#xb0;" glyph-name="degree" horiz-adv-x="752" d="M355 1661Q427 1661 486 1638T587 1576T653 1485T677 1372Q677 1311 654 1258T588 1166T486 1104T355 1081Q284 1081 226 1103T125 1165T59 1258T35 1372Q35 1432 58 1484T124 1576T225 1638T355
1661ZM357 1483Q305 1483 277 1452T248 1374Q248 1329 276 1297T357 1264Q411 1264 438 1296T466 1374Q466 1420 439 1451T357 1483Z" />
<glyph unicode="&#xb1;" glyph-name="plusminus" horiz-adv-x="1339" d="M352 1394V1801H798V1394H1109V911H798V503H352V911H41V1394H352ZM946 435V-1H193V435H946Z" />
<glyph unicode="&#xb2;" glyph-name="uni00B2" horiz-adv-x="1167" d="M63 851Q63 920 68 980T88 1091T133 1182T212 1249T333 1291T505 1306Q653 1306 743 1276T883 1191T948 1060T964 890Q964 777 943 701T886 574T805 494T714 445T622 411T542 376T485 324T463
240H921V0H63V242Q63 366 84 454T138 602T215 698T304 756T393 786T470 802T525 815T546 838V1086H463V851H63Z" />
<glyph unicode="&#xb3;" glyph-name="uni00B3" horiz-adv-x="1194" d="M55 820Q55 900 60 967T83 1089T131 1185T212 1253T336 1294T511 1308Q613 1308 686 1293T811 1251T893 1186T941 1102T964 1003T970 894Q970 822 955 777T921 704Q899 672 872 656Q899 641
921 610Q939 584 954 538T970 418Q970 360 965 304T942 198T893 106T811 34T687 -13T511 -30Q410 -30 337 -15T213 30T131 104T83 206T61 335T55 492L455 491V189H553V566H391V746H553V1091H455V820H55Z" />
<glyph unicode="&#xb4;" glyph-name="acute" horiz-adv-x="1706" d="M1363 266L537 41L467 246L1153 809L1363 266Z" />
<glyph unicode="&#xb5;" glyph-name="uni00B5" horiz-adv-x="1491" d="M74 -114V1300H595V231H696V1300H1212V0H762L735 76Q722 56 705 42T669 16T630 -2T591 -16V-345H140L74 -114Z" />
<glyph unicode="&#xb6;" glyph-name="paragraph" horiz-adv-x="1370" d="M520 659Q382 659 289 692T140 785T61 927T37 1107Q37 1217 59 1308T144 1464T318 1564T609 1600H1092V0H856V658H757V0H520V659Z" />
<glyph unicode="&#xb7;" glyph-name="middot" horiz-adv-x="698" d="M538 655H80V1122H538V655Z" />
<glyph unicode="&#xb8;" glyph-name="cedilla" horiz-adv-x="1456" d="M533 8H797V-106Q879 -106 936 -118T1032 -150T1091 -197T1123 -252T1135 -310T1138 -366V-522Q1138 -548 1136 -578T1122 -636T1087 -691T1022 -738T917 -770T762 -782Q670 -782 606 -770T500
-738T435 -692T401 -637T388 -579T385 -522V-415L729 -352V-602H797V-288H533V8Z" />
<glyph unicode="&#xb9;" glyph-name="uni00B9" horiz-adv-x="834" d="M622 1276V0H162V1081H25V1276H622Z" />
<glyph unicode="&#xba;" glyph-name="ordmasculine" horiz-adv-x="1487" d="M558 237H794V1060H558V237ZM682 -39Q532 -39 428 -21T254 27T147 97T89 180T66 267T61 352V952Q61 992 65 1036T89 1124T146 1207T254 1277T427 1325T682 1343Q831 1343 934 1325T1105
1277T1210 1208T1266 1125T1287 1037T1291 952V352Q1291 312 1288 268T1266 180T1211 97T1106 27T935 -21T682 -39Z" />
<glyph unicode="&#xbb;" glyph-name="guillemotright" horiz-adv-x="1870" d="M1563 1098L856 1597V1092L1314 797L856 504V0L1563 489V1098ZM781 1098L74 1597V1092L532 797L74 504V0L781 489V1098Z" />
<glyph unicode="&#xbc;" glyph-name="onequarter" horiz-adv-x="2900" d="M632 1611V335H172V1416H35V1611H632ZM956 1595L638 0H1212L1530 1595H956ZM2414 -1H1980V193H1477V525L1643 1275H2069L1904 525V481H1980V749H2414V-1Z" />
<glyph unicode="&#xbd;" glyph-name="onehalf" horiz-adv-x="2908" d="M952 1595L634 0H1208L1526 1595H952ZM1541 851Q1541 920 1546 980T1566 1091T1611 1182T1690 1249T1811 1291T1983 1306Q2131 1306 2221 1276T2361 1191T2426 1060T2442 890Q2442 777 2421
701T2364 574T2283 494T2192 445T2100 411T2020 376T1963 324T1941 240H2399V0H1541V242Q1541 366 1562 454T1616 602T1693 698T1782 756T1871 786T1948 802T2003 815T2024 838V1086H1941V851H1541ZM632 1605V329H172V1410H35V1605H632Z" />
<glyph unicode="&#xbe;" glyph-name="threequarters" horiz-adv-x="3181" d="M46 1141Q46 1221 51 1288T74 1410T122 1506T203 1574T327 1615T502 1629Q604 1629 677 1614T802 1572T884 1507T932 1423T955 1324T961 1215Q961 1143 946 1098T912 1025Q890 993 863
977Q890 962 912 931Q930 905 945 859T961 739Q961 681 956 625T933 519T884 427T802 355T678 308T502 291Q401 291 328 306T204 351T122 425T74 527T52 656T46 813L446 812V510H544V887H382V1067H544V1412H446V1141H46ZM1229 1595L911 0H1485L1803 1595H1229ZM2669
-108H2235V86H1732V418L1898 1168H2324L2159 418V374H2235V642H2669V-108Z" />
<glyph unicode="&#xbf;" glyph-name="questiondown" horiz-adv-x="1436" d="M998 1131Q998 1020 980 940T931 801T863 706T785 644T707 605T639 579T591 557T573 527L569 229H669V523H1194V346Q1194 306 1191 262T1172 175T1122 94T1026 26T870 -21T637 -39Q506
-39 411 -27T250 12T143 82T80 189T49 336T41 529Q41 645 71 720T146 842T244 913T342 953T418 979T448 1010V1131H998ZM996 1196H448V1593H996V1196Z" />
<glyph unicode="&#xc0;" glyph-name="Agrave" horiz-adv-x="1606" d="M554 393L513 0H-2L254 1595H1112L1368 0H851L812 393H554ZM580 572H786L682 1361L580 572ZM516 2447L1203 1884L1133 1679L308 1904L516 2447Z" />
<glyph unicode="&#xc1;" glyph-name="Aacute" horiz-adv-x="1606" d="M554 393L513 0H-2L254 1595H1112L1368 0H851L812 393H554ZM580 572H786L682 1361L580 572ZM1288 1904L462 1679L392 1884L1078 2447L1288 1904Z" />
<glyph unicode="&#xc2;" glyph-name="Acircumflex" horiz-adv-x="1606" d="M554 393L513 0H-2L254 1595H1112L1368 0H851L812 393H554ZM580 572H786L682 1361L580 572ZM1007 2314L1263 1699H828L748 2019L672 1699H238L484 2314H1007Z" />
<glyph unicode="&#xc3;" glyph-name="Atilde" horiz-adv-x="1606" d="M556 393L515 0H0L256 1595H1114L1370 0H853L814 393H556ZM582 572H788L684 1361L582 572ZM790 1875Q765 1875 744 1861T698 1826T644 1780T576 1734T486 1699T365 1685Q276 1685 208 1711T93
1805T22 1991T-2 2296H266Q266 2263 271 2233T288 2179T319 2142T367 2128Q392 2128 415 2142T465 2178T522 2224T591 2271T679 2306T790 2321Q879 2321 948 2296T1063 2202T1134 2016T1158 1711H889Q889 1739 884 1768T868 1821T837 1860T790 1875Z" />
<glyph unicode="&#xc4;" glyph-name="Adieresis" horiz-adv-x="1606" d="M554 393L513 0H-2L254 1595H1112L1368 0H851L812 393H554ZM580 572H786L682 1361L580 572ZM492 2056V1720H85V2056H492ZM1110 2056V1720H703V2056H1110Z" />
<glyph unicode="&#xc5;" glyph-name="Aring" horiz-adv-x="1606" d="M554 393L513 0H-2L254 1595H1112L1368 0H851L812 393H554ZM580 572H786L682 1361L580 572ZM700 1779Q633 1779 574 1802T472 1864T403 1955T378 2068Q378 2129 403 2182T471 2274T574 2336T700
2359Q766 2359 824 2337T925 2275T994 2182T1020 2068Q1020 2008 995 1956T926 1864T824 1802T700 1779ZM698 1957Q720 1957 740 1965T775 1988T798 2023T807 2066Q807 2088 799 2108T775 2143T740 2167T698 2176Q675 2176 656 2167T621 2143T598 2108T589 2066Q589
2043 597 2023T621 1989T655 1966T698 1957Z" />
<glyph unicode="&#xc6;" glyph-name="AE" horiz-adv-x="2081" d="M635 348L535 0H-31L544 1595H976V0H828V348H635ZM701 578H828V1001L701 578ZM1668 1595V1354H1359V961H1647V711H1359V244H1668V0H841V1595H1668Z" />
<glyph unicode="&#xc7;" glyph-name="Ccedilla" horiz-adv-x="1630" d="M813 1358H577V237H813V686H1310V371Q1310 331 1306 285T1282 194T1223 106T1116 32T945 -19T695 -39Q549 -39 447 -20T277 32T169 106T110 193T85 285T80 371V1227Q80 1267 85 1312T109
1403T168 1489T276 1562T445 1613T692 1632Q840 1632 943 1613T1115 1563T1223 1490T1281 1403T1305 1313T1310 1227V909H813V1358ZM595 8H859V-106Q941 -106 998 -118T1094 -150T1153 -197T1185 -252T1197 -310T1200 -366V-522Q1200 -548 1198 -578T1184 -636T1149
-691T1084 -738T979 -770T824 -782Q732 -782 668 -770T562 -738T497 -692T463 -637T450 -579T447 -522V-415L791 -352V-602H859V-288H595V8Z" />
<glyph unicode="&#xc8;" glyph-name="Egrave" horiz-adv-x="1198" d="M1147 1595V1358H838V961H1126V711H838V237H1147V0H341V1595H1147ZM356 2447L1043 1884L973 1679L148 1904L356 2447Z" />
<glyph unicode="&#xc9;" glyph-name="Eacute" horiz-adv-x="1198" d="M902 1595V1358H593V961H881V711H593V237H902V0H96V1595H902ZM1139 1904L313 1679L243 1884L929 2447L1139 1904Z" />
<glyph unicode="&#xca;" glyph-name="Ecircumflex" horiz-adv-x="1198" d="M1082 1595V1358H773V961H1061V711H773V237H1082V0H276V1595H1082ZM782 2314L1038 1699H603L523 2019L447 1699H13L259 2314H782Z" />
<glyph unicode="&#xcb;" glyph-name="Edieresis" horiz-adv-x="1198" d="M990 1595V1358H681V961H969V711H681V237H990V0H184V1595H990ZM430 2056V1720H23V2056H430ZM1048 2056V1720H641V2056H1048Z" />
<glyph unicode="&#xcc;" glyph-name="Igrave" horiz-adv-x="870" d="M747 1595V0H250V1595H747ZM111 2447L798 1884L728 1679L-97 1904L111 2447Z" />
<glyph unicode="&#xcd;" glyph-name="Iacute" horiz-adv-x="870" d="M746 1595V0H249V1595H746ZM881 1904L55 1679L-15 1884L671 2447L881 1904Z" />
<glyph unicode="&#xce;" glyph-name="Icircumflex" horiz-adv-x="870" d="M747 1595V0H250V1595H747ZM602 2314L858 1699H423L343 2019L267 1699H-167L79 2314H602Z" />
<glyph unicode="&#xcf;" glyph-name="Idieresis" horiz-adv-x="870" d="M653 1595V0H156V1595H653ZM249 2056V1720H-158V2056H249ZM867 2056V1720H460V2056H867Z" />
<glyph unicode="&#xd0;" glyph-name="Eth" horiz-adv-x="1710" d="M770 868V726H49V868H770ZM642 237H878V1358H642V237ZM1375 393Q1375 353 1373 309T1355 220T1305 137T1209 67T1052 18T816 0H145V1595H816Q956 1595 1051 1577T1209 1529T1305 1460T1354 1377T1372
1289T1375 1204V393Z" />
<glyph unicode="&#xd1;" glyph-name="Ntilde" horiz-adv-x="1741" d="M906 0L521 711V0H109V1595H563L971 834V1595H1370V0H906ZM888 1900Q863 1900 842 1886T796 1851T742 1805T674 1759T584 1724T463 1710Q374 1710 306 1736T191 1830T120 2016T96 2321H364Q364
2288 369 2258T386 2204T417 2167T465 2153Q490 2153 513 2167T563 2203T620 2249T689 2296T777 2331T888 2346Q977 2346 1046 2321T1161 2227T1232 2041T1256 1736H987Q987 1764 982 1793T966 1846T935 1885T888 1900Z" />
<glyph unicode="&#xd2;" glyph-name="Ograve" horiz-adv-x="1640" d="M577 237H813V1358H577V237ZM688 -39Q543 -39 441 -20T272 32T166 106T108 193T85 285T80 371V1227Q80 1267 84 1312T108 1403T165 1489T271 1562T440 1613T688 1632Q835 1632 938 1613T1111
1563T1220 1490T1280 1403T1305 1313T1310 1227V371Q1310 331 1305 285T1280 194T1220 106T1111 32T939 -19T688 -39ZM505 2447L1192 1884L1122 1679L297 1904L505 2447Z" />
<glyph unicode="&#xd3;" glyph-name="Oacute" horiz-adv-x="1640" d="M577 237H813V1358H577V237ZM688 -39Q543 -39 441 -20T272 32T166 106T108 193T85 285T80 371V1227Q80 1267 84 1312T108 1403T165 1489T271 1562T440 1613T688 1632Q835 1632 938 1613T1111
1563T1220 1490T1280 1403T1305 1313T1310 1227V371Q1310 331 1305 285T1280 194T1220 106T1111 32T939 -19T688 -39ZM1277 1904L451 1679L381 1884L1067 2447L1277 1904Z" />
<glyph unicode="&#xd4;" glyph-name="Ocircumflex" horiz-adv-x="1640" d="M577 237H813V1358H577V237ZM688 -39Q543 -39 441 -20T272 32T166 106T108 193T85 285T80 371V1227Q80 1267 84 1312T108 1403T165 1489T271 1562T440 1613T688 1632Q835 1632 938 1613T1111
1563T1220 1490T1280 1403T1305 1313T1310 1227V371Q1310 331 1305 285T1280 194T1220 106T1111 32T939 -19T688 -39ZM996 2314L1252 1699H817L737 2019L661 1699H227L473 2314H996Z" />
<glyph unicode="&#xd5;" glyph-name="Otilde" horiz-adv-x="1640" d="M650 237H886V1358H650V237ZM761 -39Q616 -39 514 -20T345 32T239 106T181 193T158 285T153 371V1227Q153 1267 157 1312T181 1403T238 1489T344 1562T513 1613T761 1632Q908 1632 1011 1613T1184
1563T1293 1490T1353 1403T1378 1313T1383 1227V371Q1383 331 1378 285T1353 194T1293 106T1184 32T1012 -19T761 -39ZM872 1900Q847 1900 826 1886T780 1851T726 1805T658 1759T568 1724T447 1710Q358 1710 290 1736T175 1830T104 2016T80 2321H348Q348 2288 353
2258T370 2204T401 2167T449 2153Q474 2153 497 2167T547 2203T604 2249T673 2296T761 2331T872 2346Q961 2346 1030 2321T1145 2227T1216 2041T1240 1736H971Q971 1764 966 1793T950 1846T919 1885T872 1900Z" />
<glyph unicode="&#xd6;" glyph-name="Odieresis" horiz-adv-x="1640" d="M583 237H819V1358H583V237ZM694 -39Q549 -39 447 -20T278 32T172 106T114 193T91 285T86 371V1227Q86 1267 90 1312T114 1403T171 1489T277 1562T446 1613T694 1632Q841 1632 944 1613T1117
1563T1226 1490T1286 1403T1311 1313T1316 1227V371Q1316 331 1311 285T1286 194T1226 106T1117 32T945 -19T694 -39ZM487 2056V1720H80V2056H487ZM1105 2056V1720H698V2056H1105Z" />
<glyph unicode="&#xd7;" glyph-name="multiply" horiz-adv-x="1358" d="M1132 924L899 649L1132 375L816 4L584 279L350 4L35 375L269 649L35 924L350 1294L584 1020L816 1294L1132 924Z" />
<glyph unicode="&#xd8;" glyph-name="Oslash" horiz-adv-x="1634" d="M1149 1817L1259 1716L215 -166L99 -70L1149 1817ZM575 237H811V1358H575V237ZM686 -39Q541 -39 439 -20T270 32T164 106T106 193T83 285T78 371V1227Q78 1267 82 1312T106 1403T163 1489T269
1562T438 1613T686 1632Q833 1632 936 1613T1109 1563T1218 1490T1278 1403T1303 1313T1308 1227V371Q1308 331 1303 285T1278 194T1218 106T1109 32T937 -19T686 -39Z" />
<glyph unicode="&#xd9;" glyph-name="Ugrave" horiz-adv-x="1671" d="M591 237H827V1595H1324V371Q1324 331 1319 285T1294 194T1234 106T1125 32T953 -19T703 -39Q558 -39 456 -20T287 32T181 106T123 193T99 285T94 371V1595H591V237ZM533 2447L1220 1884L1150
1679L325 1904L533 2447Z" />
<glyph unicode="&#xda;" glyph-name="Uacute" horiz-adv-x="1671" d="M591 237H827V1595H1324V371Q1324 331 1319 285T1294 194T1234 106T1125 32T953 -19T703 -39Q558 -39 456 -20T287 32T181 106T123 193T99 285T94 371V1595H591V237ZM1305 1904L479 1679L409
1884L1095 2447L1305 1904Z" />
<glyph unicode="&#xdb;" glyph-name="Ucircumflex" horiz-adv-x="1671" d="M591 237H827V1595H1324V371Q1324 331 1319 285T1294 194T1234 106T1125 32T953 -19T703 -39Q558 -39 456 -20T287 32T181 106T123 193T99 285T94 371V1595H591V237ZM1024 2314L1280 1699H845L765
2019L689 1699H255L501 2314H1024Z" />
<glyph unicode="&#xdc;" glyph-name="Udieresis" horiz-adv-x="1671" d="M591 237H827V1595H1324V371Q1324 331 1319 285T1294 194T1234 106T1125 32T953 -19T703 -39Q558 -39 456 -20T287 32T181 106T123 193T99 285T94 371V1595H591V237ZM508 2056V1720H101V2056H508ZM1126
2056V1720H719V2056H1126Z" />
<glyph unicode="&#xdd;" glyph-name="Yacute" horiz-adv-x="1571" d="M476 1595L643 988L816 1595H1298L894 449V0H397V459L-18 1595H476ZM1251 1904L425 1679L355 1884L1041 2447L1251 1904Z" />
<glyph unicode="&#xde;" glyph-name="Thorn" horiz-adv-x="1599" d="M96 1595H593V1413H764Q906 1413 1003 1395T1162 1347T1258 1278T1307 1195T1324 1107T1326 1022V641Q1326 601 1324 557T1307 469T1259 386T1163 316T1003 268T764 250H593V0H96V1595ZM593
482H829V1182H593V482Z" />
<glyph unicode="&#xdf;" glyph-name="germandbls" horiz-adv-x="1483" d="M524 -205H27V1217Q27 1256 31 1299T55 1385T112 1465T219 1532T391 1578T644 1595Q777 1595 869 1575T1021 1520T1115 1442T1165 1350T1184 1256T1187 1170Q1187 1111 1176 1069T1145
995T1101 944T1051 909Q991 876 915 870Q950 868 988 861T1065 838T1138 799T1199 741T1241 660T1257 553V258Q1257 222 1252 186T1229 118T1175 57T1078 8T926 -25T705 -37H621V194H760V750H648V981H760V1358H524V-205Z" />
<glyph unicode="&#xe0;" glyph-name="agrave" horiz-adv-x="1481" d="M852 0L807 167Q781 116 741 78T652 15T548 -23T437 -36Q322 -36 245 -2T121 89T55 218T35 368Q35 447 58 523T139 660T294 758T540 795Q591 795 650 792T768 782V1060H532V893L138 894Q127
933 120 971T113 1044Q113 1104 138 1158T226 1254T394 1319T661 1343Q806 1343 907 1325T1075 1277T1180 1208T1237 1125T1260 1037T1265 952V257Q1265 209 1271 164T1286 82Q1296 39 1308 0H852ZM532 602V237H768V602H532ZM445 2202L1132 1639L1062 1434L237
1659L445 2202Z" />
<glyph unicode="&#xe1;" glyph-name="aacute" horiz-adv-x="1481" d="M852 0L807 167Q781 116 741 78T652 15T548 -23T437 -36Q322 -36 245 -2T121 89T55 218T35 368Q35 447 58 523T139 660T294 758T540 795Q591 795 650 792T768 782V1060H532V893L138 894Q127
933 120 971T113 1044Q113 1104 138 1158T226 1254T394 1319T661 1343Q806 1343 907 1325T1075 1277T1180 1208T1237 1125T1260 1037T1265 952V257Q1265 209 1271 164T1286 82Q1296 39 1308 0H852ZM532 602V237H768V602H532ZM1216 1659L390 1434L320 1639L1006
2202L1216 1659Z" />
<glyph unicode="&#xe2;" glyph-name="acircumflex" horiz-adv-x="1481" d="M852 0L807 167Q781 116 741 78T652 15T548 -23T437 -36Q322 -36 245 -2T121 89T55 218T35 368Q35 447 58 523T139 660T294 758T540 795Q591 795 650 792T768 782V1060H532V893L138 894Q127
933 120 971T113 1044Q113 1104 138 1158T226 1254T394 1319T661 1343Q806 1343 907 1325T1075 1277T1180 1208T1237 1125T1260 1037T1265 952V257Q1265 209 1271 164T1286 82Q1296 39 1308 0H852ZM532 602V237H768V602H532ZM974 2069L1230 1454H795L715 1774L639
1454H205L451 2069H974Z" />
<glyph unicode="&#xe3;" glyph-name="atilde" horiz-adv-x="1481" d="M897 0L852 167Q826 116 786 78T697 15T593 -23T482 -36Q367 -36 290 -2T166 89T100 218T80 368Q80 447 103 523T184 660T339 758T585 795Q636 795 695 792T813 782V1060H577V893L183 894Q172
933 165 971T158 1044Q158 1104 183 1158T271 1254T439 1319T706 1343Q851 1343 952 1325T1120 1277T1225 1208T1282 1125T1305 1037T1310 952V257Q1310 209 1316 164T1331 82Q1341 39 1353 0H897ZM577 602V237H813V602H577ZM823 1655Q798 1655 777 1641T731 1606T677
1560T609 1514T519 1479T398 1465Q309 1465 241 1491T126 1585T55 1771T31 2076H299Q299 2043 304 2013T321 1959T352 1922T400 1908Q425 1908 448 1922T498 1958T555 2004T624 2051T712 2086T823 2101Q912 2101 981 2076T1096 1982T1167 1796T1191 1491H922Q922
1519 917 1548T901 1601T870 1640T823 1655Z" />
<glyph unicode="&#xe4;" glyph-name="adieresis" horiz-adv-x="1481" d="M852 0L807 167Q781 116 741 78T652 15T548 -23T437 -36Q322 -36 245 -2T121 89T55 218T35 368Q35 447 58 523T139 660T294 758T540 795Q591 795 650 792T768 782V1060H532V893L138 894Q127
933 120 971T113 1044Q113 1104 138 1158T226 1254T394 1319T661 1343Q806 1343 907 1325T1075 1277T1180 1208T1237 1125T1260 1037T1265 952V257Q1265 209 1271 164T1286 82Q1296 39 1308 0H852ZM532 602V237H768V602H532ZM520 1811V1475H113V1811H520ZM1138
1811V1475H731V1811H1138Z" />
<glyph unicode="&#xe5;" glyph-name="aring" horiz-adv-x="1481" d="M852 0L807 167Q781 116 741 78T652 15T548 -23T437 -36Q322 -36 245 -2T121 89T55 218T35 368Q35 447 58 523T139 660T294 758T540 795Q591 795 650 792T768 782V1060H532V893L138 894Q127
933 120 971T113 1044Q113 1104 138 1158T226 1254T394 1319T661 1343Q806 1343 907 1325T1075 1277T1180 1208T1237 1125T1260 1037T1265 952V257Q1265 209 1271 164T1286 82Q1296 39 1308 0H852ZM532 602V237H768V602H532ZM688 1534Q621 1534 562 1557T460 1619T391
1710T366 1823Q366 1884 391 1937T459 2029T562 2091T688 2114Q754 2114 812 2092T913 2030T982 1937T1008 1823Q1008 1763 983 1711T914 1619T812 1557T688 1534ZM686 1712Q708 1712 728 1720T763 1743T786 1778T795 1821Q795 1843 787 1863T763 1898T728 1922T686
1931Q663 1931 644 1922T609 1898T586 1863T577 1821Q577 1798 585 1778T609 1744T643 1721T686 1712Z" />
<glyph unicode="&#xe6;" glyph-name="ae" horiz-adv-x="2191" d="M1890 451Q1890 380 1886 317T1863 199T1807 101T1705 28T1540 -19T1299 -36Q1229 -36 1169 -20T1064 17Q1012 40 969 70Q829 13 712 -11T498 -36Q379 -36 291 -3T145 86T59 215T31 368Q31 447
53 523T131 660T284 758T528 795Q572 795 619 792T717 782V1029H520V893L126 894Q115 933 108 971T101 1044Q101 1104 125 1158T210 1254T372 1319T629 1343Q718 1343 781 1331T885 1303Q933 1285 964 1263Q1000 1285 1049 1303Q1091 1318 1153 1330T1299 1343Q1440
1343 1539 1325T1704 1277T1807 1208T1863 1125T1886 1038T1891 954V579H1214V278H1394V450L1890 451ZM520 602V278H717V329V602H520ZM1214 757H1394V1029H1214V757Z" />
<glyph unicode="&#xe7;" glyph-name="ccedilla" horiz-adv-x="1483" d="M1293 451V354Q1293 315 1290 271T1270 183T1216 100T1110 30T935 -19T675 -37Q525 -37 422 -19T250 29T144 99T88 182T67 269T63 354V954Q63 994 66 1038T88 1125T144 1207T250 1277T421
1325T675 1343Q821 1343 923 1327T1094 1283T1203 1219T1263 1142T1288 1059T1293 978V855H796V1060H560V237H796V451H1293ZM579 8H843V-106Q925 -106 982 -118T1078 -150T1137 -197T1169 -252T1181 -310T1184 -366V-522Q1184 -548 1182 -578T1168 -636T1133 -691T1068
-738T963 -770T808 -782Q716 -782 652 -770T546 -738T481 -692T447 -637T434 -579T431 -522V-415L775 -352V-602H843V-288H579V8Z" />
<glyph unicode="&#xe8;" glyph-name="egrave" horiz-adv-x="1481" d="M1290 451Q1290 380 1285 317T1261 199T1202 101T1094 28T923 -19T673 -36Q523 -36 420 -18T248 30T142 99T86 182T65 270T61 354V954Q61 994 64 1038T86 1125T142 1207T248 1277T419 1325T673
1343Q819 1343 922 1325T1093 1277T1201 1208T1261 1125T1286 1038T1291 954V579H558V237H794V450L1290 451ZM558 757H794V1060H558V757ZM469 2202L1156 1639L1086 1434L261 1659L469 2202Z" />
<glyph unicode="&#xe9;" glyph-name="eacute" horiz-adv-x="1481" d="M1290 451Q1290 380 1285 317T1261 199T1202 101T1094 28T923 -19T673 -36Q523 -36 420 -18T248 30T142 99T86 182T65 270T61 354V954Q61 994 64 1038T86 1125T142 1207T248 1277T419 1325T673
1343Q819 1343 922 1325T1093 1277T1201 1208T1261 1125T1286 1038T1291 954V579H558V237H794V450L1290 451ZM558 757H794V1060H558V757ZM1241 1659L415 1434L345 1639L1031 2202L1241 1659Z" />
<glyph unicode="&#xea;" glyph-name="ecircumflex" horiz-adv-x="1481" d="M1290 451Q1290 380 1285 317T1261 199T1202 101T1094 28T923 -19T673 -36Q523 -36 420 -18T248 30T142 99T86 182T65 270T61 354V954Q61 994 64 1038T86 1125T142 1207T248 1277T419
1325T673 1343Q819 1343 922 1325T1093 1277T1201 1208T1261 1125T1286 1038T1291 954V579H558V237H794V450L1290 451ZM558 757H794V1060H558V757ZM960 2069L1216 1454H781L701 1774L625 1454H191L437 2069H960Z" />
<glyph unicode="&#xeb;" glyph-name="edieresis" horiz-adv-x="1481" d="M1313 451Q1313 380 1308 317T1284 199T1225 101T1117 28T946 -19T696 -36Q546 -36 443 -18T271 30T165 99T109 182T88 270T84 354V954Q84 994 87 1038T109 1125T165 1207T271 1277T442
1325T696 1343Q842 1343 945 1325T1116 1277T1224 1208T1284 1125T1309 1038T1314 954V579H581V237H817V450L1313 451ZM581 757H817V1060H581V757ZM468 1811V1475H61V1811H468ZM1086 1811V1475H679V1811H1086Z" />
<glyph unicode="&#xec;" glyph-name="igrave" horiz-adv-x="766" d="M848 0H334V1298H848V0ZM59 2202L746 1639L676 1434L-149 1659L59 2202Z" />
<glyph unicode="&#xed;" glyph-name="iacute" horiz-adv-x="768" d="M754 0H240V1298H754V0ZM831 1659L5 1434L-65 1639L621 2202L831 1659Z" />
<glyph unicode="&#xee;" glyph-name="icircumflex" horiz-adv-x="768" d="M792 0H278V1298H792V0ZM553 2069L809 1454H374L294 1774L218 1454H-216L30 2069H553Z" />
<glyph unicode="&#xef;" glyph-name="idieresis" horiz-adv-x="766" d="M626 0H112V1298H626V0ZM198 1811V1475H-209V1811H198ZM816 1811V1475H409V1811H816Z" />
<glyph unicode="&#xf0;" glyph-name="eth" horiz-adv-x="1427" d="M425 1415Q387 1444 351 1468T287 1510Q254 1530 226 1546L429 1887Q476 1866 531 1835Q578 1809 637 1769T763 1672L951 1815L1015 1692L863 1576Q925 1511 981 1431T1081 1256T1150 1048T1176
806Q1176 653 1169 531T1141 315T1081 154T979 45T825 -18T608 -38Q480 -38 388 -21T232 28T129 109T69 219T40 358T33 523Q33 604 38 678T61 816T112 931T200 1019T337 1076T531 1096H658Q658 1125 648 1154T621 1212T581 1269T531 1323L303 1150L240 1274L425
1415ZM656 826H546V236H656V826Z" />
<glyph unicode="&#xf1;" glyph-name="ntilde" horiz-adv-x="1520" d="M181 0V1300H592L638 1133Q664 1185 706 1224T800 1290T911 1330T1031 1344Q1102 1344 1170 1321T1292 1252T1378 1134T1411 968V0H914V1060H678V0H181ZM872 1655Q847 1655 826 1641T780 1606T726
1560T658 1514T568 1479T447 1465Q358 1465 290 1491T175 1585T104 1771T80 2076H348Q348 2043 353 2013T370 1959T401 1922T449 1908Q474 1908 497 1922T547 1958T604 2004T673 2051T761 2086T872 2101Q961 2101 1030 2076T1145 1982T1216 1796T1240 1491H971Q971
1519 966 1548T950 1601T919 1640T872 1655Z" />
<glyph unicode="&#xf2;" glyph-name="ograve" horiz-adv-x="1487" d="M558 237H794V1060H558V237ZM682 -39Q532 -39 428 -21T254 27T147 97T89 180T66 267T61 352V952Q61 992 65 1036T89 1124T146 1207T254 1277T427 1325T682 1343Q831 1343 934 1325T1105 1277T1210
1208T1266 1125T1287 1037T1291 952V352Q1291 312 1288 268T1266 180T1211 97T1106 27T935 -21T682 -39ZM470 2202L1157 1639L1087 1434L262 1659L470 2202Z" />
<glyph unicode="&#xf3;" glyph-name="oacute" horiz-adv-x="1487" d="M558 237H794V1060H558V237ZM682 -39Q532 -39 428 -21T254 27T147 97T89 180T66 267T61 352V952Q61 992 65 1036T89 1124T146 1207T254 1277T427 1325T682 1343Q831 1343 934 1325T1105 1277T1210
1208T1266 1125T1287 1037T1291 952V352Q1291 312 1288 268T1266 180T1211 97T1106 27T935 -21T682 -39ZM1242 1659L416 1434L346 1639L1032 2202L1242 1659Z" />
<glyph unicode="&#xf4;" glyph-name="ocircumflex" horiz-adv-x="1487" d="M558 237H794V1060H558V237ZM682 -39Q532 -39 428 -21T254 27T147 97T89 180T66 267T61 352V952Q61 992 65 1036T89 1124T146 1207T254 1277T427 1325T682 1343Q831 1343 934 1325T1105
1277T1210 1208T1266 1125T1287 1037T1291 952V352Q1291 312 1288 268T1266 180T1211 97T1106 27T935 -21T682 -39ZM961 2069L1217 1454H782L702 1774L626 1454H192L438 2069H961Z" />
<glyph unicode="&#xf5;" glyph-name="otilde" horiz-adv-x="1487" d="M647 237H883V1060H647V237ZM771 -39Q621 -39 517 -21T343 27T236 97T178 180T155 267T150 352V952Q150 992 154 1036T178 1124T235 1207T343 1277T516 1325T771 1343Q920 1343 1023 1325T1194
1277T1299 1208T1355 1125T1376 1037T1380 952V352Q1380 312 1377 268T1355 180T1300 97T1195 27T1024 -21T771 -39ZM853 1655Q828 1655 807 1641T761 1606T707 1560T639 1514T549 1479T428 1465Q339 1465 271 1491T156 1585T85 1771T61 2076H329Q329 2043 334
2013T351 1959T382 1922T430 1908Q455 1908 478 1922T528 1958T585 2004T654 2051T742 2086T853 2101Q942 2101 1011 2076T1126 1982T1197 1796T1221 1491H952Q952 1519 947 1548T931 1601T900 1640T853 1655Z" />
<glyph unicode="&#xf6;" glyph-name="odieresis" horiz-adv-x="1487" d="M580 237H816V1060H580V237ZM704 -39Q554 -39 450 -21T276 27T169 97T111 180T88 267T83 352V952Q83 992 87 1036T111 1124T168 1207T276 1277T449 1325T704 1343Q853 1343 956 1325T1127
1277T1232 1208T1288 1125T1309 1037T1313 952V352Q1313 312 1310 268T1288 180T1233 97T1128 27T957 -21T704 -39ZM468 1811V1475H61V1811H468ZM1086 1811V1475H679V1811H1086Z" />
<glyph unicode="&#xf7;" glyph-name="divide" horiz-adv-x="1313" d="M792 92H334V559H792V92ZM792 1000H334V1497H792V1000ZM1089 908V670H39V908H1089Z" />
<glyph unicode="&#xf8;" glyph-name="oslash" horiz-adv-x="1487" d="M659 -39Q543 -39 456 -28T305 4L215 -131L99 -53L178 65Q136 96 112 132T76 205T62 280T59 352V952Q59 992 63 1036T85 1124T141 1207T245 1277T413 1325T659 1343Q774 1343 859 1332T1008
1300L1097 1432L1206 1350L1132 1240Q1174 1209 1198 1173T1233 1100T1247 1024T1250 952V352Q1250 312 1247 268T1225 180T1171 97T1069 27T903 -21T659 -39ZM556 627L753 920V1029H556V627ZM753 278V673L556 379V278H753Z" />
<glyph unicode="&#xf9;" glyph-name="ugrave" horiz-adv-x="1520" d="M1308 1300V0H897L851 167Q825 115 783 76T689 10T578 -30T458 -44Q387 -44 319 -21T197 48T111 166T78 332V1300H575V237H811V1300H1308ZM470 2202L1157 1639L1087 1434L262 1659L470 2202Z" />
<glyph unicode="&#xfa;" glyph-name="uacute" horiz-adv-x="1520" d="M1308 1300V0H897L851 167Q825 115 783 76T689 10T578 -30T458 -44Q387 -44 319 -21T197 48T111 166T78 332V1300H575V237H811V1300H1308ZM1241 1659L415 1434L345 1639L1031 2202L1241 1659Z" />
<glyph unicode="&#xfb;" glyph-name="ucircumflex" horiz-adv-x="1520" d="M1308 1300V0H897L851 167Q825 115 783 76T689 10T578 -30T458 -44Q387 -44 319 -21T197 48T111 166T78 332V1300H575V237H811V1300H1308ZM961 2069L1217 1454H782L702 1774L626 1454H192L438
2069H961Z" />
<glyph unicode="&#xfc;" glyph-name="udieresis" horiz-adv-x="1520" d="M1348 1300V0H937L891 167Q865 115 823 76T729 10T618 -30T498 -44Q427 -44 359 -21T237 48T151 166T118 332V1300H615V237H851V1300H1348ZM485 1811V1475H78V1811H485ZM1103 1811V1475H696V1811H1103Z"
/>
<glyph unicode="&#xfd;" glyph-name="yacute" horiz-adv-x="1520" d="M575 237H811V1300H1308V58Q1308 -59 1284 -152T1216 -318T1113 -441T986 -524T842 -572T691 -587Q623 -587 558 -575T433 -541T323 -486T236 -415T179 -329T158 -232Q158 -210 162 -187T175
-141L678 -171V-235H812V101Q781 66 740 39T653 -6T555 -34T453 -44Q382 -44 315 -21T195 50T110 171T78 345V1300H575V237ZM1241 1659L415 1434L345 1639L1031 2202L1241 1659Z" />
<glyph unicode="&#xfe;" glyph-name="thorn" horiz-adv-x="1483" d="M596 1602V1225Q603 1240 615 1257T654 1289T726 1313T844 1323Q937 1323 1001 1304T1107 1252T1171 1176T1204 1087T1216 995T1218 909V391Q1218 352 1217 306T1205 213T1172 125T1108 49T1002
-3T844 -23Q770 -23 727 -13T658 12T620 44T596 78V-409H80V1602H596ZM596 231H699V1069H596V231Z" />
<glyph unicode="&#xff;" glyph-name="ydieresis" horiz-adv-x="1520" d="M575 237H811V1300H1308V58Q1308 -59 1284 -152T1216 -318T1113 -441T986 -524T842 -572T691 -587Q623 -587 558 -575T433 -541T323 -486T236 -415T179 -329T158 -232Q158 -210 162 -187T175
-141L678 -171V-235H812V101Q781 66 740 39T653 -6T555 -34T453 -44Q382 -44 315 -21T195 50T110 171T78 345V1300H575V237ZM506 1811V1475H99V1811H506ZM1124 1811V1475H717V1811H1124Z" />
<glyph unicode="&#x2013;" glyph-name="endash" horiz-adv-x="1006" d="M812 897V461H59V897H812Z" />
<glyph unicode="&#x2014;" glyph-name="emdash" horiz-adv-x="1911" d="M1583 897V461H59V897H1583Z" />
<glyph unicode="&#x2018;" glyph-name="quoteleft" horiz-adv-x="711" d="M535 1436Q482 1424 441 1401Q423 1391 407 1379T377 1350T356 1313T348 1268H558V781H66V1118Q66 1270 98 1369T190 1528T338 1611T535 1635V1436Z" />
<glyph unicode="&#x2019;" glyph-name="quoteright" horiz-adv-x="696" d="M90 948Q142 960 183 983Q201 993 217 1005T247 1034T269 1071T277 1116H66V1603H558V1266Q558 1114 526 1015T434 856T287 773T90 749V948Z" />
<glyph unicode="&#x201a;" glyph-name="quotesinglbase" horiz-adv-x="635" d="M420 -406H132L47 400H505L420 -406Z" />
<glyph unicode="&#x201c;" glyph-name="quotedblleft" horiz-adv-x="1366" d="M535 1436Q482 1424 441 1401Q423 1391 407 1379T377 1350T356 1313T348 1268H558V781H66V1118Q66 1270 98 1369T190 1528T338 1611T535 1635V1436ZM1092 1436Q1039 1424 998 1401Q980
1391 964 1379T934 1350T913 1313T905 1268H1117V781H623V1118Q623 1270 655 1369T748 1528T895 1611T1092 1635V1436Z" />
<glyph unicode="&#x201d;" glyph-name="quotedblright" horiz-adv-x="1358" d="M90 948Q142 960 183 983Q201 993 217 1005T247 1034T269 1071T277 1116H66V1603H558V1266Q558 1114 526 1015T434 856T287 773T90 749V948ZM651 948Q703 960 744 983Q762 993 778
1005T808 1034T830 1071T838 1116H627V1603H1119V1266Q1119 1114 1087 1015T995 856T848 773T651 749V948Z" />
<glyph unicode="&#x201e;" glyph-name="quotedblbase" horiz-adv-x="1255" d="M420 -507H132L47 299H505L420 -507ZM948 -507H660L575 299H1033L948 -507Z" />
<glyph unicode="&#x2022;" glyph-name="bullet" horiz-adv-x="1155" d="M945 726Q945 584 923 486T864 325T781 228T687 177T594 159T515 156Q468 156 416 159T312 178T215 228T134 326T78 487T57 726Q57 867 78 964T134 1124T215 1221T312 1272T415 1291T515
1294Q549 1294 594 1292T686 1273T780 1223T863 1126T922 966T945 726Z" />
<glyph unicode="&#x2039;" glyph-name="guilsinglleft" horiz-adv-x="1051" d="M43 1098L835 1595V1090L292 797L835 504V0L43 489V1098Z" />
<glyph unicode="&#x203a;" glyph-name="guilsinglright" horiz-adv-x="1051" d="M867 489L74 0V504L617 797L74 1092V1597L867 1098V489Z" />
</font>
</defs>
</svg>
