<?xml version="1.0" standalone="no"?>
<!DOCTYPE svg PUBLIC "-//W3C//DTD SVG 1.1//EN" "http://www.w3.org/Graphics/SVG/1.1/DTD/svg11.dtd">
<svg xmlns="http://www.w3.org/2000/svg">
<defs >
<font id="Tinos" horiz-adv-x="1092" ><font-face
    font-family="Tinos"
    units-per-em="2048"
    panose-1="2 2 5 3 5 4 5 9 3 4"
    ascent="1825"
    descent="-443"
    alphabetic="0" />
<glyph unicode=" " glyph-name="space" horiz-adv-x="512" />
<glyph unicode="!" glyph-name="exclam" horiz-adv-x="682" d="M400 92Q400 43 366 7T279 -29Q227 -29 193 7T158 92Q158 143 193 178T279 213Q330 213 365 178T400 92ZM374 1341H592L363 389H269L374 1341Z" />
<glyph unicode="&quot;" glyph-name="quotedbl" horiz-adv-x="860" d="M670 1341H867L720 860H646L670 1341ZM285 1341H482L335 860H261L285 1341Z" />
<glyph unicode="#" glyph-name="numbersign" horiz-adv-x="1024" d="M984 524L966 421H706L553 0H449L602 421H292L140 0H35L188 421H17L34 524H226L338 831H88L106 934H374L522 1341H626L479 934H788L936 1341H1040L892 934H1056L1038 831H856L745 524H984ZM331
524H640L751 831H442L331 524Z" />
<glyph unicode="$" glyph-name="dollar" horiz-adv-x="1024" d="M76 371H141L142 180Q179 127 250 95T404 61L506 638Q372 705 318 751T232 854T200 990Q200 1163 310 1256T632 1355L655 1483H737L714 1355Q857 1352 991 1318L942 1039H877L872 1210Q810 1260
699 1270L614 787Q759 709 815 660T906 551T940 414Q940 219 823 108T472 -18L448 -156H366L390 -20Q165 -16 24 73L76 371ZM762 379Q762 428 744 465T691 533T582 601L487 66Q622 83 692 163T762 379ZM375 1025Q375 964 412 917T538 823L617 1270Q501 1261 438
1198T375 1025Z" />
<glyph unicode="%" glyph-name="percent" horiz-adv-x="1706" d="M318 -20H208L1400 1362H1511L318 -20ZM383 623Q117 623 117 885Q117 1013 164 1129T299 1304T519 1362Q789 1362 789 1103Q789 1056 778 995Q711 623 383 623ZM635 1124Q635 1204 604 1246T500
1288Q422 1288 373 1235T296 1061T267 854Q267 778 296 737T395 696Q472 696 524 749T605 916T635 1124ZM1184 -27Q917 -27 917 234Q917 280 928 346Q993 713 1320 713Q1589 713 1589 453Q1589 327 1541 209T1405 32T1184 -27ZM1437 473Q1437 554 1406 596T1301
639Q1223 639 1174 586T1097 412T1069 205Q1069 129 1098 88T1197 47Q1274 47 1326 100T1407 267T1437 473Z" />
<glyph unicode="&amp;" glyph-name="ampersand" horiz-adv-x="1593" d="M1120 1102Q1120 1022 1082 965T976 866T727 758L1071 356Q1218 554 1256 727L1119 754L1128 807H1585L1576 754L1432 727Q1311 454 1142 272L1310 78L1472 54L1462 0H1118L1005 137Q888
50 782 15T548 -20Q327 -20 207 73T87 340Q87 432 126 507T249 641T489 756Q427 845 404 908T381 1037Q381 1184 484 1273T768 1362Q878 1362 956 1330T1077 1238T1120 1102ZM538 687Q404 630 345 546T285 343Q285 214 359 140T568 66Q668 66 762 105T936 219L538
687ZM561 1071Q561 1008 591 949T673 823Q803 872 852 905T927 982T953 1090Q953 1182 903 1232T768 1282Q663 1282 612 1225T561 1071Z" />
<glyph unicode="&apos;" glyph-name="quotesingle" horiz-adv-x="438" d="M269 1341H466L319 860H245L269 1341Z" />
<glyph unicode="(" glyph-name="parenleft" horiz-adv-x="682" d="M251 131Q251 -208 475 -352L460 -436Q253 -315 163 -161T72 213Q72 389 117 592T245 946T455 1208T787 1421L772 1337Q639 1267 549 1161T400 911T296 522T251 131Z" />
<glyph unicode=")" glyph-name="parenright" horiz-adv-x="682" d="M-97 -436L-82 -352Q49 -283 137 -178T284 64T390 446T438 854Q438 1028 383 1146T214 1337L229 1421Q441 1295 530 1143T619 772Q619 605 574 400T445 43T234 -223T-97 -436Z" />
<glyph unicode="*" glyph-name="asterisk" horiz-adv-x="1024" d="M197 1065L261 1208L576 1014L533 1341H689L642 1014L959 1204L1023 1063L691 965L1023 868L959 727L642 915L689 590H533L576 918L261 723L197 866L525 965L197 1065Z" />
<glyph unicode="+" glyph-name="plus" horiz-adv-x="1382" d="M760 629V203H657V629H233V731H657V1157H760V731H1186V629H760Z" />
<glyph unicode="," glyph-name="comma" horiz-adv-x="512" d="M383 42Q383 -89 300 -180T68 -315V-238Q254 -179 254 -70Q254 -42 235 -28T192 0T149 36T129 100Q129 154 163 182T250 211Q311 211 347 166T383 42Z" />
<glyph unicode="-" glyph-name="hyphen" horiz-adv-x="682" d="M76 406V559H608V406H76Z" />
<glyph unicode="." glyph-name="period" horiz-adv-x="512" d="M327 92Q327 43 293 7T206 -29Q154 -29 120 7T85 92Q85 143 120 178T206 213Q257 213 292 178T327 92Z" />
<glyph unicode="/" glyph-name="slash" horiz-adv-x="569" d="M16 -20H-94L617 1350H725L16 -20Z" />
<glyph unicode="0" glyph-name="zero" horiz-adv-x="1024" d="M419 -20Q79 -20 79 399Q79 634 151 877T348 1241T652 1362Q998 1362 998 951Q998 724 926 474T728 102T419 -20ZM823 992Q823 1282 634 1282Q548 1282 484 1224T373 1050T288 731T249 345Q249 204
296 132T431 59Q550 59 630 168T766 535T823 992Z" />
<glyph unicode="1" glyph-name="one" horiz-adv-x="1024" d="M534 80L804 53L794 0H73L83 53L362 80L555 1174L267 1077L277 1130L707 1352H759L534 80Z" />
<glyph unicode="2" glyph-name="two" horiz-adv-x="1024" d="M821 0H1L27 147L239 302Q459 457 576 568T749 802T806 1067Q806 1174 748 1223T578 1272Q523 1272 463 1257T361 1219L297 1055H231L276 1313Q467 1356 593 1356Q779 1356 879 1280T979 1067Q979 936
917 815T729 579T378 306L166 154H848L821 0Z" />
<glyph unicode="3" glyph-name="three" horiz-adv-x="1024" d="M357 -20Q268 -20 169 -3T-3 41L34 323H100L112 135Q145 110 220 87T357 63Q542 63 629 140T716 389Q716 631 447 651L332 659L346 741L491 750Q632 759 699 832T767 1051Q767 1161 715 1216T552
1272Q498 1272 440 1257T337 1219L273 1055H207L252 1313Q354 1340 417 1348T559 1356Q744 1356 848 1280T953 1065Q953 916 866 822T595 702Q739 681 818 604T897 408Q897 210 750 95T357 -20Z" />
<glyph unicode="4" glyph-name="four" horiz-adv-x="1024" d="M754 308L699 0H537L592 308H5L25 428L776 1348H936L776 438H978L956 308H754ZM752 1180L149 438H614L709 979L752 1180Z" />
<glyph unicode="5" glyph-name="five" horiz-adv-x="1024" d="M490 784Q695 784 800 699T906 454Q906 226 765 103T356 -20Q183 -20 32 23L70 305H136L148 117Q184 94 248 79T370 63Q545 63 634 156T723 445Q723 700 463 700Q355 700 262 676H166L283 1341H963L936
1188H346L271 760Q385 784 490 784Z" />
<glyph unicode="6" glyph-name="six" horiz-adv-x="1024" d="M477 -20Q291 -20 187 103T83 446Q83 695 164 904T394 1235T723 1356Q860 1356 1014 1303L973 1072H907L896 1212Q807 1272 716 1272Q560 1272 447 1122T285 706Q361 751 446 777T604 803Q767 803 857
722T948 499Q948 347 892 230T729 46T477 -20ZM260 411Q260 243 316 151T479 59Q614 59 688 174T762 489Q762 598 714 652T562 707Q447 707 276 645Q260 531 260 411Z" />
<glyph unicode="7" glyph-name="seven" horiz-adv-x="1024" d="M274 1024H208L264 1341H1094L1080 1264L259 0H120L917 1188H338L274 1024Z" />
<glyph unicode="8" glyph-name="eight" horiz-adv-x="1024" d="M1001 1092Q1001 950 931 848T743 711Q829 681 878 612T927 440Q927 -20 426 -20Q231 -20 137 61T43 293Q43 619 351 711Q287 739 245 798T202 949Q202 1154 318 1258T655 1362Q1001 1362 1001 1092ZM438
59Q596 59 673 149T750 447Q750 666 534 666Q220 666 220 289Q220 59 438 59ZM551 754Q682 754 752 840T823 1092Q823 1189 780 1235T644 1282Q511 1282 445 1201T378 945Q378 852 421 803T551 754Z" />
<glyph unicode="9" glyph-name="nine" horiz-adv-x="1024" d="M597 1356Q786 1356 888 1235T991 890Q991 635 908 424T685 97T376 -20Q195 -20 60 34L99 255H165L176 115Q210 95 262 80T372 64Q533 64 642 216T791 631Q709 583 624 558T470 533Q310 533 218 623T126
871Q126 1016 183 1127T347 1297T597 1356ZM814 925Q814 1093 758 1185T595 1277Q459 1277 386 1171T312 876Q312 750 367 690T521 629Q658 629 800 690Q814 804 814 925Z" />
<glyph unicode=":" glyph-name="colon" horiz-adv-x="682" d="M379 92Q379 43 345 7T258 -29Q206 -29 172 7T137 92Q137 143 172 178T258 213Q309 213 344 178T379 92ZM520 839Q520 790 486 754T399 718Q347 718 313 754T278 839Q278 890 313 925T399 960Q450
960 485 925T520 839Z" />
<glyph unicode=";" glyph-name="semicolon" horiz-adv-x="682" d="M546 839Q546 790 512 754T425 718Q373 718 339 754T304 839Q304 890 339 925T425 960Q476 960 511 925T546 839ZM410 42Q410 -89 327 -180T95 -315V-238Q281 -179 281 -70Q281 -42 262 -28T219
0T176 36T156 100Q156 154 190 182T277 211Q338 211 374 166T410 42Z" />
<glyph unicode="&lt;" glyph-name="less" horiz-adv-x="1382" d="M232 655V705L1185 1174V1071L376 680L1185 289V186L232 655Z" />
<glyph unicode="=" glyph-name="equal" horiz-adv-x="1382" d="M1186 526V424H233V526H1186ZM1186 936V834H233V936H1186Z" />
<glyph unicode="&gt;" glyph-name="greater" horiz-adv-x="1382" d="M232 186V289L1041 680L232 1071V1174L1185 705V655L232 186Z" />
<glyph unicode="?" glyph-name="question" horiz-adv-x="1024" d="M502 350H422L455 684L603 713Q718 735 773 816T829 1051Q829 1272 630 1272Q570 1272 507 1250T407 1200L357 1036H291L322 1290Q481 1356 641 1356Q1007 1356 1007 1063Q1007 706 620 623L561
610L502 350ZM545 92Q545 43 511 7T425 -29Q373 -29 339 7T304 92Q304 143 339 178T425 213Q475 213 510 179T545 92Z" />
<glyph unicode="@" glyph-name="at" horiz-adv-x="1884" d="M1469 -184Q1328 -294 1185 -341T875 -389Q650 -389 479 -295T214 -28T120 362Q120 646 245 876T592 1235T1084 1364Q1420 1364 1604 1203T1789 752Q1789 562 1692 395T1430 126T1086 25Q1021 25 1021
76Q1021 126 1029 201Q942 114 858 70T707 25Q635 25 596 79T556 225Q556 344 586 457T672 659T811 808T975 892T1185 915H1221Q1259 915 1307 909L1193 379Q1170 269 1170 205Q1170 168 1188 156T1244 143Q1360 143 1456 224T1608 451T1664 750Q1664 1002 1508
1142T1078 1282Q845 1282 659 1169T365 841T257 365Q257 170 334 18T559 -219T906 -305Q1054 -305 1178 -267T1436 -133L1469 -184ZM1150 807L1101 811Q971 811 884 767T744 590T691 309Q691 160 771 160Q827 160 900 191T1035 274L1150 807Z" />
<glyph unicode="A" glyph-name="A" horiz-adv-x="1251" d="M264 53L254 0H-112L-102 53L10 80L692 1352H883L1133 80L1258 53L1247 0H772L783 53L926 80L862 467H334L129 80L264 53ZM723 1208L379 557H846L723 1208Z" />
<glyph unicode="B" glyph-name="B" horiz-adv-x="1251" d="M639 754Q833 754 915 819T998 1047Q998 1151 933 1201T719 1251H561L473 754H639ZM615 84Q807 84 897 158T987 406Q987 542 899 603T643 664H457L357 90Q510 84 615 84ZM19 0L29 53L162 80L371 1262L203
1288L213 1341H764Q1206 1341 1206 1059Q1206 918 1118 826T871 713Q1026 700 1111 621T1196 410Q1196 195 1051 95T615 -6L232 0H19Z" />
<glyph unicode="C" glyph-name="C" horiz-adv-x="1366" d="M699 -19Q424 -19 269 125T114 523Q114 771 217 961T511 1253T947 1356Q1158 1356 1385 1305L1340 1012H1275V1186Q1213 1229 1125 1252T941 1276Q760 1276 617 1180T394 906T314 503Q314 288 418 176T716
63Q830 63 939 97T1116 184L1188 385H1253L1192 70Q1077 28 945 5T699 -19Z" />
<glyph unicode="D" glyph-name="D" horiz-adv-x="1479" d="M1238 785Q1238 1251 723 1251H561L357 94Q517 86 621 86Q915 86 1076 267T1238 785ZM784 1341Q1107 1341 1277 1200T1448 792Q1448 553 1348 371T1061 93T629 -4L148 0H-23L-14 53L162 80L370 1262L203
1288L212 1341H784Z" />
<glyph unicode="E" glyph-name="E" horiz-adv-x="1251" d="M370 1262L202 1288L212 1341H1218L1161 1020H1095L1101 1237Q992 1251 780 1251H561L468 727H830L890 887H954L881 475H817L815 637H453L356 90H620Q876 90 961 106L1062 354H1128L1046 0H-24L-14 53L161
80L370 1262Z" />
<glyph unicode="F" glyph-name="F" horiz-adv-x="1251" d="M446 602L354 80L573 53L563 0H-11L-1 53L161 80L370 1262L202 1288L212 1341H1268L1211 1020H1145L1151 1237Q1043 1251 830 1251H561L462 692H907L966 852H1027L955 440H894L891 602H446Z" />
<glyph unicode="G" glyph-name="G" horiz-adv-x="1479" d="M690 -18Q417 -18 265 125T113 523Q113 774 217 963T511 1254T947 1356Q1178 1356 1394 1296L1343 1008H1276L1279 1174Q1152 1276 941 1276Q764 1276 620 1181T395 909T314 503Q314 295 416 179T703
62Q792 62 882 87T1035 153L1098 506L931 532L940 586H1435L1426 532L1290 506L1215 86Q1064 28 942 5T690 -18Z" />
<glyph unicode="H" glyph-name="H" horiz-adv-x="1479" d="M-22 0L-14 53L162 80L369 1262L203 1288L211 1341H748L740 1288L561 1262L469 735H1100L1192 1262L1026 1288L1034 1341H1571L1563 1288L1385 1262L1178 80L1344 53L1335 0H799L807 53L985 80L1084 645H453L354
80L520 53L512 0H-22Z" />
<glyph unicode="I" glyph-name="I" horiz-adv-x="682" d="M369 80L535 53L527 0H-8L0 53L176 80L383 1262L217 1288L225 1341H762L754 1288L576 1262L369 80Z" />
<glyph unicode="J" glyph-name="J" horiz-adv-x="909" d="M631 1262L464 1288L473 1341H989L980 1288L823 1262L677 432Q597 -20 267 -20Q198 -20 135 -7T31 26L73 258H138L143 119Q156 97 197 82T281 66Q421 66 454 256L631 1262Z" />
<glyph unicode="K" glyph-name="K" horiz-adv-x="1366" d="M1454 1341L1444 1288L1288 1262L732 807L1179 80L1313 53L1303 0H996L585 686L442 569L354 80L542 53L532 0H-24L-14 53L161 80L370 1262L202 1288L212 1341H749L739 1288L563 1262L465 704L1143 1262L1024
1288L1034 1341H1454Z" />
<glyph unicode="L" glyph-name="L" horiz-adv-x="1139" d="M355 86H569Q759 86 866 106L977 385H1042L956 0H-24L-14 53L161 80L370 1262L202 1288L212 1341H784L774 1288L563 1262L355 86Z" />
<glyph unicode="M" glyph-name="M" horiz-adv-x="1706" d="M721 0H686L455 1153L266 80L442 53L432 0H-24L-14 53L161 80L370 1262L202 1288L212 1341H594L800 318L1398 1341H1800L1790 1288L1614 1262L1405 80L1573 53L1563 0H1019L1029 53L1213 80L1402 1153L721 0Z" />
<glyph unicode="N" glyph-name="N" horiz-adv-x="1366" d="M1170 1262L994 1288L1004 1341H1461L1451 1288L1275 1262L1052 0H955L474 1206L275 80L451 53L441 0H-15L-5 53L170 80L379 1262L211 1288L221 1341H609L1008 336L1170 1262Z" />
<glyph unicode="O" glyph-name="O" horiz-adv-x="1479" d="M1231 832Q1231 1032 1129 1154T858 1276Q709 1276 585 1175T382 884T303 503Q303 305 403 185T670 65Q819 65 945 165T1151 455T1231 832ZM663 -20Q502 -20 374 47T174 238T103 514Q103 755 203 950T476
1251T871 1356Q1032 1356 1160 1289T1360 1099T1431 822Q1431 585 1331 386T1058 84T663 -20Z" />
<glyph unicode="P" glyph-name="P" horiz-adv-x="1251" d="M612 616Q1000 616 1000 973Q1000 1116 928 1183T709 1251H561L449 616H612ZM433 526L354 80L573 53L563 0H-11L-1 53L161 80L370 1262L202 1288L212 1341H749Q965 1341 1082 1252T1199 986Q1199 762
1053 644T634 526H433Z" />
<glyph unicode="Q" glyph-name="Q" horiz-adv-x="1479" d="M113 514Q113 755 213 950T486 1251T881 1356Q1042 1356 1170 1289T1370 1099T1441 822Q1441 624 1370 449T1171 159T872 3Q957 -122 995 -160T1073 -215T1164 -233L1247 -229L1235 -295Q1210 -305 1145
-318T1032 -332Q930 -332 861 -280T695 -68L665 -20Q505 -19 379 49T183 239T113 514ZM1241 832Q1241 1032 1139 1154T868 1276Q719 1276 595 1175T392 884T313 503Q313 305 413 185T680 65Q829 65 955 165T1161 455T1241 832Z" />
<glyph unicode="R" glyph-name="R" horiz-adv-x="1251" d="M444 588L354 80L533 53L523 0H-11L-1 53L161 80L370 1262L202 1288L212 1341H744Q963 1341 1078 1258T1193 1016Q1193 700 843 616L1070 80L1217 53L1207 0H899L653 588H444ZM616 678Q798 678 896 764T995
1010Q995 1251 709 1251H561L460 678H616Z" />
<glyph unicode="S" glyph-name="S" horiz-adv-x="1024" d="M76 371H141L142 180Q175 130 254 96T423 61Q587 61 675 138T764 355Q764 409 740 449T676 521T586 580T482 634T379 693T288 766T224 862T200 989Q200 1167 321 1261T667 1356Q839 1356 991 1318L942
1039H877L872 1210Q840 1236 783 1254T652 1272Q519 1272 447 1207T375 1025Q375 962 420 910T554 813Q690 742 750 705T850 626T915 530T940 406Q940 200 806 90T417 -20Q291 -20 191 5T24 73L76 371Z" />
<glyph unicode="T" glyph-name="T" horiz-adv-x="1139" d="M176 0L186 53L403 80L610 1255H559Q360 1255 265 1235L201 1026H134L190 1341H1260L1204 1026H1136L1146 1235Q1056 1253 852 1253H803L596 80L805 53L795 0H176Z" />
<glyph unicode="U" glyph-name="U" horiz-adv-x="1479" d="M1299 1262L1124 1288L1133 1341H1590L1581 1288L1404 1262L1263 461Q1223 232 1069 106T679 -20Q446 -20 324 74T202 348Q202 403 212 453L355 1262L188 1288L197 1341H733L724 1288L547 1262L406 457Q396
403 396 355Q396 92 696 92Q887 92 1007 187T1157 453L1299 1262Z" />
<glyph unicode="V" glyph-name="V" horiz-adv-x="1251" d="M1448 1341L1438 1288L1307 1262L580 -31H529L234 1262L107 1288L117 1341H610L600 1288L431 1262L649 283L1186 1262L1034 1288L1045 1341H1448Z" />
<glyph unicode="W" glyph-name="W" horiz-adv-x="1706" d="M1135 -31H1072L926 867L508 -31H443L248 1262L135 1288L144 1341H611L602 1288L441 1262L581 326L1007 1247H1053L1204 324L1623 1262L1458 1288L1467 1341H1861L1852 1288L1731 1262L1135 -31Z" />
<glyph unicode="X" glyph-name="X" horiz-adv-x="1251" d="M751 753L990 80L1138 53L1128 0H615L625 53L789 80L614 587L217 80L379 53L369 0H-68L-58 53L93 80L573 686L369 1262L222 1288L232 1341H725L715 1288L571 1262L711 853L1030 1262L898 1288L908 1341H1317L1307
1288L1155 1262L751 753Z" />
<glyph unicode="Y" glyph-name="Y" horiz-adv-x="1139" d="M609 80L818 53L808 0H189L199 53L416 80L494 522L264 1262L117 1288L127 1341H674L664 1288L470 1262L658 635L1051 1262L875 1288L885 1341H1321L1311 1288L1160 1262L688 528L609 80Z" />
<glyph unicode="Z" glyph-name="Z" horiz-adv-x="1139" d="M907 1255H707Q459 1255 364 1235L296 1024H227L283 1341H1156L1140 1255L267 84H507Q626 84 749 95T917 117L1021 373H1091L998 0H25L42 94L907 1255Z" />
<glyph unicode="[" glyph-name="bracketleft" horiz-adv-x="797" d="M118 -274L417 1421H873L865 1374L560 1333L292 -186L582 -227L574 -274H118Z" />
<glyph unicode="\" glyph-name="backslash" horiz-adv-x="569" d="M158 1350H256L470 -20H369L158 1350Z" />
<glyph unicode="]" glyph-name="bracketright" horiz-adv-x="797" d="M-49 -274L-41 -227L262 -186L530 1333L241 1374L249 1421H705L406 -274H-49Z" />
<glyph unicode="^" glyph-name="asciicircum" horiz-adv-x="864" d="M500 1341H549L977 389H874L524 1198L174 389H72L500 1341Z" />
<glyph unicode="_" glyph-name="underscore" horiz-adv-x="1024" d="M-16 -264V-162H1040V-264H-16Z" />
<glyph unicode="`" glyph-name="grave" horiz-adv-x="682" d="M610 1118L303 1386L309 1423H512L670 1151L665 1118H610Z" />
<glyph unicode="a" glyph-name="a" horiz-adv-x="1024" d="M789 70L902 45L894 0H609L638 156Q469 -21 329 -21Q208 -21 135 68T61 313Q61 488 137 640T342 878T620 964Q741 964 848 922L893 956H947L789 70ZM760 837Q721 864 687 874T603 885Q503 885 420 810T288
606T240 339Q240 232 284 168T404 104Q517 104 651 243L760 837Z" />
<glyph unicode="b" glyph-name="b" horiz-adv-x="1024" d="M305 1352L172 1376L180 1421H480L406 980Q389 866 367 787Q447 869 531 917T687 965Q812 965 887 876T962 631Q962 459 888 307T682 67T396 -20Q308 -20 224 2T76 64L305 1352ZM248 107Q306 59 409 59Q511
59 597 134T733 337T783 605Q783 717 737 778T612 840Q553 840 485 801T354 701L248 107Z" />
<glyph unicode="c" glyph-name="c" horiz-adv-x="909" d="M774 142Q693 67 592 24T400 -20Q239 -20 151 73T63 330Q63 504 133 647T332 878T604 965Q675 965 755 950T887 913L842 651H787L771 825Q708 888 603 888Q507 888 424 817T290 619T240 340Q240 84 446
84Q589 84 744 184L774 142Z" />
<glyph unicode="d" glyph-name="d" horiz-adv-x="1024" d="M783 941Q787 989 851 1352L697 1376L705 1421H1029L789 70L902 45L894 0H609L638 156Q469 -21 329 -21Q206 -21 134 71T62 317Q62 488 135 638T337 876T618 964Q712 964 783 941ZM760 837Q725 860 688
873T598 886Q504 886 422 812T290 608T240 339Q240 232 284 168T403 104Q459 104 524 140T651 243L760 837Z" />
<glyph unicode="e" glyph-name="e" horiz-adv-x="909" d="M863 760Q863 624 695 528T244 413L240 340Q240 213 293 149T452 84Q542 84 618 114T760 184L789 142Q697 64 595 22T400 -20Q238 -20 151 70T63 330Q63 497 133 641T329 875T591 965Q714 965 788 909T863
760ZM252 476Q450 491 569 569T688 760Q688 816 658 852T569 888Q499 888 433 831T319 678T252 476Z" />
<glyph unicode="f" glyph-name="f" horiz-adv-x="569" d="M189 -436H23L248 856H86L94 905L264 944L276 1010Q316 1233 410 1337T666 1442Q743 1442 805 1423L770 1227H721L702 1341Q673 1362 618 1362Q557 1362 522 1310T457 1096L428 940H637L623 856H414L189 -436Z" />
<glyph unicode="g" glyph-name="g" horiz-adv-x="1024" d="M418 104Q474 104 542 141T676 243L786 861Q762 867 743 872T706 880T666 884T618 886Q518 886 432 811T297 609T248 339Q248 231 292 168T418 104ZM662 160Q590 81 502 30T342 -21Q215 -21 142 68T69
313Q69 488 145 638T352 876T636 964Q696 964 792 953T964 923L796 -35Q759 -246 652 -341T334 -436Q246 -436 152 -416T1 -365L19 -137H64L100 -263Q181 -342 333 -342Q455 -342 527 -279T623 -75L662 160Z" />
<glyph unicode="h" glyph-name="h" horiz-adv-x="1024" d="M311 1352L193 1376L201 1421H489L383 825L367 749Q447 854 538 909T718 965Q819 965 870 911T921 754Q921 740 917 711T808 69L939 45L931 0H630L732 582Q755 709 755 748Q755 793 731 821T655 849Q580
849 493 787T350 633L239 0H74L311 1352Z" />
<glyph unicode="i" glyph-name="i" horiz-adv-x="569" d="M292 70L449 45L441 0H114L267 870L138 895L146 940H445L292 70ZM507 1247Q507 1203 475 1171T398 1139Q354 1139 322 1171T290 1247Q290 1292 322 1324T398 1356Q443 1356 475 1324T507 1247Z" />
<glyph unicode="j" glyph-name="j" horiz-adv-x="569" d="M-59 -436Q-140 -436 -219 -406L-186 -219H-139L-124 -329Q-97 -356 -53 -356Q12 -356 49 -292T111 -90L281 870L144 895L152 940H459L285 -39Q249 -241 165 -338T-59 -436ZM519 1247Q519 1203 487 1171T410
1139Q366 1139 334 1171T302 1247Q302 1292 334 1324T410 1356Q455 1356 487 1324T519 1247Z" />
<glyph unicode="k" glyph-name="k" horiz-adv-x="909" d="M299 1352L164 1376L172 1421H477L305 453L733 868L639 895L647 940H939L931 895L850 872L556 591L799 68L897 45L889 0H653L435 479L287 340L225 0H59L299 1352Z" />
<glyph unicode="l" glyph-name="l" horiz-adv-x="569" d="M287 70L444 45L436 0H109L346 1352L217 1376L225 1421H524L287 70Z" />
<glyph unicode="m" glyph-name="m" horiz-adv-x="1479" d="M873 746Q941 843 1027 904T1192 965Q1276 965 1324 912T1373 757Q1373 735 1369 700T1262 70L1393 45L1384 0H1083L1186 582Q1209 703 1209 748Q1209 793 1188 820T1122 848Q1078 848 1017 806T907 699T847
576L748 0H582L684 582Q709 713 709 748Q709 793 687 820T618 848Q574 848 510 804T397 696T339 576L240 0H74L227 870L109 895L117 940H395L367 746Q437 845 524 905T688 965Q776 965 824 910T873 746Z" />
<glyph unicode="n" glyph-name="n" horiz-adv-x="1024" d="M755 748Q755 793 731 821T655 849Q581 849 494 786T349 630L239 0H73L226 871L108 896L116 941H394L367 749Q451 857 541 911T718 965Q819 965 870 911T921 754Q921 740 917 711T808 69L939 45L931 0H630L732
582Q755 709 755 748Z" />
<glyph unicode="o" glyph-name="o" horiz-adv-x="1024" d="M237 340Q237 205 289 134T436 62Q527 62 609 135T740 334T788 606Q788 744 736 815T585 887Q494 887 413 814T284 615T237 340ZM427 -20Q261 -20 161 86T61 374Q61 535 130 672T321 887T597 965Q763
965 863 859T963 571Q963 410 894 273T703 58T427 -20Z" />
<glyph unicode="p" glyph-name="p" horiz-adv-x="1024" d="M233 2L222 -88L174 -365L334 -389L326 -436H-120L-112 -389L9 -365L228 870L125 895L133 940H398L379 788Q554 965 694 965Q815 965 888 876T962 631Q962 455 887 304T683 66T403 -20Q357 -20 308 -14T233
2ZM257 107Q319 59 425 59Q524 59 604 132T734 336T783 605Q783 716 739 778T619 840Q566 840 494 801T366 701L257 107Z" />
<glyph unicode="q" glyph-name="q" horiz-adv-x="1024" d="M419 107Q491 107 560 127T677 178L798 861Q696 888 594 888Q495 888 415 816T289 616T243 343Q243 227 288 167T419 107ZM671 107Q594 49 509 15T350 -20Q213 -20 141 65T68 318Q68 501 140 650T342
882T638 965Q708 965 810 952T976 923L743 -365L864 -389L856 -436H565L634 -55Q650 32 671 107Z" />
<glyph unicode="r" glyph-name="r" horiz-adv-x="797" d="M724 965Q774 965 803 957L759 711H716L678 838Q598 838 513 777T356 616L249 0H83L236 870L118 895L126 940H403L372 728Q447 841 539 903T724 965Z" />
<glyph unicode="s" glyph-name="s" horiz-adv-x="797" d="M692 276Q692 125 596 53T305 -20Q167 -20 25 42L66 268H111L128 131Q154 103 201 81T309 59Q528 59 528 238Q528 297 482 343T330 440Q229 489 180 548T131 688Q131 820 220 892T467 965Q580 965 735
930L698 721H651L637 829Q574 885 471 885Q389 885 340 848T291 731Q291 677 333 636T492 535Q596 481 644 419T692 276Z" />
<glyph unicode="t" glyph-name="t" horiz-adv-x="569" d="M264 174Q264 129 286 107T344 84Q417 84 496 114L517 67Q394 -20 268 -20Q189 -20 144 28T98 162Q98 191 103 230T213 856H90L98 901L231 940L368 1153H432L395 940H610L594 856H379L282 307Q264 215 264 174Z" />
<glyph unicode="u" glyph-name="u" horiz-adv-x="1024" d="M268 193Q268 148 292 120T368 92Q443 92 530 154T673 308L784 940H950L797 70L915 45L907 0H629L656 193Q573 86 483 31T305 -24Q204 -24 153 30T102 187Q102 202 107 240T215 871L104 895L112 940H393L291
359Q268 233 268 193Z" />
<glyph unicode="v" glyph-name="v" horiz-adv-x="909" d="M751 807Q751 844 730 866T685 895L693 940H883Q909 917 909 877Q909 789 826 657L403 -20H330L141 870L28 895L37 940H293L438 208L687 614Q751 718 751 807Z" />
<glyph unicode="w" glyph-name="w" horiz-adv-x="1366" d="M900 -20H834L710 599L392 -20H322L151 870L49 895L57 940H302L433 233L742 834H817L939 229L1136 618Q1193 732 1193 807Q1193 844 1172 866T1127 895L1135 940H1325Q1351 917 1351 877Q1351 809 1268
657L900 -20Z" />
<glyph unicode="x" glyph-name="x" horiz-adv-x="909" d="M142 84Q142 56 184 45L176 0H-9Q-25 13 -25 43Q-25 71 6 112T112 221L385 475L213 870L106 895L114 940H362L507 582L631 700Q695 761 721 796T747 856Q747 866 738 873T688 895L696 940H873Q894 924
894 897Q894 838 756 707L542 506L734 66L850 45L842 0H586L419 400L248 236Q193 183 168 149T142 84Z" />
<glyph unicode="y" glyph-name="y" horiz-adv-x="909" d="M52 940H308L453 208L688 614Q752 726 752 807Q752 844 731 866T686 895L694 940H884Q910 917 910 877Q910 798 827 657L431 -10Q317 -204 251 -285T119 -404T-22 -442Q-103 -442 -171 -424L-134 -221H-89L-73
-317Q-48 -340 9 -340Q144 -340 294 -70L339 12L156 870L44 895L52 940Z" />
<glyph unicode="z" glyph-name="z" horiz-adv-x="797" d="M-23 0L-14 45L550 860H401Q345 860 292 851T215 825L160 690H113L158 940H770L762 891L200 80H397Q453 80 506 92T594 127L670 274H717L645 0H-23Z" />
<glyph unicode="{" glyph-name="braceleft" horiz-adv-x="819" d="M367 -274Q258 -274 204 -218T150 -61Q150 -26 158 20L210 315Q217 350 217 386Q217 467 174 507T37 553L45 598Q260 602 301 834L353 1128Q378 1269 456 1345T666 1421H801L793 1374H731Q640
1374 592 1320T525 1159L466 829Q449 735 385 666T230 578V575Q300 558 341 507T382 378Q382 347 377 322L318 -12Q310 -54 310 -89Q310 -227 448 -227H510L502 -274H367Z" />
<glyph unicode="|" glyph-name="bar" horiz-adv-x="563" d="M267 -442V1421H369V-442H267Z" />
<glyph unicode="}" glyph-name="braceright" horiz-adv-x="819" d="M36 -274L44 -227H106Q197 -227 245 -173T312 -12L371 322Q388 418 451 486T608 575V578Q539 594 498 646T456 777L460 829L519 1159Q527 1203 527 1236Q527 1305 495 1339T389 1374H327L335
1421H471Q687 1421 687 1212Q687 1174 679 1128L627 834Q621 796 621 765Q621 678 668 640T801 598L793 553Q681 549 618 489T536 315L484 20Q459 -119 379 -196T172 -274H36Z" />
<glyph unicode="~" glyph-name="asciitilde" horiz-adv-x="1108" d="M807 502Q701 502 562 623Q488 686 440 714T353 743Q276 743 237 689T185 502H84Q102 689 168 767T353 846Q409 846 468 817T603 725Q689 653 730 629T807 604Q876 604 915 656T973 846H1076Q1059
716 1027 647T942 540T807 502Z" />
<glyph unicode="&#xa0;" glyph-name="space" horiz-adv-x="512" />
<glyph unicode="&#xa1;" glyph-name="exclamdown" horiz-adv-x="797" d="M328 840Q328 889 362 925T449 961Q501 961 535 925T570 840Q570 789 535 754T449 719Q398 719 363 754T328 840ZM354 -409H136L365 543H459L354 -409Z" />
<glyph unicode="&#xa2;" glyph-name="cent" horiz-adv-x="1024" d="M864 347Q795 285 714 244T554 190L521 0H439L471 185Q319 191 236 284T153 535Q153 703 218 841T398 1065T644 1167L675 1341H757L727 1169Q870 1161 977 1118L932 856H877L861 1030Q805 1086
713 1092L572 290Q699 300 834 389L864 347ZM330 545Q330 321 490 293L629 1084Q498 1048 414 898T330 545Z" />
<glyph unicode="&#xa3;" glyph-name="sterling" horiz-adv-x="1024" d="M891 154L864 0H26L46 117L138 188Q229 256 274 327T320 477Q320 531 296 629H134L149 711H276Q251 806 251 894Q251 1116 377 1236T740 1356Q878 1356 1025 1313L980 1035H915L908 1222Q876
1243 826 1257T725 1272Q579 1272 501 1163T422 851L426 711H704L689 629H427Q424 525 413 459Q399 372 350 300T201 154H891Z" />
<glyph unicode="&#xa4;" glyph-name="currency" horiz-adv-x="1024" d="M132 676Q132 810 212 913L105 1020L179 1094L283 985Q391 1067 521 1067Q651 1067 759 985L867 1094L939 1022L830 913Q912 803 912 676Q912 546 830 438L939 332L867 260L759 367Q656 287
521 287Q388 287 283 367L177 260L105 332L212 438Q132 543 132 676ZM228 676Q228 599 267 531T375 423T521 383Q641 383 728 469T816 676Q816 797 729 884T521 971Q444 971 377 932T269 824T228 676Z" />
<glyph unicode="&#xa5;" glyph-name="yen" horiz-adv-x="1024" d="M860 393L845 311H566L526 80L693 53L684 0H148L157 53L334 80L374 311H95L110 393H389L412 522L406 557H139L153 639H383L230 1262L135 1288L144 1341H574L565 1288L429 1262L566 634L927 1262L809
1288L818 1341H1164L1155 1288L1046 1262L671 639H903L889 557H622L605 528L581 393H860Z" />
<glyph unicode="&#xa6;" glyph-name="brokenbar" horiz-adv-x="563" d="M267 801V1421H369V801H267ZM267 -442V180H369V-442H267Z" />
<glyph unicode="&#xa7;" glyph-name="section" horiz-adv-x="1024" d="M784 69Q784 -256 372 -256Q295 -256 208 -241T66 -202L107 28H152L171 -109Q201 -139 261 -160T383 -181Q501 -181 561 -129T622 19Q622 83 572 136T404 256Q292 319 239 387T185 542Q185
664 264 743T496 845Q401 897 361 956T320 1090Q320 1230 409 1309T663 1389Q779 1389 936 1354L900 1145H855L841 1253Q776 1309 667 1309Q580 1309 529 1269T478 1143Q478 1103 498 1073T553 1016T699 932Q790 884 831 846T896 760T919 654Q919 525 835 443T597
340Q698 277 741 212T784 69ZM757 604Q757 658 722 701T599 790Q483 784 413 730T343 586Q343 522 383 480T493 404Q630 409 693 459T757 604Z" />
<glyph unicode="&#xa8;" glyph-name="dieresis" horiz-adv-x="682" d="M760 1231Q760 1189 732 1160T662 1130Q620 1130 591 1161T562 1231Q562 1273 591 1302T662 1331Q704 1331 732 1302T760 1231ZM404 1231Q404 1189 376 1160T306 1130Q265 1130 235 1160T205
1231Q205 1273 236 1302T306 1331Q348 1331 376 1302T404 1231Z" />
<glyph unicode="&#xa9;" glyph-name="copyright" horiz-adv-x="1556" d="M118 670Q118 859 211 1019T463 1271T808 1362Q995 1362 1155 1270T1407 1019T1500 670Q1500 485 1410 327T1159 74T808 -20Q622 -20 462 72T210 324T118 670ZM188 670Q188 503 271 359T498
132T808 49Q975 49 1119 131T1347 358T1431 670Q1431 838 1346 983T1118 1210T808 1292Q641 1292 497 1209T271 981T188 670ZM825 258Q630 258 520 364T409 664Q409 873 514 979T827 1085Q942 1085 1095 1055L1099 868H1050L1031 973Q949 1024 831 1024Q684 1024
620 939T556 666Q556 317 825 317Q966 317 1040 377L1062 496H1111L1107 297Q983 258 825 258Z" />
<glyph unicode="&#xaa;" glyph-name="ordfeminine" horiz-adv-x="565" d="M549 836L635 821L626 782H426L438 856Q354 767 250 767Q180 767 136 826T92 983Q92 1090 135 1176T260 1312T446 1362Q511 1362 578 1336L584 1339L616 1357H646L549 836ZM508 1278Q464
1305 410 1305Q325 1305 272 1216T218 992Q218 853 308 853Q369 853 440 895L508 1278Z" />
<glyph unicode="&#xab;" glyph-name="guillemotleft" horiz-adv-x="1024" d="M539 852H600L280 457L463 74H402L111 430L122 496L539 852ZM949 852H1010L689 457L873 74H812L520 430L531 496L949 852Z" />
<glyph unicode="&#xac;" glyph-name="logicalnot" horiz-adv-x="1382" d="M1178 731V203H1075V629H225V731H1178Z" />
<glyph unicode="&#xad;" glyph-name="hyphen" horiz-adv-x="682" d="M76 406V559H608V406H76Z" />
<glyph unicode="&#xae;" glyph-name="registered" horiz-adv-x="1556" d="M118 670Q118 859 211 1019T463 1271T808 1362Q995 1362 1155 1270T1407 1019T1500 670Q1500 485 1410 327T1159 74T808 -20Q622 -20 462 72T210 324T118 670ZM188 670Q188 503 271 359T498
132T808 49Q975 49 1119 131T1347 358T1431 670Q1431 838 1346 983T1118 1210T808 1292Q641 1292 497 1209T271 981T188 670ZM698 625V336L812 319V276H466V319L562 336V1024L458 1040V1081H788Q944 1081 1023 1024T1103 860Q1103 783 1058 727T925 643L1138 336L1222
319V276H1017L788 625H698ZM962 858Q962 947 919 983T761 1020H698V688H765Q871 688 916 725T962 858Z" />
<glyph unicode="&#xaf;" glyph-name="uni00AF" horiz-adv-x="1024" d="M1205 1452H146V1546H1205V1452Z" />
<glyph unicode="&#xb0;" glyph-name="degree" horiz-adv-x="819" d="M164 1051Q164 1134 205 1206T318 1320T474 1362Q557 1362 629 1321T743 1207T785 1051Q785 967 743 895T628 782T474 741Q344 741 254 831T164 1051ZM266 1051Q266 962 327 902T474 841Q562
841 622 902T683 1051Q683 1140 623 1201T474 1262Q389 1262 328 1202T266 1051Z" />
<glyph unicode="&#xb1;" glyph-name="plusminus" horiz-adv-x="1124" d="M622 629V203H519V629H95V731H519V1157H622V731H1048V629H622ZM1048 102V0H95V102H1048Z" />
<glyph unicode="&#xb2;" glyph-name="uni00B2" horiz-adv-x="614" d="M547 535H49L64 631Q274 784 349 858T461 1005T498 1161Q498 1213 470 1247T387 1282Q325 1282 267 1249L229 1151H174L205 1323Q318 1350 399 1350Q515 1350 578 1299T641 1161Q641 1064 573
972T352 770L179 643H566L547 535Z" />
<glyph unicode="&#xb3;" glyph-name="uni00B3" horiz-adv-x="614" d="M259 522Q147 522 41 549L67 735H122L129 623Q149 610 185 600T259 590Q362 590 413 637T465 784Q465 907 326 918L241 924L253 989L340 993Q412 996 455 1039T499 1174Q499 1282 377 1282Q312
1282 258 1253L220 1151H165L196 1323Q302 1350 388 1350Q503 1350 571 1303T640 1176Q640 1086 583 1030T413 956Q508 945 557 902T606 788Q606 669 514 596T259 522Z" />
<glyph unicode="&#xb4;" glyph-name="acute" horiz-adv-x="682" d="M248 1118L253 1151L497 1423H710L704 1386L303 1118H248Z" />
<glyph unicode="&#xb5;" glyph-name="uni00B5" horiz-adv-x="1180" d="M719 124Q575 -20 461 -20Q355 -20 325 58Q276 -223 204 -436H27L35 -391Q69 -320 107 -188T167 69L308 870L173 895L181 940H487L372 288L368 242Q368 173 406 135T508 96Q556 96 620 129T731
213L862 940H1025L871 70L1004 45L996 0H718L719 124Z" />
<glyph unicode="&#xb6;" glyph-name="paragraph" horiz-adv-x="1071" d="M924 1266V-258H830V1266H660V-258H566L568 565Q359 565 240 670T121 963Q121 1146 233 1243T555 1341H1018V1288L924 1266Z" />
<glyph unicode="&#xb7;" glyph-name="uni00B7" horiz-adv-x="512" d="M407 678Q407 627 372 592T286 557Q235 557 200 592T165 678Q165 727 199 763T286 799Q338 799 372 763T407 678Z" />
<glyph unicode="&#xb8;" glyph-name="cedilla" horiz-adv-x="682" d="M526 -212Q526 -310 455 -368T247 -427Q175 -427 114 -406L137 -331Q185 -347 234 -347Q295 -347 333 -320T371 -235Q371 -191 337 -162T238 -126L306 27H392L359 -55Q439 -63 482 -104T526 -212Z" />
<glyph unicode="&#xb9;" glyph-name="uni00B9" horiz-adv-x="614" d="M388 598L552 584L543 535H69L77 584L244 598L354 1223L183 1165L191 1212L448 1346H520L388 598Z" />
<glyph unicode="&#xba;" glyph-name="ordmasculine" horiz-adv-x="635" d="M430 1305Q352 1305 297 1217T241 998Q241 917 270 873T353 829Q433 829 488 918T544 1133Q544 1218 515 1261T430 1305ZM340 770Q239 770 177 833T114 1007Q114 1104 156 1186T275 1315T446
1362Q547 1362 609 1299T672 1125Q672 974 579 872T340 770Z" />
<glyph unicode="&#xbb;" glyph-name="guillemotright" horiz-adv-x="1024" d="M484 74H423L744 470L560 852H621L912 496L901 430L484 74ZM74 74H13L335 470L150 852H211L503 496L492 430L74 74Z" />
<glyph unicode="&#xbc;" glyph-name="onequarter" horiz-adv-x="1536" d="M413 0H311L1275 1341H1375L413 0ZM391 598L555 584L546 535H72L80 584L247 598L357 1223L186 1165L194 1212L451 1346H523L391 598ZM1326 160L1298 1H1156L1184 160H819L837 257L1334
807H1441L1345 263H1466L1447 160H1326ZM1270 642H1268L924 263H1203L1270 642Z" />
<glyph unicode="&#xbd;" glyph-name="onehalf" horiz-adv-x="1536" d="M358 0H256L1220 1341H1320L358 0ZM391 598L555 584L546 535H72L80 584L247 598L357 1223L186 1165L194 1212L451 1346H523L391 598ZM1386 1H888L903 97Q1113 250 1188 324T1300 471T1337
627Q1337 679 1309 713T1226 748Q1164 748 1106 715L1068 617H1013L1044 789Q1157 816 1238 816Q1354 816 1417 765T1480 627Q1480 530 1412 438T1191 236L1018 109H1405L1386 1Z" />
<glyph unicode="&#xbe;" glyph-name="threequarters" horiz-adv-x="1536" d="M413 0H311L1275 1341H1375L413 0ZM337 522Q225 522 119 549L145 735H200L207 623Q227 610 263 600T337 590Q440 590 491 637T543 784Q543 907 404 918L319 924L331 989L418 993Q490
996 533 1039T577 1174Q577 1282 455 1282Q390 1282 336 1253L298 1151H243L274 1323Q380 1350 466 1350Q581 1350 649 1303T718 1176Q718 1086 661 1030T491 956Q586 945 635 902T684 788Q684 669 592 596T337 522ZM1327 160L1299 1H1157L1185 160H820L838 257L1335
807H1442L1346 263H1467L1448 160H1327ZM1271 642H1269L925 263H1204L1271 642Z" />
<glyph unicode="&#xbf;" glyph-name="questiondown" horiz-adv-x="1024" d="M593 582H673L640 248L492 219Q376 196 321 116T266 -119Q266 -340 465 -340Q524 -340 585 -319T688 -268L738 -104H804L773 -358Q614 -424 454 -424Q88 -424 88 -131Q88 227 475 309L534
322L593 582ZM550 840Q550 889 584 925T670 961Q722 961 756 925T791 840Q791 789 756 754T670 719Q620 719 585 753T550 840Z" />
<glyph unicode="&#xc0;" glyph-name="Agrave" horiz-adv-x="1251" d="M264 53L254 0H-112L-102 53L10 80L692 1352H883L1133 80L1258 53L1247 0H772L783 53L926 80L862 467H334L129 80L264 53ZM723 1208L379 557H846L723 1208ZM871 1452L564 1720L570 1757H773L931
1485L926 1452H871Z" />
<glyph unicode="&#xc1;" glyph-name="Aacute" horiz-adv-x="1251" d="M264 53L254 0H-112L-102 53L10 80L692 1352H883L1133 80L1258 53L1247 0H772L783 53L926 80L862 467H334L129 80L264 53ZM723 1208L379 557H846L723 1208ZM691 1452L696 1485L940 1757H1153L1147
1720L746 1452H691Z" />
<glyph unicode="&#xc2;" glyph-name="Acircumflex" horiz-adv-x="1251" d="M264 53L254 0H-112L-102 53L10 80L692 1352H883L1133 80L1258 53L1247 0H772L783 53L926 80L862 467H334L129 80L264 53ZM723 1208L379 557H846L723 1208ZM486 1452L491 1485L726 1758H939L1078
1485L1073 1452H1026L820 1635L550 1452H486Z" />
<glyph unicode="&#xc3;" glyph-name="Atilde" horiz-adv-x="1251" d="M264 53L254 0H-112L-102 53L10 80L692 1352H883L1133 80L1258 53L1247 0H772L783 53L926 80L862 467H334L129 80L264 53ZM723 1208L379 557H846L723 1208ZM922 1479Q874 1479 838 1500T770
1548T709 1596T646 1618Q614 1618 594 1607T559 1575T525 1499H473Q505 1626 563 1683T711 1741Q759 1741 796 1720T864 1672T925 1624T987 1602Q1029 1602 1057 1626T1108 1720H1160Q1128 1595 1070 1537T922 1479Z" />
<glyph unicode="&#xc4;" glyph-name="Adieresis" horiz-adv-x="1251" d="M264 53L254 0H-112L-102 53L10 80L692 1352H883L1133 80L1258 53L1247 0H772L783 53L926 80L862 467H334L129 80L264 53ZM723 1208L379 557H846L723 1208ZM1096 1565Q1096 1523 1068 1494T998
1464Q956 1464 927 1495T898 1565Q898 1607 927 1636T998 1665Q1040 1665 1068 1636T1096 1565ZM740 1565Q740 1523 712 1494T642 1464Q601 1464 571 1494T541 1565Q541 1607 572 1636T642 1665Q684 1665 712 1636T740 1565Z" />
<glyph unicode="&#xc5;" glyph-name="Aring" horiz-adv-x="1251" d="M993 1475Q993 1418 966 1372T893 1300L1133 80L1258 53L1247 0H772L783 53L926 80L862 467H334L129 80L264 53L254 0H-112L-102 53L10 80L670 1310Q632 1338 610 1381T587 1475Q587 1559 646
1618T790 1678Q874 1678 933 1619T993 1475ZM723 1208L379 557H846L723 1208ZM913 1475Q913 1526 877 1562T790 1598Q739 1598 703 1562T667 1475Q667 1425 701 1389T785 1352H790Q838 1352 875 1387T913 1475Z" />
<glyph unicode="&#xc6;" glyph-name="AE" horiz-adv-x="1821" d="M799 467H387L112 80L265 53L256 0H-146L-137 53L-6 80L850 1270L690 1288L699 1341H1788L1731 1020H1665L1671 1237Q1562 1251 1350 1251H1131L1038 727H1400L1460 887H1524L1451 475H1387L1385
637H1023L926 90H1190Q1446 90 1531 106L1632 354H1698L1616 0H546L556 53L731 80L799 467ZM452 557H815L934 1231L452 557Z" />
<glyph unicode="&#xc7;" glyph-name="Ccedilla" horiz-adv-x="1366" d="M699 -19Q424 -19 269 125T114 523Q114 771 217 961T511 1253T947 1356Q1158 1356 1385 1305L1340 1012H1275V1186Q1213 1229 1125 1252T941 1276Q760 1276 617 1180T394 906T314 503Q314
288 418 176T716 63Q830 63 939 97T1116 184L1188 385H1253L1192 70Q1077 28 945 5T699 -19ZM875 -212Q875 -310 804 -368T596 -427Q524 -427 463 -406L486 -331Q534 -347 583 -347Q644 -347 682 -320T720 -235Q720 -191 686 -162T587 -126L655 27H741L708 -55Q788
-63 831 -104T875 -212Z" />
<glyph unicode="&#xc8;" glyph-name="Egrave" horiz-adv-x="1251" d="M370 1262L202 1288L212 1341H1218L1161 1020H1095L1101 1237Q992 1251 780 1251H561L468 727H830L890 887H954L881 475H817L815 637H453L356 90H620Q876 90 961 106L1062 354H1128L1046 0H-24L-14
53L161 80L370 1262ZM863 1452L556 1720L562 1757H765L923 1485L918 1452H863Z" />
<glyph unicode="&#xc9;" glyph-name="Eacute" horiz-adv-x="1251" d="M370 1262L202 1288L212 1341H1218L1161 1020H1095L1101 1237Q992 1251 780 1251H561L468 727H830L890 887H954L881 475H817L815 637H453L356 90H620Q876 90 961 106L1062 354H1128L1046 0H-24L-14
53L161 80L370 1262ZM656 1452L661 1485L905 1757H1118L1112 1720L711 1452H656Z" />
<glyph unicode="&#xca;" glyph-name="Ecircumflex" horiz-adv-x="1251" d="M370 1262L202 1288L212 1341H1218L1161 1020H1095L1101 1237Q992 1251 780 1251H561L468 727H830L890 887H954L881 475H817L815 637H453L356 90H620Q876 90 961 106L1062 354H1128L1046
0H-24L-14 53L161 80L370 1262ZM517 1452L522 1485L757 1758H970L1109 1485L1104 1452H1057L851 1635L581 1452H517Z" />
<glyph unicode="&#xcb;" glyph-name="Edieresis" horiz-adv-x="1251" d="M370 1262L202 1288L212 1341H1218L1161 1020H1095L1101 1237Q992 1251 780 1251H561L468 727H830L890 887H954L881 475H817L815 637H453L356 90H620Q876 90 961 106L1062 354H1128L1046
0H-24L-14 53L161 80L370 1262ZM1072 1596Q1072 1554 1044 1525T974 1495Q932 1495 903 1526T874 1596Q874 1638 903 1667T974 1696Q1016 1696 1044 1667T1072 1596ZM716 1596Q716 1554 688 1525T618 1495Q577 1495 547 1525T517 1596Q517 1638 548 1667T618 1696Q660
1696 688 1667T716 1596Z" />
<glyph unicode="&#xcc;" glyph-name="Igrave" horiz-adv-x="682" d="M369 80L535 53L527 0H-8L0 53L176 80L383 1262L217 1288L225 1341H762L754 1288L576 1262L369 80ZM598 1452L291 1720L297 1757H500L658 1485L653 1452H598Z" />
<glyph unicode="&#xcd;" glyph-name="Iacute" horiz-adv-x="682" d="M369 80L535 53L527 0H-8L0 53L176 80L383 1262L217 1288L225 1341H762L754 1288L576 1262L369 80ZM402 1452L407 1485L651 1757H864L858 1720L457 1452H402Z" />
<glyph unicode="&#xce;" glyph-name="Icircumflex" horiz-adv-x="682" d="M369 80L535 53L527 0H-8L0 53L176 80L383 1262L217 1288L225 1341H762L754 1288L576 1262L369 80ZM219 1452L224 1485L459 1758H672L811 1485L806 1452H759L553 1635L283 1452H219Z" />
<glyph unicode="&#xcf;" glyph-name="Idieresis" horiz-adv-x="682" d="M369 80L535 53L527 0H-8L0 53L176 80L383 1262L217 1288L225 1341H762L754 1288L576 1262L369 80ZM806 1596Q806 1554 778 1525T708 1495Q666 1495 637 1526T608 1596Q608 1638 637 1667T708
1696Q750 1696 778 1667T806 1596ZM450 1596Q450 1554 422 1525T352 1495Q311 1495 281 1525T251 1596Q251 1638 282 1667T352 1696Q394 1696 422 1667T450 1596Z" />
<glyph unicode="&#xd0;" glyph-name="Eth" horiz-adv-x="1479" d="M784 1341Q1107 1341 1277 1200T1448 792Q1448 553 1348 371T1061 93T629 -4L148 0H-23L-14 53L162 80L258 629H78L93 711H273L370 1262L203 1288L212 1341H784ZM1238 785Q1238 1251 723 1251H561L466
711H841L826 629H451L357 94Q517 86 621 86Q915 86 1076 267T1238 785Z" />
<glyph unicode="&#xd1;" glyph-name="Ntilde" horiz-adv-x="1366" d="M1170 1262L994 1288L1004 1341H1461L1451 1288L1275 1262L1052 0H955L474 1206L275 80L451 53L441 0H-15L-5 53L170 80L379 1262L211 1288L221 1341H609L1008 336L1170 1262ZM1012 1479Q964
1479 928 1500T860 1548T799 1596T736 1618Q704 1618 684 1607T649 1575T615 1499H563Q595 1626 653 1683T801 1741Q849 1741 886 1720T954 1672T1015 1624T1077 1602Q1119 1602 1147 1626T1198 1720H1250Q1218 1595 1160 1537T1012 1479Z" />
<glyph unicode="&#xd2;" glyph-name="Ograve" horiz-adv-x="1479" d="M1231 832Q1231 1032 1129 1154T858 1276Q709 1276 585 1175T382 884T303 503Q303 305 403 185T670 65Q819 65 945 165T1151 455T1231 832ZM663 -20Q502 -20 374 47T174 238T103 514Q103 755
203 950T476 1251T871 1356Q1032 1356 1160 1289T1360 1099T1431 822Q1431 585 1331 386T1058 84T663 -20ZM1040 1452L733 1720L739 1757H942L1100 1485L1095 1452H1040Z" />
<glyph unicode="&#xd3;" glyph-name="Oacute" horiz-adv-x="1479" d="M1231 832Q1231 1032 1129 1154T858 1276Q709 1276 585 1175T382 884T303 503Q303 305 403 185T670 65Q819 65 945 165T1151 455T1231 832ZM663 -20Q502 -20 374 47T174 238T103 514Q103 755
203 950T476 1251T871 1356Q1032 1356 1160 1289T1360 1099T1431 822Q1431 585 1331 386T1058 84T663 -20ZM836 1452L841 1485L1085 1757H1298L1292 1720L891 1452H836Z" />
<glyph unicode="&#xd4;" glyph-name="Ocircumflex" horiz-adv-x="1479" d="M1231 832Q1231 1032 1129 1154T858 1276Q709 1276 585 1175T382 884T303 503Q303 305 403 185T670 65Q819 65 945 165T1151 455T1231 832ZM663 -20Q502 -20 374 47T174 238T103 514Q103
755 203 950T476 1251T871 1356Q1032 1356 1160 1289T1360 1099T1431 822Q1431 585 1331 386T1058 84T663 -20ZM626 1452L631 1485L866 1758H1079L1218 1485L1213 1452H1166L960 1635L690 1452H626Z" />
<glyph unicode="&#xd5;" glyph-name="Otilde" horiz-adv-x="1479" d="M1231 832Q1231 1032 1129 1154T858 1276Q709 1276 585 1175T382 884T303 503Q303 305 403 185T670 65Q819 65 945 165T1151 455T1231 832ZM663 -20Q502 -20 374 47T174 238T103 514Q103 755
203 950T476 1251T871 1356Q1032 1356 1160 1289T1360 1099T1431 822Q1431 585 1331 386T1058 84T663 -20ZM1043 1479Q995 1479 959 1500T891 1548T830 1596T767 1618Q735 1618 715 1607T680 1575T646 1499H594Q626 1626 684 1683T832 1741Q880 1741 917 1720T985
1672T1046 1624T1108 1602Q1150 1602 1178 1626T1229 1720H1281Q1249 1595 1191 1537T1043 1479Z" />
<glyph unicode="&#xd6;" glyph-name="Odieresis" horiz-adv-x="1479" d="M1231 832Q1231 1032 1129 1154T858 1276Q709 1276 585 1175T382 884T303 503Q303 305 403 185T670 65Q819 65 945 165T1151 455T1231 832ZM663 -20Q502 -20 374 47T174 238T103 514Q103
755 203 950T476 1251T871 1356Q1032 1356 1160 1289T1360 1099T1431 822Q1431 585 1331 386T1058 84T663 -20ZM1194 1596Q1194 1554 1166 1525T1096 1495Q1054 1495 1025 1526T996 1596Q996 1638 1025 1667T1096 1696Q1138 1696 1166 1667T1194 1596ZM838 1596Q838
1554 810 1525T740 1495Q699 1495 669 1525T639 1596Q639 1638 670 1667T740 1696Q782 1696 810 1667T838 1596Z" />
<glyph unicode="&#xd7;" glyph-name="multiply" horiz-adv-x="1382" d="M708 608L363 264L292 336L636 682L292 1024L366 1098L708 754L1054 1098L1125 1026L781 682L1125 336L1054 264L708 608Z" />
<glyph unicode="&#xd8;" glyph-name="Oslash" horiz-adv-x="1479" d="M663 -20Q427 -20 270 118L97 -55H-22L213 180Q103 319 103 514Q103 755 203 950T476 1251T871 1356Q1103 1356 1258 1222L1427 1391H1542L1314 1163Q1431 1021 1431 822Q1431 585 1331 386T1058
84T663 -20ZM1231 832Q1231 949 1194 1043L375 223Q423 148 498 107T670 65Q819 65 945 165T1151 455T1231 832ZM303 503Q303 389 336 302L1154 1119Q1105 1194 1030 1235T858 1276Q709 1276 585 1175T382 884T303 503Z" />
<glyph unicode="&#xd9;" glyph-name="Ugrave" horiz-adv-x="1479" d="M1299 1262L1124 1288L1133 1341H1590L1581 1288L1404 1262L1263 461Q1223 232 1069 106T679 -20Q446 -20 324 74T202 348Q202 403 212 453L355 1262L188 1288L197 1341H733L724 1288L547 1262L406
457Q396 403 396 355Q396 92 696 92Q887 92 1007 187T1157 453L1299 1262ZM971 1452L664 1720L670 1757H873L1031 1485L1026 1452H971Z" />
<glyph unicode="&#xda;" glyph-name="Uacute" horiz-adv-x="1479" d="M1299 1262L1124 1288L1133 1341H1590L1581 1288L1404 1262L1263 461Q1223 232 1069 106T679 -20Q446 -20 324 74T202 348Q202 403 212 453L355 1262L188 1288L197 1341H733L724 1288L547 1262L406
457Q396 403 396 355Q396 92 696 92Q887 92 1007 187T1157 453L1299 1262ZM821 1452L826 1485L1070 1757H1283L1277 1720L876 1452H821Z" />
<glyph unicode="&#xdb;" glyph-name="Ucircumflex" horiz-adv-x="1479" d="M1299 1262L1124 1288L1133 1341H1590L1581 1288L1404 1262L1263 461Q1223 232 1069 106T679 -20Q446 -20 324 74T202 348Q202 403 212 453L355 1262L188 1288L197 1341H733L724 1288L547
1262L406 457Q396 403 396 355Q396 92 696 92Q887 92 1007 187T1157 453L1299 1262ZM662 1452L667 1485L902 1758H1115L1254 1485L1249 1452H1202L996 1635L726 1452H662Z" />
<glyph unicode="&#xdc;" glyph-name="Udieresis" horiz-adv-x="1479" d="M1299 1262L1124 1288L1133 1341H1590L1581 1288L1404 1262L1263 461Q1223 232 1069 106T679 -20Q446 -20 324 74T202 348Q202 403 212 453L355 1262L188 1288L197 1341H733L724 1288L547
1262L406 457Q396 403 396 355Q396 92 696 92Q887 92 1007 187T1157 453L1299 1262ZM1260 1596Q1260 1554 1232 1525T1162 1495Q1120 1495 1091 1526T1062 1596Q1062 1638 1091 1667T1162 1696Q1204 1696 1232 1667T1260 1596ZM904 1596Q904 1554 876 1525T806
1495Q765 1495 735 1525T705 1596Q705 1638 736 1667T806 1696Q848 1696 876 1667T904 1596Z" />
<glyph unicode="&#xdd;" glyph-name="Yacute" horiz-adv-x="1139" d="M609 80L818 53L808 0H189L199 53L416 80L494 522L264 1262L117 1288L127 1341H674L664 1288L470 1262L658 635L1051 1262L875 1288L885 1341H1321L1311 1288L1160 1262L688 528L609 80ZM638
1452L643 1485L887 1757H1100L1094 1720L693 1452H638Z" />
<glyph unicode="&#xde;" glyph-name="Thorn" horiz-adv-x="1251" d="M566 358Q954 358 954 715Q954 858 882 925T663 993H515L403 358H566ZM703 1083Q919 1083 1036 994T1153 728Q1153 504 1007 386T588 268H387L354 80L573 53L563 0H-11L-1 53L161 80L370 1262L215
1288L225 1341H749L739 1288L563 1262L531 1083H703Z" />
<glyph unicode="&#xdf;" glyph-name="germandbls" horiz-adv-x="1024" d="M675 775Q675 720 703 676T801 575Q865 523 896 465T927 333Q927 168 834 74T570 -20Q508 -20 442 -7T345 27L379 219H424L434 125Q452 97 491 78T582 59Q668 59 717 118T766 277Q766 336
736 384T642 483Q579 533 548 588T517 712Q517 991 820 1047Q835 1132 835 1192Q835 1286 797 1324T683 1362Q487 1362 444 1110L249 0H-57L-50 45L95 70L270 1061Q304 1249 411 1345T697 1442Q847 1442 919 1374T991 1157Q991 1087 975 997Q843 983 790 961T706
895T675 775Z" />
<glyph unicode="&#xe0;" glyph-name="agrave" horiz-adv-x="1024" d="M789 70L902 45L894 0H609L638 156Q469 -21 329 -21Q208 -21 135 68T61 313Q61 488 137 640T342 878T620 964Q741 964 848 922L893 956H947L789 70ZM760 837Q721 864 687 874T603 885Q503 885
420 810T288 606T240 339Q240 232 284 168T404 104Q517 104 651 243L760 837ZM720 1118L413 1386L419 1423H622L780 1151L775 1118H720Z" />
<glyph unicode="&#xe1;" glyph-name="aacute" horiz-adv-x="1024" d="M789 70L902 45L894 0H609L638 156Q469 -21 329 -21Q208 -21 135 68T61 313Q61 488 137 640T342 878T620 964Q741 964 848 922L893 956H947L789 70ZM760 837Q721 864 687 874T603 885Q503 885
420 810T288 606T240 339Q240 232 284 168T404 104Q517 104 651 243L760 837ZM516 1118L521 1151L765 1423H978L972 1386L571 1118H516Z" />
<glyph unicode="&#xe2;" glyph-name="acircumflex" horiz-adv-x="1024" d="M789 70L902 45L894 0H609L638 156Q469 -21 329 -21Q208 -21 135 68T61 313Q61 488 137 640T342 878T620 964Q741 964 848 922L893 956H947L789 70ZM760 837Q721 864 687 874T603 885Q503
885 420 810T288 606T240 339Q240 232 284 168T404 104Q517 104 651 243L760 837ZM345 1118L350 1151L585 1424H798L937 1151L932 1118H885L679 1301L409 1118H345Z" />
<glyph unicode="&#xe3;" glyph-name="atilde" horiz-adv-x="1024" d="M789 70L902 45L894 0H609L638 156Q469 -21 329 -21Q208 -21 135 68T61 313Q61 488 137 640T342 878T620 964Q741 964 848 922L893 956H947L789 70ZM760 837Q721 864 687 874T603 885Q503 885
420 810T288 606T240 339Q240 232 284 168T404 104Q517 104 651 243L760 837ZM780 1119Q732 1119 696 1140T628 1188T567 1236T504 1258Q472 1258 452 1247T417 1215T383 1139H331Q363 1266 421 1323T569 1381Q617 1381 654 1360T722 1312T783 1264T845 1242Q887
1242 915 1266T966 1360H1018Q986 1235 928 1177T780 1119Z" />
<glyph unicode="&#xe4;" glyph-name="adieresis" horiz-adv-x="1024" d="M789 70L902 45L894 0H609L638 156Q469 -21 329 -21Q208 -21 135 68T61 313Q61 488 137 640T342 878T620 964Q741 964 848 922L893 956H947L789 70ZM760 837Q721 864 687 874T603 885Q503
885 420 810T288 606T240 339Q240 232 284 168T404 104Q517 104 651 243L760 837ZM937 1231Q937 1189 909 1160T839 1130Q797 1130 768 1161T739 1231Q739 1273 768 1302T839 1331Q881 1331 909 1302T937 1231ZM581 1231Q581 1189 553 1160T483 1130Q442 1130 412
1160T382 1231Q382 1273 413 1302T483 1331Q525 1331 553 1302T581 1231Z" />
<glyph unicode="&#xe5;" glyph-name="aring" horiz-adv-x="1024" d="M789 70L902 45L894 0H609L638 156Q469 -21 329 -21Q208 -21 135 68T61 313Q61 488 137 640T342 878T620 964Q741 964 848 922L893 956H947L789 70ZM760 837Q721 864 687 874T603 885Q503 885
420 810T288 606T240 339Q240 232 284 168T404 104Q517 104 651 243L760 837ZM871 1277Q871 1193 812 1134T668 1074Q584 1074 525 1133T465 1277Q465 1361 524 1420T668 1480Q752 1480 811 1421T871 1277ZM791 1277Q791 1328 755 1364T668 1400Q617 1400 581 1364T545
1277Q545 1225 582 1190T668 1154Q716 1154 753 1189T791 1277Z" />
<glyph unicode="&#xe6;" glyph-name="ae" horiz-adv-x="1366" d="M1320 771Q1320 680 1254 603T1062 476T779 413Q771 359 771 296Q771 84 956 84Q1077 84 1217 184L1246 142Q1060 -20 890 -20Q787 -20 725 19T621 147Q541 69 457 24T304 -21Q198 -21 131 72T63
317Q63 489 137 641T338 878T618 964Q680 964 740 943T841 891Q934 965 1077 965Q1192 965 1256 913T1320 771ZM391 104Q437 104 494 135T603 216Q595 272 595 309Q595 604 767 819Q678 885 591 885Q500 885 420 805T290 595T241 335Q241 225 282 165T391 104ZM1145
774Q1145 827 1121 857T1048 888Q957 888 890 780T789 476Q960 493 1052 572T1145 774Z" />
<glyph unicode="&#xe7;" glyph-name="ccedilla" horiz-adv-x="909" d="M774 142Q693 67 592 24T400 -20Q239 -20 151 73T63 330Q63 504 133 647T332 878T604 965Q675 965 755 950T887 913L842 651H787L771 825Q708 888 603 888Q507 888 424 817T290 619T240 340Q240
84 446 84Q589 84 744 184L774 142ZM561 -212Q561 -310 490 -368T282 -427Q210 -427 149 -406L172 -331Q220 -347 269 -347Q330 -347 368 -320T406 -235Q406 -191 372 -162T273 -126L341 27H427L394 -55Q474 -63 517 -104T561 -212Z" />
<glyph unicode="&#xe8;" glyph-name="egrave" horiz-adv-x="909" d="M863 760Q863 624 695 528T244 413L240 340Q240 213 293 149T452 84Q542 84 618 114T760 184L789 142Q697 64 595 22T400 -20Q238 -20 151 70T63 330Q63 497 133 641T329 875T591 965Q714 965
788 909T863 760ZM252 476Q450 491 569 569T688 760Q688 816 658 852T569 888Q499 888 433 831T319 678T252 476ZM673 1118L366 1386L372 1423H575L733 1151L728 1118H673Z" />
<glyph unicode="&#xe9;" glyph-name="eacute" horiz-adv-x="909" d="M863 760Q863 624 695 528T244 413L240 340Q240 213 293 149T452 84Q542 84 618 114T760 184L789 142Q697 64 595 22T400 -20Q238 -20 151 70T63 330Q63 497 133 641T329 875T591 965Q714 965
788 909T863 760ZM252 476Q450 491 569 569T688 760Q688 816 658 852T569 888Q499 888 433 831T319 678T252 476ZM521 1118L526 1151L770 1423H983L977 1386L576 1118H521Z" />
<glyph unicode="&#xea;" glyph-name="ecircumflex" horiz-adv-x="909" d="M863 760Q863 624 695 528T244 413L240 340Q240 213 293 149T452 84Q542 84 618 114T760 184L789 142Q697 64 595 22T400 -20Q238 -20 151 70T63 330Q63 497 133 641T329 875T591 965Q714
965 788 909T863 760ZM252 476Q450 491 569 569T688 760Q688 816 658 852T569 888Q499 888 433 831T319 678T252 476ZM315 1118L320 1151L555 1424H768L907 1151L902 1118H855L649 1301L379 1118H315Z" />
<glyph unicode="&#xeb;" glyph-name="edieresis" horiz-adv-x="909" d="M863 760Q863 624 695 528T244 413L240 340Q240 213 293 149T452 84Q542 84 618 114T760 184L789 142Q697 64 595 22T400 -20Q238 -20 151 70T63 330Q63 497 133 641T329 875T591 965Q714
965 788 909T863 760ZM252 476Q450 491 569 569T688 760Q688 816 658 852T569 888Q499 888 433 831T319 678T252 476ZM925 1231Q925 1189 897 1160T827 1130Q785 1130 756 1161T727 1231Q727 1273 756 1302T827 1331Q869 1331 897 1302T925 1231ZM569 1231Q569
1189 541 1160T471 1130Q430 1130 400 1160T370 1231Q370 1273 401 1302T471 1331Q513 1331 541 1302T569 1231Z" />
<glyph unicode="&#xec;" glyph-name="igrave" horiz-adv-x="569" d="M287 70L444 45L436 0H109L262 870L133 895L141 940H440L287 70ZM430 1118L123 1386L129 1423H332L490 1151L485 1118H430Z" />
<glyph unicode="&#xed;" glyph-name="iacute" horiz-adv-x="569" d="M287 70L444 45L436 0H109L262 870L133 895L141 940H440L287 70ZM259 1118L264 1151L508 1423H721L715 1386L314 1118H259Z" />
<glyph unicode="&#xee;" glyph-name="icircumflex" horiz-adv-x="569" d="M287 70L444 45L436 0H109L262 870L133 895L141 940H440L287 70ZM323 1118L328 1151L563 1424H776L915 1151L910 1118H863L657 1301L387 1118H323Z" />
<glyph unicode="&#xef;" glyph-name="idieresis" horiz-adv-x="569" d="M287 70L444 45L436 0H109L262 870L133 895L141 940H440L287 70ZM909 1231Q909 1189 881 1160T811 1130Q769 1130 740 1161T711 1231Q711 1273 740 1302T811 1331Q853 1331 881 1302T909
1231ZM553 1231Q553 1189 525 1160T455 1130Q414 1130 384 1160T354 1231Q354 1273 385 1302T455 1331Q497 1331 525 1302T553 1231Z" />
<glyph unicode="&#xf0;" glyph-name="eth" horiz-adv-x="1024" d="M959 658Q959 331 819 153T423 -25Q256 -25 157 76T57 348Q57 501 126 631T317 834T590 907Q693 907 781 859Q752 1061 648 1178L322 1006L339 1102L590 1233Q501 1307 391 1343L405 1421Q577
1377 696 1288L990 1444L973 1350L759 1235Q854 1152 906 997T959 658ZM567 825Q479 825 403 761T282 581T237 331Q237 200 290 130T438 59Q526 59 603 124T726 303T771 548Q771 684 719 754T567 825Z" />
<glyph unicode="&#xf1;" glyph-name="ntilde" horiz-adv-x="1024" d="M755 748Q755 793 731 821T655 849Q581 849 494 786T349 630L239 0H73L226 871L108 896L116 941H394L367 749Q451 857 541 911T718 965Q819 965 870 911T921 754Q921 740 917 711T808 69L939
45L931 0H630L732 582Q755 709 755 748ZM740 1119Q692 1119 656 1140T588 1188T527 1236T464 1258Q432 1258 412 1247T377 1215T343 1139H291Q323 1266 381 1323T529 1381Q577 1381 614 1360T682 1312T743 1264T805 1242Q847 1242 875 1266T926 1360H978Q946 1235
888 1177T740 1119Z" />
<glyph unicode="&#xf2;" glyph-name="ograve" horiz-adv-x="1024" d="M237 340Q237 205 289 134T436 62Q527 62 609 135T740 334T788 606Q788 744 736 815T585 887Q494 887 413 814T284 615T237 340ZM427 -20Q261 -20 161 86T61 374Q61 535 130 672T321 887T597
965Q763 965 863 859T963 571Q963 410 894 273T703 58T427 -20ZM693 1118L386 1386L392 1423H595L753 1151L748 1118H693Z" />
<glyph unicode="&#xf3;" glyph-name="oacute" horiz-adv-x="1024" d="M237 340Q237 205 289 134T436 62Q527 62 609 135T740 334T788 606Q788 744 736 815T585 887Q494 887 413 814T284 615T237 340ZM427 -20Q261 -20 161 86T61 374Q61 535 130 672T321 887T597
965Q763 965 863 859T963 571Q963 410 894 273T703 58T427 -20ZM526 1118L531 1151L775 1423H988L982 1386L581 1118H526Z" />
<glyph unicode="&#xf4;" glyph-name="ocircumflex" horiz-adv-x="1024" d="M237 340Q237 205 289 134T436 62Q527 62 609 135T740 334T788 606Q788 744 736 815T585 887Q494 887 413 814T284 615T237 340ZM427 -20Q261 -20 161 86T61 374Q61 535 130 672T321 887T597
965Q763 965 863 859T963 571Q963 410 894 273T703 58T427 -20ZM323 1118L328 1151L563 1424H776L915 1151L910 1118H863L657 1301L387 1118H323Z" />
<glyph unicode="&#xf5;" glyph-name="otilde" horiz-adv-x="1024" d="M237 340Q237 205 289 134T436 62Q527 62 609 135T740 334T788 606Q788 744 736 815T585 887Q494 887 413 814T284 615T237 340ZM427 -20Q261 -20 161 86T61 374Q61 535 130 672T321 887T597
965Q763 965 863 859T963 571Q963 410 894 273T703 58T427 -20ZM763 1119Q715 1119 679 1140T611 1188T550 1236T487 1258Q455 1258 435 1247T400 1215T366 1139H314Q346 1266 404 1323T552 1381Q600 1381 637 1360T705 1312T766 1264T828 1242Q870 1242 898 1266T949
1360H1001Q969 1235 911 1177T763 1119Z" />
<glyph unicode="&#xf6;" glyph-name="odieresis" horiz-adv-x="1024" d="M237 340Q237 205 289 134T436 62Q527 62 609 135T740 334T788 606Q788 744 736 815T585 887Q494 887 413 814T284 615T237 340ZM427 -20Q261 -20 161 86T61 374Q61 535 130 672T321 887T597
965Q763 965 863 859T963 571Q963 410 894 273T703 58T427 -20ZM926 1231Q926 1189 898 1160T828 1130Q786 1130 757 1161T728 1231Q728 1273 757 1302T828 1331Q870 1331 898 1302T926 1231ZM570 1231Q570 1189 542 1160T472 1130Q431 1130 401 1160T371 1231Q371
1273 402 1302T472 1331Q514 1331 542 1302T570 1231Z" />
<glyph unicode="&#xf7;" glyph-name="divide" horiz-adv-x="1124" d="M688 1063Q688 1023 660 995T592 967Q551 967 523 995T495 1063Q495 1103 523 1131T592 1159Q632 1159 660 1131T688 1063ZM688 297Q688 257 660 229T592 201Q551 201 523 229T495 297Q495
337 523 365T592 393Q632 393 660 365T688 297ZM1069 731V629H116V731H1069Z" />
<glyph unicode="&#xf8;" glyph-name="oslash" horiz-adv-x="1024" d="M427 -20Q291 -20 199 52L80 -84H-27L142 108Q61 214 61 374Q61 535 130 672T321 887T597 965Q735 965 828 890L945 1022H1049L884 833Q963 729 963 571Q963 410 894 273T703 58T427 -20ZM579
890Q488 890 410 820T286 626T241 354Q241 286 253 234L742 792Q690 890 579 890ZM783 590Q783 653 772 706L285 150Q337 59 442 59Q533 59 612 129T737 322T783 590Z" />
<glyph unicode="&#xf9;" glyph-name="ugrave" horiz-adv-x="1024" d="M268 193Q268 148 292 120T368 92Q443 92 530 154T673 308L784 940H950L797 70L915 45L907 0H629L656 193Q573 86 483 31T305 -24Q204 -24 153 30T102 187Q102 202 107 240T215 871L104 895L112
940H393L291 359Q268 233 268 193ZM666 1118L359 1386L365 1423H568L726 1151L721 1118H666Z" />
<glyph unicode="&#xfa;" glyph-name="uacute" horiz-adv-x="1024" d="M268 193Q268 148 292 120T368 92Q443 92 530 154T673 308L784 940H950L797 70L915 45L907 0H629L656 193Q573 86 483 31T305 -24Q204 -24 153 30T102 187Q102 202 107 240T215 871L104 895L112
940H393L291 359Q268 233 268 193ZM495 1118L500 1151L744 1423H957L951 1386L550 1118H495Z" />
<glyph unicode="&#xfb;" glyph-name="ucircumflex" horiz-adv-x="1024" d="M268 193Q268 148 292 120T368 92Q443 92 530 154T673 308L784 940H950L797 70L915 45L907 0H629L656 193Q573 86 483 31T305 -24Q204 -24 153 30T102 187Q102 202 107 240T215 871L104
895L112 940H393L291 359Q268 233 268 193ZM312 1118L317 1151L552 1424H765L904 1151L899 1118H852L646 1301L376 1118H312Z" />
<glyph unicode="&#xfc;" glyph-name="udieresis" horiz-adv-x="1024" d="M268 193Q268 148 292 120T368 92Q443 92 530 154T673 308L784 940H950L797 70L915 45L907 0H629L656 193Q573 86 483 31T305 -24Q204 -24 153 30T102 187Q102 202 107 240T215 871L104
895L112 940H393L291 359Q268 233 268 193ZM914 1231Q914 1189 886 1160T816 1130Q774 1130 745 1161T716 1231Q716 1273 745 1302T816 1331Q858 1331 886 1302T914 1231ZM558 1231Q558 1189 530 1160T460 1130Q419 1130 389 1160T359 1231Q359 1273 390 1302T460
1331Q502 1331 530 1302T558 1231Z" />
<glyph unicode="&#xfd;" glyph-name="yacute" horiz-adv-x="909" d="M52 940H308L453 208L688 614Q752 726 752 807Q752 844 731 866T686 895L694 940H884Q910 917 910 877Q910 798 827 657L431 -10Q317 -204 251 -285T119 -404T-22 -442Q-103 -442 -171 -424L-134
-221H-89L-73 -317Q-48 -340 9 -340Q144 -340 294 -70L339 12L156 870L44 895L52 940ZM432 1118L437 1151L681 1423H894L888 1386L487 1118H432Z" />
<glyph unicode="&#xfe;" glyph-name="thorn" horiz-adv-x="1024" d="M355 788Q538 965 680 965Q808 965 885 876T962 631Q962 459 886 308T676 68T382 -20Q334 -20 285 -13T211 2L200 -88L150 -365L310 -389L302 -436H-144L-136 -389L-13 -365L290 1352L157 1376L165
1421H468L355 788ZM233 107Q293 59 399 59Q506 59 591 131T730 336T783 605Q783 715 736 777T607 840Q553 840 479 802T342 701L233 107Z" />
<glyph unicode="&#xff;" glyph-name="ydieresis" horiz-adv-x="909" d="M52 940H308L453 208L688 614Q752 726 752 807Q752 844 731 866T686 895L694 940H884Q910 917 910 877Q910 798 827 657L431 -10Q317 -204 251 -285T119 -404T-22 -442Q-103 -442 -171 -424L-134
-221H-89L-73 -317Q-48 -340 9 -340Q144 -340 294 -70L339 12L156 870L44 895L52 940ZM867 1231Q867 1189 839 1160T769 1130Q727 1130 698 1161T669 1231Q669 1273 698 1302T769 1331Q811 1331 839 1302T867 1231ZM511 1231Q511 1189 483 1160T413 1130Q372 1130
342 1160T312 1231Q312 1273 343 1302T413 1331Q455 1331 483 1302T511 1231Z" />
<glyph unicode="&#x2013;" glyph-name="endash" horiz-adv-x="1024" d="M1038 528V426H-14V528H1038Z" />
<glyph unicode="&#x2014;" glyph-name="emdash" horiz-adv-x="1821" d="M1831 528V426H-14V528H1831Z" />
<glyph unicode="&#x2018;" glyph-name="quoteleft" horiz-adv-x="682" d="M302 1005Q302 1136 385 1227T617 1362V1285Q431 1226 431 1117Q431 1089 450 1075T493 1047T536 1011T556 947Q556 893 522 865T435 836Q374 836 338 881T302 1005Z" />
<glyph unicode="&#x2019;" glyph-name="quoteright" horiz-adv-x="682" d="M620 1193Q620 1062 537 971T305 836V913Q491 972 491 1081Q491 1109 472 1123T429 1151T386 1187T366 1251Q366 1305 400 1333T487 1362Q548 1362 584 1317T620 1193Z" />
<glyph unicode="&#x201a;" glyph-name="quotesinglbase" horiz-adv-x="682" d="M483 42Q483 -89 400 -180T168 -315V-238Q354 -179 354 -70Q354 -42 335 -28T292 0T249 36T229 100Q229 154 263 182T350 211Q411 211 447 166T483 42Z" />
<glyph unicode="&#x201c;" glyph-name="quotedblleft" horiz-adv-x="1139" d="M713 1005Q713 1136 796 1227T1028 1362V1285Q842 1226 842 1117Q842 1089 861 1075T904 1047T947 1011T967 947Q967 893 933 865T846 836Q785 836 749 881T713 1005ZM300 1005Q300
1136 383 1227T615 1362V1285Q429 1226 429 1117Q429 1089 448 1075T491 1047T534 1011T554 947Q554 893 520 865T433 836Q372 836 336 881T300 1005Z" />
<glyph unicode="&#x201d;" glyph-name="quotedblright" horiz-adv-x="1139" d="M620 1193Q620 1062 537 971T305 836V913Q491 972 491 1081Q491 1109 472 1123T429 1151T386 1187T366 1251Q366 1305 400 1333T487 1362Q548 1362 584 1317T620 1193ZM1033 1193Q1033
1062 950 971T718 836V913Q904 972 904 1081Q904 1109 885 1123T842 1151T799 1187T779 1251Q779 1305 813 1333T900 1362Q961 1362 997 1317T1033 1193Z" />
<glyph unicode="&#x201e;" glyph-name="quotedblbase" horiz-adv-x="1139" d="M398 42Q398 -89 315 -180T83 -315V-238Q269 -179 269 -70Q269 -42 250 -28T207 0T164 36T144 100Q144 154 178 182T265 211Q326 211 362 166T398 42ZM811 42Q811 -89 728 -180T496
-315V-238Q682 -179 682 -70Q682 -42 663 -28T620 0T577 36T557 100Q557 154 591 182T678 211Q739 211 775 166T811 42Z" />
<glyph unicode="&#x2022;" glyph-name="bullet" horiz-adv-x="717" d="M623 678Q623 576 552 505T379 434Q278 434 207 505T136 678Q136 780 207 851T379 922Q481 922 552 851T623 678Z" />
<glyph unicode="&#x2039;" glyph-name="guilsinglleft" horiz-adv-x="682" d="M539 852H600L280 457L463 74H402L111 430L122 496L539 852Z" />
<glyph unicode="&#x203a;" glyph-name="guilsinglright" horiz-adv-x="682" d="M143 74H82L404 470L219 852H280L572 496L561 430L143 74Z" />
</font>
</defs>
</svg>
