<?xml version="1.0" standalone="no"?>
<!DOCTYPE svg PUBLIC "-//W3C//DTD SVG 1.1//EN" "http://www.w3.org/Graphics/SVG/1.1/DTD/svg11.dtd">
<svg xmlns="http://www.w3.org/2000/svg">
<defs >
<font id="ArchivoNarrow" horiz-adv-x="487" ><font-face
    font-family="Archivo Narrow"
    units-per-em="1000"
    panose-1="2 11 8 6 2 2 2 9 11 4"
    ascent="878"
    descent="-210"
    alphabetic="0" />
<glyph unicode=" " glyph-name="space" horiz-adv-x="228" />
<glyph unicode="!" glyph-name="exclam" horiz-adv-x="273" d="M123 686H276L171 197H89L123 686ZM54 137H192L172 0H34L54 137Z" />
<glyph unicode="&quot;" glyph-name="quotedbl" horiz-adv-x="389" d="M84 539L105 686H227L206 539L163 407H84V539ZM265 539L286 686H408L387 539L344 407H265V539Z" />
<glyph unicode="#" glyph-name="numbersign" horiz-adv-x="456" d="M85 195H22V279H104L135 420H61V504H154L198 698H286L242 504H317L361 698H449L405 504H467V420H386L355 279H428V195H336L292 0H204L248 195H173L129 0H41L85 195ZM267 279L298 420H223L192 279H267Z" />
<glyph unicode="$" glyph-name="dollar" horiz-adv-x="456" d="M176 69Q105 77 65 112T24 203Q24 217 26 231T30 250H144Q143 247 142 240T140 225Q140 173 189 161L209 303Q166 321 139 336T92 380T72 453Q72 526 123 569T254 616L269 723H318L303 615Q377 606
409 561T442 451H329Q329 480 321 498T290 523L271 393Q321 374 351 359T401 315T422 244Q422 156 366 113T225 67L209 -49H160L176 69ZM241 525Q218 520 203 505T188 467Q188 434 225 414L241 525ZM265 160T284 175T303 219Q303 240 291 254T256 282L238 157Q265
160 284 175Z" />
<glyph unicode="%" glyph-name="percent" horiz-adv-x="729" d="M132 337T100 365T68 461Q68 584 112 641T225 698Q288 698 320 670T352 573Q352 479 318 408T195 337Q132 337 100 365ZM593 686H679L163 0H78L593 686ZM223 410T237 435T258 510Q263 549 263 569Q263
596 255 610T225 625Q197 625 184 600T162 525Q156 488 156 466Q156 410 195 410Q223 410 237 435ZM469 -12T437 16T405 112Q405 235 449 292T562 349Q625 349 657 321T689 224Q689 130 655 59T532 -12Q469 -12 437 16ZM560 61T574 86T595 161Q600 200 600 220Q600
247 592 261T562 276Q534 276 521 251T499 176Q493 139 493 117Q493 61 532 61Q560 61 574 86Z" />
<glyph unicode="&amp;" glyph-name="ampersand" horiz-adv-x="592" d="M149 -12T91 32T32 155Q32 232 72 285T173 352V356Q91 399 91 482Q91 550 123 599T211 673T336 698Q428 698 483 655T539 538Q539 528 533 482H414Q418 508 418 521Q418 597 330 597Q277 597
246 567T214 485Q214 445 237 422T298 399H339L325 298H287Q232 298 195 270T157 173Q157 131 182 110T254 89Q306 89 336 115T373 191L402 399H599L585 298H507L493 194Q481 99 417 44T248 -12Q149 -12 91 32Z" />
<glyph unicode="&apos;" glyph-name="quotesingle" horiz-adv-x="195" d="M84 539L105 686H227L206 539L163 407H84V539Z" />
<glyph unicode="(" glyph-name="parenleft" horiz-adv-x="273" d="M82 -85T58 2T34 183Q34 232 42 288Q59 411 114 527T254 735H333Q249 613 197 465T145 178Q145 89 162 2T208 -157H129Q82 -85 58 2Z" />
<glyph unicode=")" glyph-name="parenright" horiz-adv-x="273" d="M37 -35T89 113T141 400Q141 489 124 576T78 735H157Q204 663 228 576T252 395Q252 346 244 290Q227 167 172 51T32 -157H-47Q37 -35 89 113Z" />
<glyph unicode="*" glyph-name="asterisk" horiz-adv-x="319" d="M168 483L76 423L47 491L145 533L59 577L107 643L183 584L187 686H265L241 585L333 643L363 577L263 533L351 491L302 423L226 483L222 381H144L168 483Z" />
<glyph unicode="+" glyph-name="plus" horiz-adv-x="479" d="M179 203H25L40 307H194L222 511H325L297 307H452L437 203H282L254 0H151L179 203Z" />
<glyph unicode="," glyph-name="comma" horiz-adv-x="228" d="M67 0H16L35 137H173L156 12L66 -156H-6L67 0Z" />
<glyph unicode="-" glyph-name="hyphen" horiz-adv-x="273" d="M30 329H271L254 211H13L30 329Z" />
<glyph unicode="." glyph-name="period" horiz-adv-x="228" d="M34 137H172L153 0H15L34 137Z" />
<glyph unicode="/" glyph-name="slash" horiz-adv-x="228" d="M210 735H295L43 -49H-42L210 735Z" />
<glyph unicode="0" glyph-name="zero" horiz-adv-x="456" d="M118 -12T76 35T33 199Q33 259 45 343Q63 479 95 557T172 666T280 698Q363 698 405 650T448 485Q448 419 437 343Q419 207 386 130T308 20T201 -12Q118 -12 76 35ZM234 89T253 112T284 181T308 308Q320
396 324 435T329 500Q329 550 317 573T276 597Q246 597 227 574T196 504T173 378L167 334Q151 234 151 177Q151 131 163 110T205 89Q234 89 253 112Z" />
<glyph unicode="1" glyph-name="one" horiz-adv-x="456" d="M25 101H177L238 529H84L95 609Q140 614 205 635T320 686H378L296 101H436L422 0H12L25 101Z" />
<glyph unicode="2" glyph-name="two" horiz-adv-x="456" d="M0 24Q15 119 92 211Q117 241 148 272T189 313Q238 360 266 391T312 458T331 535Q331 560 318 577T276 595Q241 595 221 566T194 491L189 450H68Q68 517 93 574T168 664T287 698Q363 698 409 662T457
550Q457 480 426 417T352 307T246 200Q234 188 221 176T193 148Q173 127 164 112H400L384 0H-4L0 24Z" />
<glyph unicode="3" glyph-name="three" horiz-adv-x="456" d="M119 -12T72 32T24 154Q24 172 29 212H153Q148 173 148 163Q148 127 164 108T211 89Q251 89 276 122T301 221Q301 298 233 298H200L214 399H249Q270 399 289 414T321 460T333 533Q333 597 282 597Q250
597 230 570T202 482H79Q85 551 113 599T186 673T284 698Q365 698 411 658T458 542Q458 471 428 427T346 356V352Q382 337 403 304T425 220Q425 150 396 98T318 17T209 -12Q119 -12 72 32Z" />
<glyph unicode="4" glyph-name="four" horiz-adv-x="456" d="M247 155H3L17 251Q133 418 247 698H369Q340 616 292 526T195 362T119 256H261L278 378Q303 417 329 470T370 564H423L379 256H449L435 155H366L344 0H225L247 155Z" />
<glyph unicode="5" glyph-name="five" horiz-adv-x="456" d="M120 -12T72 35T24 168Q24 189 27 213H151Q148 194 148 177Q148 135 164 112T210 88Q234 88 257 108T294 167T308 260Q308 302 293 325T253 348Q205 348 172 290L59 306L135 686H464L448 574H224L191
412Q238 446 293 446Q356 446 394 403T432 278Q432 189 402 123T321 23T205 -12Q120 -12 72 35Z" />
<glyph unicode="6" glyph-name="six" horiz-adv-x="456" d="M128 -12T83 37T38 202Q38 254 47 323Q74 528 132 613T284 698Q366 698 406 653T446 530Q446 500 442 475H320Q324 500 324 526Q324 562 313 579T277 597Q247 597 229 571T200 500T177 377Q197 402 227
416T289 431Q357 431 392 386T427 264Q427 182 399 120T322 23T215 -12Q128 -12 83 37ZM247 89T266 117T294 182T303 250Q303 289 290 311T248 333Q208 333 183 288T158 173Q158 134 172 112T214 89Q247 89 266 117Z" />
<glyph unicode="7" glyph-name="seven" horiz-adv-x="456" d="M91 154T170 306T351 574H74L90 686H496L484 605Q244 297 211 51Q211 51 208 24L205 0H69Q91 154 170 306Z" />
<glyph unicode="8" glyph-name="eight" horiz-adv-x="456" d="M110 -12T66 32T21 149Q21 214 49 270T134 352Q107 371 94 401T80 470Q80 532 104 584T173 667T280 698Q364 698 406 652T449 538Q449 484 423 433T351 352Q418 315 418 225Q418 160 394 106T320 20T202
-12Q110 -12 66 32ZM283 400T305 434T328 531Q328 564 315 581T277 598Q238 598 219 558T199 469Q199 400 250 400Q283 400 305 434ZM246 88T271 124T296 225Q296 262 281 281T236 301Q190 301 168 259T145 163Q145 126 161 107T206 88Q246 88 271 124Z" />
<glyph unicode="9" glyph-name="nine" horiz-adv-x="456" d="M118 -12T78 33T38 156Q38 186 42 211H164Q160 186 160 160Q160 124 171 107T207 89Q237 89 255 115T284 186T307 309Q287 284 257 270T195 255Q127 255 92 300T57 422Q57 504 85 566T162 663T269 698Q356
698 401 649T446 484Q446 432 437 363Q410 158 352 73T200 -12Q118 -12 78 33ZM276 353T301 398T326 513Q326 552 312 574T270 597Q237 597 218 569T190 504T181 436Q181 397 194 375T236 353Q276 353 301 398Z" />
<glyph unicode=":" glyph-name="colon" horiz-adv-x="273" d="M96 526H234L215 389H77L96 526ZM42 137H180L161 0H23L42 137Z" />
<glyph unicode=";" glyph-name="semicolon" horiz-adv-x="273" d="M102 526H240L221 389H83L102 526ZM78 0H27L46 137H184L167 12L77 -156H5L78 0Z" />
<glyph unicode="&lt;" glyph-name="less" horiz-adv-x="479" d="M25 197L42 324L483 531L467 413L135 261L424 109L408 -9L25 197Z" />
<glyph unicode="=" glyph-name="equal" horiz-adv-x="479" d="M55 412H467L452 308H40L55 412ZM25 199H437L422 96H10L25 199Z" />
<glyph unicode="&gt;" glyph-name="greater" horiz-adv-x="479" d="M12 109L345 261L55 413L71 531L454 324L437 197L-3 -9L12 109Z" />
<glyph unicode="?" glyph-name="question" horiz-adv-x="501" d="M187 240Q192 276 211 304T265 372Q305 417 324 449T344 524Q344 550 330 570T281 591Q235 591 214 551T192 459H67Q67 524 93 578T171 665T294 698Q379 698 428 657T477 548Q477 498 464 461T431
399T381 341Q348 306 332 282T310 225L306 197H181L187 240ZM168 137H305L285 0H148L168 137Z" />
<glyph unicode="@" glyph-name="at" horiz-adv-x="800" d="M33 -154T33 194Q33 357 84 470T231 640T458 698Q587 698 658 658T757 546T784 369Q784 283 760 204T685 73T558 22Q513 22 487 38T449 77Q431 50 404 36T351 22Q289 22 256 65T222 191Q222 300 247 374T314
485T403 521Q475 521 502 453L521 510H605L601 481Q551 154 551 149Q551 128 560 119T590 109Q635 109 665 158Q690 197 703 256T716 368Q716 463 690 522Q665 577 613 605T475 633Q303 633 202 530T101 196Q101 -89 379 -89Q419 -89 448 -85T493 -76T511 -69L503
-136Q489 -141 455 -147T388 -154Q33 -154 33 194ZM429 115T450 189T471 340Q471 384 461 406T423 428Q389 428 368 387T339 294T330 205Q330 160 341 138T379 115Q429 115 450 189Z" />
<glyph unicode="A" glyph-name="A" horiz-adv-x="592" d="M288 686H435L558 0H428L406 135H161L102 0H-26L288 686ZM387 249L357 437Q352 470 349 513T345 570H341Q337 556 323 512T295 437L212 249H387Z" />
<glyph unicode="B" glyph-name="B" horiz-adv-x="592" d="M124 686H409Q486 686 533 644T581 534Q581 471 544 425T454 360L453 356Q497 341 524 301T551 204Q551 143 520 97T436 25T327 0H28L124 686ZM345 408Q392 408 420 436T448 503Q448 537 430 554T377 572H235L212
408H345ZM321 114Q365 114 393 141T422 218Q422 253 401 274T337 295H196L170 114H321Z" />
<glyph unicode="C" glyph-name="C" horiz-adv-x="592" d="M169 -12T107 53T45 250Q45 364 76 466T177 633T353 698Q464 698 526 634T589 444V431H459V449Q459 515 431 551T353 588Q285 588 245 535T190 407T174 255Q174 179 202 139T287 98Q350 98 388 141T441
254H566Q541 137 470 63T284 -12Q169 -12 107 53Z" />
<glyph unicode="D" glyph-name="D" horiz-adv-x="592" d="M124 686H335Q451 686 513 620T576 426Q576 324 544 227T441 65T264 0H28L124 686ZM253 114Q324 114 367 161T429 278T447 417Q447 493 413 532T317 572H235L171 114H253Z" />
<glyph unicode="E" glyph-name="E" horiz-adv-x="547" d="M124 686H556L540 572H235L212 408H474L458 294H196L170 114H482L466 0H28L124 686Z" />
<glyph unicode="F" glyph-name="F" horiz-adv-x="501" d="M125 686H523L508 572H235L211 399H443L427 285H195L155 0H28L125 686Z" />
<glyph unicode="G" glyph-name="G" horiz-adv-x="638" d="M322 373H604L552 0H470L458 76Q383 -12 269 -12Q161 -12 103 53T45 250Q45 360 78 462T183 631T367 698Q483 698 548 635T613 447H483V456Q483 520 454 554T372 588Q297 588 253 535T192 407T174 255Q174
179 204 139T297 98Q366 98 406 142T459 263H306L322 373Z" />
<glyph unicode="H" glyph-name="H" horiz-adv-x="592" d="M124 686H251L212 408H426L464 686H591L495 0H368L410 294H196L155 0H28L124 686Z" />
<glyph unicode="I" glyph-name="I" horiz-adv-x="228" d="M114 686H241L145 0H18L114 686Z" />
<glyph unicode="J" glyph-name="J" horiz-adv-x="456" d="M98 -12T50 24T2 129Q2 144 12 216H133Q126 168 126 158Q126 98 188 98Q247 98 258 173L330 686H457L383 163Q371 78 321 33T188 -12Q98 -12 50 24Z" />
<glyph unicode="K" glyph-name="K" horiz-adv-x="592" d="M124 686H252L204 348L492 686H642L399 405L552 0H412L304 307L180 175L156 0H28L124 686Z" />
<glyph unicode="L" glyph-name="L" horiz-adv-x="501" d="M124 686H251L172 120H459L442 0H28L124 686Z" />
<glyph unicode="M" glyph-name="M" horiz-adv-x="683" d="M117 686H294L325 308Q328 280 330 226T332 153H336Q341 172 356 229T381 312L516 686H689L593 0H476L537 437Q540 456 547 495T557 547H553L515 441L358 0H248L213 440L205 547H201Q200 534 197 494T191
437L129 0H21L117 686Z" />
<glyph unicode="N" glyph-name="N" horiz-adv-x="592" d="M124 686H236L393 308Q400 291 406 272T415 244L418 247Q419 254 421 272T425 304L478 686H591L495 0H382L225 378Q219 394 213 414T203 442L199 439Q199 433 197 416T193 382L140 0H28L124 686Z" />
<glyph unicode="O" glyph-name="O" horiz-adv-x="638" d="M177 -12T111 53T45 250Q45 360 78 462T183 631T368 698Q491 698 557 633T623 435Q623 326 590 224T483 55T299 -12Q177 -12 111 53ZM369 98T413 151T475 279T493 430Q493 506 463 547T373 588Q298 588
254 535T192 407T174 255Q174 179 204 139T294 98Q369 98 413 151Z" />
<glyph unicode="P" glyph-name="P" horiz-adv-x="547" d="M124 686H361Q455 686 503 638T552 509Q552 438 522 383T440 297T323 266H192L154 0H28L124 686ZM316 379Q363 379 392 408T421 489Q421 527 399 549T338 572H235L208 379H316Z" />
<glyph unicode="Q" glyph-name="Q" horiz-adv-x="638" d="M296 -12Q175 -11 110 54T45 250Q45 360 78 462T183 631T368 698Q491 698 557 633T623 435Q623 349 602 266T536 115T423 14L535 -124H380L296 -12ZM369 98T413 151T475 279T493 430Q493 506 463 547T373
588Q298 588 254 535T192 407T174 255Q174 179 204 139T294 98Q369 98 413 151Z" />
<glyph unicode="R" glyph-name="R" horiz-adv-x="592" d="M124 686H393Q490 686 540 641T590 517Q590 443 551 389T445 311L537 0H400L320 286H194L155 0H28L124 686ZM345 399Q395 399 424 425T453 499Q453 534 434 553T374 572H235L210 399H345Z" />
<glyph unicode="S" glyph-name="S" horiz-adv-x="547" d="M204 -12T152 7T65 67T31 172Q31 208 36 233H168Q163 213 163 185Q163 150 185 124T267 98Q318 98 347 124T376 187Q376 217 360 238T319 274T250 308Q197 332 165 352T109 406T86 491Q86 545 109 592T185
668T318 698Q438 698 485 640T532 484H403Q403 530 380 558T311 587Q280 587 250 573T220 516Q220 480 247 460T333 415Q389 391 424 370T484 311T509 213Q509 143 477 92T387 15T259 -12Q204 -12 152 7Z" />
<glyph unicode="T" glyph-name="T" horiz-adv-x="501" d="M233 572H64L80 686H544L528 572H359L279 0H153L233 572Z" />
<glyph unicode="U" glyph-name="U" horiz-adv-x="592" d="M175 -12T117 36T59 176Q59 205 87 409T127 686H254Q243 614 215 416T187 199Q187 150 211 124T282 98Q332 98 362 131T402 227L466 686H593L528 223Q512 108 448 48T282 -12Q175 -12 117 36Z" />
<glyph unicode="V" glyph-name="V" horiz-adv-x="547" d="M67 686H197L268 198H272L480 686H608L305 0H178L67 686Z" />
<glyph unicode="W" glyph-name="W" horiz-adv-x="774" d="M67 686H193L210 266L214 168H218Q221 179 229 212T244 264L384 686H529L547 264L551 168H555Q557 178 565 210T581 264L720 686H832L596 0H461L430 437L429 475L430 534H425Q422 523 414 489T399 437L253
0H118L67 686Z" />
<glyph unicode="X" glyph-name="X" horiz-adv-x="547" d="M220 358L84 686H224L306 477H310L447 686H589L360 358L511 0H369L274 238H270L110 0H-29L220 358Z" />
<glyph unicode="Y" glyph-name="Y" horiz-adv-x="547" d="M215 259L67 686H197L296 385H300L479 686H608L342 259L305 0H179L215 259Z" />
<glyph unicode="Z" glyph-name="Z" horiz-adv-x="501" d="M-8 49L335 572H85L101 686H529L525 636L181 114H459L443 0H-12L-8 49Z" />
<glyph unicode="[" glyph-name="bracketleft" horiz-adv-x="273" d="M118 735H317L304 640H221L122 -66H205L192 -161H-6L118 735Z" />
<glyph unicode="\" glyph-name="backslash" horiz-adv-x="228" d="M58 735H139L197 -49H115L58 735Z" />
<glyph unicode="]" glyph-name="bracketright" horiz-adv-x="273" d="M-13 -66H69L168 640H85L98 735H297L172 -161H-26L-13 -66Z" />
<glyph unicode="^" glyph-name="asciicircum" horiz-adv-x="479" d="M215 686H322L424 294H314L251 564L119 294H4L215 686Z" />
<glyph unicode="_" glyph-name="underscore" horiz-adv-x="456" d="M-36 -63H419L410 -132H-44L-36 -63Z" />
<glyph unicode="`" glyph-name="grave" horiz-adv-x="273" d="M86 720L88 723H208L275 591H176L86 720Z" />
<glyph unicode="a" glyph-name="a" horiz-adv-x="456" d="M96 -12T59 35T22 174Q22 295 50 377T123 498T221 538Q301 538 331 463L351 526H444Q434 464 408 294T382 117Q382 89 406 89H424L412 4Q385 -12 353 -12Q320 -12 299 6T270 58Q252 23 223 6T164 -12Q96
-12 59 35ZM233 91T256 133T288 233T297 338Q297 387 285 411T244 435Q206 435 183 390T151 288T141 190Q141 91 195 91Q233 91 256 133Z" />
<glyph unicode="b" glyph-name="b" horiz-adv-x="501" d="M171 -12T140 70L116 0H23L123 723H242L207 474Q229 504 262 521T332 538Q395 538 431 491T467 349Q467 270 448 188T382 47T262 -12Q171 -12 140 70ZM298 97T321 176T345 340Q345 385 331 407T283 429Q240
429 215 388T180 291T170 188Q170 97 235 97Q298 97 321 176Z" />
<glyph unicode="c" glyph-name="c" horiz-adv-x="456" d="M119 -12T78 33T36 172Q36 325 87 431T269 538Q354 538 393 491T432 343V328H310V343Q310 391 299 414T260 437Q221 437 199 389T167 282T158 191Q158 138 169 114T212 89Q242 89 263 118T294 195H413Q392
100 344 44T203 -12Q119 -12 78 33Z" />
<glyph unicode="d" glyph-name="d" horiz-adv-x="501" d="M111 -12T74 35T36 174Q36 295 65 377T141 498T242 538Q322 538 353 469L390 723H508L408 0H311V76Q259 -12 179 -12Q111 -12 74 35ZM263 97T288 138T322 235T332 338Q332 383 318 406T271 429Q206 429
182 350T157 186Q157 141 171 119T220 97Q263 97 288 138Z" />
<glyph unicode="e" glyph-name="e" horiz-adv-x="456" d="M117 -12T75 33T33 172Q33 327 85 432T266 538Q429 538 429 359Q429 291 418 233H155Q153 212 153 187Q153 135 166 110T208 85Q236 85 255 112T284 182H407Q363 -12 203 -12Q117 -12 75 33ZM306 320Q308
349 308 359Q308 400 297 420T259 441Q224 441 202 407T168 320H306Z" />
<glyph unicode="f" glyph-name="f" horiz-adv-x="273" d="M-20 -182T-44 -179T-85 -170L-72 -81H-28Q17 -81 23 -33L83 425H31L45 526H97L106 590Q115 650 149 690T249 731Q269 731 293 728T333 719L320 630H272Q252 630 240 619T224 587L216 526H306L292 425H202L140
-41Q132 -101 99 -141T1 -182Q-20 -182 -44 -179Z" />
<glyph unicode="g" glyph-name="g" horiz-adv-x="501" d="M98 -182T53 -137T7 -24H129Q129 -81 192 -81Q276 -81 292 25L300 79Q278 50 247 32T181 14Q117 14 77 57T36 187Q36 263 55 344T121 481T241 538Q283 538 314 518T363 456L386 526H480L413 49Q396 -72
340 -127T184 -182Q98 -182 53 -137ZM264 117T288 155T323 244T333 338Q333 429 268 429Q205 429 182 353T158 196Q158 157 174 137T223 117Q264 117 288 155Z" />
<glyph unicode="h" glyph-name="h" horiz-adv-x="501" d="M123 723H242L206 471Q261 538 336 538Q398 538 430 503T463 403Q463 391 460 368T450 293L410 0H292Q341 353 341 363Q341 398 328 413T283 429Q247 429 220 399T186 316L142 0H23L123 723Z" />
<glyph unicode="i" glyph-name="i" horiz-adv-x="228" d="M123 723H242L227 614H108L123 723ZM96 526H215L142 0H23L96 526Z" />
<glyph unicode="j" glyph-name="j" horiz-adv-x="228" d="M123 723H241L226 614H108L123 723ZM-25 -182T-50 -179T-90 -170L-78 -81H-35Q10 -81 18 -33L95 526H214L135 -41Q126 -102 94 -142T-4 -182Q-25 -182 -50 -179Z" />
<glyph unicode="k" glyph-name="k" horiz-adv-x="456" d="M123 723H242L187 329L353 526H488L304 310L422 0H296L220 215L164 160L142 0H23L123 723Z" />
<glyph unicode="l" glyph-name="l" horiz-adv-x="228" d="M122 723H241L141 0H22L122 723Z" />
<glyph unicode="m" glyph-name="m" horiz-adv-x="729" d="M98 526H195V458Q247 538 327 538Q372 538 400 516T438 452Q464 492 497 515T576 538Q633 538 663 503T693 403Q693 389 689 354T672 234Q666 185 658 126T640 0H521L554 237Q564 304 567 332T571 371Q571
429 522 429Q491 429 466 399T434 316L392 0H273L306 240Q315 305 318 333T322 371Q322 429 274 429Q242 429 218 400T186 316L143 0H24L98 526Z" />
<glyph unicode="n" glyph-name="n" horiz-adv-x="501" d="M96 526H193V456Q248 538 336 538Q398 538 430 503T463 403Q463 391 460 368T450 293L410 0H292L330 279Q341 360 341 363Q341 398 328 413T283 429Q247 429 220 399T185 316L142 0H23L96 526Z" />
<glyph unicode="o" glyph-name="o" horiz-adv-x="501" d="M36 -12T36 180Q36 325 90 431T279 538Q465 538 465 343Q465 198 411 93T222 -12Q36 -12 36 180ZM296 89T319 177T342 343Q342 437 275 437Q205 437 182 349T159 183Q159 136 175 113T226 89Q296 89 319 177Z" />
<glyph unicode="p" glyph-name="p" horiz-adv-x="501" d="M96 526H193V449Q243 538 325 538Q393 538 430 491T468 352Q468 231 439 149T363 28T262 -12Q183 -12 150 57L118 -172H0L96 526ZM300 97T323 176T347 340Q347 385 333 407T284 429Q241 429 216 388T182
291T172 188Q172 143 187 120T237 97Q300 97 323 176Z" />
<glyph unicode="q" glyph-name="q" horiz-adv-x="501" d="M295 52Q274 22 241 5T171 -12Q108 -12 72 35T36 177Q36 256 55 338T121 479T241 538Q330 538 363 456L386 526H480L384 -172H265L295 52ZM263 97T288 138T323 235T333 338Q333 429 268 429Q205 429 182
350T158 186Q158 141 172 119T220 97Q263 97 288 138Z" />
<glyph unicode="r" glyph-name="r" horiz-adv-x="319" d="M96 526H193V446Q213 487 238 512T301 538Q320 538 333 535T349 530L334 414H296Q252 414 222 386T182 293L141 0H23L96 526Z" />
<glyph unicode="s" glyph-name="s" horiz-adv-x="456" d="M124 -12T73 24T22 124Q22 138 24 152T28 171H150Q149 168 148 161T146 146Q146 113 166 100T220 86Q245 86 265 99T285 140Q285 170 265 185T200 219Q158 236 133 251T89 296T70 374Q70 452 125 495T264
538Q354 538 393 492T432 372H311Q311 405 299 422T252 440Q228 440 211 426T194 388Q194 360 215 346T279 316Q320 301 347 286T393 242T412 165Q412 75 355 32T212 -12Q124 -12 73 24Z" />
<glyph unicode="t" glyph-name="t" horiz-adv-x="273" d="M92 -12T67 18T42 96Q42 112 61 244T87 425H34L48 526H101L121 674H246L219 526H295L281 425H206Q199 379 182 254T164 122Q164 89 200 89H233L221 0Q208 -5 187 -8T148 -12Q92 -12 67 18Z" />
<glyph unicode="u" glyph-name="u" horiz-adv-x="501" d="M103 -12T71 23T38 123Q38 135 41 158T51 233L91 526H209L171 247Q160 166 160 163Q160 128 173 113T218 97Q254 97 281 127T316 210L359 526H478L405 0H307V68Q250 -12 165 -12Q103 -12 71 23Z" />
<glyph unicode="v" glyph-name="v" horiz-adv-x="456" d="M44 526H163L200 300Q204 275 209 218T215 142H219Q225 160 243 215T275 300L372 526H493L254 0H133L44 526Z" />
<glyph unicode="w" glyph-name="w" horiz-adv-x="638" d="M42 526H155L173 309Q177 263 179 208T182 137H186Q186 143 198 201T227 308L302 526H422L435 307Q437 275 438 216T439 137H443Q448 155 463 212T492 307L566 526H673L474 0H356L339 251Q337 285 335
330T333 389H327Q327 380 321 334T302 252L216 0H97L42 526Z" />
<glyph unicode="x" glyph-name="x" horiz-adv-x="456" d="M170 272L59 526H188L246 377H251L350 526H479L297 272L415 0H286L221 169H216L102 0H-25L170 272Z" />
<glyph unicode="y" glyph-name="y" horiz-adv-x="456" d="M37 -182T15 -179T-7 -173L4 -81H58Q85 -81 109 -61T149 0L49 526H169L213 279Q217 254 221 206T227 142H231Q235 157 249 203T275 278L374 526H492L281 27Q239 -70 188 -126T68 -182Q37 -182 15 -179Z" />
<glyph unicode="z" glyph-name="z" horiz-adv-x="410" d="M-8 51L241 425H54L68 526H417L413 476L162 101H368L354 0H-12L-8 51Z" />
<glyph unicode="{" glyph-name="braceleft" horiz-adv-x="319" d="M152 -159T104 -134T56 -40Q56 -31 58 -11Q81 148 84 169L87 194Q87 218 68 229T17 242L30 334Q61 334 85 348T115 394L143 587Q155 673 211 704T360 735L350 658Q317 658 292 645T262 597Q256
549 242 484L227 401Q218 347 189 320T104 293L103 283Q154 283 175 261T197 195Q197 177 184 64Q174 -22 174 -32Q174 -82 245 -82L235 -159Q152 -159 104 -134Z" />
<glyph unicode="|" glyph-name="bar" horiz-adv-x="230" d="M70 723H160V-173H70V723Z" />
<glyph unicode="}" glyph-name="braceright" horiz-adv-x="319" d="M-18 -82Q15 -82 40 -69T70 -21Q76 27 90 92L105 175Q114 229 143 256T228 283L229 293Q178 293 157 315T135 381Q135 399 148 512Q158 598 158 608Q158 658 87 658L97 735Q180 735 228 710T276
616Q276 607 274 587Q252 428 248 407L245 382Q245 358 264 347T315 334L302 242Q271 242 247 228T217 182L189 -11Q177 -97 121 -128T-28 -159L-18 -82Z" />
<glyph unicode="~" glyph-name="asciitilde" horiz-adv-x="479" d="M37 317Q37 319 55 338T104 374T170 390Q191 390 209 383T254 360Q280 345 299 337T341 329Q373 329 402 345T453 380T474 402L457 282Q457 280 439 261T390 225T324 209Q303 209 285 216T240
239Q214 254 195 262T153 270Q121 270 92 254T41 219T20 197L37 317Z" />
<glyph unicode="&#xa0;" glyph-name="uni00A0" horiz-adv-x="228" />
<glyph unicode="&#xa1;" glyph-name="exclamdown" horiz-adv-x="273" d="M113 526H251L231 389H93L113 526ZM112 329H194L161 -160H8L112 329Z" />
<glyph unicode="&#xa2;" glyph-name="cent" horiz-adv-x="456" d="M172 70Q36 85 36 252Q36 399 83 503T249 617L264 723H312L297 616Q367 609 399 562T432 423V408H318V423Q318 465 310 488T283 520L234 165Q258 174 275 204T302 275H413Q392 184 348 129T220
68L204 -49H156L172 70ZM235 519Q203 504 184 454T158 352T150 271Q150 225 158 200T186 165L235 519Z" />
<glyph unicode="&#xa3;" glyph-name="sterling" horiz-adv-x="456" d="M8 108H58L83 288H21L35 389H96L112 499Q126 598 176 648T309 698Q388 698 431 659T474 545Q474 525 469 491H351Q357 531 357 538Q357 567 343 582T304 597Q276 597 258 579T235 525L216
389H335L321 288H201L166 108H409L393 0H-7L8 108Z" />
<glyph unicode="&#xa4;" glyph-name="currency" horiz-adv-x="456" d="M160 108T103 155L61 113L0 174L50 224Q22 277 22 342Q22 406 49 458L0 508L60 570L102 528Q159 577 228 577Q262 577 294 564T353 528L395 570L455 508L406 459Q434 405 434 342Q434 279
405 223L455 174L394 113L352 155Q295 108 228 108Q160 108 103 155ZM261 198T288 217T332 270T349 342Q349 382 333 415T289 467T228 487Q195 487 167 468T123 415T106 342Q106 303 122 270T167 218T228 198Q261 198 288 217Z" />
<glyph unicode="&#xa5;" glyph-name="yen" horiz-adv-x="456" d="M157 153H18L29 234H167L177 304H39L50 385H154L69 686H196L255 423H259L388 686H512L342 385H446L435 303H297L287 234H425L414 153H276L254 0H135L157 153Z" />
<glyph unicode="&#xa6;" glyph-name="brokenbar" horiz-adv-x="230" d="M70 723H160V351H70V723ZM70 199H160V-173H70V199Z" />
<glyph unicode="&#xa7;" glyph-name="section" horiz-adv-x="456" d="M101 -182T55 -149T8 -59Q8 -47 10 -33T13 -16H134Q132 -28 132 -34Q132 -59 146 -71T187 -84Q217 -84 235 -66T253 -19Q253 17 230 40T160 90Q120 114 96 133T54 183T36 259Q36 301 58 341T122
411Q87 449 87 509Q87 600 144 649T287 698Q361 698 408 666T455 576Q455 564 453 549T450 532H329Q330 538 330 549Q330 575 316 587T276 600Q246 600 228 582T210 534Q210 509 222 490T252 458T303 425Q343 402 367 383T409 333T427 257Q427 214 405 174T341
105Q376 63 376 6Q376 -55 349 -97T277 -161T176 -182Q101 -182 55 -149ZM304 192T304 230Q304 270 281 294T208 347L188 359Q159 327 159 285Q159 245 182 221T255 168L274 156Q304 192 304 230Z" />
<glyph unicode="&#xa8;" glyph-name="dieresis" horiz-adv-x="273" d="M84 723H184L169 614H70L84 723ZM259 723H359L344 614H244L259 723Z" />
<glyph unicode="&#xa9;" glyph-name="copyright" horiz-adv-x="604" d="M214 -12T150 31T51 155T16 343Q16 451 50 531T149 654T302 698Q390 698 454 655T553 531T588 343Q588 235 554 155T455 32T302 -12Q214 -12 150 31ZM373 43T425 79T504 184T532 343Q532
434 505 502T425 606T302 643Q231 643 179 607T100 502T72 343Q72 252 99 184T179 80T302 43Q373 43 425 79ZM227 134T185 186T143 343Q143 448 185 500T304 553Q371 553 412 514T453 395H366Q366 436 350 457T304 478Q268 478 250 447T231 358V329Q231 272 250
241T307 209Q336 209 352 229T369 291H453Q453 214 412 174T304 134Q227 134 185 186Z" />
<glyph unicode="&#xaa;" glyph-name="ordfeminine" horiz-adv-x="303" d="M120 362T95 394T70 487Q70 568 89 623T138 705T204 732Q257 732 278 682L305 724H354Q347 682 333 589T312 449Q312 430 328 430H341L333 373Q313 362 293 362Q248 362 237 409Q224 386
205 374T166 362Q120 362 95 394ZM223 431T239 486T255 597Q255 630 247 646T219 663Q194 663 179 633T157 563T150 498Q150 431 186 431Q223 431 239 486Z" />
<glyph unicode="&#xab;" glyph-name="guillemotleft" horiz-adv-x="456" d="M28 326L188 526H283L147 326L226 126H135L28 326ZM211 326L371 526H466L330 326L409 126H318L211 326Z" />
<glyph unicode="&#xac;" glyph-name="logicalnot" horiz-adv-x="479" d="M345 350H40L56 463H472L433 187H322L345 350Z" />
<glyph unicode="&#xad;" glyph-name="uni00AD" horiz-adv-x="273" d="M30 329H271L254 211H13L30 329Z" />
<glyph unicode="&#xae;" glyph-name="registered" horiz-adv-x="604" d="M214 -12T150 31T51 155T16 343Q16 451 50 531T149 654T302 698Q390 698 454 655T553 531T588 343Q588 235 554 155T455 32T302 -12Q214 -12 150 31ZM373 43T425 79T504 184T532 343Q532
434 505 502T425 606T302 643Q231 643 179 607T100 502T72 343Q72 252 99 184T179 80T302 43Q373 43 425 79ZM355 137T355 214Q355 264 339 284T296 305H260V140H174V546H332Q381 546 413 518T445 444Q445 407 428 384T382 349V345Q404 337 422 313T441 237Q441
202 448 186T470 165V145Q466 142 453 140T431 137Q355 137 355 214ZM301 382Q326 382 341 395T357 428Q357 447 343 457T304 468H260V382H301Z" />
<glyph unicode="&#xaf;" glyph-name="overscore" horiz-adv-x="273" d="M15 686H270L257 599H2L15 686Z" />
<glyph unicode="&#xb0;" glyph-name="degree" horiz-adv-x="400" d="M159 414T127 433T75 484T56 556Q56 595 75 627T126 679T198 698Q237 698 269 679T321 628T340 556Q340 517 321 485T270 433T198 414Q159 414 127 433ZM229 482T250 503T271 556Q271 587 250
608T198 629Q167 629 146 608T124 556Q124 525 145 504T198 482Q229 482 250 503Z" />
<glyph unicode="&#xb1;" glyph-name="plusminus" horiz-adv-x="549" d="M224 317H70L85 421H239L263 595H366L342 421H497L482 317H327L303 144H200L224 317ZM40 103H452L438 0H26L40 103Z" />
<glyph unicode="&#xb2;" glyph-name="uni00B2" horiz-adv-x="273" d="M26 338Q32 383 58 418T133 500Q177 543 198 572T219 634Q219 664 192 664Q160 664 148 599L145 581H66Q66 647 103 690T200 734Q247 734 275 713T303 648Q303 595 275 553T193 456Q159 422
135 394H271L260 320H23L26 338Z" />
<glyph unicode="&#xb3;" glyph-name="uni00B3" horiz-adv-x="273" d="M102 312T74 339T45 415Q45 429 49 452H131Q127 429 127 420Q127 381 161 381Q181 381 194 399T207 452Q207 493 172 493H152L162 560H183Q198 560 212 579T226 631Q226 665 200 665Q185 665
175 653T160 612L158 599H76L79 615Q91 673 124 703T204 734Q253 734 281 709T310 638Q310 598 293 573T244 530Q265 519 277 499T289 450Q289 409 271 378T223 329T157 312Q102 312 74 339Z" />
<glyph unicode="&#xb4;" glyph-name="acute" horiz-adv-x="273" d="M226 723H346L347 720L239 591H140L226 723Z" />
<glyph unicode="&#xb5;" glyph-name="uni00B5" horiz-adv-x="499" d="M95 526H213L175 247Q164 166 164 163Q164 97 222 97Q258 97 285 127T320 210L363 526H482L409 0H311V68Q287 30 258 9T189 -12Q163 -12 141 -1L118 -172H-1L95 526Z" />
<glyph unicode="&#xb6;" glyph-name="paragraph" horiz-adv-x="456" d="M186 250Q122 258 83 308T44 431Q44 513 75 571T157 657T270 686H509L498 610H450L340 -173H259L369 610H316L206 -173H126L186 250Z" />
<glyph unicode="&#xb7;" glyph-name="middot" horiz-adv-x="228" d="M79 409H200L181 278H60L79 409Z" />
<glyph unicode="&#xb8;" glyph-name="cedilla" horiz-adv-x="273" d="M60 -182T23 -174L30 -125H101Q121 -125 131 -119T141 -95Q141 -77 110 -77H77L100 11H168L157 -33Q188 -35 207 -49T227 -90Q227 -141 192 -161T106 -182Q60 -182 23 -174Z" />
<glyph unicode="&#xb9;" glyph-name="uni00B9" horiz-adv-x="273" d="M49 389H123L156 622H81L88 678Q112 681 148 694T210 723H250L203 389H269L259 320H39L49 389Z" />
<glyph unicode="&#xba;" glyph-name="ordmasculine" horiz-adv-x="299" d="M55 363T55 492Q55 590 92 661T219 733Q344 733 344 602Q344 504 308 434T180 363Q55 363 55 492ZM230 431T245 490T261 602Q261 633 250 649T216 665Q169 665 154 606T138 494Q138 462
148 447T183 431Q230 431 245 490Z" />
<glyph unicode="&#xbb;" glyph-name="guillemotright" horiz-adv-x="456" d="M145 326L65 526H156L264 326L103 126H9L145 326ZM328 326L248 526H339L447 326L286 126H191L328 326Z" />
<glyph unicode="&#xbc;" glyph-name="onequarter" horiz-adv-x="684" d="M584 698H650L157 -12H90L584 698ZM34 352H108L141 585H66L73 641Q97 644 133 657T195 686H235L188 352H254L244 283H24L34 352ZM516 89H374L382 150Q453 252 521 414H600Q575 346 532 271T458
158H526L531 195Q547 218 569 260T601 326H628L605 158H647L637 89H595L582 0H503L516 89Z" />
<glyph unicode="&#xbd;" glyph-name="onehalf" horiz-adv-x="684" d="M568 698H634L141 -12H74L568 698ZM34 352H108L141 585H66L73 641Q97 644 133 657T195 686H235L188 352H254L244 283H24L34 352ZM386 18Q392 62 417 97T489 177Q536 223 557 251T579 314Q579
344 552 344Q535 344 525 328T507 276L505 261H426Q426 324 461 369T560 414Q607 414 635 393T663 328Q663 289 647 255T609 197T543 126Q515 98 495 74H631L620 0H383L386 18Z" />
<glyph unicode="&#xbe;" glyph-name="threequarters" horiz-adv-x="684" d="M574 698H640L147 -12H80L574 698ZM87 273T59 300T30 376Q30 390 34 413H116Q112 390 112 381Q112 342 146 342Q166 342 179 360T192 413Q192 454 157 454H137L147 521H168Q183 521 197
540T211 592Q211 626 185 626Q170 626 160 614T145 572L143 560H61L64 576Q76 634 109 664T189 695Q238 695 266 670T295 599Q295 559 278 534T229 491Q250 480 262 460T274 411Q274 370 256 339T208 290T142 273Q87 273 59 300ZM522 89H380L388 150Q459 252 527
414H606Q581 346 538 271T464 158H532L537 195Q553 218 575 260T607 326H634L611 158H653L643 89H601L588 0H509L522 89Z" />
<glyph unicode="&#xbf;" glyph-name="questiondown" horiz-adv-x="501" d="M240 526H377L357 389H220L240 526ZM146 -172T97 -131T48 -22Q48 28 61 65T94 127T144 185Q177 220 193 244T215 301L219 329H344L338 286Q333 250 314 222T260 154Q220 109 201 77T181
2Q181 -24 195 -44T244 -65Q290 -65 311 -25T333 67H458Q458 2 432 -52T354 -139T231 -172Q146 -172 97 -131Z" />
<glyph unicode="&#xc0;" glyph-name="Agrave" horiz-adv-x="592" d="M249 880L251 883H371L438 751H339L249 880ZM288 686H435L558 0H428L406 135H161L102 0H-26L288 686ZM387 249L357 437Q352 470 349 513T345 570H341Q337 556 323 512T295 437L212 249H387Z" />
<glyph unicode="&#xc1;" glyph-name="Aacute" horiz-adv-x="592" d="M392 883H512L513 880L405 751H306L392 883ZM288 686H435L558 0H428L406 135H161L102 0H-26L288 686ZM387 249L357 437Q352 470 349 513T345 570H341Q337 556 323 512T295 437L212 249H387Z" />
<glyph unicode="&#xc2;" glyph-name="Acircumflex" horiz-adv-x="592" d="M338 883H436L502 748H412L378 817L327 748H234L338 883ZM288 686H435L558 0H428L406 135H161L102 0H-26L288 686ZM387 249L357 437Q352 470 349 513T345 570H341Q337 556 323 512T295
437L212 249H387Z" />
<glyph unicode="&#xc3;" glyph-name="Atilde" horiz-adv-x="592" d="M209 788T223 816T263 864T322 883Q337 883 350 879T374 870T388 864Q407 855 420 851T448 846Q465 846 475 854T492 883H557Q557 855 543 827T502 780T442 761Q428 761 415 765T391 774T377
780Q358 789 345 793T317 798Q284 798 273 761H209Q209 788 223 816ZM288 686H435L558 0H428L406 135H161L102 0H-26L288 686ZM387 249L357 437Q352 470 349 513T345 570H341Q337 556 323 512T295 437L212 249H387Z" />
<glyph unicode="&#xc4;" glyph-name="Adieresis" horiz-adv-x="592" d="M250 883H350L335 774H236L250 883ZM425 883H525L510 774H410L425 883ZM288 686H435L558 0H428L406 135H161L102 0H-26L288 686ZM387 249L357 437Q352 470 349 513T345 570H341Q337 556 323
512T295 437L212 249H387Z" />
<glyph unicode="&#xc5;" glyph-name="Aring" horiz-adv-x="592" d="M339 721T311 749T282 817Q282 857 310 885T378 913Q418 913 446 885T474 817Q474 777 446 749T378 721Q339 721 311 749ZM397 771T410 784T424 817Q424 836 411 849T378 863Q359 863 346 850T332
817Q332 798 345 785T378 771Q397 771 410 784ZM288 686H435L558 0H428L406 135H161L102 0H-26L288 686ZM387 249L357 437Q352 470 349 513T345 570H341Q337 556 323 512T295 437L212 249H387Z" />
<glyph unicode="&#xc6;" glyph-name="AE" horiz-adv-x="820" d="M303 686H831L815 572H468L485 408H749L733 294H496L514 114H757L741 0H397L385 135H145L78 0H-52L303 686ZM374 249L352 488L345 570H341Q341 566 326 517T295 437L201 249H374Z" />
<glyph unicode="&#xc7;" glyph-name="Ccedilla" horiz-adv-x="592" d="M195 -182T158 -174L165 -125H236Q256 -125 266 -119T276 -95Q276 -77 245 -77H212L229 -8Q140 6 93 70T45 250Q45 364 76 466T177 633T353 698Q464 698 526 634T589 444V431H459V449Q459
515 431 551T353 588Q285 588 245 535T190 407T174 255Q174 179 202 139T287 98Q350 98 388 141T441 254H566Q542 141 474 67T297 -12L292 -33Q323 -35 342 -49T362 -90Q362 -141 327 -161T241 -182Q195 -182 158 -174Z" />
<glyph unicode="&#xc8;" glyph-name="Egrave" horiz-adv-x="547" d="M233 880L235 883H355L422 751H323L233 880ZM124 686H556L540 572H235L212 408H474L458 294H196L170 114H482L466 0H28L124 686Z" />
<glyph unicode="&#xc9;" glyph-name="Eacute" horiz-adv-x="547" d="M377 883H497L498 880L390 751H291L377 883ZM124 686H556L540 572H235L212 408H474L458 294H196L170 114H482L466 0H28L124 686Z" />
<glyph unicode="&#xca;" glyph-name="Ecircumflex" horiz-adv-x="547" d="M323 883H421L487 748H397L363 817L312 748H219L323 883ZM124 686H556L540 572H235L212 408H474L458 294H196L170 114H482L466 0H28L124 686Z" />
<glyph unicode="&#xcb;" glyph-name="Edieresis" horiz-adv-x="547" d="M235 883H335L320 774H221L235 883ZM410 883H510L495 774H395L410 883ZM124 686H556L540 572H235L212 408H474L458 294H196L170 114H482L466 0H28L124 686Z" />
<glyph unicode="&#xcc;" glyph-name="Igrave" horiz-adv-x="228" d="M67 880L69 883H189L256 751H157L67 880ZM114 686H241L145 0H18L114 686Z" />
<glyph unicode="&#xcd;" glyph-name="Iacute" horiz-adv-x="228" d="M210 883H330L331 880L223 751H124L210 883ZM114 686H241L145 0H18L114 686Z" />
<glyph unicode="&#xce;" glyph-name="Icircumflex" horiz-adv-x="228" d="M156 883H254L320 748H230L196 817L145 748H52L156 883ZM114 686H241L145 0H18L114 686Z" />
<glyph unicode="&#xcf;" glyph-name="Idieresis" horiz-adv-x="228" d="M68 883H168L153 774H54L68 883ZM243 883H343L328 774H228L243 883ZM114 686H241L145 0H18L114 686Z" />
<glyph unicode="&#xd0;" glyph-name="Eth" horiz-adv-x="592" d="M71 312H23L34 397H83L124 686H335Q451 686 513 620T576 426Q576 324 544 227T441 65T264 0H28L71 312ZM253 114Q324 114 367 161T429 278T447 417Q447 493 413 532T317 572H235L210 397H334L322
312H198L171 114H253Z" />
<glyph unicode="&#xd1;" glyph-name="Ntilde" horiz-adv-x="592" d="M208 788T222 816T262 864T321 883Q336 883 349 879T373 870T387 864Q406 855 419 851T447 846Q464 846 474 854T491 883H556Q556 855 542 827T501 780T441 761Q427 761 414 765T390 774T376
780Q357 789 344 793T316 798Q283 798 272 761H208Q208 788 222 816ZM124 686H236L393 308Q400 291 406 272T415 244L418 247Q419 254 421 272T425 304L478 686H591L495 0H382L225 378Q219 394 213 414T203 442L199 439Q199 433 197 416T193 382L140 0H28L124 686Z"
/>
<glyph unicode="&#xd2;" glyph-name="Ograve" horiz-adv-x="638" d="M273 880L275 883H395L462 751H363L273 880ZM177 -12T111 53T45 250Q45 360 78 462T183 631T368 698Q491 698 557 633T623 435Q623 326 590 224T483 55T299 -12Q177 -12 111 53ZM369 98T413
151T475 279T493 430Q493 506 463 547T373 588Q298 588 254 535T192 407T174 255Q174 179 204 139T294 98Q369 98 413 151Z" />
<glyph unicode="&#xd3;" glyph-name="Oacute" horiz-adv-x="638" d="M416 883H536L537 880L429 751H330L416 883ZM177 -12T111 53T45 250Q45 360 78 462T183 631T368 698Q491 698 557 633T623 435Q623 326 590 224T483 55T299 -12Q177 -12 111 53ZM369 98T413
151T475 279T493 430Q493 506 463 547T373 588Q298 588 254 535T192 407T174 255Q174 179 204 139T294 98Q369 98 413 151Z" />
<glyph unicode="&#xd4;" glyph-name="Ocircumflex" horiz-adv-x="638" d="M362 883H460L526 748H436L402 817L351 748H258L362 883ZM177 -12T111 53T45 250Q45 360 78 462T183 631T368 698Q491 698 557 633T623 435Q623 326 590 224T483 55T299 -12Q177 -12 111
53ZM369 98T413 151T475 279T493 430Q493 506 463 547T373 588Q298 588 254 535T192 407T174 255Q174 179 204 139T294 98Q369 98 413 151Z" />
<glyph unicode="&#xd5;" glyph-name="Otilde" horiz-adv-x="638" d="M232 788T246 816T286 864T345 883Q360 883 373 879T397 870T411 864Q430 855 443 851T471 846Q488 846 498 854T515 883H580Q580 855 566 827T525 780T465 761Q451 761 438 765T414 774T400
780Q381 789 368 793T340 798Q307 798 296 761H232Q232 788 246 816ZM177 -12T111 53T45 250Q45 360 78 462T183 631T368 698Q491 698 557 633T623 435Q623 326 590 224T483 55T299 -12Q177 -12 111 53ZM369 98T413 151T475 279T493 430Q493 506 463 547T373 588Q298
588 254 535T192 407T174 255Q174 179 204 139T294 98Q369 98 413 151Z" />
<glyph unicode="&#xd6;" glyph-name="Odieresis" horiz-adv-x="638" d="M274 883H374L359 774H260L274 883ZM449 883H549L534 774H434L449 883ZM177 -12T111 53T45 250Q45 360 78 462T183 631T368 698Q491 698 557 633T623 435Q623 326 590 224T483 55T299 -12Q177
-12 111 53ZM369 98T413 151T475 279T493 430Q493 506 463 547T373 588Q298 588 254 535T192 407T174 255Q174 179 204 139T294 98Q369 98 413 151Z" />
<glyph unicode="&#xd7;" glyph-name="multiply" horiz-adv-x="479" d="M6 111L172 256L47 402L129 474L254 328L420 474L482 402L315 256L441 111L359 39L233 185L68 39L6 111Z" />
<glyph unicode="&#xd8;" glyph-name="Oslash" horiz-adv-x="638" d="M106 58Q45 124 45 250Q45 360 78 462T183 631T368 698Q449 698 504 670L539 723H623L561 628Q623 560 623 435Q623 326 590 224T483 55T299 -12Q222 -12 163 16L129 -37H45L106 58ZM439 570Q413
588 373 588Q298 588 254 535T192 407T174 255Q174 208 184 177L439 570ZM369 98T413 151T475 279T493 430Q493 472 482 507L228 115Q254 98 294 98Q369 98 413 151Z" />
<glyph unicode="&#xd9;" glyph-name="Ugrave" horiz-adv-x="592" d="M248 880L250 883H370L437 751H338L248 880ZM175 -12T117 36T59 176Q59 205 87 409T127 686H254Q243 614 215 416T187 199Q187 150 211 124T282 98Q332 98 362 131T402 227L466 686H593L528
223Q512 108 448 48T282 -12Q175 -12 117 36Z" />
<glyph unicode="&#xda;" glyph-name="Uacute" horiz-adv-x="592" d="M392 883H512L513 880L405 751H306L392 883ZM175 -12T117 36T59 176Q59 205 87 409T127 686H254Q243 614 215 416T187 199Q187 150 211 124T282 98Q332 98 362 131T402 227L466 686H593L528
223Q512 108 448 48T282 -12Q175 -12 117 36Z" />
<glyph unicode="&#xdb;" glyph-name="Ucircumflex" horiz-adv-x="592" d="M338 883H436L502 748H412L378 817L327 748H234L338 883ZM175 -12T117 36T59 176Q59 205 87 409T127 686H254Q243 614 215 416T187 199Q187 150 211 124T282 98Q332 98 362 131T402 227L466
686H593L528 223Q512 108 448 48T282 -12Q175 -12 117 36Z" />
<glyph unicode="&#xdc;" glyph-name="Udieresis" horiz-adv-x="592" d="M250 883H350L335 774H236L250 883ZM425 883H525L510 774H410L425 883ZM175 -12T117 36T59 176Q59 205 87 409T127 686H254Q243 614 215 416T187 199Q187 150 211 124T282 98Q332 98 362
131T402 227L466 686H593L528 223Q512 108 448 48T282 -12Q175 -12 117 36Z" />
<glyph unicode="&#xdd;" glyph-name="Yacute" horiz-adv-x="547" d="M372 883H492L493 880L385 751H286L372 883ZM215 259L67 686H197L296 385H300L479 686H608L342 259L305 0H179L215 259Z" />
<glyph unicode="&#xde;" glyph-name="Thorn" horiz-adv-x="547" d="M124 686H251L234 562H344Q438 562 486 514T535 385Q535 314 505 259T423 173T306 142H175L155 0H28L124 686ZM299 255Q346 255 375 284T404 365Q404 403 382 425T321 448H218L191 255H299Z" />
<glyph unicode="&#xdf;" glyph-name="germandbls" horiz-adv-x="501" d="M88 520Q103 629 165 682T319 735Q402 735 452 691T502 569Q502 514 469 464T384 395V391Q426 374 451 330T476 230Q476 173 447 120T368 34T256 0H182L196 102H247Q274 102 299 119T339
166T355 228Q355 269 333 296T278 324H226L242 437H291Q312 437 333 454T367 500T380 560Q380 594 363 614T311 634Q270 634 243 606T208 528L134 0H17L88 520Z" />
<glyph unicode="&#xe0;" glyph-name="agrave" horiz-adv-x="456" d="M143 720L145 723H265L332 591H233L143 720ZM96 -12T59 35T22 174Q22 295 50 377T123 498T221 538Q301 538 331 463L351 526H444Q434 464 408 294T382 117Q382 89 406 89H424L412 4Q385 -12
353 -12Q320 -12 299 6T270 58Q252 23 223 6T164 -12Q96 -12 59 35ZM233 91T256 133T288 233T297 338Q297 387 285 411T244 435Q206 435 183 390T151 288T141 190Q141 91 195 91Q233 91 256 133Z" />
<glyph unicode="&#xe1;" glyph-name="aacute" horiz-adv-x="456" d="M287 723H407L408 720L300 591H201L287 723ZM96 -12T59 35T22 174Q22 295 50 377T123 498T221 538Q301 538 331 463L351 526H444Q434 464 408 294T382 117Q382 89 406 89H424L412 4Q385 -12
353 -12Q320 -12 299 6T270 58Q252 23 223 6T164 -12Q96 -12 59 35ZM233 91T256 133T288 233T297 338Q297 387 285 411T244 435Q206 435 183 390T151 288T141 190Q141 91 195 91Q233 91 256 133Z" />
<glyph unicode="&#xe2;" glyph-name="acircumflex" horiz-adv-x="456" d="M233 723H331L397 588H307L273 657L222 588H129L233 723ZM96 -12T59 35T22 174Q22 295 50 377T123 498T221 538Q301 538 331 463L351 526H444Q434 464 408 294T382 117Q382 89 406 89H424L412
4Q385 -12 353 -12Q320 -12 299 6T270 58Q252 23 223 6T164 -12Q96 -12 59 35ZM233 91T256 133T288 233T297 338Q297 387 285 411T244 435Q206 435 183 390T151 288T141 190Q141 91 195 91Q233 91 256 133Z" />
<glyph unicode="&#xe3;" glyph-name="atilde" horiz-adv-x="456" d="M103 628T117 656T157 704T216 723Q231 723 244 719T268 710T282 704Q301 695 314 691T342 686Q359 686 369 694T386 723H451Q451 695 437 667T396 620T336 601Q322 601 309 605T285 614T271
620Q252 629 239 633T211 638Q178 638 167 601H103Q103 628 117 656ZM96 -12T59 35T22 174Q22 295 50 377T123 498T221 538Q301 538 331 463L351 526H444Q434 464 408 294T382 117Q382 89 406 89H424L412 4Q385 -12 353 -12Q320 -12 299 6T270 58Q252 23 223 6T164
-12Q96 -12 59 35ZM233 91T256 133T288 233T297 338Q297 387 285 411T244 435Q206 435 183 390T151 288T141 190Q141 91 195 91Q233 91 256 133Z" />
<glyph unicode="&#xe4;" glyph-name="adieresis" horiz-adv-x="456" d="M145 723H245L230 614H131L145 723ZM320 723H420L405 614H305L320 723ZM96 -12T59 35T22 174Q22 295 50 377T123 498T221 538Q301 538 331 463L351 526H444Q434 464 408 294T382 117Q382
89 406 89H424L412 4Q385 -12 353 -12Q320 -12 299 6T270 58Q252 23 223 6T164 -12Q96 -12 59 35ZM233 91T256 133T288 233T297 338Q297 387 285 411T244 435Q206 435 183 390T151 288T141 190Q141 91 195 91Q233 91 256 133Z" />
<glyph unicode="&#xe5;" glyph-name="aring" horiz-adv-x="456" d="M234 561T206 589T177 657Q177 697 205 725T273 753Q313 753 341 725T369 657Q369 617 341 589T273 561Q234 561 206 589ZM292 611T305 624T319 657Q319 676 306 689T273 703Q254 703 241 690T227
657Q227 638 240 625T273 611Q292 611 305 624ZM96 -12T59 35T22 174Q22 295 50 377T123 498T221 538Q301 538 331 463L351 526H444Q434 464 408 294T382 117Q382 89 406 89H424L412 4Q385 -12 353 -12Q320 -12 299 6T270 58Q252 23 223 6T164 -12Q96 -12 59 35ZM233
91T256 133T288 233T297 338Q297 387 285 411T244 435Q206 435 183 390T151 288T141 190Q141 91 195 91Q233 91 256 133Z" />
<glyph unicode="&#xe6;" glyph-name="ae" horiz-adv-x="729" d="M104 -12T62 19T19 129Q19 231 99 275T307 320L313 375Q314 382 314 395Q314 416 304 428T268 440Q234 440 218 422T197 370H81Q81 446 135 492T279 538Q361 538 400 494Q454 538 530 538Q693 538
693 359Q693 291 682 233H419Q417 212 417 187Q417 135 430 110T472 85Q500 85 519 112T548 182H671Q627 -12 467 -12Q361 -12 321 57Q288 24 250 6T162 -12Q104 -12 62 19ZM570 320Q572 349 572 359Q572 400 561 420T523 441Q488 441 466 407T432 320H570ZM235
88T259 120T290 203L294 233Q230 233 187 211T144 134Q144 88 196 88Q235 88 259 120Z" />
<glyph unicode="&#xe7;" glyph-name="ccedilla" horiz-adv-x="456" d="M123 -182T86 -174L93 -125H165Q184 -125 194 -119T205 -95Q205 -77 173 -77H141L158 -8Q36 13 36 172Q36 325 87 431T269 538Q354 538 393 491T432 343V328H310V343Q310 391 299 414T260
437Q221 437 199 389T167 282T158 191Q158 138 169 114T212 89Q242 89 263 118T294 195H413Q394 106 351 52T226 -11L221 -33Q252 -35 271 -49T291 -90Q291 -142 256 -162T169 -182Q123 -182 86 -174Z" />
<glyph unicode="&#xe8;" glyph-name="egrave" horiz-adv-x="456" d="M154 720L156 723H276L343 591H244L154 720ZM117 -12T75 33T33 172Q33 327 85 432T266 538Q429 538 429 359Q429 291 418 233H155Q153 212 153 187Q153 135 166 110T208 85Q236 85 255 112T284
182H407Q363 -12 203 -12Q117 -12 75 33ZM306 320Q308 349 308 359Q308 400 297 420T259 441Q224 441 202 407T168 320H306Z" />
<glyph unicode="&#xe9;" glyph-name="eacute" horiz-adv-x="456" d="M298 723H418L419 720L311 591H212L298 723ZM117 -12T75 33T33 172Q33 327 85 432T266 538Q429 538 429 359Q429 291 418 233H155Q153 212 153 187Q153 135 166 110T208 85Q236 85 255 112T284
182H407Q363 -12 203 -12Q117 -12 75 33ZM306 320Q308 349 308 359Q308 400 297 420T259 441Q224 441 202 407T168 320H306Z" />
<glyph unicode="&#xea;" glyph-name="ecircumflex" horiz-adv-x="456" d="M244 723H342L408 588H318L284 657L233 588H140L244 723ZM117 -12T75 33T33 172Q33 327 85 432T266 538Q429 538 429 359Q429 291 418 233H155Q153 212 153 187Q153 135 166 110T208 85Q236
85 255 112T284 182H407Q363 -12 203 -12Q117 -12 75 33ZM306 320Q308 349 308 359Q308 400 297 420T259 441Q224 441 202 407T168 320H306Z" />
<glyph unicode="&#xeb;" glyph-name="edieresis" horiz-adv-x="456" d="M156 723H256L241 614H142L156 723ZM331 723H431L416 614H316L331 723ZM117 -12T75 33T33 172Q33 327 85 432T266 538Q429 538 429 359Q429 291 418 233H155Q153 212 153 187Q153 135 166
110T208 85Q236 85 255 112T284 182H407Q363 -12 203 -12Q117 -12 75 33ZM306 320Q308 349 308 359Q308 400 297 420T259 441Q224 441 202 407T168 320H306Z" />
<glyph unicode="&#xec;" glyph-name="igrave" horiz-adv-x="228" d="M44 720L46 723H166L233 591H134L44 720ZM96 526H215L142 0H23L96 526Z" />
<glyph unicode="&#xed;" glyph-name="iacute" horiz-adv-x="228" d="M187 723H307L308 720L200 591H101L187 723ZM96 526H215L142 0H23L96 526Z" />
<glyph unicode="&#xee;" glyph-name="icircumflex" horiz-adv-x="228" d="M133 723H231L297 588H207L173 657L122 588H29L133 723ZM96 526H215L142 0H23L96 526Z" />
<glyph unicode="&#xef;" glyph-name="idieresis" horiz-adv-x="228" d="M45 723H145L130 614H31L45 723ZM220 723H320L305 614H205L220 723ZM96 526H215L142 0H23L96 526Z" />
<glyph unicode="&#xf0;" glyph-name="eth" horiz-adv-x="501" d="M126 -12T80 35T33 182Q33 294 63 374T143 496T253 538Q283 538 305 530L309 534Q300 559 280 595L151 584L161 657L236 664Q218 688 192 719L194 723H318Q341 700 361 675L492 687L482 614L406
607Q463 500 463 367Q463 176 399 82T219 -12Q126 -12 80 35ZM293 89T316 177T339 343Q339 437 272 437Q202 437 179 349T156 183Q156 136 172 113T223 89Q293 89 316 177Z" />
<glyph unicode="&#xf1;" glyph-name="ntilde" horiz-adv-x="501" d="M141 628T155 656T195 704T254 723Q269 723 282 719T306 710T320 704Q339 695 352 691T380 686Q397 686 407 694T424 723H489Q489 695 475 667T434 620T374 601Q360 601 347 605T323 614T309
620Q290 629 277 633T249 638Q216 638 205 601H141Q141 628 155 656ZM96 526H193V456Q248 538 336 538Q398 538 430 503T463 403Q463 391 460 368T450 293L410 0H292L330 279Q341 360 341 363Q341 398 328 413T283 429Q247 429 220 399T185 316L142 0H23L96 526Z"
/>
<glyph unicode="&#xf2;" glyph-name="ograve" horiz-adv-x="501" d="M176 720L178 723H298L365 591H266L176 720ZM36 -12T36 180Q36 325 90 431T279 538Q465 538 465 343Q465 198 411 93T222 -12Q36 -12 36 180ZM296 89T319 177T342 343Q342 437 275 437Q205 437
182 349T159 183Q159 136 175 113T226 89Q296 89 319 177Z" />
<glyph unicode="&#xf3;" glyph-name="oacute" horiz-adv-x="501" d="M320 723H440L441 720L333 591H234L320 723ZM36 -12T36 180Q36 325 90 431T279 538Q465 538 465 343Q465 198 411 93T222 -12Q36 -12 36 180ZM296 89T319 177T342 343Q342 437 275 437Q205 437
182 349T159 183Q159 136 175 113T226 89Q296 89 319 177Z" />
<glyph unicode="&#xf4;" glyph-name="ocircumflex" horiz-adv-x="501" d="M266 723H364L430 588H340L306 657L255 588H162L266 723ZM36 -12T36 180Q36 325 90 431T279 538Q465 538 465 343Q465 198 411 93T222 -12Q36 -12 36 180ZM296 89T319 177T342 343Q342
437 275 437Q205 437 182 349T159 183Q159 136 175 113T226 89Q296 89 319 177Z" />
<glyph unicode="&#xf5;" glyph-name="otilde" horiz-adv-x="501" d="M136 628T150 656T190 704T249 723Q264 723 277 719T301 710T315 704Q334 695 347 691T375 686Q392 686 402 694T419 723H484Q484 695 470 667T429 620T369 601Q355 601 342 605T318 614T304
620Q285 629 272 633T244 638Q211 638 200 601H136Q136 628 150 656ZM36 -12T36 180Q36 325 90 431T279 538Q465 538 465 343Q465 198 411 93T222 -12Q36 -12 36 180ZM296 89T319 177T342 343Q342 437 275 437Q205 437 182 349T159 183Q159 136 175 113T226 89Q296
89 319 177Z" />
<glyph unicode="&#xf6;" glyph-name="odieresis" horiz-adv-x="501" d="M178 723H278L263 614H164L178 723ZM353 723H453L438 614H338L353 723ZM36 -12T36 180Q36 325 90 431T279 538Q465 538 465 343Q465 198 411 93T222 -12Q36 -12 36 180ZM296 89T319 177T342
343Q342 437 275 437Q205 437 182 349T159 183Q159 136 175 113T226 89Q296 89 319 177Z" />
<glyph unicode="&#xf7;" glyph-name="divide" horiz-adv-x="549" d="M252 470H356L340 359H236L252 470ZM40 307H522L507 203H25L40 307ZM207 151H311L295 41H191L207 151Z" />
<glyph unicode="&#xf8;" glyph-name="oslash" horiz-adv-x="501" d="M79 39Q36 85 36 180Q36 325 90 431T279 538Q329 538 369 522L391 558H466L422 485Q465 434 465 343Q465 198 411 93T222 -12Q170 -12 132 3L111 -32H36L79 39ZM312 427Q295 437 275 437Q205
437 182 349T159 183V172L312 427ZM296 89T319 177T342 343V352L189 98Q204 89 226 89Q296 89 319 177Z" />
<glyph unicode="&#xf9;" glyph-name="ugrave" horiz-adv-x="501" d="M172 720L174 723H294L361 591H262L172 720ZM103 -12T71 23T38 123Q38 135 41 158T51 233L91 526H209L171 247Q160 166 160 163Q160 128 173 113T218 97Q254 97 281 127T316 210L359 526H478L405
0H307V68Q250 -12 165 -12Q103 -12 71 23Z" />
<glyph unicode="&#xfa;" glyph-name="uacute" horiz-adv-x="501" d="M316 723H436L437 720L329 591H230L316 723ZM103 -12T71 23T38 123Q38 135 41 158T51 233L91 526H209L171 247Q160 166 160 163Q160 128 173 113T218 97Q254 97 281 127T316 210L359 526H478L405
0H307V68Q250 -12 165 -12Q103 -12 71 23Z" />
<glyph unicode="&#xfb;" glyph-name="ucircumflex" horiz-adv-x="501" d="M262 723H360L426 588H336L302 657L251 588H158L262 723ZM103 -12T71 23T38 123Q38 135 41 158T51 233L91 526H209L171 247Q160 166 160 163Q160 128 173 113T218 97Q254 97 281 127T316
210L359 526H478L405 0H307V68Q250 -12 165 -12Q103 -12 71 23Z" />
<glyph unicode="&#xfc;" glyph-name="udieresis" horiz-adv-x="501" d="M174 723H274L259 614H160L174 723ZM349 723H449L434 614H334L349 723ZM103 -12T71 23T38 123Q38 135 41 158T51 233L91 526H209L171 247Q160 166 160 163Q160 128 173 113T218 97Q254 97
281 127T316 210L359 526H478L405 0H307V68Q250 -12 165 -12Q103 -12 71 23Z" />
<glyph unicode="&#xfd;" glyph-name="yacute" horiz-adv-x="456" d="M305 723H425L426 720L318 591H219L305 723ZM37 -182T15 -179T-7 -173L4 -81H58Q85 -81 109 -61T149 0L49 526H169L213 279Q217 254 221 206T227 142H231Q235 157 249 203T275 278L374 526H492L281
27Q239 -70 188 -126T68 -182Q37 -182 15 -179Z" />
<glyph unicode="&#xfe;" glyph-name="thorn" horiz-adv-x="501" d="M123 723H242L207 471Q255 538 325 538Q393 538 430 491T468 352Q468 231 439 149T363 28T262 -12Q183 -12 150 57L118 -172H0L123 723ZM300 97T323 176T347 340Q347 385 333 407T284 429Q241
429 216 388T182 291T172 188Q172 143 187 120T237 97Q300 97 323 176Z" />
<glyph unicode="&#xff;" glyph-name="ydieresis" horiz-adv-x="456" d="M163 723H263L248 614H149L163 723ZM338 723H438L423 614H323L338 723ZM37 -182T15 -179T-7 -173L4 -81H58Q85 -81 109 -61T149 0L49 526H169L213 279Q217 254 221 206T227 142H231Q235 157
249 203T275 278L374 526H492L281 27Q239 -70 188 -126T68 -182Q37 -182 15 -179Z" />
<glyph unicode="&#x2013;" glyph-name="endash" horiz-adv-x="456" d="M11 319H467L454 221H-1L11 319Z" />
<glyph unicode="&#x2014;" glyph-name="emdash" horiz-adv-x="820" d="M11 319H831L818 221H-1L11 319Z" />
<glyph unicode="&#x2018;" glyph-name="quoteleft" horiz-adv-x="228" d="M81 518L171 686H243L170 530H221L202 393H64L81 518Z" />
<glyph unicode="&#x2019;" glyph-name="quoteright" horiz-adv-x="228" d="M143 549H92L111 686H249L232 561L142 393H70L143 549Z" />
<glyph unicode="&#x201a;" glyph-name="quotesinglbase" horiz-adv-x="228" d="M67 0H16L35 137H173L156 12L66 -156H-6L67 0Z" />
<glyph unicode="&#x201c;" glyph-name="quotedblleft" horiz-adv-x="410" d="M73 518L163 686H235L162 530H213L194 393H56L73 518ZM256 518L346 686H418L345 530H396L377 393H239L256 518Z" />
<glyph unicode="&#x201d;" glyph-name="quotedblright" horiz-adv-x="410" d="M143 549H92L111 686H249L232 561L142 393H70L143 549ZM326 549H275L294 686H432L415 561L325 393H253L326 549Z" />
<glyph unicode="&#x201e;" glyph-name="quotedblbase" horiz-adv-x="410" d="M67 0H16L35 137H173L156 12L66 -156H-6L67 0ZM250 0H199L218 137H356L339 12L249 -156H177L250 0Z" />
<glyph unicode="&#x2022;" glyph-name="bullet" horiz-adv-x="287" d="M121 220T94 237T50 282T34 344Q34 395 69 431T154 467Q204 467 239 431T275 344Q275 311 259 283T215 237T154 220Q121 220 94 237Z" />
<glyph unicode="&#x2039;" glyph-name="guilsinglleft" horiz-adv-x="273" d="M32 326L192 526H287L151 326L230 126H139L32 326Z" />
<glyph unicode="&#x203a;" glyph-name="guilsinglright" horiz-adv-x="273" d="M148 326L68 526H159L267 326L106 126H12L148 326Z" />
</font>
</defs>
</svg>
