<?xml version="1.0" standalone="no"?>
<!DOCTYPE svg PUBLIC "-//W3C//DTD SVG 1.1//EN" "http://www.w3.org/Graphics/SVG/1.1/DTD/svg11.dtd">
<svg xmlns="http://www.w3.org/2000/svg">
<defs >
<font id="Judson" horiz-adv-x="444" ><font-face
    font-family="Judson"
    units-per-em="1000"
    panose-1="2 0 8 3 0 0 0 0 0 0"
    ascent="908"
    descent="-255"
    alphabetic="0" />
<glyph unicode=" " glyph-name="space" horiz-adv-x="240" />
<glyph unicode="!" glyph-name="exclam" horiz-adv-x="235" d="M49 52Q49 81 69 98T117 116Q141 116 164 100T187 55Q187 26 166 8T118 -10Q94 -10 72 7T49 52ZM143 206T117 206T77 306Q51 488 51 562Q51 596 71 613T117 630T162 613T183 562Q183 526 172 430T157
306Q143 206 117 206Z" />
<glyph unicode="&quot;" glyph-name="quotedbl" horiz-adv-x="355" d="M280 374T265 374T228 473T205 620Q205 642 223 653T265 665T306 654T325 620Q325 572 303 473ZM105 374T90 374T53 473T30 620Q30 642 48 653T90 665T131 654T150 620Q150 572 128 473Z" />
<glyph unicode="#" glyph-name="numbersign" horiz-adv-x="500" d="M455 230V196H345L318 0H258L285 196H180L153 0H93L120 196H30V230H125L143 356H45V390H148L175 585H235L208 390H313L340 585H400L373 390H470V356H368L350 230H455ZM185 230H290L308 356H203L185 230Z" />
<glyph unicode="$" glyph-name="dollar" horiz-adv-x="443" d="M46 56V158H68Q76 105 117 70T203 26V239L172 260Q47 346 47 440Q47 498 95 545T203 595V630H243V592Q272 587 299 575T339 554L352 544L360 434H338Q334 466 305 501T243 552V361L272 342Q338 299
375 255T413 148Q413 79 362 38T243 -9V-42H203V-9Q153 -6 114 10T60 42L46 56ZM203 387V561Q165 559 146 531T126 472Q126 438 203 387ZM243 213V26Q278 32 299 57T321 120Q321 159 243 213Z" />
<glyph unicode="%" glyph-name="percent" horiz-adv-x="540" d="M459 565L122 20H82L419 565H459ZM113 501T113 466T123 405T151 378T178 404T189 466T179 527T151 554T124 528ZM29 417T29 466T68 551T151 588T234 552T273 466T234 381T151 344T68 380ZM351 154T351
119T361 58T389 31T416 57T427 119T417 180T389 207T362 181ZM267 70T267 119T306 204T389 241T472 205T511 119T472 34T389 -3T306 33Z" />
<glyph unicode="&amp;" glyph-name="ampersand" horiz-adv-x="607" d="M289 560Q271 560 254 533T236 466Q236 424 260 357Q337 411 337 469Q337 506 325 533T289 560ZM580 345V324Q523 324 517 304Q471 161 413 87Q453 44 482 44Q520 44 534 51T565 81L577 71Q563
33 540 12T474 -10Q419 -10 360 34Q301 -10 229 -10Q19 -10 19 127Q19 182 59 221T174 304Q130 409 130 474Q130 506 141 529T167 565T203 584T238 593T269 595Q318 595 348 561T379 481Q379 428 352 391T276 317Q322 203 388 117Q442 197 471 305Q462 324 408
324V345H580ZM333 57Q257 129 194 258Q164 233 150 211T136 154Q136 95 175 64T266 32Q300 32 333 57Z" />
<glyph unicode="&apos;" glyph-name="quotesingle" horiz-adv-x="180" d="M105 374T90 374T53 473T30 620Q30 642 48 653T90 665T131 654T150 620Q150 572 128 473Z" />
<glyph unicode="(" glyph-name="parenleft" horiz-adv-x="251" d="M30 315Q30 451 129 605Q177 680 202 680Q211 680 211 669Q211 668 207 662T197 642T187 615Q171 564 158 479T144 315T157 151T187 15Q191 1 197 -12T207 -31T211 -39Q211 -50 202 -50Q176 -50
128 25Q30 177 30 315Z" />
<glyph unicode=")" glyph-name="parenright" horiz-adv-x="250" d="M220 315Q220 179 121 25Q73 -50 48 -50Q39 -50 39 -39Q39 -38 43 -32T53 -12T63 15Q79 66 92 151T106 315T93 479T63 615Q59 629 53 642T43 661T39 669Q39 680 48 680Q74 680 122 605Q220 453 220 315Z" />
<glyph unicode="*" glyph-name="asterisk" horiz-adv-x="352" d="M124 358Q106 358 90 373T73 404Q73 414 79 423Q85 431 116 446T158 462Q149 470 149 481Q149 482 149 484T150 487Q142 482 115 476T71 470Q56 470 48 480T40 505Q40 525 52 541T80 557Q82 557
90 555Q100 552 123 528T151 492Q158 505 173 507Q165 513 148 544T131 585Q131 601 143 610T175 620T206 611T219 585Q219 575 202 544T177 507Q193 505 199 491Q201 500 226 526T261 555Q269 557 272 557Q287 557 299 542T311 506Q311 492 303 481T280 470Q263
470 235 476T200 487Q201 485 201 481Q201 471 192 462Q203 462 235 447T273 423Q279 414 279 405Q279 388 262 373T226 358Q210 358 201 371Q196 377 192 403T188 448Q188 457 189 459Q184 455 175 455Q168 455 162 458Q163 455 163 446Q163 388 150 371Q140 358
124 358Z" />
<glyph unicode="+" glyph-name="plus" horiz-adv-x="404" d="M228 292V151H176V292H35V344H176V485H228V344H369V292H228Z" />
<glyph unicode="," glyph-name="comma" horiz-adv-x="224" d="M96 -10Q71 -10 56 5T41 43Q41 73 62 88T102 104Q187 104 187 -6Q187 -55 146 -93T55 -134V-98Q91 -90 113 -66T135 -18Q135 3 127 3Q126 3 122 0T111 -7T96 -10Z" />
<glyph unicode="-" glyph-name="hyphen" horiz-adv-x="372" d="M54 340H318V296H54V340Z" />
<glyph unicode="." glyph-name="period" horiz-adv-x="220" d="M41 52Q41 81 61 98T109 116Q133 116 156 100T179 55Q179 26 158 8T110 -10Q86 -10 64 7T41 52Z" />
<glyph unicode="/" glyph-name="slash" horiz-adv-x="474" d="M18 -10L407 612L456 594L67 -28L18 -10Z" />
<glyph unicode="0" glyph-name="zero" horiz-adv-x="490" d="M159 292Q159 21 245 21T331 292Q331 564 245 564T159 292ZM30 166T30 292T88 506T245 595T401 507T460 292T402 78T245 -10T89 78Z" />
<glyph unicode="1" glyph-name="one" horiz-adv-x="490" d="M338 585V61Q338 40 371 31T445 21V0H107V21Q148 21 181 30T214 61V435Q163 402 124 372L117 389L295 585H338Z" />
<glyph unicode="2" glyph-name="two" horiz-adv-x="490" d="M40 0Q40 17 67 53T134 132T213 223T279 322T307 414Q307 458 284 496T226 535Q183 535 149 520T100 487T74 454T58 439Q50 439 50 449Q50 460 62 482T98 530T163 575T254 595Q346 595 390 552T434 445Q434
407 396 351T313 248T230 159T192 102H373Q385 102 396 111T413 128T430 154H450L424 0H40Z" />
<glyph unicode="3" glyph-name="three" horiz-adv-x="490" d="M212 288Q205 288 199 292T193 301Q193 305 200 308Q294 336 294 433Q294 479 271 507T203 535Q171 535 147 523T113 496T95 469T83 457Q75 457 75 467Q75 478 84 497T110 539T160 578T233 595Q415
595 415 446Q415 379 324 327Q372 314 407 271T442 180Q442 95 397 43T236 -10Q195 -10 158 0T98 24T62 51T48 72Q48 102 55 114T84 126Q101 126 115 110T139 74T170 38T220 21Q264 21 294 54T324 160Q324 217 303 252T241 288H212Z" />
<glyph unicode="4" glyph-name="four" horiz-adv-x="490" d="M366 585V205H447V175H366V41Q375 21 429 21V0H178V21Q232 21 241 41V175H44L320 585H366ZM241 205V413L100 205H241Z" />
<glyph unicode="5" glyph-name="five" horiz-adv-x="490" d="M143 385Q225 385 287 365T380 314T427 252T442 192Q442 -10 248 -10Q186 -10 137 7T68 43T48 72Q48 102 55 114T84 126Q96 126 108 110T132 74T170 38T234 21Q324 21 324 172Q324 208 317 233T289
283T221 320T102 333L135 585H414L390 499H158L143 385Z" />
<glyph unicode="6" glyph-name="six" horiz-adv-x="490" d="M173 354Q207 370 247 370Q452 370 452 188Q452 97 397 44T251 -10Q154 -10 96 56T38 224Q38 308 69 380T148 498T244 571T335 603L348 569Q205 533 173 354ZM168 322Q163 284 163 224Q163 117 185 70T251
22Q327 22 327 196Q327 221 327 234T322 270T311 305T287 326T249 336Q196 336 168 322Z" />
<glyph unicode="7" glyph-name="seven" horiz-adv-x="490" d="M174 16Q174 67 214 174T294 375T335 490H137Q124 490 106 471T78 426H58L96 585H432Q432 570 389 463T303 224T260 16Q260 7 248 -1T216 -10T185 -2T174 16Z" />
<glyph unicode="8" glyph-name="eight" horiz-adv-x="490" d="M286 341Q351 386 351 478Q351 518 321 540T256 562Q156 562 156 481Q156 464 165 447T198 410T236 378T286 341ZM325 312Q442 223 442 144Q442 86 385 38T245 -10Q154 -10 97 32T40 138Q40 233 163
300Q51 386 51 464Q51 518 102 554T237 590Q432 590 432 470Q432 376 325 312ZM201 271Q122 228 122 130Q122 84 155 56T226 28Q275 28 306 48T337 127Q337 173 217 259Q206 267 201 271Z" />
<glyph unicode="9" glyph-name="nine" horiz-adv-x="490" d="M317 231Q283 215 243 215Q38 215 38 397Q38 488 93 541T239 595Q336 595 394 529T452 361Q452 277 421 205T342 87T246 14T155 -18L142 16Q285 52 317 231ZM322 263Q327 300 327 361Q327 468 305 515T239
563Q163 563 163 389Q163 364 163 351T168 315T179 280T203 259T241 249Q294 249 322 263Z" />
<glyph unicode=":" glyph-name="colon" horiz-adv-x="246" d="M54 52Q54 81 74 98T122 116Q146 116 169 100T192 55Q192 26 171 8T123 -10Q99 -10 77 7T54 52ZM54 382Q54 411 74 428T122 446Q146 446 169 430T192 385Q192 356 171 338T123 320Q99 320 77 337T54 382Z" />
<glyph unicode=";" glyph-name="semicolon" horiz-adv-x="257" d="M112 -10Q87 -10 72 5T57 43Q57 73 78 88T118 104Q203 104 203 -6Q203 -55 162 -93T71 -134V-98Q107 -90 129 -66T151 -18Q151 3 143 3Q142 3 138 0T127 -7T112 -10ZM57 382Q57 411 77 428T125
446Q149 446 172 430T195 385Q195 356 174 338T126 320Q102 320 80 337T57 382Z" />
<glyph unicode="&lt;" glyph-name="less" horiz-adv-x="470" d="M29 343L407 520V469L94 318L407 167V116L29 293V343Z" />
<glyph unicode="=" glyph-name="equal" horiz-adv-x="486" d="M61 285H425V231H61V285ZM61 405H425V351H61V405Z" />
<glyph unicode="&gt;" glyph-name="greater" horiz-adv-x="470" d="M441 293L63 116V167L376 318L63 469V520L441 343V293Z" />
<glyph unicode="?" glyph-name="question" horiz-adv-x="426" d="M123 52Q123 81 143 98T191 116Q215 116 238 100T261 55Q261 26 240 8T192 -10Q168 -10 146 7T123 52ZM171 200Q171 237 186 269T221 324T255 387T271 480Q271 533 248 566T186 600Q149 600 131
578T113 529Q113 517 120 504T128 479Q128 462 114 449T80 435Q55 435 42 451T28 496Q28 546 73 588T196 630Q294 630 345 588T396 475Q396 436 377 401T330 339T274 291T227 245T207 200Q207 195 200 191T189 186T178 190T171 200Z" />
<glyph unicode="@" glyph-name="at" horiz-adv-x="619" d="M245 159Q207 159 187 188T166 259Q166 325 211 381T307 437Q351 437 373 396L381 426H449L390 203Q387 193 393 188T412 182Q445 182 471 215T507 283T517 338Q517 404 502 449T458 516T401 545T335
553Q234 553 159 482T83 288Q83 209 125 148T223 58T335 29Q380 29 419 43T482 72T527 115T556 152T573 182L589 174Q570 131 554 104T508 47T434 4T329 -10Q220 -10 131 73T41 284Q41 426 127 510T331 595Q429 595 494 531T559 346Q559 319 549 287T519 222T465
168T388 146Q368 146 348 158T324 196Q285 159 245 159ZM347 338Q347 398 311 398Q290 398 263 356T235 270Q235 202 261 202Q297 202 322 243T347 338Z" />
<glyph unicode="A" glyph-name="A" horiz-adv-x="566" d="M329 0V21Q375 21 387 33L331 186H139L87 39Q97 21 149 21V0H-15V21Q40 21 48 42L242 585H323L519 42Q526 21 583 21V0H329ZM234 452L151 219H319L234 452Z" />
<glyph unicode="B" glyph-name="B" horiz-adv-x="599" d="M36 0V21Q90 21 99 41V544Q90 564 36 564V585H275Q400 585 463 544T527 447Q527 341 413 306Q487 288 529 250T571 171Q571 95 511 48T331 0H36ZM226 551V319H272Q344 319 368 350T392 446Q392 551 240
551H226ZM226 290V34H296Q436 34 436 170Q436 217 401 253T284 290H226Z" />
<glyph unicode="C" glyph-name="C" horiz-adv-x="562" d="M350 561Q266 561 221 492T175 306Q175 170 224 97T354 24Q403 24 443 57T499 132L540 120Q517 65 468 28T334 -10Q200 -10 118 77T36 284Q36 423 130 509T349 595Q378 595 421 580T470 565Q482 565 482
585H505L513 444H491Q485 485 439 523T350 561Z" />
<glyph unicode="D" glyph-name="D" horiz-adv-x="613" d="M36 -1V20Q90 20 99 40V543Q90 563 36 563V584H266Q401 584 488 503T576 293Q576 164 491 82T278 -1H36ZM226 555V33H278Q346 33 393 97T441 292Q441 424 391 489T266 555H226Z" />
<glyph unicode="E" glyph-name="E" horiz-adv-x="503" d="M36 0V21Q90 21 99 41V544Q90 564 36 564V585H449V488H428Q428 542 408 551H226V321H341Q361 330 361 384H382V224H361Q361 278 341 287H226V34H429Q454 45 474 97H494L470 0H36Z" />
<glyph unicode="F" glyph-name="F" horiz-adv-x="467" d="M36 0V21Q90 21 99 41V544Q90 564 36 564V585H449V488H428Q428 542 408 551H226V321H341Q361 330 361 384H382V224H361Q361 278 341 287H226V41Q235 21 289 21V0H36Z" />
<glyph unicode="G" glyph-name="G" horiz-adv-x="623" d="M362 561Q278 561 225 482T172 286Q172 151 223 88T348 24Q390 24 424 33V248Q415 268 361 268V289H614V268Q560 268 551 248V80Q534 49 480 20T346 -10Q211 -10 122 78T33 284Q33 377 83 449T207 558T361
595Q390 595 436 580T487 565Q499 565 499 585H522L532 440H510Q504 481 454 521T362 561Z" />
<glyph unicode="H" glyph-name="H" horiz-adv-x="673" d="M36 0V21Q90 21 99 41V544Q90 564 36 564V585H289V564Q235 564 226 544V321H447V544Q438 564 384 564V585H637V564Q583 564 574 544V41Q583 21 637 21V0H384V21Q438 21 447 41V287H226V41Q235 21 289 21V0H36Z" />
<glyph unicode="I" glyph-name="I" horiz-adv-x="325" d="M36 0V21Q90 21 99 41V544Q90 564 36 564V585H289V564Q235 564 226 544V41Q235 21 289 21V0H36Z" />
<glyph unicode="J" glyph-name="J" horiz-adv-x="424" d="M342 218Q342 102 296 46T151 -10Q80 -10 41 18T1 80Q1 103 15 121T49 140Q66 140 82 127T99 95Q99 61 74 53Q75 52 78 48T85 41T96 34T114 28T141 26Q185 26 200 79T215 254V544Q206 564 152 564V585H405V564Q351
564 342 544V218Z" />
<glyph unicode="K" glyph-name="K" horiz-adv-x="627" d="M36 0V21Q90 21 99 41V544Q90 564 36 564V585H287V564Q233 564 224 544V41Q233 21 287 21V0H36ZM420 0V21Q444 21 457 24L229 314L474 557Q460 564 423 564V585H580V564Q571 564 564 564T551 561T541 558T533
554T528 550T522 545L518 541L336 362L587 37Q600 21 650 21V0H420Z" />
<glyph unicode="L" glyph-name="L" horiz-adv-x="498" d="M36 0V21Q90 21 99 41V544Q90 564 36 564V585H289V564Q235 564 226 544V34H434Q459 45 479 97H499L475 0H36Z" />
<glyph unicode="M" glyph-name="M" horiz-adv-x="862" d="M36 0V21Q90 21 99 41V544Q90 564 36 564V585H217L430 120L643 585H826V564Q772 564 763 544V41Q772 21 826 21V0H573V21Q627 21 636 41V490L412 0H362L133 496V41Q142 21 196 21V0H36Z" />
<glyph unicode="N" glyph-name="N" horiz-adv-x="623" d="M36 0V21Q90 21 99 41V544Q90 564 36 564V585H205L501 180V544Q492 564 438 564V585H598V564Q544 564 535 544V0H491L133 495V41Q142 21 196 21V0H36Z" />
<glyph unicode="O" glyph-name="O" horiz-adv-x="664" d="M170 300Q170 232 184 173T238 69T336 24Q381 24 413 47T462 111T486 193T494 284Q494 351 479 411T425 516T328 561Q283 561 251 537T202 473T178 391T170 300ZM35 169T35 292T122 505T332 595T542 505T629
292T542 80T332 -10Q208 -10 122 79Z" />
<glyph unicode="P" glyph-name="P" horiz-adv-x="565" d="M36 0V21Q90 21 99 41V544Q90 564 36 564V585H302Q425 585 489 538T554 433Q554 358 494 312T314 266H226V41Q235 21 289 21V0H36ZM226 551V300H279Q356 300 387 330T419 432Q419 551 267 551H226Z" />
<glyph unicode="Q" glyph-name="Q" horiz-adv-x="664" d="M35 169T35 292T122 505T332 595T542 505T629 292Q629 209 587 139T474 28Q476 23 482 8T490 -12T498 -29T507 -44T518 -55T531 -64T547 -66Q571 -66 591 -55T619 -32L627 -20L642 -31Q641 -34 639 -38T628
-55T609 -77T582 -94T547 -102Q480 -102 444 -76T385 -5Q357 -10 332 -10Q208 -10 122 79ZM370 28Q361 49 357 57T343 79T324 97T299 102Q259 102 227 81Q269 24 336 24Q357 24 370 28ZM445 82Q494 152 494 284Q494 351 479 411T425 516T328 561Q283 561 251 537T202
473T178 391T170 300Q170 185 211 107Q250 146 305 146Q399 146 445 82Z" />
<glyph unicode="R" glyph-name="R" horiz-adv-x="589" d="M36 0V21Q90 21 99 41V544Q90 564 36 564V585H282Q406 585 470 540T534 437Q534 382 501 341T403 280L536 42Q546 21 602 21V0H559Q480 0 443 9T386 52L265 266H226V41Q235 21 289 21V0H36ZM226 551V300H259Q327
300 363 330T399 436Q399 494 359 522T247 551H226Z" />
<glyph unicode="S" glyph-name="S" horiz-adv-x="470" d="M244 -10Q195 -10 144 5T91 20Q85 20 77 14T69 0H46V158H68Q79 99 134 62T238 24Q288 24 318 50T349 120Q349 135 340 149T310 179T273 205T227 234T183 260Q47 344 47 440Q47 499 101 547T222 595Q252
595 295 580T343 565Q355 565 355 585H378L388 434H366Q360 475 312 518T223 561Q178 561 155 533T132 472Q132 459 141 447T170 419T205 395T251 367T294 342Q363 300 402 255T441 148Q441 74 381 32T244 -10Z" />
<glyph unicode="T" glyph-name="T" horiz-adv-x="543" d="M13 585H530V488H509Q509 536 474 551H335V41Q344 21 398 21V0H145V21Q199 21 208 41V551H69Q34 536 34 488H13V585Z" />
<glyph unicode="U" glyph-name="U" horiz-adv-x="604" d="M346 24Q411 24 450 79T489 228V544Q480 564 426 564V585H586V564Q532 564 523 544V248Q523 118 466 54T321 -10Q81 -10 81 248V544Q72 564 18 564V585H271V564Q217 564 208 544V234Q208 132 243 78T346 24Z" />
<glyph unicode="V" glyph-name="V" horiz-adv-x="566" d="M479 546Q469 564 417 564V585H581V564Q526 564 518 543L324 0H243L47 543Q40 564 -17 564V585H237V564Q191 564 179 552L332 133L479 546Z" />
<glyph unicode="W" glyph-name="W" horiz-adv-x="897" d="M569 585V564Q523 564 511 552L664 133L811 546Q801 564 749 564V585H913V564Q858 564 850 543L656 0H573L448 349L324 0H241L47 543Q40 564 -17 564V585H237V564Q191 564 179 552L332 134L428 405L379
543Q372 564 315 564V585H569Z" />
<glyph unicode="X" glyph-name="X" horiz-adv-x="535" d="M250 585V564Q203 564 192 552L294 373L414 549Q404 564 354 564V585H518V564Q467 564 454 544L314 339L484 42Q495 21 548 21V0H294V21Q341 21 352 33L240 230L107 35Q118 21 167 21V0H3V21Q55 21 67
40L220 264L60 544Q48 564 -4 564V585H250Z" />
<glyph unicode="Y" glyph-name="Y" horiz-adv-x="584" d="M238 585V564Q191 564 180 552L335 281L495 546Q484 564 433 564V585H597V564Q548 564 540 551L360 252V41Q369 21 423 21V0H170V21Q224 21 233 41V220L48 544Q36 564 -16 564V585H238Z" />
<glyph unicode="Z" glyph-name="Z" horiz-adv-x="492" d="M446 0H14L297 555H104Q92 550 81 526T69 472H48V585H451L168 30H390Q402 35 422 64T450 122H471L446 0Z" />
<glyph unicode="[" glyph-name="bracketleft" horiz-adv-x="277" d="M176 579V-120H257V-156H61V615H257V579H176Z" />
<glyph unicode="\" glyph-name="backslash" horiz-adv-x="474" d="M456 -10L407 -28L18 594L67 612L456 -10Z" />
<glyph unicode="]" glyph-name="bracketright" horiz-adv-x="277" d="M101 -120V579H20V615H216V-156H20V-120H101Z" />
<glyph unicode="^" glyph-name="asciicircum" horiz-adv-x="456" d="M241 548L406 352L372 308L228 480L84 308L50 352L214 548H241Z" />
<glyph unicode="_" glyph-name="underscore" horiz-adv-x="456" d="M46 -50H410V-94H46V-50Z" />
<glyph unicode="`" glyph-name="grave" horiz-adv-x="300" d="M186 662L240 500H194L60 662H186Z" />
<glyph unicode="a" glyph-name="a" horiz-adv-x="503" d="M130 366Q153 366 153 325Q153 308 136 299T100 290Q80 290 65 304T49 340Q49 391 99 420T231 450Q326 450 379 403T432 282V84Q432 52 442 37T468 22Q481 22 491 29T502 46H520Q520 -8 410 -8Q359 -8
331 28Q271 -10 192 -10Q25 -10 25 112Q25 137 42 157T96 191T160 213T239 231T307 247Q307 341 292 377T221 414Q188 414 162 401T130 366ZM317 52Q307 79 307 112V225Q222 199 195 182Q153 154 153 110Q153 64 172 44T217 24Q261 24 317 52Z" />
<glyph unicode="b" glyph-name="b" horiz-adv-x="553" d="M57 560Q3 564 -6 564V587Q13 587 86 608T182 630V426Q228 454 294 454Q320 454 348 448T408 425T465 383T506 316T523 222Q523 112 450 51T272 -10Q205 -10 161 22Q81 -10 57 -10V560ZM182 394V42Q216
24 266 24Q320 24 356 75T393 222Q393 312 365 366T284 420Q223 420 182 394Z" />
<glyph unicode="c" glyph-name="c" horiz-adv-x="481" d="M274 420Q227 420 194 373T161 246Q161 157 197 93T291 28Q375 28 418 100L455 82Q426 34 380 12T257 -10Q227 -10 198 -4T138 21T84 66T46 138T31 242Q31 328 97 389T264 450Q345 450 394 423T444 344Q444
319 432 303T394 287Q370 287 356 298T341 329Q341 350 351 360T376 370Q363 420 274 420Z" />
<glyph unicode="d" glyph-name="d" horiz-adv-x="577" d="M375 430V560Q321 564 312 564V587Q331 587 404 608T500 630V60Q554 56 563 56V33Q544 33 471 12T375 -10V23Q327 -10 255 -10Q229 -10 202 -4T143 19T87 61T47 128T31 222Q31 332 102 393T277 454Q334
454 375 430ZM375 398Q337 420 283 420Q239 420 200 366T161 222Q161 139 194 82T265 24Q334 24 375 56V398Z" />
<glyph unicode="e" glyph-name="e" horiz-adv-x="501" d="M161 241Q163 154 200 91T296 28Q383 28 436 94L460 82Q431 34 385 12T262 -10Q223 -10 186 1T113 39T54 118T31 242Q31 329 92 389T252 450Q359 450 418 390T477 241H161ZM162 272H344Q338 343 320 381T260
420Q224 420 196 384T162 272Z" />
<glyph unicode="f" glyph-name="f" horiz-adv-x="301" d="M355 571Q355 526 315 526Q291 526 281 537T271 563T267 588T245 600Q209 600 209 488V440H286V410H209V41Q218 21 272 21V0H21V21Q75 21 84 41V410H34V440H84V474Q84 556 125 593T235 630Q294 630 324
612T355 571Z" />
<glyph unicode="g" glyph-name="g" horiz-adv-x="537" d="M480 450V29Q480 -71 422 -135T266 -200Q174 -200 120 -176T66 -112Q66 -48 120 -48Q140 -48 153 -62T166 -95Q166 -127 141 -137Q168 -164 256 -164Q302 -164 326 -125T354 12Q312 -10 251 -10Q218 -10
184 0T113 35T55 106T32 218Q32 329 101 389T273 450Q337 450 381 420Q456 450 480 450ZM355 44V65V402Q324 416 279 416Q162 416 162 218Q162 160 172 119T199 58T231 32T261 24Q315 24 355 44Z" />
<glyph unicode="h" glyph-name="h" horiz-adv-x="596" d="M14 0V21Q68 21 77 41V560Q23 564 14 564V587Q33 587 106 608T202 630V411Q262 450 321 450Q420 450 471 418T522 312V41Q531 21 585 21V0H334V21Q388 21 397 41V288Q397 357 377 386T315 416Q255 416
202 380V41Q211 21 265 21V0H14Z" />
<glyph unicode="i" glyph-name="i" horiz-adv-x="289" d="M24 0V21Q78 21 87 41V380Q35 384 24 384V407Q43 407 116 428T212 450V41Q221 21 275 21V0H24ZM147 514Q123 514 99 531T74 573Q74 594 96 612T144 630Q168 630 192 613T217 570Q217 549 195 532T147 514Z" />
<glyph unicode="j" glyph-name="j" horiz-adv-x="258" d="M135 515Q111 515 87 532T63 574Q63 595 85 613T132 631Q156 631 181 613T206 571Q206 550 183 533T135 515ZM76 381Q24 385 13 385V408Q32 408 105 429T201 451V-43Q201 -123 152 -161T42 -199Q-88 -199
-88 -112Q-88 -91 -76 -76T-40 -60Q-19 -60 -8 -75T4 -111Q4 -125 -6 -135Q-6 -169 32 -169Q51 -169 63 -140T76 -57V381Z" />
<glyph unicode="k" glyph-name="k" horiz-adv-x="550" d="M14 0V21Q68 21 77 41V560Q23 564 14 564V587Q33 587 106 608T202 630V41Q211 21 265 21V0H14ZM338 0V21Q362 21 376 24L209 254L386 413Q371 419 337 419V440H494V419Q455 419 440 406L319 298L505 40Q519
21 568 21V0H338Z" />
<glyph unicode="l" glyph-name="l" horiz-adv-x="279" d="M14 0V21Q68 21 77 41V560Q23 564 14 564V587Q33 587 106 608T202 630V41Q211 21 265 21V0H14Z" />
<glyph unicode="m" glyph-name="m" horiz-adv-x="876" d="M24 0V21Q78 21 87 41V380Q33 384 24 384V407Q43 407 116 428T212 450V415Q253 450 315 450Q448 450 490 394Q535 450 613 450Q709 450 758 399T808 222V41Q817 21 871 21V0H620V21Q674 21 683 41V235Q683
328 667 372T607 416Q553 416 505 366Q510 352 510 328V41Q519 21 573 21V0H322V21Q376 21 385 41V270Q385 352 367 384T309 416Q267 416 212 368V41Q221 21 275 21V0H24Z" />
<glyph unicode="n" glyph-name="n" horiz-adv-x="597" d="M24 0V21Q78 21 87 41V380Q33 384 24 384V407Q43 407 116 428T212 450V408Q262 450 322 450Q418 450 471 415T524 308V41Q533 21 587 21V0H336V21Q390 21 399 41V315Q399 360 379 388T316 416Q254 416
212 376V41Q221 21 275 21V0H24Z" />
<glyph unicode="o" glyph-name="o" horiz-adv-x="545" d="M162 248Q162 130 193 75T290 20Q335 20 359 67T383 193Q383 315 355 367T253 419Q210 419 186 369T162 248ZM277 -10Q164 -10 98 56T31 228Q31 323 91 386T270 450Q389 450 451 387T514 216Q514 120 454
55T277 -10Z" />
<glyph unicode="p" glyph-name="p" horiz-adv-x="573" d="M14 -192V-171Q68 -171 77 -151V379Q77 379 14 384V407Q33 407 106 428T202 450V423Q247 450 312 450Q358 450 396 439T468 403T521 331T541 218Q541 105 476 48T290 -10Q239 -10 202 7V-151Q211 -171
265 -171V-192H14ZM202 391V39Q238 24 284 24Q338 24 374 74T411 218Q411 256 399 300T361 380T302 416Q241 416 202 391Z" />
<glyph unicode="q" glyph-name="q" horiz-adv-x="548" d="M303 -192V-171Q357 -171 366 -151V14Q323 -10 259 -10Q226 -10 190 0T116 35T54 106T30 218Q30 328 103 389T281 450Q346 450 390 420Q465 450 491 450V-151Q500 -171 554 -171V-192H303ZM366 46V401Q330
416 287 416Q233 416 197 365T160 218Q160 128 188 76T269 24Q326 24 366 46Z" />
<glyph unicode="r" glyph-name="r" horiz-adv-x="436" d="M24 0V21Q78 21 87 41V380Q33 384 24 384V407Q43 407 116 428T212 450V408Q264 450 311 450Q435 450 435 390Q435 366 421 352T385 338Q362 338 350 350T335 377T324 404T299 416Q261 416 212 374V41Q221
21 275 21V0H24Z" />
<glyph unicode="s" glyph-name="s" horiz-adv-x="397" d="M206 30Q274 30 274 92Q274 109 250 125T192 158T124 196T66 251T42 329Q42 385 84 417T186 450Q220 450 256 435T297 420Q309 420 309 440H332L342 294H320Q310 336 269 376T189 416Q118 416 118 364Q118
346 157 323T242 277T327 214T366 124Q366 62 319 26T198 -10Q162 -10 125 5T84 20Q72 20 72 0H48L38 153H60Q70 113 120 72T206 30Z" />
<glyph unicode="t" glyph-name="t" horiz-adv-x="354" d="M208 585V440H294V410H208V92Q208 61 219 45T260 28Q278 28 296 45T322 94L346 82Q325 -10 226 -10Q148 -10 113 25T77 142V410H7V440Q66 440 110 484T154 585H208Z" />
<glyph unicode="u" glyph-name="u" horiz-adv-x="570" d="M493 60Q547 56 556 56V33Q537 33 464 12T368 -10V19Q317 -10 266 -10Q73 -10 73 132V399Q64 419 10 419V440H198V125Q198 104 198 93T203 66T214 43T236 30T272 24Q321 24 368 51V399Q359 419 305 419V440H493V60Z"
/>
<glyph unicode="v" glyph-name="v" horiz-adv-x="504" d="M210 0L51 399Q42 419 -12 419V440H217V419Q188 419 175 415L294 122L408 408Q394 419 352 419V440H516V419Q461 419 453 399L294 0H210Z" />
<glyph unicode="w" glyph-name="w" horiz-adv-x="816" d="M522 0L408 286L294 0H210L51 399Q42 419 -12 419V440H217V419Q188 419 175 415L294 122L384 347L363 399Q354 419 300 419V440H529V419Q500 419 487 415L606 122L720 408Q706 419 664 419V440H828V419Q777
419 767 403L606 0H522Z" />
<glyph unicode="x" glyph-name="x" horiz-adv-x="485" d="M461 440V419Q407 419 394 400L292 265L435 35Q444 21 494 21V0H265V21Q290 21 303 24L216 164L114 27Q128 21 162 21V0H1V21Q55 21 69 41L191 204L66 405Q57 419 8 419V440H237V419Q213 419 198 416L267
305L348 413Q334 419 300 419V440H461Z" />
<glyph unicode="y" glyph-name="y" horiz-adv-x="504" d="M217 440V419Q188 419 175 415L294 122L408 408Q394 419 352 419V440H516V419Q462 419 455 403L253 -102Q220 -184 148 -184Q75 -184 75 -136Q75 -118 86 -107T119 -96Q135 -96 147 -111T174 -126Q195
-126 202 -108L228 -44L51 399Q42 419 -12 419V440H217Z" />
<glyph unicode="z" glyph-name="z" horiz-adv-x="414" d="M382 0H12L244 410H100Q87 404 76 386T65 340H44V440H390L158 30H326Q339 35 350 54T361 103H382V0Z" />
<glyph unicode="{" glyph-name="braceleft" horiz-adv-x="275" d="M80 -61Q80 -35 84 49T89 150Q89 184 71 196T14 209V232Q52 232 70 245T89 292Q89 308 85 392T80 502Q80 540 123 567T251 594V571Q214 571 199 559T184 511Q184 495 189 411T195 301Q195 279
167 257T100 221Q139 207 167 185T195 141Q195 115 190 31T184 -70Q184 -105 199 -117T251 -129V-153Q166 -153 123 -126T80 -61Z" />
<glyph unicode="|" glyph-name="bar" horiz-adv-x="177" d="M63 650H114V-30H63V650Z" />
<glyph unicode="}" glyph-name="braceright" horiz-adv-x="275" d="M195 -61Q195 -99 152 -126T24 -153V-129Q61 -129 76 -117T91 -70Q91 -54 86 30T80 141Q80 163 108 185T175 221Q136 235 108 257T80 301Q80 327 85 411T91 511Q91 546 76 558T24 571V594Q109
594 152 567T195 502Q195 476 191 392T186 292Q186 258 204 245T261 232V209Q222 209 204 197T186 150Q186 134 190 50T195 -61Z" />
<glyph unicode="~" glyph-name="asciitilde" horiz-adv-x="529" d="M378 208Q349 208 256 237T144 267Q105 267 92 255T78 208H52Q52 340 154 340Q183 340 277 311T389 281Q428 281 441 293T455 340H481Q481 208 378 208Z" />
<glyph unicode="&#xa0;" glyph-name="uni00A0" horiz-adv-x="240" />
<glyph unicode="&#xa1;" glyph-name="exclamdown" horiz-adv-x="235" d="M186 468Q186 439 166 422T118 404Q94 404 71 420T48 465Q48 494 69 512T117 530Q141 530 163 513T186 468ZM92 314T118 314T158 214Q184 32 184 -42Q184 -76 164 -93T118 -110T73 -93T52
-42Q52 -6 63 90T78 214Q92 314 118 314Z" />
<glyph unicode="&#xa2;" glyph-name="cent" horiz-adv-x="472" d="M291 575L337 566L316 445Q419 426 419 344Q419 321 407 308T376 294Q358 294 345 303T331 329Q331 350 341 360T366 370Q356 406 311 416L244 36Q262 28 281 28Q368 28 421 94L445 82Q416 34
370 12T247 -10H236L215 -128L168 -119L189 -3Q121 13 76 72T31 242Q31 329 92 389T254 450H269L291 575ZM202 70L264 420Q151 420 151 246Q151 135 202 70Z" />
<glyph unicode="&#xa3;" glyph-name="sterling" horiz-adv-x="531" d="M342 87Q386 87 417 93T461 108T482 123T493 130Q503 130 503 118Q503 113 499 101T482 69T453 33T408 4T346 -8Q285 -8 229 39Q185 -10 128 -10Q79 -10 54 17T28 82Q28 110 55 136T112 162Q135
162 162 153Q162 183 155 243T146 345H88V389H147Q155 595 299 595Q365 595 407 572T449 508Q449 490 436 479T406 468T379 479T367 507Q367 521 377 531Q377 547 359 556T320 565Q292 565 282 528T271 389H352V345H272Q273 321 277 268T281 178Q281 138 267 101Q304
87 342 87ZM161 104Q134 128 112 128Q93 128 78 114T62 81Q62 56 79 40T124 24Q156 24 161 104Z" />
<glyph unicode="&#xa4;" glyph-name="currency" horiz-adv-x="503" d="M109 321T109 262T151 161T252 119T353 161T395 262T353 363T252 405T151 363ZM103 147Q64 199 64 262Q64 327 105 379L49 434L81 466L136 410Q187 450 252 450Q315 450 367 411L421 466L453
434L399 380Q440 330 440 262Q440 197 400 146L453 94L421 62L369 115Q317 74 252 74Q184 74 134 115L81 62L49 94L103 147Z" />
<glyph unicode="&#xa5;" glyph-name="yen" horiz-adv-x="559" d="M182 0V21Q236 21 245 41V76H158V120H245V143L232 176H158V220H214L85 544Q76 564 22 564V585H251V564Q222 564 209 560L321 285L427 553Q413 564 371 564V585H535V564Q480 564 473 545L343 220H422V176H337V120H422V76H337V41Q346
21 400 21V0H182Z" />
<glyph unicode="&#xa6;" glyph-name="brokenbar" horiz-adv-x="183" d="M66 650H117V362H66V650ZM66 258H117V-30H66V258Z" />
<glyph unicode="&#xa7;" glyph-name="section" horiz-adv-x="402" d="M306 458Q292 458 281 469T270 494Q270 524 254 550T211 576Q180 576 167 564T153 516Q153 496 186 455T259 374T332 284T366 198Q366 79 273 44Q340 -30 340 -84Q340 -134 297 -161T183 -188Q138
-188 100 -153T62 -90Q62 -74 71 -62T96 -50Q110 -50 121 -61T132 -86Q132 -116 148 -142T191 -168Q222 -168 235 -156T249 -108Q249 -88 216 -47T143 34T70 124T36 210Q36 329 129 364Q62 438 62 492Q62 542 105 569T219 596Q264 596 302 561T340 498Q340 482
331 470T306 458ZM245 74Q281 94 281 140Q281 172 262 207T224 264T168 323Q161 330 157 334Q121 314 121 268Q121 236 140 201T178 144T234 85Q241 78 245 74Z" />
<glyph unicode="&#xa8;" glyph-name="dieresis" horiz-adv-x="402" d="M238 535T238 559T255 600T296 618T337 601T355 559T338 518T296 500T255 517ZM47 535T47 559T64 600T106 618T147 601T164 559T147 518T106 500T65 517Z" />
<glyph unicode="&#xa9;" glyph-name="copyright" horiz-adv-x="636" d="M69 371T69 268T142 92T318 19T494 92T567 268T494 444T318 517T142 444ZM42 154T42 268T123 463T318 544T513 463T594 268T513 73T318 -8T123 73ZM338 395Q297 395 275 365T253 279Q253
213 277 182T339 150Q388 150 408 202L439 189Q411 116 329 116Q256 116 214 157T171 268Q171 351 220 390T337 429Q350 429 362 426T383 418T392 414T393 424H415L421 339H401Q396 356 391 366T372 386T338 395Z" />
<glyph unicode="&#xaa;" glyph-name="ordfeminine" horiz-adv-x="402" d="M56 155H353V129H56V155ZM119 417Q133 417 133 394Q133 375 101 375Q89 375 80 382T71 402Q71 430 101 446T180 463Q237 463 269 437T301 371V262Q301 228 322 228T343 241H353Q353 211
287 211Q257 211 240 231Q202 210 157 210Q56 210 56 277Q56 291 66 302T98 320T137 332T185 342T226 351Q226 402 217 422T174 443Q126 443 119 417ZM232 244Q226 258 226 277V339Q164 322 148 308Q133 295 133 276Q133 251 145 240T172 229Q200 229 232 244Z"
/>
<glyph unicode="&#xab;" glyph-name="guillemotleft" horiz-adv-x="439" d="M210 331L384 441V399L284 299L384 199V157L210 267Q193 278 193 299Q193 321 210 331ZM50 331L224 441V399L124 299L224 199V157L50 267Q33 278 33 299Q33 321 50 331Z" />
<glyph unicode="&#xac;" glyph-name="logicalnot" horiz-adv-x="416" d="M311 296H61V340H353V208H311V296Z" />
<glyph unicode="&#xad;" glyph-name="uni00AD" horiz-adv-x="372" d="M54 340H318V296H54V340Z" />
<glyph unicode="&#xae;" glyph-name="registered" horiz-adv-x="636" d="M69 371T69 268T142 92T318 19T494 92T567 268T494 444T318 517T142 444ZM42 154T42 268T123 463T318 544T513 463T594 268T513 73T318 -8T123 73ZM178 122V142Q204 142 209 149V398Q206
404 178 404V424H304Q369 424 405 400T442 346Q442 286 379 264L443 150Q446 142 468 142V122H442Q405 122 389 127T363 151L304 255H281V149Q284 142 312 142V122H178ZM281 398V282H302Q366 282 366 345Q366 369 347 383T296 398H281Z" />
<glyph unicode="&#xaf;" glyph-name="overscore" horiz-adv-x="384" d="M60 568H324V514H60V568Z" />
<glyph unicode="&#xb0;" glyph-name="degree" horiz-adv-x="296" d="M75 546T75 516T96 465T148 444T199 465T221 516T200 567T148 589T97 568ZM34 470T34 516T68 596T148 630T228 596T262 516T229 437T148 403T68 436Z" />
<glyph unicode="&#xb1;" glyph-name="plusminus" horiz-adv-x="408" d="M61 178H347V134H61V178ZM226 348V247H182V348H61V392H182V493H226V392H347V348H226Z" />
<glyph unicode="&#xb2;" glyph-name="uni00B2" horiz-adv-x="352" d="M259 346Q289 358 297 379H319L291 280H32V285Q32 297 60 326T123 388T186 465T215 548Q215 575 201 592T162 610Q127 610 105 600T75 578T62 556T49 546Q39 546 39 557Q39 583 73 621T170
660Q237 660 268 633T300 557Q300 530 277 495T227 434T170 381T135 346H259Z" />
<glyph unicode="&#xb3;" glyph-name="uni00B3" horiz-adv-x="346" d="M148 460Q141 460 136 464T130 473Q130 482 138 482Q158 488 167 491T189 503T207 523T212 554Q212 580 197 595T154 610Q125 610 107 602T84 584T73 566T61 557Q51 557 51 569Q51 593 80 626T162
660Q289 660 289 563Q289 520 240 491Q270 479 288 455T307 402Q307 344 276 310T164 276Q127 276 95 288T48 313T33 336Q33 359 39 368T61 377Q72 377 79 366T92 342T114 317T160 306Q194 306 213 332T232 388Q232 413 218 438T181 464Q173 464 164 462T148 460Z"
/>
<glyph unicode="&#xb4;" glyph-name="acute" horiz-adv-x="300" d="M83 662H209L75 500H29L83 662Z" />
<glyph unicode="&#xb5;" glyph-name="uni00B5" horiz-adv-x="611" d="M500 440V83Q500 51 510 36T536 20Q549 20 559 27T570 45H588Q588 -10 479 -10Q416 -10 390 41Q345 -10 277 -10Q170 -10 116 37V-33Q116 -62 126 -80T149 -104T171 -123T182 -155Q182 -177
167 -188T132 -200Q111 -200 93 -185T74 -134V440H199V125Q199 24 291 24Q340 24 379 69Q375 85 375 111V440H500Z" />
<glyph unicode="&#xb6;" glyph-name="paragraph" horiz-adv-x="531" d="M126 0V21Q180 21 189 41V268Q113 275 71 318T29 426Q29 453 40 479T76 530T144 570T247 585H487V564Q433 564 424 544V41Q433 21 487 21V0H332V551H281V0H126Z" />
<glyph unicode="&#xb7;" glyph-name="middot" horiz-adv-x="230" d="M46 302Q46 331 66 348T114 366Q138 366 161 350T184 305Q184 276 163 258T115 240Q91 240 69 257T46 302Z" />
<glyph unicode="&#xb8;" glyph-name="cedilla" horiz-adv-x="304" d="M119 12H167L149 -55Q168 -55 190 -60T233 -82T254 -122Q254 -152 225 -175T134 -199Q101 -199 60 -192V-175Q78 -177 85 -177Q152 -177 152 -130Q152 -86 91 -86L119 12Z" />
<glyph unicode="&#xb9;" glyph-name="uni00B9" horiz-adv-x="243" d="M35 508Q120 655 141 655H164V313Q169 303 207 303V280H41V303Q77 303 83 313V530Q76 526 52 499L35 508Z" />
<glyph unicode="&#xba;" glyph-name="ordmasculine" horiz-adv-x="398" d="M54 155H344V129H54V155ZM133 352Q133 226 210 226Q237 226 251 252T266 322Q266 389 249 417T188 446Q162 446 148 419T133 352ZM202 210Q134 210 94 246T54 341Q54 394 90 428T198 463T306
428T344 334Q344 281 308 246T202 210Z" />
<glyph unicode="&#xbb;" glyph-name="guillemotright" horiz-adv-x="439" d="M389 267L215 157V199L315 299L215 399V441L389 331Q406 320 406 299Q406 277 389 267ZM229 267L55 157V199L155 299L55 399V441L229 331Q246 320 246 299Q246 277 229 267Z" />
<glyph unicode="&#xbc;" glyph-name="onequarter" horiz-adv-x="652" d="M30 508Q115 655 136 655H159V313Q164 303 202 303V280H36V303Q72 303 78 313V530Q71 526 47 499L30 508ZM577 375V134H622V105H577V33Q583 23 619 23V0H455V23Q492 23 497 33V105H336L525
375H577ZM497 134V284L392 134H497ZM97 -10L486 612L535 594L146 -28L97 -10Z" />
<glyph unicode="&#xbd;" glyph-name="onehalf" horiz-adv-x="679" d="M33 508Q118 655 139 655H162V313Q167 303 205 303V280H39V303Q75 303 81 313V530Q74 526 50 499L33 508ZM591 66Q621 78 629 99H651L623 0H364V5Q364 17 392 46T455 108T518 185T547 268Q547
295 533 312T494 330Q459 330 437 320T407 298T394 276T381 266Q371 266 371 277Q371 303 405 341T502 380Q569 380 600 353T632 277Q632 250 609 215T559 154T502 101T467 66H591ZM76 -10L465 612L514 594L125 -28L76 -10Z" />
<glyph unicode="&#xbe;" glyph-name="threequarters" horiz-adv-x="690" d="M143 460Q136 460 131 464T125 473Q125 482 133 482Q153 488 162 491T184 503T202 523T207 554Q207 580 192 595T149 610Q120 610 102 602T79 584T68 566T56 557Q46 557 46 569Q46 593
75 626T157 660Q284 660 284 563Q284 520 235 491Q265 479 283 455T302 402Q302 344 271 310T159 276Q122 276 90 288T43 313T28 336Q28 359 34 368T56 377Q67 377 74 366T87 342T109 317T155 306Q189 306 208 332T227 388Q227 413 213 438T176 464Q168 464 159
462T143 460ZM611 375V134H656V105H611V33Q617 23 653 23V0H489V23Q526 23 531 33V105H370L559 375H611ZM531 134V284L426 134H531ZM141 -10L530 612L579 594L190 -28L141 -10Z" />
<glyph unicode="&#xbf;" glyph-name="questiondown" horiz-adv-x="426" d="M303 468Q303 439 283 422T235 404Q211 404 188 420T165 465Q165 494 186 512T234 530Q258 530 280 513T303 468ZM255 320Q255 283 240 251T205 196T171 133T155 40Q155 -13 178 -46T240
-80Q277 -80 295 -58T313 -9Q313 3 306 16T298 41Q298 58 312 71T346 85Q371 85 384 69T398 24Q398 -26 353 -68T230 -110Q132 -110 81 -68T30 45Q30 84 49 119T97 181T152 229T199 275T219 320Q219 325 226 329T237 334T248 330T255 320Z" />
<glyph unicode="&#xc0;" glyph-name="Agrave" horiz-adv-x="566" d="M256 782L310 620H264L130 782H256ZM329 0V21Q375 21 387 33L331 186H139L87 39Q97 21 149 21V0H-15V21Q40 21 48 42L242 585H323L519 42Q526 21 583 21V0H329ZM234 452L151 219H319L234 452Z" />
<glyph unicode="&#xc1;" glyph-name="Aacute" horiz-adv-x="566" d="M294 782H420L286 620H240L294 782ZM329 0V21Q375 21 387 33L331 186H139L87 39Q97 21 149 21V0H-15V21Q40 21 48 42L242 585H323L519 42Q526 21 583 21V0H329ZM234 452L151 219H319L234 452Z" />
<glyph unicode="&#xc2;" glyph-name="Acircumflex" horiz-adv-x="566" d="M309 782L403 620H367L284 687L201 620H165L259 782H309ZM329 0V21Q375 21 387 33L331 186H139L87 39Q97 21 149 21V0H-15V21Q40 21 48 42L242 585H323L519 42Q526 21 583 21V0H329ZM234
452L151 219H319L234 452Z" />
<glyph unicode="&#xc3;" glyph-name="Atilde" horiz-adv-x="566" d="M359 610Q337 610 278 639T204 669Q174 669 164 659T154 620H135Q135 685 156 713T211 742Q233 742 293 713T367 683Q397 683 407 693T417 732H436Q436 667 414 639T359 610ZM329 0V21Q375 21
387 33L331 186H139L87 39Q97 21 149 21V0H-15V21Q40 21 48 42L242 585H323L519 42Q526 21 583 21V0H329ZM234 452L151 219H319L234 452Z" />
<glyph unicode="&#xc4;" glyph-name="Adieresis" horiz-adv-x="566" d="M321 655T321 679T338 720T379 738T420 721T438 679T421 638T379 620T338 637ZM130 655T130 679T147 720T189 738T230 721T247 679T230 638T189 620T148 637ZM329 0V21Q375 21 387 33L331
186H139L87 39Q97 21 149 21V0H-15V21Q40 21 48 42L242 585H323L519 42Q526 21 583 21V0H329ZM234 452L151 219H319L234 452Z" />
<glyph unicode="&#xc5;" glyph-name="Aring" horiz-adv-x="566" d="M242 706T242 689T254 660T284 647T313 659T326 689T314 718T284 731T255 719ZM210 658T210 689T231 741T284 763T337 742T358 689T337 637T284 615T231 636ZM329 0V21Q375 21 387 33L331 186H139L87
39Q97 21 149 21V0H-15V21Q40 21 48 42L242 585H323L519 42Q526 21 583 21V0H329ZM234 452L151 219H319L234 452Z" />
<glyph unicode="&#xc6;" glyph-name="AE" horiz-adv-x="742" d="M-29 0V21Q25 21 34 42V41L321 553Q309 564 264 564V585H688V488H667Q667 542 647 551H475V321H580Q600 330 600 384H621V224H600Q600 278 580 287H475V34H668Q693 45 713 97H733L709 0H285V21Q339
21 348 41V186H155L73 39Q83 21 135 21V0H59Q64 17 69 32L51 0H-29ZM174 219H348V530L174 219Z" />
<glyph unicode="&#xc7;" glyph-name="Ccedilla" horiz-adv-x="562" d="M350 561V560Q266 560 221 491T175 305Q175 169 224 96T354 23Q403 23 443 56T499 131L540 119Q519 70 476 34T363 -9L351 -55Q370 -55 392 -60T435 -82T456 -122Q456 -152 427 -175T336 -199Q303
-199 262 -192V-175Q280 -177 287 -177Q354 -177 354 -130Q354 -86 293 -86L315 -9Q188 -2 112 83T36 284Q36 423 130 509T349 595Q378 595 421 580T470 565Q482 565 482 585H505L513 444H491Q485 485 439 523T350 561Z" />
<glyph unicode="&#xc8;" glyph-name="Egrave" horiz-adv-x="503" d="M249 782L303 620H257L123 782H249ZM36 0V21Q90 21 99 41V544Q90 564 36 564V585H449V488H428Q428 542 408 551H226V321H341Q361 330 361 384H382V224H361Q361 278 341 287H226V34H429Q454 45
474 97H494L470 0H36Z" />
<glyph unicode="&#xc9;" glyph-name="Eacute" horiz-adv-x="503" d="M287 782H413L279 620H233L287 782ZM36 0V21Q90 21 99 41V544Q90 564 36 564V585H449V488H428Q428 542 408 551H226V321H341Q361 330 361 384H382V224H361Q361 278 341 287H226V34H429Q454 45
474 97H494L470 0H36Z" />
<glyph unicode="&#xca;" glyph-name="Ecircumflex" horiz-adv-x="503" d="M302 782L396 620H360L277 687L194 620H158L252 782H302ZM36 0V21Q90 21 99 41V544Q90 564 36 564V585H449V488H428Q428 542 408 551H226V321H341Q361 330 361 384H382V224H361Q361 278
341 287H226V34H429Q454 45 474 97H494L470 0H36Z" />
<glyph unicode="&#xcb;" glyph-name="Edieresis" horiz-adv-x="503" d="M314 655T314 679T331 720T372 738T413 721T431 679T414 638T372 620T331 637ZM123 655T123 679T140 720T182 738T223 721T240 679T223 638T182 620T141 637ZM36 0V21Q90 21 99 41V544Q90
564 36 564V585H449V488H428Q428 542 408 551H226V321H341Q361 330 361 384H382V224H361Q361 278 341 287H226V34H429Q454 45 474 97H494L470 0H36Z" />
<glyph unicode="&#xcc;" glyph-name="Igrave" horiz-adv-x="325" d="M139 782L193 620H147L13 782H139ZM36 0V21Q90 21 99 41V544Q90 564 36 564V585H289V564Q235 564 226 544V41Q235 21 289 21V0H36Z" />
<glyph unicode="&#xcd;" glyph-name="Iacute" horiz-adv-x="325" d="M177 782H303L169 620H123L177 782ZM36 0V21Q90 21 99 41V544Q90 564 36 564V585H289V564Q235 564 226 544V41Q235 21 289 21V0H36Z" />
<glyph unicode="&#xce;" glyph-name="Icircumflex" horiz-adv-x="325" d="M192 782L286 620H250L167 687L84 620H48L142 782H192ZM36 0V21Q90 21 99 41V544Q90 564 36 564V585H289V564Q235 564 226 544V41Q235 21 289 21V0H36Z" />
<glyph unicode="&#xcf;" glyph-name="Idieresis" horiz-adv-x="325" d="M204 655T204 679T221 720T262 738T303 721T321 679T304 638T262 620T221 637ZM13 655T13 679T30 720T72 738T113 721T130 679T113 638T72 620T31 637ZM36 0V21Q90 21 99 41V544Q90 564 36
564V585H289V564Q235 564 226 544V41Q235 21 289 21V0H36Z" />
<glyph unicode="&#xd0;" glyph-name="Eth" horiz-adv-x="596" d="M33 -1V20Q87 20 96 40V154Q96 285 165 362T392 454Q344 555 245 555H188V470H148V555H65Q53 550 42 528T30 477H9V585H148V655H188V585H263Q396 585 477 504T558 293T479 81T275 -1H33ZM405 424Q350
416 313 395T257 342T231 274T223 192V33H257Q325 33 374 97T423 292Q423 370 405 424Z" />
<glyph unicode="&#xd1;" glyph-name="Ntilde" horiz-adv-x="623" d="M387 610Q365 610 306 639T232 669Q202 669 192 659T182 620H163Q163 685 184 713T239 742Q261 742 321 713T395 683Q425 683 435 693T445 732H464Q464 667 442 639T387 610ZM36 0V21Q90 21
99 41V544Q90 564 36 564V585H205L501 180V544Q492 564 438 564V585H598V564Q544 564 535 544V0H491L133 495V41Q142 21 196 21V0H36Z" />
<glyph unicode="&#xd2;" glyph-name="Ograve" horiz-adv-x="664" d="M308 782L362 620H316L182 782H308ZM170 300Q170 232 184 173T238 69T336 24Q381 24 413 47T462 111T486 193T494 284Q494 351 479 411T425 516T328 561Q283 561 251 537T202 473T178 391T170
300ZM35 169T35 292T122 505T332 595T542 505T629 292T542 80T332 -10Q208 -10 122 79Z" />
<glyph unicode="&#xd3;" glyph-name="Oacute" horiz-adv-x="664" d="M346 782H472L338 620H292L346 782ZM170 300Q170 232 184 173T238 69T336 24Q381 24 413 47T462 111T486 193T494 284Q494 351 479 411T425 516T328 561Q283 561 251 537T202 473T178 391T170
300ZM35 169T35 292T122 505T332 595T542 505T629 292T542 80T332 -10Q208 -10 122 79Z" />
<glyph unicode="&#xd4;" glyph-name="Ocircumflex" horiz-adv-x="664" d="M361 782L455 620H419L336 687L253 620H217L311 782H361ZM170 300Q170 232 184 173T238 69T336 24Q381 24 413 47T462 111T486 193T494 284Q494 351 479 411T425 516T328 561Q283 561 251
537T202 473T178 391T170 300ZM35 169T35 292T122 505T332 595T542 505T629 292T542 80T332 -10Q208 -10 122 79Z" />
<glyph unicode="&#xd5;" glyph-name="Otilde" horiz-adv-x="664" d="M411 610Q389 610 330 639T256 669Q226 669 216 659T206 620H187Q187 685 208 713T263 742Q285 742 345 713T419 683Q449 683 459 693T469 732H488Q488 667 466 639T411 610ZM170 300Q170 232
184 173T238 69T336 24Q381 24 413 47T462 111T486 193T494 284Q494 351 479 411T425 516T328 561Q283 561 251 537T202 473T178 391T170 300ZM35 169T35 292T122 505T332 595T542 505T629 292T542 80T332 -10Q208 -10 122 79Z" />
<glyph unicode="&#xd6;" glyph-name="Odieresis" horiz-adv-x="664" d="M373 655T373 679T390 720T431 738T472 721T490 679T473 638T431 620T390 637ZM182 655T182 679T199 720T241 738T282 721T299 679T282 638T241 620T200 637ZM170 300Q170 232 184 173T238
69T336 24Q381 24 413 47T462 111T486 193T494 284Q494 351 479 411T425 516T328 561Q283 561 251 537T202 473T178 391T170 300ZM35 169T35 292T122 505T332 595T542 505T629 292T542 80T332 -10Q208 -10 122 79Z" />
<glyph unicode="&#xd7;" glyph-name="multiply" horiz-adv-x="412" d="M237 318L365 190L334 159L206 287L78 159L47 190L175 318L47 446L78 477L206 349L334 477L365 446L237 318Z" />
<glyph unicode="&#xd8;" glyph-name="Oslash" horiz-adv-x="664" d="M161 -28L132 -10L165 42Q105 84 70 150T35 292Q35 415 122 505T332 595Q413 595 483 552L521 612L550 594L512 532Q567 490 598 427T629 292Q629 169 542 80T332 -10Q259 -10 194 25L161 -28ZM463
455L228 79Q270 24 336 24Q381 24 413 47T462 111T486 193T494 284Q494 382 463 455ZM445 491Q402 561 328 561Q283 561 251 537T202 473T178 391T170 300Q170 188 208 112L445 491Z" />
<glyph unicode="&#xd9;" glyph-name="Ugrave" horiz-adv-x="604" d="M323 782L377 620H331L197 782H323ZM346 24Q411 24 450 79T489 228V544Q480 564 426 564V585H586V564Q532 564 523 544V248Q523 118 466 54T321 -10Q81 -10 81 248V544Q72 564 18 564V585H271V564Q217
564 208 544V234Q208 132 243 78T346 24Z" />
<glyph unicode="&#xda;" glyph-name="Uacute" horiz-adv-x="604" d="M361 782H487L353 620H307L361 782ZM346 24Q411 24 450 79T489 228V544Q480 564 426 564V585H586V564Q532 564 523 544V248Q523 118 466 54T321 -10Q81 -10 81 248V544Q72 564 18 564V585H271V564Q217
564 208 544V234Q208 132 243 78T346 24Z" />
<glyph unicode="&#xdb;" glyph-name="Ucircumflex" horiz-adv-x="604" d="M376 782L470 620H434L351 687L268 620H232L326 782H376ZM346 24Q411 24 450 79T489 228V544Q480 564 426 564V585H586V564Q532 564 523 544V248Q523 118 466 54T321 -10Q81 -10 81 248V544Q72
564 18 564V585H271V564Q217 564 208 544V234Q208 132 243 78T346 24Z" />
<glyph unicode="&#xdc;" glyph-name="Udieresis" horiz-adv-x="604" d="M388 655T388 679T405 720T446 738T487 721T505 679T488 638T446 620T405 637ZM197 655T197 679T214 720T256 738T297 721T314 679T297 638T256 620T215 637ZM346 24Q411 24 450 79T489 228V544Q480
564 426 564V585H586V564Q532 564 523 544V248Q523 118 466 54T321 -10Q81 -10 81 248V544Q72 564 18 564V585H271V564Q217 564 208 544V234Q208 132 243 78T346 24Z" />
<glyph unicode="&#xdd;" glyph-name="Yacute" horiz-adv-x="584" d="M352 782H478L344 620H298L352 782ZM238 585V564Q191 564 180 552L335 281L495 546Q484 564 433 564V585H597V564Q548 564 540 551L360 252V41Q369 21 423 21V0H170V21Q224 21 233 41V220L48
544Q36 564 -16 564V585H238Z" />
<glyph unicode="&#xde;" glyph-name="Thorn" horiz-adv-x="528" d="M36 0V21Q90 21 99 41V544Q90 564 36 564V585H289V564Q235 564 226 544V475H243Q369 475 442 425T515 308Q515 233 445 180T255 126H226V41Q235 21 289 21V0H36ZM226 441V160Q308 160 344 195T380
307Q380 369 346 405T226 441Z" />
<glyph unicode="&#xdf;" glyph-name="germandbls" horiz-adv-x="539" d="M260 368Q286 378 305 418T325 499Q325 600 267 600Q241 600 222 571T202 488V0H14V21Q68 21 77 41V474Q77 515 94 547T140 596T196 621T253 630Q348 630 394 596T440 500Q440 458 407 418T325
358Q401 344 459 294T518 190Q518 100 471 45T346 -10Q286 -10 256 19T226 72Q226 102 233 114T262 126Q279 126 287 110T298 73T310 37T340 20Q400 20 400 170Q400 235 362 289T262 344H260Q244 344 244 354Q244 363 260 368Z" />
<glyph unicode="&#xe0;" glyph-name="agrave" horiz-adv-x="503" d="M204 677L258 515H212L78 677H204ZM130 366Q153 366 153 325Q153 308 136 299T100 290Q80 290 65 304T49 340Q49 391 99 420T231 450Q326 450 379 403T432 282V84Q432 52 442 37T468 22Q481
22 491 29T502 46H520Q520 -8 410 -8Q359 -8 331 28Q271 -10 192 -10Q25 -10 25 112Q25 137 42 157T96 191T160 213T239 231T307 247Q307 341 292 377T221 414Q188 414 162 401T130 366ZM317 52Q307 79 307 112V225Q222 199 195 182Q153 154 153 110Q153 64 172
44T217 24Q261 24 317 52Z" />
<glyph unicode="&#xe1;" glyph-name="aacute" horiz-adv-x="503" d="M242 677H368L234 515H188L242 677ZM130 366Q153 366 153 325Q153 308 136 299T100 290Q80 290 65 304T49 340Q49 391 99 420T231 450Q326 450 379 403T432 282V84Q432 52 442 37T468 22Q481
22 491 29T502 46H520Q520 -8 410 -8Q359 -8 331 28Q271 -10 192 -10Q25 -10 25 112Q25 137 42 157T96 191T160 213T239 231T307 247Q307 341 292 377T221 414Q188 414 162 401T130 366ZM317 52Q307 79 307 112V225Q222 199 195 182Q153 154 153 110Q153 64 172
44T217 24Q261 24 317 52Z" />
<glyph unicode="&#xe2;" glyph-name="acircumflex" horiz-adv-x="503" d="M257 677L351 515H315L232 582L149 515H113L207 677H257ZM130 366Q153 366 153 325Q153 308 136 299T100 290Q80 290 65 304T49 340Q49 391 99 420T231 450Q326 450 379 403T432 282V84Q432
52 442 37T468 22Q481 22 491 29T502 46H520Q520 -8 410 -8Q359 -8 331 28Q271 -10 192 -10Q25 -10 25 112Q25 137 42 157T96 191T160 213T239 231T307 247Q307 341 292 377T221 414Q188 414 162 401T130 366ZM317 52Q307 79 307 112V225Q222 199 195 182Q153 154
153 110Q153 64 172 44T217 24Q261 24 317 52Z" />
<glyph unicode="&#xe3;" glyph-name="atilde" horiz-adv-x="503" d="M307 505Q285 505 226 534T152 564Q122 564 112 554T102 515H83Q83 580 104 608T159 637Q181 637 241 608T315 578Q345 578 355 588T365 627H384Q384 562 362 534T307 505ZM130 366Q153 366
153 325Q153 308 136 299T100 290Q80 290 65 304T49 340Q49 391 99 420T231 450Q326 450 379 403T432 282V84Q432 52 442 37T468 22Q481 22 491 29T502 46H520Q520 -8 410 -8Q359 -8 331 28Q271 -10 192 -10Q25 -10 25 112Q25 137 42 157T96 191T160 213T239 231T307
247Q307 341 292 377T221 414Q188 414 162 401T130 366ZM317 52Q307 79 307 112V225Q222 199 195 182Q153 154 153 110Q153 64 172 44T217 24Q261 24 317 52Z" />
<glyph unicode="&#xe4;" glyph-name="adieresis" horiz-adv-x="503" d="M269 550T269 574T286 615T327 633T368 616T386 574T369 533T327 515T286 532ZM78 550T78 574T95 615T137 633T178 616T195 574T178 533T137 515T96 532ZM130 366Q153 366 153 325Q153 308
136 299T100 290Q80 290 65 304T49 340Q49 391 99 420T231 450Q326 450 379 403T432 282V84Q432 52 442 37T468 22Q481 22 491 29T502 46H520Q520 -8 410 -8Q359 -8 331 28Q271 -10 192 -10Q25 -10 25 112Q25 137 42 157T96 191T160 213T239 231T307 247Q307 341
292 377T221 414Q188 414 162 401T130 366ZM317 52Q307 79 307 112V225Q222 199 195 182Q153 154 153 110Q153 64 172 44T217 24Q261 24 317 52Z" />
<glyph unicode="&#xe5;" glyph-name="aring" horiz-adv-x="503" d="M190 601T190 584T202 555T232 542T261 554T274 584T262 613T232 626T203 614ZM158 553T158 584T179 636T232 658T285 637T306 584T285 532T232 510T179 531ZM130 366Q153 366 153 325Q153 308
136 299T100 290Q80 290 65 304T49 340Q49 391 99 420T231 450Q326 450 379 403T432 282V84Q432 52 442 37T468 22Q481 22 491 29T502 46H520Q520 -8 410 -8Q359 -8 331 28Q271 -10 192 -10Q25 -10 25 112Q25 137 42 157T96 191T160 213T239 231T307 247Q307 341
292 377T221 414Q188 414 162 401T130 366ZM317 52Q307 79 307 112V225Q222 199 195 182Q153 154 153 110Q153 64 172 44T217 24Q261 24 317 52Z" />
<glyph unicode="&#xe6;" glyph-name="ae" horiz-adv-x="776" d="M437 272H619Q613 343 595 381T535 420Q499 420 471 384T437 272ZM436 241Q438 154 475 91T571 28Q658 28 711 94L735 82Q706 34 660 12T537 -10Q431 -10 367 59Q346 33 302 12T192 -10Q25 -10 25
112Q25 133 39 151T73 180T126 202T185 219T249 233T306 247Q306 342 291 378T221 414Q188 414 162 401T130 366Q153 366 153 325Q153 308 136 299T100 290Q80 290 65 304T49 340Q49 391 99 420T231 450Q325 450 381 401Q441 450 527 450Q634 450 693 390T752 241H436ZM352
77Q310 133 306 224Q222 199 197 183Q153 155 153 110Q153 64 172 44T217 24Q247 24 291 40T352 77Z" />
<glyph unicode="&#xe7;" glyph-name="ccedilla" horiz-adv-x="482" d="M275 420Q228 420 195 373T162 246Q162 157 198 93T292 28Q376 28 419 100L456 82Q405 -2 287 -9L275 -55Q294 -55 316 -60T359 -82T380 -122Q380 -152 351 -175T260 -199Q227 -199 186 -192V-175Q204
-177 211 -177Q278 -177 278 -130Q278 -86 217 -86L239 -9Q202 -6 168 7T102 48T51 125T32 242Q32 328 98 389T265 450Q346 450 395 423T445 344Q445 319 433 303T395 287Q371 287 357 298T342 329Q342 350 352 360T377 370Q364 420 275 420Z" />
<glyph unicode="&#xe8;" glyph-name="egrave" horiz-adv-x="501" d="M223 677L277 515H231L97 677H223ZM161 241Q163 154 200 91T296 28Q383 28 436 94L460 82Q431 34 385 12T262 -10Q223 -10 186 1T113 39T54 118T31 242Q31 329 92 389T252 450Q359 450 418 390T477
241H161ZM162 272H344Q338 343 320 381T260 420Q224 420 196 384T162 272Z" />
<glyph unicode="&#xe9;" glyph-name="eacute" horiz-adv-x="501" d="M261 677H387L253 515H207L261 677ZM161 241Q163 154 200 91T296 28Q383 28 436 94L460 82Q431 34 385 12T262 -10Q223 -10 186 1T113 39T54 118T31 242Q31 329 92 389T252 450Q359 450 418
390T477 241H161ZM162 272H344Q338 343 320 381T260 420Q224 420 196 384T162 272Z" />
<glyph unicode="&#xea;" glyph-name="ecircumflex" horiz-adv-x="501" d="M276 677L370 515H334L251 582L168 515H132L226 677H276ZM161 241Q163 154 200 91T296 28Q383 28 436 94L460 82Q431 34 385 12T262 -10Q223 -10 186 1T113 39T54 118T31 242Q31 329 92
389T252 450Q359 450 418 390T477 241H161ZM162 272H344Q338 343 320 381T260 420Q224 420 196 384T162 272Z" />
<glyph unicode="&#xeb;" glyph-name="edieresis" horiz-adv-x="501" d="M288 550T288 574T305 615T346 633T387 616T405 574T388 533T346 515T305 532ZM97 550T97 574T114 615T156 633T197 616T214 574T197 533T156 515T115 532ZM161 241Q163 154 200 91T296 28Q383
28 436 94L460 82Q431 34 385 12T262 -10Q223 -10 186 1T113 39T54 118T31 242Q31 329 92 389T252 450Q359 450 418 390T477 241H161ZM162 272H344Q338 343 320 381T260 420Q224 420 196 384T162 272Z" />
<glyph unicode="&#xec;" glyph-name="igrave" horiz-adv-x="289" d="M123 677L177 515H131L-3 677H123ZM24 0V21Q78 21 87 41V380Q35 384 24 384V407Q43 407 116 428T212 450V41Q221 21 275 21V0H24Z" />
<glyph unicode="&#xed;" glyph-name="iacute" horiz-adv-x="289" d="M161 677H287L153 515H107L161 677ZM24 0V21Q78 21 87 41V380Q35 384 24 384V407Q43 407 116 428T212 450V41Q221 21 275 21V0H24Z" />
<glyph unicode="&#xee;" glyph-name="icircumflex" horiz-adv-x="289" d="M176 677L270 515H234L151 582L68 515H32L126 677H176ZM24 0V21Q78 21 87 41V380Q35 384 24 384V407Q43 407 116 428T212 450V41Q221 21 275 21V0H24Z" />
<glyph unicode="&#xef;" glyph-name="idieresis" horiz-adv-x="289" d="M188 550T188 574T205 615T246 633T287 616T305 574T288 533T246 515T205 532ZM-3 550T-3 574T14 615T56 633T97 616T114 574T97 533T56 515T15 532ZM24 0V21Q78 21 87 41V380Q35 384 24
384V407Q43 407 116 428T212 450V41Q221 21 275 21V0H24Z" />
<glyph unicode="&#xf0;" glyph-name="eth" horiz-adv-x="541" d="M274 -10Q161 -10 96 55T31 228Q31 324 90 387T267 450Q293 450 317 447Q289 494 257 529L178 484L161 513L232 554Q214 571 195 585T166 606L157 612L168 630Q216 614 275 579L360 628L377 599L307
558Q508 421 508 216Q508 120 450 55T274 -10ZM162 248Q162 134 197 77T287 20Q328 20 352 68T377 193Q377 311 346 365T250 419Q214 419 188 367T162 248Z" />
<glyph unicode="&#xf1;" glyph-name="ntilde" horiz-adv-x="597" d="M387 506Q365 506 306 535T232 565Q202 565 192 555T182 516H163Q163 581 184 609T239 638Q261 638 321 609T395 579Q425 579 435 589T445 628H464Q464 563 442 535T387 506ZM24 0V21Q78 21
87 41V380Q33 384 24 384V407Q43 407 116 428T212 450V408Q262 450 322 450Q418 450 471 415T524 308V41Q533 21 587 21V0H336V21Q390 21 399 41V315Q399 360 379 388T316 416Q254 416 212 376V41Q221 21 275 21V0H24Z" />
<glyph unicode="&#xf2;" glyph-name="ograve" horiz-adv-x="545" d="M246 677L300 515H254L120 677H246ZM162 248Q162 130 193 75T290 20Q335 20 359 67T383 193Q383 315 355 367T253 419Q210 419 186 369T162 248ZM277 -10Q164 -10 98 56T31 228Q31 323 91 386T270
450Q389 450 451 387T514 216Q514 120 454 55T277 -10Z" />
<glyph unicode="&#xf3;" glyph-name="oacute" horiz-adv-x="545" d="M284 677H410L276 515H230L284 677ZM162 248Q162 130 193 75T290 20Q335 20 359 67T383 193Q383 315 355 367T253 419Q210 419 186 369T162 248ZM277 -10Q164 -10 98 56T31 228Q31 323 91 386T270
450Q389 450 451 387T514 216Q514 120 454 55T277 -10Z" />
<glyph unicode="&#xf4;" glyph-name="ocircumflex" horiz-adv-x="545" d="M299 677L393 515H357L274 582L191 515H155L249 677H299ZM162 248Q162 130 193 75T290 20Q335 20 359 67T383 193Q383 315 355 367T253 419Q210 419 186 369T162 248ZM277 -10Q164 -10
98 56T31 228Q31 323 91 386T270 450Q389 450 451 387T514 216Q514 120 454 55T277 -10Z" />
<glyph unicode="&#xf5;" glyph-name="otilde" horiz-adv-x="545" d="M349 505Q327 505 268 534T194 564Q164 564 154 554T144 515H125Q125 580 146 608T201 637Q223 637 283 608T357 578Q387 578 397 588T407 627H426Q426 562 404 534T349 505ZM162 248Q162 130
193 75T290 20Q335 20 359 67T383 193Q383 315 355 367T253 419Q210 419 186 369T162 248ZM277 -10Q164 -10 98 56T31 228Q31 323 91 386T270 450Q389 450 451 387T514 216Q514 120 454 55T277 -10Z" />
<glyph unicode="&#xf6;" glyph-name="odieresis" horiz-adv-x="545" d="M311 550T311 574T328 615T369 633T410 616T428 574T411 533T369 515T328 532ZM120 550T120 574T137 615T179 633T220 616T237 574T220 533T179 515T138 532ZM162 248Q162 130 193 75T290
20Q335 20 359 67T383 193Q383 315 355 367T253 419Q210 419 186 369T162 248ZM277 -10Q164 -10 98 56T31 228Q31 323 91 386T270 450Q389 450 451 387T514 216Q514 120 454 55T277 -10Z" />
<glyph unicode="&#xf7;" glyph-name="divide" horiz-adv-x="474" d="M180 434T180 457T195 498T236 517Q258 517 276 500T294 460T278 418T237 399Q216 399 198 416ZM180 154T180 177T195 218T236 237Q258 237 276 220T294 180T278 138T237 119Q216 119 198 136ZM40
340H434V296H40V340Z" />
<glyph unicode="&#xf8;" glyph-name="oslash" horiz-adv-x="545" d="M120 -35L93 -15L126 32Q31 97 31 228Q31 323 91 386T270 450Q344 450 400 423L436 475L463 455L429 406Q514 345 514 216Q514 120 454 55T277 -10Q208 -10 155 15L120 -35ZM371 324L195 72Q225
20 290 20Q335 20 359 67T383 193Q383 273 371 324ZM357 362Q328 419 253 419Q210 419 186 369T162 248Q162 162 179 108L357 362Z" />
<glyph unicode="&#xf9;" glyph-name="ugrave" horiz-adv-x="570" d="M253 677L307 515H261L127 677H253ZM493 60Q547 56 556 56V33Q537 33 464 12T368 -10V19Q317 -10 266 -10Q73 -10 73 132V399Q64 419 10 419V440H198V125Q198 104 198 93T203 66T214 43T236
30T272 24Q321 24 368 51V399Q359 419 305 419V440H493V60Z" />
<glyph unicode="&#xfa;" glyph-name="uacute" horiz-adv-x="570" d="M291 677H417L283 515H237L291 677ZM493 60Q547 56 556 56V33Q537 33 464 12T368 -10V19Q317 -10 266 -10Q73 -10 73 132V399Q64 419 10 419V440H198V125Q198 104 198 93T203 66T214 43T236
30T272 24Q321 24 368 51V399Q359 419 305 419V440H493V60Z" />
<glyph unicode="&#xfb;" glyph-name="ucircumflex" horiz-adv-x="570" d="M493 60Q547 56 556 56V33Q537 33 464 12T368 -10V19Q317 -10 266 -10Q73 -10 73 132V399Q64 419 10 419V440H198V125Q198 104 198 93T203 66T214 43T236 30T272 24Q321 24 368 51V399Q359
419 305 419V440H493V60ZM306 677L400 515H364L281 582L198 515H162L256 677H306Z" />
<glyph unicode="&#xfc;" glyph-name="udieresis" horiz-adv-x="570" d="M493 60Q547 56 556 56V33Q537 33 464 12T368 -10V19Q317 -10 266 -10Q73 -10 73 132V399Q64 419 10 419V440H198V125Q198 104 198 93T203 66T214 43T236 30T272 24Q321 24 368 51V399Q359
419 305 419V440H493V60ZM318 550T318 574T335 615T376 633T417 616T435 574T418 533T376 515T335 532ZM127 550T127 574T144 615T186 633T227 616T244 574T227 533T186 515T145 532Z" />
<glyph unicode="&#xfd;" glyph-name="yacute" horiz-adv-x="504" d="M298 677H424L290 515H244L298 677ZM217 440V419Q188 419 175 415L294 122L408 408Q394 419 352 419V440H516V419Q462 419 455 403L253 -102Q220 -184 148 -184Q75 -184 75 -136Q75 -118 86
-107T119 -96Q135 -96 147 -111T174 -126Q195 -126 202 -108L228 -44L51 399Q42 419 -12 419V440H217Z" />
<glyph unicode="&#xfe;" glyph-name="thorn" horiz-adv-x="518" d="M-6 -192V-171Q48 -171 57 -151V560Q3 564 -6 564V587Q13 587 86 608T182 630V420Q228 450 285 450Q375 450 432 394T489 267Q489 135 407 66T182 -11V-151Q191 -171 245 -171V-192H-6ZM182 387V19Q359
37 359 242Q359 416 275 416Q221 416 182 387Z" />
<glyph unicode="&#xff;" glyph-name="ydieresis" horiz-adv-x="504" d="M325 550T325 574T342 615T383 633T424 616T442 574T425 533T383 515T342 532ZM134 550T134 574T151 615T193 633T234 616T251 574T234 533T193 515T152 532ZM217 440V419Q188 419 175 415L294
122L408 408Q394 419 352 419V440H516V419Q462 419 455 403L253 -102Q220 -184 148 -184Q75 -184 75 -136Q75 -118 86 -107T119 -96Q135 -96 147 -111T174 -126Q195 -126 202 -108L228 -44L51 399Q42 419 -12 419V440H217Z" />
<glyph unicode="&#x2013;" glyph-name="endash" horiz-adv-x="502" d="M54 340H448V296H54V340Z" />
<glyph unicode="&#x2014;" glyph-name="emdash" horiz-adv-x="672" d="M54 340H618V296H54V340Z" />
<glyph unicode="&#x2018;" glyph-name="quoteleft" horiz-adv-x="218" d="M90 554Q90 534 95 534Q95 534 100 537Q104 540 111 543T126 547Q151 547 166 534T182 498Q182 477 170 465T148 452T131 450Q90 450 62 475T34 542Q34 631 168 672V633Q141 630 116 607T90 554Z" />
<glyph unicode="&#x2019;" glyph-name="quoteright" horiz-adv-x="201" d="M122 568Q122 588 117 588Q117 588 112 585Q108 582 101 579T86 575Q61 575 46 588T30 624Q30 645 42 657T64 670T81 672Q122 672 150 647T178 580Q178 491 44 450V489Q71 492 96 515T122 568Z" />
<glyph unicode="&#x201a;" glyph-name="quotesinglbase" horiz-adv-x="225" d="M100 -11Q75 -11 60 2T44 38Q44 59 56 71T78 84T95 86Q136 86 164 61T192 -6Q192 -95 58 -136V-97Q85 -94 110 -71T136 -18Q136 2 131 2L126 -1Q122 -4 115 -7T100 -11Z" />
<glyph unicode="&#x201c;" glyph-name="quotedblleft" horiz-adv-x="398" d="M270 554Q270 534 275 534Q275 534 280 537Q284 540 291 543T306 547Q331 547 346 534T362 498Q362 477 350 465T328 452T311 450Q270 450 242 475T214 542Q214 631 348 672V633Q321
630 296 607T270 554ZM90 554Q90 534 95 534L100 537Q104 540 111 543T126 547Q151 547 166 534T182 498Q182 477 170 465T148 452T131 450Q90 450 62 475T34 542Q34 631 168 672V633Q141 630 116 607T90 554Z" />
<glyph unicode="&#x201d;" glyph-name="quotedblright" horiz-adv-x="383" d="M268 573Q243 573 228 586T212 622Q212 643 224 655T246 668T263 670Q304 670 332 645T360 578Q360 489 226 448V487Q253 490 278 513T304 566Q304 586 299 586L294 583Q290 580 283
577T268 573ZM88 573Q63 573 48 586T32 622Q32 643 44 655T66 668T83 670Q124 670 152 645T180 578Q180 489 46 448V487Q73 490 98 513T124 566Q124 586 119 586L114 583Q110 580 103 577T88 573Z" />
<glyph unicode="&#x201e;" glyph-name="quotedblbase" horiz-adv-x="405" d="M100 -11Q75 -11 60 2T44 38Q44 59 56 71T78 84T95 86Q136 86 164 61T192 -6Q192 -95 58 -136V-97Q85 -94 110 -71T136 -18Q136 2 131 2L126 -1Q122 -4 115 -7T100 -11ZM280 -11Q255
-11 240 2T224 38Q224 59 236 71T258 84T275 86Q316 86 344 61T372 -6Q372 -95 238 -136V-97Q265 -94 290 -71T316 -18Q316 2 311 2L306 -1Q302 -4 295 -7T280 -11Z" />
<glyph unicode="&#x2022;" glyph-name="bullet" horiz-adv-x="318" d="M37 300Q37 345 70 381T157 418Q204 418 242 385T281 306T247 224T159 186Q112 186 75 220T37 300Z" />
<glyph unicode="&#x2039;" glyph-name="guilsinglleft" horiz-adv-x="279" d="M50 331L224 441V399L124 299L224 199V157L50 267Q33 278 33 299Q33 321 50 331Z" />
<glyph unicode="&#x203a;" glyph-name="guilsinglright" horiz-adv-x="279" d="M229 267L55 157V199L155 299L55 399V441L229 331Q246 320 246 299Q246 277 229 267Z" />
</font>
</defs>
</svg>
