<?xml version="1.0" standalone="no"?>
<!DOCTYPE svg PUBLIC "-//W3C//DTD SVG 1.1//EN" "http://www.w3.org/Graphics/SVG/1.1/DTD/svg11.dtd">
<svg xmlns="http://www.w3.org/2000/svg">
<defs >
<font id="Overpass" horiz-adv-x="547" ><font-face
    font-family="Overpass Thin"
    units-per-em="1000"
    panose-1="0 0 2 0 0 0 0 0 0 0"
    ascent="982"
    descent="-284"
    alphabetic="0" />
<glyph unicode=" " glyph-name="space" horiz-adv-x="220" />
<glyph unicode="!" glyph-name="exclam" horiz-adv-x="266" d="M128 193L114 460V712H152V460L138 193H128ZM133 -14Q121 -14 113 -6T104 15Q104 28 112 37T133 46Q146 46 154 37T162 15Q162 3 154 -5T133 -14Z" />
<glyph unicode="&quot;" glyph-name="quotedbl" horiz-adv-x="362" d="M78 700H116V433H78V700ZM246 700H284V433H246V700Z" />
<glyph unicode="#" glyph-name="numbersign" horiz-adv-x="681" d="M152 0L187 218H66L72 254H192L225 457H104L110 493H230L263 700H301L268 493H455L488 700H530L497 493H615L610 457H492L459 254H578L572 218H454L420 0H378L412 218H225L191 0H152ZM230 254H417L450
457H263L230 254Z" />
<glyph unicode="$" glyph-name="dollar" horiz-adv-x="588" d="M275 -98V-11Q205 -5 153 35T76 135L114 148Q139 91 187 57T297 23Q373 23 417 62T462 174Q462 294 293 359Q250 376 222 390T163 428T115 485T99 559Q99 624 145 666T275 712V789H311V710Q369 705
411 675T470 597L434 585Q396 677 285 677Q216 677 177 645T137 557Q137 525 150 500T192 454T244 423T309 394Q348 378 377 362T436 319T483 256T500 173Q500 90 448 42T311 -11V-98H275Z" />
<glyph unicode="%" glyph-name="percent" horiz-adv-x="885" d="M297 356T220 356T106 408T68 534Q68 565 76 594T101 651T148 695T220 712T291 696T339 652T364 595T372 534Q372 461 335 409ZM225 -12H182L660 712H703L225 -12ZM162 392T220 392T306 434T334
534Q334 589 306 632T220 676T134 633T106 534Q106 476 134 434ZM742 -12T665 -12T551 40T513 166Q513 197 521 226T546 283T593 327T665 344T736 328T784 284T809 227T817 166Q817 93 780 41ZM607 24T665 24T751 66T779 166Q779 221 751 264T665 308T579 265T551
166Q551 108 579 66Z" />
<glyph unicode="&amp;" glyph-name="ampersand" horiz-adv-x="646" d="M246 -12Q161 -12 110 37T58 171Q58 239 103 291T233 391Q180 455 159 495T138 572Q138 636 181 674T289 712Q351 712 392 672T433 570Q433 468 288 383L468 170Q505 238 517 319H555Q547
225 494 140L613 0H561L471 107Q380 -12 246 -12ZM285 676Q236 676 206 648T176 572Q176 539 197 503T266 409Q395 484 395 564Q395 615 364 645T285 676ZM246 24Q368 24 447 136L255 364Q176 319 136 273T96 171Q96 102 138 63T246 24Z" />
<glyph unicode="&apos;" glyph-name="quotesingle" horiz-adv-x="194" d="M78 700H116V433H78V700Z" />
<glyph unicode="(" glyph-name="parenleft" horiz-adv-x="336" d="M226 -130Q104 30 104 284Q104 553 237 712H273Q231 660 187 545T142 284Q142 48 262 -130H226Z" />
<glyph unicode=")" glyph-name="parenright" horiz-adv-x="336" d="M74 -130Q194 48 194 284Q194 430 150 545T63 712H99Q232 553 232 284Q232 30 110 -130H74Z" />
<glyph unicode="*" glyph-name="asterisk" horiz-adv-x="524" d="M313 393L262 483L211 393L151 310L120 334L180 417L253 490L154 511L58 543L71 579L168 547L255 502L242 595V700H282V595L269 502L356 547L453 579L466 543L370 511L271 490L344 417L404 334L373
310L313 393Z" />
<glyph unicode="+" glyph-name="plus" horiz-adv-x="656" d="M346 324V108H308V324H93V360H308V578H346V360H563V324H346Z" />
<glyph unicode="," glyph-name="comma" horiz-adv-x="202" d="M72 -138Q104 -90 104 -14Q90 -14 81 -6T72 15T80 37T101 46Q134 46 134 0Q134 -40 118 -80T81 -141L72 -138Z" />
<glyph unicode="-" glyph-name="hyphen" horiz-adv-x="399" d="M88 280V316H311V280H88Z" />
<glyph unicode="." glyph-name="period" horiz-adv-x="202" d="M101 -14Q89 -14 81 -6T72 15Q72 28 80 37T101 46Q114 46 122 37T130 15Q130 3 122 -5T101 -14Z" />
<glyph unicode="/" glyph-name="slash" horiz-adv-x="482" d="M12 -130L405 712H445L52 -130H12Z" />
<glyph unicode="0" glyph-name="zero" horiz-adv-x="616" d="M308 -12Q247 -12 202 19T133 104T97 219T85 350Q85 412 95 469T128 584T197 677T308 712Q369 712 414 680T483 594T519 480T531 350Q531 302 525 256T504 159T464 73T400 12T308 -12ZM308 24Q361 24
399 55T456 138T483 242T492 350Q492 412 483 466T453 570T396 647T308 676Q255 676 217 645T160 561T133 457T124 350Q124 287 133 232T163 129T220 52T308 24Z" />
<glyph unicode="1" glyph-name="one" horiz-adv-x="330" d="M174 0V582H55V606Q124 606 148 623T185 700H210V0H174Z" />
<glyph unicode="2" glyph-name="two" horiz-adv-x="596" d="M83 0Q83 46 93 84T117 147T160 200T212 243T277 287Q316 312 333 323T382 361T427 407T454 458T466 523Q466 591 422 633T303 676Q237 676 192 641T131 546L97 562Q116 629 170 670T303 712Q397 712
450 660T504 523Q504 484 491 449T461 390T412 338T358 297T296 257Q207 200 167 153T124 36H510V0H83Z" />
<glyph unicode="3" glyph-name="three" horiz-adv-x="586" d="M284 -12Q199 -12 143 30T58 139L93 152Q151 24 284 24Q363 24 414 65T465 182Q465 258 420 302T293 346H255V381H278Q348 381 392 423T437 536Q437 599 395 637T286 676Q175 676 119 567L85 581Q110
635 163 673T286 712Q368 712 421 663T475 536Q475 480 447 434T361 367Q426 354 464 304T503 182Q503 94 442 41T284 -12Z" />
<glyph unicode="4" glyph-name="four" horiz-adv-x="583" d="M385 0V204H43V225L405 700H421V237H527V204H421V0H385ZM385 237V620L94 237H385Z" />
<glyph unicode="5" glyph-name="five" horiz-adv-x="624" d="M299 -12Q229 -12 174 16T86 79L110 109Q186 24 300 24Q398 24 449 83T500 227Q500 311 447 363T312 416Q212 416 142 337L112 345L169 700H492V664H201L158 396Q221 452 313 452Q411 452 474 390T538
227T476 58T299 -12Z" />
<glyph unicode="6" glyph-name="six" horiz-adv-x="582" d="M287 -12Q214 -12 164 25T93 114T73 227Q73 399 156 527T401 712V675Q290 637 217 551T118 335Q143 376 189 400T287 425Q384 425 442 365T500 210Q500 113 441 51T287 -12ZM287 24Q365 24 413 75T462
205Q462 286 415 337T287 389Q211 389 162 338T113 210Q113 130 161 77T287 24Z" />
<glyph unicode="7" glyph-name="seven" horiz-adv-x="495" d="M177 0Q180 189 230 350T408 664H49V700H446V669Q374 587 326 495T255 312T225 151T216 0H177Z" />
<glyph unicode="8" glyph-name="eight" horiz-adv-x="594" d="M389 -12T297 -12T145 46T84 191Q84 262 123 315T229 386Q176 402 146 444T116 538Q116 611 168 661T297 712T426 662T478 538Q478 486 449 445T363 386Q431 367 470 315T510 191Q510 104 450 46ZM232
401T297 401T401 439T440 538Q440 601 400 638T297 676T195 639T154 538Q154 477 193 439ZM222 24T297 24T421 69T470 191Q470 266 422 317T297 369T173 318T124 191Q124 115 173 70Z" />
<glyph unicode="9" glyph-name="nine" horiz-adv-x="582" d="M184 -12V24Q291 60 362 157T449 374Q392 288 273 288Q186 288 129 348T72 497Q72 589 133 650T287 712Q387 712 443 643T500 480Q500 304 413 168T184 -12ZM278 324Q358 324 408 373T459 497Q459 573
409 624T285 676Q208 676 159 626T110 502Q110 425 156 375T278 324Z" />
<glyph unicode=":" glyph-name="colon" horiz-adv-x="202" d="M101 423Q89 423 81 431T72 452Q72 465 80 474T101 483Q114 483 122 474T130 452Q130 440 122 432T101 423ZM101 -14Q89 -14 81 -6T72 15Q72 28 80 37T101 46Q114 46 122 37T130 15Q130 3 122 -5T101 -14Z" />
<glyph unicode=";" glyph-name="semicolon" horiz-adv-x="202" d="M101 423Q89 423 81 431T72 452Q72 465 80 474T101 483Q114 483 122 474T130 452Q130 440 122 432T101 423ZM72 -138Q104 -90 104 -14Q90 -14 81 -6T72 15T80 37T101 46Q134 46 134 0Q134 -40
118 -80T81 -141L72 -138Z" />
<glyph unicode="&lt;" glyph-name="less" horiz-adv-x="656" d="M563 120L93 324V362L563 566V525L140 343L563 161V120Z" />
<glyph unicode="=" glyph-name="equal" horiz-adv-x="656" d="M93 419V455H563V419H93ZM93 229V265H563V229H93Z" />
<glyph unicode="&gt;" glyph-name="greater" horiz-adv-x="656" d="M563 324L93 120V161L516 343L93 525V566L563 362V324Z" />
<glyph unicode="?" glyph-name="question" horiz-adv-x="522" d="M231 156V190Q231 239 250 279T297 346T352 399T399 458T419 532Q419 594 378 635T263 676Q187 676 143 633T98 525H62Q62 605 117 658T263 712T405 661T457 532Q457 487 438 451T391 388T336 335T289
272T269 190V156H231ZM250 -14Q238 -14 230 -6T221 15Q221 28 229 37T250 46Q263 46 271 37T279 15Q279 3 271 -5T250 -14Z" />
<glyph unicode="@" glyph-name="at" horiz-adv-x="795" d="M397 -12Q253 -12 158 81T62 334Q62 497 166 604T416 712Q557 712 645 631T733 419Q733 307 689 234T581 160Q548 160 527 179T501 234Q457 151 369 151Q304 151 265 195T226 320Q226 401 275 465T402
529Q452 529 483 501T525 430L540 516H575L540 311Q534 280 534 251Q534 191 581 191Q629 191 662 255T695 419Q695 533 617 604T416 676Q284 676 192 578T100 333Q100 199 181 112T401 24Q472 24 525 37L517 1Q466 -12 397 -12ZM373 186Q434 186 472 237T511 361Q511
420 480 457T406 494Q340 494 302 444T264 319Q264 258 294 222T373 186Z" />
<glyph unicode="A" glyph-name="A" horiz-adv-x="636" d="M532 0L464 197H172L104 0H65L305 700H331L571 0H532ZM455 227L353 525Q352 528 344 552T329 600T318 637Q315 624 307 600T291 552T282 525L181 227H455Z" />
<glyph unicode="B" glyph-name="B" horiz-adv-x="632" d="M110 700H325Q430 700 476 650T523 526Q523 467 487 423T388 365Q459 359 503 311T548 188Q548 152 538 120T505 60T440 16T341 0H110V700ZM306 379Q394 379 440 419T487 528Q487 668 328 668H146V379H306ZM350
32Q437 32 474 74T512 181Q512 347 318 347H146V32H350Z" />
<glyph unicode="C" glyph-name="C" horiz-adv-x="640" d="M356 -12Q286 -12 233 18T148 101T101 216T85 350T101 485T150 600T235 682T355 712Q435 712 480 682T555 599L524 581Q498 625 461 650T355 676Q244 676 184 581T124 350Q124 262 146 191T222 72T356
24Q421 24 465 54T532 129L565 116Q539 61 487 25T356 -12Z" />
<glyph unicode="D" glyph-name="D" horiz-adv-x="665" d="M110 700H270Q353 700 415 670T512 589T563 479T580 350Q580 299 572 252T541 158T484 77T393 21T266 0H110V700ZM266 36Q328 36 377 55T456 104T506 177T533 262T541 350Q541 398 533 442T504 527T454
598T376 646T270 664H146V36H266Z" />
<glyph unicode="E" glyph-name="E" horiz-adv-x="582" d="M110 0V700H475V667H146V379H368V346H146V33H497V0H110Z" />
<glyph unicode="F" glyph-name="F" horiz-adv-x="550" d="M110 0V700H485V667H146V379H375V346H146V0H110Z" />
<glyph unicode="G" glyph-name="G" horiz-adv-x="681" d="M358 -12Q287 -12 233 18T148 101T101 216T85 350Q85 424 101 487T150 602T235 682T358 712Q478 712 549 616L517 595Q459 676 358 676Q296 676 249 647T176 570T137 466T124 350Q124 261 147 190T224
72T358 24Q444 24 493 86T542 269V281H395V315H580V281Q580 132 520 60T358 -12Z" />
<glyph unicode="H" glyph-name="H" horiz-adv-x="668" d="M522 0V347H146V0H110V700H146V381H522V700H558V0H522Z" />
<glyph unicode="I" glyph-name="I" horiz-adv-x="256" d="M110 0V700H146V0H110Z" />
<glyph unicode="J" glyph-name="J" horiz-adv-x="532" d="M220 -12Q148 -12 106 18T38 107L68 123Q113 22 220 22Q251 22 278 31T332 61T374 123T390 223V700H426V225Q426 157 407 108T357 35T292 -1T220 -12Z" />
<glyph unicode="K" glyph-name="K" horiz-adv-x="619" d="M514 0L279 431L146 264V0H110V700H146V317L450 700H493L304 462L556 0H514Z" />
<glyph unicode="L" glyph-name="L" horiz-adv-x="533" d="M110 0V700H146V33H493V0H110Z" />
<glyph unicode="M" glyph-name="M" horiz-adv-x="798" d="M688 0H652V552V596Q649 589 643 575T634 552L399 -12L164 552L146 596V552V0H110V700H142L378 132L399 81L420 132L656 700H688V0Z" />
<glyph unicode="N" glyph-name="N" horiz-adv-x="681" d="M571 0H536L177 581L146 632V581V0H110V700H145L504 119L535 68V119V700H571V0Z" />
<glyph unicode="O" glyph-name="O" horiz-adv-x="716" d="M430 -12T358 -12T232 19T146 104T100 220T85 350T100 480T146 595T231 680T358 712T484 681T570 596T616 480T631 350T616 220T570 105T485 20ZM358 24Q420 24 467 53T541 130T579 234T592 350Q592 415
580 471T541 575T468 649T358 676Q296 676 249 647T175 570T137 466T124 350Q124 285 136 229T175 125T248 51T358 24Z" />
<glyph unicode="P" glyph-name="P" horiz-adv-x="597" d="M110 0V700H329Q445 700 497 641T549 494Q549 457 537 422T500 357T431 308T329 289H146V0H110ZM329 325Q424 325 468 375T513 494Q513 567 471 615T329 664H146V325H329Z" />
<glyph unicode="Q" glyph-name="Q" horiz-adv-x="716" d="M358 -12Q286 -12 232 19T146 104T100 220T85 350T100 480T146 595T231 680T358 712T484 681T570 596T616 480T631 350Q631 152 529 54L591 -38L564 -57L504 33Q441 -12 358 -12ZM358 24Q430 24 483 64L422
155L449 174L508 86Q592 174 592 350Q592 415 580 471T541 575T468 649T358 676Q296 676 249 647T175 570T137 466T124 350Q124 285 136 229T175 125T248 51T358 24Z" />
<glyph unicode="R" glyph-name="R" horiz-adv-x="636" d="M110 0V700H350Q455 700 503 647T551 517Q551 442 505 389T368 329L529 0H489L330 329H146V0H110ZM146 362H350Q435 362 474 407T513 517Q513 544 505 568T480 616T430 653T350 667H146V362Z" />
<glyph unicode="S" glyph-name="S" horiz-adv-x="579" d="M295 -12Q218 -12 160 30T75 135L113 147Q138 90 186 57T296 23Q372 23 416 62T461 174Q461 294 292 359Q249 376 221 390T162 428T114 485T98 559Q98 626 148 669T287 712Q352 712 402 681T469 597L433
586Q395 677 284 677Q215 677 176 645T136 557Q136 525 149 500T191 454T243 423T308 394Q347 378 376 362T435 319T482 256T499 173Q499 86 443 37T295 -12Z" />
<glyph unicode="T" glyph-name="T" horiz-adv-x="557" d="M296 667V0H260V667H68V700H489V667H296Z" />
<glyph unicode="U" glyph-name="U" horiz-adv-x="658" d="M552 -12T329 -12T106 249V700H142V251Q142 22 329 22T516 251V700H552V249Q552 -12 329 -12Z" />
<glyph unicode="V" glyph-name="V" horiz-adv-x="632" d="M302 0L63 700H102L302 116Q304 110 306 103T311 88T316 74Q318 79 320 87T325 103T330 116L530 700H569L330 0H302Z" />
<glyph unicode="W" glyph-name="W" horiz-adv-x="832" d="M233 0L63 700H102L237 140Q247 97 249 88Q253 106 261 138L401 700H431L571 138Q579 106 583 88Q585 98 595 140L730 700H769L599 0H569L443 504Q425 576 416 614Q407 576 389 504L263 0H233Z" />
<glyph unicode="X" glyph-name="X" horiz-adv-x="546" d="M453 0L273 329L93 0H53L254 366L70 700H110L273 402L436 700H476L292 366L493 0H453Z" />
<glyph unicode="Y" glyph-name="Y" horiz-adv-x="600" d="M282 0V277L54 700H93L300 314L507 700H546L318 277V0H282Z" />
<glyph unicode="Z" glyph-name="Z" horiz-adv-x="595" d="M67 0V19L480 667H90V700H528V679L119 33H528V0H67Z" />
<glyph unicode="[" glyph-name="bracketleft" horiz-adv-x="375" d="M130 -130V712H305V678H166V-96H305V-130H130Z" />
<glyph unicode="\" glyph-name="backslash" horiz-adv-x="482" d="M406 -130L13 712H51L444 -130H406Z" />
<glyph unicode="]" glyph-name="bracketright" horiz-adv-x="375" d="M245 -130H70V-96H209V678H70V712H245V-130Z" />
<glyph unicode="^" glyph-name="asciicircum" horiz-adv-x="656" d="M503 362L328 663L153 362H115L309 712H347L541 362H503Z" />
<glyph unicode="_" glyph-name="underscore" horiz-adv-x="526" d="M8 -155V-122H518V-155H8Z" />
<glyph unicode="`" glyph-name="grave" horiz-adv-x="331" d="M185 576L16 732H71L222 576H185Z" />
<glyph unicode="a" glyph-name="a" horiz-adv-x="517" d="M398 0V80Q368 37 325 13T236 -12Q160 -12 117 31T73 154T122 274T248 316Q323 316 398 267V343Q398 426 364 458T273 490Q201 490 119 441L108 472Q196 523 276 523Q306 523 331 516T381 492T420 440T434
358V0H398ZM236 21Q324 21 398 122V233Q323 283 248 283Q191 283 152 250T112 154Q112 94 145 58T236 21Z" />
<glyph unicode="b" glyph-name="b" horiz-adv-x="554" d="M298 -12Q200 -12 139 73V0H103V704L139 722V436Q163 476 204 499T292 523Q381 523 433 452T486 256Q486 127 437 58T298 -12ZM295 24Q368 24 407 86T447 256Q447 368 407 427T291 487Q241 487 200 455T139
383V129Q164 81 205 53T295 24Z" />
<glyph unicode="c" glyph-name="c" horiz-adv-x="473" d="M252 -12Q167 -12 118 58T68 255T119 452T259 523Q311 523 350 495T408 416L372 402Q358 442 328 464T259 487Q107 487 107 255Q107 147 146 86T252 24Q298 24 332 49T379 118L415 105Q398 51 355 20T252 -12Z" />
<glyph unicode="d" glyph-name="d" horiz-adv-x="554" d="M262 -12Q172 -12 120 60T68 256Q68 382 121 452T270 523Q360 523 415 436V704L451 722V0H415V73Q356 -12 262 -12ZM270 24Q312 24 352 54T415 129V384Q354 487 270 487Q191 487 149 427T107 256Q107 157
152 91T270 24Z" />
<glyph unicode="e" glyph-name="e" horiz-adv-x="521" d="M273 -12Q176 -12 122 59T68 256T125 452T273 523Q359 523 408 457T458 256V245H107Q114 24 276 24Q343 24 396 67L417 41Q355 -12 273 -12ZM107 278H420Q419 394 375 442T273 490Q202 490 158 438T107 278Z" />
<glyph unicode="f" glyph-name="f" horiz-adv-x="309" d="M156 478V0H120V478H38V511H120V603Q120 712 218 712Q249 712 279 696V664Q245 679 218 679Q184 679 170 660T156 599V511H279V478H156Z" />
<glyph unicode="g" glyph-name="g" horiz-adv-x="556" d="M229 -213L210 -181Q321 -175 369 -136T417 -19V84Q370 -12 264 -12Q181 -12 125 58T68 256Q68 380 123 451T268 523Q321 523 360 498T417 437V511H453V-23Q453 -75 435 -112T382 -170T312 -200T229 -213ZM265
24Q314 24 354 55T417 134V389Q392 436 352 461T268 487Q190 487 149 427T107 256Q107 149 152 87T265 24Z" />
<glyph unicode="h" glyph-name="h" horiz-adv-x="552" d="M103 0V704L139 722V419Q158 472 201 497T290 523Q454 523 454 312V0H418V320Q418 489 287 489Q139 489 139 297V0H103Z" />
<glyph unicode="i" glyph-name="i" horiz-adv-x="248" d="M124 633Q112 633 104 641T95 662Q95 675 103 684T124 693Q137 693 145 684T153 662Q153 650 145 642T124 633ZM106 0V511H142V0H106Z" />
<glyph unicode="j" glyph-name="j" horiz-adv-x="248" d="M124 633Q112 633 104 641T95 662Q95 675 103 684T124 693Q137 693 145 684T153 662Q153 650 145 642T124 633ZM0 -213L-18 -182Q47 -177 77 -147T107 -51V511H143V-49Q143 -130 104 -171Q69 -206 0 -213Z" />
<glyph unicode="k" glyph-name="k" horiz-adv-x="503" d="M465 0H424L248 343L139 227V0H103V704L139 722V272L357 511H402L274 371L465 0Z" />
<glyph unicode="l" glyph-name="l" horiz-adv-x="242" d="M103 0V704L139 722V0H103Z" />
<glyph unicode="m" glyph-name="m" horiz-adv-x="835" d="M701 0V321Q701 489 574 489Q512 489 475 440T438 321V0H402V321Q402 489 277 489Q209 489 174 442T139 314V0H103V511H139V427Q183 523 282 523Q336 523 373 492T423 398Q442 458 484 490T577 523Q651
523 694 477T737 351V0H701Z" />
<glyph unicode="n" glyph-name="n" horiz-adv-x="552" d="M418 0V319Q418 489 287 489Q139 489 139 297V0H103V511H139V419Q158 472 201 497T290 523Q454 523 454 312V0H418Z" />
<glyph unicode="o" glyph-name="o" horiz-adv-x="540" d="M362 -12T270 -12T123 58T68 255Q68 380 123 451T270 523T417 453T472 256Q472 131 417 60ZM270 24Q348 24 390 85T433 256T391 426T270 487T149 428T107 255Q107 145 149 85T270 24Z" />
<glyph unicode="p" glyph-name="p" horiz-adv-x="558" d="M288 -12Q189 -12 139 84V-185L103 -203V511H139V437Q192 523 296 523Q385 523 437 451T490 256Q490 128 436 58T288 -12ZM288 24Q366 24 408 84T451 256Q451 362 408 424T288 487Q242 487 203 461T139
389V134Q164 82 203 53T288 24Z" />
<glyph unicode="q" glyph-name="q" horiz-adv-x="558" d="M270 -12Q177 -12 123 55T68 251Q68 373 120 448T262 523Q366 523 419 437V511H455V-182L419 -200V84Q397 40 357 14T270 -12ZM270 24Q316 24 355 53T419 134V389Q395 434 356 460T270 487Q194 487 151
422T107 251Q107 141 149 83T270 24Z" />
<glyph unicode="r" glyph-name="r" horiz-adv-x="382" d="M103 0V511H139V402Q162 462 202 492T289 523Q334 523 357 502L351 466Q323 483 284 483Q229 483 184 434T139 283V0H103Z" />
<glyph unicode="s" glyph-name="s" horiz-adv-x="457" d="M236 -12Q143 -12 75 65L103 89Q164 22 235 22Q290 22 321 47T352 120T315 198T212 253Q143 279 108 311T73 397Q73 452 113 487T223 523Q310 523 370 460L343 437Q287 489 222 489Q169 489 140 464T110
397Q110 378 117 362T133 336T163 315T195 298T235 282Q275 266 297 255T343 225T378 181T389 120Q389 60 349 24T236 -12Z" />
<glyph unicode="t" glyph-name="t" horiz-adv-x="361" d="M224 -12Q130 -12 130 104V478H43V511H130V704L166 722V511H296V478H166V109Q166 65 179 44T228 23Q266 23 303 47L299 9Q265 -12 224 -12Z" />
<glyph unicode="u" glyph-name="u" horiz-adv-x="552" d="M413 0V86Q369 -12 263 -12Q98 -12 98 199V511H134V191Q134 21 265 21Q413 21 413 214V511H449V0H413Z" />
<glyph unicode="v" glyph-name="v" horiz-adv-x="496" d="M235 0L53 511H89L237 99L248 66L259 99L407 511H443L261 0H235Z" />
<glyph unicode="w" glyph-name="w" horiz-adv-x="698" d="M183 0L53 511H89L187 117L199 66Q206 93 214 117L336 511H362L484 117L499 66Q505 93 511 117L609 511H645L515 0H489L370 376L349 445Q338 409 328 376L209 0H183Z" />
<glyph unicode="x" glyph-name="x" horiz-adv-x="488" d="M53 0L224 266L67 511H106L224 328L244 296Q247 302 254 312T264 328L382 511H421L263 266L435 0H396L265 203Q251 225 244 237Q237 225 223 203L92 0H53Z" />
<glyph unicode="y" glyph-name="y" horiz-adv-x="510" d="M161 -194L237 12L53 511H89L237 108L255 57L273 108L421 511H457L197 -194H161Z" />
<glyph unicode="z" glyph-name="z" horiz-adv-x="495" d="M68 0V22L374 478H88V511H422V490L115 33H421V0H68Z" />
<glyph unicode="{" glyph-name="braceleft" horiz-adv-x="374" d="M314 -130Q232 -128 196 -72T160 101V162Q160 214 135 243T67 272H63V311H67Q110 311 135 339T160 421V481Q160 598 196 654T314 712V680Q199 676 199 526V444Q199 361 173 329T89 291Q147 286
173 256T199 138V56Q199 -94 314 -98V-130Z" />
<glyph unicode="|" glyph-name="bar" horiz-adv-x="266" d="M115 -378V1062H151V-378H115Z" />
<glyph unicode="}" glyph-name="braceright" horiz-adv-x="374" d="M60 -130V-98Q175 -94 175 56V138Q175 225 201 255T285 291Q228 297 202 329T175 444V526Q175 676 60 680V712Q142 710 178 654T214 481V421Q214 367 239 339T307 311H311V272H307Q264 272 239
243T214 162V101Q214 -16 178 -72T60 -130Z" />
<glyph unicode="~" glyph-name="asciitilde" horiz-adv-x="656" d="M443 277Q403 277 362 300T283 347T211 371Q175 371 155 347T132 277H95Q95 331 125 369T213 407Q253 407 294 384T373 337T445 313Q481 313 501 338T524 407H561Q561 353 531 315T443 277Z" />
<glyph unicode="&#xa0;" glyph-name="uni00A0" horiz-adv-x="220" />
<glyph unicode="&#xa1;" glyph-name="exclamdown" horiz-adv-x="266" d="M133 463Q120 463 112 472T104 494Q104 506 112 514T133 523Q145 523 153 515T162 494Q162 481 154 472T133 463ZM152 -200H114V52L128 319H138L152 52V-200Z" />
<glyph unicode="&#xa2;" glyph-name="cent" horiz-adv-x="507" d="M245 -12V82Q168 90 124 159T80 348Q80 464 123 534T245 614V712H281V616Q329 613 365 585T420 509L384 495Q354 579 271 579Q119 579 119 348Q119 240 158 179T264 118Q310 118 344 143T391 211L427
198Q411 148 373 117T281 82V-12H245Z" />
<glyph unicode="&#xa3;" glyph-name="sterling" horiz-adv-x="600" d="M103 0V40Q205 129 205 250Q205 278 198 311H103V344H189Q183 364 169 402T147 469T139 526Q139 604 192 658T345 712Q452 712 521 658L506 625Q446 677 345 677Q262 677 220 633T177 527Q177
499 185 470T208 403T229 344H397V311H237Q243 286 243 258Q243 123 137 33H537V0H103Z" />
<glyph unicode="&#xa4;" glyph-name="currency" horiz-adv-x="631" d="M399 101T315 101T164 154L94 83L65 111L137 182Q95 246 95 333T137 484L65 555L94 583L164 512Q231 565 315 565T466 512L536 583L565 555L493 484Q535 420 535 333T493 182L565 111L536
83L466 154Q399 101 315 101ZM233 138T315 138T446 192T496 333T447 473T315 528T184 474T134 333T183 193Z" />
<glyph unicode="&#xa5;" glyph-name="yen" horiz-adv-x="554" d="M310 309H464V276H295V156H464V123H295V0H259V123H78V156H259V276H78V309H244L31 700H70L277 318L484 700H523L310 309Z" />
<glyph unicode="&#xa6;" glyph-name="brokenbar" horiz-adv-x="266" d="M115 366V825H151V366H115ZM115 -225V234H151V-225H115Z" />
<glyph unicode="&#xa7;" glyph-name="section" horiz-adv-x="528" d="M259 -120Q145 -120 78 -49L106 -23Q172 -84 259 -84Q411 -84 411 33Q411 56 402 75T382 107T347 134T309 153T261 173T215 191Q146 219 115 245T84 321Q84 364 113 393T190 432Q84 475 84
573Q84 636 134 674T257 712Q357 712 423 650L394 624Q335 676 257 676Q199 676 161 649T123 570T158 493T302 427Q337 414 358 403T403 375T438 334T450 279Q450 244 428 214T365 169Q450 126 450 33Q450 -44 399 -82T259 -120ZM333 187Q411 215 411 276Q411 297
401 315T377 345T336 370T288 391T228 412Q179 404 151 381T123 321Q123 294 147 273T199 239T270 212T333 187Z" />
<glyph unicode="&#xa8;" glyph-name="dieresis" horiz-adv-x="331" d="M84 606Q72 606 64 614T55 635Q55 648 63 657T84 666Q97 666 105 657T113 635Q113 623 105 615T84 606ZM250 606Q238 606 230 614T221 635Q221 648 229 657T250 666Q263 666 271 657T279 635Q279
623 271 615T250 606Z" />
<glyph unicode="&#xa9;" glyph-name="copyright" horiz-adv-x="870" d="M589 -12T435 -12T177 92T73 350T177 608T435 712T693 608T797 350T693 92ZM294 22T435 22T668 115T761 350T669 584T435 678T202 585T109 350T201 116ZM441 138Q359 138 317 194T274 355Q274
456 317 514T440 573Q539 573 577 485L543 471Q512 538 440 538Q377 538 345 490T312 355Q312 173 441 173Q527 173 553 249L583 237Q549 138 441 138Z" />
<glyph unicode="&#xaa;" glyph-name="ordfeminine" horiz-adv-x="448" d="M334 283V325Q275 273 201 273Q136 273 97 308T58 408Q58 475 105 511T216 547Q279 547 334 517V554Q334 622 306 650T216 678Q158 678 103 644L93 676Q147 712 216 712Q292 712 331 678T370
561V283H334ZM201 306Q276 306 334 360V481Q284 514 216 514Q168 514 133 488T97 408Q97 357 125 332T201 306Z" />
<glyph unicode="&#xab;" glyph-name="guillemotleft" horiz-adv-x="461" d="M203 0L51 256L203 511H245L93 256L245 0H203ZM383 0L231 256L383 511H425L273 256L425 0H383Z" />
<glyph unicode="&#xac;" glyph-name="logicalnot" horiz-adv-x="656" d="M527 176V427H93V463H563V176H527Z" />
<glyph unicode="&#xad;" glyph-name="uni00AD" horiz-adv-x="399" d="M88 280V316H311V280H88Z" />
<glyph unicode="&#xae;" glyph-name="registered" horiz-adv-x="870" d="M589 -12T435 -12T177 92T73 350T177 608T435 712T693 608T797 350T693 92ZM294 22T435 22T668 115T761 350T669 584T435 678T202 585T109 350T201 116ZM298 137V560H476Q535 560 564 522T594
438Q594 391 566 358T483 321L588 137H546L444 319H334V137H298ZM334 355H467Q513 355 534 378T556 438T536 499T467 524H334V355Z" />
<glyph unicode="&#xaf;" glyph-name="overscore" horiz-adv-x="331" d="M0 623V656H330V623H0Z" />
<glyph unicode="&#xb0;" glyph-name="degree" horiz-adv-x="396" d="M198 482Q140 482 102 520T63 616Q63 674 101 712T198 750Q255 750 294 712T333 616T294 521T198 482ZM198 515Q241 515 270 544T299 616Q299 660 271 688T198 717T126 689T97 616Q97 573 125
544T198 515Z" />
<glyph unicode="&#xb1;" glyph-name="plusminus" horiz-adv-x="656" d="M345 388V204H309V388H93V424H309V608H345V424H563V388H345ZM93 0V36H563V0H93Z" />
<glyph unicode="&#xb2;" glyph-name="uni00B2" horiz-adv-x="366" d="M47 444Q48 512 82 553T180 634Q225 662 245 687T265 752Q265 785 243 811T177 837Q102 837 80 762L47 775Q58 817 92 845T177 873Q233 873 268 841T303 752Q303 700 278 667T197 601Q147 572
123 545T90 485H301V444H47Z" />
<glyph unicode="&#xb3;" glyph-name="uni00B3" horiz-adv-x="363" d="M178 433Q79 433 37 526L72 539Q105 469 178 469Q222 469 249 491T276 554Q276 593 253 618T188 643H157V679H178Q214 679 236 703T259 762T239 817T180 838Q118 838 86 774L52 788Q89 874
180 874Q232 874 264 844T297 762Q297 731 281 704T234 664Q271 656 292 627T314 554Q314 499 275 466T178 433Z" />
<glyph unicode="&#xb4;" glyph-name="acute" horiz-adv-x="331" d="M105 576L256 732H311L142 576H105Z" />
<glyph unicode="&#xb5;" glyph-name="uni00B5" horiz-adv-x="552" d="M413 0V86Q392 40 354 14T263 -12Q173 -12 134 50V-181L98 -200V511H134V191Q134 21 265 21Q413 21 413 214V511H449V0H413Z" />
<glyph unicode="&#xb6;" glyph-name="paragraph" horiz-adv-x="598" d="M309 -174V295Q239 295 187 312T106 360T64 422T50 491Q50 573 101 628T262 683H488V-91L452 -109V647H345V-157L309 -174ZM310 331V647H265Q173 647 132 603T90 492Q90 426 142 379T310 331Z" />
<glyph unicode="&#xb7;" glyph-name="middot" horiz-adv-x="202" d="M101 320Q89 320 81 328T72 349Q72 362 80 371T101 380Q114 380 122 371T130 349Q130 337 122 329T101 320Z" />
<glyph unicode="&#xb8;" glyph-name="cedilla" horiz-adv-x="331" d="M216 -234T171 -234T100 -206L125 -188Q146 -205 170 -205Q200 -205 217 -188T234 -144Q234 -118 216 -101T169 -84Q147 -84 131 -92L121 -80L186 10H210L170 -59Q218 -59 243 -84T268 -143Q268
-182 242 -208Z" />
<glyph unicode="&#xb9;" glyph-name="uni00B9" horiz-adv-x="196" d="M82 444V778H26V800Q62 801 76 816T96 866H120V444H82Z" />
<glyph unicode="&#xba;" glyph-name="ordmasculine" horiz-adv-x="465" d="M232 272Q152 272 105 330T57 492Q57 595 104 653T232 712Q313 712 360 654T408 492Q408 388 361 330T232 272ZM232 309Q296 309 332 357T369 492T332 626T232 675Q170 675 133 626T96
492Q96 406 133 358T232 309Z" />
<glyph unicode="&#xbb;" glyph-name="guillemotright" horiz-adv-x="461" d="M36 0L188 256L36 511H78L230 256L78 0H36ZM216 0L368 256L216 511H258L410 256L258 0H216Z" />
<glyph unicode="&#xbc;" glyph-name="onequarter" horiz-adv-x="670" d="M25 -12L503 712H546L68 -12H25ZM92 283V617H36V639Q72 640 86 655T106 705H130V283H92ZM522 0V117H310V137L529 423H560V153H616V117H560V0H522ZM522 153V360L363 153H522Z" />
<glyph unicode="&#xbd;" glyph-name="onehalf" horiz-adv-x="719" d="M25 -12L503 712H546L68 -12H25ZM92 283V617H36V639Q72 640 86 655T106 705H130V283H92ZM400 0Q401 68 435 109T533 190Q578 218 598 243T618 308Q618 341 596 367T530 393Q455 393 433 318L400
331Q411 373 445 401T530 429Q586 429 621 397T656 308Q656 256 631 223T550 157Q459 104 443 40H654V0H400Z" />
<glyph unicode="&#xbe;" glyph-name="threequarters" horiz-adv-x="814" d="M180 271Q81 271 39 364L74 377Q107 307 180 307Q224 307 251 329T278 392Q278 431 255 456T190 481H159V517H180Q216 517 238 541T261 600T241 655T182 676Q120 676 88 612L54 626Q91
712 182 712Q234 712 266 682T299 600Q299 569 283 542T236 502Q273 494 294 465T316 392Q316 337 277 304T180 271ZM168 -12L646 712H689L211 -12H168ZM665 0V117H453V137L672 423H703V153H759V117H703V0H665ZM665 153V360L506 153H665Z" />
<glyph unicode="&#xbf;" glyph-name="questiondown" horiz-adv-x="522" d="M270 463Q257 463 249 472T241 494Q241 506 249 514T270 523Q282 523 290 515T299 494Q299 481 291 472T270 463ZM348 -200T257 -200T115 -149T63 -20Q63 25 82 61T129 124T184 177T231
240T251 322V356H289V322Q289 273 270 233T223 166T168 113T121 54T101 -20Q101 -82 142 -123T257 -164Q333 -164 377 -121T422 -13H458Q458 -93 403 -146Z" />
<glyph unicode="&#xc0;" glyph-name="Agrave" horiz-adv-x="636" d="M336 765L167 921H222L373 765H336ZM532 0L464 197H172L104 0H65L305 700H331L571 0H532ZM455 227L353 525Q352 528 344 552T329 600T318 637Q315 624 307 600T291 552T282 525L181 227H455Z" />
<glyph unicode="&#xc1;" glyph-name="Aacute" horiz-adv-x="636" d="M257 765L408 921H463L294 765H257ZM532 0L464 197H172L104 0H65L305 700H331L571 0H532ZM455 227L353 525Q352 528 344 552T329 600T318 637Q315 624 307 600T291 552T282 525L181 227H455Z" />
<glyph unicode="&#xc2;" glyph-name="Acircumflex" horiz-adv-x="636" d="M447 765L317 885L187 765H150L301 921H333L484 765H447ZM532 0L464 197H172L104 0H65L305 700H331L571 0H532ZM455 227L353 525Q352 528 344 552T329 600T318 637Q315 624 307 600T291
552T282 525L181 227H455Z" />
<glyph unicode="&#xc3;" glyph-name="Atilde" horiz-adv-x="636" d="M396 791Q362 791 309 831T230 872Q181 872 178 795H151Q151 845 173 875T237 905Q271 905 324 865T403 824Q452 824 455 901H482Q482 851 460 821T396 791ZM532 0L464 197H172L104 0H65L305
700H331L571 0H532ZM455 227L353 525Q352 528 344 552T329 600T318 637Q315 624 307 600T291 552T282 525L181 227H455Z" />
<glyph unicode="&#xc4;" glyph-name="Adieresis" horiz-adv-x="636" d="M235 795Q223 795 215 803T206 824Q206 837 214 846T235 855Q248 855 256 846T264 824Q264 812 256 804T235 795ZM401 795Q389 795 381 803T372 824Q372 837 380 846T401 855Q414 855 422
846T430 824Q430 812 422 804T401 795ZM532 0L464 197H172L104 0H65L305 700H331L571 0H532ZM455 227L353 525Q352 528 344 552T329 600T318 637Q315 624 307 600T291 552T282 525L181 227H455Z" />
<glyph unicode="&#xc5;" glyph-name="Aring" horiz-adv-x="636" d="M65 0L284 639Q248 650 226 678T203 746Q203 792 237 825T318 859T399 826T433 746Q433 708 411 679T352 639L571 0H532L464 197H172L104 0H65ZM318 665Q352 665 375 688T399 746Q399 781 376
804T318 828Q285 828 261 805T237 746T261 688T318 665ZM181 227H455L353 525Q352 528 344 552T329 600T318 637Q315 624 307 600T291 552T282 525L181 227Z" />
<glyph unicode="&#xc6;" glyph-name="AE" horiz-adv-x="849" d="M3 0L407 700H742V667H442V379H635V346H442V33H764V0H406V197H157L44 0H3ZM173 227H406V636Q398 620 382 592L173 227Z" />
<glyph unicode="&#xc7;" glyph-name="Ccedilla" horiz-adv-x="640" d="M386 -234T341 -234T270 -206L295 -188Q316 -205 340 -205Q370 -205 387 -188T404 -144Q404 -118 386 -101T339 -84Q317 -84 301 -92L291 -80L340 -11Q274 -8 224 23T144 106T100 219T85 350Q85
421 101 485T150 600T235 682T355 712Q435 712 480 682T555 599L524 581Q498 625 461 650T355 676Q244 676 184 581T123 350Q123 285 136 229T176 125T249 51T356 24Q421 24 465 54T532 129L565 116Q540 63 491 27T367 -12L340 -59Q388 -59 413 -84T438 -143Q438
-182 412 -208Z" />
<glyph unicode="&#xc8;" glyph-name="Egrave" horiz-adv-x="582" d="M302 765L133 921H188L339 765H302ZM110 0V700H475V667H146V379H368V346H146V33H497V0H110Z" />
<glyph unicode="&#xc9;" glyph-name="Eacute" horiz-adv-x="582" d="M235 765L386 921H441L272 765H235ZM110 0V700H475V667H146V379H368V346H146V33H497V0H110Z" />
<glyph unicode="&#xca;" glyph-name="Ecircumflex" horiz-adv-x="582" d="M421 765L291 885L161 765H124L275 921H307L458 765H421ZM110 0V700H475V667H146V379H368V346H146V33H497V0H110Z" />
<glyph unicode="&#xcb;" glyph-name="Edieresis" horiz-adv-x="582" d="M213 795Q201 795 193 803T184 824Q184 837 192 846T213 855Q226 855 234 846T242 824Q242 812 234 804T213 795ZM379 795Q367 795 359 803T350 824Q350 837 358 846T379 855Q392 855 400
846T408 824Q408 812 400 804T379 795ZM110 0V700H475V667H146V379H368V346H146V33H497V0H110Z" />
<glyph unicode="&#xcc;" glyph-name="Igrave" horiz-adv-x="256" d="M146 765L-23 921H32L183 765H146ZM110 0V700H146V0H110Z" />
<glyph unicode="&#xcd;" glyph-name="Iacute" horiz-adv-x="256" d="M67 765L218 921H273L104 765H67ZM110 0V700H146V0H110Z" />
<glyph unicode="&#xce;" glyph-name="Icircumflex" horiz-adv-x="256" d="M257 765L127 885L-3 765H-40L111 921H143L294 765H257ZM110 0V700H146V0H110Z" />
<glyph unicode="&#xcf;" glyph-name="Idieresis" horiz-adv-x="256" d="M45 795Q33 795 25 803T16 824Q16 837 24 846T45 855Q58 855 66 846T74 824Q74 812 66 804T45 795ZM211 795Q199 795 191 803T182 824Q182 837 190 846T211 855Q224 855 232 846T240 824Q240
812 232 804T211 795ZM110 0V700H146V0H110Z" />
<glyph unicode="&#xd0;" glyph-name="Eth" horiz-adv-x="665" d="M110 331H40V367H110V700H270Q353 700 415 670T512 589T563 479T580 350Q580 299 572 252T541 158T484 77T393 21T266 0H110V331ZM266 36Q328 36 377 55T456 104T506 177T533 262T541 350Q541 398
533 442T504 527T454 598T376 646T270 664H146V367H321V331H146V36H266Z" />
<glyph unicode="&#xd1;" glyph-name="Ntilde" horiz-adv-x="681" d="M419 791Q385 791 332 831T253 872Q204 872 201 795H174Q174 845 196 875T260 905Q294 905 347 865T426 824Q475 824 478 901H505Q505 851 483 821T419 791ZM571 0H536L177 581L146 632V581V0H110V700H145L504
119L535 68V119V700H571V0Z" />
<glyph unicode="&#xd2;" glyph-name="Ograve" horiz-adv-x="716" d="M398 766L229 922H284L435 766H398ZM430 -12T358 -12T232 19T146 104T100 220T85 350T100 480T146 595T231 680T358 712T484 681T570 596T616 480T631 350T616 220T570 105T485 20ZM358 24Q420
24 467 53T541 130T579 234T592 350Q592 415 580 471T541 575T468 649T358 676Q296 676 249 647T175 570T137 466T124 350Q124 285 136 229T175 125T248 51T358 24Z" />
<glyph unicode="&#xd3;" glyph-name="Oacute" horiz-adv-x="716" d="M297 765L448 921H503L334 765H297ZM430 -12T358 -12T232 19T146 104T100 220T85 350T100 480T146 595T231 680T358 712T484 681T570 596T616 480T631 350T616 220T570 105T485 20ZM358 24Q420
24 467 53T541 130T579 234T592 350Q592 415 580 471T541 575T468 649T358 676Q296 676 249 647T175 570T137 466T124 350Q124 285 136 229T175 125T248 51T358 24Z" />
<glyph unicode="&#xd4;" glyph-name="Ocircumflex" horiz-adv-x="716" d="M487 765L357 885L227 765H190L341 921H373L524 765H487ZM430 -12T358 -12T232 19T146 104T100 220T85 350T100 480T146 595T231 680T358 712T484 681T570 596T616 480T631 350T616 220T570
105T485 20ZM358 24Q420 24 467 53T541 130T579 234T592 350Q592 415 580 471T541 575T468 649T358 676Q296 676 249 647T175 570T137 466T124 350Q124 285 136 229T175 125T248 51T358 24Z" />
<glyph unicode="&#xd5;" glyph-name="Otilde" horiz-adv-x="716" d="M436 791Q402 791 349 831T270 872Q221 872 218 795H191Q191 845 213 875T277 905Q311 905 364 865T443 824Q492 824 495 901H522Q522 851 500 821T436 791ZM430 -12T358 -12T232 19T146 104T100
220T85 350T100 480T146 595T231 680T358 712T484 681T570 596T616 480T631 350T616 220T570 105T485 20ZM358 24Q420 24 467 53T541 130T579 234T592 350Q592 415 580 471T541 575T468 649T358 676Q296 676 249 647T175 570T137 466T124 350Q124 285 136 229T175
125T248 51T358 24Z" />
<glyph unicode="&#xd6;" glyph-name="Odieresis" horiz-adv-x="716" d="M275 795Q263 795 255 803T246 824Q246 837 254 846T275 855Q288 855 296 846T304 824Q304 812 296 804T275 795ZM441 795Q429 795 421 803T412 824Q412 837 420 846T441 855Q454 855 462
846T470 824Q470 812 462 804T441 795ZM430 -12T358 -12T232 19T146 104T100 220T85 350T100 480T146 595T231 680T358 712T484 681T570 596T616 480T631 350T616 220T570 105T485 20ZM358 24Q420 24 467 53T541 130T579 234T592 350Q592 415 580 471T541 575T468
649T358 676Q296 676 249 647T175 570T137 466T124 350Q124 285 136 229T175 125T248 51T358 24Z" />
<glyph unicode="&#xd7;" glyph-name="multiply" horiz-adv-x="656" d="M328 316L139 127L114 151L304 341L114 531L139 555L328 366L517 555L542 531L352 341L542 151L517 127L328 316Z" />
<glyph unicode="&#xd8;" glyph-name="Oslash" horiz-adv-x="716" d="M96 -12L160 84Q85 183 85 350Q85 418 100 480T146 595T231 680T358 712Q463 712 532 643L579 712H620L556 616Q631 516 631 350Q631 282 616 220T570 105T485 20T358 -12Q252 -12 183 57L137
-12H96ZM181 115L512 612Q453 676 358 676Q296 676 249 647T175 570T136 466T123 350Q123 201 181 115ZM358 24Q420 24 467 53T541 130T580 234T593 350Q593 498 535 584L203 87Q261 24 358 24Z" />
<glyph unicode="&#xd9;" glyph-name="Ugrave" horiz-adv-x="658" d="M347 765L178 921H233L384 765H347ZM552 -12T329 -12T106 249V700H142V251Q142 22 329 22T516 251V700H552V249Q552 -12 329 -12Z" />
<glyph unicode="&#xda;" glyph-name="Uacute" horiz-adv-x="658" d="M268 765L419 921H474L305 765H268ZM552 -12T329 -12T106 249V700H142V251Q142 22 329 22T516 251V700H552V249Q552 -12 329 -12Z" />
<glyph unicode="&#xdb;" glyph-name="Ucircumflex" horiz-adv-x="658" d="M458 765L328 885L198 765H161L312 921H344L495 765H458ZM552 -12T329 -12T106 249V700H142V251Q142 22 329 22T516 251V700H552V249Q552 -12 329 -12Z" />
<glyph unicode="&#xdc;" glyph-name="Udieresis" horiz-adv-x="658" d="M246 795Q234 795 226 803T217 824Q217 837 225 846T246 855Q259 855 267 846T275 824Q275 812 267 804T246 795ZM412 795Q400 795 392 803T383 824Q383 837 391 846T412 855Q425 855 433
846T441 824Q441 812 433 804T412 795ZM552 -12T329 -12T106 249V700H142V251Q142 22 329 22T516 251V700H552V249Q552 -12 329 -12Z" />
<glyph unicode="&#xdd;" glyph-name="Yacute" horiz-adv-x="600" d="M225 765L376 921H431L262 765H225ZM282 0V277L54 700H93L300 314L507 700H546L318 277V0H282Z" />
<glyph unicode="&#xde;" glyph-name="Thorn" horiz-adv-x="599" d="M110 0V700H146V561H328Q444 561 496 502T549 355Q549 318 537 284T500 218T431 169T328 150H146V0H110ZM329 186Q421 186 465 237T510 355Q510 427 467 476T329 525H146V186H329Z" />
<glyph unicode="&#xdf;" glyph-name="germandbls" horiz-adv-x="562" d="M95 -194V486Q95 601 148 656T278 712Q359 712 407 663T456 534Q456 481 430 438T340 382Q414 370 453 318T492 199Q492 100 438 44T301 -12Q265 -12 242 -3L260 28Q276 24 301 24Q364 24
408 69T453 199Q453 268 410 315T273 363H269V396H273Q340 396 378 430T417 534Q417 602 382 639T278 676Q212 676 172 629T131 486V-176L95 -194Z" />
<glyph unicode="&#xe0;" glyph-name="agrave" horiz-adv-x="517" d="M295 576L126 732H181L332 576H295ZM398 0V80Q368 37 325 13T236 -12Q160 -12 117 31T73 154T122 274T248 316Q323 316 398 267V343Q398 426 364 458T273 490Q201 490 119 441L108 472Q196 523
276 523Q306 523 331 516T381 492T420 440T434 358V0H398ZM236 21Q324 21 398 122V233Q323 283 248 283Q191 283 152 250T112 154Q112 94 145 58T236 21Z" />
<glyph unicode="&#xe1;" glyph-name="aacute" horiz-adv-x="517" d="M213 576L364 732H419L250 576H213ZM398 0V80Q368 37 325 13T236 -12Q160 -12 117 31T73 154T122 274T248 316Q323 316 398 267V343Q398 426 364 458T273 490Q201 490 119 441L108 472Q196 523
276 523Q306 523 331 516T381 492T420 440T434 358V0H398ZM236 21Q324 21 398 122V233Q323 283 248 283Q191 283 152 250T112 154Q112 94 145 58T236 21Z" />
<glyph unicode="&#xe2;" glyph-name="acircumflex" horiz-adv-x="517" d="M403 576L273 696L143 576H106L257 732H289L440 576H403ZM398 0V80Q368 37 325 13T236 -12Q160 -12 117 31T73 154T122 274T248 316Q323 316 398 267V343Q398 426 364 458T273 490Q201
490 119 441L108 472Q196 523 276 523Q306 523 331 516T381 492T420 440T434 358V0H398ZM236 21Q324 21 398 122V233Q323 283 248 283Q191 283 152 250T112 154Q112 94 145 58T236 21Z" />
<glyph unicode="&#xe3;" glyph-name="atilde" horiz-adv-x="517" d="M352 602Q318 602 265 642T186 683Q137 683 134 606H107Q107 656 129 686T193 716Q227 716 280 676T359 635Q408 635 411 712H438Q438 662 416 632T352 602ZM398 0V80Q368 37 325 13T236 -12Q160
-12 117 31T73 154T122 274T248 316Q323 316 398 267V343Q398 426 364 458T273 490Q201 490 119 441L108 472Q196 523 276 523Q306 523 331 516T381 492T420 440T434 358V0H398ZM236 21Q324 21 398 122V233Q323 283 248 283Q191 283 152 250T112 154Q112 94 145
58T236 21Z" />
<glyph unicode="&#xe4;" glyph-name="adieresis" horiz-adv-x="517" d="M191 606Q179 606 171 614T162 635Q162 648 170 657T191 666Q204 666 212 657T220 635Q220 623 212 615T191 606ZM357 606Q345 606 337 614T328 635Q328 648 336 657T357 666Q370 666 378
657T386 635Q386 623 378 615T357 606ZM398 0V80Q368 37 325 13T236 -12Q160 -12 117 31T73 154T122 274T248 316Q323 316 398 267V343Q398 426 364 458T273 490Q201 490 119 441L108 472Q196 523 276 523Q306 523 331 516T381 492T420 440T434 358V0H398ZM236
21Q324 21 398 122V233Q323 283 248 283Q191 283 152 250T112 154Q112 94 145 58T236 21Z" />
<glyph unicode="&#xe5;" glyph-name="aring" horiz-adv-x="517" d="M326 575T279 575T198 608T164 687T198 766T279 800T360 767T394 687T360 608ZM278 606Q312 606 336 629T360 687Q360 722 336 745T278 769Q245 769 222 746T198 687Q198 653 221 630T278 606ZM398
0V80Q368 37 325 13T236 -12Q160 -12 117 31T73 154T122 274T248 316Q323 316 398 267V343Q398 426 364 458T273 490Q201 490 119 441L108 472Q196 523 276 523Q306 523 331 516T381 492T420 440T434 358V0H398ZM236 21Q324 21 398 122V233Q323 283 248 283Q191
283 152 250T112 154Q112 94 145 58T236 21Z" />
<glyph unicode="&#xe6;" glyph-name="ae" horiz-adv-x="846" d="M236 -12Q160 -12 117 31T73 154T122 274T248 316Q323 316 398 267V343Q398 426 364 458T273 490Q201 490 119 441L108 472Q196 523 276 523Q412 523 428 399Q450 460 496 491T603 523Q689 523 738
457T788 256V245H437Q444 24 606 24Q673 24 726 67L747 41Q685 -12 603 -12Q474 -12 424 109Q386 47 335 18T236 -12ZM437 278H750Q749 396 705 443T603 490Q531 490 487 439T437 278ZM236 21Q339 21 411 145Q401 179 398 233Q323 283 248 283Q191 283 152 250T112
154Q112 94 145 58T236 21Z" />
<glyph unicode="&#xe7;" glyph-name="ccedilla" horiz-adv-x="473" d="M291 -234T246 -234T175 -206L200 -188Q221 -205 245 -205Q275 -205 292 -188T309 -144Q309 -118 291 -101T244 -84Q222 -84 206 -92L196 -80L245 -12Q163 -9 116 61T68 255Q68 381 119 452T259
523Q311 523 350 495T408 416L372 402Q358 442 328 464T259 487Q107 487 107 255Q107 147 146 86T252 24Q298 24 332 49T379 118L415 105Q400 56 363 26T273 -10L245 -59Q293 -59 318 -84T343 -143Q343 -182 317 -208Z" />
<glyph unicode="&#xe8;" glyph-name="egrave" horiz-adv-x="521" d="M291 576L122 732H177L328 576H291ZM273 -12Q176 -12 122 59T68 256T125 452T273 523Q359 523 408 457T458 256V245H107Q114 24 276 24Q343 24 396 67L417 41Q355 -12 273 -12ZM107 278H420Q419
394 375 442T273 490Q202 490 158 438T107 278Z" />
<glyph unicode="&#xe9;" glyph-name="eacute" horiz-adv-x="521" d="M212 576L363 732H418L249 576H212ZM273 -12Q176 -12 122 59T68 256T125 452T273 523Q359 523 408 457T458 256V245H107Q114 24 276 24Q343 24 396 67L417 41Q355 -12 273 -12ZM107 278H420Q419
394 375 442T273 490Q202 490 158 438T107 278Z" />
<glyph unicode="&#xea;" glyph-name="ecircumflex" horiz-adv-x="521" d="M402 576L272 696L142 576H105L256 732H288L439 576H402ZM273 -12Q176 -12 122 59T68 256T125 452T273 523Q359 523 408 457T458 256V245H107Q114 24 276 24Q343 24 396 67L417 41Q355
-12 273 -12ZM107 278H420Q419 394 375 442T273 490Q202 490 158 438T107 278Z" />
<glyph unicode="&#xeb;" glyph-name="edieresis" horiz-adv-x="521" d="M190 606Q178 606 170 614T161 635Q161 648 169 657T190 666Q203 666 211 657T219 635Q219 623 211 615T190 606ZM356 606Q344 606 336 614T327 635Q327 648 335 657T356 666Q369 666 377
657T385 635Q385 623 377 615T356 606ZM273 -12Q176 -12 122 59T68 256T125 452T273 523Q359 523 408 457T458 256V245H107Q114 24 276 24Q343 24 396 67L417 41Q355 -12 273 -12ZM107 278H420Q419 394 375 442T273 490Q202 490 158 438T107 278Z" />
<glyph unicode="&#xec;" glyph-name="igrave" horiz-adv-x="248" d="M153 576L-16 732H39L190 576H153ZM106 0V511H142V0H106Z" />
<glyph unicode="&#xed;" glyph-name="iacute" horiz-adv-x="248" d="M58 576L209 732H264L95 576H58ZM106 0V511H142V0H106Z" />
<glyph unicode="&#xee;" glyph-name="icircumflex" horiz-adv-x="248" d="M252 576L122 696L-8 576H-45L106 732H138L289 576H252ZM106 0V511H142V0H106Z" />
<glyph unicode="&#xef;" glyph-name="idieresis" horiz-adv-x="248" d="M41 606Q29 606 21 614T12 635Q12 648 20 657T41 666Q54 666 62 657T70 635Q70 623 62 615T41 606ZM207 606Q195 606 187 614T178 635Q178 648 186 657T207 666Q220 666 228 657T236 635Q236
623 228 615T207 606ZM106 0V511H142V0H106Z" />
<glyph unicode="&#xf0;" glyph-name="eth" horiz-adv-x="540" d="M269 -12Q178 -12 123 53T68 221Q68 326 125 391T269 456Q333 456 376 422T433 335Q417 523 300 613L228 537L206 559L272 631Q215 667 142 677V712Q230 697 297 657L362 727L385 705L323 639Q472
523 472 267Q472 132 419 60T269 -12ZM269 24Q344 24 387 79T431 220Q431 305 386 362T269 420Q199 420 153 364T107 221Q107 135 151 80T269 24Z" />
<glyph unicode="&#xf1;" glyph-name="ntilde" horiz-adv-x="552" d="M365 602Q331 602 278 642T199 683Q150 683 147 606H120Q120 656 142 686T206 716Q240 716 293 676T372 635Q421 635 424 712H451Q451 662 429 632T365 602ZM418 0V319Q418 489 287 489Q139
489 139 297V0H103V511H139V419Q158 472 201 497T290 523Q454 523 454 312V0H418Z" />
<glyph unicode="&#xf2;" glyph-name="ograve" horiz-adv-x="540" d="M277 576L108 732H163L314 576H277ZM362 -12T270 -12T123 58T68 255Q68 380 123 451T270 523T417 453T472 256Q472 131 417 60ZM270 24Q348 24 390 85T433 256T391 426T270 487T149 428T107
255Q107 145 149 85T270 24Z" />
<glyph unicode="&#xf3;" glyph-name="oacute" horiz-adv-x="540" d="M209 576L360 732H415L246 576H209ZM362 -12T270 -12T123 58T68 255Q68 380 123 451T270 523T417 453T472 256Q472 131 417 60ZM270 24Q348 24 390 85T433 256T391 426T270 487T149 428T107
255Q107 145 149 85T270 24Z" />
<glyph unicode="&#xf4;" glyph-name="ocircumflex" horiz-adv-x="540" d="M399 576L269 696L139 576H102L253 732H285L436 576H399ZM362 -12T270 -12T123 58T68 255Q68 380 123 451T270 523T417 453T472 256Q472 131 417 60ZM270 24Q348 24 390 85T433 256T391
426T270 487T149 428T107 255Q107 145 149 85T270 24Z" />
<glyph unicode="&#xf5;" glyph-name="otilde" horiz-adv-x="540" d="M348 602Q314 602 261 642T182 683Q133 683 130 606H103Q103 656 125 686T189 716Q223 716 276 676T355 635Q404 635 407 712H434Q434 662 412 632T348 602ZM362 -12T270 -12T123 58T68 255Q68
380 123 451T270 523T417 453T472 256Q472 131 417 60ZM270 24Q348 24 390 85T433 256T391 426T270 487T149 428T107 255Q107 145 149 85T270 24Z" />
<glyph unicode="&#xf6;" glyph-name="odieresis" horiz-adv-x="540" d="M187 606Q175 606 167 614T158 635Q158 648 166 657T187 666Q200 666 208 657T216 635Q216 623 208 615T187 606ZM353 606Q341 606 333 614T324 635Q324 648 332 657T353 666Q366 666 374
657T382 635Q382 623 374 615T353 606ZM362 -12T270 -12T123 58T68 255Q68 380 123 451T270 523T417 453T472 256Q472 131 417 60ZM270 24Q348 24 390 85T433 256T391 426T270 487T149 428T107 255Q107 145 149 85T270 24Z" />
<glyph unicode="&#xf7;" glyph-name="divide" horiz-adv-x="656" d="M325 520Q313 520 305 528T296 549Q296 562 304 571T325 580Q338 580 346 571T354 549Q354 537 346 529T325 520ZM93 325V359H563V325H93ZM325 105Q313 105 305 113T296 134Q296 147 304 156T325
165Q338 165 346 156T354 134Q354 122 346 114T325 105Z" />
<glyph unicode="&#xf8;" glyph-name="oslash" horiz-adv-x="540" d="M477 523L423 445Q472 374 472 256Q472 131 417 60T270 -12Q193 -12 140 39L105 -12H63L117 66Q68 137 68 255Q68 380 123 451T270 523Q347 523 400 472L435 523H477ZM107 255Q107 158 140 99L379
442Q337 487 270 487Q191 487 149 428T107 255ZM433 256Q433 354 400 412L161 69Q203 24 270 24Q348 24 390 85T433 256Z" />
<glyph unicode="&#xf9;" glyph-name="ugrave" horiz-adv-x="552" d="M286 576L117 732H172L323 576H286ZM413 0V86Q369 -12 263 -12Q98 -12 98 199V511H134V191Q134 21 265 21Q413 21 413 214V511H449V0H413Z" />
<glyph unicode="&#xfa;" glyph-name="uacute" horiz-adv-x="552" d="M207 576L358 732H413L244 576H207ZM413 0V86Q369 -12 263 -12Q98 -12 98 199V511H134V191Q134 21 265 21Q413 21 413 214V511H449V0H413Z" />
<glyph unicode="&#xfb;" glyph-name="ucircumflex" horiz-adv-x="552" d="M397 576L267 696L137 576H100L251 732H283L434 576H397ZM413 0V86Q369 -12 263 -12Q98 -12 98 199V511H134V191Q134 21 265 21Q413 21 413 214V511H449V0H413Z" />
<glyph unicode="&#xfc;" glyph-name="udieresis" horiz-adv-x="552" d="M185 606Q173 606 165 614T156 635Q156 648 164 657T185 666Q198 666 206 657T214 635Q214 623 206 615T185 606ZM351 606Q339 606 331 614T322 635Q322 648 330 657T351 666Q364 666 372
657T380 635Q380 623 372 615T351 606ZM413 0V86Q369 -12 263 -12Q98 -12 98 199V511H134V191Q134 21 265 21Q413 21 413 214V511H449V0H413Z" />
<glyph unicode="&#xfd;" glyph-name="yacute" horiz-adv-x="510" d="M196 576L347 732H402L233 576H196ZM161 -194L237 12L53 511H89L237 108L255 57L273 108L421 511H457L197 -194H161Z" />
<glyph unicode="&#xfe;" glyph-name="thorn" horiz-adv-x="558" d="M288 -12Q241 -12 201 14T139 84V-185L103 -203V704L139 722V437Q192 523 296 523Q385 523 437 451T490 256Q490 128 436 58T288 -12ZM288 24Q366 24 408 84T451 256Q451 362 408 424T288 487Q242
487 203 461T139 389V134Q164 82 203 53T288 24Z" />
<glyph unicode="&#xff;" glyph-name="ydieresis" horiz-adv-x="510" d="M174 606Q162 606 154 614T145 635Q145 648 153 657T174 666Q187 666 195 657T203 635Q203 623 195 615T174 606ZM340 606Q328 606 320 614T311 635Q311 648 319 657T340 666Q353 666 361
657T369 635Q369 623 361 615T340 606ZM161 -194L237 12L53 511H89L237 108L255 57L273 108L421 511H457L197 -194H161Z" />
<glyph unicode="&#x2013;" glyph-name="endash" horiz-adv-x="521" d="M70 269V305H451V269H70Z" />
<glyph unicode="&#x2014;" glyph-name="emdash" horiz-adv-x="601" d="M8 269V305H593V269H8Z" />
<glyph unicode="&#x2018;" glyph-name="quoteleft" horiz-adv-x="202" d="M101 525Q68 525 68 571Q68 611 84 651T121 712L130 709Q98 661 98 585Q112 585 121 577T130 556T122 534T101 525Z" />
<glyph unicode="&#x2019;" glyph-name="quoteright" horiz-adv-x="202" d="M72 528Q104 576 104 652Q90 652 81 660T72 681T80 703T101 712Q134 712 134 666Q134 626 118 586T81 525L72 528Z" />
<glyph unicode="&#x201a;" glyph-name="quotesinglbase" horiz-adv-x="202" d="M72 -138Q104 -90 104 -14Q90 -14 81 -6T72 15T80 37T101 46Q134 46 134 0Q134 -40 118 -80T81 -141L72 -138Z" />
<glyph unicode="&#x201c;" glyph-name="quotedblleft" horiz-adv-x="378" d="M101 525Q68 525 68 571Q68 611 84 651T121 712L130 709Q98 661 98 585Q112 585 121 577T130 556T122 534T101 525ZM277 525Q244 525 244 571Q244 611 260 651T297 712L306 709Q274
661 274 585Q288 585 297 577T306 556T298 534T277 525Z" />
<glyph unicode="&#x201d;" glyph-name="quotedblright" horiz-adv-x="378" d="M72 528Q104 576 104 652Q90 652 81 660T72 681T80 703T101 712Q134 712 134 666Q134 626 118 586T81 525L72 528ZM248 528Q280 576 280 652Q266 652 257 660T248 681T256 703T277
712Q310 712 310 666Q310 626 294 586T257 525L248 528Z" />
<glyph unicode="&#x201e;" glyph-name="quotedblbase" horiz-adv-x="378" d="M72 -138Q104 -90 104 -14Q90 -14 81 -6T72 15T80 37T101 46Q134 46 134 0Q134 -40 118 -80T81 -141L72 -138ZM248 -138Q280 -90 280 -14Q266 -14 257 -6T248 15T256 37T277 46Q310
46 310 0Q310 -40 294 -80T257 -141L248 -138Z" />
<glyph unicode="&#x2022;" glyph-name="bullet" horiz-adv-x="412" d="M243 264T206 264T144 289T118 351T143 412T206 438T268 413T294 351T269 290Z" />
<glyph unicode="&#x2039;" glyph-name="guilsinglleft" horiz-adv-x="281" d="M203 0L51 256L203 511H245L93 256L245 0H203Z" />
<glyph unicode="&#x203a;" glyph-name="guilsinglright" horiz-adv-x="281" d="M36 0L188 256L36 511H78L230 256L78 0H36Z" />
</font>
</defs>
</svg>
