<?xml version="1.0" standalone="no"?>
<!DOCTYPE svg PUBLIC "-//W3C//DTD SVG 1.1//EN" "http://www.w3.org/Graphics/SVG/1.1/DTD/svg11.dtd">
<svg xmlns="http://www.w3.org/2000/svg">
<defs >
<font id="CinzelDecorative" horiz-adv-x="687" ><font-face
    font-family="Cinzel Decorative Black"
    units-per-em="1000"
    panose-1="0 0 10 0 0 0 0 0 0 0"
    ascent="976"
    descent="-372"
    alphabetic="0" />
<glyph unicode=" " glyph-name="space" horiz-adv-x="250" />
<glyph unicode="!" glyph-name="exclam" horiz-adv-x="295" d="M227 363L182 230H112L67 363L45 702H250L227 363ZM183 -14T146 -14T82 12T55 76T81 139T145 166T209 140T235 76T209 13Z" />
<glyph unicode="&quot;" glyph-name="quotedbl" horiz-adv-x="394" d="M30 505Q64 590 64 643Q64 669 59 700L191 714Q191 710 191 699T185 661T165 602T119 541T47 500L30 505ZM204 505Q238 590 238 643Q238 669 233 700L364 714Q364 710 364 699T359 661T338
602T293 541T221 500L204 505Z" />
<glyph unicode="#" glyph-name="numbersign" horiz-adv-x="600" d="M546 437H428L400 277H502V217H389L351 0H289L327 217H189L151 0H89L127 217H20V277H138L166 437H64V497H177L212 700H274L239 497H377L412 700H474L439 497H546V437ZM338 277L366 437H228L200 277H338Z" />
<glyph unicode="$" glyph-name="dollar" horiz-adv-x="615" d="M596 113T521 54T321 -13L314 -102L266 -99L273 -14Q192 -13 132 5T44 51Q35 73 35 98T39 148Q50 207 76 240H85Q84 234 84 227Q84 159 135 102T277 37L294 264L174 320Q105 351 74 407Q49 451 49
504Q49 612 122 668Q183 714 284 714Q301 714 328 713L334 788L382 787L376 710Q418 707 453 704H531L509 541H499Q499 616 426 648Q402 658 373 662L357 457L480 400Q596 347 596 230ZM204 545T225 526T293 487L310 478L324 664Q252 659 221 621Q204 600 204 573ZM341
243L325 37Q382 42 412 69T443 131T419 191T341 243Z" />
<glyph unicode="%" glyph-name="percent" horiz-adv-x="777" d="M363 642Q379 610 379 582T377 537Q368 454 313 408T172 361T48 410Q20 447 20 505Q20 614 89 670Q144 714 229 714H230Q232 714 249 714T294 707T336 691Q381 665 419 665Q461 665 523 698Q539
706 544 709L583 692L211 -19L166 0L512 653Q475 629 437 629T363 642ZM156 401T181 401T224 437T247 522T253 598Q253 674 225 674T177 611Q156 543 156 472ZM450 295Q505 339 586 339T703 296T739 187Q739 86 679 36T533 -14T409 35Q381 72 381 129Q381 238 450
295ZM510 94Q510 26 537 26Q561 26 578 61T602 146T608 223Q608 299 579 299Q558 299 542 263T518 175T510 94Z" />
<glyph unicode="&amp;" glyph-name="ampersand" horiz-adv-x="918" d="M1219 -130Q1043 -199 860 -141Q768 -111 692 -51L594 26Q508 -10 413 -10Q315 -10 218 17Q84 55 41 142Q25 175 25 214T39 284T77 338Q123 380 184 397Q141 467 141 524T164 618T228 675Q306
714 410 714Q481 714 541 697T625 643L578 480H569Q567 664 453 664Q408 664 380 636T351 560T392 462T509 347T709 179Q819 298 819 446Q819 485 808 536T751 654T627 780L634 786Q735 717 792 629Q858 525 858 414Q858 259 755 141Q763 134 792 109T839 67T892
24T949 -19T1007 -54T1072 -85Q1147 -112 1218 -119L1219 -130ZM246 317Q238 291 238 271Q238 104 372 61Q406 50 448 50T541 68L367 205Q293 264 246 317Z" />
<glyph unicode="&apos;" glyph-name="quotesingle" horiz-adv-x="220" d="M30 505Q64 590 64 643Q64 669 59 700L191 714Q191 710 191 699T185 661T165 602T119 541T47 500L30 505Z" />
<glyph unicode="(" glyph-name="parenleft" horiz-adv-x="478" d="M290 354Q290 19 447 -91L441 -100Q351 -79 283 -35T173 67Q90 183 90 334Q90 495 173 601Q261 712 443 732L449 724Q290 648 290 354Z" />
<glyph unicode=")" glyph-name="parenright" horiz-adv-x="478" d="M32 -91Q189 19 189 354Q189 648 30 724L36 732Q218 712 305 601Q389 495 389 334Q389 183 306 67Q264 9 196 -35T38 -100L32 -91Z" />
<glyph unicode="*" glyph-name="asterisk" horiz-adv-x="390" d="M202 605L269 574L328 516L293 474L242 454L204 527L195 600L187 527L150 454L99 474L64 516L122 574L188 605L116 591L35 604L38 658L68 704L141 667L191 614L156 678L142 759L195 773L248 759L236
678L200 613L250 667L323 705L353 659L356 604L274 591L202 605Z" />
<glyph unicode="+" glyph-name="plus" horiz-adv-x="481" d="M442 342V277H273V109H208V277H40V342H208V511H273V342H442Z" />
<glyph unicode="," glyph-name="comma" horiz-adv-x="260" d="M41 -116Q71 -103 82 -73Q86 -61 86 -52Q86 -20 61 9T35 76Q35 125 68 149Q90 166 111 166Q184 166 210 108Q225 71 225 35T209 -34Q175 -104 113 -125Q92 -132 75 -132T45 -129L41 -116Z" />
<glyph unicode="-" glyph-name="hyphen" horiz-adv-x="380" d="M30 292L40 332H340L350 292L340 251H40L30 292Z" />
<glyph unicode="." glyph-name="period" horiz-adv-x="250" d="M162 -14T125 -14T62 12T35 76T61 139T125 166T188 140T215 76T189 13Z" />
<glyph unicode="/" glyph-name="slash" horiz-adv-x="439" d="M10 14L371 723L430 696L69 -14L10 14Z" />
<glyph unicode="0" glyph-name="zero" horiz-adv-x="700" d="M204 614T350 614T578 531T660 300T578 69T350 -14Q253 -14 184 23T77 131T40 300Q40 448 122 531ZM397 564T350 564T277 494T250 321T262 158Q286 36 350 36Q397 36 423 106T450 300T424 494Z" />
<glyph unicode="1" glyph-name="one" horiz-adv-x="406" d="M46 10Q69 10 85 26T101 64V537Q101 567 74 583Q61 590 46 590H25V600H382L381 590H361Q329 590 313 564Q306 552 305 537V63Q305 33 333 17Q346 10 361 10H381L382 0H25V10H46Z" />
<glyph unicode="2" glyph-name="two" horiz-adv-x="658" d="M72 597T144 616T294 635T437 614T540 550T578 451Q578 406 547 357Q530 329 470 281Q433 251 363 215T287 176H477Q521 176 554 199T614 273H624L556 0H36V9Q69 48 123 106T213 204T287 293Q363 391
363 474Q363 529 331 558T250 588Q176 588 142 536T107 392H97L30 563Q72 597 144 616Z" />
<glyph unicode="3" glyph-name="three" horiz-adv-x="602" d="M279 612Q399 612 466 567T533 440Q533 347 454 309Q428 296 398 295Q491 277 536 205Q562 163 562 100Q562 15 511 -49Q415 -170 222 -170Q124 -170 39 -132L41 -122Q46 -122 52 -122Q127 -122 194
-95T304 -11T347 116Q347 216 264 260Q219 283 162 284L164 294Q167 294 170 294Q236 294 282 340T328 448Q328 514 287 542Q259 563 220 563Q149 563 120 510Q97 467 97 385Q97 377 97 368H87L30 541Q69 573 134 592T279 612Z" />
<glyph unicode="4" glyph-name="four" horiz-adv-x="643" d="M511 89V-37Q511 -67 539 -83Q551 -90 566 -90H577V-100H239L240 -90H250Q273 -90 289 -75T306 -38V89H-15V99L501 614H511V194H554Q580 194 594 203T619 234H629L598 89H511ZM306 194V341L154 194H306Z" />
<glyph unicode="5" glyph-name="five" horiz-adv-x="592" d="M152 324Q223 340 276 340T369 329Q456 305 498 246T541 108Q541 40 512 -12T439 -97Q336 -173 195 -173Q89 -173 10 -131L12 -121Q16 -121 30 -121T79 -116T155 -96T233 -59T294 -2Q322 38 322 86T289
167Q253 201 192 201T59 174L50 180L133 564L431 589Q485 589 510 639H520L478 432L171 407L152 324Z" />
<glyph unicode="6" glyph-name="six" horiz-adv-x="675" d="M309 400T334 419T388 445T435 452Q489 452 522 436T581 394Q635 341 635 240Q635 128 563 58Q487 -15 336 -15Q40 -15 40 315Q40 533 168 647Q273 741 461 741Q508 741 559 734L563 727Q473 699 434
676T373 637T335 600T307 561T288 516T276 469T268 415Q265 365 265 305T265 217T268 156T275 107T289 73Q304 45 336 45T386 58T414 98Q430 144 430 221T417 332Q399 381 353 381Q330 381 305 365L298 373Q309 400 334 419Z" />
<glyph unicode="7" glyph-name="seven" horiz-adv-x="572" d="M90 425Q61 425 44 411T15 365H5L33 598H563L435 303Q406 237 363 108T298 -100H128Q177 -20 252 115T358 314L410 425H90Z" />
<glyph unicode="8" glyph-name="eight" horiz-adv-x="636" d="M611 200Q611 97 527 42T298 -14Q96 -14 42 87Q25 119 25 159Q25 226 64 266T160 326Q68 398 68 500T137 658T311 714T489 666T562 544Q562 493 525 459T430 410Q547 349 578 306Q611 260 611 200ZM273
663T253 640T233 578T261 512T372 441Q396 486 396 547Q396 601 373 631Q349 663 311 663ZM322 35Q361 35 394 58T427 117T393 185T294 249T217 289Q194 248 194 184T223 81Q257 35 322 35Z" />
<glyph unicode="9" glyph-name="nine" horiz-adv-x="675" d="M366 196T341 177T287 151T240 144Q186 144 153 160T94 202Q40 255 40 357Q40 468 112 538Q188 611 339 611Q635 611 635 281Q635 63 506 -51Q402 -144 214 -144Q167 -144 116 -138L112 -131Q202 -103
241 -80T302 -41T340 -4T368 35T387 80T399 127T406 181Q410 231 410 281T410 349T409 391T407 429T404 461T399 489T392 510T383 528T370 541Q357 551 332 551T289 538T261 498Q245 452 245 376T258 264Q277 215 322 215Q345 215 370 231L377 223Q366 196 341
177Z" />
<glyph unicode=":" glyph-name="colon" horiz-adv-x="250" d="M162 369T125 369T62 395T35 458T61 522T125 549T188 523T215 459T189 395ZM162 -14T125 -14T62 12T35 76T61 139T125 166T188 140T215 76T189 13Z" />
<glyph unicode=";" glyph-name="semicolon" horiz-adv-x="260" d="M162 397T125 397T62 423T35 487T61 551T125 577T188 551T215 488T189 424ZM41 -116Q71 -103 82 -73Q86 -61 86 -52Q86 -20 61 9T35 76Q35 125 68 149Q90 166 111 166Q184 166 210 108Q225 71
225 35T209 -34Q175 -104 113 -125Q92 -132 75 -132T45 -129L41 -116Z" />
<glyph unicode="&lt;" glyph-name="less" horiz-adv-x="501" d="M442 526V455L133 310L442 164V93L40 280V339L442 526Z" />
<glyph unicode="=" glyph-name="equal" horiz-adv-x="481" d="M40 354V419H442V354H40ZM40 179V244H442V179H40Z" />
<glyph unicode="&gt;" glyph-name="greater" horiz-adv-x="481" d="M40 526L442 339V280L40 93V164L349 310L40 455V526Z" />
<glyph unicode="?" glyph-name="question" horiz-adv-x="493" d="M248 539Q248 664 157 664Q60 664 60 510H50L0 625Q23 665 81 689T221 714Q338 714 400 668T463 537Q463 479 431 438T316 337Q264 299 258 278Q250 251 265 221L256 215Q191 232 166 281Q155 302
155 317T156 347T169 379T193 412T219 442Q248 478 248 539ZM315 39T289 13T226 -14T162 12T135 76T161 139T225 166T289 140T315 76Z" />
<glyph unicode="@" glyph-name="at" horiz-adv-x="998" d="M84 114Q20 169 20 267Q20 325 47 395Q88 495 177 568T385 673Q463 694 525 694Q778 694 891 563Q974 466 974 327Q974 162 875 42T607 -115Q558 -126 503 -126Q371 -126 208 -63L204 -53Q311 -97 406
-97Q532 -97 631 -34Q713 20 762 113Q820 220 820 341T776 535Q726 619 625 642Q586 649 564 649T537 649Q450 647 355 582Q262 518 202 390Q150 282 150 199Q150 156 166 138T200 118T231 122T257 135T281 155T305 179T327 207T349 236Q374 272 389 291L516 464Q562
521 571 541H577L661 137Q670 90 701 90H706L704 83H466L467 90H474Q489 90 502 102T516 123T515 137L507 190H371Q323 128 286 101Q246 73 189 73T84 114ZM483 346L398 225H502L483 346Z" />
<glyph unicode="A" glyph-name="A" horiz-adv-x="702" d="M978 -171Q901 -216 821 -216T670 -186T530 -82T417 100L390 166H176L136 73Q131 60 131 52T134 35T149 18T174 10H183V0H-40V10H-31Q-8 10 14 23T52 64L256 512Q226 595 207 623T174 667Q150 695 114
708Q100 713 81 713T38 704L36 714Q116 761 189 761Q297 761 384 655Q428 600 463 522L623 155Q667 54 688 20T725 -39T758 -82T793 -117Q826 -147 876 -162Q897 -169 922 -169T976 -161L978 -171ZM198 216H370L307 371Q299 389 288 422L198 216Z" />
<glyph unicode="B" glyph-name="B" horiz-adv-x="755" d="M401 -16Q-10 -16 -10 321Q-10 350 -7 380L3 381Q3 195 126 103V628Q125 655 106 672T62 690H49V700H357Q527 700 607 623Q650 581 650 522Q650 457 607 413Q588 392 564 383Q569 383 574 383Q642 383
699 336T756 209T699 76Q602 -16 401 -16ZM435 486V516Q432 581 409 613T331 649V38Q421 39 471 86T521 211Q521 296 474 334T365 372V381Q386 381 400 392T422 421Q435 458 435 486Z" />
<glyph unicode="C" glyph-name="C" horiz-adv-x="830" d="M815 402Q821 362 821 317T809 224Q771 73 628 14Q560 -14 478 -14Q253 -14 132 84T10 348T136 614T478 714Q628 714 736 668L726 477H717Q665 664 483 664Q362 664 296 583T230 357T299 127T498 36Q641
36 724 128T807 378Q807 390 807 402H815Z" />
<glyph unicode="D" glyph-name="D" horiz-adv-x="878" d="M445 0H66V10H79Q105 10 123 28T143 73V644Q38 633 -16 585Q-62 544 -90 480L-100 484Q-80 592 3 646T213 700H445Q633 700 738 608T844 350T738 93T445 0ZM348 50H425Q425 50 425 50Q518 50 571 129T624
350T571 570T425 650L348 648V50Z" />
<glyph unicode="E" glyph-name="E" horiz-adv-x="712" d="M43 10Q69 10 87 28T107 73V627Q106 659 80 678Q64 690 43 690H30V700H363Q406 700 439 707T482 718V512H472V520Q472 579 439 613T347 649H312V370H451Q499 371 529 401T559 480V484H569V206H559V211Q559
258 529 288T452 320H312V51H495Q568 51 624 99T703 232H713L675 0H30V10H43Z" />
<glyph unicode="F" glyph-name="F" horiz-adv-x="709" d="M312 320V73Q312 47 331 29T376 10H389V0H30V10H43Q69 10 87 28T107 73V627Q106 654 88 672T43 690H30V700H473Q504 700 540 706T592 718V512H582V520Q582 579 549 613T457 649H312V370H581Q629 371 659
401T689 480V484H699V206H689V211Q689 258 659 288T582 320H312Z" />
<glyph unicode="G" glyph-name="G" horiz-adv-x="872" d="M947 -212Q923 -212 899 -209Q799 -193 726 -134T617 13Q530 -14 434 -14Q245 -14 128 86T10 351T130 614T446 714Q559 714 666 691Q714 681 744 669L734 477H725Q701 571 631 617T460 664T295 576T230
344Q230 253 258 183T338 75T453 36T553 65T590 143V279Q591 301 578 313T539 325H524V335H860V325H844Q820 325 807 313T795 279V117Q795 59 818 2Q870 -124 984 -160Q1017 -170 1050 -170T1115 -163L1117 -173Q1027 -212 947 -212Z" />
<glyph unicode="H" glyph-name="H" horiz-adv-x="893" d="M515 10Q542 10 560 28T580 73V325H312V70Q312 -29 264 -106Q214 -187 105 -199Q94 -201 81 -201Q34 -201 -24 -182V-172Q56 -141 82 -86Q100 -49 103 -19Q107 20 107 70V628Q106 654 88 672T43 690H30V700H389V690H376Q340
690 322 660Q313 646 312 629V375H580V610Q580 667 604 720T672 811Q741 872 836 872Q873 872 914 862V852Q866 837 832 803Q811 783 795 731Q787 705 786 672T785 610V73Q785 38 816 19Q831 10 849 10H861V0H503V10H515Z" />
<glyph unicode="I" glyph-name="I" horiz-adv-x="498" d="M456 10H469V0H110V10H123Q149 10 167 28T187 73V650L100 647Q16 644 10 585Q10 582 10 579Q10 551 29 534T77 517Q83 517 89 517V511Q67 499 46 499T2 512Q-40 537 -40 586Q-40 632 -4 662T109 696Q120
697 179 699T282 702Q406 708 469 720L471 710Q415 701 400 662Q393 643 392 614V73Q392 47 411 29T456 10Z" />
<glyph unicode="J" glyph-name="J" horiz-adv-x="424" d="M381 690Q345 690 326 659Q318 645 317 627V80Q317 0 292 -67T216 -177Q165 -220 92 -220T-75 -170L-73 -161Q-57 -164 -41 -164T-4 -160T37 -142T70 -106T92 -62T104 -12Q112 32 112 83V627Q111 653 93
671T48 690H35V700H394V690H381Z" />
<glyph unicode="K" glyph-name="K" horiz-adv-x="822" d="M43 10Q69 10 87 28T107 73V628Q106 654 88 672T43 690H30V700H389V690H376Q350 690 332 672T312 628V73Q312 47 331 29T376 10H389V0H30V10H43ZM1105 -177Q1006 -233 914 -233Q784 -233 659 -103Q613
-55 564 13L344 318L583 644Q590 654 590 662T587 676Q580 691 559 691H549V700H790V691H786Q719 691 676 642L505 435L734 113Q843 -40 921 -99T1103 -166L1105 -177Z" />
<glyph unicode="L" glyph-name="L" horiz-adv-x="445" d="M914 -133Q1039 -133 1087 -90L1095 -97Q1051 -192 969 -238Q918 -266 819 -266Q809 -266 785 -265T706 -249T614 -221T521 -182Q451 -149 387 -116T294 -67T232 -39T144 -13T30 0V10H43Q79 10 98 41Q106
55 107 73V627Q106 664 74 682Q60 690 43 690H30V700H389V690H380Q351 690 332 672T312 627V45Q312 -2 350 -14Q737 -133 914 -133Z" />
<glyph unicode="M" glyph-name="M" horiz-adv-x="993" d="M-115 746Q-44 784 24 784T150 755Q264 696 345 562L524 271L821 714H830L943 129Q977 -51 1044 -121Q1097 -176 1179 -176Q1186 -176 1194 -176V-186Q1132 -212 1065 -212Q932 -212 834 -108Q752 -22
719 135L673 346L502 92Q485 68 472 34T460 -24H451L208 392L158 56V52Q158 36 169 23T197 9H212V0H-7V10H9Q36 10 56 26T82 71L151 500Q100 589 38 658Q-33 736 -104 736Q-108 736 -112 736L-115 746Z" />
<glyph unicode="N" glyph-name="N" horiz-adv-x="881" d="M1141 -135Q1080 -173 1009 -173Q947 -173 880 -136Q811 -99 745 -31L306 423V71Q306 45 324 28T367 10H386V0H20V10H39Q64 10 82 27T100 71V637Q-54 801 -170 801Q-199 801 -226 791L-231 800Q-175 840
-110 840Q-67 840 -23 824T55 786Q117 745 165 696L576 271V629Q575 655 557 672T514 690H495V700H861V690H843Q818 690 800 673T781 630V59L799 40Q799 40 822 15T854 -18T889 -49T931 -82T975 -107T1026 -127Q1052 -133 1081 -133T1137 -125L1141 -135Z" />
<glyph unicode="O" glyph-name="O" horiz-adv-x="931" d="M367 433Q336 485 336 543Q336 623 396 673Q432 704 485 714Q517 719 536 719T578 719T642 705T725 674T800 623T863 553Q921 471 921 355Q921 187 797 87T467 -14T136 87T10 353Q10 489 94 586T315 707L321
697Q280 654 256 570T231 387Q231 228 295 132T465 36T636 123T700 355Q700 447 675 520T604 629T509 665Q444 665 409 626Q368 581 368 514Q368 476 379 433H367Z" />
<glyph unicode="P" glyph-name="P" horiz-adv-x="760" d="M112 600Q111 658 54 658Q49 658 36 657L34 666Q118 672 237 692T386 715T443 718Q523 718 569 704T651 666T707 603Q730 559 730 510T717 422T680 357Q608 275 496 275Q457 275 425 287Q366 309 349 365L359
371Q373 351 405 351Q454 351 492 409Q515 446 515 507Q515 592 472 633Q440 664 391 664Q379 664 366 662L317 655V73Q318 47 336 29T381 10H394V0H35V10H48Q74 10 92 28T112 73V600Z" />
<glyph unicode="Q" glyph-name="Q" horiz-adv-x="929" d="M1299 -298Q1264 -301 1209 -301T1052 -284T847 -224T389 -14V-4Q499 -4 589 70Q633 107 663 170Q698 246 698 343Q698 459 648 551Q620 601 573 633Q520 670 450 670Q355 670 288 591T220 351Q220 240
258 169Q300 90 389 90Q429 90 458 107Q513 138 520 216L531 217Q532 205 532 181T520 125Q490 43 373 43Q342 43 303 50Q174 74 90 157T5 366Q5 439 37 504Q103 640 272 693Q356 719 457 719Q662 719 787 618T912 357Q912 283 884 218T806 105Q705 7 564 -18Q739
-38 902 -69T1100 -107T1195 -123Q1295 -139 1360 -139T1456 -133Q1532 -119 1573 -84L1580 -87Q1554 -180 1479 -234T1299 -298Z" />
<glyph unicode="R" glyph-name="R" horiz-adv-x="783" d="M721 504Q721 450 692 405T620 341T537 322Q525 322 514 323Q577 310 629 245Q653 216 683 171T725 108Q785 22 845 -32Q973 -148 1174 -160V-170Q1119 -209 1036 -226Q987 -236 939 -236T836 -222T730
-180T625 -99T537 9T478 115T431 215T403 275Q374 335 351 342V352H367Q432 352 474 403Q498 432 502 463T506 504Q506 579 462 613T362 648H318V73Q318 47 337 29T382 10H394V0H35V10H48Q74 10 92 28T112 72V627Q111 664 80 682Q65 690 48 690H36V700H426Q575
700 652 648Q721 601 721 504Z" />
<glyph unicode="S" glyph-name="S" horiz-adv-x="671" d="M647 170Q647 127 628 79T567 -11T459 -78T315 -104T175 -79Q59 -33 24 82Q15 113 15 140Q15 227 68 303L77 296Q44 237 44 182Q44 114 78 62T169 -19T285 -48T386 -29T446 22T465 89T440 160T366 224L203
320Q79 393 79 508Q79 611 151 667Q211 714 314 714Q380 714 482 704H560L539 541H529Q529 596 486 630T376 664T273 641T234 580Q231 554 248 536Q263 520 278 512T305 496T322 487L509 380Q572 345 607 293Q647 234 647 170Z" />
<glyph unicode="T" glyph-name="T" horiz-adv-x="750" d="M-4 444Q-65 498 -65 560Q-65 618 -18 658Q32 701 112 701H623Q654 701 690 707T741 719V513L731 514V521Q731 602 671 635Q642 650 602 651H504V72Q505 46 523 28T568 10H581V0H222V10H235Q261 10 279
28T299 71V651H112Q56 651 19 624Q-24 593 -24 547T7 449L-4 444Z" />
<glyph unicode="U" glyph-name="U" horiz-adv-x="852" d="M930 923Q944 923 958 921V911Q868 900 822 826T776 630V257Q774 125 692 56T447 -14T192 58T99 250Q99 253 99 256V641Q99 662 84 676T46 690H30V700H373V690H357Q326 690 311 666Q305 655 304 643V260Q304
156 356 97T496 37Q497 37 497 37T499 37Q582 37 635 92T689 247V630Q689 754 761 843Q795 884 840 903T930 923Z" />
<glyph unicode="V" glyph-name="V" horiz-adv-x="720" d="M724 866T760 894T842 936T917 950T966 947V937Q904 933 858 904Q807 871 786 843T752 799T728 760Q709 726 696 697L435 125Q382 13 378 -24H369L52 635Q21 690 -32 690H-40V700H339V690H330Q309 690
299 677T288 651T292 627L435 284L615 697Q645 766 684 816Z" />
<glyph unicode="W" glyph-name="W" horiz-adv-x="964" d="M1072 939Q1115 948 1144 948T1198 945V935Q995 920 926 694L740 89Q726 40 726 -22H716L486 412L300 32Q271 -29 244 -62T196 -115T154 -149Q97 -185 52 -185Q28 -185 1 -180V-170Q68 -158 119 -105Q172
-49 195 -7Q227 51 247 95L44 633Q30 662 7 676T-42 690H-50V700H309V690H300Q270 690 260 662Q259 656 259 648T263 628L372 356L545 716L554 715L752 349L848 694Q872 781 925 845Q988 921 1072 939Z" />
<glyph unicode="X" glyph-name="X" horiz-adv-x="773" d="M796 10H810V0H406V10H419Q440 10 453 31Q459 41 459 51T453 72L323 271L128 0Q16 -155 -122 -155Q-148 -155 -174 -150V-140Q-97 -131 -52 -94Q-28 -74 -12 -55T31 0L279 339L88 632Q71 656 44 673T-13
690H-27V700H375V690H363Q341 690 329 669Q322 659 322 649T329 628L442 455L604 700Q651 770 720 820Q786 868 863 868Q876 868 888 866V856Q830 855 780 801Q742 760 701 700L489 383L695 68Q718 34 756 18Q776 10 796 10Z" />
<glyph unicode="Y" glyph-name="Y" horiz-adv-x="699" d="M-29 761Q117 761 230 693Q363 612 418 461Q458 579 545 670Q587 713 634 736T726 760Q733 760 740 759V749Q694 747 644 701T554 588T487 449T451 322V73Q451 37 482 19Q497 10 515 10H527L528 0H169V10H182Q208
10 226 28T246 73V322Q224 427 170 531Q140 588 104 634T18 712T-85 749V759Q-56 761 -29 761Z" />
<glyph unicode="Z" glyph-name="Z" horiz-adv-x="659" d="M575 -70T651 -89T811 -125T963 -141T1087 -120L1095 -127Q1044 -189 981 -220Q915 -253 851 -253T716 -238T578 -193T435 -131T295 -68Q144 0 35 0V9L367 651H187Q106 650 74 590Q59 561 59 521V513H49V719Q64
713 101 707T154 701T170 701H515Q545 701 578 705T621 714V705L263 9Q344 -9 459 -39Z" />
<glyph unicode="[" glyph-name="bracketleft" horiz-adv-x="472" d="M120 -90V722H429V712L325 662V-30L432 -80V-90H120Z" />
<glyph unicode="\" glyph-name="backslash" horiz-adv-x="439" d="M10 696L69 723L430 14L371 -14L10 696Z" />
<glyph unicode="]" glyph-name="bracketright" horiz-adv-x="362" d="M43 722H352V-90H40V-80L147 -30V662L43 712V722Z" />
<glyph unicode="^" glyph-name="asciicircum" horiz-adv-x="572" d="M253 381H321L538 172H449L287 325L124 172H35L253 381Z" />
<glyph unicode="_" glyph-name="underscore" horiz-adv-x="500" d="M0 -110V-60H500V-110H0Z" />
<glyph unicode="`" glyph-name="grave" horiz-adv-x="600" d="M294 750L287 743Q234 749 169 776T54 836Q75 909 139 936Q182 899 228 847T294 750Z" />
<glyph unicode="a" glyph-name="a" horiz-adv-x="720" d="M752 10H760V0H381V10H390Q412 10 423 23T434 48T429 73L390 166H176L136 73Q131 60 131 52T134 35T149 18T174 10H183V0H-40V10H-31Q-8 10 14 23T52 64L285 575Q338 687 342 724H351L668 65Q700 10 752
10ZM198 216H369L285 416L198 216Z" />
<glyph unicode="b" glyph-name="b" horiz-adv-x="730" d="M394 0H30V10H43Q79 10 98 41Q106 55 107 72V628Q106 664 75 682Q60 690 43 690H30V700H378Q656 700 656 526Q656 425 574 391Q551 382 525 381Q602 377 654 329T707 200Q707 100 622 50T394 0ZM326 52Q391
52 431 91T472 209T440 329T346 370V379Q441 379 441 514T325 650Q325 650 325 650H312V52H325Q326 52 326 52Z" />
<glyph unicode="c" glyph-name="c" horiz-adv-x="793" d="M35 351Q35 464 87 546T237 671T479 714T730 668L720 477H711Q682 578 627 621T490 664Q379 664 317 582T255 354T312 123T472 36Q590 36 643 92Q693 144 721 292H729L753 110Q679 -14 474 -14T152 82T35 351Z" />
<glyph unicode="d" glyph-name="d" horiz-adv-x="842" d="M597 700T702 608T808 350T703 93T409 0H30V10H43Q69 10 87 28T107 73V633Q107 657 88 673T43 690H31L30 700H409Q597 700 702 608ZM312 650V50H389Q482 50 535 129T588 350T535 570T389 650H312Z" />
<glyph unicode="e" glyph-name="e" horiz-adv-x="666" d="M43 10Q69 10 87 28T107 73V627Q106 659 80 678Q64 690 43 690H30V700H473Q516 700 549 707T592 718V512H582V520Q582 600 524 632Q496 648 457 649H312V370H421Q469 371 499 401T529 480V484H539V206H529V211Q529
258 499 288T422 320H312V51H435Q508 51 564 99T643 232H653L615 0H30V10H43Z" />
<glyph unicode="f" glyph-name="f" horiz-adv-x="631" d="M312 649V370H421Q469 371 499 401T529 479V484H539V206H529V211Q529 258 499 288T422 320H312V73Q312 47 331 29T376 10H389V0H30V10H43Q69 10 87 28T107 73V627Q106 653 88 671T43 690H30V700H473Q516
700 549 707T592 718V512H582V520Q582 600 524 632Q496 648 457 649H312Z" />
<glyph unicode="g" glyph-name="g" horiz-adv-x="861" d="M425 -14Q246 -14 141 83T35 351T141 618T435 714Q516 714 602 701T733 668L723 477H714Q662 664 485 664Q255 664 255 342Q255 196 302 116T447 36Q500 36 539 64T579 143L580 280Q580 302 567 313T529
325H513V335H849V325H834Q809 325 796 314T784 280V115Q728 44 581 6Q505 -14 425 -14Z" />
<glyph unicode="h" glyph-name="h" horiz-adv-x="893" d="M517 10Q543 10 561 28T581 72V325H312V73Q313 36 344 18Q359 10 376 10H389V0H30V10H43Q69 10 87 28T107 73V628Q106 654 88 672T43 690H30V700H389V690H376Q350 690 332 672T312 628V375H581V628Q580
654 562 672T517 690H504V700H863V690H850Q814 690 795 659Q787 644 786 627V73Q787 47 805 29T850 10H863V0H504V10H517Z" />
<glyph unicode="i" glyph-name="i" horiz-adv-x="418" d="M43 10Q69 10 87 28T107 73V628Q106 654 88 672T43 690H30V700H389V690H376Q350 690 332 672T312 628V73Q312 47 331 29T376 10H389V0H30V10H43Z" />
<glyph unicode="j" glyph-name="j" horiz-adv-x="424" d="M381 690Q345 690 326 659Q318 645 317 627V50Q317 -32 271 -94T150 -183Q97 -203 40 -203Q18 -203 -5 -200V-191Q112 -138 112 53V627Q111 653 93 671T48 690H35V700H394V690H381Z" />
<glyph unicode="k" glyph-name="k" horiz-adv-x="821" d="M43 10Q69 10 87 28T107 73V628Q106 654 88 672T43 690H30V700H389V690H376Q350 690 332 672T312 628V73Q312 47 331 29T376 10H389V0H30V10H43ZM848 0H740Q556 0 483 100Q453 140 399 228T344 318L583
644Q590 654 590 662T587 676Q580 691 559 691H549V700H790V691H786Q719 691 676 642L507 438L741 86Q790 12 848 10V0Z" />
<glyph unicode="l" glyph-name="l" horiz-adv-x="652" d="M43 10Q69 10 87 28T107 73V627Q106 664 75 682Q60 690 43 690H30V700H389V690H376Q350 690 331 672T312 627V51H435Q508 51 564 99T643 232H653L615 0H30V10H43Z" />
<glyph unicode="m" glyph-name="m" horiz-adv-x="968" d="M978 10H994V0H639V9H655Q671 9 683 22T694 52L656 344L486 92Q469 68 456 34T444 -24H435L175 335L140 52Q138 36 150 23T179 9H195V0H-25V10H-9Q19 10 39 27T64 73L152 714H161L497 255L805 714H814L905
73Q910 44 930 27T978 10Z" />
<glyph unicode="n" glyph-name="n" horiz-adv-x="881" d="M843 690Q818 690 800 673T781 630V114Q781 40 791 0L794 -14H785L306 412V71Q306 35 337 18Q351 10 367 10H386V0H20V10H39Q64 10 82 27T100 71V590Q100 660 90 701L87 715H97L576 289V629Q575 655 557
672T514 690H495V700H861V690H843Z" />
<glyph unicode="o" glyph-name="o" horiz-adv-x="900" d="M450 714Q579 714 672 671T816 546T866 350Q866 179 755 83T450 -14T146 82T35 350T145 617T450 714ZM359 36T450 36T593 119T645 350T594 581T451 664T308 581T256 350T307 119Z" />
<glyph unicode="p" glyph-name="p" horiz-adv-x="707" d="M693 495Q693 449 675 406T621 334Q558 283 487 283Q415 283 351 329V339Q387 345 405 358T435 383Q460 410 468 446T477 497Q477 576 443 613T352 650H317V73Q318 47 336 29T381 10H394V0H35V10H48Q84
10 103 41Q112 56 112 73V632Q112 656 93 673T48 690H36L35 700H416Q553 700 626 643Q693 592 693 495Z" />
<glyph unicode="q" glyph-name="q" horiz-adv-x="912" d="M1269 -264Q1197 -306 1093 -306Q1057 -306 985 -290T843 -235T715 -155T621 -86T540 -37T453 -14Q260 -13 150 83T40 350T150 617T455 714Q584 714 677 671T821 546T871 350Q871 178 760 82Q706 35 629
11Q713 -3 776 -24T921 -76Q1056 -125 1170 -125T1369 -64L1376 -67Q1376 -131 1349 -182T1269 -264ZM261 498T261 350T312 119T455 36T598 119T650 350T599 581T456 664T313 581Z" />
<glyph unicode="r" glyph-name="r" horiz-adv-x="792" d="M675 590Q691 555 691 518T683 452T658 395Q621 335 531 321Q570 310 601 282Q634 254 663 204Q738 76 778 39Q808 11 854 10V0H729Q599 0 543 29Q463 70 429 170Q420 199 414 231T403 277T392 304T379
324Q367 336 351 342V352H367Q425 352 454 405Q469 433 472 465T476 506T476 516Q469 648 362 648H318V73Q318 47 337 29T382 10H394V0H35V10H48Q74 10 92 28T112 72V627Q111 664 80 682Q65 690 48 690H35V700H426Q622 700 675 590Z" />
<glyph unicode="s" glyph-name="s" horiz-adv-x="645" d="M606 105T520 46T291 -14Q208 -14 145 4T54 51Q45 73 45 98T49 148Q60 207 86 240H95Q94 234 94 227Q94 153 152 95T312 36Q380 36 416 64T453 129T428 192T347 244L184 320Q115 351 84 407Q59 451 59
504Q59 612 132 668Q193 714 294 714Q360 714 463 704H541L519 541H509Q509 596 466 630T357 664T254 641T214 580Q210 533 274 500Q285 494 303 487L490 400Q606 347 606 226Z" />
<glyph unicode="t" glyph-name="t" horiz-adv-x="698" d="M452 651V72Q453 46 471 28T516 10H529V0H170V10H183Q209 10 227 28T247 71V651H148Q88 650 54 616T20 521V514L10 513V719Q24 713 60 707T128 701H571Q602 701 638 707T689 719V513L679 514V521Q679 602
619 635Q590 650 550 651H452Z" />
<glyph unicode="u" glyph-name="u" horiz-adv-x="845" d="M825 690H809Q788 690 773 677T756 643V257Q756 130 678 58T457 -14Q277 -14 188 56T99 256V640Q99 662 84 676T46 690H30V700H373V690H357Q335 690 320 677T304 642V260Q304 155 352 96T486 37T620 92T669
247V642Q668 663 653 676T616 690H600V700H825V690Z" />
<glyph unicode="v" glyph-name="v" horiz-adv-x="720" d="M760 690H751Q699 690 668 636L435 125Q382 13 378 -24H369L52 635Q21 690 -32 690H-40V700H339V690H330Q309 690 299 677T288 651T292 627L435 284L584 627Q590 640 590 651T579 676T546 690H537V700H760V690Z" />
<glyph unicode="w" glyph-name="w" horiz-adv-x="964" d="M1004 690H996Q961 690 933 666Q917 652 910 633L740 89Q738 81 735 68L728 37Q725 15 725 1T726 -22H716L485 413L327 89Q301 33 300 -22H291L44 633Q30 662 7 676T-42 690H-50V700H309V690H300Q270 690
260 662Q259 656 259 648T263 628L372 356L545 716L554 715L753 347L833 628Q835 639 835 647T832 666T819 683T795 690H786V700H1004V690Z" />
<glyph unicode="x" glyph-name="x" horiz-adv-x="773" d="M419 10Q440 10 453 31Q459 41 459 51T453 72L321 273L179 72Q162 42 189 20Q201 10 214 10H227V0H-33V10H-19Q35 10 80 67L279 339L88 632Q71 656 44 673T-13 690H-27V700H375V690H363Q341 690 329 669Q322
659 322 649T328 628L445 451L558 628Q574 658 548 680Q537 690 523 690H511L510 700H769V690H755Q697 690 656 632L489 383L695 68Q711 44 738 27T796 10H810V0H406V10H419Z" />
<glyph unicode="y" glyph-name="y" horiz-adv-x="729" d="M775 690H761Q731 690 704 673T660 631L464 322V73Q464 47 482 29T528 10H540V0H182V10H195Q221 10 239 28T259 72V322L68 633Q43 672 -1 685Q-16 690 -31 690H-45V700H341V690H329Q307 690 295 670Q288
659 288 649T294 628L431 381L573 628Q579 638 579 648T572 669Q559 690 538 690H526V700H775V690Z" />
<glyph unicode="z" glyph-name="z" horiz-adv-x="667" d="M49 719Q64 713 101 707T154 701T170 701H515Q557 701 586 706T621 714V705L285 50H426Q499 50 555 98T634 232H644L606 0H35V9L367 651H187Q127 650 93 616T59 521V513H49V719Z" />
<glyph unicode="{" glyph-name="braceleft" horiz-adv-x="445" d="M16 339T0 458Q0 458 8 461Q17 405 50 383Q68 371 84 371T118 380T145 413T155 461L149 564Q149 567 149 570Q149 625 165 671T211 745Q275 809 364 809Q441 809 496 768L491 761Q459 769 442
769T413 766Q384 756 374 735Q368 723 364 707T356 609Q350 454 292 398Q230 339 121 339Q16 339 0 458ZM491 -131L496 -138Q441 -179 364 -179Q275 -179 211 -115Q182 -87 166 -41T149 59L154 158Q154 174 152 192Q148 234 116 250Q101 259 85 259T50 247Q17 225
8 168L0 171Q5 208 18 233T48 270T85 286T115 291T125 291Q234 287 292 232Q319 206 334 163T352 81T356 17T357 -25T361 -61T369 -94T383 -118T406 -134T441 -138T491 -131Z" />
<glyph unicode="|" glyph-name="bar" horiz-adv-x="265" d="M100 -180V700H165V-180H100Z" />
<glyph unicode="}" glyph-name="braceright" horiz-adv-x="445" d="M292 472Q292 456 294 438Q298 396 329 379Q345 371 361 371T396 383Q428 405 438 461L446 458Q437 395 408 369Q394 357 377 348T322 339Q215 339 153 398Q127 423 112 466T93 552T88 659Q87
694 77 724Q55 787 -45 761L-50 768Q5 809 82 809Q170 809 235 745Q263 717 280 671T297 570L292 472ZM446 171L438 168Q433 197 421 218Q398 259 357 259Q326 259 304 226Q292 207 292 158L297 59Q297 5 280 -41T235 -115Q170 -179 82 -179Q5 -179 -50 -138L-45
-131Q-16 -138 5 -138T39 -134Q64 -127 79 -88Q86 -71 89 16Q95 176 153 232Q216 291 324 291Q430 291 446 171Z" />
<glyph unicode="~" glyph-name="asciitilde" horiz-adv-x="494" d="M461 363Q467 336 467 319T464 282T441 242Q404 204 346 204Q307 204 257 238Q235 252 215 267Q164 303 138 303T99 281Q92 268 92 250T97 209H32Q27 232 27 253Q27 296 50 324Q85 368 142 368Q166
368 197 353T253 319Q321 269 350 269T395 292Q403 304 403 321T393 363H461Z" />
<glyph unicode="&#xa1;" glyph-name="exclamdown" horiz-adv-x="295" d="M112 716T149 716T213 690T240 626T214 562T150 536T86 562T60 625T86 689ZM68 339L113 472H183L228 339L250 0H45L68 339Z" />
<glyph unicode="&#xa2;" glyph-name="cent" horiz-adv-x="578" d="M176 88T96 158T15 353T106 547T361 617L368 701L415 700L408 615Q488 608 542 586L531 439H525Q491 555 405 571L368 121Q423 123 445 137T478 163T498 198Q514 234 528 304H534L557 166Q507
81 364 78L357 -9L311 -6L318 79Q176 88 96 158ZM322 125L358 573Q201 566 202 351Q201 154 322 125Z" />
<glyph unicode="&#xa3;" glyph-name="sterling" horiz-adv-x="620" d="M571 24Q525 3 468 -3T384 -10Q337 -10 258 7T159 24T130 24T83 11T40 -10H30V0Q86 110 102 205Q110 258 112 319H30L48 375H112Q112 381 112 387Q112 698 388 714Q403 715 438 715T520 701T591
657L543 515H533Q530 594 506 629T429 664Q325 664 317 527Q315 496 315 459T317 375H498L477 319H319Q318 198 279 144Q245 97 183 79Q194 82 204 82T228 82T256 79T296 73Q341 67 367 67T423 72T489 95Q562 131 606 219H616L571 24Z" />
<glyph unicode="&#xa4;" glyph-name="currency" horiz-adv-x="541" d="M410 193Q350 139 270 139T130 191L71 132L50 154L109 212Q56 272 56 352T110 493L50 553L71 574L131 514Q191 565 270 565T409 513L470 574L492 553L430 492Q482 432 482 353T431 214L492
154L470 132L410 193ZM194 169T269 169T398 222T452 352T399 481T270 535T140 482T86 352T140 223Z" />
<glyph unicode="&#xa5;" glyph-name="yen" horiz-adv-x="729" d="M775 690H761Q731 690 704 673T660 631L529 425H623V375H497L464 322V315H623V265H464V73Q464 47 482 29T528 10H540V0H182V10H195Q221 10 239 28T259 72V265H97V315H259V322L226 375H97V425H196L68
633Q43 672 -1 685Q-16 690 -31 690H-45V700H341V690H329Q307 690 295 670Q288 659 288 649T294 628L431 381L573 628Q579 638 579 648T572 669Q559 690 538 690H526V700H775V690Z" />
<glyph unicode="&#xa6;" glyph-name="brokenbar" horiz-adv-x="265" d="M100 350V700H165V350H100ZM100 -180V170H165V-180H100Z" />
<glyph unicode="&#xa7;" glyph-name="section" horiz-adv-x="536" d="M331 716Q415 716 461 678Q488 654 488 633T474 591Q454 559 427 559Q410 559 385 577T344 612Q311 646 279 655Q275 656 268 656T247 647T234 623T241 593T261 560T292 524T325 488T359 455Q433
380 469 301Q512 206 512 125Q512 12 447 -65Q410 -108 352 -133T229 -159T117 -141Q44 -113 44 -65Q44 -50 53 -32Q75 4 104 4Q123 4 151 -15T197 -51Q235 -86 269 -95Q273 -96 281 -96T302 -86T315 -60T296 -18T220 63T145 136Q93 187 64 245Q26 319 26 399Q26
545 137 644Q217 716 331 716ZM145 583Q119 526 119 468Q119 430 148 375Q164 343 193 313T250 254T295 207T337 156T374 99Q397 51 397 5Q397 -8 395 -21Q418 26 418 77Q418 156 322 264Q308 279 279 310T236 357T202 398T174 439Q151 488 148 518T145 564T145
583Z" />
<glyph unicode="&#xa8;" glyph-name="dieresis" horiz-adv-x="600" d="M180 665T150 665T98 687T76 739T97 791T149 813T201 792T223 740T202 687ZM442 665T412 665T360 687T338 739T359 791T411 813T463 792T485 740T464 687Z" />
<glyph unicode="&#xa9;" glyph-name="copyright" horiz-adv-x="848" d="M273 714T424 714T681 608T788 350T682 93T424 -14T167 92T60 350T166 607ZM736 479T645 570T424 662T204 571T112 350T203 130T424 38T644 129T736 350Q736 479 645 570ZM321 265T353 217T449
169T555 209T610 326H616L639 218Q561 127 434 127Q326 128 256 191T185 350T256 509T436 573Q482 573 532 562T617 530L611 410H605Q553 532 442 532Q385 532 353 484T321 351Z" />
<glyph unicode="&#xaa;" glyph-name="ordfeminine" horiz-adv-x="390" d="M391 381H395V377H190V381H195Q205 381 211 388T215 406L199 439H99L84 409Q78 397 85 389T103 381H108V377H-5V381H-1Q25 381 40 404L155 635Q183 698 185 710H189L351 404Q367 381 391
381ZM111 465H186L149 542L111 465Z" />
<glyph unicode="&#xab;" glyph-name="guillemotleft" horiz-adv-x="551" d="M283 485Q258 440 238 402T195 292Q220 210 284 95L275 88Q174 206 40 292Q112 336 168 380T275 490L283 485ZM491 485Q466 440 446 402T403 292Q428 210 492 95L483 88Q382 206 248
292Q320 336 376 380T483 490L491 485Z" />
<glyph unicode="&#xac;" glyph-name="logicalnot" horiz-adv-x="600" d="M40 407H562V195H497V342H40V407Z" />
<glyph unicode="&#xad;" glyph-name="softhyphen" horiz-adv-x="380" d="M30 292L40 332H340L350 292L340 251H40L30 292Z" />
<glyph unicode="&#xae;" glyph-name="registered" horiz-adv-x="245" d="M76 701T123 701T203 668T236 588T203 508T123 475T43 508T10 588T43 668ZM84 499T122 499T186 524T212 588T187 651T123 677T59 652T34 588T59 525ZM170 617Q170 588 139 584Q150 582 164
559T190 532V530H171Q155 530 149 534T140 540T134 548T129 556T124 566Q115 588 112 588V590H122Q139 591 138 616T117 640H107V543Q107 532 117 532H120V530H63V532H65Q75 532 76 542V637Q75 648 65 648H63V650H126Q156 650 166 631Q170 625 170 617Z" />
<glyph unicode="&#xaf;" glyph-name="overscore" horiz-adv-x="600" d="M150 703V788H440V703H150Z" />
<glyph unicode="&#xb0;" glyph-name="degree" horiz-adv-x="237" d="M78 664T118 664T188 636T217 566T188 496T119 467T49 496T20 566T49 635ZM135 606T119 606T90 595T78 566T90 538T118 526T147 537T159 566T147 594Z" />
<glyph unicode="&#xb1;" glyph-name="plusminus" horiz-adv-x="481" d="M273 412H442V347H273V179H208V347H40V412H208V581H273V412ZM40 50V115H442V50H40Z" />
<glyph unicode="&#xb2;" glyph-name="twosuperior" horiz-adv-x="419" d="M156 687Q85 687 85 559H79L30 674Q84 719 193 719Q295 719 341 667Q364 642 364 610T349 549T308 498Q261 456 212 434H305Q356 434 384 496H389L348 308H38V313Q50 330 73 361T109 409T141
454T170 500T192 542Q212 585 212 620T196 671T156 687Z" />
<glyph unicode="&#xb3;" glyph-name="threesuperior" horiz-adv-x="373" d="M168 714Q297 714 320 646Q325 632 325 617Q325 581 305 563T254 543Q343 524 343 435Q343 383 311 347Q260 290 163 290Q87 290 27 323L28 328Q32 328 35 328Q101 328 148 358T196 440T166
514T100 538L101 543Q103 543 106 543Q140 543 163 568T186 625Q186 663 162 676Q148 684 136 684Q90 684 76 652Q65 627 65 576Q65 571 65 565H60L20 676Q70 714 168 714Z" />
<glyph unicode="&#xb4;" glyph-name="acute" horiz-adv-x="600" d="M211 743L204 750Q223 794 269 846T358 936Q422 909 444 836Q394 803 329 776T211 743Z" />
<glyph unicode="&#xb6;" glyph-name="paragraph" horiz-adv-x="540" d="M432 147Q432 92 414 51T364 -13L355 -5Q380 37 381 85Q382 100 382 145V650H299V0Q299 -91 256 -149Q232 -182 193 -199L186 -190Q227 -148 237 -115T247 -47T246 0V333Q161 333 106 383T50
516T106 649T246 700H428Q428 700 435 700T444 700T452 700T463 702T473 705T485 710T497 718Q509 726 523 743L530 737Q523 695 480 667Q458 653 432 651V147Z" />
<glyph unicode="&#xb7;" glyph-name="middot" horiz-adv-x="250" d="M89 411T125 411T195 386T245 321Q229 282 195 257T125 231T55 256T5 321Q21 360 55 385ZM145 368Q135 372 120 372T86 358T57 321Q71 287 105 274Q115 270 130 270T164 284T193 321Q179 355 145 368Z" />
<glyph unicode="&#xb8;" glyph-name="cedilla" horiz-adv-x="600" d="M284 -48Q298 -43 308 -43T328 -43T359 -48T391 -69T403 -96Q403 -142 371 -169Q330 -205 271 -205Q244 -205 214 -196L215 -186Q252 -186 285 -166T319 -105Q319 -89 303 -77Q287 -66 264
-66T222 -72L217 -62L265 1H327L284 -48Z" />
<glyph unicode="&#xb9;" glyph-name="onesuperior" horiz-adv-x="292" d="M262 314V308H34V314H45Q58 314 66 322T75 343V632Q75 649 68 662T34 675H30V680Q62 681 123 690T216 715H221V343Q221 331 230 323T251 314H262Z" />
<glyph unicode="&#xba;" glyph-name="ordmasculine" horiz-adv-x="400" d="M20 624T66 667T200 710T334 667T380 544T334 420T200 377T66 420T20 543ZM200 403Q231 403 245 438T259 525T256 603T246 647Q232 684 200 684Q140 684 140 544T200 403Z" />
<glyph unicode="&#xbb;" glyph-name="guillemotright" horiz-adv-x="551" d="M268 95Q293 140 313 179T357 292Q332 371 269 485L277 490Q312 445 356 406T432 343T512 292Q377 206 277 88L268 95ZM60 95Q80 130 87 143Q126 216 149 292Q139 322 127 356T61 485L69
490Q119 425 175 381T304 292Q169 206 69 88L60 95Z" />
<glyph unicode="&#xbc;" glyph-name="onequarter" horiz-adv-x="769" d="M597 723L644 691L167 -20L119 11L597 723ZM65 632Q65 675 24 675H20V680Q52 681 113 690T206 715H211V343Q211 331 220 323T241 314H253V308H24V314H35Q48 314 56 322T65 343V632ZM667
92V38Q667 25 677 16T700 6H707V0H483V6H490Q503 6 513 15T523 37V92H329V98L661 408H667V164H693Q722 164 734 192H740L719 92H667ZM523 165V231L448 165H523Z" />
<glyph unicode="&#xbd;" glyph-name="onehalf" horiz-adv-x="850" d="M575 723L622 691L145 -20L97 11L575 723ZM24 675H20V680Q52 681 113 690T206 715H211V343Q211 331 220 323T241 314H252V308H24V314H35Q48 314 56 322T65 343V632Q65 675 24 675ZM577 380Q506
380 505 251H500L451 366Q505 412 614 412Q687 412 736 382T785 299Q785 221 680 152Q656 137 633 126H726Q777 126 805 188H810L769 0H459V5Q471 21 500 60T542 117T576 168T608 221Q633 277 633 312T617 364T577 380Z" />
<glyph unicode="&#xbe;" glyph-name="threequarters" horiz-adv-x="839" d="M666 723L713 691L236 -20L188 11L666 723ZM250 714T289 689T329 623T309 563T259 543Q348 524 348 435Q348 383 316 347Q264 290 167 290Q92 290 32 323L33 328Q36 328 40 328Q106 328
153 358T201 440T171 514T105 538L106 543Q108 543 110 543Q145 543 167 568T190 625Q190 663 167 676Q152 684 141 684Q95 684 80 652Q70 627 70 576Q70 571 70 565H64L25 676Q75 714 162 714ZM747 92V38Q747 20 764 10Q771 6 780 6H787V0H563V6H570Q583 6 592
15T603 37V92H409V98L741 409H747V165H773Q802 165 814 192H820L799 92H747ZM603 165V231L528 165H603Z" />
<glyph unicode="&#xbf;" glyph-name="questiondown" horiz-adv-x="523" d="M178 661T204 687T267 714T331 688T358 624T332 561T268 534T204 560T178 624Q178 661 204 687ZM245 161Q245 36 336 36Q433 36 433 190H443L493 75Q470 35 412 11T272 -14Q155 -14 93
32T30 163Q30 221 62 262T177 363Q229 401 235 422Q243 449 228 479L237 485Q302 468 327 419Q338 398 338 383T337 353T324 321T300 288T274 258Q245 222 245 161Z" />
<glyph unicode="&#xc0;" glyph-name="Agrave" horiz-adv-x="702" d="M356 791L349 784Q296 790 231 817T116 877Q137 950 201 977Q244 940 290 888T356 791ZM978 -171Q901 -216 821 -216T670 -186T530 -82T417 100L390 166H176L136 73Q131 60 131 52T134 35T149
18T174 10H183V0H-40V10H-31Q-8 10 14 23T52 64L256 512Q226 595 207 623T174 667Q150 695 114 708Q100 713 81 713T38 704L36 714Q115 761 190 761Q263 761 328 711Q407 650 463 522L623 155Q667 54 688 20T725 -39T758 -82T793 -117Q826 -147 876 -162Q897 -169
922 -169T976 -161L978 -171ZM198 216H370L307 371Q299 389 288 422L198 216Z" />
<glyph unicode="&#xc1;" glyph-name="Aacute" horiz-adv-x="702" d="M312 781L305 788Q324 832 370 884T460 974Q524 947 545 874Q495 841 430 814T312 781ZM978 -171Q901 -216 821 -216T670 -186T530 -82T417 100L390 166H176L136 73Q131 60 131 52T134 35T149
18T174 10H183V0H-40V10H-31Q-8 10 14 23T52 64L256 512Q226 595 207 623T174 667Q150 695 114 708Q100 713 81 713T38 704L36 714Q115 761 190 761Q263 761 328 711Q407 650 463 522L623 155Q667 54 688 20T725 -39T758 -82T793 -117Q826 -147 876 -162Q897 -169
922 -169T976 -161L978 -171ZM198 216H370L307 371Q299 389 288 422L198 216Z" />
<glyph unicode="&#xc2;" glyph-name="Acircumflex" horiz-adv-x="702" d="M322 952H333L512 776L505 768L327 833L160 768L153 776L322 952ZM978 -171Q901 -216 821 -216T670 -186T530 -82T417 100L390 166H176L136 73Q131 60 131 52T134 35T149 18T175 10H183V0H-40V10H-31Q-8
10 14 23T52 64L256 512Q226 595 207 623T174 667Q150 695 114 708Q100 713 81 713T38 704L36 714Q116 761 189 761Q297 761 384 655Q428 600 463 522L623 155Q667 54 688 20T725 -39T758 -82T793 -117Q826 -147 876 -162Q897 -169 922 -169T976 -161L978 -171ZM198
216H370L307 371Q299 389 288 422L198 216Z" />
<glyph unicode="&#xc3;" glyph-name="Atilde" horiz-adv-x="702" d="M524 939H536Q542 922 542 903T534 864Q512 814 473 796Q449 784 418 784T337 809Q287 834 270 836T237 839T198 823T166 787H154Q150 801 150 816Q150 876 195 919Q226 949 263 949T355 922T454
895Q469 895 493 909T524 939ZM978 -171Q901 -216 821 -216T670 -186T530 -82T417 100L390 166H176L136 73Q130 60 130 49T141 24T174 10H183V0H-40V10H-31Q-8 10 14 23T52 64L256 512Q226 595 207 623T174 667Q150 695 114 708Q100 713 81 713T38 704L36 714Q115
761 190 761Q263 761 328 711Q407 650 463 522L623 155Q667 54 688 20T725 -39T758 -82T793 -117Q826 -147 876 -162Q897 -169 922 -169T976 -161L978 -171ZM198 216H370L307 371Q299 389 288 422L198 216Z" />
<glyph unicode="&#xc4;" glyph-name="Adieresis" horiz-adv-x="702" d="M224 775T194 775T142 797T120 849T141 901T193 923T246 902T268 850T246 797ZM487 775T457 775T405 797T383 849T404 901T456 923T508 902T530 850T509 797ZM978 -171Q901 -216 821 -216T670
-186T530 -82T417 100L390 166H176L136 73Q131 60 131 52T134 35T149 18T174 10H183V0H-40V10H-31Q-8 10 14 23T52 64L256 512Q226 595 207 623T174 667Q150 695 114 708Q100 713 81 713T38 704L36 714Q116 761 189 761Q297 761 384 655Q428 600 463 522L623 155Q667
54 688 20T725 -39T758 -82T793 -117Q826 -147 876 -162Q897 -169 922 -169T976 -161L978 -171ZM198 216H370L307 371Q299 389 288 422L198 216Z" />
<glyph unicode="&#xc5;" glyph-name="Aring" horiz-adv-x="702" d="M210 911T244 936T328 962T412 937T446 874T412 809T328 783T244 808T210 872ZM379 898T365 915T328 932T292 915T277 873T291 831T328 814T364 830T379 872ZM978 -171Q901 -216 821 -216T670
-186T530 -82T417 100L390 166H176L136 73Q131 60 131 52T134 35T149 18T174 10H183V0H-40V10H-31Q-8 10 14 23T52 64L256 512Q226 595 207 623T174 667Q150 695 114 708Q100 713 81 713T38 704L36 714Q115 761 190 761Q263 761 328 711Q407 650 463 522L623 155Q667
54 688 20T725 -39T758 -82T793 -117Q826 -147 876 -162Q897 -169 922 -169T976 -161L978 -171ZM198 216H370L307 371Q299 389 288 422L198 216Z" />
<glyph unicode="&#xc6;" glyph-name="AE" horiz-adv-x="941" d="M0 -12T-48 -52T-140 -104T-231 -116T-340 -91L-339 -81Q-321 -82 -303 -82T-262 -80T-201 -62Q-129 -34 -53 79L335 648Q342 663 334 675T310 688H305V700H591Q623 700 660 706T713 718V512H703V520Q703
579 670 613T576 649H541V367H683Q729 369 758 399T788 476V481H798V203H788V208Q788 254 759 284T685 317H541V51H724Q797 51 852 99T931 232H941L903 0H276L277 10H286Q306 10 320 24T336 58H337V317H200L40 55Q0 -12 -48 -52ZM337 367V542L231 367H337Z" />
<glyph unicode="&#xc7;" glyph-name="Ccedilla" horiz-adv-x="830" d="M815 402Q821 362 821 332T817 262T794 176T744 95T673 36Q592 -13 482 -14L445 -57Q459 -52 469 -52T489 -52T519 -57T552 -78T564 -105Q564 -151 532 -178Q490 -213 432 -213Q404 -213 375
-205L376 -195Q412 -195 446 -175T480 -114Q480 -98 463 -86Q433 -65 382 -81L377 -71L423 -12Q224 0 117 96T10 346Q10 515 136 614T478 714Q628 714 736 668L726 477H717Q665 664 483 664Q362 664 296 583T230 357T299 127T498 36Q641 36 724 128T807 378Q807
390 807 402H815Z" />
<glyph unicode="&#xc8;" glyph-name="Egrave" horiz-adv-x="712" d="M306 771L299 764Q246 770 181 797T66 857Q87 930 151 957Q213 904 253 853T306 771ZM43 10Q69 10 87 28T107 73V627Q106 664 75 682Q60 690 43 690H30V700H363Q394 700 430 706T482 718V512H472V520Q472
600 414 632Q386 648 347 649H312V370H451Q499 371 529 401T559 480V484H569V206H559V211Q559 258 529 288T452 320H312V51H495Q568 51 624 99T703 232H713L675 0H30V10H43Z" />
<glyph unicode="&#xc9;" glyph-name="Eacute" horiz-adv-x="712" d="M262 761L255 768Q274 812 320 864T410 954Q474 927 495 854Q445 821 380 794T262 761ZM43 10Q69 10 87 28T107 73V627Q106 653 88 671T43 690H30V700H363Q406 700 439 707T482 718V512H472V520Q472
600 414 632Q386 648 347 649H312V370H451Q499 371 529 401T559 480V484H569V206H559V211Q559 258 529 288T452 320H312V51H495Q568 51 624 99T703 232H713L675 0H30V10H43Z" />
<glyph unicode="&#xca;" glyph-name="Ecircumflex" horiz-adv-x="712" d="M272 932H284L462 756L455 748L277 813L110 748L103 756L272 932ZM43 10Q69 10 87 28T107 73V627Q106 653 88 671T43 690H30V700H363Q406 700 439 707T482 718V512H472V520Q472 600 414
632Q386 648 347 649H312V370H451Q499 371 529 401T559 480V484H569V206H559V211Q559 258 529 288T452 320H312V51H495Q568 51 624 99T703 232H713L675 0H30V10H43Z" />
<glyph unicode="&#xcb;" glyph-name="Edieresis" horiz-adv-x="712" d="M175 755T145 755T93 777T71 829T92 881T144 903T196 882T218 830T197 777ZM437 755T407 755T355 777T333 829T354 881T406 903T458 882T480 830T459 777ZM43 10Q69 10 87 28T107 73V627Q106
653 88 671T43 690H30V700H363Q394 700 430 706T482 718V512H472V520Q472 600 414 632Q386 648 347 649H312V370H451Q499 371 529 401T559 480V484H569V206H559V211Q559 258 529 288T452 320H312V51H495Q568 51 624 99T703 232H713L675 0H30V10H43Z" />
<glyph unicode="&#xcc;" glyph-name="Igrave" horiz-adv-x="498" d="M315 771L308 764Q256 770 191 797T75 857Q97 930 161 957Q204 920 250 868T315 771ZM456 10H469V0H110V10H123Q149 10 167 28T187 73V650L100 647Q16 644 10 585Q10 582 10 579Q10 551 29 534T77
517Q83 517 89 517V511Q67 499 46 499T2 512Q-40 537 -40 586Q-40 632 -4 662T109 696Q120 697 179 699T282 702Q406 708 469 720L471 710Q428 703 411 681T392 614V73Q393 47 411 29T456 10Z" />
<glyph unicode="&#xcd;" glyph-name="Iacute" horiz-adv-x="498" d="M271 761L264 768Q283 812 329 864T419 954Q483 927 504 854Q454 821 389 794T271 761ZM456 10H469V0H110V10H123Q149 10 167 28T187 73V650L100 647Q16 644 10 585Q10 582 10 579Q10 551 29
534T77 517Q83 517 89 517V511Q67 499 46 499T2 512Q-40 537 -40 586Q-40 632 -4 662T109 696Q120 697 179 699T282 702Q406 708 469 720L471 710Q428 703 411 681T392 614V73Q393 47 411 29T456 10Z" />
<glyph unicode="&#xce;" glyph-name="Icircumflex" horiz-adv-x="498" d="M281 932H293L471 756L464 748L287 813L119 748L112 756L281 932ZM456 10H469V0H110V10H123Q149 10 167 28T187 73V650L100 647Q16 644 10 585Q10 582 10 579Q10 551 29 534T77 517Q83
517 89 517V511Q67 499 46 499T2 512Q-40 537 -40 586Q-40 632 -4 662T109 696Q123 697 163 698T240 700T320 705Q415 710 469 720L471 710Q428 703 411 681T392 614V73Q392 47 411 29T456 10Z" />
<glyph unicode="&#xcf;" glyph-name="Idieresis" horiz-adv-x="498" d="M184 755T154 755T102 777T80 829T101 881T153 903T205 882T227 830T206 777ZM447 755T417 755T364 777T342 829T364 881T416 903T468 882T490 830T469 777ZM456 10H469V0H110V10H123Q149
10 167 28T187 73V650L100 647Q16 644 10 585Q10 582 10 579Q10 551 29 534T77 517Q83 517 89 517V511Q67 499 46 499T2 512Q-40 537 -40 586Q-40 632 -4 662T109 696Q120 697 179 699T282 702Q406 708 469 720L471 710Q415 701 400 662Q393 643 392 614V73Q392
47 411 29T456 10Z" />
<glyph unicode="&#xd0;" glyph-name="Eth" horiz-adv-x="878" d="M445 0H66V10H79Q105 10 123 28T143 73V325H66V375H143V644Q38 633 -16 585Q-62 544 -90 480L-100 484Q-80 592 3 646T213 700H445Q633 700 738 608T844 350T738 93T445 0ZM348 325V50H425Q425
50 425 50Q518 50 571 129T624 350T571 570T425 650L348 648V375H456V325H348Z" />
<glyph unicode="&#xd1;" glyph-name="Ntilde" horiz-adv-x="881" d="M597 919H609Q615 902 615 883T607 844Q585 794 546 776Q522 764 491 764T410 789Q360 814 343 816T310 819T271 803T239 767H227Q223 781 223 796Q223 856 268 899Q299 929 344 929Q369 929
393 918T447 894T494 878T527 875T566 889T597 919ZM1141 -135Q1080 -173 1009 -173Q947 -173 880 -136Q811 -99 745 -31L306 423V71Q306 36 337 18Q351 10 367 10H386V0H20V10H39Q64 10 82 27T100 71V637Q-54 801 -170 801Q-199 801 -226 791L-231 800Q-175 840
-105 840Q-44 840 29 801Q101 761 165 696L576 271V629Q575 655 557 672T514 690H495V700H861V690H843Q818 690 800 673T781 630V59L799 40Q799 40 822 15T854 -18T889 -49T931 -82T975 -107T1026 -127Q1052 -133 1081 -133T1137 -125L1141 -135Z" />
<glyph unicode="&#xd2;" glyph-name="Ograve" horiz-adv-x="931" d="M492 785L485 778Q433 784 368 811T252 871Q274 944 338 971Q399 918 439 867T492 785ZM367 433Q336 485 336 543Q336 623 396 673Q432 704 485 714Q518 719 538 719Q599 719 642 706T725 674T800
623T863 553Q921 471 921 355Q921 187 797 87T467 -14T136 87T10 353Q10 489 94 586T315 707L321 697Q280 654 256 570T231 387Q231 228 295 132T465 36T636 123T700 355Q700 447 675 520T604 629T508 665Q444 665 409 626Q368 581 368 514Q368 476 379 433H367Z"
/>
<glyph unicode="&#xd3;" glyph-name="Oacute" horiz-adv-x="931" d="M448 775L441 782Q468 844 557 931Q578 952 596 968Q660 941 681 868Q631 835 566 808T448 775ZM367 433Q336 485 336 543Q336 623 396 673Q432 704 485 714Q518 719 538 719Q599 719 642 706T725
674T800 623T863 553Q921 471 921 355Q921 187 797 87T467 -14T136 87T10 353Q10 489 94 586T315 707L321 697Q280 654 256 570T231 387Q231 228 295 132T468 36Q572 36 636 122Q700 209 700 355Q700 447 675 520T604 629T508 665Q444 665 409 626Q368 581 368
514Q368 476 379 433H367Z" />
<glyph unicode="&#xd4;" glyph-name="Ocircumflex" horiz-adv-x="931" d="M458 946H470L649 770L641 762L464 827L296 762L289 770L458 946ZM367 433Q336 485 336 543Q336 605 374 652T485 714Q518 719 538 719Q599 719 642 706T725 674T800 623T863 553Q921 471
921 355Q921 187 797 87T467 -14T136 87T10 353Q10 489 94 586T315 707L321 697Q280 654 256 570T231 387Q231 228 295 132T465 36T636 123T700 355Q700 447 675 520T604 629T508 665Q444 665 409 626Q368 581 368 514Q368 476 379 433H367Z" />
<glyph unicode="&#xd5;" glyph-name="Otilde" horiz-adv-x="931" d="M660 933H673Q679 916 679 897T670 858Q649 808 609 790Q585 778 558 778T503 789Q477 800 449 814T405 830T374 833T335 817T303 781H290Q287 795 287 810Q287 870 331 913Q362 943 399 943T491
916T591 889Q605 889 629 903T660 933ZM367 433Q336 485 336 543Q336 605 374 652T485 714Q518 719 538 719Q599 719 642 706T725 674T800 623T863 553Q921 471 921 355Q921 187 797 87T467 -14T136 87T10 353Q10 489 94 586T315 707L321 697Q280 654 256 570T231
387Q231 228 295 132T468 36Q572 36 636 122Q700 209 700 355Q700 447 675 520T604 629T508 665Q444 665 409 626Q368 581 368 514Q368 476 379 433H367Z" />
<glyph unicode="&#xd6;" glyph-name="Odieresis" horiz-adv-x="931" d="M361 769T331 769T279 791T257 843T278 895T330 917T382 896T404 844T383 791ZM624 769T594 769T541 791T519 843T541 895T593 917T645 896T667 844T646 791ZM367 433Q336 485 336 543Q336
623 396 673Q432 704 485 714Q518 719 538 719Q599 719 642 706T725 674T800 623T863 553Q921 471 921 355Q921 187 797 87T467 -14T136 87T10 353Q10 489 94 586T315 707L321 697Q280 654 256 570T231 387Q231 228 295 132T468 36Q572 36 636 122Q700 209 700
355Q700 447 675 520T604 629T508 665Q444 665 409 626Q368 581 368 514Q368 476 379 433H367Z" />
<glyph unicode="&#xd7;" glyph-name="multiply" horiz-adv-x="410" d="M370 429L251 310L370 191L324 145L205 264L86 145L40 191L159 310L40 429L86 475L205 356L324 475L370 429Z" />
<glyph unicode="&#xd8;" glyph-name="Oslash" horiz-adv-x="905" d="M352 433Q321 485 321 543Q321 623 381 673Q436 720 521 720T686 684L722 726L766 692L737 658Q841 594 883 485Q906 425 906 355Q906 187 782 87T452 -14Q311 -14 203 36L153 -23L109 13L153
64Q77 113 36 187T-5 353Q-5 489 79 586T300 707L306 697Q265 654 241 570T216 376T253 181L615 602Q565 665 494 665Q429 665 394 626Q353 581 353 514Q353 476 364 433H352ZM283 128Q347 36 452 36T621 123T685 355Q685 469 646 552L283 128Z" />
<glyph unicode="&#xd9;" glyph-name="Ugrave" horiz-adv-x="852" d="M527 771L520 764Q467 770 402 797T287 857Q308 930 372 957Q415 920 461 868T527 771ZM930 923Q944 923 958 921V911Q868 900 822 826T776 630V257Q774 125 692 56T447 -14T192 58T99 250Q99
253 99 256V641Q99 662 84 676T46 690H30V700H373V690H357Q322 690 308 660Q304 652 304 643V260Q304 156 356 97T496 37Q497 37 497 37T499 37Q582 37 635 92T689 247V630Q689 754 761 843Q795 884 840 903T930 923Z" />
<glyph unicode="&#xda;" glyph-name="Uacute" horiz-adv-x="852" d="M483 761L476 768Q495 812 541 864T631 954Q695 927 716 854Q666 821 601 794T483 761ZM930 923Q944 923 958 921V911Q868 900 822 826T776 630V257Q774 125 692 56T447 -14T192 58T99 250Q99
253 99 256V641Q99 662 84 676T46 690H30V700H373V690H357Q322 690 308 660Q304 652 304 643V260Q304 156 356 97T496 38Q497 38 497 38T499 38Q582 38 635 93T689 247V630Q689 754 761 843Q795 884 840 903T930 923Z" />
<glyph unicode="&#xdb;" glyph-name="Ucircumflex" horiz-adv-x="852" d="M493 932H505L683 756L676 748L498 813L331 748L324 756L493 932ZM930 923Q944 923 958 921V911Q868 900 822 826T776 630V257Q774 125 692 56T447 -14T192 58T99 250Q99 253 99 256V641Q99
662 84 676T46 690H30V700H373V690H357Q334 690 320 676T304 643V260Q304 156 356 97T496 37Q497 37 497 37T499 37Q582 37 635 92T689 247V630Q689 754 761 843Q795 884 840 903T930 923Z" />
<glyph unicode="&#xdc;" glyph-name="Udieresis" horiz-adv-x="852" d="M930 923Q944 923 958 921V911Q868 900 822 826T776 630V257Q774 125 692 56T447 -14T192 58T99 250Q99 253 99 256V641Q99 662 84 676T46 690H30V700H373V690H357Q326 690 311 666Q305 655
304 643V260Q304 156 356 97T496 37Q497 37 497 37T499 37Q582 37 635 92T689 247V630Q689 754 761 843Q795 884 840 903T930 923ZM396 756T366 756T313 777T291 829T313 881T365 903T417 882T439 830T418 778ZM658 756T628 756T576 777T554 829T575 881T627 903T679
882T701 830T680 778Z" />
<glyph unicode="&#xdd;" glyph-name="Yacute" horiz-adv-x="699" d="M348 761L341 768Q360 812 406 864T496 954Q560 927 581 854Q531 821 466 794T348 761ZM-29 761Q117 761 230 693Q363 612 418 461Q458 579 545 670Q587 713 634 736T726 760Q733 760 740 759V749Q694
747 644 701T554 588T487 449T451 322V73Q451 37 482 19Q497 10 515 10H527L528 0H169V10H182Q208 10 226 28T246 73V322Q224 427 170 531Q140 588 104 634T18 712T-85 749V759Q-56 761 -29 761Z" />
<glyph unicode="&#xde;" glyph-name="Thorn" horiz-adv-x="707" d="M693 353Q693 307 675 264T621 192Q558 141 487 141Q415 141 351 187V197Q387 203 405 216T435 241Q460 268 468 304T477 355Q477 434 443 471T352 508H325V73Q325 36 357 18Q371 10 389 10H401V0H43V10H55Q82
10 100 28T120 73V628Q119 654 101 672T56 690H43V700H401V690H389Q363 690 344 672T325 628V558H416Q582 558 650 479Q693 429 693 353Z" />
<glyph unicode="&#xdf;" glyph-name="germandbls" horiz-adv-x="1290" d="M606 105T520 46T291 -14Q208 -14 145 4T54 51Q45 73 45 98T49 148Q60 207 86 240H95Q94 234 94 227Q94 153 152 95T312 36Q380 36 416 64T453 129T428 192T347 244L184 320Q115 351 84
407Q59 451 59 504Q59 612 132 668Q193 714 294 714Q360 714 463 704H541L519 541H509Q509 596 466 630T357 664T254 641T214 580Q210 533 274 500Q285 494 303 487L490 400Q606 347 606 226ZM1251 105T1165 46T936 -14Q853 -14 790 4T699 51Q690 73 690 98T694
148Q705 207 731 240H740Q739 234 739 227Q739 153 797 95T957 36Q1025 36 1061 64T1098 129T1073 192T992 244L829 320Q760 351 729 407Q704 451 704 504Q704 612 777 668Q838 714 939 714Q1005 714 1108 704H1186L1164 541H1154Q1154 596 1111 630T1002 664T898
641Q859 615 859 573Q859 545 880 526T948 487L1135 400Q1251 347 1251 226Z" />
<glyph unicode="&#xe0;" glyph-name="agrave" horiz-adv-x="720" d="M377 771L370 764Q317 770 252 797T137 857Q158 930 222 957Q266 920 312 868T377 771ZM752 10H760V0H381V10H390Q412 10 423 23T434 48T429 73L390 166H176L136 73Q131 60 131 52T134 35T149
18T174 10H183V0H-40V10H-31Q-8 10 14 23T52 64L285 575Q338 687 342 724H351L668 65Q700 10 752 10ZM198 216H369L285 416L198 216Z" />
<glyph unicode="&#xe1;" glyph-name="aacute" horiz-adv-x="720" d="M333 761L326 768Q345 812 391 864T481 954Q545 927 566 854Q516 821 451 794T333 761ZM752 10H760V0H381V10H390Q412 10 423 23T434 48T429 73L390 166H176L136 73Q131 60 131 52T134 35T149
18T174 10H183V0H-40V10H-31Q-8 10 14 23T52 64L285 575Q338 687 342 724H351L668 65Q700 10 752 10ZM198 216H369L285 416L198 216Z" />
<glyph unicode="&#xe2;" glyph-name="acircumflex" horiz-adv-x="720" d="M343 932H355L533 756L526 748L348 813L181 748L174 756L343 932ZM752 10H760V0H381V10H390Q412 10 423 23T434 48T429 73L390 166H176L136 73Q131 60 131 52T134 35T149 18T174 10H183V0H-40V10H-31Q-8
10 14 23T52 64L285 575Q338 687 342 724H351L668 65Q700 10 752 10ZM198 216H369L285 416L198 216Z" />
<glyph unicode="&#xe3;" glyph-name="atilde" horiz-adv-x="720" d="M545 919H558Q564 902 564 883T555 844Q534 794 494 776Q470 764 439 764T358 789Q309 814 291 816T259 819T220 803T188 767H175Q172 781 172 796Q172 856 216 899Q247 929 284 929T376 902T475
875Q490 875 514 889T545 919ZM700 10T752 10H760V0H381V10H390Q412 10 423 23T434 48T429 73L390 166H176L136 73Q130 60 130 49T141 24T174 10H183V0H-40V10H-31Q-8 10 14 23T52 64L285 575Q338 687 342 724H351L668 65Q700 10 752 10ZM198 216H369L285 416L198
216Z" />
<glyph unicode="&#xe4;" glyph-name="adieresis" horiz-adv-x="720" d="M246 755T216 755T164 777T142 829T163 881T215 903T267 882T289 830T268 777ZM509 755T479 755T426 777T404 829T426 881T478 903T530 882T552 830T531 777ZM752 10H760V0H381V10H390Q412
10 423 23T434 48T429 73L390 166H176L136 73Q131 60 131 52T134 35T149 18T174 10H183V0H-40V10H-31Q-8 10 14 23T52 64L285 575Q338 687 342 724H351L668 65Q700 10 752 10ZM198 216H369L285 416L198 216Z" />
<glyph unicode="&#xe5;" glyph-name="aring" horiz-adv-x="720" d="M231 891T265 916T349 942T433 917T467 854T434 789T349 763T265 788T231 852ZM401 878T386 895T349 912T313 895T298 853T312 811T349 794T386 810T401 852ZM752 10H760V0H381V10H390Q412 10
423 23T434 48T429 73L390 166H176L136 73Q131 60 131 52T134 35T149 18T174 10H183V0H-40V10H-31Q-8 10 14 23T52 64L285 575Q338 687 342 724H351L668 65Q700 10 752 10ZM198 216H369L285 416L198 216Z" />
<glyph unicode="&#xe6;" glyph-name="ae" horiz-adv-x="1014" d="M416 10Q448 10 461 40Q465 49 466 58V317H309L158 73Q149 59 149 48T161 23T196 10H205V0H-33V10H-24Q19 10 62 71L453 641Q461 654 461 662Q461 690 432 690H427V700H821Q852 700 889 706T940
718V512H930V520Q931 600 873 632Q845 648 805 649H671V367H773Q819 369 848 399T878 476V481H888V203H878V208Q878 254 849 284T775 317H671V51H784Q857 51 912 99T991 232H1001L963 0H406L407 10H416ZM466 367V569L340 367H466Z" />
<glyph unicode="&#xe7;" glyph-name="ccedilla" horiz-adv-x="793" d="M472 -14H460L423 -57Q437 -52 447 -52T467 -52T497 -57T530 -78T542 -105Q542 -151 510 -178Q468 -213 410 -213Q382 -213 353 -205L354 -195Q390 -195 424 -175T458 -114Q458 -98 441 -86Q411
-65 360 -81L355 -71L402 -11Q229 6 132 100T35 351Q35 464 87 546T237 671T479 714T730 668L720 477H711Q682 578 627 621T490 664Q379 664 317 582T255 354T312 123T472 36Q590 36 643 92Q693 144 721 292H729L753 110Q679 -14 472 -14Z" />
<glyph unicode="&#xe8;" glyph-name="egrave" horiz-adv-x="666" d="M366 771L359 764Q306 770 241 797T126 857Q147 930 211 957Q254 920 300 868T366 771ZM43 10Q69 10 87 28T107 73V627Q106 664 75 682Q60 690 43 690H30V700H473Q504 700 540 706T592 718V512H582V520Q582
600 524 632Q496 648 457 649H312V370H421Q469 371 499 401T529 480V484H539V206H529V211Q529 258 499 288T422 320H312V51H435Q508 51 564 99T643 232H653L615 0H30V10H43Z" />
<glyph unicode="&#xe9;" glyph-name="eacute" horiz-adv-x="666" d="M322 761L315 768Q334 812 380 864T470 954Q534 927 555 854Q505 821 440 794T322 761ZM43 10Q69 10 87 28T107 73V627Q106 653 88 671T43 690H30V700H473Q516 700 549 707T592 718V512H582V520Q582
600 524 632Q496 648 457 649H312V370H421Q469 371 499 401T529 480V484H539V206H529V211Q529 258 499 288T422 320H312V51H435Q508 51 564 99T643 232H653L615 0H30V10H43Z" />
<glyph unicode="&#xea;" glyph-name="ecircumflex" horiz-adv-x="666" d="M332 932H344L522 756L515 748L337 813L170 748L163 756L332 932ZM43 10Q69 10 87 28T107 73V627Q106 653 88 671T43 690H30V700H473Q504 700 540 706T592 718V512H582V520Q582 600 524
632Q496 648 457 649H312V370H421Q469 371 499 401T529 480V484H539V206H529V211Q529 258 499 288T422 320H312V51H435Q508 51 564 99T643 232H653L615 0H30V10H43Z" />
<glyph unicode="&#xeb;" glyph-name="edieresis" horiz-adv-x="666" d="M235 755T205 755T153 777T131 829T152 881T204 903T256 882T278 830T257 777ZM497 755T467 755T415 777T393 829T414 881T466 903T518 882T540 830T519 777ZM43 10Q69 10 87 28T107 73V627Q106
653 88 671T43 690H30V700H473Q504 700 540 706T592 718V512H582V520Q582 600 524 632Q496 648 457 649H312V370H421Q469 371 499 401T529 480V484H539V206H529V211Q529 258 499 288T422 320H312V51H435Q508 51 564 99T643 232H653L615 0H30V10H43Z" />
<glyph unicode="&#xec;" glyph-name="igrave" horiz-adv-x="418" d="M235 771L228 764Q175 770 110 797T-5 857Q17 930 80 957Q124 920 170 868T235 771ZM43 10Q69 10 87 28T107 73V628Q106 654 88 672T43 690H30V700H389V690H376Q350 690 332 672T312 628V73Q313
36 344 18Q359 10 376 10H389V0H30V10H43Z" />
<glyph unicode="&#xed;" glyph-name="iacute" horiz-adv-x="418" d="M191 761L184 768Q213 836 309 926Q325 941 339 954Q403 927 424 854Q374 821 309 794T191 761ZM43 10Q69 10 87 28T107 73V628Q106 654 88 672T43 690H30V700H389V690H376Q350 690 332 672T312
628V73Q312 47 331 29T376 10H389V0H30V10H43Z" />
<glyph unicode="&#xee;" glyph-name="icircumflex" horiz-adv-x="418" d="M201 932H213L391 756L384 748L206 813L39 748L32 756L201 932ZM43 10Q69 10 87 28T107 73V628Q106 654 88 672T43 690H30V700H389V690H376Q350 690 332 672T312 628V73Q312 47 331 29T376
10H389V0H30V10H43Z" />
<glyph unicode="&#xef;" glyph-name="idieresis" horiz-adv-x="418" d="M104 755T74 755T22 777T0 829T21 881T73 903T125 882T147 830T126 777ZM367 755T337 755T284 777T262 829T284 881T336 903T388 882T410 830T389 777ZM43 10Q69 10 87 28T107 73V628Q106
654 88 672T43 690H30V700H389V690H376Q350 690 332 672T312 628V73Q312 47 331 29T376 10H389V0H30V10H43Z" />
<glyph unicode="&#xf0;" glyph-name="eth" horiz-adv-x="842" d="M597 700T702 608T808 350T703 93T409 0H30V10H43Q69 10 87 28T107 73V325H30V375H107V633Q107 657 88 673T43 690H31L30 700H409Q597 700 702 608ZM312 325V50H389Q483 50 538 129T593 350Q593
443 568 511T497 614T389 650H312V375H420V325H312Z" />
<glyph unicode="&#xf1;" glyph-name="ntilde" horiz-adv-x="881" d="M607 919H619Q625 902 625 883T617 844Q595 794 556 776Q532 764 501 764T420 789Q370 814 353 816T320 819T281 803T249 767H237Q233 781 233 796Q233 856 278 899Q309 929 346 929T438 902T537
875Q552 875 576 889T607 919ZM843 690Q818 690 800 673T781 630V114Q781 40 791 0L794 -14H785L306 412V71Q306 45 324 28T367 10H386V0H20V10H39Q64 10 82 27T100 71V590Q100 660 90 701L87 715H97L576 289V629Q575 655 557 672T514 690H495V700H861V690H843Z"
/>
<glyph unicode="&#xf2;" glyph-name="ograve" horiz-adv-x="900" d="M477 785L470 778Q398 787 309 830Q270 849 237 871Q259 944 323 971Q384 918 424 867T477 785ZM450 714Q579 714 672 671T816 546T866 350Q866 179 756 83T451 -14T146 82T35 350T145 617T450
714ZM359 36T450 36T593 119T645 350T594 581T451 664T308 581T256 350T307 119Z" />
<glyph unicode="&#xf3;" glyph-name="oacute" horiz-adv-x="900" d="M433 775L426 782Q445 826 491 878T581 968Q645 941 666 868Q616 835 551 808T433 775ZM450 714Q579 714 672 671T816 546T866 350Q866 179 756 83T451 -14T146 82T35 350T145 617T450 714ZM359
36T450 36T593 119T645 350T594 581T451 664T308 581T256 350T307 119Z" />
<glyph unicode="&#xf4;" glyph-name="ocircumflex" horiz-adv-x="900" d="M443 946H455L634 770L626 762L449 827L281 762L274 770L443 946ZM450 714Q579 714 672 671T816 546T866 350Q866 179 755 83T450 -14T146 82T35 350T145 617T450 714ZM359 36T450 36T593
119T645 350T594 581T451 664T308 581T256 350T307 119Z" />
<glyph unicode="&#xf5;" glyph-name="otilde" horiz-adv-x="900" d="M645 933H658Q664 916 664 897T655 858Q634 808 594 790Q570 778 543 778T488 789Q462 800 434 814T390 830T359 833T320 817T288 781H275Q272 795 272 810Q272 870 316 913Q347 943 384 943T476
916T576 889Q590 889 614 903T645 933ZM256 714T450 714T755 618T866 350T755 83T450 -14T146 82T35 350T145 617ZM359 36T450 36T593 119T645 350T594 581T451 664T308 581T256 350T307 119Z" />
<glyph unicode="&#xf6;" glyph-name="odieresis" horiz-adv-x="900" d="M346 769T316 769T264 791T242 843T263 895T315 917T367 896T389 844T368 791ZM609 769T579 769T526 791T504 843T526 895T578 917T630 896T652 844T631 791ZM450 714Q579 714 672 671T816
546T866 350Q866 179 755 83T450 -14T146 82T35 350T145 617T450 714ZM359 36T450 36T593 119T645 350T594 581T451 664T308 581T256 350T307 119Z" />
<glyph unicode="&#xf7;" glyph-name="divide" horiz-adv-x="481" d="M262 416T241 416T204 431T188 468T203 505T240 520T277 505T293 469T278 432ZM40 277V342H442V277H40ZM262 100T241 100T204 115T188 152T203 189T240 204T277 189T293 153T278 116Z" />
<glyph unicode="&#xf8;" glyph-name="oslash" horiz-adv-x="900" d="M866 350Q866 179 755 83T450 -14Q307 -14 207 40L153 -23L109 13L159 71Q35 168 35 344T145 617T450 714Q580 714 674 670L722 726L766 692L723 642Q866 546 866 350ZM595 579Q544 664 452
664T308 581T256 350Q256 267 272 203L595 579ZM450 36Q542 36 593 119T645 350Q645 451 621 523L294 142Q346 36 450 36Z" />
<glyph unicode="&#xf9;" glyph-name="ugrave" horiz-adv-x="845" d="M510 771L503 764Q450 770 385 797T270 857Q291 930 355 957Q398 920 444 868T510 771ZM825 690H809Q788 690 773 677T756 643V257Q756 130 678 58T457 -14Q277 -14 188 56T99 256V640Q99 670
73 684Q61 690 46 690H30V700H373V690H357Q335 690 320 677T304 642V260Q304 155 352 96T486 37T620 92T669 247V642Q668 663 653 676T616 690H600V700H825V690Z" />
<glyph unicode="&#xfa;" glyph-name="uacute" horiz-adv-x="845" d="M466 761L459 768Q478 812 524 864T614 954Q678 927 699 854Q649 821 584 794T466 761ZM825 690H809Q788 690 773 677T756 643V257Q756 130 678 58T457 -14Q277 -14 188 56T99 256V640Q99 670
73 684Q61 690 46 690H30V700H373V690H357Q335 690 320 677T304 642V260Q304 155 352 96T486 37T620 92T669 247V642Q668 675 637 686Q627 690 616 690H600V700H825V690Z" />
<glyph unicode="&#xfb;" glyph-name="ucircumflex" horiz-adv-x="845" d="M476 932H488L666 756L659 748L481 813L314 748L307 756L476 932ZM825 690H809Q788 690 773 677T756 643V257Q756 130 678 58T457 -14Q336 -14 255 19Q99 82 99 256V640Q99 670 73 684Q61
690 46 690H30V700H373V690H357Q335 690 320 677T304 642V260Q304 155 352 96T486 37T620 92T669 247V642Q668 663 653 676T616 690H600V700H825V690Z" />
<glyph unicode="&#xfc;" glyph-name="udieresis" horiz-adv-x="845" d="M379 755T349 755T296 777T274 829T296 881T348 903T400 882T422 830T401 777ZM641 755T611 755T559 777T537 829T558 881T610 903T662 882T684 830T663 777ZM825 690H809Q788 690 773 677T756
643V257Q756 130 678 58T457 -14Q277 -14 188 56T99 256V640Q99 662 84 676T46 690H30V700H373V690H357Q335 690 320 677T304 642V260Q304 155 352 96T486 37T620 92T669 247V642Q668 663 653 676T616 690H600V700H825V690Z" />
<glyph unicode="&#xfd;" glyph-name="yacute" horiz-adv-x="729" d="M418 761L411 768Q430 812 476 864T566 954Q630 927 651 854Q601 821 536 794T418 761ZM775 690H761Q731 690 704 673T660 631L464 322V73Q464 47 482 29T528 10H540V0H182V10H195Q221 10 239
28T259 72V322L68 633Q53 657 26 673T-31 690H-45V700H341V690H329Q307 690 295 670Q289 659 289 649T294 628L431 381L573 628Q579 638 579 648T572 669Q559 690 538 690H526V700H775V690Z" />
<glyph unicode="&#xfe;" glyph-name="thorn" horiz-adv-x="707" d="M693 353Q693 307 675 264T621 192Q558 141 487 141Q415 141 351 187V197Q387 203 405 216T435 241Q460 268 468 304T477 355Q477 434 443 471T352 508H325V73Q325 36 357 18Q371 10 389 10H401V0H43V10H55Q82
10 100 28T120 73V628Q119 654 101 672T56 690H43V700H401V690H389Q363 690 344 672T325 628V558H416Q582 558 650 479Q693 429 693 353Z" />
<glyph unicode="&#xff;" glyph-name="ydieresis" horiz-adv-x="729" d="M331 755T301 755T248 777T226 829T248 881T300 903T352 882T374 830T353 777ZM593 755T563 755T511 777T489 829T510 881T562 903T614 882T636 830T615 777ZM775 690H761Q731 690 704 673T660
631L464 322V73Q464 47 482 29T528 10H540V0H182V10H195Q221 10 239 28T259 72V322L68 633Q53 657 26 673T-31 690H-45V700H341V690H329Q307 690 295 670Q288 659 288 649T294 628L431 381L573 628Q579 638 579 648T572 669Q559 690 538 690H526V700H775V690Z"
/>
<glyph unicode="&#x2013;" glyph-name="endash" horiz-adv-x="500" d="M0 261V321H500V261H0Z" />
<glyph unicode="&#x2014;" glyph-name="emdash" horiz-adv-x="800" d="M0 261V321H800V261H0Z" />
<glyph unicode="&#x2018;" glyph-name="quoteleft" horiz-adv-x="278" d="M221 821T209 808T192 782T187 758Q187 723 215 691T243 618Q243 564 207 538Q183 520 160 520Q80 520 52 583Q35 624 35 663T52 738Q89 815 158 838Q181 845 199 845T233 843L237 828Q221
821 209 808Z" />
<glyph unicode="&#x2019;" glyph-name="quoteright" horiz-adv-x="268" d="M80 591Q87 604 87 612T88 629Q88 655 62 685T35 755Q35 807 69 831Q93 849 114 849Q190 849 217 789Q233 750 233 712T217 641Q182 568 117 546Q95 539 77 539T45 541L41 555Q67 566 80 591Z" />
<glyph unicode="&#x201a;" glyph-name="quotesinglbase" horiz-adv-x="278" d="M41 -127Q75 -112 86 -80Q91 -66 91 -56Q91 -22 63 10T35 83Q35 137 71 163Q96 182 118 182Q198 182 227 118Q243 78 243 39T226 -37Q189 -113 121 -136Q98 -144 79 -144T46 -141L41 -127Z" />
<glyph unicode="&#x201c;" glyph-name="quotedblleft" horiz-adv-x="519" d="M221 821T209 808T192 782T187 758Q187 723 215 691T244 618Q244 564 207 538Q183 520 160 520Q81 520 52 583Q35 624 35 663T52 738Q89 815 158 838Q181 845 200 845T233 843L237 828Q221
821 209 808ZM462 821T450 808T433 782T428 758Q428 723 456 691T485 618Q485 564 448 538Q424 520 401 520Q322 520 293 583Q276 624 276 663T293 738Q331 815 399 838Q422 845 441 845T474 843L478 828Q462 821 450 808Z" />
<glyph unicode="&#x201d;" glyph-name="quotedblright" horiz-adv-x="498" d="M80 591Q87 604 87 612T88 629Q88 655 62 685T35 755Q35 807 69 831Q93 849 114 849Q190 849 217 789Q233 750 233 712T217 641Q182 568 117 546Q95 539 77 539T45 541L41 555Q67 566
80 591ZM310 591Q317 604 317 612T318 629Q318 655 292 685T265 755Q265 807 299 831Q323 849 344 849Q420 849 447 789Q463 750 463 712T447 641Q412 568 347 546Q325 539 307 539T275 541L271 555Q297 566 310 591Z" />
<glyph unicode="&#x201e;" glyph-name="quotedblbase" horiz-adv-x="518" d="M41 -134Q75 -119 86 -87Q91 -74 91 -63Q91 -29 63 3T35 76Q35 130 71 156Q96 175 118 175Q198 175 227 111Q243 71 243 32T226 -44Q189 -120 121 -143Q98 -151 79 -151T46 -148L41
-134ZM282 -134Q315 -119 326 -87Q331 -74 331 -63Q331 -29 303 3T275 76Q275 130 311 156Q336 175 358 175Q438 175 467 111Q483 71 483 32T466 -44Q429 -120 361 -143Q338 -151 319 -151T286 -148L282 -134Z" />
<glyph unicode="&#x2022;" glyph-name="bullet" horiz-adv-x="389" d="M205 178T195 178T163 185T124 200T94 221T72 251T58 290T50 323T54 343Q75 407 93 425T175 464Q185 467 195 467T215 464Q279 443 297 425T336 343Q339 333 339 323T335 300Q314 238 296
221T215 182Q205 178 195 178ZM234 267T242 275T256 300T262 323T257 345T243 370T217 384T195 390T173 385T148 371T133 345T127 323T131 305T141 283Q150 269 185 257Q190 255 194 255T216 261Z" />
<glyph unicode="&#x2039;" glyph-name="guilsinglleft" horiz-adv-x="343" d="M283 485Q258 440 238 402T195 292Q220 210 284 95L275 88Q174 206 40 292Q112 336 168 380T275 490L283 485Z" />
<glyph unicode="&#x203a;" glyph-name="guilsinglright" horiz-adv-x="343" d="M60 95Q85 140 105 179T149 292Q139 322 127 356T61 485L69 490Q119 425 175 381T304 292Q169 206 69 88L60 95Z" />
</font>
</defs>
</svg>
