<?xml version="1.0" standalone="no"?>
<!DOCTYPE svg PUBLIC "-//W3C//DTD SVG 1.1//EN" "http://www.w3.org/Graphics/SVG/1.1/DTD/svg11.dtd">
<svg xmlns="http://www.w3.org/2000/svg">
<defs >
<font id="IstokWeb" horiz-adv-x="1107" ><font-face
    font-family="Istok Web"
    units-per-em="2048"
    panose-1="2 15 6 3 3 4 3 2 2 4"
    ascent="2061"
    descent="-887"
    alphabetic="0" />
<glyph unicode=" " glyph-name="space" horiz-adv-x="682" />
<glyph unicode="!" glyph-name="exclam" horiz-adv-x="600" d="M198 1379Q198 1434 248 1434H352Q402 1434 402 1379L381 435Q381 390 336 390H264Q219 390 219 435L198 1379ZM244 0Q199 0 199 45V167Q199 212 244 212H356Q401 212 401 167V45Q401 0 356 0H244Z" />
<glyph unicode="&quot;" glyph-name="quotedbl" horiz-adv-x="828" d="M151 1414Q149 1469 187 1469H291Q329 1469 327 1414L306 869Q304 824 271 824H207Q174 824 172 869L151 1414ZM501 1414Q499 1469 537 1469H641Q679 1469 677 1414L656 869Q654 824 621 824H557Q524
824 522 869L501 1414Z" />
<glyph unicode="#" glyph-name="numbersign" horiz-adv-x="1390" d="M121 375Q76 375 82 410L91 460Q97 495 142 495H357L433 927H218Q174 927 180 962L188 1012Q194 1047 240 1047H455L513 1377Q521 1422 556 1422H618Q653 1422 645 1377L587 1047H923L981 1377Q989
1422 1024 1422H1086Q1121 1422 1113 1377L1055 1047H1270Q1314 1047 1308 1012L1300 962Q1294 927 1248 927H1033L957 495H1172Q1217 495 1211 460L1202 410Q1196 375 1151 375H936L878 45Q870 0 835 0H773Q738 0 746 45L804 375H468L410 45Q402 0 367 0H305Q270
0 278 45L336 375H121ZM489 495H825L901 927H565L489 495Z" />
<glyph unicode="$" glyph-name="dollar" horiz-adv-x="1110" d="M127 96Q73 145 99 180L139 234Q170 276 226 228Q300 165 367 146T506 121V651Q433 672 363 712Q268 766 216 835T150 963T136 1116Q136 1180 182 1263T311 1393T506 1451V1571Q506 1616 541 1616H591Q626
1616 626 1571V1449Q691 1449 775 1419T902 1347Q948 1302 926 1269L883 1206Q850 1158 793 1220Q759 1257 705 1276T626 1296V808Q705 783 802 726Q870 686 918 631T986 510T1006 374Q1006 280 974 206T857 61T626 -27V-165Q626 -210 591 -210H541Q506 -210 506
-165V-29Q406 -29 300 3T127 96ZM322 1104Q322 1025 348 974T444 884Q474 867 506 853V1299Q442 1294 382 1247T322 1104ZM626 127Q702 144 756 197T810 373Q810 440 780 493T702 575Q650 605 626 613V127Z" />
<glyph unicode="%" glyph-name="percent" horiz-adv-x="1782" d="M108 1122Q108 1282 192 1394T417 1507Q557 1507 641 1395T726 1122Q726 962 642 850T417 737Q277 737 193 849T108 1122ZM268 1122Q268 982 302 917T417 852Q497 852 531 917T566 1122Q566 1262
532 1327T417 1392Q337 1392 303 1327T268 1122ZM377 -50Q347 -32 371 6L1309 1507Q1333 1545 1363 1527L1405 1500Q1435 1482 1411 1444L473 -57Q449 -95 419 -77L377 -50ZM1056 328Q1056 488 1140 600T1365 713Q1505 713 1589 601T1674 328Q1674 168 1590 56T1365
-57Q1225 -57 1141 55T1056 328ZM1216 328Q1216 188 1250 123T1365 58Q1445 58 1479 123T1514 328Q1514 468 1480 533T1365 598Q1285 598 1251 533T1216 328Z" />
<glyph unicode="&amp;" glyph-name="ampersand" horiz-adv-x="1382" d="M120 326Q120 429 170 541T446 817Q396 874 342 957T287 1164Q287 1284 370 1374T637 1464Q750 1464 855 1404T961 1179Q961 1073 889 979T694 793L1008 418Q1048 460 1092 535T1148 658Q1160
704 1199 692L1275 668Q1318 654 1304 614Q1274 524 1214 433T1109 297L1310 58Q1359 0 1292 0H1191Q1133 0 1097 43L987 173Q894 82 791 26T519 -30Q347 -30 234 69T120 326ZM315 328Q315 236 371 176T540 115Q624 115 722 168T886 293L548 698Q395 581 355 507T315
328ZM467 1173Q467 1091 511 1024T592 911Q702 1005 741 1062T781 1185Q781 1241 743 1283T624 1325Q550 1325 509 1282T467 1173Z" />
<glyph unicode="&apos;" glyph-name="quotesingle" horiz-adv-x="478" d="M151 1414Q149 1469 187 1469H291Q329 1469 327 1414L306 869Q304 824 271 824H207Q174 824 172 869L151 1414Z" />
<glyph unicode="(" glyph-name="parenleft" horiz-adv-x="670" d="M124 544Q124 852 228 1084T491 1493Q529 1536 559 1513L594 1486Q625 1462 592 1427Q502 1331 411 1104T320 544Q320 212 411 -15T592 -339Q625 -374 594 -398L559 -425Q529 -448 491 -405Q332
-228 228 4T124 544Z" />
<glyph unicode=")" glyph-name="parenright" horiz-adv-x="670" d="M76 -398Q45 -374 78 -339Q168 -243 259 -16T350 544Q350 876 259 1103T78 1427Q45 1462 76 1486L111 1513Q141 1536 179 1493Q338 1316 442 1084T546 544Q546 236 442 4T179 -405Q141 -448 111
-425L76 -398Z" />
<glyph unicode="*" glyph-name="asterisk" horiz-adv-x="940" d="M370 1057L156 1150Q74 1185 115 1256L121 1266Q162 1336 233 1283L420 1144L393 1376Q383 1464 464 1464H476Q557 1464 547 1376L520 1144L707 1283Q778 1336 819 1266L825 1256Q866 1185 784
1150L570 1057L784 965Q866 930 825 859L819 849Q778 779 707 831L520 971L547 739Q557 651 476 651H464Q383 651 393 739L420 971L233 831Q162 779 121 849L115 859Q74 930 156 965L370 1057Z" />
<glyph unicode="+" glyph-name="plus" horiz-adv-x="1280" d="M125 665Q80 665 80 700V750Q80 785 125 785H579V1240Q579 1285 614 1285H664Q699 1285 699 1240V785H1155Q1200 785 1200 750V700Q1200 665 1155 665H699V210Q699 165 664 165H614Q579 165 579 210V665H125Z" />
<glyph unicode="," glyph-name="comma" horiz-adv-x="600" d="M242 0Q197 0 197 45V167Q197 212 242 212H358Q403 212 403 167V45Q403 -60 381 -138T292 -276Q270 -295 255 -281L210 -239Q195 -225 217 -205Q251 -175 272 -119T294 0H242Z" />
<glyph unicode="-" glyph-name="hyphen" horiz-adv-x="680" d="M101 483Q56 483 56 518V588Q56 623 101 623H579Q624 623 624 588V518Q624 483 579 483H101Z" />
<glyph unicode="." glyph-name="period" horiz-adv-x="600" d="M244 0Q199 0 199 45V167Q199 212 244 212H356Q401 212 401 167V45Q401 0 356 0H244Z" />
<glyph unicode="/" glyph-name="slash" horiz-adv-x="840" d="M24 -391Q-10 -377 7 -335L722 1436Q739 1478 773 1464L818 1446Q850 1433 833 1391L118 -380Q101 -422 69 -409L24 -391Z" />
<glyph unicode="0" glyph-name="zero" horiz-adv-x="1110" d="M93 711Q93 1061 189 1256T555 1452Q825 1452 921 1257T1017 711Q1017 361 921 166T555 -30Q285 -30 189 165T93 711ZM279 711Q279 431 327 273T555 114Q735 114 783 272T831 711Q831 991 783 1149T555
1308Q375 1308 327 1150T279 711Z" />
<glyph unicode="1" glyph-name="one" horiz-adv-x="827" d="M161 1151Q148 1183 185 1197Q262 1226 331 1290T440 1404Q469 1440 496 1440H581Q627 1440 627 1395V45Q627 0 582 0H496Q451 0 451 45V1141Q451 1171 453 1201H451Q420 1162 360 1121T250 1061Q206
1044 192 1077L161 1151Z" />
<glyph unicode="2" glyph-name="two" horiz-adv-x="1110" d="M149 0Q94 0 94 45V93Q94 132 127 165L519 560Q693 735 747 830T802 1051Q802 1156 741 1229T554 1302Q442 1302 368 1245T261 1054Q247 997 202 1010L124 1033Q93 1042 109 1118Q138 1249 249 1350T546
1452Q781 1452 889 1334T998 1045Q998 878 909 757T663 485L334 166V162Q361 164 414 164H959Q1014 164 1014 119V45Q1014 0 959 0H149Z" />
<glyph unicode="3" glyph-name="three" horiz-adv-x="1110" d="M109 148Q69 194 93 223L145 286Q179 327 226 268Q278 203 354 162T515 120Q680 120 749 202T818 421Q818 566 726 631T520 696H432Q387 696 387 729V803Q387 838 432 838H503Q613 838 691 910T770
1106Q770 1192 707 1247T530 1302Q423 1302 355 1253T259 1168Q222 1120 187 1153L128 1210Q102 1235 151 1293Q203 1354 300 1403T533 1452Q740 1452 849 1352T958 1093Q958 967 881 883T711 778V774Q818 759 916 658T1014 417Q1014 209 894 90T511 -30Q359 -30
260 29T109 148Z" />
<glyph unicode="4" glyph-name="four" horiz-adv-x="1110" d="M109 354Q64 354 64 399V487Q64 519 88 556L637 1404Q660 1440 693 1440H784Q830 1440 830 1395V518H1001Q1046 518 1046 473V399Q1046 354 1002 354H830V45Q830 0 785 0H699Q654 0 654 45V354H109ZM243
518H654V1093Q654 1123 656 1153H654L243 518Z" />
<glyph unicode="5" glyph-name="five" horiz-adv-x="1110" d="M114 163Q76 213 105 239L167 294Q201 324 246 269Q273 236 341 178T518 120Q661 120 733 208T806 441Q806 578 744 657T558 736Q481 736 430 721T324 658Q286 625 244 625H197Q152 625 152 670V1377Q152
1422 197 1422H887Q932 1422 932 1377V1303Q932 1258 887 1258H328V863Q328 833 326 803H330Q386 850 461 868T600 886Q786 886 894 762T1002 437Q1002 218 873 94T520 -30Q357 -30 258 37T114 163Z" />
<glyph unicode="6" glyph-name="six" horiz-adv-x="1110" d="M92 671Q92 1111 245 1281T617 1452Q742 1452 817 1420T946 1338Q988 1299 965 1273L918 1218Q890 1186 845 1224Q808 1256 756 1279T608 1302Q473 1302 373 1167T273 743H275Q320 808 404 853T618
899Q778 899 899 790T1020 460Q1020 242 905 106T563 -30Q327 -30 210 157T92 671ZM307 447Q307 323 375 222T565 120Q690 120 757 214T824 454Q824 599 756 672T586 746Q454 746 381 665T307 447Z" />
<glyph unicode="7" glyph-name="seven" horiz-adv-x="1100" d="M133 1258Q88 1258 88 1303V1377Q88 1422 133 1422H967Q1012 1422 1012 1377V1308Q1012 1276 976 1236Q776 1009 655 734T534 133V39Q534 -6 489 -6H398Q353 -6 353 39V98Q353 459 490 733T831 1258V1260Q801
1258 771 1258H133Z" />
<glyph unicode="8" glyph-name="eight" horiz-adv-x="1110" d="M92 410Q92 550 179 648T351 768V771Q259 800 193 879T127 1088Q127 1253 246 1352T555 1452Q745 1452 864 1353T983 1088Q983 958 913 879T751 770V768Q836 747 927 649T1018 410Q1018 210 907 90T555
-30Q315 -30 204 90T92 410ZM287 406Q287 266 356 193T555 120Q685 120 753 193T822 406Q822 516 751 600T555 684Q430 684 359 600T287 406ZM315 1088Q315 988 372 917T555 846Q680 846 737 917T795 1088Q795 1168 740 1235T555 1302Q425 1302 370 1235T315 1088Z"
/>
<glyph unicode="9" glyph-name="nine" horiz-adv-x="1110" d="M90 962Q90 1180 205 1316T547 1452Q783 1452 900 1265T1018 751Q1018 311 865 141T493 -30Q368 -30 293 2T164 84Q122 123 145 149L192 204Q220 236 265 198Q302 166 354 143T502 120Q637 120 737
255T837 679H835Q790 614 706 569T492 523Q332 523 211 632T90 962ZM286 968Q286 823 354 750T524 676Q656 676 729 757T803 975Q803 1099 735 1200T545 1302Q420 1302 353 1208T286 968Z" />
<glyph unicode=":" glyph-name="colon" horiz-adv-x="600" d="M244 0Q199 0 199 45V167Q199 212 244 212H356Q401 212 401 167V45Q401 0 356 0H244ZM244 838Q199 838 199 883V1005Q199 1050 244 1050H356Q401 1050 401 1005V883Q401 838 356 838H244Z" />
<glyph unicode=";" glyph-name="semicolon" horiz-adv-x="600" d="M244 838Q199 838 199 883V1005Q199 1050 244 1050H356Q401 1050 401 1005V883Q401 838 356 838H244ZM242 0Q197 0 197 45V167Q197 212 242 212H358Q403 212 403 167V45Q403 -60 381 -138T292
-276Q270 -295 255 -281L210 -239Q195 -225 217 -205Q251 -175 272 -119T294 0H242Z" />
<glyph unicode="&lt;" glyph-name="less" horiz-adv-x="1280" d="M130 685Q105 699 105 719V751Q105 771 130 785L1082 1335Q1121 1358 1139 1327L1164 1284Q1182 1254 1142 1231L283 736V734L1142 239Q1182 216 1164 186L1139 143Q1121 112 1082 135L130 685Z" />
<glyph unicode="=" glyph-name="equal" horiz-adv-x="1280" d="M125 495Q80 495 80 530V580Q80 615 125 615H1155Q1200 615 1200 580V530Q1200 495 1155 495H125ZM125 835Q80 835 80 870V920Q80 955 125 955H1155Q1200 955 1200 920V870Q1200 835 1155 835H125Z" />
<glyph unicode="&gt;" glyph-name="greater" horiz-adv-x="1280" d="M116 186Q98 216 138 239L997 734V736L138 1231Q98 1254 116 1284L141 1327Q159 1358 198 1335L1150 785Q1175 771 1175 751V719Q1175 699 1150 685L198 135Q159 112 141 143L116 186Z" />
<glyph unicode="?" glyph-name="question" horiz-adv-x="1016" d="M111 1164Q80 1178 108 1250Q135 1317 226 1390T493 1464Q708 1464 809 1362T910 1088Q910 945 744 761T577 438V415Q577 370 532 370H446Q401 370 401 415V452Q401 621 557 799T714 1094Q714
1216 657 1265T500 1314Q390 1314 335 1274T250 1165Q227 1111 185 1130L111 1164ZM432 0Q387 0 387 45V167Q387 212 432 212H544Q589 212 589 167V45Q589 0 544 0H432Z" />
<glyph unicode="@" glyph-name="at" horiz-adv-x="1992" d="M120 551Q120 932 380 1202T1060 1473Q1366 1473 1619 1295T1872 716Q1872 422 1731 267T1360 111Q1230 111 1194 168T1158 332H1156Q1118 243 1026 177T843 111Q709 111 628 207T546 467Q546 673 677
857T1006 1042Q1197 1042 1241 866H1245L1268 972Q1275 1006 1310 1006H1420Q1455 1006 1447 971L1316 380Q1294 282 1320 257T1391 231Q1537 231 1643 342T1750 716Q1750 1020 1556 1186T1062 1353Q720 1353 481 1135T242 536Q242 204 470 -4T1020 -212Q1170 -212
1322 -158T1606 3Q1633 25 1649 3L1688 -51Q1705 -75 1678 -93Q1515 -208 1356 -270T1011 -332Q652 -332 386 -94T120 551ZM717 447Q717 324 761 278T885 231Q986 231 1073 373T1177 582Q1192 646 1192 727Q1192 796 1151 860T1030 924Q896 924 807 780T717 447Z"
/>
<glyph unicode="A" glyph-name="A" horiz-adv-x="1360" d="M73 0Q21 0 46 66L544 1373Q567 1434 610 1434H750Q793 1434 816 1373L1314 66Q1339 0 1287 0H1185Q1132 0 1113 49L988 380H372L247 49Q228 0 175 0H73ZM435 544H925L772 944Q751 1000 731 1068T682
1261H678Q650 1136 630 1068T588 944L435 544Z" />
<glyph unicode="B" glyph-name="B" horiz-adv-x="1358" d="M220 0Q170 0 170 55V1379Q170 1434 220 1434H610Q950 1434 1068 1324T1186 1059Q1186 936 1088 851T898 750V747Q999 738 1123 647T1248 398Q1248 228 1123 114T660 0H220ZM362 164H628Q843 164 943
217T1043 404Q1043 528 942 596T628 664H362V164ZM362 808H613Q780 808 885 879T991 1059Q991 1162 912 1216T613 1270H362V808Z" />
<glyph unicode="C" glyph-name="C" horiz-adv-x="1402" d="M92 717Q92 1067 265 1265T764 1464Q954 1464 1078 1400T1256 1223Q1284 1165 1247 1143L1168 1097Q1128 1074 1097 1135Q1064 1198 989 1253T774 1308Q524 1308 411 1153T297 717Q297 437 410 282T774
126Q918 126 1004 192T1130 330Q1161 388 1202 365L1285 318Q1321 297 1291 238Q1232 123 1099 47T764 -30Q439 -30 266 168T92 717Z" />
<glyph unicode="D" glyph-name="D" horiz-adv-x="1436" d="M220 0Q170 0 170 55V1379Q170 1434 220 1434H589Q1013 1434 1178 1247T1344 719Q1344 379 1179 190T589 0H220ZM362 164H580Q910 164 1024 304T1139 719Q1139 994 1025 1133T580 1272H362V164Z" />
<glyph unicode="E" glyph-name="E" horiz-adv-x="1270" d="M220 0Q170 0 170 55V1379Q170 1434 220 1434H1095Q1150 1434 1150 1389V1315Q1150 1270 1095 1270H362V826H1035Q1090 826 1090 781V707Q1090 662 1035 662H362V164H1125Q1180 164 1180 119V45Q1180
0 1125 0H220Z" />
<glyph unicode="F" glyph-name="F" horiz-adv-x="1166" d="M220 0Q170 0 170 55V1379Q170 1434 220 1434H1035Q1090 1434 1090 1389V1315Q1090 1270 1035 1270H362V796H949Q1004 796 1004 751V677Q1004 632 949 632H362V55Q362 0 312 0H220Z" />
<glyph unicode="G" glyph-name="G" horiz-adv-x="1470" d="M92 717Q92 1067 273 1265T776 1464Q969 1464 1091 1398T1270 1241Q1305 1185 1269 1160L1194 1108Q1157 1082 1120 1139Q1090 1184 1007 1246T786 1308Q541 1308 419 1153T297 717Q297 437 416 282T796
126Q926 126 1022 157T1158 245V510H861Q806 510 806 555V629Q806 674 861 674H1295Q1350 674 1350 629V157Q1228 68 1106 19T786 -30Q456 -30 274 168T92 717Z" />
<glyph unicode="H" glyph-name="H" horiz-adv-x="1422" d="M220 0Q170 0 170 55V1379Q170 1434 220 1434H312Q362 1434 362 1379V828H1060V1379Q1060 1434 1110 1434H1202Q1252 1434 1252 1379V55Q1252 0 1202 0H1110Q1060 0 1060 55V664H362V55Q362 0 312 0H220Z" />
<glyph unicode="I" glyph-name="I" horiz-adv-x="532" d="M220 0Q170 0 170 55V1379Q170 1434 220 1434H312Q362 1434 362 1379V55Q362 0 312 0H220Z" />
<glyph unicode="J" glyph-name="J" horiz-adv-x="824" d="M67 29Q21 54 39 94L72 165Q94 213 145 179Q226 126 307 126Q404 126 433 191T462 378V1379Q462 1434 512 1434H604Q654 1434 654 1379V401Q654 203 592 87T302 -30Q177 -30 67 29Z" />
<glyph unicode="K" glyph-name="K" horiz-adv-x="1328" d="M220 0Q170 0 170 55V1379Q170 1434 220 1434H312Q362 1434 362 1379V791Q362 751 360 711H364L1032 1395Q1070 1434 1102 1434H1223Q1306 1434 1241 1368L733 850L1268 66Q1312 0 1250 0H1128Q1084 0
1058 39L601 714L362 471V55Q362 0 312 0H220Z" />
<glyph unicode="L" glyph-name="L" horiz-adv-x="1136" d="M220 0Q170 0 170 55V1379Q170 1434 220 1434H312Q362 1434 362 1379V164H1025Q1080 164 1080 119V45Q1080 0 1025 0H220Z" />
<glyph unicode="M" glyph-name="M" horiz-adv-x="1708" d="M220 0Q170 0 170 55V1379Q170 1434 220 1434H433Q471 1434 490 1374L776 477Q820 339 828 311T851 206H857Q872 282 880 310T932 477L1218 1374Q1237 1434 1275 1434H1488Q1538 1434 1538 1379V55Q1538
0 1488 0H1396Q1346 0 1346 55V1104Q1346 1144 1348 1184H1344L975 61Q955 0 909 0H799Q753 0 733 61L364 1184H360Q362 1144 362 1104V55Q362 0 312 0H220Z" />
<glyph unicode="N" glyph-name="N" horiz-adv-x="1438" d="M220 0Q170 0 170 55V1379Q170 1434 220 1434H348Q418 1434 448 1384L1074 335H1078Q1076 375 1076 415V1379Q1076 1434 1126 1434H1218Q1268 1434 1268 1379V55Q1268 0 1218 0H1130Q1060 0 1030 50L364
1163H360Q362 1123 362 1083V55Q362 0 312 0H220Z" />
<glyph unicode="O" glyph-name="O" horiz-adv-x="1524" d="M92 717Q92 1067 264 1265T762 1464Q1087 1464 1259 1266T1432 717Q1432 367 1260 169T762 -30Q437 -30 265 168T92 717ZM297 717Q297 437 412 282T762 126Q997 126 1112 281T1227 717Q1227 997 1112
1152T762 1308Q527 1308 412 1153T297 717Z" />
<glyph unicode="P" glyph-name="P" horiz-adv-x="1308" d="M220 0Q170 0 170 55V1379Q170 1434 220 1434H640Q980 1434 1099 1320T1218 1005Q1218 805 1099 691T640 576H362V55Q362 0 312 0H220ZM362 740H643Q863 740 943 802T1023 1005Q1023 1145 943 1207T643
1270H362V740Z" />
<glyph unicode="Q" glyph-name="Q" horiz-adv-x="1524" d="M92 719Q92 1069 264 1266T762 1464Q1087 1464 1259 1266T1432 717Q1432 367 1260 168Q1116 3 867 -24Q877 -121 939 -179T1116 -237Q1178 -237 1217 -227Q1256 -217 1261 -238L1281 -326Q1286 -350 1256
-357Q1167 -377 1084 -377Q869 -377 777 -270T675 -26Q413 -2 264 170Q92 369 92 719ZM297 717Q297 437 412 282T762 126Q997 126 1112 281T1227 717Q1227 997 1112 1152T762 1308Q527 1308 412 1153T297 717Z" />
<glyph unicode="R" glyph-name="R" horiz-adv-x="1394" d="M220 0Q170 0 170 55V1379Q170 1434 220 1434H703Q992 1434 1121 1326T1251 1041Q1251 885 1147 779T849 657V655Q951 579 984 540T1058 433L1284 66Q1325 0 1266 0H1152Q1105 0 1082 39L874 396Q829
473 745 547T536 621H362V55Q362 0 312 0H220ZM362 785H651Q846 785 951 836T1056 1053Q1056 1179 960 1224T699 1270H362V785Z" />
<glyph unicode="S" glyph-name="S" horiz-adv-x="1224" d="M141 108Q88 156 113 192L165 267Q192 306 252 261Q331 202 416 164T624 126Q714 126 776 153T875 230T913 353Q913 405 898 449T848 524T777 571Q716 599 595 636T382 716Q292 759 239 820T168 945T150
1093Q150 1220 224 1312T405 1434T624 1464Q751 1464 845 1431T1013 1345Q1065 1308 1037 1267L986 1194Q963 1161 896 1208Q845 1244 772 1275T626 1307Q534 1307 473 1286T377 1213T342 1095Q342 1053 350 1018T391 945T471 888Q534 861 666 825T898 735Q990
686 1030 633T1093 517T1116 376Q1116 234 1043 139T870 7T619 -30Q438 -30 319 12T141 108Z" />
<glyph unicode="T" glyph-name="T" horiz-adv-x="1240" d="M91 1262Q36 1262 36 1307V1389Q36 1434 91 1434H1149Q1204 1434 1204 1389V1307Q1204 1262 1149 1262H716V55Q716 0 666 0H574Q524 0 524 55V1262H91Z" />
<glyph unicode="U" glyph-name="U" horiz-adv-x="1402" d="M170 547V1379Q170 1434 220 1434H312Q362 1434 362 1379V577Q362 297 441 212T701 126Q881 126 960 211T1040 577V1379Q1040 1434 1090 1434H1182Q1232 1434 1232 1379V547Q1232 230 1087 100T701 -30Q461
-30 316 100T170 547Z" />
<glyph unicode="V" glyph-name="V" horiz-adv-x="1338" d="M46 1368Q21 1434 73 1434H175Q229 1434 247 1385L572 490Q593 431 624 332T667 173H671Q682 232 713 331T766 490L1091 1385Q1109 1434 1163 1434H1265Q1317 1434 1292 1368L805 61Q782 0 739 0H599Q556
0 533 61L46 1368Z" />
<glyph unicode="W" glyph-name="W" horiz-adv-x="1888" d="M48 1374Q32 1434 74 1434H196Q228 1434 239 1388L462 427Q476 369 493 301T524 173H529Q539 232 552 290T583 426L811 1380Q824 1434 875 1434H1013Q1064 1434 1077 1380L1305 426Q1322 348 1335 290T1359
173H1364Q1377 233 1394 301T1426 427L1649 1388Q1660 1434 1692 1434H1814Q1856 1434 1840 1374L1496 77Q1476 0 1422 0H1297Q1247 0 1226 84L985 1043Q967 1116 959 1162T945 1259H943Q937 1209 929 1163T903 1043L662 84Q641 0 591 0H466Q412 0 392 77L48 1374Z"
/>
<glyph unicode="X" glyph-name="X" horiz-adv-x="1310" d="M77 0Q12 0 59 66L539 740L93 1368Q46 1434 111 1434H234Q278 1434 304 1395L655 873L1006 1395Q1032 1434 1076 1434H1199Q1264 1434 1217 1368L771 740L1251 66Q1298 0 1233 0H1109Q1065 0 1039 39L655
607L271 39Q245 0 201 0H77Z" />
<glyph unicode="Y" glyph-name="Y" horiz-adv-x="1302" d="M54 1368Q11 1434 81 1434H193Q237 1434 265 1385L519 948Q561 876 591 823T649 709H653Q681 769 711 822T783 948L1037 1385Q1065 1434 1109 1434H1221Q1291 1434 1248 1368L747 590V55Q747 0 697 0H605Q555
0 555 55V590L54 1368Z" />
<glyph unicode="Z" glyph-name="Z" horiz-adv-x="1216" d="M120 0Q65 0 65 45V93Q65 141 95 182L881 1268V1272Q841 1270 801 1270H152Q97 1270 97 1315V1389Q97 1434 152 1434H1074Q1129 1434 1129 1389V1358Q1129 1325 1109 1297L313 166V162Q340 164 393 164H1096Q1151
164 1151 119V45Q1151 0 1096 0H120Z" />
<glyph unicode="[" glyph-name="bracketleft" horiz-adv-x="658" d="M215 -408Q170 -408 170 -363V1451Q170 1496 215 1496H543Q588 1496 588 1461V1401Q588 1366 543 1366H346V-278H543Q588 -278 588 -313V-373Q588 -408 543 -408H215Z" />
<glyph unicode="\" glyph-name="backslash" horiz-adv-x="840" d="M7 1391Q-10 1433 22 1446L67 1464Q101 1478 118 1436L833 -335Q850 -377 816 -391L771 -409Q739 -422 722 -380L7 1391Z" />
<glyph unicode="]" glyph-name="bracketright" horiz-adv-x="658" d="M115 -408Q70 -408 70 -373V-313Q70 -278 115 -278H312V1366H115Q70 1366 70 1401V1461Q70 1496 115 1496H443Q488 1496 488 1451V-363Q488 -408 443 -408H115Z" />
<glyph unicode="^" glyph-name="asciicircum" horiz-adv-x="866" d="M90 923Q61 942 84 979L347 1400Q368 1434 412 1434H454Q498 1434 519 1400L782 979Q805 942 776 923L727 891Q698 872 673 911L434 1290H432L193 911Q168 872 139 891L90 923Z" />
<glyph unicode="_" glyph-name="underscore" horiz-adv-x="1100" d="M21 -390Q-24 -390 -24 -355V-295Q-24 -260 21 -260H1079Q1124 -260 1124 -295V-355Q1124 -390 1079 -390H21Z" />
<glyph unicode="`" glyph-name="grave" horiz-adv-x="614" d="M179 1383Q134 1435 193 1435H304Q359 1435 385 1398L524 1203Q562 1150 512 1150H438Q382 1150 357 1179L179 1383Z" />
<glyph unicode="a" glyph-name="a" horiz-adv-x="1067" d="M85 280Q85 458 251 541T749 638V706Q749 800 707 868T538 937Q458 937 410 922T323 881T247 815Q220 785 196 812L144 872Q122 897 159 932Q212 982 262 1007T386 1049T538 1067Q747 1067 836 960T925
665V45Q925 0 880 0H790Q751 0 751 45V94H749Q670 32 595 8T426 -17Q262 -17 174 61T85 280ZM267 276Q267 214 293 177T365 129T461 118Q538 118 607 133T749 212V507Q547 492 461 471T321 397T267 276Z" />
<glyph unicode="b" glyph-name="b" horiz-adv-x="1119" d="M187 0Q142 0 142 45V1431Q142 1476 187 1476H273Q318 1476 318 1431V986Q318 955 316 925H318Q373 991 442 1029T626 1067Q826 1067 930 904T1034 525Q1034 310 930 147T626 -17Q511 -17 442 21T318
125H316L310 45Q307 0 271 0H187ZM318 410Q318 260 389 187T569 113Q721 113 784 227T848 525Q848 709 785 823T569 937Q461 937 390 864T318 640V410Z" />
<glyph unicode="c" glyph-name="c" horiz-adv-x="1026" d="M85 525Q85 760 201 913T558 1067Q720 1067 805 1010T929 892Q950 859 920 839L857 798Q827 777 797 825Q768 871 716 904T558 937Q421 937 346 836T271 525Q271 315 346 214T558 113Q669 113 728 155T814
248Q840 295 873 275L940 235Q970 217 949 181Q924 138 836 61T558 -17Q318 -17 202 136T85 525Z" />
<glyph unicode="d" glyph-name="d" horiz-adv-x="1119" d="M85 525Q85 740 189 903T493 1067Q608 1067 677 1029T801 925H803Q801 955 801 986V1431Q801 1476 846 1476H932Q977 1476 977 1431V45Q977 0 932 0H848Q812 0 809 45L803 125H801Q746 59 677 21T493
-17Q293 -17 189 146T85 525ZM271 525Q271 341 334 227T550 113Q658 113 729 186T801 410V640Q801 790 730 863T550 937Q398 937 335 823T271 525Z" />
<glyph unicode="e" glyph-name="e" horiz-adv-x="1098" d="M85 525Q85 773 209 920T564 1067Q756 1067 882 933T1009 503Q1009 458 968 458H271Q288 265 375 190T572 114Q688 114 750 153T841 230Q873 272 903 246L962 195Q985 175 962 140Q943 111 854 47T572
-17Q322 -17 204 130T85 525ZM267 588H832Q828 728 760 833T560 939Q444 939 363 862T267 588Z" />
<glyph unicode="f" glyph-name="f" horiz-adv-x="652" d="M90 918Q45 918 45 953V1015Q45 1050 90 1050H197V1199Q197 1366 287 1429T493 1493Q562 1493 604 1486T705 1455Q727 1446 718 1423L687 1344Q679 1324 652 1336Q630 1346 598 1354T529 1363Q446 1363
410 1323T373 1170V1050H556Q601 1050 601 1015V953Q601 918 556 918H373V45Q373 0 328 0H242Q197 0 197 45V918H90Z" />
<glyph unicode="g" glyph-name="g" horiz-adv-x="1119" d="M85 525Q85 740 189 903T493 1067Q608 1067 677 1029T801 925H803L809 1005Q812 1050 848 1050H932Q977 1050 977 1005V-8Q977 -200 889 -308T539 -417Q364 -417 277 -378T153 -294Q126 -261 150 -238L205
-184Q228 -162 269 -198Q322 -246 371 -266T540 -287Q676 -287 738 -229T801 11V71Q801 102 803 132H801Q749 63 679 23T493 -17Q293 -17 189 146T85 525ZM271 525Q271 341 334 227T550 113Q658 113 729 186T801 410V640Q801 790 730 863T550 937Q398 937 335 823T271
525Z" />
<glyph unicode="h" glyph-name="h" horiz-adv-x="1128" d="M187 0Q142 0 142 45V1431Q142 1476 187 1476H273Q318 1476 318 1431V985Q318 955 316 925H320Q385 997 460 1032T647 1067Q829 1067 908 965T988 684V45Q988 0 943 0H857Q812 0 812 45V636Q812 832 747
884T582 937Q452 937 385 860T318 594V45Q318 0 273 0H187Z" />
<glyph unicode="i" glyph-name="i" horiz-adv-x="460" d="M187 0Q142 0 142 45V1005Q142 1050 187 1050H273Q318 1050 318 1005V45Q318 0 273 0H187ZM443 1240Q398 1240 398 1285V1371Q398 1416 443 1416H529Q574 1416 574 1371V1285Q574 1240 529 1240H443Z" />
<glyph unicode="j" glyph-name="j" horiz-adv-x="466" d="M-84 -397Q-106 -387 -102 -365L-85 -284Q-80 -260 -60 -269Q-21 -287 36 -287Q95 -287 121 -229T148 6V1005Q148 1050 193 1050H279Q324 1050 324 1005V-93Q324 -287 251 -352T68 -417Q-38 -417 -84 -397ZM449
1240Q404 1240 404 1285V1371Q404 1416 449 1416H535Q580 1416 580 1371V1285Q580 1240 535 1240H449Z" />
<glyph unicode="k" glyph-name="k" horiz-adv-x="1003" d="M187 0Q142 0 142 45V1431Q142 1476 187 1476H273Q318 1476 318 1431V599Q318 569 316 539H318L723 1024Q745 1050 776 1050H867Q943 1050 893 991L579 617L938 59Q976 0 912 0H814Q781 0 757 37L469
486L318 306V45Q318 0 273 0H187Z" />
<glyph unicode="l" glyph-name="l" horiz-adv-x="460" d="M187 0Q142 0 142 45V1293Q142 1313 152 1331L222 1458Q241 1493 253 1493H288Q318 1493 318 1458V45Q318 0 273 0H187Z" />
<glyph unicode="m" glyph-name="m" horiz-adv-x="1678" d="M187 0Q142 0 142 45V1005Q142 1050 187 1050H271Q316 1050 316 1005V925H320Q385 997 461 1032T607 1067Q736 1067 805 1003T895 873H899Q954 955 1038 1011T1217 1067Q1376 1067 1457 965T1538 684V45Q1538
0 1493 0H1407Q1362 0 1362 45V626Q1362 822 1313 879T1162 937Q1062 937 995 852T928 594V45Q928 0 883 0H797Q752 0 752 45V626Q752 822 703 879T552 937Q452 937 385 860T318 594V45Q318 0 273 0H187Z" />
<glyph unicode="n" glyph-name="n" horiz-adv-x="1128" d="M187 0Q142 0 142 45V1005Q142 1050 187 1050H271Q316 1050 316 1005V925H320Q385 997 460 1032T647 1067Q829 1067 908 965T988 684V45Q988 0 943 0H857Q812 0 812 45V636Q812 832 747 884T582 937Q452
937 385 860T318 594V45Q318 0 273 0H187Z" />
<glyph unicode="o" glyph-name="o" horiz-adv-x="1148" d="M85 525Q85 760 209 913T574 1067Q814 1067 938 914T1063 525Q1063 290 939 137T574 -17Q334 -17 210 136T85 525ZM271 525Q271 315 354 214T574 113Q711 113 794 214T877 525Q877 735 794 836T574 937Q437
937 354 836T271 525Z" />
<glyph unicode="p" glyph-name="p" horiz-adv-x="1119" d="M187 -400Q142 -400 142 -355V1005Q142 1050 187 1050H271Q307 1050 310 1005L316 925H318Q373 991 442 1029T626 1067Q826 1067 930 904T1034 525Q1034 310 930 147T626 -17Q511 -17 442 21T318 125H316Q318
95 318 64V-355Q318 -400 273 -400H187ZM318 410Q318 260 389 187T569 113Q721 113 784 227T848 525Q848 709 785 823T569 937Q461 937 390 864T318 640V410Z" />
<glyph unicode="q" glyph-name="q" horiz-adv-x="1119" d="M85 525Q85 740 189 903T493 1067Q608 1067 677 1029T801 925H803L809 1005Q812 1050 848 1050H932Q977 1050 977 1005V-355Q977 -400 932 -400H846Q801 -400 801 -355V64Q801 95 803 125H801Q746 59
677 21T493 -17Q293 -17 189 146T85 525ZM271 525Q271 341 334 227T550 113Q658 113 729 186T801 410V640Q801 790 730 863T550 937Q398 937 335 823T271 525Z" />
<glyph unicode="r" glyph-name="r" horiz-adv-x="722" d="M187 0Q142 0 142 45V1005Q142 1050 187 1050H271Q316 1050 316 1005V885H320Q368 975 433 1021T595 1067Q659 1067 685 1056Q708 1047 702 1026L679 944Q674 926 653 930Q618 937 587 937Q470 937 394
832T318 544V45Q318 0 273 0H187Z" />
<glyph unicode="s" glyph-name="s" horiz-adv-x="944" d="M83 98Q52 127 70 152L115 215Q137 245 180 212Q239 167 311 140T477 113Q532 113 575 126T650 177T683 276Q683 312 668 344T620 395T556 426Q505 445 455 457T322 496Q267 513 218 544T133 630T96 779Q96
876 155 946T303 1041T476 1067Q600 1067 675 1039T806 971Q838 948 815 918L770 858Q749 829 705 860Q668 886 600 909T481 932Q418 932 373 918T300 870T272 790Q272 755 283 728T324 677T408 640Q492 618 561 600T687 556Q760 522 799 481T854 393T869 287Q869
180 806 106T664 8T476 -17Q327 -17 221 25T83 98Z" />
<glyph unicode="t" glyph-name="t" horiz-adv-x="757" d="M91 918Q46 918 46 953V1015Q46 1050 91 1050H209V1140Q209 1160 219 1178L289 1305Q308 1340 320 1340H355Q385 1340 385 1305V1050H598Q643 1050 643 1015V953Q643 918 598 918H385V281Q385 176 416
145T492 113Q526 113 573 133T639 167Q657 181 667 158L700 81Q708 61 688 49Q649 26 574 5T424 -17Q320 -17 265 58T209 270V918H91Z" />
<glyph unicode="u" glyph-name="u" horiz-adv-x="1120" d="M140 366V1005Q140 1050 185 1050H271Q316 1050 316 1005V414Q316 218 381 166T542 113Q668 113 735 190T802 456V1005Q802 1050 847 1050H933Q978 1050 978 1005V45Q978 0 933 0H849Q804 0 804 45V125H800Q735
53 660 18T477 -17Q302 -17 221 85T140 366Z" />
<glyph unicode="v" glyph-name="v" horiz-adv-x="986" d="M45 1001Q28 1050 72 1050H181Q213 1050 226 1011L438 351Q464 270 473 240T491 164H495Q503 209 512 239T548 351L760 1011Q773 1050 805 1050H914Q958 1050 941 1001L613 61Q592 0 559 0H427Q394 0 373
61L45 1001Z" />
<glyph unicode="w" glyph-name="w" horiz-adv-x="1444" d="M45 1001Q32 1050 72 1050H177Q213 1050 222 1011L369 351Q376 322 390 260T411 169H415Q420 197 432 253T456 351L632 1011Q642 1050 677 1050H767Q802 1050 812 1011L988 351Q999 309 1011 253T1029
169H1033Q1039 198 1053 260T1075 351L1222 1011Q1231 1050 1267 1050H1372Q1412 1050 1399 1001L1151 61Q1135 0 1097 0H977Q939 0 923 61L753 722Q735 792 731 820T723 873H721Q718 848 714 820T691 722L521 61Q505 0 467 0H347Q309 0 293 61L45 1001Z" />
<glyph unicode="x" glyph-name="x" horiz-adv-x="974" d="M76 0Q9 0 50 59L391 553L88 991Q47 1050 114 1050H212Q248 1050 265 1024L486 676L706 1024Q722 1050 759 1050H858Q925 1050 884 991L581 553L922 59Q963 0 896 0H798Q762 0 745 26L486 431L227 26Q210
0 174 0H76Z" />
<glyph unicode="y" glyph-name="y" horiz-adv-x="990" d="M51 1001Q33 1050 78 1050H187Q220 1050 232 1011L442 351Q451 324 469 267T496 164H498Q506 209 517 245T552 351L764 1011Q777 1050 809 1050H918Q963 1050 945 1001L608 61Q513 -204 438 -310T214 -417Q136
-417 90 -394Q69 -384 76 -363L102 -282Q109 -261 129 -270Q170 -287 208 -287Q278 -287 322 -212T392 -60L412 -1L51 1001Z" />
<glyph unicode="z" glyph-name="z" horiz-adv-x="950" d="M100 0Q55 0 55 35V86Q55 120 90 166L668 918V920Q638 918 608 918H124Q79 918 79 953V1015Q79 1050 124 1050H826Q871 1050 871 1015V968Q871 938 834 890L252 132V130Q282 132 312 132H850Q895 132 895
97V35Q895 0 850 0H100Z" />
<glyph unicode="{" glyph-name="braceleft" horiz-adv-x="776" d="M125 479Q90 479 90 524V564Q90 609 125 609Q197 609 273 683T350 931V1166Q350 1335 413 1415T661 1496Q706 1496 706 1461V1401Q706 1366 661 1366Q563 1366 545 1325T526 1189V903Q526 698
435 626T279 545V543Q343 534 434 462T526 185V-101Q526 -196 544 -237T661 -278Q706 -278 706 -313V-373Q706 -408 661 -408Q476 -408 413 -328T350 -78V157Q350 330 274 404T125 479Z" />
<glyph unicode="|" glyph-name="bar" horiz-adv-x="590" d="M265 -440Q230 -440 230 -395V1451Q230 1496 265 1496H325Q360 1496 360 1451V-395Q360 -440 325 -440H265Z" />
<glyph unicode="}" glyph-name="braceright" horiz-adv-x="776" d="M115 -408Q70 -408 70 -373V-313Q70 -278 115 -278Q213 -278 231 -237T250 -101V185Q250 390 341 462T497 543V545Q433 554 342 626T250 903V1189Q250 1284 232 1325T115 1366Q70 1366 70 1401V1461Q70
1496 115 1496Q300 1496 363 1416T426 1166V931Q426 758 502 684T651 609Q686 609 686 564V524Q686 479 651 479Q579 479 503 405T426 157V-78Q426 -247 363 -327T115 -408Z" />
<glyph unicode="~" glyph-name="asciitilde" horiz-adv-x="1280" d="M101 628Q77 636 88 671Q123 781 204 845T400 910Q515 910 678 790T917 670Q986 670 1030 715T1099 816Q1112 846 1136 837L1179 822Q1203 814 1192 779Q1157 669 1076 605T880 540Q765 540
602 660T363 780Q294 780 250 735T181 634Q168 604 144 613L101 628Z" />
<glyph unicode="&#xa0;" glyph-name="nbsp" horiz-adv-x="682" />
<glyph unicode="&#xa1;" glyph-name="exclamdown" horiz-adv-x="600" d="M248 -384Q198 -384 198 -329L219 615Q219 660 264 660H336Q381 660 381 615L402 -329Q402 -384 352 -384H248ZM244 838Q199 838 199 883V1005Q199 1050 244 1050H356Q401 1050 401 1005V883Q401
838 356 838H244Z" />
<glyph unicode="&#xa2;" glyph-name="cent" horiz-adv-x="1110" d="M128 525Q128 760 236 902T536 1064V1252Q536 1297 571 1297H621Q656 1297 656 1252V1065Q778 1057 856 1005T972 892Q993 859 963 839L900 798Q870 777 840 825Q811 871 766 899T656 934V116Q728
124 779 161T857 248Q883 295 916 275L983 235Q1013 217 992 181Q967 138 885 67T656 -15V-202Q656 -247 621 -247H571Q536 -247 536 -202V-14Q345 5 237 147T128 525ZM314 525Q314 315 379 227T536 119V931Q445 912 380 824T314 525Z" />
<glyph unicode="&#xa3;" glyph-name="sterling" horiz-adv-x="1110" d="M134 0Q79 0 79 45V102Q79 138 114 175Q144 207 212 279T281 475V628H123Q79 628 79 673V747Q79 792 124 792H281V1013Q281 1250 388 1351T690 1452Q798 1452 876 1419T1001 1339Q1036 1304
1014 1278L969 1226Q939 1191 902 1228Q870 1260 815 1281T681 1302Q585 1302 521 1250T457 1035V792H742Q787 792 787 747V673Q787 628 743 628H457V495Q457 354 411 274T319 166V162Q346 164 399 164H971Q1026 164 1026 119V45Q1026 0 971 0H134Z" />
<glyph unicode="&#xa4;" glyph-name="currency" horiz-adv-x="1110" d="M90 289Q64 313 95 346L226 486Q152 592 152 728Q152 864 226 970L95 1110Q64 1143 90 1167L127 1201Q153 1225 183 1192L307 1059Q411 1144 555 1144Q699 1144 803 1059L927 1192Q957 1225
983 1201L1020 1167Q1046 1143 1015 1110L884 970Q958 864 958 728Q958 592 884 486L1015 346Q1046 313 1020 289L983 255Q957 231 927 264L803 397Q699 312 555 312Q411 312 307 397L183 264Q153 231 127 255L90 289ZM285 728Q285 611 360 527T555 442Q675 442
750 526T825 728Q825 845 750 929T555 1014Q435 1014 360 930T285 728Z" />
<glyph unicode="&#xa5;" glyph-name="yen" horiz-adv-x="1110" d="M15 1368Q-23 1434 42 1434H134Q181 1434 206 1385L432 948Q472 871 498 820T553 709H557Q585 769 611 820T678 948L904 1385Q929 1434 976 1434H1068Q1133 1434 1095 1368L730 739H906Q951 739
951 694V635Q951 590 906 590H643V409H906Q951 409 951 364V305Q951 260 906 260H643V45Q643 0 598 0H512Q467 0 467 45V260H194Q149 260 149 305V364Q149 409 194 409H467V590H194Q149 590 149 635V694Q149 739 194 739H380L15 1368Z" />
<glyph unicode="&#xa6;" glyph-name="brokenbar" horiz-adv-x="590" d="M265 -338Q230 -338 230 -293V351Q230 396 265 396H325Q360 396 360 351V-293Q360 -338 325 -338H265ZM265 660Q230 660 230 705V1349Q230 1394 265 1394H325Q360 1394 360 1349V705Q360
660 325 660H265Z" />
<glyph unicode="&#xa7;" glyph-name="section" horiz-adv-x="1160" d="M110 581Q110 703 184 793T357 957Q274 1060 274 1155Q274 1293 366 1378T606 1464Q706 1464 776 1431T882 1350Q908 1317 886 1295L831 1239Q811 1219 786 1253Q765 1281 723 1307T615 1334Q532
1334 494 1292T456 1185Q456 1062 753 860T1050 509Q1050 387 976 297T803 133Q886 30 886 -65Q886 -203 794 -288T554 -374Q454 -374 384 -341T278 -260Q252 -227 274 -205L329 -149Q349 -129 374 -163Q395 -191 437 -217T545 -244Q628 -244 666 -202T704 -95Q704
28 407 230T110 581ZM281 646Q281 535 471 404T720 219L814 304Q879 363 879 444Q879 555 689 686T440 871L346 786Q281 727 281 646Z" />
<glyph unicode="&#xa8;" glyph-name="dieresis" horiz-adv-x="614" d="M61 1240Q16 1240 16 1285V1371Q16 1416 61 1416H147Q192 1416 192 1371V1285Q192 1240 147 1240H61ZM467 1240Q422 1240 422 1285V1371Q422 1416 467 1416H553Q598 1416 598 1371V1285Q598
1240 553 1240H467Z" />
<glyph unicode="&#xa9;" glyph-name="copyright" horiz-adv-x="1654" d="M80 717Q80 869 139 1007T299 1245T537 1404T827 1464Q979 1464 1117 1405T1355 1245T1514 1007T1574 717Q1574 565 1515 427T1355 189T1117 30T827 -30Q675 -30 537 29T299 189T140 427T80
717ZM180 717Q180 585 231 466T369 260T575 120T827 66Q959 66 1078 119T1284 259T1422 465T1474 717Q1474 849 1423 968T1285 1174T1079 1314T827 1368Q695 1368 576 1315T370 1175T232 969T180 717ZM430 717Q430 920 533 1035T825 1150Q935 1150 1009 1112T1115
1009Q1131 975 1110 963L1052 931Q1029 918 1011 953Q992 990 952 1017T830 1045Q685 1045 623 962T560 717Q560 555 622 472T830 389Q914 389 960 423T1030 500Q1048 533 1072 520L1132 487Q1153 475 1135 440Q1101 373 1022 329T825 284Q637 284 534 399T430
717Z" />
<glyph unicode="&#xaa;" glyph-name="ordfeminine" horiz-adv-x="738" d="M58 978Q58 1106 165 1157T497 1224V1248Q497 1316 465 1352T348 1388Q282 1388 248 1374T177 1327Q157 1309 142 1325L95 1375Q79 1392 105 1414Q160 1460 229 1476T366 1493Q502 1493
565 1423T629 1221V828Q629 799 598 799H525Q499 799 499 828V860H497Q442 818 398 803T290 788Q186 788 122 837T58 978ZM196 985Q196 942 222 919T313 896Q354 896 400 906T497 950V1119Q294 1106 245 1068T196 985Z" />
<glyph unicode="&#xab;" glyph-name="guillemotleft" horiz-adv-x="1032" d="M121 517Q102 540 121 563L453 953Q475 979 496 961L544 918Q563 901 541 874L259 540L541 206Q563 179 544 162L496 119Q475 101 453 127L121 517ZM471 517Q452 540 471 563L803 953Q825
979 846 961L894 918Q913 901 891 874L609 540L891 206Q913 179 894 162L846 119Q825 101 803 127L471 517Z" />
<glyph unicode="&#xac;" glyph-name="logicalnot" horiz-adv-x="1110" d="M125 808Q80 808 80 843V893Q80 928 125 928H985Q1030 928 1030 893V473Q1030 428 995 428H945Q910 428 910 473V808H125Z" />
<glyph unicode="&#xad;" glyph-name="uni00AD" horiz-adv-x="680" d="M101 483Q56 483 56 518V588Q56 623 101 623H579Q624 623 624 588V518Q624 483 579 483H101Z" />
<glyph unicode="&#xae;" glyph-name="registered" horiz-adv-x="1654" d="M80 717Q80 869 139 1007T299 1245T537 1404T827 1464Q979 1464 1117 1405T1355 1245T1514 1007T1574 717Q1574 565 1515 427T1355 189T1117 30T827 -30Q675 -30 537 29T299 189T140 427T80
717ZM180 717Q180 585 231 466T369 260T575 120T827 66Q959 66 1078 119T1284 259T1422 465T1474 717Q1474 849 1423 968T1285 1174T1079 1314T827 1368Q695 1368 576 1315T370 1175T232 969T180 717ZM569 283Q540 283 540 315V1083Q540 1115 569 1115H849Q1017
1115 1092 1052T1167 887Q1167 797 1109 735T934 658V657Q991 622 1011 598T1055 534L1186 322Q1210 283 1175 283H1099Q1073 283 1059 306L943 503Q920 542 868 587T742 633H660V315Q660 283 631 283H569ZM660 743H809Q922 743 982 775T1042 884Q1042 954 987
979T837 1005H660V743Z" />
<glyph unicode="&#xaf;" glyph-name="overscore" horiz-adv-x="614" d="M43 1240Q-2 1240 -2 1275V1315Q-2 1350 43 1350H571Q616 1350 616 1315V1275Q616 1240 571 1240H43Z" />
<glyph unicode="&#xb0;" glyph-name="degree" horiz-adv-x="560" d="M80 1240Q80 1323 138 1381T280 1440Q363 1440 421 1382T480 1240Q480 1157 422 1099T280 1040Q197 1040 139 1098T80 1240ZM180 1240Q180 1198 209 1169T280 1140Q322 1140 351 1169T380 1240Q380
1282 351 1311T280 1340Q238 1340 209 1311T180 1240Z" />
<glyph unicode="&#xb1;" glyph-name="plusminus" horiz-adv-x="1280" d="M125 -60Q80 -60 80 -25V25Q80 60 125 60H1155Q1200 60 1200 25V-25Q1200 -60 1155 -60H125ZM125 665Q80 665 80 700V750Q80 785 125 785H579V1240Q579 1285 614 1285H664Q699 1285 699
1240V785H1155Q1200 785 1200 750V700Q1200 665 1155 665H699V210Q699 165 664 165H614Q579 165 579 210V665H125Z" />
<glyph unicode="&#xb2;" glyph-name="uni00B2" horiz-adv-x="590" d="M77 712Q49 712 49 735V776Q49 797 66 814L270 1019Q369 1120 388 1161T407 1258Q407 1295 378 1330T288 1366Q250 1366 212 1346T152 1259Q143 1231 121 1236L64 1249Q48 1253 57 1293Q72
1361 130 1413T284 1466Q418 1466 474 1412T531 1255Q531 1179 489 1116T356 964L211 820V817Q232 819 252 819H510Q539 819 539 796V735Q539 712 510 712H77Z" />
<glyph unicode="&#xb3;" glyph-name="uni00B3" horiz-adv-x="594" d="M57 789Q35 814 48 828L90 872Q108 891 132 862Q162 825 196 811T268 796Q350 796 382 836T415 931Q415 989 370 1026T270 1063H224Q201 1063 201 1080V1140Q201 1158 224 1158H261Q312 1158
351 1190T390 1287Q390 1315 359 1340T275 1366Q232 1366 198 1354T145 1319Q124 1295 107 1311L66 1349Q52 1362 77 1392Q104 1424 155 1445T277 1466Q390 1466 450 1422T510 1280Q510 1209 464 1168T369 1116V1114Q425 1106 482 1059T539 929Q539 821 471 759T265
696Q186 696 135 727T57 789Z" />
<glyph unicode="&#xb4;" glyph-name="acute" horiz-adv-x="614" d="M191 1150Q141 1150 179 1203L318 1398Q344 1435 399 1435H510Q569 1435 524 1383L346 1179Q321 1150 265 1150H191Z" />
<glyph unicode="&#xb5;" glyph-name="uni00B5" horiz-adv-x="1160" d="M193 -417Q148 -417 148 -372V1004Q148 1049 193 1049H279Q324 1049 324 1004V455Q324 300 396 206T588 112Q684 112 763 200T842 456V1005Q842 1050 887 1050H973Q1018 1050 1018 1005V45Q1018
0 973 0H889Q844 0 844 45V125H840Q774 46 708 14T572 -18Q502 -18 442 14T326 124H322Q324 94 324 64V-372Q324 -417 279 -417H193Z" />
<glyph unicode="&#xb6;" glyph-name="paragraph" horiz-adv-x="1022" d="M80 1084Q80 1226 184 1330T430 1434H525Q560 1434 560 1389V-325Q560 -370 525 -370H465Q430 -370 430 -325V734Q288 734 184 838T80 1084ZM785 -370Q750 -370 750 -325V1389Q750 1434
785 1434H845Q880 1434 880 1389V-325Q880 -370 845 -370H785Z" />
<glyph unicode="&#xb7;" glyph-name="middot" horiz-adv-x="600" d="M244 619Q199 619 199 664V786Q199 831 244 831H356Q401 831 401 786V664Q401 619 356 619H244Z" />
<glyph unicode="&#xb8;" glyph-name="cedilla" horiz-adv-x="614" d="M120 -396Q99 -390 106 -361L116 -322Q124 -292 154 -302Q196 -316 238 -316Q286 -316 312 -299T339 -248Q339 -218 309 -204T230 -189H202Q178 -189 178 -164Q178 -126 188 -109L252 0Q265
22 292 22H352Q384 22 371 0L315 -96V-99Q394 -105 428 -152T463 -251Q463 -327 404 -371T246 -416Q191 -416 120 -396Z" />
<glyph unicode="&#xb9;" glyph-name="uni00B9" horiz-adv-x="480" d="M79 1315Q72 1329 91 1339Q114 1351 158 1379T229 1441Q244 1460 258 1460H330Q354 1460 354 1437V735Q354 712 330 712H258Q234 712 234 735V1294Q234 1309 236 1325H234Q218 1305 189 1284T134
1252Q112 1243 104 1261L79 1315Z" />
<glyph unicode="&#xba;" glyph-name="ordmasculine" horiz-adv-x="780" d="M58 1140Q58 1300 144 1396T390 1493Q550 1493 636 1397T722 1140Q722 980 636 884T390 788Q230 788 144 884T58 1140ZM196 1140Q196 1010 250 953T390 896Q475 896 529 953T584 1140Q584
1270 530 1327T390 1385Q305 1385 251 1328T196 1140Z" />
<glyph unicode="&#xbb;" glyph-name="guillemotright" horiz-adv-x="1032" d="M138 162Q119 179 141 206L423 540L141 874Q119 901 138 918L186 961Q207 979 229 953L561 563Q580 540 561 517L229 127Q207 101 186 119L138 162ZM488 162Q469 179 491 206L773 540L491
874Q469 901 488 918L536 961Q557 979 579 953L911 563Q930 540 911 517L579 127Q557 101 536 119L488 162Z" />
<glyph unicode="&#xbc;" glyph-name="onequarter" horiz-adv-x="1736" d="M199 1315Q192 1329 211 1339Q234 1351 278 1379T349 1441Q364 1460 378 1460H450Q474 1460 474 1437V735Q474 712 450 712H378Q354 712 354 735V1294Q354 1309 356 1325H354Q338 1305
309 1284T254 1252Q232 1243 224 1261L199 1315ZM1098 173Q1074 173 1074 196V264Q1074 280 1087 300L1368 729Q1380 748 1397 748H1478Q1502 748 1502 725V280H1572Q1595 280 1595 257V196Q1595 173 1573 173H1502V23Q1502 0 1479 0H1405Q1382 0 1382 23V173H1098ZM1193
280H1382V552Q1382 568 1385 583H1382L1193 280ZM354 -50Q324 -32 348 6L1286 1507Q1310 1545 1340 1527L1382 1500Q1412 1482 1388 1444L450 -57Q426 -95 396 -77L354 -50Z" />
<glyph unicode="&#xbd;" glyph-name="onehalf" horiz-adv-x="1736" d="M1136 0Q1108 0 1108 23V64Q1108 85 1125 102L1329 307Q1428 408 1447 449T1466 546Q1466 583 1437 618T1347 654Q1309 654 1271 634T1211 547Q1202 519 1180 524L1123 537Q1107 541 1116
581Q1131 649 1189 701T1343 754Q1477 754 1533 700T1590 543Q1590 467 1548 404T1415 252L1270 108V105Q1291 107 1311 107H1569Q1598 107 1598 84V23Q1598 0 1569 0H1136ZM199 1315Q192 1329 211 1339Q234 1351 278 1379T349 1441Q364 1460 378 1460H450Q474
1460 474 1437V735Q474 712 450 712H378Q354 712 354 735V1294Q354 1309 356 1325H354Q338 1305 309 1284T254 1252Q232 1243 224 1261L199 1315ZM354 -50Q324 -32 348 6L1286 1507Q1310 1545 1340 1527L1382 1500Q1412 1482 1388 1444L450 -57Q426 -95 396 -77L354
-50Z" />
<glyph unicode="&#xbe;" glyph-name="threequarters" horiz-adv-x="1736" d="M1071 173Q1047 173 1047 196V264Q1047 280 1060 300L1341 729Q1353 748 1370 748H1451Q1475 748 1475 725V280H1545Q1568 280 1568 257V196Q1568 173 1546 173H1475V23Q1475 0 1452
0H1378Q1355 0 1355 23V173H1071ZM1166 280H1355V552Q1355 568 1358 583H1355L1166 280ZM148 789Q126 814 139 828L181 872Q199 891 223 862Q253 825 287 811T359 796Q441 796 473 836T506 931Q506 989 461 1026T361 1063H315Q292 1063 292 1080V1140Q292 1158
315 1158H352Q403 1158 442 1190T481 1287Q481 1315 450 1340T366 1366Q323 1366 289 1354T236 1319Q215 1295 198 1311L157 1349Q143 1362 168 1392Q195 1424 246 1445T368 1466Q481 1466 541 1422T601 1280Q601 1209 555 1168T460 1116V1114Q516 1106 573 1059T630
929Q630 821 562 759T356 696Q277 696 226 727T148 789ZM354 -50Q324 -32 348 6L1286 1507Q1310 1545 1340 1527L1382 1500Q1412 1482 1388 1444L450 -57Q426 -95 396 -77L354 -50Z" />
<glyph unicode="&#xbf;" glyph-name="questiondown" horiz-adv-x="1016" d="M106 -38Q106 105 272 289T439 612V635Q439 680 484 680H570Q615 680 615 635V598Q615 429 459 251T302 -44Q302 -166 359 -215T516 -264Q626 -264 681 -224T766 -115Q789 -61 831 -80L905
-114Q936 -128 908 -200Q881 -267 790 -340T523 -414Q308 -414 207 -312T106 -38ZM472 838Q427 838 427 883V1005Q427 1050 472 1050H584Q629 1050 629 1005V883Q629 838 584 838H472Z" />
<glyph unicode="&#xc0;" glyph-name="Agrave" horiz-adv-x="1360" d="M447 1733Q384 1785 461 1785H618Q667 1785 699 1748L832 1593Q877 1540 820 1540H726Q680 1540 645 1569L447 1733ZM73 0Q21 0 46 66L544 1373Q567 1434 610 1434H750Q793 1434 816 1373L1314
66Q1339 0 1287 0H1185Q1132 0 1113 49L988 380H372L247 49Q228 0 175 0H73ZM435 544H925L772 944Q751 1000 731 1068T682 1261H678Q650 1136 630 1068T588 944L435 544Z" />
<glyph unicode="&#xc1;" glyph-name="Aacute" horiz-adv-x="1360" d="M540 1540Q483 1540 528 1593L661 1748Q693 1785 742 1785H899Q976 1785 913 1733L715 1569Q680 1540 634 1540H540ZM73 0Q21 0 46 66L544 1373Q567 1434 610 1434H750Q793 1434 816 1373L1314
66Q1339 0 1287 0H1185Q1132 0 1113 49L988 380H372L247 49Q228 0 175 0H73ZM435 544H925L772 944Q751 1000 731 1068T682 1261H678Q650 1136 630 1068T588 944L435 544Z" />
<glyph unicode="&#xc2;" glyph-name="Acircumflex" horiz-adv-x="1360" d="M312 1580Q297 1612 338 1631L581 1744Q620 1762 645 1762H715Q740 1762 779 1744L1022 1631Q1063 1612 1048 1580L1025 1530Q1010 1498 969 1517L681 1649H679L391 1517Q350 1498 335
1530L312 1580ZM73 0Q21 0 46 66L544 1373Q567 1434 610 1434H750Q793 1434 816 1373L1314 66Q1339 0 1287 0H1185Q1132 0 1113 49L988 380H372L247 49Q228 0 175 0H73ZM435 544H925L772 944Q751 1000 731 1068T682 1261H678Q650 1136 630 1068T588 944L435 544Z"
/>
<glyph unicode="&#xc3;" glyph-name="Atilde" horiz-adv-x="1360" d="M320 1575Q297 1588 311 1620Q339 1685 396 1728T543 1771Q618 1771 702 1722T830 1673Q878 1673 911 1700T960 1752Q979 1781 998 1770L1040 1745Q1063 1732 1049 1700Q1021 1635 964 1592T817
1549Q742 1549 658 1598T530 1647Q482 1647 449 1620T400 1568Q381 1539 362 1550L320 1575ZM73 0Q21 0 46 66L544 1373Q567 1434 610 1434H750Q793 1434 816 1373L1314 66Q1339 0 1287 0H1185Q1132 0 1113 49L988 380H372L247 49Q228 0 175 0H73ZM435 544H925L772
944Q751 1000 731 1068T682 1261H678Q650 1136 630 1068T588 944L435 544Z" />
<glyph unicode="&#xc4;" glyph-name="Adieresis" horiz-adv-x="1360" d="M73 0Q21 0 46 66L544 1373Q567 1434 610 1434H750Q793 1434 816 1373L1314 66Q1339 0 1287 0H1185Q1132 0 1113 49L988 380H372L247 49Q228 0 175 0H73ZM435 544H925L772 944Q751 1000
731 1068T682 1261H678Q650 1136 630 1068T588 944L435 544ZM395 1550Q350 1550 350 1595V1687Q350 1732 395 1732H487Q532 1732 532 1687V1595Q532 1550 487 1550H395ZM873 1550Q828 1550 828 1595V1687Q828 1732 873 1732H965Q1010 1732 1010 1687V1595Q1010
1550 965 1550H873Z" />
<glyph unicode="&#xc5;" glyph-name="Aring" horiz-adv-x="1360" d="M498 1647Q498 1722 550 1771T680 1820Q758 1820 810 1770T862 1647Q862 1574 810 1524T680 1474Q602 1474 550 1523T498 1647ZM576 1647Q576 1605 605 1577T680 1548Q726 1548 755 1576T784
1647Q784 1689 755 1717T680 1746Q634 1746 605 1718T576 1647ZM73 0Q21 0 46 66L544 1373Q567 1434 610 1434H750Q793 1434 816 1373L1314 66Q1339 0 1287 0H1185Q1132 0 1113 49L988 380H372L247 49Q228 0 175 0H73ZM435 544H925L772 944Q751 1000 731 1068T682
1261H678Q650 1136 630 1068T588 944L435 544Z" />
<glyph unicode="&#xc6;" glyph-name="AE" horiz-adv-x="1957" d="M73 0Q14 0 46 66L690 1382Q715 1434 758 1434H1782Q1837 1434 1837 1389V1315Q1837 1270 1782 1270H1089V826H1722Q1777 826 1777 781V707Q1777 662 1722 662H1089V164H1812Q1867 164 1867 119V45Q1867
0 1812 0H947Q897 0 897 55V380H408L248 49Q224 0 180 0H73ZM489 544H897V1270H827Q810 1211 790 1164T738 1053L489 544Z" />
<glyph unicode="&#xc7;" glyph-name="Ccedilla" horiz-adv-x="1402" d="M92 717Q92 1067 265 1265T764 1464Q954 1464 1078 1400T1256 1223Q1284 1165 1247 1143L1168 1097Q1128 1074 1097 1135Q1064 1198 989 1253T774 1308Q524 1308 411 1153T297 717Q297 437
410 282T774 126Q918 126 1004 192T1130 330Q1161 388 1202 365L1285 318Q1321 297 1291 238Q1232 123 1099 47T764 -30Q439 -30 266 168T92 717ZM579 -396Q558 -390 565 -361L575 -322Q583 -292 613 -302Q655 -316 697 -316Q745 -316 771 -299T798 -248Q798 -218
768 -204T689 -189H661Q637 -189 637 -164Q637 -126 647 -109L711 0Q724 22 751 22H811Q843 22 830 0L774 -96V-99Q853 -105 887 -152T922 -251Q922 -327 863 -371T705 -416Q650 -416 579 -396Z" />
<glyph unicode="&#xc8;" glyph-name="Egrave" horiz-adv-x="1270" d="M442 1733Q379 1785 456 1785H613Q662 1785 694 1748L827 1593Q872 1540 815 1540H721Q675 1540 640 1569L442 1733ZM220 0Q170 0 170 55V1379Q170 1434 220 1434H1095Q1150 1434 1150 1389V1315Q1150
1270 1095 1270H362V826H1035Q1090 826 1090 781V707Q1090 662 1035 662H362V164H1125Q1180 164 1180 119V45Q1180 0 1125 0H220Z" />
<glyph unicode="&#xc9;" glyph-name="Eacute" horiz-adv-x="1270" d="M535 1540Q478 1540 523 1593L656 1748Q688 1785 737 1785H894Q971 1785 908 1733L710 1569Q675 1540 629 1540H535ZM220 0Q170 0 170 55V1379Q170 1434 220 1434H1095Q1150 1434 1150 1389V1315Q1150
1270 1095 1270H362V826H1035Q1090 826 1090 781V707Q1090 662 1035 662H362V164H1125Q1180 164 1180 119V45Q1180 0 1125 0H220Z" />
<glyph unicode="&#xca;" glyph-name="Ecircumflex" horiz-adv-x="1270" d="M307 1580Q292 1612 333 1631L576 1744Q615 1762 640 1762H710Q735 1762 774 1744L1017 1631Q1058 1612 1043 1580L1020 1530Q1005 1498 964 1517L676 1649H674L386 1517Q345 1498 330
1530L307 1580ZM220 0Q170 0 170 55V1379Q170 1434 220 1434H1095Q1150 1434 1150 1389V1315Q1150 1270 1095 1270H362V826H1035Q1090 826 1090 781V707Q1090 662 1035 662H362V164H1125Q1180 164 1180 119V45Q1180 0 1125 0H220Z" />
<glyph unicode="&#xcb;" glyph-name="Edieresis" horiz-adv-x="1270" d="M390 1550Q345 1550 345 1595V1687Q345 1732 390 1732H482Q527 1732 527 1687V1595Q527 1550 482 1550H390ZM868 1550Q823 1550 823 1595V1687Q823 1732 868 1732H960Q1005 1732 1005 1687V1595Q1005
1550 960 1550H868ZM220 0Q170 0 170 55V1379Q170 1434 220 1434H1095Q1150 1434 1150 1389V1315Q1150 1270 1095 1270H362V826H1035Q1090 826 1090 781V707Q1090 662 1035 662H362V164H1125Q1180 164 1180 119V45Q1180 0 1125 0H220Z" />
<glyph unicode="&#xcc;" glyph-name="Igrave" horiz-adv-x="532" d="M33 1733Q-30 1785 47 1785H204Q253 1785 285 1748L418 1593Q463 1540 406 1540H312Q266 1540 231 1569L33 1733ZM220 0Q170 0 170 55V1379Q170 1434 220 1434H312Q362 1434 362 1379V55Q362
0 312 0H220Z" />
<glyph unicode="&#xcd;" glyph-name="Iacute" horiz-adv-x="532" d="M126 1540Q69 1540 114 1593L247 1748Q279 1785 328 1785H485Q562 1785 499 1733L301 1569Q266 1540 220 1540H126ZM220 0Q170 0 170 55V1379Q170 1434 220 1434H312Q362 1434 362 1379V55Q362
0 312 0H220Z" />
<glyph unicode="&#xce;" glyph-name="Icircumflex" horiz-adv-x="532" d="M-102 1580Q-117 1612 -76 1631L167 1744Q206 1762 231 1762H301Q326 1762 365 1744L608 1631Q649 1612 634 1580L611 1530Q596 1498 555 1517L267 1649H265L-23 1517Q-64 1498 -79 1530L-102
1580ZM220 0Q170 0 170 55V1379Q170 1434 220 1434H312Q362 1434 362 1379V55Q362 0 312 0H220Z" />
<glyph unicode="&#xcf;" glyph-name="Idieresis" horiz-adv-x="532" d="M220 0Q170 0 170 55V1379Q170 1434 220 1434H312Q362 1434 362 1379V55Q362 0 312 0H220ZM23 1550Q-22 1550 -22 1595V1687Q-22 1732 23 1732H115Q160 1732 160 1687V1595Q160 1550 115
1550H23ZM417 1550Q372 1550 372 1595V1687Q372 1732 417 1732H509Q554 1732 554 1687V1595Q554 1550 509 1550H417Z" />
<glyph unicode="&#xd0;" glyph-name="Eth" horiz-adv-x="1486" d="M95 654Q40 654 40 699V773Q40 818 95 818H220V1379Q220 1434 270 1434H639Q1063 1434 1228 1247T1394 719Q1394 379 1229 190T639 0H270Q220 0 220 55V654H95ZM412 164H630Q960 164 1074 304T1189
719Q1189 994 1075 1133T630 1272H412V818H723Q778 818 778 773V699Q778 654 723 654H412V164Z" />
<glyph unicode="&#xd1;" glyph-name="Ntilde" horiz-adv-x="1438" d="M359 1575Q336 1588 350 1620Q378 1685 435 1728T582 1771Q657 1771 741 1722T869 1673Q917 1673 950 1700T999 1752Q1018 1781 1037 1770L1079 1745Q1102 1732 1088 1700Q1060 1635 1003 1592T856
1549Q781 1549 697 1598T569 1647Q521 1647 488 1620T439 1568Q420 1539 401 1550L359 1575ZM220 0Q170 0 170 55V1379Q170 1434 220 1434H348Q418 1434 448 1384L1074 335H1078Q1076 375 1076 415V1379Q1076 1434 1126 1434H1218Q1268 1434 1268 1379V55Q1268
0 1218 0H1130Q1060 0 1030 50L364 1163H360Q362 1123 362 1083V55Q362 0 312 0H220Z" />
<glyph unicode="&#xd2;" glyph-name="Ograve" horiz-adv-x="1524" d="M529 1733Q466 1785 543 1785H700Q749 1785 781 1748L914 1593Q959 1540 902 1540H808Q762 1540 727 1569L529 1733ZM92 717Q92 1067 264 1265T762 1464Q1087 1464 1259 1266T1432 717Q1432
367 1260 169T762 -30Q437 -30 265 168T92 717ZM297 717Q297 437 412 282T762 126Q997 126 1112 281T1227 717Q1227 997 1112 1152T762 1308Q527 1308 412 1153T297 717Z" />
<glyph unicode="&#xd3;" glyph-name="Oacute" horiz-adv-x="1524" d="M92 717Q92 1067 264 1265T762 1464Q1087 1464 1259 1266T1432 717Q1432 367 1260 169T762 -30Q437 -30 265 168T92 717ZM297 717Q297 437 412 282T762 126Q997 126 1112 281T1227 717Q1227
997 1112 1152T762 1308Q527 1308 412 1153T297 717ZM622 1540Q565 1540 610 1593L743 1748Q775 1785 824 1785H981Q1058 1785 995 1733L797 1569Q762 1540 716 1540H622Z" />
<glyph unicode="&#xd4;" glyph-name="Ocircumflex" horiz-adv-x="1524" d="M394 1580Q379 1612 420 1631L663 1744Q702 1762 727 1762H797Q822 1762 861 1744L1104 1631Q1145 1612 1130 1580L1107 1530Q1092 1498 1051 1517L763 1649H761L473 1517Q432 1498 417
1530L394 1580ZM92 717Q92 1067 264 1265T762 1464Q1087 1464 1259 1266T1432 717Q1432 367 1260 169T762 -30Q437 -30 265 168T92 717ZM297 717Q297 437 412 282T762 126Q997 126 1112 281T1227 717Q1227 997 1112 1152T762 1308Q527 1308 412 1153T297 717Z"
/>
<glyph unicode="&#xd5;" glyph-name="Otilde" horiz-adv-x="1524" d="M402 1575Q379 1588 393 1620Q421 1685 478 1728T625 1771Q700 1771 784 1722T912 1673Q960 1673 993 1700T1042 1752Q1061 1781 1080 1770L1122 1745Q1145 1732 1131 1700Q1103 1635 1046
1592T899 1549Q824 1549 740 1598T612 1647Q564 1647 531 1620T482 1568Q463 1539 444 1550L402 1575ZM92 717Q92 1067 264 1265T762 1464Q1087 1464 1259 1266T1432 717Q1432 367 1260 169T762 -30Q437 -30 265 168T92 717ZM297 717Q297 437 412 282T762 126Q997
126 1112 281T1227 717Q1227 997 1112 1152T762 1308Q527 1308 412 1153T297 717Z" />
<glyph unicode="&#xd6;" glyph-name="Odieresis" horiz-adv-x="1524" d="M92 717Q92 1067 264 1265T762 1464Q1087 1464 1259 1266T1432 717Q1432 367 1260 169T762 -30Q437 -30 265 168T92 717ZM297 717Q297 437 412 282T762 126Q997 126 1112 281T1227 717Q1227
997 1112 1152T762 1308Q527 1308 412 1153T297 717ZM477 1550Q432 1550 432 1595V1687Q432 1732 477 1732H569Q614 1732 614 1687V1595Q614 1550 569 1550H477ZM955 1550Q910 1550 910 1595V1687Q910 1732 955 1732H1047Q1092 1732 1092 1687V1595Q1092 1550 1047
1550H955Z" />
<glyph unicode="&#xd7;" glyph-name="multiply" horiz-adv-x="1280" d="M225 347Q200 372 232 403L553 724L232 1046Q200 1078 225 1102L261 1137Q286 1162 317 1130L638 809L961 1132Q993 1164 1017 1139L1053 1104Q1078 1079 1045 1047L723 724L1045 402Q1077
370 1053 345L1017 310Q992 285 961 317L638 640L317 319Q285 287 261 312L225 347Z" />
<glyph unicode="&#xd8;" glyph-name="Oslash" horiz-adv-x="1524" d="M92 717Q92 1067 264 1265T762 1464Q1038 1464 1204 1321L1325 1455Q1362 1496 1395 1465L1440 1425Q1473 1395 1437 1354L1304 1207Q1432 1018 1432 717Q1432 367 1260 169T762 -30Q486 -30
320 113L199 -21Q162 -62 129 -31L84 9Q51 39 87 80L220 227Q92 416 92 717ZM297 717Q297 516 356 379L1083 1187Q969 1308 762 1308Q527 1308 412 1153T297 717ZM441 247Q555 126 762 126Q997 126 1112 281T1227 717Q1227 918 1168 1055L441 247Z" />
<glyph unicode="&#xd9;" glyph-name="Ugrave" horiz-adv-x="1402" d="M468 1733Q405 1785 482 1785H639Q688 1785 720 1748L853 1593Q898 1540 841 1540H747Q701 1540 666 1569L468 1733ZM170 547V1379Q170 1434 220 1434H312Q362 1434 362 1379V577Q362 297 441
212T701 126Q881 126 960 211T1040 577V1379Q1040 1434 1090 1434H1182Q1232 1434 1232 1379V547Q1232 230 1087 100T701 -30Q461 -30 316 100T170 547Z" />
<glyph unicode="&#xda;" glyph-name="Uacute" horiz-adv-x="1402" d="M561 1540Q504 1540 549 1593L682 1748Q714 1785 763 1785H920Q997 1785 934 1733L736 1569Q701 1540 655 1540H561ZM170 547V1379Q170 1434 220 1434H312Q362 1434 362 1379V577Q362 297 441
212T701 126Q881 126 960 211T1040 577V1379Q1040 1434 1090 1434H1182Q1232 1434 1232 1379V547Q1232 230 1087 100T701 -30Q461 -30 316 100T170 547Z" />
<glyph unicode="&#xdb;" glyph-name="Ucircumflex" horiz-adv-x="1402" d="M333 1580Q318 1612 359 1631L602 1744Q641 1762 666 1762H736Q761 1762 800 1744L1043 1631Q1084 1612 1069 1580L1046 1530Q1031 1498 990 1517L702 1649H700L412 1517Q371 1498 356
1530L333 1580ZM170 547V1379Q170 1434 220 1434H312Q362 1434 362 1379V577Q362 297 441 212T701 126Q881 126 960 211T1040 577V1379Q1040 1434 1090 1434H1182Q1232 1434 1232 1379V547Q1232 230 1087 100T701 -30Q461 -30 316 100T170 547Z" />
<glyph unicode="&#xdc;" glyph-name="Udieresis" horiz-adv-x="1402" d="M416 1550Q371 1550 371 1595V1687Q371 1732 416 1732H508Q553 1732 553 1687V1595Q553 1550 508 1550H416ZM894 1550Q849 1550 849 1595V1687Q849 1732 894 1732H986Q1031 1732 1031 1687V1595Q1031
1550 986 1550H894ZM170 547V1379Q170 1434 220 1434H312Q362 1434 362 1379V577Q362 297 441 212T701 126Q881 126 960 211T1040 577V1379Q1040 1434 1090 1434H1182Q1232 1434 1232 1379V547Q1232 230 1087 100T701 -30Q461 -30 316 100T170 547Z" />
<glyph unicode="&#xdd;" glyph-name="Yacute" horiz-adv-x="1302" d="M510 1540Q453 1540 498 1593L631 1748Q663 1785 712 1785H869Q946 1785 883 1733L685 1569Q650 1540 604 1540H510ZM54 1368Q11 1434 81 1434H193Q237 1434 265 1385L519 948Q561 876 591
823T649 709H653Q681 769 711 822T783 948L1037 1385Q1065 1434 1109 1434H1221Q1291 1434 1248 1368L747 590V55Q747 0 697 0H605Q555 0 555 55V590L54 1368Z" />
<glyph unicode="&#xde;" glyph-name="Thorn" horiz-adv-x="1244" d="M220 -8Q170 -8 170 47V1380Q170 1435 220 1435H312Q362 1435 362 1380V1176H560Q860 1176 1005 1076T1150 756Q1150 536 1005 436T560 336H362V47Q362 -8 312 -8H220ZM362 500H578Q758 500
851 553T945 756Q945 906 852 959T578 1012H362V500Z" />
<glyph unicode="&#xdf;" glyph-name="germandbls" horiz-adv-x="1216" d="M187 0Q142 0 142 45V1139Q142 1341 272 1417T586 1493Q783 1493 889 1399T996 1180Q996 1056 937 971T741 801V798Q915 773 1015 655T1116 376Q1116 198 1023 91T740 -17Q644 -17 584
-4T472 48Q439 72 460 102L501 160Q522 189 566 158Q586 144 632 129T731 113Q822 113 876 182T930 382Q930 537 841 605T587 673Q575 673 567 698L532 806Q526 825 546 839L626 894Q706 949 763 1011T820 1173Q820 1264 764 1313T596 1363Q483 1363 401 1309T318
1110V45Q318 0 273 0H187Z" />
<glyph unicode="&#xe0;" glyph-name="agrave" horiz-adv-x="1067" d="M333 1383Q288 1435 347 1435H458Q513 1435 539 1398L678 1203Q716 1150 666 1150H592Q536 1150 511 1179L333 1383ZM85 280Q85 458 251 541T749 638V706Q749 800 707 868T538 937Q458 937
410 922T323 881T247 815Q220 785 196 812L144 872Q122 897 159 932Q212 982 262 1007T386 1049T538 1067Q747 1067 836 960T925 665V45Q925 0 880 0H790Q751 0 751 45V94H749Q670 32 595 8T426 -17Q262 -17 174 61T85 280ZM267 276Q267 214 293 177T365 129T461
118Q538 118 607 133T749 212V507Q547 492 461 471T321 397T267 276Z" />
<glyph unicode="&#xe1;" glyph-name="aacute" horiz-adv-x="1067" d="M410 1150Q360 1150 398 1203L537 1398Q563 1435 618 1435H729Q788 1435 743 1383L565 1179Q540 1150 484 1150H410ZM85 280Q85 458 251 541T749 638V706Q749 800 707 868T538 937Q458 937
410 922T323 881T247 815Q220 785 196 812L144 872Q122 897 159 932Q212 982 262 1007T386 1049T538 1067Q747 1067 836 960T925 665V45Q925 0 880 0H790Q751 0 751 45V94H749Q670 32 595 8T426 -17Q262 -17 174 61T85 280ZM267 276Q267 214 293 177T365 129T461
118Q538 118 607 133T749 212V507Q547 492 461 471T321 397T267 276Z" />
<glyph unicode="&#xe2;" glyph-name="acircumflex" horiz-adv-x="1067" d="M239 1182Q216 1208 251 1237L457 1408Q488 1434 513 1434H563Q588 1434 619 1408L825 1237Q860 1208 837 1182L810 1151Q787 1125 753 1153L539 1332H537L323 1153Q289 1125 266 1151L239
1182ZM85 280Q85 458 251 541T749 638V706Q749 800 707 868T538 937Q458 937 410 922T323 881T247 815Q220 785 196 812L144 872Q122 897 159 932Q212 982 262 1007T386 1049T538 1067Q747 1067 836 960T925 665V45Q925 0 880 0H790Q751 0 751 45V94H749Q670 32
595 8T426 -17Q262 -17 174 61T85 280ZM267 276Q267 214 293 177T365 129T461 118Q538 118 607 133T749 212V507Q547 492 461 471T321 397T267 276Z" />
<glyph unicode="&#xe3;" glyph-name="atilde" horiz-adv-x="1067" d="M231 1175Q209 1185 219 1219Q240 1290 290 1335T421 1380Q489 1380 559 1325T668 1270Q711 1270 732 1292T769 1352Q782 1382 806 1372L845 1355Q867 1345 857 1311Q836 1240 786 1195T655
1150Q587 1150 517 1205T408 1260Q365 1260 344 1238T307 1178Q294 1148 270 1158L231 1175ZM85 280Q85 458 251 541T749 638V706Q749 800 707 868T538 937Q458 937 410 922T323 881T247 815Q220 785 196 812L144 872Q122 897 159 932Q212 982 262 1007T386 1049T538
1067Q747 1067 836 960T925 665V45Q925 0 880 0H790Q751 0 751 45V94H749Q670 32 595 8T426 -17Q262 -17 174 61T85 280ZM267 276Q267 214 293 177T365 129T461 118Q538 118 607 133T749 212V507Q547 492 461 471T321 397T267 276Z" />
<glyph unicode="&#xe4;" glyph-name="adieresis" horiz-adv-x="1067" d="M85 280Q85 458 251 541T749 638V706Q749 800 707 868T538 937Q458 937 410 922T323 881T247 815Q220 785 196 812L144 872Q122 897 159 932Q212 982 262 1007T386 1049T538 1067Q747 1067
836 960T925 665V45Q925 0 880 0H790Q751 0 751 45V94H749Q670 32 595 8T426 -17Q262 -17 174 61T85 280ZM267 276Q267 214 293 177T365 129T461 118Q538 118 607 133T749 212V507Q547 492 461 471T321 397T267 276ZM259 1240Q214 1240 214 1285V1371Q214 1416
259 1416H345Q390 1416 390 1371V1285Q390 1240 345 1240H259ZM665 1240Q620 1240 620 1285V1371Q620 1416 665 1416H751Q796 1416 796 1371V1285Q796 1240 751 1240H665Z" />
<glyph unicode="&#xe5;" glyph-name="aring" horiz-adv-x="1067" d="M358 1313Q358 1388 410 1440T538 1493Q613 1493 665 1441T718 1313Q718 1238 666 1186T538 1133Q463 1133 411 1185T358 1313ZM434 1313Q434 1269 464 1239T538 1209Q582 1209 612 1239T642
1313Q642 1357 612 1387T538 1417Q494 1417 464 1387T434 1313ZM85 280Q85 458 251 541T749 638V706Q749 800 707 868T538 937Q458 937 410 922T323 881T247 815Q220 785 196 812L144 872Q122 897 159 932Q212 982 262 1007T386 1049T538 1067Q747 1067 836 960T925
665V45Q925 0 880 0H790Q751 0 751 45V94H749Q670 32 595 8T426 -17Q262 -17 174 61T85 280ZM267 276Q267 214 293 177T365 129T461 118Q538 118 607 133T749 212V507Q547 492 461 471T321 397T267 276Z" />
<glyph unicode="&#xe6;" glyph-name="ae" horiz-adv-x="1729" d="M85 280Q85 458 249 541T739 638V706Q739 800 697 868T533 937Q441 937 394 918T314 876T247 815Q220 785 196 812L144 872Q122 897 159 932Q204 975 253 1000T381 1046T533 1067Q634 1067 718
1037T854 913H857Q936 1008 1024 1037T1203 1067Q1389 1067 1514 933T1640 503Q1640 458 1599 458H919Q935 265 1019 190T1211 114Q1323 114 1383 153T1472 230Q1504 272 1534 246L1593 195Q1616 175 1593 140Q1574 111 1486 47T1211 -17Q1085 -17 995 21T833 156H831Q718
60 620 22T421 -17Q262 -17 174 61T85 280ZM267 276Q267 224 283 192T336 139T456 118Q552 118 619 142T759 233Q739 365 739 507Q539 492 452 468T316 391T267 276ZM915 588H1463Q1459 728 1393 833T1199 939Q1087 939 1009 862T915 588Z" />
<glyph unicode="&#xe7;" glyph-name="ccedilla" horiz-adv-x="1026" d="M85 525Q85 760 201 913T558 1067Q720 1067 805 1010T929 892Q950 859 920 839L857 798Q827 777 797 825Q768 871 716 904T558 937Q421 937 346 836T271 525Q271 315 346 214T558 113Q669
113 728 155T814 248Q840 295 873 275L940 235Q970 217 949 181Q924 138 836 61T558 -17Q318 -17 202 136T85 525ZM368 -396Q347 -390 354 -361L364 -322Q372 -292 402 -302Q444 -316 486 -316Q534 -316 560 -299T587 -248Q587 -218 557 -204T478 -189H450Q426
-189 426 -164Q426 -126 436 -109L500 0Q513 22 540 22H600Q632 22 619 0L563 -96V-99Q642 -105 676 -152T711 -251Q711 -327 652 -371T494 -416Q439 -416 368 -396Z" />
<glyph unicode="&#xe8;" glyph-name="egrave" horiz-adv-x="1098" d="M359 1383Q314 1435 373 1435H484Q539 1435 565 1398L704 1203Q742 1150 692 1150H618Q562 1150 537 1179L359 1383ZM85 525Q85 773 209 920T564 1067Q756 1067 882 933T1009 503Q1009 458
968 458H271Q288 265 375 190T572 114Q688 114 750 153T841 230Q873 272 903 246L962 195Q985 175 962 140Q943 111 854 47T572 -17Q322 -17 204 130T85 525ZM267 588H832Q828 728 760 833T560 939Q444 939 363 862T267 588Z" />
<glyph unicode="&#xe9;" glyph-name="eacute" horiz-adv-x="1098" d="M436 1150Q386 1150 424 1203L563 1398Q589 1435 644 1435H755Q814 1435 769 1383L591 1179Q566 1150 510 1150H436ZM85 525Q85 773 209 920T564 1067Q756 1067 882 933T1009 503Q1009 458
968 458H271Q288 265 375 190T572 114Q688 114 750 153T841 230Q873 272 903 246L962 195Q985 175 962 140Q943 111 854 47T572 -17Q322 -17 204 130T85 525ZM267 588H832Q828 728 760 833T560 939Q444 939 363 862T267 588Z" />
<glyph unicode="&#xea;" glyph-name="ecircumflex" horiz-adv-x="1098" d="M265 1182Q242 1208 277 1237L483 1408Q514 1434 539 1434H589Q614 1434 645 1408L851 1237Q886 1208 863 1182L836 1151Q813 1125 779 1153L565 1332H563L349 1153Q315 1125 292 1151L265
1182ZM85 525Q85 773 209 920T564 1067Q756 1067 882 933T1009 503Q1009 458 968 458H271Q288 265 375 190T572 114Q688 114 750 153T841 230Q873 272 903 246L962 195Q985 175 962 140Q943 111 854 47T572 -17Q322 -17 204 130T85 525ZM267 588H832Q828 728 760
833T560 939Q444 939 363 862T267 588Z" />
<glyph unicode="&#xeb;" glyph-name="edieresis" horiz-adv-x="1098" d="M303 1240Q258 1240 258 1285V1371Q258 1416 303 1416H389Q434 1416 434 1371V1285Q434 1240 389 1240H303ZM709 1240Q664 1240 664 1285V1371Q664 1416 709 1416H795Q840 1416 840 1371V1285Q840
1240 795 1240H709ZM85 525Q85 773 209 920T564 1067Q756 1067 882 933T1009 503Q1009 458 968 458H271Q288 265 375 190T572 114Q688 114 750 153T841 230Q873 272 903 246L962 195Q985 175 962 140Q943 111 854 47T572 -17Q322 -17 204 130T85 525ZM267 588H832Q828
728 760 833T560 939Q444 939 363 862T267 588Z" />
<glyph unicode="&#xec;" glyph-name="igrave" horiz-adv-x="460" d="M25 1383Q-20 1435 39 1435H150Q205 1435 231 1398L370 1203Q408 1150 358 1150H284Q228 1150 203 1179L25 1383ZM187 0Q142 0 142 45V1005Q142 1050 187 1050H273Q318 1050 318 1005V45Q318
0 273 0H187Z" />
<glyph unicode="&#xed;" glyph-name="iacute" horiz-adv-x="460" d="M102 1150Q52 1150 90 1203L229 1398Q255 1435 310 1435H421Q480 1435 435 1383L257 1179Q232 1150 176 1150H102ZM187 0Q142 0 142 45V1005Q142 1050 187 1050H273Q318 1050 318 1005V45Q318
0 273 0H187Z" />
<glyph unicode="&#xee;" glyph-name="icircumflex" horiz-adv-x="460" d="M-69 1182Q-92 1208 -57 1237L149 1408Q180 1434 205 1434H255Q280 1434 311 1408L517 1237Q552 1208 529 1182L502 1151Q479 1125 445 1153L231 1332H229L15 1153Q-19 1125 -42 1151L-69
1182ZM187 0Q142 0 142 45V1005Q142 1050 187 1050H273Q318 1050 318 1005V45Q318 0 273 0H187Z" />
<glyph unicode="&#xef;" glyph-name="idieresis" horiz-adv-x="460" d="M187 0Q142 0 142 45V1005Q142 1050 187 1050H273Q318 1050 318 1005V45Q318 0 273 0H187ZM276 1240Q231 1240 231 1285V1371Q231 1416 276 1416H362Q407 1416 407 1371V1285Q407 1240 362
1240H276ZM610 1240Q565 1240 565 1285V1371Q565 1416 610 1416H696Q741 1416 741 1371V1285Q741 1240 696 1240H610Z" />
<glyph unicode="&#xf0;" glyph-name="eth" horiz-adv-x="1153" d="M85 517Q85 738 204 894T531 1050Q637 1050 715 1018T839 938H848Q810 1040 733 1127T615 1248L432 1155Q389 1133 376 1166L358 1212Q345 1245 382 1264L512 1330Q479 1350 425 1374Q381 1395
401 1426L431 1474Q449 1503 499 1484Q596 1448 654 1403L789 1472Q832 1494 845 1461L863 1415Q876 1382 839 1363L756 1320Q860 1232 962 1030T1064 586Q1064 330 946 157T574 -17Q334 -17 210 140T85 517ZM271 517Q271 312 354 213T574 113Q711 113 794 215T877
517Q877 697 794 808T574 920Q437 920 354 819T271 517Z" />
<glyph unicode="&#xf1;" glyph-name="ntilde" horiz-adv-x="1128" d="M258 1175Q236 1185 246 1219Q267 1290 317 1335T448 1380Q516 1380 586 1325T695 1270Q738 1270 759 1292T796 1352Q809 1382 833 1372L872 1355Q894 1345 884 1311Q863 1240 813 1195T682
1150Q614 1150 544 1205T435 1260Q392 1260 371 1238T334 1178Q321 1148 297 1158L258 1175ZM187 0Q142 0 142 45V1005Q142 1050 187 1050H271Q316 1050 316 1005V925H320Q385 997 460 1032T647 1067Q829 1067 908 965T988 684V45Q988 0 943 0H857Q812 0 812 45V636Q812
832 747 884T582 937Q452 937 385 860T318 594V45Q318 0 273 0H187Z" />
<glyph unicode="&#xf2;" glyph-name="ograve" horiz-adv-x="1148" d="M369 1383Q324 1435 383 1435H494Q549 1435 575 1398L714 1203Q752 1150 702 1150H628Q572 1150 547 1179L369 1383ZM85 525Q85 760 209 913T574 1067Q814 1067 938 914T1063 525Q1063 290
939 137T574 -17Q334 -17 210 136T85 525ZM271 525Q271 315 354 214T574 113Q711 113 794 214T877 525Q877 735 794 836T574 937Q437 937 354 836T271 525Z" />
<glyph unicode="&#xf3;" glyph-name="oacute" horiz-adv-x="1148" d="M85 525Q85 760 209 913T574 1067Q814 1067 938 914T1063 525Q1063 290 939 137T574 -17Q334 -17 210 136T85 525ZM271 525Q271 315 354 214T574 113Q711 113 794 214T877 525Q877 735 794
836T574 937Q437 937 354 836T271 525ZM446 1150Q396 1150 434 1203L573 1398Q599 1435 654 1435H765Q824 1435 779 1383L601 1179Q576 1150 520 1150H446Z" />
<glyph unicode="&#xf4;" glyph-name="ocircumflex" horiz-adv-x="1148" d="M275 1182Q252 1208 287 1237L493 1408Q524 1434 549 1434H599Q624 1434 655 1408L861 1237Q896 1208 873 1182L846 1151Q823 1125 789 1153L575 1332H573L359 1153Q325 1125 302 1151L275
1182ZM85 525Q85 760 209 913T574 1067Q814 1067 938 914T1063 525Q1063 290 939 137T574 -17Q334 -17 210 136T85 525ZM271 525Q271 315 354 214T574 113Q711 113 794 214T877 525Q877 735 794 836T574 937Q437 937 354 836T271 525Z" />
<glyph unicode="&#xf5;" glyph-name="otilde" horiz-adv-x="1148" d="M267 1175Q245 1185 255 1219Q276 1290 326 1335T457 1380Q525 1380 595 1325T704 1270Q747 1270 768 1292T805 1352Q818 1382 842 1372L881 1355Q903 1345 893 1311Q872 1240 822 1195T691
1150Q623 1150 553 1205T444 1260Q401 1260 380 1238T343 1178Q330 1148 306 1158L267 1175ZM85 525Q85 760 209 913T574 1067Q814 1067 938 914T1063 525Q1063 290 939 137T574 -17Q334 -17 210 136T85 525ZM271 525Q271 315 354 214T574 113Q711 113 794 214T877
525Q877 735 794 836T574 937Q437 937 354 836T271 525Z" />
<glyph unicode="&#xf6;" glyph-name="odieresis" horiz-adv-x="1148" d="M85 525Q85 760 209 913T574 1067Q814 1067 938 914T1063 525Q1063 290 939 137T574 -17Q334 -17 210 136T85 525ZM271 525Q271 315 354 214T574 113Q711 113 794 214T877 525Q877 735 794
836T574 937Q437 937 354 836T271 525ZM328 1240Q283 1240 283 1285V1371Q283 1416 328 1416H414Q459 1416 459 1371V1285Q459 1240 414 1240H328ZM734 1240Q689 1240 689 1285V1371Q689 1416 734 1416H820Q865 1416 865 1371V1285Q865 1240 820 1240H734Z" />
<glyph unicode="&#xf7;" glyph-name="divide" horiz-adv-x="1280" d="M584 235Q539 235 539 280V402Q539 447 584 447H696Q741 447 741 402V280Q741 235 696 235H584ZM584 1003Q539 1003 539 1048V1170Q539 1215 584 1215H696Q741 1215 741 1170V1048Q741 1003
696 1003H584ZM125 665Q80 665 80 700V750Q80 785 125 785H1155Q1200 785 1200 750V700Q1200 665 1155 665H125Z" />
<glyph unicode="&#xf8;" glyph-name="oslash" horiz-adv-x="1148" d="M85 525Q85 760 209 913T574 1067Q773 1067 892 962L970 1045Q1001 1078 1027 1054L1071 1014Q1097 990 1066 957L976 861Q1063 722 1063 525Q1063 290 939 137T574 -17Q375 -17 256 88L178
5Q147 -28 121 -4L77 36Q51 60 82 93L172 189Q85 329 85 525ZM271 525Q271 407 297 324L785 847Q704 937 574 937Q437 937 354 836T271 525ZM363 203Q444 113 574 113Q711 113 794 214T877 525Q877 642 851 726L363 203Z" />
<glyph unicode="&#xf9;" glyph-name="ugrave" horiz-adv-x="1120" d="M354 1383Q309 1435 368 1435H479Q534 1435 560 1398L699 1203Q737 1150 687 1150H613Q557 1150 532 1179L354 1383ZM140 366V1005Q140 1050 185 1050H271Q316 1050 316 1005V414Q316 218 381
166T542 113Q668 113 735 190T802 456V1005Q802 1050 847 1050H933Q978 1050 978 1005V45Q978 0 933 0H849Q804 0 804 45V125H800Q735 53 660 18T477 -17Q302 -17 221 85T140 366Z" />
<glyph unicode="&#xfa;" glyph-name="uacute" horiz-adv-x="1120" d="M431 1150Q381 1150 419 1203L558 1398Q584 1435 639 1435H750Q809 1435 764 1383L586 1179Q561 1150 505 1150H431ZM140 366V1005Q140 1050 185 1050H271Q316 1050 316 1005V414Q316 218 381
166T542 113Q668 113 735 190T802 456V1005Q802 1050 847 1050H933Q978 1050 978 1005V45Q978 0 933 0H849Q804 0 804 45V125H800Q735 53 660 18T477 -17Q302 -17 221 85T140 366Z" />
<glyph unicode="&#xfb;" glyph-name="ucircumflex" horiz-adv-x="1120" d="M260 1182Q237 1208 272 1237L478 1408Q509 1434 534 1434H584Q609 1434 640 1408L846 1237Q881 1208 858 1182L831 1151Q808 1125 774 1153L560 1332H558L344 1153Q310 1125 287 1151L260
1182ZM140 366V1005Q140 1050 185 1050H271Q316 1050 316 1005V414Q316 218 381 166T542 113Q668 113 735 190T802 456V1005Q802 1050 847 1050H933Q978 1050 978 1005V45Q978 0 933 0H849Q804 0 804 45V125H800Q735 53 660 18T477 -17Q302 -17 221 85T140 366Z"
/>
<glyph unicode="&#xfc;" glyph-name="udieresis" horiz-adv-x="1120" d="M313 1240Q268 1240 268 1285V1371Q268 1416 313 1416H399Q444 1416 444 1371V1285Q444 1240 399 1240H313ZM719 1240Q674 1240 674 1285V1371Q674 1416 719 1416H805Q850 1416 850 1371V1285Q850
1240 805 1240H719ZM140 366V1005Q140 1050 185 1050H271Q316 1050 316 1005V414Q316 218 381 166T542 113Q668 113 735 190T802 456V1005Q802 1050 847 1050H933Q978 1050 978 1005V45Q978 0 933 0H849Q804 0 804 45V125H800Q735 53 660 18T477 -17Q302 -17 221
85T140 366Z" />
<glyph unicode="&#xfd;" glyph-name="yacute" horiz-adv-x="990" d="M370 1150Q320 1150 358 1203L497 1398Q523 1435 578 1435H689Q748 1435 703 1383L525 1179Q500 1150 444 1150H370ZM51 1001Q33 1050 78 1050H187Q220 1050 232 1011L442 351Q451 324 469 267T496
164H498Q506 209 517 245T552 351L764 1011Q777 1050 809 1050H918Q963 1050 945 1001L608 61Q513 -204 438 -310T214 -417Q136 -417 90 -394Q69 -384 76 -363L102 -282Q109 -261 129 -270Q170 -287 208 -287Q278 -287 322 -212T392 -60L412 -1L51 1001Z" />
<glyph unicode="&#xfe;" glyph-name="thorn" horiz-adv-x="1119" d="M187 -400Q142 -400 142 -355V1431Q142 1476 187 1476H273Q318 1476 318 1431V986Q318 955 316 925H318Q373 991 442 1029T626 1067Q826 1067 930 904T1034 525Q1034 310 930 147T626 -17Q511
-17 442 21T318 125H316Q318 95 318 64V-355Q318 -400 273 -400H187ZM318 410Q318 260 389 187T569 113Q721 113 784 227T848 525Q848 709 785 823T569 937Q461 937 390 864T318 640V410Z" />
<glyph unicode="&#xff;" glyph-name="ydieresis" horiz-adv-x="990" d="M252 1240Q207 1240 207 1285V1371Q207 1416 252 1416H338Q383 1416 383 1371V1285Q383 1240 338 1240H252ZM658 1240Q613 1240 613 1285V1371Q613 1416 658 1416H744Q789 1416 789 1371V1285Q789
1240 744 1240H658ZM51 1001Q33 1050 78 1050H187Q220 1050 232 1011L442 351Q451 324 469 267T496 164H498Q506 209 517 245T552 351L764 1011Q777 1050 809 1050H918Q963 1050 945 1001L608 61Q513 -204 438 -310T214 -417Q136 -417 90 -394Q69 -384 76 -363L102
-282Q109 -261 129 -270Q170 -287 208 -287Q278 -287 322 -212T392 -60L412 -1L51 1001Z" />
<glyph unicode="&#x2013;" glyph-name="endash" horiz-adv-x="1024" d="M81 488Q36 488 36 523V583Q36 618 81 618H943Q988 618 988 583V523Q988 488 943 488H81Z" />
<glyph unicode="&#x2014;" glyph-name="emdash" horiz-adv-x="2048" d="M81 488Q36 488 36 523V583Q36 618 81 618H1967Q2012 618 2012 583V523Q2012 488 1967 488H81Z" />
<glyph unicode="&#x2018;" glyph-name="quoteleft" horiz-adv-x="498" d="M51 1182Q96 1182 96 1137V1015Q96 970 51 970H-65Q-110 970 -110 1015V1137Q-110 1242 -88 1320T1 1458Q23 1477 38 1463L83 1421Q98 1407 76 1387Q42 1357 21 1301T-1 1182H51Z" />
<glyph unicode="&#x2019;" glyph-name="quoteright" horiz-adv-x="498" d="M447 1257Q402 1257 402 1302V1424Q402 1469 447 1469H563Q608 1469 608 1424V1302Q608 1197 586 1119T497 981Q475 962 460 976L415 1018Q400 1032 422 1052Q456 1082 477 1138T499 1257H447Z" />
<glyph unicode="&#x201a;" glyph-name="quotesinglbase" horiz-adv-x="498" d="M447 0Q402 0 402 45V167Q402 212 447 212H563Q608 212 608 167V45Q608 -60 586 -138T497 -276Q475 -295 460 -281L415 -239Q400 -225 422 -205Q456 -175 477 -119T499 0H447Z" />
<glyph unicode="&#x201c;" glyph-name="quotedblleft" horiz-adv-x="760" d="M347 1182Q392 1182 392 1137V1015Q392 970 347 970H231Q186 970 186 1015V1137Q186 1242 208 1320T297 1458Q319 1477 334 1463L379 1421Q394 1407 372 1387Q338 1357 317 1301T295
1182H347ZM273 1182Q318 1182 318 1137V1015Q318 970 273 970H157Q112 970 112 1015V1137Q112 1242 134 1320T223 1458Q245 1477 260 1463L305 1421Q320 1407 298 1387Q264 1357 243 1301T221 1182H273Z" />
<glyph unicode="&#x201d;" glyph-name="quotedblright" horiz-adv-x="760" d="M743 1257Q698 1257 698 1302V1424Q698 1469 743 1469H859Q904 1469 904 1424V1302Q904 1197 882 1119T793 981Q771 962 756 976L711 1018Q696 1032 718 1052Q752 1082 773 1138T795
1257H743ZM669 1257Q624 1257 624 1302V1424Q624 1469 669 1469H785Q830 1469 830 1424V1302Q830 1197 808 1119T719 981Q697 962 682 976L637 1018Q622 1032 644 1052Q678 1082 699 1138T721 1257H669Z" />
<glyph unicode="&#x201e;" glyph-name="quotedblbase" horiz-adv-x="760" d="M743 0Q698 0 698 45V167Q698 212 743 212H859Q904 212 904 167V45Q904 -60 882 -138T793 -276Q771 -295 756 -281L711 -239Q696 -225 718 -205Q752 -175 773 -119T795 0H743ZM669 0Q624
0 624 45V167Q624 212 669 212H785Q830 212 830 167V45Q830 -60 808 -138T719 -276Q697 -295 682 -281L637 -239Q622 -225 644 -205Q678 -175 699 -119T721 0H669Z" />
<glyph unicode="&#x2022;" glyph-name="bullet" horiz-adv-x="1024" d="M302 694Q302 781 363 842T512 904Q599 904 660 843T722 694Q722 607 661 546T512 484Q425 484 364 545T302 694Z" />
<glyph unicode="&#x2039;" glyph-name="guilsinglleft" horiz-adv-x="682" d="M121 517Q102 540 121 563L453 953Q475 979 496 961L544 918Q563 901 541 874L259 540L541 206Q563 179 544 162L496 119Q475 101 453 127L121 517Z" />
<glyph unicode="&#x203a;" glyph-name="guilsinglright" horiz-adv-x="682" d="M138 162Q119 179 141 206L423 540L141 874Q119 901 138 918L186 961Q207 979 229 953L561 563Q580 540 561 517L229 127Q207 101 186 119L138 162Z" />
</font>
</defs>
</svg>
