<?xml version="1.0" standalone="no"?>
<!DOCTYPE svg PUBLIC "-//W3C//DTD SVG 1.1//EN" "http://www.w3.org/Graphics/SVG/1.1/DTD/svg11.dtd">
<svg xmlns="http://www.w3.org/2000/svg">
<defs >
<font id="Bevan" horiz-adv-x="707" ><font-face
    font-family="Bevan"
    units-per-em="1000"
    panose-1="0 0 5 0 0 0 0 0 0 0"
    ascent="1155"
    descent="-452"
    alphabetic="0" />
<glyph unicode=" " glyph-name="space" horiz-adv-x="206" />
<glyph unicode="!" glyph-name="exclam" horiz-adv-x="332" d="M62 271L21 650V796H308V650L267 272L62 271ZM104 -16T66 16Q28 49 28 104Q28 160 66 193Q105 226 163 226H164Q223 226 264 193Q304 160 304 104Q304 49 265 16Q225 -16 164 -16Q104 -16 66 16Z" />
<glyph unicode="&quot;" glyph-name="quotedbl" horiz-adv-x="561" d="M59 461L20 793H254L206 461H59ZM346 461L307 793H541L492 461H346Z" />
<glyph unicode="#" glyph-name="numbersign" horiz-adv-x="661" d="M51 0L82 140H16L46 286H115L154 462H87L118 608H187L228 792H386L343 608H420L461 792H620L577 608H646L615 462H544L503 286H574L543 140H470L438 0H285L316 140H236L204 0H51ZM270 286H349L388
462H310L270 286Z" />
<glyph unicode="$" glyph-name="dollar" horiz-adv-x="632" d="M268 23Q199 37 145 63L124 32H28V266L146 267Q148 240 167 212T213 165T265 146V287Q181 310 130 336T51 405T24 514Q24 616 92 674T270 738V832H380V729Q416 722 451 700L472 721H561V507H449Q442
539 422 568T381 603V483Q494 453 554 399T614 248Q614 186 583 134T498 51T381 17V-82H268V23ZM267 620Q245 621 228 608T211 577V576Q211 554 227 538T267 517V620ZM395 150T410 165T426 202Q426 223 413 239T376 258V150Q395 150 410 165Z" />
<glyph unicode="%" glyph-name="percent" horiz-adv-x="1315" d="M183 263T129 297T45 394T16 542Q16 623 45 683T129 775T257 807Q331 807 386 775T471 683T501 542Q501 457 471 394T386 297T256 263Q183 263 129 297ZM446 0L613 792H859L692 0H446ZM282 434T293
459T305 542Q305 594 294 617T257 641Q233 640 222 617T210 542Q210 486 221 460T257 434Q282 434 293 459ZM976 -15T922 19T838 116T809 264Q809 344 838 404T922 496T1050 528Q1124 528 1179 496T1264 404T1294 264Q1294 179 1264 116T1179 19T1049 -15Q976 -15
922 19ZM1075 156T1086 181T1098 264Q1098 315 1087 338T1052 362Q1027 362 1015 339T1003 264Q1003 207 1014 182T1050 156Q1075 156 1086 181Z" />
<glyph unicode="&amp;" glyph-name="ampersand" horiz-adv-x="841" d="M742 369T712 339L629 253Q633 251 701 180H813V0H550V-1Q520 29 465 88Q375 -12 240 -15Q145 -13 83 38Q22 90 19 183Q21 259 59 309Q97 360 173 393Q117 454 115 541Q115 588 134 625Q151
662 185 688Q220 714 260 726Q305 739 350 739Q386 739 424 728Q459 717 491 696Q521 675 539 642Q558 607 558 570Q558 548 554 520Q550 499 539 481Q531 466 515 449Q504 436 476 412L563 327L576 338Q593 355 602 366Q615 380 615 389Q615 406 602 406H579V550H815V409Q778
396 762 384Q742 369 712 339ZM433 541T433 561Q433 584 419 603Q407 620 381 620Q363 620 349 605Q336 591 336 572Q336 557 345 542Q357 524 363 519Q373 509 388 498Q412 516 422 527Q433 541 433 561ZM348 161T374 181L272 285L269 283L262 276L253 266Q249
260 246 252Q243 245 243 236V235Q243 203 264 182Q285 161 318 161Q348 161 374 181Z" />
<glyph unicode="&apos;" glyph-name="quotesingle" horiz-adv-x="274" d="M59 461L20 793H254L206 461H59Z" />
<glyph unicode="(" glyph-name="parenleft" horiz-adv-x="447" d="M345 -10T273 12Q205 34 155 72Q107 111 73 163Q41 213 24 274Q9 333 9 398Q9 499 33 574Q55 648 106 702Q154 753 236 781Q319 807 429 807V645L428 644Q392 644 361 633Q331 622 313 604Q294
583 283 563Q270 542 264 512Q257 478 256 457Q254 439 254 399Q254 357 258 328Q262 301 274 262Q286 227 305 205Q324 180 354 167Q386 152 427 152V-10Q345 -10 273 12Z" />
<glyph unicode=")" glyph-name="parenright" horiz-adv-x="447" d="M18 807H19H18ZM438 499T438 398Q438 331 422 273Q407 214 374 162Q341 112 292 72Q242 34 174 12Q100 -10 20 -10V152Q61 152 92 167Q124 181 142 205Q162 231 172 262Q185 299 188 328Q193
365 193 399Q193 423 191 457Q186 496 183 512Q178 539 164 563Q151 587 133 604Q115 624 85 634Q55 645 19 645V807Q131 807 210 780Q290 755 341 701Q390 649 414 574Q438 499 438 398Z" />
<glyph unicode="*" glyph-name="asterisk" horiz-adv-x="607" d="M271 118T247 142Q224 164 224 206Q224 230 229 252Q233 276 238 296L252 347L266 391L238 357L203 315Q173 285 173 285Q159 271 137 255Q108 238 84 238Q79 238 69 240Q38 246 21 273Q8 294 8
315Q8 334 18 351Q28 371 51 388Q73 402 108 416Q148 432 188 442L249 461Q243 463 230 467T188 480Q145 493 109 506Q73 521 53 534Q30 550 19 571Q10 589 10 607Q10 630 22 648L18 645Q34 672 65 678Q75 680 80 680Q105 680 134 663Q152 650 169 633Q190 614
200 602L235 561Q257 533 264 526L251 569L236 621Q231 638 227 664Q222 694 222 710Q222 752 246 774Q269 798 301 798Q332 798 356 774Q379 752 379 710Q379 700 377 676L370 637L360 601L349 562L338 527L368 562Q379 576 402 602Q414 616 434 634Q451 651 469
664Q498 681 522 681Q527 681 537 679Q569 673 585 646Q598 625 598 604Q598 585 588 568Q578 548 555 531Q533 517 498 503Q450 486 418 477Q395 470 358 458Q369 454 419 439Q451 430 499 413Q536 398 556 384Q579 369 589 348Q599 329 599 312Q599 290 586 270Q570
244 538 236Q534 235 524 235Q498 235 470 252Q455 261 434 281Q420 294 403 313Q379 339 368 354L338 389L352 346L367 294Q371 279 376 252Q381 222 381 206Q381 165 357 142Q335 118 302 118Q271 118 247 142Z" />
<glyph unicode="+" glyph-name="plus" horiz-adv-x="422" d="M150 116V252H18V372H150V513H275V372H404V252H275V116H150Z" />
<glyph unicode="," glyph-name="comma" horiz-adv-x="291" d="M18 -109Q40 -109 56 -106Q73 -103 82 -96Q91 -89 98 -81Q104 -72 107 -58Q110 -43 110 -32Q111 -25 111 0H19V178H268Q279 99 279 43Q279 -93 216 -156Q152 -219 18 -219V-109Z" />
<glyph unicode="-" glyph-name="hyphen" horiz-adv-x="371" d="M18 262V408H353V262H18Z" />
<glyph unicode="." glyph-name="period" horiz-adv-x="301" d="M91 -14T51 20Q13 52 13 109Q13 165 51 196Q89 229 148 229Q211 229 250 196Q289 163 289 109Q289 54 249 20Q209 -13 149 -13L148 -14Q91 -14 51 20Z" />
<glyph unicode="/" glyph-name="slash" horiz-adv-x="428" d="M8 0L174 792H420L253 0H8Z" />
<glyph unicode="0" glyph-name="zero" horiz-adv-x="675" d="M195 -13T115 80T35 339Q35 496 114 583T337 671Q480 671 559 584T639 339Q639 229 603 150T500 29T338 -13Q195 -13 115 80ZM400 387T395 421T376 471T338 486Q313 486 299 471T278 422T272 326Q272
266 278 233T298 185T336 170Q361 170 374 184T394 232T400 325Q400 387 395 421Z" />
<glyph unicode="1" glyph-name="one" horiz-adv-x="441" d="M70 0V159L114 158V464H34V590L357 671L360 158H407V0H70Z" />
<glyph unicode="2" glyph-name="two" horiz-adv-x="649" d="M56 148Q148 183 213 237Q272 287 297 325T322 418Q322 453 302 477T254 502Q223 502 206 483T189 433Q189 416 198 399T219 369L109 284Q75 314 55 363T36 461Q35 522 69 569T166 644T309 671Q385 671
444 643T537 565T571 450Q571 390 537 336T460 245T362 168L343 155H422Q470 156 498 170T527 227H611L614 0H56V148Z" />
<glyph unicode="3" glyph-name="three" horiz-adv-x="633" d="M200 -9T145 0T48 38V207Q137 136 229 136Q272 136 304 153T337 208Q337 251 302 270T217 289Q200 289 180 285T155 279H145V361L312 503V508H204Q180 508 168 501T150 480T137 438L42 439V660H564V531L426
416Q473 412 512 385T574 317T597 231Q597 111 509 51T280 -9Q200 -9 145 0Z" />
<glyph unicode="4" glyph-name="four" horiz-adv-x="654" d="M230 0V141H292V205H32V336L301 655H515V330L626 331V205H515V141H574V0H230ZM292 331V445L200 331H292Z" />
<glyph unicode="5" glyph-name="five" horiz-adv-x="565" d="M175 -10T122 1T45 36L46 37V169Q102 137 154 137Q195 137 228 157T261 217Q261 256 229 278T152 301Q98 301 51 270L45 275V663H492V518H194V450Q242 458 297 458Q360 458 413 432T497 358T529 250Q529
168 491 109T384 20T224 -10Q175 -10 122 1Z" />
<glyph unicode="6" glyph-name="six" horiz-adv-x="676" d="M260 -9T190 22T77 115T34 261Q34 327 67 390T149 507T292 657H557Q445 545 412 500Q490 496 542 463T618 378T643 265Q643 196 606 133T500 31T340 -9Q260 -9 190 22ZM366 161T379 187T392 267Q392
379 339 379Q284 379 284 269Q284 161 339 161Q366 161 379 187Z" />
<glyph unicode="7" glyph-name="seven" horiz-adv-x="626" d="M323 498H205Q168 498 155 482T141 428L35 429V653H593V521L336 0H76L323 498Z" />
<glyph unicode="8" glyph-name="eight" horiz-adv-x="657" d="M200 -9T119 38T37 183L36 182Q36 307 163 355Q120 371 97 407T74 492Q74 579 144 625T331 671Q441 671 512 626T584 493Q584 445 561 409T495 356Q622 308 622 183Q622 84 540 38T330 -9Q200 -9 119
38ZM352 402T361 419T370 476Q370 514 361 530T331 547Q310 547 301 531T292 476Q292 436 301 419T332 402Q352 402 361 419ZM349 116T358 135T368 197Q368 242 359 261T330 281Q308 281 299 262T290 197Q290 153 299 135T329 116Q349 116 358 135Z" />
<glyph unicode="9" glyph-name="nine" horiz-adv-x="671" d="M118 0Q236 117 267 157Q200 157 146 186T61 266T30 381Q30 465 71 530T183 631T343 667Q421 667 489 635T599 542T641 396Q641 336 610 276T526 153T381 -1L118 0ZM363 279T374 304T386 386Q386 443
375 468T335 493Q308 493 297 468T285 386Q285 329 296 304T335 279Q363 279 374 304Z" />
<glyph unicode=":" glyph-name="colon" horiz-adv-x="307" d="M94 291T55 324Q16 357 16 413Q16 468 54 500Q93 533 152 533Q214 533 253 500Q292 469 292 413Q292 357 252 324Q212 291 152 291H151Q94 291 55 324ZM93 -10T54 23Q15 56 15 113Q15 168 53 200Q91
232 151 232Q214 232 252 200Q291 169 291 113Q291 56 251 23Q212 -9 151 -9L150 -10Q93 -10 54 23Z" />
<glyph unicode=";" glyph-name="semicolon" horiz-adv-x="306" d="M94 289T55 322Q16 355 16 412Q16 467 54 499Q92 531 152 531Q215 531 253 499Q292 468 292 412Q292 355 252 322Q213 290 152 290L151 289Q94 289 55 322ZM21 -219V-109Q43 -109 60 -106Q77 -103
86 -96Q95 -89 102 -81Q108 -72 111 -58Q114 -43 114 -33Q115 -25 115 -1H22V177H271Q283 102 283 42Q283 -94 220 -157Q156 -220 22 -220L21 -219Z" />
<glyph unicode="&lt;" glyph-name="less" horiz-adv-x="384" d="M367 -10L18 281V462L367 753V526L204 372L367 217V-10Z" />
<glyph unicode="=" glyph-name="equal" horiz-adv-x="351" d="M18 341V450H333V341H18ZM18 161V270H333V161H18Z" />
<glyph unicode="&gt;" glyph-name="greater" horiz-adv-x="384" d="M18 -10V217L180 372L18 526V753L367 462V281L18 -10Z" />
<glyph unicode="?" glyph-name="question" horiz-adv-x="615" d="M160 436Q354 523 354 610Q354 617 352 627Q351 636 346 648Q342 659 332 667Q322 674 307 674Q249 674 243 595H13Q19 704 102 777Q185 848 310 848Q391 848 460 819Q528 789 565 738Q604 686
604 622Q604 588 594 559Q585 528 570 506Q556 483 532 462Q514 446 487 426Q457 408 435 397Q403 381 382 374Q353 362 329 354V263H160V436ZM190 -13T150 21Q111 53 111 110Q111 165 149 197Q187 229 247 229Q310 229 348 197Q387 166 387 110Q387 52 347 21Q307
-12 248 -12L247 -13Q190 -13 150 21Z" />
<glyph unicode="@" glyph-name="at" horiz-adv-x="887" d="M374 -98T282 -69Q193 -39 135 12Q77 64 46 130Q15 196 15 275Q15 359 44 427Q73 496 129 552Q187 607 269 637Q352 668 456 668Q551 668 632 642Q712 615 764 569Q817 522 845 461Q874 398 874 329Q874
276 858 237Q842 195 809 164Q776 132 721 116Q670 99 592 99H519L500 143Q484 119 454 105Q423 92 397 92Q340 92 298 146Q257 201 257 287Q257 325 269 356Q280 386 304 415Q327 441 369 456Q409 471 464 471Q481 471 489 470Q493 470 521 466Q547 461 559 456Q581
445 594 436Q615 421 625 405Q638 389 646 359Q655 331 655 294L656 194L658 193Q667 193 679 195Q689 198 700 206Q711 214 718 228Q726 242 730 268Q735 289 735 330Q735 428 665 486Q594 544 457 544Q318 544 243 472Q168 399 168 276Q168 223 188 175Q210 125
247 93Q283 59 345 37Q402 17 481 17Q525 17 561 27L586 -84Q530 -98 481 -98Q374 -98 282 -69ZM488 181T502 198V326Q502 365 494 381Q485 397 465 397Q453 397 444 388Q436 376 433 361Q429 343 427 325Q426 313 426 283L425 282Q425 240 435 208Q444 181 461
181Q488 181 502 198Z" />
<glyph unicode="A" glyph-name="A" horiz-adv-x="859" d="M16 0V172H93L227 605H125V777H609L782 172H859V0H422V172H485L464 255H288L266 172H359V0H16ZM313 373H441L384 611L313 373Z" />
<glyph unicode="B" glyph-name="B" horiz-adv-x="822" d="M31 172H125V605H44V778H441Q539 778 606 762T712 701T752 573Q752 515 719 472T633 410Q701 381 733 335T766 207Q766 108 689 54T469 0H31V172ZM402 464Q458 464 484 479T511 538Q511 568 493 586T444
605H375V464H402ZM393 172Q452 172 484 188T516 257Q516 337 418 337Q396 337 375 336V172H393Z" />
<glyph unicode="C" glyph-name="C" horiz-adv-x="755" d="M317 -14T228 31T85 168T31 393Q31 505 71 595T190 739T380 792Q437 792 482 766T547 698L567 777H719V458H563V474Q563 536 535 575T450 615Q412 615 381 586T331 510T313 413Q313 315 362 260T496 204Q556
204 607 224T692 267L703 258V50Q641 14 572 0T425 -14Q317 -14 228 31Z" />
<glyph unicode="D" glyph-name="D" horiz-adv-x="881" d="M31 172H109V605H31V777H391Q603 777 715 679T828 389Q828 202 716 101T390 0H31V172ZM390 172Q472 172 509 233T547 389Q547 485 510 545T390 605H359V172H390Z" />
<glyph unicode="E" glyph-name="E" horiz-adv-x="708" d="M47 0V172H141V605H47V777H703V468H578L531 605H391V478H516V350H391V172H531L578 331H703V0H47Z" />
<glyph unicode="F" glyph-name="F" horiz-adv-x="700" d="M47 0V172H141V605H47V777H688V463H547L516 605H391V458H500V333H391V172H484V0H47Z" />
<glyph unicode="G" glyph-name="G" horiz-adv-x="841" d="M346 -14T248 30T90 167T31 401Q31 513 77 602T212 741T421 792Q472 792 520 775T596 725L612 777H781V490H630Q615 552 572 583T482 615Q404 615 359 558T313 401Q313 300 358 243T485 185Q506 185 527
189T561 197T578 203V272H484V417H797V68Q722 28 636 7T465 -14Q346 -14 248 30Z" />
<glyph unicode="H" glyph-name="H" horiz-adv-x="915" d="M36 0V172H114V605H36V777L426 778V605H364V477H551V605H489V778L879 777V605H801V172H879V0H489V172H551V310H364V172H426V0H36Z" />
<glyph unicode="I" glyph-name="I" horiz-adv-x="502" d="M63 0V172H141V605H63V777H469V605H391V172H469V0H63Z" />
<glyph unicode="J" glyph-name="J" horiz-adv-x="668" d="M274 -15T239 2T180 48L162 -6H31V309H172Q172 238 185 205T238 172Q272 172 292 204T313 279V605H219V778H641V605H563V232Q563 119 498 52T320 -15Q274 -15 239 2Z" />
<glyph unicode="K" glyph-name="K" horiz-adv-x="886" d="M63 172H141V605H63V777H453V605H391V428L520 605V777H824V605H757L602 417V410Q681 410 726 383T771 289V210Q771 195 779 184T803 172H859V0H680Q516 0 516 150V235Q516 260 500 284T462 308H391V172H469V0H63V172Z"
/>
<glyph unicode="L" glyph-name="L" horiz-adv-x="701" d="M63 0V175H141V605H63V777H469V605H391V175H516L563 346H687V0H63Z" />
<glyph unicode="M" glyph-name="M" horiz-adv-x="1158" d="M31 0V172H125V605H31V777H450L601 403L750 777H1141V605H1047V172H1141V0H734V172H797V462L625 0H484L281 473V172H359V0H31Z" />
<glyph unicode="N" glyph-name="N" horiz-adv-x="904" d="M40 0V175H119V606H42V778H401L644 316V605H566V777H877V605H800V0H504L273 429V175H351V0H40Z" />
<glyph unicode="O" glyph-name="O" horiz-adv-x="869" d="M300 -14T212 38T77 181T31 390Q31 511 77 602T211 742T422 792Q545 792 633 743T767 602T813 390Q813 273 767 182T633 38T422 -14Q300 -14 212 38ZM475 159T503 223T531 394Q531 498 504 558T422 619Q367
619 340 559T313 394Q313 287 341 223T422 159Q475 159 503 223Z" />
<glyph unicode="P" glyph-name="P" horiz-adv-x="821" d="M40 175H116V605H42V778H458Q601 778 693 730T786 553Q786 404 705 339T462 273Q422 273 389 278V175H460V0H40V175ZM410 432Q521 432 521 530Q521 566 497 585T431 605H390V432H410Z" />
<glyph unicode="Q" glyph-name="Q" horiz-adv-x="896" d="M318 -14T227 38T85 183T33 390Q33 510 82 601T221 742T434 792Q556 792 646 742T785 601T834 390Q834 270 778 175L780 176H859V0H548Q492 -14 434 -14Q318 -14 227 38ZM485 155T513 225T541 394Q541
487 514 551T434 615Q380 615 353 551T326 394Q326 296 354 226T434 155Q485 155 513 225Z" />
<glyph unicode="R" glyph-name="R" horiz-adv-x="869" d="M63 172H141V605H63V777H562Q683 777 740 728T797 566Q797 490 755 449T634 394Q704 383 735 342T766 238V175H875V0H718Q642 0 609 10T559 65T541 215Q541 275 522 304T450 333H391V172H469V0H63V172ZM458
444Q511 444 537 463T563 530Q563 565 537 585T468 605H391V444H458Z" />
<glyph unicode="S" glyph-name="S" horiz-adv-x="687" d="M343 -14T308 -1T231 45L214 0H56V238H213Q228 197 259 180T337 163Q365 163 385 174T405 205Q405 229 385 241T327 263Q233 289 173 319T75 405T38 553Q38 624 68 678T156 762T290 792Q384 792 439 732L464
778H604V545H454Q433 589 408 606T338 623Q304 623 286 611T267 578Q267 555 293 543T369 519Q456 499 516 470T613 386T650 245Q650 172 620 113T533 20T403 -14Q343 -14 308 -1Z" />
<glyph unicode="T" glyph-name="T" horiz-adv-x="799" d="M178 0V176H258V605H189L168 471H31V777H762V471H625L604 605H533V176H613V0H178Z" />
<glyph unicode="U" glyph-name="U" horiz-adv-x="826" d="M252 -14T176 77T99 344V605H20V777H444V605H372V278Q372 230 395 200T469 169Q511 169 535 194T560 262V605H480V777H799V605H724V269Q724 129 642 58T426 -14Q252 -14 176 77Z" />
<glyph unicode="V" glyph-name="V" horiz-adv-x="868" d="M276 0L100 605H19V777H441V605H385L483 252L569 605H505V777H844V605H756L562 0H276Z" />
<glyph unicode="W" glyph-name="W" horiz-adv-x="1262" d="M269 0L99 605H19V778H454V605H380L458 328L585 778H785L908 343L984 605H916V778H1238V605H1156L989 0H724L630 345L531 0H269Z" />
<glyph unicode="X" glyph-name="X" horiz-adv-x="978" d="M38 0V175H115L327 411L146 605H63V778H511V605H471L550 510L622 605H552V778H917V605H820L658 395L867 175H941V0H488V175H549L431 300L330 175H439V0H38Z" />
<glyph unicode="Y" glyph-name="Y" horiz-adv-x="813" d="M204 0V175H279V318L74 605H19V777H435V605H391L480 475L550 605H479V777H790V605H702L551 344V175H628V0H204Z" />
<glyph unicode="Z" glyph-name="Z" horiz-adv-x="775" d="M46 0V171L377 605H223L184 453H43V777H724V617L394 175H544L597 339H734V0H46Z" />
<glyph unicode="[" glyph-name="bracketleft" horiz-adv-x="384" d="M18 0V792H366V646H270V152H364V0H18Z" />
<glyph unicode="\" glyph-name="backslash" horiz-adv-x="462" d="M175 0L8 792H288L455 0H175Z" />
<glyph unicode="]" glyph-name="bracketright" horiz-adv-x="384" d="M20 0V152H114V646H18V792H366V0H20Z" />
<glyph unicode="^" glyph-name="asciicircum" horiz-adv-x="702" d="M18 444L260 793H440L683 444H456L350 606L245 444H18Z" />
<glyph unicode="_" glyph-name="underscore" horiz-adv-x="648" d="M34 -109V0H616V-109H34Z" />
<glyph unicode="`" glyph-name="grave" horiz-adv-x="369" d="M294 591L23 744L113 873L345 660L294 591Z" />
<glyph unicode="a" glyph-name="a" horiz-adv-x="682" d="M169 -9T128 10T63 66T38 150Q38 202 66 237T142 290T243 308Q307 308 366 289V311Q366 350 333 370T244 391Q208 391 161 378T83 346L69 352V494Q128 515 189 524T304 533Q601 533 601 366V147H647V0H397L375
80Q354 39 310 15T218 -9Q169 -9 128 10ZM326 116T343 121T366 133V215Q359 216 343 220T314 225Q288 225 273 209T257 166Q257 146 271 131T310 116Q326 116 343 121Z" />
<glyph unicode="b" glyph-name="b" horiz-adv-x="732" d="M424 -9T388 10T326 56L307 0H88V597H25V730L322 762V471Q360 502 401 517T479 533Q549 533 598 497T672 400T697 263Q697 185 672 124T595 27T469 -9Q424 -9 388 10ZM433 134T456 168T479 249Q479 306
459 348T398 390Q375 390 353 380T322 358V158Q333 149 355 142T398 134Q433 134 456 168Z" />
<glyph unicode="c" glyph-name="c" horiz-adv-x="610" d="M239 -9T172 25T68 121T31 267Q31 343 62 403T150 498T284 533Q327 533 375 518T437 471L457 523H563V307H422Q418 346 399 368T352 390Q310 390 288 364T266 266Q266 193 304 165T391 137Q426 137 467
149T540 189L547 184V48Q547 46 517 31T438 4T328 -9Q239 -9 172 25Z" />
<glyph unicode="d" glyph-name="d" horiz-adv-x="739" d="M191 -9T140 28T62 129T35 269Q35 339 62 399T139 496T258 533Q308 533 343 517T410 469V597H332V730L645 762V147H707V0H406V63Q382 31 345 12T262 -9Q191 -9 140 28ZM363 134T381 145T410 171V356Q399
369 380 379T340 390Q302 390 278 359T254 269Q254 209 276 172T340 134Q363 134 381 145Z" />
<glyph unicode="e" glyph-name="e" horiz-adv-x="623" d="M237 -9T170 24T67 120T31 265Q31 347 66 407T164 500T313 533Q392 533 452 502T545 414T578 281Q578 255 570 231H266Q266 185 300 158T384 130Q421 130 465 143T555 183L563 180V49Q513 20 460 6T328
-9Q237 -9 170 24ZM391 317V327Q391 362 375 387T328 412Q302 412 284 387T266 331V317H391Z" />
<glyph unicode="f" glyph-name="f" horiz-adv-x="490" d="M40 147H118V380H40V523H118V570Q118 767 292 767Q330 767 374 760T446 744V600Q409 606 395 606Q352 606 352 541V523H446V380H352V147H446V0H40V147Z" />
<glyph unicode="g" glyph-name="g" horiz-adv-x="728" d="M216 -190T100 -160V-19Q165 -39 207 -49T291 -60Q409 -60 409 57Q382 33 343 17T255 0Q184 0 135 35T62 131T37 264Q37 339 62 400T136 497T255 533Q351 533 409 450L444 523H693V372H646V66Q646 -61
557 -125T320 -190Q216 -190 100 -160ZM370 134T389 148T412 176V354Q403 371 385 380T343 390Q303 390 279 356T255 261Q255 204 279 169T347 134Q370 134 389 148Z" />
<glyph unicode="h" glyph-name="h" horiz-adv-x="758" d="M47 147H109V597H47V730L344 762V447Q363 482 410 507T516 533Q601 533 644 483T688 343V147H750V0H453V319Q453 348 436 367T397 386Q372 386 358 369T344 323V147H391V0H47V147Z" />
<glyph unicode="i" glyph-name="i" horiz-adv-x="434" d="M161 574T122 603T82 686Q82 740 121 768T223 796Q285 796 324 769T363 686Q363 632 323 603T222 574Q161 574 122 603ZM42 0V147H105V372H42V492L339 523V147H402V0H42Z" />
<glyph unicode="j" glyph-name="j" horiz-adv-x="391" d="M145 574T105 603T65 686Q65 740 104 768T206 796Q269 796 307 769T346 686Q346 631 307 603T206 574Q145 574 105 603ZM34 -45H49Q112 -45 112 0V372H34V492L346 523V40Q346 -55 312 -106T210 -175T34 -194V-45Z" />
<glyph unicode="k" glyph-name="k" horiz-adv-x="737" d="M643 147H720V0H487L344 214V0H24V147H110V597H24V730L344 762V287L446 372H392V523H704V372H626L542 302L643 147Z" />
<glyph unicode="l" glyph-name="l" horiz-adv-x="478" d="M45 0V147H131V597H45V730L365 762V147H440V0H45Z" />
<glyph unicode="m" glyph-name="m" horiz-adv-x="1105" d="M1093 141V0H791V333Q791 354 778 370T745 386Q709 386 700 351T690 248V0H456V333Q456 354 443 370T410 386Q374 386 365 351T355 248V141H356V0H51V141H122V372H51V504L355 533V460Q389 500 432 516T529
533Q640 533 674 439Q710 490 757 511T864 533Q1025 533 1025 332V141H1093Z" />
<glyph unicode="n" glyph-name="n" horiz-adv-x="771" d="M758 141V0H456V333Q456 354 443 370T410 386Q374 386 365 351T355 248V141H356V0H51V141H122V372H51V504L355 533V460Q389 500 432 516T529 533Q690 533 690 332V141H758Z" />
<glyph unicode="o" glyph-name="o" horiz-adv-x="667" d="M245 -9T178 23T74 118T37 267Q37 352 74 412T178 502T333 533Q468 533 549 464T630 267Q630 181 593 119T489 24T333 -9Q245 -9 178 23ZM365 134T380 165T396 267Q396 332 381 361T333 390Q301 390 286
361T271 267Q271 197 286 166T333 134Q365 134 380 165Z" />
<glyph unicode="p" glyph-name="p" horiz-adv-x="738" d="M31 -46H94V372H31V503L328 533V450Q353 485 392 509T485 533Q555 533 604 497T678 400T703 264Q703 189 679 127T605 28T484 -9Q435 -9 395 10T328 58V-47H391V-194H31V-46ZM442 134T463 169T484 261Q484
320 461 355T401 390Q376 390 356 378T328 345V176Q350 134 398 134Q442 134 463 169Z" />
<glyph unicode="q" glyph-name="q" horiz-adv-x="740" d="M356 -47H411V58Q346 -9 258 -9Q187 -9 137 28T62 127T37 264Q37 338 62 399T137 497T257 533Q310 533 348 510T411 450L446 523H694V372H648V-46H706V-194H356V-47ZM373 144T392 157T411 190V334Q406
355 389 367T346 380Q267 380 267 261Q267 209 286 177T348 144Q373 144 392 157Z" />
<glyph unicode="r" glyph-name="r" horiz-adv-x="523" d="M31 147H94V372H31V504L328 533V448Q351 485 405 509T500 533V326Q443 345 406 345Q359 345 344 318T328 247V147H406V0H31V147Z" />
<glyph unicode="s" glyph-name="s" horiz-adv-x="579" d="M215 -9T138 44L122 0H31V193H140Q146 156 174 127T240 97Q254 97 264 105T275 131Q275 149 255 163T192 198Q142 223 110 243T55 297T31 378Q31 427 62 462T146 515T259 533Q339 533 407 491L419 523H500V367H406Q394
399 371 417T317 435Q300 435 291 430T281 412Q282 396 300 385T360 356Q412 334 446 314T505 258T531 167Q531 110 501 71T422 11T315 -9Q215 -9 138 44Z" />
<glyph unicode="t" glyph-name="t" horiz-adv-x="466" d="M187 -9T141 39T94 187V380H16V523H94V635L328 687V523H422V380H328V204Q328 182 344 168T386 153Q404 153 422 156V20Q358 -9 282 -9Q187 -9 141 39Z" />
<glyph unicode="u" glyph-name="u" horiz-adv-x="751" d="M94 -9T94 188V372H31V504L328 533V188Q328 169 342 153T375 137Q397 137 409 152T422 189V372H375V504L656 533V147H719V0H422V76Q396 36 353 14T251 -9Q94 -9 94 188Z" />
<glyph unicode="v" glyph-name="v" horiz-adv-x="724" d="M235 0L72 372H0V523H375V372H321L406 126L500 372H438V523H703V372H637L484 0H235Z" />
<glyph unicode="w" glyph-name="w" horiz-adv-x="1006" d="M212 0L96 372H31V523H377V372H331L376 191L479 523H609L715 185L764 372H706V523H975V372H909L798 0H566L503 210L429 0H212Z" />
<glyph unicode="x" glyph-name="x" horiz-adv-x="649" d="M41 0V147H114L202 250L113 372H50V523H292L371 401L461 523H595V372H531L452 283L546 147H610V0H379L287 135L186 0H41Z" />
<glyph unicode="y" glyph-name="y" horiz-adv-x="755" d="M195 -184V-30H294L321 15L93 372H31V523H397V372H349L430 222L504 372H451V523H724V372H671L458 -30H533V-184H195Z" />
<glyph unicode="z" glyph-name="z" horiz-adv-x="609" d="M40 0V138L281 380H181L149 311H53V523H552V388L323 144H463L480 220H570V0H40Z" />
<glyph unicode="{" glyph-name="braceleft" horiz-adv-x="419" d="M288 -9T213 36T105 165Q86 217 86 273Q86 313 67 332T6 353V470Q47 472 66 490T86 549Q86 668 162 747Q200 786 262 808T401 831V669Q322 669 322 549Q322 456 200 411Q322 366 322 273Q322 153
401 153V-9Q288 -9 213 36Z" />
<glyph unicode="|" glyph-name="bar" horiz-adv-x="228" d="M18 0V792H210V0H18Z" />
<glyph unicode="}" glyph-name="braceright" horiz-adv-x="419" d="M18 154Q97 154 97 274Q97 367 219 412Q97 457 97 550Q97 670 18 670V832Q131 832 206 787T313 658Q333 607 333 551Q333 511 352 492T413 471V354Q372 352 353 333T333 274Q333 156 257 77Q219
37 157 15T18 -8V154Z" />
<glyph unicode="~" glyph-name="asciitilde" horiz-adv-x="620" d="M436 308Q405 308 377 320T307 358Q264 383 237 395T179 407Q164 407 144 387T90 326L76 310L12 352Q20 365 30 384T44 411Q65 455 81 482T124 528T185 547Q221 547 251 534T327 495Q364 473
390 462T443 450Q458 450 481 473T545 545L608 503Q590 476 567 428Q546 386 532 363T494 323T437 307L436 308Z" />
<glyph unicode="&#xa0;" glyph-name="uni00A0" horiz-adv-x="206" />
<glyph unicode="&#xa1;" glyph-name="exclamdown" horiz-adv-x="336" d="M110 565T71 598Q32 631 32 688Q32 742 70 775Q110 807 168 807Q229 807 269 775Q308 742 308 688Q308 631 268 598Q227 565 168 565H167Q110 565 71 598ZM26 0V146L66 524L271 523L313 146V0H26Z" />
<glyph unicode="&#xa2;" glyph-name="cent" horiz-adv-x="538" d="M297 -9H291Q213 -9 152 23T57 117T22 266Q22 340 54 401T143 497T275 533Q290 533 297 532V665H352L354 516Q380 503 402 485L422 523H507V306H389Q389 329 380 347T353 374V149Q367 155 378
174T390 208H507V61Q457 10 352 -4V-127H297V-9ZM299 370Q254 342 254 250Q254 217 264 189T299 150V370Z" />
<glyph unicode="&#xa3;" glyph-name="sterling" horiz-adv-x="603" d="M104 -10T21 14V166Q48 159 67 159Q100 159 110 182T121 254V371H61V485H121V589Q121 629 138 663T184 721Q224 752 284 768T411 785Q503 785 566 763V611Q506 617 465 617Q410 617 382 601T353
545V485H477V371H353V178Q417 161 497 161Q528 161 583 166V14Q514 -9 450 -9Q326 -9 326 74Q275 -10 159 -10Q104 -10 21 14Z" />
<glyph unicode="&#xa4;" glyph-name="currency" horiz-adv-x="603" d="M205 264T133 312L93 272L43 322L79 358Q20 431 20 536Q20 640 76 708L43 742L93 792L128 757Q203 808 300 808Q400 808 475 754L512 792L563 742L526 706Q580 635 580 536Q580 431 523 362L563
322L512 272L470 314Q398 264 300 264Q205 264 133 312ZM331 342T367 355Q400 367 427 391Q452 413 469 452Q485 490 485 537Q485 584 469 620L468 619Q454 654 426 681Q397 705 367 716Q335 729 299 729Q264 729 231 717Q194 702 172 681Q146 660 129 620Q113
578 113 536Q113 492 129 452Q145 414 172 390Q197 368 231 354Q264 342 299 342Q331 342 367 355Z" />
<glyph unicode="&#xa5;" glyph-name="yen" horiz-adv-x="812" d="M203 180H278V222H72V307H278V327L248 371H72L74 457H189L74 622H20V792H436V622H391L481 485Q510 529 523 555T537 596Q537 611 524 616T479 621V792H791V621H754Q726 621 708 611T676 578L601
456H752V371H550V307H752V222H550V180H627V-1H203V180Z" />
<glyph unicode="&#xa6;" glyph-name="brokenbar" horiz-adv-x="266" d="M36 440V792H229V440H36ZM36 0V352H229V0H36Z" />
<glyph unicode="&#xa7;" glyph-name="section" horiz-adv-x="496" d="M228 -9T194 0T136 33L119 0H36V185H144Q149 151 173 127T232 102Q250 102 262 112T275 140Q275 172 248 194T163 246Q115 271 86 290T36 339T15 407Q15 449 43 483T114 534Q34 591 34 660Q34
700 57 731T120 780T206 798Q277 798 334 766L347 791H429V633H331L315 669Q294 714 260 714Q241 714 231 704T220 675Q220 652 244 633T320 586Q371 557 401 537T453 486T476 416Q476 368 448 332T372 270Q451 221 451 144Q451 102 427 67T363 12T277 -9Q228 -9
194 0ZM331 363T331 399Q331 422 301 443T220 481Q195 471 183 458T170 427Q170 400 204 378T289 334Q331 363 331 399Z" />
<glyph unicode="&#xa8;" glyph-name="dieresis" horiz-adv-x="578" d="M87 597T56 629T25 710Q25 758 56 789T136 821Q185 821 215 790T246 709Q246 661 215 629T136 597Q87 597 56 629ZM388 596T357 628T326 710Q326 758 357 789T436 821Q485 821 515 790T546
709Q546 661 515 629T437 596Q388 596 357 628Z" />
<glyph unicode="&#xa9;" glyph-name="copyright" horiz-adv-x="864" d="M350 -9T272 23Q197 54 141 107Q86 161 54 233Q21 307 21 387Q21 467 54 540L53 539Q86 613 141 665Q199 720 272 750Q347 781 432 781Q517 781 591 750Q668 718 722 666Q777 613 810 540Q842
465 842 386Q842 308 810 233Q777 159 722 107Q667 53 591 22Q517 -9 432 -9Q350 -9 272 23ZM517 63T594 106Q669 149 712 224Q756 296 756 385Q756 474 712 546Q668 620 594 663Q520 706 431 706Q364 706 305 681Q244 655 201 612Q156 569 131 509Q105 449 105
385Q105 321 131 260Q156 203 201 158Q244 115 305 89Q366 63 431 63Q517 63 594 106ZM302 120T240 189Q179 257 179 378Q179 419 186 454Q194 492 210 526Q226 559 251 586Q276 612 311 627Q347 642 390 642Q470 642 501 611L512 633H608V437H516Q518 460 510
479Q505 497 487 515Q471 530 444 530Q427 530 415 524Q402 518 395 506Q389 499 381 483Q375 468 374 454L371 424V395V357Q371 346 372 337Q372 325 374 315L378 296Q382 282 385 276Q386 274 395 260Q399 253 408 247Q415 243 425 240Q436 237 448 237Q473 237
493 251Q511 266 517 291Q519 299 519 320H612V193L604 183Q595 176 577 165Q551 151 536 145Q515 135 481 127Q450 120 417 120Q302 120 240 189Z" />
<glyph unicode="&#xaa;" glyph-name="ordfeminine" horiz-adv-x="503" d="M109 394T68 426T27 511Q27 563 71 594T184 626Q240 626 276 612V628Q276 688 200 688Q148 688 123 654H60V767Q154 793 234 793Q329 793 384 764T439 671V511H467V401H297L279 444Q260
420 229 407T167 394Q109 394 68 426ZM260 480T276 496V549Q260 557 241 557Q225 557 215 545T203 517Q203 500 212 490T237 480Q260 480 276 496Z" />
<glyph unicode="&#xab;" glyph-name="guillemotleft" horiz-adv-x="642" d="M232 -2L24 195V327L232 524L325 415L171 261L325 107L232 -2ZM530 -2L322 195V327L530 524L623 415L469 261L623 107L530 -2Z" />
<glyph unicode="&#xac;" glyph-name="logicalnot" horiz-adv-x="555" d="M408 265V372H28L27 533H521V265H408Z" />
<glyph unicode="&#xad;" glyph-name="uni00AD" horiz-adv-x="380" d="M32 262V408H348V262H32Z" />
<glyph unicode="&#xae;" glyph-name="registered" horiz-adv-x="864" d="M842 465T842 386Q842 308 810 233Q777 159 722 107Q667 53 591 22Q517 -9 432 -9Q350 -9 272 23Q197 54 141 107Q86 161 54 233Q21 307 21 387Q21 467 54 540L53 539Q86 613 141 665Q199
720 272 750Q347 781 432 781Q517 781 591 750Q668 718 722 666Q777 613 810 540Q842 465 842 386ZM756 296T756 385Q756 474 712 546Q668 620 594 663Q520 706 431 706Q364 706 305 681Q244 655 201 612Q156 569 131 509Q105 449 105 385Q105 321 131 260Q156
203 201 158Q244 115 305 89Q366 63 431 63Q517 63 594 106Q669 149 712 224Q756 296 756 385ZM618 287T626 279Q635 273 663 273V176H592H561Q541 179 533 181Q519 183 508 191Q500 196 492 211Q485 229 485 245V298Q485 332 475 348Q464 365 434 365H408V276H440V176Q319
176 221 175V274H263V517H221V616H496Q565 616 603 587Q641 558 641 494Q641 455 615 429Q588 402 543 395Q582 386 601 369Q618 350 618 327V302Q618 287 626 279ZM491 426T491 474Q491 496 478 508Q464 521 439 521H406V426H423Q491 426 491 474Z" />
<glyph unicode="&#xaf;" glyph-name="overscore" horiz-adv-x="575" d="M27 784H548V638H27V784Z" />
<glyph unicode="&#xb0;" glyph-name="degree" horiz-adv-x="395" d="M152 463T119 478Q83 493 64 517Q42 542 32 571Q21 599 21 633Q21 667 32 693Q41 719 63 746Q83 769 118 784Q152 798 193 798Q235 798 271 784Q306 770 326 747Q350 720 359 695Q371 667 371
635Q371 603 359 573Q350 546 326 519Q306 496 270 480Q235 465 192 465L193 463Q152 463 119 478ZM192 534Q240 534 267 563Q294 593 294 633Q294 675 268 702Q241 730 193 730Q146 730 121 702Q95 673 95 633Q95 593 122 563Q147 533 193 533L192 534Z" />
<glyph unicode="&#xb1;" glyph-name="plusminus" horiz-adv-x="383" d="M131 136V252H18V372H131V503H255V372H365V252H255V136H131ZM32 0V109H348V0H32Z" />
<glyph unicode="&#xb2;" glyph-name="uni00B2" horiz-adv-x="426" d="M49 472Q107 495 144 526Q177 553 193 576T210 636Q210 657 198 672T170 687Q151 687 141 675T131 645Q131 625 149 607L83 556Q39 597 39 659Q39 721 84 756T200 792Q273 792 317 759T362
658Q362 623 346 595T302 543T225 480H272Q304 480 320 489T336 523H387V385H51L49 472Z" />
<glyph unicode="&#xb3;" glyph-name="uni00B3" horiz-adv-x="400" d="M125 387T93 392T35 414V512Q86 470 141 470Q167 470 186 480T205 513Q205 538 186 549T138 561Q117 561 97 555H91V603L188 686V688H126Q109 688 101 680T87 648H32V778H337V703L256 635Q298
631 327 600T356 527Q356 457 305 422T171 387Q125 387 93 392Z" />
<glyph unicode="&#xb4;" glyph-name="acute" horiz-adv-x="368" d="M74 591L23 660L255 873L345 744L74 591Z" />
<glyph unicode="&#xb5;" glyph-name="uni00B5" horiz-adv-x="680" d="M387 0V76Q348 17 277 -2Q301 -97 301 -190H59V372Q59 452 49 523L293 533V188Q293 169 307 153T340 137Q362 137 374 152T387 189V372Q387 440 377 523L621 533V181Q621 77 631 0H387Z" />
<glyph unicode="&#xb6;" glyph-name="paragraph" horiz-adv-x="713" d="M689 177V0H490V620H429V0H225V177H296V360Q233 360 183 371Q136 381 95 406Q58 430 38 471Q19 509 19 561Q19 607 27 636Q35 666 47 688Q59 708 79 728Q96 745 120 756Q143 767 169 774Q196
783 224 786Q261 790 284 791Q324 793 346 792H410H687V619H613V177H689Z" />
<glyph unicode="&#xb7;" glyph-name="middot" horiz-adv-x="327" d="M103 250T63 284Q24 317 24 373Q24 429 63 460Q101 493 160 493Q222 493 261 460Q300 429 300 373Q300 317 260 284Q220 251 161 251L160 250Q103 250 63 284Z" />
<glyph unicode="&#xb8;" glyph-name="cedilla" horiz-adv-x="250" d="M29 -183Q77 -182 99 -168T121 -123Q121 -81 67 -68V0H154V-60Q219 -83 219 -140Q219 -190 169 -214T40 -238H29V-183Z" />
<glyph unicode="&#xb9;" glyph-name="uni00B9" horiz-adv-x="293" d="M58 384V477H83V656H37V729L226 777L228 477H255V384H58Z" />
<glyph unicode="&#xba;" glyph-name="ordmasculine" horiz-adv-x="503" d="M153 392T94 446T34 596Q34 692 93 742T252 792Q353 792 411 742T470 596Q470 500 410 446T251 392Q153 392 94 446ZM300 504T300 594Q300 635 291 657T251 679Q221 679 212 656T202 590Q202
504 250 504Q300 504 300 594Z" />
<glyph unicode="&#xbb;" glyph-name="guillemotright" horiz-adv-x="640" d="M112 -2L19 107L172 261L19 415L112 524L320 327V195L112 -2ZM410 -2L316 107L470 261L316 415L410 524L618 327V195L410 -2Z" />
<glyph unicode="&#xbc;" glyph-name="onequarter" horiz-adv-x="851" d="M302 399V492H327V671H281V744L470 792L472 492H499V399H302ZM182 -1L421 792H599L354 -1H182ZM594 0V82H630V120H478V197L636 384H762V193H827V120H761V82H796V0H594ZM630 193V261L576
194L630 193Z" />
<glyph unicode="&#xbd;" glyph-name="onehalf" horiz-adv-x="887" d="M185 -1L424 792H602L357 -1H185ZM302 399V492H327V671H281V744L470 792L472 492H499V399H302ZM524 89Q582 112 619 143Q652 170 668 193T685 253Q685 274 673 289T645 304Q626 304 616 292T606
262Q606 242 624 224L558 173Q514 214 514 276Q514 338 559 373T675 409Q748 409 792 376T837 275Q837 240 821 212T777 160T700 97H747Q779 97 795 106T811 140H862V2H526L524 89Z" />
<glyph unicode="&#xbe;" glyph-name="threequarters" horiz-adv-x="938" d="M264 -1L503 792H681L436 -1H264ZM374 402T342 407T284 429V527Q335 485 390 485Q416 485 435 495T454 528Q454 553 435 564T387 576Q366 576 346 570H340V618L437 701V703H375Q358 703
350 695T336 663H281V793H586V718L505 650Q547 646 576 615T605 542Q605 472 554 437T420 402Q374 402 342 407ZM681 1V83H717V121H565V198L723 385H849V194H914V121H848V83H883V1H681ZM717 194V262L663 195L717 194Z" />
<glyph unicode="&#xbf;" glyph-name="questiondown" horiz-adv-x="629" d="M315 611T276 644Q237 676 237 731Q237 787 278 820Q320 854 377 854V853Q435 853 474 820Q513 787 513 731Q513 676 475 644Q436 611 377 611Q315 611 276 644ZM234 -8T165 21Q97 51
60 103Q21 154 21 219Q21 253 31 282Q40 311 55 334Q67 355 93 378Q107 392 138 414Q164 431 190 443Q218 457 243 467Q252 471 296 486V577L465 576V404Q271 317 271 230Q271 225 273 213Q275 204 279 192Q284 181 293 173Q303 166 318 166Q376 166 382 245H612Q606
136 523 63Q440 -8 315 -8Q234 -8 165 21Z" />
<glyph unicode="&#xc0;" glyph-name="Agrave" horiz-adv-x="859" d="M16 0V172H93L227 605H125V777H609L782 172H859V0H422V172H485L464 255H288L266 172H359V0H16ZM313 373H441L384 611L313 373ZM520 845L249 939L315 1073L571 914L520 845Z" />
<glyph unicode="&#xc1;" glyph-name="Aacute" horiz-adv-x="859" d="M16 0V172H93L227 605H125V777H609L782 172H859V0H422V172H485L464 255H288L266 172H359V0H16ZM313 373H441L384 611L313 373ZM300 845L256 918L505 1073L571 939L300 845Z" />
<glyph unicode="&#xc2;" glyph-name="Acircumflex" horiz-adv-x="859" d="M16 0V172H93L227 605H125V777H609L782 172H859V0H422V172H485L464 255H288L266 172H359V0H16ZM313 373H441L384 611L313 373ZM285 838L210 888L344 1042H476L610 888L535 838L410 943L285 838Z" />
<glyph unicode="&#xc3;" glyph-name="Atilde" horiz-adv-x="859" d="M16 0V172H93L227 605H125V777H609L782 172H859V0H422V172H485L464 255H288L266 172H359V0H16ZM313 373H441L384 611L313 373ZM475 853T454 858T397 874Q376 881 355 886T319 892Q299 892 283
882T248 848L193 884Q221 953 252 985T325 1017Q349 1017 371 1011T425 994Q474 975 498 975Q519 975 536 985T572 1020L627 983Q599 922 571 888T493 853Q475 853 454 858Z" />
<glyph unicode="&#xc4;" glyph-name="Adieresis" horiz-adv-x="859" d="M16 0V172H93L227 605H125V777H609L782 172H859V0H422V172H485L464 255H288L266 172H359V0H16ZM313 373H441L384 611L313 373ZM211 848T180 878T149 955Q149 1000 180 1029T260 1059Q309
1059 339 1030T370 954Q370 909 339 879T260 848Q211 848 180 878ZM511 848T481 878T450 954Q450 1000 481 1029T560 1059Q609 1059 639 1030T670 953Q670 908 639 878T560 848Q511 848 481 878Z" />
<glyph unicode="&#xc5;" glyph-name="Aring" horiz-adv-x="859" d="M16 0V172H93L227 605H125V777H609L782 172H859V0H422V172H485L464 255H288L266 172H359V0H16ZM313 373H441L384 611L313 373ZM349 820T312 854T275 938Q275 986 311 1018T410 1051Q472 1051
508 1018T545 937Q545 889 508 855T410 820Q349 820 312 854ZM445 869T466 888T488 937Q488 966 467 984T410 1003Q372 1003 351 985T330 937Q330 907 351 888T410 869Q445 869 466 888Z" />
<glyph unicode="&#xc6;" glyph-name="AE" horiz-adv-x="1070" d="M32 172Q65 172 88 186T127 226T167 297L324 622H220L255 792H1021V474L891 473L853 620H749V481H849V310H749V170H855L893 334H1026V-1H426L425 183H484Q489 210 489 225Q489 263 466 263H332Q322
263 317 252T312 224Q312 207 316 195T329 183H365V0L32 -1V172ZM363 375H480V630L363 375Z" />
<glyph unicode="&#xc7;" glyph-name="Ccedilla" horiz-adv-x="755" d="M563 458V474Q563 536 535 575T450 615Q412 615 381 586T331 510T313 413Q313 315 362 260T496 204Q556 204 607 224T692 267L703 258V50Q604 -8 464 -13V-60Q529 -83 529 -140Q529 -190 479
-214T350 -238H339V-183Q387 -182 409 -168T431 -123Q431 -81 377 -68V-12Q279 -2 201 46T77 182T31 393Q31 505 71 595T190 739T380 792Q437 792 482 766T547 698L567 777H719V458H563Z" />
<glyph unicode="&#xc8;" glyph-name="Egrave" horiz-adv-x="708" d="M47 0V172H141V605H47V777H703V468H578L531 605H391V478H516V350H391V172H531L578 331H703V0H47ZM492 845L221 939L287 1073L543 914L492 845Z" />
<glyph unicode="&#xc9;" glyph-name="Eacute" horiz-adv-x="708" d="M47 0V172H141V605H47V777H703V468H578L531 605H391V478H516V350H391V172H531L578 331H703V0H47ZM272 845L228 918L477 1073L543 939L272 845Z" />
<glyph unicode="&#xca;" glyph-name="Ecircumflex" horiz-adv-x="708" d="M47 0V172H141V605H47V777H703V468H578L531 605H391V478H516V350H391V172H531L578 331H703V0H47ZM257 838L182 888L316 1042H448L582 888L507 838L382 943L257 838Z" />
<glyph unicode="&#xcb;" glyph-name="Edieresis" horiz-adv-x="708" d="M47 0V172H141V605H47V777H703V468H578L531 605H391V478H516V350H391V172H531L578 331H703V0H47ZM183 848T152 878T121 955Q121 1000 152 1029T232 1059Q281 1059 311 1030T342 954Q342 909
311 879T232 848Q183 848 152 878ZM483 848T453 878T422 954Q422 1000 453 1029T532 1059Q581 1059 611 1030T642 953Q642 908 611 878T532 848Q483 848 453 878Z" />
<glyph unicode="&#xcc;" glyph-name="Igrave" horiz-adv-x="502" d="M63 0V172H141V605H63V777H469V605H391V172H469V0H63ZM376 845L105 939L171 1073L427 914L376 845Z" />
<glyph unicode="&#xcd;" glyph-name="Iacute" horiz-adv-x="502" d="M63 0V172H141V605H63V777H469V605H391V172H469V0H63ZM156 845L112 918L361 1073L427 939L156 845Z" />
<glyph unicode="&#xce;" glyph-name="Icircumflex" horiz-adv-x="502" d="M63 0V172H141V605H63V777H469V605H391V172H469V0H63ZM141 838L66 888L200 1042H332L466 888L391 838L266 943L141 838Z" />
<glyph unicode="&#xcf;" glyph-name="Idieresis" horiz-adv-x="502" d="M63 0V172H141V605H63V777H469V605H391V172H469V0H63ZM67 848T36 878T5 955Q5 1000 36 1029T116 1059Q165 1059 195 1030T226 954Q226 909 195 879T116 848Q67 848 36 878ZM367 848T337 878T306
954Q306 1000 337 1029T416 1059Q465 1059 495 1030T526 953Q526 908 495 878T416 848Q367 848 337 878Z" />
<glyph unicode="&#xd0;" glyph-name="Eth" horiz-adv-x="885" d="M44 171H124V319H61V465H124L125 620H42V792H448Q650 792 750 692Q850 590 850 398Q850 319 823 248Q796 177 745 121Q694 66 615 33Q536 0 436 0H44V171ZM444 169T471 184Q499 200 515 221Q531
243 541 274Q552 307 555 335Q559 362 559 398Q559 432 556 459Q553 488 544 518Q537 548 521 570Q504 592 478 605Q451 620 415 620H392V464H434V318H393L394 171H409L408 169Q444 169 471 184Z" />
<glyph unicode="&#xd1;" glyph-name="Ntilde" horiz-adv-x="904" d="M40 0V175H119V606H42V778H401L644 316V605H566V777H877V605H800V0H504L273 429V175H351V0H40ZM528 853T507 858T450 874Q429 881 408 886T372 892Q352 892 336 882T301 848L246 884Q274 953
305 985T378 1017Q402 1017 424 1011T478 994Q527 975 551 975Q572 975 589 985T625 1020L680 983Q652 922 624 888T546 853Q528 853 507 858Z" />
<glyph unicode="&#xd2;" glyph-name="Ograve" horiz-adv-x="869" d="M300 -14T212 38T77 181T31 390Q31 511 77 602T211 742T422 792Q545 792 633 743T767 602T813 390Q813 273 767 182T633 38T422 -14Q300 -14 212 38ZM475 159T503 223T531 394Q531 498 504 558T422
619Q367 619 340 559T313 394Q313 287 341 223T422 159Q475 159 503 223ZM529 861L258 955L324 1089L580 930L529 861Z" />
<glyph unicode="&#xd3;" glyph-name="Oacute" horiz-adv-x="869" d="M300 -14T212 38T77 181T31 390Q31 511 77 602T211 742T422 792Q545 792 633 743T767 602T813 390Q813 273 767 182T633 38T422 -14Q300 -14 212 38ZM475 159T503 223T531 394Q531 498 504 558T422
619Q367 619 340 559T313 394Q313 287 341 223T422 159Q475 159 503 223ZM309 861L265 934L514 1089L580 955L309 861Z" />
<glyph unicode="&#xd4;" glyph-name="Ocircumflex" horiz-adv-x="869" d="M300 -14T212 38T77 181T31 390Q31 511 77 602T211 742T422 792Q545 792 633 743T767 602T813 390Q813 273 767 182T633 38T422 -14Q300 -14 212 38ZM475 159T503 223T531 394Q531 498
504 558T422 619Q367 619 340 559T313 394Q313 287 341 223T422 159Q475 159 503 223ZM294 854L219 904L353 1058H485L619 904L544 854L419 959L294 854Z" />
<glyph unicode="&#xd5;" glyph-name="Otilde" horiz-adv-x="869" d="M300 -14T212 38T77 181T31 390Q31 511 77 602T211 742T422 792Q545 792 633 743T767 602T813 390Q813 273 767 182T633 38T422 -14Q300 -14 212 38ZM475 159T503 223T531 394Q531 498 504 558T422
619Q367 619 340 559T313 394Q313 287 341 223T422 159Q475 159 503 223ZM484 869T463 874T406 890Q385 897 364 902T328 908Q308 908 292 898T257 864L202 900Q230 969 261 1001T334 1033Q358 1033 380 1027T434 1010Q483 991 507 991Q528 991 545 1001T581 1036L636
999Q608 938 580 904T502 869Q484 869 463 874Z" />
<glyph unicode="&#xd6;" glyph-name="Odieresis" horiz-adv-x="869" d="M300 -14T212 38T77 181T31 390Q31 511 77 602T211 742T422 792Q545 792 633 743T767 602T813 390Q813 273 767 182T633 38T422 -14Q300 -14 212 38ZM475 159T503 223T531 394Q531 498 504
558T422 619Q367 619 340 559T313 394Q313 287 341 223T422 159Q475 159 503 223ZM220 864T189 894T158 971Q158 1016 189 1045T269 1075Q318 1075 348 1046T379 970Q379 925 348 895T269 864Q220 864 189 894ZM520 864T490 894T459 970Q459 1016 490 1045T569
1075Q618 1075 648 1046T679 969Q679 924 648 894T569 864Q520 864 490 894Z" />
<glyph unicode="&#xd7;" glyph-name="multiply" horiz-adv-x="403" d="M108 134L23 218L117 313L18 412L105 500L202 400L298 500L386 412L286 313L380 218L295 134L202 228L108 134Z" />
<glyph unicode="&#xd8;" glyph-name="Oslash" horiz-adv-x="868" d="M284 -76L304 5Q221 32 160 89T66 225T33 394Q33 509 80 603T217 752T433 807Q457 807 487 804L505 881L580 866L563 789Q692 750 762 646T833 395Q833 287 784 193T644 43T433 -14Q406 -14
382 -11L363 -95L284 -76ZM448 631L434 632Q373 632 352 573T331 417Q331 320 335 280T352 213L448 631ZM494 151T514 213T535 382Q535 471 531 509T515 575L420 153Q424 151 432 151Q494 151 514 213Z" />
<glyph unicode="&#xd9;" glyph-name="Ugrave" horiz-adv-x="826" d="M252 -14T176 77T99 344V605H20V777H444V605H372V278Q372 230 395 200T469 169Q511 169 535 194T560 262V605H480V777H799V605H724V269Q724 129 642 58T426 -14Q252 -14 176 77ZM516 845L245
939L311 1073L567 914L516 845Z" />
<glyph unicode="&#xda;" glyph-name="Uacute" horiz-adv-x="826" d="M252 -14T176 77T99 344V605H20V777H444V605H372V278Q372 230 395 200T469 169Q511 169 535 194T560 262V605H480V777H799V605H724V269Q724 129 642 58T426 -14Q252 -14 176 77ZM296 845L252
918L501 1073L567 939L296 845Z" />
<glyph unicode="&#xdb;" glyph-name="Ucircumflex" horiz-adv-x="826" d="M252 -14T176 77T99 344V605H20V777H444V605H372V278Q372 230 395 200T469 169Q511 169 535 194T560 262V605H480V777H799V605H724V269Q724 129 642 58T426 -14Q252 -14 176 77ZM281 838L206
888L340 1042H472L606 888L531 838L406 943L281 838Z" />
<glyph unicode="&#xdc;" glyph-name="Udieresis" horiz-adv-x="826" d="M252 -14T176 77T99 344V605H20V777H444V605H372V278Q372 230 395 200T469 169Q511 169 535 194T560 262V605H480V777H799V605H724V269Q724 129 642 58T426 -14Q252 -14 176 77ZM207 848T176
878T145 955Q145 1000 176 1029T256 1059Q305 1059 335 1030T366 954Q366 909 335 879T256 848Q207 848 176 878ZM507 848T477 878T446 954Q446 1000 477 1029T556 1059Q605 1059 635 1030T666 953Q666 908 635 878T556 848Q507 848 477 878Z" />
<glyph unicode="&#xdd;" glyph-name="Yacute" horiz-adv-x="813" d="M204 0V175H279V318L74 605H19V777H435V605H391L480 475L550 605H479V777H790V605H702L551 344V175H628V0H204ZM308 845L264 918L513 1073L579 939L308 845Z" />
<glyph unicode="&#xde;" glyph-name="Thorn" horiz-adv-x="817" d="M38 177H115V726H41V899H388L387 753Q433 753 452 752Q480 752 515 749Q556 745 576 741Q593 738 631 728Q658 720 682 707Q697 698 723 678Q744 659 755 638Q767 616 775 586Q782 558 782 521Q782
456 759 407Q736 358 693 330Q652 301 592 287Q539 273 460 273Q420 273 387 278V177H458V0H38V177ZM417 437Q470 437 500 455Q528 473 528 515Q528 554 502 571Q475 589 438 589H388V437H417Z" />
<glyph unicode="&#xdf;" glyph-name="germandbls" horiz-adv-x="811" d="M472 169Q543 188 543 263Q543 314 497 339T368 365L367 439Q417 439 444 466T472 538Q472 622 400 622Q367 622 349 605T331 552L332 147H405V0H34V147H97V533Q97 671 174 731T406 792Q541
792 617 745T693 603Q693 540 665 498T583 438Q674 414 726 361T778 220Q778 98 699 44T473 -10L472 169Z" />
<glyph unicode="&#xe0;" glyph-name="agrave" horiz-adv-x="682" d="M169 -9T128 10T63 66T38 150Q38 202 66 237T142 290T243 308Q307 308 366 289V311Q366 350 333 370T244 391Q208 391 161 378T83 346L69 352V494Q128 515 189 524T304 533Q601 533 601 366V147H647V0H397L375
80Q354 39 310 15T218 -9Q169 -9 128 10ZM326 116T343 121T366 133V215Q359 216 343 220T314 225Q288 225 273 209T257 166Q257 146 271 131T310 116Q326 116 343 121ZM441 601L170 754L260 883L492 670L441 601Z" />
<glyph unicode="&#xe1;" glyph-name="aacute" horiz-adv-x="682" d="M169 -9T128 10T63 66T38 150Q38 202 66 237T142 290T243 308Q307 308 366 289V311Q366 350 333 370T244 391Q208 391 161 378T83 346L69 352V494Q128 515 189 524T304 533Q601 533 601 366V147H647V0H397L375
80Q354 39 310 15T218 -9Q169 -9 128 10ZM326 116T343 121T366 133V215Q359 216 343 220T314 225Q288 225 273 209T257 166Q257 146 271 131T310 116Q326 116 343 121ZM228 601L177 670L409 883L499 754L228 601Z" />
<glyph unicode="&#xe2;" glyph-name="acircumflex" horiz-adv-x="682" d="M169 -9T128 10T63 66T38 150Q38 202 66 237T142 290T243 308Q307 308 366 289V311Q366 350 333 370T244 391Q208 391 161 378T83 346L69 352V494Q128 515 189 524T304 533Q601 533 601
366V147H647V0H397L375 80Q354 39 310 15T218 -9Q169 -9 128 10ZM326 116T343 121T366 133V215Q359 216 343 220T314 225Q288 225 273 209T257 166Q257 146 271 131T310 116Q326 116 343 121ZM206 575L131 624L264 808H396L530 624L455 575L331 695L206 575Z" />
<glyph unicode="&#xe3;" glyph-name="atilde" horiz-adv-x="682" d="M169 -9T128 10T63 66T38 150Q38 202 66 237T142 290T243 308Q307 308 366 289V311Q366 350 333 370T244 391Q208 391 161 378T83 346L69 352V494Q128 515 189 524T304 533Q601 533 601 366V147H647V0H397L375
80Q354 39 310 15T218 -9Q169 -9 128 10ZM326 116T343 121T366 133V215Q359 216 343 220T314 225Q288 225 273 209T257 166Q257 146 271 131T310 116Q326 116 343 121ZM548 759Q540 747 516 707Q492 662 471 640T414 618Q395 618 373 626T318 650Q289 664 271 670T240
677Q230 677 218 668T169 624L113 660Q125 677 145 713Q171 758 191 780T246 802Q269 802 291 793T345 768Q373 754 388 748T419 741Q429 741 442 751T492 796L548 759ZM246 802H245H246Z" />
<glyph unicode="&#xe4;" glyph-name="adieresis" horiz-adv-x="682" d="M169 -9T128 10T63 66T38 150Q38 202 66 237T142 290T243 308Q307 308 366 289V311Q366 350 333 370T244 391Q208 391 161 378T83 346L69 352V494Q128 515 189 524T304 533Q601 533 601 366V147H647V0H397L375
80Q354 39 310 15T218 -9Q169 -9 128 10ZM326 116T343 121T366 133V215Q359 216 343 220T314 225Q288 225 273 209T257 166Q257 146 271 131T310 116Q326 116 343 121ZM132 607T101 639T70 720Q70 768 101 799T181 831Q230 831 260 800T291 719Q291 671 260 639T181
607Q132 607 101 639ZM433 606T402 638T371 720Q371 768 402 799T481 831Q530 831 560 800T591 719Q591 671 560 639T482 606Q433 606 402 638Z" />
<glyph unicode="&#xe5;" glyph-name="aring" horiz-adv-x="682" d="M169 -9T128 10T63 66T38 150Q38 202 66 237T142 290T243 308Q307 308 366 289V311Q366 350 333 370T244 391Q208 391 161 378T83 346L69 352V494Q128 515 189 524T304 533Q601 533 601 366V147H647V0H397L375
80Q354 39 310 15T218 -9Q169 -9 128 10ZM326 116T343 121T366 133V215Q359 216 343 220T314 225Q288 225 273 209T257 166Q257 146 271 131T310 116Q326 116 343 121ZM268 591T232 627T196 714Q196 763 231 797T328 832Q391 832 428 798T465 713Q465 681 448 653T400
608T328 591Q268 591 232 627ZM364 640T386 661T409 713Q409 742 387 762T328 783Q292 783 272 763T251 713Q251 682 272 661T328 640Q364 640 386 661Z" />
<glyph unicode="&#xe6;" glyph-name="ae" horiz-adv-x="972" d="M935 234T926 214H620Q620 174 654 150T738 125Q775 125 820 138T910 178L917 175V44Q868 16 815 1T683 -14Q610 -14 564 6T482 65Q438 23 383 5T252 -14Q197 -14 148 4T69 59T38 147Q38 191 66
226T142 280T249 300Q319 300 373 282V304Q373 385 256 385Q220 385 174 372T95 340L82 346V488Q135 509 191 517T296 526Q361 526 413 510T496 467Q526 496 572 512T665 528Q741 528 802 497T899 407T935 266Q935 234 926 214ZM730 389T673 389Q620 389 620 298L725
297Q730 389 673 389ZM375 195Q351 206 325 206Q303 206 290 192T276 151Q276 129 288 115T322 101Q353 101 375 124V195Z" />
<glyph unicode="&#xe7;" glyph-name="ccedilla" horiz-adv-x="610" d="M310 390T288 364T266 266Q266 193 304 165T391 137Q426 137 467 149T540 189L547 184V48Q547 46 521 33T453 8T356 -8V-60Q421 -83 421 -140Q421 -190 371 -214T242 -238H231V-183Q279 -182
301 -168T323 -123Q323 -81 269 -68V-5Q159 11 95 83T31 267Q31 343 62 403T150 498T284 533Q327 533 375 518T437 471L457 523H563V307H422Q418 346 399 368T352 390Q310 390 288 364Z" />
<glyph unicode="&#xe8;" glyph-name="egrave" horiz-adv-x="623" d="M237 -9T170 24T67 120T31 265Q31 347 66 407T164 500T313 533Q392 533 452 502T545 414T578 281Q578 255 570 231H266Q266 185 300 158T384 130Q421 130 465 143T555 183L563 180V49Q513 20
460 6T328 -9Q237 -9 170 24ZM391 317V327Q391 362 375 387T328 412Q302 412 284 387T266 331V317H391ZM425 591L154 744L244 873L476 660L425 591Z" />
<glyph unicode="&#xe9;" glyph-name="eacute" horiz-adv-x="623" d="M237 -9T170 24T67 120T31 265Q31 347 66 407T164 500T313 533Q392 533 452 502T545 414T578 281Q578 255 570 231H266Q266 185 300 158T384 130Q421 130 465 143T555 183L563 180V49Q513 20
460 6T328 -9Q237 -9 170 24ZM391 317V327Q391 362 375 387T328 412Q302 412 284 387T266 331V317H391ZM212 591L161 660L393 873L483 744L212 591Z" />
<glyph unicode="&#xea;" glyph-name="ecircumflex" horiz-adv-x="623" d="M237 -9T170 24T67 120T31 265Q31 347 66 407T164 500T313 533Q392 533 452 502T545 414T578 281Q578 255 570 231H266Q266 185 300 158T384 130Q421 130 465 143T555 183L563 180V49Q513
20 460 6T328 -9Q237 -9 170 24ZM391 317V327Q391 362 375 387T328 412Q302 412 284 387T266 331V317H391ZM190 565L115 614L248 798H380L514 614L439 565L315 685L190 565Z" />
<glyph unicode="&#xeb;" glyph-name="edieresis" horiz-adv-x="623" d="M237 -9T170 24T67 120T31 265Q31 347 66 407T164 500T313 533Q392 533 452 502T545 414T578 281Q578 255 570 231H266Q266 185 300 158T384 130Q421 130 465 143T555 183L563 180V49Q513
20 460 6T328 -9Q237 -9 170 24ZM391 317V327Q391 362 375 387T328 412Q302 412 284 387T266 331V317H391ZM116 597T85 629T54 710Q54 758 85 789T165 821Q214 821 244 790T275 709Q275 661 244 629T165 597Q116 597 85 629ZM417 596T386 628T355 710Q355 758 386
789T465 821Q514 821 544 790T575 709Q575 661 544 629T466 596Q417 596 386 628Z" />
<glyph unicode="&#xec;" glyph-name="igrave" horiz-adv-x="396" d="M44 0V146H84V365H41V492L319 523V146H360V0H44ZM312 591L41 744L131 873L363 660L312 591Z" />
<glyph unicode="&#xed;" glyph-name="iacute" horiz-adv-x="396" d="M44 0V146H84V365H41V492L319 523V146H360V0H44ZM99 591L48 660L280 873L370 744L99 591Z" />
<glyph unicode="&#xee;" glyph-name="icircumflex" horiz-adv-x="396" d="M44 0V146H84V365H41V492L319 523V146H360V0H44ZM77 565L2 614L135 798H267L401 614L326 565L202 685L77 565Z" />
<glyph unicode="&#xef;" glyph-name="idieresis" horiz-adv-x="396" d="M44 0V146H84V365H41V492L319 523V146H360V0H44ZM3 597T-28 629T-59 710Q-59 758 -28 789T52 821Q101 821 131 790T162 709Q162 661 131 629T52 597Q3 597 -28 629ZM304 596T273 628T242
710Q242 758 273 789T352 821Q401 821 431 790T462 709Q462 661 431 629T353 596Q304 596 273 628Z" />
<glyph unicode="&#xf0;" glyph-name="eth" horiz-adv-x="684" d="M262 -9T204 14Q147 37 109 77Q72 117 53 164Q34 211 34 263Q34 299 45 335Q55 369 80 400Q100 429 137 454Q167 475 220 489Q266 502 327 502H343Q331 547 319 571L197 521L166 598L254 633Q224
645 183 645Q147 645 122 640V792Q202 808 265 808Q407 808 500 732L604 774L636 696L559 666Q633 556 643 365V336Q643 274 632 229Q622 181 597 134Q573 91 537 59Q500 26 449 9Q397 -9 331 -9Q262 -9 204 14ZM357 164T367 177Q377 189 382 209Q386 228 388 244Q389
254 389 272Q389 378 341 378Q288 378 288 276Q288 164 342 164Q357 164 367 177Z" />
<glyph unicode="&#xf1;" glyph-name="ntilde" horiz-adv-x="771" d="M758 141V0H456V333Q456 354 443 370T410 386Q374 386 365 351T355 248V141H356V0H51V141H122V372H51V504L355 533V460Q389 500 432 516T529 533Q690 533 690 332V141H758ZM577 749Q569 737
545 697Q521 652 500 630T443 608Q424 608 402 616T347 640Q318 654 300 660T269 667Q259 667 247 658T198 614L142 650Q154 667 174 703Q200 748 220 770T275 792Q298 792 320 783T374 758Q402 744 417 738T448 731Q458 731 471 741T521 786L577 749ZM275 792H274H275Z"
/>
<glyph unicode="&#xf2;" glyph-name="ograve" horiz-adv-x="667" d="M245 -9T178 23T74 118T37 267Q37 352 74 412T178 502T333 533Q468 533 549 464T630 267Q630 181 593 119T489 24T333 -9Q245 -9 178 23ZM365 134T380 165T396 267Q396 332 381 361T333 390Q301
390 286 361T271 267Q271 197 286 166T333 134Q365 134 380 165ZM443 591L172 744L262 873L494 660L443 591Z" />
<glyph unicode="&#xf3;" glyph-name="oacute" horiz-adv-x="667" d="M245 -9T178 23T74 118T37 267Q37 352 74 412T178 502T333 533Q468 533 549 464T630 267Q630 181 593 119T489 24T333 -9Q245 -9 178 23ZM365 134T380 165T396 267Q396 332 381 361T333 390Q301
390 286 361T271 267Q271 197 286 166T333 134Q365 134 380 165ZM230 591L179 660L411 873L501 744L230 591Z" />
<glyph unicode="&#xf4;" glyph-name="ocircumflex" horiz-adv-x="667" d="M245 -9T178 23T74 118T37 267Q37 352 74 412T178 502T333 533Q468 533 549 464T630 267Q630 181 593 119T489 24T333 -9Q245 -9 178 23ZM365 134T380 165T396 267Q396 332 381 361T333
390Q301 390 286 361T271 267Q271 197 286 166T333 134Q365 134 380 165ZM208 565L133 614L266 798H398L532 614L457 565L333 685L208 565Z" />
<glyph unicode="&#xf5;" glyph-name="otilde" horiz-adv-x="667" d="M245 -9T178 23T74 118T37 267Q37 352 74 412T178 502T333 533Q468 533 549 464T630 267Q630 181 593 119T489 24T333 -9Q245 -9 178 23ZM365 134T380 165T396 267Q396 332 381 361T333 390Q301
390 286 361T271 267Q271 197 286 166T333 134Q365 134 380 165ZM550 749Q542 737 518 697Q494 652 473 630T416 608Q397 608 375 616T320 640Q291 654 273 660T242 667Q232 667 220 658T171 614L115 650Q127 667 147 703Q173 748 193 770T248 792Q271 792 293
783T347 758Q375 744 390 738T421 731Q431 731 444 741T494 786L550 749ZM248 792H247H248Z" />
<glyph unicode="&#xf6;" glyph-name="odieresis" horiz-adv-x="667" d="M245 -9T178 23T74 118T37 267Q37 352 74 412T178 502T333 533Q468 533 549 464T630 267Q630 181 593 119T489 24T333 -9Q245 -9 178 23ZM365 134T380 165T396 267Q396 332 381 361T333 390Q301
390 286 361T271 267Q271 197 286 166T333 134Q365 134 380 165ZM134 597T103 629T72 710Q72 758 103 789T183 821Q232 821 262 790T293 709Q293 661 262 629T183 597Q134 597 103 629ZM435 596T404 628T373 710Q373 758 404 789T483 821Q532 821 562 790T593 709Q593
661 562 629T484 596Q435 596 404 628Z" />
<glyph unicode="&#xf7;" glyph-name="divide" horiz-adv-x="413" d="M167 432T136 459T104 532Q104 578 135 604T214 630Q264 630 297 604T330 532Q330 485 297 459T214 432Q167 432 136 459ZM18 263V372H396V263H18ZM167 -9T136 18T104 91Q104 137 135 163T214
189Q264 189 297 163T330 91Q330 44 297 18T214 -9Q167 -9 136 18Z" />
<glyph unicode="&#xf8;" glyph-name="oslash" horiz-adv-x="656" d="M622 394T622 267Q622 181 585 119Q548 56 481 23Q415 -9 329 -9Q262 -9 209 10L175 -51L132 -26L163 30Q107 61 72 119Q35 181 35 267H34Q34 393 113 463Q190 533 328 533Q388 533 439 519L475
582L517 558L485 502Q517 486 543 463Q622 394 622 267ZM260 237T265 210L358 375Q346 381 328 381Q307 381 292 372Q278 363 272 344Q266 327 263 309Q261 285 261 266H260Q260 237 265 210ZM394 144T394 266Q394 297 392 309Q390 323 388 329L291 156Q306 144
327 144Q394 144 394 266Z" />
<glyph unicode="&#xf9;" glyph-name="ugrave" horiz-adv-x="716" d="M446 560L175 713L265 842L497 629L446 560ZM94 -9T94 188V372H31V504L328 533V188Q328 169 342 153T375 137Q397 137 409 152T422 189V372H375V504L656 533V147H719V0H422V76Q396 36 353 14T251
-9Q94 -9 94 188Z" />
<glyph unicode="&#xfa;" glyph-name="uacute" horiz-adv-x="716" d="M247 560L196 629L428 842L518 713L247 560ZM94 -9T94 188V372H31V504L328 533V188Q328 169 342 153T375 137Q397 137 409 152T422 189V372H375V504L656 533V147H719V0H422V76Q396 36 353 14T251
-9Q94 -9 94 188Z" />
<glyph unicode="&#xfb;" glyph-name="ucircumflex" horiz-adv-x="716" d="M236 571L161 620L294 804H426L560 620L485 571L361 691L236 571ZM94 -9T94 188V372H31V504L328 533V188Q328 169 342 153T375 137Q397 137 409 152T422 189V372H375V504L656 533V147H719V0H422V76Q396
36 353 14T251 -9Q94 -9 94 188Z" />
<glyph unicode="&#xfc;" glyph-name="udieresis" horiz-adv-x="716" d="M157 822T126 854T95 935Q95 983 126 1014T206 1046Q255 1046 285 1015T316 934Q316 886 285 854T206 822Q157 822 126 854ZM458 821T427 853T396 935Q396 983 427 1014T506 1046Q555 1046
585 1015T616 934Q616 886 585 854T507 821Q458 821 427 853ZM94 -9T94 188V372H31V504L328 533V188Q328 169 342 153T375 137Q397 137 409 152T422 189V372H375V504L656 533V147H719V0H422V76Q396 36 353 14T251 -9Q94 -9 94 188Z" />
<glyph unicode="&#xfd;" glyph-name="yacute" horiz-adv-x="720" d="M250 560L199 629L431 842L521 713L250 560ZM195 -184V-30H294L321 15L93 372H31V523H397V372H349L430 222L504 372H451V523H724V372H671L458 -30H533V-184H195Z" />
<glyph unicode="&#xfe;" glyph-name="thorn" horiz-adv-x="713" d="M31 -47H72V556H36V706H312V466H316Q345 497 381 513Q414 528 458 528Q510 528 553 506Q595 483 623 447Q650 410 665 363Q679 315 679 264Q679 215 665 165Q652 120 625 80Q599 43 555 19Q513
-4 458 -4Q408 -4 367 14Q328 31 306 58V-47H360V-194H31V-47ZM390 149T409 160Q425 170 434 188Q443 204 446 224Q450 241 450 265Q450 359 371 359Q354 359 344 354Q332 349 325 344L313 330Q308 320 308 319Q307 318 307 317T306 314V203L307 197L306 196Q306
191 311 183Q317 173 322 168Q329 160 341 155Q353 149 369 149Q390 149 409 160Z" />
<glyph unicode="&#xff;" glyph-name="ydieresis" horiz-adv-x="720" d="M160 822T129 854T98 935Q98 983 129 1014T209 1046Q258 1046 288 1015T319 934Q319 886 288 854T209 822Q160 822 129 854ZM461 821T430 853T399 935Q399 983 430 1014T509 1046Q558 1046
588 1015T619 934Q619 886 588 854T510 821Q461 821 430 853ZM195 -184V-30H294L321 15L93 372H31V523H397V372H349L430 222L504 372H451V523H724V372H671L458 -30H533V-184H195Z" />
<glyph unicode="&#x2013;" glyph-name="endash" horiz-adv-x="382" d="M33 262V408H349V262H33Z" />
<glyph unicode="&#x2014;" glyph-name="emdash" horiz-adv-x="638" d="M33 262V408H604V262H33Z" />
<glyph unicode="&#x2018;" glyph-name="quoteleft" horiz-adv-x="318" d="M25 485T25 545Q25 681 88 744Q153 807 286 807V697L287 696Q264 696 249 693Q232 690 222 683Q213 676 206 668Q200 661 197 646Q194 631 194 620Q193 613 193 589H286V410H37Q25 485 25 545Z" />
<glyph unicode="&#x2019;" glyph-name="quoteright" horiz-adv-x="317" d="M31 504Q53 504 69 507Q85 510 95 517Q105 524 111 533Q117 541 120 555L124 581V613H32V792H281Q292 722 292 657Q292 521 229 458Q166 395 31 395V504Z" />
<glyph unicode="&#x201a;" glyph-name="quotesinglbase" horiz-adv-x="290" d="M17 -109Q39 -109 55 -106Q72 -103 81 -96Q90 -89 97 -81Q103 -72 106 -58Q109 -43 109 -32Q110 -25 110 0H18V178H267Q278 99 278 43Q278 -93 215 -156Q151 -219 17 -219V-109Z" />
<glyph unicode="&#x201c;" glyph-name="quotedblleft" horiz-adv-x="626" d="M333 485T333 545Q333 681 396 744Q461 807 594 807V697L595 696Q572 696 557 693Q540 690 530 683Q521 676 514 668Q508 661 505 646Q502 631 502 620Q501 613 501 589H594V410H345Q333
485 333 545ZM25 484T25 544Q25 680 89 743Q152 806 287 806V695Q265 695 249 692Q231 689 223 682Q211 673 207 667Q201 660 198 645L194 619V588H286V409H37Q25 484 25 544Z" />
<glyph unicode="&#x201d;" glyph-name="quotedblright" horiz-adv-x="635" d="M349 504Q371 504 387 507Q404 510 413 517Q423 524 429 533Q435 541 438 555Q441 570 441 581Q442 588 442 613H350V792H599Q610 712 610 657Q610 521 547 458Q483 395 349 395V504ZM31
503Q53 503 68 506Q85 509 95 516Q105 523 111 532Q117 540 120 554Q123 569 123 580Q124 587 124 612H31V791H280Q292 715 292 656Q292 520 229 457Q165 394 31 394V503Z" />
<glyph unicode="&#x201e;" glyph-name="quotedblbase" horiz-adv-x="603" d="M17 -110Q39 -110 55 -107Q72 -104 81 -97Q88 -92 97 -81Q103 -74 106 -59Q109 -44 109 -33Q110 -25 110 -1H18V178H267Q278 98 278 42Q278 -93 215 -156Q151 -219 17 -219V-110ZM328
-109H327Q349 -109 365 -106Q382 -103 392 -96Q404 -86 408 -81Q414 -72 417 -58L420 -32V0H328V178H577Q589 103 589 43Q589 -93 525 -156Q462 -219 328 -219V-109Z" />
<glyph unicode="&#x2022;" glyph-name="bullet" horiz-adv-x="439" d="M183 68T146 81Q113 93 86 117Q60 138 43 178Q28 216 28 262L26 267Q26 312 42 345Q59 382 85 402Q113 424 146 436Q179 448 216 448Q253 448 288 436Q324 424 351 402Q378 380 396 343Q413
304 413 262Q413 217 396 178Q380 141 352 116Q322 92 290 81Q257 68 218 68Q183 68 146 81Z" />
<glyph unicode="&#x2039;" glyph-name="guilsinglleft" horiz-adv-x="349" d="M235 -2L27 195V327L235 524L328 415L174 261L328 107L235 -2Z" />
<glyph unicode="&#x203a;" glyph-name="guilsinglright" horiz-adv-x="348" d="M115 -2L21 107L175 261L21 415L115 524L323 327V195L115 -2Z" />
</font>
</defs>
</svg>
