<?xml version="1.0" standalone="no"?>
<!DOCTYPE svg PUBLIC "-//W3C//DTD SVG 1.1//EN" "http://www.w3.org/Graphics/SVG/1.1/DTD/svg11.dtd">
<svg xmlns="http://www.w3.org/2000/svg">
<defs >
<font id="Prompt" horiz-adv-x="569" ><font-face
    font-family="Prompt Thin"
    units-per-em="1000"
    panose-1="0 0 2 0 0 0 0 0 0 0"
    ascent="1090"
    descent="-422"
    alphabetic="0" />
<glyph unicode=" " glyph-name="space" horiz-adv-x="400" />
<glyph unicode="!" glyph-name="exclam" horiz-adv-x="172" d="M170 699H198L87 176H59L170 699ZM23 -15T17 -9T11 6Q11 18 21 27T43 37Q52 37 58 31T65 16Q65 4 55 -5T32 -15Q23 -15 17 -9Z" />
<glyph unicode="&quot;" glyph-name="quotedbl" horiz-adv-x="306" d="M158 699H186L150 530H122L158 699ZM316 699H344L308 530H280L316 699Z" />
<glyph unicode="#" glyph-name="numbersign" horiz-adv-x="741" d="M160 206H53L58 230H172L290 469H149L154 493H302L404 699H432L330 493H605L707 699H735L633 493H735L730 469H621L503 230H639L634 206H491L390 0H362L463 206H188L87 0H59L160 206ZM475 230L593
469H318L200 230H475Z" />
<glyph unicode="$" glyph-name="dollar" horiz-adv-x="544" d="M215 -15Q149 -15 97 -7T13 17L18 42Q59 25 107 17T220 9L292 344Q211 377 171 413T130 506Q130 522 135 547Q151 621 214 666T370 714L389 802H417L398 714Q483 711 549 682L544 657Q473 687 393
690L323 358Q376 336 406 318T455 273T473 206Q473 182 468 161Q451 86 394 41T244 -13L225 -103H197L215 -15ZM365 690Q282 687 228 648T161 547Q156 524 156 508Q156 464 188 433T297 368L365 690ZM413 27T442 161Q446 181 446 201Q446 247 416 275T317 333L249
11Q413 27 442 161Z" />
<glyph unicode="%" glyph-name="percent" horiz-adv-x="868" d="M200 347T159 387T118 491Q118 511 122 530Q133 581 165 623T245 689T344 714Q410 714 451 673T493 569Q493 547 489 530Q478 479 445 438T365 372T266 347Q200 347 159 387ZM711 699H739L204 0H176L711
699ZM315 371T356 392T426 449T465 530Q469 547 469 569Q469 624 434 657T339 690Q295 690 254 669T184 611T146 530Q142 513 142 493Q142 438 176 405T271 371Q315 371 356 392ZM504 -15T463 25T422 129Q422 149 426 168Q437 219 469 261T549 327T648 352Q714
352 755 311T797 207Q797 185 793 168Q782 117 749 76T669 10T570 -15Q504 -15 463 25ZM619 9T660 30T730 87T769 168Q773 185 773 207Q773 262 738 295T643 328Q599 328 558 307T488 249T450 168Q446 151 446 131Q446 76 480 43T575 9Q619 9 660 30Z" />
<glyph unicode="&amp;" glyph-name="ampersand" horiz-adv-x="738" d="M147 -15T94 21T40 125Q40 144 44 161Q54 212 82 250T157 320T283 390Q238 441 218 473T197 542Q197 555 200 568Q214 634 267 674T386 714Q443 714 478 683T513 601Q513 583 509 568Q501
531 482 503T425 447T320 385L529 132Q566 173 585 220T620 338H647Q632 265 609 213T543 115L638 0H606L527 95Q463 33 389 9T231 -15Q147 -15 94 21ZM396 447T435 482T484 568Q487 585 487 599Q487 641 460 665T381 690Q324 690 281 656T226 568Q223 555 223
543Q223 510 241 481T306 402Q396 447 435 482ZM401 9T512 113L298 373Q219 335 174 305T104 241T70 161Q66 145 66 127Q66 66 114 38T236 9Q401 9 512 113Z" />
<glyph unicode="&apos;" glyph-name="quotesingle" horiz-adv-x="148" d="M158 699H186L150 530H122L158 699Z" />
<glyph unicode="(" glyph-name="parenleft" horiz-adv-x="278" d="M49 -54T49 109Q49 186 67 270Q124 532 310 714H339Q146 519 93 270Q76 187 76 115Q76 -41 151 -174H123Q49 -54 49 109Z" />
<glyph unicode=")" glyph-name="parenright" horiz-adv-x="278" d="M146 21T199 270Q216 353 216 425Q216 581 141 714H169Q204 656 222 583T241 427Q241 349 225 270Q170 10 -18 -174H-47Q146 21 199 270Z" />
<glyph unicode="*" glyph-name="asterisk" horiz-adv-x="422" d="M144 426L260 553L137 600L150 621L270 573L297 699H321L294 573L434 621L439 599L296 552L358 426L337 414L277 537L163 414L144 426Z" />
<glyph unicode="+" glyph-name="plus" horiz-adv-x="403" d="M198 281H69L74 305H203L231 435H255L227 305H357L352 281H222L195 152H171L198 281Z" />
<glyph unicode="," glyph-name="comma" horiz-adv-x="230" d="M98 44H129L4 -145H-21L98 44Z" />
<glyph unicode="-" glyph-name="hyphen" horiz-adv-x="403" d="M74 305H357L352 281H69L74 305Z" />
<glyph unicode="." glyph-name="period" horiz-adv-x="172" d="M27 0T21 6T14 21Q14 33 24 42T47 52Q56 52 62 46T68 31Q68 19 58 10T36 0Q27 0 21 6Z" />
<glyph unicode="/" glyph-name="slash" horiz-adv-x="433" d="M446 714H474L38 0H10L446 714Z" />
<glyph unicode="0" glyph-name="zero" horiz-adv-x="642" d="M171 -15T120 47T69 219Q69 279 84 349Q120 519 208 616T422 714Q518 714 569 652T621 478Q621 420 606 349Q570 181 481 83T267 -15Q171 -15 120 47ZM344 9T405 50T512 168T580 349Q595 421 595 479Q595
580 550 635T417 690Q344 690 283 649T177 530T110 349Q95 279 95 220Q95 119 140 64T272 9Q344 9 405 50Z" />
<glyph unicode="1" glyph-name="one" horiz-adv-x="327" d="M310 665L126 549L133 583L317 699H345L197 0H169L310 665Z" />
<glyph unicode="2" glyph-name="two" horiz-adv-x="571" d="M15 24L248 223Q264 236 265 237Q348 308 393 351T473 441T518 538Q523 563 523 581Q523 690 372 690Q323 690 279 677T182 629L189 659Q235 688 278 701T377 714Q460 714 504 679T548 579Q548 557 544
538Q534 486 499 436T413 337T269 210L52 24H466L461 0H10L15 24Z" />
<glyph unicode="3" glyph-name="three" horiz-adv-x="559" d="M150 -15T101 -6T13 19L19 46Q57 27 106 18T208 9Q315 9 379 54T461 179Q466 204 466 222Q466 285 416 315T265 345H198L203 369H270Q361 369 428 412T513 532Q518 559 518 576Q518 690 368 690Q317
690 270 678T167 635L173 661Q221 688 269 701T373 714Q457 714 500 679T544 578Q544 559 539 532Q525 466 476 420T345 358Q414 352 453 317T492 222Q492 204 487 179Q468 89 398 37T202 -15Q150 -15 101 -6Z" />
<glyph unicode="4" glyph-name="four" horiz-adv-x="578" d="M390 192H30L35 215L486 699H526L423 215H533L528 192H418L378 0H350L390 192ZM395 215L492 669L68 215H395Z" />
<glyph unicode="5" glyph-name="five" horiz-adv-x="550" d="M86 -15T14 22L20 49Q52 29 95 19T184 9Q293 9 365 63T459 216Q465 243 465 267Q465 331 421 365T286 399Q247 399 207 392T131 372L111 386L202 699H535L530 675H221L140 399Q217 423 294 423Q388
423 439 382T491 267Q491 243 485 216Q462 106 384 46T177 -15Q86 -15 14 22Z" />
<glyph unicode="6" glyph-name="six" horiz-adv-x="581" d="M159 -15T108 34T56 179Q56 217 65 263Q113 488 211 601T468 714Q508 714 536 709L531 684Q507 690 465 690Q322 690 236 592T97 295Q136 360 200 398T337 436Q422 436 471 390T521 266Q521 240 515
210Q501 144 462 93T366 14T241 -15Q159 -15 108 34ZM337 9T404 64T491 210Q497 240 497 266Q497 335 455 373T332 412Q277 412 226 386T137 314T88 210Q83 185 83 165Q83 98 125 54T246 9Q337 9 404 64Z" />
<glyph unicode="7" glyph-name="seven" horiz-adv-x="548" d="M565 675H143L148 699H596L590 670L150 0H122L565 675Z" />
<glyph unicode="8" glyph-name="eight" horiz-adv-x="570" d="M143 -15T93 23T43 133Q43 161 48 182Q65 258 118 307T244 368Q198 382 172 415T145 497Q145 518 149 535Q166 616 231 665T386 714Q463 714 507 678T552 577Q552 560 547 535Q534 471 489 426T382
368Q436 359 469 321T503 225Q503 207 498 182Q477 86 408 36T231 -15Q143 -15 93 23ZM396 379T452 421T524 535Q529 558 529 575Q529 630 491 660T381 691Q301 691 245 649T172 535Q168 518 168 497Q168 441 206 410T315 379Q396 379 452 421ZM332 8T394 52T475
182Q480 209 480 227Q480 289 436 322T310 356Q218 356 154 310T71 182Q66 161 66 134Q66 72 109 40T236 8Q332 8 394 52Z" />
<glyph unicode="9" glyph-name="nine" horiz-adv-x="581" d="M122 -15T92 -10L98 15Q122 9 163 9Q306 9 392 107T531 404Q492 339 428 301T291 263Q206 263 157 309T107 433Q107 459 113 489Q135 592 210 653T387 714Q469 714 521 665T573 522Q573 480 563 436Q515
211 418 98T160 -15Q122 -15 92 -10ZM352 287T403 313T491 385T540 489Q545 509 545 537Q545 604 504 647T382 690Q291 690 224 635T137 489Q131 461 131 434Q131 364 174 326T297 287Q352 287 403 313Z" />
<glyph unicode=":" glyph-name="colon" horiz-adv-x="172" d="M114 414T108 420T102 435Q102 447 112 456T135 466Q144 466 150 460T156 445Q156 433 146 424T123 414Q114 414 108 420ZM33 30T27 36T20 51Q20 63 30 72T53 82Q62 82 68 76T74 61Q74 49 64 40T42
30Q33 30 27 36Z" />
<glyph unicode=";" glyph-name="semicolon" horiz-adv-x="238" d="M180 414T174 420T168 435Q168 447 178 456T201 466Q210 466 216 460T222 445Q222 433 212 424T189 414Q180 414 174 420ZM98 44H129L4 -145H-21L98 44Z" />
<glyph unicode="&lt;" glyph-name="less" horiz-adv-x="550" d="M76 311L80 333L555 544L549 514L113 320L467 126L461 100L76 311Z" />
<glyph unicode="=" glyph-name="equal" horiz-adv-x="556" d="M110 475H546L541 451H105L110 475ZM66 265H502L497 241H61L66 265Z" />
<glyph unicode="&gt;" glyph-name="greater" horiz-adv-x="550" d="M37 130L473 324L119 518L125 544L510 333L506 311L31 100L37 130Z" />
<glyph unicode="?" glyph-name="question" horiz-adv-x="506" d="M175 161Q188 220 203 254T247 314T329 368Q386 398 416 422T460 471T483 535Q488 558 488 575Q488 629 449 659T331 690Q282 690 239 682T149 657L154 682Q199 699 242 706T336 714Q421 714 467
677T514 576Q514 558 509 535Q496 471 461 432T345 351Q292 323 266 300T228 246T203 161L198 141H170L175 161ZM141 -15T135 -9T129 6Q129 18 139 27T161 37Q170 37 176 31T183 16Q183 4 173 -5T150 -15Q141 -15 135 -9Z" />
<glyph unicode="@" glyph-name="at" horiz-adv-x="909" d="M231 -76T145 -9T59 187Q59 232 69 279Q96 407 167 505T346 659T584 714Q729 714 809 650T889 466Q889 423 879 377Q856 269 800 192T667 115Q628 115 604 139T580 205Q548 161 502 138T400 115Q347 115
316 145T284 233Q284 257 290 287Q303 351 339 403T428 485T544 515Q610 515 672 491L606 246Q601 229 601 209Q601 176 619 158T668 139Q731 139 781 206T853 377Q863 421 863 465Q863 574 792 632T579 690Q456 690 356 639T188 494T95 279Q85 233 85 189Q85 73
161 11T388 -52Q496 -52 599 -18L594 -40Q492 -76 383 -76Q231 -76 145 -9ZM478 139T526 178T588 268L645 474Q623 484 599 487T539 491Q488 491 442 465T362 393T316 287Q309 258 309 230Q309 184 333 162T411 139Q478 139 526 178Z" />
<glyph unicode="A" glyph-name="A" horiz-adv-x="700" d="M437 699H459L590 0H564L523 215H171L40 0H10L437 699ZM518 239L441 657L186 239H518Z" />
<glyph unicode="B" glyph-name="B" horiz-adv-x="625" d="M178 699H466Q535 699 571 669T607 578Q607 558 600 521Q588 462 550 419T463 358Q507 349 533 315T560 231Q560 210 554 184Q535 97 476 49T336 0H30L178 699ZM411 370Q445 370 479 388T538 440T574 521Q581
550 581 576Q581 630 551 652T465 675H201L136 370H411ZM334 24Q398 24 454 63T528 184Q534 211 534 234Q534 346 395 346H131L63 24H334Z" />
<glyph unicode="C" glyph-name="C" horiz-adv-x="728" d="M280 -15T214 19T111 117T74 262Q74 306 84 349Q108 457 172 539T327 668T522 714Q667 714 743 632L736 603Q665 690 517 690Q423 690 338 648T192 529T110 349Q100 306 100 263Q100 185 134 128T229 40T372
9Q449 9 514 31T639 103L633 72Q527 -15 367 -15Q280 -15 214 19Z" />
<glyph unicode="D" glyph-name="D" horiz-adv-x="696" d="M178 699H377Q518 699 595 632T672 446Q672 405 661 353Q622 175 509 88T208 0H30L178 699ZM201 24Q565 24 635 353Q646 405 646 445Q646 556 576 615T367 675H201L63 24H201Z" />
<glyph unicode="E" glyph-name="E" horiz-adv-x="557" d="M178 699H605L600 675H201L134 362H437L432 338H129L63 24H462L457 0H30L178 699Z" />
<glyph unicode="F" glyph-name="F" horiz-adv-x="547" d="M178 699H605L600 675H201L134 362H437L432 338H129L58 0H30L178 699Z" />
<glyph unicode="G" glyph-name="G" horiz-adv-x="728" d="M280 -15T214 19T111 115T74 261Q74 305 84 349Q107 456 171 539T328 668T522 714Q669 714 742 635L736 605Q699 650 646 670T517 690Q423 690 338 648T192 529T110 349Q100 305 100 261Q100 143 173 76T372
9Q440 9 496 25T606 77L662 339H485L490 363H695L633 72Q534 -15 367 -15Q280 -15 214 19Z" />
<glyph unicode="H" glyph-name="H" horiz-adv-x="672" d="M178 699H206L136 369H592L662 699H690L542 0H514L587 345H131L58 0H30L178 699Z" />
<glyph unicode="I" glyph-name="I" horiz-adv-x="188" d="M178 699H206L58 0H30L178 699Z" />
<glyph unicode="J" glyph-name="J" horiz-adv-x="348" d="M52 -15T28 -12T-11 -4L-6 20Q8 15 31 12T73 8Q133 8 171 38T222 128L343 699H371L250 128Q234 56 188 21T75 -15Q52 -15 28 -12Z" />
<glyph unicode="K" glyph-name="K" horiz-adv-x="589" d="M178 699H206L133 356L566 699H605L166 350L475 0H440L132 350L58 0H30L178 699Z" />
<glyph unicode="L" glyph-name="L" horiz-adv-x="547" d="M178 699H206L63 24H462L457 0H30L178 699Z" />
<glyph unicode="M" glyph-name="M" horiz-adv-x="819" d="M178 699H210L369 46L805 699H837L689 0H663L799 642L371 0H352L196 642L60 0H30L178 699Z" />
<glyph unicode="N" glyph-name="N" horiz-adv-x="663" d="M178 699H203L516 52L653 699H681L533 0H511L197 649L60 0H30L178 699Z" />
<glyph unicode="O" glyph-name="O" horiz-adv-x="842" d="M280 -15T214 19T111 115T74 261Q74 305 84 349Q107 457 170 540T325 668T522 714Q609 714 676 680T779 583T816 436Q816 401 806 349Q783 241 720 159T565 31T367 -15Q280 -15 214 19ZM464 9T549 50T696
169T780 349Q790 401 790 436Q790 514 757 571T662 659T517 690Q423 690 338 648T192 529T110 349Q100 305 100 262Q100 184 133 127T228 40T372 9Q464 9 549 50Z" />
<glyph unicode="P" glyph-name="P" horiz-adv-x="570" d="M178 699H417Q505 699 550 669T595 571Q595 546 589 516Q568 419 508 376T339 333H128L58 0H30L178 699ZM347 357Q431 357 487 391T563 516Q569 546 569 570Q569 629 530 652T415 675H201L133 357H347Z" />
<glyph unicode="Q" glyph-name="Q" horiz-adv-x="847" d="M284 0T216 32T112 124T75 265Q75 304 84 349Q107 457 170 540T326 668T522 714Q609 714 676 680T779 583T816 436Q816 401 806 349Q779 225 698 139T504 24H742L737 0H376Q284 0 216 32ZM466 24T550 62T696
174T780 349Q789 394 789 435Q789 513 756 570T661 659T517 690Q423 690 338 648T192 529T110 349Q101 304 101 266Q101 151 176 88T376 24Q466 24 550 62Z" />
<glyph unicode="R" glyph-name="R" horiz-adv-x="591" d="M178 699H426Q596 699 596 569Q596 547 590 518Q573 440 515 391T358 340L481 0H452L329 340H130L58 0H30L178 699ZM358 364Q439 364 493 403T564 518Q570 547 570 569Q570 626 533 650T425 675H201L135 364H358Z" />
<glyph unicode="S" glyph-name="S" horiz-adv-x="544" d="M143 -15T94 -6T13 17L18 42Q97 9 202 9Q409 9 442 161Q447 182 447 206Q447 239 431 261T381 301T281 348Q205 379 168 416T131 507Q131 528 135 547Q151 624 216 669T381 714Q432 714 472 707T549 682L544
657Q469 690 376 690Q289 690 232 650T161 547Q156 524 156 507Q156 462 190 430T305 365Q367 340 399 322T452 277T473 207Q473 182 468 161Q450 75 383 30T197 -15Q143 -15 94 -6Z" />
<glyph unicode="T" glyph-name="T" horiz-adv-x="584" d="M371 675H133L138 699H642L637 675H399L256 0H228L371 675Z" />
<glyph unicode="U" glyph-name="U" horiz-adv-x="670" d="M174 -15T120 30T65 159Q65 189 73 229L173 699H201L99 219Q92 188 92 158Q92 82 143 46T286 9Q389 9 465 63T563 219L665 699H693L593 229Q568 113 491 49T281 -15Q174 -15 120 30Z" />
<glyph unicode="V" glyph-name="V" horiz-adv-x="700" d="M158 699H185L307 42L709 699H738L311 0H289L158 699Z" />
<glyph unicode="W" glyph-name="W" horiz-adv-x="1013" d="M158 699H186L249 47L590 699H619L682 47L1023 699H1051L684 0H662L597 665L251 0H229L158 699Z" />
<glyph unicode="X" glyph-name="X" horiz-adv-x="692" d="M358 361L178 699H207L377 382L681 699H712L387 361L582 0H553L370 341L41 0H10L358 361Z" />
<glyph unicode="Y" glyph-name="Y" horiz-adv-x="658" d="M321 265L158 699H184L338 289L666 699H696L349 265L293 0H265L321 265Z" />
<glyph unicode="Z" glyph-name="Z" horiz-adv-x="615" d="M15 26L605 675H165L170 699H642L637 673L47 24H510L505 0H10L15 26Z" />
<glyph unicode="[" glyph-name="bracketleft" horiz-adv-x="263" d="M177 787H330L325 763H200L22 -72H147L142 -96H-11L177 787Z" />
<glyph unicode="\" glyph-name="backslash" horiz-adv-x="433" d="M161 714H189L323 0H295L161 714Z" />
<glyph unicode="]" glyph-name="bracketright" horiz-adv-x="263" d="M-16 -72H109L287 763H162L167 787H320L132 -96H-21L-16 -72Z" />
<glyph unicode="^" glyph-name="asciicircum" horiz-adv-x="502" d="M343 719H363L477 401H449L347 687L123 401H95L343 719Z" />
<glyph unicode="_" glyph-name="underscore" horiz-adv-x="486" d="M10 0H376L370 -24H4L10 0Z" />
<glyph unicode="`" glyph-name="grave" horiz-adv-x="219" d="M167 739H195L230 572H208L167 739Z" />
<glyph unicode="a" glyph-name="a" horiz-adv-x="623" d="M165 -15T109 37T53 178Q53 208 59 239Q75 317 120 375T230 464T364 495Q437 495 492 461T566 365L591 480H618L516 0H489L513 113Q467 50 401 18T255 -15Q165 -15 109 37ZM344 9T415 51T524 168L554 310Q545
388 495 429T359 471Q298 471 241 443T142 361T85 239Q78 202 78 180Q78 101 127 55T260 9Q344 9 415 51Z" />
<glyph unicode="b" glyph-name="b" horiz-adv-x="648" d="M207 -15T155 19T82 113L58 0H30L187 739H215L135 365Q177 428 248 461T393 495Q483 495 539 442T595 301Q595 270 588 239Q572 163 526 105T417 16T284 -15Q207 -15 155 19ZM350 9T407 37T506 118T562
239Q569 270 569 300Q569 380 521 425T388 471Q305 471 233 428T123 310L93 168Q100 92 152 51T289 9Q350 9 407 37Z" />
<glyph unicode="c" glyph-name="c" horiz-adv-x="546" d="M166 -15T110 36T53 177Q53 208 60 239Q77 318 122 376T231 464T369 495Q422 495 459 485T524 451L519 426Q489 451 453 461T364 471Q300 471 242 443T143 362T86 239Q79 202 79 180Q79 100 128 55T261
9Q318 9 361 20T448 58L443 33Q403 8 358 -3T256 -15Q166 -15 110 36Z" />
<glyph unicode="d" glyph-name="d" horiz-adv-x="648" d="M165 -15T110 37T54 179Q54 208 60 239Q76 317 121 375T231 464T365 495Q439 495 495 462T567 365L647 739H675L518 0H490L514 113Q471 50 405 18T256 -15Q165 -15 110 37ZM345 9T416 51T525 168L555 310Q551
386 499 428T360 471Q299 471 242 443T143 361T86 239Q80 208 80 181Q80 101 129 55T261 9Q345 9 416 51Z" />
<glyph unicode="e" glyph-name="e" horiz-adv-x="607" d="M166 -15T110 32T53 168Q53 205 61 240Q85 358 163 426T358 495Q457 495 507 448T558 318Q558 286 551 255L545 230H83Q76 199 76 168Q76 89 128 49T278 8Q324 8 370 16T454 38L448 14Q418 2 368 -6T273
-15Q166 -15 110 32ZM525 253Q533 290 533 320Q533 391 490 431T353 472Q282 472 227 442T136 361T88 253H525Z" />
<glyph unicode="f" glyph-name="f" horiz-adv-x="323" d="M165 456H86L92 480H171L198 609Q212 678 252 711T352 744Q384 744 409 738L404 713Q383 720 356 720Q300 720 269 694T226 611L199 480H326L320 456H193L97 0H69L165 456Z" />
<glyph unicode="g" glyph-name="g" horiz-adv-x="648" d="M174 -230T130 -221T62 -197L67 -172Q130 -206 228 -206Q448 -206 491 5L513 112Q469 50 400 18T256 -15Q165 -15 110 38T54 180Q54 203 61 241Q77 318 122 375T232 464T365 495Q443 495 495 462T568 367L592
480H620L520 11Q494 -110 422 -170T223 -230Q174 -230 130 -221ZM341 9T415 52T526 170L556 312Q549 388 497 429T360 471Q299 471 242 443T144 362T87 241Q81 210 81 182Q81 102 130 56T261 9Q341 9 415 52Z" />
<glyph unicode="h" glyph-name="h" horiz-adv-x="573" d="M187 739H215L141 391Q191 446 250 470T370 495Q447 495 484 462T521 370Q521 346 515 319L448 0H420L487 318Q493 347 493 371Q493 420 463 445T365 471Q236 471 133 353L58 0H30L187 739Z" />
<glyph unicode="i" glyph-name="i" horiz-adv-x="212" d="M175 604T169 610T162 625Q162 637 172 646T195 656Q204 656 210 650T216 635Q216 623 206 614T184 604Q175 604 169 610ZM144 480H172L70 0H42L144 480Z" />
<glyph unicode="j" glyph-name="j" horiz-adv-x="209" d="M172 604T166 610T159 625Q159 637 169 646T192 656Q201 656 207 650T213 635Q213 623 203 614T181 604Q172 604 166 610ZM-132 -231T-157 -225L-152 -200Q-131 -207 -103 -207Q-49 -207 -22 -182T18 -98L141
480H169L46 -96Q31 -168 -5 -199T-100 -231Q-132 -231 -157 -225Z" />
<glyph unicode="k" glyph-name="k" horiz-adv-x="484" d="M187 739H215L109 243L414 480H454L144 240L374 0H334L108 237L58 0H30L187 739Z" />
<glyph unicode="l" glyph-name="l" horiz-adv-x="188" d="M187 739H215L58 0H30L187 739Z" />
<glyph unicode="m" glyph-name="m" horiz-adv-x="849" d="M132 480H160L141 394Q193 450 241 472T344 495Q463 495 471 402Q552 495 673 495Q739 495 769 469T800 388Q800 362 792 324L724 0H696L764 323Q773 364 773 391Q773 434 749 452T668 471Q616 471 568
449T471 372Q469 346 463 319L396 0H368L435 318Q444 359 444 387Q444 431 420 451T339 471Q282 471 235 445T133 356L58 0H30L132 480Z" />
<glyph unicode="n" glyph-name="n" horiz-adv-x="573" d="M132 480H160L141 391Q191 446 250 470T370 495Q447 495 484 462T521 370Q521 346 515 319L448 0H420L487 318Q493 345 493 368Q493 471 365 471Q236 471 133 353L58 0H30L132 480Z" />
<glyph unicode="o" glyph-name="o" horiz-adv-x="622" d="M165 -15T110 37T54 178Q54 209 61 240Q77 317 121 375T230 464T366 495Q458 495 514 443T570 303Q570 271 563 240Q546 163 502 106T395 17T257 -15Q165 -15 110 37ZM327 9T384 37T481 118T537 240Q544
277 544 300Q544 380 496 425T361 471Q296 471 239 443T141 362T87 240Q80 209 80 177Q80 98 128 54T262 9Q327 9 384 37Z" />
<glyph unicode="p" glyph-name="p" horiz-adv-x="648" d="M132 480H160L136 367Q181 429 247 462T393 495Q483 495 539 444T596 303Q596 272 589 241Q573 165 528 107T419 17T284 -15Q211 -15 155 19T82 115L11 -219H-17L132 480ZM350 9T407 37T506 119T563 241Q570
272 570 303Q570 383 521 427T388 471Q304 471 233 429T124 312L94 170Q98 95 152 52T289 9Q350 9 407 37Z" />
<glyph unicode="q" glyph-name="q" horiz-adv-x="648" d="M514 115Q471 51 403 18T256 -15Q198 -15 152 9T81 77T55 181Q55 210 61 241Q77 319 122 376T230 464T365 495Q442 495 494 461T568 367L592 480H620L471 -219H443L514 115ZM344 9T416 52T526 170L556
312Q549 388 497 429T360 471Q299 471 242 443T143 362T87 241Q81 211 81 184Q81 104 131 57T261 9Q344 9 416 52Z" />
<glyph unicode="r" glyph-name="r" horiz-adv-x="378" d="M132 480H160L136 370Q181 429 244 454T390 480L384 456Q201 456 124 315L58 0H30L132 480Z" />
<glyph unicode="s" glyph-name="s" horiz-adv-x="460" d="M133 -15T88 -1T16 32L22 57Q54 34 94 22T179 9Q325 9 346 107Q350 127 350 136Q350 169 322 190T221 233Q149 254 117 277T85 343Q85 356 88 371Q100 432 155 463T288 495Q333 495 364 488T421 467L415
442Q367 471 283 471Q214 471 170 446T114 371Q111 356 111 344Q111 321 124 306T164 278T243 252Q313 232 344 205T375 137Q375 68 324 27T173 -15Q133 -15 88 -1Z" />
<glyph unicode="t" glyph-name="t" horiz-adv-x="343" d="M142 -15T116 7T89 76Q89 93 94 120L165 456H86L92 480H171L201 624H229L199 480H326L320 456H193L122 118Q117 91 117 76Q117 41 137 25T204 9Q232 9 256 16L251 -9Q223 -15 190 -15Q142 -15 116 7Z" />
<glyph unicode="u" glyph-name="u" horiz-adv-x="573" d="M135 -15T95 22T55 121Q55 141 60 166L127 480H155L88 168Q82 143 82 120Q82 68 115 39T219 9Q282 9 335 37T441 127L517 480H545L443 0H415L433 89Q342 -15 214 -15Q135 -15 95 22Z" />
<glyph unicode="v" glyph-name="v" horiz-adv-x="524" d="M112 480H139L219 42L487 480H516L223 0H201L112 480Z" />
<glyph unicode="w" glyph-name="w" horiz-adv-x="766" d="M112 480H139L181 31L416 480H452L495 31L731 480H758L506 0H475L430 461L191 0H160L112 480Z" />
<glyph unicode="x" glyph-name="x" horiz-adv-x="561" d="M270 253L135 480H164L287 272L501 480H532L299 253L451 0H423L281 234L40 0H10L270 253Z" />
<glyph unicode="y" glyph-name="y" horiz-adv-x="531" d="M119 -230T75 -221T7 -197L12 -172Q75 -206 173 -206Q279 -206 336 -155T416 5L435 99Q344 -5 216 -5Q137 -5 97 32T57 131Q57 151 62 176L127 480H155L90 178Q84 153 84 130Q84 78 117 49T221 19Q284
19 337 47T443 137L517 480H545L445 11Q418 -113 355 -171T168 -230Q119 -230 75 -221Z" />
<glyph unicode="z" glyph-name="z" horiz-adv-x="466" d="M15 25L413 456H114L120 480H450L444 455L46 24H361L356 0H10L15 25Z" />
<glyph unicode="{" glyph-name="braceleft" horiz-adv-x="287" d="M73 -96T73 -48Q73 -35 76 -20L132 241Q136 260 136 277Q136 307 120 320T71 334H60L66 358H77Q118 358 142 381T176 451L232 711Q240 751 258 769T311 787H354L349 763H312Q288 763 277 752T259
710L205 453Q195 407 175 381T120 345V343Q163 332 163 276Q163 256 159 239L104 -19Q101 -34 101 -44Q101 -59 108 -65T134 -72H171L166 -96H123Q73 -96 73 -48Z" />
<glyph unicode="|" glyph-name="bar" horiz-adv-x="148" d="M182 812H210L7 -144H-21L182 812Z" />
<glyph unicode="}" glyph-name="braceright" horiz-adv-x="287" d="M-16 -72H21Q45 -72 56 -61T73 -19L128 239Q149 332 213 347V349Q190 357 180 372T169 413Q169 428 174 453L228 710Q232 732 232 737Q232 751 224 757T199 763H162L167 787H210Q260 787 260
739Q260 726 257 711L201 451Q197 434 197 417Q197 358 262 358H273L267 334H256Q215 334 191 311T157 241L101 -20Q93 -60 74 -78T22 -96H-21L-16 -72Z" />
<glyph unicode="~" glyph-name="asciitilde" horiz-adv-x="577" d="M83 345Q100 371 134 386T205 402Q239 402 265 394T323 368Q353 353 376 345T428 337Q463 337 492 351T552 402L545 370Q527 344 494 329T423 313Q391 313 367 321T312 346Q278 362 255 370T200
378Q165 378 136 364T76 313L83 345Z" />
<glyph unicode="&#xa0;" glyph-name="uni00A0" horiz-adv-x="400" />
<glyph unicode="&#xa1;" glyph-name="exclamdown" horiz-adv-x="172" d="M132 498T126 504T120 519Q120 531 130 540T152 550Q161 550 167 544T174 529Q174 517 164 508T141 498Q132 498 126 504ZM98 359H126L15 -164H-13L98 359Z" />
<glyph unicode="&#xa2;" glyph-name="cent" horiz-adv-x="546" d="M238 -14Q155 -9 104 42T53 177Q53 208 60 239Q76 311 118 367T220 457T346 494L364 581H392L374 495Q475 493 524 451L519 426Q466 469 369 471L270 9Q324 10 364 21T448 58L443 33Q405 9 362
-2T265 -15L247 -101H219L238 -14ZM340 470Q282 466 229 437T138 356T86 239Q80 209 80 181Q80 106 124 61T242 9L340 470Z" />
<glyph unicode="&#xa3;" glyph-name="sterling" horiz-adv-x="489" d="M15 24H104L178 376H99L105 400H184L217 559Q234 634 286 674T405 714Q438 714 463 708L458 683Q437 690 409 690Q345 690 302 657T246 561L212 400H424L418 376H206L132 24H384L379 0H10L15 24Z" />
<glyph unicode="&#xa4;" glyph-name="currency" d="M29 93L128 158Q109 187 109 230Q109 252 113 269Q127 333 175 380L104 445L123 465L195 398Q258 448 329 448Q364 448 393 435T441 398L542 465L553 445L454 380Q474 348 474 305Q474 285 470 269Q457 209 407
157L478 93L459 73L387 139Q358 116 324 103T254 90Q219 90 190 103T140 139L40 73L29 93ZM300 114T339 135T407 191T444 269Q448 285 448 304Q448 356 415 390T324 424Q282 424 243 403T176 347T139 269Q135 253 135 233Q135 181 168 148T258 114Q300 114 339
135Z" />
<glyph unicode="&#xa5;" glyph-name="yen" horiz-adv-x="658" d="M293 136H145L151 160H299L320 261H172L177 285H313L158 699H184L338 289L666 698H696L365 285H501L496 261H348L327 160H475L469 136H321L293 0H265L293 136Z" />
<glyph unicode="&#xa6;" glyph-name="brokenbar" horiz-adv-x="148" d="M182 812H210L133 449H105L182 812ZM56 220H84L7 -144H-21L56 220Z" />
<glyph unicode="&#xa7;" glyph-name="section" horiz-adv-x="544" d="M110 -170T61 -161T-20 -138L-15 -113Q64 -146 169 -146Q376 -146 409 6Q414 31 414 47Q414 82 396 106T344 149T249 193Q170 225 134 261T97 350Q97 367 102 392Q111 433 135 466Q129 483
129 502Q129 523 135 547Q151 623 218 668T381 714Q432 714 472 707T549 682L544 657Q469 690 376 690Q289 690 232 650T161 547Q156 524 156 507Q156 462 190 430T305 365Q367 340 399 322T452 277T473 207Q473 182 468 161Q460 123 436 85Q440 70 440 49Q440
26 435 6Q417 -79 348 -124T164 -170Q110 -170 61 -161ZM436 137T442 161Q447 186 447 202Q447 237 429 261T377 304T281 348Q228 369 195 391T146 440Q132 413 128 392Q124 373 124 353Q124 307 157 275T272 210Q338 183 373 163T426 113Q436 137 442 161Z" />
<glyph unicode="&#xa8;" glyph-name="dieresis" horiz-adv-x="378" d="M157 610T150 619T146 640Q148 652 159 661T182 670Q194 670 201 661T206 640Q203 628 192 619T169 610Q157 610 150 619ZM355 610T348 619T344 640Q346 652 357 661T380 670Q392 670 399
661T404 640Q401 628 390 619T367 610Q355 610 348 619Z" />
<glyph unicode="&#xa9;" glyph-name="copyright" horiz-adv-x="842" d="M280 -15T214 19T111 115T74 261Q74 305 84 349Q108 460 172 542T328 669T522 714Q609 714 676 680T779 583T816 437Q816 393 806 349Q782 239 718 156T562 29T367 -15Q280 -15 214 19ZM464
9T549 50T696 169T780 349Q790 393 790 437Q790 555 717 622T517 690Q423 690 338 648T192 529T110 349Q100 305 100 261Q100 143 173 76T372 9Q464 9 549 50ZM329 94T283 117T211 185T184 289Q184 317 190 348Q206 424 251 482T360 572T499 604Q552 604 590 594T655
560L649 535Q619 560 583 570T494 580Q430 580 372 552T273 471T216 348Q209 311 209 288Q209 208 258 163T392 118Q449 118 491 129T578 167L573 142Q533 117 488 106T386 94Q329 94 283 117Z" />
<glyph unicode="&#xaa;" glyph-name="ordfeminine" horiz-adv-x="419" d="M163 349T134 370T104 432Q104 444 107 457Q118 512 158 540T259 568Q341 568 394 535L405 587Q409 603 409 621Q409 657 384 673T306 690Q250 690 194 669L199 694Q222 703 252 708T311
714Q374 714 405 690T437 621Q437 602 433 586L385 360H359L369 408Q308 349 214 349Q163 349 134 370ZM272 373T310 391T374 442L389 511Q360 528 329 536T255 544Q150 544 133 457Q130 445 130 435Q130 373 222 373Q272 373 310 391Z" />
<glyph unicode="&#xab;" glyph-name="guillemotleft" horiz-adv-x="514" d="M76 311L80 333L334 504L343 484L100 320L273 156L256 140L76 311ZM240 311L244 333L498 504L507 484L264 320L437 156L420 140L240 311Z" />
<glyph unicode="&#xac;" glyph-name="logicalnot" horiz-adv-x="423" d="M348 281H69L74 305H377L343 142H319L348 281Z" />
<glyph unicode="&#xad;" glyph-name="uni00AD" horiz-adv-x="403" d="M74 305H357L352 281H69L74 305Z" />
<glyph unicode="&#xae;" glyph-name="registered" horiz-adv-x="842" d="M280 -15T214 19T111 115T74 261Q74 305 84 349Q108 460 172 542T328 669T522 714Q609 714 676 680T779 583T816 437Q816 393 806 349Q782 239 718 156T562 29T367 -15Q280 -15 214 19ZM464
9T549 50T696 169T780 349Q790 393 790 437Q790 555 717 622T517 690Q423 690 338 648T192 529T110 349Q100 305 100 261Q100 143 173 76T372 9Q464 9 549 50ZM343 616H532Q598 616 630 594T662 524Q662 504 656 478Q643 418 600 381T479 343L569 88H544L454 343H310L256
88H231L343 616ZM481 364Q542 364 581 392T633 478Q638 503 638 517Q638 560 611 577T531 594H364L315 364H481Z" />
<glyph unicode="&#xaf;" glyph-name="overscore" horiz-adv-x="398" d="M150 659H428L422 635H144L150 659Z" />
<glyph unicode="&#xb0;" glyph-name="degree" horiz-adv-x="408" d="M196 439T163 472T130 554Q130 599 156 639T223 703T308 727Q359 727 391 695T424 613Q424 598 421 583Q413 544 387 511T323 459T247 439Q196 439 163 472ZM289 461T323 482T379 537T401 608Q401
650 374 677T303 705Q266 705 231 684T175 629T153 558Q153 517 180 489T251 461Q289 461 323 482Z" />
<glyph unicode="&#xb1;" glyph-name="plusminus" horiz-adv-x="383" d="M184 261H65L70 285H189L215 405H239L213 285H333L328 261H208L183 142H159L184 261ZM15 24H278L273 0H10L15 24Z" />
<glyph unicode="&#xb2;" glyph-name="uni00B2" horiz-adv-x="341" d="M93 394L209 482L226 495Q283 538 305 561T334 618Q336 625 336 637Q336 685 267 685Q211 685 169 659L174 685Q194 697 221 703T272 709Q314 709 337 691T361 639Q361 625 359 618Q353 589
337 566T299 526T230 471L128 394H314L309 370H88L93 394Z" />
<glyph unicode="&#xb3;" glyph-name="uni00B3" horiz-adv-x="340" d="M127 360T89 376L95 403Q129 384 190 384Q244 384 274 407T304 475Q304 502 284 513T217 525H181L186 549H222Q272 549 300 573T329 641Q329 664 312 674T258 685Q205 685 158 658L164 683Q208
709 263 709Q307 709 330 692T354 643Q354 633 351 621Q338 554 263 537Q328 533 328 476Q328 424 289 392T185 360Q127 360 89 376Z" />
<glyph unicode="&#xb4;" glyph-name="acute" horiz-adv-x="219" d="M238 739H266L153 572H131L238 739Z" />
<glyph unicode="&#xb6;" glyph-name="paragraph" horiz-adv-x="690" d="M393 278H295Q209 278 160 321T111 447Q111 475 119 517Q145 637 223 699T413 762H741L551 -134H523L708 738H518L333 -134H305L393 278Z" />
<glyph unicode="&#xb7;" glyph-name="middot" horiz-adv-x="172" d="M83 268T77 274T71 289Q71 301 81 310T104 320Q113 320 119 314T125 299Q125 287 115 278T92 268Q83 268 77 274Z" />
<glyph unicode="&#xb8;" glyph-name="cedilla" horiz-adv-x="278" d="M-2 -248T-17 -246T-42 -240L-36 -216Q-28 -220 -13 -222T17 -224Q94 -224 107 -161Q109 -154 109 -142Q109 -117 88 -105T16 -93L72 0H100L55 -74Q96 -76 115 -93T135 -141Q135 -155 133 -162Q124
-201 93 -224T12 -248Q-2 -248 -17 -246Z" />
<glyph unicode="&#xb9;" glyph-name="uni00B9" horiz-adv-x="225" d="M249 667L136 595L143 627L256 699H283L213 370H186L249 667Z" />
<glyph unicode="&#xba;" glyph-name="ordmasculine" horiz-adv-x="479" d="M197 349T157 386T117 487Q117 506 122 531Q140 614 199 664T341 714Q407 714 446 677T486 576Q486 558 481 531Q464 449 405 399T264 349Q197 349 157 386ZM337 373T389 416T456 531Q461
551 461 577Q461 630 429 660T336 690Q268 690 216 647T148 531Q143 506 143 488Q143 433 175 403T269 373Q337 373 389 416Z" />
<glyph unicode="&#xbb;" glyph-name="guillemotright" horiz-adv-x="514" d="M43 160L286 324L113 488L130 504L310 333L306 311L52 140L43 160ZM207 160L450 324L277 488L294 504L474 333L470 311L216 140L207 160Z" />
<glyph unicode="&#xbc;" glyph-name="onequarter" horiz-adv-x="664" d="M609 699H637L102 0H74L609 699ZM249 667L136 595L143 627L256 699H283L213 370H186L249 667ZM495 87H324L329 110L540 329H573L527 110H577L572 87H522L504 0H477L495 87ZM500 110L540
298L357 110H500Z" />
<glyph unicode="&#xbd;" glyph-name="onehalf" horiz-adv-x="706" d="M609 699H637L102 0H74L609 699ZM249 667L136 595L143 627L256 699H283L213 370H186L249 667ZM375 24L490 112Q558 163 583 189T616 251Q618 265 618 270Q618 294 602 307T550 320Q493 320
451 294L457 320Q476 332 504 338T555 344Q596 344 619 325T643 272Q643 258 641 251Q632 210 604 181T511 101L410 24H601L596 0H370L375 24Z" />
<glyph unicode="&#xbe;" glyph-name="threequarters" horiz-adv-x="708" d="M127 360T89 376L95 403Q129 384 190 384Q242 384 273 407T304 475Q304 502 284 513T217 525H181L186 549H222Q271 549 299 573T328 641Q328 664 312 674T258 685Q205 685 158 658L164
683Q208 709 263 709Q307 709 330 692T354 643Q354 633 351 621Q338 555 263 538Q296 536 312 519T328 474Q328 422 289 391T185 360Q127 360 89 376ZM653 699H681L146 0H118L653 699ZM539 87H368L373 110L584 329H617L571 110H621L616 87H566L548 0H521L539 87ZM544
110L584 298L401 110H544Z" />
<glyph unicode="&#xbf;" glyph-name="questiondown" horiz-adv-x="506" d="M348 498T342 504T336 519Q336 531 346 540T368 550Q377 550 383 544T390 529Q390 517 380 508T357 498Q348 498 342 504ZM99 -179T53 -141T6 -39Q6 -19 10 0Q23 64 58 103T174 184Q226
212 252 235T292 289T316 374L320 394H348L344 374Q331 315 316 281T272 221T190 167Q133 137 103 113T58 64T36 0Q32 -17 32 -38Q32 -92 71 -123T188 -155Q237 -155 280 -147T370 -122L364 -147Q280 -179 182 -179Q99 -179 53 -141Z" />
<glyph unicode="&#xc0;" glyph-name="Agrave" horiz-adv-x="700" d="M394 935H422L457 768H435L394 935ZM437 699H459L590 0H564L523 215H171L40 0H10L437 699ZM518 239L441 657L186 239H518Z" />
<glyph unicode="&#xc1;" glyph-name="Aacute" horiz-adv-x="700" d="M565 935H593L480 768H458L565 935ZM437 699H459L590 0H564L523 215H171L40 0H10L437 699ZM518 239L441 657L186 239H518Z" />
<glyph unicode="&#xc2;" glyph-name="Acircumflex" horiz-adv-x="700" d="M485 925H507L603 774H574L493 903L358 774H326L485 925ZM437 699H459L590 0H564L523 215H171L40 0H10L437 699ZM518 239L441 657L186 239H518Z" />
<glyph unicode="&#xc3;" glyph-name="Atilde" horiz-adv-x="700" d="M297 819Q334 864 397 864Q420 864 437 858T480 839Q503 827 520 821T560 814Q588 814 612 826T661 868L654 835Q619 790 555 790Q530 790 511 796T468 816Q444 828 429 834T392 840Q365 840
341 828T290 786L297 819ZM437 699H459L590 0H564L523 215H171L40 0H10L437 699ZM518 239L441 657L186 239H518Z" />
<glyph unicode="&#xc4;" glyph-name="Adieresis" horiz-adv-x="700" d="M355 778T348 786T344 806Q346 817 356 825T377 834Q388 834 395 826T400 806Q397 795 387 787T366 778Q355 778 348 786ZM553 778T546 786T542 806Q544 817 554 825T575 834Q586 834 593
826T598 806Q595 795 585 787T564 778Q553 778 546 786ZM437 699H459L590 0H564L523 215H171L40 0H10L437 699ZM518 239L441 657L186 239H518Z" />
<glyph unicode="&#xc5;" glyph-name="Aring" horiz-adv-x="700" d="M425 680Q400 685 385 704T370 750Q370 778 386 803T428 844T482 860Q514 860 535 840T556 788Q556 750 528 719T462 680L590 0H562L521 215H169L38 0H10L425 680ZM454 699Q486 701 510 727T534
784Q534 808 519 823T478 839Q445 839 419 813T392 754Q392 732 406 717T442 699H454ZM516 239L439 657L184 239H516Z" />
<glyph unicode="&#xc6;" glyph-name="AE" horiz-adv-x="917" d="M539 699H955L950 675H601L534 362H787L782 338H529L463 24H812L807 0H430L475 215H200L38 0H10L539 699ZM480 239L573 675H549L218 239H480Z" />
<glyph unicode="&#xc7;" glyph-name="Ccedilla" horiz-adv-x="728" d="M295 -248T280 -246T255 -240L261 -216Q269 -220 284 -222T314 -224Q390 -224 403 -161Q405 -154 405 -142Q405 -117 384 -105T313 -93L359 -14Q274 -13 210 22T110 118T74 261Q74 305 84
349Q108 457 172 539T327 668T522 714Q667 714 743 632L736 603Q665 690 517 690Q423 690 338 648T192 529T110 349Q100 306 100 263Q100 185 134 128T229 40T372 9Q449 9 514 31T639 103L633 72Q533 -10 387 -15L352 -74Q392 -76 411 -93T431 -141Q431 -155 429
-162Q420 -201 390 -224T309 -248Q295 -248 280 -246Z" />
<glyph unicode="&#xc8;" glyph-name="Egrave" horiz-adv-x="567" d="M356 959H384L419 792H397L356 959ZM178 699H605L600 675H201L134 362H437L432 338H129L63 24H462L457 0H30L178 699Z" />
<glyph unicode="&#xc9;" glyph-name="Eacute" horiz-adv-x="557" d="M466 959H494L381 792H359L466 959ZM178 699H605L600 675H201L134 362H437L432 338H129L63 24H462L457 0H30L178 699Z" />
<glyph unicode="&#xca;" glyph-name="Ecircumflex" horiz-adv-x="567" d="M426 925H448L544 774H515L434 903L299 774H267L426 925ZM178 699H605L600 675H201L134 362H437L432 338H129L63 24H462L457 0H30L178 699Z" />
<glyph unicode="&#xcb;" glyph-name="Edieresis" horiz-adv-x="567" d="M284 802T277 810T273 830Q275 841 285 849T306 858Q317 858 324 850T329 830Q326 819 316 811T295 802Q284 802 277 810ZM482 802T475 810T471 830Q473 841 483 849T504 858Q515 858 522
850T527 830Q524 819 514 811T493 802Q482 802 475 810ZM178 699H605L600 675H201L134 362H437L432 338H129L63 24H462L457 0H30L178 699Z" />
<glyph unicode="&#xcc;" glyph-name="Igrave" horiz-adv-x="188" d="M163 959H191L226 792H204L163 959ZM178 699H206L58 0H30L178 699Z" />
<glyph unicode="&#xcd;" glyph-name="Iacute" horiz-adv-x="188" d="M304 935H332L219 768H197L304 935ZM178 699H206L58 0H30L178 699Z" />
<glyph unicode="&#xce;" glyph-name="Icircumflex" horiz-adv-x="188" d="M229 925H251L347 774H318L237 903L102 774H70L229 925ZM178 699H206L58 0H30L178 699Z" />
<glyph unicode="&#xcf;" glyph-name="Idieresis" horiz-adv-x="188" d="M104 802T97 810T93 830Q95 841 105 849T126 858Q137 858 144 850T149 830Q146 819 136 811T115 802Q104 802 97 810ZM302 802T295 810T291 830Q293 841 303 849T324 858Q335 858 342 850T347
830Q344 819 334 811T313 802Q302 802 295 810ZM178 699H206L58 0H30L178 699Z" />
<glyph unicode="&#xd0;" glyph-name="Eth" horiz-adv-x="715" d="M140 337H61L66 361H145L217 699H416Q557 699 633 632T710 445Q710 399 700 353Q662 177 548 89T246 0H69L140 337ZM240 24Q604 24 674 353Q685 405 685 445Q685 556 615 615T406 675H240L173 361H399L394
337H168L102 24H240Z" />
<glyph unicode="&#xd1;" glyph-name="Ntilde" horiz-adv-x="663" d="M288 843Q325 888 388 888Q411 888 428 882T471 863Q494 851 511 845T551 838Q579 838 603 850T652 892L645 859Q610 814 546 814Q521 814 502 820T459 840Q435 852 420 858T383 864Q356 864
332 852T281 810L288 843ZM178 699H203L516 52L653 699H681L533 0H511L197 649L60 0H30L178 699Z" />
<glyph unicode="&#xd2;" glyph-name="Ograve" horiz-adv-x="842" d="M508 959H536L571 792H549L508 959ZM280 -15T214 19T111 115T74 261Q74 305 84 349Q107 457 170 540T325 668T522 714Q609 714 676 680T779 583T816 436Q816 401 806 349Q783 241 720 159T565
31T367 -15Q280 -15 214 19ZM464 9T549 50T696 169T780 349Q790 401 790 436Q790 514 757 571T662 659T517 690Q423 690 338 648T192 529T110 349Q100 305 100 262Q100 184 133 127T228 40T372 9Q464 9 549 50Z" />
<glyph unicode="&#xd3;" glyph-name="Oacute" horiz-adv-x="842" d="M617 959H645L532 792H510L617 959ZM280 -15T214 19T111 115T74 261Q74 305 84 349Q107 457 170 540T325 668T522 714Q609 714 676 680T779 583T816 436Q816 401 806 349Q783 241 720 159T565
31T367 -15Q280 -15 214 19ZM464 9T549 50T696 169T780 349Q790 401 790 436Q790 514 757 571T662 659T517 690Q423 690 338 648T192 529T110 349Q100 305 100 262Q100 184 133 127T228 40T372 9Q464 9 549 50Z" />
<glyph unicode="&#xd4;" glyph-name="Ocircumflex" horiz-adv-x="842" d="M556 949H578L674 798H645L564 927L429 798H397L556 949ZM280 -15T214 19T111 115T74 261Q74 305 84 349Q107 457 170 540T325 668T522 714Q609 714 676 680T779 583T816 436Q816 401 806
349Q783 241 720 159T565 31T367 -15Q280 -15 214 19ZM464 9T549 50T696 169T780 349Q790 401 790 436Q790 514 757 571T662 659T517 690Q423 690 338 648T192 529T110 349Q100 305 100 262Q100 184 133 127T228 40T372 9Q464 9 549 50Z" />
<glyph unicode="&#xd5;" glyph-name="Otilde" horiz-adv-x="842" d="M373 843Q410 888 473 888Q496 888 513 882T556 863Q579 851 596 845T636 838Q664 838 688 850T737 892L730 859Q695 814 631 814Q606 814 587 820T544 840Q520 852 505 858T468 864Q441 864
417 852T366 810L373 843ZM280 -15T214 19T111 115T74 261Q74 305 84 349Q107 457 170 540T325 668T522 714Q609 714 676 680T779 583T816 436Q816 401 806 349Q783 241 720 159T565 31T367 -15Q280 -15 214 19ZM464 9T549 50T696 169T780 349Q790 401 790 436Q790
514 757 571T662 659T517 690Q423 690 338 648T192 529T110 349Q100 305 100 262Q100 184 133 127T228 40T372 9Q464 9 549 50Z" />
<glyph unicode="&#xd6;" glyph-name="Odieresis" horiz-adv-x="842" d="M431 802T424 810T420 830Q422 841 432 849T453 858Q464 858 471 850T476 830Q473 819 463 811T442 802Q431 802 424 810ZM629 802T622 810T618 830Q620 841 630 849T651 858Q662 858 669
850T674 830Q671 819 661 811T640 802Q629 802 622 810ZM280 -15T214 19T111 115T74 261Q74 305 84 349Q107 457 170 540T325 668T522 714Q609 714 676 680T779 583T816 436Q816 401 806 349Q783 241 720 159T565 31T367 -15Q280 -15 214 19ZM464 9T549 50T696
169T780 349Q790 401 790 436Q790 514 757 571T662 659T517 690Q423 690 338 648T192 529T110 349Q100 305 100 262Q100 184 133 127T228 40T372 9Q464 9 549 50Z" />
<glyph unicode="&#xd7;" glyph-name="multiply" horiz-adv-x="338" d="M53 202L164 293L91 385L112 402L184 310L296 402L309 385L198 293L269 202L249 185L177 276L67 185L53 202Z" />
<glyph unicode="&#xd8;" glyph-name="Oslash" horiz-adv-x="842" d="M230 11Q156 42 115 107T74 261Q74 305 84 349Q107 460 171 543T327 670T522 714Q589 714 649 692L705 784H733L671 683Q739 650 777 586T815 436Q815 396 806 349Q783 241 720 159T566 31T367
-15Q306 -15 252 2L198 -86H170L230 11ZM635 669Q583 690 517 690Q423 690 338 648T192 529T110 349Q101 306 101 266Q101 183 139 123T244 34L635 669ZM464 9T549 50T696 169T780 349Q789 394 789 434Q789 514 755 572T657 660L266 25Q313 9 372 9Q464 9 549 50Z"
/>
<glyph unicode="&#xd9;" glyph-name="Ugrave" horiz-adv-x="670" d="M413 959H441L476 792H454L413 959ZM174 -15T120 30T65 159Q65 189 73 229L173 699H201L99 219Q92 188 92 158Q92 82 143 46T286 9Q389 9 465 63T563 219L665 699H693L593 229Q568 113 491 49T281
-15Q174 -15 120 30Z" />
<glyph unicode="&#xda;" glyph-name="Uacute" horiz-adv-x="670" d="M542 959H570L457 792H435L542 959ZM174 -15T120 30T65 159Q65 189 73 229L173 699H201L99 219Q92 188 92 158Q92 82 143 46T286 9Q389 9 465 63T563 219L665 699H693L593 229Q568 113 491 49T281
-15Q174 -15 120 30Z" />
<glyph unicode="&#xdb;" glyph-name="Ucircumflex" horiz-adv-x="670" d="M475 949H497L593 798H564L483 927L348 798H316L475 949ZM174 -15T120 30T65 159Q65 189 73 229L173 699H201L99 219Q92 188 92 158Q92 82 143 46T286 9Q389 9 465 63T563 219L665 699H693L593
229Q568 113 491 49T281 -15Q174 -15 120 30Z" />
<glyph unicode="&#xdc;" glyph-name="Udieresis" horiz-adv-x="670" d="M345 802T338 810T334 830Q336 841 346 849T367 858Q378 858 385 850T390 830Q387 819 377 811T356 802Q345 802 338 810ZM543 802T536 810T532 830Q534 841 544 849T565 858Q576 858 583
850T588 830Q585 819 575 811T554 802Q543 802 536 810ZM174 -15T120 30T65 159Q65 189 73 229L173 699H201L99 219Q92 188 92 158Q92 82 143 46T286 9Q389 9 465 63T563 219L665 699H693L593 229Q568 113 491 49T281 -15Q174 -15 120 30Z" />
<glyph unicode="&#xdd;" glyph-name="Yacute" horiz-adv-x="658" d="M535 959H563L450 792H428L535 959ZM321 265L158 699H184L338 289L666 699H696L349 265L293 0H265L321 265Z" />
<glyph unicode="&#xde;" glyph-name="Thorn" horiz-adv-x="590" d="M178 699H206L171 533H382Q560 533 560 404Q560 380 554 350Q533 253 473 210T304 167H93L58 0H30L178 699ZM312 191Q398 191 453 225T528 350Q534 379 534 400Q534 461 494 485T380 509H166L98
191H312Z" />
<glyph unicode="&#xdf;" glyph-name="germandbls" horiz-adv-x="590" d="M179 -15T133 6L138 30Q167 18 197 13T272 8Q355 8 416 62T497 204Q502 229 502 246Q502 315 452 349T328 383H292L297 407H339Q393 407 438 451T498 566Q502 583 502 602Q502 656 466 688T369
721Q299 721 243 675T164 525L53 0H25L135 522Q160 638 224 691T374 744Q449 744 488 706T528 606Q528 585 524 566Q511 503 475 459T387 397Q447 389 487 352T528 250Q528 232 523 204Q503 110 436 48T267 -15Q179 -15 133 6Z" />
<glyph unicode="&#xe0;" glyph-name="agrave" horiz-adv-x="623" d="M441 729H469L504 562H482L441 729ZM165 -15T109 37T53 178Q53 208 59 239Q75 317 120 375T230 464T364 495Q437 495 492 461T566 365L591 480H618L516 0H489L513 113Q467 50 401 18T255 -15Q165
-15 109 37ZM344 9T415 51T524 168L554 310Q545 388 495 429T359 471Q298 471 241 443T142 361T85 239Q78 202 78 180Q78 101 127 55T260 9Q344 9 415 51Z" />
<glyph unicode="&#xe1;" glyph-name="aacute" horiz-adv-x="623" d="M557 729H585L472 562H450L557 729ZM165 -15T109 37T53 178Q53 208 59 239Q75 317 120 375T230 464T364 495Q437 495 492 461T566 365L591 480H618L516 0H489L513 113Q467 50 401 18T255 -15Q165
-15 109 37ZM344 9T415 51T524 168L554 310Q545 388 495 429T359 471Q298 471 241 443T142 361T85 239Q78 202 78 180Q78 101 127 55T260 9Q344 9 415 51Z" />
<glyph unicode="&#xe2;" glyph-name="acircumflex" horiz-adv-x="623" d="M485 713H507L603 562H574L493 691L358 562H326L485 713ZM165 -15T109 37T53 178Q53 208 59 239Q75 317 120 375T230 464T364 495Q437 495 492 461T566 365L591 480H618L516 0H489L513
113Q467 50 401 18T255 -15Q165 -15 109 37ZM344 9T415 51T524 168L554 310Q545 388 495 429T359 471Q298 471 241 443T142 361T85 239Q78 202 78 180Q78 101 127 55T260 9Q344 9 415 51Z" />
<glyph unicode="&#xe3;" glyph-name="atilde" horiz-adv-x="623" d="M263 595Q300 640 363 640Q386 640 403 634T446 615Q469 603 486 597T526 590Q554 590 578 602T627 644L620 611Q585 566 521 566Q496 566 477 572T434 592Q410 604 395 610T358 616Q331 616
307 604T256 562L263 595ZM165 -15T109 37T53 178Q53 208 59 239Q75 317 120 375T230 464T364 495Q437 495 492 461T566 365L591 480H618L516 0H489L513 113Q467 50 401 18T255 -15Q165 -15 109 37ZM344 9T415 51T524 168L554 310Q545 388 495 429T359 471Q298
471 241 443T142 361T85 239Q78 202 78 180Q78 101 127 55T260 9Q344 9 415 51Z" />
<glyph unicode="&#xe4;" glyph-name="adieresis" horiz-adv-x="623" d="M326 572T319 580T315 600Q317 611 327 619T348 628Q359 628 366 620T371 600Q368 589 358 581T337 572Q326 572 319 580ZM524 572T517 580T513 600Q515 611 525 619T546 628Q557 628 564
620T569 600Q566 589 556 581T535 572Q524 572 517 580ZM165 -15T109 37T53 178Q53 208 59 239Q75 317 120 375T230 464T364 495Q437 495 492 461T566 365L591 480H618L516 0H489L513 113Q467 50 401 18T255 -15Q165 -15 109 37ZM344 9T415 51T524 168L554 310Q545
388 495 429T359 471Q298 471 241 443T142 361T85 239Q78 202 78 180Q78 101 127 55T260 9Q344 9 415 51Z" />
<glyph unicode="&#xe5;" glyph-name="aring" horiz-adv-x="623" d="M399 542T379 562T358 614Q358 642 374 667T416 708T470 724Q503 724 523 703T544 651Q544 623 528 598T485 557T431 542Q399 542 379 562ZM465 563T489 583T520 633Q522 643 522 647Q522 671
506 687T465 703Q432 703 406 677T380 618Q380 595 396 579T436 563Q465 563 489 583ZM165 -15T109 37T53 178Q53 208 59 239Q75 317 120 375T230 464T364 495Q437 495 492 461T566 365L591 480H618L516 0H489L513 113Q467 50 401 18T255 -15Q165 -15 109 37ZM344
9T415 51T524 168L554 310Q545 388 495 429T359 471Q298 471 241 443T142 361T85 239Q78 202 78 180Q78 101 127 55T260 9Q344 9 415 51Z" />
<glyph unicode="&#xe6;" glyph-name="ae" horiz-adv-x="1001" d="M119 -15T77 14T34 99Q34 118 38 134Q70 285 260 285Q370 285 451 236L468 317Q474 344 474 366Q474 419 438 445T326 471Q247 471 169 442L175 467Q207 479 249 487T331 495Q419 495 460 459T500
359Q537 423 603 459T752 495Q851 495 901 448T952 318Q952 286 945 255L939 230H477Q470 201 470 171Q470 90 524 49T672 8Q718 8 764 16T848 38L842 14Q812 2 762 -6T667 -15Q574 -15 518 23T451 132Q413 59 352 22T192 -15Q119 -15 77 14ZM919 253Q927 290 927
319Q927 391 884 431T747 472Q640 472 572 411T482 253H919ZM298 9T359 51T437 173L446 212Q403 238 360 249T255 261Q167 261 123 230T64 134Q60 118 60 101Q60 9 205 9Q298 9 359 51Z" />
<glyph unicode="&#xe7;" glyph-name="ccedilla" horiz-adv-x="546" d="M180 -248T165 -246T140 -240L146 -216Q154 -220 169 -222T199 -224Q275 -224 288 -161Q290 -154 290 -142Q290 -117 269 -105T198 -93L244 -15Q158 -11 106 40T53 177Q53 208 60 239Q77 318
122 376T231 464T369 495Q422 495 459 485T524 451L519 426Q489 451 453 461T364 471Q300 471 242 443T143 362T86 239Q79 202 79 180Q79 100 128 55T261 9Q318 9 361 20T448 58L443 33Q372 -12 272 -15L237 -74Q277 -76 296 -93T316 -141Q316 -155 314 -162Q305
-201 275 -224T194 -248Q180 -248 165 -246Z" />
<glyph unicode="&#xe8;" glyph-name="egrave" horiz-adv-x="607" d="M340 729H368L403 562H381L340 729ZM166 -15T110 32T53 168Q53 205 61 240Q85 358 163 426T358 495Q457 495 507 448T558 318Q558 286 551 255L545 230H83Q76 199 76 168Q76 89 128 49T278 8Q324
8 370 16T454 38L448 14Q418 2 368 -6T273 -15Q166 -15 110 32ZM525 253Q533 290 533 320Q533 391 490 431T353 472Q282 472 227 442T136 361T88 253H525Z" />
<glyph unicode="&#xe9;" glyph-name="eacute" horiz-adv-x="607" d="M450 729H478L365 562H343L450 729ZM166 -15T110 32T53 168Q53 205 61 240Q85 358 163 426T358 495Q457 495 507 448T558 318Q558 286 551 255L545 230H83Q76 199 76 168Q76 89 128 49T278 8Q324
8 370 16T454 38L448 14Q418 2 368 -6T273 -15Q166 -15 110 32ZM525 253Q533 290 533 320Q533 391 490 431T353 472Q282 472 227 442T136 361T88 253H525Z" />
<glyph unicode="&#xea;" glyph-name="ecircumflex" horiz-adv-x="607" d="M396 713H418L514 562H485L404 691L269 562H237L396 713ZM166 -15T110 32T53 168Q53 205 61 240Q85 358 163 426T358 495Q457 495 507 448T558 318Q558 286 551 255L545 230H83Q76 199
76 168Q76 89 128 49T278 8Q324 8 370 16T454 38L448 14Q418 2 368 -6T273 -15Q166 -15 110 32ZM525 253Q533 290 533 320Q533 391 490 431T353 472Q282 472 227 442T136 361T88 253H525Z" />
<glyph unicode="&#xeb;" glyph-name="edieresis" horiz-adv-x="607" d="M268 572T261 580T257 600Q259 611 269 619T290 628Q301 628 308 620T313 600Q310 589 300 581T279 572Q268 572 261 580ZM466 572T459 580T455 600Q457 611 467 619T488 628Q499 628 506
620T511 600Q508 589 498 581T477 572Q466 572 459 580ZM166 -15T110 32T53 168Q53 205 61 240Q85 358 163 426T358 495Q457 495 507 448T558 318Q558 286 551 255L545 230H83Q76 199 76 168Q76 89 128 49T278 8Q324 8 370 16T454 38L448 14Q418 2 368 -6T273 -15Q166
-15 110 32ZM525 253Q533 290 533 320Q533 391 490 431T353 472Q282 472 227 442T136 361T88 253H525Z" />
<glyph unicode="&#xec;" glyph-name="igrave" horiz-adv-x="188" d="M115 729H143L178 562H156L115 729ZM132 480H160L58 0H30L132 480Z" />
<glyph unicode="&#xed;" glyph-name="iacute" horiz-adv-x="188" d="M261 729H289L176 562H154L261 729ZM132 480H160L58 0H30L132 480Z" />
<glyph unicode="&#xee;" glyph-name="icircumflex" horiz-adv-x="188" d="M184 713H206L302 562H273L192 691L57 562H25L184 713ZM132 480H160L58 0H30L132 480Z" />
<glyph unicode="&#xef;" glyph-name="idieresis" horiz-adv-x="188" d="M55 572T48 580T44 600Q46 611 56 619T77 628Q88 628 95 620T100 600Q97 589 87 581T66 572Q55 572 48 580ZM253 572T246 580T242 600Q244 611 254 619T275 628Q286 628 293 620T298 600Q295
589 285 581T264 572Q253 572 246 580ZM132 480H160L58 0H30L132 480Z" />
<glyph unicode="&#xf0;" glyph-name="eth" horiz-adv-x="600" d="M147 -15T97 31T47 154Q47 177 54 210Q77 314 152 375T328 436Q397 436 446 398T508 295Q533 432 533 504Q533 574 511 618L308 536L314 560L501 636Q469 690 358 690Q316 690 290 684L295 709Q327
714 365 714Q425 714 465 698T529 647L636 691L631 667L537 628Q559 583 559 509Q559 423 526 263Q507 170 462 108T357 15T232 -15Q147 -15 97 31ZM296 9T348 37T435 111T481 210Q486 231 486 258Q486 327 442 369T323 412Q232 412 165 357T78 210Q72 182 72 156Q72
88 115 49T237 9Q296 9 348 37Z" />
<glyph unicode="&#xf1;" glyph-name="ntilde" horiz-adv-x="573" d="M192 595Q229 640 292 640Q315 640 332 634T375 615Q398 603 415 597T455 590Q483 590 507 602T556 644L549 611Q514 566 450 566Q425 566 406 572T363 592Q339 604 324 610T287 616Q260 616
236 604T185 562L192 595ZM132 480H160L141 391Q191 446 250 470T370 495Q447 495 484 462T521 370Q521 346 515 319L448 0H420L487 318Q493 345 493 368Q493 471 365 471Q236 471 133 353L58 0H30L132 480Z" />
<glyph unicode="&#xf2;" glyph-name="ograve" horiz-adv-x="622" d="M329 729H357L392 562H370L329 729ZM165 -15T110 37T54 178Q54 209 61 240Q77 317 121 375T230 464T366 495Q458 495 514 443T570 303Q570 271 563 240Q546 163 502 106T395 17T257 -15Q165
-15 110 37ZM327 9T384 37T481 118T537 240Q544 277 544 300Q544 380 496 425T361 471Q296 471 239 443T141 362T87 240Q80 209 80 177Q80 98 128 54T262 9Q327 9 384 37Z" />
<glyph unicode="&#xf3;" glyph-name="oacute" horiz-adv-x="622" d="M448 729H476L363 562H341L448 729ZM165 -15T110 37T54 178Q54 209 61 240Q77 317 121 375T230 464T366 495Q458 495 514 443T570 303Q570 271 563 240Q546 163 502 106T395 17T257 -15Q165
-15 110 37ZM327 9T384 37T481 118T537 240Q544 277 544 300Q544 380 496 425T361 471Q296 471 239 443T141 362T87 240Q80 209 80 177Q80 98 128 54T262 9Q327 9 384 37Z" />
<glyph unicode="&#xf4;" glyph-name="ocircumflex" horiz-adv-x="622" d="M401 713H423L519 562H490L409 691L274 562H242L401 713ZM165 -15T110 37T54 178Q54 209 61 240Q77 317 121 375T230 464T366 495Q458 495 514 443T570 303Q570 271 563 240Q546 163 502
106T395 17T257 -15Q165 -15 110 37ZM327 9T384 37T481 118T537 240Q544 277 544 300Q544 380 496 425T361 471Q296 471 239 443T141 362T87 240Q80 209 80 177Q80 98 128 54T262 9Q327 9 384 37Z" />
<glyph unicode="&#xf5;" glyph-name="otilde" horiz-adv-x="622" d="M210 595Q247 640 310 640Q333 640 350 634T393 615Q416 603 433 597T473 590Q501 590 525 602T574 644L567 611Q532 566 468 566Q443 566 424 572T381 592Q357 604 342 610T305 616Q278 616
254 604T203 562L210 595ZM165 -15T110 37T54 178Q54 209 61 240Q77 317 121 375T230 464T366 495Q458 495 514 443T570 303Q570 271 563 240Q546 163 502 106T395 17T257 -15Q165 -15 110 37ZM327 9T384 37T481 118T537 240Q544 277 544 300Q544 380 496 425T361
471Q296 471 239 443T141 362T87 240Q80 209 80 177Q80 98 128 54T262 9Q327 9 384 37Z" />
<glyph unicode="&#xf6;" glyph-name="odieresis" horiz-adv-x="622" d="M272 572T265 580T261 600Q263 611 273 619T294 628Q305 628 312 620T317 600Q314 589 304 581T283 572Q272 572 265 580ZM470 572T463 580T459 600Q461 611 471 619T492 628Q503 628 510
620T515 600Q512 589 502 581T481 572Q470 572 463 580ZM165 -15T110 37T54 178Q54 209 61 240Q77 317 121 375T230 464T366 495Q458 495 514 443T570 303Q570 271 563 240Q546 163 502 106T395 17T257 -15Q165 -15 110 37ZM327 9T384 37T481 118T537 240Q544 277
544 300Q544 380 496 425T361 471Q296 471 239 443T141 362T87 240Q80 209 80 177Q80 98 128 54T262 9Q327 9 384 37Z" />
<glyph unicode="&#xf7;" glyph-name="divide" horiz-adv-x="402" d="M223 388T217 395T212 414Q214 424 223 432T244 440Q254 440 260 433T264 414Q263 404 254 396T233 388Q223 388 217 395ZM74 305H356L351 281H69L74 305ZM173 146T167 152T160 167Q160 179
170 188T193 198Q202 198 208 192T214 177Q214 165 204 156T182 146Q173 146 167 152Z" />
<glyph unicode="&#xf8;" glyph-name="oslash" horiz-adv-x="622" d="M157 5Q108 28 81 72T54 176Q54 208 61 240Q77 315 121 373T229 463T366 495Q410 495 449 481L501 566H529L471 472Q518 448 544 404T570 301Q570 277 563 240Q547 164 503 107T395 17T257 -15Q215
-15 180 -3L129 -86H101L157 5ZM435 459Q402 471 361 471Q296 471 239 443T141 362T87 240Q79 203 79 176Q79 123 102 85T170 27L435 459ZM327 9T384 37T481 118T537 240Q544 277 544 300Q544 353 522 391T457 450L194 19Q223 9 262 9Q327 9 384 37Z" />
<glyph unicode="&#xf9;" glyph-name="ugrave" horiz-adv-x="573" d="M327 729H355L390 562H368L327 729ZM135 -15T95 22T55 121Q55 141 60 166L127 480H155L88 168Q82 143 82 120Q82 68 115 39T219 9Q282 9 335 37T441 127L517 480H545L443 0H415L433 89Q342 -15
214 -15Q135 -15 95 22Z" />
<glyph unicode="&#xfa;" glyph-name="uacute" horiz-adv-x="573" d="M447 729H475L362 562H340L447 729ZM135 -15T95 22T55 121Q55 141 60 166L127 480H155L88 168Q82 143 82 120Q82 68 115 39T219 9Q282 9 335 37T441 127L517 480H545L443 0H415L433 89Q342 -15
214 -15Q135 -15 95 22Z" />
<glyph unicode="&#xfb;" glyph-name="ucircumflex" horiz-adv-x="573" d="M368 713H390L486 562H457L376 691L241 562H209L368 713ZM135 -15T95 22T55 121Q55 141 60 166L127 480H155L88 168Q82 143 82 120Q82 68 115 39T219 9Q282 9 335 37T441 127L517 480H545L443
0H415L433 89Q342 -15 214 -15Q135 -15 95 22Z" />
<glyph unicode="&#xfc;" glyph-name="udieresis" horiz-adv-x="573" d="M245 572T238 580T234 600Q236 611 246 619T267 628Q278 628 285 620T290 600Q287 589 277 581T256 572Q245 572 238 580ZM443 572T436 580T432 600Q434 611 444 619T465 628Q476 628 483
620T488 600Q485 589 475 581T454 572Q443 572 436 580ZM135 -15T95 22T55 121Q55 141 60 166L127 480H155L88 168Q82 143 82 120Q82 68 115 39T219 9Q282 9 335 37T441 127L517 480H545L443 0H415L433 89Q342 -15 214 -15Q135 -15 95 22Z" />
<glyph unicode="&#xfd;" glyph-name="yacute" horiz-adv-x="531" d="M426 729H454L341 562H319L426 729ZM119 -230T75 -221T7 -197L12 -172Q75 -206 173 -206Q279 -206 336 -155T416 5L435 99Q344 -5 216 -5Q137 -5 97 32T57 131Q57 151 62 176L127 480H155L90
178Q84 153 84 130Q84 78 117 49T221 19Q284 19 337 47T443 137L517 480H545L445 11Q418 -113 355 -171T168 -230Q119 -230 75 -221Z" />
<glyph unicode="&#xfe;" glyph-name="thorn" horiz-adv-x="648" d="M178 699H206L136 367Q181 429 248 462T393 495Q483 495 539 444T596 303Q596 272 589 241Q573 165 528 107T420 17T284 -15Q212 -15 157 19T82 115L11 -219H-17L178 699ZM350 9T407 37T506 119T563
241Q569 273 569 299Q569 379 520 425T388 471Q305 471 235 429T124 312L94 170Q98 95 152 52T289 9Q350 9 407 37Z" />
<glyph unicode="&#xff;" glyph-name="ydieresis" horiz-adv-x="531" d="M234 572T227 580T223 600Q225 611 235 619T256 628Q267 628 274 620T279 600Q276 589 266 581T245 572Q234 572 227 580ZM432 572T425 580T421 600Q423 611 433 619T454 628Q465 628 472
620T477 600Q474 589 464 581T443 572Q432 572 425 580ZM119 -230T75 -221T7 -197L12 -172Q75 -206 173 -206Q279 -206 336 -155T416 5L435 99Q344 -5 216 -5Q137 -5 97 32T57 131Q57 151 62 176L127 480H155L90 178Q84 153 84 130Q84 78 117 49T221 19Q284 19
337 47T443 137L517 480H545L445 11Q418 -113 355 -171T168 -230Q119 -230 75 -221Z" />
<glyph unicode="&#x2013;" glyph-name="endash" horiz-adv-x="623" d="M74 305H577L572 281H69L74 305Z" />
<glyph unicode="&#x2014;" glyph-name="emdash" horiz-adv-x="779" d="M74 305H733L728 281H69L74 305Z" />
<glyph unicode="&#x2018;" glyph-name="quoteleft" horiz-adv-x="220" d="M236 714H261L152 525H121L236 714Z" />
<glyph unicode="&#x2019;" glyph-name="quoteright" horiz-adv-x="220" d="M230 714H261L146 525H121L230 714Z" />
<glyph unicode="&#x201a;" glyph-name="quotesinglbase" horiz-adv-x="220" d="M94 71H125L9 -118H-16L94 71Z" />
<glyph unicode="&#x201c;" glyph-name="quotedblleft" horiz-adv-x="342" d="M236 714H261L152 525H121L236 714ZM358 714H383L274 525H243L358 714Z" />
<glyph unicode="&#x201d;" glyph-name="quotedblright" horiz-adv-x="342" d="M230 714H261L146 525H121L230 714ZM352 714H383L268 525H243L352 714Z" />
<glyph unicode="&#x201e;" glyph-name="quotedblbase" horiz-adv-x="342" d="M94 71H125L9 -118H-16L94 71ZM216 71H247L131 -118H106L216 71Z" />
<glyph unicode="&#x2022;" glyph-name="bullet" horiz-adv-x="264" d="M104 226T88 242T71 282Q71 317 98 343T160 370Q186 370 202 354T218 313Q218 278 191 252T130 226Q104 226 88 242Z" />
<glyph unicode="&#x2039;" glyph-name="guilsinglleft" horiz-adv-x="350" d="M76 311L80 333L334 504L343 484L100 320L273 156L256 140L76 311Z" />
<glyph unicode="&#x203a;" glyph-name="guilsinglright" horiz-adv-x="350" d="M43 160L286 324L113 488L130 504L310 333L306 311L52 140L43 160Z" />
</font>
</defs>
</svg>
