<?xml version="1.0" standalone="no"?>
<!DOCTYPE svg PUBLIC "-//W3C//DTD SVG 1.1//EN" "http://www.w3.org/Graphics/SVG/1.1/DTD/svg11.dtd">
<svg xmlns="http://www.w3.org/2000/svg">
<defs >
<font id="CabinCondensed" horiz-adv-x="466" ><font-face
    font-family="Cabin Condensed SemiBold"
    units-per-em="1000"
    panose-1="0 0 7 6 0 0 0 0 0 0"
    ascent="965"
    descent="-250"
    alphabetic="0" />
<glyph unicode=" " glyph-name="space" horiz-adv-x="193" />
<glyph unicode="!" glyph-name="exclam" horiz-adv-x="233" d="M71 221L59 700H175L162 221V194H71V221ZM60 125H174V0H60V125Z" />
<glyph unicode="&quot;" glyph-name="quotedbl" horiz-adv-x="314" d="M27 700H134L117 496H45L27 700ZM180 700H287L270 496H198L180 700Z" />
<glyph unicode="#" glyph-name="numbersign" horiz-adv-x="609" d="M128 213H27L64 306H160L195 417H91L118 510H227L290 700H372L310 510H406L467 700H551L489 510H584L554 417H457L423 306H530L491 213H391L318 -11H235L305 213H212L138 -11H56L128 213ZM337
306L373 417H278L242 306H337Z" />
<glyph unicode="$" glyph-name="dollar" horiz-adv-x="504" d="M479 109T435 59T311 -7L319 -144H229L236 -14Q185 -14 132 -3T41 28L56 151Q153 95 247 95Q300 95 329 116T359 179Q359 222 328 250T215 314Q154 341 117 368T59 431T38 519Q38 599 91 651T237
712L229 844H319L311 712Q383 705 451 674L439 556Q391 581 349 593T263 605Q213 605 186 585T158 525Q158 495 174 475T218 440T306 396Q396 353 437 306T479 185Q479 109 435 59Z" />
<glyph unicode="%" glyph-name="percent" horiz-adv-x="785" d="M113 314T74 370T34 517Q34 608 73 661T183 714Q254 714 293 661T332 517Q332 426 293 370T183 314Q113 314 74 370ZM242 392T242 517Q242 636 183 636Q125 636 125 517Q125 392 183 392Q242 392
242 517ZM529 700H619L254 0H163L529 700ZM531 -14T492 42T452 189Q452 280 491 333T601 386Q672 386 711 333T750 189Q750 98 711 42T601 -14Q531 -14 492 42ZM660 64T660 189Q660 308 601 308Q543 308 543 189Q543 64 601 64Q660 64 660 189Z" />
<glyph unicode="&amp;" glyph-name="ampersand" horiz-adv-x="540" d="M130 -24T79 30T28 166Q28 224 55 271T132 367Q100 425 84 462T68 537Q68 588 92 625T157 683T243 703Q308 703 344 665T381 566Q381 505 349 459T260 366L378 193Q384 235 384 325Q385 335
385 352H489Q489 208 448 113L539 0H412L386 38Q330 -24 228 -24Q130 -24 79 30ZM252 464T268 490T285 551Q285 615 239 615Q210 615 193 594T175 533Q175 510 184 484T214 423Q252 464 268 490ZM298 62T331 105L184 305Q142 250 142 175Q142 125 164 94T244 62Q298
62 331 105Z" />
<glyph unicode="&apos;" glyph-name="quotesingle" horiz-adv-x="162" d="M27 700H134L117 496H45L27 700Z" />
<glyph unicode="(" glyph-name="parenleft" horiz-adv-x="279" d="M115 -39T85 64T54 307Q54 447 84 550T169 750H260Q214 658 188 551T162 307Q162 171 188 64T260 -136H169Q115 -39 85 64Z" />
<glyph unicode=")" glyph-name="parenright" horiz-adv-x="279" d="M65 -44T91 63T117 307Q117 443 91 550T19 750H110Q164 653 194 550T225 307Q225 167 195 64T110 -136H19Q65 -44 91 63Z" />
<glyph unicode="*" glyph-name="asterisk" horiz-adv-x="396" d="M148 560L26 633L63 689L172 612L166 750H230L224 612L333 688L370 633L249 560L371 486L334 430L224 507L230 367H166L172 507L62 430L25 485L148 560Z" />
<glyph unicode="+" glyph-name="plus" horiz-adv-x="402" d="M155 235H36V322H155V456H247V322H366V235H247V101H155V235Z" />
<glyph unicode="," glyph-name="comma" horiz-adv-x="199" d="M50 -115L91 0H46V125H160V11L101 -115H50Z" />
<glyph unicode="-" glyph-name="hyphen" horiz-adv-x="351" d="M42 357H309V265H42V357Z" />
<glyph unicode="." glyph-name="period" horiz-adv-x="189" d="M37 125H151V0H37V125Z" />
<glyph unicode="/" glyph-name="slash" horiz-adv-x="322" d="M243 700H349L98 -85H-9L243 700Z" />
<glyph unicode="0" glyph-name="zero" horiz-adv-x="606" d="M227 -14T170 32T81 163T50 356Q50 461 81 542T170 669T303 714Q379 714 436 669T524 543T556 356Q556 246 525 163T437 33T303 -14Q227 -14 170 32ZM366 98T402 163T439 356Q439 476 402 539T303 602Q242
602 205 540T167 356Q167 229 203 164T303 98Q366 98 402 163Z" />
<glyph unicode="1" glyph-name="one" horiz-adv-x="320" d="M124 535Q88 502 45 490L36 591Q71 602 104 633T153 700H235V0H124V535Z" />
<glyph unicode="2" glyph-name="two" horiz-adv-x="450" d="M193 272Q241 363 259 413T277 511Q277 554 254 578T189 602Q131 602 72 554L60 664Q135 714 221 714Q304 714 349 662T394 528Q394 464 373 403T292 232L225 108H408V0H48L193 272Z" />
<glyph unicode="3" glyph-name="three" horiz-adv-x="457" d="M344 348T375 304T407 194Q407 97 348 42T191 -14Q98 -14 26 26L54 128Q85 108 115 99T180 89Q232 89 261 117T291 195Q291 250 260 279T171 309H145V417H171Q218 417 242 443T267 519Q267 562 245
586T180 611Q150 611 124 602T68 574L50 679Q115 714 198 714Q284 714 333 664T383 532Q383 475 359 433T287 368Q344 348 375 304Z" />
<glyph unicode="4" glyph-name="four" horiz-adv-x="483" d="M450 256V164H386V0H275V164H6L309 700H386V256H450ZM275 256V468L161 256H275Z" />
<glyph unicode="5" glyph-name="five" horiz-adv-x="457" d="M307 441T362 381T418 221Q418 150 390 97T311 16T197 -13Q111 -13 40 28L68 133Q99 115 127 106T188 96Q241 96 272 129T303 218Q303 278 269 311T175 344Q129 344 76 329L120 700H389L382 590H208L190
440Q198 441 215 441Q307 441 362 381Z" />
<glyph unicode="6" glyph-name="six" horiz-adv-x="472" d="M313 421T353 394T415 318T438 208Q438 107 386 47T243 -14Q149 -14 97 54T44 237Q44 341 82 436T178 602T299 715L377 647Q222 543 175 399Q213 421 263 421Q313 421 353 394ZM284 85T307 118T330 205Q330
258 307 290T244 322Q204 322 182 290T159 205Q159 151 181 118T244 85Q284 85 307 118Z" />
<glyph unicode="7" glyph-name="seven" horiz-adv-x="429" d="M420 700L194 0H81L277 598H33V700H420Z" />
<glyph unicode="8" glyph-name="eight" horiz-adv-x="522" d="M424 355T448 308T472 201Q472 138 447 90T373 14T260 -14Q196 -14 149 13T76 89T50 201Q50 262 74 309T143 383Q114 408 98 445T81 527Q81 575 100 618T159 687T260 714Q351 714 395 659T440 527Q440
481 425 444T381 382Q424 355 448 308ZM224 619T206 594T187 525Q187 484 206 457T260 429Q296 429 315 456T334 525Q334 568 315 593T260 619Q224 619 206 594ZM308 87T334 120T361 208Q361 261 335 294T260 327Q213 327 187 294T161 208Q161 153 187 120T260
87Q308 87 334 120Z" />
<glyph unicode="9" glyph-name="nine" horiz-adv-x="472" d="M323 715T375 647T428 464Q428 360 390 265T294 98T173 -14L95 54Q163 99 217 161T298 302Q260 280 209 280Q160 280 120 307T57 383T34 493Q34 593 87 654T229 715Q323 715 375 647ZM268 379T290 411T313
496Q313 550 291 583T228 616Q188 616 166 583T143 496Q143 443 165 411T228 379Q268 379 290 411Z" />
<glyph unicode=":" glyph-name="colon" horiz-adv-x="189" d="M37 496H151V371H37V496ZM37 125H151V0H37V125Z" />
<glyph unicode=";" glyph-name="semicolon" horiz-adv-x="198" d="M50 -115L91 0H46V125H160V11L101 -115H50ZM45 489H159V364H45V489Z" />
<glyph unicode="&lt;" glyph-name="less" horiz-adv-x="352" d="M30 230V327L332 488V391L108 278L332 166V70L30 230Z" />
<glyph unicode="=" glyph-name="equal" horiz-adv-x="402" d="M36 400H366V314H36V400ZM36 240H366V154H36V240Z" />
<glyph unicode="&gt;" glyph-name="greater" horiz-adv-x="352" d="M20 166L244 278L20 391V488L322 327V230L20 70V166Z" />
<glyph unicode="?" glyph-name="question" horiz-adv-x="432" d="M115 210Q115 263 133 299T191 383Q231 431 246 457T262 519Q262 560 235 583T162 607Q111 607 52 582L40 684Q76 699 113 706T197 714Q255 714 297 691T362 627T384 537Q384 503 373 475T346 423T297
361Q257 312 242 284T226 216V194H115V210ZM113 125H227V0H113V125Z" />
<glyph unicode="@" glyph-name="at" horiz-adv-x="607" d="M150 -87T93 -19T35 170Q35 276 79 364T198 502T359 553Q459 553 516 485T573 300Q573 215 543 155T451 94Q433 94 424 104T414 145Q414 170 420 199T438 275Q441 289 448 320T462 379Q417 432 358 432Q305
432 254 391T171 285T138 153Q138 105 157 73T216 40Q256 40 300 71T371 156Q369 140 369 121Q369 91 381 67T419 42Q442 42 476 61T530 106L533 104Q490 18 414 -34T248 -87Q150 -87 93 -19ZM226 106T217 124T207 173Q207 225 232 270T295 343T365 371Q397 371
404 349Q396 297 369 240T307 144T245 106Q226 106 217 124Z" />
<glyph unicode="A" glyph-name="A" horiz-adv-x="537" d="M371 175H166L115 0H2L215 700H321L535 0H422L371 175ZM342 278L269 531L195 278H342Z" />
<glyph unicode="B" glyph-name="B" horiz-adv-x="552" d="M515 334T515 199Q515 106 462 53T315 0H66V700H282Q370 700 415 657T461 530Q461 478 446 439T400 378Q515 334 515 199ZM177 418H263Q309 418 329 438T349 508Q349 557 329 577T263 598H177V418ZM398
102T398 208Q398 267 372 292T298 317H177V102H298Q398 102 398 208Z" />
<glyph unicode="C" glyph-name="C" horiz-adv-x="524" d="M252 -14T181 30T70 157T30 350Q30 460 70 542T182 669T343 714Q425 714 498 682L485 573Q453 589 424 597T360 605Q262 605 207 536T152 350Q152 234 207 165T359 95Q393 95 422 103T485 126L498 17Q433
-14 343 -14Q252 -14 181 30Z" />
<glyph unicode="D" glyph-name="D" horiz-adv-x="619" d="M66 700H291Q377 700 444 658T550 537T588 350Q588 242 550 163T445 42T291 0H66V700ZM285 102Q374 102 420 167T466 350Q466 467 420 532T285 598H177V102H285Z" />
<glyph unicode="E" glyph-name="E" horiz-adv-x="490" d="M66 700H452V598H177V418H391V316H177V102H461V0H66V700Z" />
<glyph unicode="F" glyph-name="F" horiz-adv-x="452" d="M66 700H437V598H177V418H378V316H177V0H66V700Z" />
<glyph unicode="G" glyph-name="G" horiz-adv-x="571" d="M252 -14T180 31T69 159T30 350Q30 460 71 542T185 669T350 714Q439 714 511 682L498 573Q463 589 432 597T363 605Q264 605 208 536T152 350Q152 231 204 163T357 95Q390 95 420 106V249H337V351H531V35Q498
12 450 -1T348 -14Q252 -14 180 31Z" />
<glyph unicode="H" glyph-name="H" horiz-adv-x="636" d="M66 700H177V419H459V700H570V0H459V310H177V0H66V700Z" />
<glyph unicode="I" glyph-name="I" horiz-adv-x="241" d="M65 700H176V0H65V700Z" />
<glyph unicode="J" glyph-name="J" horiz-adv-x="242" d="M-3 -73Q35 -73 50 -58T65 -2V700H176V-27Q176 -99 137 -135T27 -172H6L-3 -73Z" />
<glyph unicode="K" glyph-name="K" horiz-adv-x="526" d="M65 700H176V0H65V700ZM181 370L397 700H525L305 370L525 0H397L181 370Z" />
<glyph unicode="L" glyph-name="L" horiz-adv-x="430" d="M66 700H177V102H424V0H66V700Z" />
<glyph unicode="M" glyph-name="M" horiz-adv-x="723" d="M567 0L517 470L361 142L206 469L156 0H40L124 700H215L361 374L508 700H599L683 0H567Z" />
<glyph unicode="N" glyph-name="N" horiz-adv-x="608" d="M66 700H183L431 236V700H542V0H443L177 493V0H66V700Z" />
<glyph unicode="O" glyph-name="O" horiz-adv-x="654" d="M241 -14T174 31T68 158T30 350Q30 459 68 541T173 669T327 714Q413 714 480 669T586 542T624 350Q624 241 586 159T481 31T327 -14Q241 -14 174 31ZM413 98T459 167T505 350Q505 463 459 532T327 602Q241
602 195 532T148 350Q148 238 194 168T327 98Q413 98 459 167Z" />
<glyph unicode="P" glyph-name="P" horiz-adv-x="514" d="M65 700H260Q370 700 432 642T495 470Q495 357 432 298T260 239H176V0H65V700ZM250 337Q314 337 347 369T380 470Q380 536 347 569T250 602H176V337H250Z" />
<glyph unicode="Q" glyph-name="Q" horiz-adv-x="654" d="M624 211T563 116L624 56L553 -14L496 42Q423 -14 327 -14Q241 -14 174 31T68 158T30 350Q30 459 68 541T173 669T327 714Q413 714 480 669T586 542T624 350Q624 211 563 116ZM374 98T414 122L335 199L406
269L477 200Q505 260 505 350Q505 463 459 532T327 602Q241 602 195 532T148 350Q148 238 194 168T327 98Q374 98 414 122Z" />
<glyph unicode="R" glyph-name="R" horiz-adv-x="538" d="M65 700H261Q371 700 432 647T494 485Q494 421 468 373T392 296L528 0H402L284 265L265 264H176V0H65V700ZM251 362Q315 362 347 391T379 482Q379 544 347 573T251 602H176V362H251Z" />
<glyph unicode="S" glyph-name="S" horiz-adv-x="504" d="M186 -14T133 -3T41 28L56 151Q153 95 247 95Q300 95 329 116T359 179Q359 222 328 250T215 314Q154 341 117 368T59 431T38 519Q38 576 66 620T147 689T271 714Q364 714 451 674L439 556Q391 581 349
593T263 605Q213 605 186 585T158 525Q158 495 174 475T218 440T306 396Q396 353 437 306T479 185Q479 93 415 40T238 -14Q186 -14 133 -3Z" />
<glyph unicode="T" glyph-name="T" horiz-adv-x="476" d="M182 598H12V700H464V598H294V0H182V598Z" />
<glyph unicode="U" glyph-name="U" horiz-adv-x="619" d="M184 -14T122 62T60 273V700H171V303Q171 202 200 149T309 95Q391 95 419 148T448 303V700H559V273Q559 137 497 62T309 -14Q184 -14 122 62Z" />
<glyph unicode="V" glyph-name="V" horiz-adv-x="572" d="M571 700L351 0H221L2 700H115L286 140L457 700H571Z" />
<glyph unicode="W" glyph-name="W" horiz-adv-x="817" d="M2 700H115L226 163L348 687H469L592 163L702 700H816L654 0H533L408 522L284 0H163L2 700Z" />
<glyph unicode="X" glyph-name="X" horiz-adv-x="548" d="M215 356L9 700H129L274 456L418 700H538L333 356L546 0H426L274 257L121 0H2L215 356Z" />
<glyph unicode="Y" glyph-name="Y" horiz-adv-x="522" d="M523 700L314 307V0H204V307L-5 700H114L260 414L403 700H523Z" />
<glyph unicode="Z" glyph-name="Z" horiz-adv-x="478" d="M469 103V0H7L301 597H47V700H465L173 103H469Z" />
<glyph unicode="[" glyph-name="bracketleft" horiz-adv-x="288" d="M58 750H279V656H157V-42H279V-136H58V750Z" />
<glyph unicode="\" glyph-name="backslash" horiz-adv-x="372" d="M27 700H132L357 -85H252L27 700Z" />
<glyph unicode="]" glyph-name="bracketright" horiz-adv-x="293" d="M14 -26H136V641H14V750H235V-136H14V-26Z" />
<glyph unicode="^" glyph-name="asciicircum" horiz-adv-x="434" d="M40 546L217 759L394 546V415L217 615L40 415V546Z" />
<glyph unicode="_" glyph-name="underscore" horiz-adv-x="480" d="M-1 -36H481V-127H-1V-36Z" />
<glyph unicode="`" glyph-name="grave" horiz-adv-x="393" d="M120 640V752L273 655V579L120 640Z" />
<glyph unicode="a" glyph-name="a" horiz-adv-x="427" d="M92 -10T54 28T16 130Q16 197 56 238T152 296T257 315Q257 365 240 386T182 408Q152 408 124 398T62 368L53 459Q128 505 209 505Q367 505 367 318V169Q367 131 370 113T380 88T404 81H418L409 -10H368Q334
-10 310 6T272 53Q246 22 216 6T148 -10Q92 -10 54 28ZM225 77T258 124V239Q130 226 130 140Q130 77 183 77Q225 77 258 124Z" />
<glyph unicode="b" glyph-name="b" horiz-adv-x="493" d="M338 505T382 470T448 377T471 248Q471 176 448 118T381 25T278 -10Q203 -10 153 40L150 0H50V750H158V457Q208 505 278 505Q338 505 382 470ZM305 81T332 127T360 248Q360 322 333 368T258 414Q207 414
180 370T152 248Q152 168 179 125T258 81Q305 81 332 127Z" />
<glyph unicode="c" glyph-name="c" horiz-adv-x="385" d="M182 -10T130 24T51 116T24 246Q24 320 50 378T129 471T260 505Q319 505 361 485L350 395Q314 414 270 414Q206 414 170 369T134 248Q134 173 170 127T270 81Q316 81 353 101L362 11Q343 2 315 -4T257
-10Q182 -10 130 24Z" />
<glyph unicode="d" glyph-name="d" horiz-adv-x="493" d="M441 750V0H341L337 37Q288 -10 218 -10Q158 -10 113 24T44 117T20 247Q20 318 43 376T112 470T218 505Q284 505 332 462V750H441ZM284 81T311 124T339 247Q339 326 312 370T233 414Q186 414 158 368T130
247Q130 174 158 128T233 81Q284 81 311 124Z" />
<glyph unicode="e" glyph-name="e" horiz-adv-x="443" d="M183 -10T130 25T51 119T24 250Q24 322 49 380T121 471T236 505Q320 505 370 447T420 289Q420 264 415 231H135Q141 156 177 119T268 81Q334 81 396 117L401 22Q342 -10 258 -10Q183 -10 130 25ZM310 307Q310
356 291 385T231 414Q193 414 169 387T138 307H310Z" />
<glyph unicode="f" glyph-name="f" horiz-adv-x="293" d="M76 406H15L25 496H76V611Q76 674 110 712T212 750Q249 750 277 740L267 649Q249 655 235 655Q211 655 198 639T184 595V496H278V406H184V0H76V406Z" />
<glyph unicode="g" glyph-name="g" horiz-adv-x="429" d="M130 -250T76 -214T21 -113Q21 -42 97 6Q53 29 53 74Q53 119 102 144Q66 171 46 214T26 310Q26 365 47 409T109 479T204 505Q269 505 313 469Q354 505 397 505Q410 505 422 503L413 429Q403 431 393 431Q374
431 353 422Q382 375 382 310Q382 256 361 211T299 140T204 113Q184 113 162 118Q149 110 149 99Q149 88 158 82T190 69L281 46Q360 26 395 -6T430 -98Q430 -168 372 -209T219 -250Q130 -250 76 -214ZM241 196T261 227T281 310Q281 360 261 391T204 422Q167 422
147 391T127 310Q127 258 147 227T204 196Q241 196 261 227ZM272 -167T302 -151T332 -104Q332 -79 315 -65T254 -39L170 -17Q111 -53 111 -97Q111 -131 141 -149T223 -167Q272 -167 302 -151Z" />
<glyph unicode="h" glyph-name="h" horiz-adv-x="475" d="M349 505T389 452T429 309V0H321V295Q321 414 245 414Q191 414 157 361V0H49V750H157V461Q203 505 274 505Q349 505 389 452Z" />
<glyph unicode="i" glyph-name="i" horiz-adv-x="207" d="M49 700H157V585H49V700ZM49 496H157V0H49V496Z" />
<glyph unicode="j" glyph-name="j" horiz-adv-x="207" d="M49 700H158V585H49V700ZM-2 -152Q28 -150 38 -135T49 -76V496H158V-110Q158 -175 128 -206T39 -240L8 -242L-2 -152Z" />
<glyph unicode="k" glyph-name="k" horiz-adv-x="421" d="M49 750H157V289L289 496H413L260 264L417 0H292L157 235V0H49V750Z" />
<glyph unicode="l" glyph-name="l" horiz-adv-x="228" d="M104 -10T77 24T49 116V750H158V161Q158 127 161 111T175 88T209 81L199 -10H159Q104 -10 77 24Z" />
<glyph unicode="m" glyph-name="m" horiz-adv-x="746" d="M619 505T660 453T701 309V0H592V295Q592 355 574 384T515 414Q474 414 452 387T430 309V0H321V295Q321 414 246 414Q192 414 158 361V0H50V496H141L147 449Q192 505 271 505Q313 505 345 487T396 434Q418
468 454 486T537 505Q619 505 660 453Z" />
<glyph unicode="n" glyph-name="n" horiz-adv-x="476" d="M351 505T390 452T430 309V0H322V295Q322 354 304 384T246 414Q191 414 158 361V0H50V496H143L148 450Q195 505 275 505Q351 505 390 452Z" />
<glyph unicode="o" glyph-name="o" horiz-adv-x="484" d="M175 -10T126 24T50 118T24 248Q24 319 50 377T125 470T242 505Q309 505 358 471T434 378T460 248Q460 177 434 118T359 25T242 -10Q175 -10 126 24ZM293 81T321 126T350 248Q350 324 322 369T242 414Q192
414 163 369T134 248Q134 171 162 126T242 81Q293 81 321 126Z" />
<glyph unicode="p" glyph-name="p" horiz-adv-x="490" d="M337 505T380 471T447 379T470 248Q470 176 448 117T381 24T276 -10Q203 -10 157 33V-242H49V496H135L146 446Q199 505 276 505Q337 505 380 471ZM304 81T331 126T359 248Q359 324 332 369T256 414Q207
414 179 370T150 248Q150 169 178 125T256 81Q304 81 331 126Z" />
<glyph unicode="q" glyph-name="q" horiz-adv-x="493" d="M470 496V-242H361V27Q316 -10 249 -10Q186 -10 141 24T72 117T49 248Q49 318 72 376T141 470T249 505Q325 505 376 452L387 496H470ZM314 81T342 125T370 248Q370 326 342 370T264 414Q215 414 187 369T159
248Q159 172 187 127T264 81Q314 81 342 125Z" />
<glyph unicode="r" glyph-name="r" horiz-adv-x="290" d="M49 496H142L151 433Q181 470 207 487T267 505Q280 505 291 502L282 389Q270 393 251 393Q201 393 158 343V0H49V496Z" />
<glyph unicode="s" glyph-name="s" horiz-adv-x="366" d="M134 -10T99 -1T30 27L41 126Q111 78 168 78Q202 78 221 91T240 130Q240 157 222 173T149 215Q89 243 62 275T34 363Q34 426 78 465T199 505Q270 505 328 470L317 375Q289 397 264 408T206 420Q175 420
157 407T139 369Q139 344 157 330T229 289Q291 259 318 225T345 137Q345 69 299 30T176 -10Q134 -10 99 -1Z" />
<glyph unicode="t" glyph-name="t" horiz-adv-x="299" d="M136 -10T107 23T77 116V406H16L26 496H77V610L185 622V496H279V406H185V148Q185 113 199 97T245 81H279L269 -10H193Q136 -10 107 23Z" />
<glyph unicode="u" glyph-name="u" horiz-adv-x="471" d="M423 496V0H329L324 45Q278 -9 199 -9Q123 -9 85 41T46 180V496H154V194Q154 83 228 83Q280 83 314 133V496H423Z" />
<glyph unicode="v" glyph-name="v" horiz-adv-x="437" d="M3 496H116L219 140L320 496H434L268 0H170L3 496Z" />
<glyph unicode="w" glyph-name="w" horiz-adv-x="623" d="M3 496H115L190 138L265 485H359L436 138L508 496H620L486 0H389L312 337L235 0H138L3 496Z" />
<glyph unicode="x" glyph-name="x" horiz-adv-x="420" d="M148 248L6 496H129L212 332L291 496H413L270 251L413 0H290L206 164L129 0H6L148 248Z" />
<glyph unicode="y" glyph-name="y" horiz-adv-x="467" d="M180 23L7 496H120L235 148L346 496H460L190 -242H79L180 23Z" />
<glyph unicode="z" glyph-name="z" horiz-adv-x="403" d="M179 93H380V0H18L224 403H30V496H385L179 93Z" />
<glyph unicode="{" glyph-name="braceleft" horiz-adv-x="282" d="M219 662T198 639T176 564Q176 541 180 491Q184 441 184 420Q184 375 165 349T110 307Q146 293 165 266T184 194Q184 173 180 123Q176 73 176 50Q176 -2 197 -25T261 -48H278V-136H251Q169 -136
129 -94T89 20Q89 39 93 89Q97 139 97 164Q97 220 79 245T13 271V343Q60 343 78 368T97 450Q97 475 93 525Q89 575 89 594Q89 666 129 708T251 750H278V662H261Q219 662 198 639Z" />
<glyph unicode="|" glyph-name="bar" horiz-adv-x="223" d="M57 750H166V-210H57V750Z" />
<glyph unicode="}" glyph-name="braceright" horiz-adv-x="282" d="M184 394T202 369T268 343V271Q221 271 203 246T184 164Q184 139 188 89Q192 39 192 20Q192 -52 153 -94T31 -136H4V-48H21Q63 -48 84 -25T106 50Q106 73 102 123Q98 173 98 194Q98 239 117 266T172
307Q136 322 117 348T98 420Q98 441 102 491Q106 541 106 564Q106 616 85 639T21 662H4V750H31Q113 750 152 708T192 594Q192 575 188 525Q184 475 184 450Q184 394 202 369Z" />
<glyph unicode="~" glyph-name="asciitilde" horiz-adv-x="415" d="M266 293T248 299T209 317Q189 327 175 332T145 338Q130 338 121 327T112 297H33Q35 359 60 391T131 424Q152 424 168 418T209 399Q228 389 241 384T269 379Q285 379 294 390T303 421H381Q379
359 355 326T287 293Q266 293 248 299Z" />
<glyph unicode="&#xa0;" glyph-name="uni00A0" horiz-adv-x="193" />
<glyph unicode="&#xa1;" glyph-name="exclamdown" horiz-adv-x="227" d="M174 500V375H60V500H174ZM162 306V279L175 -200H59L71 279V306H162Z" />
<glyph unicode="&#xa2;" glyph-name="cent" horiz-adv-x="385" d="M326 -7T271 -10L279 -144H189L197 -4Q114 15 69 83T24 246Q24 343 68 411T197 498L189 636H279L271 505Q326 502 361 485L350 395Q314 414 270 414Q206 414 170 369T134 248Q134 173 170 127T270
81Q316 81 353 101L362 11Q326 -7 271 -10Z" />
<glyph unicode="&#xa3;" glyph-name="sterling" horiz-adv-x="460" d="M440 102V0H44Q74 81 89 149T116 314H45V396H124L134 486Q145 598 191 656T324 714Q378 714 435 688L425 569Q401 588 381 597T336 606Q255 606 243 490L233 396H386V314H225Q216 241 207
193T181 102H440Z" />
<glyph unicode="&#xa4;" glyph-name="currency" horiz-adv-x="666" d="M575 300T562 258T523 182L621 84L574 38L476 136Q413 91 333 91Q250 91 189 136L92 38L46 84L143 182Q92 250 92 348Q92 443 143 513L46 612L92 658L190 559Q252 605 333 605Q413 605 476
560L574 658L621 612L522 513Q575 444 575 348Q575 300 562 258ZM394 192T427 235T461 348Q461 418 428 461T333 504Q273 504 239 461T205 348Q205 279 239 236T333 192Q394 192 427 235Z" />
<glyph unicode="&#xa5;" glyph-name="yen" horiz-adv-x="521" d="M342 355H454V273H316V215H454V132H316V0H206V132H68V215H206V273H68V355H180L-4 700H116L261 415L405 700H525L342 355Z" />
<glyph unicode="&#xa6;" glyph-name="brokenbar" horiz-adv-x="225" d="M58 750H167V342H58V750ZM58 198H167V-210H58V198Z" />
<glyph unicode="&#xa7;" glyph-name="section" horiz-adv-x="459" d="M168 -85T130 -73T64 -44L74 45Q105 25 142 12T211 -1Q251 -1 274 16T299 66Q299 100 273 120T191 163Q142 184 112 202T60 252T38 331Q38 422 132 479Q109 496 95 526T81 595Q81 663 125 706T251
750Q291 750 330 738T395 709L385 620Q353 640 316 653T247 667Q211 667 187 651T163 607Q163 576 187 557T264 513Q314 489 345 470T398 416T420 332Q420 289 398 251T328 187Q377 150 377 77Q377 12 337 -36T207 -85Q168 -85 130 -73ZM303 239T318 262T334 316Q334
355 299 382T189 441Q123 412 123 350Q123 307 159 281T278 227Q303 239 318 262Z" />
<glyph unicode="&#xa8;" glyph-name="dieresis" horiz-adv-x="451" d="M100 677H188V591H100V677ZM262 677H350V591H262V677Z" />
<glyph unicode="&#xa9;" glyph-name="copyright" horiz-adv-x="602" d="M224 37T164 78T69 193T34 365Q34 462 68 536T163 652T301 693Q378 693 439 652T534 537T568 365Q568 268 534 194T439 78T301 37Q224 37 164 78ZM397 97T449 171T501 365Q501 484 449 558T301
632Q205 632 154 558T102 365Q102 246 153 172T301 97Q397 97 449 171ZM246 193T207 239T167 363Q167 440 206 487T308 534Q353 534 397 513L387 437Q363 448 346 453T308 459Q279 459 263 433T247 363Q247 320 263 294T308 267Q328 267 346 273T387 291L397 216Q359
193 308 193Q246 193 207 239Z" />
<glyph unicode="&#xaa;" glyph-name="ordfeminine" horiz-adv-x="306" d="M71 434T49 455T26 513Q26 606 162 624Q161 639 154 645T129 652Q94 652 52 636L47 709Q100 729 150 729Q198 729 225 703T253 624V536Q253 511 269 511H280L275 435H237Q193 435 174 468Q147
434 105 434Q71 434 49 455ZM151 501T163 513V566Q122 559 122 524Q122 501 139 501Q151 501 163 513Z" />
<glyph unicode="&#xab;" glyph-name="guillemotleft" horiz-adv-x="529" d="M10 284L140 490H269L138 284L269 78H140L10 284ZM240 284L370 490H499L368 284L499 78H370L240 284Z" />
<glyph unicode="&#xac;" glyph-name="logicalnot" horiz-adv-x="471" d="M338 322H42V406H429V151H338V322Z" />
<glyph unicode="&#xad;" glyph-name="uni00AD" horiz-adv-x="371" d="M52 357H319V265H52V357Z" />
<glyph unicode="&#xae;" glyph-name="registered" horiz-adv-x="602" d="M224 37T164 78T69 193T34 365Q34 462 68 536T163 652T301 693Q378 693 439 652T534 537T568 365Q568 268 534 194T439 78T301 37Q224 37 164 78ZM397 97T448 171T499 365Q499 484 448 558T301
632Q205 632 154 558T103 365Q103 246 154 172T301 97Q397 97 448 171ZM192 535H302Q351 535 378 512T405 429Q405 403 394 380T365 342L429 206H347L294 319H270V206H192V535ZM289 391Q311 391 318 401T326 431Q326 452 320 461T291 470H270V391H289Z" />
<glyph unicode="&#xaf;" glyph-name="overscore" horiz-adv-x="485" d="M100 666H386V593H100V666Z" />
<glyph unicode="&#xb0;" glyph-name="degree" horiz-adv-x="261" d="M72 482T40 520T7 618Q7 677 39 716T130 755Q187 755 220 716T254 618Q254 560 221 521T130 482Q72 482 40 520ZM160 535T176 558T193 618Q193 654 177 678T130 702Q99 702 83 679T67 618Q67
582 83 559T130 535Q160 535 176 558Z" />
<glyph unicode="&#xb1;" glyph-name="plusminus" horiz-adv-x="402" d="M158 315H36V398H158V530H244V398H366V315H244V184H158V315ZM36 137H366V52H36V137Z" />
<glyph unicode="&#xb2;" glyph-name="uni00B2" horiz-adv-x="268" d="M244 463V386H29L112 544Q129 577 136 598T143 640Q143 663 131 677T97 691Q68 691 36 664L29 749Q71 772 120 772Q171 772 202 740T233 656Q233 623 223 594T182 510L156 463H244Z" />
<glyph unicode="&#xb3;" glyph-name="uni00B3" horiz-adv-x="291" d="M223 569T240 546T257 487Q257 434 223 403T134 372Q79 372 28 394L47 474Q83 451 116 451Q140 451 153 462T167 495Q167 542 109 542H101V613H110Q132 613 144 623T156 654Q156 672 146 682T114
693Q84 693 57 672L50 755Q87 772 135 772Q186 772 215 744T245 670Q245 639 232 616T193 581Q223 569 240 546Z" />
<glyph unicode="&#xb4;" glyph-name="acute" horiz-adv-x="433" d="M140 653L293 748V639L140 580V653Z" />
<glyph unicode="&#xb5;" glyph-name="uni00B5" horiz-adv-x="486" d="M46 496H155V198Q155 85 236 85Q285 85 314 133V496H423V126Q423 101 432 91T461 81H466L458 -10H432Q358 -10 330 46Q287 -9 226 -9Q184 -9 154 13V-242H46V496Z" />
<glyph unicode="&#xb6;" glyph-name="paragraph" horiz-adv-x="538" d="M249 234Q179 239 129 273T54 359T28 469Q28 528 56 581T139 667T274 700H498V608H439V0H362V608H311V0H249V234Z" />
<glyph unicode="&#xb7;" glyph-name="middot" horiz-adv-x="217" d="M55 343H162V213H55V343Z" />
<glyph unicode="&#xb8;" glyph-name="cedilla" horiz-adv-x="373" d="M230 -57T251 -79T273 -139Q273 -184 244 -209T170 -234Q132 -234 100 -221L117 -169Q142 -180 168 -180Q190 -180 202 -170T215 -141Q215 -122 204 -112T172 -102Q156 -102 133 -109L159 0H209L192
-56Q230 -57 251 -79Z" />
<glyph unicode="&#xb9;" glyph-name="uni00B9" horiz-adv-x="213" d="M78 656Q59 632 35 624L29 699Q48 707 67 723T98 758H162V386H78V656Z" />
<glyph unicode="&#xba;" glyph-name="ordmasculine" horiz-adv-x="328" d="M122 434T91 454T43 509T26 582Q26 621 42 654T90 708T164 729Q227 729 264 686T302 582Q302 543 286 509T238 455T164 434Q122 434 91 454ZM185 505T197 527T210 582Q210 615 198 637T164
659Q144 659 131 637T118 582Q118 550 131 528T164 505Q185 505 197 527Z" />
<glyph unicode="&#xbb;" glyph-name="guillemotright" horiz-adv-x="529" d="M390 284L260 490H389L519 284L389 78H260L390 284ZM160 284L30 490H159L289 284L159 78H30L160 284Z" />
<glyph unicode="&#xbc;" glyph-name="onequarter" horiz-adv-x="558" d="M323 598Q304 574 280 566L274 641Q293 649 312 665T343 700H407V328H323V598ZM404 700H494L129 0H38L404 700ZM539 139V76H500V0H422V76H255L430 372H500V139H539ZM422 177L425 256L397
196L366 139H422V177Z" />
<glyph unicode="&#xbd;" glyph-name="onehalf" horiz-adv-x="598" d="M323 598Q304 574 280 566L274 641Q293 649 312 665T343 700H407V328H323V598ZM404 700H494L129 0H38L404 700ZM579 77V0H364L447 158Q464 191 471 212T478 254Q478 277 466 291T432 305Q403
305 371 278L364 363Q406 386 455 386Q506 386 537 354T568 270Q568 237 558 208T517 124L491 77H579Z" />
<glyph unicode="&#xbe;" glyph-name="threequarters" horiz-adv-x="621" d="M469 511T486 488T503 429Q503 376 469 345T380 314Q325 314 274 336L293 416Q329 393 362 393Q386 393 399 404T413 437Q413 484 355 484H347V555H356Q378 555 390 565T402 596Q402
614 392 624T360 635Q330 635 303 614L296 697Q333 714 381 714Q432 714 461 686T491 612Q491 581 478 558T439 523Q469 511 486 488ZM468 700H558L193 0H102L468 700ZM602 139V76H563V0H485V76H318L493 372H563V139H602ZM485 177L488 256L460 196L429 139H485V177Z"
/>
<glyph unicode="&#xbf;" glyph-name="questiondown" horiz-adv-x="358" d="M281 375H167V500H281V375ZM279 290Q279 237 261 201T203 117Q163 69 148 43T132 -19Q132 -60 159 -83T232 -107Q283 -107 342 -82L354 -184Q318 -199 281 -206T197 -214Q139 -214 97
-191T32 -127T10 -37Q10 -3 21 25T48 77T97 139Q137 188 152 216T168 284V306H279V290Z" />
<glyph unicode="&#xc0;" glyph-name="Agrave" horiz-adv-x="537" d="M371 175H166L115 0H2L215 700H321L535 0H422L371 175ZM342 278L269 531L195 278H342ZM191 806V906L344 826V761L191 806Z" />
<glyph unicode="&#xc1;" glyph-name="Aacute" horiz-adv-x="537" d="M371 175H166L115 0H2L215 700H321L535 0H422L371 175ZM342 278L269 531L195 278H342ZM192 826L345 906V807L192 761V826Z" />
<glyph unicode="&#xc2;" glyph-name="Acircumflex" horiz-adv-x="537" d="M371 175H166L115 0H2L215 700H321L535 0H422L371 175ZM342 278L269 531L195 278H342ZM148 818L268 903L388 818V749L268 814L148 749V818Z" />
<glyph unicode="&#xc3;" glyph-name="Atilde" horiz-adv-x="537" d="M371 175H166L115 0H2L215 700H321L535 0H422L371 175ZM342 278L269 531L195 278H342ZM326 781T310 787T272 803Q258 810 245 815T220 820Q191 820 191 788H119Q119 838 137 864T193 891Q210
891 226 885T264 869Q278 862 291 857T316 852Q345 852 345 885H417Q417 834 399 808T343 781Q326 781 310 787Z" />
<glyph unicode="&#xc4;" glyph-name="Adieresis" horiz-adv-x="537" d="M371 175H166L115 0H2L215 700H321L535 0H422L371 175ZM342 278L269 531L195 278H342ZM143 869H232V787H143V869ZM304 869H393V787H304V869Z" />
<glyph unicode="&#xc5;" glyph-name="Aring" horiz-adv-x="537" d="M371 175H166L115 0H2L215 700H321L535 0H422L371 175ZM342 278L269 531L195 278H342ZM225 755T200 783T174 852Q174 893 199 921T268 950Q311 950 336 922T362 852Q362 811 337 783T268 755Q225
755 200 783ZM286 804T297 817T308 852Q308 874 297 887T268 901Q250 901 239 888T228 852Q228 830 239 817T268 804Q286 804 297 817Z" />
<glyph unicode="&#xc6;" glyph-name="AE" horiz-adv-x="772" d="M743 102V0H348V179H183L110 0H-7L287 700H734V598H459V418H673V316H459V102H743ZM348 282V581L226 282H348Z" />
<glyph unicode="&#xc7;" glyph-name="Ccedilla" horiz-adv-x="524" d="M445 -9T373 -13L360 -56Q398 -57 419 -79T441 -139Q441 -184 412 -209T338 -234Q300 -234 268 -221L285 -169Q310 -180 336 -180Q358 -180 370 -170T383 -141Q383 -122 372 -112T340 -102Q324
-102 301 -109L324 -13Q238 -9 172 37T68 163T30 350Q30 460 70 542T182 669T343 714Q425 714 498 682L485 573Q453 589 424 597T360 605Q262 605 207 536T152 350Q152 234 207 165T359 95Q393 95 422 103T485 126L498 17Q445 -9 373 -13Z" />
<glyph unicode="&#xc8;" glyph-name="Egrave" horiz-adv-x="490" d="M66 700H452V598H177V418H391V316H177V102H461V0H66V700ZM183 806V906L336 826V761L183 806Z" />
<glyph unicode="&#xc9;" glyph-name="Eacute" horiz-adv-x="490" d="M66 700H452V598H177V418H391V316H177V102H461V0H66V700ZM184 826L337 906V807L184 761V826Z" />
<glyph unicode="&#xca;" glyph-name="Ecircumflex" horiz-adv-x="490" d="M66 700H452V598H177V418H391V316H177V102H461V0H66V700ZM140 818L260 903L380 818V749L260 814L140 749V818Z" />
<glyph unicode="&#xcb;" glyph-name="Edieresis" horiz-adv-x="490" d="M66 700H452V598H177V418H391V316H177V102H461V0H66V700ZM135 869H224V787H135V869ZM296 869H385V787H296V869Z" />
<glyph unicode="&#xcc;" glyph-name="Igrave" horiz-adv-x="241" d="M65 700H176V0H65V700ZM44 806V906L197 826V761L44 806Z" />
<glyph unicode="&#xcd;" glyph-name="Iacute" horiz-adv-x="241" d="M65 700H176V0H65V700ZM45 826L198 906V807L45 761V826Z" />
<glyph unicode="&#xce;" glyph-name="Icircumflex" horiz-adv-x="241" d="M65 700H176V0H65V700ZM1 818L121 903L241 818V749L121 814L1 749V818Z" />
<glyph unicode="&#xcf;" glyph-name="Idieresis" horiz-adv-x="241" d="M65 700H176V0H65V700ZM-4 869H85V787H-4V869ZM157 869H246V787H157V869Z" />
<glyph unicode="&#xd0;" glyph-name="Eth" horiz-adv-x="624" d="M72 304H13V401H72V700H297Q383 700 450 658T555 537T593 350Q593 242 555 163T450 42T297 0H72V304ZM291 102Q379 102 425 167T471 350Q471 467 425 532T291 598H183V401H295V304H183V102H291Z" />
<glyph unicode="&#xd1;" glyph-name="Ntilde" horiz-adv-x="608" d="M66 700H183L431 236V700H542V0H443L177 493V0H66V700ZM365 781T349 787T311 803Q297 810 284 815T259 820Q230 820 230 788H158Q158 838 176 864T232 891Q249 891 265 885T303 869Q317 862
330 857T355 852Q384 852 384 885H456Q456 834 438 808T382 781Q365 781 349 787Z" />
<glyph unicode="&#xd2;" glyph-name="Ograve" horiz-adv-x="654" d="M241 -14T174 31T68 158T30 350Q30 459 68 541T173 669T327 714Q413 714 480 669T586 542T624 350Q624 241 586 159T481 31T327 -14Q241 -14 174 31ZM413 98T459 167T505 350Q505 463 459 532T327
602Q241 602 195 532T148 350Q148 238 194 168T327 98Q413 98 459 167ZM250 806V906L403 826V761L250 806Z" />
<glyph unicode="&#xd3;" glyph-name="Oacute" horiz-adv-x="654" d="M241 -14T174 31T68 158T30 350Q30 459 68 541T173 669T327 714Q413 714 480 669T586 542T624 350Q624 241 586 159T481 31T327 -14Q241 -14 174 31ZM413 98T459 167T505 350Q505 463 459 532T327
602Q241 602 195 532T148 350Q148 238 194 168T327 98Q413 98 459 167ZM251 826L404 906V807L251 761V826Z" />
<glyph unicode="&#xd4;" glyph-name="Ocircumflex" horiz-adv-x="654" d="M241 -14T174 31T68 158T30 350Q30 459 68 541T173 669T327 714Q413 714 480 669T586 542T624 350Q624 241 586 159T481 31T327 -14Q241 -14 174 31ZM413 98T459 167T505 350Q505 463 459
532T327 602Q241 602 195 532T148 350Q148 238 194 168T327 98Q413 98 459 167ZM207 818L327 903L447 818V749L327 814L207 749V818Z" />
<glyph unicode="&#xd5;" glyph-name="Otilde" horiz-adv-x="654" d="M241 -14T174 31T68 158T30 350Q30 459 68 541T173 669T327 714Q413 714 480 669T586 542T624 350Q624 241 586 159T481 31T327 -14Q241 -14 174 31ZM413 98T459 167T505 350Q505 463 459 532T327
602Q241 602 195 532T148 350Q148 238 194 168T327 98Q413 98 459 167ZM385 781T369 787T331 803Q317 810 304 815T279 820Q250 820 250 788H178Q178 838 196 864T252 891Q269 891 285 885T323 869Q337 862 350 857T375 852Q404 852 404 885H476Q476 834 458 808T402
781Q385 781 369 787Z" />
<glyph unicode="&#xd6;" glyph-name="Odieresis" horiz-adv-x="654" d="M241 -14T174 31T68 158T30 350Q30 459 68 541T173 669T327 714Q413 714 480 669T586 542T624 350Q624 241 586 159T481 31T327 -14Q241 -14 174 31ZM413 98T459 167T505 350Q505 463 459
532T327 602Q241 602 195 532T148 350Q148 238 194 168T327 98Q413 98 459 167ZM202 869H291V787H202V869ZM363 869H452V787H363V869Z" />
<glyph unicode="&#xd7;" glyph-name="multiply" horiz-adv-x="381" d="M247 279L357 156L295 99L191 216L86 99L24 156L134 279L23 403L85 459L191 341L296 459L358 403L247 279Z" />
<glyph unicode="&#xd8;" glyph-name="Oslash" horiz-adv-x="654" d="M578 573T601 504T624 350Q624 241 586 159T481 31T327 -14Q244 -14 180 27L137 -44H46L119 79Q76 127 53 196T30 350Q30 459 68 541T173 669T327 714Q410 714 474 673L517 744H608L535 621Q578
573 601 504ZM148 251T183 186L416 576Q379 602 327 602Q241 602 195 532T148 350Q148 251 183 186ZM413 98T459 167T505 350Q505 447 470 514L237 124Q275 98 327 98Q413 98 459 167Z" />
<glyph unicode="&#xd9;" glyph-name="Ugrave" horiz-adv-x="619" d="M184 -14T122 62T60 273V700H171V303Q171 202 200 149T309 95Q391 95 419 148T448 303V700H559V273Q559 137 497 62T309 -14Q184 -14 122 62ZM233 806V906L386 826V761L233 806Z" />
<glyph unicode="&#xda;" glyph-name="Uacute" horiz-adv-x="619" d="M184 -14T122 62T60 273V700H171V303Q171 202 200 149T309 95Q391 95 419 148T448 303V700H559V273Q559 137 497 62T309 -14Q184 -14 122 62ZM234 826L387 906V807L234 761V826Z" />
<glyph unicode="&#xdb;" glyph-name="Ucircumflex" horiz-adv-x="619" d="M184 -14T122 62T60 273V700H171V303Q171 202 200 149T309 95Q391 95 419 148T448 303V700H559V273Q559 137 497 62T309 -14Q184 -14 122 62ZM190 818L310 903L430 818V749L310 814L190 749V818Z" />
<glyph unicode="&#xdc;" glyph-name="Udieresis" horiz-adv-x="619" d="M184 -14T122 62T60 273V700H171V303Q171 202 200 149T309 95Q391 95 419 148T448 303V700H559V273Q559 137 497 62T309 -14Q184 -14 122 62ZM185 869H274V787H185V869ZM346 869H435V787H346V869Z" />
<glyph unicode="&#xdd;" glyph-name="Yacute" horiz-adv-x="522" d="M523 700L314 307V0H204V307L-5 700H114L260 414L403 700H523ZM183 826L336 906V807L183 761V826Z" />
<glyph unicode="&#xde;" glyph-name="Thorn" horiz-adv-x="523" d="M65 700H176V551H287Q395 551 449 502T504 363Q504 273 450 224T287 174H176V0H65V700ZM275 267Q337 267 365 291T393 363Q393 413 366 436T275 459H176V267H275Z" />
<glyph unicode="&#xdf;" glyph-name="germandbls" horiz-adv-x="535" d="M277 -14T230 -3V87Q271 77 318 77Q360 77 384 98T409 159Q409 196 390 218T331 267Q290 295 270 319T249 382Q249 411 263 436T306 496Q336 532 347 552T358 599Q358 633 339 653T282 673Q235
673 209 638T182 539V0H74V406H16L26 496H74V537Q74 646 130 705T286 764Q367 764 416 721T466 607Q466 568 455 541T415 481Q380 443 370 428T359 394Q359 375 373 360T418 323Q451 298 471 279T505 231T520 161Q520 105 493 66T419 6T318 -14Q277 -14 230 -3Z"
/>
<glyph unicode="&#xe0;" glyph-name="agrave" horiz-adv-x="427" d="M92 -10T54 28T16 130Q16 197 56 238T152 296T257 315Q257 365 240 386T182 408Q152 408 124 398T62 368L53 459Q128 505 209 505Q367 505 367 318V169Q367 131 370 113T380 88T404 81H418L409
-10H368Q334 -10 310 6T272 53Q246 22 216 6T148 -10Q92 -10 54 28ZM225 77T258 124V239Q130 226 130 140Q130 77 183 77Q225 77 258 124ZM137 640V752L290 655V579L137 640Z" />
<glyph unicode="&#xe1;" glyph-name="aacute" horiz-adv-x="427" d="M92 -10T54 28T16 130Q16 197 56 238T152 296T257 315Q257 365 240 386T182 408Q152 408 124 398T62 368L53 459Q128 505 209 505Q367 505 367 318V169Q367 131 370 113T380 88T404 81H418L409
-10H368Q334 -10 310 6T272 53Q246 22 216 6T148 -10Q92 -10 54 28ZM225 77T258 124V239Q130 226 130 140Q130 77 183 77Q225 77 258 124ZM138 653L291 748V639L138 580V653Z" />
<glyph unicode="&#xe2;" glyph-name="acircumflex" horiz-adv-x="427" d="M92 -10T54 28T16 130Q16 197 56 238T152 296T257 315Q257 365 240 386T182 408Q152 408 124 398T62 368L53 459Q128 505 209 505Q367 505 367 318V169Q367 131 370 113T380 88T404 81H418L409
-10H368Q334 -10 310 6T272 53Q246 22 216 6T148 -10Q92 -10 54 28ZM225 77T258 124V239Q130 226 130 140Q130 77 183 77Q225 77 258 124ZM104 636L214 730L324 636V564L214 633L104 564V636Z" />
<glyph unicode="&#xe3;" glyph-name="atilde" horiz-adv-x="427" d="M92 -10T54 28T16 130Q16 197 56 238T152 296T257 315Q257 365 240 386T182 408Q152 408 124 398T62 368L53 459Q128 505 209 505Q367 505 367 318V169Q367 131 370 113T380 88T404 81H418L409
-10H368Q334 -10 310 6T272 53Q246 22 216 6T148 -10Q92 -10 54 28ZM225 77T258 124V239Q130 226 130 140Q130 77 183 77Q225 77 258 124ZM264 579T250 585T215 605Q201 615 191 619T170 624Q157 624 150 614T143 587H65Q67 644 87 674T145 704Q164 704 178 698T213
678Q227 668 237 664T258 659Q271 659 278 669T285 696H363Q361 639 341 609T283 579Q264 579 250 585Z" />
<glyph unicode="&#xe4;" glyph-name="adieresis" horiz-adv-x="427" d="M92 -10T54 28T16 130Q16 197 56 238T152 296T257 315Q257 365 240 386T182 408Q152 408 124 398T62 368L53 459Q128 505 209 505Q367 505 367 318V169Q367 131 370 113T380 88T404 81H418L409
-10H368Q334 -10 310 6T272 53Q246 22 216 6T148 -10Q92 -10 54 28ZM225 77T258 124V239Q130 226 130 140Q130 77 183 77Q225 77 258 124ZM89 677H177V591H89V677ZM251 677H339V591H251V677Z" />
<glyph unicode="&#xe5;" glyph-name="aring" horiz-adv-x="427" d="M92 -10T54 28T16 130Q16 197 56 238T152 296T257 315Q257 365 240 386T182 408Q152 408 124 398T62 368L53 459Q128 505 209 505Q367 505 367 318V169Q367 131 370 113T380 88T404 81H418L409
-10H368Q334 -10 310 6T272 53Q246 22 216 6T148 -10Q92 -10 54 28ZM225 77T258 124V239Q130 226 130 140Q130 77 183 77Q225 77 258 124ZM169 569T145 597T120 667Q120 709 144 737T214 766Q260 766 284 738T308 667Q308 625 284 597T214 569Q169 569 145 597ZM233
617T243 630T254 667Q254 690 243 704T214 718Q196 718 185 704T174 667Q174 644 184 631T214 617Q233 617 243 630Z" />
<glyph unicode="&#xe6;" glyph-name="ae" horiz-adv-x="682" d="M658 268T653 231H374Q379 156 415 119T507 81Q540 81 573 90T635 117L639 22Q580 -10 496 -10Q437 -10 392 11T316 73Q279 32 242 11T155 -10Q96 -10 56 27T16 130Q16 220 87 261T262 307V319Q261
367 243 387T182 408Q152 408 124 398T62 368L53 459Q128 505 209 505Q297 505 334 436Q392 505 486 505Q568 505 613 447T658 292Q658 268 653 231ZM549 307Q549 356 530 385T470 414Q393 414 376 307H549ZM238 77T283 133Q264 179 263 231Q201 227 166 204T130
138Q130 108 145 93T186 77Q238 77 283 133Z" />
<glyph unicode="&#xe7;" glyph-name="ccedilla" horiz-adv-x="385" d="M295 -57T316 -79T338 -139Q338 -184 309 -209T235 -234Q197 -234 165 -221L182 -169Q207 -180 233 -180Q255 -180 267 -170T280 -141Q280 -122 269 -112T237 -102Q221 -102 198 -109L222
-8Q127 4 76 74T24 246Q24 320 50 378T129 471T260 505Q319 505 361 485L350 395Q314 414 270 414Q206 414 170 369T134 248Q134 173 170 127T270 81Q316 81 353 101L362 11Q326 -7 271 -10L257 -56Q295 -57 316 -79Z" />
<glyph unicode="&#xe8;" glyph-name="egrave" horiz-adv-x="443" d="M183 -10T130 25T51 119T24 250Q24 322 49 380T121 471T236 505Q320 505 370 447T420 289Q420 264 415 231H135Q141 156 177 119T268 81Q334 81 396 117L401 22Q342 -10 258 -10Q183 -10 130
25ZM310 307Q310 356 291 385T231 414Q193 414 169 387T138 307H310ZM160 640V752L313 655V579L160 640Z" />
<glyph unicode="&#xe9;" glyph-name="eacute" horiz-adv-x="443" d="M183 -10T130 25T51 119T24 250Q24 322 49 380T121 471T236 505Q320 505 370 447T420 289Q420 264 415 231H135Q141 156 177 119T268 81Q334 81 396 117L401 22Q342 -10 258 -10Q183 -10 130
25ZM310 307Q310 356 291 385T231 414Q193 414 169 387T138 307H310ZM161 653L314 748V639L161 580V653Z" />
<glyph unicode="&#xea;" glyph-name="ecircumflex" horiz-adv-x="443" d="M183 -10T130 25T51 119T24 250Q24 322 49 380T121 471T236 505Q320 505 370 447T420 289Q420 264 415 231H135Q141 156 177 119T268 81Q334 81 396 117L401 22Q342 -10 258 -10Q183 -10
130 25ZM310 307Q310 356 291 385T231 414Q193 414 169 387T138 307H310ZM127 636L237 730L347 636V564L237 633L127 564V636Z" />
<glyph unicode="&#xeb;" glyph-name="edieresis" horiz-adv-x="443" d="M183 -10T130 25T51 119T24 250Q24 322 49 380T121 471T236 505Q320 505 370 447T420 289Q420 264 415 231H135Q141 156 177 119T268 81Q334 81 396 117L401 22Q342 -10 258 -10Q183 -10
130 25ZM310 307Q310 356 291 385T231 414Q193 414 169 387T138 307H310ZM112 677H200V591H112V677ZM274 677H362V591H274V677Z" />
<glyph unicode="&#xec;" glyph-name="igrave" horiz-adv-x="207" d="M49 496H158V0H49V496ZM27 640V752L180 655V579L27 640Z" />
<glyph unicode="&#xed;" glyph-name="iacute" horiz-adv-x="207" d="M49 496H158V0H49V496ZM28 653L181 748V639L28 580V653Z" />
<glyph unicode="&#xee;" glyph-name="icircumflex" horiz-adv-x="207" d="M49 496H158V0H49V496ZM-6 636L104 730L214 636V564L104 633L-6 564V636Z" />
<glyph unicode="&#xef;" glyph-name="idieresis" horiz-adv-x="207" d="M49 496H158V0H49V496ZM-21 677H67V591H-21V677ZM141 677H229V591H141V677Z" />
<glyph unicode="&#xf0;" glyph-name="eth" horiz-adv-x="441" d="M344 533T377 446T410 258Q410 123 357 55T210 -13Q122 -13 70 48T18 206Q18 302 66 364T203 426Q257 426 291 400Q276 487 216 553L122 495L84 553L161 600Q127 624 84 639L105 701Q174 682 230
642L324 700L361 642L284 595Q344 533 377 446ZM252 82T274 117T297 209Q297 265 275 299T212 334Q172 334 150 300T128 210Q128 153 150 118T213 82Q252 82 274 117Z" />
<glyph unicode="&#xf1;" glyph-name="ntilde" horiz-adv-x="476" d="M351 505T390 452T430 309V0H322V295Q322 354 304 384T246 414Q191 414 158 361V0H50V496H143L148 450Q195 505 275 505Q351 505 390 452ZM295 573T281 579T246 599Q232 609 222 613T201 618Q188
618 181 608T174 581H96Q98 638 118 668T176 698Q195 698 209 692T244 672Q258 662 268 658T289 653Q302 653 309 663T316 690H394Q392 633 372 603T314 573Q295 573 281 579Z" />
<glyph unicode="&#xf2;" glyph-name="ograve" horiz-adv-x="484" d="M175 -10T126 24T50 118T24 248Q24 319 50 377T125 470T242 505Q309 505 358 471T434 378T460 248Q460 177 434 118T359 25T242 -10Q175 -10 126 24ZM293 81T321 126T350 248Q350 324 322 369T242
414Q192 414 163 369T134 248Q134 171 162 126T242 81Q293 81 321 126ZM166 640V752L319 655V579L166 640Z" />
<glyph unicode="&#xf3;" glyph-name="oacute" horiz-adv-x="484" d="M175 -10T126 24T50 118T24 248Q24 319 50 377T125 470T242 505Q309 505 358 471T434 378T460 248Q460 177 434 118T359 25T242 -10Q175 -10 126 24ZM293 81T321 126T350 248Q350 324 322 369T242
414Q192 414 163 369T134 248Q134 171 162 126T242 81Q293 81 321 126ZM167 653L320 748V639L167 580V653Z" />
<glyph unicode="&#xf4;" glyph-name="ocircumflex" horiz-adv-x="484" d="M175 -10T126 24T50 118T24 248Q24 319 50 377T125 470T242 505Q309 505 358 471T434 378T460 248Q460 177 434 118T359 25T242 -10Q175 -10 126 24ZM293 81T321 126T350 248Q350 324 322
369T242 414Q192 414 163 369T134 248Q134 171 162 126T242 81Q293 81 321 126ZM133 636L243 730L353 636V564L243 633L133 564V636Z" />
<glyph unicode="&#xf5;" glyph-name="otilde" horiz-adv-x="484" d="M175 -10T126 24T50 118T24 248Q24 319 50 377T125 470T242 505Q309 505 358 471T434 378T460 248Q460 177 434 118T359 25T242 -10Q175 -10 126 24ZM293 81T321 126T350 248Q350 324 322 369T242
414Q192 414 163 369T134 248Q134 171 162 126T242 81Q293 81 321 126ZM293 579T279 585T244 605Q230 615 220 619T199 624Q186 624 179 614T172 587H94Q96 644 116 674T174 704Q193 704 207 698T242 678Q256 668 266 664T287 659Q300 659 307 669T314 696H392Q390
639 370 609T312 579Q293 579 279 585Z" />
<glyph unicode="&#xf6;" glyph-name="odieresis" horiz-adv-x="484" d="M175 -10T126 24T50 118T24 248Q24 319 50 377T125 470T242 505Q309 505 358 471T434 378T460 248Q460 177 434 118T359 25T242 -10Q175 -10 126 24ZM293 81T321 126T350 248Q350 324 322
369T242 414Q192 414 163 369T134 248Q134 171 162 126T242 81Q293 81 321 126ZM118 677H206V591H118V677ZM280 677H368V591H280V677Z" />
<glyph unicode="&#xf7;" glyph-name="divide" horiz-adv-x="423" d="M157 507H265V390H157V507ZM36 322H387V235H36V322ZM157 167H265V50H157V167Z" />
<glyph unicode="&#xf8;" glyph-name="oslash" horiz-adv-x="484" d="M426 404T443 355T460 248Q460 177 434 118T359 25T242 -10Q189 -10 147 12L117 -40H39L93 53Q60 88 42 139T24 248Q24 319 50 377T125 470T242 505Q297 505 340 482L368 530H446L394 440Q426
404 443 355ZM134 190T150 152L293 399Q270 414 242 414Q192 414 163 369T134 248Q134 190 150 152ZM293 81T321 126T350 248Q350 300 336 339L194 94Q217 81 242 81Q293 81 321 126Z" />
<glyph unicode="&#xf9;" glyph-name="ugrave" horiz-adv-x="471" d="M423 496V0H329L324 45Q278 -9 199 -9Q123 -9 85 41T46 180V496H154V194Q154 83 228 83Q280 83 314 133V496H423ZM157 640V752L310 655V579L157 640Z" />
<glyph unicode="&#xfa;" glyph-name="uacute" horiz-adv-x="471" d="M423 496V0H329L324 45Q278 -9 199 -9Q123 -9 85 41T46 180V496H154V194Q154 83 228 83Q280 83 314 133V496H423ZM158 653L311 748V639L158 580V653Z" />
<glyph unicode="&#xfb;" glyph-name="ucircumflex" horiz-adv-x="471" d="M423 496V0H329L324 45Q278 -9 199 -9Q123 -9 85 41T46 180V496H154V194Q154 83 228 83Q280 83 314 133V496H423ZM124 636L234 730L344 636V564L234 633L124 564V636Z" />
<glyph unicode="&#xfc;" glyph-name="udieresis" horiz-adv-x="471" d="M423 496V0H329L324 45Q278 -9 199 -9Q123 -9 85 41T46 180V496H154V194Q154 83 228 83Q280 83 314 133V496H423ZM109 677H197V591H109V677ZM271 677H359V591H271V677Z" />
<glyph unicode="&#xfd;" glyph-name="yacute" horiz-adv-x="467" d="M180 23L7 496H120L235 148L346 496H460L190 -242H79L180 23ZM158 653L311 748V639L158 580V653Z" />
<glyph unicode="&#xfe;" glyph-name="thorn" horiz-adv-x="491" d="M337 505T380 471T447 379T470 248Q470 176 448 117T381 24T276 -10Q238 -10 210 0T158 32V-242H49V750H158V458Q207 505 276 505Q337 505 380 471ZM304 81T332 126T360 248Q360 324 332 369T256
414Q207 414 179 370T150 248Q150 169 178 125T256 81Q304 81 332 126Z" />
<glyph unicode="&#xff;" glyph-name="ydieresis" horiz-adv-x="467" d="M180 23L7 496H120L235 148L346 496H460L190 -242H79L180 23ZM109 677H197V591H109V677ZM271 677H359V591H271V677Z" />
<glyph unicode="&#x2013;" glyph-name="endash" horiz-adv-x="476" d="M0 357H476V265H0V357Z" />
<glyph unicode="&#x2014;" glyph-name="emdash" horiz-adv-x="643" d="M0 357H643V265H0V357Z" />
<glyph unicode="&#x2018;" glyph-name="quoteleft" horiz-adv-x="198" d="M155 700L114 585H159V460H45V574L104 700H155Z" />
<glyph unicode="&#x2019;" glyph-name="quoteright" horiz-adv-x="192" d="M43 460L84 575H39V700H153V586L94 460H43Z" />
<glyph unicode="&#x201a;" glyph-name="quotesinglbase" horiz-adv-x="192" d="M299 -115L340 0H295V125H409V11L350 -115H299Z" />
<glyph unicode="&#x201c;" glyph-name="quotedblleft" horiz-adv-x="361" d="M155 708L114 593H159V468H45V582L104 708H155ZM318 708L277 593H322V468H208V582L267 708H318Z" />
<glyph unicode="&#x201d;" glyph-name="quotedblright" horiz-adv-x="354" d="M43 460L84 575H39V700H153V586L94 460H43ZM206 460L247 575H202V700H316V586L257 460H206Z" />
<glyph unicode="&#x201e;" glyph-name="quotedblbase" horiz-adv-x="354" d="M299 -115L340 0H295V125H409V11L350 -115H299ZM206 -115L247 0H202V125H316V11L257 -115H206Z" />
<glyph unicode="&#x2022;" glyph-name="bullet" horiz-adv-x="281" d="M97 169T69 200T41 278Q41 324 69 355T140 387Q183 387 211 356T239 278Q239 232 211 201T140 169Q97 169 69 200Z" />
<glyph unicode="&#x2039;" glyph-name="guilsinglleft" horiz-adv-x="299" d="M10 284L140 490H269L138 284L269 78H140L10 284Z" />
<glyph unicode="&#x203a;" glyph-name="guilsinglright" horiz-adv-x="299" d="M160 284L30 490H159L289 284L159 78H30L160 284Z" />
</font>
</defs>
</svg>
