<?xml version="1.0" standalone="no"?>
<!DOCTYPE svg PUBLIC "-//W3C//DTD SVG 1.1//EN" "http://www.w3.org/Graphics/SVG/1.1/DTD/svg11.dtd">
<svg xmlns="http://www.w3.org/2000/svg">
<defs >
<font id="MontserratAlternates" horiz-adv-x="566" ><font-face
    font-family="Montserrat Alternates Thin"
    units-per-em="1000"
    panose-1="0 0 3 0 0 0 0 0 0 0"
    ascent="968"
    descent="-251"
    alphabetic="0" />
<glyph unicode=" " glyph-name="space" horiz-adv-x="297" />
<glyph unicode="!" glyph-name="exclam" horiz-adv-x="192" d="M86 682H106V188H86V682ZM107 45T114 38T122 19Q122 9 115 1T96 -7Q86 -7 78 1T70 19Q70 30 78 37T96 45Q107 45 114 38Z" />
<glyph unicode="&quot;" glyph-name="quotedbl" horiz-adv-x="236" d="M60 699H80V509H60V699ZM156 699H176V509H156V699Z" />
<glyph unicode="#" glyph-name="numbersign" horiz-adv-x="707" d="M626 228L627 208H476L450 0H430L456 208H216L190 0H170L196 208H47L46 228H198L228 468H79L78 488H230L256 699H276L250 488H490L516 699H536L510 488H658L659 468H508L478 228H626ZM218 228H458L488
468H248L218 228Z" />
<glyph unicode="$" glyph-name="dollar" horiz-adv-x="593" d="M99 492T126 459T192 409T300 370Q372 348 415 329T487 271T517 171Q517 96 459 49T300 -3V-119H280V-3Q214 -3 150 24T41 96L55 110Q95 67 156 42T280 17Q379 17 438 59T497 171Q497 226 470 259T402
311T293 351Q222 373 180 392T108 449T79 547Q79 614 133 655T280 702V804H300V703H302Q351 703 401 689T488 652L478 636Q444 658 397 670T302 683Q210 683 155 646T99 546Q99 492 126 459Z" />
<glyph unicode="%" glyph-name="percent" horiz-adv-x="924" d="M306 704T350 650T394 496Q394 396 350 342T225 288Q145 288 102 342T58 496Q58 596 101 650T225 704Q306 704 350 650ZM154 686T117 637T79 496Q79 404 116 355T225 306Q296 306 334 355T372 496Q372
588 334 637T225 686Q154 686 117 637ZM710 699H736L198 0H172L710 699ZM778 411T822 357T866 203Q866 103 822 49T697 -5Q617 -5 574 49T530 203Q530 303 573 357T697 411Q778 411 822 357ZM626 393T589 344T551 203Q551 111 588 62T697 13Q768 13 806 62T844
203Q844 295 806 344T697 393Q626 393 589 344Z" />
<glyph unicode="&amp;" glyph-name="ampersand" horiz-adv-x="626" d="M619 13L606 0Q558 49 475 130Q424 67 367 34T250 0Q198 0 155 24T86 90T60 183Q60 254 105 299T232 388Q192 439 172 481T151 562Q151 600 170 631T225 680T304 699Q367 699 405 664T443
571Q443 527 419 494T360 438T262 381Q297 338 345 288T472 160Q520 225 558 311L577 299Q535 208 487 145L619 13ZM171 495T249 397Q309 429 342 450T399 501T423 572Q423 620 391 649T304 679Q245 679 208 646T171 562Q171 495 249 397ZM306 20T359 52T461 145Q380
225 331 276T245 372Q165 329 123 288T80 183Q80 137 102 100T164 41T250 20Q306 20 359 52Z" />
<glyph unicode="&apos;" glyph-name="quotesingle" horiz-adv-x="140" d="M60 699H80V509H60V699Z" />
<glyph unicode="(" glyph-name="parenleft" horiz-adv-x="276" d="M181 660T152 549T123 309Q123 181 152 70T236 -124H216Q161 -42 132 69T103 309Q103 437 132 548T216 742H236Q181 660 152 549Z" />
<glyph unicode=")" glyph-name="parenright" horiz-adv-x="276" d="M60 742Q115 660 144 549T173 309Q173 181 144 70T60 -124H40Q95 -42 124 69T153 309Q153 437 124 548T40 742H60Z" />
<glyph unicode="*" glyph-name="asterisk" horiz-adv-x="298" d="M140 723H158V606L259 665L268 648L167 590L268 532L259 515L158 574V457H140V574L39 515L30 532L130 590L30 648L39 665L140 606V723Z" />
<glyph unicode="+" glyph-name="plus" horiz-adv-x="480" d="M440 330V310H250V120H230V310H40V330H230V520H250V330H440Z" />
<glyph unicode="," glyph-name="comma" horiz-adv-x="170" d="M98 45T105 38T113 19Q113 11 106 -7L63 -120H43L81 -6Q73 -4 67 3T61 19Q61 30 69 37T87 45Q98 45 105 38Z" />
<glyph unicode="-" glyph-name="hyphen" horiz-adv-x="357" d="M70 310H287V290H70V310Z" />
<glyph unicode="." glyph-name="period" horiz-adv-x="170" d="M96 45T103 38T111 19Q111 9 104 1T85 -7Q75 -7 67 1T59 19Q59 30 67 37T85 45Q96 45 103 38Z" />
<glyph unicode="/" glyph-name="slash" horiz-adv-x="294" d="M310 826H331L25 -130H4L310 826Z" />
<glyph unicode="0" glyph-name="zero" horiz-adv-x="723" d="M520 701T592 610T664 350Q664 180 592 89T387 -2Q254 -2 183 89T111 350Q111 519 182 610T387 701Q520 701 592 610ZM263 681T197 596T131 350Q131 190 197 104T387 18Q511 18 577 104T644 350Q644
510 578 595T387 681Q263 681 197 596Z" />
<glyph unicode="1" glyph-name="one" horiz-adv-x="348" d="M6 699H212V0H193V679H6V699Z" />
<glyph unicode="2" glyph-name="two" horiz-adv-x="555" d="M519 20V0H39L40 29L325 328Q380 386 412 441T444 538Q444 605 394 643T257 681Q203 681 150 659T55 596L41 610Q84 653 141 677T257 701Q353 701 408 658T464 538Q464 493 431 434T339 314L60 20H519Z" />
<glyph unicode="3" glyph-name="three" horiz-adv-x="570" d="M368 394T440 345T512 210Q512 147 480 99T389 25T250 -2Q191 -2 133 14T29 57L41 73Q83 48 139 33T251 18Q325 18 379 42T463 108T492 206Q492 288 428 331T248 374H170V392L448 679H60V699H475V681L199
394H247Q368 394 440 345Z" />
<glyph unicode="4" glyph-name="four" horiz-adv-x="570" d="M542 228V208H421V0H401V208H35V233L326 699H349L55 228H401V452H421V228H542Z" />
<glyph unicode="5" glyph-name="five" horiz-adv-x="606" d="M398 417T453 393T538 325T568 223Q568 155 538 104T453 26T323 -2Q267 -2 205 16T91 66L101 82Q150 53 210 36T323 18Q426 18 487 73T548 223Q548 275 521 314T443 375T325 397Q284 397 233 387T138
361V699H541V679H158V389Q199 402 244 409T325 417Q398 417 453 393Z" />
<glyph unicode="6" glyph-name="six" horiz-adv-x="646" d="M496 659T450 670T360 681Q239 681 172 588T104 328Q104 304 108 250Q125 338 189 388T352 439Q456 439 516 382T576 223Q576 119 514 59T348 -2Q223 -2 154 84T84 332Q84 443 117 526T212 655T358 701Q402
701 451 690T545 657L535 639Q496 659 450 670ZM284 419T232 391T153 316T125 217Q125 173 149 127T222 50T343 18Q405 18 453 43T529 115T556 225Q556 314 501 366T352 419Q284 419 232 391Z" />
<glyph unicode="7" glyph-name="seven" horiz-adv-x="555" d="M36 699H529V674L187 0H165L511 679H56V567H36V699Z" />
<glyph unicode="8" glyph-name="eight" horiz-adv-x="648" d="M423 701T479 657T535 535Q535 475 502 435T404 376Q482 358 525 312T568 195Q568 102 503 50T324 -2Q209 -2 144 50T79 195Q79 265 122 311T243 376Q179 395 146 435T112 535Q112 613 168 657T324
701Q423 701 479 657ZM235 681T184 642T132 533Q132 463 183 423T324 383Q413 383 464 423T515 533Q515 602 464 641T324 681Q235 681 184 642ZM220 363T160 319T99 197Q99 113 159 66T324 18Q428 18 488 65T548 196Q548 273 488 318T323 363Q220 363 160 319Z"
/>
<glyph unicode="9" glyph-name="nine" horiz-adv-x="641" d="M170 40T216 29T304 18Q424 18 491 111T558 372Q558 397 554 451Q537 362 474 312T313 261Q210 261 151 318T91 478Q91 582 152 641T317 701Q441 701 509 616T578 369Q578 258 545 174T451 44T306 -2Q263
-2 215 9T122 42L132 60Q170 40 216 29ZM260 681T212 656T138 585T111 476Q111 386 166 334T313 281Q380 281 431 309T509 384T537 484Q537 527 514 573T442 650T322 681Q260 681 212 656Z" />
<glyph unicode=":" glyph-name="colon" horiz-adv-x="170" d="M96 342T103 335T111 316Q111 306 104 298T85 290Q75 290 67 298T59 316Q59 327 67 334T85 342Q96 342 103 335ZM96 45T103 38T111 19Q111 9 104 1T85 -7Q75 -7 67 1T59 19Q59 30 67 37T85 45Q96 45 103 38Z" />
<glyph unicode=";" glyph-name="semicolon" horiz-adv-x="170" d="M96 342T103 335T111 316Q111 306 104 298T85 290Q75 290 67 298T59 316Q59 327 67 334T85 342Q96 342 103 335ZM98 45T105 38T113 19Q113 11 106 -7L63 -120H43L81 -6Q73 -4 67 3T61 19Q61 30
69 37T87 45Q98 45 105 38Z" />
<glyph unicode="&lt;" glyph-name="less" horiz-adv-x="480" d="M440 527V505L59 328L440 151V129L40 315V341L440 527Z" />
<glyph unicode="=" glyph-name="equal" horiz-adv-x="480" d="M40 430H440V410H40V430ZM40 230H440V210H40V230Z" />
<glyph unicode="&gt;" glyph-name="greater" horiz-adv-x="480" d="M40 129V151L421 328L40 505V527L440 341V315L40 129Z" />
<glyph unicode="?" glyph-name="question" horiz-adv-x="395" d="M29 604T76 641T198 679Q275 679 323 641T371 528Q371 487 359 458T328 409T279 363Q249 338 232 319T202 272T190 206H170Q170 247 182 277T213 327T263 373Q293 399 310 417T339 463T351 529Q351
593 309 626T197 659Q129 659 89 627T44 534L24 536Q29 604 76 641ZM189 45T196 38T204 19Q204 9 197 1T178 -7Q168 -7 160 1T152 19Q152 30 160 37T178 45Q189 45 196 38Z" />
<glyph unicode="@" glyph-name="at" horiz-adv-x="1006" d="M732 55T754 30T807 4Q866 4 901 73T936 259Q936 385 881 486T727 644T507 701Q382 701 283 645T127 488T70 262Q70 142 125 46T276 -104T494 -158Q536 -158 587 -146T673 -114L681 -132Q643 -152 590
-165T494 -178Q367 -178 266 -122T108 35T50 262Q50 393 109 498T272 662T507 721Q635 721 737 662T898 497T956 259Q956 176 938 114T885 18T805 -16Q766 -16 739 15T712 96V160Q684 89 622 48T479 6Q407 6 349 39T259 132T226 266Q226 340 258 400T349 493T479
527Q560 527 622 486T712 373V525H732V96Q732 55 754 30ZM412 507T359 476T276 390T246 266Q246 197 276 143T359 57T479 26Q546 26 599 57T682 142T712 266Q712 335 682 390T599 476T479 507Q412 507 359 476Z" />
<glyph unicode="A" glyph-name="A" horiz-adv-x="774" d="M110 553T183 628T387 703Q518 703 591 628T664 419V0H644V225H130V0H110V419Q110 553 183 628ZM644 544T576 613T387 683Q266 683 198 614T130 419V245H644V419Q644 544 576 613Z" />
<glyph unicode="B" glyph-name="B" horiz-adv-x="731" d="M510 699T566 654T622 526Q622 460 586 418T484 364Q567 354 613 308T659 187Q659 98 594 49T409 0H128V699H409Q510 699 566 654ZM501 372T551 412T602 526Q602 599 552 639T409 679H148V372H409Q501
372 551 412ZM519 20T579 64T640 188Q640 267 580 310T409 353H148V20H409Q519 20 579 64Z" />
<glyph unicode="C" glyph-name="C" horiz-adv-x="705" d="M591 640T533 662T409 684Q317 684 239 639T115 517T69 350Q69 260 115 183T239 61T409 16Q473 16 531 38T636 102L650 89Q601 45 539 21T409 -3Q312 -3 230 45T99 174T50 350Q50 445 98 526T229 655T409
703Q477 703 538 679T649 612L636 599Q591 640 533 662Z" />
<glyph unicode="D" glyph-name="D" horiz-adv-x="811" d="M500 699T582 652T712 525T761 349Q761 255 713 175T582 47T403 0H128V699H403Q500 699 582 652ZM494 20T572 64T695 184T741 349Q741 438 696 514T572 634T403 679H148V20H403Q494 20 572 64Z" />
<glyph unicode="E" glyph-name="E" horiz-adv-x="528" d="M239 361T185 339T101 277T70 188Q70 139 100 100T183 39T303 17Q348 17 401 30T493 64L503 46Q467 25 410 11T303 -3Q231 -3 174 22T83 90T50 188Q50 234 74 274T142 339T239 371Q170 381 125 426T80
530Q80 579 109 618T189 680T305 703Q347 703 394 693T471 668L461 650Q434 664 390 673T305 683Q246 683 200 663T127 608T100 530Q100 487 126 453T200 400T307 381H416V361H307Q239 361 185 339Z" />
<glyph unicode="F" glyph-name="F" horiz-adv-x="490" d="M223 679T176 631T129 502V342H423V322H129V0H110V502Q110 592 162 645T301 699Q345 699 391 688T475 659L466 639Q431 657 386 668T301 679Q223 679 176 631Z" />
<glyph unicode="G" glyph-name="G" horiz-adv-x="760" d="M650 343V0H630V81Q583 41 527 19T409 -3Q312 -3 230 45T99 174T50 351Q50 446 98 527T229 655T409 703Q477 703 538 679T649 612L636 599Q591 640 533 662T409 684Q317 684 239 639T115 518T69 351Q69
261 115 184T239 62T409 16Q471 16 528 39T630 106V343H650Z" />
<glyph unicode="H" glyph-name="H" horiz-adv-x="799" d="M128 699H148V363H651V699H671V0H651V343H148V0H128V699Z" />
<glyph unicode="I" glyph-name="I" horiz-adv-x="448" d="M388 679H234V20H388V0H60V20H214V679H60V699H388V679Z" />
<glyph unicode="J" glyph-name="J" horiz-adv-x="458" d="M348 2T304 -49T177 -100Q126 -100 81 -75T3 -2L17 12Q48 -33 89 -56T177 -80Q251 -80 290 -35T329 97V679H67V699H348V97Q348 2 304 -49Z" />
<glyph unicode="K" glyph-name="K" horiz-adv-x="670" d="M640 0H613L313 370L148 191V0H128V699H148V220L590 699H618L327 385L640 0Z" />
<glyph unicode="L" glyph-name="L" horiz-adv-x="491" d="M128 699H148V20H461V0H128V699Z" />
<glyph unicode="M" glyph-name="M" horiz-adv-x="1227" d="M953 703T1005 670T1087 580T1117 449V0H1097V449Q1097 516 1070 569T995 652T887 683Q815 683 757 650T665 558T632 429V0H612V449Q612 516 585 569T510 652T402 683Q334 683 278 653T188 571T148 453V0H128V703H148V533Q178
610 246 656T402 703Q486 703 547 651T626 512Q651 597 721 650T887 703Q953 703 1005 670Z" />
<glyph unicode="N" glyph-name="N" horiz-adv-x="792" d="M504 703T561 670T650 580T682 449V0H662V449Q662 516 633 569T551 652T432 683Q355 683 293 653T192 570T148 451V0H128V699H148V528Q180 607 256 655T432 703Q504 703 561 670Z" />
<glyph unicode="O" glyph-name="O" horiz-adv-x="818" d="M506 703T588 656T719 527T768 351Q768 256 720 175T589 45T409 -3Q312 -3 230 45T99 174T50 351Q50 446 98 527T229 655T409 703Q506 703 588 656ZM318 683T240 638T116 517T70 351Q70 261 116 184T240
62T409 17Q500 17 578 62T702 184T748 351Q748 440 702 516T578 638T409 683Q318 683 240 638Z" />
<glyph unicode="P" glyph-name="P" horiz-adv-x="662" d="M492 699T562 640T632 472Q632 362 562 301T365 240H148V0H128V699H365Q492 699 562 640ZM483 260T547 315T612 472Q612 571 548 625T365 679H148V260H365Q483 260 547 315Z" />
<glyph unicode="Q" glyph-name="Q" horiz-adv-x="818" d="M768 257T721 177T594 48T419 -3V-135H399V-3Q304 -1 224 47T97 176T50 351Q50 446 98 527T229 655T409 703Q506 703 588 656T719 527T768 351Q768 257 721 177ZM508 19T583 65T703 187T748 351Q748 440
702 516T578 638T409 683Q318 683 240 638T116 517T70 351Q70 263 114 187T234 65T399 17V224H419V17Q508 19 583 65Z" />
<glyph unicode="R" glyph-name="R" horiz-adv-x="722" d="M632 382T585 325T451 248L632 0H607L429 244Q389 240 365 240H148V0H128V699H365Q492 699 562 640T632 472Q632 382 585 325ZM365 260Q483 260 547 315T612 472Q612 571 548 625T365 679H148V260H365Z" />
<glyph unicode="S" glyph-name="S" horiz-adv-x="593" d="M444 658T397 670T302 683Q210 683 155 646T99 546Q99 492 126 459T192 409T300 370Q372 348 415 329T487 271T517 171Q517 119 488 80T406 19T280 -3Q214 -3 150 24T41 96L55 110Q95 67 156 42T280 17Q379
17 438 59T497 171Q497 226 470 259T402 311T293 351Q222 373 180 392T108 449T79 547Q79 618 140 660T302 703Q351 703 401 689T488 652L478 636Q444 658 397 670Z" />
<glyph unicode="T" glyph-name="T" horiz-adv-x="602" d="M552 624Q499 651 437 666T311 683V0H291V683Q228 681 166 666T50 624L42 641Q99 671 165 687T300 703Q368 703 435 687T560 640L552 624Z" />
<glyph unicode="U" glyph-name="U" horiz-adv-x="792" d="M664 699V0H644V174Q612 95 536 47T360 -3Q288 -3 231 30T142 121T110 254V699H130V253Q130 186 159 132T241 48T360 17Q437 19 499 49T600 132T644 251V699H664Z" />
<glyph unicode="V" glyph-name="V" horiz-adv-x="626" d="M10 699H33L313 23L592 699H616L324 0H302L10 699Z" />
<glyph unicode="W" glyph-name="W" horiz-adv-x="1202" d="M1092 161T1062 108T975 26T845 -3Q754 -3 688 39T602 152Q581 81 515 39T357 -3Q283 -3 227 26T141 108T110 231V699H130V231Q130 133 192 75T357 17Q428 17 481 43T563 118T592 231V699H612V231Q612
167 641 119T722 44T845 17Q948 17 1010 75T1072 231V699H1092V231Q1092 161 1062 108Z" />
<glyph unicode="X" glyph-name="X" horiz-adv-x="623" d="M52 699H76L306 379L537 699H561L318 362L580 0H556L306 346L57 0H33L294 362L52 699Z" />
<glyph unicode="Y" glyph-name="Y" horiz-adv-x="734" d="M624 699V147Q624 76 592 20T502 -68T373 -100Q295 -100 221 -68T112 14L127 28Q162 -19 231 -49T373 -80Q439 -80 492 -51T575 30T605 147V329Q575 253 508 207T353 160Q283 160 228 193T142 283T110
414V699H130V414Q130 347 159 294T238 211T353 180Q421 181 476 211T566 293T605 410V699H624Z" />
<glyph unicode="Z" glyph-name="Z" horiz-adv-x="650" d="M72 20H598V0H52V25L306 342H116V362H321L575 679H66V699H595V674L343 359H535V339H327L72 20Z" />
<glyph unicode="[" glyph-name="bracketleft" horiz-adv-x="284" d="M108 742H257V722H128V-104H257V-124H108V742Z" />
<glyph unicode="\" glyph-name="backslash" horiz-adv-x="294" d="M-16 826L290 -130H269L-37 826H-16Z" />
<glyph unicode="]" glyph-name="bracketright" horiz-adv-x="284" d="M176 742V-124H27V-104H156V722H27V742H176Z" />
<glyph unicode="^" glyph-name="asciicircum" horiz-adv-x="478" d="M438 128H416L239 509L62 128H40L226 528H252L438 128Z" />
<glyph unicode="_" glyph-name="underscore" horiz-adv-x="537" d="M0 -184H537V-204H0V-184Z" />
<glyph unicode="`" glyph-name="grave" horiz-adv-x="350" d="M114 739L250 629L224 624L95 729L114 739Z" />
<glyph unicode="a" glyph-name="a" horiz-adv-x="668" d="M558 517V0H538V152Q509 81 448 40T305 -2Q233 -2 175 31T85 124T52 258Q52 332 84 392T175 485T305 519Q386 519 447 478T538 365V517H558ZM372 18T425 49T508 134T538 258Q538 327 508 382T425 468T305
499Q238 499 185 468T102 382T72 258Q72 189 102 135T185 49T305 18Q372 18 425 49Z" />
<glyph unicode="b" glyph-name="b" horiz-adv-x="669" d="M438 517T495 484T584 391T617 258Q617 184 585 126T495 34T366 0Q286 0 225 41T135 152V0H115V742H135V365Q163 435 224 476T366 517Q438 517 495 484ZM432 20T484 50T567 135T597 258Q597 326 567 380T485
466T366 497Q300 497 248 466T165 381T135 258Q135 190 165 136T247 51T366 20Q432 20 484 50Z" />
<glyph unicode="c" glyph-name="c" horiz-adv-x="557" d="M397 497T303 497Q237 497 184 467T101 382T71 259Q71 190 101 136T184 51T303 20Q356 20 400 39T477 95L490 81Q456 42 408 21T303 0Q232 0 175 33T85 126T52 259Q52 333 84 392T174 484T303 517Q354
517 399 499T479 448L466 434Q397 497 303 497Z" />
<glyph unicode="d" glyph-name="d" horiz-adv-x="673" d="M558 742V0H538V152Q509 81 448 40T305 -2Q233 -2 175 31T85 124T52 258Q52 332 84 392T175 485T305 519Q386 519 447 478T538 365V742H558ZM372 18T425 49T508 134T538 258Q538 327 508 382T425 468T305
499Q238 499 185 468T102 382T72 258Q72 189 102 135T185 49T305 18Q372 18 425 49Z" />
<glyph unicode="e" glyph-name="e" horiz-adv-x="569" d="M420 20T492 115L509 104Q428 0 304 0Q232 0 175 33T85 126T52 259Q52 333 84 391T174 483T303 517Q383 517 443 475T526 360L83 180Q105 107 164 64T305 20Q420 20 492 115ZM236 497T184 467T102 382T72
259Q72 228 78 199L500 371Q478 430 425 463T302 497Q236 497 184 467Z" />
<glyph unicode="f" glyph-name="f" horiz-adv-x="271" d="M185 732T149 692T113 590V507H281V487H113V0H93V590Q93 634 112 671T163 730T234 752Q280 752 322 728L311 711Q275 732 239 732Q185 732 149 692Z" />
<glyph unicode="g" glyph-name="g" horiz-adv-x="630" d="M536 517V58Q536 -18 506 -75T420 -163T290 -194Q229 -194 179 -172T82 -104L96 -90Q138 -132 185 -153T290 -174Q358 -174 409 -146T488 -65T516 58V166Q489 98 430 59T293 19Q224 19 169 51T83 139T52
267Q52 339 83 396T169 485T293 517Q370 517 429 477T516 369V517H536ZM357 38T407 67T487 149T516 267Q516 333 487 385T408 468T293 498Q229 498 179 468T100 386T71 267Q71 202 99 150T178 68T293 38Q357 38 407 67Z" />
<glyph unicode="h" glyph-name="h" horiz-adv-x="650" d="M450 517T503 463T557 313V0H537V313Q537 400 489 448T354 497Q251 495 193 431T135 253V0H115V742H135V368Q160 438 216 477T354 517Q450 517 503 463Z" />
<glyph unicode="i" glyph-name="i" horiz-adv-x="240" d="M110 517H130V0H110V517ZM130 692T138 685T146 666Q146 656 138 648T120 640Q109 640 102 648T94 666Q94 677 101 684T120 692Q130 692 138 685Z" />
<glyph unicode="j" glyph-name="j" horiz-adv-x="219" d="M-19 -172T9 -173Q56 -174 80 -138T105 -31V517H125V-31Q125 -111 96 -152T11 -193Q-17 -193 -54 -179L-46 -161Q-19 -172 9 -173ZM125 692T133 685T141 666Q141 656 133 648T115 640Q104 640 97 648T89
666Q89 677 96 684T115 692Q125 692 133 685Z" />
<glyph unicode="k" glyph-name="k" horiz-adv-x="538" d="M498 0L281 302L135 154V0H115V742H135V185L464 517H492L295 317L522 0H498Z" />
<glyph unicode="l" glyph-name="l" horiz-adv-x="259" d="M121 20T175 20Q205 20 234 51L247 37Q212 0 175 0Q139 0 121 22T102 90V742H121V90Q121 20 175 20Z" />
<glyph unicode="m" glyph-name="m" horiz-adv-x="1046" d="M849 517T901 463T953 313V0H933V313Q933 400 886 448T755 497Q654 495 598 431T542 253V0H522V313Q522 400 475 448T343 497Q243 495 187 431T130 253V0H110V517H130V369Q154 439 209 477T344 517Q425
517 476 476T539 359Q562 434 617 475T755 517Q849 517 901 463Z" />
<glyph unicode="n" glyph-name="n" horiz-adv-x="644" d="M444 517T497 463T551 313V0H531V313Q531 400 483 448T348 497Q252 495 195 438T130 281V0H110V517H130V371Q155 440 211 478T348 517Q444 517 497 463Z" />
<glyph unicode="o" glyph-name="o" horiz-adv-x="606" d="M374 517T431 484T521 392T554 259Q554 185 522 126T432 34T303 0Q232 0 175 33T85 126T52 259Q52 333 84 392T174 484T303 517Q374 517 431 484ZM237 497T184 467T102 382T72 259Q72 190 101 136T184
51T303 20Q369 20 422 50T504 135T534 259Q534 328 505 382T422 466T303 497Q237 497 184 467Z" />
<glyph unicode="p" glyph-name="p" horiz-adv-x="669" d="M438 517T495 484T584 391T617 258Q617 184 585 126T495 34T366 0Q286 0 225 41T135 152V-194H115V517H135V365Q163 435 224 476T366 517Q438 517 495 484ZM432 20T484 50T567 135T597 258Q597 326 567
380T485 466T366 497Q300 497 248 466T165 381T135 258Q135 190 165 136T247 51T366 20Q432 20 484 50Z" />
<glyph unicode="q" glyph-name="q" horiz-adv-x="673" d="M558 517V-194H538V152Q509 81 448 40T305 -2Q233 -2 175 31T85 124T52 258Q52 332 84 392T175 485T305 519Q386 519 447 478T538 365V517H558ZM372 18T425 49T508 134T538 258Q538 327 508 382T425 468T305
499Q238 499 185 468T102 382T72 258Q72 189 102 135T185 49T305 18Q372 18 425 49Z" />
<glyph unicode="r" glyph-name="r" horiz-adv-x="338" d="M153 442T204 479T328 517V497Q240 495 189 439T130 283V0H110V517H130V376Q153 442 204 479Z" />
<glyph unicode="s" glyph-name="s" horiz-adv-x="427" d="M297 497T223 497Q159 497 119 471T78 395Q78 360 97 338T145 304T225 276Q279 260 311 246T366 204T389 134Q389 68 339 34T215 0Q161 0 113 19T30 72L43 87Q76 55 120 38T215 20Q281 20 325 49T369 133Q369
168 349 190T300 226T220 254Q167 271 135 285T80 326T58 393Q58 454 104 485T222 517Q296 517 360 480L350 463Q297 497 223 497Z" />
<glyph unicode="t" glyph-name="t" horiz-adv-x="331" d="M307 37Q259 0 205 0Q151 0 123 40T95 162V630H115V507H297V487H115V162Q115 92 138 56T205 20Q254 20 295 53L307 37Z" />
<glyph unicode="u" glyph-name="u" horiz-adv-x="637" d="M527 517V0H507V151Q483 79 428 40T292 0Q198 0 145 54T92 204V517H112V204Q112 117 159 69T292 20Q393 22 450 86T507 264V517H527Z" />
<glyph unicode="v" glyph-name="v" horiz-adv-x="456" d="M10 517H33L233 23L432 517H456L244 0H222L10 517Z" />
<glyph unicode="w" glyph-name="w" horiz-adv-x="957" d="M867 106T814 53T671 0Q600 0 548 34T479 127Q463 69 410 35T286 0Q197 0 144 53T90 194V517H110V194Q110 115 158 68T287 20Q370 20 419 67T469 194V517H489V194Q489 115 538 68T670 20Q750 20 798 67T847
194V517H867V194Q867 106 814 53Z" />
<glyph unicode="x" glyph-name="x" horiz-adv-x="489" d="M46 517H70L243 284L416 517H440L255 268L454 0H429L242 251L56 0H31L230 268L46 517Z" />
<glyph unicode="y" glyph-name="y" horiz-adv-x="628" d="M534 517V59Q534 -62 472 -128T298 -193Q239 -190 186 -165T96 -97L109 -83Q144 -123 193 -146T298 -173Q401 -174 457 -113T514 59V193Q489 123 433 84T295 44Q199 44 146 98T92 248V517H112V248Q112
161 160 113T295 64Q398 66 456 130T514 308V517H534Z" />
<glyph unicode="z" glyph-name="z" horiz-adv-x="510" d="M82 20L459 19V-1L62 0V25L240 251H102V271H255L432 496L71 497V517L452 516V491L278 269H424V249H262L82 20Z" />
<glyph unicode="{" glyph-name="braceleft" horiz-adv-x="317" d="M168 354T159 335T128 308Q149 301 158 282T168 226V-24Q168 -66 194 -86T276 -106V-126H271Q208 -126 178 -101T148 -24V226Q148 298 93 298H74V318H93Q148 318 148 390V640Q148 692 178 717T271
742H276V722Q221 722 195 702T168 640V390Q168 354 159 335Z" />
<glyph unicode="|" glyph-name="bar" horiz-adv-x="220" d="M100 824H120V-129H100V824Z" />
<glyph unicode="}" glyph-name="braceright" horiz-adv-x="317" d="M243 318V298H224Q169 298 169 226V-24Q169 -76 139 -101T46 -126H41V-106Q96 -106 122 -86T149 -24V226Q149 262 158 281T189 308Q168 315 159 334T149 390V640Q149 682 123 702T41 722V742H46Q109
742 139 717T169 640V390Q169 318 224 318H243Z" />
<glyph unicode="~" glyph-name="asciitilde" horiz-adv-x="480" d="M398 312T380 291T328 270Q304 270 282 280T231 308Q202 325 186 332T153 340Q129 340 116 325T103 280H83Q83 318 101 339T153 360Q173 360 194 351T245 324Q275 306 293 298T328 290Q352 290
365 305T378 350H398Q398 312 380 291Z" />
<glyph unicode="&#xa0;" glyph-name="uni00A0" horiz-adv-x="297" />
<glyph unicode="&#xa1;" glyph-name="exclamdown" horiz-adv-x="192" d="M86 471T78 479T70 497Q70 508 78 515T96 523Q107 523 114 516T122 497Q122 487 115 479T96 471Q86 471 78 479ZM106 -166H86V328H106V-166Z" />
<glyph unicode="&#xa2;" glyph-name="cent" horiz-adv-x="600" d="M458 44T413 23T314 0V-139H294V0Q225 2 170 36T84 128T52 259Q52 331 83 389T170 481T294 517V654H314V517Q362 515 404 497T479 448L466 434Q397 497 303 497Q237 497 184 467T101 382T71 259Q71
190 101 136T184 51T303 20Q356 20 400 39T477 95L490 81Q458 44 413 23Z" />
<glyph unicode="&#xa3;" glyph-name="sterling" horiz-adv-x="532" d="M166 20H482V0H52V20H146V330H52V350H146V502Q146 597 190 648T318 699Q369 699 414 674T492 601L478 587Q447 632 406 655T318 679Q244 679 205 634T166 502V350H357V330H166V20Z" />
<glyph unicode="&#xa4;" glyph-name="currency" horiz-adv-x="726" d="M646 263T625 214T566 129L674 20L660 6L551 115Q513 82 465 64T363 46Q310 46 263 64T176 116L66 6L52 20L161 130Q124 167 104 215T83 316Q83 370 103 418T161 505L52 615L66 629L176 519Q215
552 262 570T363 589Q416 589 464 571T551 520L660 629L674 615L566 506Q604 468 625 419T646 316Q646 263 625 214ZM103 249T138 192T233 100T363 66Q434 66 494 100T590 191T626 316Q626 384 591 442T495 535T363 569Q293 569 233 535T138 443T103 316Q103 249
138 192Z" />
<glyph unicode="&#xa5;" glyph-name="yen" horiz-adv-x="606" d="M596 699L321 278H535V258H315V168H535V148H315V0H295V148H75V168H295V258H75V278H289L10 699H34L305 289L572 699H596Z" />
<glyph unicode="&#xa6;" glyph-name="brokenbar" horiz-adv-x="220" d="M100 824H120V471H100V824ZM100 224H120V-129H100V224Z" />
<glyph unicode="&#xa7;" glyph-name="section" horiz-adv-x="431" d="M304 674T226 674Q159 674 120 648T80 572Q80 537 100 515T150 480T230 452Q284 436 316 422T370 382T393 314Q393 276 375 247T328 202T271 182Q391 143 391 53Q391 -8 342 -44T216 -80Q159
-80 111 -61T30 -7L44 7Q77 -25 121 -42T214 -60Q281 -60 326 -30T372 54Q372 88 352 110T303 145T223 173Q169 190 137 204T82 245T59 314Q59 368 98 399T206 436Q129 460 95 492T61 571Q61 628 106 661T226 694Q305 694 365 655L353 640Q304 674 226 674ZM159
417T119 391T78 321Q78 289 101 261T161 215T240 197Q296 197 335 229T374 310Q374 358 334 387T225 417Q159 417 119 391Z" />
<glyph unicode="&#xa8;" glyph-name="dieresis" horiz-adv-x="290" d="M87 692T95 685T103 666Q103 656 95 648T77 640Q66 640 59 648T51 666Q51 677 58 684T77 692Q87 692 95 685ZM237 692T245 685T253 666Q253 656 245 648T227 640Q216 640 209 648T201 666Q201
677 208 684T227 692Q237 692 245 685Z" />
<glyph unicode="&#xa9;" glyph-name="copyright" horiz-adv-x="777" d="M482 689T559 644T682 520T727 350Q727 259 682 181T559 56T387 9Q294 9 217 55T95 179T50 348Q50 439 95 517T217 642T389 689Q482 689 559 644ZM300 669T227 626T112 509T70 348Q70 261
112 188T226 72T387 29Q476 29 549 72T664 189T707 350Q707 437 665 510T550 626T389 669Q300 669 227 626ZM459 511T393 511Q347 511 309 489T248 430T225 349Q225 305 247 268T308 208T393 186Q425 186 454 197T508 229L521 216Q495 192 462 179T392 166Q341
166 298 190T230 257T205 349Q205 398 230 440T299 506T393 531Q428 531 461 518T521 482L508 468Q459 511 393 511Z" />
<glyph unicode="&#xaa;" glyph-name="ordfeminine" horiz-adv-x="372" d="M283 458V524Q243 458 153 458Q107 458 79 482T51 545Q51 582 82 603T168 624H282V657Q281 697 257 719T185 741Q132 741 76 701L67 717Q128 760 188 760Q242 760 272 733T302 658L303
458H283ZM202 475T233 493T283 553L282 608H170Q123 608 97 592T71 546Q71 514 94 495T157 475Q202 475 233 493Z" />
<glyph unicode="&#xab;" glyph-name="guillemotleft" horiz-adv-x="381" d="M167 403H191L83 247L191 94H167L58 247L167 403ZM280 403H304L196 247L304 94H280L171 247L280 403Z" />
<glyph unicode="&#xac;" glyph-name="logicalnot" horiz-adv-x="534" d="M440 360V160H420V340H40V360H440Z" />
<glyph unicode="&#xad;" glyph-name="uni00AD" horiz-adv-x="357" d="M70 310H287V290H70V310Z" />
<glyph unicode="&#xae;" glyph-name="registered" horiz-adv-x="777" d="M482 689T559 644T682 520T727 350Q727 259 682 181T559 56T387 9Q294 9 217 55T95 179T50 348Q50 439 95 517T217 642T389 689Q482 689 559 644ZM476 29T549 72T664 189T707 350Q707 437
665 510T550 626T389 669Q300 669 227 626T112 509T70 348Q70 261 112 188T226 72T387 29Q476 29 549 72ZM537 373T513 342T444 300L539 168H514L423 296Q403 294 392 294H281V168H261V543H392Q462 543 499 512T537 421Q537 373 513 342ZM392 314Q451 314 484 342T517
421Q517 471 485 497T392 523H281V314H392Z" />
<glyph unicode="&#xaf;" glyph-name="overscore" horiz-adv-x="350" d="M47 677H304V657H47V677Z" />
<glyph unicode="&#xb0;" glyph-name="degree" horiz-adv-x="300" d="M218 796T244 781T285 741T301 687Q301 643 268 611T188 579Q143 579 110 611T76 687Q76 715 91 740T133 781T188 796Q218 796 244 781ZM151 776T124 750T96 687Q96 651 123 625T188 599Q226
599 253 625T281 687Q281 723 254 749T188 776Q151 776 124 750Z" />
<glyph unicode="&#xb1;" glyph-name="plusminus" horiz-adv-x="480" d="M440 379V359H250V169H230V359H40V379H230V569H250V379H440ZM40 75H440V55H40V75Z" />
<glyph unicode="&#xb2;" glyph-name="uni00B2" horiz-adv-x="323" d="M247 624T247 671Q247 709 221 730T149 752Q118 752 87 738T31 700L19 715Q45 741 79 756T149 771Q204 771 236 745T268 672Q268 644 249 610T195 541L44 379H298V360H20V381L181 553Q247 624
247 671Z" />
<glyph unicode="&#xb3;" glyph-name="uni00B3" horiz-adv-x="325" d="M207 591T244 562T282 480Q282 423 244 389T140 355Q108 355 76 365T19 392L30 409Q52 392 81 383T140 373Q196 373 228 402T261 480Q261 525 229 549T139 574H94V589L236 748H36V766H262V751L120
591H145Q207 591 244 562Z" />
<glyph unicode="&#xb4;" glyph-name="acute" horiz-adv-x="350" d="M237 739L256 729L127 624L101 629L237 739Z" />
<glyph unicode="&#xb5;" glyph-name="uni00B5" horiz-adv-x="660" d="M550 517V0H530V151Q506 79 451 40T315 0Q250 0 205 26T136 100V-194H116V179Q115 187 115 204V517H136V180Q143 104 189 62T315 20Q416 22 473 86T530 264V517H550Z" />
<glyph unicode="&#xb6;" glyph-name="paragraph" horiz-adv-x="557" d="M179 417T169 417Q109 417 73 442T22 503T7 576Q7 646 55 694T203 742H429V-112H409V722H227V-112H207V419Q179 417 169 417Z" />
<glyph unicode="&#xb7;" glyph-name="middot" horiz-adv-x="170" d="M95 292T103 285T111 266Q111 256 103 248T85 240Q74 240 67 248T59 266Q59 277 66 284T85 292Q95 292 103 285Z" />
<glyph unicode="&#xb8;" glyph-name="cedilla" horiz-adv-x="254" d="M158 0L142 -56Q180 -57 201 -78T223 -130Q223 -163 200 -188T134 -213Q115 -213 95 -207T61 -191L69 -171Q81 -180 99 -186T134 -192Q166 -192 184 -174T202 -130Q202 -108 186 -92T144 -75H115L138
5L158 0Z" />
<glyph unicode="&#xb9;" glyph-name="uni00B9" horiz-adv-x="206" d="M10 766H120V360H99V747H10V766Z" />
<glyph unicode="&#xba;" glyph-name="ordmasculine" horiz-adv-x="396" d="M264 760T307 718T351 609Q351 543 308 501T198 458Q131 458 88 500T45 609Q45 675 88 717T198 760Q264 760 307 718ZM140 741T103 704T65 609Q65 550 102 513T198 476Q256 476 293 513T330
609Q330 667 293 704T198 741Q140 741 103 704Z" />
<glyph unicode="&#xbb;" glyph-name="guillemotright" horiz-adv-x="381" d="M101 94H77L185 250L77 403H101L210 250L101 94ZM214 94H190L298 250L190 403H214L323 250L214 94Z" />
<glyph unicode="&#xbc;" glyph-name="onequarter" horiz-adv-x="639" d="M10 699H120V293H99V680H10V699ZM524 699H550L12 0H-14L524 699ZM492 406H514L355 135H536V261H557V135H623V117H557V0H536V117H334V138L492 406Z" />
<glyph unicode="&#xbd;" glyph-name="onehalf" horiz-adv-x="649" d="M265 699H375V293H354V680H265V699ZM523 699H549L11 0H-15L523 699ZM572 264T572 311Q572 349 546 370T474 392Q443 392 412 378T356 340L344 355Q370 381 404 396T474 411Q529 411 561 385T593
312Q593 284 574 250T520 181L369 19H623V0H345V21L506 193Q572 264 572 311Z" />
<glyph unicode="&#xbe;" glyph-name="threequarters" horiz-adv-x="728" d="M207 524T244 495T282 413Q282 356 244 322T140 288Q108 288 76 298T19 325L30 342Q52 325 81 316T140 306Q196 306 228 335T261 413Q261 458 229 482T139 507H94V522L236 681H36V699H262V684L120
524H145Q207 524 244 495ZM613 699H639L101 0H75L613 699ZM581 406H603L444 135H625V261H646V135H712V117H646V0H625V117H423V138L581 406Z" />
<glyph unicode="&#xbf;" glyph-name="questiondown" horiz-adv-x="395" d="M207 471T199 479T191 497Q191 508 199 515T217 523Q228 523 235 516T243 497Q243 487 236 479T217 471Q207 471 199 479ZM366 -88T319 -125T197 -163Q120 -163 72 -125T24 -12Q24 29
36 58T67 107T116 153Q146 178 163 197T193 244T205 310H225Q225 269 213 239T182 189T132 143Q102 117 85 99T56 53T44 -13Q44 -77 86 -110T198 -143Q266 -143 306 -111T351 -18L371 -20Q366 -88 319 -125Z" />
<glyph unicode="&#xc0;" glyph-name="Agrave" horiz-adv-x="774" d="M110 553T183 628T387 703Q518 703 591 628T664 419V0H644V225H130V0H110V419Q110 553 183 628ZM644 544T576 613T387 683Q266 683 198 614T130 419V245H644V419Q644 544 576 613ZM297 891L433
781L407 776L278 881L297 891Z" />
<glyph unicode="&#xc1;" glyph-name="Aacute" horiz-adv-x="774" d="M110 553T183 628T387 703Q518 703 591 628T664 419V0H644V225H130V0H110V419Q110 553 183 628ZM644 544T576 613T387 683Q266 683 198 614T130 419V245H644V419Q644 544 576 613ZM495 891L514
881L385 776L359 781L495 891Z" />
<glyph unicode="&#xc2;" glyph-name="Acircumflex" horiz-adv-x="774" d="M110 553T183 628T387 703Q518 703 591 628T664 419V0H644V225H130V0H110V419Q110 553 183 628ZM644 544T576 613T387 683Q266 683 198 614T130 419V245H644V419Q644 544 576 613ZM501
776H475L387 868L299 776H273L371 886H403L501 776Z" />
<glyph unicode="&#xc3;" glyph-name="Atilde" horiz-adv-x="774" d="M110 553T183 628T387 703Q518 703 591 628T664 419V0H644V225H130V0H110V419Q110 553 183 628ZM644 544T576 613T387 683Q266 683 198 614T130 419V245H644V419Q644 544 576 613ZM519 821T500
799T448 777Q429 777 415 785T380 811Q364 826 351 834T323 842Q299 842 286 826T273 781H254Q254 818 273 840T325 862Q344 862 358 854T393 828Q409 813 422 805T450 797Q474 797 487 813T500 858H519Q519 821 500 799Z" />
<glyph unicode="&#xc4;" glyph-name="Adieresis" horiz-adv-x="774" d="M110 553T183 628T387 703Q518 703 591 628T664 419V0H644V225H130V0H110V419Q110 553 183 628ZM644 544T576 613T387 683Q266 683 198 614T130 419V245H644V419Q644 544 576 613ZM321 828T329
821T337 802Q337 792 329 784T311 776Q300 776 293 784T285 802Q285 813 292 820T311 828Q321 828 329 821ZM473 828T481 821T489 802Q489 792 481 784T463 776Q452 776 445 784T437 802Q437 813 444 820T463 828Q473 828 481 821Z" />
<glyph unicode="&#xc5;" glyph-name="Aring" horiz-adv-x="774" d="M110 553T183 628T387 703Q518 703 591 628T664 419V0H644V225H130V0H110V419Q110 553 183 628ZM644 544T576 613T387 683Q266 683 198 614T130 419V245H644V419Q644 544 576 613ZM423 936T449
910T476 849Q476 814 450 789T386 763Q350 763 324 788T297 849Q297 884 323 910T386 936Q423 936 449 910ZM357 918T336 898T314 849Q314 821 335 801T386 781Q415 781 437 801T459 849Q459 877 437 897T386 918Q357 918 336 898Z" />
<glyph unicode="&#xc6;" glyph-name="AE" horiz-adv-x="987" d="M491 20H922V0H471V223H168L34 0H10L431 699H908V679H491V370H862V350H491V20ZM180 243H471V679H442L180 243Z" />
<glyph unicode="&#xc7;" glyph-name="Ccedilla" horiz-adv-x="705" d="M436 -57T457 -78T479 -130Q479 -163 456 -188T390 -213Q371 -213 351 -207T317 -191L325 -171Q337 -180 355 -186T390 -192Q423 -192 440 -174T458 -130Q458 -108 442 -92T400 -75H371L392
-3Q299 1 221 50T96 178T50 350Q50 445 98 526T229 655T409 703Q477 703 538 679T649 612L636 599Q591 640 533 662T409 684Q317 684 239 639T115 517T69 350Q69 260 115 183T239 61T409 16Q473 16 531 38T636 102L650 89Q602 46 541 22T413 -3L398 -56Q436 -57
457 -78Z" />
<glyph unicode="&#xc8;" glyph-name="Egrave" horiz-adv-x="528" d="M239 361T185 339T101 277T70 188Q70 139 100 100T183 39T303 17Q348 17 401 30T493 64L503 46Q467 25 410 11T303 -3Q231 -3 174 22T83 90T50 188Q50 234 74 274T142 339T239 371Q170 381 125
426T80 530Q80 579 109 618T189 680T305 703Q347 703 394 693T471 668L461 650Q434 664 390 673T305 683Q246 683 200 663T127 608T100 530Q100 487 126 453T200 400T307 381H416V361H307Q239 361 185 339ZM215 891L351 781L325 776L196 881L215 891Z" />
<glyph unicode="&#xc9;" glyph-name="Eacute" horiz-adv-x="528" d="M239 361T185 339T101 277T70 188Q70 139 100 100T183 39T303 17Q348 17 401 30T493 64L503 46Q467 25 410 11T303 -3Q231 -3 174 22T83 90T50 188Q50 234 74 274T142 339T239 371Q170 381 125
426T80 530Q80 579 109 618T189 680T305 703Q347 703 394 693T471 668L461 650Q434 664 390 673T305 683Q246 683 200 663T127 608T100 530Q100 487 126 453T200 400T307 381H416V361H307Q239 361 185 339ZM413 891L432 881L303 776L277 781L413 891Z" />
<glyph unicode="&#xca;" glyph-name="Ecircumflex" horiz-adv-x="528" d="M239 361T185 339T101 277T70 188Q70 139 100 100T183 39T303 17Q348 17 401 30T493 64L503 46Q467 25 410 11T303 -3Q231 -3 174 22T83 90T50 188Q50 234 74 274T142 339T239 371Q170
381 125 426T80 530Q80 579 109 618T189 680T305 703Q347 703 394 693T471 668L461 650Q434 664 390 673T305 683Q246 683 200 663T127 608T100 530Q100 487 126 453T200 400T307 381H416V361H307Q239 361 185 339ZM419 776H393L305 868L217 776H191L289 886H321L419
776Z" />
<glyph unicode="&#xcb;" glyph-name="Edieresis" horiz-adv-x="528" d="M239 361T185 339T101 277T70 188Q70 139 100 100T183 39T303 17Q348 17 401 30T493 64L503 46Q467 25 410 11T303 -3Q231 -3 174 22T83 90T50 188Q50 234 74 274T142 339T239 371Q170 381
125 426T80 530Q80 579 109 618T189 680T305 703Q347 703 394 693T471 668L461 650Q434 664 390 673T305 683Q246 683 200 663T127 608T100 530Q100 487 126 453T200 400T307 381H416V361H307Q239 361 185 339ZM239 828T247 821T255 802Q255 792 247 784T229 776Q218
776 211 784T203 802Q203 813 210 820T229 828Q239 828 247 821ZM391 828T399 821T407 802Q407 792 399 784T381 776Q370 776 363 784T355 802Q355 813 362 820T381 828Q391 828 399 821Z" />
<glyph unicode="&#xcc;" glyph-name="Igrave" horiz-adv-x="448" d="M388 679H234V20H388V0H60V20H214V679H60V699H388V679ZM134 891L270 781L244 776L115 881L134 891Z" />
<glyph unicode="&#xcd;" glyph-name="Iacute" horiz-adv-x="448" d="M388 679H234V20H388V0H60V20H214V679H60V699H388V679ZM332 891L351 881L222 776L196 781L332 891Z" />
<glyph unicode="&#xce;" glyph-name="Icircumflex" horiz-adv-x="448" d="M388 679H234V20H388V0H60V20H214V679H60V699H388V679ZM338 776H312L224 868L136 776H110L208 886H240L338 776Z" />
<glyph unicode="&#xcf;" glyph-name="Idieresis" horiz-adv-x="448" d="M388 679H234V20H388V0H60V20H214V679H60V699H388V679ZM158 828T166 821T174 802Q174 792 166 784T148 776Q137 776 130 784T122 802Q122 813 129 820T148 828Q158 828 166 821ZM310 828T318
821T326 802Q326 792 318 784T300 776Q289 776 282 784T274 802Q274 813 281 820T300 828Q310 828 318 821Z" />
<glyph unicode="&#xd0;" glyph-name="Eth" horiz-adv-x="811" d="M500 699T582 652T712 525T761 349Q761 255 713 175T582 47T403 0H128V340H57V360H128V699H403Q500 699 582 652ZM494 20T572 64T695 184T741 349Q741 438 696 514T572 634T403 679H148V360H432V340H148V20H403Q494
20 572 64Z" />
<glyph unicode="&#xd1;" glyph-name="Ntilde" horiz-adv-x="792" d="M504 703T561 670T650 580T682 449V0H662V449Q662 516 633 569T551 652T432 683Q355 683 293 653T192 570T148 451V0H128V699H148V528Q180 607 256 655T432 703Q504 703 561 670ZM528 821T509
799T457 777Q438 777 424 785T389 811Q373 826 360 834T332 842Q308 842 295 826T282 781H263Q263 818 282 840T334 862Q353 862 367 854T402 828Q418 813 431 805T459 797Q483 797 496 813T509 858H528Q528 821 509 799Z" />
<glyph unicode="&#xd2;" glyph-name="Ograve" horiz-adv-x="818" d="M506 703T588 656T719 527T768 351Q768 256 720 175T589 45T409 -3Q312 -3 230 45T99 174T50 351Q50 446 98 527T229 655T409 703Q506 703 588 656ZM318 683T240 638T116 517T70 351Q70 261
116 184T240 62T409 17Q500 17 578 62T702 184T748 351Q748 440 702 516T578 638T409 683Q318 683 240 638ZM319 891L455 781L429 776L300 881L319 891Z" />
<glyph unicode="&#xd3;" glyph-name="Oacute" horiz-adv-x="818" d="M506 703T588 656T719 527T768 351Q768 256 720 175T589 45T409 -3Q312 -3 230 45T99 174T50 351Q50 446 98 527T229 655T409 703Q506 703 588 656ZM318 683T240 638T116 517T70 351Q70 261
116 184T240 62T409 17Q500 17 578 62T702 184T748 351Q748 440 702 516T578 638T409 683Q318 683 240 638ZM517 891L536 881L407 776L381 781L517 891Z" />
<glyph unicode="&#xd4;" glyph-name="Ocircumflex" horiz-adv-x="818" d="M506 703T588 656T719 527T768 351Q768 256 720 175T589 45T409 -3Q312 -3 230 45T99 174T50 351Q50 446 98 527T229 655T409 703Q506 703 588 656ZM318 683T240 638T116 517T70 351Q70
261 116 184T240 62T409 17Q500 17 578 62T702 184T748 351Q748 440 702 516T578 638T409 683Q318 683 240 638ZM523 776H497L409 868L321 776H295L393 886H425L523 776Z" />
<glyph unicode="&#xd5;" glyph-name="Otilde" horiz-adv-x="818" d="M506 703T588 656T719 527T768 351Q768 256 720 175T589 45T409 -3Q312 -3 230 45T99 174T50 351Q50 446 98 527T229 655T409 703Q506 703 588 656ZM318 683T240 638T116 517T70 351Q70 261
116 184T240 62T409 17Q500 17 578 62T702 184T748 351Q748 440 702 516T578 638T409 683Q318 683 240 638ZM541 821T522 799T470 777Q451 777 437 785T402 811Q386 826 373 834T345 842Q321 842 308 826T295 781H276Q276 818 295 840T347 862Q366 862 380 854T415
828Q431 813 444 805T472 797Q496 797 509 813T522 858H541Q541 821 522 799Z" />
<glyph unicode="&#xd6;" glyph-name="Odieresis" horiz-adv-x="818" d="M506 703T588 656T719 527T768 351Q768 256 720 175T589 45T409 -3Q312 -3 230 45T99 174T50 351Q50 446 98 527T229 655T409 703Q506 703 588 656ZM318 683T240 638T116 517T70 351Q70 261
116 184T240 62T409 17Q500 17 578 62T702 184T748 351Q748 440 702 516T578 638T409 683Q318 683 240 638ZM343 828T351 821T359 802Q359 792 351 784T333 776Q322 776 315 784T307 802Q307 813 314 820T333 828Q343 828 351 821ZM495 828T503 821T511 802Q511
792 503 784T485 776Q474 776 467 784T459 802Q459 813 466 820T485 828Q495 828 503 821Z" />
<glyph unicode="&#xd7;" glyph-name="multiply" horiz-adv-x="480" d="M388 454L254 320L388 186L374 172L240 306L106 172L92 186L226 320L92 454L106 468L240 334L374 468L388 454Z" />
<glyph unicode="&#xd8;" glyph-name="Oslash" horiz-adv-x="818" d="M691 580T729 507T768 350Q768 256 720 176T589 48T409 0Q300 0 207 61L121 -55H100L193 71Q127 120 89 193T50 350Q50 444 98 524T229 652T409 699Q518 699 611 638L697 755H718L625 628Q691
580 729 507ZM70 271T106 203T205 87L599 622Q513 679 409 679Q318 679 240 635T116 515T70 350Q70 271 106 203ZM500 20T578 64T702 185T748 350Q748 429 712 497T613 612L219 78Q304 20 409 20Q500 20 578 64Z" />
<glyph unicode="&#xd9;" glyph-name="Ugrave" horiz-adv-x="792" d="M664 699V0H644V174Q612 95 536 47T360 -3Q288 -3 231 30T142 121T110 254V699H130V253Q130 186 159 132T241 48T360 17Q437 19 499 49T600 132T644 251V699H664ZM306 891L442 781L416 776L287
881L306 891Z" />
<glyph unicode="&#xda;" glyph-name="Uacute" horiz-adv-x="792" d="M664 699V0H644V174Q612 95 536 47T360 -3Q288 -3 231 30T142 121T110 254V699H130V253Q130 186 159 132T241 48T360 17Q437 19 499 49T600 132T644 251V699H664ZM504 891L523 881L394 776L368
781L504 891Z" />
<glyph unicode="&#xdb;" glyph-name="Ucircumflex" horiz-adv-x="792" d="M664 699V0H644V174Q612 95 536 47T360 -3Q288 -3 231 30T142 121T110 254V699H130V253Q130 186 159 132T241 48T360 17Q437 19 499 49T600 132T644 251V699H664ZM510 776H484L396 868L308
776H282L380 886H412L510 776Z" />
<glyph unicode="&#xdc;" glyph-name="Udieresis" horiz-adv-x="792" d="M664 699V0H644V174Q612 95 536 47T360 -3Q288 -3 231 30T142 121T110 254V699H130V253Q130 186 159 132T241 48T360 17Q437 19 499 49T600 132T644 251V699H664ZM330 828T338 821T346 802Q346
792 338 784T320 776Q309 776 302 784T294 802Q294 813 301 820T320 828Q330 828 338 821ZM482 828T490 821T498 802Q498 792 490 784T472 776Q461 776 454 784T446 802Q446 813 453 820T472 828Q482 828 490 821Z" />
<glyph unicode="&#xdd;" glyph-name="Yacute" horiz-adv-x="734" d="M624 699V147Q624 76 592 20T502 -68T373 -100Q295 -100 221 -68T112 14L127 28Q162 -19 231 -49T373 -80Q439 -80 492 -51T575 30T605 147V329Q575 253 508 207T353 160Q283 160 228 193T142
283T110 414V699H130V414Q130 347 159 294T238 211T353 180Q421 181 476 211T566 293T605 410V699H624ZM475 891L494 881L365 776L339 781L475 891Z" />
<glyph unicode="&#xde;" glyph-name="Thorn" horiz-adv-x="662" d="M484 587T558 533T632 367Q632 254 558 198T335 142H148V0H128V699H148V587H335Q484 587 558 533ZM475 162T543 213T612 367Q612 468 543 517T335 567H148V162H335Q475 162 543 213Z" />
<glyph unicode="&#xdf;" glyph-name="germandbls" horiz-adv-x="640" d="M110 570T137 625T215 711T331 742Q423 742 477 693T532 560Q532 490 492 440T383 377Q467 367 517 318T568 197Q568 138 539 93T456 24T330 0H275V20H330Q429 20 488 68T548 197Q548 274
486 319T321 365H316V385Q405 385 458 432T512 560Q512 634 463 678T331 722Q271 722 226 694T155 615T130 496V0H110V496Q110 570 137 625Z" />
<glyph unicode="&#xe0;" glyph-name="agrave" horiz-adv-x="668" d="M558 517V0H538V152Q509 81 448 40T305 -2Q233 -2 175 31T85 124T52 258Q52 332 84 392T175 485T305 519Q386 519 447 478T538 365V517H558ZM372 18T425 49T508 134T538 258Q538 327 508 382T425
468T305 499Q238 499 185 468T102 382T72 258Q72 189 102 135T185 49T305 18Q372 18 425 49ZM242 739L378 629L352 624L223 729L242 739Z" />
<glyph unicode="&#xe1;" glyph-name="aacute" horiz-adv-x="668" d="M558 517V0H538V152Q509 81 448 40T305 -2Q233 -2 175 31T85 124T52 258Q52 332 84 392T175 485T305 519Q386 519 447 478T538 365V517H558ZM372 18T425 49T508 134T538 258Q538 327 508 382T425
468T305 499Q238 499 185 468T102 382T72 258Q72 189 102 135T185 49T305 18Q372 18 425 49ZM440 739L459 729L330 624L304 629L440 739Z" />
<glyph unicode="&#xe2;" glyph-name="acircumflex" horiz-adv-x="668" d="M558 517V0H538V152Q509 81 448 40T305 -2Q233 -2 175 31T85 124T52 258Q52 332 84 392T175 485T305 519Q386 519 447 478T538 365V517H558ZM372 18T425 49T508 134T538 258Q538 327 508
382T425 468T305 499Q238 499 185 468T102 382T72 258Q72 189 102 135T185 49T305 18Q372 18 425 49ZM446 624H420L332 716L244 624H218L316 734H348L446 624Z" />
<glyph unicode="&#xe3;" glyph-name="atilde" horiz-adv-x="668" d="M558 517V0H538V152Q509 81 448 40T305 -2Q233 -2 175 31T85 124T52 258Q52 332 84 392T175 485T305 519Q386 519 447 478T538 365V517H558ZM372 18T425 49T508 134T538 258Q538 327 508 382T425
468T305 499Q238 499 185 468T102 382T72 258Q72 189 102 135T185 49T305 18Q372 18 425 49ZM464 673T445 651T393 629Q374 629 360 637T325 663Q309 678 296 686T268 694Q244 694 231 678T218 633H199Q199 670 218 692T270 714Q289 714 303 706T338 680Q354 665
367 657T395 649Q419 649 432 665T445 710H464Q464 673 445 651Z" />
<glyph unicode="&#xe4;" glyph-name="adieresis" horiz-adv-x="668" d="M558 517V0H538V152Q509 81 448 40T305 -2Q233 -2 175 31T85 124T52 258Q52 332 84 392T175 485T305 519Q386 519 447 478T538 365V517H558ZM372 18T425 49T508 134T538 258Q538 327 508
382T425 468T305 499Q238 499 185 468T102 382T72 258Q72 189 102 135T185 49T305 18Q372 18 425 49ZM267 692T275 685T283 666Q283 656 275 648T257 640Q246 640 239 648T231 666Q231 677 238 684T257 692Q267 692 275 685ZM417 692T425 685T433 666Q433 656 425
648T407 640Q396 640 389 648T381 666Q381 677 388 684T407 692Q417 692 425 685Z" />
<glyph unicode="&#xe5;" glyph-name="aring" horiz-adv-x="668" d="M558 517V0H538V152Q509 81 448 40T305 -2Q233 -2 175 31T85 124T52 258Q52 332 84 392T175 485T305 519Q386 519 447 478T538 365V517H558ZM372 18T425 49T508 134T538 258Q538 327 508 382T425
468T305 499Q238 499 185 468T102 382T72 258Q72 189 102 135T185 49T305 18Q372 18 425 49ZM368 754T394 728T421 667Q421 632 395 607T331 581Q295 581 269 606T242 667Q242 702 268 728T331 754Q368 754 394 728ZM302 736T281 716T259 667Q259 639 280 619T331
599Q360 599 382 619T404 667Q404 695 382 715T331 736Q302 736 281 716Z" />
<glyph unicode="&#xe6;" glyph-name="ae" horiz-adv-x="970" d="M756 20T802 39T883 95L897 81Q860 42 809 21T700 0Q620 0 555 44T462 160Q396 0 232 0Q158 0 111 42T63 149Q63 211 114 246T256 282H449V345Q447 419 405 458T283 497Q237 497 194 480T101 425L89
441Q139 480 186 498T283 517Q366 517 414 476T467 359Q495 432 557 474T700 517Q779 517 837 475T922 358L483 179Q504 108 563 64T700 20Q756 20 802 39ZM632 497T580 465T500 375T473 242Q473 221 478 198L896 369Q870 431 819 464T700 497Q632 497 580 465ZM449
262H256Q173 262 128 233T83 149Q83 91 124 56T232 20Q315 20 366 58T449 184V262Z" />
<glyph unicode="&#xe7;" glyph-name="ccedilla" horiz-adv-x="557" d="M456 42T408 21T303 0H299V0L283 -56Q321 -57 342 -78T364 -130Q364 -163 341 -188T275 -213Q256 -213 236 -207T202 -191L210 -171Q222 -180 240 -186T275 -192Q308 -192 325 -174T343 -130Q343
-108 327 -92T285 -75H256L278 1Q213 7 162 41T81 132T52 259Q52 333 84 392T174 484T303 517Q354 517 399 499T479 448L466 434Q397 497 303 497Q237 497 184 467T101 382T71 259Q71 190 101 136T184 51T303 20Q356 20 400 39T477 95L490 81Q456 42 408 21Z" />
<glyph unicode="&#xe8;" glyph-name="egrave" horiz-adv-x="569" d="M420 20T492 115L509 104Q428 0 304 0Q232 0 175 33T85 126T52 259Q52 333 84 391T174 483T303 517Q383 517 443 475T526 360L83 180Q105 107 164 64T305 20Q420 20 492 115ZM236 497T184 467T102
382T72 259Q72 228 78 199L500 371Q478 430 425 463T302 497Q236 497 184 467ZM206 739L342 629L316 624L187 729L206 739Z" />
<glyph unicode="&#xe9;" glyph-name="eacute" horiz-adv-x="569" d="M420 20T492 115L509 104Q428 0 304 0Q232 0 175 33T85 126T52 259Q52 333 84 391T174 483T303 517Q383 517 443 475T526 360L83 180Q105 107 164 64T305 20Q420 20 492 115ZM236 497T184 467T102
382T72 259Q72 228 78 199L500 371Q478 430 425 463T302 497Q236 497 184 467ZM404 739L423 729L294 624L268 629L404 739Z" />
<glyph unicode="&#xea;" glyph-name="ecircumflex" horiz-adv-x="569" d="M420 20T492 115L509 104Q428 0 304 0Q232 0 175 33T85 126T52 259Q52 333 84 391T174 483T303 517Q383 517 443 475T526 360L83 180Q105 107 164 64T305 20Q420 20 492 115ZM236 497T184
467T102 382T72 259Q72 228 78 199L500 371Q478 430 425 463T302 497Q236 497 184 467ZM410 624H384L296 716L208 624H182L280 734H312L410 624Z" />
<glyph unicode="&#xeb;" glyph-name="edieresis" horiz-adv-x="569" d="M420 20T492 115L509 104Q428 0 304 0Q232 0 175 33T85 126T52 259Q52 333 84 391T174 483T303 517Q383 517 443 475T526 360L83 180Q105 107 164 64T305 20Q420 20 492 115ZM236 497T184
467T102 382T72 259Q72 228 78 199L500 371Q478 430 425 463T302 497Q236 497 184 467ZM231 692T239 685T247 666Q247 656 239 648T221 640Q210 640 203 648T195 666Q195 677 202 684T221 692Q231 692 239 685ZM381 692T389 685T397 666Q397 656 389 648T371 640Q360
640 353 648T345 666Q345 677 352 684T371 692Q381 692 389 685Z" />
<glyph unicode="&#xec;" glyph-name="igrave" horiz-adv-x="240" d="M110 517H130V0H110V517ZM30 739L166 629L140 624L11 729L30 739Z" />
<glyph unicode="&#xed;" glyph-name="iacute" horiz-adv-x="240" d="M110 517H130V0H110V517ZM228 739L247 729L118 624L92 629L228 739Z" />
<glyph unicode="&#xee;" glyph-name="icircumflex" horiz-adv-x="240" d="M110 517H130V0H110V517ZM234 624H208L120 716L32 624H6L104 734H136L234 624Z" />
<glyph unicode="&#xef;" glyph-name="idieresis" horiz-adv-x="240" d="M110 517H130V0H110V517ZM77 692T84 685T91 666Q91 656 83 648T65 640Q54 640 47 648T39 666Q39 677 46 684T65 692Q77 692 84 685ZM185 692T193 685T201 666Q201 656 193 648T175 640Q164
640 157 648T149 666Q149 677 156 684T175 692Q185 692 193 685Z" />
<glyph unicode="&#xf0;" glyph-name="eth" d="M421 528T468 427T516 227Q516 159 487 108T405 28T281 0Q180 0 120 60T60 222Q60 287 88 336T167 411T287 438Q357 438 413 405T493 315Q473 391 427 466T316 605L146 526L137 545L299 620Q232 682 156 724L168 742Q253
692 319 629L454 692L463 673L335 614Q421 528 468 427ZM382 20T439 73T496 216Q496 308 439 363T287 418Q193 418 137 366T80 224Q80 131 136 76T286 20Q382 20 439 73Z" />
<glyph unicode="&#xf1;" glyph-name="ntilde" horiz-adv-x="644" d="M444 517T497 463T551 313V0H531V313Q531 400 483 448T348 497Q252 495 195 438T130 281V0H110V517H130V371Q155 440 211 478T348 517Q444 517 497 463ZM474 673T455 651T403 629Q384 629 370
637T335 663Q319 678 306 686T278 694Q254 694 241 678T228 633H209Q209 670 228 692T280 714Q299 714 313 706T348 680Q364 665 377 657T405 649Q429 649 442 665T455 710H474Q474 673 455 651Z" />
<glyph unicode="&#xf2;" glyph-name="ograve" horiz-adv-x="606" d="M374 517T431 484T521 392T554 259Q554 185 522 126T432 34T303 0Q232 0 175 33T85 126T52 259Q52 333 84 392T174 484T303 517Q374 517 431 484ZM237 497T184 467T102 382T72 259Q72 190 101
136T184 51T303 20Q369 20 422 50T504 135T534 259Q534 328 505 382T422 466T303 497Q237 497 184 467ZM213 739L349 629L323 624L194 729L213 739Z" />
<glyph unicode="&#xf3;" glyph-name="oacute" horiz-adv-x="606" d="M374 517T431 484T521 392T554 259Q554 185 522 126T432 34T303 0Q232 0 175 33T85 126T52 259Q52 333 84 392T174 484T303 517Q374 517 431 484ZM237 497T184 467T102 382T72 259Q72 190 101
136T184 51T303 20Q369 20 422 50T504 135T534 259Q534 328 505 382T422 466T303 497Q237 497 184 467ZM411 739L430 729L301 624L275 629L411 739Z" />
<glyph unicode="&#xf4;" glyph-name="ocircumflex" horiz-adv-x="606" d="M374 517T431 484T521 392T554 259Q554 185 522 126T432 34T303 0Q232 0 175 33T85 126T52 259Q52 333 84 392T174 484T303 517Q374 517 431 484ZM237 497T184 467T102 382T72 259Q72 190
101 136T184 51T303 20Q369 20 422 50T504 135T534 259Q534 328 505 382T422 466T303 497Q237 497 184 467ZM417 624H391L303 716L215 624H189L287 734H319L417 624Z" />
<glyph unicode="&#xf5;" glyph-name="otilde" horiz-adv-x="606" d="M374 517T431 484T521 392T554 259Q554 185 522 126T432 34T303 0Q232 0 175 33T85 126T52 259Q52 333 84 392T174 484T303 517Q374 517 431 484ZM237 497T184 467T102 382T72 259Q72 190 101
136T184 51T303 20Q369 20 422 50T504 135T534 259Q534 328 505 382T422 466T303 497Q237 497 184 467ZM435 673T416 651T364 629Q345 629 331 637T296 663Q280 678 267 686T239 694Q215 694 202 678T189 633H170Q170 670 189 692T241 714Q260 714 274 706T309
680Q325 665 338 657T366 649Q390 649 403 665T416 710H435Q435 673 416 651Z" />
<glyph unicode="&#xf6;" glyph-name="odieresis" horiz-adv-x="606" d="M374 517T431 484T521 392T554 259Q554 185 522 126T432 34T303 0Q232 0 175 33T85 126T52 259Q52 333 84 392T174 484T303 517Q374 517 431 484ZM237 497T184 467T102 382T72 259Q72 190
101 136T184 51T303 20Q369 20 422 50T504 135T534 259Q534 328 505 382T422 466T303 497Q237 497 184 467ZM238 692T246 685T254 666Q254 656 246 648T228 640Q217 640 210 648T202 666Q202 677 209 684T228 692Q238 692 246 685ZM388 692T396 685T404 666Q404
656 396 648T378 640Q367 640 360 648T352 666Q352 677 359 684T378 692Q388 692 396 685Z" />
<glyph unicode="&#xf7;" glyph-name="divide" horiz-adv-x="480" d="M251 521T258 514T266 495Q266 485 259 477T240 469Q230 469 222 477T214 495Q214 506 222 513T240 521Q251 521 258 514ZM40 330H440V310H40V330ZM251 171T258 164T266 145Q266 135 259 127T240
119Q230 119 222 127T214 145Q214 156 222 163T240 171Q251 171 258 164Z" />
<glyph unicode="&#xf8;" glyph-name="oslash" horiz-adv-x="606" d="M503 432T528 379T554 259Q554 185 522 126T432 34T303 0Q224 0 164 40L61 -110H40L150 50Q104 85 78 139T52 259Q52 333 84 392T174 484T303 517Q382 517 442 477L545 627H566L456 467Q503
432 528 379ZM72 198T95 148T161 66L431 461Q375 497 303 497Q237 497 184 467T102 382T72 259Q72 198 95 148ZM369 20T422 50T504 135T534 259Q534 320 511 369T445 451L175 56Q231 20 303 20Q369 20 422 50Z" />
<glyph unicode="&#xf9;" glyph-name="ugrave" horiz-adv-x="637" d="M527 517V0H507V151Q483 79 428 40T292 0Q198 0 145 54T92 204V517H112V204Q112 117 159 69T292 20Q393 22 450 86T507 264V517H527ZM229 739L365 629L339 624L210 729L229 739Z" />
<glyph unicode="&#xfa;" glyph-name="uacute" horiz-adv-x="637" d="M527 517V0H507V151Q483 79 428 40T292 0Q198 0 145 54T92 204V517H112V204Q112 117 159 69T292 20Q393 22 450 86T507 264V517H527ZM427 739L446 729L317 624L291 629L427 739Z" />
<glyph unicode="&#xfb;" glyph-name="ucircumflex" horiz-adv-x="637" d="M527 517V0H507V151Q483 79 428 40T292 0Q198 0 145 54T92 204V517H112V204Q112 117 159 69T292 20Q393 22 450 86T507 264V517H527ZM433 624H407L319 716L231 624H205L303 734H335L433 624Z" />
<glyph unicode="&#xfc;" glyph-name="udieresis" horiz-adv-x="637" d="M527 517V0H507V151Q483 79 428 40T292 0Q198 0 145 54T92 204V517H112V204Q112 117 159 69T292 20Q393 22 450 86T507 264V517H527ZM254 692T262 685T270 666Q270 656 262 648T244 640Q233
640 226 648T218 666Q218 677 225 684T244 692Q254 692 262 685ZM404 692T412 685T420 666Q420 656 412 648T394 640Q383 640 376 648T368 666Q368 677 375 684T394 692Q404 692 412 685Z" />
<glyph unicode="&#xfd;" glyph-name="yacute" horiz-adv-x="628" d="M534 517V59Q534 -62 472 -128T298 -193Q239 -190 186 -165T96 -97L109 -83Q144 -123 193 -146T298 -173Q401 -174 457 -113T514 59V193Q489 123 433 84T295 44Q199 44 146 98T92 248V517H112V248Q112
161 160 113T295 64Q398 66 456 130T514 308V517H534ZM419 739L438 729L309 624L283 629L419 739Z" />
<glyph unicode="&#xfe;" glyph-name="thorn" horiz-adv-x="669" d="M163 435T224 476T366 517Q438 517 495 484T584 391T617 258Q617 184 585 126T495 34T366 0Q286 0 225 41T135 152V-194H115V742H135V365Q163 435 224 476ZM300 497T248 466T165 381T135 258Q135
190 165 136T247 51T366 20Q432 20 484 50T567 135T597 258Q597 326 567 380T485 466T366 497Q300 497 248 466Z" />
<glyph unicode="&#xff;" glyph-name="ydieresis" horiz-adv-x="628" d="M534 517V59Q534 -62 472 -128T298 -193Q239 -190 186 -165T96 -97L109 -83Q144 -123 193 -146T298 -173Q401 -174 457 -113T514 59V193Q489 123 433 84T295 44Q199 44 146 98T92 248V517H112V248Q112
161 160 113T295 64Q398 66 456 130T514 308V517H534ZM246 692T254 685T262 666Q262 656 254 648T236 640Q225 640 218 648T210 666Q210 677 217 684T236 692Q246 692 254 685ZM396 692T404 685T412 666Q412 656 404 648T386 640Q375 640 368 648T360 666Q360 677
367 684T386 692Q396 692 404 685Z" />
<glyph unicode="&#x2013;" glyph-name="endash" horiz-adv-x="400" d="M0 310H400V290H0V310Z" />
<glyph unicode="&#x2014;" glyph-name="emdash" horiz-adv-x="760" d="M0 310H760V290H0V310Z" />
<glyph unicode="&#x2018;" glyph-name="quoteleft" horiz-adv-x="170" d="M83 636T89 629T95 613Q95 603 88 595T69 587Q59 587 51 595T43 613Q43 622 50 639L93 752H113L75 638Q83 636 89 629Z" />
<glyph unicode="&#x2019;" glyph-name="quoteright" horiz-adv-x="170" d="M98 742T105 735T113 716Q113 708 106 690L63 577H43L81 691Q73 693 67 700T61 716Q61 727 69 734T87 742Q98 742 105 735Z" />
<glyph unicode="&#x201a;" glyph-name="quotesinglbase" horiz-adv-x="170" d="M98 45T105 38T113 19Q113 11 106 -7L63 -120H43L81 -6Q73 -4 67 3T61 19Q61 30 69 37T87 45Q98 45 105 38Z" />
<glyph unicode="&#x201c;" glyph-name="quotedblleft" horiz-adv-x="260" d="M83 636T89 629T95 613Q95 603 88 595T69 587Q59 587 51 595T43 613Q43 622 50 639L93 752H113L75 638Q83 636 89 629ZM173 636T179 629T185 613Q185 603 178 595T159 587Q149 587 141
595T133 613Q133 622 140 639L183 752H203L165 638Q173 636 179 629Z" />
<glyph unicode="&#x201d;" glyph-name="quotedblright" horiz-adv-x="260" d="M98 742T105 735T113 716Q113 708 106 690L63 577H43L81 691Q73 693 67 700T61 716Q61 727 69 734T87 742Q98 742 105 735ZM188 742T195 735T203 716Q203 708 196 690L153 577H133L171
691Q163 693 157 700T151 716Q151 727 159 734T177 742Q188 742 195 735Z" />
<glyph unicode="&#x201e;" glyph-name="quotedblbase" horiz-adv-x="260" d="M98 45T105 38T113 19Q113 11 106 -7L63 -120H43L81 -6Q73 -4 67 3T61 19Q61 30 69 37T87 45Q98 45 105 38ZM188 45T195 38T203 19Q203 11 196 -7L153 -120H133L171 -6Q163 -4 157 3T151
19Q151 30 159 37T177 45Q188 45 195 38Z" />
<glyph unicode="&#x2022;" glyph-name="bullet" horiz-adv-x="196" d="M114 309T125 298T137 270Q137 254 126 243T98 231Q82 231 71 242T59 270Q59 286 70 297T98 309Q114 309 125 298Z" />
<glyph unicode="&#x2039;" glyph-name="guilsinglleft" horiz-adv-x="268" d="M167 403H191L83 247L191 94H167L58 247L167 403Z" />
<glyph unicode="&#x203a;" glyph-name="guilsinglright" horiz-adv-x="268" d="M101 94H77L185 250L77 403H101L210 250L101 94Z" />
</font>
</defs>
</svg>
