<?xml version="1.0" standalone="no"?>
<!DOCTYPE svg PUBLIC "-//W3C//DTD SVG 1.1//EN" "http://www.w3.org/Graphics/SVG/1.1/DTD/svg11.dtd">
<svg xmlns="http://www.w3.org/2000/svg">
<defs >
<font id="MontserratAlternates" horiz-adv-x="571" ><font-face
    font-family="Montserrat Alternates ExLight"
    units-per-em="1000"
    panose-1="0 0 3 0 0 0 0 0 0 0"
    ascent="968"
    descent="-251"
    alphabetic="0" />
<glyph unicode=" " glyph-name="space" horiz-adv-x="287" />
<glyph unicode="!" glyph-name="exclam" horiz-adv-x="196" d="M81 684H121V520L117 197H86L81 520V684ZM115 64T125 54T136 29Q136 13 126 3T101 -8Q87 -8 77 2T67 29Q67 44 77 54T101 64Q115 64 125 54Z" />
<glyph unicode="&quot;" glyph-name="quotedbl" horiz-adv-x="264" d="M60 699H95V495H60V699ZM169 699H204V495H169V699Z" />
<glyph unicode="#" glyph-name="numbersign" horiz-adv-x="711" d="M666 460H516L488 236H634L633 199H484L459 0H425L449 199H223L199 0H165L189 199H43L44 236H194L222 460H75L76 496H226L251 699H285L260 496H486L511 699H546L521 496H667L666 460ZM454 236L482
460H256L228 236H454Z" />
<glyph unicode="$" glyph-name="dollar" horiz-adv-x="599" d="M121 492T146 462T209 416T311 379Q382 358 426 338T500 279T530 178Q530 101 472 52T314 -3V-125H279V-4Q212 -3 148 25T38 98L60 135Q102 90 164 65T288 39Q379 39 432 76T485 177Q485 226 459
256T395 304T292 340Q220 362 178 381T106 439T76 538Q76 608 131 653T279 704V811H314V705Q366 704 417 689T506 648L487 610Q449 635 400 648T304 661Q221 661 171 628T121 540Q121 492 146 462Z" />
<glyph unicode="%" glyph-name="percent" horiz-adv-x="933" d="M306 703T351 649T397 495Q397 395 352 341T224 287Q142 287 98 341T53 495Q53 594 97 648T224 703Q306 703 351 649ZM158 673T123 627T87 495Q87 409 122 363T224 317Q291 317 327 363T363 495Q363
581 327 627T224 673Q158 673 123 627ZM706 699H746L213 0H173L706 699ZM789 412T834 358T880 204Q880 104 835 50T707 -4Q625 -4 581 50T536 204Q536 303 580 357T707 412Q789 412 834 358ZM641 382T606 336T570 204Q570 118 605 72T707 26Q774 26 810 72T846
204Q846 290 810 336T707 382Q641 382 606 336Z" />
<glyph unicode="&amp;" glyph-name="ampersand" horiz-adv-x="634" d="M627 20L604 -5L478 120Q428 61 372 30T256 -1Q202 -1 157 23T86 90T59 185Q59 255 103 300T226 387Q187 437 168 478T149 558Q149 619 193 659T308 700Q374 700 415 664T456 568Q456 524
432 491T372 433T278 378Q334 310 473 173Q517 234 554 319L585 296Q548 211 499 147L627 20ZM185 495T257 403Q313 432 345 452T398 502T420 568Q420 613 390 640T309 668Q254 668 220 637T185 558Q185 495 257 403ZM360 35T452 146Q371 227 326 273T247 361Q174
321 135 283T96 187Q96 143 117 109T176 55T257 35Q360 35 452 146Z" />
<glyph unicode="&apos;" glyph-name="quotesingle" horiz-adv-x="155" d="M60 699H95V495H60V699Z" />
<glyph unicode="(" glyph-name="parenleft" horiz-adv-x="284" d="M194 659T165 548T135 309Q135 182 164 71T249 -124H211Q155 -42 126 69T96 309Q96 437 125 548T211 742H249Q194 659 165 548Z" />
<glyph unicode=")" glyph-name="parenright" horiz-adv-x="284" d="M73 742Q129 660 158 549T188 309Q188 181 159 70T73 -124H35Q90 -41 119 70T149 309Q149 436 120 547T35 742H73Z" />
<glyph unicode="*" glyph-name="asterisk" horiz-adv-x="309" d="M141 722H168V609L266 666L280 640L181 584L280 528L266 501L168 558V445H141V558L43 501L29 528L127 584L29 640L43 666L141 609V722Z" />
<glyph unicode="+" glyph-name="plus" horiz-adv-x="484" d="M445 338V304H258V117H226V304H39V338H226V525H258V338H445Z" />
<glyph unicode="," glyph-name="comma" horiz-adv-x="180" d="M106 64T116 54T126 28Q126 19 122 9T116 -4L70 -117H42L80 -5Q70 -1 64 8T58 28Q58 43 68 53T92 64Q106 64 116 54Z" />
<glyph unicode="-" glyph-name="hyphen" horiz-adv-x="359" d="M68 318H291V284H68V318Z" />
<glyph unicode="." glyph-name="period" horiz-adv-x="181" d="M104 64T114 54T125 29Q125 13 115 3T90 -8Q76 -8 66 2T56 29Q56 44 66 54T90 64Q104 64 114 54Z" />
<glyph unicode="/" glyph-name="slash" horiz-adv-x="302" d="M307 824H345L37 -127H-2L307 824Z" />
<glyph unicode="0" glyph-name="zero" horiz-adv-x="719" d="M516 702T588 611T661 350Q661 180 589 89T380 -3Q245 -3 172 88T99 350Q99 519 172 610T380 702Q516 702 588 611ZM264 664T203 584T141 350Q141 197 202 116T380 35Q496 35 557 116T619 350Q619 503
558 583T380 664Q264 664 203 584Z" />
<glyph unicode="1" glyph-name="one" horiz-adv-x="354" d="M6 699H226V0H185V658H6V699Z" />
<glyph unicode="2" glyph-name="two" horiz-adv-x="562" d="M526 41V0H39L40 43L321 337Q373 390 403 442T433 532Q433 592 387 626T260 661Q208 661 155 639T59 576L38 609Q84 653 143 677T264 702Q362 702 419 657T476 536Q476 490 442 432T349 311L89 41H526Z" />
<glyph unicode="3" glyph-name="three" horiz-adv-x="574" d="M380 395T449 346T518 212Q518 149 486 100T394 24T253 -3Q192 -3 132 14T25 60L45 96Q87 69 141 53T252 37Q356 37 416 84T477 208Q477 284 418 323T250 363H166V395L426 658H57V699H482V667L218
398L263 397Q380 395 449 346Z" />
<glyph unicode="4" glyph-name="four" horiz-adv-x="576" d="M547 240V199H430V0H390V199H30V240L309 699H352L74 240H390V450H430V240H547Z" />
<glyph unicode="5" glyph-name="five" horiz-adv-x="609" d="M397 424T453 399T539 329T570 225Q570 157 539 105T452 25T319 -3Q262 -3 198 16T81 68L100 104Q147 74 206 56T317 38Q412 38 469 88T526 223Q526 296 470 339T316 383Q278 383 225 375T130 354V699H542V658H170V404Q204
413 247 418T323 424Q397 424 453 399Z" />
<glyph unicode="6" glyph-name="six" horiz-adv-x="643" d="M495 640T449 651T361 663Q246 663 183 578T119 340Q119 309 122 276Q141 354 202 398T354 442Q458 442 518 384T578 225Q578 120 515 59T346 -3Q220 -3 149 84T78 333Q78 444 112 527T209 656T358 702Q403
702 454 690T550 656L532 620Q495 640 449 651ZM286 404T238 378T165 310T139 219Q139 178 161 136T229 66T341 37Q429 37 483 88T538 226Q538 308 487 356T349 404Q286 404 238 378Z" />
<glyph unicode="7" glyph-name="seven" horiz-adv-x="559" d="M30 699H532V658L200 0H155L488 658H69V549H30V699Z" />
<glyph unicode="8" glyph-name="eight" horiz-adv-x="645" d="M424 702T481 657T539 532Q539 474 507 435T414 375Q489 356 530 310T572 195Q572 102 506 50T323 -3Q206 -3 140 49T73 195Q73 263 115 309T232 375Q172 396 139 436T106 533Q106 612 164 657T323
702Q424 702 481 657ZM240 666T192 630T144 529Q144 465 192 428T323 391Q406 391 453 427T501 529Q501 593 454 629T323 666Q240 666 192 630ZM225 353T169 312T113 199Q113 122 169 79T323 35Q420 35 476 78T532 198Q532 270 476 311T322 353Q225 353 169 312Z"
/>
<glyph unicode="9" glyph-name="nine" horiz-adv-x="639" d="M165 59T210 48T296 37Q411 37 474 123T537 362Q537 393 534 424Q514 346 454 302T304 258Q201 258 142 316T82 476Q82 581 144 641T312 702Q438 702 508 616T578 368Q578 257 545 173T448 43T300 -3Q255
-3 205 9T110 44L128 79Q165 59 210 48ZM230 662T176 612T122 474Q122 392 172 344T309 296Q371 296 418 321T490 389T516 480Q516 521 495 563T428 633T317 662Q230 662 176 612Z" />
<glyph unicode=":" glyph-name="colon" horiz-adv-x="181" d="M104 361T114 351T125 326Q125 310 115 300T90 289Q76 289 66 299T56 326Q56 341 66 351T90 361Q104 361 114 351ZM104 64T114 54T125 29Q125 13 115 3T90 -8Q76 -8 66 2T56 29Q56 44 66 54T90 64Q104
64 114 54Z" />
<glyph unicode=";" glyph-name="semicolon" horiz-adv-x="180" d="M104 361T114 351T125 326Q125 310 115 300T90 289Q76 289 66 299T56 326Q56 341 66 351T90 361Q104 361 114 351ZM106 64T116 54T126 28Q126 19 122 9T116 -4L70 -117H42L80 -5Q70 -1 64 8T58
28Q58 43 68 53T92 64Q106 64 116 54Z" />
<glyph unicode="&lt;" glyph-name="less" horiz-adv-x="484" d="M445 536V497L71 327L445 158V119L39 305V350L445 536Z" />
<glyph unicode="=" glyph-name="equal" horiz-adv-x="484" d="M39 440H445V405H39V440ZM39 237H445V202H39V237Z" />
<glyph unicode="&gt;" glyph-name="greater" horiz-adv-x="484" d="M39 120V159L413 329L39 498V537L445 351V306L39 120Z" />
<glyph unicode="?" glyph-name="question" horiz-adv-x="406" d="M28 601T77 642T205 683Q285 683 334 644T384 528Q384 488 372 459T341 410T292 363Q248 327 226 295T204 211H169Q169 252 181 282T212 332T261 377Q290 402 306 420T333 463T345 524Q345 583
306 613T202 644Q138 644 101 614T59 524L24 526Q28 601 77 642ZM199 64T209 54T220 29Q220 13 210 3T185 -8Q171 -8 161 2T151 29Q151 44 161 54T185 64Q199 64 209 54Z" />
<glyph unicode="@" glyph-name="at" horiz-adv-x="999" d="M728 72T747 50T797 28Q832 28 859 57T902 139T918 262Q918 381 865 476T718 626T504 680Q384 680 288 626T136 477T81 263Q81 150 134 59T280 -83T491 -135Q534 -135 585 -122T673 -87L688 -119Q649
-142 593 -157T491 -172Q365 -172 263 -116T104 40T46 263Q46 392 105 495T269 657T504 716Q632 716 734 658T894 496T952 262Q952 181 933 121T877 27T793 -6Q752 -6 724 22T694 98V150Q665 87 607 50T475 13Q405 13 348 45T259 136T226 267Q226 339 257 397T345
489T472 522Q547 522 605 485T688 389V518H728V110Q728 72 747 50ZM417 481T370 454T295 377T268 268Q268 207 295 159T369 82T477 54Q538 54 585 81T660 158T687 268Q687 328 660 377T585 453T477 481Q417 481 370 454Z" />
<glyph unicode="A" glyph-name="A" horiz-adv-x="771" d="M103 552T177 628T385 704Q518 704 593 628T668 417V0H627V216H145V0H103V417Q103 552 177 628ZM627 533T563 598T386 663Q272 663 209 598T145 417V257H627V417Q627 533 563 598Z" />
<glyph unicode="B" glyph-name="B" horiz-adv-x="725" d="M509 699T566 654T624 526Q624 461 589 419T489 365Q570 355 614 309T659 188Q659 99 593 50T408 0H120V699H406Q509 699 566 654ZM489 382T535 418T582 521Q582 586 536 622T405 658H162V382H405Q489
382 535 418ZM506 41T561 80T617 193Q617 264 562 302T405 341H162V42H405Q506 41 561 80Z" />
<glyph unicode="C" glyph-name="C" horiz-adv-x="703" d="M584 618T527 641T408 664Q321 664 248 622T131 508T88 351Q88 266 131 194T247 80T408 37Q470 37 526 59T628 123L654 94Q605 48 541 22T407 -4Q309 -4 226 43T95 172T46 350Q46 446 94 527T226 656T407
704Q476 704 539 679T653 609L628 577Q584 618 527 641Z" />
<glyph unicode="D" glyph-name="D" horiz-adv-x="803" d="M496 699T578 653T709 526T757 349Q757 254 709 174T578 47T397 0H120V699H398Q496 699 578 653ZM484 41T556 82T671 194T714 349Q714 434 672 504T557 616T397 658H162V41H398Q484 41 556 82Z" />
<glyph unicode="E" glyph-name="E" horiz-adv-x="543" d="M249 349T199 329T120 274T91 193Q91 148 119 112T198 56T311 36Q357 36 411 50T504 85L522 48Q484 25 424 11T309 -4Q234 -4 175 20T82 89T49 189Q49 234 72 273T138 338T233 371Q166 382 123 426T80
529Q80 580 110 620T193 682T313 705Q359 705 408 695T490 667L474 631Q445 645 400 654T315 664Q259 664 215 646T145 596T120 524Q120 485 145 455T214 407T313 390H431V349H313Q249 349 199 329Z" />
<glyph unicode="F" glyph-name="F" horiz-adv-x="499" d="M232 659T188 614T144 495V351H433V309H144V0H103V496Q103 590 157 645T303 700Q350 700 398 689T487 659L473 619Q438 637 392 648T305 659Q232 659 188 614Z" />
<glyph unicode="G" glyph-name="G" horiz-adv-x="758" d="M617 346H655V0H620V78Q575 39 520 18T405 -4Q308 -4 226 44T95 173T46 351Q46 447 95 528T227 656T409 704Q478 704 542 680T656 611L630 580Q586 620 529 642T409 664Q322 664 249 622T132 508T88 351Q88
265 131 193T247 79T408 36Q467 36 521 59T617 124V346Z" />
<glyph unicode="H" glyph-name="H" horiz-adv-x="797" d="M120 699H162V371H635V699H677V0H635V330H162V0H120V699Z" />
<glyph unicode="I" glyph-name="I" horiz-adv-x="456" d="M398 658H249V42H398V0H58V42H207V658H58V699H398V658Z" />
<glyph unicode="J" glyph-name="J" horiz-adv-x="467" d="M364 4T317 -48T183 -101Q129 -101 83 -76T2 -3L25 30Q56 -13 97 -35T183 -58Q251 -58 287 -17T323 103V658H66V699H364V102Q364 4 317 -48Z" />
<glyph unicode="K" glyph-name="K" horiz-adv-x="681" d="M654 0H601L316 356L162 188V0H120V699H162V248L580 699H632L347 389L654 0Z" />
<glyph unicode="L" glyph-name="L" horiz-adv-x="501" d="M120 699H162V41H473V0H120V699Z" />
<glyph unicode="M" glyph-name="M" horiz-adv-x="1220" d="M953 704T1005 672T1087 581T1117 450V0H1075V443Q1075 505 1050 555T979 633T878 661Q810 661 756 629T670 540T639 417V0H597V443Q597 505 572 555T501 633T400 661Q336 661 284 632T200 553T162 440V0H120V704H162V551Q195
622 260 663T409 704Q490 704 550 655T630 525Q658 606 726 655T887 704Q953 704 1005 672Z" />
<glyph unicode="N" glyph-name="N" horiz-adv-x="787" d="M507 704T563 672T652 581T684 450V0H642V443Q642 505 615 555T538 633T426 661Q355 661 297 632T203 553T162 439V0H120V699H162V546Q197 618 269 661T436 704Q507 704 563 672Z" />
<glyph unicode="O" glyph-name="O" horiz-adv-x="816" d="M506 704T589 657T721 528T770 351Q770 255 722 174T590 44T408 -4Q310 -4 227 44T95 173T46 351Q46 447 94 528T226 656T408 704Q506 704 589 657ZM322 663T249 621T132 508T89 351Q89 266 132 194T248
80T408 37Q494 37 567 79T684 194T727 351Q727 436 684 507T568 621T408 663Q322 663 249 621Z" />
<glyph unicode="P" glyph-name="P" horiz-adv-x="664" d="M495 699T565 639T635 469Q635 356 565 295T366 233H162V0H120V699H366Q495 699 565 639ZM475 274T535 324T595 468Q595 560 535 609T365 658H162V274H365Q475 274 535 324Z" />
<glyph unicode="Q" glyph-name="Q" horiz-adv-x="816" d="M770 258T724 178T600 50T427 -4V-133H390V-4Q295 1 217 49T92 178T46 351Q46 447 94 528T226 656T408 704Q506 704 589 657T721 528T770 351Q770 258 724 178ZM509 42T578 85T687 199T727 351Q727 436
684 507T568 621T408 663Q322 663 249 621T132 508T89 351Q89 269 129 199T239 86T390 37V235H427V38Q509 42 578 85Z" />
<glyph unicode="R" glyph-name="R" horiz-adv-x="722" d="M591 0L426 237Q401 233 367 233H162V0H120V699H367Q497 699 567 639T638 469Q638 380 594 323T466 244L641 0H591ZM368 274Q478 274 537 324T597 468Q597 560 538 609T368 658H162V274H368Z" />
<glyph unicode="S" glyph-name="S" horiz-adv-x="599" d="M449 635T400 648T304 661Q221 661 171 628T121 540Q121 492 146 462T209 416T311 379Q382 358 426 338T500 279T530 178Q530 124 500 83T415 19T287 -4Q218 -4 151 24T38 98L60 135Q102 90 164 65T288
39Q379 39 432 76T485 177Q485 226 459 256T395 304T292 340Q220 362 178 381T106 439T76 538Q76 588 104 626T185 684T306 705Q359 705 412 690T506 648L487 610Q449 635 400 648Z" />
<glyph unicode="T" glyph-name="T" horiz-adv-x="613" d="M558 601Q507 627 448 642T327 661V0H285V661Q226 659 166 644T54 601L39 639Q97 670 166 687T305 704Q376 704 445 687T574 638L558 601Z" />
<glyph unicode="U" glyph-name="U" horiz-adv-x="787" d="M667 699V0H625V156Q590 83 518 40T351 -4Q280 -4 224 29T135 121T103 254V699H145V260Q145 197 172 147T249 68T360 39Q432 40 490 70T584 150T625 264V699H667Z" />
<glyph unicode="V" glyph-name="V" horiz-adv-x="640" d="M8 699H55L320 50L586 699H632L342 0H298L8 699Z" />
<glyph unicode="W" glyph-name="W" horiz-adv-x="1195" d="M1092 165T1061 111T974 26T842 -4Q753 -4 687 37T598 146Q575 78 509 37T354 -4Q279 -4 222 26T134 110T103 237V699H145V237Q145 146 203 92T358 37Q424 37 474 61T551 131T578 237V699H619V237Q619
177 646 132T723 62T838 37Q935 37 992 91T1050 237V699H1092V237Q1092 165 1061 111Z" />
<glyph unicode="X" glyph-name="X" horiz-adv-x="638" d="M48 699H97L314 398L532 699H581L340 363L600 0H550L314 326L78 0H29L289 361L48 699Z" />
<glyph unicode="Y" glyph-name="Y" horiz-adv-x="735" d="M632 699V153Q632 80 599 22T506 -68T372 -101Q293 -101 218 -69T106 13L130 44Q165 -1 232 -30T369 -60Q433 -60 483 -33T563 44T592 154V314Q560 243 496 202T350 159Q279 159 223 192T135 283T103 415V699H145V418Q145
356 172 307T247 229T355 201Q419 202 471 230T555 309T592 422V699H632Z" />
<glyph unicode="Z" glyph-name="Z" horiz-adv-x="654" d="M100 41H605V0H49V40L286 332H114V371H317L550 658H62L63 699H601V659L364 367H538V328H333L100 41Z" />
<glyph unicode="[" glyph-name="bracketleft" horiz-adv-x="294" d="M102 742H269V704H141V-86H269V-124H102V742Z" />
<glyph unicode="\" glyph-name="backslash" horiz-adv-x="302" d="M-5 824L304 -127H265L-43 824H-5Z" />
<glyph unicode="]" glyph-name="bracketright" horiz-adv-x="294" d="M192 742V-124H25V-86H153V704H25V742H192Z" />
<glyph unicode="^" glyph-name="asciicircum" horiz-adv-x="491" d="M454 129H415L245 496L76 129H37L223 528H268L454 129Z" />
<glyph unicode="_" glyph-name="underscore" horiz-adv-x="543" d="M0 -172H543V-204H0V-172Z" />
<glyph unicode="`" glyph-name="grave" horiz-adv-x="344" d="M127 743L255 627L213 620L86 723L127 743Z" />
<glyph unicode="a" glyph-name="a" horiz-adv-x="670" d="M565 521V0H524V136Q494 71 436 34T302 -3Q229 -3 171 31T81 124T48 260Q48 336 80 396T170 490T301 524Q378 524 436 487T524 385V521H565ZM369 36T418 65T496 145T524 260Q524 324 496 375T419 455T307
484Q245 484 196 455T118 375T89 260Q89 196 117 145T194 65T307 36Q369 36 418 65Z" />
<glyph unicode="b" glyph-name="b" horiz-adv-x="671" d="M444 522T501 489T591 396T623 260Q623 185 591 126T502 33T372 -1Q296 -1 239 35T151 136V0H109V742H151V384Q181 449 238 485T372 522Q444 522 501 489ZM428 38T477 66T554 145T582 260Q582 324 555
374T478 454T366 483Q304 483 255 454T179 375T151 260Q151 196 178 146T255 67T366 38Q428 38 477 66Z" />
<glyph unicode="c" glyph-name="c" horiz-adv-x="559" d="M397 482T304 482Q242 482 193 454T117 376T89 261Q89 196 116 145T193 66T304 38Q356 38 400 57T474 111L499 84Q464 43 414 21T303 -1Q230 -1 172 32T81 125T48 260Q48 335 81 395T172 488T303 522Q359
522 406 503T489 449L465 419Q397 482 304 482Z" />
<glyph unicode="d" glyph-name="d" horiz-adv-x="675" d="M566 742V0H524V136Q494 71 436 34T302 -3Q229 -3 171 31T81 124T48 260Q48 336 80 396T170 490T301 524Q378 524 436 487T524 385V742H566ZM369 36T418 65T496 145T524 260Q524 324 496 375T419 455T307
484Q245 484 196 455T118 375T89 260Q89 196 117 145T194 65T307 36Q369 36 418 65Z" />
<glyph unicode="e" glyph-name="e" d="M419 37T488 128L516 104Q434 -1 306 -1Q232 -1 173 32T81 125T48 261Q48 335 80 394T171 488T303 522Q389 522 451 475T532 346L101 181Q123 115 178 76T308 37Q419 37 488 128ZM241 483T193 456T117 378T89 262Q89 236
93 217L487 368Q466 423 418 453T304 483Q241 483 193 456Z" />
<glyph unicode="f" glyph-name="f" horiz-adv-x="283" d="M195 711T163 677T130 587V508H292V472H130V0H89V583Q89 632 109 670T164 729T239 751Q286 751 329 727L315 691Q277 711 244 711Q195 711 163 677Z" />
<glyph unicode="g" glyph-name="g" horiz-adv-x="632" d="M542 521V57Q542 -19 511 -76T423 -164T290 -195Q229 -195 178 -174T79 -110L101 -79Q143 -117 188 -136T289 -156Q386 -156 444 -99T502 56V155Q475 92 419 57T289 21Q220 21 165 53T79 142T48 271Q48
343 79 400T164 489T288 522Q362 522 418 486T502 387V521H542ZM353 57T400 84T475 160T502 270Q502 331 475 380T401 456T294 484Q235 484 188 457T114 380T87 270Q87 209 113 161T187 85T294 57Q353 57 400 84Z" />
<glyph unicode="h" glyph-name="h" horiz-adv-x="654" d="M460 522T513 468T567 318V0H525V310Q525 390 480 435T355 480Q259 478 205 418T151 255V0H109V742H151V385Q177 451 231 485T365 522Q460 522 513 468Z" />
<glyph unicode="i" glyph-name="i" horiz-adv-x="250" d="M104 521H145V0H104V521ZM139 707T149 697T160 671Q160 655 150 645T125 634Q111 634 101 644T90 671Q90 686 100 696T125 707Q139 707 149 697Z" />
<glyph unicode="j" glyph-name="j" horiz-adv-x="231" d="M-20 -153T10 -155Q54 -156 77 -123T100 -25V521H141V-29Q141 -110 110 -152T17 -194Q-17 -194 -55 -179L-44 -144Q-20 -153 10 -155ZM135 707T145 697T156 671Q156 655 146 645T121 634Q107 634 97 644T86
671Q86 686 96 696T121 707Q135 707 145 697Z" />
<glyph unicode="k" glyph-name="k" horiz-adv-x="551" d="M488 0L283 289L151 153V0H109V742H151V213L459 521H510L313 319L536 0H488Z" />
<glyph unicode="l" glyph-name="l" horiz-adv-x="270" d="M136 40T189 40Q219 40 247 67L261 34Q221 -1 182 -1Q142 -1 119 26T96 104V742H136V108Q136 40 189 40Z" />
<glyph unicode="m" glyph-name="m" horiz-adv-x="1045" d="M853 522T905 468T958 318V0H917V310Q917 390 873 435T750 480Q657 478 605 418T552 255V0H511V310Q511 390 467 435T344 480Q251 478 198 418T145 255V0H104V521H145V384Q170 451 223 485T355 522Q433
522 483 483T547 371Q571 444 625 482T760 522Q853 522 905 468Z" />
<glyph unicode="n" glyph-name="n" horiz-adv-x="648" d="M454 522T507 468T561 318V0H519V310Q519 390 474 435T349 480Q260 478 207 426T146 282V0H104V521H146V388Q172 452 226 486T359 522Q454 522 507 468Z" />
<glyph unicode="o" glyph-name="o" horiz-adv-x="610" d="M379 522T437 489T529 396T562 261Q562 185 529 126T438 33T305 -1Q232 -1 174 32T82 125T48 261Q48 336 81 395T173 488T305 522Q379 522 437 489ZM243 482T194 454T117 376T89 261Q89 196 117 145T194
66T305 38Q367 38 416 66T493 145T521 261Q521 325 494 375T417 454T305 482Q243 482 194 454Z" />
<glyph unicode="p" glyph-name="p" horiz-adv-x="671" d="M444 522T501 489T591 396T623 260Q623 185 591 126T502 33T372 -1Q296 -1 239 35T151 136V-194H109V521H151V384Q181 449 238 485T372 522Q444 522 501 489ZM428 38T477 66T554 145T582 260Q582 324 555
374T478 454T366 483Q304 483 255 454T179 375T151 260Q151 196 178 146T255 67T366 38Q428 38 477 66Z" />
<glyph unicode="q" glyph-name="q" horiz-adv-x="675" d="M566 521V-194H524V136Q494 71 436 34T302 -3Q229 -3 171 31T81 124T48 260Q48 336 80 396T170 490T301 524Q378 524 436 487T524 385V521H566ZM369 36T418 65T496 145T524 260Q524 324 496 375T419 455T307
484Q245 484 196 455T118 375T89 260Q89 196 117 145T194 65T307 36Q369 36 418 65Z" />
<glyph unicode="r" glyph-name="r" horiz-adv-x="350" d="M171 453T220 486T340 522V479Q255 479 204 427T146 282V0H104V521H146V390Q171 453 220 486Z" />
<glyph unicode="s" glyph-name="s" horiz-adv-x="437" d="M300 484T226 484Q168 484 132 462T96 394Q96 364 114 344T159 313T232 288Q287 271 320 256T376 213T400 139Q400 70 348 35T219 -1Q164 -1 114 18T28 71L47 103Q81 71 126 54T221 37Q281 37 320 62T360
135Q360 167 342 187T295 220T220 246Q166 263 134 277T79 319T56 391Q56 456 104 489T227 522Q309 522 376 481L358 447Q300 484 226 484Z" />
<glyph unicode="t" glyph-name="t" horiz-adv-x="340" d="M317 36Q264 -1 209 -1Q152 -1 121 40T90 164V637H131V508H307V472H131V169Q131 40 214 40Q258 40 301 70L317 36Z" />
<glyph unicode="u" glyph-name="u" horiz-adv-x="641" d="M536 521V0H495V139Q470 71 417 36T286 -1Q192 -1 140 53T87 203V521H128V211Q128 131 172 86T295 41Q389 43 442 103T495 266V521H536Z" />
<glyph unicode="v" glyph-name="v" horiz-adv-x="471" d="M8 521H53L241 45L428 521H472L262 0H219L8 521Z" />
<glyph unicode="w" glyph-name="w" horiz-adv-x="960" d="M875 109T820 54T674 -1Q604 -1 552 33T481 123Q462 67 409 33T286 -1Q195 -1 140 54T85 200V521H126V202Q126 129 171 85T291 41Q368 41 414 84T460 202V521H501V202Q501 129 547 85T670 41Q744 41 789
85T834 202V521H875V200Q875 109 820 54Z" />
<glyph unicode="x" glyph-name="x" horiz-adv-x="503" d="M42 521H90L251 300L412 521H459L277 269L472 0H424L250 237L75 0H27L224 269L42 521Z" />
<glyph unicode="y" glyph-name="y" horiz-adv-x="633" d="M543 521V58Q543 -61 479 -128T302 -194Q241 -192 187 -168T92 -102L111 -70Q150 -108 199 -130T301 -154Q396 -155 449 -99T502 59V178Q476 114 423 80T293 44Q196 44 142 98T87 249V521H128V257Q128
176 173 131T299 86Q395 88 448 148T502 313V521H543Z" />
<glyph unicode="z" glyph-name="z" horiz-adv-x="516" d="M105 38L468 37V-1L58 0V38L224 245H98V282H254L414 482L67 483V521L461 520V482L298 279H430V242H269L105 38Z" />
<glyph unicode="{" glyph-name="braceleft" horiz-adv-x="323" d="M180 359T169 341T130 308Q157 294 168 276T180 220V-9Q180 -50 205 -69T285 -88V-126H272Q204 -126 173 -100T142 -18V221Q142 256 129 272T89 289H68V327H89Q116 327 129 343T142 395V634Q142
690 173 716T272 742H285V704Q230 704 205 685T180 625V396Q180 359 169 341Z" />
<glyph unicode="|" glyph-name="bar" horiz-adv-x="231" d="M98 821H133V-126H98V821Z" />
<glyph unicode="}" glyph-name="braceright" horiz-adv-x="323" d="M255 327V289H234Q207 289 194 273T181 221V-18Q181 -74 150 -100T51 -126H38V-88Q93 -88 118 -69T143 -9V220Q143 257 154 275T193 308Q166 322 155 340T143 396V625Q143 666 118 685T38 704V742H51Q119
742 150 716T181 634V395Q181 360 194 344T234 327H255Z" />
<glyph unicode="~" glyph-name="asciitilde" horiz-adv-x="484" d="M406 314T386 290T330 265Q306 265 286 273T233 301Q210 316 193 323T160 331Q138 331 126 316T113 274H79Q79 319 99 344T155 369Q176 369 197 360T248 333Q274 318 291 310T325 302Q348 302
360 317T373 359H406Q406 314 386 290Z" />
<glyph unicode="&#xa0;" glyph-name="uni00A0" horiz-adv-x="287" />
<glyph unicode="&#xa1;" glyph-name="exclamdown" horiz-adv-x="196" d="M88 456T78 466T67 491Q67 507 77 517T102 528Q116 528 126 518T136 491Q136 476 126 466T102 456Q88 456 78 466ZM122 -164H82V0L86 323H117L122 0V-164Z" />
<glyph unicode="&#xa2;" glyph-name="cent" horiz-adv-x="600" d="M467 46T422 25T322 0V-139H287V-1Q218 3 164 37T79 130T48 260Q48 332 78 390T163 483T287 522V661H322V521Q372 518 414 500T489 449L465 419Q397 482 304 482Q242 482 193 454T117 376T89 261Q89
196 116 145T193 66T304 38Q356 38 400 57T474 111L499 84Q467 46 422 25Z" />
<glyph unicode="&#xa3;" glyph-name="sterling" horiz-adv-x="535" d="M182 39H490V0H49V39H140V328H49V359H140V497Q140 595 187 648T321 701Q373 701 419 676T501 604L479 571Q448 614 409 636T324 659Q255 659 219 618T182 497V359H370V328H182V39Z" />
<glyph unicode="&#xa4;" glyph-name="currency" horiz-adv-x="723" d="M641 266T622 220T569 137L674 31L649 4L541 112Q503 82 457 66T361 49Q311 49 266 65T183 113L74 4L48 31L155 138Q121 175 103 221T84 317Q84 368 102 414T155 497L48 604L74 631L182 523Q218
554 264 571T361 588Q412 588 458 572T541 524L649 631L674 604L569 498Q603 461 622 415T641 317Q641 266 622 220ZM120 255T152 203T240 119T361 88Q427 88 483 119T572 202T605 317Q605 380 572 433T483 517T361 549Q296 549 241 518T153 433T120 317Q120 255
152 203Z" />
<glyph unicode="&#xa5;" glyph-name="yen" horiz-adv-x="612" d="M605 699L346 283H545V252H329V170H545V140H329V0H287V140H72V170H287V252H72V283H270L8 699H53L308 306L559 699H605Z" />
<glyph unicode="&#xa6;" glyph-name="brokenbar" horiz-adv-x="231" d="M98 821H133V469H98V821ZM98 225H133V-126H98V225Z" />
<glyph unicode="&#xa7;" glyph-name="section" horiz-adv-x="446" d="M309 659T234 659Q172 659 135 635T98 568Q98 536 117 516T165 483T242 456Q296 439 330 424T387 382T410 312Q410 260 374 224T291 181Q349 161 376 130T403 55Q403 -7 353 -44T222 -81Q164
-81 114 -62T28 -8L47 21Q82 -11 126 -28T220 -46Q282 -46 324 -19T366 55Q366 87 347 107T300 140T223 167Q167 185 134 199T78 241T55 312Q55 365 92 396T197 435Q125 459 93 490T61 566Q61 625 108 659T233 694Q317 694 383 652L366 622Q309 659 234 659ZM167
407T130 383T92 319Q92 290 113 264T171 222T246 206Q300 206 336 234T372 307Q372 352 334 379T229 407Q167 407 130 383Z" />
<glyph unicode="&#xa8;" glyph-name="dieresis" horiz-adv-x="307" d="M98 705T108 695T118 670Q118 656 108 646T84 635Q71 635 61 645T51 670Q51 685 60 695T84 705Q98 705 108 695ZM255 705T264 695T274 670Q274 656 264 646T241 635Q227 635 217 645T207 670Q207
685 217 695T241 705Q255 705 264 695Z" />
<glyph unicode="&#xa9;" glyph-name="copyright" horiz-adv-x="770" d="M478 689T555 644T678 520T723 350Q723 259 678 181T555 56T383 9Q290 9 213 55T91 179T46 348Q46 439 91 517T213 642T385 689Q478 689 555 644ZM299 659T228 617T116 504T75 348Q75 264
115 193T226 81T383 39Q470 39 541 81T654 194T695 350Q695 434 654 505T542 617T385 659Q299 659 228 617ZM478 477T450 488T390 500Q347 500 311 480T253 425T232 349Q232 308 253 273T310 218T390 197Q420 197 449 208T500 239L518 220Q492 196 458 182T388
168Q338 168 296 192T228 258T203 349Q203 398 228 439T296 504T390 528Q426 528 459 515T518 478L500 457Q478 477 450 488Z" />
<glyph unicode="&#xaa;" glyph-name="ordfeminine" horiz-adv-x="375" d="M277 458V519Q237 457 150 457Q104 457 76 482T47 546Q47 585 78 606T166 628H276V657Q275 694 252 714T184 734Q133 734 75 697L64 723Q128 764 190 764Q246 764 277 736T309 660L310
458H277ZM243 483T277 554L276 606H171Q127 606 104 592T80 549Q80 520 101 502T159 483Q243 483 277 554Z" />
<glyph unicode="&#xab;" glyph-name="guillemotleft" horiz-adv-x="398" d="M161 411H201L93 250L201 92H161L50 250L161 411ZM289 411H329L221 250L329 92H289L178 250L289 411Z" />
<glyph unicode="&#xac;" glyph-name="logicalnot" horiz-adv-x="540" d="M450 371V156H416V336H39V371H450Z" />
<glyph unicode="&#xad;" glyph-name="uni00AD" horiz-adv-x="359" d="M68 318H291V284H68V318Z" />
<glyph unicode="&#xae;" glyph-name="registered" horiz-adv-x="770" d="M478 689T555 644T678 520T723 350Q723 259 678 181T555 56T383 9Q290 9 213 55T91 179T46 348Q46 439 91 517T213 642T385 689Q478 689 555 644ZM470 39T541 81T654 194T695 350Q695 434
654 505T542 617T385 659Q299 659 228 617T116 504T75 348Q75 264 115 193T226 81T383 39Q470 39 541 81ZM533 373T511 343T445 300L536 173H502L417 295Q399 293 389 293H285V173H257V539H389Q458 539 495 508T533 419Q533 373 511 343ZM389 320Q444 320 474 346T505
419Q505 464 475 488T389 512H285V320H389Z" />
<glyph unicode="&#xaf;" glyph-name="overscore" horiz-adv-x="350" d="M43 687H308V654H43V687Z" />
<glyph unicode="&#xb0;" glyph-name="degree" horiz-adv-x="310" d="M236 799T270 766T304 689Q304 645 270 612T190 579Q144 579 111 612T77 689Q77 733 110 766T190 799Q236 799 270 766ZM155 772T129 747T103 689Q103 656 129 632T190 607Q226 607 251 631T277
689Q277 722 252 747T190 772Q155 772 129 747Z" />
<glyph unicode="&#xb1;" glyph-name="plusminus" horiz-adv-x="484" d="M258 391H445V357H258V171H226V357H39V391H226V577H258V391ZM39 47V81H445V47H39Z" />
<glyph unicode="&#xb2;" glyph-name="uni00B2" horiz-adv-x="331" d="M243 624T243 668Q243 702 219 721T152 741Q122 741 91 727T34 689L18 715Q47 742 82 757T155 772Q211 772 244 745T278 672Q278 643 259 609T204 539L62 391H306V360H20V390L181 559Q243 624
243 668Z" />
<glyph unicode="&#xb3;" glyph-name="uni00B3" horiz-adv-x="331" d="M219 591T255 562T291 481Q291 424 252 390T146 355Q111 355 77 365T18 394L34 423Q57 405 85 395T144 384Q197 384 227 410T257 481Q257 523 227 545T143 567H94V590L230 737H36V766H271V743L134
593L159 592Q219 591 255 562Z" />
<glyph unicode="&#xb4;" glyph-name="acute" horiz-adv-x="350" d="M222 743L263 723L136 620L94 627L222 743Z" />
<glyph unicode="&#xb5;" glyph-name="uni00B5" horiz-adv-x="663" d="M559 521V0H518V139Q493 71 440 36T309 -1Q257 -1 217 16T151 66V-194H110V521H151V211Q151 131 195 86T318 41Q412 43 465 103T518 266V521H559Z" />
<glyph unicode="&#xb6;" glyph-name="paragraph" horiz-adv-x="570" d="M183 402T173 402Q111 402 74 428T21 492T5 568Q5 641 55 691T208 742H450V-111H415V709H244V-111H209V404Q183 402 173 402Z" />
<glyph unicode="&#xb7;" glyph-name="middot" horiz-adv-x="182" d="M105 308T115 298T126 272Q126 256 116 246T91 235Q77 235 67 245T56 272Q56 287 66 297T91 308Q105 308 115 298Z" />
<glyph unicode="&#xb8;" glyph-name="cedilla" horiz-adv-x="263" d="M170 0L153 -55Q192 -57 213 -78T234 -130Q234 -166 209 -190T139 -214Q119 -214 97 -208T61 -193L73 -161Q85 -169 103 -174T136 -179Q166 -179 182 -164T198 -127Q198 -108 183 -94T142 -80H113L138
6L170 0Z" />
<glyph unicode="&#xb9;" glyph-name="uni00B9" horiz-adv-x="213" d="M9 768H132V360H97V737H9V768Z" />
<glyph unicode="&#xba;" glyph-name="ordmasculine" horiz-adv-x="398" d="M268 764T312 721T357 611Q357 543 313 500T199 457Q130 457 86 500T42 611Q42 678 86 721T199 764Q268 764 312 721ZM145 733T110 699T75 610Q75 556 110 522T199 487Q253 487 287 521T322
610Q322 665 288 699T199 733Q145 733 110 699Z" />
<glyph unicode="&#xbb;" glyph-name="guillemotright" horiz-adv-x="400" d="M109 92H69L177 253L69 411H109L220 253L109 92ZM237 92H197L305 253L197 411H237L348 253L237 92Z" />
<glyph unicode="&#xbc;" glyph-name="onequarter" horiz-adv-x="666" d="M9 699H132V291H97V668H9V699ZM530 699H570L37 0H-3L530 699ZM506 408H541L386 141H554V261H588V141H653V112H588V0H554V112H351V143L506 408Z" />
<glyph unicode="&#xbd;" glyph-name="onehalf" horiz-adv-x="681" d="M264 699H387V291H352V668H264V699ZM530 699H570L37 0H-3L530 699ZM592 264T592 308Q592 342 568 361T501 381Q471 381 440 367T383 329L367 355Q396 382 431 397T504 412Q560 412 593 385T627
312Q627 283 608 249T553 179L411 31H655V0H369V30L530 199Q592 264 592 308Z" />
<glyph unicode="&#xbe;" glyph-name="threequarters" horiz-adv-x="754" d="M219 523T255 494T291 413Q291 356 252 322T146 287Q111 287 77 297T18 326L34 355Q57 337 85 327T144 316Q197 316 227 342T257 413Q257 455 227 477T143 499H94V522L230 669H36V698H271V675L134
525L159 524Q219 523 255 494ZM618 699H658L125 0H85L618 699ZM594 408H629L474 141H642V261H676V141H741V112H676V0H642V112H439V143L594 408Z" />
<glyph unicode="&#xbf;" glyph-name="questiondown" horiz-adv-x="406" d="M207 456T197 466T186 491Q186 507 196 517T221 528Q235 528 245 518T255 491Q255 476 245 466T221 456Q207 456 197 466ZM378 -81T329 -122T201 -163Q121 -163 72 -124T22 -8Q22 32 34
61T65 110T114 157Q158 193 180 225T202 309H237Q237 268 225 238T194 188T145 143Q116 118 100 100T73 57T61 -4Q61 -63 100 -93T204 -124Q268 -124 305 -94T347 -4L382 -6Q378 -81 329 -122Z" />
<glyph unicode="&#xc0;" glyph-name="Agrave" horiz-adv-x="771" d="M103 552T177 628T385 704Q518 704 593 628T668 417V0H627V216H145V0H103V417Q103 552 177 628ZM627 533T563 598T386 663Q272 663 209 598T145 417V257H627V417Q627 533 563 598ZM305 894L433
778L391 771L264 874L305 894Z" />
<glyph unicode="&#xc1;" glyph-name="Aacute" horiz-adv-x="771" d="M103 552T177 628T385 704Q518 704 593 628T668 417V0H627V216H145V0H103V417Q103 552 177 628ZM627 533T563 598T386 663Q272 663 209 598T145 417V257H627V417Q627 533 563 598ZM479 894L520
874L393 771L351 778L479 894Z" />
<glyph unicode="&#xc2;" glyph-name="Acircumflex" horiz-adv-x="771" d="M103 552T177 628T385 704Q518 704 593 628T668 417V0H627V216H145V0H103V417Q103 552 177 628ZM627 533T563 598T386 663Q272 663 209 598T145 417V257H627V417Q627 533 563 598ZM511
773H466L386 858L306 773H261L361 890H411L511 773Z" />
<glyph unicode="&#xc3;" glyph-name="Atilde" horiz-adv-x="771" d="M103 552T177 628T385 704Q518 704 593 628T668 417V0H627V216H145V0H103V417Q103 552 177 628ZM627 533T563 598T386 663Q272 663 209 598T145 417V257H627V417Q627 533 563 598ZM525 825T506
799T451 772Q431 772 416 780T380 805Q363 819 351 826T324 833Q302 833 291 818T279 776H247Q247 818 266 844T321 870Q341 870 356 862T392 837Q409 823 421 816T448 809Q470 809 481 824T493 866H525Q525 825 506 799Z" />
<glyph unicode="&#xc4;" glyph-name="Adieresis" horiz-adv-x="771" d="M103 552T177 628T385 704Q518 704 593 628T668 417V0H627V216H145V0H103V417Q103 552 177 628ZM627 533T563 598T386 663Q272 663 209 598T145 417V257H627V417Q627 533 563 598ZM321 842T331
832T341 807Q341 792 331 782T307 771Q293 771 283 781T273 807Q273 821 283 831T307 842Q321 842 331 832ZM478 842T488 832T498 807Q498 792 489 782T465 771Q451 771 441 781T431 807Q431 821 441 831T465 842Q478 842 488 832Z" />
<glyph unicode="&#xc5;" glyph-name="Aring" horiz-adv-x="771" d="M103 552T177 628T385 704Q518 704 593 628T668 417V0H627V216H145V0H103V417Q103 552 177 628ZM627 533T563 598T386 663Q272 663 209 598T145 417V257H627V417Q627 533 563 598ZM424 944T452
916T480 851Q480 813 452 786T385 758Q347 758 319 785T291 851Q291 888 319 916T385 944Q424 944 452 916ZM357 915T337 896T317 851Q317 825 337 806T385 787Q412 787 432 806T453 851Q453 877 433 896T385 915Q357 915 337 896Z" />
<glyph unicode="&#xc6;" glyph-name="AE" horiz-adv-x="1001" d="M516 42H939V0H475V211H180L54 0H8L426 699H926V658H516V379H881V337H516V42ZM202 249H475V660H447L202 249Z" />
<glyph unicode="&#xc7;" glyph-name="Ccedilla" horiz-adv-x="703" d="M441 -57T462 -78T483 -130Q483 -166 458 -190T388 -214Q368 -214 346 -208T310 -193L322 -161Q334 -169 352 -174T385 -179Q415 -179 431 -164T447 -127Q447 -108 432 -94T391 -80H362L384
-3Q291 2 214 51T91 179T46 350Q46 446 94 527T226 656T407 704Q476 704 539 679T653 609L628 577Q584 618 527 641T408 664Q321 664 248 622T131 508T88 351Q88 266 131 194T247 80T408 37Q470 37 526 59T628 123L654 94Q607 50 546 24T418 -4L402 -55Q441 -57
462 -78Z" />
<glyph unicode="&#xc8;" glyph-name="Egrave" horiz-adv-x="543" d="M249 349T199 329T120 274T91 193Q91 148 119 112T198 56T311 36Q357 36 411 50T504 85L522 48Q484 25 424 11T309 -4Q234 -4 175 20T82 89T49 189Q49 234 72 273T138 338T233 371Q166 382 123
426T80 529Q80 580 110 620T193 682T313 705Q359 705 408 695T490 667L474 631Q445 645 400 654T315 664Q259 664 215 646T145 596T120 524Q120 485 145 455T214 407T313 390H431V349H313Q249 349 199 329ZM230 894L358 778L316 771L189 874L230 894Z" />
<glyph unicode="&#xc9;" glyph-name="Eacute" horiz-adv-x="543" d="M249 349T199 329T120 274T91 193Q91 148 119 112T198 56T311 36Q357 36 411 50T504 85L522 48Q484 25 424 11T309 -4Q234 -4 175 20T82 89T49 189Q49 234 72 273T138 338T233 371Q166 382 123
426T80 529Q80 580 110 620T193 682T313 705Q359 705 408 695T490 667L474 631Q445 645 400 654T315 664Q259 664 215 646T145 596T120 524Q120 485 145 455T214 407T313 390H431V349H313Q249 349 199 329ZM404 894L445 874L318 771L276 778L404 894Z" />
<glyph unicode="&#xca;" glyph-name="Ecircumflex" horiz-adv-x="543" d="M249 349T199 329T120 274T91 193Q91 148 119 112T198 56T311 36Q357 36 411 50T504 85L522 48Q484 25 424 11T309 -4Q234 -4 175 20T82 89T49 189Q49 234 72 273T138 338T233 371Q166
382 123 426T80 529Q80 580 110 620T193 682T313 705Q359 705 408 695T490 667L474 631Q445 645 400 654T315 664Q259 664 215 646T145 596T120 524Q120 485 145 455T214 407T313 390H431V349H313Q249 349 199 329ZM436 773H391L311 858L231 773H186L286 890H336L436
773Z" />
<glyph unicode="&#xcb;" glyph-name="Edieresis" horiz-adv-x="543" d="M249 349T199 329T120 274T91 193Q91 148 119 112T198 56T311 36Q357 36 411 50T504 85L522 48Q484 25 424 11T309 -4Q234 -4 175 20T82 89T49 189Q49 234 72 273T138 338T233 371Q166 382
123 426T80 529Q80 580 110 620T193 682T313 705Q359 705 408 695T490 667L474 631Q445 645 400 654T315 664Q259 664 215 646T145 596T120 524Q120 485 145 455T214 407T313 390H431V349H313Q249 349 199 329ZM246 842T256 832T266 807Q266 792 256 782T232 771Q218
771 208 781T198 807Q198 821 208 831T232 842Q246 842 256 832ZM403 842T413 832T423 807Q423 792 414 782T390 771Q376 771 366 781T356 807Q356 821 366 831T390 842Q403 842 413 832Z" />
<glyph unicode="&#xcc;" glyph-name="Igrave" horiz-adv-x="456" d="M398 658H249V42H398V0H58V42H207V658H58V699H398V658ZM147 894L275 778L233 771L106 874L147 894Z" />
<glyph unicode="&#xcd;" glyph-name="Iacute" horiz-adv-x="456" d="M398 658H249V42H398V0H58V42H207V658H58V699H398V658ZM321 894L362 874L235 771L193 778L321 894Z" />
<glyph unicode="&#xce;" glyph-name="Icircumflex" horiz-adv-x="456" d="M398 658H249V42H398V0H58V42H207V658H58V699H398V658ZM353 773H308L228 858L148 773H103L203 890H253L353 773Z" />
<glyph unicode="&#xcf;" glyph-name="Idieresis" horiz-adv-x="456" d="M398 658H249V42H398V0H58V42H207V658H58V699H398V658ZM163 842T173 832T183 807Q183 792 173 782T149 771Q135 771 125 781T115 807Q115 821 125 831T149 842Q163 842 173 832ZM320 842T330
832T340 807Q340 792 331 782T307 771Q293 771 283 781T273 807Q273 821 283 831T307 842Q320 842 330 832Z" />
<glyph unicode="&#xd0;" glyph-name="Eth" horiz-adv-x="803" d="M497 699T579 653T709 526T757 349Q757 254 709 174T578 47T397 0H120V334H49V366H120V699H398Q497 699 579 653ZM484 42T557 83T672 194T715 349Q715 434 673 504T557 616T397 658H162V366H427V334H162V42H398Q484
42 557 83Z" />
<glyph unicode="&#xd1;" glyph-name="Ntilde" horiz-adv-x="787" d="M507 704T563 672T652 581T684 450V0H642V443Q642 505 615 555T538 633T426 661Q355 661 297 632T203 553T162 439V0H120V699H162V546Q197 618 269 661T436 704Q507 704 563 672ZM543 825T524
799T469 772Q449 772 434 780T398 805Q381 819 369 826T342 833Q320 833 309 818T297 776H265Q265 818 284 844T339 870Q359 870 374 862T410 837Q427 823 439 816T466 809Q488 809 499 824T511 866H543Q543 825 524 799Z" />
<glyph unicode="&#xd2;" glyph-name="Ograve" horiz-adv-x="816" d="M506 704T589 657T721 528T770 351Q770 255 722 174T590 44T408 -4Q310 -4 227 44T95 173T46 351Q46 447 94 528T226 656T408 704Q506 704 589 657ZM322 663T249 621T132 508T89 351Q89 266
132 194T248 80T408 37Q494 37 567 79T684 194T727 351Q727 436 684 507T568 621T408 663Q322 663 249 621ZM327 894L455 778L413 771L286 874L327 894Z" />
<glyph unicode="&#xd3;" glyph-name="Oacute" horiz-adv-x="816" d="M506 704T589 657T721 528T770 351Q770 255 722 174T590 44T408 -4Q310 -4 227 44T95 173T46 351Q46 447 94 528T226 656T408 704Q506 704 589 657ZM322 663T249 621T132 508T89 351Q89 266
132 194T248 80T408 37Q494 37 567 79T684 194T727 351Q727 436 684 507T568 621T408 663Q322 663 249 621ZM501 894L542 874L415 771L373 778L501 894Z" />
<glyph unicode="&#xd4;" glyph-name="Ocircumflex" horiz-adv-x="816" d="M506 704T589 657T721 528T770 351Q770 255 722 174T590 44T408 -4Q310 -4 227 44T95 173T46 351Q46 447 94 528T226 656T408 704Q506 704 589 657ZM322 663T249 621T132 508T89 351Q89
266 132 194T248 80T408 37Q494 37 567 79T684 194T727 351Q727 436 684 507T568 621T408 663Q322 663 249 621ZM533 773H488L408 858L328 773H283L383 890H433L533 773Z" />
<glyph unicode="&#xd5;" glyph-name="Otilde" horiz-adv-x="816" d="M506 704T589 657T721 528T770 351Q770 255 722 174T590 44T408 -4Q310 -4 227 44T95 173T46 351Q46 447 94 528T226 656T408 704Q506 704 589 657ZM322 663T249 621T132 508T89 351Q89 266
132 194T248 80T408 37Q494 37 567 79T684 194T727 351Q727 436 684 507T568 621T408 663Q322 663 249 621ZM547 825T528 799T473 772Q453 772 438 780T402 805Q385 819 373 826T346 833Q324 833 313 818T301 776H269Q269 818 288 844T343 870Q363 870 378 862T414
837Q431 823 443 816T470 809Q492 809 503 824T515 866H547Q547 825 528 799Z" />
<glyph unicode="&#xd6;" glyph-name="Odieresis" horiz-adv-x="816" d="M506 704T589 657T721 528T770 351Q770 255 722 174T590 44T408 -4Q310 -4 227 44T95 173T46 351Q46 447 94 528T226 656T408 704Q506 704 589 657ZM322 663T249 621T132 508T89 351Q89 266
132 194T248 80T408 37Q494 37 567 79T684 194T727 351Q727 436 684 507T568 621T408 663Q322 663 249 621ZM343 842T353 832T363 807Q363 792 353 782T329 771Q315 771 305 781T295 807Q295 821 305 831T329 842Q343 842 353 832ZM500 842T510 832T520 807Q520
792 511 782T487 771Q473 771 463 781T453 807Q453 821 463 831T487 842Q500 842 510 832Z" />
<glyph unicode="&#xd7;" glyph-name="multiply" horiz-adv-x="484" d="M397 453L266 321L397 190L374 165L242 297L110 165L87 190L218 321L87 453L110 477L242 345L374 477L397 453Z" />
<glyph unicode="&#xd8;" glyph-name="Oslash" horiz-adv-x="816" d="M694 579T732 507T770 350Q770 255 722 174T590 46T408 -1Q302 -1 214 54L135 -55H97L188 71Q122 120 84 193T46 350Q46 445 94 525T226 653T408 700Q513 700 602 646L681 755H720L628 628Q694
579 732 507ZM89 277T122 213T213 105L578 612Q500 659 408 659Q322 659 249 618T132 505T89 350Q89 277 122 213ZM494 40T567 82T684 195T727 350Q727 423 694 486T604 594L238 88Q316 40 408 40Q494 40 567 82Z" />
<glyph unicode="&#xd9;" glyph-name="Ugrave" horiz-adv-x="787" d="M667 699V0H625V156Q590 83 518 40T351 -4Q280 -4 224 29T135 121T103 254V699H145V260Q145 197 172 147T249 68T360 39Q432 40 490 70T584 150T625 264V699H667ZM313 894L441 778L399 771L272
874L313 894Z" />
<glyph unicode="&#xda;" glyph-name="Uacute" horiz-adv-x="787" d="M667 699V0H625V156Q590 83 518 40T351 -4Q280 -4 224 29T135 121T103 254V699H145V260Q145 197 172 147T249 68T360 39Q432 40 490 70T584 150T625 264V699H667ZM487 894L528 874L401 771L359
778L487 894Z" />
<glyph unicode="&#xdb;" glyph-name="Ucircumflex" horiz-adv-x="787" d="M667 699V0H625V156Q590 83 518 40T351 -4Q280 -4 224 29T135 121T103 254V699H145V260Q145 197 172 147T249 68T360 39Q432 40 490 70T584 150T625 264V699H667ZM519 773H474L394 858L314
773H269L369 890H419L519 773Z" />
<glyph unicode="&#xdc;" glyph-name="Udieresis" horiz-adv-x="787" d="M667 699V0H625V156Q590 83 518 40T351 -4Q280 -4 224 29T135 121T103 254V699H145V260Q145 197 172 147T249 68T360 39Q432 40 490 70T584 150T625 264V699H667ZM329 842T339 832T349 807Q349
792 339 782T315 771Q301 771 291 781T281 807Q281 821 291 831T315 842Q329 842 339 832ZM486 842T496 832T506 807Q506 792 497 782T473 771Q459 771 449 781T439 807Q439 821 449 831T473 842Q486 842 496 832Z" />
<glyph unicode="&#xdd;" glyph-name="Yacute" horiz-adv-x="735" d="M632 699V153Q632 80 599 22T506 -68T372 -101Q293 -101 218 -69T106 13L130 44Q165 -1 232 -30T369 -60Q433 -60 483 -33T563 44T592 154V314Q560 243 496 202T350 159Q279 159 223 192T135
283T103 415V699H145V418Q145 356 172 307T247 229T355 201Q419 202 471 230T555 309T592 422V699H632ZM461 894L502 874L375 771L333 778L461 894Z" />
<glyph unicode="&#xde;" glyph-name="Thorn" horiz-adv-x="666" d="M488 590T562 534T637 367Q637 253 563 195T340 137H162V0H120V699H162V590H340Q488 590 562 534ZM594 176T594 366Q594 459 531 505T339 551H162V176H339Q594 176 594 366Z" />
<glyph unicode="&#xdf;" glyph-name="germandbls" horiz-adv-x="643" d="M103 569T131 625T210 712T331 743Q426 743 483 693T540 558Q540 490 501 441T398 378Q479 367 527 320T576 200Q576 140 546 95T461 25T333 0H279V37H335Q426 37 481 81T536 199Q536 271
478 313T322 355H316V392Q399 392 449 436T499 554Q499 623 454 664T331 705Q246 705 195 648T144 496V0H103V494Q103 569 131 625Z" />
<glyph unicode="&#xe0;" glyph-name="agrave" horiz-adv-x="670" d="M565 521V0H524V136Q494 71 436 34T302 -3Q229 -3 171 31T81 124T48 260Q48 336 80 396T170 490T301 524Q378 524 436 487T524 385V521H565ZM369 36T418 65T496 145T524 260Q524 324 496 375T419
455T307 484Q245 484 196 455T118 375T89 260Q89 196 117 145T194 65T307 36Q369 36 418 65ZM251 743L379 627L337 620L210 723L251 743Z" />
<glyph unicode="&#xe1;" glyph-name="aacute" horiz-adv-x="670" d="M565 521V0H524V136Q494 71 436 34T302 -3Q229 -3 171 31T81 124T48 260Q48 336 80 396T170 490T301 524Q378 524 436 487T524 385V521H565ZM369 36T418 65T496 145T524 260Q524 324 496 375T419
455T307 484Q245 484 196 455T118 375T89 260Q89 196 117 145T194 65T307 36Q369 36 418 65ZM425 743L466 723L339 620L297 627L425 743Z" />
<glyph unicode="&#xe2;" glyph-name="acircumflex" horiz-adv-x="670" d="M565 521V0H524V136Q494 71 436 34T302 -3Q229 -3 171 31T81 124T48 260Q48 336 80 396T170 490T301 524Q378 524 436 487T524 385V521H565ZM369 36T418 65T496 145T524 260Q524 324 496
375T419 455T307 484Q245 484 196 455T118 375T89 260Q89 196 117 145T194 65T307 36Q369 36 418 65ZM457 622H412L332 707L252 622H207L307 739H357L457 622Z" />
<glyph unicode="&#xe3;" glyph-name="atilde" horiz-adv-x="670" d="M565 521V0H524V136Q494 71 436 34T302 -3Q229 -3 171 31T81 124T48 260Q48 336 80 396T170 490T301 524Q378 524 436 487T524 385V521H565ZM369 36T418 65T496 145T524 260Q524 324 496 375T419
455T307 484Q245 484 196 455T118 375T89 260Q89 196 117 145T194 65T307 36Q369 36 418 65ZM471 675T452 649T397 622Q377 622 362 630T326 655Q309 669 297 676T270 683Q248 683 237 668T225 626H193Q193 668 212 694T267 720Q287 720 302 712T338 687Q355 673
367 666T394 659Q416 659 427 674T439 716H471Q471 675 452 649Z" />
<glyph unicode="&#xe4;" glyph-name="adieresis" horiz-adv-x="670" d="M565 521V0H524V136Q494 71 436 34T302 -3Q229 -3 171 31T81 124T48 260Q48 336 80 396T170 490T301 524Q378 524 436 487T524 385V521H565ZM369 36T418 65T496 145T524 260Q524 324 496
375T419 455T307 484Q245 484 196 455T118 375T89 260Q89 196 117 145T194 65T307 36Q369 36 418 65ZM268 705T278 695T288 670Q288 656 278 646T254 635Q241 635 231 645T221 670Q221 685 230 695T254 705Q268 705 278 695ZM425 705T434 695T444 670Q444 656 434
646T411 635Q397 635 387 645T377 670Q377 685 387 695T411 705Q425 705 434 695Z" />
<glyph unicode="&#xe5;" glyph-name="aring" horiz-adv-x="670" d="M565 521V0H524V136Q494 71 436 34T302 -3Q229 -3 171 31T81 124T48 260Q48 336 80 396T170 490T301 524Q378 524 436 487T524 385V521H565ZM369 36T418 65T496 145T524 260Q524 324 496 375T419
455T307 484Q245 484 196 455T118 375T89 260Q89 196 117 145T194 65T307 36Q369 36 418 65ZM370 766T398 738T426 673Q426 635 398 608T331 580Q293 580 265 607T237 673Q237 710 265 738T331 766Q370 766 398 738ZM303 737T283 718T263 673Q263 647 283 628T331
609Q358 609 378 628T399 673Q399 699 379 718T331 737Q303 737 283 718Z" />
<glyph unicode="&#xe6;" glyph-name="ae" horiz-adv-x="969" d="M809 37T877 113L903 87Q865 44 812 22T698 -1Q619 -1 554 39T461 148Q395 -1 231 -1Q155 -1 107 42T58 152Q58 217 110 254T253 292H439V343Q437 411 397 447T281 484Q237 484 195 468T105 416L85
448Q139 487 186 504T287 522Q365 522 413 486T471 385Q500 449 560 485T697 522Q782 522 842 475T925 344L497 181Q518 116 573 77T700 37Q809 37 877 113ZM634 483T586 454T511 372T486 249Q486 237 488 217L880 366Q855 423 809 453T698 483Q634 483 586 454ZM439
255H257Q180 255 139 229T98 153Q98 101 136 69T236 37Q313 37 362 72T439 184V255Z" />
<glyph unicode="&#xe7;" glyph-name="ccedilla" horiz-adv-x="559" d="M465 44T416 22T308 -1L291 -55Q330 -57 351 -78T372 -130Q372 -166 347 -190T277 -214Q257 -214 235 -208T199 -193L211 -161Q223 -169 241 -174T274 -179Q304 -179 320 -164T336 -127Q336
-108 321 -94T280 -80H251L274 0Q208 6 157 41T77 133T48 260Q48 335 81 395T172 488T303 522Q359 522 406 503T489 449L465 419Q397 482 304 482Q242 482 193 454T117 376T89 261Q89 196 116 145T193 66T304 38Q356 38 400 57T474 111L499 84Q465 44 416 22Z"
/>
<glyph unicode="&#xe8;" glyph-name="egrave" d="M419 37T488 128L516 104Q434 -1 306 -1Q232 -1 173 32T81 125T48 261Q48 335 80 394T171 488T303 522Q389 522 451 475T532 346L101 181Q123 115 178 76T308 37Q419 37 488 128ZM241 483T193 456T117 378T89 262Q89
236 93 217L487 368Q466 423 418 453T304 483Q241 483 193 456ZM216 743L344 627L302 620L175 723L216 743Z" />
<glyph unicode="&#xe9;" glyph-name="eacute" d="M419 37T488 128L516 104Q434 -1 306 -1Q232 -1 173 32T81 125T48 261Q48 335 80 394T171 488T303 522Q389 522 451 475T532 346L101 181Q123 115 178 76T308 37Q419 37 488 128ZM241 483T193 456T117 378T89 262Q89
236 93 217L487 368Q466 423 418 453T304 483Q241 483 193 456ZM390 743L431 723L304 620L262 627L390 743Z" />
<glyph unicode="&#xea;" glyph-name="ecircumflex" d="M419 37T488 128L516 104Q434 -1 306 -1Q232 -1 173 32T81 125T48 261Q48 335 80 394T171 488T303 522Q389 522 451 475T532 346L101 181Q123 115 178 76T308 37Q419 37 488 128ZM241 483T193 456T117 378T89
262Q89 236 93 217L487 368Q466 423 418 453T304 483Q241 483 193 456ZM422 622H377L297 707L217 622H172L272 739H322L422 622Z" />
<glyph unicode="&#xeb;" glyph-name="edieresis" d="M419 37T488 128L516 104Q434 -1 306 -1Q232 -1 173 32T81 125T48 261Q48 335 80 394T171 488T303 522Q389 522 451 475T532 346L101 181Q123 115 178 76T308 37Q419 37 488 128ZM241 483T193 456T117 378T89
262Q89 236 93 217L487 368Q466 423 418 453T304 483Q241 483 193 456ZM233 705T243 695T253 670Q253 656 243 646T219 635Q206 635 196 645T186 670Q186 685 195 695T219 705Q233 705 243 695ZM390 705T399 695T409 670Q409 656 399 646T376 635Q362 635 352 645T342
670Q342 685 352 695T376 705Q390 705 399 695Z" />
<glyph unicode="&#xec;" glyph-name="igrave" horiz-adv-x="250" d="M104 521H145V0H104V521ZM44 743L172 627L130 620L3 723L44 743Z" />
<glyph unicode="&#xed;" glyph-name="iacute" horiz-adv-x="250" d="M104 521H145V0H104V521ZM218 743L259 723L132 620L90 627L218 743Z" />
<glyph unicode="&#xee;" glyph-name="icircumflex" horiz-adv-x="250" d="M104 521H145V0H104V521ZM250 622H205L125 707L45 622H0L100 739H150L250 622Z" />
<glyph unicode="&#xef;" glyph-name="idieresis" horiz-adv-x="250" d="M104 521H145V0H104V521ZM80 705T89 695T99 670Q99 656 89 646T65 635Q52 635 42 645T32 670Q32 685 41 695T65 705Q80 705 89 695ZM200 705T210 695T220 670Q220 656 210 646T186 635Q172
635 162 645T152 670Q152 685 162 695T186 705Q200 705 210 695Z" />
<glyph unicode="&#xf0;" glyph-name="eth" d="M433 529T479 431T525 236Q525 165 495 111T410 28T281 -1Q178 -1 117 59T55 223Q55 288 83 337T162 412T282 439Q349 439 403 409T481 326Q464 397 421 466T315 596L144 516L131 545L290 619Q224 677 149 717L175
743Q258 697 325 636L461 699L474 670L350 612Q433 529 479 431ZM376 39T429 88T482 219Q482 303 429 353T287 404Q199 404 147 356T95 226Q95 141 147 90T287 39Q376 39 429 88Z" />
<glyph unicode="&#xf1;" glyph-name="ntilde" horiz-adv-x="648" d="M454 522T507 468T561 318V0H519V310Q519 390 474 435T349 480Q260 478 207 426T146 282V0H104V521H146V388Q172 452 226 486T359 522Q454 522 507 468ZM482 675T463 649T408 622Q388 622 373
630T337 655Q320 669 308 676T281 683Q259 683 248 668T236 626H204Q204 668 223 694T278 720Q298 720 313 712T349 687Q366 673 378 666T405 659Q427 659 438 674T450 716H482Q482 675 463 649Z" />
<glyph unicode="&#xf2;" glyph-name="ograve" horiz-adv-x="610" d="M379 522T437 489T529 396T562 261Q562 185 529 126T438 33T305 -1Q232 -1 174 32T82 125T48 261Q48 336 81 395T173 488T305 522Q379 522 437 489ZM243 482T194 454T117 376T89 261Q89 196
117 145T194 66T305 38Q367 38 416 66T493 145T521 261Q521 325 494 375T417 454T305 482Q243 482 194 454ZM224 743L352 627L310 620L183 723L224 743Z" />
<glyph unicode="&#xf3;" glyph-name="oacute" horiz-adv-x="610" d="M379 522T437 489T529 396T562 261Q562 185 529 126T438 33T305 -1Q232 -1 174 32T82 125T48 261Q48 336 81 395T173 488T305 522Q379 522 437 489ZM243 482T194 454T117 376T89 261Q89 196
117 145T194 66T305 38Q367 38 416 66T493 145T521 261Q521 325 494 375T417 454T305 482Q243 482 194 454ZM398 743L439 723L312 620L270 627L398 743Z" />
<glyph unicode="&#xf4;" glyph-name="ocircumflex" horiz-adv-x="610" d="M379 522T437 489T529 396T562 261Q562 185 529 126T438 33T305 -1Q232 -1 174 32T82 125T48 261Q48 336 81 395T173 488T305 522Q379 522 437 489ZM243 482T194 454T117 376T89 261Q89
196 117 145T194 66T305 38Q367 38 416 66T493 145T521 261Q521 325 494 375T417 454T305 482Q243 482 194 454ZM430 622H385L305 707L225 622H180L280 739H330L430 622Z" />
<glyph unicode="&#xf5;" glyph-name="otilde" horiz-adv-x="610" d="M379 522T437 489T529 396T562 261Q562 185 529 126T438 33T305 -1Q232 -1 174 32T82 125T48 261Q48 336 81 395T173 488T305 522Q379 522 437 489ZM243 482T194 454T117 376T89 261Q89 196
117 145T194 66T305 38Q367 38 416 66T493 145T521 261Q521 325 494 375T417 454T305 482Q243 482 194 454ZM444 675T425 649T370 622Q350 622 335 630T299 655Q282 669 270 676T243 683Q221 683 210 668T198 626H166Q166 668 185 694T240 720Q260 720 275 712T311
687Q328 673 340 666T367 659Q389 659 400 674T412 716H444Q444 675 425 649Z" />
<glyph unicode="&#xf6;" glyph-name="odieresis" horiz-adv-x="610" d="M379 522T437 489T529 396T562 261Q562 185 529 126T438 33T305 -1Q232 -1 174 32T82 125T48 261Q48 336 81 395T173 488T305 522Q379 522 437 489ZM243 482T194 454T117 376T89 261Q89 196
117 145T194 66T305 38Q367 38 416 66T493 145T521 261Q521 325 494 375T417 454T305 482Q243 482 194 454ZM241 705T251 695T261 670Q261 656 251 646T227 635Q214 635 204 645T194 670Q194 685 203 695T227 705Q241 705 251 695ZM398 705T407 695T417 670Q417
656 407 646T384 635Q370 635 360 645T350 670Q350 685 360 695T384 705Q398 705 407 695Z" />
<glyph unicode="&#xf7;" glyph-name="divide" horiz-adv-x="484" d="M257 536T267 526T277 501Q277 486 267 476T243 465Q229 465 219 475T209 501Q209 516 219 526T243 536Q257 536 267 526ZM39 339H445V304H39V339ZM257 184T267 174T277 149Q277 134 267 124T243
113Q229 113 219 123T209 149Q209 164 219 174T243 184Q257 184 267 174Z" />
<glyph unicode="&#xf8;" glyph-name="oslash" horiz-adv-x="610" d="M512 434T537 381T562 261Q562 185 529 126T438 33T305 -1Q229 -1 168 35L71 -106H37L145 51Q99 87 74 141T48 261Q48 336 81 395T173 488T305 522Q381 522 442 486L539 627H574L466 470Q512
434 537 381ZM88 205T108 159T166 83L420 454Q369 484 305 484Q243 484 194 456T116 377T88 261Q88 205 108 159ZM367 35T416 64T494 144T522 261Q522 317 502 362T444 437L189 66Q240 35 305 35Q367 35 416 64Z" />
<glyph unicode="&#xf9;" glyph-name="ugrave" horiz-adv-x="641" d="M536 521V0H495V139Q470 71 417 36T286 -1Q192 -1 140 53T87 203V521H128V211Q128 131 172 86T295 41Q389 43 442 103T495 266V521H536ZM240 743L368 627L326 620L199 723L240 743Z" />
<glyph unicode="&#xfa;" glyph-name="uacute" horiz-adv-x="641" d="M536 521V0H495V139Q470 71 417 36T286 -1Q192 -1 140 53T87 203V521H128V211Q128 131 172 86T295 41Q389 43 442 103T495 266V521H536ZM414 743L455 723L328 620L286 627L414 743Z" />
<glyph unicode="&#xfb;" glyph-name="ucircumflex" horiz-adv-x="641" d="M536 521V0H495V139Q470 71 417 36T286 -1Q192 -1 140 53T87 203V521H128V211Q128 131 172 86T295 41Q389 43 442 103T495 266V521H536ZM446 622H401L321 707L241 622H196L296 739H346L446 622Z" />
<glyph unicode="&#xfc;" glyph-name="udieresis" horiz-adv-x="641" d="M536 521V0H495V139Q470 71 417 36T286 -1Q192 -1 140 53T87 203V521H128V211Q128 131 172 86T295 41Q389 43 442 103T495 266V521H536ZM257 705T267 695T277 670Q277 656 267 646T243 635Q230
635 220 645T210 670Q210 685 219 695T243 705Q257 705 267 695ZM414 705T423 695T433 670Q433 656 423 646T400 635Q386 635 376 645T366 670Q366 685 376 695T400 705Q414 705 423 695Z" />
<glyph unicode="&#xfd;" glyph-name="yacute" horiz-adv-x="633" d="M543 521V58Q543 -61 479 -128T302 -194Q241 -192 187 -168T92 -102L111 -70Q150 -108 199 -130T301 -154Q396 -155 449 -99T502 59V178Q476 114 423 80T293 44Q196 44 142 98T87 249V521H128V257Q128
176 173 131T299 86Q395 88 448 148T502 313V521H543ZM407 743L448 723L321 620L279 627L407 743Z" />
<glyph unicode="&#xfe;" glyph-name="thorn" horiz-adv-x="671" d="M179 449T237 485T372 522Q444 522 501 489T591 396T623 260Q623 185 591 126T502 33T372 -1Q296 -1 238 35T151 136V-194H109V742H151V385Q179 449 237 485ZM304 483T255 454T179 375T151 260Q151
196 178 146T255 67T366 38Q428 38 477 66T554 145T582 260Q582 324 555 374T478 454T366 483Q304 483 255 454Z" />
<glyph unicode="&#xff;" glyph-name="ydieresis" horiz-adv-x="633" d="M543 521V58Q543 -61 479 -128T302 -194Q241 -192 187 -168T92 -102L111 -70Q150 -108 199 -130T301 -154Q396 -155 449 -99T502 59V178Q476 114 423 80T293 44Q196 44 142 98T87 249V521H128V257Q128
176 173 131T299 86Q395 88 448 148T502 313V521H543ZM250 705T260 695T270 670Q270 656 260 646T236 635Q223 635 213 645T203 670Q203 685 212 695T236 705Q250 705 260 695ZM407 705T416 695T426 670Q426 656 416 646T393 635Q379 635 369 645T359 670Q359 685
369 695T393 705Q407 705 416 695Z" />
<glyph unicode="&#x2013;" glyph-name="endash" horiz-adv-x="401" d="M0 318H401V284H0V318Z" />
<glyph unicode="&#x2014;" glyph-name="emdash" horiz-adv-x="745" d="M0 318H745V284H0V318Z" />
<glyph unicode="&#x2018;" glyph-name="quoteleft" horiz-adv-x="180" d="M97 633T103 624T109 604Q109 589 99 579T75 568Q61 568 51 578T41 604Q41 613 45 623T51 636L97 749H125L87 637Q97 633 103 624Z" />
<glyph unicode="&#x2019;" glyph-name="quoteright" horiz-adv-x="180" d="M106 742T116 732T126 706Q126 697 122 687T116 674L70 561H42L80 673Q70 677 64 686T58 706Q58 721 68 731T92 742Q106 742 116 732Z" />
<glyph unicode="&#x201a;" glyph-name="quotesinglbase" horiz-adv-x="180" d="M106 64T116 54T126 28Q126 19 122 9T116 -4L70 -117H42L80 -5Q70 -1 64 8T58 28Q58 43 68 53T92 64Q106 64 116 54Z" />
<glyph unicode="&#x201c;" glyph-name="quotedblleft" horiz-adv-x="283" d="M97 633T103 624T109 604Q109 589 99 579T75 568Q61 568 51 578T41 604Q41 613 45 623T51 636L97 749H125L87 637Q97 633 103 624ZM200 633T206 624T212 604Q212 589 202 579T178 568Q164
568 154 578T144 604Q144 613 148 623T154 636L200 749H228L190 637Q200 633 206 624Z" />
<glyph unicode="&#x201d;" glyph-name="quotedblright" horiz-adv-x="283" d="M106 742T116 732T126 706Q126 697 122 687T116 674L70 561H42L80 673Q70 677 64 686T58 706Q58 721 68 731T92 742Q106 742 116 732ZM209 742T219 732T229 706Q229 697 225 687T219
674L173 561H145L183 673Q173 677 167 686T161 706Q161 721 171 731T195 742Q209 742 219 732Z" />
<glyph unicode="&#x201e;" glyph-name="quotedblbase" horiz-adv-x="283" d="M106 64T116 54T126 28Q126 19 122 9T116 -4L70 -117H42L80 -5Q70 -1 64 8T58 28Q58 43 68 53T92 64Q106 64 116 54ZM209 64T219 54T229 28Q229 19 225 9T219 -4L173 -117H145L183 -5Q173
-1 167 8T161 28Q161 43 171 53T195 64Q209 64 219 54Z" />
<glyph unicode="&#x2022;" glyph-name="bullet" horiz-adv-x="215" d="M129 323T144 308T159 269Q159 246 144 231T107 215Q86 215 71 231T56 269Q56 291 71 307T107 323Q129 323 144 308Z" />
<glyph unicode="&#x2039;" glyph-name="guilsinglleft" horiz-adv-x="270" d="M161 411H201L93 250L201 92H161L50 250L161 411Z" />
<glyph unicode="&#x203a;" glyph-name="guilsinglright" horiz-adv-x="270" d="M109 92H69L177 253L69 411H109L220 253L109 92Z" />
</font>
</defs>
</svg>
