<?xml version="1.0" standalone="no"?>
<!DOCTYPE svg PUBLIC "-//W3C//DTD SVG 1.1//EN" "http://www.w3.org/Graphics/SVG/1.1/DTD/svg11.dtd">
<svg xmlns="http://www.w3.org/2000/svg">
<defs >
<font id="Milonga" horiz-adv-x="446" ><font-face
    font-family="Milonga"
    units-per-em="1000"
    panose-1="4 9 5 5 4 2 2 2 0 0"
    ascent="990"
    descent="-260"
    alphabetic="0" />
<glyph unicode=" " glyph-name="space" horiz-adv-x="250" />
<glyph unicode="!" glyph-name="exclam" horiz-adv-x="315" d="M97 593Q95 628 95 660T94 706Q94 726 98 744T111 777T138 800T183 809Q207 809 225 803T255 789T274 770T280 751Q235 751 216 725T195 632L181 254H110L97 593ZM75 71Q75 101 96 121T146 142Q175
142 195 122T216 71Q216 41 196 21T146 0Q117 0 96 20T75 71Z" />
<glyph unicode="&quot;" glyph-name="quotedbl" horiz-adv-x="381" d="M241 781Q241 798 250 808T276 818Q292 818 301 808T311 781Q322 780 328 766T335 732Q335 716 331 704T321 679T309 646T296 596Q291 572 276 572Q268 572 262 578T254 597Q248 628 242 647T230
680T221 706T217 733Q217 752 223 765T241 781ZM71 781Q71 798 80 808T106 818Q122 818 131 808T141 781Q152 780 158 766T165 732Q165 716 161 704T151 679T139 646T126 596Q121 572 106 572Q98 572 92 578T84 597Q78 628 72 647T60 680T51 706T47 733Q47 752
53 765T71 781Z" />
<glyph unicode="#" glyph-name="numbersign" horiz-adv-x="852" d="M277 523Q263 523 245 523T206 522T166 520T128 516Q123 522 119 534T114 556Q114 566 122 573T151 584T207 589T295 591Q306 639 317 692T339 809H423Q416 756 404 701T378 589Q432 587 482
585T582 580Q594 629 606 685T629 809H713Q705 754 693 697T665 579Q701 579 737 580T805 586Q810 580 814 568T819 548Q819 525 780 518T647 511Q630 450 613 390T579 269Q617 269 654 270T725 276Q730 270 734 258T739 238Q739 227 730 220T699 208T645 203T562
201Q548 144 538 89T522 -17H438Q446 48 456 101T477 203Q425 205 375 207T275 212Q260 152 249 95T232 -17H148Q156 52 166 107T189 213Q175 213 158 213T121 212T83 210T48 206Q43 212 39 224T34 246Q34 256 42 263T71 274T124 279T207 281Q224 341 242 399T277
523ZM292 279Q345 277 395 275T494 270Q511 332 528 389T564 513Q512 515 461 517T360 521L292 279Z" />
<glyph unicode="$" glyph-name="dollar" horiz-adv-x="578" d="M415 645Q441 645 461 637T496 617T518 588T526 554Q526 525 501 500T421 473L417 482Q444 513 444 546Q444 581 409 607T300 633Q286 633 263 631T216 618T175 588T158 534Q158 499 185 473T255
424T345 381T435 334T504 276T532 199Q532 116 480 71T339 14Q346 -3 351 -16T357 -47Q357 -64 352 -74T338 -86Q338 -103 329 -113T303 -123Q287 -123 278 -113T268 -86Q259 -84 254 -74T249 -48Q249 -31 253 -19T264 11Q250 11 231 12T194 18T164 29T151 47Q124
47 104 57T71 84T51 122T44 166Q44 186 48 206T63 242T93 269T142 285L146 280Q135 258 131 238T126 200Q126 167 139 142T174 98T223 71T278 61Q291 61 316 65T367 81T411 115T430 175Q430 211 404 237T337 286T251 328T164 372T98 428T71 503Q71 550 88 582T134
634T196 666T264 681Q258 698 254 710T249 740Q249 755 254 765T268 778Q268 795 277 805T303 815Q319 815 328 805T338 778Q347 777 352 766T357 739Q357 722 353 711T342 684Q415 679 415 645Z" />
<glyph unicode="%" glyph-name="percent" horiz-adv-x="995" d="M196 3Q257 106 316 190Q359 252 402 311T489 431T578 555T672 688Q692 718 712 749T755 815L805 782Q792 760 777 737T745 689Q701 626 651 556T547 414T442 270T344 132Q314 88 289 48T244 -27L196
3ZM204 355Q169 355 139 369T85 410T49 478T35 570Q35 592 38 616T50 662T71 697T105 711Q105 728 115 737T140 752T170 758T194 760Q284 760 330 707T377 563Q377 537 375 511T367 465T349 431T318 418Q318 399 308 387T281 367T244 358T204 355ZM205 392Q228
392 245 406T274 443T292 497T298 562Q298 595 292 624T275 675T246 710T206 723Q183 723 166 710T138 675T120 624T114 562Q114 528 120 498T137 444T165 406T205 392ZM784 31Q749 31 719 45T665 86T629 154T615 246Q615 268 618 292T630 338T651 373T685 387Q685
404 695 413T720 428T750 434T774 436Q864 436 910 383T957 239Q957 213 955 187T947 141T929 107T898 94Q898 75 888 63T861 43T824 34T784 31ZM785 68Q808 68 825 82T854 119T872 173T878 238Q878 271 872 300T855 351T826 386T786 399Q763 399 746 386T718 351T700
300T694 238Q694 204 700 174T717 120T745 82T785 68Z" />
<glyph unicode="&amp;" glyph-name="ampersand" horiz-adv-x="815" d="M670 294Q670 226 641 170T561 73Q604 53 639 53Q663 53 680 62T708 87T725 121T733 162L736 165Q771 156 785 137T800 96Q800 69 785 59T755 43Q755 25 744 15T718 -1T687 -8T658 -10Q620
-10 581 1T503 34Q462 13 416 2T321 -10Q259 -10 210 7T126 56T73 129T54 221Q54 256 63 285T87 338T124 383T168 422Q144 476 131 528T117 625Q117 673 132 709T172 770T230 807T298 820Q334 820 364 808T418 773T454 720T467 652Q467 607 448 572T400 508T334
454T264 401Q286 357 313 316T370 237T433 167T499 111Q534 140 557 185T581 299Q581 355 566 376T533 397Q511 397 499 376T487 321Q487 292 495 281T510 267L509 263Q492 260 480 260Q449 260 428 281T407 339Q407 384 440 414T533 445Q595 445 632 408T670 294ZM326
52Q350 52 379 57T439 75Q370 126 310 198T205 349Q180 322 165 290T150 216Q150 178 163 148T199 97T255 64T326 52ZM204 623Q204 587 212 548T235 470Q264 490 291 510T339 554T372 605T385 667Q385 714 363 740T306 766Q290 766 272 759T239 736T214 692T204
623Z" />
<glyph unicode="&apos;" glyph-name="quotesingle" horiz-adv-x="211" d="M71 781Q71 798 80 808T106 818Q122 818 131 808T141 781Q152 780 158 766T165 732Q165 716 161 704T151 679T139 646T126 596Q121 572 106 572Q98 572 92 578T84 597Q78 628 72 647T60
680T51 706T47 733Q47 752 53 765T71 781Z" />
<glyph unicode="(" glyph-name="parenleft" horiz-adv-x="367" d="M344 -14Q314 -14 279 -9T213 11T162 51T141 117Q115 117 98 143T72 211T58 307T54 414Q54 502 73 575T129 701T218 784T339 819V768Q298 766 268 748T215 700T180 632T158 552T147 468T144 388Q144
296 158 229T199 119T261 56T341 35L344 -14Z" />
<glyph unicode=")" glyph-name="parenright" horiz-adv-x="368" d="M24 819Q54 819 89 814T155 794T206 754T227 688Q253 688 270 662T296 594T310 498T314 391Q314 302 295 230T239 104T149 21T29 -14V37Q70 38 100 56T153 105T188 173T210 253T221 337T224 417Q224
509 210 576T169 686T107 749T24 770V819Z" />
<glyph unicode="*" glyph-name="asterisk" horiz-adv-x="490" d="M80 624Q61 636 61 654Q61 666 70 674T89 682Q100 682 113 674Q118 682 130 682Q145 682 157 670Q162 663 164 657T173 641T192 617T233 578Q228 613 222 632T209 662T199 681T194 702Q194 713
200 721T215 731Q215 748 223 758T245 768Q259 768 267 758T275 731Q283 730 289 722T296 703Q296 690 292 684T283 667T271 638T259 580Q286 603 298 617T317 641T325 657T333 670Q338 676 345 679T359 682Q372 682 377 674Q390 682 400 682Q411 682 420 674T429
654Q429 637 410 624Q410 622 410 621T411 618Q411 609 405 600T386 587Q376 585 368 585T347 583T317 575T267 556Q290 545 306 539T333 529T352 525T366 524Q388 524 400 516T412 494Q412 490 410 486Q430 472 430 455Q430 442 421 435T401 427Q389 427 378 435Q371
428 358 428Q345 428 340 433T328 452T305 484T258 533Q264 492 270 472T283 442T292 426T296 407Q296 396 290 388T275 379Q275 362 267 352T245 342Q231 342 223 352T215 379Q207 381 201 389T194 408Q194 421 198 428T209 447T222 479T234 535Q199 505 184 485T162
452T150 434T132 428Q119 428 112 435Q101 427 88 427Q77 427 69 434T60 455Q60 472 80 486Q78 490 78 494Q78 503 84 511T103 523Q112 525 118 525T137 525T168 533T223 556Q192 569 173 575T142 583T122 585T104 587Q91 590 85 599T79 618Q79 622 80 624Z" />
<glyph unicode="+" glyph-name="plus" horiz-adv-x="497" d="M152 201Q135 201 107 200T55 194Q50 200 46 212T41 235Q41 254 61 261T131 269Q156 269 177 268T218 264Q219 277 219 291T220 321Q220 348 219 374T213 422Q219 427 230 431T253 436Q274 436 281
411T288 330Q288 307 288 290T285 258Q298 257 311 257T341 257Q368 257 394 258T442 264Q447 258 451 247T456 224Q456 203 431 196T350 189Q327 189 310 189T278 191Q277 178 277 164T276 132Q276 115 277 87T283 35Q277 30 265 26T242 21Q223 21 216 41T208
111Q208 136 209 157T212 198Q186 201 152 201Z" />
<glyph unicode="," glyph-name="comma" horiz-adv-x="266" d="M56 72Q56 104 78 126T133 149Q164 149 186 127T209 72Q209 43 187 -4T113 -103L90 -84Q97 -75 105 -63Q111 -52 118 -38T130 -5Q99 -3 78 18T56 72Z" />
<glyph unicode="-" glyph-name="hyphen" horiz-adv-x="500" d="M179 202Q162 202 134 201T82 195Q77 201 73 213T68 236Q68 255 88 262T158 270Q208 270 245 264T318 258Q345 258 371 259T419 265Q424 259 428 248T433 225Q433 204 408 197T327 190Q289 190 253
196T179 202Z" />
<glyph unicode="." glyph-name="period" horiz-adv-x="264" d="M56 72Q56 104 78 126T133 149Q164 149 186 127T209 72Q209 40 187 18T133 -5Q101 -5 79 17T56 72Z" />
<glyph unicode="/" glyph-name="slash" horiz-adv-x="517" d="M25 -84Q68 39 114 145T210 357T310 575T414 822L491 789Q469 727 437 653T368 499T291 335T215 172T149 19T99 -114L25 -84Z" />
<glyph unicode="0" glyph-name="zero" horiz-adv-x="756" d="M374 -14Q309 -14 252 14T151 99T84 237T59 426Q59 472 65 523T86 617T125 689T187 718Q187 753 206 773T253 803T308 817T354 820Q437 820 501 791T608 709T673 580T695 414Q695 360 691 307T676 212T645
143T590 117Q590 77 570 52T519 12T449 -8T374 -14ZM376 35Q432 35 472 65T539 147T577 267T590 411Q590 486 578 551T539 665T473 740T377 768Q321 768 281 740T214 664T176 550T164 410Q164 335 176 267T214 148T280 66T376 35ZM327 444Q327 470 339 485T372
501Q391 501 404 486T417 445Q443 445 458 432T474 399Q474 380 459 367T418 354Q418 328 405 313T372 297Q353 297 340 312T327 353Q301 353 286 366T270 399Q270 418 285 431T327 444Z" />
<glyph unicode="1" glyph-name="one" horiz-adv-x="392" d="M250 116Q250 92 262 78T292 58T328 49T359 47V0Q347 0 326 1T282 5T238 8T205 10Q193 10 172 9T128 5T84 2T51 0V47Q64 47 83 49T119 57T148 78T160 116V681Q153 676 138 672T108 668Q78 668 60 686T41
736Q102 736 141 752T195 809H250V116Z" />
<glyph unicode="2" glyph-name="two" horiz-adv-x="639" d="M154 72Q226 72 295 65T422 58Q460 58 477 78T494 133Q494 160 484 187T454 233V237Q512 237 537 219T563 166Q575 166 582 151T589 115Q589 58 550 20T433 -18Q387 -18 346 -15T265 -9T185 -3T100 0H69Q69
21 68 35T62 61T53 81T40 101Q71 122 114 154T203 227T295 314T377 410T435 511T457 612Q457 666 438 697T392 743T337 763T291 768Q225 768 190 736T155 640Q155 600 165 581T183 557L179 548Q156 548 135 555T97 578T70 616T60 669Q60 688 65 706T81 739T108
762T146 771Q146 781 158 790T190 805T235 816T286 820Q322 820 367 813T451 783T517 715T544 595Q544 539 523 485T467 380T390 284T304 199T221 128T154 72Z" />
<glyph unicode="3" glyph-name="three" horiz-adv-x="638" d="M312 820Q349 820 392 812T471 780T532 718T557 615Q557 561 539 528T495 475T437 447T379 435V431Q410 431 445 421T510 387T560 325T580 230Q580 176 560 131T503 54T414 4T298 -14Q260 -14 219
-8T144 11T88 42T65 86Q65 95 66 100T76 107Q70 111 61 125T51 166Q51 181 56 197T73 227T105 248T156 257L161 253Q154 236 151 216T148 176Q148 131 163 104T202 62T250 42T297 37Q340 37 374 51T431 91T466 151T479 223Q479 279 455 313T396 365T319 390T245
396V436Q278 436 315 444T383 472T436 525T457 609Q457 642 448 670T419 721T373 755T310 768Q274 768 247 755T202 720T174 666T164 599Q164 579 166 564T172 538Q150 538 130 543T95 559T71 583T62 615Q62 630 69 642T85 662T105 676T124 682Q111 690 108 701T105
720Q105 745 124 764T174 795T240 814T312 820Z" />
<glyph unicode="4" glyph-name="four" horiz-adv-x="659" d="M607 237Q612 233 616 220T621 195Q621 176 611 164T587 144Q572 135 553 130L549 136Q554 140 558 147Q562 153 565 163T568 188Q568 218 551 234T486 257V111Q486 87 498 73T528 53T564 44T595 42V0Q583
0 562 1T518 5T474 8T441 10Q429 10 408 9T364 5T320 2T287 0V42Q300 42 319 44T355 52T384 73T396 111V261Q352 261 318 258T247 249T163 235T47 214L13 268Q61 328 109 397T202 539T290 680T370 809H486V327Q561 322 593 303T625 262Q625 251 619 245T607 237ZM106
287Q112 288 137 294T202 306T292 319T396 328V731Q364 680 326 618T248 494T172 378T106 287Z" />
<glyph unicode="5" glyph-name="five" horiz-adv-x="606" d="M242 484Q306 484 363 471T463 429T531 352T556 236Q556 177 537 131T483 52T397 3T286 -14Q248 -14 209 -8T136 11T82 42T61 86Q61 95 62 100T72 107Q66 111 57 125T47 166Q47 181 52 197T69 227T101
248T152 257L157 253Q150 236 147 216T144 176Q144 131 158 104T195 62T241 42T287 37Q365 37 410 87T455 238Q455 301 435 339T375 398T274 424T131 431L99 468V770L121 809Q155 807 196 806T276 805Q313 805 350 805T419 807T470 808T492 809Q498 809 508 806T518
783Q518 771 515 732T512 639H472Q472 660 470 678T460 711T438 733T400 742H224Q200 742 195 732T189 697V482Q202 483 215 483T242 484Z" />
<glyph unicode="6" glyph-name="six" horiz-adv-x="629" d="M305 -14Q251 -14 207 4T130 65T81 177T63 346Q63 466 82 555T136 703T222 791T334 820Q352 820 369 818T399 810T421 798T429 780Q449 780 468 773T503 752T527 717T537 669Q537 643 529 625T507 593T475
574T438 568L434 576Q440 580 449 596T458 644Q458 700 425 734T327 768Q300 768 271 757T216 707T174 592T152 387Q184 429 232 448T334 468Q383 468 428 453T507 407T562 331T583 228Q583 177 566 133T514 56T427 5T305 -14ZM161 231Q161 190 172 155T203 94T253
52T321 37Q359 37 388 52T437 95T467 157T478 233Q478 270 469 303T440 360T391 399T321 414Q280 414 250 400T201 361T171 303T161 231Z" />
<glyph unicode="7" glyph-name="seven" horiz-adv-x="559" d="M483 763Q428 763 380 749T289 719T210 689T144 675Q115 675 98 689T80 732Q39 732 26 749T13 786Q13 803 18 814T31 832Q39 839 50 842Q62 823 81 808Q98 795 125 785T193 775Q226 775 253 782T315
797T399 813T526 820L551 761Q501 691 460 612T386 439T326 238T281 0Q264 0 250 3T225 16T208 44T202 92Q202 138 215 199T252 326T304 460T364 587T426 692T483 763Z" />
<glyph unicode="8" glyph-name="eight" horiz-adv-x="618" d="M58 178Q58 249 102 302T240 406Q208 423 180 442T129 487T93 545T80 621Q80 677 101 715T156 776T235 810T326 820Q424 820 424 780Q443 780 463 769T498 736T524 686T534 620Q534 545 491 499T375
427Q411 407 444 386T504 336T545 273T561 193Q561 139 541 100T485 36T399 -2T289 -14Q278 -14 260 -13T224 -9T193 2T180 22Q141 22 117 38T80 79T63 130T58 178ZM459 177Q459 217 445 247T408 301T354 343T291 379Q263 364 239 345T196 302T168 253T157 197Q157
173 165 145T192 93T238 52T308 36Q326 36 351 40T401 60T442 103T459 177ZM167 634Q167 601 180 575T216 527T269 487T331 451Q386 473 415 511T444 615Q444 687 411 727T316 768Q289 768 263 760T215 735T181 693T167 634Z" />
<glyph unicode="9" glyph-name="nine" horiz-adv-x="632" d="M313 820Q446 820 508 729T570 441Q570 332 550 248T494 105T405 17T289 -14Q269 -14 250 -12T217 -4T193 8T184 26Q164 26 145 31T110 49T86 79T76 121Q76 144 84 162T106 192T138 211T175 218L179
210Q171 205 163 188T155 144Q155 95 190 67T297 38Q314 38 334 41T373 58T411 96T443 163T468 267T481 419Q449 379 401 361T300 343Q251 343 206 359T126 405T71 480T50 581Q50 637 70 681T125 756T208 803T313 820ZM472 575Q472 615 461 650T430 712T379 754T312
769Q274 769 245 754T196 713T166 653T155 578Q155 542 164 509T193 451T241 412T312 397Q352 397 382 411T432 449T462 505T472 575Z" />
<glyph unicode=":" glyph-name="colon" horiz-adv-x="287" d="M67 72Q67 104 89 126T144 149Q175 149 197 127T220 72Q220 40 198 18T144 -5Q112 -5 90 17T67 72ZM67 356Q67 388 89 410T144 433Q175 433 197 411T220 356Q220 324 198 302T144 279Q112 279 90 301T67 356Z" />
<glyph unicode=";" glyph-name="semicolon" horiz-adv-x="288" d="M67 356Q67 388 89 410T144 433Q175 433 197 411T220 356Q220 324 198 302T144 279Q112 279 90 301T67 356ZM67 72Q67 104 89 126T144 149Q175 149 197 127T220 72Q220 43 198 -4T124 -103L101
-84Q108 -75 116 -63Q122 -52 129 -38T141 -5Q110 -3 89 18T67 72Z" />
<glyph unicode="&lt;" glyph-name="less" horiz-adv-x="433" d="M59 266Q59 269 59 272T58 277Q58 297 71 310T105 334T156 356T216 383T281 423T344 486Q347 490 351 491T360 492Q383 480 383 460Q383 428 310 373T99 241Q120 227 149 211T209 175T270 137T325
97T364 59T379 23Q379 2 360 -13Q356 -13 352 -13T344 -7Q314 31 281 55T217 96T156 123T106 144T71 168T58 202Q58 204 58 207T59 213Q44 213 38 221T31 240Q31 250 37 258T53 267Q57 267 59 266Z" />
<glyph unicode="=" glyph-name="equal" horiz-adv-x="564" d="M185 287Q168 287 140 286T88 280Q83 286 79 298T74 321Q74 340 94 347T164 355Q192 355 216 353T264 349T314 345T374 343Q401 343 427 344T475 350Q480 344 484 333T489 310Q489 289 464 282T383
275Q347 275 323 277T279 281T237 285T185 287ZM185 121Q168 121 140 120T88 114Q83 120 79 132T74 155Q74 174 94 181T164 189Q192 189 216 187T264 183T314 179T374 177Q401 177 427 178T475 184Q480 178 484 167T489 144Q489 123 464 116T383 109Q347 109 323
111T279 115T237 119T185 121Z" />
<glyph unicode="&gt;" glyph-name="greater" horiz-adv-x="433" d="M374 266Q376 267 380 267Q390 267 396 259T402 240Q402 230 396 222T374 213Q374 210 374 207T375 202Q375 181 362 168T328 145T277 124T217 97T152 56T89 -7Q85 -12 81 -12T73 -13Q54 2 54
23Q54 40 69 58T108 97T162 136T224 175T284 210T334 241Q197 318 124 373T50 460Q50 480 73 492Q77 492 81 491T89 486Q119 448 152 424T216 383T277 356T327 334T362 310T375 277Q375 275 375 272T374 266Z" />
<glyph unicode="?" glyph-name="question" horiz-adv-x="552" d="M225 243Q225 288 239 324T276 390T324 446T372 498T408 551T423 612Q423 684 383 721T272 758Q209 758 168 728T126 637Q126 599 136 576T160 539Q175 523 195 516V506Q173 506 146 510T94 530T52
574T35 652Q35 711 70 737T160 764Q160 780 169 789T193 802T223 808T254 810Q296 810 342 802T428 772T493 711T519 609Q519 574 502 545T460 489T404 436T349 382T306 320T289 244L225 243ZM188 61Q188 91 209 111T259 132Q288 132 308 112T329 61Q329 31 309
11T259 -10Q230 -10 209 10T188 61Z" />
<glyph unicode="@" glyph-name="at" horiz-adv-x="885" d="M456 524Q376 524 317 498T218 426T159 320T139 191Q139 120 161 62T225 -38T329 -103T470 -126Q521 -126 563 -115T626 -78Q628 -85 628 -92T629 -105Q629 -131 610 -152T558 -174Q547 -174 535 -171T509
-160Q504 -171 490 -179T436 -188Q379 -188 313 -167T190 -100T96 17T58 186Q58 273 87 344T168 467T294 546T457 574Q550 574 618 544T730 466T795 356T817 234Q817 178 807 132T777 53T730 1T667 -18Q618 -18 596 6T567 68Q538 22 495 2T410 -18Q369 -18 336
-2T279 42T242 107T229 188Q229 242 245 283T289 351T353 391T431 405Q473 405 499 389T545 350Q545 400 613 400V142Q613 108 615 86T623 51T639 33T664 28Q693 28 714 78T736 222Q736 275 721 328T672 425T585 496T456 524ZM429 27Q461 27 482 41T516 81T534
140T539 212Q539 243 534 269T515 316T482 347T431 359Q398 359 377 345T343 307T325 250T320 180Q320 149 326 122T344 73T378 40T429 27Z" />
<glyph unicode="A" glyph-name="A" horiz-adv-x="754" d="M485 354Q456 460 438 529T408 640T392 702T383 730L262 320Q279 318 294 317T322 316Q354 316 394 323T485 354ZM659 99Q667 70 698 56T774 42V0Q762 0 745 1T707 5T665 8T624 10Q604 10 580 9T533 5T489
2T456 0V42Q471 42 488 43T519 48T543 61T553 85Q553 89 552 97T544 127T528 189T499 299Q439 278 394 271T310 264Q296 264 280 265T247 268L211 138Q206 122 203 111T201 91Q201 73 210 64T235 49T268 43T305 42V0Q293 0 275 1T236 5T192 8T151 10Q113 10 77
5T17 0V42Q62 42 90 56T128 99L185 280Q128 297 89 333T49 429Q49 445 52 452T63 465Q47 484 47 512Q47 529 53 545T71 574T99 594T135 602Q145 602 153 600T169 593T185 581T205 564Q167 548 150 516T133 449Q133 401 153 374T202 334L352 786Q403 786 456 797T557
820L577 785Q556 781 543 777T522 766T512 750T509 726Q509 716 510 701T517 659T533 588T559 479T600 319T659 99Z" />
<glyph unicode="B" glyph-name="B" horiz-adv-x="811" d="M384 111Q384 91 393 78T416 57T445 46T473 42V0Q461 0 443 1T406 5T369 8T339 10Q327 10 309 9T272 5T235 2T205 0V42Q218 42 234 45T263 57T285 78T294 111V507Q294 544 293 568T284 606T264 625T228
631V666Q253 666 271 669T305 678T332 692T359 709H384V111ZM397 820Q418 820 447 818T507 809T568 787T622 748T660 689T675 603Q675 555 662 521T627 465T581 431T532 417V413Q571 413 612 397T687 348T743 263T765 139Q765 58 730 3T639 -86T512 -134T367 -149Q309
-149 254 -140T157 -113T88 -69T62 -8Q62 16 77 21Q72 24 66 34T55 58T46 91T42 129Q42 144 45 163T59 201T89 235T141 256L147 251Q136 226 133 198T129 143Q129 59 156 11T223 -63T303 -94T374 -101Q427 -101 478 -89T569 -50T635 21T660 128Q660 195 638 242T582
320T507 365T428 379V419Q461 419 488 434T535 474T564 533T575 602Q575 638 564 669T528 722T467 757T377 770Q306 770 262 747T192 687T157 603T147 508Q100 508 80 526T60 575Q60 604 74 622T108 640Q100 648 98 661T96 683Q96 717 123 742T194 785T290 811T397
820Z" />
<glyph unicode="C" glyph-name="C" horiz-adv-x="728" d="M428 820Q445 820 471 819T522 813T565 797T583 765Q605 765 625 759T660 739T685 702T695 645Q695 581 663 550T580 519Q569 519 555 520T530 524V531Q553 539 567 560T582 624Q582 694 540 732T428 770Q372
770 323 744T237 669T179 549T157 387Q157 300 177 235T232 125T315 59T421 36Q471 36 504 52T556 97T584 164T594 247Q607 247 623 243T654 229T678 203T688 161Q688 147 685 132T672 105T649 86T613 78Q613 52 595 35T548 7T484 -9T413 -14Q337 -14 272 8T159
79T84 203T57 388Q57 499 85 580T164 715T282 794T428 820Z" />
<glyph unicode="D" glyph-name="D" horiz-adv-x="872" d="M389 111Q389 87 398 73T421 53T450 44T478 42V0Q466 0 448 1T411 5T374 8T344 10Q332 10 314 9T277 5T240 2T210 0V42Q223 42 239 44T268 52T290 73T299 111V507Q299 544 298 568T289 606T269 625T233
631V666Q258 666 276 669T310 678T337 692T364 709H389V111ZM404 820Q516 820 594 783T720 682T790 530T812 341Q812 216 782 124T694 -29T553 -119T363 -149Q306 -149 253 -140T158 -113T92 -69T67 -8Q67 16 82 21Q77 24 71 34T60 58T51 91T47 129Q47 144 50 163T64
201T94 235T146 256L152 251Q141 226 138 198T134 143Q134 87 146 47T179 -20T224 -63T276 -87T328 -98T373 -101Q463 -101 526 -72T630 14T688 153T707 340Q707 423 691 501T638 639T541 735T392 772Q317 772 269 750T193 690T153 605T142 506Q95 506 75 527T55
580Q55 609 69 628T103 648Q95 656 93 669T91 691Q91 725 119 749T193 789T294 812T404 820Z" />
<glyph unicode="E" glyph-name="E" horiz-adv-x="604" d="M227 799Q267 799 312 800T398 804T466 807T502 809Q526 809 526 783Q526 772 523 738T520 654H480Q480 675 478 693T468 726T446 748T408 757H227V440Q260 435 293 433T361 430Q396 430 431 437T491 467Q496
462 500 453T505 433Q505 407 476 390T385 372Q344 372 305 378T227 394V111Q227 71 244 44T287 -1T340 -26T389 -34Q418 -34 436 -27T466 -7T481 20T486 53Q486 79 478 95T451 126V130Q469 133 483 133Q505 133 518 126T539 106T549 79T552 49Q564 49 571 38T578
6Q578 -12 570 -28T545 -57T499 -77T429 -85Q369 -85 323 -70T236 -38T159 -5T79 10H48V52Q61 52 77 53T106 63T128 88T137 138V698Q137 722 128 736T106 756T77 765T48 767V809Q60 809 85 808T137 804T190 801T227 799Z" />
<glyph unicode="F" glyph-name="F" horiz-adv-x="650" d="M420 435Q463 435 497 443T557 467Q562 462 566 453T571 433Q571 407 542 390T451 372Q419 372 388 375T326 385V111Q326 87 335 73T358 53T387 44T415 42V0Q403 0 385 1T348 5T311 8T281 10Q269 10 251
9T214 5T177 2T147 0V42Q160 42 176 44T205 52T227 73T236 111V487Q236 524 235 548T226 586T206 605T170 611V646Q195 646 213 649T247 658T274 672T301 689H326V438Q349 436 373 436T420 435ZM232 762Q204 762 178 753T132 725T100 673T88 594Q88 569 91 550T96
508Q50 508 27 529T4 582Q4 605 14 618T42 640Q31 646 27 665T23 697Q23 725 37 748T75 787T133 811T205 820Q241 820 276 814T344 799T407 784T467 777Q502 777 534 790T601 841Q613 838 626 823T640 785Q640 765 625 749T572 732Q572 725 569 716T559 698T539
683T507 677Q478 677 446 690T379 719T307 748T232 762Z" />
<glyph unicode="G" glyph-name="G" horiz-adv-x="761" d="M689 3Q689 -58 679 -89T633 -120Q633 -145 612 -162T551 -179Q531 -179 509 -172T473 -144L476 -139Q481 -141 490 -142T507 -143Q563 -143 581 -96T599 44V68Q576 33 524 10T395 -14Q328 -14 267 8T160
79T85 205T57 394Q57 502 84 582T161 715T281 794T435 820Q478 820 522 813T603 786T662 735T685 652Q685 621 676 598T650 560T613 537T569 529Q559 529 545 530T520 534V541Q543 545 557 567T572 631Q572 697 533 733T425 770Q369 770 320 744T235 670T178 550T157
389Q157 301 177 235T232 125T314 58T418 36Q469 36 503 53T559 98T589 157T599 219Q599 251 596 269T583 299Q566 296 548 294T509 292Q447 292 418 309T389 353Q389 364 393 373T403 387Q428 371 463 363T533 355Q559 355 578 358T612 367T639 379T664 393H689V3Z"
/>
<glyph unicode="H" glyph-name="H" horiz-adv-x="916" d="M99 496Q99 477 105 458T126 424T168 398T233 385V714Q233 745 210 761T144 778Q144 795 156 807T198 820Q224 820 244 811T278 789Q291 802 311 811T358 820Q388 820 400 808T412 778Q371 778 347 762T323
714V391Q366 398 413 409T507 431T600 453T690 466V714Q690 745 667 761T601 778Q601 795 613 807T655 820Q681 820 701 811T735 789Q748 802 768 811T815 820Q845 820 857 808T869 778Q828 778 804 762T780 714V111Q780 87 789 73T812 53T841 44T869 42V0Q857
0 839 1T802 5T765 8T735 10Q723 10 705 9T668 5T631 2T601 0V42Q614 42 630 44T659 52T681 73T690 111V407Q637 404 591 394T500 372T412 349T323 330V111Q323 87 332 73T355 53T384 44T412 42V0Q400 0 382 1T345 5T308 8T278 10Q266 10 248 9T211 5T174 2T144
0V42Q157 42 173 44T202 52T224 73T233 111V324Q170 325 128 340T62 378T27 424T16 467Q16 478 20 489T36 513Q25 524 19 541T13 575Q13 594 20 608T39 633T64 648T90 653Q112 653 129 639T157 611Q99 567 99 496Z" />
<glyph unicode="I" glyph-name="I" horiz-adv-x="368" d="M229 111Q229 87 240 73T266 53T299 44T328 42V0Q316 0 297 1T256 5T216 8T184 10Q172 10 153 9T112 5T72 2T40 0V42Q53 42 70 44T103 52T128 73T139 111V714Q139 745 116 761T50 778Q50 795 62 807T107
820Q130 820 150 811T184 789Q197 802 217 811T261 820Q294 820 306 808T318 778Q277 778 253 762T229 714V111Z" />
<glyph unicode="J" glyph-name="J" horiz-adv-x="345" d="M217 121Q217 23 205 -45T165 -157T95 -220T-9 -240Q-77 -240 -110 -219T-143 -166Q-166 -157 -179 -138T-193 -95Q-193 -69 -174 -54T-122 -39Q-92 -39 -83 -50Q-92 -68 -92 -89Q-92 -135 -68 -160T14
-186Q48 -186 72 -176T108 -139Q113 -128 116 -111T122 -67T126 -3T127 88V714Q127 745 104 761T38 778Q38 820 92 820Q141 820 172 789Q203 820 252 820Q306 820 306 778Q264 778 241 761T217 714V121Z" />
<glyph unicode="K" glyph-name="K" horiz-adv-x="779" d="M229 111Q229 87 240 73T266 53T299 44T328 42V0Q316 0 297 1T256 5T216 8T184 10Q172 10 153 9T112 5T72 2T40 0V42Q53 42 70 44T103 52T128 73T139 111V714Q139 745 116 761T50 778Q50 795 62 807T104
820Q130 820 150 811T184 789Q197 802 217 811T264 820Q294 820 306 808T318 778Q277 778 253 762T229 714V375L447 635Q456 645 469 662T495 697T517 731T526 757Q526 766 519 770T501 776T479 778T460 779Q461 789 468 796T484 809T505 816T526 818Q543 816 558
810T585 786Q596 799 615 809T661 819Q684 819 700 810T718 778Q715 778 713 778T706 779Q679 779 652 760T599 715T553 662T517 617L394 474L660 111Q674 92 692 79T729 58T765 46T796 42V0Q784 0 761 1T711 5T662 8T626 10Q614 10 592 9T546 5T501 2T467 0V42Q479
42 494 43T524 49T547 61T557 83Q557 100 546 118T530 143L336 406L229 282V111Z" />
<glyph unicode="L" glyph-name="L" horiz-adv-x="543" d="M226 101Q226 59 243 21T288 -45T352 -90T427 -107Q462 -107 485 -88T513 -21L516 -18Q551 -27 565 -46T580 -87Q580 -114 565 -124T535 -140Q535 -158 526 -168T505 -184T478 -191T452 -193Q410 -193
376 -179T311 -143T254 -97T200 -50T143 -15T78 0H47V42Q60 42 76 43T105 53T127 78T136 128V714Q136 745 113 761T47 778Q47 795 59 807T101 820Q127 820 147 811T181 789Q194 802 214 811T261 820Q291 820 303 808T315 778Q274 778 250 762T226 714V101Z" />
<glyph unicode="M" glyph-name="M" horiz-adv-x="968" d="M829 111Q829 87 840 73T866 53T899 44T928 42V0Q918 0 898 1T855 5T813 8T782 10Q772 10 752 9T711 5T669 2T639 0V42Q652 42 669 44T702 52T727 73T738 111V633L486 0H440L191 634V111Q191 87 202 73T228
53T261 44T290 42V0Q280 0 263 1T227 5T191 8T164 10Q154 10 137 9T101 5T65 2T38 0V42Q51 42 68 44T101 52T126 73T137 111V714Q137 745 114 761T48 778Q48 795 60 807T105 820Q128 820 148 811T182 789Q195 802 215 811T259 820Q292 820 304 808T316 778Q261
778 237 748Q247 738 257 723T276 690T292 656T304 625L489 143L680 647Q692 679 704 703T730 747Q708 778 650 778Q650 795 662 807T707 820Q730 820 750 811T784 789Q797 802 817 811T861 820Q894 820 906 808T918 778Q877 778 853 762T829 714V111Z" />
<glyph unicode="N" glyph-name="N" horiz-adv-x="823" d="M660 -9L272 544Q257 565 243 584T214 622V111Q214 87 225 73T251 53T284 44T313 42V0Q303 0 286 1T250 5T214 8T187 10Q177 10 160 9T124 5T88 2T61 0V42Q74 42 91 44T124 52T149 73T160 111V684Q125
719 88 739T10 760Q10 783 28 801T84 820Q118 820 142 804T167 757Q185 757 202 754T241 734T292 682T365 585L641 185V714Q641 745 618 761T552 778Q552 795 564 807T605 820Q643 820 668 789Q693 820 731 820Q760 820 772 808T784 778Q743 778 719 762T695 714V0L660
-9Z" />
<glyph unicode="O" glyph-name="O" horiz-adv-x="832" d="M420 -14Q376 -14 331 -9T248 11T188 51T164 117Q130 117 110 143T78 211T63 307T59 414Q59 505 83 580T156 708T276 791T440 820Q462 820 497 817T565 804T623 773T647 718Q684 718 708 690T748 618T769
523T775 426Q775 319 748 237T672 99T559 15T420 -14ZM418 35Q484 35 532 65T610 147T655 267T670 410Q670 485 656 550T610 663T532 740T417 768Q351 768 303 741T224 665T179 552T164 411Q164 336 178 268T224 148T303 66T418 35Z" />
<glyph unicode="P" glyph-name="P" horiz-adv-x="712" d="M334 111Q334 87 343 73T366 53T395 44T423 42V0Q411 0 393 1T356 5T319 8T289 10Q277 10 259 9T222 5T185 2T155 0V42Q168 42 184 44T213 52T235 73T244 111V507Q244 544 243 568T234 606T214 625T178
631V666Q203 666 221 669T255 678T282 692T309 709H334V111ZM352 392Q364 384 387 373T448 362Q495 362 522 381T562 429T579 488T583 541Q583 577 576 618T544 693T471 749T340 772Q270 772 222 754T143 702T100 618T86 503Q73 503 58 508T29 523T7 548T-2 583Q-2
606 11 626T49 647Q41 653 39 667T36 691Q36 725 63 749T132 789T227 812T332 819Q431 819 498 796T606 736T665 650T683 550Q683 508 672 466T635 390T571 335T476 314Q441 314 418 322T380 342T360 366T352 388V392Z" />
<glyph unicode="Q" glyph-name="Q" horiz-adv-x="833" d="M336 -137Q297 -131 297 -95Q297 -82 309 -68Q309 -25 340 -9Q305 -5 274 3T218 27T179 64T164 117Q130 117 110 143T78 211T63 307T59 414Q59 505 83 580T156 708T276 791T440 820Q462 820 497 817T565
804T623 773T647 718Q684 718 708 690T748 618T769 523T775 426Q775 322 749 242T677 106T569 20T435 -13Q459 -20 484 -29T534 -47T583 -62T628 -68Q651 -68 668 -53T693 0Q708 -8 716 -22T725 -51Q725 -73 711 -84Q711 -117 688 -129T638 -141Q602 -141 567 -131T500
-109T437 -86T381 -76Q361 -76 349 -89T336 -137ZM418 35Q484 35 532 65T610 147T655 267T670 410Q670 485 656 550T610 663T532 740T417 768Q351 768 303 741T224 665T179 552T164 411Q164 336 178 268T224 148T303 66T418 35Z" />
<glyph unicode="R" glyph-name="R" horiz-adv-x="793" d="M363 358V392Q412 397 452 408T522 442T567 499T583 586Q583 683 526 726T358 770Q277 770 225 750T142 693T99 610T87 508Q40 508 20 526T0 575Q0 604 14 622T48 640Q40 648 38 661T36 683Q36 717 62
742T133 785T234 811T353 820Q372 820 404 818T472 809T545 788T612 747T661 682T680 588Q680 504 630 447T466 366L660 122Q695 77 729 60T804 42V0Q775 -1 750 -1T711 -2Q686 -2 670 1T640 13T613 37T581 77L363 358ZM324 111Q324 87 333 73T356 53T385 44T413
42V0Q401 0 383 1T346 5T309 8T279 10Q267 10 249 9T212 5T175 2T145 0V42Q158 42 174 44T203 52T225 73T234 111V507Q234 544 233 568T224 606T204 625T168 631V666Q193 666 211 669T245 678T272 692T299 709H324V111Z" />
<glyph unicode="S" glyph-name="S" horiz-adv-x="645" d="M573 668Q573 638 563 616T537 578T499 556T454 548L450 557Q457 562 467 581T478 640Q478 704 443 736T333 768Q317 768 289 765T232 749T182 711T161 639Q161 597 179 568T228 517T296 478T375 444T454
408T523 361T571 297T590 207Q590 151 569 110T511 41T421 0T305 -14Q294 -14 273 -13T231 -9T195 2T179 22Q150 22 127 32T87 61T61 103T52 157Q52 190 63 212T91 249T129 271T170 280L174 275Q168 267 165 256T159 234T157 213T156 195Q156 148 170 118T207 69T255
44T306 36Q322 36 352 40T413 60T465 103T488 180Q488 236 458 270T381 329T281 374T181 424T105 496T74 608Q74 675 102 717T173 781T262 812T349 820Q448 820 448 780Q469 780 491 775T532 758T561 724T573 668Z" />
<glyph unicode="T" glyph-name="T" horiz-adv-x="751" d="M324 559Q324 712 472 712V703Q454 703 443 697T425 681T417 657T414 629V111Q414 87 423 73T446 53T475 44T503 42V0Q491 0 473 1T436 5T399 8T369 10Q357 10 339 9T302 5T265 2T235 0V42Q248 42 264
44T293 52T315 73T324 111V559ZM181 519Q154 507 131 507Q96 507 79 530T61 584Q38 584 24 603T9 655Q9 700 36 731T107 782T202 811T305 820Q354 820 390 813T456 798T515 782T578 775Q597 775 618 778T659 788T695 809T723 842Q737 832 748 818T760 783Q760 775
758 766T748 750T727 737T693 732Q693 703 676 689T628 675Q596 675 563 688T490 718T404 747T299 761Q260 761 226 753T165 728T123 683T108 615Q108 566 129 546T181 525V519Z" />
<glyph unicode="U" glyph-name="U" horiz-adv-x="779" d="M568 715Q568 746 545 762T479 779Q479 796 491 808T533 821Q559 821 579 812T613 790Q626 803 646 812T693 821Q723 821 735 809T747 779Q706 779 682 763T658 715V312Q658 217 639 155T584 55T498 2T387
-14Q324 -14 275 1T192 54T139 151T121 300V714Q121 745 98 761T32 778Q32 795 44 807T86 820Q112 820 132 811T166 789Q179 802 199 811T246 820Q276 820 288 808T300 778Q259 778 235 762T211 714V296Q211 223 222 174T255 94T312 51T392 38Q438 38 471 50T525
93T557 172T568 296V715Z" />
<glyph unicode="V" glyph-name="V" horiz-adv-x="691" d="M407 0L277 -15L85 714Q77 744 58 761T-4 778Q-4 795 8 807T50 820Q76 820 96 811T130 789Q143 802 168 811T220 820Q250 820 262 808T274 778Q236 778 210 767T183 727Q183 720 185 711T191 687T202 651T217
599L364 76Q379 129 397 194T435 328T472 463T504 584T526 677T535 727Q535 756 509 767T444 778Q444 795 456 807T498 820Q520 820 541 811T573 789Q584 802 602 811T643 820Q676 820 689 808T702 778Q660 778 641 761T613 714L407 0Z" />
<glyph unicode="W" glyph-name="W" horiz-adv-x="1031" d="M710 79Q725 132 743 197T781 330T818 464T850 585T872 677T881 727Q881 756 855 767T790 778Q790 795 802 807T844 820Q866 820 887 811T919 789Q930 802 948 811T989 820Q1022 820 1035 808T1048 778Q1006
778 987 761T959 714L753 0L635 -15L530 540L374 0L255 -15L92 714Q85 744 65 761T3 778Q3 795 15 807T57 820Q83 820 103 811T137 789Q150 802 170 811T217 820Q247 820 259 808T271 778Q229 778 214 757T198 703Q198 675 203 648T214 599L334 76Q347 131 364
192T399 314T434 436T465 548T487 644T495 714Q495 745 472 761T406 778Q406 795 417 807T460 820Q486 820 506 811T540 789Q553 802 573 811T620 820Q650 820 662 808T674 778Q592 778 592 714Q592 673 604 599T635 437T674 254T710 79Z" />
<glyph unicode="X" glyph-name="X" horiz-adv-x="790" d="M649 111Q658 97 673 85T707 63T745 48T785 42V0Q773 0 750 1T700 5T651 8T615 10Q603 10 581 9T535 5T490 2T456 0V42Q492 42 514 57T537 96Q537 126 510 165L390 340L261 134Q232 88 212 60T175 17T142
-4T105 -10Q63 -10 39 12T14 74Q14 84 15 91T21 113Q30 90 49 77T92 64Q121 64 146 86T204 160L350 399L142 704Q98 768 25 768Q25 810 80 810Q95 810 111 808T143 801T171 791T189 779Q195 785 207 790T235 800T268 807T300 810Q353 810 353 768Q316 768 295 755T273
719Q273 699 291 670L409 485L513 671Q538 716 556 744T590 787T624 809T663 815Q708 815 734 794T760 738Q760 714 752 693Q741 716 721 729T677 743Q648 743 625 722T571 645L449 423L649 111Z" />
<glyph unicode="Y" glyph-name="Y" horiz-adv-x="695" d="M209 730Q209 710 227 680L372 442L474 660Q485 684 492 703T500 738Q500 754 484 768T443 783Q432 783 417 778Q417 793 440 806T491 819Q508 819 524 813T551 789Q562 803 582 811T625 819Q648 819 665
809T685 776Q680 777 676 777T668 778Q647 778 629 767T595 740T568 702T547 662L404 362V111Q404 87 413 73T436 53T465 44T493 42V0Q481 0 463 1T426 5T389 8T359 10Q347 10 329 9T292 5T255 2T225 0V42Q238 42 254 44T283 52T305 73T314 111V347L88 714Q71 740
42 759T-29 778Q-29 795 -9 807T42 820Q68 820 92 813T130 789Q143 802 167 811T218 820Q248 820 268 808T289 778Q275 778 261 776T236 768T217 753T209 730Z" />
<glyph unicode="Z" glyph-name="Z" horiz-adv-x="686" d="M246 749Q210 749 186 738T148 706T129 659T123 600Q93 604 68 623T43 681Q43 706 54 725T83 744Q83 777 118 793T217 809H618V750Q606 750 594 736T564 690T521 605T457 474L256 67H443Q482 67 508 79T549
114T570 169T576 239Q591 236 605 231T631 216T649 191T656 155Q656 134 650 115T630 95Q630 71 618 53T585 23T535 6T472 0H267Q258 0 246 0T222 4T199 15T185 35Q175 10 153 -2T103 -14Q36 -14 36 56Q63 56 90 64T146 98T209 172T281 303L491 749H246Z" />
<glyph unicode="[" glyph-name="bracketleft" horiz-adv-x="366" d="M143 820Q169 818 197 816T259 813Q278 813 296 814T330 820Q335 814 339 802T344 780Q344 759 326 752T268 745Q253 745 246 745T232 745T211 746T170 748Q174 707 177 659T183 556T186 443T187
327Q187 265 186 205T183 90T177 -15T170 -105Q198 -104 211 -104T231 -103T246 -102T268 -102Q307 -102 325 -109T344 -137Q344 -147 340 -159T330 -177Q315 -173 297 -172T259 -170Q226 -170 198 -172T143 -177L88 -118Q93 9 96 116T99 330Q99 428 97 532T88
761L143 820Z" />
<glyph unicode="\" glyph-name="backslash" horiz-adv-x="517" d="M418 -114Q399 -54 369 19T302 171T227 334T150 498T80 653T26 789L103 822Q155 688 206 576T307 358T402 146T492 -84L418 -114Z" />
<glyph unicode="]" glyph-name="bracketright" horiz-adv-x="366" d="M278 761Q272 637 270 533T267 330Q267 224 270 117T278 -118L223 -177Q197 -175 169 -173T107 -170Q88 -170 70 -171T36 -177Q31 -171 27 -159T22 -137Q22 -116 40 -109T98 -102Q113 -102
120 -102T134 -102T155 -103T196 -105Q192 -65 189 -16T184 89T180 205T179 327Q179 385 180 443T183 555T188 658T196 748Q168 747 155 747T135 746T120 745T98 745Q59 745 41 752T22 780Q22 790 26 802T36 820Q51 816 69 815T107 813Q140 813 168 815T223 820L278
761Z" />
<glyph unicode="^" glyph-name="asciicircum" horiz-adv-x="489" d="M270 743Q274 745 279 745Q294 745 303 736T320 710T336 672T355 626T384 576T430 528Q434 525 435 521T436 512Q436 506 435 501T427 492Q423 490 420 488T411 486Q400 486 392 493Q365 522
341 553T298 613T264 663T243 693Q236 685 222 664T189 614T146 554T95 493Q87 486 76 486Q68 486 60 492Q51 499 51 512Q51 516 51 520T57 528Q99 563 119 601T151 671T174 724T208 745Q213 745 217 743Q226 755 242 755Q262 755 270 743Z" />
<glyph unicode="_" glyph-name="underscore" horiz-adv-x="501" d="M180 -78Q163 -78 135 -79T83 -85Q78 -79 74 -67T69 -44Q69 -25 89 -18T159 -10Q209 -10 246 -16T319 -22Q346 -22 372 -21T420 -15Q425 -21 429 -32T434 -55Q434 -76 409 -83T328 -90Q290 -90
254 -84T180 -78Z" />
<glyph unicode="`" glyph-name="grave" horiz-adv-x="246" d="M100 713Q103 715 109 715Q124 715 133 706T151 679T174 638T210 588Q216 580 216 572Q216 559 207 552Q199 546 191 546Q180 546 172 553Q147 575 128 588T94 610T71 625T57 638Q50 648 50 659Q50
668 55 674Q45 684 45 700Q45 712 53 718T72 725Q89 725 100 713Z" />
<glyph unicode="a" glyph-name="a" horiz-adv-x="505" d="M424 99Q424 79 430 66T446 45T468 34T493 30V0Q470 0 454 4T414 8Q391 8 374 7T334 0V53Q311 27 279 7T201 -14Q164 -14 134 -4T82 25T48 70T36 130Q36 162 48 187T84 230T138 257T207 267Q250 267 280
259T334 239V276Q334 302 331 328T317 375T288 409T239 422Q226 422 211 419T182 409T160 389T151 357Q151 347 154 334Q139 326 121 326Q93 326 80 341T67 377Q67 397 80 412T119 428Q119 439 129 447T155 459T192 466T233 468Q278 468 313 458T373 422T411 354T424
246V99ZM229 32Q264 32 290 52T334 102V202Q311 213 283 220T227 228Q187 228 159 204T130 136Q130 90 157 61T229 32Z" />
<glyph unicode="b" glyph-name="b" horiz-adv-x="587" d="M181 0Q159 5 149 6T125 8Q105 8 91 7T66 4T45 1T23 0V30Q35 30 47 33T69 45T85 66T92 99V494Q92 576 91 624T82 697T62 729T26 736V766Q51 766 68 769T100 778T126 792T152 809H182V388Q208 426 243 447T333
468Q379 468 418 453T485 408T530 335T546 235Q546 179 530 133T483 55T412 4T322 -14Q228 -14 181 57V0ZM181 227Q181 188 189 153T215 91T258 49T321 33Q360 33 384 51T423 96T443 158T449 225Q449 320 414 370T322 421Q296 421 271 410T226 374T194 314T181
227Z" />
<glyph unicode="c" glyph-name="c" horiz-adv-x="464" d="M274 468Q284 468 297 468T323 464T345 455T354 436Q389 436 408 421T428 370Q428 350 421 336T403 312T378 299T350 294Q344 294 336 294T321 297V301Q335 306 343 318T351 353Q351 383 333 402T272 421Q204
421 172 369T139 226Q139 131 173 82T274 32Q322 32 347 57T381 131H385Q398 126 411 116T424 82Q424 41 381 14T266 -14Q218 -14 177 0T106 44T59 118T42 223Q42 284 60 330T109 407T182 453T274 468Z" />
<glyph unicode="d" glyph-name="d" horiz-adv-x="571" d="M492 121Q492 29 510 -18T584 -66Q591 -66 600 -65T615 -62L618 -67Q605 -88 583 -95T540 -102Q501 -102 480 -85T458 -43Q429 -43 417 -22T403 41Q369 8 333 -3T262 -14Q208 -14 167 4T98 54T56 132T42
231Q42 294 61 338T112 412T184 454T267 468Q309 468 341 455T402 409V612Q402 649 401 673T392 711T372 730T336 736V766Q361 766 378 769T410 778T436 792T462 809H492V121ZM267 32Q301 32 327 47T369 90T394 152T403 229Q403 268 395 302T370 363T328 405T266
420Q230 420 205 406T165 366T144 306T137 231Q137 192 143 156T164 93T204 49T267 32Z" />
<glyph unicode="e" glyph-name="e" horiz-adv-x="476" d="M272 31Q287 31 302 34T330 47T355 74T376 121Q399 121 414 110T429 76Q429 55 416 38T380 10T328 -8T266 -14Q211 -14 169 3T99 52T57 129T42 228Q42 340 101 404T269 468Q282 468 295 467T319 463T337
453T344 436Q359 436 374 430T403 412T425 382T434 337Q434 300 416 276T371 238T311 218T249 212Q216 212 188 217T139 229V225Q139 183 146 147T168 86T209 46T272 31ZM261 421Q207 421 178 382T141 274Q158 263 187 260T244 256Q298 256 319 273T341 332Q341
382 318 401T261 421Z" />
<glyph unicode="f" glyph-name="f" horiz-adv-x="373" d="M100 468V549Q100 631 116 683T160 766T227 808T310 820Q366 820 390 806T414 767Q437 763 448 742T459 702Q459 675 438 655T382 635Q369 635 353 638V642Q365 647 371 660T378 693Q378 724 360 748T300
772Q278 772 258 763T223 728T199 661T190 551V468Q253 468 285 471T334 489Q357 484 364 472T371 449Q371 426 351 416T292 406Q263 406 237 410T190 418V-68Q190 -129 180 -160T134 -191Q134 -216 113 -233T52 -250Q32 -250 10 -243T-26 -215L-23 -210Q-18 -212
-9 -213T8 -214Q64 -214 82 -167T100 -27V421H21V468H100Z" />
<glyph unicode="g" glyph-name="g" horiz-adv-x="579" d="M262 -14Q208 -14 167 4T98 54T56 132T42 231Q42 294 61 338T112 412T184 454T267 468Q312 468 347 455T412 400Q418 422 431 433T461 450T497 457T534 458V428Q521 428 513 423T500 394T494 324T492 195V-33Q492
-147 436 -198T258 -250Q184 -250 149 -234T113 -194Q87 -194 76 -177T65 -141Q65 -124 73 -112T93 -91T118 -79T143 -75Q143 -102 149 -125T171 -166T209 -194T267 -205Q297 -205 322 -196T364 -166T392 -111T402 -27V38Q368 5 332 -4T262 -14ZM277 32Q311 32
337 47T379 90T404 152T413 229Q413 268 405 302T380 363T338 405T276 420Q237 420 210 406T167 366T144 306T137 231Q137 192 143 156T166 93T209 49T277 32Z" />
<glyph unicode="h" glyph-name="h" horiz-adv-x="585" d="M182 99Q182 79 188 66T204 45T226 34T251 30V0Q239 0 225 1T194 5T164 8T137 10Q125 10 111 9T80 5T50 2T23 0V30Q50 30 71 45T92 99V617Q92 654 91 678T82 716T62 735T26 741V766Q51 766 69 769T103
778T130 792T157 809H182V388Q192 404 206 418T239 444T283 461T341 468Q383 468 416 455T471 414T505 340T517 229V110Q517 46 521 7T533 -53T551 -81T573 -88Q584 -88 593 -87T613 -77L618 -81Q607 -108 585 -124T537 -141Q511 -141 491 -125T471 -82Q458 -75
450 -68T436 -46T429 -9T427 54V207Q427 270 420 311T400 376T369 411T328 421Q305 421 279 412T232 381T196 325T182 241V99Z" />
<glyph unicode="i" glyph-name="i" horiz-adv-x="283" d="M78 616Q78 646 99 666T149 687Q178 687 198 667T219 616Q219 586 199 566T149 545Q120 545 99 565T78 616ZM191 99Q191 79 197 66T213 45T235 34T260 30V0Q248 0 234 1T203 5T173 8T146 10Q134 10 120
9T89 5T59 2T32 0V30Q59 30 80 45T101 99V271Q101 308 100 332T91 370T71 389T35 395V425Q60 425 77 428T109 437T135 451T161 468H191V99Z" />
<glyph unicode="j" glyph-name="j" horiz-adv-x="257" d="M179 -35Q179 -138 133 -194T-14 -250Q-66 -250 -90 -236T-115 -197Q-138 -193 -149 -172T-160 -132Q-160 -105 -139 -85T-83 -65Q-71 -65 -54 -68V-72Q-67 -77 -73 -90T-79 -122Q-79 -153 -61 -177T0
-202Q50 -202 69 -164T89 -50V276Q89 313 88 337T79 375T59 394T23 400V425Q48 425 66 428T100 437T127 451T154 468H179V-35ZM66 616Q66 646 87 666T137 687Q166 687 186 667T207 616Q207 586 187 566T137 545Q108 545 87 565T66 616Z" />
<glyph unicode="k" glyph-name="k" horiz-adv-x="515" d="M182 99Q182 79 188 66T204 45T226 34T251 30V0Q239 0 225 1T194 5T164 8T137 10Q125 10 111 9T80 5T50 2T23 0V30Q50 30 71 45T92 99V612Q92 649 91 673T82 711T62 730T26 736V766Q51 766 69 769T103
778T130 792T157 809H182V246L274 359Q296 386 310 402T333 427T350 437T368 440Q373 447 386 452T413 458Q433 458 446 445T462 408L459 405Q450 414 433 414Q419 414 407 406T381 386T354 357T325 324L286 280L426 102Q452 65 475 48T516 30V0Q508 0 493 1T460
3T428 6T404 8Q396 8 381 7T348 4T315 1T291 0V30Q297 30 304 31T318 35T330 44T335 59Q335 71 327 84T315 102L230 218L182 164V99Z" />
<glyph unicode="l" glyph-name="l" horiz-adv-x="280" d="M185 99Q185 79 191 66T207 45T229 34T254 30V0Q242 0 228 1T197 5T167 8T140 10Q128 10 114 9T83 5T53 2T26 0V30Q53 30 74 45T95 99V617Q95 654 94 678T85 716T65 735T29 741V766Q54 766 72 769T106
778T133 792T160 809H185V99Z" />
<glyph unicode="m" glyph-name="m" horiz-adv-x="868" d="M495 99Q495 79 501 66T517 45T539 34T564 30V0Q552 0 538 1T507 5T477 8T450 10Q438 10 424 9T393 5T363 2T336 0V30Q363 30 384 45T405 99V254Q405 303 399 335T380 386T352 413T316 421Q293 421 271
411T231 380T202 324T191 241V99Q191 79 197 66T213 45T235 34T260 30V0Q248 0 234 1T203 5T173 8T146 10Q134 10 120 9T89 5T59 2T32 0V30Q59 30 80 45T101 99V266Q101 303 100 327T91 365T71 384T35 390V415Q60 415 78 418T112 427T139 441T166 458H191V388Q202
405 214 419T243 445T284 462T341 468Q386 468 421 452T475 388Q483 402 497 416T530 442T573 461T626 468Q665 468 697 454T752 410T787 330T800 209V110Q800 53 804 19T816 -34T834 -59T856 -66Q870 -66 881 -61T900 -47L905 -51Q894 -77 874 -89T829 -102Q800
-102 781 -86T761 -43Q726 -43 716 -8T705 95V252Q705 336 685 378T617 421Q603 421 582 415T542 390T509 340T495 255V99Z" />
<glyph unicode="n" glyph-name="n" horiz-adv-x="600" d="M426 187Q426 254 420 299T400 371T367 409T321 421Q295 421 272 411T230 380T202 324T191 241V99Q191 79 197 66T213 45T235 34T260 30V0Q248 0 234 1T203 5T173 8T146 10Q134 10 120 9T89 5T59 2T32
0V30Q59 30 80 45T101 99V266Q101 303 100 327T91 365T71 384T35 390V415Q60 415 78 418T112 427T139 441T166 458H191V388Q210 423 243 445T323 468Q422 468 469 408T516 209V104Q516 84 522 71T538 50T560 39T585 35V0Q572 0 562 1T542 4T518 7T485 9Q472 9 456
8T416 0L407 17Q414 24 418 42T423 85T425 136T426 187Z" />
<glyph unicode="o" glyph-name="o" horiz-adv-x="552" d="M276 -14Q226 -14 184 3T109 53T59 130T41 231Q41 288 59 332T109 406T183 452T276 468Q325 468 368 453T443 407T493 332T511 231Q511 174 493 129T443 52T368 3T276 -14ZM277 32Q314 32 340 48T383 91T408
155T416 231Q416 270 408 305T383 365T340 406T276 421Q239 421 213 407T169 367T144 306T136 231Q136 191 144 155T169 92T213 48T277 32Z" />
<glyph unicode="p" glyph-name="p" horiz-adv-x="579" d="M317 468Q375 468 416 450T485 399T524 324T537 229Q537 163 518 117T467 41T395 -1T311 -14Q270 -14 240 -2T180 42V-151Q180 -171 186 -184T202 -205T224 -216T249 -220V-250Q237 -250 223 -249T192
-245T162 -242T135 -240Q123 -240 109 -241T78 -245T48 -248T21 -250V-220Q48 -220 69 -205T90 -151V266Q90 303 89 327T80 365T60 384T24 390V415Q49 415 67 418T101 427T128 441T155 458H180V408Q212 441 248 454T317 468ZM312 422Q277 422 252 407T210 364T185
301T176 225Q176 186 184 152T209 91T252 49T315 34Q350 34 374 48T414 88T435 148T442 224Q442 263 436 298T414 361T374 405T312 422Z" />
<glyph unicode="q" glyph-name="q" horiz-adv-x="575" d="M262 -14Q208 -14 167 4T98 54T56 132T42 231Q42 294 61 338T112 412T184 454T267 468Q312 468 344 454T408 401Q414 422 427 434T457 451T493 457T530 458V428Q517 428 509 423T496 394T490 324T488 195V-151Q488
-171 494 -184T510 -205T532 -216T557 -220V-250Q545 -250 531 -249T500 -245T470 -242T443 -240Q431 -240 417 -241T386 -245T356 -248T329 -250V-220Q356 -220 377 -205T398 -151V36Q365 6 330 -4T262 -14ZM267 32Q301 32 327 47T369 90T394 152T403 229Q403
268 395 302T370 363T328 405T266 420Q230 420 205 406T165 366T144 306T137 231Q137 192 143 156T164 93T204 49T267 32Z" />
<glyph unicode="r" glyph-name="r" horiz-adv-x="425" d="M191 99Q191 79 197 66T213 45T235 34T260 30V0Q248 0 234 1T203 5T173 8T146 10Q134 10 120 9T89 5T59 2T32 0V30Q59 30 80 45T101 99V266Q101 303 100 327T91 365T71 384T35 390V415Q60 415 78 418T112
427T139 441T166 458H191V354Q215 413 248 440T317 468Q339 468 357 461T375 437Q395 437 406 424T418 388Q418 362 400 343T340 315Q344 330 344 345Q344 381 328 398T291 415Q275 415 258 399T225 353T201 286T191 202V99Z" />
<glyph unicode="s" glyph-name="s" horiz-adv-x="439" d="M378 375Q378 337 353 320T295 302L292 307Q299 310 307 322T315 354Q315 388 290 404T224 421Q214 421 200 419T173 410T151 390T141 356Q141 328 160 312T207 285T269 264T330 238T378 196T397 127Q397
57 345 22T206 -14Q200 -14 187 -14T162 -11T139 -5T129 7Q87 7 66 29T45 85Q45 122 66 138T116 156L118 153Q110 144 108 130T106 107Q106 85 116 71T141 48T174 36T211 32Q215 32 229 33T259 40T286 61T298 102Q298 133 280 151T235 181T175 203T116 229T70 268T52
334Q52 375 70 401T115 442T172 462T228 468Q260 468 277 462T294 445Q309 445 324 442T351 430T370 409T378 375Z" />
<glyph unicode="t" glyph-name="t" horiz-adv-x="317" d="M187 109Q187 57 192 25T207 -24T227 -48T251 -54Q265 -54 274 -51T292 -43L302 -52Q291 -78 273 -90T231 -103Q202 -103 183 -91T163 -59Q122 -59 110 -24T97 79V411H31V458H37Q64 458 83 470T117 503T142
548T162 600H187V458Q223 459 246 463T281 479Q304 475 311 463T318 441Q318 429 311 421T291 407T262 400T230 398Q208 398 187 401V109Z" />
<glyph unicode="u" glyph-name="u" horiz-adv-x="588" d="M405 261Q405 298 404 322T395 360T375 379T339 385V415Q364 415 381 418T413 427T439 441T465 458H495V103Q495 83 501 70T517 49T539 38T564 34V-1Q541 2 525 4T483 7Q449 7 415 0L405 10V66Q394 49
383 35T355 10T318 -7T268 -14Q168 -14 125 47T80 226Q79 280 78 311T70 359T51 380T14 385V415Q39 415 56 418T88 427T114 441T140 458H170V247Q170 186 178 145T200 79T235 44T279 33Q307 33 330 47T370 88T396 149T405 226V261Z" />
<glyph unicode="v" glyph-name="v" horiz-adv-x="503" d="M253 -14Q194 -14 161 9T110 69T89 147T84 226Q84 281 83 312T75 360T55 380T18 385V415Q43 415 60 418T92 427T118 441T144 458H174V247Q174 222 176 186T188 117T218 61T274 37Q305 37 329 56T369 106T393
180T401 269Q401 304 396 332T377 381T340 413T280 430Q291 447 310 457T350 468Q358 468 367 466T385 461T398 451T404 437Q437 437 446 409T456 318Q456 259 449 200T420 94T359 16T253 -14Z" />
<glyph unicode="w" glyph-name="w" horiz-adv-x="806" d="M561 -14Q528 -14 503 -5T460 19T431 54T412 97Q391 47 353 17T248 -14Q192 -14 160 9T111 69T89 147T84 226Q84 281 83 312T75 360T55 380T18 385V415Q43 415 60 418T92 427T118 441T144 458H174V247Q174
222 176 186T188 117T217 61T271 37Q302 37 325 55T364 106T388 181T396 275Q396 311 394 333T384 366T365 381T331 385V415Q356 415 373 418T405 427T431 441T457 458H487V247Q487 222 489 186T501 117T530 61T584 37Q614 37 636 55T674 106T696 183T704 277Q704
346 677 385T583 430Q594 447 613 457T653 468Q661 468 670 466T688 461T701 451T707 437Q739 437 749 410T759 326Q759 263 752 202T724 93T664 16T561 -14Z" />
<glyph unicode="x" glyph-name="x" horiz-adv-x="498" d="M27 429Q37 449 58 458T102 468Q147 468 147 435Q173 435 187 423T217 382L260 301L300 386Q321 431 346 449T405 468Q415 468 426 466T448 460T466 447T473 425Q473 420 473 413T469 398Q462 410 446
419T411 428Q388 428 375 413T350 371L291 245L331 171Q355 127 373 98T409 51T444 27T484 20Q473 -1 463 -10T426 -20Q417 -20 406 -19T386 -14T370 -3T364 15Q348 15 336 17T314 26T293 48T269 86L231 151L187 68Q164 24 140 5T82 -14Q72 -14 61 -12T39 -5T21
10T14 36Q14 44 18 56Q25 44 38 35T69 26Q93 26 108 42T137 83L201 203L163 270Q151 290 136 317T102 369T65 411T27 429Z" />
<glyph unicode="y" glyph-name="y" horiz-adv-x="567" d="M84 226Q83 280 82 311T74 359T55 380T18 385V415Q43 415 60 418T92 427T118 441T144 458H174V247Q174 187 181 146T201 80T233 44T275 33Q297 33 319 42T359 73T388 129T399 212V261Q399 298 398 322T389
360T369 379T333 385V415Q358 415 375 418T407 427T433 441T459 458H489V-33Q489 -149 436 -199T271 -250Q207 -250 174 -237T140 -204Q114 -204 103 -187T92 -151Q92 -134 100 -122T120 -101T145 -89T170 -85Q170 -110 176 -131T195 -169T230 -195T281 -205Q308
-205 329 -196T366 -166T390 -111T399 -27V66Q389 49 378 35T350 10T311 -7T257 -14Q208 -14 176 1T123 47T94 123T84 226Z" />
<glyph unicode="z" glyph-name="z" horiz-adv-x="490" d="M427 424Q411 424 388 383T321 266L197 50H321Q373 50 391 73T409 143Q432 140 447 129T462 97Q462 83 458 72T445 60Q445 40 437 28T415 10T382 2T340 0H167Q156 0 146 2T130 20Q123 5 106 -4T70 -14Q49
-14 32 -1T14 32Q29 32 43 34T74 50T113 93T165 174L301 408H156Q131 408 112 409T80 415T60 433T53 469Q62 462 82 460T144 458H427V424Z" />
<glyph unicode="{" glyph-name="braceleft" horiz-adv-x="344" d="M26 332Q48 332 65 344T95 382T115 451T122 556V620Q122 688 132 723T178 758Q178 785 197 801T246 817Q269 817 290 805T322 766L317 762Q309 770 298 775T273 781Q262 781 252 775T234 750T222
697T217 605V554Q217 507 205 468T174 399T133 348T89 318Q110 312 132 292T173 241T204 170T217 83V32Q217 -25 221 -59T233 -112T251 -137T273 -144Q287 -144 298 -139T317 -125L322 -129Q311 -155 290 -167T246 -180Q217 -180 198 -165T178 -121Q143 -121 133
-86T122 17V81Q122 143 116 185T97 254T68 293T28 305L26 332Z" />
<glyph unicode="|" glyph-name="bar" horiz-adv-x="278" d="M101 -175Q97 -116 95 -60T93 47Q93 123 94 196T98 344T101 497T103 659Q103 730 100 811H183Q186 761 186 701Q186 624 184 538T180 362T175 184T173 14Q173 -39 174 -86T181 -173L101 -175Z" />
<glyph unicode="}" glyph-name="braceright" horiz-adv-x="344" d="M316 305Q294 305 277 293T247 255T229 186T222 81V17Q222 -50 212 -85T166 -121Q166 -149 147 -164T98 -180Q75 -180 54 -168T22 -129L27 -125Q35 -133 46 -138T71 -144Q82 -144 92 -138T110
-113T122 -60T127 32V83Q127 129 139 169T170 241T211 292T255 318Q234 327 212 347T171 398T140 468T127 554V605Q127 662 123 696T111 749T93 774T71 781Q57 781 46 776T27 762L22 766Q33 792 54 804T98 817Q127 817 146 801T166 758Q201 758 211 723T222 620V556Q222
494 229 452T248 383T278 344T318 332L316 305Z" />
<glyph unicode="~" glyph-name="asciitilde" horiz-adv-x="576" d="M113 165Q74 171 74 207Q74 220 86 234Q86 266 103 283T149 300Q178 300 211 290T277 268T343 245T405 235Q428 235 445 250T470 303Q485 295 493 281T502 252Q502 230 488 219Q488 186 465 174T415
161Q379 161 344 171T277 193T214 216T158 226Q138 226 126 213T113 165Z" />
<glyph unicode="&#xa0;" glyph-name="uni00A0" horiz-adv-x="250" />
<glyph unicode="&#xa1;" glyph-name="exclamdown" horiz-adv-x="317" d="M219 -34Q221 -69 221 -101T222 -147Q222 -167 218 -185T205 -218T178 -241T133 -250Q109 -250 91 -244T61 -230T42 -211T36 -192Q81 -192 100 -166T121 -73L135 305H206L219 -34ZM241 488Q241
458 220 438T170 417Q141 417 121 437T100 488Q100 518 120 538T170 559Q199 559 220 539T241 488Z" />
<glyph unicode="&#xa2;" glyph-name="cent" horiz-adv-x="490" d="M368 436Q403 436 422 421T442 370Q442 350 435 336T417 312T392 299T364 294Q358 294 350 294T335 297V301Q349 306 357 318T365 353Q365 383 347 402T286 421Q218 421 186 369T153 226Q153 131
187 82T288 32Q336 32 361 57T395 131H399Q412 126 425 116T438 82Q438 43 398 16T291 -14Q299 -33 304 -46T310 -78Q310 -94 305 -105T291 -117Q291 -134 282 -144T256 -154Q240 -154 231 -144T221 -117Q212 -115 207 -105T202 -79Q202 -59 207 -45T221 -8Q148
8 102 65T56 223Q56 324 102 383T222 460Q214 485 208 499T202 535Q202 550 207 560T221 573Q221 590 230 600T256 610Q272 610 281 600T291 573Q300 572 305 561T310 534Q310 514 305 501T291 468Q301 468 314 468T340 464T360 455T368 436Z" />
<glyph unicode="&#xa3;" glyph-name="sterling" horiz-adv-x="609" d="M405 -44Q431 -44 448 -37T474 -17T488 10T492 43Q492 69 484 85T457 116V120Q486 120 503 114T529 96T540 71T543 39Q555 39 562 28T569 -4Q569 -32 550 -50T503 -78T445 -93T395 -97Q348
-97 305 -79T223 -40T155 -1T105 17Q91 17 82 15T66 8T54 -1T44 -10L42 42Q53 65 72 72T108 80Q120 80 138 77Q146 111 149 144T152 209Q152 225 152 240T150 271Q139 270 128 269T106 266Q101 272 97 284T92 307Q92 321 103 329T143 339Q137 393 131 445T125 551Q125
689 182 753T346 817Q377 817 404 813T451 799T483 776T495 743Q516 735 530 714T545 661Q545 622 524 604T477 586Q466 586 454 589T435 597Q443 609 444 629T445 661Q445 675 441 692T425 725T393 751T340 762Q272 762 243 717T213 581Q213 518 221 459T234 339Q264
336 290 333T342 329Q369 329 395 330T443 336Q448 330 452 319T457 296Q457 275 432 268T351 261Q321 261 294 265T237 271Q237 247 237 216T235 153T230 92T221 42Q234 32 256 17T303 -11T355 -34T405 -44Z" />
<glyph unicode="&#xa4;" glyph-name="currency" horiz-adv-x="658" d="M329 120Q297 120 266 131T207 163Q198 146 191 130T176 101T159 81T136 73Q130 73 127 76Q115 64 100 64Q86 64 76 75T65 100Q65 114 77 126Q75 129 75 135Q75 148 82 157T101 174T129 190T163
207Q142 234 130 266T117 333Q117 366 128 397T160 455Q143 464 128 471T101 487T82 504T75 526Q75 532 77 535Q65 547 65 561Q65 575 75 586T100 597Q115 597 127 585Q130 588 136 588Q149 588 158 581T175 561T190 534T206 501Q232 521 263 532T328 544Q361 544
393 532T452 500Q461 517 468 533T482 561T499 580T522 588Q528 588 531 585Q543 597 558 597Q572 597 582 586T593 561Q593 547 581 535Q583 532 583 526Q583 513 576 504T557 486T530 471T497 455Q517 429 528 398T540 332Q540 299 528 267T494 207Q512 198 528
190T556 174T575 157T583 135Q583 129 581 126Q593 114 593 100Q593 86 583 75T558 64Q543 64 531 76Q528 73 522 73Q508 73 499 80T482 101T467 130T450 164Q424 144 393 132T329 120ZM186 332Q186 304 197 279T227 234T272 202T328 190Q358 190 384 201T429 231T460
276T471 332Q471 362 460 388T430 433T384 464T328 475Q298 475 272 464T227 434T197 388T186 332Z" />
<glyph unicode="&#xa5;" glyph-name="yen" horiz-adv-x="830" d="M318 347Q301 347 273 346T221 340Q216 346 212 358T207 381Q207 400 227 407T297 415Q306 415 314 415T330 414L146 714Q130 740 101 759T29 778Q29 795 49 807T100 820Q126 820 150 813T188 789Q201
802 225 811T276 820Q306 820 326 808T347 778Q319 778 294 768T267 730Q267 710 285 680L430 440L547 688Q583 765 617 798T701 832Q715 832 731 829T761 817T784 797T794 767Q794 755 793 743T786 716Q776 737 757 753T710 769Q675 769 651 738T605 662L481 403H507Q534
403 560 404T608 410Q613 404 617 393T622 370Q622 349 597 342T516 335Q499 335 486 335T462 336V238Q473 237 483 237T507 237Q534 237 560 238T608 244Q613 238 617 227T622 204Q622 183 597 176T516 169Q499 169 486 169T462 170V111Q462 87 471 73T494 53T523
44T551 42V0Q539 0 521 1T484 5T447 8T417 10Q405 10 387 9T350 5T313 2T283 0V42Q296 42 312 44T341 52T363 73T372 111V179Q360 180 347 180T318 181Q301 181 273 180T221 174Q216 180 212 192T207 215Q207 234 227 241T297 249Q317 249 335 248T372 245V345Q360
346 347 346T318 347Z" />
<glyph unicode="&#xa6;" glyph-name="brokenbar" horiz-adv-x="233" d="M74 439Q75 473 76 497T78 544T79 594T80 659Q80 730 77 811H160Q163 761 163 701Q163 664 163 635T161 576T158 514T155 438L74 439ZM155 198Q154 165 153 144T152 103T151 64T150 14Q150
-39 151 -87T158 -175H79Q75 -116 73 -60T70 47Q70 75 70 92T71 123T72 154T74 199L155 198Z" />
<glyph unicode="&#xa7;" glyph-name="section" horiz-adv-x="654" d="M69 326Q69 347 73 369T87 412T111 450T146 478Q120 504 105 537T89 616Q89 671 113 710T176 773T264 809T364 820Q463 820 463 780Q485 780 507 775T547 758T576 724T588 669Q588 639 578
616T552 578T514 556T469 548L465 557Q472 562 482 581T493 641Q493 704 459 736T350 768Q322 768 291 762T235 742T193 705T176 646Q176 596 206 566T283 514T383 473T483 426T559 356T590 247Q590 199 574 163T527 100Q556 74 573 40T590 -43Q590 -96 569 -135T511
-201T421 -240T305 -253Q294 -253 273 -252T231 -248T195 -237T179 -217Q150 -217 127 -207T87 -178T61 -136T52 -82Q52 -49 63 -27T91 10T129 32T170 41L174 36Q168 28 165 17T159 -5T157 -26T156 -44Q156 -91 170 -121T206 -170T258 -195T320 -203Q344 -203 373
-198T427 -180T470 -142T488 -78Q488 -25 457 7T380 63T279 105T178 152T100 220T69 326ZM156 359Q156 326 170 302T207 260T261 227T326 200T395 174T462 144Q474 158 481 176T488 218Q488 266 459 296T386 350T291 393T195 440Q175 420 166 403T156 359Z" />
<glyph unicode="&#xa8;" glyph-name="dieresis" horiz-adv-x="501" d="M78 609Q78 637 97 655T142 674Q168 674 187 656T206 609Q206 582 187 564T142 545Q116 545 97 563T78 609ZM296 609Q296 637 315 655T360 674Q386 674 405 656T424 609Q424 582 405 564T360
545Q334 545 315 563T296 609Z" />
<glyph unicode="&#xa9;" glyph-name="copyright" horiz-adv-x="823" d="M411 51Q342 51 279 78T167 151T89 261T59 398Q59 472 86 537T162 650T274 727T411 755Q484 755 548 727T661 651T736 538T764 400Q764 328 737 265T661 154T549 79T411 51ZM127 400Q127
343 149 291T209 198T299 133T411 109Q471 109 522 132T612 195T673 288T695 400Q695 459 673 511T613 603T523 666T411 689Q351 689 300 666T210 604T149 512T127 400ZM428 633Q437 633 451 631T480 624T504 612T514 592Q535 592 551 578T567 526Q567 494 549
476T501 458Q496 458 489 458T477 461Q488 467 495 477T502 509Q502 542 482 556T428 570Q401 570 378 559T337 526T309 471T298 394Q298 311 334 269T425 226Q449 226 464 234T489 255T503 287T508 327Q515 327 525 324T545 313T560 297T567 276Q567 259 559 243T529
227Q529 212 519 201T492 182T457 171T420 167Q376 167 338 181T272 224T229 295T213 395Q213 452 229 496T275 571T343 617T428 633Z" />
<glyph unicode="&#xaa;" glyph-name="ordfeminine" horiz-adv-x="462" d="M356 531Q356 495 359 474T368 441T382 425T403 421Q411 421 417 421T425 423L427 419Q420 408 407 401T372 394Q344 394 328 405T311 436Q290 436 282 450T271 496Q254 476 230 465T173
453Q146 453 122 461T80 483T51 518T40 562Q40 587 51 607T82 643T126 666T178 674Q209 674 231 664T270 642V669Q270 688 268 706T258 740T237 764T201 774Q192 774 181 772T160 764T144 749T137 726Q137 723 138 720T140 711Q133 708 122 707T106 705Q85 705
76 716T66 742Q66 757 76 768T105 779Q105 787 113 792T135 801T165 806T196 808Q229 808 258 801T309 774T343 724T356 643V531ZM193 630Q164 630 143 616T121 567Q121 533 141 515T194 496Q217 496 236 506T270 533V606Q253 617 233 623T193 630Z" />
<glyph unicode="&#xab;" glyph-name="guillemotleft" horiz-adv-x="629" d="M59 226Q59 229 59 232T58 237Q58 257 67 270T93 294T131 316T177 343T226 383T274 446Q277 450 281 451T290 452Q313 440 313 420Q313 388 259 333T99 201Q123 180 158 153T227 97T285
38T309 -17Q309 -38 290 -53Q286 -53 282 -53T274 -47Q251 -9 226 15T177 56T132 83T94 104T68 128T58 162Q58 164 58 167T59 173Q44 173 38 181T31 200Q31 210 37 218T53 227Q57 227 59 226ZM329 226Q329 229 329 232T328 237Q328 257 337 270T363 294T401 316T447
343T496 383T544 446Q547 450 551 451T560 452Q583 440 583 420Q583 388 529 333T369 201Q393 180 428 153T497 97T555 38T579 -17Q579 -38 560 -53Q556 -53 552 -53T544 -47Q521 -9 496 15T447 56T402 83T364 104T338 128T328 162Q328 164 328 167T329 173Q314
173 308 181T301 200Q301 210 307 218T323 227Q327 227 329 226Z" />
<glyph unicode="&#xac;" glyph-name="logicalnot" horiz-adv-x="835" d="M235 202Q222 202 204 202T165 201T125 199T87 195Q82 201 78 213T73 235Q73 256 106 263T222 270Q324 270 416 264T597 258Q635 258 673 259T744 265Q749 259 753 248T759 227Q758 215
757 205T754 184T753 161T752 132Q752 113 753 95T759 61Q753 56 741 52T719 47Q698 47 691 65T684 123Q684 138 684 141T684 148T685 160T687 192Q671 190 651 190T608 190Q511 190 417 196T235 202Z" />
<glyph unicode="&#xad;" glyph-name="uni00AD" horiz-adv-x="450" d="M179 202Q162 202 134 201T82 195Q77 201 73 213T68 236Q68 255 88 262T158 270Q193 270 218 264T268 258Q295 258 321 259T369 265Q374 259 378 248T383 225Q383 204 358 197T277 190Q251
190 228 196T179 202Z" />
<glyph unicode="&#xae;" glyph-name="registered" horiz-adv-x="823" d="M395 428H434Q450 428 460 434T477 451T486 475T489 502Q489 540 465 564T386 588Q325 588 295 554T264 459Q249 459 232 468T214 497Q214 508 220 518T233 528Q229 531 228 537T226 549Q226
565 241 578T280 601T332 615T387 620Q481 620 522 586T563 495Q563 469 549 447T510 412Q542 393 548 356T554 266Q554 254 557 246T572 237Q578 237 584 240T595 248L596 245Q586 232 574 224T546 216Q517 216 505 229T490 261T486 304T483 347T467 381T425 397Q415
397 408 397T395 398V271Q395 259 399 253T411 243T425 238T438 237V217Q431 217 420 218T398 219T375 221T358 222Q352 222 342 221T321 220T299 218T283 217V237Q297 237 311 242T326 271V445Q326 481 322 493T294 505V537Q318 537 331 542T357 557H395V428ZM411
51Q342 51 279 78T167 151T89 261T59 398Q59 472 86 537T162 650T274 727T411 755Q484 755 548 727T661 651T736 538T764 400Q764 328 737 265T661 154T549 79T411 51ZM127 400Q127 343 149 291T209 198T299 133T411 109Q471 109 522 132T612 195T673 288T695 400Q695
459 673 511T613 603T523 666T411 689Q351 689 300 666T210 604T149 512T127 400Z" />
<glyph unicode="&#xaf;" glyph-name="overscore" horiz-adv-x="379" d="M120 600Q105 600 96 600T78 598T61 596T39 593Q34 599 30 611T25 634Q25 668 100 668Q142 668 184 662T254 656Q271 656 292 657T336 663Q341 657 345 646T350 624Q350 604 329 596T266
588Q243 588 226 590T192 594T159 598T120 600Z" />
<glyph unicode="&#xb0;" glyph-name="degree" horiz-adv-x="484" d="M242 423Q202 423 166 437T103 476T60 538T44 619Q44 665 60 700T103 760T166 796T242 809Q282 809 318 797T381 760T424 701T440 619Q440 574 424 538T381 476T318 437T242 423ZM242 489Q267
489 290 498T330 525T357 566T367 619Q367 647 357 670T330 709T290 734T242 743Q216 743 194 735T154 710T127 670T117 619Q117 590 127 566T154 525T193 499T242 489Z" />
<glyph unicode="&#xb1;" glyph-name="plusminus" horiz-adv-x="531" d="M169 291Q152 291 124 290T72 284Q67 290 63 302T58 325Q58 344 78 351T148 359Q173 359 194 358T235 354Q236 367 236 381T237 411Q237 438 236 464T230 512Q236 517 247 521T270 526Q291
526 298 501T305 420Q305 397 305 380T302 348Q315 347 328 347T358 347Q385 347 411 348T459 354Q464 348 468 337T473 314Q473 293 448 286T367 279Q344 279 327 279T295 281Q294 268 294 254T293 222Q293 205 294 177T300 125Q294 120 282 116T259 111Q240 111
233 131T225 201Q225 226 226 247T229 288Q203 291 169 291ZM169 -9Q152 -9 124 -10T72 -16Q67 -10 63 2T58 25Q58 44 78 51T148 59Q176 59 200 57T248 53T298 49T358 47Q385 47 411 48T459 54Q464 48 468 37T473 14Q473 -7 448 -14T367 -21Q331 -21 307 -19T263
-15T221 -11T169 -9Z" />
<glyph unicode="&#xb2;" glyph-name="twosuperior" horiz-adv-x="439" d="M136 518Q154 518 173 513T212 500T248 488T281 482Q304 482 317 491T330 515Q330 530 312 547Q317 548 323 549T337 550Q354 550 369 541T385 506Q385 476 362 456T286 435Q264 435 245
440T207 451T169 463T129 468H81Q81 491 77 502T65 524Q87 538 121 563T187 619T243 686T266 758Q266 779 259 791T241 810T221 819T205 822Q173 822 152 808T130 771Q130 762 134 755T144 743T154 735T161 732L159 726Q124 726 100 741T75 786Q75 797 81 809T102
833T143 851T211 858Q229 858 250 853T291 834T324 801T337 749Q337 707 313 672T257 607T190 556T136 518Z" />
<glyph unicode="&#xb3;" glyph-name="threesuperior" horiz-adv-x="413" d="M203 861Q222 861 245 856T290 840T325 809T339 761Q339 738 329 722T304 696T271 681T237 674Q258 673 278 666T315 647T340 616T350 574Q350 522 309 489T197 456Q177 456 156 459T116
472T86 497T74 539Q74 546 76 555T85 571T104 584T137 589L138 586Q136 577 134 568T132 549Q132 532 139 521T155 504T176 494T196 491Q231 491 250 515T269 571Q269 596 259 611T234 634T202 644T171 647V683Q185 683 200 686T228 699T249 722T258 759Q258 784
243 802T198 820Q161 820 142 802T122 758Q122 748 123 741T126 729Q94 729 80 745T66 779Q66 805 80 821T114 846T159 858T203 861Z" />
<glyph unicode="&#xb4;" glyph-name="acute" horiz-adv-x="246" d="M161 713Q166 719 173 722T189 725Q199 725 207 719T216 700Q216 684 206 674Q211 668 211 659Q211 648 204 638Q199 631 190 625T167 610T134 588T89 553Q81 546 70 546Q62 546 54 552Q45 559
45 572Q45 580 51 588Q74 615 87 638T109 678T128 705T152 715Q158 715 161 713Z" />
<glyph unicode="&#xb5;" glyph-name="mu" horiz-adv-x="637" d="M106 226Q106 280 105 311T97 359T77 380T40 385V415Q65 415 82 418T114 427T140 441T166 458H196V247Q196 187 203 146T223 80T255 44T297 33Q325 33 349 48T392 91T420 161T431 255V261Q431 298
430 322T421 360T401 379T365 385V415Q390 415 407 418T439 427T465 441T491 458H521V100Q521 85 524 72T535 48T556 31T590 25V0H497Q473 0 460 8T440 28T433 54T431 80V98Q420 48 387 17T299 -14Q268 -14 243 -4T196 23V-38Q196 -95 200 -129T212 -182T230 -207T252
-214Q266 -214 277 -209T296 -195L301 -199Q290 -225 272 -237T230 -250Q201 -250 182 -234T162 -191Q127 -191 117 -156T106 -53V226Z" />
<glyph unicode="&#xb6;" glyph-name="paragraph" horiz-adv-x="735" d="M503 668Q503 702 486 716T443 731Q422 731 408 717T393 668V-200Q365 -195 346 -194T309 -193Q281 -193 259 -195T204 -200V-158Q217 -158 234 -156T267 -148T292 -127T303 -89V329Q289
322 271 318T229 314Q178 314 141 336T80 393T43 470T31 552Q31 598 49 646T107 734T209 799T359 825Q406 825 458 818T548 789Q561 802 581 811T625 820Q658 820 670 808T682 778Q641 778 617 762T593 714V-89Q593 -113 603 -127T628 -147T660 -156T691 -158V-200Q659
-198 637 -196T586 -193Q569 -193 550 -194T504 -200L503 668Z" />
<glyph unicode="&#xb7;" glyph-name="middot" horiz-adv-x="278" d="M63 229Q63 261 85 283T140 306Q171 306 193 284T216 229Q216 197 194 175T140 152Q108 152 86 174T63 229Z" />
<glyph unicode="&#xb8;" glyph-name="cedilla" horiz-adv-x="228" d="M118 35V-55Q133 -49 146 -49Q162 -49 175 -56T197 -74T210 -100T215 -128Q215 -143 209 -155T190 -175Q190 -200 170 -217T120 -235Q109 -235 96 -233T69 -226T44 -213T25 -190L28 -185Q34
-193 50 -196T76 -199Q111 -199 124 -182T138 -142Q138 -122 125 -105T85 -88Q80 -88 76 -88T67 -90L56 -80L80 35H118Z" />
<glyph unicode="&#xb9;" glyph-name="onesuperior" horiz-adv-x="428" d="M261 547Q261 527 271 516T295 500T325 494T350 492V457Q340 457 324 458T289 461T254 464T228 466Q219 466 202 465T166 462T130 459T103 457V492Q114 492 129 493T158 500T182 516T192
547V758Q186 754 174 751T149 747Q125 747 110 761T95 802Q145 802 176 815T219 862H261V547Z" />
<glyph unicode="&#xba;" glyph-name="ordmasculine" horiz-adv-x="466" d="M233 423Q193 423 159 437T100 476T60 538T45 619Q45 665 59 700T99 760T159 796T233 809Q273 809 307 797T366 760T406 701T421 619Q421 574 407 538T367 476T307 437T233 423ZM234 467Q263
467 282 479T313 511T330 559T335 619Q335 650 330 677T314 724T283 755T233 766Q204 766 185 755T153 725T136 678T131 619Q131 587 136 560T153 512T184 479T234 467Z" />
<glyph unicode="&#xbb;" glyph-name="guillemotright" horiz-adv-x="629" d="M570 226Q572 227 576 227Q586 227 592 219T598 200Q598 190 592 182T570 173Q570 170 570 167T571 162Q571 141 562 128T536 105T498 84T452 57T403 16T355 -47Q351 -52 347 -52T339
-53Q320 -38 320 -17Q320 8 344 37T401 96T470 153T530 201Q425 278 371 333T316 420Q316 440 339 452Q343 452 347 451T355 446Q378 408 403 384T452 343T497 316T535 294T561 270T571 237Q571 235 571 232T570 226ZM300 226Q302 227 306 227Q316 227 322 219T328
200Q328 190 322 182T300 173Q300 170 300 167T301 162Q301 141 292 128T266 105T228 84T182 57T133 16T85 -47Q81 -52 77 -52T69 -53Q50 -38 50 -17Q50 8 74 37T131 96T200 153T260 201Q155 278 101 333T46 420Q46 440 69 452Q73 452 77 451T85 446Q108 408 133
384T182 343T227 316T265 294T291 270T301 237Q301 235 301 232T300 226Z" />
<glyph unicode="&#xbc;" glyph-name="onequarter" horiz-adv-x="1004" d="M963 182Q963 156 950 143T911 125L908 128Q910 130 913 135T916 154Q916 159 910 162T883 168V123Q883 104 894 93T919 76T948 69T968 67V34Q961 34 944 35T907 39T870 42T845 44Q839
44 822 43T786 39T751 36T728 34V67Q734 67 748 68T778 75T804 92T815 123V170Q794 170 778 169T743 164T702 157T646 148L629 193Q653 220 676 252T721 316T764 380T803 439H883V214Q923 209 943 201T963 182ZM686 197Q694 200 729 208T815 217V385Q799 361 782
335T749 284T717 236T686 197ZM212 447Q212 427 222 416T246 400T276 394T301 392V357Q291 357 275 358T240 361T205 364T179 366Q170 366 153 365T117 362T81 359T54 357V392Q65 392 80 393T109 400T133 416T143 447V658Q137 654 125 651T100 647Q76 647 61 661T46
702Q96 702 127 715T170 762H212V447ZM208 3Q269 106 328 190Q371 252 414 311T501 431T590 555T684 688Q704 718 724 749T767 815L817 782Q804 760 789 737T757 689Q713 626 663 556T559 414T454 270T356 132Q326 88 301 48T256 -27L208 3Z" />
<glyph unicode="&#xbd;" glyph-name="onehalf" horiz-adv-x="1005" d="M215 447Q215 427 225 416T249 400T279 394T304 392V357Q294 357 278 358T243 361T208 364T182 366Q173 366 156 365T120 362T84 359T57 357V392Q68 392 83 393T112 400T136 416T146 447V658Q140
654 128 651T103 647Q79 647 64 661T49 702Q99 702 130 715T173 762H215V447ZM722 91Q740 91 759 86T798 73T834 61T867 55Q890 55 903 64T916 88Q916 103 898 120Q903 121 909 122T923 123Q940 123 955 114T971 79Q971 49 948 29T872 8Q850 8 831 13T793 24T755
36T715 41H667Q667 64 663 75T651 97Q673 111 707 136T773 192T829 259T852 331Q852 352 845 364T827 383T807 392T791 395Q759 395 738 381T716 344Q716 335 720 328T730 316T740 308T747 305L745 299Q710 299 686 314T661 359Q661 370 667 382T688 406T729 424T797
431Q815 431 836 426T877 407T910 374T923 322Q923 280 899 245T843 180T776 129T722 91ZM209 3Q270 106 329 190Q372 252 415 311T502 431T591 555T685 688Q705 718 725 749T768 815L818 782Q805 760 790 737T758 689Q714 626 664 556T560 414T455 270T357 132Q327
88 302 48T257 -27L209 3Z" />
<glyph unicode="&#xbe;" glyph-name="threequarters" horiz-adv-x="1001" d="M180 761Q199 761 222 756T267 740T302 709T316 661Q316 638 306 622T281 596T248 581T214 574Q235 573 255 566T292 547T317 516T327 474Q327 422 286 389T174 356Q154 356 133 359T93
372T63 397T51 439Q51 446 53 455T62 471T81 484T114 489L115 486Q113 477 111 468T109 449Q109 432 116 421T132 404T153 394T173 391Q208 391 227 415T246 471Q246 496 236 511T211 534T179 544T148 547V583Q162 583 177 586T205 599T226 622T235 659Q235 684
220 702T175 720Q138 720 119 702T99 658Q99 648 100 641T103 629Q71 629 57 645T43 679Q43 705 57 721T91 746T136 758T180 761ZM960 182Q960 156 947 143T908 125L905 128Q907 130 910 135T913 154Q913 159 907 162T880 168V123Q880 104 891 93T916 76T945 69T965
67V34Q958 34 941 35T904 39T867 42T842 44Q836 44 819 43T783 39T748 36T725 34V67Q731 67 745 68T775 75T801 92T812 123V170Q791 170 775 169T740 164T699 157T643 148L626 193Q650 220 673 252T718 316T761 380T800 439H880V214Q920 209 940 201T960 182ZM683
197Q691 200 726 208T812 217V385Q796 361 779 335T746 284T714 236T683 197ZM205 3Q266 106 325 190Q368 252 411 311T498 431T587 555T681 688Q701 718 721 749T764 815L814 782Q801 760 786 737T754 689Q710 626 660 556T556 414T451 270T353 132Q323 88 298
48T253 -27L205 3Z" />
<glyph unicode="&#xbf;" glyph-name="questiondown" horiz-adv-x="550" d="M325 317Q325 272 311 236T274 170T226 114T178 62T142 9T127 -52Q127 -124 167 -161T278 -198Q341 -198 382 -168T424 -77Q424 -40 413 -17T389 21Q374 37 355 44V54Q377 54 404 50T456
30T498 -14T515 -92Q515 -151 480 -177T390 -204Q390 -220 381 -229T357 -242T327 -248T296 -250Q254 -250 208 -242T122 -212T57 -151T31 -49Q31 -14 48 15T90 71T146 124T201 178T244 240T261 316L325 317ZM362 499Q362 469 341 449T291 428Q262 428 242 448T221
499Q221 529 241 549T291 570Q320 570 341 550T362 499Z" />
<glyph unicode="&#xc0;" glyph-name="Agrave" horiz-adv-x="754" d="M485 354Q456 460 438 529T409 640T392 702T383 730L262 320Q279 318 294 317T322 316Q354 316 394 323T485 354ZM659 99Q667 70 698 56T774 42V0Q762 0 745 1T707 5T665 8T624 10Q605 10 581
9T533 5T489 2T456 0V42Q471 42 488 43T519 48T543 61T553 85Q553 89 552 97T544 127T528 189T499 299Q439 278 394 271T310 264Q296 264 280 265T247 268L211 138Q206 121 204 107T201 85Q201 70 212 62T238 49T272 43T305 42V0Q293 0 275 1T236 5T192 8T151 10Q113
10 77 5T17 0V42Q62 42 90 56T128 99L185 280Q157 288 132 301T89 333T60 375T49 429Q49 445 52 452T63 465Q47 485 47 512Q47 529 53 545T71 574T99 594T135 602Q145 602 153 600T169 593T185 581T205 564Q167 548 150 516T133 449Q133 401 153 374T202 334L352
786Q403 786 456 797T557 820L577 785Q535 777 522 766T509 726Q509 716 510 701T517 659T533 588T559 479T600 319T659 99ZM273 981Q277 986 282 988T293 990Q304 990 315 983T340 963T374 937T422 907Q436 899 436 885Q436 877 430 868T410 859Q406 859 400 861Q359
874 330 879T282 888T254 898T245 921Q245 926 246 928Q237 932 231 940T225 958Q225 970 235 977T257 985Q266 985 273 981Z" />
<glyph unicode="&#xc1;" glyph-name="Aacute" horiz-adv-x="754" d="M485 354Q456 460 438 529T409 640T392 702T383 730L262 320Q279 318 294 317T322 316Q354 316 394 323T485 354ZM659 99Q667 70 698 56T774 42V0Q762 0 745 1T707 5T665 8T624 10Q605 10 581
9T533 5T489 2T456 0V42Q471 42 488 43T519 48T543 61T553 85Q553 89 552 97T544 127T528 189T499 299Q439 278 394 271T310 264Q296 264 280 265T247 268L211 138Q206 121 204 107T201 85Q201 70 212 62T238 49T272 43T305 42V0Q293 0 275 1T236 5T192 8T151 10Q113
10 77 5T17 0V42Q62 42 90 56T128 99L185 280Q157 288 132 301T89 333T60 375T49 429Q49 445 52 452T63 465Q47 485 47 512Q47 529 53 545T71 574T99 594T135 602Q145 602 153 600T169 593T185 581T205 564Q167 548 150 516T133 449Q133 401 153 374T202 334L352
786Q403 786 456 797T557 820L577 785Q535 777 522 766T509 726Q509 716 510 701T517 659T533 588T559 479T600 319T659 99ZM529 981Q536 985 545 985Q556 985 566 978T577 958Q577 949 571 941T556 928Q557 926 557 921Q557 904 548 898T521 888T473 879T402 861Q396
859 392 859Q378 859 372 868T366 885Q366 899 380 907Q408 922 427 936T461 963T487 982T509 990Q514 990 519 988T529 981Z" />
<glyph unicode="&#xc2;" glyph-name="Acircumflex" horiz-adv-x="754" d="M485 354Q456 460 438 529T409 640T392 702T383 730L262 320Q279 318 294 317T322 316Q354 316 394 323T485 354ZM659 99Q667 70 698 56T774 42V0Q762 0 745 1T707 5T665 8T624 10Q605
10 581 9T533 5T489 2T456 0V42Q471 42 488 43T519 48T543 61T553 85Q553 89 552 97T544 127T528 189T499 299Q439 278 394 271T310 264Q296 264 280 265T247 268L211 138Q206 121 204 107T201 85Q201 70 212 62T238 49T272 43T305 42V0Q293 0 275 1T236 5T192
8T151 10Q113 10 77 5T17 0V42Q62 42 90 56T128 99L185 280Q157 288 132 301T89 333T60 375T49 429Q49 445 52 452T63 465Q47 485 47 512Q47 529 53 545T71 574T99 594T135 602Q145 602 153 600T169 593T185 581T205 564Q167 548 150 516T133 449Q133 401 153 374T202
334L352 786Q403 786 456 797T557 820L577 785Q535 777 522 766T509 726Q509 716 510 701T517 659T533 588T559 479T600 319T659 99ZM411 972Q415 974 420 974Q436 974 444 966T461 945T485 917T531 887Q534 885 535 880T537 870Q537 856 528 851T509 845Q501 845
493 852Q453 871 424 893T384 922Q373 915 345 893T276 852Q268 845 257 845Q246 845 239 852T232 871Q232 875 232 879T238 887Q269 902 284 917T308 945T324 966T349 974Q354 974 358 972Q360 980 367 985T383 990Q393 990 401 985T411 972Z" />
<glyph unicode="&#xc3;" glyph-name="Atilde" horiz-adv-x="754" d="M485 354Q456 460 438 529T409 640T392 702T383 730L262 320Q279 318 294 317T322 316Q354 316 394 323T485 354ZM659 99Q667 70 698 56T774 42V0Q762 0 745 1T707 5T665 8T624 10Q605 10 581
9T533 5T489 2T456 0V42Q471 42 488 43T519 48T543 61T553 85Q553 89 552 97T544 127T528 189T499 299Q439 278 394 271T310 264Q296 264 280 265T247 268L211 138Q206 121 204 107T201 85Q201 70 212 62T238 49T272 43T305 42V0Q293 0 275 1T236 5T192 8T151 10Q113
10 77 5T17 0V42Q62 42 90 56T128 99L185 280Q157 288 132 301T89 333T60 375T49 429Q49 445 52 452T63 465Q47 485 47 512Q47 529 53 545T71 574T99 594T135 602Q145 602 153 600T169 593T185 581T205 564Q167 548 150 516T133 449Q133 401 153 374T202 334L352
786Q403 786 456 797T557 820L577 785Q535 777 522 766T509 726Q509 716 510 701T517 659T533 588T559 479T600 319T659 99ZM253 885Q214 891 214 927Q214 935 217 940T226 954Q226 971 243 980T289 990Q308 990 329 983T372 968T415 952T455 945Q478 945 495 953T520
983Q535 975 543 961T552 932Q552 922 549 913T538 899Q538 883 515 877T465 871Q442 871 419 878T375 893T334 909T298 916Q278 916 266 909T253 885Z" />
<glyph unicode="&#xc4;" glyph-name="Adieresis" horiz-adv-x="754" d="M485 354Q456 460 438 529T409 640T392 702T383 730L262 320Q279 318 294 317T322 316Q354 316 394 323T485 354ZM659 99Q667 70 698 56T774 42V0Q762 0 745 1T707 5T665 8T624 10Q605 10
581 9T533 5T489 2T456 0V42Q471 42 488 43T519 48T543 61T553 85Q553 89 552 97T544 127T528 189T499 299Q439 278 394 271T310 264Q296 264 280 265T247 268L211 138Q206 121 204 107T201 85Q201 70 212 62T238 49T272 43T305 42V0Q293 0 275 1T236 5T192 8T151
10Q113 10 77 5T17 0V42Q62 42 90 56T128 99L185 280Q157 288 132 301T89 333T60 375T49 429Q49 445 52 452T63 465Q47 485 47 512Q47 529 53 545T71 574T99 594T135 602Q145 602 153 600T169 593T185 581T205 564Q167 548 150 516T133 449Q133 401 153 374T202
334L352 786Q403 786 456 797T557 820L577 785Q535 777 522 766T509 726Q509 716 510 701T517 659T533 588T559 479T600 319T659 99ZM210 925Q210 953 229 971T274 990Q300 990 319 972T338 925Q338 898 319 880T274 861Q248 861 229 879T210 925ZM428 925Q428
953 447 971T492 990Q518 990 537 972T556 925Q556 898 537 880T492 861Q466 861 447 879T428 925Z" />
<glyph unicode="&#xc5;" glyph-name="Aring" horiz-adv-x="754" d="M485 354Q456 460 438 529T409 640T392 702T383 730L262 320Q279 318 294 317T322 316Q354 316 394 323T485 354ZM659 99Q667 70 698 56T774 42V0Q762 0 745 1T707 5T665 8T624 10Q605 10 581
9T533 5T489 2T456 0V42Q471 42 488 43T519 48T543 61T553 85Q553 89 552 97T544 127T528 189T499 299Q439 278 394 271T310 264Q296 264 280 265T247 268L211 138Q206 121 204 107T201 85Q201 70 212 62T238 49T272 43T305 42V0Q293 0 275 1T236 5T192 8T151 10Q113
10 77 5T17 0V42Q62 42 90 56T128 99L185 280Q157 288 132 301T89 333T60 375T49 429Q49 445 52 452T63 465Q47 485 47 512Q47 529 53 545T71 574T99 594T135 602Q145 602 153 600T169 593T185 581T205 564Q167 548 150 516T133 449Q133 401 153 374T202 334L352
786Q403 786 456 797T557 820L577 785Q535 777 522 766T509 726Q509 716 510 701T517 659T533 588T559 479T600 319T659 99ZM317 922Q317 951 337 970T385 990Q412 990 431 971T451 922Q451 893 432 874T385 854Q357 854 337 873T317 922ZM362 922Q362 913 368
907T384 900Q392 900 398 906T405 922Q405 930 399 936T384 943Q375 943 369 937T362 922Z" />
<glyph unicode="&#xc6;" glyph-name="AE" horiz-adv-x="903" d="M530 799Q570 799 615 800T701 804T769 807T805 809Q829 809 829 783Q829 772 826 738T823 654H783Q783 675 781 693T771 726T749 748T711 757H530V441Q558 437 596 434T664 430Q699 430 734 437T794
467Q799 462 803 453T808 433Q808 407 779 390T688 372Q646 372 604 379T530 394V101Q530 61 549 34T597 -11T656 -36T712 -44Q738 -44 755 -37T781 -17T795 10T799 43Q799 69 791 85T764 116V120Q793 120 810 114T836 96T847 71T850 39Q862 39 869 28T876 -4Q876
-22 869 -38T844 -67T800 -87T732 -95Q672 -95 626 -80T539 -48T462 -15T382 0H351V42Q364 42 380 43T409 53T431 78T440 128V300Q401 290 367 287T306 284Q286 284 263 285T217 292L49 -59Q14 -132 -19 -169T-82 -207Q-86 -207 -89 -206T-96 -203Q-97 -215 -104
-224T-123 -240T-149 -250T-177 -254Q-201 -254 -217 -243T-233 -206Q-197 -202 -168 -196T-110 -166T-49 -95T24 38L154 307Q128 316 105 329T64 359T36 399T25 449Q25 465 28 472T39 485Q23 505 23 532Q23 549 29 565T47 594T75 614T111 622Q121 622 129 620T145
613T161 601T181 584Q143 568 126 536T109 469Q109 428 129 403T181 362L400 815Q430 805 464 802T530 799ZM440 757L241 343Q261 339 281 338T318 336Q342 336 373 340T440 355V757Z" />
<glyph unicode="&#xc7;" glyph-name="Ccedilla" horiz-adv-x="728" d="M428 820Q445 820 471 819T522 813T565 797T583 765Q605 765 625 759T660 739T685 702T695 645Q695 581 663 550T580 519Q569 519 555 520T530 524V531Q553 539 567 560T582 624Q582 694 540
732T428 770Q372 770 323 744T237 669T179 549T157 387Q157 300 177 235T232 125T315 59T421 36Q471 36 504 52T556 97T584 164T594 247Q607 247 623 243T654 229T678 203T688 161Q688 147 685 132T672 105T649 86T613 78Q613 55 598 39T559 11T504 -6T441 -13V-59Q456
-53 469 -53Q485 -53 498 -60T520 -78T533 -104T538 -132Q538 -147 532 -159T513 -179Q513 -204 493 -221T443 -239Q432 -239 419 -237T392 -230T367 -217T348 -194L351 -189Q357 -197 373 -200T399 -203Q434 -203 447 -186T461 -146Q461 -126 448 -109T408 -92Q403
-92 399 -92T390 -94L379 -84L393 -13Q321 -10 260 13T153 85T83 208T57 388Q57 499 85 580T164 715T282 794T428 820Z" />
<glyph unicode="&#xc8;" glyph-name="Egrave" horiz-adv-x="604" d="M227 799Q267 799 312 800T398 804T466 807T502 809Q526 809 526 783Q526 772 523 738T520 654H480Q480 675 478 693T468 726T446 748T408 757H227V440Q260 435 293 433T361 430Q396 430 431
437T491 467Q496 462 500 453T505 433Q505 407 476 390T385 372Q344 372 305 378T227 394V111Q227 71 244 44T287 -1T340 -26T389 -34Q418 -34 436 -27T466 -7T481 20T486 53Q486 79 478 95T451 126V130Q469 133 483 133Q505 133 518 126T539 106T549 79T552 49Q564
49 571 38T578 6Q578 -12 570 -28T545 -57T499 -77T429 -85Q369 -85 323 -70T236 -38T159 -5T79 10H48V52Q61 52 77 53T106 63T128 88T137 138V698Q137 722 128 736T106 756T77 765T48 767V809Q60 809 85 808T137 804T190 801T227 799ZM249 981Q253 986 258 988T269
990Q280 990 291 983T316 963T350 937T398 907Q412 899 412 885Q412 877 406 868T386 859Q382 859 376 861Q335 874 306 879T258 888T230 898T221 921Q221 926 222 928Q213 932 207 940T201 958Q201 970 211 977T233 985Q242 985 249 981Z" />
<glyph unicode="&#xc9;" glyph-name="Eacute" horiz-adv-x="604" d="M227 799Q267 799 312 800T398 804T466 807T502 809Q526 809 526 783Q526 772 523 738T520 654H480Q480 675 478 693T468 726T446 748T408 757H227V440Q260 435 293 433T361 430Q396 430 431
437T491 467Q496 462 500 453T505 433Q505 407 476 390T385 372Q344 372 305 378T227 394V111Q227 71 244 44T287 -1T340 -26T389 -34Q418 -34 436 -27T466 -7T481 20T486 53Q486 79 478 95T451 126V130Q469 133 483 133Q505 133 518 126T539 106T549 79T552 49Q564
49 571 38T578 6Q578 -12 570 -28T545 -57T499 -77T429 -85Q369 -85 323 -70T236 -38T159 -5T79 10H48V52Q61 52 77 53T106 63T128 88T137 138V698Q137 722 128 736T106 756T77 765T48 767V809Q60 809 85 808T137 804T190 801T227 799ZM364 981Q371 985 380 985Q391
985 401 978T412 958Q412 949 406 941T391 928Q392 926 392 921Q392 904 383 898T356 888T308 879T237 861Q231 859 227 859Q213 859 207 868T201 885Q201 899 215 907Q243 922 262 936T296 963T322 982T344 990Q349 990 354 988T364 981Z" />
<glyph unicode="&#xca;" glyph-name="Ecircumflex" horiz-adv-x="604" d="M227 799Q267 799 312 800T398 804T466 807T502 809Q526 809 526 783Q526 772 523 738T520 654H480Q480 675 478 693T468 726T446 748T408 757H227V440Q260 435 293 433T361 430Q396 430
431 437T491 467Q496 462 500 453T505 433Q505 407 476 390T385 372Q344 372 305 378T227 394V111Q227 71 244 44T287 -1T340 -26T389 -34Q418 -34 436 -27T466 -7T481 20T486 53Q486 79 478 95T451 126V130Q469 133 483 133Q505 133 518 126T539 106T549 79T552
49Q564 49 571 38T578 6Q578 -12 570 -28T545 -57T499 -77T429 -85Q369 -85 323 -70T236 -38T159 -5T79 10H48V52Q61 52 77 53T106 63T128 88T137 138V698Q137 722 128 736T106 756T77 765T48 767V809Q60 809 85 808T137 804T190 801T227 799ZM333 972Q337 974
342 974Q358 974 366 966T383 945T407 917T453 887Q456 885 457 880T459 870Q459 856 450 851T431 845Q423 845 415 852Q375 871 346 893T306 922Q295 915 267 893T198 852Q190 845 179 845Q168 845 161 852T154 871Q154 875 154 879T160 887Q191 902 206 917T230
945T246 966T271 974Q276 974 280 972Q282 980 289 985T305 990Q315 990 323 985T333 972Z" />
<glyph unicode="&#xcb;" glyph-name="Edieresis" horiz-adv-x="604" d="M227 799Q267 799 312 800T398 804T466 807T502 809Q526 809 526 783Q526 772 523 738T520 654H480Q480 675 478 693T468 726T446 748T408 757H227V440Q260 435 293 433T361 430Q396 430
431 437T491 467Q496 462 500 453T505 433Q505 407 476 390T385 372Q344 372 305 378T227 394V111Q227 71 244 44T287 -1T340 -26T389 -34Q418 -34 436 -27T466 -7T481 20T486 53Q486 79 478 95T451 126V130Q469 133 483 133Q505 133 518 126T539 106T549 79T552
49Q564 49 571 38T578 6Q578 -12 570 -28T545 -57T499 -77T429 -85Q369 -85 323 -70T236 -38T159 -5T79 10H48V52Q61 52 77 53T106 63T128 88T137 138V698Q137 722 128 736T106 756T77 765T48 767V809Q60 809 85 808T137 804T190 801T227 799ZM134 925Q134 953
153 971T198 990Q224 990 243 972T262 925Q262 898 243 880T198 861Q172 861 153 879T134 925ZM352 925Q352 953 371 971T416 990Q442 990 461 972T480 925Q480 898 461 880T416 861Q390 861 371 879T352 925Z" />
<glyph unicode="&#xcc;" glyph-name="Igrave" horiz-adv-x="368" d="M229 111Q229 87 240 73T266 53T299 44T328 42V0Q316 0 297 1T256 5T216 8T184 10Q172 10 153 9T112 5T72 2T40 0V42Q53 42 70 44T103 52T128 73T139 111V714Q139 745 116 761T50 778Q50 795
62 807T107 820Q130 820 150 811T184 789Q197 802 217 811T261 820Q294 820 306 808T318 778Q277 778 253 762T229 714V111ZM126 981Q130 986 135 988T146 990Q157 990 168 983T193 963T227 937T275 907Q289 899 289 885Q289 877 283 868T263 859Q259 859 253 861Q212
874 183 879T135 888T107 898T98 921Q98 926 99 928Q90 932 84 940T78 958Q78 970 88 977T110 985Q119 985 126 981Z" />
<glyph unicode="&#xcd;" glyph-name="Iacute" horiz-adv-x="368" d="M229 111Q229 87 240 73T266 53T299 44T328 42V0Q316 0 297 1T256 5T216 8T184 10Q172 10 153 9T112 5T72 2T40 0V42Q53 42 70 44T103 52T128 73T139 111V714Q139 745 116 761T50 778Q50 795
62 807T107 820Q130 820 150 811T184 789Q197 802 217 811T261 820Q294 820 306 808T318 778Q277 778 253 762T229 714V111ZM241 981Q248 985 257 985Q268 985 278 978T289 958Q289 949 283 941T268 928Q269 926 269 921Q269 904 260 898T233 888T185 879T114 861Q108
859 104 859Q90 859 84 868T78 885Q78 899 92 907Q120 922 139 936T173 963T199 982T221 990Q226 990 231 988T241 981Z" />
<glyph unicode="&#xce;" glyph-name="Icircumflex" horiz-adv-x="368" d="M228 111Q228 87 239 73T265 53T298 44T327 42V0Q315 0 296 1T255 5T215 8T183 10Q171 10 152 9T111 5T71 2T39 0V42Q52 42 69 44T102 52T127 73T138 111V714Q138 745 115 761T49 778Q49
795 61 807T106 820Q129 820 149 811T183 789Q196 802 216 811T260 820Q293 820 305 808T317 778Q276 778 252 762T228 714V111ZM209 972Q213 974 218 974Q234 974 242 966T259 945T283 917T329 887Q332 885 333 880T335 870Q335 856 326 851T307 845Q299 845 291
852Q251 871 222 893T182 922Q171 915 143 893T74 852Q66 845 55 845Q44 845 37 852T30 871Q30 875 30 879T36 887Q67 902 82 917T106 945T122 966T147 974Q152 974 156 972Q158 980 165 985T181 990Q191 990 199 985T209 972Z" />
<glyph unicode="&#xcf;" glyph-name="Idieresis" horiz-adv-x="368" d="M229 111Q229 87 240 73T266 53T299 44T328 42V0Q316 0 297 1T256 5T216 8T184 10Q172 10 153 9T112 5T72 2T40 0V42Q53 42 70 44T103 52T128 73T139 111V714Q139 745 116 761T50 778Q50
795 62 807T107 820Q130 820 150 811T184 789Q197 802 217 811T261 820Q294 820 306 808T318 778Q277 778 253 762T229 714V111ZM11 925Q11 953 30 971T75 990Q101 990 120 972T139 925Q139 898 120 880T75 861Q49 861 30 879T11 925ZM229 925Q229 953 248 971T293
990Q319 990 338 972T357 925Q357 898 338 880T293 861Q267 861 248 879T229 925Z" />
<glyph unicode="&#xd0;" glyph-name="Eth" horiz-adv-x="873" d="M404 820Q516 820 594 783T720 682T790 530T812 341Q812 208 782 111T694 -51T553 -147T363 -179Q306 -179 253 -170T158 -143T92 -99T67 -38Q67 -14 82 -9Q77 -6 71 4T60 28T51 61T47 99Q47 114
50 133T64 171T94 205T146 226L152 221Q141 196 138 168T134 113Q134 57 146 17T179 -50T224 -93T276 -117T328 -128T373 -131Q463 -131 526 -99T630 -7T688 141T707 340Q707 423 691 501T638 639T541 735T392 772Q317 772 269 750T193 690T153 605T142 506Q95
506 75 527T55 580Q55 609 69 628T103 648Q95 656 93 669T91 691Q91 725 119 749T193 789T294 812T404 820ZM299 312Q282 312 254 311T202 305Q197 311 193 323T188 346Q188 365 208 372T278 380H299V507Q299 544 298 568T289 606T269 625T233 631V666Q258 666
276 669T310 678T337 692T364 709H389V371Q413 368 438 368Q465 368 491 369T539 375Q544 369 548 358T553 335Q553 314 528 307T447 300Q432 300 418 301T389 304V111Q389 87 398 73T421 53T450 44T478 42V0Q466 0 448 1T411 5T374 8T344 10Q332 10 314 9T277
5T240 2T210 0V42Q223 42 239 44T268 52T290 73T299 111V312Z" />
<glyph unicode="&#xd1;" glyph-name="Ntilde" horiz-adv-x="823" d="M660 -9L272 544Q257 565 243 584T214 622V111Q214 87 225 73T251 53T284 44T313 42V0Q303 0 286 1T250 5T214 8T187 10Q177 10 160 9T124 5T88 2T61 0V42Q74 42 91 44T124 52T149 73T160 111V684Q125
719 88 739T10 760Q10 783 28 801T84 820Q118 820 142 804T167 757Q185 757 202 754T241 734T292 682T365 585L641 185V714Q641 745 618 761T552 778Q552 795 564 807T605 820Q643 820 668 789Q693 820 731 820Q760 820 772 808T784 778Q743 778 719 762T695 714V0L660
-9ZM259 885Q220 891 220 927Q220 935 223 940T232 954Q232 971 249 980T295 990Q314 990 335 983T378 968T421 952T461 945Q484 945 501 953T526 983Q541 975 549 961T558 932Q558 922 555 913T544 899Q544 883 521 877T471 871Q448 871 425 878T381 893T340 909T304
916Q284 916 272 909T259 885Z" />
<glyph unicode="&#xd2;" glyph-name="Ograve" horiz-adv-x="832" d="M420 -14Q376 -14 331 -9T248 11T188 51T164 117Q130 117 110 143T78 211T63 307T59 414Q59 505 83 580T156 708T276 791T440 820Q462 820 497 817T565 804T623 773T647 718Q684 718 708 690T748
618T769 523T775 426Q775 319 748 237T672 99T559 15T420 -14ZM418 35Q484 35 532 65T610 147T655 267T670 410Q670 485 656 550T610 663T532 740T417 768Q351 768 303 741T224 665T179 552T164 411Q164 336 178 268T224 148T303 66T418 35ZM370 981Q374 986 379
988T390 990Q401 990 412 983T437 963T471 937T519 907Q533 899 533 885Q533 877 527 868T507 859Q503 859 497 861Q456 874 427 879T379 888T351 898T342 921Q342 926 343 928Q334 932 328 940T322 958Q322 970 332 977T354 985Q363 985 370 981Z" />
<glyph unicode="&#xd3;" glyph-name="Oacute" horiz-adv-x="832" d="M420 -14Q376 -14 331 -9T248 11T188 51T164 117Q130 117 110 143T78 211T63 307T59 414Q59 505 83 580T156 708T276 791T440 820Q462 820 497 817T565 804T623 773T647 718Q684 718 708 690T748
618T769 523T775 426Q775 319 748 237T672 99T559 15T420 -14ZM418 35Q484 35 532 65T610 147T655 267T670 410Q670 485 656 550T610 663T532 740T417 768Q351 768 303 741T224 665T179 552T164 411Q164 336 178 268T224 148T303 66T418 35ZM485 981Q492 985 501
985Q512 985 522 978T533 958Q533 949 527 941T512 928Q513 926 513 921Q513 904 504 898T477 888T429 879T358 861Q352 859 348 859Q334 859 328 868T322 885Q322 899 336 907Q364 922 383 936T417 963T443 982T465 990Q470 990 475 988T485 981Z" />
<glyph unicode="&#xd4;" glyph-name="Ocircumflex" horiz-adv-x="832" d="M420 -14Q376 -14 331 -9T248 11T188 51T164 117Q130 117 110 143T78 211T63 307T59 414Q59 505 83 580T156 708T276 791T440 820Q462 820 497 817T565 804T623 773T647 718Q684 718 708
690T748 618T769 523T775 426Q775 319 748 237T672 99T559 15T420 -14ZM418 35Q484 35 532 65T610 147T655 267T670 410Q670 485 656 550T610 663T532 740T417 768Q351 768 303 741T224 665T179 552T164 411Q164 336 178 268T224 148T303 66T418 35ZM454 972Q458
974 463 974Q479 974 487 966T504 945T528 917T574 887Q577 885 578 880T580 870Q580 856 571 851T552 845Q544 845 536 852Q496 871 467 893T427 922Q416 915 388 893T319 852Q311 845 300 845Q289 845 282 852T275 871Q275 875 275 879T281 887Q312 902 327 917T351
945T367 966T392 974Q397 974 401 972Q403 980 410 985T426 990Q436 990 444 985T454 972Z" />
<glyph unicode="&#xd5;" glyph-name="Otilde" horiz-adv-x="832" d="M420 -14Q376 -14 331 -9T248 11T188 51T164 117Q130 117 110 143T78 211T63 307T59 414Q59 505 83 580T156 708T276 791T440 820Q462 820 497 817T565 804T623 773T647 718Q684 718 708 690T748
618T769 523T775 426Q775 319 748 237T672 99T559 15T420 -14ZM418 35Q484 35 532 65T610 147T655 267T670 410Q670 485 656 550T610 663T532 740T417 768Q351 768 303 741T224 665T179 552T164 411Q164 336 178 268T224 148T303 66T418 35ZM298 885Q259 891 259
927Q259 935 262 940T271 954Q271 971 288 980T334 990Q353 990 374 983T417 968T460 952T500 945Q523 945 540 953T565 983Q580 975 588 961T597 932Q597 922 594 913T583 899Q583 883 560 877T510 871Q487 871 464 878T420 893T379 909T343 916Q323 916 311 909T298
885Z" />
<glyph unicode="&#xd6;" glyph-name="Odieresis" horiz-adv-x="832" d="M420 -14Q376 -14 331 -9T248 11T188 51T164 117Q130 117 110 143T78 211T63 307T59 414Q59 505 83 580T156 708T276 791T440 820Q462 820 497 817T565 804T623 773T647 718Q684 718 708
690T748 618T769 523T775 426Q775 319 748 237T672 99T559 15T420 -14ZM418 35Q484 35 532 65T610 147T655 267T670 410Q670 485 656 550T610 663T532 740T417 768Q351 768 303 741T224 665T179 552T164 411Q164 336 178 268T224 148T303 66T418 35ZM255 925Q255
953 274 971T319 990Q345 990 364 972T383 925Q383 898 364 880T319 861Q293 861 274 879T255 925ZM473 925Q473 953 492 971T537 990Q563 990 582 972T601 925Q601 898 582 880T537 861Q511 861 492 879T473 925Z" />
<glyph unicode="&#xd7;" glyph-name="multiply" horiz-adv-x="462" d="M183 141Q170 129 152 108T119 67Q113 68 105 71T90 78T77 89T72 104Q72 116 81 130T106 160T142 195T185 232Q165 254 146 274Q126 293 107 310T70 340Q72 353 81 369T106 386Q118 386 133
377T165 352T200 316T236 275L277 314Q296 333 313 352T343 390Q356 388 372 379T389 354Q389 342 380 327T355 295T320 260T279 224Q290 211 300 200T319 180Q331 167 352 149T393 116Q392 110 389 102T382 87T371 74T356 69Q344 69 330 78T300 103T265 139T228
182Q214 170 203 160T183 141Z" />
<glyph unicode="&#xd8;" glyph-name="Oslash" horiz-adv-x="844" d="M426 -14Q392 -14 357 -11T291 0T233 21T190 55Q147 -2 119 -46L56 3Q77 33 98 63T142 122Q117 133 102 162T79 231T68 318T65 414Q65 505 89 580T162 708T282 791T446 820Q465 820 495 818T555
809T611 787T647 747Q665 770 682 793T718 841L785 788Q770 766 752 742T713 691Q732 671 745 641T766 574T777 499T781 426Q781 319 754 237T678 99T565 15T426 -14ZM424 35Q490 35 538 65T616 147T661 267T676 410Q676 465 669 514T644 606Q597 549 546 488T442
365T340 242T245 125Q276 83 320 59T424 35ZM204 202Q298 322 398 439T600 686Q569 724 526 746T423 768Q357 768 309 741T230 665T185 552T170 411Q170 354 178 301T204 202Z" />
<glyph unicode="&#xd9;" glyph-name="Ugrave" horiz-adv-x="779" d="M568 715Q568 746 545 762T479 779Q479 796 491 808T533 821Q559 821 579 812T613 790Q626 803 646 812T693 821Q723 821 735 809T747 779Q706 779 682 763T658 715V312Q658 217 639 155T584
55T498 2T387 -14Q324 -14 275 1T192 54T139 151T121 300V714Q121 745 98 761T32 778Q32 795 44 807T86 820Q112 820 132 811T166 789Q179 802 199 811T246 820Q276 820 288 808T300 778Q259 778 235 762T211 714V296Q211 223 222 174T255 94T312 51T392 38Q438
38 471 50T525 93T557 172T568 296V715ZM305 981Q309 986 314 988T325 990Q336 990 347 983T372 963T406 937T454 907Q468 899 468 885Q468 877 462 868T442 859Q438 859 432 861Q391 874 362 879T314 888T286 898T277 921Q277 926 278 928Q269 932 263 940T257
958Q257 970 267 977T289 985Q298 985 305 981Z" />
<glyph unicode="&#xda;" glyph-name="Uacute" horiz-adv-x="779" d="M568 715Q568 746 545 762T479 779Q479 796 491 808T533 821Q559 821 579 812T613 790Q626 803 646 812T693 821Q723 821 735 809T747 779Q706 779 682 763T658 715V312Q658 217 639 155T584
55T498 2T387 -14Q324 -14 275 1T192 54T139 151T121 300V714Q121 745 98 761T32 778Q32 795 44 807T86 820Q112 820 132 811T166 789Q179 802 199 811T246 820Q276 820 288 808T300 778Q259 778 235 762T211 714V296Q211 223 222 174T255 94T312 51T392 38Q438
38 471 50T525 93T557 172T568 296V715ZM482 981Q489 985 498 985Q509 985 519 978T530 958Q530 949 524 941T509 928Q510 926 510 921Q510 904 501 898T474 888T426 879T355 861Q349 859 345 859Q331 859 325 868T319 885Q319 899 333 907Q361 922 380 936T414
963T440 982T462 990Q467 990 472 988T482 981Z" />
<glyph unicode="&#xdb;" glyph-name="Ucircumflex" horiz-adv-x="779" d="M568 715Q568 746 545 762T479 779Q479 796 491 808T533 821Q559 821 579 812T613 790Q626 803 646 812T693 821Q723 821 735 809T747 779Q706 779 682 763T658 715V312Q658 217 639 155T584
55T498 2T387 -14Q324 -14 275 1T192 54T139 151T121 300V714Q121 745 98 761T32 778Q32 795 44 807T86 820Q112 820 132 811T166 789Q179 802 199 811T246 820Q276 820 288 808T300 778Q259 778 235 762T211 714V296Q211 223 222 174T255 94T312 51T392 38Q438
38 471 50T525 93T557 172T568 296V715ZM419 972Q423 974 428 974Q444 974 452 966T469 945T493 917T539 887Q542 885 543 880T545 870Q545 856 536 851T517 845Q509 845 501 852Q461 871 432 893T392 922Q381 915 353 893T284 852Q276 845 265 845Q254 845 247
852T240 871Q240 875 240 879T246 887Q277 902 292 917T316 945T332 966T357 974Q362 974 366 972Q368 980 375 985T391 990Q401 990 409 985T419 972Z" />
<glyph unicode="&#xdc;" glyph-name="Udieresis" horiz-adv-x="779" d="M568 715Q568 746 545 762T479 779Q479 796 491 808T533 821Q559 821 579 812T613 790Q626 803 646 812T693 821Q723 821 735 809T747 779Q706 779 682 763T658 715V312Q658 217 639 155T584
55T498 2T387 -14Q324 -14 275 1T192 54T139 151T121 300V714Q121 745 98 761T32 778Q32 795 44 807T86 820Q112 820 132 811T166 789Q179 802 199 811T246 820Q276 820 288 808T300 778Q259 778 235 762T211 714V296Q211 223 222 174T255 94T312 51T392 38Q438
38 471 50T525 93T557 172T568 296V715ZM220 925Q220 953 239 971T284 990Q310 990 329 972T348 925Q348 898 329 880T284 861Q258 861 239 879T220 925ZM438 925Q438 953 457 971T502 990Q528 990 547 972T566 925Q566 898 547 880T502 861Q476 861 457 879T438
925Z" />
<glyph unicode="&#xdd;" glyph-name="Yacute" horiz-adv-x="695" d="M209 730Q209 710 227 680L372 442L474 660Q485 684 492 703T500 738Q500 754 484 768T443 783Q432 783 417 778Q417 793 440 806T491 819Q508 819 524 813T551 789Q562 803 582 811T625 819Q648
819 665 809T685 776Q680 777 676 777T668 778Q647 778 629 767T595 740T568 702T547 662L404 362V111Q404 87 413 73T436 53T465 44T493 42V0Q481 0 463 1T426 5T389 8T359 10Q347 10 329 9T292 5T255 2T225 0V42Q238 42 254 44T283 52T305 73T314 111V347L88
714Q71 740 42 759T-29 778Q-29 795 -9 807T42 820Q68 820 92 813T130 789Q143 802 167 811T218 820Q248 820 268 808T289 778Q275 778 261 776T236 768T217 753T209 730ZM456 981Q463 985 472 985Q483 985 493 978T504 958Q504 949 498 941T483 928Q484 926 484
921Q484 904 475 898T448 888T400 879T329 861Q323 859 319 859Q305 859 299 868T293 885Q293 899 307 907Q335 922 354 936T388 963T414 982T436 990Q441 990 446 988T456 981Z" />
<glyph unicode="&#xde;" glyph-name="Thorn" horiz-adv-x="634" d="M214 -151Q214 -171 220 -184T236 -205T258 -216T283 -220V-250Q271 -250 257 -249T226 -245T196 -242T169 -240Q157 -240 143 -241T112 -245T82 -248T55 -250V-220Q82 -220 101 -205T121 -151V607Q121
644 120 668T111 706T91 725T55 731V766Q80 766 98 769T132 778T159 792T186 809H214V576H234Q334 576 403 552T515 490T577 404T597 309Q597 253 578 201T515 108T403 43T234 18H214V-151ZM238 65Q305 65 352 82T430 132T474 208T488 307Q488 347 477 386T438
457T361 509T238 529Q231 529 226 529T214 528V65H238Z" />
<glyph unicode="&#xdf;" glyph-name="germandbls" horiz-adv-x="672" d="M499 -56Q497 -73 480 -84T439 -95Q415 -95 391 -81T353 -34L357 -28Q378 -31 396 -31Q434 -31 460 -20T503 10T527 55T535 110Q535 162 521 195T485 251T438 288T392 316T356 349T341 396Q341
423 356 446T390 497T424 560T440 646Q440 673 431 695T406 734T369 760T324 770Q283 770 258 751T217 701T197 630T191 547V111Q191 91 200 78T223 57T252 46T280 42V0Q268 0 250 1T213 5T176 8T146 10Q134 10 116 9T79 5T42 2T12 0V42Q25 42 41 45T70 57T92 78T101
111V507Q101 566 105 622T133 723T205 793T344 820Q362 820 394 811T458 782T512 728T535 646Q535 592 517 553T476 484T435 431T416 386Q416 370 433 357T475 330T530 299T585 257T627 198T644 115Q644 79 636 47T614 -11T580 -51T537 -66Q519 -66 499 -56Z" />
<glyph unicode="&#xe0;" glyph-name="agrave" horiz-adv-x="505" d="M424 99Q424 79 430 66T446 45T468 34T493 30V0Q470 0 454 4T414 8Q391 8 374 7T334 0V53Q311 27 279 7T201 -14Q164 -14 134 -4T82 25T48 70T36 130Q36 164 48 191T84 238T138 267T207 277Q250
277 280 266T334 239V276Q334 302 331 328T317 375T288 409T239 422Q226 422 211 419T182 409T160 389T151 357Q151 347 154 334Q139 326 121 326Q93 326 80 341T67 377Q67 397 80 412T119 428Q119 439 129 447T155 459T192 466T233 468Q278 468 313 458T373 422T411
354T424 246V99ZM229 32Q264 32 290 52T334 102V202Q311 218 283 228T227 238Q187 238 159 211T130 136Q130 90 157 61T229 32ZM209 713Q212 715 218 715Q233 715 242 706T260 679T283 638T319 588Q325 580 325 572Q325 559 316 552Q308 546 300 546Q289 546 281
553Q256 575 237 588T203 610T180 625T166 638Q159 648 159 659Q159 668 164 674Q154 684 154 700Q154 712 162 718T181 725Q198 725 209 713Z" />
<glyph unicode="&#xe1;" glyph-name="aacute" horiz-adv-x="505" d="M424 99Q424 79 430 66T446 45T468 34T493 30V0Q470 0 454 4T414 8Q391 8 374 7T334 0V53Q311 27 279 7T201 -14Q164 -14 134 -4T82 25T48 70T36 130Q36 164 48 191T84 238T138 267T207 277Q250
277 280 266T334 239V276Q334 302 331 328T317 375T288 409T239 422Q226 422 211 419T182 409T160 389T151 357Q151 347 154 334Q139 326 121 326Q93 326 80 341T67 377Q67 397 80 412T119 428Q119 439 129 447T155 459T192 466T233 468Q278 468 313 458T373 422T411
354T424 246V99ZM229 32Q264 32 290 52T334 102V202Q311 218 283 228T227 238Q187 238 159 211T130 136Q130 90 157 61T229 32ZM270 713Q275 719 282 722T298 725Q308 725 316 719T325 700Q325 684 315 674Q320 668 320 659Q320 648 313 638Q308 631 299 625T276
610T243 588T198 553Q190 546 179 546Q171 546 163 552Q154 559 154 572Q154 580 160 588Q183 615 196 638T218 678T237 705T261 715Q267 715 270 713Z" />
<glyph unicode="&#xe2;" glyph-name="acircumflex" horiz-adv-x="505" d="M424 99Q424 79 430 66T446 45T468 34T493 30V0Q470 0 454 4T414 8Q391 8 374 7T334 0V53Q311 27 279 7T201 -14Q164 -14 134 -4T82 25T48 70T36 130Q36 164 48 191T84 238T138 267T207
277Q250 277 280 266T334 239V276Q334 302 331 328T317 375T288 409T239 422Q226 422 211 419T182 409T160 389T151 357Q151 347 154 334Q139 326 121 326Q93 326 80 341T67 377Q67 397 80 412T119 428Q119 439 129 447T155 459T192 466T233 468Q278 468 313 458T373
422T411 354T424 246V99ZM229 32Q264 32 290 52T334 102V202Q311 218 283 228T227 238Q187 238 159 211T130 136Q130 90 157 61T229 32ZM274 713Q278 715 283 715Q299 715 307 703T324 673T348 632T394 588Q400 583 400 571Q400 557 391 552T372 546Q364 546 356
553Q336 568 319 585T287 618T263 646T247 663Q241 658 231 646T207 619T176 586T139 553Q131 546 120 546Q109 546 102 553T95 572Q95 576 95 580T101 588Q132 609 147 631T171 672T187 703T212 715Q217 715 221 713Q223 721 230 726T246 731Q256 731 264 726T274
713Z" />
<glyph unicode="&#xe3;" glyph-name="atilde" horiz-adv-x="505" d="M424 99Q424 79 430 66T446 45T468 34T493 30V0Q470 0 454 4T414 8Q391 8 374 7T334 0V53Q311 27 279 7T201 -14Q164 -14 134 -4T82 25T48 70T36 130Q36 164 48 191T84 238T138 267T207 277Q250
277 280 266T334 239V276Q334 302 331 328T317 375T288 409T239 422Q226 422 211 419T182 409T160 389T151 357Q151 347 154 334Q139 326 121 326Q93 326 80 341T67 377Q67 397 80 412T119 428Q119 439 129 447T155 459T192 466T233 468Q278 468 313 458T373 422T411
354T424 246V99ZM229 32Q264 32 290 52T334 102V202Q311 218 283 228T227 238Q187 238 159 211T130 136Q130 90 157 61T229 32ZM118 557Q79 563 79 599Q79 606 82 612T91 626Q91 658 108 675T154 692Q173 692 194 685T237 670T280 654T320 647Q343 647 360 661T385
715Q400 707 408 693T417 664Q417 654 414 645T403 631Q403 598 380 586T330 573Q307 573 284 580T240 595T199 611T163 618Q143 618 131 605T118 557Z" />
<glyph unicode="&#xe4;" glyph-name="adieresis" horiz-adv-x="505" d="M424 99Q424 79 430 66T446 45T468 34T493 30V0Q470 0 454 4T414 8Q391 8 374 7T334 0V53Q311 27 279 7T201 -14Q164 -14 134 -4T82 25T48 70T36 130Q36 164 48 191T84 238T138 267T207 277Q250
277 280 266T334 239V276Q334 302 331 328T317 375T288 409T239 422Q226 422 211 419T182 409T160 389T151 357Q151 347 154 334Q139 326 121 326Q93 326 80 341T67 377Q67 397 80 412T119 428Q119 439 129 447T155 459T192 466T233 468Q278 468 313 458T373 422T411
354T424 246V99ZM229 32Q264 32 290 52T334 102V202Q311 218 283 228T227 238Q187 238 159 211T130 136Q130 90 157 61T229 32ZM71 609Q71 637 90 655T135 674Q161 674 180 656T199 609Q199 582 180 564T135 545Q109 545 90 563T71 609ZM289 609Q289 637 308 655T353
674Q379 674 398 656T417 609Q417 582 398 564T353 545Q327 545 308 563T289 609Z" />
<glyph unicode="&#xe5;" glyph-name="aring" horiz-adv-x="505" d="M424 99Q424 79 430 66T446 45T468 34T493 30V0Q470 0 454 4T414 8Q391 8 374 7T334 0V53Q311 27 279 7T201 -14Q164 -14 134 -4T82 25T48 70T36 130Q36 164 48 191T84 238T138 267T207 277Q250
277 280 266T334 239V276Q334 302 331 328T317 375T288 409T239 422Q226 422 211 419T182 409T160 389T151 357Q151 347 154 334Q139 326 121 326Q93 326 80 341T67 377Q67 397 80 412T119 428Q119 439 129 447T155 459T192 466T233 468Q278 468 313 458T373 422T411
354T424 246V99ZM229 32Q264 32 290 52T334 102V202Q311 218 283 228T227 238Q187 238 159 211T130 136Q130 90 157 61T229 32ZM155 636Q155 655 162 671T181 700T210 719T245 726Q263 726 279 719T307 700T326 672T333 636Q333 617 326 601T307 572T279 553T245
546Q227 546 211 553T182 572T162 600T155 636ZM204 636Q204 620 216 608T244 596Q259 596 270 608T282 636Q282 652 271 663T244 674Q228 674 216 663T204 636Z" />
<glyph unicode="&#xe6;" glyph-name="ae" horiz-adv-x="760" d="M549 31Q562 31 576 34T604 47T628 74T649 121H653Q673 121 687 110T702 76Q702 55 689 38T653 10T600 -8T537 -14Q467 -14 425 11T361 80Q340 37 301 12T201 -14Q164 -14 134 -4T82 25T48 70T36
130Q36 164 48 191T84 238T138 267T207 277Q251 277 281 266T335 239V276Q335 302 332 328T318 374T288 408T239 421Q226 421 211 418T182 408T160 388T151 357Q151 347 154 334Q139 326 121 326Q93 326 80 341T67 377Q67 397 80 412T119 428Q119 439 129 447T155
459T192 466T233 468Q287 468 326 454T390 402Q445 468 553 468Q566 468 580 467T606 463T626 453T634 436Q649 436 664 430T693 410T715 377T724 330Q724 290 706 265T659 224T599 203T538 197Q502 197 476 204T432 221Q432 181 438 146T457 86T493 46T549 31ZM227
230Q187 230 159 207T130 136Q130 90 157 61T229 32Q269 32 300 54T348 113Q337 149 336 192Q313 209 285 219T227 230ZM533 241Q588 241 609 260T631 324Q631 377 606 399T544 421Q492 421 465 381T433 268Q448 254 474 248T533 241Z" />
<glyph unicode="&#xe7;" glyph-name="ccedilla" horiz-adv-x="464" d="M274 468Q284 468 297 468T323 464T345 455T354 436Q389 436 408 421T428 370Q428 350 421 336T403 312T378 299T350 294Q344 294 336 294T321 297V301Q335 306 343 318T351 353Q351 383 333
402T272 421Q204 421 172 369T139 226Q139 131 173 82T274 32Q322 32 347 57T381 131H385Q398 126 411 116T424 82Q424 44 386 18T284 -13V-65Q299 -59 312 -59Q328 -59 341 -66T363 -84T376 -110T381 -138Q381 -153 375 -165T356 -185Q356 -210 336 -227T286 -245Q275
-245 262 -243T235 -236T210 -223T191 -200L194 -195Q200 -203 216 -206T242 -209Q277 -209 290 -192T304 -152Q304 -132 291 -115T251 -98Q246 -98 242 -98T233 -100L222 -90L238 -12Q196 -8 160 8T98 53T57 125T42 223Q42 284 60 330T109 407T182 453T274 468Z"
/>
<glyph unicode="&#xe8;" glyph-name="egrave" horiz-adv-x="476" d="M272 31Q287 31 302 34T330 47T355 74T376 121Q399 121 414 110T429 76Q429 55 416 38T380 10T328 -8T266 -14Q211 -14 169 3T99 52T57 129T42 228Q42 340 101 404T269 468Q282 468 295 467T319
463T337 453T344 436Q359 436 374 430T403 412T425 382T434 337Q434 300 416 276T371 238T311 218T249 212Q216 212 188 217T139 229V225Q139 183 146 147T168 86T209 46T272 31ZM261 421Q207 421 178 382T141 274Q158 263 187 260T244 256Q298 256 319 273T341
332Q341 382 318 401T261 421ZM187 713Q190 715 196 715Q211 715 220 706T238 679T261 638T297 588Q303 580 303 572Q303 559 294 552Q286 546 278 546Q267 546 259 553Q234 575 215 588T181 610T158 625T144 638Q137 648 137 659Q137 668 142 674Q132 684 132
700Q132 712 140 718T159 725Q176 725 187 713Z" />
<glyph unicode="&#xe9;" glyph-name="eacute" horiz-adv-x="476" d="M272 31Q287 31 302 34T330 47T355 74T376 121Q399 121 414 110T429 76Q429 55 416 38T380 10T328 -8T266 -14Q211 -14 169 3T99 52T57 129T42 228Q42 340 101 404T269 468Q282 468 295 467T319
463T337 453T344 436Q359 436 374 430T403 412T425 382T434 337Q434 300 416 276T371 238T311 218T249 212Q216 212 188 217T139 229V225Q139 183 146 147T168 86T209 46T272 31ZM261 421Q207 421 178 382T141 274Q158 263 187 260T244 256Q298 256 319 273T341
332Q341 382 318 401T261 421ZM318 713Q323 719 330 722T346 725Q356 725 364 719T373 700Q373 684 363 674Q368 668 368 659Q368 648 361 638Q356 631 347 625T324 610T291 588T246 553Q238 546 227 546Q219 546 211 552Q202 559 202 572Q202 580 208 588Q231
615 244 638T266 678T285 705T309 715Q315 715 318 713Z" />
<glyph unicode="&#xea;" glyph-name="ecircumflex" horiz-adv-x="476" d="M272 31Q287 31 302 34T330 47T355 74T376 121Q399 121 414 110T429 76Q429 55 416 38T380 10T328 -8T266 -14Q211 -14 169 3T99 52T57 129T42 228Q42 340 101 404T269 468Q282 468 295
467T319 463T337 453T344 436Q359 436 374 430T403 412T425 382T434 337Q434 300 416 276T371 238T311 218T249 212Q216 212 188 217T139 229V225Q139 183 146 147T168 86T209 46T272 31ZM261 421Q207 421 178 382T141 274Q158 263 187 260T244 256Q298 256 319
273T341 332Q341 382 318 401T261 421ZM292 713Q296 715 301 715Q317 715 325 703T342 673T366 632T412 588Q418 583 418 571Q418 557 409 552T390 546Q382 546 374 553Q354 568 337 585T305 618T281 646T265 663Q259 658 249 646T225 619T194 586T157 553Q149
546 138 546Q127 546 120 553T113 572Q113 576 113 580T119 588Q150 609 165 631T189 672T205 703T230 715Q235 715 239 713Q241 721 248 726T264 731Q274 731 282 726T292 713Z" />
<glyph unicode="&#xeb;" glyph-name="edieresis" horiz-adv-x="476" d="M272 31Q287 31 302 34T330 47T355 74T376 121Q399 121 414 110T429 76Q429 55 416 38T380 10T328 -8T266 -14Q211 -14 169 3T99 52T57 129T42 228Q42 340 101 404T269 468Q282 468 295 467T319
463T337 453T344 436Q359 436 374 430T403 412T425 382T434 337Q434 300 416 276T371 238T311 218T249 212Q216 212 188 217T139 229V225Q139 183 146 147T168 86T209 46T272 31ZM261 421Q207 421 178 382T141 274Q158 263 187 260T244 256Q298 256 319 273T341
332Q341 382 318 401T261 421ZM87 609Q87 637 106 655T151 674Q177 674 196 656T215 609Q215 582 196 564T151 545Q125 545 106 563T87 609ZM305 609Q305 637 324 655T369 674Q395 674 414 656T433 609Q433 582 414 564T369 545Q343 545 324 563T305 609Z" />
<glyph unicode="&#xec;" glyph-name="igrave" horiz-adv-x="283" d="M191 99Q191 79 197 66T213 45T235 34T260 30V0Q248 0 234 1T203 5T173 8T146 10Q134 10 120 9T89 5T59 2T32 0V30Q59 30 80 45T101 99V271Q101 308 100 332T91 370T71 389T35 395V425Q60 425
77 428T109 437T135 451T161 468H191V99ZM99 713Q102 715 108 715Q123 715 132 706T150 679T173 638T209 588Q215 580 215 572Q215 559 206 552Q198 546 190 546Q179 546 171 553Q146 575 127 588T93 610T70 625T56 638Q49 648 49 659Q49 668 54 674Q44 684 44
700Q44 712 52 718T71 725Q88 725 99 713Z" />
<glyph unicode="&#xed;" glyph-name="iacute" horiz-adv-x="283" d="M191 99Q191 79 197 66T213 45T235 34T260 30V0Q248 0 234 1T203 5T173 8T146 10Q134 10 120 9T89 5T59 2T32 0V30Q59 30 80 45T101 99V271Q101 308 100 332T91 370T71 389T35 395V425Q60 425
77 428T109 437T135 451T161 468H191V99ZM200 713Q205 719 212 722T228 725Q238 725 246 719T255 700Q255 684 245 674Q250 668 250 659Q250 648 243 638Q238 631 229 625T206 610T173 588T128 553Q120 546 109 546Q101 546 93 552Q84 559 84 572Q84 580 90 588Q113
615 126 638T148 678T167 705T191 715Q197 715 200 713Z" />
<glyph unicode="&#xee;" glyph-name="icircumflex" horiz-adv-x="283" d="M190 99Q190 79 196 66T212 45T234 34T259 30V0Q247 0 233 1T202 5T172 8T145 10Q133 10 119 9T88 5T58 2T31 0V30Q58 30 79 45T100 99V271Q100 308 99 332T90 370T70 389T34 395V425Q59
425 76 428T108 437T134 451T160 468H190V99ZM170 713Q174 715 179 715Q195 715 203 703T220 673T244 632T290 588Q296 583 296 571Q296 557 287 552T268 546Q260 546 252 553Q232 568 215 585T183 618T159 646T143 663Q137 658 127 646T103 619T72 586T35 553Q27
546 16 546Q5 546 -2 553T-9 572Q-9 576 -9 580T-3 588Q28 609 43 631T67 672T83 703T108 715Q113 715 117 713Q119 721 126 726T142 731Q152 731 160 726T170 713Z" />
<glyph unicode="&#xef;" glyph-name="idieresis" horiz-adv-x="283" d="M191 99Q191 79 197 66T213 45T235 34T260 30V0Q248 0 234 1T203 5T173 8T146 10Q134 10 120 9T89 5T59 2T32 0V30Q59 30 80 45T101 99V271Q101 308 100 332T91 370T71 389T35 395V425Q60
425 77 428T109 437T135 451T161 468H191V99ZM-29 609Q-29 637 -10 655T35 674Q61 674 80 656T99 609Q99 582 80 564T35 545Q9 545 -10 563T-29 609ZM189 609Q189 637 208 655T253 674Q279 674 298 656T317 609Q317 582 298 564T253 545Q227 545 208 563T189 609Z"
/>
<glyph unicode="&#xf0;" glyph-name="eth" horiz-adv-x="628" d="M201 651L271 727Q248 743 228 753T189 765L191 820Q255 802 309 769L357 820H435L356 735Q407 694 446 641T512 530T553 411T567 293Q567 215 548 157T493 61T410 5T303 -14Q247 -14 199 2T115
49T60 124T40 225Q40 286 60 334T115 415T195 465T290 483Q342 483 390 465T471 407Q468 444 454 483T419 559T370 629T315 690L279 651H201ZM462 231Q462 272 452 308T423 371T373 413T302 429Q261 429 232 413T183 369T155 305T145 228Q145 188 155 154T186 93T235
52T302 37Q339 37 369 52T419 93T451 155T462 231Z" />
<glyph unicode="&#xf1;" glyph-name="ntilde" horiz-adv-x="600" d="M426 187Q426 254 420 299T400 371T367 409T321 421Q295 421 272 411T230 380T202 324T191 241V99Q191 79 197 66T213 45T235 34T260 30V0Q248 0 234 1T203 5T173 8T146 10Q134 10 120 9T89
5T59 2T32 0V30Q59 30 80 45T101 99V266Q101 303 100 327T91 365T71 384T35 390V415Q60 415 78 418T112 427T139 441T166 458H191V388Q210 423 243 445T323 468Q422 468 469 408T516 209V104Q516 84 522 71T538 50T560 39T585 35V0Q572 0 562 1T542 4T518 7T485
9Q472 9 456 8T416 0L407 17Q414 24 418 42T423 85T425 136T426 187ZM184 557Q145 563 145 599Q145 606 148 612T157 626Q157 658 174 675T220 692Q239 692 260 685T303 670T346 654T386 647Q409 647 426 661T451 715Q466 707 474 693T483 664Q483 654 480 645T469
631Q469 598 446 586T396 573Q373 573 350 580T306 595T265 611T229 618Q209 618 197 605T184 557Z" />
<glyph unicode="&#xf2;" glyph-name="ograve" horiz-adv-x="552" d="M276 -14Q226 -14 184 3T109 53T59 130T41 231Q41 288 59 332T109 406T183 452T276 468Q325 468 368 453T443 407T493 332T511 231Q511 174 493 129T443 52T368 3T276 -14ZM277 32Q314 32 340
48T383 91T408 155T416 231Q416 270 408 305T383 365T340 406T276 421Q239 421 213 407T169 367T144 306T136 231Q136 191 144 155T169 92T213 48T277 32ZM249 713Q252 715 258 715Q273 715 282 706T300 679T323 638T359 588Q365 580 365 572Q365 559 356 552Q348
546 340 546Q329 546 321 553Q296 575 277 588T243 610T220 625T206 638Q199 648 199 659Q199 668 204 674Q194 684 194 700Q194 712 202 718T221 725Q238 725 249 713Z" />
<glyph unicode="&#xf3;" glyph-name="oacute" horiz-adv-x="552" d="M276 -14Q226 -14 184 3T109 53T59 130T41 231Q41 288 59 332T109 406T183 452T276 468Q325 468 368 453T443 407T493 332T511 231Q511 174 493 129T443 52T368 3T276 -14ZM277 32Q314 32 340
48T383 91T408 155T416 231Q416 270 408 305T383 365T340 406T276 421Q239 421 213 407T169 367T144 306T136 231Q136 191 144 155T169 92T213 48T277 32ZM310 713Q315 719 322 722T338 725Q348 725 356 719T365 700Q365 684 355 674Q360 668 360 659Q360 648 353
638Q348 631 339 625T316 610T283 588T238 553Q230 546 219 546Q211 546 203 552Q194 559 194 572Q194 580 200 588Q223 615 236 638T258 678T277 705T301 715Q307 715 310 713Z" />
<glyph unicode="&#xf4;" glyph-name="ocircumflex" horiz-adv-x="552" d="M276 -14Q226 -14 184 3T109 53T59 130T41 231Q41 288 59 332T109 406T183 452T276 468Q325 468 368 453T443 407T493 332T511 231Q511 174 493 129T443 52T368 3T276 -14ZM277 32Q314
32 340 48T383 91T408 155T416 231Q416 270 408 305T383 365T340 406T276 421Q239 421 213 407T169 367T144 306T136 231Q136 191 144 155T169 92T213 48T277 32ZM301 713Q305 715 310 715Q326 715 334 703T351 673T375 632T421 588Q427 583 427 571Q427 557 418
552T399 546Q391 546 383 553Q363 568 346 585T314 618T290 646T274 663Q268 658 258 646T234 619T203 586T166 553Q158 546 147 546Q136 546 129 553T122 572Q122 576 122 580T128 588Q159 609 174 631T198 672T214 703T239 715Q244 715 248 713Q250 721 257 726T273
731Q283 731 291 726T301 713Z" />
<glyph unicode="&#xf5;" glyph-name="otilde" horiz-adv-x="552" d="M276 -14Q226 -14 184 3T109 53T59 130T41 231Q41 288 59 332T109 406T183 452T276 468Q325 468 368 453T443 407T493 332T511 231Q511 174 493 129T443 52T368 3T276 -14ZM277 32Q314 32 340
48T383 91T408 155T416 231Q416 270 408 305T383 365T340 406T276 421Q239 421 213 407T169 367T144 306T136 231Q136 191 144 155T169 92T213 48T277 32ZM144 557Q105 563 105 599Q105 606 108 612T117 626Q117 658 134 675T180 692Q199 692 220 685T263 670T306
654T346 647Q369 647 386 661T411 715Q426 707 434 693T443 664Q443 654 440 645T429 631Q429 598 406 586T356 573Q333 573 310 580T266 595T225 611T189 618Q169 618 157 605T144 557Z" />
<glyph unicode="&#xf6;" glyph-name="odieresis" horiz-adv-x="552" d="M276 -14Q226 -14 184 3T109 53T59 130T41 231Q41 288 59 332T109 406T183 452T276 468Q325 468 368 453T443 407T493 332T511 231Q511 174 493 129T443 52T368 3T276 -14ZM277 32Q314 32
340 48T383 91T408 155T416 231Q416 270 408 305T383 365T340 406T276 421Q239 421 213 407T169 367T144 306T136 231Q136 191 144 155T169 92T213 48T277 32ZM101 609Q101 637 120 655T165 674Q191 674 210 656T229 609Q229 582 210 564T165 545Q139 545 120 563T101
609ZM319 609Q319 637 338 655T383 674Q409 674 428 656T447 609Q447 582 428 564T383 545Q357 545 338 563T319 609Z" />
<glyph unicode="&#xf7;" glyph-name="divide" horiz-adv-x="503" d="M175 42Q175 74 197 96T252 119Q283 119 305 97T328 42Q328 10 306 -12T252 -35Q220 -35 198 -13T175 42ZM175 417Q175 449 197 471T252 494Q283 494 305 472T328 417Q328 385 306 363T252 340Q220
340 198 362T175 417ZM155 202Q138 202 110 201T58 195Q53 201 49 213T44 236Q44 255 64 262T134 270Q162 270 186 268T234 264T284 260T344 258Q371 258 397 259T445 265Q450 259 454 248T459 225Q459 204 434 197T353 190Q317 190 293 192T249 196T207 200T155
202Z" />
<glyph unicode="&#xf8;" glyph-name="oslash" horiz-adv-x="565" d="M26 -1L98 73Q75 104 62 143T49 231Q49 288 67 332T117 406T191 452T284 468Q374 468 437 419L475 458H541L469 386Q492 357 505 318T519 231Q519 174 501 129T451 52T376 3T284 -14Q239 -14
199 0T128 42L88 1L26 -1ZM285 32Q322 32 348 48T391 91T416 155T424 231Q424 282 410 326L177 91Q194 64 220 48T285 32ZM144 231Q144 205 147 181T158 134L388 369Q371 393 345 407T284 421Q247 421 221 407T177 367T152 306T144 231Z" />
<glyph unicode="&#xf9;" glyph-name="ugrave" horiz-adv-x="588" d="M405 261Q405 298 404 322T395 360T375 379T339 385V415Q364 415 381 418T413 427T439 441T465 458H495V103Q495 83 501 70T517 49T539 38T564 34V-1Q541 2 525 4T483 7Q449 7 415 0L405 10V66Q394
49 383 35T355 10T318 -7T268 -14Q168 -14 125 47T80 226Q79 280 78 311T70 359T51 380T14 385V415Q39 415 56 418T88 427T114 441T140 458H170V247Q170 186 178 145T200 79T235 44T279 33Q307 33 330 47T370 88T396 149T405 226V261ZM261 713Q264 715 270 715Q285
715 294 706T312 679T335 638T371 588Q377 580 377 572Q377 559 368 552Q360 546 352 546Q341 546 333 553Q308 575 289 588T255 610T232 625T218 638Q211 648 211 659Q211 668 216 674Q206 684 206 700Q206 712 214 718T233 725Q250 725 261 713Z" />
<glyph unicode="&#xfa;" glyph-name="uacute" horiz-adv-x="588" d="M405 261Q405 298 404 322T395 360T375 379T339 385V415Q364 415 381 418T413 427T439 441T465 458H495V103Q495 83 501 70T517 49T539 38T564 34V-1Q541 2 525 4T483 7Q449 7 415 0L405 10V66Q394
49 383 35T355 10T318 -7T268 -14Q168 -14 125 47T80 226Q79 280 78 311T70 359T51 380T14 385V415Q39 415 56 418T88 427T114 441T140 458H170V247Q170 186 178 145T200 79T235 44T279 33Q307 33 330 47T370 88T396 149T405 226V261ZM322 713Q327 719 334 722T350
725Q360 725 368 719T377 700Q377 684 367 674Q372 668 372 659Q372 648 365 638Q360 631 351 625T328 610T295 588T250 553Q242 546 231 546Q223 546 215 552Q206 559 206 572Q206 580 212 588Q235 615 248 638T270 678T289 705T313 715Q319 715 322 713Z" />
<glyph unicode="&#xfb;" glyph-name="ucircumflex" horiz-adv-x="588" d="M405 261Q405 298 404 322T395 360T375 379T339 385V415Q364 415 381 418T413 427T439 441T465 458H495V103Q495 83 501 70T517 49T539 38T564 34V-1Q541 2 525 4T483 7Q449 7 415 0L405
10V66Q394 49 383 35T355 10T318 -7T268 -14Q168 -14 125 47T80 226Q79 280 78 311T70 359T51 380T14 385V415Q39 415 56 418T88 427T114 441T140 458H170V247Q170 186 178 145T200 79T235 44T279 33Q307 33 330 47T370 88T396 149T405 226V261ZM313 713Q317 715
322 715Q338 715 346 703T363 673T387 632T433 588Q439 583 439 571Q439 557 430 552T411 546Q403 546 395 553Q375 568 358 585T326 618T302 646T286 663Q280 658 270 646T246 619T215 586T178 553Q170 546 159 546Q148 546 141 553T134 572Q134 576 134 580T140
588Q171 609 186 631T210 672T226 703T251 715Q256 715 260 713Q262 721 269 726T285 731Q295 731 303 726T313 713Z" />
<glyph unicode="&#xfc;" glyph-name="udieresis" horiz-adv-x="588" d="M405 261Q405 298 404 322T395 360T375 379T339 385V415Q364 415 381 418T413 427T439 441T465 458H495V103Q495 83 501 70T517 49T539 38T564 34V-1Q541 2 525 4T483 7Q449 7 415 0L405
10V66Q394 49 383 35T355 10T318 -7T268 -14Q168 -14 125 47T80 226Q79 280 78 311T70 359T51 380T14 385V415Q39 415 56 418T88 427T114 441T140 458H170V247Q170 186 178 145T200 79T235 44T279 33Q307 33 330 47T370 88T396 149T405 226V261ZM113 609Q113 637
132 655T177 674Q203 674 222 656T241 609Q241 582 222 564T177 545Q151 545 132 563T113 609ZM331 609Q331 637 350 655T395 674Q421 674 440 656T459 609Q459 582 440 564T395 545Q369 545 350 563T331 609Z" />
<glyph unicode="&#xfd;" glyph-name="yacute" horiz-adv-x="567" d="M84 226Q83 280 82 311T74 359T55 380T18 385V415Q43 415 60 418T92 427T118 441T144 458H174V247Q174 187 181 146T201 80T233 44T275 33Q297 33 319 42T359 73T388 129T399 212V261Q399 298
398 322T389 360T369 379T333 385V415Q358 415 375 418T407 427T433 441T459 458H489V-33Q489 -149 436 -199T271 -250Q207 -250 174 -237T140 -204Q114 -204 103 -187T92 -151Q92 -134 100 -122T120 -101T145 -89T170 -85Q170 -110 176 -131T195 -169T230 -195T281
-205Q308 -205 329 -196T366 -166T390 -111T399 -27V66Q389 49 378 35T350 10T311 -7T257 -14Q208 -14 176 1T123 47T94 123T84 226ZM350 713Q355 719 362 722T378 725Q388 725 396 719T405 700Q405 684 395 674Q400 668 400 659Q400 648 393 638Q388 631 379 625T356
610T323 588T278 553Q270 546 259 546Q251 546 243 552Q234 559 234 572Q234 580 240 588Q263 615 276 638T298 678T317 705T341 715Q347 715 350 713Z" />
<glyph unicode="&#xfe;" glyph-name="thorn" horiz-adv-x="559" d="M163 388Q197 431 235 449T322 468Q374 468 411 450T471 402T506 331T517 245Q517 190 502 143T459 61T391 6T302 -14Q256 -14 222 2T163 44V-151Q163 -171 169 -184T185 -205T207 -216T232 -220V-250Q220
-250 206 -249T175 -245T145 -242T118 -240Q106 -240 92 -241T61 -245T31 -248T4 -250V-220Q31 -220 52 -205T73 -151V494Q73 576 72 624T63 697T43 729T7 736V766Q32 766 49 769T81 778T107 792T133 809H163V388ZM162 230Q162 192 169 157T193 94T233 50T292 33Q328
33 352 51T392 97T415 162T422 233Q422 278 412 313T385 372T345 408T296 421Q272 421 248 410T205 376T174 316T162 230Z" />
<glyph unicode="&#xff;" glyph-name="ydieresis" horiz-adv-x="567" d="M84 226Q83 280 82 311T74 359T55 380T18 385V415Q43 415 60 418T92 427T118 441T144 458H174V247Q174 187 181 146T201 80T233 44T275 33Q297 33 319 42T359 73T388 129T399 212V261Q399
298 398 322T389 360T369 379T333 385V415Q358 415 375 418T407 427T433 441T459 458H489V-33Q489 -149 436 -199T271 -250Q207 -250 174 -237T140 -204Q114 -204 103 -187T92 -151Q92 -134 100 -122T120 -101T145 -89T170 -85Q170 -110 176 -131T195 -169T230
-195T281 -205Q308 -205 329 -196T366 -166T390 -111T399 -27V66Q389 49 378 35T350 10T311 -7T257 -14Q208 -14 176 1T123 47T94 123T84 226ZM111 609Q111 637 130 655T175 674Q201 674 220 656T239 609Q239 582 220 564T175 545Q149 545 130 563T111 609ZM329
609Q329 637 348 655T393 674Q419 674 438 656T457 609Q457 582 438 564T393 545Q367 545 348 563T329 609Z" />
<glyph unicode="&#x2013;" glyph-name="endash" horiz-adv-x="560" d="M179 202Q162 202 134 201T82 195Q77 201 73 213T68 236Q68 255 88 262T158 270Q226 270 277 264T378 258Q405 258 431 259T479 265Q484 259 488 248T493 225Q493 204 468 197T387 190Q335
190 283 196T179 202Z" />
<glyph unicode="&#x2014;" glyph-name="emdash" horiz-adv-x="842" d="M231 202Q218 202 200 202T161 201T121 199T83 195Q78 201 74 213T69 235Q69 256 102 263T218 270Q326 270 423 264T613 258Q651 258 689 259T760 265Q765 259 769 247T774 227Q774 204 738
197T624 190Q522 190 423 196T231 202Z" />
<glyph unicode="&#x2018;" glyph-name="quoteleft" horiz-adv-x="226" d="M130 681Q146 661 159 648T172 613Q172 590 161 575T120 560Q104 560 95 570T85 597Q70 598 56 609T42 639Q42 664 55 694T86 751T121 796T146 814Q151 814 159 811T167 801Q167 798 164
795Q160 791 153 781T139 759T127 732T122 706Q122 690 130 681Z" />
<glyph unicode="&#x2019;" glyph-name="quoteright" horiz-adv-x="226" d="M99 693Q91 703 84 710T70 725T61 741T57 761Q57 784 68 799T109 814Q125 814 134 804T144 777Q159 776 173 765T187 735Q187 710 174 680T143 623T108 578T83 560Q78 560 70 563T62 573Q62
576 65 579Q69 583 76 593T90 615T102 642T107 668Q107 684 99 693Z" />
<glyph unicode="&#x201a;" glyph-name="quotesinglbase" horiz-adv-x="243" d="M101 33Q93 43 86 50T72 65T63 81T59 101Q59 124 70 139T111 154Q127 154 136 144T146 117Q161 116 175 105T189 75Q189 50 176 20T145 -37T110 -82T85 -100Q80 -100 72 -97T64 -87Q64
-84 67 -81Q71 -77 78 -67T92 -45T104 -18T109 8Q109 24 101 33Z" />
<glyph unicode="&#x201c;" glyph-name="quotedblleft" d="M350 681Q366 661 379 648T392 613Q392 590 381 575T340 560Q324 560 315 570T305 597Q290 598 276 609T262 639Q262 664 275 694T306 751T341 796T366 814Q371 814 379 811T387 801Q387 798 384 795Q380
791 373 781T359 759T347 732T342 706Q342 690 350 681ZM130 681Q146 661 159 648T172 613Q172 590 161 575T120 560Q104 560 95 570T85 597Q70 598 56 609T42 639Q42 664 55 694T86 751T121 796T146 814Q151 814 159 811T167 801Q167 798 164 795Q160 791 153
781T139 759T127 732T122 706Q122 690 130 681Z" />
<glyph unicode="&#x201d;" glyph-name="quotedblright" d="M99 693Q91 703 84 710T70 725T61 741T57 761Q57 784 68 799T109 814Q125 814 134 804T144 777Q159 776 173 765T187 735Q187 710 174 680T143 623T108 578T83 560Q78 560 70 563T62 573Q62 576 65 579Q69
583 76 593T90 615T102 642T107 668Q107 684 99 693ZM319 693Q311 703 304 710T290 725T281 741T277 761Q277 784 288 799T329 814Q345 814 354 804T364 777Q379 776 393 765T407 735Q407 710 394 680T363 623T328 578T303 560Q298 560 290 563T282 573Q282 576
285 579Q289 583 296 593T310 615T322 642T327 668Q327 684 319 693Z" />
<glyph unicode="&#x201e;" glyph-name="quotedblbase" horiz-adv-x="464" d="M102 26Q94 36 87 43T73 58T64 74T60 94Q60 117 71 132T112 147Q128 147 137 137T147 110Q162 109 176 98T190 68Q190 43 177 13T146 -44T111 -89T86 -107Q81 -107 73 -104T65 -94Q65
-91 68 -88Q72 -84 79 -74T93 -52T105 -25T110 1Q110 17 102 26ZM322 26Q314 36 307 43T293 58T284 74T280 94Q280 117 291 132T332 147Q348 147 357 137T367 110Q382 109 396 98T410 68Q410 43 397 13T366 -44T331 -89T306 -107Q301 -107 293 -104T285 -94Q285
-91 288 -88Q292 -84 299 -74T313 -52T325 -25T330 1Q330 17 322 26Z" />
<glyph unicode="&#x2022;" glyph-name="bullet" horiz-adv-x="375" d="M87 264Q87 285 95 303T117 335T149 357T188 365Q208 365 226 357T258 336T280 304T288 264Q288 243 280 224T259 192T227 170T188 162Q167 162 149 170T117 191T95 224T87 264Z" />
<glyph unicode="&#x2039;" glyph-name="guilsinglleft" horiz-adv-x="359" d="M59 226Q59 229 59 232T58 237Q58 257 67 270T93 294T131 316T177 343T226 383T274 446Q277 450 281 451T290 452Q313 440 313 420Q313 388 259 333T99 201Q123 180 158 153T227 97T285
38T309 -17Q309 -38 290 -53Q286 -53 282 -53T274 -47Q251 -9 226 15T177 56T132 83T94 104T68 128T58 162Q58 164 58 167T59 173Q44 173 38 181T31 200Q31 210 37 218T53 227Q57 227 59 226Z" />
<glyph unicode="&#x203a;" glyph-name="guilsinglright" horiz-adv-x="359" d="M300 226Q302 227 306 227Q316 227 322 219T328 200Q328 190 322 182T300 173Q300 170 300 167T301 162Q301 141 292 128T266 105T228 84T182 57T133 16T85 -47Q81 -52 77 -52T69
-53Q50 -38 50 -17Q50 8 74 37T131 96T200 153T260 201Q155 278 101 333T46 420Q46 440 69 452Q73 452 77 451T85 446Q108 408 133 384T182 343T227 316T265 294T291 270T301 237Q301 235 301 232T300 226Z" />
</font>
</defs>
</svg>
