<?xml version="1.0" standalone="no"?>
<!DOCTYPE svg PUBLIC "-//W3C//DTD SVG 1.1//EN" "http://www.w3.org/Graphics/SVG/1.1/DTD/svg11.dtd">
<svg xmlns="http://www.w3.org/2000/svg">
<defs >
<font id="Stoke" horiz-adv-x="1386" ><font-face
    font-family="Stoke"
    units-per-em="2048"
    panose-1="2 3 5 2 7 8 0 3 3 3"
    ascent="2030"
    descent="-530"
    alphabetic="0" />
<glyph unicode=" " glyph-name="space" horiz-adv-x="684" />
<glyph unicode="!" glyph-name="exclam" horiz-adv-x="684" d="M472 1587Q514 1587 514 1547Q514 1522 505 1475T488 1375Q465 1203 453 1110L412 762Q402 678 395 611T377 507T341 471T306 507T289 609T273 755Q235 1093 220 1198L198 1359Q190 1414 180 1467T170
1547Q170 1587 212 1587L343 1579L472 1587ZM213 44T205 69T196 120T207 173T238 220Q280 265 331 265T409 251T455 216Q491 172 491 128T479 59T446 14Q404 -24 355 -24T277 -11T231 23Z" />
<glyph unicode="&quot;" glyph-name="quotedbl" horiz-adv-x="1022" d="M486 1121L457 1264Q429 1405 429 1461T468 1552T563 1587T655 1552T692 1469T684 1373T663 1264L630 1121Q611 1040 589 936H519Q502 1040 486 1121ZM663 1121L634 1264Q606 1405 606 1461T645
1552T740 1587T832 1552T869 1469T861 1373T840 1264L807 1121Q788 1040 766 936H696Q679 1040 663 1121Z" />
<glyph unicode="#" glyph-name="numbersign" horiz-adv-x="1526" d="M321 -24T303 -2T285 37T285 60T288 80L295 114Q299 134 307 166L387 508H173Q138 508 112 528T86 583T113 638T175 657H422L486 930H263Q229 930 203 950T177 1006T204 1060T265 1079H521L607
1445Q635 1559 676 1580Q690 1587 711 1587T753 1570T773 1532Q773 1493 761 1435L679 1079H1016L1102 1445Q1133 1587 1202 1587Q1228 1587 1248 1570T1268 1532Q1268 1493 1256 1435L1173 1079H1347Q1382 1079 1408 1061T1435 1006T1410 950T1349 930H1139L1075
657H1246Q1281 657 1307 638T1334 584T1309 528T1248 508H1041L935 49Q927 20 905 -2T849 -24T798 -2T780 37T780 60T784 80L790 114Q794 134 802 166L882 508H545L439 49Q432 20 410 -2T354 -24ZM916 657L980 930H644L580 657H916Z" />
<glyph unicode="$" glyph-name="dollar" horiz-adv-x="1447" d="M645 -21Q433 -6 175 130V479Q175 601 216 601Q247 601 255 525T293 375T370 245Q469 132 645 110V684Q395 747 274 878Q167 994 167 1155Q167 1318 282 1434Q412 1565 645 1584V1771Q645 1851 699
1851T753 1772V1586Q901 1581 1013 1540Q1033 1532 1038 1532Q1053 1530 1076 1560Q1113 1610 1129 1610T1152 1599T1162 1548Q1168 1449 1191 1357Q1224 1224 1224 1182T1194 1139Q1180 1139 1170 1152T1146 1195Q1029 1434 753 1458V927Q1176 822 1266 592Q1295
517 1295 424T1258 250T1151 110Q1006 -12 753 -22V-210Q753 -288 702 -288Q645 -288 645 -207V-21ZM645 1457Q379 1430 379 1251Q379 1105 512 1020Q563 987 645 959V1457ZM753 107Q1015 115 1060 253Q1075 297 1075 349T1059 446T1004 529Q927 610 753 658V107Z"
/>
<glyph unicode="%" glyph-name="percent" horiz-adv-x="1876" d="M339 -24T323 -8T306 31Q306 70 374 158L1416 1495Q1453 1545 1478 1566T1530 1587T1576 1572T1594 1535Q1594 1495 1546 1433L468 47Q412 -24 376 -24ZM481 863Q389 863 315 896T196 982Q110 1081
110 1224Q110 1372 222 1480Q333 1587 495 1587Q666 1587 775 1485Q878 1388 878 1236Q878 1064 764 960Q656 863 481 863ZM415 1001T456 976T533 951T592 961T636 995Q678 1048 678 1140T660 1294T610 1401Q546 1496 460 1496Q357 1496 322 1378Q310 1338 310
1275T330 1151T382 1046ZM999 344Q999 412 1028 477T1110 592Q1223 700 1384 700Q1558 700 1664 598Q1766 500 1766 350Q1766 179 1652 74Q1544 -24 1386 -24Q1188 -24 1084 96Q999 194 999 344ZM1212 492Q1200 451 1200 389T1220 265T1272 159Q1340 63 1430 63Q1523
63 1554 172Q1566 211 1566 277T1548 406T1498 514Q1433 610 1349 610Q1245 610 1212 492Z" />
<glyph unicode="&amp;" glyph-name="ampersand" horiz-adv-x="1881" d="M1176 207Q944 -23 677 -23Q447 -23 306 94Q171 206 171 376Q171 526 257 629Q346 736 550 826Q390 1002 364 1142Q356 1188 356 1246T384 1368T470 1482Q596 1592 812 1592Q1004 1592 1111
1502Q1211 1418 1211 1284Q1211 1002 848 846Q924 765 1024 670L1249 458Q1412 663 1412 783Q1412 832 1345 832L1279 826Q1259 826 1245 843T1230 892Q1230 957 1344 957Q1400 957 1446 950T1533 942T1608 949T1673 957T1721 952T1748 937Q1766 921 1766 891T1750
842T1718 823L1669 829Q1596 827 1536 702Q1433 516 1326 386L1611 104Q1642 71 1701 71L1752 80Q1769 80 1780 71T1791 47Q1791 -8 1682 -8L1539 0L1437 -5Q1398 -5 1357 33L1176 207ZM777 924Q885 984 944 1078Q989 1152 989 1219T970 1336T920 1414Q867 1467
781 1467Q695 1467 636 1409Q577 1352 577 1266Q577 1185 614 1126Q629 1103 652 1074L777 924ZM414 394Q414 337 437 285T502 196Q585 126 735 126Q940 126 1100 280L621 752Q414 626 414 394Z" />
<glyph unicode="&apos;" glyph-name="quotesingle" horiz-adv-x="679" d="M271 1121L242 1264Q214 1405 214 1461T253 1552T348 1587T440 1552T477 1469T469 1373T448 1264L415 1121Q396 1040 374 936H304Q287 1040 271 1121Z" />
<glyph unicode="(" glyph-name="parenleft" horiz-adv-x="1026" d="M785 -195L846 -190Q867 -190 876 -224Q879 -233 879 -240Q879 -259 850 -273T767 -288Q648 -288 540 -224T348 -33Q166 245 166 727T348 1487Q431 1614 539 1678T767 1742Q821 1742 850 1728T879
1694Q879 1666 866 1655T846 1644L785 1649Q533 1649 449 1156Q419 981 419 727Q419 253 529 12Q624 -195 785 -195Z" />
<glyph unicode=")" glyph-name="parenright" horiz-adv-x="1025" d="M240 -195L179 -190Q158 -190 149 -224Q146 -233 146 -240Q146 -259 175 -273T258 -288Q377 -288 485 -224T677 -33Q859 245 859 727T677 1487Q594 1614 486 1678T258 1742Q204 1742 175 1728T146
1694Q146 1666 159 1655T179 1644L240 1649Q492 1649 576 1156Q606 981 606 727Q606 253 496 12Q401 -195 240 -195Z" />
<glyph unicode="*" glyph-name="asterisk" horiz-adv-x="1024" d="M823 1129L719 1130Q643 1130 582 1122Q634 1067 678 1034L756 976Q789 951 807 928T826 872T813 818T782 780Q744 747 709 747T654 755T619 784Q589 823 575 878T555 952T541 992T524 1034L505
1072Q470 1005 451 942T416 844T384 790Q357 757 319 757T258 765T217 790Q178 825 178 863T189 922T217 960Q242 986 285 1010Q358 1052 433 1129Q371 1140 244 1140Q70 1140 70 1252Q70 1340 137 1374Q157 1384 188 1384T256 1361T330 1308L398 1252Q432 1224
464 1216Q459 1269 436 1344Q395 1477 395 1522T429 1597T514 1627T599 1599T633 1524T621 1439T592 1366Q552 1270 552 1210Q618 1238 664 1274L732 1326Q793 1370 828 1370T885 1359T921 1330Q953 1292 953 1241T918 1159T823 1129Z" />
<glyph unicode="+" glyph-name="plus" horiz-adv-x="1285" d="M566 580H140V729H566V1168H718V729H1145V580H718V143H566V580Z" />
<glyph unicode="," glyph-name="comma" horiz-adv-x="684" d="M227 -345Q173 -345 173 -301Q173 -269 215 -250T283 -211T326 -170Q363 -125 363 -94T350 -47T284 -14Q169 19 169 126Q169 227 260 265Q289 277 325 277Q413 277 463 216T514 36Q514 -94 419 -219T227
-345Z" />
<glyph unicode="-" glyph-name="hyphen" horiz-adv-x="875" d="M173 559T153 578T132 633T153 688T210 707H664Q699 707 721 688T743 634T722 579T666 559H208Q173 559 153 578Z" />
<glyph unicode="." glyph-name="period" horiz-adv-x="684" d="M191 55T181 84T171 143T183 204T220 259Q270 311 346 311Q424 311 471 254Q512 204 512 136Q512 77 466 29Q414 -24 356 -24T265 -9T212 31Z" />
<glyph unicode="/" glyph-name="slash" horiz-adv-x="1008" d="M134 -288T113 -266T91 -216T146 -38L729 1590Q773 1708 818 1724Q832 1730 853 1730T896 1713T917 1676Q917 1634 895 1578L252 -216Q225 -288 180 -288Z" />
<glyph unicode="0" glyph-name="zero" horiz-adv-x="1534" d="M140 800Q140 946 184 1096T311 1357Q488 1591 787 1591Q1078 1591 1251 1358Q1412 1140 1412 831Q1412 421 1228 188Q1060 -23 792 -23Q619 -23 468 79Q140 301 140 800ZM596 234T680 180T839 126T968
153T1066 246Q1161 388 1161 678Q1161 1025 1036 1238Q915 1446 723 1446Q572 1446 482 1320Q388 1186 388 967T427 595T531 338Z" />
<glyph unicode="1" glyph-name="one" horiz-adv-x="852" d="M678 82L744 89Q761 89 771 75T781 49T777 27T762 7Q728 -22 616 -12Q586 -10 559 -8L506 -2Q480 0 448 0T388 -2L330 -8Q242 -15 203 -15T145 -9T112 7Q87 24 87 42T97 76T125 92L220 82Q316 82 328
207Q333 251 333 314V1074Q333 1200 313 1258T239 1316Q216 1316 183 1309T109 1302T67 1332Q67 1358 133 1383T244 1426T331 1464Q425 1506 468 1537L525 1578Q539 1587 553 1587Q579 1587 579 1557T577 1504T572 1448Q566 1362 566 1256V314Q566 183 583 146T621
95T678 82Z" />
<glyph unicode="2" glyph-name="two" horiz-adv-x="1368" d="M1215 405Q1241 405 1241 378Q1241 353 1218 306T1182 227T1158 163Q1137 101 1114 0H186Q167 0 154 11T140 61T159 163T230 304Q340 467 610 702Q795 862 862 968Q934 1080 934 1213Q934 1326 858
1388Q785 1446 651 1446Q516 1446 412 1364Q303 1280 270 1143Q263 1107 247 1095T223 1083Q184 1083 184 1132V1413Q300 1506 388 1538Q534 1591 673 1591T907 1565T1068 1489Q1207 1387 1207 1213Q1207 1076 1108 946Q1008 812 759 625Q569 481 492 401Q373 278
333 199H711Q1002 199 1165 369Q1201 405 1215 405Z" />
<glyph unicode="3" glyph-name="three" horiz-adv-x="1364" d="M657 -24Q376 -24 181 113V416Q181 464 208 464T252 397T311 276T410 190Q517 127 664 127Q804 127 896 194Q1001 272 1001 407Q1001 563 876 672Q757 776 606 776Q586 776 563 770Q519 757 503 757T479
763T466 778Q456 794 456 815Q456 855 606 899Q914 990 914 1215Q914 1325 833 1387Q756 1446 624 1446Q426 1446 328 1309Q293 1261 279 1211T256 1147T234 1133Q205 1133 205 1182V1450Q354 1550 548 1582Q609 1592 693 1592T867 1568T1018 1500Q1148 1407 1148
1246Q1148 1149 1066 1052Q984 956 859 899Q1019 870 1118 763Q1225 649 1225 482Q1225 263 1040 115Q866 -24 657 -24Z" />
<glyph unicode="4" glyph-name="four" horiz-adv-x="1370" d="M1069 82L1133 89Q1152 89 1162 75T1172 49T1168 27T1152 7Q1119 -22 1008 -12Q977 -10 950 -8L896 -2Q870 0 838 0T778 -2L720 -8Q632 -15 593 -15T535 -9T502 7Q477 24 477 42T487 76T515 92L610
82Q677 82 701 143Q722 197 722 329V466H121Q67 466 49 480T30 510Q30 541 82 602L825 1509V1508Q854 1542 879 1568T922 1595Q957 1595 957 1528V607H1095Q1198 607 1264 640Q1284 651 1301 662Q1329 679 1342 679Q1368 679 1368 655Q1368 641 1349 612T1315 545T1288
472Q1261 393 1249 393Q1243 393 1237 398T1220 412T1191 429T1142 447Q1069 466 957 466V329Q957 196 974 154T1012 97T1069 82ZM275 665Q248 631 248 614Q248 607 288 607H722V1212L275 665Z" />
<glyph unicode="5" glyph-name="five" horiz-adv-x="1364" d="M332 989Q464 1053 626 1053T895 1011T1076 896Q1226 747 1226 514Q1226 263 1026 112Q847 -24 608 -24Q428 -24 253 52Q193 78 142 113V416Q142 464 171 464Q184 464 193 450T223 387T285 283T385
192Q501 115 662 115Q916 115 978 333Q993 386 993 471T963 639T880 779Q769 901 591 901Q400 901 315 823L285 798Q272 787 261 787Q228 787 228 834V1520Q235 1561 275 1561H588Q784 1561 849 1574Q957 1597 1009 1647Q1044 1678 1057 1678Q1083 1678 1083 1651Q1083
1636 1072 1602L1046 1528Q1007 1413 1001 1362H332V989Z" />
<glyph unicode="6" glyph-name="six" horiz-adv-x="1365" d="M697 -24Q414 -24 248 188Q78 405 78 783Q78 1114 278 1352Q404 1502 583 1562Q672 1591 759 1591T905 1578T1009 1542T1085 1490T1135 1430Q1171 1373 1171 1316Q1171 1277 1159 1265T1134 1252Q1108
1252 1087 1295Q1008 1446 770 1446Q576 1446 459 1286Q335 1117 323 797Q408 980 632 1036Q702 1053 794 1053T975 1017T1127 916Q1259 780 1259 570Q1259 292 1073 124Q908 -24 697 -24ZM341 534Q382 332 498 224Q609 121 758 121Q878 121 952 206T1026 421T995
639T914 786Q817 901 684 901Q564 901 471 808Q372 709 341 534Z" />
<glyph unicode="7" glyph-name="seven" horiz-adv-x="1195" d="M512 0L404 -8Q371 -8 362 16Q352 40 428 219Q587 586 665 749L815 1060L967 1362H391Q250 1362 132 1219Q107 1194 92 1194Q68 1194 68 1219T76 1273L128 1444Q145 1503 153 1553T171 1614T193 1624Q213
1624 245 1584Q264 1561 354 1561H1101Q1136 1561 1150 1558T1165 1540T1158 1513Q1090 1377 988 1114T827 672Q716 332 666 31Q659 -8 624 -8L512 0Z" />
<glyph unicode="8" glyph-name="eight" horiz-adv-x="1366" d="M971 846Q1300 676 1300 441Q1300 250 1136 116Q962 -24 691 -24Q379 -24 212 118Q70 239 70 423Q70 565 170 682Q264 791 409 837Q159 1000 159 1206Q159 1274 194 1343T296 1467Q449 1591 689 1591Q925
1591 1076 1478Q1216 1373 1216 1222Q1216 1106 1146 1001Q1081 902 971 846ZM1007 1187Q1007 1445 667 1445Q534 1445 463 1399T392 1267Q392 1194 478 1108Q584 1002 799 920Q825 910 851 900Q969 970 998 1111Q1007 1151 1007 1187ZM307 560Q288 506 288 438T322
311T416 212Q542 127 745 127Q967 127 1032 252Q1054 295 1054 359T1015 477T911 578Q810 652 602 737L534 769Q363 716 307 560Z" />
<glyph unicode="9" glyph-name="nine" horiz-adv-x="1366" d="M217 116T193 162T169 232T171 266T177 288Q186 311 203 311Q233 311 253 267Q286 193 356 160T526 126T710 158T860 264Q1006 423 1017 735Q911 587 730 542Q669 526 585 526T409 564T249 672Q99
824 99 1051Q99 1294 264 1446Q421 1591 645 1591Q932 1591 1100 1383Q1266 1178 1266 838Q1266 460 1084 222Q897 -24 586 -24Q387 -24 268 74Q217 116 193 162ZM508 749T568 719T689 688T798 704T886 752Q956 812 1001 947Q976 1200 873 1328Q778 1446 630 1446Q421
1446 360 1282Q340 1226 340 1132T373 952T457 808Z" />
<glyph unicode=":" glyph-name="colon" horiz-adv-x="684" d="M191 55T181 84T171 143T183 204T220 259Q270 311 346 311Q424 311 471 254Q512 204 512 136Q512 77 466 29Q414 -24 356 -24T265 -9T212 31ZM191 738T181 767T171 826T183 887T220 942Q270 994 346
994Q424 994 471 937Q512 887 512 819Q512 760 466 712Q414 659 356 659T265 674T212 714Z" />
<glyph unicode=";" glyph-name="semicolon" horiz-adv-x="679" d="M480 -345Q426 -345 426 -301Q426 -269 468 -250T536 -211T579 -170Q616 -125 616 -94T603 -47T537 -14Q422 19 422 126Q422 227 513 265Q542 277 578 277Q666 277 716 216T767 36Q767 -94 672
-219T480 -345ZM192 738T182 767T172 826T184 887T221 942Q271 994 347 994Q425 994 472 937Q513 887 513 819Q513 760 467 712Q415 659 357 659T266 674T213 714Z" />
<glyph unicode="&lt;" glyph-name="less" horiz-adv-x="1026" d="M160 588L866 1016V839L403 558L866 270V88L160 521V588Z" />
<glyph unicode="=" glyph-name="equal" horiz-adv-x="1285" d="M140 873H1145V724H140V873ZM140 540H1145V391H140V540Z" />
<glyph unicode="&gt;" glyph-name="greater" horiz-adv-x="1026" d="M160 270L623 558L160 839V1016L866 588V521L160 88V270Z" />
<glyph unicode="?" glyph-name="question" horiz-adv-x="1034" d="M592 500Q592 448 523 448Q469 448 440 477Q385 530 385 603Q385 742 575 971Q715 1139 715 1277Q715 1421 587 1457Q548 1468 501 1468Q405 1468 332 1403T225 1213Q221 1193 207 1174T177 1154Q139
1154 139 1202V1483Q322 1587 527 1587Q745 1587 858 1500Q961 1420 961 1287Q961 1124 792 956Q737 900 660 836Q484 691 484 599Q484 575 501 566T538 551T575 536T592 500ZM377 44T368 69T359 120T370 173T401 220Q444 265 495 265T573 251T618 216Q654 172
654 128T642 59T610 14Q567 -24 518 -24T441 -11T395 23Z" />
<glyph unicode="@" glyph-name="at" horiz-adv-x="2325" d="M1549 130L1548 126Q1548 120 1553 120Q1654 120 1758 186Q1935 297 1992 528Q2013 609 2013 665Q2013 735 2011 763Q1995 1007 1834 1144Q1676 1279 1412 1279Q1105 1279 858 1120Q635 976 505 734Q381
503 381 254Q381 -59 549 -236Q712 -407 1020 -407Q1163 -407 1267 -376Q1448 -323 1468 -281Q1471 -275 1471 -266T1476 -246Q1489 -220 1514 -220T1562 -231T1595 -268T1586 -331T1515 -410T1382 -476Q1226 -526 1026 -526T684 -487T431 -366Q162 -171 162 214Q162
521 326 790Q492 1064 782 1224Q1091 1394 1475 1394Q1798 1394 1999 1246Q2206 1093 2224 816Q2225 805 2225 796V775Q2225 579 2114 396Q2012 227 1852 119Q1694 12 1547 12L1472 16L1359 10Q1298 10 1293 91Q1293 98 1293 104T1292 119Q1154 -14 1004 -14Q832
-14 753 82Q689 161 689 283V300Q689 409 732 514T855 701T1050 834T1310 885Q1533 885 1655 766L1549 130ZM959 297Q959 107 1084 107Q1169 107 1264 211Q1293 242 1318 278L1395 724Q1344 780 1283 780T1166 744T1064 644Q959 496 959 314V297Z" />
<glyph unicode="A" glyph-name="A" horiz-adv-x="1707" d="M196 0L53 -15Q11 -15 -9 5T-30 43Q-30 89 9 89L58 83Q104 83 132 118Q182 182 268 367L804 1526Q833 1588 844 1594T865 1601T885 1594T909 1566Q935 1527 979 1430L1508 275Q1559 164 1591 131Q1638
83 1678 83L1728 90Q1748 90 1757 76T1766 42T1746 4T1680 -15L1483 0L1235 -15Q1162 -15 1140 26Q1135 37 1135 46Q1135 89 1172 89L1244 80Q1305 80 1305 115Q1305 157 1264 246L1195 378Q1181 407 1156 421T1077 436H553Q450 436 423 372L394 286Q341 161 339
127Q339 83 411 83L461 90Q478 90 488 77T499 43T474 4T397 -15L196 0ZM986 564Q1098 564 1098 591Q1098 597 1090 615L875 1139Q838 1233 821 1233Q803 1233 774 1164L542 634Q528 603 528 591Q528 564 639 564H986Z" />
<glyph unicode="B" glyph-name="B" horiz-adv-x="1581" d="M444 0L198 -14Q126 -14 108 28Q104 39 104 50T114 76T143 90L207 84Q276 84 299 138Q320 187 320 316V1232Q320 1365 302 1406T258 1462T192 1477L143 1471Q124 1471 114 1484T104 1510T108 1533T124
1553Q149 1575 193 1575T265 1573T316 1568Q374 1561 436 1561T553 1566T659 1576L758 1587Q805 1592 875 1592T1020 1578T1151 1540T1244 1481T1304 1408Q1345 1336 1345 1229T1274 1027T1072 874Q1258 830 1369 722Q1482 612 1482 470Q1482 257 1327 122Q1161
-24 870 -24Q823 -24 722 -16Q522 0 444 0ZM553 925Q654 906 750 906T904 923T1006 976Q1097 1052 1097 1202Q1097 1426 797 1426Q665 1426 624 1412T568 1378T553 1329V925ZM945 760Q855 779 751 779T553 764V265Q553 194 626 161T819 127T1005 142T1122 196Q1228
277 1228 460Q1228 702 945 760Z" />
<glyph unicode="C" glyph-name="C" horiz-adv-x="1667" d="M1546 208Q1303 -23 943 -23Q558 -23 324 210Q215 317 157 460T99 747T128 1001T210 1204T338 1368T506 1490Q696 1592 932 1592Q1102 1592 1259 1516Q1288 1502 1312 1502T1375 1542T1429 1595T1458
1608Q1486 1608 1486 1564T1487 1489T1493 1430Q1501 1373 1518 1310Q1553 1175 1553 1150T1540 1115T1514 1104Q1482 1104 1468 1130Q1296 1446 879 1446Q775 1446 678 1400T504 1270Q336 1088 336 832Q336 505 540 308Q733 123 1027 123Q1259 123 1380 314Q1426
386 1454 498Q1470 561 1509 561Q1546 561 1546 497V208Z" />
<glyph unicode="D" glyph-name="D" horiz-adv-x="1838" d="M193 1477L143 1471Q124 1471 114 1484T104 1510T108 1533T124 1553Q151 1575 195 1575T268 1573T322 1568Q383 1561 446 1561T560 1566T660 1576Q798 1592 874 1592Q1337 1592 1576 1368Q1799 1159 1799
785Q1799 554 1676 366Q1559 186 1352 81Q1144 -24 891 -24Q772 -24 684 -16L549 -4Q502 0 457 0T385 -2T329 -8Q254 -16 213 -16T153 -10T124 6Q104 22 104 41Q104 88 143 88L208 82Q276 82 299 136Q320 185 320 314V1232Q320 1363 302 1405T258 1462T193 1477ZM559
269Q559 184 624 154Q689 125 863 125T1160 156T1367 261Q1541 412 1541 763Q1541 1105 1356 1280Q1180 1446 851 1446Q702 1446 650 1428T579 1388T559 1331V269Z" />
<glyph unicode="E" glyph-name="E" horiz-adv-x="1440" d="M555 264Q555 129 649 129H858Q1105 129 1229 240Q1265 273 1297 308L1332 346Q1365 379 1376 381T1396 384Q1448 387 1389 272Q1329 152 1289 0H455Q414 0 384 -2L268 -12Q238 -15 205 -15T153 -9T124
7Q104 24 104 42T114 75T143 90L207 83Q276 83 300 144Q320 194 320 330V1233Q320 1366 302 1407T258 1463T192 1478L143 1472Q124 1472 114 1485T104 1511T108 1534T124 1554Q149 1576 193 1576T264 1574L316 1568Q389 1561 444 1561H1271Q1278 1488 1297 1407L1324
1294Q1331 1261 1331 1247Q1331 1219 1310 1219Q1297 1219 1262 1258L1202 1324Q1146 1383 1113 1398T1052 1420Q1002 1431 919 1431H649Q595 1431 575 1408T555 1342V916Q555 863 643 863H890Q960 863 1018 933Q1038 957 1048 980T1064 1012T1083 1020Q1115 1020
1115 964L1107 803L1115 634Q1115 578 1083 578Q1071 578 1065 586T1049 618T1019 665T976 704Q934 734 890 734H642Q600 734 578 716T555 672V264Z" />
<glyph unicode="F" glyph-name="F" horiz-adv-x="1411" d="M728 -14L439 0Q389 0 344 -5Q263 -14 218 -14T154 -8T125 8Q105 24 105 43Q105 90 144 90L208 84Q277 84 300 138Q320 185 320 316V1233Q320 1368 302 1408T259 1463T193 1478L144 1472Q125 1472 115
1485T105 1511T109 1534T125 1554Q152 1576 196 1576T271 1574L388 1564Q416 1561 452 1561H1290Q1297 1514 1310 1466L1335 1371Q1364 1264 1364 1229T1342 1193Q1325 1193 1298 1227T1238 1298T1164 1366Q1071 1431 939 1431H649Q605 1431 581 1402T556 1322V912Q556
859 643 859H918Q986 859 1044 929Q1064 953 1074 976T1090 1008T1111 1016Q1141 1016 1141 960L1133 787L1141 630Q1141 574 1111 574Q1090 574 1079 604Q1037 697 959 722Q937 729 918 729H642Q601 729 579 712T556 668V316Q556 186 572 148T610 97T668 84L795
93Q812 93 822 78T832 51T826 28T808 8Q777 -14 728 -14Z" />
<glyph unicode="G" glyph-name="G" horiz-adv-x="1827" d="M1767 736L1696 745Q1645 745 1644 589Q1643 548 1643 512V203L1553 156Q1515 136 1480 111T1392 60T1276 14Q1148 -23 957 -23T603 37T328 202Q98 416 98 744Q98 926 163 1081T346 1350Q599 1592 998
1592Q1155 1592 1299 1535Q1339 1519 1358 1519Q1388 1519 1424 1558Q1483 1619 1503 1619Q1533 1619 1533 1570T1543 1467T1566 1362L1588 1268Q1598 1225 1598 1203Q1598 1156 1571 1156Q1548 1156 1535 1179Q1463 1309 1299 1380Q1147 1446 986 1446T711 1399T516
1267Q345 1090 345 816Q345 501 549 308Q746 123 1047 123Q1172 123 1284 174Q1412 232 1412 322V512Q1412 642 1396 680T1357 732T1300 745L1226 734Q1207 734 1197 750T1187 777T1191 800T1206 820Q1231 843 1277 843T1355 841T1414 835Q1488 827 1526 827L1712
843Q1784 843 1802 800Q1806 789 1806 778T1796 751T1767 736Z" />
<glyph unicode="H" glyph-name="H" horiz-adv-x="1937" d="M668 83L732 89Q751 89 761 75T771 50T767 27T751 7Q716 -22 606 -12Q575 -10 548 -8L494 -2Q468 0 437 0Q406 0 380 -2L327 -8Q246 -15 209 -15T153 -9T124 7Q104 23 104 42T114 75T142 89L208 83Q276
83 299 137Q320 186 320 315V1245Q320 1375 304 1413T265 1465T208 1478L142 1472Q124 1472 114 1485T104 1511T108 1533T124 1554Q150 1576 194 1576T269 1574T327 1568L380 1564Q406 1561 437 1561Q468 1561 494 1564L548 1568Q629 1576 666 1576T722 1570T751
1554Q771 1536 771 1518Q771 1472 732 1472L668 1478Q599 1478 576 1424Q556 1377 556 1245V1023Q556 972 662 972H1276Q1382 972 1382 1023V1245Q1382 1375 1366 1413T1327 1465T1270 1478Q1270 1478 1204 1472Q1187 1472 1177 1485T1167 1511T1171 1533T1186
1554Q1211 1576 1256 1576T1331 1574T1389 1568L1442 1564Q1468 1561 1499 1561T1558 1564L1611 1568Q1692 1576 1729 1576T1784 1570T1814 1554Q1833 1536 1833 1518T1823 1486T1795 1472L1730 1478Q1662 1478 1638 1424Q1617 1374 1617 1245V315Q1617 187 1634
148T1673 96T1730 83L1795 89Q1812 89 1822 75T1833 50T1829 27T1814 7Q1780 -22 1668 -12Q1638 -10 1611 -8L1558 -2Q1531 0 1500 0T1442 -2L1389 -8Q1308 -15 1271 -15T1215 -9T1186 7Q1167 24 1167 42T1177 75T1204 89L1270 83Q1338 83 1361 137Q1382 186 1382
315V766Q1382 792 1357 810T1276 829H662Q605 829 581 811T556 766V315Q556 184 572 147T610 96T668 83Z" />
<glyph unicode="I" glyph-name="I" horiz-adv-x="876" d="M668 84L733 90Q752 90 761 76T771 51T767 28T752 8Q726 -14 682 -14T607 -12T549 -7Q438 5 370 -2Q265 -14 219 -14T154 -8T124 8Q105 25 105 43T115 76T144 90L208 84Q276 84 299 138Q320 187 320 316V1245Q320
1375 304 1413T265 1465T208 1478L144 1472Q125 1472 115 1485T105 1511T109 1533T124 1554Q149 1576 194 1576T270 1574T328 1568L381 1564Q407 1561 438 1561T496 1564L549 1568Q630 1576 667 1576T723 1570T752 1554Q771 1536 771 1517Q771 1472 733 1472L668
1478Q600 1478 577 1424Q556 1375 556 1245V316Q556 187 572 149T611 97T668 84Z" />
<glyph unicode="J" glyph-name="J" horiz-adv-x="1421" d="M1348 1472L1283 1478Q1215 1478 1192 1424Q1171 1375 1171 1245V489Q1171 244 984 102Q817 -23 583 -23Q435 -23 270 46Q211 70 156 106V481Q156 603 205 603Q238 603 253 543Q340 201 521 136Q575 116
634 116T748 138T845 210Q935 316 935 524V1245Q935 1374 916 1413T873 1465T813 1478L738 1472Q720 1472 710 1485T700 1511T704 1533T720 1554Q744 1576 788 1576T866 1574L992 1564Q1022 1561 1053 1561T1111 1564L1164 1568Q1245 1576 1282 1576T1338 1570T1367
1554Q1387 1536 1387 1518Q1387 1472 1348 1472Z" />
<glyph unicode="K" glyph-name="K" horiz-adv-x="1625" d="M668 84L732 90Q751 90 761 76T771 51T767 28T751 8Q724 -14 681 -14T607 -12T549 -7Q486 0 437 0Q389 0 344 -5Q263 -14 217 -14T153 -8T124 8Q104 24 104 43Q104 90 143 90L208 84Q276 84 299 138Q320
187 320 316V1245Q320 1375 304 1413T265 1465T208 1478L143 1472Q124 1472 114 1485T104 1511T108 1533T124 1554Q150 1576 194 1576T268 1574T326 1568L380 1564Q406 1561 437 1561Q468 1561 495 1563T549 1568Q630 1576 667 1576T722 1570T751 1554Q771 1536
771 1518Q771 1472 732 1472L668 1478Q599 1478 576 1424Q555 1375 555 1245V898Q638 923 727 987Q883 1101 1074 1282Q1204 1407 1204 1450Q1204 1478 1162 1478L1097 1481Q1080 1481 1069 1494T1058 1523Q1058 1575 1143 1575L1363 1561L1520 1575Q1612 1575
1612 1523Q1612 1494 1598 1483T1574 1471L1508 1477Q1455 1477 1330 1355Q906 941 690 838Q894 804 1020 713Q1161 610 1271 391Q1338 253 1418 170Q1485 102 1535 102L1584 112Q1614 112 1623 66Q1625 56 1625 47T1616 26T1590 6Q1554 -12 1486 -12T1341 13T1198
92Q1070 195 959 420Q839 660 670 714Q616 732 555 738V316Q555 187 571 149T610 97T668 84Z" />
<glyph unicode="L" glyph-name="L" horiz-adv-x="1394" d="M1317 406Q1341 406 1341 379Q1341 368 1332 350T1310 274Q1281 138 1281 86T1284 0H505Q436 0 370 -5L272 -12Q239 -15 205 -15T153 -9T124 7Q105 24 105 42T115 75T143 90L208 83Q277 83 301 144Q320
192 320 330V1245Q320 1375 304 1413T265 1465T208 1478L143 1472Q125 1472 115 1485T105 1511T109 1533T124 1554Q149 1576 194 1576T269 1574T327 1568L380 1564Q406 1561 437 1561T496 1564L549 1568Q630 1576 667 1576T722 1570T752 1554Q772 1536 772 1518T762
1486T733 1472L668 1478Q601 1478 576 1424Q555 1376 555 1245V264Q555 129 648 129H851Q968 129 1033 164T1150 247T1266 372Q1298 406 1317 406Z" />
<glyph unicode="M" glyph-name="M" horiz-adv-x="2115" d="M553 -15L369 0Q346 0 326 -2L285 -8Q222 -15 191 -15T141 -9T112 7Q92 24 92 42T102 75T131 89L195 83Q261 83 282 137Q297 178 297 315L298 1164Q298 1256 280 1301T235 1383T176 1445T117 1482T75
1503T59 1520T62 1539T72 1556Q87 1575 122 1575T189 1573T256 1568Q337 1561 426 1561L1077 541L1603 1562Q1692 1562 1761 1568Q1892 1578 1932 1578T1991 1572T2020 1556Q2040 1538 2040 1520T2030 1487T2002 1473L1937 1480Q1872 1480 1852 1431Q1832 1385
1832 1243V315Q1832 184 1848 147T1886 96T1944 83L2009 89Q2027 89 2037 75T2047 50T2043 27T2028 7Q1994 -22 1882 -12Q1851 -10 1824 -8L1770 -2Q1744 0 1713 0Q1682 0 1656 -2L1603 -8Q1522 -15 1485 -15T1429 -9T1400 7Q1381 24 1381 42Q1381 89 1419 89L1484
83Q1552 83 1575 138Q1596 187 1596 315L1606 1263L1078 255Q1049 199 1018 199Q1002 199 989 216T931 302L822 476Q504 1004 431 1115V315Q431 186 447 148T486 96T544 83L608 89Q626 89 636 75T647 50T643 27T627 7Q600 -15 553 -15Z" />
<glyph unicode="N" glyph-name="N" horiz-adv-x="1766" d="M552 -15L361 0Q340 0 320 -2L278 -8Q214 -15 183 -15T133 -9T104 7Q84 23 84 42Q84 89 123 89L187 83Q254 83 274 137Q290 178 290 315L291 1189Q291 1253 257 1315T184 1419T108 1478Q50 1506 50 1537Q50
1547 63 1561T109 1575L372 1561L1440 390V1246Q1440 1376 1423 1415T1384 1467T1327 1480L1254 1473Q1236 1473 1226 1487T1215 1512T1220 1534T1236 1554Q1262 1577 1311 1577L1502 1562Q1524 1562 1544 1564L1584 1570Q1647 1577 1679 1577T1730 1571T1760 1554Q1779
1537 1779 1519T1769 1487T1742 1473L1676 1480Q1610 1480 1590 1426Q1574 1385 1574 1246L1571 142Q1571 65 1585 46T1610 19Q1624 9 1624 -9Q1624 -39 1591 -39Q1554 -39 1482 11L424 1158V315Q424 186 440 148T479 96T536 83L610 89Q629 89 639 75T649 50T644
27T628 7Q601 -15 552 -15Z" />
<glyph unicode="O" glyph-name="O" horiz-adv-x="1847" d="M99 792Q99 936 158 1090T328 1356Q562 1592 950 1592Q1175 1592 1362 1482Q1538 1377 1642 1196Q1747 1014 1747 802Q1747 547 1630 354Q1523 175 1328 74Q1141 -23 912 -23Q672 -23 482 84Q99 297 99
792ZM320 902Q320 775 348 667T426 472T544 321T690 213Q848 127 1026 127Q1231 127 1360 256Q1501 399 1501 662Q1501 1010 1299 1232Q1105 1445 836 1445Q613 1445 470 1300Q320 1149 320 902Z" />
<glyph unicode="P" glyph-name="P" horiz-adv-x="1487" d="M810 593Q711 593 575 631V316Q575 188 591 149T630 97T677 84T715 85T738 88L759 92Q770 93 785 93T811 78T821 51T815 28T796 8Q766 -14 720 -14T640 -12T576 -7Q457 5 388 -2Q213 -22 184 -12T144
8Q125 25 125 43T135 76T163 90L228 84Q296 84 319 138Q340 187 340 316V1233Q340 1366 322 1407T278 1463T212 1478L163 1472Q145 1472 135 1485T125 1511T129 1534T144 1554Q170 1576 215 1576T288 1574T342 1568Q419 1561 468 1561T551 1563T615 1569T670 1576T726
1584Q806 1592 918 1592T1137 1557T1310 1460Q1436 1342 1436 1129Q1436 873 1250 726Q1081 593 810 593ZM775 1445Q575 1445 575 1331V803Q703 733 854 733Q1009 733 1096 824Q1180 911 1180 1059Q1180 1352 940 1423Q865 1445 775 1445Z" />
<glyph unicode="Q" glyph-name="Q" horiz-adv-x="1847" d="M686 -163T674 -147T661 -111T697 -62T805 -13Q480 19 290 225Q99 431 99 749Q99 1120 328 1352Q563 1592 950 1592Q1291 1592 1521 1359Q1666 1212 1720 1012Q1747 913 1747 776T1698 503T1562 264Q1388
59 1107 1Q1295 -27 1440 -148L1521 -216Q1605 -291 1715 -291Q1762 -291 1789 -276L1827 -253Q1839 -246 1850 -246T1870 -251T1884 -265Q1899 -283 1899 -300T1881 -342T1830 -389Q1752 -441 1660 -441T1499 -422T1364 -368Q1247 -304 1109 -173Q1047 -115 1019
-104Q973 -84 919 -84T829 -98T764 -132L728 -158Q719 -164 703 -164ZM320 908Q320 781 348 672T426 476T544 324T690 214Q848 127 1026 127Q1230 127 1360 258Q1501 402 1501 667Q1501 1015 1299 1234Q1106 1445 836 1445Q614 1445 470 1302Q320 1154 320 908Z"
/>
<glyph unicode="R" glyph-name="R" horiz-adv-x="1618" d="M668 83L732 89Q750 89 760 75T771 50T767 27T751 7Q724 -15 681 -15T607 -13T549 -8T495 -3T437 0T378 -2L325 -8Q244 -15 208 -15T153 -9T123 7Q103 23 103 42T113 75T142 89L206 83Q274 83 298 137Q320
185 320 315V1232Q320 1366 301 1406T257 1462T192 1477L142 1471Q124 1471 114 1484T103 1510T107 1533T123 1553Q150 1575 194 1575T266 1573T320 1568Q379 1561 440 1561T560 1566Q851 1592 954 1592T1161 1555T1330 1456Q1455 1337 1455 1154Q1455 932 1294
807Q1149 695 921 695H905Q1001 640 1060 576Q1161 468 1226 358T1329 205T1400 140Q1456 102 1517 102L1574 115Q1603 113 1610 99Q1618 80 1618 62T1609 32T1580 10Q1501 -30 1332 -3Q1218 15 1132 92Q1044 169 967 292T845 492T775 601T719 655Q658 696 554
696V315Q554 185 571 147T610 96T668 83ZM733 798L842 799Q1083 799 1170 966Q1199 1023 1199 1100T1176 1240T1102 1348Q995 1445 780 1445Q645 1445 610 1427T564 1387T554 1330V828Q622 798 733 798Z" />
<glyph unicode="S" glyph-name="S" horiz-adv-x="1404" d="M1183 1143Q1169 1143 1160 1157T1127 1218T1059 1312T958 1389Q850 1446 689 1446Q539 1446 459 1382Q390 1328 390 1244Q390 1138 456 1069Q537 984 715 938T1002 842T1178 730Q1307 613 1307 432Q1307
223 1158 100Q1007 -23 743 -23Q474 -23 266 74L153 127V481Q153 603 195 603Q224 603 233 543Q254 353 412 229Q557 116 736 116Q1087 116 1087 354Q1087 463 1018 537Q925 636 705 687Q437 748 301 878Q177 996 177 1159Q177 1336 306 1455Q454 1592 717 1592Q890
1592 1002 1546Q1023 1537 1025 1537T1032 1538T1043 1544Q1053 1551 1070 1574Q1102 1616 1119 1616Q1159 1616 1161 1564Q1166 1418 1184 1343Q1213 1222 1213 1183T1183 1143Z" />
<glyph unicode="T" glyph-name="T" horiz-adv-x="1539" d="M73 1171Q49 1171 49 1206T53 1270T65 1325T81 1376L100 1428Q124 1496 133 1550T152 1614T174 1625Q194 1625 226 1583Q242 1564 273 1563T334 1561H1346Q1409 1561 1441 1583T1485 1615T1505 1625T1519
1624T1532 1619Q1549 1609 1535 1575T1502 1487T1469 1382Q1442 1289 1431 1238Q1417 1168 1392 1168Q1366 1168 1361 1199T1348 1255T1330 1300Q1262 1420 908 1420V336Q908 204 924 160T963 100T1010 83T1048 84Q1077 88 1090 90T1118 92T1144 77T1154 50T1148
27T1129 7Q1097 -15 1052 -15T973 -13T910 -8L852 -2Q824 0 791 0Q758 0 730 -2L672 -8Q585 -15 545 -15T485 -9T452 7Q427 25 427 43T437 76T463 92T489 91T510 88Q542 83 569 83T618 99T652 147Q673 203 673 336V1421Q475 1421 388 1393Q375 1389 338 1380T254
1336T171 1264T111 1199T73 1171Z" />
<glyph unicode="U" glyph-name="U" horiz-adv-x="1874" d="M1411 -6Q1348 -6 1339 115Q1138 -23 908 -23Q601 -23 436 131Q272 283 272 557V1245Q272 1374 255 1413T216 1465T159 1478L94 1472Q76 1472 66 1485T56 1511T60 1533T76 1554Q100 1576 144 1576T220
1574T278 1568L332 1564Q358 1561 389 1561Q420 1561 446 1564L499 1568Q580 1576 618 1576T674 1570T702 1554Q722 1536 722 1518T712 1486T685 1472L619 1478Q550 1478 527 1424Q507 1377 507 1245V538Q507 337 627 228Q740 126 950 126T1338 277V1245Q1338 1375
1322 1413T1283 1465T1226 1478L1161 1472Q1143 1472 1133 1485T1123 1511T1127 1533T1143 1554Q1169 1576 1213 1576T1288 1574T1346 1568L1399 1564Q1425 1561 1456 1561T1514 1564L1567 1568Q1648 1576 1685 1576T1741 1570T1770 1554Q1789 1536 1789 1517Q1789
1472 1752 1472L1686 1478Q1590 1478 1578 1346Q1574 1303 1574 1245L1577 355Q1577 182 1590 143T1623 92T1672 79T1715 85T1742 91T1765 80T1776 57T1772 35T1756 14Q1728 -9 1694 -9T1638 -8L1594 -4Q1572 -3 1553 -2T1521 0L1411 -6Z" />
<glyph unicode="V" glyph-name="V" horiz-adv-x="1707" d="M1728 1471L1671 1478Q1621 1478 1591 1442Q1536 1374 1457 1204L1043 274Q970 103 970 49Q970 24 986 12L1010 -4Q1017 -10 1017 -19Q1017 -38 994 -38T938 -26T860 26Q754 121 654 340L222 1275Q165
1402 138 1433T96 1471T64 1478L9 1471Q-9 1471 -19 1483T-30 1509T-24 1533T-6 1554Q20 1575 66 1575T160 1568T264 1561L533 1575Q584 1575 610 1556T636 1512Q636 1472 599 1472L521 1480Q458 1480 458 1434Q458 1396 500 1305L867 495Q902 411 910 406T923
401Q931 401 955 459L1328 1265Q1369 1358 1369 1444Q1369 1481 1315 1481L1228 1472Q1211 1472 1201 1484T1190 1515T1214 1554T1298 1575T1419 1568T1517 1561L1683 1575Q1717 1575 1741 1556T1766 1516Q1766 1471 1728 1471Z" />
<glyph unicode="W" glyph-name="W" horiz-adv-x="2389" d="M684 -35Q669 -35 669 -17Q669 -3 680 5Q696 16 696 32T691 68T678 118Q660 178 592 338L198 1272Q121 1444 72 1470Q56 1479 41 1479L-15 1472Q-34 1472 -44 1484T-54 1510T-48 1534T-30 1554Q-4 1576
41 1576T134 1569T227 1561T302 1564L423 1574Q454 1576 497 1576T566 1557T592 1513Q592 1473 554 1473L478 1481Q413 1481 413 1435Q413 1407 454 1306L800 462Q822 406 839 389Q861 368 870 368Q897 368 917 426L1176 1159L1128 1276Q1083 1406 1056 1436T1011
1473T972 1479L916 1472Q897 1472 887 1484T877 1510T883 1534T900 1554Q927 1576 972 1576L1163 1561Q1196 1561 1226 1564L1346 1574Q1377 1576 1420 1576T1489 1557T1515 1513Q1515 1473 1477 1473L1401 1481Q1366 1481 1354 1471T1341 1442Q1341 1415 1376
1306L1651 472Q1670 413 1686 397Q1718 367 1732 390Q1739 402 1752 437L2044 1285Q2086 1404 2086 1443T2023 1482L1945 1473Q1928 1473 1918 1485T1907 1516T1931 1555T2017 1576T2135 1569T2232 1561T2312 1568T2382 1576T2428 1571T2455 1556Q2480 1537 2480
1518T2470 1485T2441 1472L2385 1479Q2359 1479 2337 1474T2292 1442Q2246 1388 2181 1205L1921 451L1830 205Q1791 99 1791 78T1798 47T1813 32Q1835 16 1835 5Q1835 -38 1797 -38Q1777 -38 1736 -18T1646 42Q1528 142 1475 287L1251 918L1029 300Q940 52 762
-18Q718 -35 684 -35Z" />
<glyph unicode="X" glyph-name="X" horiz-adv-x="1569" d="M230 0L64 -14Q30 -14 6 5T-19 43T-9 76T19 90L76 83Q122 83 208 190L678 756L181 1425Q157 1457 143 1468T105 1479Q105 1479 49 1472Q11 1472 11 1513Q11 1553 63 1570Q81 1576 105 1576Q129 1576 152
1574Q271 1561 305 1561L574 1576Q625 1576 650 1557T676 1513Q676 1473 639 1473L562 1481Q497 1481 497 1444Q497 1423 518 1394L855 929L1075 1198Q1212 1366 1212 1445Q1212 1482 1148 1482L1072 1473Q1055 1473 1045 1485T1034 1516T1058 1555T1142 1576T1255
1569T1347 1561T1427 1568T1506 1576T1570 1557T1595 1518Q1595 1472 1557 1472L1500 1479Q1477 1479 1446 1449T1369 1362L945 815L1446 137Q1479 90 1503 85Q1512 83 1524 83L1579 90Q1597 90 1607 77T1617 46T1594 7T1524 -14T1430 -7T1324 0L1054 -14Q1003
-14 978 5T952 49Q952 89 989 89Q997 89 1001 88T1012 84Q1027 81 1078 81T1130 117Q1130 167 1072 245L768 631L532 360Q374 167 374 116Q374 80 438 80L516 89Q532 89 542 76T553 45T529 7T443 -14T324 -7T230 0Z" />
<glyph unicode="Y" glyph-name="Y" horiz-adv-x="1539" d="M1551 1481L1485 1478Q1431 1478 1404 1443L895 677V330Q895 200 911 162T949 111T997 98T1035 99T1057 102T1078 105T1104 107T1130 92T1140 65T1134 43T1115 22Q1084 0 1038 0T959 2T896 8L838 12Q810
15 777 15Q744 15 716 12L658 8Q507 -6 479 3T438 22Q413 42 413 59T423 92T449 107T475 106T496 102Q528 98 555 98T605 111T639 152Q659 199 659 330V671L121 1443Q96 1478 35 1478L-20 1471Q-39 1471 -49 1488T-59 1524T-36 1558T35 1575L235 1561L504 1575Q607
1575 607 1522Q607 1492 594 1482T569 1472L492 1480Q428 1480 428 1444Q428 1415 472 1342L823 827L1127 1300Q1196 1403 1196 1442T1133 1481L1056 1472Q1039 1472 1029 1489T1019 1525T1042 1559T1127 1575T1246 1568T1341 1561L1507 1575Q1590 1575 1590 1532Q1590
1503 1575 1492T1551 1481Z" />
<glyph unicode="Z" glyph-name="Z" horiz-adv-x="1537" d="M190 0Q112 0 112 45Q112 65 145 110L1084 1431H678Q534 1431 473 1407T375 1361T309 1314Q258 1272 231 1239T195 1199T174 1191Q152 1191 152 1217T161 1277T185 1355Q221 1468 232 1536T254 1614T276
1625Q298 1625 327 1583Q349 1561 438 1561H1366Q1426 1561 1426 1528Q1426 1498 1401 1464L451 127L931 129Q1062 129 1145 176Q1219 219 1374 382Q1405 416 1420 416Q1461 416 1461 379Q1461 354 1431 296H1432Q1372 169 1332 0H190Z" />
<glyph unicode="[" glyph-name="bracketleft" horiz-adv-x="855" d="M551 -191L685 -181Q704 -181 714 -196T724 -223T718 -245T699 -266Q668 -288 620 -288H251Q225 -288 215 -275T204 -226V1669Q204 1730 259 1730H620Q694 1730 718 1688Q724 1677 724 1666T714
1639T685 1623L551 1633Q452 1633 442 1613Q439 1606 439 1596V-154Q439 -175 454 -181Q479 -191 551 -191Z" />
<glyph unicode="\" glyph-name="backslash" horiz-adv-x="1008" d="M874 -288T895 -266T917 -216T862 -38L279 1590Q235 1708 190 1724Q176 1730 155 1730T112 1713T91 1676Q91 1634 113 1578L756 -216Q783 -288 828 -288Z" />
<glyph unicode="]" glyph-name="bracketright" horiz-adv-x="855" d="M304 -191L170 -181Q151 -181 141 -196T131 -223T137 -245T156 -266Q187 -288 235 -288H604Q630 -288 640 -275T651 -226V1669Q651 1730 596 1730H235Q161 1730 137 1688Q131 1677 131 1666T141
1639T170 1623L304 1633Q403 1633 413 1613Q416 1606 416 1596V-154Q416 -175 401 -181Q376 -191 304 -191Z" />
<glyph unicode="^" glyph-name="asciicircum" horiz-adv-x="1141" d="M535 1588H601L1004 982H821L564 1362L313 982H136L535 1588Z" />
<glyph unicode="_" glyph-name="underscore" horiz-adv-x="1359" d="M1379 -174Q1414 -174 1436 -193T1459 -247T1438 -302T1381 -322H-22Q-57 -322 -78 -303T-100 -248T-78 -193T-20 -174H1379Z" />
<glyph unicode="`" glyph-name="grave" horiz-adv-x="644" d="M461 1221T453 1211T432 1202Q414 1202 384 1220L149 1355Q67 1402 45 1432Q-2 1500 25 1554Q57 1618 153 1596Q215 1583 293 1476L446 1268Q463 1245 462 1233Z" />
<glyph unicode="a" glyph-name="a" horiz-adv-x="1351" d="M966 -6Q908 -6 897 99Q810 12 664 -16Q619 -24 543 -24T387 -1T254 64Q147 149 147 301Q147 466 286 553Q405 627 584 627Q755 627 895 553V667Q895 864 712 900Q656 911 604 911T515 907T446 888Q377
859 315 775Q268 711 239 711T210 741Q210 759 222 799Q248 881 248 1010Q248 1060 286 1060Q326 1060 355 1042Q395 1017 401 1017Q545 1053 669 1053T887 1021T1036 932Q1128 837 1128 643V354Q1128 175 1146 138T1185 94T1239 87L1296 95Q1313 95 1323 81T1334
56T1330 34T1314 14Q1286 -9 1234 -9L1080 0L966 -6ZM895 427Q777 501 643 501Q456 501 400 394Q383 362 383 323Q383 220 451 169T644 117Q796 117 895 237V427Z" />
<glyph unicode="b" glyph-name="b" horiz-adv-x="1365" d="M146 -31Q111 -31 111 2Q111 23 137 43T172 78T186 120Q195 167 195 300V1348Q195 1521 171 1561T114 1615T43 1632Q-31 1638 -31 1682Q-31 1696 -15 1712T28 1728T76 1726L117 1722Q180 1716 210 1716Q284
1716 320 1723T373 1730T402 1727T422 1710Q433 1686 433 1600V955Q549 1053 741 1053Q986 1053 1134 910Q1285 766 1285 531Q1285 299 1126 138Q966 -24 724 -24Q638 -24 560 -4L448 25Q413 34 389 34T336 25L266 2Q170 -31 146 -31ZM433 257Q497 126 672 126Q845
126 940 218Q1035 308 1035 472Q1035 689 930 800Q834 902 671 902Q557 902 476 828Q449 802 433 766V257Z" />
<glyph unicode="c" glyph-name="c" horiz-adv-x="1174" d="M1104 739Q1104 709 1075 709Q1049 709 1009 760T928 837T845 878Q778 901 689 901T543 882T442 822Q348 734 348 574Q348 371 462 245Q570 126 728 126Q903 126 990 249Q1016 287 1041 289T1082 277T1097
240T1078 186T1026 123T950 66T859 19Q655 -66 440 16Q230 96 143 296Q100 396 100 489T120 649T176 775T265 886T383 974Q522 1053 686 1053Q802 1053 881 1016Q896 1009 909 1009T939 1016T974 1031L1006 1046Q1022 1053 1033 1053Q1066 1053 1066 1014T1066
944T1070 886Q1076 832 1094 784Q1104 757 1104 739Z" />
<glyph unicode="d" glyph-name="d" horiz-adv-x="1342" d="M914 54Q789 -23 651 -23T409 16T231 126Q80 271 80 517Q80 741 238 896Q399 1053 634 1053Q787 1053 905 997V1350Q905 1520 881 1561T823 1615T752 1632Q680 1638 680 1682Q680 1696 695 1712T738 1728T786
1726T828 1722Q891 1716 920 1716T973 1718L1035 1725Q1046 1726 1056 1728T1083 1730T1112 1727T1131 1710Q1142 1688 1142 1600V354Q1142 180 1155 141T1189 90T1246 78L1303 85Q1319 85 1329 76T1340 57T1336 35T1320 14Q1292 -9 1259 -9T1204 -8L1160 -4Q1137
-3 1118 -2T1087 0L977 -6Q933 -6 914 54ZM905 201V788Q818 901 649 901Q494 901 407 810Q322 722 322 567Q322 365 427 243Q528 126 676 126T905 201Z" />
<glyph unicode="e" glyph-name="e" horiz-adv-x="1220" d="M191 188T146 288T100 504T141 717T257 888Q423 1053 669 1053Q833 1053 956 968Q1045 907 1104 808Q1145 736 1145 717T1144 687T1137 666Q1126 642 1095 631Q840 538 528 464L353 422Q387 276 504 196Q607
126 747 126Q868 126 969 204Q1001 228 1019 254Q1050 300 1085 300Q1107 300 1123 264Q1127 255 1127 247Q1127 209 1088 158Q1019 67 911 22T680 -24T452 12T269 118ZM339 548L624 622Q879 690 890 708Q893 714 893 731T879 780T836 839Q769 901 662 901Q557
901 464 841Q338 759 338 583V566Q338 557 339 548Z" />
<glyph unicode="f" glyph-name="f" horiz-adv-x="854" d="M194 -15Q93 -15 93 46Q93 62 103 75T131 89L181 82Q263 82 280 230Q286 282 286 357V902Q222 900 192 900T141 909T110 930Q90 952 90 980T108 1030T152 1053T194 1052L257 1050Q273 1050 286 1049V1140Q286
1615 556 1724Q639 1757 735 1757T946 1730V1440Q946 1404 918 1404Q904 1404 896 1411T874 1461T839 1540T795 1598Q755 1638 713 1638T637 1620T576 1561Q522 1476 522 1306V1047L736 1053Q807 1053 820 1004Q824 991 824 980T819 955T800 929Q769 902 711 902L522
906V357Q522 188 550 130Q574 82 643 82L712 90Q729 90 739 76T749 49T741 25T717 5Q671 -22 578 -12Q555 -10 532 -8Q417 5 360 0T279 -7T235 -12T194 -15Z" />
<glyph unicode="g" glyph-name="g" horiz-adv-x="1276" d="M332 -33Q199 28 199 127Q199 175 240 222T363 297Q187 376 140 540Q126 590 126 662T166 810T278 940Q429 1053 674 1053Q787 1053 889 1016Q1027 1018 1104 1068L1140 1090Q1179 1114 1210 1114T1255
1098T1269 1060Q1269 1010 1204 976T1021 938Q1143 844 1143 699Q1143 508 1004 380Q865 252 647 246Q635 247 624 247T580 247T509 241T446 224Q400 203 400 178Q400 147 438 134Q519 106 684 96T946 62T1105 2Q1220 -66 1220 -190Q1220 -336 1066 -425Q908 -516
641 -516Q366 -516 229 -436Q113 -367 113 -257Q113 -149 231 -78Q273 -52 332 -33ZM361 707Q361 387 667 387Q905 387 905 573Q905 740 812 827Q734 901 608 901Q433 901 380 794Q361 758 361 707ZM333 -223Q333 -378 723 -378Q892 -378 946 -357T1017 -314T1034
-264T1011 -205T928 -149Q792 -91 491 -80Q413 -103 373 -142T333 -223Z" />
<glyph unicode="h" glyph-name="h" horiz-adv-x="1534" d="M644 -15L428 0Q364 0 303 -7T215 -15T169 -9T138 7Q119 23 119 42T129 75T157 89L207 82Q263 82 287 137Q312 195 312 342V1351Q312 1520 288 1561T230 1615T160 1632Q87 1638 87 1682Q87 1696 102 1712T145
1728T192 1726L234 1722Q298 1716 327 1716T380 1718L442 1725Q470 1730 488 1730T519 1727T538 1710Q549 1688 549 1600V874Q715 1053 937 1053Q1190 1053 1263 853Q1289 782 1289 685V342Q1289 183 1307 142T1344 91T1386 82L1439 89Q1456 89 1465 75T1475 49T1471
27T1456 7Q1420 -22 1328 -12Q1213 0 1179 0L968 -15Q882 -15 866 26Q862 37 862 49T872 75T901 89L954 82Q1013 82 1033 135T1053 342V627Q1053 735 1022 785T951 859T857 882T761 869T681 832Q606 785 549 711V342Q549 176 569 137T611 90T661 82L711 89Q728
89 738 76T749 46Q749 -15 644 -15Z" />
<glyph unicode="i" glyph-name="i" horiz-adv-x="807" d="M496 1260T468 1247T402 1233T336 1246T288 1282Q253 1324 253 1372T264 1448T296 1498Q339 1543 392 1543T473 1530T520 1494Q558 1449 558 1403T547 1330T516 1282ZM641 -15L426 0Q362 0 301 -7T213
-15T167 -9T136 7Q117 23 117 42T127 75T155 89L204 82Q287 82 304 230Q310 282 310 357V651Q310 793 284 846Q276 863 264 880T224 908T170 925T124 943T104 966T107 989T117 1006Q134 1025 169 1025L316 1013L467 1025Q508 1025 522 1009Q547 979 547 897V357Q547
189 567 146T608 92T659 82L708 89Q726 89 736 76T746 46Q746 -15 641 -15Z" />
<glyph unicode="j" glyph-name="j" horiz-adv-x="773" d="M540 1260T512 1247T446 1233T380 1246T332 1282Q297 1324 297 1372T308 1448T340 1498Q383 1543 436 1543T517 1530T564 1494Q602 1449 602 1403T591 1330T560 1282ZM-74 -226Q-74 -194 -47 -194Q-19
-194 6 -240Q46 -323 78 -349Q127 -388 170 -388T244 -371T300 -302Q349 -191 349 104V636Q349 814 306 878Q287 904 235 918T163 943T143 966T146 989T156 1006Q174 1025 198 1025T237 1023T268 1019Q317 1013 356 1013L525 1025Q563 1025 572 1009Q587 982 587
897V104Q587 -215 457 -374Q340 -516 129 -516Q40 -516 -74 -488V-226Z" />
<glyph unicode="k" glyph-name="k" horiz-adv-x="1425" d="M438 0L225 -15Q139 -15 123 26Q119 37 119 49T129 75T157 89L210 82Q289 82 306 220Q312 270 312 342V1348Q312 1519 288 1560T231 1615T160 1632Q87 1638 87 1682Q87 1696 102 1712T145 1728T193 1726T235
1722Q298 1716 332 1716L485 1730Q527 1730 536 1713Q549 1688 549 1600V597Q728 659 872 752Q1018 845 1018 888T942 931L883 924Q867 924 857 938T846 963T849 985T863 1006Q886 1029 942 1029T1054 1021T1160 1013T1249 1021T1336 1029Q1425 1029 1425 965Q1425
953 1415 939T1387 924L1331 931Q1288 931 1204 857Q999 677 792 574L1175 213Q1299 98 1392 98L1437 105Q1460 105 1472 69Q1475 60 1475 53T1471 34T1458 14Q1435 -9 1404 -9T1353 -8T1312 -5T1273 -2T1242 0L1120 -9Q1083 -9 1057 8T994 56T900 144L756 286L549
499V321Q549 192 573 137T646 82L699 89Q715 89 725 75T735 49T731 27T715 7Q679 -22 586 -12L492 -2Q468 0 438 0Z" />
<glyph unicode="l" glyph-name="l" horiz-adv-x="787" d="M634 82L686 89Q703 89 713 75T723 49T719 27T703 7Q667 -23 574 -12L481 -2Q457 0 410 0T305 -7T215 -15T162 -9T130 7Q110 22 110 42T120 75T148 89L201 82Q260 82 280 136Q300 186 300 342V1348Q300
1520 276 1561T218 1615T148 1632Q74 1638 74 1682Q74 1696 89 1712T132 1728T179 1726L220 1722Q285 1716 320 1716L473 1730Q511 1730 521 1713Q537 1683 537 1600V342Q537 182 555 141T591 91T634 82Z" />
<glyph unicode="m" glyph-name="m" horiz-adv-x="2278" d="M208 -15Q107 -15 107 46Q107 62 117 75T145 89L195 82Q277 82 294 228Q300 281 300 357V651Q300 841 256 899Q241 919 214 927T160 941T114 955T94 980Q94 1025 159 1025L306 1013L457 1025Q498 1025
510 1010Q534 982 536 908Q715 1053 910 1053Q1029 1053 1114 1006T1244 876Q1370 998 1540 1039Q1598 1053 1671 1053T1813 1028T1932 957Q2033 861 2033 705V357Q2033 198 2051 152T2087 94T2130 82L2182 89Q2198 89 2208 75T2218 49T2214 27T2198 7Q2164 -23
2070 -12L1977 -2Q1953 0 1923 0L1712 -15Q1605 -15 1605 46Q1605 62 1616 75T1644 89L1696 82Q1755 82 1776 144Q1795 200 1795 357V665Q1795 771 1742 830T1602 890Q1439 890 1278 741Q1285 697 1285 664V357Q1285 197 1303 151T1340 94T1382 82L1435 89Q1452
89 1461 75T1471 49T1467 27T1451 7Q1415 -22 1323 -12L1230 -2Q1205 0 1175 0L964 -15Q878 -15 862 26Q858 37 858 49T868 75T897 89L949 82Q1009 82 1029 142Q1048 199 1048 357V665Q1048 771 995 830T846 890Q698 890 536 746V357Q536 188 556 145T598 92T649
82L699 89Q716 89 725 76T735 46Q735 -15 631 -15Q579 -15 527 -8T425 0T347 -2T293 -7T249 -12T208 -15Z" />
<glyph unicode="n" glyph-name="n" horiz-adv-x="1522" d="M632 -15L416 0Q352 0 291 -7T203 -15T157 -9T126 7Q107 23 107 42T118 75T145 89L195 82Q251 82 275 137Q300 195 300 342V651Q300 818 256 878Q237 903 185 918T114 943T94 966T97 989T107 1006Q124
1025 159 1025L306 1013L457 1025Q500 1025 512 1010Q537 982 537 901V874Q703 1053 925 1053Q1178 1053 1251 853Q1277 782 1277 685V342Q1277 183 1295 142T1332 91T1374 82L1427 89Q1444 89 1453 75T1463 49T1459 27T1444 7Q1408 -22 1316 -12Q1201 0 1167 0L956
-15Q870 -15 854 26Q850 37 850 49T860 75T889 89L942 82Q1001 82 1021 135T1041 342V607Q1041 790 938 856Q898 882 845 882T749 869T669 832Q594 785 537 711V342Q537 176 557 137T599 90T649 82L699 89Q716 89 726 76T737 46Q737 -15 632 -15Z" />
<glyph unicode="o" glyph-name="o" horiz-adv-x="1341" d="M100 538Q100 624 144 722T266 894Q433 1053 673 1053Q951 1053 1104 887Q1241 738 1241 532Q1241 289 1096 137Q943 -24 677 -24Q293 -24 154 266Q100 379 100 538ZM370 730Q349 673 349 579T380 398T464
251Q573 127 723 127Q907 127 968 288Q989 343 989 444T956 635T870 785Q766 901 617 901Q432 901 370 730Z" />
<glyph unicode="p" glyph-name="p" horiz-adv-x="1361" d="M46 -411L95 -419Q153 -419 176 -368Q200 -312 200 -169V647Q200 864 131 900Q108 913 75 922T27 937Q-6 950 -6 973Q-6 1005 26 1020Q39 1025 63 1025T120 1019T198 1013T278 1021T342 1029T383 1027T404
1019Q424 1007 433 968Q559 1053 703 1053T952 1016T1130 910Q1281 766 1281 515Q1281 291 1122 134Q962 -24 726 -24Q551 -24 438 46V-169Q438 -331 457 -368T498 -412T550 -419L599 -411Q616 -411 626 -424T637 -451T633 -475T616 -495Q590 -516 532 -516L316
-510L108 -516Q27 -516 11 -474Q7 -463 7 -451T18 -425T46 -411ZM438 288Q495 168 631 136Q671 126 730 126T850 150T953 219Q1039 309 1039 464Q1039 682 940 795Q845 902 682 902Q582 902 490 846Q461 828 438 806V288Z" />
<glyph unicode="q" glyph-name="q" horiz-adv-x="1330" d="M942 73Q811 -23 662 -23T409 16T231 126Q80 271 80 517Q80 741 238 896Q399 1053 621 1053T979 952Q1170 1053 1230 1053Q1265 1053 1265 1022Q1265 1008 1259 1003T1243 991T1223 973T1202 932Q1180
863 1180 723V-179Q1180 -341 1199 -378T1240 -422T1292 -429Q1292 -429 1341 -421Q1358 -421 1368 -434T1379 -461T1375 -485T1358 -505Q1332 -526 1274 -526L1058 -520L850 -526Q769 -526 753 -484Q749 -473 749 -461T760 -435T788 -421L837 -429Q895 -429 918
-378Q942 -326 942 -179V73ZM365 767T344 705T322 553T351 382T432 243Q537 126 700 126Q845 126 942 241V733Q881 855 732 892Q689 902 630 902T510 879T407 811Z" />
<glyph unicode="r" glyph-name="r" horiz-adv-x="1149" d="M208 -15Q107 -15 107 46Q107 62 117 75T145 89L195 82Q252 82 275 136Q300 194 300 342V647Q300 793 276 845Q252 894 219 906T160 925T114 943T94 966T97 989T107 1006Q124 1025 159 1025L306 1013L457
1025Q536 1025 536 921V851Q630 995 782 1038Q832 1053 886 1053Q1072 1053 1072 934L1070 687Q1070 673 1062 664T1042 654Q1016 654 1004 700T970 778T920 830Q868 863 810 863T711 844T637 796Q571 738 536 664V342Q536 176 564 124Q587 82 657 82L726 90Q743
90 753 76T763 49T755 25T732 5Q687 -23 592 -12Q569 -10 546 -8Q431 5 374 0T293 -7T249 -12T208 -15Z" />
<glyph unicode="s" glyph-name="s" horiz-adv-x="1196" d="M998 1053Q1031 1053 1031 1010Q1031 895 1039 827T1047 744Q1047 716 1019 716Q996 716 975 758Q849 934 610 934Q498 934 445 901T391 828T403 763T447 715Q508 673 653 639T882 572T1018 500Q1119
422 1119 292Q1119 169 1023 84Q902 -24 634 -24Q515 -24 402 2Q206 49 140 95V345Q140 356 148 364T170 373Q195 373 211 328T269 240T373 164Q503 94 668 94Q780 94 820 114T877 162T893 223T878 279T826 324Q754 368 611 404T386 478T255 560Q166 641 166 759Q166
869 276 955Q403 1053 615 1053Q763 1053 878 1008Q900 1000 912 1000T934 1008L953 1026Q981 1053 998 1053Z" />
<glyph unicode="t" glyph-name="t" horiz-adv-x="1015" d="M803 1038Q932 1038 932 971Q932 899 811 899H495V339Q495 188 588 140Q620 123 661 123Q760 123 836 224Q869 268 916 268Q931 268 941 255T951 228Q951 187 913 136Q794 -24 595 -24Q347 -24 281 142Q257
202 257 289V899H157Q52 899 52 964Q52 990 77 1009T148 1039T233 1078T300 1150Q349 1227 374 1396Q391 1502 443 1502T495 1396V1031L598 1034Q718 1038 803 1038Z" />
<glyph unicode="u" glyph-name="u" horiz-adv-x="1409" d="M978 110Q837 -24 658 -24Q485 -24 372 75Q258 176 258 330V676Q258 844 245 880T211 925T159 935T116 932T93 928T71 942T60 966T64 988T80 1010Q108 1032 141 1032T197 1031T241 1028T282 1025T313
1023L424 1029Q483 1029 492 938Q496 905 496 857V370Q496 197 625 152Q665 138 713 138Q845 138 977 272V675Q977 845 964 880T930 925T878 935T835 932T812 928T790 942T780 966T784 988T800 1010Q826 1032 860 1032T916 1030L960 1028Q983 1026 1002 1025T1033
1023L1143 1029Q1185 1029 1196 1006Q1215 970 1215 876V354Q1215 181 1228 145T1262 99T1315 88T1357 91T1379 95T1402 81T1413 57T1409 35T1392 14Q1365 -9 1331 -9T1275 -8T1231 -5T1190 -2T1159 0L1049 -6Q987 -6 978 110Z" />
<glyph unicode="v" glyph-name="v" horiz-adv-x="1366" d="M1363 925L1307 932Q1267 932 1237 898Q1182 839 1131 733L787 32Q757 -35 725 -35T659 23L200 823Q149 908 126 920T84 932L27 925Q10 925 0 939T-11 970T13 1008T89 1029T190 1021T297 1013L555 1029Q627
1029 648 986Q653 975 653 964T644 939T615 925L539 934Q459 934 459 884Q459 833 498 770Q554 666 615 568T734 366Q758 324 775 324Q785 324 802 362L959 691Q1011 803 1016 836T1021 884Q1021 934 951 934L859 925Q841 925 831 939T821 971T845 1009T924 1029T1034
1021T1136 1013T1227 1021T1313 1029T1378 1008T1400 970T1390 939T1363 925Z" />
<glyph unicode="w" glyph-name="w" horiz-adv-x="2047" d="M2059 925L2003 932Q1958 932 1926 894Q1865 823 1770 633L1460 22Q1398 -89 1338 23L1044 578L789 22Q775 -7 749 -21T704 -35Q676 -35 646 23L262 731Q167 903 120 924Q104 932 89 932L33 925Q16 925
6 939T-5 970T19 1008T82 1029Q141 1029 187 1023L215 1019Q252 1013 296 1013T390 1021T482 1029T544 1023T574 1006Q595 988 595 971Q595 925 558 925L480 934Q458 934 452 927T445 904Q445 876 490 798L742 343Q753 323 757 316T770 308Q782 308 803 351L979
738Q916 860 887 890T842 926T810 932Q810 932 754 925Q737 925 727 939T716 970T740 1008T803 1029T860 1027T900 1023L927 1020Q947 1018 965 1016T1006 1013Q1042 1013 1088 1019L1114 1022Q1255 1037 1285 1027T1328 1006Q1349 987 1349 970T1340 939T1312
925L1234 934Q1174 934 1174 883Q1174 862 1185 843L1210 798L1428 350Q1448 308 1462 308Q1474 308 1496 351L1655 687Q1710 797 1714 831T1718 884Q1718 934 1647 934L1555 925Q1540 925 1529 939T1518 965T1523 988T1541 1009Q1568 1029 1615 1029L1852 1013Q1877
1013 1910 1018Q1973 1029 2009 1029T2071 1010T2097 972T2087 939T2059 925Z" />
<glyph unicode="x" glyph-name="x" horiz-adv-x="1369" d="M458 -16L256 0Q212 0 171 -8T89 -16T27 4T4 42T14 74T43 88L98 81Q152 81 275 217L540 501L253 844Q200 903 174 915Q140 932 100 932L44 925Q26 925 16 939T5 970T29 1008T92 1029T154 1027L200 1023L227
1020Q247 1018 266 1016T326 1013T439 1021T560 1029T629 1023T659 1006Q679 988 679 970Q679 925 642 925L565 934Q514 934 514 907Q514 896 524 886L755 622L938 809Q985 856 992 871T999 899Q999 912 989 923T959 934L873 925Q848 925 838 954Q835 961 835 969T841
988T860 1009Q890 1029 943 1029T1044 1021T1133 1013T1215 1021T1298 1029T1361 1008T1384 970T1374 939T1345 925L1290 932Q1257 932 1227 912Q1176 877 1093 792L838 527L1136 185Q1213 97 1256 84Q1272 80 1289 80L1345 87Q1363 87 1373 73T1384 42T1360 4T1286
-17Q1236 -17 1187 -9T1081 0T952 -8T830 -17T760 -11T730 6Q710 23 710 41Q710 87 748 87Q755 87 760 86T772 82Q795 78 835 78T875 105Q875 128 819 193L632 406L524 279Q407 162 407 121T446 79L531 88Q556 88 566 59Q569 52 569 38T544 4T458 -16Z" />
<glyph unicode="y" glyph-name="y" horiz-adv-x="1349" d="M1332 925L1276 933Q1208 933 1134 776L728 -136Q580 -443 438 -494Q397 -508 351 -508T260 -494T184 -456Q121 -406 121 -335Q121 -279 163 -252Q175 -245 197 -245Q246 -245 278 -304Q309 -360 348
-370Q362 -373 384 -373T431 -361T488 -312Q550 -241 643 -52V-51L265 731Q179 903 118 926Q101 932 85 932L29 925Q12 925 2 939T-9 970T15 1008T89 1029L288 1013Q347 1013 417 1021T536 1029T604 1023T634 1006Q655 988 655 971Q655 925 617 925L541 934Q473
934 473 883Q473 864 488 828L755 228Q966 759 979 789T998 838Q1011 874 1011 894Q1011 934 953 934L870 925Q853 925 843 939T832 971T855 1009T930 1029T1031 1021T1121 1013T1198 1021T1279 1029T1347 1008T1370 970T1359 939T1332 925Z" />
<glyph unicode="z" glyph-name="z" horiz-adv-x="1194" d="M1133 368Q1162 368 1162 338Q1162 312 1139 265T1103 189T1082 133Q1063 79 1050 0H155Q114 0 101 12T85 37T82 57T84 74Q90 93 116 125L773 912H517Q429 912 385 888Q309 848 246 764Q169 662 139 662Q125
662 116 671T113 704T130 770T149 856Q166 947 166 1001T203 1055Q210 1055 222 1048L250 1034Q289 1013 305 1013H1012Q1056 1013 1074 1005T1097 982Q1107 943 1085 917L412 102H709Q836 102 916 158Q957 186 995 229L1081 329Q1101 352 1110 360T1133 368Z"
/>
<glyph unicode="{" glyph-name="braceleft" horiz-adv-x="809" d="M703 -197Q737 -197 737 -223Q737 -259 674 -272Q655 -275 620 -275T535 -246T445 -158Q357 -32 332 192Q292 498 249 592Q221 655 178 673Q158 682 130 688Q82 700 82 727Q82 754 120 763T178
780T216 808T249 861T278 948Q305 1058 325 1218T374 1466T445 1612Q527 1730 635 1730Q700 1730 728 1698Q737 1689 737 1678Q737 1651 703 1651L645 1660Q604 1660 588 1618Q570 1572 570 1420T554 1139T506 926Q450 769 333 727Q451 682 506 527Q570 350 570
6Q570 -118 583 -152T611 -196T645 -205L703 -197Z" />
<glyph unicode="|" glyph-name="bar" horiz-adv-x="860" d="M346 1653Q346 1688 371 1709T431 1730T490 1708T514 1651V-207Q514 -261 462 -282Q448 -288 422 -288T371 -264T346 -204V1653Z" />
<glyph unicode="}" glyph-name="braceright" horiz-adv-x="809" d="M106 -197Q72 -197 72 -223Q72 -259 135 -272Q154 -275 189 -275T274 -246T364 -158Q452 -32 477 192Q517 498 560 592Q588 655 631 673Q651 682 679 688Q727 700 727 727Q727 754 689 763T631
780T593 808T560 861T531 948Q504 1058 484 1218T435 1466T364 1612Q282 1730 174 1730Q109 1730 81 1698Q72 1689 72 1678Q72 1651 106 1651L164 1660Q205 1660 221 1618Q239 1572 239 1420T255 1139T303 926Q359 769 476 727Q358 682 303 527Q239 350 239 6Q239
-118 226 -152T198 -196T164 -205L106 -197Z" />
<glyph unicode="~" glyph-name="asciitilde" horiz-adv-x="1437" d="M440 697Q322 697 227 476L95 541Q142 670 238 762Q336 856 445 856Q577 856 763 719Q899 619 967 608Q991 604 1015 604T1065 615T1115 652Q1170 708 1211 823L1342 761Q1230 446 1001 446Q876
446 695 580Q590 655 554 672Q500 697 440 697Z" />
<glyph unicode="&#xa0;" glyph-name="nbspace" horiz-adv-x="550" />
<glyph unicode="&#xa1;" glyph-name="exclamdown" horiz-adv-x="684" d="M472 -525Q514 -525 514 -485Q514 -460 505 -413T488 -313Q465 -141 453 -48L412 300Q402 384 395 451T377 555T341 591T306 555T289 453T273 307Q235 -31 220 -136L198 -297Q190 -352 180
-405T170 -485Q170 -525 212 -525L343 -517L472 -525ZM213 1018T205 993T196 942T207 889T238 842Q280 797 331 797T409 811T455 846Q491 890 491 934T479 1003T446 1048Q404 1086 355 1086T277 1073T231 1039Z" />
<glyph unicode="&#xa2;" glyph-name="cent" horiz-adv-x="1216" d="M677 -288Q620 -288 620 -207V-21Q395 0 257 136Q108 283 108 515Q108 713 247 866Q393 1026 620 1049V1211Q620 1291 671 1291Q703 1291 716 1272T729 1212V1052Q795 1048 851 1032L916 1012Q926
1009 938 1009T967 1016T1002 1031L1035 1046Q1051 1053 1061 1053Q1095 1053 1095 1014T1095 944T1099 886Q1105 836 1118 797T1132 744T1127 726T1114 716Q1097 709 1084 709Q1057 709 1014 764T935 848T868 893Q824 913 729 918V136Q747 134 778 134T846 139T913
157Q974 183 1018 249Q1057 300 1093 300Q1110 300 1122 264Q1125 255 1125 238T1108 190T1062 131T995 76T912 30Q819 -14 729 -22V-210Q729 -288 677 -288ZM620 912Q356 858 356 543Q356 252 620 159V912Z" />
<glyph unicode="&#xa3;" glyph-name="sterling" horiz-adv-x="1367" d="M151 13Q121 -20 107 -20T86 -16T72 -5Q57 11 57 26T66 61T98 103Q147 154 221 194Q338 255 359 284Q405 345 405 454T347 718H215Q170 718 144 737T117 783T139 829T208 847H293Q228 1010
228 1126T264 1324T364 1464Q495 1587 684 1587Q780 1587 842 1568T938 1535Q992 1513 1004 1512Q1024 1512 1059 1548Q1108 1601 1127 1601Q1161 1601 1159 1554T1162 1458T1178 1364T1197 1275T1210 1206Q1215 1160 1180 1160Q1169 1160 1145 1184Q1061 1309
933 1384Q809 1458 695 1458Q530 1458 476 1333Q458 1291 458 1243T461 1155T476 1070Q498 979 559 847H976Q1046 847 1076 812Q1087 799 1087 781T1078 751T1055 732Q1027 718 987 718H608Q640 611 640 546T630 446T603 379Q570 316 514 267Q654 257 707 241T812
202T904 165T976 140Q1035 123 1079 123Q1159 123 1214 178Q1245 209 1260 209T1285 203T1303 188Q1322 167 1322 145T1290 90T1206 32Q1090 -24 987 -24Q800 -24 621 33Q440 90 352 90Q227 90 151 12V13Z" />
<glyph unicode="&#xa4;" glyph-name="currency" horiz-adv-x="1451" d="M988 314Q873 232 720 232T456 307L245 87L136 196L356 408Q290 506 290 639T359 873L136 1087L245 1196L459 974Q574 1053 726 1053T990 972L1206 1196L1315 1087L1087 868Q1147 767 1147
642Q1147 516 1084 417L1315 196L1206 87L988 314ZM441 642Q441 580 461 528T518 437Q596 356 720 356Q846 356 920 432Q998 511 998 643Q998 765 918 846Q839 927 717 927Q594 927 517 846Q441 766 441 642Z" />
<glyph unicode="&#xa5;" glyph-name="yen" horiz-adv-x="1539" d="M1002 76L1097 87Q1115 87 1125 76T1135 50T1110 17T1036 0T954 2T890 8L833 12Q805 15 772 15Q739 15 710 12L652 8Q564 0 512 0T435 17T410 49T420 76T448 87L544 76Q610 76 634 140Q655 196
655 329V374H253Q218 374 197 384T175 422T181 460T198 475Q212 482 256 482H655V736H253Q218 736 197 746T175 785T181 822T198 837Q214 845 256 845H579L123 1422Q108 1442 91 1450T37 1458L-18 1449Q-37 1449 -47 1462T-57 1493T-34 1532T37 1553L237 1539L505
1553Q555 1553 581 1534T607 1490Q607 1450 569 1450L493 1460Q458 1460 444 1449T429 1426T431 1408T439 1393T452 1372L473 1342L840 896L1172 1294Q1258 1397 1258 1423Q1258 1461 1193 1461L1117 1450Q1100 1450 1090 1463T1079 1494T1103 1532T1170 1553T1241
1551T1292 1546Q1344 1539 1372 1539Q1426 1539 1462 1546T1534 1553T1594 1534T1619 1496Q1619 1449 1580 1449Q1569 1449 1557 1453T1514 1458Q1464 1458 1434 1422L952 845H1317Q1377 845 1391 818Q1397 807 1397 781Q1397 736 1318 736H889V482H1317Q1378 482
1391 456Q1397 445 1397 419T1377 383T1318 374H889V329Q889 195 906 152T945 92T1002 76Z" />
<glyph unicode="&#xa6;" glyph-name="brokenbar" horiz-adv-x="855" d="M511 919T487 897T435 874T394 879T368 894Q343 916 343 946V1659Q343 1692 367 1711T426 1730T486 1708T511 1656V948Q511 919 487 897ZM343 507Q343 537 362 553Q392 578 427 578T486 556T511
505V-214Q511 -243 487 -265T427 -288T367 -269T343 -216V507Z" />
<glyph unicode="&#xa7;" glyph-name="section" horiz-adv-x="1119" d="M469 -288Q336 -288 180 -208V38Q182 84 208 84Q240 84 249 42Q272 -66 341 -128T520 -190Q617 -190 683 -144Q753 -94 753 -13Q753 117 507 234Q212 373 148 527Q125 581 125 635T141 731T186
810Q235 876 321 929Q155 1052 155 1237Q155 1371 276 1474Q409 1587 622 1587Q782 1587 908 1529V1281Q906 1235 880 1235Q849 1235 840 1278Q820 1378 760 1433T599 1489Q508 1489 438 1437Q365 1383 365 1320Q365 1186 610 1066Q832 957 914 863Q993 772 993
644Q993 525 870 420Q835 390 798 368Q961 247 961 84Q961 -68 840 -173Q707 -288 469 -288ZM404 876Q300 819 300 742Q300 612 647 457Q664 449 682 440L714 422Q819 477 819 558Q819 685 472 843Q435 859 404 876Z" />
<glyph unicode="&#xa8;" glyph-name="dieresis" horiz-adv-x="971" d="M825 1259T797 1246T731 1232T665 1245T618 1281Q583 1324 583 1371T594 1447T626 1497Q669 1542 721 1542T802 1529T850 1493Q887 1448 887 1402T876 1329T845 1281ZM341 1259T313 1246T247
1232T181 1245T134 1281Q98 1323 98 1371T109 1447T140 1497Q184 1542 237 1542T318 1529T366 1493Q402 1450 402 1403T391 1329T361 1281Z" />
<glyph unicode="&#xa9;" glyph-name="copyright" horiz-adv-x="1907" d="M117 778Q117 885 144 985T222 1175T347 1340T514 1471Q712 1587 960 1587Q1300 1587 1541 1365Q1699 1220 1760 1008Q1790 901 1790 783T1759 559T1671 365T1538 204T1368 82Q1174 -24
959 -24Q728 -24 532 86Q342 193 230 376Q117 563 117 778ZM258 778Q258 683 283 596T355 434T466 296T611 190Q780 97 975 97Q1153 97 1309 184Q1551 317 1626 588Q1651 679 1651 781T1624 974T1548 1141T1434 1277T1290 1380Q1130 1466 953 1466Q658 1466 458
1267Q258 1069 258 778ZM1342 959Q1342 931 1317 931Q1295 931 1259 974T1194 1044T1132 1086Q1068 1117 993 1117T872 1096T793 1038Q720 960 720 853T744 670T811 545Q895 449 1043 449Q1182 449 1248 553Q1277 593 1316 593Q1326 593 1336 578T1346 552Q1346
515 1299 456T1159 353T956 310T757 346T608 445Q480 574 480 767Q480 961 610 1096Q742 1234 944 1234Q1035 1234 1121 1210Q1141 1210 1155 1203T1179 1196Q1193 1196 1217 1211Q1263 1239 1278 1239Q1309 1239 1309 1202T1309 1138T1312 1088Q1315 1049 1328
1011T1342 959Z" />
<glyph unicode="&#xaa;" glyph-name="ordfeminine" horiz-adv-x="1193" d="M725 835Q630 755 481 755T250 821T168 1000Q168 1124 269 1188Q356 1244 488 1244T723 1197V1285Q723 1494 516 1494Q452 1494 401 1466T297 1369Q266 1325 254 1321T234 1316T217 1324T208
1343Q208 1356 218 1387Q239 1447 239 1552Q239 1578 250 1585T270 1592Q279 1592 291 1587L340 1566Q352 1561 359 1561Q360 1561 390 1569Q459 1587 562 1587T740 1562T858 1492Q936 1415 936 1266V1053Q936 916 949 883T978 842T1014 834L1066 843Q1080 843
1090 833T1101 808T1083 778T1018 762L888 769L780 764Q733 764 725 835ZM723 1128Q638 1173 548 1173Q429 1173 386 1076Q374 1048 374 1014T385 948T420 890Q468 838 558 838T723 905V1128Z" />
<glyph unicode="&#xab;" glyph-name="guillemotleft" horiz-adv-x="1364" d="M244 409T193 446T118 497T86 516T78 533Q78 549 110 566T195 619T306 702Q449 818 523 922L545 952Q568 981 580 981T609 973T625 943T607 873T556 769Q482 639 382 533Q484 424 536
331Q625 176 625 120Q625 101 609 93T583 85T568 88T558 98T546 116T507 164T417 256T302 360ZM821 409T770 446T695 497T663 516T655 533Q655 549 687 566T772 619T883 702Q1026 818 1100 922L1122 952Q1145 981 1157 981T1186 973T1202 943T1184 873T1133 769Q1059
639 959 533Q1061 424 1113 331Q1202 176 1202 120Q1202 101 1186 93T1160 85T1145 88T1135 98T1123 116T1084 164T994 256T879 360Z" />
<glyph unicode="&#xac;" glyph-name="logicalnot" horiz-adv-x="1285" d="M140 729H1145V254H992V580H140V729Z" />
<glyph unicode="&#xad;" glyph-name="uni00AD" horiz-adv-x="1229" />
<glyph unicode="&#xae;" glyph-name="registered" horiz-adv-x="1373" d="M668 639Q571 639 467 682T285 799Q119 959 119 1184Q119 1406 275 1564Q440 1730 691 1730Q917 1730 1080 1580Q1253 1422 1253 1183Q1253 952 1082 794Q914 639 668 639ZM688 744Q779
744 857 775T994 864Q1125 991 1125 1181Q1125 1370 989 1496Q858 1618 680 1618Q492 1618 364 1491Q236 1365 236 1180Q236 998 368 871T688 744ZM454 1402Q434 1398 425 1398T409 1405T402 1420Q402 1449 445 1449L574 1442L722 1451Q818 1451 877 1408Q932 1369
932 1320T917 1242T876 1193Q826 1153 754 1149Q823 1110 874 1027Q897 990 907 978T927 966L956 971Q975 971 975 954T957 926T897 915T803 954T719 1044T667 1114T620 1145V1066Q620 967 648 967L676 971Q699 971 699 950Q699 920 658 920L551 927L445 920Q402
920 402 950Q402 971 425 971L454 967Q483 967 483 1066V1305Q483 1402 454 1402ZM620 1219Q663 1202 694 1202T742 1207T770 1222Q797 1246 797 1279T786 1329T756 1357Q722 1379 671 1379T620 1338V1219Z" />
<glyph unicode="&#xaf;" glyph-name="overscore" horiz-adv-x="876" d="M98 1455H790V1316H98V1455Z" />
<glyph unicode="&#xb0;" glyph-name="degree" horiz-adv-x="855" d="M428 1021Q364 1021 312 1041T222 1099Q143 1176 143 1304Q143 1424 218 1503Q298 1587 436 1587Q559 1587 635 1511T712 1304Q712 1177 632 1099Q553 1021 428 1021ZM501 1137T541 1180T581
1304Q581 1418 492 1458Q463 1470 428 1470T364 1458T316 1422Q277 1376 277 1322T287 1238T318 1184Q359 1137 430 1137Z" />
<glyph unicode="&#xb1;" glyph-name="plusminus" horiz-adv-x="1285" d="M566 880H140V1029H566V1468H718V1029H1145V880H718V463H566V880ZM140 322H1145V173H140V322Z" />
<glyph unicode="&#xb2;" glyph-name="twosuperior" horiz-adv-x="860" d="M139 639Q104 639 104 674T114 749T153 838Q216 944 371 1080Q476 1173 508 1217Q559 1288 559 1346T520 1446T407 1488Q313 1488 240 1390Q215 1358 204 1326Q183 1268 151 1268Q140 1268
126 1277T111 1313V1481Q199 1554 356 1580Q401 1587 460 1587T580 1570T682 1521Q766 1459 766 1359Q766 1255 620 1129Q573 1088 496 1028Q346 914 282 802H458Q563 802 601 812Q667 828 711 874Q739 900 757 900Q765 900 776 894T787 876T778 840L733 714Q720
676 711 639H139Z" />
<glyph unicode="&#xb3;" glyph-name="threesuperior" horiz-adv-x="860" d="M135 708V876Q135 903 149 912T175 922T201 910T223 875Q244 807 299 767T412 727T500 740T552 775Q594 819 594 873T581 969T544 1041Q490 1109 406 1109L331 1095Q298 1095 298 1125Q298
1152 386 1187Q497 1235 531 1315Q542 1341 542 1381T507 1453T410 1485T305 1444T238 1335Q231 1315 216 1302T190 1288Q179 1288 165 1297T150 1334V1502Q276 1587 449 1587Q576 1587 660 1534Q747 1479 747 1386Q747 1295 636 1218Q603 1195 566 1178Q719 1144
774 1020Q793 979 793 920T766 805T689 708Q584 624 424 624T135 708Z" />
<glyph unicode="&#xb4;" glyph-name="acute" horiz-adv-x="644" d="M276 1220Q224 1190 207 1211Q193 1229 199 1243T214 1268L367 1476Q423 1552 455 1572Q499 1600 542 1601T614 1581T643 1530T641 1482T622 1443Q593 1402 511 1355L276 1220Z" />
<glyph unicode="&#xb5;" glyph-name="mu" horiz-adv-x="1532" d="M516 -317Q580 -372 580 -433Q580 -472 556 -492Q515 -526 473 -526T394 -507T328 -434Q263 -317 263 -39V676Q263 849 250 889T216 943T159 956L131 952Q119 949 103 949T76 957T65 978Q65 1032
164 1032Q180 1032 202 1031T246 1028T287 1025T318 1023L429 1029Q471 1029 483 1007Q501 971 501 877V376Q501 257 580 178Q661 97 775 97T982 168V675Q982 849 969 890T935 943T878 956L850 952Q838 949 822 949T795 957T785 978Q785 1032 883 1032Q899 1032
921 1030L966 1028Q988 1026 1007 1025T1038 1023L1148 1029Q1190 1029 1201 1006Q1220 970 1220 876V354Q1220 178 1233 139T1267 86T1324 73L1352 78Q1364 81 1380 81T1407 72T1418 47T1398 14T1340 -3T1280 -2T1236 1T1195 4T1164 6L1054 0Q1005 0 992 59Q873
-24 723 -24T456 56Q419 -62 419 -164Q419 -216 439 -243T478 -285L517 -317H516Z" />
<glyph unicode="&#xb6;" glyph-name="paragraph" horiz-adv-x="1537" d="M483 -3Q384 -3 384 50Q384 62 394 71T420 81L498 72Q565 72 586 120Q609 176 609 353V787Q540 772 462 772T296 799T143 880Q3 993 3 1187Q3 1346 118 1454Q251 1577 486 1577Q609 1577
637 1571T691 1563T747 1560Q797 1557 840 1557V0Q822 0 792 1L729 3Q697 4 669 5T628 6L483 -3ZM1452 1488L1387 1494Q1293 1494 1280 1352Q1275 1305 1275 1244V0H1045V1557Q1079 1557 1124 1560L1310 1570Q1357 1572 1390 1572T1442 1567T1470 1554Q1490 1541
1490 1520Q1490 1488 1452 1488Z" />
<glyph unicode="&#xb7;" glyph-name="middot" horiz-adv-x="684" d="M191 554T181 583T171 642T183 703T220 758Q270 810 346 810Q424 810 471 753Q512 703 512 635Q512 576 466 528Q414 475 356 475T265 490T212 530Z" />
<glyph unicode="&#xb8;" glyph-name="cedilla" horiz-adv-x="670" d="M373 29L326 -157H342Q497 -157 562 -252Q582 -282 582 -319T559 -394T498 -461Q411 -526 310 -526Q176 -526 104 -466Q78 -445 78 -420T93 -376T132 -357Q175 -357 212 -392Q269 -448 356
-448Q392 -448 409 -424Q437 -386 437 -341T404 -267T325 -237Q254 -237 205 -256L268 46L373 29Z" />
<glyph unicode="&#xb9;" glyph-name="onesuperior" horiz-adv-x="689" d="M355 649L160 639Q128 639 112 656T95 688T103 716T129 731Q129 731 194 724Q254 724 254 875V1211Q254 1358 201 1358L107 1338Q96 1338 88 1352T79 1377T94 1405T161 1437T259 1481T336
1532L390 1574Q411 1591 426 1591Q466 1591 466 1567L458 1390V875Q458 724 519 724L574 731Q591 731 599 717T608 688T592 657T542 639L355 649Z" />
<glyph unicode="&#xba;" glyph-name="ordmasculine" horiz-adv-x="1193" d="M592 745Q475 745 389 784T250 884Q151 998 151 1165Q151 1338 280 1462Q411 1587 598 1587Q812 1587 934 1458Q1042 1344 1042 1180Q1042 990 929 871Q809 745 592 745ZM498 899T545
870T634 840T707 855T759 900Q806 966 806 1080T785 1271T730 1396Q662 1491 558 1491Q430 1491 392 1336Q381 1289 381 1218T403 1075T461 951Z" />
<glyph unicode="&#xbb;" glyph-name="guillemotright" horiz-adv-x="1364" d="M570 409T621 446T696 497T728 516T736 533Q736 549 704 566T619 619T508 702Q365 818 291 922L269 952Q246 981 234 981T205 973T189 943T207 873T258 769Q332 639 432 533Q330 424
278 331Q189 176 189 120Q189 101 205 93T231 85T246 88T256 98T268 116T307 164T397 256T512 360ZM1147 409T1198 446T1273 497T1305 516T1313 533Q1313 549 1281 566T1196 619T1085 702Q942 818 868 922L846 952Q823 981 811 981T782 973T766 943T784 873T835
769Q909 639 1009 533Q907 424 855 331Q766 176 766 120Q766 101 782 93T808 85T823 88T833 98T845 116T884 164T974 256T1089 360Z" />
<glyph unicode="&#xbc;" glyph-name="onequarter" horiz-adv-x="2043" d="M414 -24T398 -8T381 31T398 81T454 158L1496 1495Q1556 1574 1584 1584Q1594 1587 1613 1587T1650 1572T1669 1535Q1669 1499 1618 1433L539 47Q485 -24 450 -24ZM1482 86Q1547 86 1547
216V258H1171Q1142 258 1131 272Q1114 291 1114 304Q1114 330 1145 364L1633 924Q1669 965 1692 967Q1746 970 1746 915V377H1802Q1868 377 1935 422Q1941 426 1948 426Q1969 426 1969 408T1928 285Q1916 258 1883 258H1746V216Q1746 145 1759 116T1807 86L1861
93Q1878 93 1887 78T1896 50T1880 18T1831 0L1643 10L1458 0Q1426 0 1410 18T1393 49T1401 78T1427 93L1482 86ZM1547 377V673L1289 377H1547ZM377 649L182 639Q150 639 134 656T117 688T125 716T151 731L216 724Q276 724 276 875V1211Q276 1358 223 1358L129 1338Q118
1338 110 1352T101 1377T116 1405T183 1437T281 1481T358 1532L412 1574Q433 1591 448 1591Q488 1591 488 1567L480 1390V875Q480 724 541 724L596 731Q613 731 621 717T630 688T614 657T564 639L377 649Z" />
<glyph unicode="&#xbd;" glyph-name="onehalf" horiz-adv-x="2059" d="M414 -24T398 -8T382 31T399 81T454 158L1496 1495Q1556 1574 1584 1584Q1595 1587 1614 1587T1651 1572T1669 1535Q1669 1499 1618 1433L539 47Q485 -24 450 -24ZM377 649L182 639Q150 639
134 656T117 688T125 716T151 731L216 724Q276 724 276 875V1211Q276 1358 223 1358L129 1338Q118 1338 110 1352T101 1377T116 1405T183 1437T281 1481T358 1532L412 1574Q433 1591 448 1591Q488 1591 488 1567L480 1390V875Q480 724 541 724L596 731Q613 731
621 717T630 688T614 657T564 639L377 649ZM1346 -2Q1311 -2 1311 33T1321 108T1360 196Q1423 303 1578 439Q1683 532 1715 576Q1766 647 1766 705T1727 805T1614 847Q1520 847 1446 750Q1422 717 1410 685Q1390 627 1358 627Q1347 627 1333 636T1318 672V840Q1406
913 1562 938Q1608 946 1667 946T1787 929T1890 880Q1973 818 1973 718Q1973 614 1828 488Q1780 447 1702 388Q1553 273 1489 161H1665Q1770 161 1808 170Q1874 187 1918 233Q1946 259 1964 259Q1972 259 1983 253T1994 235T1986 200L1940 72Q1927 35 1918 -2H1346Z"
/>
<glyph unicode="&#xbe;" glyph-name="threequarters" horiz-adv-x="2035" d="M459 -24T443 -8T426 31Q426 67 498 158L1540 1495Q1600 1574 1628 1584Q1639 1587 1658 1587T1695 1572T1714 1535Q1714 1499 1663 1433L584 47Q530 -24 495 -24ZM1474 86Q1539 86
1539 216V258H1163Q1134 258 1123 272Q1106 291 1106 304Q1106 330 1137 364L1625 924Q1661 965 1684 967Q1738 970 1738 915V377H1794Q1860 377 1927 422Q1933 426 1940 426Q1961 426 1961 408T1920 285Q1908 258 1875 258H1738V216Q1738 145 1751 116T1799 86L1853
93Q1870 93 1879 78T1888 50T1872 18T1823 0L1635 10L1450 0Q1418 0 1402 18T1385 49T1393 78T1419 93L1474 86ZM1539 377V673L1281 377H1539ZM135 708V876Q135 903 149 912T175 922T201 910T223 875Q244 807 299 767T412 727T500 740T552 775Q594 819 594 873T581
969T544 1041Q490 1109 406 1109L331 1095Q298 1095 298 1125Q298 1152 386 1187Q497 1235 531 1315Q542 1341 542 1381T507 1453T410 1485T305 1444T238 1335Q231 1315 216 1302T190 1288Q179 1288 165 1297T150 1334V1502Q276 1587 449 1587Q576 1587 660 1534Q747
1479 747 1386Q747 1295 636 1218Q603 1195 566 1178Q719 1144 774 1020Q793 979 793 920T766 805T689 708Q584 624 424 624T135 708Z" />
<glyph unicode="&#xbf;" glyph-name="questiondown" horiz-adv-x="1034" d="M442 562Q442 614 511 614Q565 614 594 585Q649 532 649 459Q649 320 459 91Q319 -77 319 -215Q319 -359 447 -395Q486 -406 533 -406Q629 -406 702 -341T809 -151Q813 -131 827 -112T857
-92Q895 -92 895 -140V-421Q712 -525 507 -525Q289 -525 176 -438Q73 -358 73 -225Q73 -62 242 106Q297 162 374 226Q550 371 550 463Q550 487 533 496T496 511T459 526T442 562ZM657 1018T666 993T675 942T664 889T633 842Q590 797 539 797T461 811T416 846Q380
890 380 934T392 1003T424 1048Q467 1086 516 1086T593 1073T639 1039Z" />
<glyph unicode="&#xc0;" glyph-name="Agrave" horiz-adv-x="1707" d="M196 0L53 -15Q11 -15 -9 5T-30 43Q-30 89 9 89L58 83Q104 83 132 118Q182 182 268 367L804 1526Q833 1588 844 1594T865 1601T885 1594T909 1566Q935 1527 979 1430L1508 275Q1559 164 1591
131Q1638 83 1678 83L1728 90Q1748 90 1757 76T1766 42T1746 4T1680 -15L1483 0L1235 -15Q1162 -15 1140 26Q1135 37 1135 46Q1135 89 1172 89L1244 80Q1305 80 1305 115Q1305 157 1264 246L1195 378Q1181 407 1156 421T1077 436H553Q450 436 423 372L394 286Q341
161 339 127Q339 83 411 83L461 90Q478 90 488 77T499 43T474 4T397 -15L196 0ZM986 564Q1098 564 1098 591Q1098 597 1090 615L875 1139Q838 1233 821 1233Q803 1233 774 1164L542 634Q528 603 528 591Q528 564 639 564H986ZM977 1669T970 1659T950 1649Q933 1649
901 1665L665 1775Q554 1832 534 1890Q528 1910 528 1939T554 1992T609 2016T660 2011T703 1993Q746 1967 801 1901L959 1714Q977 1689 977 1678Q977 1669 970 1659Z" />
<glyph unicode="&#xc1;" glyph-name="Aacute" horiz-adv-x="1707" d="M196 0L53 -15Q11 -15 -9 5T-30 43Q-30 89 9 89L58 83Q104 83 132 118Q182 182 268 367L804 1526Q833 1588 844 1594T865 1601T885 1594T909 1566Q935 1527 979 1430L1508 275Q1559 164 1591
131Q1638 83 1678 83L1728 90Q1748 90 1757 76T1766 42T1746 4T1680 -15L1483 0L1235 -15Q1162 -15 1140 26Q1135 37 1135 46Q1135 89 1172 89L1244 80Q1305 80 1305 115Q1305 157 1264 246L1195 378Q1181 407 1156 421T1077 436H553Q450 436 423 372L394 286Q341
161 339 127Q339 83 411 83L461 90Q478 90 488 77T499 43T474 4T397 -15L196 0ZM986 564Q1098 564 1098 591Q1098 597 1090 615L875 1139Q838 1233 821 1233Q803 1233 774 1164L542 634Q528 603 528 591Q528 564 639 564H986ZM804 1665Q772 1649 757 1649T735 1659T728
1678Q728 1691 745 1714L904 1901Q982 1998 1044 2012Q1065 2016 1095 2016T1151 1993T1177 1928Q1177 1848 1040 1775L804 1665Z" />
<glyph unicode="&#xc2;" glyph-name="Acircumflex" horiz-adv-x="1707" d="M196 0L53 -15Q11 -15 -9 5T-30 43Q-30 89 9 89L58 83Q104 83 132 118Q182 182 268 367L804 1526Q833 1588 844 1594T865 1601T885 1594T909 1566Q935 1527 979 1430L1508 275Q1559 164
1591 131Q1638 83 1678 83L1728 90Q1748 90 1757 76T1766 42T1746 4T1680 -15L1483 0L1235 -15Q1162 -15 1140 26Q1135 37 1135 46Q1135 89 1172 89L1244 80Q1305 80 1305 115Q1305 157 1264 246L1195 378Q1181 407 1156 421T1077 436H553Q450 436 423 372L394
286Q341 161 339 127Q339 83 411 83L461 90Q478 90 488 77T499 43T474 4T397 -15L196 0ZM986 564Q1098 564 1098 591Q1098 597 1090 615L875 1139Q838 1233 821 1233Q803 1233 774 1164L542 634Q528 603 528 591Q528 564 639 564H986ZM1165 1634Q1142 1634 1108
1656L850 1811L595 1656Q558 1632 541 1633T516 1644T508 1663Q508 1683 526 1705L743 1941Q800 2009 819 2014T854 2020Q891 2020 961 1941L1178 1705Q1191 1690 1193 1662T1165 1634Z" />
<glyph unicode="&#xc3;" glyph-name="Atilde" horiz-adv-x="1707" d="M196 0L53 -15Q11 -15 -9 5T-30 43Q-30 89 9 89L58 83Q104 83 132 118Q182 182 268 367L804 1526Q833 1588 844 1594T865 1601T885 1594T909 1566Q935 1527 979 1430L1508 275Q1559 164 1591
131Q1638 83 1678 83L1728 90Q1748 90 1757 76T1766 42T1746 4T1680 -15L1483 0L1235 -15Q1162 -15 1140 26Q1135 37 1135 46Q1135 89 1172 89L1244 80Q1305 80 1305 115Q1305 157 1264 246L1195 378Q1181 407 1156 421T1077 436H553Q450 436 423 372L394 286Q341
161 339 127Q339 83 411 83L461 90Q478 90 488 77T499 43T474 4T397 -15L196 0ZM986 564Q1098 564 1098 591Q1098 597 1090 615L875 1139Q838 1233 821 1233Q803 1233 774 1164L542 634Q528 603 528 591Q528 564 639 564H986ZM1204 1938Q1232 1938 1232 1904Q1232
1832 1148 1743Q1076 1668 1000 1668Q959 1668 873 1701T753 1746Q673 1774 644 1774Q591 1774 551 1712Q522 1670 497 1670T471 1704Q471 1776 556 1866Q625 1940 718 1940Q796 1940 881 1899T1004 1846T1065 1834Q1111 1834 1153 1896Q1183 1938 1204 1938Z"
/>
<glyph unicode="&#xc4;" glyph-name="Adieresis" horiz-adv-x="1707" d="M196 0L53 -15Q11 -15 -9 5T-30 43Q-30 89 9 89L58 83Q104 83 132 118Q182 182 268 367L804 1526Q833 1588 844 1594T865 1601T885 1594T909 1566Q935 1527 979 1430L1508 275Q1559 164
1591 131Q1638 83 1678 83L1728 90Q1748 90 1757 76T1766 42T1746 4T1680 -15L1483 0L1235 -15Q1162 -15 1140 26Q1135 37 1135 46Q1135 89 1172 89L1244 80Q1305 80 1305 115Q1305 157 1264 246L1195 378Q1181 407 1156 421T1077 436H553Q450 436 423 372L394
286Q341 161 339 127Q339 83 411 83L461 90Q478 90 488 77T499 43T474 4T397 -15L196 0ZM986 564Q1098 564 1098 591Q1098 597 1090 615L875 1139Q838 1233 821 1233Q803 1233 774 1164L542 634Q528 603 528 591Q528 564 639 564H986ZM1228 1694T1201 1681T1136
1668T1071 1681T1025 1716Q990 1758 990 1805T1001 1880T1031 1928Q1073 1972 1125 1972T1206 1959T1252 1924Q1288 1880 1288 1835T1278 1763T1248 1715ZM653 1694T626 1681T561 1668T496 1681T450 1716Q416 1757 416 1804T427 1880T457 1928Q499 1972 551 1972T631
1959T677 1924Q714 1881 714 1835T703 1763T673 1715Z" />
<glyph unicode="&#xc5;" glyph-name="Aring" horiz-adv-x="1707" d="M196 0L53 -15Q11 -15 -9 5T-30 43Q-30 89 9 89L58 83Q104 83 132 118Q182 182 268 367L804 1526Q833 1588 844 1594T865 1601T885 1594T909 1566Q935 1527 979 1430L1508 275Q1559 164 1591
131Q1638 83 1678 83L1728 90Q1748 90 1757 76T1766 42T1746 4T1680 -15L1483 0L1235 -15Q1162 -15 1140 26Q1135 37 1135 46Q1135 89 1172 89L1244 80Q1305 80 1305 115Q1305 157 1264 246L1195 378Q1181 407 1156 421T1077 436H553Q450 436 423 372L394 286Q341
161 339 127Q339 83 411 83L461 90Q478 90 488 77T499 43T474 4T397 -15L196 0ZM986 564Q1098 564 1098 591Q1098 597 1090 615L875 1139Q838 1233 821 1233Q803 1233 774 1164L542 634Q528 603 528 591Q528 564 639 564H986ZM853 1513Q798 1513 751 1531T667 1582Q591
1652 591 1760Q591 1866 667 1938Q743 2010 853 2010Q961 2010 1038 1939T1115 1760Q1115 1651 1038 1582Q962 1513 853 1513ZM770 1637T796 1626T851 1614T907 1623T953 1652Q994 1691 994 1760Q994 1859 909 1894Q882 1905 850 1905T791 1894T746 1862Q709 1821
709 1776T720 1704T750 1657Z" />
<glyph unicode="&#xc6;" glyph-name="AE" horiz-adv-x="2079" d="M219 0L11 15Q-37 15 -83 8T-166 0T-221 19T-240 55T-229 88T-195 104L-148 98Q-95 98 -48 132Q46 201 188 401L868 1362Q901 1409 901 1431T877 1457T822 1461L772 1455Q754 1455 744 1468T734
1493T738 1517T754 1537Q779 1559 824 1559T901 1557T966 1551Q1052 1543 1124 1543H1881Q1891 1464 1917 1377L1954 1254Q1964 1218 1964 1205Q1964 1176 1942 1176Q1924 1176 1898 1208T1839 1278T1762 1346Q1663 1414 1529 1414H1259Q1206 1414 1186 1391T1166
1325V916Q1166 863 1253 863H1502Q1571 863 1629 933Q1649 957 1659 980T1675 1012T1693 1020Q1725 1020 1725 964L1717 803Q1717 758 1721 718V712Q1725 680 1725 635T1693 589Q1681 589 1676 597T1660 628T1630 674T1586 710Q1546 734 1502 734H1252Q1211 734
1189 716T1166 672V264Q1166 129 1259 129H1469Q1717 129 1858 240Q1899 273 1934 308L1972 346Q2005 379 2017 381T2035 384Q2059 384 2059 361T2022 272Q1952 151 1900 0H1065Q1026 0 996 -2L880 -12Q849 -15 816 -15T764 -9T735 7Q715 23 715 42T725 75T753
90L818 83Q873 83 888 107T910 152T922 203Q930 260 930 381V466H477Q407 466 377 430Q367 418 356 402L209 193Q182 155 181 135Q181 98 246 98L297 105Q312 105 321 93T330 61T302 21T219 0ZM522 564H930V1263L495 633Q474 604 474 584T522 564Z" />
<glyph unicode="&#xc7;" glyph-name="Ccedilla" horiz-adv-x="1667" d="M1546 208Q1303 -23 943 -23Q935 -23 927 -23T911 -22L879 -152H895Q1050 -152 1115 -248Q1135 -277 1135 -314T1112 -389T1050 -456Q964 -521 863 -521Q729 -521 657 -462Q631 -440 631
-415T646 -371T685 -352Q728 -352 764 -388Q822 -443 909 -443Q945 -443 962 -420Q990 -381 990 -336T957 -262T878 -232Q807 -232 758 -251L807 -14Q480 27 286 249Q99 463 99 764Q99 1139 338 1368Q571 1592 932 1592Q1102 1592 1259 1516Q1288 1502 1312 1502T1375
1542T1429 1595T1458 1608Q1486 1608 1486 1564T1487 1489T1493 1430Q1501 1373 1518 1310Q1553 1175 1553 1150T1540 1115T1514 1104Q1482 1104 1468 1130Q1296 1446 879 1446Q775 1446 678 1400T504 1270Q336 1088 336 832Q336 505 540 308Q733 123 1027 123Q1259
123 1380 314Q1426 386 1454 498Q1470 561 1509 561Q1546 561 1546 497V208Z" />
<glyph unicode="&#xc8;" glyph-name="Egrave" horiz-adv-x="1440" d="M555 264Q555 129 649 129H858Q1105 129 1229 240Q1265 273 1297 308L1332 346Q1365 379 1376 381T1396 384Q1448 387 1389 272Q1329 152 1289 0H455Q414 0 384 -2L268 -12Q238 -15 205 -15T153
-9T124 7Q104 24 104 42T114 75T143 90L207 83Q276 83 300 144Q320 194 320 330V1233Q320 1366 302 1407T258 1463T192 1478L143 1472Q124 1472 114 1485T104 1511T108 1534T124 1554Q149 1576 193 1576T264 1574L316 1568Q389 1561 444 1561H1271Q1278 1488 1297
1407L1324 1294Q1331 1261 1331 1247Q1331 1219 1310 1219Q1297 1219 1262 1258L1202 1324Q1146 1383 1113 1398T1052 1420Q1002 1431 919 1431H649Q595 1431 575 1408T555 1342V916Q555 863 643 863H890Q960 863 1018 933Q1038 957 1048 980T1064 1012T1083 1020Q1115
1020 1115 964L1107 803L1115 634Q1115 578 1083 578Q1071 578 1065 586T1049 618T1019 665T976 704Q934 734 890 734H642Q600 734 578 716T555 672V264ZM887 1669T880 1659T860 1649Q843 1649 811 1665L575 1775Q464 1832 444 1890Q438 1910 438 1939T464 1992T519
2016T570 2011T613 1993Q656 1967 711 1901L869 1714Q887 1689 887 1678Q887 1669 880 1659Z" />
<glyph unicode="&#xc9;" glyph-name="Eacute" horiz-adv-x="1440" d="M555 264Q555 129 649 129H858Q1105 129 1229 240Q1265 273 1297 308L1332 346Q1365 379 1376 381T1396 384Q1448 387 1389 272Q1329 152 1289 0H455Q414 0 384 -2L268 -12Q238 -15 205 -15T153
-9T124 7Q104 24 104 42T114 75T143 90L207 83Q276 83 300 144Q320 194 320 330V1233Q320 1366 302 1407T258 1463T192 1478L143 1472Q124 1472 114 1485T104 1511T108 1534T124 1554Q149 1576 193 1576T264 1574L316 1568Q389 1561 444 1561H1271Q1278 1488 1297
1407L1324 1294Q1331 1261 1331 1247Q1331 1219 1310 1219Q1297 1219 1262 1258L1202 1324Q1146 1383 1113 1398T1052 1420Q1002 1431 919 1431H649Q595 1431 575 1408T555 1342V916Q555 863 643 863H890Q960 863 1018 933Q1038 957 1048 980T1064 1012T1083 1020Q1115
1020 1115 964L1107 803L1115 634Q1115 578 1083 578Q1071 578 1065 586T1049 618T1019 665T976 704Q934 734 890 734H642Q600 734 578 716T555 672V264ZM714 1665Q682 1649 667 1649T645 1659T638 1678Q638 1691 655 1714L814 1901Q892 1998 954 2012Q975 2016
1005 2016T1061 1993T1087 1928Q1087 1848 950 1775L714 1665Z" />
<glyph unicode="&#xca;" glyph-name="Ecircumflex" horiz-adv-x="1440" d="M555 264Q555 129 649 129H858Q1105 129 1229 240Q1265 273 1297 308L1332 346Q1365 379 1376 381T1396 384Q1448 387 1389 272Q1329 152 1289 0H455Q414 0 384 -2L268 -12Q238 -15 205
-15T153 -9T124 7Q104 24 104 42T114 75T143 90L207 83Q276 83 300 144Q320 194 320 330V1233Q320 1366 302 1407T258 1463T192 1478L143 1472Q124 1472 114 1485T104 1511T108 1534T124 1554Q149 1576 193 1576T264 1574L316 1568Q389 1561 444 1561H1271Q1278
1488 1297 1407L1324 1294Q1331 1261 1331 1247Q1331 1219 1310 1219Q1297 1219 1262 1258L1202 1324Q1146 1383 1113 1398T1052 1420Q1002 1431 919 1431H649Q595 1431 575 1408T555 1342V916Q555 863 643 863H890Q960 863 1018 933Q1038 957 1048 980T1064 1012T1083
1020Q1115 1020 1115 964L1107 803L1115 634Q1115 578 1083 578Q1071 578 1065 586T1049 618T1019 665T976 704Q934 734 890 734H642Q600 734 578 716T555 672V264ZM1075 1634Q1052 1634 1018 1656L760 1811L505 1656Q468 1632 451 1633T426 1644T418 1663Q418
1683 436 1705L653 1941Q710 2009 729 2014T764 2020Q801 2020 871 1941L1088 1705Q1101 1690 1103 1662T1075 1634Z" />
<glyph unicode="&#xcb;" glyph-name="Edieresis" horiz-adv-x="1440" d="M555 264Q555 129 649 129H858Q1105 129 1229 240Q1265 273 1297 308L1332 346Q1365 379 1376 381T1396 384Q1448 387 1389 272Q1329 152 1289 0H455Q414 0 384 -2L268 -12Q238 -15 205
-15T153 -9T124 7Q104 24 104 42T114 75T143 90L207 83Q276 83 300 144Q320 194 320 330V1233Q320 1366 302 1407T258 1463T192 1478L143 1472Q124 1472 114 1485T104 1511T108 1534T124 1554Q149 1576 193 1576T264 1574L316 1568Q389 1561 444 1561H1271Q1278
1488 1297 1407L1324 1294Q1331 1261 1331 1247Q1331 1219 1310 1219Q1297 1219 1262 1258L1202 1324Q1146 1383 1113 1398T1052 1420Q1002 1431 919 1431H649Q595 1431 575 1408T555 1342V916Q555 863 643 863H890Q960 863 1018 933Q1038 957 1048 980T1064 1012T1083
1020Q1115 1020 1115 964L1107 803L1115 634Q1115 578 1083 578Q1071 578 1065 586T1049 618T1019 665T976 704Q934 734 890 734H642Q600 734 578 716T555 672V264ZM1138 1694T1111 1681T1046 1668T981 1681T935 1716Q900 1758 900 1805T911 1880T941 1928Q983
1972 1035 1972T1116 1959T1162 1924Q1198 1880 1198 1835T1188 1763T1158 1715ZM563 1694T536 1681T471 1668T406 1681T360 1716Q326 1757 326 1804T337 1880T367 1928Q409 1972 461 1972T541 1959T587 1924Q624 1881 624 1835T613 1763T583 1715Z" />
<glyph unicode="&#xcc;" glyph-name="Igrave" horiz-adv-x="876" d="M668 84L733 90Q752 90 761 76T771 51T767 28T752 8Q726 -14 682 -14T607 -12T549 -7Q438 5 370 -2Q265 -14 219 -14T154 -8T124 8Q105 25 105 43T115 76T144 90L208 84Q276 84 299 138Q320
187 320 316V1245Q320 1375 304 1413T265 1465T208 1478L144 1472Q125 1472 115 1485T105 1511T109 1533T124 1554Q149 1576 194 1576T270 1574T328 1568L381 1564Q407 1561 438 1561T496 1564L549 1568Q630 1576 667 1576T723 1570T752 1554Q771 1536 771 1517Q771
1472 733 1472L668 1478Q600 1478 577 1424Q556 1375 556 1245V316Q556 187 572 149T611 97T668 84ZM554 1669T547 1659T527 1649Q510 1649 478 1665L242 1775Q131 1832 111 1890Q105 1910 105 1939T131 1992T186 2016T237 2011T280 1993Q323 1967 378 1901L536
1714Q554 1689 554 1678Q554 1669 547 1659Z" />
<glyph unicode="&#xcd;" glyph-name="Iacute" horiz-adv-x="876" d="M668 84L733 90Q752 90 761 76T771 51T767 28T752 8Q726 -14 682 -14T607 -12T549 -7Q438 5 370 -2Q265 -14 219 -14T154 -8T124 8Q105 25 105 43T115 76T144 90L208 84Q276 84 299 138Q320
187 320 316V1245Q320 1375 304 1413T265 1465T208 1478L144 1472Q125 1472 115 1485T105 1511T109 1533T124 1554Q149 1576 194 1576T270 1574T328 1568L381 1564Q407 1561 438 1561T496 1564L549 1568Q630 1576 667 1576T723 1570T752 1554Q771 1536 771 1517Q771
1472 733 1472L668 1478Q600 1478 577 1424Q556 1375 556 1245V316Q556 187 572 149T611 97T668 84ZM381 1665Q349 1649 334 1649T312 1659T305 1678Q305 1691 322 1714L481 1901Q559 1998 621 2012Q642 2016 672 2016T728 1993T754 1928Q754 1848 617 1775L381
1665Z" />
<glyph unicode="&#xce;" glyph-name="Icircumflex" horiz-adv-x="876" d="M668 84L733 90Q752 90 761 76T771 51T767 28T752 8Q726 -14 682 -14T607 -12T549 -7Q438 5 370 -2Q265 -14 219 -14T154 -8T124 8Q105 25 105 43T115 76T144 90L208 84Q276 84 299 138Q320
187 320 316V1245Q320 1375 304 1413T265 1465T208 1478L144 1472Q125 1472 115 1485T105 1511T109 1533T124 1554Q149 1576 194 1576T270 1574T328 1568L381 1564Q407 1561 438 1561T496 1564L549 1568Q630 1576 667 1576T723 1570T752 1554Q771 1536 771 1517Q771
1472 733 1472L668 1478Q600 1478 577 1424Q556 1375 556 1245V316Q556 187 572 149T611 97T668 84ZM999 1634Q976 1634 942 1656L684 1811L429 1656Q392 1632 375 1633T350 1644T342 1663Q342 1683 360 1705L577 1941Q634 2009 653 2014T688 2020Q725 2020 795
1941L1012 1705Q1025 1690 1027 1662T999 1634Z" />
<glyph unicode="&#xcf;" glyph-name="Idieresis" horiz-adv-x="876" d="M668 84L733 90Q752 90 761 76T771 51T767 28T752 8Q726 -14 682 -14T607 -12T549 -7Q438 5 370 -2Q265 -14 219 -14T154 -8T124 8Q105 25 105 43T115 76T144 90L208 84Q276 84 299 138Q320
187 320 316V1245Q320 1375 304 1413T265 1465T208 1478L144 1472Q125 1472 115 1485T105 1511T109 1533T124 1554Q149 1576 194 1576T270 1574T328 1568L381 1564Q407 1561 438 1561T496 1564L549 1568Q630 1576 667 1576T723 1570T752 1554Q771 1536 771 1517Q771
1472 733 1472L668 1478Q600 1478 577 1424Q556 1375 556 1245V316Q556 187 572 149T611 97T668 84ZM1062 1694T1035 1681T970 1668T905 1681T859 1716Q824 1758 824 1805T835 1880T865 1928Q907 1972 959 1972T1040 1959T1086 1924Q1122 1880 1122 1835T1112 1763T1082
1715ZM487 1694T460 1681T395 1668T330 1681T284 1716Q250 1757 250 1804T261 1880T291 1928Q333 1972 385 1972T465 1959T511 1924Q548 1881 548 1835T537 1763T507 1715Z" />
<glyph unicode="&#xd0;" glyph-name="Eth" horiz-adv-x="1838" d="M193 1477L143 1471Q124 1471 114 1484T104 1510T108 1533T124 1553Q151 1575 195 1575T268 1573T322 1568Q383 1561 446 1561T560 1566T660 1576Q798 1592 874 1592Q1337 1592 1576 1368Q1799
1159 1799 785Q1799 554 1676 366Q1559 186 1352 81Q1144 -24 891 -24Q772 -24 684 -16L549 -4Q502 0 457 0T385 -2T329 -8Q254 -16 213 -16T153 -10T124 6Q104 22 104 41Q104 88 143 88L208 82Q276 82 299 136Q320 185 320 314V716H197Q162 716 141 726T120 764T125
801T142 816Q156 823 200 823H320V1232Q320 1363 302 1405T258 1462T193 1477ZM559 269Q559 184 624 154Q689 125 863 125T1160 156T1367 261Q1541 412 1541 763Q1541 1105 1356 1280Q1180 1446 851 1446Q702 1446 650 1428T579 1388T559 1331V823H895Q956 823
969 798Q975 786 975 760T954 725T896 716H559V269Z" />
<glyph unicode="&#xd1;" glyph-name="Ntilde" horiz-adv-x="1766" d="M552 -15L361 0Q340 0 320 -2L278 -8Q214 -15 183 -15T133 -9T104 7Q84 23 84 42Q84 89 123 89L187 83Q254 83 274 137Q290 178 290 315L291 1189Q291 1253 257 1315T184 1419T108 1478Q50
1506 50 1537Q50 1547 63 1561T109 1575L372 1561L1440 390V1246Q1440 1376 1423 1415T1384 1467T1327 1480L1254 1473Q1236 1473 1226 1487T1215 1512T1220 1534T1236 1554Q1262 1577 1311 1577L1502 1562Q1524 1562 1544 1564L1584 1570Q1647 1577 1679 1577T1730
1571T1760 1554Q1779 1537 1779 1519T1769 1487T1742 1473L1676 1480Q1610 1480 1590 1426Q1574 1385 1574 1246L1571 142Q1571 65 1585 46T1610 19Q1624 9 1624 -9Q1624 -39 1591 -39Q1554 -39 1482 11L424 1158V315Q424 186 440 148T479 96T536 83L610 89Q629
89 639 75T649 50T644 27T628 7Q601 -15 552 -15ZM1285 1938Q1313 1938 1313 1904Q1313 1832 1229 1743Q1157 1668 1081 1668Q1040 1668 954 1701T834 1746Q754 1774 725 1774Q672 1774 632 1712Q603 1670 578 1670T552 1704Q552 1776 637 1866Q706 1940 799 1940Q877
1940 962 1899T1085 1846T1146 1834Q1192 1834 1234 1896Q1264 1938 1285 1938Z" />
<glyph unicode="&#xd2;" glyph-name="Ograve" horiz-adv-x="1847" d="M99 792Q99 936 158 1090T328 1356Q562 1592 950 1592Q1175 1592 1362 1482Q1538 1377 1642 1196Q1747 1014 1747 802Q1747 547 1630 354Q1523 175 1328 74Q1141 -23 912 -23Q672 -23 482 84Q99
297 99 792ZM320 902Q320 775 348 667T426 472T544 321T690 213Q848 127 1026 127Q1231 127 1360 256Q1501 399 1501 662Q1501 1010 1299 1232Q1105 1445 836 1445Q613 1445 470 1300Q320 1149 320 902ZM1026 1669T1019 1659T999 1649Q982 1649 950 1665L714 1775Q603
1832 583 1890Q577 1910 577 1939T603 1992T658 2016T709 2011T752 1993Q795 1967 850 1901L1008 1714Q1026 1689 1026 1678Q1026 1669 1019 1659Z" />
<glyph unicode="&#xd3;" glyph-name="Oacute" horiz-adv-x="1847" d="M99 792Q99 936 158 1090T328 1356Q562 1592 950 1592Q1175 1592 1362 1482Q1538 1377 1642 1196Q1747 1014 1747 802Q1747 547 1630 354Q1523 175 1328 74Q1141 -23 912 -23Q672 -23 482 84Q99
297 99 792ZM320 902Q320 775 348 667T426 472T544 321T690 213Q848 127 1026 127Q1231 127 1360 256Q1501 399 1501 662Q1501 1010 1299 1232Q1105 1445 836 1445Q613 1445 470 1300Q320 1149 320 902ZM853 1665Q821 1649 806 1649T784 1659T777 1678Q777 1691
794 1714L953 1901Q1031 1998 1093 2012Q1114 2016 1144 2016T1200 1993T1226 1928Q1226 1848 1089 1775L853 1665Z" />
<glyph unicode="&#xd4;" glyph-name="Ocircumflex" horiz-adv-x="1847" d="M99 792Q99 936 158 1090T328 1356Q562 1592 950 1592Q1175 1592 1362 1482Q1538 1377 1642 1196Q1747 1014 1747 802Q1747 547 1630 354Q1523 175 1328 74Q1141 -23 912 -23Q672 -23
482 84Q99 297 99 792ZM320 902Q320 775 348 667T426 472T544 321T690 213Q848 127 1026 127Q1231 127 1360 256Q1501 399 1501 662Q1501 1010 1299 1232Q1105 1445 836 1445Q613 1445 470 1300Q320 1149 320 902ZM1214 1634Q1191 1634 1157 1656L899 1811L644
1656Q607 1632 590 1633T565 1644T557 1663Q557 1683 575 1705L792 1941Q849 2009 868 2014T903 2020Q940 2020 1010 1941L1227 1705Q1240 1690 1242 1662T1214 1634Z" />
<glyph unicode="&#xd5;" glyph-name="Otilde" horiz-adv-x="1847" d="M99 792Q99 936 158 1090T328 1356Q562 1592 950 1592Q1175 1592 1362 1482Q1538 1377 1642 1196Q1747 1014 1747 802Q1747 547 1630 354Q1523 175 1328 74Q1141 -23 912 -23Q672 -23 482 84Q99
297 99 792ZM320 902Q320 775 348 667T426 472T544 321T690 213Q848 127 1026 127Q1231 127 1360 256Q1501 399 1501 662Q1501 1010 1299 1232Q1105 1445 836 1445Q613 1445 470 1300Q320 1149 320 902ZM1253 1938Q1281 1938 1281 1904Q1281 1832 1197 1743Q1125
1668 1049 1668Q1008 1668 922 1701T802 1746Q722 1774 693 1774Q640 1774 600 1712Q571 1670 546 1670T520 1704Q520 1776 605 1866Q674 1940 767 1940Q845 1940 930 1899T1053 1846T1114 1834Q1160 1834 1202 1896Q1232 1938 1253 1938Z" />
<glyph unicode="&#xd6;" glyph-name="Odieresis" horiz-adv-x="1847" d="M99 792Q99 936 158 1090T328 1356Q562 1592 950 1592Q1175 1592 1362 1482Q1538 1377 1642 1196Q1747 1014 1747 802Q1747 547 1630 354Q1523 175 1328 74Q1141 -23 912 -23Q672 -23 482
84Q99 297 99 792ZM320 902Q320 775 348 667T426 472T544 321T690 213Q848 127 1026 127Q1231 127 1360 256Q1501 399 1501 662Q1501 1010 1299 1232Q1105 1445 836 1445Q613 1445 470 1300Q320 1149 320 902ZM1277 1694T1250 1681T1185 1668T1120 1681T1074 1716Q1039
1758 1039 1805T1050 1880T1080 1928Q1122 1972 1174 1972T1255 1959T1301 1924Q1337 1880 1337 1835T1327 1763T1297 1715ZM702 1694T675 1681T610 1668T545 1681T499 1716Q465 1757 465 1804T476 1880T506 1928Q548 1972 600 1972T680 1959T726 1924Q763 1881
763 1835T752 1763T722 1715Z" />
<glyph unicode="&#xd7;" glyph-name="multiply" horiz-adv-x="1193" d="M154 319L489 653L146 997L255 1106L598 762L933 1096L1039 990L704 656L1047 313L938 204L595 547L260 213L154 319Z" />
<glyph unicode="&#xd8;" glyph-name="Oslash" horiz-adv-x="1850" d="M1386 92T1235 37T891 -18T524 60L379 -155Q344 -206 302 -206Q279 -206 263 -192T246 -157Q246 -121 280 -72L412 122Q264 223 184 383T103 737T162 1086T332 1356Q567 1597 953 1597Q1169
1597 1344 1498L1481 1699Q1516 1752 1548 1752Q1612 1752 1612 1703Q1612 1667 1574 1614L1449 1428Q1666 1258 1730 988Q1751 900 1751 807Q1751 609 1684 456T1501 197ZM1225 1322Q1046 1476 840 1476Q620 1476 474 1318Q324 1157 324 911Q324 552 546 321L1225
1322ZM644 237Q823 107 1030 107Q1232 107 1364 248Q1505 401 1505 667Q1505 991 1314 1228L644 237Z" />
<glyph unicode="&#xd9;" glyph-name="Ugrave" horiz-adv-x="1874" d="M1411 -6Q1348 -6 1339 115Q1138 -23 908 -23Q601 -23 436 131Q272 283 272 557V1245Q272 1374 255 1413T216 1465T159 1478L94 1472Q76 1472 66 1485T56 1511T60 1533T76 1554Q100 1576 144
1576T220 1574T278 1568L332 1564Q358 1561 389 1561Q420 1561 446 1564L499 1568Q580 1576 618 1576T674 1570T702 1554Q722 1536 722 1518T712 1486T685 1472L619 1478Q550 1478 527 1424Q507 1377 507 1245V538Q507 337 627 228Q740 126 950 126T1338 277V1245Q1338
1375 1322 1413T1283 1465T1226 1478L1161 1472Q1143 1472 1133 1485T1123 1511T1127 1533T1143 1554Q1169 1576 1213 1576T1288 1574T1346 1568L1399 1564Q1425 1561 1456 1561T1514 1564L1567 1568Q1648 1576 1685 1576T1741 1570T1770 1554Q1789 1536 1789 1517Q1789
1472 1752 1472L1686 1478Q1590 1478 1578 1346Q1574 1303 1574 1245L1577 355Q1577 182 1590 143T1623 92T1672 79T1715 85T1742 91T1765 80T1776 57T1772 35T1756 14Q1728 -9 1694 -9T1638 -8L1594 -4Q1572 -3 1553 -2T1521 0L1411 -6ZM1040 1669T1033 1659T1013
1649Q996 1649 964 1665L728 1775Q617 1832 597 1890Q591 1910 591 1939T617 1992T672 2016T723 2011T766 1993Q809 1967 864 1901L1022 1714Q1040 1689 1040 1678Q1040 1669 1033 1659Z" />
<glyph unicode="&#xda;" glyph-name="Uacute" horiz-adv-x="1874" d="M1411 -6Q1348 -6 1339 115Q1138 -23 908 -23Q601 -23 436 131Q272 283 272 557V1245Q272 1374 255 1413T216 1465T159 1478L94 1472Q76 1472 66 1485T56 1511T60 1533T76 1554Q100 1576 144
1576T220 1574T278 1568L332 1564Q358 1561 389 1561Q420 1561 446 1564L499 1568Q580 1576 618 1576T674 1570T702 1554Q722 1536 722 1518T712 1486T685 1472L619 1478Q550 1478 527 1424Q507 1377 507 1245V538Q507 337 627 228Q740 126 950 126T1338 277V1245Q1338
1375 1322 1413T1283 1465T1226 1478L1161 1472Q1143 1472 1133 1485T1123 1511T1127 1533T1143 1554Q1169 1576 1213 1576T1288 1574T1346 1568L1399 1564Q1425 1561 1456 1561T1514 1564L1567 1568Q1648 1576 1685 1576T1741 1570T1770 1554Q1789 1536 1789 1517Q1789
1472 1752 1472L1686 1478Q1590 1478 1578 1346Q1574 1303 1574 1245L1577 355Q1577 182 1590 143T1623 92T1672 79T1715 85T1742 91T1765 80T1776 57T1772 35T1756 14Q1728 -9 1694 -9T1638 -8L1594 -4Q1572 -3 1553 -2T1521 0L1411 -6ZM867 1665Q835 1649 820
1649T798 1659T791 1678Q791 1691 808 1714L967 1901Q1045 1998 1107 2012Q1128 2016 1158 2016T1214 1993T1240 1928Q1240 1848 1103 1775L867 1665Z" />
<glyph unicode="&#xdb;" glyph-name="Ucircumflex" horiz-adv-x="1874" d="M1411 -6Q1348 -6 1339 115Q1138 -23 908 -23Q601 -23 436 131Q272 283 272 557V1245Q272 1374 255 1413T216 1465T159 1478L94 1472Q76 1472 66 1485T56 1511T60 1533T76 1554Q100 1576
144 1576T220 1574T278 1568L332 1564Q358 1561 389 1561Q420 1561 446 1564L499 1568Q580 1576 618 1576T674 1570T702 1554Q722 1536 722 1518T712 1486T685 1472L619 1478Q550 1478 527 1424Q507 1377 507 1245V538Q507 337 627 228Q740 126 950 126T1338 277V1245Q1338
1375 1322 1413T1283 1465T1226 1478L1161 1472Q1143 1472 1133 1485T1123 1511T1127 1533T1143 1554Q1169 1576 1213 1576T1288 1574T1346 1568L1399 1564Q1425 1561 1456 1561T1514 1564L1567 1568Q1648 1576 1685 1576T1741 1570T1770 1554Q1789 1536 1789 1517Q1789
1472 1752 1472L1686 1478Q1590 1478 1578 1346Q1574 1303 1574 1245L1577 355Q1577 182 1590 143T1623 92T1672 79T1715 85T1742 91T1765 80T1776 57T1772 35T1756 14Q1728 -9 1694 -9T1638 -8L1594 -4Q1572 -3 1553 -2T1521 0L1411 -6ZM1228 1634Q1205 1634 1171
1656L913 1811L658 1656Q621 1632 604 1633T579 1644T571 1663Q571 1683 589 1705L806 1941Q863 2009 882 2014T917 2020Q954 2020 1024 1941L1241 1705Q1254 1690 1256 1662T1228 1634Z" />
<glyph unicode="&#xdc;" glyph-name="Udieresis" horiz-adv-x="1874" d="M1411 -6Q1348 -6 1339 115Q1138 -23 908 -23Q601 -23 436 131Q272 283 272 557V1245Q272 1374 255 1413T216 1465T159 1478L94 1472Q76 1472 66 1485T56 1511T60 1533T76 1554Q100 1576
144 1576T220 1574T278 1568L332 1564Q358 1561 389 1561Q420 1561 446 1564L499 1568Q580 1576 618 1576T674 1570T702 1554Q722 1536 722 1518T712 1486T685 1472L619 1478Q550 1478 527 1424Q507 1377 507 1245V538Q507 337 627 228Q740 126 950 126T1338 277V1245Q1338
1375 1322 1413T1283 1465T1226 1478L1161 1472Q1143 1472 1133 1485T1123 1511T1127 1533T1143 1554Q1169 1576 1213 1576T1288 1574T1346 1568L1399 1564Q1425 1561 1456 1561T1514 1564L1567 1568Q1648 1576 1685 1576T1741 1570T1770 1554Q1789 1536 1789 1517Q1789
1472 1752 1472L1686 1478Q1590 1478 1578 1346Q1574 1303 1574 1245L1577 355Q1577 182 1590 143T1623 92T1672 79T1715 85T1742 91T1765 80T1776 57T1772 35T1756 14Q1728 -9 1694 -9T1638 -8L1594 -4Q1572 -3 1553 -2T1521 0L1411 -6ZM1291 1694T1264 1681T1199
1668T1134 1681T1088 1716Q1053 1758 1053 1805T1064 1880T1094 1928Q1136 1972 1188 1972T1269 1959T1315 1924Q1351 1880 1351 1835T1341 1763T1311 1715ZM716 1694T689 1681T624 1668T559 1681T513 1716Q479 1757 479 1804T490 1880T520 1928Q562 1972 614 1972T694
1959T740 1924Q777 1881 777 1835T766 1763T736 1715Z" />
<glyph unicode="&#xdd;" glyph-name="Yacute" horiz-adv-x="1539" d="M1551 1481L1485 1478Q1431 1478 1404 1443L895 677V330Q895 200 911 162T949 111T997 98T1035 99T1057 102T1078 105T1104 107T1130 92T1140 65T1134 43T1115 22Q1084 0 1038 0T959 2T896
8L838 12Q810 15 777 15Q744 15 716 12L658 8Q507 -6 479 3T438 22Q413 42 413 59T423 92T449 107T475 106T496 102Q528 98 555 98T605 111T639 152Q659 199 659 330V671L121 1443Q96 1478 35 1478L-20 1471Q-39 1471 -49 1488T-59 1524T-36 1558T35 1575L235 1561L504
1575Q607 1575 607 1522Q607 1492 594 1482T569 1472L492 1480Q428 1480 428 1444Q428 1415 472 1342L823 827L1127 1300Q1196 1403 1196 1442T1133 1481L1056 1472Q1039 1472 1029 1489T1019 1525T1042 1559T1127 1575T1246 1568T1341 1561L1507 1575Q1590 1575
1590 1532Q1590 1503 1575 1492T1551 1481ZM722 1665Q690 1649 675 1649T653 1659T646 1678Q646 1691 663 1714L822 1901Q900 1998 962 2012Q983 2016 1013 2016T1069 1993T1095 1928Q1095 1848 958 1775L722 1665Z" />
<glyph unicode="&#xde;" glyph-name="Thorn" horiz-adv-x="1518" d="M801 329Q692 329 576 358Q576 217 590 170T627 103T677 83T716 84T738 87T759 90T786 92T812 77T822 50T816 27T797 7Q765 -15 720 -15T640 -13T576 -8L519 -2Q491 0 459 0Q427 0 401 -2L348
-8Q267 -15 230 -15T174 -9T145 7Q125 23 125 42Q125 89 164 89L228 83Q295 83 319 144Q340 198 340 330V1228Q340 1360 324 1403T285 1462T228 1478L164 1472Q145 1472 135 1485T125 1511T129 1533T145 1554Q171 1576 215 1576T290 1574T348 1568L401 1564Q427
1561 459 1561Q491 1561 519 1564L576 1568Q665 1576 705 1576T764 1570T797 1554Q822 1535 822 1517T812 1484T786 1469T760 1470T738 1474Q707 1478 680 1478T630 1462T596 1414Q576 1362 576 1228V1223Q730 1260 863 1260T1111 1229T1305 1140Q1467 1022 1467
820Q1467 578 1266 445Q1091 329 801 329ZM576 520Q692 460 854 460Q1108 460 1185 619Q1211 673 1211 755T1178 910T1087 1031Q970 1130 776 1130Q693 1130 651 1102Q576 1053 576 989V520Z" />
<glyph unicode="&#xdf;" glyph-name="germandbls" horiz-adv-x="1428" d="M605 46Q605 -15 500 -15Q456 -15 416 -8T336 0Q270 0 210 -7T123 -15T77 -9T46 7Q27 23 27 42T38 75T66 89L114 82Q172 82 194 136Q218 192 220 342V1159Q220 1594 490 1698Q575 1730
678 1730T862 1700T998 1616Q1113 1507 1113 1331Q1113 1214 1034 1108Q961 1012 846 959Q1055 922 1192 779Q1330 633 1330 449Q1330 107 1093 8Q1015 -24 937 -24T814 -6T734 41Q662 102 662 182Q662 200 676 210T704 221Q738 221 751 192T782 145T820 116Q856
98 906 98Q1082 98 1082 390Q1082 796 695 855Q592 866 592 908T640 962T729 995T800 1055Q870 1139 870 1299Q870 1614 664 1614T457 1304V342Q457 158 466 125T488 87T518 82L568 89Q586 89 595 76T605 46Z" />
<glyph unicode="&#xe0;" glyph-name="agrave" horiz-adv-x="1351" d="M966 -6Q908 -6 897 99Q810 12 664 -16Q619 -24 543 -24T387 -1T254 64Q147 149 147 301Q147 466 286 553Q405 627 584 627Q755 627 895 553V667Q895 864 712 900Q656 911 604 911T515 907T446
888Q377 859 315 775Q268 711 239 711T210 741Q210 759 222 799Q248 881 248 1010Q248 1060 286 1060Q326 1060 355 1042Q395 1017 401 1017Q545 1053 669 1053T887 1021T1036 932Q1128 837 1128 643V354Q1128 175 1146 138T1185 94T1239 87L1296 95Q1313 95 1323
81T1334 56T1330 34T1314 14Q1286 -9 1234 -9L1080 0L966 -6ZM895 427Q777 501 643 501Q456 501 400 394Q383 362 383 323Q383 220 451 169T644 117Q796 117 895 237V427ZM804 1221T796 1211T775 1202Q757 1202 727 1220L492 1355Q410 1402 388 1432Q341 1500 368
1554Q400 1618 496 1596Q558 1583 636 1476L789 1268Q806 1245 805 1233Z" />
<glyph unicode="&#xe1;" glyph-name="aacute" horiz-adv-x="1351" d="M966 -6Q908 -6 897 99Q810 12 664 -16Q619 -24 543 -24T387 -1T254 64Q147 149 147 301Q147 466 286 553Q405 627 584 627Q755 627 895 553V667Q895 864 712 900Q656 911 604 911T515 907T446
888Q377 859 315 775Q268 711 239 711T210 741Q210 759 222 799Q248 881 248 1010Q248 1060 286 1060Q326 1060 355 1042Q395 1017 401 1017Q545 1053 669 1053T887 1021T1036 932Q1128 837 1128 643V354Q1128 175 1146 138T1185 94T1239 87L1296 95Q1313 95 1323
81T1334 56T1330 34T1314 14Q1286 -9 1234 -9L1080 0L966 -6ZM895 427Q777 501 643 501Q456 501 400 394Q383 362 383 323Q383 220 451 169T644 117Q796 117 895 237V427ZM619 1220Q567 1190 550 1211Q536 1229 542 1243T557 1268L710 1476Q766 1552 798 1572Q842
1600 885 1601T957 1581T986 1530T984 1482T965 1443Q936 1402 854 1355L619 1220Z" />
<glyph unicode="&#xe2;" glyph-name="acircumflex" horiz-adv-x="1351" d="M966 -6Q908 -6 897 99Q810 12 664 -16Q619 -24 543 -24T387 -1T254 64Q147 149 147 301Q147 466 286 553Q405 627 584 627Q755 627 895 553V667Q895 864 712 900Q656 911 604 911T515
907T446 888Q377 859 315 775Q268 711 239 711T210 741Q210 759 222 799Q248 881 248 1010Q248 1060 286 1060Q326 1060 355 1042Q395 1017 401 1017Q545 1053 669 1053T887 1021T1036 932Q1128 837 1128 643V354Q1128 175 1146 138T1185 94T1239 87L1296 95Q1313
95 1323 81T1334 56T1330 34T1314 14Q1286 -9 1234 -9L1080 0L966 -6ZM895 427Q777 501 643 501Q456 501 400 394Q383 362 383 323Q383 220 451 169T644 117Q796 117 895 237V427ZM410 1229Q376 1207 356 1207T329 1217T321 1236Q321 1258 339 1280L561 1530Q620
1600 639 1605T675 1611Q714 1611 783 1530L1004 1280Q1018 1266 1020 1247Q1024 1207 991 1207Q971 1204 933 1229L670 1397L410 1229Z" />
<glyph unicode="&#xe3;" glyph-name="atilde" horiz-adv-x="1351" d="M966 -6Q908 -6 897 99Q810 12 664 -16Q619 -24 543 -24T387 -1T254 64Q147 149 147 301Q147 466 286 553Q405 627 584 627Q755 627 895 553V667Q895 864 712 900Q656 911 604 911T515 907T446
888Q377 859 315 775Q268 711 239 711T210 741Q210 759 222 799Q248 881 248 1010Q248 1060 286 1060Q326 1060 355 1042Q395 1017 401 1017Q545 1053 669 1053T887 1021T1036 932Q1128 837 1128 643V354Q1128 175 1146 138T1185 94T1239 87L1296 95Q1313 95 1323
81T1334 56T1330 34T1314 14Q1286 -9 1234 -9L1080 0L966 -6ZM895 427Q777 501 643 501Q456 501 400 394Q383 362 383 323Q383 220 451 169T644 117Q796 117 895 237V427ZM976 1365Q894 1248 793 1248Q718 1248 611 1307L564 1330Q509 1357 483 1357Q439 1357 394
1292Q365 1251 340 1251T314 1285Q314 1358 400 1449Q471 1525 551 1525Q610 1525 651 1507T722 1472L776 1444Q833 1417 857 1417Q904 1417 948 1481Q978 1523 1003 1523T1029 1482T976 1365Z" />
<glyph unicode="&#xe4;" glyph-name="adieresis" horiz-adv-x="1351" d="M966 -6Q908 -6 897 99Q810 12 664 -16Q619 -24 543 -24T387 -1T254 64Q147 149 147 301Q147 466 286 553Q405 627 584 627Q755 627 895 553V667Q895 864 712 900Q656 911 604 911T515 907T446
888Q377 859 315 775Q268 711 239 711T210 741Q210 759 222 799Q248 881 248 1010Q248 1060 286 1060Q326 1060 355 1042Q395 1017 401 1017Q545 1053 669 1053T887 1021T1036 932Q1128 837 1128 643V354Q1128 175 1146 138T1185 94T1239 87L1296 95Q1313 95 1323
81T1334 56T1330 34T1314 14Q1286 -9 1234 -9L1080 0L966 -6ZM895 427Q777 501 643 501Q456 501 400 394Q383 362 383 323Q383 220 451 169T644 117Q796 117 895 237V427ZM1005 1259T977 1246T911 1232T845 1245T798 1281Q763 1324 763 1371T774 1447T806 1497Q849
1542 901 1542T982 1529T1030 1493Q1067 1448 1067 1402T1056 1329T1025 1281ZM521 1259T493 1246T427 1232T361 1245T314 1281Q278 1323 278 1371T289 1447T320 1497Q364 1542 417 1542T498 1529T546 1493Q582 1450 582 1403T571 1329T541 1281Z" />
<glyph unicode="&#xe5;" glyph-name="aring" horiz-adv-x="1351" d="M966 -6Q908 -6 897 99Q810 12 664 -16Q619 -24 543 -24T387 -1T254 64Q147 149 147 301Q147 466 286 553Q405 627 584 627Q755 627 895 553V667Q895 864 712 900Q656 911 604 911T515 907T446
888Q377 859 315 775Q268 711 239 711T210 741Q210 759 222 799Q248 881 248 1010Q248 1060 286 1060Q326 1060 355 1042Q395 1017 401 1017Q545 1053 669 1053T887 1021T1036 932Q1128 837 1128 643V354Q1128 175 1146 138T1185 94T1239 87L1296 95Q1313 95 1323
81T1334 56T1330 34T1314 14Q1286 -9 1234 -9L1080 0L966 -6ZM895 427Q777 501 643 501Q456 501 400 394Q383 362 383 323Q383 220 451 169T644 117Q796 117 895 237V427ZM663 1205Q566 1205 500 1266Q433 1327 433 1422Q433 1517 500 1580Q566 1643 663 1643Q760
1643 827 1580Q894 1517 894 1422Q894 1327 827 1266Q760 1205 663 1205ZM598 1325T618 1316T674 1306T743 1336T776 1419T745 1505T674 1538T615 1529T579 1503Q550 1470 550 1422Q550 1376 574 1351Z" />
<glyph unicode="&#xe6;" glyph-name="ae" horiz-adv-x="2013" d="M1020 155Q943 70 832 23T603 -24T403 -1T263 64Q147 151 147 301Q147 443 282 536Q416 627 624 627Q765 627 893 573Q885 771 814 846Q751 911 601 911Q508 911 461 892Q377 859 315 775Q268 711
239 711T210 741Q210 759 222 799Q248 881 248 1010Q248 1060 285 1060Q300 1060 330 1046L374 1026Q389 1019 398 1019T412 1020T432 1026T469 1036T517 1045Q569 1053 643 1053Q922 1053 1039 875Q1160 1002 1344 1040Q1403 1053 1463 1053Q1759 1053 1912 782Q1938
735 1938 709Q1938 658 1891 642Q1637 549 1440 501L1151 430Q1196 275 1310 194Q1410 123 1519 123T1698 151T1816 249Q1847 290 1870 290T1907 276T1921 251Q1921 210 1883 158Q1749 -24 1464 -24T1020 155ZM1132 524Q1445 601 1667 676Q1689 684 1689 706T1672
766T1621 838Q1541 919 1436 919Q1306 919 1223 844Q1128 759 1128 602Q1128 562 1132 524ZM884 188Q921 214 953 246Q903 333 895 459Q789 511 665 511T466 457T392 308T461 160T648 107T884 188Z" />
<glyph unicode="&#xe7;" glyph-name="ccedilla" horiz-adv-x="1174" d="M811 -1T761 -12T675 -24T617 -22L583 -157H599Q754 -157 819 -252Q839 -282 839 -319T816 -394T754 -461Q668 -526 567 -526Q433 -526 361 -466Q335 -445 335 -420T350 -376T389 -357Q432
-357 468 -392Q526 -448 613 -448Q649 -448 666 -424Q694 -386 694 -341T661 -267T582 -237Q511 -237 462 -256L514 -7Q329 35 216 176Q100 319 100 515Q100 649 176 775Q294 969 524 1032Q601 1053 672 1053T780 1046T841 1031T881 1016T909 1009T939 1016T974
1031L1006 1046Q1022 1053 1033 1053Q1066 1053 1066 1014T1066 944T1070 886Q1076 832 1094 784Q1104 757 1104 739Q1104 709 1075 709Q1049 709 1009 760T928 837T845 878Q778 901 689 901T543 882T442 822Q348 734 348 574Q348 371 462 245Q570 126 728 126Q903
126 990 249Q1016 287 1041 289T1082 277T1097 240T1078 186T1026 123T950 66T859 19Z" />
<glyph unicode="&#xe8;" glyph-name="egrave" horiz-adv-x="1220" d="M191 188T146 288T100 504T141 717T257 888Q423 1053 669 1053Q833 1053 956 968Q1045 907 1104 808Q1145 736 1145 717T1144 687T1137 666Q1126 642 1095 631Q840 538 528 464L353 422Q387
276 504 196Q607 126 747 126Q868 126 969 204Q1001 228 1019 254Q1050 300 1085 300Q1107 300 1123 264Q1127 255 1127 247Q1127 209 1088 158Q1019 67 911 22T680 -24T452 12T269 118ZM339 548L624 622Q879 690 890 708Q893 714 893 731T879 780T836 839Q769
901 662 901Q557 901 464 841Q338 759 338 583V566Q338 557 339 548ZM800 1221T792 1211T771 1202Q753 1202 723 1220L488 1355Q406 1402 384 1432Q337 1500 364 1554Q396 1618 492 1596Q554 1583 632 1476L785 1268Q802 1245 801 1233Z" />
<glyph unicode="&#xe9;" glyph-name="eacute" horiz-adv-x="1220" d="M191 188T146 288T100 504T141 717T257 888Q423 1053 669 1053Q833 1053 956 968Q1045 907 1104 808Q1145 736 1145 717T1144 687T1137 666Q1126 642 1095 631Q840 538 528 464L353 422Q387
276 504 196Q607 126 747 126Q868 126 969 204Q1001 228 1019 254Q1050 300 1085 300Q1107 300 1123 264Q1127 255 1127 247Q1127 209 1088 158Q1019 67 911 22T680 -24T452 12T269 118ZM339 548L624 622Q879 690 890 708Q893 714 893 731T879 780T836 839Q769
901 662 901Q557 901 464 841Q338 759 338 583V566Q338 557 339 548ZM615 1220Q563 1190 546 1211Q532 1229 538 1243T553 1268L706 1476Q762 1552 794 1572Q838 1600 881 1601T953 1581T982 1530T980 1482T961 1443Q932 1402 850 1355L615 1220Z" />
<glyph unicode="&#xea;" glyph-name="ecircumflex" horiz-adv-x="1220" d="M191 188T146 288T100 504T141 717T257 888Q423 1053 669 1053Q833 1053 956 968Q1045 907 1104 808Q1145 736 1145 717T1144 687T1137 666Q1126 642 1095 631Q840 538 528 464L353 422Q387
276 504 196Q607 126 747 126Q868 126 969 204Q1001 228 1019 254Q1050 300 1085 300Q1107 300 1123 264Q1127 255 1127 247Q1127 209 1088 158Q1019 67 911 22T680 -24T452 12T269 118ZM339 548L624 622Q879 690 890 708Q893 714 893 731T879 780T836 839Q769
901 662 901Q557 901 464 841Q338 759 338 583V566Q338 557 339 548ZM406 1229Q372 1207 352 1207T325 1217T317 1236Q317 1258 335 1280L557 1530Q616 1600 635 1605T671 1611Q710 1611 779 1530L1000 1280Q1014 1266 1016 1247Q1020 1207 987 1207Q967 1204 929
1229L666 1397L406 1229Z" />
<glyph unicode="&#xeb;" glyph-name="edieresis" horiz-adv-x="1220" d="M191 188T146 288T100 504T141 717T257 888Q423 1053 669 1053Q833 1053 956 968Q1045 907 1104 808Q1145 736 1145 717T1144 687T1137 666Q1126 642 1095 631Q840 538 528 464L353 422Q387
276 504 196Q607 126 747 126Q868 126 969 204Q1001 228 1019 254Q1050 300 1085 300Q1107 300 1123 264Q1127 255 1127 247Q1127 209 1088 158Q1019 67 911 22T680 -24T452 12T269 118ZM339 548L624 622Q879 690 890 708Q893 714 893 731T879 780T836 839Q769
901 662 901Q557 901 464 841Q338 759 338 583V566Q338 557 339 548ZM1001 1259T973 1246T907 1232T841 1245T794 1281Q759 1324 759 1371T770 1447T802 1497Q845 1542 897 1542T978 1529T1026 1493Q1063 1448 1063 1402T1052 1329T1021 1281ZM517 1259T489 1246T423
1232T357 1245T310 1281Q274 1323 274 1371T285 1447T316 1497Q360 1542 413 1542T494 1529T542 1493Q578 1450 578 1403T567 1329T537 1281Z" />
<glyph unicode="&#xec;" glyph-name="igrave" horiz-adv-x="803" d="M653 95L701 102Q718 102 728 89T738 63T734 40T718 20Q677 -14 532 8Q481 15 433 15T356 13T304 8T261 3T215 0T170 6T140 22Q121 38 121 57T131 89T158 102L207 95Q263 95 286 148Q310 206
310 350V638Q310 781 286 833Q263 880 231 892T173 911T128 928T108 951T111 973T121 990Q138 1009 172 1009L316 997L464 1009Q506 1009 519 993Q543 963 543 883V350Q543 185 562 148T603 103T653 95ZM542 1221T534 1211T513 1202Q495 1202 465 1220L230 1355Q148
1402 126 1432Q79 1500 106 1554Q138 1618 234 1596Q296 1583 374 1476L527 1268Q544 1245 543 1233Z" />
<glyph unicode="&#xed;" glyph-name="iacute" horiz-adv-x="803" d="M653 95L701 102Q718 102 728 89T738 63T734 40T718 20Q677 -14 532 8Q481 15 433 15T356 13T304 8T261 3T215 0T170 6T140 22Q121 38 121 57T131 89T158 102L207 95Q263 95 286 148Q310 206
310 350V638Q310 781 286 833Q263 880 231 892T173 911T128 928T108 951T111 973T121 990Q138 1009 172 1009L316 997L464 1009Q506 1009 519 993Q543 963 543 883V350Q543 185 562 148T603 103T653 95ZM357 1220Q305 1190 288 1211Q274 1229 280 1243T295 1268L448
1476Q504 1552 536 1572Q580 1600 623 1601T695 1581T724 1530T722 1482T703 1443Q674 1402 592 1355L357 1220Z" />
<glyph unicode="&#xee;" glyph-name="icircumflex" horiz-adv-x="803" d="M653 95L701 102Q718 102 728 89T738 63T734 40T718 20Q677 -14 532 8Q481 15 433 15T356 13T304 8T261 3T215 0T170 6T140 22Q121 38 121 57T131 89T158 102L207 95Q263 95 286 148Q310
206 310 350V638Q310 781 286 833Q263 880 231 892T173 911T128 928T108 951T111 973T121 990Q138 1009 172 1009L316 997L464 1009Q506 1009 519 993Q543 963 543 883V350Q543 185 562 148T603 103T653 95ZM405 1229Q371 1207 351 1207T324 1217T316 1236Q316
1258 334 1280L556 1530Q615 1600 634 1605T670 1611Q709 1611 778 1530L999 1280Q1013 1266 1015 1247Q1019 1207 986 1207Q966 1204 928 1229L665 1397L405 1229Z" />
<glyph unicode="&#xef;" glyph-name="idieresis" horiz-adv-x="803" d="M653 95L701 102Q718 102 728 89T738 63T734 40T718 20Q677 -14 532 8Q481 15 433 15T356 13T304 8T261 3T215 0T170 6T140 22Q121 38 121 57T131 89T158 102L207 95Q263 95 286 148Q310
206 310 350V638Q310 781 286 833Q263 880 231 892T173 911T128 928T108 951T111 973T121 990Q138 1009 172 1009L316 997L464 1009Q506 1009 519 993Q543 963 543 883V350Q543 185 562 148T603 103T653 95ZM1000 1259T972 1246T906 1232T840 1245T793 1281Q758
1324 758 1371T769 1447T801 1497Q844 1542 896 1542T977 1529T1025 1493Q1062 1448 1062 1402T1051 1329T1020 1281ZM516 1259T488 1246T422 1232T356 1245T309 1281Q273 1323 273 1371T284 1447T315 1497Q359 1542 412 1542T493 1529T541 1493Q577 1450 577 1403T566
1329T536 1281Z" />
<glyph unicode="&#xf0;" glyph-name="eth" horiz-adv-x="1355" d="M1003 1364Q1264 1071 1264 677Q1264 360 1094 165Q932 -20 685 -20Q430 -20 276 116Q120 255 120 487Q120 709 274 855Q430 1002 665 1002Q831 1002 979 917Q931 1139 807 1302L541 1218Q478
1198 455 1198T417 1213T403 1252Q403 1294 465 1314L721 1395Q566 1544 309 1635Q273 1647 259 1659T244 1691Q244 1730 296 1730Q368 1730 485 1694Q727 1618 911 1457L1158 1535Q1232 1559 1258 1559T1299 1544T1314 1508Q1314 1464 1229 1436L1003 1364ZM363
528Q363 443 391 364T467 226Q568 105 720 105Q935 105 996 335Q1017 414 1017 510T992 672T922 784Q830 878 680 878Q527 878 443 784Q363 694 363 528Z" />
<glyph unicode="&#xf1;" glyph-name="ntilde" horiz-adv-x="1522" d="M632 -15L416 0Q352 0 291 -7T203 -15T157 -9T126 7Q107 23 107 42T118 75T145 89L195 82Q251 82 275 137Q300 195 300 342V651Q300 818 256 878Q237 903 185 918T114 943T94 966T97 989T107
1006Q124 1025 159 1025L306 1013L457 1025Q500 1025 512 1010Q537 982 537 901V874Q703 1053 925 1053Q1178 1053 1251 853Q1277 782 1277 685V342Q1277 183 1295 142T1332 91T1374 82L1427 89Q1444 89 1453 75T1463 49T1459 27T1444 7Q1408 -22 1316 -12Q1201
0 1167 0L956 -15Q870 -15 854 26Q850 37 850 49T860 75T889 89L942 82Q1001 82 1021 135T1041 342V607Q1041 790 938 856Q898 882 845 882T749 869T669 832Q594 785 537 711V342Q537 176 557 137T599 90T649 82L699 89Q716 89 726 76T737 46Q737 -15 632 -15ZM1090
1365Q1008 1248 907 1248Q832 1248 725 1307L678 1330Q623 1357 597 1357Q553 1357 508 1292Q479 1251 454 1251T428 1285Q428 1358 514 1449Q585 1525 665 1525Q724 1525 765 1507T836 1472L890 1444Q947 1417 971 1417Q1018 1417 1062 1481Q1092 1523 1117 1523T1143
1482T1090 1365Z" />
<glyph unicode="&#xf2;" glyph-name="ograve" horiz-adv-x="1341" d="M100 538Q100 624 144 722T266 894Q433 1053 673 1053Q951 1053 1104 887Q1241 738 1241 532Q1241 289 1096 137Q943 -24 677 -24Q293 -24 154 266Q100 379 100 538ZM370 730Q349 673 349 579T380
398T464 251Q573 127 723 127Q907 127 968 288Q989 343 989 444T956 635T870 785Q766 901 617 901Q432 901 370 730ZM799 1221T791 1211T770 1202Q752 1202 722 1220L487 1355Q405 1402 383 1432Q336 1500 363 1554Q395 1618 491 1596Q553 1583 631 1476L784 1268Q801
1245 800 1233Z" />
<glyph unicode="&#xf3;" glyph-name="oacute" horiz-adv-x="1341" d="M100 538Q100 624 144 722T266 894Q433 1053 673 1053Q951 1053 1104 887Q1241 738 1241 532Q1241 289 1096 137Q943 -24 677 -24Q293 -24 154 266Q100 379 100 538ZM370 730Q349 673 349 579T380
398T464 251Q573 127 723 127Q907 127 968 288Q989 343 989 444T956 635T870 785Q766 901 617 901Q432 901 370 730ZM614 1220Q562 1190 545 1211Q531 1229 537 1243T552 1268L705 1476Q761 1552 793 1572Q837 1600 880 1601T952 1581T981 1530T979 1482T960 1443Q931
1402 849 1355L614 1220Z" />
<glyph unicode="&#xf4;" glyph-name="ocircumflex" horiz-adv-x="1341" d="M100 538Q100 624 144 722T266 894Q433 1053 673 1053Q951 1053 1104 887Q1241 738 1241 532Q1241 289 1096 137Q943 -24 677 -24Q293 -24 154 266Q100 379 100 538ZM370 730Q349 673
349 579T380 398T464 251Q573 127 723 127Q907 127 968 288Q989 343 989 444T956 635T870 785Q766 901 617 901Q432 901 370 730ZM405 1229Q371 1207 351 1207T324 1217T316 1236Q316 1258 334 1280L556 1530Q615 1600 634 1605T670 1611Q709 1611 778 1530L999
1280Q1013 1266 1015 1247Q1019 1207 986 1207Q966 1204 928 1229L665 1397L405 1229Z" />
<glyph unicode="&#xf5;" glyph-name="otilde" horiz-adv-x="1341" d="M100 538Q100 624 144 722T266 894Q433 1053 673 1053Q951 1053 1104 887Q1241 738 1241 532Q1241 289 1096 137Q943 -24 677 -24Q293 -24 154 266Q100 379 100 538ZM370 730Q349 673 349 579T380
398T464 251Q573 127 723 127Q907 127 968 288Q989 343 989 444T956 635T870 785Q766 901 617 901Q432 901 370 730ZM971 1365Q889 1248 788 1248Q713 1248 606 1307L559 1330Q504 1357 478 1357Q434 1357 389 1292Q360 1251 335 1251T309 1285Q309 1358 395 1449Q466
1525 546 1525Q605 1525 646 1507T717 1472L771 1444Q828 1417 852 1417Q899 1417 943 1481Q973 1523 998 1523T1024 1482T971 1365Z" />
<glyph unicode="&#xf6;" glyph-name="odieresis" horiz-adv-x="1341" d="M100 538Q100 624 144 722T266 894Q433 1053 673 1053Q951 1053 1104 887Q1241 738 1241 532Q1241 289 1096 137Q943 -24 677 -24Q293 -24 154 266Q100 379 100 538ZM370 730Q349 673 349
579T380 398T464 251Q573 127 723 127Q907 127 968 288Q989 343 989 444T956 635T870 785Q766 901 617 901Q432 901 370 730ZM1000 1259T972 1246T906 1232T840 1245T793 1281Q758 1324 758 1371T769 1447T801 1497Q844 1542 896 1542T977 1529T1025 1493Q1062
1448 1062 1402T1051 1329T1020 1281ZM516 1259T488 1246T422 1232T356 1245T309 1281Q273 1323 273 1371T284 1447T315 1497Q359 1542 412 1542T493 1529T541 1493Q577 1450 577 1403T566 1329T536 1281Z" />
<glyph unicode="&#xf7;" glyph-name="divide" horiz-adv-x="1285" d="M734 906T706 893T640 879T574 893T526 929Q491 971 491 1018T502 1094T534 1144Q577 1189 630 1189T711 1176T758 1140Q795 1097 795 1050T784 976T754 928ZM140 729H1145V580H140V729ZM508
191T500 218T491 276T502 335T534 385Q577 430 630 430T711 417T758 381Q795 338 795 270Q795 213 754 168Q709 120 656 120T574 133T527 169Z" />
<glyph unicode="&#xf8;" glyph-name="oslash" horiz-adv-x="1341" d="M1025 62T920 19T671 -24T415 22L288 -166Q254 -216 212 -216Q189 -216 174 -202T159 -168Q159 -131 191 -85L303 81L304 83Q100 231 100 513Q100 735 266 894Q433 1053 673 1053Q817 1053
930 1005L1045 1173Q1067 1205 1082 1215T1119 1225T1156 1212T1172 1176Q1172 1144 1136 1089L1038 945Q1187 836 1228 646Q1241 589 1241 502T1205 314T1097 137ZM815 835Q726 901 617 901Q432 901 370 730Q349 673 349 586Q349 412 440 282L815 835ZM529 191Q617
127 723 127Q907 127 968 288Q989 343 989 434Q989 616 902 744L529 191Z" />
<glyph unicode="&#xf9;" glyph-name="ugrave" horiz-adv-x="1409" d="M978 110Q837 -24 658 -24Q485 -24 372 75Q258 176 258 330V676Q258 844 245 880T211 925T159 935T116 932T93 928T71 942T60 966T64 988T80 1010Q108 1032 141 1032T197 1031T241 1028T282
1025T313 1023L424 1029Q483 1029 492 938Q496 905 496 857V370Q496 197 625 152Q665 138 713 138Q845 138 977 272V675Q977 845 964 880T930 925T878 935T835 932T812 928T790 942T780 966T784 988T800 1010Q826 1032 860 1032T916 1030L960 1028Q983 1026 1002
1025T1033 1023L1143 1029Q1185 1029 1196 1006Q1215 970 1215 876V354Q1215 181 1228 145T1262 99T1315 88T1357 91T1379 95T1402 81T1413 57T1409 35T1392 14Q1365 -9 1331 -9T1275 -8T1231 -5T1190 -2T1159 0L1049 -6Q987 -6 978 110ZM797 1221T789 1211T768
1202Q750 1202 720 1220L485 1355Q403 1402 381 1432Q334 1500 361 1554Q393 1618 489 1596Q551 1583 629 1476L782 1268Q799 1245 798 1233Z" />
<glyph unicode="&#xfa;" glyph-name="uacute" horiz-adv-x="1409" d="M978 110Q837 -24 658 -24Q485 -24 372 75Q258 176 258 330V676Q258 844 245 880T211 925T159 935T116 932T93 928T71 942T60 966T64 988T80 1010Q108 1032 141 1032T197 1031T241 1028T282
1025T313 1023L424 1029Q483 1029 492 938Q496 905 496 857V370Q496 197 625 152Q665 138 713 138Q845 138 977 272V675Q977 845 964 880T930 925T878 935T835 932T812 928T790 942T780 966T784 988T800 1010Q826 1032 860 1032T916 1030L960 1028Q983 1026 1002
1025T1033 1023L1143 1029Q1185 1029 1196 1006Q1215 970 1215 876V354Q1215 181 1228 145T1262 99T1315 88T1357 91T1379 95T1402 81T1413 57T1409 35T1392 14Q1365 -9 1331 -9T1275 -8T1231 -5T1190 -2T1159 0L1049 -6Q987 -6 978 110ZM612 1220Q560 1190 543
1211Q529 1229 535 1243T550 1268L703 1476Q759 1552 791 1572Q835 1600 878 1601T950 1581T979 1530T977 1482T958 1443Q929 1402 847 1355L612 1220Z" />
<glyph unicode="&#xfb;" glyph-name="ucircumflex" horiz-adv-x="1409" d="M978 110Q837 -24 658 -24Q485 -24 372 75Q258 176 258 330V676Q258 844 245 880T211 925T159 935T116 932T93 928T71 942T60 966T64 988T80 1010Q108 1032 141 1032T197 1031T241 1028T282
1025T313 1023L424 1029Q483 1029 492 938Q496 905 496 857V370Q496 197 625 152Q665 138 713 138Q845 138 977 272V675Q977 845 964 880T930 925T878 935T835 932T812 928T790 942T780 966T784 988T800 1010Q826 1032 860 1032T916 1030L960 1028Q983 1026 1002
1025T1033 1023L1143 1029Q1185 1029 1196 1006Q1215 970 1215 876V354Q1215 181 1228 145T1262 99T1315 88T1357 91T1379 95T1402 81T1413 57T1409 35T1392 14Q1365 -9 1331 -9T1275 -8T1231 -5T1190 -2T1159 0L1049 -6Q987 -6 978 110ZM403 1229Q369 1207 349
1207T322 1217T314 1236Q314 1258 332 1280L554 1530Q613 1600 632 1605T668 1611Q707 1611 776 1530L997 1280Q1011 1266 1013 1247Q1017 1207 984 1207Q964 1204 926 1229L663 1397L403 1229Z" />
<glyph unicode="&#xfc;" glyph-name="udieresis" horiz-adv-x="1409" d="M978 110Q837 -24 658 -24Q485 -24 372 75Q258 176 258 330V676Q258 844 245 880T211 925T159 935T116 932T93 928T71 942T60 966T64 988T80 1010Q108 1032 141 1032T197 1031T241 1028T282
1025T313 1023L424 1029Q483 1029 492 938Q496 905 496 857V370Q496 197 625 152Q665 138 713 138Q845 138 977 272V675Q977 845 964 880T930 925T878 935T835 932T812 928T790 942T780 966T784 988T800 1010Q826 1032 860 1032T916 1030L960 1028Q983 1026 1002
1025T1033 1023L1143 1029Q1185 1029 1196 1006Q1215 970 1215 876V354Q1215 181 1228 145T1262 99T1315 88T1357 91T1379 95T1402 81T1413 57T1409 35T1392 14Q1365 -9 1331 -9T1275 -8T1231 -5T1190 -2T1159 0L1049 -6Q987 -6 978 110ZM998 1259T970 1246T904
1232T838 1245T791 1281Q756 1324 756 1371T767 1447T799 1497Q842 1542 894 1542T975 1529T1023 1493Q1060 1448 1060 1402T1049 1329T1018 1281ZM514 1259T486 1246T420 1232T354 1245T307 1281Q271 1323 271 1371T282 1447T313 1497Q357 1542 410 1542T491 1529T539
1493Q575 1450 575 1403T564 1329T534 1281Z" />
<glyph unicode="&#xfd;" glyph-name="yacute" horiz-adv-x="1349" d="M1332 925L1276 933Q1208 933 1134 776L728 -136Q580 -443 438 -494Q397 -508 351 -508T260 -494T184 -456Q121 -406 121 -335Q121 -279 163 -252Q175 -245 197 -245Q246 -245 278 -304Q309
-360 348 -370Q362 -373 384 -373T431 -361T488 -312Q550 -241 643 -52V-51L265 731Q179 903 118 926Q101 932 85 932L29 925Q12 925 2 939T-9 970T15 1008T89 1029L288 1013Q347 1013 417 1021T536 1029T604 1023T634 1006Q655 988 655 971Q655 925 617 925L541
934Q473 934 473 883Q473 864 488 828L755 228Q966 759 979 789T998 838Q1011 874 1011 894Q1011 934 953 934L870 925Q853 925 843 939T832 971T855 1009T930 1029T1031 1021T1121 1013T1198 1021T1279 1029T1347 1008T1370 970T1359 939T1332 925ZM699 1220Q647
1190 630 1211Q616 1229 622 1243T637 1268L790 1476Q846 1552 878 1572Q922 1600 965 1601T1037 1581T1066 1530T1064 1482T1045 1443Q1016 1402 934 1355L699 1220Z" />
<glyph unicode="&#xfe;" glyph-name="thorn" horiz-adv-x="1356" d="M41 -421L90 -429Q148 -429 170 -378Q195 -322 195 -179V1155Q195 1418 165 1546Q159 1571 148 1586T110 1610T55 1624T9 1638T-11 1659T-8 1682T2 1699Q19 1718 54 1718L201 1716L353 1728Q394
1728 408 1712Q433 1682 433 1599V971Q558 1053 700 1053T947 1016T1125 910Q1276 766 1276 515Q1276 291 1118 134Q957 -24 721 -24Q546 -24 433 46V-179Q433 -341 452 -378T493 -422T545 -429L594 -421Q611 -421 621 -434T632 -461T628 -485T612 -505Q585 -526
527 -526L311 -520L103 -526Q22 -526 6 -484Q2 -473 2 -461T13 -435T41 -421ZM666 900Q542 900 433 796V298Q492 178 626 141Q666 130 725 130T845 153T948 220Q1034 310 1034 464Q1034 678 929 794Q833 900 666 900Z" />
<glyph unicode="&#xff;" glyph-name="ydieresis" horiz-adv-x="1349" d="M1332 925L1276 933Q1208 933 1134 776L728 -136Q580 -443 438 -494Q397 -508 351 -508T260 -494T184 -456Q121 -406 121 -335Q121 -279 163 -252Q175 -245 197 -245Q246 -245 278 -304Q309
-360 348 -370Q362 -373 384 -373T431 -361T488 -312Q550 -241 643 -52V-51L265 731Q179 903 118 926Q101 932 85 932L29 925Q12 925 2 939T-9 970T15 1008T89 1029L288 1013Q347 1013 417 1021T536 1029T604 1023T634 1006Q655 988 655 971Q655 925 617 925L541
934Q473 934 473 883Q473 864 488 828L755 228Q966 759 979 789T998 838Q1011 874 1011 894Q1011 934 953 934L870 925Q853 925 843 939T832 971T855 1009T930 1029T1031 1021T1121 1013T1198 1021T1279 1029T1347 1008T1370 970T1359 939T1332 925ZM1085 1259T1057
1246T991 1232T925 1245T878 1281Q843 1324 843 1371T854 1447T886 1497Q929 1542 981 1542T1062 1529T1110 1493Q1147 1448 1147 1402T1136 1329T1105 1281ZM601 1259T573 1246T507 1232T441 1245T394 1281Q358 1323 358 1371T369 1447T400 1497Q444 1542 497
1542T578 1529T626 1493Q662 1450 662 1403T651 1329T621 1281Z" />
<glyph unicode="&#x2013;" glyph-name="endash" horiz-adv-x="1359" d="M26 549T6 573T-15 633T6 693T63 717H1296Q1331 717 1352 693T1374 634T1354 574T1298 549H61Q26 549 6 573Z" />
<glyph unicode="&#x2014;" glyph-name="emdash" horiz-adv-x="1701" d="M25 549T4 573T-17 633T5 693T63 717H1638Q1673 717 1695 693T1718 634T1697 574T1640 549H60Q25 549 4 573Z" />
<glyph unicode="&#x2018;" glyph-name="quoteleft" horiz-adv-x="512" d="M276 965Q188 965 138 1026T87 1206Q87 1336 182 1461T374 1587Q428 1587 428 1541Q428 1510 387 1492T319 1453T275 1410Q239 1368 239 1336T252 1289T318 1258Q431 1224 431 1115Q431
1014 341 977Q312 965 276 965Z" />
<glyph unicode="&#x2019;" glyph-name="quoteright" horiz-adv-x="512" d="M245 1601Q333 1601 383 1540T434 1360Q434 1230 339 1105T147 979Q93 979 93 1025Q93 1056 134 1074T202 1113T246 1156Q282 1198 282 1230T269 1277T203 1308Q90 1342 90 1451Q90 1552
180 1589Q209 1601 245 1601Z" />
<glyph unicode="&#x201a;" glyph-name="quotesinglbase" horiz-adv-x="684" d="M327 227Q415 227 465 166T516 -14Q516 -144 421 -269T229 -395Q175 -395 175 -349Q175 -318 216 -300T284 -261T328 -218Q364 -176 364 -144T351 -97T285 -66Q172 -32 172 77Q172
178 262 215Q291 227 327 227Z" />
<glyph unicode="&#x201c;" glyph-name="quotedblleft" horiz-adv-x="1030" d="M295 965Q207 965 157 1026T106 1206Q106 1336 201 1461T393 1587Q447 1587 447 1541Q447 1510 406 1492T338 1453T294 1410Q258 1368 258 1336T271 1289T337 1258Q450 1224 450 1115Q450
1014 360 977Q331 965 295 965ZM785 965Q697 965 647 1026T596 1206Q596 1336 691 1461T883 1587Q937 1587 937 1541Q937 1510 896 1492T828 1453T784 1410Q748 1368 748 1336T761 1289T827 1258Q940 1224 940 1115Q940 1014 850 977Q821 965 785 965Z" />
<glyph unicode="&#x201d;" glyph-name="quotedblright" horiz-adv-x="1030" d="M254 1601Q342 1601 392 1540T443 1360Q443 1230 348 1105T156 979Q102 979 102 1025Q102 1056 143 1074T211 1113T255 1156Q291 1198 291 1230T278 1277T212 1308Q99 1342 99 1451Q99
1552 189 1589Q218 1601 254 1601ZM744 1601Q832 1601 882 1540T933 1360Q933 1230 838 1105T646 979Q592 979 592 1025Q592 1056 633 1074T701 1113T745 1156Q781 1198 781 1230T768 1277T702 1308Q589 1342 589 1451Q589 1552 679 1589Q708 1601 744 1601Z" />
<glyph unicode="&#x201e;" glyph-name="quotedblbase" horiz-adv-x="1030" d="M254 225Q342 225 392 164T443 -16Q443 -146 348 -271T156 -397Q102 -397 102 -351Q102 -320 143 -302T211 -263T255 -220Q291 -178 291 -146T278 -99T212 -68Q99 -34 99 75Q99 176
189 213Q218 225 254 225ZM744 225Q832 225 882 164T933 -16Q933 -146 838 -271T646 -397Q592 -397 592 -351Q592 -320 633 -302T701 -263T745 -220Q781 -178 781 -146T768 -99T702 -68Q589 -34 589 75Q589 176 679 213Q708 225 744 225Z" />
<glyph unicode="&#x2022;" glyph-name="bullet" horiz-adv-x="689" d="M340 424Q286 424 244 444T175 495Q122 556 122 637Q122 726 184 792Q249 861 348 861Q451 861 512 786Q566 720 566 633Q566 559 505 494Q440 424 340 424Z" />
<glyph unicode="&#x2039;" glyph-name="guilsinglleft" horiz-adv-x="692" d="M244 409T193 446T118 497T86 516T78 533Q78 549 110 566T195 619T306 702Q449 818 523 922L545 952Q568 981 580 981T609 973T625 943T607 873T556 769Q482 639 382 533Q484 424 536
331Q625 176 625 120Q625 101 609 93T583 85T568 88T558 98T546 116T507 164T417 256T302 360Z" />
<glyph unicode="&#x203a;" glyph-name="guilsinglright" horiz-adv-x="692" d="M462 409T513 446T588 497T620 516T628 533Q628 549 596 566T511 619T400 702Q257 818 183 922L161 952Q138 981 126 981T97 973T81 943T99 873T150 769Q224 639 324 533Q222 424
170 331Q81 176 81 120Q81 101 97 93T123 85T138 88T148 98T160 116T199 164T289 256T404 360Z" />
</font>
</defs>
</svg>
