<?xml version="1.0" standalone="no"?>
<!DOCTYPE svg PUBLIC "-//W3C//DTD SVG 1.1//EN" "http://www.w3.org/Graphics/SVG/1.1/DTD/svg11.dtd">
<svg xmlns="http://www.w3.org/2000/svg">
<defs >
<font id="TextMeOne" horiz-adv-x="485" ><font-face
    font-family="Text Me One"
    units-per-em="1000"
    panose-1="0 0 0 0 0 0 0 0 0 0"
    ascent="952"
    descent="-269"
    alphabetic="0" />
<glyph unicode=" " glyph-name="space" horiz-adv-x="500" />
<glyph unicode="!" glyph-name="exclam" horiz-adv-x="214" d="M102 700H112Q120 700 126 695T132 681V202Q132 194 126 189T112 183H102Q83 183 83 202V681Q83 700 102 700ZM70 111T106 111T153 102T164 62V49Q164 15 153 6T106 -3T60 6T50 49V62Q50 94 60 102ZM129
69T125 72T107 76T89 73T85 59V49Q85 38 89 35T107 32T125 35T129 49V59Q129 69 125 72Z" />
<glyph unicode="&quot;" glyph-name="quotedbl" horiz-adv-x="193" d="M132 730H143Q162 730 162 711V571Q162 552 143 552H132Q113 552 113 571V711Q113 730 132 730ZM54 730H64Q84 730 84 711V571Q84 552 64 552H54Q35 552 35 571V711Q35 730 54 730Z" />
<glyph unicode="#" glyph-name="numbersign" horiz-adv-x="601" d="M116 501H244L315 687Q322 700 333 700H344Q355 700 361 692T363 674L297 501H425L497 687Q504 700 515 700H526Q536 700 542 692T544 674L478 501H556Q575 501 575 481V472Q575 452 556 452H459L389
268H492Q500 268 505 262T511 248V239Q511 231 506 225T492 219H370L292 13Q286 0 272 0H261Q251 0 247 8T246 26L319 219H189L111 13Q105 0 92 0H82Q71 0 66 8T64 26L138 219H51Q43 219 38 225T32 239V248Q32 256 37 262T51 268H156L226 452H116Q108 452 103 458T97
472V481Q97 489 102 495T116 501ZM337 268L407 452H278L208 268H337Z" />
<glyph unicode="$" glyph-name="dollar" horiz-adv-x="561" d="M261 730H273Q292 730 292 711V699Q366 692 415 644T469 513Q469 505 464 499T450 493H441Q422 493 421 516Q417 575 382 609T292 649V372Q299 368 313 362Q391 325 432 282T473 174T427 60T292 1V-102Q292
-110 287 -116T273 -122H261Q253 -122 248 -116T242 -102V-1Q162 2 102 49T39 196Q39 204 44 210T58 217H67Q87 217 87 201Q87 159 102 128T142 80Q189 49 242 47V339Q149 386 108 428T67 535T113 646T242 699V711Q242 730 261 730ZM292 314V49Q358 57 391 90T424
172Q424 226 382 260Q350 285 321 299T292 314ZM182 643T151 611T119 536T150 460T242 396V649Q182 643 151 611Z" />
<glyph unicode="%" glyph-name="percent" horiz-adv-x="608" d="M371 732H383Q394 732 399 726T402 709L271 -4Q268 -20 252 -20H242Q232 -20 227 -14T222 3L351 716Q354 732 371 732ZM355 208Q355 311 456 311T558 208V103Q558 0 457 0T355 103V208ZM510 214Q510
263 457 263T403 214V97Q403 48 456 48T510 97V214ZM50 597Q50 700 151 700T253 597V492Q253 389 152 389T50 492V597ZM205 603Q205 652 152 652T98 603V486Q98 437 151 437T205 486V603Z" />
<glyph unicode="&amp;" glyph-name="ampersand" horiz-adv-x="561" d="M89 615T128 657T238 700T351 659T393 557Q393 457 262 374H256L236 404L235 408L236 410Q284 439 306 461Q346 502 346 550T318 625T243 653T168 627T139 552T217 395L488 15Q498 0 483 0L436
1Q428 1 423 9T413 27T361 101T257 245T175 360Q89 485 89 550ZM97 216V168Q97 43 245 43Q299 43 343 60Q351 63 355 58L377 31Q382 25 376 23Q318 -3 245 -3Q50 -3 50 169V208Q50 234 51 242T54 261T58 278T64 292Q69 303 85 319Q98 330 147 358Q155 362 158 358L177
330Q180 328 177 326Q120 297 108 272Q97 249 97 216ZM332 369H495Q507 369 507 349V340Q507 321 495 321H332Q320 321 320 340V349Q320 369 332 369Z" />
<glyph unicode="&apos;" glyph-name="quotesingle" horiz-adv-x="140" d="M64 730H74Q93 730 93 711V571Q93 552 74 552H64Q56 552 50 557T44 571V711Q44 719 50 724T64 730Z" />
<glyph unicode="(" glyph-name="parenleft" horiz-adv-x="327" d="M293 690Q301 690 306 684T312 670V661Q312 653 307 647T293 641Q220 641 162 590Q130 561 111 498T91 343Q91 47 295 47Q314 47 314 28V19Q314 -1 295 -1Q43 -1 43 344T293 690Z" />
<glyph unicode=")" glyph-name="parenright" horiz-adv-x="362" d="M64 690Q314 690 314 345T62 -1Q43 -1 43 19V28Q43 47 62 47Q266 47 266 343Q266 546 170 610Q124 641 64 641Q56 641 51 647T45 661V670Q45 678 50 684T64 690Z" />
<glyph unicode="*" glyph-name="asterisk" horiz-adv-x="354" d="M107 510Q98 503 91 503T73 518V517Q61 529 73 545L111 581H59Q51 581 46 587T40 601V610Q40 629 59 629H108L72 665Q60 677 72 693L79 699Q91 711 107 699L144 660V711Q144 719 150 724T164 730H173Q181
730 187 725T193 711V660L230 697Q238 704 246 704Q252 704 264 691Q276 675 264 663L229 629H278Q297 629 297 610V601Q297 593 292 587T278 581H222L261 540Q268 532 268 524Q268 518 255 506Q239 494 227 506L193 541V495Q193 487 187 482T173 476H164Q156 476
150 481T144 495V547L107 510ZM183 599V607L175 616Q174 616 174 617H163L155 609V600L164 590H173L183 599Z" />
<glyph unicode="+" glyph-name="plus" horiz-adv-x="479" d="M45 366H216V538Q216 557 235 557H243Q262 555 264 538V366H435Q454 366 454 347V338Q454 330 449 324T435 318H264V147Q262 127 244 127H234Q216 129 216 147V318H45Q36 318 31 324T25 338V347Q25
366 45 366Z" />
<glyph unicode="," glyph-name="comma" horiz-adv-x="109" d="M78 139H91Q110 139 107 120Q90 44 50 -123Q47 -136 31 -136H19Q-1 -136 2 -117L59 126Q63 139 78 139Z" />
<glyph unicode="-" glyph-name="hyphen" horiz-adv-x="351" d="M51 346H300Q320 346 320 327V317Q320 298 300 298H51Q31 298 31 317V327Q31 346 51 346Z" />
<glyph unicode="." glyph-name="period" horiz-adv-x="200" d="M61 111T97 111T144 102T155 62V49Q155 15 144 6T97 -3T51 6T41 49V62Q41 94 51 102ZM120 69T116 72T98 76T80 73T76 59V49Q76 38 80 35T98 32T116 35T120 49V59Q120 69 116 72Z" />
<glyph unicode="/" glyph-name="slash" horiz-adv-x="303" d="M283 699Q300 699 300 682Q300 678 298 673L37 13Q29 0 22 0H10Q-1 0 -6 6T-11 17T-9 26L251 686Q258 699 270 699H283Z" />
<glyph unicode="0" glyph-name="zero" horiz-adv-x="522" d="M245 700H257Q339 700 395 654T451 510V201Q451 101 397 51T254 -2H248Q158 0 104 50T50 201V510Q50 576 79 620Q131 700 245 700ZM259 652H243Q184 652 142 620T100 507V202Q100 46 245 46H257Q402
46 402 202V507Q402 587 360 619T259 652Z" />
<glyph unicode="1" glyph-name="one" horiz-adv-x="383" d="M274 657V21Q274 5 273 3T263 0H234Q227 0 226 3T224 13V641L52 505Q39 495 30 507L21 518Q17 523 17 529T26 542L198 682Q221 700 244 700H246Q274 699 274 657Z" />
<glyph unicode="2" glyph-name="two" horiz-adv-x="500" d="M245 700Q332 700 379 655T426 534Q426 492 400 438T349 348Q291 265 193 152L163 116Q138 86 125 68T108 47Q110 48 114 48H421Q441 48 441 29V20Q441 0 421 0H113Q97 0 88 2T69 15T59 47T102 122L144
170Q153 181 164 194Q190 224 211 251L238 283Q244 291 262 314T288 347T310 377T332 409T349 439T365 471Q377 502 377 529Q377 592 338 622T245 652Q149 652 112 562Q106 550 94 550H85Q65 550 65 568Q65 573 66 575Q86 634 134 667T245 700Z" />
<glyph unicode="3" glyph-name="three" horiz-adv-x="535" d="M54 154Q52 163 52 168T62 174L92 176H96Q99 176 101 165Q132 49 254 49Q321 49 364 84T407 187T364 298T233 341H174Q164 341 163 343T161 352V366Q161 368 161 374T162 384Q163 389 175 389H231Q310
389 352 422T395 513T357 611T250 652Q206 652 171 631T127 566Q126 559 119 559H86Q77 559 80 576Q89 629 136 664T250 700Q344 700 393 647T443 515Q443 466 418 426T340 365Q401 345 429 299T457 198T438 104T388 43Q329 0 250 0T120 41T54 154Z" />
<glyph unicode="4" glyph-name="four" horiz-adv-x="555" d="M343 700Q382 700 382 657V272H496Q514 272 514 253V244Q514 224 496 224H382V20Q382 0 362 0H353Q334 0 334 20V224H76Q43 224 35 246Q33 252 33 261T42 282L302 672Q321 700 343 700ZM334 272V635Q301
586 220 461T94 272H334Z" />
<glyph unicode="5" glyph-name="five" horiz-adv-x="568" d="M68 131Q68 149 85 149H98Q110 149 116 137Q136 88 177 67T264 45Q337 45 383 87T430 214V227Q430 320 414 352Q404 371 389 391Q359 431 284 431Q258 431 236 425T207 414T188 402T165 385T150 373Q136
363 123 363Q87 363 87 407V661Q87 697 118 700Q124 700 137 700H440Q448 700 454 695T460 681V671Q460 663 454 658T440 652H136V417Q150 434 193 457T280 480T356 470T408 445T442 405T463 360T474 311T478 266V215Q478 104 417 50T264 -4Q203 -4 149 28T69 123Q68
127 68 131Z" />
<glyph unicode="6" glyph-name="six" horiz-adv-x="584" d="M87 596T142 648T280 700T412 667T478 571Q479 562 474 556T460 548L449 547Q434 547 430 562Q419 605 381 628T282 652T178 613T135 498V378Q164 405 206 422T291 439Q375 439 429 391T483 261V182Q483
103 428 50T287 -3H279Q202 -3 145 49T87 187V499Q87 596 142 648ZM291 391Q208 391 135 320V190Q135 123 180 85T278 46H287Q349 46 392 84T435 182V260Q435 320 393 355T291 391Z" />
<glyph unicode="7" glyph-name="seven" horiz-adv-x="454" d="M56 700H391Q427 700 427 668Q426 650 416 631L123 11Q118 0 105 0H93Q73 0 73 18Q73 22 75 28L372 651H56Q48 651 42 656T36 670V681Q36 689 42 694T56 700Z" />
<glyph unicode="8" glyph-name="eight" horiz-adv-x="563" d="M462 518Q462 468 441 425T371 361Q426 344 453 295T481 176T434 55T269 0Q60 5 60 182Q60 247 86 295T166 361Q79 399 79 518Q79 608 130 653T269 700Q358 698 410 653T462 518ZM269 333Q178 333
144 292T109 182T152 81T269 48T387 80T432 181Q432 333 269 333ZM204 650T166 617T127 521T161 420T269 381T379 418T414 518T375 616T269 652Q204 650 166 617Z" />
<glyph unicode="9" glyph-name="nine" horiz-adv-x="542" d="M264 700H271Q349 700 407 648T465 510V188Q465 93 410 47T266 0T123 44T69 169V181Q69 190 75 195T89 201H98Q106 201 112 196T118 181V171Q118 112 158 81T266 49T375 82T417 189V315Q358 258 271
258T127 305T69 433V515Q69 595 124 647T264 700ZM272 652H264Q202 652 160 614T117 515V434Q117 375 162 341T273 306T417 374V507Q417 575 372 613T272 652Z" />
<glyph unicode=":" glyph-name="colon" horiz-adv-x="199" d="M60 441T96 441T143 432T154 392V379Q154 345 143 336T96 327T50 336T40 379V392Q40 424 50 432ZM60 111T96 111T143 102T154 62V49Q154 15 143 6T96 -3T50 6T40 49V62Q40 94 50 102ZM119 69T115 72T97
76T79 73T75 59V49Q75 38 79 35T97 32T115 35T119 49V59Q119 69 115 72ZM119 399T115 402T97 406T79 403T75 389V379Q75 368 79 365T97 362T115 365T119 379V389Q119 399 115 402Z" />
<glyph unicode=";" glyph-name="semicolon" horiz-adv-x="171" d="M78 139H91Q110 139 107 120Q90 44 50 -123Q47 -136 31 -136H19Q-1 -136 2 -117L59 126Q63 139 78 139ZM65 381T101 381T148 372T159 332V319Q159 285 148 276T101 267T55 276T45 319V332Q45 364
55 372ZM124 339T120 342T102 346T84 343T80 329V319Q80 308 84 305T102 302T120 305T124 319V329Q124 339 120 342Z" />
<glyph unicode="&lt;" glyph-name="less" horiz-adv-x="572" d="M480 504Q485 507 491 507T502 504Q516 500 516 482T502 458L107 320L504 188Q518 183 518 166Q518 161 516 155Q509 139 499 139T480 142L70 283Q50 291 50 319T71 356L480 504Z" />
<glyph unicode="=" glyph-name="equal" horiz-adv-x="579" d="M95 446H485Q504 446 504 427V418Q504 398 485 398H95Q75 398 75 418V427Q75 446 95 446ZM95 322H485Q504 322 504 303V294Q504 286 499 280T485 274H95Q86 274 81 280T75 294V303Q75 322 95 322Z" />
<glyph unicode="&gt;" glyph-name="greater" horiz-adv-x="568" d="M497 356Q518 348 518 320T498 283L88 142Q80 139 70 139T55 150T50 166Q50 183 64 188L461 320L66 458Q52 463 52 481T66 504Q71 507 77 507T88 504L497 356Z" />
<glyph unicode="?" glyph-name="question" horiz-adv-x="442" d="M207 686Q297 686 341 634T385 512T340 395T220 337Q219 337 218 338V195Q218 176 199 176H190Q170 176 170 195V343Q170 366 180 374T216 384Q268 389 302 423T337 511T304 601T207 638Q117 638
86 566Q80 554 68 554H59Q39 554 39 570Q39 574 40 579Q60 634 105 660T207 686ZM155 111T191 111T238 102T249 62V49Q249 15 238 6T191 -3T145 6T135 49V62Q135 94 145 102ZM214 69T210 72T192 76T174 73T170 59V49Q170 38 174 35T192 32T210 35T214 49V59Q214
69 210 72Z" />
<glyph unicode="@" glyph-name="at" horiz-adv-x="481" d="M20 429T82 479T235 530T390 482T453 341V173Q453 136 430 112T376 87T319 109Q284 80 234 80T152 109T121 193V323Q121 378 153 407T238 436T323 407T356 323V163Q356 153 363 146T380 138T398 147T406
167V320Q406 404 358 443T239 482T117 445T67 342V170Q67 107 118 68Q170 27 234 27T359 57Q373 23 375 11Q311 -21 233 -21Q141 -21 81 31T20 169V343Q20 429 82 479ZM307 323Q307 387 239 387T170 323V193Q170 128 239 128Q284 128 307 163V323Z" />
<glyph unicode="A" glyph-name="A" horiz-adv-x="588" d="M246 674Q255 701 284 701T324 673L554 27Q555 24 555 20Q555 0 535 0H523Q510 0 504 13L286 634L67 13Q61 0 48 0H36Q16 0 16 20Q16 24 17 27L246 674ZM199 308H372Q380 308 386 303T392 288V279Q392
270 386 265T372 259H199Q180 259 180 279V288Q180 308 199 308Z" />
<glyph unicode="B" glyph-name="B" horiz-adv-x="508" d="M94 700H202Q322 700 377 667Q454 620 454 517Q452 469 427 426T346 363Q396 352 428 322T472 260T483 186T463 99T403 32Q346 0 241 0H96Q70 0 61 9T51 46V656Q51 682 59 691T94 700ZM201 650H101V49H257Q433
49 433 192Q433 251 385 294T248 338H181Q170 338 165 338T154 344T147 363T157 381T187 385H250Q333 385 368 426T404 518Q404 571 370 606Q329 650 201 650Z" />
<glyph unicode="C" glyph-name="C" horiz-adv-x="564" d="M201 697T228 701T282 706T336 702T395 683T454 646T500 584T525 492Q525 470 505 470H496Q478 470 476 488Q471 530 455 562T418 611T370 639Q330 656 296 656T239 652T188 635T139 601T104 540T89 450V254Q89
203 105 164T143 104T196 69Q244 48 286 48T357 55T416 82Q478 121 478 227Q478 244 483 249T498 254H506Q526 254 526 234Q526 173 507 127T461 58T400 20Q346 -1 306 -1T236 4T170 26T106 69T59 142T40 251V454Q40 517 58 565T103 638T165 680Z" />
<glyph unicode="D" glyph-name="D" horiz-adv-x="576" d="M81 700H243Q391 700 440 628Q465 592 474 549T483 439V247Q483 119 430 60T249 0H82Q42 0 42 41V660Q42 682 50 691T81 700ZM243 651H92V49H249Q344 49 389 94T434 241V442Q434 552 394 601T243 651Z" />
<glyph unicode="E" glyph-name="E" horiz-adv-x="500" d="M102 700H451Q459 700 465 694T471 680V671Q471 662 465 657T451 651H112V49H451Q459 49 465 44T471 29V20Q471 12 465 6T451 0H101Q77 0 70 10T62 40V661Q62 681 71 690T102 700ZM172 388H386Q395 388
400 382T406 368V359Q406 339 386 339H172Q152 339 152 359V368Q152 376 157 382T172 388Z" />
<glyph unicode="F" glyph-name="F" horiz-adv-x="484" d="M99 700H432Q441 700 446 694T452 680V671Q452 651 432 651H111V20Q111 12 106 6T91 0H81Q72 0 67 6T61 20V660Q61 679 68 689T99 700ZM151 388H376Q384 388 390 382T396 368V359Q396 350 390 345T376
339H151Q132 339 132 359V368Q132 376 137 382T151 388Z" />
<glyph unicode="G" glyph-name="G" horiz-adv-x="581" d="M201 697T228 701T282 706T336 702T395 683T454 646T500 584T525 492Q525 470 505 470H496Q478 470 476 488Q471 530 455 562T418 611T370 639Q330 656 296 656T239 652T188 635T139 601T104 540T89 450V254Q89
203 104 164T140 104T189 69T240 52T284 48T328 51T378 67T427 100T462 158T477 244V302H312Q292 302 292 322V331Q292 339 297 345T312 351H486Q526 351 526 308V243Q526 182 508 136T463 64T402 24Q345 -1 284 -1Q220 -1 175 21T103 69T58 142T40 251V454Q40
517 58 565T103 638T165 680Z" />
<glyph unicode="H" glyph-name="H" horiz-adv-x="547" d="M451 700H460Q469 700 474 694T480 680V20Q480 12 475 6T460 0H451Q443 0 437 6T431 20V680Q431 688 437 694T451 700ZM66 700H75Q84 700 89 694T95 680V20Q95 12 90 6T75 0H66Q58 0 52 6T46 20V680Q46
688 52 694T66 700ZM135 393H393Q401 393 407 387T413 373V363Q413 355 407 349T393 343H135Q127 343 121 349T115 363V373Q115 381 121 387T135 393Z" />
<glyph unicode="I" glyph-name="I" horiz-adv-x="200" d="M94 700H103Q111 700 117 694T123 680V20Q123 12 117 6T103 0H94Q85 0 80 6T74 20V680Q74 688 79 694T94 700Z" />
<glyph unicode="J" glyph-name="J" horiz-adv-x="487" d="M74 700H387Q427 700 427 663V218Q427 118 376 59T233 0Q167 0 114 29T35 122Q33 126 33 129Q33 144 47 149Q59 153 66 153T79 141Q91 110 113 89T162 60Q203 49 233 49Q377 49 377 217V650H74Q55 650
55 670V680Q55 688 60 694T74 700Z" />
<glyph unicode="K" glyph-name="K" horiz-adv-x="529" d="M464 700H475Q484 700 490 694Q499 684 492 671L317 357L505 29Q508 23 508 18Q508 0 488 0H477Q466 0 462 6L290 307L138 27Q120 -3 98 -3Q60 -3 60 37V680Q60 688 65 694T80 700H90Q99 700 104 694T110
680V80L308 442L450 694Q454 700 464 700Z" />
<glyph unicode="L" glyph-name="L" horiz-adv-x="499" d="M71 700H81Q89 700 95 694T101 680V49H435Q454 49 454 29V20Q454 12 449 6T435 0H92Q51 0 51 43V680Q51 688 57 694T71 700Z" />
<glyph unicode="M" glyph-name="M" horiz-adv-x="650" d="M538 703Q554 703 566 693T578 660V20Q578 12 573 6T558 0H549Q540 0 535 6T529 20V615L355 185Q344 159 319 156Q290 156 278 184L94 619V20Q94 12 88 6T74 0H64Q56 0 51 6T45 20V660Q45 703 84 703Q111
703 124 673L316 220L498 673Q512 703 538 703Z" />
<glyph unicode="N" glyph-name="N" horiz-adv-x="600" d="M89 702Q116 702 131 678Q324 358 486 69V680Q486 688 491 694T506 700H516Q525 700 530 694T536 680V37Q536 17 525 8T492 -2T457 20L102 629V20Q102 12 96 6T82 0H71Q63 0 58 6T52 20V661Q52 702 89 702Z" />
<glyph unicode="O" glyph-name="O" horiz-adv-x="606" d="M211 692T238 696T293 700T350 696T413 675T475 634T519 562T537 454V251Q537 188 519 140T474 66T412 24Q356 -1 294 -1Q229 -1 184 21T112 69T68 142T50 251V454Q50 517 68 564T113 636T175 676ZM359
644T338 647T294 651T249 648T199 632T149 599T114 540T99 450V254Q99 203 113 164T149 104T199 69T249 52T294 48T338 52T389 69T438 103T473 164T488 254V450Q488 501 473 539T437 598T388 631Z" />
<glyph unicode="P" glyph-name="P" horiz-adv-x="498" d="M98 700H253Q323 700 382 662Q413 642 432 604T451 514Q451 435 405 382T245 328H179Q170 328 165 334T159 348V357Q159 377 179 377H233Q342 377 374 423Q401 461 401 515Q401 586 356 618T248 650H104V20Q104
12 98 6T84 0H74Q66 0 60 6T54 20V656Q54 682 63 691T98 700Z" />
<glyph unicode="Q" glyph-name="Q" horiz-adv-x="577" d="M266 706T294 706T350 701T413 679T474 636T519 563T537 454V251Q537 152 491 87L545 25Q551 17 551 11Q551 0 536 0H510Q502 0 495 7L457 51Q392 -1 294 -1Q229 -1 184 21T112 69T68 142T50 251V454Q50
517 68 565T113 639T174 681T238 701ZM360 648T338 652T294 656T249 652T198 635T149 601T114 540T99 450V254Q99 203 113 164T149 104T199 69Q244 48 294 48Q373 48 423 90L311 223Q300 235 300 243Q300 253 322 253H338Q347 253 354 246L456 127Q488 178 488
254V450Q488 501 473 540T437 600T388 635Z" />
<glyph unicode="R" glyph-name="R" horiz-adv-x="489" d="M97 700H234Q476 700 476 510Q476 436 429 379T281 321H270L486 37Q498 19 498 15Q498 0 484 0H464Q451 0 445 8L214 312Q203 328 203 338Q203 370 238 370H282Q324 370 354 384T398 420Q426 463 426 509Q426
650 233 650H105V20Q105 12 100 6T85 0H75Q66 0 61 6T55 20V653Q55 680 63 690T97 700Z" />
<glyph unicode="S" glyph-name="S" horiz-adv-x="557" d="M85 606T138 654T282 702T436 654T503 509Q503 501 497 495T483 488H473Q466 488 460 493T453 507Q450 583 402 617T287 652Q215 652 175 619T135 538T163 460Q202 421 308 380Q434 330 476 280Q508 242
508 171T451 50T287 -1Q208 -1 138 42Q101 65 78 106T52 202Q52 223 72 223H81Q99 223 101 204Q103 160 123 128T173 79Q231 48 300 48T414 84T459 176Q459 232 423 262Q394 286 360 303Q316 324 222 362Q150 394 118 435T85 541Z" />
<glyph unicode="T" glyph-name="T" horiz-adv-x="500" d="M241 624H251Q271 624 271 605V20Q271 12 266 6T251 0H241Q232 0 227 6T221 20V605Q221 624 241 624ZM25 700H469Q478 700 483 694T489 680V669Q489 651 469 651H25Q5 651 5 669V680Q5 688 11 694T25 700Z" />
<glyph unicode="U" glyph-name="U" horiz-adv-x="562" d="M480 700H490Q498 700 504 694T510 680V251Q510 179 486 127T424 48Q354 -1 281 -1H269Q196 -1 124 48Q86 74 63 126T39 251V680Q39 688 44 694T59 700H69Q78 700 83 694T89 680V251Q89 192 108 150T158
86Q212 50 271 48H280Q337 50 392 87Q422 107 441 149T460 251V680Q460 688 465 694T480 700Z" />
<glyph unicode="V" glyph-name="V" horiz-adv-x="551" d="M503 700H515Q535 700 535 680Q535 676 534 673L306 26Q297 -1 267 -1T227 27L-3 673Q-4 676 -4 680Q-4 700 16 700H28Q40 700 47 687L266 63L484 687Q490 700 503 700Z" />
<glyph unicode="W" glyph-name="W" horiz-adv-x="777" d="M730 700H741Q752 700 756 694T761 683T760 675L581 32Q571 -1 540 -1T499 32L376 472L253 30Q242 -1 213 -1T172 30L-17 674Q-18 678 -18 683T-14 694T2 700H12Q24 700 31 686L213 68L342 529Q350 557
377 557T411 528Q432 452 475 299T540 69L711 685Q713 690 718 695T730 700Z" />
<glyph unicode="X" glyph-name="X" horiz-adv-x="489" d="M418 700H429Q441 700 446 690T446 670V671L277 363Q276 362 274 358T269 352L275 344L456 29Q459 24 459 19T455 7T439 0H427Q416 0 412 6L239 306Q229 289 160 178T55 9Q48 0 38 0H26Q13 0 8 10T9 31L205
344V343Q209 351 212 354Q208 358 207 361L0 669Q-3 674 -3 679T1 692T17 700H28Q38 700 45 691L241 400L402 694Q406 700 418 700Z" />
<glyph unicode="Y" glyph-name="Y" horiz-adv-x="436" d="M391 700H402Q414 700 418 693T422 680T419 670V671L250 363Q242 351 239 348V20Q239 12 233 6T219 0H209Q201 0 195 6T189 20V349Q184 354 180 361L-2 670Q-5 675 -5 680T-1 692T15 700H27Q37 700 44
691L214 399L375 694Q379 700 391 700Z" />
<glyph unicode="Z" glyph-name="Z" horiz-adv-x="552" d="M43 37Q43 50 59 74V75L423 651H51Q43 651 37 656T31 671V680Q31 688 37 694T51 700H441Q483 700 483 665Q483 647 469 629V630L466 627L467 625L101 49H494Q502 49 508 44T514 29V20Q514 12 508 6T494
0H83Q43 0 43 37Z" />
<glyph unicode="[" glyph-name="bracketleft" horiz-adv-x="400" d="M146 699H286Q305 699 305 680V670Q305 651 286 651H157V48H286Q305 48 305 29V20Q305 0 286 0H147Q109 0 109 38L108 659Q108 699 146 699Z" />
<glyph unicode="\" glyph-name="backslash" horiz-adv-x="307" d="M15 684H26Q38 684 45 671L294 26Q295 22 295 18T291 7T276 0H266Q253 0 247 13L-4 658Q-5 662 -5 666T-1 677T15 684Z" />
<glyph unicode="]" glyph-name="bracketright" horiz-adv-x="403" d="M127 699H267Q305 699 305 659V39Q305 0 266 0H127Q108 0 108 20V29Q108 48 127 48H256V651H127Q108 651 108 670V680Q108 699 127 699Z" />
<glyph unicode="^" glyph-name="asciicircum" horiz-adv-x="405" d="M165 711Q172 732 202 732T239 711L389 288Q393 278 393 272Q393 256 374 256H362Q353 256 347 272L202 667L58 272Q53 256 43 256H31Q12 256 12 272Q12 278 16 288L165 711Z" />
<glyph unicode="_" glyph-name="underscore" horiz-adv-x="459" d="M55 39H398Q406 39 412 34T418 20V10Q418 2 412 -3T398 -9H55Q47 -9 41 -4T35 10V20Q35 28 41 33T55 39Z" />
<glyph unicode="`" glyph-name="grave" horiz-adv-x="368" d="M98 712Q98 732 125 732Q139 732 143 728T155 714L262 578Q267 572 267 567T262 554T242 546T212 563L105 696Q98 704 98 712Z" />
<glyph unicode="a" glyph-name="a" horiz-adv-x="504" d="M73 416T121 459T246 502T370 459T417 337V117Q417 78 423 64T449 44L460 41Q475 38 475 28V17Q475 0 455 0Q406 0 388 29T370 118V337Q370 394 335 424T246 455T156 425T120 337V166Q120 107 149 77T234
47T326 92Q333 101 345 101T363 86Q366 74 360 65Q317 0 237 0T115 43T73 165V337Q73 416 121 459Z" />
<glyph unicode="b" glyph-name="b" horiz-adv-x="461" d="M69 730H77Q85 730 91 725T97 711V452Q149 502 227 502T349 459T394 337V163Q394 84 346 41T221 -2T97 41T49 163V711Q49 719 55 724T69 730ZM229 454Q143 454 97 393V164Q97 107 132 77T221 46T310 76T346
164V335Q346 393 314 423T229 454Z" />
<glyph unicode="c" glyph-name="c" horiz-adv-x="505" d="M70 416T118 459T243 502T367 459T414 337Q414 318 394 318H386Q367 318 367 337Q367 394 332 424T243 454T154 424T118 336V164Q118 107 153 77T243 46T331 75T367 160Q367 168 372 174T386 180H394Q403
180 408 174T414 160Q412 84 365 41T243 -2T119 41T70 163V337Q70 416 118 459Z" />
<glyph unicode="d" glyph-name="d" horiz-adv-x="510" d="M388 732H400Q418 732 418 713V163Q418 85 371 42T246 -2T121 41T73 163V337Q73 414 121 457T246 500Q278 500 314 488T370 461V713Q370 732 388 732ZM370 406Q312 452 252 452T157 422T121 335V164Q121
106 156 76T246 46T335 76T370 164V406Z" />
<glyph unicode="e" glyph-name="e" horiz-adv-x="490" d="M70 416T118 459T243 502T367 459T414 337V277Q414 234 373 234H157Q148 234 143 240T137 254V262Q137 270 142 276T157 282H367V336Q367 393 332 423T243 454T154 424T118 336V164Q118 107 153 77T242
46T331 75T367 160Q367 168 372 174T386 180H394Q403 180 408 174T414 160Q413 83 366 41T243 -2T119 41T70 163V337Q70 416 118 459Z" />
<glyph unicode="f" glyph-name="f" horiz-adv-x="336" d="M158 500H264Q272 500 277 494T283 480V476Q283 468 278 462T264 456H158L157 19Q157 0 138 0H130Q110 0 110 19L111 577Q110 651 149 691T258 732Q303 732 303 712V704Q303 697 298 691T284 685H259Q212
685 185 657T158 576V500ZM46 500H70Q79 500 84 494T90 480V476Q90 468 85 462T70 456H46Q37 456 32 462T26 476V480Q26 488 31 494T46 500Z" />
<glyph unicode="g" glyph-name="g" horiz-adv-x="518" d="M70 415T118 458T243 501T367 458T414 336V-76Q414 -161 369 -205T249 -250T127 -208T80 -90Q80 -72 99 -72H107Q127 -72 127 -90Q129 -145 162 -174T249 -203T334 -171T367 -75V36Q313 -3 240 -3T118
40T70 162V336Q70 415 118 458ZM367 393T332 423T243 454T153 424T118 335V163Q118 106 154 76T241 45T324 61T367 98V336Q367 393 332 423Z" />
<glyph unicode="h" glyph-name="h" horiz-adv-x="476" d="M244 502Q313 502 356 458T400 337V20Q400 0 381 0H372Q352 0 352 20V336Q352 393 321 424T238 455T147 417Q138 408 130 408Q112 408 111 428Q111 435 115 443Q128 467 165 484T244 502ZM78 731H86Q94
731 100 726T106 711V20Q106 11 100 6T86 0H78Q70 0 64 5T58 20V711Q58 720 64 725T78 731Z" />
<glyph unicode="i" glyph-name="i" horiz-adv-x="204" d="M91 501H108Q120 501 124 496T128 481V20Q128 11 122 6T108 0H91Q83 0 77 5T71 20V481Q71 494 76 497T91 501ZM62 732T98 732T145 723T156 683V670Q156 636 145 627T98 618T52 627T42 670V683Q42 715 52
723ZM121 690T117 693T99 697T81 694T77 680V670Q77 659 81 656T99 653T117 656T121 670V680Q121 690 117 693Z" />
<glyph unicode="j" glyph-name="j" horiz-adv-x="248" d="M1 -203Q111 -203 111 -86V480Q111 489 117 494T131 500H139Q147 500 153 495T159 480V-86Q159 -250 2 -250Q-2 -250 -7 -250Q-26 -250 -26 -231V-223Q-26 -214 -20 -209T-8 -203T1 -203ZM101 732T137
732T184 723T195 683V670Q195 636 184 627T137 618T91 627T81 670V683Q81 715 91 723ZM160 690T156 693T138 697T120 694T116 680V670Q116 659 120 656T138 653T156 656T160 670V680Q160 690 156 693Z" />
<glyph unicode="k" glyph-name="k" horiz-adv-x="471" d="M78 730H87Q106 730 106 711V70Q128 104 237 289T358 494Q362 500 373 500H395Q408 500 408 490Q408 480 334 358L277 264L408 24Q413 16 413 10Q413 0 400 0H378Q370 0 362 10L249 216Q145 42 134 26T114
5T94 0Q59 0 59 39V711Q59 730 78 730Z" />
<glyph unicode="l" glyph-name="l" horiz-adv-x="294" d="M90 730H98Q117 730 117 711V154Q117 47 208 47H224Q232 47 237 41T243 28V20Q243 0 207 0Q139 0 104 39T70 153V711Q70 730 90 730Z" />
<glyph unicode="m" glyph-name="m" horiz-adv-x="779" d="M545 502Q619 502 659 459T699 337V20Q699 0 680 0H672Q652 0 652 20V336Q652 395 624 425T542 455T446 410Q435 401 427 401Q409 401 408 421Q408 429 412 437Q433 466 468 484T545 502ZM85 499H93Q101
499 107 494T113 479V20Q113 11 107 6T93 0H85Q66 0 66 20V479Q66 499 85 499ZM122 437Q168 502 247 502T366 459T406 337V20Q406 0 387 0H379Q359 0 359 20V336Q359 395 331 425T250 455T156 410Q145 401 137 401Q119 401 118 421Q118 429 122 437Z" />
<glyph unicode="n" glyph-name="n" horiz-adv-x="479" d="M248 502Q323 502 363 463T403 347V20Q403 0 384 0H376Q356 0 356 20V336Q356 455 247 455Q190 455 150 410Q139 401 131 401Q113 401 112 421Q112 429 116 437Q137 466 172 484T248 502ZM79 499H87Q95
499 101 494T107 479V20Q107 11 101 6T87 0H79Q71 0 65 5T59 20V479Q59 488 65 493T79 499Z" />
<glyph unicode="o" glyph-name="o" horiz-adv-x="504" d="M70 416T118 459T243 502T367 459T414 337V163Q414 85 367 42T244 -2T119 41T70 163V337Q70 416 118 459ZM367 394T332 424T243 455T153 425T117 337V163Q117 106 153 76T243 45T332 75T367 163V337Q367
394 332 424Z" />
<glyph unicode="p" glyph-name="p" horiz-adv-x="510" d="M58 415T105 458T229 502T354 459T402 337V163Q402 86 354 42T230 -2T105 39V-231Q105 -250 86 -250H77Q58 -250 58 -231V337Q58 415 105 458ZM284 454T230 454T141 424T105 336V93Q166 46 225 46T319
77T355 165V336Q355 394 320 424Z" />
<glyph unicode="q" glyph-name="q" horiz-adv-x="516" d="M144 502T221 502T345 459T393 337V-231Q393 -239 387 -244T373 -250H365Q357 -250 351 -245T345 -231V39Q292 -2 219 -2T97 42T48 163V337Q48 416 96 459ZM275 454T221 454T132 424T96 336V165Q96 108
131 77T227 46T328 87Q333 95 345 93V336Q345 393 310 423Z" />
<glyph unicode="r" glyph-name="r" horiz-adv-x="291" d="M240 502Q259 502 259 482V475Q259 467 254 461T240 455Q183 455 149 426T115 337V20Q115 11 109 6T95 0H88Q80 0 74 5T68 20V337Q68 419 114 460T240 502Z" />
<glyph unicode="s" glyph-name="s" horiz-adv-x="455" d="M75 426T113 464T228 502T346 465T387 354Q387 346 382 341T368 335H359Q351 335 346 340T340 353Q340 454 227 454Q175 454 149 429T122 366T147 306T244 269T355 225T395 136T352 37T231 -3T105 36T57
153Q57 174 77 174H85Q104 174 104 154Q104 45 233 45Q291 45 319 71T348 137T318 193T214 227T107 278T75 369Z" />
<glyph unicode="t" glyph-name="t" horiz-adv-x="336" d="M113 730H121Q140 730 140 711L137 154Q138 103 165 75T238 47H263Q271 47 276 41T282 28V20Q282 0 237 0Q171 0 131 40T90 153L93 711Q95 730 113 730ZM36 500H60Q69 500 74 494T80 480V474Q80 466 75
460T60 454H36Q27 454 22 460T16 474V480Q16 488 21 494T36 500ZM170 500H244Q252 500 257 494T263 480V474Q263 466 258 460T244 454H170Q162 454 156 460T150 474V480Q150 488 156 494T170 500Z" />
<glyph unicode="u" glyph-name="u" horiz-adv-x="498" d="M90 502H98Q118 502 118 482V166Q118 107 147 77T231 47T324 90Q333 101 343 101Q362 101 362 79Q362 70 357 63Q337 35 301 18T225 0Q156 0 114 43T71 165V482Q71 502 90 502ZM386 500H396Q415 500 415
480V117Q415 78 421 64T447 44L458 41Q473 38 473 28V17Q473 0 453 0Q404 0 386 29T367 118V480Q367 500 386 500Z" />
<glyph unicode="v" glyph-name="v" horiz-adv-x="488" d="M409 500H418Q429 500 433 494T438 483T437 474L272 27Q260 -1 233 -1T197 26L32 474Q31 478 31 482T35 493T51 500H60Q72 500 79 487L235 60L390 487Q396 500 409 500Z" />
<glyph unicode="w" glyph-name="w" horiz-adv-x="585" d="M530 500H539Q548 500 553 494T558 483T549 440T504 250T448 23Q440 -2 411 -2T371 28L281 322Q217 118 191 28Q180 -2 151 -2T114 23L4 476Q3 479 3 483T7 494T22 500H31Q47 500 50 485L152 62L250 379Q256
407 280 407T314 380Q346 269 410 62L513 485Q517 500 530 500Z" />
<glyph unicode="x" glyph-name="x" horiz-adv-x="442" d="M351 500H362Q373 500 378 490T378 469Q356 435 311 365T244 261V262Q238 253 237 252L243 242V243L385 31Q388 26 388 21Q388 0 368 0H358Q349 0 341 8L209 209Q187 175 143 109T76 8Q68 0 59 0H49Q36
0 33 7T29 20T32 31L174 244V243L180 252Q175 259 173 262L39 469Q34 479 39 489T55 500H65Q74 500 82 492L209 296L335 492Q343 500 351 500Z" />
<glyph unicode="y" glyph-name="y" horiz-adv-x="508" d="M383 500H392Q411 500 411 480V-54Q411 -140 366 -185T242 -230T122 -189T77 -70Q77 -51 96 -51H105Q124 -51 124 -70Q126 -125 159 -154T245 -183Q364 -183 364 -55V480Q364 500 383 500ZM87 502H95Q115
502 115 482V166Q115 107 144 77T228 47T321 90Q330 101 340 101Q359 101 359 79Q359 70 354 63Q334 35 298 18T222 0Q153 0 111 43T68 165V482Q68 502 87 502Z" />
<glyph unicode="z" glyph-name="z" horiz-adv-x="456" d="M74 500H339Q379 500 379 465Q379 450 362 427L110 47H365Q384 47 384 28V20Q384 0 365 0H91Q74 0 64 10T54 35T71 74L320 453H74Q55 453 55 472V480Q55 500 74 500Z" />
<glyph unicode="{" glyph-name="braceleft" horiz-adv-x="339" d="M291 687Q302 687 306 681T311 671Q311 652 302 646T288 639Q151 636 151 515V487Q151 481 151 475Q151 372 103 341Q139 318 146 271Q151 233 151 197V170Q151 49 291 46Q299 46 305 41T311 27L307
12Q303 -2 288 -2Q103 1 103 170V195Q103 200 103 205Q103 309 40 309H35Q21 309 10 317T-2 342T9 366T35 374H40Q103 374 103 477Q103 482 103 487V515Q103 684 291 687Z" />
<glyph unicode="|" glyph-name="bar" horiz-adv-x="211" d="M95 730H107Q126 730 126 711V-72Q126 -80 121 -86T107 -92H95Q87 -92 82 -86T76 -72V711Q76 730 95 730Z" />
<glyph unicode="}" glyph-name="braceright" horiz-adv-x="339" d="M222 515V487Q222 482 222 477Q222 374 285 374H291Q304 374 315 366T327 342T316 318T291 309H285Q222 309 222 205Q222 200 222 195V170Q222 1 34 -2Q15 -2 15 18L19 32Q20 38 26 42T37 46Q175
49 175 170V197Q175 309 222 341Q199 355 188 385T175 430T174 457T175 487V515Q175 636 34 639Q23 639 19 645T14 655Q14 659 19 673Q24 687 37 687Q222 684 222 515Z" />
<glyph unicode="~" glyph-name="asciitilde" horiz-adv-x="600" d="M453 508H477Q490 508 490 491Q490 436 460 407T388 378T306 399T230 442T171 463T129 447T109 396Q109 378 94 378H79Q66 378 66 396Q66 447 96 476T169 506T281 464T378 422Q444 422 444 491Q444
508 453 508Z" />
<glyph unicode="&#xa1;" glyph-name="exclamdown" horiz-adv-x="222" d="M112 -200H102Q83 -200 83 -181V298Q83 317 102 317H112Q120 317 126 312T132 298V-181Q132 -189 126 -194T112 -200ZM142 389T106 389T60 397T50 438V451Q50 485 60 494T106 503T153 494T164
451V438Q164 408 153 399ZM85 430T89 427T106 424T124 427T129 441V451Q129 462 125 465T107 468T89 465T85 451V441Q85 430 89 427Z" />
<glyph unicode="&#xa2;" glyph-name="cent" horiz-adv-x="505" d="M242 684H249Q257 684 263 679T269 665V501Q335 494 374 452T414 337Q414 318 394 318H386Q367 318 367 337Q367 386 340 415T269 452V47Q312 54 339 83T367 160Q367 168 372 174T386 180H394Q403
180 408 174T414 160Q412 90 373 48T269 -1V-164Q269 -172 263 -177T249 -183H242Q234 -183 228 -178T222 -164V-1Q153 5 112 48T70 163V337Q70 410 111 452T222 501V665Q222 673 228 678T242 684ZM118 164Q118 112 146 83T222 47V453Q175 447 147 417T118 336V164Z"
/>
<glyph unicode="&#xa3;" glyph-name="sterling" horiz-adv-x="600" d="M243 651T215 629T176 576T166 507V50L476 51Q484 51 490 45T496 30V20Q494 2 476 0L160 1Q133 1 125 10T116 45L115 512Q115 596 157 648T292 700Q351 700 413 669Q435 658 442 650T443 633L430
612Q425 602 392 620Q338 651 291 651ZM47 379H93Q101 379 107 373T113 359V350Q113 342 107 337T93 331H47Q28 331 28 350V359Q28 367 33 373T47 379ZM198 379H395Q404 379 409 373T415 359V350Q415 331 395 331H198Q190 331 184 336T178 350V359Q178 367 184
373T198 379Z" />
<glyph unicode="&#xa4;" glyph-name="currency" horiz-adv-x="609" d="M65 536Q60 543 60 550T68 566T84 575T99 570L174 493Q230 539 304 539T434 494L510 570Q515 575 524 575T541 568T549 551T544 536L467 460Q512 404 512 331T467 201L544 125Q549 118 549
111T541 95T525 86T510 91L434 168Q378 124 306 124T175 168L99 91Q92 86 85 86Q75 86 65 96Q60 104 60 111T65 125L142 201Q97 258 97 331T141 460L65 536ZM464 397T417 444T305 491T193 445T146 332T192 219T304 173T417 219T464 331Z" />
<glyph unicode="&#xa5;" glyph-name="yen" horiz-adv-x="436" d="M43 357H176L0 654Q-3 659 -3 664T1 676T17 684H28Q40 684 45 675L212 391L367 674Q372 684 385 684H396Q408 684 412 677T416 665T413 655L247 357H376Q396 357 396 338V329Q396 321 391 315T376
309H235V280H376Q385 280 390 274T396 260V251Q396 243 391 237T376 231H235V20Q235 0 216 0H207Q199 0 193 5T187 20V231H43Q35 231 30 237T24 251V260Q24 268 29 274T43 280H187V309H43Q35 309 30 315T24 329V338Q24 357 43 357Z" />
<glyph unicode="&#xa6;" glyph-name="brokenbar" horiz-adv-x="200" d="M93 684H102Q121 684 121 665V425Q121 417 116 411T102 405H93Q84 405 79 411T73 425V665Q73 684 93 684ZM93 282H102Q110 282 115 276T121 262V22Q121 3 102 3H93Q73 3 73 22V262Q73 270
78 276T93 282Z" />
<glyph unicode="&#xa7;" glyph-name="section" horiz-adv-x="474" d="M75 648T119 690T250 732T385 689T434 563Q434 555 429 549T415 543H406Q386 543 386 566Q386 624 350 653T255 683T162 657T127 590Q127 540 174 506Q206 483 255 456T311 425T343 406T375
384T398 363T419 336Q434 298 434 269Q434 216 400 176T308 120Q367 87 389 56T412 -20Q412 -88 360 -128T231 -168T97 -124T40 0Q40 8 45 14T59 20H68Q88 20 88 -3Q88 -55 130 -88T228 -122T325 -96T365 -22Q365 27 320 60Q284 85 211 118T93 196T47 296T77 395T163
454Q115 487 95 518T75 598ZM96 307Q96 247 146 208Q184 180 243 153Q307 156 347 187T387 268Q387 321 344 352Q317 370 290 384L216 422Q165 420 131 387T96 307Z" />
<glyph unicode="&#xa8;" glyph-name="dieresis" horiz-adv-x="361" d="M205 651T214 659T255 667T298 659T308 622V610Q308 580 298 572T256 563T214 571T205 610V622Q205 651 214 659ZM39 651T48 659T89 667T132 659T142 622V610Q142 580 132 572T90 563T48 571T39
610V622Q39 651 48 659ZM110 629T106 632T90 635T75 633T71 620V610Q71 600 74 598T90 595T106 597T110 610V620Q110 629 106 632ZM276 629T272 632T256 635T241 633T237 620V610Q237 600 240 598T256 595T272 597T276 610V620Q276 629 272 632Z" />
<glyph unicode="&#xa9;" glyph-name="copyright" horiz-adv-x="620" d="M179 756T312 756T522 680T600 478V278Q600 153 523 77T313 0T101 77T20 278V478Q20 607 99 681ZM152 527T195 566T309 605T421 566T464 455Q464 438 446 438H438Q431 438 426 443T421 455Q421
506 390 533T309 561T228 534T196 454V298Q196 246 228 219T309 191T389 217T421 294Q421 312 438 312H446Q464 312 464 294Q462 225 420 186T309 147T196 187T152 297V455Q152 527 195 566ZM412 708T312 708T140 652T68 492V264Q68 161 140 105T312 48T482 104T552
264V492Q552 596 482 652Z" />
<glyph unicode="&#xaa;" glyph-name="ordfeminine" horiz-adv-x="504" d="M376 399Q322 399 322 465V616Q322 651 302 671T247 691T191 670T171 614V517Q171 435 247 435Q270 435 293 449Q298 453 301 447L310 424Q314 417 310 414Q280 394 236 394T161 423T130
507V624Q130 678 161 705T247 732Q363 732 363 617V488Q363 448 372 441Q383 432 396 437T409 435V410Q409 406 401 403T376 399Z" />
<glyph unicode="&#xab;" glyph-name="guillemotleft" horiz-adv-x="558" d="M481 530Q487 533 495 533T510 526T517 508T505 488L280 320L505 152Q518 143 518 134Q518 106 494 106Q486 106 481 110L251 283Q231 298 231 319T252 356L481 530ZM310 530Q316 533
324 533T339 526T346 508T334 488L109 320L334 152Q347 143 347 134Q347 106 323 106Q315 106 310 110L80 283Q60 298 60 319T81 356L310 530Z" />
<glyph unicode="&#xac;" glyph-name="logicalnot" horiz-adv-x="480" d="M12 500H466Q484 500 486 497T490 493T491 488T492 482V313Q492 294 473 294H463Q444 294 444 313V452H12Q-8 452 -8 471V480Q-8 500 12 500Z" />
<glyph unicode="&#xad;" glyph-name="softhyphen" horiz-adv-x="351" d="M51 346H300Q320 346 320 327V317Q320 298 300 298H51Q31 298 31 317V327Q31 346 51 346Z" />
<glyph unicode="&#xae;" glyph-name="registered" horiz-adv-x="600" d="M179 756T312 756T522 680T600 478V278Q600 153 523 77T313 0T101 77T20 278V478Q20 607 99 681ZM412 708T312 708T140 652T68 492V264Q68 161 140 105T312 48T482 104T552 264V492Q552
596 482 652ZM208 615H319Q386 615 427 582T468 482Q468 430 436 396Q423 382 394 371T326 360H316L445 164Q458 142 458 139Q458 128 442 128H429Q415 128 410 136L271 347Q258 369 258 377Q258 398 284 398H315Q424 398 424 480Q424 508 413 528T382 556Q349
572 318 572H216V144Q216 129 197 129H192Q173 129 173 144V580Q173 605 178 610T208 615Z" />
<glyph unicode="&#xaf;" glyph-name="overscore" horiz-adv-x="509" d="M70 601H440Q459 601 459 582V573Q459 553 440 553H70Q50 553 50 573V582Q50 601 70 601Z" />
<glyph unicode="&#xb0;" glyph-name="degree" horiz-adv-x="438" d="M166 758T219 758T310 720T348 629T310 538T219 500T128 538T90 629T128 720ZM253 708T219 708T163 686T140 629T162 573T219 550T275 572T298 629T276 685Z" />
<glyph unicode="&#xb1;" glyph-name="plusminus" horiz-adv-x="366" d="M-15 366H156V538Q156 557 175 557H183Q202 555 204 538V366H375Q394 366 394 347V338Q394 330 389 324T375 318H204V147Q202 127 184 127H174Q156 129 156 147V318H-15Q-24 318 -29 324T-35
338V347Q-35 366 -15 366ZM-16 49H374Q393 49 393 30V21Q393 13 388 7T374 1H-16Q-25 1 -30 7T-36 21V30Q-36 49 -16 49Z" />
<glyph unicode="&#xb2;" glyph-name="twosuperior" horiz-adv-x="500" d="M321 774Q321 842 244 842Q181 842 162 782Q160 775 150 775H143Q128 775 128 784Q128 797 131 800Q143 837 174 857T252 878T330 849T361 773Q361 711 285 614Q270 595 222 538L174 481H353Q366
481 366 469V455Q366 443 353 443Q250 443 146 443Q119 443 119 466Q119 477 155 519Q239 617 255 639Q321 724 321 774Z" />
<glyph unicode="&#xb3;" glyph-name="threesuperior" horiz-adv-x="535" d="M156 836T187 861T267 887T346 854T376 771Q376 740 360 713T310 671Q386 648 386 564Q386 504 347 474T259 444Q155 444 135 540Q133 546 133 549T139 552L163 553H166Q167 553 169
546Q186 480 259 480Q299 480 324 502T350 564T325 628T246 653H209Q202 653 202 654T201 671Q206 687 210 688H244Q292 688 316 711T340 771T320 830T258 852Q200 852 190 795Q189 791 185 791H154Q148 791 151 802Q156 836 187 861Z" />
<glyph unicode="&#xb4;" glyph-name="acute" horiz-adv-x="358" d="M241 732Q267 732 267 709Q267 704 260 696L153 563Q139 546 124 546T103 553T98 566T103 578L210 714Q214 718 215 720T218 724T222 727T226 730T231 732T236 731T241 732Z" />
<glyph unicode="&#xb5;" glyph-name="mu" horiz-adv-x="474" d="M78 500H87Q106 500 106 480V106Q115 106 123 96Q154 46 229 46Q283 46 318 76T354 164V480Q354 500 374 500H382Q401 500 401 480V163Q401 86 353 42T230 -2T106 42V-211Q106 -230 87 -230H78Q59
-230 59 -211V480Q59 500 78 500Z" />
<glyph unicode="&#xb6;" glyph-name="paragraph" horiz-adv-x="600" d="M254 700H305Q321 700 321 680V671Q321 653 305 653L256 652Q111 648 111 518Q111 455 154 420T263 385H305Q320 385 320 365V358Q320 338 305 338H260Q168 338 116 390T63 523T116 652T254
700ZM381 730H393Q412 730 412 711V-72Q412 -80 407 -86T393 -92H381Q373 -92 368 -86T362 -72V711Q362 730 381 730ZM473 730H485Q504 730 504 711V-72Q504 -80 499 -86T485 -92H473Q465 -92 460 -86T454 -72V711Q454 730 473 730Z" />
<glyph unicode="&#xb7;" glyph-name="middot" horiz-adv-x="228" d="M70 354T113 354T169 343T183 295V280Q183 238 170 227T113 216T57 227T45 280V295Q45 333 57 343ZM140 303T135 307T114 311T93 308T88 290V280Q88 266 92 263T114 259T135 262T140 280V290Q140
303 135 307Z" />
<glyph unicode="&#xb8;" glyph-name="cedilla" horiz-adv-x="600" d="M366 -123V-165Q366 -205 339 -227T279 -250T221 -240T183 -215L206 -177Q217 -192 236 -199T274 -207T308 -195T324 -158V-130Q324 -107 308 -94T264 -81T227 -84V-83L265 30L307 29L283 -38Q321
-41 343 -63T366 -123Z" />
<glyph unicode="&#xb9;" glyph-name="onesuperior" horiz-adv-x="383" d="M231 851V457Q231 443 219 443H202Q190 443 190 456V843L85 760Q75 752 69 761L62 770Q59 773 59 777T65 786L174 876Q188 888 204 888Q231 887 231 851Z" />
<glyph unicode="&#xba;" glyph-name="ordmasculine" horiz-adv-x="504" d="M135 674T167 703T253 732T338 702T370 619V500Q370 447 338 418T254 388T168 417T135 500V619Q135 674 167 703ZM254 691Q213 691 194 669T175 609V510Q175 474 194 452T254 429Q327
429 327 510V609Q327 691 254 691Z" />
<glyph unicode="&#xbb;" glyph-name="guillemotright" horiz-adv-x="538" d="M202 519T209 526T224 533T238 530L467 356Q488 340 488 319T468 283L238 110Q233 106 221 106T205 116T201 134T214 152L438 320L214 488Q202 497 202 508ZM31 519T38 526T53 533T67
530L296 356Q317 340 317 319T297 283L67 110Q62 106 50 106T34 116T30 134T43 152L267 320L43 488Q31 497 31 508Z" />
<glyph unicode="&#xbc;" glyph-name="onequarter" horiz-adv-x="700" d="M193 692V298Q193 284 181 284H164Q152 284 152 297V684L47 601Q37 593 31 602L24 611Q21 614 21 618T27 627L136 717Q150 729 166 729Q193 728 193 692ZM65 0Q50 0 50 15Q50 21 54 26L622
725Q632 738 643 738H646Q657 738 662 729T661 712L94 13Q86 0 76 0H65ZM550 427Q562 444 579 444T606 436T616 415V187H677Q682 187 685 183T689 173V166Q689 149 677 149H616V12Q616 0 604 0H590Q577 0 577 12V149H416Q390 149 384 170Q383 174 383 180T388 194L550
427ZM577 187V403L429 187H577Z" />
<glyph unicode="&#xbd;" glyph-name="onehalf" horiz-adv-x="500" d="M193 699V305Q193 291 181 291H164Q152 291 152 304V691L47 608Q37 600 31 609L24 618Q21 621 21 625T27 634L136 724Q150 736 166 736Q193 735 193 699ZM67 0Q52 0 52 15Q52 21 56 26L624
725Q634 738 645 738H648Q659 738 664 729T663 712L96 13Q88 0 78 0H67ZM658 331Q658 399 581 399Q518 399 499 339Q497 332 487 332H480Q465 332 465 341Q465 354 468 357Q480 394 511 414T589 435T667 406T698 330Q698 268 622 171Q607 152 559 95L511 38H690Q703
38 703 26V12Q703 0 690 0Q587 0 484 0Q456 0 456 23Q456 34 492 76Q576 174 592 196Q658 281 658 331Z" />
<glyph unicode="&#xbe;" glyph-name="threequarters" horiz-adv-x="700" d="M36 681T67 706T147 732T226 699T256 616Q256 585 240 558T190 516Q266 493 266 409Q266 349 227 319T139 289Q35 289 15 385Q13 391 13 394T19 397L43 398H46Q47 398 49 391Q66 325
139 325Q179 325 204 347T230 409T205 473T126 498H89Q82 498 82 499T81 516Q86 532 90 533H124Q172 533 196 556T220 616T200 675T138 697Q80 697 70 640Q69 636 65 636H34Q28 636 31 647Q36 681 67 706ZM76 0Q61 0 61 15Q61 21 65 26L633 725Q643 738 654 738H657Q668
738 673 729T672 712L105 13Q97 0 87 0H76ZM545 427Q557 444 574 444T601 436T611 415V187H672Q677 187 680 183T684 173V166Q684 149 672 149H611V12Q611 0 599 0H585Q572 0 572 12V149H411Q385 149 379 170Q378 174 378 180T383 194L545 427ZM572 187V403L424
187H572Z" />
<glyph unicode="&#xbf;" glyph-name="questiondown" horiz-adv-x="442" d="M217 -177Q127 -177 83 -125T39 -3T84 114T204 172Q205 172 206 171V314Q206 333 225 333H234Q254 333 254 314V166Q254 143 244 135T208 125Q156 120 122 86T87 -2T120 -92T217 -129Q307
-129 338 -57Q344 -45 356 -45H365Q385 -45 385 -61Q385 -65 384 -70Q364 -125 319 -151T217 -177ZM269 398T233 398T186 407T175 447V460Q175 494 186 503T233 512T279 503T289 460V447Q289 415 279 407ZM210 440T214 437T232 433T250 436T254 450V460Q254 471
250 474T232 477T214 474T210 460V450Q210 440 214 437Z" />
<glyph unicode="&#xc0;" glyph-name="Agrave" horiz-adv-x="588" d="M246 674Q255 701 284 701T324 673L554 27Q555 24 555 20Q555 0 535 0H523Q510 0 504 13L286 634L67 13Q61 0 48 0H36Q16 0 16 20Q16 24 17 27L246 674ZM199 308H372Q380 308 386 303T392 288V279Q392
270 386 265T372 259H199Q180 259 180 279V288Q180 308 199 308ZM221 912Q221 932 248 932Q262 932 266 928T278 914L385 778Q390 772 390 767T385 754T365 746T335 763L228 896Q221 904 221 912Z" />
<glyph unicode="&#xc1;" glyph-name="Aacute" horiz-adv-x="588" d="M246 674Q255 701 284 701T324 673L554 27Q555 24 555 20Q555 0 535 0H523Q510 0 504 13L286 634L67 13Q61 0 48 0H36Q16 0 16 20Q16 24 17 27L246 674ZM199 308H372Q380 308 386 303T392 288V279Q392
270 386 265T372 259H199Q180 259 180 279V288Q180 308 199 308ZM345 932Q371 932 371 909Q371 904 364 896L257 763Q243 746 228 746T207 753T202 766T207 778L314 914Q318 918 319 920T322 924T326 927T330 930T335 932T340 931T345 932Z" />
<glyph unicode="&#xc2;" glyph-name="Acircumflex" horiz-adv-x="588" d="M246 674Q255 701 284 701T324 673L554 27Q555 24 555 20Q555 0 535 0H523Q510 0 504 13L286 634L67 13Q61 0 48 0H36Q16 0 16 20Q16 24 17 27L246 674ZM199 308H372Q380 308 386 303T392
288V279Q392 270 386 265T372 259H199Q180 259 180 279V288Q180 308 199 308ZM248 933Q262 952 285 952T322 933L443 781Q448 775 448 767Q448 749 428 749H415Q404 749 400 755L287 900L285 902L174 755Q170 749 160 749H147Q127 749 127 767Q127 773 132 781L248
933Z" />
<glyph unicode="&#xc3;" glyph-name="Atilde" horiz-adv-x="588" d="M246 674Q255 701 284 701T324 673L554 27Q555 24 555 20Q555 0 535 0H523Q510 0 504 13L286 634L67 13Q61 0 48 0H36Q16 0 16 20Q16 24 17 27L246 674ZM199 308H372Q380 308 386 303T392 288V279Q392
270 386 265T372 259H199Q180 259 180 279V288Q180 308 199 308ZM421 888H445Q458 888 458 871Q458 815 434 787T366 758Q342 758 321 770T276 803T237 834T204 843T170 827T155 774Q155 758 140 758H125Q112 758 112 778Q112 830 137 858T207 886Q243 886 288
850Q293 846 306 835T325 820Q347 802 364 802Q412 802 412 870Q412 873 412 876Q412 888 421 888Z" />
<glyph unicode="&#xc4;" glyph-name="Adieresis" horiz-adv-x="588" d="M246 674Q255 701 284 701T324 673L554 27Q555 24 555 20Q555 0 535 0H523Q510 0 504 13L286 634L67 13Q61 0 48 0H36Q16 0 16 20Q16 24 17 27L246 674ZM199 308H372Q380 308 386 303T392
288V279Q392 270 386 265T372 259H199Q180 259 180 279V288Q180 308 199 308ZM318 851T327 859T368 867T411 859T421 822V810Q421 780 411 772T369 763T327 771T318 810V822Q318 851 327 859ZM152 851T161 859T202 867T245 859T255 822V810Q255 780 245 772T203
763T161 771T152 810V822Q152 851 161 859ZM223 829T219 832T203 835T188 833T184 820V810Q184 800 187 798T203 795T219 797T223 810V820Q223 829 219 832ZM389 829T385 832T369 835T354 833T350 820V810Q350 800 353 798T369 795T385 797T389 810V820Q389 829
385 832Z" />
<glyph unicode="&#xc5;" glyph-name="Aring" horiz-adv-x="588" d="M246 674Q255 701 284 701T324 673L554 27Q555 24 555 20Q555 0 535 0H523Q510 0 504 13L286 634L67 13Q61 0 48 0H36Q16 0 16 20Q16 24 17 27L246 674ZM199 308H372Q380 308 386 303T392 288V279Q392
270 386 265T372 259H199Q180 259 180 279V288Q180 308 199 308ZM188 889T214 911T285 933T355 911T380 848V786Q380 745 356 723T286 701T214 723T188 786V848Q188 889 214 911ZM338 864T323 877T285 890T246 878T230 841V793Q230 769 246 757T285 744T323 757T338
793V841Q338 864 323 877Z" />
<glyph unicode="&#xc6;" glyph-name="AE" horiz-adv-x="1088" d="M540 700Q518 700 509 691T500 661V40Q500 21 507 11T539 0H889Q897 0 903 6T909 20V29Q909 38 903 43T889 49H550V651H889Q897 651 903 656T909 671V680Q909 688 903 694T889 700H540ZM610 388H824Q833
388 838 382T844 368V359Q844 339 824 339H610Q590 339 590 359V368Q590 376 595 382T610 388ZM246 674Q255 701 284 701T324 673L554 27Q555 24 555 20Q555 0 535 0H523Q510 0 504 13L286 634L67 13Q61 0 48 0H36Q16 0 16 20Q16 24 17 27L246 674ZM199 308H372Q380
308 386 303T392 288V279Q392 270 386 265T372 259H199Q180 259 180 279V288Q180 308 199 308Z" />
<glyph unicode="&#xc7;" glyph-name="Ccedilla" horiz-adv-x="564" d="M256 706T229 702T166 681T104 639T59 565T40 454V251Q40 190 59 143T105 69T169 26T235 4T305 -1T400 20Q435 34 461 57T506 127T526 234Q526 254 506 254H498Q489 254 484 249T478 227Q478
121 416 82Q387 63 358 56T286 48T196 69Q166 82 144 103T105 164T89 254V450Q89 501 103 540T139 600T188 635T238 652T295 656T370 639Q397 628 418 611T455 562T476 488Q478 470 496 470H505Q525 470 525 492Q520 544 500 583T454 645T396 682T336 701T283 706ZM366
-142V-184Q366 -224 339 -246T279 -269T221 -259T183 -234L206 -196Q217 -211 236 -218T274 -226T308 -214T324 -177V-149Q324 -126 308 -113T264 -100T227 -103V-102L265 11L307 10L283 -57Q321 -60 343 -82T366 -142Z" />
<glyph unicode="&#xc8;" glyph-name="Egrave" horiz-adv-x="500" d="M102 700H451Q459 700 465 694T471 680V671Q471 662 465 657T451 651H112V49H451Q459 49 465 44T471 29V20Q471 12 465 6T451 0H101Q77 0 70 10T62 40V661Q62 681 71 690T102 700ZM172 388H386Q395
388 400 382T406 368V359Q406 339 386 339H172Q152 339 152 359V368Q152 376 157 382T172 388ZM185 912Q185 932 212 932Q226 932 230 928T242 914L349 778Q354 772 354 767T349 754T329 746T299 763L192 896Q185 904 185 912Z" />
<glyph unicode="&#xc9;" glyph-name="Eacute" horiz-adv-x="500" d="M102 700H451Q459 700 465 694T471 680V671Q471 662 465 657T451 651H112V49H451Q459 49 465 44T471 29V20Q471 12 465 6T451 0H101Q77 0 70 10T62 40V661Q62 681 71 690T102 700ZM172 388H386Q395
388 400 382T406 368V359Q406 339 386 339H172Q152 339 152 359V368Q152 376 157 382T172 388ZM309 932Q335 932 335 909Q335 904 328 896L221 763Q207 746 192 746T171 753T166 766T171 778L278 914Q282 918 283 920T286 924T290 927T294 930T299 932T304 931T309
932Z" />
<glyph unicode="&#xca;" glyph-name="Ecircumflex" horiz-adv-x="500" d="M102 700H451Q459 700 465 694T471 680V671Q471 662 465 657T451 651H112V49H451Q459 49 465 44T471 29V20Q471 12 465 6T451 0H101Q77 0 70 10T62 40V661Q62 681 71 690T102 700ZM172
388H386Q395 388 400 382T406 368V359Q406 339 386 339H172Q152 339 152 359V368Q152 376 157 382T172 388ZM212 933Q226 952 249 952T286 933L407 781Q412 775 412 767Q412 749 392 749H379Q368 749 364 755L251 900L249 902L138 755Q134 749 124 749H111Q91 749
91 767Q91 773 96 781L212 933Z" />
<glyph unicode="&#xcb;" glyph-name="Edieresis" horiz-adv-x="500" d="M102 700H451Q459 700 465 694T471 680V671Q471 662 465 657T451 651H112V49H451Q459 49 465 44T471 29V20Q471 12 465 6T451 0H101Q77 0 70 10T62 40V661Q62 681 71 690T102 700ZM172 388H386Q395
388 400 382T406 368V359Q406 339 386 339H172Q152 339 152 359V368Q152 376 157 382T172 388ZM282 851T291 859T332 867T375 859T385 822V810Q385 780 375 772T333 763T291 771T282 810V822Q282 851 291 859ZM116 851T125 859T166 867T209 859T219 822V810Q219
780 209 772T167 763T125 771T116 810V822Q116 851 125 859ZM187 829T183 832T167 835T152 833T148 820V810Q148 800 151 798T167 795T183 797T187 810V820Q187 829 183 832ZM353 829T349 832T333 835T318 833T314 820V810Q314 800 317 798T333 795T349 797T353
810V820Q353 829 349 832Z" />
<glyph unicode="&#xcc;" glyph-name="Igrave" horiz-adv-x="200" d="M94 700H103Q111 700 117 694T123 680V20Q123 12 117 6T103 0H94Q85 0 80 6T74 20V680Q74 688 79 694T94 700ZM35 912Q35 932 62 932Q76 932 80 928T92 914L199 778Q204 772 204 767T199 754T179
746T149 763L42 896Q35 904 35 912Z" />
<glyph unicode="&#xcd;" glyph-name="Iacute" horiz-adv-x="200" d="M94 700H103Q111 700 117 694T123 680V20Q123 12 117 6T103 0H94Q85 0 80 6T74 20V680Q74 688 79 694T94 700ZM159 932Q185 932 185 909Q185 904 178 896L71 763Q57 746 42 746T21 753T16 766T21
778L128 914Q132 918 133 920T136 924T140 927T144 930T149 932T154 931T159 932Z" />
<glyph unicode="&#xce;" glyph-name="Icircumflex" horiz-adv-x="200" d="M94 700H103Q111 700 117 694T123 680V20Q123 12 117 6T103 0H94Q85 0 80 6T74 20V680Q74 688 79 694T94 700ZM62 933Q76 952 99 952T136 933L257 781Q262 775 262 767Q262 749 242 749H229Q218
749 214 755L101 900L99 902L-12 755Q-16 749 -26 749H-39Q-59 749 -59 767Q-59 773 -54 781L62 933Z" />
<glyph unicode="&#xcf;" glyph-name="Idieresis" horiz-adv-x="200" d="M94 700H103Q111 700 117 694T123 680V20Q123 12 117 6T103 0H94Q85 0 80 6T74 20V680Q74 688 79 694T94 700ZM132 851T141 859T182 867T225 859T235 822V810Q235 780 225 772T183 763T141
771T132 810V822Q132 851 141 859ZM-34 851T-25 859T16 867T59 859T69 822V810Q69 780 59 772T17 763T-25 771T-34 810V822Q-34 851 -25 859ZM37 829T33 832T17 835T2 833T-2 820V810Q-2 800 1 798T17 795T33 797T37 810V820Q37 829 33 832ZM203 829T199 832T183
835T168 833T164 820V810Q164 800 167 798T183 795T199 797T203 810V820Q203 829 199 832Z" />
<glyph unicode="&#xd0;" glyph-name="Eth" horiz-adv-x="576" d="M81 700H243Q391 700 440 628Q465 592 474 549T483 439V247Q483 119 430 60T249 0H82Q42 0 42 41V660Q42 682 50 691T81 700ZM243 651H92V49H249Q344 49 389 94T434 241V442Q434 552 394 601T243
651ZM-41 374H208Q228 374 228 355V345Q228 326 208 326H-41Q-61 326 -61 345V355Q-61 374 -41 374Z" />
<glyph unicode="&#xd1;" glyph-name="Ntilde" horiz-adv-x="600" d="M89 702Q116 702 131 678Q324 358 486 69V680Q486 688 491 694T506 700H516Q525 700 530 694T536 680V37Q536 17 525 8T492 -2T457 20L102 629V20Q102 12 96 6T82 0H71Q63 0 58 6T52 20V661Q52
702 89 702ZM435 888H459Q472 888 472 871Q472 815 448 787T380 758Q356 758 335 770T290 803T251 834T218 843T184 827T169 774Q169 758 154 758H139Q126 758 126 778Q126 830 151 858T221 886Q257 886 302 850Q307 846 320 835T339 820Q361 802 378 802Q426 802
426 870Q426 873 426 876Q426 888 435 888Z" />
<glyph unicode="&#xd2;" glyph-name="Ograve" horiz-adv-x="606" d="M211 692T238 696T293 700T350 696T413 675T475 634T519 562T537 454V251Q537 188 519 140T474 66T412 24Q356 -1 294 -1Q229 -1 184 21T112 69T68 142T50 251V454Q50 517 68 564T113 636T175
676ZM359 644T338 647T294 651T249 648T199 632T149 599T114 540T99 450V254Q99 203 113 164T149 104T199 69T249 52T294 48T338 52T389 69T438 103T473 164T488 254V450Q488 501 473 539T437 598T388 631ZM238 912Q238 932 265 932Q279 932 283 928T295 914L402
778Q407 772 407 767T402 754T382 746T352 763L245 896Q238 904 238 912Z" />
<glyph unicode="&#xd3;" glyph-name="Oacute" horiz-adv-x="606" d="M211 692T238 696T293 700T350 696T413 675T475 634T519 562T537 454V251Q537 188 519 140T474 66T412 24Q356 -1 294 -1Q229 -1 184 21T112 69T68 142T50 251V454Q50 517 68 564T113 636T175
676ZM359 644T338 647T294 651T249 648T199 632T149 599T114 540T99 450V254Q99 203 113 164T149 104T199 69T249 52T294 48T338 52T389 69T438 103T473 164T488 254V450Q488 501 473 539T437 598T388 631ZM362 932Q388 932 388 909Q388 904 381 896L274 763Q260
746 245 746T224 753T219 766T224 778L331 914Q335 918 336 920T339 924T343 927T347 930T352 932T357 931T362 932Z" />
<glyph unicode="&#xd4;" glyph-name="Ocircumflex" horiz-adv-x="606" d="M211 692T238 696T293 700T350 696T413 675T475 634T519 562T537 454V251Q537 188 519 140T474 66T412 24Q356 -1 294 -1Q229 -1 184 21T112 69T68 142T50 251V454Q50 517 68 564T113 636T175
676ZM359 644T338 647T294 651T249 648T199 632T149 599T114 540T99 450V254Q99 203 113 164T149 104T199 69T249 52T294 48T338 52T389 69T438 103T473 164T488 254V450Q488 501 473 539T437 598T388 631ZM265 933Q279 952 302 952T339 933L460 781Q465 775 465
767Q465 749 445 749H432Q421 749 417 755L304 900L302 902L191 755Q187 749 177 749H164Q144 749 144 767Q144 773 149 781L265 933Z" />
<glyph unicode="&#xd5;" glyph-name="Otilde" horiz-adv-x="606" d="M211 692T238 696T293 700T350 696T413 675T475 634T519 562T537 454V251Q537 188 519 140T474 66T412 24Q356 -1 294 -1Q229 -1 184 21T112 69T68 142T50 251V454Q50 517 68 564T113 636T175
676ZM359 644T338 647T294 651T249 648T199 632T149 599T114 540T99 450V254Q99 203 113 164T149 104T199 69T249 52T294 48T338 52T389 69T438 103T473 164T488 254V450Q488 501 473 539T437 598T388 631ZM438 888H462Q475 888 475 871Q475 815 451 787T383 758Q359
758 338 770T293 803T254 834T221 843T187 827T172 774Q172 758 157 758H142Q129 758 129 778Q129 830 154 858T224 886Q260 886 305 850Q310 846 323 835T342 820Q364 802 381 802Q429 802 429 870Q429 873 429 876Q429 888 438 888Z" />
<glyph unicode="&#xd6;" glyph-name="Odieresis" horiz-adv-x="606" d="M211 692T238 696T293 700T350 696T413 675T475 634T519 562T537 454V251Q537 188 519 140T474 66T412 24Q356 -1 294 -1Q229 -1 184 21T112 69T68 142T50 251V454Q50 517 68 564T113 636T175
676ZM359 644T338 647T294 651T249 648T199 632T149 599T114 540T99 450V254Q99 203 113 164T149 104T199 69T249 52T294 48T338 52T389 69T438 103T473 164T488 254V450Q488 501 473 539T437 598T388 631ZM335 851T344 859T385 867T428 859T438 822V810Q438 780
428 772T386 763T344 771T335 810V822Q335 851 344 859ZM169 851T178 859T219 867T262 859T272 822V810Q272 780 262 772T220 763T178 771T169 810V822Q169 851 178 859ZM240 829T236 832T220 835T205 833T201 820V810Q201 800 204 798T220 795T236 797T240 810V820Q240
829 236 832ZM406 829T402 832T386 835T371 833T367 820V810Q367 800 370 798T386 795T402 797T406 810V820Q406 829 402 832Z" />
<glyph unicode="&#xd7;" glyph-name="multiply" horiz-adv-x="421" d="M339 524T345 524T362 514T372 497T366 483L245 362L366 241Q372 234 372 226Q372 219 359 206Q352 201 346 201T332 207L211 328L90 207Q82 200 75 200T59 210T49 227T56 241L177 362L55
484Q49 491 49 498Q49 505 61 517Q68 523 76 523L89 518L211 396L332 517Q339 524 345 524Z" />
<glyph unicode="&#xd8;" glyph-name="Oslash" horiz-adv-x="606" d="M211 692T238 696T293 700T350 696T413 675T475 634T519 562T537 454V251Q537 188 519 140T474 66T412 24Q356 -1 294 -1Q229 -1 184 21T112 69T68 142T50 251V454Q50 517 68 564T113 636T175
676ZM359 644T338 647T294 651T249 648T199 632T149 599T114 540T99 450V254Q99 203 113 164T149 104T199 69T249 52T294 48T338 52T389 69T438 103T473 164T488 254V450Q488 501 473 539T437 598T388 631ZM421 699Q438 699 438 682Q438 678 436 673L175 13Q167
0 160 0H148Q137 0 132 6T127 17T129 26L389 686Q396 699 408 699H421Z" />
<glyph unicode="&#xd9;" glyph-name="Ugrave" horiz-adv-x="562" d="M480 700H490Q498 700 504 694T510 680V251Q510 179 486 127T424 48Q354 -1 281 -1H269Q196 -1 124 48Q86 74 63 126T39 251V680Q39 688 44 694T59 700H69Q78 700 83 694T89 680V251Q89 192
108 150T158 86Q212 50 271 48H280Q337 50 392 87Q422 107 441 149T460 251V680Q460 688 465 694T480 700ZM203 912Q203 932 230 932Q244 932 248 928T260 914L367 778Q372 772 372 767T367 754T347 746T317 763L210 896Q203 904 203 912Z" />
<glyph unicode="&#xda;" glyph-name="Uacute" horiz-adv-x="562" d="M480 700H490Q498 700 504 694T510 680V251Q510 179 486 127T424 48Q354 -1 281 -1H269Q196 -1 124 48Q86 74 63 126T39 251V680Q39 688 44 694T59 700H69Q78 700 83 694T89 680V251Q89 192
108 150T158 86Q212 50 271 48H280Q337 50 392 87Q422 107 441 149T460 251V680Q460 688 465 694T480 700ZM327 932Q353 932 353 909Q353 904 346 896L239 763Q225 746 210 746T189 753T184 766T189 778L296 914Q300 918 301 920T304 924T308 927T312 930T317 932T322
931T327 932Z" />
<glyph unicode="&#xdb;" glyph-name="Ucircumflex" horiz-adv-x="562" d="M480 700H490Q498 700 504 694T510 680V251Q510 179 486 127T424 48Q354 -1 281 -1H269Q196 -1 124 48Q86 74 63 126T39 251V680Q39 688 44 694T59 700H69Q78 700 83 694T89 680V251Q89
192 108 150T158 86Q212 50 271 48H280Q337 50 392 87Q422 107 441 149T460 251V680Q460 688 465 694T480 700ZM230 933Q244 952 267 952T304 933L425 781Q430 775 430 767Q430 749 410 749H397Q386 749 382 755L269 900L267 902L156 755Q152 749 142 749H129Q109
749 109 767Q109 773 114 781L230 933Z" />
<glyph unicode="&#xdc;" glyph-name="Udieresis" horiz-adv-x="562" d="M480 700H490Q498 700 504 694T510 680V251Q510 179 486 127T424 48Q354 -1 281 -1H269Q196 -1 124 48Q86 74 63 126T39 251V680Q39 688 44 694T59 700H69Q78 700 83 694T89 680V251Q89 192
108 150T158 86Q212 50 271 48H280Q337 50 392 87Q422 107 441 149T460 251V680Q460 688 465 694T480 700ZM300 851T309 859T350 867T393 859T403 822V810Q403 780 393 772T351 763T309 771T300 810V822Q300 851 309 859ZM134 851T143 859T184 867T227 859T237
822V810Q237 780 227 772T185 763T143 771T134 810V822Q134 851 143 859ZM205 829T201 832T185 835T170 833T166 820V810Q166 800 169 798T185 795T201 797T205 810V820Q205 829 201 832ZM371 829T367 832T351 835T336 833T332 820V810Q332 800 335 798T351 795T367
797T371 810V820Q371 829 367 832Z" />
<glyph unicode="&#xdd;" glyph-name="Yacute" horiz-adv-x="436" d="M391 700H402Q414 700 418 693T422 680T419 670V671L250 363Q242 351 239 348V20Q239 12 233 6T219 0H209Q201 0 195 6T189 20V349Q184 354 180 361L-2 670Q-5 675 -5 680T-1 692T15 700H27Q37
700 44 691L214 399L375 694Q379 700 391 700ZM277 932Q303 932 303 909Q303 904 296 896L189 763Q175 746 160 746T139 753T134 766T139 778L246 914Q250 918 251 920T254 924T258 927T262 930T267 932T272 931T277 932Z" />
<glyph unicode="&#xde;" glyph-name="Thorn" horiz-adv-x="517" d="M176 590H261Q332 590 392 554Q423 535 442 497T462 407Q462 323 412 271T269 218H180Q171 218 166 224T160 238V247Q160 267 180 267H260Q412 267 412 403Q412 474 366 507T259 541H176Q167
541 162 547T156 561V570Q156 590 176 590ZM95 732H105Q113 732 119 726T125 712V20Q125 12 119 6T105 0H95Q87 0 81 6T75 20V712Q75 720 81 726T95 732Z" />
<glyph unicode="&#xdf;" glyph-name="germandbls" horiz-adv-x="516" d="M344 598Q344 545 299 480Q261 427 258 417T255 401Q255 358 317 332Q372 314 423 276Q476 237 476 160T427 41T283 0H194Q185 0 180 6T174 20V29Q174 49 194 49H274Q345 49 385 75T426
153Q426 212 386 242Q356 265 299 286Q292 289 288 290Q244 307 224 332T203 396Q203 420 215 440T240 478Q290 553 290 596T263 660T195 682T133 658T110 596V14Q110 6 104 0T90 -6H80Q72 -6 66 0T60 14L62 560V607Q62 672 104 702T199 732T298 701T344 598Z"
/>
<glyph unicode="&#xe0;" glyph-name="agrave" horiz-adv-x="504" d="M73 416T121 459T246 502T370 459T417 337V117Q417 78 423 64T449 44L460 41Q475 38 475 28V17Q475 0 455 0Q406 0 388 29T370 118V337Q370 394 335 424T246 455T156 425T120 337V166Q120 107
149 77T234 47T326 92Q333 101 345 101T363 86Q366 74 360 65Q317 0 237 0T115 43T73 165V337Q73 416 121 459ZM187 712Q187 732 214 732Q228 732 232 728T244 714L351 578Q356 572 356 567T351 554T331 546T301 563L194 696Q187 704 187 712Z" />
<glyph unicode="&#xe1;" glyph-name="aacute" horiz-adv-x="504" d="M73 416T121 459T246 502T370 459T417 337V117Q417 78 423 64T449 44L460 41Q475 38 475 28V17Q475 0 455 0Q406 0 388 29T370 118V337Q370 394 335 424T246 455T156 425T120 337V166Q120 107
149 77T234 47T326 92Q333 101 345 101T363 86Q366 74 360 65Q317 0 237 0T115 43T73 165V337Q73 416 121 459ZM311 732Q337 732 337 709Q337 704 330 696L223 563Q209 546 194 546T173 553T168 566T173 578L280 714Q284 718 285 720T288 724T292 727T296 730T301
732T306 731T311 732Z" />
<glyph unicode="&#xe2;" glyph-name="acircumflex" horiz-adv-x="504" d="M73 416T121 459T246 502T370 459T417 337V117Q417 78 423 64T449 44L460 41Q475 38 475 28V17Q475 0 455 0Q406 0 388 29T370 118V337Q370 394 335 424T246 455T156 425T120 337V166Q120
107 149 77T234 47T326 92Q333 101 345 101T363 86Q366 74 360 65Q317 0 237 0T115 43T73 165V337Q73 416 121 459ZM214 733Q228 752 251 752T288 733L409 581Q414 575 414 567Q414 549 394 549H381Q370 549 366 555L253 700L251 702L140 555Q136 549 126 549H113Q93
549 93 567Q93 573 98 581L214 733Z" />
<glyph unicode="&#xe3;" glyph-name="atilde" horiz-adv-x="504" d="M73 416T121 459T246 502T370 459T417 337V117Q417 78 423 64T449 44L460 41Q475 38 475 28V17Q475 0 455 0Q406 0 388 29T370 118V337Q370 394 335 424T246 455T156 425T120 337V166Q120 107
149 77T234 47T326 92Q333 101 345 101T363 86Q366 74 360 65Q317 0 237 0T115 43T73 165V337Q73 416 121 459ZM387 688H411Q424 688 424 671Q424 615 400 587T332 558Q308 558 287 570T242 603T203 634T170 643T136 627T121 574Q121 558 106 558H91Q78 558 78
578Q78 630 103 658T173 686Q209 686 254 650Q259 646 272 635T291 620Q313 602 330 602Q378 602 378 670Q378 673 378 676Q378 688 387 688Z" />
<glyph unicode="&#xe4;" glyph-name="adieresis" horiz-adv-x="504" d="M73 416T121 459T246 502T370 459T417 337V117Q417 78 423 64T449 44L460 41Q475 38 475 28V17Q475 0 455 0Q406 0 388 29T370 118V337Q370 394 335 424T246 455T156 425T120 337V166Q120
107 149 77T234 47T326 92Q333 101 345 101T363 86Q366 74 360 65Q317 0 237 0T115 43T73 165V337Q73 416 121 459ZM284 651T293 659T334 667T377 659T387 622V610Q387 580 377 572T335 563T293 571T284 610V622Q284 651 293 659ZM118 651T127 659T168 667T211
659T221 622V610Q221 580 211 572T169 563T127 571T118 610V622Q118 651 127 659ZM189 629T185 632T169 635T154 633T150 620V610Q150 600 153 598T169 595T185 597T189 610V620Q189 629 185 632ZM355 629T351 632T335 635T320 633T316 620V610Q316 600 319 598T335
595T351 597T355 610V620Q355 629 351 632Z" />
<glyph unicode="&#xe5;" glyph-name="aring" horiz-adv-x="504" d="M73 416T121 459T246 502T370 459T417 337V117Q417 78 423 64T449 44L460 41Q475 38 475 28V17Q475 0 455 0Q406 0 388 29T370 118V337Q370 394 335 424T246 455T156 425T120 337V166Q120 107
149 77T234 47T326 92Q333 101 345 101T363 86Q366 74 360 65Q317 0 237 0T115 43T73 165V337Q73 416 121 459ZM154 689T180 711T251 733T321 711T346 648V586Q346 545 322 523T252 501T180 523T154 586V648Q154 689 180 711ZM304 664T289 677T251 690T212 678T196
641V593Q196 569 212 557T251 544T289 557T304 593V641Q304 664 289 677Z" />
<glyph unicode="&#xe6;" glyph-name="ae" horiz-adv-x="761" d="M234 502Q337 502 380 429Q426 502 531 502Q607 502 654 459T701 337V277Q701 234 660 234H444Q435 234 430 240T424 254V262Q424 270 429 276T444 282H654V336Q654 393 619 423T530 454T441 424T405
336V164Q405 107 440 77T529 46T618 75T654 160Q654 168 659 174T673 180H681Q690 180 695 174T701 160Q700 83 653 41T530 -2T406 41T357 163V337Q357 394 322 424T233 455T143 425T107 337V166Q107 107 136 77T221 47T313 92Q320 101 332 101T350 86Q353 74 347
65Q304 0 224 0T102 43T60 165V337Q60 416 108 459T234 502Z" />
<glyph unicode="&#xe7;" glyph-name="ccedilla" horiz-adv-x="505" d="M70 416T118 459T243 502T367 459T414 337Q414 318 394 318H386Q367 318 367 337Q367 394 332 424T243 454T154 424T118 336V164Q118 107 153 77T243 46T331 75T367 160Q367 168 372 174T386
180H394Q403 180 408 174T414 160Q412 84 365 41T243 -2T119 41T70 163V337Q70 416 118 459ZM337 -142V-184Q337 -224 310 -246T250 -269T192 -259T154 -234L177 -196Q188 -211 207 -218T245 -226T279 -214T295 -177V-149Q295 -126 279 -113T235 -100T198 -103V-102L236
11L278 10L254 -57Q292 -60 314 -82T337 -142Z" />
<glyph unicode="&#xe8;" glyph-name="egrave" horiz-adv-x="490" d="M70 416T118 459T243 502T367 459T414 337V277Q414 234 373 234H157Q148 234 143 240T137 254V262Q137 270 142 276T157 282H367V336Q367 393 332 423T243 454T154 424T118 336V164Q118 107
153 77T242 46T331 75T367 160Q367 168 372 174T386 180H394Q403 180 408 174T414 160Q413 83 366 41T243 -2T119 41T70 163V337Q70 416 118 459ZM180 712Q180 732 207 732Q221 732 225 728T237 714L344 578Q349 572 349 567T344 554T324 546T294 563L187 696Q180
704 180 712Z" />
<glyph unicode="&#xe9;" glyph-name="eacute" horiz-adv-x="490" d="M70 416T118 459T243 502T367 459T414 337V277Q414 234 373 234H157Q148 234 143 240T137 254V262Q137 270 142 276T157 282H367V336Q367 393 332 423T243 454T154 424T118 336V164Q118 107
153 77T242 46T331 75T367 160Q367 168 372 174T386 180H394Q403 180 408 174T414 160Q413 83 366 41T243 -2T119 41T70 163V337Q70 416 118 459ZM304 732Q330 732 330 709Q330 704 323 696L216 563Q202 546 187 546T166 553T161 566T166 578L273 714Q277 718 278
720T281 724T285 727T289 730T294 732T299 731T304 732Z" />
<glyph unicode="&#xea;" glyph-name="ecircumflex" horiz-adv-x="490" d="M70 416T118 459T243 502T367 459T414 337V277Q414 234 373 234H157Q148 234 143 240T137 254V262Q137 270 142 276T157 282H367V336Q367 393 332 423T243 454T154 424T118 336V164Q118
107 153 77T242 46T331 75T367 160Q367 168 372 174T386 180H394Q403 180 408 174T414 160Q413 83 366 41T243 -2T119 41T70 163V337Q70 416 118 459ZM207 733Q221 752 244 752T281 733L402 581Q407 575 407 567Q407 549 387 549H374Q363 549 359 555L246 700L244
702L133 555Q129 549 119 549H106Q86 549 86 567Q86 573 91 581L207 733Z" />
<glyph unicode="&#xeb;" glyph-name="edieresis" horiz-adv-x="490" d="M70 416T118 459T243 502T367 459T414 337V277Q414 234 373 234H157Q148 234 143 240T137 254V262Q137 270 142 276T157 282H367V336Q367 393 332 423T243 454T154 424T118 336V164Q118 107
153 77T242 46T331 75T367 160Q367 168 372 174T386 180H394Q403 180 408 174T414 160Q413 83 366 41T243 -2T119 41T70 163V337Q70 416 118 459ZM277 651T286 659T327 667T370 659T380 622V610Q380 580 370 572T328 563T286 571T277 610V622Q277 651 286 659ZM111
651T120 659T161 667T204 659T214 622V610Q214 580 204 572T162 563T120 571T111 610V622Q111 651 120 659ZM182 629T178 632T162 635T147 633T143 620V610Q143 600 146 598T162 595T178 597T182 610V620Q182 629 178 632ZM348 629T344 632T328 635T313 633T309
620V610Q309 600 312 598T328 595T344 597T348 610V620Q348 629 344 632Z" />
<glyph unicode="&#xec;" glyph-name="igrave" horiz-adv-x="168" d="M80 501H88Q96 501 102 496T108 481V20Q108 11 102 6T88 0H80Q72 0 66 5T60 20V481Q60 490 66 495T80 501ZM18 712Q18 732 45 732Q59 732 63 728T75 714L182 578Q187 572 187 567T182 554T162
546T132 563L25 696Q18 704 18 712Z" />
<glyph unicode="&#xed;" glyph-name="iacute" horiz-adv-x="168" d="M80 501H88Q96 501 102 496T108 481V20Q108 11 102 6T88 0H80Q72 0 66 5T60 20V481Q60 490 66 495T80 501ZM142 732Q168 732 168 709Q168 704 161 696L54 563Q40 546 25 546T4 553T-1 566T4
578L111 714Q115 718 116 720T119 724T123 727T127 730T132 732T137 731T142 732Z" />
<glyph unicode="&#xee;" glyph-name="icircumflex" horiz-adv-x="168" d="M80 501H88Q96 501 102 496T108 481V20Q108 11 102 6T88 0H80Q72 0 66 5T60 20V481Q60 490 66 495T80 501ZM45 733Q59 752 82 752T119 733L240 581Q245 575 245 567Q245 549 225 549H212Q201
549 197 555L84 700L82 702L-29 555Q-33 549 -43 549H-56Q-76 549 -76 567Q-76 573 -71 581L45 733Z" />
<glyph unicode="&#xef;" glyph-name="idieresis" horiz-adv-x="168" d="M80 501H88Q96 501 102 496T108 481V20Q108 11 102 6T88 0H80Q72 0 66 5T60 20V481Q60 490 66 495T80 501ZM115 651T124 659T165 667T208 659T218 622V610Q218 580 208 572T166 563T124 571T115
610V622Q115 651 124 659ZM-51 651T-42 659T-1 667T42 659T52 622V610Q52 580 42 572T0 563T-42 571T-51 610V622Q-51 651 -42 659ZM20 629T16 632T0 635T-15 633T-19 620V610Q-19 600 -16 598T0 595T16 597T20 610V620Q20 629 16 632ZM186 629T182 632T166 635T151
633T147 620V610Q147 600 150 598T166 595T182 597T186 610V620Q186 629 182 632Z" />
<glyph unicode="&#xf0;" glyph-name="eth" horiz-adv-x="600" d="M408 732H420Q438 732 438 713V163Q438 85 391 42T266 -2T141 41T93 163V337Q93 414 141 457T266 500Q298 500 334 488T390 461V713Q390 732 408 732ZM390 406Q332 452 272 452T177 422T141 335V164Q141
106 176 76T266 46T355 76T390 164V406Z" />
<glyph unicode="&#xf1;" glyph-name="ntilde" horiz-adv-x="479" d="M248 502Q323 502 363 463T403 347V20Q403 0 384 0H376Q356 0 356 20V336Q356 455 247 455Q190 455 150 410Q139 401 131 401Q113 401 112 421Q112 429 116 437Q137 466 172 484T248 502ZM79
499H87Q95 499 101 494T107 479V20Q107 11 101 6T87 0H79Q71 0 65 5T59 20V479Q59 488 65 493T79 499ZM375 688H399Q412 688 412 671Q412 615 388 587T320 558Q296 558 275 570T230 603T191 634T158 643T124 627T109 574Q109 558 94 558H79Q66 558 66 578Q66 630
91 658T161 686Q197 686 242 650Q247 646 260 635T279 620Q301 602 318 602Q366 602 366 670Q366 673 366 676Q366 688 375 688Z" />
<glyph unicode="&#xf2;" glyph-name="ograve" horiz-adv-x="504" d="M70 416T118 459T243 502T367 459T414 337V163Q414 85 367 42T244 -2T119 41T70 163V337Q70 416 118 459ZM367 394T332 424T243 455T153 425T117 337V163Q117 106 153 76T243 45T332 75T367
163V337Q367 394 332 424ZM187 712Q187 732 214 732Q228 732 232 728T244 714L351 578Q356 572 356 567T351 554T331 546T301 563L194 696Q187 704 187 712Z" />
<glyph unicode="&#xf3;" glyph-name="oacute" horiz-adv-x="504" d="M70 416T118 459T243 502T367 459T414 337V163Q414 85 367 42T244 -2T119 41T70 163V337Q70 416 118 459ZM367 394T332 424T243 455T153 425T117 337V163Q117 106 153 76T243 45T332 75T367
163V337Q367 394 332 424ZM311 732Q337 732 337 709Q337 704 330 696L223 563Q209 546 194 546T173 553T168 566T173 578L280 714Q284 718 285 720T288 724T292 727T296 730T301 732T306 731T311 732Z" />
<glyph unicode="&#xf4;" glyph-name="ocircumflex" horiz-adv-x="504" d="M70 416T118 459T243 502T367 459T414 337V163Q414 85 367 42T244 -2T119 41T70 163V337Q70 416 118 459ZM367 394T332 424T243 455T153 425T117 337V163Q117 106 153 76T243 45T332 75T367
163V337Q367 394 332 424ZM214 733Q228 752 251 752T288 733L409 581Q414 575 414 567Q414 549 394 549H381Q370 549 366 555L253 700L251 702L140 555Q136 549 126 549H113Q93 549 93 567Q93 573 98 581L214 733Z" />
<glyph unicode="&#xf5;" glyph-name="otilde" horiz-adv-x="504" d="M70 416T118 459T243 502T367 459T414 337V163Q414 85 367 42T244 -2T119 41T70 163V337Q70 416 118 459ZM367 394T332 424T243 455T153 425T117 337V163Q117 106 153 76T243 45T332 75T367
163V337Q367 394 332 424ZM387 688H411Q424 688 424 671Q424 615 400 587T332 558Q308 558 287 570T242 603T203 634T170 643T136 627T121 574Q121 558 106 558H91Q78 558 78 578Q78 630 103 658T173 686Q209 686 254 650Q259 646 272 635T291 620Q313 602 330
602Q378 602 378 670Q378 673 378 676Q378 688 387 688Z" />
<glyph unicode="&#xf6;" glyph-name="odieresis" horiz-adv-x="504" d="M70 416T118 459T243 502T367 459T414 337V163Q414 85 367 42T244 -2T119 41T70 163V337Q70 416 118 459ZM367 394T332 424T243 455T153 425T117 337V163Q117 106 153 76T243 45T332 75T367
163V337Q367 394 332 424ZM284 651T293 659T334 667T377 659T387 622V610Q387 580 377 572T335 563T293 571T284 610V622Q284 651 293 659ZM118 651T127 659T168 667T211 659T221 622V610Q221 580 211 572T169 563T127 571T118 610V622Q118 651 127 659ZM189 629T185
632T169 635T154 633T150 620V610Q150 600 153 598T169 595T185 597T189 610V620Q189 629 185 632ZM355 629T351 632T335 635T320 633T316 620V610Q316 600 319 598T335 595T351 597T355 610V620Q355 629 351 632Z" />
<glyph unicode="&#xf7;" glyph-name="divide" horiz-adv-x="539" d="M75 317H465Q484 317 484 298V289Q484 281 479 275T465 269H75Q66 269 61 275T55 289V298Q55 317 75 317ZM227 502T263 502T310 493T321 453V440Q321 406 310 397T263 388T217 397T207 440V453Q207
485 217 493ZM227 172T263 172T310 163T321 123V110Q321 76 310 67T263 58T217 67T207 110V123Q207 155 217 163ZM286 130T282 133T264 137T246 134T242 120V110Q242 99 246 96T264 93T282 96T286 110V120Q286 130 282 133ZM286 460T282 463T264 467T246 464T242
450V440Q242 429 246 426T264 423T282 426T286 440V450Q286 460 282 463Z" />
<glyph unicode="&#xf8;" glyph-name="oslash" horiz-adv-x="483" d="M392 500H405Q416 500 419 494T423 484T420 474L109 13Q101 0 94 0H82Q70 0 65 6T60 17T63 26L373 487Q380 500 392 500ZM72 416T120 459T245 502T369 459T416 337V163Q416 85 369 42T246 -2T121
41T72 163V337Q72 416 120 459ZM369 394T334 424T245 455T155 425T119 337V163Q119 106 155 76T245 45T334 75T369 163V337Q369 394 334 424Z" />
<glyph unicode="&#xf9;" glyph-name="ugrave" horiz-adv-x="498" d="M90 502H98Q118 502 118 482V166Q118 107 147 77T231 47T324 90Q333 101 343 101Q362 101 362 79Q362 70 357 63Q337 35 301 18T225 0Q156 0 114 43T71 165V482Q71 502 90 502ZM386 500H396Q415
500 415 480V117Q415 78 421 64T447 44L458 41Q473 38 473 28V17Q473 0 453 0Q404 0 386 29T367 118V480Q367 500 386 500ZM174 712Q174 732 201 732Q215 732 219 728T231 714L338 578Q343 572 343 567T338 554T318 546T288 563L181 696Q174 704 174 712Z" />
<glyph unicode="&#xfa;" glyph-name="uacute" horiz-adv-x="498" d="M90 502H98Q118 502 118 482V166Q118 107 147 77T231 47T324 90Q333 101 343 101Q362 101 362 79Q362 70 357 63Q337 35 301 18T225 0Q156 0 114 43T71 165V482Q71 502 90 502ZM386 500H396Q415
500 415 480V117Q415 78 421 64T447 44L458 41Q473 38 473 28V17Q473 0 453 0Q404 0 386 29T367 118V480Q367 500 386 500ZM298 732Q324 732 324 709Q324 704 317 696L210 563Q196 546 181 546T160 553T155 566T160 578L267 714Q271 718 272 720T275 724T279 727T283
730T288 732T293 731T298 732Z" />
<glyph unicode="&#xfb;" glyph-name="ucircumflex" horiz-adv-x="498" d="M90 502H98Q118 502 118 482V166Q118 107 147 77T231 47T324 90Q333 101 343 101Q362 101 362 79Q362 70 357 63Q337 35 301 18T225 0Q156 0 114 43T71 165V482Q71 502 90 502ZM386 500H396Q415
500 415 480V117Q415 78 421 64T447 44L458 41Q473 38 473 28V17Q473 0 453 0Q404 0 386 29T367 118V480Q367 500 386 500ZM201 733Q215 752 238 752T275 733L396 581Q401 575 401 567Q401 549 381 549H368Q357 549 353 555L240 700L238 702L127 555Q123 549 113
549H100Q80 549 80 567Q80 573 85 581L201 733Z" />
<glyph unicode="&#xfc;" glyph-name="udieresis" horiz-adv-x="498" d="M90 502H98Q118 502 118 482V166Q118 107 147 77T231 47T324 90Q333 101 343 101Q362 101 362 79Q362 70 357 63Q337 35 301 18T225 0Q156 0 114 43T71 165V482Q71 502 90 502ZM386 500H396Q415
500 415 480V117Q415 78 421 64T447 44L458 41Q473 38 473 28V17Q473 0 453 0Q404 0 386 29T367 118V480Q367 500 386 500ZM271 651T280 659T321 667T364 659T374 622V610Q374 580 364 572T322 563T280 571T271 610V622Q271 651 280 659ZM105 651T114 659T155 667T198
659T208 622V610Q208 580 198 572T156 563T114 571T105 610V622Q105 651 114 659ZM176 629T172 632T156 635T141 633T137 620V610Q137 600 140 598T156 595T172 597T176 610V620Q176 629 172 632ZM342 629T338 632T322 635T307 633T303 620V610Q303 600 306 598T322
595T338 597T342 610V620Q342 629 338 632Z" />
<glyph unicode="&#xfd;" glyph-name="yacute" horiz-adv-x="508" d="M383 500H392Q411 500 411 480V-54Q411 -140 366 -185T242 -230T122 -189T77 -70Q77 -51 96 -51H105Q124 -51 124 -70Q126 -125 159 -154T245 -183Q364 -183 364 -55V480Q364 500 383 500ZM87
502H95Q115 502 115 482V166Q115 107 144 77T228 47T321 90Q330 101 340 101Q359 101 359 79Q359 70 354 63Q334 35 298 18T222 0Q153 0 111 43T68 165V482Q68 502 87 502ZM313 732Q339 732 339 709Q339 704 332 696L225 563Q211 546 196 546T175 553T170 566T175
578L282 714Q286 718 287 720T290 724T294 727T298 730T303 732T308 731T313 732Z" />
<glyph unicode="&#xfe;" glyph-name="thorn" horiz-adv-x="600" d="M80 730H88Q107 730 107 711L106 459Q152 502 229 502T354 459T402 337V163Q402 86 354 42T236 -2T123 23V75Q171 46 227 46T319 77T355 165V336Q355 394 320 424T232 454T144 427T105 347V-231Q105
-250 86 -250H77Q58 -250 58 -231V351L60 711Q62 730 80 730Z" />
<glyph unicode="&#xff;" glyph-name="ydieresis" horiz-adv-x="508" d="M383 500H392Q411 500 411 480V-54Q411 -140 366 -185T242 -230T122 -189T77 -70Q77 -51 96 -51H105Q124 -51 124 -70Q126 -125 159 -154T245 -183Q364 -183 364 -55V480Q364 500 383 500ZM87
502H95Q115 502 115 482V166Q115 107 144 77T228 47T321 90Q330 101 340 101Q359 101 359 79Q359 70 354 63Q334 35 298 18T222 0Q153 0 111 43T68 165V482Q68 502 87 502ZM286 651T295 659T336 667T379 659T389 622V610Q389 580 379 572T337 563T295 571T286 610V622Q286
651 295 659ZM120 651T129 659T170 667T213 659T223 622V610Q223 580 213 572T171 563T129 571T120 610V622Q120 651 129 659ZM191 629T187 632T171 635T156 633T152 620V610Q152 600 155 598T171 595T187 597T191 610V620Q191 629 187 632ZM357 629T353 632T337
635T322 633T318 620V610Q318 600 321 598T337 595T353 597T357 610V620Q357 629 353 632Z" />
<glyph unicode="&#x2013;" glyph-name="endash" horiz-adv-x="228" d="M39 386H188Q196 386 202 381T208 368V358Q208 350 202 345T188 339H39Q20 339 20 358V368Q20 376 25 381T39 386Z" />
<glyph unicode="&#x2014;" glyph-name="emdash" horiz-adv-x="456" d="M53 386H396Q404 386 409 381T415 368V358Q415 339 396 339H53Q34 339 34 358V368Q34 376 39 381T53 386Z" />
<glyph unicode="&#x2018;" glyph-name="quoteleft" horiz-adv-x="236" d="M154 732H180Q192 730 186 718L128 588H162Q191 588 191 559V466Q191 447 186 441T164 434H62Q48 434 39 447Q35 455 35 463T42 489L142 718Q147 732 154 732ZM124 550Q114 550 114 555L84
487Q82 481 82 479Q82 474 90 474H142Q151 484 151 490V543Q151 548 149 549T138 550H124Z" />
<glyph unicode="&#x2019;" glyph-name="quoteright" horiz-adv-x="236" d="M72 732H174Q188 732 197 719Q201 711 201 703T194 677L94 448Q89 434 82 434H56Q44 436 50 448L107 578H74Q45 578 45 607V700Q45 719 50 725T72 732ZM112 616Q120 616 122 610L152 679Q154
685 154 687Q154 692 146 692H94Q87 692 86 690T85 682V623Q85 618 87 617T98 616H112Z" />
<glyph unicode="&#x201a;" glyph-name="quotesinglbase" horiz-adv-x="66" d="M78 139H91Q110 139 107 120Q90 44 50 -123Q47 -136 31 -136H19Q-1 -136 2 -117L59 126Q63 139 78 139Z" />
<glyph unicode="&#x201c;" glyph-name="quotedblleft" horiz-adv-x="0" d="M333 732H359Q371 730 365 718L307 588H341Q370 588 370 559V466Q370 447 365 441T343 434H241Q227 434 218 447Q214 455 214 463T221 489L321 718Q326 732 333 732ZM303 550Q293 550
293 555L263 487Q261 481 261 479Q261 474 269 474H321Q330 484 330 490V543Q330 548 328 549T317 550H303ZM154 732H180Q192 730 186 718L128 588H162Q191 588 191 559V466Q191 447 186 441T164 434H62Q48 434 39 447Q35 455 35 463T42 489L142 718Q147 732 154
732ZM124 550Q114 550 114 555L84 487Q82 481 82 479Q82 474 90 474H142Q151 484 151 490V543Q151 548 149 549T138 550H124Z" />
<glyph unicode="&#x201d;" glyph-name="quotedblright" horiz-adv-x="0" d="M244 732H346Q360 732 369 719Q373 711 373 703T366 677L266 448Q261 434 254 434H228Q216 436 222 448L279 578H246Q217 578 217 607V700Q217 719 222 725T244 732ZM284 616Q292 616
294 610L324 679Q326 685 326 687Q326 692 318 692H266Q259 692 258 690T257 682V623Q257 618 259 617T270 616H284ZM72 732H174Q188 732 197 719Q201 711 201 703T194 677L94 448Q89 434 82 434H56Q44 436 50 448L107 578H74Q45 578 45 607V700Q45 719 50 725T72
732ZM112 616Q120 616 122 610L152 679Q154 685 154 687Q154 692 146 692H94Q87 692 86 690T85 682V623Q85 618 87 617T98 616H112Z" />
<glyph unicode="&#x201e;" glyph-name="quotedblbase" horiz-adv-x="219" d="M178 139H191Q210 139 207 120Q190 44 150 -123Q147 -136 131 -136H119Q99 -136 102 -117L159 126Q163 139 178 139ZM86 139H99Q118 139 115 120Q98 44 58 -123Q55 -136 39 -136H27Q7
-136 10 -117L67 126Q71 139 86 139Z" />
<glyph unicode="&#x2022;" glyph-name="bullet" horiz-adv-x="600" d="M250 430T309 430T409 388T451 288T410 188T309 146T209 188T167 288T208 388ZM346 375T309 375T247 350T222 288T247 226T309 201T371 226T396 288T371 350Z" />
<glyph unicode="&#x2039;" glyph-name="guilsinglleft" horiz-adv-x="347" d="M309 530L321 533H324L326 532H328Q337 528 339 524L344 514V513Q345 511 345 507V504L340 494Q336 490 335 490Q335 488 333 488L108 320L337 149Q337 147 339 147L345 136L346 130Q346
126 346 122T342 115T338 112Q338 109 327 106H322Q310 106 309 110L79 283L73 287L67 294Q67 295 64 298T60 308L59 315V320Q59 334 65 341T80 356L309 530Z" />
<glyph unicode="&#x203a;" glyph-name="guilsinglright" horiz-adv-x="347" d="M1 519T8 526T23 533T37 530L266 356Q287 340 287 319T267 283L37 110Q32 106 20 106T4 116T0 134T13 152L237 320L13 488Q1 497 1 508Z" />
</font>
</defs>
</svg>
