<?xml version="1.0" standalone="no"?>
<!DOCTYPE svg PUBLIC "-//W3C//DTD SVG 1.1//EN" "http://www.w3.org/Graphics/SVG/1.1/DTD/svg11.dtd">
<svg xmlns="http://www.w3.org/2000/svg">
<defs >
<font id="ClickerScript" horiz-adv-x="613" ><font-face
    font-family="Clicker Script"
    units-per-em="2048"
    panose-1="3 0 5 6 0 0 0 2 0 2"
    ascent="1898"
    descent="-807"
    alphabetic="0" />
<glyph unicode=" " glyph-name="space" horiz-adv-x="451" />
<glyph unicode="!" glyph-name="exclam" horiz-adv-x="430" d="M414 1315Q368 1209 333 1057Q302 927 277 731T252 272L217 276Q214 379 215 481T220 678T230 861T244 1024Q261 1201 285 1358L414 1315ZM311 63Q311 33 290 12T238 -10Q209 -10 187 11T164 63Q164
92 186 113T238 135Q269 135 290 114T311 63Z" />
<glyph unicode="&quot;" glyph-name="quotedbl" horiz-adv-x="328" d="M137 1001H98L123 1358H215L137 1001ZM301 1001H262L287 1358H379L301 1001Z" />
<glyph unicode="#" glyph-name="numbersign" horiz-adv-x="793" d="M223 457H66V496H225L248 758H90V797H252L281 1126H322L291 797H537L567 1126H606L578 797H735V758H573L551 496H711V457H549L520 125H479L508 457H262L233 125H195L223 457ZM264 496H510L535
758H289L264 496Z" />
<glyph unicode="$" glyph-name="dollar" horiz-adv-x="776" d="M715 395Q715 335 693 286T631 200T538 140T422 109Q422 4 428 -102H393Q392 -92 391 -75T387 -33T382 26T377 106H365Q305 106 250 118T153 155T86 220T61 315Q61 357 76 388T110 439T144 470T162
481L180 446Q171 441 158 430T133 403T113 365T104 315Q104 273 126 242T184 191T266 160T362 150H373Q370 225 368 331T365 582Q323 603 286 626T219 680T173 749T156 838Q156 893 173 940T221 1024T294 1084T387 1114Q396 1198 405 1239T418 1290H449Q445 1241
444 1199T440 1118Q494 1116 535 1102T605 1064T649 1006T664 932Q664 899 656 866T637 807T617 763T606 743L578 766Q581 772 588 789T604 828T619 877T625 930Q625 958 614 984T580 1030T522 1063T438 1077Q436 1028 434 982T430 888T427 789T426 680Q477 655
528 631T621 574T689 499T715 395ZM426 551Q424 452 423 353T422 154Q473 161 513 178T581 220T624 278T639 346Q639 385 622 414T575 467T507 511T426 551ZM365 711Q367 828 372 917T383 1073Q335 1066 304 1045T255 998T229 945T221 897Q221 863 232 836T262
787T308 747T365 711Z" />
<glyph unicode="%" glyph-name="percent" horiz-adv-x="1296" d="M416 1294Q439 1294 452 1290T467 1286L459 1260Q457 1260 446 1264T416 1268Q320 1268 266 1193T211 981Q211 853 264 787T408 721Q448 721 484 741T548 798T592 890T608 1012Q608 1069 595 1109T563
1174T519 1210T473 1221Q436 1221 416 1203T383 1143L350 1151Q366 1199 397 1224T471 1249Q500 1249 530 1236T585 1194T625 1120T641 1012Q641 954 626 896T579 790T498 714T381 684Q333 684 287 702T204 755T145 841T123 961Q123 1023 144 1082T203 1189T296
1265T416 1294ZM223 -8Q428 313 651 647T1110 1327L1143 1303Q1020 1124 903 950T676 608T462 280T262 -29L223 -8ZM989 598Q1012 598 1025 594T1040 590L1032 563Q1030 563 1019 567T989 571Q893 571 839 497T784 285Q784 157 837 91T981 25Q1022 25 1058 45T1122
102T1166 193T1182 315Q1182 373 1169 412T1137 477T1093 513T1047 524Q1009 524 989 506T956 446L924 455Q939 503 970 528T1044 553Q1073 553 1103 540T1158 497T1198 423T1214 315Q1214 258 1199 200T1152 94T1071 18T954 -12Q906 -12 860 6T777 58T718 144T696
264Q696 326 717 386T776 493T869 569T989 598Z" />
<glyph unicode="&amp;" glyph-name="ampersand" horiz-adv-x="1509" d="M1489 313Q1477 277 1451 233T1379 150T1266 85T1104 59Q1035 59 974 77T858 127Q771 76 675 44T473 12Q373 12 301 39T183 112T114 214T92 330Q92 420 127 488T219 607T349 698T500 772Q492
819 489 865T485 956Q485 1047 509 1119T575 1241T676 1317T803 1343Q848 1343 881 1328T937 1287T970 1232T981 1171Q981 1091 948 1030T862 922T740 837T602 768Q618 682 645 599T709 442T794 306T901 199Q965 245 1018 300T1109 411T1167 521T1188 616Q1188
647 1181 668T1162 702T1134 721T1100 727Q1085 727 1069 721T1041 704T1020 675T1012 633Q1012 614 1022 592T1061 557L1044 524Q1024 533 1011 545T990 573T979 603T975 633Q975 666 988 690T1022 731T1067 756T1112 764Q1172 764 1208 727T1245 621Q1245 577
1223 521T1159 405T1060 285T932 174Q983 142 1039 124T1161 106Q1225 106 1274 128T1360 183T1419 254T1452 326L1489 313ZM524 70Q605 70 680 91T823 150Q760 196 709 259T619 398T552 556T508 725Q440 692 385 656T290 575T230 475T209 350Q209 276 237 224T311
137T412 86T524 70ZM578 1022Q578 971 581 919T594 813Q661 843 724 876T836 951T914 1044T944 1161Q944 1188 936 1214T910 1261T866 1294T803 1307Q755 1307 714 1285T642 1225T595 1134T578 1022Z" />
<glyph unicode="&apos;" glyph-name="quotesingle" horiz-adv-x="164" d="M137 1001H98L123 1358H215L137 1001Z" />
<glyph unicode="(" glyph-name="parenleft" horiz-adv-x="608" d="M567 1430Q566 1429 539 1405T471 1334T383 1215T297 1049T233 833T211 569Q213 425 238 309T300 104T378 -51T455 -157T514 -219T539 -240L514 -270Q511 -268 481 -246T406 -181T310 -71T214
88T138 300T104 569Q101 718 132 842T212 1065T318 1238T426 1361T510 1436T545 1462L567 1430Z" />
<glyph unicode=")" glyph-name="parenright" horiz-adv-x="608" d="M96 1462Q97 1461 131 1436T215 1362T322 1238T429 1066T509 843T537 569Q534 419 503 300T428 88T332 -71T236 -181T161 -245T127 -270L102 -240Q102 -240 126 -220T185 -158T263 -51T341 103T402
309T430 569Q433 713 408 833T344 1048T258 1215T171 1333T103 1405T74 1430L96 1462Z" />
<glyph unicode="*" glyph-name="asterisk" horiz-adv-x="819" d="M485 1092Q456 1045 423 999T358 905Q346 916 331 927T303 950L457 1104Q407 1119 356 1137T254 1171Q262 1188 268 1204T283 1237L469 1133Q464 1185 461 1242T453 1352H522L502 1133Q545 1157
596 1184T692 1237Q700 1220 706 1204T721 1171L518 1104Q556 1067 595 1027T672 950Q658 938 644 927T616 905L485 1092Z" />
<glyph unicode="+" glyph-name="plus" horiz-adv-x="819" d="M401 276Q395 402 395 547Q270 547 123 553V594Q192 596 259 597T395 598Q395 663 396 729T401 868H442Q444 799 445 733T446 598Q516 598 582 598T715 594V553Q592 547 446 547Q446 478 446 411T442 276H401Z" />
<glyph unicode="," glyph-name="comma" horiz-adv-x="307" d="M121 -152Q147 -117 167 -78T190 -8Q185 -10 180 -10T170 -10Q136 -10 119 12T102 59Q102 90 122 110T174 131Q211 131 231 105T252 39Q252 12 244 -17T222 -74T190 -127T150 -174L121 -152Z" />
<glyph unicode="-" glyph-name="hyphen" horiz-adv-x="676" d="M633 422Q592 420 561 419T501 417T445 416T383 416T306 418T205 422V492Q256 493 294 494T363 495T423 496T482 497T549 495T633 492V422Z" />
<glyph unicode="." glyph-name="period" horiz-adv-x="307" d="M248 63Q248 33 227 12T174 -10Q145 -10 124 11T102 63Q102 92 123 113T174 135Q205 135 226 114T248 63Z" />
<glyph unicode="/" glyph-name="slash" horiz-adv-x="717" d="M23 -39Q192 314 359 660T698 1358L735 1341Q549 954 381 606T59 -55L23 -39Z" />
<glyph unicode="0" glyph-name="zero" horiz-adv-x="1114" d="M639 1300Q682 1300 707 1292T735 1284L719 1249Q716 1249 695 1256T639 1264Q533 1264 450 1212T309 1071T221 862T190 606Q190 468 220 359T306 173T440 57T616 16Q704 16 782 66T917 205T1008 416T1042
684Q1042 811 1016 902T947 1053T853 1140T750 1169Q677 1169 624 1122T545 981L506 991Q537 1096 600 1151T748 1206Q805 1206 864 1177T972 1084T1050 921T1081 684Q1081 599 1068 513T1029 347T961 197T862 76T731 -5T567 -35Q474 -35 385 3T226 116T113 302T70
561Q70 652 87 742T139 914T222 1066T335 1189T474 1270T639 1300Z" />
<glyph unicode="1" glyph-name="one" horiz-adv-x="401" d="M223 14L100 20L293 1157Q264 1106 233 1061T175 981T130 927T111 905L82 932Q125 981 165 1036Q200 1084 238 1144T303 1270L340 1260L223 14Z" />
<glyph unicode="2" glyph-name="two" horiz-adv-x="1044" d="M238 4Q159 4 110 32T61 106Q61 154 108 180T233 207Q301 207 368 183T502 129Q587 185 659 270T783 454T865 661T895 870Q895 948 879 1007T834 1110T767 1181T687 1226T601 1250T516 1257Q435 1257
364 1230T241 1154T159 1042T129 903Q129 860 141 814T182 721Q174 716 162 708T139 693Q126 684 111 676Q88 718 76 765T63 862Q63 949 97 1027T191 1165T335 1259T516 1294Q570 1294 627 1285T738 1255T840 1201T925 1118T983 1004T1004 854Q1004 749 969 641T873
434T731 249T555 104Q620 75 685 53T819 31Q864 31 909 43L922 6Q896 -2 870 -5T819 -8Q780 -8 742 -1T665 20T589 49T514 82Q448 45 378 25T238 4ZM240 43Q298 43 354 59T463 104Q404 130 347 149T233 168Q195 168 168 151T141 106Q141 83 165 63T240 43Z" />
<glyph unicode="3" glyph-name="three" horiz-adv-x="1028" d="M41 313L80 315Q84 260 110 206T184 110T299 41T453 14Q492 14 537 20T627 41T713 83T787 149T839 243T858 371Q858 452 830 517T749 629T621 700T453 725Q389 725 322 713L307 745Q362 787 420 840T535
954T644 1086T741 1233Q700 1222 643 1212T517 1193T371 1179T213 1174L197 1276Q198 1275 219 1273T276 1269T360 1266T463 1264Q508 1264 556 1265T651 1271T742 1282T825 1300L848 1274Q805 1194 743 1117T616 972T489 850T387 762Q413 771 447 775T522 780Q570
780 621 773T722 747T815 700T892 629T945 530T965 399Q965 299 929 219T828 83T675 -4T483 -35Q402 -35 325 -13T187 53T87 162T41 313Z" />
<glyph unicode="4" glyph-name="four" horiz-adv-x="1014" d="M795 8L647 14Q672 117 691 219T729 426Q682 427 638 432T551 444T467 456T387 461Q325 461 267 450T154 410Q144 420 131 435T105 465T83 491T72 504Q105 544 137 598T198 713T254 838T304 963Q357
1106 403 1260L442 1253Q441 1248 434 1214T414 1125T382 998T339 849T286 691T223 539Q230 540 242 541T268 543T295 544T319 545Q378 545 432 538T538 519T638 495T737 473Q766 659 782 843T807 1217L846 1214L813 467Q853 470 894 476T973 496L983 457Q940 444
897 438T811 428L795 8Z" />
<glyph unicode="5" glyph-name="five" horiz-adv-x="1038" d="M467 -18Q389 -18 316 7T186 80T95 194T61 342Q61 356 63 368T70 391L106 379Q100 364 100 344Q100 266 133 206T218 105T336 42T465 20Q561 20 639 52T774 145T860 290T891 479Q891 577 862 658T778
798T647 889T475 922Q420 922 374 908T290 872T225 825T179 779T151 742T141 727L104 743Q104 743 112 768T134 833T162 926T191 1034T216 1145T231 1247L254 1264Q294 1259 330 1257T401 1255Q484 1255 547 1266T653 1291T718 1316T741 1329L768 1229Q766 1228
746 1224T691 1214T613 1204T520 1200Q464 1200 403 1207T272 1223Q272 1208 271 1176T267 1099T257 1000T238 885Q313 934 391 953T551 973Q588 973 635 965T732 935T829 880T914 794T974 672T997 508Q997 395 955 299T840 133T671 22T467 -18Z" />
<glyph unicode="6" glyph-name="six" horiz-adv-x="1024" d="M649 1300Q707 1300 752 1287T832 1253T891 1209T930 1164T953 1129T961 1112L926 1094Q925 1095 919 1108T900 1140T865 1180T812 1220T740 1250T647 1262Q539 1262 455 1208T312 1061T224 845T193
586Q193 434 224 326T311 148T439 47T596 14Q659 14 710 35T801 93T870 178T918 279T945 388T954 494Q953 574 928 642T856 761T747 839T606 868Q525 868 468 840T375 759T322 632T305 467H266Q266 564 285 645T345 784T451 875T606 907Q694 907 765 875T887 785T965
648T993 477Q993 381 963 288T876 122T739 4T561 -41Q506 -41 449 -27T337 17T235 92T150 201T93 346T72 528Q72 655 96 762T163 955T262 1105T383 1213T515 1278T649 1300Z" />
<glyph unicode="7" glyph-name="seven" horiz-adv-x="803" d="M328 -6L207 10Q244 191 297 353T417 666T565 961T741 1253Q683 1239 615 1233T477 1227Q392 1227 311 1233T165 1247T61 1261T20 1268L27 1307Q28 1307 67 1301T170 1287T312 1273T475 1266Q560 1266
639 1275T780 1307L803 1276Q695 1121 615 952T479 615T386 288T328 -6Z" />
<glyph unicode="8" glyph-name="eight" horiz-adv-x="958" d="M324 182Q324 263 360 328T453 453Q387 506 318 560T191 673T98 799T61 942Q61 1027 100 1097T204 1216T350 1293T516 1321Q583 1321 636 1304T727 1257T785 1183T805 1087Q805 1034 788 997T745 933T689
891T633 867T589 855T571 852L567 891Q569 891 584 894T622 904T669 924T716 959T752 1012T766 1087Q766 1150 740 1188T676 1247T594 1275T516 1282Q432 1282 366 1256T254 1186T184 1089T160 981Q160 912 194 853T283 738T404 632T535 528Q599 583 667 636T792
747T884 867T920 1008Q920 1040 911 1075T885 1147L920 1163Q958 1080 958 1006Q958 954 941 908T895 818T826 735T743 657T653 581T563 506Q605 471 641 436T704 362T746 284T762 199Q762 148 745 106T697 33T627 -14T539 -31Q491 -31 452 -16T384 26T340 93T324
182ZM682 141Q682 180 667 217T624 290T561 360T483 428Q429 372 396 311T362 180Q362 100 411 54T541 8Q578 8 604 19T648 50T673 93T682 141Z" />
<glyph unicode="9" glyph-name="nine" horiz-adv-x="1030" d="M471 14Q545 14 614 49T738 157T830 337T877 592Q845 520 797 472T692 395T577 353T463 340Q397 340 326 362T196 433T99 561T61 756Q61 829 79 897T129 1027T205 1138T303 1225T416 1282T539 1303Q620
1303 684 1278T799 1209T885 1106T944 981T978 844T989 705Q989 610 973 519T925 347T848 198T744 81T617 3T469 -25Q411 -25 365 -12T282 22T219 67T175 113T149 149T139 166L174 184Q175 182 183 169T207 137T246 97T303 57T377 26T471 14ZM154 784Q154 702 181
632T258 511T373 430T516 401Q570 401 629 418T741 476T831 586T879 758Q873 909 839 1007T756 1162T650 1241T539 1264Q473 1264 419 1244T323 1189T248 1107T196 1007T165 897T154 784Z" />
<glyph unicode=":" glyph-name="colon" horiz-adv-x="432" d="M309 63Q309 33 288 12T236 -10Q207 -10 186 11T164 63Q164 92 185 113T236 135Q266 135 287 114T309 63ZM330 555Q330 524 309 503T256 481Q227 481 206 502T184 555Q184 584 205 605T256 627Q287
627 308 606T330 555Z" />
<glyph unicode=";" glyph-name="semicolon" horiz-adv-x="432" d="M182 -152Q208 -117 229 -78T252 -8Q247 -10 242 -10T231 -10Q197 -10 181 12T164 59Q164 90 184 110T236 131Q273 131 293 105T313 39Q313 12 305 -17T283 -74T251 -127T211 -174L182 -152ZM330
555Q330 524 309 503T256 481Q227 481 206 502T184 555Q184 584 205 605T256 627Q287 627 308 606T330 555Z" />
<glyph unicode="&lt;" glyph-name="less" horiz-adv-x="819" d="M225 629L582 1006L621 967L301 629L621 291L582 252L225 629Z" />
<glyph unicode="=" glyph-name="equal" horiz-adv-x="819" d="M694 688Q632 686 572 684T445 682T305 683T143 688V729Q219 730 288 731T423 733T556 733T694 729V688ZM694 428Q632 426 572 424T445 422T305 423T143 428V469Q219 470 288 471T423 473T556 473T694
469V428Z" />
<glyph unicode="&gt;" glyph-name="greater" horiz-adv-x="819" d="M264 252L225 291L545 629L225 967L264 1006L621 629L264 252Z" />
<glyph unicode="?" glyph-name="question" horiz-adv-x="961" d="M412 254Q383 297 371 333T358 401Q358 458 379 503T436 585T516 656T608 721T700 788T780 863T836 954T858 1067Q858 1142 829 1192T755 1274T660 1319T565 1333Q479 1333 409 1310T289 1245T212
1149T184 1032Q184 946 240 901T399 856Q446 856 483 868T545 891L561 856Q530 842 485 830T383 817Q337 817 294 830T217 871T163 939T143 1036Q143 1107 175 1168T264 1275T398 1346T565 1372Q639 1372 710 1353T837 1294T927 1196T961 1057Q961 989 937 934T874
832T784 746T680 672T577 605T487 538T423 468T399 389Q399 355 413 329T444 274L412 254ZM496 63Q496 33 475 12T422 -10Q393 -10 371 11T348 63Q348 92 370 113T422 135Q453 135 474 114T496 63Z" />
<glyph unicode="@" glyph-name="at" horiz-adv-x="1470" d="M1321 668Q1320 752 1290 831T1198 970T1046 1067T831 1104Q709 1104 604 1057T423 926T304 726T264 471Q266 379 301 294T400 141T556 34T764 -6Q849 -6 930 6T1090 59L1106 27Q1024 -17 936 -36T760
-55Q606 -55 495 -13T312 100T204 262T166 451Q164 554 188 646T258 815T367 955T504 1060T662 1126T831 1149Q955 1149 1054 1113T1222 1013T1328 862T1366 672Q1367 575 1344 499T1281 369T1186 287T1069 258Q1024 258 992 269T938 300T905 343T889 395Q863 338
822 303T717 268Q683 268 652 280T596 319T556 384T541 477Q541 558 571 624T645 738T739 812T829 838Q853 838 875 831T913 810T940 773T950 721Q950 683 935 656T899 609T856 578T821 561L811 598Q814 598 830 604T864 624T896 662T911 721Q911 759 889 780T831
801Q802 801 767 782T700 723T647 622T625 475Q625 390 655 348T735 305Q761 305 783 319T824 356T858 410T885 475Q887 506 895 539T915 608L967 592Q963 581 958 564T949 527T943 484T940 442Q940 419 944 394T963 347T1004 311T1077 297Q1114 297 1157 316T1237
378T1298 493T1321 668Z" />
<glyph unicode="A" glyph-name="A" horiz-adv-x="1167" d="M96 414H340Q393 522 445 628T545 831T637 1013T713 1164T770 1274T803 1333Q815 1355 828 1363T862 1372Q885 1372 899 1358T913 1315Q913 1304 911 1262T906 1157T899 1016T892 856T887 692T885 541Q885
509 885 477T887 416Q950 416 1005 416T1096 418V379Q1042 377 991 377T889 377Q896 247 918 141T987 -40T1108 -157T1292 -199Q1336 -199 1386 -188L1393 -229Q1342 -245 1301 -252T1221 -260Q1129 -260 1062 -237T947 -172T869 -72T822 57T798 208T791 375H383Q377
361 371 349T358 322Q308 212 262 132T174 -6T93 -100T20 -160T-46 -197T-106 -221L-123 -186Q-123 -186 -104 -174T-53 -134T22 -63T114 43T216 187T322 375H96V414ZM856 1329Q845 1329 807 1262T710 1073T571 784T399 414H791Q791 505 797 597T811 778T829 948T847
1098T860 1220T866 1305Q866 1320 864 1324T856 1329Z" />
<glyph unicode="B" glyph-name="B" horiz-adv-x="1360" d="M545 49Q488 190 465 319T442 563Q442 580 442 597T444 631Q378 639 344 658T309 707Q309 736 349 755T461 782Q477 880 503 959T553 1093T596 1179T614 1212L651 1200Q647 1188 637 1157T613 1074T585
951T561 788H563Q639 788 713 781T856 756Q903 782 944 815T1015 889T1063 977T1081 1079Q1081 1154 1055 1209T989 1303T897 1368T797 1407T704 1426T635 1432Q538 1432 458 1415T315 1371T204 1314T126 1257T80 1213T63 1194L33 1219Q35 1222 52 1242T103 1289T186
1349T300 1407T445 1452T623 1470Q688 1470 756 1462T889 1434T1012 1385T1113 1312T1181 1212T1206 1083Q1206 1035 1187 987T1133 893T1049 806T940 731Q1007 707 1064 673T1162 592T1226 486T1249 354Q1249 276 1221 206T1143 77T1022 -29T868 -110T689 -160T492
-178Q365 -178 273 -149T120 -70T30 42T0 174Q0 218 13 257T51 330T111 389T190 430L203 399Q165 385 140 357T99 296T77 229T70 170Q70 140 78 105T105 36T155 -30T234 -86T345 -124T492 -139Q556 -139 629 -126T773 -85T909 -18T1024 76T1103 197T1133 344Q1133
416 1113 472T1058 571T975 644T874 696Q800 664 719 646T549 627Q547 592 546 555T545 477Q545 381 555 276T584 55L545 49ZM551 668Q604 670 665 683T788 723Q731 737 674 743T563 750H557Q555 730 554 710T551 668ZM350 705Q350 698 372 688T446 672Q448 690
450 708T455 743Q398 735 374 723T350 705Z" />
<glyph unicode="C" glyph-name="C" horiz-adv-x="1384" d="M1147 1409Q1116 1398 1086 1385T1028 1356Q1084 1308 1118 1237T1153 1073Q1153 997 1134 933T1079 823T997 751T893 725Q852 725 812 739T741 782T690 854T670 958Q670 1025 692 1085T751 1197T839
1291T944 1366Q915 1380 882 1388T813 1397Q752 1397 683 1374T547 1305T418 1192T309 1034T233 833T205 590Q205 456 244 336T358 125T542 -19T793 -72Q875 -72 953 -48T1102 20T1231 124T1333 256L1364 238Q1316 149 1249 79T1099 -40T924 -115T733 -141Q592
-141 473 -92T268 49T133 268T84 555Q84 698 115 818T200 1037T325 1209T478 1334T645 1410T813 1436Q858 1436 901 1423T983 1386Q1023 1405 1063 1417T1141 1436L1147 1409ZM1114 1075Q1114 1157 1082 1223T993 1333Q944 1301 902 1260T828 1168T780 1058T762
930Q762 894 771 864T799 811T843 777T901 764Q955 764 995 795T1061 872T1101 973T1114 1075Z" />
<glyph unicode="D" glyph-name="D" horiz-adv-x="1446" d="M408 -98Q331 -98 267 -79T158 -24T87 64T61 182Q61 250 92 320T184 451L203 432Q172 392 152 336T131 217Q131 166 146 117T195 28T280 -35T408 -59Q414 -59 420 -58T432 -57Q401 37 377 173T352 489Q352
657 372 785T419 1006T474 1159T520 1253L549 1247Q540 1204 526 1130T499 947T475 693T465 365Q465 262 471 158T489 -53Q610 -40 715 8T906 129T1060 295T1173 491T1244 702T1268 913Q1268 1049 1226 1146T1117 1304T966 1394T797 1423Q714 1423 643 1412T513
1383T405 1343T318 1296Q228 1240 170 1169L137 1192Q138 1194 155 1215T208 1266T296 1330T422 1393T588 1442T797 1462Q935 1462 1044 1426T1228 1320T1344 1146T1384 907Q1384 749 1343 617T1233 377T1074 187T885 47T685 -46T494 -92Q497 -111 500 -128T506
-164L473 -168Q467 -152 460 -134T444 -96Q435 -98 426 -98T408 -98Z" />
<glyph unicode="E" glyph-name="E" horiz-adv-x="1300" d="M346 1049Q346 1148 384 1222T484 1346T626 1421T793 1446Q887 1446 951 1417T1054 1342T1109 1241T1126 1135Q1126 1107 1123 1090T1120 1071L1081 1075Q1082 1083 1083 1093Q1084 1101 1084 1112T1085
1137Q1085 1182 1072 1230T1025 1317T936 1381T793 1407Q718 1407 654 1382T544 1312T472 1208T446 1079Q446 1010 469 953T535 852Q580 867 625 876T717 885Q751 885 779 880T829 863T862 837T874 801Q874 773 856 757T812 733T759 723T713 721Q648 721 590 738T483
788Q425 759 374 715T284 613T224 482T201 326Q201 244 223 182T282 76T366 1T464 -46T562 -71T651 -78Q781 -78 884 -37T1060 75T1174 240T1221 438L1260 436Q1257 349 1229 272T1152 128T1040 10T901 -80T743 -136T575 -156Q477 -156 388 -129T230 -47T122 86T82
270Q82 359 111 441T189 595T306 722T449 817Q401 860 374 918T346 1049ZM717 846Q644 846 569 823Q606 795 654 781T758 766Q795 766 815 776T836 801Q836 816 805 831T717 846Z" />
<glyph unicode="F" glyph-name="F" horiz-adv-x="1407" d="M571 709Q574 710 594 715T649 727T727 743T823 758Q829 923 870 1044T975 1251Q909 1271 840 1292T701 1330T565 1357T436 1368Q363 1368 311 1355T222 1319T164 1267T129 1208T113 1148T109 1094Q109
1072 111 1059T113 1044L74 1036Q73 1042 72 1051Q71 1059 71 1068T70 1090Q70 1117 74 1151T92 1220T130 1289T195 1349T294 1391T434 1407Q509 1407 583 1396T729 1367T870 1328T1004 1286Q1050 1343 1103 1383T1211 1447T1316 1483T1411 1495Q1445 1495 1474
1487T1524 1463T1558 1425T1571 1374Q1571 1345 1554 1312T1501 1252T1413 1206T1288 1188Q1239 1188 1180 1200T1055 1229Q1005 1139 978 1023T942 766Q953 766 964 767T987 768Q1055 768 1105 764T1195 753T1263 738T1319 721L1313 688Q1256 697 1187 701T1044
705Q1018 705 992 705T940 702V664Q940 608 942 564T946 480T950 404T952 324Q952 222 920 140T829 -2T689 -93T508 -125Q403 -125 320 -98T180 -15T92 122T61 313Q61 391 82 477L121 467Q116 447 112 424Q109 404 107 379T104 328Q104 129 204 22T508 -86Q592
-86 657 -63T766 3T834 108T858 248Q858 295 853 346T841 454T829 572T823 698Q770 695 726 692T647 686Q607 682 575 680L571 709ZM1288 1229Q1343 1229 1388 1241T1465 1274T1514 1320T1532 1372Q1532 1409 1498 1432T1413 1456Q1302 1456 1218 1407T1075 1266Q1134
1249 1187 1239T1288 1229Z" />
<glyph unicode="G" glyph-name="G" horiz-adv-x="1315" d="M477 -2Q289 -2 190 96T90 401Q90 480 113 564T177 730T274 891T398 1040T541 1170T696 1271T856 1338T1014 1362Q1068 1362 1112 1348T1187 1308T1236 1244T1253 1157Q1253 1109 1236 1060T1190 965T1120
877T1032 806T933 757T827 739Q733 739 680 787T627 915Q627 954 636 982T656 1031T679 1063T696 1083L723 1055Q722 1054 713 1046T694 1021T675 978T666 915Q666 888 675 864T705 821T755 791T827 780Q900 780 969 814T1093 904T1181 1026T1214 1159Q1214 1240
1163 1280T1012 1321Q901 1321 799 1281T609 1172T448 1012T324 820T244 612T215 406Q215 310 242 244T314 138T420 79T547 61Q601 61 659 78T774 125T886 198T987 289Q989 404 1006 486T1049 621T1102 698T1155 723Q1162 723 1171 721T1188 711T1202 692T1208
659Q1208 621 1196 578T1162 488T1109 393T1038 299Q1042 240 1050 190T1065 95T1079 8T1085 -78Q1085 -158 1065 -237T994 -379T860 -481T647 -520Q591 -520 549 -503T479 -457T436 -394T422 -322Q422 -287 430 -254T460 -193T515 -148T602 -127L606 -166Q565
-168 538 -181T493 -215T469 -264T461 -322Q461 -342 469 -369T497 -421T553 -463T645 -481Q717 -481 770 -458T862 -393T926 -297T965 -177T985 -43T991 96Q991 130 989 165T987 240Q936 189 878 145T754 68T619 17T477 -2ZM1036 346Q1096 420 1132 501T1169 659Q1169
682 1155 682Q1140 682 1120 656T1081 586T1049 489T1036 379V346Z" />
<glyph unicode="H" glyph-name="H" horiz-adv-x="1556" d="M289 481Q290 482 304 489T343 506T404 529T487 553Q482 628 481 703T479 848Q479 991 498 1099T549 1288H545Q435 1273 348 1257T193 1216T75 1152T-12 1055L-49 1069Q-5 1147 60 1191T203 1262T369
1301T547 1329Q552 1329 557 1330T567 1333Q603 1408 644 1457T725 1536T797 1577T848 1589Q886 1589 906 1568T926 1522Q926 1477 899 1442T829 1381T738 1337T643 1307Q618 1239 604 1155T590 975Q590 884 596 784T610 578Q651 583 696 586T793 590Q819 590 861
589T949 585T1034 582T1096 580Q1133 580 1166 581T1229 584Q1231 791 1284 981T1430 1358L1462 1343Q1461 1342 1452 1313T1430 1234T1400 1114T1371 962T1348 788T1339 600V592Q1383 597 1414 603T1464 614T1493 623T1503 627L1516 590Q1511 587 1469 575T1339
551Q1340 505 1343 449T1350 334T1362 216T1378 103T1399 6T1425 -66L1395 -82Q1395 -83 1384 -64T1354 -8T1315 83T1276 206T1244 360T1229 541Q1195 538 1159 538T1081 537Q1057 537 1025 538T959 542T890 545T827 547Q767 547 714 543T614 532Q621 446 625 363T629
199Q629 104 620 17T590 -146T532 -284T442 -390T314 -459T143 -483Q37 -483 -59 -442T-225 -324L-197 -297Q-132 -368 -44 -406T141 -444Q218 -444 276 -423T375 -364T444 -275T486 -164T508 -37T514 98Q514 120 512 161T506 256T498 374T489 508Q443 497 408
486T350 464Q323 453 303 442L289 481ZM854 1550Q804 1550 753 1498T662 1352Q705 1364 746 1380T818 1416T868 1461T887 1516Q887 1528 878 1539T854 1550Z" />
<glyph unicode="I" glyph-name="I" horiz-adv-x="1294" d="M303 59L338 78Q342 69 355 46T397 -1T471 -43T588 -61Q677 -61 767 -13T930 137T1048 392T1094 760Q1094 835 1081 909T1040 1052T972 1178T879 1280T761 1347T618 1372Q550 1372 474 1346T335 1264T230
1122T188 915Q188 820 206 750T255 630T326 547T411 495T500 469T584 461Q639 461 686 477T770 513T831 553T864 580L891 551Q809 483 724 450T537 416Q450 416 368 442T223 526T121 674T82 891Q82 967 103 1035T162 1162T251 1267T361 1347T484 1397T612 1415Q665
1415 730 1405T862 1366T992 1287T1104 1158T1182 968T1212 705Q1212 581 1187 473T1118 275T1015 115T887 -4T746 -78T600 -104Q561 -104 518 -97T435 -72T360 -23T303 59Z" />
<glyph unicode="J" glyph-name="J" horiz-adv-x="1090" d="M1180 1604Q1208 1604 1220 1586T1233 1546Q1233 1515 1211 1478T1150 1403T1061 1333T952 1276Q918 1179 898 1046T877 735Q877 628 885 523T902 316T920 118T928 -70Q928 -153 917 -240T880 -409T815
-563T718 -690T586 -775T416 -807Q331 -807 258 -779T130 -702T41 -587T0 -444L66 -424Q72 -492 98 -554T170 -664T277 -740T416 -768Q491 -768 550 -748T656 -692T734 -610T788 -509T819 -398T829 -285Q829 -163 816 -44T787 192T758 424T745 657Q745 832 782
982T874 1251Q721 1208 603 1164T403 1058T280 909T238 694Q238 616 256 557T303 455T370 382T446 333T520 304T582 289L575 264Q491 268 408 298T260 385T154 522T113 711Q113 828 159 917T297 1074T525 1192T840 1284Q855 1287 869 1291T899 1300Q935 1371 974
1427T1051 1523T1122 1583T1180 1604ZM1180 1565Q1160 1565 1135 1552T1082 1510T1026 1436T973 1329Q1026 1354 1067 1383T1135 1442T1177 1499T1192 1546Q1192 1552 1191 1558T1180 1565Z" />
<glyph unicode="K" glyph-name="K" horiz-adv-x="1595" d="M944 1511Q972 1511 990 1496T1008 1452Q1008 1413 980 1381T909 1324T816 1281T723 1253Q698 1190 683 1105T668 905Q668 831 670 750T674 584Q730 562 777 530T866 455Q967 478 1047 525T1188 638T1290
785T1354 956Q1383 1074 1421 1160T1500 1307T1585 1407T1666 1469T1737 1503T1788 1518L1800 1491Q1726 1473 1673 1421T1581 1297T1517 1141T1473 975Q1440 831 1383 731T1251 564T1090 460T909 408Q968 339 1019 259T1117 98T1211 -58T1310 -190T1421 -282T1554
-317Q1577 -317 1602 -314T1655 -301L1667 -330Q1666 -331 1651 -338T1611 -355T1551 -371T1477 -379Q1375 -379 1301 -338T1172 -228T1075 -71T993 113Q955 202 918 273T838 399Q810 396 783 396T727 395H678V383Q678 293 670 209T643 50T589 -86T504 -192T381
-260T213 -285Q132 -285 57 -261T-82 -186L-57 -156Q-2 -201 67 -223T209 -246Q291 -246 349 -219T445 -147T507 -41T541 85T556 221T559 352V406Q494 416 456 433T397 468T371 502T365 530Q365 553 375 570T403 597T445 613T496 618Q511 618 526 617T557 614V668Q557
864 586 1005T659 1241Q588 1233 519 1232T383 1219T252 1181T129 1094L98 1118Q156 1178 216 1209T341 1253T473 1270T618 1278Q632 1278 647 1280T680 1284Q716 1351 755 1395T831 1465T898 1501T944 1511ZM944 1473Q933 1473 911 1466T860 1439T801 1385T743
1296Q785 1307 825 1322T898 1356T949 1399T969 1450Q969 1458 964 1465T944 1473ZM494 580Q443 580 425 565T406 532Q406 506 446 482T559 444Q559 478 558 510T557 575Q542 577 526 578T494 580ZM801 442Q772 473 741 497T676 539Q676 513 677 487T678 434H680Q712
434 742 435T801 442Z" />
<glyph unicode="L" glyph-name="L" horiz-adv-x="1583" d="M213 -92Q165 -92 126 -79T59 -41T16 15T0 86Q0 173 60 222T227 272Q303 272 366 252T483 199Q496 252 496 319Q496 388 490 454T477 586T463 716T457 844Q457 988 485 1093T558 1273T662 1393T782 1465T901
1500T1006 1509Q1075 1509 1130 1486T1225 1425T1286 1339T1307 1239Q1307 1193 1296 1152T1272 1080T1246 1029T1233 1008L1202 1030Q1220 1057 1235 1090Q1247 1118 1257 1154T1268 1231Q1268 1281 1250 1324T1198 1400T1116 1451T1008 1470Q903 1470 821 1427T683
1314T598 1158T569 985Q569 928 574 866T584 739T595 605T600 469Q600 378 588 300T549 156Q604 115 656 71T762 -10T877 -70T1010 -94Q1103 -94 1180 -55T1314 48T1401 189T1432 344Q1432 372 1424 410T1395 479L1419 498Q1420 496 1433 480T1461 434T1488 363T1501
270Q1501 196 1474 124T1391 -6T1249 -99T1044 -135Q951 -135 880 -111T751 -48T641 35T535 121Q487 21 408 -35T213 -92ZM225 -53Q322 -53 384 5T475 162Q424 193 365 213T231 233Q216 233 191 228T141 208T98 165T80 88Q80 56 91 31T122 -14T168 -43T225 -53Z"
/>
<glyph unicode="M" glyph-name="M" horiz-adv-x="1372" d="M1407 -264Q1406 -264 1376 -260T1300 -236T1202 -178T1104 -71T1029 99T999 348Q999 403 1005 479T1021 643T1044 823T1070 1004T1096 1171T1118 1309Q1106 1261 1092 1205T1061 1086T1029 957T995 825Q978
757 957 684T910 539T853 403T784 289T702 211T606 182Q577 182 551 193T506 230T475 301T463 414Q463 454 466 511T475 637T488 783T504 938T520 1094T535 1241Q509 1135 473 977T393 623Q356 458 316 331T236 108T160 -53T97 -159T52 -218T35 -238L0 -219Q0 -218
17 -188T63 -102T127 30T201 202T277 405T346 633Q391 801 426 944T487 1191T525 1355T539 1415L578 1411Q578 1409 578 1364T577 1247T576 1085T575 902T574 726T573 580Q573 510 578 453T596 355T628 292T674 270Q696 270 726 299T793 395T870 570T954 836Q969
890 987 956T1028 1105T1075 1292T1130 1522L1169 1516Q1149 1276 1132 1039T1114 561Q1114 380 1134 246T1193 18T1289 -136T1423 -227L1407 -264Z" />
<glyph unicode="N" glyph-name="N" horiz-adv-x="1380" d="M-20 -219Q-13 -210 10 -179T65 -96T133 28T201 193T257 396T291 635Q305 823 313 977T326 1241T332 1411T334 1473L373 1477Q399 1349 424 1214T475 945T530 683T591 440T662 229T745 62T845 -47T965
-86Q1007 -86 1052 -57T1134 37T1195 206T1219 459Q1219 548 1210 652T1180 866T1131 1088T1061 1301T969 1494T856 1651L883 1679Q949 1608 1002 1517T1097 1322T1169 1106T1218 882T1247 662T1257 459Q1257 334 1236 219T1172 16T1062 -124T905 -176Q833 -176
774 -141T665 -42T578 107T509 295T456 509T416 738T387 969T365 1190Q360 1082 350 942T330 633Q320 461 295 324T228 80T130 -107T2 -246L-20 -219Z" />
<glyph unicode="O" glyph-name="O" horiz-adv-x="1485" d="M1395 639Q1394 451 1346 304T1211 53T1000 -104T725 -158Q583 -158 465 -103T263 48T131 275T84 559Q84 689 110 798T178 997T277 1159T392 1286T512 1383T622 1452T710 1496T764 1518L776 1485Q745
1472 691 1443T574 1367T446 1251T329 1092T243 886T209 629Q209 480 244 346T351 111T528 -49T778 -109Q819 -109 877 -97T1000 -52T1127 34T1241 171T1322 369T1354 639Q1354 682 1351 728T1339 821Q1250 746 1146 702T924 657Q847 657 780 678T664 739T586 833T557
954Q557 1038 589 1103T675 1213T795 1281T934 1305Q1031 1305 1104 1272T1229 1182T1314 1053T1366 901Q1414 948 1455 1006T1530 1139L1567 1124Q1493 970 1374 854Q1385 798 1390 744T1395 639ZM954 733Q1053 733 1149 765T1331 868Q1314 946 1284 1017T1206
1144T1092 1233T936 1266Q864 1266 811 1244T721 1185T667 1100T649 999Q649 955 664 908T716 822T810 758T954 733Z" />
<glyph unicode="P" glyph-name="P" horiz-adv-x="1434" d="M537 -96Q514 -62 491 -2T447 130T411 279T387 424Q347 432 323 444T285 469T267 497T262 522Q262 556 295 589T385 645Q393 743 412 827T454 981T503 1104T549 1195T584 1251T598 1272L633 1255Q624
1235 605 1188T566 1068T527 897T500 678Q517 681 534 683T569 688L573 649Q552 647 533 645T496 639Q494 610 494 579T494 516V451H559Q639 451 723 466T888 512T1038 593T1162 712T1245 871T1276 1073Q1276 1164 1248 1229T1173 1341T1068 1415T949 1458T831
1479T731 1485Q644 1485 547 1463T356 1405T175 1325T23 1239L0 1272Q4 1274 35 1294T120 1342T245 1403T404 1463T589 1509T791 1528Q913 1528 1024 1498T1219 1406T1353 1251T1403 1030Q1403 926 1369 840T1274 686T1131 566T954 480T756 429T551 412H496Q501
299 519 174T573 -88L537 -96ZM303 522Q303 507 320 493T383 467Q381 481 381 494T381 522Q381 542 381 561T383 600Q303 559 303 522Z" />
<glyph unicode="Q" glyph-name="Q" horiz-adv-x="1659" d="M481 -240Q400 -240 324 -225T190 -179T96 -104T61 0Q61 55 87 95T157 162T253 203T360 221Q261 330 209 462T156 756Q156 864 182 960T255 1138T369 1284T517 1395T691 1464T885 1489Q1040 1489 1167
1439T1386 1296T1528 1075T1579 788Q1579 641 1538 505T1421 253T1240 42T1006 -117Q1078 -192 1149 -266T1295 -399T1454 -495T1636 -532Q1698 -532 1754 -513T1862 -451L1884 -475Q1883 -476 1874 -487T1845 -514T1799 -549T1735 -584T1655 -610T1559 -621Q1487
-621 1427 -601T1313 -546T1213 -464T1122 -364T1035 -255T948 -143Q842 -190 725 -215T481 -240ZM256 756Q256 579 298 451T426 221Q510 218 584 192T725 125T852 30T971 -82Q1085 -20 1174 71T1325 276T1419 521T1452 795Q1452 951 1409 1073T1290 1279T1111
1406T887 1450Q746 1450 630 1401T430 1260T302 1041T256 756ZM618 10Q506 80 416 164Q351 163 306 148T233 108T191 55T178 -4Q178 -42 201 -77T268 -138T372 -181T510 -197Q625 -197 727 -175T920 -109Q877 -59 831 -14T731 67T618 127T485 160Q519 128 557 98T639
39L618 10Z" />
<glyph unicode="R" glyph-name="R" horiz-adv-x="1583" d="M799 436Q761 436 711 439T610 451Q612 425 613 399T614 348Q614 235 594 142T534 -17T435 -119T297 -156Q238 -156 165 -134T0 -55L20 -23Q98 -71 167 -94T297 -117Q362 -117 404 -94T470 -32T504 56T514
156Q514 227 505 308T487 479Q441 495 412 516T383 567Q383 595 409 615T479 647Q479 733 492 815T524 971T566 1106T609 1212T642 1282T657 1307L692 1290Q692 1289 676 1251T641 1142T606 974T590 756Q590 733 590 708T592 657Q703 652 780 607T915 483Q1001
501 1080 544T1220 655T1317 811T1354 1008Q1354 1094 1329 1161T1261 1279T1163 1365T1048 1421T931 1452T823 1462Q685 1462 575 1441T379 1388T233 1319T131 1250T72 1196T53 1174L20 1196Q23 1199 44 1223T106 1280T211 1353T363 1424T566 1479T823 1501Q905
1501 986 1489T1140 1451T1275 1385T1383 1291T1455 1166T1481 1008Q1481 883 1436 787T1315 621T1142 508T940 446Q975 392 1001 326Q1032 252 1057 173T1111 17T1172 -127T1251 -246T1358 -328T1505 -358Q1565 -358 1627 -332T1755 -246L1780 -274Q1743 -310
1704 -342T1623 -399T1533 -438T1432 -453Q1351 -453 1292 -431T1188 -368T1114 -272T1062 -153T1024 -16T991 131Q971 222 947 300T885 440Q863 437 842 437T799 436ZM596 618Q598 586 601 553T608 487Q646 479 695 476T803 473Q817 473 832 473T862 475Q816 538
753 575T596 618ZM483 522Q481 542 480 563T479 606Q453 600 438 590T422 569Q422 561 436 549T483 522Z" />
<glyph unicode="S" glyph-name="S" horiz-adv-x="1206" d="M295 1038Q295 982 318 938T380 857T471 790T583 731T704 675T826 617T937 551T1029 472T1091 375T1114 254Q1114 132 1068 43T945 -105T766 -192T553 -221Q455 -221 368 -196T215 -125T111 -16T72 123Q72
189 92 235T137 312T184 356T209 371L231 324Q229 323 212 312T176 276T140 215T123 123Q123 69 143 27T198 -48T277 -103T370 -140T466 -161T555 -168Q661 -168 747 -142T893 -69T987 39T1020 172Q1020 252 986 310T896 412T769 492T623 562T477 633T349 720T259
833T225 987Q225 1086 258 1168T350 1309T488 1401T659 1434Q752 1434 822 1413T939 1353T1010 1260T1034 1141Q1034 1088 1022 1038T994 947T966 882T952 854L907 879Q907 880 918 903T944 963T969 1046T981 1141Q981 1195 962 1239T902 1315T801 1363T657 1380Q580
1380 514 1355T400 1283T323 1175T295 1038Z" />
<glyph unicode="T" glyph-name="T" horiz-adv-x="1552" d="M641 -166Q533 -166 446 -139T297 -63T202 52T168 195Q168 204 168 214T170 233L209 229Q207 220 207 213T207 197Q207 128 238 69T324 -33T457 -102T629 -127Q715 -127 779 -102T890 -34T966 68T1015
194T1043 334T1055 479T1058 619T1059 745Q1061 888 1095 998T1180 1192Q1110 1215 1039 1251T897 1323T754 1383T608 1409Q489 1409 406 1377T271 1295T196 1182T172 1059Q172 988 195 928T261 824T362 756T489 731Q555 731 608 755T699 810T757 865T778 891L809
868Q809 867 798 853T766 817T712 772T638 727T544 692T430 678Q367 678 302 699T183 764T95 874T61 1028Q61 1114 95 1190T194 1324T355 1414T575 1448Q638 1448 696 1436T809 1403T913 1358T1012 1308T1107 1261T1200 1225Q1237 1280 1274 1321T1341 1389T1391
1430T1411 1446L1434 1413Q1427 1409 1409 1395T1366 1356T1314 1294T1260 1210Q1275 1208 1289 1207T1319 1206Q1392 1206 1449 1224T1550 1271T1625 1333T1675 1396T1704 1446T1716 1470L1753 1458Q1752 1457 1742 1435T1711 1381T1655 1311T1573 1242T1462 1189T1317
1167Q1298 1167 1279 1169T1241 1176Q1210 1111 1190 1028T1169 842Q1169 758 1176 668T1184 487Q1184 348 1154 229T1057 22T888 -116T641 -166Z" />
<glyph unicode="U" glyph-name="U" horiz-adv-x="1403" d="M709 -213Q595 -213 488 -184T298 -86T164 99T113 385Q113 509 134 621T190 831T265 1011T345 1157T416 1268T465 1339L498 1319Q492 1308 471 1272T422 1176T363 1037T305 862T261 655T244 422Q244 275
276 164T367 -21T510 -134T700 -172Q783 -172 849 -142T968 -58T1060 66T1127 218T1174 386T1203 559T1218 722T1223 866Q1223 1011 1209 1133T1176 1348T1141 1503T1118 1593L1155 1606Q1190 1483 1215 1370T1257 1141T1282 901T1290 629Q1290 519 1277 414T1234
215T1160 43T1049 -93T900 -181T709 -213Z" />
<glyph unicode="V" glyph-name="V" horiz-adv-x="1153" d="M594 -152Q564 -152 547 -130T520 -63T501 49T481 208T450 415T397 670Q373 768 335 858T253 1028T164 1172T83 1283T24 1355T0 1382L82 1464Q83 1462 102 1441T150 1377T217 1271T293 1121T370 924T438
678Q480 490 501 343T534 95T559 -58T596 -111Q633 -71 661 -9T711 132T751 299T783 483T809 672T834 855T860 1020T891 1157Q924 1274 972 1365T1075 1525T1186 1643T1289 1723T1372 1771T1421 1792L1440 1757Q1439 1756 1412 1741T1343 1689T1249 1594T1145 1447T1047
1241T971 967Q964 932 951 865T918 713T876 530T827 337T771 153T713 -3T653 -111T594 -152Z" />
<glyph unicode="W" glyph-name="W" horiz-adv-x="1409" d="M922 -188V-190Q921 -190 910 -171T881 -114T843 -25T806 94T778 239T766 406Q766 458 769 511T777 613T784 705T788 782Q788 816 782 835T756 854Q735 854 699 807T619 682T524 500T424 284T328 56T244
-162L211 -141Q212 -138 216 -126T226 -85T238 -4T249 129T258 330T262 612Q262 771 246 895T206 1112T153 1270T100 1376T58 1435T41 1454L61 1479Q67 1476 91 1461T149 1414T219 1332T287 1211T339 1044T360 827Q360 730 353 621T335 407T310 211T285 59Q317
140 358 239T448 440T548 637T654 808T759 928T858 973Q878 973 893 942T909 850Q909 809 904 753T893 626T882 474T877 297Q877 210 887 116T928 -78Q940 -17 960 74T1008 276T1071 512T1150 768T1245 1029T1356 1281T1484 1508T1628 1696T1788 1831T1966 1898L1982
1815Q1874 1798 1779 1732T1599 1566T1443 1337T1309 1067T1197 779T1106 494T1037 233T988 18T958 -128T948 -186L922 -188Z" />
<glyph unicode="X" glyph-name="X" horiz-adv-x="1092" d="M1106 -471Q1002 -405 918 -310T766 -85T646 215T555 600Q455 431 372 306T221 90T101 -64T12 -172L-61 -92Q-30 -59 6 -22T85 61T177 165T283 297T404 466T541 680V688Q515 845 475 959T388 1154T291
1285T194 1366T109 1412T47 1436L55 1470Q62 1468 96 1461T179 1432T289 1368T411 1256T528 1084T625 836Q625 832 626 830T627 825Q655 873 683 925T743 1034Q844 1222 944 1355T1136 1579T1305 1722T1443 1802T1537 1838T1577 1847L1583 1808Q1582 1808 1550
1801T1463 1768T1331 1689T1166 1547T978 1323T778 997Q743 931 710 871T645 756Q678 629 703 510T755 279T812 66T885 -127T986 -296T1126 -440L1106 -471Z" />
<glyph unicode="Y" glyph-name="Y" horiz-adv-x="1317" d="M539 -29Q601 -29 660 -5T774 63T879 165T975 293Q993 473 1018 609T1072 843T1130 1007T1187 1110T1238 1164T1278 1180Q1282 1180 1289 1179T1302 1171T1312 1151T1317 1116Q1317 1078 1303 1005T1261
837T1192 634T1096 420Q1093 360 1091 279T1082 104T1063 -88T1027 -281T967 -460T876 -607T746 -708T571 -745Q472 -745 402 -718T288 -644T224 -538T203 -412Q203 -359 210 -323T219 -283L258 -295Q254 -311 251 -329Q248 -345 246 -366T244 -414Q244 -473 262
-526T319 -619T421 -683T571 -707Q666 -707 729 -674T833 -582T896 -442T929 -263T947 -57T963 166Q963 175 964 185T965 205Q917 140 864 86T750 -9T624 -71T485 -94Q406 -94 333 -64T205 29T116 191T82 426Q82 577 117 710T206 956T327 1160T455 1321T569 1435T645
1501L672 1473Q671 1472 636 1439T549 1344T436 1196T324 1003T238 771T203 508Q203 248 287 110T539 -29ZM1278 1118Q1278 1127 1278 1134T1272 1141Q1253 1141 1230 1101T1183 984T1140 792T1106 530Q1146 618 1178 705T1232 870T1266 1012T1278 1118Z" />
<glyph unicode="Z" glyph-name="Z" horiz-adv-x="1477" d="M981 -156Q927 -156 868 -143T749 -110T628 -64T512 -14T406 34T317 70Q269 19 232 -9T154 -37Q128 -37 114 -29T92 -11T84 10T82 25Q82 42 92 60T122 93T172 117T244 127Q259 127 275 126T309 119Q364
179 428 265T562 452T704 661T848 873T988 1072T1118 1239Q1047 1251 973 1270T824 1309T673 1342T522 1356Q432 1356 367 1335T255 1280T180 1208T131 1133L102 1145Q158 1307 269 1383T535 1460Q629 1460 713 1438T873 1386T1018 1326T1153 1280Q1155 1282 1157
1283T1161 1288Q1215 1347 1266 1375T1358 1403Q1393 1403 1414 1381T1436 1331Q1436 1305 1421 1286T1381 1254T1320 1235T1245 1229Q1225 1229 1205 1229T1165 1233Q1100 1161 1035 1071T902 882T767 678T630 472T492 278T354 109Q418 92 494 64T651 10T815 -36T979
-55Q1051 -55 1109 -36T1209 18T1273 103T1296 217Q1296 244 1289 271T1269 324T1237 371T1194 408L1214 436Q1252 411 1282 383T1333 322T1365 250T1376 162Q1376 103 1354 46T1283 -56T1161 -128T981 -156ZM1200 1270Q1213 1268 1225 1268T1249 1268Q1327 1268
1362 1288T1397 1331Q1397 1344 1387 1353T1356 1362Q1331 1362 1289 1340T1206 1276L1200 1270ZM274 82Q256 88 244 88Q213 88 190 82T152 66T129 45T121 25Q121 15 129 9T154 2Q185 2 212 22T270 78L274 82Z" />
<glyph unicode="[" glyph-name="bracketleft" horiz-adv-x="590" d="M467 -244L465 -283L150 -266L133 1452L465 1460V1421L242 1413L258 -231L467 -244Z" />
<glyph unicode="\" glyph-name="backslash" horiz-adv-x="717" d="M680 -55Q526 258 358 606T4 1341L41 1358Q213 1006 380 660T717 -39L680 -55Z" />
<glyph unicode="]" glyph-name="bracketright" horiz-adv-x="590" d="M164 1421L166 1460L481 1444L498 -274L166 -283L164 -244L389 -238L373 1409L164 1421Z" />
<glyph unicode="^" glyph-name="asciicircum" horiz-adv-x="512" d="M416 940L281 1206L143 940H102L258 1280H303L459 940H416Z" />
<glyph unicode="_" glyph-name="underscore" horiz-adv-x="614" d="M0 -246V-170H614V-246H0Z" />
<glyph unicode="`" glyph-name="grave" horiz-adv-x="614" d="M217 1042L436 862L418 838L178 983L217 1042Z" />
<glyph unicode="a" glyph-name="a" horiz-adv-x="731" d="M864 479Q823 368 790 293T725 172T662 106T594 86Q549 86 517 117T477 215Q445 146 394 103T266 59Q225 59 188 74T121 120T75 200T57 313Q57 379 73 437T117 543T179 630T253 694T329 734T399 748Q427
748 453 741T499 719T532 677T545 612Q545 566 528 532T486 475T436 438T395 418L383 457Q386 457 405 465T446 491T486 539T504 610Q504 658 477 683T408 709Q376 709 333 686T251 614T184 490T156 311Q156 208 192 154T291 100Q322 100 350 117T403 164T446 231T479
311Q479 343 486 386T510 475L571 455Q566 442 561 421T552 375T544 324T541 272Q541 194 556 165T610 135Q632 135 653 151T700 207T755 315T825 489L864 479Z" />
<glyph unicode="b" glyph-name="b" horiz-adv-x="760" d="M385 61Q420 61 449 78T502 123Q460 135 424 160T359 224T315 311T299 420Q299 467 311 506T345 572T397 615T463 631Q490 631 520 619T575 579T616 504T633 387Q633 331 618 271T573 156H580Q631 156
669 179T737 246T795 350T854 489L893 479Q859 389 827 321T758 208T676 139T569 115H549Q515 67 470 38T367 8Q293 8 240 42T151 143T99 304T82 520Q82 722 103 871T161 1117T245 1261T346 1307Q384 1305 404 1273T424 1178Q424 1111 405 1030T352 856T271 657T168
438Q170 397 175 354T191 268T218 189T257 123T312 78T385 61ZM334 1266Q298 1266 272 1235T227 1149T196 1022T178 868T169 699T166 530Q214 631 253 725T322 903T367 1057T383 1180Q383 1195 382 1210T375 1237T360 1258T334 1266ZM371 430Q371 382 382 339T414
260T464 200T528 162Q544 189 556 218T576 277T588 334T592 383Q592 431 582 469T554 535T513 576T465 590Q442 590 425 577T395 542T377 490T371 430Z" />
<glyph unicode="c" glyph-name="c" horiz-adv-x="655" d="M334 520Q334 580 362 624T436 709Q422 718 406 722T375 727Q342 727 305 711T236 655T183 551T162 387Q162 306 181 248T235 153T314 98T410 80Q471 80 519 111T607 198T681 328T750 489L788 479Q768
430 747 378T700 276T644 180T574 101T485 47T375 27Q313 27 258 47T160 109T93 214T68 362Q68 448 96 522T169 650T266 735T367 766Q423 766 467 737Q475 743 482 749T498 764L520 733Q514 727 508 722T496 711Q514 689 525 659T537 592Q537 551 528 520T502 466T464
433T420 422Q408 422 393 427T365 444T343 474T334 520ZM496 592Q496 621 488 644T465 684Q428 652 402 613T375 520Q375 492 389 477T422 461Q444 461 458 475T481 509T492 552T496 592Z" />
<glyph unicode="d" glyph-name="d" horiz-adv-x="834" d="M391 709Q435 709 466 698T518 674Q525 805 541 906T578 1083T625 1210T676 1293T726 1338T772 1352Q817 1352 840 1314T864 1202Q864 1163 856 1103T831 968T791 808T737 637T670 467T592 309Q596 252
604 217T626 163T656 136T694 129Q723 129 750 148T805 211T863 322T928 489L967 479Q938 402 909 330T847 201T773 110T682 76Q619 76 584 113T532 217Q474 132 408 82T268 31Q227 31 189 46T122 94T75 177T57 299Q57 373 80 446T147 577T252 672T391 709ZM303
88Q359 88 415 137T524 268Q518 315 516 368T514 481Q514 519 514 556T516 629Q511 633 502 640T478 654T445 665T403 670Q369 670 326 651T245 590T180 479T154 313Q154 266 164 225T194 154T241 106T303 88ZM825 1202Q825 1217 824 1236T817 1271T803 1299T776
1311Q735 1311 701 1243T641 1056T602 775T588 428V383Q622 450 653 526T710 679T758 832T794 976T817 1103T825 1202Z" />
<glyph unicode="e" glyph-name="e" horiz-adv-x="573" d="M313 14Q262 14 215 32T133 86T76 178T55 307Q55 397 81 467T147 586T238 660T336 686Q398 686 434 645T471 539Q471 483 450 438T395 360T316 309T223 291Q200 291 180 293T143 299Q149 237 167 192T212
118T272 75T342 61Q387 61 425 83T495 140T553 222T601 315T638 408T668 489L707 479Q694 446 677 399T636 301T582 198T512 106T424 40T313 14ZM338 647Q301 647 266 624T202 559T157 462T139 342Q152 337 175 334T233 330Q269 330 304 345T368 388T414 454T432
537Q432 559 426 579T408 614T379 638T338 647Z" />
<glyph unicode="f" glyph-name="f" horiz-adv-x="477" d="M485 1227Q485 1151 458 1065T386 887T287 700T176 510Q165 417 156 325T140 151T129 -1T125 -117Q125 -213 134 -289T163 -419T211 -501T279 -530Q301 -530 316 -516T341 -480T356 -430T363 -374T366
-321T367 -279Q367 -167 352 -66T315 109H307Q283 109 262 115T223 134T196 162T186 197Q186 224 202 243T244 262Q275 262 303 233T354 154Q394 170 427 210T488 299T535 400T571 489L610 479Q594 436 572 382T521 276T455 182T369 121Q385 79 398 31T420 -69T435
-171T440 -270Q440 -334 430 -389T399 -484T348 -548T276 -571Q221 -571 183 -545T118 -474T77 -375T55 -261T45 -148T43 -49Q43 50 52 173T76 425T109 680T146 914T182 1102T211 1217Q219 1242 232 1268T265 1315T308 1349T365 1362Q420 1362 452 1326T485 1227ZM260
1145Q255 1119 247 1067T229 943T208 785T186 606Q241 700 288 785T369 948T424 1094T444 1225Q444 1265 427 1294T369 1323Q340 1323 321 1303T289 1255T271 1197T260 1145ZM227 199Q227 180 250 164T305 145Q291 183 277 203T248 223Q240 223 234 217T227 199Z"
/>
<glyph unicode="g" glyph-name="g" horiz-adv-x="686" d="M268 -473Q210 -473 166 -456T91 -410T46 -340T31 -252Q31 -210 46 -173T86 -109T145 -67T215 -51Q250 -51 283 -70T348 -125L315 -150Q292 -121 266 -107T213 -92Q184 -92 159 -104T113 -138T82 -187T70
-246Q70 -286 82 -320T119 -379T181 -419T268 -434Q337 -434 385 -402T463 -317T506 -200T520 -68V88V164Q477 105 413 68T260 31Q222 31 184 43T116 86T66 167T47 295Q47 348 61 401T102 505T164 599T243 675T334 726T434 745Q466 745 491 735T536 709T570 674T594
635Q608 675 619 701T639 743L676 725Q673 719 661 684T634 586T609 433T598 227Q598 201 598 170T599 107T599 44T600 -12Q600 -150 570 -239T493 -381T386 -453T268 -473ZM326 92Q360 92 389 103T443 132T488 176T524 231Q530 349 545 435T578 584Q571 608 559
630T530 669T489 696T434 707Q396 707 345 683T248 609T171 485T139 313Q139 265 150 224T184 154T242 109T326 92Z" />
<glyph unicode="h" glyph-name="h" horiz-adv-x="758" d="M426 1128Q426 1065 405 987T346 817T260 620T154 397Q149 349 146 301T139 203Q152 236 171 279T215 369T269 461T330 541T399 599T475 621Q502 621 524 611T561 583T585 541T594 489Q594 453 585 412T563
327T542 241T532 160Q532 129 547 108T602 86Q630 86 657 109T709 168T755 250T795 341T828 425T852 489L891 479Q874 434 856 384T818 285T773 190T721 111T658 56T582 35Q544 35 519 46T480 76T459 121T453 180Q453 214 463 257T485 347T508 440T518 526Q518
548 508 565T471 582Q430 582 392 553T320 476T256 370T201 253T157 141T123 53L84 59Q84 64 84 72T83 96T83 133T82 188Q82 282 87 436T111 805Q119 910 135 984T171 1109T213 1190T257 1235T296 1255T326 1260Q372 1260 399 1224T426 1128ZM328 1219Q302 1219
282 1194T245 1122T216 1010T194 866T177 695T162 504Q209 594 249 682T320 852T367 1003T385 1128Q385 1144 383 1160T374 1190T356 1211T328 1219Z" />
<glyph unicode="i" glyph-name="i" horiz-adv-x="371" d="M209 104Q146 104 105 155T63 309Q63 377 90 482T186 721L223 711Q217 685 204 640T177 540T153 424T143 307Q143 260 150 231T168 185T195 162T229 156Q258 156 284 174T333 221T377 287T414 361T444
431T465 489L504 479Q493 449 479 410T446 328T404 246T352 175T288 124T209 104ZM371 1036Q371 1001 344 982T276 963Q255 963 237 969T205 986T184 1011T176 1042Q176 1076 202 1097T264 1118Q289 1118 309 1111T343 1091T364 1065T371 1036ZM317 1036Q317 1046
309 1054T283 1063Q252 1063 252 1040Q252 1029 261 1022T287 1014Q302 1014 309 1020T317 1036Z" />
<glyph unicode="j" glyph-name="j" horiz-adv-x="348" d="M190 696Q188 680 180 627T161 483T141 267T123 -23Q168 22 213 79T300 202T378 340T442 489L481 479Q449 393 408 312T319 157T220 20T119 -92V-133Q114 -268 87 -362T23 -516T-58 -603T-139 -631Q-170
-631 -197 -620T-246 -589T-279 -540T-291 -475Q-291 -412 -269 -363T-210 -273T-123 -200T-18 -137Q-7 -131 3 -124T25 -109Q31 21 38 117T55 285T75 413T98 515T124 609T154 709L190 696ZM0 -395Q11 -357 16 -305T23 -190V-176Q12 -184 3 -190T-16 -203Q-66 -232
-107 -263T-177 -330T-222 -406T-238 -494Q-238 -512 -232 -529T-214 -559T-186 -581T-150 -590Q-106 -590 -68 -542T0 -395ZM332 1036Q332 1001 305 982T238 963Q216 963 198 969T166 986T145 1011T137 1042Q137 1076 163 1097T225 1118Q250 1118 270 1111T304
1091T325 1065T332 1036ZM279 1036Q279 1046 270 1054T244 1063Q213 1063 213 1040Q213 1029 222 1022T248 1014Q263 1014 271 1020T279 1036Z" />
<glyph unicode="k" glyph-name="k" horiz-adv-x="729" d="M444 1229Q444 1158 419 1073T353 890T262 688T162 473Q156 399 150 333T137 211Q152 246 171 292T215 388T267 484T328 569T397 630T475 653Q503 653 528 641T573 609T603 561T614 504Q614 454 591 416T533
349T453 302T367 272Q371 253 384 227T418 178T470 138T537 121Q615 121 684 212T821 489L860 479Q827 389 792 314T717 183T629 97T526 66Q504 66 476 72T417 97T356 153T301 250Q298 256 296 265T293 279Q293 298 302 305T324 316T354 320T385 328Q459 357 494
411T530 535Q530 579 511 596T467 614Q447 614 427 604T391 578Q350 537 315 483T250 370T197 255T157 154T132 81T123 53L84 59Q83 70 83 86Q82 100 82 119T82 164Q82 221 84 304T91 491T107 716T135 969Q149 1077 171 1151T222 1270T281 1336T344 1356Q370 1356
389 1346T420 1319T438 1278T444 1229ZM354 1315Q329 1315 309 1286T271 1206T240 1087T214 939T192 773T174 600Q198 652 225 709T277 825T326 941T367 1052T395 1150T406 1229Q406 1241 405 1256T398 1284T382 1306T354 1315Z" />
<glyph unicode="l" glyph-name="l" horiz-adv-x="430" d="M440 1260Q440 1197 426 1126T388 982T334 835T272 693T211 564T158 455Q162 373 172 307T197 195T233 123T281 98Q311 98 340 126T400 205T461 328T524 489L563 479Q539 410 509 334T442 193T362 87T268
45Q218 45 184 76T128 157T94 272T76 404T69 534T68 647Q68 738 75 828T98 1000T136 1152T187 1274T252 1355T330 1384Q360 1384 381 1374T415 1347T434 1308T440 1260ZM152 684Q152 646 152 610T154 539Q179 589 207 648T262 771T315 900T359 1027T389 1146T401
1249Q401 1264 399 1281T390 1312T371 1336T340 1346Q302 1346 268 1297T208 1159T167 950T152 684Z" />
<glyph unicode="m" glyph-name="m" horiz-adv-x="1141" d="M94 489Q126 583 163 629T250 676Q272 676 291 666T326 634T349 575T358 487Q403 602 449 651T549 700Q569 700 589 692T626 664T654 608T666 520Q693 573 733 606T823 639Q847 639 871 631T913 602T944
550T956 469Q956 455 954 433T949 383T943 328T937 276T932 233T930 207Q930 148 944 121T995 94Q1023 94 1052 127T1111 216T1172 342T1235 489L1274 479Q1245 410 1214 333T1147 191T1068 84T975 41Q916 41 885 76T854 193Q854 229 859 269T870 350T882 429T887
500Q887 518 884 536T874 568T854 591T821 600Q796 600 773 576T729 512T690 421T658 315T633 207T616 109L545 121Q545 121 550 145T561 208T576 295T590 393T601 487T606 563Q606 605 590 632T543 659Q514 659 488 626T438 540T395 419T358 283T328 151T305 43L238
59Q252 128 263 199Q273 260 281 333T289 475Q289 519 287 548T279 596T263 621T236 629Q211 629 185 593T133 479L94 489Z" />
<glyph unicode="n" glyph-name="n" horiz-adv-x="864" d="M94 489Q109 528 126 563T164 626T207 669T260 686Q274 686 292 680T326 656T354 604T365 514Q365 485 362 450T356 381Q387 447 417 492T477 565T536 605T594 618Q607 618 624 612T657 591T683 550T694
483Q694 450 689 417T678 353T667 295T662 246Q662 196 680 170T735 143Q765 143 792 165T842 223T885 300T919 380T944 448T958 489L997 479Q983 444 968 402T933 316T892 233T843 161T785 111T715 92Q683 92 660 104T620 138T596 188T588 250Q588 287 594 326T608
401T622 467T629 518Q629 549 617 564T584 580Q555 580 528 559T475 503T426 423T384 331T348 236T319 151T299 87T287 53L229 63Q241 122 251 187T268 316T280 438T285 541Q285 602 277 623T248 645Q230 645 214 632T185 596T158 543T133 479L94 489Z" />
<glyph unicode="o" glyph-name="o" horiz-adv-x="690" d="M344 90Q400 90 451 131T532 250H524Q462 250 410 271T319 329T258 419T236 535Q236 570 245 606T275 670T327 717T403 735Q439 735 474 721T537 671T582 577T600 426Q600 392 597 359T586 293Q625 300
655 318T709 361T751 419T784 489L823 479Q802 422 775 382T716 315T650 274T578 254Q564 205 541 162T485 87T409 37T311 18Q266 18 221 36T139 93T80 190T57 330Q57 383 69 434T104 530T158 615T225 684L240 659Q217 638 196 607T158 539T131 460T121 377Q121
296 141 241T194 153T266 105T344 90ZM401 696Q374 696 351 685T311 653T284 605T274 543Q274 484 294 437T348 357T429 307T528 289H547Q555 320 558 354T561 428Q559 505 546 556T511 639T462 683T401 696Z" />
<glyph unicode="p" glyph-name="p" horiz-adv-x="768" d="M588 135Q621 135 650 153T706 202T756 271T799 349T834 425T862 489L901 479Q888 446 872 405T834 321T787 238T730 165T663 114T586 94Q546 94 506 111Q472 85 431 70T340 55Q309 55 290 63T261 82T246
106T242 127Q242 147 251 162T275 189T309 205T350 211Q384 211 415 199T475 172Q498 201 516 237T546 311T564 388T571 459Q571 536 546 570T485 604Q446 604 410 580T336 505T259 376T174 188Q169 179 166 169T158 150Q167 32 176 -76T186 -270Q186 -431 149
-508T35 -586Q5 -586 -17 -572T-53 -534T-75 -478T-82 -408Q-82 -350 -68 -280T-29 -135T27 21T94 180Q85 280 79 376T72 563Q72 641 83 685T117 729Q124 729 135 725T157 713T174 692T182 664Q182 623 171 580T141 494Q141 447 142 398T147 299Q191 391 233 456T317
563T400 624T485 643Q522 643 552 627T603 584T635 518T647 436Q647 355 621 277T543 143Q562 135 588 135ZM129 -340Q129 -252 123 -159T109 29Q50 -114 13 -229T-25 -438Q-25 -483 -8 -515T43 -547Q61 -547 76 -537T103 -503T122 -439T129 -340ZM336 94Q367 94
394 106T444 139Q417 152 394 162T348 172Q310 172 296 158T281 129Q281 118 294 106T336 94Z" />
<glyph unicode="q" glyph-name="q" horiz-adv-x="766" d="M899 479Q860 378 829 309T764 190T693 104T600 33Q671 -131 713 -258T756 -479Q756 -555 717 -598T606 -641Q558 -641 526 -616T473 -545T443 -437T434 -299Q434 -212 446 -105T479 119Q442 71 396 45T299
18Q252 18 209 34T131 83T77 168T57 289Q57 397 92 476T180 607T295 684T412 709Q449 709 477 701T528 679T565 649T592 616Q595 627 598 636T604 657L643 651Q638 624 631 582T616 487T599 377T582 262T567 151T555 55Q606 81 644 113T717 193T785 313T860 489L899
479ZM496 201Q514 295 534 386T578 561Q571 576 559 595T528 632T484 660T424 672Q378 672 341 654T273 605T219 535T181 452T158 366T150 285Q150 237 161 196T193 124T243 75T309 57Q362 57 409 95T496 201ZM717 -475Q717 -395 673 -263T553 43Q551 37 551 31T551
20Q542 -46 536 -107T526 -218T520 -307T518 -365Q518 -476 546 -537T627 -598Q670 -598 693 -565T717 -475Z" />
<glyph unicode="r" glyph-name="r" horiz-adv-x="594" d="M152 532Q142 497 132 472T110 426T84 385T51 342L43 350Q66 409 83 461T115 565Q99 588 88 622T76 705Q76 748 89 776T125 805Q137 805 147 794T165 765T176 724T180 674Q180 662 179 648T175 620T170
592T164 569Q170 564 183 561T219 557Q257 557 286 568T332 596Q347 620 355 633T369 652T376 660T383 662Q394 662 401 656T408 639Q408 636 405 631T397 618Q355 557 331 484T307 322Q307 219 340 173T436 127Q470 127 501 147T562 211T622 323T688 489L727 479Q684
352 646 271T571 142T495 76T410 57Q381 57 350 70T294 111T252 183T236 291Q236 322 241 355T256 420T276 481T299 535Q263 518 221 518Q180 518 152 532Z" />
<glyph unicode="s" glyph-name="s" horiz-adv-x="522" d="M166 565Q155 536 145 508T122 452T92 397T51 342L43 350Q69 413 89 479T129 627Q124 641 120 651T113 669T108 687T106 709Q106 725 110 744T123 781T143 809T166 821Q180 821 188 815T202 798T209 777T211
756Q211 741 208 722T200 684T192 651T188 633Q196 606 215 578T260 521T312 461T362 394T399 320T414 236Q414 173 396 134T346 74Q391 92 430 138T503 243T565 368T616 489L655 479Q621 392 583 309T497 161T389 56T250 16Q229 16 208 19T166 30T127 51T96 82L129
104Q138 90 157 78T207 66Q237 66 259 78T297 112T320 163T328 225Q328 293 309 342T263 429T209 500T166 565Z" />
<glyph unicode="t" glyph-name="t" horiz-adv-x="471" d="M-117 842Q-102 833 -81 821T-32 798T30 778T106 764Q120 854 142 926T190 1050T245 1129T301 1157Q332 1157 345 1133T358 1069Q358 1040 352 1005T336 931T312 849T283 764Q383 773 467 797T614 846L633
809Q551 778 463 754T266 723Q241 658 215 600T166 498Q167 442 172 377T194 254T241 159T322 121Q364 121 399 156T463 246T518 366T565 489L604 479Q590 443 574 398T538 307T494 217T441 139T377 84T301 63Q257 63 219 83T152 154T107 294T90 520Q90 630 102
725Q16 736 -42 759T-133 805L-117 842ZM307 1104Q298 1104 280 1086T242 1028T204 922T174 760H193H242Q260 810 273 857T297 944T312 1017T317 1071Q317 1104 307 1104ZM166 578Q183 613 198 648T227 721H190H170Q168 689 167 654T166 580V578Z" />
<glyph unicode="u" glyph-name="u" horiz-adv-x="776" d="M477 231Q446 175 417 138T360 79T302 48T242 39Q217 39 185 47T125 80T77 154T57 283Q57 364 76 435T118 561Q145 623 180 676L217 664Q216 663 211 646T197 600T179 533T161 453T147 366T141 281Q141
187 174 133T262 78Q322 78 378 147T485 342Q494 400 509 450T540 539T569 604T588 639L623 631Q607 556 596 497T577 389T567 304T563 236Q563 176 582 140T641 104Q668 104 693 124T745 190T802 309T870 489L909 479Q892 437 875 389T839 293T798 201T750 123T692
69T623 49Q587 49 560 63T515 101T487 158T477 231Z" />
<glyph unicode="v" glyph-name="v" horiz-adv-x="666" d="M799 479Q768 405 741 352T686 265T631 214T569 197Q524 197 493 225T455 297Q427 232 396 181T334 93T274 38T223 18Q205 18 179 33T128 83T87 175T70 317Q70 372 77 418T94 499Q105 539 119 571L158
567Q153 524 152 484T150 406Q150 323 158 258T177 149T203 81T229 57Q243 57 268 79T323 142T384 236T440 352Q437 371 434 398T430 446Q430 512 441 552T468 613T500 640T524 647Q551 647 551 606Q551 585 546 555T532 492T512 426T489 365Q489 330 496 307T516
269T545 248T578 242Q621 242 665 302T760 489L799 479Z" />
<glyph unicode="w" glyph-name="w" horiz-adv-x="958" d="M365 324Q365 362 369 396T380 457T391 502T399 528H440Q432 422 438 339T464 197T515 107T590 76Q633 76 664 107T715 188Q670 229 648 297T625 442Q625 503 635 541T659 601T690 631T719 639Q757 639
779 586T801 436Q801 377 793 318T766 207Q780 196 798 190T838 184Q881 184 913 215T970 293T1015 392T1053 489L1092 479Q1080 448 1067 411T1037 337T1001 264T957 202T902 159T836 143Q811 143 790 149T750 164Q722 107 679 71T573 35Q504 35 460 69T393 160Q377
125 358 102T317 66T274 48T231 43Q208 43 178 56T121 100T76 184T57 317Q57 358 65 399T87 478T121 549T168 608L203 586Q203 585 193 565T169 507T146 416T135 295Q135 254 141 216T159 149T191 102T238 84Q276 84 312 116T373 225Q368 248 367 273T365 324ZM694
473Q694 449 695 420T700 360T713 300T735 246Q748 292 754 341T760 434Q760 448 760 461T758 489Q752 550 740 574T721 598Q716 598 705 569T694 473Z" />
<glyph unicode="x" glyph-name="x" horiz-adv-x="735" d="M647 651Q584 568 520 483T391 307Q414 265 436 228T481 164T527 120T575 104Q617 104 653 140T720 232T778 356T829 489L868 479Q835 392 804 315T737 180T658 87T557 53Q538 53 518 56T475 71T427 109T371
178Q361 191 353 204T336 231Q291 170 248 107T162 -20L129 2Q175 70 221 136T315 268Q288 316 263 365T216 455T178 521T154 547Q147 527 142 509T127 469L90 483Q101 511 109 539T123 596Q126 607 137 614T158 621Q164 621 176 617T210 591T262 525T338 403Q346
388 354 374T371 346Q433 431 494 513T616 676L647 651Z" />
<glyph unicode="y" glyph-name="y" horiz-adv-x="743" d="M455 23Q455 151 467 262Q436 206 407 170T350 113T292 84T233 76Q209 76 179 83T121 114T76 179T57 293Q57 367 75 433T116 551Q142 611 176 662L213 649Q211 646 200 613T177 529T154 418T143 301Q143
217 173 167T260 117Q290 117 319 137T376 192T432 276T487 383Q506 482 532 559T588 690L625 680Q605 593 590 508T565 341T548 185T539 43Q582 74 619 112T693 202T764 324T838 489L877 479Q838 378 802 304T726 173T641 72T539 -12Q536 -122 519 -206T477 -352T421
-457T359 -525T299 -562T248 -573Q211 -573 182 -558T131 -517T99 -460T88 -395Q88 -338 115 -288T189 -192T294 -108T418 -33Q437 -20 455 -12V23ZM250 -532Q282 -532 315 -507T377 -426T426 -283T453 -72Q450 -74 447 -75T440 -80Q389 -112 339 -150T250 -233T185
-325T160 -426Q160 -444 166 -463T185 -497T213 -522T250 -532Z" />
<glyph unicode="z" glyph-name="z" horiz-adv-x="666" d="M94 489Q100 509 105 531T117 592Q119 607 137 617T177 632T221 639T252 641Q286 641 317 637T383 633Q421 633 461 645T549 698Q552 701 555 701T561 702Q569 702 575 696T582 684Q582 628 568 572T532
463T481 363T423 276T368 207T322 160Q333 152 345 141T368 113T389 71T403 8Q470 56 523 108T618 218T695 344T760 489L799 479Q763 387 725 315T642 182T539 69T408 -37V-68Q408 -200 377 -298T302 -461T208 -558T121 -590Q61 -590 28 -549T-6 -440Q-6 -388 19
-336T89 -234T193 -137T324 -45Q324 -43 325 -43T328 -41Q328 9 317 52T279 123Q259 109 243 104T215 98Q190 98 179 110T168 137Q168 140 169 147T178 161T199 174T238 180Q246 180 254 179T272 176Q327 232 365 296T427 421T462 530T475 606Q467 601 455 599T429
595T403 593T383 592Q364 592 337 593T283 594Q256 594 237 590T204 578T184 564T172 553Q158 536 150 520T133 479L94 489ZM96 -535Q130 -535 167 -500T238 -405T295 -264T326 -92Q320 -95 317 -98Q254 -139 202 -181T113 -267T54 -353T33 -440Q33 -453 36 -469T46
-500T66 -525T96 -535Z" />
<glyph unicode="{" glyph-name="braceleft" horiz-adv-x="637" d="M532 1458Q514 1451 478 1432T404 1377T339 1287T311 1157Q311 1077 324 1017T353 909T382 820T395 739Q395 703 372 676T316 627T246 591T180 565Q202 551 237 529T304 477T359 409T383 324Q383
263 369 202T336 82T304 -27T289 -117Q289 -151 301 -176T331 -220T373 -251T417 -272T456 -284T483 -291L473 -328Q471 -328 449 -323T395 -308T326 -281T258 -242T205 -189T184 -121Q184 -81 199 -30T232 78T266 196T281 319Q281 364 270 398T241 457T204 500T167
529T137 546T123 553L125 590Q145 594 173 603T228 627T272 667T291 727Q291 763 278 803T250 892T222 1004T209 1147Q209 1204 231 1251T285 1336T357 1402T430 1449T488 1479T516 1493L532 1458Z" />
<glyph unicode="|" glyph-name="bar" horiz-adv-x="512" d="M283 1536V-102H227V1536H283Z" />
<glyph unicode="}" glyph-name="braceright" horiz-adv-x="637" d="M162 1493Q165 1490 189 1480T248 1450T321 1402T392 1337T447 1252T469 1147Q469 1066 456 1004T428 893T400 803T387 727Q387 692 405 668T450 628T504 603T553 590L555 553Q553 551 541 546T512
530T474 501T437 458T409 398T397 319Q397 258 412 197T445 78T479 -30T494 -121Q494 -159 473 -189T421 -242T353 -281T284 -307T229 -323T205 -328L195 -291Q203 -289 221 -285T260 -272T305 -252T346 -221T377 -177T389 -117Q389 -78 375 -27T342 82T310 201T295
324Q295 371 318 409T374 477T440 529T498 565Q469 576 432 591T362 627T306 675T283 739Q283 779 296 819T325 908T354 1017T367 1157Q367 1233 339 1287T274 1377T200 1432T145 1458L162 1493Z" />
<glyph unicode="~" glyph-name="asciitilde" horiz-adv-x="819" d="M715 588Q703 578 687 565T651 540T608 520T559 512Q517 512 479 523T406 549T338 574T270 586Q249 586 228 579T188 562T152 539T123 514V561Q135 571 150 584T184 609T228 629T285 637Q321
637 353 626T417 600T484 575T561 563Q587 563 610 570T652 587T687 610T715 635V588Z" />
<glyph unicode="&#xa0;" glyph-name="nbspace" horiz-adv-x="451" />
<glyph unicode="&#xa1;" glyph-name="exclamdown" horiz-adv-x="430" d="M31 -385Q76 -279 112 -127Q142 3 167 198T193 657L227 653Q230 549 229 448T225 251T215 68T201 -95Q184 -272 160 -428L31 -385ZM133 866Q133 897 154 918T207 940Q222 940 235 934T258
918T275 895T281 866Q281 837 259 816T207 795Q176 795 155 816T133 866Z" />
<glyph unicode="&#xa2;" glyph-name="cent" horiz-adv-x="682" d="M369 -61Q367 -41 362 24T352 193Q296 198 247 221T161 285T103 387T82 526Q82 604 107 671T174 791T265 878T365 924Q373 992 379 1047T391 1139H418Q415 1077 412 1027T406 930H408Q448 930
482 918T541 884T580 829T594 756Q594 715 582 684T551 630T506 597T453 586Q440 586 426 589T399 600V561V244H424Q483 244 528 272T612 350L641 326Q596 266 537 229T399 190Q399 118 399 54T401 -61H369ZM176 551Q176 486 189 436T225 348T279 288T348 254Q346
319 345 392T344 547Q344 630 348 717T360 883Q327 874 294 851T235 788T193 690T176 551ZM406 891Q402 832 401 775T399 649Q409 637 423 631T453 625Q484 625 503 639T534 673T549 716T553 756Q553 789 541 814T510 856T466 882T416 891H406Z" />
<glyph unicode="&#xa3;" glyph-name="sterling" horiz-adv-x="1149" d="M111 547H313Q299 604 288 658T276 764Q276 862 298 939T357 1075T442 1174T544 1241T650 1278T752 1290Q809 1290 855 1272T934 1223T983 1151T1001 1065Q1001 1027 992 994T972 934T951
892T940 874L907 895Q923 918 935 944Q946 967 954 996T963 1059Q963 1098 949 1133T907 1194T841 1235T754 1251Q666 1251 599 1218T485 1128T415 996T391 836Q391 760 403 690T426 547H719V508H430Q436 458 436 408Q436 330 424 258T383 125Q431 100 480 73T582
22T690 -17T809 -33Q857 -33 897 -24T967 5T1012 60T1028 145Q1028 167 1021 186T1001 229L1036 248Q1053 223 1060 199T1067 150Q1067 46 1006 -14T813 -74Q745 -74 684 -59T567 -19T461 33T362 88Q328 29 278 -5T160 -39Q81 -39 41 -8T0 70Q0 93 9 114T39 151T91
178T168 188Q211 188 253 176T338 145Q346 179 350 218T354 303Q354 353 344 404T322 508H111V547ZM164 0Q226 0 265 27T324 106Q283 125 245 137T168 150Q151 150 132 146T98 133T72 109T61 72Q61 54 70 41T95 18T128 5T164 0Z" />
<glyph unicode="&#xa4;" glyph-name="currency" horiz-adv-x="887" d="M115 305L242 430Q210 467 191 513T172 614Q172 668 191 717T244 803L119 930L145 958L270 829Q307 861 354 880T455 899Q509 899 557 880T643 827L770 954L797 926L670 801Q702 763 720 716T739
614Q739 560 721 514T670 430L795 303L766 276L641 401Q604 369 557 351T455 332Q401 332 353 350T268 401L143 279L115 305ZM211 614Q211 563 230 519T282 442T359 390T455 371Q506 371 551 390T629 442T681 519T700 614Q700 666 681 711T629 789T551 841T455
860Q404 860 360 841T282 789T230 711T211 614Z" />
<glyph unicode="&#xa5;" glyph-name="yen" horiz-adv-x="1141" d="M440 147H762Q768 223 772 302T782 463Q714 384 631 336T446 287Q387 287 333 306T236 367T169 473T143 627Q143 726 169 812T236 973T326 1107T423 1212T508 1286T565 1329L582 1307Q581 1306
557 1285T497 1224T418 1128T339 1003T278 853T254 682Q254 514 313 431T487 348Q530 348 571 362T649 401T722 460T788 537Q802 681 820 789T860 975T905 1104T951 1186T995 1229T1034 1241Q1038 1241 1045 1240T1060 1234T1073 1217T1079 1184Q1079 1149 1068
1089T1035 955T980 797T903 635Q901 592 900 536T894 417T884 285T866 147H1069V109H860Q854 77 848 46T831 -14H1069V-53H821Q801 -118 773 -173T707 -269T620 -333T510 -356Q445 -356 393 -339T307 -293L330 -260Q359 -286 403 -301T510 -317Q558 -317 594 -298T657
-244T702 -161T733 -53H440V-14H741Q748 15 751 46T758 109H440V147ZM1028 1202Q1013 1202 997 1173T964 1085T933 940T909 739Q940 804 964 870T1006 995T1031 1104T1040 1186Q1040 1192 1037 1197T1028 1202Z" />
<glyph unicode="&#xa6;" glyph-name="brokenbar" horiz-adv-x="512" d="M227 819V1536H283V819H227ZM283 567V-102H227V567H283Z" />
<glyph unicode="&#xa7;" glyph-name="section" horiz-adv-x="1047" d="M944 430Q944 395 936 362T915 298T886 241T852 193Q903 143 923 93T944 -4Q944 -99 908 -170T809 -289T664 -361T492 -385Q404 -385 332 -365T209 -309T130 -221T102 -109Q102 -56 119 -18T158
44T199 80T221 92L238 47Q233 44 219 34T190 5T164 -42T152 -109Q152 -173 184 -216T267 -287T378 -326T494 -338Q590 -338 659 -316T772 -257T837 -172T858 -70Q858 -16 840 24T786 96T697 158T573 221Q502 255 439 288T328 362T253 456T225 582Q225 651 246 711T305
819Q267 859 246 912T225 1040Q225 1118 254 1181T333 1287T445 1354T578 1378Q652 1378 708 1361T803 1312T861 1236T881 1139Q881 1095 871 1054T849 980T825 926T813 903L770 926Q773 938 782 959T802 1008T821 1069T829 1139Q829 1182 814 1216T768 1275T689
1313T575 1327Q510 1327 458 1305T368 1248T311 1167T291 1073Q291 1023 306 985T362 911T474 837T657 750Q735 715 790 677T879 597T928 514T944 430ZM573 655Q502 687 440 720T332 795Q309 766 300 728T291 623Q291 585 306 550T361 477T473 401T657 315Q708
294 748 271T819 223Q838 255 848 291T858 365Q858 419 840 458T786 530T697 592T573 655Z" />
<glyph unicode="&#xa8;" glyph-name="dieresis" horiz-adv-x="614" d="M162 913Q162 933 174 947T207 961Q227 961 240 947T254 913Q254 895 241 882T207 868Q187 868 175 881T162 913ZM360 913Q360 933 373 947T406 961Q426 961 439 947T453 913Q453 895 440
882T406 868Q387 868 374 881T360 913Z" />
<glyph unicode="&#xa9;" glyph-name="copyright" horiz-adv-x="1737" d="M123 676Q123 779 149 874T224 1052T341 1203T492 1319T670 1394T868 1421Q971 1421 1066 1395T1244 1320T1395 1203T1512 1052T1587 874T1614 676Q1614 573 1588 478T1513 300T1396 149T1245
32T1067 -43T868 -70Q765 -70 670 -44T492 31T341 148T225 299T150 477T123 676ZM184 676Q184 581 208 494T277 330T384 192T522 86T685 17T868 -8Q963 -8 1050 16T1214 85T1352 192T1458 330T1527 493T1552 676Q1552 771 1528 858T1459 1022T1352 1160T1214 1266T1051
1335T868 1360Q773 1360 686 1336T522 1267T384 1160T278 1022T209 859T184 676ZM1139 1143Q1097 1131 1059 1110Q1096 1082 1118 1040T1141 942Q1141 897 1129 859T1094 792T1041 749T973 733Q946 733 920 741T872 767T838 811T825 874Q825 912 838 946T875 1011T929
1067T995 1112Q978 1118 959 1122T920 1126Q861 1126 794 1097T671 1008T577 860T539 653Q539 573 562 503T631 380T746 297T907 266Q961 266 1011 280T1105 320T1186 382T1253 461L1280 442Q1248 389 1204 347T1107 276T993 231T868 215Q776 215 699 244T565 328T476
459T444 631Q444 716 464 788T520 920T602 1023T702 1098T811 1143T920 1159Q949 1159 977 1152T1032 1128Q1083 1153 1135 1159L1139 1143ZM1106 944Q1106 989 1086 1028T1028 1094Q969 1056 931 1000T893 862Q893 819 916 793T977 766Q1010 766 1034 783T1074
828T1098 886T1106 944Z" />
<glyph unicode="&#xaa;" glyph-name="ordfeminine" horiz-adv-x="614" d="M631 840Q606 805 582 790T528 774Q493 774 465 799T430 877Q405 821 367 787T266 752Q234 752 204 764T150 801T112 864T98 954Q98 1034 126 1098T197 1208T286 1278T373 1303Q433 1303
463 1272T494 1192Q494 1155 479 1129T444 1084T402 1055T369 1038L354 1073Q356 1073 372 1079T407 1099T441 1135T457 1192Q457 1230 435 1248T379 1266Q352 1266 318 1247T254 1189T203 1092T182 954Q182 871 209 833T287 795Q311 795 333 808T373 843T406 896T432
961Q437 988 442 1018T461 1085L510 1069Q506 1058 502 1041T494 1005T488 964T485 922Q485 860 497 837T541 813Q571 813 604 860L631 840ZM125 657Q185 660 250 661Q305 662 373 662T508 657V616Q455 614 393 613Q340 612 271 612T125 616V657Z" />
<glyph unicode="&#xab;" glyph-name="guillemotleft" horiz-adv-x="883" d="M164 489L520 784L555 739L252 489L555 240L520 195L164 489ZM451 489L807 784L842 739L539 489L842 240L807 195L451 489Z" />
<glyph unicode="&#xac;" glyph-name="logicalnot" horiz-adv-x="819" d="M694 684Q694 624 694 566T690 449H649Q647 500 645 552T643 662Q531 657 406 657T123 664V705Q199 706 271 707T413 709T553 709T694 705V684Z" />
<glyph unicode="&#xad;" glyph-name="uni00AD" horiz-adv-x="676" d="M633 422Q592 420 561 419T501 417T445 416T383 416T306 418T205 422V492Q256 493 294 494T363 495T423 496T482 497T549 495T633 492V422Z" />
<glyph unicode="&#xae;" glyph-name="registered" horiz-adv-x="1157" d="M102 829Q102 928 139 1015T241 1167T392 1269T578 1307Q676 1307 763 1270T915 1167T1017 1015T1055 829Q1055 731 1018 645T915 494T763 392T578 354Q479 354 393 391T242 493T140 644T102
829ZM164 829Q164 743 196 668T285 537T416 449T578 416Q664 416 739 448T871 537T960 668T993 829Q993 915 961 991T872 1123T740 1212T578 1245Q492 1245 417 1213T285 1124T197 991T164 829ZM807 952Q807 910 790 880T744 831T683 802T618 793Q631 773 643 740T670
676T708 621T766 598Q781 598 801 607T844 635L860 618Q832 594 805 576T743 557Q700 557 674 583T629 645T599 722T571 791Q553 791 530 792T485 799Q487 785 487 772T487 750Q487 674 461 629T381 584Q372 584 363 584T338 590L344 616Q356 611 364 610T381 608Q400
608 410 614T425 632T431 657T432 686Q432 702 431 718T428 754Q426 774 425 796T424 842Q424 884 435 922T460 990T486 1037T500 1055L514 1040Q512 1035 507 1021T496 985T486 935T481 874V870H489Q520 870 554 856T606 813Q635 816 660 825T704 851T734 893T745
954Q745 993 729 1019T688 1061T635 1083T584 1090Q520 1090 475 1076T400 1044Q366 1024 344 999L328 1016Q332 1020 348 1036T396 1069T473 1100T584 1114Q629 1114 669 1103T740 1072T789 1021T807 952ZM481 848Q481 845 481 841T483 831V823Q496 818 513 816T557
813Q543 829 527 838T492 848H481Z" />
<glyph unicode="&#xaf;" glyph-name="overscore" horiz-adv-x="614" d="M172 889V932H442V889H172Z" />
<glyph unicode="&#xb0;" glyph-name="degree" horiz-adv-x="295" d="M254 1145Q254 1123 246 1104T224 1070T190 1047T147 1038Q102 1038 72 1068T41 1145Q41 1190 71 1220T147 1251Q194 1251 224 1221T254 1145ZM215 1145Q215 1174 196 1193T147 1212Q118 1212
99 1193T80 1145Q80 1116 99 1097T147 1077Q176 1077 195 1097T215 1145Z" />
<glyph unicode="&#xb1;" glyph-name="plusminus" horiz-adv-x="819" d="M401 276Q395 402 395 547Q270 547 123 553V594Q192 596 259 597T395 598Q395 663 396 729T401 868H442Q444 799 445 733T446 598Q516 598 582 598T715 594V553Q592 547 446 547Q446 478
446 411T442 276H401ZM715 133Q591 128 445 127T123 133V174Q276 177 423 178T715 174V133Z" />
<glyph unicode="&#xb2;" glyph-name="twosuperior" horiz-adv-x="764" d="M211 477Q149 477 120 497T90 547Q90 578 123 598T209 618Q257 618 303 602T397 565Q452 599 497 651T575 765T625 895T643 1032Q643 1096 621 1141T564 1214T485 1255T399 1268Q344 1268
297 1250T216 1201T164 1132T147 1053Q149 1025 156 995T184 936Q179 933 169 928T149 918Q138 913 125 907Q109 933 101 964T92 1026Q92 1082 115 1132T179 1221T276 1281T399 1303Q454 1303 513 1290T620 1244T700 1157T731 1022Q731 957 708 889T646 759T552
642T436 549Q478 532 520 519T606 506Q636 506 668 512L676 479Q657 474 640 472T606 469Q552 469 501 487T399 526Q353 503 306 490T211 477ZM213 512Q251 512 287 520T358 545Q320 560 283 572T209 584Q183 584 164 574T145 545Q145 531 162 522T213 512Z" />
<glyph unicode="&#xb3;" glyph-name="threesuperior" horiz-adv-x="750" d="M70 674L106 676Q109 640 127 607T176 547T250 505T348 489Q388 489 434 499T520 534T586 602T612 711Q612 759 595 798T544 867T461 912T348 928Q328 928 306 926T260 920L250 961Q323
1014 394 1082T526 1249Q471 1235 384 1224T186 1212L174 1290Q175 1289 189 1288T228 1286T285 1283T356 1282Q418 1282 483 1286T602 1305L618 1288Q588 1237 546 1188T460 1096T374 1017T305 961Q322 967 345 970T395 973Q444 973 497 962T594 922T667 847T696
729Q696 665 672 614T603 526T499 471T369 451Q313 451 261 465T168 507T100 576T70 674Z" />
<glyph unicode="&#xb4;" glyph-name="acute" horiz-adv-x="614" d="M436 983L197 838L178 862L397 1042L436 983Z" />
<glyph unicode="&#xb5;" glyph-name="mu" horiz-adv-x="776" d="M780 172Q749 118 712 84T623 49Q587 49 560 63T515 101T487 158T477 231Q456 174 436 137T393 79T346 48T293 39Q276 39 259 45T225 62T195 91T172 133Q168 41 164 -40T155 -190T145 -310T133 -393L45
-418Q73 -285 85 -120T98 229Q98 310 101 383T109 513Q114 578 121 635H197Q196 634 194 602T189 518T184 405T182 281Q182 234 190 202T212 150T244 122T285 113Q328 113 360 135T415 197T453 287T480 397T498 518T512 639L582 631Q573 555 568 500T558 402T553
326T551 262Q551 232 556 202T573 147T601 108T641 92Q700 92 756 188L780 172Z" />
<glyph unicode="&#xb6;" glyph-name="paragraph" horiz-adv-x="752" d="M543 -31Q543 65 542 173T538 397T534 631T532 865T533 1089T541 1294Q522 1296 503 1296T463 1296Q458 1142 456 971T455 627T459 287T471 -29H420Q419 19 419 79T418 206T417 343T416 480T414
608T412 717H395Q352 717 301 731T206 779T132 873T102 1022Q102 1093 135 1152T223 1253T346 1319T485 1343Q566 1343 624 1324T733 1262L700 1231Q683 1245 670 1254T644 1269T618 1280T588 1288Q581 1194 577 1087T573 866T573 635T578 402T586 177T596 -31H543Z"
/>
<glyph unicode="&#xb7;" glyph-name="middot" horiz-adv-x="307" d="M231 596Q231 565 210 544T158 522Q129 522 108 543T86 596Q86 625 107 646T158 668Q189 668 210 647T231 596Z" />
<glyph unicode="&#xb8;" glyph-name="cedilla" horiz-adv-x="614" d="M305 -72Q327 -72 348 -77T386 -92T412 -118T422 -154Q422 -200 389 -221T305 -242Q268 -242 239 -232T186 -209L201 -176Q217 -187 246 -197T301 -207Q332 -207 351 -193T371 -154Q371 -138
363 -128T343 -111T318 -103T293 -100Q284 -100 276 -100T258 -104L299 18H334L305 -72Z" />
<glyph unicode="&#xb9;" glyph-name="onesuperior" horiz-adv-x="328" d="M205 498L109 502L240 1223Q220 1190 199 1161T160 1110T132 1075T119 1061L90 1085Q122 1117 151 1152Q176 1182 202 1221T248 1303L285 1296L205 498Z" />
<glyph unicode="&#xba;" glyph-name="ordmasculine" horiz-adv-x="614" d="M569 940Q554 932 539 928T508 920Q496 880 478 845T432 785T370 744T291 729Q254 729 218 744T152 789T104 867T86 979Q86 1021 96 1062T124 1139T167 1207T221 1262L240 1237Q221 1220
204 1196T172 1143T150 1082T141 1016Q141 951 156 908T197 838T253 802T315 791Q360 791 402 822T469 915H461Q412 915 369 932T293 979T242 1052T223 1145Q223 1173 231 1201T257 1252T302 1289T365 1303Q392 1303 421 1292T474 1252T513 1176T528 1055Q528 1029
526 1004T518 954Q527 957 536 960T555 969L569 940ZM481 950Q487 973 490 999T494 1057Q492 1114 482 1154T454 1219T413 1256T362 1268Q319 1268 290 1236T260 1149Q260 1102 277 1065T323 1003T388 964T463 950H481ZM113 657Q173 660 237 661Q292 662 360 662T496
657V616Q443 614 381 613Q328 612 259 612T113 616V657Z" />
<glyph unicode="&#xbb;" glyph-name="guillemotright" horiz-adv-x="883" d="M178 195L143 240L446 489L143 739L178 784L535 489L178 195ZM465 195L430 240L733 489L430 739L465 784L821 489L465 195Z" />
<glyph unicode="&#xbc;" glyph-name="onequarter" horiz-adv-x="1223" d="M1034 6L924 8Q941 73 954 137T979 268Q947 269 919 272T863 280T810 287T758 291Q714 291 675 284T598 258Q591 264 582 273T565 292T550 309T543 317Q565 343 587 377T629 449T667 528T701
607Q737 697 768 793L805 791Q804 786 794 742T764 633T718 492T655 348Q665 350 686 351T721 352Q761 352 794 348T859 336T920 322T985 309Q1005 425 1016 536T1032 766H1069L1047 305Q1074 307 1101 310T1155 322L1161 287Q1132 279 1103 276T1044 270L1034
6ZM227 498L131 502L262 1223Q242 1190 221 1161T183 1110T154 1075T141 1061L113 1085Q144 1117 173 1152Q198 1182 224 1221T270 1303L307 1296L227 498ZM61 12Q163 172 265 330T473 647T689 970T918 1307L950 1282Q827 1104 715 936T499 608T295 295T100 -8L61
12Z" />
<glyph unicode="&#xbd;" glyph-name="onehalf" horiz-adv-x="1360" d="M778 6Q716 6 687 26T657 76Q657 107 690 127T776 147Q824 147 870 131T965 94Q1020 128 1065 180T1142 294T1192 424T1210 561Q1210 625 1188 670T1131 743T1052 784T967 797Q911 797 864
779T783 730T731 661T715 582Q717 554 724 524T752 465Q746 462 736 457T716 447Q705 442 692 436Q677 462 668 493T659 555Q659 611 682 661T746 749T843 809T967 831Q1022 831 1080 818T1187 772T1267 686T1298 551Q1298 486 1276 418T1213 288T1120 171T1004
78Q1046 61 1088 48T1174 35Q1203 35 1235 41L1243 8Q1225 3 1208 1T1174 -2Q1120 -2 1069 16T967 55Q920 32 873 19T778 6ZM61 12Q163 172 265 330T473 647T689 970T918 1307L950 1282Q827 1104 715 936T499 608T295 295T100 -8L61 12ZM227 498L131 502L262 1223Q242
1190 221 1161T183 1110T154 1075T141 1061L113 1085Q144 1117 173 1152Q198 1182 224 1221T270 1303L307 1296L227 498ZM780 41Q818 41 855 49T926 74Q887 89 850 101T776 113Q750 113 732 103T713 74Q713 60 729 51T780 41Z" />
<glyph unicode="&#xbe;" glyph-name="threequarters" horiz-adv-x="1591" d="M1403 6L1292 8Q1309 73 1322 137T1348 268Q1316 269 1288 272T1232 280T1179 287T1126 291Q1083 291 1044 284T967 258Q960 264 951 273T933 292T918 309T911 317Q933 343 955 377T997
449T1035 528T1069 607Q1105 697 1137 793L1174 791Q1173 788 1168 767T1154 711T1133 633T1104 541T1067 443T1024 348Q1033 349 1054 350T1090 352Q1130 352 1163 348T1228 336T1289 322T1354 309Q1374 425 1385 536T1401 766H1438L1415 305Q1443 307 1470 310T1524
322L1530 287Q1501 279 1472 276T1413 270L1403 6ZM430 12Q532 172 634 330T841 647T1057 970T1286 1307L1319 1282Q1196 1104 1084 936T867 608T664 295T469 -8L430 12ZM70 674L106 676Q109 640 127 607T176 547T250 505T348 489Q388 489 434 499T520 534T586
602T612 711Q612 759 595 798T544 867T461 912T348 928Q328 928 306 926T260 920L250 961Q323 1014 394 1082T526 1249Q471 1235 384 1224T186 1212L174 1290Q175 1289 189 1288T228 1286T285 1283T356 1282Q418 1282 483 1286T602 1305L618 1288Q588 1237 546
1188T460 1096T374 1017T305 961Q322 967 345 970T395 973Q444 973 497 962T594 922T667 847T696 729Q696 665 672 614T603 526T499 471T369 451Q313 451 261 465T168 507T100 576T70 674Z" />
<glyph unicode="&#xbf;" glyph-name="questiondown" horiz-adv-x="961" d="M608 676Q637 632 649 596T662 528Q662 471 641 426T584 344T504 274T412 209T320 142T240 67T184 -24T162 -137Q162 -212 191 -262T265 -344T360 -389T455 -403Q541 -403 611 -380T731
-315T808 -219T836 -102Q836 -16 780 29T621 74Q574 74 537 62T475 39L459 74Q490 88 535 100T637 113Q683 113 726 100T803 59T857 -9T877 -106Q877 -177 845 -238T756 -345T622 -416T455 -442Q381 -442 310 -423T183 -364T93 -266T59 -127Q59 -59 83 -4T146 98T236
184T340 258T443 325T533 391T597 461T621 541Q621 575 607 601T575 655L608 676ZM524 866Q524 897 545 918T598 940Q613 940 626 934T649 918T666 895T672 866Q672 837 650 816T598 795Q567 795 546 816T524 866Z" />
<glyph unicode="&#xc0;" glyph-name="Agrave" horiz-adv-x="1167" d="M96 414H340Q393 522 445 628T545 831T637 1013T713 1164T770 1274T803 1333Q815 1355 828 1363T862 1372Q885 1372 899 1358T913 1315Q913 1304 911 1262T906 1157T899 1016T892 856T887 692T885
541Q885 509 885 477T887 416Q950 416 1005 416T1096 418V379Q1042 377 991 377T889 377Q896 247 918 141T987 -40T1108 -157T1292 -199Q1336 -199 1386 -188L1393 -229Q1342 -245 1301 -252T1221 -260Q1129 -260 1062 -237T947 -172T869 -72T822 57T798 208T791
375H383Q377 361 371 349T358 322Q308 212 262 132T174 -6T93 -100T20 -160T-46 -197T-106 -221L-123 -186Q-123 -186 -104 -174T-53 -134T22 -63T114 43T216 187T322 375H96V414ZM856 1329Q845 1329 807 1262T710 1073T571 784T399 414H791Q791 505 797 597T811
778T829 948T847 1098T860 1220T866 1305Q866 1320 864 1324T856 1329ZM780 1663L999 1483L981 1459L741 1604L780 1663Z" />
<glyph unicode="&#xc1;" glyph-name="Aacute" horiz-adv-x="1167" d="M96 414H340Q393 522 445 628T545 831T637 1013T713 1164T770 1274T803 1333Q815 1355 828 1363T862 1372Q885 1372 899 1358T913 1315Q913 1304 911 1262T906 1157T899 1016T892 856T887 692T885
541Q885 509 885 477T887 416Q950 416 1005 416T1096 418V379Q1042 377 991 377T889 377Q896 247 918 141T987 -40T1108 -157T1292 -199Q1336 -199 1386 -188L1393 -229Q1342 -245 1301 -252T1221 -260Q1129 -260 1062 -237T947 -172T869 -72T822 57T798 208T791
375H383Q377 361 371 349T358 322Q308 212 262 132T174 -6T93 -100T20 -160T-46 -197T-106 -221L-123 -186Q-123 -186 -104 -174T-53 -134T22 -63T114 43T216 187T322 375H96V414ZM856 1329Q845 1329 807 1262T710 1073T571 784T399 414H791Q791 505 797 597T811
778T829 948T847 1098T860 1220T866 1305Q866 1320 864 1324T856 1329ZM999 1604L760 1459L741 1483L960 1663L999 1604Z" />
<glyph unicode="&#xc2;" glyph-name="Acircumflex" horiz-adv-x="1167" d="M96 414H340Q393 522 445 628T545 831T637 1013T713 1164T770 1274T803 1333Q815 1355 828 1363T862 1372Q885 1372 899 1358T913 1315Q913 1304 911 1262T906 1157T899 1016T892 856T887
692T885 541Q885 509 885 477T887 416Q950 416 1005 416T1096 418V379Q1042 377 991 377T889 377Q896 247 918 141T987 -40T1108 -157T1292 -199Q1336 -199 1386 -188L1393 -229Q1342 -245 1301 -252T1221 -260Q1129 -260 1062 -237T947 -172T869 -72T822 57T798
208T791 375H383Q377 361 371 349T358 322Q308 212 262 132T174 -6T93 -100T20 -160T-46 -197T-106 -221L-123 -186Q-123 -186 -104 -174T-53 -134T22 -63T114 43T216 187T322 375H96V414ZM856 1329Q845 1329 807 1262T710 1073T571 784T399 414H791Q791 505 797
597T811 778T829 948T847 1098T860 1220T866 1305Q866 1320 864 1324T856 1329ZM1032 1459L868 1586L710 1459L690 1479L868 1659L1052 1479L1032 1459Z" />
<glyph unicode="&#xc3;" glyph-name="Atilde" horiz-adv-x="1167" d="M96 414H340Q393 522 445 628T545 831T637 1013T713 1164T770 1274T803 1333Q815 1355 828 1363T862 1372Q885 1372 899 1358T913 1315Q913 1304 911 1262T906 1157T899 1016T892 856T887 692T885
541Q885 509 885 477T887 416Q950 416 1005 416T1096 418V379Q1042 377 991 377T889 377Q896 247 918 141T987 -40T1108 -157T1292 -199Q1336 -199 1386 -188L1393 -229Q1342 -245 1301 -252T1221 -260Q1129 -260 1062 -237T947 -172T869 -72T822 57T798 208T791
375H383Q377 361 371 349T358 322Q308 212 262 132T174 -6T93 -100T20 -160T-46 -197T-106 -221L-123 -186Q-123 -186 -104 -174T-53 -134T22 -63T114 43T216 187T322 375H96V414ZM856 1329Q845 1329 807 1262T710 1073T571 784T399 414H791Q791 505 797 597T811
778T829 948T847 1098T860 1220T866 1305Q866 1320 864 1324T856 1329ZM938 1534Q956 1534 967 1543T986 1566T995 1591T999 1610H1030Q1030 1595 1026 1574T1010 1534T981 1502T936 1489Q915 1489 897 1501T862 1527T830 1553T801 1565Q784 1565 773 1555T755
1533T745 1508T741 1489H710Q710 1504 714 1524T730 1564T759 1596T805 1610Q826 1610 843 1598T877 1572T908 1546T938 1534Z" />
<glyph unicode="&#xc4;" glyph-name="Adieresis" horiz-adv-x="1167" d="M96 414H340Q393 522 445 628T545 831T637 1013T713 1164T770 1274T803 1333Q815 1355 828 1363T862 1372Q885 1372 899 1358T913 1315Q913 1304 911 1262T906 1157T899 1016T892 856T887
692T885 541Q885 509 885 477T887 416Q950 416 1005 416T1096 418V379Q1042 377 991 377T889 377Q896 247 918 141T987 -40T1108 -157T1292 -199Q1336 -199 1386 -188L1393 -229Q1342 -245 1301 -252T1221 -260Q1129 -260 1062 -237T947 -172T869 -72T822 57T798
208T791 375H383Q377 361 371 349T358 322Q308 212 262 132T174 -6T93 -100T20 -160T-46 -197T-106 -221L-123 -186Q-123 -186 -104 -174T-53 -134T22 -63T114 43T216 187T322 375H96V414ZM856 1329Q845 1329 807 1262T710 1073T571 784T399 414H791Q791 505 797
597T811 778T829 948T847 1098T860 1220T866 1305Q866 1320 864 1324T856 1329ZM725 1534Q725 1554 737 1568T770 1582Q790 1582 803 1568T817 1534Q817 1516 804 1503T770 1489Q750 1489 738 1502T725 1534ZM923 1534Q923 1554 936 1568T969 1582Q989 1582 1002
1568T1016 1534Q1016 1516 1003 1503T969 1489Q950 1489 937 1502T923 1534Z" />
<glyph unicode="&#xc5;" glyph-name="Aring" horiz-adv-x="1167" d="M96 414H340Q393 522 445 628T545 831T637 1013T713 1164T770 1274T803 1333Q815 1355 828 1363T862 1372Q885 1372 899 1358T913 1315Q913 1304 911 1262T906 1157T899 1016T892 856T887 692T885
541Q885 509 885 477T887 416Q950 416 1005 416T1096 418V379Q1042 377 991 377T889 377Q896 247 918 141T987 -40T1108 -157T1292 -199Q1336 -199 1386 -188L1393 -229Q1342 -245 1301 -252T1221 -260Q1129 -260 1062 -237T947 -172T869 -72T822 57T798 208T791
375H383Q377 361 371 349T358 322Q308 212 262 132T174 -6T93 -100T20 -160T-46 -197T-106 -221L-123 -186Q-123 -186 -104 -174T-53 -134T22 -63T114 43T216 187T322 375H96V414ZM856 1329Q845 1329 807 1262T710 1073T571 784T399 414H791Q791 505 797 597T811
778T829 948T847 1098T860 1220T866 1305Q866 1320 864 1324T856 1329ZM797 1532Q797 1573 824 1599T891 1625Q931 1625 957 1599T983 1532Q983 1492 957 1465T891 1438Q851 1438 824 1465T797 1532ZM834 1532Q834 1508 850 1492T891 1475Q916 1475 932 1491T949
1532Q949 1557 933 1573T891 1590Q866 1590 850 1574T834 1532Z" />
<glyph unicode="&#xc6;" glyph-name="AE" horiz-adv-x="2015" d="M96 463H340Q393 571 445 677T545 880T637 1062T713 1213T770 1323T803 1382Q815 1404 828 1412T862 1421Q885 1421 899 1407T913 1364Q913 1353 911 1311T906 1206T899 1062T892 897T887 727T885
565Q936 647 1008 711T1163 817Q1115 860 1088 918T1061 1049Q1061 1148 1099 1222T1199 1346T1341 1421T1507 1446Q1601 1446 1665 1417T1768 1342T1824 1241T1841 1135Q1841 1107 1838 1090T1835 1071L1796 1075Q1797 1083 1798 1093Q1799 1101 1799 1112T1800
1137Q1800 1182 1787 1230T1740 1317T1650 1381T1507 1407Q1432 1407 1369 1382T1259 1312T1187 1208T1161 1079Q1161 1010 1184 953T1249 852Q1294 867 1339 876T1432 885Q1466 885 1494 880T1544 863T1577 837T1589 801Q1589 773 1571 757T1527 733T1474 723T1427
721Q1362 721 1304 738T1198 788Q1139 759 1088 715T998 613T938 482T915 326Q915 244 937 182T996 76T1080 1T1178 -46T1277 -71T1366 -78Q1496 -78 1599 -37T1775 75T1888 240T1935 438L1974 436Q1971 349 1943 272T1867 128T1755 10T1616 -80T1458 -136T1290
-156Q1160 -156 1066 -119T912 -22T822 115T793 270Q793 330 799 426Q726 425 668 425T560 424T468 424T383 424Q371 397 358 371Q308 261 262 181T174 43T93 -51T20 -111T-46 -148T-106 -172L-123 -137Q-123 -137 -104 -125T-53 -86T22 -15T114 91T216 236T322
424H96V463ZM856 1378Q845 1378 807 1311T710 1122T571 833T399 463Q451 463 505 463T612 463T712 463T801 465Q805 539 812 624T826 797T840 970T853 1129T862 1262T866 1354Q866 1369 864 1373T856 1378ZM1432 846Q1359 846 1284 823Q1321 795 1369 781T1473
766Q1510 766 1530 776T1550 801Q1550 816 1519 831T1432 846Z" />
<glyph unicode="&#xc7;" glyph-name="Ccedilla" horiz-adv-x="1384" d="M1147 1409Q1116 1398 1086 1385T1028 1356Q1084 1308 1118 1237T1153 1073Q1153 997 1134 933T1079 823T997 751T893 725Q852 725 812 739T741 782T690 854T670 958Q670 1025 692 1085T751
1197T839 1291T944 1366Q915 1380 882 1388T813 1397Q752 1397 683 1374T547 1305T418 1192T309 1034T233 833T205 590Q205 456 244 336T358 125T542 -19T793 -72Q875 -72 953 -48T1102 20T1231 124T1333 256L1364 238Q1318 152 1253 84T1110 -33T943 -109T760
-141L733 -225Q755 -225 776 -230T814 -246T840 -272T850 -307Q850 -354 817 -374T733 -395Q696 -395 667 -385T614 -362L629 -330Q646 -341 674 -350T729 -360Q760 -360 779 -346T799 -307Q799 -291 791 -281T771 -264T746 -256T721 -254Q712 -254 704 -254T686
-258L725 -141Q586 -140 469 -90T266 51T132 269T84 555Q84 698 115 818T200 1037T325 1209T478 1334T645 1410T813 1436Q858 1436 901 1423T983 1386Q1023 1405 1063 1417T1141 1436L1147 1409ZM1114 1075Q1114 1157 1082 1223T993 1333Q944 1301 902 1260T828
1168T780 1058T762 930Q762 894 771 864T799 811T843 777T901 764Q955 764 995 795T1061 872T1101 973T1114 1075Z" />
<glyph unicode="&#xc8;" glyph-name="Egrave" horiz-adv-x="1300" d="M346 1049Q346 1148 384 1222T484 1346T626 1421T793 1446Q887 1446 951 1417T1054 1342T1109 1241T1126 1135Q1126 1107 1123 1090T1120 1071L1081 1075Q1082 1083 1083 1093Q1084 1101 1084
1112T1085 1137Q1085 1182 1072 1230T1025 1317T936 1381T793 1407Q718 1407 654 1382T544 1312T472 1208T446 1079Q446 1010 469 953T535 852Q580 867 625 876T717 885Q751 885 779 880T829 863T862 837T874 801Q874 773 856 757T812 733T759 723T713 721Q648
721 590 738T483 788Q425 759 374 715T284 613T224 482T201 326Q201 244 223 182T282 76T366 1T464 -46T562 -71T651 -78Q781 -78 884 -37T1060 75T1174 240T1221 438L1260 436Q1257 349 1229 272T1152 128T1040 10T901 -80T743 -136T575 -156Q477 -156 388 -129T230
-47T122 86T82 270Q82 359 111 441T189 595T306 722T449 817Q401 860 374 918T346 1049ZM717 846Q644 846 569 823Q606 795 654 781T758 766Q795 766 815 776T836 801Q836 816 805 831T717 846ZM674 1732L893 1552L875 1528L635 1673L674 1732Z" />
<glyph unicode="&#xc9;" glyph-name="Eacute" horiz-adv-x="1300" d="M346 1049Q346 1148 384 1222T484 1346T626 1421T793 1446Q887 1446 951 1417T1054 1342T1109 1241T1126 1135Q1126 1107 1123 1090T1120 1071L1081 1075Q1082 1083 1083 1093Q1084 1101 1084
1112T1085 1137Q1085 1182 1072 1230T1025 1317T936 1381T793 1407Q718 1407 654 1382T544 1312T472 1208T446 1079Q446 1010 469 953T535 852Q580 867 625 876T717 885Q751 885 779 880T829 863T862 837T874 801Q874 773 856 757T812 733T759 723T713 721Q648
721 590 738T483 788Q425 759 374 715T284 613T224 482T201 326Q201 244 223 182T282 76T366 1T464 -46T562 -71T651 -78Q781 -78 884 -37T1060 75T1174 240T1221 438L1260 436Q1257 349 1229 272T1152 128T1040 10T901 -80T743 -136T575 -156Q477 -156 388 -129T230
-47T122 86T82 270Q82 359 111 441T189 595T306 722T449 817Q401 860 374 918T346 1049ZM717 846Q644 846 569 823Q606 795 654 781T758 766Q795 766 815 776T836 801Q836 816 805 831T717 846ZM893 1673L654 1528L635 1552L854 1732L893 1673Z" />
<glyph unicode="&#xca;" glyph-name="Ecircumflex" horiz-adv-x="1300" d="M346 1049Q346 1148 384 1222T484 1346T626 1421T793 1446Q887 1446 951 1417T1054 1342T1109 1241T1126 1135Q1126 1107 1123 1090T1120 1071L1081 1075Q1082 1083 1083 1093Q1084 1101
1084 1112T1085 1137Q1085 1182 1072 1230T1025 1317T936 1381T793 1407Q718 1407 654 1382T544 1312T472 1208T446 1079Q446 1010 469 953T535 852Q580 867 625 876T717 885Q751 885 779 880T829 863T862 837T874 801Q874 773 856 757T812 733T759 723T713 721Q648
721 590 738T483 788Q425 759 374 715T284 613T224 482T201 326Q201 244 223 182T282 76T366 1T464 -46T562 -71T651 -78Q781 -78 884 -37T1060 75T1174 240T1221 438L1260 436Q1257 349 1229 272T1152 128T1040 10T901 -80T743 -136T575 -156Q477 -156 388 -129T230
-47T122 86T82 270Q82 359 111 441T189 595T306 722T449 817Q401 860 374 918T346 1049ZM717 846Q644 846 569 823Q606 795 654 781T758 766Q795 766 815 776T836 801Q836 816 805 831T717 846ZM926 1528L762 1655L604 1528L584 1548L762 1728L946 1548L926 1528Z"
/>
<glyph unicode="&#xcb;" glyph-name="Edieresis" horiz-adv-x="1300" d="M346 1049Q346 1148 384 1222T484 1346T626 1421T793 1446Q887 1446 951 1417T1054 1342T1109 1241T1126 1135Q1126 1107 1123 1090T1120 1071L1081 1075Q1082 1083 1083 1093Q1084 1101
1084 1112T1085 1137Q1085 1182 1072 1230T1025 1317T936 1381T793 1407Q718 1407 654 1382T544 1312T472 1208T446 1079Q446 1010 469 953T535 852Q580 867 625 876T717 885Q751 885 779 880T829 863T862 837T874 801Q874 773 856 757T812 733T759 723T713 721Q648
721 590 738T483 788Q425 759 374 715T284 613T224 482T201 326Q201 244 223 182T282 76T366 1T464 -46T562 -71T651 -78Q781 -78 884 -37T1060 75T1174 240T1221 438L1260 436Q1257 349 1229 272T1152 128T1040 10T901 -80T743 -136T575 -156Q477 -156 388 -129T230
-47T122 86T82 270Q82 359 111 441T189 595T306 722T449 817Q401 860 374 918T346 1049ZM717 846Q644 846 569 823Q606 795 654 781T758 766Q795 766 815 776T836 801Q836 816 805 831T717 846ZM619 1603Q619 1623 631 1637T664 1651Q684 1651 697 1637T711 1603Q711
1585 698 1572T664 1558Q644 1558 632 1571T619 1603ZM817 1603Q817 1623 830 1637T863 1651Q883 1651 896 1637T910 1603Q910 1585 897 1572T863 1558Q844 1558 831 1571T817 1603Z" />
<glyph unicode="&#xcc;" glyph-name="Igrave" horiz-adv-x="1294" d="M303 59L338 78Q342 69 355 46T397 -1T471 -43T588 -61Q677 -61 767 -13T930 137T1048 392T1094 760Q1094 835 1081 909T1040 1052T972 1178T879 1280T761 1347T618 1372Q550 1372 474 1346T335
1264T230 1122T188 915Q188 820 206 750T255 630T326 547T411 495T500 469T584 461Q639 461 686 477T770 513T831 553T864 580L891 551Q809 483 724 450T537 416Q450 416 368 442T223 526T121 674T82 891Q82 967 103 1035T162 1162T251 1267T361 1347T484 1397T612
1415Q665 1415 730 1405T862 1366T992 1287T1104 1158T1182 968T1212 705Q1212 581 1187 473T1118 275T1015 115T887 -4T746 -78T600 -104Q561 -104 518 -97T435 -72T360 -23T303 59ZM524 1704L743 1524L725 1500L485 1645L524 1704Z" />
<glyph unicode="&#xcd;" glyph-name="Iacute" horiz-adv-x="1294" d="M303 59L338 78Q342 69 355 46T397 -1T471 -43T588 -61Q677 -61 767 -13T930 137T1048 392T1094 760Q1094 835 1081 909T1040 1052T972 1178T879 1280T761 1347T618 1372Q550 1372 474 1346T335
1264T230 1122T188 915Q188 820 206 750T255 630T326 547T411 495T500 469T584 461Q639 461 686 477T770 513T831 553T864 580L891 551Q809 483 724 450T537 416Q450 416 368 442T223 526T121 674T82 891Q82 967 103 1035T162 1162T251 1267T361 1347T484 1397T612
1415Q665 1415 730 1405T862 1366T992 1287T1104 1158T1182 968T1212 705Q1212 581 1187 473T1118 275T1015 115T887 -4T746 -78T600 -104Q561 -104 518 -97T435 -72T360 -23T303 59ZM743 1645L504 1500L485 1524L704 1704L743 1645Z" />
<glyph unicode="&#xce;" glyph-name="Icircumflex" horiz-adv-x="1294" d="M303 59L338 78Q342 69 355 46T397 -1T471 -43T588 -61Q677 -61 767 -13T930 137T1048 392T1094 760Q1094 835 1081 909T1040 1052T972 1178T879 1280T761 1347T618 1372Q550 1372 474
1346T335 1264T230 1122T188 915Q188 820 206 750T255 630T326 547T411 495T500 469T584 461Q639 461 686 477T770 513T831 553T864 580L891 551Q809 483 724 450T537 416Q450 416 368 442T223 526T121 674T82 891Q82 967 103 1035T162 1162T251 1267T361 1347T484
1397T612 1415Q665 1415 730 1405T862 1366T992 1287T1104 1158T1182 968T1212 705Q1212 581 1187 473T1118 275T1015 115T887 -4T746 -78T600 -104Q561 -104 518 -97T435 -72T360 -23T303 59ZM776 1500L612 1627L454 1500L434 1520L612 1700L796 1520L776 1500Z"
/>
<glyph unicode="&#xcf;" glyph-name="Idieresis" horiz-adv-x="1294" d="M303 59L338 78Q342 69 355 46T397 -1T471 -43T588 -61Q677 -61 767 -13T930 137T1048 392T1094 760Q1094 835 1081 909T1040 1052T972 1178T879 1280T761 1347T618 1372Q550 1372 474 1346T335
1264T230 1122T188 915Q188 820 206 750T255 630T326 547T411 495T500 469T584 461Q639 461 686 477T770 513T831 553T864 580L891 551Q809 483 724 450T537 416Q450 416 368 442T223 526T121 674T82 891Q82 967 103 1035T162 1162T251 1267T361 1347T484 1397T612
1415Q665 1415 730 1405T862 1366T992 1287T1104 1158T1182 968T1212 705Q1212 581 1187 473T1118 275T1015 115T887 -4T746 -78T600 -104Q561 -104 518 -97T435 -72T360 -23T303 59ZM469 1575Q469 1595 481 1609T514 1623Q534 1623 547 1609T561 1575Q561 1557
548 1544T514 1530Q494 1530 482 1543T469 1575ZM667 1575Q667 1595 680 1609T713 1623Q733 1623 746 1609T760 1575Q760 1557 747 1544T713 1530Q694 1530 681 1543T667 1575Z" />
<glyph unicode="&#xd0;" glyph-name="Eth" horiz-adv-x="1446" d="M152 690H360Q371 808 392 901T436 1063T482 1179T520 1253L549 1247Q542 1215 532 1165T512 1045T492 888T475 690H780V651H471Q465 522 465 365Q465 262 471 158T489 -53Q610 -40 715 8T906
129T1060 295T1173 491T1244 702T1268 913Q1268 1049 1226 1146T1117 1304T966 1394T797 1423Q714 1423 643 1412T513 1383T405 1343T318 1296Q228 1240 170 1169L137 1192Q138 1194 155 1215T208 1266T296 1330T422 1393T588 1442T797 1462Q935 1462 1044 1426T1228
1320T1344 1146T1384 907Q1384 749 1343 617T1233 377T1074 187T885 47T685 -46T494 -92Q497 -111 500 -128T506 -164L473 -168Q467 -152 460 -134T444 -96Q435 -98 426 -98T408 -98Q331 -98 267 -79T158 -24T87 64T61 182Q61 250 92 320T184 451L203 432Q172 392
152 336T131 217Q131 166 146 117T195 28T280 -35T408 -59Q414 -59 420 -58T432 -57Q401 37 377 173T352 489Q352 533 352 573T356 651H152V690Z" />
<glyph unicode="&#xd1;" glyph-name="Ntilde" horiz-adv-x="1380" d="M-20 -219Q-13 -210 10 -179T65 -96T133 28T201 193T257 396T291 635Q305 823 313 977T326 1241T332 1411T334 1473L373 1477Q399 1349 424 1214T475 945T530 683T591 440T662 229T745 62T845
-47T965 -86Q1007 -86 1052 -57T1134 37T1195 206T1219 459Q1219 548 1210 652T1180 866T1131 1088T1061 1301T969 1494T856 1651L883 1679Q949 1608 1002 1517T1097 1322T1169 1106T1218 882T1247 662T1257 459Q1257 334 1236 219T1172 16T1062 -124T905 -176Q833
-176 774 -141T665 -42T578 107T509 295T456 509T416 738T387 969T365 1190Q360 1082 350 942T330 633Q320 461 295 324T228 80T130 -107T2 -246L-20 -219ZM611 1730Q629 1730 640 1739T659 1762T668 1787T672 1806H703Q703 1791 699 1770T683 1730T654 1698T609
1685Q588 1685 570 1697T535 1723T503 1749T474 1761Q457 1761 446 1751T428 1729T418 1704T414 1685H383Q383 1700 387 1720T403 1760T432 1792T478 1806Q499 1806 516 1794T550 1768T581 1742T611 1730Z" />
<glyph unicode="&#xd2;" glyph-name="Ograve" horiz-adv-x="1485" d="M1395 639Q1394 451 1346 304T1211 53T1000 -104T725 -158Q583 -158 465 -103T263 48T131 275T84 559Q84 689 110 798T178 997T277 1159T392 1286T512 1383T622 1452T710 1496T764 1518L776
1485Q745 1472 691 1443T574 1367T446 1251T329 1092T243 886T209 629Q209 480 244 346T351 111T528 -49T778 -109Q819 -109 877 -97T1000 -52T1127 34T1241 171T1322 369T1354 639Q1354 682 1351 728T1339 821Q1250 746 1146 702T924 657Q847 657 780 678T664
739T586 833T557 954Q557 1038 589 1103T675 1213T795 1281T934 1305Q1031 1305 1104 1272T1229 1182T1314 1053T1366 901Q1414 948 1455 1006T1530 1139L1567 1124Q1493 970 1374 854Q1385 798 1390 744T1395 639ZM954 733Q1053 733 1149 765T1331 868Q1314 946
1284 1017T1206 1144T1092 1233T936 1266Q864 1266 811 1244T721 1185T667 1100T649 999Q649 955 664 908T716 822T810 758T954 733ZM760 1777L979 1597L961 1573L721 1718L760 1777Z" />
<glyph unicode="&#xd3;" glyph-name="Oacute" horiz-adv-x="1485" d="M1395 639Q1394 451 1346 304T1211 53T1000 -104T725 -158Q583 -158 465 -103T263 48T131 275T84 559Q84 689 110 798T178 997T277 1159T392 1286T512 1383T622 1452T710 1496T764 1518L776
1485Q745 1472 691 1443T574 1367T446 1251T329 1092T243 886T209 629Q209 480 244 346T351 111T528 -49T778 -109Q819 -109 877 -97T1000 -52T1127 34T1241 171T1322 369T1354 639Q1354 682 1351 728T1339 821Q1250 746 1146 702T924 657Q847 657 780 678T664
739T586 833T557 954Q557 1038 589 1103T675 1213T795 1281T934 1305Q1031 1305 1104 1272T1229 1182T1314 1053T1366 901Q1414 948 1455 1006T1530 1139L1567 1124Q1493 970 1374 854Q1385 798 1390 744T1395 639ZM954 733Q1053 733 1149 765T1331 868Q1314 946
1284 1017T1206 1144T1092 1233T936 1266Q864 1266 811 1244T721 1185T667 1100T649 999Q649 955 664 908T716 822T810 758T954 733ZM1128 1718L889 1573L870 1597L1089 1777L1128 1718Z" />
<glyph unicode="&#xd4;" glyph-name="Ocircumflex" horiz-adv-x="1485" d="M1395 639Q1394 451 1346 304T1211 53T1000 -104T725 -158Q583 -158 465 -103T263 48T131 275T84 559Q84 689 110 798T178 997T277 1159T392 1286T512 1383T622 1452T710 1496T764 1518L776
1485Q745 1472 691 1443T574 1367T446 1251T329 1092T243 886T209 629Q209 480 244 346T351 111T528 -49T778 -109Q819 -109 877 -97T1000 -52T1127 34T1241 171T1322 369T1354 639Q1354 682 1351 728T1339 821Q1250 746 1146 702T924 657Q847 657 780 678T664
739T586 833T557 954Q557 1038 589 1103T675 1213T795 1281T934 1305Q1031 1305 1104 1272T1229 1182T1314 1053T1366 901Q1414 948 1455 1006T1530 1139L1567 1124Q1493 970 1374 854Q1385 798 1390 744T1395 639ZM954 733Q1053 733 1149 765T1331 868Q1314 946
1284 1017T1206 1144T1092 1233T936 1266Q864 1266 811 1244T721 1185T667 1100T649 999Q649 955 664 908T716 822T810 758T954 733ZM1012 1573L848 1700L690 1573L670 1593L848 1773L1032 1593L1012 1573Z" />
<glyph unicode="&#xd5;" glyph-name="Otilde" horiz-adv-x="1485" d="M1395 639Q1394 451 1346 304T1211 53T1000 -104T725 -158Q583 -158 465 -103T263 48T131 275T84 559Q84 689 110 798T178 997T277 1159T392 1286T512 1383T622 1452T710 1496T764 1518L776
1485Q745 1472 691 1443T574 1367T446 1251T329 1092T243 886T209 629Q209 480 244 346T351 111T528 -49T778 -109Q819 -109 877 -97T1000 -52T1127 34T1241 171T1322 369T1354 639Q1354 682 1351 728T1339 821Q1250 746 1146 702T924 657Q847 657 780 678T664
739T586 833T557 954Q557 1038 589 1103T675 1213T795 1281T934 1305Q1031 1305 1104 1272T1229 1182T1314 1053T1366 901Q1414 948 1455 1006T1530 1139L1567 1124Q1493 970 1374 854Q1385 798 1390 744T1395 639ZM954 733Q1053 733 1149 765T1331 868Q1314 946
1284 1017T1206 1144T1092 1233T936 1266Q864 1266 811 1244T721 1185T667 1100T649 999Q649 955 664 908T716 822T810 758T954 733ZM918 1648Q936 1648 947 1657T966 1680T975 1705T979 1724H1010Q1010 1709 1006 1688T990 1648T961 1616T916 1603Q895 1603 877
1615T842 1641T810 1667T781 1679Q764 1679 753 1669T735 1647T725 1622T721 1603H690Q690 1618 694 1638T710 1678T739 1710T785 1724Q806 1724 823 1712T857 1686T888 1660T918 1648Z" />
<glyph unicode="&#xd6;" glyph-name="Odieresis" horiz-adv-x="1485" d="M1395 639Q1394 451 1346 304T1211 53T1000 -104T725 -158Q583 -158 465 -103T263 48T131 275T84 559Q84 689 110 798T178 997T277 1159T392 1286T512 1383T622 1452T710 1496T764 1518L776
1485Q745 1472 691 1443T574 1367T446 1251T329 1092T243 886T209 629Q209 480 244 346T351 111T528 -49T778 -109Q819 -109 877 -97T1000 -52T1127 34T1241 171T1322 369T1354 639Q1354 682 1351 728T1339 821Q1250 746 1146 702T924 657Q847 657 780 678T664
739T586 833T557 954Q557 1038 589 1103T675 1213T795 1281T934 1305Q1031 1305 1104 1272T1229 1182T1314 1053T1366 901Q1414 948 1455 1006T1530 1139L1567 1124Q1493 970 1374 854Q1385 798 1390 744T1395 639ZM954 733Q1053 733 1149 765T1331 868Q1314 946
1284 1017T1206 1144T1092 1233T936 1266Q864 1266 811 1244T721 1185T667 1100T649 999Q649 955 664 908T716 822T810 758T954 733ZM705 1648Q705 1668 717 1682T750 1696Q770 1696 783 1682T797 1648Q797 1630 784 1617T750 1603Q730 1603 718 1616T705 1648ZM903
1648Q903 1668 916 1682T949 1696Q969 1696 982 1682T996 1648Q996 1630 983 1617T949 1603Q930 1603 917 1616T903 1648Z" />
<glyph unicode="&#xd7;" glyph-name="multiply" horiz-adv-x="819" d="M684 811Q642 766 582 704T454 574T314 436T178 307L150 336Q203 390 268 458T402 595T536 729T655 842L684 811ZM657 307Q610 352 547 413T416 542T280 681T154 813L182 842Q237 789 304
724T441 590T575 455T688 336L657 307Z" />
<glyph unicode="&#xd8;" glyph-name="Oslash" horiz-adv-x="1485" d="M242 -201Q266 -163 293 -121T348 -33Q223 63 154 216T84 559Q84 689 110 798T178 997T277 1159T392 1286T512 1383T622 1452T710 1496T764 1518L776 1485Q745 1472 691 1443T574 1367T446
1251T329 1092T243 886T209 629Q209 542 221 460T257 303T317 164T401 49Q492 193 594 351T801 672Q747 687 702 713T625 775T575 857T557 954Q557 1038 589 1103T675 1213T795 1281T934 1305Q1005 1305 1062 1287T1165 1237Q1199 1290 1231 1338T1292 1434L1327
1413Q1296 1365 1264 1315T1198 1212Q1264 1155 1304 1074T1366 901Q1414 948 1455 1006T1530 1139L1567 1124Q1493 970 1374 854Q1385 798 1390 744T1395 639Q1394 451 1346 304T1211 53T1000 -104T725 -158Q628 -158 542 -132T383 -57Q354 -102 327 -143T276
-221L242 -201ZM924 657Q904 657 884 657T846 662Q736 490 631 326T432 18Q498 -40 584 -74T778 -109Q819 -109 877 -97T1000 -52T1127 34T1241 171T1322 369T1354 639Q1354 682 1351 728T1339 821Q1250 746 1146 702T924 657ZM649 999Q649 963 659 925T693 851T754
788T848 745Q925 866 999 981T1143 1202Q1101 1231 1050 1248T936 1266Q864 1266 811 1244T721 1185T667 1100T649 999ZM954 733Q1053 733 1149 765T1331 868Q1313 959 1275 1039T1176 1176Q1107 1070 1037 961T893 735Q907 733 922 733T954 733Z" />
<glyph unicode="&#xd9;" glyph-name="Ugrave" horiz-adv-x="1403" d="M709 -213Q595 -213 488 -184T298 -86T164 99T113 385Q113 509 134 621T190 831T265 1011T345 1157T416 1268T465 1339L498 1319Q492 1308 471 1272T422 1176T363 1037T305 862T261 655T244
422Q244 275 276 164T367 -21T510 -134T700 -172Q783 -172 849 -142T968 -58T1060 66T1127 218T1174 386T1203 559T1218 722T1223 866Q1223 1011 1209 1133T1176 1348T1141 1503T1118 1593L1155 1606Q1190 1483 1215 1370T1257 1141T1282 901T1290 629Q1290 519
1277 414T1234 215T1160 43T1049 -93T900 -181T709 -213ZM698 1720L917 1540L899 1516L659 1661L698 1720Z" />
<glyph unicode="&#xda;" glyph-name="Uacute" horiz-adv-x="1403" d="M709 -213Q595 -213 488 -184T298 -86T164 99T113 385Q113 509 134 621T190 831T265 1011T345 1157T416 1268T465 1339L498 1319Q492 1308 471 1272T422 1176T363 1037T305 862T261 655T244
422Q244 275 276 164T367 -21T510 -134T700 -172Q783 -172 849 -142T968 -58T1060 66T1127 218T1174 386T1203 559T1218 722T1223 866Q1223 1011 1209 1133T1176 1348T1141 1503T1118 1593L1155 1606Q1190 1483 1215 1370T1257 1141T1282 901T1290 629Q1290 519
1277 414T1234 215T1160 43T1049 -93T900 -181T709 -213ZM917 1661L678 1516L659 1540L878 1720L917 1661Z" />
<glyph unicode="&#xdb;" glyph-name="Ucircumflex" horiz-adv-x="1403" d="M709 -213Q595 -213 488 -184T298 -86T164 99T113 385Q113 509 134 621T190 831T265 1011T345 1157T416 1268T465 1339L498 1319Q492 1308 471 1272T422 1176T363 1037T305 862T261 655T244
422Q244 275 276 164T367 -21T510 -134T700 -172Q783 -172 849 -142T968 -58T1060 66T1127 218T1174 386T1203 559T1218 722T1223 866Q1223 1011 1209 1133T1176 1348T1141 1503T1118 1593L1155 1606Q1190 1483 1215 1370T1257 1141T1282 901T1290 629Q1290 519
1277 414T1234 215T1160 43T1049 -93T900 -181T709 -213ZM950 1516L786 1643L628 1516L608 1536L786 1716L970 1536L950 1516Z" />
<glyph unicode="&#xdc;" glyph-name="Udieresis" horiz-adv-x="1403" d="M709 -213Q595 -213 488 -184T298 -86T164 99T113 385Q113 509 134 621T190 831T265 1011T345 1157T416 1268T465 1339L498 1319Q492 1308 471 1272T422 1176T363 1037T305 862T261 655T244
422Q244 275 276 164T367 -21T510 -134T700 -172Q783 -172 849 -142T968 -58T1060 66T1127 218T1174 386T1203 559T1218 722T1223 866Q1223 1011 1209 1133T1176 1348T1141 1503T1118 1593L1155 1606Q1190 1483 1215 1370T1257 1141T1282 901T1290 629Q1290 519
1277 414T1234 215T1160 43T1049 -93T900 -181T709 -213ZM643 1591Q643 1611 655 1625T688 1639Q708 1639 721 1625T735 1591Q735 1573 722 1560T688 1546Q668 1546 656 1559T643 1591ZM841 1591Q841 1611 854 1625T887 1639Q907 1639 920 1625T934 1591Q934 1573
921 1560T887 1546Q868 1546 855 1559T841 1591Z" />
<glyph unicode="&#xdd;" glyph-name="Yacute" horiz-adv-x="1317" d="M539 -29Q601 -29 660 -5T774 63T879 165T975 293Q993 473 1018 609T1072 843T1130 1007T1187 1110T1238 1164T1278 1180Q1282 1180 1289 1179T1302 1171T1312 1151T1317 1116Q1317 1078 1303
1005T1261 837T1192 634T1096 420Q1093 360 1091 279T1082 104T1063 -88T1027 -281T967 -460T876 -607T746 -708T571 -745Q472 -745 402 -718T288 -644T224 -538T203 -412Q203 -359 210 -323T219 -283L258 -295Q254 -311 251 -329Q248 -345 246 -366T244 -414Q244
-473 262 -526T319 -619T421 -683T571 -707Q666 -707 729 -674T833 -582T896 -442T929 -263T947 -57T963 166Q963 175 964 185T965 205Q917 140 864 86T750 -9T624 -71T485 -94Q406 -94 333 -64T205 29T116 191T82 426Q82 577 117 710T206 956T327 1160T455 1321T569
1435T645 1501L672 1473Q671 1472 636 1439T549 1344T436 1196T324 1003T238 771T203 508Q203 248 287 110T539 -29ZM1278 1118Q1278 1127 1278 1134T1272 1141Q1253 1141 1230 1101T1183 984T1140 792T1106 530Q1146 618 1178 705T1232 870T1266 1012T1278 1118ZM1179
1528L940 1383L921 1407L1140 1587L1179 1528Z" />
<glyph unicode="&#xde;" glyph-name="Thorn" horiz-adv-x="1434" d="M555 -199Q538 -173 519 -133T482 -42T446 69T414 195Q366 202 336 214T290 240T268 269T262 297Q262 331 293 362T381 418Q378 444 378 470T377 522Q377 628 386 725T412 911T449 1078T494
1223Q428 1205 363 1181T237 1130T122 1072T23 1014L0 1047Q4 1050 44 1075T151 1134T310 1205T508 1268Q536 1341 562 1398T610 1496T645 1557T659 1579L696 1563Q687 1543 656 1474T590 1284Q638 1292 688 1297T791 1303Q913 1303 1024 1273T1219 1181T1353 1026T1403
805Q1403 701 1369 615T1274 461T1131 341T954 255T756 203T551 186H512Q527 69 549 -28T594 -190L555 -199ZM573 424Q528 421 492 412Q494 364 497 318T506 225H559Q639 225 723 240T888 286T1038 367T1162 486T1245 645T1276 848Q1276 938 1248 1004T1173 1115T1068
1189T949 1233T831 1254T731 1260Q694 1260 656 1256T578 1243Q542 1113 516 933T489 516V451Q509 456 528 458T569 463L573 424ZM403 236Q397 270 393 306T385 377Q343 357 323 336T303 297Q303 280 325 264T403 236Z" />
<glyph unicode="&#xdf;" glyph-name="germandbls" horiz-adv-x="676" d="M477 225Q477 263 462 301T425 375T376 446T327 511T289 571T274 623Q274 653 286 682T316 744T355 814T394 897T424 999T436 1128Q436 1144 434 1160T425 1190T407 1211T379 1219Q338 1219
307 1160T253 1000T215 770T190 498T176 214T170 -53T171 -274T176 -420L135 -430Q123 -383 113 -307T97 -135T90 72T91 299T104 531T130 754T170 953T226 1114T300 1221T393 1260Q447 1260 478 1224T510 1128Q510 1048 485 982T428 860T372 757T346 668Q346 640
362 610T403 546T456 477T509 402T550 322T567 236Q567 173 549 134T500 74Q544 92 583 138T657 243T719 368T770 489L809 479Q775 392 738 309T653 161T546 56T408 16Q387 16 365 19T323 30T285 51T254 82L287 104Q296 90 315 78T365 66Q395 66 416 78T450 112T470
163T477 225Z" />
<glyph unicode="&#xe0;" glyph-name="agrave" horiz-adv-x="731" d="M864 479Q823 368 790 293T725 172T662 106T594 86Q549 86 517 117T477 215Q445 146 394 103T266 59Q225 59 188 74T121 120T75 200T57 313Q57 379 73 437T117 543T179 630T253 694T329 734T399
748Q427 748 453 741T499 719T532 677T545 612Q545 566 528 532T486 475T436 438T395 418L383 457Q386 457 405 465T446 491T486 539T504 610Q504 658 477 683T408 709Q376 709 333 686T251 614T184 490T156 311Q156 208 192 154T291 100Q322 100 350 117T403 164T446
231T479 311Q479 343 486 386T510 475L571 455Q566 442 561 421T552 375T544 324T541 272Q541 194 556 165T610 135Q632 135 653 151T700 207T755 315T825 489L864 479ZM303 1054L522 874L504 850L264 995L303 1054Z" />
<glyph unicode="&#xe1;" glyph-name="aacute" horiz-adv-x="731" d="M864 479Q823 368 790 293T725 172T662 106T594 86Q549 86 517 117T477 215Q445 146 394 103T266 59Q225 59 188 74T121 120T75 200T57 313Q57 379 73 437T117 543T179 630T253 694T329 734T399
748Q427 748 453 741T499 719T532 677T545 612Q545 566 528 532T486 475T436 438T395 418L383 457Q386 457 405 465T446 491T486 539T504 610Q504 658 477 683T408 709Q376 709 333 686T251 614T184 490T156 311Q156 208 192 154T291 100Q322 100 350 117T403 164T446
231T479 311Q479 343 486 386T510 475L571 455Q566 442 561 421T552 375T544 324T541 272Q541 194 556 165T610 135Q632 135 653 151T700 207T755 315T825 489L864 479ZM522 995L283 850L264 874L483 1054L522 995Z" />
<glyph unicode="&#xe2;" glyph-name="acircumflex" horiz-adv-x="731" d="M864 479Q823 368 790 293T725 172T662 106T594 86Q549 86 517 117T477 215Q445 146 394 103T266 59Q225 59 188 74T121 120T75 200T57 313Q57 379 73 437T117 543T179 630T253 694T329
734T399 748Q427 748 453 741T499 719T532 677T545 612Q545 566 528 532T486 475T436 438T395 418L383 457Q386 457 405 465T446 491T486 539T504 610Q504 658 477 683T408 709Q376 709 333 686T251 614T184 490T156 311Q156 208 192 154T291 100Q322 100 350 117T403
164T446 231T479 311Q479 343 486 386T510 475L571 455Q566 442 561 421T552 375T544 324T541 272Q541 194 556 165T610 135Q632 135 653 151T700 207T755 315T825 489L864 479ZM555 850L391 977L233 850L213 870L391 1050L575 870L555 850Z" />
<glyph unicode="&#xe3;" glyph-name="atilde" horiz-adv-x="731" d="M864 479Q823 368 790 293T725 172T662 106T594 86Q549 86 517 117T477 215Q445 146 394 103T266 59Q225 59 188 74T121 120T75 200T57 313Q57 379 73 437T117 543T179 630T253 694T329 734T399
748Q427 748 453 741T499 719T532 677T545 612Q545 566 528 532T486 475T436 438T395 418L383 457Q386 457 405 465T446 491T486 539T504 610Q504 658 477 683T408 709Q376 709 333 686T251 614T184 490T156 311Q156 208 192 154T291 100Q322 100 350 117T403 164T446
231T479 311Q479 343 486 386T510 475L571 455Q566 442 561 421T552 375T544 324T541 272Q541 194 556 165T610 135Q632 135 653 151T700 207T755 315T825 489L864 479ZM461 925Q479 925 490 934T509 957T518 982T522 1001H553Q553 986 549 965T533 925T504 893T459
880Q438 880 420 892T385 918T353 944T324 956Q307 956 296 946T278 924T268 899T264 880H233Q233 895 237 915T253 955T282 987T328 1001Q349 1001 366 989T400 963T431 937T461 925Z" />
<glyph unicode="&#xe4;" glyph-name="adieresis" horiz-adv-x="731" d="M864 479Q823 368 790 293T725 172T662 106T594 86Q549 86 517 117T477 215Q445 146 394 103T266 59Q225 59 188 74T121 120T75 200T57 313Q57 379 73 437T117 543T179 630T253 694T329 734T399
748Q427 748 453 741T499 719T532 677T545 612Q545 566 528 532T486 475T436 438T395 418L383 457Q386 457 405 465T446 491T486 539T504 610Q504 658 477 683T408 709Q376 709 333 686T251 614T184 490T156 311Q156 208 192 154T291 100Q322 100 350 117T403 164T446
231T479 311Q479 343 486 386T510 475L571 455Q566 442 561 421T552 375T544 324T541 272Q541 194 556 165T610 135Q632 135 653 151T700 207T755 315T825 489L864 479ZM248 925Q248 945 260 959T293 973Q313 973 326 959T340 925Q340 907 327 894T293 880Q273
880 261 893T248 925ZM446 925Q446 945 459 959T492 973Q512 973 525 959T539 925Q539 907 526 894T492 880Q473 880 460 893T446 925Z" />
<glyph unicode="&#xe5;" glyph-name="aring" horiz-adv-x="731" d="M864 479Q823 368 790 293T725 172T662 106T594 86Q549 86 517 117T477 215Q445 146 394 103T266 59Q225 59 188 74T121 120T75 200T57 313Q57 379 73 437T117 543T179 630T253 694T329 734T399
748Q427 748 453 741T499 719T532 677T545 612Q545 566 528 532T486 475T436 438T395 418L383 457Q386 457 405 465T446 491T486 539T504 610Q504 658 477 683T408 709Q376 709 333 686T251 614T184 490T156 311Q156 208 192 154T291 100Q322 100 350 117T403 164T446
231T479 311Q479 343 486 386T510 475L571 455Q566 442 561 421T552 375T544 324T541 272Q541 194 556 165T610 135Q632 135 653 151T700 207T755 315T825 489L864 479ZM299 923Q299 964 326 990T393 1016Q433 1016 459 990T485 923Q485 883 459 856T393 829Q353
829 326 856T299 923ZM336 923Q336 899 352 883T393 866Q418 866 434 882T451 923Q451 948 435 964T393 981Q368 981 352 965T336 923Z" />
<glyph unicode="&#xe6;" glyph-name="ae" horiz-adv-x="936" d="M1069 479Q1053 441 1036 396T996 307T947 221T884 147T804 95T705 76Q646 76 595 102T512 178Q512 122 518 88L483 80Q472 103 465 126T453 176Q412 111 365 85T262 59Q221 59 184 74T117 120T71
200T53 313Q53 375 69 429T113 529T175 610T249 670T325 708T395 721Q430 721 464 709T518 668Q526 683 535 700T553 735L586 725Q581 713 576 701T565 674Q599 709 639 728T721 748Q783 748 819 707T856 600Q856 545 835 500T780 421T701 370T608 352Q585 352
565 354T528 360Q539 236 591 180T727 123Q788 123 834 158T916 248T979 366T1030 489L1069 479ZM287 100Q311 100 332 110T373 138T410 180T442 233Q439 258 438 286T436 344Q436 406 449 470T496 616Q488 648 463 665T403 682Q371 682 328 661T246 594T180 478T152
311Q152 208 188 154T287 100ZM723 709Q686 709 651 686T587 621T542 523T524 403Q537 398 560 395T618 391Q654 391 689 406T753 449T799 515T817 598Q817 620 811 640T793 675T764 700T723 709Z" />
<glyph unicode="&#xe7;" glyph-name="ccedilla" horiz-adv-x="655" d="M334 520Q334 580 362 624T436 709Q422 718 406 722T375 727Q342 727 305 711T236 655T183 551T162 387Q162 306 181 248T235 153T314 98T410 80Q471 80 519 111T607 198T681 328T750 489L788
479Q768 430 747 378T700 276T644 180T574 101T485 47T375 27H369L344 -51Q366 -51 387 -56T424 -72T451 -98T461 -133Q461 -180 428 -200T344 -221Q307 -221 278 -211T225 -188L240 -156Q257 -167 285 -176T340 -186Q371 -186 390 -172T410 -133Q410 -117 402
-107T381 -90T356 -82T332 -80Q322 -80 314 -80T297 -84L334 29Q279 35 231 58T146 123T89 224T68 362Q68 448 96 522T169 650T266 735T367 766Q423 766 467 737Q475 743 482 749T498 764L520 733Q514 727 508 722T496 711Q514 689 525 659T537 592Q537 551 528
520T502 466T464 433T420 422Q408 422 393 427T365 444T343 474T334 520ZM496 592Q496 621 488 644T465 684Q428 652 402 613T375 520Q375 492 389 477T422 461Q444 461 458 475T481 509T492 552T496 592Z" />
<glyph unicode="&#xe8;" glyph-name="egrave" horiz-adv-x="573" d="M313 14Q262 14 215 32T133 86T76 178T55 307Q55 397 81 467T147 586T238 660T336 686Q398 686 434 645T471 539Q471 483 450 438T395 360T316 309T223 291Q200 291 180 293T143 299Q149 237
167 192T212 118T272 75T342 61Q387 61 425 83T495 140T553 222T601 315T638 408T668 489L707 479Q694 446 677 399T636 301T582 198T512 106T424 40T313 14ZM338 647Q301 647 266 624T202 559T157 462T139 342Q152 337 175 334T233 330Q269 330 304 345T368 388T414
454T432 537Q432 559 426 579T408 614T379 638T338 647ZM229 1252L448 1072L430 1048L190 1193L229 1252Z" />
<glyph unicode="&#xe9;" glyph-name="eacute" horiz-adv-x="573" d="M313 14Q262 14 215 32T133 86T76 178T55 307Q55 397 81 467T147 586T238 660T336 686Q398 686 434 645T471 539Q471 483 450 438T395 360T316 309T223 291Q200 291 180 293T143 299Q149 237
167 192T212 118T272 75T342 61Q387 61 425 83T495 140T553 222T601 315T638 408T668 489L707 479Q694 446 677 399T636 301T582 198T512 106T424 40T313 14ZM338 647Q301 647 266 624T202 559T157 462T139 342Q152 337 175 334T233 330Q269 330 304 345T368 388T414
454T432 537Q432 559 426 579T408 614T379 638T338 647ZM448 1193L209 1048L190 1072L409 1252L448 1193Z" />
<glyph unicode="&#xea;" glyph-name="ecircumflex" horiz-adv-x="573" d="M313 14Q262 14 215 32T133 86T76 178T55 307Q55 397 81 467T147 586T238 660T336 686Q398 686 434 645T471 539Q471 483 450 438T395 360T316 309T223 291Q200 291 180 293T143 299Q149
237 167 192T212 118T272 75T342 61Q387 61 425 83T495 140T553 222T601 315T638 408T668 489L707 479Q694 446 677 399T636 301T582 198T512 106T424 40T313 14ZM338 647Q301 647 266 624T202 559T157 462T139 342Q152 337 175 334T233 330Q269 330 304 345T368
388T414 454T432 537Q432 559 426 579T408 614T379 638T338 647ZM481 1048L317 1175L159 1048L139 1068L317 1248L501 1068L481 1048Z" />
<glyph unicode="&#xeb;" glyph-name="edieresis" horiz-adv-x="573" d="M313 14Q262 14 215 32T133 86T76 178T55 307Q55 397 81 467T147 586T238 660T336 686Q398 686 434 645T471 539Q471 483 450 438T395 360T316 309T223 291Q200 291 180 293T143 299Q149
237 167 192T212 118T272 75T342 61Q387 61 425 83T495 140T553 222T601 315T638 408T668 489L707 479Q694 446 677 399T636 301T582 198T512 106T424 40T313 14ZM338 647Q301 647 266 624T202 559T157 462T139 342Q152 337 175 334T233 330Q269 330 304 345T368
388T414 454T432 537Q432 559 426 579T408 614T379 638T338 647ZM174 1123Q174 1143 186 1157T219 1171Q239 1171 252 1157T266 1123Q266 1105 253 1092T219 1078Q199 1078 187 1091T174 1123ZM372 1123Q372 1143 385 1157T418 1171Q438 1171 451 1157T465 1123Q465
1105 452 1092T418 1078Q399 1078 386 1091T372 1123Z" />
<glyph unicode="&#xec;" glyph-name="igrave" horiz-adv-x="371" d="M209 104Q146 104 105 155T63 309Q63 377 90 482T186 721L223 711Q217 685 204 640T177 540T153 424T143 307Q143 260 150 231T168 185T195 162T229 156Q258 156 284 174T333 221T377 287T414
361T444 431T465 489L504 479Q493 449 479 410T446 328T404 246T352 175T288 124T209 104ZM374 1285L593 1105L575 1081L335 1226L374 1285Z" />
<glyph unicode="&#xed;" glyph-name="iacute" horiz-adv-x="371" d="M209 104Q146 104 105 155T63 309Q63 377 90 482T186 721L223 711Q217 685 204 640T177 540T153 424T143 307Q143 260 150 231T168 185T195 162T229 156Q258 156 284 174T333 221T377 287T414
361T444 431T465 489L504 479Q493 449 479 410T446 328T404 246T352 175T288 124T209 104ZM654 1226L415 1081L396 1105L615 1285L654 1226Z" />
<glyph unicode="&#xee;" glyph-name="icircumflex" horiz-adv-x="371" d="M209 104Q146 104 105 155T63 309Q63 377 90 482T186 721L223 711Q217 685 204 640T177 540T153 424T143 307Q143 260 150 231T168 185T195 162T229 156Q258 156 284 174T333 221T377 287T414
361T444 431T465 489L504 479Q493 449 479 410T446 328T404 246T352 175T288 124T209 104ZM646 1081L482 1208L324 1081L304 1101L482 1281L666 1101L646 1081Z" />
<glyph unicode="&#xef;" glyph-name="idieresis" horiz-adv-x="371" d="M209 104Q146 104 105 155T63 309Q63 377 90 482T186 721L223 711Q217 685 204 640T177 540T153 424T143 307Q143 260 150 231T168 185T195 162T229 156Q258 156 284 174T333 221T377 287T414
361T444 431T465 489L504 479Q493 449 479 410T446 328T404 246T352 175T288 124T209 104ZM339 1156Q339 1176 351 1190T384 1204Q404 1204 417 1190T431 1156Q431 1138 418 1125T384 1111Q364 1111 352 1124T339 1156ZM537 1156Q537 1176 550 1190T583 1204Q603
1204 616 1190T630 1156Q630 1138 617 1125T583 1111Q564 1111 551 1124T537 1156Z" />
<glyph unicode="&#xf0;" glyph-name="eth" horiz-adv-x="618" d="M156 967L340 1085Q298 1150 253 1204T162 1303L190 1335Q221 1301 272 1245T377 1108L575 1237L598 1204L397 1075Q433 1019 467 952T527 808T568 642T584 455Q584 410 578 361T557 263T521 170T466
92T391 38T293 18Q248 18 206 36T132 91T80 185T61 319Q61 361 69 408T93 502T133 591T189 665T261 716T350 735Q392 735 434 719T510 664Q494 767 455 866T362 1053L178 934L156 967ZM545 453Q545 493 533 536T496 614T436 673T354 696Q306 696 266 672T198 607T153
509T137 387Q137 319 148 271T176 189T216 137T260 107T303 93T338 90Q382 90 414 108T470 157T507 226T530 305T542 384T545 453Z" />
<glyph unicode="&#xf1;" glyph-name="ntilde" horiz-adv-x="864" d="M94 489Q109 528 126 563T164 626T207 669T260 686Q274 686 292 680T326 656T354 604T365 514Q365 485 362 450T356 381Q387 447 417 492T477 565T536 605T594 618Q607 618 624 612T657 591T683
550T694 483Q694 450 689 417T678 353T667 295T662 246Q662 196 680 170T735 143Q765 143 792 165T842 223T885 300T919 380T944 448T958 489L997 479Q983 444 968 402T933 316T892 233T843 161T785 111T715 92Q683 92 660 104T620 138T596 188T588 250Q588 287
594 326T608 401T622 467T629 518Q629 549 617 564T584 580Q555 580 528 559T475 503T426 423T384 331T348 236T319 151T299 87T287 53L229 63Q241 122 251 187T268 316T280 438T285 541Q285 602 277 623T248 645Q230 645 214 632T185 596T158 543T133 479L94 489ZM611
797Q629 797 640 806T659 829T668 854T672 873H703Q703 858 699 837T683 797T654 765T609 752Q588 752 570 764T535 790T503 816T474 828Q457 828 446 818T428 796T418 771T414 752H383Q383 767 387 787T403 827T432 859T478 873Q499 873 516 861T550 835T581 809T611
797Z" />
<glyph unicode="&#xf2;" glyph-name="ograve" horiz-adv-x="690" d="M344 90Q400 90 451 131T532 250H524Q462 250 410 271T319 329T258 419T236 535Q236 570 245 606T275 670T327 717T403 735Q439 735 474 721T537 671T582 577T600 426Q600 392 597 359T586 293Q625
300 655 318T709 361T751 419T784 489L823 479Q802 422 775 382T716 315T650 274T578 254Q564 205 541 162T485 87T409 37T311 18Q266 18 221 36T139 93T80 190T57 330Q57 383 69 434T104 530T158 615T225 684L240 659Q217 638 196 607T158 539T131 460T121 377Q121
296 141 241T194 153T266 105T344 90ZM401 696Q374 696 351 685T311 653T284 605T274 543Q274 484 294 437T348 357T429 307T528 289H547Q555 320 558 354T561 428Q559 505 546 556T511 639T462 683T401 696ZM283 1042L502 862L484 838L244 983L283 1042Z" />
<glyph unicode="&#xf3;" glyph-name="oacute" horiz-adv-x="690" d="M344 90Q400 90 451 131T532 250H524Q462 250 410 271T319 329T258 419T236 535Q236 570 245 606T275 670T327 717T403 735Q439 735 474 721T537 671T582 577T600 426Q600 392 597 359T586 293Q625
300 655 318T709 361T751 419T784 489L823 479Q802 422 775 382T716 315T650 274T578 254Q564 205 541 162T485 87T409 37T311 18Q266 18 221 36T139 93T80 190T57 330Q57 383 69 434T104 530T158 615T225 684L240 659Q217 638 196 607T158 539T131 460T121 377Q121
296 141 241T194 153T266 105T344 90ZM401 696Q374 696 351 685T311 653T284 605T274 543Q274 484 294 437T348 357T429 307T528 289H547Q555 320 558 354T561 428Q559 505 546 556T511 639T462 683T401 696ZM502 983L263 838L244 862L463 1042L502 983Z" />
<glyph unicode="&#xf4;" glyph-name="ocircumflex" horiz-adv-x="690" d="M344 90Q400 90 451 131T532 250H524Q462 250 410 271T319 329T258 419T236 535Q236 570 245 606T275 670T327 717T403 735Q439 735 474 721T537 671T582 577T600 426Q600 392 597 359T586
293Q625 300 655 318T709 361T751 419T784 489L823 479Q802 422 775 382T716 315T650 274T578 254Q564 205 541 162T485 87T409 37T311 18Q266 18 221 36T139 93T80 190T57 330Q57 383 69 434T104 530T158 615T225 684L240 659Q217 638 196 607T158 539T131 460T121
377Q121 296 141 241T194 153T266 105T344 90ZM401 696Q374 696 351 685T311 653T284 605T274 543Q274 484 294 437T348 357T429 307T528 289H547Q555 320 558 354T561 428Q559 505 546 556T511 639T462 683T401 696ZM535 838L371 965L213 838L193 858L371 1038L555
858L535 838Z" />
<glyph unicode="&#xf5;" glyph-name="otilde" horiz-adv-x="690" d="M344 90Q400 90 451 131T532 250H524Q462 250 410 271T319 329T258 419T236 535Q236 570 245 606T275 670T327 717T403 735Q439 735 474 721T537 671T582 577T600 426Q600 392 597 359T586 293Q625
300 655 318T709 361T751 419T784 489L823 479Q802 422 775 382T716 315T650 274T578 254Q564 205 541 162T485 87T409 37T311 18Q266 18 221 36T139 93T80 190T57 330Q57 383 69 434T104 530T158 615T225 684L240 659Q217 638 196 607T158 539T131 460T121 377Q121
296 141 241T194 153T266 105T344 90ZM401 696Q374 696 351 685T311 653T284 605T274 543Q274 484 294 437T348 357T429 307T528 289H547Q555 320 558 354T561 428Q559 505 546 556T511 639T462 683T401 696ZM441 913Q459 913 470 922T489 945T498 970T502 989H533Q533
974 529 953T513 913T484 881T439 868Q418 868 400 880T365 906T333 932T304 944Q287 944 276 934T258 912T248 887T244 868H213Q213 883 217 903T233 943T262 975T308 989Q329 989 346 977T380 951T411 925T441 913Z" />
<glyph unicode="&#xf6;" glyph-name="odieresis" horiz-adv-x="690" d="M344 90Q400 90 451 131T532 250H524Q462 250 410 271T319 329T258 419T236 535Q236 570 245 606T275 670T327 717T403 735Q439 735 474 721T537 671T582 577T600 426Q600 392 597 359T586
293Q625 300 655 318T709 361T751 419T784 489L823 479Q802 422 775 382T716 315T650 274T578 254Q564 205 541 162T485 87T409 37T311 18Q266 18 221 36T139 93T80 190T57 330Q57 383 69 434T104 530T158 615T225 684L240 659Q217 638 196 607T158 539T131 460T121
377Q121 296 141 241T194 153T266 105T344 90ZM401 696Q374 696 351 685T311 653T284 605T274 543Q274 484 294 437T348 357T429 307T528 289H547Q555 320 558 354T561 428Q559 505 546 556T511 639T462 683T401 696ZM228 913Q228 933 240 947T273 961Q293 961
306 947T320 913Q320 895 307 882T273 868Q253 868 241 881T228 913ZM426 913Q426 933 439 947T472 961Q492 961 505 947T519 913Q519 895 506 882T472 868Q453 868 440 881T426 913Z" />
<glyph unicode="&#xf7;" glyph-name="divide" horiz-adv-x="819" d="M467 780Q467 759 452 744T416 729Q396 729 382 744T367 780Q367 800 381 814T416 829Q437 829 452 815T467 780ZM467 389Q467 367 452 353T416 338Q396 338 382 352T367 389Q367 409 381 423T416
438Q437 438 452 424T467 389ZM694 553Q632 551 572 549T445 547T305 548T143 553V594Q219 595 288 596T423 598T556 598T694 594V553Z" />
<glyph unicode="&#xf8;" glyph-name="oslash" horiz-adv-x="690" d="M72 -141Q100 -82 123 -32T170 66Q120 103 89 168T57 330Q57 383 69 434T104 530T158 615T225 684L240 659Q217 638 196 607T158 539T131 460T121 377Q121 287 144 229T205 139Q231 196 254
246T301 346Q270 383 253 430T236 535Q236 570 245 606T275 670T327 717T403 735Q443 735 479 717Q502 765 528 818T584 932L621 915Q590 854 564 799T514 694Q551 662 575 598T600 426Q600 392 597 359T586 293Q625 300 655 318T709 361T751 419T784 489L823 479Q802
422 775 382T716 315T650 274T578 254Q564 205 541 162T485 87T409 37T311 18Q259 18 207 43Q184 -2 160 -51T109 -158L72 -141ZM561 428Q558 518 541 573T496 657Q454 568 419 494T352 352Q386 321 431 305T528 289H547Q555 320 558 354T561 428ZM344 90Q400 90
451 131T532 250H524Q412 250 334 313Q311 265 289 216T242 115Q289 90 344 90ZM401 696Q374 696 351 685T311 653T284 605T274 543Q274 496 287 457T322 387Q356 456 389 527T463 682Q449 690 433 693T401 696Z" />
<glyph unicode="&#xf9;" glyph-name="ugrave" horiz-adv-x="776" d="M477 231Q446 175 417 138T360 79T302 48T242 39Q217 39 185 47T125 80T77 154T57 283Q57 364 76 435T118 561Q145 623 180 676L217 664Q216 663 211 646T197 600T179 533T161 453T147 366T141
281Q141 187 174 133T262 78Q322 78 378 147T485 342Q494 400 509 450T540 539T569 604T588 639L623 631Q607 556 596 497T577 389T567 304T563 236Q563 176 582 140T641 104Q668 104 693 124T745 190T802 309T870 489L909 479Q892 437 875 389T839 293T798 201T750
123T692 69T623 49Q587 49 560 63T515 101T487 158T477 231ZM326 1233L545 1053L527 1029L287 1174L326 1233Z" />
<glyph unicode="&#xfa;" glyph-name="uacute" horiz-adv-x="776" d="M477 231Q446 175 417 138T360 79T302 48T242 39Q217 39 185 47T125 80T77 154T57 283Q57 364 76 435T118 561Q145 623 180 676L217 664Q216 663 211 646T197 600T179 533T161 453T147 366T141
281Q141 187 174 133T262 78Q322 78 378 147T485 342Q494 400 509 450T540 539T569 604T588 639L623 631Q607 556 596 497T577 389T567 304T563 236Q563 176 582 140T641 104Q668 104 693 124T745 190T802 309T870 489L909 479Q892 437 875 389T839 293T798 201T750
123T692 69T623 49Q587 49 560 63T515 101T487 158T477 231ZM545 1174L306 1029L287 1053L506 1233L545 1174Z" />
<glyph unicode="&#xfb;" glyph-name="ucircumflex" horiz-adv-x="776" d="M477 231Q446 175 417 138T360 79T302 48T242 39Q217 39 185 47T125 80T77 154T57 283Q57 364 76 435T118 561Q145 623 180 676L217 664Q216 663 211 646T197 600T179 533T161 453T147
366T141 281Q141 187 174 133T262 78Q322 78 378 147T485 342Q494 400 509 450T540 539T569 604T588 639L623 631Q607 556 596 497T577 389T567 304T563 236Q563 176 582 140T641 104Q668 104 693 124T745 190T802 309T870 489L909 479Q892 437 875 389T839 293T798
201T750 123T692 69T623 49Q587 49 560 63T515 101T487 158T477 231ZM578 1029L414 1156L256 1029L236 1049L414 1229L598 1049L578 1029Z" />
<glyph unicode="&#xfc;" glyph-name="udieresis" horiz-adv-x="776" d="M477 231Q446 175 417 138T360 79T302 48T242 39Q217 39 185 47T125 80T77 154T57 283Q57 364 76 435T118 561Q145 623 180 676L217 664Q216 663 211 646T197 600T179 533T161 453T147 366T141
281Q141 187 174 133T262 78Q322 78 378 147T485 342Q494 400 509 450T540 539T569 604T588 639L623 631Q607 556 596 497T577 389T567 304T563 236Q563 176 582 140T641 104Q668 104 693 124T745 190T802 309T870 489L909 479Q892 437 875 389T839 293T798 201T750
123T692 69T623 49Q587 49 560 63T515 101T487 158T477 231ZM271 1104Q271 1124 283 1138T316 1152Q336 1152 349 1138T363 1104Q363 1086 350 1073T316 1059Q296 1059 284 1072T271 1104ZM469 1104Q469 1124 482 1138T515 1152Q535 1152 548 1138T562 1104Q562
1086 549 1073T515 1059Q496 1059 483 1072T469 1104Z" />
<glyph unicode="&#xfd;" glyph-name="yacute" horiz-adv-x="743" d="M455 23Q455 151 467 262Q436 206 407 170T350 113T292 84T233 76Q209 76 179 83T121 114T76 179T57 293Q57 367 75 433T116 551Q142 611 176 662L213 649Q211 646 200 613T177 529T154 418T143
301Q143 217 173 167T260 117Q290 117 319 137T376 192T432 276T487 383Q506 482 532 559T588 690L625 680Q605 593 590 508T565 341T548 185T539 43Q582 74 619 112T693 202T764 324T838 489L877 479Q838 378 802 304T726 173T641 72T539 -12Q536 -122 519 -206T477
-352T421 -457T359 -525T299 -562T248 -573Q211 -573 182 -558T131 -517T99 -460T88 -395Q88 -338 115 -288T189 -192T294 -108T418 -33Q437 -20 455 -12V23ZM250 -532Q282 -532 315 -507T377 -426T426 -283T453 -72Q450 -74 447 -75T440 -80Q389 -112 339 -150T250
-233T185 -325T160 -426Q160 -444 166 -463T185 -497T213 -522T250 -532ZM569 923L330 778L311 802L530 982L569 923Z" />
<glyph unicode="&#xfe;" glyph-name="thorn" horiz-adv-x="768" d="M416 1128Q416 1068 396 994T342 832T261 645T162 434Q162 409 162 384T164 332Q205 415 245 474T324 570T404 625T485 643Q522 643 552 627T603 584T635 518T647 436Q647 355 621 277T543 143Q562
135 588 135Q621 135 650 153T706 202T756 271T799 349T834 425T862 489L901 479Q888 446 872 405T834 321T787 238T730 165T663 114T586 94Q546 94 506 111Q472 85 431 70T340 55Q309 55 290 63T261 82T246 106T242 127Q242 147 251 162T275 189T309 205T350 211Q384
211 415 199T475 172Q498 201 516 237T546 311T564 388T571 459Q571 536 546 570T485 604Q446 604 410 580T336 505T259 376T174 188Q172 186 172 184T170 180Q176 74 181 -38T186 -270Q186 -431 149 -508T35 -586Q5 -586 -17 -572T-53 -534T-75 -478T-82 -408Q-82
-348 -68 -277T-28 -127T30 32T100 195Q92 294 88 387T84 567Q84 654 91 739T113 901T148 1044T195 1158T251 1233T315 1260Q362 1260 389 1224T416 1128ZM317 1219Q279 1219 251 1165T203 1018T174 797T162 524Q207 612 246 697T313 861T358 1007T375 1128Q375
1144 373 1160T363 1190T345 1211T317 1219ZM129 -340Q129 -249 124 -154T113 41Q53 -107 14 -225T-25 -438Q-25 -483 -8 -515T43 -547Q61 -547 76 -537T103 -503T122 -439T129 -340ZM336 94Q367 94 394 106T444 139Q417 152 394 162T348 172Q310 172 296 158T281
129Q281 118 294 106T336 94Z" />
<glyph unicode="&#xff;" glyph-name="ydieresis" horiz-adv-x="743" d="M455 23Q455 151 467 262Q436 206 407 170T350 113T292 84T233 76Q209 76 179 83T121 114T76 179T57 293Q57 367 75 433T116 551Q142 611 176 662L213 649Q211 646 200 613T177 529T154 418T143
301Q143 217 173 167T260 117Q290 117 319 137T376 192T432 276T487 383Q506 482 532 559T588 690L625 680Q605 593 590 508T565 341T548 185T539 43Q582 74 619 112T693 202T764 324T838 489L877 479Q838 378 802 304T726 173T641 72T539 -12Q536 -122 519 -206T477
-352T421 -457T359 -525T299 -562T248 -573Q211 -573 182 -558T131 -517T99 -460T88 -395Q88 -338 115 -288T189 -192T294 -108T418 -33Q437 -20 455 -12V23ZM250 -532Q282 -532 315 -507T377 -426T426 -283T453 -72Q450 -74 447 -75T440 -80Q389 -112 339 -150T250
-233T185 -325T160 -426Q160 -444 166 -463T185 -497T213 -522T250 -532ZM254 1109Q254 1129 266 1143T299 1157Q319 1157 332 1143T346 1109Q346 1091 333 1078T299 1064Q279 1064 267 1077T254 1109ZM452 1109Q452 1129 465 1143T498 1157Q518 1157 531 1143T545
1109Q545 1091 532 1078T498 1064Q479 1064 466 1077T452 1109Z" />
<glyph unicode="&#x2013;" glyph-name="endash" horiz-adv-x="1024" d="M143 430V485H901V430H143Z" />
<glyph unicode="&#x2014;" glyph-name="emdash" horiz-adv-x="2048" d="M0 430V485H2048V430H0Z" />
<glyph unicode="&#x2018;" glyph-name="quoteleft" horiz-adv-x="266" d="M211 1346Q185 1311 164 1272T141 1202Q146 1204 151 1204T162 1204Q196 1204 212 1182T229 1135Q229 1104 209 1084T158 1063Q121 1063 101 1089T80 1155Q80 1182 88 1211T110 1268T142
1321T182 1368L211 1346Z" />
<glyph unicode="&#x2019;" glyph-name="quoteright" horiz-adv-x="266" d="M141 1085Q154 1102 166 1121T188 1158T204 1195T211 1229Q206 1227 201 1227T190 1227Q156 1227 140 1249T123 1296Q123 1327 143 1347T195 1368Q232 1368 252 1342T272 1276Q272 1249
264 1220T242 1163T210 1110T170 1063L141 1085Z" />
<glyph unicode="&#x201a;" glyph-name="quotesinglbase" horiz-adv-x="266" d="M80 -152Q106 -117 127 -78T150 -8Q145 -10 140 -10T129 -10Q95 -10 78 12T61 59Q61 90 81 110T133 131Q170 131 190 105T211 39Q211 12 203 -17T181 -74T149 -127T109 -174L80 -152Z" />
<glyph unicode="&#x201c;" glyph-name="quotedblleft" horiz-adv-x="461" d="M211 1346Q185 1311 164 1272T141 1202Q146 1204 151 1204T162 1204Q196 1204 212 1182T229 1135Q229 1104 209 1084T158 1063Q121 1063 101 1089T80 1155Q80 1182 88 1211T110 1268T142
1321T182 1368L211 1346ZM406 1346Q380 1311 359 1272T336 1202Q341 1204 346 1204T356 1204Q390 1204 407 1182T424 1135Q424 1104 404 1084T352 1063Q315 1063 295 1089T274 1155Q274 1182 282 1211T305 1268T337 1321T377 1368L406 1346Z" />
<glyph unicode="&#x201d;" glyph-name="quotedblright" horiz-adv-x="461" d="M141 1085Q154 1102 166 1121T188 1158T204 1195T211 1229Q206 1227 201 1227T190 1227Q156 1227 140 1249T123 1296Q123 1327 143 1347T195 1368Q232 1368 252 1342T272 1276Q272
1249 264 1220T242 1163T210 1110T170 1063L141 1085ZM336 1085Q362 1119 383 1158T406 1229Q401 1227 396 1227T385 1227Q351 1227 334 1249T317 1296Q317 1327 337 1347T389 1368Q426 1368 446 1342T467 1276Q467 1249 459 1220T437 1163T405 1110T365 1063L336
1085Z" />
<glyph unicode="&#x201e;" glyph-name="quotedblbase" horiz-adv-x="461" d="M80 -152Q106 -117 127 -78T150 -8Q145 -10 140 -10T129 -10Q95 -10 78 12T61 59Q61 90 81 110T133 131Q170 131 190 105T211 39Q211 12 203 -17T181 -74T149 -127T109 -174L80 -152ZM274
-152Q300 -117 321 -78T344 -8Q339 -10 334 -10T324 -10Q290 -10 273 12T256 59Q256 90 276 110T328 131Q365 131 385 105T406 39Q406 12 398 -17T375 -74T343 -127T303 -174L274 -152Z" />
<glyph unicode="&#x2022;" glyph-name="bullet" horiz-adv-x="471" d="M369 598Q369 572 360 550T334 511T295 485T246 475Q220 475 198 484T159 510T133 549T123 598Q123 623 132 645T159 684T198 709T246 719Q272 719 294 710T333 684T359 646T369 598Z" />
<glyph unicode="&#x2039;" glyph-name="guilsinglleft" horiz-adv-x="596" d="M164 489L520 784L555 739L252 489L555 240L520 195L164 489Z" />
<glyph unicode="&#x203a;" glyph-name="guilsinglright" horiz-adv-x="596" d="M178 195L143 240L446 489L143 739L178 784L535 489L178 195Z" />
</font>
</defs>
</svg>
