<?xml version="1.0" standalone="no"?>
<!DOCTYPE svg PUBLIC "-//W3C//DTD SVG 1.1//EN" "http://www.w3.org/Graphics/SVG/1.1/DTD/svg11.dtd">
<svg xmlns="http://www.w3.org/2000/svg">
<defs >
<font id="CormorantSC" horiz-adv-x="533" ><font-face
    font-family="Cormorant SC SemiBold"
    units-per-em="1000"
    panose-1="0 0 7 0 0 0 0 0 0 0"
    ascent="924"
    descent="-287"
    alphabetic="0" />
<glyph unicode=" " glyph-name="space" horiz-adv-x="234" />
<glyph unicode="!" glyph-name="exclam" horiz-adv-x="258" d="M65 622T85 625T129 629Q151 629 172 626T191 617Q171 536 161 441T141 209L140 189Q140 185 127 185Q113 185 113 189Q106 329 97 430T67 617Q65 622 85 625ZM98 -11T83 4T68 44Q68 68 83 82T123
97Q149 97 163 83T177 44Q177 18 163 4T123 -11Q98 -11 83 4Z" />
<glyph unicode="&quot;" glyph-name="quotedbl" horiz-adv-x="296" d="M33 607Q32 618 62 629T115 640Q131 640 130 633L71 366Q69 364 63 363T56 365L33 607ZM182 607Q181 618 211 629T264 640Q280 640 279 633L220 366Q218 364 212 363T205 365L182 607Z" />
<glyph unicode="#" glyph-name="numbersign" horiz-adv-x="526" d="M465 318T466 311T468 296Q468 288 467 281T463 274H397L370 120H428Q430 120 431 113T433 98Q433 89 432 82T428 75H362L334 -82Q334 -86 310 -83T288 -75L315 75H175L147 -82Q147 -86 123 -83T101
-75L128 75H63Q61 75 60 82T58 99Q58 107 59 113T62 120H136L163 274H98Q96 274 95 281T93 298Q93 305 94 311T97 318H171L200 482Q200 487 223 482T245 472L218 318H358L387 482Q387 487 410 482T432 472L405 318H463Q465 318 466 311ZM323 120L350 274H210L183
120H323Z" />
<glyph unicode="$" glyph-name="dollar" horiz-adv-x="418" d="M383 73T341 35T231 -11V-102Q231 -109 218 -109Q204 -109 204 -102V-12Q162 -11 124 -1T67 24Q59 28 59 45L52 153V154Q52 158 57 158T64 155Q88 102 124 61T204 11V208L180 221Q140 242 116 258T76
299T59 355Q59 407 100 440T204 479V561Q204 565 208 567T218 569Q223 569 227 567T231 561V480Q259 479 289 473T341 457Q349 453 352 449T356 438L358 346Q358 342 353 341T346 343Q336 373 306 410T231 458V280L252 270Q295 248 321 231T365 189T383 128Q383
73 341 35ZM132 359T151 337T204 295V460Q169 459 151 440T132 390Q132 359 151 337ZM263 12T283 30T304 86Q304 120 285 145T231 192V9Q263 12 283 30Z" />
<glyph unicode="%" glyph-name="percent" horiz-adv-x="574" d="M94 222T58 259T21 352Q21 405 58 442T150 480Q205 480 241 442T277 350Q277 296 241 259T150 222Q94 222 58 259ZM144 -11T131 -2T118 10L436 476Q439 480 452 470T464 457L146 -9Q144 -11 131
-2ZM185 237T194 263T203 343Q203 403 188 434T144 465Q115 465 105 436T94 356Q94 237 157 237Q185 237 194 263ZM386 -5T350 32T313 125Q313 178 350 215T442 253Q497 253 532 215T568 123Q568 68 533 32T442 -5Q386 -5 350 32ZM477 10T485 36T494 116Q494 176
480 207T436 238Q408 238 397 209T386 129Q386 10 449 10Q477 10 485 36Z" />
<glyph unicode="&amp;" glyph-name="ampersand" horiz-adv-x="546" d="M546 12T546 6T544 0H415Q390 0 342 33Q279 -12 192 -12Q118 -12 80 18T41 92Q41 130 67 159T143 225Q121 255 109 280Q91 320 91 353Q91 391 112 419T167 464T240 480Q281 480 313 463T346
403Q346 376 333 356T300 320T245 281L221 266Q267 195 349 124L377 101Q399 141 399 184Q399 218 383 236T336 255Q333 255 333 261T336 267L520 268Q524 268 524 262T520 256Q494 256 482 250T465 235T452 201Q433 138 395 86Q442 52 482 33T544 12Q546 12 546
6ZM170 350T213 278Q241 303 256 329T272 386Q272 419 256 440T214 461Q194 461 182 446T170 402Q170 350 213 278ZM290 22T326 45Q295 68 264 96Q195 159 154 211Q124 174 124 131Q124 80 158 51T245 22Q290 22 326 45Z" />
<glyph unicode="&apos;" glyph-name="quotesingle" horiz-adv-x="147" d="M33 607Q32 618 62 629T115 640Q131 640 130 633L71 366Q69 364 63 363T56 365L33 607Z" />
<glyph unicode="(" glyph-name="parenleft" horiz-adv-x="309" d="M51 446T110 559T274 725Q276 726 278 724T278 719Q211 649 180 546T149 304Q149 166 180 63T278 -111Q280 -112 278 -115T274 -117Q169 -63 110 49T51 304Q51 446 110 559Z" />
<glyph unicode=")" glyph-name="parenright" horiz-adv-x="309" d="M258 162T199 49T35 -117Q33 -118 31 -116T31 -111Q98 -41 129 62T160 304Q160 442 129 545T31 719Q29 720 31 723T35 725Q140 671 199 559T258 304Q258 162 199 49Z" />
<glyph unicode="*" glyph-name="asterisk" horiz-adv-x="448" d="M209 657Q208 668 243 678T302 689Q313 689 312 685L236 529Q235 526 231 526T226 529L209 657ZM76 535Q66 536 66 569Q66 594 71 619T81 641L207 520Q209 519 208 515T204 511L76 535ZM250 504Q248
504 247 508T248 513L364 569Q373 573 389 551T418 505T424 480L250 504ZM151 368T142 368Q129 368 106 377T66 396T53 409L206 491L208 492Q211 492 213 490T215 485L152 372Q151 368 142 368ZM232 481Q231 483 235 486T241 488L330 393Q336 387 321 365T285 324T264
311L232 481Z" />
<glyph unicode="+" glyph-name="plus" horiz-adv-x="398" d="M366 247T367 240T369 225Q369 216 368 209T364 202H222V60Q222 58 214 57T196 55Q176 55 176 58V202H34Q32 202 31 209T29 226Q29 234 30 240T33 247H176V389Q176 391 183 392T199 394Q208 394 215
393T222 389V247H364Q366 247 367 240Z" />
<glyph unicode="," glyph-name="comma" horiz-adv-x="222" d="M134 94T153 69T172 -4Q172 -48 153 -85T95 -159Q94 -160 92 -160Q89 -160 87 -157T87 -152Q136 -102 136 -34Q136 -6 126 7Q117 -8 91 -8Q69 -8 56 5T43 42Q43 67 58 80T101 94Q134 94 153 69Z" />
<glyph unicode="-" glyph-name="hyphen" horiz-adv-x="282" d="M30 199T29 208T27 227Q27 249 30 250L244 285Q246 286 247 278T249 261Q249 252 248 244T244 235L32 200Q30 199 29 208Z" />
<glyph unicode="." glyph-name="period" horiz-adv-x="204" d="M78 -11T63 4T48 44Q48 68 63 82T103 97Q129 97 143 83T157 44Q157 18 143 4T103 -11Q78 -11 63 4Z" />
<glyph unicode="/" glyph-name="slash" horiz-adv-x="348" d="M69 -168T47 -162T26 -152L278 730Q280 734 301 728T322 717L71 -164Q69 -168 47 -162Z" />
<glyph unicode="0" glyph-name="zero" horiz-adv-x="547" d="M206 -13T152 18T68 106T37 236Q37 307 67 362T152 447T276 478Q344 478 397 447T480 361T510 233Q510 161 480 105T397 18T275 -13Q206 -13 152 18ZM347 6T377 63T407 221Q407 300 388 354T336 434T265
460Q205 460 171 400T137 243Q137 174 155 121T208 37T287 6Q347 6 377 63Z" />
<glyph unicode="1" glyph-name="one" horiz-adv-x="344" d="M50 0T50 6T53 12Q88 12 105 17T129 37T136 81V353Q136 384 129 398T104 412Q87 412 53 398L51 397Q47 397 45 402T47 408L211 480H213Q216 480 218 478T220 473V81Q220 50 225 36T248 17T303 12Q305
12 305 6T303 0Q270 0 252 1L178 2L105 1Q86 0 53 0Q50 0 50 6Z" />
<glyph unicode="2" glyph-name="two" horiz-adv-x="449" d="M132 112T178 164T252 264T281 356Q281 397 258 426T190 456Q144 456 114 422T58 323Q58 321 54 321Q51 321 48 322T46 325L88 490Q89 492 94 491T99 488Q98 483 98 476Q98 458 114 458Q126 458 147
466Q175 474 192 477T233 481Q297 481 336 447T375 357Q375 323 359 295T318 242T245 179Q168 117 129 77Q122 70 133 70Q265 70 315 73T384 86T410 125Q411 128 416 127T421 124L410 11Q410 7 408 4T401 0H43Q38 0 36 4T36 12Q132 112 178 164Z" />
<glyph unicode="3" glyph-name="three" horiz-adv-x="444" d="M305 218T346 180T388 85Q388 11 303 -54T53 -157Q49 -158 48 -152T49 -145Q179 -113 234 -53T290 74Q290 123 262 158T181 194Q149 194 124 184L122 183Q118 183 116 187T117 193Q146 212 202 218Q239
253 253 281T267 345Q267 392 243 422T174 453Q123 453 91 426T41 335Q41 333 36 333Q33 333 31 334T29 337L68 489Q68 490 72 490Q82 490 80 487L78 475Q78 465 83 461T95 456Q102 456 113 459T129 464Q174 481 215 481Q275 481 317 451T359 371Q359 331 328 294T234
219Q305 218 346 180Z" />
<glyph unicode="4" glyph-name="four" horiz-adv-x="480" d="M443 47T443 27Q443 17 442 9T438 1L366 4V-133Q366 -143 358 -147L292 -180L287 -182Q283 -182 283 -174V6Q213 8 22 8Q17 8 15 12T15 20L351 479Q352 481 357 481Q366 481 366 474V45Q389 45 439
47Q443 47 443 27ZM167 41T283 43V335L73 48Q69 41 78 41Q167 41 283 43Z" />
<glyph unicode="5" glyph-name="five" horiz-adv-x="433" d="M379 275T379 111Q379 33 307 -29T67 -158H66Q62 -158 60 -154T61 -147Q182 -88 231 -30T281 94Q281 168 226 208T67 249Q62 249 59 252T57 261L89 439Q90 446 91 447T102 450Q240 465 287 471T348
483T367 505Q369 508 374 508T378 503L358 402Q354 390 349 387T330 384L118 379Q106 379 103 365L87 278Q379 275 379 111Z" />
<glyph unicode="6" glyph-name="six" horiz-adv-x="501" d="M395 294T429 257T463 166Q463 115 436 74T362 10T254 -13Q196 -13 149 19T76 109T49 240Q49 328 90 406T213 539T406 608Q409 609 410 604T408 598Q323 580 265 529T178 408T149 260Q149 195 166 137T213
44T283 9Q324 9 343 43T362 140Q362 198 342 230T284 263Q263 263 246 255T210 226L208 225Q204 225 201 228T199 233Q221 263 254 278T327 294Q395 294 429 257Z" />
<glyph unicode="7" glyph-name="seven" horiz-adv-x="476" d="M224 -120T211 -127L119 -158Q117 -159 114 -156T112 -151L386 383Q389 390 381 390Q214 390 153 386T74 370T47 322Q46 319 42 319Q39 319 37 320T35 324L75 495Q76 497 82 497T87 494Q86 490 86
484Q86 474 95 471T134 468H434Q439 468 441 464T442 455L232 -103Q224 -120 211 -127Z" />
<glyph unicode="8" glyph-name="eight" horiz-adv-x="571" d="M398 338T431 316T487 260T510 180Q510 126 478 82T393 12T276 -13Q213 -13 164 12T88 80T61 170Q61 226 96 273T187 353Q152 377 133 406T113 473Q113 517 139 547T205 593T288 609Q335 609 371 593T426
550T445 495Q445 456 417 421T344 367Q398 338 431 316ZM236 591T218 569T200 511Q200 467 232 438T327 376Q354 409 354 472Q354 521 330 556T266 591Q236 591 218 569ZM354 10T384 44T415 134Q415 178 394 210T341 263T259 312Q237 322 211 338Q157 285 157 198Q157
147 175 104T228 36T305 10Q354 10 384 44Z" />
<glyph unicode="9" glyph-name="nine" horiz-adv-x="501" d="M113 173T80 214T46 312Q46 361 71 399T142 458T244 480Q304 480 353 449T429 361T457 232Q457 142 414 59T289 -81T94 -153H93Q90 -153 89 -149T91 -143Q176 -125 236 -71T327 58T358 212Q358 276
341 332T294 423T223 458Q147 458 147 337Q147 276 166 240T222 204Q243 204 259 212T297 240Q298 241 300 241Q303 241 305 238T307 233Q285 204 252 189T179 173Q113 173 80 214Z" />
<glyph unicode=":" glyph-name="colon" horiz-adv-x="204" d="M78 328T63 343T48 383Q48 407 63 421T103 436Q129 436 143 422T157 383Q157 357 143 343T103 328Q78 328 63 343ZM78 -11T63 4T48 44Q48 68 63 82T103 97Q129 97 143 83T157 44Q157 18 143 4T103
-11Q78 -11 63 4Z" />
<glyph unicode=";" glyph-name="semicolon" horiz-adv-x="225" d="M80 328T65 343T50 383Q50 407 65 421T105 436Q131 436 145 422T159 383Q159 357 145 343T105 328Q80 328 65 343ZM137 94T156 69T175 -4Q175 -48 156 -85T98 -159Q97 -160 95 -160Q92 -160 90
-157T90 -152Q139 -102 139 -34Q139 -6 129 7Q120 -8 94 -8Q72 -8 59 5T46 42Q46 67 61 80T104 94Q137 94 156 69Z" />
<glyph unicode="&lt;" glyph-name="less" horiz-adv-x="407" d="M377 115T377 92Q377 69 370 72L36 220Q31 223 31 237Q31 252 36 254L370 401Q377 405 377 382Q377 360 370 356L92 237L370 118Q377 115 377 92Z" />
<glyph unicode="=" glyph-name="equal" horiz-adv-x="468" d="M32 284T31 291T29 308Q29 316 30 322T33 329H434Q436 329 437 322T439 307Q439 298 438 291T434 284H34Q32 284 31 291ZM32 144T31 151T29 168Q29 176 30 182T33 189H434Q436 189 437 182T439 167Q439
158 438 151T434 144H34Q32 144 31 151Z" />
<glyph unicode="&gt;" glyph-name="greater" horiz-adv-x="407" d="M376 251T376 236Q376 222 371 219L37 72Q34 71 32 76T30 91Q30 100 32 108T37 117L315 236L37 355Q34 356 32 364T30 381Q30 390 32 396T37 401L371 253Q376 251 376 236Z" />
<glyph unicode="?" glyph-name="question" horiz-adv-x="336" d="M145 608T139 597T130 565Q127 539 117 522T79 504Q56 504 45 517T34 547Q34 579 71 602T164 625Q227 625 269 594T312 506Q312 468 294 443T240 386L222 371Q190 342 176 313T161 248Q161 229
167 194Q168 191 161 190T152 191Q140 218 133 252T126 311Q126 342 136 361T168 406Q191 433 203 456T215 518Q215 558 201 583T163 608Q145 608 139 597ZM126 -11T111 4T96 44Q96 68 111 82T151 97Q177 97 191 83T205 44Q205 18 191 4T151 -11Q126 -11 111 4Z"
/>
<glyph unicode="@" glyph-name="at" horiz-adv-x="726" d="M437 83T421 98T405 142Q405 158 409 173L413 193Q379 142 339 112T264 81Q240 81 224 96T208 145Q208 151 210 167Q218 221 252 272T332 355T418 387Q432 387 445 381T467 364Q490 376 496 394Q498 396
503 396Q513 396 513 393L472 169Q469 156 469 144Q469 107 506 107Q531 107 557 125T600 180T618 265Q618 331 586 386T497 473T370 506Q294 506 238 469T153 368T123 229Q123 148 157 87T253 -7T398 -40Q446 -40 484 -30T565 9H566Q569 9 571 6T571 1Q520 -42
469 -58T364 -74Q281 -74 213 -41T106 54T67 203Q67 297 114 371T238 487T404 529Q482 529 542 497T634 412T667 296Q667 239 640 190T567 112T467 83Q437 83 421 98ZM327 137T354 162T403 225T433 302Q434 308 434 319Q434 339 426 351T404 364Q367 364 333 319T287
212Q283 195 283 175Q283 137 306 137Q327 137 354 162Z" />
<glyph unicode="A" glyph-name="A" horiz-adv-x="711" d="M716 12T716 6T711 0Q692 0 650 2Q608 4 589 4Q564 4 530 2Q496 0 477 0Q473 0 473 6T477 12Q506 12 519 18T533 40Q533 55 516 91L408 310H227L150 137Q137 107 137 83Q137 48 162 30T232 12Q237 12 237
6T232 0Q214 0 180 2Q142 4 114 4Q87 4 51 2Q19 0 -2 0Q-7 0 -7 6T-2 12Q26 12 45 23T82 62T125 147L340 631Q342 634 349 634Q356 634 357 631L602 137Q637 65 660 39T711 12Q716 12 716 6ZM238 335H396L313 503L238 335Z" />
<glyph unicode="B" glyph-name="B" horiz-adv-x="583" d="M433 342T482 296T531 182Q531 130 503 88T424 21T311 -4Q282 -4 244 -1Q231 0 211 1T166 2L94 1Q75 0 42 0Q39 0 39 6T42 12Q74 12 90 17T112 37T119 81V544Q119 573 113 587T91 607T43 613Q41 613 41
619T43 625L95 624Q139 622 166 622Q194 622 225 625Q236 626 251 627T287 628Q376 628 423 594T471 498Q471 451 440 412T351 351Q433 342 482 296ZM238 608T227 595T215 542V352L257 351Q316 351 346 389T376 489Q376 546 349 577T270 608Q238 608 227 595ZM430
19T430 158Q430 234 391 280T275 326Q239 326 215 324V81Q215 58 221 45T244 26T295 19Q430 19 430 158Z" />
<glyph unicode="C" glyph-name="C" horiz-adv-x="669" d="M464 636T512 628T589 606Q598 603 600 599T604 583L616 453Q616 450 611 449T605 452Q576 530 518 571T380 612Q276 612 217 539T158 343Q158 251 190 174T280 52T409 7Q544 7 614 175Q615 179 620 178T626
174L611 46Q609 34 607 31T595 23Q508 -12 410 -12Q288 -12 207 36T88 160T49 316Q49 410 100 483T237 596T419 636Q464 636 512 628Z" />
<glyph unicode="D" glyph-name="D" horiz-adv-x="700" d="M287 -4T246 -1Q231 0 208 1T156 2L85 1Q66 0 32 0Q30 0 30 6T32 12Q66 12 81 17T103 36T109 81V544Q109 574 104 588T82 607T33 613Q31 613 31 619T33 625L86 624Q130 622 156 622Q196 622 237 625Q287
627 304 627Q406 627 485 587T607 478T651 323Q651 226 606 152T485 37T318 -4Q287 -4 246 -1ZM377 16T430 49T514 146T544 301Q544 387 516 456T435 566T314 607Q272 607 249 602T216 584T205 542V92Q205 51 226 34T308 16Q377 16 430 49Z" />
<glyph unicode="E" glyph-name="E" horiz-adv-x="547" d="M489 158T493 158Q496 158 498 157T501 154Q491 78 491 15Q491 7 488 4T476 0H42Q39 0 39 6T42 12Q76 12 91 17T112 36T118 81V544Q118 574 113 588T91 607T42 613Q39 613 39 619T42 625H458Q468 625 468
616L470 486Q470 484 465 483T458 485Q434 599 319 599H279Q243 599 228 586T213 542V338H309Q419 338 419 412Q419 415 424 415T430 412L429 325L430 278Q432 246 432 226Q432 224 426 224T420 226Q420 312 308 312H213V85Q213 52 225 39T270 26H319Q453 26 489
156Q489 158 493 158Z" />
<glyph unicode="F" glyph-name="F" horiz-adv-x="518" d="M470 486Q470 484 465 483T458 485Q434 599 319 599H279Q243 599 228 586T213 543V326H295Q407 326 407 401Q407 403 413 403T419 401L418 313Q418 282 419 267L420 215Q420 212 414 212T408 215Q408 300
293 300H213V85Q213 53 221 39T252 18T325 12Q327 12 327 6T325 0Q284 0 261 1L163 2L90 1Q71 0 37 0Q34 0 34 6T37 12Q73 12 89 17T112 36T118 81V544Q118 574 113 588T91 607T42 613Q39 613 39 619T42 625H458Q468 625 468 616L470 486Z" />
<glyph unicode="G" glyph-name="G" horiz-adv-x="717" d="M298 -12T217 30T92 144T49 306Q49 402 98 477T234 594T429 636Q476 636 523 628T599 606Q607 602 609 598T613 583L625 453Q625 450 620 449T613 452Q583 527 523 569T382 611Q272 611 213 540T154 343Q154
245 190 168T289 48T432 5Q476 5 500 14T535 49T547 126Q547 178 541 198T515 226T443 233Q437 233 437 241Q437 244 438 246T442 249Q525 244 575 244Q625 244 679 247Q681 247 682 245T684 240Q684 233 679 233Q659 234 651 227T641 196T638 116Q638 71 641 52T645
28Q645 22 643 21T633 16Q507 -12 408 -12Q298 -12 217 30Z" />
<glyph unicode="H" glyph-name="H" horiz-adv-x="762" d="M732 12T732 6T729 0Q695 0 674 1L601 2L516 1Q498 0 468 0Q465 0 465 6T468 12Q506 12 523 17T546 36T552 81V312H209V81Q209 51 215 37T238 17T294 12Q296 12 296 6T294 0Q260 0 241 1L158 2L85 1Q66
0 32 0Q30 0 30 6T32 12Q68 12 85 17T108 36T114 81V544Q114 574 108 588T85 607T33 613Q31 613 31 619T33 625L86 624Q132 622 158 622Q193 622 241 624L294 625Q296 625 296 619T294 613Q257 613 240 607T216 587T209 542V338H552V542Q552 572 546 586T523 607T468
613Q465 613 465 619T468 625L516 624Q564 622 601 622Q628 622 674 624L729 625Q732 625 732 619T729 613Q693 613 677 608T654 588T648 544V81Q648 51 654 37T676 17T729 12Q732 12 732 6Z" />
<glyph unicode="I" glyph-name="I" horiz-adv-x="339" d="M218 50T223 36T243 17T293 12Q296 12 296 6T293 0Q261 0 242 1L168 2L96 1Q77 0 44 0Q41 0 41 6T44 12Q78 12 93 17T115 36T121 81V544Q121 574 115 588T94 607T44 613Q41 613 41 619T44 625L96 624Q140
622 168 622Q199 622 243 624L293 625Q296 625 296 619T293 613Q260 613 245 607T224 587T218 542V81Q218 50 223 36Z" />
<glyph unicode="J" glyph-name="J" horiz-adv-x="333" d="M295 625T295 619T292 613Q264 613 251 607T233 587T228 542V-12Q228 -120 176 -181T28 -243Q-8 -243 -30 -229T-53 -188Q-53 -170 -41 -157T-7 -143Q15 -143 27 -155T49 -190Q56 -206 63 -214T80 -222Q106
-222 118 -186T131 -66V544Q131 574 125 588T100 607T42 613Q40 613 40 619T42 625L102 624Q150 622 178 622Q205 622 247 624L292 625Q295 625 295 619Z" />
<glyph unicode="K" glyph-name="K" horiz-adv-x="653" d="M659 12T659 6T656 0H544L505 -1Q491 -1 481 5T458 27T410 90L369 145L230 327L205 301V81Q205 50 210 36T230 17T280 12Q284 12 284 6T280 0Q248 0 229 1L156 2L85 1Q66 0 32 0Q30 0 30 6T32 12Q66 12
81 17T103 36T109 81V544Q109 574 104 588T82 607T33 613Q31 613 31 619T33 625L86 624Q130 622 156 622Q186 622 230 624L280 625Q283 625 283 619T280 613Q247 613 232 607T211 587T205 542V331L401 529Q432 560 432 581Q432 596 417 604T371 613Q369 613 369
619T371 625L416 624Q460 622 496 622Q535 622 575 624L618 625Q621 625 621 619T618 613Q574 613 522 589T426 523L298 395L445 200Q513 107 547 69T602 21T656 12Q659 12 659 6Z" />
<glyph unicode="L" glyph-name="L" horiz-adv-x="541" d="M204 85Q204 58 208 46T226 30T268 26H328Q399 26 448 65T513 172Q514 175 519 175T524 171Q515 77 515 15Q515 7 512 4T500 0H32Q30 0 30 6T32 12Q66 12 81 17T102 36T108 81V544Q108 574 103 588T81
607T32 613Q30 613 30 619T32 625L83 624Q127 622 155 622Q185 622 229 624L279 625Q282 625 282 619T279 613Q246 613 231 608T210 588T204 543V85Z" />
<glyph unicode="M" glyph-name="M" horiz-adv-x="850" d="M828 12T828 6T826 0Q793 0 773 1L701 2L631 1Q613 0 580 0Q578 0 578 6T580 12Q624 12 639 22T654 64L653 81L633 505L420 7Q418 3 412 3Q407 3 403 7L153 501L144 121Q143 68 164 40T229 12Q232 12 232
6T229 0Q202 0 187 1L132 2L73 1Q58 0 31 0Q28 0 28 6T31 12Q72 12 94 40T118 121L127 551Q109 583 88 598T38 613Q35 613 35 619T38 625L81 624Q94 623 115 623L162 624Q170 625 182 625Q195 625 203 616T228 573L448 144L647 600Q653 614 660 619T677 625Q684
625 695 624T722 623L776 624Q789 625 815 625Q817 625 817 619T815 613Q767 613 746 596T726 538L749 81Q751 50 756 36T777 17T826 12Q828 12 828 6Z" />
<glyph unicode="N" glyph-name="N" horiz-adv-x="732" d="M719 625T719 619T717 613Q677 613 655 585T633 503V-14Q633 -17 628 -18T621 -17L152 528V121Q152 68 173 40T234 12Q236 12 236 6T234 0Q207 0 193 1L140 2L81 1Q65 0 35 0Q32 0 32 6T35 12Q78 12 101
40T125 121V559Q97 589 75 601T28 613Q26 613 26 619T28 625L68 624Q81 623 105 623L169 624Q181 625 198 625Q206 625 210 621T222 605Q239 582 247 573L606 149V503Q606 556 585 584T525 613Q523 613 523 619T525 625L566 624Q598 622 619 622Q639 622 673 624L717
625Q719 625 719 619Z" />
<glyph unicode="O" glyph-name="O" horiz-adv-x="766" d="M273 -12T201 31T89 149T49 312Q49 415 101 488T234 599T401 636Q496 636 568 592T678 474T717 319Q717 228 669 152T541 32T366 -12Q273 -12 201 31ZM460 12T507 44T582 140T610 290Q610 382 580 455T493
569T360 610Q263 610 210 541T156 348Q156 253 187 176T274 56T400 12Q460 12 507 44Z" />
<glyph unicode="P" glyph-name="P" horiz-adv-x="550" d="M208 53T215 39T244 18T312 12Q315 12 315 6T312 0Q271 0 248 1L161 2L89 1Q70 0 37 0Q34 0 34 6T37 12Q71 12 86 17T106 36T112 81V544Q112 574 107 588T86 607T37 613Q34 613 34 619T37 625L89 624Q133
622 160 622Q183 622 216 625Q228 626 248 627T297 628Q396 628 453 586T511 457Q511 394 479 350T396 284T292 262Q264 262 245 267Q242 267 242 272Q242 275 243 278T247 280Q263 276 282 276Q334 276 370 319T406 442Q406 521 369 564T267 608Q243 608 231 603T213
585T208 542V85Q208 53 215 39Z" />
<glyph unicode="Q" glyph-name="Q" horiz-adv-x="766" d="M748 -172T749 -177T749 -183Q704 -195 667 -195Q593 -195 513 -147T374 -12H366Q273 -12 201 31T89 149T49 312Q49 415 101 488T234 599T401 636Q496 636 568 592T678 474T717 319Q717 248 687 185T604
76T483 7Q523 -72 587 -123T710 -175Q727 -175 745 -173Q748 -172 749 -177ZM156 253T187 176T274 56T400 12Q460 12 507 44T582 140T610 290Q610 382 580 455T493 569T360 610Q263 610 210 541T156 348Q156 253 187 176Z" />
<glyph unicode="R" glyph-name="R" horiz-adv-x="690" d="M702 12T702 6T699 0H538Q515 0 453 83T300 317Q284 314 267 314Q230 314 215 315V81Q215 50 220 36T241 17T291 12Q293 12 293 6T291 0Q258 0 240 1L166 2L94 1Q75 0 42 0Q39 0 39 6T42 12Q76 12 91 17T113
36T119 81V544Q119 574 114 588T92 607T43 613Q41 613 41 619T43 625L95 624Q139 622 166 622Q196 622 229 625Q241 626 258 627T295 628Q384 628 432 595T480 502Q480 455 452 413T379 345Q461 219 516 148T615 44T699 12Q702 12 702 6ZM239 339T273 339Q333 339
357 366T381 465Q381 546 354 577T278 609Q242 609 229 595T215 542V343Q239 339 273 339Z" />
<glyph unicode="S" glyph-name="S" horiz-adv-x="507" d="M164 482T182 454T228 404T303 354Q354 322 383 299T433 243T454 164Q454 113 428 73T353 11T242 -12Q200 -12 156 -1T88 26Q79 32 78 45L72 197V198Q72 202 77 202T83 199Q116 116 158 63T267 10Q310
10 339 33T368 112Q368 156 349 189T301 244T223 298Q175 329 148 350T102 403T83 477Q83 529 112 565T187 618T285 636Q319 636 353 630T410 613Q419 610 422 606T425 594L428 458Q428 455 423 454T416 456Q396 517 363 566T262 616Q217 616 191 590T164 519Q164
482 182 454Z" />
<glyph unicode="T" glyph-name="T" horiz-adv-x="640" d="M150 604T111 567T50 453Q50 451 45 451T39 454Q43 493 48 554T53 647Q53 652 58 652T64 647Q64 625 120 625Q206 622 321 622Q380 622 446 624L514 625Q552 625 569 630T592 650Q593 654 598 654T603
650Q600 619 597 556T594 454Q594 451 589 451T582 454Q572 531 535 567T435 604Q407 604 394 599T376 582T371 542V81Q371 50 377 36T401 17T458 12Q461 12 461 6T458 0Q423 0 403 1L321 2L243 1Q222 0 185 0Q183 0 183 6T185 12Q224 12 242 17T267 36T274 81V544Q274
570 269 582T251 599T211 604Q150 604 111 567Z" />
<glyph unicode="U" glyph-name="U" horiz-adv-x="701" d="M571 555T548 584T480 613Q478 613 478 619T480 625L526 624Q564 622 586 622Q604 622 640 624L684 625Q686 625 686 619T684 613Q645 613 624 584T602 503V223Q602 151 572 98T486 15T357 -14Q284 -14
227 14T139 96T107 222V544Q107 574 101 588T80 607T31 613Q28 613 28 619T31 625L83 624Q127 622 154 622Q184 622 228 624L278 625Q281 625 281 619T278 613Q245 613 230 607T208 587T202 542V257Q202 138 251 80T390 21Q475 21 523 73T571 222V503Q571 555 548
584Z" />
<glyph unicode="V" glyph-name="V" horiz-adv-x="662" d="M669 625T669 619T666 613Q630 613 600 586T551 508L357 1Q356 -3 346 -3Q336 -3 335 1L82 542Q64 579 46 596T3 613Q0 613 0 619T3 625L29 624Q51 622 79 622Q149 622 205 624Q221 625 246 625Q249 625
249 619T246 613Q183 613 183 569Q183 552 193 531L379 133L525 512Q534 536 534 555Q534 583 516 598T460 613Q457 613 457 619T460 625L508 624Q546 622 578 622Q597 622 625 624L666 625Q669 625 669 619Z" />
<glyph unicode="W" glyph-name="W" horiz-adv-x="918" d="M925 625T925 619T923 613Q887 613 857 586T807 508L613 1Q612 -3 602 -3Q592 -3 591 1L462 277L357 1Q356 -3 346 -3Q336 -3 335 1L82 542Q61 586 47 599T3 613Q0 613 0 619T3 625L29 624Q51 622 79 622Q135
622 181 624Q195 625 216 625Q219 625 219 619T216 613Q189 613 178 608T166 587Q166 570 184 531L375 124L447 310L338 542Q320 579 305 596T268 613Q265 613 265 619T268 625L292 624Q314 622 336 622Q383 622 419 624Q429 625 445 625Q448 625 448 619T445 613Q429
613 423 610T416 597Q416 581 440 531L494 417L530 512Q548 559 548 583Q548 613 518 613Q515 613 515 619T518 625Q527 625 539 624T583 622Q601 622 625 624L664 625Q666 625 666 619T664 613Q630 613 604 588T557 508L509 384L632 124L778 505Q788 531 788 554Q788
582 772 597T725 613Q722 613 722 619T725 625L769 624Q805 622 834 622Q854 622 880 624L923 625Q925 625 925 619Z" />
<glyph unicode="X" glyph-name="X" horiz-adv-x="649" d="M644 12T644 6T641 0Q613 0 598 1L539 2L458 1Q440 0 407 0Q404 0 404 6T407 12Q446 12 446 29Q446 38 437 51L295 269L195 127Q161 78 161 50Q161 32 175 22T216 12Q218 12 218 6T216 0Q184 0 167 1L95
2L49 1Q37 0 9 0Q6 0 6 6T9 12Q41 12 82 41T168 132L283 288L122 535Q95 577 70 595T15 613Q12 613 12 619T15 625L56 624Q84 622 97 622Q131 622 183 624L238 625Q240 625 240 619T238 613Q218 613 208 610T198 596Q198 588 207 573L344 363L437 495Q472 545 472
575Q472 613 418 613Q416 613 416 619T418 625L467 624Q507 622 539 622Q559 622 585 624L625 625Q628 625 628 619T625 613Q592 613 550 583T464 490L356 344L526 83Q551 45 578 29T641 12Q644 12 644 6Z" />
<glyph unicode="Y" glyph-name="Y" horiz-adv-x="616" d="M623 625T623 619T621 613Q588 613 546 579T471 490L357 305V81Q357 50 362 36T383 17T433 12Q436 12 436 6T433 0Q400 0 382 1L309 2L237 1Q217 0 184 0Q182 0 182 6T184 12Q218 12 233 17T255 36T261
81V287L109 519Q75 572 51 592T3 613Q0 613 0 619T3 625L36 624Q58 622 68 622Q102 622 164 624L226 625Q228 625 228 619T226 613Q185 613 185 585Q185 571 197 553L342 330L444 497Q469 538 469 569Q469 613 414 613Q412 613 412 619T414 625L466 624Q508 622
543 622Q560 622 584 624L621 625Q623 625 623 619Z" />
<glyph unicode="Z" glyph-name="Z" horiz-adv-x="602" d="M424 600Q427 605 427 606T419 608Q285 608 223 601T127 568T67 484Q67 483 63 483Q54 483 55 487L95 655Q95 656 99 656Q109 656 107 653Q106 650 106 645Q106 633 117 629T164 625H529Q534 625 536 620T536
612L176 27Q172 22 173 21T180 19H400Q458 19 501 55T554 147Q555 150 560 150T565 147L551 8Q551 5 549 2T542 -2Q393 0 64 0Q59 0 57 4T58 13L424 600Z" />
<glyph unicode="[" glyph-name="bracketleft" horiz-adv-x="274" d="M74 715Q74 722 75 723T83 725H236Q239 725 239 719T236 713Q202 713 186 707T165 687T159 642V-34Q159 -64 164 -78T186 -99T236 -105Q239 -105 239 -111T236 -117H83Q77 -117 76 -115T74 -106V715Z" />
<glyph unicode="\" glyph-name="backslash" horiz-adv-x="348" d="M26 717Q24 722 46 728T70 730L322 -152Q323 -156 301 -162T277 -164L26 717Z" />
<glyph unicode="]" glyph-name="bracketright" horiz-adv-x="274" d="M200 -113T199 -115T191 -117H38Q35 -117 35 -111T38 -105Q72 -105 88 -99T109 -79T115 -34V642Q115 672 110 686T88 707T38 713Q35 713 35 719T38 725H191Q197 725 198 724T200 715V-106Q200
-113 199 -115Z" />
<glyph unicode="^" glyph-name="asciicircum" horiz-adv-x="392" d="M333 218Q333 215 330 214T324 214L196 361L68 214Q67 213 65 213Q62 213 60 215T58 219L185 468Q186 473 196 473Q206 473 207 468L333 219V218Z" />
<glyph unicode="_" glyph-name="underscore" horiz-adv-x="398" d="M32 -79T31 -71T29 -54Q29 -46 30 -40T33 -33H364Q366 -33 367 -40T369 -56Q369 -65 368 -72T364 -79H34Q32 -79 31 -71Z" />
<glyph unicode="`" glyph-name="grave" horiz-adv-x="274" d="M134 490T24 517Q14 519 34 529T81 547T113 551Q143 529 158 517Q219 471 251 450Q253 449 253 446Q253 443 251 441T247 440Q134 490 24 517Z" />
<glyph unicode="a" glyph-name="a" horiz-adv-x="557" d="M561 12T561 6T557 0Q537 0 495 2Q453 4 435 4Q419 4 385 2Q353 0 340 0Q336 0 336 6T340 12Q364 12 374 18T385 37Q385 51 370 84L307 219H183L143 123Q126 81 126 59Q126 34 143 23T197 12Q202 12 202
6T197 0Q183 0 157 2Q129 4 105 4Q80 4 46 2Q16 0 -3 0Q-8 0 -8 6T-3 12Q28 12 47 21T82 54T120 132L268 483Q270 487 274 487T279 483L440 137Q465 83 481 57T514 22T557 12Q561 12 561 6ZM192 242H296L241 360L192 242Z" />
<glyph unicode="b" glyph-name="b" horiz-adv-x="516" d="M395 255T435 226T476 142Q476 99 452 66T383 15T283 -4Q256 -4 220 -1Q206 0 186 1T142 2L81 1Q63 0 32 0Q30 0 30 6T32 12Q63 12 77 17T96 36T101 81V387Q101 417 96 431T77 450T33 456Q31 456 31 462T33
468L81 467Q121 465 142 465Q171 465 203 468Q214 469 234 470T270 471Q343 471 384 446T426 373Q426 335 398 306T319 259Q395 255 435 226ZM221 458T209 453T192 432T187 385V260Q204 259 233 259Q271 259 293 266T326 292T338 350Q338 458 245 458Q221 458 209
453ZM384 12T384 118Q384 241 226 241Q200 241 187 240V81Q187 43 203 28T265 12Q384 12 384 118Z" />
<glyph unicode="c" glyph-name="c" d="M346 480T389 472T461 451Q468 448 470 445T472 434L479 331Q479 328 474 327T467 330Q436 396 394 428T294 460Q220 460 178 402T135 251Q135 189 154 133T215 42T318 7Q373 7 410 39T477 140Q478 144 483 143T488 139L478
33Q477 25 475 22T464 15Q387 -12 304 -12Q209 -12 148 26T60 121T32 236Q32 304 68 360T168 448T309 480Q346 480 389 472Z" />
<glyph unicode="d" glyph-name="d" horiz-adv-x="567" d="M249 -4T214 -1Q202 0 184 1T143 2L81 1Q63 0 32 0Q30 0 30 6T32 12Q63 12 77 17T96 36T101 81V387Q101 417 96 431T77 450T33 456Q31 456 31 462T33 468L81 467Q121 465 143 465Q173 465 205 468Q245
470 265 470Q349 470 410 440T503 357T535 237Q535 168 502 113T411 27T277 -4Q249 -4 214 -1ZM345 15T390 69T435 226Q435 324 391 388T257 452Q219 452 203 438T187 385V92Q187 50 202 33T265 15Q345 15 390 69Z" />
<glyph unicode="e" glyph-name="e" horiz-adv-x="464" d="M416 136T421 136T426 133Q419 61 419 15Q419 7 416 4T404 0H32Q30 0 30 6T32 12Q62 12 76 17T95 36T100 81V387Q100 417 95 431T76 450T32 456Q30 456 30 462T32 468H386Q396 468 396 460L397 398Q398
379 398 350Q398 347 393 347T386 350Q373 395 337 425T260 455H246Q220 455 208 450T191 430T186 386V250Q269 252 305 256T346 261Q349 261 350 254T352 239Q352 230 351 222T346 214Q341 214 305 219T186 227V85Q186 56 190 42T207 22T246 16H269Q314 16 355
49T415 133Q416 136 421 136Z" />
<glyph unicode="f" glyph-name="f" horiz-adv-x="423" d="M397 398Q398 379 398 350Q398 347 393 347T386 350Q353 455 260 455H246Q220 455 208 450T191 430T186 386V239Q265 240 300 244T342 248Q345 248 346 241T348 226Q348 217 347 209T342 201Q337 201 302
207T186 215V85Q186 54 192 39T218 18T278 12Q281 12 281 6T278 0Q241 0 220 1L143 2L81 1Q63 0 32 0Q30 0 30 6T32 12Q62 12 76 17T95 36T100 81V387Q100 417 95 431T76 450T32 456Q30 456 30 462T32 468H386Q396 468 396 460L397 398Z" />
<glyph unicode="g" glyph-name="g" horiz-adv-x="553" d="M213 -12T154 21T63 110T32 226Q32 304 67 361T168 449T321 480Q364 480 403 472T470 449Q476 445 478 441T481 427L487 333Q487 330 482 330T475 332Q412 460 297 460Q220 460 176 402T131 239Q131 171
153 119T218 37T317 8Q361 8 381 17T408 50T415 126Q415 152 411 162T392 176T341 180Q335 180 335 188Q335 191 336 193T340 196Q392 192 445 192Q469 192 525 194Q527 194 528 192T530 187Q530 180 525 180Q508 181 502 177T493 161T491 116Q491 71 493 53T496
28Q496 22 494 21T484 16Q417 -12 293 -12Q213 -12 154 21Z" />
<glyph unicode="h" glyph-name="h" horiz-adv-x="629" d="M599 12T599 6T596 0Q566 0 549 1L485 2L421 1Q404 0 374 0Q371 0 371 6T374 12Q404 12 417 17T436 36T441 81V224H187V81Q187 51 192 37T211 17T255 12Q257 12 257 6T255 0Q225 0 208 1L143 2L81 1Q63
0 32 0Q30 0 30 6T32 12Q62 12 76 17T96 36T101 81V387Q101 417 96 431T77 450T33 456Q31 456 31 462T33 468L81 467Q121 465 143 465Q169 465 209 467L255 468Q257 468 257 462T255 456Q226 456 212 450T192 430T187 385V248H441V385Q441 415 436 429T417 450T374
456Q371 456 371 462T374 468L420 467Q460 465 485 465Q509 465 549 467L596 468Q599 468 599 462T596 456Q566 456 552 451T533 431T528 387V81Q528 51 533 37T552 17T596 12Q599 12 599 6Z" />
<glyph unicode="i" glyph-name="i" horiz-adv-x="300" d="M194 51T199 37T218 17T262 12Q264 12 264 6T262 0Q232 0 215 1L149 2L87 1Q69 0 38 0Q36 0 36 6T38 12Q69 12 83 17T102 36T107 81V387Q107 417 102 431T83 450T38 456Q36 456 36 462T38 468L87 467Q125
465 149 465Q176 465 216 467L262 468Q264 468 264 462T262 456Q233 456 219 450T199 430T194 385V81Q194 51 199 37Z" />
<glyph unicode="j" glyph-name="j" horiz-adv-x="271" d="M100 387Q100 417 96 431T79 450T40 456Q38 456 38 462T40 468L84 467Q122 465 143 465Q169 465 203 467L243 468Q246 468 246 462T243 456Q218 456 207 450T191 430T186 385V69Q186 -6 173 -52T126 -128T31
-181Q29 -182 27 -177T26 -171Q61 -150 80 -100T100 22V387Z" />
<glyph unicode="k" glyph-name="k" horiz-adv-x="549" d="M559 12T559 6T556 0H432Q402 0 396 3T361 49T291 145L218 241L187 210V81Q187 51 192 37T211 17T255 12Q257 12 257 6T255 0Q225 0 208 1L143 2L81 1Q63 0 32 0Q30 0 30 6T32 12Q62 12 76 17T96 36T101
81V387Q101 417 96 431T77 450T33 456Q31 456 31 462T33 468L81 467Q121 465 143 465Q169 465 209 467L255 468Q257 468 257 462T255 456Q226 456 212 450T192 430T187 385V244L321 378Q362 419 362 438Q362 456 326 456Q323 456 323 462T326 468L365 467Q401 465
435 465Q478 465 510 467Q519 468 532 468Q535 468 535 462T532 456Q495 456 440 431T343 364L279 301L359 198Q425 111 457 74T509 25T556 12Q559 12 559 6Z" />
<glyph unicode="l" glyph-name="l" horiz-adv-x="466" d="M183 85Q183 58 188 44T208 25T252 19H282Q337 19 379 55T439 152Q440 154 445 154T451 151Q444 99 444 15Q444 7 441 4T429 0H32Q30 0 30 6T32 12Q60 12 73 17T90 36T95 81V387Q95 417 91 431T73 450T32
456Q30 456 30 462T32 468L80 467Q120 465 142 465Q168 465 208 467L253 468Q256 468 256 462T253 456Q222 456 208 451T188 431T183 386V85Z" />
<glyph unicode="m" glyph-name="m" horiz-adv-x="686" d="M658 12T658 6T656 0Q629 0 613 1L553 2L485 1Q468 0 438 0Q436 0 436 6T438 12Q469 12 484 17T504 37T508 81L492 399L331 7Q329 3 324 3Q318 3 316 7L126 378L120 121Q119 64 136 38T192 12Q195 12 195
6T192 0Q169 0 156 1L110 2L64 1Q50 0 25 0Q23 0 23 6T25 12Q64 12 81 38T100 121L106 411Q75 456 29 456Q27 456 27 462T29 468L103 467L160 468Q174 468 183 459T208 416L359 122L490 443Q494 454 503 461T521 468L580 467L653 468Q655 468 655 462T653 456Q613
456 596 443T582 389L598 81Q600 50 604 36T619 17T656 12Q658 12 658 6Z" />
<glyph unicode="n" glyph-name="n" horiz-adv-x="566" d="M552 468T552 462T549 456Q510 456 492 430T474 346V-11Q474 -13 469 -14T462 -13L117 386Q115 388 115 388V121Q115 64 132 38T188 12Q190 12 190 6T188 0Q164 0 151 1L106 2L60 1Q46 0 21 0Q19 0 19
6T21 12Q60 12 77 38T95 121V410Q70 435 52 445T15 456Q13 456 13 462T15 468L71 467Q80 467 93 467T150 468Q158 468 164 463T180 443L201 416L454 124V346Q454 404 437 430T382 456Q379 456 379 462T382 468L419 467Q447 465 464 465Q481 465 511 467L549 468Q552
468 552 462Z" />
<glyph unicode="o" glyph-name="o" horiz-adv-x="570" d="M204 -12T149 21T63 111T32 233Q32 310 71 366T173 451T300 480Q371 480 425 446T508 356T538 240Q538 173 503 115T408 23T275 -12Q204 -12 149 21ZM362 10T400 65T439 217Q439 283 418 337T358 424T266
456Q201 456 166 406T131 262Q131 191 152 134T212 43T299 10Q362 10 400 65Z" />
<glyph unicode="p" glyph-name="p" horiz-adv-x="468" d="M186 54T193 39T219 18T278 12Q281 12 281 6T278 0Q241 0 220 1L143 2L81 1Q63 0 32 0Q30 0 30 6T32 12Q61 12 75 17T94 37T100 81V387Q100 416 95 430T75 450T32 456Q30 456 30 462T32 468L80 467Q120
465 142 465Q169 465 199 468Q210 469 225 470T262 471Q434 471 434 356Q434 306 410 272T347 221T265 204Q244 204 235 207Q232 207 232 213Q232 220 239 220Q251 218 258 218Q294 218 315 247T337 334Q337 454 239 454Q210 454 198 441T186 385V85Q186 54 193
39Z" />
<glyph unicode="q" glyph-name="q" horiz-adv-x="570" d="M605 -156T606 -161T606 -167Q570 -179 527 -179Q458 -179 392 -136T277 -12H275Q204 -12 149 21T63 111T32 233Q32 310 71 366T173 451T300 480Q371 480 425 446T508 356T538 240Q538 163 492 99T372
6Q405 -66 460 -113T570 -160Q589 -160 602 -157Q605 -156 606 -161ZM131 191T152 134T212 43T299 10Q362 10 400 65T439 217Q439 283 418 337T358 424T266 456Q201 456 166 406T131 262Q131 191 152 134Z" />
<glyph unicode="r" glyph-name="r" horiz-adv-x="542" d="M561 12T561 6T558 0H410Q394 0 353 60T256 225Q235 222 213 222Q197 222 189 223V81Q189 51 193 37T211 17T255 12Q257 12 257 6T255 0Q226 0 209 1L143 2L81 1Q63 0 32 0Q30 0 30 6T32 12Q62 12 76 17T95
36T100 81V387Q100 417 95 431T76 450T33 456Q31 456 31 462T33 468L82 467Q120 465 143 465Q162 465 178 466T206 468Q239 471 266 471Q340 471 378 446T417 374Q417 335 393 301T327 247Q381 156 420 106T491 34T558 12Q561 12 561 6ZM198 240T220 240Q279 240
302 267T325 347Q325 453 242 453Q209 453 199 440T189 385V241Q198 240 220 240Z" />
<glyph unicode="s" glyph-name="s" horiz-adv-x="412" d="M134 351T163 326T250 271Q293 248 318 232T362 189T380 128Q380 89 358 57T295 7T204 -12Q161 -12 122 -2T64 24Q56 28 55 45L49 153V154Q49 158 54 158T61 155Q88 95 129 52T221 9Q252 9 274 28T296
85Q296 131 266 159T176 219Q136 241 113 257T73 298T56 355Q56 413 104 446T222 480Q252 480 283 474T338 457Q346 453 349 449T353 438L355 346Q355 342 350 341T343 343Q337 362 319 389T272 438T205 460Q170 460 152 441T134 392Q134 351 163 326Z" />
<glyph unicode="t" glyph-name="t" horiz-adv-x="500" d="M70 450T36 332Q35 329 30 329T25 332Q29 363 33 413T38 490Q38 495 43 495T49 490Q49 477 64 474T102 470Q188 468 253 468L340 469Q357 470 386 470Q424 470 443 474T467 494Q468 497 473 497T479 494Q479
488 477 464Q476 439 474 402T471 332Q471 329 465 329T459 332Q454 386 424 418T348 450Q318 450 308 437T297 387V81Q297 51 302 37T324 17T375 12Q378 12 378 6T375 0Q343 0 324 1L251 2L181 1Q162 0 128 0Q126 0 126 6T128 12Q163 12 179 17T201 36T207 81V389Q207
416 204 428T191 445T159 450Q70 450 36 332Z" />
<glyph unicode="u" glyph-name="u" horiz-adv-x="571" d="M466 411T447 433T383 456Q380 456 380 462T383 468L424 467Q456 465 477 465Q493 465 523 467L563 468Q565 468 565 462T563 456Q523 456 506 434T489 358V184Q489 91 438 39T299 -13Q243 -13 196 9T121
74T93 174V387Q93 417 88 431T70 450T26 456Q23 456 23 462T26 468L73 467Q111 465 135 465Q161 465 201 467L247 468Q249 468 249 462T247 456Q217 456 203 450T184 430T178 385V200Q178 110 219 68T326 25Q391 25 428 65T466 182V358Q466 411 447 433Z" />
<glyph unicode="v" glyph-name="v" horiz-adv-x="510" d="M518 468T518 462T516 456Q457 456 425 372L281 1Q280 -3 270 -3Q260 -3 259 1L75 385Q55 427 40 441T-1 456Q-4 456 -4 462T-1 468L41 467Q75 465 104 465Q130 465 168 467L211 468Q213 468 213 462T211
456Q159 456 159 425Q159 414 167 395L301 114L400 378Q408 399 408 413Q408 456 344 456Q341 456 341 462T344 468L379 467Q411 465 439 465Q455 465 479 467L516 468Q518 468 518 462Z" />
<glyph unicode="w" glyph-name="w" horiz-adv-x="736" d="M743 468T743 462T741 456Q707 456 683 433T635 355L497 1Q496 -3 486 -3Q476 -3 475 1L372 216L281 1Q280 -3 270 -3Q260 -3 259 1L75 385Q55 427 40 441T-1 456Q-4 456 -4 462T-1 468Q14 468 42 466L84
465Q116 465 148 467Q158 468 173 468Q175 468 175 462T173 456Q151 456 151 439Q151 424 165 395L305 110L360 242L291 385Q270 428 259 442T229 456Q227 456 227 462T229 468L259 467Q289 465 307 465Q323 465 349 467L376 468Q378 468 378 462T376 456Q367 456
364 454T360 447Q360 437 381 395L414 327L433 378Q446 413 446 432Q446 456 424 456Q422 456 422 462T424 468Q433 468 450 467T484 465Q501 465 519 467L550 468Q553 468 553 462T550 456Q512 456 493 439T451 372L425 306L519 113L610 357Q623 392 623 417Q623
436 614 446T589 456Q587 456 587 462T589 468L616 467Q638 465 655 465Q674 465 700 467L741 468Q743 468 743 462Z" />
<glyph unicode="x" glyph-name="x" horiz-adv-x="529" d="M525 12T525 6T523 0L418 2L355 1Q341 0 317 0Q314 0 314 6T317 12Q336 12 345 14T354 24Q354 31 340 51L243 197L171 93Q152 65 152 45Q152 12 200 12Q202 12 202 6T200 0Q171 0 155 1L91 2L52 1Q41 0
16 0Q14 0 14 6T16 12Q44 12 76 32T143 99L229 217L117 385Q92 423 65 439T15 456Q13 456 13 462T15 468L46 467Q68 465 77 465Q106 465 164 467L221 468Q223 468 223 462T221 456Q201 456 193 454T184 444Q184 435 197 416L286 284L346 375Q367 407 367 427Q367
456 328 456Q325 456 325 462T328 468L368 467Q402 465 428 465Q445 465 467 467L502 468Q504 468 504 462T502 456Q436 456 373 369L299 265L421 83Q446 45 473 29T523 12Q525 12 525 6Z" />
<glyph unicode="y" glyph-name="y" horiz-adv-x="493" d="M495 468T495 462T492 456Q461 456 432 433T377 366L300 230V81Q300 50 305 36T326 17T378 12Q380 12 380 6T378 0Q346 0 327 1L254 2L185 1Q165 0 131 0Q128 0 128 6T131 12Q165 12 181 17T204 36T210
81V214L99 385Q74 423 53 439T6 456Q4 456 4 462T6 468L43 467L79 465Q108 465 168 467L226 468Q228 468 228 462T226 456Q179 456 179 432Q179 421 190 404L288 251L352 367Q368 396 368 416Q368 435 356 445T320 456Q317 456 317 462T320 468L366 467Q402 465
435 465Q448 465 466 467L492 468Q495 468 495 462Z" />
<glyph unicode="z" glyph-name="z" horiz-adv-x="452" d="M301 446L304 452Q304 454 296 454Q221 454 177 444T106 410T54 339Q52 337 50 337Q47 337 44 338T42 342L81 498Q81 500 85 500Q88 500 90 499T92 496Q90 479 100 474T150 468H397Q401 468 403 464T404
455L145 25Q143 19 143 18T150 16H256Q314 16 349 46T408 144Q410 147 415 147T420 144L408 8Q408 5 406 2T399 -2L46 0Q42 0 40 4T40 13L301 446Z" />
<glyph unicode="{" glyph-name="braceleft" horiz-adv-x="289" d="M29 298T29 304T32 311Q71 317 84 376T97 529Q97 615 109 655T153 710T250 725Q254 725 254 719T250 713Q221 713 205 686T188 607Q186 485 180 435T151 357T73 305Q128 281 150 252T179 172T188
1Q189 -50 205 -77T250 -105Q254 -105 254 -111T250 -117Q184 -117 153 -103T109 -47T97 80Q97 175 84 233T32 298Q29 298 29 304Z" />
<glyph unicode="|" glyph-name="bar" horiz-adv-x="168" d="M63 626Q63 633 86 633Q108 633 108 626V-143Q108 -150 86 -150Q63 -150 63 -143V626Z" />
<glyph unicode="}" glyph-name="braceright" horiz-adv-x="283" d="M212 292T199 234T186 80Q186 -6 174 -47T131 -102T33 -117Q29 -117 29 -111T33 -105Q62 -105 78 -78T95 1Q97 122 103 172T132 251T210 305Q155 328 133 356T104 435T95 607Q94 658 78 685T33
713Q29 713 29 719T33 725Q99 725 130 711T173 656T186 529Q186 435 199 376T251 311Q254 311 254 305T251 298Q212 292 199 234Z" />
<glyph unicode="~" glyph-name="asciitilde" horiz-adv-x="452" d="M350 250T366 260T398 289H399Q402 289 404 287T405 282Q365 225 340 206T284 187Q265 187 249 191T208 205Q185 214 167 218T130 223Q106 223 94 216T70 199T55 184H54Q52 184 50 187T48 192Q71
229 102 257T168 286Q182 286 199 281T235 270Q289 250 322 250Q350 250 366 260Z" />
<glyph unicode="&#xa0;" glyph-name="uni00A0" horiz-adv-x="234" />
<glyph unicode="&#xa1;" glyph-name="exclamdown" horiz-adv-x="258" d="M160 365T175 350T190 310Q190 286 175 272T135 257Q109 257 95 271T81 310Q81 336 95 350T135 365Q160 365 175 350ZM193 -268T173 -271T129 -275Q107 -275 86 -272T67 -263Q87 -182 97
-87T117 145L118 165Q118 167 122 168T132 170Q137 170 141 169T145 165Q152 25 161 -76T191 -263Q193 -268 173 -271Z" />
<glyph unicode="&#xa2;" glyph-name="cent" d="M478 144T483 143T488 139L478 33Q477 25 475 22T464 15Q387 -12 304 -12H301V-102Q301 -109 288 -109Q274 -109 274 -102V-11Q189 -4 135 34T57 127T32 236Q32 299 63 351T150 437T274 478V561Q274 565 278 567T288
569Q293 569 297 567T301 561V480H309Q346 480 389 472T461 451Q468 448 470 445T472 434L479 331Q479 328 474 327T467 330Q437 394 396 426T301 460V8Q307 7 318 7Q373 7 410 39T477 140Q478 144 483 143ZM135 166T170 98T274 12V459Q209 451 172 395T135 251Q135
166 170 98Z" />
<glyph unicode="&#xa3;" glyph-name="sterling" horiz-adv-x="432" d="M368 129T374 129T380 126Q371 74 371 15Q371 7 368 4T356 0H19Q16 0 16 5T19 12Q70 24 88 47T107 106Q107 164 89 216H46Q43 216 41 220T39 230Q39 235 41 239T46 243H80Q72 268 68 287T63
329Q63 406 115 443T247 480Q294 480 336 466Q351 460 352 447L359 344Q359 340 354 340Q350 340 347 344Q322 401 296 431T228 462Q187 462 169 434T150 363Q150 337 155 314T166 270T174 243H274Q281 243 281 230Q281 216 274 216H182Q191 176 191 148Q191 111
179 88T144 46H251Q295 46 316 52T349 74T368 127Q368 129 374 129Z" />
<glyph unicode="&#xa4;" glyph-name="currency" horiz-adv-x="414" d="M331 33L282 88Q242 65 196 65Q156 65 126 84L81 33L52 62L96 108Q79 127 70 151T61 202Q61 256 97 290L47 340L81 371L132 316Q169 335 211 335Q253 335 285 315L336 368L364 340L315 290Q349
253 349 201Q349 151 316 115L365 66L331 33ZM245 87T262 111T280 180Q280 234 255 273T188 313Q160 313 144 290T127 223Q127 170 150 129T215 87Q245 87 262 111Z" />
<glyph unicode="&#xa5;" glyph-name="yen" horiz-adv-x="492" d="M491 468T491 462T488 456Q457 456 429 433T375 366L297 230V213H392Q399 213 399 201Q399 189 392 189H109Q106 189 104 192T102 201Q102 206 104 209T109 213H207V214L96 385Q71 423 50 439T3
456Q0 456 0 462T3 468L40 467L76 465Q105 465 165 467L223 468Q225 468 225 462T223 456Q176 456 176 433Q176 421 187 404L285 253L349 367Q365 396 365 416Q365 435 353 445T317 456Q314 456 314 462T317 468L363 467Q399 465 432 465Q445 465 463 467L488 468Q491
468 491 462ZM399 146T399 134Q399 121 392 121H297V81Q297 50 302 36T323 17T375 12Q377 12 377 6T375 0Q342 0 324 1L251 2L182 1Q162 0 128 0Q125 0 125 6T128 12Q162 12 178 17T201 36T207 81V121H109Q106 121 104 125T102 134Q102 139 104 142T109 146H392Q399
146 399 134Z" />
<glyph unicode="&#xa6;" glyph-name="brokenbar" horiz-adv-x="168" d="M63 626Q63 633 86 633Q108 633 108 626V308Q108 301 86 301Q63 301 63 308V626ZM63 164Q63 171 86 171Q108 171 108 164V-143Q108 -150 86 -150Q63 -150 63 -143V164Z" />
<glyph unicode="&#xa7;" glyph-name="section" horiz-adv-x="472" d="M385 27T385 -22Q385 -86 337 -119T222 -153Q171 -153 135 -135Q124 -128 124 -118L116 -7Q116 -5 121 -5T128 -7Q143 -47 177 -88T256 -130Q281 -130 296 -113T312 -61Q312 -28 298 -3T262
40T203 82Q163 109 138 129T96 181T79 256Q79 291 94 320T152 386Q112 426 112 476Q112 539 160 573T276 607Q327 607 362 588Q373 583 373 572L381 461Q381 458 376 458T369 461Q354 501 320 542T241 584Q216 584 201 567T185 515Q185 482 199 457T236 413T294
371Q335 344 359 324T400 272T417 198Q417 163 402 134T344 68Q385 27 385 -22ZM145 255T163 222T207 168T275 119Q319 89 331 79Q351 108 351 154Q351 199 333 231T290 285T222 334Q174 368 165 375Q145 346 145 300Q145 255 163 222Z" />
<glyph unicode="&#xa8;" glyph-name="dieresis" horiz-adv-x="322" d="M51 469T38 482T24 519Q24 542 37 554T75 567Q98 567 110 555T123 519Q123 495 111 482T75 469Q51 469 38 482ZM226 469T213 482T199 519Q199 541 212 554T249 567Q272 567 285 555T298 519Q298
495 285 482T249 469Q226 469 213 482Z" />
<glyph unicode="&#xa9;" glyph-name="copyright" horiz-adv-x="704" d="M281 -76T210 -42T96 59T52 217Q52 307 100 378T226 490T392 530Q469 530 528 498T619 413T651 298Q651 238 618 185T525 100T393 68Q330 68 289 90T230 148T211 224Q211 276 236 314T302
372T386 393Q426 393 457 378T489 336Q489 318 480 308T451 298Q437 298 428 306T410 331Q398 351 387 361T355 371Q319 371 306 343T292 256Q292 186 328 141T439 95Q479 95 514 115T571 175T593 267Q593 333 563 388T479 475T359 507Q283 507 229 472T146 376T117
242Q117 154 154 90T254 -8T396 -42Q449 -42 492 -32T584 7H586Q589 7 591 4T590 0Q534 -43 479 -59T362 -76Q281 -76 210 -42Z" />
<glyph unicode="&#xaa;" glyph-name="ordfeminine" horiz-adv-x="285" d="M274 407Q278 407 279 404T279 398L211 366Q205 364 203 364Q193 364 185 374T174 403L140 385Q119 373 106 369T77 365Q55 365 42 376T29 404Q29 421 39 433T77 454L173 488V538Q173 584
163 598T134 612Q119 612 109 598T96 561Q93 546 86 537T62 528Q47 528 38 536T29 558Q29 575 51 591T106 619T161 630Q191 630 209 612T228 558V441Q228 418 232 408T246 398Q251 398 273 407H274ZM173 415V419V477L121 456Q106 450 100 443T93 423Q93 410 100
402T120 394Q131 394 143 399L173 415ZM264 317T265 312T267 301Q267 295 266 290T262 284H38Q36 284 35 289T33 302Q33 307 34 312T37 317H262Q264 317 265 312Z" />
<glyph unicode="&#xab;" glyph-name="guillemotleft" horiz-adv-x="469" d="M55 225Q51 229 51 236Q51 243 55 247L239 396Q239 397 241 397Q243 397 245 395T246 391L144 236L246 81Q247 79 244 76T239 75L55 225ZM219 225Q215 231 215 236Q215 241 219 247L404
396Q404 397 406 397Q408 397 410 395T411 391L308 236L411 81Q412 79 409 76T404 75L219 225Z" />
<glyph unicode="&#xac;" glyph-name="logicalnot" horiz-adv-x="395" d="M364 112Q364 110 357 109T340 107Q332 107 326 108T319 111V261H34Q32 261 31 268T29 285Q29 292 30 298T33 305H364V112Z" />
<glyph unicode="&#xad;" glyph-name="uni00AD" horiz-adv-x="323" d="M30 157T29 166T27 186Q27 208 30 208L291 255Q293 256 294 248T296 231Q296 222 295 214T291 205L32 158Q30 157 29 166Z" />
<glyph unicode="&#xae;" glyph-name="registered" horiz-adv-x="723" d="M468 520T533 484T634 386T670 246Q670 160 627 88T511 -25T350 -67Q275 -67 206 -32T95 67T52 217Q52 306 97 375T219 482T382 520Q468 520 533 484ZM494 -40T553 30T612 214Q612 299 578
363T484 461T345 496Q266 496 213 463T134 374T108 250Q108 164 146 98T247 -4T385 -40Q494 -40 553 30ZM549 76T549 72T547 68H455Q446 68 424 108T362 229Q341 226 319 226V124Q319 103 322 94T334 82T364 79Q366 79 366 74T364 68L291 69L220 68Q219 68 219
73T220 79Q238 79 245 82T255 94T258 124V339Q258 367 252 375T220 383Q219 383 219 389T220 395L291 394Q303 394 335 396Q363 398 373 398Q423 398 447 382T471 330Q471 273 415 245Q455 163 482 127T547 76Q549 76 549 72ZM327 241T341 241Q377 241 392 256T407
309Q407 385 357 385Q341 385 334 383T323 370T319 337V242Q327 241 341 241Z" />
<glyph unicode="&#xaf;" glyph-name="overscore" horiz-adv-x="345" d="M43 477T41 482T39 494Q39 501 41 506T47 511H298Q302 511 304 506T307 494Q307 487 305 482T298 477H47Q43 477 41 482Z" />
<glyph unicode="&#xb0;" glyph-name="degree" horiz-adv-x="332" d="M106 373T68 410T29 503Q29 556 67 593T167 630Q228 630 265 593T303 501Q303 446 266 410T167 373Q106 373 68 410ZM211 386T222 412T233 494Q233 556 216 586T161 617Q126 617 113 589T100
506Q100 449 116 418T174 386Q211 386 222 412Z" />
<glyph unicode="&#xb1;" glyph-name="plusminus" horiz-adv-x="398" d="M32 253T31 260T29 277Q29 285 30 291T33 298H176V441Q176 445 199 445Q222 445 222 441V298H364Q366 298 367 291T369 276Q369 267 368 260T364 253H222V111Q222 109 214 108T197 106Q189
106 183 107T176 110V253H34Q32 253 31 260ZM366 65T367 59T369 45Q369 37 368 31T364 24H34Q32 24 31 31T29 46Q29 53 30 59T33 65H364Q366 65 367 59Z" />
<glyph unicode="&#xb2;" glyph-name="uni00B2" horiz-adv-x="252" d="M34 448T51 476T94 537Q121 571 133 593T145 646Q145 704 101 704Q79 704 62 689T38 651Q38 649 34 649Q31 649 29 650T27 654Q38 689 61 709T126 730Q168 730 189 710T211 657Q211 625 191
600T132 540Q103 516 87 498T63 460Q63 456 66 456Q130 456 159 459T199 471T212 501Q212 503 217 503T223 501L221 408Q221 406 220 405T217 403H27Q25 403 24 405T24 409Q34 448 51 476Z" />
<glyph unicode="&#xb3;" glyph-name="uni00B3" horiz-adv-x="251" d="M184 567T204 548T225 497Q225 458 196 427T116 396Q43 396 22 465Q21 469 27 470T34 468Q43 447 60 434T102 420Q126 420 142 436T158 491Q158 526 139 545T83 564Q79 564 79 570T83 576Q113
576 129 595T145 645Q145 673 133 687T100 701Q78 701 61 686T40 650Q38 648 35 648Q32 648 30 649T28 653Q37 688 61 708T126 729Q167 729 189 709T212 656Q212 629 195 607T150 574Q184 567 204 548Z" />
<glyph unicode="&#xb4;" glyph-name="acute" horiz-adv-x="275" d="M26 439Q22 439 21 443T23 450Q55 469 111 513Q157 548 161 551Q166 555 193 547T240 529T250 517Q188 502 137 484T28 440L26 439Z" />
<glyph unicode="&#xb6;" glyph-name="paragraph" horiz-adv-x="575" d="M246 0T185 30T89 113T54 234Q54 299 89 352T185 437T322 468L365 467Q401 465 415 465Q439 465 481 467L530 468Q532 468 532 462T530 456Q487 456 464 435T441 375V92Q441 54 464 33T530
12Q532 12 532 6T530 0Q499 0 481 1L415 2L365 1Q349 0 322 0Q246 0 185 30ZM357 36T362 31T375 25Q383 25 388 30T394 47V421Q394 432 389 437T376 443Q368 443 363 438T357 421V46Q357 36 362 31Z" />
<glyph unicode="&#xb7;" glyph-name="middot" horiz-adv-x="204" d="M78 181T63 196T48 236Q48 260 63 274T103 289Q129 289 143 275T157 236Q157 210 143 196T103 181Q78 181 63 196Z" />
<glyph unicode="&#xb8;" glyph-name="cedilla" horiz-adv-x="232" d="M111 -30T111 -42Q111 -59 120 -70T152 -95Q178 -111 192 -128T207 -173Q207 -213 178 -244T91 -275Q20 -275 20 -230Q20 -216 30 -205T56 -194Q73 -194 80 -201T93 -223Q99 -238 105 -245T128
-252Q154 -252 154 -224Q154 -198 136 -177T70 -130Q65 -128 63 -125T60 -118Q60 -112 64 -101Q78 -68 93 -25Q97 -16 102 -1L118 -2Q111 -30 111 -42Z" />
<glyph unicode="&#xb9;" glyph-name="uni00B9" horiz-adv-x="262" d="M38 403T38 409T40 415Q72 415 85 419T102 437T106 484V602Q106 646 103 661T85 676Q72 676 35 659H34Q30 659 28 664T29 670L158 728Q159 729 161 729Q164 729 166 727T168 721V484Q168 450
171 437T187 419T230 415Q232 415 232 409T230 403L191 404Q157 406 138 406Q117 406 81 404L40 403Q38 403 38 409Z" />
<glyph unicode="&#xba;" glyph-name="ordmasculine" horiz-adv-x="322" d="M99 359T64 399T29 498Q29 541 50 570T103 615T168 630Q206 630 234 611T278 561T294 495Q294 458 275 427T225 377T156 359Q99 359 64 399ZM199 374T215 401T231 477Q231 535 208 574T149
614Q122 614 107 589T92 517Q92 459 114 417T171 374Q199 374 215 401ZM38 284T37 289T35 302Q35 307 36 312T39 317H282Q284 317 285 312T287 301Q287 295 286 290T282 284H40Q38 284 37 289Z" />
<glyph unicode="&#xbb;" glyph-name="guillemotright" horiz-adv-x="469" d="M249 247Q254 242 254 236Q254 230 249 225L65 75Q65 74 63 74Q61 74 59 76T58 81L160 235L58 391Q57 393 60 396T65 396L249 247ZM414 247Q418 243 418 236Q418 229 414 225L229 75Q229
74 227 74Q225 74 223 76T222 81L324 235L222 391Q221 393 224 396T229 396L414 247Z" />
<glyph unicode="&#xbc;" glyph-name="onequarter" horiz-adv-x="605" d="M232 320T232 315T230 309Q205 309 191 310L138 311L81 310Q66 309 40 309Q38 309 38 314T40 320Q72 320 85 324T102 342T106 389V508Q106 552 103 567T85 582Q72 582 35 565H33Q30 565
28 569T29 575L158 634H160Q163 634 165 632T168 627V389Q168 355 171 342T187 324T230 320Q232 320 232 315ZM439 632T453 626T467 617L187 -1Q186 -4 172 3T158 13L437 629Q439 632 453 626ZM541 90V41Q541 27 543 22T553 14T581 11Q582 9 582 5T581 -1L514 0L430
-1Q429 -1 429 5T430 11Q454 11 464 13T477 21T481 41V92Q411 94 355 94Q352 94 350 97T351 103L514 321Q517 325 527 325Q532 325 536 324T541 320V113L581 115Q584 115 584 102Q584 88 581 88L541 90ZM481 110V246L387 112Q384 109 389 109L481 110Z" />
<glyph unicode="&#xbd;" glyph-name="onehalf" horiz-adv-x="611" d="M38 309T38 314T40 320Q72 320 85 324T102 342T106 389V508Q106 552 103 567T85 582Q72 582 35 565H33Q30 565 28 569T29 575L158 634H160Q163 634 165 632T168 627V389Q168 355 171 342T187
324T230 320Q232 320 232 315T230 309Q205 309 191 310L138 311L81 310Q66 309 40 309Q38 309 38 314ZM186 -4T172 3T158 13L437 629Q439 632 453 626T467 617L187 -1Q186 -4 172 3ZM393 45T410 73T453 134Q479 166 491 189T504 243Q504 300 460 300Q438 300 421
286T397 248Q397 245 393 245Q390 245 388 246T386 250Q397 285 420 305T485 326Q527 326 548 306T570 254Q570 222 550 197T491 137Q461 111 445 94T422 56Q422 53 425 53Q489 53 517 56T557 68T571 98Q571 100 576 100T582 98L580 5Q580 0 576 0H386Q382 0 383
6Q393 45 410 73Z" />
<glyph unicode="&#xbe;" glyph-name="threequarters" horiz-adv-x="594" d="M225 364T196 333T116 302Q43 302 22 371Q21 375 27 376T34 373Q43 352 60 339T102 326Q126 326 142 342T158 396Q158 432 139 451T83 470Q79 470 79 476T83 482Q113 482 129 501T145
551Q145 578 133 592T100 607Q78 607 61 592T40 556Q39 553 35 553Q32 553 30 554T28 558Q37 593 61 613T126 634Q167 634 189 614T212 561Q212 534 195 512T150 480Q184 473 204 454T225 403Q225 364 196 333ZM428 632T442 626T456 617L176 -1Q175 -4 161 3T147
13L426 629Q428 632 442 626ZM530 90V41Q530 27 532 22T542 14T570 11Q571 9 571 5T570 -1L503 0L419 -1Q418 -1 418 5T419 11Q443 11 453 13T466 21T470 41V92Q400 94 344 94Q341 94 339 97T340 103L503 321Q506 325 516 325Q521 325 525 324T530 320V113L570
115Q573 115 573 102Q573 88 570 88L530 90ZM470 110V246L376 112Q373 109 378 109L470 110Z" />
<glyph unicode="&#xbf;" glyph-name="questiondown" horiz-adv-x="327" d="M201 361T216 346T231 306Q231 282 216 268T176 253Q150 253 136 267T122 306Q122 332 136 346T176 361Q201 361 216 346ZM182 -258T188 -247T197 -215Q200 -189 210 -172T248 -154Q271
-154 282 -167T293 -197Q293 -229 256 -252T163 -275Q100 -275 58 -244T15 -156Q15 -118 33 -93T87 -36L105 -21Q137 8 151 37T166 102Q166 122 160 156Q159 159 166 160T175 159Q187 132 194 98T201 39Q201 8 191 -11T159 -56Q136 -83 124 -106T112 -168Q112 -208
126 -233T164 -258Q182 -258 188 -247Z" />
<glyph unicode="&#xc0;" glyph-name="Agrave" horiz-adv-x="711" d="M217 758T237 768T284 786T316 790Q346 768 361 756Q422 710 454 689Q456 688 456 685Q456 682 454 680T450 679Q337 729 227 756Q217 758 237 768ZM716 12T716 6T711 0Q692 0 650 2Q608 4 589
4Q564 4 530 2Q496 0 477 0Q473 0 473 6T477 12Q506 12 519 18T533 40Q533 55 516 91L408 310H227L150 137Q137 107 137 83Q137 48 162 30T232 12Q237 12 237 6T232 0Q214 0 180 2Q142 4 114 4Q87 4 51 2Q19 0 -2 0Q-7 0 -7 6T-2 12Q26 12 45 23T82 62T125 147L340
631Q342 634 349 634Q356 634 357 631L602 137Q637 65 660 39T711 12Q716 12 716 6ZM238 335H396L313 503L238 335Z" />
<glyph unicode="&#xc1;" glyph-name="Aacute" horiz-adv-x="711" d="M251 678Q247 678 246 682T248 689Q280 708 336 752Q382 787 386 790Q391 794 418 786T465 768T475 756Q413 741 362 723T253 679L251 678ZM716 12T716 6T711 0Q692 0 650 2Q608 4 589 4Q564
4 530 2Q496 0 477 0Q473 0 473 6T477 12Q506 12 519 18T533 40Q533 55 516 91L408 310H227L150 137Q137 107 137 83Q137 48 162 30T232 12Q237 12 237 6T232 0Q214 0 180 2Q142 4 114 4Q87 4 51 2Q19 0 -2 0Q-7 0 -7 6T-2 12Q26 12 45 23T82 62T125 147L340 631Q342
634 349 634Q356 634 357 631L602 137Q637 65 660 39T711 12Q716 12 716 6ZM238 335H396L313 503L238 335Z" />
<glyph unicode="&#xc2;" glyph-name="Acircumflex" horiz-adv-x="711" d="M239 647T236 650T235 655L338 765Q343 770 350 770Q356 770 361 765L463 655Q464 655 464 653Q464 651 462 649T458 648L350 693L241 648Q239 647 236 650ZM716 12T716 6T711 0Q692 0
650 2Q608 4 589 4Q564 4 530 2Q496 0 477 0Q473 0 473 6T477 12Q506 12 519 18T533 40Q533 55 516 91L408 310H227L150 137Q137 107 137 83Q137 48 162 30T232 12Q237 12 237 6T232 0Q214 0 180 2Q142 4 114 4Q87 4 51 2Q19 0 -2 0Q-7 0 -7 6T-2 12Q26 12 45 23T82
62T125 147L340 631Q342 634 349 634Q356 634 357 631L602 137Q637 65 660 39T711 12Q716 12 716 6ZM238 335H396L313 503L238 335Z" />
<glyph unicode="&#xc3;" glyph-name="Atilde" horiz-adv-x="711" d="M227 697Q224 697 222 699T221 704Q264 779 308 779Q319 779 355 769Q401 755 430 755Q447 755 457 761T480 782H481Q484 782 486 780T487 775Q461 730 444 715T406 700Q390 700 372 705T348
711Q331 716 313 720T279 724Q262 724 254 720T238 708T228 697H227ZM716 12T716 6T711 0Q692 0 650 2Q608 4 589 4Q564 4 530 2Q496 0 477 0Q473 0 473 6T477 12Q506 12 519 18T533 40Q533 55 516 91L408 310H227L150 137Q137 107 137 83Q137 48 162 30T232 12Q237
12 237 6T232 0Q214 0 180 2Q142 4 114 4Q87 4 51 2Q19 0 -2 0Q-7 0 -7 6T-2 12Q26 12 45 23T82 62T125 147L340 631Q342 634 349 634Q356 634 357 631L602 137Q637 65 660 39T711 12Q716 12 716 6ZM238 335H396L313 503L238 335Z" />
<glyph unicode="&#xc4;" glyph-name="Adieresis" horiz-adv-x="711" d="M240 708T227 721T213 758Q213 781 226 793T264 806Q287 806 299 794T312 758Q312 734 300 721T264 708Q240 708 227 721ZM415 708T402 721T388 758Q388 780 401 793T438 806Q461 806 474
794T487 758Q487 734 474 721T438 708Q415 708 402 721ZM716 12T716 6T711 0Q692 0 650 2Q608 4 589 4Q564 4 530 2Q496 0 477 0Q473 0 473 6T477 12Q506 12 519 18T533 40Q533 55 516 91L408 310H227L150 137Q137 107 137 83Q137 48 162 30T232 12Q237 12 237
6T232 0Q214 0 180 2Q142 4 114 4Q87 4 51 2Q19 0 -2 0Q-7 0 -7 6T-2 12Q26 12 45 23T82 62T125 147L340 631Q342 634 349 634Q356 634 357 631L602 137Q637 65 660 39T711 12Q716 12 716 6ZM238 335H396L313 503L238 335Z" />
<glyph unicode="&#xc5;" glyph-name="Aring" horiz-adv-x="711" d="M297 661T270 684T242 741Q242 777 276 797T352 818Q393 818 422 795T452 739Q452 704 419 683T343 661Q297 661 270 684ZM306 805T306 761Q306 727 320 701T358 674Q388 674 388 721Q388 755
372 780T332 805Q306 805 306 761ZM716 12T716 6T711 0Q692 0 650 2Q608 4 589 4Q564 4 530 2Q496 0 477 0Q473 0 473 6T477 12Q506 12 519 18T533 40Q533 55 516 91L408 310H227L150 137Q137 107 137 83Q137 48 162 30T232 12Q237 12 237 6T232 0Q214 0 180 2Q142
4 114 4Q87 4 51 2Q19 0 -2 0Q-7 0 -7 6T-2 12Q26 12 45 23T82 62T125 147L340 631Q342 634 349 634Q356 634 357 631L602 137Q637 65 660 39T711 12Q716 12 716 6ZM238 335H396L313 503L238 335Z" />
<glyph unicode="&#xc6;" glyph-name="AE" horiz-adv-x="883" d="M826 158T829 158Q832 158 834 157T837 154Q828 69 828 15Q828 7 825 4T813 0H385Q383 0 383 6T385 12Q419 12 434 17T456 36T462 81V312H304L188 134Q161 91 161 62Q161 38 180 25T236 12Q241 12
241 6T236 0Q215 0 177 2Q133 4 101 4Q76 4 44 2Q14 0 -4 0Q-9 0 -9 6T-4 12Q34 12 70 40T148 132L441 574Q454 592 454 599Q454 608 438 610T377 613Q374 613 374 619T377 625H795Q805 625 805 616L807 486Q807 484 802 483T795 485Q790 511 772 537T725 581T664
599H618Q582 599 568 587T553 543V338H646Q755 338 755 412Q755 415 761 415T767 412L766 325Q766 294 767 278L768 226Q768 224 763 224T757 226Q757 268 729 290T644 312H553V85Q553 52 565 39T610 26H663Q716 26 763 64T826 156Q826 158 829 158ZM321 338H462V555L321
338Z" />
<glyph unicode="&#xc7;" glyph-name="Ccedilla" horiz-adv-x="669" d="M615 179T620 178T626 174L611 46Q609 34 607 31T595 23Q508 -12 410 -12H392Q387 -32 387 -42Q387 -59 396 -71T428 -95Q454 -111 468 -128T483 -173Q483 -213 454 -244T367 -275Q296 -275
296 -230Q296 -216 306 -205T332 -194Q349 -194 356 -201T369 -223Q375 -238 381 -245T404 -252Q430 -252 430 -224Q430 -198 412 -177T346 -130Q341 -128 339 -125T336 -118Q336 -112 340 -101Q356 -61 374 -11Q264 -3 191 46T84 167T49 316Q49 410 100 483T237
596T419 636Q464 636 512 628T589 606Q598 603 600 599T604 583L616 453Q616 450 611 449T605 452Q576 530 518 571T380 612Q276 612 217 539T158 343Q158 251 190 174T280 52T409 7Q544 7 614 175Q615 179 620 178Z" />
<glyph unicode="&#xc8;" glyph-name="Egrave" horiz-adv-x="547" d="M163 758T183 768T230 786T262 790Q292 768 307 756Q368 710 400 689Q402 688 402 685Q402 682 400 680T396 679Q283 729 173 756Q163 758 183 768ZM489 158T493 158Q496 158 498 157T501 154Q491
78 491 15Q491 7 488 4T476 0H42Q39 0 39 6T42 12Q76 12 91 17T112 36T118 81V544Q118 574 113 588T91 607T42 613Q39 613 39 619T42 625H458Q468 625 468 616L470 486Q470 484 465 483T458 485Q434 599 319 599H279Q243 599 228 586T213 542V338H309Q419 338 419
412Q419 415 424 415T430 412L429 325L430 278Q432 246 432 226Q432 224 426 224T420 226Q420 312 308 312H213V85Q213 52 225 39T270 26H319Q453 26 489 156Q489 158 493 158Z" />
<glyph unicode="&#xc9;" glyph-name="Eacute" horiz-adv-x="547" d="M197 678Q193 678 192 682T194 689Q226 708 282 752Q328 787 332 790Q337 794 364 786T411 768T421 756Q359 741 308 723T199 679L197 678ZM489 158T493 158Q496 158 498 157T501 154Q491 78
491 15Q491 7 488 4T476 0H42Q39 0 39 6T42 12Q76 12 91 17T112 36T118 81V544Q118 574 113 588T91 607T42 613Q39 613 39 619T42 625H458Q468 625 468 616L470 486Q470 484 465 483T458 485Q434 599 319 599H279Q243 599 228 586T213 542V338H309Q419 338 419
412Q419 415 424 415T430 412L429 325L430 278Q432 246 432 226Q432 224 426 224T420 226Q420 312 308 312H213V85Q213 52 225 39T270 26H319Q453 26 489 156Q489 158 493 158Z" />
<glyph unicode="&#xca;" glyph-name="Ecircumflex" horiz-adv-x="547" d="M186 691T183 694T182 699L285 809Q290 814 297 814Q303 814 308 809L410 699Q411 699 411 697Q411 695 409 693T405 692L297 737L188 692Q186 691 183 694ZM489 158T493 158Q496 158 498
157T501 154Q491 78 491 15Q491 7 488 4T476 0H42Q39 0 39 6T42 12Q76 12 91 17T112 36T118 81V544Q118 574 113 588T91 607T42 613Q39 613 39 619T42 625H458Q468 625 468 616L470 486Q470 484 465 483T458 485Q434 599 319 599H279Q243 599 228 586T213 542V338H309Q419
338 419 412Q419 415 424 415T430 412L429 325L430 278Q432 246 432 226Q432 224 426 224T420 226Q420 312 308 312H213V85Q213 52 225 39T270 26H319Q453 26 489 156Q489 158 493 158Z" />
<glyph unicode="&#xcb;" glyph-name="Edieresis" horiz-adv-x="547" d="M186 708T173 721T159 758Q159 781 172 793T210 806Q233 806 245 794T258 758Q258 734 246 721T210 708Q186 708 173 721ZM361 708T348 721T334 758Q334 780 347 793T384 806Q407 806 420
794T433 758Q433 734 420 721T384 708Q361 708 348 721ZM489 158T493 158Q496 158 498 157T501 154Q491 78 491 15Q491 7 488 4T476 0H42Q39 0 39 6T42 12Q76 12 91 17T112 36T118 81V544Q118 574 113 588T91 607T42 613Q39 613 39 619T42 625H458Q468 625 468
616L470 486Q470 484 465 483T458 485Q434 599 319 599H279Q243 599 228 586T213 542V338H309Q419 338 419 412Q419 415 424 415T430 412L429 325L430 278Q432 246 432 226Q432 224 426 224T420 226Q420 312 308 312H213V85Q213 52 225 39T270 26H319Q453 26 489
156Q489 158 493 158Z" />
<glyph unicode="&#xcc;" glyph-name="Igrave" horiz-adv-x="339" d="M156 729T46 756Q36 758 56 768T103 786T135 790Q165 768 180 756Q241 710 273 689Q275 688 275 685Q275 682 273 680T269 679Q156 729 46 756ZM218 50T223 36T243 17T293 12Q296 12 296 6T293
0Q261 0 242 1L168 2L96 1Q77 0 44 0Q41 0 41 6T44 12Q78 12 93 17T115 36T121 81V544Q121 574 115 588T94 607T44 613Q41 613 41 619T44 625L96 624Q140 622 168 622Q199 622 243 624L293 625Q296 625 296 619T293 613Q260 613 245 607T224 587T218 542V81Q218
50 223 36Z" />
<glyph unicode="&#xcd;" glyph-name="Iacute" horiz-adv-x="339" d="M70 678Q66 678 65 682T67 689Q99 708 155 752Q201 787 205 790Q210 794 237 786T284 768T294 756Q232 741 181 723T72 679L70 678ZM218 50T223 36T243 17T293 12Q296 12 296 6T293 0Q261 0
242 1L168 2L96 1Q77 0 44 0Q41 0 41 6T44 12Q78 12 93 17T115 36T121 81V544Q121 574 115 588T94 607T44 613Q41 613 41 619T44 625L96 624Q140 622 168 622Q199 622 243 624L293 625Q296 625 296 619T293 613Q260 613 245 607T224 587T218 542V81Q218 50 223
36Z" />
<glyph unicode="&#xce;" glyph-name="Icircumflex" horiz-adv-x="339" d="M158 809Q163 814 170 814Q176 814 181 809L283 699Q284 699 284 697Q284 695 282 693T278 692L170 737L61 692Q59 691 56 694T55 699L158 809ZM218 50T223 36T243 17T293 12Q296 12 296
6T293 0Q261 0 242 1L168 2L96 1Q77 0 44 0Q41 0 41 6T44 12Q78 12 93 17T115 36T121 81V544Q121 574 115 588T94 607T44 613Q41 613 41 619T44 625L96 624Q140 622 168 622Q199 622 243 624L293 625Q296 625 296 619T293 613Q260 613 245 607T224 587T218 542V81Q218
50 223 36Z" />
<glyph unicode="&#xcf;" glyph-name="Idieresis" horiz-adv-x="339" d="M71 708T58 721T44 758Q44 781 57 793T95 806Q118 806 131 793T144 758Q144 734 131 721T95 708Q71 708 58 721ZM221 708T208 721T194 758Q194 780 207 793T244 806Q267 806 279 794T292
758Q292 734 280 721T244 708Q221 708 208 721ZM218 50T223 36T243 17T293 12Q296 12 296 6T293 0Q261 0 242 1L168 2L96 1Q77 0 44 0Q41 0 41 6T44 12Q78 12 93 17T115 36T121 81V544Q121 574 115 588T94 607T44 613Q41 613 41 619T44 625L96 624Q140 622 168
622Q199 622 243 624L293 625Q296 625 296 619T293 613Q260 613 245 607T224 587T218 542V81Q218 50 223 36Z" />
<glyph unicode="&#xd0;" glyph-name="Eth" horiz-adv-x="700" d="M406 627T485 587T607 478T651 323Q651 226 606 152T485 37T318 -4Q287 -4 246 -1Q231 0 208 1T156 2L85 1Q66 0 32 0Q30 0 30 6T32 12Q66 12 81 17T103 36T109 81V298H53Q49 298 49 311Q49 324
53 324H109V544Q109 574 104 588T82 607T33 613Q31 613 31 619T33 625L86 624Q130 622 156 622Q196 622 237 625Q287 627 304 627Q406 627 485 587ZM377 16T430 49T514 146T544 301Q544 387 516 456T435 566T314 607Q272 607 249 602T216 584T205 542V324H341Q345
324 345 311Q345 298 341 298H205V92Q205 51 226 34T308 16Q377 16 430 49Z" />
<glyph unicode="&#xd1;" glyph-name="Ntilde" horiz-adv-x="732" d="M257 697Q254 697 252 699T251 704Q294 779 338 779Q349 779 385 769Q431 755 460 755Q477 755 487 761T510 782H511Q514 782 516 780T517 775Q491 730 474 715T436 700Q420 700 402 705T378
711Q361 716 343 720T309 724Q292 724 284 720T268 708T258 697H257ZM719 625T719 619T717 613Q677 613 655 585T633 503V-14Q633 -17 628 -18T621 -17L152 528V121Q152 68 173 40T234 12Q236 12 236 6T234 0Q207 0 193 1L140 2L81 1Q65 0 35 0Q32 0 32 6T35 12Q78
12 101 40T125 121V559Q97 589 75 601T28 613Q26 613 26 619T28 625L68 624Q81 623 105 623L169 624Q181 625 198 625Q206 625 210 621T222 605Q239 582 247 573L606 149V503Q606 556 585 584T525 613Q523 613 523 619T525 625L566 624Q598 622 619 622Q639 622
673 624L717 625Q719 625 719 619Z" />
<glyph unicode="&#xd2;" glyph-name="Ograve" horiz-adv-x="766" d="M374 729T264 756Q254 758 274 768T321 786T353 790Q383 768 398 756Q459 710 491 689Q493 688 493 685Q493 682 491 680T487 679Q374 729 264 756ZM273 -12T201 31T89 149T49 312Q49 415 101
488T234 599T401 636Q496 636 568 592T678 474T717 319Q717 228 669 152T541 32T366 -12Q273 -12 201 31ZM460 12T507 44T582 140T610 290Q610 382 580 455T493 569T360 610Q263 610 210 541T156 348Q156 253 187 176T274 56T400 12Q460 12 507 44Z" />
<glyph unicode="&#xd3;" glyph-name="Oacute" horiz-adv-x="766" d="M288 678Q284 678 283 682T285 689Q317 708 373 752Q419 787 423 790Q428 794 455 786T502 768T512 756Q450 741 399 723T290 679L288 678ZM273 -12T201 31T89 149T49 312Q49 415 101 488T234
599T401 636Q496 636 568 592T678 474T717 319Q717 228 669 152T541 32T366 -12Q273 -12 201 31ZM460 12T507 44T582 140T610 290Q610 382 580 455T493 569T360 610Q263 610 210 541T156 348Q156 253 187 176T274 56T400 12Q460 12 507 44Z" />
<glyph unicode="&#xd4;" glyph-name="Ocircumflex" horiz-adv-x="766" d="M376 809Q381 814 388 814Q394 814 399 809L501 699Q502 699 502 697Q502 695 500 693T496 692L388 737L279 692Q277 691 274 694T273 699L376 809ZM273 -12T201 31T89 149T49 312Q49 415
101 488T234 599T401 636Q496 636 568 592T678 474T717 319Q717 228 669 152T541 32T366 -12Q273 -12 201 31ZM460 12T507 44T582 140T610 290Q610 382 580 455T493 569T360 610Q263 610 210 541T156 348Q156 253 187 176T274 56T400 12Q460 12 507 44Z" />
<glyph unicode="&#xd5;" glyph-name="Otilde" horiz-adv-x="766" d="M484 755T494 761T517 782H518Q521 782 523 780T524 775Q498 730 481 715T443 700Q427 700 409 705T385 711Q368 716 350 720T316 724Q299 724 291 720T275 708T265 697H264Q261 697 259 699T258
704Q301 779 345 779Q356 779 392 769Q438 755 467 755Q484 755 494 761ZM273 -12T201 31T89 149T49 312Q49 415 101 488T234 599T401 636Q496 636 568 592T678 474T717 319Q717 228 669 152T541 32T366 -12Q273 -12 201 31ZM460 12T507 44T582 140T610 290Q610
382 580 455T493 569T360 610Q263 610 210 541T156 348Q156 253 187 176T274 56T400 12Q460 12 507 44Z" />
<glyph unicode="&#xd6;" glyph-name="Odieresis" horiz-adv-x="766" d="M277 708T264 721T250 758Q250 781 263 793T301 806Q324 806 336 794T349 758Q349 734 337 721T301 708Q277 708 264 721ZM452 708T439 721T425 758Q425 780 438 793T475 806Q498 806 511
794T524 758Q524 734 511 721T475 708Q452 708 439 721ZM273 -12T201 31T89 149T49 312Q49 415 101 488T234 599T401 636Q496 636 568 592T678 474T717 319Q717 228 669 152T541 32T366 -12Q273 -12 201 31ZM460 12T507 44T582 140T610 290Q610 382 580 455T493
569T360 610Q263 610 210 541T156 348Q156 253 187 176T274 56T400 12Q460 12 507 44Z" />
<glyph unicode="&#xd7;" glyph-name="multiply" horiz-adv-x="393" d="M333 121T317 104T297 91L197 191L97 90Q93 87 77 103T62 122L164 224L64 324Q61 327 76 343T95 358L197 257L296 356Q300 359 316 343T329 324L229 224L329 124Q333 121 317 104Z" />
<glyph unicode="&#xd8;" glyph-name="Oslash" horiz-adv-x="783" d="M671 497T694 439T717 319Q717 228 669 152T541 32T366 -12Q243 -12 157 63L87 -8L86 -9Q81 -9 74 -1T69 10L139 81Q95 125 72 185T49 312Q49 415 101 488T234 599T401 636Q463 636 516 616T611
560L682 632H683Q688 632 696 625T701 615L629 542Q671 497 694 439ZM156 232T202 145L554 503Q521 554 472 582T360 610Q263 610 210 541T156 348Q156 232 202 145ZM460 12T507 44T582 140T610 290Q610 399 568 480L215 122Q248 70 296 41T400 12Q460 12 507 44Z"
/>
<glyph unicode="&#xd9;" glyph-name="Ugrave" horiz-adv-x="701" d="M360 729T250 756Q240 758 260 768T307 786T339 790Q369 768 384 756Q445 710 477 689Q479 688 479 685Q479 682 477 680T473 679Q360 729 250 756ZM571 555T548 584T480 613Q478 613 478 619T480
625L526 624Q564 622 586 622Q604 622 640 624L684 625Q686 625 686 619T684 613Q645 613 624 584T602 503V223Q602 151 572 98T486 15T357 -14Q284 -14 227 14T139 96T107 222V544Q107 574 101 588T80 607T31 613Q28 613 28 619T31 625L83 624Q127 622 154 622Q184
622 228 624L278 625Q281 625 281 619T278 613Q245 613 230 607T208 587T202 542V257Q202 138 251 80T390 21Q475 21 523 73T571 222V503Q571 555 548 584Z" />
<glyph unicode="&#xda;" glyph-name="Uacute" horiz-adv-x="701" d="M274 678Q270 678 269 682T271 689Q303 708 359 752Q405 787 409 790Q414 794 441 786T488 768T498 756Q436 741 385 723T276 679L274 678ZM571 555T548 584T480 613Q478 613 478 619T480 625L526
624Q564 622 586 622Q604 622 640 624L684 625Q686 625 686 619T684 613Q645 613 624 584T602 503V223Q602 151 572 98T486 15T357 -14Q284 -14 227 14T139 96T107 222V544Q107 574 101 588T80 607T31 613Q28 613 28 619T31 625L83 624Q127 622 154 622Q184 622
228 624L278 625Q281 625 281 619T278 613Q245 613 230 607T208 587T202 542V257Q202 138 251 80T390 21Q475 21 523 73T571 222V503Q571 555 548 584Z" />
<glyph unicode="&#xdb;" glyph-name="Ucircumflex" horiz-adv-x="701" d="M362 809Q367 814 374 814Q380 814 385 809L487 699Q488 699 488 697Q488 695 486 693T482 692L374 737L265 692Q263 691 260 694T259 699L362 809ZM571 555T548 584T480 613Q478 613 478
619T480 625L526 624Q564 622 586 622Q604 622 640 624L684 625Q686 625 686 619T684 613Q645 613 624 584T602 503V223Q602 151 572 98T486 15T357 -14Q284 -14 227 14T139 96T107 222V544Q107 574 101 588T80 607T31 613Q28 613 28 619T31 625L83 624Q127 622
154 622Q184 622 228 624L278 625Q281 625 281 619T278 613Q245 613 230 607T208 587T202 542V257Q202 138 251 80T390 21Q475 21 523 73T571 222V503Q571 555 548 584Z" />
<glyph unicode="&#xdc;" glyph-name="Udieresis" horiz-adv-x="701" d="M263 708T250 721T236 758Q236 781 249 793T287 806Q310 806 322 794T335 758Q335 734 323 721T287 708Q263 708 250 721ZM438 708T425 721T411 758Q411 780 424 793T461 806Q484 806 497
794T510 758Q510 734 497 721T461 708Q438 708 425 721ZM571 555T548 584T480 613Q478 613 478 619T480 625L526 624Q564 622 586 622Q604 622 640 624L684 625Q686 625 686 619T684 613Q645 613 624 584T602 503V223Q602 151 572 98T486 15T357 -14Q284 -14 227
14T139 96T107 222V544Q107 574 101 588T80 607T31 613Q28 613 28 619T31 625L83 624Q127 622 154 622Q184 622 228 624L278 625Q281 625 281 619T278 613Q245 613 230 607T208 587T202 542V257Q202 138 251 80T390 21Q475 21 523 73T571 222V503Q571 555 548 584Z"
/>
<glyph unicode="&#xdd;" glyph-name="Yacute" horiz-adv-x="616" d="M223 678Q219 678 218 682T220 689Q252 708 308 752Q354 787 358 790Q363 794 390 786T437 768T447 756Q385 741 334 723T225 679L223 678ZM623 625T623 619T621 613Q588 613 546 579T471 490L357
305V81Q357 50 362 36T383 17T433 12Q436 12 436 6T433 0Q400 0 382 1L309 2L237 1Q217 0 184 0Q182 0 182 6T184 12Q218 12 233 17T255 36T261 81V287L109 519Q75 572 51 592T3 613Q0 613 0 619T3 625L36 624Q58 622 68 622Q102 622 164 624L226 625Q228 625 228
619T226 613Q185 613 185 585Q185 571 197 553L342 330L444 497Q469 538 469 569Q469 613 414 613Q412 613 412 619T414 625L466 624Q508 622 543 622Q560 622 584 624L621 625Q623 625 623 619Z" />
<glyph unicode="&#xde;" glyph-name="Thorn" horiz-adv-x="545" d="M338 147T372 190T406 316Q406 396 370 438T271 480Q236 480 205 474V85Q205 53 212 39T241 18T309 12Q311 12 311 6T309 0Q267 0 244 1L158 2L91 1Q73 0 42 0Q39 0 39 6T42 12Q72 12 86 17T105
36T110 81V544Q110 574 105 588T86 607T42 613Q39 613 39 619T42 625L91 624Q133 622 158 622Q190 622 244 624L309 625Q311 625 311 619T309 613Q263 613 242 607T213 586T205 539V493Q255 499 296 499Q394 499 453 459T512 331Q512 266 480 222T399 155T299 133Q275
133 250 138Q247 138 247 143Q247 146 248 149T252 151Q276 147 288 147Q338 147 372 190Z" />
<glyph unicode="&#xdf;" glyph-name="germandbls" horiz-adv-x="541" d="M416 14T430 30T444 78Q444 119 420 155T335 235Q329 240 329 244Q329 247 332 251L408 369Q321 452 254 452Q206 452 184 420T161 305V81Q161 50 164 36T176 17T207 12Q209 12 209 6T207
0L115 1L7 0Q4 0 4 6T7 12Q36 12 50 17T69 37T75 81V284Q75 332 99 377T171 451T285 480Q349 480 422 457Q439 450 449 450Q457 450 463 454T481 471L485 473Q489 473 491 471T492 465L386 303Q459 251 489 210T520 125Q520 92 501 61T444 11T355 -9Q330 -9 310
-6T266 7Q261 9 259 13T256 26L252 132V133Q252 137 257 137T264 135Q291 81 323 48T390 14Q416 14 430 30Z" />
<glyph unicode="&#xe0;" glyph-name="agrave" horiz-adv-x="557" d="M139 601T159 611T206 629T238 633Q268 611 283 599Q344 553 376 532Q378 531 378 528Q378 525 376 523T372 522Q259 572 149 599Q139 601 159 611ZM561 12T561 6T557 0Q537 0 495 2Q453 4 435
4Q419 4 385 2Q353 0 340 0Q336 0 336 6T340 12Q364 12 374 18T385 37Q385 51 370 84L307 219H183L143 123Q126 81 126 59Q126 34 143 23T197 12Q202 12 202 6T197 0Q183 0 157 2Q129 4 105 4Q80 4 46 2Q16 0 -3 0Q-8 0 -8 6T-3 12Q28 12 47 21T82 54T120 132L268
483Q270 487 274 487T279 483L440 137Q465 83 481 57T514 22T557 12Q561 12 561 6ZM192 242H296L241 360L192 242Z" />
<glyph unicode="&#xe1;" glyph-name="aacute" horiz-adv-x="557" d="M178 521Q174 521 173 525T175 532Q207 551 263 595Q309 630 313 633Q318 637 345 629T392 611T402 599Q340 584 289 566T180 522L178 521ZM561 12T561 6T557 0Q537 0 495 2Q453 4 435 4Q419
4 385 2Q353 0 340 0Q336 0 336 6T340 12Q364 12 374 18T385 37Q385 51 370 84L307 219H183L143 123Q126 81 126 59Q126 34 143 23T197 12Q202 12 202 6T197 0Q183 0 157 2Q129 4 105 4Q80 4 46 2Q16 0 -3 0Q-8 0 -8 6T-3 12Q28 12 47 21T82 54T120 132L268 483Q270
487 274 487T279 483L440 137Q465 83 481 57T514 22T557 12Q561 12 561 6ZM192 242H296L241 360L192 242Z" />
<glyph unicode="&#xe2;" glyph-name="acircumflex" horiz-adv-x="557" d="M162 525T159 528T158 533L261 643Q266 648 273 648Q279 648 284 643L386 533Q387 533 387 531Q387 529 385 527T381 526L273 571L164 526Q162 525 159 528ZM561 12T561 6T557 0Q537 0
495 2Q453 4 435 4Q419 4 385 2Q353 0 340 0Q336 0 336 6T340 12Q364 12 374 18T385 37Q385 51 370 84L307 219H183L143 123Q126 81 126 59Q126 34 143 23T197 12Q202 12 202 6T197 0Q183 0 157 2Q129 4 105 4Q80 4 46 2Q16 0 -3 0Q-8 0 -8 6T-3 12Q28 12 47 21T82
54T120 132L268 483Q270 487 274 487T279 483L440 137Q465 83 481 57T514 22T557 12Q561 12 561 6ZM192 242H296L241 360L192 242Z" />
<glyph unicode="&#xe3;" glyph-name="atilde" horiz-adv-x="557" d="M145 540Q142 540 140 542T139 547Q157 576 181 599T234 622Q252 622 287 611Q304 606 322 602T356 598Q373 598 383 604T406 625H407Q410 625 412 623T413 618Q384 574 365 559T324 543Q307
543 288 548T264 554Q223 567 196 567Q177 567 169 562T146 540H145ZM561 12T561 6T557 0Q537 0 495 2Q453 4 435 4Q419 4 385 2Q353 0 340 0Q336 0 336 6T340 12Q364 12 374 18T385 37Q385 51 370 84L307 219H183L143 123Q126 81 126 59Q126 34 143 23T197 12Q202
12 202 6T197 0Q183 0 157 2Q129 4 105 4Q80 4 46 2Q16 0 -3 0Q-8 0 -8 6T-3 12Q28 12 47 21T82 54T120 132L268 483Q270 487 274 487T279 483L440 137Q465 83 481 57T514 22T557 12Q561 12 561 6ZM192 242H296L241 360L192 242Z" />
<glyph unicode="&#xe4;" glyph-name="adieresis" horiz-adv-x="557" d="M162 551T149 564T135 601Q135 624 148 636T186 649Q209 649 221 637T234 601Q234 577 222 564T186 551Q162 551 149 564ZM337 551T324 564T310 601Q310 623 323 636T360 649Q383 649 396
637T409 601Q409 577 396 564T360 551Q337 551 324 564ZM561 12T561 6T557 0Q537 0 495 2Q453 4 435 4Q419 4 385 2Q353 0 340 0Q336 0 336 6T340 12Q364 12 374 18T385 37Q385 51 370 84L307 219H183L143 123Q126 81 126 59Q126 34 143 23T197 12Q202 12 202 6T197
0Q183 0 157 2Q129 4 105 4Q80 4 46 2Q16 0 -3 0Q-8 0 -8 6T-3 12Q28 12 47 21T82 54T120 132L268 483Q270 487 274 487T279 483L440 137Q465 83 481 57T514 22T557 12Q561 12 561 6ZM192 242H296L241 360L192 242Z" />
<glyph unicode="&#xe5;" glyph-name="aring" horiz-adv-x="557" d="M218 550T191 573T163 629Q163 665 197 686T273 707Q314 707 343 684T373 627Q373 592 340 571T263 550Q218 550 191 573ZM226 694T226 649Q226 616 240 590T279 563Q294 563 301 574T308 609Q308
644 292 669T253 694Q226 694 226 649ZM561 12T561 6T557 0Q537 0 495 2Q453 4 435 4Q419 4 385 2Q353 0 340 0Q336 0 336 6T340 12Q364 12 374 18T385 37Q385 51 370 84L307 219H183L143 123Q126 81 126 59Q126 34 143 23T197 12Q202 12 202 6T197 0Q183 0 157
2Q129 4 105 4Q80 4 46 2Q16 0 -3 0Q-8 0 -8 6T-3 12Q28 12 47 21T82 54T120 132L268 483Q270 487 274 487T279 483L440 137Q465 83 481 57T514 22T557 12Q561 12 561 6ZM192 242H296L241 360L192 242Z" />
<glyph unicode="&#xe6;" glyph-name="ae" horiz-adv-x="684" d="M635 136T640 136T646 133Q639 79 639 15Q639 7 636 4T623 0H263Q261 0 261 6T263 12Q289 12 301 17T319 37T324 81V227H203L127 108Q91 52 91 34Q91 22 103 17T144 12Q148 12 148 6T144 0Q129 0
103 2Q75 4 51 4Q31 4 3 2Q-23 0 -36 0Q-41 0 -41 6T-36 12Q-6 12 12 19T50 49T101 118L311 440Q303 449 288 452T244 456Q241 456 241 462T244 468H606Q615 468 615 460Q615 440 617 398L618 350Q618 347 613 347T606 350Q571 455 480 455H466Q439 455 427 450T411
430T407 386V249Q501 250 532 254T569 259Q576 259 576 236Q576 227 574 220T569 212Q564 212 533 219T407 227V85Q407 55 411 41T427 22T466 16H488Q535 16 574 48T634 133Q635 136 640 136ZM324 249V387Q324 405 322 413L217 249H324Z" />
<glyph unicode="&#xe7;" glyph-name="ccedilla" d="M478 144T483 143T488 139L478 33Q477 25 475 22T464 15Q386 -12 308 -12Q304 -27 304 -41Q304 -59 313 -71T345 -95Q371 -111 385 -128T400 -173Q400 -213 371 -244T284 -275Q213 -275 213 -230Q213 -216 223
-205T249 -194Q266 -194 273 -201T286 -223Q292 -238 298 -245T321 -252Q347 -252 347 -224Q347 -198 329 -177T263 -130Q258 -128 256 -125T253 -118Q253 -112 257 -101Q273 -62 291 -12Q200 -9 142 29T58 123T32 236Q32 304 68 360T168 448T309 480Q346 480 389
472T461 451Q468 448 470 445T472 434L479 331Q479 328 474 327T467 330Q436 396 394 428T294 460Q220 460 178 402T135 251Q135 189 154 133T215 42T318 7Q373 7 410 39T477 140Q478 144 483 143Z" />
<glyph unicode="&#xe8;" glyph-name="egrave" horiz-adv-x="464" d="M120 601T140 611T187 629T219 633Q249 611 264 599Q325 553 357 532Q359 531 359 528Q359 525 357 523T353 522Q240 572 130 599Q120 601 140 611ZM416 136T421 136T426 133Q419 61 419 15Q419
7 416 4T404 0H32Q30 0 30 6T32 12Q62 12 76 17T95 36T100 81V387Q100 417 95 431T76 450T32 456Q30 456 30 462T32 468H386Q396 468 396 460L397 398Q398 379 398 350Q398 347 393 347T386 350Q373 395 337 425T260 455H246Q220 455 208 450T191 430T186 386V250Q269
252 305 256T346 261Q349 261 350 254T352 239Q352 230 351 222T346 214Q341 214 305 219T186 227V85Q186 56 190 42T207 22T246 16H269Q314 16 355 49T415 133Q416 136 421 136Z" />
<glyph unicode="&#xe9;" glyph-name="eacute" horiz-adv-x="464" d="M159 521Q155 521 154 525T156 532Q188 551 244 595Q290 630 294 633Q299 637 326 629T373 611T383 599Q321 584 270 566T161 522L159 521ZM416 136T421 136T426 133Q419 61 419 15Q419 7 416
4T404 0H32Q30 0 30 6T32 12Q62 12 76 17T95 36T100 81V387Q100 417 95 431T76 450T32 456Q30 456 30 462T32 468H386Q396 468 396 460L397 398Q398 379 398 350Q398 347 393 347T386 350Q373 395 337 425T260 455H246Q220 455 208 450T191 430T186 386V250Q269
252 305 256T346 261Q349 261 350 254T352 239Q352 230 351 222T346 214Q341 214 305 219T186 227V85Q186 56 190 42T207 22T246 16H269Q314 16 355 49T415 133Q416 136 421 136Z" />
<glyph unicode="&#xea;" glyph-name="ecircumflex" horiz-adv-x="464" d="M143 525T140 528T139 533L242 643Q247 648 254 648Q260 648 265 643L367 533Q368 533 368 531Q368 529 366 527T362 526L254 571L145 526Q143 525 140 528ZM416 136T421 136T426 133Q419
61 419 15Q419 7 416 4T404 0H32Q30 0 30 6T32 12Q62 12 76 17T95 36T100 81V387Q100 417 95 431T76 450T32 456Q30 456 30 462T32 468H386Q396 468 396 460L397 398Q398 379 398 350Q398 347 393 347T386 350Q373 395 337 425T260 455H246Q220 455 208 450T191
430T186 386V250Q269 252 305 256T346 261Q349 261 350 254T352 239Q352 230 351 222T346 214Q341 214 305 219T186 227V85Q186 56 190 42T207 22T246 16H269Q314 16 355 49T415 133Q416 136 421 136Z" />
<glyph unicode="&#xeb;" glyph-name="edieresis" horiz-adv-x="464" d="M143 551T130 564T116 601Q116 624 129 636T167 649Q190 649 202 637T215 601Q215 577 203 564T167 551Q143 551 130 564ZM318 551T305 564T291 601Q291 623 304 636T341 649Q364 649 377
637T390 601Q390 577 377 564T341 551Q318 551 305 564ZM416 136T421 136T426 133Q419 61 419 15Q419 7 416 4T404 0H32Q30 0 30 6T32 12Q62 12 76 17T95 36T100 81V387Q100 417 95 431T76 450T32 456Q30 456 30 462T32 468H386Q396 468 396 460L397 398Q398 379
398 350Q398 347 393 347T386 350Q373 395 337 425T260 455H246Q220 455 208 450T191 430T186 386V250Q269 252 305 256T346 261Q349 261 350 254T352 239Q352 230 351 222T346 214Q341 214 305 219T186 227V85Q186 56 190 42T207 22T246 16H269Q314 16 355 49T415
133Q416 136 421 136Z" />
<glyph unicode="&#xec;" glyph-name="igrave" horiz-adv-x="300" d="M140 572T30 599Q20 601 40 611T87 629T119 633Q149 611 164 599Q225 553 257 532Q259 531 259 528Q259 525 257 523T253 522Q140 572 30 599ZM194 51T199 37T218 17T262 12Q264 12 264 6T262
0Q232 0 215 1L149 2L87 1Q69 0 38 0Q36 0 36 6T38 12Q69 12 83 17T102 36T107 81V387Q107 417 102 431T83 450T38 456Q36 456 36 462T38 468L87 467Q125 465 149 465Q176 465 216 467L262 468Q264 468 264 462T262 456Q233 456 219 450T199 430T194 385V81Q194
51 199 37Z" />
<glyph unicode="&#xed;" glyph-name="iacute" horiz-adv-x="300" d="M58 521Q54 521 53 525T55 532Q87 551 143 595Q189 630 193 633Q198 637 225 629T272 611T282 599Q220 584 169 566T60 522L58 521ZM194 51T199 37T218 17T262 12Q264 12 264 6T262 0Q232 0
215 1L149 2L87 1Q69 0 38 0Q36 0 36 6T38 12Q69 12 83 17T102 36T107 81V387Q107 417 102 431T83 450T38 456Q36 456 36 462T38 468L87 467Q125 465 149 465Q176 465 216 467L262 468Q264 468 264 462T262 456Q233 456 219 450T199 430T194 385V81Q194 51 199
37Z" />
<glyph unicode="&#xee;" glyph-name="icircumflex" horiz-adv-x="300" d="M142 643Q147 648 154 648Q160 648 165 643L267 533Q268 533 268 531Q268 529 266 527T262 526L154 571L45 526Q43 525 40 528T39 533L142 643ZM194 51T199 37T218 17T262 12Q264 12 264
6T262 0Q232 0 215 1L149 2L87 1Q69 0 38 0Q36 0 36 6T38 12Q69 12 83 17T102 36T107 81V387Q107 417 102 431T83 450T38 456Q36 456 36 462T38 468L87 467Q125 465 149 465Q176 465 216 467L262 468Q264 468 264 462T262 456Q233 456 219 450T199 430T194 385V81Q194
51 199 37Z" />
<glyph unicode="&#xef;" glyph-name="idieresis" horiz-adv-x="300" d="M55 551T42 564T28 601Q28 624 41 636T79 649Q102 649 115 636T128 601Q128 577 115 564T79 551Q55 551 42 564ZM205 551T192 564T178 601Q178 623 191 636T228 649Q251 649 263 637T276
601Q276 577 264 564T228 551Q205 551 192 564ZM194 51T199 37T218 17T262 12Q264 12 264 6T262 0Q232 0 215 1L149 2L87 1Q69 0 38 0Q36 0 36 6T38 12Q69 12 83 17T102 36T107 81V387Q107 417 102 431T83 450T38 456Q36 456 36 462T38 468L87 467Q125 465 149
465Q176 465 216 467L262 468Q264 468 264 462T262 456Q233 456 219 450T199 430T194 385V81Q194 51 199 37Z" />
<glyph unicode="&#xf0;" glyph-name="eth" horiz-adv-x="567" d="M349 470T410 440T503 357T535 237Q535 168 502 113T411 27T277 -4Q249 -4 214 -1Q202 0 184 1T143 2L81 1Q63 0 32 0Q30 0 30 6T32 12Q63 12 77 17T96 36T101 81V224H57Q53 224 53 236Q53 248
57 248H101V387Q101 417 96 431T77 450T33 456Q31 456 31 462T33 468L81 467Q121 465 143 465Q173 465 205 468Q245 470 265 470Q349 470 410 440ZM345 15T390 69T435 226Q435 324 391 388T257 452Q219 452 203 438T187 385V248H297Q299 248 300 244T302 236Q302
232 301 228T297 224H187V92Q187 50 202 33T265 15Q345 15 390 69Z" />
<glyph unicode="&#xf1;" glyph-name="ntilde" horiz-adv-x="566" d="M164 540Q161 540 159 542T158 547Q176 576 200 599T253 622Q271 622 306 611Q323 606 341 602T375 598Q392 598 402 604T425 625H426Q429 625 431 623T432 618Q403 574 384 559T343 543Q326
543 307 548T283 554Q242 567 215 567Q196 567 188 562T165 540H164ZM552 468T552 462T549 456Q510 456 492 430T474 346V-11Q474 -13 469 -14T462 -13L117 386Q115 388 115 388V121Q115 64 132 38T188 12Q190 12 190 6T188 0Q164 0 151 1L106 2L60 1Q46 0 21 0Q19
0 19 6T21 12Q60 12 77 38T95 121V410Q70 435 52 445T15 456Q13 456 13 462T15 468L71 467Q80 467 93 467T150 468Q158 468 164 463T180 443L201 416L454 124V346Q454 404 437 430T382 456Q379 456 379 462T382 468L419 467Q447 465 464 465Q481 465 511 467L549
468Q552 468 552 462Z" />
<glyph unicode="&#xf2;" glyph-name="ograve" horiz-adv-x="570" d="M272 570T162 597Q152 599 172 609T219 627T251 631Q281 609 296 597Q357 551 389 530Q391 529 391 526Q391 523 389 521T385 520Q272 570 162 597ZM204 -12T149 21T63 111T32 233Q32 310 71
366T173 451T300 480Q371 480 425 446T508 356T538 240Q538 173 503 115T408 23T275 -12Q204 -12 149 21ZM362 10T400 65T439 217Q439 283 418 337T358 424T266 456Q201 456 166 406T131 262Q131 191 152 134T212 43T299 10Q362 10 400 65Z" />
<glyph unicode="&#xf3;" glyph-name="oacute" horiz-adv-x="570" d="M190 519Q186 519 185 523T187 530Q219 549 275 593Q321 628 325 631Q330 635 357 627T404 609T414 597Q352 582 301 564T192 520L190 519ZM204 -12T149 21T63 111T32 233Q32 310 71 366T173
451T300 480Q371 480 425 446T508 356T538 240Q538 173 503 115T408 23T275 -12Q204 -12 149 21ZM362 10T400 65T439 217Q439 283 418 337T358 424T266 456Q201 456 166 406T131 262Q131 191 152 134T212 43T299 10Q362 10 400 65Z" />
<glyph unicode="&#xf4;" glyph-name="ocircumflex" horiz-adv-x="570" d="M274 641Q279 646 286 646Q292 646 297 641L399 531Q400 531 400 529Q400 527 398 525T394 524L286 569L177 524Q175 523 172 526T171 531L274 641ZM204 -12T149 21T63 111T32 233Q32 310
71 366T173 451T300 480Q371 480 425 446T508 356T538 240Q538 173 503 115T408 23T275 -12Q204 -12 149 21ZM362 10T400 65T439 217Q439 283 418 337T358 424T266 456Q201 456 166 406T131 262Q131 191 152 134T212 43T299 10Q362 10 400 65Z" />
<glyph unicode="&#xf5;" glyph-name="otilde" horiz-adv-x="570" d="M386 596T396 602T419 623H420Q423 623 425 621T426 616Q397 572 378 557T337 541Q320 541 301 546T277 552Q236 565 209 565Q190 565 182 560T159 538H158Q155 538 153 540T152 545Q170 574
194 597T247 620Q265 620 300 609Q317 604 335 600T369 596Q386 596 396 602ZM204 -12T149 21T63 111T32 233Q32 310 71 366T173 451T300 480Q371 480 425 446T508 356T538 240Q538 173 503 115T408 23T275 -12Q204 -12 149 21ZM362 10T400 65T439 217Q439 283
418 337T358 424T266 456Q201 456 166 406T131 262Q131 191 152 134T212 43T299 10Q362 10 400 65Z" />
<glyph unicode="&#xf6;" glyph-name="odieresis" horiz-adv-x="570" d="M175 549T162 562T148 599Q148 622 161 634T199 647Q222 647 234 635T247 599Q247 575 235 562T199 549Q175 549 162 562ZM350 549T337 562T323 599Q323 621 336 634T373 647Q396 647 409
635T422 599Q422 575 409 562T373 549Q350 549 337 562ZM204 -12T149 21T63 111T32 233Q32 310 71 366T173 451T300 480Q371 480 425 446T508 356T538 240Q538 173 503 115T408 23T275 -12Q204 -12 149 21ZM362 10T400 65T439 217Q439 283 418 337T358 424T266
456Q201 456 166 406T131 262Q131 191 152 134T212 43T299 10Q362 10 400 65Z" />
<glyph unicode="&#xf7;" glyph-name="divide" horiz-adv-x="398" d="M173 327T158 341T143 382Q143 406 158 420T199 434Q224 434 237 420T251 382Q251 356 238 342T199 327Q173 327 158 341ZM32 208T31 215T29 232Q29 240 30 246T33 253H364Q366 253 367 246T369
231Q369 222 368 215T364 208H34Q32 208 31 215ZM173 30T158 44T143 85Q143 109 158 123T199 138Q223 138 237 124T251 85Q251 59 238 45T199 30Q173 30 158 44Z" />
<glyph unicode="&#xf8;" glyph-name="oslash" horiz-adv-x="570" d="M502 376T520 332T538 240Q538 173 503 115T408 23T275 -12Q180 -12 114 46L61 -8L59 -9Q55 -9 48 -1T43 10L96 64Q65 97 49 140T32 233Q32 310 71 366T173 451T300 480Q388 480 452 426L502
477L504 478Q508 478 515 471T519 461L469 410Q502 376 520 332ZM131 186T156 125L401 374Q378 413 344 434T266 456Q201 456 166 406T131 262Q131 186 156 125ZM362 10T400 65T439 217Q439 293 412 352L167 101Q190 58 224 34T299 10Q362 10 400 65Z" />
<glyph unicode="&#xf9;" glyph-name="ugrave" horiz-adv-x="571" d="M297 572T187 599Q177 601 197 611T244 629T276 633Q306 611 321 599Q382 553 414 532Q416 531 416 528Q416 525 414 523T410 522Q297 572 187 599ZM466 411T447 433T383 456Q380 456 380 462T383
468L424 467Q456 465 477 465Q493 465 523 467L563 468Q565 468 565 462T563 456Q523 456 506 434T489 358V184Q489 91 438 39T299 -13Q243 -13 196 9T121 74T93 174V387Q93 417 88 431T70 450T26 456Q23 456 23 462T26 468L73 467Q111 465 135 465Q161 465 201
467L247 468Q249 468 249 462T247 456Q217 456 203 450T184 430T178 385V200Q178 110 219 68T326 25Q391 25 428 65T466 182V358Q466 411 447 433Z" />
<glyph unicode="&#xfa;" glyph-name="uacute" horiz-adv-x="571" d="M215 521Q211 521 210 525T212 532Q244 551 300 595Q346 630 350 633Q355 637 382 629T429 611T439 599Q377 584 326 566T217 522L215 521ZM466 411T447 433T383 456Q380 456 380 462T383 468L424
467Q456 465 477 465Q493 465 523 467L563 468Q565 468 565 462T563 456Q523 456 506 434T489 358V184Q489 91 438 39T299 -13Q243 -13 196 9T121 74T93 174V387Q93 417 88 431T70 450T26 456Q23 456 23 462T26 468L73 467Q111 465 135 465Q161 465 201 467L247
468Q249 468 249 462T247 456Q217 456 203 450T184 430T178 385V200Q178 110 219 68T326 25Q391 25 428 65T466 182V358Q466 411 447 433Z" />
<glyph unicode="&#xfb;" glyph-name="ucircumflex" horiz-adv-x="571" d="M299 643Q304 648 311 648Q317 648 322 643L424 533Q425 533 425 531Q425 529 423 527T419 526L311 571L202 526Q200 525 197 528T196 533L299 643ZM466 411T447 433T383 456Q380 456 380
462T383 468L424 467Q456 465 477 465Q493 465 523 467L563 468Q565 468 565 462T563 456Q523 456 506 434T489 358V184Q489 91 438 39T299 -13Q243 -13 196 9T121 74T93 174V387Q93 417 88 431T70 450T26 456Q23 456 23 462T26 468L73 467Q111 465 135 465Q161
465 201 467L247 468Q249 468 249 462T247 456Q217 456 203 450T184 430T178 385V200Q178 110 219 68T326 25Q391 25 428 65T466 182V358Q466 411 447 433Z" />
<glyph unicode="&#xfc;" glyph-name="udieresis" horiz-adv-x="571" d="M200 551T187 564T173 601Q173 624 186 636T224 649Q247 649 259 637T272 601Q272 577 260 564T224 551Q200 551 187 564ZM375 551T362 564T348 601Q348 623 361 636T398 649Q421 649 434
637T447 601Q447 577 434 564T398 551Q375 551 362 564ZM466 411T447 433T383 456Q380 456 380 462T383 468L424 467Q456 465 477 465Q493 465 523 467L563 468Q565 468 565 462T563 456Q523 456 506 434T489 358V184Q489 91 438 39T299 -13Q243 -13 196 9T121
74T93 174V387Q93 417 88 431T70 450T26 456Q23 456 23 462T26 468L73 467Q111 465 135 465Q161 465 201 467L247 468Q249 468 249 462T247 456Q217 456 203 450T184 430T178 385V200Q178 110 219 68T326 25Q391 25 428 65T466 182V358Q466 411 447 433Z" />
<glyph unicode="&#xfd;" glyph-name="yacute" horiz-adv-x="493" d="M173 521Q169 521 168 525T170 532Q202 551 258 595Q304 630 308 633Q313 637 340 629T387 611T397 599Q335 584 284 566T175 522L173 521ZM495 468T495 462T492 456Q461 456 432 433T377 366L300
230V81Q300 50 305 36T326 17T378 12Q380 12 380 6T378 0Q346 0 327 1L254 2L185 1Q165 0 131 0Q128 0 128 6T131 12Q165 12 181 17T204 36T210 81V214L99 385Q74 423 53 439T6 456Q4 456 4 462T6 468L43 467L79 465Q108 465 168 467L226 468Q228 468 228 462T226
456Q179 456 179 432Q179 421 190 404L288 251L352 367Q368 396 368 416Q368 435 356 445T320 456Q317 456 317 462T320 468L366 467Q402 465 435 465Q448 465 466 467L492 468Q495 468 495 462Z" />
<glyph unicode="&#xfe;" glyph-name="thorn" horiz-adv-x="466" d="M434 378T434 254Q434 203 408 168T341 115T258 98Q233 98 217 103Q215 103 215 108Q215 111 216 114T220 116Q232 112 247 112Q284 112 310 143T337 234Q337 296 309 328T234 360Q203 360 186
356V85Q186 53 191 39T210 18T255 12Q257 12 257 6T255 0Q224 0 207 1L143 2L81 1Q63 0 32 0Q30 0 30 6T32 12Q63 12 76 17T95 36T100 81V387Q100 417 95 431T76 450T32 456Q30 456 30 462T32 468L81 467Q119 465 143 465Q167 465 207 467L255 468Q257 468 257
462T255 456Q225 456 211 450T191 429T186 382V372Q225 378 258 378Q434 378 434 254Z" />
<glyph unicode="&#xff;" glyph-name="ydieresis" horiz-adv-x="493" d="M158 551T145 564T131 601Q131 624 144 636T182 649Q205 649 217 637T230 601Q230 577 218 564T182 551Q158 551 145 564ZM333 551T320 564T306 601Q306 623 319 636T356 649Q379 649 392
637T405 601Q405 577 392 564T356 551Q333 551 320 564ZM495 468T495 462T492 456Q461 456 432 433T377 366L300 230V81Q300 50 305 36T326 17T378 12Q380 12 380 6T378 0Q346 0 327 1L254 2L185 1Q165 0 131 0Q128 0 128 6T131 12Q165 12 181 17T204 36T210 81V214L99
385Q74 423 53 439T6 456Q4 456 4 462T6 468L43 467L79 465Q108 465 168 467L226 468Q228 468 228 462T226 456Q179 456 179 432Q179 421 190 404L288 251L352 367Q368 396 368 416Q368 435 356 445T320 456Q317 456 317 462T320 468L366 467Q402 465 435 465Q448
465 466 467L492 468Q495 468 495 462Z" />
<glyph unicode="&#x2013;" glyph-name="endash" horiz-adv-x="515" d="M32 215T31 222T29 239Q29 247 30 253T33 260H481Q483 260 484 253T486 238Q486 229 485 222T481 215H34Q32 215 31 222Z" />
<glyph unicode="&#x2014;" glyph-name="emdash" horiz-adv-x="830" d="M32 215T31 222T29 239Q29 247 30 253T33 260H796Q798 260 799 253T801 238Q801 229 800 222T796 215H34Q32 215 31 222Z" />
<glyph unicode="&#x2018;" glyph-name="quoteleft" horiz-adv-x="175" d="M120 499T133 486T146 449Q146 424 131 411T88 397Q55 397 36 422T17 495Q17 539 36 576T94 650Q95 651 97 651Q100 651 102 648T102 643Q53 593 53 525Q53 497 63 484Q72 499 98 499Q120
499 133 486Z" />
<glyph unicode="&#x2019;" glyph-name="quoteright" horiz-adv-x="163" d="M108 627T127 602T146 529Q146 485 127 448T69 374Q68 373 66 373Q63 373 61 376T61 381Q110 431 110 499Q110 527 100 540Q91 525 65 525Q43 525 30 538T17 575Q17 600 32 613T75 627Q108
627 127 602Z" />
<glyph unicode="&#x201a;" glyph-name="quotesinglbase" horiz-adv-x="163" d="M108 94T127 69T146 -4Q146 -48 127 -85T69 -159Q68 -160 66 -160Q63 -160 61 -157T61 -152Q110 -102 110 -34Q110 -6 100 7Q91 -8 65 -8Q43 -8 30 5T17 42Q17 67 32 80T75 94Q108
94 127 69Z" />
<glyph unicode="&#x201c;" glyph-name="quotedblleft" horiz-adv-x="327" d="M120 499T133 486T146 449Q146 424 131 411T88 397Q55 397 36 422T17 495Q17 539 36 576T94 650Q95 651 97 651Q100 651 102 648T102 643Q53 593 53 525Q53 497 63 484Q72 499 98 499Q120
499 133 486ZM284 499T297 486T310 449Q310 424 295 411T252 397Q219 397 200 422T181 495Q181 539 200 576T258 650Q259 651 261 651Q264 651 266 648T266 643Q217 593 217 525Q217 497 227 484Q236 499 262 499Q284 499 297 486Z" />
<glyph unicode="&#x201d;" glyph-name="quotedblright" horiz-adv-x="327" d="M108 627T127 602T146 529Q146 485 127 448T69 374Q68 373 66 373Q63 373 61 376T61 381Q110 431 110 499Q110 527 100 540Q91 525 65 525Q43 525 30 538T17 575Q17 600 32 613T75
627Q108 627 127 602ZM272 627T291 602T310 529Q310 485 291 448T233 374Q232 373 230 373Q227 373 225 376T225 381Q274 431 274 499Q274 527 264 540Q255 525 229 525Q207 525 194 538T181 575Q181 600 196 613T239 627Q272 627 291 602Z" />
<glyph unicode="&#x201e;" glyph-name="quotedblbase" horiz-adv-x="336" d="M108 94T127 69T146 -4Q146 -48 127 -85T69 -159Q68 -160 66 -160Q63 -160 61 -157T61 -152Q110 -102 110 -34Q110 -6 100 7Q91 -8 65 -8Q43 -8 30 5T17 42Q17 67 32 80T75 94Q108 94
127 69ZM272 94T291 69T310 -4Q310 -48 291 -85T233 -159Q232 -160 230 -160Q227 -160 225 -157T225 -152Q274 -102 274 -34Q274 -6 264 7Q255 -8 229 -8Q207 -8 194 5T181 42Q181 67 196 80T239 94Q272 94 291 69Z" />
<glyph unicode="&#x2022;" glyph-name="bullet" horiz-adv-x="318" d="M117 132T87 161T57 234Q57 275 87 305T160 335Q201 335 231 305T261 234Q261 192 232 162T160 132Q117 132 87 161Z" />
<glyph unicode="&#x2039;" glyph-name="guilsinglleft" horiz-adv-x="304" d="M55 225Q51 229 51 236Q51 243 55 247L239 396Q239 397 241 397Q243 397 245 395T246 391L144 236L246 81Q247 79 244 76T239 75L55 225Z" />
<glyph unicode="&#x203a;" glyph-name="guilsinglright" horiz-adv-x="304" d="M249 247Q254 242 254 236Q254 230 249 225L65 75Q65 74 63 74Q61 74 59 76T58 81L160 235L58 391Q57 393 60 396T65 396L249 247Z" />
</font>
</defs>
</svg>
