<?xml version="1.0" standalone="no"?>
<!DOCTYPE svg PUBLIC "-//W3C//DTD SVG 1.1//EN" "http://www.w3.org/Graphics/SVG/1.1/DTD/svg11.dtd">
<svg xmlns="http://www.w3.org/2000/svg">
<defs >
<font id="MerriweatherSans" horiz-adv-x="1334" ><font-face
    font-family="Merriweather Sans ExtraBold"
    units-per-em="2048"
    panose-1="0 0 9 0 0 0 0 0 0 0"
    ascent="2014"
    descent="-560"
    alphabetic="0" />
<glyph unicode=" " glyph-name="space" horiz-adv-x="678" />
<glyph unicode="!" glyph-name="exclam" horiz-adv-x="669" d="M540 1780L500 590H186L133 1780H540ZM120 250T150 302T231 385T344 416Q406 416 452 389T523 314T548 206Q548 146 519 94T439 10T326 -22Q266 -22 219 6T146 82T120 191Q120 250 150 302Z" />
<glyph unicode="&quot;" glyph-name="quotedbl" horiz-adv-x="1257" d="M532 1703L491 950H240L198 1703H532ZM1060 1703L1019 950H768L726 1703H1060Z" />
<glyph unicode="#" glyph-name="numbersign" horiz-adv-x="1709" d="M1297 838L1270 553H1467V305H1246L1216 0H922L950 305H683L653 0H354L383 305H206V553H407L435 838H247V1075H457L486 1373H788L759 1075H1022L1050 1373H1349L1320 1075H1511V838H1297ZM1000
838H735L707 553H974L1000 838Z" />
<glyph unicode="$" glyph-name="dollar" horiz-adv-x="1409" d="M1252 308T1196 211T1032 56T770 -13L762 -225H557L565 -9Q450 2 353 28T216 78L263 374Q326 338 438 308T661 277Q771 277 821 307T871 406Q871 453 842 487T756 552T562 649Q397 727 301 839T205
1121Q205 1295 315 1399T619 1530L628 1763H832L823 1536Q947 1529 1038 1504T1177 1451L1118 1165Q1069 1203 973 1232T781 1262Q676 1262 624 1228T571 1134Q571 1089 597 1054T679 987T834 908Q977 844 1066 781T1204 635T1252 435Q1252 308 1196 211Z" />
<glyph unicode="%" glyph-name="percent" horiz-adv-x="2287" d="M99 1205T163 1312T332 1476T561 1532Q701 1532 794 1471T933 1304T978 1063Q978 916 914 809T745 645T517 589Q378 589 284 650T145 817T99 1057Q99 1205 163 1312ZM1566 1530L1009 0H727L1283
1530H1566ZM694 1167T654 1233T540 1300Q464 1300 423 1239T382 1067Q382 955 423 889T536 822Q612 822 653 883T694 1055Q694 1167 654 1233ZM1309 612T1373 719T1542 883T1770 939Q1910 939 2004 878T2143 711T2188 471Q2188 323 2124 216T1955 52T1728 -4Q1588
-4 1494 57T1355 224T1309 464Q1309 612 1373 719ZM1903 575T1863 641T1750 708Q1674 708 1633 647T1592 475Q1592 363 1632 297T1746 230Q1822 230 1862 291T1903 463Q1903 575 1863 641Z" />
<glyph unicode="&amp;" glyph-name="ampersand" horiz-adv-x="1540" d="M1390 204T1496 204V-1Q1430 -16 1340 -16Q1189 -16 1062 51Q900 -16 741 -16Q403 -16 232 94T61 410Q61 544 141 636T368 793Q306 882 272 969T237 1154Q237 1276 293 1364T454 1499T698
1546Q831 1546 933 1497T1090 1363T1146 1172Q1146 1056 1104 974T993 836T825 731Q879 659 952 571T1088 415Q1116 454 1130 505T1144 603Q1144 648 1141 676T1131 740L1127 766H1421Q1436 704 1436 602Q1436 482 1404 393T1312 239Q1390 204 1496 204ZM637 1313T599
1271T560 1163Q560 1120 572 1085T610 1013T687 911Q843 1010 843 1169Q843 1225 811 1269T704 1313Q637 1313 599 1271ZM773 232T827 244Q746 329 663 425T514 604Q459 568 432 525T404 428Q404 335 474 284T698 232Q773 232 827 244Z" />
<glyph unicode="&apos;" glyph-name="quotesingle" horiz-adv-x="730" d="M532 1703L491 950H240L198 1703H532Z" />
<glyph unicode="(" glyph-name="parenleft" horiz-adv-x="843" d="M99 996T184 1218T379 1577T572 1767L762 1637Q697 1582 617 1461T474 1145T412 707Q412 468 466 279T600 -34T762 -229L572 -360Q484 -302 378 -178T186 172T99 713Q99 996 184 1218Z" />
<glyph unicode=")" glyph-name="parenright" horiz-adv-x="843" d="M737 426T652 204T457 -155T264 -345L74 -215Q139 -160 219 -39T362 277T424 715Q424 954 370 1143T236 1456T74 1651L264 1782Q352 1724 458 1600T650 1250T737 709Q737 426 652 204Z" />
<glyph unicode="*" glyph-name="asterisk" horiz-adv-x="1412" d="M650 1068L534 941L274 748L140 992L429 1131L589 1173Q584 1175 533 1186Q442 1205 427 1211L133 1342L257 1585L530 1396L648 1275Q647 1282 630 1338Q603 1422 602 1437L562 1758H834L807 1442L763
1277L809 1328Q869 1394 879 1403L1145 1595L1272 1353L985 1219L822 1174L987 1135L1279 1010L1142 759L888 947L765 1067Q766 1058 785 999Q810 919 812 907L849 584H578L607 905L650 1068Z" />
<glyph unicode="+" glyph-name="plus" horiz-adv-x="1401" d="M566 645L406 640H188V911H406L566 906L560 1109V1309H839V1109L833 906L990 911H1212V640H990L833 645L839 440V247H560V440L566 645Z" />
<glyph unicode="," glyph-name="comma" horiz-adv-x="700" d="M206 -358T230 -286T255 -120Q255 -77 239 -33T199 41T151 75V182L414 318Q468 298 505 244T562 120T581 -11Q581 -122 544 -226T444 -407T306 -512L174 -408V-382Q206 -358 230 -286Z" />
<glyph unicode="-" glyph-name="hyphen" horiz-adv-x="1358" d="M1104 904V626H254V904H1104Z" />
<glyph unicode="." glyph-name="period" horiz-adv-x="669" d="M120 248T150 300T231 384T344 416Q406 416 452 389T523 314T548 206Q548 146 519 94T439 10T327 -22Q267 -22 220 5T147 81T120 189Q120 248 150 300Z" />
<glyph unicode="/" glyph-name="slash" horiz-adv-x="862" d="M854 1599L299 -363H8L563 1599H854Z" />
<glyph unicode="0" glyph-name="zero" horiz-adv-x="1438" d="M114 824T191 969T409 1192T735 1271Q1050 1271 1187 1097T1324 637Q1324 442 1249 294T1035 65T710 -16Q499 -16 366 71T174 304T114 629Q114 824 191 969ZM951 731T926 822T849 966T719 1020Q606
1020 546 922T485 651Q485 540 511 446T591 294T723 236Q835 236 893 335T951 618Q951 731 926 822Z" />
<glyph unicode="1" glyph-name="one" horiz-adv-x="1058" d="M294 858T155 836L125 1060Q189 1075 281 1113T458 1197T585 1278L770 1249L767 0H382V878Q294 858 155 836Z" />
<glyph unicode="2" glyph-name="two" horiz-adv-x="1418" d="M1262 314V0H190L140 169Q272 234 421 339T677 569T785 811Q785 895 742 947T599 999Q507 999 417 963T272 874L147 1088Q193 1135 273 1182T459 1260T683 1292Q864 1292 977 1236T1140 1090T1190 889Q1190
711 1068 565T709 277L1262 314Z" />
<glyph unicode="3" glyph-name="three" horiz-adv-x="1201" d="M897 516T971 462T1079 334T1114 179Q1114 30 1030 -86T794 -267T441 -333Q350 -333 275 -319T124 -281L123 -38Q260 -69 353 -69Q462 -69 544 -40T672 45T718 181Q718 280 662 337T480 390L344 358L294
587Q363 600 423 619T525 659Q656 733 656 854Q656 923 608 961T476 999Q384 999 311 971T174 896L68 1128Q97 1160 175 1196T355 1256T552 1280Q704 1280 812 1237T978 1114T1035 920Q1035 672 784 532Q897 516 971 462Z" />
<glyph unicode="4" glyph-name="four" horiz-adv-x="1452" d="M1399 0H1177V-376H821V0H166L80 132L634 1342H711L1001 1205L582 431L483 262H821L859 634H1177V262H1399V0Z" />
<glyph unicode="5" glyph-name="five" horiz-adv-x="1320" d="M173 -97Q229 -99 254 -99Q424 -99 547 -57T734 59T799 229Q799 325 738 372T543 420Q435 420 252 355L186 389L249 1252H1134L1102 951H515L484 644Q613 684 734 684Q877 684 977 632T1128 480T1179
243Q1179 63 1075 -75T776 -289T321 -365Q289 -365 245 -362T172 -351L173 -97Z" />
<glyph unicode="6" glyph-name="six" horiz-adv-x="1456" d="M1096 1434Q912 1388 780 1268T579 991T511 677Q511 472 568 355T748 237Q857 237 913 304T970 497Q970 635 921 698T794 762Q749 762 724 754T662 729L594 921Q611 945 654 972T763 1018T909 1038Q1033
1038 1131 978T1283 811T1338 568Q1338 405 1268 273T1058 62T714 -16Q543 -16 407 66T195 294T118 623Q118 908 259 1134T609 1495T1012 1653L1096 1434Z" />
<glyph unicode="7" glyph-name="seven" d="M122 929V1271H1161L1242 1155L650 -394L284 -292Q373 -106 564 328T824 928L122 929Z" />
<glyph unicode="8" glyph-name="eight" horiz-adv-x="1402" d="M1293 285T1219 187T1013 36T716 -16Q532 -16 397 34T190 178T118 397Q118 510 184 606T393 771Q287 844 227 938T166 1163Q166 1276 228 1367T411 1511T699 1565Q866 1565 984 1519T1164 1390T1225
1202Q1225 1088 1163 987T972 825Q1123 743 1208 649T1293 420Q1293 285 1219 187ZM646 1340T602 1320T533 1267T509 1194Q509 1118 571 1060T752 939Q830 977 866 1041T900 1187Q900 1255 848 1297T704 1340Q646 1340 602 1320ZM769 227T816 246T891 302T919 387Q919
443 880 486T785 562T619 647Q545 605 506 549T466 414Q466 332 527 280T712 227Q769 227 816 246Z" />
<glyph unicode="9" glyph-name="nine" horiz-adv-x="1455" d="M926 1270T1059 1190T1266 964T1340 632Q1340 342 1196 112T839 -254T431 -416L343 -204Q529 -158 666 -36T874 246T948 557Q950 772 892 894T711 1016Q605 1016 547 951T489 768Q489 624 539 553T671
481Q713 481 737 486T779 497T803 505L868 314Q852 291 810 266T702 224T553 206Q429 206 331 270T178 446T123 698Q123 863 195 992T409 1196T754 1270Q926 1270 1059 1190Z" />
<glyph unicode=":" glyph-name="colon" horiz-adv-x="669" d="M120 248T150 300T231 384T344 416Q406 416 452 389T523 314T548 206Q548 146 519 94T439 10T327 -22Q267 -22 220 5T147 81T120 189Q120 248 150 300ZM120 984T150 1036T231 1120T344 1152Q406 1152
452 1125T523 1050T548 942Q548 882 519 830T439 746T327 714Q267 714 220 741T147 817T120 925Q120 984 150 1036Z" />
<glyph unicode=";" glyph-name="semicolon" horiz-adv-x="669" d="M446 -358T470 -286T495 -120Q495 -77 479 -33T439 41T391 75V182L654 318Q708 298 745 244T802 120T821 -11Q821 -122 784 -226T684 -407T546 -512L414 -408V-382Q446 -358 470 -286ZM120 984T150
1036T231 1120T344 1152Q406 1152 452 1125T523 1050T548 942Q548 882 519 830T439 746T327 714Q267 714 220 741T147 817T120 925Q120 984 150 1036Z" />
<glyph unicode="&lt;" glyph-name="less" horiz-adv-x="1376" d="M1155 1033L642 774L1155 547V213L211 699V853L1155 1356V1033Z" />
<glyph unicode="=" glyph-name="equal" horiz-adv-x="1430" d="M1177 1155V904H253V1155H1177ZM1177 647V395H253V647H1177Z" />
<glyph unicode="&gt;" glyph-name="greater" horiz-adv-x="1375" d="M1156 853V699L212 213V547L725 774L212 1033V1356L1156 853Z" />
<glyph unicode="?" glyph-name="question" horiz-adv-x="1063" d="M255 867T282 926T347 1026T450 1122Q507 1171 538 1204T592 1281T614 1379Q614 1469 550 1516T342 1564Q221 1564 106 1516V1784Q144 1809 241 1827T435 1846Q627 1846 756 1793T950 1644T1012
1417Q1012 1317 980 1246T900 1127T776 1021Q710 970 672 934T607 846T577 726Q575 693 581 660T602 576L613 535H329Q295 590 275 648T255 790Q255 867 282 926ZM284 236T313 285T393 364T501 394Q560 394 604 368T674 297T699 194Q699 137 671 88T593 8T484 -22Q426
-22 381 4T310 77T284 180Q284 236 313 285Z" />
<glyph unicode="@" glyph-name="at" horiz-adv-x="2245" d="M1263 245Q1110 -5 906 -5Q830 -5 761 44T648 190T604 424Q604 574 670 725T874 978T1217 1080Q1278 1080 1341 1065T1445 1025L1642 1056Q1613 918 1591 803Q1538 538 1513 422Q1496 337 1496 292Q1496
247 1509 227T1550 206Q1626 206 1699 273T1821 469T1869 771Q1869 985 1780 1114T1551 1298T1250 1352Q1016 1352 814 1242T491 921T369 427Q369 175 468 19T722 -204T1060 -271Q1182 -271 1271 -253T1415 -212T1533 -153L1579 -319Q1488 -381 1361 -421T1040
-461Q789 -461 587 -365T264 -70T143 428Q143 753 294 1007T699 1402T1255 1543Q1495 1543 1684 1456T1982 1201T2090 797Q2090 536 2002 355T1773 84T1476 -5Q1366 -5 1314 45T1262 212L1263 245ZM1047 253T1120 343T1250 566T1321 814Q1302 836 1265 848T1179
861Q1100 861 1033 803T926 651T886 455Q886 356 912 305T983 253Q1047 253 1120 343Z" />
<glyph unicode="A" glyph-name="A" horiz-adv-x="1460" d="M991 284H460L380 0H-19L511 1532H945L1479 0H1075L991 284ZM912 550L771 1027L721 1224L670 1027L535 550H912Z" />
<glyph unicode="B" glyph-name="B" horiz-adv-x="1462" d="M358 1522Q401 1522 503 1528Q645 1537 721 1537Q1027 1537 1166 1436T1306 1145Q1306 1020 1248 928T1078 804Q1166 793 1236 748T1347 629T1387 461Q1387 313 1329 209T1131 45T756 -14Q597 -14 365
0H173V1523L358 1522ZM824 895T883 944T943 1110Q943 1202 878 1241T681 1281Q649 1281 606 1278T551 1268V903Q589 895 698 895Q824 895 883 944ZM870 235T933 287T997 458Q997 559 932 609T724 660Q676 660 622 658T551 652V258Q569 246 625 241T737 235Q870
235 933 287Z" />
<glyph unicode="C" glyph-name="C" horiz-adv-x="1306" d="M971 1538T1042 1526T1195 1493Q1251 1479 1262 1477L1212 1148Q1159 1184 1087 1210T895 1236Q777 1236 683 1183T535 1027T480 781Q480 629 529 516T675 341T911 278Q972 278 1039 293T1160 331T1241
376L1242 64Q1156 28 1071 6T868 -16Q620 -16 444 78T177 347T85 758Q85 1008 187 1183T465 1448T864 1538Q971 1538 1042 1526Z" />
<glyph unicode="D" glyph-name="D" horiz-adv-x="1561" d="M313 1522Q337 1522 461 1528Q631 1538 730 1538Q1109 1538 1293 1348T1477 799Q1477 542 1387 359T1124 80T711 -16Q613 -16 485 -7Q463 -6 406 -3T307 0H173V1522H313ZM895 266T988 390T1081 765Q1081
947 1042 1056T922 1214T714 1263Q678 1263 632 1259T556 1250V280Q608 265 730 265Q895 266 988 390Z" />
<glyph unicode="E" glyph-name="E" horiz-adv-x="1270" d="M1135 1522V1238H550V916H1001V639H550V291H1195V0H173V1522H1135Z" />
<glyph unicode="F" glyph-name="F" horiz-adv-x="1163" d="M1123 1522V1238H553V875H986V592H553V0H173V1522H1123Z" />
<glyph unicode="G" glyph-name="G" horiz-adv-x="1508" d="M1392 854V86Q1363 85 1334 77T1261 54Q1165 22 1071 3T830 -16Q603 -16 435 75T176 340T85 753Q85 1024 187 1199T466 1456T873 1538Q987 1538 1062 1527T1232 1495Q1284 1483 1310 1478L1300 1160Q1144
1240 888 1240Q757 1240 664 1185T523 1027T474 780Q474 631 514 515T634 334T824 268Q966 268 1044 300V566L827 582V854H1392Z" />
<glyph unicode="H" glyph-name="H" horiz-adv-x="1631" d="M556 1522V905H1078V1522H1458V0H1078V631H556V0H173V1522H556Z" />
<glyph unicode="I" glyph-name="I" horiz-adv-x="754" d="M569 1522V0H185V1522H569Z" />
<glyph unicode="J" glyph-name="J" horiz-adv-x="800" d="M53 -106T114 -49T205 110Q226 185 231 285T237 608V1522H621V613L622 491Q623 453 623 381Q623 199 602 94Q575 -43 479 -141T262 -288T48 -332L-35 -141Q53 -106 114 -49Z" />
<glyph unicode="K" glyph-name="K" horiz-adv-x="1468" d="M1466 0H1039Q1030 14 1005 62L974 120Q831 389 691 597L552 432V0H173V1522H552V881L1027 1522H1440L941 866Q1006 775 1105 611T1347 203L1401 111L1466 0Z" />
<glyph unicode="L" glyph-name="L" horiz-adv-x="1122" d="M560 1522V287H1062V0H173V1522H560Z" />
<glyph unicode="M" glyph-name="M" horiz-adv-x="1982" d="M753 1522L938 741L1007 386L1062 741L1226 1522H1725L1919 0H1553L1483 809L1460 1247L1365 797L1161 -9H824L602 797L502 1247L476 809L416 0L64 -1L240 1522H753Z" />
<glyph unicode="N" glyph-name="N" horiz-adv-x="1631" d="M1458 1522V0H1075L582 815L471 1046L518 658V0H173V1522H529L1048 687L1154 465L1113 852V1522H1458Z" />
<glyph unicode="O" glyph-name="O" horiz-adv-x="1603" d="M100 1156T295 1342T826 1538Q1040 1544 1195 1451T1432 1180T1509 763Q1504 496 1412 322T1158 66T777 -16Q561 -16 405 80T169 354T93 769Q100 1156 295 1342ZM1117 995T1042 1123T819 1252Q667 1252
576 1136T485 758Q485 611 520 500T627 326T803 263Q955 263 1036 385T1117 774Q1117 995 1042 1123Z" />
<glyph unicode="P" glyph-name="P" horiz-adv-x="1392" d="M321 1522Q388 1522 526 1530Q670 1538 749 1538Q1037 1538 1186 1413T1336 1001Q1336 821 1264 695T1052 504T710 439Q619 439 555 441V0H173V1522H321ZM826 712T894 782T963 1003Q963 1128 901 1200T714
1272Q620 1272 555 1261V720Q639 712 710 712Q826 712 894 782Z" />
<glyph unicode="Q" glyph-name="Q" horiz-adv-x="1603" d="M1389 -82T1451 -73T1544 -53V-309Q1514 -325 1442 -340T1302 -355Q1047 -355 900 -276T695 -12Q503 6 367 106T160 377T93 769Q100 1156 295 1342T826 1538Q1036 1544 1190 1454T1426 1192T1509 787Q1509
451 1375 258T998 8Q1038 -46 1123 -64T1346 -82Q1389 -82 1451 -73ZM485 611T520 500T627 326T803 263Q955 263 1036 385T1117 774Q1117 995 1042 1123T819 1252Q667 1252 576 1136T485 758Q485 611 520 500Z" />
<glyph unicode="R" glyph-name="R" horiz-adv-x="1470" d="M1432 0H1012Q1000 15 991 33T957 108Q929 172 896 272Q865 363 843 415T790 503T718 542Q661 538 553 538V0H173V1522H304Q340 1522 454 1528Q470 1529 560 1533T762 1538Q912 1538 1039 1494T1247 1343T1329
1055Q1329 730 1088 617Q1140 576 1178 507T1271 315Q1302 243 1323 198T1369 110L1432 0ZM553 802Q582 798 641 796T740 795Q851 795 907 865T963 1048Q963 1269 715 1269Q618 1269 553 1251V802Z" />
<glyph unicode="S" glyph-name="S" horiz-adv-x="1229" d="M177 374Q240 338 352 308T575 277Q685 277 735 307T785 406Q785 453 756 487T670 552T476 649Q311 727 215 839T119 1121Q119 1256 186 1350T376 1491T662 1538Q814 1538 925 1511T1091 1451L1032 1165Q983
1203 887 1232T695 1262Q590 1262 538 1228T485 1134Q485 1089 511 1054T593 987T748 908Q891 844 980 781T1118 635T1166 435Q1166 298 1102 197T912 40T611 -16Q509 -16 410 -1T236 36T130 78L177 374Z" />
<glyph unicode="T" glyph-name="T" horiz-adv-x="1253" d="M28 1228V1522H1225V1228H819V0H435V1228H28Z" />
<glyph unicode="U" glyph-name="U" horiz-adv-x="1545" d="M142 1522H520L517 685Q516 528 544 441T629 319T775 284Q864 284 920 320T1004 444T1032 685V1522H1408V632Q1408 318 1255 151T780 -16Q442 -16 290 155T138 638L142 1522Z" />
<glyph unicode="V" glyph-name="V" horiz-adv-x="1410" d="M394 1522L637 753L713 457L789 753L1016 1522H1422L873 -4H541L-12 1522H394Z" />
<glyph unicode="W" glyph-name="W" horiz-adv-x="1998" d="M2011 1522L1610 -10H1235L1040 785L992 1103L948 784L755 -10H387L-13 1522H369L528 672L575 309L630 672L831 1522H1178L1385 672L1441 329L1486 672L1644 1522H2011Z" />
<glyph unicode="X" glyph-name="X" horiz-adv-x="1395" d="M1384 0H962L749 392L685 523L622 392L416 0H14L464 779L26 1522L445 1523L654 1140L714 1024L773 1140L970 1522H1370L928 756L1384 0Z" />
<glyph unicode="Y" glyph-name="Y" horiz-adv-x="1289" d="M837 534V0H448V536L-53 1522H364L590 1030L654 861L708 1030L937 1522H1342L837 534Z" />
<glyph unicode="Z" glyph-name="Z" horiz-adv-x="1302" d="M661 1146L728 1244H108V1522H1203L1244 1441L631 389L557 284H1206V0H78L36 84L661 1146Z" />
<glyph unicode="[" glyph-name="bracketleft" horiz-adv-x="814" d="M128 1586T147 1642T209 1724T330 1749Q418 1749 486 1745T641 1731L700 1725V1543H449V-12L700 -13V-187L666 -191Q572 -203 499 -209T330 -215Q253 -215 209 -186T147 -95T128 68V1486Q128
1586 147 1642Z" />
<glyph unicode="\" glyph-name="backslash" horiz-adv-x="862" d="M846 -363H555L0 1599H291L846 -363Z" />
<glyph unicode="]" glyph-name="bracketright" horiz-adv-x="814" d="M679 68Q679 -34 661 -95T598 -185T477 -215Q381 -215 308 -209T141 -191L107 -187V-13L358 -12V1543H107V1725L166 1731Q253 1740 321 1744T477 1749Q555 1749 598 1724T660 1643T679 1486V68Z" />
<glyph unicode="^" glyph-name="asciicircum" horiz-adv-x="1390" d="M695 1075L927 490H1252L816 1531H575L138 490H468L695 1075Z" />
<glyph unicode="_" glyph-name="underscore" horiz-adv-x="1700" d="M1736 -233V-408H-36V-233H1736Z" />
<glyph unicode="`" glyph-name="grave" horiz-adv-x="700" d="M434 1246T346 1317T178 1476T65 1636L309 1825Q378 1711 478 1579T652 1380L483 1222Q434 1246 346 1317Z" />
<glyph unicode="a" glyph-name="a" horiz-adv-x="1263" d="M812 1160T919 1118T1075 982T1124 729V-16H892Q847 -16 824 -10T788 18T775 88V96Q647 -16 457 -16Q346 -16 262 30T131 160T85 348Q85 447 139 521T290 637Q384 677 503 691T756 706V775Q756 826 740
852T680 888T548 898Q483 898 381 875T204 817L129 1035Q174 1062 255 1091T435 1140T630 1160Q812 1160 919 1118ZM654 212T696 227T756 260V528Q702 527 644 517T556 493Q516 477 492 450T467 367Q467 291 509 252T612 212Q654 212 696 227Z" />
<glyph unicode="b" glyph-name="b" horiz-adv-x="1381" d="M969 1156T1071 1096T1235 913T1296 612Q1296 421 1222 278T1011 57T692 -21Q582 -21 464 -6T260 31T159 64V1661H530V1250L522 1041Q648 1156 844 1156Q969 1156 1071 1096ZM909 751T859 816T717 881Q663
881 612 863T530 821V262Q560 228 686 228Q750 228 801 271T880 397T909 594Q909 751 859 816Z" />
<glyph unicode="c" glyph-name="c" horiz-adv-x="1048" d="M773 1156T861 1139T979 1099L937 821Q854 868 714 868Q648 868 591 840T497 745T460 573Q460 413 530 341T717 268Q787 268 849 279T950 309L995 100Q947 50 847 17T637 -16Q454 -16 330 57T146 260T85
559Q85 731 148 865T341 1078T664 1156Q773 1156 861 1139Z" />
<glyph unicode="d" glyph-name="d" horiz-adv-x="1381" d="M1221 1662V-16H937Q910 -16 896 -2T882 38V119Q750 -16 537 -16Q412 -16 310 45T146 229T85 531Q85 722 157 863T360 1080T666 1156Q773 1156 855 1128L851 1250V1662H1221ZM473 394T522 328T664 261Q715
261 767 276T851 314V869Q807 900 695 900Q629 900 579 860T501 741T473 545Q473 394 522 328Z" />
<glyph unicode="e" glyph-name="e" horiz-adv-x="1221" d="M1136 567T1124 483H455Q467 359 539 303T740 246Q821 246 912 263T1046 304L1103 107Q1041 57 919 21T653 -16Q471 -16 344 54T151 257T85 575Q85 742 153 874T350 1081T657 1156Q867 1156 1000 1051T1136
693Q1136 567 1124 483ZM794 683T794 711Q794 816 760 866T649 917Q566 917 519 861T458 668H793Q794 683 794 711Z" />
<glyph unicode="f" glyph-name="f" horiz-adv-x="881" d="M79 897V1113L222 1140V1257Q222 1411 286 1506T449 1643T664 1684Q784 1684 884 1661V1407Q863 1418 826 1425T738 1432Q670 1432 632 1386T594 1243V1140H841V897H594V0H222V897H79Z" />
<glyph unicode="g" glyph-name="g" horiz-adv-x="1361" d="M1338 885H1154Q1165 839 1165 791Q1165 615 1034 519T630 423Q570 423 516 429Q498 413 489 392T480 348Q480 307 512 291T625 274H851Q1098 274 1200 179T1302 -72Q1302 -215 1212 -315T975 -466T661
-516Q362 -516 215 -425T67 -171Q67 -95 111 -31T238 70Q193 94 170 138T146 238Q146 304 189 367T332 473Q222 518 163 597T104 785Q104 969 239 1061T630 1155Q883 1155 1016 1071Q1050 1100 1100 1120T1210 1140H1338V885ZM718 617T763 654T808 787Q808 964
637 964Q551 964 505 925T459 788Q459 706 503 662T633 617Q718 617 763 654ZM475 11Q439 -38 439 -104Q439 -196 490 -256T673 -316Q793 -316 863 -275T934 -147Q934 -97 918 -63T854 -9T717 11H475Z" />
<glyph unicode="h" glyph-name="h" horiz-adv-x="1380" d="M1060 1158T1145 1050T1230 715V0H859V652Q859 736 844 782T799 848T718 867Q676 867 623 850T530 793V0H159V1662H530V1234L513 1021Q580 1077 678 1117T881 1158Q1060 1158 1145 1050Z" />
<glyph unicode="i" glyph-name="i" horiz-adv-x="690" d="M531 1140V0H159V1140H531ZM123 1781T153 1828T235 1904T346 1932Q406 1932 452 1908T524 1841T550 1741Q550 1686 520 1639T439 1563T329 1534Q270 1534 223 1558T150 1627T123 1726Q123 1781 153 1828Z" />
<glyph unicode="j" glyph-name="j" horiz-adv-x="677" d="M-92 -254T-53 -261T13 -269Q68 -269 99 -245T145 -162T159 2V1140H531V82Q531 -135 479 -265T331 -451T93 -507Q44 -507 -17 -499T-104 -481V-247Q-92 -254 -53 -261ZM121 1526T151 1573T233 1649T344
1677Q404 1677 450 1653T522 1586T548 1486Q548 1431 518 1384T437 1308T327 1279Q268 1279 221 1303T148 1372T121 1471Q121 1526 151 1573Z" />
<glyph unicode="k" glyph-name="k" horiz-adv-x="1287" d="M635 440L527 323L530 189V0H159V1661H530V1032L518 720L858 1140H1279L874 700L1306 0H895L635 440Z" />
<glyph unicode="l" glyph-name="l" horiz-adv-x="697" d="M534 1662V0H163V1662H534Z" />
<glyph unicode="m" glyph-name="m" horiz-adv-x="2065" d="M1668 1159T1748 1118T1872 979T1915 719V0H1544V653Q1544 738 1531 784T1487 849T1400 867Q1352 867 1305 846T1224 794Q1226 748 1226 721V0H858V652Q858 734 846 780T804 847T722 867Q678 867 624
848T533 793V0H163V1140H501L510 1018Q575 1072 677 1114T882 1158Q985 1161 1055 1130T1167 1026Q1230 1076 1331 1117T1548 1158Q1668 1159 1748 1118Z" />
<glyph unicode="n" glyph-name="n" horiz-adv-x="1380" d="M501 1140L510 1018Q578 1075 681 1116T882 1158Q1001 1161 1077 1119T1192 978T1230 718V0H860V652Q860 736 846 783T801 849T715 867Q672 867 621 847T533 793V0H163V1140H501Z" />
<glyph unicode="o" glyph-name="o" horiz-adv-x="1330" d="M86 763T160 892T368 1089T676 1156Q875 1156 1002 1077T1186 865T1244 563Q1244 379 1170 249T963 51T655 -16Q455 -16 328 63T144 276T86 580Q86 763 160 892ZM859 716T815 807T669 899Q561 899 516
822T471 582Q471 427 516 333T663 239Q770 239 814 317T859 564Q859 716 815 807Z" />
<glyph unicode="p" glyph-name="p" horiz-adv-x="1384" d="M970 1156T1073 1096T1237 913T1299 612Q1299 422 1226 280T1021 61T715 -16Q607 -16 527 12L530 -139V-506H159V1140H509V1029Q638 1156 844 1156Q970 1156 1073 1096ZM909 748T860 814T718 881Q666
881 614 864T530 821V275Q572 234 687 234Q753 234 803 276T881 399T909 594Q909 748 860 814Z" />
<glyph unicode="q" glyph-name="q" horiz-adv-x="1382" d="M1223 1140V-506H853V-139L859 96Q731 -16 539 -16Q414 -16 311 45T146 229T85 531Q85 721 157 862T362 1080T668 1156Q748 1156 823 1141T955 1104L1223 1140ZM475 394T524 328T666 261Q717 261 769
276T853 314V868Q810 900 697 900Q631 900 581 860T503 741T475 545Q475 394 524 328Z" />
<glyph unicode="r" glyph-name="r" horiz-adv-x="966" d="M884 1158T905 1144V779Q858 806 783 806Q622 806 524 697V0H153V1140H478L494 957Q517 1015 565 1061T680 1132T822 1158Q884 1158 905 1144Z" />
<glyph unicode="s" glyph-name="s" horiz-adv-x="1084" d="M163 315T217 291T344 249T486 231Q570 231 607 251T645 314Q645 344 617 368T538 413T398 464Q243 515 173 602T104 824Q104 931 166 1006T336 1118T578 1156Q704 1156 800 1135T945 1086L912 826Q890
845 845 865T745 899T637 913Q543 913 503 894T462 835Q462 805 483 783T553 740T696 689Q858 637 934 557T1011 346Q1011 229 952 148T785 25T530 -17Q441 -17 356 -3T206 33T107 76L143 332Q163 315 217 291Z" />
<glyph unicode="t" glyph-name="t" horiz-adv-x="926" d="M189 897H57V1093Q145 1119 189 1141T254 1208Q267 1234 305 1330L334 1400H559V1140H855V897H559V491Q559 385 570 337T608 275T691 261Q730 261 781 274T858 306L902 100Q873 73 814 46T678 2T522 -16Q401
-16 328 24T222 146T189 355V897Z" />
<glyph unicode="u" glyph-name="u" horiz-adv-x="1362" d="M1200 1140V-16H932Q894 -16 879 -5T863 42V90Q803 44 708 14T531 -16Q372 -16 288 44T174 208T145 470V1140H516V461Q516 377 532 331T580 268T667 250Q715 250 761 266T829 303V1140H1200Z" />
<glyph unicode="v" glyph-name="v" horiz-adv-x="1203" d="M1208 1140L781 -16H427L-5 1140H392L539 643L612 352L678 643L820 1140H1208Z" />
<glyph unicode="w" glyph-name="w" horiz-adv-x="1783" d="M1785 1140L1426 -16H1101L935 545L892 760L848 545L688 -16H353L-2 1140H359L476 679L537 381L606 679L741 1140H1074L1208 679L1273 381L1333 680L1441 1140H1785Z" />
<glyph unicode="x" glyph-name="x" horiz-adv-x="1238" d="M1241 0H819L644 279L614 329L589 279L431 0H6L407 575L8 1140H427L585 893L631 818L670 893L820 1140H1233L829 583L1241 0Z" />
<glyph unicode="y" glyph-name="y" horiz-adv-x="1208" d="M1210 1140L851 -27Q792 -219 699 -325T487 -475Q451 -489 394 -498T290 -507Q264 -507 197 -500T121 -487V-203Q140 -209 181 -216T245 -224Q311 -224 363 -210T461 -147T531 0H389L-4 1140H387L551
540L626 227L694 540L822 1140H1210Z" />
<glyph unicode="z" glyph-name="z" horiz-adv-x="1110" d="M510 797L570 888H120L122 1140H1025L1060 1045L613 352L547 260H1039V0H94L52 83L510 797Z" />
<glyph unicode="{" glyph-name="braceleft" horiz-adv-x="998" d="M556 836T388 776Q551 720 603 658Q641 615 641 547V-12H888V-186Q827 -203 738 -212T562 -221Q445 -221 387 -154T328 60V529Q328 568 287 599T185 651T69 676V878Q126 884 186 901T287 947T328
1017V1486Q328 1631 386 1696T562 1761Q700 1761 888 1737V1550H641V1009Q641 945 605 899Q556 836 388 776Z" />
<glyph unicode="|" glyph-name="bar" horiz-adv-x="862" d="M575 1780V-186H287V1780H575Z" />
<glyph unicode="}" glyph-name="braceright" horiz-adv-x="998" d="M664 977T705 948T806 901T923 878V676Q868 671 808 651T706 600T664 529V60Q664 -86 606 -153T430 -221Q343 -221 254 -212T104 -186V-12H351V547Q351 615 389 658Q441 720 604 776Q436 836
387 899Q351 945 351 1009V1550H104V1737Q292 1761 430 1761Q548 1761 606 1696T664 1486V1017Q664 977 705 948Z" />
<glyph unicode="~" glyph-name="asciitilde" horiz-adv-x="1446" d="M202 876T251 931T376 1028T535 1069Q588 1069 630 1057T703 1027T773 980Q821 945 854 929T932 913Q977 913 1013 929T1074 965T1129 1017L1256 855Q1245 811 1197 759T1074 669T916 632Q864
632 824 644T756 673T693 719Q647 755 613 772T529 790Q484 790 449 775T390 739T334 686L190 834Q202 876 251 931Z" />
<glyph unicode="&#xa0;" glyph-name="uni00A0" horiz-adv-x="678" />
<glyph unicode="&#xa1;" glyph-name="exclamdown" horiz-adv-x="669" d="M541 1094T511 1042T430 959T317 928Q255 928 209 955T138 1030T113 1138Q113 1198 142 1250T222 1334T335 1366Q395 1366 442 1338T515 1262T541 1153Q541 1094 511 1042ZM121 -436L161
754H475L528 -436H121Z" />
<glyph unicode="&#xa2;" glyph-name="cent" horiz-adv-x="1200" d="M1004 57T920 25T741 -14L737 -216H551L556 -5Q417 20 323 98T182 294T136 559Q136 710 185 833T334 1038T583 1145L589 1377H774L769 1155Q861 1151 932 1135T1030 1099L988 821Q905 868 765
868Q699 868 642 840T548 745T511 573Q511 413 581 341T768 268Q838 268 900 279T1001 309L1046 100Q1004 57 920 25Z" />
<glyph unicode="&#xa3;" glyph-name="sterling" horiz-adv-x="1616" d="M1430 597T1478 532T1527 354Q1527 244 1476 161T1317 31T1049 -16Q927 -16 835 2T635 53Q574 71 541 78T477 87Q443 52 381 22T263 -8Q200 -8 152 24T103 124Q103 180 142 221T242 285T369
311Q388 329 396 400T404 550V689H229V891H404V1027Q404 1177 470 1292T664 1473T974 1538Q1203 1538 1362 1435L1216 1164Q1181 1194 1121 1219T997 1245Q924 1245 878 1226T805 1146T778 964V891H1070V689H778V573Q778 358 679 274Q697 270 712 266T742 258Q811
240 858 231T964 222Q1070 222 1124 260T1179 367Q1179 411 1158 450T1112 506L1374 630Q1430 597 1478 532Z" />
<glyph unicode="&#xa4;" glyph-name="currency" horiz-adv-x="1565" d="M1239 702T1219 636T1161 514L1351 318L1203 160L1000 368Q899 312 781 312Q665 312 563 367L363 162L213 319L403 513Q325 631 325 773Q325 913 402 1032L215 1225L363 1385L562 1179Q663
1235 781 1235Q901 1235 1004 1177L1221 1396L1371 1235L1164 1027Q1239 911 1239 773Q1239 702 1219 636ZM840 566T886 594T958 670T984 773Q984 829 958 876T886 951T783 979Q727 979 680 951T606 876T579 773Q579 718 606 670T680 594T783 566Q840 566 886 594Z"
/>
<glyph unicode="&#xa5;" glyph-name="yen" horiz-adv-x="1579" d="M1047 851H1305V642H961V460H1305V251H961V0H618V251H264V460H618V642H264V851H555L130 1522H527L727 1157L801 992L875 1156L1079 1522H1471L1047 851Z" />
<glyph unicode="&#xa6;" glyph-name="brokenbar" horiz-adv-x="862" d="M575 1780V973H287V1780H575ZM575 605V-186H287V605H575Z" />
<glyph unicode="&#xa7;" glyph-name="section" horiz-adv-x="1404" d="M1235 542T1091 411Q1178 316 1178 180Q1178 55 1109 -29T927 -153T687 -193Q553 -193 436 -165T265 -100L315 167Q363 130 451 99T651 68Q734 68 785 94T836 178Q836 208 809 232T739 275T619
323Q484 373 396 419T242 548T176 752Q176 843 226 921T364 1063Q305 1114 273 1178T240 1326Q240 1441 307 1519T484 1635T719 1673Q851 1673 947 1652T1097 1600L1047 1333Q935 1416 756 1416Q677 1416 630 1392T582 1312Q582 1280 610 1254T680 1207T802 1151Q934
1095 1021 1045T1171 910T1235 707Q1235 542 1091 411ZM477 771T514 731T608 662T763 595Q855 561 917 531Q943 597 943 634Q943 696 904 743T806 823T643 904Q577 934 528 958Q477 882 477 828Q477 771 514 731Z" />
<glyph unicode="&#xa8;" glyph-name="dieresis" horiz-adv-x="1034" d="M62 1526T90 1572T165 1647T268 1675Q355 1675 405 1623T455 1486Q455 1431 428 1384T354 1309T251 1281Q195 1281 152 1305T86 1373T62 1471Q62 1526 90 1572ZM580 1526T607 1573T682 1647T786
1675Q872 1675 922 1623T972 1486Q972 1431 945 1384T872 1309T769 1281Q713 1281 670 1305T604 1373T580 1471Q580 1526 607 1573Z" />
<glyph unicode="&#xa9;" glyph-name="copyright" horiz-adv-x="2091" d="M1284 1838T1484 1721T1800 1403T1916 963Q1916 723 1800 522T1484 202T1045 84Q806 84 607 202T291 521T175 963Q175 1202 291 1403T606 1721T1045 1838Q1284 1838 1484 1721ZM1250 213T1416
313T1678 586T1773 963Q1773 1168 1678 1339T1417 1611T1045 1712Q840 1712 674 1612T412 1340T317 963Q317 758 412 586T673 314T1045 213Q1250 213 1416 313ZM1171 1455T1241 1438T1348 1400L1311 1195Q1279 1218 1219 1234T1098 1250Q1025 1250 969 1217T882
1124T850 986Q850 831 917 758T1099 684Q1172 684 1230 703T1324 747L1368 574Q1319 531 1232 501T1050 471Q916 471 814 537T655 716T599 959Q599 1101 656 1213T825 1390T1094 1455Q1171 1455 1241 1438Z" />
<glyph unicode="&#xaa;" glyph-name="ordfeminine" horiz-adv-x="1079" d="M695 1629T785 1598T920 1498T965 1311V670H797Q744 670 724 672T691 691T677 746V760Q659 740 618 718T522 680T411 664Q320 664 252 698T148 797T112 946Q112 1042 167 1112T311 1216Q388
1244 479 1258T665 1272V1309Q665 1353 650 1376T600 1409T502 1419Q457 1419 393 1407T274 1378T196 1344L139 1519Q159 1538 229 1564T388 1610T552 1629Q695 1629 785 1598ZM406 924T440 896T523 867Q571 867 608 879T665 905V1120Q600 1120 554 1113T472 1086Q406
1047 406 968Q406 924 440 896Z" />
<glyph unicode="&#xab;" glyph-name="guillemotleft" horiz-adv-x="2028" d="M575 615L971 309L885 56L221 473V757L885 1174L971 921L575 615ZM1392 615L1788 309L1702 56L1038 473V757L1702 1174L1788 921L1392 615Z" />
<glyph unicode="&#xac;" glyph-name="logicalnot" horiz-adv-x="1478" d="M1234 852V299H962V604H244V852H1234Z" />
<glyph unicode="&#xae;" glyph-name="registered" horiz-adv-x="2091" d="M1284 1838T1485 1721T1803 1402T1920 962Q1920 722 1803 521T1485 201T1045 83Q806 83 606 201T288 520T171 962Q171 1201 288 1402T605 1720T1045 1838Q1284 1838 1485 1721ZM1249 213T1416
313T1680 585T1777 962Q1777 1166 1681 1337T1417 1609T1045 1710Q841 1710 674 1610T410 1338T313 962Q313 757 409 586T673 314T1045 213Q1249 213 1416 313ZM797 1449Q848 1449 899 1452Q1025 1455 1061 1455Q1181 1455 1263 1420T1387 1323T1428 1179Q1428
1059 1383 975T1234 860Q1284 831 1315 786T1384 666Q1414 606 1426 586Q1431 578 1446 551T1492 487H1237Q1220 505 1203 543L1188 573Q1181 585 1174 604T1162 632Q1127 714 1096 764T1016 835Q1003 834 925 834V486H700V1449H797ZM1121 991T1161 1031T1202 1150Q1202
1219 1163 1254T1033 1290Q1026 1290 1003 1290T962 1288T925 1279V998Q959 991 1045 991Q1121 991 1161 1031Z" />
<glyph unicode="&#xaf;" glyph-name="overscore" horiz-adv-x="725" d="M672 1642V1404H53V1642H672Z" />
<glyph unicode="&#xb0;" glyph-name="degree" horiz-adv-x="977" d="M595 1647T681 1598T816 1465T865 1278Q865 1173 817 1089T683 957T488 908Q384 908 298 957T162 1091T112 1278Q112 1382 161 1466T296 1598T488 1647Q595 1647 681 1598ZM533 1107T571 1128T631
1189T653 1278Q653 1328 631 1366T570 1426T488 1448Q442 1448 405 1427T346 1368T324 1278Q324 1228 346 1189T406 1129T488 1107Q533 1107 571 1128Z" />
<glyph unicode="&#xb1;" glyph-name="plusminus" horiz-adv-x="1401" d="M566 645L406 640H188V911H406L566 906L560 1109V1309H839V1109L833 906L990 911H1212V640H990L833 645L839 440V247H560V440L566 645ZM1154 233V0H233V233H1154Z" />
<glyph unicode="&#xb4;" glyph-name="acute" horiz-adv-x="700" d="M112 1471T210 1593T376 1825L619 1636Q589 1566 511 1483T346 1330T210 1238L37 1396Q112 1471 210 1593Z" />
<glyph unicode="&#xb5;" glyph-name="uni00B5" horiz-adv-x="1407" d="M1377 87Q1367 72 1329 47T1231 2T1096 -18Q1017 -18 969 16T913 120Q882 63 822 24T664 -16Q593 -16 543 -3T456 44L485 -371H150V1140H520V490Q520 367 560 312T691 256Q729 256 772 270T842
310V1140H1212V315Q1212 273 1226 256T1261 239Q1275 239 1298 245T1346 266L1377 87Z" />
<glyph unicode="&#xb6;" glyph-name="paragraph" horiz-adv-x="1439" d="M282 777T165 893T48 1248Q48 1472 198 1591T658 1711Q730 1711 948 1701Q982 1700 1081 1696T1250 1691V0H966L965 1496H765V0H482V777Q282 777 165 893Z" />
<glyph unicode="&#xb7;" glyph-name="middot" horiz-adv-x="669" d="M120 838T150 890T231 974T344 1006Q406 1006 452 979T523 904T548 796Q548 736 519 684T439 600T327 568Q267 568 220 595T147 671T120 779Q120 838 150 890Z" />
<glyph unicode="&#xb8;" glyph-name="cedilla" horiz-adv-x="529" d="M74 -269T126 -269Q177 -269 209 -230T243 -119Q244 -65 235 -33T206 30L367 34L419 30Q451 3 468 -66T485 -210Q485 -294 450 -351T356 -436T220 -464Q171 -464 110 -456T29 -436L52 -255Q74
-269 126 -269Z" />
<glyph unicode="&#xba;" glyph-name="ordmasculine" horiz-adv-x="1077" d="M695 1632T795 1572T947 1403T999 1152Q999 985 934 875T762 714T531 663Q383 663 279 723T120 894T65 1152Q65 1316 136 1424T318 1582T554 1632Q695 1632 795 1572ZM618 885T656 945T695
1137Q695 1264 657 1336T547 1409Q462 1409 416 1350T370 1160Q370 1033 414 959T540 885Q618 885 656 945Z" />
<glyph unicode="&#xbb;" glyph-name="guillemotright" horiz-adv-x="2028" d="M320 1174L984 757V473L320 56L234 309L630 615L234 921L320 1174ZM1800 757V473L1136 56L1050 309L1446 615L1050 921L1136 1174L1800 757Z" />
<glyph unicode="&#xbc;" glyph-name="onequarter" horiz-adv-x="2583" d="M260 1546T342 1582T495 1656T590 1714L764 1689V680H431V1376Q353 1351 243 1333L203 1530Q260 1546 342 1582ZM1578 1530L1036 0H773L1312 1530H1578ZM2444 187H2292V-78H1992L1993 187H1422L1369
281L1842 1190H1911L2151 1087L1772 477L1729 402H1995L2022 674H2292V402H2444V187Z" />
<glyph unicode="&#xbd;" glyph-name="onehalf" horiz-adv-x="2583" d="M261 1546T343 1582T496 1656T591 1714L765 1689V680H432V1376Q354 1351 244 1333L204 1530Q261 1546 343 1582ZM1578 1530L1036 0H773L1312 1530H1578ZM2425 252V-10H1550L1510 160Q1606
209 1725 292T1932 476T2021 666Q2021 736 1982 771T1869 807Q1719 807 1608 661L1477 833Q1512 883 1579 932T1743 1013T1954 1045Q2099 1045 2193 998T2330 879T2373 727Q2373 583 2269 460T1971 228L2425 252Z" />
<glyph unicode="&#xbe;" glyph-name="threequarters" horiz-adv-x="2583" d="M963 854T908 772T741 643T461 596Q360 596 291 610T144 648L143 858L163 853Q223 838 276 830T414 820Q530 821 586 858T643 958Q643 1049 498 1076L320 1048L297 1256Q408 1267 467
1283Q530 1303 566 1336T603 1414Q603 1459 564 1482T439 1507Q384 1507 309 1486T176 1425L107 1614Q141 1643 206 1669T349 1712T497 1728Q634 1728 725 1694T861 1601T905 1470Q905 1386 863 1322T724 1207Q837 1190 900 1123T963 958Q963 854 908 772ZM1578
1530L1036 0H773L1312 1530H1578ZM2444 187H2292V-78H1992L1993 187H1422L1369 281L1842 1190H1911L2151 1087L1772 477L1729 402H1995L2022 674H2292V402H2444V187Z" />
<glyph unicode="&#xbf;" glyph-name="questiondown" horiz-adv-x="1063" d="M773 1288T744 1239T664 1160T556 1130Q497 1130 453 1156T383 1227T358 1330Q358 1387 386 1436T464 1516T573 1546Q631 1546 676 1520T747 1447T773 1344Q773 1288 744 1239ZM802 657T775
598T710 498T607 402Q550 353 519 320T465 243T443 145Q443 55 507 8T715 -40Q836 -40 951 8V-260Q913 -285 816 -303T622 -322Q430 -322 301 -269T107 -120T45 107Q45 207 77 278T157 397T281 503Q347 554 385 590T450 678T480 798Q482 831 476 864T455 948L444
989H728Q762 934 782 876T802 734Q802 657 775 598Z" />
<glyph unicode="&#xc0;" glyph-name="Agrave" horiz-adv-x="1460" d="M991 284H460L380 0H-19L511 1532H945L1479 0H1075L991 284ZM912 550L771 1027L721 1224L670 1027L535 550H912ZM666 1547T598 1601T463 1726T357 1858L619 1988Q636 1937 726 1833T879 1666L706
1534Q666 1547 598 1601Z" />
<glyph unicode="&#xc1;" glyph-name="Aacute" horiz-adv-x="1460" d="M991 284H460L380 0H-19L511 1532H945L1479 0H1075L991 284ZM912 550L771 1027L721 1224L670 1027L535 550H912ZM645 1724T737 1830T846 1988L1108 1858Q1067 1796 1001 1725T869 1601T759
1534L586 1666Q645 1724 737 1830Z" />
<glyph unicode="&#xc2;" glyph-name="Acircumflex" horiz-adv-x="1460" d="M991 284H460L380 0H-19L511 1532H945L1479 0H1075L991 284ZM912 550L771 1027L721 1224L670 1027L535 550H912ZM614 1963H848L1133 1657L955 1541L731 1734L508 1541L330 1655L614 1963Z" />
<glyph unicode="&#xc3;" glyph-name="Atilde" horiz-adv-x="1460" d="M991 284H460L380 0H-19L511 1532H945L1479 0H1075L991 284ZM912 550L771 1027L721 1224L670 1027L535 550H912ZM299 1790T341 1843T448 1929T591 1962Q640 1962 676 1951T737 1924T790 1883Q820
1857 843 1844T897 1831Q944 1831 987 1862T1060 1936L1187 1800Q1171 1739 1130 1685T1026 1598T887 1564Q821 1564 780 1584T694 1642Q658 1671 634 1684T574 1698Q530 1698 488 1668T416 1598L283 1730Q299 1790 341 1843Z" />
<glyph unicode="&#xc4;" glyph-name="Adieresis" horiz-adv-x="1460" d="M991 284H460L380 0H-19L511 1532H945L1479 0H1075L991 284ZM912 550L771 1027L721 1224L670 1027L535 550H912ZM265 1820T293 1865T368 1937T472 1964Q559 1964 610 1914T661 1781Q661
1727 634 1681T560 1609T456 1582Q400 1582 357 1605T289 1670T265 1766Q265 1820 293 1865ZM806 1820T834 1865T909 1937T1014 1964Q1101 1964 1151 1914T1202 1781Q1202 1727 1175 1681T1101 1609T997 1582Q941 1582 898 1605T830 1670T806 1766Q806 1820 834
1865Z" />
<glyph unicode="&#xc5;" glyph-name="Aring" horiz-adv-x="1460" d="M991 284H460L380 0H-19L484 1453Q426 1491 396 1550T366 1688Q366 1792 418 1857T554 1949T735 1977Q905 1977 999 1905T1093 1690Q1093 1532 972 1454L1479 0H1075L991 284ZM653 1814T612
1788T571 1691Q571 1630 614 1597T729 1563Q782 1562 816 1571T870 1607T889 1685Q889 1750 844 1782T723 1814Q653 1814 612 1788ZM912 550L771 1027L721 1224L670 1027L535 550H912Z" />
<glyph unicode="&#xc6;" glyph-name="AE" horiz-adv-x="1970" d="M1883 291V0H866V318H428L291 0H-119L602 1522H1822V1238H1244V919H1688V642H1244V291H1883ZM866 579V1334L541 579H866Z" />
<glyph unicode="&#xc7;" glyph-name="Ccedilla" horiz-adv-x="1306" d="M1242 64Q1170 34 1099 14T934 -14Q951 -51 960 -104T969 -208Q969 -334 896 -399T704 -464Q655 -464 594 -456T513 -436L536 -255Q558 -269 610 -269Q662 -269 694 -228T727 -110Q727 -50
709 -5Q510 24 370 124T158 386T85 758Q85 1008 187 1183T465 1448T864 1538Q971 1538 1042 1526T1195 1493Q1251 1479 1262 1477L1212 1148Q1159 1184 1087 1210T895 1236Q777 1236 683 1183T535 1027T480 781Q480 629 529 516T675 341T911 278Q972 278 1039 293T1160
331T1241 376L1242 64Z" />
<glyph unicode="&#xc8;" glyph-name="Egrave" horiz-adv-x="1270" d="M636 1547T568 1601T433 1726T327 1858L589 1988Q606 1937 696 1833T849 1666L676 1534Q636 1547 568 1601ZM1135 1522V1238H550V916H1001V639H550V291H1195V0H173V1522H1135Z" />
<glyph unicode="&#xc9;" glyph-name="Eacute" horiz-adv-x="1270" d="M614 1724T706 1830T815 1988L1077 1858Q1036 1796 970 1725T838 1601T728 1534L555 1666Q614 1724 706 1830ZM1135 1522V1238H550V916H1001V639H550V291H1195V0H173V1522H1135Z" />
<glyph unicode="&#xca;" glyph-name="Ecircumflex" horiz-adv-x="1270" d="M1135 1522V1238H550V916H1001V639H550V291H1195V0H173V1522H1135ZM584 1963H818L1103 1657L925 1541L701 1734L478 1541L300 1655L584 1963Z" />
<glyph unicode="&#xcb;" glyph-name="Edieresis" horiz-adv-x="1270" d="M235 1820T263 1865T338 1937T442 1964Q529 1964 580 1914T631 1781Q631 1727 604 1681T530 1609T426 1582Q370 1582 327 1605T259 1670T235 1766Q235 1820 263 1865ZM776 1820T804 1865T879
1937T984 1964Q1071 1964 1121 1914T1172 1781Q1172 1727 1145 1681T1071 1609T967 1582Q911 1582 868 1605T800 1670T776 1766Q776 1820 804 1865ZM1135 1522V1238H550V916H1001V639H550V291H1195V0H173V1522H1135Z" />
<glyph unicode="&#xcc;" glyph-name="Igrave" horiz-adv-x="754" d="M569 1522V0H185V1522H569ZM568 1547T500 1601T365 1726T259 1858L521 1988Q538 1937 628 1833T781 1666L608 1534Q568 1547 500 1601Z" />
<glyph unicode="&#xcd;" glyph-name="Iacute" horiz-adv-x="754" d="M569 1522V0H185V1522H569ZM291 1724T383 1830T492 1988L754 1858Q713 1796 647 1725T515 1601T405 1534L232 1666Q291 1724 383 1830Z" />
<glyph unicode="&#xce;" glyph-name="Icircumflex" horiz-adv-x="754" d="M569 1522V0H185V1522H569ZM516 2219H750L1035 1913L857 1797L633 1990L410 1797L232 1911L516 2219Z" />
<glyph unicode="&#xcf;" glyph-name="Idieresis" horiz-adv-x="754" d="M569 1522V0H185V1522H569ZM-89 1820T-61 1865T14 1937T118 1964Q205 1964 256 1914T307 1781Q307 1727 280 1681T206 1609T102 1582Q46 1582 3 1605T-65 1670T-89 1766Q-89 1820 -61 1865ZM452
1820T480 1865T555 1937T660 1964Q747 1964 797 1914T848 1781Q848 1727 821 1681T747 1609T643 1582Q587 1582 544 1605T476 1670T452 1766Q452 1820 480 1865Z" />
<glyph unicode="&#xd0;" glyph-name="Eth" horiz-adv-x="1561" d="M1109 1538T1293 1348T1477 799Q1477 542 1387 359T1124 80T711 -16Q613 -16 485 -7Q463 -6 406 -3T307 0H173V675H60V913H173V1522H313Q337 1522 461 1528Q631 1538 730 1538Q1109 1538 1293
1348ZM895 266T988 390T1081 765Q1081 947 1042 1056T922 1214T714 1263Q678 1263 632 1259T556 1250V913H850V675H556V280Q608 265 730 265Q895 266 988 390Z" />
<glyph unicode="&#xd1;" glyph-name="Ntilde" horiz-adv-x="1632" d="M390 1790T432 1843T539 1929T682 1962Q731 1962 767 1951T828 1924T881 1883Q911 1857 934 1844T988 1831Q1035 1831 1078 1862T1151 1936L1278 1800Q1262 1739 1221 1685T1117 1598T978 1564Q912
1564 871 1584T785 1642Q749 1671 725 1684T665 1698Q621 1698 579 1668T507 1598L374 1730Q390 1790 432 1843ZM1458 1522V0H1075L582 815L471 1046L518 658V0H173V1522H529L1048 687L1154 465L1113 852V1522H1458Z" />
<glyph unicode="&#xd2;" glyph-name="Ograve" horiz-adv-x="1603" d="M1040 1544T1195 1451T1432 1180T1509 763Q1504 496 1412 322T1158 66T777 -16Q565 -16 411 77T175 342T93 745Q93 1135 280 1327T796 1537Q754 1554 688 1608T558 1731T455 1858L717 1988Q734
1937 824 1833T977 1666L808 1537Q814 1538 826 1538Q1040 1544 1195 1451ZM955 263T1036 385T1117 774Q1117 995 1042 1123T819 1252Q667 1252 576 1136T485 758Q485 611 520 500T627 326T803 263Q955 263 1036 385Z" />
<glyph unicode="&#xd3;" glyph-name="Oacute" horiz-adv-x="1603" d="M743 1764T835 1870T944 2028L1206 1898Q1165 1836 1099 1765T967 1641T857 1574L684 1706Q743 1764 835 1870ZM100 1156T295 1342T826 1538Q1040 1544 1195 1451T1432 1180T1509 763Q1504
496 1412 322T1158 66T777 -16Q561 -16 405 80T169 354T93 769Q100 1156 295 1342ZM1117 995T1042 1123T819 1252Q667 1252 576 1136T485 758Q485 611 520 500T627 326T803 263Q955 263 1036 385T1117 774Q1117 995 1042 1123Z" />
<glyph unicode="&#xd4;" glyph-name="Ocircumflex" horiz-adv-x="1603" d="M100 1156T295 1342T826 1538Q1040 1544 1195 1451T1432 1180T1509 763Q1504 496 1412 322T1158 66T777 -16Q561 -16 405 80T169 354T93 769Q100 1156 295 1342ZM1117 995T1042 1123T819
1252Q667 1252 576 1136T485 758Q485 611 520 500T627 326T803 263Q955 263 1036 385T1117 774Q1117 995 1042 1123ZM712 1963H946L1231 1657L1053 1541L829 1734L606 1541L428 1655L712 1963Z" />
<glyph unicode="&#xd5;" glyph-name="Otilde" horiz-adv-x="1603" d="M397 1790T439 1843T546 1929T689 1962Q738 1962 774 1951T835 1924T888 1883Q918 1857 941 1844T995 1831Q1042 1831 1085 1862T1158 1936L1285 1800Q1269 1739 1228 1685T1124 1598T985 1564Q919
1564 878 1584T792 1642Q756 1671 732 1684T672 1698Q628 1698 586 1668T514 1598L381 1730Q397 1790 439 1843ZM100 1156T295 1342T826 1538Q1040 1544 1195 1451T1432 1180T1509 763Q1504 496 1412 322T1158 66T777 -16Q561 -16 405 80T169 354T93 769Q100 1156
295 1342ZM1117 995T1042 1123T819 1252Q667 1252 576 1136T485 758Q485 611 520 500T627 326T803 263Q955 263 1036 385T1117 774Q1117 995 1042 1123Z" />
<glyph unicode="&#xd6;" glyph-name="Odieresis" horiz-adv-x="1603" d="M363 1820T391 1865T466 1937T570 1964Q657 1964 708 1914T759 1781Q759 1727 732 1681T658 1609T554 1582Q498 1582 455 1605T387 1670T363 1766Q363 1820 391 1865ZM904 1820T932 1865T1007
1937T1112 1964Q1199 1964 1249 1914T1300 1781Q1300 1727 1273 1681T1199 1609T1095 1582Q1039 1582 996 1605T928 1670T904 1766Q904 1820 932 1865ZM100 1156T295 1342T826 1538Q1040 1544 1195 1451T1432 1180T1509 763Q1504 496 1412 322T1158 66T777 -16Q561
-16 405 80T169 354T93 769Q100 1156 295 1342ZM1117 995T1042 1123T819 1252Q667 1252 576 1136T485 758Q485 611 520 500T627 326T803 263Q955 263 1036 385T1117 774Q1117 995 1042 1123Z" />
<glyph unicode="&#xd7;" glyph-name="multiply" horiz-adv-x="1402" d="M149 1172L335 1351L703 952L1069 1351L1255 1172L876 777L1254 392L1067 206L701 593L335 206L149 392L528 775L149 1172Z" />
<glyph unicode="&#xd8;" glyph-name="Oslash" horiz-adv-x="1603" d="M1310 1406T1409 1225T1509 788Q1509 513 1419 334T1166 69T781 -16Q678 -16 595 4L509 -234L375 -209L467 47Q287 130 190 310T93 743Q93 1143 288 1335T826 1538Q916 1541 999 1524L1102
1811L1237 1783L1129 1484Q1310 1406 1409 1225ZM485 636T510 537T584 372L897 1241Q859 1252 819 1252Q667 1252 576 1136T485 758Q485 636 510 537ZM955 263T1036 385T1117 774Q1117 903 1091 1002T1013 1164L696 283Q745 263 803 263Q955 263 1036 385Z" />
<glyph unicode="&#xd9;" glyph-name="Ugrave" horiz-adv-x="1545" d="M709 1547T641 1601T506 1726T400 1858L662 1988Q679 1937 769 1833T922 1666L749 1534Q709 1547 641 1601ZM142 1522H520L517 685Q516 528 544 441T629 319T775 284Q864 284 920 320T1004
444T1032 685V1522H1408V632Q1408 318 1255 151T780 -16Q442 -16 290 155T138 638L142 1522Z" />
<glyph unicode="&#xda;" glyph-name="Uacute" horiz-adv-x="1545" d="M687 1724T779 1830T888 1988L1150 1858Q1109 1796 1043 1725T911 1601T801 1534L628 1666Q687 1724 779 1830ZM142 1522H520L517 685Q516 528 544 441T629 319T775 284Q864 284 920 320T1004
444T1032 685V1522H1408V632Q1408 318 1255 151T780 -16Q442 -16 290 155T138 638L142 1522Z" />
<glyph unicode="&#xdb;" glyph-name="Ucircumflex" horiz-adv-x="1545" d="M142 1522H520L517 685Q516 528 544 441T629 319T775 284Q864 284 920 320T1004 444T1032 685V1522H1408V632Q1408 318 1255 151T780 -16Q442 -16 290 155T138 638L142 1522ZM656 1963H890L1175
1657L997 1541L773 1734L550 1541L372 1655L656 1963Z" />
<glyph unicode="&#xdc;" glyph-name="Udieresis" horiz-adv-x="1545" d="M307 1820T335 1865T410 1937T514 1964Q601 1964 652 1914T703 1781Q703 1727 676 1681T602 1609T498 1582Q442 1582 399 1605T331 1670T307 1766Q307 1820 335 1865ZM848 1820T876 1865T951
1937T1056 1964Q1143 1964 1193 1914T1244 1781Q1244 1727 1217 1681T1143 1609T1039 1582Q983 1582 940 1605T872 1670T848 1766Q848 1820 876 1865ZM142 1522H520L517 685Q516 528 544 441T629 319T775 284Q864 284 920 320T1004 444T1032 685V1522H1408V632Q1408
318 1255 151T780 -16Q442 -16 290 155T138 638L142 1522Z" />
<glyph unicode="&#xdd;" glyph-name="Yacute" horiz-adv-x="1289" d="M837 534V0H448V536L-53 1522H364L590 1030L654 861L708 1030L937 1522H1342L837 534ZM578 1724T670 1830T779 1988L1041 1858Q1000 1796 934 1725T802 1601T692 1534L519 1666Q578 1724 670 1830Z" />
<glyph unicode="&#xde;" glyph-name="Thorn" horiz-adv-x="1393" d="M967 1299T1086 1243T1270 1076T1334 805Q1334 629 1270 501T1080 304T775 235Q664 235 556 245V0H173V1522H556V1287L621 1291Q735 1299 799 1299Q967 1299 1086 1243ZM814 504T886 568T958
791Q958 899 894 960T705 1022Q625 1022 556 1007V513Q588 507 618 506T690 504Q814 504 886 568Z" />
<glyph unicode="&#xdf;" glyph-name="germandbls" horiz-adv-x="1413" d="M1054 869T1078 840T1158 761Q1224 702 1266 654T1340 534T1372 370Q1372 158 1247 71T928 -16Q852 -16 782 -5T689 20V267Q708 255 750 243T833 230Q895 230 941 260T987 363Q987 404
972 439T933 502T869 572Q824 619 796 654T749 736T729 841Q729 885 742 920T776 980T828 1038Q860 1071 878 1094T908 1148T921 1218Q921 1276 884 1311T779 1346Q667 1346 609 1256T550 953V0H176V897H41V1120L193 1150Q242 1369 412 1474T829 1579Q972 1579
1075 1539T1233 1429T1287 1271Q1287 1205 1266 1158T1216 1082T1141 1017Q1095 982 1075 959T1054 901Q1054 869 1078 840Z" />
<glyph unicode="&#xe0;" glyph-name="agrave" horiz-adv-x="1263" d="M812 1160T919 1118T1075 982T1124 729V-16H892Q847 -16 824 -10T788 18T775 88V96Q647 -16 457 -16Q346 -16 262 30T131 160T85 348Q85 447 139 521T290 637Q384 677 503 691T756 706V775Q756
826 740 852T680 888T548 898Q483 898 381 875T204 817L129 1035Q174 1062 255 1091T435 1140T630 1160Q812 1160 919 1118ZM654 212T696 227T756 260V528Q702 527 644 517T556 493Q516 477 492 450T467 367Q467 291 509 252T612 212Q654 212 696 227ZM552 1501T464
1572T296 1731T183 1891L427 2080Q496 1966 596 1834T770 1635L601 1477Q552 1501 464 1572Z" />
<glyph unicode="&#xe1;" glyph-name="aacute" horiz-adv-x="1263" d="M812 1160T919 1118T1075 982T1124 729V-16H892Q847 -16 824 -10T788 18T775 88V96Q647 -16 457 -16Q346 -16 262 30T131 160T85 348Q85 447 139 521T290 637Q384 677 503 691T756 706V775Q756
826 740 852T680 888T548 898Q483 898 381 875T204 817L129 1035Q174 1062 255 1091T435 1140T630 1160Q812 1160 919 1118ZM654 212T696 227T756 260V528Q702 527 644 517T556 493Q516 477 492 450T467 367Q467 291 509 252T612 212Q654 212 696 227ZM562 1470T660
1592T826 1824L1069 1635Q1039 1565 961 1482T796 1329T660 1237L487 1395Q562 1470 660 1592Z" />
<glyph unicode="&#xe2;" glyph-name="acircumflex" horiz-adv-x="1263" d="M812 1160T919 1118T1075 982T1124 729V-16H892Q847 -16 824 -10T788 18T775 88V96Q647 -16 457 -16Q346 -16 262 30T131 160T85 348Q85 447 139 521T290 637Q384 677 503 691T756 706V775Q756
826 740 852T680 888T548 898Q483 898 381 875T204 817L129 1035Q174 1062 255 1091T435 1140T630 1160Q812 1160 919 1118ZM654 212T696 227T756 260V528Q702 527 644 517T556 493Q516 477 492 450T467 367Q467 291 509 252T612 212Q654 212 696 227ZM528 1732H751L1055
1362L878 1248L639 1475L399 1248L223 1362L528 1732Z" />
<glyph unicode="&#xe3;" glyph-name="atilde" horiz-adv-x="1263" d="M812 1160T919 1118T1075 982T1124 729V-16H892Q847 -16 824 -10T788 18T775 88V96Q647 -16 457 -16Q346 -16 262 30T131 160T85 348Q85 447 139 521T290 637Q384 677 503 691T756 706V775Q756
826 740 852T680 888T548 898Q483 898 381 875T204 817L129 1035Q174 1062 255 1091T435 1140T630 1160Q812 1160 919 1118ZM654 212T696 227T756 260V528Q702 527 644 517T556 493Q516 477 492 450T467 367Q467 291 509 252T612 212Q654 212 696 227ZM190 1525T233
1578T341 1663T486 1696Q539 1696 577 1685T639 1658T694 1616Q725 1590 747 1578T800 1565Q848 1565 892 1596T967 1671L1094 1535Q1078 1475 1036 1421T931 1333T790 1299Q743 1299 708 1310T648 1336T592 1377Q555 1406 530 1419T469 1433Q424 1433 381 1403T307
1332L174 1465Q190 1525 233 1578Z" />
<glyph unicode="&#xe4;" glyph-name="adieresis" horiz-adv-x="1263" d="M812 1160T919 1118T1075 982T1124 729V-16H892Q847 -16 824 -10T788 18T775 88V96Q647 -16 457 -16Q346 -16 262 30T131 160T85 348Q85 447 139 521T290 637Q384 677 503 691T756 706V775Q756
826 740 852T680 888T548 898Q483 898 381 875T204 817L129 1035Q174 1062 255 1091T435 1140T630 1160Q812 1160 919 1118ZM654 212T696 227T756 260V528Q702 527 644 517T556 493Q516 477 492 450T467 367Q467 291 509 252T612 212Q654 212 696 227ZM183 1781T211
1827T286 1902T389 1930Q476 1930 526 1878T576 1741Q576 1686 549 1639T475 1564T372 1536Q316 1536 273 1560T207 1628T183 1726Q183 1781 211 1827ZM701 1781T728 1828T803 1902T907 1930Q993 1930 1043 1878T1093 1741Q1093 1686 1066 1639T993 1564T890 1536Q834
1536 791 1560T725 1628T701 1726Q701 1781 728 1828Z" />
<glyph unicode="&#xe5;" glyph-name="aring" horiz-adv-x="1263" d="M812 1160T919 1118T1075 982T1124 729V-16H892Q847 -16 824 -10T788 18T775 88V96Q647 -16 457 -16Q346 -16 262 30T131 160T85 348Q85 447 139 521T290 637Q384 677 503 691T756 706V775Q756
826 740 852T680 888T548 898Q483 898 381 875T204 817L129 1035Q174 1062 255 1091T435 1140T630 1160Q812 1160 919 1118ZM654 212T696 227T756 260V528Q702 527 644 517T556 493Q516 477 492 450T467 367Q467 291 509 252T612 212Q654 212 696 227ZM274 1708T327
1776T463 1874T643 1905Q811 1905 906 1827T1001 1605Q1001 1501 951 1431T817 1328T634 1295Q522 1295 441 1332T317 1439T274 1603Q274 1708 327 1776ZM797 1666T751 1704T633 1742Q565 1742 522 1710T479 1606Q479 1543 523 1504T637 1464Q714 1463 755 1493T797
1599Q797 1666 751 1704Z" />
<glyph unicode="&#xe6;" glyph-name="ae" horiz-adv-x="1877" d="M1792 577T1781 487H1117Q1127 362 1198 306T1400 250Q1481 250 1571 267T1703 308L1760 107Q1698 57 1577 21T1314 -16Q1171 -16 1062 28T881 157Q803 69 694 27T462 -16Q355 -16 271 25T140 146T92
333Q92 434 148 513T303 635Q393 674 511 690T751 706V767Q751 836 703 865T547 894Q488 894 421 881T297 848T214 813L135 1035Q214 1076 345 1118T647 1160Q770 1160 851 1138T983 1062Q1121 1156 1317 1156Q1526 1156 1658 1051T1792 693Q1792 577 1781 487ZM1454
683T1454 710Q1454 815 1420 866T1309 917Q1227 917 1181 861T1120 668H1453Q1454 683 1454 710ZM665 212T717 236T797 299Q757 402 751 528Q692 527 642 518T559 493Q516 475 491 448T466 361Q466 288 508 250T612 212Q665 212 717 236Z" />
<glyph unicode="&#xe7;" glyph-name="ccedilla" horiz-adv-x="1048" d="M960 64T894 36T747 -7Q766 -44 776 -99T786 -208Q786 -335 712 -399T521 -464Q472 -464 411 -456T330 -436L353 -255Q375 -269 427 -269Q478 -269 510 -230T544 -119Q545 -51 527 -8Q380
13 281 90T134 288T85 559Q85 731 148 865T341 1078T664 1156Q773 1156 861 1139T979 1099L937 821Q854 868 714 868Q648 868 591 840T497 745T460 573Q460 413 530 341T717 268Q787 268 849 279T950 309L995 100Q960 64 894 36Z" />
<glyph unicode="&#xe8;" glyph-name="egrave" horiz-adv-x="1221" d="M1136 567T1124 483H455Q467 359 539 303T740 246Q821 246 912 263T1046 304L1103 107Q1041 57 919 21T653 -16Q471 -16 344 54T151 257T85 575Q85 742 153 874T350 1081T657 1156Q867 1156
1000 1051T1136 693Q1136 567 1124 483ZM794 683T794 711Q794 816 760 866T649 917Q566 917 519 861T458 668H793Q794 683 794 711ZM567 1246T479 1317T311 1476T198 1636L442 1825Q511 1711 611 1579T785 1380L616 1222Q567 1246 479 1317Z" />
<glyph unicode="&#xe9;" glyph-name="eacute" horiz-adv-x="1221" d="M576 1471T674 1593T840 1825L1083 1636Q1053 1566 975 1483T810 1330T674 1238L501 1396Q576 1471 674 1593ZM1136 567T1124 483H455Q467 359 539 303T740 246Q821 246 912 263T1046 304L1103
107Q1041 57 919 21T653 -16Q471 -16 344 54T151 257T85 575Q85 742 153 874T350 1081T657 1156Q867 1156 1000 1051T1136 693Q1136 567 1124 483ZM794 683T794 711Q794 816 760 866T649 917Q566 917 519 861T458 668H793Q794 683 794 711Z" />
<glyph unicode="&#xea;" glyph-name="ecircumflex" horiz-adv-x="1221" d="M543 1733H766L1070 1363L893 1249L654 1476L414 1249L238 1363L543 1733ZM1136 567T1124 483H455Q467 359 539 303T740 246Q821 246 912 263T1046 304L1103 107Q1041 57 919 21T653 -16Q471
-16 344 54T151 257T85 575Q85 742 153 874T350 1081T657 1156Q867 1156 1000 1051T1136 693Q1136 567 1124 483ZM794 683T794 711Q794 816 760 866T649 917Q566 917 519 861T458 668H793Q794 683 794 711Z" />
<glyph unicode="&#xeb;" glyph-name="edieresis" horiz-adv-x="1221" d="M197 1526T225 1572T300 1647T403 1675Q490 1675 540 1623T590 1486Q590 1431 563 1384T489 1309T386 1281Q330 1281 287 1305T221 1373T197 1471Q197 1526 225 1572ZM715 1526T742 1573T817
1647T921 1675Q1007 1675 1057 1623T1107 1486Q1107 1431 1080 1384T1007 1309T904 1281Q848 1281 805 1305T739 1373T715 1471Q715 1526 742 1573ZM1136 567T1124 483H455Q467 359 539 303T740 246Q821 246 912 263T1046 304L1103 107Q1041 57 919 21T653 -16Q471
-16 344 54T151 257T85 575Q85 742 153 874T350 1081T657 1156Q867 1156 1000 1051T1136 693Q1136 567 1124 483ZM794 683T794 711Q794 816 760 866T649 917Q566 917 519 861T458 668H793Q794 683 794 711Z" />
<glyph unicode="&#xec;" glyph-name="igrave" horiz-adv-x="690" d="M531 1140V0H159V1140H531ZM258 1245T170 1316T2 1475T-111 1635L133 1824Q202 1710 302 1578T476 1379L307 1221Q258 1245 170 1316Z" />
<glyph unicode="&#xed;" glyph-name="iacute" horiz-adv-x="690" d="M268 1470T366 1592T532 1824L775 1635Q745 1565 667 1482T502 1329T366 1237L193 1395Q268 1470 366 1592ZM531 1140V0H159V1140H531Z" />
<glyph unicode="&#xee;" glyph-name="icircumflex" horiz-adv-x="690" d="M490 1988H713L1017 1618L840 1504L601 1731L361 1504L185 1618L490 1988ZM531 1140V0H159V1140H531Z" />
<glyph unicode="&#xef;" glyph-name="idieresis" horiz-adv-x="690" d="M-96 1525T-69 1572T4 1646T106 1674Q192 1674 240 1623T288 1485Q288 1430 262 1383T191 1308T89 1280Q5 1280 -45 1333T-96 1470Q-96 1525 -69 1572ZM399 1525T426 1572T499 1646T601 1674Q687
1674 735 1623T784 1485Q784 1430 758 1383T686 1308T584 1280Q500 1280 450 1333T399 1470Q399 1525 426 1572ZM531 1140V0H159V1140H531Z" />
<glyph unicode="&#xf0;" glyph-name="eth" horiz-adv-x="1321" d="M894 1508T1011 1359T1191 1030T1254 665Q1254 431 1175 276T962 47T663 -27Q489 -27 358 45T155 249T84 550Q84 722 147 858T330 1071T617 1149Q729 1149 814 1104Q751 1275 582 1407L462 1246L298
1360L423 1520Q316 1587 217 1617L277 1809Q378 1780 439 1758T563 1702Q607 1762 642 1811T689 1877L856 1762Q845 1748 812 1705T736 1607Q894 1508 1011 1359ZM724 230T771 269T847 389T875 592Q875 770 871 821Q847 858 794 884T678 911Q582 911 528 815T474
536Q474 382 526 306T667 230Q724 230 771 269Z" />
<glyph unicode="&#xf1;" glyph-name="ntilde" horiz-adv-x="1380" d="M501 1140L510 1018Q578 1075 681 1116T882 1158Q1001 1161 1077 1119T1192 978T1230 718V0H860V652Q860 736 846 783T801 849T715 867Q672 867 621 847T533 793V0H163V1140H501ZM329 1525T372
1578T480 1663T625 1696Q678 1696 716 1685T778 1658T833 1616Q864 1590 886 1578T939 1565Q987 1565 1031 1596T1106 1671L1233 1535Q1217 1475 1175 1421T1070 1333T929 1299Q882 1299 847 1310T787 1336T731 1377Q694 1406 669 1419T608 1433Q563 1433 520 1403T446
1332L313 1465Q329 1525 372 1578Z" />
<glyph unicode="&#xf2;" glyph-name="ograve" horiz-adv-x="1330" d="M86 763T160 892T368 1089T676 1156Q875 1156 1002 1077T1186 865T1244 563Q1244 379 1170 249T963 51T655 -16Q455 -16 328 63T144 276T86 580Q86 763 160 892ZM859 716T815 807T669 899Q561
899 516 822T471 582Q471 427 516 333T663 239Q770 239 814 317T859 564Q859 716 815 807ZM586 1245T498 1316T330 1475T217 1635L461 1824Q530 1710 630 1578T804 1379L635 1221Q586 1245 498 1316Z" />
<glyph unicode="&#xf3;" glyph-name="oacute" horiz-adv-x="1330" d="M596 1470T694 1592T860 1824L1103 1635Q1073 1565 995 1482T830 1329T694 1237L521 1395Q596 1470 694 1592ZM86 763T160 892T368 1089T676 1156Q875 1156 1002 1077T1186 865T1244 563Q1244
379 1170 249T963 51T655 -16Q455 -16 328 63T144 276T86 580Q86 763 160 892ZM859 716T815 807T669 899Q561 899 516 822T471 582Q471 427 516 333T663 239Q770 239 814 317T859 564Q859 716 815 807Z" />
<glyph unicode="&#xf4;" glyph-name="ocircumflex" horiz-adv-x="1330" d="M562 1732H785L1089 1362L912 1248L673 1475L433 1248L257 1362L562 1732ZM86 763T160 892T368 1089T676 1156Q875 1156 1002 1077T1186 865T1244 563Q1244 379 1170 249T963 51T655 -16Q455
-16 328 63T144 276T86 580Q86 763 160 892ZM859 716T815 807T669 899Q561 899 516 822T471 582Q471 427 516 333T663 239Q770 239 814 317T859 564Q859 716 815 807Z" />
<glyph unicode="&#xf5;" glyph-name="otilde" horiz-adv-x="1330" d="M86 763T160 892T368 1089T676 1156Q875 1156 1002 1077T1186 865T1244 563Q1244 379 1170 249T963 51T655 -16Q455 -16 328 63T144 276T86 580Q86 763 160 892ZM859 716T815 807T669 899Q561
899 516 822T471 582Q471 427 516 333T663 239Q770 239 814 317T859 564Q859 716 815 807ZM224 1525T267 1578T375 1663T520 1696Q573 1696 611 1685T673 1658T728 1616Q759 1590 781 1578T834 1565Q882 1565 926 1596T1001 1671L1128 1535Q1112 1475 1070 1421T965
1333T824 1299Q777 1299 742 1310T682 1336T626 1377Q589 1406 564 1419T503 1433Q458 1433 415 1403T341 1332L208 1465Q224 1525 267 1578Z" />
<glyph unicode="&#xf6;" glyph-name="odieresis" horiz-adv-x="1330" d="M217 1525T245 1571T320 1646T423 1674Q510 1674 560 1622T610 1485Q610 1430 583 1383T509 1308T406 1280Q350 1280 307 1304T241 1372T217 1470Q217 1525 245 1571ZM735 1525T762 1572T837
1646T941 1674Q1027 1674 1077 1622T1127 1485Q1127 1430 1100 1383T1027 1308T924 1280Q868 1280 825 1304T759 1372T735 1470Q735 1525 762 1572ZM86 763T160 892T368 1089T676 1156Q875 1156 1002 1077T1186 865T1244 563Q1244 379 1170 249T963 51T655 -16Q455
-16 328 63T144 276T86 580Q86 763 160 892ZM859 716T815 807T669 899Q561 899 516 822T471 582Q471 427 516 333T663 239Q770 239 814 317T859 564Q859 716 815 807Z" />
<glyph unicode="&#xf7;" glyph-name="divide" horiz-adv-x="1417" d="M519 1296T549 1347T631 1430T744 1461Q806 1461 852 1435T922 1361T947 1254Q947 1194 918 1143T837 1060T725 1029Q665 1029 618 1056T545 1130T519 1237Q519 1296 549 1347ZM1226 908V639H190V908H1226ZM517
364T547 415T628 497T742 528Q803 528 848 502T919 429T944 323Q944 264 915 212T835 129T722 97Q662 97 616 124T543 198T517 305Q517 364 547 415Z" />
<glyph unicode="&#xf8;" glyph-name="oslash" horiz-adv-x="1335" d="M1092 1047T1168 902T1244 563Q1244 379 1170 249T963 51T655 -16Q584 -16 527 -6L445 -234L314 -209L399 28Q238 92 162 238T86 581Q86 763 160 893T368 1089T676 1156Q744 1156 802 1147L888
1384L1021 1356L932 1111Q1092 1047 1168 902ZM458 425T510 334L711 894Q689 899 669 899Q559 899 509 820T458 582Q458 425 510 334ZM771 239T821 319T872 564Q872 716 822 806L618 244Q641 239 663 239Q771 239 821 319Z" />
<glyph unicode="&#xf9;" glyph-name="ugrave" horiz-adv-x="1362" d="M1200 1140V-16H932Q894 -16 879 -5T863 42V90Q803 44 708 14T531 -16Q372 -16 288 44T174 208T145 470V1140H516V461Q516 377 532 331T580 268T667 250Q715 250 761 266T829 303V1140H1200ZM601
1245T513 1316T345 1475T232 1635L476 1824Q545 1710 645 1578T819 1379L650 1221Q601 1245 513 1316Z" />
<glyph unicode="&#xfa;" glyph-name="uacute" horiz-adv-x="1362" d="M610 1470T708 1592T874 1824L1117 1635Q1087 1565 1009 1482T844 1329T708 1237L535 1395Q610 1470 708 1592ZM1200 1140V-16H932Q894 -16 879 -5T863 42V90Q803 44 708 14T531 -16Q372 -16
288 44T174 208T145 470V1140H516V461Q516 377 532 331T580 268T667 250Q715 250 761 266T829 303V1140H1200Z" />
<glyph unicode="&#xfb;" glyph-name="ucircumflex" horiz-adv-x="1362" d="M577 1732H800L1104 1362L927 1248L688 1475L448 1248L272 1362L577 1732ZM1200 1140V-16H932Q894 -16 879 -5T863 42V90Q803 44 708 14T531 -16Q372 -16 288 44T174 208T145 470V1140H516V461Q516
377 532 331T580 268T667 250Q715 250 761 266T829 303V1140H1200Z" />
<glyph unicode="&#xfc;" glyph-name="udieresis" horiz-adv-x="1362" d="M231 1525T259 1571T334 1646T437 1674Q524 1674 574 1622T624 1485Q624 1430 597 1383T523 1308T420 1280Q364 1280 321 1304T255 1372T231 1470Q231 1525 259 1571ZM749 1525T776 1572T851
1646T955 1674Q1041 1674 1091 1622T1141 1485Q1141 1430 1114 1383T1041 1308T938 1280Q882 1280 839 1304T773 1372T749 1470Q749 1525 776 1572ZM1200 1140V-16H932Q894 -16 879 -5T863 42V90Q803 44 708 14T531 -16Q372 -16 288 44T174 208T145 470V1140H516V461Q516
377 532 331T580 268T667 250Q715 250 761 266T829 303V1140H1200Z" />
<glyph unicode="&#xfd;" glyph-name="yacute" horiz-adv-x="1208" d="M1210 1140L851 -27Q792 -219 699 -325T487 -475Q451 -489 394 -498T290 -507Q264 -507 197 -500T121 -487V-203Q140 -209 181 -216T245 -224Q311 -224 363 -210T461 -147T531 0H389L-4 1140H387L551
540L626 227L694 540L822 1140H1210ZM545 1470T643 1592T809 1824L1052 1635Q1022 1565 944 1482T779 1329T643 1237L470 1395Q545 1470 643 1592Z" />
<glyph unicode="&#xfe;" glyph-name="thorn" horiz-adv-x="1381" d="M969 1156T1071 1096T1235 913T1296 612Q1296 421 1222 278T1011 57T692 -21Q614 -21 529 -13L533 -169V-507H159V1661H530V1250L522 1041Q648 1156 844 1156Q969 1156 1071 1096ZM909 751T859
816T717 881Q663 881 612 863T530 821V262Q560 228 686 228Q750 228 801 271T880 397T909 594Q909 751 859 816Z" />
<glyph unicode="&#xff;" glyph-name="ydieresis" horiz-adv-x="1208" d="M1210 1140L851 -27Q792 -219 699 -325T487 -475Q451 -489 394 -498T290 -507Q264 -507 197 -500T121 -487V-203Q140 -209 181 -216T245 -224Q311 -224 363 -210T461 -147T531 0H389L-4
1140H387L551 540L626 227L694 540L822 1140H1210ZM166 1781T194 1827T269 1902T372 1930Q459 1930 509 1878T559 1741Q559 1686 532 1639T458 1564T355 1536Q299 1536 256 1560T190 1628T166 1726Q166 1781 194 1827ZM684 1781T711 1828T786 1902T890 1930Q976
1930 1026 1878T1076 1741Q1076 1686 1049 1639T976 1564T873 1536Q817 1536 774 1560T708 1628T684 1726Q684 1781 711 1828Z" />
<glyph unicode="&#x2013;" glyph-name="endash" horiz-adv-x="1708" d="M1460 904V626H248V904H1460Z" />
<glyph unicode="&#x2014;" glyph-name="emdash" horiz-adv-x="2422" d="M2174 904V626H248V904H2174Z" />
<glyph unicode="&#x2018;" glyph-name="quoteleft" horiz-adv-x="624" d="M110 1418T145 1514T226 1668T313 1756L467 1661V1632Q442 1601 426 1532T410 1382Q410 1323 424 1274T459 1192T500 1147V1068L303 916Q257 933 213 984T139 1115T110 1290Q110 1418 145 1514Z" />
<glyph unicode="&#x2019;" glyph-name="quoteright" horiz-adv-x="624" d="M146 1041Q170 1073 186 1142T202 1291Q202 1350 188 1399T154 1481T113 1525V1604L315 1756Q360 1739 403 1689T474 1561T502 1387Q502 1259 466 1162T384 1006T296 916L146 1012V1041Z" />
<glyph unicode="&#x201a;" glyph-name="quotesinglbase" horiz-adv-x="624" d="M146 -413Q170 -381 186 -312T202 -163Q202 -104 188 -55T154 27T113 71V150L315 302Q360 285 403 235T474 107T502 -67Q502 -195 466 -292T384 -448T296 -538L146 -442V-413Z" />
<glyph unicode="&#x201c;" glyph-name="quotedblleft" horiz-adv-x="1188" d="M110 1418T145 1514T226 1668T313 1756L467 1661V1632Q442 1601 426 1532T410 1382Q410 1323 424 1274T459 1192T500 1147V1068L303 916Q257 933 213 984T139 1115T110 1290Q110 1418
145 1514ZM674 1418T709 1514T790 1668T877 1756L1031 1661V1632Q1006 1601 990 1532T974 1382Q974 1323 988 1274T1023 1192T1064 1147V1068L867 916Q821 933 777 984T703 1115T674 1290Q674 1418 709 1514Z" />
<glyph unicode="&#x201d;" glyph-name="quotedblright" horiz-adv-x="1192" d="M146 1041Q170 1073 186 1142T202 1291Q202 1350 188 1399T154 1481T113 1525V1604L315 1756Q360 1739 403 1689T474 1561T502 1387Q502 1259 466 1162T384 1006T296 916L146 1012V1041ZM714
1041Q738 1073 754 1142T770 1291Q770 1350 756 1399T722 1481T681 1525V1604L883 1756Q928 1739 971 1689T1042 1561T1070 1387Q1070 1259 1034 1162T952 1006T864 916L714 1012V1041Z" />
<glyph unicode="&#x201e;" glyph-name="quotedblbase" horiz-adv-x="1184" d="M146 -410Q170 -378 186 -309T202 -160Q202 -101 188 -52T154 30T113 74V153L315 305Q360 288 403 238T474 110T502 -64Q502 -192 466 -289T384 -445T296 -535L146 -439V-410ZM706
-410Q730 -378 746 -309T762 -160Q762 -101 748 -52T714 30T673 74V153L875 305Q920 288 963 238T1034 110T1062 -64Q1062 -192 1026 -289T944 -445T856 -535L706 -439V-410Z" />
<glyph unicode="&#x2022;" glyph-name="bullet" horiz-adv-x="911" d="M161 798T203 868T316 980T468 1022Q550 1022 614 986T714 887T750 742Q750 663 709 594T597 482T446 440Q365 440 300 476T198 576T161 719Q161 798 203 868Z" />
<glyph unicode="&#x2039;" glyph-name="guilsinglleft" horiz-adv-x="1212" d="M575 615L971 309L885 56L221 473V757L885 1174L971 921L575 615Z" />
<glyph unicode="&#x203a;" glyph-name="guilsinglright" horiz-adv-x="1212" d="M983 757V473L319 56L233 309L629 615L233 921L319 1174L983 757Z" />
</font>
</defs>
</svg>
