<?xml version="1.0" standalone="no"?>
<!DOCTYPE svg PUBLIC "-//W3C//DTD SVG 1.1//EN" "http://www.w3.org/Graphics/SVG/1.1/DTD/svg11.dtd">
<svg xmlns="http://www.w3.org/2000/svg">
<defs >
<font id="Rokkitt" horiz-adv-x="517" ><font-face
    font-family="Rokkitt Thin"
    units-per-em="1000"
    panose-1="0 0 3 0 0 0 0 0 0 0"
    ascent="817"
    descent="-320"
    alphabetic="0" />
<glyph unicode=" " glyph-name="space" horiz-adv-x="269" />
<glyph unicode="!" glyph-name="exclam" horiz-adv-x="103" d="M36 130L31 365V568H61V365L56 130H36ZM35 -7T28 0T20 18Q20 28 27 35T46 42Q58 42 65 36T73 18Q73 7 66 0T46 -7Q35 -7 28 0Z" />
<glyph unicode="&quot;" glyph-name="quotedbl" horiz-adv-x="158" d="M45 454L34 630H66L59 454H45ZM103 454L92 630H124L117 454H103Z" />
<glyph unicode="#" glyph-name="numbersign" horiz-adv-x="463" d="M91 0L106 187H28L30 208H109L123 381H47V402H125L139 564H170L156 402H325L338 564H369L356 402H437L436 381H354L339 208H418V187H337L321 0H290L307 187H137L123 0H91ZM139 208H308L322 381H154L139
208Z" />
<glyph unicode="$" glyph-name="dollar" horiz-adv-x="553" d="M415 281T451 245T487 142Q487 72 440 31T308 -11H298V-88H272V-9Q211 -3 170 21T111 84V0H83V189H111Q111 111 148 67T272 14V274L250 277Q164 289 123 323T82 428Q82 495 128 534T259 573H272V649H298V571Q348
564 383 542T436 486V563H464V412H436Q436 466 400 502T298 548V296L336 291Q415 281 451 245ZM272 300V550H260Q189 550 150 517T110 429Q110 367 146 340T254 302L272 300ZM380 13T419 47T459 140Q459 199 431 227T331 266L298 270V13H308Q380 13 419 47Z" />
<glyph unicode="%" glyph-name="percent" horiz-adv-x="598" d="M77 308T44 345T10 441Q10 499 43 536T128 573Q180 573 213 536T247 441Q247 383 214 346T128 308Q77 308 44 345ZM96 0L478 563H506L125 0H96ZM169 329T195 360T222 441Q222 490 196 521T128 553Q87
553 61 522T35 441Q35 392 61 361T128 329Q169 329 195 360ZM418 -11T385 26T352 123Q352 181 385 218T470 255Q522 255 555 218T588 123Q588 64 555 27T470 -11Q418 -11 385 26ZM511 10T537 42T564 123Q564 172 538 203T470 235Q430 235 404 204T377 123Q377 74
403 42T470 10Q511 10 537 42Z" />
<glyph unicode="&amp;" glyph-name="ampersand" horiz-adv-x="545" d="M150 -11T104 31T57 150Q57 275 186 317Q147 365 127 402T106 472Q106 521 140 548T237 575Q298 575 331 548T365 472Q365 421 327 378T221 308L397 90Q411 113 423 155T436 223H521V201H456Q455
179 441 137T411 71L450 22H521V0H436L395 53Q369 23 328 6T235 -11Q150 -11 104 31ZM269 349T303 387T338 472Q338 510 312 531T237 553Q188 553 160 532T131 472Q131 441 150 409T209 326Q269 349 303 387ZM281 13T318 28T380 71L199 297Q142 281 114 244T85
151Q85 85 124 49T236 13Q281 13 318 28Z" />
<glyph unicode="&apos;" glyph-name="quotesingle" horiz-adv-x="100" d="M45 454L34 630H66L59 454H45Z" />
<glyph unicode="(" glyph-name="parenleft" horiz-adv-x="249" d="M144 -25T96 63T47 258Q47 365 95 453T233 573L234 556Q159 524 119 442T78 259Q78 159 118 76T234 -39L233 -56Q144 -25 96 63Z" />
<glyph unicode=")" glyph-name="parenright" horiz-adv-x="249" d="M42 -39Q117 -7 158 76T199 259Q199 359 158 441T42 556L43 573Q132 541 181 453T230 258Q230 151 181 63T43 -56L42 -39Z" />
<glyph unicode="*" glyph-name="asterisk" horiz-adv-x="459" d="M115 206L91 225L217 384L22 450L32 479L221 399L213 602H246L238 399L426 479L437 450L242 384L367 225L344 207L229 373L115 206Z" />
<glyph unicode="+" glyph-name="plus" horiz-adv-x="468" d="M220 91V268H50V294H220V471H248V294H418V268H248V91H220Z" />
<glyph unicode="," glyph-name="comma" horiz-adv-x="149" d="M40 -50Q57 -50 62 -39T68 0H40V54H89V9Q89 -32 79 -51T40 -70V-50Z" />
<glyph unicode="-" glyph-name="hyphen" horiz-adv-x="433" d="M89 239V262H342V239H89Z" />
<glyph unicode="." glyph-name="period" horiz-adv-x="149" d="M40 0V54H89V0H40Z" />
<glyph unicode="/" glyph-name="slash" horiz-adv-x="277" d="M10 -140L280 593H307L37 -140H10Z" />
<glyph unicode="0" glyph-name="zero" horiz-adv-x="533" d="M169 -11T117 64T64 279Q64 420 116 496T266 573Q364 573 416 497T469 279Q469 139 417 64T266 -11Q169 -11 117 64ZM350 10T395 79T441 279Q441 411 396 481T266 551Q182 551 137 481T92 279Q92 149
136 80T264 10Q350 10 395 79Z" />
<glyph unicode="1" glyph-name="one" horiz-adv-x="275" d="M51 0V22H131V532L51 511L50 534L159 563V22H239V0H51Z" />
<glyph unicode="2" glyph-name="two" horiz-adv-x="474" d="M406 125V0H59V24L258 222Q324 288 350 331T377 422Q377 481 341 516T239 551Q172 551 133 516T93 418Q93 387 101 358H74Q65 390 65 420Q65 489 112 531T239 573Q316 573 360 533T405 422Q405 370 375
323T275 206L91 24H379V125H406Z" />
<glyph unicode="3" glyph-name="three" horiz-adv-x="462" d="M334 288T371 249T408 147Q408 76 358 33T226 -10Q84 -10 30 99L52 114Q77 62 120 38T226 14Q295 14 337 49T379 146Q379 214 331 249T190 285V307Q280 307 326 338T373 427Q373 486 336 518T228 550Q167
550 123 524T58 450L36 460Q58 514 108 543T228 573Q311 573 356 535T401 427Q401 371 366 337T266 296Q334 288 371 249Z" />
<glyph unicode="4" glyph-name="four" horiz-adv-x="443" d="M195 0V22H285V149H25L20 170L291 563H313V171H413V149H313V22H383V0H195ZM49 171H285V514L49 171Z" />
<glyph unicode="5" glyph-name="five" horiz-adv-x="475" d="M332 356T380 307T429 174Q429 89 377 39T233 -11Q176 -11 126 13T40 83L59 100Q90 58 136 36T233 13Q315 13 358 56T401 174Q401 249 360 290T245 332Q198 332 162 317T95 271L68 283L75 563H408V445H380V540H100L93
300Q160 356 246 356Q332 356 380 307Z" />
<glyph unicode="6" glyph-name="six" horiz-adv-x="412" d="M287 329T334 283T382 160Q382 82 334 36T202 -11Q152 -11 113 10T51 70T28 158Q28 200 41 235T77 309L248 601L274 587L93 287Q116 307 148 318T208 329Q287 329 334 283ZM273 11T313 51T354 159Q354
227 314 267T206 307Q168 307 134 289T78 235T57 153Q57 90 97 51T203 11Q273 11 313 51Z" />
<glyph unicode="7" glyph-name="seven" horiz-adv-x="413" d="M154 0L338 541H38V425H10V563H367V542L181 0H154Z" />
<glyph unicode="8" glyph-name="eight" horiz-adv-x="440" d="M135 -11T86 31T36 145Q36 206 66 248T156 299Q103 317 79 349T55 432Q55 497 99 535T217 573Q295 573 340 536T385 432Q385 378 359 341T280 294Q339 283 371 244T404 145Q404 73 355 31T220 -11Q135
-11 86 31ZM311 318T334 346T357 431Q357 486 321 518T220 550Q157 550 121 518T84 431Q84 371 126 340T265 305Q311 318 334 346ZM291 12T333 48T375 145Q375 212 331 247T182 289Q65 271 65 145Q65 84 107 48T220 12Q291 12 333 48Z" />
<glyph unicode="9" glyph-name="nine" horiz-adv-x="412" d="M258 574T297 553T359 493T382 405Q382 363 369 328T333 254L162 -38L136 -24L317 276Q294 256 262 245T202 234Q123 234 76 280T28 403Q28 481 76 527T208 574Q258 574 297 553ZM242 256T276 274T332
328T353 410Q353 473 313 512T207 552Q137 552 97 512T56 404Q56 336 96 296T204 256Q242 256 276 274Z" />
<glyph unicode=":" glyph-name="colon" horiz-adv-x="149" d="M40 0V54H89V0H40ZM40 339V393H89V339H40Z" />
<glyph unicode=";" glyph-name="semicolon" horiz-adv-x="149" d="M40 -50Q57 -50 62 -39T68 0H40V54H89V9Q89 -32 79 -51T40 -70V-50ZM40 339V393H89V339H40Z" />
<glyph unicode="&lt;" glyph-name="less" horiz-adv-x="413" d="M383 118L50 273V293L383 448V418L88 283L383 148V118Z" />
<glyph unicode="=" glyph-name="equal" horiz-adv-x="467" d="M50 344V370H417V344H50ZM50 186V212H417V186H50Z" />
<glyph unicode="&gt;" glyph-name="greater" horiz-adv-x="413" d="M30 118V148L325 283L30 418V448L363 293V273L30 118Z" />
<glyph unicode="?" glyph-name="question" horiz-adv-x="343" d="M135 139Q135 178 146 207T176 258T227 312Q259 343 276 373T293 443Q293 494 262 522T174 551Q118 551 83 524T46 448H18Q21 506 64 539T174 573Q243 573 283 538T323 443Q323 401 303 368T243
295Q214 266 198 246T173 200T163 139V130H135V139ZM137 -10T129 -3T121 16Q121 27 129 34T149 42Q161 42 169 35T177 16Q177 5 169 -2T149 -10Q137 -10 129 -3Z" />
<glyph unicode="@" glyph-name="at" horiz-adv-x="678" d="M269 -14T198 25T92 128T57 267Q57 343 94 412T201 525T367 568Q455 568 513 535T598 449T626 332Q626 274 604 226T548 149T479 121Q459 121 445 132T431 171Q431 193 443 229Q426 180 395 151T318 121Q268
121 235 156T202 254Q202 300 220 343T274 413T358 440Q404 440 433 412T462 335L483 430H502L458 232Q450 194 450 175Q450 155 458 147T482 138Q507 138 536 162T585 230T605 332Q605 390 579 440T498 520T365 550Q285 550 221 513T120 411T83 266Q83 187 117
128T217 37T371 4Q475 4 547 51L557 38Q520 12 476 -1T371 -14Q269 -14 198 25ZM358 139T387 165T432 233T449 318Q449 369 424 394T355 420Q297 420 262 372T226 253Q226 200 250 170T321 139Q358 139 387 165Z" />
<glyph unicode="A" glyph-name="A" horiz-adv-x="675" d="M42 0V22H118L311 541H240V563H438V541H365L558 22H633V0H454V22H526L448 235H227L148 22H221V0H42ZM233 256H441L338 538H336L233 256Z" />
<glyph unicode="B" glyph-name="B" horiz-adv-x="633" d="M60 22H145V541H60V563H378Q459 563 501 529T543 426Q543 375 521 340T458 298Q522 287 549 248T577 154Q577 85 536 43T424 0H60V22ZM406 307Q462 307 488 339T515 425Q515 485 480 513T375 541H175V307H406ZM422
22Q480 22 514 58T548 155Q548 213 513 249T408 285H175V22H422Z" />
<glyph unicode="C" glyph-name="C" horiz-adv-x="686" d="M606 125Q563 53 499 21T348 -11Q276 -11 210 21T101 120T58 284Q58 364 94 429T197 533T349 572Q436 572 489 541T578 448V563H605V406L584 399Q545 478 492 513T349 549Q269 549 210 513T119 415T88
283Q88 196 125 135T223 44T349 13Q424 13 486 42T587 138L606 125Z" />
<glyph unicode="D" glyph-name="D" horiz-adv-x="698" d="M60 22H145V541H60V563H395Q474 563 528 520T610 412T637 280Q637 213 610 148T528 42T398 0H60V22ZM393 22Q461 22 510 59T583 156T608 279Q608 343 584 403T511 502T396 541H175V22H393Z" />
<glyph unicode="E" glyph-name="E" horiz-adv-x="597" d="M60 0V22H145V541H60V563H519V402H493V541H175V298H380V381H403V187H381V276H175V22H505V163H531V0H60Z" />
<glyph unicode="F" glyph-name="F" horiz-adv-x="570" d="M60 0V22H145V541H60V563H524V389H500V541H175V301H381V377H402V191H381V278H175V22H260V0H60Z" />
<glyph unicode="G" glyph-name="G" horiz-adv-x="681" d="M612 268V265Q612 158 570 97T469 12T347 -11Q259 -11 194 25T93 128T57 285Q57 373 92 438T193 538T347 573Q415 573 472 545T563 465V563H590V412H568Q541 477 482 513T347 550Q268 550 210 518T119
426T87 285Q87 202 119 141T209 46T347 13Q400 13 453 34T545 108T583 246H459V268H612Z" />
<glyph unicode="H" glyph-name="H" horiz-adv-x="730" d="M60 0V22H145V541H60V563H260V541H175V296H555V541H470V563H669V541H584V22H669V0H470V22H555V273H175V22H260V0H60Z" />
<glyph unicode="I" glyph-name="I" horiz-adv-x="311" d="M55 0V22H140V541H55V563H255V541H170V22H255V0H55Z" />
<glyph unicode="J" glyph-name="J" horiz-adv-x="277" d="M49 -9H109Q137 -9 145 9T154 78V541H89V563H246V541H185V73Q185 29 177 7T151 -24T104 -32H49V-9Z" />
<glyph unicode="K" glyph-name="K" horiz-adv-x="636" d="M60 0V22H145V541H60V563H260V541H175V289L461 541H385V563H579V541H496L211 287L516 22H595V0H404V22H479L175 284V22H260V0H60Z" />
<glyph unicode="L" glyph-name="L" d="M60 0V22H145V541H60V563H260V541H175V22H466V182H491V0H60Z" />
<glyph unicode="M" glyph-name="M" horiz-adv-x="711" d="M26 0V22H101V541H26V563H135L361 104L574 563H685V541H610V22H685V0H504V22H581V514L363 48H357L128 514V22H204V0H26Z" />
<glyph unicode="N" glyph-name="N" horiz-adv-x="705" d="M64 0V22H136V541H64V563H164L577 42V541H502V563H667V541H604V0H574L164 518V22H237V0H64Z" />
<glyph unicode="O" glyph-name="O" horiz-adv-x="710" d="M259 -11T193 31T94 139T61 279Q61 353 94 420T193 530T355 573Q450 573 517 531T617 421T650 279Q650 205 617 139T518 31T354 -11Q259 -11 193 31ZM441 13T500 51T590 151T620 279Q620 346 590 408T500
510T355 550Q269 550 210 511T121 409T91 279Q91 210 120 149T208 51T355 13Q441 13 500 51Z" />
<glyph unicode="P" glyph-name="P" horiz-adv-x="593" d="M60 22H145V541H60V563H361Q439 563 482 524T525 414Q525 333 483 288T365 243H221L222 264H365Q427 264 461 303T495 413Q495 474 460 507T362 541H175V22H260V0H60V22Z" />
<glyph unicode="Q" glyph-name="Q" horiz-adv-x="703" d="M461 -103T423 -79T347 -11Q253 -9 189 33T93 141T61 279Q61 353 94 420T193 530T355 573Q450 573 517 531T617 421T650 279Q650 208 620 144T529 38T378 -10Q408 -45 439 -63T507 -82Q537 -82 566 -71V-93Q537
-103 506 -103Q461 -103 423 -79ZM441 13T500 51T590 151T620 279Q620 346 590 408T500 510T355 550Q269 550 210 511T121 409T91 279Q91 210 120 149T208 51T355 13Q441 13 500 51Z" />
<glyph unicode="R" glyph-name="R" horiz-adv-x="631" d="M60 22H145V541H60V563H366Q446 563 486 519T526 413Q526 350 486 308T352 264L503 22H586V0H483L320 263H209V285H340Q427 285 462 322T497 413Q497 466 466 503T368 541H175V22H260V0H60V22Z" />
<glyph unicode="S" glyph-name="S" horiz-adv-x="553" d="M418 281T454 245T490 142Q490 72 443 31T311 -11Q237 -11 186 14T114 84V0H86V189H114Q114 104 159 59T311 13Q383 13 422 47T462 140Q462 199 434 227T334 266L253 277Q167 289 126 323T85 428Q85 495
131 534T262 573Q326 573 372 550T439 486V563H467V412H439Q439 473 393 511T263 550Q192 550 153 517T113 429Q113 367 149 340T257 302L339 291Q418 281 454 245Z" />
<glyph unicode="T" glyph-name="T" horiz-adv-x="560" d="M177 0V22H262V541H51V377H25V563H535V377H508V541H292V22H376V0H177Z" />
<glyph unicode="U" glyph-name="U" horiz-adv-x="729" d="M287 -11T232 13T147 82T116 183V541H42V563H221V541H146V183Q146 133 173 95T248 35T360 13Q428 13 480 34T561 93T590 182V541H517V563H696V541H619V182Q619 124 586 81T495 13T360 -11Q287 -11 232 13Z" />
<glyph unicode="V" glyph-name="V" horiz-adv-x="606" d="M289 0L86 541H19V563H196V541H118L305 37L490 541H414V563H585V541H525L320 0H289Z" />
<glyph unicode="W" glyph-name="W" horiz-adv-x="953" d="M286 0L103 541H35V563H213V541H135L303 38L467 534H490L652 38L817 541H741V563H918V541H847L667 0H636L478 480L318 0H286Z" />
<glyph unicode="X" glyph-name="X" horiz-adv-x="632" d="M54 0V21H121L299 290L132 541H60V563H234V541H160L316 307L469 541H394V563H571V541H499L331 286L508 21H581V0H406V21H480L313 270L151 21H228V0H54Z" />
<glyph unicode="Y" glyph-name="Y" horiz-adv-x="615" d="M210 0V22H292V227L83 541H7V563H190V541H116L309 252L500 541H422V563H606V541H531L322 227V22H405V0H210Z" />
<glyph unicode="Z" glyph-name="Z" horiz-adv-x="602" d="M69 0V23L484 541H108V392H83V563H518V541L103 22H506V178H531V0H69Z" />
<glyph unicode="[" glyph-name="bracketleft" horiz-adv-x="173" d="M78 -65V584H168V561H110V-41H168V-65H78Z" />
<glyph unicode="\" glyph-name="backslash" horiz-adv-x="220" d="M230 -140L10 593H36L256 -140H230Z" />
<glyph unicode="]" glyph-name="bracketright" horiz-adv-x="172" d="M1 -65V-41H59V561H1V584H91V-65H1Z" />
<glyph unicode="^" glyph-name="asciicircum" horiz-adv-x="446" d="M35 391L209 626H243L409 391H382L226 599L63 391H35Z" />
<glyph unicode="_" glyph-name="underscore" horiz-adv-x="350" d="M6 -63V-42H344V-63H6Z" />
<glyph unicode="`" glyph-name="grave" horiz-adv-x="274" d="M158 483L100 606H130L174 483H158Z" />
<glyph unicode="a" glyph-name="a" horiz-adv-x="442" d="M413 22V0H332L325 40Q239 -11 172 -11Q113 -11 77 21T40 106Q40 167 78 194T177 221Q231 221 324 204V263Q324 322 293 351T209 381Q149 381 72 349L63 371Q101 387 139 395T206 403Q285 403 319 364T353
271V22H413ZM68 65T96 38T173 11Q207 11 240 22T324 62V184Q237 201 178 201Q130 201 99 178T68 105Q68 65 96 38Z" />
<glyph unicode="b" glyph-name="b" horiz-adv-x="509" d="M370 403T424 349T479 201Q479 103 422 46T270 -11Q232 -11 195 4T129 46V0H31V22H100V551H35V573H129V349Q162 374 201 388T278 403Q370 403 424 349ZM351 11T400 60T450 195Q450 281 403 331T275 381Q241
381 202 367T129 326V71Q158 43 195 27T268 11Q351 11 400 60Z" />
<glyph unicode="c" glyph-name="c" horiz-adv-x="467" d="M398 59Q364 24 325 7T233 -11Q174 -11 128 16T56 90T30 198Q30 257 56 304T128 377T233 403Q278 403 315 385T369 337V393H396V278H373Q365 324 328 352T235 381Q184 381 144 358T82 292T59 197Q59 144
81 102T143 36T234 12Q280 12 315 28T387 78L398 59Z" />
<glyph unicode="d" glyph-name="d" horiz-adv-x="497" d="M479 22V0H383V42Q354 18 317 4T238 -11Q179 -11 132 15T57 89T30 197Q30 258 56 304T129 377T236 403Q277 403 316 390T383 351V551H317V573H412V22H479ZM59 140T82 99T147 35T240 12Q279 12 316 26T383
67V325Q352 353 315 367T238 381Q186 381 146 358T82 291T59 193Q59 140 82 99Z" />
<glyph unicode="e" glyph-name="e" horiz-adv-x="474" d="M421 189H59Q61 137 85 97T149 35T238 12Q284 12 330 33T402 85L412 63Q375 27 330 8T237 -11Q182 -11 135 14T59 86T30 197Q30 263 58 309T132 380T230 404Q283 404 326 381T395 311T421 195V189ZM394
210Q394 266 371 305T311 363T230 382Q185 382 147 361T85 301T59 210H394Z" />
<glyph unicode="f" glyph-name="f" horiz-adv-x="269" d="M54 22H127V371H52V393H127V502Q127 540 149 561T210 583Q244 583 265 566T289 517L267 508Q259 561 212 561Q187 561 173 546T158 501V393H263V371H158V22H253V0H54V22Z" />
<glyph unicode="g" glyph-name="g" horiz-adv-x="497" d="M484 393V371H417V-8Q417 -97 369 -140T233 -184Q183 -184 93 -161L98 -138Q177 -161 234 -161Q310 -161 349 -123T388 -15V54Q359 28 318 13T238 -3Q179 -3 132 23T58 95T31 201Q31 260 56 306T125 377T227
402Q269 402 313 387T388 345V393H484ZM60 145T83 105T147 42T240 19Q278 19 318 35T388 77V324Q355 350 312 365T229 381Q154 381 107 330T60 197Q60 145 83 105Z" />
<glyph unicode="h" glyph-name="h" horiz-adv-x="482" d="M472 22V0H283V22H368V290Q368 332 342 356T273 380Q213 380 111 327V22H183V0H10V22H82V551H13V573H111V348Q161 376 199 389T276 403Q331 403 363 371T396 282V22H472Z" />
<glyph unicode="i" glyph-name="i" horiz-adv-x="238" d="M99 495T92 502T85 520Q85 531 92 537T111 544Q123 544 130 538T138 520Q138 509 131 502T111 495Q99 495 92 502ZM18 0V22H104V371H19V393H133V22H219V0H18Z" />
<glyph unicode="j" glyph-name="j" horiz-adv-x="202" d="M104 496T96 503T88 521Q88 531 96 537T115 544Q127 544 134 538T142 521Q142 510 135 503T115 496Q104 496 96 503ZM10 -100H42Q79 -100 93 -83T108 -21V373H31V393H139V-20Q139 -72 115 -97T40 -122H10V-100Z" />
<glyph unicode="k" glyph-name="k" horiz-adv-x="478" d="M30 0V22H103V551H34V573H132V207L345 371H267V393H454V371H382L167 205L369 22H457V0H355L132 205V22H204V0H30Z" />
<glyph unicode="l" glyph-name="l" horiz-adv-x="224" d="M28 0V22H101V551H31V573H129V22H202V0H28Z" />
<glyph unicode="m" glyph-name="m" horiz-adv-x="770" d="M767 22V0H579V22H664V290Q664 332 638 356T567 380Q530 380 488 366T405 326Q412 306 412 280V22H486V0H298V22H383V290Q383 332 357 356T287 380Q261 380 220 367T133 330V22H217V0H18V22H104V371H19V393H133V352Q174
376 216 389T292 403Q330 403 356 388T397 345Q447 375 487 389T572 403Q627 403 659 371T692 282V22H767Z" />
<glyph unicode="n" glyph-name="n" horiz-adv-x="497" d="M494 22V0H305V22H390V290Q390 332 364 356T294 380Q231 380 133 325V22H217V0H18V22H104V371H19V393H133V348Q226 403 299 403Q354 403 386 371T419 282V22H494Z" />
<glyph unicode="o" glyph-name="o" horiz-adv-x="481" d="M179 -12T131 15T57 90T30 199Q30 258 57 305T131 378T239 404Q300 404 348 378T424 306T451 199Q451 138 424 90T349 15T239 -12Q179 -12 131 15ZM292 11T333 35T398 101T422 199Q422 252 399 294T334
359T239 382Q187 382 146 359T82 294T59 199Q59 144 82 102T146 35T239 11Q292 11 333 35Z" />
<glyph unicode="p" glyph-name="p" horiz-adv-x="507" d="M337 403T382 377T451 304T476 195Q476 102 422 46T280 -11Q241 -11 199 4T128 46L127 -133H195V-154H30V-133H99V371H37V393H128V351Q159 375 199 389T279 403Q337 403 382 377ZM354 11T401 61T448 195Q448
278 401 328T276 379Q240 379 201 365T128 326V72Q159 44 200 28T278 11Q354 11 401 61Z" />
<glyph unicode="q" glyph-name="q" horiz-adv-x="515" d="M481 -139V-161H316V-139H384V43Q355 18 317 3T238 -12Q178 -12 131 14T57 88T30 197Q30 258 56 305T130 378T237 404Q278 404 316 390T385 351L387 393H477V371H413V-139H481ZM59 140T82 99T147 34T240
11Q277 11 315 26T384 68V327Q353 352 315 367T237 382Q185 382 145 359T82 292T59 193Q59 140 82 99Z" />
<glyph unicode="r" glyph-name="r" horiz-adv-x="364" d="M312 402T344 383L338 360Q321 370 306 374T273 379Q246 379 223 361T185 307T171 226V22H254V0H55V22H142V371H57V393H171V314Q186 360 213 381T272 402Q312 402 344 383Z" />
<glyph unicode="s" glyph-name="s" horiz-adv-x="446" d="M333 194T361 170T390 96Q390 44 348 17T246 -11Q199 -11 158 4T96 41V0H70V117H94L96 66Q121 39 159 25T245 11Q297 11 330 33T363 94Q363 123 351 140T315 166T244 186L179 199Q127 211 100 233T73 300Q73
349 112 376T215 403Q250 403 285 391T343 357V393H369V265H345L341 331Q323 352 288 366T217 381Q168 381 135 360T102 301Q102 266 126 250T196 223L261 209Q333 194 361 170Z" />
<glyph unicode="t" glyph-name="t" horiz-adv-x="282" d="M158 0T126 24T94 107V371H20V393H94V529L123 538V393H238V371H123V109Q123 61 145 42T218 22H257V0H216Q158 0 126 24Z" />
<glyph unicode="u" glyph-name="u" horiz-adv-x="502" d="M480 21V0H382L379 48Q301 -11 215 -11Q149 -11 122 25T94 103V371H18V393H124V104Q124 65 147 39T217 12Q263 12 300 26T377 69V371H304V393H407V21H480Z" />
<glyph unicode="v" glyph-name="v" horiz-adv-x="515" d="M243 0L80 371H8V393H194V371H111L261 23L406 371H324V393H506V371H437L276 0H243Z" />
<glyph unicode="w" glyph-name="w" horiz-adv-x="761" d="M215 0L81 371H16V393H186V371H110L234 22L362 371H292V393H466V371H394L524 23L642 371H574V393H737V371H670L542 0H508L379 346L250 0H215Z" />
<glyph unicode="x" glyph-name="x" horiz-adv-x="527" d="M24 0V22H97L249 203L108 371H36V393H216V371H137L266 218L391 371H312V393H500V371H419L280 201L431 22H505V0H317V22H403L263 187L127 22H202V0H24Z" />
<glyph unicode="y" glyph-name="y" horiz-adv-x="523" d="M115 -96H154Q185 -96 200 -92T224 -77T245 -41L276 30H258L104 371H23V393H205V371H134L281 41L420 371H337V393H514V371H450L271 -47Q257 -78 244 -93T211 -115T155 -122H115V-96Z" />
<glyph unicode="z" glyph-name="z" horiz-adv-x="462" d="M70 0V25L351 372H109V277H83V393H379V365L104 21H361V130H386V0H70Z" />
<glyph unicode="{" glyph-name="braceleft" horiz-adv-x="209" d="M119 -4T102 12T81 61T76 162Q76 207 72 227T54 257T8 267V294Q41 294 55 304T72 335T76 404Q76 471 80 502T101 549T159 566H188V544Q150 544 133 538T110 514T104 454Q104 378 100 344T83 297T43
281Q70 276 82 263T99 215T104 104Q104 65 110 47T133 23T188 17V-4H159Q119 -4 102 12Z" />
<glyph unicode="|" glyph-name="bar" horiz-adv-x="105" d="M40 -140V593H65V-140H40Z" />
<glyph unicode="}" glyph-name="braceright" horiz-adv-x="210" d="M24 17Q62 17 79 23T102 47T108 104Q108 180 112 215T129 263T169 281Q141 284 129 297T113 344T108 454Q108 496 103 514T80 538T24 544V566H53Q93 566 110 550T132 502T136 404Q136 356 139
336T157 305T204 294V267Q172 267 158 258T140 228T136 162Q136 93 132 61T110 13T53 -4H24V17Z" />
<glyph unicode="~" glyph-name="asciitilde" horiz-adv-x="420" d="M278 259T257 267T207 291Q176 307 160 314T126 321Q103 321 90 309T76 271H50Q50 303 70 323T124 343Q146 343 166 335T215 311Q243 296 260 289T296 281Q344 281 344 331H370Q370 296 351 278T298
259Q278 259 257 267Z" />
<glyph unicode="&#xa0;" glyph-name="uni00A0" horiz-adv-x="269" />
<glyph unicode="&#xa1;" glyph-name="exclamdown" horiz-adv-x="93" d="M68 420T75 413T83 395Q83 384 76 378T56 371Q45 371 38 378T30 395Q30 406 37 413T56 420Q68 420 75 413ZM46 283H66L71 48V-155H41V48L46 283Z" />
<glyph unicode="&#xa2;" glyph-name="cent" horiz-adv-x="467" d="M365 25T327 8T240 -11V-88H214V-10Q132 -3 81 54T30 198Q30 254 53 299T119 371T214 402V480H240V403Q283 402 317 384T369 337V393H396V278H373Q365 323 329 351T240 381V12Q284 13 318 29T387
78L398 59Q365 25 327 8ZM59 121T102 71T214 13V380Q145 372 102 322T59 197Q59 121 102 71Z" />
<glyph unicode="&#xa3;" glyph-name="sterling" horiz-adv-x="512" d="M472 142V136Q471 74 442 36T360 -3Q323 -3 297 14T236 67Q221 32 190 11T115 -11Q73 -11 47 12T20 73Q20 111 46 136T115 161Q147 161 172 148T223 111Q224 116 224 126Q224 163 208 193T159
269L143 290H53V312H127Q110 339 101 365T91 419Q91 465 114 500T178 554T267 574Q344 574 386 536T433 431H408Q399 550 268 550Q199 550 159 515T119 420Q119 368 156 312H386V290H170L184 271Q216 228 232 196T248 126Q248 106 244 91Q277 57 300 41T356 25Q404
25 425 55T450 142H472ZM153 11T180 32T218 86Q193 111 169 125T115 139Q82 139 64 121T45 73Q45 45 64 28T115 11Q153 11 180 32Z" />
<glyph unicode="&#xa4;" glyph-name="currency" horiz-adv-x="533" d="M496 248T480 208T435 136L503 76L484 57L420 121Q357 66 267 66Q177 66 114 121L49 57L30 76L98 136Q69 167 53 207T37 294Q37 340 53 380T98 451L30 511L49 530L113 466Q177 521 267 521Q357
521 420 466L484 530L503 511L435 451Q464 420 480 380T496 294Q496 248 480 208ZM324 88T370 115T442 189T468 294Q468 352 442 398T370 472T267 499Q210 499 164 472T92 399T65 294Q65 236 91 189T164 115T267 88Q324 88 370 115Z" />
<glyph unicode="&#xa5;" glyph-name="yen" horiz-adv-x="619" d="M425 563H609V541H534L334 240H466V220H325V164H466V144H325V22H408V0H213V22H295V144H153V164H295V220H153V240H286L86 541H10V563H193V541H119L312 252L503 541H425V563Z" />
<glyph unicode="&#xa6;" glyph-name="brokenbar" horiz-adv-x="105" d="M40 293V593H65V293H40ZM40 -140V160H65V-140H40Z" />
<glyph unicode="&#xa7;" glyph-name="section" horiz-adv-x="462" d="M109 -66T109 12Q109 35 129 35Q130 -13 159 -31T245 -49Q358 -49 358 46Q358 75 349 92T312 126T222 176Q169 203 144 220T107 257T96 307Q96 341 117 364T171 395Q142 414 128 437T113 497Q113
545 148 575T245 605Q308 605 338 578T368 514Q368 492 350 492Q346 538 322 563T245 588Q193 588 166 564T139 498Q139 469 148 452T177 421T239 383L258 373Q317 339 345 320T389 280T404 232Q406 199 393 172T352 127Q366 112 373 95T381 49Q381 -5 347 -35T244
-66Q109 -66 109 12ZM362 154T371 176T380 227Q380 249 368 266T329 302T249 350L229 361L182 386Q153 376 137 356T121 309Q121 282 131 266T161 238T235 197L256 186Q316 156 341 137Q362 154 371 176Z" />
<glyph unicode="&#xa8;" glyph-name="dieresis" horiz-adv-x="402" d="M112 484T106 490T100 506Q100 516 106 521T122 527Q132 527 138 522T144 506Q144 496 138 490T122 484Q112 484 106 490ZM270 484T264 489T258 505Q258 515 264 521T280 527Q290 527 296
521T302 505Q302 495 296 490T280 484Q270 484 264 489Z" />
<glyph unicode="&#xa9;" glyph-name="copyright" horiz-adv-x="740" d="M283 -22T212 18T99 128T57 283Q57 368 98 438T211 548T370 588Q456 588 528 548T641 438T683 283Q683 198 642 128T528 18T370 -22Q283 -22 212 18ZM449 -1T514 36T618 139T656 283Q656
362 618 427T515 529T370 567Q291 567 225 530T121 427T83 283Q83 204 121 139T225 37T370 -1Q449 -1 514 36ZM317 81T272 106T201 178T174 285Q174 352 204 397T281 463T375 485Q471 485 506 424L507 475H529V365H506Q501 412 468 438T377 465Q334 465 294 446T227
386T200 284Q200 231 223 190T286 125T371 102Q418 102 455 119T527 170L531 148Q501 115 459 98T371 81Q317 81 272 106Z" />
<glyph unicode="&#xaa;" glyph-name="ordfeminine" horiz-adv-x="330" d="M71 274T46 299T20 360Q20 443 138 443Q176 443 228 435V475Q228 513 208 532T146 551Q84 551 44 521L33 541Q76 573 144 573Q206 573 230 545T255 480V300H306V279H230L229 310Q210 295
179 285T120 274Q71 274 46 299ZM150 295T179 305T228 333V417Q210 419 200 419Q162 423 143 423Q97 423 72 409T46 360Q46 331 65 313T121 295Q150 295 179 305Z" />
<glyph unicode="&#xab;" glyph-name="guillemotleft" horiz-adv-x="374" d="M160 143L29 329L160 512H180L76 329L180 143H160ZM284 143L153 329L284 512H304L200 329L304 143H284Z" />
<glyph unicode="&#xac;" glyph-name="logicalnot" horiz-adv-x="436" d="M361 156L360 268H50V294H385L386 156H361Z" />
<glyph unicode="&#xad;" glyph-name="uni00AD" horiz-adv-x="433" d="M89 239V262H342V239H89Z" />
<glyph unicode="&#xae;" glyph-name="registered" horiz-adv-x="740" d="M261 -11T195 31T96 139T63 280Q63 354 96 422T195 532T357 575Q453 575 520 532T620 422T653 280Q653 206 620 140T520 31T357 -11Q261 -11 195 31ZM444 11T504 50T595 151T626 281Q626
348 596 410T504 513T357 553Q270 553 209 513T118 411T88 281Q88 211 117 149T208 49T357 11Q444 11 504 50ZM209 128H256V453H206V471H389Q439 471 466 446T494 373Q494 333 468 310T392 285L480 129H530V110H465L368 283H279V128H327V110H209V128ZM389 302Q428
302 450 320T472 373Q472 411 450 432T389 453H279V302H389Z" />
<glyph unicode="&#xaf;" glyph-name="overscore" horiz-adv-x="384" d="M100 483V503H284V483H100Z" />
<glyph unicode="&#xb0;" glyph-name="degree" horiz-adv-x="208" d="M60 399T31 428T2 501Q2 545 31 574T104 603Q148 603 177 574T206 501Q206 458 177 429T104 399Q60 399 31 428ZM136 421T157 444T178 502Q178 536 157 558T104 581Q72 581 51 558T30 501Q30
467 51 444T104 421Q136 421 157 444Z" />
<glyph unicode="&#xb1;" glyph-name="plusminus" horiz-adv-x="467" d="M220 130V306H50V330H220V498H248V330H417V306H248V130H220ZM50 62V86H417V62H50Z" />
<glyph unicode="&#xb2;" glyph-name="uni00B2" horiz-adv-x="265" d="M249 389V298H14V318L137 429Q171 460 185 475T209 508T218 550Q217 589 193 611T129 633Q83 633 58 604T33 532Q33 512 37 496H14Q10 513 10 534Q10 586 40 619T129 653Q179 653 210 626T242
549Q242 514 219 484T151 414L43 318H227V389H249Z" />
<glyph unicode="&#xb3;" glyph-name="uni00B3" horiz-adv-x="282" d="M218 465T240 441T262 382Q262 337 229 312T144 286Q100 286 66 305T18 357L37 369Q50 338 78 323T143 307Q187 307 212 326T238 381Q238 420 210 442T125 464V485Q177 485 203 505T230 561Q230
594 208 613T146 633Q112 633 85 617T43 574L25 584Q40 616 72 634T146 653Q196 653 225 629T254 563Q254 529 234 506T180 474Q218 465 240 441Z" />
<glyph unicode="&#xb4;" glyph-name="acute" horiz-adv-x="274" d="M100 483L144 606H174L115 483H100Z" />
<glyph unicode="&#xb5;" glyph-name="uni00B5" horiz-adv-x="519" d="M113 371H28V393H142V104Q142 65 165 39T235 12Q280 12 316 27T395 71V371H322V393H424V21H497V0H400L397 49Q356 20 316 5T233 -11Q172 -11 142 28V-128H113V371Z" />
<glyph unicode="&#xb6;" glyph-name="paragraph" horiz-adv-x="475" d="M239 14H324V324H206Q157 324 124 342T74 389T57 447Q57 474 73 501T123 545T204 563H431V543H353V14H421V-8H239V14ZM236 352H324V543H236V352Z" />
<glyph unicode="&#xb7;" glyph-name="middot" horiz-adv-x="196" d="M86 243T78 250T70 271Q70 284 78 291T98 299Q110 299 118 292T126 271Q126 258 118 251T98 243Q86 243 78 250Z" />
<glyph unicode="&#xb8;" glyph-name="cedilla" horiz-adv-x="308" d="M124 -145T100 -132V-117Q121 -124 140 -124Q178 -124 178 -102Q178 -89 165 -83T118 -75L147 0H163L145 -56Q176 -56 192 -68T208 -101Q208 -123 192 -134T150 -145Q124 -145 100 -132Z" />
<glyph unicode="&#xb9;" glyph-name="uni00B9" horiz-adv-x="183" d="M20 298V318H78V614L25 603L20 624L105 641V318H163V298H20Z" />
<glyph unicode="&#xba;" glyph-name="ordmasculine" horiz-adv-x="359" d="M116 274T73 313T30 424Q30 495 73 534T179 573Q243 573 286 534T329 424Q329 352 286 313T179 274Q116 274 73 313ZM231 296T266 328T301 424Q301 487 266 519T179 551Q128 551 93 519T58
423Q58 360 93 328T179 296Q231 296 266 328Z" />
<glyph unicode="&#xbb;" glyph-name="guillemotright" horiz-adv-x="374" d="M69 143L173 329L69 512H89L221 329L89 143H69ZM193 143L297 329L193 512H213L345 329L213 143H193Z" />
<glyph unicode="&#xbc;" glyph-name="onequarter" horiz-adv-x="581" d="M40 476V496H98V792L45 781L40 802L125 819V496H183V476H40ZM89 0L471 563H499L118 0H89ZM415 0V20H465V93H296L289 112L460 343H488V113H541V93H488V20H538V0H415ZM314 113H465V315L314 113Z" />
<glyph unicode="&#xbd;" glyph-name="onehalf" horiz-adv-x="651" d="M40 475V495H98V791L45 780L40 801L125 818V495H183V475H40ZM90 0L472 563H500L119 0H90ZM611 91V0H376V20L499 131Q533 162 547 177T571 210T580 252Q579 291 555 313T491 335Q445 335 420
306T395 234Q395 214 399 198H376Q372 215 372 236Q372 288 402 321T491 355Q541 355 572 328T604 251Q604 216 581 186T513 116L405 20H589V91H611Z" />
<glyph unicode="&#xbe;" glyph-name="threequarters" horiz-adv-x="658" d="M240 641T262 617T284 558Q284 513 251 488T166 462Q122 462 88 481T40 533L59 545Q72 514 100 499T165 483Q209 483 234 502T260 557Q260 596 232 618T147 640V661Q199 661 225 681T252
737Q252 770 230 789T168 809Q134 809 107 793T65 750L47 760Q62 792 94 810T168 829Q218 829 247 805T276 739Q276 705 256 682T202 650Q240 641 262 617ZM168 0L550 563H578L197 0H168ZM492 0V20H542V93H373L366 112L537 343H565V113H618V93H565V20H615V0H492ZM391
113H542V315L391 113Z" />
<glyph unicode="&#xbf;" glyph-name="questiondown" horiz-adv-x="312" d="M182 418T190 411T198 392Q198 381 190 374T170 366Q158 366 150 373T142 392Q142 403 150 410T170 418Q182 418 190 411ZM184 269Q184 230 173 201T143 150T92 96Q60 65 43 35T26 -35Q26
-86 57 -114T145 -143Q201 -143 236 -116T273 -40H301Q298 -98 255 -131T145 -165Q76 -165 36 -130T-4 -35Q-4 7 16 40T76 113Q105 142 121 162T146 208T156 269V278H184V269Z" />
<glyph unicode="&#xc0;" glyph-name="Agrave" horiz-adv-x="675" d="M42 0V22H118L311 541H240V563H438V541H365L558 22H633V0H454V22H526L448 235H227L148 22H221V0H42ZM233 256H441L338 538H336L233 256ZM327 653L269 776H299L343 653H327Z" />
<glyph unicode="&#xc1;" glyph-name="Aacute" horiz-adv-x="675" d="M42 0V22H118L311 541H240V563H438V541H365L558 22H633V0H454V22H526L448 235H227L148 22H221V0H42ZM233 256H441L338 538H336L233 256ZM333 653L377 776H407L348 653H333Z" />
<glyph unicode="&#xc2;" glyph-name="Acircumflex" horiz-adv-x="675" d="M42 0V22H118L311 541H240V563H438V541H365L558 22H633V0H454V22H526L448 235H227L148 22H221V0H42ZM233 256H441L338 538H336L233 256ZM242 623L328 774H349L434 623H410L338 753L266 623H242Z" />
<glyph unicode="&#xc3;" glyph-name="Atilde" horiz-adv-x="675" d="M42 0V22H118L311 541H240V563H438V541H365L558 22H633V0H454V22H526L448 235H227L148 22H221V0H42ZM233 256H441L338 538H336L233 256ZM378 653T367 658T337 674Q318 684 307 689T285 694Q258
694 258 654H238Q238 681 250 698T285 716Q298 716 309 711T339 695Q358 685 369 680T391 675Q404 675 411 684T418 714H438Q438 683 427 668T391 653Q378 653 367 658Z" />
<glyph unicode="&#xc4;" glyph-name="Adieresis" horiz-adv-x="675" d="M42 0V22H118L311 541H240V563H438V541H365L558 22H633V0H454V22H526L448 235H227L148 22H221V0H42ZM233 256H441L338 538H336L233 256ZM249 654T243 660T237 676Q237 686 243 691T259 697Q269
697 275 692T281 676Q281 666 275 660T259 654Q249 654 243 660ZM407 654T401 659T395 675Q395 685 401 691T417 697Q427 697 433 691T439 675Q439 665 433 660T417 654Q407 654 401 659Z" />
<glyph unicode="&#xc5;" glyph-name="Aring" horiz-adv-x="675" d="M42 0V22H118L311 541H240V563H438V541H365L558 22H633V0H454V22H526L448 235H227L148 22H221V0H42ZM233 256H441L338 538H336L233 256ZM311 633T295 648T279 688Q279 715 294 730T338 746Q366
746 381 731T397 690Q397 664 382 649T339 633Q311 633 295 648ZM357 648T368 659T379 690Q379 709 368 719T339 730Q320 730 309 720T298 690Q298 670 309 659T339 648Q357 648 368 659Z" />
<glyph unicode="&#xc6;" glyph-name="AE" horiz-adv-x="979" d="M32 0V22H118L413 541H345V563H831L858 371H833L808 541H477L514 288H727L714 372H735L769 171H748L731 266H517L553 22H910L885 191H910L939 0H443V22H522L493 212H259L153 22H225V0H32ZM271 233H491L446
541H441L271 233Z" />
<glyph unicode="&#xc7;" glyph-name="Ccedilla" horiz-adv-x="686" d="M564 55T501 23T354 -11L340 -56Q371 -56 387 -68T403 -101Q403 -123 387 -134T345 -145Q319 -145 295 -132V-117Q316 -124 335 -124Q373 -124 373 -102Q373 -89 360 -83T313 -75L338 -11Q267
-8 203 25T99 124T58 284Q58 364 94 429T197 533T349 572Q436 572 489 541T578 448V563H605V406L584 399Q545 478 492 513T349 549Q269 549 210 513T119 415T88 283Q88 196 125 135T223 44T349 13Q424 13 486 42T587 138L606 125Q564 55 501 23Z" />
<glyph unicode="&#xc8;" glyph-name="Egrave" horiz-adv-x="597" d="M60 0V22H145V541H60V563H519V402H493V541H175V298H380V381H403V187H381V276H175V22H505V163H531V0H60ZM316 653L258 776H288L332 653H316Z" />
<glyph unicode="&#xc9;" glyph-name="Eacute" horiz-adv-x="597" d="M60 0V22H145V541H60V563H519V402H493V541H175V298H380V381H403V187H381V276H175V22H505V163H531V0H60ZM322 653L366 776H396L337 653H322Z" />
<glyph unicode="&#xca;" glyph-name="Ecircumflex" horiz-adv-x="597" d="M60 0V22H145V541H60V563H519V402H493V541H175V298H380V381H403V187H381V276H175V22H505V163H531V0H60ZM231 623L317 774H338L423 623H399L327 753L255 623H231Z" />
<glyph unicode="&#xcb;" glyph-name="Edieresis" horiz-adv-x="597" d="M60 0V22H145V541H60V563H519V402H493V541H175V298H380V381H403V187H381V276H175V22H505V163H531V0H60ZM238 654T232 660T226 676Q226 686 232 691T248 697Q258 697 264 692T270 676Q270
666 264 660T248 654Q238 654 232 660ZM396 654T390 659T384 675Q384 685 390 691T406 697Q416 697 422 691T428 675Q428 665 422 660T406 654Q396 654 390 659Z" />
<glyph unicode="&#xcc;" glyph-name="Igrave" horiz-adv-x="311" d="M55 0V22H140V541H55V563H255V541H170V22H255V0H55ZM146 653L88 776H118L162 653H146Z" />
<glyph unicode="&#xcd;" glyph-name="Iacute" horiz-adv-x="311" d="M55 0V22H140V541H55V563H255V541H170V22H255V0H55ZM152 653L196 776H226L167 653H152Z" />
<glyph unicode="&#xce;" glyph-name="Icircumflex" horiz-adv-x="311" d="M55 0V22H140V541H55V563H255V541H170V22H255V0H55ZM61 623L147 774H168L253 623H229L157 753L85 623H61Z" />
<glyph unicode="&#xcf;" glyph-name="Idieresis" horiz-adv-x="311" d="M55 0V22H140V541H55V563H255V541H170V22H255V0H55ZM68 654T62 660T56 676Q56 686 62 691T78 697Q88 697 94 692T100 676Q100 666 94 660T78 654Q68 654 62 660ZM226 654T220 659T214 675Q214
685 220 691T236 697Q246 697 252 691T258 675Q258 665 252 660T236 654Q226 654 220 659Z" />
<glyph unicode="&#xd0;" glyph-name="Eth" horiz-adv-x="698" d="M474 563T528 520T610 412T637 280Q637 213 610 148T528 42T398 0H60V22H145V273H60V296H145V541H60V563H395Q474 563 528 520ZM461 22T510 59T583 156T608 279Q608 343 584 403T511 502T396 541H175V296H313V273H175V22H393Q461
22 510 59Z" />
<glyph unicode="&#xd1;" glyph-name="Ntilde" horiz-adv-x="705" d="M64 0V22H136V541H64V563H164L577 42V541H502V563H667V541H604V0H574L164 518V22H237V0H64ZM392 653T381 658T351 674Q332 684 321 689T299 694Q272 694 272 654H252Q252 681 264 698T299 716Q312
716 323 711T353 695Q372 685 383 680T405 675Q418 675 425 684T432 714H452Q452 683 441 668T405 653Q392 653 381 658Z" />
<glyph unicode="&#xd2;" glyph-name="Ograve" horiz-adv-x="710" d="M259 -11T193 31T94 139T61 279Q61 353 94 420T193 530T355 573Q450 573 517 531T617 421T650 279Q650 205 617 139T518 31T354 -11Q259 -11 193 31ZM441 13T500 51T590 151T620 279Q620 346
590 408T500 510T355 550Q269 550 210 511T121 409T91 279Q91 210 120 149T208 51T355 13Q441 13 500 51ZM343 653L285 776H315L359 653H343Z" />
<glyph unicode="&#xd3;" glyph-name="Oacute" horiz-adv-x="710" d="M259 -11T193 31T94 139T61 279Q61 353 94 420T193 530T355 573Q450 573 517 531T617 421T650 279Q650 205 617 139T518 31T354 -11Q259 -11 193 31ZM441 13T500 51T590 151T620 279Q620 346
590 408T500 510T355 550Q269 550 210 511T121 409T91 279Q91 210 120 149T208 51T355 13Q441 13 500 51ZM349 653L393 776H423L364 653H349Z" />
<glyph unicode="&#xd4;" glyph-name="Ocircumflex" horiz-adv-x="710" d="M259 -11T193 31T94 139T61 279Q61 353 94 420T193 530T355 573Q450 573 517 531T617 421T650 279Q650 205 617 139T518 31T354 -11Q259 -11 193 31ZM441 13T500 51T590 151T620 279Q620
346 590 408T500 510T355 550Q269 550 210 511T121 409T91 279Q91 210 120 149T208 51T355 13Q441 13 500 51ZM258 623L344 774H365L450 623H426L354 753L282 623H258Z" />
<glyph unicode="&#xd5;" glyph-name="Otilde" horiz-adv-x="710" d="M259 -11T193 31T94 139T61 279Q61 353 94 420T193 530T355 573Q450 573 517 531T617 421T650 279Q650 205 617 139T518 31T354 -11Q259 -11 193 31ZM441 13T500 51T590 151T620 279Q620 346
590 408T500 510T355 550Q269 550 210 511T121 409T91 279Q91 210 120 149T208 51T355 13Q441 13 500 51ZM394 653T383 658T353 674Q334 684 323 689T301 694Q274 694 274 654H254Q254 681 266 698T301 716Q314 716 325 711T355 695Q374 685 385 680T407 675Q420
675 427 684T434 714H454Q454 683 443 668T407 653Q394 653 383 658Z" />
<glyph unicode="&#xd6;" glyph-name="Odieresis" horiz-adv-x="710" d="M259 -11T193 31T94 139T61 279Q61 353 94 420T193 530T355 573Q450 573 517 531T617 421T650 279Q650 205 617 139T518 31T354 -11Q259 -11 193 31ZM441 13T500 51T590 151T620 279Q620
346 590 408T500 510T355 550Q269 550 210 511T121 409T91 279Q91 210 120 149T208 51T355 13Q441 13 500 51ZM265 654T259 660T253 676Q253 686 259 691T275 697Q285 697 291 692T297 676Q297 666 291 660T275 654Q265 654 259 660ZM423 654T417 659T411 675Q411
685 417 691T433 697Q443 697 449 691T455 675Q455 665 449 660T433 654Q423 654 417 659Z" />
<glyph unicode="&#xd7;" glyph-name="multiply" horiz-adv-x="412" d="M38 95L20 113L188 281L24 444L43 463L206 299L374 467L392 449L224 281L388 118L369 99L206 263L38 95Z" />
<glyph unicode="&#xd8;" glyph-name="Oslash" horiz-adv-x="649" d="M565 465T592 403T619 275Q619 201 586 135T487 27T323 -15Q223 -15 151 34L98 -35L81 -23L134 46Q83 87 57 148T30 275Q30 349 63 416T162 526T324 569Q425 569 499 518L557 593L572 582L514
506Q565 465 592 403ZM60 214T83 159T150 66L483 497Q416 546 324 546Q238 546 179 507T90 405T60 275Q60 214 83 159ZM410 9T469 47T559 147T589 275Q589 333 566 389T498 485L166 54Q232 9 324 9Q410 9 469 47Z" />
<glyph unicode="&#xd9;" glyph-name="Ugrave" horiz-adv-x="729" d="M287 -11T232 13T147 82T116 183V541H42V563H221V541H146V183Q146 133 173 95T248 35T360 13Q428 13 480 34T561 93T590 182V541H517V563H696V541H619V182Q619 124 586 81T495 13T360 -11Q287
-11 232 13ZM355 653L297 776H327L371 653H355Z" />
<glyph unicode="&#xda;" glyph-name="Uacute" horiz-adv-x="729" d="M287 -11T232 13T147 82T116 183V541H42V563H221V541H146V183Q146 133 173 95T248 35T360 13Q428 13 480 34T561 93T590 182V541H517V563H696V541H619V182Q619 124 586 81T495 13T360 -11Q287
-11 232 13ZM361 653L405 776H435L376 653H361Z" />
<glyph unicode="&#xdb;" glyph-name="Ucircumflex" horiz-adv-x="729" d="M287 -11T232 13T147 82T116 183V541H42V563H221V541H146V183Q146 133 173 95T248 35T360 13Q428 13 480 34T561 93T590 182V541H517V563H696V541H619V182Q619 124 586 81T495 13T360 -11Q287
-11 232 13ZM270 623L356 774H377L462 623H438L366 753L294 623H270Z" />
<glyph unicode="&#xdc;" glyph-name="Udieresis" horiz-adv-x="729" d="M287 -11T232 13T147 82T116 183V541H42V563H221V541H146V183Q146 133 173 95T248 35T360 13Q428 13 480 34T561 93T590 182V541H517V563H696V541H619V182Q619 124 586 81T495 13T360 -11Q287
-11 232 13ZM277 654T271 660T265 676Q265 686 271 691T287 697Q297 697 303 692T309 676Q309 666 303 660T287 654Q277 654 271 660ZM435 654T429 659T423 675Q423 685 429 691T445 697Q455 697 461 691T467 675Q467 665 461 660T445 654Q435 654 429 659Z" />
<glyph unicode="&#xdd;" glyph-name="Yacute" horiz-adv-x="615" d="M210 0V22H292V227L83 541H7V563H190V541H116L309 252L500 541H422V563H606V541H531L322 227V22H405V0H210ZM306 653L350 776H380L321 653H306Z" />
<glyph unicode="&#xde;" glyph-name="Thorn" horiz-adv-x="583" d="M429 446T472 409T515 306Q515 240 474 203T358 166H222V187H358Q418 187 451 218T485 306Q484 362 450 393T353 425H170V22H255V0H55V22H140V541H55V563H255V541H170V446H353Q429 446 472 409Z" />
<glyph unicode="&#xdf;" glyph-name="germandbls" horiz-adv-x="520" d="M412 322T451 281T490 174Q490 82 431 41T259 0V24Q461 24 461 174Q461 248 411 284T269 320H267V343H269Q339 343 374 373T410 455Q410 504 377 532T280 560Q206 560 169 517T132 395V24H191V0H26V24H101V393Q101
485 148 534T280 583Q352 583 395 548T438 455Q438 410 413 378T342 333Q412 322 451 281Z" />
<glyph unicode="&#xe0;" glyph-name="agrave" horiz-adv-x="442" d="M413 22V0H332L325 40Q239 -11 172 -11Q113 -11 77 21T40 106Q40 167 78 194T177 221Q231 221 324 204V263Q324 322 293 351T209 381Q149 381 72 349L63 371Q101 387 139 395T206 403Q285 403
319 364T353 271V22H413ZM68 65T96 38T173 11Q207 11 240 22T324 62V184Q237 201 178 201Q130 201 99 178T68 105Q68 65 96 38ZM207 483L149 606H179L223 483H207Z" />
<glyph unicode="&#xe1;" glyph-name="aacute" horiz-adv-x="442" d="M413 22V0H332L325 40Q239 -11 172 -11Q113 -11 77 21T40 106Q40 167 78 194T177 221Q231 221 324 204V263Q324 322 293 351T209 381Q149 381 72 349L63 371Q101 387 139 395T206 403Q285 403
319 364T353 271V22H413ZM68 65T96 38T173 11Q207 11 240 22T324 62V184Q237 201 178 201Q130 201 99 178T68 105Q68 65 96 38ZM213 483L257 606H287L228 483H213Z" />
<glyph unicode="&#xe2;" glyph-name="acircumflex" horiz-adv-x="442" d="M413 22V0H332L325 40Q239 -11 172 -11Q113 -11 77 21T40 106Q40 167 78 194T177 221Q231 221 324 204V263Q324 322 293 351T209 381Q149 381 72 349L63 371Q101 387 139 395T206 403Q285
403 319 364T353 271V22H413ZM68 65T96 38T173 11Q207 11 240 22T324 62V184Q237 201 178 201Q130 201 99 178T68 105Q68 65 96 38ZM122 453L208 604H229L314 453H290L218 583L146 453H122Z" />
<glyph unicode="&#xe3;" glyph-name="atilde" horiz-adv-x="442" d="M413 22V0H332L325 40Q239 -11 172 -11Q113 -11 77 21T40 106Q40 167 78 194T177 221Q231 221 324 204V263Q324 322 293 351T209 381Q149 381 72 349L63 371Q101 387 139 395T206 403Q285 403
319 364T353 271V22H413ZM68 65T96 38T173 11Q207 11 240 22T324 62V184Q237 201 178 201Q130 201 99 178T68 105Q68 65 96 38ZM258 483T247 488T217 504Q198 514 187 519T165 524Q138 524 138 484H118Q118 511 130 528T165 546Q178 546 189 541T219 525Q238 515
249 510T271 505Q284 505 291 514T298 544H318Q318 513 307 498T271 483Q258 483 247 488Z" />
<glyph unicode="&#xe4;" glyph-name="adieresis" horiz-adv-x="442" d="M413 22V0H332L325 40Q239 -11 172 -11Q113 -11 77 21T40 106Q40 167 78 194T177 221Q231 221 324 204V263Q324 322 293 351T209 381Q149 381 72 349L63 371Q101 387 139 395T206 403Q285
403 319 364T353 271V22H413ZM68 65T96 38T173 11Q207 11 240 22T324 62V184Q237 201 178 201Q130 201 99 178T68 105Q68 65 96 38ZM129 484T123 490T117 506Q117 516 123 521T139 527Q149 527 155 522T161 506Q161 496 155 490T139 484Q129 484 123 490ZM287 484T281
489T275 505Q275 515 281 521T297 527Q307 527 313 521T319 505Q319 495 313 490T297 484Q287 484 281 489Z" />
<glyph unicode="&#xe5;" glyph-name="aring" horiz-adv-x="442" d="M413 22V0H332L325 40Q239 -11 172 -11Q113 -11 77 21T40 106Q40 167 78 194T177 221Q231 221 324 204V263Q324 322 293 351T209 381Q149 381 72 349L63 371Q101 387 139 395T206 403Q285 403
319 364T353 271V22H413ZM68 65T96 38T173 11Q207 11 240 22T324 62V184Q237 201 178 201Q130 201 99 178T68 105Q68 65 96 38ZM191 463T175 478T159 518Q159 545 174 560T218 576Q246 576 261 561T277 520Q277 494 262 479T219 463Q191 463 175 478ZM237 478T248
489T259 520Q259 539 248 549T219 560Q200 560 189 550T178 520Q178 500 189 489T219 478Q237 478 248 489Z" />
<glyph unicode="&#xe6;" glyph-name="ae" horiz-adv-x="768" d="M114 -11T77 18T40 99Q40 157 84 183T197 210H324V263Q324 322 293 351T209 381Q149 381 72 349L63 371Q101 387 139 395T206 403Q275 403 308 371T347 291Q372 345 421 374T528 404Q609 404 662
351T715 195V189H352Q354 137 378 97T443 35T532 12Q578 12 624 33T696 85L706 63Q669 27 624 8T531 -11Q473 -11 424 16T349 94Q327 44 282 17T177 -11Q114 -11 77 18ZM688 210Q688 266 666 305T607 363T528 382Q481 382 442 361T379 301T352 210H688ZM235 11T278
39T336 122Q325 154 324 189H198Q141 189 105 167T68 98Q68 57 96 34T178 11Q235 11 278 39Z" />
<glyph unicode="&#xe7;" glyph-name="ccedilla" horiz-adv-x="467" d="M223 -11L208 -56Q239 -56 255 -68T271 -101Q271 -123 255 -134T213 -145Q187 -145 163 -132V-117Q184 -124 203 -124Q241 -124 241 -102Q241 -89 228 -83T181 -75L206 -9Q128 0 79 57T30
198Q30 257 56 304T128 377T233 403Q278 403 315 385T369 337V393H396V278H373Q365 324 328 352T235 381Q184 381 144 358T82 292T59 197Q59 144 81 102T143 36T234 12Q280 12 315 28T387 78L398 59Q364 24 325 7T233 -11H223Z" />
<glyph unicode="&#xe8;" glyph-name="egrave" horiz-adv-x="474" d="M421 189H59Q61 137 85 97T149 35T238 12Q284 12 330 33T402 85L412 63Q375 27 330 8T237 -11Q182 -11 135 14T59 86T30 197Q30 263 58 309T132 380T230 404Q283 404 326 381T395 311T421 195V189ZM394
210Q394 266 371 305T311 363T230 382Q185 382 147 361T85 301T59 210H394ZM227 483L169 606H199L243 483H227Z" />
<glyph unicode="&#xe9;" glyph-name="eacute" horiz-adv-x="474" d="M421 189H59Q61 137 85 97T149 35T238 12Q284 12 330 33T402 85L412 63Q375 27 330 8T237 -11Q182 -11 135 14T59 86T30 197Q30 263 58 309T132 380T230 404Q283 404 326 381T395 311T421 195V189ZM394
210Q394 266 371 305T311 363T230 382Q185 382 147 361T85 301T59 210H394ZM233 483L277 606H307L248 483H233Z" />
<glyph unicode="&#xea;" glyph-name="ecircumflex" horiz-adv-x="474" d="M421 189H59Q61 137 85 97T149 35T238 12Q284 12 330 33T402 85L412 63Q375 27 330 8T237 -11Q182 -11 135 14T59 86T30 197Q30 263 58 309T132 380T230 404Q283 404 326 381T395 311T421
195V189ZM394 210Q394 266 371 305T311 363T230 382Q185 382 147 361T85 301T59 210H394ZM142 453L228 604H249L334 453H310L238 583L166 453H142Z" />
<glyph unicode="&#xeb;" glyph-name="edieresis" horiz-adv-x="474" d="M421 189H59Q61 137 85 97T149 35T238 12Q284 12 330 33T402 85L412 63Q375 27 330 8T237 -11Q182 -11 135 14T59 86T30 197Q30 263 58 309T132 380T230 404Q283 404 326 381T395 311T421
195V189ZM394 210Q394 266 371 305T311 363T230 382Q185 382 147 361T85 301T59 210H394ZM149 484T143 490T137 506Q137 516 143 521T159 527Q169 527 175 522T181 506Q181 496 175 490T159 484Q149 484 143 490ZM307 484T301 489T295 505Q295 515 301 521T317
527Q327 527 333 521T339 505Q339 495 333 490T317 484Q307 484 301 489Z" />
<glyph unicode="&#xec;" glyph-name="igrave" horiz-adv-x="236" d="M18 0V22H104V371H19V393H133V22H217V0H18ZM100 483L42 606H72L116 483H100Z" />
<glyph unicode="&#xed;" glyph-name="iacute" horiz-adv-x="236" d="M18 0V22H104V371H19V393H133V22H217V0H18ZM106 483L150 606H180L121 483H106Z" />
<glyph unicode="&#xee;" glyph-name="icircumflex" horiz-adv-x="236" d="M18 0V22H104V371H19V393H133V22H217V0H18ZM15 453L101 604H122L207 453H183L111 583L39 453H15Z" />
<glyph unicode="&#xef;" glyph-name="idieresis" horiz-adv-x="236" d="M18 0V22H104V371H19V393H133V22H217V0H18ZM22 484T16 490T10 506Q10 516 16 521T32 527Q42 527 48 522T54 506Q54 496 48 490T32 484Q22 484 16 490ZM180 484T174 489T168 505Q168 515 174
521T190 527Q200 527 206 521T212 505Q212 495 206 490T190 484Q180 484 174 489Z" />
<glyph unicode="&#xf0;" glyph-name="eth" horiz-adv-x="439" d="M315 436T360 357T405 193Q405 129 380 83T311 13T216 -11Q153 -11 109 16T44 88T22 182Q22 238 46 281T113 349T210 373Q307 373 364 301Q319 400 217 503L85 446L73 468L198 521Q161 557 93 615L59
645L75 662Q74 663 92 648Q185 568 222 531L344 583L356 563L240 513Q315 436 360 357ZM297 15T337 65T377 186Q377 240 354 277T293 332T213 350Q173 350 136 332T76 276T52 184Q52 141 69 102T124 39T216 15Q297 15 337 65Z" />
<glyph unicode="&#xf1;" glyph-name="ntilde" horiz-adv-x="497" d="M494 22V0H305V22H390V290Q390 332 364 356T294 380Q231 380 133 325V22H217V0H18V22H104V371H19V393H133V348Q226 403 299 403Q354 403 386 371T419 282V22H494ZM304 483T293 488T263 504Q244
514 233 519T211 524Q184 524 184 484H164Q164 511 176 528T211 546Q224 546 235 541T265 525Q284 515 295 510T317 505Q330 505 337 514T344 544H364Q364 513 353 498T317 483Q304 483 293 488Z" />
<glyph unicode="&#xf2;" glyph-name="ograve" horiz-adv-x="481" d="M179 -12T131 15T57 90T30 199Q30 258 57 305T131 378T239 404Q300 404 348 378T424 306T451 199Q451 138 424 90T349 15T239 -12Q179 -12 131 15ZM292 11T333 35T398 101T422 199Q422 252 399
294T334 359T239 382Q187 382 146 359T82 294T59 199Q59 144 82 102T146 35T239 11Q292 11 333 35ZM227 483L169 606H199L243 483H227Z" />
<glyph unicode="&#xf3;" glyph-name="oacute" horiz-adv-x="481" d="M179 -12T131 15T57 90T30 199Q30 258 57 305T131 378T239 404Q300 404 348 378T424 306T451 199Q451 138 424 90T349 15T239 -12Q179 -12 131 15ZM292 11T333 35T398 101T422 199Q422 252 399
294T334 359T239 382Q187 382 146 359T82 294T59 199Q59 144 82 102T146 35T239 11Q292 11 333 35ZM233 483L277 606H307L248 483H233Z" />
<glyph unicode="&#xf4;" glyph-name="ocircumflex" horiz-adv-x="481" d="M179 -12T131 15T57 90T30 199Q30 258 57 305T131 378T239 404Q300 404 348 378T424 306T451 199Q451 138 424 90T349 15T239 -12Q179 -12 131 15ZM292 11T333 35T398 101T422 199Q422
252 399 294T334 359T239 382Q187 382 146 359T82 294T59 199Q59 144 82 102T146 35T239 11Q292 11 333 35ZM142 453L228 604H249L334 453H310L238 583L166 453H142Z" />
<glyph unicode="&#xf5;" glyph-name="otilde" horiz-adv-x="481" d="M179 -12T131 15T57 90T30 199Q30 258 57 305T131 378T239 404Q300 404 348 378T424 306T451 199Q451 138 424 90T349 15T239 -12Q179 -12 131 15ZM292 11T333 35T398 101T422 199Q422 252 399
294T334 359T239 382Q187 382 146 359T82 294T59 199Q59 144 82 102T146 35T239 11Q292 11 333 35ZM278 483T267 488T237 504Q218 514 207 519T185 524Q158 524 158 484H138Q138 511 150 528T185 546Q198 546 209 541T239 525Q258 515 269 510T291 505Q304 505
311 514T318 544H338Q338 513 327 498T291 483Q278 483 267 488Z" />
<glyph unicode="&#xf6;" glyph-name="odieresis" horiz-adv-x="481" d="M179 -12T131 15T57 90T30 199Q30 258 57 305T131 378T239 404Q300 404 348 378T424 306T451 199Q451 138 424 90T349 15T239 -12Q179 -12 131 15ZM292 11T333 35T398 101T422 199Q422 252
399 294T334 359T239 382Q187 382 146 359T82 294T59 199Q59 144 82 102T146 35T239 11Q292 11 333 35ZM149 484T143 490T137 506Q137 516 143 521T159 527Q169 527 175 522T181 506Q181 496 175 490T159 484Q149 484 143 490ZM307 484T301 489T295 505Q295 515
301 521T317 527Q327 527 333 521T339 505Q339 495 333 490T317 484Q307 484 301 489Z" />
<glyph unicode="&#xf7;" glyph-name="divide" horiz-adv-x="455" d="M210 401V471H246V401H210ZM50 268V294H405V268H50ZM210 91V161H246V91H210Z" />
<glyph unicode="&#xf8;" glyph-name="oslash" horiz-adv-x="497" d="M406 340T428 297T451 199Q451 138 424 90T349 15T239 -12Q187 -12 144 8L96 -70L80 -61L128 17Q82 43 56 91T30 199Q30 258 57 305T131 378T239 404Q302 404 349 378L392 448L408 438L365 368Q406
340 428 297ZM59 146T80 104T141 38L336 357Q294 382 239 382Q187 382 146 359T82 294T59 199Q59 146 80 104ZM292 11T333 35T398 101T422 199Q422 246 404 284T352 347L157 29Q193 11 239 11Q292 11 333 35Z" />
<glyph unicode="&#xf9;" glyph-name="ugrave" horiz-adv-x="502" d="M480 21V0H382L379 48Q301 -11 215 -11Q149 -11 122 25T94 103V371H18V393H124V104Q124 65 147 39T217 12Q263 12 300 26T377 69V371H304V393H407V21H480ZM227 483L169 606H199L243 483H227Z" />
<glyph unicode="&#xfa;" glyph-name="uacute" horiz-adv-x="502" d="M480 21V0H382L379 48Q301 -11 215 -11Q149 -11 122 25T94 103V371H18V393H124V104Q124 65 147 39T217 12Q263 12 300 26T377 69V371H304V393H407V21H480ZM233 483L277 606H307L248 483H233Z" />
<glyph unicode="&#xfb;" glyph-name="ucircumflex" horiz-adv-x="502" d="M480 21V0H382L379 48Q301 -11 215 -11Q149 -11 122 25T94 103V371H18V393H124V104Q124 65 147 39T217 12Q263 12 300 26T377 69V371H304V393H407V21H480ZM142 453L228 604H249L334 453H310L238
583L166 453H142Z" />
<glyph unicode="&#xfc;" glyph-name="udieresis" horiz-adv-x="502" d="M480 21V0H382L379 48Q301 -11 215 -11Q149 -11 122 25T94 103V371H18V393H124V104Q124 65 147 39T217 12Q263 12 300 26T377 69V371H304V393H407V21H480ZM149 484T143 490T137 506Q137 516
143 521T159 527Q169 527 175 522T181 506Q181 496 175 490T159 484Q149 484 143 490ZM307 484T301 489T295 505Q295 515 301 521T317 527Q327 527 333 521T339 505Q339 495 333 490T317 484Q307 484 301 489Z" />
<glyph unicode="&#xfd;" glyph-name="yacute" horiz-adv-x="523" d="M115 -96H154Q185 -96 200 -92T224 -77T245 -41L276 30H258L104 371H23V393H205V371H134L281 41L420 371H337V393H514V371H450L271 -47Q257 -78 244 -93T211 -115T155 -122H115V-96ZM266 483L310
606H340L281 483H266Z" />
<glyph unicode="&#xfe;" glyph-name="thorn" horiz-adv-x="508" d="M28 -133H96V539H21V563H125V349Q159 375 199 389T276 404Q368 404 422 350T477 202Q477 104 421 47T270 -10Q231 -10 193 5T125 49V-133H191V-155H28V-133ZM351 13T399 62T448 196Q448 282 401
332T274 382Q239 382 200 367T125 325V74Q154 45 192 29T268 13Q351 13 399 62Z" />
<glyph unicode="&#xff;" glyph-name="ydieresis" horiz-adv-x="523" d="M115 -96H154Q185 -96 200 -92T224 -77T245 -41L276 30H258L104 371H23V393H205V371H134L281 41L420 371H337V393H514V371H450L271 -47Q257 -78 244 -93T211 -115T155 -122H115V-96ZM182
484T176 490T170 506Q170 516 176 521T192 527Q202 527 208 522T214 506Q214 496 208 490T192 484Q182 484 176 490ZM340 484T334 489T328 505Q328 515 334 521T350 527Q360 527 366 521T372 505Q372 495 366 490T350 484Q340 484 334 489Z" />
<glyph unicode="&#x2013;" glyph-name="endash" horiz-adv-x="603" d="M0 239V262H603V239H0Z" />
<glyph unicode="&#x2014;" glyph-name="emdash" horiz-adv-x="659" d="M0 239V262H659V239H0Z" />
<glyph unicode="&#x2018;" glyph-name="quoteleft" horiz-adv-x="109" d="M89 573Q72 573 67 562T61 523H89V469H40V514Q40 555 50 574T89 593V573Z" />
<glyph unicode="&#x2019;" glyph-name="quoteright" horiz-adv-x="109" d="M20 489Q37 489 42 500T48 539H20V593H69V548Q69 507 59 488T20 469V489Z" />
<glyph unicode="&#x201a;" glyph-name="quotesinglbase" horiz-adv-x="109" d="M276 -50Q293 -50 298 -39T304 0H276V54H325V9Q325 -32 315 -51T276 -70V-50Z" />
<glyph unicode="&#x201c;" glyph-name="quotedblleft" horiz-adv-x="194" d="M89 573Q72 573 67 562T61 523H89V469H40V514Q40 555 50 574T89 593V573ZM174 573Q157 573 152 562T146 523H174V469H125V514Q125 555 135 574T174 593V573Z" />
<glyph unicode="&#x201d;" glyph-name="quotedblright" horiz-adv-x="194" d="M20 489Q37 489 42 500T48 539H20V593H69V548Q69 507 59 488T20 469V489ZM105 489Q122 489 127 500T133 539H105V593H154V548Q154 507 144 488T105 469V489Z" />
<glyph unicode="&#x201e;" glyph-name="quotedblbase" horiz-adv-x="192" d="M276 -50Q293 -50 298 -39T304 0H276V54H325V9Q325 -32 315 -51T276 -70V-50ZM103 -50Q120 -50 125 -39T131 0H103V54H152V9Q152 -32 142 -51T103 -70V-50Z" />
<glyph unicode="&#x2022;" glyph-name="bullet" horiz-adv-x="180" d="M60 187T40 207T20 254Q20 282 40 301T90 321Q121 321 140 302T160 254Q160 226 141 207T90 187Q60 187 40 207Z" />
<glyph unicode="&#x2039;" glyph-name="guilsinglleft" horiz-adv-x="208" d="M135 143L4 329L135 512H155L51 329L155 143H135Z" />
<glyph unicode="&#x203a;" glyph-name="guilsinglright" horiz-adv-x="208" d="M53 143L157 329L53 512H73L204 329L73 143H53Z" />
</font>
</defs>
</svg>
