<?xml version="1.0" standalone="no"?>
<!DOCTYPE svg PUBLIC "-//W3C//DTD SVG 1.1//EN" "http://www.w3.org/Graphics/SVG/1.1/DTD/svg11.dtd">
<svg xmlns="http://www.w3.org/2000/svg">
<defs >
<font id="ConcertOne" horiz-adv-x="1013" ><font-face
    font-family="Concert One"
    units-per-em="2048"
    panose-1="0 0 0 0 0 0 0 0 0 0"
    ascent="2005"
    descent="410"
    alphabetic="0" />
<glyph unicode=" " glyph-name="space" horiz-adv-x="798" />
<glyph unicode="!" glyph-name="exclam" horiz-adv-x="808" d="M506 608Q506 576 503 546T487 493T453 455T392 440Q354 440 332 454T297 492T282 546T278 608L226 932V1176Q226 1218 233 1258T258 1329T308 1379T392 1398Q443 1398 475 1379T525 1328T549 1256T556
1174V928L506 608ZM556 164Q556 79 513 39T392 -2Q312 -2 269 38T226 164Q226 250 269 289T392 328Q475 328 515 289T556 164Z" />
<glyph unicode="&quot;" glyph-name="quotedbl" horiz-adv-x="898" d="M354 1048Q354 1020 351 994T335 948T298 916T234 904Q190 904 165 916T128 948T113 994T110 1048V1260Q110 1285 113 1311T128 1357T165 1391T234 1404Q274 1404 298 1391T334 1358T350 1311T354
1260V1104V1048ZM766 1052Q766 1024 763 998T747 952T710 920T646 908Q602 908 577 920T540 952T525 998T522 1052V1256Q522 1281 525 1307T540 1353T577 1387T646 1400Q686 1400 710 1387T746 1354T762 1307T766 1256V1108V1052Z" />
<glyph unicode="#" glyph-name="numbersign" horiz-adv-x="1268" d="M298 812Q277 812 257 815T222 827T198 855T188 904Q188 938 197 957T222 985T257 996T298 998H428L450 1128Q451 1138 455 1154T469 1185T494 1211T534 1222Q553 1222 572 1219T605 1207T629
1181T638 1136Q638 1133 638 1129T635 1111T629 1071T616 998H786L808 1128Q809 1138 813 1154T827 1185T852 1211T892 1222Q911 1222 930 1219T963 1207T987 1181T996 1136Q996 1133 996 1129T993 1111T987 1071T974 998H1060Q1079 998 1099 996T1134 985T1160
957T1170 904Q1170 873 1160 855T1135 828T1099 815T1060 812H944L904 588H988Q1007 588 1027 586T1062 575T1088 547T1098 494Q1098 462 1088 444T1063 417T1027 405T988 402H872L856 298Q851 269 845 244T828 201T802 171T764 160Q745 160 727 162T693 172T669
197T660 242Q660 245 660 250T663 272T670 318T684 402H514L498 298Q493 269 487 244T470 201T444 171T406 160Q387 160 369 162T335 172T311 197T302 242Q302 245 302 250T305 272T312 318T326 402H228Q207 402 187 404T152 416T128 444T118 494Q118 528 127 547T152
575T187 586T228 588H356L396 812H298ZM546 588H714L754 812H586L546 588Z" />
<glyph unicode="$" glyph-name="dollar" horiz-adv-x="1052" d="M688 748Q759 719 802 692T867 632T897 560T904 468Q904 404 884 354T828 268T742 209T630 178V150Q630 122 627 96T611 50T574 18T510 6Q466 6 441 18T404 50T389 96T386 150V190Q305 209 259 242T189
310T160 377T154 426V442Q154 452 157 472T175 512T221 547T308 562Q318 562 340 560T386 548T426 516T444 456Q444 420 472 401T536 382Q568 382 589 395T610 448Q610 467 599 481T571 507T533 528T490 546L478 552Q398 585 336 618T230 688T165 770T142 870V928Q142
983 160 1023T210 1092T287 1138T386 1164V1240Q386 1265 389 1291T404 1337T441 1371T510 1384Q550 1384 574 1371T610 1338T626 1291T630 1240V1164Q704 1152 753 1126T830 1065T870 992T882 918Q882 879 868 857T831 822T779 807T722 804Q707 804 685 807T642
820T607 846T592 890Q592 909 589 924T577 951T552 968T508 974Q493 974 479 973T455 965T438 945T432 906Q432 874 462 850T535 806T620 773T688 748Z" />
<glyph unicode="%" glyph-name="percent" horiz-adv-x="1484" d="M560 92Q551 77 540 61T515 31T482 9T438 0Q426 0 413 5T384 18Q345 39 329 62T310 110Q312 140 320 161T340 204L916 1310Q924 1326 934 1342T956 1371T983 1392T1018 1400Q1039 1400 1056 1396T1092
1382Q1130 1362 1146 1339T1162 1292Q1162 1262 1153 1239T1132 1198L560 92ZM664 1120Q664 974 591 905T384 836Q247 836 173 905T98 1120Q98 1265 172 1332T384 1400Q527 1400 595 1333T664 1120ZM1384 278Q1384 132 1311 63T1104 -6Q967 -6 893 63T818 278Q818
423 892 490T1104 558Q1247 558 1315 491T1384 278ZM482 1120Q482 1220 384 1220Q336 1220 310 1196T284 1120Q284 1070 310 1045T384 1020Q482 1020 482 1120ZM1202 278Q1202 378 1104 378Q1056 378 1030 354T1004 278Q1004 228 1030 203T1104 178Q1202 178 1202
278Z" />
<glyph unicode="&amp;" glyph-name="ampersand" horiz-adv-x="1296" d="M222 1076Q222 1149 243 1210T308 1315T416 1383T568 1408Q641 1408 706 1384T820 1313T897 1202T926 1056Q926 969 877 881T712 714L846 558L898 620Q931 661 967 690T1046 720Q1085 720
1128 686Q1155 662 1166 639T1178 592Q1178 554 1156 518T1104 446L1022 346L1092 264Q1122 228 1144 191T1166 118Q1166 97 1154 75T1118 32Q1098 15 1077 7T1036 -2Q997 -2 956 34T854 148Q832 119 801 92T728 45T638 12T530 0Q429 0 350 32T217 119T133 248T104
406Q104 463 124 518T179 622T260 711T356 778Q332 814 308 845T265 909T234 983T222 1076ZM500 596Q480 580 461 559T427 513T403 461T394 406Q394 362 407 334T439 290T481 267T520 260Q548 260 569 266T608 286T644 318T684 362L500 596ZM568 1184Q546 1184
530 1174T502 1147T484 1109T478 1066Q478 1060 479 1048T490 1013T520 959T578 882Q605 898 625 919T660 965T681 1014T688 1064Q688 1089 681 1110T658 1148T621 1174T568 1184Z" />
<glyph unicode="&apos;" glyph-name="quotesingle" horiz-adv-x="522" d="M374 1048Q374 1020 371 994T355 948T318 916T254 904Q210 904 185 916T148 948T133 994T130 1048V1260Q130 1285 133 1311T148 1357T185 1391T254 1404Q294 1404 318 1391T354 1358T370
1311T374 1260V1104V1048Z" />
<glyph unicode="(" glyph-name="parenleft" horiz-adv-x="888" d="M814 -40Q814 -65 806 -86T776 -124T720 -149T630 -158Q520 -152 435 -106Q398 -87 363 -57T301 17T257 120T240 258V1198Q240 1289 273 1357T365 1470T502 1539T672 1562Q710 1562 737 1553T781
1527T806 1489T814 1442Q814 1392 782 1358T680 1324Q636 1322 603 1304Q588 1296 575 1284T550 1253T533 1209T526 1150V240Q526 210 532 187T550 148T574 119T603 100Q636 82 680 80Q715 80 740 71T782 45T806 7T814 -40Z" />
<glyph unicode=")" glyph-name="parenright" horiz-adv-x="888" d="M74 -40Q74 -15 81 6T105 44T147 70T208 80Q251 82 285 100Q299 107 313 119T338 147T355 187T362 240V1150Q362 1183 356 1208T338 1252T313 1283T285 1304Q251 1322 208 1324Q173 1324 148
1333T106 1358T82 1395T74 1442Q74 1467 82 1488T107 1526T151 1552T216 1562Q307 1562 385 1539T522 1471T614 1357T648 1198V258Q648 180 631 121T587 18T524 -56T453 -106Q367 -152 258 -158Q204 -158 169 -149T112 -124T83 -87T74 -40Z" />
<glyph unicode="*" glyph-name="asterisk" horiz-adv-x="1194" d="M460 944L472 952V1116Q472 1185 499 1222T598 1260Q667 1260 693 1223T720 1116V952L730 944L878 1044Q927 1078 970 1078Q991 1078 1011 1065T1048 1032T1074 988T1084 942Q1084 910 1065 884T1010
836L828 726V714L1006 608Q1042 587 1063 560T1084 500Q1084 478 1073 454T1046 410T1008 377T968 364Q926 364 872 400L730 496L720 488V304Q720 241 694 203T598 164Q562 164 538 174T499 202T478 246T472 304V488L462 496L322 400Q268 364 226 364Q206 364 186
377T149 410T121 454T110 500Q110 532 131 559T188 608L366 714V726L184 836Q149 857 130 883T110 942Q110 964 120 988T146 1032T182 1065T224 1078Q245 1078 269 1070T316 1044L460 944Z" />
<glyph unicode="+" glyph-name="plus" horiz-adv-x="1102" d="M336 600Q307 600 281 603T235 619T202 655T190 720Q190 764 202 789T234 826T280 841T334 844H432V942Q432 967 435 993T450 1039T487 1073T556 1086Q596 1086 620 1073T656 1040T672 993T676 942V844H776Q801
844 827 841T873 826T907 789T920 720Q920 679 907 656T874 620T827 604T776 600H676V500Q676 472 673 446T657 400T620 368T556 356Q512 356 487 368T450 400T435 446T432 500V600H356H336Z" />
<glyph unicode="," glyph-name="comma" horiz-adv-x="598" d="M464 166Q464 117 453 60T420 -47T363 -130T282 -164Q265 -164 250 -152T234 -114V-106Q235 -96 240 -86T251 -65T261 -45T266 -24Q266 -13 256 -6T232 9T200 27T169 55T144 99T134 166Q134 252 177
291T300 330Q383 330 423 291T464 166Z" />
<glyph unicode="-" glyph-name="hyphen" horiz-adv-x="966" d="M252 480Q224 480 198 483T152 499T120 535T108 600Q108 644 120 669T152 706T198 721T252 724H694Q719 724 745 721T791 706T825 669T838 600Q838 559 825 536T792 500T745 484T694 480H308H252Z" />
<glyph unicode="." glyph-name="period" horiz-adv-x="598" d="M464 166Q464 81 421 41T300 0Q220 0 177 40T134 166Q134 252 177 291T300 330Q383 330 423 291T464 166Z" />
<glyph unicode="/" glyph-name="slash" horiz-adv-x="906" d="M318 74Q310 57 301 40T278 8T247 -16T206 -26Q181 -26 150 -12Q109 6 91 28T70 74Q70 103 76 124T92 168L580 1310Q587 1326 595 1343T614 1373T639 1396T674 1408Q695 1408 712 1405T750 1394Q789
1377 806 1356T826 1310Q826 1280 820 1257T804 1214L318 74Z" />
<glyph unicode="0" glyph-name="zero" horiz-adv-x="1118" d="M102 1000Q102 1097 129 1165T200 1279T295 1350T396 1389T485 1405T544 1408H578Q597 1408 637 1405T725 1389T825 1350T919 1279T989 1166T1016 1000V410Q1016 310 989 240T920 124T826 51T726 12T637
-5T578 -8H544Q525 -8 486 -5T397 11T295 51T200 123T130 240T102 410V1000ZM430 358Q433 323 449 296Q462 273 488 254T562 234Q608 234 634 253T673 296Q688 323 692 358V1034Q688 1069 673 1096Q660 1119 634 1138T562 1158Q515 1158 489 1139T449 1096Q433
1069 430 1034V358Z" />
<glyph unicode="1" glyph-name="one" horiz-adv-x="786" d="M360 962Q327 932 288 915T196 898Q166 898 141 909T97 940T69 985T58 1038Q58 1066 67 1086T92 1122T129 1149T174 1174Q224 1207 263 1241T334 1304T388 1355T428 1384Q438 1389 446 1392T464 1397T484
1399T512 1400Q564 1400 594 1379T640 1325T660 1249T664 1164V236Q664 192 660 150T641 74T595 21T512 0Q459 0 429 20T384 74T364 149T360 236V962Z" />
<glyph unicode="2" glyph-name="two" horiz-adv-x="1060" d="M552 1408Q665 1408 750 1378T893 1293T979 1163T1008 996Q1008 936 992 885T949 792T888 716T819 656Q735 594 630 556Q595 542 561 523T499 478T455 419T438 342V280H786Q828 280 870 276T946 258T1001
217T1022 142Q1022 94 1001 66T946 23T870 4T786 0H288Q238 0 206 16T154 58T128 115T120 178V338Q120 415 145 482T217 605T328 705T472 780Q551 811 598 839T670 895T704 951T712 1008Q712 1060 695 1090T652 1134T599 1152T552 1156Q502 1156 472 1142T427 1105T407
1057T402 1006Q402 967 387 940T350 895T301 870T252 862Q184 862 142 899T100 996Q100 1022 106 1063T129 1150T177 1242T258 1325T380 1385T552 1408Z" />
<glyph unicode="3" glyph-name="three" horiz-adv-x="1026" d="M542 1108V1122H282Q248 1122 212 1126T145 1144T96 1186T76 1262Q76 1309 95 1336T145 1378T211 1396T282 1400H728Q768 1400 799 1387T852 1353T885 1303T896 1246Q896 1229 894 1213T882 1182L702
882Q748 863 792 832T870 752T925 639T946 488Q946 392 926 318T871 188T790 96T691 35T582 2T472 -8Q431 -8 384 0T291 25T202 66T126 125T74 201T54 294Q54 319 61 341T82 381T119 409T172 420Q213 420 248 397T308 326Q314 315 326 301T359 275T409 255T476
246Q534 246 571 264T631 313T661 381T670 458Q670 503 655 541T615 607T557 650T490 666Q442 666 412 695T382 774Q382 795 390 820T416 878L542 1108Z" />
<glyph unicode="4" glyph-name="four" horiz-adv-x="1002" d="M764 926Q813 926 841 913T883 876T902 823T906 758V166Q906 131 902 101T884 49T842 13T766 0Q719 0 691 12T648 46T629 96T624 158V336H282Q220 336 180 346T117 372T84 411T74 456Q74 468 76 480T82
504L284 1206Q294 1243 303 1278T329 1340T375 1383T454 1400Q490 1400 513 1390T551 1364T570 1326T576 1280Q576 1256 572 1232T563 1186T552 1149T544 1124Q544 1124 538 1103T522 1047T500 968T475 877Q444 769 406 632L414 624H624V760Q624 794 628 824T646
876T688 912T764 926Z" />
<glyph unicode="5" glyph-name="five" horiz-adv-x="1026" d="M386 888Q427 903 475 909T562 916Q598 916 642 908T731 881T819 829T895 750T948 637T968 488Q968 392 948 318T893 188T812 96T713 35T604 2T494 -8Q435 -8 370 7T246 54T143 133T82 246Q76 270
76 294Q76 319 83 341T104 381T141 409T194 420Q235 420 270 397T330 326Q336 315 348 301T381 275T431 255T498 246Q556 246 593 264T653 313T683 381T692 458Q692 507 675 542T630 601T565 636T492 648Q460 648 429 640T366 621T302 603T236 594Q213 594 190
599T149 617T120 653T108 710L166 1260Q168 1282 174 1306T194 1352T230 1386T288 1400H688Q725 1400 763 1396T832 1378T882 1337T902 1262Q902 1214 883 1186T833 1144T764 1126T688 1122H448Q440 1122 433 1122T420 1117T411 1105T406 1080L386 888Z" />
<glyph unicode="6" glyph-name="six" horiz-adv-x="992" d="M122 490Q122 537 122 598T123 720T123 830T124 904Q124 962 136 1021T170 1136T225 1239T296 1323T381 1379T478 1400Q513 1398 539 1387T584 1358T611 1318T620 1272Q620 1239 602 1206T546 1144Q516
1120 494 1101T458 1063T435 1023T422 974T416 909T414 822Q424 843 443 857T484 879T532 890T580 894Q608 894 646 889T726 870T807 828T878 758T928 651T948 502V410Q948 310 924 240T861 124T776 51T684 12T601 -5T542 -8Q515 -8 474 -5T385 11T292 51T207 123T146
240T122 410V490ZM414 372Q416 339 429 313Q440 290 464 272T532 254Q576 254 599 272T633 313Q645 339 648 372V518Q645 551 633 577Q622 599 599 617T532 636Q488 636 464 618T429 577Q416 551 414 518V372Z" />
<glyph unicode="7" glyph-name="seven" horiz-adv-x="1012" d="M576 1110V1122H262Q227 1122 190 1126T121 1144T69 1186T48 1262Q48 1309 68 1336T120 1378T189 1396T262 1400H798Q838 1400 869 1387T922 1353T955 1303T966 1246Q966 1229 963 1213T952 1182L664
656Q639 611 625 579T603 517T593 457T590 384V234Q590 190 588 148T570 73T523 20T430 0Q371 0 340 20T294 73T277 148T274 234V384Q274 455 277 500T291 579T318 647T362 728L576 1110Z" />
<glyph unicode="8" glyph-name="eight" horiz-adv-x="1020" d="M390 344Q392 313 406 289Q418 268 443 251T516 234Q561 234 585 251T621 289Q634 313 636 344V534Q634 568 621 594Q610 617 586 635T516 654Q492 654 475 649T444 636T421 616T406 594Q392 568
390 534V344ZM516 1408Q539 1408 577 1406T660 1392T748 1358T829 1293T887 1188T910 1032V1006Q910 944 902 901T879 827T843 777T796 742Q822 727 846 707T889 657T919 584T930 478V368Q930 276 906 213T844 107T758 42T665 8T579 -5T516 -8Q493 -8 453 -6T365
8T269 42T180 107T115 212T90 368V478Q90 540 101 583T130 657T173 707T224 742Q198 757 177 777T141 827T118 900T110 1006V1032Q110 1124 133 1187T194 1293T278 1358T370 1392T454 1405T516 1408ZM390 952Q392 921 406 897Q418 876 443 859T516 842Q561 842
585 859T621 897Q634 921 636 952V1034Q634 1068 621 1094Q610 1117 586 1135T516 1154Q492 1154 475 1149T444 1136T421 1116T406 1094Q392 1068 390 1034V952Z" />
<glyph unicode="9" glyph-name="nine" horiz-adv-x="992" d="M870 908Q870 861 870 800T869 680T869 572T868 498Q868 410 842 322T769 162T658 45T518 0Q482 2 455 13T410 42T383 82T374 128Q374 161 392 194T448 256Q479 279 501 298T538 337T561 377T574 427T580
492T582 580Q571 559 553 545T512 523T464 512T414 508Q386 508 348 513T268 532T187 573T116 643T66 748T46 896V988Q46 1088 70 1158T133 1275T218 1348T310 1388T393 1405T452 1408Q479 1408 521 1405T609 1389T702 1349T786 1276T846 1159T870 988V908ZM582
1026Q580 1059 567 1085Q556 1107 532 1125T464 1144Q420 1144 396 1126T361 1085Q348 1059 346 1026V880Q348 847 361 821Q372 798 396 780T464 762Q508 762 532 780T567 821Q580 847 582 880V1026Z" />
<glyph unicode=":" glyph-name="colon" horiz-adv-x="572" d="M454 166Q454 81 411 41T290 0Q210 0 167 40T124 166Q124 252 167 291T290 330Q373 330 413 291T454 166ZM452 690Q452 605 409 565T288 524Q208 524 165 564T122 690Q122 776 165 815T288 854Q371
854 411 815T452 690Z" />
<glyph unicode=";" glyph-name="semicolon" horiz-adv-x="596" d="M450 688Q450 603 407 563T286 522Q206 522 163 562T120 688Q120 774 163 813T286 852Q369 852 409 813T450 688ZM452 164Q452 115 441 58T408 -49T351 -132T270 -166Q253 -166 238 -154T222 -116V-108Q223
-98 228 -88T239 -67T249 -47T254 -26Q254 -15 244 -8T220 7T188 25T157 53T132 97T122 164Q122 250 165 289T288 328Q371 328 411 289T452 164Z" />
<glyph unicode="&lt;" glyph-name="less" horiz-adv-x="930" d="M222 498Q212 508 202 519T182 543T168 570T162 600Q162 629 180 652T224 702L538 1014Q561 1037 585 1055T640 1074Q660 1074 681 1063T726 1028Q749 1005 758 986T768 946Q768 916 751 891T710
842L464 598L708 358Q732 334 750 310T768 256Q768 236 758 215T722 168Q699 145 680 136T640 126Q611 126 586 144T536 186L222 498Z" />
<glyph unicode="=" glyph-name="equal" horiz-adv-x="1102" d="M328 682Q300 682 274 685T228 701T196 737T184 802Q184 846 196 871T228 908T274 923T328 926H770Q795 926 821 923T867 908T901 871T914 802Q914 761 901 738T868 702T821 686T770 682H384H328ZM324
290Q296 290 270 293T224 309T192 345T180 410Q180 454 192 479T224 516T270 531T324 534H766Q791 534 817 531T863 516T897 479T910 410Q910 369 897 346T864 310T817 294T766 290H380H324Z" />
<glyph unicode="&gt;" glyph-name="greater" horiz-adv-x="930" d="M394 186Q370 162 345 144T290 126Q270 126 251 135T208 168Q182 194 172 215T162 256Q162 285 180 309T222 358L466 598L220 842Q197 865 180 890T162 946Q162 966 171 985T204 1028Q228 1052
249 1063T290 1074Q320 1074 344 1056T392 1014L706 702Q732 676 750 653T768 600Q768 584 763 570T748 543T729 519T708 498L394 186Z" />
<glyph unicode="?" glyph-name="question" horiz-adv-x="1122" d="M1012 1008Q1012 956 994 913T946 834T882 768T813 713T751 667T708 626Q702 618 694 602T686 564Q686 510 653 475T548 440Q505 440 478 453T434 487T411 530T404 572Q404 640 427 686T485 765T560
824T635 876T693 936T716 1020Q716 1072 699 1102T656 1146T603 1164T556 1168Q506 1168 476 1154T431 1117T411 1069T406 1018Q406 979 391 952T354 907T305 882T256 874Q188 874 146 911T104 1008Q104 1034 110 1075T133 1162T181 1254T262 1337T384 1397T556
1420Q669 1420 754 1390T897 1305T983 1175T1012 1008ZM720 166Q720 81 677 41T556 0Q476 0 433 40T390 166Q390 252 433 291T556 330Q639 330 679 291T720 166Z" />
<glyph unicode="@" glyph-name="at" horiz-adv-x="1494" d="M1050 256Q1050 245 1051 233T1056 212T1068 196T1092 190Q1120 190 1143 212T1184 274T1212 370T1222 494Q1222 614 1195 706T1107 862T952 957T722 990Q614 990 523 964T364 880T260 726T222 494Q222
369 251 283T328 141T432 55T545 10T648 -7T722 -10Q735 -10 760 -10T818 -10T887 -10T954 -9T1010 -7T1046 -4Q1069 -1 1088 6T1125 23T1159 41T1192 56Q1197 58 1201 59T1210 60Q1227 60 1236 51T1246 26Q1246 3 1231 -14T1193 -44T1143 -66T1094 -82Q1082 -86
1052 -88T984 -91T903 -94T823 -95T758 -96T722 -96Q652 -96 581 -87T444 -52T321 15T222 123T156 280T132 494Q132 566 142 637T178 774T247 894T355 991T511 1055T722 1078Q891 1078 1003 1036T1182 916T1278 732T1306 494Q1306 406 1290 330T1233 196T1125 107T958
74Q904 74 865 98T816 176Q814 188 813 198T812 218Q804 195 791 172T758 129T709 98T642 86Q599 86 556 100T479 147T422 233T400 364V592Q400 670 422 723T478 809T556 856T642 870Q680 870 708 858T757 827T791 785T812 738Q812 777 823 803T851 844T889 865T932
872Q972 872 995 857T1031 817T1046 759T1050 692V256ZM642 384Q642 363 643 343T652 306T672 280T710 270Q741 270 760 283T791 325T806 398T812 502Q812 527 808 558T792 618T761 666T710 686Q686 686 673 677T652 651T644 615T642 574V384Z" />
<glyph unicode="A" glyph-name="A" horiz-adv-x="1104" d="M394 604H712L564 1140H542L394 604ZM1022 506Q1024 438 1027 367T1030 230V200Q1030 162 1028 127T1012 63T971 17T892 0Q840 0 812 17T771 62T755 126T752 200V340H352V200Q352 162 350 126T334 62T292
17T212 0Q160 0 132 17T91 62T76 126T74 200V230Q74 261 74 296T76 367T78 438T80 506Q130 680 185 858T290 1212Q300 1249 314 1283T351 1343T410 1384T502 1400H602Q657 1400 693 1385T753 1344T789 1284T814 1212L1022 506Z" />
<glyph unicode="B" glyph-name="B" horiz-adv-x="1104" d="M562 1400Q651 1400 729 1377T866 1308T958 1194T992 1034Q992 987 980 949T948 879T905 825T859 786T820 760T796 748Q856 731 897 705T965 647T1008 582T1031 517T1040 459T1042 416Q1042 338 1023
279T973 176T902 102T821 52Q723 6 600 0H272Q215 0 184 19T139 71T123 145T120 230V1172Q120 1215 122 1256T139 1329T184 1380T272 1400H562ZM424 612V236H570Q617 238 654 258Q670 266 685 279T712 311T731 356T738 416Q738 453 731 480T711 528T682 563T650
587Q611 608 562 612H424ZM424 1164V824H552Q595 826 629 844Q643 851 657 863T682 891T699 931T706 984Q706 1018 699 1043T681 1087T655 1119T625 1141Q589 1160 544 1164H424Z" />
<glyph unicode="C" glyph-name="C" horiz-adv-x="1110" d="M556 1408Q666 1408 745 1383T879 1318T967 1228T1017 1125T1040 1025T1046 942Q1046 927 1044 906T1026 864T979 830T886 816Q866 816 836 818T778 831T730 861T710 916Q710 970 704 1013T680 1086T633
1132T556 1148Q507 1148 481 1128T442 1083Q428 1054 426 1018V384Q428 340 442 307Q454 278 480 254T556 230Q603 230 633 249T680 302T703 378T710 468Q710 483 715 499T738 528T791 551T886 560Q946 560 978 547T1026 516T1043 482T1046 460Q1046 350 1009 264T905
117T744 26T538 -6Q520 -6 480 -3T389 13T286 52T190 124T118 240T90 410V968Q90 1050 110 1113T162 1222T237 1300T323 1353Q425 1401 556 1408Z" />
<glyph unicode="D" glyph-name="D" horiz-adv-x="1094" d="M576 1400Q667 1400 745 1377T882 1309T974 1195T1008 1036V416Q1008 338 991 279T947 176T884 102T813 52Q727 6 618 0H286Q229 0 198 19T153 71T137 145T134 230V1172Q134 1215 136 1256T153 1329T198
1380T286 1400H576ZM438 1166V238H568Q611 240 645 258Q659 265 673 277T698 305T715 345T722 398V988Q722 1021 716 1046T698 1091T673 1123T645 1144Q611 1163 568 1166H438Z" />
<glyph unicode="E" glyph-name="E" horiz-adv-x="986" d="M682 1400Q722 1400 763 1397T837 1380T891 1338T912 1258Q912 1207 891 1179T837 1136T763 1119T682 1116H444V844H570Q610 844 650 842T722 826T774 785T794 708Q794 658 774 631T723 591T651 575T570
572H444V284H682Q722 284 763 281T837 265T891 223T912 144Q912 92 891 63T836 20T762 3T682 0H290Q234 0 204 20T159 72T143 146T140 230V1170Q140 1213 142 1254T159 1327T203 1380T290 1400H682Z" />
<glyph unicode="F" glyph-name="F" horiz-adv-x="938" d="M682 1400Q722 1400 763 1396T837 1377T891 1333T912 1252Q912 1201 891 1172T837 1127T763 1108T682 1104H444V844H570Q609 844 650 841T724 824T778 780T800 696Q800 642 779 612T725 568T651 551T570
548H444V230Q444 186 442 145T425 72T379 20T292 0Q235 0 204 19T159 71T143 145T140 230V1170Q140 1213 142 1254T159 1327T204 1380T292 1400H682Z" />
<glyph unicode="G" glyph-name="G" horiz-adv-x="1156" d="M1072 92Q1072 79 1070 62T1057 30T1026 3T972 -8Q934 -8 912 2T879 28T864 61T860 92V152Q812 81 738 37T554 -8Q535 -8 495 -5T405 11T302 50T206 122T134 238T106 408V968Q106 1050 126 1113T178 1222T253
1300T339 1353Q441 1401 572 1408Q683 1408 762 1383T896 1318T984 1228T1035 1125T1058 1025T1064 942Q1064 927 1062 906T1044 865T997 832T904 818Q883 818 853 820T794 833T746 862T726 916Q726 970 720 1012T696 1085T649 1130T572 1146Q523 1146 497 1126T458
1082Q444 1054 442 1018V378Q442 346 453 318T486 269T535 236T598 224Q638 224 670 241T729 288T775 355T812 434H716Q687 437 665 449Q645 459 630 479T614 534Q614 572 629 592T665 623Q687 634 716 636H976Q983 636 998 634T1030 619T1059 584T1072 518V92Z"
/>
<glyph unicode="H" glyph-name="H" horiz-adv-x="1166" d="M146 1170Q146 1213 150 1254T169 1327T215 1380T298 1400Q350 1400 380 1380T426 1328T446 1254T450 1170V856H724V1170Q724 1213 728 1254T747 1327T793 1380T876 1400Q928 1400 958 1380T1004 1328T1024
1254T1028 1170V230Q1028 186 1024 145T1005 72T959 20T876 0Q823 0 793 19T748 71T728 145T724 230V562H450V230Q450 186 446 145T427 72T381 20T298 0Q245 0 215 19T170 71T150 145T146 230V1170Z" />
<glyph unicode="I" glyph-name="I" horiz-adv-x="666" d="M168 1170Q168 1213 172 1254T193 1327T243 1380T334 1400Q392 1400 425 1380T474 1328T495 1254T500 1170V230Q500 186 496 145T476 72T426 20T334 0Q276 0 243 19T194 71T173 145T168 230V1170Z" />
<glyph unicode="J" glyph-name="J" horiz-adv-x="1126" d="M536 -8Q426 -8 347 17T213 82T125 172T75 275T52 375T46 458Q46 473 48 494T66 536T113 570T206 584Q226 584 256 582T314 569T362 538T382 484Q382 430 388 387T412 314T459 268T536 252Q585 252 611
272T650 317Q664 345 666 382V1116H404Q364 1116 324 1120T252 1138T199 1180T178 1256Q178 1305 198 1334T251 1377T324 1396T404 1400H812Q869 1400 902 1380T953 1328T975 1254T980 1170V410Q980 306 950 234T875 116T775 44T671 8T584 -6T536 -8Z" />
<glyph unicode="K" glyph-name="K" horiz-adv-x="1142" d="M140 1172Q140 1215 144 1256T163 1329T208 1380T290 1400Q343 1400 374 1381T420 1329T440 1256T444 1172V812H558Q591 898 624 981Q638 1016 653 1053T682 1127T710 1196T736 1256Q748 1284 761 1310T793
1356T833 1388T886 1400Q915 1400 943 1391T993 1364T1028 1320T1042 1260Q1042 1234 1034 1199T1010 1128L830 702Q882 683 922 640Q939 622 955 597T985 537T1006 460T1014 362V220Q1014 209 1022 202T1038 186Q1058 163 1061 146T1064 118Q1064 82 1051 58T1015
19T963 -2T902 -8Q869 -8 835 2T773 32T728 84T710 156V362Q710 405 704 442T681 507T634 550T556 566H444V230Q444 186 440 145T421 72T374 20T290 0Q238 0 208 19T163 71T144 145T140 230V1172Z" />
<glyph unicode="L" glyph-name="L" horiz-adv-x="968" d="M178 1170Q178 1213 182 1254T201 1327T247 1380T330 1400Q387 1400 419 1380T466 1328T484 1254T488 1170V294H684Q725 294 765 290T836 271T887 227T906 148Q906 97 887 68T837 23T765 4T684 0H400Q347
0 306 4T237 23T193 67T178 148V1170Z" />
<glyph unicode="M" glyph-name="M" horiz-adv-x="1594" d="M784 324Q755 324 735 335T699 363T674 401T656 442L466 990H440V156Q440 124 436 96T419 47T379 13T306 0Q254 0 224 12T179 46T160 96T156 156V1172Q156 1215 158 1256T175 1329T219 1380T306 1400H442Q476
1400 499 1398T543 1381T582 1334T625 1244T680 1095T756 872L782 792H806L838 892Q879 1018 908 1105T959 1248T998 1335T1035 1380T1078 1397T1134 1400H1280Q1336 1400 1366 1381T1411 1329T1427 1256T1430 1172V156Q1430 124 1426 96T1407 47T1362 13T1280
0Q1234 0 1208 12T1168 46T1150 96T1146 156V990H1118L930 442Q922 422 912 401T887 363T852 335T804 324H784Z" />
<glyph unicode="N" glyph-name="N" horiz-adv-x="1360" d="M916 414H940V1244Q940 1276 944 1304T961 1354T1001 1387T1074 1400Q1125 1400 1154 1388T1199 1354T1218 1305T1222 1244V230Q1222 186 1220 145T1204 72T1160 20T1074 0H942Q895 0 864 18T811 63T778
119T758 168L456 986H432V156Q432 124 428 96T411 46T371 13T298 0Q246 0 216 12T171 46T152 95T148 156V1170Q148 1213 150 1254T167 1328T211 1380T298 1400H430Q480 1400 511 1381T563 1338Q585 1311 598 1276L916 414Z" />
<glyph unicode="O" glyph-name="O" horiz-adv-x="1128" d="M104 1004Q104 1100 132 1167T203 1280T299 1350T401 1389T491 1405T550 1408H584Q603 1408 643 1405T732 1389T833 1351T928 1280T998 1168T1026 1004V406Q1026 307 999 238T929 123T834 51T732 11T643
-5T584 -8H550Q531 -8 491 -5T402 11T300 50T204 123T132 238T104 406V1004ZM436 368Q438 331 453 303Q466 278 492 258T568 238Q616 238 642 258T681 303Q695 331 698 368V1020Q695 1056 681 1085Q668 1109 642 1129T568 1150Q519 1150 493 1130T453 1085Q438
1056 436 1020V368Z" />
<glyph unicode="P" glyph-name="P" horiz-adv-x="1082" d="M446 552V228Q446 185 444 144T427 71T381 20T292 0Q236 0 206 19T161 71T145 144T142 228V1172Q142 1215 144 1256T161 1329T205 1380T292 1400H622Q746 1394 844 1348Q886 1328 925 1298T996 1225T1047
1122T1066 984Q1066 877 1033 797T936 662T781 580T574 552H446ZM582 790Q632 793 672 814Q689 823 705 837T734 871T754 920T762 984Q762 1018 755 1043T735 1087T708 1119T677 1141Q639 1160 592 1164H446V790H582Z" />
<glyph unicode="Q" glyph-name="Q" horiz-adv-x="1156" d="M122 1002Q122 1099 150 1167T221 1280T317 1351T419 1389T509 1405T568 1408H602Q621 1408 660 1405T749 1390T851 1352T946 1281T1016 1167T1044 1002V406Q1044 331 1027 272T980 166L1080 76Q1094
62 1104 47T1114 -4Q1114 -19 1107 -39T1080 -80Q1060 -98 1041 -104T1004 -110Q969 -110 951 -101T922 -80L810 26Q772 13 740 6T681 -4T634 -7T602 -8H568Q549 -8 509 -5T420 11T318 50T222 123T150 238T122 406V1002ZM454 368Q456 331 471 303Q484 278 510 258T586
238Q634 238 660 258T699 303Q713 331 716 368V1020Q713 1056 699 1084Q686 1108 660 1128T586 1148Q537 1148 511 1128T471 1084Q456 1056 454 1020V368Z" />
<glyph unicode="R" glyph-name="R" horiz-adv-x="1142" d="M142 1172Q142 1215 144 1256T161 1329T205 1380T292 1400H622Q745 1394 842 1348Q883 1328 922 1299T993 1226T1043 1123T1062 986Q1062 970 1059 944T1046 886T1019 820T974 755T906 698T810 656Q845
642 881 620T946 562T993 478T1012 364V222Q1012 210 1018 202T1030 188Q1054 164 1058 147T1062 118Q1062 83 1048 59T1012 20T961 -1T902 -8Q869 -8 835 2T773 33T728 83T710 152V364Q710 408 704 445T681 509T634 551T556 566H444V232Q444 188 442 146T425 72T380
20T292 0Q236 0 206 19T161 71T145 146T142 232V1172ZM580 790Q630 792 670 814Q687 823 703 837T732 872T752 921T760 986Q760 1019 753 1044T733 1089T706 1121T674 1142Q636 1161 588 1164H444V790H580Z" />
<glyph unicode="S" glyph-name="S" horiz-adv-x="1014" d="M398 1048Q399 1006 422 973T484 909T572 851T672 791T773 722T861 638T924 532T950 398V390Q950 308 930 247T877 142T800 70T708 24T610 0T516 -8H506Q421 -8 357 9T247 54T171 120T122 196T96 275T88
348Q88 383 100 409T131 451T176 476T230 484Q256 484 283 476T333 452T370 410T386 350Q388 275 420 248T512 220Q542 221 567 227T611 250T639 294T650 364Q650 416 627 458T565 536T478 604T378 669T279 737T191 815T129 908T104 1024V1040Q105 1147 132 1218T213
1331T345 1390T524 1408H550Q642 1408 706 1388T812 1337T879 1267T916 1190T931 1119T934 1066Q934 1036 923 1012T892 970T846 944T788 934Q764 934 740 943T697 968T666 1002T654 1042Q654 1124 625 1156T538 1188Q511 1188 486 1185T441 1169T410 1127T398
1048Z" />
<glyph unicode="T" glyph-name="T" horiz-adv-x="982" d="M746 1400Q786 1400 826 1397T900 1380T953 1338T974 1258Q974 1208 954 1180T900 1137T827 1120T746 1116H644V228Q644 185 642 144T625 71T580 20T492 0Q435 0 404 19T359 71T343 144T340 228V1116H238Q198
1116 158 1119T84 1137T31 1179T10 1258Q10 1309 30 1337T84 1380T157 1397T238 1400H746Z" />
<glyph unicode="U" glyph-name="U" horiz-adv-x="1208" d="M142 1172Q142 1215 146 1256T167 1329T217 1380T308 1400Q366 1400 399 1381T449 1329T470 1256T474 1172V384Q477 340 492 306Q498 291 508 277T531 252T563 235T606 228Q630 228 649 234T681 252T705
277T721 306Q736 340 738 384V1172Q738 1215 742 1256T762 1329T812 1380T904 1400Q962 1400 995 1381T1044 1329T1065 1256T1070 1172V410Q1070 306 1037 228T942 98T795 19T606 -8Q502 -8 417 19T271 100T176 231T142 410V1172Z" />
<glyph unicode="V" glyph-name="V" horiz-adv-x="1000" d="M844 1400Q873 1400 900 1390T947 1363T980 1323T992 1272Q992 1259 991 1248T987 1227Q984 1216 982 1208Q914 941 840 664T698 120Q683 86 658 60Q637 37 604 19T520 0H488Q438 0 404 18T349 60Q324
86 310 120L26 1208Q23 1216 21 1227Q16 1247 16 1272Q16 1299 27 1322T59 1363T106 1390T164 1400Q212 1400 241 1379T288 1332Q307 1302 316 1264Q328 1216 342 1156T370 1030T398 898T426 767Q457 619 488 464H520Q554 619 586 767Q599 830 613 897T642 1030T669
1155T692 1264Q702 1302 721 1332Q738 1358 767 1379T844 1400Z" />
<glyph unicode="W" glyph-name="W" horiz-adv-x="1666" d="M842 1394Q870 1394 894 1384T938 1357T972 1315T992 1262L1164 464H1198Q1240 659 1284 862T1372 1262Q1381 1300 1399 1331Q1415 1357 1443 1378T1518 1400Q1553 1400 1579 1388T1623 1356T1649 1313T1658
1268Q1658 1256 1657 1245T1654 1226Q1652 1216 1650 1208L1376 120Q1361 86 1336 60Q1315 37 1282 19T1198 0H1164Q1114 0 1082 18T1031 60Q1009 86 998 120L858 706H824Q792 564 756 413T686 120Q673 86 651 60Q631 37 600 19T518 0H484Q434 0 400 18T343 60Q317
86 302 120L32 1208Q30 1216 28 1226Q26 1234 25 1245T24 1268Q24 1290 32 1313T58 1355T102 1387T164 1400Q210 1400 238 1379T283 1331Q301 1300 310 1262L484 464H518Q537 556 559 657T603 862T648 1067T692 1262Q706 1319 746 1356T842 1394Z" />
<glyph unicode="X" glyph-name="X" horiz-adv-x="1146" d="M388 714L136 1096Q114 1129 96 1162Q81 1189 69 1219T56 1270Q56 1297 71 1325T126 1376Q171 1400 208 1400Q236 1400 259 1388T302 1355T339 1308T372 1256L558 950H588L774 1256Q790 1282 807 1308T843
1354T886 1387T938 1400Q956 1400 976 1393T1020 1374Q1062 1351 1078 1325T1094 1272Q1094 1250 1081 1220T1052 1162Q1034 1129 1010 1096L760 714V696L1038 258Q1059 225 1074 193T1090 128Q1090 101 1076 75T1022 24Q977 0 940 0Q914 0 893 10T854 38T821 77T790
122L588 450H558L356 122Q341 99 326 77T293 38T254 11T208 0Q170 0 128 24Q87 48 72 74T56 128Q56 160 71 192T108 258L388 696V714Z" />
<glyph unicode="Y" glyph-name="Y" horiz-adv-x="1000" d="M654 226Q654 184 650 144T631 71T586 20T504 0Q451 0 421 19T376 71T356 143T352 226V574L54 1106Q30 1148 8 1188T-14 1270Q-14 1297 1 1324T58 1376Q103 1400 142 1400Q172 1400 196 1387T241 1351T277
1302T306 1246L488 864H520L702 1246Q715 1274 731 1301T767 1351T811 1386T866 1400Q887 1400 907 1394T950 1376Q989 1352 1005 1325T1022 1270Q1022 1252 1006 1212T954 1106L654 574V226Z" />
<glyph unicode="Z" glyph-name="Z" horiz-adv-x="1042" d="M600 1098L584 1114H296Q256 1114 216 1118T144 1135T91 1175T70 1248Q70 1300 90 1330T143 1376T216 1396T296 1400H822Q860 1400 889 1387T939 1351T969 1302T980 1248Q980 1233 977 1219T968 1194L454
300L468 286H756Q795 286 835 282T908 264T961 221T982 144Q982 94 962 66T908 23T835 4T756 0H230Q192 0 163 12T113 45T81 91T70 144Q70 162 72 175T84 204L600 1098Z" />
<glyph unicode="[" glyph-name="bracketleft" horiz-adv-x="836" d="M590 246Q618 246 644 243T690 227T722 190T734 126Q734 82 722 57T690 20T644 5T590 2H384Q353 2 327 8T282 31T251 75T240 146V1256Q240 1327 272 1365T386 1404H592Q620 1404 646 1401T692
1385T724 1348T736 1284Q736 1240 724 1215T692 1178T646 1163T592 1160H484V246H590Z" />
<glyph unicode="\" glyph-name="backslash" horiz-adv-x="906" d="M222 1408Q241 1406 256 1397T282 1374T301 1343T316 1310L804 168Q813 145 819 124T826 74Q823 50 805 28T746 -12Q715 -26 690 -26Q667 -26 650 -17T619 7T595 39T578 74L92 1214Q83 1234 77
1257T70 1310Q73 1334 90 1355T146 1394Q166 1402 183 1405T222 1408Z" />
<glyph unicode="]" glyph-name="bracketright" horiz-adv-x="836" d="M392 246V1160H284Q256 1160 230 1163T184 1178T152 1215T140 1284Q140 1324 152 1348T184 1384T230 1400T284 1404H490Q571 1404 603 1366T636 1256V146Q636 103 625 76T595 32T549 9T492
2H286Q258 2 232 5T186 20T154 57T142 126Q142 166 154 190T186 226T232 242T286 246H392Z" />
<glyph unicode="^" glyph-name="asciicircum" horiz-adv-x="976" d="M754 942Q765 931 773 913T782 870Q782 844 771 825T744 792Q726 775 709 769T674 762Q650 762 626 769T588 794L478 898L368 794Q354 777 330 770T282 762Q264 762 247 768T212 792Q197 806
186 825T174 870Q174 894 182 912T202 942L392 1122Q407 1137 425 1145T468 1156H488Q533 1153 564 1122L754 942Z" />
<glyph unicode="_" glyph-name="underscore" horiz-adv-x="1408" d="M290 2Q262 2 236 5T190 21T158 57T146 122Q146 166 158 191T190 228T236 243T290 246H1110Q1135 246 1161 243T1207 228T1241 191T1254 122Q1254 81 1241 58T1208 22T1161 6T1110 2H346H290Z" />
<glyph unicode="`" glyph-name="grave" horiz-adv-x="698" d="M534 1298Q548 1289 563 1266T578 1212Q578 1198 573 1182T556 1148Q536 1119 513 1111T462 1102Q447 1102 432 1105T402 1118L182 1252Q162 1266 147 1288T132 1338Q132 1352 137 1370T154 1406Q174
1435 201 1443T254 1452Q283 1452 310 1434L534 1298Z" />
<glyph unicode="a" glyph-name="a" horiz-adv-x="1020" d="M912 226Q912 184 909 144T891 71T846 20T762 0Q707 0 676 18T630 63T612 119T608 168Q599 139 583 109T540 55T478 16T392 0Q337 0 282 18T183 78T112 187T84 354V644Q84 744 111 811T183 920T282 980T392
998Q441 998 477 983T540 944T582 890T608 830Q608 880 622 913T658 965T707 992T762 1000Q812 1000 842 981T887 930T907 857T912 772V226ZM392 380Q392 353 394 327T405 280T431 247T480 234Q519 234 543 251T582 305T601 397T608 530Q608 561 603 601T583 678T544
739T480 764Q449 764 432 752T405 719T394 674T392 622V380Z" />
<glyph unicode="b" glyph-name="b" horiz-adv-x="1042" d="M120 1172Q120 1215 124 1256T144 1329T190 1380T270 1400Q322 1400 353 1381T399 1330T419 1257T424 1172V830Q433 860 449 890T492 944T554 983T640 998Q695 998 750 980T849 921T920 812T948 644V354Q948
255 921 188T849 78T750 18T640 0Q591 0 555 15T492 55T450 109T424 168Q424 148 421 119T402 64T356 19T270 0Q216 0 186 19T141 71T123 143T120 226V1172ZM640 622Q640 648 638 673T627 719T601 751T552 764Q513 764 488 739T449 678T430 602T424 530Q425 453
430 398T450 306T488 252T552 234Q583 234 600 246T627 280T638 327T640 380V622Z" />
<glyph unicode="c" glyph-name="c" horiz-adv-x="1000" d="M388 346Q388 330 391 306T405 258T437 217T496 200Q540 200 565 210T602 237T617 278T620 328Q620 341 624 357T646 388T696 412T788 422Q841 422 870 410T912 382T928 348T930 320Q930 256 911 208T858
124T782 64T691 26T592 6T496 0Q417 0 343 21T212 87T119 202T84 372V606Q84 701 106 767T165 877T246 945T337 982T424 997T496 1000Q585 1000 651 985T766 945T845 888T895 819T920 747T928 680Q928 664 926 643T911 602T868 568T786 554Q767 554 739 555T683
566T637 594T618 648Q618 672 616 694T601 734T565 761T496 772Q459 772 438 760T405 730T391 692T388 656V346Z" />
<glyph unicode="d" glyph-name="d" horiz-adv-x="1020" d="M910 226Q910 184 907 144T889 71T844 20T760 0Q705 0 674 18T628 63T610 119T606 168Q597 139 581 109T538 55T476 16T390 0Q335 0 280 18T181 78T110 187T82 354V644Q82 744 109 811T181 920T280 980T390
998Q439 998 475 983T538 944T580 890T606 830V1172Q606 1215 610 1256T630 1329T676 1380T760 1400Q810 1400 840 1381T885 1330T905 1257T910 1172V226ZM390 380Q390 353 392 327T403 280T429 247T478 234Q517 234 541 251T580 305T599 397T606 530Q606 561 601
601T581 678T542 739T478 764Q447 764 430 752T403 719T392 674T390 622V380Z" />
<glyph unicode="e" glyph-name="e" horiz-adv-x="1020" d="M936 570Q936 554 934 533T919 492T876 458T794 444H396V348Q396 324 402 298T422 250T461 214T520 200Q560 200 581 209T615 233T638 263T664 293T710 316T792 326Q817 326 840 322T882 307T911 277T922
226Q922 161 881 118T778 48T644 11T508 0Q425 1 350 21T218 85T126 200T92 374V608Q92 703 114 769T173 879T254 947T345 984T432 999T504 1002Q605 1002 676 984T796 937T872 870T914 792T932 710T936 632V570ZM396 594H646Q646 641 644 677T629 739T590 777T514
790Q473 790 450 777T414 745T399 703T396 664V594Z" />
<glyph unicode="f" glyph-name="f" horiz-adv-x="750" d="M564 1000Q589 1000 615 997T661 982T695 945T708 876Q708 835 695 812T662 776T615 760T564 756H504V226Q504 182 500 142T479 70T431 19T346 0Q295 0 266 19T221 69T202 141T198 226V756H142Q114 756
89 759T44 775T12 811T0 876Q0 920 12 945T43 982T88 997T142 1000H198Q198 1088 206 1162T245 1288T337 1370T504 1400Q549 1400 589 1392T659 1367T706 1323T724 1256Q724 1220 712 1196T681 1157T642 1136T602 1130Q587 1130 574 1137T544 1144Q530 1144 523
1135T511 1111T505 1078T504 1042V1000H564Z" />
<glyph unicode="g" glyph-name="g" horiz-adv-x="1042" d="M922 -30Q922 -120 898 -182T835 -285T751 -349T660 -383T578 -397T522 -400Q451 -400 380 -390T251 -353T154 -280T110 -162Q110 -150 114 -135T132 -107T174 -84T250 -74Q308 -74 339 -83T385 -106T404
-135T414 -164Q422 -185 445 -193T510 -202Q547 -202 568 -185T601 -145T615 -97T618 -56V168Q609 138 593 108T550 54T488 15T402 0Q347 0 292 18T193 77T120 187T92 356V646Q92 745 120 812T192 922T292 982T402 1000Q451 1000 487 985T550 945T592 891T618 832Q618
852 621 881T640 936T686 981T772 1000Q826 1000 856 981T901 929T919 857T922 774V-30ZM402 378Q402 352 404 326T415 280T441 247T490 234Q529 234 554 259T593 320T612 397T618 470Q617 546 612 602T592 694T554 748T490 766Q459 766 442 754T415 720T404 673T402
620V378Z" />
<glyph unicode="h" glyph-name="h" horiz-adv-x="1042" d="M956 226Q956 184 952 144T932 71T886 20T804 0Q752 0 722 19T675 71T653 143T648 226V620Q648 646 646 671T635 717T609 749T560 762Q520 762 495 736T456 663T436 553T430 416V226Q430 184 426 144T405
71T358 20T274 0Q222 0 192 19T147 71T127 143T122 226V1174Q122 1216 126 1256T146 1329T192 1380T274 1400Q327 1400 358 1381T405 1329T425 1257T430 1174V832Q439 861 456 891T500 945T563 984T648 1000Q703 1000 758 982T857 921T928 811T956 642V226Z" />
<glyph unicode="i" glyph-name="i" horiz-adv-x="626" d="M154 776Q154 818 158 858T179 929T225 980T306 1000Q357 1000 387 981T433 930T453 858T458 776V224Q458 182 454 142T433 70T387 19T306 0Q255 0 225 19T179 69T159 141T154 224V776ZM460 1248Q460 1171
420 1134T308 1096Q236 1096 196 1133T156 1248Q156 1328 196 1364T308 1400Q385 1400 422 1364T460 1248Z" />
<glyph unicode="j" glyph-name="j" horiz-adv-x="626" d="M176 776Q176 819 180 859T201 931T247 981T330 1000Q380 1000 410 982T455 932T475 860T480 776V30Q480 -63 473 -142T436 -278T345 -367T176 -400Q132 -400 92 -391T22 -363T-26 -315T-44 -246Q-44 -209
-37 -185T-13 -147T29 -126T92 -120Q123 -120 140 -108T165 -74T174 -26T176 30V776ZM480 1250Q480 1175 441 1138T330 1100Q258 1100 217 1137T176 1250Q176 1328 217 1365T330 1402Q407 1402 443 1365T480 1250Z" />
<glyph unicode="k" glyph-name="k" horiz-adv-x="1014" d="M150 1178Q150 1220 153 1260T170 1331T212 1381T292 1400Q344 1400 372 1381T414 1331T431 1260T434 1178V784H450L656 1026Q674 1047 698 1056T748 1066Q773 1066 798 1057T843 1030T875 988T888 932Q888
892 860 858L680 646L876 272Q894 236 907 200T920 130Q920 98 906 73T870 32T820 7T766 -2Q733 -2 707 14T662 53T627 104T602 154L490 392H434V224Q434 182 431 142T415 70T373 19T292 0Q241 0 213 19T170 69T153 141T150 224V1178Z" />
<glyph unicode="l" glyph-name="l" horiz-adv-x="586" d="M140 1178Q140 1220 144 1260T165 1331T211 1381T292 1400Q344 1400 374 1381T419 1331T439 1260T444 1178V224Q444 182 440 142T420 70T374 19T292 0Q241 0 211 19T165 69T145 141T140 224V1178Z" />
<glyph unicode="m" glyph-name="m" horiz-adv-x="1604" d="M808 0Q757 0 727 19T681 71T661 143T656 226V622Q656 649 654 675T642 721T616 753T568 766Q528 766 503 739T464 666T444 556T438 420V226Q438 184 434 144T414 71T368 20T286 0Q234 0 204 19T159 71T139
143T134 226V774Q134 816 137 856T156 929T201 980T286 1000Q341 1000 371 982T417 937T435 881T438 832Q447 861 466 891T516 945T585 984T672 1000Q738 1000 800 968T906 864Q921 898 950 923T1016 966T1095 991T1178 1000Q1233 1000 1288 982T1387 922T1458
813T1486 646V226Q1486 184 1481 144T1460 71T1414 20T1332 0Q1280 0 1250 19T1203 71T1183 143T1178 226V622Q1178 649 1175 675T1163 721T1136 753T1088 766Q1056 766 1034 746T996 691T973 608T962 502V226Q962 184 958 144T937 71T891 20T808 0Z" />
<glyph unicode="n" glyph-name="n" horiz-adv-x="1082" d="M966 228Q966 185 961 144T940 71T893 20T810 0Q759 0 729 19T683 71T663 144T658 228V618Q658 646 656 673T644 720T618 753T570 766Q529 766 504 739T465 665T445 555T440 418V228Q440 185 435 144T414
71T367 20T284 0Q233 0 203 19T157 71T137 144T132 228V774Q132 817 135 857T153 929T198 980T284 1000Q339 1000 370 982T416 937T436 882T440 832Q448 861 465 891T508 945T572 984T658 1000Q713 1000 768 982T867 922T938 812T966 644V228Z" />
<glyph unicode="o" glyph-name="o" horiz-adv-x="990" d="M78 624Q78 716 103 780T167 887T255 954T351 990T438 1005T502 1008Q525 1008 565 1005T650 990T742 954T826 887T888 780T912 624V376Q912 284 888 220T827 113T743 46T651 10T565 -5T502 -8Q479 -8
439 -5T351 10T256 46T168 113T103 220T78 376V624ZM386 306Q387 277 400 255Q411 235 434 220T502 204Q544 204 566 219T600 255Q612 277 614 306V668Q612 698 600 723Q589 743 567 760T502 778Q458 778 435 761T400 723Q387 698 386 668V306Z" />
<glyph unicode="p" glyph-name="p" horiz-adv-x="1062" d="M132 774Q132 816 135 856T153 929T198 980T282 1000Q337 1000 368 982T414 937T432 881T436 832Q445 861 461 891T504 945T566 984T652 1000Q707 1000 762 982T861 922T932 813T960 646V356Q960 256
933 189T861 80T762 20T652 2Q603 2 567 17T504 56T462 110T436 170V-172Q436 -216 432 -257T412 -329T365 -380T282 -400Q232 -400 202 -381T157 -330T137 -257T132 -172V774ZM652 620Q652 647 650 673T639 720T613 753T564 766Q525 766 501 749T462 695T443 602T436
470Q436 438 441 398T461 321T500 261T564 236Q595 236 612 248T639 281T650 326T652 378V620Z" />
<glyph unicode="q" glyph-name="q" horiz-adv-x="1062" d="M932 -172Q932 -216 928 -257T908 -329T862 -380T782 -400Q729 -400 699 -381T653 -330T633 -257T628 -172V170Q619 140 603 110T560 56T498 17T412 2Q357 2 302 20T203 79T132 188T104 356V646Q104 745
131 812T203 922T302 982T412 1000Q461 1000 497 985T560 945T602 891T628 832Q628 852 631 881T650 936T696 981T782 1000Q836 1000 866 981T911 929T929 857T932 774V-172ZM412 378Q412 352 414 327T425 281T451 249T500 236Q539 236 564 260T603 321T622 397T628
470Q627 546 622 602T602 694T564 748T500 766Q469 766 452 754T425 720T414 673T412 620V378Z" />
<glyph unicode="r" glyph-name="r" horiz-adv-x="792" d="M770 850Q770 772 732 736T622 700Q612 700 594 699T554 691T512 672T472 638T443 583T432 504V218Q432 177 428 138T407 69T361 19T280 0Q230 0 201 19T157 68T137 138T132 218V778Q132 820 136 859T156
930T201 979T280 998Q331 998 358 976T399 918T414 839T416 754H432Q446 810 469 855T520 932T580 981T644 998Q683 998 707 990T746 963T765 917T770 850Z" />
<glyph unicode="s" glyph-name="s" horiz-adv-x="910" d="M386 738Q386 718 399 701T434 669T486 638T548 608Q597 584 648 557T741 492T809 407T836 292Q836 232 819 186T772 107T705 51T624 16T537 -2T454 -8Q377 -8 320 5T222 39T155 88T113 146T92 205T86
260Q86 320 119 348T222 376Q272 376 304 349T338 262Q339 242 349 230T376 211T413 201T452 198Q491 198 515 218T540 272Q540 300 524 324T480 370T419 410T348 450Q303 474 258 501T175 561T115 635T92 730Q92 808 117 860T192 945T311 992T472 1008H488Q569
1008 625 994T719 958T778 907T810 851T823 796T826 752Q826 722 814 703T781 672T734 656T680 650Q656 650 637 658T603 678T582 705T574 734Q572 772 544 792T474 812Q457 812 442 809T414 797T394 774T386 738Z" />
<glyph unicode="t" glyph-name="t" horiz-adv-x="870" d="M258 1000V1176Q258 1218 262 1258T283 1329T329 1380T410 1400Q460 1400 490 1381T535 1330T555 1258T560 1176V1000H642Q668 1000 694 998T740 983T773 947T786 880Q786 839 774 815T741 779T694 764T642
760H560V410Q560 390 561 368T572 326T599 295T650 282Q686 282 711 277T753 257T778 218T786 154Q786 114 768 85T718 37T646 9T560 0Q489 0 439 15T355 57T302 123T273 210T261 313T258 430V760H202Q176 760 151 763T105 779T73 815T60 880Q60 923 72 947T105
983T150 997T202 1000H258Z" />
<glyph unicode="u" glyph-name="u" horiz-adv-x="1076" d="M118 772Q118 815 123 856T144 929T191 980T274 1000Q325 1000 355 981T401 929T421 856T426 772V382Q426 353 428 327T440 280T466 247T514 234Q554 234 579 261T619 335T639 445T644 582V772Q644 815
649 856T670 929T717 980T800 1000Q851 1000 881 981T927 929T947 856T952 772V226Q952 183 949 143T931 71T886 20T800 0Q745 0 714 18T668 63T648 118T644 168Q636 139 619 109T576 55T512 16T426 0Q371 0 316 18T217 78T146 188T118 356V772Z" />
<glyph unicode="v" glyph-name="v" horiz-adv-x="876" d="M598 156Q576 98 557 67T520 20T484 3T446 0Q424 0 405 2T367 19T328 65T286 156L60 748Q51 772 44 799T36 854Q36 883 43 909T68 956T112 988T178 1000Q206 1000 229 988T271 956T304 910T326 856L438
492H454L558 856Q565 881 578 907T609 953T653 987T712 1000Q748 1000 773 988T814 955T837 907T844 852Q844 826 838 800T820 748L598 156Z" />
<glyph unicode="w" glyph-name="w" horiz-adv-x="1396" d="M700 884Q748 884 785 854T852 744L958 462H974L1086 854Q1094 882 1106 908T1137 954T1180 987T1240 1000Q1276 1000 1301 987T1342 953T1365 905T1372 850Q1372 823 1365 798T1348 746L1126 156Q1103
97 1085 66T1048 20T1012 3T974 0Q952 0 933 2T894 19T854 65T812 156L708 516H692L584 156Q562 97 544 66T508 20T472 3T434 0Q412 0 393 2T354 19T314 65T272 156L48 746Q39 770 32 797T24 852Q24 881 31 908T55 955T99 988T166 1000Q194 1000 216 988T257 955T288
908T310 854L436 462H452L544 744Q569 823 610 853T700 884Z" />
<glyph unicode="x" glyph-name="x" horiz-adv-x="938" d="M728 1000Q745 1000 764 994T804 974Q834 954 847 931T860 882Q860 849 844 813T804 744L626 500L804 258Q827 223 843 188T860 120Q860 94 847 70T804 26Q764 0 730 0Q709 0 691 9T656 33T624 68T592
110L472 278L348 110Q334 87 319 67T288 32T253 9T214 0Q180 0 140 26Q110 47 97 70T84 120Q84 153 100 188T140 258L308 500L140 744Q117 779 101 813T84 880Q84 906 97 929T140 974Q180 1000 214 1000Q235 1000 253 992T287 968T319 934T348 892L472 724L592
892Q607 914 622 933T653 968T688 991T728 1000Z" />
<glyph unicode="y" glyph-name="y" horiz-adv-x="916" d="M230 -400Q116 -400 68 -368T20 -272Q20 -241 28 -220T52 -186T86 -168T128 -162Q143 -162 156 -163T178 -164Q197 -164 214 -142T248 -85T282 -12T316 60L300 100Q271 173 239 253T176 416T114 581T58
740Q47 772 40 803T32 864Q32 893 44 918T77 961T125 989T184 1000Q212 1000 235 988T277 955T310 907T334 850L468 428L596 850Q605 878 619 906T652 955T695 990T748 1004Q777 1004 803 993T849 963T880 916T892 858Q892 828 885 799T866 740L626 104Q605 50
581 -8T527 -123T465 -229T395 -317T317 -377T230 -400Z" />
<glyph unicode="z" glyph-name="z" horiz-adv-x="916" d="M654 1000Q682 1000 715 995T775 977T821 939T840 876Q840 859 835 842T821 808T804 773T786 740L438 254H658Q693 254 726 251T786 234T828 196T844 128Q844 86 828 61T786 22T727 4T658 0H264Q234 0
201 4T140 21T94 58T76 122Q76 158 93 194T132 260L478 748H258Q223 748 190 751T131 768T88 805T72 872Q72 915 88 940T130 978T190 996T258 1000H654Z" />
<glyph unicode="{" glyph-name="braceleft" horiz-adv-x="1012" d="M794 1566Q831 1566 857 1557T900 1532T924 1495T932 1450Q932 1402 902 1368T802 1334Q757 1332 722 1313Q707 1305 693 1292T667 1261T649 1216T642 1156V1018Q642 948 627 894T592 801T550
742T518 716Q529 712 550 691T591 631T627 538T642 414V238Q642 207 649 184T667 143T692 113T722 93Q757 75 802 72Q871 72 901 38T932 -44Q932 -68 924 -89T894 -126T838 -151T750 -160Q641 -154 556 -108Q520 -89 485 -59T423 15T379 118T362 256V444Q362 490
353 520T328 570T294 602T256 624Q242 632 230 640T208 658T194 682T188 716Q188 755 207 773T256 806Q275 816 294 828T328 859T352 910T362 988V1204Q362 1295 395 1363T487 1476T624 1543T794 1566Z" />
<glyph unicode="|" glyph-name="bar" horiz-adv-x="604" d="M424 -16Q424 -44 421 -70T405 -116T368 -148T304 -160Q260 -160 235 -148T198 -116T183 -70T180 -16V1422Q180 1447 183 1473T198 1519T235 1553T304 1566Q344 1566 368 1553T404 1520T420 1473T424
1422V40V-16Z" />
<glyph unicode="}" glyph-name="braceright" horiz-adv-x="1012" d="M824 716Q824 696 819 683T804 659T783 640T756 624Q738 614 719 602T685 571T660 521T650 444V256Q650 178 634 119T590 16T527 -58T456 -108Q371 -154 262 -160Q209 -160 174 -151T118 -126T89
-89T80 -44Q80 -20 87 1T111 38T152 63T212 72Q256 75 291 93Q306 101 320 113T345 142T363 183T370 238V414Q370 483 385 537T422 630T464 690T496 716Q485 720 464 741T422 801T386 893T370 1018V1156Q370 1190 363 1216T345 1260T320 1292T291 1313Q256 1332
212 1334Q177 1334 152 1343T111 1368T88 1405T80 1450Q80 1474 87 1495T111 1532T155 1557T220 1566Q311 1566 389 1544T526 1476T617 1363T650 1204V988Q650 941 660 910T685 860T719 828T756 806Q785 791 804 773T824 716Z" />
<glyph unicode="~" glyph-name="asciitilde" horiz-adv-x="918" d="M422 158Q402 169 387 174T360 180Q342 180 324 168T280 128Q265 111 248 101T216 90Q198 90 174 101T134 134Q112 159 112 186Q112 207 126 231T172 286L246 352Q270 373 294 385T348 398Q369
398 389 390T434 370Q477 348 503 335T545 315T566 306T576 304Q591 304 606 314T640 344Q657 359 675 369T714 380Q728 378 741 372T772 348Q790 330 796 313T802 278Q800 266 793 253T777 228T757 204T738 186Q703 150 679 130T639 99T611 87T590 84Q582 84 573
85T545 94T498 117T422 158Z" />
<glyph unicode="&#xa0;" glyph-name="space" horiz-adv-x="798" />
<glyph unicode="&#xa1;" glyph-name="exclamdown" horiz-adv-x="808" d="M302 812Q302 843 305 873T321 927T355 965T416 980Q454 980 476 966T511 928T526 874T530 812L582 488V220Q582 178 575 138T550 67T500 17T416 -2Q365 -2 333 17T283 67T259 139T252 222V492L302
812ZM252 1232Q252 1317 295 1357T416 1398Q496 1398 539 1358T582 1232Q582 1146 539 1107T416 1068Q333 1068 293 1107T252 1232Z" />
<glyph unicode="&#xa2;" glyph-name="cent" horiz-adv-x="1000" d="M386 520Q386 504 389 480T403 432T435 391T494 374Q538 374 563 384T600 411T615 452T618 502Q618 515 622 531T644 562T694 586T786 596Q839 596 868 584T910 556T926 522T928 494Q928 416
900 361T827 269T724 212T606 182V150Q606 122 603 96T587 50T550 18T486 6Q442 6 417 18T380 50T365 96T362 150V188Q303 202 252 230T164 303T104 407T82 546V780Q82 882 107 951T173 1063T263 1129T362 1162V1240Q362 1265 365 1291T380 1337T417 1371T486 1384Q526
1384 550 1371T586 1338T602 1291T606 1240V1166Q703 1152 765 1118T863 1039T912 945T926 854Q926 838 924 817T909 776T866 742T784 728Q765 728 737 729T681 740T635 768T616 822Q616 846 614 868T599 908T563 935T494 946Q457 946 436 934T403 904T389 866T386
830V520Z" />
<glyph unicode="&#xa3;" glyph-name="sterling" horiz-adv-x="1236" d="M488 498V282H764Q803 282 842 278T914 260T966 219T986 144Q986 94 966 66T914 23T843 4T764 0H348Q296 0 265 18T216 66T194 137T188 224V498H178Q150 498 124 501T78 517T46 553T34 618Q34
662 46 687T78 724T125 739T180 742H188V992Q188 1096 217 1167T292 1285T392 1356T496 1392T582 1406T630 1408Q740 1408 819 1383T952 1318T1040 1228T1091 1125T1114 1025T1120 942Q1120 928 1118 908T1101 870T1055 838T966 824Q947 824 919 826T863 838T817
866T798 916Q798 974 791 1020T765 1098T714 1147T630 1164Q577 1164 548 1142T506 1092Q490 1060 488 1020V742H620Q645 742 671 739T717 724T751 687T764 618Q764 577 751 554T718 518T671 502T620 498H488Z" />
<glyph unicode="&#xa4;" glyph-name="currency" horiz-adv-x="1192" d="M906 598Q906 559 901 525T886 462L952 398Q976 374 994 350T1012 296Q1012 276 1002 255T966 208Q943 185 924 176T884 166Q855 166 830 184T780 226L716 288Q656 270 580 270Q504 270 444
288L380 226Q356 202 331 184T276 166Q256 166 237 175T194 208Q168 234 158 255T148 296Q148 325 166 349T208 398L270 460Q252 520 252 598Q252 675 270 732L206 798Q183 821 166 846T148 902Q148 922 157 941T190 984Q214 1008 235 1019T276 1030Q306 1030 330
1012T378 970L442 904Q472 915 506 919T580 924Q658 924 718 906L782 970Q805 993 829 1011T884 1030Q924 1030 970 984Q993 961 1002 942T1012 902Q1012 872 995 847T954 798L888 732Q906 675 906 598ZM742 598Q742 684 702 723T580 762Q503 762 461 723T418 598Q418
517 460 477T580 436Q657 436 699 476T742 598Z" />
<glyph unicode="&#xa5;" glyph-name="yen" horiz-adv-x="1000" d="M626 330V188Q626 152 623 118T607 56T569 13T500 -4Q456 -4 431 12T392 56T376 117T372 188V330H304Q276 330 250 333T204 349T172 385T160 450Q160 494 172 519T204 556T250 571T304 574H372V702L114
1160Q90 1198 76 1231T62 1290Q62 1313 75 1336T122 1380Q159 1400 194 1400Q219 1400 240 1389T278 1359T308 1317T332 1270L486 946H514L668 1270Q678 1293 691 1316T722 1358T759 1388T806 1400Q841 1400 878 1380Q911 1359 924 1336T938 1290Q938 1275 925
1241T880 1152L626 702V574H696Q721 574 747 571T793 556T827 519T840 450Q840 409 827 386T794 350T747 334T696 330H626Z" />
<glyph unicode="&#xa6;" glyph-name="brokenbar" horiz-adv-x="666" d="M452 962Q452 934 449 908T433 862T396 830T332 818Q288 818 263 830T226 862T211 908T208 962V1422Q208 1447 211 1473T226 1519T263 1553T332 1566Q372 1566 396 1553T432 1520T448 1473T452
1422V1018V962ZM452 -16Q452 -44 449 -70T433 -116T396 -148T332 -160Q288 -160 263 -148T226 -116T211 -70T208 -16V442Q208 467 211 493T226 539T263 573T332 586Q372 586 396 573T432 540T448 493T452 442V40V-16Z" />
<glyph unicode="&#xa7;" glyph-name="section" horiz-adv-x="1162" d="M1004 618Q1004 560 994 514T966 432T924 368T872 320Q897 303 920 281T959 234T986 179T996 120Q996 11 967 -59T881 -171T744 -229T558 -246Q463 -246 397 -228T287 -181T219 -115T182 -41T167
30T164 88Q164 123 176 148T209 190T256 214T308 222Q333 222 357 213T400 188T432 153T444 112Q444 71 451 43T472 -3T508 -28T558 -36Q586 -36 611 -34T656 -18T688 25T700 108Q700 136 689 160T660 201T621 229T580 242Q556 242 517 244T432 258T340 292T256
357T194 462T170 618V626Q170 682 179 727T204 809T243 872T292 920Q266 936 243 958T202 1007T174 1063T164 1124Q164 1233 193 1303T279 1415T416 1473T602 1490Q697 1490 763 1472T873 1425T941 1359T978 1285T993 1214T996 1156Q996 1121 984 1096T951 1054T904
1030T852 1022Q827 1022 803 1031T760 1056T728 1091T716 1132Q716 1214 688 1247T602 1280Q574 1280 549 1278T504 1262T472 1219T460 1136Q460 1106 472 1082T503 1039T542 1012T580 1002Q603 1002 643 1000T731 986T826 952T914 887T979 782T1004 626V618ZM696
696Q693 724 681 747Q670 766 647 782T580 798Q538 798 516 782T482 747Q470 724 468 696V574Q470 543 482 519Q493 498 515 481T580 464Q624 464 647 481T681 519Q693 543 696 574V696Z" />
<glyph unicode="&#xa8;" glyph-name="dieresis" horiz-adv-x="934" d="M400 1252Q400 1175 360 1138T248 1100Q176 1100 136 1137T96 1252Q96 1332 136 1368T248 1404Q325 1404 362 1368T400 1252ZM816 1252Q816 1175 776 1138T664 1100Q592 1100 552 1137T512
1252Q512 1332 552 1368T664 1404Q741 1404 778 1368T816 1252Z" />
<glyph unicode="&#xa9;" glyph-name="copyright" horiz-adv-x="1470" d="M510 872Q510 912 519 942T545 995T581 1033T623 1059Q672 1083 736 1086Q789 1086 827 1074T891 1043T932 999T956 949T967 901T970 860Q970 852 969 842T961 822T938 805T894 798Q884
798 870 799T843 806T820 820T810 844Q810 871 807 893T796 930T774 953T736 962Q713 962 701 952T683 930Q676 916 676 898V598Q676 577 683 560Q688 546 700 534T736 522Q759 522 773 531T796 557T807 594T810 638Q810 647 812 655T823 669T848 678T894 682Q922
682 937 675T960 660T969 644T970 636Q970 583 952 542T902 471T824 426T726 410Q717 410 697 411T653 418T604 436T558 470T524 525T510 608V872ZM1228 742Q1228 1006 1103 1127T728 1248Q610 1248 518 1219T361 1127T264 970T230 742Q230 619 263 526T361 371T517
278T728 246Q846 246 938 277T1095 371T1194 526T1228 742ZM1316 744Q1316 595 1278 485T1164 301T980 192T730 156Q589 156 479 192T292 301T176 484T136 744Q136 898 176 1010T292 1194T478 1301T730 1336Q878 1336 988 1302T1171 1195T1280 1010T1316 744Z"
/>
<glyph unicode="&#xaa;" glyph-name="ordfeminine" horiz-adv-x="798" d="M603 970Q603 946 602 924T592 884T566 855T519 844Q488 844 471 854T446 879T435 910T433 937Q428 921 419 905T396 875T361 853T313 844Q282 844 252 854T197 887T157 948T141 1041V1202Q141
1258 156 1295T196 1356T251 1389T313 1399Q340 1399 360 1391T395 1369T419 1339T433 1306Q433 1333 441 1351T461 1381T488 1396T519 1400Q547 1400 564 1389T589 1361T600 1320T603 1273V970ZM313 1055Q313 1040 314 1026T320 1000T335 981T362 974Q384 974
397 984T419 1014T430 1065T433 1139Q433 1156 430 1178T419 1221T398 1255T362 1269Q345 1269 335 1262T320 1244T314 1219T313 1190V1055Z" />
<glyph unicode="&#xab;" glyph-name="guillemotleft" horiz-adv-x="1526" d="M188 506Q178 516 168 527T148 551T134 578T128 608Q128 637 146 660T190 710L504 1022Q527 1045 551 1063T606 1082Q626 1082 647 1071T692 1036Q715 1013 724 994T734 954Q734 924
717 899T676 850L430 606L674 366Q698 342 716 318T734 264Q734 244 724 223T688 176Q665 153 646 144T606 134Q577 134 552 152T502 194L188 506ZM750 508Q740 518 730 529T710 553T696 580T690 610Q690 639 708 662T752 712L1066 1024Q1089 1047 1113 1065T1168
1084Q1188 1084 1209 1073T1254 1038Q1277 1015 1286 996T1296 956Q1296 926 1279 901T1238 852L992 608L1236 368Q1260 344 1278 320T1296 266Q1296 246 1286 225T1250 178Q1227 155 1208 146T1168 136Q1139 136 1114 154T1064 196L750 508Z" />
<glyph unicode="&#xac;" glyph-name="logicalnot" horiz-adv-x="1492" d="M308 858Q279 858 253 861T208 877T176 913T164 978Q164 1022 176 1047T208 1084T254 1099T308 1102H1118Q1153 1102 1180 1097T1227 1075T1256 1031T1266 956V604Q1266 576 1263 550T1247
504T1210 472T1146 460Q1102 460 1077 472T1040 504T1025 550T1022 604V858H330H308Z" />
<glyph unicode="&#xae;" glyph-name="registered" horiz-adv-x="1424" d="M492 974Q492 995 493 1014T501 1048T523 1071T566 1080H722Q782 1076 830 1055Q850 1046 869 1032T904 997T928 949T938 884Q938 871 934 849T917 802T879 756T814 720Q831 715 848 705T880
678T903 637T912 582V516Q912 501 922 498Q934 486 936 477T938 462Q938 445 931 433T913 414T888 403T860 400Q844 400 828 405T798 420T775 445T766 480V582Q766 603 764 621T753 652T731 672T692 680H638V518Q638 496 637 476T629 441T608 416T566 406Q538 406
523 415T501 440T493 476T492 518V974ZM704 786Q728 787 747 798Q763 807 776 827T790 884Q790 916 778 933T750 959Q732 969 710 970H638V786H704ZM1208 742Q1208 1006 1083 1127T708 1248Q590 1248 498 1219T341 1127T244 970T210 742Q210 619 243 526T341 371T497
278T708 246Q826 246 918 277T1075 371T1174 526T1208 742ZM1296 744Q1296 595 1258 485T1144 301T960 192T710 156Q569 156 459 192T272 301T156 484T116 744Q116 898 156 1010T272 1194T458 1301T710 1336Q858 1336 968 1302T1151 1195T1260 1010T1296 744Z"
/>
<glyph unicode="&#xaf;" glyph-name="overscore" horiz-adv-x="996" d="M700 1400Q725 1400 754 1398T807 1385T848 1351T864 1288Q864 1247 848 1225T808 1192T754 1179T700 1176H298Q270 1176 241 1178T188 1191T149 1224T134 1288Q134 1328 149 1351T188 1384T241
1397T298 1400H700Z" />
<glyph unicode="&#xb0;" glyph-name="degree" horiz-adv-x="832" d="M524 1104Q524 1216 414 1216Q360 1216 330 1189T300 1104Q300 1047 330 1019T414 990Q467 990 495 1018T524 1104ZM694 1104Q694 958 621 889T414 820Q277 820 203 889T128 1104Q128 1249 202
1316T414 1384Q557 1384 625 1317T694 1104Z" />
<glyph unicode="&#xb1;" glyph-name="plusminus" horiz-adv-x="1058" d="M308 212Q280 212 254 215T208 231T176 267T164 332Q164 376 176 401T208 438T254 453T308 456H750Q775 456 801 453T847 438T881 401T894 332Q894 291 881 268T848 232T801 216T750 212H364H308ZM312
798Q284 798 258 801T212 817T180 853T168 918Q168 962 180 987T212 1024T258 1039T312 1042H410V1140Q410 1165 413 1191T428 1237T465 1271T534 1284Q574 1284 598 1271T634 1238T650 1191T654 1140V1042H754Q779 1042 805 1039T851 1024T885 987T898 918Q898
877 885 854T852 818T805 802T754 798H654V698Q654 670 651 644T635 598T598 566T534 554Q490 554 465 566T428 598T413 644T410 698V798H312Z" />
<glyph unicode="&#xb2;" glyph-name="twosuperior" horiz-adv-x="640" d="M312 1398Q403 1398 447 1354T492 1236Q492 1189 469 1156T417 1103Q384 1078 342 1064Q328 1059 315 1052T291 1036T273 1013T266 984V966H404Q417 966 433 965T463 959T488 942T498 910Q498
887 490 875T469 858T438 851T404 850H208Q189 850 177 856T157 873T146 896T142 922V984Q142 1044 179 1087T280 1154Q311 1166 329 1177T358 1199T371 1220T374 1242Q374 1262 368 1273T352 1291T331 1298T312 1300Q292 1300 280 1295T262 1280T254 1261T252
1242Q252 1226 247 1216T233 1199T214 1189T196 1186Q167 1186 152 1200T136 1236Q136 1252 142 1279T166 1332T219 1378T312 1398Z" />
<glyph unicode="&#xb3;" glyph-name="threesuperior" horiz-adv-x="666" d="M330 1278H234Q220 1278 206 1279T179 1286T160 1301T152 1328Q152 1350 160 1362T181 1381T209 1388T240 1390H408Q440 1390 456 1371T472 1328Q472 1325 472 1318T468 1304L388 1178Q426
1173 447 1155T477 1113T488 1061T490 1010V1000Q490 966 479 938T446 888T391 856T312 844Q253 844 218 863T164 908T140 960T134 1000Q134 1027 151 1042T194 1058Q202 1058 212 1055T231 1045T246 1027T252 1000Q252 990 254 980T262 960T280 946T312 940Q320
940 331 942T352 952T369 975T376 1018Q376 1040 375 1055T368 1079T352 1092T322 1096Q298 1096 284 1111T270 1146Q270 1157 274 1166T284 1190L330 1278Z" />
<glyph unicode="&#xb4;" glyph-name="acute" horiz-adv-x="718" d="M400 1434Q427 1452 456 1452Q482 1452 509 1444T556 1406Q568 1388 573 1370T578 1338Q578 1311 563 1289T528 1252L308 1118Q294 1109 279 1106T248 1102Q221 1102 198 1110T154 1148Q142 1165
137 1181T132 1212Q132 1242 147 1265T176 1298L400 1434Z" />
<glyph unicode="&#xb5;" glyph-name="uni00B5" horiz-adv-x="1316" d="M180 778Q180 821 187 861T213 932T262 981T342 1000Q427 1000 465 943T504 786Q504 667 511 581T537 438T585 354T660 326Q703 326 734 350T787 425T818 558T828 752Q828 882 865 941T990
1000Q1041 1000 1071 981T1118 929T1139 856T1144 772V226Q1144 183 1141 143T1123 71T1078 20T992 0Q937 0 906 21T860 73T840 135T836 188Q829 163 815 138T778 93T726 59T660 46Q619 46 586 56T528 82T487 121T464 168V-56Q464 -98 462 -138T446 -210T404 -261T324
-280Q273 -280 244 -261T201 -211T184 -139T180 -56V778Z" />
<glyph unicode="&#xb6;" glyph-name="paragraph" horiz-adv-x="1408" d="M1020 1398Q1076 1398 1116 1379T1182 1327T1220 1254T1232 1170V-122Q1232 -164 1228 -204T1208 -277T1162 -328T1080 -348Q1028 -348 998 -329T951 -277T929 -205T924 -122V1116H736V-122Q736
-164 732 -204T712 -277T666 -328T584 -348Q532 -348 502 -329T455 -277T433 -205T428 -122V638Q373 638 318 658T219 722T148 833T120 992V1044Q120 1135 147 1202T219 1312T318 1377T428 1398H1020Z" />
<glyph unicode="&#xb7;" glyph-name="middot" horiz-adv-x="820" d="M578 700Q578 615 535 575T414 534Q334 534 291 574T248 700Q248 786 291 825T414 864Q497 864 537 825T578 700Z" />
<glyph unicode="&#xb8;" glyph-name="cedilla" horiz-adv-x="664" d="M350 96H472L402 -22Q447 -26 482 -28T543 -45T581 -93T594 -194V-202Q594 -260 571 -297T511 -355T425 -384T324 -392Q255 -392 208 -380T131 -343T89 -284T76 -202Q76 -189 84 -178T105 -159T134
-147T166 -142Q176 -142 191 -145T220 -157T244 -177T254 -208Q254 -219 256 -233T265 -259T287 -281T324 -290Q333 -290 345 -286T370 -270T390 -238T398 -184Q398 -159 396 -146T388 -126T369 -118T334 -116Q305 -116 291 -98T276 -56Q276 -47 279 -35T292 -8L350
96Z" />
<glyph unicode="&#xb9;" glyph-name="onesuperior" horiz-adv-x="632" d="M330 1190Q313 1178 297 1169T256 1160Q227 1160 210 1179T192 1224Q192 1251 208 1262T244 1286Q266 1299 284 1314T317 1343T341 1367T360 1382Q371 1388 379 1389T396 1390Q422 1390
436 1381T457 1357T465 1324T466 1288V950Q466 930 465 912T457 879T436 855T396 846Q371 846 358 855T338 878T331 909T330 944V1190Z" />
<glyph unicode="&#xba;" glyph-name="ordmasculine" horiz-adv-x="790" d="M152 1190Q152 1241 166 1277T202 1336T251 1372T304 1391T353 1399T388 1400Q401 1400 423 1399T471 1392T523 1372T570 1336T604 1277T618 1190V1052Q618 1001 605 965T570 906T523
870T472 851T424 844T388 842Q375 842 353 843T305 851T251 870T202 906T166 964T152 1052V1190ZM324 1012Q325 996 332 984Q338 973 351 965T388 956Q412 956 425 964T444 984Q451 996 452 1012V1214Q451 1231 444 1245Q438 1256 425 1266T388 1276Q364 1276 351
1266T332 1245Q325 1231 324 1214V1012Z" />
<glyph unicode="&#xbb;" glyph-name="guillemotright" horiz-adv-x="1536" d="M982 194Q958 170 933 152T878 134Q858 134 839 143T796 176Q770 202 760 223T750 264Q750 293 768 317T810 366L1054 606L808 850Q785 873 768 898T750 954Q750 974 759 993T792 1036Q816
1060 837 1071T878 1082Q908 1082 932 1064T980 1022L1294 710Q1320 684 1338 661T1356 608Q1356 592 1351 578T1336 551T1317 527T1296 506L982 194ZM420 196Q396 172 371 154T316 136Q296 136 277 145T234 178Q208 204 198 225T188 266Q188 295 206 319T248 368L492
608L246 852Q223 875 206 900T188 956Q188 976 197 995T230 1038Q254 1062 275 1073T316 1084Q346 1084 370 1066T418 1024L732 712Q758 686 776 663T794 610Q794 594 789 580T774 553T755 529T734 508L420 196Z" />
<glyph unicode="&#xbc;" glyph-name="onequarter" horiz-adv-x="940" d="M228 664Q215 664 203 666T182 674T168 691T162 720Q162 740 167 751T182 769T203 776T228 778H714Q724 778 735 777T756 769T772 752T778 720Q778 702 772 691T757 674T736 666T714 664H254H228ZM552
394Q574 394 586 388T605 372T614 348T616 318V68Q616 55 614 43T606 22T589 6T558 0Q538 0 526 5T507 19T498 40T496 66V146H354Q328 146 311 149T283 159T268 173T264 192Q264 194 264 197T268 210T276 242T292 300T319 393T358 530Q368 557 380 574T422 592Q452
592 463 576T474 536Q474 521 471 506T462 476Q455 453 447 422T432 361T418 305T408 264H496V322Q496 336 497 349T505 372T522 388T552 394ZM392 1190Q375 1178 359 1169T318 1160Q289 1160 272 1179T254 1224Q254 1251 269 1263T306 1286Q328 1301 346 1316T378
1345T403 1368T422 1382Q433 1388 441 1389T458 1390Q484 1390 498 1381T519 1357T527 1324T528 1288V950Q528 930 527 912T519 879T498 855T458 846Q433 846 420 855T400 878T393 909T392 944V1190Z" />
<glyph unicode="&#xbd;" glyph-name="onehalf" horiz-adv-x="940" d="M250 664Q236 664 224 665T203 673T188 689T182 718Q182 738 187 749T202 766T224 773T250 774H734Q745 774 756 773T777 767T792 750T798 718Q798 700 792 690T777 673T757 666T734 664H274H250ZM414
1190Q396 1176 379 1168T338 1160Q309 1160 292 1179T274 1224Q274 1250 289 1262T326 1284Q348 1300 366 1315T399 1344T425 1367T444 1380Q453 1386 461 1387T480 1388Q505 1388 519 1379T539 1356T547 1324T548 1288V950Q548 930 547 911T539 878T519 855T480
846Q455 846 442 855T422 878T415 910T414 946V1190ZM478 594Q576 594 625 546T674 418Q674 368 649 333T593 275Q557 249 512 232Q497 226 482 219T455 201T436 177T428 146V126H578Q592 126 610 125T643 118T669 100T680 66Q680 41 671 28T648 8T615 1T578 0H366Q346
0 332 7T310 25T298 50T294 78V146Q294 211 335 257T444 330Q478 343 498 355T528 378T542 401T546 424Q546 446 539 459T521 478T499 486T478 488Q456 488 444 482T425 467T416 446T414 424Q414 407 408 396T392 378T372 367T352 364Q322 364 305 379T288 418Q288
435 294 465T321 523T378 573T478 594Z" />
<glyph unicode="&#xbe;" glyph-name="threequarters" horiz-adv-x="940" d="M238 664Q226 664 214 665T193 673T178 690T172 720Q172 739 178 750T193 766T214 773T238 774H724Q736 774 748 773T769 767T784 750T790 720Q790 701 784 690T769 673T748 666T724
664H264H238ZM460 1278H364Q350 1278 336 1279T309 1286T290 1301T282 1328Q282 1350 290 1362T311 1381T339 1388T370 1390H538Q570 1390 586 1371T602 1328Q602 1325 602 1318T598 1304L518 1178Q556 1173 577 1155T607 1113T618 1061T620 1010V1000Q620 966
609 938T576 888T521 856T442 844Q383 844 348 863T294 908T270 960T264 1000Q264 1027 281 1042T324 1058Q332 1058 342 1055T361 1045T376 1027T382 1000Q382 990 384 980T392 960T410 946T442 940Q450 940 461 942T482 952T499 975T506 1018Q506 1040 505 1055T498
1079T482 1092T452 1096Q428 1096 414 1111T400 1146Q400 1157 404 1166T414 1190L460 1278ZM564 394Q586 394 598 388T617 372T626 348T628 318V68Q628 55 626 43T618 22T601 6T570 0Q550 0 538 5T519 19T510 40T508 66V146H366Q340 146 323 149T295 159T280 173T276
192Q276 194 276 197T280 210T288 242T304 300T331 393T370 530Q380 557 392 574T434 592Q464 592 475 576T486 536Q486 521 483 506T474 476Q467 453 459 422T444 361T430 305T420 264H508V322Q508 336 509 349T517 372T534 388T564 394Z" />
<glyph unicode="&#xbf;" glyph-name="questiondown" horiz-adv-x="1142" d="M1010 412Q1010 321 981 246T895 116T753 31T554 0Q454 0 382 23T260 83T179 166T131 258T108 344T102 412Q102 471 144 508T254 546Q276 546 302 538T351 513T389 469T404 402Q404 378
408 352T428 303T474 267T554 252Q573 252 600 255T653 273T696 317T714 400Q714 450 691 483T633 544T558 596T483 654T425 733T402 848Q402 867 408 890T431 933T475 966T546 980Q617 980 650 945T684 856Q684 835 692 819T706 794Q720 775 748 754T810 707T879
652T944 586T991 507T1010 412ZM718 1254Q718 1168 678 1129T554 1090Q474 1090 431 1129T388 1254Q388 1339 431 1379T554 1420Q632 1420 675 1380T718 1254Z" />
<glyph unicode="&#xc0;" glyph-name="Agrave" horiz-adv-x="1104" d="M394 604H712L564 1140H542L394 604ZM1022 506Q1024 438 1027 367T1030 230V200Q1030 162 1028 127T1012 63T971 17T892 0Q840 0 812 17T771 62T755 126T752 200V340H352V200Q352 162 350 126T334
62T292 17T212 0Q160 0 132 17T91 62T76 126T74 200V230Q74 261 74 296T76 367T78 438T80 506Q130 680 185 858T290 1212Q300 1249 314 1283T351 1343T410 1384T502 1400H602Q657 1400 693 1385T753 1344T789 1284T814 1212L1022 506ZM734 1698Q748 1689 763 1666T778
1612Q778 1598 773 1582T756 1548Q736 1519 713 1511T662 1502Q647 1502 632 1505T602 1518L382 1652Q362 1666 347 1688T332 1738Q332 1752 337 1770T354 1806Q374 1835 401 1843T454 1852Q483 1852 510 1834L734 1698Z" />
<glyph unicode="&#xc1;" glyph-name="Aacute" horiz-adv-x="1104" d="M394 604H712L564 1140H542L394 604ZM1022 506Q1024 438 1027 367T1030 230V200Q1030 162 1028 127T1012 63T971 17T892 0Q840 0 812 17T771 62T755 126T752 200V340H352V200Q352 162 350 126T334
62T292 17T212 0Q160 0 132 17T91 62T76 126T74 200V230Q74 261 74 296T76 367T78 438T80 506Q130 680 185 858T290 1212Q300 1249 314 1283T351 1343T410 1384T502 1400H602Q657 1400 693 1385T753 1344T789 1284T814 1212L1022 506ZM604 1832Q631 1850 660 1850Q686
1850 713 1842T760 1804Q772 1786 777 1768T782 1736Q782 1709 767 1687T732 1650L512 1516Q498 1507 483 1504T452 1500Q425 1500 402 1508T358 1546Q346 1563 341 1579T336 1610Q336 1640 351 1663T380 1696L604 1832Z" />
<glyph unicode="&#xc2;" glyph-name="Acircumflex" horiz-adv-x="1104" d="M394 604H712L564 1140H542L394 604ZM1022 506Q1024 438 1027 367T1030 230V200Q1030 162 1028 127T1012 63T971 17T892 0Q840 0 812 17T771 62T755 126T752 200V340H352V200Q352 162
350 126T334 62T292 17T212 0Q160 0 132 17T91 62T76 126T74 200V230Q74 261 74 296T76 367T78 438T80 506Q130 680 185 858T290 1212Q300 1249 314 1283T351 1343T410 1384T502 1400H602Q657 1400 693 1385T753 1344T789 1284T814 1212L1022 506ZM830 1680Q841
1669 849 1651T858 1608Q858 1582 847 1563T820 1530Q802 1513 785 1507T750 1500Q726 1500 702 1507T664 1532L554 1636L444 1532Q430 1515 406 1508T358 1500Q340 1500 323 1506T288 1530Q273 1544 262 1563T250 1608Q250 1632 258 1650T278 1680L468 1860Q483
1875 501 1883T544 1894H564Q609 1891 640 1860L830 1680Z" />
<glyph unicode="&#xc3;" glyph-name="Atilde" horiz-adv-x="1104" d="M510 1574Q490 1585 475 1590T448 1596Q430 1596 412 1584T368 1544Q353 1527 336 1517T304 1506Q286 1506 262 1517T222 1550Q200 1575 200 1602Q200 1623 214 1647T260 1702L334 1768Q358
1789 382 1801T436 1814Q457 1814 477 1806T522 1786Q565 1764 591 1751T633 1731T654 1722T664 1720Q679 1720 694 1730T728 1760Q745 1775 763 1785T802 1796Q816 1794 829 1788T860 1764Q878 1746 884 1729T890 1694Q888 1682 881 1669T865 1644T845 1620T826
1602Q791 1566 767 1546T727 1515T699 1503T678 1500Q670 1500 661 1501T633 1510T586 1533T510 1574ZM394 604H712L564 1140H542L394 604ZM1022 506Q1024 438 1027 367T1030 230V200Q1030 162 1028 127T1012 63T971 17T892 0Q840 0 812 17T771 62T755 126T752
200V340H352V200Q352 162 350 126T334 62T292 17T212 0Q160 0 132 17T91 62T76 126T74 200V230Q74 261 74 296T76 367T78 438T80 506Q130 680 185 858T290 1212Q300 1249 314 1283T351 1343T410 1384T502 1400H602Q657 1400 693 1385T753 1344T789 1284T814 1212L1022
506Z" />
<glyph unicode="&#xc4;" glyph-name="Adieresis" horiz-adv-x="1104" d="M394 604H712L564 1140H542L394 604ZM1022 506Q1024 438 1027 367T1030 230V200Q1030 162 1028 127T1012 63T971 17T892 0Q840 0 812 17T771 62T755 126T752 200V340H352V200Q352 162 350
126T334 62T292 17T212 0Q160 0 132 17T91 62T76 126T74 200V230Q74 261 74 296T76 367T78 438T80 506Q130 680 185 858T290 1212Q300 1249 314 1283T351 1343T410 1384T502 1400H602Q657 1400 693 1385T753 1344T789 1284T814 1212L1022 506ZM494 1652Q494 1575
454 1538T342 1500Q270 1500 230 1537T190 1652Q190 1732 230 1768T342 1804Q419 1804 456 1768T494 1652ZM910 1652Q910 1575 870 1538T758 1500Q686 1500 646 1537T606 1652Q606 1732 646 1768T758 1804Q835 1804 872 1768T910 1652Z" />
<glyph unicode="&#xc5;" glyph-name="Aring" horiz-adv-x="1104" d="M394 604H712L564 1140H542L394 604ZM1022 506Q1024 438 1027 367T1030 230V200Q1030 162 1028 127T1012 63T971 17T892 0Q840 0 812 17T771 62T755 126T752 200V340H352V200Q352 162 350 126T334
62T292 17T212 0Q160 0 132 17T91 62T76 126T74 200V230Q74 261 74 296T76 367T78 438T80 506Q130 680 185 858T290 1212Q300 1249 314 1283T351 1343T410 1384T502 1400H602Q657 1400 693 1385T753 1344T789 1284T814 1212L1022 506ZM668 1730Q668 1790 640 1817T554
1844Q500 1844 470 1817T440 1730Q440 1673 470 1645T554 1616Q608 1616 638 1644T668 1730ZM782 1730Q782 1612 723 1556T554 1500Q444 1500 384 1556T324 1730Q324 1849 384 1903T554 1958Q670 1958 726 1904T782 1730Z" />
<glyph unicode="&#xc6;" glyph-name="AE" horiz-adv-x="1600" d="M84 506Q182 680 286 858T488 1212Q509 1249 536 1283T599 1343T679 1384T780 1400H1296Q1336 1400 1377 1397T1451 1381T1505 1339T1526 1260Q1526 1209 1505 1180T1451 1135T1377 1116T1296 1112H1058V840H1184Q1224
840 1264 838T1336 824T1388 784T1408 708Q1408 658 1388 632T1337 593T1265 578T1184 576H1058V288H1296Q1336 288 1377 284T1451 265T1505 221T1526 142Q1526 90 1505 62T1450 20T1376 3T1296 0H920Q864 0 834 20T789 72T773 146T770 230V340H356V200Q356 162
354 126T338 62T296 17T216 0Q164 0 136 17T95 62T80 126T78 200V230Q78 261 78 296T80 367T82 438T84 506ZM452 604H770V1140H748L452 604Z" />
<glyph unicode="&#xc7;" glyph-name="Ccedilla" horiz-adv-x="1110" d="M556 230Q603 230 633 249T680 302T703 378T710 468Q710 483 715 499T738 528T791 551T886 560Q946 560 978 547T1026 516T1043 482T1046 460Q1046 361 1016 281T930 143T796 48T624 0L612
-22Q657 -26 692 -28T753 -45T791 -93T804 -194V-202Q804 -260 781 -297T721 -355T635 -384T534 -392Q465 -392 418 -380T341 -343T299 -284T286 -202Q286 -189 294 -178T315 -159T344 -147T376 -142Q386 -142 401 -145T430 -157T454 -177T464 -208Q464 -219 466
-233T475 -259T497 -281T534 -290Q543 -290 555 -286T580 -270T600 -238T608 -184Q608 -159 606 -146T598 -126T579 -118T544 -116Q515 -116 501 -98T486 -56Q486 -47 489 -35T502 -4Q472 -2 431 4T343 27T252 71T171 145T113 256T90 410V968Q90 1050 110 1113T162
1222T237 1300T323 1353Q425 1401 556 1408Q666 1408 745 1383T879 1318T967 1228T1017 1125T1040 1025T1046 942Q1046 927 1044 906T1026 864T979 830T886 816Q866 816 836 818T778 831T730 861T710 916Q710 970 704 1013T680 1086T633 1132T556 1148Q507 1148
481 1128T442 1083Q428 1054 426 1018V384Q428 340 442 307Q454 278 480 254T556 230Z" />
<glyph unicode="&#xc8;" glyph-name="Egrave" horiz-adv-x="986" d="M682 1400Q722 1400 763 1396T837 1377T891 1333T912 1252Q912 1201 891 1172T837 1127T763 1108T682 1104H444V844H570Q610 844 650 842T722 826T774 785T794 708Q794 658 774 631T723 591T651
575T570 572H444V296H682Q722 296 763 292T837 273T891 229T912 150Q912 98 891 68T836 23T762 4T682 0H290Q234 0 204 20T159 72T143 146T140 230V1170Q140 1213 142 1254T159 1327T203 1380T290 1400H682ZM672 1696Q686 1687 701 1664T716 1610Q716 1596 711
1580T694 1546Q674 1517 651 1509T600 1500Q585 1500 570 1503T540 1516L320 1650Q300 1664 285 1686T270 1736Q270 1750 275 1768T292 1804Q312 1833 339 1841T392 1850Q421 1850 448 1832L672 1696Z" />
<glyph unicode="&#xc9;" glyph-name="Eacute" horiz-adv-x="986" d="M682 1400Q722 1400 763 1396T837 1377T891 1333T912 1252Q912 1201 891 1172T837 1127T763 1108T682 1104H444V844H570Q610 844 650 842T722 826T774 785T794 708Q794 658 774 631T723 591T651
575T570 572H444V296H682Q722 296 763 292T837 273T891 229T912 150Q912 98 891 68T836 23T762 4T682 0H290Q234 0 204 20T159 72T143 146T140 230V1170Q140 1213 142 1254T159 1327T203 1380T290 1400H682ZM542 1832Q569 1850 598 1850Q624 1850 651 1842T698
1804Q710 1786 715 1768T720 1736Q720 1709 705 1687T670 1650L450 1516Q436 1507 421 1504T390 1500Q363 1500 340 1508T296 1546Q284 1563 279 1579T274 1610Q274 1640 289 1663T318 1696L542 1832Z" />
<glyph unicode="&#xca;" glyph-name="Ecircumflex" horiz-adv-x="986" d="M682 1400Q722 1400 763 1396T837 1377T891 1333T912 1252Q912 1201 891 1172T837 1127T763 1108T682 1104H444V844H570Q610 844 650 842T722 826T774 785T794 708Q794 658 774 631T723
591T651 575T570 572H444V296H682Q722 296 763 292T837 273T891 229T912 150Q912 98 891 68T836 23T762 4T682 0H290Q234 0 204 20T159 72T143 146T140 230V1170Q140 1213 142 1254T159 1327T203 1380T290 1400H682ZM792 1680Q803 1669 811 1651T820 1608Q820 1582
809 1563T782 1530Q764 1513 747 1507T712 1500Q688 1500 664 1507T626 1532L516 1636L406 1532Q392 1515 368 1508T320 1500Q302 1500 285 1506T250 1530Q235 1544 224 1563T212 1608Q212 1632 220 1650T240 1680L430 1860Q445 1875 463 1883T506 1894H526Q571
1891 602 1860L792 1680Z" />
<glyph unicode="&#xcb;" glyph-name="Edieresis" horiz-adv-x="986" d="M682 1400Q722 1400 763 1396T837 1377T891 1333T912 1252Q912 1201 891 1172T837 1127T763 1108T682 1104H444V844H570Q610 844 650 842T722 826T774 785T794 708Q794 658 774 631T723 591T651
575T570 572H444V296H682Q722 296 763 292T837 273T891 229T912 150Q912 98 891 68T836 23T762 4T682 0H290Q234 0 204 20T159 72T143 146T140 230V1170Q140 1213 142 1254T159 1327T203 1380T290 1400H682ZM462 1652Q462 1575 422 1538T310 1500Q238 1500 198
1537T158 1652Q158 1732 198 1768T310 1804Q387 1804 424 1768T462 1652ZM878 1652Q878 1575 838 1538T726 1500Q654 1500 614 1537T574 1652Q574 1732 614 1768T726 1804Q803 1804 840 1768T878 1652Z" />
<glyph unicode="&#xcc;" glyph-name="Igrave" horiz-adv-x="666" d="M168 1170Q168 1213 172 1254T193 1327T243 1380T334 1400Q392 1400 425 1380T474 1328T495 1254T500 1170V230Q500 186 496 145T476 72T426 20T334 0Q276 0 243 19T194 71T173 145T168 230V1170ZM498
1696Q512 1687 527 1664T542 1610Q542 1596 537 1580T520 1546Q500 1517 477 1509T426 1500Q411 1500 396 1503T366 1516L146 1650Q126 1664 111 1686T96 1736Q96 1750 101 1768T118 1804Q138 1833 165 1841T218 1850Q247 1850 274 1832L498 1696Z" />
<glyph unicode="&#xcd;" glyph-name="Iacute" horiz-adv-x="666" d="M168 1170Q168 1213 172 1254T193 1327T243 1380T334 1400Q392 1400 425 1380T474 1328T495 1254T500 1170V230Q500 186 496 145T476 72T426 20T334 0Q276 0 243 19T194 71T173 145T168 230V1170ZM382
1832Q409 1850 438 1850Q464 1850 491 1842T538 1804Q550 1786 555 1768T560 1736Q560 1709 545 1687T510 1650L290 1516Q276 1507 261 1504T230 1500Q203 1500 180 1508T136 1546Q124 1563 119 1579T114 1610Q114 1640 129 1663T158 1696L382 1832Z" />
<glyph unicode="&#xce;" glyph-name="Icircumflex" horiz-adv-x="666" d="M168 1170Q168 1213 172 1254T193 1327T243 1380T334 1400Q392 1400 425 1380T474 1328T495 1254T500 1170V230Q500 186 496 145T476 72T426 20T334 0Q276 0 243 19T194 71T173 145T168
230V1170ZM610 1680Q621 1669 629 1651T638 1608Q638 1582 627 1563T600 1530Q582 1513 565 1507T530 1500Q506 1500 482 1507T444 1532L334 1636L224 1532Q210 1515 186 1508T138 1500Q120 1500 103 1506T68 1530Q53 1544 42 1563T30 1608Q30 1632 38 1650T58
1680L248 1860Q263 1875 281 1883T324 1894H344Q389 1891 420 1860L610 1680Z" />
<glyph unicode="&#xcf;" glyph-name="Idieresis" horiz-adv-x="666" d="M168 1170Q168 1213 172 1254T193 1327T243 1380T334 1400Q392 1400 425 1380T474 1328T495 1254T500 1170V230Q500 186 496 145T476 72T426 20T334 0Q276 0 243 19T194 71T173 145T168 230V1170ZM278
1652Q278 1575 238 1538T126 1500Q54 1500 14 1537T-26 1652Q-26 1732 14 1768T126 1804Q203 1804 240 1768T278 1652ZM694 1652Q694 1575 654 1538T542 1500Q470 1500 430 1537T390 1652Q390 1732 430 1768T542 1804Q619 1804 656 1768T694 1652Z" />
<glyph unicode="&#xd0;" glyph-name="Eth" horiz-adv-x="1126" d="M604 1400Q695 1400 773 1377T910 1309T1002 1195T1036 1036V416Q1036 338 1019 279T975 176T912 102T841 52Q755 6 646 0H314Q257 0 226 19T181 71T165 145T162 230V594H126Q98 594 72 597T26
613T-6 649T-18 714Q-18 758 -6 783T26 820T72 835T126 838H162V1172Q162 1215 164 1256T181 1329T226 1380T314 1400H604ZM750 988Q750 1021 744 1046T726 1091T701 1123T673 1144Q639 1163 596 1166H466V838H518Q543 838 569 835T615 820T649 783T662 714Q662
673 649 650T616 614T569 598T518 594H466V238H596Q639 240 673 258Q687 265 701 277T726 305T743 345T750 398V988Z" />
<glyph unicode="&#xd1;" glyph-name="Ntilde" horiz-adv-x="1360" d="M940 1244Q940 1276 944 1304T961 1354T1001 1387T1074 1400Q1125 1400 1154 1388T1199 1354T1218 1305T1222 1244V230Q1222 186 1220 145T1204 72T1160 20T1074 0H942Q895 0 864 18T811 63T778
119T758 168L464 986H432V156Q432 124 428 96T411 46T371 13T298 0Q246 0 216 12T171 46T152 95T148 156V1170Q148 1213 150 1254T167 1328T211 1380T298 1400H430Q480 1400 511 1381T563 1338Q585 1311 598 1276L908 414H940V1244ZM690 1576Q670 1587 655 1592T628
1598Q610 1598 592 1586T548 1546Q533 1529 516 1519T484 1508Q466 1508 442 1519T402 1552Q380 1577 380 1604Q380 1625 394 1649T440 1704L514 1770Q538 1791 562 1803T616 1816Q637 1816 657 1808T702 1788Q745 1766 771 1753T813 1733T834 1724T844 1722Q859
1722 874 1732T908 1762Q925 1777 943 1787T982 1798Q996 1796 1009 1790T1040 1766Q1058 1748 1064 1731T1070 1696Q1068 1684 1061 1671T1045 1646T1025 1622T1006 1604Q971 1568 947 1548T907 1517T879 1505T858 1502Q850 1502 841 1503T813 1512T766 1535T690
1576Z" />
<glyph unicode="&#xd2;" glyph-name="Ograve" horiz-adv-x="1124" d="M742 1696Q756 1687 771 1664T786 1610Q786 1596 781 1580T764 1546Q744 1517 721 1509T670 1500Q655 1500 640 1503T610 1516L390 1650Q370 1664 355 1686T340 1736Q340 1750 345 1768T362
1804Q382 1833 409 1841T462 1850Q491 1850 518 1832L742 1696ZM104 1004Q104 1100 132 1167T203 1280T299 1350T401 1389T491 1405T550 1408H584Q603 1408 643 1405T732 1389T833 1351T928 1280T998 1168T1026 1004V406Q1026 307 999 238T929 123T834 51T732 11T643
-5T584 -8H550Q531 -8 491 -5T402 11T300 50T204 123T132 238T104 406V1004ZM436 368Q438 331 453 303Q466 278 492 258T568 238Q616 238 642 258T681 303Q695 331 698 368V1020Q695 1056 681 1085Q668 1109 642 1129T568 1150Q519 1150 493 1130T453 1085Q438
1056 436 1020V368Z" />
<glyph unicode="&#xd3;" glyph-name="Oacute" horiz-adv-x="1124" d="M610 1832Q637 1850 666 1850Q692 1850 719 1842T766 1804Q778 1786 783 1768T788 1736Q788 1709 773 1687T738 1650L518 1516Q504 1507 489 1504T458 1500Q431 1500 408 1508T364 1546Q352
1563 347 1579T342 1610Q342 1640 357 1663T386 1696L610 1832ZM104 1004Q104 1100 132 1167T203 1280T299 1350T401 1389T491 1405T550 1408H584Q603 1408 643 1405T732 1389T833 1351T928 1280T998 1168T1026 1004V406Q1026 307 999 238T929 123T834 51T732 11T643
-5T584 -8H550Q531 -8 491 -5T402 11T300 50T204 123T132 238T104 406V1004ZM436 368Q438 331 453 303Q466 278 492 258T568 238Q616 238 642 258T681 303Q695 331 698 368V1020Q695 1056 681 1085Q668 1109 642 1129T568 1150Q519 1150 493 1130T453 1085Q438
1056 436 1020V368Z" />
<glyph unicode="&#xd4;" glyph-name="Ocircumflex" horiz-adv-x="1124" d="M842 1680Q853 1669 861 1651T870 1608Q870 1582 859 1563T832 1530Q814 1513 797 1507T762 1500Q738 1500 714 1507T676 1532L566 1636L456 1532Q442 1515 418 1508T370 1500Q352 1500
335 1506T300 1530Q285 1544 274 1563T262 1608Q262 1632 270 1650T290 1680L480 1860Q495 1875 513 1883T556 1894H576Q621 1891 652 1860L842 1680ZM104 1004Q104 1100 132 1167T203 1280T299 1350T401 1389T491 1405T550 1408H584Q603 1408 643 1405T732 1389T833
1351T928 1280T998 1168T1026 1004V406Q1026 307 999 238T929 123T834 51T732 11T643 -5T584 -8H550Q531 -8 491 -5T402 11T300 50T204 123T132 238T104 406V1004ZM436 368Q438 331 453 303Q466 278 492 258T568 238Q616 238 642 258T681 303Q695 331 698 368V1020Q695
1056 681 1085Q668 1109 642 1129T568 1150Q519 1150 493 1130T453 1085Q438 1056 436 1020V368Z" />
<glyph unicode="&#xd5;" glyph-name="Otilde" horiz-adv-x="1124" d="M510 1574Q490 1585 475 1590T448 1596Q430 1596 412 1584T368 1544Q353 1527 336 1517T304 1506Q286 1506 262 1517T222 1550Q200 1575 200 1602Q200 1623 214 1647T260 1702L334 1768Q358
1789 382 1801T436 1814Q457 1814 477 1806T522 1786Q565 1764 591 1751T633 1731T654 1722T664 1720Q679 1720 694 1730T728 1760Q745 1775 763 1785T802 1796Q816 1794 829 1788T860 1764Q878 1746 884 1729T890 1694Q888 1682 881 1669T865 1644T845 1620T826
1602Q791 1566 767 1546T727 1515T699 1503T678 1500Q670 1500 661 1501T633 1510T586 1533T510 1574ZM104 1004Q104 1100 132 1167T203 1280T299 1350T401 1389T491 1405T550 1408H584Q603 1408 643 1405T732 1389T833 1351T928 1280T998 1168T1026 1004V406Q1026
307 999 238T929 123T834 51T732 11T643 -5T584 -8H550Q531 -8 491 -5T402 11T300 50T204 123T132 238T104 406V1004ZM436 368Q438 331 453 303Q466 278 492 258T568 238Q616 238 642 258T681 303Q695 331 698 368V1020Q695 1056 681 1085Q668 1109 642 1129T568
1150Q519 1150 493 1130T453 1085Q438 1056 436 1020V368Z" />
<glyph unicode="&#xd6;" glyph-name="Odieresis" horiz-adv-x="1124" d="M506 1652Q506 1575 466 1538T354 1500Q282 1500 242 1537T202 1652Q202 1732 242 1768T354 1804Q431 1804 468 1768T506 1652ZM922 1652Q922 1575 882 1538T770 1500Q698 1500 658 1537T618
1652Q618 1732 658 1768T770 1804Q847 1804 884 1768T922 1652ZM104 1004Q104 1100 132 1167T203 1280T299 1350T401 1389T491 1405T550 1408H584Q603 1408 643 1405T732 1389T833 1351T928 1280T998 1168T1026 1004V406Q1026 307 999 238T929 123T834 51T732 11T643
-5T584 -8H550Q531 -8 491 -5T402 11T300 50T204 123T132 238T104 406V1004ZM436 368Q438 331 453 303Q466 278 492 258T568 238Q616 238 642 258T681 303Q695 331 698 368V1020Q695 1056 681 1085Q668 1109 642 1129T568 1150Q519 1150 493 1130T453 1085Q438
1056 436 1020V368Z" />
<glyph unicode="&#xd7;" glyph-name="multiply" horiz-adv-x="1276" d="M436 352Q412 328 387 310T332 292Q312 292 293 301T250 334Q224 360 214 381T204 422Q204 451 222 475T264 524L462 722L262 924Q239 947 222 972T204 1028Q204 1048 213 1067T246 1110Q270
1134 291 1145T332 1156Q362 1156 386 1138T434 1096L636 894L838 1096Q861 1119 885 1137T940 1156Q960 1156 981 1145T1026 1110Q1049 1087 1058 1068T1068 1028Q1068 998 1051 973T1010 924L808 722L1008 524Q1032 500 1050 476T1068 422Q1068 402 1058 381T1022
334Q999 311 980 302T940 292Q911 292 886 310T836 352L636 550L436 352Z" />
<glyph unicode="&#xd8;" glyph-name="Oslash" horiz-adv-x="1128" d="M104 996Q104 1092 132 1159T203 1272T299 1342T401 1381T491 1397T550 1400H584Q603 1400 643 1397T732 1381T833 1343T928 1272T998 1160T1026 996V414Q1026 315 999 246T929 131T834 59T732
19T643 3T584 0H550Q531 0 491 3T402 19T300 58T204 131T132 246T104 414V996ZM568 246Q616 246 642 266T680 311Q694 339 696 376V782L442 344Q445 330 452 313T474 281T511 256T568 246ZM568 1142Q519 1142 493 1122T454 1077Q440 1048 438 1012V608L692 1046Q688
1060 681 1077T659 1108T623 1132T568 1142Z" />
<glyph unicode="&#xd9;" glyph-name="Ugrave" horiz-adv-x="1208" d="M796 1696Q810 1687 825 1664T840 1610Q840 1596 835 1580T818 1546Q798 1517 775 1509T724 1500Q709 1500 694 1503T664 1516L444 1650Q424 1664 409 1686T394 1736Q394 1750 399 1768T416
1804Q436 1833 463 1841T516 1850Q545 1850 572 1832L796 1696ZM142 1172Q142 1215 146 1256T167 1329T217 1380T308 1400Q366 1400 399 1381T449 1329T470 1256T474 1172V384Q477 340 492 306Q498 291 508 277T531 252T563 235T606 228Q630 228 649 234T681 252T705
277T721 306Q736 340 738 384V1172Q738 1215 742 1256T762 1329T812 1380T904 1400Q962 1400 995 1381T1044 1329T1065 1256T1070 1172V410Q1070 306 1037 228T942 98T795 19T606 -8Q502 -8 417 19T271 100T176 231T142 410V1172Z" />
<glyph unicode="&#xda;" glyph-name="Uacute" horiz-adv-x="1208" d="M710 1832Q737 1850 766 1850Q792 1850 819 1842T866 1804Q878 1786 883 1768T888 1736Q888 1709 873 1687T838 1650L618 1516Q604 1507 589 1504T558 1500Q531 1500 508 1508T464 1546Q452
1563 447 1579T442 1610Q442 1640 457 1663T486 1696L710 1832ZM142 1172Q142 1215 146 1256T167 1329T217 1380T308 1400Q366 1400 399 1381T449 1329T470 1256T474 1172V384Q477 340 492 306Q498 291 508 277T531 252T563 235T606 228Q630 228 649 234T681 252T705
277T721 306Q736 340 738 384V1172Q738 1215 742 1256T762 1329T812 1380T904 1400Q962 1400 995 1381T1044 1329T1065 1256T1070 1172V410Q1070 306 1037 228T942 98T795 19T606 -8Q502 -8 417 19T271 100T176 231T142 410V1172Z" />
<glyph unicode="&#xdb;" glyph-name="Ucircumflex" horiz-adv-x="1208" d="M884 1680Q895 1669 903 1651T912 1608Q912 1582 901 1563T874 1530Q856 1513 839 1507T804 1500Q780 1500 756 1507T718 1532L608 1636L498 1532Q484 1515 460 1508T412 1500Q394 1500
377 1506T342 1530Q327 1544 316 1563T304 1608Q304 1632 312 1650T332 1680L522 1860Q537 1875 555 1883T598 1894H618Q663 1891 694 1860L884 1680ZM142 1172Q142 1215 146 1256T167 1329T217 1380T308 1400Q366 1400 399 1381T449 1329T470 1256T474 1172V384Q477
340 492 306Q498 291 508 277T531 252T563 235T606 228Q630 228 649 234T681 252T705 277T721 306Q736 340 738 384V1172Q738 1215 742 1256T762 1329T812 1380T904 1400Q962 1400 995 1381T1044 1329T1065 1256T1070 1172V410Q1070 306 1037 228T942 98T795 19T606
-8Q502 -8 417 19T271 100T176 231T142 410V1172Z" />
<glyph unicode="&#xdc;" glyph-name="Udieresis" horiz-adv-x="1208" d="M550 1652Q550 1575 510 1538T398 1500Q326 1500 286 1537T246 1652Q246 1732 286 1768T398 1804Q475 1804 512 1768T550 1652ZM966 1652Q966 1575 926 1538T814 1500Q742 1500 702 1537T662
1652Q662 1732 702 1768T814 1804Q891 1804 928 1768T966 1652ZM142 1172Q142 1215 146 1256T167 1329T217 1380T308 1400Q366 1400 399 1381T449 1329T470 1256T474 1172V384Q477 340 492 306Q498 291 508 277T531 252T563 235T606 228Q630 228 649 234T681 252T705
277T721 306Q736 340 738 384V1172Q738 1215 742 1256T762 1329T812 1380T904 1400Q962 1400 995 1381T1044 1329T1065 1256T1070 1172V410Q1070 306 1037 228T942 98T795 19T606 -8Q502 -8 417 19T271 100T176 231T142 410V1172Z" />
<glyph unicode="&#xdd;" glyph-name="Yacute" horiz-adv-x="1000" d="M548 1832Q575 1850 604 1850Q630 1850 657 1842T704 1804Q716 1786 721 1768T726 1736Q726 1709 711 1687T676 1650L456 1516Q442 1507 427 1504T396 1500Q369 1500 346 1508T302 1546Q290
1563 285 1579T280 1610Q280 1640 295 1663T324 1696L548 1832ZM654 226Q654 184 650 144T631 71T586 20T504 0Q451 0 421 19T376 71T356 143T352 226V574L54 1106Q30 1148 8 1188T-14 1270Q-14 1297 1 1324T58 1376Q103 1400 142 1400Q172 1400 196 1387T241 1351T277
1302T306 1246L488 864H520L702 1246Q715 1274 731 1301T767 1351T811 1386T866 1400Q887 1400 907 1394T950 1376Q989 1352 1005 1325T1022 1270Q1022 1252 1006 1212T954 1106L654 574V226Z" />
<glyph unicode="&#xde;" glyph-name="Thorn" horiz-adv-x="1130" d="M180 1172Q180 1215 184 1256T204 1329T250 1380T330 1400Q382 1400 413 1381T459 1330T479 1257T484 1172V1030Q493 1060 509 1090T552 1144T614 1183T700 1198Q755 1198 810 1180T909 1121T980
1012T1008 844V554Q1008 455 981 388T909 278T810 218T700 200Q651 200 615 215T552 255T510 309T484 368V228Q484 184 480 143T460 71T414 20T334 0Q281 0 251 19T205 70T185 143T180 228V1172ZM700 822Q700 848 698 873T687 919T661 951T612 964Q573 964 548
939T509 878T490 802T484 730Q485 653 490 598T510 506T548 452T612 434Q643 434 660 446T687 480T698 527T700 580V822Z" />
<glyph unicode="&#xdf;" glyph-name="germandbls" horiz-adv-x="1130" d="M550 1380Q639 1380 714 1360T843 1295T927 1181T958 1014Q958 949 940 903T896 827T844 781T804 758V748Q864 735 905 711T973 656T1015 591T1037 524T1046 463T1048 416Q1048 336 1033
274T990 165T927 88T848 37T759 9T666 0Q629 0 598 4T544 22T506 60T490 122Q490 162 501 190T530 234T571 258T618 266Q632 266 643 263T664 255Q675 250 684 244Q706 244 718 260T737 302T744 358T746 416Q746 479 731 517T693 580T643 620T594 652T556 691T540
754Q540 801 551 827T579 867T616 891T652 912T680 944T692 1004Q692 1048 680 1078T649 1128T604 1155T552 1164Q538 1164 518 1163T478 1152T446 1124T432 1070V18Q432 -25 430 -66T413 -139T367 -192T280 -212Q224 -212 194 -193T149 -141T133 -67T130 18V1092Q130
1232 233 1306T550 1380Z" />
<glyph unicode="&#xe0;" glyph-name="agrave" horiz-adv-x="1020" d="M912 226Q912 184 909 144T891 71T846 20T762 0Q707 0 676 18T630 63T612 119T608 168Q599 139 583 109T540 55T478 16T392 0Q337 0 282 18T183 78T112 187T84 354V644Q84 744 111 811T183
920T282 980T392 998Q441 998 477 983T540 944T582 890T608 830Q608 880 622 913T658 965T707 992T762 1000Q812 1000 842 981T887 930T907 857T912 772V226ZM392 380Q392 353 394 327T405 280T431 247T480 234Q519 234 543 251T582 305T601 397T608 530Q608 561
603 601T583 678T544 739T480 764Q449 764 432 752T405 719T394 674T392 622V380ZM678 1296Q692 1287 707 1264T722 1210Q722 1196 717 1180T700 1146Q680 1117 657 1109T606 1100Q591 1100 576 1103T546 1116L326 1250Q306 1264 291 1286T276 1336Q276 1350 281
1368T298 1404Q318 1433 345 1441T398 1450Q427 1450 454 1432L678 1296Z" />
<glyph unicode="&#xe1;" glyph-name="aacute" horiz-adv-x="1020" d="M912 226Q912 184 909 144T891 71T846 20T762 0Q707 0 676 18T630 63T612 119T608 168Q599 139 583 109T540 55T478 16T392 0Q337 0 282 18T183 78T112 187T84 354V644Q84 744 111 811T183
920T282 980T392 998Q441 998 477 983T540 944T582 890T608 830Q608 880 622 913T658 965T707 992T762 1000Q812 1000 842 981T887 930T907 857T912 772V226ZM392 380Q392 353 394 327T405 280T431 247T480 234Q519 234 543 251T582 305T601 397T608 530Q608 561
603 601T583 678T544 739T480 764Q449 764 432 752T405 719T394 674T392 622V380ZM568 1432Q595 1450 624 1450Q650 1450 677 1442T724 1404Q736 1386 741 1368T746 1336Q746 1309 731 1287T696 1250L476 1116Q462 1107 447 1104T416 1100Q389 1100 366 1108T322
1146Q310 1163 305 1179T300 1210Q300 1240 315 1263T344 1296L568 1432Z" />
<glyph unicode="&#xe2;" glyph-name="acircumflex" horiz-adv-x="1020" d="M912 226Q912 184 909 144T891 71T846 20T762 0Q707 0 676 18T630 63T612 119T608 168Q599 139 583 109T540 55T478 16T392 0Q337 0 282 18T183 78T112 187T84 354V644Q84 744 111 811T183
920T282 980T392 998Q441 998 477 983T540 944T582 890T608 830Q608 880 622 913T658 965T707 992T762 1000Q812 1000 842 981T887 930T907 857T912 772V226ZM392 380Q392 353 394 327T405 280T431 247T480 234Q519 234 543 251T582 305T601 397T608 530Q608 561
603 601T583 678T544 739T480 764Q449 764 432 752T405 719T394 674T392 622V380ZM810 1280Q821 1269 829 1251T838 1208Q838 1182 827 1163T800 1130Q782 1113 765 1107T730 1100Q706 1100 682 1107T644 1132L534 1236L424 1132Q410 1115 386 1108T338 1100Q320
1100 303 1106T268 1130Q253 1144 242 1163T230 1208Q230 1232 238 1250T258 1280L448 1460Q463 1475 481 1483T524 1494H544Q589 1491 620 1460L810 1280Z" />
<glyph unicode="&#xe3;" glyph-name="atilde" horiz-adv-x="1020" d="M912 226Q912 184 909 144T891 71T846 20T762 0Q707 0 676 18T630 63T612 119T608 168Q599 139 583 109T540 55T478 16T392 0Q337 0 282 18T183 78T112 187T84 354V644Q84 744 111 811T183
920T282 980T392 998Q441 998 477 983T540 944T582 890T608 830Q608 880 622 913T658 965T707 992T762 1000Q812 1000 842 981T887 930T907 857T912 772V226ZM392 380Q392 353 394 327T405 280T431 247T480 234Q519 234 543 251T582 305T601 397T608 530Q608 561
603 601T583 678T544 739T480 764Q449 764 432 752T405 719T394 674T392 622V380ZM472 1174Q452 1185 437 1190T410 1196Q392 1196 374 1184T330 1144Q315 1127 298 1117T266 1106Q248 1106 224 1117T184 1150Q162 1175 162 1202Q162 1223 176 1247T222 1302L296
1368Q320 1389 344 1401T398 1414Q419 1414 439 1406T484 1386Q527 1364 553 1351T595 1331T616 1322T626 1320Q641 1320 656 1330T690 1360Q707 1375 725 1385T764 1396Q778 1394 791 1388T822 1364Q840 1346 846 1329T852 1294Q850 1282 843 1269T827 1244T807
1220T788 1202Q753 1166 729 1146T689 1115T661 1103T640 1100Q632 1100 623 1101T595 1110T548 1133T472 1174Z" />
<glyph unicode="&#xe4;" glyph-name="adieresis" horiz-adv-x="1020" d="M912 226Q912 184 909 144T891 71T846 20T762 0Q707 0 676 18T630 63T612 119T608 168Q599 139 583 109T540 55T478 16T392 0Q337 0 282 18T183 78T112 187T84 354V644Q84 744 111 811T183
920T282 980T392 998Q441 998 477 983T540 944T582 890T608 830Q608 880 622 913T658 965T707 992T762 1000Q812 1000 842 981T887 930T907 857T912 772V226ZM392 380Q392 353 394 327T405 280T431 247T480 234Q519 234 543 251T582 305T601 397T608 530Q608 561
603 601T583 678T544 739T480 764Q449 764 432 752T405 719T394 674T392 622V380ZM454 1250Q454 1173 414 1136T302 1098Q230 1098 190 1135T150 1250Q150 1330 190 1366T302 1402Q379 1402 416 1366T454 1250ZM870 1250Q870 1173 830 1136T718 1098Q646 1098 606
1135T566 1250Q566 1330 606 1366T718 1402Q795 1402 832 1366T870 1250Z" />
<glyph unicode="&#xe5;" glyph-name="aring" horiz-adv-x="1020" d="M912 226Q912 184 909 144T891 71T846 20T762 0Q707 0 676 18T630 63T612 119T608 168Q599 139 583 109T540 55T478 16T392 0Q337 0 282 18T183 78T112 187T84 354V644Q84 744 111 811T183 920T282
980T392 998Q441 998 477 983T540 944T582 890T608 830Q608 880 622 913T658 965T707 992T762 1000Q812 1000 842 981T887 930T907 857T912 772V226ZM392 380Q392 353 394 327T405 280T431 247T480 234Q519 234 543 251T582 305T601 397T608 530Q608 561 603 601T583
678T544 739T480 764Q449 764 432 752T405 719T394 674T392 622V380ZM622 1330Q622 1390 594 1417T508 1444Q454 1444 424 1417T394 1330Q394 1273 424 1245T508 1216Q562 1216 592 1244T622 1330ZM736 1330Q736 1212 677 1156T508 1100Q398 1100 338 1156T278
1330Q278 1449 338 1503T508 1558Q624 1558 680 1504T736 1330Z" />
<glyph unicode="&#xe6;" glyph-name="ae" horiz-adv-x="1448" d="M22 250Q22 333 63 393T171 493T324 557T498 592L554 598V720Q554 756 532 780T454 804Q392 804 366 783T340 720Q340 706 336 690T314 660T264 636T172 626Q122 626 94 637T53 663T37 696T34 726Q34
811 73 865T173 949T305 991T442 1002Q479 1002 524 998T611 981T688 948T744 892Q762 920 791 940T855 974T924 995T988 1002Q1077 1002 1141 988T1251 949T1324 895T1367 831T1388 766T1394 706V660Q1394 616 1372 580T1290 517T1126 471T858 444V348Q858 324
864 298T884 250T923 214T982 200Q1004 200 1024 205T1059 220T1083 246T1092 282Q1092 295 1096 311T1118 342T1168 366T1260 376Q1310 376 1338 365T1379 339T1395 306T1398 276Q1398 219 1378 177T1325 103T1251 53T1169 21T1091 5T1028 0Q989 0 949 5T869 22T794
57T728 114Q703 76 669 54T595 19T507 4T410 0Q303 0 230 18T110 69T43 148T22 250ZM1108 696Q1108 723 1098 743T1070 776T1030 797T986 804Q939 804 913 786T875 741T861 683T858 626V608Q914 612 960 615T1039 625T1090 641T1108 672V696ZM554 426Q513 424 472
413T397 380T343 328T322 254Q322 221 344 211T398 200Q443 200 473 210T521 239T546 284T554 344V426Z" />
<glyph unicode="&#xe7;" glyph-name="ccedilla" horiz-adv-x="1000" d="M496 772Q459 772 438 760T405 730T391 692T388 656V346Q388 330 391 306T405 258T437 217T496 200Q540 200 565 210T602 237T617 278T620 328Q620 341 624 357T646 388T696 412T788 422Q841
422 870 410T912 382T928 348T930 320Q930 239 900 183T820 90T710 33T586 6L566 -30Q611 -34 646 -36T707 -53T745 -101T758 -202V-210Q758 -268 735 -305T675 -363T589 -392T488 -400Q419 -400 372 -388T295 -351T253 -292T240 -210Q240 -197 248 -186T269 -167T298
-155T330 -150Q340 -150 355 -153T384 -165T408 -185T418 -216Q418 -227 420 -241T429 -267T451 -289T488 -298Q497 -298 509 -294T534 -278T554 -246T562 -192Q562 -167 560 -154T552 -134T533 -126T498 -124Q469 -124 455 -106T440 -64Q440 -55 443 -43T456 -16L464
0Q390 4 321 27T200 95T116 208T84 372V606Q84 701 106 767T165 877T246 945T337 982T424 997T496 1000Q585 1000 651 985T766 945T845 888T895 819T920 747T928 680Q928 664 926 643T911 602T868 568T786 554Q767 554 739 555T683 566T637 594T618 648Q618 672
616 694T601 734T565 761T496 772Z" />
<glyph unicode="&#xe8;" glyph-name="egrave" horiz-adv-x="1020" d="M684 1296Q698 1287 713 1264T728 1210Q728 1196 723 1180T706 1146Q686 1117 663 1109T612 1100Q597 1100 582 1103T552 1116L332 1250Q312 1264 297 1286T282 1336Q282 1350 287 1368T304
1404Q324 1433 351 1441T404 1450Q433 1450 460 1432L684 1296ZM936 570Q936 554 934 533T919 492T876 458T794 444H396V348Q396 324 402 298T422 250T461 214T520 200Q560 200 581 209T615 233T638 263T664 293T710 316T792 326Q817 326 840 322T882 307T911 277T922
226Q922 161 881 118T778 48T644 11T508 0Q425 1 350 21T218 85T126 200T92 374V608Q92 703 114 769T173 879T254 947T345 984T432 999T504 1002Q605 1002 676 984T796 937T872 870T914 792T932 710T936 632V570ZM396 594H646Q646 641 644 677T629 739T590 777T514
790Q473 790 450 777T414 745T399 703T396 664V594Z" />
<glyph unicode="&#xe9;" glyph-name="eacute" horiz-adv-x="1020" d="M570 1432Q597 1450 626 1450Q652 1450 679 1442T726 1404Q738 1386 743 1368T748 1336Q748 1309 733 1287T698 1250L478 1116Q464 1107 449 1104T418 1100Q391 1100 368 1108T324 1146Q312
1163 307 1179T302 1210Q302 1240 317 1263T346 1296L570 1432ZM936 570Q936 554 934 533T919 492T876 458T794 444H396V348Q396 324 402 298T422 250T461 214T520 200Q560 200 581 209T615 233T638 263T664 293T710 316T792 326Q817 326 840 322T882 307T911 277T922
226Q922 161 881 118T778 48T644 11T508 0Q425 1 350 21T218 85T126 200T92 374V608Q92 703 114 769T173 879T254 947T345 984T432 999T504 1002Q605 1002 676 984T796 937T872 870T914 792T932 710T936 632V570ZM396 594H646Q646 641 644 677T629 739T590 777T514
790Q473 790 450 777T414 745T399 703T396 664V594Z" />
<glyph unicode="&#xea;" glyph-name="ecircumflex" horiz-adv-x="1020" d="M780 1280Q791 1269 799 1251T808 1208Q808 1182 797 1163T770 1130Q752 1113 735 1107T700 1100Q676 1100 652 1107T614 1132L504 1236L394 1132Q380 1115 356 1108T308 1100Q290 1100
273 1106T238 1130Q223 1144 212 1163T200 1208Q200 1232 208 1250T228 1280L418 1460Q433 1475 451 1483T494 1494H514Q559 1491 590 1460L780 1280ZM936 570Q936 554 934 533T919 492T876 458T794 444H396V348Q396 324 402 298T422 250T461 214T520 200Q560 200
581 209T615 233T638 263T664 293T710 316T792 326Q817 326 840 322T882 307T911 277T922 226Q922 161 881 118T778 48T644 11T508 0Q425 1 350 21T218 85T126 200T92 374V608Q92 703 114 769T173 879T254 947T345 984T432 999T504 1002Q605 1002 676 984T796 937T872
870T914 792T932 710T936 632V570ZM396 594H646Q646 641 644 677T629 739T590 777T514 790Q473 790 450 777T414 745T399 703T396 664V594Z" />
<glyph unicode="&#xeb;" glyph-name="edieresis" horiz-adv-x="1020" d="M448 1252Q448 1175 408 1138T296 1100Q224 1100 184 1137T144 1252Q144 1332 184 1368T296 1404Q373 1404 410 1368T448 1252ZM864 1252Q864 1175 824 1138T712 1100Q640 1100 600 1137T560
1252Q560 1332 600 1368T712 1404Q789 1404 826 1368T864 1252ZM936 570Q936 554 934 533T919 492T876 458T794 444H396V348Q396 324 402 298T422 250T461 214T520 200Q560 200 581 209T615 233T638 263T664 293T710 316T792 326Q817 326 840 322T882 307T911 277T922
226Q922 161 881 118T778 48T644 11T508 0Q425 1 350 21T218 85T126 200T92 374V608Q92 703 114 769T173 879T254 947T345 984T432 999T504 1002Q605 1002 676 984T796 937T872 870T914 792T932 710T936 632V570ZM396 594H646Q646 641 644 677T629 739T590 777T514
790Q473 790 450 777T414 745T399 703T396 664V594Z" />
<glyph unicode="&#xec;" glyph-name="igrave" horiz-adv-x="626" d="M152 776Q152 818 156 858T177 929T223 980T304 1000Q355 1000 385 981T431 930T451 858T456 776V224Q456 182 452 142T431 70T385 19T304 0Q253 0 223 19T177 69T157 141T152 224V776ZM474
1296Q488 1287 503 1264T518 1210Q518 1196 513 1180T496 1146Q476 1117 453 1109T402 1100Q387 1100 372 1103T342 1116L122 1250Q102 1264 87 1286T72 1336Q72 1350 77 1368T94 1404Q114 1433 141 1441T194 1450Q223 1450 250 1432L474 1296Z" />
<glyph unicode="&#xed;" glyph-name="iacute" horiz-adv-x="626" d="M152 776Q152 818 156 858T177 929T223 980T304 1000Q355 1000 385 981T431 930T451 858T456 776V224Q456 182 452 142T431 70T385 19T304 0Q253 0 223 19T177 69T157 141T152 224V776ZM364
1432Q391 1450 420 1450Q446 1450 473 1442T520 1404Q532 1386 537 1368T542 1336Q542 1309 527 1287T492 1250L272 1116Q258 1107 243 1104T212 1100Q185 1100 162 1108T118 1146Q106 1163 101 1179T96 1210Q96 1240 111 1263T140 1296L364 1432Z" />
<glyph unicode="&#xee;" glyph-name="icircumflex" horiz-adv-x="646" d="M172 776Q172 818 176 858T197 929T243 980T324 1000Q375 1000 405 981T451 930T471 858T476 776V224Q476 182 472 142T451 70T405 19T324 0Q273 0 243 19T197 69T177 141T172 224V776ZM598
1280Q609 1269 617 1251T626 1208Q626 1182 615 1163T588 1130Q570 1113 553 1107T518 1100Q494 1100 470 1107T432 1132L322 1236L212 1132Q198 1115 174 1108T126 1100Q108 1100 91 1106T56 1130Q41 1144 30 1163T18 1208Q18 1232 26 1250T46 1280L236 1460Q251
1475 269 1483T312 1494H332Q377 1491 408 1460L598 1280Z" />
<glyph unicode="&#xef;" glyph-name="idieresis" horiz-adv-x="626" d="M152 776Q152 818 156 858T177 929T223 980T304 1000Q355 1000 385 981T431 930T451 858T456 776V224Q456 182 452 142T431 70T385 19T304 0Q253 0 223 19T177 69T157 141T152 224V776ZM248
1252Q248 1175 208 1138T96 1100Q24 1100 -16 1137T-56 1252Q-56 1332 -16 1368T96 1404Q173 1404 210 1368T248 1252ZM664 1252Q664 1175 624 1138T512 1100Q440 1100 400 1137T360 1252Q360 1332 400 1368T512 1404Q589 1404 626 1368T664 1252Z" />
<glyph unicode="&#xf0;" glyph-name="eth" horiz-adv-x="1064" d="M948 418Q948 318 927 248T872 130T793 55T701 14T609 -4T526 -8Q506 -8 468 -6T384 8T291 44T204 112T141 224T116 390V526Q116 612 135 674T187 780T259 850T341 891T420 911T488 916Q527 916
562 908T627 883T678 837T712 768Q713 800 714 829Q715 854 715 879T716 920Q716 950 714 970T706 1024L550 998Q545 996 540 996T530 996Q488 996 464 1020T440 1076Q440 1108 462 1132T516 1162L648 1184Q633 1199 611 1211T566 1232Q541 1241 520 1246T482 1260T457
1283T448 1324Q448 1346 458 1360T484 1383T516 1395T548 1398Q663 1398 740 1354T864 1218L954 1234Q960 1236 966 1236T978 1236Q1003 1236 1019 1229T1046 1211T1060 1186T1064 1156Q1064 1127 1047 1103T978 1070L918 1060Q927 1004 933 951T942 845T946 738T948
624V418ZM540 204Q584 204 608 222T643 263Q656 289 658 322V540Q658 567 653 595T634 646T597 683T540 698Q496 698 473 680T438 639Q425 613 424 580V322Q424 313 426 294T438 254T472 219T540 204Z" />
<glyph unicode="&#xf1;" glyph-name="ntilde" horiz-adv-x="1082" d="M492 1174Q472 1185 457 1190T430 1196Q412 1196 394 1184T350 1144Q335 1127 318 1117T286 1106Q268 1106 244 1117T204 1150Q182 1175 182 1202Q182 1223 196 1247T242 1302L316 1368Q340
1389 364 1401T418 1414Q439 1414 459 1406T504 1386Q547 1364 573 1351T615 1331T636 1322T646 1320Q661 1320 676 1330T710 1360Q727 1375 745 1385T784 1396Q798 1394 811 1388T842 1364Q860 1346 866 1329T872 1294Q870 1282 863 1269T847 1244T827 1220T808
1202Q773 1166 749 1146T709 1115T681 1103T660 1100Q652 1100 643 1101T615 1110T568 1133T492 1174ZM966 228Q966 185 961 144T940 71T893 20T810 0Q759 0 729 19T683 71T663 144T658 228V618Q658 646 656 673T644 720T618 753T570 766Q529 766 504 739T465 665T445
555T440 418V228Q440 185 435 144T414 71T367 20T284 0Q233 0 203 19T157 71T137 144T132 228V774Q132 817 135 857T153 929T198 980T284 1000Q339 1000 370 982T416 937T436 882T440 832Q448 861 465 891T508 945T572 984T658 1000Q713 1000 768 982T867 922T938
812T966 644V228Z" />
<glyph unicode="&#xf2;" glyph-name="ograve" horiz-adv-x="1000" d="M680 1296Q694 1287 709 1264T724 1210Q724 1196 719 1180T702 1146Q682 1117 659 1109T608 1100Q593 1100 578 1103T548 1116L328 1250Q308 1264 293 1286T278 1336Q278 1350 283 1368T300
1404Q320 1433 347 1441T400 1450Q429 1450 456 1432L680 1296ZM78 624Q78 716 103 779T167 885T255 950T351 984T438 997T502 1000Q525 1000 565 998T650 984T742 950T826 885T888 780T912 624V376Q912 284 888 221T827 115T743 50T651 16T565 3T502 0Q479 0 439
2T351 16T256 50T168 115T103 220T78 376V624ZM386 306Q387 277 400 255Q411 235 434 220T502 204Q544 204 566 219T600 255Q612 277 614 306V668Q612 698 600 723Q589 743 567 760T502 778Q458 778 435 761T400 723Q387 698 386 668V306Z" />
<glyph unicode="&#xf3;" glyph-name="oacute" horiz-adv-x="1000" d="M78 624Q78 716 103 779T167 885T255 950T351 984T438 997T502 1000Q525 1000 565 998T650 984T742 950T826 885T888 780T912 624V376Q912 284 888 221T827 115T743 50T651 16T565 3T502 0Q479
0 439 2T351 16T256 50T168 115T103 220T78 376V624ZM386 306Q387 277 400 255Q411 235 434 220T502 204Q544 204 566 219T600 255Q612 277 614 306V668Q612 698 600 723Q589 743 567 760T502 778Q458 778 435 761T400 723Q387 698 386 668V306ZM540 1432Q567 1450
596 1450Q622 1450 649 1442T696 1404Q708 1386 713 1368T718 1336Q718 1309 703 1287T668 1250L448 1116Q434 1107 419 1104T388 1100Q361 1100 338 1108T294 1146Q282 1163 277 1179T272 1210Q272 1240 287 1263T316 1296L540 1432Z" />
<glyph unicode="&#xf4;" glyph-name="ocircumflex" horiz-adv-x="1000" d="M778 1280Q789 1269 797 1251T806 1208Q806 1182 795 1163T768 1130Q750 1113 733 1107T698 1100Q674 1100 650 1107T612 1132L502 1236L392 1132Q378 1115 354 1108T306 1100Q288 1100
271 1106T236 1130Q221 1144 210 1163T198 1208Q198 1232 206 1250T226 1280L416 1460Q431 1475 449 1483T492 1494H512Q557 1491 588 1460L778 1280ZM78 624Q78 716 103 779T167 885T255 950T351 984T438 997T502 1000Q525 1000 565 998T650 984T742 950T826 885T888
780T912 624V376Q912 284 888 221T827 115T743 50T651 16T565 3T502 0Q479 0 439 2T351 16T256 50T168 115T103 220T78 376V624ZM386 306Q387 277 400 255Q411 235 434 220T502 204Q544 204 566 219T600 255Q612 277 614 306V668Q612 698 600 723Q589 743 567 760T502
778Q458 778 435 761T400 723Q387 698 386 668V306Z" />
<glyph unicode="&#xf5;" glyph-name="otilde" horiz-adv-x="1000" d="M456 1174Q426 1192 396 1192Q372 1192 353 1180T314 1144Q299 1127 282 1117T250 1106Q232 1106 208 1117T168 1150Q146 1175 146 1202Q146 1223 160 1247T206 1302L280 1368Q304 1389 328
1401T382 1414Q403 1414 423 1406T468 1386Q511 1364 537 1351T579 1331T600 1322T610 1320Q625 1320 640 1330T674 1360Q691 1375 709 1385T748 1396Q762 1394 775 1388T806 1364Q824 1346 830 1329T836 1294Q834 1282 827 1269T811 1244T791 1220T772 1202Q737
1166 713 1146T673 1115T645 1103T624 1100Q616 1100 607 1101T579 1110T532 1133T456 1174ZM78 624Q78 716 103 779T167 885T255 950T351 984T438 997T502 1000Q525 1000 565 998T650 984T742 950T826 885T888 780T912 624V376Q912 284 888 221T827 115T743 50T651
16T565 3T502 0Q479 0 439 2T351 16T256 50T168 115T103 220T78 376V624ZM386 306Q387 277 400 255Q411 235 434 220T502 204Q544 204 566 219T600 255Q612 277 614 306V668Q612 698 600 723Q589 743 567 760T502 778Q458 778 435 761T400 723Q387 698 386 668V306Z"
/>
<glyph unicode="&#xf6;" glyph-name="odieresis" horiz-adv-x="1000" d="M78 624Q78 716 103 779T167 885T255 950T351 984T438 997T502 1000Q525 1000 565 998T650 984T742 950T826 885T888 780T912 624V376Q912 284 888 221T827 115T743 50T651 16T565 3T502
0Q479 0 439 2T351 16T256 50T168 115T103 220T78 376V624ZM386 306Q387 277 400 255Q411 235 434 220T502 204Q544 204 566 219T600 255Q612 277 614 306V668Q612 698 600 723Q589 743 567 760T502 778Q458 778 435 761T400 723Q387 698 386 668V306ZM446 1252Q446
1175 406 1138T294 1100Q222 1100 182 1137T142 1252Q142 1332 182 1368T294 1404Q371 1404 408 1368T446 1252ZM862 1252Q862 1175 822 1138T710 1100Q638 1100 598 1137T558 1252Q558 1332 598 1368T710 1404Q787 1404 824 1368T862 1252Z" />
<glyph unicode="&#xf7;" glyph-name="divide" horiz-adv-x="1396" d="M300 602Q272 602 246 605T200 621T168 657T156 722Q156 766 168 791T200 828T246 843T300 846H1110Q1135 846 1161 843T1207 828T1241 791T1254 722Q1254 681 1241 658T1208 622T1161 606T1110
602H356H300ZM870 340Q870 255 827 215T706 174Q626 174 583 214T540 340Q540 426 583 465T706 504Q789 504 829 465T870 340ZM868 1110Q868 1025 825 985T704 944Q624 944 581 984T538 1110Q538 1196 581 1235T704 1274Q787 1274 827 1235T868 1110Z" />
<glyph unicode="&#xf8;" glyph-name="oslash" horiz-adv-x="1000" d="M80 624Q80 716 105 780T169 887T257 954T353 990T440 1005T504 1008Q528 1008 567 1005T652 990T744 954T828 887T890 780T914 624V376Q914 284 890 220T829 113T745 46T653 10T567 -5T504
-8Q481 -8 441 -5T353 10T258 46T170 113T105 220T80 376V624ZM582 750Q570 762 552 770T504 778Q460 778 437 761T402 723Q389 698 388 668V420L582 750ZM418 236Q430 224 451 214T504 204Q546 204 568 219T602 255Q614 277 616 306V576L418 236Z" />
<glyph unicode="&#xf9;" glyph-name="ugrave" horiz-adv-x="1084" d="M118 772Q118 815 123 856T144 929T191 980T274 1000Q325 1000 355 981T401 929T421 856T426 772V382Q426 353 428 327T440 280T466 247T514 234Q554 234 579 261T619 335T639 445T644 582V772Q644
815 649 856T670 929T717 980T800 1000Q851 1000 881 981T927 929T947 856T952 772V226Q952 183 949 143T931 71T886 20T800 0Q745 0 714 18T668 63T648 118T644 168Q636 139 619 109T576 55T512 16T426 0Q371 0 316 18T217 78T146 188T118 356V772ZM716 1296Q730
1287 745 1264T760 1210Q760 1196 755 1180T738 1146Q718 1117 695 1109T644 1100Q629 1100 614 1103T584 1116L364 1250Q344 1264 329 1286T314 1336Q314 1350 319 1368T336 1404Q356 1433 383 1441T436 1450Q465 1450 492 1432L716 1296Z" />
<glyph unicode="&#xfa;" glyph-name="uacute" horiz-adv-x="1084" d="M118 772Q118 815 123 856T144 929T191 980T274 1000Q325 1000 355 981T401 929T421 856T426 772V382Q426 353 428 327T440 280T466 247T514 234Q554 234 579 261T619 335T639 445T644 582V772Q644
815 649 856T670 929T717 980T800 1000Q851 1000 881 981T927 929T947 856T952 772V226Q952 183 949 143T931 71T886 20T800 0Q745 0 714 18T668 63T648 118T644 168Q636 139 619 109T576 55T512 16T426 0Q371 0 316 18T217 78T146 188T118 356V772ZM592 1432Q619
1450 648 1450Q674 1450 701 1442T748 1404Q760 1386 765 1368T770 1336Q770 1309 755 1287T720 1250L500 1116Q486 1107 471 1104T440 1100Q413 1100 390 1108T346 1146Q334 1163 329 1179T324 1210Q324 1240 339 1263T368 1296L592 1432Z" />
<glyph unicode="&#xfb;" glyph-name="ucircumflex" horiz-adv-x="1084" d="M810 1280Q821 1269 829 1251T838 1208Q838 1182 827 1163T800 1130Q782 1113 765 1107T730 1100Q706 1100 682 1107T644 1132L534 1236L424 1132Q410 1115 386 1108T338 1100Q320 1100
303 1106T268 1130Q253 1144 242 1163T230 1208Q230 1232 238 1250T258 1280L448 1460Q463 1475 481 1483T524 1494H544Q589 1491 620 1460L810 1280ZM118 772Q118 815 123 856T144 929T191 980T274 1000Q325 1000 355 981T401 929T421 856T426 772V382Q426 353
428 327T440 280T466 247T514 234Q554 234 579 261T619 335T639 445T644 582V772Q644 815 649 856T670 929T717 980T800 1000Q851 1000 881 981T927 929T947 856T952 772V226Q952 183 949 143T931 71T886 20T800 0Q745 0 714 18T668 63T648 118T644 168Q636 139
619 109T576 55T512 16T426 0Q371 0 316 18T217 78T146 188T118 356V772Z" />
<glyph unicode="&#xfc;" glyph-name="udieresis" horiz-adv-x="1084" d="M118 772Q118 815 123 856T144 929T191 980T274 1000Q325 1000 355 981T401 929T421 856T426 772V382Q426 353 428 327T440 280T466 247T514 234Q554 234 579 261T619 335T639 445T644 582V772Q644
815 649 856T670 929T717 980T800 1000Q851 1000 881 981T927 929T947 856T952 772V226Q952 183 949 143T931 71T886 20T800 0Q745 0 714 18T668 63T648 118T644 168Q636 139 619 109T576 55T512 16T426 0Q371 0 316 18T217 78T146 188T118 356V772ZM486 1252Q486
1175 446 1138T334 1100Q262 1100 222 1137T182 1252Q182 1332 222 1368T334 1404Q411 1404 448 1368T486 1252ZM902 1252Q902 1175 862 1138T750 1100Q678 1100 638 1137T598 1252Q598 1332 638 1368T750 1404Q827 1404 864 1368T902 1252Z" />
<glyph unicode="&#xfd;" glyph-name="yacute" horiz-adv-x="916" d="M230 -400Q116 -400 68 -368T20 -272Q20 -266 20 -259T22 -246Q25 -219 35 -203T61 -177T93 -165T128 -162Q143 -162 156 -163T178 -164Q197 -164 214 -142T248 -85T282 -12T316 60L300 100Q271
173 239 253T176 416T114 581T58 740Q47 772 40 803T32 864Q32 905 53 937T130 990Q145 996 158 998T184 1000Q212 1000 235 988T277 955T310 907T334 850L468 428L596 850Q605 878 619 906T652 955T695 990T748 1004Q776 1004 806 992Q854 971 873 935T892 858Q892
828 885 799T866 740L626 104Q605 50 581 -8T527 -123T465 -229T395 -317T317 -377T230 -400ZM512 1434Q539 1452 568 1452Q594 1452 621 1444T668 1406Q680 1388 685 1370T690 1338Q690 1311 675 1289T640 1252L420 1118Q406 1109 391 1106T360 1102Q333 1102
310 1110T266 1148Q254 1165 249 1181T244 1212Q244 1242 259 1265T288 1298L512 1434Z" />
<glyph unicode="&#xfe;" glyph-name="thorn" horiz-adv-x="1172" d="M180 1172Q180 1215 186 1256T209 1329T257 1380T338 1400Q390 1400 422 1381T471 1330T494 1257T500 1172V830Q509 860 526 890T571 944T635 983T722 998Q777 998 832 980T931 921T1004 812T1032
644V354Q1032 255 1004 188T932 78T832 18T722 0Q673 0 636 15T571 55T527 109T500 168V-172Q500 -216 494 -257T471 -329T423 -380T342 -400Q289 -400 258 -381T209 -330T186 -257T180 -172V1172ZM716 622Q716 648 714 673T703 719T677 751T628 764Q589 764 564
739T525 678T506 602T500 530Q501 453 506 398T526 306T564 252T628 234Q659 234 676 246T703 280T714 327T716 380V622Z" />
<glyph unicode="&#xff;" glyph-name="ydieresis" horiz-adv-x="916" d="M230 -400Q120 -400 70 -371T20 -282Q20 -242 30 -218T57 -182T92 -166T128 -162Q143 -162 156 -163T178 -164Q197 -164 214 -142T248 -85T282 -12T316 60L300 100Q271 173 239 253T176 416T114
581T58 740Q47 772 40 803T32 864Q32 905 53 937T130 990Q145 996 158 998T184 1000Q212 1000 235 988T277 955T310 907T334 850L468 428L596 850Q605 878 619 906T652 955T695 990T748 1004Q776 1004 806 992Q854 971 873 935T892 858Q892 828 885 799T866 740L626
104Q605 50 581 -8T527 -123T465 -229T395 -317T317 -377T230 -400ZM406 1252Q406 1175 366 1138T254 1100Q182 1100 142 1137T102 1252Q102 1332 142 1368T254 1404Q331 1404 368 1368T406 1252ZM822 1252Q822 1175 782 1138T670 1100Q598 1100 558 1137T518 1252Q518
1332 558 1368T670 1404Q747 1404 784 1368T822 1252Z" />
<glyph unicode="&#x2013;" glyph-name="endash" horiz-adv-x="996" d="M284 478Q256 478 230 481T184 497T152 533T140 598Q140 642 152 667T184 704T230 719T284 722H726Q751 722 777 719T823 704T857 667T870 598Q870 557 857 534T824 498T777 482T726 478H340H284Z" />
<glyph unicode="&#x2014;" glyph-name="emdash" horiz-adv-x="1706" d="M320 482Q292 482 266 485T220 501T188 537T176 602Q176 646 188 671T220 708T266 723T320 726H1382Q1407 726 1433 723T1479 708T1513 671T1526 602Q1526 561 1513 538T1480 502T1433 486T1382
482H376H320Z" />
<glyph unicode="&#x2018;" glyph-name="quoteleft" horiz-adv-x="770" d="M202 1070Q202 1119 213 1176T246 1283T303 1366T384 1400Q401 1400 416 1388T432 1350V1342Q431 1331 426 1321T415 1301T405 1281T400 1260Q400 1249 410 1242T434 1227T466 1209T497
1181T522 1137T532 1070Q532 984 489 945T366 906Q283 906 243 945T202 1070Z" />
<glyph unicode="&#x2019;" glyph-name="quoteright" horiz-adv-x="694" d="M498 1236Q498 1187 487 1130T454 1023T397 940T316 906Q299 906 284 918T268 956V964Q269 974 274 984T285 1005T295 1025T300 1046Q300 1057 290 1064T266 1079T234 1097T203 1125T178
1169T168 1236Q168 1322 211 1361T334 1400Q417 1400 457 1361T498 1236Z" />
<glyph unicode="&#x201a;" glyph-name="quotesinglbase" horiz-adv-x="592" d="M394 144Q394 116 391 90T375 44T338 12T274 0Q230 0 205 12T168 44T153 90T150 144V356Q150 381 153 407T168 453T205 487T274 500Q314 500 338 487T374 454T390 407T394 356V200V144Z" />
<glyph unicode="&#x201c;" glyph-name="quotedblleft" horiz-adv-x="1176" d="M608 1070Q608 1119 619 1176T652 1283T709 1366T790 1400Q807 1400 822 1388T838 1350V1342Q837 1331 832 1321T821 1301T811 1281T806 1260Q806 1249 816 1242T840 1227T872 1209T903
1181T928 1137T938 1070Q938 984 895 945T772 906Q689 906 649 945T608 1070ZM190 1070Q190 1119 201 1176T234 1283T291 1366T372 1400Q389 1400 404 1388T420 1350V1342Q419 1331 414 1321T403 1301T393 1281T388 1260Q388 1249 398 1242T422 1227T454 1209T485
1181T510 1137T520 1070Q520 984 477 945T354 906Q271 906 231 945T190 1070Z" />
<glyph unicode="&#x201d;" glyph-name="quotedblright" horiz-adv-x="1172" d="M526 1236Q526 1187 515 1130T482 1023T425 940T344 906Q327 906 312 918T296 956V964Q297 974 302 984T313 1005T323 1025T328 1046Q328 1057 318 1064T294 1079T262 1097T231 1125T206
1169T196 1236Q196 1322 239 1361T362 1400Q445 1400 485 1361T526 1236ZM944 1236Q944 1187 933 1130T900 1023T843 940T762 906Q745 906 730 918T714 956V964Q715 974 720 984T731 1005T741 1025T746 1046Q746 1057 736 1064T712 1079T680 1097T649 1125T624
1169T614 1236Q614 1322 657 1361T780 1400Q863 1400 903 1361T944 1236Z" />
<glyph unicode="&#x201e;" glyph-name="quotedblbase" horiz-adv-x="1122" d="M518 170Q518 121 507 64T474 -43T417 -126T336 -160Q319 -160 304 -148T288 -110V-102Q289 -92 294 -82T305 -61T315 -41T320 -20Q320 -9 310 -2T286 13T254 31T223 59T198 103T188
170Q188 256 231 295T354 334Q437 334 477 295T518 170ZM936 170Q936 121 925 64T892 -43T835 -126T754 -160Q737 -160 722 -148T706 -110V-102Q707 -92 712 -82T723 -61T733 -41T738 -20Q738 -9 728 -2T704 13T672 31T641 59T616 103T606 170Q606 256 649 295T772
334Q855 334 895 295T936 170Z" />
<glyph unicode="&#x2022;" glyph-name="bullet" horiz-adv-x="1034" d="M776 630Q776 496 709 432T520 368Q393 368 326 432T258 630Q258 764 325 825T520 886Q650 886 713 825T776 630Z" />
<glyph unicode="&#x2039;" glyph-name="guilsinglleft" horiz-adv-x="1036" d="M480 184Q456 160 431 142T376 124Q356 124 337 133T294 166Q268 192 258 213T248 254Q248 283 266 307T308 356L552 596L306 840Q283 863 266 888T248 944Q248 964 257 983T290 1026Q314
1050 335 1061T376 1072Q406 1072 430 1054T478 1012L792 700Q818 674 836 651T854 598Q854 582 849 568T834 541T815 517T794 496L480 184Z" />
<glyph unicode="&#x203a;" glyph-name="guilsinglright" horiz-adv-x="1024" d="M244 498Q234 508 224 519T204 543T190 570T184 600Q184 629 202 652T246 702L560 1014Q583 1037 607 1055T662 1074Q682 1074 703 1063T748 1028Q771 1005 780 986T790 946Q790
916 773 891T732 842L486 598L730 358Q754 334 772 310T790 256Q790 236 780 215T744 168Q721 145 702 136T662 126Q633 126 608 144T558 186L244 498Z" />
</font>
</defs>
</svg>
