<?xml version="1.0" standalone="no"?>
<!DOCTYPE svg PUBLIC "-//W3C//DTD SVG 1.1//EN" "http://www.w3.org/Graphics/SVG/1.1/DTD/svg11.dtd">
<svg xmlns="http://www.w3.org/2000/svg">
<defs >
<font id="Heebo" horiz-adv-x="1101" ><font-face
    font-family="Heebo"
    units-per-em="2048"
    panose-1="0 0 8 0 0 0 0 0 0 0"
    ascent="2146"
    descent="-862"
    alphabetic="0" />
<glyph unicode=" " glyph-name="space" horiz-adv-x="510" />
<glyph unicode="!" glyph-name="exclam" horiz-adv-x="560" d="M163 453L127 1456H448L412 453H163ZM337 301T375 280T435 223T456 142Q456 97 435 61T376 4T287 -17Q237 -17 199 4T140 61T119 142Q119 187 140 223T199 280T287 301Q337 301 375 280Z" />
<glyph unicode="&quot;" glyph-name="quotedbl" horiz-adv-x="655" d="M223 980H54V1537H263V1399L223 980ZM555 980H387V1537H596V1399L555 980Z" />
<glyph unicode="#" glyph-name="numbersign" horiz-adv-x="1213" d="M919 863L871 587H1096V410H840L769 0H582L653 410H468L398 0H210L281 410H55V587H312L360 863H131V1040H390L462 1456H649L577 1040H762L834 1456H1021L949 1040H1171V863H919ZM731 863H546L499
587H684L731 863Z" />
<glyph unicode="$" glyph-name="dollar" horiz-adv-x="1178" d="M795 798T886 741T1031 598T1084 387Q1084 271 1035 185T896 48T685 -17V-216H526V-17Q406 -4 308 49T150 204T90 461H392Q392 333 452 277T604 220Q691 220 737 265T783 385Q783 440 764 477T702
544T584 602Q434 660 342 716T197 858T144 1070Q144 1182 194 1269T335 1409T546 1474V1687H705V1471Q821 1454 907 1394T1039 1235T1086 1006H785Q785 1120 738 1178T610 1236Q528 1236 487 1190T446 1068Q446 1019 464 984T526 919T647 858Q795 798 886 741Z"
/>
<glyph unicode="%" glyph-name="percent" horiz-adv-x="1515" d="M94 1260T131 1328T240 1437T412 1477Q514 1477 585 1437T693 1329T730 1176V1099Q730 1016 694 948T587 840T414 800Q313 800 241 840T131 948T94 1099V1176Q94 1260 131 1328ZM327 186L1038 1324L1184
1247L473 109L327 186ZM293 1046T324 1010T414 973Q471 973 501 1009T532 1099V1176Q532 1230 501 1267T412 1304Q355 1304 324 1267T293 1176V1099Q293 1046 324 1010ZM789 440T826 508T935 617T1107 657Q1209 657 1281 617T1389 509T1426 357V280Q1426 196 1390
128T1282 20T1109 -20Q1008 -20 936 20T826 128T789 280V357Q789 440 826 508ZM988 228T1022 191T1109 153Q1175 153 1201 187T1227 280V357Q1227 411 1196 447T1107 484Q1050 484 1019 448T988 357V280Q988 228 1022 191Z" />
<glyph unicode="&amp;" glyph-name="ampersand" horiz-adv-x="1354" d="M987 0L914 84Q830 30 740 5T543 -21Q399 -21 292 31T126 178T68 392Q68 473 99 537T186 653T329 768Q261 861 228 936T194 1090Q194 1204 243 1292T384 1428T595 1477Q706 1477 791 1431T922
1305T969 1133Q969 952 774 812L683 747L926 466Q985 581 985 719H1240Q1240 430 1109 254L1328 0H987ZM531 1234T496 1195T461 1094Q461 1053 482 1010T546 911L620 959Q678 996 699 1032T720 1113Q720 1143 705 1171T661 1216T594 1234Q531 1234 496 1195ZM658
223T748 275L469 595L451 582Q404 540 387 499T370 411Q370 357 394 314T461 247T560 223Q658 223 748 275Z" />
<glyph unicode="&apos;" glyph-name="quotesingle" horiz-adv-x="328" d="M247 976H58V1536H278V1384L247 976Z" />
<glyph unicode="(" glyph-name="parenleft" horiz-adv-x="720" d="M124 857T197 1070T385 1421T623 1613L680 1453Q598 1392 530 1281T418 996T375 594V565Q375 336 418 163T529 -121T680 -295L623 -453Q500 -400 386 -262T198 89T124 567V592Q124 857 197 1070Z" />
<glyph unicode=")" glyph-name="parenright" horiz-adv-x="722" d="M614 312T538 98T343 -258T99 -453L40 -295Q122 -234 190 -123T302 162T346 565V594Q346 823 302 996T190 1281T40 1454L99 1613Q224 1560 343 1418T538 1061T614 592V567Q614 312 538 98Z" />
<glyph unicode="*" glyph-name="asterisk" horiz-adv-x="935" d="M27 1050L88 1234L401 1106L380 1456H580L559 1099L864 1224L924 1038L602 949L814 683L652 568L469 861L288 578L125 688L345 960L27 1050Z" />
<glyph unicode="+" glyph-name="plus" horiz-adv-x="1112" d="M1052 548H697V146H412V548H54V820H412V1206H697V820H1052V548Z" />
<glyph unicode="," glyph-name="comma" horiz-adv-x="514" d="M393 -69T337 -185T193 -376L38 -296L56 -262Q98 -185 120 -122T143 30V249H394L393 46Q393 -69 337 -185Z" />
<glyph unicode="-" glyph-name="hyphen" horiz-adv-x="828" d="M122 503V748H694V503H122Z" />
<glyph unicode="." glyph-name="period" horiz-adv-x="602" d="M343 309T382 288T442 231T463 149Q463 104 442 68T382 10T293 -11Q243 -11 205 10T145 67T124 149Q124 194 145 230T204 288T293 309Q343 309 382 288Z" />
<glyph unicode="/" glyph-name="slash" horiz-adv-x="754" d="M-17 -125L509 1456H731L204 -125H-17Z" />
<glyph unicode="0" glyph-name="zero" horiz-adv-x="1178" d="M1085 390T1024 252T853 47T591 -20Q440 -20 329 46T155 251T93 600V858Q93 1068 154 1206T327 1410T589 1476Q740 1476 851 1410T1023 1206T1085 858V600Q1085 390 1024 252ZM783 1078T734 1155T589
1233Q493 1233 444 1156T395 899V560Q395 379 444 301T591 223Q687 223 735 301T783 560V899Q783 1078 734 1155Z" />
<glyph unicode="1" glyph-name="one" horiz-adv-x="1178" d="M509 0V1100L167 997V1240L779 1457H810V0H509Z" />
<glyph unicode="2" glyph-name="two" horiz-adv-x="1178" d="M97 0V207L568 705Q668 816 710 892T753 1031Q753 1127 706 1180T571 1234Q509 1234 464 1203T394 1118T370 994H68Q68 1127 131 1237T310 1412T577 1477Q731 1477 838 1428T1000 1285T1055 1060Q1055
965 1017 876T909 699T727 494L487 243H1099V0H97Z" />
<glyph unicode="3" glyph-name="three" horiz-adv-x="1178" d="M959 705T1021 618T1083 409Q1083 276 1015 179T829 31T560 -20Q431 -20 317 26T131 168T60 401H362Q362 351 389 310T463 246T568 223Q634 223 682 247T756 315T782 414Q782 626 551 626H395V785V861H551Q653
861 706 913T759 1056Q759 1135 711 1184T568 1234Q518 1234 475 1215T407 1161T381 1080H79Q79 1198 143 1288T318 1428T560 1477Q710 1477 823 1430T998 1289T1061 1061Q1061 964 1003 880T840 748Q959 705 1021 618Z" />
<glyph unicode="4" glyph-name="four" horiz-adv-x="1178" d="M1122 313H962V0H660V313H72L57 504L658 1456H897H962V556H1122V313ZM660 556V1047L640 1012L353 556H660Z" />
<glyph unicode="5" glyph-name="five" horiz-adv-x="1178" d="M219 1456H1044V1208H466L431 903Q467 924 525 941T647 958Q788 958 888 900T1040 732T1093 468Q1093 336 1038 225T871 47T597 -20Q468 -20 355 32T172 181T99 409H399Q407 322 459 273T596 223Q697
223 744 295T791 487Q791 603 735 668T564 734Q494 734 452 713T374 656L134 715L219 1456Z" />
<glyph unicode="6" glyph-name="six" horiz-adv-x="1178" d="M829 978T922 912T1062 734T1110 481Q1110 339 1049 225T874 46T615 -20Q461 -20 344 52T161 256T96 562V678Q96 916 188 1096T451 1375T845 1474H889V1225H871Q674 1225 552 1130T405 859Q459 915
533 946T697 978Q829 978 922 912ZM668 224T713 257T784 348T809 479Q809 555 784 613T711 704T601 736Q531 736 478 701T398 611V520Q398 374 454 299T609 224Q668 224 713 257Z" />
<glyph unicode="7" glyph-name="seven" horiz-adv-x="1178" d="M535 0H217L775 1213H59V1456H1093V1288L535 0Z" />
<glyph unicode="8" glyph-name="eight" horiz-adv-x="1178" d="M964 699T1024 609T1085 400Q1085 265 1022 171T847 28T590 -20Q446 -20 334 28T157 170T92 400Q92 518 153 609T321 751Q228 801 176 883T124 1069Q124 1198 183 1290T347 1429T589 1477Q726 1477
831 1430T996 1290T1055 1069Q1055 965 1003 883T858 750Q964 699 1024 609ZM512 1234T469 1186T426 1053Q426 969 469 919T590 868Q667 868 710 918T753 1053Q753 1136 710 1185T589 1234Q512 1234 469 1186ZM679 223T731 276T783 423Q783 517 730 570T588 624Q500
624 448 571T395 423Q395 331 448 277T590 223Q679 223 731 276Z" />
<glyph unicode="9" glyph-name="nine" horiz-adv-x="1178" d="M725 1477T838 1405T1013 1197T1076 882V775Q1076 529 989 351T733 78T327 -17H304V236H323Q532 236 642 320T770 576Q717 526 651 498T511 469Q378 469 282 531T136 705T85 960Q85 1102 147 1220T321
1407T578 1477Q725 1477 838 1405ZM651 699T699 731T774 813V938Q774 1082 720 1157T577 1233Q519 1233 476 1195T409 1094T386 962Q386 847 438 773T587 699Q651 699 699 731Z" />
<glyph unicode=":" glyph-name="colon" horiz-adv-x="588" d="M597 309T636 288T696 231T717 149Q717 104 696 68T636 10T547 -11Q497 -11 459 10T399 67T378 149Q378 194 399 230T458 288T547 309Q597 309 636 288ZM341 1120T380 1099T440 1042T461 960Q461 915
440 879T380 821T291 800Q241 800 203 821T143 878T122 960Q122 1005 143 1041T202 1099T291 1120Q341 1120 380 1099Z" />
<glyph unicode=";" glyph-name="semicolon" horiz-adv-x="551" d="M326 1120T365 1099T425 1042T446 960Q446 915 425 879T365 821T276 800Q226 800 188 821T128 878T107 960Q107 1005 128 1041T187 1099T276 1120Q326 1120 365 1099ZM416 -69T360 -185T216 -376L61
-296L79 -262Q121 -185 143 -122T166 30V249H417L416 46Q416 -69 360 -185Z" />
<glyph unicode="&lt;" glyph-name="less" horiz-adv-x="1043" d="M920 814L356 615L920 421V130L53 493V704V741L920 1104V814Z" />
<glyph unicode="=" glyph-name="equal" horiz-adv-x="1180" d="M135 737V982H1037V737H135ZM135 302V547H1037V302H135Z" />
<glyph unicode="&gt;" glyph-name="greater" horiz-adv-x="1056" d="M991 740V529V493L118 129V418L689 618L118 814V1103L991 740Z" />
<glyph unicode="?" glyph-name="question" horiz-adv-x="1026" d="M347 589T379 674T495 832Q575 900 613 952T651 1069Q651 1231 502 1231Q436 1231 391 1189T345 1063H42Q44 1201 104 1294T267 1431T502 1476Q644 1476 745 1431T900 1297T954 1083Q954 1004
926 942T853 830T729 707L710 690Q655 641 634 588T611 453H346Q347 589 379 674ZM533 306T571 285T630 228T651 147Q651 102 630 66T571 9T483 -12Q433 -12 395 9T336 66T315 147Q315 192 336 228T395 285T483 306Q533 306 571 285Z" />
<glyph unicode="@" glyph-name="at" horiz-adv-x="1834" d="M1212 1414T1389 1313T1658 1028T1750 598Q1750 561 1749 542Q1744 394 1696 266T1551 59T1308 -21Q1224 -21 1161 16T1066 121Q1017 52 950 17T804 -18Q716 -18 650 29T548 162T512 363Q512 397 515
433Q534 600 600 726T766 921T985 990Q1058 990 1112 976T1204 940T1295 881L1243 300Q1241 276 1241 266Q1241 200 1271 173T1346 146Q1408 146 1456 196T1532 335T1564 534Q1566 576 1566 597Q1566 797 1500 943T1298 1168T960 1248Q761 1248 611 1147T377 867T282
461Q281 440 281 398Q281 179 353 29T562 -197T895 -273Q980 -273 1070 -254T1226 -206L1264 -364Q1198 -407 1094 -430T891 -453Q634 -453 452 -355T175 -66T79 401Q79 441 80 461Q92 735 204 951T512 1291T964 1414Q1212 1414 1389 1313ZM918 166T962 204T1038
333L1079 797Q1043 808 1004 808Q890 808 827 714T745 433Q742 400 742 372Q742 271 776 219T875 166Q918 166 962 204Z" />
<glyph unicode="A" glyph-name="A" horiz-adv-x="1383" d="M950 289H434L339 0H5L545 1456H757H837L1380 0H1045L950 289ZM866 543L691 1074L517 543H866Z" />
<glyph unicode="B" glyph-name="B" horiz-adv-x="1311" d="M1101 717T1160 630T1219 430Q1219 218 1083 109T688 0H245H125V1456H639Q902 1456 1044 1356T1187 1056Q1187 952 1136 871T980 748Q1101 717 1160 630ZM439 1202V848H639Q758 848 815 891T873 1021Q873
1117 818 1159T639 1202H439ZM796 253T851 302T906 433Q906 629 701 629H439V253H688Q796 253 851 302Z" />
<glyph unicode="C" glyph-name="C" horiz-adv-x="1342" d="M1268 338T1196 223T993 44T688 -20Q501 -20 364 65T155 309T82 683V772Q82 986 157 1145T369 1391T689 1477Q868 1477 996 1411T1194 1229T1279 959H966Q957 1091 894 1155T689 1220Q542 1220 471 1112T400
774V683Q400 528 429 431T521 285T688 237Q823 237 889 298T965 488H1278Q1268 338 1196 223Z" />
<glyph unicode="D" glyph-name="D" horiz-adv-x="1330" d="M774 1456T925 1369T1162 1123T1247 760V696Q1247 491 1162 333T925 88T577 0H261H125V1456H439H579Q774 1456 925 1369ZM928 762Q928 978 839 1090T579 1202H439V253H577Q748 253 838 366T928 696V762Z" />
<glyph unicode="E" glyph-name="E" horiz-adv-x="1151" d="M1108 253V0H337H125V1456H439H1107V1202H439V871H1008V626H439V253H1108Z" />
<glyph unicode="F" glyph-name="F" horiz-adv-x="1122" d="M439 1202V842H1012V590H439V0H125V1456H439H1081V1202H439Z" />
<glyph unicode="G" glyph-name="G" horiz-adv-x="1396" d="M1247 135T1174 89T987 12T725 -20Q535 -20 392 63T170 304T91 685V770Q91 992 167 1151T382 1393T705 1477Q980 1477 1121 1347T1287 989H983Q966 1104 903 1164T714 1224Q566 1224 488 1109T409 772V685Q409
461 493 347T744 233Q904 233 974 301V542H709V770H1288V183Q1247 135 1174 89Z" />
<glyph unicode="H" glyph-name="H" horiz-adv-x="1446" d="M1319 1456V0H1006V618H439V0H125V1456H439V871H1006V1456H1319Z" />
<glyph unicode="I" glyph-name="I" horiz-adv-x="603" d="M145 0V1456H458V0H145Z" />
<glyph unicode="J" glyph-name="J" horiz-adv-x="1146" d="M1024 1456V452Q1024 309 960 202T784 38T532 -20Q386 -20 275 29T102 181T40 434H355Q355 324 400 279T532 233Q615 233 663 291T711 452V1456H1024Z" />
<glyph unicode="K" glyph-name="K" horiz-adv-x="1303" d="M592 572L439 406V0H125V1456H439V803L568 986L924 1456H1310L801 809L1321 0H949L592 572Z" />
<glyph unicode="L" glyph-name="L" horiz-adv-x="1110" d="M1069 253V0H337H125V1456H439V253H1069Z" />
<glyph unicode="M" glyph-name="M" horiz-adv-x="1795" d="M1668 0H1353V376L1384 1072L1002 0H789L408 1072L439 376V0H125V1456H391H536L896 417L1256 1456H1668V0Z" />
<glyph unicode="N" glyph-name="N" horiz-adv-x="1445" d="M1005 0L439 939V0H125V1456H439L1005 517V1456H1318V0H1005Z" />
<glyph unicode="O" glyph-name="O" horiz-adv-x="1414" d="M1331 478T1253 316T1033 67T708 -20Q524 -20 382 67T161 316T82 696V759Q82 977 161 1139T381 1389T706 1476Q890 1476 1031 1389T1252 1140T1331 759V696Q1331 478 1253 316ZM1013 983T933 1100T706
1218Q558 1218 479 1101T400 761V696Q400 475 480 356T708 237Q855 237 934 356T1013 696V761Q1013 983 933 1100Z" />
<glyph unicode="P" glyph-name="P" horiz-adv-x="1325" d="M866 1456T991 1394T1182 1221T1249 970Q1249 830 1183 725T992 563T697 506H439V0H125V1456H697Q866 1456 991 1394ZM816 760T874 816T932 968Q932 1032 907 1085T829 1170T697 1202H439V760H697Q816
760 874 816Z" />
<glyph unicode="Q" glyph-name="Q" horiz-adv-x="1414" d="M1330 498T1265 346T1082 101L1320 -88L1123 -263L813 -12Q759 -20 707 -20Q524 -20 382 67T161 316T81 696V759Q81 977 160 1139T380 1389T705 1476Q889 1476 1030 1389T1251 1140T1330 759V696Q1330
498 1265 346ZM399 475T479 356T707 237Q854 237 933 356T1013 696V761Q1013 983 933 1100T705 1218Q557 1218 478 1101T399 761V696Q399 475 479 356Z" />
<glyph unicode="R" glyph-name="R" horiz-adv-x="1315" d="M1270 15V0H934L666 526H439V0H125V1456H675Q844 1456 965 1406T1152 1257T1217 1016Q1217 861 1150 763T958 607L1270 15ZM439 780H675Q787 780 845 836T903 990Q903 1090 846 1146T675 1202H439V780Z" />
<glyph unicode="S" glyph-name="S" horiz-adv-x="1265" d="M454 655T348 713T177 860T113 1069Q113 1190 182 1282T375 1425T656 1476Q815 1476 937 1420T1126 1261T1193 1026H880Q880 1118 822 1172T650 1227Q578 1227 528 1206T452 1149T426 1067Q426 1000 495
954T709 862Q954 787 1073 675T1193 386Q1193 259 1128 168T944 28T663 -20Q509 -20 374 33T153 195T68 464H383Q383 339 455 284T663 228Q770 228 824 271T879 384Q879 436 857 471T776 538T602 607Q454 655 348 713Z" />
<glyph unicode="T" glyph-name="T" horiz-adv-x="1274" d="M1234 1202H790V0H477V1202H40V1456H790H1234V1202Z" />
<glyph unicode="U" glyph-name="U" horiz-adv-x="1352" d="M1238 499Q1238 334 1167 217T970 40T677 -20Q510 -20 383 40T184 217T113 499V1456H428V499Q428 233 677 233Q798 233 861 297T924 499V1456H1238V499Z" />
<glyph unicode="V" glyph-name="V" horiz-adv-x="1343" d="M1340 1456L836 0H606H505L5 1456H352L671 374L990 1456H1340Z" />
<glyph unicode="W" glyph-name="W" horiz-adv-x="1789" d="M1758 1456L1439 0H1238H1121L895 946L670 0H490H352L32 1456H344L533 444L762 1456H929H1028L1258 444L1446 1456H1758Z" />
<glyph unicode="X" glyph-name="X" horiz-adv-x="1304" d="M916 1456H1275L856 734L1286 0H923L652 504L381 0H18L448 734L29 1456H389L652 961L916 1456Z" />
<glyph unicode="Y" glyph-name="Y" horiz-adv-x="1272" d="M929 1456H1271L795 526V0H477V526L1 1456H343L636 809L929 1456Z" />
<glyph unicode="Z" glyph-name="Z" horiz-adv-x="1244" d="M1187 253V0H152H72V180L783 1202H71V1456H1067H1174V1281L467 253H1187Z" />
<glyph unicode="[" glyph-name="bracketleft" horiz-adv-x="572" d="M420 1467V-112H556V-343H117V1699H556V1467H420Z" />
<glyph unicode="\" glyph-name="backslash" horiz-adv-x="867" d="M305 1456L913 -125H602L-5 1456H305Z" />
<glyph unicode="]" glyph-name="bracketright" horiz-adv-x="572" d="M453 1699V-343H14V-112H151V1467H14V1699H453Z" />
<glyph unicode="^" glyph-name="asciicircum" horiz-adv-x="901" d="M625 729L452 1184L279 729H43L342 1456H512H562L861 729H625Z" />
<glyph unicode="_" glyph-name="underscore" horiz-adv-x="912" d="M1 -236V0H910V-236H1Z" />
<glyph unicode="`" glyph-name="grave" horiz-adv-x="682" d="M330 1225L53 1536H379L577 1225H330Z" />
<glyph unicode="a" glyph-name="a" horiz-adv-x="1096" d="M989 175T1000 118T1033 17V0H730Q710 39 701 97Q598 -20 430 -20Q328 -20 244 22T112 138T63 305Q63 476 190 568T564 661H687V722Q687 797 649 838T535 880Q466 880 428 848T389 755H87Q87 852 144
931T307 1056T551 1102Q679 1102 778 1059T933 930T989 720V267Q989 175 1000 118ZM564 209T614 237T687 307V488H572Q467 488 416 443T364 324Q364 273 400 241T498 209Q564 209 614 237Z" />
<glyph unicode="b" glyph-name="b" horiz-adv-x="1153" d="M806 1102T901 1033T1043 840T1090 553V532Q1090 367 1043 243T902 49T669 -20Q496 -20 393 115L379 0H108V1536H410V988Q508 1102 667 1102Q806 1102 901 1033ZM788 553Q788 694 745 776T591 858Q459
858 410 752V330Q458 224 593 224Q704 224 746 303T788 532V553Z" />
<glyph unicode="c" glyph-name="c" horiz-adv-x="1068" d="M1015 379Q1015 264 955 173T793 31T565 -20Q402 -20 289 51T120 246T63 528V554Q63 712 119 836T288 1031T563 1102Q696 1102 798 1051T958 903T1015 675H732Q731 755 685 807T557 859Q447 859 406 777T365
554V528Q365 385 405 304T559 223Q637 223 684 265T732 379H1015Z" />
<glyph unicode="d" glyph-name="d" horiz-adv-x="1154" d="M1045 1536V0H773L758 116Q652 -20 484 -20Q353 -20 258 50T113 245T63 528V549Q63 714 112 839T257 1033T486 1102Q640 1102 743 985V1536H1045ZM688 224T743 332V750Q691 858 563 858Q460 858 413 774T365
549V528Q365 389 411 307T561 224Q688 224 743 332Z" />
<glyph unicode="e" glyph-name="e" horiz-adv-x="1110" d="M1060 443H376Q393 342 460 283T632 223Q710 223 776 252T890 341L1035 174Q978 92 869 36T612 -20Q446 -20 324 50T136 240T70 505V543Q70 705 131 832T307 1030T579 1102Q732 1102 840 1037T1004 853T1060
571V443ZM764 669Q762 757 716 808T577 859Q491 859 443 802T379 645H764V669Z" />
<glyph unicode="f" glyph-name="f" horiz-adv-x="737" d="M571 1313T529 1277T487 1174V1082H701V862H487V0H185V862H25V1082H185V1174Q185 1296 233 1382T372 1512T586 1557Q659 1557 737 1537L735 1304Q699 1313 648 1313Q571 1313 529 1277Z" />
<glyph unicode="g" glyph-name="g" horiz-adv-x="1172" d="M1065 1082V39Q1065 -107 999 -212T814 -371T536 -426Q426 -426 312 -383T134 -260L265 -75Q315 -130 381 -161T524 -192Q637 -192 699 -132T762 39V93Q662 -20 504 -20Q372 -20 273 50T120 246T66 528V549Q66
713 119 838T272 1032T506 1102Q682 1102 780 982L791 1082H1065ZM706 224T762 317V766Q707 858 582 858Q478 858 423 772T367 549V528Q367 393 421 309T580 224Q706 224 762 317Z" />
<glyph unicode="h" glyph-name="h" horiz-adv-x="1149" d="M857 1102T951 1001T1046 678V0H744V680Q744 778 703 818T576 858Q455 858 402 770V0H100V1536H402V966Q456 1032 528 1067T687 1102Q857 1102 951 1001Z" />
<glyph unicode="i" glyph-name="i" horiz-adv-x="549" d="M349 1517T395 1474T442 1362Q442 1294 396 1251T273 1207Q198 1207 152 1250T105 1362Q105 1430 151 1473T273 1517Q349 1517 395 1474ZM123 0V1082H426V0H123Z" />
<glyph unicode="j" glyph-name="j" horiz-adv-x="538" d="M346 1517T392 1474T439 1362Q439 1294 393 1251T271 1207Q195 1207 149 1250T102 1362Q102 1430 148 1473T271 1517Q346 1517 392 1474ZM428 -51Q428 -237 328 -337T47 -437Q-34 -437 -101 -420V-181Q-53
-190 -9 -190Q125 -190 125 -51V1082H428V-51Z" />
<glyph unicode="k" glyph-name="k" d="M511 426L410 325V0H108V1537H410V696L460 761L731 1082H1093L705 633L1124 0H778L511 426Z" />
<glyph unicode="l" glyph-name="l" horiz-adv-x="549" d="M123 0V1536H426V0H123Z" />
<glyph unicode="m" glyph-name="m" horiz-adv-x="1771" d="M1483 1102T1573 1004T1663 686V0H1361V687Q1361 755 1343 792T1292 844T1207 858Q1146 858 1103 829T1035 745Q1036 738 1036 722V0H734V684Q734 752 716 790T665 843T579 858Q521 858 479 833T410 760V0H108V1082H391L401
961Q455 1029 533 1065T711 1102Q811 1102 883 1062T995 938Q1049 1017 1130 1059T1318 1102Q1483 1102 1573 1004Z" />
<glyph unicode="n" glyph-name="n" horiz-adv-x="1150" d="M868 1102T957 1005T1046 686V0H744V687Q744 783 703 820T576 858Q517 858 474 833T403 762V0H101V1082H384L394 957Q451 1028 530 1065T705 1102Q868 1102 957 1005Z" />
<glyph unicode="o" glyph-name="o" horiz-adv-x="1156" d="M63 710T123 835T300 1031T577 1102Q739 1102 855 1031T1032 835T1093 551V530Q1093 371 1033 247T856 51T579 -20Q417 -20 301 51T124 246T63 530V551Q63 710 123 835ZM365 390T416 307T579 223Q689
223 740 307T791 530V551Q791 689 740 774T577 859Q467 859 416 774T365 551V530Q365 390 416 307Z" />
<glyph unicode="p" glyph-name="p" horiz-adv-x="1153" d="M802 1102T897 1034T1040 843T1089 553V532Q1089 373 1040 248T897 51T669 -20Q511 -20 410 94V-416H108V1082H388L399 978Q501 1102 667 1102Q802 1102 897 1034ZM788 553Q788 693 740 775T589 858Q458
858 410 758V327Q460 223 591 223Q694 223 741 308T788 532V553Z" />
<glyph unicode="q" glyph-name="q" horiz-adv-x="1156" d="M1045 1082V-416H742V92Q641 -20 485 -20Q352 -20 257 51T113 247T63 531V552Q63 717 112 841T257 1033T487 1102Q660 1102 761 969L781 1082H1045ZM691 223T742 324V761Q692 859 564 859Q461 859 413
776T365 552V531Q365 392 412 308T562 223Q691 223 742 324Z" />
<glyph unicode="r" glyph-name="r" horiz-adv-x="755" d="M664 1102T690 1099T732 1090L728 798Q670 806 621 806Q459 806 410 699V0H108V1082H392L401 951Q441 1024 502 1063T641 1102Q664 1102 690 1099Z" />
<glyph unicode="s" glyph-name="s" horiz-adv-x="1053" d="M85 515T85 764Q85 856 137 933T289 1056T520 1102Q659 1102 763 1058T923 934T979 752H677Q677 817 638 853T519 890Q453 890 414 859T374 779Q374 732 418 703T570 654Q698 630 787 592T928 485T981
312Q981 217 925 142T764 23T521 -20Q375 -20 269 33T107 171T51 346H336Q339 268 392 231T528 193Q605 193 646 222T688 302Q688 333 670 354T604 395T469 433Q85 515 85 764Z" />
<glyph unicode="t" glyph-name="t" horiz-adv-x="695" d="M625 228T660 235V8Q582 -20 482 -20Q164 -20 164 304V862H11V1082H164V1350H466V1082H648V862H466V339Q466 275 491 252T576 228Q625 228 660 235Z" />
<glyph unicode="u" glyph-name="u" horiz-adv-x="1149" d="M1046 1082V0H763L755 113Q704 49 630 15T461 -20Q292 -20 197 78T101 382V1082H402V380Q402 300 441 262T551 224Q690 224 744 321V1082H1046Z" />
<glyph unicode="v" glyph-name="v" horiz-adv-x="1042" d="M1028 1082L666 0H476H373L10 1082H327L520 367L712 1082H1028Z" />
<glyph unicode="w" glyph-name="w" horiz-adv-x="1501" d="M1470 1082L1200 0H1014H947L748 664L550 0H391H297L27 1082H317L450 408L640 1082H831H856L1046 411L1180 1082H1470Z" />
<glyph unicode="x" glyph-name="x" horiz-adv-x="1046" d="M701 1082H1021L719 554L1034 0H714L527 333L341 0H19L334 554L33 1082H355L526 769L701 1082Z" />
<glyph unicode="y" glyph-name="y" horiz-adv-x="1037" d="M1037 1082L603 -162Q578 -233 541 -292T433 -394T254 -437Q215 -437 191 -433T123 -418V-190Q138 -191 168 -191Q249 -191 289 -166T350 -84L380 -5L2 1082H326L519 426L714 1082H1037Z" />
<glyph unicode="z" glyph-name="z" horiz-adv-x="1046" d="M976 243V0H152H72V181L572 839H89V1082H857H961V907L459 243H976Z" />
<glyph unicode="{" glyph-name="braceleft" horiz-adv-x="674" d="M489 -10T522 -86T638 -192L580 -360Q386 -306 303 -186T220 106V309Q220 405 178 458T46 511V672V726Q135 726 177 779T220 929V1132Q220 1303 303 1423T580 1597L638 1430Q556 1400 523 1324T489
1132V929Q489 826 444 746T308 619Q399 573 444 493T489 309V106Q489 -10 522 -86Z" />
<glyph unicode="|" glyph-name="bar" horiz-adv-x="520" d="M173 -270V1456H351V-270H173Z" />
<glyph unicode="}" glyph-name="braceright" horiz-adv-x="674" d="M454 832T496 779T628 726V569V511Q539 511 497 458T454 309V106Q454 -65 371 -185T94 -360L36 -192Q118 -162 152 -86T186 106V309Q186 413 231 493T369 619Q277 664 232 744T186 929V1132Q186
1247 152 1323T36 1430L94 1597Q288 1543 371 1423T454 1132V929Q454 832 496 779Z" />
<glyph unicode="~" glyph-name="asciitilde" horiz-adv-x="1320" d="M1215 669T1173 573T1055 424T882 372Q804 372 741 403T605 504Q561 546 526 566T451 586Q395 586 360 536T324 410L103 413Q103 542 145 636T262 781T435 831Q513 831 579 799T713 700Q755
658 791 639T865 619Q903 619 932 642T978 706T995 797L1215 796Q1215 669 1173 573Z" />
<glyph unicode="&#xa1;" glyph-name="exclamdown" horiz-adv-x="588" d="M246 784T208 805T148 862T127 943Q127 988 148 1024T207 1081T296 1102Q346 1102 384 1081T443 1024T464 943Q464 898 443 862T384 805T296 784Q246 784 208 805ZM420 633L456 -370H135L171
633H420Z" />
<glyph unicode="&#xa2;" glyph-name="cent" horiz-adv-x="1187" d="M674 223T721 265T769 379H1052Q1051 279 1006 198T882 62T702 -11V-245H502V-12Q371 8 281 83T145 272T100 528V554Q100 695 145 809T281 999T502 1095V1318H702V1094Q808 1075 886 1020T1008
877T1052 675H769Q767 755 722 807T594 859Q483 859 442 777T401 554V528Q401 385 442 304T596 223Q674 223 721 265Z" />
<glyph unicode="&#xa3;" glyph-name="sterling" horiz-adv-x="1221" d="M1165 253V0H103V253H199Q240 263 253 307T267 423L263 571H100V816H255L248 1039Q248 1175 304 1273T463 1423T702 1475Q847 1475 950 1423T1107 1276T1161 1055H863Q863 1143 819 1183T704
1223Q639 1223 600 1176T561 1039L570 816H879V571H580L585 442Q585 383 571 337T526 253H1165Z" />
<glyph unicode="&#xa4;" glyph-name="currency" horiz-adv-x="1413" d="M1303 512T1278 424T1205 259L1344 118L1202 -27L1071 108Q995 46 903 13T709 -20Q609 -20 517 12T348 106L219 -26L78 118L214 256Q165 331 139 420T113 608Q113 709 141 802T222 973L78
1120L219 1264L361 1119Q436 1175 524 1204T709 1234Q805 1234 894 1204T1058 1117L1202 1265L1344 1120L1197 970Q1248 893 1275 801T1303 608Q1303 512 1278 424ZM821 171T914 229T1063 387T1118 608Q1118 729 1063 829T915 986T709 1044Q597 1044 503 987T354
829T299 608Q299 487 354 387T503 229T709 171Q821 171 914 229Z" />
<glyph unicode="&#xa5;" glyph-name="yen" d="M774 742H987V562H703V452H987V273H703V0H390V273H85V452H390V562H85V742H329L11 1456H336L552 905L766 1456H1090L774 742Z" />
<glyph unicode="&#xa6;" glyph-name="brokenbar" horiz-adv-x="519" d="M126 698V1456H394V698H126ZM126 525H394V-270H126V525Z" />
<glyph unicode="&#xa7;" glyph-name="section" horiz-adv-x="1291" d="M1093 167T1126 97T1160 -72Q1160 -191 1096 -275T915 -403T640 -447Q492 -447 369 -408T170 -276T93 -32L395 -31Q395 -203 640 -203Q746 -203 802 -169T859 -73Q859 -31 834 -2T748 54T574
111Q413 154 310 206T150 337T94 532Q94 622 135 691T254 804Q186 856 152 926T118 1093Q118 1208 182 1294T365 1428T641 1476Q803 1476 920 1427T1101 1282T1164 1050H862Q862 1131 805 1182T641 1233Q531 1233 476 1195T421 1095Q421 1048 444 1019T525 965T702
910Q866 868 970 816T1129 685T1184 489Q1184 398 1144 330T1026 218Q1093 167 1126 97ZM396 514T418 483T499 425T677 363Q759 341 813 322Q849 345 868 379T887 456Q887 502 861 534T774 595T599 658Q523 679 463 700Q429 679 413 645T396 566Q396 514 418 483Z"
/>
<glyph unicode="&#xa8;" glyph-name="dieresis" horiz-adv-x="971" d="M276 1495T308 1478T359 1431T378 1365Q378 1329 360 1300T309 1253T236 1236Q196 1236 164 1253T114 1299T95 1365Q95 1420 135 1457T236 1495Q276 1495 308 1478ZM793 1494T833 1457T874
1365Q874 1310 834 1273T732 1236Q671 1236 631 1273T590 1365Q590 1420 630 1457T732 1494Q793 1494 833 1457Z" />
<glyph unicode="&#xa9;" glyph-name="copyright" horiz-adv-x="1607" d="M989 1476T1152 1378T1410 1108T1506 729Q1506 521 1411 350T1152 79T796 -20Q602 -20 440 79T182 349T86 729Q86 937 181 1108T439 1377T796 1476Q989 1476 1152 1378ZM956 105T1090 187T1304
413T1383 729Q1383 902 1304 1044T1091 1269T796 1351Q635 1351 501 1269T287 1045T208 729Q208 556 287 413T501 188T796 105Q956 105 1090 187ZM1117 442T1029 362T782 282Q676 282 597 330T476 466T433 669V788Q433 902 475 990T597 1126T782 1175Q940 1175
1029 1095T1118 861H962Q962 955 918 997T782 1040Q689 1040 639 972T588 789V669Q588 554 638 486T782 417Q873 417 917 459T961 596H1117Q1117 442 1029 362Z" />
<glyph unicode="&#xaa;" glyph-name="ordfeminine" horiz-adv-x="908" d="M604 705Q594 734 587 773Q553 736 503 714T386 691Q268 691 203 752T137 919Q137 1031 222 1090T478 1150H580V1201Q580 1263 551 1295T464 1328Q399 1328 363 1303T326 1229L153 1243Q153
1310 191 1363T301 1446T464 1476Q598 1476 676 1405T755 1200V886Q755 784 781 705H604ZM312 881T341 858T429 835Q467 835 509 853T580 897V1033H479Q397 1033 355 1002T312 923Q312 881 341 858Z" />
<glyph unicode="&#xab;" glyph-name="guillemotleft" horiz-adv-x="1031" d="M561 521L799 122H607L329 512V525V531L607 921H799L561 521ZM698 521L936 122H744L466 512V525V531L744 921H936L698 521Z" />
<glyph unicode="&#xac;" glyph-name="logicalnot" horiz-adv-x="1128" d="M961 805V634V374H761V634H126V805H961Z" />
<glyph unicode="&#xad;" glyph-name="uni00AD" horiz-adv-x="600" d="M122 503V748H694V503H122Z" />
<glyph unicode="&#xae;" glyph-name="registered" horiz-adv-x="1607" d="M989 1476T1152 1378T1410 1108T1506 729Q1506 521 1411 350T1152 79T796 -20Q602 -20 440 79T182 349T86 729Q86 937 181 1108T439 1377T796 1476Q989 1476 1152 1378ZM956 105T1090 187T1304
413T1383 729Q1383 902 1304 1044T1091 1269T796 1351Q635 1351 501 1269T287 1045T208 729Q208 556 287 413T501 188T796 105Q956 105 1090 187ZM1104 459Q1104 371 1121 332V316H966Q953 350 953 460V514Q953 586 920 619T810 653H652V316H501V1166H782Q933 1166
1020 1098T1107 903Q1107 792 997 731Q1104 673 1104 515V459ZM858 787T907 817T957 903Q957 952 941 980T886 1020T782 1033H652V787H786Q858 787 907 817Z" />
<glyph unicode="&#xaf;" glyph-name="overscore" horiz-adv-x="1036" d="M172 1287V1456H863V1287H172Z" />
<glyph unicode="&#xb0;" glyph-name="degree" horiz-adv-x="801" d="M474 1476T536 1439T634 1337T671 1198Q671 1123 635 1061T536 962T401 925Q327 925 264 961T164 1060T126 1198Q126 1273 163 1337T264 1438T401 1476Q474 1476 536 1439ZM452 1074T487 1109T522
1198Q522 1253 487 1289T401 1326Q367 1326 338 1309T292 1263T275 1198Q275 1163 292 1135T338 1091T401 1074Q452 1074 487 1109Z" />
<glyph unicode="&#xb1;" glyph-name="plusminus" d="M1004 955V702H681V344H417V702H88V955H417V1289H681V955H1004ZM110 248H978V1H110V248Z" />
<glyph unicode="&#xb2;" glyph-name="uni00B2" horiz-adv-x="764" d="M73 667V809L359 1064Q409 1108 436 1150T463 1218Q463 1256 439 1277T370 1299Q320 1299 293 1268T266 1192H55Q55 1267 92 1330T199 1431T360 1468Q509 1468 591 1403T673 1218Q673 1160
650 1114T581 1023T452 915L350 835H695V667H73Z" />
<glyph unicode="&#xb3;" glyph-name="uni00B3" horiz-adv-x="764" d="M697 1033T697 889Q697 817 654 764T534 684T363 656Q283 656 211 681T93 763T47 905H258Q258 873 290 849T376 825Q431 825 458 849T486 910Q486 958 455 979T364 1001H274V1088V1139H364Q417
1139 444 1162T472 1225Q472 1255 447 1277T369 1299Q327 1299 299 1284T271 1242H61Q61 1314 102 1365T212 1442T363 1468Q508 1468 595 1409T682 1241Q682 1182 646 1139T547 1072Q697 1033 697 889Z" />
<glyph unicode="&#xb4;" glyph-name="acute" horiz-adv-x="683" d="M621 1536L344 1225H99L295 1536H621Z" />
<glyph unicode="&#xb6;" glyph-name="paragraph" horiz-adv-x="1003" d="M652 520H569Q414 520 303 580T135 746T77 988Q77 1123 134 1229T303 1395T569 1456H874V0H652V520Z" />
<glyph unicode="&#xb7;" glyph-name="middot" horiz-adv-x="628" d="M359 853T398 832T458 775T479 693Q479 648 458 612T398 554T309 533Q259 533 221 554T161 611T140 693Q140 738 161 774T220 832T309 853Q359 853 398 832Z" />
<glyph unicode="&#xb8;" glyph-name="cedilla" horiz-adv-x="554" d="M342 -51Q406 -62 449 -103T492 -224Q492 -297 452 -351T331 -436T136 -466L129 -292Q178 -292 207 -273T236 -212Q236 -174 204 -158T95 -136L126 8H353L342 -51Z" />
<glyph unicode="&#xb9;" glyph-name="uni00B9" horiz-adv-x="764" d="M323 667V1210L138 1171V1332L513 1454H532V667H323Z" />
<glyph unicode="&#xba;" glyph-name="ordmasculine" horiz-adv-x="937" d="M118 1224T160 1304T281 1430T464 1476Q570 1476 648 1431T769 1305T811 1121V1044Q811 941 769 861T649 735T466 690Q361 690 282 735T161 860T118 1044V1121Q118 1224 160 1304ZM293
951T337 894T466 836Q549 836 592 893T636 1044V1121Q636 1213 592 1270T464 1328Q381 1328 337 1271T293 1121V1044Q293 951 337 894Z" />
<glyph unicode="&#xbb;" glyph-name="guillemotright" horiz-adv-x="1031" d="M554 530V517V511L275 121H84L321 521L84 920H275L554 530ZM952 530V517V511L673 121H482L719 521L482 920H673L952 530Z" />
<glyph unicode="&#xbf;" glyph-name="questiondown" horiz-adv-x="1026" d="M498 785T460 806T401 863T380 944Q380 989 401 1025T460 1082T548 1103Q598 1103 636 1082T695 1025T716 944Q716 899 695 863T636 806T548 785Q498 785 460 806ZM676 546T664 482T620
365T532 263Q473 208 443 175T393 100T373 9Q373 -65 411 -102T518 -140Q589 -140 634 -98T681 28H984Q982 -110 922 -203T759 -340T524 -385Q309 -385 190 -284T71 8Q71 86 101 150T177 266T304 393L321 409Q375 457 392 506T412 638H676Q676 546 664 482Z" />
<glyph unicode="&#xc0;" glyph-name="Agrave" horiz-adv-x="1383" d="M950 289H434L339 0H5L545 1456H757H837L1380 0H1045L950 289ZM866 543L691 1074L517 543H866ZM614 1535L337 1846H663L861 1535H614Z" />
<glyph unicode="&#xc1;" glyph-name="Aacute" horiz-adv-x="1383" d="M950 289H434L339 0H5L545 1456H757H837L1380 0H1045L950 289ZM866 543L691 1074L517 543H866ZM1067 1846L789 1535H544L741 1846H1067Z" />
<glyph unicode="&#xc2;" glyph-name="Acircumflex" horiz-adv-x="1383" d="M950 289H434L339 0H5L545 1456H757H837L1380 0H1045L950 289ZM866 543L691 1074L517 543H866ZM1089 1554H851L695 1695L540 1554H305V1570L608 1846H782L1089 1566V1554Z" />
<glyph unicode="&#xc3;" glyph-name="Atilde" horiz-adv-x="1383" d="M950 289H434L339 0H5L545 1456H757H837L1380 0H1045L950 289ZM866 543L691 1074L517 543H866ZM1073 1760T1044 1699T962 1601T845 1565Q800 1565 768 1576T693 1611Q655 1631 629 1640T570
1650Q534 1650 511 1626T488 1557L315 1566Q315 1637 344 1699T426 1799T542 1836Q578 1836 610 1825T684 1792Q731 1770 758 1761T817 1751Q853 1751 877 1775T901 1845L1073 1833Q1073 1760 1044 1699Z" />
<glyph unicode="&#xc4;" glyph-name="Adieresis" horiz-adv-x="1383" d="M950 289H434L339 0H5L545 1456H757H837L1380 0H1045L950 289ZM866 543L691 1074L517 543H866ZM485 1805T517 1788T568 1741T587 1675Q587 1639 569 1610T518 1563T445 1546Q405 1546 373
1563T323 1609T304 1675Q304 1730 344 1767T445 1805Q485 1805 517 1788ZM1002 1804T1042 1767T1083 1675Q1083 1620 1043 1583T941 1546Q880 1546 840 1583T799 1675Q799 1730 839 1767T941 1804Q1002 1804 1042 1767Z" />
<glyph unicode="&#xc5;" glyph-name="Aring" horiz-adv-x="1383" d="M950 289H434L339 0H5L545 1456H757H837L1380 0H1045L950 289ZM866 543L691 1074L517 543H866ZM759 1934T810 1907T890 1832T919 1730Q919 1675 890 1629T810 1556T696 1529Q633 1529 582 1555T502
1628T473 1730Q473 1785 502 1832T582 1906T696 1934Q759 1934 810 1907ZM744 1624T773 1654T803 1730Q803 1775 773 1806T696 1838Q648 1838 619 1807T589 1730Q589 1685 618 1655T696 1624Q744 1624 773 1654Z" />
<glyph unicode="&#xc6;" glyph-name="AE" horiz-adv-x="1926" d="M1862 247V0H1130H965L951 332H522L359 0H6L779 1456H969H1206H1801V1209H1216L1230 870H1720V623H1240L1256 247H1862ZM940 588L917 1135L648 588H940Z" />
<glyph unicode="&#xc7;" glyph-name="Ccedilla" horiz-adv-x="1342" d="M823 237T889 298T965 488H1278Q1269 354 1211 248T1048 75T800 -13L792 -53Q856 -64 899 -105T942 -226Q942 -299 902 -353T781 -438T586 -468L579 -294Q628 -294 657 -275T686 -214Q686
-176 654 -160T545 -138L572 -11Q419 14 309 104T140 343T82 683V772Q82 986 157 1145T369 1391T689 1477Q868 1477 996 1411T1194 1229T1279 959H966Q957 1091 894 1155T689 1220Q542 1220 471 1112T400 774V683Q400 528 429 431T521 285T688 237Q823 237 889
298Z" />
<glyph unicode="&#xc8;" glyph-name="Egrave" horiz-adv-x="1151" d="M1108 253V0H337H125V1456H439H1107V1202H439V871H1008V626H439V253H1108ZM557 1537L280 1848H606L804 1537H557Z" />
<glyph unicode="&#xc9;" glyph-name="Eacute" horiz-adv-x="1151" d="M1108 253V0H337H125V1456H439H1107V1202H439V871H1008V626H439V253H1108ZM1010 1848L732 1537H487L684 1848H1010Z" />
<glyph unicode="&#xca;" glyph-name="Ecircumflex" horiz-adv-x="1151" d="M1108 253V0H337H125V1456H439H1107V1202H439V871H1008V626H439V253H1108ZM1032 1556H794L638 1697L483 1556H248V1572L551 1848H725L1032 1568V1556Z" />
<glyph unicode="&#xcb;" glyph-name="Edieresis" horiz-adv-x="1151" d="M1108 253V0H337H125V1456H439H1107V1202H439V871H1008V626H439V253H1108ZM428 1807T460 1790T511 1743T530 1677Q530 1641 512 1612T461 1565T388 1548Q348 1548 316 1565T266 1611T247
1677Q247 1732 287 1769T388 1807Q428 1807 460 1790ZM945 1806T985 1769T1026 1677Q1026 1622 986 1585T884 1548Q823 1548 783 1585T742 1677Q742 1732 782 1769T884 1806Q945 1806 985 1769Z" />
<glyph unicode="&#xcc;" glyph-name="Igrave" horiz-adv-x="603" d="M145 0V1456H458V0H145ZM221 1537L-56 1848H270L468 1537H221Z" />
<glyph unicode="&#xcd;" glyph-name="Iacute" horiz-adv-x="603" d="M145 0V1456H458V0H145ZM674 1848L396 1537H151L348 1848H674Z" />
<glyph unicode="&#xce;" glyph-name="Icircumflex" horiz-adv-x="603" d="M145 0V1456H458V0H145ZM695 1556H457L301 1697L146 1556H-89V1572L214 1848H388L695 1568V1556Z" />
<glyph unicode="&#xcf;" glyph-name="Idieresis" horiz-adv-x="603" d="M145 0V1456H458V0H145ZM92 1807T124 1790T175 1743T194 1677Q194 1641 176 1612T125 1565T52 1548Q12 1548 -20 1565T-70 1611T-89 1677Q-89 1732 -49 1769T52 1807Q92 1807 124 1790ZM609
1806T649 1769T690 1677Q690 1622 650 1585T548 1548Q487 1548 447 1585T406 1677Q406 1732 446 1769T548 1806Q609 1806 649 1769Z" />
<glyph unicode="&#xd0;" glyph-name="Eth" horiz-adv-x="1330" d="M774 1456T925 1369T1162 1123T1247 760V696Q1247 491 1162 333T925 88T577 0H261H125V639H-23V825H125V1456H439H579Q774 1456 925 1369ZM928 762Q928 978 839 1090T579 1202H439V825H685V639H439V253H577Q748
253 838 366T928 696V762Z" />
<glyph unicode="&#xd1;" glyph-name="Ntilde" horiz-adv-x="1445" d="M1005 0L439 939V0H125V1456H439L1005 517V1456H1318V0H1005ZM1105 1760T1076 1699T994 1601T877 1565Q832 1565 800 1576T725 1611Q687 1631 661 1640T602 1650Q566 1650 543 1626T520 1557L347
1566Q347 1637 376 1699T458 1799T574 1836Q610 1836 642 1825T716 1792Q763 1770 790 1761T849 1751Q885 1751 909 1775T933 1845L1105 1833Q1105 1760 1076 1699Z" />
<glyph unicode="&#xd2;" glyph-name="Ograve" horiz-adv-x="1414" d="M1331 478T1253 316T1033 67T708 -20Q524 -20 382 67T161 316T82 696V759Q82 977 161 1139T381 1389T706 1476Q890 1476 1031 1389T1252 1140T1331 759V696Q1331 478 1253 316ZM1013 983T933
1100T706 1218Q558 1218 479 1101T400 761V696Q400 475 480 356T708 237Q855 237 934 356T1013 696V761Q1013 983 933 1100ZM626 1535L349 1846H675L873 1535H626Z" />
<glyph unicode="&#xd3;" glyph-name="Oacute" horiz-adv-x="1414" d="M1331 478T1253 316T1033 67T708 -20Q524 -20 382 67T161 316T82 696V759Q82 977 161 1139T381 1389T706 1476Q890 1476 1031 1389T1252 1140T1331 759V696Q1331 478 1253 316ZM1013 983T933
1100T706 1218Q558 1218 479 1101T400 761V696Q400 475 480 356T708 237Q855 237 934 356T1013 696V761Q1013 983 933 1100ZM1079 1846L801 1535H556L753 1846H1079Z" />
<glyph unicode="&#xd4;" glyph-name="Ocircumflex" horiz-adv-x="1414" d="M1331 478T1253 316T1033 67T708 -20Q524 -20 382 67T161 316T82 696V759Q82 977 161 1139T381 1389T706 1476Q890 1476 1031 1389T1252 1140T1331 759V696Q1331 478 1253 316ZM1013 983T933
1100T706 1218Q558 1218 479 1101T400 761V696Q400 475 480 356T708 237Q855 237 934 356T1013 696V761Q1013 983 933 1100ZM1100 1554H862L706 1695L551 1554H316V1570L619 1846H793L1100 1566V1554Z" />
<glyph unicode="&#xd5;" glyph-name="Otilde" horiz-adv-x="1414" d="M1331 478T1253 316T1033 67T708 -20Q524 -20 382 67T161 316T82 696V759Q82 977 161 1139T381 1389T706 1476Q890 1476 1031 1389T1252 1140T1331 759V696Q1331 478 1253 316ZM1013 983T933
1100T706 1218Q558 1218 479 1101T400 761V696Q400 475 480 356T708 237Q855 237 934 356T1013 696V761Q1013 983 933 1100ZM1085 1760T1056 1699T974 1601T857 1565Q812 1565 780 1576T705 1611Q667 1631 641 1640T582 1650Q546 1650 523 1626T500 1557L327 1566Q327
1637 356 1699T438 1799T554 1836Q590 1836 622 1825T696 1792Q743 1770 770 1761T829 1751Q865 1751 889 1775T913 1845L1085 1833Q1085 1760 1056 1699Z" />
<glyph unicode="&#xd6;" glyph-name="Odieresis" horiz-adv-x="1414" d="M1331 478T1253 316T1033 67T708 -20Q524 -20 382 67T161 316T82 696V759Q82 977 161 1139T381 1389T706 1476Q890 1476 1031 1389T1252 1140T1331 759V696Q1331 478 1253 316ZM1013 983T933
1100T706 1218Q558 1218 479 1101T400 761V696Q400 475 480 356T708 237Q855 237 934 356T1013 696V761Q1013 983 933 1100ZM497 1805T529 1788T580 1741T599 1675Q599 1639 581 1610T530 1563T457 1546Q417 1546 385 1563T335 1609T316 1675Q316 1730 356 1767T457
1805Q497 1805 529 1788ZM1014 1804T1054 1767T1095 1675Q1095 1620 1055 1583T953 1546Q892 1546 852 1583T811 1675Q811 1730 851 1767T953 1804Q1014 1804 1054 1767Z" />
<glyph unicode="&#xd7;" glyph-name="multiply" horiz-adv-x="1087" d="M714 687L1018 377L841 202L540 509L239 202L62 377L366 687L62 996L239 1171L540 864L841 1171L1018 996L714 687Z" />
<glyph unicode="&#xd8;" glyph-name="Oslash" horiz-adv-x="1411" d="M1243 1201T1291 1065T1339 759V696Q1339 478 1261 316T1041 67T716 -20Q553 -20 423 49L338 -95H146L288 148Q193 242 142 381T90 696V759Q90 977 169 1139T389 1389T714 1476Q885 1476 1022
1399L1092 1518H1285L1154 1296Q1243 1201 1291 1065ZM408 537T451 426L884 1163Q816 1218 714 1218Q566 1218 487 1101T408 761V696Q408 537 451 426ZM1022 761Q1022 910 986 1010L560 282Q625 237 716 237Q863 237 942 356T1022 696V761Z" />
<glyph unicode="&#xd9;" glyph-name="Ugrave" horiz-adv-x="1352" d="M1238 499Q1238 334 1167 217T970 40T677 -20Q510 -20 383 40T184 217T113 499V1456H428V499Q428 233 677 233Q798 233 861 297T924 499V1456H1238V499ZM592 1535L315 1846H641L839 1535H592Z" />
<glyph unicode="&#xda;" glyph-name="Uacute" horiz-adv-x="1352" d="M1238 499Q1238 334 1167 217T970 40T677 -20Q510 -20 383 40T184 217T113 499V1456H428V499Q428 233 677 233Q798 233 861 297T924 499V1456H1238V499ZM1045 1846L767 1535H522L719 1846H1045Z" />
<glyph unicode="&#xdb;" glyph-name="Ucircumflex" horiz-adv-x="1352" d="M1238 499Q1238 334 1167 217T970 40T677 -20Q510 -20 383 40T184 217T113 499V1456H428V499Q428 233 677 233Q798 233 861 297T924 499V1456H1238V499ZM1066 1554H828L672 1695L517 1554H282V1570L585
1846H759L1066 1566V1554Z" />
<glyph unicode="&#xdc;" glyph-name="Udieresis" horiz-adv-x="1352" d="M1238 499Q1238 334 1167 217T970 40T677 -20Q510 -20 383 40T184 217T113 499V1456H428V499Q428 233 677 233Q798 233 861 297T924 499V1456H1238V499ZM463 1805T495 1788T546 1741T565
1675Q565 1639 547 1610T496 1563T423 1546Q383 1546 351 1563T301 1609T282 1675Q282 1730 322 1767T423 1805Q463 1805 495 1788ZM980 1804T1020 1767T1061 1675Q1061 1620 1021 1583T919 1546Q858 1546 818 1583T777 1675Q777 1730 817 1767T919 1804Q980 1804
1020 1767Z" />
<glyph unicode="&#xdd;" glyph-name="Yacute" horiz-adv-x="1272" d="M929 1456H1271L795 526V0H477V526L1 1456H343L636 809L929 1456ZM1010 1846L732 1535H487L684 1846H1010Z" />
<glyph unicode="&#xde;" glyph-name="Thorn" horiz-adv-x="1252" d="M820 1193T942 1135T1127 975T1190 738Q1190 605 1127 502T942 342T648 284H431V0H129V1456H431V1193H648Q820 1193 942 1135ZM730 527T784 555T863 631T888 736Q888 795 863 843T784 920T648
949H431V527H648Q730 527 784 555Z" />
<glyph unicode="&#xdf;" glyph-name="germandbls" horiz-adv-x="1302" d="M135 0V1101Q135 1250 193 1353T360 1508T620 1560Q740 1560 836 1517T990 1390T1047 1186Q1047 1118 1033 1077T991 989Q967 950 955 917T943 832Q943 796 970 762T1054 676Q1112 621
1148 581T1210 484T1237 360Q1237 241 1185 156T1031 25T784 -20Q706 -20 627 -5T507 34L563 273Q600 253 656 238T779 223Q853 223 894 258T936 356Q936 389 920 418T880 470T814 529Q759 575 725 611T666 699T641 818Q641 880 655 920T697 1010Q722 1054 734
1088T747 1172Q747 1237 704 1277T595 1318Q518 1318 478 1267T437 1096V0H135Z" />
<glyph unicode="&#xe0;" glyph-name="agrave" horiz-adv-x="1096" d="M989 175T1000 118T1033 17V0H730Q710 39 701 97Q598 -20 430 -20Q328 -20 244 22T112 138T63 305Q63 476 190 568T564 661H687V722Q687 797 649 838T535 880Q466 880 428 848T389 755H87Q87
852 144 931T307 1056T551 1102Q679 1102 778 1059T933 930T989 720V267Q989 175 1000 118ZM564 209T614 237T687 307V488H572Q467 488 416 443T364 324Q364 273 400 241T498 209Q564 209 614 237ZM467 1225L190 1536H516L714 1225H467Z" />
<glyph unicode="&#xe1;" glyph-name="aacute" horiz-adv-x="1096" d="M989 175T1000 118T1033 17V0H730Q710 39 701 97Q598 -20 430 -20Q328 -20 244 22T112 138T63 305Q63 476 190 568T564 661H687V722Q687 797 649 838T535 880Q466 880 428 848T389 755H87Q87
852 144 931T307 1056T551 1102Q679 1102 778 1059T933 930T989 720V267Q989 175 1000 118ZM564 209T614 237T687 307V488H572Q467 488 416 443T364 324Q364 273 400 241T498 209Q564 209 614 237ZM920 1536L642 1225H397L594 1536H920Z" />
<glyph unicode="&#xe2;" glyph-name="acircumflex" horiz-adv-x="1096" d="M989 175T1000 118T1033 17V0H730Q710 39 701 97Q598 -20 430 -20Q328 -20 244 22T112 138T63 305Q63 476 190 568T564 661H687V722Q687 797 649 838T535 880Q466 880 428 848T389 755H87Q87
852 144 931T307 1056T551 1102Q679 1102 778 1059T933 930T989 720V267Q989 175 1000 118ZM564 209T614 237T687 307V488H572Q467 488 416 443T364 324Q364 273 400 241T498 209Q564 209 614 237ZM942 1244H704L548 1385L393 1244H158V1260L461 1536H635L942 1256V1244Z"
/>
<glyph unicode="&#xe3;" glyph-name="atilde" horiz-adv-x="1096" d="M989 175T1000 118T1033 17V0H730Q710 39 701 97Q598 -20 430 -20Q328 -20 244 22T112 138T63 305Q63 476 190 568T564 661H687V722Q687 797 649 838T535 880Q466 880 428 848T389 755H87Q87
852 144 931T307 1056T551 1102Q679 1102 778 1059T933 930T989 720V267Q989 175 1000 118ZM564 209T614 237T687 307V488H572Q467 488 416 443T364 324Q364 273 400 241T498 209Q564 209 614 237ZM926 1450T897 1389T815 1291T698 1255Q653 1255 621 1266T546
1301Q508 1321 482 1330T423 1340Q387 1340 364 1316T341 1247L168 1256Q168 1327 197 1389T279 1489T395 1526Q431 1526 463 1515T537 1482Q584 1460 611 1451T670 1441Q706 1441 730 1465T754 1535L926 1523Q926 1450 897 1389Z" />
<glyph unicode="&#xe4;" glyph-name="adieresis" horiz-adv-x="1096" d="M989 175T1000 118T1033 17V0H730Q710 39 701 97Q598 -20 430 -20Q328 -20 244 22T112 138T63 305Q63 476 190 568T564 661H687V722Q687 797 649 838T535 880Q466 880 428 848T389 755H87Q87
852 144 931T307 1056T551 1102Q679 1102 778 1059T933 930T989 720V267Q989 175 1000 118ZM564 209T614 237T687 307V488H572Q467 488 416 443T364 324Q364 273 400 241T498 209Q564 209 614 237ZM338 1495T370 1478T421 1431T440 1365Q440 1329 422 1300T371
1253T298 1236Q258 1236 226 1253T176 1299T157 1365Q157 1420 197 1457T298 1495Q338 1495 370 1478ZM855 1494T895 1457T936 1365Q936 1310 896 1273T794 1236Q733 1236 693 1273T652 1365Q652 1420 692 1457T794 1494Q855 1494 895 1457Z" />
<glyph unicode="&#xe5;" glyph-name="aring" horiz-adv-x="1096" d="M989 175T1000 118T1033 17V0H730Q710 39 701 97Q598 -20 430 -20Q328 -20 244 22T112 138T63 305Q63 476 190 568T564 661H687V722Q687 797 649 838T535 880Q466 880 428 848T389 755H87Q87
852 144 931T307 1056T551 1102Q679 1102 778 1059T933 930T989 720V267Q989 175 1000 118ZM564 209T614 237T687 307V488H572Q467 488 416 443T364 324Q364 273 400 241T498 209Q564 209 614 237ZM612 1624T663 1597T743 1522T772 1420Q772 1365 743 1319T663
1246T549 1219Q486 1219 435 1245T355 1318T326 1420Q326 1475 355 1522T435 1596T549 1624Q612 1624 663 1597ZM597 1314T626 1344T656 1420Q656 1465 626 1496T549 1528Q501 1528 472 1497T442 1420Q442 1375 471 1345T549 1314Q597 1314 626 1344Z" />
<glyph unicode="&#xe6;" glyph-name="ae" horiz-adv-x="1730" d="M1679 444H1019Q1031 342 1095 283T1279 223Q1371 223 1434 241T1571 297L1649 101Q1588 52 1480 16T1245 -20Q1121 -20 1024 17T860 124Q799 60 701 20T471 -20Q342 -20 251 22T112 140T65 321Q65
480 193 566T567 652H724V704Q724 777 685 818T572 859Q493 859 448 826T402 743L101 762Q101 860 160 937T326 1058T575 1102Q784 1102 900 998Q1029 1103 1224 1102Q1365 1102 1467 1043T1624 873T1679 612V444ZM1384 672Q1384 759 1344 809T1224 859Q1050 859
1021 645H1384V672ZM367 262T407 231T529 200Q578 200 631 221T724 274V457H569Q506 457 460 438T391 386T367 317Q367 262 407 231Z" />
<glyph unicode="&#xe7;" glyph-name="ccedilla" horiz-adv-x="1068" d="M637 223T684 265T732 379H1015Q1015 280 971 199T850 64T672 -10L664 -53Q728 -64 771 -105T814 -226Q814 -299 774 -353T653 -438T458 -468L451 -294Q500 -294 529 -275T558 -214Q558 -176
526 -160T417 -138L445 -9Q320 16 235 91T106 278T63 528V554Q63 712 119 836T288 1031T563 1102Q696 1102 798 1051T958 903T1015 675H732Q731 755 685 807T557 859Q447 859 406 777T365 554V528Q365 385 405 304T559 223Q637 223 684 265Z" />
<glyph unicode="&#xe8;" glyph-name="egrave" horiz-adv-x="1110" d="M1060 443H376Q393 342 460 283T632 223Q710 223 776 252T890 341L1035 174Q978 92 869 36T612 -20Q446 -20 324 50T136 240T70 505V543Q70 705 131 832T307 1030T579 1102Q732 1102 840 1037T1004
853T1060 571V443ZM764 669Q762 757 716 808T577 859Q491 859 443 802T379 645H764V669ZM462 1226L185 1537H511L709 1226H462Z" />
<glyph unicode="&#xe9;" glyph-name="eacute" horiz-adv-x="1110" d="M1060 443H376Q393 342 460 283T632 223Q710 223 776 252T890 341L1035 174Q978 92 869 36T612 -20Q446 -20 324 50T136 240T70 505V543Q70 705 131 832T307 1030T579 1102Q732 1102 840 1037T1004
853T1060 571V443ZM764 669Q762 757 716 808T577 859Q491 859 443 802T379 645H764V669ZM915 1537L637 1226H392L589 1537H915Z" />
<glyph unicode="&#xea;" glyph-name="ecircumflex" horiz-adv-x="1110" d="M1060 443H376Q393 342 460 283T632 223Q710 223 776 252T890 341L1035 174Q978 92 869 36T612 -20Q446 -20 324 50T136 240T70 505V543Q70 705 131 832T307 1030T579 1102Q732 1102 840
1037T1004 853T1060 571V443ZM764 669Q762 757 716 808T577 859Q491 859 443 802T379 645H764V669ZM936 1245H698L542 1386L387 1245H152V1261L455 1537H629L936 1257V1245Z" />
<glyph unicode="&#xeb;" glyph-name="edieresis" horiz-adv-x="1110" d="M1060 443H376Q393 342 460 283T632 223Q710 223 776 252T890 341L1035 174Q978 92 869 36T612 -20Q446 -20 324 50T136 240T70 505V543Q70 705 131 832T307 1030T579 1102Q732 1102 840
1037T1004 853T1060 571V443ZM764 669Q762 757 716 808T577 859Q491 859 443 802T379 645H764V669ZM333 1496T365 1479T416 1432T435 1366Q435 1330 417 1301T366 1254T293 1237Q253 1237 221 1254T171 1300T152 1366Q152 1421 192 1458T293 1496Q333 1496 365
1479ZM850 1495T890 1458T931 1366Q931 1311 891 1274T789 1237Q728 1237 688 1274T647 1366Q647 1421 687 1458T789 1495Q850 1495 890 1458Z" />
<glyph unicode="&#xec;" glyph-name="igrave" horiz-adv-x="567" d="M131 0V1082H434V0H131ZM204 1207L-73 1518H253L451 1207H204Z" />
<glyph unicode="&#xed;" glyph-name="iacute" horiz-adv-x="567" d="M131 0V1082H434V0H131ZM657 1518L379 1207H134L331 1518H657Z" />
<glyph unicode="&#xee;" glyph-name="icircumflex" horiz-adv-x="567" d="M131 0V1082H434V0H131ZM678 1226H440L284 1367L129 1226H-106V1242L197 1518H371L678 1238V1226Z" />
<glyph unicode="&#xef;" glyph-name="idieresis" horiz-adv-x="567" d="M131 0V1082H434V0H131ZM75 1477T107 1460T158 1413T177 1347Q177 1311 159 1282T108 1235T35 1218Q-5 1218 -37 1235T-87 1281T-106 1347Q-106 1402 -66 1439T35 1477Q75 1477 107 1460ZM592
1476T632 1439T673 1347Q673 1292 633 1255T531 1218Q470 1218 430 1255T389 1347Q389 1402 429 1439T531 1476Q592 1476 632 1439Z" />
<glyph unicode="&#xf0;" glyph-name="eth" horiz-adv-x="1176" d="M977 1181T1044 1015T1111 653V583Q1111 407 1043 270T856 56T586 -20Q438 -20 323 44T143 220T79 468Q79 617 132 729T288 902T532 964Q666 964 772 893Q722 1040 608 1150L421 1032L343 1148L490
1241Q375 1311 232 1348L327 1579Q565 1530 743 1401L912 1507L989 1391L854 1306Q977 1181 1044 1015ZM808 655V660Q779 694 726 715T599 737Q492 737 437 666T381 468Q381 399 406 343T478 255T590 223Q660 223 709 265T783 381T808 550V655Z" />
<glyph unicode="&#xf1;" glyph-name="ntilde" horiz-adv-x="1150" d="M868 1102T957 1005T1046 686V0H744V687Q744 783 703 820T576 858Q517 858 474 833T403 762V0H101V1082H384L394 957Q451 1028 530 1065T705 1102Q868 1102 957 1005ZM955 1450T926 1389T844
1291T727 1255Q682 1255 650 1266T575 1301Q537 1321 511 1330T452 1340Q416 1340 393 1316T370 1247L197 1256Q197 1327 226 1389T308 1489T424 1526Q460 1526 492 1515T566 1482Q613 1460 640 1451T699 1441Q735 1441 759 1465T783 1535L955 1523Q955 1450 926
1389Z" />
<glyph unicode="&#xf2;" glyph-name="ograve" horiz-adv-x="1156" d="M63 710T123 835T300 1031T577 1102Q739 1102 855 1031T1032 835T1093 551V530Q1093 371 1033 247T856 51T579 -20Q417 -20 301 51T124 246T63 530V551Q63 710 123 835ZM365 390T416 307T579
223Q689 223 740 307T791 530V551Q791 689 740 774T577 859Q467 859 416 774T365 551V530Q365 390 416 307ZM496 1225L219 1536H545L743 1225H496Z" />
<glyph unicode="&#xf3;" glyph-name="oacute" horiz-adv-x="1156" d="M63 710T123 835T300 1031T577 1102Q739 1102 855 1031T1032 835T1093 551V530Q1093 371 1033 247T856 51T579 -20Q417 -20 301 51T124 246T63 530V551Q63 710 123 835ZM365 390T416 307T579
223Q689 223 740 307T791 530V551Q791 689 740 774T577 859Q467 859 416 774T365 551V530Q365 390 416 307ZM949 1536L671 1225H426L623 1536H949Z" />
<glyph unicode="&#xf4;" glyph-name="ocircumflex" horiz-adv-x="1156" d="M63 710T123 835T300 1031T577 1102Q739 1102 855 1031T1032 835T1093 551V530Q1093 371 1033 247T856 51T579 -20Q417 -20 301 51T124 246T63 530V551Q63 710 123 835ZM365 390T416 307T579
223Q689 223 740 307T791 530V551Q791 689 740 774T577 859Q467 859 416 774T365 551V530Q365 390 416 307ZM971 1244H733L577 1385L422 1244H187V1260L490 1536H664L971 1256V1244Z" />
<glyph unicode="&#xf5;" glyph-name="otilde" horiz-adv-x="1156" d="M63 710T123 835T300 1031T577 1102Q739 1102 855 1031T1032 835T1093 551V530Q1093 371 1033 247T856 51T579 -20Q417 -20 301 51T124 246T63 530V551Q63 710 123 835ZM365 390T416 307T579
223Q689 223 740 307T791 530V551Q791 689 740 774T577 859Q467 859 416 774T365 551V530Q365 390 416 307ZM955 1450T926 1389T844 1291T727 1255Q682 1255 650 1266T575 1301Q537 1321 511 1330T452 1340Q416 1340 393 1316T370 1247L197 1256Q197 1327 226 1389T308
1489T424 1526Q460 1526 492 1515T566 1482Q613 1460 640 1451T699 1441Q735 1441 759 1465T783 1535L955 1523Q955 1450 926 1389Z" />
<glyph unicode="&#xf6;" glyph-name="odieresis" horiz-adv-x="1156" d="M63 710T123 835T300 1031T577 1102Q739 1102 855 1031T1032 835T1093 551V530Q1093 371 1033 247T856 51T579 -20Q417 -20 301 51T124 246T63 530V551Q63 710 123 835ZM365 390T416 307T579
223Q689 223 740 307T791 530V551Q791 689 740 774T577 859Q467 859 416 774T365 551V530Q365 390 416 307ZM367 1495T399 1478T450 1431T469 1365Q469 1329 451 1300T400 1253T327 1236Q287 1236 255 1253T205 1299T186 1365Q186 1420 226 1457T327 1495Q367 1495
399 1478ZM884 1494T924 1457T965 1365Q965 1310 925 1273T823 1236Q762 1236 722 1273T681 1365Q681 1420 721 1457T823 1494Q884 1494 924 1457Z" />
<glyph unicode="&#xf7;" glyph-name="divide" horiz-adv-x="1168" d="M655 1245T702 1201T749 1088Q749 1020 702 977T579 933Q503 933 457 976T410 1088Q410 1157 456 1201T579 1245Q655 1245 702 1201ZM63 568V804H1095V568H63ZM656 434T702 391T749 278Q749
209 703 166T579 122Q503 122 457 165T410 278Q410 347 456 390T579 434Q656 434 702 391Z" />
<glyph unicode="&#xf8;" glyph-name="oslash" horiz-adv-x="1155" d="M990 934T1041 816T1093 551V530Q1093 371 1033 247T856 51T579 -20Q487 -20 404 5L332 -143H167L271 70Q170 142 117 261T63 530V551Q63 710 123 835T300 1031T577 1102Q674 1102 760 1074L830
1217H995L892 1006Q990 934 1041 816ZM365 409T400 335L649 847Q617 859 577 859Q467 859 416 774T365 551V530Q365 409 400 335ZM791 551Q791 662 760 735L515 232Q544 223 579 223Q689 223 740 307T791 530V551Z" />
<glyph unicode="&#xf9;" glyph-name="ugrave" horiz-adv-x="1149" d="M1046 1082V0H763L755 113Q704 49 630 15T461 -20Q292 -20 197 78T101 382V1082H402V380Q402 300 441 262T551 224Q690 224 744 321V1082H1046ZM494 1225L217 1536H543L741 1225H494Z" />
<glyph unicode="&#xfa;" glyph-name="uacute" horiz-adv-x="1149" d="M1046 1082V0H763L755 113Q704 49 630 15T461 -20Q292 -20 197 78T101 382V1082H402V380Q402 300 441 262T551 224Q690 224 744 321V1082H1046ZM947 1536L669 1225H424L621 1536H947Z" />
<glyph unicode="&#xfb;" glyph-name="ucircumflex" horiz-adv-x="1149" d="M1046 1082V0H763L755 113Q704 49 630 15T461 -20Q292 -20 197 78T101 382V1082H402V380Q402 300 441 262T551 224Q690 224 744 321V1082H1046ZM968 1244H730L574 1385L419 1244H184V1260L487
1536H661L968 1256V1244Z" />
<glyph unicode="&#xfc;" glyph-name="udieresis" horiz-adv-x="1149" d="M1046 1082V0H763L755 113Q704 49 630 15T461 -20Q292 -20 197 78T101 382V1082H402V380Q402 300 441 262T551 224Q690 224 744 321V1082H1046ZM365 1495T397 1478T448 1431T467 1365Q467
1329 449 1300T398 1253T325 1236Q285 1236 253 1253T203 1299T184 1365Q184 1420 224 1457T325 1495Q365 1495 397 1478ZM882 1494T922 1457T963 1365Q963 1310 923 1273T821 1236Q760 1236 720 1273T679 1365Q679 1420 719 1457T821 1494Q882 1494 922 1457Z"
/>
<glyph unicode="&#xfd;" glyph-name="yacute" horiz-adv-x="1037" d="M1037 1082L603 -162Q578 -233 541 -292T433 -394T254 -437Q215 -437 191 -433T123 -418V-190Q138 -191 168 -191Q249 -191 289 -166T350 -84L380 -5L2 1082H326L519 426L714 1082H1037ZM896
1536L618 1225H373L570 1536H896Z" />
<glyph unicode="&#xfe;" glyph-name="thorn" horiz-adv-x="1159" d="M803 1102T898 1034T1041 843T1090 553V532Q1090 373 1041 248T898 52T670 -20Q511 -20 411 93V-416H109V1536H411V991Q511 1102 668 1102Q803 1102 898 1034ZM789 553Q789 693 741 775T590
858Q460 858 411 760V325Q463 223 592 223Q694 223 741 308T789 532V553Z" />
<glyph unicode="&#xff;" glyph-name="ydieresis" horiz-adv-x="1037" d="M1037 1082L603 -162Q578 -233 541 -292T433 -394T254 -437Q215 -437 191 -433T123 -418V-190Q138 -191 168 -191Q249 -191 289 -166T350 -84L380 -5L2 1082H326L519 426L714 1082H1037ZM314
1495T346 1478T397 1431T416 1365Q416 1329 398 1300T347 1253T274 1236Q234 1236 202 1253T152 1299T133 1365Q133 1420 173 1457T274 1495Q314 1495 346 1478ZM831 1494T871 1457T912 1365Q912 1310 872 1273T770 1236Q709 1236 669 1273T628 1365Q628 1420 668
1457T770 1494Q831 1494 871 1457Z" />
<glyph unicode="&#x2013;" glyph-name="endash" horiz-adv-x="1287" d="M150 589V836H1191V589H150Z" />
<glyph unicode="&#x2014;" glyph-name="emdash" horiz-adv-x="1557" d="M103 589V836H1491V589H103Z" />
<glyph unicode="&#x2018;" glyph-name="quoteleft" horiz-adv-x="488" d="M105 1297T158 1401T288 1573L427 1493Q385 1424 362 1356T339 1201V1046H105V1201Q105 1297 158 1401Z" />
<glyph unicode="&#x2019;" glyph-name="quoteright" horiz-adv-x="478" d="M383 1282T330 1178T200 1006L61 1086Q103 1155 126 1223T149 1378V1536H383V1378Q383 1282 330 1178Z" />
<glyph unicode="&#x201a;" glyph-name="quotesinglbase" horiz-adv-x="521" d="M393 -31T340 -136T210 -307L71 -228Q109 -164 129 -95T150 65V237H393V65Q393 -31 340 -136Z" />
<glyph unicode="&#x201c;" glyph-name="quotedblleft" horiz-adv-x="842" d="M113 1297T166 1401T296 1573L435 1493Q393 1424 370 1356T347 1201V1046H113V1201Q113 1297 166 1401ZM458 1297T511 1401T641 1573L780 1493Q738 1424 715 1356T692 1201V1046H458V1201Q458
1297 511 1401Z" />
<glyph unicode="&#x201d;" glyph-name="quotedblright" horiz-adv-x="849" d="M397 1282T344 1178T214 1006L75 1086Q117 1155 140 1223T163 1378V1536H397V1378Q397 1282 344 1178ZM748 1282T695 1178T565 1006L426 1086Q468 1155 491 1223T514 1378V1536H748V1378Q748
1282 695 1178Z" />
<glyph unicode="&#x201e;" glyph-name="quotedblbase" horiz-adv-x="839" d="M393 -38T343 -148T218 -327L71 -248Q109 -179 129 -105T150 65V266H393V65Q393 -38 343 -148ZM741 -36T688 -146T558 -327L411 -248Q452 -174 475 -101T498 65V266H742L741 65Q741
-36 688 -146Z" />
<glyph unicode="&#x2022;" glyph-name="bullet" horiz-adv-x="742" d="M135 833T165 886T249 970T376 1000Q450 1000 505 970T589 887T619 765V728Q619 660 590 608T506 526T378 496Q305 496 250 525T165 607T135 728V765Q135 833 165 886Z" />
<glyph unicode="&#x2039;" glyph-name="guilsinglleft" horiz-adv-x="642" d="M340 521L578 122H386L108 512V525V531L386 921H578L340 521Z" />
<glyph unicode="&#x203a;" glyph-name="guilsinglright" horiz-adv-x="619" d="M550 530V517V511L271 121H80L317 521L80 920H271L550 530Z" />
</font>
</defs>
</svg>
