<?xml version="1.0" standalone="no"?>
<!DOCTYPE svg PUBLIC "-//W3C//DTD SVG 1.1//EN" "http://www.w3.org/Graphics/SVG/1.1/DTD/svg11.dtd">
<svg xmlns="http://www.w3.org/2000/svg">
<defs >
<font id="Manuale" horiz-adv-x="498" ><font-face
    font-family="Manuale Medium"
    units-per-em="1000"
    panose-1="2 4 6 4 5 4 5 13 2 4"
    ascent="980"
    descent="-236"
    alphabetic="0" />
<glyph unicode=" " glyph-name="space" horiz-adv-x="176" />
<glyph unicode="!" glyph-name="exclam" horiz-adv-x="245" d="M78 187L130 612H246L133 187H78ZM57 -9T40 8T22 51Q22 76 39 94T82 112Q108 112 125 95T143 51Q143 26 125 9T82 -9Q57 -9 40 8Z" />
<glyph unicode="&quot;" glyph-name="quotedbl" horiz-adv-x="306" d="M85 698H183L103 467H75L85 698ZM226 698H322L243 467H217L226 698Z" />
<glyph unicode="#" glyph-name="numbersign" horiz-adv-x="565" d="M402 226H517L499 166H386L338 -9H274L323 166H191L143 -9H80L129 166H4L21 226H144L173 330H49L65 390H190L239 564H302L252 390H384L432 564H496L448 390H561L544 330H431L402 226ZM207 226H340L369
330H236L207 226Z" />
<glyph unicode="$" glyph-name="dollar" horiz-adv-x="497" d="M176 2Q133 3 91 10T17 32L51 150H92L93 67Q142 53 191 53Q257 53 296 85T336 170Q336 198 320 218T269 253L173 294Q137 310 118 334T99 401Q99 493 155 550T304 613L323 714H371L352 613Q414 610
482 587L449 460H410L406 553Q395 557 370 559T327 562Q267 562 228 533T189 447Q189 419 206 401T259 367L353 325Q391 309 409 282T428 214Q428 127 375 72T224 4L202 -117H154L176 2Z" />
<glyph unicode="%" glyph-name="percent" horiz-adv-x="896" d="M124 173T89 207T54 317Q54 394 79 464T154 579T271 623Q331 623 365 589T400 480Q400 392 371 322T293 213T184 173Q124 173 89 207ZM269 0L569 612H632L331 0H269ZM233 247T267 270T323 340T345
453Q345 550 256 550Q189 550 150 491T110 345Q110 291 135 269T199 247Q233 247 267 270ZM573 -8T538 27T502 137Q502 222 531 292T610 402T720 442Q779 442 814 408T849 300Q849 212 820 142T741 32T632 -8Q573 -8 538 27ZM682 66T715 89T771 160T793 273Q793
325 769 347T706 369Q672 369 638 347T582 278T559 164Q559 111 584 89T648 66Q682 66 715 89Z" />
<glyph unicode="&amp;" glyph-name="ampersand" horiz-adv-x="586" d="M453 37Q410 17 351 4T223 -10Q127 -10 75 31T23 153Q23 228 71 284T206 361Q173 382 156 408T139 473Q139 525 168 559T240 609T328 625Q380 625 420 617T504 593L469 457H424L420 551Q376
567 334 567Q289 567 261 542T233 466Q233 422 260 401T332 374L326 323Q226 321 175 286T123 155Q123 105 158 76T255 46Q284 46 315 52T367 65L396 217L316 222L309 273H580V208L487 213L453 37Z" />
<glyph unicode="&apos;" glyph-name="quotesingle" horiz-adv-x="168" d="M106 698H204L125 467H96L106 698Z" />
<glyph unicode="(" glyph-name="parenleft" horiz-adv-x="303" d="M139 181T131 128T123 27Q123 -39 143 -83T210 -150L193 -181Q106 -155 71 -109T35 23Q35 66 43 123T68 264Q99 422 129 505T213 636T367 712L372 681Q303 653 262 592T199 457T155 264Q139 181 131 128Z" />
<glyph unicode=")" glyph-name="parenright" horiz-adv-x="303" d="M164 353T172 405T180 503Q180 568 160 613T92 681L109 712Q195 686 230 639T266 506Q266 427 234 264Q204 108 173 26T88 -106T-64 -181L-69 -150Q0 -122 41 -62T103 71T147 264Q164 353 172 405Z" />
<glyph unicode="*" glyph-name="asterisk" horiz-adv-x="351" d="M116 427L54 477L157 564L156 571L41 590L82 672L182 618L188 621L193 742H277L237 621L242 617L362 672L371 590L248 571L244 564L312 477L235 427L199 534H192L116 427Z" />
<glyph unicode="+" glyph-name="plus" horiz-adv-x="509" d="M223 110V275H57V336H223V502H283V336H450V275H283V110H223Z" />
<glyph unicode="," glyph-name="comma" horiz-adv-x="185" d="M2 -119L-31 -112L19 109L116 131L132 109L2 -119Z" />
<glyph unicode="-" glyph-name="hyphen" horiz-adv-x="281" d="M270 209H6L13 266H277L270 209Z" />
<glyph unicode="." glyph-name="period" horiz-adv-x="204" d="M145 29T125 10T77 -9Q50 -9 30 10T9 57Q9 84 29 104T77 124Q105 124 125 104T145 57Q145 29 125 10Z" />
<glyph unicode="/" glyph-name="slash" horiz-adv-x="360" d="M346 677L97 -89H26L274 677H346Z" />
<glyph unicode="0" glyph-name="zero" horiz-adv-x="497" d="M378 628T420 580T463 427Q463 301 431 202T339 46T200 -11Q120 -11 79 38T38 198Q38 314 68 412T158 569T304 628Q378 628 420 580ZM266 76T305 115T367 226T390 394Q390 478 363 510T286 543Q229
543 189 500T130 386T110 228Q110 142 139 109T216 76Q266 76 305 115Z" />
<glyph unicode="1" glyph-name="one" horiz-adv-x="497" d="M415 38L408 0H7L13 38L177 65L261 537H104L111 577L373 615L274 65L415 38Z" />
<glyph unicode="2" glyph-name="two" horiz-adv-x="497" d="M-4 56L236 265Q304 325 332 374T361 479Q361 515 338 537T265 559Q207 559 120 523L105 569Q164 599 205 613T307 628Q467 628 467 492Q467 424 423 357T287 214L104 66L348 79L377 103L425 104L401
0H6L-4 56Z" />
<glyph unicode="3" glyph-name="three" horiz-adv-x="497" d="M346 628T388 600T431 516Q431 453 386 408T275 336Q337 324 371 290T406 206Q406 143 371 94T273 18T127 -9Q82 -9 56 -7T0 2L8 54Q57 47 104 47Q193 47 248 87T303 204Q303 258 259 278T140 299V346Q231
357 278 397T326 497Q326 530 307 546T243 563Q183 563 110 532L97 578Q140 602 181 615T270 628Q346 628 388 600Z" />
<glyph unicode="4" glyph-name="four" horiz-adv-x="497" d="M243 0L266 131H-3L-9 176L370 621L442 613L367 194H446L435 131H357L333 0H243ZM82 194H277L329 483L82 194Z" />
<glyph unicode="5" glyph-name="five" horiz-adv-x="497" d="M453 541H197L159 395Q311 394 367 347T423 226Q423 157 388 104T286 20T131 -10Q53 -10 8 1L18 57Q49 51 69 49T122 47Q177 47 222 67T293 126T319 214Q319 280 265 307T91 335L83 359L154 612H466L453 541Z" />
<glyph unicode="6" glyph-name="six" horiz-adv-x="497" d="M113 -13T74 36T35 165Q35 279 88 378T230 544T421 632L427 591Q324 558 257 487T161 322Q229 379 314 379Q387 379 418 342T449 243Q449 186 427 128T349 29T198 -13Q113 -13 74 36ZM283 44T315 95T347
229Q347 272 333 295T280 318Q239 318 205 299T146 255Q136 205 136 157Q136 44 220 44Q283 44 315 95Z" />
<glyph unicode="7" glyph-name="seven" horiz-adv-x="497" d="M102 612H490L502 576L151 -25L63 4L411 539H89L102 612Z" />
<glyph unicode="8" glyph-name="eight" horiz-adv-x="497" d="M106 -13T68 19T30 106Q30 166 72 220T185 312Q103 371 103 450Q103 500 130 540T206 604T321 628Q398 628 433 595T468 512Q468 467 434 420T322 331Q419 259 419 178Q419 124 393 81T315 12T192
-13Q106 -13 68 19ZM334 390T357 423T380 498Q380 535 364 555T303 575Q259 575 225 550T191 477Q191 415 279 359Q334 390 357 423ZM260 41T294 70T328 147Q328 185 306 215T227 284Q121 218 121 118Q121 41 206 41Q260 41 294 70Z" />
<glyph unicode="9" glyph-name="nine" horiz-adv-x="497" d="M48 26Q160 41 240 113T349 289Q279 236 198 236Q119 236 86 278T52 400Q52 444 75 497T154 589T295 628Q377 628 422 576T468 444Q468 305 409 201T254 42T55 -16L48 26ZM289 298T361 347Q371 394
371 450Q371 512 349 541T276 571Q218 571 186 525T153 407Q153 356 173 327T236 298Q289 298 361 347Z" />
<glyph unicode=":" glyph-name="colon" horiz-adv-x="248" d="M111 356T91 375T70 424Q70 453 90 474T140 496Q169 496 190 475T211 424Q211 395 191 376T140 356Q111 356 91 375ZM55 -9T35 11T14 60Q14 90 34 111T83 132Q113 132 134 111T155 60Q155 31 134 11T83
-9Q55 -9 35 11Z" />
<glyph unicode=";" glyph-name="semicolon" horiz-adv-x="245" d="M109 356T89 375T68 424Q68 453 89 474T138 496Q167 496 188 475T210 424Q210 395 189 376T138 356Q109 356 89 375ZM28 -119L-5 -112L44 109L141 131L158 109L28 -119Z" />
<glyph unicode="&lt;" glyph-name="less" horiz-adv-x="518" d="M415 113L53 306L415 499L448 443L177 306L448 168L415 113Z" />
<glyph unicode="=" glyph-name="equal" horiz-adv-x="518" d="M61 359V420H453V359H61ZM61 192V252H453V192H61Z" />
<glyph unicode="&gt;" glyph-name="greater" horiz-adv-x="518" d="M98 113L65 168L336 306L65 443L98 499L459 306L98 113Z" />
<glyph unicode="?" glyph-name="question" horiz-adv-x="373" d="M100 159T84 171T68 211Q68 232 93 259T171 330Q290 427 290 492Q290 533 269 552T208 572Q185 572 160 567T117 556T94 548L81 585Q106 601 149 614T240 628Q306 628 347 594T389 502Q389 453
354 408T229 298Q183 265 162 245T141 210Q141 197 152 193T172 189L165 162Q162 161 153 160T133 159Q100 159 84 171ZM70 -10T53 7T35 48Q35 73 52 90T94 108Q119 108 136 91T154 48Q154 23 137 7T94 -10Q70 -10 53 7Z" />
<glyph unicode="@" glyph-name="at" horiz-adv-x="747" d="M526 559T592 527T692 442T725 324Q725 252 691 190T597 91T463 53Q409 53 409 106Q409 118 413 140Q390 98 358 76T288 53Q240 53 215 87T190 179Q190 241 218 298T297 390T416 426Q452 426 488 418L504
442L524 443Q546 443 546 436Q541 417 525 357T494 232T479 141Q479 128 483 123T499 118Q540 118 572 147T623 224T641 322Q641 376 616 419T544 486T432 510Q337 510 262 465T143 343T100 175Q100 79 152 27T304 -26Q422 -26 541 22L555 -12Q427 -82 286 -82Q202
-82 141 -50T47 40T14 179Q14 276 67 363T216 505T430 559Q526 559 592 527ZM364 117T396 186T446 368Q423 376 401 376Q364 376 336 346T292 270T277 178Q277 148 286 133T317 117Q364 117 396 186Z" />
<glyph unicode="A" glyph-name="A" horiz-adv-x="553" d="M349 203H177L102 53L166 39L157 0H-38L-32 38L39 54L324 615L384 626L467 57L529 38L522 0H300L306 39L369 53L349 203ZM201 250H342L312 470L201 250Z" />
<glyph unicode="B" glyph-name="B" horiz-adv-x="540" d="M475 298T475 197Q475 141 443 96T354 26T222 0H-15L-9 37L78 58L174 555L96 575L103 612H339Q427 612 470 581T513 497Q513 428 468 382T354 323Q475 298 475 197ZM327 339T370 376T413 486Q413 564 325
564Q300 564 270 558L228 339H267Q327 339 370 376ZM193 47T225 47Q262 47 296 63T351 114T373 202Q373 248 342 272T254 296H219L172 55Q193 47 225 47Z" />
<glyph unicode="C" glyph-name="C" horiz-adv-x="519" d="M392 6T352 -1T259 -9Q144 -9 90 49T35 212Q35 322 76 417T197 569T383 627Q479 627 549 600L512 462H473L472 561Q433 573 377 573Q298 573 245 521T167 386T142 214Q142 130 175 88T284 45Q328 45 373
59L412 144H452L436 22Q392 6 352 -1Z" />
<glyph unicode="D" glyph-name="D" horiz-adv-x="628" d="M-5 37L82 58L178 555L100 575L106 612H364Q483 612 541 557T599 402Q599 298 559 206T441 57T256 0H-12L-5 37ZM342 47T394 101T470 238T494 402Q494 481 458 521T348 561Q305 561 273 555L177 62Q214
47 263 47Q342 47 394 101Z" />
<glyph unicode="E" glyph-name="E" horiz-adv-x="530" d="M391 393H430L394 209H356L347 278H223L181 60H375L417 151H459L430 0H-12L-5 37L85 58L182 555L100 575L106 612H527L501 476H458L457 555H277L233 327H359L391 393Z" />
<glyph unicode="F" glyph-name="F" horiz-adv-x="496" d="M528 612L502 476H459L458 555H277L231 315H357L389 381H427L392 197H353L348 266H221L180 58L285 38L279 0H-12L-5 37L85 58L182 555L100 575L106 612H528Z" />
<glyph unicode="G" glyph-name="G" horiz-adv-x="588" d="M438 573T386 573Q293 573 239 512T163 369T142 217Q142 43 285 43Q334 43 370 59L404 230L326 251L332 288H571L564 251L496 231L457 32Q421 12 372 1T269 -11Q35 -11 35 212Q35 323 75 417T197 569T396
627Q444 627 491 619T567 597L528 462H487L482 561Q438 573 386 573Z" />
<glyph unicode="H" glyph-name="H" horiz-adv-x="673" d="M-12 0L-6 37L77 58L174 555L99 575L105 612H358L352 575L268 555L225 332H476L519 555L444 575L451 612H704L697 575L614 555L518 58L594 37L587 0H334L340 37L423 58L466 278H215L172 58L247 37L240 0H-12Z" />
<glyph unicode="I" glyph-name="I" horiz-adv-x="336" d="M-12 0L-5 37L82 58L178 555L100 575L106 612H368L361 575L273 555L177 58L256 37L249 0H-12Z" />
<glyph unicode="J" glyph-name="J" horiz-adv-x="318" d="M-52 -149T-87 -121L-77 -90H-11Q31 -90 51 -59T83 33L180 555L101 575L108 612H367L361 575L274 555L183 63Q162 -55 118 -102T4 -149Q-52 -149 -87 -121Z" />
<glyph unicode="K" glyph-name="K" horiz-adv-x="562" d="M520 0H364L224 300L177 58L252 37L245 0H-12L-5 37L82 58L178 555L100 575L106 612H365L358 575L273 555L229 331L468 557L412 575L419 612H617L611 576L540 555L310 335L446 58L526 37L520 0Z" />
<glyph unicode="L" glyph-name="L" horiz-adv-x="455" d="M402 0H-12L-5 37L82 58L178 555L100 575L106 612H368L361 575L273 555L177 60H348L389 151H430L402 0Z" />
<glyph unicode="M" glyph-name="M" horiz-adv-x="793" d="M206 0H-10L-3 37L78 58L192 555L120 575L127 612H309L373 131L620 612H814L807 575L719 555L643 58L722 37L715 0H454L461 37L548 58L614 483L361 1L301 -10L233 483L135 58L213 37L206 0Z" />
<glyph unicode="N" glyph-name="N" horiz-adv-x="674" d="M493 612H709L703 575L620 555L513 0L450 -9L214 473L134 58L210 37L203 0H-14L-7 37L74 58L170 555L98 575L104 612H250L483 142L562 555L487 575L493 612Z" />
<glyph unicode="O" glyph-name="O" horiz-adv-x="625" d="M147 -9T94 49T40 213Q40 322 81 416T200 569T386 627Q501 627 554 569T607 410Q607 300 567 204T449 50T263 -9Q147 -9 94 49ZM353 45T404 102T479 242T502 407Q502 486 473 529T374 573Q289 573 238
508T167 360T147 213Q147 132 175 89T273 45Q353 45 404 102Z" />
<glyph unicode="P" glyph-name="P" horiz-adv-x="518" d="M427 612T474 578T522 477Q522 403 486 351T395 273T283 247Q269 247 250 249T216 256L177 58L279 38L272 0H-12L-5 37L83 58L178 552L99 574L106 612H340Q427 612 474 578ZM239 290T271 290Q308 290 343
309T400 370T422 472Q422 518 398 541T330 564Q300 564 274 555L224 297Q239 290 271 290Z" />
<glyph unicode="Q" glyph-name="Q" horiz-adv-x="630" d="M431 -153T407 -144T339 -106L179 -2Q103 45 70 95T36 222Q36 328 77 421T196 570T382 627Q498 627 550 569T602 409Q602 301 562 208T450 60T285 4L289 0Q354 -37 415 -65T494 -94H567L564 -125Q542 -135
511 -144T457 -153Q431 -153 407 -144ZM351 47T403 110T477 257T499 405Q499 573 367 573Q292 573 241 516T166 377T141 218Q141 144 169 96T265 47Q351 47 403 110Z" />
<glyph unicode="R" glyph-name="R" horiz-adv-x="555" d="M346 80Q321 185 311 220T290 265T252 276H221L179 58L256 37L250 0H-12L-5 37L84 58L181 555L100 575L106 612H348Q438 612 480 579T522 488Q522 425 480 370T355 294Q376 286 387 273T405 237T428 150L451
59L520 37L513 0H365L346 80ZM343 320T383 366T423 483Q423 525 402 544T331 564Q304 564 275 556L230 320H281Q343 320 383 366Z" />
<glyph unicode="S" glyph-name="S" horiz-adv-x="473" d="M118 -11T75 -3T-1 20L33 145H73L78 59Q125 44 174 44Q242 44 279 78T317 167Q317 198 302 221T252 259L173 298Q142 311 115 343T88 426Q88 518 147 572T319 627Q393 627 470 599L436 466H396L391 560Q379
565 356 568T313 572Q252 572 216 544T179 461Q179 432 195 413T245 379L321 341Q363 321 387 287T411 207Q411 108 346 49T158 -11Q118 -11 75 -3Z" />
<glyph unicode="T" glyph-name="T" horiz-adv-x="497" d="M76 612H551L517 466H475V555H350L254 58L344 37L337 0H53L60 37L159 58L255 555H130L94 466H55L76 612Z" />
<glyph unicode="U" glyph-name="U" horiz-adv-x="610" d="M497 139T441 65T258 -10Q160 -10 118 33T76 154Q76 202 89 264L145 555L71 575L77 612H330L324 575L241 555L185 264Q172 202 172 159Q172 105 196 75T277 45Q355 45 396 97T455 239L516 555L440 575L446
612H665L658 575L578 555L516 236Q497 139 441 65Z" />
<glyph unicode="V" glyph-name="V" horiz-adv-x="544" d="M417 575L424 612H620L613 575L541 554L259 2L192 -9L114 554L51 575L58 612H278L271 575L210 555L265 125L480 555L417 575Z" />
<glyph unicode="W" glyph-name="W" horiz-adv-x="786" d="M653 575L659 612H857L850 576L778 555L531 2L469 -10L421 413L235 2L171 -10L107 554L43 575L50 612H270L264 575L204 555L245 153L422 556L498 569L540 150L715 555L653 575Z" />
<glyph unicode="X" glyph-name="X" horiz-adv-x="551" d="M-39 0L-33 37L35 57L237 304L136 555L77 575L83 612H307L300 574L239 555L313 372L466 555L405 574L412 612H612L605 575L537 555L335 316L444 56L506 37L500 0H272L279 38L338 56L259 247L106 57L167
37L161 0H-39Z" />
<glyph unicode="Y" glyph-name="Y" horiz-adv-x="525" d="M388 575L395 612H593L586 576L514 554L302 233L268 58L358 37L352 0H68L75 37L173 58L208 237L119 554L59 575L66 612H280L274 575L212 555L282 297L451 555L388 575Z" />
<glyph unicode="Z" glyph-name="Z" horiz-adv-x="500" d="M446 151L408 0H7L-4 33L395 555H183L146 476H105L122 612H523L522 580L123 58H352L405 151H446Z" />
<glyph unicode="[" glyph-name="bracketleft" horiz-adv-x="303" d="M208 -166H5L173 697H376L369 660L249 652L100 -120L215 -128L208 -166Z" />
<glyph unicode="\" glyph-name="backslash" horiz-adv-x="360" d="M79 697L351 -138H282L11 697H79Z" />
<glyph unicode="]" glyph-name="bracketright" horiz-adv-x="303" d="M100 697H302L134 -166H-67L-59 -128L59 -120L209 652L93 660L100 697Z" />
<glyph unicode="^" glyph-name="asciicircum" horiz-adv-x="501" d="M45 251L224 611H279L456 251H381L252 519L120 251H45Z" />
<glyph unicode="_" glyph-name="underscore" horiz-adv-x="449" d="M439 -65H-1L4 -19H445L439 -65Z" />
<glyph unicode="`" glyph-name="grave" horiz-adv-x="255" d="M303 563L84 668L85 687L167 717L321 587L303 563Z" />
<glyph unicode="a" glyph-name="a" horiz-adv-x="523" d="M408 147T404 103T399 55H477V19Q434 4 407 -2T357 -9Q305 -9 305 36Q306 48 308 66T311 92Q280 48 236 20T154 -8Q99 -8 66 26T33 142Q33 253 68 334T168 460T316 504Q345 504 379 497T413 489L438 527L480
518L419 206Q408 147 404 103ZM214 59T254 90T316 154Q317 154 361 379L371 431Q342 451 308 451Q252 451 212 409T152 296T132 144Q132 98 146 79T188 59Q214 59 254 90Z" />
<glyph unicode="b" glyph-name="b" horiz-adv-x="521" d="M152 -8T110 2T39 27L163 658L89 667L83 695Q126 710 171 720T242 730Q252 730 257 724T263 708Q263 698 230 526Q208 412 209 411Q242 454 291 481T379 508Q431 508 460 477T489 370Q489 278 462 192T372
49T207 -8Q152 -8 110 2ZM278 44T316 90T371 207T389 357Q389 403 375 421T333 440Q307 440 265 410T199 346Q198 346 144 71Q153 59 175 52T220 44Q278 44 316 90Z" />
<glyph unicode="c" glyph-name="c" horiz-adv-x="396" d="M323 455T298 455Q244 455 207 413T152 304T134 168Q134 104 153 76T222 48Q261 48 316 67L328 28Q264 -9 182 -9Q113 -9 73 30T32 149Q32 246 62 327T154 458T305 508Q369 508 415 485L389 363H350L340
449Q323 455 298 455Z" />
<glyph unicode="d" glyph-name="d" horiz-adv-x="520" d="M94 -9T64 24T33 134Q33 251 70 335T171 464T315 508Q347 508 387 500L419 658L344 666L338 695Q381 710 427 720T498 730Q508 730 513 725T518 710Q518 691 428 206Q410 112 406 54H484V19Q441 4 414
-2T364 -9Q313 -9 313 36Q314 48 316 66T319 91Q288 48 237 20T143 -9Q94 -9 64 24ZM216 59T259 90T323 154L377 434Q366 444 347 449T304 455Q246 455 208 408T151 289T133 145Q133 98 147 79T190 59Q216 59 259 90Z" />
<glyph unicode="e" glyph-name="e" horiz-adv-x="416" d="M362 508T393 483T424 410Q424 329 350 284T137 238Q130 199 130 163Q130 99 154 74T244 49Q280 49 329 67L338 30Q268 -9 192 -9Q113 -9 73 31T32 159Q32 247 62 327T155 457T313 508Q362 508 393 483ZM236
453T199 408T145 278Q234 278 285 310T336 401Q336 424 325 438T289 453Q236 453 199 408Z" />
<glyph unicode="f" glyph-name="f" horiz-adv-x="302" d="M-58 -172T-89 -162T-139 -143L-130 -102Q-92 -114 -55 -114Q-4 -114 22 -92T59 -6L134 435H54L47 465L147 491L160 558Q170 613 188 650T242 708T339 730Q363 730 393 722T450 701L436 651Q394 663 358
663Q322 663 301 654T268 620T248 551L238 493H341V435H228L151 -13Q138 -91 97 -131T-22 -172Q-58 -172 -89 -162Z" />
<glyph unicode="g" glyph-name="g" horiz-adv-x="505" d="M87 -179T54 -171T-16 -145L0 -98Q57 -119 112 -119Q171 -119 209 -101T270 -39T306 84Q277 49 236 32T154 14Q35 14 35 156Q35 254 67 333T163 460T318 508Q347 508 375 502T417 491L443 526L485 518L387
9Q368 -83 302 -131T130 -179Q87 -179 54 -171ZM225 80T264 102T321 163Q322 164 344 276L375 434Q363 443 345 448T307 453Q245 453 207 406T152 292T136 164Q136 116 150 98T193 80Q225 80 264 102Z" />
<glyph unicode="h" glyph-name="h" horiz-adv-x="554" d="M172 657L97 666L92 694Q134 710 179 720T251 730Q271 730 271 706Q271 698 251 586T215 394Q261 441 323 474T431 508Q491 508 491 446Q491 422 446 217Q415 71 412 54H495V19Q431 -9 383 -9Q317 -9 317
47Q317 65 352 217Q390 383 390 404Q390 434 361 434Q331 434 284 405T204 336L148 6L41 -9L172 657Z" />
<glyph unicode="i" glyph-name="i" horiz-adv-x="295" d="M240 708T259 689T278 645Q278 620 260 602T215 583Q189 583 170 601T151 645Q151 670 170 689T215 708Q240 708 259 689ZM237 479T190 248L150 54H232V19Q156 -9 107 -9Q80 -9 67 2T54 37Q54 49 71 131T95
246Q126 389 135 435L62 443L56 473Q101 488 148 498T217 508Q237 508 237 486Q237 479 190 248Z" />
<glyph unicode="j" glyph-name="j" horiz-adv-x="281" d="M192 583T173 601T154 644Q154 670 173 689T217 708Q243 708 262 689T281 644Q281 619 262 601T217 583Q192 583 173 601ZM-51 -172T-76 -166T-117 -152T-136 -142L-126 -100Q-88 -112 -51 -112Q-5 -112
23 -88T61 -5L140 436L67 443L61 473Q100 487 150 497T222 508Q243 508 243 485Q234 431 209 287T155 -14Q141 -89 97 -130T-22 -172Q-51 -172 -76 -166Z" />
<glyph unicode="k" glyph-name="k" horiz-adv-x="507" d="M41 -9L172 657L97 666L91 695Q135 710 180 720T250 730Q271 730 271 707Q271 689 241 534L216 395Q233 418 270 444T350 489T432 508Q463 508 480 491T498 441Q498 381 453 331T312 252L387 54H462V19Q381
-9 333 -9Q312 -9 287 49T242 177T221 251L227 265Q309 286 356 326T404 408Q404 424 397 430T371 437Q338 437 287 406T205 337L148 6L41 -9Z" />
<glyph unicode="l" glyph-name="l" horiz-adv-x="296" d="M53 -9T53 39Q53 52 97 284Q110 352 167 655L92 665L85 693Q127 709 175 719T249 730Q270 730 270 707Q270 695 268 686L152 55H238V20Q154 -9 106 -9Q53 -9 53 39Z" />
<glyph unicode="m" glyph-name="m" horiz-adv-x="799" d="M141 433L67 441L61 470Q103 485 149 495T220 506Q230 506 234 499T239 481Q239 472 235 443T226 394Q267 439 328 473T434 508Q487 508 487 446Q487 428 481 399Q522 443 581 475T683 508Q713 508 724
494T736 445Q736 408 663 78L658 54H741V19Q677 -9 631 -9Q599 -9 581 3T563 48Q563 65 598 215Q603 239 619 312T636 402Q636 420 632 427T615 434Q588 434 544 405T470 340L410 6L303 -9L342 180Q385 386 385 400Q385 420 381 427T364 434Q336 434 292 404T216
336L160 6L53 -9L141 433Z" />
<glyph unicode="n" glyph-name="n" horiz-adv-x="566" d="M275 445T337 477T441 509Q503 509 503 445Q503 424 480 312T432 93L423 53H507V19Q444 -9 395 -9Q363 -9 346 4T329 47Q329 61 344 129T363 214Q402 384 402 405Q402 435 373 435Q343 435 296 406T216
336L159 5L52 -9L139 434L65 442L60 471Q104 486 149 496T220 507Q230 507 236 500T242 482Q242 466 227 395Q275 445 337 477Z" />
<glyph unicode="o" glyph-name="o" horiz-adv-x="499" d="M392 508T429 469T467 357Q467 244 431 161T331 35T182 -9Q32 -9 32 143Q32 256 68 338T168 464T316 508Q392 508 429 469ZM261 45T297 93T350 212T367 358Q367 404 351 428T296 453Q238 453 201 404T148
283T132 139Q132 93 148 69T204 45Q261 45 297 93Z" />
<glyph unicode="p" glyph-name="p" horiz-adv-x="541" d="M134 437L60 444L53 473Q96 488 142 498T213 509Q223 509 228 503T234 485Q234 471 229 444T222 405Q261 451 307 480T397 509Q504 509 504 371Q504 269 476 185T385 49T228 -3Q183 -3 153 6L128 -167L21
-182L134 437ZM301 49T338 101T390 222T404 356Q404 442 350 442Q323 442 280 411T212 346L164 72Q176 62 196 56T235 49Q301 49 338 101Z" />
<glyph unicode="q" glyph-name="q" horiz-adv-x="504" d="M471 424T433 225T377 -66L366 -167L261 -183L313 84Q278 40 231 16T141 -9Q91 -9 62 21T32 128Q32 248 66 333T164 463T312 508Q369 508 420 491L448 524L489 516Q471 424 433 225ZM332 183T347 264T379
430Q372 440 351 448T306 456Q244 456 206 407T151 286T134 139Q134 95 147 77T189 59Q221 59 262 88T325 153Q332 183 347 264Z" />
<glyph unicode="r" glyph-name="r" horiz-adv-x="397" d="M141 434L67 442L61 471Q102 486 149 496T221 507Q231 507 236 501T242 484Q242 473 231 416L219 349Q262 436 310 475T436 514L406 356H360L349 432Q316 421 278 373T197 229L161 6L53 -9L141 434Z" />
<glyph unicode="s" glyph-name="s" horiz-adv-x="400" d="M198 453T172 432T146 377Q146 353 158 339T199 312L274 277Q352 241 352 164Q352 83 298 37T145 -9Q108 -9 70 -2T4 20L37 146H73L80 59Q111 45 159 45Q210 45 238 66T266 131Q266 152 254 167T212 196L135
231Q102 246 83 274T63 344Q63 417 116 462T259 508Q291 508 325 501T388 479L355 364H320L311 440Q301 446 282 449T245 453Q198 453 172 432Z" />
<glyph unicode="t" glyph-name="t" horiz-adv-x="332" d="M161 51H262V16Q219 3 178 -4T113 -12Q87 -12 76 -1T64 31Q64 59 124 350L140 431H56L50 462L154 491L225 597H265L246 490H349V431H235L161 51Z" />
<glyph unicode="u" glyph-name="u" horiz-adv-x="565" d="M68 -9T68 71Q68 99 78 152T110 302Q133 408 138 436L64 444L59 473Q103 488 149 498T220 508Q231 508 237 502T243 485Q243 478 230 420T212 336Q195 260 180 187T164 99Q164 61 197 61Q232 61 277 89T356
173L414 493L514 509L451 203Q439 144 435 101T430 54H508V19Q461 4 433 -2T385 -9Q359 -9 348 1T337 33Q338 45 340 64T344 91Q303 43 248 17T141 -9Q68 -9 68 71Z" />
<glyph unicode="v" glyph-name="v" horiz-adv-x="450" d="M96 61T96 170Q96 247 93 305T86 395T81 434L6 442L0 472Q45 487 93 497T168 508Q176 508 182 403T189 174Q189 105 188 75Q280 151 320 241T361 405Q361 424 357 436L301 443L294 473Q393 506 438 509Q442
492 442 468Q442 365 401 272T301 111T185 6L89 -10Q96 61 96 170Z" />
<glyph unicode="w" glyph-name="w" horiz-adv-x="709" d="M92 23T94 69T96 153Q96 233 93 295T86 392T81 434L6 442L0 472Q106 508 164 508Q172 508 180 411T188 201Q188 132 185 76Q265 143 307 222T349 367Q349 391 343 425T326 491L424 508Q434 477 442 393T451
207Q451 168 449 104L448 75Q531 140 575 232T620 405Q620 421 617 436L561 443L555 473Q652 506 697 509Q702 487 702 468Q702 370 664 279T568 118T446 6L353 -10Q362 61 362 165Q362 202 361 216Q349 179 313 134T240 54T187 6L88 -10Q92 23 94 69Z" />
<glyph unicode="x" glyph-name="x" horiz-adv-x="431" d="M-23 24L167 233L123 421Q121 429 119 432T112 437L33 445L27 474Q69 488 117 498T187 509Q195 509 203 481T229 375L243 315L396 517L450 470L256 255L308 55H399V20Q359 4 335 -2T282 -8Q254 -8 240
3T213 51T181 172L34 -26L-23 24Z" />
<glyph unicode="y" glyph-name="y" horiz-adv-x="455" d="M115 -14L117 70Q118 164 107 269T72 434L-3 443L-10 473Q35 489 80 499T152 509Q162 509 175 448T198 297T208 123Q208 94 207 80Q297 164 333 249T370 407Q370 427 366 436L310 443L303 473Q404 507
447 509Q452 487 452 465Q452 367 413 276T318 116T205 3L167 -167L66 -183L115 -14Z" />
<glyph unicode="z" glyph-name="z" horiz-adv-x="390" d="M240 -48T217 -38T160 -7Q128 11 109 20T68 29Q54 29 41 21T21 4T11 -8L-24 14L289 413H65L55 497H337L387 513L418 481L109 95Q142 95 166 86T225 59Q254 43 273 36T317 28Q342 28 362 36L373 -4Q344
-25 319 -36T266 -48Q240 -48 217 -38Z" />
<glyph unicode="{" glyph-name="braceleft" horiz-adv-x="303" d="M183 675L356 712L360 681L262 644L217 291L116 259L205 228L113 -125L197 -162L180 -192L21 -157L116 217L51 252L54 267L132 303L183 675Z" />
<glyph unicode="|" glyph-name="bar" horiz-adv-x="372" d="M228 697V-138H143V697H228Z" />
<glyph unicode="}" glyph-name="braceright" horiz-adv-x="303" d="M-46 -192L-51 -162L46 -125L92 228L193 259L104 291L196 644L112 681L129 712L285 675L192 303L257 267L254 252L176 217L124 -157L-46 -192Z" />
<glyph unicode="~" glyph-name="asciitilde" horiz-adv-x="520" d="M146 273T128 261T91 220L56 242Q103 337 171 337Q191 337 212 330T261 310Q291 297 309 291T346 285Q372 285 389 296T425 338L463 316Q409 220 342 220Q323 220 303 227T255 247Q224 260 205
266T167 273Q146 273 128 261Z" />
<glyph unicode="&#xa0;" glyph-name="uni00A0" horiz-adv-x="176" />
<glyph unicode="&#xa1;" glyph-name="exclamdown" horiz-adv-x="245" d="M135 384T117 401T98 443Q98 468 116 486T160 504Q185 504 202 487T219 443Q219 418 202 401T160 384Q135 384 117 401ZM-6 -120L107 305H162L110 -120H-6Z" />
<glyph unicode="&#xa2;" glyph-name="cent" horiz-adv-x="505" d="M128 43T93 88T57 212Q57 308 87 387T174 516T311 573L334 695H387L364 574Q395 573 427 566T482 545L450 411H407L400 506Q367 518 327 518Q267 518 229 473T174 358T156 214Q156 155 179 124T258
92Q294 92 330 98T395 115L398 78Q363 57 324 45T249 31L226 -89H173L196 33Q128 43 93 88Z" />
<glyph unicode="&#xa3;" glyph-name="sterling" horiz-adv-x="497" d="M190 130T161 101T97 54L360 64L416 112L434 97L387 0H-4L-9 43Q-9 41 20 58T75 101T107 160L127 263H30L47 312H135Q156 422 182 487T249 586T357 620Q433 620 496 592L463 463H420L416 555Q389
564 362 564Q322 564 298 538T260 467T232 350L225 312H409L392 263H215L196 159Q190 130 161 101Z" />
<glyph unicode="&#xa4;" glyph-name="currency" horiz-adv-x="553" d="M113 131Q95 166 95 209Q95 251 112 291T159 366L116 419L175 468L217 414Q277 452 341 452Q373 452 401 442T451 414L514 467L553 419L490 366Q508 325 508 285Q508 245 491 204T444 131L487
80L430 30L387 83Q330 47 263 47Q197 47 153 83L87 29L50 79L113 131ZM166 236T166 222Q166 176 197 146T276 115Q316 115 354 137T415 195T439 273Q439 321 408 352T328 383Q272 383 226 344T169 248Q166 236 166 222Z" />
<glyph unicode="&#xa5;" glyph-name="yen" horiz-adv-x="497" d="M55 331L63 376H160L113 553L55 575L63 612H278L270 575L211 553L269 306L419 553L361 575L368 612H560L552 575L481 553L370 376H466L458 331H342L303 269H446L438 224H280L250 59L336 37L329
0H62L68 37L162 59L192 224H35L44 269H188L171 331H55Z" />
<glyph unicode="&#xa6;" glyph-name="brokenbar" horiz-adv-x="381" d="M228 697V374H143V697H228ZM228 184V-138H143V184H228Z" />
<glyph unicode="&#xa7;" glyph-name="section" horiz-adv-x="400" d="M331 581T313 583T278 586Q183 586 183 519Q183 496 203 470T265 402Q310 356 332 327T355 270Q355 240 338 214Q293 265 254 306T205 358Q145 420 126 446T107 501Q107 567 159 603T284 639Q319
639 349 633T397 621T420 613L382 497H343L340 578Q331 581 313 583ZM73 53Q109 42 142 42Q183 42 215 61T247 118Q247 139 228 162T166 229Q120 273 96 303T72 363Q72 377 76 391T89 415Q137 360 178 317T231 262Q289 202 307 178T325 129Q325 89 300 58T233 9T143
-9Q73 -9 36 1T-3 12L33 136H68L73 53Z" />
<glyph unicode="&#xa8;" glyph-name="dieresis" horiz-adv-x="255" d="M164 619T146 602T102 584Q77 584 58 601T39 644Q39 669 58 687T102 706Q127 706 145 688T164 644Q164 619 146 602ZM370 619T351 602T307 584Q282 584 263 601T244 644Q244 669 263 687T307
706Q332 706 351 688T370 644Q370 619 351 602Z" />
<glyph unicode="&#xa9;" glyph-name="copyright" horiz-adv-x="503" d="M9 519T41 575T130 664T252 697Q317 697 373 664T462 575T495 453Q495 388 462 332T373 242T252 209Q186 209 131 242T42 331T9 453Q9 519 41 575ZM43 395T71 347T147 270T252 242Q310 242
358 270T434 346T462 453Q462 511 434 559T358 635T252 664Q195 664 147 636T71 559T43 453Q43 395 71 347ZM326 304T305 300T255 295Q178 295 145 336T111 454Q111 527 146 570T255 614Q296 614 348 599L342 530H316L304 577Q280 583 263 583Q214 583 196 550T177
454Q177 396 195 361T261 325Q278 325 304 331L317 373H344L348 314Q326 304 305 300Z" />
<glyph unicode="&#xaa;" glyph-name="ordfeminine" horiz-adv-x="445" d="M346 390T343 361T338 323H393V291Q330 269 301 269Q277 269 268 278T258 305Q258 313 259 322T261 335Q238 305 207 287T149 269Q107 269 81 295T54 383Q54 463 80 524T156 618T270 652Q292
652 313 648T341 642L359 665L397 657L353 427Q346 390 343 361ZM195 326T224 348T268 396Q272 417 282 476T305 596Q285 609 264 609Q222 609 194 576T152 493T138 390Q138 353 147 340T177 326Q195 326 224 348Z" />
<glyph unicode="&#xab;" glyph-name="guillemotleft" horiz-adv-x="409" d="M35 245L206 424L241 397L131 245L182 94L137 68L35 245ZM299 68L197 245L368 424L403 397L293 245L344 94L299 68Z" />
<glyph unicode="&#xac;" glyph-name="logicalnot" horiz-adv-x="529" d="M404 131V276H68V337H461V131H404Z" />
<glyph unicode="&#xad;" glyph-name="uni00AD" horiz-adv-x="290" d="M278 209H13V262H278V209Z" />
<glyph unicode="&#xae;" glyph-name="registered" horiz-adv-x="503" d="M186 209T131 242T42 331T9 453Q9 519 41 575T130 664T252 697Q317 697 373 664T462 575T495 453Q495 388 462 332T373 242T252 209Q186 209 131 242ZM310 242T358 270T434 346T462 453Q462
511 434 559T358 635T252 664Q195 664 147 636T70 559T42 453Q42 395 70 347T146 270T252 242Q310 242 358 270ZM127 324L161 332V583L127 590V611H254Q306 611 331 589T357 537Q357 509 342 485T289 451Q301 447 308 437T332 394Q339 383 365 332L395 324V305H313Q280
379 267 404T246 436T223 443H217V332L251 324V305H127V324ZM240 465Q267 465 281 483T296 530Q296 556 281 570T235 585H217V465H240Z" />
<glyph unicode="&#xaf;" glyph-name="overscore" horiz-adv-x="255" d="M92 650H316L307 590H83L92 650Z" />
<glyph unicode="&#xb0;" glyph-name="degree" horiz-adv-x="450" d="M383 515T362 479T304 422T225 401Q182 401 146 422T89 479T67 558Q67 600 88 636T146 693T225 715Q268 715 304 694T361 636T383 558Q383 515 362 479ZM177 676T150 643T122 558Q122 507 149
474T225 440Q272 440 300 473T328 558Q328 608 300 642T225 676Q177 676 150 643Z" />
<glyph unicode="&#xb1;" glyph-name="plusminus" horiz-adv-x="518" d="M228 110V275H63V336H228V502H288V336H456V275H288V110H228ZM63 21V81H456V21H63Z" />
<glyph unicode="&#xb2;" glyph-name="uni00B2" horiz-adv-x="405" d="M196 666T170 660T112 640L98 680Q130 697 171 708T250 719Q308 719 340 697T373 629Q373 579 339 533T236 433L105 331L268 334L306 390L344 387L315 279H17L15 319L190 465Q235 502 260 538T285
614Q285 666 223 666Q196 666 170 660Z" />
<glyph unicode="&#xb3;" glyph-name="uni00B3" horiz-adv-x="405" d="M310 716T339 697T369 640Q369 597 339 564T264 511Q304 502 325 478T347 419Q347 345 293 308T152 270Q79 270 29 290L46 335Q94 317 142 317Q192 317 226 342T260 419Q260 457 230 469T148
481L150 519Q214 525 247 555T281 623Q281 643 267 654T225 666Q183 666 123 638L112 676Q145 693 185 704T262 716Q310 716 339 697Z" />
<glyph unicode="&#xb4;" glyph-name="acute" horiz-adv-x="255" d="M101 563L82 587L237 717L320 687V668L101 563Z" />
<glyph unicode="&#xb5;" glyph-name="uni00B5" horiz-adv-x="542" d="M129 437L58 444L52 473Q94 488 139 498T209 508Q229 508 229 485Q229 478 210 393Q160 174 160 130Q160 94 170 80T202 65Q257 65 295 138T353 316L382 493L485 509L418 173Q414 155 412 139T406
108L396 54H476V19Q395 -8 350 -8Q304 -8 304 38Q304 53 314 98Q285 44 252 18T177 -9Q159 -9 144 1T123 32L119 31Q123 13 121 -11L106 -164L7 -180L129 437Z" />
<glyph unicode="&#xb6;" glyph-name="paragraph" horiz-adv-x="529" d="M140 210T98 253T55 366Q55 432 86 490T174 582T300 617Q318 617 326 615L249 212Q241 210 220 210Q140 210 98 253ZM140 0L148 37L259 59L366 612H548L541 575L447 553L351 58L437 36L430 0H140Z" />
<glyph unicode="&#xb7;" glyph-name="middot" horiz-adv-x="236" d="M186 228T168 210T121 191Q95 191 77 209T58 254Q58 281 76 299T121 318Q149 318 167 300T186 254Q186 228 168 210Z" />
<glyph unicode="&#xb8;" glyph-name="cedilla" horiz-adv-x="255" d="M-31 -219T-55 -210L-41 -180Q-24 -187 -4 -187Q29 -187 52 -168T76 -120Q76 -103 62 -92T14 -80L12 -68L52 7H88L60 -45Q106 -45 128 -61T151 -104Q151 -136 130 -162T75 -204T6 -219Q-31
-219 -55 -210Z" />
<glyph unicode="&#xb9;" glyph-name="uni00B9" horiz-adv-x="405" d="M99 646L105 679L306 709L222 278H141L212 646H99Z" />
<glyph unicode="&#xba;" glyph-name="ordmasculine" horiz-adv-x="424" d="M382 654T382 539Q382 455 355 394T280 301T167 269Q50 269 50 383Q50 467 77 528T153 621T265 654Q382 654 382 539ZM219 314T246 348T287 433T300 538Q300 572 290 590T254 608Q212
608 185 573T146 486T133 383Q133 349 142 332T178 314Q219 314 246 348Z" />
<glyph unicode="&#xbb;" glyph-name="guillemotright" horiz-adv-x="409" d="M40 68L5 95L116 246L64 398L110 424L212 246L40 68ZM202 68L168 95L277 246L227 398L272 424L373 246L202 68Z" />
<glyph unicode="&#xbc;" glyph-name="onequarter" horiz-adv-x="896" d="M265 -20L472 622H540L332 -20H265ZM100 172L172 542H59L64 574L266 603L182 172H100ZM652 0L670 91H469L463 126L753 436L815 430L759 141H818L808 91H749L731 0H652ZM545 141H680L717
328L545 141Z" />
<glyph unicode="&#xbd;" glyph-name="onehalf" horiz-adv-x="896" d="M261 -20L469 622H536L328 -20H261ZM113 172L185 542H72L77 574L279 603L195 172H113ZM474 40L648 185Q695 224 720 260T746 335Q746 360 731 373T684 387Q657 387 632 381T574 361L559 402Q592
418 632 429T711 440Q769 440 801 418T834 350Q834 301 799 254T695 153L565 52L734 55L772 110L810 108L781 0H476L474 40Z" />
<glyph unicode="&#xbe;" glyph-name="threequarters" horiz-adv-x="896" d="M325 -20L533 622H600L392 -20H325ZM80 163T23 184L41 229Q86 212 137 212Q187 212 220 237T254 313Q254 351 223 363T142 376L145 414Q208 420 241 449T275 517Q275 559 219 559Q175
559 117 532L107 571Q139 588 179 599T256 610Q304 610 334 591T364 535Q364 492 334 458T259 405Q299 397 320 373T341 314Q341 240 287 202T146 163Q80 163 23 184ZM696 0L714 91H512L507 126L797 436L859 430L803 141H862L852 91H793L775 0H696ZM588 141H724L761
328L588 141Z" />
<glyph unicode="&#xbf;" glyph-name="questiondown" horiz-adv-x="373" d="M261 387T244 404T226 447Q226 472 243 488T286 505Q311 505 328 489T345 447Q345 422 328 405T286 387Q261 387 244 404ZM76 -134T35 -100T-7 -8Q-7 41 28 86T153 197Q199 229 220 249T242
284Q242 297 231 301T211 305L218 333Q221 334 230 335T250 336Q282 336 298 324T315 284Q315 263 290 235T211 164Q147 112 120 72T92 3Q92 -77 175 -77Q197 -77 222 -72T265 -61T288 -53L302 -91Q278 -106 231 -120T142 -134Q76 -134 35 -100Z" />
<glyph unicode="&#xc0;" glyph-name="Agrave" horiz-adv-x="579" d="M443 646L223 751L224 770L307 800L461 670L443 646ZM-39 0L-32 38L39 54L323 615L383 626L466 57L528 38L521 0H299L305 39L368 53L348 203H176L102 53L165 39L156 0H-39ZM200 250H341L311
470L200 250Z" />
<glyph unicode="&#xc1;" glyph-name="Aacute" horiz-adv-x="579" d="M280 646L260 670L415 800L498 770V751L280 646ZM-39 0L-32 38L39 54L323 615L383 626L466 57L528 38L521 0H299L305 39L368 53L348 203H176L102 53L165 39L156 0H-39ZM200 250H341L311 470L200 250Z" />
<glyph unicode="&#xc2;" glyph-name="Acircumflex" horiz-adv-x="579" d="M476 647L379 725L241 647L220 669L356 801H424L503 668L476 647ZM348 203H176L102 53L165 39L156 0H-39L-32 38L39 54L323 615L383 626L466 57L528 38L521 0H299L305 39L368 53L348 203ZM200
250H341L311 470L200 250Z" />
<glyph unicode="&#xc3;" glyph-name="Atilde" horiz-adv-x="579" d="M513 716T495 691T454 665Q430 665 369 686Q311 704 295 704Q285 704 275 697T259 681T251 670L216 684Q254 782 296 782Q316 782 376 762Q384 760 412 752T455 743Q465 743 474 750T490 766T497
777L532 763Q513 716 495 691ZM348 203H176L102 53L165 39L156 0H-39L-32 38L39 54L323 615L383 626L466 57L528 38L521 0H299L305 39L368 53L348 203ZM200 250H341L311 470L200 250Z" />
<glyph unicode="&#xc4;" glyph-name="Adieresis" horiz-adv-x="579" d="M247 664T228 681T209 724Q209 750 228 768T272 786Q297 786 315 768T334 724Q334 699 316 682T272 664Q247 664 228 681ZM452 664T433 681T414 724Q414 750 433 768T477 786Q502 786 521
768T540 724Q540 699 521 682T477 664Q452 664 433 681ZM-39 0L-32 38L39 54L323 615L383 626L466 57L528 38L521 0H299L305 39L368 53L348 203H176L102 53L165 39L156 0H-39ZM200 250H341L311 470L200 250Z" />
<glyph unicode="&#xc5;" glyph-name="Aring" horiz-adv-x="579" d="M321 636T299 655T276 706Q276 755 308 787T398 820Q440 820 462 800T484 746Q484 699 451 668T364 636Q321 636 299 655ZM400 674T412 694T425 744Q425 781 389 781Q360 781 348 761T335 710Q335
692 343 683T371 674Q400 674 412 694ZM-39 0L-32 38L39 54L323 615L383 626L466 57L528 38L521 0H299L305 39L368 53L348 203H176L102 53L165 39L156 0H-39ZM200 250H341L311 470L200 250Z" />
<glyph unicode="&#xc6;" glyph-name="AE" horiz-adv-x="705" d="M417 311H525L558 377H596L560 193H523L513 262H411L385 60H552L594 151H635L606 0H192L198 37L289 58L315 262H180L29 53L93 39L84 0H-113L-107 38L-35 54L329 561L271 575L277 612H678L652 476H610L608
555H450L417 311ZM321 311L344 490L215 311H321Z" />
<glyph unicode="&#xc7;" glyph-name="Ccedilla" horiz-adv-x="522" d="M384 7T345 0T255 -9L236 -45Q282 -45 304 -61T327 -104Q327 -136 306 -162T251 -204T182 -219Q144 -219 120 -210L135 -180Q152 -187 172 -187Q205 -187 228 -168T252 -120Q252 -103 238
-92T190 -80L188 -68L219 -8Q119 -1 73 56T26 212Q26 322 67 417T188 569T374 627Q470 627 540 600L503 462H464L463 561Q424 573 368 573Q289 573 236 521T158 386T133 214Q133 130 166 88T275 45Q320 45 363 59L402 144H443L427 22Q384 7 345 0Z" />
<glyph unicode="&#xc8;" glyph-name="Egrave" horiz-adv-x="538" d="M279 719L211 764L266 790L403 708L437 656L279 719ZM396 393H435L399 209H361L352 278H228L186 60H380L422 151H464L435 0H-7L0 37L90 58L187 555L104 575L111 612H531L506 476H463L462 555H282L238
327H364L396 393Z" />
<glyph unicode="&#xc9;" glyph-name="Eacute" horiz-adv-x="538" d="M274 646L255 670L409 800L492 770V751L274 646ZM396 393H435L399 209H361L352 278H228L186 60H380L422 151H464L435 0H-7L0 37L90 58L187 555L104 575L111 612H531L506 476H463L462 555H282L238
327H364L396 393Z" />
<glyph unicode="&#xca;" glyph-name="Ecircumflex" horiz-adv-x="538" d="M452 647L354 727L217 647L196 669L332 801H399L479 668L452 647ZM396 393H435L399 209H361L352 278H228L186 60H380L422 151H464L435 0H-7L0 37L90 58L187 555L104 575L111 612H531L506
476H463L462 555H282L238 327H364L396 393Z" />
<glyph unicode="&#xcb;" glyph-name="Edieresis" horiz-adv-x="538" d="M303 699T285 682T241 664Q216 664 197 681T178 724Q178 750 197 768T241 786Q266 786 284 768T303 724Q303 699 285 682ZM509 699T490 682T446 664Q421 664 403 681T384 724Q384 750 402
768T446 786Q471 786 490 768T509 724Q509 699 490 682ZM396 393H435L399 209H361L352 278H228L186 60H380L422 151H464L435 0H-7L0 37L90 58L187 555L104 575L111 612H531L506 476H463L462 555H282L238 327H364L396 393Z" />
<glyph unicode="&#xcc;" glyph-name="Igrave" horiz-adv-x="353" d="M351 646L132 751L133 770L215 800L369 670L351 646ZM-7 0L-1 37L86 58L183 555L104 575L111 612H372L365 575L278 555L181 58L260 37L254 0H-7Z" />
<glyph unicode="&#xcd;" glyph-name="Iacute" horiz-adv-x="353" d="M163 646L144 670L299 800L381 770V751L163 646ZM-7 0L-1 37L86 58L183 555L104 575L111 612H372L365 575L278 555L181 58L260 37L254 0H-7Z" />
<glyph unicode="&#xce;" glyph-name="Icircumflex" horiz-adv-x="353" d="M131 647L110 669L246 801H313L393 668L366 647L268 727L131 647ZM-7 0L-1 37L86 58L183 555L104 575L111 612H372L365 575L278 555L181 58L260 37L254 0H-7Z" />
<glyph unicode="&#xcf;" glyph-name="Idieresis" horiz-adv-x="353" d="M131 664T112 681T93 724Q93 750 112 768T157 786Q182 786 200 768T219 724Q219 699 201 682T157 664Q131 664 112 681ZM336 664T318 681T299 724Q299 750 317 768T362 786Q387 786 405 768T424
724Q424 699 406 682T362 664Q336 664 318 681ZM-7 0L-1 37L86 58L183 555L104 575L111 612H372L365 575L278 555L181 58L260 37L254 0H-7Z" />
<glyph unicode="&#xd0;" glyph-name="Eth" horiz-adv-x="629" d="M-3 37L83 58L126 276H50L60 325H135L180 555L101 575L108 612H366Q485 612 543 557T601 402Q601 298 561 206T443 57T258 0H-10L-3 37ZM343 47T395 101T471 237T495 402Q495 482 460 521T350 561Q305
561 275 555L230 325H334L324 276H220L179 62Q195 55 218 51T264 47Q343 47 395 101Z" />
<glyph unicode="&#xd1;" glyph-name="Ntilde" horiz-adv-x="695" d="M576 717T558 692T517 666Q493 666 432 687Q374 705 358 705Q348 705 338 697T322 681T314 670L279 684Q297 730 316 756T358 783Q381 783 440 762Q447 760 474 752T517 743Q528 743 537 750T553
766T560 777L595 763Q576 717 558 692ZM500 612H716L710 575L627 555L520 0L457 -9L221 473L141 58L217 37L210 0H-7L0 37L81 58L177 555L105 575L111 612H257L490 142L569 555L494 575L500 612Z" />
<glyph unicode="&#xd2;" glyph-name="Ograve" horiz-adv-x="625" d="M485 646L266 751L267 770L349 800L503 670L485 646ZM147 -9T94 49T40 213Q40 322 81 416T200 569T386 627Q501 627 554 569T607 410Q607 300 567 204T449 50T263 -9Q147 -9 94 49ZM353 45T404
102T479 242T502 407Q502 486 473 529T374 573Q289 573 238 508T167 360T147 213Q147 132 175 89T273 45Q353 45 404 102Z" />
<glyph unicode="&#xd3;" glyph-name="Oacute" horiz-adv-x="625" d="M147 -9T94 49T40 213Q40 322 81 416T200 569T386 627Q501 627 554 569T607 410Q607 300 567 204T449 50T263 -9Q147 -9 94 49ZM353 45T404 102T479 242T502 407Q502 486 473 529T374 573Q289
573 238 508T167 360T147 213Q147 132 175 89T273 45Q353 45 404 102ZM352 646L333 670L488 800L571 770V751L352 646Z" />
<glyph unicode="&#xd4;" glyph-name="Ocircumflex" horiz-adv-x="625" d="M267 647L246 669L381 801H449L529 668L501 647L403 727L267 647ZM147 -9T94 49T40 213Q40 322 81 416T200 569T386 627Q501 627 554 569T607 410Q607 300 567 204T449 50T263 -9Q147 -9
94 49ZM353 45T404 102T479 242T502 407Q502 486 473 529T374 573Q289 573 238 508T167 360T147 213Q147 132 175 89T273 45Q353 45 404 102Z" />
<glyph unicode="&#xd5;" glyph-name="Otilde" horiz-adv-x="625" d="M469 666T405 686Q350 705 329 705Q319 705 310 697T294 681T286 670L251 684Q288 783 330 783Q351 783 411 763Q434 755 455 749T489 743Q499 743 508 750T524 766T531 777L566 763Q547 716
529 691T488 666Q469 666 405 686ZM147 -9T94 49T40 213Q40 322 81 416T200 569T386 627Q501 627 554 569T607 410Q607 300 567 204T449 50T263 -9Q147 -9 94 49ZM353 45T404 102T479 242T502 407Q502 486 473 529T374 573Q289 573 238 508T167 360T147 213Q147
132 175 89T273 45Q353 45 404 102Z" />
<glyph unicode="&#xd6;" glyph-name="Odieresis" horiz-adv-x="625" d="M276 664T257 681T238 724Q238 750 257 768T301 786Q326 786 344 768T363 724Q363 699 345 682T301 664Q276 664 257 681ZM481 664T462 681T443 724Q443 750 462 768T506 786Q531 786 550
768T569 724Q569 699 550 682T506 664Q481 664 462 681ZM147 -9T94 49T40 213Q40 322 81 416T200 569T386 627Q501 627 554 569T607 410Q607 300 567 204T449 50T263 -9Q147 -9 94 49ZM353 45T404 102T479 242T502 407Q502 486 473 529T374 573Q289 573 238 508T167
360T147 213Q147 132 175 89T273 45Q353 45 404 102Z" />
<glyph unicode="&#xd7;" glyph-name="multiply" horiz-adv-x="518" d="M123 133L80 177L212 308L80 440L124 483L255 352L385 482L429 439L297 308L429 178L387 134L255 265L123 133Z" />
<glyph unicode="&#xd8;" glyph-name="Oslash" horiz-adv-x="625" d="M188 -1Q40 33 40 213Q40 322 81 416T200 569T386 627H391L418 708H482L453 620Q533 603 570 548T607 410Q607 300 567 204T449 50T263 -9H249L222 -95H158L188 -1ZM374 573Q302 573 251 519T173
382T147 213Q147 92 208 59L374 573ZM342 45T395 95T475 228T502 407Q502 530 433 560L266 45Q342 45 395 95Z" />
<glyph unicode="&#xd9;" glyph-name="Ugrave" horiz-adv-x="648" d="M500 646L280 751L282 770L364 800L518 670L500 646ZM513 139T457 65T275 -10Q177 -10 135 33T92 154Q92 202 105 264L162 555L87 575L93 612H347L341 575L257 555L201 264Q188 193 188 159Q188
105 212 75T293 45Q371 45 412 97T472 239L533 555L456 575L463 612H682L675 575L594 555L532 236Q513 139 457 65Z" />
<glyph unicode="&#xda;" glyph-name="Uacute" horiz-adv-x="648" d="M334 646L315 670L469 800L552 770V751L334 646ZM513 139T457 65T275 -10Q177 -10 135 33T92 154Q92 202 105 264L162 555L87 575L93 612H347L341 575L257 555L201 264Q188 193 188 159Q188
105 212 75T293 45Q371 45 412 97T472 239L533 555L456 575L463 612H682L675 575L594 555L532 236Q513 139 457 65Z" />
<glyph unicode="&#xdb;" glyph-name="Ucircumflex" horiz-adv-x="648" d="M516 647L418 727L281 647L260 669L396 801H463L543 668L516 647ZM513 139T457 65T275 -10Q177 -10 135 33T92 154Q92 202 105 264L162 555L87 575L93 612H347L341 575L257 555L201 264Q188
193 188 159Q188 105 212 75T293 45Q371 45 412 97T472 239L533 555L456 575L463 612H682L675 575L594 555L532 236Q513 139 457 65Z" />
<glyph unicode="&#xdc;" glyph-name="Udieresis" horiz-adv-x="648" d="M378 699T360 682T316 664Q291 664 272 681T253 724Q253 750 272 768T316 786Q341 786 359 768T378 724Q378 699 360 682ZM584 699T565 682T521 664Q496 664 478 681T459 724Q459 750 477
768T521 786Q546 786 565 768T584 724Q584 699 565 682ZM513 139T457 65T275 -10Q177 -10 135 33T92 154Q92 202 105 264L162 555L87 575L93 612H347L341 575L257 555L201 264Q188 193 188 159Q188 105 212 75T293 45Q371 45 412 97T472 239L533 555L456 575L463
612H682L675 575L594 555L532 236Q513 139 457 65Z" />
<glyph unicode="&#xdd;" glyph-name="Yacute" horiz-adv-x="537" d="M279 646L260 670L415 800L497 770V751L279 646ZM396 575L403 612H601L594 576L522 554L310 233L276 58L366 37L360 0H76L83 37L181 58L216 237L127 554L67 575L74 612H288L282 575L220 555L290
297L459 555L396 575Z" />
<glyph unicode="&#xde;" glyph-name="Thorn" horiz-adv-x="482" d="M-5 37L82 58L178 555L100 575L106 612H368L361 575L273 555L258 477H307Q475 477 475 352Q475 283 441 235T355 162T249 138Q218 138 193 142L177 58L256 37L249 0H-12L-5 37ZM298 180T338 220T378
344Q378 431 292 431Q265 431 249 426L201 183Q214 180 238 180Q298 180 338 220Z" />
<glyph unicode="&#xdf;" glyph-name="germandbls" horiz-adv-x="623" d="M363 -9T328 -3T268 12L305 132H339V53Q379 45 400 45Q444 45 470 63T496 114Q496 145 477 165T418 213Q387 234 369 249T338 288T325 341Q325 378 341 402T392 460Q424 491 439 514T455
570Q455 606 433 625T369 645Q319 645 291 615T250 516L161 54L236 35L229 0H-23L-16 35L68 54L141 435H70L77 470L152 491Q197 703 386 703Q462 703 505 669T549 575Q549 533 530 507T476 453Q447 430 433 413T419 370Q419 342 436 323T491 278Q537 246 561 217T586
139Q586 72 535 32T397 -9Q363 -9 328 -3Z" />
<glyph unicode="&#xe0;" glyph-name="agrave" horiz-adv-x="523" d="M408 564L189 669L190 688L273 718L426 588L408 564ZM408 147T404 103T399 55H477V19Q434 4 407 -2T357 -9Q305 -9 305 36Q306 48 308 66T311 92Q280 48 236 20T154 -8Q99 -8 66 26T33 142Q33
253 68 334T168 460T316 504Q345 504 379 497T413 489L438 527L480 518L419 206Q408 147 404 103ZM214 59T254 90T316 154Q317 154 361 379L371 431Q342 451 308 451Q252 451 212 409T152 296T132 144Q132 98 146 79T188 59Q214 59 254 90Z" />
<glyph unicode="&#xe1;" glyph-name="aacute" horiz-adv-x="523" d="M408 147T404 103T399 55H477V19Q434 4 407 -2T357 -9Q305 -9 305 36Q306 48 308 66T311 92Q280 48 236 20T154 -8Q99 -8 66 26T33 142Q33 253 68 334T168 460T316 504Q345 504 379 497T413
489L438 527L480 518L419 206Q408 147 404 103ZM214 59T254 90T316 154Q317 154 361 379L371 431Q342 451 308 451Q252 451 212 409T152 296T132 144Q132 98 146 79T188 59Q214 59 254 90ZM244 563L225 587L380 717L463 687V668L244 563Z" />
<glyph unicode="&#xe2;" glyph-name="acircumflex" horiz-adv-x="523" d="M415 559L331 642L210 559L188 581L308 718H376L445 579L415 559ZM408 147T404 103T399 55H477V19Q434 4 407 -2T357 -9Q305 -9 305 36Q306 48 308 66T311 92Q280 48 236 20T154 -8Q99
-8 66 26T33 142Q33 253 68 334T168 460T316 504Q345 504 379 497T413 489L438 527L480 518L419 206Q408 147 404 103ZM214 59T254 90T316 154Q317 154 361 379L371 431Q342 451 308 451Q252 451 212 409T152 296T132 144Q132 98 146 79T188 59Q214 59 254 90Z"
/>
<glyph unicode="&#xe3;" glyph-name="atilde" horiz-adv-x="523" d="M465 636T448 612T408 587Q395 587 374 593T330 607Q277 626 259 626Q249 626 239 618T223 602T215 591L180 605Q199 652 217 677T258 702Q278 702 334 682Q387 663 407 663Q418 663 427 670T443
686T450 697L485 683Q465 636 448 612ZM408 147T404 103T399 55H477V19Q434 4 407 -2T357 -9Q305 -9 305 36Q306 48 308 66T311 92Q280 48 236 20T154 -8Q99 -8 66 26T33 142Q33 253 68 334T168 460T316 504Q345 504 379 497T413 489L438 527L480 518L419 206Q408
147 404 103ZM214 59T254 90T316 154Q317 154 361 379L371 431Q342 451 308 451Q252 451 212 409T152 296T132 144Q132 98 146 79T188 59Q214 59 254 90Z" />
<glyph unicode="&#xe4;" glyph-name="adieresis" horiz-adv-x="523" d="M287 619T269 602T225 584Q200 584 181 601T162 644Q162 669 181 687T225 706Q250 706 268 688T287 644Q287 619 269 602ZM493 619T474 602T430 584Q405 584 387 601T368 644Q368 669 386
687T430 706Q455 706 474 688T493 644Q493 619 474 602ZM408 147T404 103T399 55H477V19Q434 4 407 -2T357 -9Q305 -9 305 36Q306 48 308 66T311 92Q280 48 236 20T154 -8Q99 -8 66 26T33 142Q33 253 68 334T168 460T316 504Q345 504 379 497T413 489L438 527L480
518L419 206Q408 147 404 103ZM214 59T254 90T316 154Q317 154 361 379L371 431Q342 451 308 451Q252 451 212 409T152 296T132 144Q132 98 146 79T188 59Q214 59 254 90Z" />
<glyph unicode="&#xe5;" glyph-name="aring" horiz-adv-x="523" d="M267 542T244 564T221 624Q221 676 253 711T342 747Q385 747 407 724T430 663Q430 612 397 577T310 542Q267 542 244 564ZM370 582T370 666Q370 685 362 695T335 706Q306 706 294 683T281 621Q281
602 289 592T317 582Q370 582 370 666ZM99 -8T66 26T33 142Q33 253 68 334T168 460T316 504Q345 504 379 497T413 489L438 527L480 518L419 206Q408 147 404 103T399 55H477V19Q434 4 407 -2T357 -9Q305 -9 305 36Q306 48 308 66T311 92Q280 48 236 20T154 -8Q99
-8 66 26ZM214 59T254 90T316 154Q317 154 361 379L371 431Q342 451 308 451Q252 451 212 409T152 296T132 144Q132 98 146 79T188 59Q214 59 254 90Z" />
<glyph unicode="&#xe6;" glyph-name="ae" horiz-adv-x="708" d="M427 -9T385 21T331 114Q284 49 238 21T153 -8Q33 -8 33 142Q33 253 68 336T168 463T316 508Q343 508 377 501T412 493L437 527L475 517L464 466Q491 485 529 496T607 508Q657 508 688 483T719 410Q719
330 644 284T432 238Q424 192 424 162Q424 100 451 75T539 49Q572 49 624 67L633 29Q562 -9 487 -9Q427 -9 385 21ZM214 59T254 90T315 153Q321 187 338 274T370 435Q357 445 343 449T308 454Q250 454 211 411T152 297T132 144Q132 98 146 79T188 59Q214 59 254
90ZM528 278T579 310T631 401Q631 424 620 438T584 453Q530 453 494 408T440 278Q528 278 579 310Z" />
<glyph unicode="&#xe7;" glyph-name="ccedilla" horiz-adv-x="399" d="M321 455T297 455Q243 455 206 413T151 304T133 168Q133 104 152 76T220 48Q260 48 315 67L326 28Q267 -7 187 -9L169 -45Q214 -45 236 -61T259 -104Q259 -136 238 -162T183 -204T114 -219Q77
-219 53 -210L67 -180Q84 -187 104 -187Q137 -187 161 -168T185 -120Q185 -103 170 -92T122 -80L120 -68L152 -7Q95 0 63 38T31 149Q31 246 61 327T153 458T303 508Q368 508 414 485L387 363H348L338 449Q321 455 297 455Z" />
<glyph unicode="&#xe8;" glyph-name="egrave" horiz-adv-x="414" d="M382 563L163 668L164 687L246 717L400 587L382 563ZM362 508T393 483T424 410Q424 329 350 284T137 238Q130 199 130 163Q130 99 154 74T244 49Q280 49 329 67L338 30Q268 -9 192 -9Q113 -9
73 31T32 159Q32 247 62 327T155 457T313 508Q362 508 393 483ZM236 453T199 408T145 278Q234 278 285 310T336 401Q336 424 325 438T289 453Q236 453 199 408Z" />
<glyph unicode="&#xe9;" glyph-name="eacute" horiz-adv-x="425" d="M226 563L207 587L362 717L444 687V668L226 563ZM362 508T393 483T424 410Q424 329 350 284T137 238Q130 199 130 163Q130 99 154 74T244 49Q280 49 329 67L338 30Q268 -9 192 -9Q113 -9 73
31T32 159Q32 247 62 327T155 457T313 508Q362 508 393 483ZM236 453T199 408T145 278Q234 278 285 310T336 401Q336 424 325 438T289 453Q236 453 199 408Z" />
<glyph unicode="&#xea;" glyph-name="ecircumflex" horiz-adv-x="414" d="M395 559L311 642L191 559L168 581L289 718H356L425 579L395 559ZM362 508T393 483T424 410Q424 329 350 284T137 238Q130 199 130 163Q130 99 154 74T244 49Q280 49 329 67L338 30Q268
-9 192 -9Q113 -9 73 31T32 159Q32 247 62 327T155 457T313 508Q362 508 393 483ZM236 453T199 408T145 278Q234 278 285 310T336 401Q336 424 325 438T289 453Q236 453 199 408Z" />
<glyph unicode="&#xeb;" glyph-name="edieresis" horiz-adv-x="414" d="M256 619T238 602T194 584Q169 584 150 601T131 644Q131 669 150 687T194 706Q219 706 237 688T256 644Q256 619 238 602ZM462 619T443 602T399 584Q374 584 356 601T337 644Q337 669 355
687T399 706Q424 706 443 688T462 644Q462 619 443 602ZM362 508T393 483T424 410Q424 329 350 284T137 238Q130 199 130 163Q130 99 154 74T244 49Q280 49 329 67L338 30Q268 -9 192 -9Q113 -9 73 31T32 159Q32 247 62 327T155 457T313 508Q362 508 393 483ZM236
453T199 408T145 278Q234 278 285 310T336 401Q336 424 325 438T289 453Q236 453 199 408Z" />
<glyph unicode="&#xec;" glyph-name="igrave" horiz-adv-x="297" d="M259 563L39 668L41 687L123 717L277 587L259 563ZM83 -9T71 2T58 37Q58 55 87 196T122 369L136 435L62 443L57 473Q102 488 149 498T218 508Q237 508 237 486Q237 470 163 105Q160 89 158 77T153
54H235V19Q161 -9 111 -9Q83 -9 71 2Z" />
<glyph unicode="&#xed;" glyph-name="iacute" horiz-adv-x="297" d="M102 563L83 587L238 717L320 687V668L102 563ZM83 -9T71 2T58 37Q58 55 87 196T122 369L136 435L62 443L57 473Q102 488 149 498T218 508Q237 508 237 486Q237 470 163 105Q160 89 158 77T153
54H235V19Q161 -9 111 -9Q83 -9 71 2Z" />
<glyph unicode="&#xee;" glyph-name="icircumflex" horiz-adv-x="297" d="M72 559L50 581L163 718H230L292 578L263 559L186 642L72 559ZM83 -9T71 2T58 37Q58 55 87 196T122 369L136 435L62 443L57 473Q102 488 149 498T218 508Q237 508 237 486Q237 470 163
105Q160 89 158 77T153 54H235V19Q161 -9 111 -9Q83 -9 71 2Z" />
<glyph unicode="&#xef;" glyph-name="idieresis" horiz-adv-x="297" d="M153 619T135 602T91 584Q66 584 47 601T28 644Q28 669 47 687T91 706Q116 706 134 688T153 644Q153 619 135 602ZM333 619T315 602T271 584Q245 584 227 601T208 644Q208 669 226 687T271
706Q295 706 314 688T333 644Q333 619 315 602ZM237 470T163 105Q160 89 158 77T153 54H235V19Q161 -9 111 -9Q83 -9 71 2T58 37Q58 55 87 196T122 369L136 435L62 443L57 473Q102 488 149 498T218 508Q237 508 237 486Q237 470 163 105Z" />
<glyph unicode="&#xf0;" glyph-name="eth" horiz-adv-x="499" d="M32 -9T32 143Q32 256 68 338T168 464T316 508Q333 508 349 505Q335 549 315 586L226 529L201 570L291 627Q264 670 220 720L251 749Q304 704 342 659L430 715L455 676L370 621Q415 558 440 492T467
362V339Q467 327 466 317T464 300Q455 204 418 134T320 28T182 -9Q32 -9 32 143ZM261 45T297 93T350 212T367 358Q367 404 351 428T296 453Q238 453 201 404T148 283T132 139Q132 93 148 69T204 45Q261 45 297 93Z" />
<glyph unicode="&#xf1;" glyph-name="ntilde" horiz-adv-x="566" d="M486 637T468 612T428 587Q407 587 349 607Q298 626 278 626Q268 626 259 618T243 602T235 591L200 605Q219 652 237 677T278 702Q298 702 354 682Q407 663 427 663Q438 663 447 670T463 686T470
697L505 683Q486 637 468 612ZM276 445T338 477T443 509Q474 509 489 494T504 445Q504 402 424 53H508V19Q445 -9 396 -9Q330 -9 330 47Q330 61 345 129T364 214Q403 384 403 405Q403 435 374 435Q344 435 297 406T217 336L160 5L53 -9L141 434L67 442L61 471Q105
486 150 496T221 507Q243 507 243 482Q243 466 228 395Q276 445 338 477Z" />
<glyph unicode="&#xf2;" glyph-name="ograve" horiz-adv-x="499" d="M404 563L184 668L186 687L268 717L422 587L404 563ZM32 -9T32 143Q32 256 68 338T168 464T316 508Q392 508 429 469T467 357Q467 244 431 161T331 35T182 -9Q32 -9 32 143ZM261 45T297 93T350
212T367 358Q367 404 351 428T296 453Q238 453 201 404T148 283T132 139Q132 93 148 69T204 45Q261 45 297 93Z" />
<glyph unicode="&#xf3;" glyph-name="oacute" horiz-adv-x="499" d="M392 508T429 469T467 357Q467 244 431 161T331 35T182 -9Q32 -9 32 143Q32 256 68 338T168 464T316 508Q392 508 429 469ZM261 45T297 93T350 212T367 358Q367 404 351 428T296 453Q238 453
201 404T148 283T132 139Q132 93 148 69T204 45Q261 45 297 93ZM232 563L213 587L368 717L451 687V668L232 563Z" />
<glyph unicode="&#xf4;" glyph-name="ocircumflex" horiz-adv-x="499" d="M418 559L334 642L213 559L191 581L311 718H379L448 579L418 559ZM392 508T429 469T467 357Q467 244 431 161T331 35T182 -9Q32 -9 32 143Q32 256 68 338T168 464T316 508Q392 508 429
469ZM261 45T297 93T350 212T367 358Q367 404 351 428T296 453Q238 453 201 404T148 283T132 139Q132 93 148 69T204 45Q261 45 297 93Z" />
<glyph unicode="&#xf5;" glyph-name="otilde" horiz-adv-x="499" d="M449 637T431 612T391 587Q370 587 312 607Q261 626 241 626Q231 626 222 618T206 602T198 591L163 605Q182 652 200 677T241 702Q261 702 317 682Q370 663 390 663Q401 663 410 670T426 686T433
697L468 683Q449 637 431 612ZM392 508T429 469T467 357Q467 244 431 161T331 35T182 -9Q32 -9 32 143Q32 256 68 338T168 464T316 508Q392 508 429 469ZM261 45T297 93T350 212T367 358Q367 404 351 428T296 453Q238 453 201 404T148 283T132 139Q132 93 148 69T204
45Q261 45 297 93Z" />
<glyph unicode="&#xf6;" glyph-name="odieresis" horiz-adv-x="499" d="M287 619T269 602T225 584Q200 584 181 601T162 644Q162 669 181 687T225 706Q250 706 268 688T287 644Q287 619 269 602ZM493 619T474 602T430 584Q405 584 387 601T368 644Q368 669 386
687T430 706Q455 706 474 688T493 644Q493 619 474 602ZM392 508T429 469T467 357Q467 244 431 161T331 35T182 -9Q32 -9 32 143Q32 256 68 338T168 464T316 508Q392 508 429 469ZM261 45T297 93T350 212T367 358Q367 404 351 428T296 453Q238 453 201 404T148
283T132 139Q132 93 148 69T204 45Q261 45 297 93Z" />
<glyph unicode="&#xf7;" glyph-name="divide" horiz-adv-x="518" d="M234 384T216 401T198 444Q198 469 216 487T259 505Q284 505 302 487T320 444Q320 419 302 402T259 384Q234 384 216 401ZM63 276V337H456V276H63ZM234 108T216 125T198 167Q198 193 216 210T259
228Q284 228 302 211T320 167Q320 142 302 125T259 108Q234 108 216 125Z" />
<glyph unicode="&#xf8;" glyph-name="oslash" horiz-adv-x="499" d="M134 -5Q32 17 32 143Q32 253 66 334T160 459T301 508L328 589H388L360 505Q414 494 440 456T467 357Q467 246 433 164T336 38T193 -9L166 -92H106L134 -5ZM283 452Q229 446 195 397T146 278T131
140Q131 85 156 64L283 452ZM265 48T300 96T352 215T368 358Q368 417 338 437L210 45Q265 48 300 96Z" />
<glyph unicode="&#xf9;" glyph-name="ugrave" horiz-adv-x="565" d="M416 563L197 668L198 687L280 717L434 587L416 563ZM70 -9T70 71Q70 99 80 153T112 305Q118 332 126 373T139 436L66 444L60 473Q105 488 151 498T222 508Q232 508 238 502T245 485Q245 478
232 420T214 336Q197 260 182 187T166 99Q166 61 198 61Q234 61 279 89T357 173L415 493L515 509L452 203Q440 144 436 101T431 54H509V19Q463 4 435 -2T387 -9Q360 -9 349 1T338 33Q339 45 341 64T345 91Q305 43 250 17T142 -9Q70 -9 70 71Z" />
<glyph unicode="&#xfa;" glyph-name="uacute" horiz-adv-x="565" d="M270 563L251 587L405 717L488 687V668L270 563ZM70 -9T70 71Q70 99 80 153T112 305Q118 332 126 373T139 436L66 444L60 473Q105 488 151 498T222 508Q232 508 238 502T245 485Q245 478 232
420T214 336Q197 260 182 187T166 99Q166 61 198 61Q234 61 279 89T357 173L415 493L515 509L452 203Q440 144 436 101T431 54H509V19Q463 4 435 -2T387 -9Q360 -9 349 1T338 33Q339 45 341 64T345 91Q305 43 250 17T142 -9Q70 -9 70 71Z" />
<glyph unicode="&#xfb;" glyph-name="ucircumflex" horiz-adv-x="565" d="M236 559L213 581L334 718H401L470 579L440 559L356 642L236 559ZM70 -9T70 71Q70 99 80 153T112 305Q118 332 126 373T139 436L66 444L60 473Q105 488 151 498T222 508Q232 508 238 502T245
485Q245 478 232 420T214 336Q197 260 182 187T166 99Q166 61 198 61Q234 61 279 89T357 173L415 493L515 509L452 203Q440 144 436 101T431 54H509V19Q463 4 435 -2T387 -9Q360 -9 349 1T338 33Q339 45 341 64T345 91Q305 43 250 17T142 -9Q70 -9 70 71Z" />
<glyph unicode="&#xfc;" glyph-name="udieresis" horiz-adv-x="565" d="M225 584T206 601T187 644Q187 669 206 687T250 706Q275 706 293 688T312 644Q312 619 294 602T250 584Q225 584 206 601ZM429 584T411 601T392 644Q392 669 410 687T455 706Q479 706 498
688T517 644Q517 619 499 602T455 584Q429 584 411 601ZM70 -9T70 71Q70 99 80 153T112 305Q118 332 126 373T139 436L66 444L60 473Q105 488 151 498T222 508Q232 508 238 502T245 485Q245 478 232 420T214 336Q197 260 182 187T166 99Q166 61 198 61Q234 61 279
89T357 173L415 493L515 509L452 203Q440 144 436 101T431 54H509V19Q463 4 435 -2T387 -9Q360 -9 349 1T338 33Q339 45 341 64T345 91Q305 43 250 17T142 -9Q70 -9 70 71Z" />
<glyph unicode="&#xfd;" glyph-name="yacute" horiz-adv-x="468" d="M208 563L189 587L344 717L426 687V668L208 563ZM128 -14L131 70Q132 162 120 267T86 434L10 443L3 473Q48 489 93 499T165 509Q175 509 188 447T212 293T222 117L221 80Q311 164 347 249T384
407Q384 422 380 436L323 443L317 473Q418 507 460 509Q465 493 465 465Q465 367 426 276T331 116T218 3L180 -167L79 -183L128 -14Z" />
<glyph unicode="&#xfe;" glyph-name="thorn" horiz-adv-x="520" d="M156 656L81 665L74 693Q117 709 163 719T236 730Q256 730 256 707Q256 695 247 649L205 407Q242 452 288 480T377 509Q486 509 486 370Q486 270 458 186T367 50T206 -3Q171 -3 139 4L113 -167L9
-182L156 656ZM282 49T319 100T372 222T387 358Q387 442 332 442Q307 442 264 411T195 347Q177 233 149 72Q161 63 181 56T220 49Q282 49 319 100Z" />
<glyph unicode="&#xff;" glyph-name="ydieresis" horiz-adv-x="468" d="M146 584T127 601T108 644Q108 669 127 687T171 706Q196 706 214 688T233 644Q233 619 215 602T171 584Q146 584 127 601ZM350 584T332 601T313 644Q313 669 331 687T376 706Q400 706 419
688T438 644Q438 619 420 602T376 584Q350 584 332 601ZM128 -14L131 70Q132 162 120 267T86 434L10 443L3 473Q48 489 93 499T165 509Q175 509 188 447T212 293T222 117L221 80Q311 164 347 249T384 407Q384 422 380 436L323 443L317 473Q418 507 460 509Q465
493 465 465Q465 367 426 276T331 116T218 3L180 -167L79 -183L128 -14Z" />
<glyph unicode="&#x2013;" glyph-name="endash" horiz-adv-x="726" d="M719 209H1L8 266H725L719 209Z" />
<glyph unicode="&#x2014;" glyph-name="emdash" horiz-adv-x="840" d="M830 209H0L6 266H837L830 209Z" />
<glyph unicode="&#x2018;" glyph-name="quoteleft" horiz-adv-x="176" d="M203 662L232 656L177 446L89 427L75 447L203 662Z" />
<glyph unicode="&#x2019;" glyph-name="quoteright" horiz-adv-x="176" d="M82 427L53 434L108 643L196 662L210 643L82 427Z" />
<glyph unicode="&#x201a;" glyph-name="quotesinglbase" horiz-adv-x="202" d="M1 -119L-26 -112L28 94L114 114L127 93L1 -119Z" />
<glyph unicode="&#x201c;" glyph-name="quotedblleft" horiz-adv-x="333" d="M196 662L225 656L170 446L83 427L68 447L196 662ZM353 662L382 656L327 446L240 427L225 447L353 662Z" />
<glyph unicode="&#x201d;" glyph-name="quotedblright" horiz-adv-x="333" d="M76 427L47 434L102 643L189 662L204 643L76 427ZM233 427L204 434L259 643L346 662L361 643L233 427Z" />
<glyph unicode="&#x201e;" glyph-name="quotedblbase" horiz-adv-x="356" d="M-9 -121L-38 -114L17 95L105 114L120 94L-9 -121ZM148 -121L118 -114L174 95L261 114L276 94L148 -121Z" />
<glyph unicode="&#x2022;" glyph-name="bullet" horiz-adv-x="475" d="M389 309T370 276T317 223T244 203Q204 203 171 222T118 275T98 348Q98 388 117 421T170 473T244 493Q283 493 316 474T369 421T389 348Q389 309 370 276Z" />
<glyph unicode="&#x2039;" glyph-name="guilsinglleft" horiz-adv-x="257" d="M36 245L207 424L242 397L133 245L183 94L138 68L36 245Z" />
<glyph unicode="&#x203a;" glyph-name="guilsinglright" horiz-adv-x="257" d="M131 424L233 246L62 68L27 95L137 246L86 398L131 424Z" />
</font>
</defs>
</svg>
