<?xml version="1.0" standalone="no"?>
<!DOCTYPE svg PUBLIC "-//W3C//DTD SVG 1.1//EN" "http://www.w3.org/Graphics/SVG/1.1/DTD/svg11.dtd">
<svg xmlns="http://www.w3.org/2000/svg">
<defs >
<font id="Asap" horiz-adv-x="548" ><font-face
    font-family="Asap Medium"
    units-per-em="1000"
    panose-1="2 15 6 4 3 2 2 6 2 3"
    ascent="934"
    descent="-212"
    alphabetic="0" />
<glyph unicode=" " glyph-name="space" horiz-adv-x="240" />
<glyph unicode="!" glyph-name="exclam" horiz-adv-x="294" d="M123 208T115 214T107 233V677Q107 702 153 702H179Q224 702 224 678L191 233Q189 220 181 214T154 208H143Q123 208 115 214ZM93 -2T93 23V96Q93 121 138 121H160Q205 121 205 96V23Q205 -2 160
-2H138Q93 -2 93 23Z" />
<glyph unicode="&quot;" glyph-name="quotedbl" horiz-adv-x="319" d="M66 470T63 487L41 667V677Q41 702 87 702H97Q143 702 143 677Q143 668 120 487Q117 470 94 470H89Q66 470 63 487ZM201 470T198 487L176 667V677Q176 702 221 702H231Q277 702 277 677Q277
660 255 487Q251 470 229 470H223Q201 470 198 487Z" />
<glyph unicode="#" glyph-name="numbersign" horiz-adv-x="534" d="M85 -2T78 2T70 17Q70 24 101 192H34Q22 192 17 200T12 228V243Q12 262 17 270T34 279H117L142 415H70Q58 415 53 423T48 451V466Q48 485 53 493T70 502H157L187 661Q189 674 198 680T234 686H241Q273
686 273 669L242 502H354L383 661Q385 674 395 680T430 686H438Q454 686 462 682T471 669L441 502H499Q511 502 516 494T521 466V451Q521 432 516 424T499 415H424L400 279H467Q479 279 484 271T489 243V228Q489 209 484 201T467 192H383L353 23Q351 10 341 4T306
-2H300Q282 -2 275 2T267 17Q267 24 298 192H187L156 23Q154 10 144 4T109 -2H103Q85 -2 78 2ZM314 279L339 415H228L203 279H314Z" />
<glyph unicode="$" glyph-name="dollar" horiz-adv-x="496" d="M256 -74Q233 -74 233 -54V-6Q156 -5 92 21Q63 32 47 45T30 71Q30 86 46 110T73 135Q79 135 96 124Q127 107 159 95T233 82V314Q172 337 135 357T71 416T44 517Q44 595 96 644T233 702V741Q233 761
255 761H257Q278 761 278 741V703Q313 702 350 694T410 673Q436 658 436 643Q436 629 422 605T398 580Q393 580 382 585T366 594Q344 603 324 608T278 614V405Q340 381 377 361T442 301T469 198Q469 108 417 56T278 -5V-54Q278 -74 257 -74H256ZM233 611Q193 603
172 579T151 518Q151 484 172 463T233 423V611ZM315 96T338 123T361 192Q361 229 340 252T278 294V88Q315 96 338 123Z" />
<glyph unicode="%" glyph-name="percent" horiz-adv-x="765" d="M137 378T97 414T56 541Q56 707 196 707Q256 707 296 671T337 541Q337 450 296 414T196 378Q137 378 97 414ZM171 -6T165 -3T159 5Q159 9 163 16L531 683Q543 705 573 705H589Q599 705 605 702T612
694Q612 693 608 683L239 16Q226 -6 198 -6H182Q171 -6 165 -3ZM262 441T262 541Q262 586 249 614T196 643Q157 643 145 615T132 541Q132 498 145 470T196 441Q262 441 262 541ZM513 -6T472 30T431 157Q431 250 471 286T572 322Q631 322 672 286T713 157Q713 66
672 30T572 -6Q513 -6 472 30ZM638 57T638 157Q638 202 625 230T572 259Q533 259 521 231T508 157Q508 113 521 85T572 57Q638 57 638 157Z" />
<glyph unicode="&amp;" glyph-name="ampersand" horiz-adv-x="624" d="M604 83T611 62T618 29Q618 -7 538 -7Q469 -7 434 36Q361 -7 266 -7Q208 -7 157 15T74 85T42 203Q42 273 77 321T165 386V390Q121 407 93 445T65 537Q65 618 120 662T268 707Q305 707 332
700T360 672Q360 655 353 634T335 613Q330 613 313 617T277 622Q217 622 193 592T168 523Q168 496 181 471T223 430T293 413H404L417 515Q420 540 455 540H471Q507 540 507 515V413H581Q593 413 598 405T604 377V364Q604 345 599 337T581 328H507V143Q507 107 520
93T556 78Q570 78 579 80T594 83Q604 83 611 62ZM147 139T186 109T278 78Q337 78 405 112Q404 118 404 131V328H288Q219 328 183 300T147 205Q147 139 186 109Z" />
<glyph unicode="&apos;" glyph-name="quotesingle" horiz-adv-x="183" d="M80 470T74 474T66 487L44 667V677Q44 702 90 702H100Q146 702 146 677Q146 668 123 487Q120 470 98 470H92Q80 470 74 474Z" />
<glyph unicode="(" glyph-name="parenleft" horiz-adv-x="301" d="M238 -211T228 -198Q147 -113 101 14T54 286Q54 430 100 556T228 771Q239 783 251 783Q263 783 276 774T289 752Q289 742 281 731Q215 641 180 528T145 286Q145 157 179 44T280 -158Q288 -169
288 -178Q288 -188 276 -199T251 -211Q238 -211 228 -198Z" />
<glyph unicode=")" glyph-name="parenright" horiz-adv-x="301" d="M37 -210T24 -200T10 -178Q10 -173 17 -162Q84 -72 119 42T155 286Q155 415 121 528T20 731Q12 742 12 751Q12 761 24 772T49 784Q61 784 72 771Q153 686 199 559T246 286Q246 142 200 16T72
-198Q63 -210 49 -210Q37 -210 24 -200Z" />
<glyph unicode="*" glyph-name="asterisk" horiz-adv-x="373" d="M87 413T78 421T69 436Q69 442 75 451L142 544L51 574Q34 578 34 591Q34 602 40 610T55 619Q62 619 66 617L158 587V686Q158 709 181 709Q204 709 204 686V587L296 617Q300 619 306 619Q314 619
321 612T328 592Q328 578 311 574L219 544L287 451Q292 444 292 436Q292 429 284 421T267 413Q258 413 250 424L181 520L112 424Q105 413 95 413Q87 413 78 421Z" />
<glyph unicode="+" glyph-name="plus" horiz-adv-x="560" d="M257 -1T249 4T240 21V193H69Q57 193 52 200T46 226V233Q46 271 69 271H240V443Q240 455 248 460T276 466H285Q304 466 312 461T320 443V271H491Q503 271 508 263T514 235V228Q514 209 509 201T491
193H320V21Q320 9 312 4T285 -1H276Q257 -1 249 4Z" />
<glyph unicode="," glyph-name="comma" horiz-adv-x="198" d="M28 -119T17 -115T6 -102Q6 -95 15 -75Q31 -40 40 -3T49 86Q49 102 60 111T95 121H107Q129 121 141 113T153 89Q153 34 133 -14T86 -90T40 -119Q28 -119 17 -115Z" />
<glyph unicode="-" glyph-name="hyphen" horiz-adv-x="320" d="M50 225T45 233T39 261V270Q39 289 44 297T62 305H256Q268 305 273 297T278 270V261Q278 242 273 234T256 225H62Q50 225 45 233Z" />
<glyph unicode="." glyph-name="period" horiz-adv-x="198" d="M43 -2T43 23V96Q43 121 88 121H110Q156 121 156 96V23Q156 -2 110 -2H88Q43 -2 43 23Z" />
<glyph unicode="/" glyph-name="slash" horiz-adv-x="370" d="M0 -77T-8 -72T-16 -58Q-16 -55 -12 -43L292 678Q304 703 335 703H344Q374 703 374 684Q374 677 371 669L66 -52Q60 -65 51 -71T25 -77H15Q0 -77 -8 -72Z" />
<glyph unicode="0" glyph-name="zero" horiz-adv-x="535" d="M200 -7T148 32T66 152T36 350Q36 467 66 547T148 667T266 707Q332 707 384 668T467 548T498 350Q498 233 468 153T385 33T266 -7Q200 -7 148 32ZM322 78T358 145T394 350Q394 488 358 555T266 622Q211
622 176 555T140 350Q140 212 175 145T266 78Q322 78 358 145Z" />
<glyph unicode="1" glyph-name="one" horiz-adv-x="535" d="M54 0T49 8T43 36V49Q43 68 48 76T66 85H228V598L63 571Q51 571 45 591T39 631Q39 648 59 653L296 703Q308 703 319 697T330 681V85H466Q478 85 483 77T489 49V36Q489 17 484 9T466 0H66Q54 0 49 8Z" />
<glyph unicode="2" glyph-name="two" horiz-adv-x="535" d="M59 0T53 19T46 57Q46 69 50 73L306 393Q343 442 354 467T365 524Q365 569 334 595T250 621Q212 621 186 611T132 584Q114 573 109 573Q97 573 84 593T70 628Q70 650 100 668T174 696T255 707Q355 707
412 659T470 529Q470 484 457 449T409 366T289 215L183 84H455Q467 84 472 76T478 49V36Q478 17 473 9T455 0H68Q59 0 53 19Z" />
<glyph unicode="3" glyph-name="three" horiz-adv-x="535" d="M196 -7T149 2T72 26T42 58Q42 72 56 93T81 115Q86 115 109 106Q138 94 167 86T236 78Q288 78 327 108T367 205Q367 271 332 299T226 328H195Q183 328 178 336T172 364V377Q172 396 177 404T195 412H221Q264
412 292 430T332 476T345 530Q345 567 320 594T237 621Q197 621 171 614T122 596Q106 589 101 589Q91 589 77 611T63 648Q63 673 124 690T246 707Q339 707 394 661T449 530Q449 480 421 444T349 390V386Q401 370 436 322T472 203Q472 133 440 86T357 16T248 -7Q196
-7 149 2Z" />
<glyph unicode="4" glyph-name="four" horiz-adv-x="535" d="M336 -2T336 23V160H44Q35 160 26 183T16 223Q16 232 18 234L338 687Q349 702 380 702H399Q437 702 437 677V245H496Q508 245 513 237T519 209V196Q519 177 514 169T496 160H437V23Q437 -2 399 -2H374Q336
-2 336 23ZM336 245V510Q336 520 342 547L338 549L129 245H336Z" />
<glyph unicode="5" glyph-name="five" horiz-adv-x="535" d="M181 -7T137 2T69 27T44 57Q44 72 59 93T85 115Q89 115 96 112T109 107Q138 94 166 86T233 78Q293 78 333 113T374 213Q374 276 333 309T210 342H118Q101 342 95 349T88 375L105 667Q106 684 114 692T140
700H414Q426 700 431 692T437 664V648Q437 631 432 623T414 615H202L190 427H234Q338 427 408 378T479 214Q479 96 408 45T234 -7Q181 -7 137 2Z" />
<glyph unicode="6" glyph-name="six" horiz-adv-x="535" d="M163 -6T105 59T46 249Q46 392 112 494T260 649T379 703Q395 703 406 680T417 641Q417 630 408 627Q316 592 255 528T169 381Q224 412 294 412Q344 412 388 388T459 318T487 207Q487 141 457 93T377
19T265 -6Q163 -6 105 59ZM296 79T322 93T366 136T383 203Q383 265 350 296T264 327Q208 327 152 296Q151 286 150 272T149 240Q149 152 183 116T269 79Q296 79 322 93Z" />
<glyph unicode="7" glyph-name="seven" horiz-adv-x="535" d="M114 -2T103 2T91 16Q91 18 95 30L372 615H73Q61 615 56 623T50 651V664Q50 683 55 691T73 700H468Q475 700 483 678T491 638Q491 632 489 626L203 15Q195 -2 157 -2H138Q114 -2 103 2Z" />
<glyph unicode="8" glyph-name="eight" horiz-adv-x="535" d="M165 -7T105 48T45 202Q45 273 74 314T153 379Q72 428 72 529Q72 610 127 658T271 707Q357 707 412 660T467 533Q467 475 442 440T373 382Q428 357 459 316T490 199Q490 103 430 48T268 -7Q165 -7
105 48ZM366 461T366 530Q366 575 339 598T270 622Q228 622 201 599T174 530Q174 497 189 476T227 442T289 415Q366 461 366 530ZM319 78T352 111T386 201Q386 241 369 266T325 304T253 335Q248 336 230 343Q192 320 171 287T149 204Q149 144 182 111T268 78Q319
78 352 111Z" />
<glyph unicode="9" glyph-name="nine" horiz-adv-x="535" d="M139 -3T128 20T117 59Q117 69 127 73Q219 108 279 172T365 319Q311 288 240 288Q190 288 146 312T75 382T48 493Q48 559 78 607T158 681T269 706Q372 706 430 641T489 451Q489 308 423 206T274 51T155
-3Q139 -3 128 20ZM326 373T382 404Q385 433 385 460Q385 548 351 584T265 621Q238 621 212 607T168 564T151 497Q151 435 185 404T270 373Q326 373 382 404Z" />
<glyph unicode=":" glyph-name="colon" horiz-adv-x="198" d="M43 402T43 427V500Q43 525 88 525H110Q156 525 156 500V427Q156 402 110 402H88Q43 402 43 427ZM43 -2T43 23V96Q43 121 88 121H110Q156 121 156 96V23Q156 -2 110 -2H88Q43 -2 43 23Z" />
<glyph unicode=";" glyph-name="semicolon" horiz-adv-x="198" d="M43 402T43 427V500Q43 525 88 525H110Q156 525 156 500V427Q156 402 110 402H88Q43 402 43 427ZM28 -119T17 -115T6 -102Q6 -95 15 -75Q31 -40 40 -3T49 86Q49 102 60 111T95 121H107Q129 121
141 113T153 89Q153 34 133 -14T86 -90T40 -119Q28 -119 17 -115Z" />
<glyph unicode="&lt;" glyph-name="less" horiz-adv-x="560" d="M488 8T480 11L66 187Q41 199 41 224V242Q41 267 66 279L480 454Q488 457 495 457Q504 457 509 450T514 427V412Q514 380 488 370L151 233L489 96Q514 84 514 53V39Q514 24 509 16T495 8Q488 8 480 11Z" />
<glyph unicode="=" glyph-name="equal" horiz-adv-x="560" d="M46 270T46 306V313Q46 348 76 348H484Q514 348 514 313V306Q514 270 484 270H76Q46 270 46 306ZM46 101T46 137V144Q46 180 76 180H484Q514 180 514 144V137Q514 101 484 101H76Q46 101 46 137Z" />
<glyph unicode="&gt;" glyph-name="greater" horiz-adv-x="560" d="M54 7T49 15T44 38V52Q44 83 69 95L407 232L70 369Q44 379 44 411V426Q44 441 49 448T63 456Q70 456 78 453L492 278Q517 266 517 241V223Q517 198 492 186L78 10Q71 7 63 7Q54 7 49 15Z" />
<glyph unicode="?" glyph-name="question" horiz-adv-x="445" d="M142 208T142 233Q142 268 163 308T223 388Q274 441 295 468T316 526Q316 616 205 616Q177 616 155 609T108 591Q103 589 96 586T84 583Q73 583 58 606T43 643Q43 671 100 689T220 707Q285 707
332 685T403 623T428 536Q428 487 404 450T334 368Q285 321 262 293T234 230Q232 218 224 213T195 208H178Q142 208 142 233ZM129 -2T129 23V96Q129 121 174 121H196Q241 121 241 96V23Q241 -2 196 -2H174Q129 -2 129 23Z" />
<glyph unicode="@" glyph-name="at" horiz-adv-x="974" d="M634 706T709 666T825 552T867 381Q867 291 839 217T762 99T650 55Q603 55 576 79T546 136Q523 96 490 76T418 55Q361 55 319 98T276 237Q276 315 301 376T373 472T480 506Q541 506 588 459Q589 463 594
477T607 497T628 502H636Q665 502 665 480L661 438Q633 177 633 157Q633 117 671 117Q707 117 739 153T790 251T810 381Q810 464 776 527T679 624T534 659Q426 659 336 603T194 451T141 238Q141 145 175 73T270 -38T410 -78Q453 -78 481 -72T535 -56Q556 -49 564
-49Q578 -49 578 -75Q578 -101 522 -113T410 -125Q314 -125 240 -80T125 48T84 238Q84 368 143 475T306 644T534 706Q634 706 709 666ZM556 265Q557 276 562 327T573 403Q536 433 492 433Q424 433 394 381T364 243Q364 183 385 156T443 128Q473 128 502 155T554
242L556 265Z" />
<glyph unicode="A" glyph-name="A" horiz-adv-x="613" d="M9 -2T9 16Q9 22 12 32L244 685Q250 702 289 702H324Q363 702 369 685L601 31Q604 22 604 16Q604 -2 559 -2H541Q503 -2 496 15L443 167H166L114 15Q107 -2 72 -2H57Q9 -2 9 16ZM411 259L320 523Q316 537
313 556T307 583H305Q297 541 290 523L198 259H411Z" />
<glyph unicode="B" glyph-name="B" horiz-adv-x="593" d="M107 0T99 8T91 33V667Q91 684 99 692T124 700H308Q421 700 478 653T536 523Q536 474 504 430T426 371L427 367Q446 363 478 345T538 290T565 202Q565 0 307 0H124Q107 0 99 8ZM300 405Q355 405 390 435T425
510Q425 560 395 584T298 608H198V405H300ZM330 92Q389 92 422 122T455 207Q455 258 419 285T313 313H198V92H330Z" />
<glyph unicode="C" glyph-name="C" horiz-adv-x="619" d="M212 -7T133 80T54 351Q54 707 380 707Q429 707 476 697T552 670Q577 655 577 642Q577 626 562 600T534 574Q531 574 509 585T455 605T381 614Q270 614 217 551T164 350Q164 215 216 150T378 85Q426 85
461 96T528 124Q542 132 547 132Q556 132 565 120T582 92T589 69Q589 49 556 32Q526 15 477 4T378 -7Q212 -7 133 80Z" />
<glyph unicode="D" glyph-name="D" horiz-adv-x="695" d="M107 0T99 8T91 33V667Q91 684 99 692T124 700H329Q473 700 557 615T641 350Q641 171 557 86T329 0H124Q107 0 99 8ZM324 92Q419 92 475 155T531 350Q531 481 475 544T324 608H198V92H324Z" />
<glyph unicode="E" glyph-name="E" horiz-adv-x="546" d="M107 0T99 8T91 33V667Q91 684 99 692T124 700H473Q485 700 490 692T496 664V644Q496 625 491 617T473 608H198V404H444Q456 404 461 396T467 368V348Q467 329 462 321T444 312H198V92H474Q486 92 491
84T497 56V36Q497 17 492 9T474 0H124Q107 0 99 8Z" />
<glyph unicode="F" glyph-name="F" horiz-adv-x="503" d="M91 -2T91 23V667Q91 684 99 692T124 700H443Q455 700 460 692T466 664V644Q466 625 461 617T443 608H198V404H428Q440 404 445 396T451 368V348Q451 329 446 321T428 312H198V23Q198 -2 152 -2H137Q91 -2 91 23Z" />
<glyph unicode="G" glyph-name="G" horiz-adv-x="672" d="M578 369T586 361T594 336V67Q594 27 528 10T368 -7Q54 -7 54 346Q54 707 380 707Q427 707 473 698T548 673T578 642Q578 626 563 600T535 574Q532 574 510 585T456 605T381 614Q265 614 215 549T164 352Q164
227 212 156T373 85Q436 85 487 97V277H378Q366 277 361 285T355 313V333Q355 352 360 360T378 369H561Q578 369 586 361Z" />
<glyph unicode="H" glyph-name="H" horiz-adv-x="733" d="M91 -2T91 23V677Q91 702 137 702H153Q198 702 198 677V405H534V677Q534 702 580 702H595Q641 702 641 677V23Q641 -2 595 -2H580Q534 -2 534 23V312H198V23Q198 -2 153 -2H137Q91 -2 91 23Z" />
<glyph unicode="I" glyph-name="I" horiz-adv-x="283" d="M87 -2T87 23V677Q87 702 133 702H149Q195 702 195 677V23Q195 -2 149 -2H133Q87 -2 87 23Z" />
<glyph unicode="J" glyph-name="J" horiz-adv-x="402" d="M74 -7T39 1T4 29Q4 44 11 69T32 95Q37 95 54 91T93 87Q158 87 187 114T217 204V677Q217 702 262 702H278Q324 702 324 677V204Q324 105 273 49T112 -7Q74 -7 39 1Z" />
<glyph unicode="K" glyph-name="K" horiz-adv-x="576" d="M89 -2T89 23V677Q89 702 135 702H150Q196 702 196 677V382H200L425 687Q436 702 481 702H502Q522 702 532 698T543 688Q543 680 534 668L300 361L579 30Q587 18 587 12Q587 5 576 2T540 -2H515Q493 -2
479 1T458 13L200 330L196 329V23Q196 -2 150 -2H135Q89 -2 89 23Z" />
<glyph unicode="L" glyph-name="L" horiz-adv-x="484" d="M107 0T99 8T91 33V677Q91 702 137 702H152Q198 702 198 677V92H456Q468 92 473 84T479 56V36Q479 17 474 9T456 0H124Q107 0 99 8Z" />
<glyph unicode="M" glyph-name="M" horiz-adv-x="843" d="M386 187T377 202L215 486Q209 496 191 529L187 528Q189 511 189 475V23Q189 -2 143 -2H130Q84 -2 84 23V677Q84 702 130 702H171Q207 702 219 681L401 363Q417 336 422 313Q428 329 447 365L627 681Q638
702 675 702H713Q759 702 759 677V23Q759 -2 713 -2H700Q654 -2 654 23V470Q654 506 656 524L652 525Q640 501 628 481L468 202Q459 187 441 187H404Q386 187 377 202Z" />
<glyph unicode="N" glyph-name="N" horiz-adv-x="719" d="M84 -2T84 23V677Q84 702 130 702H157Q175 702 186 698T206 681L494 243Q512 217 528 184L532 185Q530 208 530 253V677Q530 702 576 702H589Q635 702 635 677V23Q635 -2 589 -2H564Q547 -2 537 2T520
16L225 463Q208 487 191 523L187 522Q189 499 189 454V23Q189 -2 143 -2H130Q84 -2 84 23Z" />
<glyph unicode="O" glyph-name="O" horiz-adv-x="731" d="M214 -7T134 85T54 351Q54 526 134 616T365 707Q518 707 597 617T677 351Q677 176 597 85T365 -7Q214 -7 134 85ZM463 85T515 153T567 351Q567 481 516 547T365 614Q266 614 215 548T164 351Q164 221 215
153T365 85Q463 85 515 153Z" />
<glyph unicode="P" glyph-name="P" horiz-adv-x="570" d="M80 -2T80 23V667Q80 684 88 692T113 700H318Q408 700 477 657T546 497Q546 413 507 367T418 304T328 288H187V23Q187 -2 142 -2H126Q80 -2 80 23ZM324 380Q365 380 400 406T435 497Q435 559 400 583T314
608H187V380H324Z" />
<glyph unicode="Q" glyph-name="Q" horiz-adv-x="731" d="M634 -147T389 -50Q312 -18 241 9Q54 83 54 348Q54 523 134 615T365 707Q517 707 597 615T677 348Q677 213 629 128T489 13V8L673 -51Q687 -56 687 -67Q687 -75 681 -95T664 -131T642 -147Q634 -147 389
-50ZM463 82T515 150T567 348Q567 477 515 545T365 614Q268 614 216 546T164 348Q164 219 216 151T365 82Q463 82 515 150Z" />
<glyph unicode="R" glyph-name="R" horiz-adv-x="610" d="M89 -2T89 23V667Q89 684 97 692T122 700H298Q420 700 480 656T541 520Q541 459 510 417T425 354V350Q451 341 471 312T510 234L591 31Q595 17 595 15Q595 -2 547 -2H528Q511 -2 499 2T483 15L406 211Q386
261 357 279T271 298H196V23Q196 -2 150 -2H135Q89 -2 89 23ZM317 391Q364 391 397 424T431 503Q431 555 399 581T310 608H196V391H317Z" />
<glyph unicode="S" glyph-name="S" horiz-adv-x="500" d="M185 -7T133 7T54 42Q33 57 33 71Q33 86 49 110T75 135Q82 135 98 124Q131 107 163 96T240 85Q292 85 326 112T361 189Q361 221 344 242T302 277T231 310L209 319Q157 340 124 361T69 419T46 517Q46 575
75 618T156 684T272 707Q311 707 352 697T418 671Q439 658 439 643Q439 629 425 605T400 580Q395 580 371 592Q325 614 275 614Q219 614 188 588T156 518Q156 486 172 466T212 435T284 405Q343 382 380 361T444 299T471 195Q471 98 409 46T248 -7Q185 -7 133 7Z"
/>
<glyph unicode="T" glyph-name="T" horiz-adv-x="549" d="M222 -2T222 23V608H39Q27 608 22 616T17 644V664Q17 683 22 691T39 700H510Q522 700 527 692T532 664V644Q532 625 527 617T510 608H329V23Q329 -2 283 -2H268Q222 -2 222 23Z" />
<glyph unicode="U" glyph-name="U" horiz-adv-x="712" d="M223 -7T151 54T78 227V677Q78 702 124 702H139Q185 702 185 677V228Q185 165 233 125T356 85Q405 85 444 103T505 154T527 228V677Q527 702 573 702H588Q634 702 634 677V227Q634 116 562 55T356 -7Q223
-7 151 54Z" />
<glyph unicode="V" glyph-name="V" horiz-adv-x="617" d="M250 -2T245 15L20 669Q16 681 16 684Q16 702 65 702H81Q119 702 126 682L297 177L307 130H310L321 178L493 682Q500 702 538 702H552Q599 702 599 684Q599 679 596 668L371 15Q366 -2 327 -2H290Q250 -2 245 15Z" />
<glyph unicode="W" glyph-name="W" horiz-adv-x="882" d="M185 -2T179 15L12 668Q10 678 10 682Q10 702 58 702H73Q116 702 120 682L232 239Q241 205 248 161L254 131Q258 150 272 205L281 241L391 684Q395 702 434 702H457Q496 702 500 684L611 238Q617 213 633
129L660 240L769 682Q773 702 817 702H824Q872 702 872 682L870 668L700 15Q696 -2 655 -2H605Q587 -2 575 2T561 15L460 405L440 517L420 405L318 15Q316 6 304 2T274 -2H224Q185 -2 179 15Z" />
<glyph unicode="X" glyph-name="X" horiz-adv-x="611" d="M17 -2T17 16Q17 22 25 36L244 365L49 664Q40 678 40 684Q40 702 91 702H113Q132 702 143 699T161 686L308 461L460 687Q470 702 508 702H524Q575 702 575 684Q575 678 566 664L369 368L587 36Q595 23
595 16Q595 7 583 3T544 -2H522Q503 -2 492 1T474 14L304 272L132 13Q127 4 115 1T84 -2H67Q17 -2 17 16Z" />
<glyph unicode="Y" glyph-name="Y" horiz-adv-x="559" d="M226 -2T226 23V352L20 664Q11 676 11 684Q11 702 62 702H83Q102 702 113 699T130 686L282 449L437 687Q447 702 487 702H502Q548 701 548 684Q548 677 540 664L333 349V23Q333 -2 287 -2H272Q226 -2 226 23Z" />
<glyph unicode="Z" glyph-name="Z" horiz-adv-x="616" d="M54 0T45 23T35 63Q35 71 38 75L426 608H90Q78 608 73 617T67 647V661Q67 682 72 691T90 700H547Q554 700 564 677T574 636Q574 630 571 625L183 92H549Q561 92 566 83T572 53V39Q572 18 567 9T549 0H63Q54
0 45 23Z" />
<glyph unicode="[" glyph-name="bracketleft" horiz-adv-x="291" d="M99 -138T91 -130T83 -105V735Q83 752 91 760T116 768H238Q250 768 255 761T261 736V728Q261 711 256 704T238 696H169V-66H238Q250 -66 255 -74T261 -99V-106Q261 -123 256 -130T238 -138H116Q99
-138 91 -130Z" />
<glyph unicode="\" glyph-name="backslash" horiz-adv-x="361" d="M287 -21T277 4L7 668Q4 676 4 683Q4 702 34 702H43Q75 702 85 677L355 13Q358 6 358 -2Q358 -11 351 -16T328 -21H318Q287 -21 277 4Z" />
<glyph unicode="]" glyph-name="bracketright" horiz-adv-x="291" d="M41 -138T36 -131T30 -106V-99Q30 -82 35 -74T53 -66H123V696H53Q41 696 36 703T30 728V736Q30 753 35 760T53 768H176Q193 768 201 760T209 735V-105Q209 -122 201 -130T176 -138H53Q41 -138
36 -131Z" />
<glyph unicode="^" glyph-name="asciicircum" horiz-adv-x="450" d="M63 319T56 324T48 339Q48 346 51 353L177 662Q182 675 190 680T214 685H237Q251 685 259 680T273 662L399 353Q402 346 402 339Q402 330 395 325T374 319H365Q335 319 325 344L225 590L124
344Q118 331 109 325T85 319H76Q63 319 56 324Z" />
<glyph unicode="_" glyph-name="underscore" horiz-adv-x="534" d="M-10 -139T-15 -133T-21 -111V-103Q-21 -74 2 -74H532Q555 -74 555 -103V-111Q555 -126 550 -132T532 -139H2Q-10 -139 -15 -133Z" />
<glyph unicode="`" glyph-name="grave" horiz-adv-x="320" d="M183 582T165 602Q155 613 143 626T118 654Q91 684 80 698T68 719Q68 727 80 730T120 733Q173 733 188 706L210 668Q228 637 238 619T248 594Q248 587 243 585T223 582Q183 582 165 602Z" />
<glyph unicode="a" glyph-name="a" horiz-adv-x="545" d="M135 -7T91 31T47 142Q47 243 131 283T366 325V368Q366 403 342 424T265 445Q224 445 194 436T142 416T117 405Q106 405 92 428T77 464Q77 478 103 493T173 519T266 530Q365 530 416 488T468 370V156Q468
89 474 59T480 25Q480 11 456 5T410 -1Q394 -1 388 14T378 46T373 69Q346 37 306 15T211 -7Q135 -7 91 31ZM272 79T305 97T366 146V246Q269 246 211 228T153 150Q153 116 172 98T228 79Q272 79 305 97Z" />
<glyph unicode="b" glyph-name="b" horiz-adv-x="569" d="M283 -7T245 12T175 68Q171 41 160 14Q157 5 149 2T124 -2H118Q80 -2 80 23V728Q80 753 125 753H136Q182 753 182 728V484Q211 506 242 518T313 530Q407 530 462 459T518 262Q518 182 495 121T428 27T326
-7Q283 -7 245 12ZM356 80T384 128T413 267Q413 353 382 398T290 443Q261 443 233 434T182 406V146Q208 115 239 98T302 80Q356 80 384 128Z" />
<glyph unicode="c" glyph-name="c" horiz-adv-x="485" d="M171 -7T110 57T49 262Q49 403 115 466T292 530Q350 530 398 515T447 477Q447 463 433 440T408 416Q407 416 395 421Q372 431 349 438T293 445Q226 445 192 402T157 265Q157 167 189 123T298 78Q333 78
358 85T407 104Q419 108 420 108Q431 108 445 86T459 50Q459 27 407 10T297 -7Q171 -7 110 57Z" />
<glyph unicode="d" glyph-name="d" horiz-adv-x="565" d="M184 -7T141 26T73 121T49 261Q49 345 74 405T146 498T254 530Q294 530 325 518T386 484V728Q386 753 431 753H442Q488 753 488 728V156Q488 89 494 59T500 25Q500 11 475 5T429 -1Q414 -1 408 14T398
45T393 68Q327 -7 241 -7Q184 -7 141 26ZM297 80T328 97T386 146V406Q338 443 278 443Q217 443 186 398T155 267Q155 177 183 129T266 80Q297 80 328 97Z" />
<glyph unicode="e" glyph-name="e" horiz-adv-x="539" d="M51 -7T51 258Q51 393 112 461T287 530Q392 530 444 462T496 269Q496 259 482 241T458 223H159Q165 147 200 113T302 78Q340 78 368 87T417 106T441 117Q452 117 466 94T481 60Q481 44 455 29T386 3T301
-7Q51 -7 51 258ZM391 303Q391 372 365 408T285 445Q172 445 159 303H391Z" />
<glyph unicode="f" glyph-name="f" horiz-adv-x="325" d="M100 -2T100 23V438H66Q54 438 49 446T43 474V487Q43 506 48 514T66 523H100V612Q100 692 138 724T234 757Q314 757 314 722Q314 711 307 689T290 667Q285 667 275 669T251 672Q227 672 215 659T202 607V523H278Q290
523 295 515T301 487V474Q301 455 296 447T278 438H202V23Q202 -2 156 -2H145Q100 -2 100 23Z" />
<glyph unicode="g" glyph-name="g" horiz-adv-x="546" d="M153 -212T97 -181T40 -84Q40 -42 64 -10T131 38L132 41Q91 71 91 121Q91 182 148 219Q107 240 85 277T63 362Q63 439 117 484T266 530Q295 530 330 523H506Q518 523 523 515T529 487V474Q529 455 524
447T507 439Q469 439 445 442L444 440Q467 408 467 362Q467 286 414 241T268 195Q183 195 183 138Q183 106 212 95T306 76Q330 74 340 72Q411 61 451 35T492 -56Q492 -130 431 -171T256 -212Q153 -212 97 -181ZM314 273T343 294T372 362Q372 409 343 430T265 451Q217
451 188 430T159 362Q159 315 188 294T265 273Q314 273 343 294ZM394 -130T394 -63Q394 -33 364 -22T270 -3Q217 4 197 8Q135 -18 135 -66Q135 -130 267 -130Q394 -130 394 -63Z" />
<glyph unicode="h" glyph-name="h" horiz-adv-x="565" d="M85 -2T85 23V728Q85 753 130 753H141Q187 753 187 728V461Q216 491 254 510T337 530Q403 530 448 493T493 368V23Q493 -2 447 -2H437Q391 -2 391 23V356Q391 397 368 419T300 442Q271 442 246 429T206
399T187 376V23Q187 -2 141 -2H130Q85 -2 85 23Z" />
<glyph unicode="i" glyph-name="i" horiz-adv-x="265" d="M80 609T80 637V696Q80 724 134 724Q186 724 186 696V637Q186 609 132 609Q80 609 80 637ZM82 -2T82 23V500Q82 525 128 525H138Q184 525 184 500V23Q184 -2 138 -2H128Q82 -2 82 23Z" />
<glyph unicode="j" glyph-name="j" horiz-adv-x="276" d="M90 609T90 637V696Q90 724 144 724Q196 724 196 696V637Q196 609 142 609Q90 609 90 637ZM24 -212T2 -205T-21 -176Q-21 -162 -14 -142T4 -122Q8 -122 18 -124T43 -127Q66 -127 79 -113T92 -62V500Q92
525 138 525H149Q195 525 195 500V-67Q195 -144 155 -178T61 -212Q24 -212 2 -205Z" />
<glyph unicode="k" glyph-name="k" horiz-adv-x="521" d="M493 18T493 12Q493 5 482 2T445 -2H431Q410 -2 396 1T375 13L192 248L188 247V23Q188 -2 143 -2H132Q86 -2 86 23V728Q86 753 132 753H143Q188 753 188 728V295H192L363 510Q376 525 419 525H432Q452
525 462 521T473 511Q473 502 463 491L292 277L485 30Q493 18 493 12Z" />
<glyph unicode="l" glyph-name="l" horiz-adv-x="297" d="M155 -7T116 26T77 138V728Q77 753 122 753H133Q179 753 179 728V143Q179 107 192 93T228 78Q242 78 251 80T266 83Q276 83 283 62T290 29Q290 -7 210 -7Q155 -7 116 26Z" />
<glyph unicode="m" glyph-name="m" horiz-adv-x="848" d="M687 530T731 493T776 368V23Q776 -2 730 -2H719Q673 -2 673 23V356Q673 397 652 419T588 442Q551 442 523 421T478 375V366V23Q478 -2 432 -2H422Q376 -2 376 23V356Q376 397 355 419T290 442Q262 442
238 429T199 400T181 377V23Q181 -2 135 -2H124Q78 -2 78 23V364Q78 430 72 460T66 494Q66 508 91 514T137 520Q152 520 159 505T169 475T174 454Q200 486 239 508T324 530Q371 530 409 512T464 449Q493 484 535 507T622 530Q687 530 731 493Z" />
<glyph unicode="n" glyph-name="n" horiz-adv-x="557" d="M79 -2T79 23V364Q79 430 73 460T67 494Q67 508 92 514T138 520Q153 520 159 506T169 476T174 454Q204 489 245 509T328 530Q404 530 445 488T487 368V23Q487 -2 441 -2H430Q384 -2 384 23V356Q384 397
361 419T294 442Q262 442 232 424T182 376V23Q182 -2 136 -2H125Q79 -2 79 23Z" />
<glyph unicode="o" glyph-name="o" horiz-adv-x="569" d="M171 -7T111 61T51 260Q51 390 112 460T286 530Q399 530 458 461T518 260Q518 130 459 62T286 -7Q171 -7 111 61ZM350 78T381 123T413 261Q413 354 382 399T284 445Q219 445 188 400T157 261Q157 168 187
123T284 78Q350 78 381 123Z" />
<glyph unicode="p" glyph-name="p" horiz-adv-x="573" d="M81 -207T81 -183V364Q81 430 75 460T69 494Q69 508 94 514T140 520Q155 520 162 506T172 476T177 455Q208 491 246 510T328 530Q387 530 430 497T497 402T520 261Q520 135 465 64T315 -7Q275 -7 244 5T184
39V-183Q184 -207 138 -207H127Q81 -207 81 -183ZM353 80T383 125T414 256Q414 346 386 394T304 443Q272 443 241 426T184 377V117Q230 80 292 80Q353 80 383 125Z" />
<glyph unicode="q" glyph-name="q" horiz-adv-x="566" d="M387 -207T387 -183V39Q358 17 327 5T256 -7Q161 -7 105 64T49 260Q49 340 73 401T141 496T243 530Q286 530 324 511T394 455Q402 491 409 509Q412 518 420 521T445 525H451Q490 525 490 500V-183Q490
-207 444 -207H433Q387 -207 387 -183ZM341 80T387 117V377Q361 408 330 425T267 443Q212 443 184 395T155 256Q155 170 186 125T279 80Q341 80 387 117Z" />
<glyph unicode="r" glyph-name="r" horiz-adv-x="366" d="M82 -2T82 23V364Q82 430 76 460T70 494Q70 508 95 514T141 520Q156 520 162 506T172 476T177 454Q228 530 291 530Q320 530 334 517T349 486Q349 468 342 446T326 424Q320 424 306 429T273 434Q242 434
219 414T184 376V23Q184 -2 139 -2H128Q82 -2 82 23Z" />
<glyph unicode="s" glyph-name="s" horiz-adv-x="413" d="M153 -9T116 1T57 26T34 56Q34 69 48 91T74 114Q76 114 94 104T135 85T187 77Q274 77 274 147Q274 178 252 195T178 230Q108 251 77 285T46 380Q46 447 93 488T216 530Q268 530 311 517T354 483Q354 468
342 445T318 422Q314 423 291 434T229 446Q194 446 172 432T150 391Q150 360 171 342T238 307Q291 289 320 270T363 223T377 152Q377 106 354 69T289 12T195 -9Q153 -9 116 1Z" />
<glyph unicode="t" glyph-name="t" horiz-adv-x="342" d="M177 -7T138 26T98 138V438H58Q46 438 41 446T35 474V487Q35 506 40 514T58 523H98L111 625Q114 650 149 650H165Q201 650 201 625V523H275Q287 523 292 515T298 487V474Q298 455 293 447T275 438H201V143Q201
107 213 93T250 78Q264 78 273 80T288 83Q298 83 305 62T312 29Q312 -7 232 -7Q177 -7 138 26Z" />
<glyph unicode="u" glyph-name="u" horiz-adv-x="557" d="M153 -7T112 35T70 155V500Q70 525 116 525H127Q173 525 173 500V167Q173 126 196 104T263 81Q295 81 325 99T375 147V500Q375 525 421 525H432Q478 525 478 500V156Q478 89 484 59T490 25Q490 11 465
5T419 -1Q404 -1 398 14T388 46T383 69Q354 34 313 14T229 -7Q153 -7 112 35Z" />
<glyph unicode="v" glyph-name="v" horiz-adv-x="485" d="M186 -2T181 15L20 492Q17 504 17 507Q17 525 65 525H78Q118 525 123 508L212 227Q222 199 245 103H249L258 142Q268 189 279 226L369 508Q374 525 414 525H424Q467 525 467 507Q467 502 464 491L304 15Q299
-2 259 -2H225Q186 -2 181 15Z" />
<glyph unicode="w" glyph-name="w" horiz-adv-x="747" d="M165 -2T161 15L31 487Q27 499 27 505Q27 525 77 525Q124 525 128 508L207 204Q211 192 216 158L226 103H230Q231 109 235 128Q247 192 250 205L328 507Q332 525 371 525H383Q423 525 427 507L505 204Q516
159 521 123Q523 115 525 101H527Q530 114 536 148Q538 157 541 175T547 203L625 508Q629 525 671 525Q718 525 718 505Q718 500 715 491L586 15Q584 6 572 2T541 -2H506Q466 -2 462 15L388 310Q385 320 378 363L375 385H372Q370 369 368 361Q365 327 360 310L285
15Q283 6 271 2T241 -2H205Q165 -2 161 15Z" />
<glyph unicode="x" glyph-name="x" horiz-adv-x="485" d="M16 -2T16 15Q16 23 25 35L183 267L36 487Q27 501 27 508Q27 525 78 525H93Q113 525 124 522T142 509L227 379L246 347Q250 352 254 360T266 379L352 510Q358 519 370 522T402 525H413Q461 525 461 508Q461
500 452 488L303 269L460 36Q469 23 469 15Q469 -2 418 -2H403Q383 -2 372 1T355 14L259 159L241 190Q231 173 222 159L125 13Q119 4 107 1T75 -2H64Q16 -2 16 15Z" />
<glyph unicode="y" glyph-name="y" horiz-adv-x="481" d="M466 525T466 507Q466 502 463 491L214 -186Q207 -207 165 -207H149Q108 -207 108 -190Q108 -187 113 -173L191 21L19 492Q16 504 16 507Q16 525 64 525H79Q118 525 123 508L213 261Q226 227 244 155H246L254
182Q268 231 278 261L366 508Q371 525 412 525H421Q466 525 466 507Z" />
<glyph unicode="z" glyph-name="z" horiz-adv-x="489" d="M51 0T43 21T34 58Q34 66 37 70L312 438H76Q64 438 59 446T53 474V487Q53 506 58 514T76 523H428Q435 523 442 502T450 464Q450 458 448 452L174 85H429Q441 85 446 77T452 49V36Q452 17 447 9T429 0H58Q51
0 43 21Z" />
<glyph unicode="{" glyph-name="braceleft" horiz-adv-x="274" d="M147 -138T121 -110T95 -22V145Q95 199 85 228T46 270Q32 276 26 285T19 308V322Q19 336 25 345T46 360Q75 373 85 402T95 485V652Q95 711 121 739T179 768H226Q238 768 243 761T249 736V729Q249
712 244 705T227 697H212Q193 697 187 684T180 643V469Q180 409 156 370T105 314Q131 301 155 262T180 161V-12Q180 -40 186 -53T211 -67H227Q238 -67 243 -74T249 -99V-106Q249 -123 244 -130T226 -138H179Q147 -138 121 -110Z" />
<glyph unicode="|" glyph-name="bar" horiz-adv-x="250" d="M88 -139T88 -115V745Q88 769 119 769H131Q162 769 162 745V-115Q162 -139 131 -139H119Q88 -139 88 -115Z" />
<glyph unicode="}" glyph-name="braceright" horiz-adv-x="274" d="M38 -138T33 -131T27 -106V-99Q27 -82 32 -75T49 -67H65Q83 -67 89 -54T96 -12V161Q96 223 120 262T171 314Q144 332 120 370T96 469V643Q96 671 90 684T64 697H48Q37 697 32 704T27 729V736Q27
753 32 760T50 768H97Q129 768 155 740T181 652V485Q181 431 191 402T230 360Q244 354 250 345T257 322V308Q257 294 251 285T230 270Q201 257 191 228T181 145V-22Q181 -82 155 -110T97 -138H50Q38 -138 33 -131Z" />
<glyph unicode="~" glyph-name="asciitilde" horiz-adv-x="547" d="M79 227Q63 233 63 244Q63 249 67 260Q97 332 169 332Q190 332 213 327T256 316T284 308Q316 298 337 293T375 287Q403 287 424 312Q436 328 450 328Q456 328 463 325L473 322Q491 318 491 306Q491
299 485 286Q457 212 390 212Q366 212 340 218T272 239Q238 250 216 256T175 262Q162 262 152 257T129 236Q116 222 105 222Q101 222 91 224L79 227Z" />
<glyph unicode="&#xa0;" glyph-name="uni00A0" horiz-adv-x="240" />
<glyph unicode="&#xa1;" glyph-name="exclamdown" horiz-adv-x="294" d="M91 402T91 427V500Q91 525 137 525H158Q204 525 204 500V427Q204 402 158 402H137Q91 402 91 427ZM72 -179T72 -156Q72 -138 83 11T106 290Q107 303 115 309T142 315H153Q173 315 181 309T189
290V-154Q189 -179 144 -179H117Q72 -179 72 -156Z" />
<glyph unicode="&#xa2;" glyph-name="cent" horiz-adv-x="486" d="M459 28T413 12T312 -7V-56Q312 -76 290 -76Q267 -76 267 -56V-6Q157 1 103 66T49 262Q49 394 108 458T267 529V564Q267 584 289 584Q312 584 312 564V529Q366 527 406 512T447 477Q447 463 433
440T408 416Q407 416 395 421Q374 430 356 436T312 444V78Q358 81 407 104Q419 108 420 108Q431 108 445 86T459 50Q459 28 413 12ZM157 177T183 133T267 80V443Q157 427 157 265Q157 177 183 133Z" />
<glyph unicode="&#xa3;" glyph-name="sterling" horiz-adv-x="491" d="M41 0T35 8T29 33V50Q29 62 36 69T60 86Q85 100 98 116T112 164V331H63Q51 331 46 339T40 367V380Q40 399 45 407T63 416H112V499Q112 707 324 707Q363 707 395 700T428 671Q428 657 420 636T400
614Q395 614 378 618T337 623Q273 623 243 595T213 504V416H349Q361 416 366 408T372 380V367Q372 348 367 340T349 331H213V250Q213 172 199 137T161 85H425Q437 85 442 77T447 49V36Q447 17 442 9T425 0H54Q41 0 35 8Z" />
<glyph unicode="&#xa4;" glyph-name="currency" horiz-adv-x="534" d="M101 123T92 132L82 142Q73 151 73 162Q73 172 84 185L107 208Q75 254 75 312Q75 369 108 418L83 442Q72 453 72 465Q72 475 80 483L92 496Q101 505 110 505Q119 505 133 493L158 468Q206
500 262 500Q318 500 366 468L391 493Q402 504 413 504Q424 504 433 494L444 484Q453 475 453 465Q453 453 442 442L417 416Q450 370 450 312Q450 255 417 209L441 185Q453 173 453 162Q453 158 450 153T442 142L433 132Q422 123 413 123Q401 123 390 134L367 158Q320
126 262 126Q203 126 158 157L134 133Q124 123 112 123Q101 123 92 132ZM308 202T340 234T373 312Q373 358 341 391T262 424Q216 424 184 392T152 312Q152 266 184 234T262 202Q308 202 340 234Z" />
<glyph unicode="&#xa5;" glyph-name="yen" horiz-adv-x="559" d="M548 677T540 664L379 419H491Q503 419 508 412T513 389V379Q513 363 508 356T491 349H333V262H491Q503 262 508 255T513 232V222Q513 206 508 199T491 192H333V23Q333 -2 287 -2H272Q226 -2 226
23V192H69Q57 192 52 199T46 222V232Q46 248 51 255T69 262H226V349H69Q57 349 52 356T46 379V389Q46 405 51 412T69 419H182L20 664Q11 676 11 684Q11 702 62 702H83Q102 702 113 699T130 686L282 449L437 687Q447 702 487 702H502Q548 701 548 684Q548 677 540
664Z" />
<glyph unicode="&#xa6;" glyph-name="brokenbar" horiz-adv-x="250" d="M88 396T88 421V745Q88 770 119 770H131Q162 770 162 745V421Q162 396 131 396H119Q88 396 88 421ZM88 -140T88 -115V208Q88 233 119 233H131Q162 233 162 208V-115Q162 -140 131 -140H119Q88
-140 88 -115Z" />
<glyph unicode="&#xa7;" glyph-name="section" horiz-adv-x="429" d="M156 -6T113 7T70 42Q70 55 82 78T105 102Q107 102 131 90T194 78Q231 78 249 92T268 130Q268 156 249 168T187 196Q179 198 163 204Q110 224 79 257T48 356Q48 391 61 420T96 470Q58 505 58
561Q58 632 105 669T225 707Q274 707 317 694T361 659Q361 645 349 622T326 599Q324 599 299 610T236 622Q200 622 182 608T163 570Q163 544 182 531T228 510T264 498Q319 478 350 446T382 345Q382 275 333 231Q372 197 372 141Q372 69 325 32T206 -6Q156 -6 113
7ZM284 289T284 341Q284 377 260 395T188 428Q146 409 146 361Q146 323 170 306T242 274Q284 289 284 341Z" />
<glyph unicode="&#xa8;" glyph-name="dieresis" horiz-adv-x="320" d="M37 599T37 624V677Q37 702 85 702Q131 702 131 677V624Q131 599 82 599Q37 599 37 624ZM191 599T191 624V677Q191 702 240 702Q285 702 285 677V624Q285 599 237 599Q191 599 191 624Z" />
<glyph unicode="&#xa9;" glyph-name="copyright" horiz-adv-x="739" d="M271 -6T189 42T58 172T10 353Q10 451 58 532T188 661T369 709Q467 709 549 662T679 533T728 353Q728 255 680 173T549 42T369 -6Q271 -6 189 42ZM452 47T522 88T634 199T676 353Q676 436
635 506T523 616T369 657Q286 657 216 617T104 506T63 353Q63 270 104 200T215 88T369 47Q452 47 522 88ZM287 141T241 192T194 350Q194 559 386 559Q428 559 464 548T501 522Q501 512 492 497T475 481Q474 481 451 493T386 506Q321 506 290 468T258 350Q258 271
289 233T384 194Q412 194 432 200T467 214T483 222Q490 222 499 207T508 185Q508 169 469 155T384 141Q287 141 241 192Z" />
<glyph unicode="&#xaa;" glyph-name="ordfeminine" horiz-adv-x="319" d="M88 441T66 460T44 514Q44 564 85 584T203 605V627Q203 644 191 654T152 664Q121 664 102 655T79 645Q73 645 66 656T59 674Q59 685 88 696T153 707Q202 707 227 686T253 627V521Q253 489
256 474T259 456Q259 450 247 447T224 444Q216 444 212 453T206 478Q193 463 173 452T125 441Q88 441 66 460ZM173 484T203 516V566Q153 566 125 557T97 519Q97 484 134 484Q173 484 203 516Z" />
<glyph unicode="&#xab;" glyph-name="guillemotleft" horiz-adv-x="471" d="M195 57T182 70L53 225Q39 242 39 258Q39 274 53 291L182 446Q194 458 206 458Q218 458 232 446T247 421Q247 412 239 401L128 258L239 114Q247 103 247 94Q247 83 233 70T206 57Q195
57 182 70ZM373 57T362 70L233 225Q219 242 219 258Q219 274 233 291L362 446Q373 458 385 458Q397 458 412 446T427 421Q427 412 419 401L308 258L419 114Q427 103 427 94Q427 83 413 70T385 57Q373 57 362 70Z" />
<glyph unicode="&#xac;" glyph-name="logicalnot" horiz-adv-x="560" d="M444 76T444 100V258H59Q47 258 42 266T36 294V305Q36 324 41 332T59 341H491Q508 341 516 333T524 308V100Q524 76 491 76H476Q444 76 444 100Z" />
<glyph unicode="&#xad;" glyph-name="uni00AD" horiz-adv-x="320" d="M51 225T46 233T40 261V270Q40 289 45 297T63 305H254Q266 305 271 297T276 270V261Q276 242 271 234T254 225H63Q51 225 46 233Z" />
<glyph unicode="&#xae;" glyph-name="registered" horiz-adv-x="739" d="M271 -6T189 42T58 172T10 353Q10 451 58 532T188 661T369 709Q467 709 549 662T680 533T728 353Q728 255 680 173T550 42T369 -6Q271 -6 189 42ZM452 47T522 88T634 199T676 353Q676 436
635 506T523 616T369 657Q286 657 216 617T105 506T63 353Q63 270 104 200T216 88T369 47Q452 47 522 88ZM247 148T247 163V537Q247 556 266 556H368Q439 556 474 531T509 452Q509 416 491 392T442 355V352Q458 346 469 330T491 285L538 167Q540 163 540 158Q540
148 513 148H502Q481 148 476 158L432 272Q420 301 403 312T353 323H309V163Q309 148 282 148H274Q247 148 247 163ZM380 376Q407 376 426 395T445 441Q445 472 427 487T376 503H309V376H380Z" />
<glyph unicode="&#xaf;" glyph-name="overscore" horiz-adv-x="320" d="M36 608T31 616T25 641V652Q25 669 30 677T48 685H269Q281 685 286 677T292 652V641Q292 624 287 616T269 608H48Q36 608 31 616Z" />
<glyph unicode="&#xb0;" glyph-name="degree" horiz-adv-x="345" d="M134 442T104 459T56 507T38 574Q38 610 56 640T104 689T170 707Q206 707 236 689T285 641T303 574Q303 538 285 508T237 460T170 442Q134 442 104 459ZM202 491T225 515T249 574Q249 608 226
632T170 657Q138 657 115 633T92 574Q92 540 115 516T170 491Q202 491 225 515Z" />
<glyph unicode="&#xb1;" glyph-name="plusminus" horiz-adv-x="560" d="M240 129T240 159V323H76Q46 323 46 358V365Q46 401 76 401H240V566Q240 596 276 596H285Q320 596 320 566V401H484Q514 401 514 365V358Q514 323 484 323H320V159Q320 129 285 129H276Q240
129 240 159ZM39 0T39 36V47Q39 83 69 83H491Q521 83 521 47V36Q521 0 491 0H69Q39 0 39 36Z" />
<glyph unicode="&#xb2;" glyph-name="uni00B2" horiz-adv-x="320" d="M36 293T33 304T29 326Q29 334 31 336L181 523Q202 552 208 566T215 599Q215 626 197 641T148 656Q126 656 111 650T82 636T66 628Q59 628 51 639T43 660Q43 679 79 692T151 706Q209 706 242
678T276 602Q276 576 269 556T240 507T171 419L109 342H268Q281 342 281 322V314Q281 293 268 293H42Q36 293 33 304Z" />
<glyph unicode="&#xb3;" glyph-name="uni00B3" horiz-adv-x="320" d="M109 288T72 299T35 326Q35 335 43 347T58 360Q61 360 87 349T149 338Q179 338 202 356T225 412Q225 451 205 468T143 485H124Q111 485 111 506V513Q111 534 124 534H140Q177 534 195 555T213
603Q213 625 198 641T149 657Q114 657 93 648T69 638Q63 638 55 651T47 672Q47 687 82 697T154 707Q209 707 241 680T274 603Q274 574 258 553T215 521V519Q246 509 266 481T287 411Q287 350 249 319T156 288Q109 288 72 299Z" />
<glyph unicode="&#xb4;" glyph-name="acute" horiz-adv-x="320" d="M80 582T74 584T68 594Q68 600 78 618T106 668L128 706Q137 721 153 727T197 733Q224 733 236 730T248 719Q248 712 236 697T168 621L151 602Q133 582 94 582Q80 582 74 584Z" />
<glyph unicode="&#xb5;" glyph-name="uni00B5" horiz-adv-x="566" d="M483 89T489 59T495 25Q495 11 471 5T425 -1Q409 -1 403 14T393 46T388 69Q359 34 318 14T234 -7Q205 -7 178 1V-183Q178 -195 167 -201T132 -207H122Q76 -207 76 -183V500Q76 525 122 525H132Q178
525 178 500V167Q178 126 201 104T268 81Q300 81 330 99T381 147V500Q381 525 427 525H438Q483 525 483 500V156Q483 89 489 59Z" />
<glyph unicode="&#xb6;" glyph-name="paragraph" horiz-adv-x="515" d="M243 -172T243 -148V247Q187 253 141 285T68 366T41 473Q41 536 71 588T154 670T268 700H478Q501 700 501 674V663Q501 638 478 638H445V-148Q445 -160 439 -166T419 -172H409Q383 -172 383
-148V638H305V-148Q305 -160 299 -166T279 -172H269Q243 -172 243 -148Z" />
<glyph unicode="&#xb7;" glyph-name="middot" horiz-adv-x="267" d="M117 303T101 319T85 360Q85 384 101 400T141 417Q165 417 181 401T198 360Q198 336 182 320T141 303Q117 303 101 319Z" />
<glyph unicode="&#xb8;" glyph-name="cedilla" horiz-adv-x="320" d="M221 -45T248 -61T276 -118Q276 -211 160 -211Q119 -211 80 -198T40 -166Q40 -152 46 -143T63 -134Q72 -134 90 -142Q123 -155 148 -155Q196 -155 196 -125Q196 -111 187 -104T160 -91Q146
-86 140 -82T134 -70Q134 -59 154 3H204L191 -45Q221 -45 248 -61Z" />
<glyph unicode="&#xb9;" glyph-name="uni00B9" horiz-adv-x="217" d="M137 296T130 300T123 311V642L48 627Q41 627 38 638T34 662Q34 672 45 675L162 703Q169 703 175 699T182 690V311Q182 304 175 300T156 296H148Q137 296 130 300Z" />
<glyph unicode="&#xba;" glyph-name="ordmasculine" horiz-adv-x="337" d="M112 441T83 474T53 573Q53 638 83 672T169 707Q225 707 254 673T284 573Q284 508 255 475T169 441Q112 441 83 474ZM201 483T216 505T232 574Q232 620 217 642T168 664Q136 664 121 642T105
574Q105 528 120 506T168 483Q201 483 216 505Z" />
<glyph unicode="&#xbb;" glyph-name="guillemotright" horiz-adv-x="471" d="M79 57T65 70T51 94Q51 103 59 114L170 258L59 401Q51 412 51 421Q51 434 65 446T92 458Q104 458 116 446L245 291Q259 274 259 258Q259 242 245 225L116 70Q103 57 92 57Q79 57 65
70ZM259 57T245 70T230 94Q230 104 239 114L349 258L239 401Q230 412 230 421Q230 434 245 446T272 458Q284 458 296 446L425 291Q439 274 439 258Q439 242 425 225L296 70Q283 57 272 57Q259 57 245 70Z" />
<glyph unicode="&#xbc;" glyph-name="onequarter" horiz-adv-x="671" d="M137 296T130 300T123 311V642L48 627Q41 627 38 638T34 662Q34 672 45 675L162 703Q169 703 175 699T182 690V311Q182 304 175 300T156 296H148Q137 296 130 300ZM96 -1T96 7Q96 11 101
18L493 683Q505 702 528 702H542Q558 702 558 694Q558 690 553 683L161 18Q150 -1 127 -1H112Q96 -1 96 7ZM528 -2T528 12V91H359Q354 91 349 104T343 128Q343 133 344 134L529 396Q537 405 554 405H565Q587 405 587 390V141H621Q634 141 634 120V112Q634 91 621
91H587V12Q587 -2 565 -2H550Q528 -2 528 12ZM528 141V294Q528 295 532 315L529 316L409 141H528Z" />
<glyph unicode="&#xbd;" glyph-name="onehalf" horiz-adv-x="746" d="M137 296T130 300T123 311V642L48 627Q41 627 38 638T34 662Q34 672 45 675L162 703Q169 703 175 699T182 690V311Q182 304 175 300T156 296H148Q137 296 130 300ZM96 -1T96 7Q96 11 101 18L493
683Q505 702 528 702H542Q558 702 558 694Q558 690 553 683L161 18Q150 -1 127 -1H112Q96 -1 96 7ZM448 0T445 11T441 33Q441 41 443 43L593 230Q614 259 620 273T627 306Q627 333 609 348T560 363Q538 363 523 357T494 343T478 335Q471 335 463 346T455 367Q455
386 491 399T563 413Q621 413 654 385T688 309Q688 283 681 263T652 214T583 126L521 49H680Q693 49 693 29V21Q693 0 680 0H454Q448 0 445 11Z" />
<glyph unicode="&#xbe;" glyph-name="threequarters" horiz-adv-x="743" d="M109 288T72 299T35 326Q35 335 43 347T58 360Q61 360 87 349T149 338Q179 338 202 356T225 412Q225 451 205 468T143 485H124Q111 485 111 506V513Q111 534 124 534H140Q177 534 195
555T213 603Q213 625 198 641T149 657Q114 657 93 648T69 638Q63 638 55 651T47 672Q47 687 82 697T154 707Q209 707 241 680T274 603Q274 574 258 553T215 521V519Q246 509 266 481T287 411Q287 350 249 319T156 288Q109 288 72 299ZM158 -1T158 7Q158 8 163 18L555
683Q567 702 590 702H604Q620 702 620 694Q620 690 615 683L223 18Q212 -1 188 -1H174Q158 -1 158 7ZM593 -2T593 12V91H424Q419 91 414 104T408 128Q408 133 409 134L594 396Q602 405 619 405H630Q652 405 652 390V141H686Q699 141 699 120V112Q699 91 686 91H652V12Q652
-2 630 -2H615Q593 -2 593 12ZM593 141V294Q593 295 597 315L594 316L474 141H593Z" />
<glyph unicode="&#xbf;" glyph-name="questiondown" horiz-adv-x="425" d="M320 525T320 500V427Q320 402 275 402H253Q208 402 208 427V500Q208 525 253 525H275Q320 525 320 500ZM307 315T307 290Q307 255 286 215T226 135Q175 82 154 55T133 -3Q133 -93 244
-93Q272 -93 294 -86T341 -68Q346 -66 353 -63T365 -60Q376 -60 391 -83T406 -120Q406 -148 349 -166T229 -184Q164 -184 117 -162T46 -100T21 -13Q21 36 45 73T115 155Q164 202 187 230T215 293Q217 305 225 310T254 315H271Q307 315 307 290Z" />
<glyph unicode="&#xc0;" glyph-name="Agrave" horiz-adv-x="613" d="M9 -2T9 16Q9 22 12 32L244 685Q250 702 289 702H324Q363 702 369 685L601 31Q604 22 604 16Q604 -2 559 -2H541Q503 -2 496 15L443 167H166L114 15Q107 -2 72 -2H57Q9 -2 9 16ZM411 259L320
523Q316 537 313 556T307 583H305Q297 541 290 523L198 259H411ZM297 759T279 779Q269 790 257 803T232 831Q205 861 194 875T182 896Q182 904 194 907T234 910Q287 910 302 883L324 845Q342 814 352 796T362 771Q362 764 357 762T337 759Q297 759 279 779Z" />
<glyph unicode="&#xc1;" glyph-name="Aacute" horiz-adv-x="613" d="M9 -2T9 16Q9 22 12 32L244 685Q250 702 289 702H324Q363 702 369 685L601 31Q604 22 604 16Q604 -2 559 -2H541Q503 -2 496 15L443 167H166L114 15Q107 -2 72 -2H57Q9 -2 9 16ZM411 259L320
523Q316 537 313 556T307 583H305Q297 541 290 523L198 259H411ZM274 759T268 761T262 771Q262 777 272 795T300 845L322 883Q331 898 347 904T391 910Q418 910 430 907T442 896Q442 889 430 874T362 798L345 779Q327 759 288 759Q274 759 268 761Z" />
<glyph unicode="&#xc2;" glyph-name="Acircumflex" horiz-adv-x="613" d="M9 -2T9 16Q9 22 12 32L244 685Q250 702 289 702H324Q363 702 369 685L601 31Q604 22 604 16Q604 -2 559 -2H541Q503 -2 496 15L443 167H166L114 15Q107 -2 72 -2H57Q9 -2 9 16ZM411 259L320
523Q316 537 313 556T307 583H305Q297 541 290 523L198 259H411ZM181 752T181 765Q181 772 187 782L246 874Q259 895 296 895H317Q354 895 367 874L427 782Q433 773 433 765Q433 752 410 752H402Q374 752 359 768L306 832L255 768Q239 752 211 752H203Q181 752
181 765Z" />
<glyph unicode="&#xc3;" glyph-name="Atilde" horiz-adv-x="613" d="M9 -2T9 16Q9 22 12 32L244 685Q250 702 289 702H324Q363 702 369 685L601 31Q604 22 604 16Q604 -2 559 -2H541Q503 -2 496 15L443 167H166L114 15Q107 -2 72 -2H57Q9 -2 9 16ZM411 259L320
523Q316 537 313 556T307 583H305Q297 541 290 523L198 259H411ZM144 769Q130 775 130 786Q130 789 134 799Q160 868 231 868Q249 868 269 863T322 847Q342 840 361 835T394 829Q406 829 416 834T435 854Q446 870 457 870Q463 870 468 867L477 864Q491 860 491
848Q491 842 488 834Q460 765 392 765Q373 765 353 770T299 786Q279 793 259 798T225 804Q214 804 205 799T185 778Q175 763 165 763Q160 763 154 766L144 769Z" />
<glyph unicode="&#xc4;" glyph-name="Adieresis" horiz-adv-x="613" d="M9 -2T9 16Q9 22 12 32L244 685Q250 702 289 702H324Q363 702 369 685L601 31Q604 22 604 16Q604 -2 559 -2H541Q503 -2 496 15L443 167H166L114 15Q107 -2 72 -2H57Q9 -2 9 16ZM411 259L320
523Q316 537 313 556T307 583H305Q297 541 290 523L198 259H411ZM183 776T183 801V854Q183 879 231 879Q277 879 277 854V801Q277 776 228 776Q183 776 183 801ZM337 776T337 801V854Q337 879 386 879Q431 879 431 854V801Q431 776 383 776Q337 776 337 801Z" />
<glyph unicode="&#xc5;" glyph-name="Aring" horiz-adv-x="613" d="M9 -2T9 16Q9 22 12 32L244 685Q250 702 289 702H324Q363 702 369 685L601 31Q604 22 604 16Q604 -2 559 -2H541Q503 -2 496 15L443 167H166L114 15Q107 -2 72 -2H57Q9 -2 9 16ZM411 259L320
523Q316 537 313 556T307 583H305Q297 541 290 523L198 259H411ZM269 737T244 762T218 825Q218 863 243 889T306 915Q343 915 369 889T395 825Q395 788 369 763T306 737Q269 737 244 762ZM326 780T339 793T352 825Q352 845 339 858T306 871Q287 871 274 858T261
825Q261 806 273 793T306 780Q326 780 339 793Z" />
<glyph unicode="&#xc6;" glyph-name="AE" horiz-adv-x="915" d="M-8 -2T-8 16Q-8 25 -4 33L317 673Q325 687 335 693T361 700H811Q823 700 828 692T834 664V644Q834 625 829 617T811 608H462L506 404H782Q794 404 799 396T805 368V348Q805 329 800 321T782 312H525L571
92H812Q824 92 829 84T835 56V36Q835 17 830 9T812 0H513Q497 0 489 7T477 29L448 167H168L94 15Q85 -2 52 -2H38Q-8 -2 -8 16ZM429 259L374 524L371 589H369L345 524L215 259H429Z" />
<glyph unicode="&#xc7;" glyph-name="Ccedilla" horiz-adv-x="619" d="M556 132T565 120T582 92T589 69Q589 49 556 32Q528 16 482 5T387 -7L377 -45Q407 -45 434 -61T462 -118Q462 -211 346 -211Q305 -211 266 -198T226 -166Q226 -152 232 -143T249 -134Q258
-134 276 -142Q309 -155 334 -155Q382 -155 382 -125Q382 -111 373 -104T346 -91Q332 -86 326 -82T320 -70Q320 -60 337 -6Q192 4 123 91T54 351Q54 707 380 707Q429 707 476 697T552 670Q577 655 577 642Q577 626 562 600T534 574Q531 574 509 585T455 605T381
614Q270 614 217 551T164 350Q164 215 216 150T378 85Q426 85 461 96T528 124Q542 132 547 132Q556 132 565 120Z" />
<glyph unicode="&#xc8;" glyph-name="Egrave" horiz-adv-x="546" d="M107 0T99 8T91 33V667Q91 684 99 692T124 700H473Q485 700 490 692T496 664V644Q496 625 491 617T473 608H198V404H444Q456 404 461 396T467 368V348Q467 329 462 321T444 312H198V92H474Q486
92 491 84T497 56V36Q497 17 492 9T474 0H124Q107 0 99 8ZM288 759T270 779Q260 790 248 803T223 831Q196 861 185 875T173 896Q173 904 185 907T225 910Q278 910 293 883L315 845Q333 814 343 796T353 771Q353 764 348 762T328 759Q288 759 270 779Z" />
<glyph unicode="&#xc9;" glyph-name="Eacute" horiz-adv-x="546" d="M107 0T99 8T91 33V667Q91 684 99 692T124 700H473Q485 700 490 692T496 664V644Q496 625 491 617T473 608H198V404H444Q456 404 461 396T467 368V348Q467 329 462 321T444 312H198V92H474Q486
92 491 84T497 56V36Q497 17 492 9T474 0H124Q107 0 99 8ZM265 759T259 761T253 771Q253 777 263 795T291 845L313 883Q322 898 338 904T382 910Q409 910 421 907T433 896Q433 889 421 874T353 798L336 779Q318 759 279 759Q265 759 259 761Z" />
<glyph unicode="&#xca;" glyph-name="Ecircumflex" horiz-adv-x="546" d="M107 0T99 8T91 33V667Q91 684 99 692T124 700H473Q485 700 490 692T496 664V644Q496 625 491 617T473 608H198V404H444Q456 404 461 396T467 368V348Q467 329 462 321T444 312H198V92H474Q486
92 491 84T497 56V36Q497 17 492 9T474 0H124Q107 0 99 8ZM171 752T171 765Q171 772 177 782L236 874Q249 895 286 895H307Q344 895 357 874L417 782Q423 773 423 765Q423 752 400 752H392Q364 752 349 768L296 832L245 768Q229 752 201 752H193Q171 752 171 765Z"
/>
<glyph unicode="&#xcb;" glyph-name="Edieresis" horiz-adv-x="546" d="M107 0T99 8T91 33V667Q91 684 99 692T124 700H473Q485 700 490 692T496 664V644Q496 625 491 617T473 608H198V404H444Q456 404 461 396T467 368V348Q467 329 462 321T444 312H198V92H474Q486
92 491 84T497 56V36Q497 17 492 9T474 0H124Q107 0 99 8ZM174 776T174 801V854Q174 879 222 879Q268 879 268 854V801Q268 776 219 776Q174 776 174 801ZM328 776T328 801V854Q328 879 377 879Q422 879 422 854V801Q422 776 374 776Q328 776 328 801Z" />
<glyph unicode="&#xcc;" glyph-name="Igrave" horiz-adv-x="283" d="M87 -2T87 23V677Q87 702 133 702H149Q195 702 195 677V23Q195 -2 149 -2H133Q87 -2 87 23ZM131 759T113 779Q103 790 91 803T66 831Q39 861 28 875T16 896Q16 904 28 907T68 910Q121 910 136
883L158 845Q176 814 186 796T196 771Q196 764 191 762T171 759Q131 759 113 779Z" />
<glyph unicode="&#xcd;" glyph-name="Iacute" horiz-adv-x="282" d="M87 -2T87 23V677Q87 702 133 702H149Q195 702 195 677V23Q195 -2 149 -2H133Q87 -2 87 23ZM109 759T103 761T97 771Q97 777 107 795T135 845L157 883Q166 898 182 904T226 910Q253 910 265
907T277 896Q277 889 265 874T197 798L180 779Q162 759 123 759Q109 759 103 761Z" />
<glyph unicode="&#xce;" glyph-name="Icircumflex" horiz-adv-x="282" d="M87 -2T87 23V677Q87 702 133 702H149Q195 702 195 677V23Q195 -2 149 -2H133Q87 -2 87 23ZM15 752T15 765Q15 772 21 782L80 874Q93 895 130 895H151Q188 895 201 874L261 782Q267 773
267 765Q267 752 244 752H236Q208 752 193 768L140 832L89 768Q73 752 45 752H37Q15 752 15 765Z" />
<glyph unicode="&#xcf;" glyph-name="Idieresis" horiz-adv-x="283" d="M87 -2T87 23V677Q87 702 133 702H149Q195 702 195 677V23Q195 -2 149 -2H133Q87 -2 87 23ZM17 776T17 801V854Q17 879 65 879Q111 879 111 854V801Q111 776 62 776Q17 776 17 801ZM171 776T171
801V854Q171 879 220 879Q265 879 265 854V801Q265 776 217 776Q171 776 171 801Z" />
<glyph unicode="&#xd0;" glyph-name="Eth" horiz-adv-x="696" d="M473 700T557 615T641 350Q641 171 557 86T329 0H124Q107 0 99 8T91 33V312H26Q14 312 9 320T3 347V367Q3 386 8 394T26 403H91V667Q91 684 99 692T124 700H329Q473 700 557 615ZM419 92T475 155T531
350Q531 481 475 544T324 608H198V403H284Q296 403 301 395T306 367V347Q306 328 301 320T284 312H198V92H324Q419 92 475 155Z" />
<glyph unicode="&#xd1;" glyph-name="Ntilde" horiz-adv-x="719" d="M84 -2T84 23V677Q84 702 130 702H157Q175 702 186 698T206 681L494 243Q512 217 528 184L532 185Q530 208 530 253V677Q530 702 576 702H589Q635 702 635 677V23Q635 -2 589 -2H564Q547 -2
537 2T520 16L225 463Q208 487 191 523L187 522Q189 499 189 454V23Q189 -2 143 -2H130Q84 -2 84 23ZM197 769Q183 775 183 786Q183 789 187 799Q213 868 284 868Q302 868 322 863T375 847Q395 840 414 835T447 829Q459 829 469 834T488 854Q499 870 510 870Q516
870 521 867L530 864Q544 860 544 848Q544 842 541 834Q513 765 445 765Q426 765 406 770T352 786Q332 793 312 798T278 804Q267 804 258 799T238 778Q228 763 218 763Q213 763 207 766L197 769Z" />
<glyph unicode="&#xd2;" glyph-name="Ograve" horiz-adv-x="731" d="M214 -7T134 85T54 351Q54 526 134 616T365 707Q518 707 597 617T677 351Q677 176 597 85T365 -7Q214 -7 134 85ZM463 85T515 153T567 351Q567 481 516 547T365 614Q266 614 215 548T164 351Q164
221 215 153T365 85Q463 85 515 153ZM356 759T338 779Q328 790 316 803T291 831Q264 861 253 875T241 896Q241 904 253 907T293 910Q346 910 361 883L383 845Q401 814 411 796T421 771Q421 764 416 762T396 759Q356 759 338 779Z" />
<glyph unicode="&#xd3;" glyph-name="Oacute" horiz-adv-x="731" d="M214 -7T134 85T54 351Q54 526 134 616T365 707Q518 707 597 617T677 351Q677 176 597 85T365 -7Q214 -7 134 85ZM463 85T515 153T567 351Q567 481 516 547T365 614Q266 614 215 548T164 351Q164
221 215 153T365 85Q463 85 515 153ZM333 759T327 761T321 771Q321 777 331 795T359 845L381 883Q390 898 406 904T450 910Q477 910 489 907T501 896Q501 889 489 874T421 798L404 779Q386 759 347 759Q333 759 327 761Z" />
<glyph unicode="&#xd4;" glyph-name="Ocircumflex" horiz-adv-x="731" d="M214 -7T134 85T54 351Q54 526 134 616T365 707Q518 707 597 617T677 351Q677 176 597 85T365 -7Q214 -7 134 85ZM463 85T515 153T567 351Q567 481 516 547T365 614Q266 614 215 548T164
351Q164 221 215 153T365 85Q463 85 515 153ZM240 752T240 765Q240 772 246 782L305 874Q318 895 355 895H376Q413 895 426 874L486 782Q492 773 492 765Q492 752 469 752H461Q433 752 418 768L365 832L314 768Q298 752 270 752H262Q240 752 240 765Z" />
<glyph unicode="&#xd5;" glyph-name="Otilde" horiz-adv-x="731" d="M214 -7T134 85T54 351Q54 526 134 616T365 707Q518 707 597 617T677 351Q677 176 597 85T365 -7Q214 -7 134 85ZM463 85T515 153T567 351Q567 481 516 547T365 614Q266 614 215 548T164 351Q164
221 215 153T365 85Q463 85 515 153ZM203 769Q189 775 189 786Q189 789 193 799Q219 868 290 868Q308 868 328 863T381 847Q401 840 420 835T453 829Q465 829 475 834T494 854Q505 870 516 870Q522 870 527 867L536 864Q550 860 550 848Q550 842 547 834Q519 765
451 765Q432 765 412 770T358 786Q338 793 318 798T284 804Q273 804 264 799T244 778Q234 763 224 763Q219 763 213 766L203 769Z" />
<glyph unicode="&#xd6;" glyph-name="Odieresis" horiz-adv-x="731" d="M214 -7T134 85T54 351Q54 526 134 616T365 707Q518 707 597 617T677 351Q677 176 597 85T365 -7Q214 -7 134 85ZM463 85T515 153T567 351Q567 481 516 547T365 614Q266 614 215 548T164
351Q164 221 215 153T365 85Q463 85 515 153ZM242 776T242 801V854Q242 879 290 879Q336 879 336 854V801Q336 776 287 776Q242 776 242 801ZM396 776T396 801V854Q396 879 445 879Q490 879 490 854V801Q490 776 442 776Q396 776 396 801Z" />
<glyph unicode="&#xd7;" glyph-name="multiply" horiz-adv-x="560" d="M497 67Q505 59 505 52Q505 43 493 31L478 16Q465 3 457 3Q450 3 442 11L278 177L114 11Q104 3 98 3Q89 3 78 16L63 31Q50 44 50 52Q50 60 59 67L222 232L59 396Q50 404 50 412Q50 421 63
432L78 448Q88 460 98 460Q104 460 114 452L278 287L442 452Q450 460 457 460Q466 460 478 448L493 432Q505 422 505 412Q505 404 497 396L333 232L497 67Z" />
<glyph unicode="&#xd8;" glyph-name="Oslash" horiz-adv-x="731" d="M677 513T677 351Q677 176 597 85T365 -7Q219 -7 139 79L75 7Q67 -3 59 -3Q51 -3 41 7T30 25Q30 34 37 41L108 120Q54 207 54 351Q54 526 134 616T365 707Q496 707 574 640L627 699Q635 708
643 708Q652 708 662 699T673 681Q673 676 666 665L609 602Q677 513 677 351ZM164 264T186 207L503 561Q453 614 365 614Q266 614 215 548T164 351Q164 264 186 207ZM463 85T515 153T567 351Q567 455 534 518L211 159Q262 85 365 85Q463 85 515 153Z" />
<glyph unicode="&#xd9;" glyph-name="Ugrave" horiz-adv-x="712" d="M223 -7T151 54T78 227V677Q78 702 124 702H139Q185 702 185 677V228Q185 165 233 125T356 85Q405 85 444 103T505 154T527 228V677Q527 702 573 702H588Q634 702 634 677V227Q634 116 562 55T356
-7Q223 -7 151 54ZM346 759T328 779Q318 790 306 803T281 831Q254 861 243 875T231 896Q231 904 243 907T283 910Q336 910 351 883L373 845Q391 814 401 796T411 771Q411 764 406 762T386 759Q346 759 328 779Z" />
<glyph unicode="&#xda;" glyph-name="Uacute" horiz-adv-x="712" d="M223 -7T151 54T78 227V677Q78 702 124 702H139Q185 702 185 677V228Q185 165 233 125T356 85Q405 85 444 103T505 154T527 228V677Q527 702 573 702H588Q634 702 634 677V227Q634 116 562 55T356
-7Q223 -7 151 54ZM323 759T317 761T311 771Q311 777 321 795T349 845L371 883Q380 898 396 904T440 910Q467 910 479 907T491 896Q491 889 479 874T411 798L394 779Q376 759 337 759Q323 759 317 761Z" />
<glyph unicode="&#xdb;" glyph-name="Ucircumflex" horiz-adv-x="712" d="M223 -7T151 54T78 227V677Q78 702 124 702H139Q185 702 185 677V228Q185 165 233 125T356 85Q405 85 444 103T505 154T527 228V677Q527 702 573 702H588Q634 702 634 677V227Q634 116
562 55T356 -7Q223 -7 151 54ZM230 752T230 765Q230 772 236 782L295 874Q308 895 345 895H366Q403 895 416 874L476 782Q482 773 482 765Q482 752 459 752H451Q423 752 408 768L355 832L304 768Q288 752 260 752H252Q230 752 230 765Z" />
<glyph unicode="&#xdc;" glyph-name="Udieresis" horiz-adv-x="712" d="M223 -7T151 54T78 227V677Q78 702 124 702H139Q185 702 185 677V228Q185 165 233 125T356 85Q405 85 444 103T505 154T527 228V677Q527 702 573 702H588Q634 702 634 677V227Q634 116 562
55T356 -7Q223 -7 151 54ZM232 776T232 801V854Q232 879 280 879Q326 879 326 854V801Q326 776 277 776Q232 776 232 801ZM386 776T386 801V854Q386 879 435 879Q480 879 480 854V801Q480 776 432 776Q386 776 386 801Z" />
<glyph unicode="&#xdd;" glyph-name="Yacute" horiz-adv-x="559" d="M226 -2T226 23V352L20 664Q11 676 11 684Q11 702 62 702H83Q102 702 113 699T130 686L282 449L437 687Q447 702 487 702H502Q548 701 548 684Q548 677 540 664L333 349V23Q333 -2 287 -2H272Q226
-2 226 23ZM247 759T241 761T235 771Q235 777 245 795T273 845L295 883Q304 898 320 904T364 910Q391 910 403 907T415 896Q415 889 403 874T335 798L318 779Q300 759 261 759Q247 759 241 761Z" />
<glyph unicode="&#xde;" glyph-name="Thorn" horiz-adv-x="570" d="M80 -2T80 23V677Q80 702 126 702H142Q187 702 187 677V582H318Q408 582 477 540T546 380Q546 296 507 249T418 186T328 170H187V23Q187 -2 142 -2H126Q80 -2 80 23ZM324 262Q365 262 400 288T435
380Q435 441 400 465T314 490H187V262H324Z" />
<glyph unicode="&#xdf;" glyph-name="germandbls" horiz-adv-x="554" d="M81 -2T81 23V512Q81 569 107 613T179 682T287 707Q379 707 435 665T492 534Q492 488 465 447T392 387V384Q454 366 486 320T519 207Q519 143 491 97T413 25T299 0H270Q258 0 253 8T247
36V49Q247 68 252 76T270 85H297Q348 85 381 118T414 207Q414 264 381 298T294 332H270Q258 332 253 340T247 367V381Q247 417 269 417H277Q321 417 353 448T385 523Q385 572 357 595T285 619Q238 619 211 591T183 516V23Q183 -2 137 -2H127Q81 -2 81 23Z" />
<glyph unicode="&#xe0;" glyph-name="agrave" horiz-adv-x="545" d="M135 -7T91 31T47 142Q47 243 131 283T366 325V368Q366 403 342 424T265 445Q224 445 194 436T142 416T117 405Q106 405 92 428T77 464Q77 478 103 493T173 519T266 530Q365 530 416 488T468
370V156Q468 89 474 59T480 25Q480 11 456 5T410 -1Q394 -1 388 14T378 46T373 69Q346 37 306 15T211 -7Q135 -7 91 31ZM272 79T305 97T366 146V246Q269 246 211 228T153 150Q153 116 172 98T228 79Q272 79 305 97ZM263 582T245 602Q235 613 223 626T198 654Q171
684 160 698T148 719Q148 727 160 730T200 733Q253 733 268 706L290 668Q308 637 318 619T328 594Q328 587 323 585T303 582Q263 582 245 602Z" />
<glyph unicode="&#xe1;" glyph-name="aacute" horiz-adv-x="545" d="M135 -7T91 31T47 142Q47 243 131 283T366 325V368Q366 403 342 424T265 445Q224 445 194 436T142 416T117 405Q106 405 92 428T77 464Q77 478 103 493T173 519T266 530Q365 530 416 488T468
370V156Q468 89 474 59T480 25Q480 11 456 5T410 -1Q394 -1 388 14T378 46T373 69Q346 37 306 15T211 -7Q135 -7 91 31ZM272 79T305 97T366 146V246Q269 246 211 228T153 150Q153 116 172 98T228 79Q272 79 305 97ZM240 582T234 584T228 594Q228 600 238 618T266
668L288 706Q297 721 313 727T357 733Q384 733 396 730T408 719Q408 712 396 697T328 621L311 602Q293 582 254 582Q240 582 234 584Z" />
<glyph unicode="&#xe2;" glyph-name="acircumflex" horiz-adv-x="545" d="M135 -7T91 31T47 142Q47 243 131 283T366 325V368Q366 403 342 424T265 445Q224 445 194 436T142 416T117 405Q106 405 92 428T77 464Q77 478 103 493T173 519T266 530Q365 530 416 488T468
370V156Q468 89 474 59T480 25Q480 11 456 5T410 -1Q394 -1 388 14T378 46T373 69Q346 37 306 15T211 -7Q135 -7 91 31ZM272 79T305 97T366 146V246Q269 246 211 228T153 150Q153 116 172 98T228 79Q272 79 305 97ZM147 575T147 588Q147 595 153 605L212 697Q225
718 262 718H283Q320 718 333 697L393 605Q399 596 399 588Q399 575 376 575H368Q340 575 325 591L272 655L221 591Q205 575 177 575H169Q147 575 147 588Z" />
<glyph unicode="&#xe3;" glyph-name="atilde" horiz-adv-x="545" d="M135 -7T91 31T47 142Q47 243 131 283T366 325V368Q366 403 342 424T265 445Q224 445 194 436T142 416T117 405Q106 405 92 428T77 464Q77 478 103 493T173 519T266 530Q365 530 416 488T468
370V156Q468 89 474 59T480 25Q480 11 456 5T410 -1Q394 -1 388 14T378 46T373 69Q346 37 306 15T211 -7Q135 -7 91 31ZM272 79T305 97T366 146V246Q269 246 211 228T153 150Q153 116 172 98T228 79Q272 79 305 97ZM110 592Q96 598 96 609Q96 612 100 622Q126 691
197 691Q215 691 235 686T288 670Q308 663 327 658T360 652Q372 652 382 657T401 677Q412 693 423 693Q429 693 434 690L443 687Q457 683 457 671Q457 665 454 657Q426 588 358 588Q339 588 319 593T265 609Q245 616 225 621T191 627Q180 627 171 622T151 601Q141
586 131 586Q126 586 120 589L110 592Z" />
<glyph unicode="&#xe4;" glyph-name="adieresis" horiz-adv-x="545" d="M135 -7T91 31T47 142Q47 243 131 283T366 325V368Q366 403 342 424T265 445Q224 445 194 436T142 416T117 405Q106 405 92 428T77 464Q77 478 103 493T173 519T266 530Q365 530 416 488T468
370V156Q468 89 474 59T480 25Q480 11 456 5T410 -1Q394 -1 388 14T378 46T373 69Q346 37 306 15T211 -7Q135 -7 91 31ZM272 79T305 97T366 146V246Q269 246 211 228T153 150Q153 116 172 98T228 79Q272 79 305 97ZM149 599T149 624V677Q149 702 197 702Q243 702
243 677V624Q243 599 194 599Q149 599 149 624ZM303 599T303 624V677Q303 702 352 702Q397 702 397 677V624Q397 599 349 599Q303 599 303 624Z" />
<glyph unicode="&#xe5;" glyph-name="aring" horiz-adv-x="545" d="M135 -7T91 31T47 142Q47 243 131 283T366 325V368Q366 403 342 424T265 445Q224 445 194 436T142 416T117 405Q106 405 92 428T77 464Q77 478 103 493T173 519T266 530Q365 530 416 488T468
370V156Q468 89 474 59T480 25Q480 11 456 5T410 -1Q394 -1 388 14T378 46T373 69Q346 37 306 15T211 -7Q135 -7 91 31ZM272 79T305 97T366 146V246Q269 246 211 228T153 150Q153 116 172 98T228 79Q272 79 305 97ZM235 560T210 585T184 648Q184 686 209 712T272
738Q309 738 335 712T361 648Q361 611 335 586T272 560Q235 560 210 585ZM292 603T305 616T318 648Q318 668 305 681T272 694Q253 694 240 681T227 648Q227 629 239 616T272 603Q292 603 305 616Z" />
<glyph unicode="&#xe6;" glyph-name="ae" horiz-adv-x="819" d="M139 -7T93 32T47 142Q47 231 122 272T337 315Q343 370 362 408Q336 445 265 445Q226 445 196 436T136 412Q120 405 117 405Q106 405 92 428T77 464Q77 478 103 493T173 519T266 530Q368 530 421
485Q477 530 567 530Q672 530 724 465T776 282Q776 272 762 254T738 236H443Q447 154 482 116T582 78Q620 78 648 87T697 106T721 117Q732 117 746 94T761 60Q761 44 735 29T666 3T581 -7Q459 -7 397 58Q365 31 319 12T217 -7Q139 -7 93 32ZM671 316Q671 379 644
412T565 445Q455 445 442 316H671ZM301 79T354 130Q337 175 334 236Q251 234 202 216T153 150Q153 116 172 98T228 79Q301 79 354 130Z" />
<glyph unicode="&#xe7;" glyph-name="ccedilla" horiz-adv-x="485" d="M459 28T413 12T311 -7L301 -45Q331 -45 358 -61T386 -118Q386 -211 270 -211Q229 -211 190 -198T150 -166Q150 -152 156 -143T173 -134Q182 -134 200 -142Q233 -155 258 -155Q306 -155 306
-125Q306 -111 297 -104T270 -91Q256 -86 250 -82T244 -70Q244 -60 261 -6Q154 3 102 67T49 262Q49 403 115 466T292 530Q350 530 398 515T447 477Q447 463 433 440T408 416Q407 416 395 421Q372 431 349 438T293 445Q226 445 192 402T157 265Q157 167 189 123T298
78Q333 78 358 85T407 104Q419 108 420 108Q431 108 445 86T459 50Q459 28 413 12Z" />
<glyph unicode="&#xe8;" glyph-name="egrave" horiz-adv-x="539" d="M51 -7T51 258Q51 393 112 461T287 530Q392 530 444 462T496 269Q496 259 482 241T458 223H159Q165 147 200 113T302 78Q340 78 368 87T417 106T441 117Q452 117 466 94T481 60Q481 44 455 29T386
3T301 -7Q51 -7 51 258ZM391 303Q391 372 365 408T285 445Q172 445 159 303H391ZM260 582T242 602Q232 613 220 626T195 654Q168 684 157 698T145 719Q145 727 157 730T197 733Q250 733 265 706L287 668Q305 637 315 619T325 594Q325 587 320 585T300 582Q260 582
242 602Z" />
<glyph unicode="&#xe9;" glyph-name="eacute" horiz-adv-x="539" d="M51 -7T51 258Q51 393 112 461T287 530Q392 530 444 462T496 269Q496 259 482 241T458 223H159Q165 147 200 113T302 78Q340 78 368 87T417 106T441 117Q452 117 466 94T481 60Q481 44 455 29T386
3T301 -7Q51 -7 51 258ZM391 303Q391 372 365 408T285 445Q172 445 159 303H391ZM237 582T231 584T225 594Q225 600 235 618T263 668L285 706Q294 721 310 727T354 733Q381 733 393 730T405 719Q405 712 393 697T325 621L308 602Q290 582 251 582Q237 582 231 584Z"
/>
<glyph unicode="&#xea;" glyph-name="ecircumflex" horiz-adv-x="539" d="M51 -7T51 258Q51 393 112 461T287 530Q392 530 444 462T496 269Q496 259 482 241T458 223H159Q165 147 200 113T302 78Q340 78 368 87T417 106T441 117Q452 117 466 94T481 60Q481 44
455 29T386 3T301 -7Q51 -7 51 258ZM391 303Q391 372 365 408T285 445Q172 445 159 303H391ZM144 575T144 588Q144 595 150 605L209 697Q222 718 259 718H280Q317 718 330 697L390 605Q396 596 396 588Q396 575 373 575H365Q337 575 322 591L269 655L218 591Q202
575 174 575H166Q144 575 144 588Z" />
<glyph unicode="&#xeb;" glyph-name="edieresis" horiz-adv-x="539" d="M51 -7T51 258Q51 393 112 461T287 530Q392 530 444 462T496 269Q496 259 482 241T458 223H159Q165 147 200 113T302 78Q340 78 368 87T417 106T441 117Q452 117 466 94T481 60Q481 44 455
29T386 3T301 -7Q51 -7 51 258ZM391 303Q391 372 365 408T285 445Q172 445 159 303H391ZM146 599T146 624V677Q146 702 194 702Q240 702 240 677V624Q240 599 191 599Q146 599 146 624ZM300 599T300 624V677Q300 702 349 702Q394 702 394 677V624Q394 599 346 599Q300
599 300 624Z" />
<glyph unicode="&#xec;" glyph-name="igrave" horiz-adv-x="265" d="M82 -2T82 23V500Q82 525 128 525H138Q184 525 184 500V23Q184 -2 138 -2H128Q82 -2 82 23ZM123 582T105 602Q95 613 83 626T58 654Q31 684 20 698T8 719Q8 727 20 730T60 733Q113 733 128 706L150
668Q168 637 178 619T188 594Q188 587 183 585T163 582Q123 582 105 602Z" />
<glyph unicode="&#xed;" glyph-name="iacute" horiz-adv-x="265" d="M82 -2T82 23V500Q82 525 128 525H138Q184 525 184 500V23Q184 -2 138 -2H128Q82 -2 82 23ZM100 582T94 584T88 594Q88 600 98 618T126 668L148 706Q157 721 173 727T217 733Q244 733 256 730T268
719Q268 712 256 697T188 621L171 602Q153 582 114 582Q100 582 94 584Z" />
<glyph unicode="&#xee;" glyph-name="icircumflex" horiz-adv-x="265" d="M82 -2T82 23V500Q82 525 128 525H138Q184 525 184 500V23Q184 -2 138 -2H128Q82 -2 82 23ZM7 575T7 588Q7 595 13 605L72 697Q85 718 122 718H143Q180 718 193 697L253 605Q259 596 259
588Q259 575 236 575H228Q200 575 185 591L132 655L81 591Q65 575 37 575H29Q7 575 7 588Z" />
<glyph unicode="&#xef;" glyph-name="idieresis" horiz-adv-x="265" d="M82 -2T82 23V500Q82 525 128 525H138Q184 525 184 500V23Q184 -2 138 -2H128Q82 -2 82 23ZM9 599T9 624V677Q9 702 57 702Q103 702 103 677V624Q103 599 54 599Q9 599 9 624ZM163 599T163
624V677Q163 702 212 702Q257 702 257 677V624Q257 599 209 599Q163 599 163 624Z" />
<glyph unicode="&#xf0;" glyph-name="eth" horiz-adv-x="569" d="M458 537T488 445T518 260Q518 130 459 62T286 -7Q171 -7 111 61T51 260Q51 390 112 460T286 530Q321 530 358 520Q338 562 316 602L237 591Q226 591 217 602T208 626Q208 637 224 640L288 649Q283
656 271 673T258 697Q258 708 275 711Q308 714 312 714Q331 714 342 703Q361 683 377 660L452 671Q464 671 472 658T480 636Q480 623 464 622L408 615Q458 537 488 445ZM350 78T381 123T413 261Q413 354 382 399T284 445Q219 445 188 400T156 261Q156 168 187 123T284
78Q350 78 381 123Z" />
<glyph unicode="&#xf1;" glyph-name="ntilde" horiz-adv-x="557" d="M79 -2T79 23V364Q79 430 73 460T67 494Q67 508 92 514T138 520Q153 520 159 506T169 476T174 454Q204 489 245 509T328 530Q404 530 445 488T487 368V23Q487 -2 441 -2H430Q384 -2 384 23V356Q384
397 361 419T294 442Q262 442 232 424T182 376V23Q182 -2 136 -2H125Q79 -2 79 23ZM116 592Q102 598 102 609Q102 612 106 622Q132 691 203 691Q221 691 241 686T294 670Q314 663 333 658T366 652Q378 652 388 657T407 677Q418 693 429 693Q435 693 440 690L449
687Q463 683 463 671Q463 665 460 657Q432 588 364 588Q345 588 325 593T271 609Q251 616 231 621T197 627Q186 627 177 622T157 601Q147 586 137 586Q132 586 126 589L116 592Z" />
<glyph unicode="&#xf2;" glyph-name="ograve" horiz-adv-x="569" d="M171 -7T111 61T51 260Q51 390 112 460T286 530Q399 530 458 461T518 260Q518 130 459 62T286 -7Q171 -7 111 61ZM350 78T381 123T413 261Q413 354 382 399T284 445Q219 445 188 400T157 261Q157
168 187 123T284 78Q350 78 381 123ZM275 582T257 602Q247 613 235 626T210 654Q183 684 172 698T160 719Q160 727 172 730T212 733Q265 733 280 706L302 668Q320 637 330 619T340 594Q340 587 335 585T315 582Q275 582 257 602Z" />
<glyph unicode="&#xf3;" glyph-name="oacute" horiz-adv-x="569" d="M171 -7T111 61T51 260Q51 390 112 460T286 530Q399 530 458 461T518 260Q518 130 459 62T286 -7Q171 -7 111 61ZM350 78T381 123T413 261Q413 354 382 399T284 445Q219 445 188 400T157 261Q157
168 187 123T284 78Q350 78 381 123ZM252 582T246 584T240 594Q240 600 250 618T278 668L300 706Q309 721 325 727T369 733Q396 733 408 730T420 719Q420 712 408 697T340 621L323 602Q305 582 266 582Q252 582 246 584Z" />
<glyph unicode="&#xf4;" glyph-name="ocircumflex" horiz-adv-x="569" d="M171 -7T111 61T51 260Q51 390 112 460T286 530Q399 530 458 461T518 260Q518 130 459 62T286 -7Q171 -7 111 61ZM350 78T381 123T413 261Q413 354 382 399T284 445Q219 445 188 400T157
261Q157 168 187 123T284 78Q350 78 381 123ZM159 575T159 588Q159 595 165 605L224 697Q237 718 274 718H295Q332 718 345 697L405 605Q411 596 411 588Q411 575 388 575H380Q352 575 337 591L284 655L233 591Q217 575 189 575H181Q159 575 159 588Z" />
<glyph unicode="&#xf5;" glyph-name="otilde" horiz-adv-x="569" d="M171 -7T111 61T51 260Q51 390 112 460T286 530Q399 530 458 461T518 260Q518 130 459 62T286 -7Q171 -7 111 61ZM350 78T381 123T413 261Q413 354 382 399T284 445Q219 445 188 400T157 261Q157
168 187 123T284 78Q350 78 381 123ZM122 592Q108 598 108 609Q108 612 112 622Q138 691 209 691Q227 691 247 686T300 670Q320 663 339 658T372 652Q384 652 394 657T413 677Q424 693 435 693Q441 693 446 690L455 687Q469 683 469 671Q469 665 466 657Q438 588
370 588Q351 588 331 593T277 609Q257 616 237 621T203 627Q192 627 183 622T163 601Q153 586 143 586Q138 586 132 589L122 592Z" />
<glyph unicode="&#xf6;" glyph-name="odieresis" horiz-adv-x="569" d="M171 -7T111 61T51 260Q51 390 112 460T286 530Q399 530 458 461T518 260Q518 130 459 62T286 -7Q171 -7 111 61ZM350 78T381 123T413 261Q413 354 382 399T284 445Q219 445 188 400T157
261Q157 168 187 123T284 78Q350 78 381 123ZM161 599T161 624V677Q161 702 209 702Q255 702 255 677V624Q255 599 206 599Q161 599 161 624ZM315 599T315 624V677Q315 702 364 702Q409 702 409 677V624Q409 599 361 599Q315 599 315 624Z" />
<glyph unicode="&#xf7;" glyph-name="divide" horiz-adv-x="560" d="M231 354T231 378V435Q231 460 277 460H283Q329 460 329 435V378Q329 354 283 354H277Q231 354 231 378ZM42 190T42 226V233Q42 268 72 268H488Q518 268 518 233V226Q518 190 488 190H72Q42
190 42 226ZM231 -2T231 23V80Q231 105 277 105H283Q329 105 329 80V23Q329 -2 283 -2H277Q231 -2 231 23Z" />
<glyph unicode="&#xf8;" glyph-name="oslash" horiz-adv-x="569" d="M474 440Q518 372 518 260Q518 130 459 62T286 -7Q191 -7 132 41L103 7Q96 -2 87 -2Q78 -2 68 7T57 26Q57 32 65 42L97 79Q51 148 51 260Q51 390 112 460T286 530Q381 530 440 479L474 518Q482
528 490 528Q498 528 508 518T519 500Q519 492 512 484L474 440ZM157 202T169 163L377 405Q346 445 284 445Q219 445 188 400T157 261Q157 202 169 163ZM413 316T402 355L195 114Q225 78 284 78Q350 78 381 123T413 261Q413 316 402 355Z" />
<glyph unicode="&#xf9;" glyph-name="ugrave" horiz-adv-x="557" d="M153 -7T112 35T70 155V500Q70 525 116 525H127Q173 525 173 500V167Q173 126 196 104T263 81Q295 81 325 99T375 147V500Q375 525 421 525H432Q478 525 478 500V156Q478 89 484 59T490 25Q490
11 465 5T419 -1Q404 -1 398 14T388 46T383 69Q354 34 313 14T229 -7Q153 -7 112 35ZM269 582T251 602Q241 613 229 626T204 654Q177 684 166 698T154 719Q154 727 166 730T206 733Q259 733 274 706L296 668Q314 637 324 619T334 594Q334 587 329 585T309 582Q269
582 251 602Z" />
<glyph unicode="&#xfa;" glyph-name="uacute" horiz-adv-x="557" d="M153 -7T112 35T70 155V500Q70 525 116 525H127Q173 525 173 500V167Q173 126 196 104T263 81Q295 81 325 99T375 147V500Q375 525 421 525H432Q478 525 478 500V156Q478 89 484 59T490 25Q490
11 465 5T419 -1Q404 -1 398 14T388 46T383 69Q354 34 313 14T229 -7Q153 -7 112 35ZM246 582T240 584T234 594Q234 600 244 618T272 668L294 706Q303 721 319 727T363 733Q390 733 402 730T414 719Q414 712 402 697T334 621L317 602Q299 582 260 582Q246 582 240
584Z" />
<glyph unicode="&#xfb;" glyph-name="ucircumflex" horiz-adv-x="557" d="M153 -7T112 35T70 155V500Q70 525 116 525H127Q173 525 173 500V167Q173 126 196 104T263 81Q295 81 325 99T375 147V500Q375 525 421 525H432Q478 525 478 500V156Q478 89 484 59T490
25Q490 11 465 5T419 -1Q404 -1 398 14T388 46T383 69Q354 34 313 14T229 -7Q153 -7 112 35ZM153 575T153 588Q153 595 159 605L218 697Q231 718 268 718H289Q326 718 339 697L399 605Q405 596 405 588Q405 575 382 575H374Q346 575 331 591L278 655L227 591Q211
575 183 575H175Q153 575 153 588Z" />
<glyph unicode="&#xfc;" glyph-name="udieresis" horiz-adv-x="557" d="M153 -7T112 35T70 155V500Q70 525 116 525H127Q173 525 173 500V167Q173 126 196 104T263 81Q295 81 325 99T375 147V500Q375 525 421 525H432Q478 525 478 500V156Q478 89 484 59T490 25Q490
11 465 5T419 -1Q404 -1 398 14T388 46T383 69Q354 34 313 14T229 -7Q153 -7 112 35ZM155 599T155 624V677Q155 702 203 702Q249 702 249 677V624Q249 599 200 599Q155 599 155 624ZM309 599T309 624V677Q309 702 358 702Q403 702 403 677V624Q403 599 355 599Q309
599 309 624Z" />
<glyph unicode="&#xfd;" glyph-name="yacute" horiz-adv-x="481" d="M466 525T466 507Q466 502 463 491L214 -186Q207 -207 165 -207H149Q108 -207 108 -190Q108 -187 113 -173L191 21L19 492Q16 504 16 507Q16 525 64 525H79Q118 525 123 508L213 261Q226 227
244 155H246L254 182Q268 231 278 261L366 508Q371 525 412 525H421Q466 525 466 507ZM208 582T202 584T196 594Q196 600 206 618T234 668L256 706Q265 721 281 727T325 733Q352 733 364 730T376 719Q376 712 364 697T296 621L279 602Q261 582 222 582Q208 582
202 584Z" />
<glyph unicode="&#xfe;" glyph-name="thorn" horiz-adv-x="570" d="M79 -207T79 -183V728Q79 753 125 753H136Q182 753 182 728V464Q243 530 326 530Q384 530 427 497T494 402T518 260Q518 177 493 117T421 25T313 -7Q273 -7 242 5T182 39V-183Q182 -207 136 -207H125Q79
-207 79 -183ZM351 80T381 125T412 256Q412 346 384 394T301 443Q270 443 239 426T182 377V117Q228 80 290 80Q351 80 381 125Z" />
<glyph unicode="&#xff;" glyph-name="ydieresis" horiz-adv-x="481" d="M466 525T466 507Q466 502 463 491L214 -186Q207 -207 165 -207H149Q108 -207 108 -190Q108 -187 113 -173L191 21L19 492Q16 504 16 507Q16 525 64 525H79Q118 525 123 508L213 261Q226
227 244 155H246L254 182Q268 231 278 261L366 508Q371 525 412 525H421Q466 525 466 507ZM117 599T117 624V677Q117 702 165 702Q211 702 211 677V624Q211 599 162 599Q117 599 117 624ZM271 599T271 624V677Q271 702 320 702Q365 702 365 677V624Q365 599 317
599Q271 599 271 624Z" />
<glyph unicode="&#x2013;" glyph-name="endash" horiz-adv-x="500" d="M11 225T6 233T0 261V270Q0 289 5 297T23 305H477Q489 305 494 297T500 270V261Q500 242 495 234T477 225H23Q11 225 6 233Z" />
<glyph unicode="&#x2014;" glyph-name="emdash" horiz-adv-x="1000" d="M11 225T6 233T0 261V270Q0 289 5 297T23 305H977Q989 305 994 297T1000 270V261Q1000 242 995 234T977 225H23Q11 225 6 233Z" />
<glyph unicode="&#x2018;" glyph-name="quoteleft" horiz-adv-x="212" d="M68 504T56 513T44 537Q44 592 64 639T111 715T158 744Q170 744 180 740T191 727Q191 719 183 703Q166 669 157 631T148 540Q148 523 137 514T102 504H90Q68 504 56 513Z" />
<glyph unicode="&#x2019;" glyph-name="quoteright" horiz-adv-x="212" d="M50 515T39 519T28 532Q28 538 32 546T37 557Q54 593 63 631T72 719Q72 755 117 755H129Q151 755 163 746T175 722Q175 668 155 620T108 544T62 515Q50 515 39 519Z" />
<glyph unicode="&#x201a;" glyph-name="quotesinglbase" horiz-adv-x="198" d="M34 -118T23 -114T12 -101Q12 -95 16 -87T21 -76Q38 -40 47 -2T56 86Q56 122 101 122H113Q135 122 147 113T159 89Q159 35 139 -13T92 -89T46 -118Q34 -118 23 -114Z" />
<glyph unicode="&#x201c;" glyph-name="quotedblleft" horiz-adv-x="350" d="M199 504T187 513T175 537Q175 592 195 639T242 715T289 744Q301 744 311 740T322 727Q322 719 314 703Q297 669 288 631T279 540Q279 523 268 514T233 504H221Q199 504 187 513ZM305
504T293 513T281 537Q281 592 301 639T348 715T395 744Q407 744 417 740T428 727Q428 719 420 703Q403 669 394 631T385 540Q385 523 374 514T339 504H327Q305 504 293 513Z" />
<glyph unicode="&#x201d;" glyph-name="quotedblright" horiz-adv-x="350" d="M196 515T185 519T174 532Q174 538 178 546T183 557Q200 593 209 631T218 719Q218 755 263 755H275Q297 755 309 746T321 722Q321 668 301 620T254 544T208 515Q196 515 185 519ZM302
515T291 519T280 532Q280 538 284 546T289 557Q306 593 315 631T324 719Q324 755 369 755H381Q403 755 415 746T427 722Q427 668 407 620T360 544T314 515Q302 515 291 519Z" />
<glyph unicode="&#x201e;" glyph-name="quotedblbase" horiz-adv-x="336" d="M178 -119T167 -115T156 -102Q156 -96 160 -88T165 -77Q182 -41 191 -3T200 85Q200 121 245 121H257Q279 121 291 112T303 88Q303 34 283 -14T236 -90T190 -119Q178 -119 167 -115ZM28
-119T17 -115T6 -102Q6 -96 10 -88T15 -77Q32 -41 41 -3T50 85Q50 121 95 121H107Q129 121 141 112T153 88Q153 34 133 -14T86 -90T40 -119Q28 -119 17 -115Z" />
<glyph unicode="&#x2022;" glyph-name="bullet" horiz-adv-x="336" d="M114 199T77 236T40 326Q40 379 77 416T167 454Q220 454 257 417T295 326Q295 273 258 236T167 199Q114 199 77 236Z" />
<glyph unicode="&#x2039;" glyph-name="guilsinglleft" horiz-adv-x="300" d="M195 57T184 70L54 225Q41 242 41 258Q41 274 54 291L184 446Q195 458 207 458Q219 458 234 446T249 421Q249 412 241 401L130 258L241 114Q249 103 249 94Q249 83 235 70T207 57Q195
57 184 70Z" />
<glyph unicode="&#x203a;" glyph-name="guilsinglright" horiz-adv-x="300" d="M79 57T65 70T50 94Q50 103 58 114L169 258L58 401Q50 412 50 421Q50 434 65 446T92 458Q105 458 115 446L244 291Q258 274 258 258Q258 242 244 225L115 70Q104 57 92 57Q79 57 65 70Z" />
</font>
</defs>
</svg>
