<?xml version="1.0" standalone="no"?>
<!DOCTYPE svg PUBLIC "-//W3C//DTD SVG 1.1//EN" "http://www.w3.org/Graphics/SVG/1.1/DTD/svg11.dtd">
<svg xmlns="http://www.w3.org/2000/svg">
<defs >
<font id="Arimo" horiz-adv-x="1171" ><font-face
    font-family="Arimo"
    units-per-em="2048"
    panose-1="2 11 6 4 2 2 2 2 2 4"
    ascent="1854"
    descent="-434"
    alphabetic="0" />
<glyph unicode=" " glyph-name="space" horiz-adv-x="569" />
<glyph unicode="!" glyph-name="exclam" horiz-adv-x="569" d="M359 397H211L187 1409H383L359 397ZM185 0V201H379V0H185Z" />
<glyph unicode="&quot;" glyph-name="quotedbl" horiz-adv-x="727" d="M618 966H476L456 1409H640L618 966ZM249 966H108L87 1409H271L249 966Z" />
<glyph unicode="#" glyph-name="numbersign" horiz-adv-x="1139" d="M896 885L818 516H1078V408H795L707 0H597L683 408H320L236 0H126L210 408H9V516H234L312 885H60V993H334L423 1401H533L445 993H808L896 1401H1006L918 993H1129V885H896ZM425 885L345 516H707L785
885H425Z" />
<glyph unicode="$" glyph-name="dollar" horiz-adv-x="1139" d="M518 20Q92 38 22 379L192 416Q217 297 296 237T518 168V664Q341 708 274 743T165 823T105 921T86 1046Q86 1201 198 1288T518 1385V1516H642V1385Q829 1376 931 1301T1075 1065L901 1032Q881 1126
820 1178T642 1242V797Q821 755 896 720T1016 641T1083 537T1106 396Q1106 231 985 131T642 20V-142H518V20ZM934 394Q934 459 908 501T833 570T642 635V167Q783 176 858 234T934 394ZM258 1048Q258 989 283 948T357 879T518 823V1244Q258 1230 258 1048Z" />
<glyph unicode="%" glyph-name="percent" horiz-adv-x="1821" d="M1748 434Q1748 219 1667 104T1428 -12Q1272 -12 1193 100T1113 434Q1113 662 1189 773T1432 885Q1596 885 1672 771T1748 434ZM527 0H372L1294 1409H1451L527 0ZM394 1421Q553 1421 630 1309T707
975Q707 758 628 641T390 524Q232 524 153 640T73 975Q73 1198 150 1309T394 1421ZM1600 434Q1600 613 1562 693T1432 774Q1341 774 1301 695T1260 434Q1260 263 1299 181T1430 98Q1518 98 1559 181T1600 434ZM560 975Q560 1151 522 1232T394 1313Q300 1313 260
1234T220 975Q220 802 260 720T392 637Q479 637 519 721T560 975Z" />
<glyph unicode="&amp;" glyph-name="ampersand" horiz-adv-x="1366" d="M1193 -12Q1016 -12 895 115Q820 50 724 15T523 -20Q308 -20 190 83T72 371Q72 649 415 800Q382 862 358 947T334 1102Q334 1252 425 1334T685 1417Q836 1417 928 1341T1021 1133Q1021 1015
930 923T612 741Q723 536 905 329Q1018 495 1076 739L1221 696Q1158 447 1009 227Q1105 129 1217 129Q1288 129 1334 145V10Q1278 -12 1193 -12ZM869 1133Q869 1205 819 1250T683 1296Q587 1296 537 1245T487 1102Q487 988 552 858Q683 911 744 950T837 1034T869
1133ZM795 217Q597 451 476 674Q240 574 240 373Q240 252 317 182T529 111Q600 111 671 138T795 217Z" />
<glyph unicode="&apos;" glyph-name="quotesingle" horiz-adv-x="391" d="M266 966H125L104 1409H288L266 966Z" />
<glyph unicode="(" glyph-name="parenleft" horiz-adv-x="682" d="M127 532Q127 821 217 1051T496 1484H670Q483 1276 396 1042T308 530Q308 253 394 20T670 -424H496Q307 -220 217 10T127 528V532Z" />
<glyph unicode=")" glyph-name="parenright" horiz-adv-x="682" d="M555 528Q555 239 465 9T186 -424H12Q200 -214 287 18T374 530Q374 809 287 1042T12 1484H186Q375 1280 465 1050T555 532V528Z" />
<glyph unicode="*" glyph-name="asterisk" horiz-adv-x="797" d="M456 1114L720 1217L765 1085L483 1012L668 762L549 690L399 948L243 692L124 764L313 1012L33 1085L78 1219L345 1112L333 1409H469L456 1114Z" />
<glyph unicode="+" glyph-name="plus" horiz-adv-x="1196" d="M671 608V180H524V608H100V754H524V1182H671V754H1095V608H671Z" />
<glyph unicode="," glyph-name="comma" horiz-adv-x="569" d="M385 219V51Q385 -55 366 -126T307 -262H184Q278 -126 278 0H190V219H385Z" />
<glyph unicode="-" glyph-name="hyphen" horiz-adv-x="682" d="M91 464V624H591V464H91Z" />
<glyph unicode="." glyph-name="period" horiz-adv-x="569" d="M187 0V219H382V0H187Z" />
<glyph unicode="/" glyph-name="slash" horiz-adv-x="569" d="M0 -20L411 1484H569L162 -20H0Z" />
<glyph unicode="0" glyph-name="zero" horiz-adv-x="1139" d="M1059 705Q1059 352 935 166T567 -20Q324 -20 202 165T80 705Q80 1068 198 1249T573 1430Q822 1430 940 1247T1059 705ZM876 705Q876 1010 806 1147T573 1284Q407 1284 335 1149T262 705Q262 405 335
266T569 127Q728 127 802 269T876 705Z" />
<glyph unicode="1" glyph-name="one" horiz-adv-x="1139" d="M156 0V153H515V1237L197 1010V1180L530 1409H696V153H1039V0H156Z" />
<glyph unicode="2" glyph-name="two" horiz-adv-x="1139" d="M103 0V127Q154 244 227 333T382 495T542 630T686 754T789 884T829 1038Q829 1154 761 1218T572 1282Q457 1282 383 1220T295 1044L111 1061Q131 1230 254 1330T572 1430Q785 1430 899 1330T1014 1044Q1014
962 977 881T865 719T582 468Q467 374 399 299T301 153H1036V0H103Z" />
<glyph unicode="3" glyph-name="three" horiz-adv-x="1139" d="M1049 389Q1049 194 925 87T571 -20Q357 -20 230 76T78 362L264 379Q300 129 571 129Q707 129 784 196T862 395Q862 510 774 574T518 639H416V795H514Q662 795 743 859T825 1038Q825 1151 759 1216T561
1282Q442 1282 369 1221T283 1049L102 1063Q122 1236 245 1333T563 1430Q775 1430 892 1332T1010 1057Q1010 922 935 838T715 723V719Q873 702 961 613T1049 389Z" />
<glyph unicode="4" glyph-name="four" horiz-adv-x="1139" d="M881 319V0H711V319H47V459L692 1409H881V461H1079V319H881ZM711 1206Q709 1200 683 1153T644 1087L283 555L229 481L213 461H711V1206Z" />
<glyph unicode="5" glyph-name="five" horiz-adv-x="1139" d="M1053 459Q1053 236 921 108T553 -20Q356 -20 235 66T82 315L264 336Q321 127 557 127Q702 127 784 214T866 455Q866 588 784 670T561 752Q488 752 425 729T299 651H123L170 1409H971V1256H334L307
809Q424 899 598 899Q806 899 929 777T1053 459Z" />
<glyph unicode="6" glyph-name="six" horiz-adv-x="1139" d="M1049 461Q1049 238 928 109T594 -20Q356 -20 230 157T104 672Q104 1038 235 1234T608 1430Q927 1430 1010 1143L838 1112Q785 1284 606 1284Q452 1284 368 1141T283 725Q332 816 421 863T625 911Q820
911 934 789T1049 461ZM866 453Q866 606 791 689T582 772Q456 772 379 699T301 496Q301 333 381 229T588 125Q718 125 792 212T866 453Z" />
<glyph unicode="7" glyph-name="seven" horiz-adv-x="1139" d="M1036 1263Q820 933 731 746T598 377T553 0H365Q365 270 479 568T862 1256H105V1409H1036V1263Z" />
<glyph unicode="8" glyph-name="eight" horiz-adv-x="1139" d="M1050 393Q1050 198 926 89T570 -20Q344 -20 217 87T89 391Q89 529 168 623T370 737V741Q255 768 189 858T122 1069Q122 1230 242 1330T566 1430Q774 1430 894 1332T1015 1067Q1015 946 948 856T765
743V739Q900 717 975 625T1050 393ZM828 1057Q828 1296 566 1296Q439 1296 373 1236T306 1057Q306 936 374 873T568 809Q695 809 761 867T828 1057ZM863 410Q863 541 785 607T566 674Q429 674 352 603T275 406Q275 115 572 115Q719 115 791 185T863 410Z" />
<glyph unicode="9" glyph-name="nine" horiz-adv-x="1139" d="M1042 733Q1042 370 910 175T532 -20Q367 -20 268 49T125 274L297 301Q351 125 535 125Q690 125 775 269T864 680Q824 590 727 536T514 481Q324 481 210 611T96 956Q96 1177 220 1303T565 1430Q800
1430 921 1256T1042 733ZM846 907Q846 1077 768 1180T559 1284Q429 1284 354 1196T279 956Q279 802 354 713T557 623Q635 623 702 658T807 759T846 907Z" />
<glyph unicode=":" glyph-name="colon" horiz-adv-x="569" d="M187 875V1082H382V875H187ZM187 0V207H382V0H187Z" />
<glyph unicode=";" glyph-name="semicolon" horiz-adv-x="569" d="M385 207V51Q385 -55 366 -126T307 -262H184Q278 -126 278 0H190V207H385ZM190 875V1082H385V875H190Z" />
<glyph unicode="&lt;" glyph-name="less" horiz-adv-x="1196" d="M101 571V776L1096 1194V1040L238 674L1096 307V154L101 571Z" />
<glyph unicode="=" glyph-name="equal" horiz-adv-x="1196" d="M100 856V1004H1095V856H100ZM100 344V492H1095V344H100Z" />
<glyph unicode="&gt;" glyph-name="greater" horiz-adv-x="1196" d="M101 154V307L959 674L101 1040V1194L1096 776V571L101 154Z" />
<glyph unicode="?" glyph-name="question" horiz-adv-x="1139" d="M1063 1032Q1063 957 1041 898T978 789T844 671L764 612Q692 560 657 503T621 377H446Q448 446 467 498T518 590T588 661T667 721T745 778T814 842T862 921T881 1024Q881 1138 804 1204T586 1270Q446
1270 364 1200T268 1008L84 1020Q110 1218 240 1324T584 1430Q807 1430 935 1325T1063 1032ZM438 0V201H633V0H438Z" />
<glyph unicode="@" glyph-name="at" horiz-adv-x="2079" d="M1902 755Q1902 569 1845 419T1685 186T1455 104Q1356 104 1302 148T1248 280L1251 350H1245Q1179 227 1082 166T871 104Q714 104 628 206T541 489Q541 653 605 794T786 1018T1043 1101Q1262 1101 1344
919H1350L1389 1079H1545L1429 573Q1392 409 1392 320Q1392 226 1473 226Q1553 226 1620 295T1727 485T1766 753Q1766 932 1689 1070T1467 1283T1128 1358Q886 1358 700 1251T408 943T302 491Q302 298 380 151T607 -76T954 -155Q1099 -155 1248 -118T1557 7L1612
-105Q1467 -192 1298 -237T954 -283Q713 -283 533 -188T257 84T161 491Q161 771 285 1000T631 1356T1126 1484Q1367 1484 1542 1394T1809 1138T1902 755ZM1296 747Q1296 849 1230 911T1054 974Q953 974 875 911T751 735T706 491Q706 371 753 303T900 235Q1025 235
1129 340T1273 602Q1296 694 1296 747Z" />
<glyph unicode="A" glyph-name="A" horiz-adv-x="1366" d="M1167 0L1006 412H364L202 0H4L579 1409H796L1362 0H1167ZM685 1265L676 1237Q651 1154 602 1024L422 561H949L768 1026Q740 1095 712 1182L685 1265Z" />
<glyph unicode="B" glyph-name="B" horiz-adv-x="1366" d="M1258 397Q1258 209 1121 105T740 0H168V1409H680Q1176 1409 1176 1067Q1176 942 1106 857T908 743Q1076 723 1167 631T1258 397ZM984 1044Q984 1158 906 1207T680 1256H359V810H680Q833 810 908 867T984
1044ZM1065 412Q1065 661 715 661H359V153H730Q905 153 985 218T1065 412Z" />
<glyph unicode="C" glyph-name="C" horiz-adv-x="1479" d="M792 1274Q558 1274 428 1124T298 711Q298 452 433 295T800 137Q1096 137 1245 430L1401 352Q1314 170 1157 75T791 -20Q578 -20 423 68T186 321T104 711Q104 1048 286 1239T790 1430Q1015 1430 1166
1342T1388 1081L1207 1021Q1158 1144 1050 1209T792 1274Z" />
<glyph unicode="D" glyph-name="D" horiz-adv-x="1479" d="M1381 719Q1381 501 1296 338T1055 87T695 0H168V1409H634Q992 1409 1186 1230T1381 719ZM1189 719Q1189 981 1046 1118T630 1256H359V153H673Q828 153 945 221T1126 417T1189 719Z" />
<glyph unicode="E" glyph-name="E" horiz-adv-x="1366" d="M168 0V1409H1237V1253H359V801H1177V647H359V156H1278V0H168Z" />
<glyph unicode="F" glyph-name="F" horiz-adv-x="1251" d="M359 1253V729H1145V571H359V0H168V1409H1169V1253H359Z" />
<glyph unicode="G" glyph-name="G" horiz-adv-x="1593" d="M103 711Q103 1054 287 1242T804 1430Q1038 1430 1184 1351T1409 1098L1227 1044Q1167 1164 1062 1219T799 1274Q555 1274 426 1127T297 711Q297 444 434 290T813 135Q951 135 1070 177T1264 291V545H843V705H1440V219Q1328
105 1166 43T813 -20Q592 -20 432 68T188 321T103 711Z" />
<glyph unicode="H" glyph-name="H" horiz-adv-x="1479" d="M1121 0V653H359V0H168V1409H359V813H1121V1409H1312V0H1121Z" />
<glyph unicode="I" glyph-name="I" horiz-adv-x="569" d="M189 0V1409H380V0H189Z" />
<glyph unicode="J" glyph-name="J" horiz-adv-x="1024" d="M457 -20Q99 -20 32 350L219 381Q237 265 300 200T458 135Q562 135 622 206T682 416V1253H411V1409H872V420Q872 215 761 98T457 -20Z" />
<glyph unicode="K" glyph-name="K" horiz-adv-x="1366" d="M1106 0L543 680L359 540V0H168V1409H359V703L1038 1409H1263L663 797L1343 0H1106Z" />
<glyph unicode="L" glyph-name="L" horiz-adv-x="1139" d="M168 0V1409H359V156H1071V0H168Z" />
<glyph unicode="M" glyph-name="M" horiz-adv-x="1706" d="M1366 0V940Q1366 1096 1375 1240Q1326 1061 1287 960L923 0H789L420 960L364 1130L331 1240L334 1129L338 940V0H168V1409H419L794 432Q814 373 832 306T857 208Q865 248 890 329T925 432L1293 1409H1538V0H1366Z"
/>
<glyph unicode="N" glyph-name="N" horiz-adv-x="1479" d="M1082 0L328 1200L333 1103L338 936V0H168V1409H390L1152 201Q1140 397 1140 485V1409H1312V0H1082Z" />
<glyph unicode="O" glyph-name="O" horiz-adv-x="1593" d="M1495 711Q1495 490 1411 324T1168 69T795 -20Q578 -20 421 68T180 322T97 711Q97 1049 282 1239T797 1430Q1012 1430 1170 1345T1411 1096T1495 711ZM1300 711Q1300 974 1169 1124T797 1274Q555 1274
423 1126T291 711Q291 446 424 291T795 135Q1039 135 1169 285T1300 711Z" />
<glyph unicode="P" glyph-name="P" horiz-adv-x="1366" d="M1258 985Q1258 785 1128 667T773 549H359V0H168V1409H761Q998 1409 1128 1298T1258 985ZM1066 983Q1066 1256 738 1256H359V700H746Q1066 700 1066 983Z" />
<glyph unicode="Q" glyph-name="Q" horiz-adv-x="1593" d="M1495 711Q1495 413 1345 221T928 -6Q969 -132 1035 -188T1204 -244Q1259 -244 1319 -231V-365Q1226 -387 1141 -387Q990 -387 893 -302T733 -16Q535 -6 392 84T173 336T97 711Q97 1049 282 1239T797
1430Q1012 1430 1170 1345T1411 1096T1495 711ZM1300 711Q1300 974 1169 1124T797 1274Q555 1274 423 1126T291 711Q291 446 424 291T795 135Q1039 135 1169 285T1300 711Z" />
<glyph unicode="R" glyph-name="R" horiz-adv-x="1479" d="M1164 0L798 585H359V0H168V1409H831Q1069 1409 1198 1303T1328 1006Q1328 849 1237 742T984 607L1384 0H1164ZM1136 1004Q1136 1127 1053 1191T812 1256H359V736H820Q971 736 1053 806T1136 1004Z" />
<glyph unicode="S" glyph-name="S" horiz-adv-x="1366" d="M1272 389Q1272 194 1120 87T690 -20Q175 -20 93 338L278 375Q310 248 414 189T697 129Q882 129 982 192T1083 379Q1083 448 1052 491T963 562T827 609T652 650Q485 687 399 724T262 806T186 913T159
1053Q159 1234 297 1332T694 1430Q934 1430 1061 1357T1239 1106L1051 1073Q1020 1185 933 1235T692 1286Q523 1286 434 1230T345 1063Q345 998 379 956T479 884T738 811Q803 796 867 781T991 744T1101 693T1191 622T1250 523T1272 389Z" />
<glyph unicode="T" glyph-name="T" horiz-adv-x="1251" d="M720 1253V0H530V1253H46V1409H1204V1253H720Z" />
<glyph unicode="U" glyph-name="U" horiz-adv-x="1479" d="M731 -20Q558 -20 429 43T229 226T158 512V1409H349V528Q349 335 447 235T730 135Q920 135 1025 238T1131 541V1409H1321V530Q1321 359 1249 235T1044 46T731 -20Z" />
<glyph unicode="V" glyph-name="V" horiz-adv-x="1366" d="M782 0H584L9 1409H210L600 417L684 168L768 417L1156 1409H1357L782 0Z" />
<glyph unicode="W" glyph-name="W" horiz-adv-x="1933" d="M1511 0H1283L1039 895Q1015 979 969 1196Q943 1080 925 1002T652 0H424L9 1409H208L461 514Q506 346 544 168Q568 278 599 408T877 1409H1060L1305 532Q1361 317 1393 168L1402 203Q1429 318 1446 390T1727
1409H1926L1511 0Z" />
<glyph unicode="X" glyph-name="X" horiz-adv-x="1366" d="M1112 0L689 616L257 0H46L582 732L87 1409H298L690 856L1071 1409H1282L800 739L1323 0H1112Z" />
<glyph unicode="Y" glyph-name="Y" horiz-adv-x="1366" d="M777 584V0H587V584L45 1409H255L684 738L1111 1409H1321L777 584Z" />
<glyph unicode="Z" glyph-name="Z" horiz-adv-x="1251" d="M1187 0H65V143L923 1253H138V1409H1140V1270L282 156H1187V0Z" />
<glyph unicode="[" glyph-name="bracketleft" horiz-adv-x="569" d="M146 -425V1484H553V1355H320V-296H553V-425H146Z" />
<glyph unicode="\" glyph-name="backslash" horiz-adv-x="569" d="M407 -20L0 1484H158L569 -20H407Z" />
<glyph unicode="]" glyph-name="bracketright" horiz-adv-x="569" d="M16 -425V-296H249V1355H16V1484H423V-425H16Z" />
<glyph unicode="^" glyph-name="asciicircum" horiz-adv-x="961" d="M787 673L478 1306L172 673H10L378 1409H581L951 673H787Z" />
<glyph unicode="_" glyph-name="underscore" horiz-adv-x="1139" d="M-31 -407V-277H1162V-407H-31Z" />
<glyph unicode="`" glyph-name="grave" horiz-adv-x="682" d="M436 1201L106 1479V1508H313L530 1221V1201H436Z" />
<glyph unicode="a" glyph-name="a" horiz-adv-x="1139" d="M414 -20Q251 -20 169 66T87 302Q87 470 197 560T554 656L797 660V719Q797 851 741 908T565 965Q444 965 389 924T323 793L135 810Q181 1102 569 1102Q773 1102 876 1009T979 738V272Q979 192 1000 152T1080
111Q1106 111 1139 118V6Q1071 -10 1000 -10Q900 -10 855 42T803 207H797Q728 83 637 32T414 -20ZM455 115Q554 115 631 160T752 283T797 445V534L600 530Q473 528 408 504T307 430T272 299Q272 211 319 163T455 115Z" />
<glyph unicode="b" glyph-name="b" horiz-adv-x="1139" d="M1053 546Q1053 -20 655 -20Q532 -20 451 24T318 168H316Q316 137 312 74T306 0H132Q138 54 138 223V1484H318V1061Q318 996 314 908H318Q368 1012 450 1057T655 1102Q860 1102 956 964T1053 546ZM864
540Q864 767 804 865T609 963Q457 963 388 859T318 529Q318 316 386 215T607 113Q743 113 803 213T864 540Z" />
<glyph unicode="c" glyph-name="c" horiz-adv-x="1024" d="M275 546Q275 330 343 226T548 122Q644 122 708 174T788 334L970 322Q949 166 837 73T553 -20Q326 -20 207 123T87 542Q87 815 207 958T551 1102Q717 1102 826 1016T964 779L779 765Q765 855 708 908T546
961Q403 961 339 866T275 546Z" />
<glyph unicode="d" glyph-name="d" horiz-adv-x="1139" d="M821 174Q771 70 689 25T484 -20Q279 -20 183 118T86 536Q86 1102 484 1102Q607 1102 689 1057T821 914H823L821 1035V1484H1001V223Q1001 54 1007 0H835Q832 16 829 74T825 174H821ZM275 542Q275 315
335 217T530 119Q683 119 752 225T821 554Q821 769 752 869T532 969Q396 969 336 869T275 542Z" />
<glyph unicode="e" glyph-name="e" horiz-adv-x="1139" d="M276 503Q276 317 353 216T578 115Q695 115 765 162T861 281L1019 236Q922 -20 578 -20Q338 -20 213 123T87 548Q87 816 212 959T571 1102Q1048 1102 1048 527V503H276ZM862 641Q847 812 775 890T568
969Q437 969 361 882T278 641H862Z" />
<glyph unicode="f" glyph-name="f" horiz-adv-x="569" d="M361 951V0H181V951H29V1082H181V1204Q181 1352 246 1417T445 1482Q520 1482 572 1470V1333Q527 1341 492 1341Q423 1341 392 1306T361 1179V1082H572V951H361Z" />
<glyph unicode="g" glyph-name="g" horiz-adv-x="1139" d="M548 -425Q371 -425 266 -356T131 -158L312 -132Q330 -207 391 -247T553 -288Q822 -288 822 27V201H820Q769 97 680 45T472 -8Q273 -8 180 124T86 539Q86 826 186 962T492 1099Q607 1099 691 1047T822
897H824Q824 927 828 1001T836 1082H1007Q1001 1028 1001 858V31Q1001 -425 548 -425ZM822 541Q822 673 786 768T685 914T536 965Q398 965 335 865T272 541Q272 319 331 222T533 125Q618 125 684 175T786 318T822 541Z" />
<glyph unicode="h" glyph-name="h" horiz-adv-x="1139" d="M317 897Q375 1003 456 1052T663 1102Q839 1102 922 1015T1006 721V0H825V686Q825 800 804 855T735 937T602 963Q475 963 399 875T322 638V0H142V1484H322V1098Q322 1037 319 972T314 897H317Z" />
<glyph unicode="i" glyph-name="i" horiz-adv-x="455" d="M137 1312V1484H317V1312H137ZM137 0V1082H317V0H137Z" />
<glyph unicode="j" glyph-name="j" horiz-adv-x="455" d="M137 1312V1484H317V1312H137ZM317 -134Q317 -287 257 -356T77 -425Q0 -425 -50 -416V-277L12 -283Q81 -283 109 -247T137 -107V1082H317V-134Z" />
<glyph unicode="k" glyph-name="k" horiz-adv-x="1024" d="M816 0L450 494L318 385V0H138V1484H318V557L793 1082H1004L565 617L1027 0H816Z" />
<glyph unicode="l" glyph-name="l" horiz-adv-x="455" d="M138 0V1484H318V0H138Z" />
<glyph unicode="m" glyph-name="m" horiz-adv-x="1706" d="M768 0V686Q768 843 725 903T570 963Q455 963 388 875T321 627V0H142V851Q142 1040 136 1082H306Q307 1077 308 1055T310 1005T314 897H317Q375 1012 450 1057T633 1102Q756 1102 827 1053T927 897H930Q986
1006 1065 1054T1258 1102Q1422 1102 1496 1013T1571 721V0H1393V686Q1393 843 1350 903T1195 963Q1077 963 1012 876T946 627V0H768Z" />
<glyph unicode="n" glyph-name="n" horiz-adv-x="1139" d="M825 0V686Q825 793 804 852T737 937T602 963Q472 963 397 874T322 627V0H142V851Q142 1040 136 1082H306Q307 1077 308 1055T310 1005T314 897H317Q379 1009 460 1055T663 1102Q841 1102 923 1014T1006
721V0H825Z" />
<glyph unicode="o" glyph-name="o" horiz-adv-x="1139" d="M1053 542Q1053 258 928 119T565 -20Q328 -20 207 124T86 542Q86 1102 571 1102Q819 1102 936 966T1053 542ZM864 542Q864 766 798 867T574 969Q416 969 346 866T275 542Q275 328 344 221T563 113Q725
113 794 217T864 542Z" />
<glyph unicode="p" glyph-name="p" horiz-adv-x="1139" d="M1053 546Q1053 -20 655 -20Q405 -20 319 168H314Q318 160 318 -2V-425H138V861Q138 1028 132 1082H306Q307 1078 309 1054T313 978T316 908H320Q368 1008 447 1054T655 1101Q855 1101 954 967T1053 546ZM864
542Q864 768 803 865T609 962Q502 962 442 917T350 777T318 528Q318 315 386 214T607 113Q741 113 802 211T864 542Z" />
<glyph unicode="q" glyph-name="q" horiz-adv-x="1139" d="M484 -20Q278 -20 182 119T86 536Q86 1102 484 1102Q607 1102 687 1059T821 914H823Q823 944 827 1017T835 1096H1008Q1001 1037 1001 801V-425H821V14L825 178H823Q769 71 690 26T484 -20ZM821 554Q821
765 752 867T532 969Q395 969 335 867T275 542Q275 315 335 217T530 119Q683 119 752 228T821 554Z" />
<glyph unicode="r" glyph-name="r" horiz-adv-x="682" d="M142 0V830Q142 944 136 1082H306Q314 898 314 861H318Q361 1000 417 1051T575 1102Q611 1102 648 1092V927Q612 937 552 937Q440 937 381 841T322 564V0H142Z" />
<glyph unicode="s" glyph-name="s" horiz-adv-x="1024" d="M950 299Q950 146 835 63T511 -20Q309 -20 200 46T57 254L216 285Q239 198 311 158T511 117Q648 117 711 159T775 285Q775 349 731 389T589 455L460 489Q305 529 240 567T137 661T100 796Q100 944 205
1021T513 1099Q692 1099 797 1036T931 834L769 814Q754 886 689 924T513 963Q391 963 333 926T275 814Q275 768 299 738T370 687T568 629Q711 593 774 563T873 495T930 410T950 299Z" />
<glyph unicode="t" glyph-name="t" horiz-adv-x="569" d="M554 8Q465 -16 372 -16Q156 -16 156 229V951H31V1082H163L216 1324H336V1082H536V951H336V268Q336 190 361 159T450 127Q486 127 554 141V8Z" />
<glyph unicode="u" glyph-name="u" horiz-adv-x="1139" d="M314 1082V396Q314 289 335 230T402 145T537 119Q667 119 742 208T817 455V1082H997V231Q997 42 1003 0H833Q832 5 831 27T829 77T825 185H822Q760 73 679 27T476 -20Q298 -20 216 68T133 361V1082H314Z" />
<glyph unicode="v" glyph-name="v" horiz-adv-x="1024" d="M613 0H400L7 1082H199L437 378Q450 338 506 141L541 258L580 376L826 1082H1017L613 0Z" />
<glyph unicode="w" glyph-name="w" horiz-adv-x="1479" d="M1174 0H965L776 765L740 934Q731 889 712 805T508 0H300L-3 1082H175L358 347Q365 323 401 149L418 223L644 1082H837L1026 339L1072 149L1103 288L1308 1082H1484L1174 0Z" />
<glyph unicode="x" glyph-name="x" horiz-adv-x="1024" d="M801 0L510 444L217 0H23L408 556L41 1082H240L510 661L778 1082H979L612 558L1002 0H801Z" />
<glyph unicode="y" glyph-name="y" horiz-adv-x="1024" d="M191 -425Q117 -425 67 -414V-279Q105 -285 151 -285Q319 -285 417 -38L434 5L5 1082H197L425 484Q430 470 437 451T482 320T523 196L593 393L830 1082H1020L604 0Q537 -173 479 -257T351 -383T191 -425Z" />
<glyph unicode="z" glyph-name="z" horiz-adv-x="1024" d="M83 0V137L688 943H117V1082H901V945L295 139H922V0H83Z" />
<glyph unicode="{" glyph-name="braceleft" horiz-adv-x="684" d="M513 -425Q386 -425 318 -348T249 -132V229Q249 346 197 403T34 466V593Q143 597 196 654T249 829V1191Q249 1332 315 1408T513 1484H648V1355H585Q494 1355 456 1302T417 1140V784Q417 690 364
622T223 532V530Q312 509 364 441T417 276V-81Q417 -187 455 -241T585 -296H648V-425H513Z" />
<glyph unicode="|" glyph-name="bar" horiz-adv-x="532" d="M183 -434V1484H349V-434H183Z" />
<glyph unicode="}" glyph-name="braceright" horiz-adv-x="684" d="M94 -296Q185 -296 224 -242T264 -81V276Q264 374 316 442T457 530V532Q371 552 318 619T264 784V1140Q264 1248 225 1301T94 1355H34V1484H166Q297 1484 363 1408T430 1191V829Q430 713 483
655T647 593V466Q535 462 483 404T430 229V-132Q430 -270 362 -347T166 -425H34V-296H94Z" />
<glyph unicode="~" glyph-name="asciitilde" horiz-adv-x="1196" d="M844 553Q775 553 703 575T557 623Q428 668 340 668Q273 668 215 648T92 580V723Q203 807 355 807Q407 807 470 794T664 735Q695 723 755 707T860 690Q990 690 1104 782V633Q1046 591 988 572T844 553Z" />
<glyph unicode="&#xa0;" glyph-name="space" horiz-adv-x="569" />
<glyph unicode="&#xa1;" glyph-name="exclamdown" horiz-adv-x="682" d="M266 685H414L438 -327H242L266 685ZM440 1082V881H246V1082H440Z" />
<glyph unicode="&#xa2;" glyph-name="cent" horiz-adv-x="1139" d="M596 277Q692 277 756 329T836 489L1018 477Q999 333 904 242T662 137V-31H538V137Q339 155 237 297T135 697Q135 950 237 1093T538 1254V1409H662V1254Q805 1239 895 1156T1012 934L827 920Q813
1010 756 1063T594 1116Q451 1116 387 1021T323 701Q323 485 391 381T596 277Z" />
<glyph unicode="&#xa3;" glyph-name="sterling" horiz-adv-x="1139" d="M1104 311Q1087 161 999 81T767 0H69V154Q158 200 201 280T244 481V625H58V754H244V1034Q244 1229 347 1329T646 1430Q793 1430 893 1370T1027 1200L853 1143Q832 1207 777 1244T650 1282Q536
1282 480 1225T424 1042V754H832V625H424V499Q424 380 378 287T255 153H738Q912 153 941 329L1104 311Z" />
<glyph unicode="&#xa4;" glyph-name="currency" horiz-adv-x="1139" d="M137 684Q137 822 215 936L115 1036L219 1139L318 1038Q432 1120 572 1120Q709 1120 823 1040L920 1137L1024 1032L928 936Q1008 819 1008 684Q1008 546 926 432L1026 332L924 227L823 328Q709
250 572 250Q429 250 320 330L215 225L113 330L215 432Q137 546 137 684ZM291 686Q291 569 374 488T572 406Q686 406 769 487T852 686Q852 803 769 885T572 967Q459 967 375 886T291 686Z" />
<glyph unicode="&#xa5;" glyph-name="yen" horiz-adv-x="1139" d="M720 709H1041V584H658V430H1041V303H658V0H480V303H99V430H480L482 584H99V709H419L-2 1409H197L568 762L943 1409H1142L720 709Z" />
<glyph unicode="&#xa6;" glyph-name="brokenbar" horiz-adv-x="532" d="M183 706V1484H349V706H183ZM183 -434V345H349V-434H183Z" />
<glyph unicode="&#xa7;" glyph-name="section" horiz-adv-x="1139" d="M588 1484Q761 1484 867 1418T1001 1224L840 1204Q813 1354 588 1354Q463 1354 399 1315T334 1204Q334 1156 364 1121T449 1060T635 1003Q782 968 860 927T981 826T1024 686Q1024 587 965
512T805 413Q917 365 967 301T1018 145Q1018 -3 903 -87T577 -172Q368 -172 259 -106T115 100L276 131Q296 41 364 0T577 -41Q713 -41 785 3T858 129Q858 186 825 224T731 292T518 358Q324 403 239 481T153 671Q153 760 214 834T381 938Q285 970 230 1037T174 1190Q174
1329 279 1406T588 1484ZM866 663Q866 735 797 787T551 880Q442 874 378 821T313 684Q313 635 342 599T427 535T612 475Q731 477 798 527T866 663Z" />
<glyph unicode="&#xa8;" glyph-name="dieresis" horiz-adv-x="682" d="M439 1219V1403H602V1219H439ZM45 1219V1403H210V1219H45Z" />
<glyph unicode="&#xa9;" glyph-name="copyright" horiz-adv-x="1509" d="M1477 707Q1477 514 1381 346T1116 81T754 -16Q557 -16 388 84T125 351T31 707Q31 900 128 1068T393 1333T754 1430Q948 1430 1116 1333T1381 1068T1477 707ZM1385 707Q1385 876 1301 1020T1071
1250T754 1335Q586 1335 440 1251T210 1020T126 707Q126 538 210 392T440 162T754 78Q923 78 1070 162T1301 392T1385 707ZM498 709Q498 554 569 469T765 383Q923 383 998 539L1113 504Q1051 383 967 331T765 279Q577 279 473 392T369 709Q369 912 469 1022T758
1133Q1002 1133 1098 924L984 891Q952 960 894 994T760 1028Q633 1028 566 948T498 709Z" />
<glyph unicode="&#xaa;" glyph-name="ordfeminine" horiz-adv-x="758" d="M260 651Q152 651 89 709T26 870Q26 986 104 1048T338 1112L516 1116V1176Q516 1257 481 1294T365 1331Q298 1331 258 1302T208 1196L59 1206Q75 1312 154 1372T363 1432Q508 1432 583
1370T659 1182V874Q659 816 673 791T722 766Q741 766 765 774V670Q716 657 682 657Q609 657 569 695T524 798H520Q447 651 260 651ZM299 762Q389 762 452 821T516 959V1024L378 1020Q260 1014 218 981T176 883Q176 762 299 762Z" />
<glyph unicode="&#xab;" glyph-name="guillemotleft" horiz-adv-x="1139" d="M886 141L548 506V569L886 940H1054V909L716 537L1056 170V141H886ZM419 141L83 506V569L419 940H586V909L251 537L588 170V141H419Z" />
<glyph unicode="&#xac;" glyph-name="logicalnot" horiz-adv-x="1196" d="M950 180V608H100V754H1095V180H950Z" />
<glyph unicode="&#xad;" glyph-name="hyphen" horiz-adv-x="682" d="M91 464V624H591V464H91Z" />
<glyph unicode="&#xae;" glyph-name="registered" horiz-adv-x="1509" d="M1477 707Q1477 514 1381 346T1116 81T754 -16Q557 -16 388 84T125 351T31 707Q31 900 128 1068T393 1333T754 1430Q948 1430 1116 1333T1381 1068T1477 707ZM1385 707Q1385 876 1301 1020T1071
1250T754 1335Q586 1335 440 1251T210 1020T126 707Q126 538 210 392T440 162T754 78Q923 78 1070 162T1301 392T1385 707ZM955 289L756 625H595V289H468V1120H775Q917 1120 992 1057T1068 883Q1068 781 1016 720T879 639L1100 289H955ZM941 881Q941 950 894 986T765
1022H595V721H777Q857 721 899 763T941 881Z" />
<glyph unicode="&#xaf;" glyph-name="overscore" horiz-adv-x="1131" d="M1148 1452H-17V1546H1148V1452Z" />
<glyph unicode="&#xb0;" glyph-name="degree" horiz-adv-x="819" d="M696 1145Q696 1026 612 943T409 860Q291 860 207 944T122 1145Q122 1262 205 1346T409 1430Q529 1430 612 1347T696 1145ZM587 1145Q587 1221 536 1273T409 1325Q334 1325 283 1272T231 1145Q231
1071 283 1018T409 965Q483 965 535 1017T587 1145Z" />
<glyph unicode="&#xb1;" glyph-name="plusminus" horiz-adv-x="1124" d="M636 680V285H489V680H65V825H489V1219H636V825H1060V680H636ZM65 0V145H1060V0H65Z" />
<glyph unicode="&#xb2;" glyph-name="twosuperior" horiz-adv-x="682" d="M43 563L41 666Q72 735 136 800T308 940Q405 1008 449 1064T493 1178Q493 1240 458 1277T348 1315Q280 1315 236 1279T184 1174L51 1182Q64 1289 144 1355T354 1421Q481 1421 555 1360T630
1188Q630 1041 442 903Q320 813 270 767T200 676H643V563H43Z" />
<glyph unicode="&#xb3;" glyph-name="threesuperior" horiz-adv-x="682" d="M642 795Q642 679 565 615T345 551Q59 551 27 778L163 791Q181 655 345 655Q505 655 505 803Q505 940 316 940H255V1049H312Q392 1049 438 1085T484 1186Q484 1246 447 1280T339 1315Q271
1315 229 1280T181 1180L46 1192Q59 1301 137 1361T343 1421Q473 1421 547 1362T621 1204Q621 1129 578 1074T445 999V997Q536 988 589 936T642 795Z" />
<glyph unicode="&#xb4;" glyph-name="acute" horiz-adv-x="682" d="M72 1201V1221L289 1508H496V1479L166 1201H72Z" />
<glyph unicode="&#xb5;" glyph-name="mu1" horiz-adv-x="1180" d="M140 -425V1082H321V396Q321 258 374 189T547 119Q675 119 748 206T821 455V1082H1001V266Q1001 190 1019 156T1079 121Q1104 121 1133 129V0Q1068 -20 1020 -20Q929 -20 882 27T829 174H826Q720
-20 527 -20Q460 -20 406 0T320 59V-425H140Z" />
<glyph unicode="&#xb6;" glyph-name="paragraph" horiz-adv-x="1100" d="M884 1307V-264H772V1307H555V-264H442V694Q274 694 177 786T80 1049Q80 1218 178 1313T450 1409H1013V1307H884Z" />
<glyph unicode="&#xb7;" glyph-name="middot" horiz-adv-x="682" d="M243 446V666H438V446H243Z" />
<glyph unicode="&#xb8;" glyph-name="cedilla" horiz-adv-x="682" d="M483 -253Q483 -434 209 -434Q152 -434 119 -430V-332Q168 -338 205 -338Q352 -338 352 -257Q352 -180 219 -180Q176 -180 162 -182L227 0H334L295 -100Q389 -103 436 -143T483 -253Z" />
<glyph unicode="&#xb9;" glyph-name="onesuperior" horiz-adv-x="682" d="M80 563V670H291V1290L89 1152V1272L299 1409H422V670H637V563H80Z" />
<glyph unicode="&#xba;" glyph-name="ordmasculine" horiz-adv-x="748" d="M723 1042Q723 854 635 753T372 651Q204 651 116 751T27 1042Q27 1231 116 1331T376 1432Q723 1432 723 1042ZM574 1042Q574 1196 529 1261T379 1327Q271 1327 225 1260T179 1042Q179
897 224 827T371 756Q482 756 528 825T574 1042Z" />
<glyph unicode="&#xbb;" glyph-name="guillemotright" horiz-adv-x="1139" d="M718 141H550V170L888 537L552 909V940H718L1056 569V506L718 141ZM253 141H83V170L421 537L85 909V940H253L588 569V506L253 141Z" />
<glyph unicode="&#xbc;" glyph-name="onequarter" horiz-adv-x="1708" d="M312 563V670H523V1290L321 1152V1272L531 1409H654V670H869V563H312ZM493 0H345L1226 1409H1371L493 0ZM1503 180V2H1372V180H966V291L1352 848H1503V293H1614V180H1503ZM1374 715Q1353
675 1292 580L1093 293H1372V653L1374 715Z" />
<glyph unicode="&#xbd;" glyph-name="onehalf" horiz-adv-x="1708" d="M312 563V670H523V1290L321 1152V1272L531 1409H654V670H869V563H312ZM493 0H345L1226 1409H1371L493 0ZM1053 2L1051 105Q1082 174 1146 239T1318 379Q1415 447 1459 503T1503 617Q1503 679
1468 716T1358 754Q1290 754 1246 718T1194 613L1061 621Q1074 728 1154 794T1364 860Q1491 860 1565 799T1640 627Q1640 480 1452 342Q1330 252 1280 206T1210 115H1653V2H1053Z" />
<glyph unicode="&#xbe;" glyph-name="threequarters" horiz-adv-x="1708" d="M513 0H365L1246 1409H1391L513 0ZM1503 180V2H1372V180H966V291L1352 848H1503V293H1614V180H1503ZM1374 715Q1353 675 1292 580L1093 293H1372V653L1374 715ZM688 795Q688 679 611
615T391 551Q105 551 73 778L209 791Q227 655 391 655Q551 655 551 803Q551 940 362 940H301V1049H358Q438 1049 484 1085T530 1186Q530 1246 493 1280T385 1315Q317 1315 275 1280T227 1180L92 1192Q105 1301 183 1361T389 1421Q519 1421 593 1362T667 1204Q667
1129 624 1074T491 999V997Q582 988 635 936T688 795Z" />
<glyph unicode="&#xbf;" glyph-name="questiondown" horiz-adv-x="1251" d="M131 50Q131 125 153 184T216 293T350 411L431 470Q502 522 537 579T573 705H748Q746 636 727 584T676 492T606 421T527 361T449 304T380 240T332 161T313 58Q313 -56 390 -122T608 -188Q748
-188 830 -118T926 74L1110 62Q1084 -136 954 -242T610 -348Q387 -348 259 -243T131 50ZM756 1082V881H561V1082H756Z" />
<glyph unicode="&#xc0;" glyph-name="Agrave" horiz-adv-x="1366" d="M1167 0L1006 412H364L202 0H4L579 1409H796L1362 0H1167ZM685 1265L676 1237Q651 1154 602 1024L422 561H949L768 1026Q740 1095 712 1182L685 1265ZM750 1530L440 1747V1776H647L864 1550V1530H750Z" />
<glyph unicode="&#xc1;" glyph-name="Aacute" horiz-adv-x="1366" d="M1167 0L1006 412H364L202 0H4L579 1409H796L1362 0H1167ZM685 1265L676 1237Q651 1154 602 1024L422 561H949L768 1026Q740 1095 712 1182L685 1265ZM547 1530V1550L764 1776H971V1747L661 1530H547Z" />
<glyph unicode="&#xc2;" glyph-name="Acircumflex" horiz-adv-x="1366" d="M1167 0L1006 412H364L202 0H4L579 1409H796L1362 0H1167ZM685 1265L676 1237Q651 1154 602 1024L422 561H949L768 1026Q740 1095 712 1182L685 1265ZM1014 1550V1530H909L690 1669H688L456
1530H352V1550L586 1790H790L1014 1550Z" />
<glyph unicode="&#xc3;" glyph-name="Atilde" horiz-adv-x="1366" d="M1167 0L1006 412H364L202 0H4L579 1409H796L1362 0H1167ZM685 1265L676 1237Q651 1154 602 1024L422 561H949L768 1026Q740 1095 712 1182L685 1265ZM842 1530Q800 1530 758 1548T677 1589T603
1630T536 1649Q481 1649 454 1618T418 1530H327Q338 1632 362 1684T426 1767T530 1798Q574 1798 616 1780T697 1739T770 1698T835 1679Q935 1679 952 1798H1044Q1027 1650 977 1590T842 1530Z" />
<glyph unicode="&#xc4;" glyph-name="Adieresis" horiz-adv-x="1366" d="M1167 0L1006 412H364L202 0H4L579 1409H796L1362 0H1167ZM685 1265L676 1237Q651 1154 602 1024L422 561H949L768 1026Q740 1095 712 1182L685 1265ZM803 1530V1714H966V1530H803ZM409
1530V1714H574V1530H409Z" />
<glyph unicode="&#xc5;" glyph-name="Aring" horiz-adv-x="1366" d="M1167 0L1006 412H364L202 0H4L579 1409H796L1362 0H1167ZM685 1265L676 1237Q651 1154 602 1024L422 561H949L768 1026Q740 1095 712 1182L685 1265ZM928 1546Q928 1446 857 1375T686 1304Q586
1304 515 1375T444 1546Q444 1647 515 1717T686 1787Q785 1787 856 1717T928 1546ZM820 1546Q820 1602 781 1641T686 1680Q629 1680 590 1641T551 1546Q551 1491 589 1450T686 1409Q744 1409 782 1449T820 1546Z" />
<glyph unicode="&#xc6;" glyph-name="AE" horiz-adv-x="2048" d="M969 0V412H421L223 0H24L710 1409H1919V1253H1160V801H1859V647H1160V156H1960V0H969ZM969 1262H818L790 1199L491 561H969V1262Z" />
<glyph unicode="&#xc7;" glyph-name="Ccedilla" horiz-adv-x="1479" d="M792 1274Q558 1274 428 1124T298 711Q298 452 433 295T800 137Q1096 137 1245 430L1401 352Q1314 170 1157 75T791 -20Q578 -20 423 68T186 321T104 711Q104 1048 286 1239T790 1430Q1015
1430 1166 1342T1388 1081L1207 1021Q1158 1144 1050 1209T792 1274ZM993 -253Q993 -434 719 -434Q662 -434 629 -430V-332Q678 -338 715 -338Q862 -338 862 -257Q862 -180 729 -180Q686 -180 672 -182L737 0H844L805 -100Q899 -103 946 -143T993 -253Z" />
<glyph unicode="&#xc8;" glyph-name="Egrave" horiz-adv-x="1366" d="M168 0V1409H1237V1253H359V801H1177V647H359V156H1278V0H168ZM735 1530L425 1747V1776H632L849 1550V1530H735Z" />
<glyph unicode="&#xc9;" glyph-name="Eacute" horiz-adv-x="1366" d="M168 0V1409H1237V1253H359V801H1177V647H359V156H1278V0H168ZM551 1530V1550L768 1776H975V1747L665 1530H551Z" />
<glyph unicode="&#xca;" glyph-name="Ecircumflex" horiz-adv-x="1366" d="M168 0V1409H1237V1253H359V801H1177V647H359V156H1278V0H168ZM1037 1550V1530H932L713 1669H711L479 1530H375V1550L609 1790H813L1037 1550Z" />
<glyph unicode="&#xcb;" glyph-name="Edieresis" horiz-adv-x="1366" d="M168 0V1409H1237V1253H359V801H1177V647H359V156H1278V0H168ZM816 1530V1714H979V1530H816ZM422 1530V1714H587V1530H422Z" />
<glyph unicode="&#xcc;" glyph-name="Igrave" horiz-adv-x="569" d="M189 0V1409H380V0H189ZM575 1530L265 1747V1776H472L689 1550V1530H575Z" />
<glyph unicode="&#xcd;" glyph-name="Iacute" horiz-adv-x="569" d="M189 0V1409H380V0H189ZM142 1530V1550L359 1776H566V1747L256 1530H142Z" />
<glyph unicode="&#xce;" glyph-name="Icircumflex" horiz-adv-x="569" d="M189 0V1409H380V0H189ZM872 1550V1530H767L548 1669H546L314 1530H210V1550L444 1790H648L872 1550Z" />
<glyph unicode="&#xcf;" glyph-name="Idieresis" horiz-adv-x="569" d="M189 0V1409H380V0H189ZM657 1530V1714H820V1530H657ZM263 1530V1714H428V1530H263Z" />
<glyph unicode="&#xd0;" glyph-name="Eth" horiz-adv-x="1479" d="M14 801H168V1409H634Q992 1409 1186 1230T1381 719Q1381 501 1296 338T1055 87T695 0H168V647H14V801ZM1189 719Q1189 981 1046 1118T630 1256H359V801H765V647H359V153H673Q828 153 945 221T1126
417T1189 719Z" />
<glyph unicode="&#xd1;" glyph-name="Ntilde" horiz-adv-x="1479" d="M1082 0L328 1200L333 1103L338 936V0H168V1409H390L1152 201Q1140 397 1140 485V1409H1312V0H1082ZM909 1530Q867 1530 825 1548T744 1589T670 1630T603 1649Q548 1649 521 1618T485 1530H394Q405
1632 429 1684T493 1767T597 1798Q641 1798 683 1780T764 1739T837 1698T902 1679Q1002 1679 1019 1798H1111Q1094 1650 1044 1590T909 1530Z" />
<glyph unicode="&#xd2;" glyph-name="Ograve" horiz-adv-x="1593" d="M1495 711Q1495 490 1411 324T1168 69T795 -20Q578 -20 421 68T180 322T97 711Q97 1049 282 1239T797 1430Q1012 1430 1170 1345T1411 1096T1495 711ZM1300 711Q1300 974 1169 1124T797 1274Q555
1274 423 1126T291 711Q291 446 424 291T795 135Q1039 135 1169 285T1300 711ZM854 1530L544 1747V1776H751L968 1550V1530H854Z" />
<glyph unicode="&#xd3;" glyph-name="Oacute" horiz-adv-x="1593" d="M1495 711Q1495 490 1411 324T1168 69T795 -20Q578 -20 421 68T180 322T97 711Q97 1049 282 1239T797 1430Q1012 1430 1170 1345T1411 1096T1495 711ZM1300 711Q1300 974 1169 1124T797 1274Q555
1274 423 1126T291 711Q291 446 424 291T795 135Q1039 135 1169 285T1300 711ZM621 1530V1550L838 1776H1045V1747L735 1530H621Z" />
<glyph unicode="&#xd4;" glyph-name="Ocircumflex" horiz-adv-x="1593" d="M1495 711Q1495 490 1411 324T1168 69T795 -20Q578 -20 421 68T180 322T97 711Q97 1049 282 1239T797 1430Q1012 1430 1170 1345T1411 1096T1495 711ZM1300 711Q1300 974 1169 1124T797
1274Q555 1274 423 1126T291 711Q291 446 424 291T795 135Q1039 135 1169 285T1300 711ZM1131 1550V1530H1026L807 1669H805L573 1530H469V1550L703 1790H907L1131 1550Z" />
<glyph unicode="&#xd5;" glyph-name="Otilde" horiz-adv-x="1593" d="M1495 711Q1495 490 1411 324T1168 69T795 -20Q578 -20 421 68T180 322T97 711Q97 1049 282 1239T797 1430Q1012 1430 1170 1345T1411 1096T1495 711ZM1300 711Q1300 974 1169 1124T797 1274Q555
1274 423 1126T291 711Q291 446 424 291T795 135Q1039 135 1169 285T1300 711ZM941 1530Q899 1530 857 1548T776 1589T702 1630T635 1649Q580 1649 553 1618T517 1530H426Q437 1632 461 1684T525 1767T629 1798Q673 1798 715 1780T796 1739T869 1698T934 1679Q1034
1679 1051 1798H1143Q1126 1650 1076 1590T941 1530Z" />
<glyph unicode="&#xd6;" glyph-name="Odieresis" horiz-adv-x="1593" d="M1495 711Q1495 490 1411 324T1168 69T795 -20Q578 -20 421 68T180 322T97 711Q97 1049 282 1239T797 1430Q1012 1430 1170 1345T1411 1096T1495 711ZM1300 711Q1300 974 1169 1124T797
1274Q555 1274 423 1126T291 711Q291 446 424 291T795 135Q1039 135 1169 285T1300 711ZM910 1530V1714H1073V1530H910ZM516 1530V1714H681V1530H516Z" />
<glyph unicode="&#xd7;" glyph-name="multiply" horiz-adv-x="1196" d="M142 330L496 684L144 1036L248 1139L598 786L948 1137L1053 1032L703 684L1055 332L953 227L600 580L244 225L142 330Z" />
<glyph unicode="&#xd8;" glyph-name="Oslash" horiz-adv-x="1593" d="M1495 711Q1495 490 1411 324T1168 69T795 -20Q549 -20 381 92L261 -53H71L271 188Q97 380 97 711Q97 1049 282 1239T797 1430Q1044 1430 1211 1320L1332 1466H1524L1323 1224Q1495 1034 1495
711ZM1300 711Q1300 935 1202 1079L493 226Q615 135 795 135Q1039 135 1169 285T1300 711ZM291 711Q291 482 392 333L1099 1186Q975 1274 797 1274Q555 1274 423 1126T291 711Z" />
<glyph unicode="&#xd9;" glyph-name="Ugrave" horiz-adv-x="1479" d="M731 -20Q558 -20 429 43T229 226T158 512V1409H349V528Q349 335 447 235T730 135Q920 135 1025 238T1131 541V1409H1321V530Q1321 359 1249 235T1044 46T731 -20ZM813 1530L503 1747V1776H710L927
1550V1530H813Z" />
<glyph unicode="&#xda;" glyph-name="Uacute" horiz-adv-x="1479" d="M731 -20Q558 -20 429 43T229 226T158 512V1409H349V528Q349 335 447 235T730 135Q920 135 1025 238T1131 541V1409H1321V530Q1321 359 1249 235T1044 46T731 -20ZM565 1530V1550L782 1776H989V1747L679
1530H565Z" />
<glyph unicode="&#xdb;" glyph-name="Ucircumflex" horiz-adv-x="1479" d="M731 -20Q558 -20 429 43T229 226T158 512V1409H349V528Q349 335 447 235T730 135Q920 135 1025 238T1131 541V1409H1321V530Q1321 359 1249 235T1044 46T731 -20ZM1070 1550V1530H965L746
1669H744L512 1530H408V1550L642 1790H846L1070 1550Z" />
<glyph unicode="&#xdc;" glyph-name="Udieresis" horiz-adv-x="1479" d="M731 -20Q558 -20 429 43T229 226T158 512V1409H349V528Q349 335 447 235T730 135Q920 135 1025 238T1131 541V1409H1321V530Q1321 359 1249 235T1044 46T731 -20ZM853 1530V1714H1016V1530H853ZM459
1530V1714H624V1530H459Z" />
<glyph unicode="&#xdd;" glyph-name="Yacute" horiz-adv-x="1366" d="M777 584V0H587V584L45 1409H255L684 738L1111 1409H1321L777 584ZM536 1530V1550L753 1776H960V1747L650 1530H536Z" />
<glyph unicode="&#xde;" glyph-name="Thorn" horiz-adv-x="1366" d="M1258 735Q1258 607 1200 508T1033 353T773 297H359V0H168V1409H359V1157H761Q1000 1157 1129 1046T1258 735ZM1066 731Q1066 865 984 939T738 1014H359V438H746Q899 438 982 515T1066 731Z" />
<glyph unicode="&#xdf;" glyph-name="germandbls" horiz-adv-x="1251" d="M1167 295Q1167 145 1073 63T809 -20Q638 -20 526 29L524 193Q576 164 656 144T805 124Q897 124 946 167T995 289Q995 353 953 404T813 513Q721 567 676 633T630 785Q630 846 658 896T741
991Q799 1039 825 1081T852 1173Q852 1250 785 1296T609 1343Q461 1343 392 1263T322 1021V0H142V1027Q142 1254 259 1369T609 1484Q799 1484 911 1404T1024 1187Q1024 1044 911 941Q832 869 815 845T798 791Q798 753 825 724T894 666T983 605Q1167 481 1167 295Z"
/>
<glyph unicode="&#xe0;" glyph-name="agrave" horiz-adv-x="1139" d="M414 -20Q251 -20 169 66T87 302Q87 470 197 560T554 656L797 660V719Q797 851 741 908T565 965Q444 965 389 924T323 793L135 810Q181 1102 569 1102Q773 1102 876 1009T979 738V272Q979 192
1000 152T1080 111Q1106 111 1139 118V6Q1071 -10 1000 -10Q900 -10 855 42T803 207H797Q728 83 637 32T414 -20ZM455 115Q554 115 631 160T752 283T797 445V534L600 530Q473 528 408 504T307 430T272 299Q272 211 319 163T455 115ZM624 1201L294 1479V1508H501L718
1221V1201H624Z" />
<glyph unicode="&#xe1;" glyph-name="aacute" horiz-adv-x="1139" d="M414 -20Q251 -20 169 66T87 302Q87 470 197 560T554 656L797 660V719Q797 851 741 908T565 965Q444 965 389 924T323 793L135 810Q181 1102 569 1102Q773 1102 876 1009T979 738V272Q979 192
1000 152T1080 111Q1106 111 1139 118V6Q1071 -10 1000 -10Q900 -10 855 42T803 207H797Q728 83 637 32T414 -20ZM455 115Q554 115 631 160T752 283T797 445V534L600 530Q473 528 408 504T307 430T272 299Q272 211 319 163T455 115ZM412 1201V1221L629 1508H836V1479L506
1201H412Z" />
<glyph unicode="&#xe2;" glyph-name="acircumflex" horiz-adv-x="1139" d="M414 -20Q251 -20 169 66T87 302Q87 470 197 560T554 656L797 660V719Q797 851 741 908T565 965Q444 965 389 924T323 793L135 810Q181 1102 569 1102Q773 1102 876 1009T979 738V272Q979
192 1000 152T1080 111Q1106 111 1139 118V6Q1071 -10 1000 -10Q900 -10 855 42T803 207H797Q728 83 637 32T414 -20ZM455 115Q554 115 631 160T752 283T797 445V534L600 530Q473 528 408 504T307 430T272 299Q272 211 319 163T455 115ZM880 1221V1201H775L556
1370H554L322 1201H218V1221L452 1491H656L880 1221Z" />
<glyph unicode="&#xe3;" glyph-name="atilde" horiz-adv-x="1139" d="M414 -20Q251 -20 169 66T87 302Q87 470 197 560T554 656L797 660V719Q797 851 741 908T565 965Q444 965 389 924T323 793L135 810Q181 1102 569 1102Q773 1102 876 1009T979 738V272Q979 192
1000 152T1080 111Q1106 111 1139 118V6Q1071 -10 1000 -10Q900 -10 855 42T803 207H797Q728 83 637 32T414 -20ZM455 115Q554 115 631 160T752 283T797 445V534L600 530Q473 528 408 504T307 430T272 299Q272 211 319 163T455 115ZM737 1201Q695 1201 653 1219T572
1260T498 1301T431 1320Q376 1320 349 1289T313 1201H222Q233 1303 257 1355T321 1438T425 1469Q469 1469 511 1451T592 1410T665 1369T730 1350Q830 1350 847 1469H939Q922 1321 872 1261T737 1201Z" />
<glyph unicode="&#xe4;" glyph-name="adieresis" horiz-adv-x="1139" d="M414 -20Q251 -20 169 66T87 302Q87 470 197 560T554 656L797 660V719Q797 851 741 908T565 965Q444 965 389 924T323 793L135 810Q181 1102 569 1102Q773 1102 876 1009T979 738V272Q979
192 1000 152T1080 111Q1106 111 1139 118V6Q1071 -10 1000 -10Q900 -10 855 42T803 207H797Q728 83 637 32T414 -20ZM455 115Q554 115 631 160T752 283T797 445V534L600 530Q473 528 408 504T307 430T272 299Q272 211 319 163T455 115ZM674 1219V1403H837V1219H674ZM280
1219V1403H445V1219H280Z" />
<glyph unicode="&#xe5;" glyph-name="aring" horiz-adv-x="1139" d="M414 -20Q251 -20 169 66T87 302Q87 470 197 560T554 656L797 660V719Q797 851 741 908T565 965Q444 965 389 924T323 793L135 810Q181 1102 569 1102Q773 1102 876 1009T979 738V272Q979 192
1000 152T1080 111Q1106 111 1139 118V6Q1071 -10 1000 -10Q900 -10 855 42T803 207H797Q728 83 637 32T414 -20ZM455 115Q554 115 631 160T752 283T797 445V534L600 530Q473 528 408 504T307 430T272 299Q272 211 319 163T455 115ZM799 1410Q799 1310 728 1239T557
1168Q457 1168 386 1239T315 1410Q315 1511 386 1581T557 1651Q656 1651 727 1581T799 1410ZM691 1410Q691 1466 652 1505T557 1544Q500 1544 461 1505T422 1410Q422 1355 460 1314T557 1273Q615 1273 653 1313T691 1410Z" />
<glyph unicode="&#xe6;" glyph-name="ae" horiz-adv-x="1821" d="M968 503V486Q970 305 1045 210T1260 115Q1377 115 1447 162T1543 281L1701 236Q1604 -20 1260 -20Q939 -20 837 237Q758 97 653 39T402 -20Q235 -20 151 66T66 302Q66 476 185 564T546 656L786
660V719Q786 854 731 909T554 965Q428 965 372 925T302 793L114 810Q160 1102 558 1102Q808 1102 907 963Q1025 1102 1253 1102Q1730 1102 1730 527V503H968ZM786 534L591 530Q458 527 388 501T284 424T251 299Q251 212 301 164T444 115Q546 115 622 159T742 281T786
445V534ZM1544 641Q1529 812 1457 890T1250 969Q1123 969 1050 884T970 641H1544Z" />
<glyph unicode="&#xe7;" glyph-name="ccedilla" horiz-adv-x="1024" d="M275 546Q275 330 343 226T548 122Q644 122 708 174T788 334L970 322Q949 166 837 73T553 -20Q326 -20 207 123T87 542Q87 815 207 958T551 1102Q717 1102 826 1016T964 779L779 765Q765
855 708 908T546 961Q403 961 339 866T275 546ZM751 -253Q751 -434 477 -434Q420 -434 387 -430V-332Q436 -338 473 -338Q620 -338 620 -257Q620 -180 487 -180Q444 -180 430 -182L495 0H602L563 -100Q657 -103 704 -143T751 -253Z" />
<glyph unicode="&#xe8;" glyph-name="egrave" horiz-adv-x="1139" d="M276 503Q276 317 353 216T578 115Q695 115 765 162T861 281L1019 236Q922 -20 578 -20Q338 -20 213 123T87 548Q87 816 212 959T571 1102Q1048 1102 1048 527V503H276ZM862 641Q847 812 775
890T568 969Q437 969 361 882T278 641H862ZM657 1201L327 1479V1508H534L751 1221V1201H657Z" />
<glyph unicode="&#xe9;" glyph-name="eacute" horiz-adv-x="1139" d="M276 503Q276 317 353 216T578 115Q695 115 765 162T861 281L1019 236Q922 -20 578 -20Q338 -20 213 123T87 548Q87 816 212 959T571 1102Q1048 1102 1048 527V503H276ZM862 641Q847 812 775
890T568 969Q437 969 361 882T278 641H862ZM440 1201V1221L657 1508H864V1479L534 1201H440Z" />
<glyph unicode="&#xea;" glyph-name="ecircumflex" horiz-adv-x="1139" d="M276 503Q276 317 353 216T578 115Q695 115 765 162T861 281L1019 236Q922 -20 578 -20Q338 -20 213 123T87 548Q87 816 212 959T571 1102Q1048 1102 1048 527V503H276ZM862 641Q847 812
775 890T568 969Q437 969 361 882T278 641H862ZM907 1221V1201H802L583 1370H581L349 1201H245V1221L479 1491H683L907 1221Z" />
<glyph unicode="&#xeb;" glyph-name="edieresis" horiz-adv-x="1139" d="M276 503Q276 317 353 216T578 115Q695 115 765 162T861 281L1019 236Q922 -20 578 -20Q338 -20 213 123T87 548Q87 816 212 959T571 1102Q1048 1102 1048 527V503H276ZM862 641Q847 812
775 890T568 969Q437 969 361 882T278 641H862ZM687 1219V1403H850V1219H687ZM293 1219V1403H458V1219H293Z" />
<glyph unicode="&#xec;" glyph-name="igrave" horiz-adv-x="569" d="M194 0V1082H374V0H194ZM596 1201L266 1479V1508H473L690 1221V1201H596Z" />
<glyph unicode="&#xed;" glyph-name="iacute" horiz-adv-x="569" d="M194 0V1082H374V0H194ZM135 1201V1221L352 1508H559V1479L229 1201H135Z" />
<glyph unicode="&#xee;" glyph-name="icircumflex" horiz-adv-x="569" d="M194 0V1082H374V0H194ZM873 1221V1201H768L549 1370H547L315 1201H211V1221L445 1491H649L873 1221Z" />
<glyph unicode="&#xef;" glyph-name="idieresis" horiz-adv-x="569" d="M194 0V1082H374V0H194ZM658 1219V1403H821V1219H658ZM264 1219V1403H429V1219H264Z" />
<glyph unicode="&#xf0;" glyph-name="eth" horiz-adv-x="1139" d="M566 -20Q334 -20 210 109T86 481Q86 725 210 852T573 979Q710 979 804 920Q695 1137 570 1251L269 1118V1232L487 1326Q378 1413 245 1484H454Q534 1448 624 1382L930 1514L929 1402L718 1310Q889
1154 976 951T1063 516V510Q1063 249 939 115T566 -20ZM874 481Q874 673 804 759T577 846Q420 846 348 759T275 481Q275 291 347 202T564 113Q725 113 799 200T874 481Z" />
<glyph unicode="&#xf1;" glyph-name="ntilde" horiz-adv-x="1139" d="M829 0V686Q829 793 808 852T741 937T606 963Q476 963 401 874T326 627V0H146V851Q146 1040 140 1082H310Q311 1077 312 1055T314 1005T318 897H321Q383 1009 464 1055T667 1102Q845 1102 927
1014T1010 721V0H829ZM737 1201Q695 1201 653 1219T572 1260T498 1301T431 1320Q376 1320 349 1289T313 1201H222Q233 1303 257 1355T321 1438T425 1469Q469 1469 511 1451T592 1410T665 1369T730 1350Q830 1350 847 1469H939Q922 1321 872 1261T737 1201Z" />
<glyph unicode="&#xf2;" glyph-name="ograve" horiz-adv-x="1139" d="M1053 542Q1053 258 928 119T565 -20Q328 -20 207 124T86 542Q86 1102 571 1102Q819 1102 936 966T1053 542ZM864 542Q864 766 798 867T574 969Q416 969 346 866T275 542Q275 328 344 221T563
113Q725 113 794 217T864 542ZM659 1201L329 1479V1508H536L753 1221V1201H659Z" />
<glyph unicode="&#xf3;" glyph-name="oacute" horiz-adv-x="1139" d="M1053 542Q1053 258 928 119T565 -20Q328 -20 207 124T86 542Q86 1102 571 1102Q819 1102 936 966T1053 542ZM864 542Q864 766 798 867T574 969Q416 969 346 866T275 542Q275 328 344 221T563
113Q725 113 794 217T864 542ZM431 1201V1221L648 1508H855V1479L525 1201H431Z" />
<glyph unicode="&#xf4;" glyph-name="ocircumflex" horiz-adv-x="1139" d="M1053 542Q1053 258 928 119T565 -20Q328 -20 207 124T86 542Q86 1102 571 1102Q819 1102 936 966T1053 542ZM864 542Q864 766 798 867T574 969Q416 969 346 866T275 542Q275 328 344
221T563 113Q725 113 794 217T864 542ZM902 1221V1201H797L578 1370H576L344 1201H240V1221L474 1491H678L902 1221Z" />
<glyph unicode="&#xf5;" glyph-name="otilde" horiz-adv-x="1139" d="M1053 542Q1053 258 928 119T565 -20Q328 -20 207 124T86 542Q86 1102 571 1102Q819 1102 936 966T1053 542ZM864 542Q864 766 798 867T574 969Q416 969 346 866T275 542Q275 328 344 221T563
113Q725 113 794 217T864 542ZM739 1201Q697 1201 655 1219T574 1260T500 1301T433 1320Q378 1320 351 1289T315 1201H224Q235 1303 259 1355T323 1438T427 1469Q471 1469 513 1451T594 1410T667 1369T732 1350Q832 1350 849 1469H941Q924 1321 874 1261T739 1201Z"
/>
<glyph unicode="&#xf6;" glyph-name="odieresis" horiz-adv-x="1139" d="M1053 542Q1053 258 928 119T565 -20Q328 -20 207 124T86 542Q86 1102 571 1102Q819 1102 936 966T1053 542ZM864 542Q864 766 798 867T574 969Q416 969 346 866T275 542Q275 328 344 221T563
113Q725 113 794 217T864 542ZM689 1219V1403H852V1219H689ZM295 1219V1403H460V1219H295Z" />
<glyph unicode="&#xf7;" glyph-name="divide" horiz-adv-x="1124" d="M478 958V1141H646V958H478ZM65 608V754H1060V608H65ZM478 223V406H646V223H478Z" />
<glyph unicode="&#xf8;" glyph-name="oslash" horiz-adv-x="1251" d="M1112 542Q1112 258 987 119T624 -20Q429 -20 311 78L211 -38H44L228 176Q145 314 145 542Q145 1102 630 1102Q831 1102 946 1011L1037 1116H1204L1031 915Q1112 782 1112 542ZM923 542Q923
671 900 763L417 201Q485 113 622 113Q784 113 853 217T923 542ZM334 542Q334 412 358 327L840 888Q773 969 633 969Q475 969 405 866T334 542Z" />
<glyph unicode="&#xf9;" glyph-name="ugrave" horiz-adv-x="1139" d="M320 1082V396Q320 289 341 230T408 145T543 119Q673 119 748 208T823 455V1082H1003V231Q1003 42 1009 0H839Q838 5 837 27T835 77T831 185H828Q766 73 685 27T482 -20Q304 -20 222 68T139
361V1082H320ZM672 1201L342 1479V1508H549L766 1221V1201H672Z" />
<glyph unicode="&#xfa;" glyph-name="uacute" horiz-adv-x="1139" d="M320 1082V396Q320 289 341 230T408 145T543 119Q673 119 748 208T823 455V1082H1003V231Q1003 42 1009 0H839Q838 5 837 27T835 77T831 185H828Q766 73 685 27T482 -20Q304 -20 222 68T139
361V1082H320ZM415 1201V1221L632 1508H839V1479L509 1201H415Z" />
<glyph unicode="&#xfb;" glyph-name="ucircumflex" horiz-adv-x="1139" d="M320 1082V396Q320 289 341 230T408 145T543 119Q673 119 748 208T823 455V1082H1003V231Q1003 42 1009 0H839Q838 5 837 27T835 77T831 185H828Q766 73 685 27T482 -20Q304 -20 222 68T139
361V1082H320ZM901 1221V1201H796L577 1370H575L343 1201H239V1221L473 1491H677L901 1221Z" />
<glyph unicode="&#xfc;" glyph-name="udieresis" horiz-adv-x="1139" d="M320 1082V396Q320 289 341 230T408 145T543 119Q673 119 748 208T823 455V1082H1003V231Q1003 42 1009 0H839Q838 5 837 27T835 77T831 185H828Q766 73 685 27T482 -20Q304 -20 222 68T139
361V1082H320ZM676 1219V1403H839V1219H676ZM282 1219V1403H447V1219H282Z" />
<glyph unicode="&#xfd;" glyph-name="yacute" horiz-adv-x="1024" d="M191 -425Q117 -425 67 -414V-279Q105 -285 151 -285Q319 -285 417 -38L434 5L5 1082H197L425 484Q430 470 437 451T482 320T523 196L593 393L830 1082H1020L604 0Q537 -173 479 -257T351 -383T191
-425ZM355 1201V1221L572 1508H779V1479L449 1201H355Z" />
<glyph unicode="&#xfe;" glyph-name="thorn" horiz-adv-x="1139" d="M138 1484H318V1061Q318 996 314 908H320Q368 1008 447 1054T655 1101Q855 1101 954 967T1053 546Q1053 -20 655 -20Q405 -20 319 168H314Q318 160 318 -2V-425H138V1484ZM864 542Q864 768 803
865T609 962Q502 962 442 917T350 777T318 528Q318 315 386 214T607 113Q741 113 802 211T864 542Z" />
<glyph unicode="&#xff;" glyph-name="ydieresis" horiz-adv-x="1024" d="M191 -425Q117 -425 67 -414V-279Q105 -285 151 -285Q319 -285 417 -38L434 5L5 1082H197L425 484Q430 470 437 451T482 320T523 196L593 393L830 1082H1020L604 0Q537 -173 479 -257T351
-383T191 -425ZM626 1219V1403H789V1219H626ZM232 1219V1403H397V1219H232Z" />
<glyph unicode="&#x2013;" glyph-name="endash" horiz-adv-x="1139" d="M0 451V588H1138V451H0Z" />
<glyph unicode="&#x2014;" glyph-name="emdash" horiz-adv-x="2048" d="M0 451V588H2048V451H0Z" />
<glyph unicode="&#x2018;" glyph-name="quoteleft" horiz-adv-x="455" d="M127 952V1098Q127 1195 145 1268T207 1409H328Q233 1272 233 1147H322V952H127Z" />
<glyph unicode="&#x2019;" glyph-name="quoteright" horiz-adv-x="455" d="M328 1264Q328 1159 309 1088T250 952H127Q221 1088 221 1212H133V1409H328V1264Z" />
<glyph unicode="&#x201a;" glyph-name="quotesinglbase" horiz-adv-x="455" d="M328 51Q328 -55 309 -126T250 -262H127Q221 -126 221 0H133V195H328V51Z" />
<glyph unicode="&#x201c;" glyph-name="quotedblleft" horiz-adv-x="682" d="M407 952V1098Q407 1193 425 1267T485 1409H607Q513 1273 513 1147H601V952H407ZM75 952V1098Q75 1195 93 1268T155 1409H276Q181 1272 181 1147H270V952H75Z" />
<glyph unicode="&#x201d;" glyph-name="quotedblright" horiz-adv-x="682" d="M607 1264Q607 1171 590 1098T528 952H407Q501 1088 501 1214H413V1409H607V1264ZM276 1264Q276 1159 257 1088T198 952H75Q169 1088 169 1214H81V1409H276V1264Z" />
<glyph unicode="&#x201e;" glyph-name="quotedblbase" horiz-adv-x="682" d="M607 51Q607 -44 590 -117T528 -262H407Q501 -126 501 0H413V195H607V51ZM276 51Q276 -55 257 -126T198 -262H75Q169 -126 169 0H81V195H276V51Z" />
<glyph unicode="&#x2022;" glyph-name="bullet" horiz-adv-x="717" d="M636 682Q636 569 555 485T355 401Q242 401 162 484T81 682Q81 797 162 876T355 956Q471 956 553 876T636 682Z" />
<glyph unicode="&#x2039;" glyph-name="guilsinglleft" horiz-adv-x="682" d="M424 141L88 506V569L424 940H591V909L256 537L593 170V141H424Z" />
<glyph unicode="&#x203a;" glyph-name="guilsinglright" horiz-adv-x="682" d="M257 141H89V170L427 537L91 909V940H257L594 569V506L257 141Z" />
</font>
</defs>
</svg>
