<?xml version="1.0" standalone="no"?>
<!DOCTYPE svg PUBLIC "-//W3C//DTD SVG 1.1//EN" "http://www.w3.org/Graphics/SVG/1.1/DTD/svg11.dtd">
<svg xmlns="http://www.w3.org/2000/svg">
<defs >
<font id="Lemonada" horiz-adv-x="750" ><font-face
    font-family="Lemonada"
    units-per-em="1000"
    panose-1="0 0 8 0 0 0 0 0 0 0"
    ascent="1345"
    descent="-653"
    alphabetic="0" />
<glyph unicode=" " glyph-name="space" horiz-adv-x="300" />
<glyph unicode="!" glyph-name="exclam" horiz-adv-x="420" d="M150 279T135 301T119 364Q119 388 134 478Q153 596 153 631Q153 653 147 674T128 708Q160 741 205 758T302 775Q358 775 384 748T410 672Q410 605 370 499T291 317Q271 299 242 289T189 279Q150
279 135 301ZM101 -25T71 5T40 80Q40 113 57 142T103 189T166 207Q212 207 242 177T273 102Q273 69 256 40T210 -7T147 -25Q101 -25 71 5Z" />
<glyph unicode="&quot;" glyph-name="quotedbl" horiz-adv-x="473" d="M75 446T75 496Q75 516 81 537T99 595Q112 631 119 659T127 716Q127 739 120 759Q165 780 212 780Q271 780 271 730Q271 709 266 688T247 628Q233 591 226 564T219 510Q219 487 226 467Q181
446 134 446Q75 446 75 496ZM305 446T305 496Q305 516 311 537T329 595Q342 631 349 659T357 716Q357 739 350 759Q395 780 442 780Q501 780 501 730Q501 709 496 688T477 628Q463 591 456 564T449 510Q449 487 456 467Q411 446 364 446Q305 446 305 496Z" />
<glyph unicode="#" glyph-name="numbersign" horiz-adv-x="869" d="M795 473T697 475L669 371L652 305H686Q742 305 772 299T815 277T828 234Q828 192 809 161Q779 167 727 171T621 176L580 -4Q569 -52 548 -75T492 -98Q467 -98 439 -90T396 -71Q437 43 472 170L419
165Q379 161 302 155L266 -4Q255 -52 234 -75T178 -98Q153 -98 125 -90T82 -71Q121 38 152 149Q101 150 73 156T33 178T21 220Q21 262 40 293Q87 282 188 279Q208 349 227 429L232 449H211Q155 449 125 455T82 477T69 520Q69 562 88 593Q139 582 263 578L296 724Q307
772 328 795T384 818Q410 818 438 810T480 791Q451 709 413 583Q491 589 525 593L581 598L599 675Q601 686 610 724Q621 772 642 795T698 818Q724 818 752 810T794 791Q765 711 734 605Q790 605 820 599T863 577T876 534Q876 492 857 461Q795 473 697 475ZM419
287T507 296L551 472L443 463L378 457Q357 378 333 281Q419 287 507 296Z" />
<glyph unicode="$" glyph-name="dollar" horiz-adv-x="697" d="M371 565T337 544T302 490Q302 462 331 445T423 407Q491 384 534 363T609 302T641 199Q641 134 602 87T501 14T370 -21L358 -96Q350 -145 331 -169T278 -193Q252 -193 224 -187T181 -172Q197 -120
222 -19Q132 -7 90 25T47 108Q47 135 59 163T94 212Q134 155 184 123T307 91Q358 91 391 109T425 162Q425 188 397 204T308 243Q240 267 196 290T119 356T86 464Q86 565 162 624T361 697L382 793Q403 886 468 886Q494 886 522 878T563 859Q539 792 511 698Q592
688 638 655T684 574Q684 524 650 495T566 466Q519 466 481 492T421 571Q371 565 337 544Z" />
<glyph unicode="%" glyph-name="percent" horiz-adv-x="1150" d="M169 272T114 325T59 469Q59 539 92 593T185 677T324 707Q336 707 351 705T377 698Q384 692 385 669Q442 658 471 617T501 509Q501 443 470 389T384 303T262 272Q169 272 114 325ZM296 394T315
424T334 504Q334 561 284 561Q269 561 258 556Q245 546 236 516T226 460Q226 429 236 412T266 394Q296 394 315 424ZM395 114T482 295T661 702Q681 750 706 773T766 796Q792 796 818 788T858 769Q785 643 698 462T518 54Q498 6 473 -17T413 -40Q388 -40 362 -32T322
-13Q395 114 482 295ZM790 -23T735 30T680 174Q680 244 713 298T806 382T945 412Q957 412 972 410T998 403Q1005 397 1006 374Q1063 363 1092 322T1122 214Q1122 148 1091 94T1005 8T883 -23Q790 -23 735 30ZM917 99T936 129T955 209Q955 266 905 266Q890 266 879
261Q866 251 857 221T847 165Q847 134 857 117T887 99Q917 99 936 129Z" />
<glyph unicode="&amp;" glyph-name="ampersand" horiz-adv-x="757" d="M741 475T758 462T776 421Q776 397 768 368T747 319Q704 325 674 325Q662 325 630 323Q630 201 582 107T446 -39T245 -92Q179 -92 129 -69T51 -2T23 97Q23 169 64 234T177 343Q132 371 108
414T83 512Q83 585 128 645T252 740T425 775Q519 775 575 743T631 658Q631 614 602 587T518 560Q483 560 451 582T402 642Q345 629 313 595T281 516Q281 473 313 446T398 419Q452 419 495 427T598 453Q636 464 659 469T704 475Q741 475 758 462ZM375 61T421 94T498
184T535 311Q421 297 362 297Q312 297 270 306Q221 251 221 173Q221 117 247 89T321 61Q375 61 421 94Z" />
<glyph unicode="&apos;" glyph-name="quotesingle" horiz-adv-x="243" d="M75 446T75 496Q75 516 81 537T99 595Q112 631 119 659T127 716Q127 739 120 759Q165 780 212 780Q271 780 271 730Q271 709 266 688T247 628Q233 591 226 564T219 510Q219 487 226 467Q181
446 134 446Q75 446 75 496Z" />
<glyph unicode="(" glyph-name="parenleft" horiz-adv-x="415" d="M70 335T110 477T214 710T341 801Q395 801 425 758Q373 712 331 626T264 436T239 231Q239 115 267 34T357 -108Q288 -156 225 -156Q151 -156 111 -66T70 191Q70 335 110 477Z" />
<glyph unicode=")" glyph-name="parenright" horiz-adv-x="415" d="M345 310T305 168T201 -65T74 -156Q20 -156 -10 -113Q42 -67 84 19T151 209T176 414Q176 530 148 611T58 753Q127 801 190 801Q264 801 304 711T345 454Q345 310 305 168Z" />
<glyph unicode="*" glyph-name="asterisk" horiz-adv-x="592" d="M359 300T339 352T309 479L242 350Q195 354 154 376T112 427Q112 486 257 552L114 576Q108 602 108 631Q108 672 120 699T160 726Q221 726 311 625L289 768Q313 782 341 791T392 800Q424 800 437
787T450 741Q450 715 437 680T396 595L526 661Q552 638 573 604T594 544Q594 518 566 505T499 492Q462 492 395 506L497 402Q482 366 452 333T394 300Q359 300 339 352Z" />
<glyph unicode="+" glyph-name="plus" horiz-adv-x="730" d="M645 355T617 291H447L422 134Q354 106 310 106Q286 106 276 116T265 154Q265 174 269 197L284 291H203Q151 291 132 302T112 346Q112 391 140 454H310L335 611Q403 639 447 639Q471 639 481 629T492
591Q492 570 488 547L473 454H553Q606 454 625 443T645 399Q645 355 617 291Z" />
<glyph unicode="," glyph-name="comma" horiz-adv-x="332" d="M12 -152Q59 -130 88 -86T118 -2L48 88Q49 120 67 147T114 191T177 208Q226 208 255 174T284 93Q284 25 253 -35T163 -137T27 -196L12 -152Z" />
<glyph unicode="-" glyph-name="hyphen" horiz-adv-x="527" d="M90 183T74 199T57 256Q57 309 85 370Q106 363 137 363Q171 363 203 371T278 396Q325 412 353 419T412 427Q442 427 458 411T475 354Q475 301 447 240Q426 247 395 247Q361 247 329 239T254 214Q207
198 179 191T120 183Q90 183 74 199Z" />
<glyph unicode="." glyph-name="period" horiz-adv-x="293" d="M91 -25T61 5T30 80Q30 113 47 142T93 189T156 207Q202 207 232 177T263 102Q263 69 246 40T200 -7T137 -25Q91 -25 61 5Z" />
<glyph unicode="/" glyph-name="slash" horiz-adv-x="398" d="M98 218T214 742Q225 790 246 813T302 836Q328 836 356 828T398 809Q300 538 184 14Q173 -34 152 -57T96 -80Q71 -80 43 -72T0 -53Q98 218 214 742Z" />
<glyph unicode="0" glyph-name="zero" horiz-adv-x="728" d="M258 -25T192 14T91 125T55 295Q55 414 105 506T245 649T452 700Q470 700 494 696T533 685Q542 675 545 637Q622 618 662 553T703 380Q703 267 656 175T528 29T346 -25Q258 -25 192 14ZM395 117T428
149T480 239T499 370Q499 449 471 487T384 526Q358 526 328 514Q297 473 278 408T259 280Q259 205 284 161T353 117Q395 117 428 149Z" />
<glyph unicode="1" glyph-name="one" horiz-adv-x="554" d="M203 161T210 216T245 417Q180 417 139 455T90 563Q154 578 202 599T304 651Q351 677 377 688T433 700Q504 700 504 620Q504 597 498 561T484 486T473 435Q451 335 439 263T426 133Q426 61 455 12Q388
-25 327 -25Q263 -25 233 9T203 115Q203 161 210 216Z" />
<glyph unicode="2" glyph-name="two" horiz-adv-x="711" d="M660 145T660 100Q660 64 638 34T576 -13T489 -30Q431 -30 381 -16T251 28Q218 1 190 -10T128 -22Q85 -22 58 6T31 78Q31 136 74 173T187 212Q195 212 213 210Q317 278 364 339T412 449Q412 489 391
512T327 535Q281 535 247 503T199 407Q152 412 125 440T98 513Q98 568 132 610T228 676T371 700Q441 700 496 674T582 602T613 500Q613 419 560 341T382 162Q452 141 489 141L636 204Q660 145 660 100Z" />
<glyph unicode="3" glyph-name="three" horiz-adv-x="664" d="M541 257T569 210T597 103Q597 30 547 -29T408 -122T211 -156Q112 -156 58 -127T4 -42Q4 1 36 28T119 56Q156 56 192 33T252 -29Q311 -29 352 6T393 93Q393 127 378 154T337 195Q283 164 227 164Q183
164 158 185T132 244Q132 285 172 309T282 333Q313 333 341 330Q405 378 405 450Q405 490 381 512T315 535Q263 535 226 501T174 407Q127 412 100 440T73 513Q73 568 109 610T209 676T359 700Q434 700 490 676T578 607T609 503Q609 387 488 287Q541 257 569 210Z"
/>
<glyph unicode="4" glyph-name="four" horiz-adv-x="714" d="M682 320T661 245Q638 157 626 92T613 -41Q613 -86 637 -134Q600 -154 570 -162T503 -170Q439 -170 404 -134T369 -32Q369 -20 373 16Q338 9 293 5T210 0Q119 0 72 29T24 115Q24 150 44 198T107 329Q160
432 188 501T216 630Q216 657 208 677Q232 687 263 693T315 700Q450 700 450 566Q450 475 386 367T191 130H400Q434 244 475 324Q497 345 543 361T627 377Q659 377 670 370T682 341Q682 320 661 245Z" />
<glyph unicode="5" glyph-name="five" horiz-adv-x="625" d="M388 333T455 306T559 229T595 110Q595 35 545 -26T406 -121T209 -156Q114 -156 62 -127T10 -45Q10 -1 43 27T127 56Q164 56 199 33T255 -29Q292 -29 323 -13T373 33T392 97Q392 146 354 182T227 218Q202
218 158 211Q140 208 132 208Q105 208 106 231L154 524Q120 556 120 603Q120 650 147 676T224 703Q259 703 290 682T339 622Q383 624 463 650T607 708Q620 659 620 622Q620 566 594 533T508 484T347 468Q328 468 318 469L296 333Q388 333 455 306Z" />
<glyph unicode="6" glyph-name="six" horiz-adv-x="727" d="M205 -25T137 45T68 250Q68 398 136 531T310 746T520 827Q582 827 614 804T669 727Q544 693 453 623T306 438H317Q388 519 489 519Q583 519 635 460T687 306Q687 213 636 138T501 19T319 -25Q205 -25
137 45ZM386 108T415 128T463 187T483 283Q483 332 460 365T385 398Q360 398 334 379T290 321T272 230Q272 179 293 144T358 108Q386 108 415 128Z" />
<glyph unicode="7" glyph-name="seven" horiz-adv-x="604" d="M629 577T603 546T529 496Q462 378 413 223T363 -51Q363 -67 364 -77T372 -98Q319 -121 265 -121Q129 -121 129 0Q129 85 183 210T328 469Q227 471 167 486T78 533T50 617Q50 658 67 709Q144 677 244
651T400 623Q421 662 456 683T530 704Q577 704 603 681T629 618Q629 577 603 546Z" />
<glyph unicode="8" glyph-name="eight" horiz-adv-x="678" d="M572 354T610 306T648 199Q648 134 605 83T486 3T312 -26Q190 -26 120 24T50 164Q50 225 85 277T226 382Q168 429 135 475T101 574Q101 634 137 680T241 751T396 777Q510 777 576 727T642 591Q642
539 608 491T506 401Q572 354 610 306ZM354 672T330 652T305 593Q305 562 330 533T404 471Q468 523 468 590Q468 628 448 650T392 672Q354 672 330 652ZM378 80T410 105T443 176Q443 204 413 234T323 309Q276 278 250 242T224 166Q224 126 253 103T329 80Q378 80
410 105Z" />
<glyph unicode="9" glyph-name="nine" horiz-adv-x="709" d="M155 -152T123 -129T68 -52Q193 -18 284 52T431 237H420Q349 156 248 156Q154 156 102 215T50 369Q50 462 101 537T236 656T418 700Q532 700 600 630T669 425Q669 277 601 144T427 -71T217 -152Q155
-152 123 -129ZM377 277T403 296T447 354T465 445Q465 496 444 531T379 567Q351 567 322 547T274 488T254 392Q254 343 277 310T352 277Q377 277 403 296Z" />
<glyph unicode=":" glyph-name="colon" horiz-adv-x="333" d="M91 -25T61 5T30 80Q30 113 47 142T93 189T156 207Q202 207 232 177T263 102Q263 69 246 40T200 -7T137 -25Q91 -25 61 5ZM138 328T108 358T77 433Q77 466 94 495T140 542T203 560Q249 560 279 530T310
455Q310 422 293 393T247 346T184 328Q138 328 108 358Z" />
<glyph unicode=";" glyph-name="semicolon" horiz-adv-x="333" d="M12 -152Q59 -130 88 -86T118 -2L48 88Q49 120 67 147T114 191T177 208Q226 208 255 174T284 93Q284 25 253 -35T163 -137T27 -196L12 -152ZM138 328T108 358T77 433Q77 466 94 495T140 542T203
560Q249 560 279 530T310 455Q310 422 293 393T247 346T184 328Q138 328 108 358Z" />
<glyph unicode="&lt;" glyph-name="less" horiz-adv-x="763" d="M615 259T630 245T646 213Q646 189 623 159T568 100L176 271Q141 286 125 301T109 333Q109 355 133 387T187 446L569 617Q614 637 634 637Q666 637 680 596T695 496L388 358L580 274Q615 259 630 245Z" />
<glyph unicode="=" glyph-name="equal" horiz-adv-x="731" d="M129 151T110 162T90 206Q90 251 118 314H531Q584 314 603 303T623 259Q623 215 595 151H181Q129 151 110 162ZM174 431T155 442T135 486Q135 531 163 594H576Q629 594 648 583T668 539Q668 495 640
431H226Q174 431 155 442Z" />
<glyph unicode="&gt;" glyph-name="greater" horiz-adv-x="763" d="M648 451T664 436T680 404Q680 382 656 350T602 291L220 120Q175 100 155 100Q123 100 109 141T94 241L401 379L209 463Q174 478 159 492T143 524Q143 548 166 578T221 637L613 466Q648 451 664 436Z" />
<glyph unicode="?" glyph-name="question" horiz-adv-x="589" d="M255 384T299 422T343 520Q343 554 324 577T265 600Q225 600 190 572T142 482Q83 482 57 511T30 584Q30 632 60 676T149 747T295 775Q387 775 446 743T532 657T559 542Q559 462 523 398T424 299T286
263Q228 263 200 293T171 376Q255 384 299 422ZM145 -25T115 5T84 80Q84 113 101 142T147 189T210 207Q256 207 286 177T317 102Q317 69 300 40T254 -7T191 -25Q145 -25 115 5Z" />
<glyph unicode="@" glyph-name="at" horiz-adv-x="1077" d="M654 -94T750 -54T923 65Q939 28 939 -6Q939 -78 875 -130T712 -208T509 -235Q370 -235 267 -182T109 -32T54 197Q54 364 132 502T347 720T650 800Q786 800 876 756T1010 640T1053 482Q1053 387 1007
297T878 148T691 90Q646 90 622 114T597 183Q597 192 598 196L590 199Q573 148 536 119T450 90Q388 90 350 135T312 255Q312 337 351 398T458 493T605 527Q636 527 657 521Q663 504 664 477Q703 510 758 510Q787 510 803 491T820 438Q820 419 803 345Q801 337 791
291T781 217Q781 203 782 196Q829 213 869 256T932 358T956 474Q956 540 925 594T824 682T645 715Q515 715 406 652T234 481T171 243Q171 79 266 -7T543 -94Q654 -94 750 -54ZM579 243T602 290T634 444Q566 436 527 397T488 305Q488 275 500 259T535 243Q579 243
602 290Z" />
<glyph unicode="A" glyph-name="A" horiz-adv-x="767" d="M663 377Q663 242 675 156T727 16Q669 -29 602 -29Q539 -29 505 16T459 161H239Q232 134 232 110Q232 81 237 59T253 16Q225 -4 187 -16T113 -29Q67 -29 44 -4T20 69Q20 131 63 239T224 577L191 662Q247
696 293 710T393 725Q450 725 475 700Q522 725 559 725Q614 725 639 690T664 578L663 377ZM453 280V292Q453 478 459 593H447Q337 419 279 280H453Z" />
<glyph unicode="B" glyph-name="B" horiz-adv-x="789" d="M637 353T682 306T727 188Q727 124 684 76T560 2T373 -24Q210 -24 138 14T65 140Q65 183 77 267T123 546L70 653Q183 726 276 726Q338 726 350 666Q453 725 552 725Q632 725 678 685T724 574Q724 504 682
452T557 368Q637 353 682 306ZM327 517T306 379Q398 385 452 422T506 518Q506 593 421 593Q376 593 340 579Q327 517 306 379ZM440 89T474 119T509 201Q509 249 477 275T387 302Q340 302 293 286Q281 188 273 111Q296 101 325 95T383 89Q440 89 474 119Z" />
<glyph unicode="C" glyph-name="C" horiz-adv-x="718" d="M201 -25T115 55T29 278Q29 406 88 508T253 668T488 726Q583 726 639 692T695 599Q695 552 662 522T578 491Q529 491 489 517T424 594Q374 575 334 527T270 413T247 274Q247 183 278 132T366 81Q410 81
446 105T505 172T530 265Q595 265 629 242T663 171Q663 117 622 72T509 1T354 -25Q201 -25 115 55Z" />
<glyph unicode="D" glyph-name="D" horiz-adv-x="856" d="M583 726T652 688T758 580T796 419Q796 290 736 189T568 32T323 -25Q199 -25 130 19T60 143Q60 184 73 266T123 546L70 653Q183 726 276 726Q320 726 340 693Q375 711 411 718T494 726Q583 726 652 688ZM411
89T464 126T548 231T578 384Q578 484 532 540T403 596Q376 596 349 586Q340 510 310 335Q276 135 276 103Q306 89 343 89Q411 89 464 126Z" />
<glyph unicode="E" glyph-name="E" horiz-adv-x="629" d="M515 147T586 175Q597 149 597 111Q597 46 558 11T447 -25Q362 -25 287 4Q243 -26 182 -26Q118 -26 89 6T60 109Q60 154 73 244T123 546L70 653Q183 726 276 726Q335 726 349 670Q417 674 479 686T631
721Q639 684 639 656Q639 580 588 537T448 493Q402 493 336 510Q326 453 311 372Q341 366 371 366L461 389Q466 369 466 341Q466 298 437 274T357 249Q327 249 290 258Q276 169 276 144V136H438Q515 147 586 175Z" />
<glyph unicode="F" glyph-name="F" horiz-adv-x="599" d="M396 493T336 508L311 372Q341 366 371 366L461 389Q466 369 466 341Q466 298 437 274T357 249Q327 249 290 258Q276 169 276 144Q276 98 282 70T306 19Q255 -26 182 -26Q118 -26 89 6T60 109Q60 154 73
244T123 546L70 653Q183 726 276 726Q336 726 349 671Q413 675 472 686T621 721Q629 684 629 656Q629 580 578 537T438 493Q396 493 336 508Z" />
<glyph unicode="G" glyph-name="G" horiz-adv-x="780" d="M637 -117T668 -141Q612 -185 549 -185Q487 -185 459 -157T430 -74Q430 -53 436 -17Q399 -30 361 -30Q205 -30 117 51T29 278Q29 406 90 508T260 668T502 726Q598 726 655 692T712 599Q712 552 679 522T593
491Q543 491 501 518T434 594Q381 575 339 527T272 413T247 274Q247 183 280 132T372 81Q432 81 473 125T519 234L441 309Q489 339 541 358T639 377Q681 377 698 361T715 310Q715 288 689 200Q663 105 650 46T637 -60Q637 -117 668 -141Z" />
<glyph unicode="H" glyph-name="H" horiz-adv-x="824" d="M794 610T783 543T757 401Q717 187 717 144Q717 98 723 70T747 19Q690 -26 623 -26Q559 -26 530 6T501 109Q501 156 517 267H292Q276 169 276 144Q276 98 282 70T306 19Q249 -26 182 -26Q118 -26 89 6T60
109Q60 153 72 241T123 546L70 653Q183 726 276 726Q353 726 353 632Q353 612 344 554T322 430L314 386H537Q547 449 564 546L511 653Q624 726 717 726Q794 726 794 632Q794 610 783 543Z" />
<glyph unicode="I" glyph-name="I" horiz-adv-x="382" d="M60 154T72 242T123 546L70 653Q183 726 276 726Q353 726 353 632Q353 597 316 402Q276 188 276 145Q276 99 282 71T306 20Q249 -25 182 -25Q118 -25 89 7T60 110Q60 154 72 242Z" />
<glyph unicode="J" glyph-name="J" horiz-adv-x="610" d="M605 576T569 541L533 278Q508 104 421 40T203 -25Q144 -25 98 -7T26 43T0 115Q0 163 33 192T111 222Q155 222 193 192T251 101Q273 116 286 151T312 278L340 480Q247 481 191 497T110 546T84 635Q84 680
99 732Q161 699 242 672T369 641Q391 683 423 704T496 726Q549 726 577 700T605 626Q605 576 569 541Z" />
<glyph unicode="K" glyph-name="K" horiz-adv-x="736" d="M584 265T635 165T736 30Q714 8 671 -8T593 -25Q523 -25 483 11T410 139L352 302L292 270Q276 170 276 144Q276 98 282 70T306 19Q252 -26 182 -26Q118 -26 89 6T60 109Q60 154 73 243T123 546L70 653Q183
726 276 726Q353 726 353 632Q353 597 319 416L315 393L358 425Q428 477 466 531T504 633Q504 656 496 680Q570 725 636 725Q734 725 734 635Q734 582 687 527T541 409Q584 265 635 165Z" />
<glyph unicode="L" glyph-name="L" horiz-adv-x="553" d="M543 147T543 111Q543 46 504 11T393 -25Q328 -25 268 -7Q229 -26 182 -26Q118 -26 89 6T60 109Q60 154 73 243T123 546L70 653Q183 726 276 726Q353 726 353 632Q353 610 342 543T316 401Q276 187 276
144V136H384Q461 147 532 175Q543 147 543 111Z" />
<glyph unicode="M" glyph-name="M" horiz-adv-x="1033" d="M116 -26T88 11T60 129Q60 175 74 263T123 546L70 653Q183 726 276 726Q346 726 389 694T460 568T504 293H516Q566 458 660 589T893 720Q955 720 979 691T1003 612Q1003 580 966 401Q962 382 950 321T932
220T926 164Q926 67 956 19Q896 -26 832 -26Q766 -26 738 11T710 129Q710 176 724 263T769 510H759Q691 424 646 304T591 87Q567 64 537 53T478 41Q439 41 414 79T372 219T345 510H335Q311 407 294 305T276 164Q276 67 306 19Q246 -26 182 -26Q116 -26 88 11Z"
/>
<glyph unicode="N" glyph-name="N" horiz-adv-x="863" d="M834 611T823 544T797 402Q757 188 757 145Q757 99 763 71T787 20Q757 -4 727 -14T660 -25Q570 -25 518 21T430 185T353 546H342Q329 465 316 400Q297 297 287 234T276 144Q276 98 282 70T306 19Q249 -26
182 -26Q118 -26 89 6T60 109Q60 153 72 241T123 546L70 653Q183 726 276 726Q359 726 404 690T479 555T544 243H554Q564 314 604 547L561 654Q667 727 757 727Q834 727 834 633Q834 611 823 544Z" />
<glyph unicode="O" glyph-name="O" horiz-adv-x="773" d="M678 622T715 570T753 424Q753 297 700 195T554 34T346 -25Q251 -25 180 14T69 123T30 283Q30 412 83 513T225 669T416 725Q483 725 512 702T541 629Q541 618 539 600Q570 622 611 622Q678 622 715 570ZM443
81T489 108T569 185T612 296Q482 356 482 487Q482 534 509 571Q481 575 469 575Q403 575 353 536T276 429T248 283Q248 185 287 133T394 81Q443 81 489 108Z" />
<glyph unicode="P" glyph-name="P" horiz-adv-x="717" d="M563 724T613 693T690 611T717 500Q717 426 680 359T568 248T383 205Q325 205 284 220Q276 166 276 144Q276 98 282 70T306 19Q249 -26 182 -26Q118 -26 89 6T60 109Q60 153 72 241T123 546L70 653Q183
726 276 726Q323 726 341 691Q407 724 494 724Q563 724 613 693ZM376 330T413 350T472 406T494 486Q494 532 468 564T393 596Q373 596 349 588Q346 567 324 445Q312 383 304 332Q320 330 330 330Q376 330 413 350Z" />
<glyph unicode="Q" glyph-name="Q" horiz-adv-x="796" d="M608 -46T689 -16Q700 -46 700 -82Q700 -142 663 -182T555 -223Q488 -223 414 -190T260 -107Q235 -140 205 -153T148 -166Q113 -166 93 -143T73 -90Q73 -54 101 -27T183 0Q202 0 212 -1Q126 33 78 107T30
283Q30 412 83 513T225 669T416 725Q483 725 512 702T541 629Q541 618 539 600Q570 622 611 622Q678 622 715 570T753 424Q753 298 701 197T558 36T352 -25Q451 -46 510 -46Q608 -46 689 -16ZM403 575T353 536T276 429T248 283Q248 185 287 133T394 81Q443 81 489
108T569 185T612 296Q482 356 482 487Q482 534 509 571Q481 575 469 575Q403 575 353 536Z" />
<glyph unicode="R" glyph-name="R" horiz-adv-x="747" d="M629 191T669 124T747 30Q725 8 682 -8T604 -25Q534 -25 494 11T421 139L387 235H383Q328 235 287 249Q276 181 276 144Q276 98 282 70T306 19Q249 -26 182 -26Q118 -26 89 6T60 109Q60 153 72 241T123
546L70 653Q183 726 276 726Q323 726 341 691Q407 724 494 724Q563 724 613 695T690 617T717 515Q717 448 686 388T592 289Q629 191 669 124ZM323 360T330 360Q401 360 447 399T494 501Q494 538 468 567T393 596Q373 596 349 588Q344 554 316 409L307 362Q323 360
330 360Z" />
<glyph unicode="S" glyph-name="S" horiz-adv-x="729" d="M175 -25T105 12T35 112Q35 139 48 167T84 216Q126 157 180 124T310 91Q370 91 408 110T446 167Q446 195 416 212T317 253Q243 279 195 303T111 371T75 482Q75 562 125 617T261 699T452 726Q530 726 588
710T678 663T709 595Q709 544 674 515T586 486Q537 486 497 513T434 594Q373 588 333 565T293 507Q293 477 325 460T426 420Q501 396 548 374T629 310T664 203Q664 129 614 78T484 1T321 -25Q175 -25 105 12Z" />
<glyph unicode="T" glyph-name="T" horiz-adv-x="644" d="M664 670T664 618Q664 556 624 521T515 485Q484 485 446 490Q419 355 405 276T391 164Q391 67 421 19Q361 -26 297 -26Q231 -26 203 11T175 129Q175 176 189 267T234 525L210 526L58 487Q40 530 40 582Q40
644 80 679T189 715Q224 715 259 710T344 695Q392 685 426 680T494 674L646 713Q664 670 664 618Z" />
<glyph unicode="U" glyph-name="U" horiz-adv-x="811" d="M564 -26T534 5T504 95Q504 140 514 171L504 170Q458 79 384 27T225 -25Q64 -25 64 155Q64 193 74 258T123 546L70 653Q139 693 185 709T276 725Q316 725 334 703T353 632Q353 616 343 558T319 434Q281
242 281 209Q281 169 295 150T340 130Q388 130 435 182T514 321Q492 378 492 451Q492 530 520 592T599 690T713 725Q765 725 806 706Q773 581 744 416T714 164Q714 62 744 19Q690 -26 620 -26Q564 -26 534 5Z" />
<glyph unicode="V" glyph-name="V" horiz-adv-x="727" d="M86 386Q86 497 73 567T20 681Q78 726 145 726Q195 726 227 696T277 596T294 405Q294 230 288 104H300Q406 272 460 398T515 587Q515 640 493 681Q522 702 560 714T634 726Q680 726 703 701T727 628Q727
566 684 458T523 120L538 64Q493 23 421 -3T284 -30Q212 -30 169 -5T105 76T85 226L86 386Z" />
<glyph unicode="W" glyph-name="W" horiz-adv-x="1061" d="M1061 587T1043 529T981 376T857 120L882 64Q844 23 783 -3T666 -30Q611 -30 578 -10T527 53T501 166Q436 63 379 17T240 -30Q185 -30 153 -8T105 64T90 197L91 366Q91 484 77 559T20 681Q78 726 147
726Q199 726 232 697T282 597T299 405L298 200Q297 162 297 104H309Q372 174 415 249T482 394L461 650Q488 671 515 680T564 690Q611 690 636 663T661 584Q661 507 617 393L632 104H644Q744 272 796 399T848 587Q848 636 824 681Q854 702 892 714T966 726Q1013
726 1037 701T1061 628Q1061 587 1043 529Z" />
<glyph unicode="X" glyph-name="X" horiz-adv-x="800" d="M623 174T661 134T758 70Q693 -30 586 -30Q533 -30 498 -1T420 108L353 233Q299 189 272 147T244 68Q244 40 254 15Q181 -30 115 -30Q70 -30 43 -1T16 75Q16 130 65 187T228 318L287 357L232 460Q200 522
162 562T65 624Q131 725 238 725Q290 725 325 696T404 586L466 470Q516 512 541 552T567 628Q567 659 558 681Q629 726 697 726Q741 726 768 697T795 620Q795 566 745 509T584 378L533 344L591 235Q623 174 661 134Z" />
<glyph unicode="Y" glyph-name="Y" horiz-adv-x="841" d="M806 726T806 630Q806 470 719 263T476 -93T121 -242Q27 -242 -21 -209T-70 -113Q-70 -84 -56 -56T-21 -12Q26 -85 130 -85Q168 -85 212 -70T302 -25Q225 -11 189 45T144 173T134 363Q133 451 129 503T111
604T65 681Q122 726 190 726Q257 726 290 685T334 578T344 416V332Q344 224 357 159T411 68Q494 159 544 290T595 587Q595 640 573 681Q602 702 640 714T714 726Q806 726 806 630Z" />
<glyph unicode="Z" glyph-name="Z" horiz-adv-x="716" d="M648 211Q673 149 673 104Q673 67 650 37T586 -12T497 -30Q434 -30 380 -16T242 30Q207 2 178 -10T115 -22Q71 -22 43 7T15 81Q15 136 53 173T155 218L363 481Q265 484 206 500T120 549T93 635Q93 680
111 732Q191 699 296 672T461 641Q521 726 597 726Q646 726 673 700T701 626Q701 589 678 560T611 512L351 177Q401 162 436 154T497 146L648 211Z" />
<glyph unicode="[" glyph-name="bracketleft" horiz-adv-x="455" d="M149 -157T109 -117T69 15Q69 140 87 272T147 584Q166 670 196 716T270 781T381 800Q448 800 471 776T495 701Q495 666 490 649Q475 656 431 662T360 668Q313 546 284 350T255 -25Q282 -25 324
-19T381 -6Q384 -18 386 -33T389 -58Q389 -107 352 -132T229 -157Q149 -157 109 -117Z" />
<glyph unicode="\" glyph-name="backslash" horiz-adv-x="672" d="M520 -64T492 -72T439 -80Q405 -80 384 -57T351 14Q235 538 137 809Q151 820 179 828T233 836Q267 836 288 813T321 742Q437 218 535 -53Q520 -64 492 -72Z" />
<glyph unicode="]" glyph-name="bracketright" horiz-adv-x="455" d="M317 801T357 761T397 629Q397 504 379 372T319 60Q300 -26 270 -72T196 -137T85 -156Q18 -156 -5 -132T-29 -57Q-29 -22 -24 -5Q-9 -12 35 -18T106 -24Q153 98 182 294T211 669Q184 669 142
663T85 650Q82 662 80 677T77 702Q77 751 114 776T237 801Q317 801 357 761Z" />
<glyph unicode="^" glyph-name="asciicircum" horiz-adv-x="681" d="M659 529Q581 451 540 451Q523 451 510 466T484 517L409 721L269 517Q245 482 227 467T192 451Q168 451 144 474T98 529L331 871Q355 906 373 922T409 938H478Q495 938 508 922T535 871L659 529Z" />
<glyph unicode="_" glyph-name="underscore" horiz-adv-x="679" d="M32 -217T9 -211T-25 -188T-35 -142Q-35 -90 -7 -14Q62 -37 132 -37Q174 -37 211 -33T315 -18Q419 -1 477 -1Q521 -1 545 -7T579 -30T589 -76Q589 -128 561 -204Q490 -181 422 -181Q380 -181
343 -185T239 -200Q230 -201 195 -206T131 -214T76 -217Q32 -217 9 -211Z" />
<glyph unicode="`" glyph-name="grave" horiz-adv-x="600" d="M280 653T261 659T211 677Q164 696 124 707T30 718Q20 758 20 791Q20 832 37 854T86 876Q116 876 146 859T221 807Q265 775 294 757T356 729Q354 693 339 673T300 653Q280 653 261 659Z" />
<glyph unicode="a" glyph-name="a" horiz-adv-x="746" d="M638 50T669 24Q608 -25 540 -25Q489 -25 462 4T434 87Q434 104 437 123L427 128Q399 56 346 16T227 -25Q171 -25 129 4T63 86T40 210Q40 325 90 413T231 551T439 600Q481 600 518 592Q526 573 529 541Q570
575 628 575Q663 575 682 555T701 496Q701 476 694 438T677 358Q658 277 648 221T638 115Q638 50 669 24ZM390 147T434 234T497 507Q425 500 366 464T273 371T238 249Q238 200 258 174T316 147Q390 147 434 234Z" />
<glyph unicode="b" glyph-name="b" d="M580 600T622 571T688 489T711 365Q711 250 656 162T501 24T272 -25Q166 -25 123 20T79 160Q79 200 93 292T148 621L92 701Q137 734 186 754T279 774Q326 774 345 758T364 703Q364 677 357 639T333 533Q310 433 314 452L324
447Q352 519 405 559T524 600Q580 600 622 571ZM326 85T385 120T478 209T513 326Q513 375 493 401T435 428Q386 428 345 385T279 262T254 78Q326 85 385 120Z" />
<glyph unicode="c" glyph-name="c" horiz-adv-x="638" d="M192 -25T119 44T45 235Q45 340 94 423T230 553T429 600Q515 600 566 568T617 483Q617 440 588 413T513 385Q470 385 435 409T379 477Q341 463 310 427T261 339T243 233Q243 160 268 119T338 78Q372 78
402 98T450 152T469 227Q529 227 560 205T592 141Q592 95 556 57T459 -3T323 -25Q192 -25 119 44Z" />
<glyph unicode="d" glyph-name="d" horiz-adv-x="751" d="M731 678T724 637T700 525Q673 407 658 315T642 132Q642 86 649 65T673 24Q646 0 613 -12T549 -25Q489 -25 463 10T436 119V123L425 128Q396 56 344 16T226 -25Q170 -25 128 4T62 86T39 210Q39 317 89
400T230 529T438 575Q475 575 506 569L515 622L459 702Q504 735 553 755T646 775Q693 775 712 759T731 704Q731 678 724 637ZM464 333T490 482Q420 475 362 442T271 358T237 249Q237 200 257 174T315 147Q354 147 390 177T452 261Q464 333 490 482Z" />
<glyph unicode="e" glyph-name="e" horiz-adv-x="661" d="M630 386T583 336T449 259T241 232V223Q241 155 264 117T330 78Q381 78 414 115T449 214Q509 214 540 192T572 128Q572 86 537 51T442 -4T308 -25Q183 -25 113 41T43 225Q43 332 94 417T235 551T437 600Q529
600 579 562T630 455Q630 386 583 336ZM354 483T312 433T251 307Q350 315 403 348T457 434Q457 456 442 469T403 483Q354 483 312 433Z" />
<glyph unicode="f" glyph-name="f" horiz-adv-x="439" d="M323 577T288 600L274 590L316 472Q379 484 415 498Q422 475 422 453Q422 414 402 390T344 358Q317 235 299 115T281 -60Q281 -125 312 -151Q239 -200 182 -200Q129 -200 100 -169T70 -82Q70 -40 86 61T138
337Q101 330 67 317Q60 340 60 362Q60 406 85 431T158 460Q151 501 151 544Q151 657 204 722T353 787Q407 787 443 757T479 680Q479 634 448 606T367 577Q323 577 288 600Z" />
<glyph unicode="g" glyph-name="g" horiz-adv-x="702" d="M639 576T657 558T675 505Q675 315 624 147T459 -130T168 -238Q73 -238 22 -209T-29 -124Q-29 -91 -12 -61T33 -15Q56 -52 94 -70T180 -89Q261 -89 329 -33T435 153H409Q379 86 324 48T200 10Q143 10 100
38T32 117T8 235Q8 342 59 425T201 554T412 600Q454 600 491 592Q499 569 502 540Q544 576 604 576Q639 576 657 558ZM328 142T370 175T441 291T471 508Q398 501 337 466T241 375T206 254Q206 201 228 172T289 142Q328 142 370 175ZM472 434T472 463Q472 493 471
508V420Q472 434 472 463Z" />
<glyph unicode="h" glyph-name="h" horiz-adv-x="763" d="M116 -25T88 6T60 99Q60 140 77 238T127 505L149 622L93 702Q138 735 187 755T280 775Q327 775 346 759T365 704Q365 680 358 642T334 537Q313 447 303 401L313 396Q372 498 445 549T597 600Q658 600 688
571T718 479Q718 445 711 408T690 309Q674 242 667 200T659 115Q659 53 680 24Q627 -25 570 -25Q509 -25 481 6T453 99Q453 140 462 183T488 281Q501 327 507 353T513 401Q513 443 479 443Q441 443 390 400T303 281T266 115Q266 53 287 24Q234 -25 177 -25Q116
-25 88 6Z" />
<glyph unicode="i" glyph-name="i" horiz-adv-x="388" d="M196 655T167 677T137 738Q137 772 158 797T210 834T272 847Q319 847 348 825T378 764Q378 717 338 686T243 655Q196 655 167 677ZM121 -25T93 6T65 99Q65 164 129 441L73 525Q121 559 172 579T270 600Q311
600 328 583T345 526Q345 513 338 479T321 403Q298 308 285 238T271 115Q271 51 302 24Q246 -25 183 -25Q121 -25 93 6Z" />
<glyph unicode="j" glyph-name="j" horiz-adv-x="397" d="M188 665T159 685T129 739Q129 770 150 792T202 825T264 837Q311 837 340 817T370 763Q370 720 330 693T235 665Q188 665 159 685ZM-13 -210T-43 -183T-73 -113Q-73 -68 -43 -42T38 -15Q63 -15 82 -23T124
-48L134 -34Q93 3 80 32T67 105Q67 134 121 441L65 525Q113 559 164 579T262 600Q303 600 320 583T337 526Q337 484 312 338T255 37Q234 -68 182 -139T46 -210Q-13 -210 -43 -183Z" />
<glyph unicode="k" glyph-name="k" horiz-adv-x="729" d="M609 162T642 126T728 69Q670 -25 575 -25Q523 -25 486 8T407 118L357 211L277 169Q276 157 276 132Q276 86 283 65T307 24Q280 0 247 -12T183 -25Q123 -25 97 10T70 119Q70 159 86 259T131 519Q136 552
141 577T149 622L93 702Q138 735 187 755T280 775Q327 775 346 759T365 704Q365 677 358 637T334 525Q301 387 287 284L315 307Q380 359 413 389T467 452T488 519Q488 543 478 567Q546 600 603 600Q649 600 677 574T705 504Q705 451 665 404T535 305L587 210Q609
162 642 126Z" />
<glyph unicode="l" glyph-name="l" horiz-adv-x="385" d="M123 -25T97 10T70 119Q70 159 86 259T131 519Q136 552 141 577T149 622L93 702Q138 735 187 755T280 775Q327 775 346 759T365 704Q365 678 358 637T334 525Q307 407 292 315T276 132Q276 86 283 65T307
24Q280 0 247 -12T183 -25Q123 -25 97 10Z" />
<glyph unicode="m" glyph-name="m" horiz-adv-x="1131" d="M111 -25T83 6T55 99Q55 139 75 254T118 464L66 544Q165 600 251 600Q292 600 312 580T333 524Q333 499 327 472T310 422L320 417Q377 514 441 557T582 600Q638 600 670 572T703 488Q703 458 693 422L703
417Q760 514 824 557T965 600Q1026 600 1056 571T1086 479Q1086 445 1079 408T1058 309Q1042 242 1035 200T1027 115Q1027 53 1048 24Q995 -25 938 -25Q876 -25 849 3T821 89Q821 135 830 179T857 282Q869 324 875 350T881 398Q881 443 847 443Q809 443 761 400T678
281T644 115Q644 53 665 24Q612 -25 555 -25Q493 -25 466 3T438 89Q438 135 447 179T474 282Q486 324 492 350T498 398Q498 443 464 443Q426 443 378 400T295 281T261 115Q261 53 282 24Q229 -25 172 -25Q111 -25 83 6Z" />
<glyph unicode="n" glyph-name="n" horiz-adv-x="758" d="M111 -25T83 6T55 99Q55 139 75 254T118 464L66 544Q165 600 251 600Q292 600 312 580T333 524Q333 499 327 472T310 422L320 417Q427 600 592 600Q653 600 683 571T713 479Q713 445 706 408T685 309Q669
242 662 200T654 115Q654 53 675 24Q622 -25 565 -25Q504 -25 476 6T448 99Q448 140 457 183T483 281Q496 327 502 353T508 401Q508 443 474 443Q436 443 385 400T298 281T261 115Q261 53 282 24Q229 -25 172 -25Q111 -25 83 6Z" />
<glyph unicode="o" glyph-name="o" horiz-adv-x="719" d="M606 524T642 478T679 357Q679 252 631 165T501 26T319 -25Q236 -25 174 7T79 99T45 238Q45 343 94 425T229 553T425 600Q459 600 496 592Q506 557 505 516Q527 524 548 524Q606 524 642 478ZM409 78T447
124T496 251Q420 293 420 379Q420 422 439 456T490 509Q416 505 360 468T274 370T243 236Q243 154 271 116T351 78Q409 78 447 124Z" />
<glyph unicode="p" glyph-name="p" horiz-adv-x="763" d="M593 600T635 571T701 489T724 365Q724 258 674 175T533 46T325 0Q284 0 247 8Q246 -9 246 -43Q246 -84 252 -106T277 -151Q251 -174 218 -187T153 -200Q94 -200 67 -171T40 -76Q40 -39 63 114T119 447L63
527Q110 562 159 581T250 600Q296 600 315 584T335 529Q335 504 325 452L338 447Q367 519 419 559T537 600Q593 600 635 571ZM332 96T394 127T491 211T526 326Q526 375 506 401T448 428Q411 428 374 388T306 276T258 114L255 92Q332 96 394 127Z" />
<glyph unicode="q" glyph-name="q" horiz-adv-x="737" d="M701 466T692 415T663 271Q660 255 640 158T603 -46L659 -126Q614 -159 565 -179T472 -199Q425 -199 406 -183T387 -128Q387 -102 394 -64T418 42Q441 142 437 123L427 128Q399 56 346 16T227 -25Q171
-25 129 4T63 86T40 210Q40 325 90 413T231 551T439 600Q481 600 518 592Q526 573 529 541Q570 575 628 575Q663 575 682 555T701 496Q701 466 692 415ZM365 147T406 191T472 318T497 507Q425 500 366 464T273 371T238 249Q238 200 258 174T316 147Q365 147 406
191Z" />
<glyph unicode="r" glyph-name="r" horiz-adv-x="544" d="M112 -25T84 6T56 99Q56 135 75 247T119 464L66 544Q104 570 139 585T211 600Q252 600 272 580T293 524Q293 493 285 463T261 391L271 386Q297 459 321 503T378 573T459 599Q505 599 532 573T559 501Q559
448 526 414T431 380Q384 380 345 345T284 250T262 115Q262 53 283 24Q230 -25 173 -25Q112 -25 84 6Z" />
<glyph unicode="s" glyph-name="s" horiz-adv-x="645" d="M150 -25T91 8T32 99Q32 125 47 153T89 201Q147 97 270 97Q303 97 338 112T373 157Q373 175 350 186T273 214Q210 233 168 251T95 304T64 393Q64 498 155 549T384 600Q489 600 550 568T611 482Q611 437
579 411T502 385Q460 385 424 411T367 487Q325 483 295 464T265 417Q265 394 290 381T372 351Q434 332 474 314T544 261T574 170Q574 103 528 59T415 -5T281 -25Q150 -25 91 8Z" />
<glyph unicode="t" glyph-name="t" horiz-adv-x="464" d="M460 553T474 542T489 499Q489 471 473 431Q431 445 379 445H363Q340 363 325 287T308 132L364 38Q331 7 292 -9T216 -25Q162 -25 132 2T101 102Q101 150 113 209T147 361L163 425Q155 424 138 424Q98
424 84 435T69 477Q69 507 85 545Q127 532 176 532Q173 576 153 625Q191 658 237 678T332 698Q373 698 390 680T408 621Q408 601 395 552Q403 553 420 553Q460 553 474 542Z" />
<glyph unicode="u" glyph-name="u" horiz-adv-x="764" d="M650 50T681 24Q624 -25 562 -25Q508 -25 480 -1T445 73L435 78Q394 29 339 2T218 -25Q138 -25 99 15T60 137Q60 174 66 215T84 315Q92 355 98 394T104 460Q104 489 99 513T83 551Q124 572 168 586T240
600Q281 600 299 584T318 529Q318 505 308 452T287 345Q276 293 267 243T257 172Q257 133 273 115T324 97Q357 97 391 117T452 173Q466 260 508 441L452 525Q521 566 565 583T649 600Q689 600 706 583T724 526Q724 513 717 479T700 403Q677 308 664 238T650 115Q650
50 681 24Z" />
<glyph unicode="v" glyph-name="v" horiz-adv-x="703" d="M96 319Q96 409 85 465T40 557Q95 600 159 600Q226 600 260 545T294 354Q294 204 289 97H299Q383 224 429 328T475 482Q475 520 456 557Q481 576 518 588T590 600Q678 600 678 516Q678 485 665 444T616
331T507 122L530 69Q484 28 414 2T282 -25Q182 -25 139 25T95 190L96 319Z" />
<glyph unicode="w" glyph-name="w" horiz-adv-x="956" d="M931 485T919 444T876 331T780 122L803 69Q765 28 707 2T595 -25Q530 -25 497 5T449 106Q404 42 357 9T242 -25Q163 -25 129 25T95 190L96 319Q96 409 85 465T40 557Q95 600 159 600Q226 600 260 545T294
354L293 209Q292 167 292 97H302Q384 179 428 307L407 535Q434 554 458 562T500 570Q588 570 588 476Q588 405 550 303L562 97H572Q647 224 687 328T728 482Q728 520 709 557Q734 576 771 588T843 600Q931 600 931 516Q931 485 919 444Z" />
<glyph unicode="x" glyph-name="x" horiz-adv-x="709" d="M533 162T566 126T652 69Q589 -25 489 -25Q443 -25 413 -1T347 89L300 177Q233 118 233 64Q233 39 241 18Q170 -25 107 -25Q66 -25 41 1T15 71Q15 123 61 174T204 283L233 300L198 364Q176 412 143 448T57
505Q119 600 220 600Q266 600 296 576T362 485L406 404Q466 461 466 511Q466 536 458 557Q528 601 592 601Q633 601 658 575T684 504Q684 452 638 401T495 292L473 279L511 210Q533 162 566 126Z" />
<glyph unicode="y" glyph-name="y" horiz-adv-x="714" d="M689 600T689 512Q689 393 615 222T409 -74T110 -200Q25 -200 -19 -170T-64 -83Q-64 -55 -49 -28T-15 13Q2 -15 33 -33T112 -51Q166 -51 224 -18Q166 -3 139 43T105 148T98 298Q97 370 95 413T80 495T42
557Q95 600 161 600Q219 600 248 567T287 482T297 354L296 250Q296 182 304 139T336 73Q403 149 444 258T486 499Q486 527 481 557Q501 576 532 588T592 600Q689 600 689 512Z" />
<glyph unicode="z" glyph-name="z" horiz-adv-x="614" d="M558 196Q579 142 579 97Q579 62 558 35T500 -9T422 -25Q371 -25 327 -13T215 25Q185 2 159 -8T104 -18Q60 -18 35 10T10 78Q10 125 42 161T136 202L285 376Q204 379 158 395T94 440T75 514Q75 541 86
605Q153 577 241 555T379 530Q395 561 426 580T494 600Q545 600 572 574T599 506Q599 433 519 401L322 162Q388 143 422 143L558 196Z" />
<glyph unicode="{" glyph-name="braceleft" horiz-adv-x="442" d="M93 295T73 313T52 357Q52 383 72 401T122 420Q152 420 173 401Q163 437 158 494T152 591Q152 711 213 755T373 800Q438 800 466 775T495 701Q495 690 493 674T488 649Q473 656 427 662T352 668Q331
563 311 503T266 410T206 351Q237 316 254 267T272 163Q272 143 243 -25Q270 -25 312 -19T369 -6Q376 -30 376 -58Q376 -105 337 -131T221 -157Q138 -157 98 -121T57 -5Q57 53 82 137T154 301Q139 295 122 295Q93 295 73 313Z" />
<glyph unicode="|" glyph-name="bar" horiz-adv-x="486" d="M239 722L216 835Q254 855 295 867T375 880Q420 880 439 863T458 806L267 -22L290 -135Q252 -155 211 -167T131 -180Q86 -180 67 -163T48 -106L239 722Z" />
<glyph unicode="}" glyph-name="braceright" horiz-adv-x="442" d="M360 349T380 331T401 287Q401 261 381 243T331 224Q301 224 280 243Q290 207 295 150T301 53Q301 -67 240 -111T80 -156Q15 -156 -13 -131T-42 -57Q-42 -46 -40 -30T-35 -5Q-20 -12 26 -18T101
-24Q122 81 142 141T187 234T247 293Q216 328 199 377T181 481Q181 501 210 669Q183 669 141 663T84 650Q77 674 77 702Q77 749 116 775T232 801Q315 801 355 765T396 649Q396 591 371 507T299 343Q314 349 331 349Q360 349 380 331Z" />
<glyph unicode="~" glyph-name="asciitilde" horiz-adv-x="724" d="M549 321T489 312T352 286Q290 273 252 267T180 261Q140 261 125 277T109 326Q109 367 137 424Q202 424 262 433T399 459Q461 472 499 478T571 484Q611 484 626 468T642 419Q642 378 614 321Q549
321 489 312Z" />
<glyph unicode="&#xa1;" glyph-name="exclamdown" horiz-adv-x="420" d="M312 600T342 570T373 495Q373 462 356 433T310 386T247 368Q201 368 171 398T140 473Q140 506 157 535T203 582T266 600Q312 600 342 570ZM263 296T278 274T294 211Q294 187 279 97Q260
-21 260 -56Q260 -78 266 -99T285 -133Q253 -166 208 -183T111 -200Q55 -200 29 -173T3 -97Q3 -30 43 76T122 258Q142 276 171 286T224 296Q263 296 278 274Z" />
<glyph unicode="&#xa2;" glyph-name="cent" horiz-adv-x="571" d="M472 294T501 274T530 215Q530 163 477 125T340 77Q334 45 332 28Q323 -24 301 -47T240 -70Q216 -70 191 -64T152 -48Q168 2 190 89Q120 112 83 166T45 299Q45 376 77 439T167 543T303 599L324
692Q335 740 356 763T412 786Q438 786 466 778T508 759Q481 685 455 596Q500 583 525 557T550 496Q550 456 524 431T456 406Q418 406 387 428T337 489Q293 474 262 419T231 298Q231 237 251 204T308 170Q350 170 382 206T415 294Q472 294 501 274Z" />
<glyph unicode="&#xa3;" glyph-name="sterling" horiz-adv-x="659" d="M589 204Q613 145 613 100Q613 64 591 34T529 -13T442 -30Q391 -30 347 -16T234 28Q201 1 173 -10T111 -22Q68 -22 41 6T14 78Q14 125 42 159T120 206L128 283H127Q84 283 69 294T54 334Q54
362 71 398Q109 388 138 386L146 472Q158 589 227 647T407 705Q521 705 580 672T639 574Q639 544 629 513T602 462Q564 484 503 496T374 509L355 401Q401 405 426 405Q468 405 483 395T499 355Q499 329 481 291Q439 303 382 303Q367 303 337 301L314 177Q367 157
392 149T442 141L589 204Z" />
<glyph unicode="&#xa4;" glyph-name="currency" horiz-adv-x="695" d="M594 311T577 271T526 200Q558 146 598 84Q581 62 542 41T478 20Q433 20 402 84L378 135Q354 132 328 132Q288 132 259 139L224 84Q203 51 182 36T138 20Q113 20 77 41T28 84Q81 148 135 222Q112
262 112 312Q112 407 187 471Q159 519 114 588Q131 609 168 630T234 651Q280 651 310 588L336 533Q370 539 408 539Q435 539 452 535L486 588Q527 651 572 651Q600 651 634 630T682 588Q652 552 574 450Q594 410 594 359Q594 311 577 271ZM282 288T296 270T335
252Q376 252 400 285T424 364Q424 390 409 404T356 419Q335 419 318 412Q300 391 291 366T282 317Q282 288 296 270Z" />
<glyph unicode="&#xa5;" glyph-name="yen" horiz-adv-x="674" d="M641 439T650 428T659 395Q659 369 641 331Q600 343 546 343Q518 312 479 280Q526 285 562 285Q604 285 619 275T635 235Q635 209 617 171Q575 183 518 183Q475 183 417 176Q408 136 408 96Q408
73 413 56T431 18Q376 -25 310 -25Q251 -25 224 0T197 80Q197 120 208 169Q144 163 113 163Q70 163 55 174T40 214Q40 242 57 278Q104 265 156 265Q178 265 188 266Q172 291 165 324Q156 323 137 323Q94 323 79 334T64 374Q64 402 81 438Q122 427 157 426Q153 523
140 574T89 657Q148 700 218 700Q279 700 309 657T348 544T357 362H367Q412 422 444 492T477 601Q477 628 458 657Q481 675 520 687T592 700Q638 700 660 682T682 625Q682 544 620 443Q641 439 650 428Z" />
<glyph unicode="&#xa6;" glyph-name="brokenbar" horiz-adv-x="486" d="M379 465H180L239 722L216 835Q254 855 295 867T375 880Q420 880 439 863T458 806L379 465ZM327 236L267 -22L290 -135Q252 -155 211 -167T131 -180Q86 -180 67 -163T48 -106L127 236H327Z" />
<glyph unicode="&#xa7;" glyph-name="section" horiz-adv-x="723" d="M663 207T584 144Q620 100 620 36Q620 -37 571 -87T446 -162T296 -187Q156 -187 91 -152T26 -55Q26 -28 38 0T73 49Q113 -8 163 -40T286 -72Q337 -72 370 -54T404 -1Q404 25 376 41T287 80Q219
104 175 127T98 193T65 301Q65 402 144 463Q108 509 108 572Q108 645 157 695T282 770T432 795Q572 795 637 760T702 663Q702 636 690 608T655 559Q615 616 565 648T442 680Q391 680 358 662T324 609Q324 583 352 567T441 528Q509 504 553 481T630 415T663 307Q663
207 584 144ZM281 305T299 290T342 266T425 237Q447 256 447 281Q447 310 419 326T324 365L303 372Q281 352 281 327Q281 305 299 290Z" />
<glyph unicode="&#xa8;" glyph-name="dieresis" horiz-adv-x="600" d="M143 655T119 677T94 738Q94 772 111 797T155 834T208 847Q251 847 278 825T305 764Q305 717 269 686T182 655Q143 655 119 677ZM441 655T414 677T387 738Q387 772 406 797T453 834T510 847Q549
847 573 825T598 764Q598 717 564 686T484 655Q441 655 414 677Z" />
<glyph unicode="&#xa9;" glyph-name="copyright" horiz-adv-x="896" d="M334 150T257 189T133 305T85 493Q85 613 141 704T299 846T537 896Q582 896 605 888T638 863T650 818Q730 775 770 703T811 546Q811 422 756 332T611 196T424 150Q334 150 257 189ZM523 213T598
260T715 383T756 543Q756 609 725 671T631 774T480 815Q387 815 313 779T197 670T154 494Q154 401 190 338T288 244T423 213Q523 213 598 260ZM365 321T320 363T274 481Q274 549 305 603T393 688T518 719Q568 719 597 701T627 651Q627 626 610 610T565 594Q539
594 518 608T484 649Q443 633 417 586T390 479Q390 431 406 404T453 377Q489 377 513 405T540 474Q610 474 610 425Q610 396 588 373T529 335T447 321Q365 321 320 363Z" />
<glyph unicode="&#xaa;" glyph-name="ordfeminine" horiz-adv-x="598" d="M530 431T537 410T559 377Q501 333 439 333Q395 333 371 357T347 426V439L340 442Q324 391 288 362T204 333Q144 333 108 378T71 497Q71 579 109 641T213 736T357 770Q386 770 406 764Q412
747 413 720Q452 753 507 753Q536 753 552 735T568 681Q568 660 551 588Q543 553 537 517T530 459Q530 431 537 410ZM331 486T353 533T383 687Q319 678 283 639T246 547Q246 518 258 502T290 486Q331 486 353 533Z" />
<glyph unicode="&#xab;" glyph-name="guillemotleft" horiz-adv-x="682" d="M313 549T336 527T360 472Q360 438 335 413T254 352Q211 324 180 300Q228 249 251 223T288 168T302 111Q302 91 289 71T252 38T195 25Q31 229 31 288Q31 332 90 393T266 549Q313 549
336 527ZM613 549T636 527T660 472Q660 438 635 413T554 352Q511 324 480 300Q528 249 551 223T588 168T602 111Q602 91 589 71T552 38T495 25Q331 229 331 288Q331 332 390 393T566 549Q613 549 636 527Z" />
<glyph unicode="&#xac;" glyph-name="logicalnot" horiz-adv-x="728" d="M606 454T625 443T645 399L600 114Q532 86 488 86Q464 86 454 96T443 134Q443 154 447 177L466 291H203Q151 291 132 302T112 346Q112 391 140 454H553Q606 454 625 443Z" />
<glyph unicode="&#xae;" glyph-name="registered" horiz-adv-x="896" d="M730 775T770 703T811 546Q811 422 756 332T611 196T424 150Q334 150 257 189T133 305T85 493Q85 613 141 704T299 846T537 896Q582 896 605 888T638 863T650 818Q730 775 770 703ZM523
213T598 260T715 383T756 543Q756 609 725 671T631 774T480 815Q387 815 313 779T197 670T154 494Q154 401 190 338T288 244T423 213Q523 213 598 260ZM600 379T641 350Q630 339 607 330T565 321Q528 321 507 340T468 408L450 459H448Q418 459 397 466Q391 432
391 410Q391 387 395 372T407 344Q377 320 341 320Q307 320 292 337T277 392Q277 416 283 462T310 623L282 680Q341 719 391 719Q416 719 426 700Q460 718 507 718Q561 718 593 685T625 607Q625 572 609 540T559 488Q600 379 641 350ZM412 525T420 525Q458 525
482 545T507 600Q507 619 493 634T453 650Q441 650 430 646Q424 610 407 526Q412 525 420 525Z" />
<glyph unicode="&#xaf;" glyph-name="overscore" horiz-adv-x="600" d="M90 685T90 738Q90 763 96 786T119 844Q130 839 152 836T193 832Q222 832 284 836Q348 840 384 840Q465 840 465 767Q465 727 447 697Q438 700 417 702T375 705Q337 705 257 695Q179 685
145 685Q90 685 90 738Z" />
<glyph unicode="&#xb0;" glyph-name="degree" horiz-adv-x="482" d="M169 258T114 309T59 446Q59 512 92 563T185 643T324 672Q336 672 351 670T377 663Q384 656 385 636Q442 625 471 586T501 484Q501 421 470 369T384 288T262 258Q169 258 114 309ZM296 374T315
403T334 479Q334 533 284 533Q269 533 258 528Q245 519 236 491T226 437Q226 408 236 391T266 374Q296 374 315 403Z" />
<glyph unicode="&#xb1;" glyph-name="plusminus" horiz-adv-x="731" d="M646 355T618 291H448L423 134Q355 106 311 106Q287 106 277 116T266 154Q266 174 270 197L285 291H204Q152 291 133 302T113 346Q113 391 141 454H311L336 611Q404 639 448 639Q472 639
482 629T493 591Q493 570 489 547L474 454H554Q607 454 626 443T646 399Q646 355 618 291ZM79 -163T60 -152T40 -108Q40 -63 68 0H481Q534 0 553 -11T573 -55Q573 -99 545 -163H131Q79 -163 60 -152Z" />
<glyph unicode="&#xb2;" glyph-name="uni00B2" horiz-adv-x="495" d="M477 401T477 368Q477 327 441 300T353 272Q312 272 278 281T220 303Q198 287 177 280T133 272Q99 272 78 293T57 350Q57 388 85 413T160 438Q171 438 185 435Q241 465 261 490T282 544Q282
561 270 576T236 591Q212 591 194 577T165 524Q130 528 110 546T89 592Q89 645 141 677T277 710Q325 710 363 693T423 646T445 583Q445 525 412 483T298 400Q333 390 353 390L462 449Q477 401 477 368Z" />
<glyph unicode="&#xb3;" glyph-name="uni00B3" horiz-adv-x="410" d="M112 272T74 292T36 345Q36 370 53 387T97 404Q122 404 146 387T186 340Q217 340 237 356T257 395Q257 422 234 437T170 452L171 505Q213 505 237 520T261 562Q261 581 248 592T210 603Q181
603 161 583T134 527Q102 531 84 549T65 597Q65 646 113 678T237 710Q315 710 358 681T402 600Q402 563 380 534T316 487Q356 476 378 452T401 395Q401 339 340 306T176 272Q112 272 74 292Z" />
<glyph unicode="&#xb4;" glyph-name="acute" horiz-adv-x="600" d="M102 653T87 673T70 729Q102 738 131 756T205 807Q249 841 279 858T340 876Q372 876 389 854T406 791Q406 758 396 718Q343 718 303 707T215 677Q185 665 166 659T126 653Q102 653 87 673Z" />
<glyph unicode="&#xb5;" glyph-name="uni00B5" horiz-adv-x="764" d="M650 50T681 24Q624 -25 562 -25Q508 -25 480 -1T445 73L435 78Q420 46 385 23T306 0Q271 0 238 16Q235 -7 235 -29Q235 -71 244 -104T267 -151Q241 -174 208 -187T143 -200Q84 -200 57 -171T30
-76Q30 -39 53 114T109 447L53 527Q100 562 149 581T240 600Q286 600 305 584T325 529Q325 504 316 454T288 324Q285 311 272 247T258 161Q258 128 274 113T324 97Q357 97 391 117T452 173Q466 260 508 441L452 525Q521 566 565 583T649 600Q689 600 706 583T724
526Q724 513 717 479T700 403Q677 308 664 238T650 115Q650 50 681 24Z" />
<glyph unicode="&#xb6;" glyph-name="paragraph" horiz-adv-x="674" d="M356 -93T326 -54T296 55Q296 116 318 186T371 315T422 404H402Q368 344 323 314T224 283Q146 283 103 334T60 460Q60 527 95 590T200 693T367 734Q465 734 540 683T615 506Q615 475 607
435T581 329Q556 232 544 168T531 40Q531 -21 561 -46Q527 -69 490 -81T420 -93Q356 -93 326 -54Z" />
<glyph unicode="&#xb7;" glyph-name="middot" horiz-adv-x="333" d="M91 180T61 210T30 285Q30 318 47 347T93 394T156 412Q202 412 232 382T263 307Q263 274 246 245T200 198T137 180Q91 180 61 210Z" />
<glyph unicode="&#xb8;" glyph-name="cedilla" horiz-adv-x="600" d="M104 -287T66 -264T27 -203Q27 -165 66 -139T160 -112Q120 -130 120 -177Q120 -197 132 -208T165 -220Q197 -220 216 -203T235 -155Q235 -119 216 -89T159 -39Q245 -39 297 -70T349 -154Q349
-190 325 -220T260 -269T169 -287Q104 -287 66 -264Z" />
<glyph unicode="&#xb9;" glyph-name="uni00B9" horiz-adv-x="402" d="M149 425T159 476T171 533Q152 533 132 547T99 591T85 659Q127 663 158 670T229 691Q262 701 280 705T320 710Q379 710 379 643Q379 630 375 607T364 559Q352 502 346 466T339 391Q339 337
359 300Q304 272 253 272Q199 272 174 296T149 376Q149 425 159 476Z" />
<glyph unicode="&#xba;" glyph-name="ordmasculine" horiz-adv-x="534" d="M183 333T128 384T73 521Q73 592 107 649T202 738T338 770Q368 770 397 761Q410 735 407 701Q363 696 327 671T269 606T247 514Q247 422 314 422Q352 422 376 455T400 540Q400 572 389
598T352 649Q367 671 391 683T443 696Q492 696 517 662T543 571Q543 503 511 449T418 364T277 333Q183 333 128 384Z" />
<glyph unicode="&#xbb;" glyph-name="guillemotright" horiz-adv-x="681" d="M70 36T47 58T23 113Q23 147 48 172T129 233Q172 261 203 285Q155 336 132 362T95 417T81 474Q81 494 94 514T131 547T188 560Q352 356 352 297Q352 253 293 192T117 36Q70 36 47 58ZM370
36T347 58T323 113Q323 147 348 172T429 233Q472 261 503 285Q455 336 432 362T395 417T381 474Q381 494 394 514T431 547T488 560Q652 356 652 297Q652 253 593 192T417 36Q370 36 347 58Z" />
<glyph unicode="&#xbc;" glyph-name="onequarter" horiz-adv-x="1137" d="M149 425T159 476T171 533Q152 533 132 547T99 591T85 659Q127 663 158 670T229 691Q262 701 280 705T320 710Q379 710 379 643Q379 630 375 607T364 559Q352 502 346 466T339 391Q339
337 359 300Q304 272 253 272Q199 272 174 296T149 376Q149 425 159 476ZM375 114T462 295T641 702Q661 750 686 773T746 796Q772 796 798 788T838 769Q765 643 678 462T498 54Q478 6 453 -17T393 -40Q368 -40 342 -32T302 -13Q375 114 462 295ZM1136 265T1122
223Q1108 175 1100 138T1091 64Q1091 45 1093 33T1102 4Q1075 -10 1051 -16T998 -23Q928 -23 913 46Q851 35 808 35Q744 35 708 57T671 117Q671 137 682 161T720 230Q749 278 764 311T780 373Q780 390 775 398Q792 404 818 409T860 415Q952 415 952 325Q952 283
918 232T817 133H918Q927 167 944 204T979 270Q995 284 1028 294T1090 305Q1117 305 1126 300T1136 277Q1136 265 1122 223Z" />
<glyph unicode="&#xbd;" glyph-name="onehalf" horiz-adv-x="1203" d="M149 425T159 476T171 533Q152 533 132 547T99 591T85 659Q127 663 158 670T229 691Q262 701 280 705T320 710Q379 710 379 643Q379 630 375 607T364 559Q352 502 346 466T339 391Q339 337
359 300Q304 272 253 272Q199 272 174 296T149 376Q149 425 159 476ZM375 114T462 295T641 702Q661 750 686 773T746 796Q772 796 798 788T838 769Q765 643 678 462T498 54Q478 6 453 -17T393 -40Q368 -40 342 -32T302 -13Q375 114 462 295ZM1138 106T1138 73Q1138
32 1102 5T1014 -23Q973 -23 939 -14T881 8Q859 -8 838 -15T794 -23Q760 -23 739 -2T718 55Q718 93 746 118T821 143Q832 143 846 140Q902 170 922 195T943 249Q943 266 931 281T897 296Q873 296 855 282T826 229Q791 233 771 251T750 297Q750 350 802 382T938
415Q986 415 1024 398T1084 351T1106 288Q1106 230 1073 188T959 105Q994 95 1014 95L1123 154Q1138 106 1138 73Z" />
<glyph unicode="&#xbe;" glyph-name="threequarters" horiz-adv-x="1145" d="M112 272T74 292T36 345Q36 370 53 387T97 404Q122 404 146 387T186 340Q217 340 237 356T257 395Q257 422 234 437T170 452L171 505Q213 505 237 520T261 562Q261 581 248 592T210
603Q181 603 161 583T134 527Q102 531 84 549T65 597Q65 646 113 678T237 710Q315 710 358 681T402 600Q402 563 380 534T316 487Q356 476 378 452T401 395Q401 339 340 306T176 272Q112 272 74 292ZM383 114T470 295T649 702Q669 750 694 773T754 796Q780 796
806 788T846 769Q773 643 686 462T506 54Q486 6 461 -17T401 -40Q376 -40 350 -32T310 -13Q383 114 470 295ZM1144 265T1130 223Q1116 175 1108 138T1099 64Q1099 45 1101 33T1110 4Q1083 -10 1059 -16T1006 -23Q936 -23 921 46Q859 35 816 35Q752 35 716 57T679
117Q679 137 690 161T728 230Q757 278 772 311T788 373Q788 390 783 398Q800 404 826 409T868 415Q960 415 960 325Q960 283 926 232T825 133H926Q935 167 952 204T987 270Q1003 284 1036 294T1098 305Q1125 305 1134 300T1144 277Q1144 265 1130 223Z" />
<glyph unicode="&#xbf;" glyph-name="questiondown" horiz-adv-x="589" d="M359 600T389 570T420 495Q420 462 403 433T357 386T294 368Q248 368 218 398T187 473Q187 506 204 535T250 582T313 600Q359 600 389 570ZM249 191T205 153T161 55Q161 21 180 -2T239
-25Q279 -25 314 3T362 93Q421 93 447 64T474 -9Q474 -57 444 -101T355 -172T209 -200Q117 -200 58 -168T-28 -82T-55 33Q-55 113 -19 177T80 276T218 312Q276 312 304 282T333 199Q249 191 205 153Z" />
<glyph unicode="&#xc0;" glyph-name="Agrave" horiz-adv-x="767" d="M663 377Q663 242 675 156T727 16Q669 -29 602 -29Q539 -29 505 16T459 161H239Q232 134 232 110Q232 81 237 59T253 16Q225 -4 187 -16T113 -29Q67 -29 44 -4T20 69Q20 131 63 239T224 577L191
662Q247 696 293 710T393 725Q450 725 475 700Q522 725 559 725Q614 725 639 690T664 578L663 377ZM453 280V292Q453 478 459 593H447Q337 419 279 280H453ZM570 788T551 794T501 812Q454 831 414 842T320 853Q310 893 310 926Q310 967 327 989T376 1011Q406 1011
436 994T511 942Q555 910 584 892T646 864Q644 828 629 808T590 788Q570 788 551 794Z" />
<glyph unicode="&#xc1;" glyph-name="Aacute" horiz-adv-x="767" d="M663 377Q663 242 675 156T727 16Q669 -29 602 -29Q539 -29 505 16T459 161H239Q232 134 232 110Q232 81 237 59T253 16Q225 -4 187 -16T113 -29Q67 -29 44 -4T20 69Q20 131 63 239T224 577L191
662Q247 696 293 710T393 725Q450 725 475 700Q522 725 559 725Q614 725 639 690T664 578L663 377ZM453 280V292Q453 478 459 593H447Q337 419 279 280H453ZM376 788T361 808T344 864Q376 873 405 891T479 942Q523 976 553 993T614 1011Q646 1011 663 989T680 926Q680
893 670 853Q617 853 577 842T489 812Q459 800 440 794T400 788Q376 788 361 808Z" />
<glyph unicode="&#xc2;" glyph-name="Acircumflex" horiz-adv-x="767" d="M663 377Q663 242 675 156T727 16Q669 -29 602 -29Q539 -29 505 16T459 161H239Q232 134 232 110Q232 81 237 59T253 16Q225 -4 187 -16T113 -29Q67 -29 44 -4T20 69Q20 131 63 239T224
577L191 662Q247 696 293 710T393 725Q450 725 475 700Q522 725 559 725Q614 725 639 690T664 578L663 377ZM453 280V292Q453 478 459 593H447Q337 419 279 280H453ZM418 1003T458 1013T540 1023Q593 1023 626 1004T660 946V883Q660 840 691 818Q644 799 597 799Q558
799 537 816T516 874Q516 894 521 924T527 961H507Q458 908 458 817Q411 799 362 799Q295 799 295 838Q295 867 326 910T393 986Q418 1003 458 1013Z" />
<glyph unicode="&#xc3;" glyph-name="Atilde" horiz-adv-x="767" d="M663 377Q663 242 675 156T727 16Q669 -29 602 -29Q539 -29 505 16T459 161H239Q232 134 232 110Q232 81 237 59T253 16Q225 -4 187 -16T113 -29Q67 -29 44 -4T20 69Q20 131 63 239T224 577L191
662Q247 696 293 710T393 725Q450 725 475 700Q522 725 559 725Q614 725 639 690T664 578L663 377ZM453 280V292Q453 478 459 593H447Q337 419 279 280H453ZM288 801T288 864Q288 910 315 969Q355 949 398 949Q427 949 454 956T520 979Q555 993 580 1000T632 1008Q696
1008 696 945Q696 899 669 840Q629 860 586 860Q557 860 530 853T464 830Q429 816 404 809T352 801Q288 801 288 864Z" />
<glyph unicode="&#xc4;" glyph-name="Adieresis" horiz-adv-x="767" d="M663 377Q663 242 675 156T727 16Q669 -29 602 -29Q539 -29 505 16T459 161H239Q232 134 232 110Q232 81 237 59T253 16Q225 -4 187 -16T113 -29Q67 -29 44 -4T20 69Q20 131 63 239T224 577L191
662Q247 696 293 710T393 725Q450 725 475 700Q522 725 559 725Q614 725 639 690T664 578L663 377ZM453 280V292Q453 478 459 593H447Q337 419 279 280H453ZM286 790T262 812T237 873Q237 907 254 932T298 969T351 982Q394 982 421 960T448 899Q448 852 412 821T325
790Q286 790 262 812ZM584 790T557 812T530 873Q530 907 549 932T596 969T653 982Q692 982 716 960T741 899Q741 852 707 821T627 790Q584 790 557 812Z" />
<glyph unicode="&#xc5;" glyph-name="Aring" horiz-adv-x="767" d="M663 377Q663 242 675 156T727 16Q669 -29 602 -29Q539 -29 505 16T459 161H239Q232 134 232 110Q232 81 237 59T253 16Q225 -4 187 -16T113 -29Q67 -29 44 -4T20 69Q20 131 63 239T224 577L191
662Q247 696 293 710T393 725Q450 725 475 700Q522 725 559 725Q614 725 639 690T664 578L663 377ZM453 280V292Q453 478 459 593H447Q337 419 279 280H453ZM412 770T370 805T328 903Q328 980 379 1027T514 1075Q587 1075 629 1040T671 942Q671 865 620 818T485
770Q412 770 370 805ZM520 845T537 872T554 943Q554 1002 510 1002Q500 1002 491 1001T476 998Q462 981 455 957T447 907Q447 879 459 862T492 844Q520 845 537 872Z" />
<glyph unicode="&#xc6;" glyph-name="AE" horiz-adv-x="967" d="M853 147T924 175Q935 149 935 111Q935 46 896 11T785 -25Q700 -25 625 4Q581 -26 520 -26Q456 -26 427 6T398 109Q398 119 400 161H239Q232 134 232 110Q232 81 237 59T253 16Q225 -4 187 -16T113
-29Q67 -29 44 -4T20 69Q20 131 66 239T234 577L201 662Q257 697 303 711T403 726Q459 726 492 698Q555 726 614 726Q673 726 687 670Q755 674 817 686T969 721Q977 684 977 656Q977 580 926 537T786 493Q740 493 674 510Q664 453 649 372Q679 366 709 366L799
389Q804 369 804 341Q804 298 775 274T695 249Q665 249 628 258Q614 169 614 144V136H776Q853 147 924 175ZM416 280Q430 377 469 593H457Q342 417 281 280H416Z" />
<glyph unicode="&#xc7;" glyph-name="Ccedilla" horiz-adv-x="718" d="M201 -25T115 55T29 278Q29 406 88 508T253 668T488 726Q583 726 639 692T695 599Q695 552 662 522T578 491Q529 491 489 517T424 594Q374 575 334 527T270 413T247 274Q247 183 278 132T366
81Q410 81 446 105T505 172T530 265Q595 265 629 242T663 171Q663 117 622 72T509 1T354 -25Q201 -25 115 55ZM203 -301T165 -278T126 -217Q126 -179 165 -153T259 -126Q219 -144 219 -191Q219 -211 231 -222T264 -234Q296 -234 315 -217T334 -169Q334 -133 315
-103T258 -53Q344 -53 396 -84T448 -168Q448 -204 424 -234T359 -283T268 -301Q203 -301 165 -278Z" />
<glyph unicode="&#xc8;" glyph-name="Egrave" horiz-adv-x="629" d="M515 147T586 175Q597 149 597 111Q597 46 558 11T447 -25Q362 -25 287 4Q243 -26 182 -26Q118 -26 89 6T60 109Q60 154 73 244T123 546L70 653Q183 726 276 726Q335 726 349 670Q417 674 479
686T631 721Q639 684 639 656Q639 580 588 537T448 493Q402 493 336 510Q326 453 311 372Q341 366 371 366L461 389Q466 369 466 341Q466 298 437 274T357 249Q327 249 290 258Q276 169 276 144V136H438Q515 147 586 175ZM490 788T471 794T421 812Q374 831 334
842T240 853Q230 893 230 926Q230 967 247 989T296 1011Q326 1011 356 994T431 942Q475 910 504 892T566 864Q564 828 549 808T510 788Q490 788 471 794Z" />
<glyph unicode="&#xc9;" glyph-name="Eacute" horiz-adv-x="629" d="M515 147T586 175Q597 149 597 111Q597 46 558 11T447 -25Q362 -25 287 4Q243 -26 182 -26Q118 -26 89 6T60 109Q60 154 73 244T123 546L70 653Q183 726 276 726Q335 726 349 670Q417 674 479
686T631 721Q639 684 639 656Q639 580 588 537T448 493Q402 493 336 510Q326 453 311 372Q341 366 371 366L461 389Q466 369 466 341Q466 298 437 274T357 249Q327 249 290 258Q276 169 276 144V136H438Q515 147 586 175ZM296 788T281 808T264 864Q296 873 325
891T399 942Q443 976 473 993T534 1011Q566 1011 583 989T600 926Q600 893 590 853Q537 853 497 842T409 812Q379 800 360 794T320 788Q296 788 281 808Z" />
<glyph unicode="&#xca;" glyph-name="Ecircumflex" horiz-adv-x="629" d="M515 147T586 175Q597 149 597 111Q597 46 558 11T447 -25Q362 -25 287 4Q243 -26 182 -26Q118 -26 89 6T60 109Q60 154 73 244T123 546L70 653Q183 726 276 726Q335 726 349 670Q417 674
479 686T631 721Q639 684 639 656Q639 580 588 537T448 493Q402 493 336 510Q326 453 311 372Q341 366 371 366L461 389Q466 369 466 341Q466 298 437 274T357 249Q327 249 290 258Q276 169 276 144V136H438Q515 147 586 175ZM338 1003T378 1013T460 1023Q513 1023
546 1004T580 946V883Q580 840 611 818Q564 799 517 799Q478 799 457 816T436 874Q436 894 441 924T447 961H427Q378 908 378 817Q331 799 282 799Q215 799 215 838Q215 867 246 910T313 986Q338 1003 378 1013Z" />
<glyph unicode="&#xcb;" glyph-name="Edieresis" horiz-adv-x="629" d="M515 147T586 175Q597 149 597 111Q597 46 558 11T447 -25Q362 -25 287 4Q243 -26 182 -26Q118 -26 89 6T60 109Q60 154 73 244T123 546L70 653Q183 726 276 726Q335 726 349 670Q417 674
479 686T631 721Q639 684 639 656Q639 580 588 537T448 493Q402 493 336 510Q326 453 311 372Q341 366 371 366L461 389Q466 369 466 341Q466 298 437 274T357 249Q327 249 290 258Q276 169 276 144V136H438Q515 147 586 175ZM206 790T182 812T157 873Q157 907
174 932T218 969T271 982Q314 982 341 960T368 899Q368 852 332 821T245 790Q206 790 182 812ZM504 790T477 812T450 873Q450 907 469 932T516 969T573 982Q612 982 636 960T661 899Q661 852 627 821T547 790Q504 790 477 812Z" />
<glyph unicode="&#xcc;" glyph-name="Igrave" horiz-adv-x="382" d="M60 154T72 242T123 546L70 653Q183 726 276 726Q353 726 353 632Q353 597 316 402Q276 188 276 145Q276 99 282 71T306 20Q249 -25 182 -25Q118 -25 89 7T60 110Q60 154 72 242ZM347 788T328
794T278 812Q231 831 191 842T97 853Q87 893 87 926Q87 967 104 989T153 1011Q183 1011 213 994T288 942Q332 910 361 892T423 864Q421 828 406 808T367 788Q347 788 328 794Z" />
<glyph unicode="&#xcd;" glyph-name="Iacute" horiz-adv-x="382" d="M60 154T72 242T123 546L70 653Q183 726 276 726Q353 726 353 632Q353 597 316 402Q276 188 276 145Q276 99 282 71T306 20Q249 -25 182 -25Q118 -25 89 7T60 110Q60 154 72 242ZM153 788T138
808T121 864Q153 873 182 891T256 942Q300 976 330 993T391 1011Q423 1011 440 989T457 926Q457 893 447 853Q394 853 354 842T266 812Q236 800 217 794T177 788Q153 788 138 808Z" />
<glyph unicode="&#xce;" glyph-name="Icircumflex" horiz-adv-x="382" d="M60 154T72 242T123 546L70 653Q183 726 276 726Q353 726 353 632Q353 597 316 402Q276 188 276 145Q276 99 282 71T306 20Q249 -25 182 -25Q118 -25 89 7T60 110Q60 154 72 242ZM195 1003T235
1013T317 1023Q370 1023 403 1004T437 946V883Q437 840 468 818Q421 799 374 799Q335 799 314 816T293 874Q293 894 298 924T304 961H284Q235 908 235 817Q188 799 139 799Q72 799 72 838Q72 867 103 910T170 986Q195 1003 235 1013Z" />
<glyph unicode="&#xcf;" glyph-name="Idieresis" horiz-adv-x="382" d="M60 154T72 242T123 546L70 653Q183 726 276 726Q353 726 353 632Q353 597 316 402Q276 188 276 145Q276 99 282 71T306 20Q249 -25 182 -25Q118 -25 89 7T60 110Q60 154 72 242ZM63 790T39
812T14 873Q14 907 31 932T75 969T128 982Q171 982 198 960T225 899Q225 852 189 821T102 790Q63 790 39 812ZM361 790T334 812T307 873Q307 907 326 932T373 969T430 982Q469 982 493 960T518 899Q518 852 484 821T404 790Q361 790 334 812Z" />
<glyph unicode="&#xd0;" glyph-name="Eth" horiz-adv-x="856" d="M583 726T652 688T758 580T796 419Q796 290 736 189T568 32T323 -25Q199 -25 130 19T60 143Q60 186 75 279H60Q13 279 -4 292T-21 342Q-21 376 -2 422Q45 407 97 406L123 546L70 653Q183 726 276
726Q320 726 340 693Q375 711 411 718T494 726Q583 726 652 688ZM411 89T464 126T548 231T578 384Q578 484 532 540T403 596Q376 596 349 586Q343 541 325 427Q356 431 392 431Q439 431 456 418T473 368Q473 334 454 288Q403 304 344 304Q318 304 305 303Q276 134
276 103Q306 89 343 89Q411 89 464 126Z" />
<glyph unicode="&#xd1;" glyph-name="Ntilde" horiz-adv-x="863" d="M834 611T823 544T797 402Q757 188 757 145Q757 99 763 71T787 20Q757 -4 727 -14T660 -25Q570 -25 518 21T430 185T353 546H342Q329 465 316 400Q297 297 287 234T276 144Q276 98 282 70T306
19Q249 -26 182 -26Q118 -26 89 6T60 109Q60 153 72 241T123 546L70 653Q183 726 276 726Q359 726 404 690T479 555T544 243H554Q564 314 604 547L561 654Q667 727 757 727Q834 727 834 633Q834 611 823 544ZM305 801T305 864Q305 910 332 969Q372 949 415 949Q444
949 471 956T537 979Q572 993 597 1000T649 1008Q713 1008 713 945Q713 899 686 840Q646 860 603 860Q574 860 547 853T481 830Q446 816 421 809T369 801Q305 801 305 864Z" />
<glyph unicode="&#xd2;" glyph-name="Ograve" horiz-adv-x="773" d="M678 622T715 570T753 424Q753 297 700 195T554 34T346 -25Q251 -25 180 14T69 123T30 283Q30 412 83 513T225 669T416 725Q483 725 512 702T541 629Q541 618 539 600Q570 622 611 622Q678 622
715 570ZM443 81T489 108T569 185T612 296Q482 356 482 487Q482 534 509 571Q481 575 469 575Q403 575 353 536T276 429T248 283Q248 185 287 133T394 81Q443 81 489 108ZM553 788T534 794T484 812Q437 831 397 842T303 853Q293 893 293 926Q293 967 310 989T359
1011Q389 1011 419 994T494 942Q538 910 567 892T629 864Q627 828 612 808T573 788Q553 788 534 794Z" />
<glyph unicode="&#xd3;" glyph-name="Oacute" horiz-adv-x="773" d="M678 622T715 570T753 424Q753 297 700 195T554 34T346 -25Q251 -25 180 14T69 123T30 283Q30 412 83 513T225 669T416 725Q483 725 512 702T541 629Q541 618 539 600Q570 622 611 622Q678 622
715 570ZM443 81T489 108T569 185T612 296Q482 356 482 487Q482 534 509 571Q481 575 469 575Q403 575 353 536T276 429T248 283Q248 185 287 133T394 81Q443 81 489 108ZM359 788T344 808T327 864Q359 873 388 891T462 942Q506 976 536 993T597 1011Q629 1011
646 989T663 926Q663 893 653 853Q600 853 560 842T472 812Q442 800 423 794T383 788Q359 788 344 808Z" />
<glyph unicode="&#xd4;" glyph-name="Ocircumflex" horiz-adv-x="773" d="M678 622T715 570T753 424Q753 297 700 195T554 34T346 -25Q251 -25 180 14T69 123T30 283Q30 412 83 513T225 669T416 725Q483 725 512 702T541 629Q541 618 539 600Q570 622 611 622Q678
622 715 570ZM443 81T489 108T569 185T612 296Q482 356 482 487Q482 534 509 571Q481 575 469 575Q403 575 353 536T276 429T248 283Q248 185 287 133T394 81Q443 81 489 108ZM401 1003T441 1013T523 1023Q576 1023 609 1004T643 946V883Q643 840 674 818Q627 799
580 799Q541 799 520 816T499 874Q499 894 504 924T510 961H490Q441 908 441 817Q394 799 345 799Q278 799 278 838Q278 867 309 910T376 986Q401 1003 441 1013Z" />
<glyph unicode="&#xd5;" glyph-name="Otilde" horiz-adv-x="773" d="M678 622T715 570T753 424Q753 297 700 195T554 34T346 -25Q251 -25 180 14T69 123T30 283Q30 412 83 513T225 669T416 725Q483 725 512 702T541 629Q541 618 539 600Q570 622 611 622Q678 622
715 570ZM443 81T489 108T569 185T612 296Q482 356 482 487Q482 534 509 571Q481 575 469 575Q403 575 353 536T276 429T248 283Q248 185 287 133T394 81Q443 81 489 108ZM271 801T271 864Q271 910 298 969Q338 949 381 949Q410 949 437 956T503 979Q538 993 563
1000T615 1008Q679 1008 679 945Q679 899 652 840Q612 860 569 860Q540 860 513 853T447 830Q412 816 387 809T335 801Q271 801 271 864Z" />
<glyph unicode="&#xd6;" glyph-name="Odieresis" horiz-adv-x="773" d="M678 622T715 570T753 424Q753 297 700 195T554 34T346 -25Q251 -25 180 14T69 123T30 283Q30 412 83 513T225 669T416 725Q483 725 512 702T541 629Q541 618 539 600Q570 622 611 622Q678
622 715 570ZM443 81T489 108T569 185T612 296Q482 356 482 487Q482 534 509 571Q481 575 469 575Q403 575 353 536T276 429T248 283Q248 185 287 133T394 81Q443 81 489 108ZM269 790T245 812T220 873Q220 907 237 932T281 969T334 982Q377 982 404 960T431 899Q431
852 395 821T308 790Q269 790 245 812ZM567 790T540 812T513 873Q513 907 532 932T579 969T636 982Q675 982 699 960T724 899Q724 852 690 821T610 790Q567 790 540 812Z" />
<glyph unicode="&#xd7;" glyph-name="multiply" horiz-adv-x="690" d="M563 600T595 576T627 530Q627 502 578 458L468 360L538 281Q559 256 568 243T577 216Q577 193 545 166T471 117L349 255L194 117Q153 133 121 158T89 204Q89 232 138 276L246 372L176 452Q156
476 147 490T138 517Q138 543 170 570T243 616L365 477L522 616Q563 600 595 576Z" />
<glyph unicode="&#xd8;" glyph-name="Oslash" horiz-adv-x="773" d="M753 311T711 217T593 62T420 -18Q409 -62 388 -82T334 -103Q309 -103 281 -95T238 -76L259 -16Q152 9 91 88T30 283Q30 412 83 513T225 669T416 725Q431 725 453 723Q464 769 485 791T540 813Q566
813 594 805T636 786Q601 684 581 619Q596 622 611 622Q678 622 715 570T753 424Q753 311 711 217ZM248 169T300 117Q359 317 418 568Q341 547 295 468T248 283Q248 169 300 117ZM506 107T553 163T612 296Q547 326 514 375Q484 263 444 88Q506 107 553 163Z" />
<glyph unicode="&#xd9;" glyph-name="Ugrave" horiz-adv-x="811" d="M564 -26T534 5T504 95Q504 140 514 171L504 170Q458 79 384 27T225 -25Q64 -25 64 155Q64 193 74 258T123 546L70 653Q139 693 185 709T276 725Q316 725 334 703T353 632Q353 616 343 558T319
434Q281 242 281 209Q281 169 295 150T340 130Q388 130 435 182T514 321Q492 378 492 451Q492 530 520 592T599 690T713 725Q765 725 806 706Q773 581 744 416T714 164Q714 62 744 19Q690 -26 620 -26Q564 -26 534 5ZM557 788T538 794T488 812Q441 831 401 842T307
853Q297 893 297 926Q297 967 314 989T363 1011Q393 1011 423 994T498 942Q542 910 571 892T633 864Q631 828 616 808T577 788Q557 788 538 794Z" />
<glyph unicode="&#xda;" glyph-name="Uacute" horiz-adv-x="811" d="M564 -26T534 5T504 95Q504 140 514 171L504 170Q458 79 384 27T225 -25Q64 -25 64 155Q64 193 74 258T123 546L70 653Q139 693 185 709T276 725Q316 725 334 703T353 632Q353 616 343 558T319
434Q281 242 281 209Q281 169 295 150T340 130Q388 130 435 182T514 321Q492 378 492 451Q492 530 520 592T599 690T713 725Q765 725 806 706Q773 581 744 416T714 164Q714 62 744 19Q690 -26 620 -26Q564 -26 534 5ZM363 788T348 808T331 864Q363 873 392 891T466
942Q510 976 540 993T601 1011Q633 1011 650 989T667 926Q667 893 657 853Q604 853 564 842T476 812Q446 800 427 794T387 788Q363 788 348 808Z" />
<glyph unicode="&#xdb;" glyph-name="Ucircumflex" horiz-adv-x="811" d="M564 -26T534 5T504 95Q504 140 514 171L504 170Q458 79 384 27T225 -25Q64 -25 64 155Q64 193 74 258T123 546L70 653Q139 693 185 709T276 725Q316 725 334 703T353 632Q353 616 343
558T319 434Q281 242 281 209Q281 169 295 150T340 130Q388 130 435 182T514 321Q492 378 492 451Q492 530 520 592T599 690T713 725Q765 725 806 706Q773 581 744 416T714 164Q714 62 744 19Q690 -26 620 -26Q564 -26 534 5ZM405 1003T445 1013T527 1023Q580 1023
613 1004T647 946V883Q647 840 678 818Q631 799 584 799Q545 799 524 816T503 874Q503 894 508 924T514 961H494Q445 908 445 817Q398 799 349 799Q282 799 282 838Q282 867 313 910T380 986Q405 1003 445 1013Z" />
<glyph unicode="&#xdc;" glyph-name="Udieresis" horiz-adv-x="811" d="M564 -26T534 5T504 95Q504 140 514 171L504 170Q458 79 384 27T225 -25Q64 -25 64 155Q64 193 74 258T123 546L70 653Q139 693 185 709T276 725Q316 725 334 703T353 632Q353 616 343 558T319
434Q281 242 281 209Q281 169 295 150T340 130Q388 130 435 182T514 321Q492 378 492 451Q492 530 520 592T599 690T713 725Q765 725 806 706Q773 581 744 416T714 164Q714 62 744 19Q690 -26 620 -26Q564 -26 534 5ZM273 790T249 812T224 873Q224 907 241 932T285
969T338 982Q381 982 408 960T435 899Q435 852 399 821T312 790Q273 790 249 812ZM571 790T544 812T517 873Q517 907 536 932T583 969T640 982Q679 982 703 960T728 899Q728 852 694 821T614 790Q571 790 544 812Z" />
<glyph unicode="&#xdd;" glyph-name="Yacute" horiz-adv-x="841" d="M806 726T806 630Q806 470 719 263T476 -93T121 -242Q27 -242 -21 -209T-70 -113Q-70 -84 -56 -56T-21 -12Q26 -85 130 -85Q168 -85 212 -70T302 -25Q225 -11 189 45T144 173T134 363Q133 451
129 503T111 604T65 681Q122 726 190 726Q257 726 290 685T334 578T344 416V332Q344 224 357 159T411 68Q494 159 544 290T595 587Q595 640 573 681Q602 702 640 714T714 726Q806 726 806 630ZM382 788T367 808T350 864Q382 873 411 891T485 942Q529 976 559 993T620
1011Q652 1011 669 989T686 926Q686 893 676 853Q623 853 583 842T495 812Q465 800 446 794T406 788Q382 788 367 808Z" />
<glyph unicode="&#xde;" glyph-name="Thorn" horiz-adv-x="732" d="M563 630T613 599T690 517T717 406Q717 332 680 265T568 154T383 111Q320 111 276 129Q278 90 284 65T306 19Q249 -26 182 -26Q118 -26 89 6T60 109Q60 153 72 241T123 546L70 653Q183 726 276
726Q353 726 353 632L351 601Q411 630 494 630Q563 630 613 599ZM376 236T413 256T472 312T494 392Q494 438 468 470T393 502Q364 502 332 487L315 396L288 241Q311 236 330 236Q376 236 413 256Z" />
<glyph unicode="&#xdf;" glyph-name="germandbls" horiz-adv-x="735" d="M632 341T678 291T725 176Q725 82 656 29T463 -25Q390 -25 348 -1T305 67Q305 95 319 118T361 156Q373 119 395 99T447 78Q489 78 514 108T539 188Q539 232 512 274T441 340Q481 363 508
412T535 512Q535 556 515 582T461 608Q364 608 337 442Q289 180 273 78T257 -70Q257 -135 288 -161Q228 -210 165 -210Q110 -210 80 -182T50 -102Q50 -60 110 300Q54 301 34 314T14 363Q14 406 35 443Q80 429 132 427Q189 725 463 725Q573 725 637 678T701 550Q701
492 664 441T559 357Q632 341 678 291Z" />
<glyph unicode="&#xe0;" glyph-name="agrave" horiz-adv-x="746" d="M638 50T669 24Q608 -25 540 -25Q489 -25 462 4T434 87Q434 104 437 123L427 128Q399 56 346 16T227 -25Q171 -25 129 4T63 86T40 210Q40 325 90 413T231 551T439 600Q481 600 518 592Q526 573
529 541Q570 575 628 575Q663 575 682 555T701 496Q701 476 694 438T677 358Q658 277 648 221T638 115Q638 50 669 24ZM390 147T434 234T497 507Q425 500 366 464T273 371T238 249Q238 200 258 174T316 147Q390 147 434 234ZM516 653T497 659T447 677Q400 696 360
707T266 718Q256 758 256 791Q256 832 273 854T322 876Q352 876 382 859T457 807Q501 775 530 757T592 729Q590 693 575 673T536 653Q516 653 497 659Z" />
<glyph unicode="&#xe1;" glyph-name="aacute" horiz-adv-x="746" d="M638 50T669 24Q608 -25 540 -25Q489 -25 462 4T434 87Q434 104 437 123L427 128Q399 56 346 16T227 -25Q171 -25 129 4T63 86T40 210Q40 325 90 413T231 551T439 600Q481 600 518 592Q526 573
529 541Q570 575 628 575Q663 575 682 555T701 496Q701 476 694 438T677 358Q658 277 648 221T638 115Q638 50 669 24ZM390 147T434 234T497 507Q425 500 366 464T273 371T238 249Q238 200 258 174T316 147Q390 147 434 234ZM322 653T307 673T290 729Q322 738 351
756T425 807Q469 841 499 858T560 876Q592 876 609 854T626 791Q626 758 616 718Q563 718 523 707T435 677Q405 665 386 659T346 653Q322 653 307 673Z" />
<glyph unicode="&#xe2;" glyph-name="acircumflex" horiz-adv-x="746" d="M638 50T669 24Q608 -25 540 -25Q489 -25 462 4T434 87Q434 104 437 123L427 128Q399 56 346 16T227 -25Q171 -25 129 4T63 86T40 210Q40 325 90 413T231 551T439 600Q481 600 518 592Q526
573 529 541Q570 575 628 575Q663 575 682 555T701 496Q701 476 694 438T677 358Q658 277 648 221T638 115Q638 50 669 24ZM390 147T434 234T497 507Q425 500 366 464T273 371T238 249Q238 200 258 174T316 147Q390 147 434 234ZM364 868T404 878T486 888Q539 888
572 869T606 811V748Q606 705 637 683Q590 664 543 664Q504 664 483 681T462 739Q462 759 467 789T473 826H453Q404 773 404 682Q357 664 308 664Q241 664 241 703Q241 732 272 775T339 851Q364 868 404 878Z" />
<glyph unicode="&#xe3;" glyph-name="atilde" horiz-adv-x="746" d="M638 50T669 24Q608 -25 540 -25Q489 -25 462 4T434 87Q434 104 437 123L427 128Q399 56 346 16T227 -25Q171 -25 129 4T63 86T40 210Q40 325 90 413T231 551T439 600Q481 600 518 592Q526 573
529 541Q570 575 628 575Q663 575 682 555T701 496Q701 476 694 438T677 358Q658 277 648 221T638 115Q638 50 669 24ZM390 147T434 234T497 507Q425 500 366 464T273 371T238 249Q238 200 258 174T316 147Q390 147 434 234ZM234 666T234 729Q234 775 261 834Q301
814 344 814Q373 814 400 821T466 844Q501 858 526 865T578 873Q642 873 642 810Q642 764 615 705Q575 725 532 725Q503 725 476 718T410 695Q375 681 350 674T298 666Q234 666 234 729Z" />
<glyph unicode="&#xe4;" glyph-name="adieresis" horiz-adv-x="746" d="M638 50T669 24Q608 -25 540 -25Q489 -25 462 4T434 87Q434 104 437 123L427 128Q399 56 346 16T227 -25Q171 -25 129 4T63 86T40 210Q40 325 90 413T231 551T439 600Q481 600 518 592Q526
573 529 541Q570 575 628 575Q663 575 682 555T701 496Q701 476 694 438T677 358Q658 277 648 221T638 115Q638 50 669 24ZM390 147T434 234T497 507Q425 500 366 464T273 371T238 249Q238 200 258 174T316 147Q390 147 434 234ZM232 655T208 677T183 738Q183 772
200 797T244 834T297 847Q340 847 367 825T394 764Q394 717 358 686T271 655Q232 655 208 677ZM530 655T503 677T476 738Q476 772 495 797T542 834T599 847Q638 847 662 825T687 764Q687 717 653 686T573 655Q530 655 503 677Z" />
<glyph unicode="&#xe5;" glyph-name="aring" horiz-adv-x="746" d="M638 50T669 24Q608 -25 540 -25Q489 -25 462 4T434 87Q434 104 437 123L427 128Q399 56 346 16T227 -25Q171 -25 129 4T63 86T40 210Q40 325 90 413T231 551T439 600Q481 600 518 592Q526 573
529 541Q570 575 628 575Q663 575 682 555T701 496Q701 476 694 438T677 358Q658 277 648 221T638 115Q638 50 669 24ZM390 147T434 234T497 507Q425 500 366 464T273 371T238 249Q238 200 258 174T316 147Q390 147 434 234ZM358 635T316 670T274 768Q274 845 325
892T460 940Q533 940 575 905T617 807Q617 730 566 683T431 635Q358 635 316 670ZM466 710T483 737T500 808Q500 867 456 867Q446 867 437 866T422 863Q408 846 401 822T393 772Q393 744 405 727T438 709Q466 710 483 737Z" />
<glyph unicode="&#xe6;" glyph-name="ae" horiz-adv-x="1048" d="M1017 386T970 336T836 259T628 232V223Q628 155 651 117T717 78Q768 78 801 115T836 214Q896 214 927 192T959 128Q959 86 924 51T829 -4T695 -25Q599 -25 535 14T445 128H435Q405 56 350 16T226
-25Q170 -25 128 4T62 86T39 210Q39 317 89 400T230 529T438 575Q480 575 517 567Q529 534 529 484Q450 484 383 453T277 367T237 249Q237 200 257 174T315 147Q345 147 375 166T430 221V225Q430 332 481 417T622 551T824 600Q916 600 966 562T1017 455Q1017 386
970 336ZM741 483T699 433T638 307Q737 315 790 348T844 434Q844 456 829 469T790 483Q741 483 699 433Z" />
<glyph unicode="&#xe7;" glyph-name="ccedilla" horiz-adv-x="638" d="M192 -25T119 44T45 235Q45 340 94 423T230 553T429 600Q515 600 566 568T617 483Q617 440 588 413T513 385Q470 385 435 409T379 477Q341 463 310 427T261 339T243 233Q243 160 268 119T338
78Q372 78 402 98T450 152T469 227Q529 227 560 205T592 141Q592 95 556 57T459 -3T323 -25Q192 -25 119 44ZM189 -301T151 -278T112 -217Q112 -179 151 -153T245 -126Q205 -144 205 -191Q205 -211 217 -222T250 -234Q282 -234 301 -217T320 -169Q320 -133 301
-103T244 -53Q330 -53 382 -84T434 -168Q434 -204 410 -234T345 -283T254 -301Q189 -301 151 -278Z" />
<glyph unicode="&#xe8;" glyph-name="egrave" horiz-adv-x="661" d="M630 386T583 336T449 259T241 232V223Q241 155 264 117T330 78Q381 78 414 115T449 214Q509 214 540 192T572 128Q572 86 537 51T442 -4T308 -25Q183 -25 113 41T43 225Q43 332 94 417T235
551T437 600Q529 600 579 562T630 455Q630 386 583 336ZM354 483T312 433T251 307Q350 315 403 348T457 434Q457 456 442 469T403 483Q354 483 312 433ZM512 653T493 659T443 677Q396 696 356 707T262 718Q252 758 252 791Q252 832 269 854T318 876Q348 876 378
859T453 807Q497 775 526 757T588 729Q586 693 571 673T532 653Q512 653 493 659Z" />
<glyph unicode="&#xe9;" glyph-name="eacute" horiz-adv-x="661" d="M630 386T583 336T449 259T241 232V223Q241 155 264 117T330 78Q381 78 414 115T449 214Q509 214 540 192T572 128Q572 86 537 51T442 -4T308 -25Q183 -25 113 41T43 225Q43 332 94 417T235
551T437 600Q529 600 579 562T630 455Q630 386 583 336ZM354 483T312 433T251 307Q350 315 403 348T457 434Q457 456 442 469T403 483Q354 483 312 433ZM318 653T303 673T286 729Q318 738 347 756T421 807Q465 841 495 858T556 876Q588 876 605 854T622 791Q622
758 612 718Q559 718 519 707T431 677Q401 665 382 659T342 653Q318 653 303 673Z" />
<glyph unicode="&#xea;" glyph-name="ecircumflex" horiz-adv-x="661" d="M630 386T583 336T449 259T241 232V223Q241 155 264 117T330 78Q381 78 414 115T449 214Q509 214 540 192T572 128Q572 86 537 51T442 -4T308 -25Q183 -25 113 41T43 225Q43 332 94 417T235
551T437 600Q529 600 579 562T630 455Q630 386 583 336ZM354 483T312 433T251 307Q350 315 403 348T457 434Q457 456 442 469T403 483Q354 483 312 433ZM360 868T400 878T482 888Q535 888 568 869T602 811V748Q602 705 633 683Q586 664 539 664Q500 664 479 681T458
739Q458 759 463 789T469 826H449Q400 773 400 682Q353 664 304 664Q237 664 237 703Q237 732 268 775T335 851Q360 868 400 878Z" />
<glyph unicode="&#xeb;" glyph-name="edieresis" horiz-adv-x="661" d="M630 386T583 336T449 259T241 232V223Q241 155 264 117T330 78Q381 78 414 115T449 214Q509 214 540 192T572 128Q572 86 537 51T442 -4T308 -25Q183 -25 113 41T43 225Q43 332 94 417T235
551T437 600Q529 600 579 562T630 455Q630 386 583 336ZM354 483T312 433T251 307Q350 315 403 348T457 434Q457 456 442 469T403 483Q354 483 312 433ZM228 655T204 677T179 738Q179 772 196 797T240 834T293 847Q336 847 363 825T390 764Q390 717 354 686T267
655Q228 655 204 677ZM526 655T499 677T472 738Q472 772 491 797T538 834T595 847Q634 847 658 825T683 764Q683 717 649 686T569 655Q526 655 499 677Z" />
<glyph unicode="&#xec;" glyph-name="igrave" horiz-adv-x="388" d="M121 -25T93 6T65 99Q65 164 129 441L73 525Q121 559 172 579T270 600Q311 600 328 583T345 526Q345 513 338 479T321 403Q298 308 285 238T271 115Q271 51 302 24Q246 -25 183 -25Q121 -25
93 6ZM337 653T318 659T268 677Q221 696 181 707T87 718Q77 758 77 791Q77 832 94 854T143 876Q173 876 203 859T278 807Q322 775 351 757T413 729Q411 693 396 673T357 653Q337 653 318 659Z" />
<glyph unicode="&#xed;" glyph-name="iacute" horiz-adv-x="388" d="M121 -25T93 6T65 99Q65 164 129 441L73 525Q121 559 172 579T270 600Q311 600 328 583T345 526Q345 513 338 479T321 403Q298 308 285 238T271 115Q271 51 302 24Q246 -25 183 -25Q121 -25
93 6ZM143 653T128 673T111 729Q143 738 172 756T246 807Q290 841 320 858T381 876Q413 876 430 854T447 791Q447 758 437 718Q384 718 344 707T256 677Q226 665 207 659T167 653Q143 653 128 673Z" />
<glyph unicode="&#xee;" glyph-name="icircumflex" horiz-adv-x="388" d="M121 -25T93 6T65 99Q65 164 129 441L73 525Q121 559 172 579T270 600Q311 600 328 583T345 526Q345 513 338 479T321 403Q298 308 285 238T271 115Q271 51 302 24Q246 -25 183 -25Q121
-25 93 6ZM185 868T225 878T307 888Q360 888 393 869T427 811V748Q427 705 458 683Q411 664 364 664Q325 664 304 681T283 739Q283 759 288 789T294 826H274Q225 773 225 682Q178 664 129 664Q62 664 62 703Q62 732 93 775T160 851Q185 868 225 878Z" />
<glyph unicode="&#xef;" glyph-name="idieresis" horiz-adv-x="388" d="M121 -25T93 6T65 99Q65 164 129 441L73 525Q121 559 172 579T270 600Q311 600 328 583T345 526Q345 513 338 479T321 403Q298 308 285 238T271 115Q271 51 302 24Q246 -25 183 -25Q121 -25
93 6ZM53 655T29 677T4 738Q4 772 21 797T65 834T118 847Q161 847 188 825T215 764Q215 717 179 686T92 655Q53 655 29 677ZM351 655T324 677T297 738Q297 772 316 797T363 834T420 847Q459 847 483 825T508 764Q508 717 474 686T394 655Q351 655 324 677Z" />
<glyph unicode="&#xf0;" glyph-name="eth" horiz-adv-x="718" d="M702 736T702 724Q702 703 682 688T613 654L583 644Q629 577 654 498T680 337Q680 231 637 149T514 21T333 -25Q246 -25 181 8T81 102T46 245Q46 343 90 421T215 546T397 599Q349 650 289 678T163
706Q163 762 197 794T291 827Q342 827 392 807T488 749Q515 754 553 767Q609 789 649 819Q682 790 696 751Q702 736 702 724ZM403 78T439 105T496 181T517 291Q517 406 464 506Q399 497 350 460T272 365T244 236Q244 158 272 118T357 78Q403 78 439 105Z" />
<glyph unicode="&#xf1;" glyph-name="ntilde" horiz-adv-x="758" d="M111 -25T83 6T55 99Q55 139 75 254T118 464L66 544Q165 600 251 600Q292 600 312 580T333 524Q333 499 327 472T310 422L320 417Q427 600 592 600Q653 600 683 571T713 479Q713 445 706 408T685
309Q669 242 662 200T654 115Q654 53 675 24Q622 -25 565 -25Q504 -25 476 6T448 99Q448 140 457 183T483 281Q496 327 502 353T508 401Q508 443 474 443Q436 443 385 400T298 281T261 115Q261 53 282 24Q229 -25 172 -25Q111 -25 83 6ZM270 666T270 729Q270 775
297 834Q337 814 380 814Q409 814 436 821T502 844Q537 858 562 865T614 873Q678 873 678 810Q678 764 651 705Q611 725 568 725Q539 725 512 718T446 695Q411 681 386 674T334 666Q270 666 270 729Z" />
<glyph unicode="&#xf2;" glyph-name="ograve" horiz-adv-x="719" d="M606 524T642 478T679 357Q679 252 631 165T501 26T319 -25Q236 -25 174 7T79 99T45 238Q45 343 94 425T229 553T425 600Q459 600 496 592Q506 557 505 516Q527 524 548 524Q606 524 642 478ZM409
78T447 124T496 251Q420 293 420 379Q420 422 439 456T490 509Q416 505 360 468T274 370T243 236Q243 154 271 116T351 78Q409 78 447 124ZM493 653T474 659T424 677Q377 696 337 707T243 718Q233 758 233 791Q233 832 250 854T299 876Q329 876 359 859T434 807Q478
775 507 757T569 729Q567 693 552 673T513 653Q493 653 474 659Z" />
<glyph unicode="&#xf3;" glyph-name="oacute" horiz-adv-x="719" d="M606 524T642 478T679 357Q679 252 631 165T501 26T319 -25Q236 -25 174 7T79 99T45 238Q45 343 94 425T229 553T425 600Q459 600 496 592Q506 557 505 516Q527 524 548 524Q606 524 642 478ZM409
78T447 124T496 251Q420 293 420 379Q420 422 439 456T490 509Q416 505 360 468T274 370T243 236Q243 154 271 116T351 78Q409 78 447 124ZM299 653T284 673T267 729Q299 738 328 756T402 807Q446 841 476 858T537 876Q569 876 586 854T603 791Q603 758 593 718Q540
718 500 707T412 677Q382 665 363 659T323 653Q299 653 284 673Z" />
<glyph unicode="&#xf4;" glyph-name="ocircumflex" horiz-adv-x="719" d="M606 524T642 478T679 357Q679 252 631 165T501 26T319 -25Q236 -25 174 7T79 99T45 238Q45 343 94 425T229 553T425 600Q459 600 496 592Q506 557 505 516Q527 524 548 524Q606 524 642
478ZM409 78T447 124T496 251Q420 293 420 379Q420 422 439 456T490 509Q416 505 360 468T274 370T243 236Q243 154 271 116T351 78Q409 78 447 124ZM341 868T381 878T463 888Q516 888 549 869T583 811V748Q583 705 614 683Q567 664 520 664Q481 664 460 681T439
739Q439 759 444 789T450 826H430Q381 773 381 682Q334 664 285 664Q218 664 218 703Q218 732 249 775T316 851Q341 868 381 878Z" />
<glyph unicode="&#xf5;" glyph-name="otilde" horiz-adv-x="719" d="M606 524T642 478T679 357Q679 252 631 165T501 26T319 -25Q236 -25 174 7T79 99T45 238Q45 343 94 425T229 553T425 600Q459 600 496 592Q506 557 505 516Q527 524 548 524Q606 524 642 478ZM409
78T447 124T496 251Q420 293 420 379Q420 422 439 456T490 509Q416 505 360 468T274 370T243 236Q243 154 271 116T351 78Q409 78 447 124ZM211 666T211 729Q211 775 238 834Q278 814 321 814Q350 814 377 821T443 844Q478 858 503 865T555 873Q619 873 619 810Q619
764 592 705Q552 725 509 725Q480 725 453 718T387 695Q352 681 327 674T275 666Q211 666 211 729Z" />
<glyph unicode="&#xf6;" glyph-name="odieresis" horiz-adv-x="719" d="M606 524T642 478T679 357Q679 252 631 165T501 26T319 -25Q236 -25 174 7T79 99T45 238Q45 343 94 425T229 553T425 600Q459 600 496 592Q506 557 505 516Q527 524 548 524Q606 524 642
478ZM409 78T447 124T496 251Q420 293 420 379Q420 422 439 456T490 509Q416 505 360 468T274 370T243 236Q243 154 271 116T351 78Q409 78 447 124ZM209 655T185 677T160 738Q160 772 177 797T221 834T274 847Q317 847 344 825T371 764Q371 717 335 686T248 655Q209
655 185 677ZM507 655T480 677T453 738Q453 772 472 797T519 834T576 847Q615 847 639 825T664 764Q664 717 630 686T550 655Q507 655 480 677Z" />
<glyph unicode="&#xf7;" glyph-name="divide" horiz-adv-x="730" d="M151 291T132 302T112 346Q112 391 140 454H553Q606 454 625 443T645 399Q645 355 617 291H203Q151 291 132 302ZM358 535T328 565T297 640Q297 673 314 702T360 749T423 767Q469 767 499 737T530
662Q530 629 513 600T467 553T404 535Q358 535 328 565ZM270 -23T240 7T209 82Q209 115 226 144T272 191T335 209Q381 209 411 179T442 104Q442 71 425 42T379 -5T316 -23Q270 -23 240 7Z" />
<glyph unicode="&#xf8;" glyph-name="oslash" horiz-adv-x="719" d="M679 258T636 174T519 38T353 -23Q343 -51 328 -64T288 -78Q268 -78 246 -72T211 -56L226 -13Q141 11 93 77T45 238Q45 337 88 416T209 542T387 598Q405 655 453 655Q473 655 495 649T529 633L503
556Q505 544 505 516Q527 524 548 524Q606 524 642 478T679 357Q679 258 636 174ZM488 509V508L490 509H488ZM243 161T268 122Q306 253 356 465Q302 429 273 369T243 236Q243 161 268 122ZM425 91T456 135T496 251Q452 275 434 313Q410 220 377 81Q425 91 456 135Z"
/>
<glyph unicode="&#xf9;" glyph-name="ugrave" horiz-adv-x="764" d="M650 50T681 24Q624 -25 562 -25Q508 -25 480 -1T445 73L435 78Q394 29 339 2T218 -25Q138 -25 99 15T60 137Q60 174 66 215T84 315Q92 355 98 394T104 460Q104 489 99 513T83 551Q124 572 168
586T240 600Q281 600 299 584T318 529Q318 505 308 452T287 345Q276 293 267 243T257 172Q257 133 273 115T324 97Q357 97 391 117T452 173Q466 260 508 441L452 525Q521 566 565 583T649 600Q689 600 706 583T724 526Q724 513 717 479T700 403Q677 308 664 238T650
115Q650 50 681 24ZM525 653T506 659T456 677Q409 696 369 707T275 718Q265 758 265 791Q265 832 282 854T331 876Q361 876 391 859T466 807Q510 775 539 757T601 729Q599 693 584 673T545 653Q525 653 506 659Z" />
<glyph unicode="&#xfa;" glyph-name="uacute" horiz-adv-x="764" d="M650 50T681 24Q624 -25 562 -25Q508 -25 480 -1T445 73L435 78Q394 29 339 2T218 -25Q138 -25 99 15T60 137Q60 174 66 215T84 315Q92 355 98 394T104 460Q104 489 99 513T83 551Q124 572 168
586T240 600Q281 600 299 584T318 529Q318 505 308 452T287 345Q276 293 267 243T257 172Q257 133 273 115T324 97Q357 97 391 117T452 173Q466 260 508 441L452 525Q521 566 565 583T649 600Q689 600 706 583T724 526Q724 513 717 479T700 403Q677 308 664 238T650
115Q650 50 681 24ZM331 653T316 673T299 729Q331 738 360 756T434 807Q478 841 508 858T569 876Q601 876 618 854T635 791Q635 758 625 718Q572 718 532 707T444 677Q414 665 395 659T355 653Q331 653 316 673Z" />
<glyph unicode="&#xfb;" glyph-name="ucircumflex" horiz-adv-x="764" d="M650 50T681 24Q624 -25 562 -25Q508 -25 480 -1T445 73L435 78Q394 29 339 2T218 -25Q138 -25 99 15T60 137Q60 174 66 215T84 315Q92 355 98 394T104 460Q104 489 99 513T83 551Q124
572 168 586T240 600Q281 600 299 584T318 529Q318 505 308 452T287 345Q276 293 267 243T257 172Q257 133 273 115T324 97Q357 97 391 117T452 173Q466 260 508 441L452 525Q521 566 565 583T649 600Q689 600 706 583T724 526Q724 513 717 479T700 403Q677 308
664 238T650 115Q650 50 681 24ZM373 868T413 878T495 888Q548 888 581 869T615 811V748Q615 705 646 683Q599 664 552 664Q513 664 492 681T471 739Q471 759 476 789T482 826H462Q413 773 413 682Q366 664 317 664Q250 664 250 703Q250 732 281 775T348 851Q373
868 413 878Z" />
<glyph unicode="&#xfc;" glyph-name="udieresis" horiz-adv-x="764" d="M650 50T681 24Q624 -25 562 -25Q508 -25 480 -1T445 73L435 78Q394 29 339 2T218 -25Q138 -25 99 15T60 137Q60 174 66 215T84 315Q92 355 98 394T104 460Q104 489 99 513T83 551Q124 572
168 586T240 600Q281 600 299 584T318 529Q318 505 308 452T287 345Q276 293 267 243T257 172Q257 133 273 115T324 97Q357 97 391 117T452 173Q466 260 508 441L452 525Q521 566 565 583T649 600Q689 600 706 583T724 526Q724 513 717 479T700 403Q677 308 664
238T650 115Q650 50 681 24ZM241 655T217 677T192 738Q192 772 209 797T253 834T306 847Q349 847 376 825T403 764Q403 717 367 686T280 655Q241 655 217 677ZM539 655T512 677T485 738Q485 772 504 797T551 834T608 847Q647 847 671 825T696 764Q696 717 662 686T582
655Q539 655 512 677Z" />
<glyph unicode="&#xfd;" glyph-name="yacute" horiz-adv-x="714" d="M689 600T689 512Q689 393 615 222T409 -74T110 -200Q25 -200 -19 -170T-64 -83Q-64 -55 -49 -28T-15 13Q2 -15 33 -33T112 -51Q166 -51 224 -18Q166 -3 139 43T105 148T98 298Q97 370 95 413T80
495T42 557Q95 600 161 600Q219 600 248 567T287 482T297 354L296 250Q296 182 304 139T336 73Q403 149 444 258T486 499Q486 527 481 557Q501 576 532 588T592 600Q689 600 689 512ZM301 653T286 673T269 729Q301 738 330 756T404 807Q448 841 478 858T539 876Q571
876 588 854T605 791Q605 758 595 718Q542 718 502 707T414 677Q384 665 365 659T325 653Q301 653 286 673Z" />
<glyph unicode="&#xfe;" glyph-name="thorn" horiz-adv-x="765" d="M595 600T637 571T703 489T726 365Q726 258 676 175T535 46T327 0Q286 0 249 8Q248 -9 248 -43Q248 -89 255 -110T279 -151Q252 -175 219 -187T155 -200Q95 -200 69 -165T42 -56Q42 -13 66 135T133
531L149 622L93 702Q138 735 187 755T280 775Q327 775 346 759T365 704Q365 650 356 591T328 452L340 447Q369 519 421 559T539 600Q595 600 637 571ZM334 95T396 126T493 210T528 326Q528 375 508 401T450 428Q413 428 376 388T308 276T260 114V126Q258 113 256
91Q334 95 396 126Z" />
<glyph unicode="&#xff;" glyph-name="ydieresis" horiz-adv-x="714" d="M689 600T689 512Q689 393 615 222T409 -74T110 -200Q25 -200 -19 -170T-64 -83Q-64 -55 -49 -28T-15 13Q2 -15 33 -33T112 -51Q166 -51 224 -18Q166 -3 139 43T105 148T98 298Q97 370 95
413T80 495T42 557Q95 600 161 600Q219 600 248 567T287 482T297 354L296 250Q296 182 304 139T336 73Q403 149 444 258T486 499Q486 527 481 557Q501 576 532 588T592 600Q689 600 689 512ZM211 655T187 677T162 738Q162 772 179 797T223 834T276 847Q319 847
346 825T373 764Q373 717 337 686T250 655Q211 655 187 677ZM509 655T482 677T455 738Q455 772 474 797T521 834T578 847Q617 847 641 825T666 764Q666 717 632 686T552 655Q509 655 482 677Z" />
<glyph unicode="&#x2013;" glyph-name="endash" horiz-adv-x="679" d="M95 183T72 189T38 212T28 258Q28 310 56 386Q125 363 195 363Q237 363 274 367T378 382Q482 399 540 399Q584 399 608 393T642 370T652 324Q652 272 624 196Q553 219 485 219Q443 219 406
215T302 200Q293 199 258 194T194 186T139 183Q95 183 72 189Z" />
<glyph unicode="&#x2014;" glyph-name="emdash" horiz-adv-x="891" d="M104 183T78 191T41 217T30 269Q30 325 56 386Q93 375 142 369T241 363Q297 363 352 367T492 381Q575 390 630 394T741 399Q789 399 815 391T851 365T862 313Q862 254 836 196Q802 207 753
213T652 219Q596 219 541 215T401 201Q318 192 263 188T152 183Q104 183 78 191Z" />
<glyph unicode="&#x2018;" glyph-name="quoteleft" horiz-adv-x="318" d="M328 742Q281 720 252 676T222 592L292 502Q291 470 273 443T226 399T163 382Q114 382 85 416T56 497Q56 565 87 625T177 727T313 786L328 742Z" />
<glyph unicode="&#x2019;" glyph-name="quoteright" horiz-adv-x="348" d="M74 426Q121 448 150 492T180 576L110 666Q111 698 129 725T176 769T239 786Q288 786 317 752T346 671Q346 603 315 543T225 441T89 382L74 426Z" />
<glyph unicode="&#x201a;" glyph-name="quotesinglbase" horiz-adv-x="332" d="M12 -152Q59 -130 88 -86T118 -2L48 88Q49 120 67 147T114 191T177 208Q226 208 255 174T284 93Q284 25 253 -35T163 -137T27 -196L12 -152Z" />
<glyph unicode="&#x201c;" glyph-name="quotedblleft" horiz-adv-x="614" d="M328 742Q281 720 252 676T222 592L292 502Q291 470 273 443T226 399T163 382Q114 382 85 416T56 497Q56 565 87 625T177 727T313 786L328 742ZM624 742Q577 720 548 676T518 592L588
502Q587 470 569 443T522 399T459 382Q410 382 381 416T352 497Q352 565 383 625T473 727T609 786L624 742Z" />
<glyph unicode="&#x201d;" glyph-name="quotedblright" horiz-adv-x="644" d="M74 426Q121 448 150 492T180 576L110 666Q111 698 129 725T176 769T239 786Q288 786 317 752T346 671Q346 603 315 543T225 441T89 382L74 426ZM370 426Q417 448 446 492T476 576L406
666Q407 698 425 725T472 769T535 786Q584 786 613 752T642 671Q642 603 611 543T521 441T385 382L370 426Z" />
<glyph unicode="&#x201e;" glyph-name="quotedblbase" horiz-adv-x="628" d="M12 -152Q59 -130 88 -86T118 -2L48 88Q49 120 67 147T114 191T177 208Q226 208 255 174T284 93Q284 25 253 -35T163 -137T27 -196L12 -152ZM308 -152Q355 -130 384 -86T414 -2L344
88Q345 120 363 147T410 191T473 208Q522 208 551 174T580 93Q580 25 549 -35T459 -137T323 -196L308 -152Z" />
<glyph unicode="&#x2022;" glyph-name="bullet" horiz-adv-x="388" d="M103 175T67 211T30 301Q30 341 50 376T105 432T181 453Q236 453 273 417T310 327Q310 287 290 252T234 196T158 175Q103 175 67 211Z" />
<glyph unicode="&#x2039;" glyph-name="guilsinglleft" horiz-adv-x="382" d="M313 549T336 527T360 472Q360 438 335 413T254 352Q211 324 180 300Q228 249 251 223T288 168T302 111Q302 91 289 71T252 38T195 25Q31 229 31 288Q31 332 90 393T266 549Q313 549 336 527Z" />
<glyph unicode="&#x203a;" glyph-name="guilsinglright" horiz-adv-x="382" d="M69 25T46 47T22 102Q22 136 47 161T128 222Q171 250 202 274Q154 325 131 351T94 406T80 463Q80 483 93 503T130 536T187 549Q351 345 351 286Q351 242 292 181T116 25Q69 25 46 47Z" />
</font>
</defs>
</svg>
