<?xml version="1.0" standalone="no"?>
<!DOCTYPE svg PUBLIC "-//W3C//DTD SVG 1.1//EN" "http://www.w3.org/Graphics/SVG/1.1/DTD/svg11.dtd">
<svg xmlns="http://www.w3.org/2000/svg">
<defs >
<font id="Saira" horiz-adv-x="567" ><font-face
    font-family="Saira Thin"
    units-per-em="1000"
    panose-1="0 0 3 0 0 0 0 0 0 0"
    ascent="1135"
    descent="-439"
    alphabetic="0" />
<glyph unicode=" " glyph-name="space" horiz-adv-x="224" />
<glyph unicode="!" glyph-name="exclam" horiz-adv-x="198" d="M80 416T80 541V688H118V541Q118 416 113 173H85Q80 416 80 541ZM75 0V65H123V0H75Z" />
<glyph unicode="&quot;" glyph-name="quotedbl" horiz-adv-x="270" d="M73 454L65 599V688H104V599L96 454H73ZM174 454L166 599V688H205V599L197 454H174Z" />
<glyph unicode="#" glyph-name="numbersign" horiz-adv-x="833" d="M369 0L415 202H214L168 0H134L180 202H77V236H188L236 442H114V476H244L293 688H327L278 476H479L528 688H562L513 476H623V442H505L457 236H586V202H449L403 0H369ZM471 442H270L222 236H423L471 442Z" />
<glyph unicode="$" glyph-name="dollar" horiz-adv-x="537" d="M457 156T440 125T388 82T288 68V-8H254V68Q158 71 96 79V113Q144 106 175 104T254 101V332L192 338Q147 343 123 355T90 394T80 468Q80 531 99 563T155 606T254 619V696H288V619Q364 617 429 607V573Q368
582 288 586V364L355 358Q398 354 419 342T449 301T457 215Q457 156 440 125ZM254 367V586Q205 586 177 580T133 549T116 475Q116 432 122 412T144 384T192 373L254 367ZM344 101T372 111T410 145T421 215Q421 263 414 285T393 313T349 323L288 329V101Q344 101
372 111Z" />
<glyph unicode="%" glyph-name="percent" horiz-adv-x="795" d="M132 311T105 325T69 377T60 503Q60 591 68 629T104 681T196 696Q260 696 287 682T323 629T331 503Q331 415 323 378T288 326T196 311Q132 311 105 325ZM152 0L601 688H643L194 0H152ZM246 345T264
352T289 391T296 503Q296 588 291 617T268 654T196 662Q146 662 128 654T103 616T96 503Q96 422 102 391T127 353T196 345Q246 345 264 352ZM536 -8T509 6T473 58T464 184Q464 272 472 310T508 362T600 377Q664 377 691 363T727 310T735 184Q735 96 727 59T692
7T600 -8Q536 -8 509 6ZM650 26T668 33T693 72T700 184Q700 269 695 298T672 335T600 343Q550 343 532 335T507 297T500 184Q500 103 506 72T531 34T600 26Q650 26 668 33Z" />
<glyph unicode="&amp;" glyph-name="ampersand" horiz-adv-x="734" d="M689 366V332H567V8Q559 7 530 3T456 -4T363 -8Q242 -8 180 13T98 75T77 184Q77 239 91 271T131 321T202 349V353Q140 368 112 405T83 515Q83 577 105 615T187 675T362 696Q407 696 464 692T563
680V648Q518 655 467 659T383 664Q268 664 212 649T137 603T118 513Q118 473 128 442T176 389T289 366H404V332H289Q212 332 174 314T124 263T112 177Q112 112 139 79T218 35T363 24Q466 24 532 35V366H689Z" />
<glyph unicode="&apos;" glyph-name="quotesingle" horiz-adv-x="169" d="M73 454L65 599V688H104V599L96 454H73Z" />
<glyph unicode="(" glyph-name="parenleft" horiz-adv-x="279" d="M169 -79T142 -30T103 93T90 297Q90 427 102 500T142 623T226 743H259Q203 670 179 626T140 506T125 297Q125 164 139 88T179 -33T259 -150H226Q169 -79 142 -30Z" />
<glyph unicode=")" glyph-name="parenright" horiz-adv-x="279" d="M75 -78T100 -34T139 87T154 297Q154 430 140 506T101 626T20 743H53Q110 672 137 623T176 501T189 297Q189 167 177 94T137 -29T53 -150H20Q75 -78 100 -34Z" />
<glyph unicode="*" glyph-name="asterisk" horiz-adv-x="438" d="M233 480L238 321H200L205 480L70 396L51 429L191 504L51 580L70 613L205 528L200 688H238L232 528L368 613L387 580L247 504L387 429L368 396L233 480Z" />
<glyph unicode="+" glyph-name="plus" horiz-adv-x="540" d="M253 53V237H70V269H253V453H285V269H470V237H285V53H253Z" />
<glyph unicode="," glyph-name="comma" horiz-adv-x="176" d="M57 -80T67 -75T80 -57T84 -17V0H64V65H112V-10Q112 -47 106 -66T83 -93T34 -101V-80Q57 -80 67 -75Z" />
<glyph unicode="-" glyph-name="hyphen" horiz-adv-x="355" d="M65 268V304H290V268H65Z" />
<glyph unicode="." glyph-name="period" horiz-adv-x="176" d="M64 0V65H112V0H64Z" />
<glyph unicode="/" glyph-name="slash" horiz-adv-x="328" d="M0 -55L290 743H328L37 -55H0Z" />
<glyph unicode="0" glyph-name="zero" horiz-adv-x="676" d="M212 -8T163 15T102 103T90 344Q90 519 102 584T163 673T338 696Q464 696 513 673T574 585T586 344Q586 169 574 104T513 15T338 -8Q212 -8 163 15ZM450 26T489 41T539 116T550 344Q550 513 539 572T489
646T338 662Q226 662 187 647T137 572T126 344Q126 175 137 116T187 42T338 26Q450 26 489 41Z" />
<glyph unicode="1" glyph-name="one" horiz-adv-x="365" d="M199 0V642L50 563V600L206 688H235V0H199Z" />
<glyph unicode="2" glyph-name="two" horiz-adv-x="608" d="M116 34H528V0H80V71Q80 157 85 191T113 247T194 295L400 385Q438 402 457 419T484 460T492 523Q492 583 476 612T421 651T302 662Q213 662 94 651V683Q133 689 194 692T310 696Q384 696 428 686T500
641T528 532Q528 476 517 444T479 390T402 347L169 245Q129 227 122 196Q118 177 117 153T116 100V34Z" />
<glyph unicode="3" glyph-name="three" horiz-adv-x="596" d="M216 -8T161 -4T65 6V38Q182 26 259 26Q334 26 379 37T450 80T475 177Q475 260 440 296T322 332H184V366H322Q383 366 425 398T467 513Q467 577 444 609T376 651T249 662Q163 662 69 650V682Q110 688
164 692T260 696Q354 696 406 679T481 622T503 515Q503 443 473 405T386 354V350Q446 340 478 302T511 184Q511 116 492 76T418 14T259 -8Q216 -8 161 -4Z" />
<glyph unicode="4" glyph-name="four" horiz-adv-x="638" d="M438 0V176H54V207L332 688H374L96 210H439V510H474V210H583V176H474V0H438Z" />
<glyph unicode="5" glyph-name="five" horiz-adv-x="616" d="M207 26T284 26Q374 26 420 41T483 93T500 197Q500 270 482 303T416 348T264 360Q215 360 98 345V688H485V654H134V382Q199 394 303 394Q405 394 455 374T520 315T536 204Q536 120 516 76T442 12T284
-8Q241 -8 186 -4T90 6V38Q207 26 284 26Z" />
<glyph unicode="6" glyph-name="six" horiz-adv-x="648" d="M272 -8T226 0T150 34T104 112Q96 140 93 192T90 334Q90 424 94 480T109 573Q125 623 155 649T233 686T357 696Q431 696 550 682V650Q449 662 365 662Q255 662 207 639T142 553T126 345H132Q152 369
199 383T347 397Q446 397 495 385T566 333T588 210Q588 119 570 74T503 11T350 -8Q272 -8 226 0ZM434 26T476 36T535 81T552 191Q552 274 536 308T480 353T342 363Q246 363 201 350T143 310T129 228Q129 138 147 96T209 40T342 26Q434 26 476 36Z" />
<glyph unicode="7" glyph-name="seven" horiz-adv-x="558" d="M161 0L458 654H45V688H500V659L202 0H161Z" />
<glyph unicode="8" glyph-name="eight" horiz-adv-x="682" d="M233 -8T178 12T104 73T85 184Q85 243 98 275T138 324T210 349V353Q148 364 120 402T91 515Q91 582 112 620T188 677T341 696Q440 696 494 678T569 621T591 515Q591 440 563 402T472 353V349Q517 340
543 324T583 276T597 184Q597 113 578 73T504 13T341 -8Q233 -8 178 12ZM428 365T473 378T537 422T555 513Q555 573 538 604T476 648T341 662Q252 662 207 649T144 604T127 513Q127 454 145 423T208 378T341 365Q428 365 473 378ZM429 26T475 38T541 82T561 177Q561
244 543 276T480 319T341 331Q247 331 202 320T139 276T121 177Q121 114 141 82T207 38T341 26Q429 26 475 38Z" />
<glyph unicode="9" glyph-name="nine" horiz-adv-x="648" d="M208 -8T98 6V38Q196 26 283 26Q393 26 441 49T506 135T522 343H516Q496 319 449 305T301 291Q202 291 153 303T82 355T60 478Q60 569 78 614T145 677T298 696Q376 696 422 689T497 658T541 587Q551
552 554 499T558 354Q558 263 554 207T537 109Q522 62 492 37T415 2T291 -8Q208 -8 98 6ZM402 325T447 338T505 378T519 460Q519 550 501 592T439 648T306 662Q214 662 172 652T113 607T96 497Q96 414 112 380T168 335T306 325Q402 325 447 338Z" />
<glyph unicode=":" glyph-name="colon" horiz-adv-x="176" d="M64 445V510H112V445H64ZM64 0V65H112V0H64Z" />
<glyph unicode=";" glyph-name="semicolon" horiz-adv-x="176" d="M64 445V510H112V445H64ZM57 -80T67 -75T80 -57T84 -17V0H64V65H112V-10Q112 -47 106 -66T83 -93T34 -101V-80Q57 -80 67 -75Z" />
<glyph unicode="&lt;" glyph-name="less" horiz-adv-x="541" d="M471 45L71 227V279L471 461V424L94 253L471 82V45Z" />
<glyph unicode="=" glyph-name="equal" horiz-adv-x="540" d="M70 337V369H470V337H70ZM70 137V169H470V137H70Z" />
<glyph unicode="&gt;" glyph-name="greater" horiz-adv-x="541" d="M70 45V82L447 253L70 424V461L470 279V227L70 45Z" />
<glyph unicode="?" glyph-name="question" horiz-adv-x="496" d="M164 260Q164 297 171 315T195 343T248 366L276 376Q324 393 345 408T373 449T380 526Q380 586 364 614T314 652T211 662Q146 662 40 650V682Q81 688 130 692T216 696Q289 696 331 683T395 636T416
537Q416 484 411 453T387 398T325 358L304 351Q249 330 230 320T205 298T200 258V173H164V260ZM158 0V65H206V0H158Z" />
<glyph unicode="@" glyph-name="at" horiz-adv-x="924" d="M273 -108T200 -80T108 22T90 294Q90 491 108 565T199 668T462 696Q651 696 724 668T816 566T834 294Q834 190 823 145T787 87T710 75H608L605 146H601Q586 99 544 84T443 68Q385 68 352 78T303 115T286
193Q286 241 297 268T336 307T415 319Q479 319 601 315V352Q601 416 591 443T552 478T455 486Q423 486 382 483T317 475V508Q380 518 468 518Q540 518 575 505T623 459T636 358V105H722Q754 105 769 114T792 164T800 294Q800 450 791 517T747 616T630 657Q553 666
461 666Q370 666 294 657Q212 648 177 617T133 518T123 294Q123 138 133 71T182 -29T312 -71Q360 -77 462 -77Q593 -77 636 -74V-106Q605 -108 462 -108Q273 -108 200 -80ZM503 100T537 113T586 160T601 254V287H423Q379 287 358 281T329 255T321 193Q321 153 330
134T365 108T442 100Q503 100 537 113Z" />
<glyph unicode="A" glyph-name="A" horiz-adv-x="683" d="M604 0L513 222H169L78 0H40L324 688H359L643 0H604ZM344 637H339L183 256H499L344 637Z" />
<glyph unicode="B" glyph-name="B" horiz-adv-x="687" d="M115 688H422Q518 688 556 643T594 516Q594 376 477 354V350Q552 338 577 292T602 180Q602 100 563 50T413 0H115V688ZM483 366T520 404T558 510Q558 585 527 619T414 654H151V366H414Q483 366 520 404ZM499
34T532 70T566 183Q566 260 531 296T417 332H151V34H417Q499 34 532 70Z" />
<glyph unicode="C" glyph-name="C" horiz-adv-x="578" d="M445 -8T357 -8Q235 -8 182 14T110 108T90 344Q90 507 109 578T182 672T357 696Q395 696 437 693T509 684V652Q442 662 367 662Q250 662 203 643T141 562T126 344Q126 189 141 127T203 45T367 26Q446 26
513 36V2Q445 -8 357 -8Z" />
<glyph unicode="D" glyph-name="D" horiz-adv-x="693" d="M115 688H320Q459 688 515 666T587 577T603 344Q603 178 587 112T515 23T320 0H115V688ZM300 34Q440 34 489 49T552 122T567 344Q567 506 552 565T487 639T300 654H151V34H300Z" />
<glyph unicode="E" glyph-name="E" horiz-adv-x="598" d="M115 0V688H541V654H151V365H494V331H151V34H541V0H115Z" />
<glyph unicode="F" glyph-name="F" horiz-adv-x="561" d="M115 0V688H521V654H151V351H484V317H151V0H115Z" />
<glyph unicode="G" glyph-name="G" horiz-adv-x="683" d="M353 315V349H583V9Q535 2 476 -3T372 -8Q246 -8 190 15T112 111T90 344Q90 504 112 576T191 672T372 696Q422 696 481 691T580 678V646Q536 653 486 657T402 662Q272 662 221 647T148 568T126 344Q126
196 142 133T207 48T371 26Q406 26 459 29T547 38V315H353Z" />
<glyph unicode="H" glyph-name="H" horiz-adv-x="738" d="M587 0V331H151V0H115V688H151V365H587V688H623V0H587Z" />
<glyph unicode="I" glyph-name="I" horiz-adv-x="266" d="M115 0V688H151V0H115Z" />
<glyph unicode="J" glyph-name="J" horiz-adv-x="324" d="M117 36T143 47T176 96T183 246V688H219V264Q219 128 210 79T167 16T40 0V34Q117 36 143 47Z" />
<glyph unicode="K" glyph-name="K" horiz-adv-x="665" d="M582 0L324 332H151V0H115V688H151V366H324L580 688H622L354 349L625 0H582Z" />
<glyph unicode="L" glyph-name="L" horiz-adv-x="536" d="M115 0V688H151V34H501V0H115Z" />
<glyph unicode="M" glyph-name="M" horiz-adv-x="915" d="M764 0V618H760L473 0H441L154 618H150V0H115V688H161L455 53H460L755 688H800V0H764Z" />
<glyph unicode="N" glyph-name="N" horiz-adv-x="738" d="M588 0L154 622H150V0H115V688H150L584 66H588V688H623V0H588Z" />
<glyph unicode="O" glyph-name="O" horiz-adv-x="726" d="M229 -8T175 15T106 106T90 344Q90 514 105 582T175 673T363 696Q497 696 551 673T620 582T636 344Q636 174 621 106T551 15T363 -8Q229 -8 175 15ZM484 26T527 41T585 118T600 344Q600 508 586 569T528
646T363 662Q242 662 199 647T141 570T126 344Q126 180 140 119T198 42T363 26Q484 26 527 41Z" />
<glyph unicode="P" glyph-name="P" horiz-adv-x="655" d="M115 688H403Q487 688 528 661T579 591T590 481Q590 414 579 372T527 302T403 274H151V0H115V688ZM401 308Q469 308 502 328T544 383T554 481Q554 544 546 579T504 634T401 654H151V308H401Z" />
<glyph unicode="Q" glyph-name="Q" horiz-adv-x="726" d="M647 -113V-115H604L514 3Q468 -8 363 -8Q229 -8 175 15T106 106T90 344Q90 514 105 582T175 673T363 696Q497 696 551 673T620 582T636 344Q636 228 631 167T607 68T549 14L647 -113ZM401 26T435 27T492
32L350 218H393L528 42Q560 55 575 87T595 177T600 344Q600 508 586 569T528 646T363 662Q242 662 199 647T141 570T126 344Q126 180 140 119T198 42T363 26Q401 26 435 27Z" />
<glyph unicode="R" glyph-name="R" horiz-adv-x="685" d="M565 0L447 296Q434 294 406 294H151V0H115V688H421Q500 688 539 661T588 594T598 491Q598 441 591 406T559 342T484 302L605 0H565ZM474 328T508 348T552 401T562 491Q562 548 554 581T515 634T419 654H151V328H404Q474
328 508 348Z" />
<glyph unicode="S" glyph-name="S" horiz-adv-x="636" d="M278 -8T213 -5T100 4V39Q151 34 215 30T323 26Q380 26 413 30T475 50Q502 64 511 97T520 183Q520 251 514 276T483 312T392 330L209 349Q148 355 120 375T86 426T80 515Q80 590 104 629T179 682T318 696Q376
696 432 693T521 683V650Q479 655 423 658T321 662Q258 662 219 655T156 632Q132 616 124 588T116 513Q116 461 123 437T150 401T215 384L389 366Q443 360 471 355T519 334T548 290Q553 273 554 251T556 188Q556 99 530 57T459 3T333 -8Q278 -8 213 -5Z" />
<glyph unicode="T" glyph-name="T" horiz-adv-x="582" d="M273 0V654H40V688H542V654H309V0H273Z" />
<glyph unicode="U" glyph-name="U" horiz-adv-x="717" d="M612 688V294Q612 162 597 102T529 17T359 -8Q241 -8 189 17T121 102T105 294V688H141V264Q141 158 154 112T211 46T359 26Q462 26 506 45T563 111T576 264V688H612Z" />
<glyph unicode="V" glyph-name="V" horiz-adv-x="663" d="M314 0L40 688H79L329 55H334L585 688H623L349 0H314Z" />
<glyph unicode="W" glyph-name="W" horiz-adv-x="984" d="M697 0L494 623H490L287 0H252L48 688H87L268 65H274L474 688H512L712 65H718L899 688H936L732 0H697Z" />
<glyph unicode="X" glyph-name="X" horiz-adv-x="674" d="M589 0L341 313H333L84 0H40L315 346L44 688H89L334 378H341L587 688H631L359 347L634 0H589Z" />
<glyph unicode="Y" glyph-name="Y" horiz-adv-x="599" d="M281 0V281L20 688H62L296 319H303L538 688H579L317 281V0H281Z" />
<glyph unicode="Z" glyph-name="Z" horiz-adv-x="601" d="M60 0V32L493 654H71V688H538V656L106 34H546V0H60Z" />
<glyph unicode="[" glyph-name="bracketleft" horiz-adv-x="309" d="M115 -150V743H269V710L150 706V-113L269 -117V-150H115Z" />
<glyph unicode="\" glyph-name="backslash" horiz-adv-x="328" d="M291 -55L0 743H38L328 -55H291Z" />
<glyph unicode="]" glyph-name="bracketright" horiz-adv-x="309" d="M40 -150V-117L159 -113V706L40 710V743H194V-150H40Z" />
<glyph unicode="^" glyph-name="asciicircum" horiz-adv-x="470" d="M363 444L235 726L107 444H70L209 749H261L400 444H363Z" />
<glyph unicode="_" glyph-name="underscore" horiz-adv-x="340" d="M0 -160V-128H340V-160H0Z" />
<glyph unicode="`" glyph-name="grave" horiz-adv-x="193" d="M146 605L20 738V743H66L173 610V605H146Z" />
<glyph unicode="a" glyph-name="a" horiz-adv-x="574" d="M182 -8T143 3T85 46T65 138Q65 195 78 226T124 270T216 283Q246 283 439 278V324Q439 401 426 433T379 476T263 486Q228 486 179 482T101 473V506Q170 518 277 518Q362 518 403 503T459 449T474 330V0H446L443
83H439Q420 28 370 10T249 -8Q182 -8 143 3ZM315 24T356 35T415 84Q428 113 433 142T439 210V251H226Q172 251 147 243T111 212T100 138Q100 90 112 66T155 33T248 24Q315 24 356 35Z" />
<glyph unicode="b" glyph-name="b" horiz-adv-x="596" d="M248 -8T201 10T135 83H131L128 0H100V743H135V436H139Q157 480 200 499T320 518Q407 518 449 497T506 421T521 255Q521 143 506 89T449 14T320 -8Q248 -8 201 10ZM390 24T425 40T473 102T486 255Q486
361 474 407T426 470T310 486Q243 486 204 467T151 409Q141 378 138 344T135 255Q135 198 137 166T150 103Q163 62 203 43T310 24Q390 24 425 40Z" />
<glyph unicode="c" glyph-name="c" horiz-adv-x="458" d="M383 -1T347 -4T276 -8Q185 -8 143 17T88 95T75 254Q75 363 91 418T148 496T271 518Q303 518 339 515T401 507V474Q375 479 341 482T278 486Q204 486 169 468T122 402T110 256Q110 153 122 106T169 42T281
24Q312 24 347 28T406 37V4Q383 -1 347 -4Z" />
<glyph unicode="d" glyph-name="d" horiz-adv-x="596" d="M189 -8T147 13T90 89T75 255Q75 367 90 421T147 496T276 518Q352 518 395 499T457 436H461V743H496V0H468L465 83H461Q442 28 395 10T276 -8Q189 -8 147 13ZM353 24T392 42T445 100Q456 133 458 167T461
269Q461 314 459 345T448 400Q432 446 393 466T281 486Q203 486 169 470T122 408T110 255Q110 149 122 103T170 40T286 24Q353 24 392 42Z" />
<glyph unicode="e" glyph-name="e" horiz-adv-x="562" d="M487 243H110Q110 147 122 104T172 42T296 24Q336 24 384 28T467 38V5Q438 -1 389 -4T291 -8Q195 -8 150 13T90 88T75 254Q75 368 86 419T143 494T294 518Q385 518 425 496T476 422T487 256V243ZM206 486T170
471T122 415T110 275H452V296Q452 382 438 421T392 473T291 486Q206 486 170 471Z" />
<glyph unicode="f" glyph-name="f" horiz-adv-x="344" d="M138 478H30V510H138V625Q138 676 157 701T211 735T309 743V713Q254 713 226 706T185 682T173 631V510H309V478H173V0H138V478Z" />
<glyph unicode="g" glyph-name="g" horiz-adv-x="596" d="M172 -206T93 -199V-166Q186 -174 275 -174Q358 -174 397 -154T448 -87T461 60V74H457Q439 30 396 11T276 -8Q189 -8 147 13T90 89T75 255Q75 367 90 421T147 496T276 518Q348 518 395 500T461 427H465L468
510H496V72Q496 -41 481 -98T420 -180T280 -206Q172 -206 93 -199ZM354 24T393 43T446 105Q456 133 458 166T461 255Q461 312 459 343T449 398Q434 445 394 465T286 486Q206 486 171 470T123 408T110 255Q110 149 122 103T170 40T286 24Q354 24 393 43Z" />
<glyph unicode="h" glyph-name="h" horiz-adv-x="604" d="M469 315Q469 392 457 427T413 474T310 486Q228 486 190 458T144 387T135 264V0H100V743H135V435H139Q168 518 317 518Q397 518 437 499T490 439T504 320V0H469V315Z" />
<glyph unicode="i" glyph-name="i" horiz-adv-x="235" d="M96 682V743H139V682H96ZM100 0V510H135V0H100Z" />
<glyph unicode="j" glyph-name="j" horiz-adv-x="235" d="M96 682V743H139V682H96ZM-2 -170Q45 -170 66 -165T93 -149T100 -113V510H135V-103Q135 -148 121 -168T79 -194T-2 -200V-170Z" />
<glyph unicode="k" glyph-name="k" horiz-adv-x="520" d="M434 0L220 243H135V0H100V743H135V277H220L433 510H477L249 262L480 0H434Z" />
<glyph unicode="l" glyph-name="l" horiz-adv-x="235" d="M100 0V743H135V0H100Z" />
<glyph unicode="m" glyph-name="m" horiz-adv-x="893" d="M758 315Q758 392 748 427T710 474T619 486Q545 486 512 460T472 391T464 264V0H429V315Q429 392 419 427T381 474T290 486Q217 486 184 458T143 387T135 264V0H100V510H128L131 427H135Q147 469 183 493T297
518Q371 518 407 497T455 427H460Q472 468 510 493T626 518Q697 518 732 499T780 439T793 320V0H758V315Z" />
<glyph unicode="n" glyph-name="n" horiz-adv-x="604" d="M469 315Q469 392 457 427T413 474T310 486Q228 486 190 458T144 387T135 264V0H100V510H128L131 427H135Q149 469 189 493T317 518Q397 518 437 499T490 439T504 320V0H469V315Z" />
<glyph unicode="o" glyph-name="o" horiz-adv-x="580" d="M187 -8T143 12T87 83T75 254Q75 374 87 425T143 497T290 518Q393 518 437 498T493 426T505 254Q505 134 493 83T437 12T290 -8Q187 -8 143 12ZM382 24T417 40T461 99T470 254Q470 366 462 409T417 469T290
486Q199 486 163 469T119 409T110 254Q110 142 118 100T162 41T290 24Q382 24 417 40Z" />
<glyph unicode="p" glyph-name="p" horiz-adv-x="596" d="M100 510H128L131 427H135Q154 482 201 500T320 518Q407 518 449 497T506 421T521 255Q521 143 506 89T449 14T320 -8Q244 -8 201 11T139 74H135V-200H100V510ZM390 24T425 40T473 102T486 255Q486 361
474 407T426 470T310 486Q242 486 203 467T149 404Q140 376 138 344T135 255Q135 201 137 169T146 115Q163 66 202 45T310 24Q390 24 425 40Z" />
<glyph unicode="q" glyph-name="q" horiz-adv-x="596" d="M461 74H457Q439 30 396 11T276 -8Q189 -8 147 13T90 89T75 255Q75 367 90 421T147 496T276 518Q348 518 395 500T461 427H465L468 510H496V-200H461V74ZM354 24T393 44T448 109Q456 134 458 167T461 255Q461
312 459 345T445 410Q432 449 393 467T286 486Q206 486 171 470T123 408T110 255Q110 149 122 103T170 40T286 24Q354 24 393 44Z" />
<glyph unicode="r" glyph-name="r" horiz-adv-x="341" d="M100 510H127L131 401H135Q151 468 195 493T311 518V482Q240 482 202 457T149 384T135 259V0H100V510Z" />
<glyph unicode="s" glyph-name="s" horiz-adv-x="500" d="M215 -8T166 -5T81 3V36Q152 28 184 26T268 24Q325 24 353 34T390 68T400 133Q400 179 393 199T372 225T323 235L175 249Q130 254 107 266T75 303T65 373Q65 438 86 469T147 509T258 518Q292 518 333 515T407
506V473Q363 480 327 483T241 486Q191 486 163 480T117 451T100 380Q100 340 107 321T129 294T179 284L322 270Q371 265 393 254T425 216T435 133Q435 75 417 45T361 3T254 -8Q215 -8 166 -5Z" />
<glyph unicode="t" glyph-name="t" horiz-adv-x="329" d="M138 0V478H30V510H138V658H173V510H299V478H173V0H138Z" />
<glyph unicode="u" glyph-name="u" horiz-adv-x="604" d="M473 83H469Q455 41 415 17T287 -8Q207 -8 167 11T114 71T100 190V510H135V195Q135 118 147 83T191 36T294 24Q376 24 414 52T460 123T469 246V510H504V0H476L473 83Z" />
<glyph unicode="v" glyph-name="v" horiz-adv-x="521" d="M243 0L35 510H73L258 49H264L449 510H486L278 0H243Z" />
<glyph unicode="w" glyph-name="w" horiz-adv-x="803" d="M551 0L404 449H398L252 0H217L39 510H77L232 57H238L383 510H421L567 57H573L727 510H764L586 0H551Z" />
<glyph unicode="x" glyph-name="x" horiz-adv-x="537" d="M452 0L271 229H266L84 0H40L246 259L47 510H92L266 290H271L446 510H490L291 260L497 0H452Z" />
<glyph unicode="y" glyph-name="y" horiz-adv-x="604" d="M186 -206T114 -199V-166Q200 -174 279 -174Q364 -174 404 -152T457 -84T469 48V75H465Q436 -8 287 -8Q207 -8 167 11T114 71T100 190V510H135V195Q135 118 147 83T191 36T294 24Q376 24 414 52T460 123T469
246V510H504V67Q504 -41 487 -98T424 -180T284 -206Q186 -206 114 -199Z" />
<glyph unicode="z" glyph-name="z" horiz-adv-x="496" d="M55 0V28L392 478H67V510H439V482L103 32H441V0H55Z" />
<glyph unicode="{" glyph-name="braceleft" horiz-adv-x="300" d="M198 -127T169 -74T140 37V152Q140 207 114 244T30 282V311Q88 311 114 348T140 441V556Q140 614 169 667T243 743H280Q234 714 205 665T175 568V447Q175 387 155 349T90 299V294Q135 282 155
244T175 146V25Q175 -23 204 -72T280 -150H243Q198 -127 169 -74Z" />
<glyph unicode="|" glyph-name="bar" horiz-adv-x="265" d="M115 -161V743H150V-161H115Z" />
<glyph unicode="}" glyph-name="braceright" horiz-adv-x="300" d="M66 -121T95 -72T125 25V146Q125 206 145 244T210 294V299Q165 311 145 349T125 447V568Q125 616 96 665T20 743H57Q102 720 131 667T160 556V441Q160 386 186 349T270 311V282Q212 282 186 245T160
152V37Q160 -21 131 -74T57 -150H20Q66 -121 95 -72Z" />
<glyph unicode="~" glyph-name="asciitilde" horiz-adv-x="497" d="M420 300T408 280T358 260Q332 260 307 266T237 288Q206 299 183 305T139 311Q117 311 111 298T104 249H77Q77 304 89 324T139 344Q166 344 191 338T259 316Q292 305 314 299T358 293Q380 293
386 306T393 355H420Q420 300 408 280Z" />
<glyph unicode="&#xa0;" glyph-name="uni00A0" horiz-adv-x="224" />
<glyph unicode="&#xa1;" glyph-name="exclamdown" horiz-adv-x="198" d="M75 445V510H123V445H75ZM80 -31Q80 94 85 337H113Q118 94 118 -31V-178H80V-31Z" />
<glyph unicode="&#xa2;" glyph-name="cent" horiz-adv-x="467" d="M412 80Q359 69 295 68V-8H261V68Q181 71 142 95T89 174T75 342Q75 458 92 516T148 596T261 619V696H295V619Q347 616 407 607V573Q361 585 295 585V101Q325 102 358 106T412 116V80ZM112 240T123
191T165 124T261 102V585Q197 582 167 563T124 495T112 344Q112 240 123 191Z" />
<glyph unicode="&#xa3;" glyph-name="sterling" horiz-adv-x="581" d="M531 34V0H60V34H134V341H60V375H134Q134 513 152 578T220 670T379 696Q417 696 456 693T519 683V651Q490 656 454 659T394 662Q332 662 295 658T233 639Q194 617 182 552T170 375H444V341H170V34H531Z"
/>
<glyph unicode="&#xa4;" glyph-name="currency" horiz-adv-x="763" d="M75 5L195 125Q177 153 172 201T166 343Q166 435 171 483T194 561L75 680L98 703L215 586Q238 604 277 611T381 619Q446 619 485 612T547 585L665 703L687 681L568 562Q585 533 590 484T596
343Q596 251 591 203T568 125L688 5L665 -18L546 101Q523 83 484 76T381 69Q317 69 278 76T216 102L97 -17L75 5ZM473 101T508 118T552 180T561 343Q561 461 553 506T508 569T381 587Q290 587 254 569T210 506T201 343Q201 225 209 181T253 119T381 101Q473 101
508 118Z" />
<glyph unicode="&#xa5;" glyph-name="yen" horiz-adv-x="619" d="M579 688L437 448H542V414H417L347 295H542V261H327V0H291V261H76V295H271L201 414H76V448H181L40 688H81L218 448H401L539 688H579ZM313 295L381 414H238L306 295H313Z" />
<glyph unicode="&#xa6;" glyph-name="brokenbar" horiz-adv-x="265" d="M115 390V743H150V390H115ZM115 -161V192H150V-161H115Z" />
<glyph unicode="&#xa7;" glyph-name="section" horiz-adv-x="699" d="M284 -171T237 -168T161 -160V-127Q238 -137 321 -137Q388 -137 424 -131T482 -103T504 -32Q504 11 498 33T476 68T427 89L248 137Q175 156 139 173T86 215T70 284Q70 354 91 401T180 449Q166
468 163 492T159 554Q159 612 182 642T252 684T373 696Q415 696 462 693T538 685V652Q461 662 378 662Q311 662 275 656T217 628T195 557Q195 513 202 491T231 455T297 430L465 385Q531 367 564 351T613 310T629 241Q629 171 607 124T519 76Q533 56 536 32T540
-29Q540 -87 517 -117T447 -159T326 -171Q284 -171 237 -168ZM593 105T593 227Q593 279 582 299T535 329L262 402L242 408Q238 409 219 414T189 419Q106 419 106 297Q106 261 111 242T132 211T178 191L440 121L460 116Q498 105 510 105Q593 105 593 227Z" />
<glyph unicode="&#xa8;" glyph-name="dieresis" horiz-adv-x="263" d="M20 670V731H63V670H20ZM200 670V731H243V670H200Z" />
<glyph unicode="&#xa9;" glyph-name="copyright" horiz-adv-x="724" d="M223 -8T170 15T104 103T90 344Q90 519 103 584T170 673T362 696Q501 696 554 673T620 585T634 344Q634 169 621 104T554 15T362 -8Q223 -8 170 15ZM488 18T534 37T592 116T605 344Q605 511
593 571T534 651T362 670Q236 670 190 651T132 572T119 344Q119 177 131 117T190 37T362 18Q488 18 534 37ZM318 154T289 166T250 216T239 344Q239 432 249 470T289 521T385 534Q446 534 470 528V499Q437 504 389 504Q332 504 309 495T278 454T270 344Q270 266
277 235T308 194T389 184Q439 184 472 189V159Q435 154 385 154Q318 154 289 166Z" />
<glyph unicode="&#xaa;" glyph-name="ordfeminine" horiz-adv-x="402" d="M129 316T101 324T59 355T45 423Q45 465 54 487T87 519T156 529L309 526V555Q309 607 301 629T268 658T188 665Q159 665 123 663T69 656V688Q115 696 198 696Q260 696 290 685T331 646T342
559V320H315L310 364H306Q289 333 257 325T178 316Q129 316 101 324ZM224 345T254 353T296 389Q309 422 309 473V498H163Q127 498 109 493T84 472T76 423Q76 391 84 375T114 352T177 345Q224 345 254 353Z" />
<glyph unicode="&#xab;" glyph-name="guillemotleft" horiz-adv-x="455" d="M192 99L60 304L192 510H223L104 304L223 99H192ZM344 99L212 304L344 510H375L256 304L375 99H344Z" />
<glyph unicode="&#xac;" glyph-name="logicalnot" horiz-adv-x="539" d="M435 53V238H70V272H469V53H435Z" />
<glyph unicode="&#xad;" glyph-name="uni00AD" horiz-adv-x="355" d="M65 268V304H290V268H65Z" />
<glyph unicode="&#xae;" glyph-name="registered" horiz-adv-x="724" d="M501 696T554 673T620 585T634 344Q634 169 621 104T554 15T362 -8Q223 -8 170 15T104 103T90 344Q90 519 103 584T170 673T362 696Q501 696 554 673ZM488 18T534 37T592 116T605 344Q605
511 593 571T534 651T362 670Q236 670 190 651T132 572T119 344Q119 177 131 117T190 37T362 18Q488 18 534 37ZM499 381T488 355T443 317L507 157H471L411 312Q406 311 392 311H266V157H235V529H400Q444 529 466 514T493 476T499 420Q499 381 488 355ZM425 341T442
351T463 377T468 420Q468 447 464 463T445 489T399 499H266V341H391Q425 341 442 351Z" />
<glyph unicode="&#xaf;" glyph-name="overscore" horiz-adv-x="355" d="M65 706V742H290V706H65Z" />
<glyph unicode="&#xb0;" glyph-name="degree" horiz-adv-x="385" d="M135 397T110 408T78 449T70 546Q70 613 77 642T110 684T193 696Q251 696 276 684T308 643T315 546Q315 478 308 449T276 409T193 397Q135 397 110 408ZM238 428T255 437T277 467T281 546Q281
603 277 625T256 656T193 665Q148 665 130 656T108 625T104 546Q104 489 108 468T130 437T193 428Q238 428 255 437Z" />
<glyph unicode="&#xb1;" glyph-name="plusminus" horiz-adv-x="540" d="M253 184V368H70V400H253V584H285V400H470V368H285V184H253ZM70 0V32H470V0H70Z" />
<glyph unicode="&#xb2;" glyph-name="uni00B2" horiz-adv-x="351" d="M83 354H300V320H51V359Q51 406 53 425T67 456T107 480L221 528Q247 540 256 554T265 598Q265 626 258 639T232 657T175 662Q151 662 58 654V688Q122 696 179 696Q220 696 244 691T284 665T300
603Q300 557 285 537T228 497L112 446Q91 437 87 425T83 375V354Z" />
<glyph unicode="&#xb3;" glyph-name="uni00B3" horiz-adv-x="340" d="M98 311T39 320V352Q127 344 148 344Q202 344 227 358T252 415Q252 456 236 473T182 491H103V522H182Q209 522 228 537T248 592Q248 635 224 648T143 662Q99 662 41 655V687Q100 696 149 696Q225
696 254 673T283 593Q283 536 237 510V506Q288 482 288 419Q288 381 277 358T236 323T148 311Q98 311 39 320Z" />
<glyph unicode="&#xb4;" glyph-name="acute" horiz-adv-x="193" d="M20 605V610L127 743H173V738L47 605H20Z" />
<glyph unicode="&#xb5;" glyph-name="uni00B5" horiz-adv-x="604" d="M504 510V0H476L473 83H469Q455 41 415 17T287 -8Q231 -8 196 2T140 36H135V-190H100V510H135V195Q135 118 147 83T191 36T294 24Q376 24 414 52T460 123T469 246V510H504Z" />
<glyph unicode="&#xb6;" glyph-name="paragraph" horiz-adv-x="557" d="M319 222Q198 222 150 238T88 298T75 454Q75 566 88 610T150 671T319 688H355V-144H319V222ZM421 -144V688H457V-144H421Z" />
<glyph unicode="&#xb7;" glyph-name="middot" horiz-adv-x="176" d="M64 267V332H112V267H64Z" />
<glyph unicode="&#xb8;" glyph-name="cedilla" horiz-adv-x="124" d="M20 -190V-185L78 8H104V3L60 -190H20Z" />
<glyph unicode="&#xb9;" glyph-name="uni00B9" horiz-adv-x="218" d="M110 320V644L31 603V638L118 688H144V320H110Z" />
<glyph unicode="&#xba;" glyph-name="ordmasculine" horiz-adv-x="414" d="M131 315T100 329T59 379T50 504Q50 591 59 628T100 681T207 696Q282 696 314 681T355 629T364 504Q364 416 355 380T315 329T207 315Q131 315 100 329ZM270 344T295 355T325 396T331
504Q331 581 326 611T295 653T207 665Q144 665 119 653T89 611T83 504Q83 426 88 397T119 356T207 344Q270 344 295 355Z" />
<glyph unicode="&#xbb;" glyph-name="guillemotright" horiz-adv-x="455" d="M80 99L199 304L80 510H111L243 304L111 99H80ZM232 99L351 304L232 510H263L395 304L263 99H232Z" />
<glyph unicode="&#xbc;" glyph-name="onequarter" horiz-adv-x="677" d="M110 320V644L31 603V638L118 688H144V320H110ZM62 0L511 688H553L104 0H62ZM525 0V86H322V113L468 368H505L362 119H526V274H561V119H617V86H561V0H525Z" />
<glyph unicode="&#xbd;" glyph-name="onehalf" horiz-adv-x="776" d="M110 320V644L31 603V638L118 688H144V320H110ZM511 688H553L104 0H62L511 688ZM479 34H696V0H447V39Q447 86 449 105T463 136T503 160L617 208Q643 220 652 234T661 278Q661 306 654 319T628
337T571 342Q547 342 454 334V368Q518 376 575 376Q616 376 640 371T680 345T696 283Q696 237 681 217T623 177L505 125Q486 117 483 104T479 55V34Z" />
<glyph unicode="&#xbe;" glyph-name="threequarters" horiz-adv-x="791" d="M148 344T169 344Q223 344 248 358T273 415Q273 456 257 473T203 491H124V522H203Q230 522 249 537T269 592Q269 635 245 648T164 662Q120 662 62 655V687Q121 696 170 696Q246 696 275
673T304 593Q304 536 258 510V506Q309 482 309 419Q309 381 298 358T257 323T169 311Q119 311 60 320V352Q148 344 169 344ZM182 0L631 688H673L224 0H182ZM639 0V86H436V113L582 368H619L476 119H640V274H675V119H731V86H675V0H639Z" />
<glyph unicode="&#xbf;" glyph-name="questiondown" horiz-adv-x="426" d="M280 445V510H328V445H280ZM197 -186T155 -173T91 -126T70 -27Q70 26 75 57T100 113T163 153L218 173Q253 186 266 193T282 212T286 252V337H322V250Q322 213 315 195T292 167T240 144L214
135Q165 118 143 103T114 62T106 -16Q106 -76 122 -104T172 -142T275 -152Q340 -152 446 -140V-172Q405 -178 356 -182T270 -186Q197 -186 155 -173Z" />
<glyph unicode="&#xc0;" glyph-name="Agrave" horiz-adv-x="683" d="M604 0L513 222H169L78 0H40L324 688H359L643 0H604ZM344 637H339L183 256H499L344 637ZM338 750L212 883V888H258L365 755V750H338Z" />
<glyph unicode="&#xc1;" glyph-name="Aacute" horiz-adv-x="683" d="M604 0L513 222H169L78 0H40L324 688H359L643 0H604ZM344 637H339L183 256H499L344 637ZM317 750V755L424 888H470V883L344 750H317Z" />
<glyph unicode="&#xc2;" glyph-name="Acircumflex" horiz-adv-x="683" d="M604 0L513 222H169L78 0H40L324 688H359L643 0H604ZM344 637H339L183 256H499L344 637ZM211 750V755L318 888H364L471 755V750H444L341 858L238 750H211Z" />
<glyph unicode="&#xc3;" glyph-name="Atilde" horiz-adv-x="683" d="M604 0L513 222H169L78 0H40L324 688H359L643 0H604ZM344 637H339L183 256H499L344 637ZM513 801T501 781T451 761Q424 761 399 767T331 789Q298 800 276 806T232 812Q210 812 204 799T197 750H170Q170
805 182 825T232 845Q259 845 284 839T352 817Q385 806 407 800T451 794Q473 794 479 807T486 856H513Q513 801 501 781Z" />
<glyph unicode="&#xc4;" glyph-name="Adieresis" horiz-adv-x="683" d="M604 0L513 222H169L78 0H40L324 688H359L643 0H604ZM344 637H339L183 256H499L344 637ZM230 770V831H273V770H230ZM410 770V831H453V770H410Z" />
<glyph unicode="&#xc5;" glyph-name="Aring" horiz-adv-x="683" d="M643 0H604L513 222H169L78 0H40L312 660Q274 662 257 671T234 699T229 753Q229 793 235 811T265 838T341 847Q394 847 417 839T447 812T454 753Q454 717 450 700T428 672T371 660L643 0ZM262
723T266 711T286 694T341 688Q380 688 396 693T417 711T421 753Q421 783 417 795T397 813T341 819Q302 819 286 814T266 796T262 753Q262 723 266 711ZM183 256H499L344 637H339L183 256Z" />
<glyph unicode="&#xc6;" glyph-name="AE" horiz-adv-x="947" d="M564 0L496 222H151L38 0H0L354 688H890V654H400L490 365H843V331H500L592 34H890V0H564ZM369 637H364L169 256H485L369 637Z" />
<glyph unicode="&#xc7;" glyph-name="Ccedilla" horiz-adv-x="578" d="M446 26T513 36V2Q445 -8 357 -8Q319 -8 302 -7L260 -190H220V-185L274 -5Q194 1 156 30T104 130T90 344Q90 507 109 578T182 672T357 696Q395 696 437 693T509 684V652Q442 662 367 662Q250
662 203 643T141 562T126 344Q126 189 141 127T203 45T367 26Q446 26 513 36Z" />
<glyph unicode="&#xc8;" glyph-name="Egrave" horiz-adv-x="598" d="M115 0V688H541V654H151V365H494V331H151V34H541V0H115ZM330 750L204 883V888H250L357 755V750H330Z" />
<glyph unicode="&#xc9;" glyph-name="Eacute" horiz-adv-x="598" d="M115 0V688H541V654H151V365H494V331H151V34H541V0H115ZM300 750V755L407 888H453V883L327 750H300Z" />
<glyph unicode="&#xca;" glyph-name="Ecircumflex" horiz-adv-x="598" d="M115 0V688H541V654H151V365H494V331H151V34H541V0H115ZM204 750V755L311 888H357L464 755V750H437L334 858L231 750H204Z" />
<glyph unicode="&#xcb;" glyph-name="Edieresis" horiz-adv-x="598" d="M115 0V688H541V654H151V365H494V331H151V34H541V0H115ZM225 770V831H268V770H225ZM405 770V831H448V770H405Z" />
<glyph unicode="&#xcc;" glyph-name="Igrave" horiz-adv-x="266" d="M115 0V688H151V0H115ZM134 750L8 883V888H54L161 755V750H134Z" />
<glyph unicode="&#xcd;" glyph-name="Iacute" horiz-adv-x="266" d="M115 0V688H151V0H115ZM107 750V755L214 888H260V883L134 750H107Z" />
<glyph unicode="&#xce;" glyph-name="Icircumflex" horiz-adv-x="266" d="M115 0V688H151V0H115ZM3 750V755L110 888H156L263 755V750H236L133 858L30 750H3Z" />
<glyph unicode="&#xcf;" glyph-name="Idieresis" horiz-adv-x="266" d="M115 0V688H151V0H115ZM21 769V830H64V769H21ZM201 769V830H244V769H201Z" />
<glyph unicode="&#xd0;" glyph-name="Eth" horiz-adv-x="693" d="M115 331H45V367H115V688H320Q459 688 515 666T587 577T603 344Q603 178 587 112T515 23T320 0H115V331ZM440 34T489 49T552 122T567 344Q567 506 552 565T487 639T300 654H151V367H280V331H151V34H300Q440
34 489 49Z" />
<glyph unicode="&#xd1;" glyph-name="Ntilde" horiz-adv-x="738" d="M588 0L154 622H150V0H115V688H150L584 66H588V688H623V0H588ZM545 801T533 781T483 761Q456 761 431 767T363 789Q330 800 308 806T264 812Q242 812 236 799T229 750H202Q202 805 214 825T264
845Q291 845 316 839T384 817Q417 806 439 800T483 794Q505 794 511 807T518 856H545Q545 801 533 781Z" />
<glyph unicode="&#xd2;" glyph-name="Ograve" horiz-adv-x="726" d="M229 -8T175 15T106 106T90 344Q90 514 105 582T175 673T363 696Q497 696 551 673T620 582T636 344Q636 174 621 106T551 15T363 -8Q229 -8 175 15ZM484 26T527 41T585 118T600 344Q600 508
586 569T528 646T363 662Q242 662 199 647T141 570T126 344Q126 180 140 119T198 42T363 26Q484 26 527 41ZM353 750L227 883V888H273L380 755V750H353Z" />
<glyph unicode="&#xd3;" glyph-name="Oacute" horiz-adv-x="726" d="M229 -8T175 15T106 106T90 344Q90 514 105 582T175 673T363 696Q497 696 551 673T620 582T636 344Q636 174 621 106T551 15T363 -8Q229 -8 175 15ZM484 26T527 41T585 118T600 344Q600 508
586 569T528 646T363 662Q242 662 199 647T141 570T126 344Q126 180 140 119T198 42T363 26Q484 26 527 41ZM340 750V755L447 888H493V883L367 750H340Z" />
<glyph unicode="&#xd4;" glyph-name="Ocircumflex" horiz-adv-x="726" d="M229 -8T175 15T106 106T90 344Q90 514 105 582T175 673T363 696Q497 696 551 673T620 582T636 344Q636 174 621 106T551 15T363 -8Q229 -8 175 15ZM484 26T527 41T585 118T600 344Q600
508 586 569T528 646T363 662Q242 662 199 647T141 570T126 344Q126 180 140 119T198 42T363 26Q484 26 527 41ZM233 750V755L340 888H386L493 755V750H466L363 858L260 750H233Z" />
<glyph unicode="&#xd5;" glyph-name="Otilde" horiz-adv-x="726" d="M229 -8T175 15T106 106T90 344Q90 514 105 582T175 673T363 696Q497 696 551 673T620 582T636 344Q636 174 621 106T551 15T363 -8Q229 -8 175 15ZM484 26T527 41T585 118T600 344Q600 508
586 569T528 646T363 662Q242 662 199 647T141 570T126 344Q126 180 140 119T198 42T363 26Q484 26 527 41ZM534 801T522 781T472 761Q445 761 420 767T352 789Q319 800 297 806T253 812Q231 812 225 799T218 750H191Q191 805 203 825T253 845Q280 845 305 839T373
817Q406 806 428 800T472 794Q494 794 500 807T507 856H534Q534 801 522 781Z" />
<glyph unicode="&#xd6;" glyph-name="Odieresis" horiz-adv-x="726" d="M229 -8T175 15T106 106T90 344Q90 514 105 582T175 673T363 696Q497 696 551 673T620 582T636 344Q636 174 621 106T551 15T363 -8Q229 -8 175 15ZM484 26T527 41T585 118T600 344Q600 508
586 569T528 646T363 662Q242 662 199 647T141 570T126 344Q126 180 140 119T198 42T363 26Q484 26 527 41ZM251 770V831H294V770H251ZM431 770V831H474V770H431Z" />
<glyph unicode="&#xd7;" glyph-name="multiply" horiz-adv-x="467" d="M233 230L93 90L71 112L211 252L70 393L93 416L234 275L375 416L397 394L256 253L397 112L374 89L233 230Z" />
<glyph unicode="&#xd8;" glyph-name="Oslash" horiz-adv-x="726" d="M605 634T617 596T632 501T636 344Q636 174 621 106T551 15T363 -8Q291 -8 246 -3T172 16L127 -55H90L146 33Q121 54 109 92T94 187T90 344Q90 514 105 582T175 673T363 696Q434 696 479 691T553
672L598 743H636L580 655Q605 634 617 596ZM126 213T133 153T166 64L534 643Q510 655 473 658T363 662Q242 662 199 647T141 570T126 344Q126 213 133 153ZM484 26T527 41T585 118T600 344Q600 475 593 535T560 624L191 45Q215 33 252 30T363 26Q484 26 527 41Z"
/>
<glyph unicode="&#xd9;" glyph-name="Ugrave" horiz-adv-x="717" d="M612 688V294Q612 162 597 102T529 17T359 -8Q241 -8 189 17T121 102T105 294V688H141V264Q141 158 154 112T211 46T359 26Q462 26 506 45T563 111T576 264V688H612ZM377 750L251 883V888H297L404
755V750H377Z" />
<glyph unicode="&#xda;" glyph-name="Uacute" horiz-adv-x="717" d="M612 688V294Q612 162 597 102T529 17T359 -8Q241 -8 189 17T121 102T105 294V688H141V264Q141 158 154 112T211 46T359 26Q462 26 506 45T563 111T576 264V688H612ZM328 750V755L435 888H481V883L355
750H328Z" />
<glyph unicode="&#xdb;" glyph-name="Ucircumflex" horiz-adv-x="717" d="M612 688V294Q612 162 597 102T529 17T359 -8Q241 -8 189 17T121 102T105 294V688H141V264Q141 158 154 112T211 46T359 26Q462 26 506 45T563 111T576 264V688H612ZM229 750V755L336 888H382L489
755V750H462L359 858L256 750H229Z" />
<glyph unicode="&#xdc;" glyph-name="Udieresis" horiz-adv-x="717" d="M612 688V294Q612 162 597 102T529 17T359 -8Q241 -8 189 17T121 102T105 294V688H141V264Q141 158 154 112T211 46T359 26Q462 26 506 45T563 111T576 264V688H612ZM247 770V831H290V770H247ZM427
770V831H470V770H427Z" />
<glyph unicode="&#xdd;" glyph-name="Yacute" horiz-adv-x="599" d="M281 0V281L20 688H62L296 319H303L538 688H579L317 281V0H281ZM282 750V755L389 888H435V883L309 750H282Z" />
<glyph unicode="&#xde;" glyph-name="Thorn" horiz-adv-x="655" d="M115 688H151V557H403Q487 557 528 530T579 460T590 350Q590 283 579 241T527 171T403 143H151V0H115V688ZM401 177Q469 177 502 197T544 252T554 350Q554 413 546 448T504 503T401 523H151V177H401Z" />
<glyph unicode="&#xdf;" glyph-name="germandbls" horiz-adv-x="613" d="M249 0V32H322Q408 32 443 44T491 97T503 234Q503 308 488 348T435 405T330 422H289V454H330Q418 454 456 483T494 582Q494 634 479 663T425 705T316 718Q250 718 211 703T153 645T134 522V0H100V527Q100
606 121 654T190 726T324 750Q404 750 448 731T511 675T529 577Q529 517 501 485T413 443V439Q477 429 507 384T538 243Q538 145 524 95T468 22T342 0H249Z" />
<glyph unicode="&#xe0;" glyph-name="agrave" horiz-adv-x="574" d="M182 -8T143 3T85 46T65 138Q65 195 78 226T124 270T216 283Q246 283 439 278V324Q439 401 426 433T379 476T263 486Q228 486 179 482T101 473V506Q170 518 277 518Q362 518 403 503T459 449T474
330V0H446L443 83H439Q420 28 370 10T249 -8Q182 -8 143 3ZM315 24T356 35T415 84Q428 113 433 142T439 210V251H226Q172 251 147 243T111 212T100 138Q100 90 112 66T155 33T248 24Q315 24 356 35ZM306 605L180 738V743H226L333 610V605H306Z" />
<glyph unicode="&#xe1;" glyph-name="aacute" horiz-adv-x="574" d="M182 -8T143 3T85 46T65 138Q65 195 78 226T124 270T216 283Q246 283 439 278V324Q439 401 426 433T379 476T263 486Q228 486 179 482T101 473V506Q170 518 277 518Q362 518 403 503T459 449T474
330V0H446L443 83H439Q420 28 370 10T249 -8Q182 -8 143 3ZM315 24T356 35T415 84Q428 113 433 142T439 210V251H226Q172 251 147 243T111 212T100 138Q100 90 112 66T155 33T248 24Q315 24 356 35ZM254 605V610L361 743H407V738L281 605H254Z" />
<glyph unicode="&#xe2;" glyph-name="acircumflex" horiz-adv-x="574" d="M182 -8T143 3T85 46T65 138Q65 195 78 226T124 270T216 283Q246 283 439 278V324Q439 401 426 433T379 476T263 486Q228 486 179 482T101 473V506Q170 518 277 518Q362 518 403 503T459
449T474 330V0H446L443 83H439Q420 28 370 10T249 -8Q182 -8 143 3ZM315 24T356 35T415 84Q428 113 433 142T439 210V251H226Q172 251 147 243T111 212T100 138Q100 90 112 66T155 33T248 24Q315 24 356 35ZM160 605V610L267 743H313L420 610V605H393L290 713L187
605H160Z" />
<glyph unicode="&#xe3;" glyph-name="atilde" horiz-adv-x="574" d="M182 -8T143 3T85 46T65 138Q65 195 78 226T124 270T216 283Q246 283 439 278V324Q439 401 426 433T379 476T263 486Q228 486 179 482T101 473V506Q170 518 277 518Q362 518 403 503T459 449T474
330V0H446L443 83H439Q420 28 370 10T249 -8Q182 -8 143 3ZM315 24T356 35T415 84Q428 113 433 142T439 210V251H226Q172 251 147 243T111 212T100 138Q100 90 112 66T155 33T248 24Q315 24 356 35ZM458 688T446 668T396 648Q369 648 344 654T276 676Q243 687 221
693T177 699Q155 699 149 686T142 637H115Q115 692 127 712T177 732Q204 732 229 726T297 704Q330 693 352 687T396 681Q418 681 424 694T431 743H458Q458 688 446 668Z" />
<glyph unicode="&#xe4;" glyph-name="adieresis" horiz-adv-x="574" d="M182 -8T143 3T85 46T65 138Q65 195 78 226T124 270T216 283Q246 283 439 278V324Q439 401 426 433T379 476T263 486Q228 486 179 482T101 473V506Q170 518 277 518Q362 518 403 503T459
449T474 330V0H446L443 83H439Q420 28 370 10T249 -8Q182 -8 143 3ZM315 24T356 35T415 84Q428 113 433 142T439 210V251H226Q172 251 147 243T111 212T100 138Q100 90 112 66T155 33T248 24Q315 24 356 35ZM179 670V731H222V670H179ZM359 670V731H402V670H359Z"
/>
<glyph unicode="&#xe5;" glyph-name="aring" horiz-adv-x="574" d="M182 -8T143 3T85 46T65 138Q65 195 78 226T124 270T216 283Q246 283 439 278V324Q439 401 426 433T379 476T263 486Q228 486 179 482T101 473V506Q170 518 277 518Q362 518 403 503T459 449T474
330V0H446L443 83H439Q420 28 370 10T249 -8Q182 -8 143 3ZM315 24T356 35T415 84Q428 113 433 142T439 210V251H226Q172 251 147 243T111 212T100 138Q100 90 112 66T155 33T248 24Q315 24 356 35ZM234 612T211 620T181 647T174 705Q174 745 180 763T210 790T286
799Q339 799 362 791T392 764T399 705Q399 665 393 647T363 621T286 612Q234 612 211 620ZM325 640T341 645T362 663T366 705Q366 735 362 747T342 765T286 771Q247 771 231 766T211 748T207 705Q207 675 211 663T231 646T286 640Q325 640 341 645Z" />
<glyph unicode="&#xe6;" glyph-name="ae" horiz-adv-x="926" d="M851 247H474Q474 150 486 105T536 42T660 24Q700 24 748 28T831 38V5Q802 -1 753 -4T655 -8Q590 -8 551 1T489 32T454 93Q430 31 379 12T249 -8Q182 -8 143 3T85 46T65 138Q65 193 78 223T124 266T216
279H439V324Q439 401 426 433T379 476T263 486Q228 486 179 482T101 473V506Q170 518 277 518Q362 518 403 503T460 446Q480 485 525 501T658 518Q749 518 789 496T840 423T851 260V247ZM570 486T534 472T486 416T474 279H816V296Q816 382 802 421T756 473T655
486Q570 486 534 472ZM439 247H226Q172 247 147 240T111 209T100 138Q100 90 112 66T155 33T248 24Q315 24 356 35T416 87Q429 114 434 143T439 210V247Z" />
<glyph unicode="&#xe7;" glyph-name="ccedilla" horiz-adv-x="458" d="M312 24T347 28T406 37V4Q383 -1 347 -4T276 -8Q252 -8 242 -7L200 -190H160V-185L214 -5Q152 3 123 31T84 110T75 254Q75 363 91 418T148 496T271 518Q303 518 339 515T401 507V474Q375 479
341 482T278 486Q204 486 169 468T122 402T110 256Q110 153 122 106T169 42T281 24Q312 24 347 28Z" />
<glyph unicode="&#xe8;" glyph-name="egrave" horiz-adv-x="562" d="M487 243H110Q110 147 122 104T172 42T296 24Q336 24 384 28T467 38V5Q438 -1 389 -4T291 -8Q195 -8 150 13T90 88T75 254Q75 368 86 419T143 494T294 518Q385 518 425 496T476 422T487 256V243ZM206
486T170 471T122 415T110 275H452V296Q452 382 438 421T392 473T291 486Q206 486 170 471ZM287 605L161 738V743H207L314 610V605H287Z" />
<glyph unicode="&#xe9;" glyph-name="eacute" horiz-adv-x="562" d="M487 243H110Q110 147 122 104T172 42T296 24Q336 24 384 28T467 38V5Q438 -1 389 -4T291 -8Q195 -8 150 13T90 88T75 254Q75 368 86 419T143 494T294 518Q385 518 425 496T476 422T487 256V243ZM206
486T170 471T122 415T110 275H452V296Q452 382 438 421T392 473T291 486Q206 486 170 471ZM258 605V610L365 743H411V738L285 605H258Z" />
<glyph unicode="&#xea;" glyph-name="ecircumflex" horiz-adv-x="562" d="M487 243H110Q110 147 122 104T172 42T296 24Q336 24 384 28T467 38V5Q438 -1 389 -4T291 -8Q195 -8 150 13T90 88T75 254Q75 368 86 419T143 494T294 518Q385 518 425 496T476 422T487
256V243ZM206 486T170 471T122 415T110 275H452V296Q452 382 438 421T392 473T291 486Q206 486 170 471ZM151 605V610L258 743H304L411 610V605H384L281 713L178 605H151Z" />
<glyph unicode="&#xeb;" glyph-name="edieresis" horiz-adv-x="562" d="M487 243H110Q110 147 122 104T172 42T296 24Q336 24 384 28T467 38V5Q438 -1 389 -4T291 -8Q195 -8 150 13T90 88T75 254Q75 368 86 419T143 494T294 518Q385 518 425 496T476 422T487 256V243ZM206
486T170 471T122 415T110 275H452V296Q452 382 438 421T392 473T291 486Q206 486 170 471ZM169 670V731H212V670H169ZM349 670V731H392V670H349Z" />
<glyph unicode="&#xec;" glyph-name="igrave" horiz-adv-x="235" d="M100 0V510H135V0H100ZM368 605L242 738V743H288L395 610V605H368Z" />
<glyph unicode="&#xed;" glyph-name="iacute" horiz-adv-x="235" d="M100 0V510H135V0H100ZM96 605V610L203 743H249V738L123 605H96Z" />
<glyph unicode="&#xee;" glyph-name="icircumflex" horiz-adv-x="235" d="M100 0V510H135V0H100ZM244 605V610L351 743H397L504 610V605H477L374 713L271 605H244Z" />
<glyph unicode="&#xef;" glyph-name="idieresis" horiz-adv-x="235" d="M100 0V510H135V0H100ZM262 670V731H305V670H262ZM442 670V731H485V670H442Z" />
<glyph unicode="&#xf0;" glyph-name="eth" horiz-adv-x="580" d="M187 -8T143 12T87 83T75 254Q75 374 87 425T143 497T290 518Q389 518 439 482L445 484Q416 574 365 642L243 621V653L342 670Q306 711 268 739V743H311Q344 721 380 677L480 695V663L401 649Q433
603 460 539T496 410Q505 348 505 279Q505 143 495 89T441 14T290 -8Q187 -8 143 12ZM382 24T417 40T461 99T470 254Q470 349 462 393T415 461T290 486Q199 486 163 469T119 409T110 254Q110 142 118 100T162 41T290 24Q382 24 417 40Z" />
<glyph unicode="&#xf1;" glyph-name="ntilde" horiz-adv-x="604" d="M469 315Q469 392 457 427T413 474T310 486Q228 486 190 458T144 387T135 264V0H100V510H128L131 427H135Q149 469 189 493T317 518Q397 518 437 499T490 439T504 320V0H469V315ZM473 688T461
668T411 648Q384 648 359 654T291 676Q258 687 236 693T192 699Q170 699 164 686T157 637H130Q130 692 142 712T192 732Q219 732 244 726T312 704Q345 693 367 687T411 681Q433 681 439 694T446 743H473Q473 688 461 668Z" />
<glyph unicode="&#xf2;" glyph-name="ograve" horiz-adv-x="580" d="M187 -8T143 12T87 83T75 254Q75 374 87 425T143 497T290 518Q393 518 437 498T493 426T505 254Q505 134 493 83T437 12T290 -8Q187 -8 143 12ZM382 24T417 40T461 99T470 254Q470 366 462 409T417
469T290 486Q199 486 163 469T119 409T110 254Q110 142 118 100T162 41T290 24Q382 24 417 40ZM298 605L172 738V743H218L325 610V605H298Z" />
<glyph unicode="&#xf3;" glyph-name="oacute" horiz-adv-x="580" d="M187 -8T143 12T87 83T75 254Q75 374 87 425T143 497T290 518Q393 518 437 498T493 426T505 254Q505 134 493 83T437 12T290 -8Q187 -8 143 12ZM382 24T417 40T461 99T470 254Q470 366 462 409T417
469T290 486Q199 486 163 469T119 409T110 254Q110 142 118 100T162 41T290 24Q382 24 417 40ZM264 605V610L371 743H417V738L291 605H264Z" />
<glyph unicode="&#xf4;" glyph-name="ocircumflex" horiz-adv-x="580" d="M187 -8T143 12T87 83T75 254Q75 374 87 425T143 497T290 518Q393 518 437 498T493 426T505 254Q505 134 493 83T437 12T290 -8Q187 -8 143 12ZM382 24T417 40T461 99T470 254Q470 366
462 409T417 469T290 486Q199 486 163 469T119 409T110 254Q110 142 118 100T162 41T290 24Q382 24 417 40ZM160 605V610L267 743H313L420 610V605H393L290 713L187 605H160Z" />
<glyph unicode="&#xf5;" glyph-name="otilde" horiz-adv-x="580" d="M187 -8T143 12T87 83T75 254Q75 374 87 425T143 497T290 518Q393 518 437 498T493 426T505 254Q505 134 493 83T437 12T290 -8Q187 -8 143 12ZM382 24T417 40T461 99T470 254Q470 366 462 409T417
469T290 486Q199 486 163 469T119 409T110 254Q110 142 118 100T162 41T290 24Q382 24 417 40ZM461 688T449 668T399 648Q372 648 347 654T279 676Q246 687 224 693T180 699Q158 699 152 686T145 637H118Q118 692 130 712T180 732Q207 732 232 726T300 704Q333
693 355 687T399 681Q421 681 427 694T434 743H461Q461 688 449 668Z" />
<glyph unicode="&#xf6;" glyph-name="odieresis" horiz-adv-x="580" d="M187 -8T143 12T87 83T75 254Q75 374 87 425T143 497T290 518Q393 518 437 498T493 426T505 254Q505 134 493 83T437 12T290 -8Q187 -8 143 12ZM382 24T417 40T461 99T470 254Q470 366 462
409T417 469T290 486Q199 486 163 469T119 409T110 254Q110 142 118 100T162 41T290 24Q382 24 417 40ZM178 670V731H221V670H178ZM358 670V731H401V670H358Z" />
<glyph unicode="&#xf7;" glyph-name="divide" horiz-adv-x="540" d="M248 413V474H292V413H248ZM70 237V269H470V237H70ZM248 32V93H292V32H248Z" />
<glyph unicode="&#xf8;" glyph-name="oslash" horiz-adv-x="580" d="M487 463T496 413T505 254Q505 134 493 83T437 12T290 -8Q194 -8 153 8L113 -55H76L125 23Q93 47 84 96T75 254Q75 374 87 425T143 497T290 518Q385 518 426 502L466 565H504L455 487Q487 463
496 413ZM110 155T115 115T144 53L408 473Q374 486 290 486Q199 486 163 469T119 409T110 254Q110 155 115 115ZM382 24T417 40T461 99T470 254Q470 353 465 394T436 457L171 37Q206 24 290 24Q382 24 417 40Z" />
<glyph unicode="&#xf9;" glyph-name="ugrave" horiz-adv-x="604" d="M473 83H469Q455 41 415 17T287 -8Q207 -8 167 11T114 71T100 190V510H135V195Q135 118 147 83T191 36T294 24Q376 24 414 52T460 123T469 246V510H504V0H476L473 83ZM303 605L177 738V743H223L330
610V605H303Z" />
<glyph unicode="&#xfa;" glyph-name="uacute" horiz-adv-x="604" d="M473 83H469Q455 41 415 17T287 -8Q207 -8 167 11T114 71T100 190V510H135V195Q135 118 147 83T191 36T294 24Q376 24 414 52T460 123T469 246V510H504V0H476L473 83ZM282 605V610L389 743H435V738L309
605H282Z" />
<glyph unicode="&#xfb;" glyph-name="ucircumflex" horiz-adv-x="604" d="M473 83H469Q455 41 415 17T287 -8Q207 -8 167 11T114 71T100 190V510H135V195Q135 118 147 83T191 36T294 24Q376 24 414 52T460 123T469 246V510H504V0H476L473 83ZM172 605V610L279
743H325L432 610V605H405L302 713L199 605H172Z" />
<glyph unicode="&#xfc;" glyph-name="udieresis" horiz-adv-x="604" d="M473 83H469Q455 41 415 17T287 -8Q207 -8 167 11T114 71T100 190V510H135V195Q135 118 147 83T191 36T294 24Q376 24 414 52T460 123T469 246V510H504V0H476L473 83ZM190 670V731H233V670H190ZM370
670V731H413V670H370Z" />
<glyph unicode="&#xfd;" glyph-name="yacute" horiz-adv-x="604" d="M186 -206T114 -199V-166Q200 -174 279 -174Q364 -174 404 -152T457 -84T469 48V75H465Q436 -8 287 -8Q207 -8 167 11T114 71T100 190V510H135V195Q135 118 147 83T191 36T294 24Q376 24 414
52T460 123T469 246V510H504V67Q504 -41 487 -98T424 -180T284 -206Q186 -206 114 -199ZM282 605V610L389 743H435V738L309 605H282Z" />
<glyph unicode="&#xfe;" glyph-name="thorn" horiz-adv-x="596" d="M100 743H135V436H139Q157 480 200 499T320 518Q407 518 449 497T506 421T521 255Q521 143 506 89T449 14T320 -8Q244 -8 201 11T139 74H135V-190H100V743ZM390 24T425 40T473 102T486 255Q486
361 474 407T426 470T310 486Q242 486 202 466T147 399Q139 374 137 343T135 255Q135 201 137 170T145 119Q163 67 202 46T310 24Q390 24 425 40Z" />
<glyph unicode="&#xff;" glyph-name="ydieresis" horiz-adv-x="604" d="M186 -206T114 -199V-166Q200 -174 279 -174Q364 -174 404 -152T457 -84T469 48V75H465Q436 -8 287 -8Q207 -8 167 11T114 71T100 190V510H135V195Q135 118 147 83T191 36T294 24Q376 24
414 52T460 123T469 246V510H504V67Q504 -41 487 -98T424 -180T284 -206Q186 -206 114 -199ZM193 670V731H236V670H193ZM373 670V731H416V670H373Z" />
<glyph unicode="&#x2013;" glyph-name="endash" horiz-adv-x="470" d="M65 287V321H405V287H65Z" />
<glyph unicode="&#x2014;" glyph-name="emdash" horiz-adv-x="871" d="M65 287V321H806V287H65Z" />
<glyph unicode="&#x2018;" glyph-name="quoteleft" horiz-adv-x="176" d="M64 597Q64 634 70 653T93 680T142 688V667Q119 667 109 662T96 644T92 604V587H112V522H64V597Z" />
<glyph unicode="&#x2019;" glyph-name="quoteright" horiz-adv-x="176" d="M57 543T67 548T80 566T84 606V623H64V688H112V613Q112 576 106 557T83 530T34 522V543Q57 543 67 548Z" />
<glyph unicode="&#x201a;" glyph-name="quotesinglbase" horiz-adv-x="176" d="M57 -80T67 -75T80 -57T84 -17V0H64V65H112V-10Q112 -47 106 -66T83 -93T34 -101V-80Q57 -80 67 -75Z" />
<glyph unicode="&#x201c;" glyph-name="quotedblleft" horiz-adv-x="302" d="M64 597Q64 634 70 653T93 680T142 688V667Q119 667 109 662T96 644T92 604V587H112V522H64V597ZM190 597Q190 634 196 653T219 680T268 688V667Q245 667 235 662T222 644T218 604V587H238V522H190V597Z"
/>
<glyph unicode="&#x201d;" glyph-name="quotedblright" horiz-adv-x="302" d="M57 543T67 548T80 566T84 606V623H64V688H112V613Q112 576 106 557T83 530T34 522V543Q57 543 67 548ZM183 543T193 548T206 566T210 606V623H190V688H238V613Q238 576 232 557T209
530T160 522V543Q183 543 193 548Z" />
<glyph unicode="&#x201e;" glyph-name="quotedblbase" horiz-adv-x="302" d="M57 -80T67 -75T80 -57T84 -17V0H64V65H112V-10Q112 -47 106 -66T83 -93T34 -101V-80Q57 -80 67 -75ZM183 -80T193 -75T206 -57T210 -17V0H190V65H238V-10Q238 -47 232 -66T209 -93T160
-101V-80Q183 -80 193 -75Z" />
<glyph unicode="&#x2022;" glyph-name="bullet" horiz-adv-x="355" d="M280 294T275 275T248 248T176 241Q126 241 106 248T81 274T75 342Q75 392 80 411T106 438T176 446Q228 446 248 439T274 412T280 342Q280 294 275 275Z" />
<glyph unicode="&#x2039;" glyph-name="guilsinglleft" horiz-adv-x="303" d="M192 99L60 304L192 510H223L104 304L223 99H192Z" />
<glyph unicode="&#x203a;" glyph-name="guilsinglright" horiz-adv-x="303" d="M80 99L199 304L80 510H111L243 304L111 99H80Z" />
</font>
</defs>
</svg>
