<?xml version="1.0" standalone="no"?>
<!DOCTYPE svg PUBLIC "-//W3C//DTD SVG 1.1//EN" "http://www.w3.org/Graphics/SVG/1.1/DTD/svg11.dtd">
<svg xmlns="http://www.w3.org/2000/svg">
<defs >
<font id="PlayfairDisplaySC" horiz-adv-x="1241" ><font-face
    font-family="Playfair Display SC"
    units-per-em="2048"
    panose-1="0 0 8 0 0 0 0 0 0 0"
    ascent="2216"
    descent="-514"
    alphabetic="0" />
<glyph unicode=" " glyph-name="space" horiz-adv-x="523" />
<glyph unicode="!" glyph-name="exclam" horiz-adv-x="643" d="M281 557T297 702T324 1044Q333 1201 342 1282Q345 1362 367 1434T435 1554T554 1602Q621 1602 657 1565T693 1461Q693 1446 692 1438Q683 1349 640 1243T512 963Q427 789 373 663T281 401L244 408Q281
557 297 702ZM51 147T77 191T148 262T248 288Q314 288 350 255T386 163Q386 114 359 70T286 -1T187 -29Q123 -29 87 3T51 92Q51 147 77 191Z" />
<glyph unicode="&quot;" glyph-name="quotedbl" horiz-adv-x="800" d="M896 1348T871 1299T789 1167Q717 1065 685 999H657Q655 1080 639 1195Q629 1260 629 1300Q629 1320 630 1330Q635 1401 679 1448T791 1495Q840 1495 867 1469T896 1398Q896 1348 871 1299ZM563
1348T538 1299T456 1167Q384 1065 352 999H324Q322 1080 306 1195Q296 1260 296 1300Q296 1320 297 1330Q302 1401 346 1448T458 1495Q507 1495 534 1469T563 1398Q563 1348 538 1299Z" />
<glyph unicode="#" glyph-name="numbersign" horiz-adv-x="1280" d="M813 547H1107L1086 506H794L656 207H607L745 506H411L273 207H224L362 506H62L81 547H381L540 889H240L257 930H559L699 1233H748L608 930H942L1082 1233H1131L991 930H1283L1266 889H972L813
547ZM589 889L430 547H764L923 889H589Z" />
<glyph unicode="$" glyph-name="dollar" horiz-adv-x="1249" d="M1196 1335T1232 1273T1269 1135Q1269 1077 1250 1029T1196 952T1112 924Q1044 924 1005 972T966 1098Q966 1169 993 1230T1062 1358Q1018 1392 950 1412L796 857Q897 767 957 705T1060 565T1103
405Q1103 256 1020 161T811 21T550 -28L483 -270H438L505 -29Q435 -29 365 -17L295 -270H249L322 -7Q231 17 142 75Q78 116 43 177T7 315Q7 373 26 421T81 498T164 526Q232 526 271 478T310 352Q310 281 284 221T215 92Q263 55 334 35L500 634Q426 705 375 765T292
896T259 1045Q259 1189 328 1285T506 1427T735 1478L802 1720H847L780 1479Q856 1478 920 1465L991 1720H1036L962 1455Q1043 1433 1135 1375Q1196 1335 1232 1273ZM851 1435T783 1435H768L647 998Q684 957 760 889L908 1423Q851 1435 783 1435ZM536 1134T612 1038L721
1430Q638 1415 587 1361T536 1219Q536 1134 612 1038ZM518 16L649 491Q616 526 536 600L377 26Q428 16 493 16H518ZM782 340T684 453L563 20Q782 44 782 239Q782 340 684 453Z" />
<glyph unicode="%" glyph-name="percent" horiz-adv-x="1630" d="M40 -113L9 -86L1715 1688L1746 1661L40 -113ZM229 1230T290 1330T456 1495T690 1559Q815 1559 884 1496T954 1321Q954 1219 894 1119T728 954T496 890Q371 890 300 952T229 1128Q229 1230 290
1330ZM603 1528T550 1448T469 1254T440 1052Q440 989 458 955T510 921Q581 921 634 1001T715 1195T743 1399Q743 1461 725 1494T674 1528Q603 1528 550 1448ZM763 311T824 411T990 575T1223 639Q1348 639 1418 577T1488 402Q1488 300 1428 200T1262 35T1029 -29Q904
-29 834 33T763 209Q763 311 824 411ZM1137 609T1084 529T1003 335T974 133Q974 70 991 36T1043 2Q1114 2 1167 82T1248 276T1277 480Q1277 541 1259 575T1207 609Q1137 609 1084 529Z" />
<glyph unicode="&amp;" glyph-name="ampersand" horiz-adv-x="1768" d="M1717 1479T1792 1414T1867 1206Q1867 1101 1824 1024T1696 892T1479 789Q1450 778 1352 743Q1439 648 1439 509Q1439 375 1355 251T1103 49T698 -29Q512 -29 368 22T141 175T59 421Q59 552
127 663T319 853T610 967Q520 998 475 1054T430 1180Q430 1261 488 1319T638 1408T829 1438Q954 1438 1020 1393T1087 1273Q1087 1227 1064 1195T1004 1146T929 1130L930 1167Q978 1167 1010 1195T1042 1268Q1042 1317 1002 1346T895 1375Q822 1375 758 1338T656
1235T617 1084Q617 1026 639 979Q712 991 768 991Q842 991 842 948Q842 927 823 916T778 905Q730 905 637 950Q565 923 508 860T418 710T385 527Q385 342 508 245T849 147Q994 147 1119 190T1320 319T1397 528Q1397 650 1321 732Q1321 732 1150 675Q978 617 956
609Q764 547 764 435Q764 378 806 350T910 321Q990 321 1045 361T1124 448L1155 432Q1126 372 1062 327T902 282Q837 282 782 305T691 381T656 515Q656 761 1014 877Q1031 882 1052 889T1099 904Q1419 1008 1552 1057Q1631 1087 1681 1112T1766 1177T1801 1275Q1801
1326 1774 1364T1701 1424T1598 1445Q1556 1445 1539 1433Q1627 1396 1627 1314Q1627 1270 1601 1236T1533 1184T1444 1165Q1379 1165 1338 1201T1296 1295Q1296 1348 1330 1388T1423 1450Q1491 1479 1589 1479Q1717 1479 1792 1414Z" />
<glyph unicode="&apos;" glyph-name="quotesingle" horiz-adv-x="468" d="M563 1348T538 1299T456 1167Q384 1065 352 999H324Q322 1080 306 1195Q296 1260 296 1300Q296 1320 297 1330Q302 1401 346 1448T458 1495Q507 1495 534 1469T563 1398Q563 1348 538 1299Z" />
<glyph unicode="(" glyph-name="parenleft" horiz-adv-x="812" d="M354 -245T264 -124T123 140T72 457Q72 679 196 900T537 1315T1033 1651L1053 1624Q831 1464 677 1285T438 884T353 391Q353 182 396 6T529 -346L492 -373Q354 -245 264 -124Z" />
<glyph unicode=")" glyph-name="parenright" horiz-adv-x="813" d="M477 1523T567 1402T708 1138T759 821Q759 599 635 378T294 -37T-202 -373L-222 -346Q0 -186 154 -7T393 394T478 887Q478 1096 435 1272T302 1624L339 1651Q477 1523 567 1402Z" />
<glyph unicode="*" glyph-name="asterisk" horiz-adv-x="992" d="M1044 1262T1044 1245Q1044 1179 959 1136Q924 1119 884 1110T759 1085Q682 1073 630 1062Q679 1051 743 1040Q822 1025 860 1015T924 988Q967 960 967 918Q967 882 937 845Q898 795 846 795Q816
795 786 815Q760 833 738 862T680 951L622 1043Q624 1017 634 931Q646 842 646 796Q646 762 641 739Q626 682 591 656T514 629Q480 629 458 646T436 701Q436 716 441 739Q449 776 471 818T541 939Q578 1000 606 1050L509 961Q438 895 401 863T329 813Q292 794 259
794Q205 794 189 845Q183 860 183 876Q183 941 268 985Q305 1003 350 1013T476 1037Q544 1048 600 1059Q523 1075 484 1082Q405 1097 367 1107T303 1134Q261 1161 261 1204Q261 1240 291 1277Q330 1327 381 1327Q412 1327 442 1307Q469 1290 490 1261T549 1170Q585
1110 611 1071Q610 1076 598 1166Q582 1274 582 1322Q582 1354 588 1382Q601 1439 636 1466T714 1493Q748 1493 769 1475T791 1420Q791 1405 786 1382Q779 1347 758 1307T695 1196Q646 1112 626 1076Q658 1105 726 1168Q794 1231 829 1261T898 1309Q936 1328 968
1328Q1022 1328 1038 1277Q1044 1262 1044 1245Z" />
<glyph unicode="+" glyph-name="plus" horiz-adv-x="1178" d="M734 1241H807L670 758H1145L1127 696H652L514 215H441L578 696H101L119 758H596L734 1241Z" />
<glyph unicode="," glyph-name="comma" horiz-adv-x="587" d="M342 9T261 -103T37 -279L27 -246Q120 -199 181 -127T249 30Q188 -29 120 -29Q59 -29 26 -1T-7 81Q-7 136 22 183T100 259T206 288Q272 288 307 250T342 138Q342 9 261 -103Z" />
<glyph unicode="-" glyph-name="hyphen" horiz-adv-x="1036" d="M848 457H109L154 626H893L848 457Z" />
<glyph unicode="." glyph-name="period" horiz-adv-x="571" d="M-1 147T25 191T96 262T196 288Q262 288 298 255T334 163Q334 114 307 70T234 -1T135 -29Q71 -29 35 3T-1 92Q-1 147 25 191Z" />
<glyph unicode="/" glyph-name="slash" horiz-adv-x="944" d="M1099 1479L-23 -29H-91L1032 1479H1099Z" />
<glyph unicode="0" glyph-name="zero" horiz-adv-x="1273" d="M907 1088T997 1043T1135 914T1183 715Q1183 532 1083 360T816 79T457 -29Q332 -29 240 15T99 144T49 346Q49 528 150 700T420 980T781 1088Q907 1088 997 1043ZM636 1051T545 942T401 659T348 305Q348
153 387 81T490 8Q603 8 693 120T833 407T884 760Q884 910 847 980T748 1051Q636 1051 545 942Z" />
<glyph unicode="1" glyph-name="one" horiz-adv-x="761" d="M108 0L365 865Q270 824 93 779L99 822Q238 856 344 899T522 983T678 1082H719L397 0H108Z" />
<glyph unicode="2" glyph-name="two" horiz-adv-x="1095" d="M752 1087T826 1061T940 987T980 872Q980 781 907 695T734 539T481 378Q341 293 302 264Q345 264 467 238Q610 207 677 207Q758 207 805 232T853 305Q853 368 777 406L800 433Q859 401 886 360T914
258Q914 188 880 127T775 27T596 -12Q527 -12 401 17Q329 33 277 41T167 50Q106 50 60 39T-50 0L-40 43Q-9 67 71 126Q242 251 368 358T594 599T693 863Q693 944 652 987T537 1030Q457 1030 375 984T239 863T185 713Q185 662 212 638T303 614Q358 614 399 634T492
698L517 670Q463 619 404 595T290 571Q227 571 182 602T136 711Q136 802 203 889T388 1031T652 1087Q752 1087 826 1061Z" />
<glyph unicode="3" glyph-name="three" horiz-adv-x="1060" d="M736 1090T812 1065T929 994T970 885Q970 794 899 719T718 591T496 512Q673 509 779 447T886 260Q886 95 715 -34T295 -234T-177 -309L-167 -272Q6 -261 179 -193T468 0T584 293Q584 375 552 425T460
479Q412 460 388 452T341 444Q304 444 304 465Q304 467 306 475Q314 513 404 513Q429 513 443 512Q554 559 625 643T696 836Q696 923 646 971T505 1020Q433 1020 362 985T245 892T199 777Q199 726 226 702T317 678Q385 678 444 709L467 678Q385 635 303 635Q240
635 195 666T150 775Q150 850 215 923T391 1043T634 1090Q736 1090 812 1065Z" />
<glyph unicode="4" glyph-name="four" horiz-adv-x="1096" d="M663 94L560 -289H271L374 94H-118L-106 137L876 1088H929L682 167H949L929 94H663ZM539 707L-18 167H394L539 707Z" />
<glyph unicode="5" glyph-name="five" horiz-adv-x="966" d="M857 952T780 877T605 801Q577 801 548 810T470 838Q386 873 348 873Q337 873 332 872L142 462Q276 535 458 535Q636 535 722 471T809 291Q809 112 650 -21T259 -225T-181 -303L-170 -266Q-18 -265
139 -198T399 -5T503 287Q503 473 312 473Q216 473 110 418L90 428L374 1061Q413 1063 445 1057T528 1038Q626 1010 696 1010Q761 1010 807 1030T886 1102L910 1087Q857 952 780 877Z" />
<glyph unicode="6" glyph-name="six" horiz-adv-x="1160" d="M941 1387T762 1223T468 805T353 251Q353 159 365 107T401 33T460 12Q547 12 618 112T730 356T771 620Q771 801 670 801Q618 801 568 750T484 589L450 600Q535 897 784 897Q869 897 934 862T1037 756T1074
587Q1074 429 983 287T739 58T409 -29Q57 -29 57 348Q57 629 231 875T655 1281T1117 1479L1130 1438Q941 1387 762 1223Z" />
<glyph unicode="7" glyph-name="seven" horiz-adv-x="1031" d="M1038 922Q872 731 780 612T611 342T485 0Q468 -68 459 -119Q456 -142 451 -162Q437 -224 390 -263T268 -303Q146 -303 146 -189Q146 -157 156 -115Q186 15 288 162T515 441T827 757Q981 907 1037
967Q930 896 871 862T752 807T628 786Q578 786 540 795T450 821Q366 851 310 851Q243 851 202 821T161 729Q161 582 408 522L397 489Q87 551 87 784Q87 858 121 923T227 1029T408 1070Q468 1070 520 1059T652 1024Q735 999 792 987T919 975Q978 975 1021 992T1099
1058H1156L1038 922Z" />
<glyph unicode="8" glyph-name="eight" horiz-adv-x="1177" d="M1197 1039T762 832L792 805Q867 737 912 688T989 573T1020 428Q1020 298 934 194T705 30T398 -29Q283 -29 192 0T48 89T-5 239Q-5 394 144 522T512 738Q448 799 408 845T342 951T315 1081Q315 1197
391 1288T591 1429T855 1479Q1007 1479 1102 1423T1197 1259Q1197 1039 762 832ZM818 929T869 1042T920 1274Q920 1442 805 1442Q746 1442 694 1402T609 1295T576 1152Q576 1065 618 996T739 853Q818 929 869 1042ZM515 8T585 54T698 179T742 352Q742 429 714 492T644
604T534 718Q462 664 406 585T317 409T285 211Q285 114 320 61T438 8Q515 8 585 54Z" />
<glyph unicode="9" glyph-name="nine" horiz-adv-x="1135" d="M1056 1087T1056 711Q1056 439 885 200T469 -195T16 -385L4 -344Q186 -295 361 -135T647 272T759 808Q759 900 747 952T711 1026T652 1047Q566 1047 495 947T383 703T342 439Q342 258 443 258Q495
258 545 309T629 470L663 459Q578 162 328 162Q243 162 178 197T76 302T39 471Q39 629 129 771T373 1000T704 1087Q1056 1087 1056 711Z" />
<glyph unicode=":" glyph-name="colon" horiz-adv-x="637" d="M29 147T55 191T126 262T226 288Q292 288 328 255T364 163Q364 114 337 70T264 -1T165 -29Q101 -29 65 3T29 92Q29 147 55 191ZM234 947T260 991T331 1062T431 1088Q497 1088 533 1055T569 963Q569
914 542 870T469 799T370 771Q306 771 270 803T234 892Q234 947 260 991Z" />
<glyph unicode=";" glyph-name="semicolon" horiz-adv-x="650" d="M244 947T270 991T341 1062T441 1088Q507 1088 543 1055T579 963Q579 914 552 870T479 799T380 771Q316 771 280 803T244 892Q244 947 270 991ZM367 9T286 -103T62 -279L52 -246Q145 -199 206
-127T274 30Q213 -29 145 -29Q84 -29 51 -1T18 81Q18 136 47 183T125 259T231 288Q297 288 332 250T367 138Q367 9 286 -103Z" />
<glyph unicode="&lt;" glyph-name="less" horiz-adv-x="1216" d="M252 719L930 362L897 297L98 727L1229 1192L1249 1133L252 719Z" />
<glyph unicode="=" glyph-name="equal" horiz-adv-x="1331" d="M1256 901L1238 840H212L230 901H1256ZM1174 614L1156 553H130L148 614H1174Z" />
<glyph unicode="&gt;" glyph-name="greater" horiz-adv-x="1219" d="M1040 770L282 1176L315 1235L1194 762L118 317L98 377L1040 770Z" />
<glyph unicode="?" glyph-name="question" horiz-adv-x="995" d="M568 1557T517 1542T439 1495Q474 1496 507 1479T560 1432T581 1365Q581 1325 560 1291T503 1237T423 1217Q363 1217 321 1254T279 1355Q279 1439 343 1494T504 1576T703 1602Q810 1602 899 1573T1041
1487T1094 1348Q1094 1287 1057 1226T942 1091T728 918Q584 812 521 760T429 661T400 556Q400 498 435 462T539 425Q583 425 626 439T696 478Q657 489 628 522T599 604Q599 661 638 700T740 739Q789 739 824 707T859 623Q859 544 799 490T649 410T474 384Q336 384
250 442T163 613Q163 685 200 746T294 860T457 994L496 1024Q612 1116 667 1166T754 1269T785 1383Q785 1462 742 1509T615 1557Q568 1557 517 1542ZM228 147T254 191T325 262T425 288Q491 288 527 255T563 163Q563 114 536 70T463 -1T364 -29Q300 -29 264 3T228
92Q228 147 254 191Z" />
<glyph unicode="@" glyph-name="at" horiz-adv-x="1767" d="M924 53T924 194Q924 227 930 260Q874 151 803 102T641 53Q533 53 471 116T408 304Q408 447 485 606T689 872T952 979Q1025 979 1059 944T1097 839L1130 950Q1292 950 1389 979L1172 240Q1158 192 1158
167Q1158 119 1205 119Q1272 119 1383 195T1580 417T1666 760Q1666 937 1588 1054T1374 1226T1057 1282Q780 1282 561 1145T221 787T99 324Q99 119 189 -14T430 -208T769 -270Q1044 -270 1260 -145L1273 -172Q1179 -233 1050 -269T769 -305Q571 -305 411 -241T154
-37T57 320Q57 569 181 800T533 1175T1056 1319Q1252 1319 1398 1258T1626 1072T1708 761Q1708 546 1608 385T1362 139T1085 53Q924 53 924 194ZM819 152T876 233T992 482L1072 754Q1074 776 1074 789Q1074 907 996 907Q927 907 850 816T722 585T670 305Q670 226
690 189T753 152Q819 152 876 233Z" />
<glyph unicode="A" glyph-name="A" horiz-adv-x="1337" d="M1098 105T1127 74T1193 41L1185 0Q1080 6 888 6Q679 6 580 0L589 41Q655 44 692 56T748 100T766 190L765 213L747 549H304L123 294Q58 202 58 143Q58 51 229 41L220 0Q48 6 -48 6Q-125 6 -189 0L-180
41Q-127 55 -77 102T52 258L906 1460Q940 1458 959 1458Q980 1458 1010 1460L1092 172Q1098 105 1127 74ZM715 1131L333 590H745L715 1131Z" />
<glyph unicode="B" glyph-name="B" horiz-adv-x="1390" d="M953 754T1056 712T1212 600T1264 443Q1264 302 1178 202T939 51T590 0Q561 0 471 2Q343 6 231 6Q26 6 -86 0L-78 41Q-4 44 32 57T91 105T133 217L403 1233Q421 1298 421 1332Q421 1372 391 1390T283
1409L293 1450Q401 1444 604 1444Q675 1444 777 1446Q863 1448 903 1448Q1134 1448 1244 1377T1354 1177Q1354 1071 1285 983T1091 836T803 761Q953 754 1056 712ZM832 1409T808 1397T767 1355T735 1264L605 770H677Q786 770 867 831T990 994T1032 1210Q1032 1307
997 1358T875 1409Q832 1409 808 1397ZM661 47T747 105T878 261T922 480Q922 597 866 666T686 735H596L459 217Q442 151 442 123Q442 86 464 67T540 47Q661 47 747 105Z" />
<glyph unicode="C" glyph-name="C" horiz-adv-x="1419" d="M1459 1273T1396 979H1351Q1367 1077 1367 1142Q1367 1236 1334 1296Q1261 1430 1092 1430Q927 1430 779 1286T542 911T452 438Q452 235 525 134T730 33Q808 33 891 69T1035 168Q1088 223 1128 294T1220
492H1265Q1168 137 1144 0H1099Q1105 44 1105 70Q1105 122 1080 122Q1064 122 1038 104Q943 40 849 6T637 -29Q363 -29 225 101T87 478Q87 720 215 952T569 1332T1067 1479Q1146 1479 1202 1461T1296 1415T1371 1346Q1386 1328 1401 1328Q1438 1328 1484 1450H1527Q1459
1273 1396 979Z" />
<glyph unicode="D" glyph-name="D" horiz-adv-x="1579" d="M1549 726T1434 505T1091 142T539 0Q519 0 437 2Q323 6 230 6Q28 6 -77 0L-71 41Q-1 44 34 57T92 105T134 217L402 1233Q417 1291 417 1321Q417 1364 388 1384T283 1409L289 1450Q431 1443 560 1443L625
1444Q841 1450 931 1450Q1230 1450 1389 1326T1549 961Q1549 726 1434 505ZM748 37T902 182T1136 555T1217 1025Q1217 1219 1138 1316T886 1413Q833 1413 807 1400T765 1353T727 1237L459 213Q437 130 437 100Q437 65 459 51T539 37Q748 37 902 182Z" />
<glyph unicode="E" glyph-name="E" horiz-adv-x="1282" d="M1249 1444T1375 1450Q1325 1316 1297 1208Q1280 1142 1270 1081H1224Q1227 1122 1227 1156Q1227 1249 1205 1302T1133 1379T1000 1403H936Q864 1403 829 1391T772 1345T729 1233L600 750H676Q778 750
847 821T957 995H1003Q970 896 940 778L927 729Q902 636 869 463H823Q825 493 825 508Q825 709 654 709H589L458 217Q440 153 440 118Q440 88 453 73T495 53T576 47H652Q763 47 838 81T973 192T1094 410H1140Q1118 352 1096 262Q1062 138 1042 0Q903 6 577 6Q134
6 -88 0L-79 41Q-5 44 32 57T90 105T132 217L403 1233Q421 1303 421 1332Q421 1362 407 1378T365 1400T283 1409L294 1450Q515 1444 958 1444Q1249 1444 1375 1450Z" />
<glyph unicode="F" glyph-name="F" horiz-adv-x="1205" d="M1249 1444T1375 1450Q1326 1317 1295 1200Q1265 1096 1251 1020H1205Q1213 1094 1213 1143Q1213 1239 1188 1296T1110 1378T971 1403H924Q856 1403 823 1391T769 1345T729 1233L598 741H692Q792 741
858 809T972 987H1018Q983 879 950 749L943 721Q913 597 879 418H833Q834 434 834 464Q834 579 798 639T671 700H587L458 217Q442 156 442 127Q442 93 459 75T513 50T619 41L610 0Q484 6 245 6Q20 6 -88 0L-79 41Q-5 44 32 57T90 105T132 217L403 1233Q421 1303
421 1332Q421 1362 407 1378T365 1400T283 1409L294 1450Q515 1444 958 1444Q1249 1444 1375 1450Z" />
<glyph unicode="G" glyph-name="G" horiz-adv-x="1513" d="M740 12T782 24T854 55Q888 77 904 109T938 205L985 385Q1003 453 1003 491Q1003 527 986 545T934 571T831 582L842 623Q960 616 1190 616Q1389 616 1479 623L1468 582Q1419 578 1395 566T1355 519T1317
406L1208 0H1167Q1168 9 1168 25Q1168 68 1154 92T1110 117Q1080 117 1048 104T965 65L937 51Q787 -29 641 -29Q464 -29 338 26T145 186T78 440Q78 677 205 919T557 1320T1061 1479Q1145 1479 1206 1462T1310 1417T1397 1346Q1416 1327 1432 1327Q1471 1327 1513
1450H1559Q1492 1275 1427 979H1382Q1393 1062 1393 1133Q1393 1225 1364 1282Q1323 1359 1242 1400T1049 1442Q853 1442 706 1264T481 834T403 373Q403 189 475 101T696 12Q740 12 782 24Z" />
<glyph unicode="H" glyph-name="H" horiz-adv-x="1658" d="M1697 1444T1810 1450L1799 1409Q1724 1406 1688 1393T1630 1345T1588 1233L1318 217Q1301 151 1301 118Q1301 88 1314 72T1357 50T1439 41L1431 0Q1323 6 1095 6Q887 6 773 0L782 41Q856 44 892 57T950
105T992 217L1123 709H589L458 217Q441 151 441 118Q441 88 454 72T497 50T579 41L571 0Q457 6 249 6Q26 6 -85 0L-75 41Q-4 44 32 57T90 105T132 217L403 1233Q420 1298 420 1331Q420 1362 406 1378T364 1400T282 1409L292 1450Q397 1444 626 1444Q823 1444 949
1450L939 1409Q864 1406 828 1393T770 1345T728 1233L600 750H1134L1263 1233Q1281 1296 1281 1331Q1281 1362 1267 1378T1224 1400T1142 1409L1152 1450Q1263 1444 1472 1444Q1697 1444 1810 1450Z" />
<glyph unicode="I" glyph-name="I" horiz-adv-x="798" d="M441 151T441 118Q441 88 454 72T497 50T579 41L571 0Q453 6 237 6Q23 6 -85 0L-75 41Q-4 44 32 57T90 105T132 217L403 1233Q420 1298 420 1331Q420 1362 406 1378T364 1400T282 1409L292 1450Q394 1444
614 1444Q819 1444 949 1450L939 1409Q864 1406 828 1393T770 1345T728 1233L458 217Q441 151 441 118Z" />
<glyph unicode="J" glyph-name="J" horiz-adv-x="1400" d="M1613 1484T1613 1470Q1613 1420 1463 1364Q1341 1267 1257 1114T1110 750H1314L1307 709H1098Q1090 683 1076 629L949 133Q889 -100 742 -242T342 -385Q212 -385 134 -347T55 -229Q55 -186 76 -151T136
-96T228 -75Q297 -75 341 -108T387 -198Q387 -296 274 -344Q302 -351 331 -351Q406 -351 454 -297T535 -153T614 111L623 143L732 537Q757 629 792 709H515L521 750H810Q871 879 958 980T1148 1163T1401 1342Q1324 1316 1202 1256Q1136 1223 1092 1205T994 1174T881
1161Q820 1161 767 1175T640 1216Q577 1240 533 1252T442 1264Q385 1264 352 1235T318 1149Q318 1010 548 989L544 950Q382 963 285 1036T187 1241Q185 1322 218 1383T316 1479T477 1513Q539 1513 591 1499T686 1465T786 1410Q847 1375 888 1355T982 1321T1098
1307Q1277 1307 1445 1386Q1522 1506 1572 1506Q1586 1506 1600 1495Q1613 1484 1613 1470Z" />
<glyph unicode="K" glyph-name="K" horiz-adv-x="1515" d="M1483 1479T1535 1429T1588 1297Q1588 1249 1567 1202T1503 1124T1402 1093Q1343 1093 1304 1129T1265 1228Q1265 1289 1307 1346T1418 1434Q1404 1441 1384 1441Q1349 1440 1325 1429T1279 1395Q1246
1358 1223 1303T1169 1150Q1134 1037 1104 966T1020 838T886 762Q993 750 1056 719T1149 633T1178 488Q1178 448 1174 411L1151 196Q1150 191 1150 181Q1150 121 1203 121Q1241 121 1267 151T1316 244L1351 348H1392L1339 190Q1301 80 1230 26T1064 -29Q950 -29
889 27T827 182Q827 196 831 230L871 517Q876 557 876 600Q876 652 864 683T824 735Q740 713 699 713Q647 713 647 746Q647 753 648 756Q651 777 664 787T707 797Q750 797 826 776Q918 789 976 845T1065 973T1131 1161Q1162 1264 1186 1322T1248 1419Q1309 1479
1395 1479Q1483 1479 1535 1429ZM441 151T441 118Q441 88 454 72T497 50T579 41L571 0Q457 6 249 6Q26 6 -85 0L-75 41Q-4 44 32 57T90 105T132 217L403 1233Q420 1298 420 1331Q420 1362 406 1378T364 1400T282 1409L292 1450Q397 1444 626 1444Q823 1444 949
1450L939 1409Q864 1406 828 1393T770 1345T728 1233L458 217Q441 151 441 118Z" />
<glyph unicode="L" glyph-name="L" horiz-adv-x="1238" d="M1129 371T1101 262Q1067 138 1047 0Q908 6 582 6Q134 6 -88 0L-79 41Q-5 44 32 57T90 105T132 217L403 1233Q421 1303 421 1332Q421 1362 407 1378T365 1400T283 1409L294 1450Q400 1444 631 1444Q825
1444 950 1450L940 1409Q865 1406 829 1393T771 1345T728 1233L457 217Q439 153 439 117Q439 88 452 73T494 53T575 47H657Q803 47 913 136T1105 430H1151Q1129 371 1101 262Z" />
<glyph unicode="M" glyph-name="M" horiz-adv-x="1877" d="M1897 1444T2029 1450L2019 1409Q1944 1406 1907 1393T1849 1345T1808 1233L1537 217Q1520 152 1520 119Q1520 88 1534 72T1576 50T1658 41L1650 0Q1521 6 1322 6Q1099 6 995 0L1003 41Q1078 44 1114
57T1172 105T1214 217L1511 1321L661 -10H616L451 1246L192 263Q176 204 176 164Q176 106 214 75T346 41L337 0Q265 6 108 6Q-17 6 -86 0L-77 41Q-9 44 34 71T102 145T146 263L405 1233Q422 1298 422 1331Q422 1362 408 1378T366 1400T284 1409L294 1450Q389 1444
575 1444Q683 1444 760 1450L876 404L1539 1444H1699Q1897 1444 2029 1450Z" />
<glyph unicode="N" glyph-name="N" horiz-adv-x="1689" d="M1778 1544T1821 1521T1887 1459T1910 1371Q1910 1319 1886 1276T1820 1208T1724 1183Q1657 1183 1621 1217T1584 1306Q1584 1373 1627 1425T1738 1496Q1726 1506 1704 1506Q1606 1505 1533 1397Q1442
1261 1344 920T1121 -10H1076L568 1102Q481 670 402 372T249 -23Q202 -83 153 -117T29 -152Q-32 -152 -75 -129T-140 -66T-163 23Q-163 75 -139 118T-73 185T23 210Q89 210 126 176T163 87Q163 19 120 -32T9 -104Q19 -113 42 -113Q146 -113 216 -2Q295 121 378
441T560 1278Q564 1302 564 1324Q564 1358 550 1375T502 1400T406 1409L417 1450Q481 1444 599 1444Q694 1444 765 1450L1188 475Q1359 1215 1496 1413Q1586 1544 1717 1544Q1778 1544 1821 1521Z" />
<glyph unicode="O" glyph-name="O" horiz-adv-x="1591" d="M86 695T204 932T535 1324T1014 1479Q1187 1479 1312 1421T1504 1252T1571 985Q1571 754 1452 518T1119 126T641 -29Q468 -29 343 29T152 197T86 463Q86 695 204 932ZM856 1442T727 1295T518 913T438
436Q438 305 466 208T544 60T659 8Q799 8 928 155T1137 537T1217 1014Q1217 1145 1189 1242T1110 1390T995 1442Q856 1442 727 1295Z" />
<glyph unicode="P" glyph-name="P" horiz-adv-x="1317" d="M441 159T441 127Q441 84 471 65T578 41L569 0Q446 6 254 6Q22 6 -86 0L-78 41Q-4 44 32 57T91 105T133 217L403 1233Q419 1302 419 1329Q419 1370 390 1388T283 1409L293 1450Q398 1444 618 1444Q667
1444 765 1446Q865 1448 918 1448Q1399 1448 1399 1139Q1399 979 1293 853T994 654T554 582L457 217Q441 159 441 127ZM573 623Q744 623 852 705T1009 914T1057 1185Q1057 1297 1010 1353T858 1409Q816 1409 795 1395T761 1347T727 1233L565 623H573Z" />
<glyph unicode="Q" glyph-name="Q" horiz-adv-x="1703" d="M1444 211T1491 167T1538 40Q1538 -63 1462 -162T1254 -323T967 -385Q847 -385 748 -347T573 -253T408 -114Q249 -168 134 -168Q35 -168 -22 -126T-79 -3Q-79 62 -42 115T61 197T208 227Q284 227 358
201T498 136T657 33Q844 130 995 283T1234 628T1322 1026Q1322 1222 1243 1332T1014 1442Q875 1442 766 1350T598 1111T538 811Q538 686 588 622T748 557Q830 557 900 593T1018 689T1081 817Q1093 865 1090 915Q1069 854 1017 823T908 792Q842 792 802 835T762
945Q762 998 788 1041T858 1108T956 1133Q1041 1133 1090 1072T1140 907Q1140 790 1076 697T896 551T636 498Q505 498 405 541T250 667T194 862Q194 1034 315 1175T636 1398T1057 1479Q1237 1479 1376 1428T1592 1282T1670 1063Q1670 888 1528 690T1162 313T692
8Q794 -62 869 -106T1031 -180T1211 -210Q1399 -210 1474 -65Q1419 -110 1344 -110Q1274 -110 1230 -70T1185 39Q1185 87 1208 126T1274 188T1369 211Q1444 211 1491 167ZM237 -133T378 -86Q317 -29 274 5T183 62T86 84Q32 84 -1 57T-35 -16Q-35 -72 14 -102T151
-133Q237 -133 378 -86Z" />
<glyph unicode="R" glyph-name="R" horiz-adv-x="1456" d="M1389 248L1380 221Q1342 93 1268 32T1068 -29Q944 -29 881 24T817 169Q817 189 820 210L850 442Q855 482 855 509Q855 573 831 612T749 673T585 696L458 217Q438 141 438 117Q438 79 468 62T578 41L569
0Q446 6 249 6Q22 6 -86 0L-78 41Q-4 44 32 57T91 105T133 217L402 1233Q420 1298 420 1329Q420 1369 390 1387T283 1409L293 1450Q398 1444 603 1444Q674 1444 780 1446Q870 1448 910 1448Q1159 1448 1279 1378T1399 1163Q1399 1043 1324 948T1112 790T790 708H792Q915
697 996 675T1126 605T1174 471Q1174 450 1171 426L1144 215Q1141 190 1141 168Q1141 72 1206 72Q1245 72 1275 108T1331 219L1341 248H1389ZM610 733Q745 733 849 787T1011 945T1069 1194Q1069 1304 1022 1356T879 1409Q837 1409 812 1398T769 1358T738 1275L595
733H610Z" />
<glyph unicode="S" glyph-name="S" horiz-adv-x="1202" d="M1191 1265T1149 1047H1108Q1120 1104 1120 1161Q1120 1241 1087 1302T987 1396T827 1430Q717 1430 648 1375T579 1207Q579 1141 609 1078T685 959T807 823Q891 733 940 672T1025 537T1060 380Q1060 243
973 151T755 15T496 -29Q404 -29 341 -17T237 14T141 66Q94 96 70 96Q44 96 28 74T-17 -14H-58Q10 148 82 477H122Q104 408 104 331Q104 177 189 97T438 16Q702 16 702 231Q702 312 673 382T600 509T485 647Q412 730 369 787T296 915T266 1069Q266 1200 341 1293T532
1432T769 1479Q877 1479 951 1454T1093 1388Q1147 1356 1161 1356Q1177 1356 1192 1381T1228 1464H1269Q1191 1265 1149 1047Z" />
<glyph unicode="T" glyph-name="T" horiz-adv-x="1394" d="M1648 1758T1683 1738T1738 1685T1757 1613Q1757 1486 1615 1420Q1490 1360 1273 1360Q1223 1360 1153 1365L855 238Q839 181 839 142Q839 106 855 85T908 54T1008 41L1000 0Q871 6 621 6Q378 6 261 0L269
41Q356 44 404 62T480 120T529 238L837 1394Q674 1409 591 1409Q425 1409 360 1374Q414 1359 449 1314T484 1208Q484 1161 464 1122T407 1060T324 1037Q255 1037 216 1083T177 1197Q177 1255 207 1309T310 1398Q409 1446 584 1446Q721 1446 965 1422Q1183 1401
1291 1401Q1430 1401 1508 1428Q1438 1496 1438 1590Q1438 1664 1482 1711T1600 1758Q1648 1758 1683 1738Z" />
<glyph unicode="U" glyph-name="U" horiz-adv-x="1421" d="M1348 1232T1348 1288Q1348 1348 1314 1374T1193 1409L1205 1450Q1280 1444 1424 1444Q1537 1444 1604 1450L1593 1409Q1524 1400 1485 1375T1421 1296T1368 1139L1228 596Q1155 313 1027 162Q952 74
842 23T607 -29Q459 -29 359 13T208 132Q155 209 155 325Q155 429 198 590L368 1233Q385 1298 385 1331Q385 1362 371 1378T329 1400T247 1409L259 1450Q364 1444 597 1444Q789 1444 915 1450L902 1409Q827 1406 791 1393T733 1345T691 1233L511 555Q462 373 462
258Q462 150 507 97T646 43Q861 43 985 182T1175 573L1317 1114Q1348 1232 1348 1288Z" />
<glyph unicode="V" glyph-name="V" horiz-adv-x="1353" d="M1534 1444T1598 1450L1588 1409Q1521 1391 1467 1346T1343 1192L562 -10Q545 -9 510 -9Q475 -9 458 -10L296 1278Q287 1345 256 1376T189 1409L199 1450Q301 1444 494 1444Q699 1444 807 1450L796 1409Q734
1406 699 1396T647 1360T629 1284Q629 1263 632 1237L735 328L1275 1156Q1336 1250 1336 1308Q1336 1357 1293 1380T1166 1409L1176 1450Q1257 1444 1444 1444Q1534 1444 1598 1450Z" />
<glyph unicode="W" glyph-name="W" horiz-adv-x="2011" d="M2170 1444T2234 1450L2223 1409Q2176 1396 2139 1376T2063 1312T1983 1192L1337 -10H1231L1105 904L552 -10H447L285 1278Q276 1347 245 1377T176 1409L186 1450Q288 1444 473 1444Q648 1444 739 1450L729
1409Q689 1406 666 1396T632 1361T620 1287Q620 1255 622 1237L721 348L1096 965L1053 1278Q1044 1347 1020 1377T965 1409L974 1450Q1070 1444 1241 1444Q1454 1444 1560 1450L1550 1409Q1488 1406 1454 1396T1403 1362T1386 1290Q1386 1264 1390 1237L1500 381L1921
1156Q1972 1252 1972 1308Q1972 1359 1930 1381T1801 1409L1811 1450Q1892 1444 2079 1444Q2170 1444 2234 1450Z" />
<glyph unicode="X" glyph-name="X" horiz-adv-x="1518" d="M1552 1479T1600 1427T1648 1295Q1648 1239 1625 1193T1561 1120T1466 1093Q1404 1093 1369 1129T1334 1226Q1334 1295 1376 1351T1488 1431Q1476 1441 1454 1441Q1387 1441 1320 1393Q1242 1331 1144
1187T951 838L1021 256Q1038 116 1137 116Q1186 116 1219 146T1275 244L1310 348H1351L1298 190Q1256 75 1186 23T1013 -29Q904 -29 838 11T741 121T696 291L667 528Q589 378 486 246T290 41Q196 -29 99 -29Q14 -29 -34 23T-82 155Q-82 211 -59 257T5 330T100 357Q163
357 197 320T232 222Q232 154 190 98T78 19Q90 9 113 9Q177 10 248 57Q336 118 447 258T659 594L585 1200Q569 1343 471 1343Q423 1343 390 1310T331 1206L296 1102H255L308 1260Q350 1375 424 1427T609 1479Q756 1479 824 1397T913 1159L943 904Q1017 1062 1108
1198T1280 1406Q1373 1479 1467 1479Q1552 1479 1600 1427Z" />
<glyph unicode="Y" glyph-name="Y" horiz-adv-x="1502" d="M1538 1479T1581 1455T1646 1391T1669 1301Q1669 1250 1645 1208T1579 1142T1483 1117Q1416 1117 1379 1151T1342 1242Q1342 1308 1385 1359T1496 1431Q1484 1441 1463 1441Q1403 1440 1339 1393Q1281
1351 1208 1255T1058 1008T915 667L802 217Q789 162 789 134Q789 97 805 78T855 52T947 41L937 0Q823 6 585 6Q363 6 255 0L265 41Q340 44 377 57T436 105T476 217L588 658Q557 937 499 1132T353 1328Q318 1328 296 1303T258 1232L214 1102H169L222 1260Q260 1376
332 1427T510 1479Q644 1479 720 1396T834 1161T901 748Q969 939 1055 1093T1236 1352Q1354 1479 1479 1479Q1538 1479 1581 1455Z" />
<glyph unicode="Z" glyph-name="Z" horiz-adv-x="1348" d="M1478 1450T1478 1433Q1478 1405 1440 1371T1325 1307L758 750H1069L1053 709H717L137 139Q352 324 554 324Q626 324 682 311T810 272Q863 253 901 243T979 233Q1070 233 1070 316Q1070 403 922 433L930
473Q1043 455 1119 398T1196 236Q1196 160 1160 100T1056 5T899 -29Q820 -29 759 -6T618 63Q564 94 527 111T444 141T344 154Q289 154 242 141T127 98Q91 45 49 12T-24 -21Q-40 -21 -53 -10Q-65 0 -65 17Q-65 45 -27 79T88 143L664 709H332L346 750H705L1276 1311Q1061
1126 860 1126Q788 1126 732 1139T604 1178Q551 1197 513 1207T435 1217Q392 1217 368 1196T344 1134Q344 1047 493 1017L483 977Q370 995 294 1052T217 1214Q217 1290 253 1350T357 1445T514 1479Q593 1479 654 1456T795 1387Q849 1356 886 1339T969 1309T1069
1296Q1124 1296 1171 1309T1286 1352Q1323 1405 1364 1438T1436 1471Q1452 1471 1466 1460Q1478 1450 1478 1433Z" />
<glyph unicode="[" glyph-name="bracketleft" horiz-adv-x="742" d="M911 1581L902 1542H736L267 -332H433L425 -371H-46L439 1581H911Z" />
<glyph unicode="\" glyph-name="backslash" horiz-adv-x="1005" d="M732 -29L269 1479H333L800 -29H732Z" />
<glyph unicode="]" glyph-name="bracketright" horiz-adv-x="743" d="M-168 -371L-159 -332H7L476 1542H310L318 1581H789L304 -371H-168Z" />
<glyph unicode="^" glyph-name="asciicircum" horiz-adv-x="1081" d="M470 758T363 712T147 635L138 664Q293 730 429 843T650 1081H687Q706 954 783 843T983 665L966 635Q852 661 742 706T544 807Q470 758 363 712Z" />
<glyph unicode="_" glyph-name="underscore" horiz-adv-x="1429" d="M1012 -358H-112L-52 -178H1073L1012 -358Z" />
<glyph unicode="`" glyph-name="grave" horiz-adv-x="457" d="M339 1332T230 1439Q182 1487 159 1513T117 1569Q95 1604 95 1641Q95 1701 143 1729Q167 1743 198 1743Q230 1743 260 1726T309 1677Q329 1645 341 1608T367 1510Q389 1424 404 1370T449 1240L424
1227Q339 1332 230 1439Z" />
<glyph unicode="a" glyph-name="a" horiz-adv-x="1334" d="M1095 105T1123 74T1187 41L1177 0Q1072 6 880 6Q672 6 573 0L583 41Q646 44 684 55T742 93T762 172Q762 191 759 213L728 467H272L120 278Q56 200 56 146Q56 59 219 41L214 0Q81 6 -35 6Q-126 6 -186
0L-181 41Q-126 61 -76 110T58 263L856 1260Q890 1258 908 1258Q926 1258 960 1260L1087 172Q1095 105 1123 74ZM669 961L305 508H723L669 961Z" />
<glyph unicode="b" glyph-name="b" horiz-adv-x="1361" d="M1300 920T1237 849T1057 729T786 662Q1016 651 1118 576T1220 391Q1220 270 1139 182T914 47T589 0Q518 0 440 3Q257 6 237 6Q22 6 -86 0L-78 41Q-4 44 32 57T91 105T133 217L350 1028Q368 1095 368
1127Q368 1168 338 1185T229 1204L239 1245Q344 1239 557 1239Q603 1239 695 1241Q793 1243 845 1243Q1077 1243 1188 1184T1300 1006Q1300 920 1237 849ZM739 668T815 717T930 850T970 1031Q970 1204 811 1204Q773 1204 752 1196T717 1166T693 1099L578 668H635Q739
668 815 717ZM880 521T828 577T662 633H569L458 217Q440 145 440 115Q440 81 457 64T517 47Q880 47 880 424Q880 521 828 577Z" />
<glyph unicode="c" glyph-name="c" horiz-adv-x="1390" d="M439 -29T316 21T127 167T61 401Q61 608 175 811T498 1144T975 1274Q1087 1274 1156 1239T1278 1141Q1293 1123 1307 1123Q1346 1123 1391 1245H1436Q1372 1062 1303 774H1257Q1270 875 1270 932Q1270
977 1263 1009T1237 1077Q1200 1155 1126 1196T956 1237Q811 1237 683 1102T478 761T401 360Q401 191 461 100T629 8Q723 8 823 50T997 168Q1051 224 1090 294T1182 492H1227Q1130 137 1106 0H1061Q1067 44 1067 70Q1067 122 1041 122Q1026 122 999 104Q906 39
817 5T610 -29Q439 -29 316 21Z" />
<glyph unicode="d" glyph-name="d" horiz-adv-x="1586" d="M1519 565T1397 387T1050 104T530 0Q503 0 417 2Q303 6 219 6Q24 6 -78 0L-72 41Q-2 44 33 57T91 105T133 217L350 1028Q368 1093 368 1126Q368 1168 338 1185T229 1204L235 1245Q373 1238 495 1238L559
1239Q778 1245 864 1245Q1197 1245 1358 1129T1519 783Q1519 565 1397 387ZM754 37T899 143T1115 425T1187 809Q1187 1005 1097 1106T831 1208Q782 1208 755 1195T711 1145T673 1032L458 213Q439 139 439 104Q439 66 462 52T545 37Q754 37 899 143Z" />
<glyph unicode="e" glyph-name="e" horiz-adv-x="1298" d="M1196 1239T1327 1245Q1277 1116 1251 1012Q1230 926 1221 877H1175Q1182 926 1182 973Q1182 1094 1124 1146T946 1198H883Q810 1198 774 1187T717 1140T675 1028L573 647H668Q761 647 831 716T936 877H982Q949
776 918 654L911 627Q892 556 882 512T856 377H811Q812 386 812 406Q812 606 637 606H562L458 217Q440 147 440 117Q440 88 453 73T495 53T576 47H652Q757 47 835 81T975 195T1091 410H1137Q1110 334 1092 254Q1062 153 1039 0Q898 6 569 6Q132 6 -88 0L-79 41Q-5
44 31 57T90 105T132 217L350 1028Q367 1094 367 1127Q367 1157 354 1173T312 1195T230 1204L240 1245Q458 1239 895 1239Q1196 1239 1327 1245Z" />
<glyph unicode="f" glyph-name="f" horiz-adv-x="1219" d="M1198 1239T1330 1245Q1284 1126 1252 1004Q1224 888 1215 840H1169Q1177 899 1177 943Q1177 1198 946 1198H883Q810 1198 774 1187T717 1140T675 1028L573 646H688Q780 646 847 706T954 863H1000Q951
715 929 613L918 565Q894 470 874 351H829Q831 469 797 537T666 605H562L458 217Q442 156 442 126Q442 92 459 75T512 50T618 41L609 0Q485 6 245 6Q22 6 -88 0L-79 41Q-5 44 31 57T90 105T132 217L350 1028Q367 1094 367 1127Q367 1157 354 1173T312 1195T230
1204L240 1245Q458 1239 895 1239Q1198 1239 1330 1245Z" />
<glyph unicode="g" glyph-name="g" horiz-adv-x="1485" d="M1142 18T1142 34Q1142 96 1098 96Q1051 96 950 48Q860 5 790 -12T633 -29Q449 -29 321 21T127 166T61 399Q61 599 172 803T492 1140T975 1274Q1091 1274 1174 1239T1323 1141Q1342 1122 1359 1122Q1398
1122 1440 1245H1485Q1420 1059 1354 774H1309Q1319 862 1319 928Q1319 1025 1290 1077Q1246 1154 1162 1195T963 1237Q773 1237 643 1083T450 716T387 332Q387 12 669 12Q759 12 822 51T905 176L942 313Q957 369 957 404Q957 460 919 483T788 510L797 551Q923
545 1147 545Q1338 545 1434 551L1425 510Q1374 507 1350 495T1309 448T1270 334L1180 0H1139Q1142 18 1142 34Z" />
<glyph unicode="h" glyph-name="h" horiz-adv-x="1658" d="M1644 1239T1755 1245L1744 1204Q1669 1201 1633 1188T1575 1140T1534 1028L1319 217Q1301 147 1301 117Q1301 87 1314 72T1357 50T1439 41L1431 0Q1323 6 1095 6Q888 6 774 0L782 41Q856 44 892 57T951
105T993 217L1096 606H561L458 217Q441 151 441 118Q441 88 454 72T497 50T579 41L571 0Q457 6 249 6Q27 6 -84 0L-74 41Q-3 44 33 57T91 105T133 217L348 1028Q365 1093 365 1126Q365 1157 351 1173T309 1195T227 1204L237 1245Q342 1239 571 1239Q769 1239 895
1245L884 1204Q809 1201 773 1188T715 1140T673 1028L572 647H1107L1208 1028Q1226 1091 1226 1127Q1226 1157 1212 1173T1169 1195T1087 1204L1097 1245Q1208 1239 1417 1239Q1644 1239 1755 1245Z" />
<glyph unicode="i" glyph-name="i" horiz-adv-x="798" d="M441 151T441 118Q441 88 454 72T497 50T579 41L571 0Q454 6 237 6Q23 6 -84 0L-74 41Q-3 44 33 57T91 105T133 217L348 1028Q365 1093 365 1126Q365 1157 351 1173T309 1195T227 1204L237 1245Q339 1239
559 1239Q763 1239 895 1245L884 1204Q809 1201 773 1188T715 1140T673 1028L458 217Q441 151 441 118Z" />
<glyph unicode="j" glyph-name="j" horiz-adv-x="1390" d="M1538 1258T1538 1246Q1538 1220 1493 1191T1389 1139Q1301 1068 1240 981T1135 788T1042 524H1247L1241 483H1030L1026 471L883 -10Q851 -118 775 -202T584 -336T326 -385Q3 -385 2 -228Q2 -186 22 -151T83
-96T177 -75Q246 -75 290 -108T334 -201Q334 -247 304 -284T221 -344Q248 -351 285 -351Q363 -351 411 -310T489 -198T561 11L672 379Q687 430 708 483H449L455 524H725Q783 656 865 752T1038 918T1290 1093L1327 1117Q1241 1088 1108 1026Q1005 979 941 958T807
936Q751 936 703 949T585 990Q526 1014 485 1026T400 1038Q343 1038 310 1009T276 924Q276 784 507 763L502 725Q339 738 242 812T145 1020Q145 1142 220 1215T435 1288Q496 1288 548 1274T640 1240T740 1185Q799 1150 840 1130T933 1095T1048 1081Q1125 1081 1209
1101T1370 1161Q1399 1206 1434 1243T1500 1280Q1516 1280 1527 1269Q1538 1258 1538 1246Z" />
<glyph unicode="k" glyph-name="k" horiz-adv-x="1480" d="M1393 1274T1443 1228T1494 1100Q1494 1047 1471 1001T1407 928T1312 900Q1245 900 1208 935T1171 1033Q1171 1095 1210 1152T1309 1231Q1299 1236 1282 1236Q1245 1236 1220 1222T1170 1178Q1147 1151
1131 1110T1092 994Q1060 893 1033 830T956 715T831 649Q925 636 986 612T1082 540T1117 415Q1117 387 1115 372L1097 193Q1094 158 1109 140T1153 121Q1192 121 1218 149T1267 244L1302 348H1343L1290 190Q1251 75 1180 23T1004 -29Q897 -29 839 22T781 177Q781
209 787 245L815 432Q820 465 820 501Q820 596 773 627Q708 609 667 609Q610 609 610 647Q610 686 666 686Q707 686 777 666Q859 674 910 721T989 831T1047 995Q1074 1081 1092 1126T1140 1202Q1177 1243 1215 1258T1303 1274Q1393 1274 1443 1228ZM441 151T441
118Q441 88 454 72T497 50T579 41L571 0Q457 6 249 6Q27 6 -84 0L-74 41Q-3 44 33 57T91 105T133 217L348 1028Q365 1093 365 1126Q365 1157 351 1173T309 1195T227 1204L237 1245Q342 1239 571 1239Q769 1239 895 1245L884 1204Q809 1201 773 1188T715 1140T673
1028L458 217Q441 151 441 118Z" />
<glyph unicode="l" glyph-name="l" horiz-adv-x="1248" d="M1118 340T1098 254Q1068 153 1045 0Q904 6 573 6Q131 6 -89 0L-80 41Q-6 44 30 57T89 105T131 217L351 1028Q368 1094 368 1127Q368 1157 355 1173T313 1195T231 1204L241 1245Q346 1239 578 1239Q771
1239 897 1245L887 1204Q812 1201 775 1188T717 1140T675 1028L455 217Q439 148 439 118Q439 88 451 73T489 53T561 47H647Q781 47 903 138T1104 430H1150Q1118 340 1098 254Z" />
<glyph unicode="m" glyph-name="m" horiz-adv-x="1812" d="M1783 1251T1913 1257L1903 1216Q1828 1213 1792 1200T1734 1152T1692 1040L1474 217Q1457 152 1457 119Q1457 88 1470 72T1513 50T1595 41L1586 0Q1459 6 1259 6Q1036 6 931 0L939 41Q1014 44 1050 57T1107
104T1150 217L1357 985L659 -10Q623 -8 605 -8Q588 -8 552 -10L385 1000L181 231Q166 174 166 143Q166 91 205 68T343 41L334 0Q261 6 105 6Q-21 6 -88 0L-79 41Q-9 44 31 64T94 123T136 231L351 1040Q368 1105 368 1138Q368 1169 354 1185T312 1207T230 1216L240
1257Q304 1251 422 1251Q565 1251 668 1257L823 306L1485 1251H1584Q1783 1251 1913 1257Z" />
<glyph unicode="n" glyph-name="n" horiz-adv-x="1791" d="M1818 1339T1861 1316T1927 1254T1950 1166Q1950 1114 1926 1071T1860 1003T1764 978Q1697 978 1660 1012T1623 1101Q1623 1169 1666 1220T1777 1291Q1767 1301 1744 1301Q1690 1300 1651 1272T1572 1192Q1481
1064 1381 771T1161 -10H1116L586 1001Q384 142 251 -23Q202 -84 153 -118T32 -152Q-29 -152 -72 -129T-138 -66T-161 23Q-161 75 -137 118T-71 185T25 210Q92 210 129 176T166 87Q166 19 123 -32T12 -104Q21 -112 44 -112Q144 -111 219 -2Q296 112 382 394T567
1110Q569 1149 556 1167T509 1193T409 1204L419 1245Q484 1239 602 1239Q730 1239 829 1245L1236 435Q1406 1040 1536 1208Q1632 1339 1757 1339Q1818 1339 1861 1316Z" />
<glyph unicode="o" glyph-name="o" horiz-adv-x="1596" d="M474 -29T345 25T143 190T70 465Q70 650 184 839T501 1151T958 1274Q1131 1274 1261 1220T1463 1055T1536 780Q1536 595 1422 406T1105 94T647 -29Q474 -29 345 25ZM795 1237T677 1121T492 819T424 436Q424
214 488 111T666 8Q811 8 929 124T1114 426T1182 809Q1182 1030 1117 1133T940 1237Q795 1237 677 1121Z" />
<glyph unicode="p" glyph-name="p" horiz-adv-x="1303" d="M439 149T439 124Q439 82 469 64T578 41L570 0Q447 6 250 6Q23 6 -85 0L-77 41Q-3 44 33 57T92 105T134 217L348 1028Q364 1096 364 1122Q364 1163 335 1181T228 1204L238 1245Q343 1239 548 1239Q622
1239 728 1241Q818 1243 853 1243Q1104 1243 1224 1172T1344 970Q1344 839 1242 733T954 564T531 500L455 217Q439 149 439 124ZM705 541T808 609T956 788T1002 1029Q1002 1122 963 1163T833 1204Q783 1204 755 1188T710 1136T673 1028L542 541Q705 541 808 609Z"
/>
<glyph unicode="q" glyph-name="q" horiz-adv-x="1693" d="M1430 170T1477 126T1524 0Q1524 -100 1449 -189T1244 -331T961 -385Q839 -385 739 -348T564 -257T402 -123Q245 -168 134 -168Q34 -168 -23 -127T-80 -5Q-80 61 -44 112T57 191T203 219Q279 219 353
194T493 129T651 27Q824 112 963 233T1184 507T1267 828Q1267 1021 1191 1129T972 1237Q837 1237 728 1152T557 928T495 638Q495 393 696 393Q778 393 852 429T975 526T1035 660Q1036 669 1036 687Q1036 711 1033 727Q1013 666 962 635T854 603Q787 603 747 646T707
756Q707 809 733 852T803 920T899 945Q985 945 1035 885T1085 723Q1085 606 1019 518T840 382T587 334Q456 334 358 374T205 491T151 674Q151 846 275 983T598 1197T1010 1274Q1184 1274 1321 1223T1537 1078T1615 858Q1615 711 1484 549T1145 241T704 -10Q797
-74 868 -115T1019 -183T1183 -210Q1290 -210 1356 -182T1464 -103Q1406 -151 1330 -151Q1260 -151 1216 -111T1171 -2Q1171 46 1194 85T1260 147T1355 170Q1430 170 1477 126ZM240 -133T370 -93Q306 -35 265 -2T177 54T82 76Q28 76 -4 52T-37 -18Q-37 -73 12 -103T141
-133Q240 -133 370 -93Z" />
<glyph unicode="r" glyph-name="r" horiz-adv-x="1416" d="M1323 248L1314 221Q1237 -29 1004 -29Q883 -29 828 31T779 186L788 331Q790 365 790 380Q790 448 771 490T706 556T577 586H555L456 217Q441 155 441 127Q441 84 470 65T577 41L569 0Q446 6 249 6Q22
6 -86 0L-78 41Q-4 44 32 56T90 104T133 217L350 1028Q366 1094 366 1119Q366 1161 336 1180T229 1204L239 1245Q344 1239 551 1239Q632 1239 760 1241Q862 1243 895 1243Q1332 1243 1332 993Q1332 889 1267 808T1081 673T792 598L803 596Q911 581 977 554T1077
477T1111 347L1110 324L1103 215Q1102 204 1102 182Q1102 134 1113 109T1153 84Q1215 84 1265 219L1275 248H1323ZM783 1204T756 1189T711 1136T673 1028L566 627H602Q796 627 899 729T1003 1020Q1003 1112 962 1158T829 1204Q783 1204 756 1189Z" />
<glyph unicode="s" glyph-name="s" horiz-adv-x="1244" d="M1176 1070T1131 842H1090Q1102 901 1102 956Q1102 1034 1065 1097T957 1197T793 1234Q716 1234 659 1210T572 1143T542 1044Q542 987 567 939T645 841T798 711Q911 623 965 574T1052 466T1086 333Q1086
212 1001 131T781 10T491 -29Q379 -29 305 -7T150 62Q98 96 68 96Q44 96 28 73T-16 -14H-57Q12 149 82 477H123Q105 373 105 326Q105 181 194 99T462 16Q574 16 646 64T718 213Q718 271 692 322T617 422T486 535Q396 605 341 660T255 777T224 913Q224 1032 299
1113T497 1234T760 1274Q861 1274 929 1253T1053 1195Q1058 1192 1078 1179T1115 1158T1142 1151Q1160 1151 1174 1175T1211 1260H1252Q1176 1070 1131 842Z" />
<glyph unicode="t" glyph-name="t" horiz-adv-x="1373" d="M1553 1553T1589 1533T1644 1480T1663 1409Q1663 1298 1545 1223Q1431 1155 1203 1155Q1157 1155 1092 1160L827 238Q808 173 808 137Q808 102 825 82T879 53T980 41L972 0Q843 6 593 6Q348 6 233 0L241
41Q329 44 376 61T451 119T501 238L777 1197Q617 1217 532 1217Q381 1217 312 1169Q367 1153 403 1109T439 1003Q439 956 419 917T362 855T279 832Q211 832 172 878T132 991Q132 1048 163 1102T262 1195Q362 1253 532 1253Q608 1253 683 1246T885 1224Q1113 1196
1216 1196Q1355 1196 1426 1226Q1390 1253 1367 1295T1344 1388Q1344 1433 1363 1470T1418 1530T1504 1553Q1553 1553 1589 1533Z" />
<glyph unicode="u" glyph-name="u" horiz-adv-x="1428" d="M1153 311T1026 162Q949 72 836 22T576 -29Q316 -29 217 82Q178 126 161 174T143 285Q143 386 197 590L314 1028Q331 1093 331 1126Q331 1157 317 1173T275 1195T193 1204L205 1245Q310 1239 543 1239Q735
1239 861 1245L848 1204Q773 1201 737 1188T679 1140T637 1028L510 555Q460 369 460 255Q460 147 505 95T646 43Q861 43 984 182T1174 573L1264 909Q1296 1031 1296 1084Q1296 1143 1261 1169T1141 1204L1153 1245Q1230 1239 1372 1239Q1495 1239 1564 1245L1553
1204Q1482 1195 1441 1170T1371 1091T1316 934L1227 596Q1153 311 1026 162Z" />
<glyph unicode="v" glyph-name="v" horiz-adv-x="1337" d="M1473 1239T1534 1245L1525 1204Q1484 1187 1452 1163T1382 1097T1284 978L498 -10Q481 -9 446 -9Q411 -9 394 -10L258 1073Q250 1140 219 1171T152 1204L162 1245Q264 1239 457 1239Q657 1239 764 1245L754
1204Q692 1201 657 1191T605 1156T587 1081Q587 1059 590 1032L681 288L1212 953Q1290 1049 1290 1106Q1290 1188 1124 1204L1133 1245Q1265 1239 1398 1239Q1473 1239 1534 1245Z" />
<glyph unicode="w" glyph-name="w" horiz-adv-x="1901" d="M2014 1239T2073 1245L2064 1204Q2019 1187 1984 1164T1911 1097T1826 977L1222 -10Q1188 -8 1170 -8Q1152 -8 1116 -10L986 788L512 -10Q478 -8 459 -8Q441 -8 405 -10L234 1073Q223 1139 196 1171T133
1204L141 1245Q256 1239 404 1239Q586 1239 675 1245L667 1204Q616 1198 595 1174T573 1101Q573 1078 580 1032L679 347L976 849L940 1073Q923 1200 860 1204L868 1245Q970 1239 1112 1239Q1332 1239 1435 1245L1427 1204Q1365 1201 1331 1192T1281 1162T1264 1098Q1264
1078 1271 1032L1383 330L1754 944Q1820 1053 1820 1108Q1820 1150 1783 1173T1663 1204L1672 1245Q1806 1239 1921 1239Q2014 1239 2073 1245Z" />
<glyph unicode="x" glyph-name="x" horiz-adv-x="1483" d="M1452 1274T1500 1222T1548 1088Q1548 1032 1525 987T1460 915T1366 888Q1304 888 1269 924T1234 1021Q1234 1090 1276 1146T1388 1226Q1376 1236 1353 1236Q1283 1234 1220 1188Q1153 1137 1070 1020T904
735L951 317Q962 222 993 172T1088 121Q1142 121 1174 151T1228 244L1262 348H1303L1250 190Q1177 -29 972 -29Q810 -29 736 57T646 291L629 439Q555 314 468 208T300 41Q211 -29 109 -29Q24 -29 -24 23T-72 157Q-72 213 -49 258T16 330T111 357Q173 357 207 321T242
224Q242 155 200 99T88 19Q100 9 123 9Q191 10 259 57Q335 109 432 226T622 507L574 928Q563 1021 532 1072T437 1124Q384 1124 352 1093T297 997L263 897H222L269 1038Q310 1160 382 1217T562 1274Q720 1274 792 1187T879 954L896 805Q963 936 1036 1041T1176
1202Q1261 1274 1367 1274Q1452 1274 1500 1222Z" />
<glyph unicode="y" glyph-name="y" horiz-adv-x="1400" d="M1382 1274T1422 1249T1483 1182T1504 1088Q1504 1032 1481 987T1416 915T1322 888Q1259 888 1225 925T1190 1023Q1190 1092 1232 1148T1344 1226Q1332 1233 1309 1233Q1234 1231 1164 1165Q1087 1096
997 959T817 599L719 217Q702 151 702 118Q702 88 715 72T758 50T840 41L830 0Q716 6 501 6Q280 6 172 0L183 41Q258 44 295 57T353 106T394 217L481 555Q450 814 409 957T301 1100Q273 1100 255 1081T223 1021L181 897H136L193 1066Q228 1169 291 1221T460 1274Q565
1274 628 1224T729 1071T797 786L812 694Q871 836 943 952T1083 1143Q1134 1202 1198 1238T1327 1274Q1382 1274 1422 1249Z" />
<glyph unicode="z" glyph-name="z" horiz-adv-x="1349" d="M1448 1241T1448 1227Q1448 1196 1401 1160T1292 1102L736 647H1014L998 606H686L115 139Q149 156 247 211Q317 251 361 273T455 309T557 324Q624 324 677 311T795 272Q852 251 885 242T957 233Q1048
233 1048 316Q1048 403 899 433L908 473Q1021 455 1097 398T1174 236Q1174 160 1138 100T1034 5T877 -29Q798 -29 737 -6T596 63Q542 94 505 111T422 141T322 154Q267 154 220 141T105 98Q78 56 33 17T-46 -22Q-67 -22 -79 -7Q-87 2 -87 17Q-87 49 -41 84T66 143L632
606H342L357 647H682L1243 1106Q1198 1084 1109 1034Q1039 994 995 973T903 937T803 922Q736 922 685 935T565 973Q508 994 475 1003T403 1012Q359 1012 335 991T311 929Q311 842 460 812L451 772Q338 790 261 847T184 1010Q184 1086 220 1146T324 1240T481 1274Q560
1274 621 1251T762 1182Q817 1151 853 1134T936 1104T1036 1092Q1092 1092 1139 1105T1253 1147Q1285 1191 1327 1228T1404 1266Q1422 1266 1436 1253Q1448 1241 1448 1227Z" />
<glyph unicode="{" glyph-name="braceleft" horiz-adv-x="740" d="M295 -386T212 -360T93 -283T58 -150Q58 -69 97 89Q164 360 164 465Q163 527 140 555T68 586H58L64 623H74Q140 628 184 672T268 820T355 1121Q403 1314 474 1417T653 1561T930 1602L920 1563Q848
1562 810 1535T737 1417T650 1121Q605 942 534 838T364 682T119 605Q232 579 299 539T395 442T425 304Q425 224 392 89Q329 -164 332 -243Q332 -303 359 -323T449 -346L439 -385Q295 -386 212 -360Z" />
<glyph unicode="|" glyph-name="bar" horiz-adv-x="756" d="M308 -399V1757H488V-399H308Z" />
<glyph unicode="}" glyph-name="braceright" horiz-adv-x="739" d="M447 1603T530 1577T649 1500T684 1367Q684 1286 645 1128Q578 857 578 752Q579 690 602 662T674 631H684L678 594H668Q602 589 558 545T474 397T387 96Q339 -97 268 -200T89 -344T-188 -385L-178
-346Q-106 -345 -68 -318T5 -200T92 96Q137 275 208 379T378 535T623 612Q510 638 443 678T347 775T317 913Q317 993 350 1128Q413 1381 410 1460Q410 1520 383 1540T293 1563L303 1602Q447 1603 530 1577Z" />
<glyph unicode="~" glyph-name="asciitilde" horiz-adv-x="1322" d="M750 436T696 457T567 519Q497 558 448 577T338 596Q203 596 129 477L100 487Q157 634 267 719T512 805Q583 805 638 784T766 722Q834 683 884 664T995 645Q1130 645 1204 764L1232 754Q1175
607 1066 522T821 436Q750 436 696 457Z" />
<glyph unicode="&#xa0;" glyph-name="nbspace" horiz-adv-x="523" />
<glyph unicode="&#xa1;" glyph-name="exclamdown" horiz-adv-x="607" d="M230 947T256 991T327 1062T427 1088Q493 1088 529 1055T565 963Q565 914 538 870T465 799T366 771Q302 771 266 803T230 892Q230 947 256 991ZM293 512T282 378T267 57Q263 -110 256 -187Q252
-282 201 -333T55 -385Q-11 -385 -48 -354T-86 -264Q-86 -252 -85 -246Q-78 -178 -42 -94T70 136Q151 294 203 411T291 653L328 647Q293 512 282 378Z" />
<glyph unicode="&#xa2;" glyph-name="cent" horiz-adv-x="978" d="M1374 1062T1305 774H1259Q1272 875 1272 932Q1272 977 1265 1009T1239 1077Q1202 1155 1128 1196T958 1237Q813 1237 679 1095L430 171Q457 91 508 50T631 8Q725 8 825 50T999 168Q1053 224 1092
294T1184 492H1229Q1132 137 1108 0H1063Q1069 44 1069 70Q1069 122 1043 122Q1028 122 1001 104Q908 39 819 5T612 -29Q483 -29 384 -1L284 -371H239L342 12Q207 59 135 158T63 401Q63 565 136 730T346 1027T668 1223L729 1450H774L717 1238Q844 1274 977 1274Q1089
1274 1158 1239T1280 1141Q1295 1123 1309 1123Q1348 1123 1393 1245H1438Q1374 1062 1305 774ZM517 880T460 703T403 360Q403 307 409 261L612 1013Q517 880 460 703Z" />
<glyph unicode="&#xa3;" glyph-name="sterling" horiz-adv-x="1376" d="M999 1317T1043 1372T1160 1443Q1154 1457 1130 1467T1075 1477Q992 1477 935 1435T841 1316T773 1122L703 854H981L968 813H692L681 770Q663 701 638 649H925L913 608H617Q578 541 531 492T402
373Q328 310 279 261T185 146Q380 312 564 312Q631 312 685 300T808 266Q865 248 899 240T971 231Q1016 231 1046 254T1077 320Q1077 406 934 434L944 471Q1055 454 1130 398T1206 245Q1206 171 1166 108T1053 8T891 -29Q814 -29 754 -8T614 57Q532 100 474 121T339
143Q247 143 169 113Q129 44 75 8T-31 -29Q-46 -29 -52 -25T-58 -8Q-58 16 -35 45T34 101T145 141Q188 224 221 309T290 528L311 608H112L125 649H322L366 813H168L180 854H377L389 899Q462 1176 632 1341T1081 1507Q1156 1507 1210 1482T1293 1415T1322 1320Q1322
1261 1298 1214T1232 1141T1137 1115Q1074 1115 1037 1148T999 1242Q999 1317 1043 1372Z" />
<glyph unicode="&#xa4;" glyph-name="currency" horiz-adv-x="1347" d="M232 496T232 614Q232 726 290 827L171 947L345 1121L463 1002Q559 1061 677 1061Q795 1061 890 1001L1011 1122L1185 948L1065 827Q1124 728 1124 614Q1124 499 1065 400L1184 281L1010
106L889 227Q791 170 677 170Q557 170 464 227L346 108L171 283L290 401Q232 496 232 614ZM444 540T475 483T561 394T680 362Q744 362 798 394T883 483T915 614Q915 688 884 746T798 836T680 869Q615 869 561 837T476 746T444 614Q444 540 475 483Z" />
<glyph unicode="&#xa5;" glyph-name="yen" horiz-adv-x="1590" d="M1574 1479T1617 1455T1682 1391T1705 1301Q1705 1250 1681 1208T1615 1142T1519 1117Q1452 1117 1415 1151T1378 1242Q1378 1308 1421 1359T1532 1431Q1520 1441 1499 1441Q1439 1440 1375 1393Q1317
1351 1244 1255T1094 1008T951 667L937 608H1210L1200 567H926L895 444H1165L1155 403H885L838 217Q825 162 825 134Q825 97 841 78T891 52T983 41L973 0Q859 6 621 6Q399 6 291 0L301 41Q376 44 413 57T472 105T512 217L559 403H272L282 444H569L601 567H317L327
608H611L624 658Q593 937 535 1132T389 1328Q354 1328 332 1303T294 1232L250 1102H205L258 1260Q296 1376 368 1427T546 1479Q680 1479 756 1396T870 1161T937 748Q1005 939 1091 1093T1272 1352Q1390 1479 1515 1479Q1574 1479 1617 1455Z" />
<glyph unicode="&#xa6;" glyph-name="brokenbar" horiz-adv-x="763" d="M312 786V1757H492V786H312ZM492 668V-399H312V668H492Z" />
<glyph unicode="&#xa7;" glyph-name="section" horiz-adv-x="1179" d="M890 1393T932 1442T1035 1516Q1026 1538 982 1550T888 1563Q817 1563 755 1534T654 1447T615 1306Q615 1255 638 1213T700 1134T810 1038Q823 1028 849 1006Q946 924 994 876T1073 775T1103
657Q1103 415 766 250Q859 145 859 37Q859 -92 776 -188T563 -334T298 -385Q226 -385 153 -369T28 -312T-25 -198Q-25 -149 0 -105T70 -33T167 -6Q225 -6 258 -34T291 -111Q291 -174 250 -224T145 -299Q155 -320 199 -333T292 -346Q364 -346 426 -317T527 -230T566
-88Q566 -39 543 2T484 79T378 173L332 211Q236 291 187 339T107 442T77 559Q77 803 415 967Q321 1072 321 1180Q321 1309 404 1405T618 1551T882 1602Q952 1602 1026 1586T1154 1528T1208 1416Q1208 1366 1182 1322T1112 1250T1013 1223Q954 1223 922 1253T890
1334Q890 1393 932 1442ZM855 476T855 491Q855 538 830 581T753 672T607 795Q499 881 444 936Q324 844 324 730Q324 684 350 639T430 544T574 422Q682 337 738 280Q787 317 816 359T852 460Q855 476 855 491Z" />
<glyph unicode="&#xa8;" glyph-name="dieresis" horiz-adv-x="799" d="M11 1437T35 1476T100 1536T188 1557Q252 1557 286 1520T321 1420Q321 1367 296 1328T230 1269T143 1248Q78 1248 45 1285T11 1384Q11 1437 35 1476ZM477 1437T501 1476T566 1536T654 1557Q718
1557 752 1520T787 1420Q787 1367 762 1328T696 1269T609 1248Q544 1248 511 1285T477 1384Q477 1437 501 1476Z" />
<glyph unicode="&#xa9;" glyph-name="copyright" horiz-adv-x="1865" d="M167 1008T276 1195T573 1492T982 1602Q1203 1602 1390 1493T1687 1196T1797 786Q1797 565 1688 378T1391 81T982 -29Q760 -29 573 80T277 377T167 786Q167 1008 276 1195ZM249 583T347
411T614 138T982 37Q1181 37 1349 138T1616 411T1715 786Q1715 990 1617 1162T1350 1435T982 1536Q782 1536 614 1435T348 1162T249 786Q249 583 347 411ZM1270 361T1368 565L1405 552Q1379 468 1327 395T1191 276T998 229Q860 229 753 288T583 472T520 782Q520
962 585 1089T765 1281T1028 1346Q1120 1346 1204 1318T1342 1233T1396 1092Q1396 1044 1375 1007T1318 948T1235 927Q1163 927 1120 969T1077 1082Q1077 1143 1115 1187T1212 1246Q1193 1269 1153 1284T1068 1299Q955 1299 892 1190T829 809Q829 646 867 546T965
404T1100 361Q1270 361 1368 565Z" />
<glyph unicode="&#xaa;" glyph-name="ordfeminine" horiz-adv-x="1090" d="M1096 979L1069 904Q1037 817 978 777T829 737Q679 737 679 869Q679 898 689 948Q630 833 558 785T401 737Q306 737 255 786T204 927Q204 1051 283 1180T486 1394T732 1479Q812 1479 819
1408L834 1460Q987 1460 1101 1479L923 921Q913 889 913 872Q913 837 949 837Q1006 837 1039 928L1058 979H1096ZM554 833T593 872T670 978T739 1126L804 1354Q802 1393 788 1411T754 1430Q701 1430 635 1356T523 1167T476 938Q476 833 523 833Q554 833 593 872Z"
/>
<glyph unicode="&#xab;" glyph-name="guillemotleft" horiz-adv-x="1200" d="M713 1000T641 887T489 672T345 518Q387 468 428 371T498 164T535 -29H498Q392 137 282 268T38 505L44 531Q221 642 382 777T718 1087H754Q713 1000 641 887ZM1110 960T1046 856T911
660T783 518Q819 472 855 384T916 196T947 20H911Q809 174 709 293T487 505L493 531Q654 631 801 755T1106 1038H1143Q1110 960 1046 856Z" />
<glyph unicode="&#xac;" glyph-name="logicalnot" horiz-adv-x="1323" d="M1220 758L1099 338H1025L1128 696H175L194 758H1220Z" />
<glyph unicode="&#xad;" glyph-name="softhyphen" horiz-adv-x="1036" />
<glyph unicode="&#xae;" glyph-name="registered" horiz-adv-x="1403" d="M971 1602T1102 1525T1310 1317T1387 1030Q1387 875 1310 744T1102 536T816 459Q661 459 530 536T322 744T245 1030Q245 1185 322 1316T530 1525T816 1602Q971 1602 1102 1525ZM948 524T1059
592T1236 777T1301 1030Q1301 1167 1236 1283T1060 1467T816 1536Q683 1536 572 1468T396 1283T331 1030Q331 894 396 778T572 593T816 524Q948 524 1059 592ZM1129 708T1054 708Q989 708 956 729T913 797L883 946Q876 982 866 1000T830 1027T754 1039V827Q754
795 758 780T771 760T802 752V721Q767 721 747 722L673 723L586 722Q566 721 537 721V752Q557 754 566 759T580 780T584 827V1276Q584 1309 580 1324T567 1346T537 1354V1384Q566 1382 664 1382L792 1383Q813 1384 840 1384Q1090 1384 1090 1223Q1090 1167 1043
1121T879 1056Q943 1050 980 1036T1036 997T1061 936L1092 802Q1096 777 1102 766T1122 754Q1135 754 1146 766L1161 746Q1129 708 1054 708ZM775 1354T765 1342T754 1296V1073H779Q918 1073 918 1211Q918 1354 808 1354Q775 1354 765 1342Z" />
<glyph unicode="&#xaf;" glyph-name="overscore" horiz-adv-x="741" d="M211 1407L223 1458H911L899 1407H211Z" />
<glyph unicode="&#xb0;" glyph-name="degree" horiz-adv-x="682" d="M602 1679T659 1649T750 1563T784 1434Q784 1359 750 1303T659 1217T535 1186Q468 1186 412 1216T321 1303T287 1434Q287 1507 321 1563T411 1649T535 1679Q602 1679 659 1649ZM583 1224T629
1248T704 1319T734 1433Q734 1497 705 1544T629 1616T535 1641Q487 1641 441 1617T366 1545T337 1433Q337 1367 366 1320T440 1248T535 1224Q583 1224 629 1248Z" />
<glyph unicode="&#xb1;" glyph-name="plusminus" horiz-adv-x="1265" d="M996 62L978 0H-48L-30 62H996ZM779 1241H852L715 758H1190L1172 696H697L559 215H486L623 696H146L164 758H641L779 1241Z" />
<glyph unicode="&#xb2;" glyph-name="twosuperior" horiz-adv-x="729" d="M703 1544T752 1516T802 1429Q802 1373 759 1320T656 1223T502 1121Q429 1076 396 1053Q436 1053 523 1034Q615 1016 648 1016Q687 1016 709 1031T732 1076Q732 1098 724 1114L759 1128Q792
1080 792 1029Q792 967 743 927T603 887Q557 887 470 904Q357 925 290 925Q254 925 227 919T155 895L163 932Q194 954 227 975Q331 1045 408 1104T546 1238T607 1383Q607 1467 507 1467Q395 1467 302 1368L274 1391Q332 1457 420 1500T618 1544Q703 1544 752 1516Z"
/>
<glyph unicode="&#xb3;" glyph-name="threesuperior" horiz-adv-x="695" d="M711 1544T762 1516T814 1434Q814 1379 762 1331T632 1249T480 1200Q605 1198 679 1162T753 1049Q753 953 647 880T384 764T77 711V748Q194 757 304 797T485 907T556 1065Q556 1162 468
1171Q429 1151 403 1151Q366 1151 366 1178Q366 1215 456 1212Q532 1244 577 1291T622 1394Q622 1433 599 1452T534 1471Q425 1471 313 1366L284 1391Q339 1451 431 1497T626 1544Q711 1544 762 1516Z" />
<glyph unicode="&#xb4;" glyph-name="acute" horiz-adv-x="457" d="M316 1325T414 1488Q457 1562 482 1600T540 1671Q563 1696 593 1710T652 1724Q695 1724 727 1695Q754 1668 754 1632Q754 1577 695 1520Q666 1491 631 1466T524 1395Q380 1304 281 1227L260 1246Q316
1325 414 1488Z" />
<glyph unicode="&#xb6;" glyph-name="paragraph" horiz-adv-x="1451" d="M393 -27T237 104T81 469Q81 737 209 962T559 1320T1046 1452Q1058 1452 1247 1449Q1334 1446 1414 1446Q1548 1446 1611 1450L1601 1411Q1536 1408 1498 1393T1440 1349T1406 1272L1114
156Q1047 -100 901 -242T499 -385Q370 -385 292 -348T213 -231Q213 -188 234 -152T296 -95T389 -74Q456 -74 498 -104T540 -189Q540 -288 432 -344Q459 -351 489 -351Q550 -351 592 -315T666 -211T732 -27Q393 -27 237 104ZM805 502T785 351T765 128Q765 98 769
98Q821 291 961 814T1103 1343Q1096 1343 1056 1258T963 1040T868 762Q727 762 597 754T383 735T298 719Q297 713 373 703T576 686T845 678Q805 502 785 351Z" />
<glyph unicode="&#xb7;" glyph-name="middot" horiz-adv-x="592" d="M112 559T138 603T209 674T309 700Q375 700 411 667T447 575Q447 526 420 482T347 411T248 383Q184 383 148 415T112 504Q112 559 138 603Z" />
<glyph unicode="&#xb8;" glyph-name="cedilla" horiz-adv-x="467" d="M255 -121T302 -121Q357 -121 391 -143T426 -206Q426 -267 377 -307T251 -366T91 -385Q33 -385 -16 -373T-93 -345L-80 -313Q-14 -336 44 -336Q98 -336 151 -315T204 -242Q204 -220 189 -208T147
-195Q112 -195 83 -209L224 0H282L193 -141Q255 -121 302 -121Z" />
<glyph unicode="&#xb9;" glyph-name="onesuperior" horiz-adv-x="549" d="M286 895L442 1375Q379 1347 333 1330T219 1298L229 1337Q331 1365 407 1398T532 1462T649 1542H688L481 895H286Z" />
<glyph unicode="&#xba;" glyph-name="ordmasculine" horiz-adv-x="1006" d="M215 1089T277 1204T457 1399T736 1479Q887 1479 972 1416T1057 1227Q1057 1127 996 1012T816 818T537 739Q386 739 301 802T215 989Q215 1089 277 1204ZM665 1442T606 1357T510 1144T473
895Q473 776 547 776Q608 776 666 860T762 1073T799 1323Q799 1442 725 1442Q665 1442 606 1357Z" />
<glyph unicode="&#xbb;" glyph-name="guillemotright" horiz-adv-x="1198" d="M770 920T880 789T1124 552L1118 526Q939 415 777 280T444 -29H407Q447 58 519 171T672 385T815 539Q774 590 733 687T663 894T627 1087H664Q770 920 880 789ZM354 882T454 764T675
552L668 526Q374 344 57 20H20Q54 99 117 202T251 398T377 539Q342 585 306 674T245 863T214 1038H251Q354 882 454 764Z" />
<glyph unicode="&#xbc;" glyph-name="onequarter" horiz-adv-x="1368" d="M-202 -113L-233 -86L1473 1688L1504 1661L-202 -113ZM286 895L442 1375Q379 1347 333 1330T219 1298L229 1337Q331 1365 407 1398T532 1462T649 1542H688L481 895H286ZM959 137L923 16H816L761
-174H606L661 16H264L274 53L962 649H1001L852 137H959ZM785 445L426 137H696L785 445Z" />
<glyph unicode="&#xbd;" glyph-name="onehalf" horiz-adv-x="1272" d="M-202 -113L-233 -86L1473 1688L1504 1661L-202 -113ZM286 895L442 1375Q379 1347 333 1330T219 1298L229 1337Q331 1365 407 1398T532 1462T649 1542H688L481 895H286ZM1026 649T1075 621T1125
534Q1125 478 1082 425T979 328T825 226Q752 181 719 158Q759 158 846 139Q938 121 971 121Q1010 121 1032 136T1055 181Q1055 203 1047 219L1082 233Q1115 185 1115 134Q1115 72 1066 32T926 -8Q880 -8 793 9Q680 30 613 30Q577 30 550 24T478 0L486 37Q517 59
550 80Q654 150 731 209T869 343T930 488Q930 572 830 572Q718 572 625 473L597 496Q655 562 743 605T941 649Q1026 649 1075 621Z" />
<glyph unicode="&#xbe;" glyph-name="threequarters" horiz-adv-x="1536" d="M3 -113L-28 -86L1678 1688L1709 1661L3 -113ZM711 1544T762 1516T814 1434Q814 1379 762 1331T632 1249T480 1200Q605 1198 679 1162T753 1049Q753 953 647 880T384 764T77 711V748Q194
757 304 797T485 907T556 1065Q556 1162 468 1171Q429 1151 403 1151Q366 1151 366 1178Q366 1215 456 1212Q532 1244 577 1291T622 1394Q622 1433 599 1452T534 1471Q425 1471 313 1366L284 1391Q339 1451 431 1497T626 1544Q711 1544 762 1516ZM1164 137L1128
16H1021L966 -174H811L866 16H469L479 53L1167 649H1206L1057 137H1164ZM990 445L631 137H901L990 445Z" />
<glyph unicode="&#xbf;" glyph-name="questiondown" horiz-adv-x="999" d="M429 947T455 991T526 1062T626 1088Q692 1088 728 1055T764 963Q764 914 737 870T664 799T565 771Q501 771 465 803T429 892Q429 947 455 991ZM431 -340T484 -327T560 -289Q510 -283
475 -247T439 -161Q439 -122 460 -91T516 -43T594 -25Q652 -25 690 -58T729 -152Q729 -231 664 -283T499 -360T290 -385Q175 -385 89 -358T-44 -280T-91 -156Q-91 -96 -59 -46T38 54T229 189Q251 205 249 203Q349 272 396 309T469 388T496 480Q496 534 463 570T361
606Q316 606 271 593T205 558Q243 556 274 525T306 450Q306 417 288 390T238 346T166 330Q115 330 84 356T52 435Q52 507 114 555T268 625T450 648Q547 648 623 624T744 551T788 437Q788 374 750 318T654 217T497 102L477 88Q372 18 319 -23T238 -107T210 -200Q210
-266 257 -303T382 -340Q431 -340 484 -327Z" />
<glyph unicode="&#xc0;" glyph-name="Agrave" horiz-adv-x="1337" d="M1098 105T1127 74T1193 41L1185 0Q1080 6 888 6Q679 6 580 0L589 41Q655 44 692 56T748 100T766 190L765 213L747 549H304L123 294Q58 202 58 143Q58 51 229 41L220 0Q48 6 -48 6Q-125 6 -189
0L-180 41Q-127 55 -77 102T52 258L906 1460Q940 1458 959 1458Q980 1458 1010 1460L1092 172Q1098 105 1127 74ZM715 1131L333 590H745L715 1131ZM940 1630T810 1675Q705 1710 661 1740Q632 1758 615 1786T597 1845Q597 1869 611 1894Q641 1944 705 1944Q749 1944
781 1921Q809 1903 832 1878T892 1804Q985 1683 1068 1602L1051 1579Q940 1630 810 1675Z" />
<glyph unicode="&#xc1;" glyph-name="Aacute" horiz-adv-x="1337" d="M1098 105T1127 74T1193 41L1185 0Q1080 6 888 6Q679 6 580 0L589 41Q655 44 692 56T748 100T766 190L765 213L747 549H304L123 294Q58 202 58 143Q58 51 229 41L220 0Q48 6 -48 6Q-125 6 -189
0L-180 41Q-127 55 -77 102T52 258L906 1460Q940 1458 959 1458Q980 1458 1010 1460L1092 172Q1098 105 1127 74ZM715 1131L333 590H745L715 1131ZM924 1681T1043 1794Q1107 1854 1142 1883T1217 1935Q1260 1959 1305 1959Q1375 1959 1404 1903Q1414 1883 1414
1862Q1414 1828 1389 1798T1322 1744Q1287 1724 1245 1710T1126 1674Q948 1622 842 1581L828 1605Q924 1681 1043 1794Z" />
<glyph unicode="&#xc2;" glyph-name="Acircumflex" horiz-adv-x="1337" d="M1098 105T1127 74T1193 41L1185 0Q1080 6 888 6Q679 6 580 0L589 41Q655 44 692 56T748 100T766 190L765 213L747 549H304L123 294Q58 202 58 143Q58 51 229 41L220 0Q48 6 -48 6Q-125
6 -189 0L-180 41Q-127 55 -77 102T52 258L906 1460Q940 1458 959 1458Q980 1458 1010 1460L1092 172Q1098 105 1127 74ZM715 1131L333 590H745L715 1131ZM756 1621T525 1579L515 1607Q684 1660 832 1745T1070 1925H1107Q1153 1811 1217 1736T1391 1607L1383 1579Q1248
1602 1159 1630T970 1701Q756 1621 525 1579Z" />
<glyph unicode="&#xc3;" glyph-name="Atilde" horiz-adv-x="1337" d="M1098 105T1127 74T1193 41L1185 0Q1080 6 888 6Q679 6 580 0L589 41Q655 44 692 56T748 100T766 190L765 213L747 549H304L123 294Q58 202 58 143Q58 51 229 41L220 0Q48 6 -48 6Q-125 6 -189
0L-180 41Q-127 55 -77 102T52 258L906 1460Q940 1458 959 1458Q980 1458 1010 1460L1092 172Q1098 105 1127 74ZM715 1131L333 590H745L715 1131ZM943 1898T983 1887T1051 1859T1118 1815Q1165 1781 1199 1765T1281 1749Q1326 1749 1364 1776T1439 1867L1476 1857Q1421
1713 1330 1643T1136 1572Q1085 1572 1045 1583T977 1611T910 1655Q864 1689 829 1705T747 1722Q703 1722 665 1694T589 1603L552 1613Q608 1758 699 1828T892 1898Q943 1898 983 1887Z" />
<glyph unicode="&#xc4;" glyph-name="Adieresis" horiz-adv-x="1337" d="M1098 105T1127 74T1193 41L1185 0Q1080 6 888 6Q679 6 580 0L589 41Q655 44 692 56T748 100T766 190L765 213L747 549H304L123 294Q58 202 58 143Q58 51 229 41L220 0Q48 6 -48 6Q-125
6 -189 0L-180 41Q-127 55 -77 102T52 258L906 1460Q940 1458 959 1458Q980 1458 1010 1460L1092 172Q1098 105 1127 74ZM715 1131L333 590H745L715 1131ZM573 1757T597 1796T662 1857T750 1878Q814 1878 848 1840T883 1741Q883 1687 858 1648T792 1589T705 1569Q640
1569 607 1605T573 1704Q573 1757 597 1796ZM1064 1757T1088 1796T1153 1857T1241 1878Q1305 1878 1339 1840T1374 1741Q1374 1687 1349 1648T1283 1589T1196 1569Q1131 1569 1098 1605T1064 1704Q1064 1757 1088 1796Z" />
<glyph unicode="&#xc5;" glyph-name="Aring" horiz-adv-x="1337" d="M1098 105T1127 74T1193 41L1185 0Q1080 6 888 6Q679 6 580 0L589 41Q655 44 692 56T748 100T766 190L765 213L747 549H304L123 294Q58 202 58 143Q58 51 229 41L220 0Q48 6 -48 6Q-125 6 -189
0L-180 41Q-127 55 -77 102T52 258L906 1460Q940 1458 959 1458Q980 1458 1010 1460L1092 172Q1098 105 1127 74ZM715 1131L333 590H745L715 1131ZM1078 1919T1124 1898T1196 1836T1222 1744Q1222 1684 1187 1633T1093 1551T967 1520Q883 1520 829 1567T774 1696Q774
1758 807 1809T897 1889T1022 1919Q1078 1919 1124 1898ZM1026 1563T1070 1586T1142 1651T1169 1742Q1169 1785 1147 1815T1089 1861T1015 1876Q966 1876 923 1851T854 1785T828 1697Q828 1654 849 1624T904 1579T977 1563Q1026 1563 1070 1586Z" />
<glyph unicode="&#xc6;" glyph-name="AE" horiz-adv-x="1853" d="M1822 1444T1950 1450Q1918 1361 1872 1208Q1853 1140 1845 1081H1800Q1815 1166 1815 1226Q1815 1322 1773 1362T1634 1403H1505Q1434 1403 1399 1391T1342 1345T1300 1233L1172 750H1331Q1389
750 1427 780T1489 856T1542 979H1587Q1559 894 1531 780L1518 729Q1496 654 1464 479H1419Q1419 489 1424 542Q1430 586 1430 606Q1430 651 1407 678T1323 709H1161L1030 217Q1013 151 1013 118Q1013 88 1026 73T1068 53T1147 47H1296Q1395 47 1458 81T1568 192T1663
410H1708Q1689 360 1665 262Q1630 135 1612 0Q1473 6 1149 6Q708 6 485 0L494 41Q568 44 604 57T663 105T705 217L836 709H508L70 193Q11 126 11 96Q11 51 137 41V0Q81 6 -39 6Q-127 6 -176 0V41Q-113 44 0 172L992 1340Q989 1379 959 1392T854 1409L864 1450Q932
1448 1082 1446L1198 1583H1251L1134 1445Q1250 1444 1351 1444T1529 1444Q1822 1444 1950 1450ZM975 1233L984 1268L543 750H847L975 1233Z" />
<glyph unicode="&#xc7;" glyph-name="Ccedilla" horiz-adv-x="1419" d="M1459 1273T1396 979H1351Q1367 1077 1367 1142Q1367 1236 1334 1296Q1261 1430 1092 1430Q927 1430 779 1286T542 911T452 438Q452 235 525 134T730 33Q808 33 891 69T1035 168Q1088 223
1128 294T1220 492H1265Q1168 137 1144 0H1099Q1105 44 1105 70Q1105 122 1080 122Q1064 122 1038 104Q948 43 860 9T662 -29L616 -129Q673 -109 734 -109Q798 -109 835 -133T872 -206Q872 -267 821 -307T690 -366T524 -385Q455 -385 395 -373T300 -345L313 -313Q389
-336 478 -336Q545 -336 603 -315T662 -242Q662 -195 597 -195Q561 -195 525 -209L607 -29Q347 -22 217 108T87 478Q87 720 215 952T569 1332T1067 1479Q1146 1479 1202 1461T1296 1415T1371 1346Q1386 1328 1401 1328Q1438 1328 1484 1450H1527Q1459 1273 1396
979Z" />
<glyph unicode="&#xc8;" glyph-name="Egrave" horiz-adv-x="1282" d="M1249 1444T1375 1450Q1325 1316 1297 1208Q1280 1142 1270 1081H1224Q1227 1122 1227 1156Q1227 1249 1205 1302T1133 1379T1000 1403H936Q864 1403 829 1391T772 1345T729 1233L600 750H676Q778
750 847 821T957 995H1003Q970 896 940 778L927 729Q902 636 869 463H823Q825 493 825 508Q825 709 654 709H589L458 217Q440 153 440 118Q440 88 453 73T495 53T576 47H652Q763 47 838 81T973 192T1094 410H1140Q1118 352 1096 262Q1062 138 1042 0Q903 6 577
6Q134 6 -88 0L-79 41Q-5 44 32 57T90 105T132 217L403 1233Q421 1303 421 1332Q421 1362 407 1378T365 1400T283 1409L294 1450Q515 1444 958 1444Q1249 1444 1375 1450ZM857 1630T727 1675Q622 1710 578 1740Q549 1758 532 1786T514 1845Q514 1869 528 1894Q558
1944 622 1944Q666 1944 698 1921Q726 1903 749 1878T809 1804Q902 1683 985 1602L968 1579Q857 1630 727 1675Z" />
<glyph unicode="&#xc9;" glyph-name="Eacute" horiz-adv-x="1282" d="M1249 1444T1375 1450Q1325 1316 1297 1208Q1280 1142 1270 1081H1224Q1227 1122 1227 1156Q1227 1249 1205 1302T1133 1379T1000 1403H936Q864 1403 829 1391T772 1345T729 1233L600 750H676Q778
750 847 821T957 995H1003Q970 896 940 778L927 729Q902 636 869 463H823Q825 493 825 508Q825 709 654 709H589L458 217Q440 153 440 118Q440 88 453 73T495 53T576 47H652Q763 47 838 81T973 192T1094 410H1140Q1118 352 1096 262Q1062 138 1042 0Q903 6 577
6Q134 6 -88 0L-79 41Q-5 44 32 57T90 105T132 217L403 1233Q421 1303 421 1332Q421 1362 407 1378T365 1400T283 1409L294 1450Q515 1444 958 1444Q1249 1444 1375 1450ZM841 1681T960 1794Q1024 1854 1059 1883T1134 1935Q1177 1959 1222 1959Q1292 1959 1321
1903Q1331 1883 1331 1862Q1331 1828 1306 1798T1239 1744Q1204 1724 1162 1710T1043 1674Q865 1622 759 1581L745 1605Q841 1681 960 1794Z" />
<glyph unicode="&#xca;" glyph-name="Ecircumflex" horiz-adv-x="1282" d="M1249 1444T1375 1450Q1325 1316 1297 1208Q1280 1142 1270 1081H1224Q1227 1122 1227 1156Q1227 1249 1205 1302T1133 1379T1000 1403H936Q864 1403 829 1391T772 1345T729 1233L600
750H676Q778 750 847 821T957 995H1003Q970 896 940 778L927 729Q902 636 869 463H823Q825 493 825 508Q825 709 654 709H589L458 217Q440 153 440 118Q440 88 453 73T495 53T576 47H652Q763 47 838 81T973 192T1094 410H1140Q1118 352 1096 262Q1062 138 1042
0Q903 6 577 6Q134 6 -88 0L-79 41Q-5 44 32 57T90 105T132 217L403 1233Q421 1303 421 1332Q421 1362 407 1378T365 1400T283 1409L294 1450Q515 1444 958 1444Q1249 1444 1375 1450ZM673 1621T442 1579L432 1607Q601 1660 749 1745T987 1925H1024Q1070 1811 1134
1736T1308 1607L1300 1579Q1165 1602 1076 1630T887 1701Q673 1621 442 1579Z" />
<glyph unicode="&#xcb;" glyph-name="Edieresis" horiz-adv-x="1282" d="M1249 1444T1375 1450Q1325 1316 1297 1208Q1280 1142 1270 1081H1224Q1227 1122 1227 1156Q1227 1249 1205 1302T1133 1379T1000 1403H936Q864 1403 829 1391T772 1345T729 1233L600 750H676Q778
750 847 821T957 995H1003Q970 896 940 778L927 729Q902 636 869 463H823Q825 493 825 508Q825 709 654 709H589L458 217Q440 153 440 118Q440 88 453 73T495 53T576 47H652Q763 47 838 81T973 192T1094 410H1140Q1118 352 1096 262Q1062 138 1042 0Q903 6 577
6Q134 6 -88 0L-79 41Q-5 44 32 57T90 105T132 217L403 1233Q421 1303 421 1332Q421 1362 407 1378T365 1400T283 1409L294 1450Q515 1444 958 1444Q1249 1444 1375 1450ZM490 1757T514 1796T579 1857T667 1878Q731 1878 765 1840T800 1741Q800 1687 775 1648T709
1589T622 1569Q557 1569 524 1605T490 1704Q490 1757 514 1796ZM981 1757T1005 1796T1070 1857T1158 1878Q1222 1878 1256 1840T1291 1741Q1291 1687 1266 1648T1200 1589T1113 1569Q1048 1569 1015 1605T981 1704Q981 1757 1005 1796Z" />
<glyph unicode="&#xcc;" glyph-name="Igrave" horiz-adv-x="798" d="M441 151T441 118Q441 88 454 72T497 50T579 41L571 0Q453 6 237 6Q23 6 -85 0L-75 41Q-4 44 32 57T90 105T132 217L403 1233Q420 1298 420 1331Q420 1362 406 1378T364 1400T282 1409L292 1450Q394
1444 614 1444Q819 1444 949 1450L939 1409Q864 1406 828 1393T770 1345T728 1233L458 217Q441 151 441 118ZM654 1630T524 1675Q419 1710 375 1740Q346 1758 329 1786T311 1845Q311 1869 325 1894Q355 1944 419 1944Q463 1944 495 1921Q523 1903 546 1878T606
1804Q699 1683 782 1602L765 1579Q654 1630 524 1675Z" />
<glyph unicode="&#xcd;" glyph-name="Iacute" horiz-adv-x="798" d="M441 151T441 118Q441 88 454 72T497 50T579 41L571 0Q453 6 237 6Q23 6 -85 0L-75 41Q-4 44 32 57T90 105T132 217L403 1233Q420 1298 420 1331Q420 1362 406 1378T364 1400T282 1409L292 1450Q394
1444 614 1444Q819 1444 949 1450L939 1409Q864 1406 828 1393T770 1345T728 1233L458 217Q441 151 441 118ZM638 1681T757 1794Q821 1854 856 1883T931 1935Q974 1959 1019 1959Q1089 1959 1118 1903Q1128 1883 1128 1862Q1128 1828 1103 1798T1036 1744Q1001
1724 959 1710T840 1674Q662 1622 556 1581L542 1605Q638 1681 757 1794Z" />
<glyph unicode="&#xce;" glyph-name="Icircumflex" horiz-adv-x="798" d="M441 151T441 118Q441 88 454 72T497 50T579 41L571 0Q453 6 237 6Q23 6 -85 0L-75 41Q-4 44 32 57T90 105T132 217L403 1233Q420 1298 420 1331Q420 1362 406 1378T364 1400T282 1409L292
1450Q394 1444 614 1444Q819 1444 949 1450L939 1409Q864 1406 828 1393T770 1345T728 1233L458 217Q441 151 441 118ZM470 1621T239 1579L229 1607Q398 1660 546 1745T784 1925H821Q867 1811 931 1736T1105 1607L1097 1579Q962 1602 873 1630T684 1701Q470 1621
239 1579Z" />
<glyph unicode="&#xcf;" glyph-name="Idieresis" horiz-adv-x="798" d="M441 151T441 118Q441 88 454 72T497 50T579 41L571 0Q453 6 237 6Q23 6 -85 0L-75 41Q-4 44 32 57T90 105T132 217L403 1233Q420 1298 420 1331Q420 1362 406 1378T364 1400T282 1409L292
1450Q394 1444 614 1444Q819 1444 949 1450L939 1409Q864 1406 828 1393T770 1345T728 1233L458 217Q441 151 441 118ZM287 1757T311 1796T376 1857T464 1878Q528 1878 562 1840T597 1741Q597 1687 572 1648T506 1589T419 1569Q354 1569 321 1605T287 1704Q287
1757 311 1796ZM778 1757T802 1796T867 1857T955 1878Q1019 1878 1053 1840T1088 1741Q1088 1687 1063 1648T997 1589T910 1569Q845 1569 812 1605T778 1704Q778 1757 802 1796Z" />
<glyph unicode="&#xd0;" glyph-name="Eth" horiz-adv-x="1579" d="M1230 1450T1389 1326T1549 961Q1549 726 1434 505T1091 142T539 0Q519 0 437 2Q323 6 230 6Q28 6 -77 0L-71 41Q-1 44 34 57T92 105T134 217L263 707H156L168 759H277L402 1233Q417 1291 417
1321Q417 1364 388 1384T283 1409L289 1450Q431 1443 560 1443L625 1444Q841 1450 931 1450Q1230 1450 1389 1326ZM748 37T902 182T1136 555T1217 1025Q1217 1219 1138 1316T886 1413Q833 1413 807 1400T765 1353T727 1237L602 759H988L975 707H588L459 213Q437
130 437 100Q437 65 459 51T539 37Q748 37 902 182Z" />
<glyph unicode="&#xd1;" glyph-name="Ntilde" horiz-adv-x="1689" d="M1778 1544T1821 1521T1887 1459T1910 1371Q1910 1319 1886 1276T1820 1208T1724 1183Q1657 1183 1621 1217T1584 1306Q1584 1373 1627 1425T1738 1496Q1726 1506 1704 1506Q1606 1505 1533
1397Q1442 1261 1344 920T1121 -10H1076L568 1102Q481 670 402 372T249 -23Q202 -83 153 -117T29 -152Q-32 -152 -75 -129T-140 -66T-163 23Q-163 75 -139 118T-73 185T23 210Q89 210 126 176T163 87Q163 19 120 -32T9 -104Q19 -113 42 -113Q146 -113 216 -2Q295
121 378 441T560 1278Q564 1302 564 1324Q564 1358 550 1375T502 1400T406 1409L417 1450Q481 1444 599 1444Q694 1444 765 1450L1188 475Q1359 1215 1496 1413Q1586 1544 1717 1544Q1778 1544 1821 1521ZM1105 1898T1145 1887T1213 1859T1280 1815Q1327 1781 1361
1765T1443 1749Q1488 1749 1526 1776T1601 1867L1638 1857Q1583 1713 1492 1643T1298 1572Q1247 1572 1207 1583T1139 1611T1072 1655Q1026 1689 991 1705T909 1722Q865 1722 827 1694T751 1603L714 1613Q770 1758 861 1828T1054 1898Q1105 1898 1145 1887Z" />
<glyph unicode="&#xd2;" glyph-name="Ograve" horiz-adv-x="1591" d="M86 695T204 932T535 1324T1014 1479Q1187 1479 1312 1421T1504 1252T1571 985Q1571 754 1452 518T1119 126T641 -29Q468 -29 343 29T152 197T86 463Q86 695 204 932ZM856 1442T727 1295T518
913T438 436Q438 305 466 208T544 60T659 8Q799 8 928 155T1137 537T1217 1014Q1217 1145 1189 1242T1110 1390T995 1442Q856 1442 727 1295ZM1048 1630T918 1675Q813 1710 769 1740Q740 1758 723 1786T705 1845Q705 1869 719 1894Q749 1944 813 1944Q857 1944
889 1921Q917 1903 940 1878T1000 1804Q1093 1683 1176 1602L1159 1579Q1048 1630 918 1675Z" />
<glyph unicode="&#xd3;" glyph-name="Oacute" horiz-adv-x="1591" d="M86 695T204 932T535 1324T1014 1479Q1187 1479 1312 1421T1504 1252T1571 985Q1571 754 1452 518T1119 126T641 -29Q468 -29 343 29T152 197T86 463Q86 695 204 932ZM856 1442T727 1295T518
913T438 436Q438 305 466 208T544 60T659 8Q799 8 928 155T1137 537T1217 1014Q1217 1145 1189 1242T1110 1390T995 1442Q856 1442 727 1295ZM1032 1681T1151 1794Q1215 1854 1250 1883T1325 1935Q1368 1959 1413 1959Q1483 1959 1512 1903Q1522 1883 1522 1862Q1522
1828 1497 1798T1430 1744Q1395 1724 1353 1710T1234 1674Q1056 1622 950 1581L936 1605Q1032 1681 1151 1794Z" />
<glyph unicode="&#xd4;" glyph-name="Ocircumflex" horiz-adv-x="1591" d="M86 695T204 932T535 1324T1014 1479Q1187 1479 1312 1421T1504 1252T1571 985Q1571 754 1452 518T1119 126T641 -29Q468 -29 343 29T152 197T86 463Q86 695 204 932ZM856 1442T727 1295T518
913T438 436Q438 305 466 208T544 60T659 8Q799 8 928 155T1137 537T1217 1014Q1217 1145 1189 1242T1110 1390T995 1442Q856 1442 727 1295ZM864 1621T633 1579L623 1607Q792 1660 940 1745T1178 1925H1215Q1261 1811 1325 1736T1499 1607L1491 1579Q1356 1602
1267 1630T1078 1701Q864 1621 633 1579Z" />
<glyph unicode="&#xd5;" glyph-name="Otilde" horiz-adv-x="1591" d="M86 695T204 932T535 1324T1014 1479Q1187 1479 1312 1421T1504 1252T1571 985Q1571 754 1452 518T1119 126T641 -29Q468 -29 343 29T152 197T86 463Q86 695 204 932ZM856 1442T727 1295T518
913T438 436Q438 305 466 208T544 60T659 8Q799 8 928 155T1137 537T1217 1014Q1217 1145 1189 1242T1110 1390T995 1442Q856 1442 727 1295ZM1051 1898T1091 1887T1159 1859T1226 1815Q1273 1781 1307 1765T1389 1749Q1434 1749 1472 1776T1547 1867L1584 1857Q1529
1713 1438 1643T1244 1572Q1193 1572 1153 1583T1085 1611T1018 1655Q972 1689 937 1705T855 1722Q811 1722 773 1694T697 1603L660 1613Q716 1758 807 1828T1000 1898Q1051 1898 1091 1887Z" />
<glyph unicode="&#xd6;" glyph-name="Odieresis" horiz-adv-x="1591" d="M86 695T204 932T535 1324T1014 1479Q1187 1479 1312 1421T1504 1252T1571 985Q1571 754 1452 518T1119 126T641 -29Q468 -29 343 29T152 197T86 463Q86 695 204 932ZM856 1442T727 1295T518
913T438 436Q438 305 466 208T544 60T659 8Q799 8 928 155T1137 537T1217 1014Q1217 1145 1189 1242T1110 1390T995 1442Q856 1442 727 1295ZM681 1757T705 1796T770 1857T858 1878Q922 1878 956 1840T991 1741Q991 1687 966 1648T900 1589T813 1569Q748 1569 715
1605T681 1704Q681 1757 705 1796ZM1172 1757T1196 1796T1261 1857T1349 1878Q1413 1878 1447 1840T1482 1741Q1482 1687 1457 1648T1391 1589T1304 1569Q1239 1569 1206 1605T1172 1704Q1172 1757 1196 1796Z" />
<glyph unicode="&#xd7;" glyph-name="multiply" horiz-adv-x="1016" d="M239 1085L292 1122L544 764L1009 1126L1042 1081L577 721L833 367L782 330L528 684L69 328L38 373L495 727L239 1085Z" />
<glyph unicode="&#xd8;" glyph-name="Oslash" horiz-adv-x="1591" d="M1571 1206T1571 985Q1571 754 1452 518T1119 126T641 -29Q398 -29 254 83L29 -150L-5 -121L219 112Q86 242 86 463Q86 695 204 932T535 1324T1014 1479Q1262 1479 1407 1363L1617 1583L1647
1556L1439 1335Q1571 1206 1571 985ZM856 1442T727 1295T518 913T438 436Q438 365 447 303L1205 1169Q1183 1299 1128 1370T995 1442Q856 1442 727 1295ZM799 8T928 155T1137 537T1217 1014Q1217 1061 1212 1114L456 247Q481 133 534 71T659 8Q799 8 928 155Z"
/>
<glyph unicode="&#xd9;" glyph-name="Ugrave" horiz-adv-x="1421" d="M1348 1232T1348 1288Q1348 1348 1314 1374T1193 1409L1205 1450Q1280 1444 1424 1444Q1537 1444 1604 1450L1593 1409Q1524 1400 1485 1375T1421 1296T1368 1139L1228 596Q1155 313 1027 162Q952
74 842 23T607 -29Q459 -29 359 13T208 132Q155 209 155 325Q155 429 198 590L368 1233Q385 1298 385 1331Q385 1362 371 1378T329 1400T247 1409L259 1450Q364 1444 597 1444Q789 1444 915 1450L902 1409Q827 1406 791 1393T733 1345T691 1233L511 555Q462 373
462 258Q462 150 507 97T646 43Q861 43 985 182T1175 573L1317 1114Q1348 1232 1348 1288ZM983 1630T853 1675Q748 1710 704 1740Q675 1758 658 1786T640 1845Q640 1869 654 1894Q684 1944 748 1944Q792 1944 824 1921Q852 1903 875 1878T935 1804Q1028 1683 1111
1602L1094 1579Q983 1630 853 1675Z" />
<glyph unicode="&#xda;" glyph-name="Uacute" horiz-adv-x="1421" d="M1348 1232T1348 1288Q1348 1348 1314 1374T1193 1409L1205 1450Q1280 1444 1424 1444Q1537 1444 1604 1450L1593 1409Q1524 1400 1485 1375T1421 1296T1368 1139L1228 596Q1155 313 1027 162Q952
74 842 23T607 -29Q459 -29 359 13T208 132Q155 209 155 325Q155 429 198 590L368 1233Q385 1298 385 1331Q385 1362 371 1378T329 1400T247 1409L259 1450Q364 1444 597 1444Q789 1444 915 1450L902 1409Q827 1406 791 1393T733 1345T691 1233L511 555Q462 373
462 258Q462 150 507 97T646 43Q861 43 985 182T1175 573L1317 1114Q1348 1232 1348 1288ZM967 1681T1086 1794Q1150 1854 1185 1883T1260 1935Q1303 1959 1348 1959Q1418 1959 1447 1903Q1457 1883 1457 1862Q1457 1828 1432 1798T1365 1744Q1330 1724 1288 1710T1169
1674Q991 1622 885 1581L871 1605Q967 1681 1086 1794Z" />
<glyph unicode="&#xdb;" glyph-name="Ucircumflex" horiz-adv-x="1421" d="M1348 1232T1348 1288Q1348 1348 1314 1374T1193 1409L1205 1450Q1280 1444 1424 1444Q1537 1444 1604 1450L1593 1409Q1524 1400 1485 1375T1421 1296T1368 1139L1228 596Q1155 313 1027
162Q952 74 842 23T607 -29Q459 -29 359 13T208 132Q155 209 155 325Q155 429 198 590L368 1233Q385 1298 385 1331Q385 1362 371 1378T329 1400T247 1409L259 1450Q364 1444 597 1444Q789 1444 915 1450L902 1409Q827 1406 791 1393T733 1345T691 1233L511 555Q462
373 462 258Q462 150 507 97T646 43Q861 43 985 182T1175 573L1317 1114Q1348 1232 1348 1288ZM799 1621T568 1579L558 1607Q727 1660 875 1745T1113 1925H1150Q1196 1811 1260 1736T1434 1607L1426 1579Q1291 1602 1202 1630T1013 1701Q799 1621 568 1579Z" />
<glyph unicode="&#xdc;" glyph-name="Udieresis" horiz-adv-x="1421" d="M1348 1232T1348 1288Q1348 1348 1314 1374T1193 1409L1205 1450Q1280 1444 1424 1444Q1537 1444 1604 1450L1593 1409Q1524 1400 1485 1375T1421 1296T1368 1139L1228 596Q1155 313 1027
162Q952 74 842 23T607 -29Q459 -29 359 13T208 132Q155 209 155 325Q155 429 198 590L368 1233Q385 1298 385 1331Q385 1362 371 1378T329 1400T247 1409L259 1450Q364 1444 597 1444Q789 1444 915 1450L902 1409Q827 1406 791 1393T733 1345T691 1233L511 555Q462
373 462 258Q462 150 507 97T646 43Q861 43 985 182T1175 573L1317 1114Q1348 1232 1348 1288ZM616 1757T640 1796T705 1857T793 1878Q857 1878 891 1840T926 1741Q926 1687 901 1648T835 1589T748 1569Q683 1569 650 1605T616 1704Q616 1757 640 1796ZM1107 1757T1131
1796T1196 1857T1284 1878Q1348 1878 1382 1840T1417 1741Q1417 1687 1392 1648T1326 1589T1239 1569Q1174 1569 1141 1605T1107 1704Q1107 1757 1131 1796Z" />
<glyph unicode="&#xdd;" glyph-name="Yacute" horiz-adv-x="1502" d="M1538 1479T1581 1455T1646 1391T1669 1301Q1669 1250 1645 1208T1579 1142T1483 1117Q1416 1117 1379 1151T1342 1242Q1342 1308 1385 1359T1496 1431Q1484 1441 1463 1441Q1403 1440 1339
1393Q1281 1351 1208 1255T1058 1008T915 667L802 217Q789 162 789 134Q789 97 805 78T855 52T947 41L937 0Q823 6 585 6Q363 6 255 0L265 41Q340 44 377 57T436 105T476 217L588 658Q557 937 499 1132T353 1328Q318 1328 296 1303T258 1232L214 1102H169L222 1260Q260
1376 332 1427T510 1479Q644 1479 720 1396T834 1161T901 748Q969 939 1055 1093T1236 1352Q1354 1479 1479 1479Q1538 1479 1581 1455ZM951 1681T1070 1794Q1134 1854 1169 1883T1244 1935Q1287 1959 1332 1959Q1402 1959 1431 1903Q1441 1883 1441 1862Q1441
1828 1416 1798T1349 1744Q1314 1724 1272 1710T1153 1674Q975 1622 869 1581L855 1605Q951 1681 1070 1794Z" />
<glyph unicode="&#xde;" glyph-name="Thorn" horiz-adv-x="1353" d="M441 151T441 118Q441 88 454 72T497 50T579 41L571 0Q452 6 237 6Q23 6 -85 0L-75 41Q-4 44 32 57T90 105T132 217L403 1233Q420 1298 420 1331Q420 1362 406 1378T364 1400T282 1409L292 1450Q394
1444 614 1444Q818 1444 949 1450L939 1409Q864 1406 828 1393T770 1345T728 1233L706 1151Q814 1153 869 1153Q1029 1153 1136 1115T1297 1008T1350 844Q1350 684 1243 558T944 359T504 287H477L458 217Q441 151 441 118ZM742 1114T696 1112L487 328H525Q688 328
796 403T956 603T1008 877Q1008 988 952 1051T785 1114Q742 1114 696 1112Z" />
<glyph unicode="&#xdf;" glyph-name="germandbls" horiz-adv-x="1391" d="M57 -357T-100 -385L194 690Q254 913 358 1042T595 1222T896 1274Q1090 1274 1192 1215T1294 1044Q1294 910 1158 819T803 684Q966 671 1067 624T1213 510T1257 364Q1257 253 1179 163T971
22T691 -29Q571 -29 507 7T442 124Q442 172 463 216T523 287T614 315Q671 315 706 281T741 192Q741 130 697 79T588 12Q622 4 664 4Q741 4 804 53T902 184T938 362Q938 447 914 516T849 626T762 666Q754 664 729 656T688 645T657 641Q614 641 614 666Q614 681 631
694T675 707Q718 707 774 688Q864 738 913 850T963 1094Q963 1171 939 1207T854 1243Q773 1243 703 1177T591 960L227 -354Q57 -357 -100 -385Z" />
<glyph unicode="&#xe0;" glyph-name="agrave" horiz-adv-x="1334" d="M1095 105T1123 74T1187 41L1177 0Q1072 6 880 6Q672 6 573 0L583 41Q646 44 684 55T742 93T762 172Q762 191 759 213L728 467H272L120 278Q56 200 56 146Q56 59 219 41L214 0Q81 6 -35 6Q-126
6 -186 0L-181 41Q-126 61 -76 110T58 263L856 1260Q890 1258 908 1258Q926 1258 960 1260L1087 172Q1095 105 1123 74ZM669 961L305 508H723L669 961ZM910 1424T776 1470Q719 1489 687 1502T627 1535Q598 1553 581 1581T563 1640Q563 1664 577 1689Q606 1739 671
1739Q713 1739 746 1717Q774 1699 796 1674T857 1600Q952 1477 1034 1397L1017 1374Q910 1424 776 1470Z" />
<glyph unicode="&#xe1;" glyph-name="aacute" horiz-adv-x="1334" d="M1095 105T1123 74T1187 41L1177 0Q1072 6 880 6Q672 6 573 0L583 41Q646 44 684 55T742 93T762 172Q762 191 759 213L728 467H272L120 278Q56 200 56 146Q56 59 219 41L214 0Q81 6 -35 6Q-126
6 -186 0L-181 41Q-126 61 -76 110T58 263L856 1260Q890 1258 908 1258Q926 1258 960 1260L1087 172Q1095 105 1123 74ZM669 961L305 508H723L669 961ZM850 1476T969 1589Q1033 1649 1068 1678T1143 1730Q1186 1754 1231 1754Q1301 1754 1330 1698Q1340 1678 1340
1657Q1340 1592 1248 1539Q1213 1519 1171 1505T1052 1469Q874 1417 768 1376L754 1400Q850 1476 969 1589Z" />
<glyph unicode="&#xe2;" glyph-name="acircumflex" horiz-adv-x="1334" d="M1095 105T1123 74T1187 41L1177 0Q1072 6 880 6Q672 6 573 0L583 41Q646 44 684 55T742 93T762 172Q762 191 759 213L728 467H272L120 278Q56 200 56 146Q56 59 219 41L214 0Q81 6 -35
6Q-126 6 -186 0L-181 41Q-126 61 -76 110T58 263L856 1260Q890 1258 908 1258Q926 1258 960 1260L1087 172Q1095 105 1123 74ZM669 961L305 508H723L669 961ZM694 1416T463 1374L453 1402Q622 1455 770 1540T1008 1720H1045Q1091 1606 1155 1531T1329 1402L1321
1374Q1187 1396 1099 1424T908 1496Q694 1416 463 1374Z" />
<glyph unicode="&#xe3;" glyph-name="atilde" horiz-adv-x="1334" d="M1095 105T1123 74T1187 41L1177 0Q1072 6 880 6Q672 6 573 0L583 41Q646 44 684 55T742 93T762 172Q762 191 759 213L728 467H272L120 278Q56 200 56 146Q56 59 219 41L214 0Q81 6 -35 6Q-126
6 -186 0L-181 41Q-126 61 -76 110T58 263L856 1260Q890 1258 908 1258Q926 1258 960 1260L1087 172Q1095 105 1123 74ZM669 961L305 508H723L669 961ZM843 1693T882 1682T950 1654T1017 1610Q1064 1576 1099 1560T1181 1544Q1225 1544 1263 1572T1339 1663L1376
1652Q1320 1508 1229 1438T1036 1368Q985 1368 945 1379T877 1407T810 1451Q763 1485 729 1501T647 1517Q602 1517 564 1489T489 1398L452 1409Q507 1553 598 1623T792 1693Q843 1693 882 1682Z" />
<glyph unicode="&#xe4;" glyph-name="adieresis" horiz-adv-x="1334" d="M1095 105T1123 74T1187 41L1177 0Q1072 6 880 6Q672 6 573 0L583 41Q646 44 684 55T742 93T762 172Q762 191 759 213L728 467H272L120 278Q56 200 56 146Q56 59 219 41L214 0Q81 6 -35
6Q-126 6 -186 0L-181 41Q-126 61 -76 110T58 263L856 1260Q890 1258 908 1258Q926 1258 960 1260L1087 172Q1095 105 1123 74ZM669 961L305 508H723L669 961ZM526 1552T550 1591T615 1652T703 1673Q767 1673 801 1635T836 1536Q836 1482 811 1443T745 1384T658
1364Q593 1364 560 1400T526 1499Q526 1552 550 1591ZM1017 1552T1041 1591T1106 1652T1194 1673Q1258 1673 1292 1635T1327 1536Q1327 1482 1302 1443T1236 1384T1149 1364Q1084 1364 1051 1400T1017 1499Q1017 1552 1041 1591Z" />
<glyph unicode="&#xe5;" glyph-name="aring" horiz-adv-x="1334" d="M1095 105T1123 74T1187 41L1177 0Q1072 6 880 6Q672 6 573 0L583 41Q646 44 684 55T742 93T762 172Q762 191 759 213L728 467H272L120 278Q56 200 56 146Q56 59 219 41L214 0Q81 6 -35 6Q-126
6 -186 0L-181 41Q-126 61 -76 110T58 263L856 1260Q890 1258 908 1258Q926 1258 960 1260L1087 172Q1095 105 1123 74ZM669 961L305 508H723L669 961ZM1038 1714T1083 1693T1155 1631T1182 1539Q1182 1479 1147 1428T1052 1346T927 1315Q843 1315 789 1362T734
1491Q734 1553 767 1604T856 1684T981 1714Q1038 1714 1083 1693ZM985 1358T1029 1382T1101 1447T1129 1538Q1129 1581 1107 1611T1049 1656T974 1671Q925 1671 882 1646T814 1580T788 1492Q788 1450 809 1420T864 1374T936 1358Q985 1358 1029 1382Z" />
<glyph unicode="&#xe6;" glyph-name="ae" horiz-adv-x="1871" d="M1770 1239T1898 1245Q1879 1192 1834 1049L1820 1004Q1803 942 1794 877H1749Q1764 962 1764 1021Q1764 1117 1722 1157T1583 1198H1454Q1382 1198 1347 1187T1291 1140T1249 1028L1147 647H1300Q1358
647 1396 677T1458 753T1511 877H1556Q1533 808 1502 689L1486 627Q1464 545 1433 377H1388Q1388 388 1393 440Q1398 477 1398 503Q1398 549 1376 575T1292 606H1136L1032 217Q1014 147 1014 117Q1014 88 1027 73T1069 53T1149 47H1298Q1397 47 1460 81T1570 192T1665
410H1710Q1693 368 1667 262Q1635 154 1613 0Q1474 6 1151 6Q710 6 487 0L495 41Q569 44 605 57T664 105T706 217L810 606H445L79 193Q20 126 20 96Q20 51 146 41V0Q90 6 -30 6Q-118 6 -167 0V41Q-104 44 9 172L906 1188Q878 1201 802 1204L813 1245L954 1242L1053
1354H1107L1007 1241Q1189 1239 1478 1239Q1770 1239 1898 1245ZM923 1028Q940 1094 940 1127Q940 1146 935 1159L481 647H821L923 1028Z" />
<glyph unicode="&#xe7;" glyph-name="ccedilla" horiz-adv-x="1390" d="M1372 1062T1303 774H1257Q1270 875 1270 932Q1270 977 1263 1009T1237 1077Q1200 1155 1126 1196T956 1237Q811 1237 683 1102T478 761T401 360Q401 205 452 115T595 11H650L649 8Q740 13
833 54T997 168Q1051 224 1090 294T1182 492H1227Q1130 137 1106 0H1061Q1067 43 1067 70Q1067 122 1041 122Q1026 122 999 104Q910 42 826 8T632 -29L586 -129Q643 -109 704 -109Q768 -109 805 -133T842 -206Q842 -267 791 -307T660 -366T494 -385Q425 -385 365
-373T270 -345L283 -313Q359 -336 448 -336Q515 -336 573 -315T632 -242Q632 -195 567 -195Q531 -195 495 -209L577 -29Q416 -24 300 27T123 174T61 401Q61 608 175 811T498 1144T975 1274Q1087 1274 1156 1239T1278 1141Q1293 1123 1307 1123Q1346 1123 1391 1245H1436Q1372
1062 1303 774Z" />
<glyph unicode="&#xe8;" glyph-name="egrave" horiz-adv-x="1298" d="M1196 1239T1327 1245Q1277 1116 1251 1012Q1230 926 1221 877H1175Q1182 926 1182 973Q1182 1094 1124 1146T946 1198H883Q810 1198 774 1187T717 1140T675 1028L573 647H668Q761 647 831
716T936 877H982Q949 776 918 654L911 627Q892 556 882 512T856 377H811Q812 386 812 406Q812 606 637 606H562L458 217Q440 147 440 117Q440 88 453 73T495 53T576 47H652Q757 47 835 81T975 195T1091 410H1137Q1110 334 1092 254Q1062 153 1039 0Q898 6 569 6Q132
6 -88 0L-79 41Q-5 44 31 57T90 105T132 217L350 1028Q367 1094 367 1127Q367 1157 354 1173T312 1195T230 1204L240 1245Q458 1239 895 1239Q1196 1239 1327 1245ZM832 1424T698 1470Q641 1489 609 1502T549 1535Q520 1553 503 1581T485 1640Q485 1664 499 1689Q528
1739 593 1739Q635 1739 668 1717Q696 1699 718 1674T779 1600Q874 1477 956 1397L939 1374Q832 1424 698 1470Z" />
<glyph unicode="&#xe9;" glyph-name="eacute" horiz-adv-x="1298" d="M1196 1239T1327 1245Q1277 1116 1251 1012Q1230 926 1221 877H1175Q1182 926 1182 973Q1182 1094 1124 1146T946 1198H883Q810 1198 774 1187T717 1140T675 1028L573 647H668Q761 647 831
716T936 877H982Q949 776 918 654L911 627Q892 556 882 512T856 377H811Q812 386 812 406Q812 606 637 606H562L458 217Q440 147 440 117Q440 88 453 73T495 53T576 47H652Q757 47 835 81T975 195T1091 410H1137Q1110 334 1092 254Q1062 153 1039 0Q898 6 569 6Q132
6 -88 0L-79 41Q-5 44 31 57T90 105T132 217L350 1028Q367 1094 367 1127Q367 1157 354 1173T312 1195T230 1204L240 1245Q458 1239 895 1239Q1196 1239 1327 1245ZM772 1476T891 1589Q955 1649 990 1678T1065 1730Q1108 1754 1153 1754Q1223 1754 1252 1698Q1262
1678 1262 1657Q1262 1592 1170 1539Q1135 1519 1093 1505T974 1469Q796 1417 690 1376L676 1400Q772 1476 891 1589Z" />
<glyph unicode="&#xea;" glyph-name="ecircumflex" horiz-adv-x="1298" d="M1196 1239T1327 1245Q1277 1116 1251 1012Q1230 926 1221 877H1175Q1182 926 1182 973Q1182 1094 1124 1146T946 1198H883Q810 1198 774 1187T717 1140T675 1028L573 647H668Q761 647
831 716T936 877H982Q949 776 918 654L911 627Q892 556 882 512T856 377H811Q812 386 812 406Q812 606 637 606H562L458 217Q440 147 440 117Q440 88 453 73T495 53T576 47H652Q757 47 835 81T975 195T1091 410H1137Q1110 334 1092 254Q1062 153 1039 0Q898 6 569
6Q132 6 -88 0L-79 41Q-5 44 31 57T90 105T132 217L350 1028Q367 1094 367 1127Q367 1157 354 1173T312 1195T230 1204L240 1245Q458 1239 895 1239Q1196 1239 1327 1245ZM616 1416T385 1374L375 1402Q544 1455 692 1540T930 1720H967Q1013 1606 1077 1531T1251
1402L1243 1374Q1109 1396 1021 1424T830 1496Q616 1416 385 1374Z" />
<glyph unicode="&#xeb;" glyph-name="edieresis" horiz-adv-x="1298" d="M1196 1239T1327 1245Q1277 1116 1251 1012Q1230 926 1221 877H1175Q1182 926 1182 973Q1182 1094 1124 1146T946 1198H883Q810 1198 774 1187T717 1140T675 1028L573 647H668Q761 647 831
716T936 877H982Q949 776 918 654L911 627Q892 556 882 512T856 377H811Q812 386 812 406Q812 606 637 606H562L458 217Q440 147 440 117Q440 88 453 73T495 53T576 47H652Q757 47 835 81T975 195T1091 410H1137Q1110 334 1092 254Q1062 153 1039 0Q898 6 569 6Q132
6 -88 0L-79 41Q-5 44 31 57T90 105T132 217L350 1028Q367 1094 367 1127Q367 1157 354 1173T312 1195T230 1204L240 1245Q458 1239 895 1239Q1196 1239 1327 1245ZM448 1552T472 1591T537 1652T625 1673Q689 1673 723 1635T758 1536Q758 1482 733 1443T667 1384T580
1364Q515 1364 482 1400T448 1499Q448 1552 472 1591ZM939 1552T963 1591T1028 1652T1116 1673Q1180 1673 1214 1635T1249 1536Q1249 1482 1224 1443T1158 1384T1071 1364Q1006 1364 973 1400T939 1499Q939 1552 963 1591Z" />
<glyph unicode="&#xec;" glyph-name="igrave" horiz-adv-x="798" d="M441 151T441 118Q441 88 454 72T497 50T579 41L571 0Q454 6 237 6Q23 6 -84 0L-74 41Q-3 44 33 57T91 105T133 217L348 1028Q365 1093 365 1126Q365 1157 351 1173T309 1195T227 1204L237 1245Q339
1239 559 1239Q763 1239 895 1245L884 1204Q809 1201 773 1188T715 1140T673 1028L458 217Q441 151 441 118ZM607 1424T473 1470Q416 1489 384 1502T324 1535Q295 1553 278 1581T260 1640Q260 1664 274 1689Q303 1739 368 1739Q410 1739 443 1717Q471 1699 493
1674T554 1600Q649 1477 731 1397L714 1374Q607 1424 473 1470Z" />
<glyph unicode="&#xed;" glyph-name="iacute" horiz-adv-x="798" d="M441 151T441 118Q441 88 454 72T497 50T579 41L571 0Q454 6 237 6Q23 6 -84 0L-74 41Q-3 44 33 57T91 105T133 217L348 1028Q365 1093 365 1126Q365 1157 351 1173T309 1195T227 1204L237 1245Q339
1239 559 1239Q763 1239 895 1245L884 1204Q809 1201 773 1188T715 1140T673 1028L458 217Q441 151 441 118ZM547 1476T666 1589Q730 1649 765 1678T840 1730Q883 1754 928 1754Q998 1754 1027 1698Q1037 1678 1037 1657Q1037 1592 945 1539Q910 1519 868 1505T749
1469Q571 1417 465 1376L451 1400Q547 1476 666 1589Z" />
<glyph unicode="&#xee;" glyph-name="icircumflex" horiz-adv-x="798" d="M441 151T441 118Q441 88 454 72T497 50T579 41L571 0Q454 6 237 6Q23 6 -84 0L-74 41Q-3 44 33 57T91 105T133 217L348 1028Q365 1093 365 1126Q365 1157 351 1173T309 1195T227 1204L237
1245Q339 1239 559 1239Q763 1239 895 1245L884 1204Q809 1201 773 1188T715 1140T673 1028L458 217Q441 151 441 118ZM391 1416T160 1374L150 1402Q319 1455 467 1540T705 1720H742Q788 1606 852 1531T1026 1402L1018 1374Q884 1396 796 1424T605 1496Q391 1416
160 1374Z" />
<glyph unicode="&#xef;" glyph-name="idieresis" horiz-adv-x="798" d="M441 151T441 118Q441 88 454 72T497 50T579 41L571 0Q454 6 237 6Q23 6 -84 0L-74 41Q-3 44 33 57T91 105T133 217L348 1028Q365 1093 365 1126Q365 1157 351 1173T309 1195T227 1204L237
1245Q339 1239 559 1239Q763 1239 895 1245L884 1204Q809 1201 773 1188T715 1140T673 1028L458 217Q441 151 441 118ZM223 1552T247 1591T312 1652T400 1673Q464 1673 498 1635T533 1536Q533 1482 508 1443T442 1384T355 1364Q290 1364 257 1400T223 1499Q223
1552 247 1591ZM714 1552T738 1591T803 1652T891 1673Q955 1673 989 1635T1024 1536Q1024 1482 999 1443T933 1384T846 1364Q781 1364 748 1400T714 1499Q714 1552 738 1591Z" />
<glyph unicode="&#xf0;" glyph-name="eth" horiz-adv-x="1586" d="M1197 1245T1358 1129T1519 783Q1519 565 1397 387T1050 104T530 0Q503 0 417 2Q303 6 219 6Q24 6 -78 0L-72 41Q-2 44 33 57T91 105T133 217L236 603H68L80 654H250L350 1028Q368 1093 368 1126Q368
1168 338 1185T229 1204L235 1245Q373 1238 495 1238L559 1239Q778 1245 864 1245Q1197 1245 1358 1129ZM754 37T899 143T1115 425T1187 809Q1187 1005 1097 1106T831 1208Q782 1208 755 1195T711 1145T673 1032L574 654H900L887 603H560L458 213Q439 139 439 104Q439
66 462 52T545 37Q754 37 899 143Z" />
<glyph unicode="&#xf1;" glyph-name="ntilde" horiz-adv-x="1791" d="M1818 1339T1861 1316T1927 1254T1950 1166Q1950 1114 1926 1071T1860 1003T1764 978Q1697 978 1660 1012T1623 1101Q1623 1169 1666 1220T1777 1291Q1767 1301 1744 1301Q1690 1300 1651 1272T1572
1192Q1481 1064 1381 771T1161 -10H1116L586 1001Q384 142 251 -23Q202 -84 153 -118T32 -152Q-29 -152 -72 -129T-138 -66T-161 23Q-161 75 -137 118T-71 185T25 210Q92 210 129 176T166 87Q166 19 123 -32T12 -104Q21 -112 44 -112Q144 -111 219 -2Q296 112 382
394T567 1110Q569 1149 556 1167T509 1193T409 1204L419 1245Q484 1239 602 1239Q730 1239 829 1245L1236 435Q1406 1040 1536 1208Q1632 1339 1757 1339Q1818 1339 1861 1316ZM1081 1693T1120 1682T1188 1654T1255 1610Q1302 1576 1337 1560T1419 1544Q1463 1544
1501 1572T1577 1663L1614 1652Q1558 1508 1467 1438T1274 1368Q1223 1368 1183 1379T1115 1407T1048 1451Q1001 1485 967 1501T885 1517Q840 1517 802 1489T727 1398L690 1409Q745 1553 836 1623T1030 1693Q1081 1693 1120 1682Z" />
<glyph unicode="&#xf2;" glyph-name="ograve" horiz-adv-x="1596" d="M474 -29T345 25T143 190T70 465Q70 650 184 839T501 1151T958 1274Q1131 1274 1261 1220T1463 1055T1536 780Q1536 595 1422 406T1105 94T647 -29Q474 -29 345 25ZM795 1237T677 1121T492
819T424 436Q424 214 488 111T666 8Q811 8 929 124T1114 426T1182 809Q1182 1030 1117 1133T940 1237Q795 1237 677 1121ZM1015 1424T881 1470Q824 1489 792 1502T732 1535Q703 1553 686 1581T668 1640Q668 1664 682 1689Q711 1739 776 1739Q818 1739 851 1717Q879
1699 901 1674T962 1600Q1057 1477 1139 1397L1122 1374Q1015 1424 881 1470Z" />
<glyph unicode="&#xf3;" glyph-name="oacute" horiz-adv-x="1596" d="M474 -29T345 25T143 190T70 465Q70 650 184 839T501 1151T958 1274Q1131 1274 1261 1220T1463 1055T1536 780Q1536 595 1422 406T1105 94T647 -29Q474 -29 345 25ZM795 1237T677 1121T492
819T424 436Q424 214 488 111T666 8Q811 8 929 124T1114 426T1182 809Q1182 1030 1117 1133T940 1237Q795 1237 677 1121ZM955 1476T1074 1589Q1138 1649 1173 1678T1248 1730Q1291 1754 1336 1754Q1406 1754 1435 1698Q1445 1678 1445 1657Q1445 1592 1353 1539Q1318
1519 1276 1505T1157 1469Q979 1417 873 1376L859 1400Q955 1476 1074 1589Z" />
<glyph unicode="&#xf4;" glyph-name="ocircumflex" horiz-adv-x="1596" d="M474 -29T345 25T143 190T70 465Q70 650 184 839T501 1151T958 1274Q1131 1274 1261 1220T1463 1055T1536 780Q1536 595 1422 406T1105 94T647 -29Q474 -29 345 25ZM795 1237T677 1121T492
819T424 436Q424 214 488 111T666 8Q811 8 929 124T1114 426T1182 809Q1182 1030 1117 1133T940 1237Q795 1237 677 1121ZM799 1416T568 1374L558 1402Q727 1455 875 1540T1113 1720H1150Q1196 1606 1260 1531T1434 1402L1426 1374Q1292 1396 1204 1424T1013 1496Q799
1416 568 1374Z" />
<glyph unicode="&#xf5;" glyph-name="otilde" horiz-adv-x="1596" d="M474 -29T345 25T143 190T70 465Q70 650 184 839T501 1151T958 1274Q1131 1274 1261 1220T1463 1055T1536 780Q1536 595 1422 406T1105 94T647 -29Q474 -29 345 25ZM795 1237T677 1121T492
819T424 436Q424 214 488 111T666 8Q811 8 929 124T1114 426T1182 809Q1182 1030 1117 1133T940 1237Q795 1237 677 1121ZM948 1693T987 1682T1055 1654T1122 1610Q1169 1576 1204 1560T1286 1544Q1330 1544 1368 1572T1444 1663L1481 1652Q1425 1508 1334 1438T1141
1368Q1090 1368 1050 1379T982 1407T915 1451Q868 1485 834 1501T752 1517Q707 1517 669 1489T594 1398L557 1409Q612 1553 703 1623T897 1693Q948 1693 987 1682Z" />
<glyph unicode="&#xf6;" glyph-name="odieresis" horiz-adv-x="1596" d="M474 -29T345 25T143 190T70 465Q70 650 184 839T501 1151T958 1274Q1131 1274 1261 1220T1463 1055T1536 780Q1536 595 1422 406T1105 94T647 -29Q474 -29 345 25ZM795 1237T677 1121T492
819T424 436Q424 214 488 111T666 8Q811 8 929 124T1114 426T1182 809Q1182 1030 1117 1133T940 1237Q795 1237 677 1121ZM631 1552T655 1591T720 1652T808 1673Q872 1673 906 1635T941 1536Q941 1482 916 1443T850 1384T763 1364Q698 1364 665 1400T631 1499Q631
1552 655 1591ZM1122 1552T1146 1591T1211 1652T1299 1673Q1363 1673 1397 1635T1432 1536Q1432 1482 1407 1443T1341 1384T1254 1364Q1189 1364 1156 1400T1122 1499Q1122 1552 1146 1591Z" />
<glyph unicode="&#xf7;" glyph-name="divide" horiz-adv-x="1303" d="M702 1068T744 1101T833 1135Q872 1135 896 1112T920 1053Q920 1040 915 1022Q902 974 859 942T768 909Q730 909 707 931T683 989Q683 1004 688 1022Q702 1068 744 1101ZM1204 758L1186 696H160L178
758H1204ZM531 478T574 511T663 545Q702 545 726 522T750 463Q750 450 745 432Q731 385 688 351T598 317Q560 317 537 340T513 400Q513 414 518 432Q531 478 574 511Z" />
<glyph unicode="&#xf8;" glyph-name="oslash" horiz-adv-x="1596" d="M1431 1120T1483 1019T1536 780Q1536 595 1422 406T1105 94T647 -29Q426 -29 282 57L71 -156L36 -127L244 82Q70 212 70 465Q70 650 184 839T501 1151T958 1274Q1158 1274 1295 1204L1529 1448L1559
1421L1334 1182Q1431 1120 1483 1019ZM795 1237T677 1121T492 819T424 436Q424 320 442 239L1152 1054Q1095 1237 940 1237Q795 1237 677 1121ZM811 8T929 124T1114 426T1182 809Q1182 923 1164 1004L456 187Q513 8 666 8Q811 8 929 124Z" />
<glyph unicode="&#xf9;" glyph-name="ugrave" horiz-adv-x="1428" d="M1153 311T1026 162Q949 72 836 22T576 -29Q316 -29 217 82Q178 126 161 174T143 285Q143 386 197 590L314 1028Q331 1093 331 1126Q331 1157 317 1173T275 1195T193 1204L205 1245Q310 1239
543 1239Q735 1239 861 1245L848 1204Q773 1201 737 1188T679 1140T637 1028L510 555Q460 369 460 255Q460 147 505 95T646 43Q861 43 984 182T1174 573L1264 909Q1296 1031 1296 1084Q1296 1143 1261 1169T1141 1204L1153 1245Q1230 1239 1372 1239Q1495 1239
1564 1245L1553 1204Q1482 1195 1441 1170T1371 1091T1316 934L1227 596Q1153 311 1026 162ZM944 1424T810 1470Q753 1489 721 1502T661 1535Q632 1553 615 1581T597 1640Q597 1664 611 1689Q640 1739 705 1739Q747 1739 780 1717Q808 1699 830 1674T891 1600Q986
1477 1068 1397L1051 1374Q944 1424 810 1470Z" />
<glyph unicode="&#xfa;" glyph-name="uacute" horiz-adv-x="1428" d="M1153 311T1026 162Q949 72 836 22T576 -29Q316 -29 217 82Q178 126 161 174T143 285Q143 386 197 590L314 1028Q331 1093 331 1126Q331 1157 317 1173T275 1195T193 1204L205 1245Q310 1239
543 1239Q735 1239 861 1245L848 1204Q773 1201 737 1188T679 1140T637 1028L510 555Q460 369 460 255Q460 147 505 95T646 43Q861 43 984 182T1174 573L1264 909Q1296 1031 1296 1084Q1296 1143 1261 1169T1141 1204L1153 1245Q1230 1239 1372 1239Q1495 1239
1564 1245L1553 1204Q1482 1195 1441 1170T1371 1091T1316 934L1227 596Q1153 311 1026 162ZM884 1476T1003 1589Q1067 1649 1102 1678T1177 1730Q1220 1754 1265 1754Q1335 1754 1364 1698Q1374 1678 1374 1657Q1374 1592 1282 1539Q1247 1519 1205 1505T1086
1469Q908 1417 802 1376L788 1400Q884 1476 1003 1589Z" />
<glyph unicode="&#xfb;" glyph-name="ucircumflex" horiz-adv-x="1428" d="M1153 311T1026 162Q949 72 836 22T576 -29Q316 -29 217 82Q178 126 161 174T143 285Q143 386 197 590L314 1028Q331 1093 331 1126Q331 1157 317 1173T275 1195T193 1204L205 1245Q310
1239 543 1239Q735 1239 861 1245L848 1204Q773 1201 737 1188T679 1140T637 1028L510 555Q460 369 460 255Q460 147 505 95T646 43Q861 43 984 182T1174 573L1264 909Q1296 1031 1296 1084Q1296 1143 1261 1169T1141 1204L1153 1245Q1230 1239 1372 1239Q1495
1239 1564 1245L1553 1204Q1482 1195 1441 1170T1371 1091T1316 934L1227 596Q1153 311 1026 162ZM728 1416T497 1374L487 1402Q656 1455 804 1540T1042 1720H1079Q1125 1606 1189 1531T1363 1402L1355 1374Q1221 1396 1133 1424T942 1496Q728 1416 497 1374Z"
/>
<glyph unicode="&#xfc;" glyph-name="udieresis" horiz-adv-x="1428" d="M1153 311T1026 162Q949 72 836 22T576 -29Q316 -29 217 82Q178 126 161 174T143 285Q143 386 197 590L314 1028Q331 1093 331 1126Q331 1157 317 1173T275 1195T193 1204L205 1245Q310
1239 543 1239Q735 1239 861 1245L848 1204Q773 1201 737 1188T679 1140T637 1028L510 555Q460 369 460 255Q460 147 505 95T646 43Q861 43 984 182T1174 573L1264 909Q1296 1031 1296 1084Q1296 1143 1261 1169T1141 1204L1153 1245Q1230 1239 1372 1239Q1495
1239 1564 1245L1553 1204Q1482 1195 1441 1170T1371 1091T1316 934L1227 596Q1153 311 1026 162ZM560 1552T584 1591T649 1652T737 1673Q801 1673 835 1635T870 1536Q870 1482 845 1443T779 1384T692 1364Q627 1364 594 1400T560 1499Q560 1552 584 1591ZM1051
1552T1075 1591T1140 1652T1228 1673Q1292 1673 1326 1635T1361 1536Q1361 1482 1336 1443T1270 1384T1183 1364Q1118 1364 1085 1400T1051 1499Q1051 1552 1075 1591Z" />
<glyph unicode="&#xfd;" glyph-name="yacute" horiz-adv-x="1400" d="M1382 1274T1422 1249T1483 1182T1504 1088Q1504 1032 1481 987T1416 915T1322 888Q1259 888 1225 925T1190 1023Q1190 1092 1232 1148T1344 1226Q1332 1233 1309 1233Q1234 1231 1164 1165Q1087
1096 997 959T817 599L719 217Q702 151 702 118Q702 88 715 72T758 50T840 41L830 0Q716 6 501 6Q280 6 172 0L183 41Q258 44 295 57T353 106T394 217L481 555Q450 814 409 957T301 1100Q273 1100 255 1081T223 1021L181 897H136L193 1066Q228 1169 291 1221T460
1274Q565 1274 628 1224T729 1071T797 786L812 694Q871 836 943 952T1083 1143Q1134 1202 1198 1238T1327 1274Q1382 1274 1422 1249ZM836 1476T955 1589Q1019 1649 1054 1678T1129 1730Q1172 1754 1217 1754Q1287 1754 1316 1698Q1326 1678 1326 1657Q1326 1592
1234 1539Q1199 1519 1157 1505T1038 1469Q860 1417 754 1376L740 1400Q836 1476 955 1589Z" />
<glyph unicode="&#xfe;" glyph-name="thorn" horiz-adv-x="1333" d="M441 151T441 118Q441 88 454 72T497 50T579 41L571 0Q454 6 237 6Q22 6 -84 0L-74 41Q-3 44 33 57T91 105T133 217L348 1028Q365 1093 365 1126Q365 1157 351 1173T309 1195T227 1204L237 1245Q339
1239 559 1239Q763 1239 895 1245L884 1204Q809 1201 773 1188T715 1140T673 1028L665 997Q759 999 810 999Q1061 999 1181 928T1301 726Q1301 594 1197 487T905 318T476 256H468L458 217Q441 151 441 118ZM655 960L479 297H496Q659 297 762 366T912 541T959 763Q959
868 904 914T741 961L655 960Z" />
<glyph unicode="&#xff;" glyph-name="ydieresis" horiz-adv-x="1400" d="M1382 1274T1422 1249T1483 1182T1504 1088Q1504 1032 1481 987T1416 915T1322 888Q1259 888 1225 925T1190 1023Q1190 1092 1232 1148T1344 1226Q1332 1233 1309 1233Q1234 1231 1164 1165Q1087
1096 997 959T817 599L719 217Q702 151 702 118Q702 88 715 72T758 50T840 41L830 0Q716 6 501 6Q280 6 172 0L183 41Q258 44 295 57T353 106T394 217L481 555Q450 814 409 957T301 1100Q273 1100 255 1081T223 1021L181 897H136L193 1066Q228 1169 291 1221T460
1274Q565 1274 628 1224T729 1071T797 786L812 694Q871 836 943 952T1083 1143Q1134 1202 1198 1238T1327 1274Q1382 1274 1422 1249ZM512 1552T536 1591T601 1652T689 1673Q753 1673 787 1635T822 1536Q822 1482 797 1443T731 1384T644 1364Q579 1364 546 1400T512
1499Q512 1552 536 1591ZM1003 1552T1027 1591T1092 1652T1180 1673Q1244 1673 1278 1635T1313 1536Q1313 1482 1288 1443T1222 1384T1135 1364Q1070 1364 1037 1400T1003 1499Q1003 1552 1027 1591Z" />
<glyph unicode="&#x2013;" glyph-name="endash" horiz-adv-x="1414" d="M1223 448H99L159 652H1284L1223 448Z" />
<glyph unicode="&#x2014;" glyph-name="emdash" horiz-adv-x="1998" d="M1805 448H96L156 652H1866L1805 448Z" />
<glyph unicode="&#x2018;" glyph-name="quoteleft" horiz-adv-x="561" d="M248 1208T329 1320T553 1496L563 1463Q470 1416 409 1344T341 1187Q402 1246 470 1246Q531 1246 564 1218T597 1136Q597 1081 568 1034T490 958T384 929Q318 929 283 967T248 1079Q248
1208 329 1320Z" />
<glyph unicode="&#x2019;" glyph-name="quoteright" horiz-adv-x="551" d="M629 1230T548 1118T324 942L314 975Q407 1022 468 1094T536 1251Q475 1192 407 1192Q346 1192 313 1220T280 1302Q280 1357 309 1404T387 1480T493 1509Q559 1509 594 1471T629 1359Q629
1230 548 1118Z" />
<glyph unicode="&#x201a;" glyph-name="quotesinglbase" horiz-adv-x="587" d="M342 9T261 -103T37 -279L27 -246Q120 -199 181 -127T249 30Q188 -29 120 -29Q59 -29 26 -1T-7 81Q-7 136 22 183T100 259T206 288Q272 288 307 250T342 138Q342 9 261 -103Z" />
<glyph unicode="&#x201c;" glyph-name="quotedblleft" horiz-adv-x="960" d="M652 1166T689 1246T794 1391T957 1498L967 1465Q873 1417 812 1345T745 1189Q804 1248 873 1248Q931 1248 961 1220T992 1138Q992 1083 965 1036T890 960T787 931Q652 931 652 1081Q652
1166 689 1246ZM249 1166T286 1246T391 1391T554 1498L564 1465Q470 1417 409 1345T342 1189Q403 1248 471 1248Q528 1248 559 1220T590 1138Q590 1083 562 1036T487 960T385 931Q249 931 249 1081Q249 1166 286 1246Z" />
<glyph unicode="&#x201d;" glyph-name="quotedblright" horiz-adv-x="949" d="M626 1280T589 1200T484 1055T321 948L311 981Q405 1029 466 1101T533 1257Q474 1198 405 1198Q347 1198 317 1226T286 1308Q286 1363 313 1410T388 1486T491 1515Q626 1515 626 1365Q626
1280 589 1200ZM1029 1280T992 1200T887 1055T724 948L714 981Q808 1029 869 1101T936 1257Q875 1198 807 1198Q750 1198 719 1226T688 1308Q688 1363 716 1410T791 1486T893 1515Q1029 1515 1029 1365Q1029 1280 992 1200Z" />
<glyph unicode="&#x201e;" glyph-name="quotedblbase" horiz-adv-x="983" d="M334 53T297 -27T192 -172T29 -279L19 -246Q113 -198 174 -126T241 30Q182 -29 113 -29Q55 -29 25 -1T-6 81Q-6 136 21 183T96 259T199 288Q334 288 334 138Q334 53 297 -27ZM737 53T700
-27T595 -172T432 -279L422 -246Q516 -198 577 -126T644 30Q583 -29 515 -29Q458 -29 427 -1T396 81Q396 136 424 183T499 259T601 288Q737 288 737 138Q737 53 700 -27Z" />
<glyph unicode="&#x2022;" glyph-name="bullet" horiz-adv-x="882" d="M134 590T179 657T295 763T446 803Q520 803 580 769T675 676T710 544Q710 532 708 510Q700 430 654 364T537 258T387 219Q313 219 253 253T158 346T123 479Q123 488 125 510Q134 590 179 657Z" />
<glyph unicode="&#x2039;" glyph-name="guilsinglleft" horiz-adv-x="787" d="M713 1000T641 887T489 672T345 518Q387 468 428 371T498 164T535 -29H498Q392 137 282 268T38 505L44 531Q221 642 382 777T718 1087H754Q713 1000 641 887Z" />
<glyph unicode="&#x203a;" glyph-name="guilsinglright" horiz-adv-x="784" d="M356 920T466 788T710 552L704 526Q525 415 363 279T31 -29H-6Q35 59 106 172T258 385T401 539Q360 590 319 687T249 894T213 1087H249Q356 920 466 788Z" />
</font>
</defs>
</svg>
