<?xml version="1.0" standalone="no"?>
<!DOCTYPE svg PUBLIC "-//W3C//DTD SVG 1.1//EN" "http://www.w3.org/Graphics/SVG/1.1/DTD/svg11.dtd">
<svg xmlns="http://www.w3.org/2000/svg">
<defs >
<font id="Peddana" horiz-adv-x="371" ><font-face
    font-family="Peddana"
    units-per-em="750"
    panose-1="0 0 0 0 0 0 0 0 0 0"
    ascent="703"
    descent="-518"
    alphabetic="0" />
<glyph unicode=" " glyph-name="space" horiz-adv-x="239" />
<glyph unicode="!" glyph-name="exclam" horiz-adv-x="140" d="M111 35L113 24L111 13Q110 9 108 8T103 2Q100 0 98 -2Q93 -7 86 -7H76Q73 -7 71 -5Q69 -3 66 -2T63 2Q60 6 58 7T54 13V35Q56 39 63 45Q63 48 66 49T71 52L82 54L93 52Q101 48 105 45Q106 41 111
35ZM61 194L59 233Q54 251 54 268V291Q52 297 52 300V304Q52 320 59 326Q64 335 81 335T105 326Q110 323 110 317T111 304V291Q111 278 108 268L106 230Q105 223 105 214T103 186T99 142T96 87H71L61 194Z" />
<glyph unicode="&quot;" glyph-name="quotedbl" horiz-adv-x="167" d="M39 204L21 324Q21 336 25 341T33 347T42 348Q54 348 56 343Q63 337 63 324L45 204H39ZM117 204L99 324Q99 334 103 340T111 347T120 348Q132 348 138 343Q141 336 141 324L124 204H117Z" />
<glyph unicode="#" glyph-name="numbersign" horiz-adv-x="348" d="M134 134H204L229 204H159L134 134ZM233 134H314V111H224L183 -11L159 -5L198 111H126L85 -11L61 -2L99 111H30V134H108L133 204H52V230H139L178 346L204 339L166 230H237L276 346L303 339L265
230H332V204H257L233 134Z" />
<glyph unicode="$" glyph-name="dollar" horiz-adv-x="273" d="M198 61Q202 66 202 78Q202 99 199 105T193 114T187 122Q182 125 178 128Q173 133 164 136T150 141V26Q160 26 171 33T187 43Q194 48 198 61ZM126 300Q121 300 117 299T108 296Q104 292 101 290T95
284Q80 264 80 248T87 226Q91 217 96 211Q104 206 110 202Q118 196 128 194V303L126 300ZM181 326Q188 324 194 324T233 315V239H207L201 291Q187 304 150 304V187Q155 184 160 184T173 181Q180 176 194 173Q198 168 203 166T212 159Q224 156 230 143Q246 125 246
91H244Q244 72 239 63Q234 43 209 24Q198 14 187 11Q170 0 160 0H148V-52H126V0Q109 0 97 0T78 2Q70 2 52 7Q35 7 26 11V96H52L61 39Q65 35 70 33Q76 28 87 28Q95 24 105 24H126V146Q118 149 110 151T93 156Q53 174 43 198Q35 214 35 228Q35 256 41 268L50 286Q57
295 68 302T85 314Q90 315 94 317T105 322T116 324T126 326V364H150V326H181Z" />
<glyph unicode="%" glyph-name="percent" horiz-adv-x="428" d="M126 198L128 233L126 268Q122 283 120 294Q111 317 91 317Q80 317 73 311L68 304Q58 289 54 268L52 233L54 198Q56 191 58 184T63 173Q65 162 73 155Q77 150 82 150Q91 150 97 150T108 155Q115
160 120 173L126 198ZM367 76V112Q367 126 364 138T359 156Q356 161 354 165T348 174Q319 185 306 166Q297 152 297 144T294 128Q291 116 291 100Q291 60 300 33Q308 20 314 15Q319 8 328 8T348 15Q351 19 353 23T359 33Q360 37 362 44Q367 60 367 76ZM166 233Q166
197 154 176Q150 167 148 159Q138 145 124 139Q113 131 97 131Q48 131 35 159Q30 167 27 175T20 192Q15 207 15 233Q15 257 19 270Q30 304 45 319Q61 335 85 335T124 329Q141 317 149 306T160 279Q166 255 166 233ZM91 0L300 329H331L122 0H91ZM400 134Q405 112
405 97Q405 77 400 52Q396 42 394 35T387 20Q380 13 376 8T363 -1Q347 -9 333 -9Q309 -9 296 0Q280 7 274 20Q254 48 254 93Q254 143 274 167Q279 175 296 190Q303 192 311 195T329 198T347 195T364 190Q371 184 375 179T387 167Q391 161 393 153T400 134Z" />
<glyph unicode="&amp;" glyph-name="ampersand" horiz-adv-x="356" d="M103 163Q94 156 89 150Q86 148 83 144T78 138Q76 133 74 130T71 122T69 112T68 96T73 71Q77 65 80 59T89 48Q98 36 111 33Q124 26 134 26H150Q156 26 159 28T168 31T176 35Q185 37 191 43Q195
45 198 48T204 54L103 163ZM176 246V266Q176 276 172 283T166 294Q161 297 158 300T150 304Q146 309 136 309H121Q115 309 108 304T99 296Q94 287 89 282Q87 278 87 273T87 263Q87 251 91 241Q95 237 97 232T103 222Q114 209 117 204Q125 199 133 191Q138 195 142
197Q153 202 157 207T166 218Q176 230 176 246ZM259 150L252 152L226 156V176H326V156L291 150Q284 125 272 105Q269 98 266 94T260 85Q254 72 247 68L289 21L331 20V0H241L244 11L222 35Q208 27 201 20Q178 5 169 3T152 -2Q143 -7 121 -7T83 -1T54 15T37 34T28
51Q20 66 20 86Q20 118 30 132Q34 136 37 143Q42 148 47 153T58 163Q67 168 85 176Q77 184 73 187Q68 194 62 202Q46 223 45 234T43 253Q43 279 60 300Q65 307 71 311Q76 318 84 321T99 329Q117 335 136 335T173 329Q178 325 184 322T198 314Q218 294 221 276Q222
269 222 260Q222 238 218 231Q206 214 201 207Q189 195 176 190Q164 181 150 174L233 87Q239 91 241 98Q244 101 246 105T251 113Q252 116 253 120T257 128Q261 139 261 142T259 150Z" />
<glyph unicode="&apos;" glyph-name="quotesingle" horiz-adv-x="87" d="M39 204L21 324Q21 346 33 348Q37 348 42 348Q54 348 56 343Q63 337 63 324L45 204H39Z" />
<glyph unicode="(" glyph-name="parenleft" horiz-adv-x="204" d="M167 -71Q154 -70 143 -66T122 -59Q100 -48 90 -38T72 -19T61 0Q54 9 51 19T42 41T36 64T33 88Q28 118 28 139T31 179T38 217Q45 258 61 283T103 329Q131 346 167 350V329Q140 325 124 309Q106
297 96 272Q73 226 73 141Q73 108 78 68Q89 23 96 8Q105 -14 124 -31Q139 -43 167 -48V-71Z" />
<glyph unicode=")" glyph-name="parenright" horiz-adv-x="193" d="M150 199T153 180T156 144Q156 111 153 94T148 64T141 42Q137 16 124 0Q119 -11 112 -19T98 -35Q81 -50 63 -59Q51 -62 40 -66T17 -71V-48Q31 -47 40 -42T61 -31Q82 -7 89 8Q93 22 98 36T105
68Q111 117 111 139Q111 164 107 197T98 244T89 272Q80 293 61 309Q42 325 17 329V350Q52 346 80 329Q133 290 148 218Q150 199 153 180Z" />
<glyph unicode="*" glyph-name="asterisk" horiz-adv-x="247" d="M63 166V201L113 241L120 237L96 178L63 166ZM48 252L26 279L61 289L113 254L111 247L48 252ZM126 237L131 241L181 201V166L148 178L126 237ZM117 259L103 320L122 350L141 320L126 259H117ZM134
247L131 254L183 289L219 279L198 252L134 247Z" />
<glyph unicode="+" glyph-name="plus" horiz-adv-x="444" d="M261 0H229V133H98V161H229V294H261V161H392V133H261V0Z" />
<glyph unicode="," glyph-name="comma" horiz-adv-x="125" d="M30 26L33 39Q35 41 36 43Q40 50 48 56Q52 59 59 59Q79 59 91 43Q95 40 95 36T97 26T99 16V4H103Q103 -10 96 -31Q91 -37 87 -44T76 -57Q56 -79 15 -85V-68Q31 -65 37 -60T48 -52T56 -45Q60 -41 62
-36T68 -26Q70 -20 70 -13V2H39V3L37 4L36 8H35Q33 11 33 13V15Q30 20 30 26Z" />
<glyph unicode="-" glyph-name="hyphen" horiz-adv-x="160" d="M21 134H134V99H21V134Z" />
<glyph unicode="." glyph-name="period" horiz-adv-x="127" d="M33 13Q30 18 30 26T33 39Q33 44 37 49T50 56Q54 59 60 59Q70 59 74 57T87 50Q90 46 93 39Q96 35 96 26Q96 17 93 13Q92 9 90 8T85 2Q83 0 80 -2L73 -5Q71 -7 68 -7H63Q48 -7 41 0T33 13Z" />
<glyph unicode="/" glyph-name="slash" horiz-adv-x="263" d="M0 -45L209 329H239L33 -45H0Z" />
<glyph unicode="0" glyph-name="zero" horiz-adv-x="298" d="M208 146T208 156T208 176T208 196T206 215Q206 240 203 250T197 268Q190 295 183 304T170 318T160 328Q150 332 140 332Q123 332 111 328Q86 303 82 283Q67 248 67 215V136Q67 104 82 69Q85 54 93
43L102 34Q106 30 111 28Q121 20 136 20Q157 20 180 43Q191 58 195 75T202 100Q206 112 206 136Q208 146 208 156ZM263 173Q263 96 231 48Q217 24 193 10Q171 -7 138 -7Q101 -7 82 10Q52 26 43 48Q17 87 14 140Q13 158 13 172V199Q13 237 27 268Q30 276 33 286Q41
311 67 332Q79 344 101 353Q108 354 117 356T137 359T158 357T176 353Q201 339 208 332Q227 319 241 286Q245 276 250 268Q252 257 255 246T259 223T262 199T264 175L263 173Z" />
<glyph unicode="1" glyph-name="one" horiz-adv-x="252" d="M163 33Q163 27 168 24Q168 21 176 21L223 18V-4H47V18L102 21Q105 21 110 24L112 33V308L32 293V317L142 351H163V33Z" />
<glyph unicode="2" glyph-name="two" horiz-adv-x="295" d="M17 30Q36 46 54 60T90 89Q106 104 121 117T149 142Q161 154 169 167T186 193Q198 216 198 240T193 279Q188 286 184 292T176 301Q168 311 157 316Q143 322 131 322H115Q110 322 106 320Q102 320 96
317T88 314T84 310L82 309V250Q80 250 74 246H70Q67 246 66 244H54Q47 244 43 246Q37 246 33 250Q24 264 24 277Q24 304 58 329Q86 347 105 349T137 352T160 349T184 344Q193 339 202 334T221 322Q238 305 243 293Q252 269 252 250T247 218T237 197T227 179Q220
172 213 163T197 144Q188 136 180 128T161 110T139 93T111 70T69 39H224L234 82H259V-5H17V30Z" />
<glyph unicode="3" glyph-name="three" horiz-adv-x="301" d="M56 253L45 256Q43 259 40 259Q36 259 34 263T29 269Q27 275 27 286Q27 312 44 324Q77 348 96 351Q116 357 133 357Q187 357 215 333Q228 322 239 304Q245 287 245 262Q245 206 168 185Q175 184 183
182Q229 167 242 150Q254 132 256 121T259 98Q259 81 249 59T216 22Q201 7 182 2Q119 -17 77 -2Q37 11 21 35Q17 40 17 53V65Q21 69 24 74Q26 75 28 75T33 78Q36 81 40 81H56Q62 81 66 75L79 32Q84 29 90 27T102 22Q134 3 184 41Q192 49 198 62T205 82T206 104Q206
133 180 150Q164 164 127 164H106L97 161V194H109Q132 194 143 198Q176 209 187 231Q193 238 193 259Q193 282 187 288Q180 302 175 309Q162 320 151 322Q141 328 131 328H115Q110 328 106 326Q98 326 90 321T79 314V260Q77 260 74 258L69 252Q66 250 63 251T56
253Z" />
<glyph unicode="4" glyph-name="four" horiz-adv-x="299" d="M54 139H169V291L54 139ZM216 -9H169V104H13V139L184 357H216V139H264V104H216V-9Z" />
<glyph unicode="5" glyph-name="five" horiz-adv-x="301" d="M116 213L141 216Q163 216 193 209Q214 200 227 188Q240 178 250 153Q259 135 259 109V108Q259 64 238 38Q195 -13 114 -13Q86 -13 74 -9Q67 -5 58 -2T43 5Q36 11 32 16T21 26Q14 39 14 49T24 71Q36
77 47 77H56Q59 77 59 76T61 74L82 28L88 22Q93 22 95 21T100 19T105 16T112 14Q114 12 116 12Q116 12 121 12Q140 12 157 22Q192 37 202 68Q206 79 206 93Q206 124 202 132Q192 151 182 160T158 174Q142 181 119 181Q112 181 105 181T90 180Q78 174 64 172Q56
169 50 168T36 165V345H236V300H72V202H73Q74 202 78 203T86 205T96 209Q106 209 116 213Z" />
<glyph unicode="6" glyph-name="six" horiz-adv-x="298" d="M208 108Q208 132 205 143T193 164Q172 186 153 188Q146 188 134 188H119Q108 183 101 181Q96 181 92 178L84 173Q79 172 76 169T67 162Q66 157 66 146V135Q66 102 69 86Q81 47 89 38T107 22T136 14Q171
14 193 42Q200 55 206 71Q208 80 208 90V108ZM261 113Q261 88 253 69Q240 38 224 22Q185 -13 134 -13Q92 -13 64 9Q55 16 43 28T19 71Q10 107 10 149T24 228Q36 267 66 295Q118 351 217 351V322H202Q175 322 153 311Q132 306 114 287Q99 275 85 248T67 190Q79 198
88 204T110 216Q133 221 149 221Q199 221 235 191Q261 161 261 113Z" />
<glyph unicode="7" glyph-name="seven" horiz-adv-x="293" d="M94 -11H36L208 303H49L39 254H13V347H261V316L94 7V-11Z" />
<glyph unicode="8" glyph-name="eight" horiz-adv-x="291" d="M205 59Q208 70 208 81T208 99T202 112Q194 129 167 142Q158 147 149 150T130 158T106 168Q94 159 88 156Q85 152 82 150T75 142T69 132T64 122T61 110V80Q61 74 66 66Q67 57 79 41Q96 21 138 21H152Q160
21 168 25Q175 27 180 31T190 39Q201 50 205 59ZM201 261Q201 284 196 290Q193 304 182 313Q162 327 153 327H138Q118 327 112 322Q106 321 102 318T94 311Q87 304 82 291T77 266T81 246T91 234T101 224Q110 211 142 198Q151 194 162 191Q175 201 176 205Q191 216
192 225Q193 231 197 243T202 260L201 261ZM236 151Q261 126 261 96Q261 64 254 52Q242 30 227 15Q218 11 208 4Q183 -12 138 -12Q87 -12 62 4Q53 11 45 15Q32 27 19 50Q13 67 13 86T17 121Q23 133 33 146Q39 150 45 154T59 164Q66 166 72 169T86 175Q81 177 76
181T66 188Q54 193 48 201Q29 226 28 236T27 261T32 291T43 312T56 327Q64 332 72 337T91 346Q109 351 135 351T180 345Q192 343 200 338T215 327Q247 299 247 265Q247 246 242 237T234 221T227 209Q222 206 217 201T206 193Q201 188 196 186T184 179Q191 176 198
174T211 168Q218 165 223 161T236 151Z" />
<glyph unicode="9" glyph-name="nine" horiz-adv-x="303" d="M138 151L156 153Q161 155 165 155T174 157T183 162T193 167Q195 170 200 172T208 180V206Q208 236 205 255Q202 264 199 273T193 292Q179 309 169 317Q155 326 138 326Q121 326 105 319T84 299Q79
292 76 285T67 269Q66 259 66 250V232Q66 208 69 197T81 176Q93 162 106 155Q122 151 138 151ZM141 118L119 116Q96 116 82 122Q49 137 43 146Q35 154 30 163T19 181Q13 199 13 219Q13 258 22 278T49 317Q83 351 138 351Q162 351 187 345Q210 333 227 317Q246 293
252 269Q264 236 264 191T254 118T233 74T203 39T141 0Q104 -13 54 -13V18L72 17Q86 17 119 26Q151 36 177 70Q185 81 190 93Q204 117 206 148Q201 145 196 141T185 134T173 128L162 123Q157 121 152 121T141 118Z" />
<glyph unicode=":" glyph-name="colon" horiz-adv-x="147" d="M33 13Q30 18 30 26T33 39Q33 44 37 49T50 56Q54 59 60 59Q70 59 74 57T87 50Q90 46 93 39Q96 35 96 26Q96 17 93 13Q92 9 90 8T85 2Q83 0 80 -2L73 -5Q71 -7 68 -7H63Q48 -7 41 0T33 13ZM63 241L73
239Q82 236 85 230Q96 223 96 218V209Q96 199 93 195Q93 192 90 190T85 185T80 181T71 177T61 174Q54 174 48 178Q45 180 43 181Q33 186 33 195Q28 203 28 209Q28 215 33 222Q33 227 39 230Q41 234 48 239L63 241Z" />
<glyph unicode=";" glyph-name="semicolon" horiz-adv-x="166" d="M30 26L33 39Q35 41 36 43Q40 50 48 56Q52 59 59 59Q79 59 91 43Q95 40 95 36T97 26T101 16T103 2Q103 -10 96 -31Q91 -37 87 -44T76 -57Q56 -79 15 -85V-68Q31 -65 37 -60T48 -52T56 -45Q60 -41
62 -36T68 -26Q70 -20 70 -13V2H39V3L37 4L36 8H35Q33 10 33 13V15Q30 20 30 26ZM58 241T63 241T76 237Q84 237 87 230Q96 225 96 212Q96 196 87 184Q72 174 65 174T50 178Q47 178 45 180T39 184Q37 187 36 189T33 194Q30 198 30 208T32 221T36 226T39 230Q45 237
50 237Q58 241 63 241Z" />
<glyph unicode="&lt;" glyph-name="less" horiz-adv-x="539" d="M98 161L392 274V244L128 146L392 50V20L98 133V161Z" />
<glyph unicode="=" glyph-name="equal" horiz-adv-x="571" d="M98 117H392V87H98V117ZM98 207H392V176H98V207Z" />
<glyph unicode="&gt;" glyph-name="greater" horiz-adv-x="561" d="M98 50L360 146L98 244V274L392 161V133L98 20V50Z" />
<glyph unicode="?" glyph-name="question" horiz-adv-x="299" d="M63 261H54Q48 261 43 263Q36 263 33 268Q24 273 24 287Q24 306 43 320Q65 333 78 334T102 335T123 334T141 331Q161 324 174 314Q199 289 202 267Q204 258 204 247L202 246Q202 206 179 186Q174
181 170 177Q165 170 155 165Q137 156 131 150Q120 147 111 141V87H82V159Q87 161 93 164T106 169Q120 177 128 187Q135 191 138 197T146 211Q155 232 155 244Q155 280 134 294Q120 311 82 311L63 261ZM68 24L70 35Q72 41 76 43Q78 47 80 47T85 50T90 52H96Q108
52 112 48L117 43Q119 40 121 38T124 33Q126 30 126 22T124 11Q124 8 122 6T117 2Q115 0 113 -1T108 -5T99 -7H90Q88 -7 86 -5T81 -2T76 2Q75 4 73 6T70 11L68 24Z" />
<glyph unicode="@" glyph-name="at" horiz-adv-x="565" d="M286 191V201Q280 206 279 211Q275 213 269 217T254 222Q238 222 224 212Q208 205 201 194Q187 171 183 155Q176 140 176 113Q176 59 216 59Q223 59 230 63Q241 65 244 71Q248 73 250 75T257 80Q263 87
265 91L286 191ZM239 -50L280 -48Q292 -46 315 -40Q323 -36 330 -33Q354 -23 370 -14L377 -33Q368 -36 360 -40Q327 -56 322 -58T309 -63Q299 -65 290 -67T270 -72Q245 -75 230 -75T203 -73T178 -70Q162 -67 135 -53T93 -24Q83 -16 77 -6T61 18T44 54Q35 81 35
108Q35 173 53 212Q62 232 77 252T102 282Q151 324 201 331Q220 339 247 339Q290 339 320 329T374 297Q422 261 422 183L420 181Q420 150 416 134Q412 125 409 115T402 98Q395 90 390 83T378 68Q357 39 329 33Q313 26 302 26Q281 26 272 37Q263 52 263 68Q245 48
229 39Q197 25 180 30Q174 31 167 33Q160 37 153 46T142 61T134 73Q133 82 133 90V108Q133 140 141 159Q154 184 169 202Q213 241 252 241H258Q262 241 265 239L279 237Q281 237 284 236L291 233Q296 229 303 229L311 239H337V236Q337 234 335 230L331 212Q331
205 326 190L320 163Q316 147 313 130T306 101T303 86V78Q303 70 304 65Q309 61 312 59Q318 54 324 54Q329 54 334 57T348 63Q353 68 359 75T372 89Q381 104 390 128Q393 142 396 155T399 191T385 241Q375 267 355 286Q344 293 333 298T311 309Q289 317 261 317Q204
317 161 291Q150 286 141 279T122 263Q114 255 107 245T93 224Q89 213 84 202Q70 171 70 126Q70 63 94 26Q103 12 113 0Q163 -50 239 -50Z" />
<glyph unicode="A" glyph-name="A" horiz-adv-x="336" d="M106 143H202L155 274L106 143ZM211 21L239 24Q241 24 244 26V33L211 122H98L65 33V30Q65 28 68 26V25Q68 24 70 24H71L99 21V0H2V21L30 26L143 337H181L296 35Q296 32 296 31T297 28Q300 26 301 26T304
24L326 21V0H211V21Z" />
<glyph unicode="B" glyph-name="B" horiz-adv-x="289" d="M268 133Q278 116 276 80Q274 61 257 37Q242 21 229 16T205 7T181 2Q173 0 166 0Q90 0 15 0V21L42 24Q48 24 50 26Q50 29 52 33V294Q52 300 50 303Q48 304 42 304L15 307V329H148Q211 329 230 307Q257
286 257 251Q257 230 251 218Q244 208 233 195Q214 180 203 178T187 174Q208 174 225 168Q249 158 256 149T268 133ZM204 141Q182 159 146 159Q138 159 133 156Q118 156 104 156L103 155V26H108Q110 26 113 24H131Q160 24 174 28Q192 35 204 42Q224 60 224 93T204
141ZM103 181H117Q132 181 159 184Q167 189 173 191T185 198Q197 209 201 219Q204 234 204 246V247Q204 275 184 291Q170 307 128 307H105L103 304V181Z" />
<glyph unicode="C" glyph-name="C" horiz-adv-x="302" d="M287 11H283Q282 11 278 9T267 6T254 2Q216 -9 195 -9Q158 -9 116 7Q78 21 49 62Q42 73 34 91T24 122Q17 140 17 171Q17 239 65 289Q82 307 120 324Q153 337 190 337H201Q206 337 210 336T235 331Q246
331 263 325T287 317V241H257L251 286Q251 287 249 288T245 292T241 296Q239 296 235 300Q231 300 229 301T222 304L209 307Q204 309 191 309Q154 309 124 288Q115 282 108 272Q93 257 82 226Q79 212 76 198T73 166Q73 144 82 105Q92 77 108 59Q121 39 146 28Q162
20 198 20H212L221 22Q224 22 226 24Q233 24 235 26Q237 26 237 28Q244 28 244 33Q247 33 247 37L259 91H287V11Z" />
<glyph unicode="D" glyph-name="D" horiz-adv-x="343" d="M233 56Q251 76 258 101T265 155Q265 201 257 229Q251 257 230 272Q221 287 196 295T139 304H103V24H141Q172 24 194 33Q213 38 233 56ZM269 289Q295 270 308 239T322 175Q322 105 295 66Q260 17 207 7Q183
0 150 0H15V21L42 24Q48 24 50 26Q52 28 52 33V298Q52 300 50 300Q45 304 42 304L15 307V329H141Q174 329 212 317Q250 308 269 289Z" />
<glyph unicode="E" glyph-name="E" horiz-adv-x="283" d="M181 187Q184 190 184 191L190 226H212V115H190L184 150Q184 153 181 156Q181 159 174 159H103V24H226Q229 24 230 28Q231 29 232 30Q235 31 235 33L244 80H269V0H15V21L42 24H46Q48 24 50 28T52 35V296Q52
297 50 300T46 304T42 307L15 309V329H252V254H224L216 296Q216 300 212 303Q212 304 207 304H103V183H174Q181 183 181 187Z" />
<glyph unicode="F" glyph-name="F" horiz-adv-x="261" d="M42 24Q52 24 52 30V294Q52 300 50 303Q48 304 42 304L13 307V329H251V251H222L212 296Q212 300 211 303Q209 304 204 304H103V176H176Q181 176 181 181Q184 184 184 187L190 222H212V111H190L184 143Q184
146 181 150Q181 152 176 152H103V30Q103 28 105 26Q105 24 111 24L143 21V0H15V21L42 24Z" />
<glyph unicode="G" glyph-name="G" horiz-adv-x="334" d="M244 128Q244 134 233 134L201 138V159H329V138L303 134Q291 134 291 124V11Q285 8 277 6T261 2Q253 0 245 -1T227 -5Q209 -9 192 -9Q149 -9 116 6Q105 11 96 15Q77 27 63 45Q53 54 39 78Q17 131 17 167T27
226Q53 289 90 309Q105 317 122 324Q156 335 195 335H222Q229 332 238 332T268 324Q281 324 291 320V241H261L254 286Q252 287 252 288T251 291Q245 297 242 297T235 300L224 304Q219 304 209 309H194Q170 309 143 300Q73 265 73 167Q73 66 148 30Q172 20 201 20H216Q226
22 229 24Q235 24 237 26H244V128Z" />
<glyph unicode="H" glyph-name="H" horiz-adv-x="358" d="M322 304Q315 304 315 300Q314 300 313 298T311 294V33Q311 30 315 26Q315 24 318 24H322L348 21V0H224V21L252 24H256Q259 24 259 26Q261 28 261 33V159H103V26Q105 24 111 24L139 21V0H15V21L42 24Q48
24 48 26Q52 29 52 33V294Q52 296 51 298T48 300Q48 304 42 304L15 307V329H139V307L111 304Q105 304 103 300V184H261V300Q257 304 252 304L224 307V329H348V307L322 304Z" />
<glyph unicode="I" glyph-name="I" horiz-adv-x="157" d="M108 300Q105 300 105 294V33Q105 30 108 26Q108 24 115 24L146 21V0H15V21L45 24H50Q52 24 52 26Q54 28 54 33V300Q50 304 45 304L15 307V329H146V307L115 304Q108 304 108 300Z" />
<glyph unicode="J" glyph-name="J" horiz-adv-x="236" d="M138 294L134 303Q133 304 126 304L96 307V329H224V307L195 304Q190 304 187 300Q185 299 185 297Q184 297 184 294V124Q184 88 181 70Q171 33 146 13Q139 7 128 0Q106 -9 88 -9H66Q61 -9 55 -7T43 -4T33
0Q26 0 20 4Q16 4 15 5T11 7V89H42L52 30L54 24Q56 22 57 22T61 20Q61 20 68 17H73Q107 17 122 43Q131 63 132 73T136 95T138 120V294Z" />
<glyph unicode="K" glyph-name="K" horiz-adv-x="323" d="M103 30Q103 24 111 24L139 21V0H15V21L42 24Q48 24 50 26Q50 29 52 33V294Q52 300 50 303Q48 304 42 304L15 307V329H141V307L111 304Q106 304 105 302T103 294V166H117L226 296V303Q224 304 222 304L198
309V329H300V309Q295 307 292 307H286Q280 304 274 304Q268 304 268 303L167 183L276 24L314 21V0H226V15L134 146H103V30Z" />
<glyph unicode="L" glyph-name="L" horiz-adv-x="267" d="M52 294Q49 303 47 303T42 304L13 307V329H138V307L111 304Q106 304 105 300Q103 300 103 294V24H207Q211 24 212 27T216 33L222 91H252V0H13V21L42 24Q48 24 48 25T49 28Q52 29 52 33V294Z" />
<glyph unicode="M" glyph-name="M" horiz-adv-x="427" d="M324 26L326 33V303L212 0H190L80 297V33Q80 24 91 24L120 21V0H13V21L42 24Q48 24 50 26Q52 28 52 33V298Q52 300 50 300Q45 304 42 304L15 307V329H124V315L212 73L300 314V329H413V307L387 304Q383
304 380 302T377 298V33Q377 28 378 26Q381 24 387 24L413 21V0H289V21L315 24Q322 24 324 26Z" />
<glyph unicode="N" glyph-name="N" horiz-adv-x="353" d="M306 304Q300 304 300 296V0H263L80 274V35Q80 30 82 26Q85 24 91 24L117 21V0H13V21L42 24Q48 24 48 26Q52 33 52 35V296Q52 297 48 303Q48 307 42 307L13 309V329H108V315L272 70V294Q272 300 270 302T261
304L235 307V329H339V307L311 304V307Q309 304 306 304Z" />
<glyph unicode="O" glyph-name="O" horiz-adv-x="348" d="M280 163Q280 230 254 265Q247 275 240 283T222 296Q206 309 179 309T133 296Q87 274 75 192Q73 178 73 164Q73 108 99 63Q110 45 133 30Q153 20 172 20Q202 20 224 30Q247 46 258 65Q282 107 282 163H280ZM337
163Q337 131 326 96L312 67Q299 42 270 20Q258 11 237 1T178 -9Q104 -9 63 39Q51 50 44 64T31 94Q20 123 20 163Q20 241 63 286Q85 309 111 322Q142 335 179 335T237 325Q267 311 294 286Q313 259 326 230Q337 193 337 163Z" />
<glyph unicode="P" glyph-name="P" horiz-adv-x="279" d="M196 173T200 178T208 195T212 223Q212 250 209 261Q199 278 194 286Q183 294 166 300Q150 304 126 304H103V150H113Q115 148 122 148H128Q174 148 190 166Q196 173 200 178ZM257 276Q263 258 263 231T255
187T241 163T226 148Q189 122 134 122H126Q122 124 119 124Q112 124 108 124T103 126V26Q105 24 111 24L143 21V0H15V21L42 24Q48 24 48 25T49 28Q52 29 52 33V294Q52 304 42 304L11 307V329H128Q155 329 190 324Q212 318 230 307Q246 294 257 276Z" />
<glyph unicode="Q" glyph-name="Q" horiz-adv-x="362" d="M286 163Q286 178 284 191T279 218Q263 278 226 296Q207 309 181 309T134 296Q120 289 105 267Q76 226 76 166Q76 134 82 108Q89 84 103 63Q117 42 134 30Q156 20 181 20Q206 20 226 30Q249 46 260 64T279
108Q281 122 283 135T286 163ZM296 -87L274 -89H251Q226 -89 204 -85Q173 -73 159 -42Q155 -33 155 -9Q126 -4 99 8Q69 32 56 45Q45 61 28 98Q20 120 20 147V186Q20 197 24 209Q27 224 35 242T49 268T65 289T96 311Q104 318 114 321T134 329Q155 335 186 335T240
325Q342 279 342 163Q342 129 332 103Q322 71 307 50Q287 27 263 13Q239 0 207 -7Q207 -65 274 -65H291L304 -63H315L322 -61V-83Q317 -83 314 -85L296 -87Z" />
<glyph unicode="R" glyph-name="R" horiz-adv-x="329" d="M126 169Q151 169 161 174Q188 174 198 195Q201 201 206 210Q215 226 210 252Q208 260 204 265Q201 279 190 287Q184 290 178 293T163 300Q152 303 124 303H103V169H126ZM317 -2Q315 -2 314 -5Q309 -5
307 -7Q300 -7 296 -9H286Q246 -9 229 15Q219 23 216 39Q212 45 211 53T207 68Q196 109 183 122Q176 129 161 139Q142 146 124 146H108Q106 143 105 143H103V33Q103 28 104 26T113 24L139 21V0H15V21L42 24Q48 24 50 26Q52 28 52 33V298Q52 300 50 300Q45 304 42
304L15 307V329H143Q197 329 233 309Q247 297 257 280Q263 266 263 244Q263 207 239 183Q230 174 212 167Q201 161 183 159Q195 156 202 153T216 146Q220 141 225 136T235 126Q237 119 239 115T243 104T247 92T250 79T252 67T254 56Q259 47 265 37Q277 28 286 24Q300
20 317 20V-2Z" />
<glyph unicode="S" glyph-name="S" horiz-adv-x="246" d="M178 300L169 304Q168 304 159 309H139Q98 309 78 274Q76 269 76 264V240Q76 235 78 230Q82 225 85 222T93 212Q100 206 113 201Q121 195 138 189Q164 178 183 169Q190 164 198 160T212 149Q224 137 228
127Q237 104 237 91H235Q235 73 229 54Q204 19 186 10Q160 -4 141 -6T108 -9H85Q77 -9 70 -7T55 -4T42 0T30 4T17 8V96H50L54 42Q56 40 56 38Q58 35 60 34T63 30L72 26Q75 26 78 24L93 20Q110 20 122 20T141 24Q165 29 174 42Q177 48 181 52Q184 60 184 76T176
103Q173 110 167 114T154 122Q139 133 129 136T112 144T98 150Q91 155 84 158Q81 159 66 168T42 186Q24 204 24 239Q24 265 33 279Q41 295 54 309Q66 318 91 329Q111 335 128 335H150Q156 335 163 332L184 331Q201 326 204 324Q218 320 224 320V244H195L190 289Q183
294 183 296Q183 297 181 297V299H180Q178 299 178 300Z" />
<glyph unicode="T" glyph-name="T" horiz-adv-x="302" d="M247 296Q247 300 246 303Q244 303 244 303T241 304H169V33Q169 31 171 30T173 26T181 24L212 21V0H78V21L111 24Q117 24 117 26Q122 29 122 33V304H50Q48 304 48 304T45 303Q43 300 43 296L37 251H8V329H286V251H257L247
296Z" />
<glyph unicode="U" glyph-name="U" horiz-adv-x="346" d="M307 304Q307 304 302 304Q297 304 297 294V108Q297 45 265 20Q228 -9 173 -9Q116 -9 80 21Q52 55 52 108V294Q52 300 50 303Q48 304 42 304L15 307V329H141V307L111 304Q106 304 105 302T103 294V100Q103
78 108 69Q128 24 184 24Q208 24 226 33Q240 38 252 52Q267 86 267 98T268 122V294Q268 300 265 303Q263 304 257 304L229 307V329H335V307L307 304Z" />
<glyph unicode="V" glyph-name="V" horiz-adv-x="336" d="M183 -9H146L33 303L4 307V329H122V307L93 304Q89 304 89 300Q87 300 87 296L174 54L257 296Q258 297 258 298T256 302T251 304L224 307V329H322V307L291 303L183 -9Z" />
<glyph unicode="W" glyph-name="W" horiz-adv-x="458" d="M346 -9H309L229 263L148 -9H113L33 300L4 307V329H117V307L87 304Q85 304 85 303T82 300V294L141 73L218 329H254L335 65L387 294Q388 296 388 297T387 300Q387 304 381 304L350 307V329H450V307L420
300L346 -9Z" />
<glyph unicode="X" glyph-name="X" horiz-adv-x="313" d="M181 21L207 24Q212 24 212 26Q218 33 212 33L150 134L73 33Q71 30 71 26Q73 24 78 24L108 21V0H4V21L35 26L133 161L43 300L11 307V329H134V307L111 304Q103 304 103 300V296L163 202L229 294Q231 297
229 300Q229 304 224 304L198 307V329H300V307L269 303L178 178L276 26L304 21V0H181V21Z" />
<glyph unicode="Y" glyph-name="Y" horiz-adv-x="307" d="M96 304Q89 304 89 300V299Q89 297 91 296L159 167L235 294Q238 297 235 300Q235 304 229 304L202 307V329H300V307L276 303L176 139V30Q176 24 187 24L218 21V0H87V21L115 24Q126 24 126 30V133L33 300L4
307V329H120V307L96 304Z" />
<glyph unicode="Z" glyph-name="Z" horiz-adv-x="270" d="M20 21L201 304H73Q70 304 70 300Q65 300 65 296L59 251H30V329H261V307L78 24H218Q222 24 222 28Q224 28 224 30V33L233 91H261V0H20V21Z" />
<glyph unicode="[" glyph-name="bracketleft" horiz-adv-x="191" d="M68 346H184V324H108V-42H184V-65H68V346Z" />
<glyph unicode="\" glyph-name="backslash" horiz-adv-x="254" d="M0 329H33L239 -45H207L0 329Z" />
<glyph unicode="]" glyph-name="bracketright" horiz-adv-x="176" d="M21 -42H98V324H21V346H141V-65H21V-42Z" />
<glyph unicode="^" glyph-name="asciicircum" horiz-adv-x="178" d="M80 317L30 269H0L61 352H98L159 269H131L80 317Z" />
<glyph unicode="_" glyph-name="underscore" horiz-adv-x="261" d="M0 -42H163V-71H0V-42Z" />
<glyph unicode="`" glyph-name="grave" horiz-adv-x="129" d="M11 357L21 359Q28 359 33 357H34Q35 357 37 355Q39 355 43 350Q45 350 45 349T48 346L113 269H85L11 315Q8 319 6 320T2 324Q0 329 0 337V343Q4 353 6 354T11 357Z" />
<glyph unicode="a" glyph-name="a" horiz-adv-x="245" d="M161 131Q127 122 111 113Q99 110 92 106T80 98Q63 77 63 63Q63 59 66 52T70 41T73 35Q77 33 79 31T85 26T94 24Q103 24 110 24Q120 24 128 28T142 35T152 39T161 45V131ZM204 198L207 167V33Q207 31 209
26T218 20H241V0H167L161 28Q147 17 134 11Q132 8 129 7T122 4Q115 0 108 0Q98 -5 93 -5Q89 -7 79 -7T59 -4Q29 7 21 33Q15 45 15 54V68Q15 72 17 77T24 93Q32 103 39 106Q45 110 51 114T66 121T85 128T106 134Q118 139 131 142T161 150V169Q161 196 150 207Q135
218 121 218H104Q98 218 86 215Q83 213 80 212V169H39L33 173Q33 174 32 174T28 176V183Q28 201 37 209Q42 216 48 220T61 229Q85 239 102 240T131 241Q172 241 191 222Q198 212 204 198Z" />
<glyph unicode="b" glyph-name="b" horiz-adv-x="265" d="M125 237L146 241H156Q203 241 230 209Q254 171 254 128Q254 97 246 78Q239 54 222 37Q209 22 178 8Q148 0 115 0H43V324H7V342L70 360H89V224Q96 224 99 229Q105 230 113 233T125 237ZM98 207L89 204V24H113Q141
24 151 27Q190 39 198 73Q204 93 204 120Q204 167 184 189T131 212H120Q117 211 108 211Q105 209 103 209T98 207Z" />
<glyph unicode="c" glyph-name="c" horiz-adv-x="224" d="M146 219L138 222Q118 222 106 212Q95 208 85 194Q73 173 72 163Q68 141 68 122Q68 109 71 85Q76 75 79 68Q93 36 128 26Q138 24 150 24T175 28T195 36T211 45V15Q208 14 203 13T194 8Q190 5 184 4T174
0Q168 -2 152 -7L128 -9Q96 -9 63 13Q54 19 48 28Q15 61 15 115Q15 172 52 209Q67 224 89 233Q112 239 128 239H151Q164 239 174 235T190 229Q198 223 204 212Q211 205 211 191L209 181Q207 177 206 175T202 169Q198 166 191 166Q190 163 187 163T181 163L167 166Q161
168 156 173V212Q155 216 146 219Z" />
<glyph unicode="d" glyph-name="d" horiz-adv-x="273" d="M163 33L176 39Q180 39 182 40T187 43V211Q184 212 178 212Q176 216 167 216Q166 218 163 218H156Q153 219 150 219H146Q109 219 87 191Q82 184 78 178T71 161T67 141T65 120Q65 110 68 93T75 68T82 54Q104
28 134 28H150L157 32Q160 33 163 33ZM155 241L167 239Q176 239 178 237H187V326H150V342L212 360H233V33Q233 26 235 24T244 21L263 20V0H187V26Q176 17 169 13Q167 9 162 8T152 2Q147 0 143 -1T133 -5T122 -7H111Q85 -7 70 4Q48 12 30 50Q26 58 24 70Q17 86 17
105Q17 137 26 159Q29 173 35 182T48 202Q87 241 141 241H155Z" />
<glyph unicode="e" glyph-name="e" horiz-adv-x="239" d="M222 24Q207 12 195 8T177 2T166 -1T155 -5T142 -7H128Q104 -7 90 -1Q52 15 36 40Q31 49 23 67T15 107Q15 138 24 167Q34 189 48 207Q65 223 85 233Q114 241 128 241Q149 241 173 235Q188 224 201 212Q210
199 218 181Q222 165 222 141V126H63Q63 111 68 89Q71 82 73 74T80 56Q103 24 146 24H156Q167 24 187 33Q191 36 196 38T204 43Q217 49 222 54V24ZM174 159Q174 166 173 171T169 182Q163 200 157 205T146 212Q142 216 126 216Q96 216 85 198Q80 194 78 189T71 176Q70
167 65 148H174V159Z" />
<glyph unicode="f" glyph-name="f" horiz-adv-x="207" d="M187 342Q190 338 190 332Q190 323 187 317L181 311Q176 307 174 307Q173 304 167 304V306Q166 307 166 309Q161 309 160 310L156 314Q150 315 146 322Q139 325 135 328T126 332Q124 335 124 336V337Q121
336 119 334T113 329Q111 325 108 322T103 315T99 304T96 291V230H155V207H96V30Q96 20 105 20H134V0H15V20H39Q42 20 45 24Q48 26 48 30V207H17V224L48 233V245Q48 250 50 254Q50 259 50 264L54 281Q54 286 56 290Q63 301 65 307Q70 314 73 320T81 331T92 340T102
347T113 353T125 357Q134 360 148 360Q168 360 181 352Q183 349 185 347T187 342Z" />
<glyph unicode="g" glyph-name="g" horiz-adv-x="260" d="M191 -48T192 -43T194 -33T193 -24T190 -15Q185 -12 182 -10T173 -5T160 2Q148 5 134 8H124Q120 8 115 11Q103 11 98 13Q91 11 87 9T78 4Q75 1 73 -2T68 -10Q63 -15 63 -22Q61 -24 61 -30V-42Q61 -48 64
-52T69 -62T76 -71Q87 -89 124 -89Q141 -89 155 -85Q172 -76 176 -70Q185 -65 188 -57ZM83 199T82 195T77 182T73 161T78 138Q78 124 93 110Q97 107 99 105Q105 103 110 101T121 99T131 101T139 105T147 110T155 117Q157 122 159 127T163 138T166 149V171Q166 177
162 187T155 202L141 216Q133 219 124 219Q98 219 87 204Q83 199 82 195ZM68 21L65 26V30Q63 33 63 40T68 56Q75 70 89 82Q68 88 59 96T45 108Q42 112 39 118T33 128Q28 143 28 160T35 191Q37 199 43 205T54 218Q81 239 126 239H135Q139 239 143 237H152Q156 237
159 235Q166 230 172 230T183 224H247V201H201V198Q203 195 205 190T211 181Q212 176 212 169T212 153Q212 131 204 120Q199 113 194 106Q186 96 172 90T148 80Q124 75 108 78Q105 74 105 68Q103 63 103 56V50Q103 50 105 47V45Q105 45 128 43Q136 42 143 42T158
39T173 36Q185 34 195 29T215 18T230 2Q237 -8 237 -20Q237 -39 229 -57Q224 -65 216 -72T201 -87Q182 -102 159 -106Q137 -115 118 -115Q87 -115 71 -111Q51 -102 42 -96Q17 -71 17 -45Q17 -41 18 -36T21 -24Q30 -1 58 12Q63 14 70 15L68 21Z" />
<glyph unicode="h" glyph-name="h" horiz-adv-x="279" d="M128 204L115 202Q107 198 103 198L96 195Q93 194 89 191V30Q89 26 92 23T99 20H120V0H8V20H33Q37 20 42 24Q43 26 43 30V324H7V342L70 360H89V211Q94 212 106 222Q115 226 124 229T138 234T150 237Q155
241 160 241H169Q195 241 203 234T218 224Q227 215 230 201Q237 188 237 167V33Q237 23 243 22Q245 21 247 20H269V0H161L159 17L181 20Q184 20 187 24Q191 24 191 30V156L190 176Q185 185 181 191Q173 197 166 202Q161 204 155 204H128Z" />
<glyph unicode="i" glyph-name="i" horiz-adv-x="140" d="M96 33Q96 23 106 20H133V0H15L17 20H42Q43 21 44 21T48 24Q50 26 50 33V204H17V222L78 241H96V33ZM50 329L54 337Q62 340 65 343Q71 346 76 346Q89 346 98 337Q101 336 102 334T105 329Q106 324 106 315L105
304Q103 301 101 299T98 294Q93 289 89 289Q82 286 76 286Q70 286 54 294L50 304Q48 308 48 312V322Q48 325 50 329Z" />
<glyph unicode="j" glyph-name="j" horiz-adv-x="109" d="M52 -37L54 -11V207H17V222L78 241H98V8Q96 2 96 -4V-17Q93 -24 92 -30T89 -44Q84 -61 78 -65Q65 -91 42 -100Q25 -111 -2 -111H-17Q-25 -109 -28 -105Q-40 -101 -40 -85Q-40 -78 -37 -75Q-37 -72 -36
-71T-33 -65Q-31 -64 -30 -64T-27 -62T-17 -57L30 -89Q33 -87 42 -78Q43 -76 44 -71T48 -61Q52 -49 52 -37ZM103 315Q103 312 99 304Q99 300 96 296T90 292T84 289T76 287H68Q65 287 63 289T57 291T52 296Q50 297 49 299T45 304Q43 308 43 311T43 319T45 329Q48
331 51 335Q55 340 63 343Q66 346 74 346Q83 346 87 343T95 338T99 334T103 329V315Z" />
<glyph unicode="k" glyph-name="k" horiz-adv-x="258" d="M173 207V211Q173 216 167 216L148 218V237H241V218L211 212L146 143L230 21L257 20V0H178V20L117 111H89V30Q89 27 92 25T96 21T99 20H120V0H8V20H33Q37 20 42 24Q43 26 43 30V324H7V342L70 360H89V126H99L173
207Z" />
<glyph unicode="l" glyph-name="l" horiz-adv-x="141" d="M13 20H39Q42 20 46 24T50 30V324H13V342L73 360H96V30Q96 24 100 23L105 20H133V0H13V20Z" />
<glyph unicode="m" glyph-name="m" horiz-adv-x="409" d="M39 24Q43 24 43 30V201H8V218L70 235H89V211Q94 212 106 222Q111 224 116 226T126 230Q145 241 155 241Q167 241 175 241T190 239Q192 237 196 236Q211 229 220 214Q222 210 222 207Q226 210 231 211T241
218Q246 220 251 223T262 229Q277 237 287 237Q292 241 298 241H309Q325 241 339 235Q346 230 351 227T359 217T365 205T370 191Q372 177 372 166V33Q372 24 381 20H405V0H296L294 17L315 20Q319 20 322 24Q324 24 324 26V166Q324 171 322 176Q322 181 320 184T315
192Q308 204 292 204H268L254 202Q246 198 241 198Q235 195 229 191V30Q229 27 233 24Q236 20 239 20H261V0H152V20H174Q176 20 179 23T183 30V168Q183 173 181 178Q181 187 174 194Q173 198 165 201T151 204Q138 204 132 204Q108 204 99 195Q93 195 89 191V26Q89
24 91 24Q96 20 99 20L120 17V0H8V17L33 20Q39 20 39 24Z" />
<glyph unicode="n" glyph-name="n" horiz-adv-x="271" d="M187 24Q190 24 190 30V159Q190 199 166 202Q156 204 146 204H129Q122 204 115 202T102 197T89 191V30Q89 27 92 25T96 21T99 20H120V0H8V20H33Q37 20 42 24Q43 26 43 30V201H8V218L70 235H89V211Q100
219 111 222Q116 225 121 227T132 232T142 236T151 239T162 241H169Q203 241 220 221T237 166V33Q237 23 242 22Q244 21 246 20H268V0H159V17L181 20Q184 20 187 24Z" />
<glyph unicode="o" glyph-name="o" horiz-adv-x="263" d="M185 54T188 62T194 81T198 109T197 137T193 160T184 186Q163 219 133 219Q114 219 103 211Q98 206 92 201T82 190Q68 157 68 117Q68 107 69 99T72 81Q74 64 82 48Q106 15 133 15Q150 15 158 22Q173 34
183 48Q185 54 188 62ZM218 204Q247 171 247 123Q247 85 229 48Q224 37 216 30Q194 6 156 -4Q145 -7 131 -7Q115 -7 82 2Q62 12 45 28Q15 68 15 117Q15 139 21 158Q30 186 48 204Q59 224 85 233Q101 241 124 241Q194 241 218 204Z" />
<glyph unicode="p" glyph-name="p" horiz-adv-x="266" d="M89 24L103 21Q105 20 108 20T115 17H128Q150 17 166 24Q197 46 202 78Q207 88 207 105Q207 138 204 150Q201 157 198 166Q190 187 169 201Q154 207 140 207T122 204Q117 204 114 203T105 201Q96 196 89
194V24ZM251 173Q257 149 257 128Q257 94 247 70Q239 43 224 28Q206 12 184 2Q151 -7 133 -7H117Q114 -5 110 -5H105Q98 -2 89 -2V-75Q89 -80 93 -80Q97 -85 99 -85L128 -87V-106H11V-87L33 -85Q43 -85 43 -75V201H11V218L71 237H89V211Q93 216 99 219T111 226Q136
241 158 241T194 235Q214 226 229 209Q237 199 251 173Z" />
<glyph unicode="q" glyph-name="q" horiz-adv-x="255" d="M139 21L150 24H161Q166 26 174 26Q176 28 178 28T181 30V212Q178 212 166 218L148 219Q127 219 113 211Q98 205 87 191Q75 178 72 164Q65 131 65 121Q65 110 68 93T75 67T82 52Q89 42 104 32T139 21ZM178
-83Q181 -83 181 -77V13Q178 9 175 9T167 7T158 4Q139 -5 131 -5Q126 -7 121 -7H113Q91 -7 71 2Q51 17 42 28Q15 71 15 106T23 159Q38 192 54 207Q70 223 98 233Q133 241 147 241H166Q169 241 174 239H191Q196 237 201 237T211 237Q216 235 220 235T229 233V-77Q229
-80 230 -83Q236 -87 237 -87L261 -89V-106H141L143 -89L173 -87Q174 -87 178 -83Z" />
<glyph unicode="r" glyph-name="r" horiz-adv-x="203" d="M181 237L187 235V184H166Q163 189 161 190T156 194Q151 198 139 198T117 190Q103 182 91 167V30Q91 24 96 24Q96 20 103 20L134 17V0H11V17L35 20Q41 20 43 24Q45 24 45 26V201H11V218L71 235H91V191Q97
196 105 207Q107 212 111 215T121 224T134 234Q145 241 156 241H166Q167 239 174 239Q174 237 181 237Z" />
<glyph unicode="s" glyph-name="s" horiz-adv-x="193" d="M161 233L173 230V173H146L141 207Q134 210 126 212L114 216Q110 218 102 218Q88 218 73 209Q63 196 63 184Q63 174 71 165Q81 154 93 148Q100 142 113 137T131 129T142 122Q155 114 160 109L168 100Q178
91 178 71V70Q178 54 173 37Q154 6 124 -2Q106 -9 85 -9L63 -7Q56 -5 52 -5T43 -2Q39 0 35 0T26 2Q22 2 15 7V71H42L48 28Q51 26 55 25T65 20Q77 13 91 15Q118 17 133 39Q134 43 134 51Q134 68 131 72T125 79T120 85L111 90Q106 92 101 95T89 101T76 108Q66 114
52 120Q48 125 43 128T34 136Q20 152 20 168Q20 219 71 237Q85 241 99 241H118Q124 241 128 239L148 237Q153 237 161 233Z" />
<glyph unicode="t" glyph-name="t" horiz-adv-x="175" d="M152 26Q157 26 163 30V11Q153 5 141 2Q139 0 133 -1T121 -5T109 -7H96Q43 -7 43 48V211H13V229L45 244L68 296H89V237H159V211H89V73Q89 73 91 50Q93 45 95 41T99 34Q106 23 115 22T131 21T141 24Q150
24 152 26Z" />
<glyph unicode="u" glyph-name="u" horiz-adv-x="277" d="M152 28L166 33Q173 33 178 36T185 39T190 42V204H156V222L216 241H235V33Q235 28 238 25T242 22T246 20H268V0H190V28Q179 22 174 15Q170 14 166 11T156 7Q150 3 145 2T133 -3Q125 -7 111 -7T86 -4Q72
1 63 13Q43 29 43 71V204H8V222L70 241H89V82Q89 69 93 59Q93 46 107 34Q115 28 123 28H152Z" />
<glyph unicode="v" glyph-name="v" horiz-adv-x="265" d="M141 0H111L33 212L4 218V237H113V218L89 216Q87 216 86 214T82 210T82 204L138 52L198 204V211Q196 212 194 214T190 216L167 218V237H254V218L229 212L141 0Z" />
<glyph unicode="w" glyph-name="w" horiz-adv-x="391" d="M286 0H252L194 183L128 0H93L33 212L4 218V237H111V218L89 216Q87 216 86 214T82 211T80 204L122 52L184 237H219L276 52L322 204Q324 206 323 207T322 211Q320 212 319 214T315 216L291 218V237H378V218L355
212L286 0Z" />
<glyph unicode="x" glyph-name="x" horiz-adv-x="255" d="M139 20L156 21Q159 21 161 24V30L117 93L71 30Q70 28 70 25T73 21L98 20V0H4V20L33 24L103 113L37 212L8 218V237H115V218L98 212Q87 212 93 204L133 150L174 204Q177 208 174 211Q174 212 173 212L150
218V237H237V218L211 212L146 128L218 24L244 20V0H139V20Z" />
<glyph unicode="y" glyph-name="y" horiz-adv-x="262" d="M48 -113L33 -111Q29 -110 26 -108T21 -105Q20 -103 18 -100Q13 -96 13 -88Q13 -71 19 -65T28 -54L73 -77Q81 -67 87 -61Q89 -56 92 -52T98 -41T103 -30T107 -19T111 -9T115 0L33 212L4 218V237H113V218L89
216Q87 216 86 214T82 210T82 204L139 61L198 204V211Q196 212 194 214T190 216L167 218V237H254V218L229 212L134 -15Q134 -28 106 -77Q104 -82 100 -86T91 -94Q88 -99 82 -102T71 -110Q59 -113 48 -113Z" />
<glyph unicode="z" glyph-name="z" horiz-adv-x="221" d="M176 30L178 35L183 73H209V0H15V26L146 212H61Q58 212 55 210T52 206T50 202L45 166H21V235H202V216L68 24H169Q174 24 174 26Q174 30 176 30Z" />
<glyph unicode="{" glyph-name="braceleft" horiz-adv-x="230" d="M134 99L141 82V16Q141 12 143 7Q143 -2 148 -14Q150 -16 151 -19T155 -25T159 -30T166 -33Q173 -35 181 -40H204V-61L202 -63H189Q183 -63 178 -61Q165 -61 157 -58T144 -55T134 -50Q124 -48
119 -42Q107 -28 104 -18T99 0L98 21V85Q96 88 96 93T93 103Q91 111 87 114T80 119T73 124L63 126Q59 128 48 128H28V150L48 152Q59 152 63 155Q70 155 73 159Q80 159 85 166Q89 168 93 178Q96 183 96 187T98 198V259L99 280Q106 305 110 311T117 322Q121 325 124
328T134 331L155 339L178 342Q184 343 190 343H204V324H200Q197 324 194 322H187Q184 322 181 320Q171 320 166 315Q161 315 155 309Q150 306 149 303T146 295T144 286T141 276V210Q141 205 139 201Q139 196 134 183Q134 177 129 170T118 158T105 150Q91 144 76
141Q84 139 91 137T105 133Q118 127 128 113Q134 107 134 99Z" />
<glyph unicode="|" glyph-name="bar" horiz-adv-x="150" d="M71 390H103V-127H71V390Z" />
<glyph unicode="}" glyph-name="braceright" horiz-adv-x="224" d="M156 161T161 159T184 154T209 152V131L207 133Q181 133 174 128Q161 128 146 112Q143 110 141 105L139 87Q138 82 138 77V24Q138 12 134 2Q134 -11 131 -20Q127 -24 125 -29T118 -38Q109 -47
104 -48T93 -52T82 -54L59 -59H33V-40H42Q52 -40 56 -37Q76 -37 82 -24Q86 -22 87 -18T91 -11Q93 -8 93 -3T96 7V74Q96 79 98 82Q98 93 103 99Q105 110 111 115Q119 127 129 132Q150 141 161 141Q151 146 147 147Q137 150 133 152T126 155T120 159Q118 162 113
167T106 177T103 185T100 193T98 202L96 219V279Q96 288 91 296Q88 306 84 310T71 317Q65 322 56 322Q54 324 50 324H35V343H61Q75 343 82 339Q96 339 103 332Q110 331 119 322T130 307T134 294T138 282Q139 278 139 272V208Q139 203 141 198V190Q141 177 152 166Q156
161 161 159Z" />
<glyph unicode="~" glyph-name="asciitilde" horiz-adv-x="388" d="M133 148Q98 148 43 111V141Q70 161 91 167Q112 176 128 176T153 175T173 173Q180 168 189 166T206 160Q219 154 241 150Q260 143 276 143T309 150Q342 163 365 181V150Q349 137 339 134Q328
127 315 124Q303 117 296 117Q289 115 284 115T273 115T258 116T241 120T223 125T204 133Q196 134 187 137Q154 148 133 148Z" />
<glyph unicode="&#xa0;" glyph-name="nbsp" horiz-adv-x="239" />
<glyph unicode="&#xa2;" glyph-name="cent" horiz-adv-x="253" d="M143 222Q139 219 134 218T124 212Q116 208 105 194Q99 189 96 181T89 166Q85 144 85 129Q85 101 88 84Q94 57 122 35Q132 27 143 24V222ZM181 24L191 26Q195 28 197 28T202 30Q204 30 204 31V33L207
36V37L212 85H237V8H235Q231 8 227 6T218 4Q208 0 198 0H166V-50H143V0Q88 8 65 39Q49 55 43 74T37 119T43 167Q65 215 99 230Q118 239 143 244V294H166V246H184Q190 244 202 244Q206 241 210 241L228 237Q232 237 237 235V163H212L207 204Q207 209 204 211Q204
212 202 216L195 218Q194 219 193 219T190 222H167V24H181Z" />
<glyph unicode="&#xa3;" glyph-name="sterling" horiz-adv-x="270" d="M71 89L73 124V161H39V184H71V237Q71 320 131 350Q150 360 166 360Q192 360 203 357T229 348Q233 344 238 341T246 332Q254 324 254 309L252 307V296Q251 290 246 288T235 280Q230 279 223
279T212 280H204V331Q201 331 198 332H191Q190 335 187 335H183Q163 335 154 329T141 320Q139 316 136 312T130 303T126 292T122 283T120 272T117 261V183H211V159H117V117Q115 110 114 102T109 86T102 71T93 59Q85 48 68 37H85L98 39H252V0H20V28Q27 32 34 34T45
42Q57 48 63 61Q65 68 67 75T71 89Z" />
<glyph unicode="&#xa9;" glyph-name="copyright" horiz-adv-x="416" d="M279 68Q271 63 268 63T259 61Q252 61 237 56L211 54Q183 54 166 62Q133 78 122 89Q112 101 99 126Q97 138 94 149T91 173Q91 185 94 196T99 218Q105 227 110 236Q122 256 137 265T163 278Q184
287 207 287T243 284T265 279T280 274V216H259L252 252Q237 263 230 263H218Q178 263 161 239Q156 234 152 226T143 211Q138 195 138 178Q138 144 141 133Q166 78 212 78H224L235 80Q238 82 241 82T245 85T250 87H252L261 128H282V68H279ZM364 126Q370 149 370
170T364 216Q360 225 357 235T346 254Q341 268 320 289Q305 307 267 326Q258 331 246 332Q232 339 205 339T159 332Q139 330 117 315Q98 304 85 289Q76 282 70 274T56 257Q35 204 35 176T42 126Q46 101 59 87Q67 69 85 52Q107 25 159 8Q178 2 196 2Q243 2 287 26Q308
37 320 52Q357 89 364 126ZM385 222Q390 187 390 173Q390 138 375 97Q371 86 364 76Q352 50 318 22Q305 11 285 2T252 -11Q201 -24 152 -11Q121 -4 87 22Q77 29 70 37Q40 63 21 120Q15 136 15 160T15 196T20 220Q37 266 49 281T70 304Q84 323 108 332Q148 360 202
360Q238 360 276 344Q288 339 297 332Q321 320 333 307Q366 271 376 244Q380 233 385 222Z" />
<glyph unicode="&#xae;" glyph-name="registered" horiz-adv-x="408" d="M244 226V234Q244 239 241 244Q238 246 236 249T229 257T215 264Q202 268 183 268H166V181Q182 181 193 181T211 183Q216 183 220 185T229 190Q236 196 239 204Q244 209 244 226ZM272 122Q276
112 276 106Q279 104 280 101T286 93Q288 90 296 86Q306 82 326 82V68H315L307 65H297Q272 65 262 74Q258 77 254 80Q252 85 250 88T245 99T240 113T236 124Q232 139 224 148Q220 150 217 153T208 159Q202 163 181 163H166V91Q166 87 166 87T174 82H191V70H105V82H124Q126
84 127 84T128 87Q131 87 131 91V262Q131 263 128 265Q128 268 124 268L105 269V282Q160 282 192 282T232 280Q252 277 259 269Q271 264 276 252Q282 241 282 227T276 204Q272 195 263 190Q260 185 256 184T246 181Q236 174 224 174Q232 173 237 170T247 166Q252
161 255 159T261 152Q268 145 268 138Q272 127 272 122ZM370 169Q370 231 336 273Q329 281 322 289Q306 304 287 315Q275 327 247 332Q227 339 204 339T159 332Q136 327 120 315Q100 306 87 289Q60 264 50 236Q47 225 42 216Q37 186 37 167T42 126Q47 115 50 105T60
81T85 50L117 24Q127 20 137 16T158 8Q198 -4 226 2Q266 12 287 24Q334 57 348 85Q372 131 372 169H370ZM365 265Q392 228 392 170Q392 146 385 120Q372 85 366 74Q347 46 337 37Q320 20 297 7Q288 0 276 -4T252 -14Q229 -20 202 -20Q175 -20 152 -14Q141 -9 130
-5T109 7T89 20T71 37Q55 49 42 73Q15 112 15 169Q15 230 55 284Q62 294 71 303Q79 313 89 319T114 336T155 352Q174 359 202 359T252 352Q279 346 297 332Q319 319 337 304Q358 278 365 265Z" />
<glyph unicode="&#xbc;" glyph-name="onequarter" horiz-adv-x="455" d="M265 76H342V166L265 76ZM33 159H65Q70 159 71 161V320L24 311V324L93 346H105V166Q105 159 110 159H141V143H33V159ZM89 0L307 342H337L122 0H89ZM370 -11H342V54H239V76L348 198H370V76H405V54H370V-11Z"
/>
<glyph unicode="&#xbd;" glyph-name="onehalf" horiz-adv-x="457" d="M33 159H65Q70 159 70 161Q71 161 71 166V320L21 311V324L91 346H103V166Q103 161 105 161Q106 159 111 159H141V143H33V159ZM87 0L303 342H335L117 0H87ZM331 201L359 198Q365 195 371 192T381
184Q391 178 393 170T397 156T399 139T393 117T380 100L365 85Q358 76 349 69T331 54Q320 48 311 40T291 24H385L390 50H407V0H257L254 20Q268 30 278 38T303 56T332 85Q348 98 355 113Q364 126 364 137Q364 154 362 159T357 167T352 174Q345 181 339 181Q330 184
326 184H318Q315 184 314 183L304 181Q300 181 300 178H296V146Q296 143 291 143Q291 141 286 141H274Q271 141 268 143Q261 150 261 158T266 172T274 181T282 190Q287 191 292 193T304 198T318 201H331Z" />
<glyph unicode="&#xbe;" glyph-name="threequarters" horiz-adv-x="459" d="M269 76H346V166L269 76ZM96 0L314 342H343L126 0H96ZM52 291L42 289Q35 289 30 294Q28 294 24 297V307Q24 315 28 322Q36 328 43 335Q54 338 65 342Q71 343 77 344T91 346T105 345T118
341T129 338T138 334Q156 318 156 300T143 268T108 247H118Q124 247 128 246T137 243T146 238Q162 221 162 214T163 202H161Q161 188 156 176Q141 157 130 153Q99 141 86 141H66Q59 141 52 143Q48 147 43 148T33 152Q29 156 26 158T21 164Q17 170 17 174V181Q20
183 20 183T21 184Q23 187 24 188Q24 191 31 191T42 190H48L56 163Q64 159 70 159Q71 156 75 156H82Q99 156 106 161T117 169Q126 178 126 184Q131 192 131 202Q131 228 99 237H68V254H73L93 257Q101 258 108 263Q112 267 115 270Q122 275 122 286V301Q122 310
118 313T111 320Q107 323 104 323T96 327T82 331L71 329L63 326L54 324V292Q54 291 52 291ZM372 -11H343V54H244V76L350 198H372V76H409V54H372V-11Z" />
<glyph unicode="&#xc4;" glyph-name="Adieresis" horiz-adv-x="346" d="M106 143H202L155 274L106 143ZM211 21L239 24Q241 24 244 26V33L211 122H98L65 33V30Q65 28 68 26V25Q68 24 70 24H71L99 21V0H2V21L30 26L143 337H181L296 35Q296 32 296 31T297 28Q300
26 301 26T304 24L326 21V0H211V21ZM87 418L93 427Q96 429 98 431T103 435H122Q132 430 133 426T138 420Q139 416 139 409Q139 402 138 399Q135 396 131 391T122 385Q118 381 112 381T103 385Q97 385 93 390Q92 393 91 394T87 399V418ZM224 435Q237 426 237 420Q239
416 239 412V404Q239 401 237 399Q237 396 233 391T224 385Q222 383 216 383H208Q206 383 204 385Q201 385 195 390Q194 393 193 394T190 399L187 409L190 420Q194 428 204 435H224Z" />
<glyph unicode="&#xc5;" glyph-name="Aring" horiz-adv-x="346" d="M106 143H202L155 274L106 143ZM211 21L239 24Q241 24 244 26V33L211 122H98L65 33V30Q65 28 68 26V25Q68 24 70 24H71L99 21V0H2V21L30 26L143 337H181L296 35Q296 32 296 31T297 28Q300 26
301 26T304 24L326 21V0H211V21ZM187 400Q198 407 198 422Q198 432 195 435Q194 443 189 447T179 453T170 456H163Q155 456 150 455Q147 452 144 451T138 448T133 437Q128 429 128 422Q128 415 133 411Q134 408 134 405T139 400Q141 396 144 395T151 392T161 390H170Q174
390 176 392Q184 395 187 400ZM219 439T220 434T222 422T221 410T218 400Q213 395 211 391T204 381Q187 367 179 366T160 364T141 370Q127 374 123 380T115 390T108 400Q105 408 105 418Q105 436 108 446Q112 450 115 455T122 463Q131 480 163 480Q177 480 187
477Q195 473 204 463Q208 461 210 456T218 446Q219 439 220 434Z" />
<glyph unicode="&#xc7;" glyph-name="Ccedilla" horiz-adv-x="315" d="M229 -48L230 -63H229Q229 -80 223 -88T212 -98Q207 -103 193 -107T173 -111H159Q156 -110 153 -110H148Q144 -107 142 -106L134 -105V-87H146Q150 -89 156 -89H176Q181 -87 187 -87Q191 -84
193 -81T196 -75T198 -67T190 -57Q184 -52 174 -52H166L163 -54V-7Q156 -5 150 -4T135 0Q108 8 96 17Q73 28 48 62Q40 73 32 91T21 121Q17 143 17 173T30 235Q38 258 63 289Q79 305 117 324Q152 337 190 337H200Q206 337 211 335Q218 335 223 334T237 332T259 324Q266
324 272 322T286 317V241H257L247 286Q247 293 241 296Q237 296 233 300L222 303Q213 307 207 307Q202 309 190 309T167 306T143 300Q133 293 124 288T102 267T82 226Q73 201 73 167T80 112Q86 89 106 56Q137 25 170 22Q183 20 198 20H212Q223 22 226 24H231Q233
24 235 26H237L244 33Q246 33 246 37L259 89H287V11Q286 11 284 10T276 8Q269 6 257 0Q248 0 241 -2T225 -7T208 -9H183V-33Q184 -31 190 -31H195Q204 -31 209 -33Q216 -33 219 -37Q225 -40 229 -48Z" />
<glyph unicode="&#xc9;" glyph-name="Eacute" horiz-adv-x="284" d="M181 187Q184 190 184 191L190 226H212V115H190L184 150Q184 153 181 156Q181 159 174 159H103V24H226Q229 24 230 28Q231 29 232 30Q235 31 235 33L244 80H269V0H15V21L42 24H46Q48 24 50 28T52
35V296Q52 297 50 300T46 304T42 307L15 309V329H252V254H224L216 296Q216 300 212 303Q212 304 207 304H103V183H174Q181 183 181 187ZM174 452L181 455H190Q198 455 202 452Q206 452 208 449T211 445T212 442V433Q212 424 209 422Q205 416 202 413L126 365H99L166
442Q166 444 168 447T172 450T174 452Z" />
<glyph unicode="&#xd1;" glyph-name="Ntilde" horiz-adv-x="349" d="M306 304Q300 304 300 296V0H263L80 274V35Q80 30 82 26Q85 24 91 24L117 21V0H13V21L42 24Q48 24 48 26Q52 33 52 35V296Q52 297 48 303Q48 307 42 307L13 309V329H108V315L272 70V294Q272
300 270 302T261 304L235 307V329H339V307L311 304V307Q309 304 306 304ZM227 415T228 416T233 420T237 425T241 435H261Q259 428 257 423T252 413Q248 408 246 404T241 395L234 390Q220 381 202 381Q202 381 191 383Q185 387 182 388Q176 388 173 394Q168 395
166 397T161 399Q156 402 150 402Q146 405 140 405H130Q127 405 126 402Q122 402 117 399Q113 393 113 390Q111 387 111 381H89Q91 388 94 393L98 402Q101 407 103 411T111 420Q118 428 126 430Q132 435 148 435H159Q168 429 169 428Q174 428 178 425T187 420T201
413L216 411L224 413Q227 415 228 416Z" />
<glyph unicode="&#xd7;" glyph-name="multiply" horiz-adv-x="427" d="M244 128L133 15L113 33L224 146L113 261L133 279L244 166L357 279L377 261L263 146L377 33L357 15L244 128Z" />
<glyph unicode="&#xf7;" glyph-name="divide" horiz-adv-x="446" d="M244 98L257 96Q260 93 262 92Q266 89 267 86T271 79T274 74V68Q274 61 272 56Q262 42 257 42Q251 39 244 39T233 42Q228 42 224 48Q216 54 216 63Q216 63 216 74Q216 76 218 78Q219 82 221
84T224 89Q226 91 227 92T233 96L244 98ZM98 161H392V131H98V161ZM244 254L257 252Q260 251 261 249T265 246T268 242T272 237Q274 234 274 232V226Q274 218 272 212Q269 211 268 208Q267 205 257 198L244 195L233 198Q229 201 224 204Q222 208 218 212Q216 218
216 224V232Q216 235 219 239T224 246Q226 247 227 249T233 252L244 254Z" />
<glyph unicode="&#x2013;" glyph-name="endash" horiz-adv-x="688" d="M22 289H650V207H22V289Z" />
<glyph unicode="&#x2014;" glyph-name="emdash" horiz-adv-x="1449" d="M4 289H1441V207H4V289Z" />
<glyph unicode="&#x2018;" glyph-name="quoteleft" horiz-adv-x="144" d="M50 330V321H82Q82 320 84 318Q87 315 87 309Q89 308 89 304V296Q89 294 87 291Q87 285 83 283T77 278T71 275Q69 273 66 273H59Q41 273 30 284Q20 298 20 318Q20 357 42 377Q53 393 61
399T71 411L91 405Q88 402 85 398T78 391Q75 387 72 383T66 374Q50 354 50 330Z" />
<glyph unicode="&#x2019;" glyph-name="quoteright" horiz-adv-x="161" d="M35 366L33 372V381Q33 393 39 403Q51 412 64 412T91 399Q103 382 103 366T96 331Q77 301 67 292T53 279T48 275L30 276Q34 281 37 285T45 293T52 303T59 311Q62 316 63 321T68 332Q71
339 71 353V354H70V361H39Q37 364 35 366Z" />
<glyph unicode="&#x201c;" glyph-name="quotedblleft" horiz-adv-x="276" d="M82 323Q87 315 87 311Q89 309 89 304V297Q89 294 87 292Q87 286 80 283Q76 276 71 276Q69 275 66 275H59Q20 275 20 320Q20 359 42 379Q50 390 59 399Q70 407 71 412L91 407Q88 402
84 398T76 389Q72 387 70 382T64 372Q50 353 50 331V323H82ZM183 283Q176 273 158 273T131 286Q120 298 120 317T124 348Q131 365 141 379L159 396Q168 407 174 410L191 407V405Q189 398 181 393Q176 388 173 384T167 376T161 366T156 355Q152 348 152 331V323H183Q184
321 184 320T187 316L190 309V292Q188 289 186 288T183 283Z" />
<glyph unicode="&#x201d;" glyph-name="quotedblright" horiz-adv-x="278" d="M48 411L61 413Q88 413 100 384Q103 376 103 365L99 367Q99 344 96 334Q91 327 87 320Q86 318 76 305T60 288Q51 281 48 275L28 280Q32 283 34 286T42 293Q44 297 48 301Q60 315 65
330Q70 339 70 354V362H39Q37 365 37 366T35 369Q35 369 33 376V395Q35 397 36 400Q38 404 48 411ZM139 362Q138 365 134 369Q134 373 133 373V382Q133 394 139 404Q144 407 149 410T161 413Q178 413 190 399Q202 387 202 367Q202 347 197 337T188 320T181 306L161
286Q153 280 148 275L131 277Q133 282 137 286T145 294T152 303T159 312Q161 317 163 322T167 332T171 342T173 351T171 356T169 359V362H139Z" />
</font>
</defs>
</svg>
