<?xml version="1.0" standalone="no"?>
<!DOCTYPE svg PUBLIC "-//W3C//DTD SVG 1.1//EN" "http://www.w3.org/Graphics/SVG/1.1/DTD/svg11.dtd">
<svg xmlns="http://www.w3.org/2000/svg">
<defs >
<font id="FrancoisOne" horiz-adv-x="505" ><font-face
    font-family="Francois One"
    units-per-em="1000"
    panose-1="2 0 5 3 4 0 0 2 0 4"
    ascent="1089"
    descent="-329"
    alphabetic="0" />
<glyph unicode=" " glyph-name="space" horiz-adv-x="244" />
<glyph unicode="!" glyph-name="exclam" horiz-adv-x="265" d="M86 219L62 750H203L180 219H86ZM62 -6V146H203V0L62 -6Z" />
<glyph unicode="&quot;" glyph-name="quotedbl" horiz-adv-x="408" d="M63 463L40 750H181L157 469L63 463ZM251 463L228 750H368L345 469L251 463Z" />
<glyph unicode="#" glyph-name="numbersign" horiz-adv-x="626" d="M80 0L104 188H31V304H119L141 469H55V585H156L178 750H324L302 585H393L415 750H562L540 585H595V469H524L503 304H572V188H488L463 0H317L341 188H250L226 0H80ZM266 304H356L378 469H287L266 304Z" />
<glyph unicode="$" glyph-name="dollar" horiz-adv-x="544" d="M513 165T486 120T410 46T300 12V-47H230V14Q156 26 104 74T25 196L149 254L160 236Q188 189 216 159T284 128Q311 128 332 144T354 188Q354 214 335 239T289 280L173 349Q48 424 48 538Q48 614 98
667T230 731V797H300V733Q366 726 412 689T481 584L357 528Q354 534 341 562T310 604T265 617Q235 617 220 603T205 566Q205 544 218 527T251 497L372 427Q452 381 482 327T513 220Q513 165 486 120Z" />
<glyph unicode="%" glyph-name="percent" horiz-adv-x="940" d="M227 13L615 755L696 708L312 -27L227 13ZM138 317T92 376T45 534Q45 632 91 691T225 750Q314 750 361 691T408 534Q408 436 361 377T225 317Q138 317 92 376ZM258 412T273 447T288 536Q288 589
274 625T226 661Q193 661 179 626T164 538Q164 485 178 449T226 412Q258 412 273 447ZM625 -20T579 39T532 197Q532 295 578 354T712 413Q801 413 848 354T895 197Q895 99 848 40T712 -20Q625 -20 579 39ZM745 75T760 110T775 199Q775 252 761 288T713 324Q680
324 666 289T651 201Q651 148 665 112T713 75Q745 75 760 110Z" />
<glyph unicode="&amp;" glyph-name="ampersand" horiz-adv-x="623" d="M151 -14T109 12T43 82T19 180Q19 252 59 304T162 398Q134 437 114 486T94 584Q94 636 118 674T185 734T278 755Q327 755 367 736T430 681T453 598Q453 492 324 400L415 259Q428 289 441 328T463
403L574 368Q554 274 490 172Q513 149 538 136T599 119V-7Q544 -7 513 2T463 25T410 75Q367 35 315 11T207 -14Q151 -14 109 12ZM272 477T302 517T333 600Q333 626 316 641T277 657Q256 657 239 642T222 599Q222 580 231 557T260 496L271 474Q272 477 302 517ZM269
115T295 126T341 151L216 315Q186 296 170 265T153 201Q153 164 176 140T241 115Q269 115 295 126Z" />
<glyph unicode="&apos;" glyph-name="quotesingle" horiz-adv-x="220" d="M63 463L40 750H181L157 469L63 463Z" />
<glyph unicode="(" glyph-name="parenleft" horiz-adv-x="333" d="M217 -29T155 28T61 174T30 364Q30 466 62 556T156 703T306 763V674Q242 662 207 572T171 364Q171 286 186 217T232 103T306 55V-37Q217 -29 155 28Z" />
<glyph unicode=")" glyph-name="parenright" horiz-adv-x="333" d="M27 55Q70 59 101 103T147 216T163 364Q163 481 127 571T27 674V763Q114 760 176 703T271 556T303 364Q303 263 272 175T179 29T27 -37V55Z" />
<glyph unicode="*" glyph-name="asterisk" horiz-adv-x="513" d="M178 209L67 291L195 417L24 444L63 577L218 503L193 680H321L296 503L450 577L489 444L318 417L446 291L335 209L257 365L178 209Z" />
<glyph unicode="+" glyph-name="plus" horiz-adv-x="417" d="M150 10V127H33V243H150V360H267V243H384V127H267V10H150Z" />
<glyph unicode="," glyph-name="comma" horiz-adv-x="238" d="M72 -47Q101 -47 113 -23Q117 -14 119 0H48V141H189V0Q189 -48 173 -78T130 -123Q104 -138 72 -141V-47Z" />
<glyph unicode="-" glyph-name="hyphen" horiz-adv-x="393" d="M56 234V351H337V234H56Z" />
<glyph unicode="." glyph-name="period" horiz-adv-x="239" d="M50 -6V141H190V6L50 -6Z" />
<glyph unicode="/" glyph-name="slash" horiz-adv-x="307" d="M31 0L129 750H276L178 0H31Z" />
<glyph unicode="0" glyph-name="zero" horiz-adv-x="556" d="M147 -14T97 100T47 377Q47 538 96 651T277 764Q408 764 458 651T509 378Q509 216 459 101T277 -14Q147 -14 97 100ZM309 104T328 127T358 215T368 403Q368 521 351 583T277 646Q221 646 205 586T188
415Q188 287 197 220T225 129T277 104Q309 104 328 127Z" />
<glyph unicode="1" glyph-name="one" horiz-adv-x="454" d="M77 0V123H173V567L70 545V650L241 750H313V123H411L405 0H77Z" />
<glyph unicode="2" glyph-name="two" horiz-adv-x="521" d="M58 109Q84 143 144 213Q209 287 248 339T315 449T343 562Q343 593 324 619T266 646Q228 646 199 610T162 522L42 561Q52 615 82 661T160 736T269 764Q332 764 381 738T457 666T485 560Q485 452 411
344T220 123H479L467 0H58V109Z" />
<glyph unicode="3" glyph-name="three" horiz-adv-x="521" d="M167 -14T105 26T23 146L130 193Q147 145 175 125T243 104Q281 104 306 132T331 215Q331 286 290 310T172 335V433Q236 433 277 465T320 560V561Q320 601 295 624T236 647Q206 647 180 629T141 575L41
632Q74 701 128 732T256 764Q309 764 356 742T432 676T462 572Q462 507 430 462T336 395Q399 375 435 325T472 201Q472 134 441 86T360 12T250 -14Q167 -14 105 26Z" />
<glyph unicode="4" glyph-name="four" horiz-adv-x="521" d="M275 -6V188H24V300L269 750H416V300H510L498 188H416V6L275 -6ZM141 300H275V563L141 300Z" />
<glyph unicode="5" glyph-name="five" horiz-adv-x="521" d="M193 -14T130 32T48 164L161 206Q168 166 197 135T269 104Q312 104 337 143T362 234Q362 287 335 324T256 362Q232 362 210 350T171 313L71 346L113 750H462L450 633H223L200 458Q253 478 302 478Q357
478 401 446T471 360T497 243Q497 170 468 112T388 20T272 -14Q193 -14 130 32Z" />
<glyph unicode="6" glyph-name="six" horiz-adv-x="521" d="M147 -14T101 99T54 354Q54 466 81 559T161 708T289 764Q357 764 402 716T460 582L351 557Q350 561 345 586T324 629T285 646Q197 646 197 417Q221 435 251 445T312 456Q362 456 400 428T459 351T480
245Q480 180 454 121T378 24T265 -14Q147 -14 101 99ZM307 104T324 142T342 227Q342 274 323 305T264 337Q249 337 234 332T198 315Q196 277 196 261Q196 181 213 143T267 104Q307 104 324 142Z" />
<glyph unicode="7" glyph-name="seven" horiz-adv-x="521" d="M141 143T185 298T302 629H58L69 750H474V646Q387 476 339 308T291 0H129Q141 143 185 298Z" />
<glyph unicode="8" glyph-name="eight" horiz-adv-x="521" d="M417 370T451 325T485 210Q485 143 454 92T371 14T255 -14Q198 -14 148 8T67 75T36 184Q36 251 70 301T161 384Q109 415 84 457T58 556Q58 617 85 664T160 738T265 764Q317 764 361 742T432 680T458
586Q458 530 429 486T351 411Q417 370 451 325ZM232 646T211 627T189 574Q189 538 212 510T266 462Q339 508 339 572Q339 606 320 626T265 646Q232 646 211 627ZM298 104T321 124T345 189Q345 281 241 329Q177 281 177 199Q177 104 260 104Q298 104 321 124Z" />
<glyph unicode="9" glyph-name="nine" horiz-adv-x="521" d="M171 -14T126 33T67 168L177 194Q183 165 188 149T206 118T244 104Q294 104 311 164T331 324Q308 307 277 297T217 286Q166 286 128 318T70 402T49 514Q49 582 75 639T150 730T260 764Q379 764 426
649T473 388Q473 270 445 179T363 37T239 -14Q171 -14 126 33ZM297 404T331 426Q333 445 333 476Q333 550 319 598T262 646Q224 646 207 606T189 518Q189 470 207 437T267 404Q297 404 331 426Z" />
<glyph unicode=":" glyph-name="colon" horiz-adv-x="252" d="M56 281V422H196V281H56ZM56 -6V141H196V0L56 -6Z" />
<glyph unicode=";" glyph-name="semicolon" horiz-adv-x="252" d="M56 281V422H197V281H56ZM80 -47Q109 -47 121 -23Q126 -13 126 0L56 -6V141H197V0Q197 -48 180 -78T138 -123Q112 -138 80 -141V-47Z" />
<glyph unicode="&lt;" glyph-name="less" horiz-adv-x="477" d="M422 43L27 214V344L423 520L416 392L196 296L429 211L422 43Z" />
<glyph unicode="=" glyph-name="equal" horiz-adv-x="393" d="M56 328V444H337V328H56ZM56 141V257H337V141H56Z" />
<glyph unicode="&gt;" glyph-name="greater" horiz-adv-x="477" d="M55 43L48 211L281 296L61 392L54 520L449 344V214L55 43Z" />
<glyph unicode="?" glyph-name="question" horiz-adv-x="432" d="M93 205T93 236Q93 291 106 325T139 376T189 413Q216 430 231 443T256 479T267 540Q267 644 210 644Q182 644 173 618T158 547L24 553Q26 612 50 658T117 729T214 755Q278 755 322 724T387 642T408
535Q408 477 394 440T358 383T302 340Q271 320 254 305T224 262T212 193V188H95Q93 205 93 236ZM83 -6V141H224V0L83 -6Z" />
<glyph unicode="@" glyph-name="at" horiz-adv-x="771" d="M255 -16T179 31T65 156T27 324Q27 421 71 509T200 653T396 709Q488 709 567 671T696 559T745 379Q745 282 704 226T590 170Q544 170 521 191T485 249Q436 158 359 158Q323 158 292 179T242 241T222 343Q222
403 241 443T292 502T358 521Q392 521 421 505T466 459L483 513H560V284Q560 254 568 242T594 229Q629 229 640 268T652 357Q652 451 605 532T415 614Q321 614 259 573T166 467T136 329Q136 260 162 202T242 109T374 74Q468 74 588 134L624 61Q549 20 487 2T363
-16Q255 -16 179 31ZM410 250T425 264T451 305V412Q419 445 393 445Q367 445 352 417T336 344Q336 298 352 274T392 250Q410 250 425 264Z" />
<glyph unicode="A" glyph-name="A" horiz-adv-x="552" d="M12 0L170 741L379 750L541 6L381 0L354 161H175L143 0H12ZM202 281H327L258 640L202 281Z" />
<glyph unicode="B" glyph-name="B" horiz-adv-x="551" d="M70 750H238Q374 750 436 697T498 557Q498 502 477 460T417 399Q465 374 493 333T521 210Q521 0 190 0H70V750ZM247 445Q305 445 333 464T362 542Q362 594 330 613T241 633H212V445H247ZM244 117Q316 117
348 152T380 230Q380 295 346 316T249 338H217V117H244Z" />
<glyph unicode="C" glyph-name="C" horiz-adv-x="522" d="M145 -14T93 103T40 391Q40 483 64 568T141 708T277 764Q340 764 387 725T460 624T486 493L344 486Q344 531 329 588T269 646Q222 646 204 571T186 391Q186 261 206 183T283 104Q323 104 340 151T362 267L487
255Q487 183 463 122T391 23T274 -14Q145 -14 93 103Z" />
<glyph unicode="D" glyph-name="D" horiz-adv-x="554" d="M70 750H224Q372 750 445 656T518 372Q518 271 491 187T403 52T250 0H70V750ZM237 117Q313 117 342 182T372 344V378Q372 447 364 500T325 593T233 633H216V117H237Z" />
<glyph unicode="E" glyph-name="E" horiz-adv-x="483" d="M70 0V750H451L439 633H217V454H375L374 328H217V117H459L447 0H70Z" />
<glyph unicode="F" glyph-name="F" horiz-adv-x="460" d="M70 -6V750H451L439 632H217V436H374V312H217V6L70 -6Z" />
<glyph unicode="G" glyph-name="G" horiz-adv-x="553" d="M143 -14T92 97T40 378Q40 473 64 561T143 706T283 764Q356 764 404 729T476 635T500 505L361 496L358 517Q352 576 337 611T281 646Q229 646 208 563T186 370Q186 293 191 239T217 145T282 104Q319 104
340 150T362 263H288L300 375H503V6L447 0L413 139Q404 100 391 69T344 12T254 -14Q143 -14 92 97Z" />
<glyph unicode="H" glyph-name="H" horiz-adv-x="574" d="M70 -6V738L217 750V446H357V738L504 750V6L357 -6V312H217V6L70 -6Z" />
<glyph unicode="I" glyph-name="I" horiz-adv-x="287" d="M70 -6V738L217 750V6L70 -6Z" />
<glyph unicode="J" glyph-name="J" horiz-adv-x="333" d="M81 -14T27 1V100Q48 93 66 93Q102 93 111 120T121 200V738L267 750V188Q267 91 234 39T121 -14Q81 -14 27 1Z" />
<glyph unicode="K" glyph-name="K" horiz-adv-x="563" d="M404 -13L274 336L217 237V0H70V738L217 750V422L395 750H551L390 440L553 21L404 -13Z" />
<glyph unicode="L" glyph-name="L" horiz-adv-x="469" d="M70 0V738L216 750V117H462L447 0H70Z" />
<glyph unicode="M" glyph-name="M" horiz-adv-x="794" d="M572 -6V557L432 0H342L191 559V6L70 0V743L285 749L409 285L528 732L724 744V6L572 -6Z" />
<glyph unicode="N" glyph-name="N" horiz-adv-x="611" d="M420 -6L201 463V6L70 0V744L223 750L417 304V738L541 750V6L420 -6Z" />
<glyph unicode="O" glyph-name="O" horiz-adv-x="549" d="M145 -14T94 95T42 379Q42 564 97 664T274 764Q507 764 507 383Q507 212 455 99T272 -14Q145 -14 94 95ZM327 104T344 173T361 384Q361 497 345 571T274 646Q220 646 204 572T188 385Q188 243 204 174T274
104Q327 104 344 173Z" />
<glyph unicode="P" glyph-name="P" horiz-adv-x="533" d="M70 750H164Q277 750 344 741T462 682T514 525Q514 427 471 377T364 311T217 295V6L70 -6V750ZM243 414Q301 414 334 438T368 526Q368 589 337 611T239 633H218V414H243Z" />
<glyph unicode="Q" glyph-name="Q" horiz-adv-x="549" d="M507 257T479 159T383 17L474 -118L384 -177L268 -14Q42 -10 42 379Q42 564 97 664T274 764Q507 764 507 383Q507 257 479 159ZM188 243T204 174T274 104Q327 104 344 173T361 384Q361 497 345 571T274
646Q220 646 204 572T188 385Q188 243 204 174Z" />
<glyph unicode="R" glyph-name="R" horiz-adv-x="565" d="M273 329H216V6L70 -6V744L248 750Q377 750 450 699T523 541Q523 471 496 426T416 351L483 188L551 26L407 -13L273 329ZM266 437Q318 437 347 458T377 540Q377 633 285 633H216V437H266Z" />
<glyph unicode="S" glyph-name="S" horiz-adv-x="533" d="M177 -14T115 36T23 172L147 230L159 210Q188 160 214 132T281 104Q307 104 327 129T348 184Q348 212 334 235T298 272L167 350Q110 382 76 431T42 541Q42 606 72 657T155 736T274 764Q351 764 405 726T485
613L361 557Q357 565 344 593T313 633T267 646Q234 646 217 625T199 571Q199 547 212 528T245 497L366 426Q500 350 507 226Q507 155 476 101T390 16T268 -14Q177 -14 115 36Z" />
<glyph unicode="T" glyph-name="T" horiz-adv-x="477" d="M167 -6V633H14L25 750H465L453 633H313V6L167 -6Z" />
<glyph unicode="U" glyph-name="U" horiz-adv-x="568" d="M176 -14T120 58T64 247V744L211 750V235Q211 196 215 169T238 123T293 104Q328 104 344 123T365 169T369 237V738L503 750V264Q503 158 462 72T288 -14Q176 -14 120 58Z" />
<glyph unicode="V" glyph-name="V" horiz-adv-x="533" d="M185 0L8 744L182 750L281 232L385 744L526 750L346 0H185Z" />
<glyph unicode="W" glyph-name="W" horiz-adv-x="774" d="M166 0L13 744L173 750L252 301L337 744L457 750L536 296L631 744L766 750L605 0H460L381 458L300 0H166Z" />
<glyph unicode="X" glyph-name="X" horiz-adv-x="520" d="M0 0L187 381L8 750H183L270 555L360 750H500L331 409L525 0H351L245 235L139 0H0Z" />
<glyph unicode="Y" glyph-name="Y" horiz-adv-x="501" d="M179 -6V297L-1 750H160L263 438L374 750H500L327 314V6L179 -6Z" />
<glyph unicode="Z" glyph-name="Z" horiz-adv-x="472" d="M30 0V93L271 633H53L65 750H441V653L206 117H448L425 0H30Z" />
<glyph unicode="[" glyph-name="bracketleft" horiz-adv-x="338" d="M69 -47V797H309V703H215V46H309V-47H69Z" />
<glyph unicode="\" glyph-name="backslash" horiz-adv-x="307" d="M129 0L31 750H177L275 0H129Z" />
<glyph unicode="]" glyph-name="bracketright" horiz-adv-x="338" d="M29 -47V46H123V703H29V797H270V-47H29Z" />
<glyph unicode="^" glyph-name="asciicircum" horiz-adv-x="458" d="M32 405L166 703H295L426 405H276L225 546L167 405H32Z" />
<glyph unicode="_" glyph-name="underscore" horiz-adv-x="271" d="M-5 -116V0H276V-116H-5Z" />
<glyph unicode="`" glyph-name="grave" horiz-adv-x="299" d="M210 605L29 757L132 852L262 655L210 605Z" />
<glyph unicode="a" glyph-name="a" horiz-adv-x="471" d="M117 -13T88 9T43 70T27 157Q27 266 101 310T275 361Q275 415 268 441T234 467Q211 467 199 449T184 403L47 427Q57 504 110 537T234 570Q325 570 370 522T416 397V106Q416 59 431 6L294 -6L278 63Q260
31 225 9T153 -13Q117 -13 88 9ZM235 87T246 95T275 121V277Q225 277 195 250T165 166Q165 128 178 108T218 87Q235 87 246 95Z" />
<glyph unicode="b" glyph-name="b" horiz-adv-x="518" d="M266 -13T239 9T201 70L167 -6L61 6V732L201 750V491Q226 527 264 548T344 570Q409 570 446 502T483 281Q483 -13 322 -13Q266 -13 239 9ZM316 87T329 136T343 281Q343 348 338 383T319 434T279 450Q261
450 237 437T201 412V234Q201 154 220 121T270 87Q316 87 329 136Z" />
<glyph unicode="c" glyph-name="c" horiz-adv-x="445" d="M171 -13T126 27T57 133T34 276Q34 352 56 419T125 528T238 570Q289 570 329 545T393 473T418 368L285 362Q285 366 282 394T267 440T237 458Q197 458 186 404T175 281Q175 214 186 160T241 105Q295 105
297 211L415 198Q402 94 363 41T235 -13Q171 -13 126 27Z" />
<glyph unicode="d" glyph-name="d" horiz-adv-x="518" d="M36 -13T36 281Q36 434 76 502T201 570Q237 570 270 547T318 488V732L459 750V6L353 -6L318 70Q308 33 281 10T198 -13Q36 -13 36 281ZM280 87T299 120T318 234V422Q289 467 250 467Q217 467 202 444T182
382T177 281Q177 217 181 177T202 112T250 87Q280 87 299 120Z" />
<glyph unicode="e" glyph-name="e" horiz-adv-x="471" d="M140 -13T87 66T34 278Q34 412 88 491T245 570Q343 570 395 491T447 278Q447 270 444 267T441 262H174Q174 197 191 144T243 90Q282 90 301 135T321 182L427 142Q406 70 360 29T240 -13Q140 -13 87 66ZM309
343Q309 403 293 438T243 473Q226 473 210 456T184 409T174 343H309Z" />
<glyph unicode="f" glyph-name="f" horiz-adv-x="338" d="M88 457H19L24 563H88V573Q88 632 95 668T133 730T228 755Q289 755 323 740V656H292Q252 656 241 634T229 573V563H328L322 457H229V6L88 -6V457Z" />
<glyph unicode="g" glyph-name="g" horiz-adv-x="532" d="M140 -175T78 -144T16 -57Q16 -19 44 7T115 50Q77 61 58 78T39 127Q39 166 66 197T137 250Q47 302 47 395Q47 451 77 490T156 550T258 570Q337 570 398 528Q428 555 458 573T535 591V498Q477 498 446 484Q458
453 462 435T467 396Q467 328 421 278T271 227L234 228Q225 229 212 229Q199 225 187 212T175 183Q175 169 185 159T210 147L370 129Q509 113 509 -6Q509 -99 438 -137T252 -175Q140 -175 78 -144ZM287 307T304 330T321 397Q321 441 303 463T257 485Q226 485 208
460T190 398Q190 364 205 336T256 307Q287 307 304 330ZM372 -73T372 -11Q372 6 363 14T335 25T271 32L188 39Q170 33 157 18T144 -17Q144 -44 172 -58T258 -73Q372 -73 372 -11Z" />
<glyph unicode="h" glyph-name="h" horiz-adv-x="539" d="M61 732L201 750V491Q287 570 362 570Q415 570 448 532T482 428V6L342 -6V377Q342 414 329 432T293 450Q275 450 255 441T201 412V6L61 -6V732Z" />
<glyph unicode="i" glyph-name="i" horiz-adv-x="263" d="M62 635V780L202 790V641L62 635ZM61 -6V551L201 563V6L61 -6Z" />
<glyph unicode="j" glyph-name="j" horiz-adv-x="265" d="M66 635V780L207 790V641L66 635ZM41 -141T-12 -131V-47Q24 -47 40 -40T61 -19T66 26V551L207 563V26Q207 -40 201 -72T169 -122T82 -141Q41 -141 -12 -131Z" />
<glyph unicode="k" glyph-name="k" horiz-adv-x="500" d="M361 -13L247 267L201 206V0H61V732L201 750V378L344 563H496L338 360L485 29L361 -13Z" />
<glyph unicode="l" glyph-name="l" horiz-adv-x="263" d="M62 -6V732L202 750V6L62 -6Z" />
<glyph unicode="m" glyph-name="m" horiz-adv-x="737" d="M61 551L198 563V491Q229 527 269 548T350 570Q413 570 433 482Q499 570 581 570Q635 570 658 527T681 399V6L543 -6V392Q543 419 533 434T510 450Q489 450 471 439T439 410V6L302 -6V393Q302 421 294
435T274 450Q254 450 233 438T198 410V6L61 -6V551Z" />
<glyph unicode="n" glyph-name="n" horiz-adv-x="539" d="M61 551L201 563V491Q244 529 285 549T362 570Q415 570 448 532T482 428V6L342 -6V375Q342 450 291 450Q274 450 254 440T201 411V6L61 -6V551Z" />
<glyph unicode="o" glyph-name="o" horiz-adv-x="490" d="M143 -13T89 67T34 280Q34 412 88 491T244 570Q345 570 400 491T456 280Q456 148 401 68T244 -13Q143 -13 89 67ZM289 91T302 146T315 281Q315 361 302 416T244 471Q199 471 187 419T175 292Q175 200 187
146T244 91Q289 91 302 146Z" />
<glyph unicode="p" glyph-name="p" d="M61 551L201 563V508Q234 541 262 555T329 570Q381 570 411 541T455 451T469 286Q469 145 437 66T312 -13Q270 -13 245 3T201 48V-147L61 -175V551ZM295 94T311 133T328 280Q328 383 312 426T261 469Q226 469 201 430V139Q221
94 262 94Q295 94 311 133Z" />
<glyph unicode="q" glyph-name="q" horiz-adv-x="495" d="M294 48Q276 20 250 4T185 -13Q119 -13 86 33T45 140T36 272Q36 353 45 416T87 524T186 570Q223 570 249 554T294 508L299 551L435 563V-157L294 -175V48ZM256 94T270 107T294 139V430Q283 449 271 459T242
469Q209 469 193 425T177 275Q177 170 191 132T235 94Q256 94 270 107Z" />
<glyph unicode="r" glyph-name="r" horiz-adv-x="404" d="M61 551L201 563V472Q231 515 275 541T389 568V431Q353 431 295 419T201 375V6L61 -6V551Z" />
<glyph unicode="s" glyph-name="s" horiz-adv-x="451" d="M146 -13T95 24T29 129L138 165Q142 146 153 131Q176 98 220 98Q245 98 268 109T291 143Q291 174 248 191L130 239Q83 259 58 299T33 397Q33 451 59 490T129 549T223 570Q286 570 339 534T410 434L294
398Q290 415 280 432Q258 466 224 466Q199 466 181 455T163 421Q163 395 212 373L312 332Q365 307 395 269T425 167Q425 109 397 69T324 8T229 -13Q146 -13 95 24Z" />
<glyph unicode="t" glyph-name="t" horiz-adv-x="360" d="M185 -11T138 23T91 146V457H13L19 563H95L109 685L231 702V563H347L341 457H232V147Q232 117 247 104T291 91Q307 91 345 97V0Q341 -1 314 -6T253 -11Q185 -11 138 23Z" />
<glyph unicode="u" glyph-name="u" horiz-adv-x="539" d="M127 -13T92 25T57 129V551L197 563V186Q197 146 210 129T250 111Q271 111 295 121T338 155V551L479 563V6L338 -6V66Q303 26 262 7T182 -13Q127 -13 92 25Z" />
<glyph unicode="v" glyph-name="v" horiz-adv-x="455" d="M161 0L4 551L172 563L243 203L324 545L451 557L290 0H161Z" />
<glyph unicode="w" glyph-name="w" horiz-adv-x="642" d="M133 0L18 552L161 563L209 244L280 551L397 563L458 248L519 551L633 557L504 0H391L327 365L248 0H133Z" />
<glyph unicode="x" glyph-name="x" horiz-adv-x="459" d="M308 -6L225 166L139 0H5L157 283L10 563H164L231 425L303 563H436L300 310L462 6L308 -6Z" />
<glyph unicode="y" glyph-name="y" horiz-adv-x="440" d="M50 -178T15 -172V-55Q52 -57 74 -57Q162 -57 162 25V53L1 556L153 563L232 210L307 560L434 561L290 10Q260 -98 203 -138T74 -178Q50 -178 15 -172Z" />
<glyph unicode="z" glyph-name="z" horiz-adv-x="425" d="M44 0V88L233 453H52L64 563H389V479L203 111H404L392 0H44Z" />
<glyph unicode="{" glyph-name="braceleft" horiz-adv-x="329" d="M212 -42T161 -7T90 95T69 269Q69 302 61 320T22 338V431Q53 431 61 449T69 500Q69 601 89 665T161 763T303 797V718Q258 718 238 695T214 631T209 500Q209 473 205 455T180 418T116 384Q159 370
179 351T204 314T209 269Q209 173 213 129T238 61T303 37V-42Q212 -42 161 -7Z" />
<glyph unicode="|" glyph-name="bar" horiz-adv-x="284" d="M69 -47V797H215V-47H69Z" />
<glyph unicode="}" glyph-name="braceright" horiz-adv-x="329" d="M260 467T268 449T307 431V338Q276 338 268 320T260 269Q260 162 240 95T168 -7T25 -42V37Q70 37 90 61T114 129T119 269Q119 296 124 314T149 351T211 384Q169 399 149 418T124 455T119 500Q119
590 115 631T90 695T25 718V797Q117 797 168 764T239 666T260 500Q260 467 268 449Z" />
<glyph unicode="~" glyph-name="asciitilde" horiz-adv-x="398" d="M249 370T236 377T204 399Q185 414 171 421T140 429Q96 429 45 375V455Q103 524 151 524Q167 524 179 518T210 498Q229 484 242 478T272 471Q298 471 321 487T356 524V436Q356 433 343 416T310
385T266 370Q249 370 236 377Z" />
<glyph unicode="&#xa0;" glyph-name="uni00A0" horiz-adv-x="244" />
<glyph unicode="&#xa1;" glyph-name="exclamdown" horiz-adv-x="265" d="M62 598V750L203 744V598H62ZM62 -6L86 525H180L203 -6H62Z" />
<glyph unicode="&#xa2;" glyph-name="cent" horiz-adv-x="480" d="M214 -8Q122 11 74 91T25 279Q25 348 46 411T109 516T214 567V656H282V567Q357 555 403 501T453 368L320 362Q315 392 308 414T282 448V106Q308 112 319 143T333 211L450 198Q437 99 400 47T282
-12V-94H214V-8ZM214 449Q184 429 176 385T167 281Q167 229 175 188T214 123V449Z" />
<glyph unicode="&#xa3;" glyph-name="sterling" horiz-adv-x="446" d="M245 157T282 157Q342 157 412 113V5L391 -1Q362 28 334 37T278 47Q246 47 221 39T165 15Q144 4 130 -1T102 -6Q85 -6 71 1T47 18V110Q86 122 103 170T120 276Q120 289 118 311H37V404H101Q95
427 81 469Q67 512 61 539T54 591Q54 639 79 678T148 741T239 764Q303 764 354 722T416 602L302 559Q302 603 286 626T244 650Q223 650 210 632T197 578Q197 546 206 518T233 447L251 404H381V311H271V308Q271 230 212 141Q245 157 282 157Z" />
<glyph unicode="&#xa4;" glyph-name="currency" horiz-adv-x="592" d="M43 271L111 332Q86 379 86 446Q86 515 113 562L43 624L89 677L159 616Q213 656 296 656Q380 656 434 615L504 677L551 624L480 562Q507 511 507 445Q507 380 481 332L551 271L504 218L437
278Q383 235 296 235Q208 235 157 277L89 218L43 271ZM390 341T390 445Q390 550 296 550Q203 550 203 445Q203 341 296 341Q390 341 390 445Z" />
<glyph unicode="&#xa5;" glyph-name="yen" horiz-adv-x="535" d="M519 750L366 367H482V296H345V215H482V145H345V0H197V145H61V215H197V296H61V367H169L17 750H178L281 438L392 750H519Z" />
<glyph unicode="&#xa6;" glyph-name="brokenbar" horiz-adv-x="288" d="M71 469V797H217V469H71ZM71 -47V281H217V-47H71Z" />
<glyph unicode="&#xa7;" glyph-name="section" horiz-adv-x="480" d="M158 -16T107 20T41 117L149 152Q155 125 176 105T230 85Q256 85 279 96T302 131Q302 154 281 168T235 190T204 202Q127 231 86 273T44 381Q44 445 84 492Q49 533 49 596Q49 650 75 688T145
746T237 766Q303 766 355 731T426 635L311 599Q290 667 238 667Q215 667 197 655T179 624Q179 602 201 588T272 555Q314 539 328 532Q383 507 412 473T441 378Q441 306 396 258Q437 217 437 155Q437 101 409 62T335 4T233 -16Q158 -16 107 20ZM297 326T302 333T307
353Q307 385 264 402L186 434Q174 419 174 403Q174 385 184 373T215 352T288 319Q297 326 302 333Z" />
<glyph unicode="&#xa8;" glyph-name="dieresis" horiz-adv-x="533" d="M79 609V750H220V609H79ZM313 609V750H454V609H313Z" />
<glyph unicode="&#xa9;" glyph-name="copyright" horiz-adv-x="682" d="M256 0T184 44T69 164T26 329Q26 418 68 493T183 613T341 657Q426 657 498 613T613 494T656 329Q656 240 614 164T499 44T341 0Q256 0 184 44ZM408 65T465 100T557 196T591 329Q591 401 557
461T466 556T341 592Q274 592 217 557T125 461T91 329Q91 257 125 197T216 101T341 65Q408 65 465 100ZM293 118T258 150T207 231T191 333Q191 386 207 433T258 510T342 540Q387 540 419 516T468 454T485 373L392 369Q392 395 383 428T341 461Q310 461 299 425T288
332Q288 272 300 232T349 191Q378 191 389 218T404 292L486 284Q486 214 450 166T347 118Q293 118 258 150Z" />
<glyph unicode="&#xaa;" glyph-name="ordfeminine" horiz-adv-x="378" d="M85 331T59 367T33 457Q33 592 216 607Q216 644 211 664T185 684Q169 684 160 671T148 637L48 655Q55 711 94 735T186 760Q253 760 286 725T319 633V419Q319 401 322 379T330 345L229 336L218
387Q207 364 180 348T125 331Q85 331 59 367ZM194 405T216 429V544Q135 544 135 462Q135 435 144 420T173 405Q194 405 216 429Z" />
<glyph unicode="&#xab;" glyph-name="guillemotleft" horiz-adv-x="607" d="M274 29L26 214V344L275 534L269 407L122 296L281 196L274 29ZM556 29L308 214V344L557 534L550 407L403 296L563 196L556 29Z" />
<glyph unicode="&#xac;" glyph-name="logicalnot" horiz-adv-x="385" d="M257 141V234H46V351H328V141H257Z" />
<glyph unicode="&#xad;" glyph-name="uni00AD" horiz-adv-x="293" d="M262 234V351H543V234H262Z" />
<glyph unicode="&#xae;" glyph-name="registered" horiz-adv-x="682" d="M256 0T184 44T69 164T26 329Q26 418 68 493T183 613T341 657Q426 657 498 613T613 494T656 329Q656 240 614 164T499 44T341 0Q256 0 184 44ZM408 65T465 100T557 196T591 329Q591 401
557 461T466 556T341 592Q274 592 217 557T125 461T91 329Q91 257 125 197T216 101T341 65Q408 65 465 100ZM334 308H301V149L217 141V520H295Q346 520 382 514T443 483T468 410Q468 375 454 354T411 322L476 168L397 141L334 308ZM320 367Q355 367 372 376T390
411Q390 436 373 444T318 453H302V367H320Z" />
<glyph unicode="&#xaf;" glyph-name="overscore" horiz-adv-x="438" d="M79 609V703H360V609H79Z" />
<glyph unicode="&#xb0;" glyph-name="degree" horiz-adv-x="381" d="M118 461T77 503T35 612Q35 679 76 721T192 764Q266 764 306 722T346 612Q346 545 306 503T192 461Q118 461 77 503ZM224 545T236 566T249 613Q249 639 237 659T192 680Q158 680 145 660T131
611Q131 587 144 566T192 545Q224 545 236 566Z" />
<glyph unicode="&#xb1;" glyph-name="plusminus" horiz-adv-x="423" d="M154 164V281H37V397H154V515H270V397H387V281H270V164H154ZM69 0V117H351V0H69Z" />
<glyph unicode="&#xb2;" glyph-name="uni00B2" horiz-adv-x="410" d="M42 366Q66 393 95 422Q160 488 194 535T229 628Q229 648 221 660T199 673Q177 673 167 639Q163 628 159 606L42 645Q55 696 101 731T212 766Q280 766 324 732T368 627Q368 524 197 375H345Q345
356 341 328Q337 300 337 281H42V366Z" />
<glyph unicode="&#xb3;" glyph-name="uni00B3" horiz-adv-x="418" d="M130 258T84 286T23 368L128 399Q135 378 148 366T184 353Q206 353 220 368T234 404Q234 445 208 459T134 474V568Q178 568 203 581T228 629Q228 648 217 661T186 674Q175 674 168 669T153
653Q147 642 143 632L42 670Q71 721 107 743T196 765Q263 765 312 733T361 642Q361 563 270 527Q318 511 343 482T368 405Q368 336 317 297T190 258Q130 258 84 286Z" />
<glyph unicode="&#xb4;" glyph-name="acute" horiz-adv-x="293" d="M71 608L16 657L161 875L272 777L71 608Z" />
<glyph unicode="&#xb5;" glyph-name="uni00B5" horiz-adv-x="537" d="M63 551L203 563V186Q203 111 250 111Q267 111 289 122T344 155V551L484 563V6L344 -6V66Q282 21 231 21Q212 21 203 22V-94L63 -100V551Z" />
<glyph unicode="&#xb6;" glyph-name="paragraph" horiz-adv-x="563" d="M164 391Q97 410 60 449T23 559Q23 644 74 686T199 739T380 750H419H535V629H464V0H351V373Q315 373 277 376V0H164V391Z" />
<glyph unicode="&#xb7;" glyph-name="middot" horiz-adv-x="252" d="M56 234V375H196V234H56Z" />
<glyph unicode="&#xb8;" glyph-name="cedilla" horiz-adv-x="269" d="M118 -271T88 -263T37 -240V-160Q75 -177 107 -177Q131 -177 142 -167T154 -141Q154 -119 130 -101T61 -83L80 23H154L140 -37Q211 -57 233 -96T255 -165Q255 -220 225 -245T149 -271Q118 -271
88 -263Z" />
<glyph unicode="&#xb9;" glyph-name="uni00B9" horiz-adv-x="373" d="M51 375H138V589L108 585Q74 581 57 581H44V650L206 750H255V375H347L341 281H51V375Z" />
<glyph unicode="&#xba;" glyph-name="ordmasculine" horiz-adv-x="464" d="M140 376T91 430T41 573Q41 661 90 715T231 769Q323 769 373 715T424 573Q424 484 374 430T231 376Q140 376 91 430ZM265 471T283 501T302 575Q302 617 284 648T232 679Q199 679 181 649T162
576Q162 534 180 503T232 471Q265 471 283 501Z" />
<glyph unicode="&#xbb;" glyph-name="guillemotright" horiz-adv-x="607" d="M52 29L45 196L205 296L58 407L51 534L300 344V214L52 29ZM333 29L326 196L486 296L339 407L332 534L581 344V214L333 29Z" />
<glyph unicode="&#xbc;" glyph-name="onequarter" horiz-adv-x="972" d="M41 375H128V589L98 585Q64 581 47 581H35V650L196 750H246V375H337L331 281H41V375ZM332 0L520 750H660L473 0H332ZM768 -23V94H577V176L749 469H889V181H950L942 94H889V-16L768 -23ZM667
181H768V347L667 181Z" />
<glyph unicode="&#xbd;" glyph-name="onehalf" horiz-adv-x="969" d="M38 375H125V589L95 585Q61 581 44 581H32V650L193 750H243V375H334L328 281H38V375ZM329 0L517 750H657L470 0H329ZM619 84Q637 104 675 144Q740 212 772 257T805 347Q805 367 797 379T775
392Q755 392 743 358Q739 347 735 325L619 364Q631 414 676 449T788 484Q857 484 900 450T944 346Q944 241 773 94H921Q921 81 920 67T918 47Q914 19 914 0H619V84Z" />
<glyph unicode="&#xbe;" glyph-name="threequarters" horiz-adv-x="967" d="M128 258T82 286T21 368L126 399Q133 378 145 366T182 353Q204 353 218 368T232 404Q232 445 206 459T131 474V568Q175 568 200 581T225 629Q225 648 214 661T183 674Q164 674 151 653Q144
644 140 632L39 670Q68 721 104 743T194 765Q261 765 309 733T358 642Q358 563 267 527Q316 511 340 482T365 405Q365 337 314 298T188 258Q128 258 82 286ZM327 0L514 750H655L467 0H327ZM762 -23V94H572V176L744 469H883V181H944L937 94H883V-16L762 -23ZM662
181H762V347L662 181Z" />
<glyph unicode="&#xbf;" glyph-name="questiondown" horiz-adv-x="432" d="M209 608V749L350 755V608H209ZM155 -6T111 25T46 107T24 214Q24 272 38 309T74 366T130 409Q161 429 178 444T208 487T220 556V562H337Q339 544 339 514Q339 459 326 425T294 374T244
336Q217 319 202 306T177 270T166 209Q166 105 222 105Q250 105 260 131T275 202L408 196Q406 137 382 91T315 20T219 -6Q155 -6 111 25Z" />
<glyph unicode="&#xc0;" glyph-name="Agrave" horiz-adv-x="552" d="M12 0L170 741L379 750L541 6L381 0L354 161H175L143 0H12ZM202 281H327L258 640L202 281ZM273 793L92 945L195 1040L325 843L273 793Z" />
<glyph unicode="&#xc1;" glyph-name="Aacute" horiz-adv-x="552" d="M12 0L170 741L379 750L541 6L381 0L354 161H175L143 0H12ZM202 281H327L258 640L202 281ZM292 793L240 843L370 1040L473 945L292 793Z" />
<glyph unicode="&#xc2;" glyph-name="Acircumflex" horiz-adv-x="552" d="M12 0L170 741L379 750L541 6L381 0L354 161H175L143 0H12ZM202 281H327L258 640L202 281ZM112 797L229 1032H327L440 797H318L271 939L214 797H112Z" />
<glyph unicode="&#xc3;" glyph-name="Atilde" horiz-adv-x="552" d="M12 0L170 741L379 750L541 6L381 0L354 161H175L143 0H12ZM202 281H327L258 640L202 281ZM324 820T311 826T277 844Q258 857 244 863T213 869Q172 869 128 820L121 910Q146 937 169 953T219
969Q233 969 245 965T279 950Q298 940 311 935T340 930Q362 930 381 942T410 969L432 890Q432 887 419 869T386 836T340 820Q324 820 311 826Z" />
<glyph unicode="&#xc4;" glyph-name="Adieresis" horiz-adv-x="552" d="M12 0L170 741L379 750L541 6L381 0L354 161H175L143 0H12ZM202 281H327L258 640L202 281ZM88 816V957H229V816H88ZM322 816V957H463V816H322Z" />
<glyph unicode="&#xc5;" glyph-name="Aring" horiz-adv-x="552" d="M12 0L170 741L379 750L541 6L381 0L354 161H175L143 0H12ZM202 281H327L258 640L202 281ZM214 796T169 831T123 929Q123 992 168 1027T276 1062Q338 1062 383 1028T428 929Q428 887 407 857T350
811T276 796Q214 796 169 831ZM299 874T317 888T336 929Q336 954 318 968T275 983Q251 983 233 969T215 929Q215 904 233 889T275 874Q299 874 317 888Z" />
<glyph unicode="&#xc6;" glyph-name="AE" horiz-adv-x="771" d="M-3 0L319 741L419 750H739L728 633H539V454H663L662 328H539V117H747L735 0H375L383 161H220L156 0H-3ZM268 281H384L395 640L268 281Z" />
<glyph unicode="&#xc7;" glyph-name="Ccedilla" horiz-adv-x="522" d="M487 187T466 129T403 32T299 -13L293 -37Q364 -57 386 -96T408 -165Q408 -220 378 -245T302 -271Q271 -271 241 -263T190 -240V-160Q228 -177 260 -177Q284 -177 295 -167T307 -141Q307 -119
283 -101T214 -83L227 -9Q124 14 82 125T40 391Q40 483 64 568T141 708T277 764Q340 764 387 725T460 624T486 493L344 486Q344 531 329 588T269 646Q222 646 204 571T186 391Q186 261 206 183T283 104Q323 104 340 151T362 267L487 255Q487 187 466 129Z" />
<glyph unicode="&#xc8;" glyph-name="Egrave" horiz-adv-x="483" d="M70 0V750H451L439 633H217V454H375L374 328H217V117H459L447 0H70ZM239 793L58 945L161 1040L291 843L239 793Z" />
<glyph unicode="&#xc9;" glyph-name="Eacute" horiz-adv-x="483" d="M70 0V750H451L439 633H217V454H375L374 328H217V117H459L447 0H70ZM258 793L206 843L336 1040L439 945L258 793Z" />
<glyph unicode="&#xca;" glyph-name="Ecircumflex" horiz-adv-x="483" d="M70 0V750H451L439 633H217V454H375L374 328H217V117H459L447 0H70ZM78 797L195 1032H293L406 797H284L237 939L180 797H78Z" />
<glyph unicode="&#xcb;" glyph-name="Edieresis" horiz-adv-x="483" d="M70 0V750H451L439 633H217V454H375L374 328H217V117H459L447 0H70ZM54 816V957H195V816H54ZM288 816V957H429V816H288Z" />
<glyph unicode="&#xcc;" glyph-name="Igrave" horiz-adv-x="287" d="M70 -6V738L217 750V6L70 -6ZM141 793L-40 945L63 1040L193 843L141 793Z" />
<glyph unicode="&#xcd;" glyph-name="Iacute" horiz-adv-x="287" d="M70 -6V738L217 750V6L70 -6ZM160 793L108 843L238 1040L341 945L160 793Z" />
<glyph unicode="&#xce;" glyph-name="Icircumflex" horiz-adv-x="287" d="M70 -6V738L217 750V6L70 -6ZM-20 796L97 1031H195L308 796H186L139 938L82 796H-20Z" />
<glyph unicode="&#xcf;" glyph-name="Idieresis" horiz-adv-x="287" d="M70 -6V738L217 750V6L70 -6ZM-44 816V957H97V816H-44ZM190 816V957H331V816H190Z" />
<glyph unicode="&#xd0;" glyph-name="Eth" horiz-adv-x="556" d="M374 750T447 656T520 372Q520 271 493 187T405 52T251 0H72V328H2V422H72V750H226Q374 750 447 656ZM374 378Q374 447 366 500T327 593T235 633H218V422H284V328H218V117H239Q315 117 344 182T374
344V378Z" />
<glyph unicode="&#xd1;" glyph-name="Ntilde" horiz-adv-x="611" d="M420 -6L201 463V6L70 0V744L223 750L417 304V738L541 750V6L420 -6ZM354 788T341 794T307 812Q288 825 274 831T243 837Q202 837 158 788L151 878Q176 905 199 921T249 937Q263 937 275 933T309
918Q328 908 341 903T370 898Q392 898 411 910T440 937L462 858Q462 855 449 837T416 804T370 788Q354 788 341 794Z" />
<glyph unicode="&#xd2;" glyph-name="Ograve" horiz-adv-x="549" d="M145 -14T94 95T42 379Q42 564 97 664T274 764Q507 764 507 383Q507 212 455 99T272 -14Q145 -14 94 95ZM327 104T344 173T361 384Q361 497 345 571T274 646Q220 646 204 572T188 385Q188 243
204 174T274 104Q327 104 344 173ZM272 793L91 945L194 1040L324 843L272 793Z" />
<glyph unicode="&#xd3;" glyph-name="Oacute" horiz-adv-x="549" d="M145 -14T94 95T42 379Q42 564 97 664T274 764Q507 764 507 383Q507 212 455 99T272 -14Q145 -14 94 95ZM327 104T344 173T361 384Q361 497 345 571T274 646Q220 646 204 572T188 385Q188 243
204 174T274 104Q327 104 344 173ZM291 793L239 843L369 1040L472 945L291 793Z" />
<glyph unicode="&#xd4;" glyph-name="Ocircumflex" horiz-adv-x="549" d="M145 -14T94 95T42 379Q42 564 97 664T274 764Q507 764 507 383Q507 212 455 99T272 -14Q145 -14 94 95ZM327 104T344 173T361 384Q361 497 345 571T274 646Q220 646 204 572T188 385Q188
243 204 174T274 104Q327 104 344 173ZM111 797L228 1032H326L439 797H317L270 939L213 797H111Z" />
<glyph unicode="&#xd5;" glyph-name="Otilde" horiz-adv-x="549" d="M145 -14T94 95T42 379Q42 564 97 664T274 764Q507 764 507 383Q507 212 455 99T272 -14Q145 -14 94 95ZM327 104T344 173T361 384Q361 497 345 571T274 646Q220 646 204 572T188 385Q188 243
204 174T274 104Q327 104 344 173ZM323 820T310 826T276 844Q257 857 243 863T212 869Q171 869 127 820L120 910Q145 937 168 953T218 969Q232 969 244 965T278 950Q297 940 310 935T339 930Q361 930 380 942T409 969L431 890Q431 887 418 869T385 836T339 820Q323
820 310 826Z" />
<glyph unicode="&#xd6;" glyph-name="Odieresis" horiz-adv-x="549" d="M145 -14T94 95T42 379Q42 564 97 664T274 764Q507 764 507 383Q507 212 455 99T272 -14Q145 -14 94 95ZM327 104T344 173T361 384Q361 497 345 571T274 646Q220 646 204 572T188 385Q188
243 204 174T274 104Q327 104 344 173ZM87 816V957H228V816H87ZM321 816V957H462V816H321Z" />
<glyph unicode="&#xd7;" glyph-name="multiply" horiz-adv-x="418" d="M301 94L208 188L117 96L35 178L126 270L36 359L119 442L208 352L300 443L382 361L291 270L384 177L301 94Z" />
<glyph unicode="&#xd8;" glyph-name="Oslash" horiz-adv-x="551" d="M153 -16T96 94L61 52L14 97L69 163Q42 258 42 400Q42 572 99 669T274 766Q406 766 464 643L505 693L552 648L489 572Q508 491 508 400Q508 214 457 99T274 -16Q153 -16 96 94ZM356 512Q341
649 274 649Q221 649 205 576T188 400Q188 337 189 310L356 512ZM312 109T330 143T355 237T361 400V417L197 217Q205 163 223 136T274 109Q312 109 330 143Z" />
<glyph unicode="&#xd9;" glyph-name="Ugrave" horiz-adv-x="568" d="M176 -14T120 58T64 247V744L211 750V235Q211 196 215 169T238 123T293 104Q328 104 344 123T365 169T369 237V738L503 750V264Q503 158 462 72T288 -14Q176 -14 120 58ZM281 793L100 945L203
1040L333 843L281 793Z" />
<glyph unicode="&#xda;" glyph-name="Uacute" horiz-adv-x="568" d="M176 -14T120 58T64 247V744L211 750V235Q211 196 215 169T238 123T293 104Q328 104 344 123T365 169T369 237V738L503 750V264Q503 158 462 72T288 -14Q176 -14 120 58ZM300 793L248 843L378
1040L481 945L300 793Z" />
<glyph unicode="&#xdb;" glyph-name="Ucircumflex" horiz-adv-x="568" d="M176 -14T120 58T64 247V744L211 750V235Q211 196 215 169T238 123T293 104Q328 104 344 123T365 169T369 237V738L503 750V264Q503 158 462 72T288 -14Q176 -14 120 58ZM120 796L237 1031H335L448
796H326L279 938L222 796H120Z" />
<glyph unicode="&#xdc;" glyph-name="Udieresis" horiz-adv-x="568" d="M176 -14T120 58T64 247V744L211 750V235Q211 196 215 169T238 123T293 104Q328 104 344 123T365 169T369 237V738L503 750V264Q503 158 462 72T288 -14Q176 -14 120 58ZM96 816V957H237V816H96ZM330
816V957H471V816H330Z" />
<glyph unicode="&#xdd;" glyph-name="Yacute" horiz-adv-x="501" d="M179 -6V297L-1 750H160L263 438L374 750H500L327 314V6L179 -6ZM267 793L215 843L345 1040L448 945L267 793Z" />
<glyph unicode="&#xde;" glyph-name="Thorn" horiz-adv-x="528" d="M68 750H216V570Q304 569 366 555T470 492T512 350Q512 256 469 208T362 144T215 129V-33L68 -45V750ZM241 238Q299 238 332 262T366 351Q366 414 335 436T237 458H216V238H241Z" />
<glyph unicode="&#xdf;" glyph-name="germandbls" horiz-adv-x="571" d="M61 516Q61 663 128 714T279 766Q342 766 389 743T462 677T488 581Q488 536 468 497T397 425Q470 400 510 356T550 228Q550 108 470 57T264 1V103Q312 103 344 121T392 167T408 226Q408
258 391 290T343 342T269 363V444Q318 461 342 495T367 568Q367 603 346 630T285 657Q248 657 225 630T202 542V0L61 -12V516Z" />
<glyph unicode="&#xe0;" glyph-name="agrave" horiz-adv-x="471" d="M117 -13T88 9T43 70T27 157Q27 266 101 310T275 361Q275 415 268 441T234 467Q211 467 199 449T184 403L47 427Q57 504 110 537T234 570Q325 570 370 522T416 397V106Q416 59 431 6L294 -6L278
63Q260 31 225 9T153 -13Q117 -13 88 9ZM235 87T246 95T275 121V277Q225 277 195 250T165 166Q165 128 178 108T218 87Q235 87 246 95ZM261 605L80 757L183 852L313 655L261 605Z" />
<glyph unicode="&#xe1;" glyph-name="aacute" horiz-adv-x="471" d="M117 -13T88 9T43 70T27 157Q27 266 101 310T275 361Q275 415 268 441T234 467Q211 467 199 449T184 403L47 427Q57 504 110 537T234 570Q325 570 370 522T416 397V106Q416 59 431 6L294 -6L278
63Q260 31 225 9T153 -13Q117 -13 88 9ZM235 87T246 95T275 121V277Q225 277 195 250T165 166Q165 128 178 108T218 87Q235 87 246 95ZM260 605L208 655L338 852L441 757L260 605Z" />
<glyph unicode="&#xe2;" glyph-name="acircumflex" horiz-adv-x="471" d="M117 -13T88 9T43 70T27 157Q27 266 101 310T275 361Q275 415 268 441T234 467Q211 467 199 449T184 403L47 427Q57 504 110 537T234 570Q325 570 370 522T416 397V106Q416 59 431 6L294
-6L278 63Q260 31 225 9T153 -13Q117 -13 88 9ZM235 87T246 95T275 121V277Q225 277 195 250T165 166Q165 128 178 108T218 87Q235 87 246 95ZM80 609L197 844H295L408 609H286L239 751L182 609H80Z" />
<glyph unicode="&#xe3;" glyph-name="atilde" horiz-adv-x="471" d="M117 -13T88 9T43 70T27 157Q27 266 101 310T275 361Q275 415 268 441T234 467Q211 467 199 449T184 403L47 427Q57 504 110 537T234 570Q325 570 370 522T416 397V106Q416 59 431 6L294 -6L278
63Q260 31 225 9T153 -13Q117 -13 88 9ZM235 87T246 95T275 121V277Q225 277 195 250T165 166Q165 128 178 108T218 87Q235 87 246 95ZM292 601T279 607T245 625Q226 638 212 644T181 650Q140 650 96 601L89 691Q114 718 137 734T187 750Q201 750 213 746T247 731Q266
721 279 716T308 711Q330 711 349 723T378 750L400 671Q400 668 387 650T354 617T308 601Q292 601 279 607Z" />
<glyph unicode="&#xe4;" glyph-name="adieresis" horiz-adv-x="471" d="M117 -13T88 9T43 70T27 157Q27 266 101 310T275 361Q275 415 268 441T234 467Q211 467 199 449T184 403L47 427Q57 504 110 537T234 570Q325 570 370 522T416 397V106Q416 59 431 6L294
-6L278 63Q260 31 225 9T153 -13Q117 -13 88 9ZM235 87T246 95T275 121V277Q225 277 195 250T165 166Q165 128 178 108T218 87Q235 87 246 95ZM312 629V770H453V629H312ZM546 629V770H687V629H546Z" />
<glyph unicode="&#xe5;" glyph-name="aring" horiz-adv-x="471" d="M416 59T431 6L294 -6L278 63Q260 31 225 9T153 -13Q117 -13 88 9T43 70T27 157Q27 266 101 310T275 361Q275 415 268 441T234 467Q211 467 199 449T184 403L47 427Q57 506 118 542Q91 575 91
622Q91 685 136 720T244 755Q306 755 351 721T396 622Q396 567 359 532Q416 485 416 397V106Q416 59 431 6ZM183 602T194 589T224 570H234Q251 570 259 569Q278 574 291 587T304 622Q304 647 286 661T243 676Q219 676 201 662T183 622Q183 602 194 589ZM275 277Q225
277 195 250T165 166Q165 128 178 108T218 87Q235 87 246 95T275 121V277Z" />
<glyph unicode="&#xe6;" glyph-name="ae" horiz-adv-x="711" d="M111 -13T69 35T26 159Q26 266 101 310T274 361Q274 418 267 442T233 467Q191 467 183 403L46 427Q55 503 108 536T228 570Q272 570 301 554T353 504Q382 537 414 553T489 570Q583 570 633 496T683
287V262H415Q415 197 431 144T482 90Q522 90 541 134T561 182L667 142Q648 71 601 29T485 -13Q439 -13 407 7T348 70Q326 27 280 7T186 -13Q111 -13 69 35ZM549 343Q549 401 533 437T487 473Q456 473 437 437T415 343H549ZM246 87T260 120T274 187V277Q224 277
194 250T164 167Q164 130 177 109T214 87Q246 87 260 120Z" />
<glyph unicode="&#xe7;" glyph-name="ccedilla" horiz-adv-x="445" d="M402 99T367 46T253 -12L247 -37Q318 -57 340 -96T362 -165Q362 -220 332 -245T256 -271Q225 -271 195 -263T144 -240V-160Q182 -177 214 -177Q238 -177 249 -167T261 -141Q261 -119 237 -101T168
-83L182 -5Q111 18 73 96T34 276Q34 352 56 419T125 528T238 570Q289 570 329 545T393 473T418 368L285 362Q285 366 282 394T267 440T237 458Q197 458 186 404T175 281Q175 214 186 160T241 105Q295 105 297 211L415 198Q402 99 367 46Z" />
<glyph unicode="&#xe8;" glyph-name="egrave" horiz-adv-x="471" d="M140 -13T87 66T34 278Q34 412 88 491T245 570Q343 570 395 491T447 278Q447 270 444 267T441 262H174Q174 197 191 144T243 90Q282 90 301 135T321 182L427 142Q406 70 360 29T240 -13Q140
-13 87 66ZM309 343Q309 403 293 438T243 473Q226 473 210 456T184 409T174 343H309ZM253 605L72 757L175 852L305 655L253 605Z" />
<glyph unicode="&#xe9;" glyph-name="eacute" horiz-adv-x="471" d="M140 -13T87 66T34 278Q34 412 88 491T245 570Q343 570 395 491T447 278Q447 270 444 267T441 262H174Q174 197 191 144T243 90Q282 90 301 135T321 182L427 142Q406 70 360 29T240 -13Q140
-13 87 66ZM309 343Q309 403 293 438T243 473Q226 473 210 456T184 409T174 343H309ZM252 605L200 655L330 852L433 757L252 605Z" />
<glyph unicode="&#xea;" glyph-name="ecircumflex" horiz-adv-x="471" d="M140 -13T87 66T34 278Q34 412 88 491T245 570Q343 570 395 491T447 278Q447 270 444 267T441 262H174Q174 197 191 144T243 90Q282 90 301 135T321 182L427 142Q406 70 360 29T240 -13Q140
-13 87 66ZM309 343Q309 403 293 438T243 473Q226 473 210 456T184 409T174 343H309ZM72 609L189 844H287L400 609H278L231 751L174 609H72Z" />
<glyph unicode="&#xeb;" glyph-name="edieresis" horiz-adv-x="471" d="M330 637V778H471V637H330ZM564 637V778H705V637H564ZM140 -13T87 66T34 278Q34 412 88 491T245 570Q343 570 395 491T447 278Q447 270 444 267T441 262H174Q174 197 191 144T243 90Q282
90 301 135T321 182L427 142Q406 70 360 29T240 -13Q140 -13 87 66ZM309 343Q309 403 293 438T243 473Q226 473 210 456T184 409T174 343H309Z" />
<glyph unicode="&#xec;" glyph-name="igrave" horiz-adv-x="262" d="M61 -6V551L201 563V6L61 -6ZM148 605L-33 757L70 852L200 655L148 605Z" />
<glyph unicode="&#xed;" glyph-name="iacute" horiz-adv-x="262" d="M61 -6V551L201 563V6L61 -6ZM147 605L95 655L225 852L328 757L147 605Z" />
<glyph unicode="&#xee;" glyph-name="icircumflex" horiz-adv-x="262" d="M61 -6V551L201 563V6L61 -6ZM-33 609L84 844H182L295 609H173L126 751L69 609H-33Z" />
<glyph unicode="&#xef;" glyph-name="idieresis" horiz-adv-x="262" d="M61 -6V551L201 563V6L61 -6ZM-57 629V770H84V629H-57ZM177 629V770H318V629H177Z" />
<glyph unicode="&#xf0;" glyph-name="eth" horiz-adv-x="491" d="M419 579T440 503T462 362Q462 231 445 151T379 29T242 -13Q137 -13 87 57T36 281Q36 434 76 502T201 570Q221 570 244 559T289 528Q272 574 249 613L142 590L121 658L204 676Q181 704 149 732L299
750Q319 737 342 707L430 726L452 658L384 643Q419 579 440 503ZM269 87T286 102T312 171T322 343Q322 380 315 426Q288 467 250 467Q217 467 202 444T182 382T177 281Q177 194 191 141T236 87Q269 87 286 102Z" />
<glyph unicode="&#xf1;" glyph-name="ntilde" horiz-adv-x="539" d="M61 551L201 563V491Q244 529 285 549T362 570Q415 570 448 532T482 428V6L342 -6V375Q342 450 291 450Q274 450 254 440T201 411V6L61 -6V551ZM318 601T305 607T271 625Q252 638 238 644T207
650Q166 650 122 601L115 691Q140 718 163 734T213 750Q227 750 239 746T273 731Q292 721 305 716T334 711Q356 711 375 723T404 750L426 671Q426 668 413 650T380 617T334 601Q318 601 305 607Z" />
<glyph unicode="&#xf2;" glyph-name="ograve" horiz-adv-x="490" d="M143 -13T89 67T34 280Q34 412 88 491T244 570Q345 570 400 491T456 280Q456 148 401 68T244 -13Q143 -13 89 67ZM289 91T302 146T315 281Q315 361 302 416T244 471Q199 471 187 419T175 292Q175
200 187 146T244 91Q289 91 302 146ZM262 605L81 757L184 852L314 655L262 605Z" />
<glyph unicode="&#xf3;" glyph-name="oacute" horiz-adv-x="490" d="M143 -13T89 67T34 280Q34 412 88 491T244 570Q345 570 400 491T456 280Q456 148 401 68T244 -13Q143 -13 89 67ZM289 91T302 146T315 281Q315 361 302 416T244 471Q199 471 187 419T175 292Q175
200 187 146T244 91Q289 91 302 146ZM261 605L209 655L339 852L442 757L261 605Z" />
<glyph unicode="&#xf4;" glyph-name="ocircumflex" horiz-adv-x="490" d="M143 -13T89 67T34 280Q34 412 88 491T244 570Q345 570 400 491T456 280Q456 148 401 68T244 -13Q143 -13 89 67ZM289 91T302 146T315 281Q315 361 302 416T244 471Q199 471 187 419T175
292Q175 200 187 146T244 91Q289 91 302 146ZM81 609L198 844H296L409 609H287L240 751L183 609H81Z" />
<glyph unicode="&#xf5;" glyph-name="otilde" horiz-adv-x="490" d="M143 -13T89 67T34 280Q34 412 88 491T244 570Q345 570 400 491T456 280Q456 148 401 68T244 -13Q143 -13 89 67ZM289 91T302 146T315 281Q315 361 302 416T244 471Q199 471 187 419T175 292Q175
200 187 146T244 91Q289 91 302 146ZM293 601T280 607T246 625Q227 638 213 644T182 650Q141 650 97 601L90 691Q115 718 138 734T188 750Q202 750 214 746T248 731Q267 721 280 716T309 711Q331 711 350 723T379 750L401 671Q401 668 388 650T355 617T309 601Q293
601 280 607Z" />
<glyph unicode="&#xf6;" glyph-name="odieresis" horiz-adv-x="490" d="M143 -13T89 67T34 280Q34 412 88 491T244 570Q345 570 400 491T456 280Q456 148 401 68T244 -13Q143 -13 89 67ZM289 91T302 146T315 281Q315 361 302 416T244 471Q199 471 187 419T175
292Q175 200 187 146T244 91Q289 91 302 146ZM313 629V770H454V629H313ZM547 629V770H688V629H547Z" />
<glyph unicode="&#xf7;" glyph-name="divide" horiz-adv-x="389" d="M125 328V469H266V328H125ZM31 188V281H358V188H31ZM125 -6V141H266V0L125 -6Z" />
<glyph unicode="&#xf8;" glyph-name="oslash" horiz-adv-x="490" d="M434 426Q456 360 456 280Q456 148 401 68T244 -13Q170 -13 119 32L74 -25L-13 58L53 142Q34 200 34 280Q34 412 88 491T244 570Q312 570 361 533L402 585L490 502L434 426ZM199 471T187 419T175
292V285L294 435Q276 471 244 471Q199 471 187 419ZM289 91T302 146T315 281V291L192 134Q209 91 244 91Q289 91 302 146Z" />
<glyph unicode="&#xf9;" glyph-name="ugrave" horiz-adv-x="539" d="M127 -13T92 25T57 129V551L197 563V186Q197 146 210 129T250 111Q271 111 295 121T338 155V551L479 563V6L338 -6V66Q303 26 262 7T182 -13Q127 -13 92 25ZM287 605L106 757L209 852L339 655L287 605Z" />
<glyph unicode="&#xfa;" glyph-name="uacute" horiz-adv-x="539" d="M127 -13T92 25T57 129V551L197 563V186Q197 146 210 129T250 111Q271 111 295 121T338 155V551L479 563V6L338 -6V66Q303 26 262 7T182 -13Q127 -13 92 25ZM286 605L234 655L364 852L467 757L286 605Z" />
<glyph unicode="&#xfb;" glyph-name="ucircumflex" horiz-adv-x="539" d="M127 -13T92 25T57 129V551L197 563V186Q197 146 210 129T250 111Q271 111 295 121T338 155V551L479 563V6L338 -6V66Q303 26 262 7T182 -13Q127 -13 92 25ZM106 609L223 844H321L434 609H312L265
751L208 609H106Z" />
<glyph unicode="&#xfc;" glyph-name="udieresis" horiz-adv-x="539" d="M127 -13T92 25T57 129V551L197 563V186Q197 146 210 129T250 111Q271 111 295 121T338 155V551L479 563V6L338 -6V66Q303 26 262 7T182 -13Q127 -13 92 25ZM82 629V770H223V629H82ZM316
629V770H457V629H316Z" />
<glyph unicode="&#xfd;" glyph-name="yacute" horiz-adv-x="440" d="M50 -178T15 -172V-55Q52 -57 74 -57Q162 -57 162 25V53L1 556L153 563L232 210L307 560L434 561L290 10Q260 -98 203 -138T74 -178Q50 -178 15 -172ZM236 605L184 655L314 852L417 757L236 605Z" />
<glyph unicode="&#xfe;" glyph-name="thorn" horiz-adv-x="511" d="M61 732L201 750V508Q234 541 262 555T329 570Q383 570 414 541T460 451T474 287Q474 146 441 67T313 -13Q270 -13 245 3T201 48V-147L61 -175V732ZM297 94T315 133T333 280Q333 382 316 425T262
469Q226 469 201 430V139Q221 94 263 94Q297 94 315 133Z" />
<glyph unicode="&#xff;" glyph-name="ydieresis" horiz-adv-x="440" d="M50 -178T15 -172V-55Q52 -57 74 -57Q162 -57 162 25V53L1 556L153 563L232 210L307 560L434 561L290 10Q260 -98 203 -138T74 -178Q50 -178 15 -172ZM288 629V770H429V629H288ZM522 629V770H663V629H522Z"
/>
<glyph unicode="&#x2013;" glyph-name="endash" horiz-adv-x="393" d="M56 234V351H337V234H56Z" />
<glyph unicode="&#x2014;" glyph-name="emdash" horiz-adv-x="673" d="M56 234V351H618V234H56Z" />
<glyph unicode="&#x2018;" glyph-name="quoteleft" horiz-adv-x="256" d="M47 609Q47 695 118 732Q148 748 188 750V656Q145 656 126 633Q118 622 118 609H212V454L47 448V609Z" />
<glyph unicode="&#x2019;" glyph-name="quoteright" horiz-adv-x="224" d="M66 563Q96 563 107 586Q111 596 113 609L42 604V750H183V609Q183 561 167 531T125 486Q97 470 66 469V563Z" />
<glyph unicode="&#x201a;" glyph-name="quotesinglbase" horiz-adv-x="239" d="M72 -47Q101 -47 113 -23Q119 -14 119 0H49V141H189V0Q189 -48 173 -78T131 -123Q106 -138 72 -141V-47Z" />
<glyph unicode="&#x201c;" glyph-name="quotedblleft" horiz-adv-x="419" d="M47 609Q47 696 105 732Q132 749 164 750V656Q135 656 123 633Q119 623 117 609H188V469L47 463V609ZM234 609Q234 695 293 732Q318 748 352 750V656Q321 656 311 633Q305 623 305 609H375V469L234
463V609Z" />
<glyph unicode="&#x201d;" glyph-name="quotedblright" horiz-adv-x="411" d="M66 563Q96 563 107 586Q111 596 113 609L42 604V750H183V609Q183 561 167 531T125 486Q97 470 66 469V563ZM253 563Q284 563 294 586Q300 597 300 609L230 604V750H371V609Q371 561
354 531T312 486Q286 470 253 469V563Z" />
<glyph unicode="&#x201e;" glyph-name="quotedblbase" horiz-adv-x="426" d="M72 -47Q101 -47 113 -23Q119 -14 119 0H49V141H189V0Q189 -48 173 -78T131 -123Q106 -138 72 -141V-47ZM260 -47Q289 -47 301 -23Q305 -14 307 0H236V141H377V0Q377 -48 361 -78T318
-123Q292 -138 260 -141V-47Z" />
<glyph unicode="&#x2022;" glyph-name="bullet" horiz-adv-x="399" d="M122 188T79 233T35 352Q35 425 78 470T203 516Q279 516 321 470T364 352Q364 279 322 234T203 188Q122 188 79 233Z" />
<glyph unicode="&#x2039;" glyph-name="guilsinglleft" horiz-adv-x="391" d="M338 29L26 214V344L339 534L332 407L146 296L345 196L338 29Z" />
<glyph unicode="&#x203a;" glyph-name="guilsinglright" horiz-adv-x="391" d="M53 29L46 196L245 296L59 407L52 534L364 344V214L53 29Z" />
</font>
</defs>
</svg>
