<?xml version="1.0" standalone="no"?>
<!DOCTYPE svg PUBLIC "-//W3C//DTD SVG 1.1//EN" "http://www.w3.org/Graphics/SVG/1.1/DTD/svg11.dtd">
<svg xmlns="http://www.w3.org/2000/svg">
<defs >
<font id="Tinos" horiz-adv-x="1133" ><font-face
    font-family="Tinos"
    units-per-em="2048"
    panose-1="2 2 7 3 6 5 5 9 3 4"
    ascent="1825"
    descent="-443"
    alphabetic="0" />
<glyph unicode=" " glyph-name="space" horiz-adv-x="512" />
<glyph unicode="!" glyph-name="exclam" horiz-adv-x="797" d="M415 420H320L380 1341H679L415 420ZM322 -29Q253 -29 205 19T156 137Q156 206 204 254T322 303Q391 303 439 255T488 137Q488 68 440 20T322 -29Z" />
<glyph unicode="&quot;" glyph-name="quotedbl" horiz-adv-x="1137" d="M763 1341H1001L838 860H754L763 1341ZM377 1341H615L452 860H368L377 1341Z" />
<glyph unicode="#" glyph-name="numbersign" horiz-adv-x="1024" d="M713 411L565 0H414L562 411H300L154 0H0L148 411H-5L17 534H195L298 821H67L89 944H343L486 1341H638L494 944H756L900 1341H1051L907 944H1059L1037 821H863L762 534H987L965 411H713ZM449
821L346 534H608L712 821H449Z" />
<glyph unicode="$" glyph-name="dollar" horiz-adv-x="1024" d="M713 1354Q857 1346 982 1313L926 994H837L830 1190Q768 1236 693 1247L611 810Q756 728 810 678T897 566T929 423Q929 19 455 -16L429 -156H327L352 -20Q140 -17 -24 51L40 411H128L129 196Q161
149 220 116T371 81L468 596Q332 667 277 716T191 828T159 979Q159 1339 611 1355L635 1483H738L713 1354ZM685 346Q685 409 658 458T563 553L476 91Q573 113 629 181T685 346ZM399 1047Q399 982 432 937T517 856L592 1250Q499 1241 449 1188T399 1047Z" />
<glyph unicode="%" glyph-name="percent" horiz-adv-x="1706" d="M352 -20H202L1394 1362H1545L352 -20ZM801 1105Q801 1061 790 995Q724 623 401 623Q132 623 132 882Q132 1100 238 1231T528 1362Q662 1362 731 1298T801 1105ZM323 853Q323 716 405 716Q462 716
508 773T580 930T606 1115Q606 1190 586 1229T518 1268Q461 1268 417 1210T348 1045T323 853ZM1601 455Q1601 411 1590 345Q1524 -27 1201 -27Q932 -27 932 232Q932 450 1038 581T1328 712Q1462 712 1531 648T1601 455ZM1123 203Q1123 66 1205 66Q1262 66 1308
123T1380 280T1406 465Q1406 540 1386 579T1318 618Q1261 618 1217 560T1148 395T1123 203Z" />
<glyph unicode="&amp;" glyph-name="ampersand" horiz-adv-x="1593" d="M1099 1102Q1099 1020 1064 962T967 859T745 752L1057 401Q1168 572 1196 717L1080 743L1091 807H1568L1557 743L1432 717Q1386 608 1314 489T1161 282L1334 88L1456 63L1445 0H1081L980
120Q862 41 754 11T515 -20Q288 -20 169 73T50 347Q50 447 94 519T215 645T447 753Q361 889 361 1037Q361 1185 464 1273T747 1361Q857 1361 936 1329T1057 1237T1099 1102ZM517 658Q431 614 394 575T337 483T316 356Q316 242 379 175T547 108Q744 108 886 228L517
658ZM595 1071Q595 958 675 843Q792 897 835 954T879 1088Q879 1172 842 1218T747 1264Q673 1264 634 1212T595 1071Z" />
<glyph unicode="&apos;" glyph-name="quotesingle" horiz-adv-x="569" d="M291 1341H529L366 860H282L291 1341Z" />
<glyph unicode="(" glyph-name="parenleft" horiz-adv-x="682" d="M339 120Q339 -189 500 -332L478 -436Q282 -323 192 -166T101 218Q101 387 145 596T269 953T473 1211T805 1421L783 1297Q648 1207 553 1035T398 588T339 120Z" />
<glyph unicode=")" glyph-name="parenright" horiz-adv-x="682" d="M-153 -436L-132 -312Q1 -222 96 -54T253 393T314 870Q314 1176 155 1317L173 1421Q374 1303 462 1149T551 769Q551 604 507 396T383 37T180 -223T-153 -436Z" />
<glyph unicode="*" glyph-name="asterisk" horiz-adv-x="1024" d="M632 889L654 565L424 602L543 907L223 719L163 944L480 983L191 1120L317 1315L564 1040L545 1364L775 1328L653 1026L973 1205L1034 984L712 946L1007 812L880 619L632 889Z" />
<glyph unicode="+" glyph-name="plus" horiz-adv-x="1167" d="M672 608V203H529V608H125V751H529V1157H672V751H1077V608H672Z" />
<glyph unicode="," glyph-name="comma" horiz-adv-x="512" d="M343 106Q343 -51 244 -159T-44 -317V-225Q12 -210 53 -180T116 -111T138 -39Q138 -17 124 -1T68 42Q-3 85 -3 168Q-3 233 42 267T156 301Q240 301 291 247T343 106Z" />
<glyph unicode="-" glyph-name="hyphen" horiz-adv-x="682" d="M43 395L76 569H608L575 395H43Z" />
<glyph unicode="." glyph-name="period" horiz-adv-x="512" d="M181 -29Q112 -29 64 19T15 137Q15 206 63 254T181 303Q250 303 298 255T347 137Q347 68 299 20T181 -29Z" />
<glyph unicode="/" glyph-name="slash" horiz-adv-x="569" d="M16 -20H-124L586 1349H726L16 -20Z" />
<glyph unicode="0" glyph-name="zero" horiz-adv-x="1024" d="M988 951Q988 724 916 474T717 102T410 -20Q71 -20 71 399Q71 635 143 879T341 1242T643 1362Q988 1362 988 951ZM741 970Q741 1108 714 1179T617 1251Q531 1251 471 1138T363 770T316 367Q316 90
435 90Q504 90 556 158T646 362T710 679T741 970Z" />
<glyph unicode="1" glyph-name="one" horiz-adv-x="1024" d="M578 110L817 86L802 0H48L63 86L309 110L486 1116L233 1045L248 1130L665 1352H797L578 110Z" />
<glyph unicode="2" glyph-name="two" horiz-adv-x="1024" d="M825 0H-25L8 189Q395 488 548 684T701 1049Q701 1157 651 1205T520 1254Q431 1254 361 1202L284 1008H197L251 1313Q335 1331 413 1343T582 1356Q769 1356 873 1279T977 1067Q977 969 938 876T824
694T620 503T192 206H864L825 0Z" />
<glyph unicode="3" glyph-name="three" horiz-adv-x="1024" d="M347 -20Q116 -20 -16 20L29 345H121L135 130Q154 114 217 98T336 81Q474 81 551 160T628 394Q628 509 579 565T432 633L317 640L339 761L452 769Q691 784 691 1051Q691 1152 643 1203T510 1254Q420
1254 354 1202L277 1008H190L244 1313Q346 1339 416 1347T574 1356Q760 1356 864 1279T969 1065Q969 911 883 819T631 702Q762 681 834 599T906 397Q906 200 755 90T347 -20Z" />
<glyph unicode="4" glyph-name="four" horiz-adv-x="1024" d="M772 275L725 0H476L523 275H-32L-4 428L759 1348H962L805 460H962L929 275H772ZM681 1077L171 460H556L625 846Q638 915 681 1077Z" />
<glyph unicode="5" glyph-name="five" horiz-adv-x="1024" d="M516 798Q709 798 811 708T913 450Q913 226 764 103T340 -20Q265 -20 204 -14T23 20L68 345H160L174 130Q202 107 252 94T354 81Q490 81 564 175T639 445Q639 687 442 687Q402 687 348 677T250 648H157L279
1341H971L935 1138H369L306 773Q396 798 516 798Z" />
<glyph unicode="6" glyph-name="six" horiz-adv-x="1024" d="M459 -20Q271 -20 171 102T70 446Q70 687 160 897T405 1232T742 1356Q887 1356 1024 1313L970 1008H883L874 1202Q810 1254 733 1254Q605 1254 506 1117T360 742Q498 815 624 815Q777 815 860 728T944
483Q944 339 885 224T715 44T459 -20ZM329 415Q329 249 368 165T482 81Q570 81 623 185T677 459Q677 579 631 634T513 690Q442 690 344 649Q329 535 329 415Z" />
<glyph unicode="7" glyph-name="seven" horiz-adv-x="1024" d="M254 958H167L235 1341H1092L1078 1262L345 0H86L860 1138H331L254 958Z" />
<glyph unicode="8" glyph-name="eight" horiz-adv-x="1024" d="M993 1085Q993 944 926 845T741 711Q824 681 871 612T919 440Q919 -20 419 -20Q234 -20 136 70T37 321Q37 477 117 578T337 711Q273 745 234 818T195 980Q195 1167 311 1264T649 1362Q818 1362 905
1291T993 1085ZM447 914Q447 766 553 766Q638 766 689 860T740 1109Q740 1261 625 1261Q540 1261 494 1171T447 914ZM289 272Q289 83 443 83Q553 83 609 183T666 471Q666 654 513 654Q404 654 347 552T289 272Z" />
<glyph unicode="9" glyph-name="nine" horiz-adv-x="1024" d="M588 1355Q769 1355 878 1227T988 880Q988 634 901 427T660 100T326 -20Q165 -20 30 23L84 328H171L180 134Q245 82 339 82Q464 82 560 213T703 584Q572 521 443 521Q287 521 201 614T114 872Q114
1008 173 1119T341 1292T588 1355ZM730 883Q730 1056 689 1155T576 1255Q488 1255 434 1150T379 872Q379 758 420 702T535 646Q612 646 718 685Q730 782 730 883Z" />
<glyph unicode=":" glyph-name="colon" horiz-adv-x="682" d="M374 628Q304 628 257 676T209 794Q209 864 255 912T374 960Q445 960 492 912T540 794Q540 725 492 677T374 628ZM235 -29Q166 -29 118 19T69 137Q69 206 117 254T235 303Q304 303 352 255T401 137Q401
68 353 20T235 -29Z" />
<glyph unicode=";" glyph-name="semicolon" horiz-adv-x="682" d="M413 106Q413 -51 314 -159T26 -317V-225Q82 -210 123 -180T186 -111T208 -39Q208 -17 194 -1T138 42Q67 85 67 168Q67 233 112 267T226 301Q310 301 361 247T413 106ZM382 628Q312 628 265 676T217
794Q217 864 263 912T382 960Q453 960 500 912T548 794Q548 725 500 677T382 628Z" />
<glyph unicode="&lt;" glyph-name="less" horiz-adv-x="1167" d="M101 635V725L1053 1193V1050L286 680L1053 309V166L101 635Z" />
<glyph unicode="=" glyph-name="equal" horiz-adv-x="1167" d="M1070 547V403H118V547H1070ZM1070 956V813H118V956H1070Z" />
<glyph unicode="&gt;" glyph-name="greater" horiz-adv-x="1167" d="M153 166V309L921 680L153 1050V1193L1105 725V635L153 166Z" />
<glyph unicode="?" glyph-name="question" horiz-adv-x="1024" d="M950 1043Q950 872 860 769T578 614L497 592L434 390H331L329 703L436 726Q680 777 680 1051Q680 1254 491 1254Q453 1254 412 1241T344 1207L279 1013H190L230 1308Q388 1356 542 1356Q737 1356
843 1276T950 1043ZM350 -29Q280 -29 233 19T185 137Q185 207 232 255T350 303Q419 303 467 255T516 137Q516 68 468 20T350 -29Z" />
<glyph unicode="@" glyph-name="at" horiz-adv-x="1704" d="M972 1364Q1295 1364 1472 1204T1649 752Q1649 552 1561 384T1329 120T1020 25Q953 25 907 62T853 156Q784 99 709 62T580 25Q495 25 445 89T394 267Q394 413 444 534T593 746T798 881T1085 924Q1172
924 1268 913L1147 379Q1117 253 1117 223Q1117 169 1169 169Q1245 169 1310 243T1415 458T1455 750Q1455 989 1325 1121T964 1253Q754 1253 591 1140T335 823T242 365Q242 179 314 34T524 -193T846 -274Q951 -274 1040 -255T1206 -202T1379 -97L1431 -173Q1289
-287 1140 -338T815 -389Q587 -389 413 -295T143 -28T48 362Q48 647 168 877T501 1235T972 1364ZM644 320Q644 254 664 222T712 189Q779 189 856 253L983 805L928 810Q823 810 760 744Q716 688 680 561T644 320Z" />
<glyph unicode="A" glyph-name="A" horiz-adv-x="1366" d="M302 73L288 0H-106L-92 73L11 100L679 1352H919L1173 100L1282 73L1268 0H719L733 73L871 100L810 447H338L154 100L302 73ZM689 1118L394 557H790L689 1118Z" />
<glyph unicode="B" glyph-name="B" horiz-adv-x="1366" d="M677 764Q993 764 993 1035Q993 1130 933 1180T755 1231H666L583 764H677ZM654 104Q823 104 902 177T981 405Q981 527 905 590T678 654H564L468 110Q573 104 654 104ZM648 -6L303 0H-19L-7 73L171 100L372
1242L204 1268L218 1341H804Q1290 1341 1290 1048Q1290 907 1202 823T953 716Q1105 703 1191 620T1278 404Q1278 195 1121 95T648 -6Z" />
<glyph unicode="C" glyph-name="C" horiz-adv-x="1366" d="M670 -20Q385 -20 228 127T70 531Q70 777 174 964T471 1254T912 1356Q1138 1356 1385 1304L1332 967H1248V1161Q1194 1204 1118 1227T957 1251Q792 1251 661 1159T456 900T383 522Q383 315 475 199T734
83Q832 83 931 111T1091 184L1168 404H1253L1187 64Q1074 27 937 4T670 -20Z" />
<glyph unicode="D" glyph-name="D" horiz-adv-x="1479" d="M1120 774Q1120 1231 705 1231H668L471 114Q556 106 595 106Q839 106 979 285T1120 774ZM742 1341Q1079 1341 1255 1198T1431 788Q1431 549 1330 369T1039 92T599 -4L180 0H-15L-3 73L174 100L375 1242L208
1268L221 1341H742Z" />
<glyph unicode="E" glyph-name="E" horiz-adv-x="1366" d="M375 1242L208 1268L221 1341H1273L1213 1000H1122L1128 1217Q1019 1231 807 1231H669L582 739H863L920 887H1009L936 475H847L843 627H562L471 110H654Q907 110 992 126L1095 374H1186L1102 0H-15L-3
73L174 100L375 1242Z" />
<glyph unicode="F" glyph-name="F" horiz-adv-x="1366" d="M556 592L469 100L687 73L675 0H-2L10 73L174 100L375 1242L208 1268L221 1341H1332L1268 980H1174L1184 1217Q1135 1224 1008 1227T807 1231H669L576 702H939L1000 872H1089L1009 420H920L919 592H556Z" />
<glyph unicode="G" glyph-name="G" horiz-adv-x="1479" d="M70 523Q70 774 176 963T478 1254T924 1356Q1170 1356 1399 1294L1344 986H1260L1261 1160Q1141 1251 941 1251Q782 1251 653 1158T453 894T381 503Q381 305 466 194T708 83Q838 83 945 126L1013 506L846
538L858 606H1456L1444 538L1308 506L1231 70Q1083 24 949 2T662 -20Q381 -20 226 124T70 523Z" />
<glyph unicode="H" glyph-name="H" horiz-adv-x="1593" d="M-15 0L-2 74L174 100L375 1241L208 1268L221 1341H860L847 1268L670 1241L583 745H1071L1158 1241L991 1268L1004 1341H1645L1632 1268L1454 1241L1253 100L1421 74L1408 0H767L780 74L957 100L1051
635H563L469 100L636 74L623 0H-15Z" />
<glyph unicode="I" glyph-name="I" horiz-adv-x="797" d="M464 100L631 74L618 0H-20L-7 74L169 100L370 1241L203 1268L216 1341H855L842 1268L665 1241L464 100Z" />
<glyph unicode="J" glyph-name="J" horiz-adv-x="1024" d="M613 1242L446 1268L459 1341H1078L1065 1268L908 1242L766 432Q728 216 595 98T244 -20Q92 -20 -4 10L50 314H133L137 135Q169 86 250 86Q324 86 376 137T443 276L613 1242Z" />
<glyph unicode="K" glyph-name="K" horiz-adv-x="1366" d="M469 100L647 73L635 0H-15L-3 73L174 100L375 1242L208 1268L221 1341H850L837 1268L670 1242L579 718L1155 1242L1042 1268L1055 1341H1480L1467 1268L1328 1242L855 813L1208 100L1342 73L1330 0H944L648
636L555 591L469 100Z" />
<glyph unicode="L" glyph-name="L" horiz-adv-x="1251" d="M470 106H583Q679 106 799 112T958 126L1075 405H1159L1070 0H-15L-3 73L174 100L375 1242L209 1268L222 1341H885L872 1268L670 1242L470 106Z" />
<glyph unicode="M" glyph-name="M" horiz-adv-x="1821" d="M740 0H695L474 1158L287 100L462 73L450 0H-27L-15 73L162 100L363 1242L196 1268L209 1341H702L867 467L1343 1341H1878L1865 1268L1688 1242L1487 100L1654 73L1642 0H985L997 73L1192 100L1379 1158L740 0Z" />
<glyph unicode="N" glyph-name="N" horiz-adv-x="1479" d="M1225 1242L1050 1268L1063 1341H1540L1527 1268L1350 1242L1132 0H1017L476 1112L295 100L470 73L458 0H-19L-7 73L170 100L371 1242L204 1268L217 1341H650L1085 447L1225 1242Z" />
<glyph unicode="O" glyph-name="O" horiz-adv-x="1479" d="M1120 843Q1120 1033 1044 1142T832 1251Q710 1251 608 1151T440 862T375 485Q375 297 449 190T657 83Q782 83 885 182T1054 467T1120 843ZM639 -20Q473 -20 345 48T145 241T74 524Q74 766 172 957T447
1252T856 1356Q1022 1356 1150 1288T1350 1095T1421 812Q1421 572 1321 376T1046 80T639 -20Z" />
<glyph unicode="P" glyph-name="P" horiz-adv-x="1251" d="M643 636Q796 636 883 728T971 980Q971 1100 913 1165T738 1230H669L564 636H643ZM544 526L468 100L687 73L676 0H-1L10 73L172 100L374 1242L206 1268L218 1341H749Q1003 1341 1133 1251T1264 983Q1264
766 1115 646T687 526H544Z" />
<glyph unicode="Q" glyph-name="Q" horiz-adv-x="1479" d="M1421 812Q1421 627 1360 465T1184 187T910 20L942 -29Q1058 -213 1166 -213Q1187 -213 1255 -205L1268 -283Q1224 -301 1142 -316T1007 -332Q919 -332 856 -308T740 -230T593 -18Q439 -9 321 62T138
254T74 524Q74 766 172 957T447 1252T856 1356Q1022 1356 1150 1288T1350 1095T1421 812ZM1120 843Q1120 1033 1044 1142T832 1251Q710 1251 608 1151T440 862T375 485Q375 297 449 190T657 83Q782 83 885 182T1054 467T1120 843Z" />
<glyph unicode="R" glyph-name="R" horiz-adv-x="1366" d="M552 568L469 100L636 73L624 0H-3L9 73L173 100L374 1242L207 1268L220 1341H755Q1017 1341 1143 1258T1269 1003Q1269 847 1185 743T940 596L1141 100L1288 73L1276 0H876L668 568H552ZM626 678Q790
678 883 759T976 987Q976 1117 916 1174T738 1231H669L571 678H626Z" />
<glyph unicode="S" glyph-name="S" horiz-adv-x="1139" d="M432 -20Q215 -20 37 51L101 411H189L190 196Q224 147 296 114T449 81Q595 81 674 142T753 311Q753 365 729 405T666 477T576 538T474 596T371 660T282 740T218 843T194 979Q194 1163 327 1259T717 1356Q888
1356 1053 1313L997 994H908L901 1190Q820 1252 690 1252Q577 1252 513 1203T448 1069Q448 1009 491 959T627 857Q761 782 820 743T921 658T986 556T1011 423Q1011 207 863 94T432 -20Z" />
<glyph unicode="T" glyph-name="T" horiz-adv-x="1251" d="M167 0L179 73L397 100L597 1235H536Q480 1235 411 1228T311 1215L236 966H149L215 1341H1318L1252 966H1164L1177 1215Q1149 1221 1075 1227T952 1233H893L693 100L901 73L889 0H167Z" />
<glyph unicode="U" glyph-name="U" horiz-adv-x="1479" d="M167 1268L180 1341H799L786 1268L609 1242L496 586Q473 456 473 389Q473 122 740 122Q901 122 1003 209T1136 463L1273 1242L1098 1268L1111 1341H1567L1554 1268L1397 1242L1262 471Q1217 218 1075
100T689 -19Q445 -19 313 89T180 399Q180 463 200 583L314 1242L167 1268Z" />
<glyph unicode="V" glyph-name="V" horiz-adv-x="1366" d="M1505 1341L1493 1268L1361 1241L639 -31H526L225 1241L120 1268L132 1341H679L667 1268L523 1241L725 362L1212 1241L1082 1268L1094 1341H1505Z" />
<glyph unicode="W" glyph-name="W" horiz-adv-x="1821" d="M1214 -31H1120L962 817L560 -31H459L271 1242L141 1268L154 1341H718L705 1268L543 1242L649 428L1046 1257H1146L1298 423L1660 1242L1496 1268L1509 1341H1941L1928 1268L1806 1242L1214 -31Z" />
<glyph unicode="X" glyph-name="X" horiz-adv-x="1366" d="M257 100L408 73L396 0H-52L-40 73L113 100L574 635L336 1242L190 1268L203 1341H816L803 1268L638 1242L781 875L1097 1242L946 1268L959 1341H1408L1395 1268L1242 1242L826 760L1085 100L1232 73L1220
0H607L619 73L784 100L619 520L257 100Z" />
<glyph unicode="Y" glyph-name="Y" horiz-adv-x="1251" d="M702 100L910 73L898 0H176L188 73L406 100L485 542L251 1242L105 1268L118 1341H754L741 1268L556 1242L734 686L1098 1242L939 1268L952 1341H1408L1395 1268L1248 1242L782 548L702 100Z" />
<glyph unicode="Z" glyph-name="Z" horiz-adv-x="1251" d="M841 1235H649Q550 1235 469 1229T356 1215L288 1004H199L258 1341H1199L1180 1235L357 104H544Q653 104 771 115T934 137L1038 393H1128L1032 0H-5L15 114L841 1235Z" />
<glyph unicode="[" glyph-name="bracketleft" horiz-adv-x="682" d="M51 -274L350 1421H786L774 1354L564 1313L303 -166L499 -207L487 -274H51Z" />
<glyph unicode="\" glyph-name="backslash" horiz-adv-x="569" d="M339 -20L130 1349H257L469 -20H339Z" />
<glyph unicode="]" glyph-name="bracketright" horiz-adv-x="682" d="M-106 -274L-94 -207L116 -166L377 1313L181 1354L193 1421H629L330 -274H-106Z" />
<glyph unicode="^" glyph-name="asciicircum" horiz-adv-x="1167" d="M934 389L604 1150L274 389H131L559 1341H649L1077 389H934Z" />
<glyph unicode="_" glyph-name="underscore" horiz-adv-x="1024" d="M-153 -285V-141H903V-285H-153Z" />
<glyph unicode="`" glyph-name="grave" horiz-adv-x="682" d="M547 1118L230 1386L237 1423H502L639 1150L633 1118H547Z" />
<glyph unicode="a" glyph-name="a" horiz-adv-x="1024" d="M823 90L932 58L924 0H577L573 138Q514 64 440 22T288 -21Q163 -21 94 69T24 319Q24 494 97 643T300 878T588 964Q726 964 839 919L921 956H975L823 90ZM287 351Q287 248 321 188T408 127Q448 127 497
167T585 266L684 829Q639 863 560 863Q486 863 423 793T324 602T287 351Z" />
<glyph unicode="b" glyph-name="b" horiz-adv-x="1024" d="M700 587Q700 692 667 752T579 813Q543 813 496 775T405 674L308 124Q328 105 367 91T437 76Q506 76 567 148T664 340T700 587ZM449 -23Q340 -23 227 -5T27 48L254 1333L162 1356L173 1421H538L462 991Q443
874 420 797Q481 878 553 921T701 965Q821 965 892 876T963 631Q963 455 895 302T710 63T449 -23Z" />
<glyph unicode="c" glyph-name="c" horiz-adv-x="909" d="M391 -20Q219 -20 125 73T30 330Q30 515 103 660T306 885T585 965Q657 965 741 952T879 920L830 632H758L744 803Q690 863 598 863Q519 863 449 793T338 602T298 340Q298 228 342 166T471 104Q546 104
607 131T726 198L770 135Q688 62 588 21T391 -20Z" />
<glyph unicode="d" glyph-name="d" horiz-adv-x="1024" d="M276 -20Q162 -20 93 68T24 310Q24 487 88 638T269 876T528 964Q637 964 702 936L705 966L716 1060L762 1332L602 1356L614 1421H1049L812 85L911 60L899 0H567L560 144Q501 65 425 23T276 -20ZM287 354Q287
246 315 187T390 128Q428 128 481 168T577 267L674 817Q654 837 613 851T540 865Q472 865 414 794T321 602T287 354Z" />
<glyph unicode="e" glyph-name="e" horiz-adv-x="909" d="M864 760Q864 670 798 594T608 469T325 408Q320 388 320 340Q320 104 501 104Q575 104 638 132T756 198L800 135Q712 61 609 21T411 -20Q234 -20 141 69T48 330Q48 502 121 649T314 880T563 965Q701 965
782 910T864 760ZM341 508Q463 521 541 596T620 773Q620 815 600 836T551 857Q482 857 423 755T341 508Z" />
<glyph unicode="f" glyph-name="f" horiz-adv-x="682" d="M222 836H60L72 905L241 944L264 1066Q301 1264 408 1353T693 1442Q784 1442 852 1421L813 1199H749L737 1311Q716 1332 681 1332Q628 1332 595 1279T538 1098L509 940H715L697 836H491L269 -436H0L222 836Z" />
<glyph unicode="g" glyph-name="g" horiz-adv-x="1024" d="M292 355Q292 249 324 189T407 129Q442 129 489 164T582 259L689 841Q630 866 560 866Q486 866 425 797T328 606T292 355ZM29 311Q29 490 97 643T284 880T555 965Q718 965 970 923L798 -35Q760 -242 637
-339T294 -436Q201 -436 109 -416T-38 -365L-16 -112H40L76 -243Q112 -280 169 -303T295 -327Q362 -327 407 -302T479 -228T525 -75Q549 72 572 145Q511 66 436 22T288 -23Q171 -23 100 67T29 311Z" />
<glyph unicode="h" glyph-name="h" horiz-adv-x="1139" d="M436 769Q590 965 818 965Q915 965 974 912T1033 766Q1033 714 1016 621L921 90L1037 66L1024 0H638L740 569Q762 685 762 725Q762 822 671 822Q608 822 529 752T412 594L306 0H40L274 1331L183 1355L194
1421H559L475 958L443 798L436 769Z" />
<glyph unicode="i" glyph-name="i" horiz-adv-x="569" d="M337 90L456 66L445 0H52L202 850L111 874L122 940H487L337 90ZM253 1268Q253 1333 298 1377T407 1421Q471 1421 515 1377T560 1268Q560 1205 516 1160T407 1114Q343 1114 298 1158T253 1268Z" />
<glyph unicode="j" glyph-name="j" horiz-adv-x="569" d="M-100 -436Q-189 -436 -268 -418L-229 -193H-166L-142 -311Q-122 -326 -97 -326Q-45 -326 -7 -259T53 -71L214 840L54 874L65 940H500L328 -39Q293 -235 185 -335T-100 -436ZM268 1268Q268 1333 313 1377T422
1421Q486 1421 530 1377T575 1268Q575 1205 531 1160T422 1114Q358 1114 313 1158T268 1268Z" />
<glyph unicode="k" glyph-name="k" horiz-adv-x="1024" d="M388 507L739 851L653 874L664 940H1008L997 874L905 852L662 628L884 90L964 66L953 0H639L473 453L365 383L297 0H28L263 1331L171 1355L183 1421H548L388 507Z" />
<glyph unicode="l" glyph-name="l" horiz-adv-x="569" d="M330 90L449 66L438 0H45L281 1331L190 1355L201 1421H566L330 90Z" />
<glyph unicode="m" glyph-name="m" horiz-adv-x="1593" d="M1220 725Q1220 822 1148 822Q1113 822 1066 782T981 680T933 563L834 0H567L669 569Q691 685 691 725Q691 822 617 822Q569 822 508 756T411 594L305 0H39L187 849L98 874L111 940H439L436 772Q508 870
589 917T770 965Q859 965 909 913T961 767Q1102 965 1299 965Q1387 965 1439 910T1491 754Q1491 717 1474 622L1379 90L1495 66L1482 0H1096L1198 569Q1220 685 1220 725Z" />
<glyph unicode="n" glyph-name="n" horiz-adv-x="1139" d="M764 725Q764 822 673 822Q610 822 531 752T414 594L308 0H42L190 849L101 874L114 940H448L440 765Q595 965 820 965Q919 965 977 912T1035 763Q1035 711 1010 580L923 90L1039 66L1026 0H640L742 569Q764
685 764 725Z" />
<glyph unicode="o" glyph-name="o" horiz-adv-x="1024" d="M683 625Q683 866 558 866Q495 866 434 790T335 586T297 319Q297 204 334 142T429 79Q493 79 553 153T648 353T683 625ZM406 -20Q236 -20 134 87T32 374Q32 536 102 672T297 886T580 965Q750 965 852
858T954 571Q954 409 884 273T689 59T406 -20Z" />
<glyph unicode="p" glyph-name="p" horiz-adv-x="1024" d="M962 631Q962 453 897 304T714 67T449 -20Q363 -20 294 13L292 -16L280 -111L242 -347L402 -371L390 -436H-146L-134 -371L-30 -347L184 855L85 880L97 940H442L436 802Q561 965 703 965Q820 965 891
875T962 631ZM699 587Q699 692 669 752T588 813Q520 813 420 680L322 127Q346 103 379 91T438 79Q510 79 570 149T665 339T699 587Z" />
<glyph unicode="q" glyph-name="q" horiz-adv-x="1024" d="M289 355Q289 249 321 189T403 129Q437 129 489 168T586 268L691 841Q632 866 554 866Q442 866 366 714T289 355ZM540 965Q753 965 972 923L743 -348L835 -371L824 -436H459L532 -49Q551 68 574 145Q517
69 437 23T284 -23Q166 -23 96 67T26 311Q26 492 90 642T272 879T540 965Z" />
<glyph unicode="r" glyph-name="r" horiz-adv-x="797" d="M438 738Q493 845 571 905T729 965Q777 965 812 955L754 618H699L655 755Q580 755 524 717T416 596L311 0H42L192 850L75 874L86 940H461L438 738Z" />
<glyph unicode="s" glyph-name="s" horiz-adv-x="797" d="M693 297Q693 145 591 63T286 -20Q209 -20 121 -3T-11 34L35 295H101L116 163Q180 73 293 73Q375 73 424 116T473 225Q473 264 447 296T364 361L298 399Q187 461 141 528T95 680Q95 965 472 965Q590 965
734 933L691 692H625L612 802Q591 828 550 849T458 871Q382 871 347 837T311 748Q311 709 340 675T470 585Q565 532 606 494T670 408T693 297Z" />
<glyph unicode="t" glyph-name="t" horiz-adv-x="569" d="M428 106Q462 106 538 132L564 62Q515 27 440 4T296 -20Q186 -20 127 32T67 185Q67 231 85 329L177 836H62L73 901L215 940L354 1153H500L462 940H620L602 836H444L353 327Q337 245 337 207Q337 154 363
130T428 106Z" />
<glyph unicode="u" glyph-name="u" horiz-adv-x="1139" d="M350 216Q350 119 441 119Q505 119 585 190T700 347L806 940H1072L924 91L1033 66L1020 0H666L674 176Q519 -24 294 -24Q193 -24 136 30T79 187Q79 206 85 252T191 850L75 874L88 940H474L372 372Q350
257 350 216Z" />
<glyph unicode="v" glyph-name="v" horiz-adv-x="909" d="M330 941L479 287L682 601Q714 651 731 700T748 781Q748 807 740 823T717 851T658 875L670 940H901Q927 917 927 877Q927 785 844 657L407 -20H284L80 851L19 875L30 941H330Z" />
<glyph unicode="w" glyph-name="w" horiz-adv-x="1366" d="M1185 775Q1185 845 1121 865L1085 875L1097 940H1342Q1373 916 1373 859Q1373 770 1306 657L904 -20H785L682 518L386 -20H253L82 850L2 874L13 940H317L443 282L752 846H852L964 282L1129 580Q1149
617 1167 677T1185 775Z" />
<glyph unicode="x" glyph-name="x" horiz-adv-x="1024" d="M439 374L274 236Q238 205 219 184T191 146T182 104Q182 74 224 65L212 0H-9Q-25 13 -25 43Q-25 78 7 119T112 221L396 460L194 850L108 875L119 940H418L583 615L685 700Q734 740 758 772T783 836Q783
865 728 875L740 940H953Q974 924 974 897Q974 822 836 707L628 533L856 86L942 65L931 0H629L439 374Z" />
<glyph unicode="y" glyph-name="y" horiz-adv-x="909" d="M915 877Q915 787 834 657L395 -59Q299 -216 234 -290T100 -403T-44 -442Q-95 -442 -125 -439T-205 -423L-163 -181H-103L-83 -307Q-58 -330 -13 -330Q47 -330 118 -261T300 -5L86 850L25 874L36 940H339L491
301L672 601Q699 645 717 697T736 781Q736 807 728 823T705 851T646 875L658 940H889Q915 917 915 877Z" />
<glyph unicode="z" glyph-name="z" horiz-adv-x="797" d="M-58 0L-50 50L466 850H396Q342 850 290 841T212 815L152 660H80L129 940H789L780 886L264 90H347Q403 90 465 103T559 137L641 315H713L639 0H-58Z" />
<glyph unicode="{" glyph-name="braceleft" horiz-adv-x="713" d="M402 -274Q280 -274 215 -213T150 -38Q150 2 157 40L205 315Q211 348 211 376Q211 458 164 494T28 533L43 618Q146 621 211 670T297 834L352 1148Q377 1289 461 1355T701 1421H836L821 1334H759Q690
1334 650 1300T594 1179L530 819Q513 723 446 655T283 568V565Q358 548 401 497T445 365L440 312L387 8Q381 -25 381 -53Q381 -114 407 -150T491 -187H553L537 -274H402Z" />
<glyph unicode="|" glyph-name="bar" horiz-adv-x="451" d="M139 -442V1421H282V-442H139Z" />
<glyph unicode="}" glyph-name="braceright" horiz-adv-x="713" d="M-120 -274L-104 -187H-42Q27 -187 67 -153T122 -32L187 332Q204 430 270 497T434 585V588Q362 604 317 656T272 788L277 839L329 1139Q335 1172 335 1201Q335 1262 309 1298T226 1334H164L179
1421H314Q444 1421 505 1359T567 1190Q567 1152 559 1108L512 834Q506 801 506 773Q506 622 688 618L673 533Q562 529 501 476T420 315L364 0Q340 -136 255 -205T15 -274H-120Z" />
<glyph unicode="~" glyph-name="asciitilde" horiz-adv-x="1167" d="M831 481Q774 481 713 510T578 602Q492 674 451 698T376 723Q305 723 273 668T227 481H86Q101 630 134 706T225 824T376 866Q434 866 499 836T677 709Q773 624 831 624Q897 624 930 681T978
866H1122Q1102 715 1068 640T977 523T831 481Z" />
<glyph unicode="&#xa0;" glyph-name="space" horiz-adv-x="512" />
<glyph unicode="&#xa1;" glyph-name="exclamdown" horiz-adv-x="797" d="M340 512H435L375 -409H76L340 512ZM433 961Q502 961 550 913T599 795Q599 726 551 678T433 629Q364 629 316 677T267 795Q267 864 315 912T433 961Z" />
<glyph unicode="&#xa2;" glyph-name="cent" horiz-adv-x="1024" d="M883 348Q743 227 590 195L556 0H464L496 185Q322 185 223 279T123 535Q123 716 195 858T395 1083T670 1169L700 1341H792L761 1167Q905 1154 992 1125L943 837H871L857 1008Q817 1053 743 1065L611
311Q712 324 839 411L883 348ZM391 545Q391 443 427 386T518 312L651 1065Q580 1044 520 969T425 782T391 545Z" />
<glyph unicode="&#xa3;" glyph-name="sterling" horiz-adv-x="1024" d="M905 203L868 0H-5L16 123L110 195Q199 262 244 334T289 489Q289 546 270 620H109L127 721H215Q189 820 189 902Q189 1123 325 1239T723 1356Q784 1356 846 1349T1026 1313L972 1008H885L876
1202Q799 1255 710 1255Q579 1255 511 1140T442 822L445 721H707L689 620H446L447 587V551Q447 454 407 362T295 203H905Z" />
<glyph unicode="&#xa4;" glyph-name="currency" horiz-adv-x="1024" d="M750 352Q653 283 527 283Q407 283 304 352L199 248L99 350L201 453Q134 554 134 676Q134 799 201 899L99 1004L203 1108L304 1001Q409 1071 527 1071Q645 1071 750 1001L855 1106L957 1006L853
899Q922 796 922 676Q922 557 853 453L957 350L857 248L750 352ZM527 932Q421 932 347 857T273 676Q273 571 347 497T527 422Q632 422 707 496T783 676Q783 782 708 857T527 932Z" />
<glyph unicode="&#xa5;" glyph-name="yen" horiz-adv-x="1024" d="M131 1275L143 1341H616L604 1275L488 1249L597 702L916 1251L810 1275L822 1341H1153L1141 1275L1052 1255L679 639H912L894 537H640L616 399H870L852 297H598L561 90L700 66L689 0H135L146 66L292
90L329 297H72L90 399H347L371 537H114L132 639H365L211 1251L131 1275Z" />
<glyph unicode="&#xa6;" glyph-name="brokenbar" horiz-adv-x="451" d="M182 801V1421H324V801H182ZM182 -442V180H324V-442H182Z" />
<glyph unicode="&#xa7;" glyph-name="section" horiz-adv-x="1024" d="M768 57Q768 -92 660 -173T334 -255Q258 -255 169 -239T37 -204L83 57H149L163 -75Q198 -116 250 -139T356 -162Q444 -162 497 -118T551 0Q551 58 506 108T337 236Q229 303 176 376T123 538Q123
653 198 736T411 854Q340 896 301 958T261 1096Q261 1237 363 1313T653 1390Q760 1390 926 1361L884 1120H818L805 1230Q781 1259 732 1277T636 1296Q557 1296 515 1259T473 1159Q473 1112 508 1071T613 992L694 947Q784 897 826 858T891 771T914 663Q914 540 836
454T611 329Q694 266 731 201T768 57ZM514 407Q588 423 642 478T696 599Q696 650 660 691T518 781Q444 769 391 720T337 608Q337 557 375 511T514 407Z" />
<glyph unicode="&#xa8;" glyph-name="dieresis" horiz-adv-x="682" d="M640 1130Q592 1130 556 1165T519 1251Q519 1301 555 1335T640 1370Q689 1370 724 1336T759 1251Q759 1201 724 1166T640 1130ZM284 1130Q236 1130 200 1167T163 1251Q163 1299 199 1334T284
1370Q333 1370 368 1335T403 1251Q403 1201 368 1166T284 1130Z" />
<glyph unicode="&#xa9;" glyph-name="copyright" horiz-adv-x="1530" d="M87 670Q87 859 180 1019T432 1271T777 1362Q964 1362 1124 1270T1376 1019T1469 670Q1469 485 1379 327T1128 74T777 -20Q591 -20 431 72T179 324T87 670ZM812 254Q613 254 500 365T386
664Q386 872 496 980T814 1089Q932 1089 1082 1059L1086 852H1017L998 957Q957 982 916 995T818 1008Q688 1008 632 932T576 666Q576 501 629 418T812 334Q934 334 1007 393L1029 512H1099L1095 293Q968 254 812 254ZM777 1278Q616 1278 477 1197T258 975T177 670Q177
507 257 366T476 144T777 63Q937 63 1076 143T1297 366T1379 670Q1379 832 1299 972T1081 1195T777 1278Z" />
<glyph unicode="&#xaa;" glyph-name="ordfeminine" horiz-adv-x="545" d="M584 846L638 831L628 782H425L427 826Q347 767 254 767Q181 767 135 826T88 983Q88 1088 134 1175T264 1312T457 1362Q520 1362 587 1336L593 1339L625 1357H675L584 846ZM495 1278Q460
1293 423 1293Q346 1293 297 1207T248 992Q248 853 320 853Q368 853 427 890L495 1278Z" />
<glyph unicode="&#xab;" glyph-name="guillemotleft" horiz-adv-x="1024" d="M475 852H576L314 463L439 74H338L80 430L92 496L475 852ZM885 852H985L724 463L848 74H748L490 430L502 496L885 852Z" />
<glyph unicode="&#xac;" glyph-name="logicalnot" horiz-adv-x="1241" d="M1067 752V203H925V608H114V752H1067Z" />
<glyph unicode="&#xad;" glyph-name="hyphen" horiz-adv-x="682" d="M43 395L76 569H608L575 395H43Z" />
<glyph unicode="&#xae;" glyph-name="registered" horiz-adv-x="1530" d="M1469 670Q1469 485 1379 327T1128 74T777 -20Q591 -20 431 72T179 324T87 670Q87 859 180 1019T432 1271T777 1362Q964 1362 1124 1270T1376 1019T1469 670ZM966 276L736 619H687V350L781
334V276H435V334L511 350V1010L427 1026V1081H777Q933 1081 1013 1024T1093 860Q1093 783 1048 725T914 639L1121 350L1191 334V276H966ZM910 858Q910 940 868 973T706 1006H687V694H710Q814 694 862 730T910 858ZM777 1278Q616 1278 477 1197T258 975T177 670Q177
507 257 366T476 144T777 63Q937 63 1076 143T1297 366T1379 670Q1379 832 1299 972T1081 1195T777 1278Z" />
<glyph unicode="&#xaf;" glyph-name="uni00AF" horiz-adv-x="1024" d="M1196 1452H137V1546H1196V1452Z" />
<glyph unicode="&#xb0;" glyph-name="degree" horiz-adv-x="819" d="M184 1051Q184 1134 225 1206T338 1320T494 1362Q577 1362 649 1321T763 1207T805 1051Q805 967 763 895T648 782T494 741Q364 741 274 831T184 1051ZM493 1250Q413 1250 358 1193T303 1049Q303
966 358 908T493 850Q574 850 629 908T685 1049Q685 1135 630 1192T493 1250Z" />
<glyph unicode="&#xb1;" glyph-name="plusminus" horiz-adv-x="1124" d="M632 608V203H489V608H85V752H489V1157H632V752H1038V608H632ZM1038 141V0H85V141H1038Z" />
<glyph unicode="&#xb2;" glyph-name="uni00B2" horiz-adv-x="614" d="M550 535H40L60 649Q228 780 306 860T425 1014T465 1161Q465 1213 443 1245T375 1278Q322 1278 280 1247L234 1131H172L205 1323Q323 1350 404 1350Q522 1350 585 1299T649 1161Q649 1087 610
1021T498 888T212 677H575L550 535Z" />
<glyph unicode="&#xb3;" glyph-name="uni00B3" horiz-adv-x="614" d="M259 522Q147 522 41 549L68 752H133L142 620Q184 595 249 595Q428 595 428 784Q428 899 317 908L249 914L263 997L326 1001Q458 1008 458 1174Q458 1223 434 1249T367 1276Q315 1276 271 1249L224
1130H162L196 1323Q304 1350 393 1350Q506 1350 573 1303T640 1176Q640 991 438 956Q521 945 563 902T606 788Q606 669 514 596T259 522Z" />
<glyph unicode="&#xb4;" glyph-name="acute" horiz-adv-x="682" d="M253 1118L259 1151L455 1423H740L736 1386L339 1118H253Z" />
<glyph unicode="&#xb5;" glyph-name="uni00B5" horiz-adv-x="1180" d="M105 874L118 940H504L402 371Q380 256 380 215Q380 118 471 118Q535 118 615 189T730 346L836 940H1102L954 91L1043 66L1030 0H701L704 175Q648 93 575 37T444 -20Q365 -20 333 29Q289 -221
217 -436H-57L-49 -391Q-15 -320 23 -188T83 69L221 850L105 874Z" />
<glyph unicode="&#xb6;" glyph-name="paragraph" horiz-adv-x="1024" d="M874 1245V-258H734V1245H599V-258H459V545Q265 552 150 659T35 952Q35 1138 148 1239T469 1341H957V1268L874 1245Z" />
<glyph unicode="&#xb7;" glyph-name="uni00B7" horiz-adv-x="512" d="M270 511Q201 511 153 559T104 677Q104 746 152 794T270 843Q339 843 387 795T436 677Q436 608 388 560T270 511Z" />
<glyph unicode="&#xb8;" glyph-name="cedilla" horiz-adv-x="682" d="M93 -432Q13 -432 -56 -403L-19 -306Q36 -325 84 -325Q131 -325 161 -300T192 -233Q192 -155 86 -148L172 47H263L220 -63Q300 -74 344 -114T389 -216Q389 -315 305 -373T93 -432Z" />
<glyph unicode="&#xb9;" glyph-name="uni00B9" horiz-adv-x="614" d="M406 616L544 602L532 535H75L87 602L228 616L329 1188L183 1147L194 1213L445 1347H535L406 616Z" />
<glyph unicode="&#xba;" glyph-name="ordmasculine" horiz-adv-x="614" d="M364 840Q411 840 446 886T503 1010T524 1167Q524 1290 439 1290Q371 1290 328 1191T284 959Q284 840 364 840ZM351 770Q250 770 188 833T125 1007Q125 1104 167 1186T286 1315T457 1362Q558
1362 620 1299T683 1125Q683 974 590 872T351 770Z" />
<glyph unicode="&#xbb;" glyph-name="guillemotright" horiz-adv-x="1024" d="M508 74H407L668 463L544 852H645L902 496L890 430L508 74ZM98 74H-2L258 463L135 852H235L492 496L480 430L98 74Z" />
<glyph unicode="&#xbc;" glyph-name="onequarter" horiz-adv-x="1536" d="M411 0H288L1253 1341H1373L411 0ZM651 616L789 602L777 535H320L332 602L473 616L574 1188L428 1147L439 1213L690 1347H780L651 616ZM1305 157L1277 -2H1116L1144 157H802L820 255L1278
807H1420L1327 280H1407L1385 157H1305ZM1236 639L941 280H1166L1206 507Q1218 574 1236 639Z" />
<glyph unicode="&#xbd;" glyph-name="onehalf" horiz-adv-x="1536" d="M364 0H241L1206 1341H1326L364 0ZM632 616L770 602L758 535H301L313 602L454 616L555 1188L409 1147L420 1213L671 1347H761L632 616ZM1392 1H882L902 115Q1070 246 1148 326T1267 480T1307
627Q1307 679 1285 711T1217 744Q1164 744 1122 713L1076 597H1014L1047 789Q1165 816 1246 816Q1364 816 1427 765T1491 627Q1491 553 1452 487T1340 354T1054 143H1417L1392 1Z" />
<glyph unicode="&#xbe;" glyph-name="threequarters" horiz-adv-x="1536" d="M441 0H318L1283 1341H1403L441 0ZM317 522Q205 522 99 549L126 752H191L200 620Q242 595 307 595Q486 595 486 784Q486 899 375 908L307 914L321 997L384 1001Q516 1008 516 1174Q516
1223 492 1249T425 1276Q373 1276 329 1249L282 1130H220L254 1323Q362 1350 451 1350Q564 1350 631 1303T698 1176Q698 991 496 956Q579 945 621 902T664 788Q664 669 572 596T317 522ZM1321 157L1293 -2H1132L1160 157H818L836 255L1294 807H1436L1343 280H1423L1401
157H1321ZM1252 639L957 280H1182L1222 507Q1234 574 1252 639Z" />
<glyph unicode="&#xbf;" glyph-name="questiondown" horiz-adv-x="1024" d="M318 -123Q318 -326 507 -326Q545 -326 586 -313T654 -279L719 -85H808L768 -380Q610 -428 456 -428Q250 -428 149 -350T48 -127Q48 44 133 153T410 312L501 336L564 538H667L669 225L569
200Q435 166 377 91T318 -123ZM648 957Q718 957 765 909T813 791Q813 721 766 673T648 625Q579 625 531 673T482 791Q482 860 530 908T648 957Z" />
<glyph unicode="&#xc0;" glyph-name="Agrave" horiz-adv-x="1366" d="M302 73L288 0H-106L-92 73L11 100L679 1352H919L1173 100L1282 73L1268 0H719L733 73L871 100L810 447H338L154 100L302 73ZM689 1118L394 557H790L689 1118ZM861 1452L544 1720L551 1757H816L953
1484L947 1452H861Z" />
<glyph unicode="&#xc1;" glyph-name="Aacute" horiz-adv-x="1366" d="M302 73L288 0H-106L-92 73L11 100L679 1352H919L1173 100L1282 73L1268 0H719L733 73L871 100L810 447H338L154 100L302 73ZM689 1118L394 557H790L689 1118ZM690 1452L696 1485L892 1757H1177L1173
1720L776 1452H690Z" />
<glyph unicode="&#xc2;" glyph-name="Acircumflex" horiz-adv-x="1366" d="M302 73L288 0H-106L-92 73L11 100L679 1352H919L1173 100L1282 73L1268 0H719L733 73L871 100L810 447H338L154 100L302 73ZM689 1118L394 557H790L689 1118ZM478 1452L484 1485L753
1778H966L1132 1485L1126 1452H1050L830 1614L554 1452H478Z" />
<glyph unicode="&#xc3;" glyph-name="Atilde" horiz-adv-x="1366" d="M302 73L288 0H-106L-92 73L11 100L679 1352H919L1173 100L1282 73L1268 0H719L733 73L871 100L810 447H338L154 100L302 73ZM689 1118L394 557H790L689 1118ZM899 1424Q814 1424 718 1512Q669
1557 636 1557Q598 1557 577 1531T537 1442H438Q505 1729 707 1729Q760 1729 802 1705T890 1643Q942 1598 971 1598Q1008 1598 1029 1623T1070 1710H1169Q1131 1558 1064 1491T899 1424Z" />
<glyph unicode="&#xc4;" glyph-name="Adieresis" horiz-adv-x="1366" d="M302 73L288 0H-106L-92 73L11 100L679 1352H919L1173 100L1282 73L1268 0H719L733 73L871 100L810 447H338L154 100L302 73ZM689 1118L394 557H790L689 1118ZM993 1464Q945 1464 909 1499T872
1585Q872 1635 908 1669T993 1704Q1042 1704 1077 1670T1112 1585Q1112 1535 1077 1500T993 1464ZM637 1464Q589 1464 553 1501T516 1585Q516 1633 552 1668T637 1704Q686 1704 721 1669T756 1585Q756 1535 721 1500T637 1464Z" />
<glyph unicode="&#xc5;" glyph-name="Aring" horiz-adv-x="1366" d="M302 73L288 0H-106L-92 73L11 100L679 1352H919L1173 100L1282 73L1268 0H719L733 73L871 100L810 447H338L154 100L302 73ZM689 1118L394 557H790L689 1118ZM800 1237Q713 1237 651 1298T589
1450Q589 1540 650 1600T800 1661Q888 1661 949 1601T1011 1450Q1011 1361 950 1299T800 1237ZM800 1549Q761 1549 732 1520T702 1450Q702 1411 731 1382T800 1352Q839 1352 868 1381T898 1450Q898 1490 868 1519T800 1549Z" />
<glyph unicode="&#xc6;" glyph-name="AE" horiz-adv-x="1933" d="M828 1252L687 1270L699 1341H1840L1780 1000H1689L1695 1217Q1587 1231 1434 1231H1234L1147 739H1430L1487 887H1576L1503 475H1414L1410 627H1127L1036 110H1281Q1477 110 1562 126L1662 374H1753L1669
0H550L562 73L739 100L800 447H388L134 100L283 73L271 0H-161L-149 73L-24 100L828 1252ZM820 557L932 1198L469 557H820Z" />
<glyph unicode="&#xc7;" glyph-name="Ccedilla" horiz-adv-x="1366" d="M670 -20Q385 -20 228 127T70 531Q70 777 174 964T471 1254T912 1356Q1138 1356 1385 1304L1332 967H1248V1161Q1194 1204 1118 1227T957 1251Q792 1251 661 1159T456 900T383 522Q383 315
475 199T734 83Q832 83 931 111T1091 184L1168 404H1253L1187 64Q1074 27 937 4T670 -20ZM556 -432Q476 -432 407 -403L444 -306Q499 -325 547 -325Q594 -325 624 -300T655 -233Q655 -155 549 -148L635 47H726L683 -63Q763 -74 807 -114T852 -216Q852 -315 768
-373T556 -432Z" />
<glyph unicode="&#xc8;" glyph-name="Egrave" horiz-adv-x="1366" d="M375 1242L208 1268L221 1341H1273L1213 1000H1122L1128 1217Q1019 1231 807 1231H669L582 739H863L920 887H1009L936 475H847L843 627H562L471 110H654Q907 110 992 126L1095 374H1186L1102
0H-15L-3 73L174 100L375 1242ZM845 1452L528 1720L535 1757H800L937 1484L931 1452H845Z" />
<glyph unicode="&#xc9;" glyph-name="Eacute" horiz-adv-x="1366" d="M375 1242L208 1268L221 1341H1273L1213 1000H1122L1128 1217Q1019 1231 807 1231H669L582 739H863L920 887H1009L936 475H847L843 627H562L471 110H654Q907 110 992 126L1095 374H1186L1102
0H-15L-3 73L174 100L375 1242ZM656 1452L662 1485L858 1757H1143L1139 1720L742 1452H656Z" />
<glyph unicode="&#xca;" glyph-name="Ecircumflex" horiz-adv-x="1366" d="M375 1242L208 1268L221 1341H1273L1213 1000H1122L1128 1217Q1019 1231 807 1231H669L582 739H863L920 887H1009L936 475H847L843 627H562L471 110H654Q907 110 992 126L1095 374H1186L1102
0H-15L-3 73L174 100L375 1242ZM506 1452L512 1485L781 1778H994L1160 1485L1154 1452H1078L858 1614L582 1452H506Z" />
<glyph unicode="&#xcb;" glyph-name="Edieresis" horiz-adv-x="1366" d="M375 1242L208 1268L221 1341H1273L1213 1000H1122L1128 1217Q1019 1231 807 1231H669L582 739H863L920 887H1009L936 475H847L843 627H562L471 110H654Q907 110 992 126L1095 374H1186L1102
0H-15L-3 73L174 100L375 1242ZM1002 1464Q954 1464 918 1499T881 1585Q881 1635 917 1669T1002 1704Q1051 1704 1086 1670T1121 1585Q1121 1535 1086 1500T1002 1464ZM646 1464Q598 1464 562 1501T525 1585Q525 1633 561 1668T646 1704Q695 1704 730 1669T765
1585Q765 1535 730 1500T646 1464Z" />
<glyph unicode="&#xcc;" glyph-name="Igrave" horiz-adv-x="797" d="M464 100L631 74L618 0H-20L-7 74L169 100L370 1241L203 1268L216 1341H855L842 1268L665 1241L464 100ZM625 1452L308 1720L315 1757H580L717 1484L711 1452H625Z" />
<glyph unicode="&#xcd;" glyph-name="Iacute" horiz-adv-x="797" d="M464 100L631 74L618 0H-20L-7 74L169 100L370 1241L203 1268L216 1341H855L842 1268L665 1241L464 100ZM406 1452L412 1485L608 1757H893L889 1720L492 1452H406Z" />
<glyph unicode="&#xce;" glyph-name="Icircumflex" horiz-adv-x="797" d="M464 100L631 74L618 0H-20L-7 74L169 100L370 1241L203 1268L216 1341H855L842 1268L665 1241L464 100ZM229 1452L235 1485L504 1778H717L883 1485L877 1452H801L581 1614L305 1452H229Z" />
<glyph unicode="&#xcf;" glyph-name="Idieresis" horiz-adv-x="797" d="M464 100L631 74L618 0H-20L-7 74L169 100L370 1241L203 1268L216 1341H855L842 1268L665 1241L464 100ZM757 1464Q709 1464 673 1499T636 1585Q636 1635 672 1669T757 1704Q806 1704 841
1670T876 1585Q876 1535 841 1500T757 1464ZM401 1464Q353 1464 317 1501T280 1585Q280 1633 316 1668T401 1704Q450 1704 485 1669T520 1585Q520 1535 485 1500T401 1464Z" />
<glyph unicode="&#xd0;" glyph-name="Eth" horiz-adv-x="1479" d="M1431 788Q1431 549 1330 369T1039 92T599 -4L180 0H-15L-3 73L174 100L263 609H91L113 731H285L375 1242L208 1268L221 1341H742Q1079 1341 1255 1198T1431 788ZM1120 774Q1120 1231 705 1231H668L580
731H837L816 609H558L471 114Q556 106 595 106Q839 106 979 285T1120 774Z" />
<glyph unicode="&#xd1;" glyph-name="Ntilde" horiz-adv-x="1479" d="M1225 1242L1050 1268L1063 1341H1540L1527 1268L1350 1242L1132 0H1017L476 1112L295 100L470 73L458 0H-19L-7 73L170 100L371 1242L204 1268L217 1341H650L1085 447L1225 1242ZM1052 1424Q967
1424 871 1512Q822 1557 789 1557Q751 1557 730 1531T690 1442H591Q658 1729 860 1729Q913 1729 955 1705T1043 1643Q1095 1598 1124 1598Q1161 1598 1182 1623T1223 1710H1322Q1284 1558 1217 1491T1052 1424Z" />
<glyph unicode="&#xd2;" glyph-name="Ograve" horiz-adv-x="1479" d="M1120 843Q1120 1033 1044 1142T832 1251Q710 1251 608 1151T440 862T375 485Q375 297 449 190T657 83Q782 83 885 182T1054 467T1120 843ZM639 -20Q473 -20 345 48T145 241T74 524Q74 766
172 957T447 1252T856 1356Q1022 1356 1150 1288T1350 1095T1421 812Q1421 572 1321 376T1046 80T639 -20ZM927 1452L610 1720L617 1757H882L1019 1484L1013 1452H927Z" />
<glyph unicode="&#xd3;" glyph-name="Oacute" horiz-adv-x="1479" d="M1120 843Q1120 1033 1044 1142T832 1251Q710 1251 608 1151T440 862T375 485Q375 297 449 190T657 83Q782 83 885 182T1054 467T1120 843ZM639 -20Q473 -20 345 48T145 241T74 524Q74 766
172 957T447 1252T856 1356Q1022 1356 1150 1288T1350 1095T1421 812Q1421 572 1321 376T1046 80T639 -20ZM744 1452L750 1485L946 1757H1231L1227 1720L830 1452H744Z" />
<glyph unicode="&#xd4;" glyph-name="Ocircumflex" horiz-adv-x="1479" d="M1120 843Q1120 1033 1044 1142T832 1251Q710 1251 608 1151T440 862T375 485Q375 297 449 190T657 83Q782 83 885 182T1054 467T1120 843ZM639 -20Q473 -20 345 48T145 241T74 524Q74
766 172 957T447 1252T856 1356Q1022 1356 1150 1288T1350 1095T1421 812Q1421 572 1321 376T1046 80T639 -20ZM571 1452L577 1485L846 1778H1059L1225 1485L1219 1452H1143L923 1614L647 1452H571Z" />
<glyph unicode="&#xd5;" glyph-name="Otilde" horiz-adv-x="1479" d="M1120 843Q1120 1033 1044 1142T832 1251Q710 1251 608 1151T440 862T375 485Q375 297 449 190T657 83Q782 83 885 182T1054 467T1120 843ZM639 -20Q473 -20 345 48T145 241T74 524Q74 766
172 957T447 1252T856 1356Q1022 1356 1150 1288T1350 1095T1421 812Q1421 572 1321 376T1046 80T639 -20ZM1016 1424Q931 1424 835 1512Q786 1557 753 1557Q715 1557 694 1531T654 1442H555Q622 1729 824 1729Q877 1729 919 1705T1007 1643Q1059 1598 1088 1598Q1125
1598 1146 1623T1187 1710H1286Q1248 1558 1181 1491T1016 1424Z" />
<glyph unicode="&#xd6;" glyph-name="Odieresis" horiz-adv-x="1479" d="M1120 843Q1120 1033 1044 1142T832 1251Q710 1251 608 1151T440 862T375 485Q375 297 449 190T657 83Q782 83 885 182T1054 467T1120 843ZM639 -20Q473 -20 345 48T145 241T74 524Q74 766
172 957T447 1252T856 1356Q1022 1356 1150 1288T1350 1095T1421 812Q1421 572 1321 376T1046 80T639 -20ZM1094 1464Q1046 1464 1010 1499T973 1585Q973 1635 1009 1669T1094 1704Q1143 1704 1178 1670T1213 1585Q1213 1535 1178 1500T1094 1464ZM738 1464Q690
1464 654 1501T617 1585Q617 1633 653 1668T738 1704Q787 1704 822 1669T857 1585Q857 1535 822 1500T738 1464Z" />
<glyph unicode="&#xd7;" glyph-name="multiply" horiz-adv-x="1167" d="M606 578L281 254L180 356L504 682L180 1004L284 1108L606 784L932 1108L1033 1006L709 682L1033 356L932 254L606 578Z" />
<glyph unicode="&#xd8;" glyph-name="Oslash" horiz-adv-x="1479" d="M639 -20Q417 -20 265 100L110 -55H-39L190 174Q74 316 74 524Q74 766 172 957T447 1252T856 1356Q1090 1356 1243 1224L1410 1391H1555L1314 1149Q1421 1009 1421 812Q1421 572 1321 376T1046
80T639 -20ZM375 485Q375 410 383 367L1083 1065Q1011 1251 832 1251Q710 1251 608 1151T440 862T375 485ZM1120 843Q1120 890 1113 948L416 251Q487 83 657 83Q782 83 885 182T1054 467T1120 843Z" />
<glyph unicode="&#xd9;" glyph-name="Ugrave" horiz-adv-x="1479" d="M167 1268L180 1341H799L786 1268L609 1242L496 586Q473 456 473 389Q473 122 740 122Q901 122 1003 209T1136 463L1273 1242L1098 1268L1111 1341H1567L1554 1268L1397 1242L1262 471Q1217
218 1075 100T689 -19Q445 -19 313 89T180 399Q180 463 200 583L314 1242L167 1268ZM961 1452L644 1720L651 1757H916L1053 1484L1047 1452H961Z" />
<glyph unicode="&#xda;" glyph-name="Uacute" horiz-adv-x="1479" d="M167 1268L180 1341H799L786 1268L609 1242L496 586Q473 456 473 389Q473 122 740 122Q901 122 1003 209T1136 463L1273 1242L1098 1268L1111 1341H1567L1554 1268L1397 1242L1262 471Q1217
218 1075 100T689 -19Q445 -19 313 89T180 399Q180 463 200 583L314 1242L167 1268ZM797 1452L803 1485L999 1757H1284L1280 1720L883 1452H797Z" />
<glyph unicode="&#xdb;" glyph-name="Ucircumflex" horiz-adv-x="1479" d="M167 1268L180 1341H799L786 1268L609 1242L496 586Q473 456 473 389Q473 122 740 122Q901 122 1003 209T1136 463L1273 1242L1098 1268L1111 1341H1567L1554 1268L1397 1242L1262 471Q1217
218 1075 100T689 -19Q445 -19 313 89T180 399Q180 463 200 583L314 1242L167 1268ZM626 1452L632 1485L901 1778H1114L1280 1485L1274 1452H1198L978 1614L702 1452H626Z" />
<glyph unicode="&#xdc;" glyph-name="Udieresis" horiz-adv-x="1479" d="M167 1268L180 1341H799L786 1268L609 1242L496 586Q473 456 473 389Q473 122 740 122Q901 122 1003 209T1136 463L1273 1242L1098 1268L1111 1341H1567L1554 1268L1397 1242L1262 471Q1217
218 1075 100T689 -19Q445 -19 313 89T180 399Q180 463 200 583L314 1242L167 1268ZM1147 1464Q1099 1464 1063 1499T1026 1585Q1026 1635 1062 1669T1147 1704Q1196 1704 1231 1670T1266 1585Q1266 1535 1231 1500T1147 1464ZM791 1464Q743 1464 707 1501T670
1585Q670 1633 706 1668T791 1704Q840 1704 875 1669T910 1585Q910 1535 875 1500T791 1464Z" />
<glyph unicode="&#xdd;" glyph-name="Yacute" horiz-adv-x="1251" d="M702 100L910 73L898 0H176L188 73L406 100L485 542L251 1242L105 1268L118 1341H754L741 1268L556 1242L734 686L1098 1242L939 1268L952 1341H1408L1395 1268L1248 1242L782 548L702 100ZM707
1452L713 1485L909 1757H1194L1190 1720L793 1452H707Z" />
<glyph unicode="&#xde;" glyph-name="Thorn" horiz-adv-x="1251" d="M564 378Q909 378 909 715Q909 847 849 910T665 973H623L518 378H564ZM751 1083Q970 1083 1086 992T1202 728Q1202 503 1057 386T643 268H498L469 100L637 74L624 0H-15L-2 74L174 100L375 1241L208
1268L221 1341H860L847 1268L670 1241L642 1083H751Z" />
<glyph unicode="&#xdf;" glyph-name="germandbls" horiz-adv-x="1024" d="M753 802Q753 755 776 707T848 599Q918 514 941 458T965 336Q965 172 863 76T578 -20Q498 -20 442 -7T360 21L395 244H461L478 110Q520 73 575 73Q640 73 678 120T717 252Q717 296 705
333T670 408T581 522Q510 607 510 721Q510 832 570 918T731 1033Q743 1124 743 1176Q743 1259 719 1300T640 1341Q568 1341 525 1256T443 952L276 0H-75L-64 66L22 90L174 952Q219 1208 338 1325T664 1442Q839 1442 920 1360T1001 1117Q1001 1064 990 985Q873 985
813 938T753 802Z" />
<glyph unicode="&#xe0;" glyph-name="agrave" horiz-adv-x="1024" d="M823 90L932 58L924 0H577L573 138Q514 64 440 22T288 -21Q163 -21 94 69T24 319Q24 494 97 643T300 878T588 964Q726 964 839 919L921 956H975L823 90ZM287 351Q287 248 321 188T408 127Q448
127 497 167T585 266L684 829Q639 863 560 863Q486 863 423 793T324 602T287 351ZM714 1118L397 1386L404 1423H669L806 1150L800 1118H714Z" />
<glyph unicode="&#xe1;" glyph-name="aacute" horiz-adv-x="1024" d="M823 90L932 58L924 0H577L573 138Q514 64 440 22T288 -21Q163 -21 94 69T24 319Q24 494 97 643T300 878T588 964Q726 964 839 919L921 956H975L823 90ZM287 351Q287 248 321 188T408 127Q448
127 497 167T585 266L684 829Q639 863 560 863Q486 863 423 793T324 602T287 351ZM543 1118L549 1151L745 1423H1030L1026 1386L629 1118H543Z" />
<glyph unicode="&#xe2;" glyph-name="acircumflex" horiz-adv-x="1024" d="M823 90L932 58L924 0H577L573 138Q514 64 440 22T288 -21Q163 -21 94 69T24 319Q24 494 97 643T300 878T588 964Q726 964 839 919L921 956H975L823 90ZM287 351Q287 248 321 188T408
127Q448 127 497 167T585 266L684 829Q639 863 560 863Q486 863 423 793T324 602T287 351ZM305 1118L311 1151L580 1444H793L959 1151L953 1118H877L657 1280L381 1118H305Z" />
<glyph unicode="&#xe3;" glyph-name="atilde" horiz-adv-x="1024" d="M823 90L932 58L924 0H577L573 138Q514 64 440 22T288 -21Q163 -21 94 69T24 319Q24 494 97 643T300 878T588 964Q726 964 839 919L921 956H975L823 90ZM287 351Q287 248 321 188T408 127Q448
127 497 167T585 266L684 829Q639 863 560 863Q486 863 423 793T324 602T287 351ZM717 1090Q632 1090 536 1178Q487 1223 454 1223Q416 1223 395 1197T355 1108H256Q323 1395 525 1395Q578 1395 620 1371T708 1309Q760 1264 789 1264Q826 1264 847 1289T888 1376H987Q949
1224 882 1157T717 1090Z" />
<glyph unicode="&#xe4;" glyph-name="adieresis" horiz-adv-x="1024" d="M823 90L932 58L924 0H577L573 138Q514 64 440 22T288 -21Q163 -21 94 69T24 319Q24 494 97 643T300 878T588 964Q726 964 839 919L921 956H975L823 90ZM287 351Q287 248 321 188T408 127Q448
127 497 167T585 266L684 829Q639 863 560 863Q486 863 423 793T324 602T287 351ZM809 1130Q761 1130 725 1165T688 1251Q688 1301 724 1335T809 1370Q858 1370 893 1336T928 1251Q928 1201 893 1166T809 1130ZM453 1130Q405 1130 369 1167T332 1251Q332 1299 368
1334T453 1370Q502 1370 537 1335T572 1251Q572 1201 537 1166T453 1130Z" />
<glyph unicode="&#xe5;" glyph-name="aring" horiz-adv-x="1024" d="M823 90L932 58L924 0H577L573 138Q514 64 440 22T288 -21Q163 -21 94 69T24 319Q24 494 97 643T300 878T588 964Q726 964 839 919L921 956H975L823 90ZM287 351Q287 248 321 188T408 127Q448
127 497 167T585 266L684 829Q639 863 560 863Q486 863 423 793T324 602T287 351ZM637 1059Q550 1059 488 1120T426 1272Q426 1362 487 1422T637 1483Q725 1483 786 1423T848 1272Q848 1183 787 1121T637 1059ZM637 1371Q598 1371 569 1342T539 1272Q539 1233 568
1204T637 1174Q676 1174 705 1203T735 1272Q735 1312 705 1341T637 1371Z" />
<glyph unicode="&#xe6;" glyph-name="ae" horiz-adv-x="1479" d="M901 508Q984 517 1053 556T1161 654T1200 773Q1200 815 1176 836T1123 857Q1052 857 987 752T901 508ZM887 895Q938 929 1005 947T1135 965Q1275 965 1354 909T1434 760Q1434 671 1367 595T1175
470T887 408Q882 388 882 340Q882 227 931 166T1073 104Q1124 104 1175 121T1316 198L1360 135Q1273 62 1170 21T971 -20Q716 -20 644 158Q566 66 485 23T310 -21Q182 -21 104 70T26 319Q26 491 102 640T314 877T610 964Q666 964 743 946T887 895ZM623 264L620
330Q620 455 662 576T777 788Q725 826 672 844T582 863Q507 863 440 792T331 599T289 351Q289 244 324 186T422 127Q466 127 527 170T623 264Z" />
<glyph unicode="&#xe7;" glyph-name="ccedilla" horiz-adv-x="909" d="M391 -20Q219 -20 125 73T30 330Q30 515 103 660T306 885T585 965Q657 965 741 952T879 920L830 632H758L744 803Q690 863 598 863Q519 863 449 793T338 602T298 340Q298 228 342 166T471
104Q546 104 607 131T726 198L770 135Q688 62 588 21T391 -20ZM237 -432Q157 -432 88 -403L125 -306Q180 -325 228 -325Q275 -325 305 -300T336 -233Q336 -155 230 -148L316 47H407L364 -63Q444 -74 488 -114T533 -216Q533 -315 449 -373T237 -432Z" />
<glyph unicode="&#xe8;" glyph-name="egrave" horiz-adv-x="909" d="M864 760Q864 670 798 594T608 469T325 408Q320 388 320 340Q320 104 501 104Q575 104 638 132T756 198L800 135Q712 61 609 21T411 -20Q234 -20 141 69T48 330Q48 502 121 649T314 880T563
965Q701 965 782 910T864 760ZM341 508Q463 521 541 596T620 773Q620 815 600 836T551 857Q482 857 423 755T341 508ZM647 1118L330 1386L337 1423H602L739 1150L733 1118H647Z" />
<glyph unicode="&#xe9;" glyph-name="eacute" horiz-adv-x="909" d="M864 760Q864 670 798 594T608 469T325 408Q320 388 320 340Q320 104 501 104Q575 104 638 132T756 198L800 135Q712 61 609 21T411 -20Q234 -20 141 69T48 330Q48 502 121 649T314 880T563
965Q701 965 782 910T864 760ZM341 508Q463 521 541 596T620 773Q620 815 600 836T551 857Q482 857 423 755T341 508ZM479 1118L485 1151L681 1423H966L962 1386L565 1118H479Z" />
<glyph unicode="&#xea;" glyph-name="ecircumflex" horiz-adv-x="909" d="M864 760Q864 670 798 594T608 469T325 408Q320 388 320 340Q320 104 501 104Q575 104 638 132T756 198L800 135Q712 61 609 21T411 -20Q234 -20 141 69T48 330Q48 502 121 649T314 880T563
965Q701 965 782 910T864 760ZM341 508Q463 521 541 596T620 773Q620 815 600 836T551 857Q482 857 423 755T341 508ZM259 1118L265 1151L534 1444H747L913 1151L907 1118H831L611 1280L335 1118H259Z" />
<glyph unicode="&#xeb;" glyph-name="edieresis" horiz-adv-x="909" d="M864 760Q864 670 798 594T608 469T325 408Q320 388 320 340Q320 104 501 104Q575 104 638 132T756 198L800 135Q712 61 609 21T411 -20Q234 -20 141 69T48 330Q48 502 121 649T314 880T563
965Q701 965 782 910T864 760ZM341 508Q463 521 541 596T620 773Q620 815 600 836T551 857Q482 857 423 755T341 508ZM758 1130Q710 1130 674 1165T637 1251Q637 1301 673 1335T758 1370Q807 1370 842 1336T877 1251Q877 1201 842 1166T758 1130ZM402 1130Q354
1130 318 1167T281 1251Q281 1299 317 1334T402 1370Q451 1370 486 1335T521 1251Q521 1201 486 1166T402 1130Z" />
<glyph unicode="&#xec;" glyph-name="igrave" horiz-adv-x="569" d="M332 90L451 66L440 0H47L197 850L106 874L117 940H482L332 90ZM418 1118L101 1386L108 1423H373L510 1150L504 1118H418Z" />
<glyph unicode="&#xed;" glyph-name="iacute" horiz-adv-x="569" d="M332 90L451 66L440 0H47L197 850L106 874L117 940H482L332 90ZM477 1118L483 1151L679 1423H964L960 1386L563 1118H477Z" />
<glyph unicode="&#xee;" glyph-name="icircumflex" horiz-adv-x="569" d="M332 90L451 66L440 0H47L197 850L106 874L117 940H482L332 90ZM280 1118L286 1151L555 1444H768L934 1151L928 1118H852L632 1280L356 1118H280Z" />
<glyph unicode="&#xef;" glyph-name="idieresis" horiz-adv-x="569" d="M332 90L451 66L440 0H47L197 850L106 874L117 940H482L332 90ZM811 1130Q763 1130 727 1165T690 1251Q690 1301 726 1335T811 1370Q860 1370 895 1336T930 1251Q930 1201 895 1166T811 1130ZM455
1130Q407 1130 371 1167T334 1251Q334 1299 370 1334T455 1370Q504 1370 539 1335T574 1251Q574 1201 539 1166T455 1130Z" />
<glyph unicode="&#xf0;" glyph-name="eth" horiz-adv-x="1024" d="M524 1217Q446 1283 357 1313L376 1421Q528 1385 663 1294L977 1459L955 1335L744 1224Q956 1021 956 687Q956 483 887 320T694 68T410 -20Q243 -20 139 83T35 353Q35 518 101 643T289 835T571
903Q631 903 688 890Q679 1027 592 1139L311 991L333 1117L524 1217ZM301 283Q301 181 337 130T432 79Q497 79 556 154T651 353T686 617Q686 708 654 756T558 804Q496 804 436 730T338 536T301 283Z" />
<glyph unicode="&#xf1;" glyph-name="ntilde" horiz-adv-x="1139" d="M764 725Q764 822 673 822Q610 822 531 752T414 594L308 0H42L190 849L101 874L114 940H448L440 765Q595 965 820 965Q919 965 977 912T1035 763Q1035 711 1010 580L923 90L1039 66L1026 0H640L742
569Q764 685 764 725ZM775 1090Q690 1090 594 1178Q545 1223 512 1223Q474 1223 453 1197T413 1108H314Q381 1395 583 1395Q636 1395 678 1371T766 1309Q818 1264 847 1264Q884 1264 905 1289T946 1376H1045Q1007 1224 940 1157T775 1090Z" />
<glyph unicode="&#xf2;" glyph-name="ograve" horiz-adv-x="1024" d="M683 625Q683 866 558 866Q495 866 434 790T335 586T297 319Q297 204 334 142T429 79Q493 79 553 153T648 353T683 625ZM406 -20Q236 -20 134 87T32 374Q32 536 102 672T297 886T580 965Q750
965 852 858T954 571Q954 409 884 273T689 59T406 -20ZM654 1118L337 1386L344 1423H609L746 1150L740 1118H654Z" />
<glyph unicode="&#xf3;" glyph-name="oacute" horiz-adv-x="1024" d="M683 625Q683 866 558 866Q495 866 434 790T335 586T297 319Q297 204 334 142T429 79Q493 79 553 153T648 353T683 625ZM406 -20Q236 -20 134 87T32 374Q32 536 102 672T297 886T580 965Q750
965 852 858T954 571Q954 409 884 273T689 59T406 -20ZM469 1118L475 1151L671 1423H956L952 1386L555 1118H469Z" />
<glyph unicode="&#xf4;" glyph-name="ocircumflex" horiz-adv-x="1024" d="M683 625Q683 866 558 866Q495 866 434 790T335 586T297 319Q297 204 334 142T429 79Q493 79 553 153T648 353T683 625ZM406 -20Q236 -20 134 87T32 374Q32 536 102 672T297 886T580 965Q750
965 852 858T954 571Q954 409 884 273T689 59T406 -20ZM281 1118L287 1151L556 1444H769L935 1151L929 1118H853L633 1280L357 1118H281Z" />
<glyph unicode="&#xf5;" glyph-name="otilde" horiz-adv-x="1024" d="M683 625Q683 866 558 866Q495 866 434 790T335 586T297 319Q297 204 334 142T429 79Q493 79 553 153T648 353T683 625ZM406 -20Q236 -20 134 87T32 374Q32 536 102 672T297 886T580 965Q750
965 852 858T954 571Q954 409 884 273T689 59T406 -20ZM717 1090Q632 1090 536 1178Q487 1223 454 1223Q416 1223 395 1197T355 1108H256Q323 1395 525 1395Q578 1395 620 1371T708 1309Q760 1264 789 1264Q826 1264 847 1289T888 1376H987Q949 1224 882 1157T717
1090Z" />
<glyph unicode="&#xf6;" glyph-name="odieresis" horiz-adv-x="1024" d="M683 625Q683 866 558 866Q495 866 434 790T335 586T297 319Q297 204 334 142T429 79Q493 79 553 153T648 353T683 625ZM406 -20Q236 -20 134 87T32 374Q32 536 102 672T297 886T580 965Q750
965 852 858T954 571Q954 409 884 273T689 59T406 -20ZM801 1130Q753 1130 717 1165T680 1251Q680 1301 716 1335T801 1370Q850 1370 885 1336T920 1251Q920 1201 885 1166T801 1130ZM445 1130Q397 1130 361 1167T324 1251Q324 1299 360 1334T445 1370Q494 1370
529 1335T564 1251Q564 1201 529 1166T445 1130Z" />
<glyph unicode="&#xf7;" glyph-name="divide" horiz-adv-x="1124" d="M1052 751V608H100V751H1052ZM575 183Q519 183 480 222T441 317Q441 373 480 412T575 451Q631 451 670 412T709 317Q709 261 670 222T575 183ZM575 909Q519 909 480 948T441 1043Q441 1099
480 1138T575 1177Q631 1177 670 1138T709 1043Q709 987 670 948T575 909Z" />
<glyph unicode="&#xf8;" glyph-name="oslash" horiz-adv-x="1024" d="M406 -20Q278 -20 187 41L80 -84H-47L117 106Q32 212 32 374Q32 536 102 672T297 886T580 965Q710 965 801 901L905 1022H1029L870 837Q954 730 954 571Q954 409 884 273T689 59T406 -20ZM297
315L670 749Q641 866 558 866Q495 866 434 790T335 586T297 319V315ZM429 79Q492 79 552 152T647 348T683 619L314 189Q349 79 429 79Z" />
<glyph unicode="&#xf9;" glyph-name="ugrave" horiz-adv-x="1139" d="M350 216Q350 119 441 119Q505 119 585 190T700 347L806 940H1072L924 91L1033 66L1020 0H666L674 176Q519 -24 294 -24Q193 -24 136 30T79 187Q79 206 85 252T191 850L75 874L88 940H474L372
372Q350 257 350 216ZM738 1118L421 1386L428 1423H693L830 1150L824 1118H738Z" />
<glyph unicode="&#xfa;" glyph-name="uacute" horiz-adv-x="1139" d="M350 216Q350 119 441 119Q505 119 585 190T700 347L806 940H1072L924 91L1033 66L1020 0H666L674 176Q519 -24 294 -24Q193 -24 136 30T79 187Q79 206 85 252T191 850L75 874L88 940H474L372
372Q350 257 350 216ZM503 1118L509 1151L705 1423H990L986 1386L589 1118H503Z" />
<glyph unicode="&#xfb;" glyph-name="ucircumflex" horiz-adv-x="1139" d="M350 216Q350 119 441 119Q505 119 585 190T700 347L806 940H1072L924 91L1033 66L1020 0H666L674 176Q519 -24 294 -24Q193 -24 136 30T79 187Q79 206 85 252T191 850L75 874L88 940H474L372
372Q350 257 350 216ZM339 1118L345 1151L614 1444H827L993 1151L987 1118H911L691 1280L415 1118H339Z" />
<glyph unicode="&#xfc;" glyph-name="udieresis" horiz-adv-x="1139" d="M350 216Q350 119 441 119Q505 119 585 190T700 347L806 940H1072L924 91L1033 66L1020 0H666L674 176Q519 -24 294 -24Q193 -24 136 30T79 187Q79 206 85 252T191 850L75 874L88 940H474L372
372Q350 257 350 216ZM849 1130Q801 1130 765 1165T728 1251Q728 1301 764 1335T849 1370Q898 1370 933 1336T968 1251Q968 1201 933 1166T849 1130ZM493 1130Q445 1130 409 1167T372 1251Q372 1299 408 1334T493 1370Q542 1370 577 1335T612 1251Q612 1201 577
1166T493 1130Z" />
<glyph unicode="&#xfd;" glyph-name="yacute" horiz-adv-x="909" d="M915 877Q915 787 834 657L395 -59Q299 -216 234 -290T100 -403T-44 -442Q-95 -442 -125 -439T-205 -423L-163 -181H-103L-83 -307Q-58 -330 -13 -330Q47 -330 118 -261T300 -5L86 850L25 874L36
940H339L491 301L672 601Q699 645 717 697T736 781Q736 807 728 823T705 851T646 875L658 940H889Q915 917 915 877ZM407 1118L413 1151L609 1423H894L890 1386L493 1118H407Z" />
<glyph unicode="&#xfe;" glyph-name="thorn" horiz-adv-x="1024" d="M956 631Q956 452 891 302T707 66T442 -20Q405 -20 355 -11T273 13Q268 -45 265 -70T221 -347L381 -371L369 -436H-167L-155 -371L-51 -347L246 1336L147 1361L159 1421H529Q481 1146 455 997T409
791Q465 874 544 919T709 965Q822 965 889 877T956 631ZM693 587Q693 690 661 751T576 813Q543 813 491 772T398 674L301 127Q321 108 360 94T430 79Q502 79 562 148T658 338T693 587Z" />
<glyph unicode="&#xff;" glyph-name="ydieresis" horiz-adv-x="909" d="M915 877Q915 787 834 657L395 -59Q299 -216 234 -290T100 -403T-44 -442Q-95 -442 -125 -439T-205 -423L-163 -181H-103L-83 -307Q-58 -330 -13 -330Q47 -330 118 -261T300 -5L86 850L25
874L36 940H339L491 301L672 601Q699 645 717 697T736 781Q736 807 728 823T705 851T646 875L658 940H889Q915 917 915 877ZM715 1130Q667 1130 631 1165T594 1251Q594 1301 630 1335T715 1370Q764 1370 799 1336T834 1251Q834 1201 799 1166T715 1130ZM359 1130Q311
1130 275 1167T238 1251Q238 1299 274 1334T359 1370Q408 1370 443 1335T478 1251Q478 1201 443 1166T359 1130Z" />
<glyph unicode="&#x2013;" glyph-name="endash" horiz-adv-x="1024" d="M1019 549V406H-33V549H1019Z" />
<glyph unicode="&#x2014;" glyph-name="emdash" horiz-adv-x="2048" d="M2045 549V406H-31V549H2045Z" />
<glyph unicode="&#x2018;" glyph-name="quoteleft" horiz-adv-x="682" d="M232 938Q232 1095 331 1203T619 1361V1269Q563 1254 522 1224T459 1155T437 1083Q437 1061 451 1045T508 1003Q578 959 578 876Q578 811 533 777T419 743Q335 743 284 797T232 938Z" />
<glyph unicode="&#x2019;" glyph-name="quoteright" horiz-adv-x="682" d="M609 1166Q609 1009 510 901T222 743V835Q278 850 319 880T382 949T404 1021Q404 1043 390 1059T334 1102Q263 1145 263 1228Q263 1293 308 1327T422 1361Q506 1361 557 1307T609 1166Z" />
<glyph unicode="&#x201a;" glyph-name="quotesinglbase" horiz-adv-x="682" d="M422 106Q422 -51 323 -159T35 -317V-225Q91 -210 132 -180T195 -111T217 -39Q217 -17 203 -1T147 42Q76 85 76 168Q76 233 121 267T235 301Q319 301 370 247T422 106Z" />
<glyph unicode="&#x201c;" glyph-name="quotedblleft" horiz-adv-x="1024" d="M194 938Q194 1095 293 1203T581 1361V1269Q525 1254 484 1224T421 1155T399 1083Q399 1061 413 1045T470 1003Q540 959 540 876Q540 811 495 777T381 743Q297 743 246 797T194 938ZM614
938Q614 1095 713 1203T1001 1361V1269Q945 1254 904 1224T841 1155T819 1083Q819 1061 833 1045T890 1003Q960 959 960 876Q960 811 915 777T801 743Q717 743 666 797T614 938Z" />
<glyph unicode="&#x201d;" glyph-name="quotedblright" horiz-adv-x="1024" d="M990 1166Q990 1009 891 901T603 743V835Q659 850 700 880T763 949T785 1021Q785 1043 771 1059T715 1102Q644 1145 644 1228Q644 1293 689 1327T803 1361Q887 1361 938 1307T990
1166ZM570 1166Q570 1009 471 901T183 743V835Q239 850 280 880T343 949T365 1021Q365 1043 351 1059T295 1102Q224 1145 224 1228Q224 1293 269 1327T383 1361Q467 1361 518 1307T570 1166Z" />
<glyph unicode="&#x201e;" glyph-name="quotedblbase" horiz-adv-x="1024" d="M811 106Q811 -51 712 -159T424 -317V-225Q480 -210 521 -180T584 -111T606 -39Q606 -17 592 -1T536 42Q465 85 465 168Q465 233 510 267T624 301Q708 301 759 247T811 106ZM391 106Q391
-51 292 -159T4 -317V-225Q60 -210 101 -180T164 -111T186 -39Q186 -17 172 -1T116 42Q45 85 45 168Q45 233 90 267T204 301Q288 301 339 247T391 106Z" />
<glyph unicode="&#x2022;" glyph-name="bullet" horiz-adv-x="717" d="M373 401Q259 401 178 481T96 678Q96 794 177 874T373 955Q487 955 568 875T650 678Q650 562 569 482T373 401Z" />
<glyph unicode="&#x2039;" glyph-name="guilsinglleft" horiz-adv-x="682" d="M507 851H607L346 462L470 74H370L112 429L124 495L507 851Z" />
<glyph unicode="&#x203a;" glyph-name="guilsinglright" horiz-adv-x="682" d="M129 74H29L289 463L166 852H266L523 496L511 430L129 74Z" />
</font>
</defs>
</svg>
