<?xml version="1.0" standalone="no"?>
<!DOCTYPE svg PUBLIC "-//W3C//DTD SVG 1.1//EN" "http://www.w3.org/Graphics/SVG/1.1/DTD/svg11.dtd">
<svg xmlns="http://www.w3.org/2000/svg">
<defs >
<font id="YesevaOne" horiz-adv-x="617" ><font-face
    font-family="Yeseva One"
    units-per-em="1000"
    panose-1="0 0 5 0 0 0 0 0 0 0"
    ascent="915"
    descent="-240"
    alphabetic="0" />
<glyph unicode=" " glyph-name="space" horiz-adv-x="280" />
<glyph unicode="!" glyph-name="exclam" horiz-adv-x="310" d="M60 600Q60 652 87 683T155 715Q195 715 222 684T250 600L170 215H140L60 600ZM125 -10T103 13T80 70Q80 103 102 126T155 150Q185 150 207 127T230 70Q230 37 208 14T155 -10Q125 -10 103 13Z" />
<glyph unicode="&quot;" glyph-name="quotedbl" horiz-adv-x="370" d="M45 640Q45 673 61 691T105 710Q132 710 148 692T165 640L125 445H85L45 640ZM205 640Q205 673 221 691T265 710Q292 710 308 692T325 640L285 445H245L205 640Z" />
<glyph unicode="#" glyph-name="numbersign" horiz-adv-x="650" d="M85 0L132 185H20V235H145L204 465H70V515H217L265 700H325L277 515H457L505 700H565L517 515H630V465H504L445 235H580V185H432L385 0H325L372 185H192L145 0H85ZM205 235H385L444 465H264L205 235Z" />
<glyph unicode="$" glyph-name="dollar" horiz-adv-x="595" d="M290 -15Q222 -14 160 18Q136 31 115 50Q101 27 80 9Q62 -4 60 -5H35V185H75Q90 136 117 97Q178 10 275 10Q287 10 290 11V266L244 293Q179 331 140 360T73 434T45 540Q45 589 72 628T155 691T290
715V780H320V712Q376 702 414 677Q434 665 450 650Q467 676 485 691Q503 704 505 705H530V515H490Q476 563 453 599Q430 636 397 661T320 689V441Q348 423 380 405Q442 370 479 342T543 274T570 180Q570 129 542 86T458 17T320 -14V-80H290V-15ZM290 687Q257 679
236 650T215 580Q215 544 234 516T290 461V687ZM357 29T378 60T400 135Q400 168 379 195T320 248V17Q357 29 378 60Z" />
<glyph unicode="%" glyph-name="percent" horiz-adv-x="750" d="M148 360T111 382T52 443T30 535Q30 587 51 626T110 688T195 710Q242 710 279 688T338 627T360 535Q360 483 339 444T280 382T195 360Q148 360 111 382ZM90 0L605 700H660L145 0H90ZM218 380T234
415T250 535Q250 620 234 655T195 690Q172 690 156 655T140 535Q140 450 156 415T195 380Q218 380 234 415ZM508 -10T471 12T412 73T390 165Q390 217 411 256T470 318T555 340Q602 340 639 318T698 257T720 165Q720 113 699 74T640 12T555 -10Q508 -10 471 12ZM578
10T594 45T610 165Q610 250 594 285T555 320Q532 320 516 285T500 165Q500 80 516 45T555 10Q578 10 594 45Z" />
<glyph unicode="&amp;" glyph-name="ampersand" horiz-adv-x="690" d="M20 -15T20 160Q20 212 47 247T117 309Q161 333 215 345L160 425Q137 458 124 490T110 560Q110 603 133 638T203 694T315 715Q368 715 417 682Q438 668 455 650Q472 676 490 691Q508 704 510
705H535V515H495Q482 560 458 602Q434 641 405 665T335 690Q304 690 282 666T260 600Q260 567 278 534T322 465L500 215Q509 232 517 252Q535 298 535 345L455 375V390H640V375L560 345Q560 295 538 237Q526 209 517 190L630 30L680 15V0H540Q499 0 470 13T425
50Q408 30 388 17Q340 -15 280 -15Q20 -15 20 160ZM341 10T379 40Q399 56 410 70L230 325Q218 312 210 291Q190 246 190 160Q190 88 221 49T300 10Q341 10 379 40Z" />
<glyph unicode="&apos;" glyph-name="quotesingle" horiz-adv-x="210" d="M45 640Q45 673 61 691T105 710Q132 710 148 692T165 640L125 445H85L45 640Z" />
<glyph unicode="(" glyph-name="parenleft" horiz-adv-x="355" d="M207 -159T129 -30T50 265Q50 430 127 557T330 770L340 755Q281 678 251 550T220 265Q220 108 250 -20T340 -225L330 -240Q207 -159 129 -30Z" />
<glyph unicode=")" glyph-name="parenright" horiz-adv-x="355" d="M15 -225Q74 -148 104 -20T135 265Q135 422 105 550T15 755L25 770Q150 685 227 558T305 265Q305 100 227 -29T25 -240L15 -225Z" />
<glyph unicode="*" glyph-name="asterisk" horiz-adv-x="390" d="M176 370T163 383T150 415L180 515L110 440Q99 433 83 433Q70 433 60 438T45 455Q40 467 40 476Q40 488 46 498T65 515L165 540L65 565Q53 571 47 581T40 604Q40 625 52 636T83 647Q99 647 110
640L180 565L150 665Q150 684 163 697T195 710Q214 710 227 697T240 665L210 565L280 640Q291 647 307 647Q320 647 330 642T345 625Q350 613 350 604Q350 592 344 582T325 565L225 540L325 515Q337 509 343 499T350 476Q350 455 338 444T307 433Q291 433 280 440L210
515L240 415Q240 396 227 383T195 370Q176 370 163 383Z" />
<glyph unicode="+" glyph-name="plus" horiz-adv-x="515" d="M235 95V310H35V355H235V570H280V355H480V310H280V95H235Z" />
<glyph unicode="," glyph-name="comma" horiz-adv-x="245" d="M70 -105Q91 -98 112 -82Q155 -50 165 5L152 -3Q139 -10 120 -10Q90 -10 68 12T45 65Q45 95 67 117T120 140Q155 140 177 116T200 50Q200 -42 140 -94Q114 -118 80 -130L70 -105Z" />
<glyph unicode="-" glyph-name="hyphen" horiz-adv-x="470" d="M35 300V345H435V300H35Z" />
<glyph unicode="." glyph-name="period" horiz-adv-x="240" d="M90 -10T68 12T45 65Q45 95 67 117T120 140Q150 140 172 118T195 65Q195 35 173 13T120 -10Q90 -10 68 12Z" />
<glyph unicode="/" glyph-name="slash" horiz-adv-x="350" d="M-20 -50L325 750H370L25 -50H-20Z" />
<glyph unicode="0" glyph-name="zero" horiz-adv-x="670" d="M254 -15T188 28T84 153T45 350Q45 464 83 546T188 672T335 715Q416 715 482 672T586 547T625 350Q625 236 587 154T482 28T335 -15Q254 -15 188 28ZM450 5T450 350Q450 695 335 695Q220 695 220 350Q220
5 335 5Q450 5 450 350Z" />
<glyph unicode="1" glyph-name="one" horiz-adv-x="415" d="M70 0V15L140 35V584L35 510L15 535L197 700H305V35L375 15V0H70Z" />
<glyph unicode="2" glyph-name="two" horiz-adv-x="575" d="M30 45Q30 104 53 152T111 237T200 322Q251 367 280 397T329 466T349 550Q349 616 317 653T234 690Q205 690 175 682L154 675V515L141 512Q125 510 114 510Q80 510 60 530T39 585Q39 617 63 647T136
696T254 715Q389 715 454 661T519 510Q519 449 488 405T411 332T289 266Q225 235 186 212T113 155T65 80H435Q442 134 469 170Q480 187 495 200H525V0H30V45Z" />
<glyph unicode="3" glyph-name="three" horiz-adv-x="585" d="M171 -15T123 4T50 53T25 115Q25 149 45 169T100 190Q108 190 116 189T127 187L140 185V25Q141 25 161 17Q187 10 220 10Q290 10 327 52T365 180Q365 267 329 311T230 355H180V380H230Q275 380 305
420T335 535Q335 610 304 650T225 690Q199 690 175 682Q172 681 155 675V515L142 512Q126 510 115 510Q81 510 61 530T40 585Q40 616 64 646T134 695T245 715Q329 715 387 691T475 625T505 535Q505 478 476 445T400 391Q354 373 295 370V365Q361 362 415 342Q535
294 535 180Q535 92 463 39T240 -15Q171 -15 123 4Z" />
<glyph unicode="4" glyph-name="four" horiz-adv-x="600" d="M235 0V15L305 35V185H20L0 215L375 710H470V230H575V185H470V35L540 15V0H235ZM55 230H305V560L55 230Z" />
<glyph unicode="5" glyph-name="five" horiz-adv-x="570" d="M181 -15T133 4T60 53T35 115Q35 149 55 169T110 190Q118 190 126 189T137 187L150 185V25Q151 25 171 17Q197 10 230 10Q290 10 325 59T360 215Q360 320 324 367T220 415Q194 415 171 406T122 382Q101
369 80 350L60 365L100 700H395Q402 754 429 790Q440 807 455 820H485V625H122L95 395Q109 405 136 417Q192 440 240 440Q386 440 458 381T530 215Q530 107 459 46T250 -15Q181 -15 133 4Z" />
<glyph unicode="6" glyph-name="six" horiz-adv-x="620" d="M194 -15T122 75T50 350Q50 530 128 622T345 715Q404 715 448 696T516 646T540 585Q540 551 520 531T465 510Q451 510 437 512L425 515V675L406 682Q384 690 365 690Q316 690 285 664T237 568T220 370Q231
387 247 400Q285 430 335 430Q408 430 462 403T546 326T575 215Q575 108 509 47T320 -15Q194 -15 122 75ZM340 5T359 25T392 90T405 205Q405 275 392 320T358 385T315 405Q274 405 250 365T225 240Q225 113 252 59T320 5Q340 5 359 25Z" />
<glyph unicode="7" glyph-name="seven" horiz-adv-x="530" d="M145 99T172 175T239 306T341 430Q396 490 427 532T475 625H120Q113 571 86 535Q75 518 60 505H30V700H505V655Q505 599 488 551T433 427Q397 356 375 301T336 170T320 0H145Q145 99 172 175Z" />
<glyph unicode="8" glyph-name="eight" horiz-adv-x="615" d="M169 -15T105 35T40 165Q40 220 88 271T205 345Q139 382 105 426T70 535Q70 615 134 665T325 715Q388 715 435 692T509 632T535 555Q535 508 495 464T400 405Q491 365 538 310T585 175Q585 123 553
80T456 11T295 -15Q169 -15 105 35ZM408 442T431 474T455 555Q455 591 438 622T393 671T335 690Q292 690 264 657T235 565Q235 485 370 425Q408 442 431 474ZM349 10T384 45T420 145Q420 193 372 242T245 325Q189 305 157 266T125 165Q125 123 146 88T204 31T285
10Q349 10 384 45Z" />
<glyph unicode="9" glyph-name="nine" horiz-adv-x="620" d="M216 -15T172 4T104 54T80 115Q80 149 100 169T155 190Q163 190 171 189T182 187L195 185V25L214 17Q232 10 255 10Q304 10 335 36T383 132T400 330Q391 315 372 300Q334 270 285 270Q212 270 158 297T74
374T45 485Q45 592 111 653T300 715Q426 715 498 625T570 350Q570 170 492 78T275 -15Q216 -15 172 4ZM346 295T370 335T395 460Q395 587 368 641T300 695Q280 695 261 675T228 610T215 495Q215 425 228 380T262 315T305 295Q346 295 370 335Z" />
<glyph unicode=":" glyph-name="colon" horiz-adv-x="240" d="M90 360T68 382T45 435Q45 465 67 487T120 510Q150 510 172 488T195 435Q195 405 173 383T120 360Q90 360 68 382ZM90 -10T68 12T45 65Q45 95 67 117T120 140Q150 140 172 118T195 65Q195 35 173 13T120
-10Q90 -10 68 12Z" />
<glyph unicode=";" glyph-name="semicolon" horiz-adv-x="245" d="M90 360T68 382T45 435Q45 465 67 487T120 510Q150 510 172 488T195 435Q195 405 173 383T120 360Q90 360 68 382ZM70 -105Q91 -98 112 -82Q155 -50 165 5L152 -3Q139 -10 120 -10Q90 -10 68 12T45
65Q45 95 67 117T120 140Q155 140 177 116T200 50Q200 -42 140 -94Q114 -118 80 -130L70 -105Z" />
<glyph unicode="&lt;" glyph-name="less" horiz-adv-x="505" d="M470 0L25 250L470 500V445L125 250L470 55V0Z" />
<glyph unicode="=" glyph-name="equal" horiz-adv-x="460" d="M35 385V430H425V385H35ZM35 235V280H425V235H35Z" />
<glyph unicode="&gt;" glyph-name="greater" horiz-adv-x="505" d="M35 0V55L380 250L35 445V500L480 250L35 0Z" />
<glyph unicode="?" glyph-name="question" horiz-adv-x="560" d="M225 310Q286 334 318 380T350 510Q350 606 316 648T210 690Q181 690 151 682L130 675V515L117 512Q101 510 90 510Q56 510 36 530T15 585Q15 617 39 647T112 696T230 715Q376 715 450 658T525
510Q525 425 463 369T275 295L270 215H230L225 310ZM215 -10T193 13T170 70Q170 103 192 126T245 150Q275 150 297 127T320 70Q320 37 298 14T245 -10Q215 -10 193 13Z" />
<glyph unicode="@" glyph-name="at" horiz-adv-x="840" d="M316 -100T229 -49T91 92T40 290Q40 398 91 487T229 628T420 680Q524 680 611 629T749 488T800 290Q800 225 777 176T716 101T635 75Q541 75 499 115Q481 133 475 155Q468 133 454 115Q422 75 365 75Q292
75 246 125T200 260Q200 374 265 437T455 500H600V175Q600 138 615 119T655 100Q679 100 704 122T747 188T765 290Q765 390 719 472T593 602T420 650Q326 650 247 603T122 473T75 290Q75 190 121 108T247 -22T420 -70Q486 -70 556 -40Q586 -26 610 -10L625 -35Q601
-54 567 -68Q495 -100 420 -100Q316 -100 229 -49ZM427 110T443 140Q451 154 455 170V475Q345 475 345 260Q345 180 362 145T405 110Q427 110 443 140Z" />
<glyph unicode="A" glyph-name="A" horiz-adv-x="680" d="M-20 15L60 45L335 710H365L650 30L700 15V0H580Q528 0 495 23T446 85L395 205H156L90 45L165 15V0H-20V15ZM166 230H385L275 493L166 230Z" />
<glyph unicode="B" glyph-name="B" horiz-adv-x="680" d="M50 15L110 30V670L50 685V700H320Q472 700 543 652T615 525Q615 471 584 438T505 389Q454 371 395 370V365Q468 362 522 343Q577 325 613 287T650 190Q650 101 577 51T340 0H50V15ZM320 380Q353 380 381
398T427 450T445 525Q445 569 428 603T382 656T320 675H275V380H320ZM340 25Q402 25 441 69T480 190Q480 267 441 311T340 355H275V25H340Z" />
<glyph unicode="C" glyph-name="C" horiz-adv-x="650" d="M225 -15T135 80T45 350Q45 465 84 547T195 672T361 715Q418 715 476 682Q498 670 520 650Q537 676 555 691Q573 704 575 705H600V515H560Q547 563 521 602Q497 640 462 665T380 690Q311 690 266 610T220
350Q220 167 269 89T405 10Q452 10 494 36T563 107T590 200H615Q615 143 585 94T502 15T385 -15Q225 -15 135 80Z" />
<glyph unicode="D" glyph-name="D" horiz-adv-x="715" d="M50 15L110 30V670L50 685V700H305Q484 700 579 608T675 350Q675 184 580 92T305 0H50V15ZM305 25Q398 25 449 100T500 350Q500 524 449 599T305 675H275V25H305Z" />
<glyph unicode="E" glyph-name="E" horiz-adv-x="645" d="M50 15L110 30V670L50 685V700H585V520H555Q536 535 522 558Q490 612 490 675H275V360H390Q397 398 416 431Q424 446 435 460H465V235H435Q424 249 416 264Q397 297 390 335H275V25H510Q510 88 542 142Q556
165 575 180H605V0H50V15Z" />
<glyph unicode="F" glyph-name="F" horiz-adv-x="610" d="M50 15L110 30V670L50 685V700H585V520H555Q536 535 522 558Q490 612 490 675H275V360H390Q397 398 416 431Q424 446 435 460H465V235H435Q424 249 416 264Q397 297 390 335H275V30L335 15V0H50V15Z" />
<glyph unicode="G" glyph-name="G" horiz-adv-x="700" d="M249 -15T185 28T83 153T45 350Q45 465 84 547T195 672T361 715Q418 715 476 682Q498 670 520 650Q537 676 555 691Q573 704 575 705H600V515H560Q547 563 521 602Q497 640 462 665T380 690Q311 690 266
610T220 350Q220 170 260 95T365 20Q402 20 432 60Q443 75 455 100V330L395 345V360H680V345L620 330V-5H605Q532 -5 494 35Q477 53 470 75Q456 50 437 30Q392 -15 325 -15Q249 -15 185 28Z" />
<glyph unicode="H" glyph-name="H" horiz-adv-x="765" d="M50 0V15L110 30V670L50 685V700H335V685L275 670V360H490V670L430 685V700H715V685L655 670V30L715 15V0H430V15L490 30V335H275V30L335 15V0H50Z" />
<glyph unicode="I" glyph-name="I" horiz-adv-x="385" d="M50 0V15L110 30V670L50 685V700H335V685L275 670V30L335 15V0H50Z" />
<glyph unicode="J" glyph-name="J" horiz-adv-x="550" d="M93 -15T47 17T0 95Q0 129 20 149T75 170Q83 170 91 169T102 167L115 165V15Q122 11 129 10Q146 5 165 5Q285 5 285 200V670L225 685V700H510V685L450 670V200Q450 96 385 41T185 -15Q93 -15 47 17Z" />
<glyph unicode="K" glyph-name="K" horiz-adv-x="690" d="M50 15L110 30V670L50 685V700H335V685L275 670V356L520 655L445 685V700H635V685L555 655L380 440L650 30L700 15V0H560Q515 0 484 22T425 85L275 315V30L335 15V0H50V15Z" />
<glyph unicode="L" glyph-name="L" horiz-adv-x="610" d="M50 15L110 30V670L50 685V700H335V685L275 670V25H490Q490 88 522 142Q536 165 555 180H585V0H50V15Z" />
<glyph unicode="M" glyph-name="M" horiz-adv-x="985" d="M140 575V45L220 15V0H30V15L110 45V670L50 685V700H175Q227 700 257 679T310 615L528 198L695 615Q712 659 741 679T830 700H935V685L875 670V30L935 15V0H650V15L710 30V575L475 -10H445L140 575Z" />
<glyph unicode="N" glyph-name="N" horiz-adv-x="740" d="M140 530V45L220 15V0H30V15L110 45V665L40 685V700H145Q198 700 228 681T285 630L605 255V655L525 685V700H715V685L635 655V-15H605L140 530Z" />
<glyph unicode="O" glyph-name="O" horiz-adv-x="740" d="M272 -15T199 27T85 152T45 350Q45 466 85 548T198 672T370 715Q468 715 541 673T655 548T695 350Q695 234 655 152T542 28T370 -15Q272 -15 199 27ZM409 5T442 38T498 148T520 350Q520 475 498 552T443
662T370 695Q331 695 298 662T242 552T220 350Q220 225 242 148T297 38T370 5Q409 5 442 38Z" />
<glyph unicode="P" glyph-name="P" horiz-adv-x="675" d="M50 15L110 30V670L50 685V700H330Q496 700 568 646T640 485Q640 379 568 325T330 270H275V30L335 15V0H50V15ZM330 295Q393 295 431 343T470 485Q470 578 432 626T330 675H275V295H330Z" />
<glyph unicode="Q" glyph-name="Q" horiz-adv-x="740" d="M416 -170T375 -149T312 -90T290 -5Q175 19 110 110T45 350Q45 466 85 548T198 672T370 715Q468 715 541 673T655 548T695 350Q695 202 630 111T450 -5Q450 -140 500 -140Q514 -140 522 -135Q523 -135
530 -130L540 -155Q536 -158 524 -163Q506 -170 470 -170Q416 -170 375 -149ZM409 5T442 38T498 148T520 350Q520 475 498 552T443 662T370 695Q331 695 298 662T242 552T220 350Q220 225 242 148T297 38T370 5Q409 5 442 38Z" />
<glyph unicode="R" glyph-name="R" horiz-adv-x="700" d="M50 15L110 30V670L50 685V700H315Q485 700 560 649T635 505Q635 443 602 405T517 347Q462 326 400 325V320Q437 318 465 309Q535 287 560 230L650 30L700 15V0H560Q478 0 440 85L340 310H275V30L345 15V0H50V15ZM315
335Q385 335 425 379T465 505Q465 587 425 631T315 675H275V335H315Z" />
<glyph unicode="S" glyph-name="S" horiz-adv-x="595" d="M224 -15T162 17Q134 31 115 50Q101 27 80 9Q62 -4 60 -5H35V185H75Q90 136 117 97Q178 10 275 10Q332 10 366 44T400 135Q400 168 381 194T332 240T251 290Q185 327 144 357T74 432T45 540Q45 589 72
628T155 691T290 715Q348 715 406 682Q428 670 450 650Q467 676 485 691Q503 704 505 705H530V515H490Q477 563 451 602Q427 640 392 665T310 690Q271 690 243 659T215 580Q215 543 236 514T289 462T375 409Q438 373 477 345T543 276T570 180Q570 126 539 82T446
11T295 -15Q224 -15 162 17Z" />
<glyph unicode="T" glyph-name="T" horiz-adv-x="635" d="M175 15L235 30V675H120Q120 614 87 558Q73 535 55 520H25V700H610V520H580Q561 535 547 558Q515 612 515 675H400V30L460 15V0H175V15Z" />
<glyph unicode="U" glyph-name="U" horiz-adv-x="710" d="M247 -15T171 54T95 250V670L35 685V700H320V685L260 670V250Q260 121 300 66T415 10Q461 10 502 39T569 123T595 250V655L515 685V700H705V685L625 655V250Q625 169 595 109T513 17T395 -15Q247 -15 171 54Z" />
<glyph unicode="V" glyph-name="V" horiz-adv-x="665" d="M30 670L-20 685V700H100Q152 700 185 677T235 615L412 212L575 655L500 685V700H685V685L605 655L360 -10H330L30 670Z" />
<glyph unicode="W" glyph-name="W" horiz-adv-x="985" d="M35 675L-20 685V700H100Q153 700 187 676T235 615L386 230L474 488L400 675L345 685V700H465Q518 700 551 677T600 615L751 230L895 655L820 685V700H1005V685L925 655L700 -10H670L490 447L335 -10H305L35 675Z" />
<glyph unicode="X" glyph-name="X" horiz-adv-x="665" d="M15 15L95 45L265 296L45 670L-5 685V700H140Q190 700 219 679T275 615L371 451L510 655L435 685V700H625V685L545 655L388 424L620 30L670 15V0H525Q476 0 446 21T390 85L282 268L130 45L205 15V0H15V15Z" />
<glyph unicode="Y" glyph-name="Y" horiz-adv-x="665" d="M195 15L255 30V260L50 670L0 685V700H125Q177 700 208 678T260 615L408 320L560 655L485 685V700H675V685L595 655L420 270V30L480 15V0H195V15Z" />
<glyph unicode="Z" glyph-name="Z" horiz-adv-x="635" d="M40 25L411 675H150Q150 614 117 558Q103 535 85 520H55V700H595V675L225 25H495Q495 88 527 142Q541 165 560 180H590V0H40V25Z" />
<glyph unicode="[" glyph-name="bracketleft" horiz-adv-x="350" d="M85 -220V720H340V695H245V-195H340V-220H85Z" />
<glyph unicode="\" glyph-name="backslash" horiz-adv-x="350" d="M325 -50L-20 750H25L370 -50H325Z" />
<glyph unicode="]" glyph-name="bracketright" horiz-adv-x="350" d="M10 -220V-195H105V695H10V720H265V-220H10Z" />
<glyph unicode="^" glyph-name="asciicircum" horiz-adv-x="480" d="M30 430L240 720L450 430H390L240 635L90 430H30Z" />
<glyph unicode="_" glyph-name="underscore" horiz-adv-x="390" d="M0 -100V-55H390V-100H0Z" />
<glyph unicode="`" glyph-name="grave" horiz-adv-x="220" d="M155 550L20 700H150L190 550H155Z" />
<glyph unicode="a" glyph-name="a" horiz-adv-x="605" d="M146 -15T98 23T50 120Q50 159 67 197Q74 215 85 230Q126 240 174 248Q282 266 365 270V300Q365 411 338 453T255 495Q234 495 219 490L205 485V335L192 332Q176 330 165 330Q131 330 111 350T90 405Q90
451 136 483T275 515Q353 515 409 488T495 412T525 300V30L585 15V0H495Q435 0 402 37Q388 52 380 75Q366 50 347 30Q302 -15 235 -15Q146 -15 98 23ZM312 20T342 60Q353 75 365 100V245Q319 245 277 240Q246 236 235 235Q230 224 225 205Q215 167 215 130Q215
74 232 47T275 20Q312 20 342 60Z" />
<glyph unicode="b" glyph-name="b" horiz-adv-x="615" d="M303 -15T258 30Q239 50 225 75Q218 53 201 35Q163 -5 90 -5H80V670L20 685V700H150Q240 700 240 610V475Q256 488 271 495Q307 515 355 515Q456 515 515 447T575 250Q575 165 548 106T475 16T370 -15Q303
-15 258 30ZM362 20T383 70T405 250Q405 385 382 435T315 485Q289 485 262 465Q254 459 240 445V100Q249 77 262 60Q292 20 330 20Q362 20 383 70Z" />
<glyph unicode="c" glyph-name="c" horiz-adv-x="530" d="M182 -15T111 55T40 250Q40 374 111 444T310 515Q402 515 448 483T495 405Q495 371 475 351T420 330Q406 330 392 332L380 335V485L366 490Q351 495 330 495Q273 495 242 441T210 250Q210 117 241 64T330
10Q369 10 402 28T455 77T475 140H500Q500 100 476 64T409 7T310 -15Q182 -15 111 55Z" />
<glyph unicode="d" glyph-name="d" horiz-adv-x="620" d="M186 -15T140 15T67 105T40 250Q40 378 99 446T260 515Q308 515 344 495Q359 488 375 475V670L315 685V700H445Q535 700 535 610V30L595 15V0H505Q445 0 412 37Q398 52 390 75Q377 50 357 30Q312 -15 245
-15Q186 -15 140 15ZM322 20T352 60Q363 75 375 100V445Q364 456 352 465Q325 485 300 485Q257 485 234 435T210 250Q210 121 231 71T285 20Q322 20 352 60Z" />
<glyph unicode="e" glyph-name="e" horiz-adv-x="560" d="M182 -15T111 55T40 250Q40 331 71 391T157 483T285 515Q357 515 411 488T495 416T525 315Q525 290 520 272L515 255Q472 246 422 240Q317 225 210 225Q210 109 242 60T330 10Q369 10 402 28T455 77T475
140H500Q500 100 476 64T409 7T310 -15Q182 -15 111 55ZM274 250T314 255Q331 256 350 260Q351 265 355 282Q360 307 360 335Q360 418 338 456T285 495Q210 495 210 250Q274 250 314 255Z" />
<glyph unicode="f" glyph-name="f" horiz-adv-x="425" d="M35 15L95 30V455H25V480H95V530Q95 583 120 625T193 691T305 715Q357 715 394 700T451 659T470 605Q470 571 450 551T395 530Q381 530 367 532L355 535V690L346 692Q342 693 337 694T325 695Q291 695
273 660T255 530V480H415V455H255V30L315 15V0H35V15Z" />
<glyph unicode="g" glyph-name="g" horiz-adv-x="605" d="M186 -215T130 -199T50 -158T25 -105Q25 -71 45 -51T100 -30Q108 -30 129 -33L140 -35V-175Q152 -179 178 -185Q224 -195 265 -195Q387 -195 443 -161T500 -75Q500 -10 380 -10H190Q115 -10 75 21T35 100Q35
148 82 185Q101 199 130 210Q93 233 77 264T60 340Q60 414 116 459T280 505Q327 505 366 496T430 470Q438 487 451 500Q481 530 525 530Q559 530 582 507T605 445Q605 416 590 398T550 380Q539 380 525 382L515 385V505Q489 505 466 480Q457 471 450 455Q500 411
500 340Q500 266 444 221T280 175Q208 175 150 200L130 190Q120 184 115 179T110 165Q110 148 127 139T190 130H380Q455 130 497 87T540 -35Q540 -115 474 -165T275 -215Q186 -215 130 -199ZM313 195T331 227T350 340Q350 421 332 453T280 485Q247 485 229 453T210
340Q210 259 228 227T280 195Q313 195 331 227Z" />
<glyph unicode="h" glyph-name="h" horiz-adv-x="665" d="M40 15L100 30V670L40 685V700H170Q260 700 260 610V450Q275 470 291 482Q334 515 390 515Q446 515 490 492T560 430T585 350V30L645 15V0H515Q425 0 425 90V350Q425 413 403 446T350 480Q312 480 282
440Q269 423 260 400V30L320 15V0H40V15Z" />
<glyph unicode="i" glyph-name="i" horiz-adv-x="340" d="M40 15L100 30V470L40 485V500H170Q260 500 260 410V30L320 15V0H40V15ZM140 560T120 580T100 630Q100 660 120 680T170 700Q200 700 220 680T240 630Q240 600 220 580T170 560Q140 560 120 580Z" />
<glyph unicode="j" glyph-name="j" horiz-adv-x="330" d="M-40 -215T-75 -190T-110 -120Q-110 -86 -90 -66T-35 -45Q-27 -45 -19 -46T-8 -48L5 -50V-190L11 -193Q21 -195 25 -195Q56 -195 75 -158T95 -30V470L35 485V500H165Q255 500 255 410V-30Q255 -83 229
-125T153 -191T35 -215Q-40 -215 -75 -190ZM135 560T115 580T95 630Q95 660 115 680T165 700Q195 700 215 680T235 630Q235 600 215 580T165 560Q135 560 115 580Z" />
<glyph unicode="k" glyph-name="k" horiz-adv-x="600" d="M40 15L100 30V670L40 685V700H170Q260 700 260 610V260L445 455L370 485V500H560V485L480 455L365 335L560 30L610 15V0H480Q432 0 402 21T345 85L260 220V30L320 15V0H40V15Z" />
<glyph unicode="l" glyph-name="l" horiz-adv-x="340" d="M40 15L100 30V670L40 685V700H170Q260 700 260 610V30L320 15V0H40V15Z" />
<glyph unicode="m" glyph-name="m" horiz-adv-x="950" d="M40 15L100 30V470L40 485V500H130Q189 500 223 462Q236 447 245 425Q260 453 277 470Q322 515 380 515Q438 515 482 490T550 420Q565 449 582 467Q628 515 685 515Q738 515 780 493T846 433T870 350V30L930
15V0H800Q710 0 710 90V350Q710 415 690 447T645 480Q616 480 586 440Q574 421 565 400V30L625 15V0H345V15L405 30V350Q405 415 385 447T340 480Q311 480 281 440Q269 421 260 400V30L320 15V0H40V15Z" />
<glyph unicode="n" glyph-name="n" horiz-adv-x="665" d="M40 15L100 30V470L40 485V500H130Q189 500 223 462Q236 447 245 425Q259 451 278 470Q323 515 390 515Q446 515 490 492T560 430T585 350V30L645 15V0H515Q425 0 425 90V350Q425 413 403 446T350 480Q312
480 282 440Q269 423 260 400V30L320 15V0H40V15Z" />
<glyph unicode="o" glyph-name="o" horiz-adv-x="610" d="M181 -15T111 55T40 250Q40 374 110 444T305 515Q429 515 499 445T570 250Q570 126 500 56T305 -15Q181 -15 111 55ZM345 5T372 61T400 250Q400 383 373 439T305 495Q265 495 238 439T210 250Q210 117
237 61T305 5Q345 5 372 61Z" />
<glyph unicode="p" glyph-name="p" horiz-adv-x="625" d="M30 -185L90 -170V470L30 485V500H120Q179 500 213 462Q226 447 235 425Q248 451 268 470Q313 515 380 515Q439 515 485 485T558 395T585 250Q585 122 526 54T365 -15Q317 -15 281 5Q266 12 250 25V-170L310
-185V-200H30V-185ZM368 15T391 65T415 250Q415 379 394 429T340 480Q302 480 272 440Q259 423 250 400V55Q264 41 272 35Q299 15 325 15Q368 15 391 65Z" />
<glyph unicode="q" glyph-name="q" horiz-adv-x="615" d="M315 -185L375 -170V25Q359 12 344 5Q308 -15 260 -15Q159 -15 100 53T40 250Q40 335 67 394T140 484T245 515Q312 515 357 470Q376 451 390 425Q397 447 414 465Q452 505 525 505H535V-170L595 -185V-200H315V-185ZM325
15T352 35Q364 44 375 55V400Q363 425 352 440Q322 480 285 480Q253 480 232 430T210 250Q210 115 233 65T300 15Q325 15 352 35Z" />
<glyph unicode="r" glyph-name="r" horiz-adv-x="505" d="M40 15L100 30V470L40 485V500H130Q189 500 223 462Q236 447 245 425Q260 447 282 465Q332 505 394 505Q447 505 473 481T500 410Q500 376 480 356T425 335Q411 335 397 337L385 340V480Q334 480 292 440Q272
420 260 400V30L320 15V0H40V15Z" />
<glyph unicode="s" glyph-name="s" horiz-adv-x="540" d="M213 -15T164 12Q140 25 125 40Q109 18 90 6Q81 0 70 -5H45V165H85Q98 123 123 87Q176 10 255 10Q297 10 318 30T340 90Q340 123 311 145T218 201Q164 228 131 249T74 303T50 380Q50 440 101 477T260 515Q313
515 358 487Q380 474 396 460Q409 478 431 494Q448 504 451 505H476V335H436Q421 378 399 412Q349 490 280 490Q253 490 234 470T215 420Q215 382 247 357T344 298Q397 271 428 251T482 200T505 130Q505 -15 275 -15Q213 -15 164 12Z" />
<glyph unicode="t" glyph-name="t" horiz-adv-x="450" d="M234 -15T186 9T111 75T85 170V475H15V500H85V550Q85 640 175 640H245V500H385V475H245V170Q245 78 264 44T320 10Q356 10 383 45T410 140H435Q435 66 398 26T300 -15Q234 -15 186 9Z" />
<glyph unicode="u" glyph-name="u" horiz-adv-x="650" d="M224 -15T180 8T110 70T85 150V470L25 485V500H155Q245 500 245 410V150Q245 87 267 54T320 20Q357 20 387 60Q398 75 410 100V470L350 485V500H630V485L570 470V-5H560Q487 -5 449 35Q432 53 425 75Q411
50 392 30Q347 -15 280 -15Q224 -15 180 8Z" />
<glyph unicode="v" glyph-name="v" horiz-adv-x="560" d="M30 470L-20 485V500H105Q157 500 187 479T240 415L359 184L470 455L395 485V500H580V485L500 455L310 -10H280L30 470Z" />
<glyph unicode="w" glyph-name="w" horiz-adv-x="835" d="M30 470L-20 485V500H95Q148 500 179 478T230 415L340 185L397 331L330 470L280 485V500H395Q448 500 479 478T530 415L640 185L745 455L670 485V500H855V485L775 455L590 -10H560L412 298L290 -10H260L30 470Z" />
<glyph unicode="x" glyph-name="x" horiz-adv-x="555" d="M10 15L90 45L214 204L45 470L-5 485V500H130Q178 500 208 479T265 415L316 334L410 455L335 485V500H525V485L445 455L331 310L510 30L560 15V0H425Q377 0 347 21T290 85L230 179L125 45L200 15V0H10V15Z" />
<glyph unicode="y" glyph-name="y" horiz-adv-x="560" d="M105 -215T80 -191T55 -125Q55 -87 75 -66T130 -45Q138 -45 146 -46T157 -48L170 -50V-185Q199 -180 221 -153T270 -60L290 -10L30 470L-20 485V500H105Q157 500 187 479T240 415L365 184L470 455L395
485V500H580V485L500 455L300 -60Q268 -142 232 -178T150 -215Q105 -215 80 -191Z" />
<glyph unicode="z" glyph-name="z" horiz-adv-x="545" d="M40 25L325 475H145Q145 420 112 364Q99 343 80 325H50V500H505V475L220 25H410Q410 82 442 136Q456 159 475 175H505V0H40V25Z" />
<glyph unicode="{" glyph-name="braceleft" horiz-adv-x="370" d="M240 -220T196 -200T128 -145T105 -70V135Q105 186 85 210T30 235V265Q65 265 85 289T105 365V570Q105 611 128 645T195 699T300 720H360V695H350Q311 695 288 669T265 590V405Q265 311 185 271Q151
253 105 250Q151 247 185 229Q265 189 265 95V-90Q265 -142 288 -168T350 -195H360V-220H300Q240 -220 196 -200Z" />
<glyph unicode="|" glyph-name="bar" horiz-adv-x="225" d="M85 -200V700H140V-200H85Z" />
<glyph unicode="}" glyph-name="braceright" horiz-adv-x="370" d="M10 -195H20Q59 -195 82 -169T105 -90V95Q105 189 185 229Q219 247 265 250Q219 253 185 271Q105 311 105 405V590Q105 642 82 668T20 695H10V720H70Q130 720 174 700T242 645T265 570V365Q265
314 285 290T340 265V235Q305 235 285 211T265 135V-70Q265 -111 242 -145T175 -199T70 -220H10V-195Z" />
<glyph unicode="~" glyph-name="asciitilde" horiz-adv-x="515" d="M30 329T66 374T165 420Q198 420 223 410T282 380Q313 362 334 354T380 345Q413 345 436 367T460 420H485Q485 325 450 280T350 235Q317 235 293 245T236 274Q204 293 183 301T135 310Q102 310
79 288T55 235H30Q30 329 66 374Z" />
<glyph unicode="&#xa0;" glyph-name="uni00A0" horiz-adv-x="280" />
<glyph unicode="&#xa1;" glyph-name="exclamdown" horiz-adv-x="310" d="M125 350T103 373T80 430Q80 463 102 486T155 510Q185 510 207 487T230 430Q230 397 208 374T155 350Q125 350 103 373ZM115 -215T88 -184T60 -100L140 285H170L250 -100Q250 -152 223 -183T155
-215Q115 -215 88 -184Z" />
<glyph unicode="&#xa2;" glyph-name="cent" horiz-adv-x="530" d="M300 -15Q175 -12 108 57T40 250Q40 371 108 441T300 515V580H330V514Q411 510 453 479T495 405Q495 371 475 351T420 330Q406 330 392 332L380 335V485L366 490Q351 495 330 495V10Q369 10 402
28T455 77T475 140H500Q500 101 479 68T419 12T330 -14V-80H300V-15ZM300 491Q257 481 234 424T210 250Q210 135 233 81T300 13V491Z" />
<glyph unicode="&#xa3;" glyph-name="sterling" horiz-adv-x="600" d="M35 24Q68 28 87 60T110 170L118 350H45V380H119L125 510Q130 606 189 660T355 715Q446 715 488 684T530 606Q530 572 510 552T455 531Q441 531 427 533L415 536V686L406 690Q394 695 375
695Q337 695 317 655T290 510L284 380H460V350H283L275 170Q271 105 226 73Q207 60 180 55H475Q482 109 509 145Q520 162 535 175H565V0H35V24Z" />
<glyph unicode="&#xa4;" glyph-name="currency" horiz-adv-x="690" d="M65 15L125 30V175H50V205H125V270H50V300H125V670L65 685V700H345Q511 700 583 646T655 485Q655 379 583 325T345 270H290V205H540V175H290V30L350 15V0H65V15ZM345 300Q408 300 446 347T485
485Q485 578 447 626T345 675H290V300H345Z" />
<glyph unicode="&#xa5;" glyph-name="yen" horiz-adv-x="665" d="M195 15L255 30V190H130V220H255V260L245 280H130V310H230L50 670L0 685V700H125Q177 700 208 678T260 615L408 322L560 655L485 685V700H675V685L595 655L437 310H545V280H424L420 270V220H545V190H420V30L480
15V0H195V15Z" />
<glyph unicode="&#xa6;" glyph-name="brokenbar" horiz-adv-x="225" d="M85 340V700H140V340H85ZM85 -200V160H140V-200H85Z" />
<glyph unicode="&#xa7;" glyph-name="section" horiz-adv-x="520" d="M138 -210T92 -178T45 -100Q45 -66 65 -46T120 -25Q128 -25 136 -26T147 -28L160 -30V-180Q167 -184 174 -185Q191 -190 210 -190Q260 -190 287 -161T315 -75Q315 -44 298 -20T256 22T187 63Q138
90 110 110T61 162T40 235Q40 280 74 316T175 370Q121 405 91 447T60 550Q60 621 117 665T285 710Q342 710 381 695T440 654T460 600Q460 566 440 546T385 525Q371 525 357 527L345 530V685L332 687Q329 687 321 688T305 690Q273 690 249 661T225 580Q225 534 255
504T345 437Q389 410 416 389T461 337T480 265Q480 223 446 189T345 140Q408 105 444 64T480 -45Q480 -121 419 -165T230 -210Q138 -210 92 -178ZM325 164Q330 182 330 215Q330 268 265 317Q236 339 200 355Q196 350 195 341Q190 323 190 290Q190 235 255 188Q287
165 320 150L325 164Z" />
<glyph unicode="&#xa8;" glyph-name="dieresis" horiz-adv-x="365" d="M60 560T40 580T20 630Q20 660 40 680T90 700Q120 700 140 680T160 630Q160 600 140 580T90 560Q60 560 40 580ZM245 560T225 580T205 630Q205 660 225 680T275 700Q305 700 325 680T345 630Q345
600 325 580T275 560Q245 560 225 580Z" />
<glyph unicode="&#xa9;" glyph-name="copyright" horiz-adv-x="840" d="M316 -40T229 11T91 152T40 350Q40 458 91 547T229 688T420 740Q524 740 611 689T749 548T800 350Q800 242 749 153T611 12T420 -40Q316 -40 229 11ZM517 -10T595 36T719 164T765 350Q765
454 720 536T596 664T420 710Q323 710 245 664T121 536T75 350Q75 246 120 164T244 36T420 -10Q517 -10 595 36ZM340 135T283 191T225 350Q225 452 281 508T440 565Q518 565 559 536T600 465Q600 435 583 418T535 400Q521 400 507 402L495 405V540L485 542Q482
542 475 543T460 545Q421 545 393 498T365 350Q365 252 393 206T465 160Q513 160 546 192T580 270H605Q605 235 585 204T528 154T445 135Q340 135 283 191Z" />
<glyph unicode="&#xaa;" glyph-name="ordfeminine" horiz-adv-x="415" d="M94 360T62 385T30 450Q30 475 40 497Q45 509 50 515L109 530Q184 545 235 545V580Q235 640 220 665T175 690Q167 690 159 689T148 687L135 685V585L125 582Q111 580 100 580Q77 580 64
593T50 630Q50 664 86 687T195 710Q267 710 306 671T345 560V395L385 385V370H325Q280 370 259 395Q251 404 245 420Q237 402 226 390Q196 360 155 360Q94 360 62 385ZM203 385T221 411Q230 423 235 438V525Q225 525 180 522L155 520Q152 516 147 503Q140 485 140
460Q140 425 154 405T185 385Q203 385 221 411Z" />
<glyph unicode="&#xab;" glyph-name="guillemotleft" horiz-adv-x="440" d="M275 20L15 250L275 480L300 455L115 250L300 45L275 20ZM385 75L195 250L385 425L410 400L290 250L410 100L385 75Z" />
<glyph unicode="&#xac;" glyph-name="logicalnot" horiz-adv-x="470" d="M395 220V320H30V365H440V220H395Z" />
<glyph unicode="&#xad;" glyph-name="uni00AD" horiz-adv-x="460" d="M30 300V345H430V300H30Z" />
<glyph unicode="&#xae;" glyph-name="registered" horiz-adv-x="840" d="M316 -40T229 11T91 152T40 350Q40 458 91 547T229 688T420 740Q524 740 611 689T749 548T800 350Q800 242 749 153T611 12T420 -40Q316 -40 229 11ZM517 -10T595 36T719 164T765 350Q765
454 720 536T596 664T420 710Q323 710 245 664T121 536T75 350Q75 246 120 164T244 36T420 -10Q517 -10 595 36ZM210 155L260 165V535L210 545V560H400Q520 560 570 529T620 440Q620 376 550 350Q518 338 480 335Q500 333 518 326Q558 311 575 275L625 165L660
155V140H560Q524 140 500 157T465 200L410 325H390V165L440 155V140H210V155ZM400 345Q439 345 459 369T480 440Q480 484 458 509T400 535H390V345H400Z" />
<glyph unicode="&#xaf;" glyph-name="overscore" horiz-adv-x="300" d="M20 655V700H280V655H20Z" />
<glyph unicode="&#xb0;" glyph-name="degree" horiz-adv-x="370" d="M139 400T104 421T49 477T30 555Q30 597 49 632T103 689T185 710Q231 710 266 689T321 633T340 555Q340 513 321 478T267 421T185 400Q139 400 104 421ZM220 450T242 477T265 555Q265 606 243
633T185 660Q150 660 128 633T105 555Q105 504 127 477T185 450Q220 450 242 477Z" />
<glyph unicode="&#xb1;" glyph-name="plusminus" horiz-adv-x="505" d="M230 135V320H30V365H230V570H275V365H475V320H275V135H230ZM40 50V95H465V50H40Z" />
<glyph unicode="&#xb2;" glyph-name="uni00B2" horiz-adv-x="345" d="M30 400Q30 428 42 449T72 485T120 521Q163 549 184 571T205 630Q205 655 190 672T155 690Q147 690 139 689T128 687L115 685V585L105 582Q91 580 80 580Q57 580 44 593T30 630Q30 664 66 687T175
710Q243 710 279 682T315 610Q315 576 296 553T249 515T174 481Q129 463 103 449T60 415H250Q253 441 272 472Q280 485 290 495H310V370H30V400Z" />
<glyph unicode="&#xb3;" glyph-name="uni00B3" horiz-adv-x="360" d="M102 360T66 383T30 440Q30 463 43 476T80 490Q88 490 95 489T105 487L115 485V385L128 382Q144 380 155 380Q185 380 202 399T220 455Q220 492 204 511T160 530H134V550H160Q177 550 191 569T205
620Q205 652 191 671T160 690Q152 690 144 689T133 687L120 685V585L110 582Q96 580 85 580Q62 580 49 593T35 630Q35 664 71 687T180 710Q244 710 279 684T315 620Q315 594 300 578T260 552Q234 541 205 540Q242 537 267 527Q330 505 330 455Q330 414 291 387T175
360Q102 360 66 383Z" />
<glyph unicode="&#xb4;" glyph-name="acute" horiz-adv-x="220" d="M30 550L70 700H200L65 550H30Z" />
<glyph unicode="&#xb5;" glyph-name="uni00B5" horiz-adv-x="655" d="M30 -185L90 -170V470L30 485V500H160Q250 500 250 410V160Q250 97 272 64T325 30Q362 30 392 70Q403 85 415 110V470L355 485V500H635V485L575 470V-5H565Q491 -5 454 40Q438 60 430 85Q421
59 406 40Q373 -5 325 -5Q292 -5 269 12Q256 21 250 30V-110Q250 -200 160 -200H30V-185Z" />
<glyph unicode="&#xb6;" glyph-name="paragraph" horiz-adv-x="590" d="M270 270Q154 270 95 326T35 485Q35 588 94 644T270 700H565V670H485V-200H430V670H325V-200H270V270Z" />
<glyph unicode="&#xb7;" glyph-name="middot" horiz-adv-x="280" d="M110 270T88 293T65 350Q65 383 87 406T140 430Q170 430 192 407T215 350Q215 317 193 294T140 270Q110 270 88 293Z" />
<glyph unicode="&#xb8;" glyph-name="cedilla" horiz-adv-x="201" d="M59 -200T37 -198L20 -195V-165Q26 -169 30 -170Q42 -175 56 -175Q79 -175 92 -162T106 -125Q106 -102 92 -89T51 -75V0H86V-50Q129 -50 155 -72T181 -125Q181 -157 154 -178T76 -200Q59 -200
37 -198Z" />
<glyph unicode="&#xb9;" glyph-name="uni00B9" horiz-adv-x="285" d="M65 370V385L105 395V620L45 575L30 590L140 700H215V395L255 385V370H65Z" />
<glyph unicode="&#xba;" glyph-name="ordmasculine" horiz-adv-x="390" d="M148 360T111 382T52 443T30 535Q30 587 51 626T110 688T195 710Q242 710 279 688T338 627T360 535Q360 483 339 444T280 382T195 360Q148 360 111 382ZM218 380T234 415T250 535Q250
620 234 655T195 690Q172 690 156 655T140 535Q140 450 156 415T195 380Q218 380 234 415Z" />
<glyph unicode="&#xbb;" glyph-name="guillemotright" horiz-adv-x="440" d="M165 20L140 45L325 250L140 455L165 480L425 250L165 20ZM55 75L30 100L150 250L30 400L55 425L245 250L55 75Z" />
<glyph unicode="&#xbc;" glyph-name="onequarter" horiz-adv-x="687" d="M55 370V385L95 395V620L35 575L20 590L130 700H205V395L245 385V370H55ZM75 0L590 700H645L130 0H75ZM445 0V15L485 25V75H340L325 100L535 330H595V105H657V75H595V25L635 15V0H445ZM365
105H485V235L365 105Z" />
<glyph unicode="&#xbd;" glyph-name="onehalf" horiz-adv-x="705" d="M55 370V385L95 395V620L35 575L20 590L130 700H205V395L245 385V370H55ZM65 0L580 700H635L120 0H65ZM390 30Q390 58 402 79T432 115T480 151Q523 179 544 201T565 260Q565 285 550 302T515
320Q507 320 499 319T488 317L475 315V215L465 212Q451 210 440 210Q417 210 404 223T390 260Q390 294 426 317T535 340Q603 340 639 312T675 240Q675 206 656 183T609 145T534 111Q489 93 463 79T420 45H610Q613 71 632 102Q640 115 650 125H670V0H390V30Z" />
<glyph unicode="&#xbe;" glyph-name="threequarters" horiz-adv-x="707" d="M102 360T66 383T30 440Q30 463 43 476T80 490Q88 490 95 489T105 487L115 485V385L128 382Q144 380 155 380Q185 380 202 399T220 455Q220 492 204 511T160 530H134V550H160Q177 550
191 569T205 620Q205 652 191 671T160 690Q152 690 144 689T133 687L120 685V585L110 582Q96 580 85 580Q62 580 49 593T35 630Q35 664 71 687T180 710Q244 710 279 684T315 620Q315 594 300 578T260 552Q234 541 205 540Q242 537 267 527Q330 505 330 455Q330
414 291 387T175 360Q102 360 66 383ZM105 0L620 700H675L160 0H105ZM465 0V15L505 25V75H360L345 100L555 330H615V105H677V75H615V25L655 15V0H465ZM385 105H505V235L385 105Z" />
<glyph unicode="&#xbf;" glyph-name="questiondown" horiz-adv-x="560" d="M285 350T263 373T240 430Q240 463 262 486T315 510Q345 510 367 487T390 430Q390 397 368 374T315 350Q285 350 263 373ZM184 -215T110 -158T35 -10Q35 75 97 131T285 205L290 285H330L335
190Q274 166 242 120T210 -10Q210 -106 244 -148T350 -190Q383 -190 409 -183Q429 -176 430 -175V-15L442 -13Q463 -10 470 -10Q504 -10 524 -30T545 -85Q545 -117 521 -147T448 -196T330 -215Q184 -215 110 -158Z" />
<glyph unicode="&#xc0;" glyph-name="Agrave" horiz-adv-x="680" d="M-20 15L60 45L335 710H365L650 30L700 15V0H580Q528 0 495 23T446 85L395 205H156L90 45L165 15V0H-20V15ZM166 230H385L275 493L166 230ZM339 750L204 900H334L374 750H339Z" />
<glyph unicode="&#xc1;" glyph-name="Aacute" horiz-adv-x="680" d="M-20 15L60 45L335 710H365L650 30L700 15V0H580Q528 0 495 23T446 85L395 205H156L90 45L165 15V0H-20V15ZM166 230H385L275 493L166 230ZM322 750L362 900H492L357 750H322Z" />
<glyph unicode="&#xc2;" glyph-name="Acircumflex" horiz-adv-x="680" d="M-20 15L60 45L335 710H365L650 30L700 15V0H580Q528 0 495 23T446 85L395 205H156L90 45L165 15V0H-20V15ZM166 230H385L275 493L166 230ZM205 750L350 915L495 750H460L350 820L240 750H205Z" />
<glyph unicode="&#xc3;" glyph-name="Atilde" horiz-adv-x="680" d="M-20 15L60 45L335 710H365L650 30L700 15V0H580Q528 0 495 23T446 85L395 205H156L90 45L165 15V0H-20V15ZM166 230H385L275 493L166 230ZM375 780T359 787T324 809Q310 820 300 825T277 830Q258
830 245 817T232 785H212Q212 843 235 871T302 900Q324 900 340 893T375 871Q389 861 399 856T422 850Q441 850 454 863T467 895H487Q487 837 464 809T397 780Q375 780 359 787Z" />
<glyph unicode="&#xc4;" glyph-name="Adieresis" horiz-adv-x="680" d="M-20 15L60 45L335 710H365L650 30L700 15V0H580Q528 0 495 23T446 85L395 205H156L90 45L165 15V0H-20V15ZM166 230H385L275 493L166 230ZM227 760T207 780T187 830Q187 860 207 880T257
900Q287 900 307 880T327 830Q327 800 307 780T257 760Q227 760 207 780ZM412 760T392 780T372 830Q372 860 392 880T442 900Q472 900 492 880T512 830Q512 800 492 780T442 760Q412 760 392 780Z" />
<glyph unicode="&#xc5;" glyph-name="Aring" horiz-adv-x="680" d="M-20 15L60 45L335 710H365L650 30L700 15V0H580Q528 0 495 23T446 85L395 205H156L90 45L165 15V0H-20V15ZM166 230H385L275 493L166 230ZM305 750T275 779T245 850Q245 892 275 921T350 950Q395
950 425 921T455 850Q455 808 425 779T350 750Q305 750 275 779ZM374 785T389 803T405 850Q405 879 390 897T350 915Q326 915 311 897T295 850Q295 821 310 803T350 785Q374 785 389 803Z" />
<glyph unicode="&#xc6;" glyph-name="AE" horiz-adv-x="991" d="M-30 15L50 45L416 700H930V520H900Q881 535 867 558Q835 612 835 675H630V360H735Q742 398 761 431Q769 446 780 460H810V235H780Q769 249 761 264Q742 297 735 335H630V25H855Q855 88 887 142Q901
165 920 180H950V0H405V15L465 30V265H208L86 45L161 15V0H-30V15ZM223 290H465V675H438L223 290Z" />
<glyph unicode="&#xc7;" glyph-name="Ccedilla" horiz-adv-x="650" d="M346 -200T324 -198L307 -195V-165Q313 -169 317 -170Q329 -175 343 -175Q366 -175 379 -162T393 -125Q393 -102 379 -89T338 -75V-12Q199 1 122 94T45 350Q45 465 84 547T195 672T361 715Q418
715 476 682Q498 670 520 650Q537 676 555 691Q573 704 575 705H600V515H560Q547 563 521 602Q497 640 462 665T380 690Q311 690 266 610T220 350Q220 167 269 89T405 10Q452 10 494 36T563 107T590 200H615Q615 143 585 94T502 15T385 -15H373V-50Q416 -50 442
-72T468 -125Q468 -157 441 -178T363 -200Q346 -200 324 -198Z" />
<glyph unicode="&#xc8;" glyph-name="Egrave" horiz-adv-x="645" d="M50 15L110 30V670L50 685V700H585V520H555Q536 535 522 558Q490 612 490 675H275V360H390Q397 398 416 431Q424 446 435 460H465V235H435Q424 249 416 264Q397 297 390 335H275V25H510Q510
88 542 142Q556 165 575 180H605V0H50V15ZM352 750L217 900H347L387 750H352Z" />
<glyph unicode="&#xc9;" glyph-name="Eacute" horiz-adv-x="645" d="M50 15L110 30V670L50 685V700H585V520H555Q536 535 522 558Q490 612 490 675H275V360H390Q397 398 416 431Q424 446 435 460H465V235H435Q424 249 416 264Q397 297 390 335H275V25H510Q510
88 542 142Q556 165 575 180H605V0H50V15ZM335 750L375 900H505L370 750H335Z" />
<glyph unicode="&#xca;" glyph-name="Ecircumflex" horiz-adv-x="645" d="M50 15L110 30V670L50 685V700H585V520H555Q536 535 522 558Q490 612 490 675H275V360H390Q397 398 416 431Q424 446 435 460H465V235H435Q424 249 416 264Q397 297 390 335H275V25H510Q510
88 542 142Q556 165 575 180H605V0H50V15ZM218 750L363 915L508 750H473L363 820L253 750H218Z" />
<glyph unicode="&#xcb;" glyph-name="Edieresis" horiz-adv-x="645" d="M50 15L110 30V670L50 685V700H585V520H555Q536 535 522 558Q490 612 490 675H275V360H390Q397 398 416 431Q424 446 435 460H465V235H435Q424 249 416 264Q397 297 390 335H275V25H510Q510
88 542 142Q556 165 575 180H605V0H50V15ZM240 760T220 780T200 830Q200 860 220 880T270 900Q300 900 320 880T340 830Q340 800 320 780T270 760Q240 760 220 780ZM425 760T405 780T385 830Q385 860 405 880T455 900Q485 900 505 880T525 830Q525 800 505 780T455
760Q425 760 405 780Z" />
<glyph unicode="&#xcc;" glyph-name="Igrave" horiz-adv-x="385" d="M50 0V15L110 30V670L50 685V700H335V685L275 670V30L335 15V0H50ZM182 750L47 900H177L217 750H182Z" />
<glyph unicode="&#xcd;" glyph-name="Iacute" horiz-adv-x="385" d="M50 0V15L110 30V670L50 685V700H335V685L275 670V30L335 15V0H50ZM165 750L205 900H335L200 750H165Z" />
<glyph unicode="&#xce;" glyph-name="Icircumflex" horiz-adv-x="385" d="M50 0V15L110 30V670L50 685V700H335V685L275 670V30L335 15V0H50ZM48 750L193 915L338 750H303L193 820L83 750H48Z" />
<glyph unicode="&#xcf;" glyph-name="Idieresis" horiz-adv-x="385" d="M50 0V15L110 30V670L50 685V700H335V685L275 670V30L335 15V0H50ZM70 760T50 780T30 830Q30 860 50 880T100 900Q130 900 150 880T170 830Q170 800 150 780T100 760Q70 760 50 780ZM255
760T235 780T215 830Q215 860 235 880T285 900Q315 900 335 880T355 830Q355 800 335 780T285 760Q255 760 235 780Z" />
<glyph unicode="&#xd0;" glyph-name="Eth" horiz-adv-x="715" d="M55 15L115 30V340H50V370H115V670L55 685V700H310Q489 700 584 608T680 350Q680 184 585 92T310 0H55V15ZM310 25Q403 25 454 100T505 350Q505 524 454 599T310 675H280V370H400V340H280V25H310Z" />
<glyph unicode="&#xd1;" glyph-name="Ntilde" horiz-adv-x="740" d="M140 530V45L220 15V0H30V15L110 45V665L40 685V700H145Q198 700 228 681T285 630L605 255V655L525 685V700H715V685L635 655V-15H605L140 530ZM395 780T379 787T344 809Q330 820 320 825T297
830Q278 830 265 817T252 785H232Q232 843 255 871T322 900Q344 900 360 893T395 871Q409 861 419 856T442 850Q461 850 474 863T487 895H507Q507 837 484 809T417 780Q395 780 379 787Z" />
<glyph unicode="&#xd2;" glyph-name="Ograve" horiz-adv-x="740" d="M272 -15T199 27T85 152T45 350Q45 466 85 548T198 672T370 715Q468 715 541 673T655 548T695 350Q695 234 655 152T542 28T370 -15Q272 -15 199 27ZM409 5T442 38T498 148T520 350Q520 475
498 552T443 662T370 695Q331 695 298 662T242 552T220 350Q220 225 242 148T297 38T370 5Q409 5 442 38ZM359 750L224 900H354L394 750H359Z" />
<glyph unicode="&#xd3;" glyph-name="Oacute" horiz-adv-x="740" d="M272 -15T199 27T85 152T45 350Q45 466 85 548T198 672T370 715Q468 715 541 673T655 548T695 350Q695 234 655 152T542 28T370 -15Q272 -15 199 27ZM409 5T442 38T498 148T520 350Q520 475
498 552T443 662T370 695Q331 695 298 662T242 552T220 350Q220 225 242 148T297 38T370 5Q409 5 442 38ZM342 750L382 900H512L377 750H342Z" />
<glyph unicode="&#xd4;" glyph-name="Ocircumflex" horiz-adv-x="740" d="M272 -15T199 27T85 152T45 350Q45 466 85 548T198 672T370 715Q468 715 541 673T655 548T695 350Q695 234 655 152T542 28T370 -15Q272 -15 199 27ZM409 5T442 38T498 148T520 350Q520
475 498 552T443 662T370 695Q331 695 298 662T242 552T220 350Q220 225 242 148T297 38T370 5Q409 5 442 38ZM225 750L370 915L515 750H480L370 820L260 750H225Z" />
<glyph unicode="&#xd5;" glyph-name="Otilde" horiz-adv-x="740" d="M272 -15T199 27T85 152T45 350Q45 466 85 548T198 672T370 715Q468 715 541 673T655 548T695 350Q695 234 655 152T542 28T370 -15Q272 -15 199 27ZM409 5T442 38T498 148T520 350Q520 475
498 552T443 662T370 695Q331 695 298 662T242 552T220 350Q220 225 242 148T297 38T370 5Q409 5 442 38ZM395 780T379 787T344 809Q330 820 320 825T297 830Q278 830 265 817T252 785H232Q232 843 255 871T322 900Q344 900 360 893T395 871Q409 861 419 856T442
850Q461 850 474 863T487 895H507Q507 837 484 809T417 780Q395 780 379 787Z" />
<glyph unicode="&#xd6;" glyph-name="Odieresis" horiz-adv-x="740" d="M272 -15T199 27T85 152T45 350Q45 466 85 548T198 672T370 715Q468 715 541 673T655 548T695 350Q695 234 655 152T542 28T370 -15Q272 -15 199 27ZM409 5T442 38T498 148T520 350Q520 475
498 552T443 662T370 695Q331 695 298 662T242 552T220 350Q220 225 242 148T297 38T370 5Q409 5 442 38ZM247 760T227 780T207 830Q207 860 227 880T277 900Q307 900 327 880T347 830Q347 800 327 780T277 760Q247 760 227 780ZM432 760T412 780T392 830Q392 860
412 880T462 900Q492 900 512 880T532 830Q532 800 512 780T462 760Q432 760 412 780Z" />
<glyph unicode="&#xd7;" glyph-name="multiply" horiz-adv-x="406" d="M62 167L30 198L171 340L30 481L62 513L203 372L344 513L376 481L235 340L376 198L344 167L203 308L62 167Z" />
<glyph unicode="&#xd8;" glyph-name="Oslash" horiz-adv-x="740" d="M246 -15T163 56L120 0H85L142 75Q96 124 71 193T45 350Q45 466 85 548T198 672T370 715Q494 715 577 644L620 700H655L597 624Q695 521 695 350Q695 234 655 152T542 28T370 -15Q246 -15 163
56ZM500 543Q480 622 445 658T370 695Q331 695 298 662T242 552T220 350Q220 257 232 192L500 543ZM409 5T442 38T498 148T520 350Q520 433 508 507L239 156Q258 77 293 41T370 5Q409 5 442 38Z" />
<glyph unicode="&#xd9;" glyph-name="Ugrave" horiz-adv-x="710" d="M247 -15T171 54T95 250V670L35 685V700H320V685L260 670V250Q260 121 300 66T415 10Q461 10 502 39T569 123T595 250V655L515 685V700H705V685L625 655V250Q625 169 595 109T513 17T395 -15Q247
-15 171 54ZM404 750L269 900H399L439 750H404Z" />
<glyph unicode="&#xda;" glyph-name="Uacute" horiz-adv-x="710" d="M247 -15T171 54T95 250V670L35 685V700H320V685L260 670V250Q260 121 300 66T415 10Q461 10 502 39T569 123T595 250V655L515 685V700H705V685L625 655V250Q625 169 595 109T513 17T395 -15Q247
-15 171 54ZM387 750L427 900H557L422 750H387Z" />
<glyph unicode="&#xdb;" glyph-name="Ucircumflex" horiz-adv-x="710" d="M247 -15T171 54T95 250V670L35 685V700H320V685L260 670V250Q260 121 300 66T415 10Q461 10 502 39T569 123T595 250V655L515 685V700H705V685L625 655V250Q625 169 595 109T513 17T395
-15Q247 -15 171 54ZM270 750L415 915L560 750H525L415 820L305 750H270Z" />
<glyph unicode="&#xdc;" glyph-name="Udieresis" horiz-adv-x="710" d="M247 -15T171 54T95 250V670L35 685V700H320V685L260 670V250Q260 121 300 66T415 10Q461 10 502 39T569 123T595 250V655L515 685V700H705V685L625 655V250Q625 169 595 109T513 17T395
-15Q247 -15 171 54ZM292 760T272 780T252 830Q252 860 272 880T322 900Q352 900 372 880T392 830Q392 800 372 780T322 760Q292 760 272 780ZM477 760T457 780T437 830Q437 860 457 880T507 900Q537 900 557 880T577 830Q577 800 557 780T507 760Q477 760 457
780Z" />
<glyph unicode="&#xdd;" glyph-name="Yacute" horiz-adv-x="665" d="M195 15L255 30V260L50 670L0 685V700H125Q177 700 208 678T260 615L408 320L560 655L485 685V700H675V685L595 655L420 270V30L480 15V0H195V15ZM305 750L345 900H475L340 750H305Z" />
<glyph unicode="&#xde;" glyph-name="Thorn" horiz-adv-x="700" d="M50 15L110 30V670L50 685V700H335V685L275 670V610H320Q437 610 515 577T632 486T670 350Q670 273 632 215T516 123T320 90H275V30L335 15V0H50V15ZM320 115Q369 115 408 142T471 222T495 350Q495
425 472 478T409 558T320 585H275V115H320Z" />
<glyph unicode="&#xdf;" glyph-name="germandbls" horiz-adv-x="690" d="M446 -15T414 7Q399 19 390 30Q376 10 355 1Q344 -4 335 -5H310V165H350Q363 124 382 87Q423 10 470 10Q487 10 498 27T510 80Q510 122 488 149T420 213Q387 239 367 258T334 306T320 370Q320
407 331 431T364 485Q384 512 394 534T405 590Q405 637 384 663T330 690Q292 690 271 649T250 500V0H30V15L90 30V500Q90 562 119 611T202 687T330 715Q389 715 436 693T509 637T535 570Q535 530 526 506T500 452Q487 430 481 416T475 380Q475 350 495 329T558
278Q593 254 614 236T650 192T665 130Q665 64 620 25T490 -15Q446 -15 414 7Z" />
<glyph unicode="&#xe0;" glyph-name="agrave" horiz-adv-x="605" d="M146 -15T98 23T50 120Q50 159 67 197Q74 215 85 230Q126 240 174 248Q282 266 365 270V300Q365 411 338 453T255 495Q234 495 219 490L205 485V335L192 332Q176 330 165 330Q131 330 111 350T90
405Q90 451 136 483T275 515Q353 515 409 488T495 412T525 300V30L585 15V0H495Q435 0 402 37Q388 52 380 75Q366 50 347 30Q302 -15 235 -15Q146 -15 98 23ZM312 20T342 60Q353 75 365 100V245Q319 245 277 240Q246 236 235 235Q230 224 225 205Q215 167 215 130Q215
74 232 47T275 20Q312 20 342 60ZM292 550L157 700H287L327 550H292Z" />
<glyph unicode="&#xe1;" glyph-name="aacute" horiz-adv-x="605" d="M146 -15T98 23T50 120Q50 159 67 197Q74 215 85 230Q126 240 174 248Q282 266 365 270V300Q365 411 338 453T255 495Q234 495 219 490L205 485V335L192 332Q176 330 165 330Q131 330 111 350T90
405Q90 451 136 483T275 515Q353 515 409 488T495 412T525 300V30L585 15V0H495Q435 0 402 37Q388 52 380 75Q366 50 347 30Q302 -15 235 -15Q146 -15 98 23ZM312 20T342 60Q353 75 365 100V245Q319 245 277 240Q246 236 235 235Q230 224 225 205Q215 167 215 130Q215
74 232 47T275 20Q312 20 342 60ZM275 550L315 700H445L310 550H275Z" />
<glyph unicode="&#xe2;" glyph-name="acircumflex" horiz-adv-x="605" d="M146 -15T98 23T50 120Q50 159 67 197Q74 215 85 230Q126 240 174 248Q282 266 365 270V300Q365 411 338 453T255 495Q234 495 219 490L205 485V335L192 332Q176 330 165 330Q131 330 111
350T90 405Q90 451 136 483T275 515Q353 515 409 488T495 412T525 300V30L585 15V0H495Q435 0 402 37Q388 52 380 75Q366 50 347 30Q302 -15 235 -15Q146 -15 98 23ZM312 20T342 60Q353 75 365 100V245Q319 245 277 240Q246 236 235 235Q230 224 225 205Q215 167
215 130Q215 74 232 47T275 20Q312 20 342 60ZM158 550L303 715L448 550H413L303 620L193 550H158Z" />
<glyph unicode="&#xe3;" glyph-name="atilde" horiz-adv-x="605" d="M146 -15T98 23T50 120Q50 159 67 197Q74 215 85 230Q126 240 174 248Q282 266 365 270V300Q365 411 338 453T255 495Q234 495 219 490L205 485V335L192 332Q176 330 165 330Q131 330 111 350T90
405Q90 451 136 483T275 515Q353 515 409 488T495 412T525 300V30L585 15V0H495Q435 0 402 37Q388 52 380 75Q366 50 347 30Q302 -15 235 -15Q146 -15 98 23ZM312 20T342 60Q353 75 365 100V245Q319 245 277 240Q246 236 235 235Q230 224 225 205Q215 167 215 130Q215
74 232 47T275 20Q312 20 342 60ZM328 580T312 587T277 609Q263 620 253 625T230 630Q211 630 198 617T185 585H165Q165 643 188 671T255 700Q277 700 293 693T328 671Q342 661 352 656T375 650Q394 650 407 663T420 695H440Q440 637 417 609T350 580Q328 580 312
587Z" />
<glyph unicode="&#xe4;" glyph-name="adieresis" horiz-adv-x="605" d="M146 -15T98 23T50 120Q50 159 67 197Q74 215 85 230Q126 240 174 248Q282 266 365 270V300Q365 411 338 453T255 495Q234 495 219 490L205 485V335L192 332Q176 330 165 330Q131 330 111
350T90 405Q90 451 136 483T275 515Q353 515 409 488T495 412T525 300V30L585 15V0H495Q435 0 402 37Q388 52 380 75Q366 50 347 30Q302 -15 235 -15Q146 -15 98 23ZM312 20T342 60Q353 75 365 100V245Q319 245 277 240Q246 236 235 235Q230 224 225 205Q215 167
215 130Q215 74 232 47T275 20Q312 20 342 60ZM180 560T160 580T140 630Q140 660 160 680T210 700Q240 700 260 680T280 630Q280 600 260 580T210 560Q180 560 160 580ZM365 560T345 580T325 630Q325 660 345 680T395 700Q425 700 445 680T465 630Q465 600 445
580T395 560Q365 560 345 580Z" />
<glyph unicode="&#xe5;" glyph-name="aring" horiz-adv-x="605" d="M146 -15T98 23T50 120Q50 159 67 197Q74 215 85 230Q126 240 174 248Q282 266 365 270V300Q365 411 338 453T255 495Q234 495 219 490L205 485V335L192 332Q176 330 165 330Q131 330 111 350T90
405Q90 451 136 483T275 515Q353 515 409 488T495 412T525 300V30L585 15V0H495Q435 0 402 37Q388 52 380 75Q366 50 347 30Q302 -15 235 -15Q146 -15 98 23ZM312 20T342 60Q353 75 365 100V245Q319 245 277 240Q246 236 235 235Q230 224 225 205Q215 167 215 130Q215
74 232 47T275 20Q312 20 342 60ZM258 550T228 579T198 650Q198 692 228 721T303 750Q348 750 378 721T408 650Q408 608 378 579T303 550Q258 550 228 579ZM327 585T342 603T358 650Q358 679 343 697T303 715Q279 715 264 697T248 650Q248 621 263 603T303 585Q327
585 342 603Z" />
<glyph unicode="&#xe6;" glyph-name="ae" horiz-adv-x="880" d="M152 -15T101 22T50 120Q50 156 67 192Q74 206 85 220Q126 230 174 238Q282 256 365 260V300Q365 411 338 453T255 495Q234 495 219 490L205 485V335L192 332Q176 330 165 330Q131 330 111 350T90
405Q90 451 136 483T275 515Q356 515 411 470Q435 450 450 425Q463 449 487 470Q540 515 615 515Q683 515 735 488T816 416T845 315Q845 294 840 279L835 265Q792 256 742 250Q637 235 530 235V213Q532 102 563 56T650 10Q689 10 722 28T775 77T795 140H820Q820
100 796 64T729 7T630 -15Q544 -15 489 32Q463 53 450 80Q428 52 401 32Q336 -15 255 -15Q152 -15 101 22ZM594 260T634 265Q651 266 670 270Q671 277 675 291Q680 311 680 335Q680 418 658 456T605 495Q573 495 553 446T530 265V260Q594 260 634 265ZM317 10T346
57Q357 76 365 105V235Q319 235 277 230Q246 226 235 225Q230 214 225 195Q215 157 215 120Q215 64 232 37T275 10Q317 10 346 57Z" />
<glyph unicode="&#xe7;" glyph-name="ccedilla" horiz-adv-x="530" d="M278 -200T256 -198L239 -195V-165Q245 -169 249 -170Q261 -175 275 -175Q298 -175 311 -162T325 -125Q325 -102 311 -89T270 -75V-13Q161 -3 101 66T40 250Q40 374 111 444T310 515Q402 515
448 483T495 405Q495 371 475 351T420 330Q406 330 392 332L380 335V485L366 490Q351 495 330 495Q273 495 242 441T210 250Q210 117 241 64T330 10Q369 10 402 28T455 77T475 140H500Q500 100 476 64T409 7T310 -15H305V-50Q348 -50 374 -72T400 -125Q400 -157
373 -178T295 -200Q278 -200 256 -198Z" />
<glyph unicode="&#xe8;" glyph-name="egrave" horiz-adv-x="560" d="M182 -15T111 55T40 250Q40 331 71 391T157 483T285 515Q357 515 411 488T495 416T525 315Q525 290 520 272L515 255Q472 246 422 240Q317 225 210 225Q210 109 242 60T330 10Q369 10 402 28T455
77T475 140H500Q500 100 476 64T409 7T310 -15Q182 -15 111 55ZM274 250T314 255Q331 256 350 260Q351 265 355 282Q360 307 360 335Q360 418 338 456T285 495Q210 495 210 250Q274 250 314 255ZM269 550L134 700H264L304 550H269Z" />
<glyph unicode="&#xe9;" glyph-name="eacute" horiz-adv-x="560" d="M182 -15T111 55T40 250Q40 331 71 391T157 483T285 515Q357 515 411 488T495 416T525 315Q525 290 520 272L515 255Q472 246 422 240Q317 225 210 225Q210 109 242 60T330 10Q369 10 402 28T455
77T475 140H500Q500 100 476 64T409 7T310 -15Q182 -15 111 55ZM274 250T314 255Q331 256 350 260Q351 265 355 282Q360 307 360 335Q360 418 338 456T285 495Q210 495 210 250Q274 250 314 255ZM252 550L292 700H422L287 550H252Z" />
<glyph unicode="&#xea;" glyph-name="ecircumflex" horiz-adv-x="560" d="M182 -15T111 55T40 250Q40 331 71 391T157 483T285 515Q357 515 411 488T495 416T525 315Q525 290 520 272L515 255Q472 246 422 240Q317 225 210 225Q210 109 242 60T330 10Q369 10 402
28T455 77T475 140H500Q500 100 476 64T409 7T310 -15Q182 -15 111 55ZM274 250T314 255Q331 256 350 260Q351 265 355 282Q360 307 360 335Q360 418 338 456T285 495Q210 495 210 250Q274 250 314 255ZM135 550L280 715L425 550H390L280 620L170 550H135Z" />
<glyph unicode="&#xeb;" glyph-name="edieresis" horiz-adv-x="560" d="M182 -15T111 55T40 250Q40 331 71 391T157 483T285 515Q357 515 411 488T495 416T525 315Q525 290 520 272L515 255Q472 246 422 240Q317 225 210 225Q210 109 242 60T330 10Q369 10 402
28T455 77T475 140H500Q500 100 476 64T409 7T310 -15Q182 -15 111 55ZM274 250T314 255Q331 256 350 260Q351 265 355 282Q360 307 360 335Q360 418 338 456T285 495Q210 495 210 250Q274 250 314 255ZM157 560T137 580T117 630Q117 660 137 680T187 700Q217 700
237 680T257 630Q257 600 237 580T187 560Q157 560 137 580ZM342 560T322 580T302 630Q302 660 322 680T372 700Q402 700 422 680T442 630Q442 600 422 580T372 560Q342 560 322 580Z" />
<glyph unicode="&#xec;" glyph-name="igrave" horiz-adv-x="340" d="M40 15L100 30V470L40 485V500H170Q260 500 260 410V30L320 15V0H40V15ZM159 550L24 700H154L194 550H159Z" />
<glyph unicode="&#xed;" glyph-name="iacute" horiz-adv-x="340" d="M40 15L100 30V470L40 485V500H170Q260 500 260 410V30L320 15V0H40V15ZM142 550L182 700H312L177 550H142Z" />
<glyph unicode="&#xee;" glyph-name="icircumflex" horiz-adv-x="340" d="M40 15L100 30V470L40 485V500H170Q260 500 260 410V30L320 15V0H40V15ZM25 550L170 715L315 550H280L170 620L60 550H25Z" />
<glyph unicode="&#xef;" glyph-name="idieresis" horiz-adv-x="340" d="M40 15L100 30V470L40 485V500H170Q260 500 260 410V30L320 15V0H40V15ZM47 560T27 580T7 630Q7 660 27 680T77 700Q107 700 127 680T147 630Q147 600 127 580T77 560Q47 560 27 580ZM232
560T212 580T192 630Q192 660 212 680T262 700Q292 700 312 680T332 630Q332 600 312 580T262 560Q232 560 212 580Z" />
<glyph unicode="&#xf0;" glyph-name="eth" horiz-adv-x="605" d="M218 -15T159 16T67 102T35 230Q35 302 65 357T149 444T270 475Q327 475 373 437Q388 424 405 400Q401 466 380 515T320 605L279 530L258 543L302 623Q233 680 137 680V700Q240 700 327 669L367
742L388 729L350 659Q454 613 509 516T565 270Q565 132 495 59T299 -15Q218 -15 159 16ZM339 5T367 57T395 230V240Q395 352 366 403T289 455Q270 455 251 434T218 362T205 230Q205 110 232 58T299 5Q339 5 367 57Z" />
<glyph unicode="&#xf1;" glyph-name="ntilde" horiz-adv-x="665" d="M40 15L100 30V470L40 485V500H130Q189 500 223 462Q236 447 245 425Q259 451 278 470Q323 515 390 515Q446 515 490 492T560 430T585 350V30L645 15V0H515Q425 0 425 90V350Q425 413 403 446T350
480Q312 480 282 440Q269 423 260 400V30L320 15V0H40V15ZM378 580T362 587T327 609Q313 620 303 625T280 630Q261 630 248 617T235 585H215Q215 643 238 671T305 700Q327 700 343 693T378 671Q392 661 402 656T425 650Q444 650 457 663T470 695H490Q490 637 467
609T400 580Q378 580 362 587Z" />
<glyph unicode="&#xf2;" glyph-name="ograve" horiz-adv-x="610" d="M181 -15T111 55T40 250Q40 374 110 444T305 515Q429 515 499 445T570 250Q570 126 500 56T305 -15Q181 -15 111 55ZM345 5T372 61T400 250Q400 383 373 439T305 495Q265 495 238 439T210 250Q210
117 237 61T305 5Q345 5 372 61ZM294 550L159 700H289L329 550H294Z" />
<glyph unicode="&#xf3;" glyph-name="oacute" horiz-adv-x="610" d="M181 -15T111 55T40 250Q40 374 110 444T305 515Q429 515 499 445T570 250Q570 126 500 56T305 -15Q181 -15 111 55ZM345 5T372 61T400 250Q400 383 373 439T305 495Q265 495 238 439T210 250Q210
117 237 61T305 5Q345 5 372 61ZM277 550L317 700H447L312 550H277Z" />
<glyph unicode="&#xf4;" glyph-name="ocircumflex" horiz-adv-x="610" d="M181 -15T111 55T40 250Q40 374 110 444T305 515Q429 515 499 445T570 250Q570 126 500 56T305 -15Q181 -15 111 55ZM345 5T372 61T400 250Q400 383 373 439T305 495Q265 495 238 439T210
250Q210 117 237 61T305 5Q345 5 372 61ZM160 550L305 715L450 550H415L305 620L195 550H160Z" />
<glyph unicode="&#xf5;" glyph-name="otilde" horiz-adv-x="610" d="M181 -15T111 55T40 250Q40 374 110 444T305 515Q429 515 499 445T570 250Q570 126 500 56T305 -15Q181 -15 111 55ZM345 5T372 61T400 250Q400 383 373 439T305 495Q265 495 238 439T210 250Q210
117 237 61T305 5Q345 5 372 61ZM330 580T314 587T279 609Q265 620 255 625T232 630Q213 630 200 617T187 585H167Q167 643 190 671T257 700Q279 700 295 693T330 671Q344 661 354 656T377 650Q396 650 409 663T422 695H442Q442 637 419 609T352 580Q330 580 314
587Z" />
<glyph unicode="&#xf6;" glyph-name="odieresis" horiz-adv-x="610" d="M181 -15T111 55T40 250Q40 374 110 444T305 515Q429 515 499 445T570 250Q570 126 500 56T305 -15Q181 -15 111 55ZM345 5T372 61T400 250Q400 383 373 439T305 495Q265 495 238 439T210
250Q210 117 237 61T305 5Q345 5 372 61ZM182 560T162 580T142 630Q142 660 162 680T212 700Q242 700 262 680T282 630Q282 600 262 580T212 560Q182 560 162 580ZM367 560T347 580T327 630Q327 660 347 680T397 700Q427 700 447 680T467 630Q467 600 447 580T397
560Q367 560 347 580Z" />
<glyph unicode="&#xf7;" glyph-name="divide" horiz-adv-x="500" d="M220 440T198 462T175 515Q175 545 197 567T250 590Q280 590 302 568T325 515Q325 485 303 463T250 440Q220 440 198 462ZM30 310V355H470V310H30ZM220 75T198 97T175 150Q175 180 197 202T250
225Q280 225 302 203T325 150Q325 120 303 98T250 75Q220 75 198 97Z" />
<glyph unicode="&#xf8;" glyph-name="oslash" horiz-adv-x="610" d="M207 -15T142 32L115 0H80L121 49Q40 127 40 250Q40 374 110 444T305 515Q401 515 468 467L495 500H530L489 450Q527 415 548 364T570 250Q570 126 500 56T305 -15Q207 -15 142 32ZM391 374Q380
438 357 466T305 495Q265 495 238 439T210 250Q210 197 214 161L391 374ZM345 5T372 61T400 250Q400 305 396 338L219 125Q230 60 253 33T305 5Q345 5 372 61Z" />
<glyph unicode="&#xf9;" glyph-name="ugrave" horiz-adv-x="650" d="M224 -15T180 8T110 70T85 150V470L25 485V500H155Q245 500 245 410V150Q245 87 267 54T320 20Q357 20 387 60Q398 75 410 100V470L350 485V500H630V485L570 470V-5H560Q487 -5 449 35Q432 53
425 75Q411 50 392 30Q347 -15 280 -15Q224 -15 180 8ZM314 550L179 700H309L349 550H314Z" />
<glyph unicode="&#xfa;" glyph-name="uacute" horiz-adv-x="650" d="M224 -15T180 8T110 70T85 150V470L25 485V500H155Q245 500 245 410V150Q245 87 267 54T320 20Q357 20 387 60Q398 75 410 100V470L350 485V500H630V485L570 470V-5H560Q487 -5 449 35Q432 53
425 75Q411 50 392 30Q347 -15 280 -15Q224 -15 180 8ZM297 550L337 700H467L332 550H297Z" />
<glyph unicode="&#xfb;" glyph-name="ucircumflex" horiz-adv-x="650" d="M224 -15T180 8T110 70T85 150V470L25 485V500H155Q245 500 245 410V150Q245 87 267 54T320 20Q357 20 387 60Q398 75 410 100V470L350 485V500H630V485L570 470V-5H560Q487 -5 449 35Q432
53 425 75Q411 50 392 30Q347 -15 280 -15Q224 -15 180 8ZM180 550L325 715L470 550H435L325 620L215 550H180Z" />
<glyph unicode="&#xfc;" glyph-name="udieresis" horiz-adv-x="650" d="M224 -15T180 8T110 70T85 150V470L25 485V500H155Q245 500 245 410V150Q245 87 267 54T320 20Q357 20 387 60Q398 75 410 100V470L350 485V500H630V485L570 470V-5H560Q487 -5 449 35Q432
53 425 75Q411 50 392 30Q347 -15 280 -15Q224 -15 180 8ZM202 560T182 580T162 630Q162 660 182 680T232 700Q262 700 282 680T302 630Q302 600 282 580T232 560Q202 560 182 580ZM387 560T367 580T347 630Q347 660 367 680T417 700Q447 700 467 680T487 630Q487
600 467 580T417 560Q387 560 367 580Z" />
<glyph unicode="&#xfd;" glyph-name="yacute" horiz-adv-x="560" d="M105 -215T80 -191T55 -125Q55 -87 75 -66T130 -45Q138 -45 146 -46T157 -48L170 -50V-185Q199 -180 221 -153T270 -60L290 -10L30 470L-20 485V500H105Q157 500 187 479T240 415L365 184L470
455L395 485V500H580V485L500 455L300 -60Q268 -142 232 -178T150 -215Q105 -215 80 -191ZM252 550L292 700H422L287 550H252Z" />
<glyph unicode="&#xfe;" glyph-name="thorn" horiz-adv-x="625" d="M30 -185L90 -170V670L30 685V700H160Q250 700 250 610V450Q264 469 283 482Q330 515 380 515Q439 515 485 485T558 395T585 250Q585 122 526 54T365 -15Q317 -15 281 5Q266 12 250 25V-170L310
-185V-200H30V-185ZM368 15T391 65T415 250Q415 379 394 429T340 480Q306 480 274 440Q260 421 250 400V55Q264 41 272 35Q299 15 325 15Q368 15 391 65Z" />
<glyph unicode="&#xff;" glyph-name="ydieresis" horiz-adv-x="560" d="M105 -215T80 -191T55 -125Q55 -87 75 -66T130 -45Q138 -45 146 -46T157 -48L170 -50V-185Q199 -180 221 -153T270 -60L290 -10L30 470L-20 485V500H105Q157 500 187 479T240 415L365 184L470
455L395 485V500H580V485L500 455L300 -60Q268 -142 232 -178T150 -215Q105 -215 80 -191ZM157 560T137 580T117 630Q117 660 137 680T187 700Q217 700 237 680T257 630Q257 600 237 580T187 560Q157 560 137 580ZM342 560T322 580T302 630Q302 660 322 680T372
700Q402 700 422 680T442 630Q442 600 422 580T372 560Q342 560 322 580Z" />
<glyph unicode="&#x2013;" glyph-name="endash" horiz-adv-x="560" d="M30 295V335H530V295H30Z" />
<glyph unicode="&#x2014;" glyph-name="emdash" horiz-adv-x="780" d="M30 295V335H750V295H30Z" />
<glyph unicode="&#x2018;" glyph-name="quoteleft" horiz-adv-x="245" d="M90 440T68 464T45 530Q45 622 105 674Q131 698 165 710L175 685Q154 678 133 662Q89 629 80 575L93 582Q109 590 125 590Q155 590 177 568T200 515Q200 485 178 463T125 440Q90 440 68 464Z" />
<glyph unicode="&#x2019;" glyph-name="quoteright" horiz-adv-x="245" d="M70 465Q91 472 112 488Q155 520 165 575L152 567Q139 560 120 560Q90 560 68 582T45 635Q45 665 67 687T120 710Q155 710 177 686T200 620Q200 528 140 476Q114 452 80 440L70 465Z" />
<glyph unicode="&#x201a;" glyph-name="quotesinglbase" horiz-adv-x="245" d="M70 -105Q91 -98 112 -82Q155 -50 165 5L152 -3Q139 -10 120 -10Q90 -10 68 12T45 65Q45 95 67 117T120 140Q155 140 177 116T200 50Q200 -42 140 -94Q114 -118 80 -130L70 -105Z" />
<glyph unicode="&#x201c;" glyph-name="quotedblleft" horiz-adv-x="435" d="M90 440T68 464T45 530Q45 622 105 674Q131 698 165 710L175 685Q154 678 133 662Q89 629 80 575L93 582Q109 590 125 590Q155 590 177 568T200 515Q200 485 178 463T125 440Q90 440
68 464ZM280 440T258 464T235 530Q235 622 295 674Q320 698 355 710L365 685Q344 678 323 662Q279 629 270 575L283 582Q299 590 315 590Q345 590 367 568T390 515Q390 485 368 463T315 440Q280 440 258 464Z" />
<glyph unicode="&#x201d;" glyph-name="quotedblright" horiz-adv-x="435" d="M70 465Q91 472 112 488Q155 520 165 575L152 567Q139 560 120 560Q90 560 68 582T45 635Q45 665 67 687T120 710Q155 710 177 686T200 620Q200 528 140 476Q114 452 80 440L70 465ZM260
465Q281 472 302 488Q345 520 355 575L342 567Q329 560 310 560Q280 560 258 582T235 635Q235 665 257 687T310 710Q345 710 367 686T390 620Q390 528 330 476Q304 452 270 440L260 465Z" />
<glyph unicode="&#x201e;" glyph-name="quotedblbase" horiz-adv-x="435" d="M70 -105Q91 -98 112 -82Q155 -50 165 5L152 -3Q139 -10 120 -10Q90 -10 68 12T45 65Q45 95 67 117T120 140Q155 140 177 116T200 50Q200 -42 140 -94Q114 -118 80 -130L70 -105ZM260
-105Q281 -98 302 -82Q345 -50 355 5L342 -3Q329 -10 310 -10Q280 -10 258 12T235 65Q235 95 257 117T310 140Q345 140 367 116T390 50Q390 -42 330 -94Q304 -118 270 -130L260 -105Z" />
<glyph unicode="&#x2022;" glyph-name="bullet" horiz-adv-x="330" d="M120 230T93 257T65 330Q65 375 92 402T165 430Q210 430 237 403T265 330Q265 285 238 258T165 230Q120 230 93 257Z" />
<glyph unicode="&#x2039;" glyph-name="guilsinglleft" horiz-adv-x="365" d="M305 10L15 250L305 490L335 455L100 250L335 45L305 10Z" />
<glyph unicode="&#x203a;" glyph-name="guilsinglright" horiz-adv-x="365" d="M60 10L30 45L265 250L30 455L60 490L350 250L60 10Z" />
</font>
</defs>
</svg>
