<?xml version="1.0" standalone="no"?>
<!DOCTYPE svg PUBLIC "-//W3C//DTD SVG 1.1//EN" "http://www.w3.org/Graphics/SVG/1.1/DTD/svg11.dtd">
<svg xmlns="http://www.w3.org/2000/svg">
<defs >
<font id="MontserratSubrayada" horiz-adv-x="627" ><font-face
    font-family="Montserrat Subrayada"
    units-per-em="1000"
    panose-1="2 0 5 5 0 0 0 2 0 4"
    ascent="968"
    descent="-251"
    alphabetic="0" />
<glyph unicode=" " glyph-name="space" horiz-adv-x="264" d="M264 43V0H0V43H264Z" />
<glyph unicode="!" glyph-name="exclam" horiz-adv-x="315" d="M69 699H246V575L216 245H98L69 575V699ZM315 43V0H0V43H99Q69 68 69 107T94 172T157 198T219 173T245 108T214 43H315Z" />
<glyph unicode="&quot;" glyph-name="quotedbl" horiz-adv-x="433" d="M69 431V699H188V471H245V699H364V431H249V43H434V0H0V43H185V431H69Z" />
<glyph unicode="#" glyph-name="numbersign" horiz-adv-x="747" d="M748 43V0H-80V43H121L140 152H44L71 290H164L185 415H78L105 553H208L235 715H386L359 553H449L476 715H628L599 553H704L677 415H576L555 290H670L643 152H532L513 43H748ZM427 415H336L314
290H405L427 415ZM291 152L272 43H363L382 152H291Z" />
<glyph unicode="$" glyph-name="dollar" horiz-adv-x="635" d="M635 43V0H376V-69H270V0H0V43H148Q86 73 36 119L129 232Q207 164 270 145V294Q165 321 116 366T67 497T123 638T270 705V769H376V703Q476 689 575 620L493 502Q430 547 376 562V418Q484 390 535
343T587 213Q587 100 498 43H635ZM427 202Q427 223 416 237T376 263V140Q427 156 427 202ZM270 566Q227 551 227 511T270 450V566Z" />
<glyph unicode="%" glyph-name="percent" horiz-adv-x="819" d="M491 43Q458 81 458 136T500 232T605 273T711 232T753 136T721 43H839V0H0V43H101L572 699H743L273 43H491ZM359 482T317 442T212 401T106 442T64 541T106 641T211 682T317 641T359 541ZM193 492T211
492T241 505T253 541T241 577T212 592T182 578T170 541T181 506ZM587 83T605 83T635 96T647 132T635 168T606 183T576 169T564 132T575 97Z" />
<glyph unicode="&amp;" glyph-name="ampersand" horiz-adv-x="700" d="M700 43V0H0V43H126Q47 98 47 196Q47 314 194 398Q130 466 130 540T188 664T347 715Q422 715 481 672T541 550Q541 452 398 368Q443 311 478 273Q503 313 514 364L627 290Q604 227 571 173L657
88L609 43H700ZM192 168T218 148T285 127T382 180Q318 248 273 301Q238 284 215 258T192 200ZM316 597T299 582T281 540T321 463Q396 503 396 538Q396 567 378 582T338 597ZM471 83Q437 55 408 43H510L471 83Z" />
<glyph unicode="&apos;" glyph-name="quotesingle" horiz-adv-x="261" d="M71 431V699H190V431H154V43H261V0H0V43H107V431H71Z" />
<glyph unicode="(" glyph-name="parenleft" horiz-adv-x="362" d="M422 43V0H0V43H146Q55 195 55 378Q55 594 175 757H337Q272 668 238 580T204 378Q204 200 307 43H422Z" />
<glyph unicode=")" glyph-name="parenright" horiz-adv-x="362" d="M-60 0V43H55Q158 203 158 378Q158 491 124 579T25 757H187Q307 594 307 378Q307 196 215 43H362V0H-60Z" />
<glyph unicode="*" glyph-name="asterisk" horiz-adv-x="456" d="M456 43V0H0V43H204V363H172L178 447L107 398L56 489L140 531L55 573L107 662L178 615L172 699H284L278 615L349 662L401 573L316 531L400 489L349 398L278 447L284 363H251V43H456Z" />
<glyph unicode="+" glyph-name="plus" horiz-adv-x="584" d="M223 109V289H48V412H223V592H361V412H536V289H361V109H315V43H584V0H0V43H268V109H223Z" />
<glyph unicode="," glyph-name="comma" horiz-adv-x="297" d="M0 0V43H80Q58 67 58 102T85 162T150 188T215 163T243 105T225 43H297V0H200L154 -79H55L82 0H0Z" />
<glyph unicode="-" glyph-name="hyphen" horiz-adv-x="490" d="M67 234V367H423V234H269V43H490V0H0V43H222V234H67Z" />
<glyph unicode="." glyph-name="period" horiz-adv-x="288" d="M0 0V43H76Q56 66 56 101T81 162T144 188T206 163T232 102T211 43H288V0H0Z" />
<glyph unicode="/" glyph-name="slash" horiz-adv-x="614" d="M614 43V0H-40V43H98L446 805H588L239 43H614Z" />
<glyph unicode="0" glyph-name="zero" horiz-adv-x="690" d="M690 43V0H0V43H176Q56 131 56 353Q56 518 128 616T345 715T562 617T634 353Q634 131 514 43H690ZM209 458T209 353T242 184T345 120T448 184T481 353T448 522T345 586T242 522Z" />
<glyph unicode="1" glyph-name="one" horiz-adv-x="403" d="M403 43V0H0V43H164V566H31V699H314V43H403Z" />
<glyph unicode="2" glyph-name="two" horiz-adv-x="605" d="M615 43V0H-10V43H58V116L263 326Q325 389 351 426T378 499T355 557T296 581Q230 581 171 487L46 561Q95 637 153 676T302 715T461 658T530 501Q530 447 503 398T401 271L275 140H551V43H615Z" />
<glyph unicode="3" glyph-name="three" horiz-adv-x="591" d="M591 43V0H-10V43H119Q74 62 36 89L100 213Q199 143 277 143Q324 143 354 166T385 232T350 301T253 327Q220 327 160 308V423L294 566H75V699H503V591L360 443Q444 429 490 373T536 242Q536 107 424 43H591Z" />
<glyph unicode="4" glyph-name="four" horiz-adv-x="588" d="M588 43V0H0V43H317V167H36V286L285 699H455L218 302H317V424H467V302H546V167H467V43H588Z" />
<glyph unicode="5" glyph-name="five" horiz-adv-x="596" d="M596 43V0H0V43H111Q74 68 49 97L131 211Q140 202 155 189T210 155T290 133T361 157T392 228T359 300T272 326T149 288L84 358V699H506V564H230V447Q261 456 301 456Q402 456 475 395T548 230Q548 172
523 124T452 43H596Z" />
<glyph unicode="6" glyph-name="six" horiz-adv-x="630" d="M630 43V0H0V43H166Q56 131 56 348Q56 444 79 516T144 631Q224 715 342 715Q391 715 435 701T504 671T557 633L483 523Q477 529 466 539T420 565T354 581Q289 581 254 538T210 419Q275 461 348 461Q446
461 511 397T577 221T491 43H630ZM287 329T256 302T224 230T254 155T329 123T404 151T434 223T407 298T334 329Z" />
<glyph unicode="7" glyph-name="seven" horiz-adv-x="579" d="M579 43V0H0V43H119L369 565H193V475H47V699H552V581L290 43H579Z" />
<glyph unicode="8" glyph-name="eight" horiz-adv-x="642" d="M642 43V0H0V43H143Q54 105 54 212T141 386Q78 445 78 525T147 660T321 715T494 660T563 525T501 386Q588 319 588 212T499 43H642ZM280 122T321 122T397 145T432 214T398 283T321 307T244 283T210
214T245 146ZM283 427T321 427T387 451T416 510T388 570T321 594T254 570T226 511T254 451Z" />
<glyph unicode="9" glyph-name="nine" horiz-adv-x="629" d="M629 43V0H0V43H113Q88 60 72 73L150 183Q157 177 168 168T213 142T275 126Q340 126 375 169T419 288Q355 245 281 245Q183 245 118 309T52 480T122 650T300 715Q374 715 428 687T514 607Q573 508 573
359Q573 135 449 43H629ZM343 378T374 405T405 476T375 552T300 584T227 556T198 483T224 409T296 378Z" />
<glyph unicode=":" glyph-name="colon" horiz-adv-x="310" d="M0 0V43H87Q67 66 67 101T92 162T155 188T217 163T243 102T222 43H310V0H0ZM67 326T67 363T92 425T155 451T217 426T243 363T218 301T155 275T93 300Z" />
<glyph unicode=";" glyph-name="semicolon" horiz-adv-x="315" d="M0 0V43H88Q67 67 67 101T94 161T159 187T225 162T253 99Q253 77 236 43H315V0H211L162 -81H64L92 0H0ZM67 326T67 363T92 425T155 451T217 426T243 363T218 301T155 275T93 300Z" />
<glyph unicode="&lt;" glyph-name="less" horiz-adv-x="601" d="M352 43H601V0H0V43H305V201L41 326V463L527 692V545L206 397L527 245V97L352 179V43Z" />
<glyph unicode="=" glyph-name="equal" horiz-adv-x="587" d="M50 289H273V415H50V538H537V415H320V289H537V166H320V43H587V0H0V43H273V166H50V289Z" />
<glyph unicode="&gt;" glyph-name="greater" horiz-adv-x="601" d="M601 43V0H0V43H249V179L74 97V245L395 397L74 545V692L560 463V326L296 201V43H601Z" />
<glyph unicode="?" glyph-name="question" horiz-adv-x="524" d="M331 235H179V284Q179 352 236 411Q244 419 264 438T292 466Q317 494 317 522T302 567T260 583T213 559T193 503Q193 497 194 491H52Q52 497 52 503Q52 597 111 656T267 715T419 667T474 533Q474
491 452 451T402 384Q331 316 331 266V235ZM524 43V0H0V43H189Q169 66 169 101T194 162T257 188T319 163T345 102T324 43H524Z" />
<glyph unicode="@" glyph-name="at" horiz-adv-x="891" d="M891 43V0H0V43H154Q52 151 52 315T170 597T456 716T735 602T847 318Q847 208 802 142T682 75Q644 75 613 98T569 156Q514 85 430 85T283 149T220 311T276 474T425 540Q456 540 484 527T524 500L537 487V532H662V214Q662
164 692 164Q719 164 739 207T760 315Q760 456 679 548T462 641T233 544T140 310Q140 224 177 154T280 43H891ZM538 365T512 398T442 431T374 398T348 317T373 232T443 196T512 230T538 315Z" />
<glyph unicode="A" glyph-name="A" horiz-adv-x="745" d="M847 43V0H584L519 151H226L161 0H-102V43H13L297 699H448L731 43H847ZM373 491L285 288H460L373 491Z" />
<glyph unicode="B" glyph-name="B" horiz-adv-x="706" d="M706 43V0H-11V43H86V699H358Q429 699 480 682T558 636Q605 582 605 514Q605 432 552 392Q534 378 527 375T502 363Q567 349 605 305T644 194Q644 95 566 43H706ZM242 132H349Q416 132 449 148T483 213T448
277T334 293H242V132ZM242 416H316Q381 416 412 430T444 490T415 552T317 567H242V416Z" />
<glyph unicode="C" glyph-name="C" horiz-adv-x="736" d="M736 43V0H0V43H215Q135 90 90 170T44 353Q44 507 150 611T411 715Q583 715 699 584L602 474Q528 566 418 566Q330 566 268 509T205 354T264 197T407 138Q522 138 595 229L695 126Q651 75 596 43H736Z" />
<glyph unicode="D" glyph-name="D" horiz-adv-x="782" d="M782 43V0H-11V43H86V699H333Q520 699 620 608T720 350Q720 126 546 43H782ZM448 138T505 192T563 349T506 507T329 563H242V138H341Q448 138 505 192Z" />
<glyph unicode="E" glyph-name="E" horiz-adv-x="654" d="M86 43V699H590V560H242V416H555V283H242V138H601V43H698V0H-11V43H86Z" />
<glyph unicode="F" glyph-name="F" horiz-adv-x="612" d="M612 43V0H0V43H86V699H566V562H242V411H550V274H242V43H612Z" />
<glyph unicode="G" glyph-name="G" horiz-adv-x="750" d="M750 43V0H0V43H217Q137 90 92 170T46 353Q46 507 152 611T409 715T671 616L590 499Q543 540 504 555T418 571Q329 571 268 511T207 351T265 193T405 133T540 164V356H697V108Q663 70 616 43H750Z" />
<glyph unicode="H" glyph-name="H" horiz-adv-x="762" d="M762 43V0H520V275H242V0H0V43H86V699H242V407H520V699H676V43H762Z" />
<glyph unicode="I" glyph-name="I" horiz-adv-x="328" d="M328 43V0H0V43H86V699H242V43H328Z" />
<glyph unicode="J" glyph-name="J" horiz-adv-x="556" d="M556 43V0H0V43H119Q70 65 26 111L107 226Q170 158 239 158Q272 158 295 184T319 260V565H112V699H476V263Q476 104 368 43H556Z" />
<glyph unicode="K" glyph-name="K" horiz-adv-x="710" d="M421 390L668 43H751V0H517L312 276L242 198V0H0V43H86V699H242V412L506 699H699L421 390Z" />
<glyph unicode="L" glyph-name="L" horiz-adv-x="568" d="M637 43V0H-11V43H86V699H242V139H540V43H637Z" />
<glyph unicode="M" glyph-name="M" horiz-adv-x="954" d="M712 440L523 58H430L242 440V0H-11V43H86V699H297L477 315L658 699H868V43H965V0H712V440Z" />
<glyph unicode="N" glyph-name="N" horiz-adv-x="817" d="M86 43V699H232L575 249V699H731V43H828V0H575L242 438V0H-11V43H86Z" />
<glyph unicode="O" glyph-name="O" horiz-adv-x="826" d="M826 43V0H0V43H223Q141 90 94 172T46 354Q46 508 152 611T413 715T674 612T780 354Q780 254 732 172T603 43H826ZM621 447T561 513T414 579T266 513T206 354T266 195T413 129T561 194T621 353Z" />
<glyph unicode="P" glyph-name="P" horiz-adv-x="677" d="M677 43V0H-11V43H86V699H333Q494 699 567 637T641 445T566 255T335 195H242V43H677ZM425 330T453 361T481 453T445 539T331 565H242V330H347Q425 330 453 361Z" />
<glyph unicode="Q" glyph-name="Q" horiz-adv-x="827" d="M780 354Q780 254 733 172T603 43H827V0H491V-117H335V0H0V43H223Q141 90 94 172T46 354Q46 508 152 611T413 715T674 612T780 354ZM335 242H491V145Q549 170 585 226T621 353Q621 447 561 513T414 579T266
513T206 353Q206 283 241 227T335 145V242Z" />
<glyph unicode="R" glyph-name="R" horiz-adv-x="727" d="M86 43V699H351Q514 699 583 644T653 467Q653 299 520 250L666 43H760V0H505L350 223H242V0H-11V43H86ZM436 358T465 384T494 466T464 544T359 565H242V358H356Q436 358 465 384Z" />
<glyph unicode="S" glyph-name="S" horiz-adv-x="638" d="M638 43V0H0V43H136Q81 71 36 115L129 229Q242 130 338 130Q381 130 405 148T430 198T404 248T301 286Q179 315 123 361T66 507T137 661T316 715Q386 715 456 691T578 623L499 509Q408 578 311 578Q272
578 250 560T227 511T254 462T381 420T536 346T591 210Q591 102 510 43H638Z" />
<glyph unicode="T" glyph-name="T" horiz-adv-x="608" d="M608 43V0H0V43H226V564H28V699H580V564H382V43H608Z" />
<glyph unicode="U" glyph-name="U" horiz-adv-x="751" d="M751 43V0H0V43H199Q76 125 76 308V699H232V313Q232 229 271 181T376 132T480 180T519 313V699H675V308Q675 125 553 43H751Z" />
<glyph unicode="V" glyph-name="V" horiz-adv-x="688" d="M688 43V0H0V43H260L-3 699H166L344 254L522 699H691L427 43H688Z" />
<glyph unicode="W" glyph-name="W" horiz-adv-x="1019" d="M1019 43V0H662L509 486L357 0H0V43H226L-3 699H166L304 297L428 699H591L714 297L853 699H1022L793 43H1019Z" />
<glyph unicode="X" glyph-name="X" horiz-adv-x="695" d="M754 43V0H495L346 230L198 0H-58V43H38L245 358L26 699H213L346 492L479 699H667L449 362L657 43H754Z" />
<glyph unicode="Y" glyph-name="Y" horiz-adv-x="618" d="M618 43V0H0V43H231V276L-11 699H158L309 439L460 699H629L387 276V43H618Z" />
<glyph unicode="Z" glyph-name="Z" horiz-adv-x="681" d="M728 43V0H-51V43H46V107L412 564H58V699H625V591L260 136H631V43H728Z" />
<glyph unicode="[" glyph-name="bracketleft" horiz-adv-x="374" d="M-9 0V43H77V757H334V644H205V130H334V43H411V0H-9Z" />
<glyph unicode="\" glyph-name="backslash" horiz-adv-x="572" d="M632 43V0H0V43H371L28 757H179L522 43H632Z" />
<glyph unicode="]" glyph-name="bracketright" horiz-adv-x="374" d="M383 43V0H-37V43H40V130H169V644H40V757H297V43H383Z" />
<glyph unicode="^" glyph-name="asciicircum" horiz-adv-x="483" d="M165 771H22L159 948H324L461 771H318L241 856L165 771Z" />
<glyph unicode="_" glyph-name="underscore" horiz-adv-x="720" d="M0 0V43H720V0H384V-45H653V-132H67V-45H337V0H0Z" />
<glyph unicode="`" glyph-name="grave" horiz-adv-x="382" d="M332 769H189L50 881L204 947L332 769Z" />
<glyph unicode="a" glyph-name="a" horiz-adv-x="745" d="M847 43V0H584L519 151H226L161 0H-102V43H13L297 699H448L731 43H847ZM373 491L285 288H460L373 491Z" />
<glyph unicode="b" glyph-name="b" horiz-adv-x="706" d="M706 43V0H-11V43H86V699H358Q429 699 480 682T558 636Q605 582 605 514Q605 432 552 392Q534 378 527 375T502 363Q567 349 605 305T644 194Q644 95 566 43H706ZM242 132H349Q416 132 449 148T483 213T448
277T334 293H242V132ZM242 416H316Q381 416 412 430T444 490T415 552T317 567H242V416Z" />
<glyph unicode="c" glyph-name="c" horiz-adv-x="736" d="M736 43V0H0V43H215Q135 90 90 170T44 353Q44 507 150 611T411 715Q583 715 699 584L602 474Q528 566 418 566Q330 566 268 509T205 354T264 197T407 138Q522 138 595 229L695 126Q651 75 596 43H736Z" />
<glyph unicode="d" glyph-name="d" horiz-adv-x="782" d="M782 43V0H-11V43H86V699H333Q520 699 620 608T720 350Q720 126 546 43H782ZM448 138T505 192T563 349T506 507T329 563H242V138H341Q448 138 505 192Z" />
<glyph unicode="e" glyph-name="e" horiz-adv-x="654" d="M86 43V699H590V560H242V416H555V283H242V138H601V43H698V0H-11V43H86Z" />
<glyph unicode="f" glyph-name="f" horiz-adv-x="612" d="M612 43V0H0V43H86V699H566V562H242V411H550V274H242V43H612Z" />
<glyph unicode="g" glyph-name="g" horiz-adv-x="750" d="M750 43V0H0V43H217Q137 90 92 170T46 353Q46 507 152 611T409 715T671 616L590 499Q543 540 504 555T418 571Q329 571 268 511T207 351T265 193T405 133T540 164V356H697V108Q663 70 616 43H750Z" />
<glyph unicode="h" glyph-name="h" horiz-adv-x="762" d="M762 43V0H520V275H242V0H0V43H86V699H242V407H520V699H676V43H762Z" />
<glyph unicode="i" glyph-name="i" horiz-adv-x="328" d="M328 43V0H0V43H86V699H242V43H328Z" />
<glyph unicode="j" glyph-name="j" horiz-adv-x="556" d="M556 43V0H0V43H119Q70 65 26 111L107 226Q170 158 239 158Q272 158 295 184T319 260V565H112V699H476V263Q476 104 368 43H556Z" />
<glyph unicode="k" glyph-name="k" horiz-adv-x="710" d="M421 390L668 43H751V0H517L312 276L242 198V0H0V43H86V699H242V412L506 699H699L421 390Z" />
<glyph unicode="l" glyph-name="l" horiz-adv-x="568" d="M637 43V0H-11V43H86V699H242V139H540V43H637Z" />
<glyph unicode="m" glyph-name="m" horiz-adv-x="954" d="M712 440L523 58H430L242 440V0H-11V43H86V699H297L477 315L658 699H868V43H965V0H712V440Z" />
<glyph unicode="n" glyph-name="n" horiz-adv-x="817" d="M86 43V699H232L575 249V699H731V43H828V0H575L242 438V0H-11V43H86Z" />
<glyph unicode="o" glyph-name="o" horiz-adv-x="826" d="M826 43V0H0V43H223Q141 90 94 172T46 354Q46 508 152 611T413 715T674 612T780 354Q780 254 732 172T603 43H826ZM621 447T561 513T414 579T266 513T206 354T266 195T413 129T561 194T621 353Z" />
<glyph unicode="p" glyph-name="p" horiz-adv-x="677" d="M677 43V0H-11V43H86V699H333Q494 699 567 637T641 445T566 255T335 195H242V43H677ZM425 330T453 361T481 453T445 539T331 565H242V330H347Q425 330 453 361Z" />
<glyph unicode="q" glyph-name="q" horiz-adv-x="827" d="M780 354Q780 254 733 172T603 43H827V0H491V-117H335V0H0V43H223Q141 90 94 172T46 354Q46 508 152 611T413 715T674 612T780 354ZM335 242H491V145Q549 170 585 226T621 353Q621 447 561 513T414 579T266
513T206 353Q206 283 241 227T335 145V242Z" />
<glyph unicode="r" glyph-name="r" horiz-adv-x="727" d="M86 43V699H351Q514 699 583 644T653 467Q653 299 520 250L666 43H760V0H505L350 223H242V0H-11V43H86ZM436 358T465 384T494 466T464 544T359 565H242V358H356Q436 358 465 384Z" />
<glyph unicode="s" glyph-name="s" horiz-adv-x="638" d="M638 43V0H0V43H136Q81 71 36 115L129 229Q242 130 338 130Q381 130 405 148T430 198T404 248T301 286Q179 315 123 361T66 507T137 661T316 715Q386 715 456 691T578 623L499 509Q408 578 311 578Q272
578 250 560T227 511T254 462T381 420T536 346T591 210Q591 102 510 43H638Z" />
<glyph unicode="t" glyph-name="t" horiz-adv-x="608" d="M608 43V0H0V43H226V564H28V699H580V564H382V43H608Z" />
<glyph unicode="u" glyph-name="u" horiz-adv-x="751" d="M751 43V0H0V43H199Q76 125 76 308V699H232V313Q232 229 271 181T376 132T480 180T519 313V699H675V308Q675 125 553 43H751Z" />
<glyph unicode="v" glyph-name="v" horiz-adv-x="688" d="M688 43V0H0V43H260L-3 699H166L344 254L522 699H691L427 43H688Z" />
<glyph unicode="w" glyph-name="w" horiz-adv-x="1019" d="M1019 43V0H662L509 486L357 0H0V43H226L-3 699H166L304 297L428 699H591L714 297L853 699H1022L793 43H1019Z" />
<glyph unicode="x" glyph-name="x" horiz-adv-x="695" d="M754 43V0H495L346 230L198 0H-58V43H38L245 358L26 699H213L346 492L479 699H667L449 362L657 43H754Z" />
<glyph unicode="y" glyph-name="y" horiz-adv-x="618" d="M618 43V0H0V43H231V276L-11 699H158L309 439L460 699H629L387 276V43H618Z" />
<glyph unicode="z" glyph-name="z" horiz-adv-x="681" d="M728 43V0H-51V43H46V107L412 564H58V699H625V591L260 136H631V43H728Z" />
<glyph unicode="{" glyph-name="braceleft" horiz-adv-x="360" d="M360 43V0H0V43H148Q106 82 106 149V275Q106 329 57 329H37V431H57Q106 431 106 485V611Q106 684 151 720T271 757H311V644Q306 645 296 645Q246 645 246 585V499Q246 430 205 396Q188 382 179
380Q203 372 224 344Q246 315 246 261V175Q246 115 296 115Q306 115 311 116V43H360Z" />
<glyph unicode="|" glyph-name="bar" horiz-adv-x="276" d="M0 0V43H76V777H200V43H276V0H0Z" />
<glyph unicode="}" glyph-name="braceright" horiz-adv-x="360" d="M0 0V43H49V116Q54 115 64 115Q114 115 114 175V261Q114 329 154 364Q170 378 180 380Q156 388 136 416Q114 448 114 499V585Q114 645 64 645Q54 645 49 644V757H89Q163 757 208 721T254 611V485Q254
431 303 431H323V329H303Q254 329 254 275V149Q254 82 212 43H360V0H0Z" />
<glyph unicode="~" glyph-name="asciitilde" horiz-adv-x="535" d="M0 0V43H236V339Q200 354 185 354T156 335T144 281L25 317Q32 397 72 437T175 478Q211 478 273 446T357 414Q389 414 389 457Q389 471 387 479L507 447Q501 364 463 327T368 289Q338 289 300
307V43H535V0H0Z" />
<glyph unicode="&#xa1;" glyph-name="exclamdown" horiz-adv-x="318" d="M318 43V0H0V43H70V132L100 492H218L247 132V43H318ZM247 664T247 627T222 565T159 539T97 564T71 627T96 689T159 715T221 690Z" />
<glyph unicode="&#xa2;" glyph-name="cent" horiz-adv-x="598" d="M280 -117V0H-11V43H160Q46 122 46 268Q46 378 113 452T280 542V657H376V543Q478 528 553 452L475 350Q434 397 376 410V131Q402 139 425 156T460 186L470 200L559 100Q522 63 490 43H598V0H376V-117H280ZM241
389T217 355T193 270T217 184T280 135V404Q241 389 217 355Z" />
<glyph unicode="&#xa3;" glyph-name="sterling" horiz-adv-x="628" d="M668 43V0H-43V43H62V133H138V273H58V399H138V502Q138 626 201 682T368 739Q506 739 578 613L467 523Q451 560 426 581T371 602T318 580T295 508V399H451V273H295V133H573V43H668Z" />
<glyph unicode="&#xa4;" glyph-name="currency" horiz-adv-x="761" d="M142 193Q96 260 96 346T140 500L56 585L150 680L239 591Q304 626 381 626T522 590L611 680L705 585L621 499Q665 431 665 347T618 193L705 105L644 43H807V0H-43V43H116L56 105L142 193ZM324
204T380 204T472 244T508 348T472 451T380 491T288 451T252 348T288 245ZM519 104Q453 70 379 70T242 104L181 43H579L519 104Z" />
<glyph unicode="&#xa5;" glyph-name="yen" horiz-adv-x="741" d="M741 43V0H0V43H286V128H108V224H286V279H108V375H222L34 698H204L369 413L540 698H709L515 375H625V279H449V224H625V128H449V43H741Z" />
<glyph unicode="&#xa6;" glyph-name="brokenbar" horiz-adv-x="294" d="M294 43V0H0V43H80V339H214V43H294ZM80 427V754H214V427H80Z" />
<glyph unicode="&#xa7;" glyph-name="section" horiz-adv-x="622" d="M642 43V0H539Q530 -67 471 -111T316 -156Q173 -156 53 -47L92 0H0V43H384Q362 65 262 94T106 166T50 290Q50 332 74 369T145 427Q91 465 91 530Q91 612 152 663T308 715Q374 715 426 697T535
636L460 529Q376 593 306 593Q274 593 256 578T237 538T260 497T354 463Q474 434 526 394T578 277Q578 176 476 134Q526 99 537 43H642ZM183 294Q183 256 231 232T355 207Q393 207 419 223T445 267Q445 308 386 328T278 348Q183 348 183 294ZM210 0Q268 -34 325
-34T394 0H210Z" />
<glyph unicode="&#xa8;" glyph-name="dieresis" horiz-adv-x="531" d="M95 660T95 691T116 743T169 765T221 744T243 691T222 639T169 617T117 638ZM288 660T288 691T309 743T362 765T414 744T436 691T415 639T362 617T310 638Z" />
<glyph unicode="&#xa9;" glyph-name="copyright" horiz-adv-x="824" d="M0 0V43H219Q141 92 96 172T51 348Q51 497 156 604T412 711T667 605T773 350Q773 255 727 174T603 43H824V0H0ZM699 232T699 350T615 552T413 636T210 551T125 348T208 146T411 62T615 147ZM416
146Q332 146 271 203T210 352T273 501T428 559T588 488L528 413Q488 461 427 461Q384 461 354 433T323 354T354 274T430 244Q495 244 530 302L592 227Q515 146 416 146Z" />
<glyph unicode="&#xab;" glyph-name="guillemotleft" horiz-adv-x="604" d="M-30 0V43H136L18 219L140 407H291L173 219L287 43H361L243 219L365 407H516L398 219L512 43H604V0H-30Z" />
<glyph unicode="&#xac;" glyph-name="logicalnot" horiz-adv-x="817" d="M63 445H732V88H620V327H63V445Z" />
<glyph unicode="&#xae;" glyph-name="registered" horiz-adv-x="824" d="M0 0V43H219Q141 92 96 172T51 348Q51 497 156 604T412 711T667 605T773 350Q773 255 727 174T603 43H824V0H0ZM619 151Q699 234 699 351T615 552T413 636T210 551T125 348T208 146T412
62T617 149H501L414 274H370V149H260V555H421Q517 555 558 522T599 416Q599 327 518 292L619 151ZM462 364T476 376T490 416T476 454T425 465H370V364H423Q462 364 476 376Z" />
<glyph unicode="&#xaf;" glyph-name="overscore" horiz-adv-x="442" d="M388 687V571H55V687H388Z" />
<glyph unicode="&#xb0;" glyph-name="degree" horiz-adv-x="428" d="M145 714T214 714T332 666T381 551T332 436T214 388T96 435T47 550T96 666ZM142 517T163 494T214 470T264 493T285 550T265 607T214 630T163 607T142 551ZM430 43V0H0V43H430Z" />
<glyph unicode="&#xb1;" glyph-name="plusminus" horiz-adv-x="581" d="M48 202H259V252H221V391H48V508H221V652H359V508H533V391H359V252H323V202H533V89H323V43H581V0H0V43H259V89H48V202Z" />
<glyph unicode="&#xb4;" glyph-name="acute" horiz-adv-x="382" d="M193 771H50L177 948L332 883L193 771Z" />
<glyph unicode="&#xb6;" glyph-name="paragraph" horiz-adv-x="712" d="M712 43V0H0V43H260V348H240Q110 348 60 444Q34 493 34 548Q34 636 94 696T279 756H621V43H712ZM390 632V43H488V632H390Z" />
<glyph unicode="&#xb7;" glyph-name="middot" horiz-adv-x="298" d="M61 281T61 318T86 380T149 406T211 381T237 318T212 256T149 230T87 255Z" />
<glyph unicode="&#xb8;" glyph-name="cedilla" horiz-adv-x="281" d="M244 -127Q244 -170 209 -202T119 -234T14 -202L52 -116Q74 -135 91 -135T117 -126T127 -104T115 -80T87 -69T51 -78L92 0H207L179 -51Q244 -73 244 -127Z" />
<glyph unicode="&#xbb;" glyph-name="guillemotright" horiz-adv-x="604" d="M604 43V0H-30V43H61L176 219L58 407H209L331 219L212 43H286L401 219L283 407H434L556 219L437 43H604Z" />
<glyph unicode="&#xbf;" glyph-name="questiondown" horiz-adv-x="526" d="M0 0V43H130Q52 90 52 194Q52 236 74 276T124 342Q195 411 195 461V492H347V443Q347 375 290 316Q282 308 262 289T234 261Q209 233 209 205T224 160T266 144T313 168T333 224Q333 230
332 236H474Q474 231 474 226Q474 100 377 43H526V0H0ZM357 664T357 627T332 565T269 539T207 564T181 627T206 689T269 715T331 690Z" />
<glyph unicode="&#xc0;" glyph-name="Agrave" horiz-adv-x="745" d="M847 43V0H584L519 151H226L161 0H-102V43H13L297 699H448L731 43H847ZM448 769H305L166 881L320 947L448 769ZM373 491L285 288H460L373 491Z" />
<glyph unicode="&#xc1;" glyph-name="Aacute" horiz-adv-x="745" d="M847 43V0H584L519 151H226L161 0H-102V43H13L297 699H448L731 43H847ZM439 771H296L423 948L578 883L439 771ZM373 491L285 288H460L373 491Z" />
<glyph unicode="&#xc2;" glyph-name="Acircumflex" horiz-adv-x="745" d="M847 43V0H584L519 151H226L161 0H-102V43H13L297 699H448L731 43H847ZM283 769H160L273 927H460L573 769H450L366 850L283 769ZM373 491L285 288H460L373 491Z" />
<glyph unicode="&#xc3;" glyph-name="Atilde" horiz-adv-x="745" d="M847 43V0H584L519 151H226L161 0H-102V43H13L297 699H448L731 43H847ZM309 821Q278 821 279 769H173Q173 844 205 887T289 930Q321 930 366 903T422 875Q453 875 452 927H558Q558 852 526 809T442
766Q411 766 364 793T309 821ZM373 491L285 288H460L373 491Z" />
<glyph unicode="&#xc4;" glyph-name="Adieresis" horiz-adv-x="745" d="M847 43V0H584L519 151H226L161 0H-102V43H13L297 699H448L731 43H847ZM373 491L285 288H460L373 491ZM205 816T205 847T226 899T279 921T331 900T353 847T332 795T279 773T227 794ZM398
816T398 847T419 899T472 921T524 900T546 847T525 795T472 773T420 794Z" />
<glyph unicode="&#xc5;" glyph-name="Aring" horiz-adv-x="745" d="M-102 0V43H13L296 698Q266 730 266 773T297 848T373 880T448 849T480 773T448 697L731 43H847V0H584L519 151H226L161 0H-102ZM373 491L285 288H460L373 491ZM338 787T338 773T348 749T373 738T397
748T408 773T398 797T373 808T349 798Z" />
<glyph unicode="&#xc6;" glyph-name="AE" horiz-adv-x="1023" d="M1068 43V0H445V151H247L168 0H-102V43H6L343 699H960V562H611V411H924V280H611V137H971V43H1068ZM445 292V538L318 292H445Z" />
<glyph unicode="&#xc7;" glyph-name="Ccedilla" horiz-adv-x="732" d="M736 43V0H0V43H215Q135 90 90 170T44 353Q44 507 150 611T411 715Q583 715 699 584L602 474Q528 566 418 566Q330 566 268 509T205 354T264 197T407 138Q522 138 595 229L695 126Q651 75
596 43H736ZM492 -129Q492 -172 457 -204T367 -236T262 -204L300 -118Q322 -137 339 -137T365 -128T375 -106T363 -82T335 -71T299 -80L340 -2H455L427 -53Q492 -75 492 -129Z" />
<glyph unicode="&#xc8;" glyph-name="Egrave" horiz-adv-x="654" d="M86 43V699H590V560H242V416H555V283H242V138H601V43H698V0H-11V43H86ZM404 769H261L122 881L276 947L404 769Z" />
<glyph unicode="&#xc9;" glyph-name="Eacute" horiz-adv-x="654" d="M86 43V699H590V560H242V416H555V283H242V138H601V43H698V0H-11V43H86ZM395 771H252L379 948L534 883L395 771Z" />
<glyph unicode="&#xca;" glyph-name="Ecircumflex" horiz-adv-x="654" d="M86 43V699H590V560H242V416H555V283H242V138H601V43H698V0H-11V43H86ZM239 769H116L229 927H416L529 769H406L322 850L239 769Z" />
<glyph unicode="&#xcb;" glyph-name="Edieresis" horiz-adv-x="654" d="M86 43V699H590V560H242V416H555V283H242V138H601V43H698V0H-11V43H86ZM363 816T363 847T384 899T437 921T489 900T511 847T490 795T437 773T385 794ZM170 816T170 847T191 899T244 921T296
900T318 847T297 795T244 773T192 794Z" />
<glyph unicode="&#xcc;" glyph-name="Igrave" horiz-adv-x="328" d="M328 43V0H0V43H86V699H242V43H328ZM245 769H102L-37 881L117 947L245 769Z" />
<glyph unicode="&#xcd;" glyph-name="Iacute" horiz-adv-x="328" d="M328 43V0H0V43H86V699H242V43H328ZM236 771H93L220 948L375 883L236 771Z" />
<glyph unicode="&#xce;" glyph-name="Icircumflex" horiz-adv-x="328" d="M328 43V0H0V43H86V699H242V43H328ZM81 770H-42L71 928H258L371 770H248L164 851L81 770Z" />
<glyph unicode="&#xcf;" glyph-name="Idieresis" horiz-adv-x="328" d="M328 43V0H0V43H86V699H242V43H328ZM186 816T186 847T207 899T260 921T312 900T334 847T313 795T260 773T208 794ZM-7 816T-7 847T14 899T67 921T119 900T141 847T120 795T67 773T15 794Z" />
<glyph unicode="&#xd0;" glyph-name="Eth" horiz-adv-x="784" d="M26 280V413H100V699H347Q534 699 634 608T734 350Q734 126 560 43H796V0H3V43H100V280H26ZM462 138T519 192T577 349T520 507T343 563H256V413H490V280H256V138H355Q462 138 519 192Z" />
<glyph unicode="&#xd1;" glyph-name="Ntilde" horiz-adv-x="817" d="M86 43V699H232L575 249V699H731V43H828V0H575L242 438V0H-11V43H86ZM350 820Q319 820 320 768H214Q214 843 246 886T330 929Q362 929 407 902T463 874Q494 874 493 926H599Q599 851 567 808T483
765Q452 765 405 792T350 820Z" />
<glyph unicode="&#xd2;" glyph-name="Ograve" horiz-adv-x="826" d="M826 43V0H0V43H223Q141 90 94 172T46 354Q46 508 152 611T413 715T674 612T780 354Q780 254 732 172T603 43H826ZM621 447T561 513T414 579T266 513T206 354T266 195T413 129T561 194T621 353ZM494
769H351L212 881L366 947L494 769Z" />
<glyph unicode="&#xd3;" glyph-name="Oacute" horiz-adv-x="826" d="M826 43V0H0V43H223Q141 90 94 172T46 354Q46 508 152 611T413 715T674 612T780 354Q780 254 732 172T603 43H826ZM621 447T561 513T414 579T266 513T206 354T266 195T413 129T561 194T621 353ZM485
771H342L469 948L624 883L485 771Z" />
<glyph unicode="&#xd4;" glyph-name="Ocircumflex" horiz-adv-x="826" d="M826 43V0H0V43H223Q141 90 94 172T46 354Q46 508 152 611T413 715T674 612T780 354Q780 254 732 172T603 43H826ZM621 447T561 513T414 579T266 513T206 354T266 195T413 129T561 194T621
353ZM329 769H206L319 927H506L619 769H496L412 850L329 769Z" />
<glyph unicode="&#xd5;" glyph-name="Otilde" horiz-adv-x="826" d="M826 43V0H0V43H223Q141 90 94 172T46 354Q46 508 152 611T413 715T674 612T780 354Q780 254 732 172T603 43H826ZM621 447T561 513T414 579T266 513T206 354T266 195T413 129T561 194T621 353ZM355
820Q324 820 325 768H219Q219 843 251 886T335 929Q367 929 412 902T468 874Q499 874 498 926H604Q604 851 572 808T488 765Q457 765 410 792T355 820Z" />
<glyph unicode="&#xd6;" glyph-name="Odieresis" horiz-adv-x="826" d="M826 43V0H0V43H223Q141 90 94 172T46 354Q46 508 152 611T413 715T674 612T780 354Q780 254 732 172T603 43H826ZM621 447T561 513T414 579T266 513T206 354T266 195T413 129T561 194T621
353ZM241 816T241 847T262 899T315 921T367 900T389 847T368 795T315 773T263 794ZM434 816T434 847T455 899T508 921T560 900T582 847T561 795T508 773T456 794Z" />
<glyph unicode="&#xd7;" glyph-name="multiply" horiz-adv-x="589" d="M589 43V0H0V43H271V250L136 112L48 201L208 364L49 525L137 614L295 451L454 614L540 525L383 364L541 201L455 112L318 251V43H589Z" />
<glyph unicode="&#xd8;" glyph-name="Oslash" horiz-adv-x="826" d="M826 43V0H333L282 -112H141L192 0H0V43H211L214 48Q136 96 91 176T46 354Q46 508 152 611T413 715Q461 715 513 702L560 805H702L630 648Q700 599 740 522T780 350T732 173T603 43H826ZM413
579Q326 579 266 513T206 348T276 184L455 574Q432 579 413 579ZM501 129T561 194T621 351T565 508L393 130Q399 129 413 129Q501 129 561 194Z" />
<glyph unicode="&#xd9;" glyph-name="Ugrave" horiz-adv-x="751" d="M751 43V0H0V43H199Q76 125 76 308V699H232V313Q232 229 271 181T376 132T480 180T519 313V699H675V308Q675 125 553 43H751ZM455 769H312L173 881L327 947L455 769Z" />
<glyph unicode="&#xda;" glyph-name="Uacute" horiz-adv-x="751" d="M751 43V0H0V43H199Q76 125 76 308V699H232V313Q232 229 271 181T376 132T480 180T519 313V699H675V308Q675 125 553 43H751ZM447 771H304L431 948L586 883L447 771Z" />
<glyph unicode="&#xdb;" glyph-name="Ucircumflex" horiz-adv-x="751" d="M751 43V0H0V43H199Q76 125 76 308V699H232V313Q232 229 271 181T376 132T480 180T519 313V699H675V308Q675 125 553 43H751ZM291 769H168L281 927H468L581 769H458L374 850L291 769Z" />
<glyph unicode="&#xdc;" glyph-name="Udieresis" horiz-adv-x="751" d="M751 43V0H0V43H199Q76 125 76 308V699H232V313Q232 229 271 181T376 132T480 180T519 313V699H675V308Q675 125 553 43H751ZM397 816T397 847T418 899T471 921T523 900T545 847T524 795T471
773T419 794ZM204 816T204 847T225 899T278 921T330 900T352 847T331 795T278 773T226 794Z" />
<glyph unicode="&#xdd;" glyph-name="Yacute" horiz-adv-x="618" d="M618 43V0H0V43H231V276L-11 699H158L309 439L460 699H629L387 276V43H618ZM361 771H218L345 948L500 883L361 771Z" />
<glyph unicode="&#xde;" glyph-name="Thorn" horiz-adv-x="685" d="M785 43V0H-100V43H86V699H242V615H323Q641 615 641 368Q641 232 562 172T325 111H242V43H785ZM417 246T449 278T481 370T441 455T321 480H242V246H337Q417 246 449 278Z" />
<glyph unicode="&#xdf;" glyph-name="germandbls" horiz-adv-x="647" d="M-38 0V43H70V450Q70 548 90 604Q98 629 117 660T162 710Q222 757 321 757Q378 757 422 743T493 707T536 656Q564 605 564 547Q564 454 487 391Q546 372 575 323T605 212Q605 99 517 43H647V0H-38ZM346
435T378 465T411 533T392 597T332 624Q274 624 250 583T226 463V43H282V126H326Q449 126 449 212Q449 307 334 307Q313 307 279 304V425Q346 435 378 465Z" />
<glyph unicode="&#xe0;" glyph-name="agrave" horiz-adv-x="745" d="M847 43V0H584L519 151H226L161 0H-102V43H13L297 699H448L731 43H847ZM448 769H305L166 881L320 947L448 769ZM373 491L285 288H460L373 491Z" />
<glyph unicode="&#xe1;" glyph-name="aacute" horiz-adv-x="745" d="M847 43V0H584L519 151H226L161 0H-102V43H13L297 699H448L731 43H847ZM439 771H296L423 948L578 883L439 771ZM373 491L285 288H460L373 491Z" />
<glyph unicode="&#xe2;" glyph-name="acircumflex" horiz-adv-x="745" d="M847 43V0H584L519 151H226L161 0H-102V43H13L297 699H448L731 43H847ZM283 769H160L273 927H460L573 769H450L366 850L283 769ZM373 491L285 288H460L373 491Z" />
<glyph unicode="&#xe3;" glyph-name="atilde" horiz-adv-x="745" d="M847 43V0H584L519 151H226L161 0H-102V43H13L297 699H448L731 43H847ZM309 821Q278 821 279 769H173Q173 844 205 887T289 930Q321 930 366 903T422 875Q453 875 452 927H558Q558 852 526 809T442
766Q411 766 364 793T309 821ZM373 491L285 288H460L373 491Z" />
<glyph unicode="&#xe4;" glyph-name="adieresis" horiz-adv-x="745" d="M847 43V0H584L519 151H226L161 0H-102V43H13L297 699H448L731 43H847ZM373 491L285 288H460L373 491ZM205 816T205 847T226 899T279 921T331 900T353 847T332 795T279 773T227 794ZM398
816T398 847T419 899T472 921T524 900T546 847T525 795T472 773T420 794Z" />
<glyph unicode="&#xe5;" glyph-name="aring" horiz-adv-x="745" d="M-102 0V43H13L296 698Q266 730 266 773T297 848T373 880T448 849T480 773T448 697L731 43H847V0H584L519 151H226L161 0H-102ZM373 491L285 288H460L373 491ZM338 787T338 773T348 749T373 738T397
748T408 773T398 797T373 808T349 798Z" />
<glyph unicode="&#xe6;" glyph-name="ae" horiz-adv-x="1023" d="M1068 43V0H445V151H247L168 0H-102V43H6L343 699H960V562H611V411H924V280H611V137H971V43H1068ZM445 292V538L318 292H445Z" />
<glyph unicode="&#xe7;" glyph-name="ccedilla" horiz-adv-x="732" d="M736 43V0H0V43H215Q135 90 90 170T44 353Q44 507 150 611T411 715Q583 715 699 584L602 474Q528 566 418 566Q330 566 268 509T205 354T264 197T407 138Q522 138 595 229L695 126Q651 75
596 43H736ZM492 -129Q492 -172 457 -204T367 -236T262 -204L300 -118Q322 -137 339 -137T365 -128T375 -106T363 -82T335 -71T299 -80L340 -2H455L427 -53Q492 -75 492 -129Z" />
<glyph unicode="&#xe8;" glyph-name="egrave" horiz-adv-x="654" d="M86 43V699H590V560H242V416H555V283H242V138H601V43H698V0H-11V43H86ZM404 769H261L122 881L276 947L404 769Z" />
<glyph unicode="&#xe9;" glyph-name="eacute" horiz-adv-x="654" d="M86 43V699H590V560H242V416H555V283H242V138H601V43H698V0H-11V43H86ZM395 771H252L379 948L534 883L395 771Z" />
<glyph unicode="&#xea;" glyph-name="ecircumflex" horiz-adv-x="654" d="M86 43V699H590V560H242V416H555V283H242V138H601V43H698V0H-11V43H86ZM239 769H116L229 927H416L529 769H406L322 850L239 769Z" />
<glyph unicode="&#xeb;" glyph-name="edieresis" horiz-adv-x="654" d="M86 43V699H590V560H242V416H555V283H242V138H601V43H698V0H-11V43H86ZM170 816T170 847T191 899T244 921T296 900T318 847T297 795T244 773T192 794ZM363 816T363 847T384 899T437 921T489
900T511 847T490 795T437 773T385 794Z" />
<glyph unicode="&#xec;" glyph-name="igrave" horiz-adv-x="328" d="M328 43V0H0V43H86V699H242V43H328ZM245 769H102L-37 881L117 947L245 769Z" />
<glyph unicode="&#xed;" glyph-name="iacute" horiz-adv-x="328" d="M328 43V0H0V43H86V699H242V43H328ZM236 771H93L220 948L375 883L236 771Z" />
<glyph unicode="&#xee;" glyph-name="icircumflex" horiz-adv-x="328" d="M328 43V0H0V43H86V699H242V43H328ZM81 770H-42L71 928H258L371 770H248L164 851L81 770Z" />
<glyph unicode="&#xef;" glyph-name="idieresis" horiz-adv-x="328" d="M328 43V0H0V43H86V699H242V43H328ZM186 816T186 847T207 899T260 921T312 900T334 847T313 795T260 773T208 794ZM-7 816T-7 847T14 899T67 921T119 900T141 847T120 795T67 773T15 794Z" />
<glyph unicode="&#xf0;" glyph-name="eth" horiz-adv-x="784" d="M26 280V413H100V699H347Q534 699 634 608T734 350Q734 126 560 43H796V0H3V43H100V280H26ZM462 138T519 192T577 349T520 507T343 563H256V413H490V280H256V138H355Q462 138 519 192Z" />
<glyph unicode="&#xf1;" glyph-name="ntilde" horiz-adv-x="817" d="M86 43V699H232L575 249V699H731V43H828V0H575L242 438V0H-11V43H86ZM350 820Q319 820 320 768H214Q214 843 246 886T330 929Q362 929 407 902T463 874Q494 874 493 926H599Q599 851 567 808T483
765Q452 765 405 792T350 820Z" />
<glyph unicode="&#xf2;" glyph-name="ograve" horiz-adv-x="826" d="M826 43V0H0V43H223Q141 90 94 172T46 354Q46 508 152 611T413 715T674 612T780 354Q780 254 732 172T603 43H826ZM621 447T561 513T414 579T266 513T206 354T266 195T413 129T561 194T621 353ZM494
769H351L212 881L366 947L494 769Z" />
<glyph unicode="&#xf3;" glyph-name="oacute" horiz-adv-x="826" d="M826 43V0H0V43H223Q141 90 94 172T46 354Q46 508 152 611T413 715T674 612T780 354Q780 254 732 172T603 43H826ZM621 447T561 513T414 579T266 513T206 354T266 195T413 129T561 194T621 353ZM485
771H342L469 948L624 883L485 771Z" />
<glyph unicode="&#xf4;" glyph-name="ocircumflex" horiz-adv-x="826" d="M826 43V0H0V43H223Q141 90 94 172T46 354Q46 508 152 611T413 715T674 612T780 354Q780 254 732 172T603 43H826ZM621 447T561 513T414 579T266 513T206 354T266 195T413 129T561 194T621
353ZM329 769H206L319 927H506L619 769H496L412 850L329 769Z" />
<glyph unicode="&#xf5;" glyph-name="otilde" horiz-adv-x="826" d="M826 43V0H0V43H223Q141 90 94 172T46 354Q46 508 152 611T413 715T674 612T780 354Q780 254 732 172T603 43H826ZM621 447T561 513T414 579T266 513T206 354T266 195T413 129T561 194T621 353ZM355
820Q324 820 325 768H219Q219 843 251 886T335 929Q367 929 412 902T468 874Q499 874 498 926H604Q604 851 572 808T488 765Q457 765 410 792T355 820Z" />
<glyph unicode="&#xf6;" glyph-name="odieresis" horiz-adv-x="826" d="M826 43V0H0V43H223Q141 90 94 172T46 354Q46 508 152 611T413 715T674 612T780 354Q780 254 732 172T603 43H826ZM621 447T561 513T414 579T266 513T206 354T266 195T413 129T561 194T621
353ZM241 816T241 847T262 899T315 921T367 900T389 847T368 795T315 773T263 794ZM434 816T434 847T455 899T508 921T560 900T582 847T561 795T508 773T456 794Z" />
<glyph unicode="&#xf7;" glyph-name="divide" horiz-adv-x="582" d="M0 0V43H260V77Q234 87 219 109T203 160T218 210T260 242V288H48V411H260V456Q234 466 219 488T203 543T228 601T291 627T353 602T379 544T364 490T324 457V411H534V288H324V241Q348 231 363
209T379 160T364 111T324 78V43H582V0H0Z" />
<glyph unicode="&#xf8;" glyph-name="oslash" horiz-adv-x="826" d="M826 43V0H333L282 -112H141L192 0H0V43H211L214 48Q136 96 91 176T46 354Q46 508 152 611T413 715Q461 715 513 702L560 805H702L630 648Q700 599 740 522T780 350T732 173T603 43H826ZM413
579Q326 579 266 513T206 348T276 184L455 574Q432 579 413 579ZM501 129T561 194T621 351T565 508L393 130Q399 129 413 129Q501 129 561 194Z" />
<glyph unicode="&#xf9;" glyph-name="ugrave" horiz-adv-x="751" d="M751 43V0H0V43H199Q76 125 76 308V699H232V313Q232 229 271 181T376 132T480 180T519 313V699H675V308Q675 125 553 43H751ZM455 769H312L173 881L327 947L455 769Z" />
<glyph unicode="&#xfa;" glyph-name="uacute" horiz-adv-x="751" d="M751 43V0H0V43H199Q76 125 76 308V699H232V313Q232 229 271 181T376 132T480 180T519 313V699H675V308Q675 125 553 43H751ZM447 771H304L431 948L586 883L447 771Z" />
<glyph unicode="&#xfb;" glyph-name="ucircumflex" horiz-adv-x="751" d="M751 43V0H0V43H199Q76 125 76 308V699H232V313Q232 229 271 181T376 132T480 180T519 313V699H675V308Q675 125 553 43H751ZM291 769H168L281 927H468L581 769H458L374 850L291 769Z" />
<glyph unicode="&#xfc;" glyph-name="udieresis" horiz-adv-x="751" d="M751 43V0H0V43H199Q76 125 76 308V699H232V313Q232 229 271 181T376 132T480 180T519 313V699H675V308Q675 125 553 43H751ZM397 816T397 847T418 899T471 921T523 900T545 847T524 795T471
773T419 794ZM204 816T204 847T225 899T278 921T330 900T352 847T331 795T278 773T226 794Z" />
<glyph unicode="&#xfd;" glyph-name="yacute" horiz-adv-x="618" d="M618 43V0H0V43H231V276L-11 699H158L309 439L460 699H629L387 276V43H618ZM361 771H218L345 948L500 883L361 771Z" />
<glyph unicode="&#xfe;" glyph-name="thorn" horiz-adv-x="685" d="M785 43V0H-100V43H86V699H242V615H323Q641 615 641 368Q641 232 562 172T325 111H242V43H785ZM417 246T449 278T481 370T441 455T321 480H242V246H337Q417 246 449 278Z" />
<glyph unicode="&#xff;" glyph-name="ydieresis" horiz-adv-x="618" d="M618 43V0H0V43H231V276L-11 699H158L309 439L460 699H629L387 276V43H618ZM331 820T331 851T352 903T405 925T457 904T479 851T458 799T405 777T353 798ZM138 820T138 851T159 903T212 925T264
904T286 851T265 799T212 777T160 798Z" />
<glyph unicode="&#x2013;" glyph-name="endash" horiz-adv-x="543" d="M74 216V312H469V216H295V43H543V0H0V43H248V216H74Z" />
<glyph unicode="&#x2014;" glyph-name="emdash" horiz-adv-x="697" d="M64 216V312H633V216H374V43H697V0H0V43H327V216H64Z" />
<glyph unicode="&#x2018;" glyph-name="quoteleft" horiz-adv-x="282" d="M282 43V0H0V43H99V504H57L117 699H239L179 504H146V43H282Z" />
<glyph unicode="&#x2019;" glyph-name="quoteright" horiz-adv-x="282" d="M282 43V0H0V43H99V504H57L117 699H239L179 504H146V43H282Z" />
<glyph unicode="&#x201a;" glyph-name="quotesinglbase" horiz-adv-x="279" d="M279 43V0H177L153 -77H32L55 0H-13V43H68L91 117H213L190 43H279Z" />
<glyph unicode="&#x201c;" glyph-name="quotedblleft" horiz-adv-x="444" d="M444 43V0H0V43H179V504H57L117 699H239L183 519H223L279 699H401L341 504H226V43H444Z" />
<glyph unicode="&#x201d;" glyph-name="quotedblright" horiz-adv-x="444" d="M444 43V0H0V43H179V504H57L117 699H239L183 519H223L279 699H401L341 504H226V43H444Z" />
<glyph unicode="&#x201e;" glyph-name="quotedblbase" horiz-adv-x="472" d="M472 43V0H370L346 -77H225L248 0H177L153 -77H32L55 0H-13V43H68L91 117H213L190 43H261L284 117H406L383 43H472Z" />
<glyph unicode="&#x2022;" glyph-name="bullet" horiz-adv-x="438" d="M0 0V43H195V180Q145 189 113 227T80 320T120 415T219 456T317 416T358 321T325 227T242 180V43H438V0H0Z" />
<glyph unicode="&#x2039;" glyph-name="guilsinglleft" horiz-adv-x="379" d="M0 0V43H166L48 219L170 407H321L203 219L317 43H379V0H0Z" />
<glyph unicode="&#x203a;" glyph-name="guilsinglright" horiz-adv-x="379" d="M-40 0V43H58L176 228L58 412H209L331 228L209 43H379V0H-40Z" />
</font>
</defs>
</svg>
