<?xml version="1.0" standalone="no"?>
<!DOCTYPE svg PUBLIC "-//W3C//DTD SVG 1.1//EN" "http://www.w3.org/Graphics/SVG/1.1/DTD/svg11.dtd">
<svg xmlns="http://www.w3.org/2000/svg">
<defs >
<font id="Catamaran" horiz-adv-x="593" ><font-face
    font-family="Catamaran Light"
    units-per-em="1000"
    panose-1="0 0 4 0 0 0 0 0 0 0"
    ascent="1100"
    descent="-540"
    alphabetic="0" />
<glyph unicode=" " glyph-name="space" horiz-adv-x="235" />
<glyph unicode="!" glyph-name="exclam" horiz-adv-x="156" d="M116 702H42L58 217L100 196L116 702ZM60 94T45 80T30 48Q30 28 45 14T79 0Q99 0 112 14T126 48Q126 67 113 80T79 94Q60 94 45 80Z" />
<glyph unicode="&quot;" glyph-name="quotedbl" horiz-adv-x="306" d="M62 702T48 688T34 654Q34 636 46 622T76 606Q74 581 60 563T20 527L38 498Q76 517 103 560T130 647Q130 671 116 686T83 702Q62 702 48 688ZM209 702T195 688T181 654Q181 636 193 622T224
606Q222 581 208 563T167 527L185 498Q222 517 249 560T276 647Q276 671 262 686T229 702Q209 702 195 688Z" />
<glyph unicode="#" glyph-name="numbersign" horiz-adv-x="497" d="M207 371L239 502H188L157 371H30L38 322H144L113 190H30L38 140H101L69 6L119 1L152 140H289L257 6L306 1L339 140H467L460 190H351L382 322H467L460 371H395L427 502H375L344 371H207ZM164
190L196 322H332L300 190H164Z" />
<glyph unicode="$" glyph-name="dollar" horiz-adv-x="508" d="M100 4T56 29L71 77Q103 61 147 50T237 38Q321 38 367 72T414 160Q414 198 394 225T335 276T229 327Q45 405 45 530Q45 585 81 627T180 686V787L226 797V695L257 696Q269 696 293 694V790L340 800V687Q385
676 425 657L403 610Q367 626 336 635T259 644Q187 644 145 613T103 530Q103 492 123 465T181 416T290 360Q357 329 395 303T453 242T473 160Q473 104 438 62T340 1V-111H293V-9Q270 -13 238 -13H226V-111H180V-8Q100 4 56 29Z" />
<glyph unicode="%" glyph-name="percent" horiz-adv-x="839" d="M294 -4L603 706L544 710L236 0L294 -4ZM147 702T112 681T56 622T35 532Q35 452 77 408T192 363Q259 363 303 409T347 532Q347 612 305 657T191 702Q147 702 112 681ZM231 651T257 621T284 532Q284
472 257 443T192 414Q152 414 125 443T98 532Q98 592 125 621T191 651Q231 651 257 621ZM605 338T570 317T514 258T493 169Q493 89 535 45T649 0Q716 0 760 46T804 169Q804 248 762 293T649 338Q605 338 570 317ZM688 288T714 258T741 169Q741 110 714 81T649 51Q609
51 583 80T556 169Q556 230 583 259T649 288Q688 288 714 258Z" />
<glyph unicode="&amp;" glyph-name="ampersand" horiz-adv-x="663" d="M545 118Q589 196 595 321L549 339Q541 227 502 156L292 354Q249 395 229 417T197 465T185 526Q185 556 200 583T243 627T307 644Q348 644 372 637T413 622T436 610L458 657Q421 676 387 686T307
696Q250 696 210 673T148 609T126 520Q126 460 157 415Q107 384 77 329T45 207Q45 137 78 88T168 13T299 -13Q441 -13 516 75L599 0L628 41L545 118ZM412 39T299 39Q249 39 205 58T134 115T107 209Q108 266 129 310T190 375L222 345L474 115Q412 39 299 39Z" />
<glyph unicode="&apos;" glyph-name="quotesingle" horiz-adv-x="160" d="M62 702T48 688T34 654Q34 636 46 622T76 606Q74 581 60 563T20 527L38 498Q76 517 103 560T130 647Q130 671 116 686T83 702Q62 702 48 688Z" />
<glyph unicode="(" glyph-name="parenleft" horiz-adv-x="251" d="M193 10T168 72T128 203T113 321Q113 369 128 437T168 566T221 657L169 675Q110 600 80 503T50 320Q50 233 80 136T169 -37L221 -19Q193 10 168 72Z" />
<glyph unicode=")" glyph-name="parenright" horiz-adv-x="251" d="M57 627T82 566T122 436T138 319Q138 271 123 202T82 72T30 -19L82 -37Q140 40 170 137T201 320Q201 404 171 501T82 675L30 657Q57 627 82 566Z" />
<glyph unicode="*" glyph-name="asterisk" horiz-adv-x="339" d="M144 659L22 685L10 646L133 622L46 498L82 472L170 590L257 472L292 498L206 622L329 646L316 685L194 659L193 774H145L144 659Z" />
<glyph unicode="+" glyph-name="plus" horiz-adv-x="535" d="M295 531L238 534V298H30L38 248H238V8L295 4V248H505L495 298H295V531Z" />
<glyph unicode="," glyph-name="comma" horiz-adv-x="160" d="M63 94T49 81T34 48Q34 30 46 16T77 1Q76 -24 62 -42T20 -79L38 -108Q77 -89 103 -47T130 41Q130 65 117 79T82 94Q63 94 49 81Z" />
<glyph unicode="-" glyph-name="hyphen" horiz-adv-x="316" d="M38 248H286L278 298H30L38 248Z" />
<glyph unicode="." glyph-name="period" horiz-adv-x="155" d="M97 0T111 14T125 48Q125 67 111 80T78 94Q58 94 44 81T30 48Q30 28 44 14T78 0Q97 0 111 14Z" />
<glyph unicode="/" glyph-name="slash" horiz-adv-x="385" d="M66 -4L375 706L318 710L10 0L66 -4Z" />
<glyph unicode="0" glyph-name="zero" horiz-adv-x="588" d="M35 202T68 133T161 26T295 -13Q369 -13 428 26T520 134T553 289Q553 372 520 438T428 541T295 579Q220 579 161 542T69 438T35 288Q35 202 68 133ZM100 358T125 411T194 495T295 526Q350 526 394 495T463
410T488 286Q488 216 463 160T394 73T295 41Q239 41 195 73T125 162T100 291Q100 358 125 411Z" />
<glyph unicode="1" glyph-name="one" horiz-adv-x="299" d="M182 566L10 489L36 438L161 489V0H224V566H182Z" />
<glyph unicode="2" glyph-name="two" horiz-adv-x="476" d="M162 579T119 564T38 527L61 476Q104 500 137 513T218 527Q284 527 322 498T360 415Q360 368 334 331T237 233L25 50V0H456L448 49L106 50L276 194Q353 259 389 311T425 418Q425 465 400 501T329 558T219
579Q162 579 119 564Z" />
<glyph unicode="3" glyph-name="three" horiz-adv-x="456" d="M104 579T11 520L42 479Q117 528 202 528Q243 528 274 513T322 472T339 416Q339 358 291 324T160 289H126L136 244H154Q255 244 303 207T351 104Q351 65 329 36T270 -9T193 -25Q142 -25 107 -14T33
20L0 -24Q39 -46 88 -61T190 -76Q258 -76 309 -52T388 13T416 106Q416 166 382 210T290 268Q339 284 371 324T404 417Q404 460 382 497T314 556T205 579Q104 579 11 520Z" />
<glyph unicode="4" glyph-name="four" horiz-adv-x="512" d="M388 571H347L10 125L19 74H326V-69H388V74H484L492 125H388V571ZM77 125L326 456V125H77Z" />
<glyph unicode="5" glyph-name="five" horiz-adv-x="490" d="M192 279T251 279Q313 279 351 240T389 130Q389 58 345 17T228 -25Q178 -25 143 -14T68 20L35 -24Q133 -76 224 -76Q297 -76 349 -48T428 26T455 130Q454 218 403 274T247 330Q219 330 189 320T133
293L143 514H408L416 566H83L68 230H131Q192 279 251 279Z" />
<glyph unicode="6" glyph-name="six" horiz-adv-x="502" d="M325 387T372 360T443 287T467 190Q467 133 440 87T365 14T259 -13Q195 -13 144 19T64 113T35 260Q35 367 85 448T215 576T380 634L398 586Q337 583 273 550T161 456T101 319Q171 387 258 387Q325 387
372 360ZM303 40T336 60T388 113T406 185Q406 253 367 295T258 337Q211 337 168 313T97 254Q103 40 257 40Q303 40 336 60Z" />
<glyph unicode="7" glyph-name="seven" horiz-adv-x="429" d="M387 566H10L18 514H341L119 -49L179 -69L409 537L387 566Z" />
<glyph unicode="8" glyph-name="eight" horiz-adv-x="517" d="M197 643T153 621T86 561T63 481Q63 433 93 396T172 339Q135 331 104 304T54 241T35 169Q35 118 61 77T137 11T259 -13Q329 -13 379 12T456 78T482 169Q482 230 442 278T346 339Q391 359 422 396T454
481Q454 524 432 561T365 620T259 643Q197 643 153 621ZM322 593T357 561T392 479Q392 437 356 403T259 360Q197 369 162 402T126 479Q126 527 159 560T256 593Q322 593 357 561ZM336 307T377 267T418 167Q418 110 372 74T259 38Q190 38 145 74T99 167Q99 226 140
266T259 316Q336 307 377 267Z" />
<glyph unicode="9" glyph-name="nine" horiz-adv-x="502" d="M307 579T358 547T438 453T467 306Q467 199 417 118T287 -10T122 -68L104 -20Q165 -17 229 16T341 110T401 247Q331 179 244 179Q177 179 130 206T59 279T35 376Q35 433 62 479T137 552T243 579Q307
579 358 547ZM290 229T334 253T405 312Q399 526 245 526Q199 526 166 506T114 453T96 381Q96 313 135 271T244 229Q290 229 334 253Z" />
<glyph unicode=":" glyph-name="colon" horiz-adv-x="155" d="M97 355T111 369T125 402Q125 421 111 436T77 451Q58 451 44 436T30 402Q30 383 44 369T77 355Q97 355 111 369ZM97 36T111 50T125 84Q125 104 111 118T77 132Q58 132 44 118T30 84Q30 64 44 50T77
36Q97 36 111 50Z" />
<glyph unicode=";" glyph-name="semicolon" horiz-adv-x="161" d="M103 355T117 369T131 402Q131 421 117 436T83 451Q63 451 49 436T35 402Q35 383 49 369T83 355Q103 355 117 369ZM63 132T49 118T34 84Q34 65 46 52T77 37Q76 13 62 -6T20 -43L38 -72Q76 -54
103 -11T130 76Q130 102 117 117T82 132Q63 132 49 118Z" />
<glyph unicode="&lt;" glyph-name="less" horiz-adv-x="322" d="M302 426L279 470L30 269V221L279 19L302 64L86 245L302 426Z" />
<glyph unicode="=" glyph-name="equal" horiz-adv-x="497" d="M38 322H467L460 371H30L38 322ZM38 140H467L460 190H30L38 140Z" />
<glyph unicode="&gt;" glyph-name="greater" horiz-adv-x="323" d="M20 426L236 245L20 64L43 19L293 221V269L43 470L20 426Z" />
<glyph unicode="?" glyph-name="question" horiz-adv-x="404" d="M133 702T97 688T10 641L18 587Q63 619 98 633T184 648Q248 648 278 622T309 537Q309 481 260 435T131 363L139 157L185 139L193 332Q276 369 325 425T374 538Q374 614 328 658T186 702Q133 702
97 688ZM141 94T128 81T114 48Q114 28 127 14T161 0Q181 0 195 14T209 48Q209 67 195 80T161 94Q141 94 128 81Z" />
<glyph unicode="@" glyph-name="at" horiz-adv-x="764" d="M446 409Q388 409 337 384T255 314T224 211Q224 145 265 106T386 66Q411 66 437 76T483 100Q511 65 564 65Q641 65 685 126T729 304Q729 387 690 453T582 556T423 594Q305 594 217 543T82 405T35 213Q35
120 80 47T198 -66T354 -107Q465 -107 544 -66L528 -20Q498 -37 454 -46T365 -55Q290 -55 229 -22T133 72T97 214Q97 313 141 388T260 505T420 546Q497 546 554 514T643 426T675 297Q675 212 647 162T572 112Q546 112 529 128T514 183L538 384L517 409H446ZM334
112T309 141T284 211Q284 258 305 293T363 348T441 367H486L463 190Q461 174 461 167Q461 152 464 140Q451 127 430 120T385 112Q334 112 309 141Z" />
<glyph unicode="A" glyph-name="A" horiz-adv-x="592" d="M69 0L144 204H441L521 -5L582 5L322 680H257L10 0H69ZM290 600L423 254H161L290 600Z" />
<glyph unicode="B" glyph-name="B" horiz-adv-x="577" d="M402 0T472 44T542 188Q542 256 506 299T403 362Q448 384 476 419T504 503Q504 599 440 639T259 680H95V0H286Q402 0 472 44ZM352 627T397 601T442 502Q442 380 248 378H157V627H261Q352 627 397 601ZM385
327T432 293T480 186Q480 113 429 83T288 52H157V327H299Q385 327 432 293Z" />
<glyph unicode="C" glyph-name="C" horiz-adv-x="554" d="M504 674T452 684T363 694Q267 694 195 647T84 518T45 336Q45 241 80 161T186 34T357 -14Q400 -14 450 -3T529 23L505 71Q473 57 439 49T355 41Q280 41 225 80T140 187T111 337Q111 423 144 492T235 600T364
640Q413 640 442 633T509 611L529 657Q504 674 452 684Z" />
<glyph unicode="D" glyph-name="D" horiz-adv-x="664" d="M414 0T482 45T584 169T619 344Q619 494 547 587T327 680H95V0H318Q414 0 482 45ZM442 627T500 549T559 343Q559 256 529 190T445 88T320 52H157V627H330Q442 627 500 549Z" />
<glyph unicode="E" glyph-name="E" horiz-adv-x="503" d="M157 50V326H402L397 371H157V635H460L455 680H95V0H483L477 50H157Z" />
<glyph unicode="F" glyph-name="F" horiz-adv-x="471" d="M157 635H451L444 680H95V0H157V322H392L386 367H157V635Z" />
<glyph unicode="G" glyph-name="G" horiz-adv-x="626" d="M509 64Q446 41 387 41Q309 41 247 77T148 180T111 337Q111 430 151 498T257 603T396 640Q444 640 474 633T541 611L560 657Q535 674 483 684T394 694Q297 694 217 649T91 523T45 336Q45 237 88 157T209
32T388 -14Q435 -14 488 -1T571 32V342H362L356 297H509V64Z" />
<glyph unicode="H" glyph-name="H" horiz-adv-x="651" d="M494 680V369H157V685L95 680V0H157V319H494V0H556V680H494Z" />
<glyph unicode="I" glyph-name="I" horiz-adv-x="252" d="M95 680V0H157V680H95Z" />
<glyph unicode="J" glyph-name="J" horiz-adv-x="242" d="M96 19T89 -2T64 -34T10 -60L34 -102Q83 -87 109 -69T146 -25T157 42V680H95V59Q96 19 89 -2Z" />
<glyph unicode="K" glyph-name="K" d="M157 257V0H95V680H157V335L503 695L543 657L279 383L583 0H509L238 341L157 257Z" />
<glyph unicode="L" glyph-name="L" horiz-adv-x="497" d="M157 680H95V0H487L482 50H157V680Z" />
<glyph unicode="M" glyph-name="M" horiz-adv-x="760" d="M602 0H665V680H624L379 322L130 680H95V0H157V547L371 230L391 234L602 552V0Z" />
<glyph unicode="N" glyph-name="N" horiz-adv-x="685" d="M171 531L549 0H590V680H527V129L493 188L136 680H95V0H157V560L171 531Z" />
<glyph unicode="O" glyph-name="O" horiz-adv-x="721" d="M272 694T200 647T86 519T45 337Q45 236 85 156T196 31T357 -14Q448 -13 521 34T635 162T676 345Q676 446 636 526T525 651T363 696Q272 694 200 647ZM111 424T143 493T233 601T364 640Q434 640 489 602T576
497T608 344Q608 257 576 188T486 80T355 41Q285 41 230 79T143 185T111 338Q111 424 143 493Z" />
<glyph unicode="P" glyph-name="P" horiz-adv-x="551" d="M260 264Q373 264 444 317T516 475Q516 581 450 630T271 680H95V0H157V264H260ZM361 627T407 592T453 474Q452 393 400 355T262 317H157V627H273Q361 627 407 592Z" />
<glyph unicode="Q" glyph-name="Q" horiz-adv-x="721" d="M676 261T647 190T566 69L618 18L581 -14L526 38Q453 -12 357 -14Q268 -14 197 31T85 156T45 337Q45 438 86 519T199 647T363 696Q453 696 524 651T636 526T676 345Q676 261 647 190ZM426 41T483 78L368
186L412 219L523 111Q563 152 585 212T608 344Q608 429 577 496T490 602T364 640Q291 640 234 601T144 493T111 338Q111 253 142 186T229 80T355 41Q426 41 483 78Z" />
<glyph unicode="R" glyph-name="R" horiz-adv-x="580" d="M157 0V286H260Q297 286 339 291L500 0H570L394 308Q515 356 516 486Q516 588 451 634T271 680H95V0H157ZM360 627T406 596T453 484Q452 405 400 371T262 337H157V627H273Q360 627 406 596Z" />
<glyph unicode="S" glyph-name="S" horiz-adv-x="508" d="M89 11T142 -1T238 -13Q310 -13 363 9T445 70T473 160Q473 208 453 242T395 302T290 360Q218 394 181 416T124 465T103 530Q103 582 145 613T259 644Q305 644 336 635T403 610L425 657Q391 674 348 685T257
696Q194 696 146 674T72 614T45 530Q45 405 229 327Q296 299 334 276T393 226T414 160Q414 106 368 72T237 38Q191 38 147 49T71 77L56 29Q89 11 142 -1Z" />
<glyph unicode="T" glyph-name="T" horiz-adv-x="553" d="M10 631H245V0H308V631H543L538 680H10V631Z" />
<glyph unicode="U" glyph-name="U" horiz-adv-x="673" d="M85 239Q85 167 116 110T204 21T336 -12Q412 -12 469 20T557 110T588 239V680H525V248Q525 190 503 143T437 68T336 41Q280 41 237 68T171 143T147 248V680H85V239Z" />
<glyph unicode="V" glyph-name="V" horiz-adv-x="592" d="M270 0H335L582 680H523L302 80L71 685L10 675L270 0Z" />
<glyph unicode="W" glyph-name="W" horiz-adv-x="821" d="M569 0L411 581L265 0H200L10 675L71 685L232 86L383 680H442L601 86L752 680H811L634 0H569Z" />
<glyph unicode="X" glyph-name="X" horiz-adv-x="573" d="M480 0H549L335 331L563 680H495L302 377L87 694L33 668L255 344L10 0H79L289 297L480 0Z" />
<glyph unicode="Y" glyph-name="Y" horiz-adv-x="546" d="M536 680H469L266 336L65 695L10 664L235 276L234 0H297L298 283L536 680Z" />
<glyph unicode="Z" glyph-name="Z" horiz-adv-x="559" d="M534 631L529 680H52L62 631H467L25 50L31 0H519L514 50H94L534 631Z" />
<glyph unicode="[" glyph-name="bracketleft" horiz-adv-x="273" d="M255 -44H157V651H255L263 696H100V-88H263L255 -44Z" />
<glyph unicode="\" glyph-name="backslash" horiz-adv-x="385" d="M10 706L318 -4L375 0L67 710L10 706Z" />
<glyph unicode="]" glyph-name="bracketright" horiz-adv-x="272" d="M18 651H115V-44H18L10 -88H172V696H10L18 651Z" />
<glyph unicode="^" glyph-name="asciicircum" horiz-adv-x="411" d="M401 143L235 390H176L10 143H70L206 344L341 143H401Z" />
<glyph unicode="_" glyph-name="underscore" horiz-adv-x="439" d="M38 0H409L401 50H30L38 0Z" />
<glyph unicode="`" glyph-name="grave" horiz-adv-x="145" d="M81 742H10L95 589L135 602L81 742Z" />
<glyph unicode="a" glyph-name="a" horiz-adv-x="483" d="M144 430T170 438T244 446Q301 446 330 415T360 330V281H225Q148 282 100 243T52 136Q52 70 94 29T215 -13Q255 -13 296 6T363 52L371 0H422V340Q422 412 373 455T241 498Q208 498 160 486T86 456L105
412Q144 430 170 438ZM113 180T142 210T223 240H360V117Q332 83 295 61T213 38Q163 38 138 67T113 136Q113 180 142 210Z" />
<glyph unicode="b" glyph-name="b" horiz-adv-x="520" d="M369 498T427 428T485 242Q484 169 458 111T381 20T260 -13Q196 -13 129 41L116 0H75V696L137 706V452Q196 498 264 498Q369 498 427 428ZM340 39T380 95T422 241Q422 335 383 390T265 446Q225 446 194
431T137 389V91Q164 67 193 53T263 39Q340 39 380 95Z" />
<glyph unicode="c" glyph-name="c" horiz-adv-x="451" d="M357 54T333 47T261 39Q182 39 140 96T98 246Q99 334 143 390T266 446Q311 446 337 438T400 412L420 456Q392 474 346 486T269 498Q199 498 146 466T64 375T35 245Q35 169 62 111T140 20T262 -13Q295 -13
341 -2T415 28L395 73Q357 54 333 47Z" />
<glyph unicode="d" glyph-name="d" horiz-adv-x="516" d="M441 0H400L389 38Q360 14 326 1T256 -13Q151 -13 93 57T35 243Q36 316 62 374T139 465T260 498Q318 498 378 454V696L441 705V0ZM326 39T378 91V398Q353 421 325 433T257 446Q180 446 140 390T98 244Q98
150 137 95T255 39Q326 39 378 91Z" />
<glyph unicode="e" glyph-name="e" horiz-adv-x="493" d="M458 357T408 427T255 498Q151 498 94 428T35 245Q35 127 97 57T281 -13Q333 -13 370 -2T451 33L430 79Q390 58 354 48T278 37Q185 37 142 91T98 239H458Q458 357 408 427ZM107 357T145 401T252 446Q379
446 395 282H100Q107 357 145 401Z" />
<glyph unicode="f" glyph-name="f" horiz-adv-x="274" d="M90 0H152V428H261L240 475H152V563Q152 645 221 645Q230 645 243 642T262 636L274 689Q240 702 208 702Q154 702 122 664T90 563V475H17L18 428H90V0Z" />
<glyph unicode="g" glyph-name="g" horiz-adv-x="512" d="M441 -62Q441 -110 416 -148T344 -208T235 -230Q202 -230 151 -218T70 -189L89 -143Q121 -158 154 -167T233 -178Q297 -178 337 -148T378 -61V29Q321 -13 256 -13Q151 -13 93 57T35 243Q36 316 62 374T139
465T260 498Q321 498 386 448L400 485H441V-62ZM326 39T378 91V398Q353 421 325 433T257 446Q180 446 140 390T98 244Q98 150 137 95T255 39Q326 39 378 91Z" />
<glyph unicode="h" glyph-name="h" horiz-adv-x="526" d="M391 498T428 454T465 337V1H403V325Q403 445 309 445Q271 445 221 417T137 346V0H75V696L137 706V412Q168 448 219 473T316 498Q391 498 428 454Z" />
<glyph unicode="i" glyph-name="i" horiz-adv-x="193" d="M115 591T129 604T144 638Q144 658 130 671T96 685Q75 685 62 672T49 638Q49 618 62 605T96 591Q115 591 129 604ZM65 485V0H128V485H65Z" />
<glyph unicode="j" glyph-name="j" horiz-adv-x="215" d="M85 591T72 604T59 638Q59 658 72 671T106 685Q125 685 139 672T154 638Q154 618 140 605T106 591Q85 591 72 604ZM138 -107T129 -135T96 -183T24 -219L0 -176Q34 -163 49 -149T70 -113T75 -47V485H138V-62Q138
-107 129 -135Z" />
<glyph unicode="k" glyph-name="k" horiz-adv-x="457" d="M209 264L382 0H457L249 305L401 461L362 498L137 266V706L75 696V0H137V190L209 264Z" />
<glyph unicode="l" glyph-name="l" horiz-adv-x="212" d="M75 696V0H137V706L75 696Z" />
<glyph unicode="m" glyph-name="m" horiz-adv-x="794" d="M666 498T699 455T733 337V1H671V325Q671 381 653 413T587 445Q555 445 511 420T434 357L435 337V1H373V325Q373 381 355 413T289 445Q255 445 208 417T127 346V0H65V485H116L126 411Q157 447 206 472T296
498Q396 498 424 411Q455 447 504 472T594 498Q666 498 699 455Z" />
<glyph unicode="n" glyph-name="n" horiz-adv-x="516" d="M160 388T210 416T299 445Q393 445 393 325V1H455V337Q455 410 418 454T306 498Q261 498 209 473T126 411L116 485H65V0H127V346Q160 388 210 416Z" />
<glyph unicode="o" glyph-name="o" horiz-adv-x="527" d="M492 167T463 110T380 20T254 -13Q186 -13 137 20T61 111T35 245Q36 317 64 374T144 465T267 498Q374 498 433 430T492 240Q492 167 463 110ZM339 39T383 95T429 239Q429 332 387 389T266 446Q188 446
144 390T98 246Q98 153 140 96T261 39Q339 39 383 95Z" />
<glyph unicode="p" glyph-name="p" horiz-adv-x="516" d="M365 498T423 428T481 242Q480 169 454 111T377 20T256 -13Q196 -13 133 35V-208L71 -219V485H112L125 445Q154 470 188 484T260 498Q365 498 423 428ZM336 39T376 95T418 241Q418 335 379 390T261 446Q221
446 190 431T133 389V91Q160 67 189 53T259 39Q336 39 376 95Z" />
<glyph unicode="q" glyph-name="q" horiz-adv-x="512" d="M441 -208L378 -219V29Q321 -13 256 -13Q151 -13 93 57T35 243Q36 316 62 374T139 465T260 498Q323 498 386 448L400 485H441V-208ZM326 39T378 91V398Q353 421 325 433T257 446Q180 446 140 390T98 244Q98
150 137 95T255 39Q326 39 378 91Z" />
<glyph unicode="r" glyph-name="r" horiz-adv-x="310" d="M158 380T207 408T300 436L283 485Q249 485 204 461T124 408L106 485H65V0H127V346Q158 380 207 408Z" />
<glyph unicode="s" glyph-name="s" horiz-adv-x="419" d="M67 8T112 -2T192 -13Q284 -13 334 23T384 124Q384 217 222 274Q162 294 130 315T96 368Q96 403 129 425T213 448Q252 448 280 439T341 414L361 458Q338 475 293 486T215 498Q133 498 85 463T37 364Q37
312 80 279T194 223Q326 177 326 119Q326 79 291 58T194 37Q131 37 61 71L41 25Q67 8 112 -2Z" />
<glyph unicode="t" glyph-name="t" horiz-adv-x="298" d="M152 623L89 601V475H17L18 428H89V116Q89 54 121 21T207 -13Q236 -13 253 -8T273 -1L261 50Q240 41 220 41Q185 41 169 63T152 123V428H261L240 475H152V623Z" />
<glyph unicode="u" glyph-name="u" horiz-adv-x="516" d="M356 98T306 70T217 41Q123 41 123 161V485H61V149Q61 76 98 32T210 -12Q255 -12 307 13T390 75L400 0H451V486H389V140Q356 98 306 70Z" />
<glyph unicode="v" glyph-name="v" horiz-adv-x="438" d="M368 485L218 79L62 498L10 472L185 0H251L428 485H368Z" />
<glyph unicode="w" glyph-name="w" horiz-adv-x="642" d="M571 485L461 83L346 485H287L177 83L62 497L10 471L144 0H211L315 393L429 0H496L632 485H571Z" />
<glyph unicode="x" glyph-name="x" horiz-adv-x="429" d="M337 0H405L253 233L419 485H351L219 279L81 495L26 470L173 245L10 0H80L207 199L337 0Z" />
<glyph unicode="y" glyph-name="y" horiz-adv-x="438" d="M148 -129T129 -143T65 -179L82 -219Q130 -209 165 -181T215 -112L428 485H368L218 83L59 497L10 471L192 -7L160 -98Q148 -129 129 -143Z" />
<glyph unicode="z" glyph-name="z" horiz-adv-x="432" d="M68 436H330L23 31L31 0H403L393 48H98L409 453L406 485H52L68 436Z" />
<glyph unicode="{" glyph-name="braceleft" horiz-adv-x="265" d="M166 322T181 348T197 419Q197 447 178 489Q159 531 159 560Q159 583 177 598T231 614H250L255 659H229Q168 659 137 631T105 554Q105 523 123 482Q141 442 141 410Q141 374 118 351T63 328H30V288H63Q95
288 118 266T141 207Q141 177 123 136Q105 96 105 64Q105 14 136 -14T229 -42H255L250 3H231Q196 3 178 19T159 58Q159 86 178 128Q197 170 197 199Q197 240 181 269T133 311Q166 322 181 348Z" />
<glyph unicode="|" glyph-name="bar" horiz-adv-x="252" d="M157 -4V706L95 710V0L157 -4Z" />
<glyph unicode="}" glyph-name="braceright" horiz-adv-x="264" d="M67 284T67 199Q67 170 86 128Q105 86 105 58Q105 35 87 19T34 3H15L10 -42H35Q97 -42 128 -14T160 64Q160 96 142 136Q123 175 123 207Q123 244 146 267T201 290H234V329H201Q170 329 147 352T123
410Q123 443 142 482Q160 523 160 554Q160 603 129 631T35 659H10L15 614H34Q68 614 86 599T105 560Q105 531 86 489Q67 447 67 419Q67 377 84 348T133 306Q67 284 67 199Z" />
<glyph unicode="~" glyph-name="asciitilde" horiz-adv-x="382" d="M77 226T90 236T124 247Q150 247 187 223Q225 199 258 199Q300 199 326 220T352 290H305Q304 268 291 258T257 247Q230 247 199 271Q166 295 124 295Q81 295 56 274T30 205H75Q77 226 90 236Z" />
<glyph unicode="&#xa0;" glyph-name="uni00A0" horiz-adv-x="236" />
<glyph unicode="&#xa1;" glyph-name="exclamdown" horiz-adv-x="156" d="M98 605T112 619T126 654Q126 673 112 687T79 702Q59 702 45 688T30 654Q30 634 44 620T79 605Q98 605 112 619ZM42 0H116L100 485L58 505L42 0Z" />
<glyph unicode="&#xa2;" glyph-name="cent" horiz-adv-x="451" d="M393 14T361 4T297 -10V-111H246V-13Q148 -7 92 63T35 245Q35 313 61 368T134 458T246 497V595L297 605V496Q329 492 363 481T420 456L400 412Q364 430 338 438T266 446Q188 446 144 390T98 246Q98
153 140 96T261 39Q308 39 332 46T395 73L415 28Q393 14 361 4Z" />
<glyph unicode="&#xa3;" glyph-name="sterling" horiz-adv-x="431" d="M415 50H157Q191 89 191 154V330H349L327 376H191V545Q191 629 260 629Q269 629 281 626T300 618L312 671Q300 675 282 679T246 684Q193 684 161 646T128 545V376H55L57 330H128V133Q128 51
60 50L65 0H421L415 50Z" />
<glyph unicode="&#xa4;" glyph-name="currency" horiz-adv-x="664" d="M530 90Q575 155 576 239Q576 331 531 395L634 501L600 543L496 437Q464 466 424 482T336 498Q244 497 172 435L64 543L30 501L135 394Q89 327 89 245Q89 155 133 87L30 -18L64 -59L169 47Q199
19 239 4T324 -13Q374 -13 417 3T493 49L600 -59L634 -18L530 90ZM513 182T489 137T422 66T327 40Q247 40 200 97T152 246Q152 302 176 347T242 419T337 445Q391 445 431 418T492 344T513 239Q513 182 489 137Z" />
<glyph unicode="&#xa5;" glyph-name="yen" horiz-adv-x="546" d="M297 127H483L492 78H297V0H234V78H62L54 127H234L235 259H62L54 309H216L10 664L65 695L266 336L469 680H536L314 309H483L492 259H298L297 127Z" />
<glyph unicode="&#xa6;" glyph-name="brokenbar" horiz-adv-x="252" d="M157 406V706L95 710V410L157 406ZM157 -4V288L95 292V0L157 -4Z" />
<glyph unicode="&#xa7;" glyph-name="section" horiz-adv-x="562" d="M527 207T511 175T462 119Q473 89 473 55Q473 5 445 -34T364 -96T238 -118Q195 -118 142 -106T56 -76L71 -28Q103 -44 147 -55T237 -67Q321 -67 367 -33T414 55Q414 93 394 120T335 171T229
222Q45 300 45 425Q45 462 63 494T113 550Q99 581 99 615Q99 661 125 699T200 759T311 781Q358 781 401 770T479 742L457 695Q421 711 390 720T313 729Q241 729 199 698T157 615Q157 577 177 550T235 501T344 445Q411 414 449 388T507 327T527 245Q527 207 511
175ZM468 199T468 245Q468 283 448 310T389 361T283 412Q188 453 142 506Q103 475 103 425Q103 387 123 360T181 311T290 255Q341 231 375 210T432 165Q468 199 468 245Z" />
<glyph unicode="&#xa8;" glyph-name="dieresis" horiz-adv-x="263" d="M72 618T84 630T97 662Q97 679 85 691T53 704Q36 704 23 692T10 662Q10 644 23 631T53 618Q72 618 84 630ZM229 618T241 630T253 662Q253 680 241 692T210 704Q192 704 180 692T167 662Q167
643 179 631T210 618Q229 618 241 630Z" />
<glyph unicode="&#xa9;" glyph-name="copyright" horiz-adv-x="791" d="M756 436T712 517T586 646T396 694Q288 694 206 647T80 518T35 336Q35 237 79 156T206 28T396 -20Q504 -20 585 27T711 156T756 336Q756 436 712 517ZM94 425T131 495T236 605T396 645Q487
645 556 605T662 495T699 337Q699 249 662 179T556 69T396 29Q305 29 237 69T131 179T94 337Q94 425 131 495ZM441 106T484 117T555 148L535 191Q499 172 476 165T408 157Q328 157 293 204T258 344Q258 424 296 473T412 522Q455 522 478 515T518 500T540 488L560
533Q534 552 491 563T414 574Q345 574 296 544T222 462T196 342Q196 236 250 171T408 106Q441 106 484 117Z" />
<glyph unicode="&#xaa;" glyph-name="ordfeminine" horiz-adv-x="332" d="M75 633T90 639T123 649T161 653Q200 653 220 633T241 577V559H155Q102 559 69 534T35 463Q35 420 68 392T150 363Q178 363 202 376T244 408L255 372H297V580Q297 612 280 640T232 685T160
702Q138 702 107 694T57 673L69 631Q75 633 90 639ZM90 488T112 503T164 518H241V466Q224 442 200 426T150 410Q123 410 107 426T90 463Q90 488 112 503Z" />
<glyph unicode="&#xab;" glyph-name="guillemotleft" horiz-adv-x="363" d="M191 125L79 245L191 365L170 406L30 267V223L170 84L191 125ZM343 125L230 245L343 365L322 406L182 267V223L322 84L343 125Z" />
<glyph unicode="&#xac;" glyph-name="logicalnot" horiz-adv-x="514" d="M18 356H426V117L484 112V356L476 406H10L18 356Z" />
<glyph unicode="&#xad;" glyph-name="softhyphen" horiz-adv-x="120" />
<glyph unicode="&#xae;" glyph-name="registered" horiz-adv-x="705" d="M670 575T631 647T520 760T353 802Q257 802 185 761T74 647T35 487Q35 399 74 328T185 216T353 174Q448 174 520 215T631 328T670 487Q670 575 631 647ZM89 566T121 626T212 721T353 755Q433
755 492 721T584 626T616 488Q616 412 584 352T493 256T353 221Q272 221 213 256T121 351T89 488Q89 566 121 626ZM475 503T475 572Q475 628 439 654T339 680H242V304H292V462H334Q358 462 363 463L453 304H511L411 475Q475 503 475 572ZM359 640T379 636T412 617T425
571Q424 529 397 515T320 501H292V640H325Q359 640 379 636Z" />
<glyph unicode="&#xaf;" glyph-name="overscore" horiz-adv-x="261" d="M245 689H10V640H251L245 689Z" />
<glyph unicode="&#xb0;" glyph-name="degree" horiz-adv-x="233" d="M73 702T42 672T10 599Q10 555 41 527T116 498Q161 498 192 526T223 599Q223 642 192 672T116 702Q73 702 42 672ZM90 538T73 556T56 599Q56 624 73 641T116 659Q141 659 159 642T178 599Q178
574 160 556T116 538Q90 538 73 556Z" />
<glyph unicode="&#xb1;" glyph-name="plusminus" horiz-adv-x="492" d="M273 531L217 534V350H30L38 302H217V113L273 108V302H462L454 350H273V531ZM38 1H462L454 48H30L38 1Z" />
<glyph unicode="&#xb2;" glyph-name="twosuperior" horiz-adv-x="352" d="M135 771T96 761T29 733L51 689Q74 705 107 715T170 726Q217 726 240 703T263 647Q263 613 243 583T181 515L25 379V336H332L326 379H89L208 481Q266 532 292 569T318 647Q318 696 282
733T172 771Q135 771 96 761Z" />
<glyph unicode="&#xb3;" glyph-name="threesuperior" horiz-adv-x="354" d="M112 771T78 760T9 727L31 689Q90 727 154 727Q199 727 224 706T250 650Q250 607 217 584T122 560H96L103 516H117Q193 516 226 491T260 415Q260 371 228 347T147 323Q107 323 80 331T24
356L0 318Q30 301 67 290T143 278Q194 278 233 296T293 345T314 416Q314 463 289 495T220 538Q256 550 280 580T305 651Q305 703 266 737T155 771Q112 771 78 760Z" />
<glyph unicode="&#xb4;" glyph-name="acute" horiz-adv-x="145" d="M64 742L10 602L50 589L135 742H64Z" />
<glyph unicode="&#xb5;" glyph-name="mu" horiz-adv-x="526" d="M461 1H410L400 75Q369 39 317 14T220 -12Q168 -12 133 10V-208L71 -219V485H133V161Q133 41 227 41Q265 41 315 69T399 140V486H461V1Z" />
<glyph unicode="&#xb6;" glyph-name="paragraph" horiz-adv-x="813" d="M617 631V0H679V631H778V680H280Q166 680 101 631T35 475Q36 370 107 317T291 264H329V0H391V631H617Z" />
<glyph unicode="&#xb7;" glyph-name="middot" horiz-adv-x="155" d="M97 214T111 228T125 262Q125 282 111 295T78 309Q58 309 44 296T30 262Q30 243 44 229T78 214Q97 214 111 228Z" />
<glyph unicode="&#xb8;" glyph-name="cedilla" horiz-adv-x="206" d="M90 -85T116 -99T142 -134Q142 -152 125 -163T84 -174Q59 -174 25 -160L10 -202Q23 -210 44 -215T84 -221Q132 -221 164 -198T196 -132Q196 -105 173 -82T116 -54L142 13H89L52 -81Q90 -85 116 -99Z" />
<glyph unicode="&#xb9;" glyph-name="onesuperior" horiz-adv-x="247" d="M136 765L10 700L33 663L117 705V336H172V765H136Z" />
<glyph unicode="&#xba;" glyph-name="ordmasculine" horiz-adv-x="382" d="M146 702T111 681T55 622T35 532Q35 452 77 408T190 363Q234 363 270 383T326 442T347 532Q347 612 304 657T190 702Q146 702 111 681ZM230 652T257 622T285 532Q285 472 257 442T190
412Q151 412 123 443T95 532Q95 592 124 622T190 652Q230 652 257 622Z" />
<glyph unicode="&#xbb;" glyph-name="guillemotright" horiz-adv-x="364" d="M20 365L133 245L20 125L43 84L183 223V267L43 406L20 365ZM172 365L286 245L172 125L195 84L334 223V267L195 406L172 365Z" />
<glyph unicode="&#xbc;" glyph-name="onequarter" horiz-adv-x="724" d="M136 765L10 700L33 663L117 705V336H172V765H136ZM105 -134L596 700H541L45 -134H105ZM704 -31H627V321H591L337 -31L342 -75H575V-163H627V-75H700L704 -31ZM395 -31L575 220V-31H395Z" />
<glyph unicode="&#xbd;" glyph-name="onehalf" horiz-adv-x="741" d="M136 765L10 700L33 663L117 705V336H172V765H136ZM85 -134L576 700H521L25 -134H85ZM524 325T485 315T418 287L440 243Q463 259 496 269T559 280Q606 280 629 257T652 201Q652 167 632 137T570
69L414 -67V-110H721L715 -67H478L597 35Q655 86 681 123T707 201Q707 250 671 287T561 325Q524 325 485 315Z" />
<glyph unicode="&#xbe;" glyph-name="threequarters" horiz-adv-x="759" d="M112 771T78 760T9 727L31 689Q90 727 154 727Q199 727 224 706T250 650Q250 607 217 584T122 560H96L103 516H117Q193 516 226 491T260 415Q260 371 228 347T147 323Q107 323 80 331T24
356L0 318Q30 301 67 290T143 278Q194 278 233 296T293 345T314 416Q314 463 289 495T220 538Q256 550 280 580T305 651Q305 703 266 737T155 771Q112 771 78 760ZM174 -134L665 700H610L114 -134H174ZM625 321L372 -31L376 -75H609V-163H661V-75H735L739 -31H661V321H625ZM609
220V-31H430L609 220Z" />
<glyph unicode="&#xbf;" glyph-name="questiondown" horiz-adv-x="404" d="M263 525T277 539T291 574Q291 593 277 607T243 622Q224 622 210 608T195 574Q195 554 209 540T243 525Q263 525 277 539ZM272 -80T310 -66T394 -21L386 35Q341 3 306 -11T220 -26Q156
-26 126 -1T96 84Q96 140 144 186T273 258L265 464L219 483L212 290Q129 254 80 197T30 82Q30 7 76 -36T218 -80Q272 -80 310 -66Z" />
<glyph unicode="&#xc0;" glyph-name="Agrave" horiz-adv-x="592" d="M69 0L144 204H441L521 -5L582 5L322 680H257L10 0H69ZM290 600L423 254H161L290 600ZM275 892H204L289 739L329 752L275 892Z" />
<glyph unicode="&#xc1;" glyph-name="Aacute" horiz-adv-x="592" d="M69 0L144 204H441L521 -5L582 5L322 680H257L10 0H69ZM290 600L423 254H161L290 600ZM299 892L245 752L285 739L370 892H299Z" />
<glyph unicode="&#xc2;" glyph-name="Acircumflex" horiz-adv-x="592" d="M69 0L144 204H441L521 -5L582 5L322 680H257L10 0H69ZM290 600L423 254H161L290 600ZM415 749L313 892H253L153 749L208 739L283 848L357 739L415 749Z" />
<glyph unicode="&#xc3;" glyph-name="Atilde" horiz-adv-x="592" d="M69 0L144 204H441L521 -5L582 5L322 680H257L10 0H69ZM290 600L423 254H161L290 600ZM375 827T364 817T339 806Q313 806 291 830Q268 853 226 853Q143 853 143 762H188Q190 784 201 795T227
806Q252 806 279 782Q304 758 339 758Q423 758 423 849H377Q375 827 364 817Z" />
<glyph unicode="&#xc4;" glyph-name="Adieresis" horiz-adv-x="592" d="M69 0L144 204H441L521 -5L582 5L322 680H257L10 0H69ZM290 600L423 254H161L290 600ZM226 768T238 780T251 812Q251 829 239 841T207 854Q190 854 177 842T164 812Q164 794 177 781T207
768Q226 768 238 780ZM383 768T395 780T407 812Q407 830 395 842T364 854Q346 854 334 842T321 812Q321 793 333 781T364 768Q383 768 395 780Z" />
<glyph unicode="&#xc5;" glyph-name="Aring" horiz-adv-x="592" d="M69 0L144 204H441L521 -5L582 5L322 680H257L10 0H69ZM290 600L423 254H161L290 600ZM255 909T229 885T202 825Q202 790 228 767T291 744Q328 744 353 767T379 825Q379 861 353 885T291 909Q255
909 229 885ZM273 783T260 795T247 825Q247 844 260 856T291 869Q309 869 322 857T335 825Q335 807 322 795T291 783Q273 783 260 795Z" />
<glyph unicode="&#xc6;" glyph-name="AE" horiz-adv-x="842" d="M818 50H497V326H742L736 371H497V635H802L796 680H426L10 5L67 -5L193 204H434V0H822L818 50ZM224 254L434 595V254H224Z" />
<glyph unicode="&#xc7;" glyph-name="Ccedilla" horiz-adv-x="554" d="M505 10T461 0T376 -13L360 -54Q393 -58 416 -81T440 -132Q440 -175 408 -198T328 -221Q310 -221 289 -216T254 -202L269 -160Q303 -174 328 -174Q350 -174 368 -163T386 -134Q386 -114 360
-100T296 -81L323 -12Q234 -4 171 45T77 170T45 336Q45 436 84 517T195 646T363 694Q400 694 452 684T529 657L509 611Q472 626 443 633T364 640Q293 640 236 601T145 492T111 337Q111 255 140 188T224 81T355 41Q404 41 438 49T505 71L529 23Q505 10 461 0Z" />
<glyph unicode="&#xc8;" glyph-name="Egrave" horiz-adv-x="503" d="M157 50V326H402L397 371H157V635H460L455 680H95V0H483L477 50H157ZM263 892H192L277 739L317 752L263 892Z" />
<glyph unicode="&#xc9;" glyph-name="Eacute" horiz-adv-x="503" d="M157 50V326H402L397 371H157V635H460L455 680H95V0H483L477 50H157ZM287 892L233 752L273 739L358 892H287Z" />
<glyph unicode="&#xca;" glyph-name="Ecircumflex" horiz-adv-x="503" d="M157 50V326H402L397 371H157V635H460L455 680H95V0H483L477 50H157ZM403 749L301 892H241L141 749L196 739L271 848L345 739L403 749Z" />
<glyph unicode="&#xcb;" glyph-name="Edieresis" horiz-adv-x="503" d="M157 50V326H402L397 371H157V635H460L455 680H95V0H483L477 50H157ZM214 768T226 780T239 812Q239 829 227 841T195 854Q178 854 165 842T152 812Q152 794 165 781T195 768Q214 768 226
780ZM371 768T383 780T395 812Q395 830 383 842T352 854Q334 854 322 842T309 812Q309 793 321 781T352 768Q371 768 383 780Z" />
<glyph unicode="&#xcc;" glyph-name="Igrave" horiz-adv-x="252" d="M95 680V0H157V680H95ZM112 892H41L126 739L166 752L112 892Z" />
<glyph unicode="&#xcd;" glyph-name="Iacute" horiz-adv-x="252" d="M95 680V0H157V680H95ZM136 892L82 752L122 739L207 892H136Z" />
<glyph unicode="&#xce;" glyph-name="Icircumflex" horiz-adv-x="252" d="M95 680V0H157V680H95ZM508 749L406 892H346L246 749L301 739L376 848L450 739L508 749Z" />
<glyph unicode="&#xcf;" glyph-name="Idieresis" horiz-adv-x="252" d="M95 680V0H157V680H95ZM319 768T331 780T344 812Q344 829 332 841T300 854Q283 854 270 842T257 812Q257 794 270 781T300 768Q319 768 331 780ZM476 768T488 780T500 812Q500 830 488 842T457
854Q439 854 427 842T414 812Q414 793 426 781T457 768Q476 768 488 780Z" />
<glyph unicode="&#xd0;" glyph-name="Eth" horiz-adv-x="664" d="M475 680T547 587T619 344Q619 247 585 169T482 46T318 0H95V309H29L21 359H95V680H327Q475 680 547 587ZM391 52T445 88T529 190T559 343Q559 470 501 548T330 627H157V359H269L277 309H157V52H320Q391
52 445 88Z" />
<glyph unicode="&#xd1;" glyph-name="Ntilde" horiz-adv-x="685" d="M171 531L549 0H590V680H527V129L493 188L136 680H95V0H157V560L171 531ZM426 827T415 817T390 806Q364 806 342 830Q319 853 277 853Q194 853 194 762H239Q241 784 252 795T278 806Q303 806
330 782Q355 758 390 758Q474 758 474 849H428Q426 827 415 817Z" />
<glyph unicode="&#xd2;" glyph-name="Ograve" horiz-adv-x="721" d="M272 694T200 647T86 519T45 337Q45 236 85 156T196 31T357 -14Q448 -13 521 34T635 162T676 345Q676 446 636 526T525 651T363 696Q272 694 200 647ZM111 424T143 493T233 601T364 640Q434
640 489 602T576 497T608 344Q608 257 576 188T486 80T355 41Q285 41 230 79T143 185T111 338Q111 424 143 493ZM348 892H277L362 739L402 752L348 892Z" />
<glyph unicode="&#xd3;" glyph-name="Oacute" horiz-adv-x="721" d="M272 694T200 647T86 519T45 337Q45 236 85 156T196 31T357 -14Q448 -13 521 34T635 162T676 345Q676 446 636 526T525 651T363 696Q272 694 200 647ZM111 424T143 493T233 601T364 640Q434
640 489 602T576 497T608 344Q608 257 576 188T486 80T355 41Q285 41 230 79T143 185T111 338Q111 424 143 493ZM372 892L318 752L358 739L443 892H372Z" />
<glyph unicode="&#xd4;" glyph-name="Ocircumflex" horiz-adv-x="721" d="M272 694T200 647T86 519T45 337Q45 236 85 156T196 31T357 -14Q448 -13 521 34T635 162T676 345Q676 446 636 526T525 651T363 696Q272 694 200 647ZM111 424T143 493T233 601T364 640Q434
640 489 602T576 497T608 344Q608 257 576 188T486 80T355 41Q285 41 230 79T143 185T111 338Q111 424 143 493ZM488 749L386 892H326L226 749L281 739L356 848L430 739L488 749Z" />
<glyph unicode="&#xd5;" glyph-name="Otilde" horiz-adv-x="721" d="M272 694T200 647T86 519T45 337Q45 236 85 156T196 31T357 -14Q448 -13 521 34T635 162T676 345Q676 446 636 526T525 651T363 696Q272 694 200 647ZM111 424T143 493T233 601T364 640Q434
640 489 602T576 497T608 344Q608 257 576 188T486 80T355 41Q285 41 230 79T143 185T111 338Q111 424 143 493ZM448 827T437 817T412 806Q386 806 364 830Q341 853 299 853Q216 853 216 762H261Q263 784 274 795T300 806Q325 806 352 782Q377 758 412 758Q496
758 496 849H450Q448 827 437 817Z" />
<glyph unicode="&#xd6;" glyph-name="Odieresis" horiz-adv-x="721" d="M272 694T200 647T86 519T45 337Q45 236 85 156T196 31T357 -14Q448 -13 521 34T635 162T676 345Q676 446 636 526T525 651T363 696Q272 694 200 647ZM111 424T143 493T233 601T364 640Q434
640 489 602T576 497T608 344Q608 257 576 188T486 80T355 41Q285 41 230 79T143 185T111 338Q111 424 143 493ZM299 768T311 780T324 812Q324 829 312 841T280 854Q263 854 250 842T237 812Q237 794 250 781T280 768Q299 768 311 780ZM456 768T468 780T480 812Q480
830 468 842T437 854Q419 854 407 842T394 812Q394 793 406 781T437 768Q456 768 468 780Z" />
<glyph unicode="&#xd7;" glyph-name="multiply" horiz-adv-x="488" d="M379 31L244 203L93 31H30L214 249L46 464H109L244 292L395 464H458L274 246L442 31H379Z" />
<glyph unicode="&#xd8;" glyph-name="Oslash" horiz-adv-x="721" d="M453 696T524 651T636 526T676 345Q676 244 635 163T521 34T357 -14Q268 -14 197 31T85 156T45 337Q45 438 86 519T199 647T363 696Q453 696 524 651ZM111 257T140 191T220 86L455 621Q411 640
364 640Q291 640 234 601T144 493T111 338Q111 257 140 191ZM428 41T485 80T575 188T608 344Q608 425 580 489T501 593L268 58Q310 41 355 41Q428 41 485 80Z" />
<glyph unicode="&#xd9;" glyph-name="Ugrave" horiz-adv-x="673" d="M85 239Q85 167 116 110T204 21T336 -12Q412 -12 469 20T557 110T588 239V680H525V248Q525 190 503 143T437 68T336 41Q280 41 237 68T171 143T147 248V680H85V239ZM321 892H250L335 739L375
752L321 892Z" />
<glyph unicode="&#xda;" glyph-name="Uacute" horiz-adv-x="673" d="M85 239Q85 167 116 110T204 21T336 -12Q412 -12 469 20T557 110T588 239V680H525V248Q525 190 503 143T437 68T336 41Q280 41 237 68T171 143T147 248V680H85V239ZM345 892L291 752L331 739L416
892H345Z" />
<glyph unicode="&#xdb;" glyph-name="Ucircumflex" horiz-adv-x="673" d="M85 239Q85 167 116 110T204 21T336 -12Q412 -12 469 20T557 110T588 239V680H525V248Q525 190 503 143T437 68T336 41Q280 41 237 68T171 143T147 248V680H85V239ZM461 749L359 892H299L199
749L254 739L329 848L403 739L461 749Z" />
<glyph unicode="&#xdc;" glyph-name="Udieresis" horiz-adv-x="673" d="M85 239Q85 167 116 110T204 21T336 -12Q412 -12 469 20T557 110T588 239V680H525V248Q525 190 503 143T437 68T336 41Q280 41 237 68T171 143T147 248V680H85V239ZM272 768T284 780T297
812Q297 829 285 841T253 854Q236 854 223 842T210 812Q210 794 223 781T253 768Q272 768 284 780ZM429 768T441 780T453 812Q453 830 441 842T410 854Q392 854 380 842T367 812Q367 793 379 781T410 768Q429 768 441 780Z" />
<glyph unicode="&#xdd;" glyph-name="Yacute" horiz-adv-x="546" d="M536 680H469L266 336L65 695L10 664L235 276L234 0H297L298 283L536 680ZM275 892L221 752L261 739L346 892H275Z" />
<glyph unicode="&#xde;" glyph-name="Thorn" horiz-adv-x="551" d="M384 600T450 551T516 395Q515 290 444 237T260 184H157V0H95V680H157V600H271Q384 600 450 551ZM348 237T400 275T453 394Q453 477 407 512T273 547H157V237H262Q348 237 400 275Z" />
<glyph unicode="&#xdf;" glyph-name="germandbls" horiz-adv-x="557" d="M137 473Q137 543 175 585T286 627Q344 627 382 596T420 502Q420 438 382 408T255 378H228V327H273Q359 327 406 293T454 186Q454 112 403 82T263 52H212V0H261Q378 0 447 44T517 188Q517
308 397 356Q482 399 482 503Q482 589 427 634T288 680Q192 680 134 626T75 473V0H137V473Z" />
<glyph unicode="&#xe0;" glyph-name="agrave" horiz-adv-x="483" d="M144 430T170 438T244 446Q301 446 330 415T360 330V281H225Q148 282 100 243T52 136Q52 70 94 29T215 -13Q255 -13 296 6T363 52L371 0H422V340Q422 412 373 455T241 498Q208 498 160 486T86
456L105 412Q144 430 170 438ZM113 180T142 210T223 240H360V117Q332 83 295 61T213 38Q163 38 138 67T113 136Q113 180 142 210ZM238 742H167L252 589L292 602L238 742Z" />
<glyph unicode="&#xe1;" glyph-name="aacute" horiz-adv-x="483" d="M144 430T170 438T244 446Q301 446 330 415T360 330V281H225Q148 282 100 243T52 136Q52 70 94 29T215 -13Q255 -13 296 6T363 52L371 0H422V340Q422 412 373 455T241 498Q208 498 160 486T86
456L105 412Q144 430 170 438ZM113 180T142 210T223 240H360V117Q332 83 295 61T213 38Q163 38 138 67T113 136Q113 180 142 210ZM256 742L202 602L242 589L327 742H256Z" />
<glyph unicode="&#xe2;" glyph-name="acircumflex" horiz-adv-x="483" d="M144 430T170 438T244 446Q301 446 330 415T360 330V281H225Q148 282 100 243T52 136Q52 70 94 29T215 -13Q255 -13 296 6T363 52L371 0H422V340Q422 412 373 455T241 498Q208 498 160
486T86 456L105 412Q144 430 170 438ZM113 180T142 210T223 240H360V117Q332 83 295 61T213 38Q163 38 138 67T113 136Q113 180 142 210ZM378 599L276 742H216L116 599L171 589L246 698L320 589L378 599Z" />
<glyph unicode="&#xe3;" glyph-name="atilde" horiz-adv-x="483" d="M144 430T170 438T244 446Q301 446 330 415T360 330V281H225Q148 282 100 243T52 136Q52 70 94 29T215 -13Q255 -13 296 6T363 52L371 0H422V340Q422 412 373 455T241 498Q208 498 160 486T86
456L105 412Q144 430 170 438ZM113 180T142 210T223 240H360V117Q332 83 295 61T213 38Q163 38 138 67T113 136Q113 180 142 210ZM327 677T316 667T291 656Q265 656 243 680Q220 703 178 703Q95 703 95 612H140Q142 634 153 645T179 656Q204 656 231 632Q256 608
291 608Q375 608 375 699H329Q327 677 316 667Z" />
<glyph unicode="&#xe4;" glyph-name="adieresis" horiz-adv-x="483" d="M144 430T170 438T244 446Q301 446 330 415T360 330V281H225Q148 282 100 243T52 136Q52 70 94 29T215 -13Q255 -13 296 6T363 52L371 0H422V340Q422 412 373 455T241 498Q208 498 160 486T86
456L105 412Q144 430 170 438ZM113 180T142 210T223 240H360V117Q332 83 295 61T213 38Q163 38 138 67T113 136Q113 180 142 210ZM186 618T198 630T211 662Q211 679 199 691T167 704Q150 704 137 692T124 662Q124 644 137 631T167 618Q186 618 198 630ZM343 618T355
630T367 662Q367 680 355 692T324 704Q306 704 294 692T281 662Q281 643 293 631T324 618Q343 618 355 630Z" />
<glyph unicode="&#xe5;" glyph-name="aring" horiz-adv-x="483" d="M144 430T170 438T244 446Q301 446 330 415T360 330V281H225Q148 282 100 243T52 136Q52 70 94 29T215 -13Q255 -13 296 6T363 52L371 0H422V340Q422 412 373 455T241 498Q208 498 160 486T86
456L105 412Q144 430 170 438ZM113 180T142 210T223 240H360V117Q332 83 295 61T213 38Q163 38 138 67T113 136Q113 180 142 210ZM214 759T188 735T161 675Q161 640 187 617T250 594Q287 594 312 617T338 675Q338 711 312 735T250 759Q214 759 188 735ZM232 633T219
645T206 675Q206 694 219 706T250 719Q268 719 281 707T294 675Q294 657 281 645T250 633Q232 633 219 645Z" />
<glyph unicode="&#xe6;" glyph-name="ae" horiz-adv-x="817" d="M642 38T678 48T754 80L775 34Q732 11 695 0T605 -12Q535 -12 484 12T403 81Q366 40 323 14T215 -13Q136 -13 94 28T52 136Q52 204 100 243T225 281H360V330Q360 383 331 414T244 446Q197 446 171
438T105 412L86 456Q112 474 160 486T241 498Q300 498 342 476T405 413Q434 454 478 476T579 499Q682 499 732 429T782 240H422Q423 147 466 93T602 38Q642 38 678 48ZM507 447T469 403T424 283H719Q703 447 576 447Q507 447 469 403ZM260 38T291 51T341 82T378
128Q361 176 359 240H223Q171 240 142 210T113 136Q113 97 138 68T213 38Q260 38 291 51Z" />
<glyph unicode="&#xe7;" glyph-name="ccedilla" horiz-adv-x="451" d="M391 13T353 2T282 -12L266 -54Q299 -58 322 -81T346 -132Q346 -175 314 -198T234 -221Q216 -221 195 -216T160 -202L175 -160Q209 -174 234 -174Q256 -174 274 -163T292 -134Q292 -114 266
-100T202 -81L230 -11Q138 0 87 69T35 245Q35 317 64 375T146 465T269 498Q300 498 346 486T420 456L400 412Q364 430 338 438T266 446Q188 446 144 390T98 246Q98 153 140 96T261 39Q308 39 332 46T395 73L415 28Q391 13 353 2Z" />
<glyph unicode="&#xe8;" glyph-name="egrave" horiz-adv-x="493" d="M458 357T408 427T255 498Q151 498 94 428T35 245Q35 127 97 57T281 -13Q333 -13 370 -2T451 33L430 79Q390 58 354 48T278 37Q185 37 142 91T98 239H458Q458 357 408 427ZM107 357T145 401T252
446Q379 446 395 282H100Q107 357 145 401ZM243 742H172L257 589L297 602L243 742Z" />
<glyph unicode="&#xe9;" glyph-name="eacute" horiz-adv-x="493" d="M458 357T408 427T255 498Q151 498 94 428T35 245Q35 127 97 57T281 -13Q333 -13 370 -2T451 33L430 79Q390 58 354 48T278 37Q185 37 142 91T98 239H458Q458 357 408 427ZM107 357T145 401T252
446Q379 446 395 282H100Q107 357 145 401ZM261 742L207 602L247 589L332 742H261Z" />
<glyph unicode="&#xea;" glyph-name="ecircumflex" horiz-adv-x="493" d="M458 357T408 427T255 498Q151 498 94 428T35 245Q35 127 97 57T281 -13Q333 -13 370 -2T451 33L430 79Q390 58 354 48T278 37Q185 37 142 91T98 239H458Q458 357 408 427ZM107 357T145
401T252 446Q379 446 395 282H100Q107 357 145 401ZM383 599L281 742H221L121 599L176 589L251 698L325 589L383 599Z" />
<glyph unicode="&#xeb;" glyph-name="edieresis" horiz-adv-x="493" d="M458 357T408 427T255 498Q151 498 94 428T35 245Q35 127 97 57T281 -13Q333 -13 370 -2T451 33L430 79Q390 58 354 48T278 37Q185 37 142 91T98 239H458Q458 357 408 427ZM107 357T145 401T252
446Q379 446 395 282H100Q107 357 145 401ZM191 618T203 630T216 662Q216 679 204 691T172 704Q155 704 142 692T129 662Q129 644 142 631T172 618Q191 618 203 630ZM348 618T360 630T372 662Q372 680 360 692T329 704Q311 704 299 692T286 662Q286 643 298 631T329
618Q348 618 360 630Z" />
<glyph unicode="&#xec;" glyph-name="igrave" horiz-adv-x="193" d="M65 485V0H128V485H65ZM87 742H16L101 589L141 602L87 742Z" />
<glyph unicode="&#xed;" glyph-name="iacute" horiz-adv-x="193" d="M65 485V0H128V485H65ZM105 742L51 602L91 589L176 742H105Z" />
<glyph unicode="&#xee;" glyph-name="icircumflex" horiz-adv-x="193" d="M65 485V0H128V485H65ZM483 599L381 742H321L221 599L276 589L351 698L425 589L483 599Z" />
<glyph unicode="&#xef;" glyph-name="idieresis" horiz-adv-x="193" d="M65 485V0H128V485H65ZM291 618T303 630T316 662Q316 679 304 691T272 704Q255 704 242 692T229 662Q229 644 242 631T272 618Q291 618 303 630ZM448 618T460 630T472 662Q472 680 460 692T429
704Q411 704 399 692T386 662Q386 643 398 631T429 618Q448 618 460 630Z" />
<glyph unicode="&#xf0;" glyph-name="eth" horiz-adv-x="527" d="M398 583T445 478T492 240Q492 167 463 110T380 20T254 -13Q186 -13 137 20T61 111T35 245Q36 317 64 374T144 465T267 498Q336 498 390 459Q344 562 240 633L116 570L90 610L194 661Q156 683 95
708L113 750Q187 724 248 688L358 742L383 705L293 659Q398 583 445 478ZM339 39T383 95T429 239Q429 318 415 382Q388 413 350 429T266 446Q188 446 144 390T98 246Q98 153 140 96T261 39Q339 39 383 95Z" />
<glyph unicode="&#xf1;" glyph-name="ntilde" horiz-adv-x="516" d="M160 388T210 416T299 445Q393 445 393 325V1H455V337Q455 410 418 454T306 498Q261 498 209 473T126 411L116 485H65V0H127V346Q160 388 210 416ZM347 677T336 667T311 656Q285 656 263 680Q240
703 198 703Q115 703 115 612H160Q162 634 173 645T199 656Q224 656 251 632Q276 608 311 608Q395 608 395 699H349Q347 677 336 667Z" />
<glyph unicode="&#xf2;" glyph-name="ograve" horiz-adv-x="527" d="M492 167T463 110T380 20T254 -13Q186 -13 137 20T61 111T35 245Q36 317 64 374T144 465T267 498Q374 498 433 430T492 240Q492 167 463 110ZM339 39T383 95T429 239Q429 332 387 389T266 446Q188
446 144 390T98 246Q98 153 140 96T261 39Q339 39 383 95ZM254 742H183L268 589L308 602L254 742Z" />
<glyph unicode="&#xf3;" glyph-name="oacute" horiz-adv-x="527" d="M492 167T463 110T380 20T254 -13Q186 -13 137 20T61 111T35 245Q36 317 64 374T144 465T267 498Q374 498 433 430T492 240Q492 167 463 110ZM339 39T383 95T429 239Q429 332 387 389T266 446Q188
446 144 390T98 246Q98 153 140 96T261 39Q339 39 383 95ZM272 742L218 602L258 589L343 742H272Z" />
<glyph unicode="&#xf4;" glyph-name="ocircumflex" horiz-adv-x="527" d="M492 167T463 110T380 20T254 -13Q186 -13 137 20T61 111T35 245Q36 317 64 374T144 465T267 498Q374 498 433 430T492 240Q492 167 463 110ZM339 39T383 95T429 239Q429 332 387 389T266
446Q188 446 144 390T98 246Q98 153 140 96T261 39Q339 39 383 95ZM394 599L292 742H232L132 599L187 589L262 698L336 589L394 599Z" />
<glyph unicode="&#xf5;" glyph-name="otilde" horiz-adv-x="527" d="M492 167T463 110T380 20T254 -13Q186 -13 137 20T61 111T35 245Q36 317 64 374T144 465T267 498Q374 498 433 430T492 240Q492 167 463 110ZM339 39T383 95T429 239Q429 332 387 389T266 446Q188
446 144 390T98 246Q98 153 140 96T261 39Q339 39 383 95ZM343 677T332 667T307 656Q281 656 259 680Q236 703 194 703Q111 703 111 612H156Q158 634 169 645T195 656Q220 656 247 632Q272 608 307 608Q391 608 391 699H345Q343 677 332 667Z" />
<glyph unicode="&#xf6;" glyph-name="odieresis" horiz-adv-x="527" d="M492 167T463 110T380 20T254 -13Q186 -13 137 20T61 111T35 245Q36 317 64 374T144 465T267 498Q374 498 433 430T492 240Q492 167 463 110ZM339 39T383 95T429 239Q429 332 387 389T266
446Q188 446 144 390T98 246Q98 153 140 96T261 39Q339 39 383 95ZM202 618T214 630T227 662Q227 679 215 691T183 704Q166 704 153 692T140 662Q140 644 153 631T183 618Q202 618 214 630ZM359 618T371 630T383 662Q383 680 371 692T340 704Q322 704 310 692T297
662Q297 643 309 631T340 618Q359 618 371 630Z" />
<glyph unicode="&#xf7;" glyph-name="divide" horiz-adv-x="497" d="M271 360T287 377T303 416Q303 440 287 456T248 472Q223 472 207 456T191 416Q191 394 207 377T248 360Q271 360 287 377ZM38 248H467L460 298H30L38 248ZM273 57T289 74T306 114Q306 137 290
153T250 170Q226 170 210 154T194 114Q194 90 210 74T250 57Q273 57 289 74Z" />
<glyph unicode="&#xf8;" glyph-name="oslash" horiz-adv-x="527" d="M374 498T433 430T492 240Q492 167 463 110T380 20T254 -13Q186 -13 137 20T61 111T35 245Q36 317 64 374T144 465T267 498Q374 498 433 430ZM98 191T113 148T157 77L339 430Q305 446 266 446Q188
446 144 390T98 246Q98 191 113 148ZM339 39T383 95T429 239Q429 288 417 328T381 396L203 49Q227 39 261 39Q339 39 383 95Z" />
<glyph unicode="&#xf9;" glyph-name="ugrave" horiz-adv-x="516" d="M356 98T306 70T217 41Q123 41 123 161V485H61V149Q61 76 98 32T210 -12Q255 -12 307 13T390 75L400 0H451V486H389V140Q356 98 306 70ZM240 742H169L254 589L294 602L240 742Z" />
<glyph unicode="&#xfa;" glyph-name="uacute" horiz-adv-x="516" d="M356 98T306 70T217 41Q123 41 123 161V485H61V149Q61 76 98 32T210 -12Q255 -12 307 13T390 75L400 0H451V486H389V140Q356 98 306 70ZM258 742L204 602L244 589L329 742H258Z" />
<glyph unicode="&#xfb;" glyph-name="ucircumflex" horiz-adv-x="516" d="M356 98T306 70T217 41Q123 41 123 161V485H61V149Q61 76 98 32T210 -12Q255 -12 307 13T390 75L400 0H451V486H389V140Q356 98 306 70ZM380 599L278 742H218L118 599L173 589L248 698L322
589L380 599Z" />
<glyph unicode="&#xfc;" glyph-name="udieresis" horiz-adv-x="516" d="M356 98T306 70T217 41Q123 41 123 161V485H61V149Q61 76 98 32T210 -12Q255 -12 307 13T390 75L400 0H451V486H389V140Q356 98 306 70ZM188 618T200 630T213 662Q213 679 201 691T169 704Q152
704 139 692T126 662Q126 644 139 631T169 618Q188 618 200 630ZM345 618T357 630T369 662Q369 680 357 692T326 704Q308 704 296 692T283 662Q283 643 295 631T326 618Q345 618 357 630Z" />
<glyph unicode="&#xfd;" glyph-name="yacute" horiz-adv-x="438" d="M148 -129T129 -143T65 -179L82 -219Q130 -209 165 -181T215 -112L428 485H368L218 83L59 497L10 471L192 -7L160 -98Q148 -129 129 -143ZM224 742L170 602L210 589L295 742H224Z" />
<glyph unicode="&#xfe;" glyph-name="thorn" horiz-adv-x="516" d="M365 498T423 428T481 242Q480 169 454 111T377 20T256 -13Q196 -13 133 35V-208L71 -219V696L133 706V452Q192 498 260 498Q365 498 423 428ZM336 39T376 95T418 241Q418 335 379 390T261 446Q221
446 190 431T133 389V91Q160 67 189 53T259 39Q336 39 376 95Z" />
<glyph unicode="&#xff;" glyph-name="ydieresis" horiz-adv-x="438" d="M148 -129T129 -143T65 -179L82 -219Q130 -209 165 -181T215 -112L428 485H368L218 83L59 497L10 471L192 -7L160 -98Q148 -129 129 -143ZM154 618T166 630T179 662Q179 679 167 691T135
704Q118 704 105 692T92 662Q92 644 105 631T135 618Q154 618 166 630ZM311 618T323 630T335 662Q335 680 323 692T292 704Q274 704 262 692T249 662Q249 643 261 631T292 618Q311 618 323 630Z" />
<glyph unicode="&#x2013;" glyph-name="endash" horiz-adv-x="439" d="M38 248H409L401 298H30L38 248Z" />
<glyph unicode="&#x2014;" glyph-name="emdash" horiz-adv-x="534" d="M38 248H504L496 298H30L38 248Z" />
<glyph unicode="&#x2018;" glyph-name="quoteleft" horiz-adv-x="160" d="M97 498T111 512T125 545Q125 564 113 577T81 593Q83 618 98 636T140 671L121 702Q84 683 57 640T30 552Q30 527 43 513T77 498Q97 498 111 512Z" />
<glyph unicode="&#x2019;" glyph-name="quoteright" horiz-adv-x="160" d="M62 702T48 688T34 654Q34 636 46 622T76 606Q74 581 60 563T20 527L38 498Q76 517 103 560T130 647Q130 671 116 686T83 702Q62 702 48 688Z" />
<glyph unicode="&#x201a;" glyph-name="quotesinglbase" horiz-adv-x="160" d="M62 94T48 81T34 48Q34 29 46 16T76 1Q74 -24 60 -43T20 -79L38 -108Q76 -89 103 -47T130 41Q130 65 117 79T83 94Q62 94 48 81Z" />
<glyph unicode="&#x201c;" glyph-name="quotedblleft" horiz-adv-x="306" d="M97 498T111 512T125 545Q125 564 113 577T81 593Q83 618 98 636T140 671L121 702Q84 683 57 640T30 552Q30 527 43 513T77 498Q97 498 111 512ZM243 498T257 512T272 545Q272 563 260
577T230 593Q231 618 245 636T286 671L269 702Q230 683 204 640T177 552Q177 528 190 513T223 498Q243 498 257 512Z" />
<glyph unicode="&#x201d;" glyph-name="quotedblright" horiz-adv-x="306" d="M62 702T48 688T34 654Q34 636 46 622T76 606Q74 581 60 563T20 527L38 498Q76 517 103 560T130 647Q130 671 116 686T83 702Q62 702 48 688ZM209 702T195 688T181 654Q181 636 193
622T224 606Q222 581 208 563T167 527L185 498Q222 517 249 560T276 647Q276 671 262 686T229 702Q209 702 195 688Z" />
<glyph unicode="&#x201e;" glyph-name="quotedblbase" horiz-adv-x="306" d="M62 95T48 82T34 48Q34 29 46 16T76 1Q74 -24 60 -42T20 -78L38 -108Q76 -89 103 -46T130 41Q130 65 116 80T83 95Q62 95 48 82ZM209 94T195 81T181 48Q181 30 193 16T224 1Q222 -24
208 -43T167 -79L185 -108Q223 -89 249 -47T276 41Q276 65 263 79T229 94Q209 94 195 81Z" />
<glyph unicode="&#x2022;" glyph-name="bullet" horiz-adv-x="224" d="M146 245T170 269T194 326Q194 360 170 384T112 409Q78 409 54 385T30 326Q30 293 54 269T112 245Q146 245 170 269Z" />
<glyph unicode="&#x2039;" glyph-name="guilsinglleft" horiz-adv-x="211" d="M191 127L82 245L191 363L170 408L30 269V221L170 83L191 127Z" />
<glyph unicode="&#x203a;" glyph-name="guilsinglright" horiz-adv-x="213" d="M20 363L132 245L20 127L43 83L183 221V269L43 408L20 363Z" />
</font>
</defs>
</svg>
