<?xml version="1.0" standalone="no"?>
<!DOCTYPE svg PUBLIC "-//W3C//DTD SVG 1.1//EN" "http://www.w3.org/Graphics/SVG/1.1/DTD/svg11.dtd">
<svg xmlns="http://www.w3.org/2000/svg">
<defs >
<font id="HanaleiFill" horiz-adv-x="940" ><font-face
    font-family="Hanalei Fill"
    units-per-em="2048"
    panose-1="2 0 5 6 0 0 0 2 0 0"
    ascent="2124"
    descent="-541"
    alphabetic="0" />
<glyph unicode=" " glyph-name="space" horiz-adv-x="410" />
<glyph unicode="!" glyph-name="exclam" horiz-adv-x="528" d="M473 1325L469 1313Q449 1253 439 1188T428 1057Q428 1013 433 973T449 897V883Q436 821 423 759T410 631Q410 593 415 556T432 485L434 475L430 467Q429 465 419 451T386 421T332 391T254 377Q209
377 177 391T124 421T93 452T82 469L78 479L82 487Q94 523 99 560T104 637Q104 694 98 754T78 870V887Q109 975 109 1073Q109 1138 99 1201T72 1321L68 1333L76 1343Q77 1344 90 1355T129 1380T191 1404T274 1415Q319 1415 354 1403T414 1377T451 1349T465 1335L473
1325ZM410 238L406 223Q395 192 390 166T385 115Q385 96 387 81T395 49L399 37L391 27Q365 -1 327 -16T244 -31Q200 -31 163 -16T100 27L90 37L94 49Q100 66 102 83T104 117Q104 168 84 221L80 236L90 246Q118 272 157 286T244 301Q289 301 329 287T399 248L410
238Z" />
<glyph unicode="&quot;" glyph-name="quotedbl" horiz-adv-x="975" d="M453 772L449 762Q448 760 438 744T405 708T343 673T244 657Q190 657 155 672T98 705T69 740T59 758L55 766L59 774Q75 817 81 855T88 930Q88 967 83 1007T66 1085L61 1096L66 1104Q83 1153
90 1190T98 1262Q98 1296 91 1330T70 1407L66 1419L72 1430Q73 1431 83 1443T116 1469T172 1494T254 1505Q297 1505 330 1494T385 1470T419 1445T432 1432L442 1421L438 1407Q423 1356 416 1321T408 1257Q408 1228 414 1198T434 1122L436 1110Q421 1073 417 1028T412
952Q412 912 421 872T449 780L453 772ZM924 772L920 762Q919 760 910 744T877 708T814 673T715 657Q661 657 626 672T569 705T540 740T530 758L526 766L530 774Q546 817 552 855T559 930Q559 967 554 1007T537 1085L532 1096L537 1104Q554 1153 561 1190T569 1262Q569
1296 562 1330T541 1407L537 1419L543 1430Q544 1431 554 1443T587 1469T643 1494T725 1505Q768 1505 801 1494T856 1470T890 1445T903 1432L913 1421L909 1407Q894 1356 887 1321T879 1257Q879 1228 885 1198T905 1122L907 1110Q892 1073 888 1028T883 952Q883
912 892 872T920 780L924 772Z" />
<glyph unicode="#" glyph-name="numbersign" horiz-adv-x="2204" d="M1178 1343L1174 1331Q1155 1275 1145 1222T1135 1116Q1135 1037 1159 956V942Q1144 888 1136 837T1128 735Q1128 631 1161 537V520Q1122 416 1122 309Q1122 258 1131 208T1157 109L1161 98L1157
90Q1156 88 1146 73T1113 39T1051 7T954 -8Q906 -8 872 1T815 27H805Q778 27 757 32T722 44T701 57T692 66L684 72V82Q679 184 643 277T535 461L530 471Q518 539 497 599T444 715Q447 623 477 537L481 528L477 520Q440 417 440 313Q440 207 475 109L479 98L475
90Q474 88 464 73T431 39T369 7T270 -8Q211 -8 173 7T113 42T81 78T72 96L68 106L72 115Q117 224 117 348Q117 390 112 432T96 520V532Q109 582 116 630T123 725Q123 779 115 830T90 932L88 940L92 948Q135 1058 135 1167Q135 1211 129 1253T109 1341L104 1354L113
1364Q114 1365 125 1376T158 1401T214 1425T295 1436Q340 1436 372 1426T428 1401H444Q486 1401 511 1392T539 1380L551 1374L553 1362Q574 1156 696 1016L702 1010V1004Q727 843 805 721V723Q805 829 774 932V948Q817 1058 817 1171Q817 1255 793 1341L788 1354L797
1364Q798 1365 809 1376T842 1401T898 1425T979 1436Q1026 1436 1061 1424T1120 1396T1156 1368T1169 1354L1178 1343ZM2122 610Q2122 564 2111 530T2087 472T2061 437T2046 424L2036 416L2023 420Q1972 435 1938 442T1874 449Q1845 449 1814 443T1739 422H1724Q1676
431 1639 437T1567 444Q1526 444 1487 435T1397 408L1386 406L1378 410Q1376 410 1360 419T1324 452T1290 517T1274 621Q1274 630 1274 639T1276 657Q1274 659 1273 661T1269 666Q1267 668 1266 670L1260 682L1264 694Q1279 747 1286 802T1294 913Q1294 963 1288
1010T1270 1100L1268 1110L1272 1118Q1272 1120 1274 1126T1284 1143Q1279 1161 1277 1183T1274 1231Q1274 1285 1288 1320T1321 1376T1354 1405T1372 1415L1382 1419L1391 1415Q1474 1386 1546 1386Q1581 1386 1621 1390T1702 1409H1718Q1768 1392 1805 1384T1878
1376Q1912 1376 1946 1383T2023 1405L2036 1409L2046 1401Q2047 1400 2058 1390T2083 1359T2108 1305T2122 1227Q2122 1219 2122 1213T2120 1198Q2137 1180 2144 1165T2152 1147L2157 1139L2152 1128Q2132 1076 2120 1008T2107 866Q2107 829 2112 792T2126 719L2128
707L2122 696Q2121 696 2109 682Q2114 667 2117 649T2122 610ZM2017 168Q2017 126 2005 96T1977 44T1949 12T1935 0L1925 -6L1913 -2Q1860 15 1796 23T1669 31Q1612 31 1560 25T1466 6L1458 2L1448 6Q1446 7 1431 15T1397 44T1365 99T1350 186Q1350 238 1366 271T1402
324T1439 351T1458 360H1475Q1502 350 1535 342T1607 328T1685 319T1767 315Q1809 315 1849 318T1925 332L1937 336L1948 328Q1950 326 1961 317T1984 288T2007 240T2017 168ZM1823 952Q1823 980 1822 1007T1815 1061Q1798 1058 1780 1052T1739 1038H1724Q1692
1045 1666 1049T1614 1057Q1598 1006 1590 947T1581 825V770Q1610 772 1640 777T1702 793H1718Q1741 783 1761 777T1800 766Q1823 860 1823 952Z" />
<glyph unicode="$" glyph-name="dollar" horiz-adv-x="928" d="M858 1208Q879 1152 879 1108Q879 1063 869 1037T856 1008L848 995H836Q783 991 749 986T687 971T633 942T569 895L555 891Q523 885 496 879T446 866Q466 858 491 850T549 834L563 825Q607 760 677
719T825 659L836 657L842 649Q842 648 845 642T853 625T860 598T864 563Q864 534 859 511T842 465L858 434Q879 378 879 334Q879 311 876 293T868 262T861 242T856 233L848 221L836 219Q794 217 764 214T709 204T665 187T621 160Q613 118 610 75T606 -14Q606 -56
609 -96T623 -170L627 -182L618 -193Q617 -194 608 -205T579 -228T530 -251T459 -262Q417 -262 387 -250T336 -223T305 -195T293 -180L285 -170L289 -156Q301 -112 308 -63T319 39Q302 27 286 14T254 -14L246 -20H236Q234 -20 216 -17T173 -1T119 42T70 123Q57
152 52 177T47 223Q47 251 53 273T68 309T83 332T92 342L98 348H109Q152 349 188 355T258 374T322 402T387 440L401 453L410 459H418Q435 459 449 460T477 463Q449 480 416 495T340 528L328 537Q299 574 277 597T229 635T172 663T90 690L76 694L72 709Q72 711 69
725T66 762Q66 782 70 807T86 860Q81 869 77 877T70 897Q57 926 52 951T47 997Q47 1025 53 1047T68 1083T83 1106T92 1116L98 1122H109Q172 1122 219 1135T313 1171Q319 1232 319 1296Q319 1350 314 1401T297 1493L293 1503L297 1513Q298 1516 306 1531T335 1564T389
1596T477 1610Q529 1610 562 1594T615 1558T642 1521T651 1503L653 1495L651 1485Q636 1445 625 1390T608 1274Q631 1286 653 1302T702 1339L713 1348L725 1343Q726 1343 741 1338T776 1317T818 1276T858 1208Z" />
<glyph unicode="%" glyph-name="percent" horiz-adv-x="1821" d="M1776 162L1774 154Q1773 152 1770 145T1758 127T1736 106T1704 86Q1690 52 1672 35T1651 16L1642 10L1632 14Q1590 27 1541 33T1440 39Q1393 39 1352 35T1276 20H1262Q1258 20 1240 32T1204 72Q1173
76 1153 89T1120 115T1103 140T1096 152V166Q1102 186 1107 217T1116 285T1122 364T1124 446Q1124 499 1121 546T1108 625L1104 633L1110 643Q1114 648 1118 653Q1126 663 1143 674Q1147 712 1159 736T1186 775T1212 795T1229 803H1243Q1285 786 1347 776T1475
766Q1510 766 1542 769T1604 780L1612 782L1620 778Q1621 777 1627 772T1641 757T1658 732T1671 696Q1694 691 1711 682T1740 664T1758 649T1765 641L1772 631L1769 621Q1758 583 1754 526T1749 408Q1749 372 1750 337T1755 271T1763 213T1774 168L1776 162ZM725
776L721 770Q721 768 718 761T707 744T686 724T653 705Q639 669 621 652T600 633L592 627L582 631Q540 643 490 649T389 655Q343 655 301 651T225 637H209Q207 637 189 648T154 688Q122 692 102 705T69 731T51 756T45 768V782Q51 802 56 833T65 901T71 980T74 1063Q74
1116 71 1162T57 1241L53 1249L59 1260Q62 1265 67 1270Q74 1279 92 1290Q96 1329 108 1353T135 1391T161 1411T178 1419H193Q235 1402 297 1392T424 1382Q458 1382 490 1385T551 1397L561 1399L569 1395Q570 1394 576 1389T590 1374T606 1349T621 1313Q643 1307
660 1298T689 1281T707 1265T715 1257L721 1247L719 1237Q708 1200 703 1143T698 1024Q698 953 704 888T723 784L725 776ZM1202 1255L1196 1247Q1177 1215 1161 1174T1134 1090T1117 1002T1110 920Q1110 910 1110 902T1112 885L1110 872Q1092 837 1077 796T1052
712T1036 626T1030 545Q1030 531 1031 518T1034 492L1036 485L1032 479Q1014 447 999 411T974 335T958 255T952 176Q952 161 953 146T956 117L958 109L952 102Q951 101 944 93T922 76T884 59T829 51Q764 51 727 69T669 111Q646 137 639 172L637 178L641 186Q662
217 679 257T708 340T726 430T733 520V539L735 549Q752 582 765 623T789 708T804 797T809 881Q809 893 809 904T807 926L805 932L809 938Q830 969 847 1010T876 1097T894 1189T901 1278Q901 1287 900 1296T899 1315L897 1327L905 1333Q906 1334 913 1339T933 1349T966
1359T1012 1364Q1063 1364 1097 1349T1154 1316T1185 1283T1196 1266L1202 1255ZM1399 539H1362Q1356 477 1356 408Q1356 376 1357 343T1360 283Q1394 276 1431 272T1507 268Q1512 306 1515 351T1518 442Q1518 465 1517 487T1516 530Q1487 535 1458 537T1399 539ZM348
1155H311Q305 1093 305 1024Q305 992 306 960T309 899Q343 893 381 889T457 885Q462 923 464 968T467 1059Q467 1082 466 1103T465 1147Q436 1152 407 1153T348 1155Z" />
<glyph unicode="&amp;" glyph-name="ampersand" horiz-adv-x="1286" d="M1090 1071V1059L1079 1051Q1038 1019 999 975T925 881T863 781T821 688L819 684Q846 649 874 621L883 604Q885 589 886 574T891 543Q1023 552 1139 633L1149 639L1161 635Q1162 635 1174
628T1204 604T1240 559T1272 487Q1284 442 1284 406Q1284 380 1280 360T1270 325T1261 302T1255 293L1249 281L1237 283H1202Q1156 283 1113 277T1030 258L1061 225L1067 217V201Q1067 192 1064 173T1047 129T1007 80T936 33Q905 17 878 12T829 6Q802 6 782 12T747
25T726 38T717 47L711 55V63Q708 88 704 112T694 162Q616 134 551 84L537 80Q526 80 516 81T494 82Q321 82 182 -27L166 -31Q164 -31 148 -26T110 -5T64 43T23 129Q15 154 12 174T8 213Q8 242 14 264T29 301Q13 327 6 350T-2 389Q-2 405 0 414T2 426L4 434L12 440Q47
465 88 505T168 594T239 695T289 797L295 809L305 813Q307 813 320 816T354 819Q359 819 364 818T375 817L369 823L360 840Q342 1050 203 1210L195 1219L197 1233Q197 1234 200 1245T214 1275T242 1314T289 1354Q297 1399 316 1427T355 1470T390 1492T408 1499L416
1501L426 1497Q483 1469 534 1459T639 1448Q661 1448 684 1451T733 1454L743 1456L752 1452Q811 1424 854 1413T942 1401Q967 1401 994 1404T1053 1413L1065 1415L1075 1407Q1076 1406 1084 1397T1103 1370T1121 1324T1130 1260V1235Q1125 1193 1111 1162T1079
1110Q1084 1095 1087 1082T1090 1071ZM547 459Q542 485 535 510T520 561Q485 529 452 490T391 408L430 428L440 432Q469 432 498 434T555 442Q554 442 554 443Q553 444 553 446L547 459ZM731 1104H729H715Q684 1115 655 1123T600 1137Q614 1108 632 1080T670 1026Q687
1045 702 1064T731 1104Z" />
<glyph unicode="&apos;" glyph-name="quotesingle" horiz-adv-x="504" d="M453 772L449 762Q448 760 438 744T405 708T343 673T244 657Q190 657 155 672T98 705T69 740T59 758L55 766L59 774Q75 817 81 855T88 930Q88 967 83 1007T66 1085L61 1096L66 1104Q83
1153 90 1190T98 1262Q98 1296 91 1330T70 1407L66 1419L72 1430Q73 1431 83 1443T116 1469T172 1494T254 1505Q297 1505 330 1494T385 1470T419 1445T432 1432L442 1421L438 1407Q423 1356 416 1321T408 1257Q408 1228 414 1198T434 1122L436 1110Q421 1073 417
1028T412 952Q412 912 421 872T449 780L453 772Z" />
<glyph unicode="(" glyph-name="parenleft" horiz-adv-x="793" d="M805 129V109Q805 101 800 82T784 37T754 -15T710 -64T648 -100T567 -115Q548 -115 533 -112T507 -104T490 -97T483 -92L473 -78Q462 -33 440 12T388 101T325 184T256 260L248 266L246 274Q220
377 166 458T31 604L20 612V625Q20 627 21 638T29 668Q12 688 2 708T-15 747T-23 777T-25 793V801L-23 811L-16 817Q20 848 49 888T103 975T148 1069T184 1165V1176L193 1182Q345 1319 385 1524L387 1538L399 1542Q401 1542 420 1549T471 1556Q521 1556 558 1542T623
1507T668 1462T696 1417T711 1383T715 1370L719 1356L709 1348Q634 1273 589 1193T524 1020V1012L518 1008Q473 949 430 885T358 748Q419 591 543 498L551 485Q569 441 593 394T648 301T716 216T795 145L803 139L805 129Z" />
<glyph unicode=")" glyph-name="parenright" horiz-adv-x="791" d="M772 612L762 604Q678 539 626 458T545 274L537 260Q501 236 466 195T401 106T349 10T317 -78L315 -86L307 -92Q306 -93 300 -96T284 -104T258 -111T223 -115Q179 -115 145 -101T84 -64T39 -16T9
36T-8 81T-14 109Q-14 118 -13 122T-12 129L-10 139L-2 145Q38 175 75 215T143 301T199 394T242 485L250 498Q370 593 432 743Q404 819 362 890T272 1008L266 1020Q248 1113 203 1193T84 1348L74 1356L76 1370Q76 1368 80 1381T94 1415T122 1460T167 1506T231 1542T319
1556Q351 1556 370 1549T391 1542L403 1538L406 1524Q426 1420 474 1336T600 1182L606 1176L608 1165Q623 1118 643 1070T687 975T742 889T807 817L815 811L817 801V793Q817 790 815 778T807 747T791 708T762 666Q768 649 770 638T772 625V612Z" />
<glyph unicode="*" glyph-name="asterisk" horiz-adv-x="1059" d="M999 1159Q1007 1141 1010 1123T1014 1085Q1014 1065 1011 1046T997 1010L991 997H979Q911 991 848 976T725 934L713 930L702 936Q635 988 635 1065Q635 1090 641 1114L643 1126L655 1130Q789
1167 887 1243L897 1249L909 1247Q938 1236 961 1214T999 1159ZM664 1417L659 1405Q629 1300 629 1194Q629 1182 629 1170T631 1145V1130L621 1124Q573 1096 528 1096Q504 1096 480 1103T432 1128L422 1135V1149Q424 1166 424 1183T424 1217Q424 1266 418 1313T397
1405L393 1417L401 1425Q423 1451 454 1466T524 1481Q561 1481 596 1466T655 1425L664 1417ZM893 696L891 684Q889 655 874 629T836 584T782 553T719 541Q698 541 680 547L668 549L664 561Q623 690 547 795L539 805L545 817Q590 918 705 918H717L723 905Q755 843
795 793T885 705L893 696ZM422 1108Q424 1097 425 1088T426 1069Q426 1026 407 993T350 934L340 928L328 934Q265 965 204 982T80 1004L68 1006L61 1016Q43 1046 43 1083Q43 1110 51 1136T75 1184T110 1224T156 1251L168 1255L178 1247Q231 1207 288 1176T408 1124L420
1120L422 1108ZM520 801L512 791Q428 682 391 563L389 551L377 547Q359 541 336 541Q306 541 278 552T226 584T187 630T166 688L164 700L174 709Q225 752 267 802T342 907L348 920H362Q475 917 516 813L520 801Z" />
<glyph unicode="+" glyph-name="plus" d="M895 676Q895 630 884 596T858 538T832 502T819 489L809 481L795 485Q744 501 710 507T647 514Q639 514 633 514T621 512V481Q621 438 624 399T637 326L639 311L633 301Q632 300 623 289T593 265T543 242T471 231Q429
231 399 244T348 272T317 300T305 313L297 326L301 338Q312 375 319 419T332 510Q294 508 255 499T168 473H150Q148 474 132 483T96 516T61 578T45 676Q45 730 60 766T93 823T127 853T145 862L154 866L164 864Q207 847 245 841T322 834H334Q331 877 325 917T309
989V1008Q310 1009 319 1024T348 1058T403 1091T489 1106Q541 1106 575 1090T629 1053T656 1017T664 999L668 989L664 981Q651 950 642 909T627 823H649Q683 823 717 830T795 852L807 856L817 850Q818 849 830 839T856 808T881 754T895 676Z" />
<glyph unicode="," glyph-name="comma" horiz-adv-x="467" d="M438 66V53L428 45Q346 -18 295 -86T213 -242L211 -250L203 -256Q201 -258 181 -264T131 -270Q95 -270 67 -257T19 -225T-16 -181T-39 -136T-51 -97T-55 -74Q-55 -60 -53 -53T-51 -43L-49 -35L-41
-29Q29 19 77 85T162 250L168 262L178 266Q180 266 191 269T223 272Q272 272 307 257T366 218T404 167T426 116T436 79T438 66Z" />
<glyph unicode="-" glyph-name="hyphen" horiz-adv-x="954" d="M901 686Q901 640 890 606T864 548T838 513T825 500L815 492L801 494Q750 509 716 516T651 524Q622 524 591 518T516 498L504 496Q467 511 422 515T346 520Q306 520 266 511T174 483H156Q154 484
138 493T102 526T67 588T51 686Q51 740 66 776T99 833T134 862T152 872L160 877L170 872Q213 857 250 851T326 844Q363 844 400 849T481 866L489 870L498 866Q547 849 584 842T655 834Q689 834 723 841T801 862L813 866L823 860Q824 859 836 849T862 818T887 764T901
686Z" />
<glyph unicode="." glyph-name="period" horiz-adv-x="414" d="M371 238L367 223Q356 192 351 166T346 115Q346 96 348 81T356 49L360 37L352 27Q326 -1 288 -16T207 -31Q162 -31 124 -16T61 27L51 37L55 49Q68 86 68 121Q68 168 47 221L41 236L51 246Q79 272
118 286T205 301Q250 301 290 287T360 248L371 238Z" />
<glyph unicode="/" glyph-name="slash" horiz-adv-x="928" d="M897 1217L889 1206Q751 1050 733 864L727 852Q656 761 619 668T575 475V467L569 461Q424 296 412 80V70L403 63Q401 61 394 55T372 43T337 31T289 25Q266 25 238 30T178 49Q123 71 94 100T51 155T35
200T33 221V231L41 240Q112 312 155 402T215 604L221 616Q350 786 367 987L375 1001Q447 1079 488 1167T539 1360L541 1374L551 1380Q553 1382 576 1390T639 1399Q689 1399 727 1387T794 1355T841 1313T871 1272T888 1241T893 1229L897 1217Z" />
<glyph unicode="0" glyph-name="zero" horiz-adv-x="1325" d="M1346 739Q1346 737 1347 729T1348 707Q1348 692 1345 673T1333 632T1306 586T1260 537Q1224 508 1193 494T1137 477Q1108 445 1084 410T1040 334L1032 324Q994 309 953 274T873 194T803 101T754 12L750
2L739 -2Q737 -4 723 -8T684 -12Q655 -12 615 1T528 55Q499 80 483 105T457 152Q426 178 394 199T330 242L322 244L317 252Q268 345 198 412T31 522L20 528L16 541Q15 543 15 547Q14 551 14 563Q14 576 16 595T29 639Q1 671 -5 701T-12 750Q-12 759 -11 764T-10
772L-8 782L0 786Q34 812 68 850T133 933T187 1025T227 1118L236 1133Q321 1196 375 1277T457 1458L461 1470L473 1477Q475 1477 489 1481T528 1485Q564 1485 593 1477T646 1456T687 1426T719 1391Q746 1397 768 1397Q783 1397 792 1396T803 1395L815 1391L821
1378Q859 1282 916 1210T1053 1083L1063 1073Q1084 1029 1112 984T1175 897T1248 818T1333 754L1341 750L1346 739ZM786 825L778 829L776 838Q750 912 710 973T614 1083Q596 1051 581 1016T555 944L549 932Q522 913 496 885T445 822T400 752T362 680Q446 587 555
537L565 528Q584 504 603 477T647 424Q672 453 694 483T737 545Q740 550 741 554T745 563L750 571L758 575Q854 622 922 696Q891 735 857 768T786 825Z" />
<glyph unicode="1" glyph-name="one" horiz-adv-x="821" d="M768 1321L764 1307Q744 1251 735 1198T725 1092Q725 1051 730 1012T748 932L750 918Q733 862 725 811T717 709Q717 608 752 512L754 504L750 496Q713 392 713 287Q713 187 748 84L752 76L748 66Q747
64 737 49T704 15T641 -18T543 -33Q484 -33 446 -17T385 19T354 55T344 74L340 82L344 92Q367 148 378 205T389 324Q389 366 385 408T369 496V508Q383 559 389 608T395 707Q395 809 365 907L360 915L365 924Q377 956 385 988T399 1053Q348 1014 305 971T233 887L229
879L219 874Q217 874 209 872T184 870Q166 870 132 883T65 921T7 986T-18 1077Q-18 1111 -9 1132T2 1155L8 1163L16 1165Q57 1179 107 1206T209 1269T305 1346T383 1430L389 1440L401 1442Q404 1442 413 1442T438 1438T471 1427T510 1405Q534 1411 569 1411Q616
1411 651 1399T711 1372T747 1345T760 1331L768 1321Z" />
<glyph unicode="2" glyph-name="two" horiz-adv-x="1030" d="M993 737L991 725L979 719Q796 624 705 463L696 453Q658 430 618 401T541 336Q583 323 619 318T692 313Q732 313 773 321T864 344L877 348L889 340Q890 339 901 329T927 298T953 244T967 166Q967 120
956 86T930 29T902 -6T887 -20L877 -29L862 -25Q808 -9 766 -2T686 6Q648 6 611 0T526 -20H512Q452 -11 411 -3T330 6Q296 6 261 0T180 -23L170 -27L162 -23Q160 -22 143 -13T105 17T69 76T53 170Q53 223 71 258T111 317Q106 331 105 342T104 365Q104 389 108 403T115
420L119 430L129 434Q168 451 207 478T283 539T353 611T414 688Q417 693 419 696T424 705L428 713L436 717Q502 748 556 788T655 881Q618 930 573 975T481 1055Q422 1004 374 945T297 834L293 825L283 821Q281 819 267 815T229 811Q202 811 164 823T86 877Q48 914
36 949T23 1012Q23 1038 28 1054T35 1073L39 1081L47 1085Q86 1104 133 1137T226 1212T312 1299T379 1391L387 1403L399 1405Q401 1405 405 1406Q408 1406 411 1406T420 1407Q437 1407 466 1400T530 1370Q579 1389 610 1389Q636 1389 653 1383T672 1376L680 1372L684
1364Q701 1324 732 1276T804 1180T890 1092T981 1024L991 1018L993 1006V991Q993 974 987 944T956 877Q979 838 986 805T993 754V737Z" />
<glyph unicode="3" glyph-name="three" horiz-adv-x="934" d="M893 526Q893 524 897 513T901 479Q901 461 896 437T879 387Q888 364 891 342T895 303Q895 279 891 259T881 225T872 202T866 193L860 180H846Q795 178 755 172T679 155T610 125T539 78L524 72Q516
72 509 71T494 68Q449 62 415 57T351 41T291 14T225 -33L217 -39H207Q205 -39 187 -36T143 -18T90 27T45 111Q37 131 35 149T33 184Q33 213 40 237T55 279T70 306T80 317L86 324H96Q140 324 172 327T234 340T295 364T369 403L383 416L399 420Q421 420 440 420T477
422Q431 453 386 475T301 510L297 512Q272 518 245 532T188 573Q165 595 151 618T130 662T120 704T117 739Q117 753 118 761T119 772L123 782L131 786Q169 806 196 825T245 866T287 916T332 985Q335 990 336 994T340 1004L344 1012L352 1016Q368 1024 381 1031T408
1049Q355 1055 305 1055Q267 1055 232 1051T168 1040L158 1038L150 1042Q148 1043 134 1052T105 1081T76 1133T63 1214Q63 1278 81 1317T122 1379T164 1410T186 1419L195 1421L205 1417Q235 1402 275 1389T361 1367T455 1352T551 1346Q577 1346 602 1347T651 1354L664
1356L674 1348Q676 1346 692 1325T721 1260Q777 1233 807 1196T852 1124T869 1064T872 1038L870 1024L860 1018Q815 991 782 967T723 915T677 855T637 780L629 770L586 739Q616 709 651 679T724 623T801 576T877 543L889 539L893 526Z" />
<glyph unicode="4" glyph-name="four" horiz-adv-x="1053" d="M1018 612V590Q1018 553 1008 525T986 476T964 446T952 434L942 426L928 428Q923 428 919 429T909 432Q900 395 897 360T893 287Q893 187 928 84L932 76L928 66Q927 64 917 49T884 15T822 -18T723
-33Q664 -33 626 -17T565 19T534 55T524 74L520 82L524 92Q547 148 559 205T571 324Q571 345 569 369T563 416Q540 419 519 422T479 426Q435 426 393 416T293 383L285 379L274 383Q273 383 265 386T244 398T216 421T188 459Q127 461 87 487T23 545T-10 609T-20
655Q-20 666 -19 672T-18 680L-16 690L-8 696Q26 722 57 758T117 835T169 920T213 1008Q215 1014 216 1018T217 1028L227 1042Q309 1107 363 1187T449 1368L451 1380L463 1386Q465 1386 480 1390T522 1395Q575 1395 610 1376Q633 1390 667 1400T750 1411Q796 1411
831 1399T891 1372T927 1345T940 1331L948 1321L944 1307Q926 1251 916 1198T905 1092Q905 1010 930 932V918Q917 879 910 841T899 768Q903 768 911 772L924 776L934 770Q935 769 946 760T973 733T1001 684T1018 612ZM545 907V920Q539 906 534 893T526 866L518
854Q489 832 460 799T403 727Q439 727 478 733T569 758H573Q570 796 563 833T545 907Z" />
<glyph unicode="5" glyph-name="five" horiz-adv-x="1026" d="M985 231L981 221Q981 220 978 213T968 196T948 173T918 150Q914 112 903 84T879 37T856 8T844 -4L834 -12L821 -8Q770 7 729 15T649 23Q614 23 578 16T496 -6H481Q425 4 386 13T309 23Q277 23 243
16T164 -8L154 -10L145 -6Q143 -6 127 3T92 33T57 92T41 186Q41 234 56 268T89 326T123 360T141 373H160Q205 356 238 349T307 342Q336 342 376 345T461 365L469 369L477 365Q527 346 567 337T649 328Q657 370 661 417T666 514Q666 528 666 542T664 571H653Q627
571 598 567T528 551H514Q482 557 458 563T415 574T379 583T344 586Q321 586 294 580T227 563L217 559L207 563Q206 564 192 572T160 601T128 654T113 737Q113 745 113 752T115 766Q90 786 80 806T70 829L66 838L70 848Q87 897 96 969T106 1116Q106 1166 102 1212T86
1298L82 1311L90 1321Q91 1322 100 1333T130 1358T180 1383T252 1395Q286 1395 312 1387T358 1366Q370 1366 388 1367T427 1371T469 1382T508 1401H524Q568 1390 600 1384T659 1378Q697 1378 734 1389T827 1421L840 1427L852 1421Q853 1420 865 1411T892 1384T921
1335T940 1262Q940 1254 941 1248T942 1235Q942 1198 933 1170T912 1121T891 1090T879 1077L868 1069L856 1071Q813 1080 782 1085T725 1090Q690 1090 656 1081T571 1051L559 1049Q514 1058 480 1060T420 1063Q414 1063 408 1063T395 1061Q395 967 412 891Q432
891 456 894T510 905H526Q580 884 617 873T690 862Q719 862 751 868T829 887L842 889L852 881Q853 880 861 873T879 850T900 813T915 760Q943 743 958 727T975 709L983 698L979 686Q965 638 959 581T952 467Q952 404 960 345T983 240L985 231Z" />
<glyph unicode="6" glyph-name="six" horiz-adv-x="1067" d="M920 170L911 158L899 156Q845 147 786 127T670 79T563 18T479 -49L461 -57Q458 -57 443 -57T407 -49T361 -25T311 23Q294 16 274 12T229 8Q175 8 136 19T70 48T27 85T3 121T-9 149T-12 160L-14 170L-8
178Q46 257 72 347T98 545V569L102 582Q144 662 163 743T182 907Q182 924 182 940T180 973L178 981L184 989Q285 1139 285 1313Q285 1327 285 1341T283 1370L281 1384L291 1393Q292 1394 300 1399T325 1412T365 1424T420 1430Q484 1430 528 1411T600 1368T641 1326T655
1305L662 1292L653 1280Q559 1125 559 965V938Q609 866 668 821T807 750L815 748L821 739Q851 696 876 668T929 621T989 587T1065 559L1077 555L1081 543Q1081 541 1083 530T1085 498Q1085 472 1077 435T1040 356Q1017 321 990 301T940 268V262Q940 222 931 197T920
170ZM621 428L608 436Q574 480 540 511T471 563Q471 533 477 506L473 489Q447 446 428 402T397 311Q457 328 524 355T651 418L621 428Z" />
<glyph unicode="7" glyph-name="seven" horiz-adv-x="868" d="M887 1151L879 1141Q849 1099 829 1062T797 988T779 912T772 825L770 811Q741 767 722 729T690 654T672 580T666 502Q666 492 667 483T668 465V455L664 449Q543 284 543 84V45L537 37Q535 35 527 27T502
10T460 -6T401 -14Q343 -14 302 -1T233 33T189 76T165 119T155 151T152 160V170L158 176Q221 255 255 349T297 557V565L301 569Q329 615 348 655T377 736T392 818T397 911V922L403 928Q428 960 446 989T477 1047L446 1036L432 1034Q381 1044 343 1050T270 1057Q236
1057 202 1050T123 1024L113 1020L104 1022Q103 1022 86 1031T49 1062T13 1123T-4 1221Q-4 1266 10 1299T40 1355T71 1389T88 1401L96 1405L104 1403Q146 1389 177 1383T240 1376Q274 1376 312 1382T399 1405H416Q462 1389 500 1382T575 1374Q617 1374 659 1383T752
1411L764 1415L774 1407Q775 1406 786 1396T812 1366T838 1313T854 1235V1221V1208Q868 1191 874 1179T883 1165L887 1151Z" />
<glyph unicode="8" glyph-name="eight" horiz-adv-x="1081" d="M1020 1032L1010 1022Q974 985 940 936T878 834T830 728T801 629V618L793 612L791 610L799 604L807 590Q835 485 892 400T1034 246L1042 240L1044 231V215Q1044 213 1044 211T1042 205Q1046 194 1048
182T1051 156V141Q1051 100 1041 71T1017 24T992 -2T979 -12L969 -20L956 -18Q930 -10 908 -5T864 2Q852 0 840 -1T813 -2Q791 -2 776 1T748 10Q729 5 711 1T672 -12H657Q615 -4 577 1T500 6Q447 6 396 -3T289 -33L281 -37L270 -33Q269 -33 259 -30T234 -17T205
11T178 59Q126 68 94 94T45 150T22 206T16 242V258L25 272Q56 301 91 346T159 445T217 554T254 662L256 676L266 680Q271 682 278 685Q284 687 292 689T311 694L274 727L266 741Q241 845 191 927T59 1079L51 1087V1100Q51 1102 56 1126T84 1184Q82 1195 81 1207T80
1235Q80 1287 94 1318T126 1367T159 1390T176 1397L184 1401L195 1397Q235 1383 273 1377T352 1370Q396 1370 445 1376T545 1399H563Q611 1383 651 1375T731 1366Q771 1366 812 1375T905 1403L918 1407L930 1399Q931 1398 942 1392T968 1368T995 1322T1010 1247Q1010
1204 1002 1175T981 1126Q991 1111 998 1096T1009 1069T1016 1050T1018 1044L1020 1032ZM590 1069H575Q541 1075 509 1080T446 1087Q469 1049 498 1014T563 950L571 940L582 907Q613 951 640 998T688 1096Q644 1087 590 1069ZM508 389L502 399L489 432Q465 400
444 364T403 289H434Q469 289 507 293T584 305Q567 327 548 348T508 389Z" />
<glyph unicode="9" glyph-name="nine" horiz-adv-x="1024" d="M1055 1169L1044 1159Q908 1002 893 817L887 803Q818 712 781 619T739 426V418L733 410Q661 329 623 234T578 29V18L571 12Q569 10 561 4T539 -9T503 -21T455 -27Q432 -27 404 -22T344 -4Q290 18 261
47T218 102T202 147T199 168V178L205 184Q268 249 309 328T371 506Q344 550 306 595T224 680T136 754T51 809L41 813L37 821Q35 823 30 838T25 879Q25 896 28 915T43 958Q37 968 33 980T23 1006Q13 1030 10 1053T6 1096Q6 1127 13 1150T30 1190T47 1214T57 1223L66
1229H74Q120 1229 158 1234T232 1250T302 1278T373 1321L379 1325H389Q441 1325 479 1329T549 1344T611 1372T678 1415L688 1423L700 1419Q701 1419 709 1416T730 1405T758 1384T788 1350H795Q844 1350 882 1338T949 1306T997 1265T1029 1225T1046 1194T1051 1182L1055
1169ZM522 981L516 975H508Q427 975 367 956Q396 918 432 881T506 811Q514 842 518 873T526 936V944L532 950Q549 969 564 988T594 1028Q578 1019 561 1008T522 981Z" />
<glyph unicode=":" glyph-name="colon" horiz-adv-x="502" d="M416 238L412 223Q401 192 396 166T391 115Q391 96 393 81T401 49L406 37L397 27Q371 -1 333 -16T252 -31Q207 -31 169 -16T106 27L96 37L100 49Q113 82 113 121Q113 168 92 221L86 236L96 246Q124
272 163 286T250 301Q295 301 336 287T406 248L416 238ZM416 995L412 981Q401 950 396 924T391 872Q391 854 393 838T401 807L406 795L397 784Q371 757 333 742T252 727Q207 727 169 742T106 784L96 795L100 807Q113 839 113 879Q113 926 92 979L86 993L96 1004Q124
1030 163 1044T250 1059Q295 1059 336 1045T406 1006L416 995Z" />
<glyph unicode=";" glyph-name="semicolon" horiz-adv-x="553" d="M471 66V53L461 45Q379 -18 328 -86T246 -242L244 -250L236 -256Q234 -258 214 -264T164 -270Q127 -270 99 -257T51 -225T16 -181T-7 -136T-19 -97T-23 -74Q-23 -60 -21 -53T-18 -43L-16 -35L-8
-29Q27 -5 56 23T110 85T155 160T195 250L201 262L211 266Q213 266 224 269T256 272Q305 272 340 257T399 218T437 167T459 116T469 79T471 66ZM471 995L467 981Q446 919 446 872Q446 854 449 838T457 807L461 795L453 784Q427 757 389 742T307 727Q262 727 225
742T162 784L152 795L156 807Q168 840 168 879Q168 902 163 927T147 979L141 993L152 1004Q179 1030 219 1044T305 1059Q350 1059 391 1045T461 1006L471 995Z" />
<glyph unicode="&lt;" glyph-name="less" horiz-adv-x="913" d="M840 461Q840 459 845 442T850 397Q850 347 836 310T799 244T752 198T705 168T669 153T657 150L643 147L635 158Q600 196 575 220T524 259T468 284T391 305L379 311Q342 348 311 374T246 418T176
448T90 469L80 471L74 477Q73 478 69 484T60 503T51 533T47 573Q47 602 55 633T86 705Q71 729 61 758T51 825Q51 843 54 858T62 883T71 900T76 907L80 915L90 918Q171 938 240 979T352 1085L367 1094Q418 1107 453 1121T517 1154T569 1198T623 1260L631 1270L643
1268Q644 1268 659 1266T698 1254T749 1223T803 1165Q832 1125 841 1088T850 1022Q850 999 847 985T844 969L840 956L825 952Q776 937 744 925T688 896T641 857T588 797L584 791L575 788Q569 785 562 783T547 778Q500 760 466 742T403 700Q435 680 475 662T549
643L557 641L563 633Q597 593 625 567T682 524T744 496T821 475L836 473L840 461Z" />
<glyph unicode="=" glyph-name="equal" horiz-adv-x="993" d="M922 993Q922 947 911 913T885 855T859 820T846 807L836 799L821 801Q770 816 737 823T672 831Q643 831 612 825T537 805L524 803Q487 818 443 822T367 827Q326 827 286 818T195 791H176Q174 792 158
801T123 834T88 895T72 993Q72 1048 87 1083T120 1140T154 1170T172 1180L180 1184L190 1180Q234 1164 271 1158T346 1151Q383 1151 420 1157T502 1174L510 1178L518 1174Q568 1157 605 1149T676 1141Q710 1141 744 1148T821 1169L834 1174L844 1167Q845 1166 857
1156T883 1125T908 1071T922 993ZM922 481Q922 435 911 401T885 343T859 308T846 295L836 287L821 289Q770 304 737 311T672 319Q643 319 612 313T537 293L524 291Q487 306 443 310T367 315Q326 315 286 306T195 279H176Q174 280 158 289T123 322T88 383T72 481Q72
536 87 571T120 628T154 658T172 668L180 672L190 668Q234 652 271 646T346 639Q383 639 420 645T502 662L510 666L518 662Q568 645 605 637T676 629Q710 629 744 636T821 657L834 662L844 655Q845 654 857 644T883 613T908 559T922 481Z" />
<glyph unicode="&gt;" glyph-name="greater" horiz-adv-x="913" d="M840 477L834 471L823 469Q778 460 744 450T679 423T621 386T559 334Q553 328 548 323T537 311L524 305Q478 294 447 284T391 259T340 220T281 158L270 147L258 150Q259 149 245 153T210 169T162
198T114 244T78 309T63 397Q63 425 68 442T74 461L80 473L92 475Q136 485 169 496T232 524T289 567T352 633L358 641L367 643Q382 643 400 648T437 661T474 679T508 698Q474 726 435 745T338 788L326 797Q297 834 275 857T228 896T171 924T88 952L76 956L72 969Q70
971 67 985T63 1024Q63 1077 79 1115T119 1181T171 1225T222 1251T259 1264T270 1268L285 1270L293 1260Q321 1224 345 1199T397 1154T460 1121T547 1094L557 1092L561 1085Q604 1020 674 979T825 918L834 915L840 907Q840 906 843 900T851 884T858 858T862 823Q862
788 853 759T827 705Q849 667 857 632T866 571Q866 550 862 533T854 503T845 485T840 477Z" />
<glyph unicode="?" glyph-name="question" horiz-adv-x="932" d="M881 864L877 852L862 848Q814 833 762 808T661 750T569 683T496 612Q494 597 494 581T494 551Q494 529 496 509T504 469L508 457L500 446Q499 444 490 433T461 408T410 385T336 375Q295 375 265
387T214 413T184 440T172 453L164 465L168 477Q182 506 187 535T193 592Q193 626 186 657T170 721V739Q171 740 175 749T190 771T215 796T254 821Q259 853 270 872T283 893L289 901L297 903Q334 911 377 929T467 973H451L436 977Q401 1004 367 1021T298 1049T227
1063T152 1067H111L104 1073Q102 1074 94 1082T76 1106T59 1147T51 1206Q51 1262 64 1302T96 1368T138 1410T179 1432T209 1442T219 1444H229L236 1438Q305 1385 377 1360T530 1335L547 1331Q588 1299 621 1280T686 1250T754 1236T834 1233H848L854 1223Q855 1221
860 1214T870 1192T880 1157T885 1112Q885 1074 872 1032Q870 1029 870 1027T868 1022Q881 996 886 972T891 928Q891 900 886 883T881 864ZM479 238L475 223Q464 192 460 165T455 113Q455 96 457 81T465 49L469 37L459 27Q434 -1 396 -16T313 -31Q270 -31 232 -16T168
27L160 37L164 49Q170 66 172 83T174 117Q174 168 154 221L150 236L160 246Q188 272 227 286T311 301Q358 301 398 287T467 248L479 238Z" />
<glyph unicode="@" glyph-name="at" horiz-adv-x="1663" d="M1151 985Q1151 973 1150 962T1147 942Q1164 925 1172 911T1180 895L1184 889L1180 881Q1169 843 1162 791T1155 682Q1155 653 1156 624T1163 569Q1166 569 1170 570T1180 573L1194 571Q1209 565 1226
560T1260 550T1293 541T1321 532Q1318 568 1306 604T1268 696L1266 709Q1265 757 1263 789T1253 848T1232 902T1198 969L1194 975L1196 983Q1198 1006 1199 1025T1200 1063Q1200 1095 1195 1123T1178 1182Q1140 1188 1106 1188Q1074 1188 1042 1183T975 1167H963Q915
1181 874 1187T795 1194Q754 1194 717 1188T637 1165L631 1161L623 1165Q578 1182 538 1191T457 1200Q423 1200 389 1194Q384 1166 382 1140T379 1090Q379 1054 384 1018T401 944V932Q387 879 380 835T373 748Q373 704 380 662T403 573L406 565L403 557Q386 508
378 463T369 373Q369 348 370 325T377 276Q420 255 463 248T557 240L563 242L569 238Q599 217 623 204T669 182T714 171T764 168Q773 168 782 169T801 170H811L817 162Q818 161 822 155T832 136T841 107T846 66Q846 42 840 14Q831 -21 815 -45T784 -85T756 -106T743
-113L733 -117L723 -111Q693 -92 671 -80T630 -61T591 -52T545 -49H508L496 -47Q442 -12 394 1T295 14Q283 14 271 14T244 12L236 10L229 16Q226 18 211 34T186 84Q154 91 133 107T98 139T80 167T74 182L70 190L74 199Q94 251 104 300T115 401Q115 437 109 475T94
557L96 569Q121 663 121 743Q121 828 90 922L88 930L92 938Q112 991 121 1038T131 1133Q131 1210 106 1294L104 1307L111 1317Q112 1318 116 1325T129 1341T155 1360T195 1376Q201 1409 215 1431T243 1468T269 1488T283 1495H299Q347 1473 390 1464T481 1454Q544
1454 623 1473H633Q717 1448 791 1448Q831 1448 870 1454T952 1477H967Q1016 1457 1060 1447T1149 1436Q1184 1436 1219 1442T1292 1460L1303 1464L1311 1456Q1312 1455 1318 1451T1333 1438T1351 1412T1366 1372Q1389 1364 1403 1354T1419 1343L1427 1335V1323Q1425
1304 1425 1288T1425 1257Q1425 1229 1427 1206T1436 1161T1453 1115T1479 1061L1483 1049Q1483 996 1485 963T1494 902T1514 847T1550 780L1554 774L1552 766Q1550 750 1550 737T1550 711Q1550 678 1553 652T1565 600T1586 547T1620 483L1624 475V467Q1624 468
1622 458T1612 431T1590 397T1554 365Q1549 333 1537 310T1511 272T1487 249T1475 240L1464 233L1454 240Q1426 249 1404 255T1362 266T1324 273T1288 276Q1267 276 1243 273T1186 264L1174 266Q1118 283 1084 291T1018 299Q992 299 964 294T895 279L887 276L881
281Q828 299 792 308T721 317Q692 317 661 312T588 297L578 295L569 299Q568 300 557 306T532 328T505 367T487 428Q469 438 456 450T435 474T424 492T420 502L416 510L420 520Q438 551 452 590T476 670T492 752T498 829Q498 840 497 849T496 868L500 883L504 887Q493
904 486 928T479 987Q479 1026 491 1052T517 1093T544 1114T557 1120L565 1124L571 1122Q605 1110 636 1105T696 1100Q725 1100 756 1103T819 1118H831Q870 1104 900 1099T956 1094Q984 1094 1011 1098T1073 1114L1083 1118L1092 1112Q1093 1112 1102 1105T1121
1082T1141 1042T1151 985ZM778 813L774 805Q762 786 750 761T727 708T707 650T692 588Q715 580 737 577T786 573Q808 573 835 576T897 584H907H909V633Q909 693 902 752T881 856L848 848H836Q817 853 798 855T760 860Q765 852 767 845T772 832Q774 825 776 819L778
813Z" />
<glyph unicode="A" glyph-name="A" horiz-adv-x="1040" d="M1069 522Q1075 489 1075 461Q1075 430 1069 406T1056 364T1042 336T1034 324L1026 313L1012 315Q998 317 984 317T956 317Q970 268 991 222T1038 133L1049 117L1036 102Q1035 101 1026 92T997 70T949
43T879 20Q860 15 842 13T805 10Q779 10 758 14T721 23T698 33T688 37L674 45L676 61Q676 74 677 86T678 111Q678 180 666 248Q662 244 659 244L645 240Q582 240 516 232T385 203V172Q385 129 391 86L393 76L387 68Q386 67 377 57T349 35T301 14T231 4Q151 4 105
27T33 79Q4 112 -6 154L-8 162L-2 170Q49 248 73 336T98 528V563L102 575Q141 653 159 730T178 887Q178 907 177 927T174 967L172 977L178 985Q274 1132 274 1303Q274 1318 273 1334T270 1368V1380L279 1389Q280 1390 289 1396T316 1410T357 1424T414 1430Q476
1430 519 1411T590 1369T629 1327T643 1307L649 1294L643 1282Q639 1278 639 1276H653Q697 1276 722 1270T750 1264L762 1255L760 1241Q758 1229 758 1218T758 1194Q758 1016 842 868L846 856V829Q846 777 850 730T866 639Q886 647 905 656T942 676L952 682L965
678Q966 677 978 669T1007 643T1041 596T1069 522ZM530 778L516 825Q493 765 482 706T471 590V563Q514 578 553 598L569 602Q576 600 583 599T596 598Q585 641 569 685T530 778Z" />
<glyph unicode="B" glyph-name="B" horiz-adv-x="1092" d="M1028 844L1024 831L1012 827Q881 791 784 717Q835 672 893 641T1020 592L1032 588L1038 575Q1038 573 1041 559T1044 522Q1044 502 1042 486T1034 455Q1051 424 1058 391T1065 334Q1065 294 1057 269T1047
242L1040 231L1026 229Q822 205 682 80L670 74Q620 64 578 53T497 24T422 -17T350 -76L332 -84Q330 -84 316 -83T281 -73T234 -47T184 4Q148 13 125 28T87 59T67 86T61 100L57 111L61 119Q84 175 95 232T106 352Q106 394 102 436T86 524V537Q98 586 105 633T113
729Q113 783 104 834T80 936L78 944L82 952Q125 1062 125 1171Q125 1215 119 1258T98 1346L94 1358L102 1368Q103 1369 110 1376T131 1394T167 1415T219 1432Q239 1464 264 1482T311 1510T348 1521T362 1524H373L381 1518Q413 1489 445 1468T511 1432T585 1406T670
1386Q675 1384 680 1384T690 1384H698L707 1378Q747 1344 783 1320T859 1279T941 1253T1036 1241H1049L1057 1229Q1057 1228 1060 1221T1068 1201T1075 1170T1079 1130Q1079 1110 1076 1088T1063 1040Q1048 999 1028 973Q1033 954 1035 938T1038 907Q1038 879 1033
863T1028 844ZM590 1026L578 1032Q539 1054 506 1073T442 1106Q442 1069 448 1033T465 961V946Q460 928 456 911T449 877L477 905L483 913L492 915Q550 929 602 951T702 1008Q651 1020 590 1026ZM461 508Q436 433 430 356Q444 364 457 372T485 391L500 403L506
410L516 412Q548 414 580 419T645 434Q579 471 506 496L494 502L477 518Q472 516 469 514T461 508Z" />
<glyph unicode="C" glyph-name="C" horiz-adv-x="1055" d="M512 913L510 907Q481 839 468 784T455 674Q455 642 459 610T471 543L473 535L469 526Q440 469 425 425T406 332Q426 335 442 339T473 348T505 360T543 373Q548 375 552 376T561 381L569 385L578 383Q612
375 642 372T700 369Q757 369 811 383T930 428L942 434L952 428Q953 427 966 418T995 390T1028 340T1051 264Q1053 253 1053 243T1053 223Q1053 188 1045 160T1027 113T1009 82T999 70L989 59L977 63Q946 68 918 71T864 74Q805 74 755 60T645 18L637 14L631 16Q608
16 586 18T543 20Q468 20 397 3T258 -49L248 -53L240 -51Q243 -52 225 -45T183 -20T137 31T109 115Q82 130 65 147T37 180T22 205T18 217L16 227L20 236Q39 270 53 300T76 358T89 416T94 481Q94 522 88 573L90 586Q116 649 128 703T141 811Q141 842 137 874T127
942L125 952L129 958Q152 1003 167 1040T190 1116Q175 1136 165 1169T154 1251Q154 1315 170 1355T207 1419T245 1450T264 1458L274 1462L283 1458Q335 1432 388 1421T500 1409Q524 1409 556 1409T614 1419L623 1421L631 1417Q690 1391 738 1378T838 1364Q869 1364
900 1368T967 1382L979 1384L987 1376Q988 1375 998 1365T1018 1335T1038 1285T1047 1212V1196Q1044 1151 1031 1118T1002 1063T975 1030T961 1018L948 1010L936 1014Q877 1039 831 1051T737 1063Q709 1063 681 1059T621 1047L606 1049Q577 1054 553 1060T504 1073Q502
1058 502 1044T502 1016Q502 994 504 971T512 922V913Z" />
<glyph unicode="D" glyph-name="D" horiz-adv-x="1065" d="M1085 586L1083 571L1071 565Q980 516 915 451T807 301L805 293L799 291Q759 267 717 233T637 159T567 73T514 -18L510 -27L500 -31Q498 -33 484 -37T446 -41Q423 -41 393 -32T328 0Q312 -3 296 -5T260
-8Q201 -8 163 8T102 43T70 79T61 98L57 106L61 117Q84 172 95 230T106 348Q106 390 102 433T86 522V535Q98 584 105 631T113 727Q113 780 104 831T80 932L78 942L82 950Q104 1004 114 1058T125 1167Q125 1211 119 1254T98 1343L94 1356L102 1366Q103 1367 114
1378T147 1403T204 1427T285 1438H305Q342 1467 374 1476T432 1485Q454 1485 467 1482T483 1479L492 1475L496 1464Q514 1426 543 1388T607 1314T681 1246T760 1188L778 1180L786 1176L791 1167Q837 1073 905 1004T1067 887L1079 883L1081 868Q1081 866 1082 863Q1082
861 1082 858T1083 850Q1083 831 1075 798T1042 727Q1057 706 1065 686T1078 649T1084 617T1085 596V586ZM471 530L467 522Q459 501 453 480T442 436Q464 465 485 491T518 532L522 541L530 545Q659 610 745 721Q703 775 654 816T545 889L535 899Q516 924 496 949T455
999Q457 988 459 979T465 958V944Q434 835 434 735Q434 684 442 636T467 539L471 530Z" />
<glyph unicode="E" glyph-name="E" horiz-adv-x="1004" d="M809 707Q809 662 797 629T770 572T743 537T729 524L719 516L705 520Q649 539 607 548T522 557Q491 557 461 551L467 539L471 530L467 522Q443 454 434 387Q450 391 470 394T508 399T538 402T551 403L559
406L567 401Q624 378 664 366T745 354Q773 354 806 360T881 377L893 381L903 373Q904 371 914 361T937 329T959 275T969 197Q968 152 955 119T927 64T899 29T885 16L872 10L860 14Q801 36 762 45T686 55Q660 55 632 51T567 37H553Q525 42 498 48T442 61Q432 50
417 38T379 15T327 -1T260 -8Q201 -8 163 8T102 43T70 79T61 98L57 106L61 117Q84 172 95 230T106 348Q106 390 102 433T86 522V535Q98 584 105 631T113 727Q113 780 104 831T80 932L78 942L82 950Q104 1004 114 1058T125 1167Q125 1211 119 1254T98 1343L94 1356L102
1366Q103 1367 114 1378T147 1403T204 1427T285 1438Q339 1438 377 1423T438 1391Q467 1394 499 1400T563 1417L571 1421L582 1419Q630 1404 665 1397T733 1389Q768 1389 806 1398T895 1425L907 1430L918 1423Q919 1422 931 1412T957 1382T983 1330T999 1253V1235Q999
1195 989 1164T967 1112T944 1079T932 1067L922 1059L907 1063Q859 1074 825 1079T762 1085Q728 1085 695 1078T614 1055L600 1053Q558 1061 520 1065T442 1069Q445 1041 450 1014T465 958V944Q459 926 456 909T449 872Q478 864 503 861T557 858Q594 858 632 864T715
885L727 889L737 881Q738 880 749 870T774 838T798 784T809 707Z" />
<glyph unicode="F" glyph-name="F" horiz-adv-x="973" d="M809 707Q809 662 797 629T770 572T743 537T729 524L719 516L705 520Q649 539 607 548T522 557Q491 557 461 551L467 539L471 530L467 522Q430 420 430 313Q430 262 438 212T465 111L469 100L465 92Q464
90 454 75T421 41T359 7T260 -8Q201 -8 163 8T102 43T70 79T61 98L57 106L61 117Q84 172 95 230T106 348Q106 390 102 433T86 522V535Q98 584 105 631T113 727Q113 780 104 831T80 932L78 942L82 950Q104 1004 114 1058T125 1167Q125 1211 119 1254T98 1343L94
1356L102 1366Q103 1367 114 1378T147 1403T204 1427T285 1438Q339 1438 377 1423T438 1391Q467 1394 499 1400T563 1417L571 1421L582 1419Q630 1404 665 1397T733 1389Q768 1389 806 1398T895 1425L907 1430L918 1423Q919 1422 931 1412T957 1382T983 1330T999
1253V1235Q999 1195 989 1164T967 1112T944 1079T932 1067L922 1059L907 1063Q859 1074 825 1079T762 1085Q728 1085 695 1078T614 1055L600 1053Q558 1061 520 1065T442 1069Q445 1041 450 1014T465 958V944Q459 926 456 909T449 872Q478 864 503 861T557 858Q594
858 632 864T715 885L727 889L737 881Q738 880 749 870T774 838T798 784T809 707Z" />
<glyph unicode="G" glyph-name="G" horiz-adv-x="1141" d="M512 913L510 907Q481 839 468 784T455 674Q455 642 459 610T471 543L473 535L469 526Q440 469 425 425T406 332Q426 335 442 339T473 348T505 360T543 373Q548 375 552 376T561 381L569 385L578 383Q610
375 639 372T696 369H735Q733 378 731 387T725 408V424Q739 467 745 502T752 571Q752 610 743 649T713 739L709 752L715 762Q715 763 726 776T760 804T821 833T909 846Q948 846 978 837T1030 817T1062 795T1075 784L1083 776L1079 764Q1068 721 1063 687T1057 621Q1057
583 1066 547T1094 465V451Q1086 412 1083 378T1079 315Q1079 270 1089 227T1122 131L1126 123L1124 113Q1123 112 1114 95T1080 56T1013 18T905 0Q873 0 848 6T805 20T773 39T752 59Q726 51 700 41T645 18L637 14L631 16Q608 16 586 18T543 20Q468 20 397 3T258
-49L248 -53L240 -51Q243 -52 225 -45T183 -20T137 31T109 115Q82 130 65 147T37 180T22 205T18 217L16 227L20 236Q39 270 53 300T76 358T89 416T94 481Q94 522 88 573L90 586Q116 649 128 703T141 811Q141 842 137 874T127 942L125 952L129 958Q152 1003 167
1040T190 1116Q175 1136 165 1169T154 1251Q154 1315 170 1355T207 1419T245 1450T264 1458L274 1462L283 1458Q335 1432 388 1421T500 1409Q524 1409 556 1409T614 1419L623 1421L631 1417Q690 1391 738 1378T838 1364Q869 1364 900 1368T967 1382L979 1384L987
1376Q988 1375 998 1365T1018 1335T1038 1285T1047 1212V1196Q1044 1151 1031 1118T1002 1063T975 1030T961 1018L948 1010L936 1014Q877 1039 831 1051T737 1063Q709 1063 681 1059T621 1047L606 1049Q577 1054 553 1060T504 1073Q502 1058 502 1044T502 1016Q502
994 504 971T512 922V913Z" />
<glyph unicode="H" glyph-name="H" horiz-adv-x="1253" d="M1245 637Q1247 625 1248 614T1249 590Q1249 560 1244 533T1231 484T1219 449T1212 434L1204 420Q1189 422 1172 423T1135 424Q1127 424 1120 424T1104 422Q1101 402 1101 381T1100 340Q1100 283 1108
227T1128 123L1130 115L1126 106Q1125 104 1114 87T1080 51T1018 16T926 0Q871 0 833 14T770 45T734 77T721 94L715 104L719 115Q737 164 749 225T764 342Q734 336 704 327T647 306T597 284T555 262L543 258Q523 258 494 257T436 256Q441 205 449 168T465 113L469
102L465 94Q464 92 454 77T421 43T359 11T260 -4Q201 -4 163 11T102 46T70 82T61 100L57 111L61 119Q84 175 95 232T106 352Q106 394 102 436T86 524V537Q98 586 105 633T113 729Q113 783 104 834T80 936L78 944L82 952Q125 1062 125 1171Q125 1215 119 1258T98
1346L94 1358L102 1368Q103 1369 114 1380T147 1405T204 1429T285 1440Q333 1440 368 1428T426 1400T462 1372T475 1358L485 1348L479 1335Q461 1280 452 1228T442 1122Q442 1080 447 1041T465 961V946Q451 898 445 854T438 764Q438 721 443 676T459 578L492 596L506
598Q511 597 519 596Q526 595 535 595T557 594Q594 594 649 604T770 649Q772 668 773 687T774 725Q774 781 766 833T745 930V946Q776 1038 776 1128Q776 1181 767 1231T737 1333L731 1346L737 1356Q738 1357 749 1372T783 1404T842 1436T930 1450Q981 1450 1020
1436T1086 1406T1127 1375T1143 1360L1153 1348L1149 1335Q1127 1275 1118 1217T1108 1102Q1108 1062 1112 1022T1128 944V930Q1116 895 1107 856T1096 768Q1102 773 1108 777T1120 788L1130 784Q1132 783 1147 777T1182 754T1219 709T1245 637Z" />
<glyph unicode="I" glyph-name="I" horiz-adv-x="545" d="M485 1348L479 1335Q461 1280 452 1228T442 1122Q442 1080 447 1041T465 961V946Q434 837 434 737Q434 686 442 638T467 541L471 532L467 524Q448 473 439 422T430 317Q430 265 438 215T465 113L469 102L465
94Q464 92 454 77T421 43T359 11T260 -4Q201 -4 163 11T102 46T70 82T61 100L57 111L61 119Q84 175 95 232T106 352Q106 394 102 436T86 524V537Q98 586 105 633T113 729Q113 783 104 834T80 936L78 944L82 952Q125 1062 125 1171Q125 1215 119 1258T98 1346L94
1358L102 1368Q103 1369 114 1380T147 1405T204 1429T285 1440Q333 1440 368 1428T426 1400T462 1372T475 1358L485 1348Z" />
<glyph unicode="J" glyph-name="J" horiz-adv-x="993" d="M938 1346L932 1333Q913 1278 904 1225T895 1120Q895 1078 900 1039T918 958V944Q887 835 887 735Q887 684 895 636T920 539L924 530L920 522Q883 420 883 313Q883 262 891 212T918 111L920 100L915 92Q915
90 906 75T873 41T811 7T713 -8Q693 -8 675 -6T641 0Q639 -2 637 -3T633 -8Q589 -46 552 -60T483 -74Q455 -74 439 -68T420 -59L412 -55L408 -45Q393 -5 376 30T335 97T281 158T209 215L201 219L199 227Q179 276 159 313T114 380T55 437T-23 492L-33 498L-35 512Q-35
515 -35 530T-27 570T-2 623T49 682Q72 703 95 715T140 735T179 745T211 748Q223 748 230 747T240 745L254 741L258 729Q279 681 299 646T344 583T398 531T469 481L477 471Q500 431 518 400T557 340V346Q557 430 539 522V535Q551 584 558 631T565 727Q565 780 557
831T532 932L530 942L535 950Q556 1004 567 1058T578 1167Q578 1254 551 1343L547 1356L555 1366Q556 1367 567 1378T600 1403T656 1427T737 1438Q785 1438 820 1426T879 1398T915 1370T928 1356L938 1346Z" />
<glyph unicode="K" glyph-name="K" horiz-adv-x="1110" d="M1067 180Q1067 178 1065 160T1049 117T1008 62T928 10Q897 -4 872 -9T823 -14Q796 -14 775 -8T740 6T718 20T709 29L702 35L700 45Q698 88 692 123T674 192T644 260T600 334L580 354V365Q578 391 575
418T565 471Q485 412 430 336V313Q430 262 438 212T465 111L469 100L465 92Q464 90 454 75T421 41T359 7T260 -8Q201 -8 163 8T102 43T70 79T61 98L57 106L61 117Q84 172 95 230T106 348Q106 390 102 433T86 522V535Q98 584 105 631T113 727Q113 780 104 831T80
932L78 942L82 950Q104 1004 114 1058T125 1167Q125 1211 119 1254T98 1343L94 1356L102 1366Q103 1367 114 1378T147 1403T204 1427T285 1438Q333 1438 368 1426T426 1398T462 1370T475 1356L485 1346L479 1333Q461 1278 452 1225T442 1120Q442 1078 447 1039T465
958V944Q459 924 455 905T446 866Q485 911 513 960T563 1065L567 1073L575 1077Q666 1130 730 1202T834 1374L840 1386L852 1389Q854 1389 861 1391T881 1393Q907 1393 948 1381T1038 1331Q1075 1301 1095 1270T1124 1212T1135 1168T1137 1149V1135L1124 1126Q1036
1071 976 1002T881 844L870 834Q849 818 829 802T791 768Q808 697 838 637T915 522L920 510Q930 459 940 418T965 340T1003 270T1059 199L1067 190V180Z" />
<glyph unicode="L" glyph-name="L" horiz-adv-x="958" d="M999 195Q999 150 987 116T960 59T932 24T918 10L907 2L895 6Q788 43 686 43Q601 43 520 18H506Q486 25 462 29T414 39Q389 22 353 9T260 -4Q201 -4 163 11T102 46T70 82T61 100L57 111L61 119Q84 175
95 232T106 352Q106 394 102 436T86 524V537Q98 586 105 633T113 729Q113 783 104 834T80 936L78 944L82 952Q125 1062 125 1171Q125 1215 119 1258T98 1346L94 1358L102 1368Q103 1369 114 1380T147 1405T204 1429T285 1440Q333 1440 368 1428T426 1400T462 1372T475
1358L485 1348L479 1335Q461 1280 452 1228T442 1122Q442 1080 447 1041T465 961V946Q434 837 434 737Q434 686 442 638T467 541L471 532L467 524Q453 489 445 453T432 379Q442 381 453 382T473 386Q484 388 494 389L502 393L510 389Q564 369 617 359T727 348Q770
348 814 354T903 375L918 379L928 371Q929 370 940 360T963 328T987 273T999 195Z" />
<glyph unicode="M" glyph-name="M" horiz-adv-x="1503" d="M997 133L985 117Q986 118 972 102T927 66T850 29T743 12Q697 12 670 21T639 33L625 39L627 55Q627 143 609 226T549 395L547 406Q544 484 523 562T461 723Q456 695 455 669T453 614Q453 588 454 563T461
512L463 504L459 496Q383 357 383 205Q383 177 385 148T393 90L395 80L389 72Q388 70 379 59T351 35T300 11T225 0Q187 0 157 6T104 22T63 44T33 70Q4 101 -8 141L-10 150L-6 158Q84 306 84 494Q84 509 84 524T82 555L84 567Q116 642 133 715T150 862Q150 887 147
912T141 963L139 971L143 979Q227 1120 227 1276Q227 1317 221 1364L219 1378L229 1386Q230 1387 239 1394T267 1410T311 1425T373 1432Q432 1432 474 1415T543 1377T582 1338T596 1319L604 1307L598 1294L586 1274Q606 1269 618 1265T633 1260L645 1251V1237Q645
1135 670 1045T748 870L752 858Q752 792 764 731Q779 781 787 831T795 932Q795 944 795 956T793 983L791 991L797 999Q851 1078 877 1161T903 1339V1378L901 1391L911 1399Q912 1400 920 1405T945 1418T984 1430T1036 1436Q1101 1436 1146 1416T1219 1372T1260
1327T1274 1305L1280 1292L1272 1280L1262 1266Q1282 1258 1292 1252T1305 1245L1317 1235L1315 1221Q1312 1196 1310 1172T1307 1122Q1307 1050 1323 980T1370 844L1372 829Q1369 808 1369 787T1368 743Q1368 588 1432 457L1436 453V444Q1436 435 1435 427T1434
410Q1434 246 1516 96L1524 80L1511 68Q1512 69 1498 57T1456 30T1387 3T1294 -10Q1263 -10 1238 -5T1196 7T1168 20T1157 27L1145 35L1147 51Q1152 77 1153 103T1155 156Q1155 272 1112 397V408Q1114 422 1114 436T1114 465Q1114 571 1083 680Q1078 654 1077 628T1075
575Q1075 558 1076 543T1079 510L1075 494Q975 340 975 162Q977 157 979 154T985 147L997 133Z" />
<glyph unicode="N" glyph-name="N" horiz-adv-x="1225" d="M1167 1343L1163 1331Q1145 1275 1135 1222T1124 1116Q1124 1076 1130 1037T1149 956V942Q1118 836 1118 735Q1118 683 1126 634T1151 537V520Q1131 468 1122 415T1112 309Q1112 208 1147 109L1151 98L1147
90Q1146 88 1136 73T1103 39T1041 7T944 -8Q896 -8 862 1T805 27H795Q768 27 747 32T712 44T691 57T682 66L674 72V82Q669 184 632 277T524 461L520 471Q508 539 487 599T434 715Q436 668 443 624T467 537L471 528L467 520Q448 469 439 418T430 313Q430 261 438
211T465 109L469 98L465 90Q464 88 454 73T421 39T359 7T260 -8Q201 -8 163 7T102 42T70 78T61 96L57 106L61 115Q84 170 95 228T106 348Q106 390 102 432T86 520V532Q98 582 105 630T113 725Q113 779 104 830T80 932L78 940L82 948Q125 1058 125 1167Q125 1211
119 1253T98 1341L94 1354L102 1364Q103 1365 114 1376T147 1401T204 1425T285 1436Q330 1436 362 1426T418 1401H434Q476 1401 501 1392T528 1380L541 1374L543 1362Q564 1156 686 1016L692 1010V1004Q718 840 795 721V723Q795 777 787 828T764 932V948Q807 1058
807 1171Q807 1257 782 1341L778 1354L786 1364Q787 1365 798 1376T831 1401T888 1425T969 1436Q1016 1436 1051 1424T1110 1396T1146 1368T1159 1354L1167 1343Z" />
<glyph unicode="O" glyph-name="O" horiz-adv-x="1255" d="M1223 164L1219 154Q1219 153 1210 134T1175 93T1105 52T991 33Q946 33 915 43T862 70Q816 63 772 51T684 18L678 14L672 16Q647 16 625 18T578 20Q497 20 412 3T258 -49L248 -53L240 -51Q243 -52 225
-45T183 -20T137 31T109 115Q82 130 65 147T37 180T22 205T18 217L16 227L20 236Q39 270 53 300T76 358T89 416T94 481Q94 522 88 573L90 586Q116 649 128 703T141 811Q141 842 137 874T127 942L125 952L129 958Q152 1003 167 1040T190 1116Q175 1136 165 1169T154
1251Q154 1315 170 1355T207 1419T245 1450T264 1458L274 1462L283 1458Q335 1432 388 1421T500 1409Q524 1409 556 1409T614 1419L623 1421L631 1417Q685 1392 731 1379T823 1364Q848 1375 879 1384T950 1393Q990 1393 1021 1384T1073 1362T1106 1340T1120 1329L1130
1319L1126 1307Q1115 1263 1110 1224T1104 1147Q1104 1097 1114 1051T1145 954L1149 948L1147 940Q1141 902 1137 868T1133 799Q1133 734 1146 675T1188 555L1192 549L1188 539Q1177 495 1171 458T1165 385Q1165 332 1178 282T1219 172L1223 164ZM512 913L510 907Q481
839 468 784T455 674Q455 642 459 610T471 543L473 535L469 526Q440 468 425 424T406 332Q430 335 458 339T512 348T562 362T602 381L610 385L618 383Q653 375 686 372T752 369Q796 369 840 375Q835 404 828 435T809 502L807 514Q819 581 819 645Q819 710 806 769T766
891L762 899L764 909Q775 948 782 985T791 1059Q777 1061 764 1062T737 1063Q709 1063 681 1059T621 1047L606 1049Q577 1054 553 1060T504 1073Q502 1058 502 1044T502 1016Q502 994 504 971T512 922V913Z" />
<glyph unicode="P" glyph-name="P" horiz-adv-x="1051" d="M1040 821L1038 809L1026 805Q930 763 858 706T733 571L723 561Q686 546 646 521T567 465T492 399T428 326Q426 318 427 311T428 295Q428 242 436 192T463 90L467 80L463 72Q462 70 452 55T419 21T357
-12T258 -27Q199 -27 161 -11T100 24T68 59T59 78L55 88L59 96Q82 152 93 210T104 330Q104 372 100 414T84 502V514Q96 564 103 612T111 707Q111 761 102 811T78 913L76 922L80 930Q123 1040 123 1149Q123 1192 117 1235T96 1323L92 1335L100 1346Q101 1347 108
1354T129 1372T165 1393T217 1411Q236 1441 260 1458T305 1485T342 1497T360 1501H371L379 1495Q411 1466 443 1446T509 1410T583 1383T668 1364Q673 1364 678 1363T688 1362H696L705 1356Q745 1322 781 1298T857 1257T939 1231T1034 1219H1047L1055 1208Q1055
1206 1058 1199T1066 1180T1073 1150T1077 1110Q1077 1090 1074 1067T1061 1018Q1046 976 1026 948Q1037 922 1040 899T1044 858Q1044 843 1042 833T1040 821ZM588 1004L575 1010Q537 1031 504 1050T440 1083Q440 1046 446 1011T463 938V924Q438 839 432 758Q449
775 464 792T483 821L489 829L498 831Q630 881 725 977Q693 988 660 994T588 1004Z" />
<glyph unicode="Q" glyph-name="Q" horiz-adv-x="1255" d="M1223 164L1219 154Q1219 153 1210 134T1175 93T1105 52T991 33Q946 33 915 43T862 70Q845 67 829 65T797 57V45Q797 -6 808 -56T842 -158L846 -168L842 -176Q842 -177 833 -195T800 -234T734 -273T625
-291Q577 -291 545 -279T493 -251T465 -222T455 -207L451 -199L453 -188Q465 -151 470 -117T475 -47Q475 -32 474 -17T471 12Q414 4 359 -10T258 -49L248 -53L240 -51Q243 -52 225 -45T183 -20T137 31T109 115Q82 130 65 147T37 180T22 205T18 217L16 227L20 236Q39
270 53 300T76 358T89 416T94 481Q94 522 88 573L90 586Q116 649 128 703T141 811Q141 842 137 874T127 942L125 952L129 958Q152 1003 167 1040T190 1116Q175 1136 165 1169T154 1251Q154 1315 170 1355T207 1419T245 1450T264 1458L274 1462L283 1458Q335 1432
388 1421T500 1409Q524 1409 556 1409T614 1419L623 1421L631 1417Q685 1392 731 1379T823 1364Q848 1375 879 1384T950 1393Q990 1393 1021 1384T1073 1362T1106 1340T1120 1329L1130 1319L1126 1307Q1115 1263 1110 1224T1104 1147Q1104 1097 1114 1051T1145
954L1149 948L1147 940Q1141 902 1137 868T1133 799Q1133 734 1146 675T1188 555L1192 549L1188 539Q1177 495 1171 458T1165 385Q1165 332 1178 282T1219 172L1223 164ZM512 913L510 907Q481 839 468 784T455 674Q455 642 459 610T471 543L473 535L469 526Q440
468 425 424T406 332Q430 335 458 339T512 348T562 362T602 381L610 385L618 383Q653 375 686 372T752 369Q796 369 840 375Q835 404 828 435T809 502L807 514Q819 581 819 645Q819 710 806 769T766 891L762 899L764 909Q775 948 782 985T791 1059Q777 1061 764
1062T737 1063Q709 1063 681 1059T621 1047L606 1049Q577 1054 553 1060T504 1073Q502 1058 502 1044T502 1016Q502 994 504 971T512 922V913Z" />
<glyph unicode="R" glyph-name="R" horiz-adv-x="1090" d="M1040 809L1038 797L1026 791Q961 763 908 729T811 649Q828 603 855 567T926 489L932 479Q949 393 988 323T1096 195L1104 190V180Q1104 178 1103 161T1091 119T1056 65T987 10Q952 -10 922 -17T868 -25Q847
-25 831 -21T804 -12T787 -3T780 2L774 6L772 16Q767 55 757 89T730 155T693 218T645 281Q635 291 631 293L625 299V307Q617 354 607 390T578 459Q536 428 498 390T428 311Q426 303 427 296T428 281Q428 228 436 178T463 76L467 68L463 57Q462 55 452 40T419 6T357
-26T258 -41Q199 -41 161 -26T100 9T68 45T59 63L55 74L59 82Q82 138 93 195T104 315Q104 357 100 399T84 487V500Q96 549 103 597T111 692Q111 746 102 797T78 899L76 907L80 915Q123 1025 123 1135Q123 1180 117 1223T96 1311L92 1323L100 1333Q101 1334 108
1341T129 1359T165 1380T217 1397Q236 1427 260 1444T305 1471T342 1483T360 1487H371L379 1481Q408 1455 443 1431T517 1389T599 1361T688 1350L705 1343Q745 1308 781 1284T857 1243T939 1218T1034 1206L1047 1204L1055 1194Q1055 1192 1058 1185T1066 1166T1073
1136T1077 1096Q1077 1076 1074 1053T1061 1004Q1047 963 1026 936Q1037 910 1040 888T1044 848Q1044 831 1042 821T1040 809ZM588 991L575 995Q537 1017 504 1036T440 1071Q440 1034 446 998T463 924V909Q438 825 432 745Q448 761 461 777T483 807L498 819Q564
844 621 879T727 965Q665 985 588 991Z" />
<glyph unicode="S" glyph-name="S" horiz-adv-x="907" d="M909 295Q909 292 908 275T898 233T866 177T801 119Q790 96 779 83T766 68L758 57L743 59Q708 64 682 67T633 70Q610 70 590 67T550 58T507 43T457 20L442 18Q416 18 392 20T348 23Q321 23 300 20T257
10T212 -8T156 -35L145 -41L137 -39Q99 -26 70 1Q45 24 25 66T4 176Q4 218 15 247T41 294T68 320T82 330L90 336L100 334Q131 328 154 325T197 322Q215 322 232 324T270 332T314 346T373 367L381 371L389 369Q436 359 473 356Q461 375 445 393T410 432L403 442Q389
493 372 535T333 615T282 685T219 750L211 756V764Q194 866 149 950T29 1104L20 1112V1124Q20 1125 22 1133T29 1154T44 1184T70 1219Q68 1224 68 1228T68 1237Q68 1279 79 1308T105 1355T131 1381T145 1391L154 1395L164 1393Q220 1380 258 1380Q276 1380 292
1382T326 1390T367 1403T418 1419Q423 1421 427 1422T436 1427L444 1432L453 1430Q490 1422 518 1419T571 1415Q616 1415 658 1428T760 1468L772 1475L784 1468Q785 1467 797 1459T826 1433T858 1386T881 1315Q883 1304 884 1293T885 1272Q885 1238 877 1212T859
1167T841 1138T831 1126L821 1118L807 1120Q773 1125 747 1127T698 1130Q675 1130 655 1128T615 1119T571 1104T520 1081L514 1077L506 1079Q481 1079 461 1080T424 1081Q444 1047 468 1017T524 958L530 948Q545 894 562 850T601 768T651 697T717 633L725 618Q735
566 748 525T782 447T831 378T901 311L907 305L909 295Z" />
<glyph unicode="T" glyph-name="T" horiz-adv-x="928" d="M666 498L662 489Q625 387 625 295Q625 250 633 205T659 109L664 98L659 90Q658 88 648 73T615 39T553 7T455 -8Q396 -8 358 7T297 42T266 78T256 96L252 106L256 115Q279 170 290 222T301 328Q301 365
297 404T281 489V502Q295 553 301 598T307 686Q307 777 276 870L272 879L276 887Q298 941 307 995T319 1104H309Q207 1104 106 1067L98 1065L88 1069Q86 1069 70 1078T35 1109T0 1168T-16 1264Q-16 1318 -1 1352T32 1407T66 1436T84 1446L92 1450L102 1446Q146
1430 190 1424T281 1417Q323 1417 371 1420T463 1440L471 1444L479 1440Q530 1423 575 1415T666 1407Q747 1407 844 1438L856 1442L866 1434Q867 1433 879 1423T904 1393T929 1341T942 1266Q942 1221 931 1188T907 1132T881 1098T868 1083L858 1075L844 1079Q793
1095 751 1101T666 1108H637Q635 1094 636 1082T637 1057Q637 1015 642 975T659 895V883Q644 827 637 780T629 688Q629 642 637 598T662 506L666 498Z" />
<glyph unicode="U" glyph-name="U" horiz-adv-x="1194" d="M532 1327L526 1315Q498 1250 486 1188T473 1063Q473 1003 485 942V928Q462 862 450 806T438 696Q438 661 443 626T459 553V537Q431 477 419 428T406 328Q438 336 468 347T537 373L553 377Q578 374 600
372T645 369Q712 369 774 387Q769 416 763 446T748 508L745 520Q753 557 756 593T760 668Q760 733 748 795T713 918V934Q728 980 734 1025T741 1116Q741 1169 732 1221T702 1327L696 1339L705 1352Q706 1353 717 1366T752 1394T813 1421T905 1434Q947 1434 978
1424T1032 1402T1065 1380T1077 1368L1087 1358L1083 1343Q1059 1254 1059 1169Q1059 1065 1096 969V954Q1077 871 1077 793Q1077 667 1126 551L1130 543L1128 535Q1104 448 1104 365Q1104 303 1116 243T1155 123L1159 115L1155 104Q1154 103 1145 86T1111 47T1044
9T936 -8Q895 -8 866 0T815 20T782 45T762 68Q731 58 702 46T641 16L629 14Q578 14 532 13T442 5T356 -16T270 -57L262 -63L252 -61Q246 -58 231 -53T196 -32T155 13T117 94Q89 107 71 123T43 155T28 180T23 193L20 203L25 211Q57 275 72 329T88 449Q88 475 86
503T78 563V575Q99 635 110 689T121 797Q121 832 116 868T100 944L98 952L102 961Q133 1024 148 1087T164 1217Q164 1282 147 1352L143 1366L154 1374Q155 1375 165 1385T195 1405T245 1425T317 1434Q369 1434 408 1420T472 1388T510 1355T524 1339L532 1327Z"
/>
<glyph unicode="V" glyph-name="V" horiz-adv-x="1038" d="M1038 1225L1032 1212Q1009 1173 994 1139T968 1071T954 1005T950 934Q950 923 950 912T952 889L948 874Q927 833 912 796T887 725T873 656T868 584Q868 567 869 550T872 514L868 498Q822 420 798 338T774
164Q774 147 775 130T778 96V88L772 80Q771 78 763 68T737 47T693 26T629 16H600Q569 -4 525 -21T426 -39Q389 -39 363 -30T319 -9T293 12T283 23L276 31L279 41Q281 61 282 80T283 119Q283 199 263 278T199 438L195 451Q195 665 88 836L84 852Q86 872 87 891T88
930Q88 1094 0 1237L-6 1247L0 1260Q0 1259 11 1278T48 1320T119 1364T229 1384Q259 1384 283 1379T324 1366T350 1353T362 1346L373 1337V1323Q371 1309 371 1296T371 1268Q371 1181 391 1105T455 958L457 944Q457 845 474 764T530 608Q564 679 580 742T596 879Q596
894 596 909T594 942L598 958Q623 996 639 1030T666 1099T681 1168T686 1245Q686 1259 685 1273T684 1303V1315L692 1323Q693 1324 702 1330T727 1343T766 1356T819 1362Q877 1362 918 1343T984 1300T1021 1258T1034 1237L1038 1225Z" />
<glyph unicode="W" glyph-name="W" horiz-adv-x="1507" d="M1491 1270L1485 1257Q1445 1183 1425 1111T1405 963Q1405 925 1411 889L1407 877Q1337 724 1337 578Q1337 552 1339 527T1346 475L1341 459Q1264 317 1264 164Q1264 136 1266 109T1274 53L1276 43L1270
35Q1269 33 1260 22T1232 -1T1181 -24T1106 -35Q1068 -35 1038 -29T985 -13T944 9T914 35Q885 66 872 106L870 115L877 125Q854 137 843 150T831 166L825 174V184Q828 207 828 228T829 270Q829 318 820 362T788 459Q731 336 731 199Q731 174 733 150T739 100L741
90L735 82Q734 80 726 70T699 47T654 24T588 12Q559 -8 517 -23T420 -39Q383 -39 357 -30T313 -9T286 12T276 23L270 31L272 41Q274 61 275 80T276 119Q276 199 256 278T193 438L188 451Q188 559 162 654T82 836L78 852Q80 872 81 891T82 930Q82 1094 -6 1237L-12
1247L-6 1260Q-6 1259 5 1278T42 1320T113 1364T223 1384Q253 1384 277 1379T318 1366T344 1353T356 1346L367 1337V1323Q365 1309 365 1296T365 1268Q365 1181 385 1105T449 958L451 944Q451 866 461 798T496 668Q510 713 516 755T522 842Q522 886 516 936L514
944L518 952Q550 1008 567 1056T590 1159V1161L584 1174L588 1184Q588 1183 598 1201T631 1242T694 1284T791 1303Q819 1303 841 1297T880 1284T906 1270T918 1262L928 1253V1239Q926 1225 926 1213T926 1190Q926 1151 930 1121T945 1062T970 1004T1006 940L1010
926Q1010 894 1011 868T1014 820T1019 780T1028 743Q1034 786 1034 827Q1034 852 1032 876T1026 926V936L1030 942Q1116 1087 1116 1245Q1116 1285 1110 1329L1108 1341L1118 1352Q1119 1353 1128 1359T1154 1374T1197 1388T1257 1395Q1318 1395 1361 1378T1431
1340T1471 1301T1485 1280L1491 1270Z" />
<glyph unicode="X" glyph-name="X" horiz-adv-x="991" d="M975 1167L965 1157Q886 1083 838 1001T766 825L760 811Q737 786 717 762T678 713Q696 690 715 670T756 631L764 625L766 614Q788 506 839 414T975 246L983 240L985 229Q985 228 985 210T975 164T939 104T864
43Q830 23 800 16T745 8Q721 8 703 13T672 24T653 35T645 41L637 47L635 57Q621 142 587 219T496 369Q439 303 402 224T348 55L346 45L338 39Q337 38 330 34T310 24T279 14T238 10Q187 10 150 24T86 59T43 105T17 154T4 194T0 217V231L2 242L10 248Q89 316 143
404T229 604L236 614Q256 636 274 660T309 707Q292 731 272 753T229 797L223 803L221 813Q204 919 157 1007T33 1174L23 1182L25 1196Q25 1197 28 1212T44 1249T79 1297T141 1346Q175 1366 206 1373T264 1380Q298 1380 319 1373T342 1366L354 1360L358 1348Q377
1258 410 1186T496 1051Q551 1113 589 1185T645 1343L649 1356L662 1362Q669 1365 680 1368Q689 1370 701 1372T729 1374Q778 1374 815 1360T880 1323T926 1276T954 1229T969 1194T973 1182L975 1167Z" />
<glyph unicode="Y" glyph-name="Y" horiz-adv-x="993" d="M1049 1217L1040 1206Q903 1051 885 864V858L879 852Q807 761 770 668T727 475V467L721 461Q649 379 609 284T563 80V70L555 63Q554 61 547 55T525 43T489 31T440 25Q417 25 390 30T330 49Q274 71 245
100T202 155T186 200T184 221L193 240Q264 312 307 402T369 604V606Q353 634 333 664T291 722T245 773T197 813L190 817L188 827Q157 928 102 1007T-39 1149L-49 1157V1169Q-49 1166 -46 1181T-33 1221T-6 1274T38 1327T105 1369T197 1386Q217 1386 229 1383T244
1380L256 1376L260 1364Q327 1170 477 1059L485 1047Q492 1030 499 1011T518 973Q518 976 519 979T520 987V995L526 1001Q601 1079 641 1167T692 1360V1374L705 1380Q707 1382 728 1390T791 1399Q840 1399 878 1387T944 1355T992 1313T1024 1272T1041 1241T1047
1229L1049 1217Z" />
<glyph unicode="Z" glyph-name="Z" horiz-adv-x="938" d="M950 1151L940 1141Q863 1070 816 991T748 819L741 807Q660 723 613 636T549 449L541 434L483 379Q528 365 561 358T625 350Q657 350 691 358T774 383L786 387L797 381Q798 380 809 371T833 341T858 290T872
215V201Q872 161 862 131T840 80T817 49T805 37L795 29L782 31Q736 45 703 51T641 57Q610 57 579 50T504 27H489Q446 36 416 40T360 45Q343 45 327 43T294 36T257 24T211 6H193Q191 8 172 18T131 55Q125 58 119 61T106 70Q62 94 38 120T1 170T-15 215T-18 246V256L-16
266L-10 272Q68 337 122 422T205 616L211 629Q286 706 332 794T397 981L406 995Q426 1012 444 1029T479 1067Q441 1075 412 1079T360 1083Q343 1083 327 1081T294 1074T257 1062T211 1044L201 1040L193 1044Q192 1044 176 1053T140 1084T104 1144T88 1241Q88 1292
102 1325T132 1379T163 1407T180 1417L188 1421L199 1417Q237 1403 264 1398T315 1393Q321 1393 340 1393T383 1396T429 1404T461 1419H477Q524 1404 558 1397T623 1389Q655 1389 690 1396T774 1421L786 1425L797 1419Q798 1418 806 1411T826 1387T849 1348T868
1292Q893 1271 908 1249T932 1208T944 1177T948 1163L950 1151Z" />
<glyph unicode="[" glyph-name="bracketleft" horiz-adv-x="862" d="M840 53Q840 12 828 -19T800 -70T772 -101T758 -113L748 -121L735 -117Q683 -100 619 -92T489 -84Q434 -84 382 -90T289 -109H270Q268 -108 260 -104T240 -90T216 -66T193 -29Q149 -22 120 -6T74
27T50 57T43 72L39 82L43 90Q66 146 77 204T88 324Q88 366 84 408T68 496V508Q80 557 87 604T94 700Q94 754 86 805T61 907L59 915L63 924Q106 1032 106 1143Q106 1186 100 1229T80 1317L76 1329L84 1339Q84 1340 90 1346T108 1362T140 1382T184 1401Q198 1435
216 1451T238 1470L254 1475Q262 1475 270 1474T287 1473Q332 1473 386 1479T495 1499T601 1531T694 1575L705 1581L717 1577Q718 1577 731 1571T763 1550T799 1508T829 1442Q834 1425 836 1411T838 1382Q838 1355 832 1333T819 1295T806 1270T799 1260L791 1249H776Q735
1249 691 1244T601 1230T511 1207T428 1176Q425 1154 425 1134T424 1094Q424 1052 429 1012T446 932V918Q416 807 416 709Q416 658 424 609T449 512L453 504L449 496Q412 395 412 289Q412 270 412 252T416 215Q456 207 500 204T588 201Q676 201 748 219L760 221L770
215Q771 214 782 205T806 175T829 125T840 53Z" />
<glyph unicode="\" glyph-name="backslash" horiz-adv-x="928" d="M895 221Q895 219 893 200T877 155T834 100T750 49Q718 35 690 30T639 25Q611 25 590 30T555 42T533 55T524 63L518 70L516 80Q504 297 358 461L352 467V475Q346 575 309 668T201 852L195 864Q175
1052 39 1206L31 1217L35 1229Q35 1228 39 1240T55 1272T86 1313T133 1354T199 1386T289 1399Q329 1399 352 1391T377 1380L387 1374L389 1360Q398 1255 439 1167T553 1001L561 987Q569 887 605 794T707 616L713 604Q746 383 889 240L895 231V221Z" />
<glyph unicode="]" glyph-name="bracketright" horiz-adv-x="862" d="M821 82L817 72Q817 70 810 57T786 27T740 -6T668 -29Q657 -50 644 -65T620 -89T600 -103T590 -109H571Q529 -96 478 -90T371 -84Q306 -84 243 -92T127 -117L113 -121L102 -113Q100 -112 87
-102T59 -71T32 -19T20 53Q20 95 30 125T54 175T78 204T90 215L100 221L113 219Q148 210 188 206T272 201Q317 201 360 204T444 215Q446 234 447 252T449 289Q449 341 440 393T412 496L408 504L412 512Q429 560 436 609T444 709Q444 807 414 918V932Q425 972 430
1012T436 1094Q436 1132 430 1176Q390 1193 346 1206T257 1229T168 1244T84 1249H72L63 1260Q61 1261 55 1270T42 1295T29 1333T23 1382Q23 1440 42 1477T83 1537T125 1568T143 1577L156 1581L166 1575Q206 1550 258 1531T365 1499T473 1480T571 1473Q581 1473
589 1474T606 1475L623 1470Q625 1468 643 1452T674 1401Q699 1393 718 1383T749 1363T768 1347T776 1339L784 1329L780 1317Q766 1272 760 1229T754 1143Q754 1032 797 924L801 915L799 907Q782 856 774 805T766 700Q766 652 772 605T793 508V496Q782 451 777
408T772 322Q772 262 783 204T817 90L821 82Z" />
<glyph unicode="^" glyph-name="asciicircum" horiz-adv-x="723" d="M678 977V967Q675 932 660 905T623 858T573 829T520 819Q485 819 457 836L449 840L446 848Q428 897 406 943T358 1034Q327 991 303 945T258 850L248 840Q235 833 222 829T195 825Q164 825 137
838T90 874T59 927T47 989V997L53 1004Q187 1144 248 1309L252 1319L260 1321Q288 1333 317 1333Q346 1333 375 1321Q381 1323 386 1323T397 1323Q433 1323 471 1305L479 1300L481 1292Q516 1199 562 1123T672 985L678 977Z" />
<glyph unicode="_" glyph-name="underscore" horiz-adv-x="1022" d="M936 -338Q936 -384 925 -418T899 -476T873 -511T860 -524L850 -532L836 -530Q785 -515 751 -508T686 -500Q657 -500 626 -506T551 -526L539 -528Q501 -513 457 -509T381 -504Q341 -504 301
-513T209 -541H190Q188 -540 172 -531T137 -498T102 -436T86 -338Q86 -284 101 -248T134 -191T168 -162T186 -152L195 -147L205 -152Q248 -167 285 -173T360 -180Q398 -180 435 -175T516 -158L524 -154L532 -158Q582 -175 619 -182T690 -190Q724 -190 758 -183T836
-162L848 -158L858 -164Q859 -165 871 -175T897 -206T922 -260T936 -338Z" />
<glyph unicode="`" glyph-name="grave" horiz-adv-x="375" d="M375 1651L373 1642Q366 1615 350 1596T314 1565T269 1546T223 1540Q215 1540 207 1540T190 1544L180 1546L176 1556Q145 1634 104 1705T8 1843L0 1851L4 1864Q13 1891 33 1914T81 1955T140 1981T207
1991Q218 1991 227 1991T248 1989L264 1985L266 1968Q272 1890 298 1812T371 1659L375 1651Z" />
<glyph unicode="a" glyph-name="a" horiz-adv-x="1040" d="M1069 522Q1075 489 1075 461Q1075 430 1069 406T1056 364T1042 336T1034 324L1026 313L1012 315Q998 317 984 317T956 317Q970 268 991 222T1038 133L1049 117L1036 102Q1035 101 1026 92T997 70T949
43T879 20Q860 15 842 13T805 10Q779 10 758 14T721 23T698 33T688 37L674 45L676 61Q676 74 677 86T678 111Q678 180 666 248Q662 244 659 244L645 240Q582 240 516 232T385 203V172Q385 129 391 86L393 76L387 68Q386 67 377 57T349 35T301 14T231 4Q151 4 105
27T33 79Q4 112 -6 154L-8 162L-2 170Q49 248 73 336T98 528V563L102 575Q141 653 159 730T178 887Q178 907 177 927T174 967L172 977L178 985Q274 1132 274 1303Q274 1318 273 1334T270 1368V1380L279 1389Q280 1390 289 1396T316 1410T357 1424T414 1430Q476
1430 519 1411T590 1369T629 1327T643 1307L649 1294L643 1282Q639 1278 639 1276H653Q697 1276 722 1270T750 1264L762 1255L760 1241Q758 1229 758 1218T758 1194Q758 1016 842 868L846 856V829Q846 777 850 730T866 639Q886 647 905 656T942 676L952 682L965
678Q966 677 978 669T1007 643T1041 596T1069 522ZM530 778L516 825Q493 765 482 706T471 590V563Q514 578 553 598L569 602Q576 600 583 599T596 598Q585 641 569 685T530 778Z" />
<glyph unicode="b" glyph-name="b" horiz-adv-x="1092" d="M1028 844L1024 831L1012 827Q881 791 784 717Q835 672 893 641T1020 592L1032 588L1038 575Q1038 573 1041 559T1044 522Q1044 502 1042 486T1034 455Q1051 424 1058 391T1065 334Q1065 294 1057 269T1047
242L1040 231L1026 229Q822 205 682 80L670 74Q620 64 578 53T497 24T422 -17T350 -76L332 -84Q330 -84 316 -83T281 -73T234 -47T184 4Q148 13 125 28T87 59T67 86T61 100L57 111L61 119Q84 175 95 232T106 352Q106 394 102 436T86 524V537Q98 586 105 633T113
729Q113 783 104 834T80 936L78 944L82 952Q125 1062 125 1171Q125 1215 119 1258T98 1346L94 1358L102 1368Q103 1369 110 1376T131 1394T167 1415T219 1432Q239 1464 264 1482T311 1510T348 1521T362 1524H373L381 1518Q413 1489 445 1468T511 1432T585 1406T670
1386Q675 1384 680 1384T690 1384H698L707 1378Q747 1344 783 1320T859 1279T941 1253T1036 1241H1049L1057 1229Q1057 1228 1060 1221T1068 1201T1075 1170T1079 1130Q1079 1110 1076 1088T1063 1040Q1048 999 1028 973Q1033 954 1035 938T1038 907Q1038 879 1033
863T1028 844ZM590 1026L578 1032Q539 1054 506 1073T442 1106Q442 1069 448 1033T465 961V946Q460 928 456 911T449 877L477 905L483 913L492 915Q550 929 602 951T702 1008Q651 1020 590 1026ZM461 508Q436 433 430 356Q444 364 457 372T485 391L500 403L506
410L516 412Q548 414 580 419T645 434Q579 471 506 496L494 502L477 518Q472 516 469 514T461 508Z" />
<glyph unicode="c" glyph-name="c" horiz-adv-x="1055" d="M512 913L510 907Q481 839 468 784T455 674Q455 642 459 610T471 543L473 535L469 526Q440 469 425 425T406 332Q426 335 442 339T473 348T505 360T543 373Q548 375 552 376T561 381L569 385L578 383Q612
375 642 372T700 369Q757 369 811 383T930 428L942 434L952 428Q953 427 966 418T995 390T1028 340T1051 264Q1053 253 1053 243T1053 223Q1053 188 1045 160T1027 113T1009 82T999 70L989 59L977 63Q946 68 918 71T864 74Q805 74 755 60T645 18L637 14L631 16Q608
16 586 18T543 20Q468 20 397 3T258 -49L248 -53L240 -51Q243 -52 225 -45T183 -20T137 31T109 115Q82 130 65 147T37 180T22 205T18 217L16 227L20 236Q39 270 53 300T76 358T89 416T94 481Q94 522 88 573L90 586Q116 649 128 703T141 811Q141 842 137 874T127
942L125 952L129 958Q152 1003 167 1040T190 1116Q175 1136 165 1169T154 1251Q154 1315 170 1355T207 1419T245 1450T264 1458L274 1462L283 1458Q335 1432 388 1421T500 1409Q524 1409 556 1409T614 1419L623 1421L631 1417Q690 1391 738 1378T838 1364Q869 1364
900 1368T967 1382L979 1384L987 1376Q988 1375 998 1365T1018 1335T1038 1285T1047 1212V1196Q1044 1151 1031 1118T1002 1063T975 1030T961 1018L948 1010L936 1014Q877 1039 831 1051T737 1063Q709 1063 681 1059T621 1047L606 1049Q577 1054 553 1060T504 1073Q502
1058 502 1044T502 1016Q502 994 504 971T512 922V913Z" />
<glyph unicode="d" glyph-name="d" horiz-adv-x="1065" d="M1085 586L1083 571L1071 565Q980 516 915 451T807 301L805 293L799 291Q759 267 717 233T637 159T567 73T514 -18L510 -27L500 -31Q498 -33 484 -37T446 -41Q423 -41 393 -32T328 0Q312 -3 296 -5T260
-8Q201 -8 163 8T102 43T70 79T61 98L57 106L61 117Q84 172 95 230T106 348Q106 390 102 433T86 522V535Q98 584 105 631T113 727Q113 780 104 831T80 932L78 942L82 950Q104 1004 114 1058T125 1167Q125 1211 119 1254T98 1343L94 1356L102 1366Q103 1367 114
1378T147 1403T204 1427T285 1438H305Q342 1467 374 1476T432 1485Q454 1485 467 1482T483 1479L492 1475L496 1464Q514 1426 543 1388T607 1314T681 1246T760 1188L778 1180L786 1176L791 1167Q837 1073 905 1004T1067 887L1079 883L1081 868Q1081 866 1082 863Q1082
861 1082 858T1083 850Q1083 831 1075 798T1042 727Q1057 706 1065 686T1078 649T1084 617T1085 596V586ZM471 530L467 522Q459 501 453 480T442 436Q464 465 485 491T518 532L522 541L530 545Q659 610 745 721Q703 775 654 816T545 889L535 899Q516 924 496 949T455
999Q457 988 459 979T465 958V944Q434 835 434 735Q434 684 442 636T467 539L471 530Z" />
<glyph unicode="e" glyph-name="e" horiz-adv-x="1004" d="M809 707Q809 662 797 629T770 572T743 537T729 524L719 516L705 520Q649 539 607 548T522 557Q491 557 461 551L467 539L471 530L467 522Q443 454 434 387Q450 391 470 394T508 399T538 402T551 403L559
406L567 401Q624 378 664 366T745 354Q773 354 806 360T881 377L893 381L903 373Q904 371 914 361T937 329T959 275T969 197Q968 152 955 119T927 64T899 29T885 16L872 10L860 14Q801 36 762 45T686 55Q660 55 632 51T567 37H553Q525 42 498 48T442 61Q432 50
417 38T379 15T327 -1T260 -8Q201 -8 163 8T102 43T70 79T61 98L57 106L61 117Q84 172 95 230T106 348Q106 390 102 433T86 522V535Q98 584 105 631T113 727Q113 780 104 831T80 932L78 942L82 950Q104 1004 114 1058T125 1167Q125 1211 119 1254T98 1343L94 1356L102
1366Q103 1367 114 1378T147 1403T204 1427T285 1438Q339 1438 377 1423T438 1391Q467 1394 499 1400T563 1417L571 1421L582 1419Q630 1404 665 1397T733 1389Q768 1389 806 1398T895 1425L907 1430L918 1423Q919 1422 931 1412T957 1382T983 1330T999 1253V1235Q999
1195 989 1164T967 1112T944 1079T932 1067L922 1059L907 1063Q859 1074 825 1079T762 1085Q728 1085 695 1078T614 1055L600 1053Q558 1061 520 1065T442 1069Q445 1041 450 1014T465 958V944Q459 926 456 909T449 872Q478 864 503 861T557 858Q594 858 632 864T715
885L727 889L737 881Q738 880 749 870T774 838T798 784T809 707Z" />
<glyph unicode="f" glyph-name="f" horiz-adv-x="973" d="M809 707Q809 662 797 629T770 572T743 537T729 524L719 516L705 520Q649 539 607 548T522 557Q491 557 461 551L467 539L471 530L467 522Q430 420 430 313Q430 262 438 212T465 111L469 100L465 92Q464
90 454 75T421 41T359 7T260 -8Q201 -8 163 8T102 43T70 79T61 98L57 106L61 117Q84 172 95 230T106 348Q106 390 102 433T86 522V535Q98 584 105 631T113 727Q113 780 104 831T80 932L78 942L82 950Q104 1004 114 1058T125 1167Q125 1211 119 1254T98 1343L94
1356L102 1366Q103 1367 114 1378T147 1403T204 1427T285 1438Q339 1438 377 1423T438 1391Q467 1394 499 1400T563 1417L571 1421L582 1419Q630 1404 665 1397T733 1389Q768 1389 806 1398T895 1425L907 1430L918 1423Q919 1422 931 1412T957 1382T983 1330T999
1253V1235Q999 1195 989 1164T967 1112T944 1079T932 1067L922 1059L907 1063Q859 1074 825 1079T762 1085Q728 1085 695 1078T614 1055L600 1053Q558 1061 520 1065T442 1069Q445 1041 450 1014T465 958V944Q459 926 456 909T449 872Q478 864 503 861T557 858Q594
858 632 864T715 885L727 889L737 881Q738 880 749 870T774 838T798 784T809 707Z" />
<glyph unicode="g" glyph-name="g" horiz-adv-x="1141" d="M512 913L510 907Q481 839 468 784T455 674Q455 642 459 610T471 543L473 535L469 526Q440 469 425 425T406 332Q426 335 442 339T473 348T505 360T543 373Q548 375 552 376T561 381L569 385L578 383Q610
375 639 372T696 369H735Q733 378 731 387T725 408V424Q739 467 745 502T752 571Q752 610 743 649T713 739L709 752L715 762Q715 763 726 776T760 804T821 833T909 846Q948 846 978 837T1030 817T1062 795T1075 784L1083 776L1079 764Q1068 721 1063 687T1057 621Q1057
583 1066 547T1094 465V451Q1086 412 1083 378T1079 315Q1079 270 1089 227T1122 131L1126 123L1124 113Q1123 112 1114 95T1080 56T1013 18T905 0Q873 0 848 6T805 20T773 39T752 59Q726 51 700 41T645 18L637 14L631 16Q608 16 586 18T543 20Q468 20 397 3T258
-49L248 -53L240 -51Q243 -52 225 -45T183 -20T137 31T109 115Q82 130 65 147T37 180T22 205T18 217L16 227L20 236Q39 270 53 300T76 358T89 416T94 481Q94 522 88 573L90 586Q116 649 128 703T141 811Q141 842 137 874T127 942L125 952L129 958Q152 1003 167
1040T190 1116Q175 1136 165 1169T154 1251Q154 1315 170 1355T207 1419T245 1450T264 1458L274 1462L283 1458Q335 1432 388 1421T500 1409Q524 1409 556 1409T614 1419L623 1421L631 1417Q690 1391 738 1378T838 1364Q869 1364 900 1368T967 1382L979 1384L987
1376Q988 1375 998 1365T1018 1335T1038 1285T1047 1212V1196Q1044 1151 1031 1118T1002 1063T975 1030T961 1018L948 1010L936 1014Q877 1039 831 1051T737 1063Q709 1063 681 1059T621 1047L606 1049Q577 1054 553 1060T504 1073Q502 1058 502 1044T502 1016Q502
994 504 971T512 922V913Z" />
<glyph unicode="h" glyph-name="h" horiz-adv-x="1253" d="M1245 637Q1247 625 1248 614T1249 590Q1249 560 1244 533T1231 484T1219 449T1212 434L1204 420Q1189 422 1172 423T1135 424Q1127 424 1120 424T1104 422Q1101 402 1101 381T1100 340Q1100 283 1108
227T1128 123L1130 115L1126 106Q1125 104 1114 87T1080 51T1018 16T926 0Q871 0 833 14T770 45T734 77T721 94L715 104L719 115Q737 164 749 225T764 342Q734 336 704 327T647 306T597 284T555 262L543 258Q523 258 494 257T436 256Q441 205 449 168T465 113L469
102L465 94Q464 92 454 77T421 43T359 11T260 -4Q201 -4 163 11T102 46T70 82T61 100L57 111L61 119Q84 175 95 232T106 352Q106 394 102 436T86 524V537Q98 586 105 633T113 729Q113 783 104 834T80 936L78 944L82 952Q125 1062 125 1171Q125 1215 119 1258T98
1346L94 1358L102 1368Q103 1369 114 1380T147 1405T204 1429T285 1440Q333 1440 368 1428T426 1400T462 1372T475 1358L485 1348L479 1335Q461 1280 452 1228T442 1122Q442 1080 447 1041T465 961V946Q451 898 445 854T438 764Q438 721 443 676T459 578L492 596L506
598Q511 597 519 596Q526 595 535 595T557 594Q594 594 649 604T770 649Q772 668 773 687T774 725Q774 781 766 833T745 930V946Q776 1038 776 1128Q776 1181 767 1231T737 1333L731 1346L737 1356Q738 1357 749 1372T783 1404T842 1436T930 1450Q981 1450 1020
1436T1086 1406T1127 1375T1143 1360L1153 1348L1149 1335Q1127 1275 1118 1217T1108 1102Q1108 1062 1112 1022T1128 944V930Q1116 895 1107 856T1096 768Q1102 773 1108 777T1120 788L1130 784Q1132 783 1147 777T1182 754T1219 709T1245 637Z" />
<glyph unicode="i" glyph-name="i" horiz-adv-x="545" d="M485 1348L479 1335Q461 1280 452 1228T442 1122Q442 1080 447 1041T465 961V946Q434 837 434 737Q434 686 442 638T467 541L471 532L467 524Q448 473 439 422T430 317Q430 265 438 215T465 113L469 102L465
94Q464 92 454 77T421 43T359 11T260 -4Q201 -4 163 11T102 46T70 82T61 100L57 111L61 119Q84 175 95 232T106 352Q106 394 102 436T86 524V537Q98 586 105 633T113 729Q113 783 104 834T80 936L78 944L82 952Q125 1062 125 1171Q125 1215 119 1258T98 1346L94
1358L102 1368Q103 1369 114 1380T147 1405T204 1429T285 1440Q333 1440 368 1428T426 1400T462 1372T475 1358L485 1348Z" />
<glyph unicode="j" glyph-name="j" horiz-adv-x="989" d="M938 1346L932 1333Q913 1278 904 1225T895 1120Q895 1078 900 1039T918 958V944Q887 835 887 735Q887 684 895 636T920 539L924 530L920 522Q883 420 883 313Q883 262 891 212T918 111L920 100L915 92Q915
90 906 75T873 41T811 7T713 -8Q693 -8 675 -6T641 0Q639 -2 637 -3T633 -8Q589 -46 552 -60T483 -74Q455 -74 439 -68T420 -59L412 -55L408 -45Q393 -5 376 30T335 97T281 158T209 215L201 219L199 227Q179 276 159 313T114 380T55 437T-23 492L-33 498L-35 512Q-35
515 -35 530T-27 570T-2 623T49 682Q72 703 95 715T140 735T179 745T211 748Q223 748 230 747T240 745L254 741L258 729Q279 681 299 646T344 583T398 531T469 481L477 471Q500 431 518 400T557 340V346Q557 430 539 522V535Q551 584 558 631T565 727Q565 780 557
831T532 932L530 942L535 950Q556 1004 567 1058T578 1167Q578 1254 551 1343L547 1356L555 1366Q556 1367 567 1378T600 1403T656 1427T737 1438Q785 1438 820 1426T879 1398T915 1370T928 1356L938 1346Z" />
<glyph unicode="k" glyph-name="k" horiz-adv-x="1110" d="M1067 180Q1067 178 1065 160T1049 117T1008 62T928 10Q897 -4 872 -9T823 -14Q796 -14 775 -8T740 6T718 20T709 29L702 35L700 45Q698 88 692 123T674 192T644 260T600 334L580 354V365Q578 391 575
418T565 471Q485 412 430 336V313Q430 262 438 212T465 111L469 100L465 92Q464 90 454 75T421 41T359 7T260 -8Q201 -8 163 8T102 43T70 79T61 98L57 106L61 117Q84 172 95 230T106 348Q106 390 102 433T86 522V535Q98 584 105 631T113 727Q113 780 104 831T80
932L78 942L82 950Q104 1004 114 1058T125 1167Q125 1211 119 1254T98 1343L94 1356L102 1366Q103 1367 114 1378T147 1403T204 1427T285 1438Q333 1438 368 1426T426 1398T462 1370T475 1356L485 1346L479 1333Q461 1278 452 1225T442 1120Q442 1078 447 1039T465
958V944Q459 924 455 905T446 866Q485 911 513 960T563 1065L567 1073L575 1077Q666 1130 730 1202T834 1374L840 1386L852 1389Q854 1389 861 1391T881 1393Q907 1393 948 1381T1038 1331Q1075 1301 1095 1270T1124 1212T1135 1168T1137 1149V1135L1124 1126Q1036
1071 976 1002T881 844L870 834Q849 818 829 802T791 768Q808 697 838 637T915 522L920 510Q930 459 940 418T965 340T1003 270T1059 199L1067 190V180Z" />
<glyph unicode="l" glyph-name="l" horiz-adv-x="958" d="M999 195Q999 150 987 116T960 59T932 24T918 10L907 2L895 6Q788 43 686 43Q601 43 520 18H506Q486 25 462 29T414 39Q389 22 353 9T260 -4Q201 -4 163 11T102 46T70 82T61 100L57 111L61 119Q84 175
95 232T106 352Q106 394 102 436T86 524V537Q98 586 105 633T113 729Q113 783 104 834T80 936L78 944L82 952Q125 1062 125 1171Q125 1215 119 1258T98 1346L94 1358L102 1368Q103 1369 114 1380T147 1405T204 1429T285 1440Q333 1440 368 1428T426 1400T462 1372T475
1358L485 1348L479 1335Q461 1280 452 1228T442 1122Q442 1080 447 1041T465 961V946Q434 837 434 737Q434 686 442 638T467 541L471 532L467 524Q453 489 445 453T432 379Q442 381 453 382T473 386Q484 388 494 389L502 393L510 389Q564 369 617 359T727 348Q770
348 814 354T903 375L918 379L928 371Q929 370 940 360T963 328T987 273T999 195Z" />
<glyph unicode="m" glyph-name="m" horiz-adv-x="1503" d="M997 133L985 117Q986 118 972 102T927 66T850 29T743 12Q697 12 670 21T639 33L625 39L627 55Q627 143 609 226T549 395L547 406Q544 484 523 562T461 723Q456 695 455 669T453 614Q453 588 454 563T461
512L463 504L459 496Q383 357 383 205Q383 177 385 148T393 90L395 80L389 72Q388 70 379 59T351 35T300 11T225 0Q187 0 157 6T104 22T63 44T33 70Q4 101 -8 141L-10 150L-6 158Q84 306 84 494Q84 509 84 524T82 555L84 567Q116 642 133 715T150 862Q150 887 147
912T141 963L139 971L143 979Q227 1120 227 1276Q227 1317 221 1364L219 1378L229 1386Q230 1387 239 1394T267 1410T311 1425T373 1432Q432 1432 474 1415T543 1377T582 1338T596 1319L604 1307L598 1294L586 1274Q606 1269 618 1265T633 1260L645 1251V1237Q645
1135 670 1045T748 870L752 858Q752 792 764 731Q779 781 787 831T795 932Q795 944 795 956T793 983L791 991L797 999Q851 1078 877 1161T903 1339V1378L901 1391L911 1399Q912 1400 920 1405T945 1418T984 1430T1036 1436Q1101 1436 1146 1416T1219 1372T1260
1327T1274 1305L1280 1292L1272 1280L1262 1266Q1282 1258 1292 1252T1305 1245L1317 1235L1315 1221Q1312 1196 1310 1172T1307 1122Q1307 1050 1323 980T1370 844L1372 829Q1369 808 1369 787T1368 743Q1368 588 1432 457L1436 453V444Q1436 435 1435 427T1434
410Q1434 246 1516 96L1524 80L1511 68Q1512 69 1498 57T1456 30T1387 3T1294 -10Q1263 -10 1238 -5T1196 7T1168 20T1157 27L1145 35L1147 51Q1152 77 1153 103T1155 156Q1155 272 1112 397V408Q1114 422 1114 436T1114 465Q1114 571 1083 680Q1078 654 1077 628T1075
575Q1075 558 1076 543T1079 510L1075 494Q975 340 975 162Q977 157 979 154T985 147L997 133Z" />
<glyph unicode="n" glyph-name="n" horiz-adv-x="1225" d="M1167 1343L1163 1331Q1145 1275 1135 1222T1124 1116Q1124 1076 1130 1037T1149 956V942Q1118 836 1118 735Q1118 683 1126 634T1151 537V520Q1131 468 1122 415T1112 309Q1112 208 1147 109L1151 98L1147
90Q1146 88 1136 73T1103 39T1041 7T944 -8Q896 -8 862 1T805 27H795Q768 27 747 32T712 44T691 57T682 66L674 72V82Q669 184 632 277T524 461L520 471Q508 539 487 599T434 715Q436 668 443 624T467 537L471 528L467 520Q448 469 439 418T430 313Q430 261 438
211T465 109L469 98L465 90Q464 88 454 73T421 39T359 7T260 -8Q201 -8 163 7T102 42T70 78T61 96L57 106L61 115Q84 170 95 228T106 348Q106 390 102 432T86 520V532Q98 582 105 630T113 725Q113 779 104 830T80 932L78 940L82 948Q125 1058 125 1167Q125 1211
119 1253T98 1341L94 1354L102 1364Q103 1365 114 1376T147 1401T204 1425T285 1436Q330 1436 362 1426T418 1401H434Q476 1401 501 1392T528 1380L541 1374L543 1362Q564 1156 686 1016L692 1010V1004Q718 840 795 721V723Q795 777 787 828T764 932V948Q807 1058
807 1171Q807 1257 782 1341L778 1354L786 1364Q787 1365 798 1376T831 1401T888 1425T969 1436Q1016 1436 1051 1424T1110 1396T1146 1368T1159 1354L1167 1343Z" />
<glyph unicode="o" glyph-name="o" horiz-adv-x="1255" d="M1223 164L1219 154Q1219 153 1210 134T1175 93T1105 52T991 33Q946 33 915 43T862 70Q816 63 772 51T684 18L678 14L672 16Q647 16 625 18T578 20Q497 20 412 3T258 -49L248 -53L240 -51Q243 -52 225
-45T183 -20T137 31T109 115Q82 130 65 147T37 180T22 205T18 217L16 227L20 236Q39 270 53 300T76 358T89 416T94 481Q94 522 88 573L90 586Q116 649 128 703T141 811Q141 842 137 874T127 942L125 952L129 958Q152 1003 167 1040T190 1116Q175 1136 165 1169T154
1251Q154 1315 170 1355T207 1419T245 1450T264 1458L274 1462L283 1458Q335 1432 388 1421T500 1409Q524 1409 556 1409T614 1419L623 1421L631 1417Q685 1392 731 1379T823 1364Q848 1375 879 1384T950 1393Q990 1393 1021 1384T1073 1362T1106 1340T1120 1329L1130
1319L1126 1307Q1115 1263 1110 1224T1104 1147Q1104 1097 1114 1051T1145 954L1149 948L1147 940Q1141 902 1137 868T1133 799Q1133 734 1146 675T1188 555L1192 549L1188 539Q1177 495 1171 458T1165 385Q1165 332 1178 282T1219 172L1223 164ZM512 913L510 907Q481
839 468 784T455 674Q455 642 459 610T471 543L473 535L469 526Q440 468 425 424T406 332Q430 335 458 339T512 348T562 362T602 381L610 385L618 383Q653 375 686 372T752 369Q796 369 840 375Q835 404 828 435T809 502L807 514Q819 581 819 645Q819 710 806 769T766
891L762 899L764 909Q775 948 782 985T791 1059Q777 1061 764 1062T737 1063Q709 1063 681 1059T621 1047L606 1049Q577 1054 553 1060T504 1073Q502 1058 502 1044T502 1016Q502 994 504 971T512 922V913Z" />
<glyph unicode="p" glyph-name="p" horiz-adv-x="1051" d="M1040 821L1038 809L1026 805Q930 763 858 706T733 571L723 561Q686 546 646 521T567 465T492 399T428 326Q426 318 427 311T428 295Q428 242 436 192T463 90L467 80L463 72Q462 70 452 55T419 21T357
-12T258 -27Q199 -27 161 -11T100 24T68 59T59 78L55 88L59 96Q82 152 93 210T104 330Q104 372 100 414T84 502V514Q96 564 103 612T111 707Q111 761 102 811T78 913L76 922L80 930Q123 1040 123 1149Q123 1192 117 1235T96 1323L92 1335L100 1346Q101 1347 108
1354T129 1372T165 1393T217 1411Q236 1441 260 1458T305 1485T342 1497T360 1501H371L379 1495Q411 1466 443 1446T509 1410T583 1383T668 1364Q673 1364 678 1363T688 1362H696L705 1356Q745 1322 781 1298T857 1257T939 1231T1034 1219H1047L1055 1208Q1055
1206 1058 1199T1066 1180T1073 1150T1077 1110Q1077 1090 1074 1067T1061 1018Q1046 976 1026 948Q1037 922 1040 899T1044 858Q1044 843 1042 833T1040 821ZM588 1004L575 1010Q537 1031 504 1050T440 1083Q440 1046 446 1011T463 938V924Q438 839 432 758Q449
775 464 792T483 821L489 829L498 831Q630 881 725 977Q693 988 660 994T588 1004Z" />
<glyph unicode="q" glyph-name="q" horiz-adv-x="1255" d="M1223 164L1219 154Q1219 153 1210 134T1175 93T1105 52T991 33Q946 33 915 43T862 70Q845 67 829 65T797 57V45Q797 -6 808 -56T842 -158L846 -168L842 -176Q842 -177 833 -195T800 -234T734 -273T625
-291Q577 -291 545 -279T493 -251T465 -222T455 -207L451 -199L453 -188Q465 -151 470 -117T475 -47Q475 -32 474 -17T471 12Q414 4 359 -10T258 -49L248 -53L240 -51Q243 -52 225 -45T183 -20T137 31T109 115Q82 130 65 147T37 180T22 205T18 217L16 227L20 236Q39
270 53 300T76 358T89 416T94 481Q94 522 88 573L90 586Q116 649 128 703T141 811Q141 842 137 874T127 942L125 952L129 958Q152 1003 167 1040T190 1116Q175 1136 165 1169T154 1251Q154 1315 170 1355T207 1419T245 1450T264 1458L274 1462L283 1458Q335 1432
388 1421T500 1409Q524 1409 556 1409T614 1419L623 1421L631 1417Q685 1392 731 1379T823 1364Q848 1375 879 1384T950 1393Q990 1393 1021 1384T1073 1362T1106 1340T1120 1329L1130 1319L1126 1307Q1115 1263 1110 1224T1104 1147Q1104 1097 1114 1051T1145
954L1149 948L1147 940Q1141 902 1137 868T1133 799Q1133 734 1146 675T1188 555L1192 549L1188 539Q1177 495 1171 458T1165 385Q1165 332 1178 282T1219 172L1223 164ZM512 913L510 907Q481 839 468 784T455 674Q455 642 459 610T471 543L473 535L469 526Q440
468 425 424T406 332Q430 335 458 339T512 348T562 362T602 381L610 385L618 383Q653 375 686 372T752 369Q796 369 840 375Q835 404 828 435T809 502L807 514Q819 581 819 645Q819 710 806 769T766 891L762 899L764 909Q775 948 782 985T791 1059Q777 1061 764
1062T737 1063Q709 1063 681 1059T621 1047L606 1049Q577 1054 553 1060T504 1073Q502 1058 502 1044T502 1016Q502 994 504 971T512 922V913Z" />
<glyph unicode="r" glyph-name="r" horiz-adv-x="1090" d="M1040 809L1038 797L1026 791Q961 763 908 729T811 649Q828 603 855 567T926 489L932 479Q949 393 988 323T1096 195L1104 190V180Q1104 178 1103 161T1091 119T1056 65T987 10Q952 -10 922 -17T868 -25Q847
-25 831 -21T804 -12T787 -3T780 2L774 6L772 16Q767 55 757 89T730 155T693 218T645 281Q635 291 631 293L625 299V307Q617 354 607 390T578 459Q536 428 498 390T428 311Q426 303 427 296T428 281Q428 228 436 178T463 76L467 68L463 57Q462 55 452 40T419 6T357
-26T258 -41Q199 -41 161 -26T100 9T68 45T59 63L55 74L59 82Q82 138 93 195T104 315Q104 357 100 399T84 487V500Q96 549 103 597T111 692Q111 746 102 797T78 899L76 907L80 915Q123 1025 123 1135Q123 1180 117 1223T96 1311L92 1323L100 1333Q101 1334 108
1341T129 1359T165 1380T217 1397Q236 1427 260 1444T305 1471T342 1483T360 1487H371L379 1481Q408 1455 443 1431T517 1389T599 1361T688 1350L705 1343Q745 1308 781 1284T857 1243T939 1218T1034 1206L1047 1204L1055 1194Q1055 1192 1058 1185T1066 1166T1073
1136T1077 1096Q1077 1076 1074 1053T1061 1004Q1047 963 1026 936Q1037 910 1040 888T1044 848Q1044 831 1042 821T1040 809ZM588 991L575 995Q537 1017 504 1036T440 1071Q440 1034 446 998T463 924V909Q438 825 432 745Q448 761 461 777T483 807L498 819Q564
844 621 879T727 965Q665 985 588 991Z" />
<glyph unicode="s" glyph-name="s" horiz-adv-x="907" d="M909 295Q909 292 908 275T898 233T866 177T801 119Q790 96 779 83T766 68L758 57L743 59Q708 64 682 67T633 70Q610 70 590 67T550 58T507 43T457 20L442 18Q416 18 392 20T348 23Q321 23 300 20T257
10T212 -8T156 -35L145 -41L137 -39Q99 -26 70 1Q45 24 25 66T4 176Q4 218 15 247T41 294T68 320T82 330L90 336L100 334Q131 328 154 325T197 322Q215 322 232 324T270 332T314 346T373 367L381 371L389 369Q436 359 473 356Q461 375 445 393T410 432L403 442Q389
493 372 535T333 615T282 685T219 750L211 756V764Q194 866 149 950T29 1104L20 1112V1124Q20 1125 22 1133T29 1154T44 1184T70 1219Q68 1224 68 1228T68 1237Q68 1279 79 1308T105 1355T131 1381T145 1391L154 1395L164 1393Q220 1380 258 1380Q276 1380 292
1382T326 1390T367 1403T418 1419Q423 1421 427 1422T436 1427L444 1432L453 1430Q490 1422 518 1419T571 1415Q616 1415 658 1428T760 1468L772 1475L784 1468Q785 1467 797 1459T826 1433T858 1386T881 1315Q883 1304 884 1293T885 1272Q885 1238 877 1212T859
1167T841 1138T831 1126L821 1118L807 1120Q773 1125 747 1127T698 1130Q675 1130 655 1128T615 1119T571 1104T520 1081L514 1077L506 1079Q481 1079 461 1080T424 1081Q444 1047 468 1017T524 958L530 948Q545 894 562 850T601 768T651 697T717 633L725 618Q735
566 748 525T782 447T831 378T901 311L907 305L909 295Z" />
<glyph unicode="t" glyph-name="t" horiz-adv-x="928" d="M666 498L662 489Q625 387 625 295Q625 250 633 205T659 109L664 98L659 90Q658 88 648 73T615 39T553 7T455 -8Q396 -8 358 7T297 42T266 78T256 96L252 106L256 115Q279 170 290 222T301 328Q301 365
297 404T281 489V502Q295 553 301 598T307 686Q307 777 276 870L272 879L276 887Q298 941 307 995T319 1104H309Q207 1104 106 1067L98 1065L88 1069Q86 1069 70 1078T35 1109T0 1168T-16 1264Q-16 1318 -1 1352T32 1407T66 1436T84 1446L92 1450L102 1446Q146
1430 190 1424T281 1417Q323 1417 371 1420T463 1440L471 1444L479 1440Q530 1423 575 1415T666 1407Q747 1407 844 1438L856 1442L866 1434Q867 1433 879 1423T904 1393T929 1341T942 1266Q942 1221 931 1188T907 1132T881 1098T868 1083L858 1075L844 1079Q793
1095 751 1101T666 1108H637Q635 1094 636 1082T637 1057Q637 1015 642 975T659 895V883Q644 827 637 780T629 688Q629 642 637 598T662 506L666 498Z" />
<glyph unicode="u" glyph-name="u" horiz-adv-x="1194" d="M532 1327L526 1315Q498 1250 486 1188T473 1063Q473 1003 485 942V928Q462 862 450 806T438 696Q438 661 443 626T459 553V537Q431 477 419 428T406 328Q438 336 468 347T537 373L553 377Q578 374 600
372T645 369Q712 369 774 387Q769 416 763 446T748 508L745 520Q753 557 756 593T760 668Q760 733 748 795T713 918V934Q728 980 734 1025T741 1116Q741 1169 732 1221T702 1327L696 1339L705 1352Q706 1353 717 1366T752 1394T813 1421T905 1434Q947 1434 978
1424T1032 1402T1065 1380T1077 1368L1087 1358L1083 1343Q1059 1254 1059 1169Q1059 1065 1096 969V954Q1077 871 1077 793Q1077 667 1126 551L1130 543L1128 535Q1104 448 1104 365Q1104 303 1116 243T1155 123L1159 115L1155 104Q1154 103 1145 86T1111 47T1044
9T936 -8Q895 -8 866 0T815 20T782 45T762 68Q731 58 702 46T641 16L629 14Q578 14 532 13T442 5T356 -16T270 -57L262 -63L252 -61Q246 -58 231 -53T196 -32T155 13T117 94Q89 107 71 123T43 155T28 180T23 193L20 203L25 211Q57 275 72 329T88 449Q88 475 86
503T78 563V575Q99 635 110 689T121 797Q121 832 116 868T100 944L98 952L102 961Q133 1024 148 1087T164 1217Q164 1282 147 1352L143 1366L154 1374Q155 1375 165 1385T195 1405T245 1425T317 1434Q369 1434 408 1420T472 1388T510 1355T524 1339L532 1327Z"
/>
<glyph unicode="v" glyph-name="v" horiz-adv-x="1038" d="M1038 1225L1032 1212Q1009 1173 994 1139T968 1071T954 1005T950 934Q950 923 950 912T952 889L948 874Q927 833 912 796T887 725T873 656T868 584Q868 567 869 550T872 514L868 498Q822 420 798 338T774
164Q774 147 775 130T778 96V88L772 80Q771 78 763 68T737 47T693 26T629 16H600Q569 -4 525 -21T426 -39Q389 -39 363 -30T319 -9T293 12T283 23L276 31L279 41Q281 61 282 80T283 119Q283 199 263 278T199 438L195 451Q195 665 88 836L84 852Q86 872 87 891T88
930Q88 1094 0 1237L-6 1247L0 1260Q0 1259 11 1278T48 1320T119 1364T229 1384Q259 1384 283 1379T324 1366T350 1353T362 1346L373 1337V1323Q371 1309 371 1296T371 1268Q371 1181 391 1105T455 958L457 944Q457 845 474 764T530 608Q564 679 580 742T596 879Q596
894 596 909T594 942L598 958Q623 996 639 1030T666 1099T681 1168T686 1245Q686 1259 685 1273T684 1303V1315L692 1323Q693 1324 702 1330T727 1343T766 1356T819 1362Q877 1362 918 1343T984 1300T1021 1258T1034 1237L1038 1225Z" />
<glyph unicode="w" glyph-name="w" horiz-adv-x="1507" d="M1491 1270L1485 1257Q1445 1183 1425 1111T1405 963Q1405 925 1411 889L1407 877Q1337 724 1337 578Q1337 552 1339 527T1346 475L1341 459Q1264 317 1264 164Q1264 136 1266 109T1274 53L1276 43L1270
35Q1269 33 1260 22T1232 -1T1181 -24T1106 -35Q1068 -35 1038 -29T985 -13T944 9T914 35Q885 66 872 106L870 115L877 125Q854 137 843 150T831 166L825 174V184Q828 207 828 228T829 270Q829 318 820 362T788 459Q731 336 731 199Q731 174 733 150T739 100L741
90L735 82Q734 80 726 70T699 47T654 24T588 12Q559 -8 517 -23T420 -39Q383 -39 357 -30T313 -9T286 12T276 23L270 31L272 41Q274 61 275 80T276 119Q276 199 256 278T193 438L188 451Q188 559 162 654T82 836L78 852Q80 872 81 891T82 930Q82 1094 -6 1237L-12
1247L-6 1260Q-6 1259 5 1278T42 1320T113 1364T223 1384Q253 1384 277 1379T318 1366T344 1353T356 1346L367 1337V1323Q365 1309 365 1296T365 1268Q365 1181 385 1105T449 958L451 944Q451 866 461 798T496 668Q510 713 516 755T522 842Q522 886 516 936L514
944L518 952Q550 1008 567 1056T590 1159V1161L584 1174L588 1184Q588 1183 598 1201T631 1242T694 1284T791 1303Q819 1303 841 1297T880 1284T906 1270T918 1262L928 1253V1239Q926 1225 926 1213T926 1190Q926 1151 930 1121T945 1062T970 1004T1006 940L1010
926Q1010 894 1011 868T1014 820T1019 780T1028 743Q1034 786 1034 827Q1034 852 1032 876T1026 926V936L1030 942Q1116 1087 1116 1245Q1116 1285 1110 1329L1108 1341L1118 1352Q1119 1353 1128 1359T1154 1374T1197 1388T1257 1395Q1318 1395 1361 1378T1431
1340T1471 1301T1485 1280L1491 1270Z" />
<glyph unicode="x" glyph-name="x" horiz-adv-x="991" d="M975 1167L965 1157Q886 1083 838 1001T766 825L760 811Q737 786 717 762T678 713Q696 690 715 670T756 631L764 625L766 614Q788 506 839 414T975 246L983 240L985 229Q985 228 985 210T975 164T939 104T864
43Q830 23 800 16T745 8Q721 8 703 13T672 24T653 35T645 41L637 47L635 57Q621 142 587 219T496 369Q439 303 402 224T348 55L346 45L338 39Q337 38 330 34T310 24T279 14T238 10Q187 10 150 24T86 59T43 105T17 154T4 194T0 217V231L2 242L10 248Q89 316 143
404T229 604L236 614Q256 636 274 660T309 707Q292 731 272 753T229 797L223 803L221 813Q204 919 157 1007T33 1174L23 1182L25 1196Q25 1197 28 1212T44 1249T79 1297T141 1346Q175 1366 206 1373T264 1380Q298 1380 319 1373T342 1366L354 1360L358 1348Q377
1258 410 1186T496 1051Q551 1113 589 1185T645 1343L649 1356L662 1362Q669 1365 680 1368Q689 1370 701 1372T729 1374Q778 1374 815 1360T880 1323T926 1276T954 1229T969 1194T973 1182L975 1167Z" />
<glyph unicode="y" glyph-name="y" horiz-adv-x="993" d="M1049 1217L1040 1206Q903 1051 885 864V858L879 852Q807 761 770 668T727 475V467L721 461Q649 379 609 284T563 80V70L555 63Q554 61 547 55T525 43T489 31T440 25Q417 25 390 30T330 49Q274 71 245
100T202 155T186 200T184 221L193 240Q264 312 307 402T369 604V606Q353 634 333 664T291 722T245 773T197 813L190 817L188 827Q157 928 102 1007T-39 1149L-49 1157V1169Q-49 1166 -46 1181T-33 1221T-6 1274T38 1327T105 1369T197 1386Q217 1386 229 1383T244
1380L256 1376L260 1364Q327 1170 477 1059L485 1047Q492 1030 499 1011T518 973Q518 976 519 979T520 987V995L526 1001Q601 1079 641 1167T692 1360V1374L705 1380Q707 1382 728 1390T791 1399Q840 1399 878 1387T944 1355T992 1313T1024 1272T1041 1241T1047
1229L1049 1217Z" />
<glyph unicode="z" glyph-name="z" horiz-adv-x="938" d="M950 1151L940 1141Q863 1070 816 991T748 819L741 807Q660 723 613 636T549 449L541 434L483 379Q528 365 561 358T625 350Q657 350 691 358T774 383L786 387L797 381Q798 380 809 371T833 341T858 290T872
215V201Q872 161 862 131T840 80T817 49T805 37L795 29L782 31Q736 45 703 51T641 57Q610 57 579 50T504 27H489Q446 36 416 40T360 45Q343 45 327 43T294 36T257 24T211 6H193Q191 8 172 18T131 55Q125 58 119 61T106 70Q62 94 38 120T1 170T-15 215T-18 246V256L-16
266L-10 272Q68 337 122 422T205 616L211 629Q286 706 332 794T397 981L406 995Q426 1012 444 1029T479 1067Q441 1075 412 1079T360 1083Q343 1083 327 1081T294 1074T257 1062T211 1044L201 1040L193 1044Q192 1044 176 1053T140 1084T104 1144T88 1241Q88 1292
102 1325T132 1379T163 1407T180 1417L188 1421L199 1417Q237 1403 264 1398T315 1393Q321 1393 340 1393T383 1396T429 1404T461 1419H477Q524 1404 558 1397T623 1389Q655 1389 690 1396T774 1421L786 1425L797 1419Q798 1418 806 1411T826 1387T849 1348T868
1292Q893 1271 908 1249T932 1208T944 1177T948 1163L950 1151Z" />
<glyph unicode="{" glyph-name="braceleft" horiz-adv-x="969" d="M784 858V848Q784 846 782 833T771 800T744 757T694 713Q711 698 723 682T742 654T753 633T758 623L762 610L754 598Q722 557 702 529T671 473T655 415T647 336L643 322Q623 294 608 270T580 221Q634
207 692 198T807 188Q822 188 837 189T868 193L881 195L889 186Q890 184 898 175T915 150T931 109T938 53Q938 44 938 35T936 16Q929 -25 913 -53T878 -100T846 -127T829 -137L817 -141L805 -137Q734 -103 651 -88T489 -72Q438 -72 395 -78L385 -80L377 -74Q375
-74 366 -67T344 -45Q282 -34 246 -6T192 51T169 105T164 131V139L170 147Q224 209 256 282T289 434L295 451Q333 496 356 529T391 600Q374 602 359 602T328 602Q269 602 213 595T111 573L100 571L92 575Q90 575 75 583T41 612T9 667T-6 754Q-6 806 10 840T45 893T81
920T100 928L111 932L119 928Q167 911 229 901T360 891H387Q375 923 357 960T315 1022L309 1030V1038Q308 1090 303 1128T287 1199T258 1260T211 1325L203 1335L205 1348Q204 1346 208 1356T224 1383T252 1420T296 1457T357 1485T438 1497Q469 1497 490 1491T526
1479Q598 1488 670 1510T805 1567L815 1573L827 1569Q828 1568 841 1562T871 1540T907 1498T936 1432Q941 1416 942 1402T944 1374Q944 1346 938 1324T923 1285T909 1259T901 1249L891 1239H854Q798 1239 743 1229T635 1202Q638 1196 642 1192T651 1182L655 1169Q666
1115 674 1076T694 1004T725 939T778 864L784 858Z" />
<glyph unicode="|" glyph-name="bar" horiz-adv-x="539" d="M483 1456L477 1442Q459 1379 450 1318T440 1198Q440 1150 445 1104T463 1012V995Q432 871 432 756Q432 697 440 641T465 528L469 518L465 510Q428 392 428 272Q428 212 436 154T463 37L467 25L463 14Q462
12 452 -5T419 -43T357 -81T258 -98Q199 -98 161 -80T100 -40T68 1T59 23L55 33L59 43Q82 108 93 174T104 311Q104 359 100 408T84 510V524Q96 580 103 635T111 745Q111 807 102 866T78 983L76 991L80 1001Q123 1126 123 1253Q123 1304 117 1353T96 1454L92 1468L100
1481Q101 1482 112 1495T145 1523T202 1550T283 1563Q331 1563 366 1549T424 1518T460 1485T473 1468L483 1456Z" />
<glyph unicode="}" glyph-name="braceright" horiz-adv-x="969" d="M768 1335L760 1325Q732 1290 714 1261T684 1199T667 1129T662 1038V1030L655 1022Q632 999 614 961T584 891H608Q676 891 739 901T852 928L860 932L870 928Q871 928 888 921T924 894T960 840T977
754Q977 702 962 668T929 613T896 584T879 575L868 571L860 573Q812 587 757 594T643 602Q628 602 612 602T580 600Q592 563 614 530T674 451L680 444V434Q680 357 712 282T799 147L805 139V131Q805 134 802 111T781 57T727 -4T625 -45Q613 -59 604 -66Q599 -70
594 -74L586 -80L575 -78Q533 -72 481 -72Q403 -72 319 -87T164 -137L152 -141L139 -137Q138 -136 121 -126T84 -92T48 -34T31 53Q31 84 38 108T55 149T71 175T80 186L90 195L102 193Q116 191 131 190T164 188Q218 188 275 197T387 221L344 295L328 322L322 336Q319
383 314 414T298 473T268 528T217 598L209 610L213 623Q213 624 216 632T226 653T244 682T274 713Q242 734 224 757T197 799T186 832T184 848V858L190 864Q219 899 242 933T280 1003T304 1080T313 1169L319 1182L334 1202Q281 1219 225 1229T117 1239H78L70 1249Q69
1250 63 1259T48 1284T34 1323T27 1374Q27 1431 45 1468T85 1528Q111 1554 143 1569L156 1573L166 1567Q226 1533 298 1511T442 1479Q455 1485 478 1491T530 1497Q578 1497 614 1486T676 1457T719 1420T746 1384T760 1357T764 1348L768 1335Z" />
<glyph unicode="~" glyph-name="asciitilde" horiz-adv-x="934" d="M887 883L881 877Q818 804 771 721T694 547L684 535Q670 525 655 522T621 518Q596 518 578 524Q546 512 516 512Q484 512 455 528L446 532L444 541Q410 641 358 729Q327 686 303 641T256 547L246
535Q233 528 220 525T195 522Q161 522 134 536T87 573T58 625T47 686V694L53 700Q122 772 171 847T252 1004L256 1014L264 1018Q278 1021 292 1023T322 1026Q352 1026 381 1014Q386 1016 390 1016T401 1016Q440 1016 475 997L485 985Q502 937 522 893T567 809Q593
855 614 902T649 1001L651 1012L662 1016Q691 1032 729 1032Q760 1032 788 1021T837 990T872 946T887 893V883Z" />
<glyph unicode="&#xa0;" glyph-name="nbspace" horiz-adv-x="410" />
<glyph unicode="&#xa1;" glyph-name="exclamdown" horiz-adv-x="532" d="M57 59L61 72Q81 132 91 197T102 328Q102 371 98 411T82 487V502Q94 564 107 626T121 754Q121 792 116 828T98 899L96 909L100 918Q101 919 112 933T144 964T199 994T276 1008Q321 1008
353 994T406 963T437 932T449 915L453 905L449 897Q436 862 431 825T426 748Q426 691 432 631T453 514V498Q422 412 422 311Q422 246 432 183T459 63L463 51L455 41Q454 40 441 29T402 5T340 -20T256 -31Q211 -31 176 -19T116 7T80 34T66 49L57 59ZM121 1147L125
1161Q145 1220 145 1270Q145 1288 143 1304T135 1335L131 1348L139 1358Q165 1386 203 1400T287 1415Q330 1415 367 1401T430 1358L440 1348L436 1335Q430 1318 428 1302T426 1268Q426 1216 446 1163L451 1149L440 1139Q412 1113 373 1098T287 1083Q242 1083 201
1097T131 1137L121 1147Z" />
<glyph unicode="&#xa2;" glyph-name="cent" horiz-adv-x="985" d="M909 1006L903 995L891 993Q843 991 811 987T753 974T702 948T643 903L633 897Q557 897 501 875T393 813Q396 790 403 764T422 702V690Q413 642 406 605T399 532V502Q493 449 606 449H614L621
442Q659 410 690 390T751 360T814 345T891 340H903L911 330Q912 329 916 323T924 303T932 272T936 231Q936 211 933 189T920 141Q906 98 885 70T843 24T808 -1T791 -10L778 -14L768 -6Q734 19 711 35T664 61Q662 43 663 26T664 -10Q664 -54 667 -94T680 -170L682
-182L676 -193Q675 -194 666 -205T636 -228T586 -251T514 -262Q473 -262 443 -250T391 -223T360 -195T348 -180L340 -170L344 -156Q360 -103 368 -40T377 86Q377 103 377 121T375 158Q344 170 311 177T229 184H195L186 190Q184 192 174 206T154 248Q124 257 104
271T72 299T54 323T47 336L43 346L47 354Q63 398 69 435T76 510Q76 525 76 546T73 589T65 632T51 666V682Q68 732 76 769T84 840Q84 874 77 909T55 987L51 999L59 1010Q60 1011 66 1018T84 1034T114 1054T158 1073Q167 1101 177 1116T190 1133L199 1139H207Q249
1139 290 1145T369 1165Q374 1196 375 1227T377 1290Q377 1347 371 1400T352 1493L350 1503L354 1513Q354 1516 362 1531T391 1564T446 1596T532 1610Q584 1610 618 1594T672 1558T699 1521T707 1503L711 1495L707 1485Q693 1445 682 1390T664 1272Q687 1283 709
1299T758 1337L768 1346L780 1341Q781 1341 794 1336T827 1315T869 1273T909 1204Q922 1175 926 1149T930 1102Q930 1058 921 1033T909 1006Z" />
<glyph unicode="&#xa3;" glyph-name="sterling" horiz-adv-x="1217" d="M918 678Q918 633 907 600T881 543T853 509T838 496L827 487L813 492Q762 506 727 513T659 520L672 487L674 479L670 471Q660 443 653 420T641 373Q653 375 670 376T707 389H723Q771 374
812 366T891 358Q931 358 973 367T1067 395L1079 399L1090 393Q1091 392 1103 383T1129 353T1156 300T1171 223V205Q1171 165 1161 134T1139 82T1116 50T1104 37L1094 29L1079 33Q1033 45 995 51T922 57Q881 57 843 50T756 25H741Q712 30 681 33T623 39Q598 20
560 6T463 -8Q404 -8 366 8T305 43T274 79T264 98L260 106L264 117Q287 172 298 219T309 317Q309 351 305 388T289 471V483L297 514Q266 511 235 503T166 481L156 479L145 483Q143 483 127 492T91 523T55 584T39 680Q39 734 54 769T89 825T125 854T143 864H162Q194
852 223 846T281 836V840L285 850Q306 904 317 951T328 1044Q328 1082 322 1119T301 1202L299 1214L307 1225Q307 1226 312 1232T329 1247T358 1265T399 1282Q414 1324 439 1349T487 1387T527 1403T543 1407L551 1409L559 1403Q595 1377 647 1352T757 1308T876
1278T989 1266H1001L1010 1255Q1011 1254 1016 1246T1028 1223T1039 1186T1044 1137Q1044 1121 1043 1105T1036 1069Q1025 1026 1005 997T964 949T928 923T911 915L899 909L889 918Q838 948 774 973T645 1012V1006Q645 970 650 934T668 858V844L662 823H664Q699
823 734 830T815 852L827 856L840 848Q841 847 852 837T878 807T904 755T918 678Z" />
<glyph unicode="&#xa4;" glyph-name="currency" horiz-adv-x="1311" d="M1247 713V700L1235 692Q1203 673 1180 657T1140 626T1109 595T1083 559Q1122 522 1162 491T1243 438L1255 432L1257 418Q1257 416 1258 400T1255 358T1237 302T1194 244Q1164 215 1135 203T1083
186T1044 182T1028 184L1016 186L1010 199Q990 234 960 270T895 342Q876 316 861 286T829 215L827 207L817 201Q815 200 798 194T753 188T686 201T602 250Q590 261 581 270T563 289Q555 289 552 290Q549 290 547 291L535 293L526 303Q494 357 463 391Q418 343 383
294T326 203L322 195L313 190Q311 189 294 184T250 178T188 192T117 244Q81 281 68 316T53 378T57 421T63 440L68 451L76 455Q113 473 153 502T233 569Q227 572 221 577T209 588Q165 624 147 659T125 724T124 771T129 793L131 801L141 805Q185 830 215 856T272
911Q224 961 173 1001T76 1067L68 1071L63 1079Q62 1080 57 1097T53 1142T67 1205T117 1278Q153 1315 187 1328T249 1342T294 1338T313 1331L322 1325L326 1317Q347 1275 384 1224T469 1122Q500 1151 522 1187T565 1274L571 1284L584 1288Q585 1288 600 1290T640
1288T697 1272T764 1231L784 1210Q809 1210 825 1206T844 1202L854 1198L858 1190L877 1157Q917 1197 952 1239T1010 1323L1016 1335L1028 1337Q1029 1337 1044 1338T1082 1336T1135 1319T1194 1276Q1223 1247 1236 1217T1254 1162T1258 1120T1257 1102L1255 1090L1243
1083Q1205 1062 1165 1031T1085 965L1090 963L1092 950Q1092 948 1093 944T1094 932Q1124 920 1157 893Q1192 864 1210 834T1237 777T1246 733T1247 713ZM688 893Q679 877 671 859T653 819L649 811L643 807L618 788Q600 774 585 762T555 737Q583 692 613 660T686
600Q698 617 710 637T735 680Q738 685 739 689T743 698L748 707L756 711Q777 723 794 734T827 756Q809 783 793 803T761 839T727 868T688 893Z" />
<glyph unicode="&#xa5;" glyph-name="yen" horiz-adv-x="1178" d="M1026 532Q1026 486 1015 452T990 395T964 360T950 346L940 338L926 342Q873 357 838 365T772 373H760Q712 304 686 226T653 59V49L645 43Q644 41 637 35T615 22T579 10T530 4Q507 4 480 9T420
29Q364 51 335 80T292 135T276 180T274 201L283 219Q314 250 339 285T385 358Q362 353 338 346T285 330H266Q264 331 248 340T212 373T176 434T160 532Q160 587 175 623T208 680T243 710T262 719L270 723L281 721Q336 700 383 694Q360 723 336 749T287 793L281
797L279 807Q248 907 192 987T51 1128L41 1137V1149Q41 1146 44 1161T57 1201T84 1254T128 1307T195 1349T287 1366Q307 1366 319 1363T334 1360L346 1356L350 1343Q417 1149 567 1038L575 1026Q582 1009 589 990T608 952Q608 955 609 958T610 967V975L616 981Q691
1058 731 1146T782 1339V1354L795 1360Q797 1362 818 1370T881 1378Q930 1378 968 1366T1034 1334T1082 1292T1114 1251T1131 1220T1137 1208L1139 1196L1130 1186Q993 1029 975 844V838L969 831Q944 797 922 764T883 698Q894 701 903 703T926 711L938 715L948
707Q949 706 961 696T988 664T1013 610T1026 532Z" />
<glyph unicode="&#xa6;" glyph-name="brokenbar" horiz-adv-x="530" d="M465 874L461 864Q460 862 451 846T418 811T355 776T256 760Q202 760 167 775T111 808T82 842T72 860L68 868L72 877Q87 920 93 957T100 1032Q100 1069 95 1109T78 1188L74 1198L78 1206Q95
1256 103 1293T111 1364Q111 1398 104 1432T82 1509L78 1522L84 1532Q85 1533 95 1545T128 1571T184 1596T266 1608Q309 1608 342 1597T397 1572T431 1547T444 1534L455 1524L451 1509Q435 1458 428 1424T420 1360Q420 1331 426 1300T446 1225L449 1212Q433 1175
429 1131T424 1055Q424 1014 433 974T461 883L465 874ZM465 -102L461 -111Q460 -113 451 -129T418 -164T354 -199T252 -215Q200 -215 166 -201T111 -168T82 -135T72 -117L68 -106L72 -98Q87 -55 93 -18T100 57Q100 92 95 132T78 213L74 221L78 229Q95 279 103 316T111
389Q111 423 104 457T82 535L78 547L84 557Q85 558 95 570T128 596T184 621T266 633Q309 633 342 622T397 597T431 571T444 557L455 547L451 535Q435 484 428 449T420 383Q420 354 426 324T446 250L449 236Q433 197 429 153T424 78Q424 38 433 -1T461 -92L465 -102Z"
/>
<glyph unicode="&#xa7;" glyph-name="section" horiz-adv-x="971" d="M920 799L911 791Q866 740 829 670T768 530Q780 528 792 527T819 526H829L836 520Q837 519 844 512T860 490T876 454T883 406Q883 387 880 366T866 322L860 311Q868 294 875 275T885 233Q887
222 887 213T887 195Q887 161 880 135T862 90T844 61T834 49L825 41L811 43Q774 49 747 52T696 55Q677 55 660 53T624 45T584 32T537 12L524 10Q500 15 473 16T424 18Q395 18 370 15T319 5T267 -13T209 -39L201 -43L190 -41Q189 -41 170 -33T127 -1T85 64T66 174Q66
216 77 245T103 292T129 318T143 328L152 332L160 330Q189 322 215 319T266 315Q294 315 321 318T377 330Q343 354 318 369T267 394T208 407T127 416L115 418L106 428Q105 429 101 436T93 457T84 489T80 528Q80 547 83 563T94 600Q86 620 84 633T82 649V653L90
668Q108 686 127 711T165 766T201 829T233 897Q212 902 187 904T127 909L115 911L106 922Q105 923 101 930T93 951T84 983T80 1022Q80 1050 83 1072T96 1114Q84 1137 75 1171T66 1247Q66 1289 77 1318T103 1365T129 1391T143 1401L152 1405L160 1403Q218 1391 266
1391Q291 1391 314 1394T361 1402T408 1415T461 1432L469 1436L477 1434Q512 1426 541 1422T596 1417Q640 1417 679 1429T770 1464L782 1468L793 1464Q794 1463 806 1455T834 1428T864 1380T885 1307Q887 1296 887 1287T887 1268Q887 1234 880 1208T862 1163T844
1134T834 1122L825 1114L811 1116Q773 1122 745 1126T692 1130Q660 1130 632 1123T563 1098Q594 1080 623 1067T682 1043T746 1027T819 1020H829L836 1014Q837 1013 845 1006T862 984T878 948T885 899Q885 893 885 888T883 877Q891 865 897 853T908 831T915 816T918
811L920 799ZM483 795Q462 760 443 720T412 641Q432 636 454 635T502 631Q523 660 543 694T582 766Q559 777 535 783T483 795Z" />
<glyph unicode="&#xa8;" glyph-name="dieresis" horiz-adv-x="719" d="M719 1784L713 1767Q670 1682 670 1606V1587V1575L659 1567Q613 1538 553 1538Q516 1538 481 1549T416 1583L406 1591L408 1604Q410 1618 410 1630T410 1657Q410 1688 407 1719T395 1782L393
1796L406 1804Q435 1827 473 1839T549 1851Q594 1851 634 1837T707 1796L719 1784ZM342 1802L336 1788Q322 1753 316 1719T309 1653Q309 1639 309 1627T313 1602L315 1591L307 1583Q284 1560 248 1547T168 1534Q136 1534 107 1541T57 1563L45 1569L47 1585Q49 1594
49 1602T49 1620Q49 1657 40 1693T8 1767L0 1782L12 1794Q43 1822 91 1837T193 1853Q238 1853 274 1843T330 1812L342 1802Z" />
<glyph unicode="&#xa9;" glyph-name="copyright" horiz-adv-x="1473" d="M1417 1296L1413 1284Q1396 1230 1387 1184T1378 1092Q1378 1022 1401 944V932Q1385 879 1379 834T1372 745Q1372 662 1403 573V557Q1384 506 1376 461T1368 369Q1368 286 1399 193L1403
184L1399 174Q1398 173 1394 162T1379 137T1346 108T1290 86Q1285 56 1275 36T1253 3T1234 -16T1225 -23L1214 -31L1204 -27Q1155 -8 1113 0T1028 8Q996 8 965 4T899 -12H887Q839 2 799 9T721 16Q681 16 643 9T563 -14H549Q504 3 464 11T383 20Q343 20 304 12T221
-12L213 -14L205 -10Q203 -10 192 -6T168 10T141 44T121 102Q103 114 90 127T70 152T59 172T55 182L51 190L55 199Q75 251 85 300T96 401Q96 437 91 475T76 557L78 569Q90 617 96 659T102 743Q102 787 95 830T72 922L70 930L74 938Q94 991 103 1038T113 1133Q113
1171 107 1211T88 1294L86 1307L92 1317Q93 1318 97 1324T109 1339T130 1357T164 1372Q170 1406 184 1429T213 1467T240 1487T254 1495H270Q318 1473 362 1464T453 1454Q517 1454 594 1473H604Q689 1448 762 1448Q802 1448 841 1454T924 1477H938Q988 1457 1031
1447T1120 1436Q1155 1436 1190 1442T1264 1460L1274 1464L1282 1456Q1283 1455 1290 1451T1305 1437T1323 1410T1337 1368Q1355 1360 1368 1350T1390 1330T1403 1314T1409 1307L1417 1296ZM387 565L385 557Q368 508 359 463T350 373Q350 348 351 325T358 276Q371
274 383 273T408 272Q440 272 474 278T549 293H559Q643 268 717 268Q757 268 796 275T877 297L885 301L891 297Q937 277 980 268T1067 258H1094Q1103 293 1108 327T1114 399Q1114 437 1109 474T1094 557V569Q1106 617 1112 659T1118 743Q1118 787 1111 830T1090
922V938Q1110 991 1120 1039T1130 1135Q1130 1147 1130 1159T1128 1186Q1114 1188 1102 1188T1077 1188Q1045 1188 1013 1183T946 1167H934Q886 1181 845 1187T766 1194Q726 1194 688 1188T608 1165L602 1161L594 1165Q549 1182 509 1191T428 1200Q413 1200 399
1199T371 1196Q366 1168 363 1142T360 1090Q360 1054 366 1018T383 944V932Q369 879 362 835T354 748Q354 704 362 662T385 573L387 565ZM950 397L944 381L926 385Q884 393 844 396T762 399Q720 399 680 396T598 385L580 381L573 399Q568 412 565 424T559 449Q524
455 494 473L479 481L481 498Q492 558 498 614T504 727Q504 783 498 836T481 944L479 961L494 969L528 983Q531 1026 551 1061L559 1073L573 1071Q663 1059 754 1059Q840 1059 930 1071L946 1073L952 1059Q965 1037 970 1012T975 961Q975 935 970 909T954 860L946
846L930 848Q885 856 842 859T754 862H709Q706 827 706 791T705 721Q705 689 705 658T707 596Q721 594 735 594T764 594Q806 594 845 597T926 608L942 610L950 596Q961 574 966 549T971 500Q971 472 966 446T950 397Z" />
<glyph unicode="&#xaa;" glyph-name="ordfeminine" horiz-adv-x="932" d="M954 526L950 514Q951 515 940 495T902 451T833 406T727 385Q699 385 677 390T638 402T612 415T602 422L590 430L592 442Q592 459 591 477T588 514Q568 516 549 516T510 516Q470 516 432
514T356 506Q354 493 355 481T356 455L358 446L350 438Q349 436 341 428T317 411T277 395T219 387Q162 387 123 400T57 432T15 474T-8 515T-18 545T-20 555V565L-14 571Q13 607 36 653T75 747T101 843T111 930V938L117 946Q148 988 172 1040T213 1149T238 1259T248
1358V1372L258 1380Q259 1381 266 1385T286 1395T319 1404T365 1409Q386 1409 412 1405T467 1389Q490 1400 519 1405T586 1411Q620 1411 644 1403T685 1384T710 1364T721 1354L725 1335Q723 1326 723 1318T723 1300Q723 1261 730 1222T748 1146T774 1073T805 1006Q808
996 815 989L821 981L819 973Q819 967 818 960T817 946Q817 894 829 837T859 726T901 623T948 539L954 526ZM797 182Q797 141 786 110T762 57T736 25T721 12L711 4L698 8Q655 19 605 25T502 31Q433 31 368 22T254 -4L244 -8L233 -4Q231 -3 215 5T179 35T145 91T129
182Q129 230 143 262T176 313T209 341T227 350H246Q292 335 357 326T492 317Q547 317 599 323T696 344L709 348L719 340Q720 339 731 330T756 302T782 254T797 182ZM473 848L469 836Q460 814 449 795T426 756H487H520Q509 780 497 803T473 848Z" />
<glyph unicode="&#xab;" glyph-name="guillemotleft" horiz-adv-x="1413" d="M662 526Q662 524 664 514T666 485Q666 436 650 402T610 344T558 306T507 285T469 275T455 272H442L434 285Q404 326 362 367T271 446T174 512T82 557L68 569Q66 571 58 591T49 643Q49
662 54 683T72 729Q47 769 47 823Q47 840 50 854T58 879T65 896T70 903L74 911L84 913Q125 926 176 952T278 1014T376 1089T455 1171L463 1182H475Q473 1182 487 1180T523 1170T571 1148T620 1109T658 1050T674 967Q674 945 671 933T668 918L664 905L651 899Q585
874 516 828T387 729Q415 701 446 674T511 623T579 578T645 543L657 539L662 526ZM1337 526Q1337 524 1339 514T1341 485Q1341 436 1325 402T1285 344T1233 306T1182 285T1144 275T1130 272H1118L1110 285Q1080 326 1038 367T947 446T850 512T758 557L743 569Q741
571 733 591T725 643Q725 662 730 683T748 729Q723 769 723 823Q723 840 726 854T733 879T740 896T745 903L750 911L760 913Q800 926 851 952T954 1014T1052 1089T1130 1171L1139 1182H1151Q1149 1182 1163 1180T1199 1170T1247 1148T1296 1109T1334 1050T1350
967Q1350 945 1347 933T1343 918L1339 905L1327 899Q1261 874 1192 828T1063 729Q1091 701 1122 674T1187 623T1255 578T1321 543L1333 539L1337 526Z" />
<glyph unicode="&#xac;" glyph-name="logicalnot" horiz-adv-x="1212" d="M1153 623L1151 614Q1132 563 1121 489T1110 338Q1110 290 1114 246T1130 164L1135 152L1126 141Q1125 140 1116 129T1087 104T1038 79T967 68Q926 68 895 80T843 106T811 132T799 147L793
158L795 172Q809 222 816 280T823 399Q823 452 817 502H778Q733 502 691 496T604 475H590Q545 484 499 491T399 498Q339 498 280 489T170 461L162 459L152 463Q150 463 134 472T98 504T63 566T47 664Q47 719 62 755T95 812T129 842T147 852H166Q211 836 262 829T367
821Q418 821 471 826T567 846H584Q635 827 685 818T784 809Q832 809 879 817T977 842L991 846L1001 838Q1002 837 1010 830T1030 807T1052 769T1069 715Q1091 704 1106 690T1131 664T1145 643T1151 633L1153 623Z" />
<glyph unicode="&#xad;" glyph-name="uni00AD" horiz-adv-x="954" d="M901 686Q901 640 890 606T864 548T838 513T825 500L815 492L801 494Q750 509 716 516T651 524Q622 524 591 518T516 498L504 496Q467 511 422 515T346 520Q306 520 266 511T174 483H156Q154
484 138 493T102 526T67 588T51 686Q51 740 66 776T99 833T134 862T152 872L160 877L170 872Q213 857 250 851T326 844Q363 844 400 849T481 866L489 870L498 866Q547 849 584 842T655 834Q689 834 723 841T801 862L813 866L823 860Q824 859 836 849T862 818T887
764T901 686Z" />
<glyph unicode="&#xae;" glyph-name="registered" horiz-adv-x="1473" d="M1417 1296L1413 1284Q1396 1230 1387 1184T1378 1092Q1378 1022 1401 944V932Q1385 879 1379 834T1372 745Q1372 662 1403 573V557Q1384 506 1376 461T1368 369Q1368 286 1399 193L1403
184L1399 174Q1398 173 1394 162T1379 137T1346 108T1290 86Q1285 56 1275 36T1253 3T1234 -16T1225 -23L1214 -31L1204 -27Q1155 -8 1113 0T1028 8Q996 8 965 4T899 -12H887Q839 2 799 9T721 16Q681 16 643 9T563 -14H549Q504 3 464 11T383 20Q343 20 304 12T221
-12L213 -14L205 -10Q203 -10 192 -6T168 10T141 44T121 102Q103 114 90 127T70 152T59 172T55 182L51 190L55 199Q75 251 85 300T96 401Q96 437 91 475T76 557L78 569Q90 617 96 659T102 743Q102 787 95 830T72 922L70 930L74 938Q94 991 103 1038T113 1133Q113
1171 107 1211T88 1294L86 1307L92 1317Q93 1318 97 1324T109 1339T130 1357T164 1372Q170 1406 184 1429T213 1467T240 1487T254 1495H270Q318 1473 362 1464T453 1454Q517 1454 594 1473H604Q689 1448 762 1448Q802 1448 841 1454T924 1477H938Q988 1457 1031
1447T1120 1436Q1155 1436 1190 1442T1264 1460L1274 1464L1282 1456Q1283 1455 1290 1451T1305 1437T1323 1410T1337 1368Q1355 1360 1368 1350T1390 1330T1403 1314T1409 1307L1417 1296ZM387 565L385 557Q368 508 359 463T350 373Q350 348 351 325T358 276Q371
274 383 273T408 272Q440 272 474 278T549 293H559Q643 268 717 268Q757 268 796 275T877 297L885 301L891 297Q937 277 980 268T1067 258H1094Q1103 293 1108 327T1114 399Q1114 437 1109 474T1094 557V569Q1106 617 1112 659T1118 743Q1118 787 1111 830T1090
922V938Q1110 991 1120 1039T1130 1135Q1130 1147 1130 1159T1128 1186Q1114 1188 1102 1188T1077 1188Q1045 1188 1013 1183T946 1167H934Q886 1181 845 1187T766 1194Q726 1194 688 1188T608 1165L602 1161L594 1165Q549 1182 509 1191T428 1200Q413 1200 399
1199T371 1196Q366 1168 363 1142T360 1090Q360 1054 366 1018T383 944V932Q369 879 362 835T354 748Q354 704 362 662T385 573L387 565ZM721 403L709 395Q665 371 608 371Q551 371 502 395L487 401L489 418Q497 489 500 557T504 694Q504 762 501 828T489 961L487
977L502 983Q528 999 554 1005T606 1012H612Q619 1023 626 1032T643 1051L655 1061L672 1053Q738 1014 812 993T973 965L991 963L993 944Q993 938 994 932T995 920Q995 878 979 834T934 756L922 741L905 750Q857 773 809 790T711 819Q709 785 709 751T709 682Q709
547 721 418V403Z" />
<glyph unicode="&#xaf;" glyph-name="overscore" horiz-adv-x="539" d="M539 1657Q536 1620 518 1590T469 1542L461 1538L453 1540Q397 1552 342 1558T231 1565Q193 1565 154 1562T74 1552L59 1556Q32 1572 16 1601T0 1667Q0 1709 21 1746T80 1804L88 1808L96
1806Q147 1797 196 1792T293 1786Q335 1786 375 1790T457 1802L467 1804L475 1798Q506 1775 522 1741T539 1669V1657Z" />
<glyph unicode="&#xb0;" glyph-name="degree" horiz-adv-x="684" d="M610 918Q608 880 590 849T543 801L535 797L526 799Q477 810 428 814T328 819Q283 819 238 815T147 803L139 801L131 805Q100 822 86 852T72 924Q72 953 84 983Q61 1002 46 1027T25 1077L23
1090L33 1100Q88 1149 131 1212T205 1350L211 1362L223 1364Q228 1366 234 1366T246 1366Q275 1366 304 1355T358 1325Q381 1342 410 1351T467 1360Q476 1360 486 1359T506 1354L516 1350L520 1339Q543 1265 575 1203T651 1087L655 1081V1075Q655 1040 642 1013T606
965Q609 954 609 942T610 918ZM354 1139Q312 1092 279 1040H338Q356 1040 375 1040T414 1042Q401 1067 386 1091T354 1139Z" />
<glyph unicode="&#xb1;" glyph-name="plusminus" horiz-adv-x="952" d="M901 676Q901 630 890 596T864 538T838 502T825 489L815 481L801 485Q750 501 716 507T653 514Q645 514 639 514T627 512V481Q627 438 630 399T643 326L645 311L639 301Q638 300 629 289T599
265T549 242T477 231Q436 231 405 244T354 272T323 300T311 313L303 326L307 338Q318 375 325 419T338 510Q300 508 261 499T174 473H156Q154 474 138 483T102 516T67 578T51 676Q51 730 66 766T99 823T134 853T152 862L160 866L170 864Q213 847 252 841T328 834H340Q337
877 331 917T315 989V1008Q316 1009 325 1024T354 1058T409 1091T496 1106Q548 1106 582 1090T635 1053T662 1017T670 999L674 989L670 981Q657 950 648 909T633 823H655Q689 823 723 830T801 852L813 856L823 850Q824 849 836 839T862 808T887 754T901 676ZM901
-31Q901 -77 890 -111T864 -169T838 -204T825 -217L815 -225L801 -223Q750 -208 716 -201T651 -193Q622 -193 591 -199T516 -219L504 -221Q467 -206 422 -202T346 -197Q306 -197 266 -206T174 -233H156Q154 -232 138 -223T102 -190T67 -129T51 -31Q51 24 66 59T99
116T134 146T152 156L160 160L170 156Q213 140 250 134T326 127Q363 127 400 133T481 150L489 154L498 150Q547 133 584 125T655 117Q689 117 723 124T801 145L813 150L823 143Q824 142 836 132T862 101T887 47T901 -31Z" />
<glyph unicode="&#xb2;" glyph-name="twosuperior" horiz-adv-x="664" d="M565 1124L557 1118Q538 1101 516 1075T472 1018T428 953T387 885H420Q454 885 485 888T545 899L555 901L563 895Q564 894 572 886T591 863T609 823T618 766Q618 733 608 709T586 668T564
643T553 633L545 627L535 631Q493 643 443 649T342 655Q296 655 254 651T178 637H164Q162 638 150 645T123 668T96 711T84 780V793Q75 811 72 826T68 850Q68 859 69 863T70 870L78 883Q97 898 123 927T177 994T232 1073T283 1155Q241 1153 204 1148T137 1135L131
1133L123 1137Q122 1137 110 1143T84 1166T57 1210T45 1280Q45 1322 58 1348T86 1390T115 1412T131 1419H145Q187 1402 249 1392T377 1382Q412 1382 444 1385T506 1397L514 1399L522 1395Q523 1394 532 1386T552 1363T571 1323T580 1266Q578 1237 571 1215T553
1176Q561 1159 562 1148T565 1135V1124Z" />
<glyph unicode="&#xb3;" glyph-name="threesuperior" horiz-adv-x="680" d="M633 813L631 805Q629 803 625 795T610 774Q608 753 603 737T591 708T579 690T573 682L567 674L555 676H522Q482 676 439 671T354 655T274 631T207 600L193 598Q194 598 176 603T136
625T96 675T78 764Q78 793 86 814T105 848T125 869T135 877L150 879Q162 877 176 876T207 874Q242 874 282 879T362 893Q362 899 363 905T365 920Q333 918 304 914T254 905L244 901L238 907Q237 907 229 913T212 934T194 969T186 1022Q186 1050 194 1070T212 1105T230
1127T240 1135L246 1141L256 1137Q276 1130 305 1126T369 1120V1151Q349 1153 330 1154T293 1155Q246 1155 205 1150T131 1135L125 1133L117 1137Q116 1137 104 1143T78 1166T51 1210T39 1280Q39 1322 52 1348T80 1390T109 1412T125 1419H139Q181 1402 243 1392T371
1382Q406 1382 438 1385T500 1397L508 1399L516 1395Q518 1393 533 1379T561 1333Q586 1321 599 1308T614 1292L621 1284L618 1274Q609 1240 605 1191T600 1085Q600 1047 602 1009T608 935T618 871T631 821L633 813Z" />
<glyph unicode="&#xb4;" glyph-name="acute" horiz-adv-x="414" d="M414 1810L403 1804Q328 1745 280 1679T190 1544L186 1536L174 1534Q169 1534 164 1533T154 1532Q128 1532 104 1540T59 1564T25 1599T4 1645L0 1657L8 1665Q68 1731 117 1806T201 1966L207 1978H219Q224
1980 228 1980T238 1980Q271 1980 301 1968T356 1934T395 1884T412 1823L414 1810Z" />
<glyph unicode="&#xb5;" glyph-name="mu" horiz-adv-x="1192" d="M520 1303L514 1288Q491 1229 480 1154T469 1004Q469 953 473 907T489 825L492 817L487 811Q469 751 460 680T451 537Q451 480 456 427T475 332L524 352L541 356Q565 353 588 351T633 348Q701 348
764 367Q759 396 752 426T735 487V500Q750 576 750 647Q750 713 738 775T702 897L698 905L700 913Q716 960 722 1004T729 1096Q729 1148 720 1200T690 1307L686 1319L692 1331Q693 1332 704 1345T740 1373T802 1400T893 1413Q935 1413 966 1403T1020 1381T1053
1359T1067 1348L1075 1337L1071 1323Q1047 1234 1047 1149Q1047 1047 1083 948L1085 934Q1067 848 1067 770Q1067 643 1116 530V514Q1092 428 1092 344Q1092 282 1104 222T1143 102L1147 94L1143 84Q1143 83 1134 66T1100 27T1033 -11T926 -29Q885 -29 856 -21T805
-1T772 24T752 47Q721 38 692 26T631 -4L616 -6H553Q522 -6 493 -7T436 -14Q439 -51 446 -86T463 -154L465 -164L461 -172Q460 -174 451 -188T419 -219T360 -250T268 -264Q204 -264 164 -248T100 -211T68 -174T59 -154L55 -145L59 -135Q85 -76 99 -2T113 152Q113
195 109 237T96 319V332Q113 388 121 456T129 594Q129 654 123 710T104 811L100 819L104 827Q129 886 142 964T156 1122Q156 1173 150 1221T133 1311L131 1323L139 1333Q140 1334 151 1344T185 1367T242 1389T324 1399Q371 1399 406 1386T464 1356T499 1327T512
1313L520 1303Z" />
<glyph unicode="&#xb6;" glyph-name="paragraph" horiz-adv-x="1139" d="M1063 1315L1059 1303Q1040 1247 1030 1194T1020 1087Q1020 1007 1044 928V913Q1014 803 1014 705Q1014 654 1022 605T1047 508V492Q1010 391 1010 285Q1010 232 1018 182T1044 80L1047
70L1042 61Q1041 59 1032 44T999 10T937 -22T840 -37Q780 -37 742 -22T681 13T649 49T639 68L637 78L641 86Q663 140 674 196T686 313V326Q657 363 623 397T550 461T473 516T395 561L385 571Q331 649 259 706T92 805L78 809L76 821Q74 823 73 833T72 858Q72 875
75 898T90 948Q68 976 54 1015T39 1108Q39 1131 42 1149T50 1179T58 1199T63 1208L70 1219H84Q136 1222 179 1231T261 1256T337 1297T414 1356L420 1362H428Q434 1362 439 1363T449 1364Q495 1372 533 1383T606 1409T673 1445T739 1495L745 1501H756Q757 1501 771
1499T805 1488T850 1460T895 1405Q934 1400 963 1388T1013 1362T1043 1337T1055 1325L1063 1315ZM543 1010L528 1004Q488 1000 455 994T391 977Q488 880 618 831L629 829L633 821Q644 803 659 786T690 754Q681 832 659 903V920Q678 965 687 1009T702 1098Q660 1084
622 1062T543 1010Z" />
<glyph unicode="&#xb7;" glyph-name="middot" horiz-adv-x="442" d="M385 852L381 838Q360 776 360 729Q360 711 363 695T371 664L375 651L367 641Q341 613 303 599T221 584Q176 584 139 598T76 641L66 651L70 664Q82 697 82 735Q82 758 77 784T61 836L55 850L66
860Q93 886 133 900T219 915Q264 915 305 901T375 862L385 852Z" />
<glyph unicode="&#xb8;" glyph-name="cedilla" horiz-adv-x="487" d="M487 -215L479 -225Q461 -244 436 -256V-270Q436 -300 424 -328L420 -340L406 -342Q258 -363 121 -451L111 -459L100 -453Q79 -444 61 -428T30 -390T8 -342T0 -287Q0 -249 16 -219L23 -209L33
-207Q88 -199 138 -187T236 -154Q241 -125 242 -96T244 -39Q244 -10 243 19T236 76L233 84L238 90Q256 125 287 144T358 164Q387 164 416 154T469 123L479 115L477 100Q469 68 466 35T463 -33Q463 -75 468 -118T485 -205L487 -215Z" />
<glyph unicode="&#xb9;" glyph-name="onesuperior" horiz-adv-x="586" d="M530 713L528 705Q527 704 520 691T497 663T453 636T383 623Q342 623 316 635T274 662T252 690T244 705V719Q251 738 256 767T264 832T270 906T272 985Q272 1005 271 1025T270 1065Q252
1046 236 1027T209 991L205 985L197 983Q193 979 166 979Q149 979 122 990T68 1021T23 1072T4 1141Q4 1169 11 1184T20 1202L25 1210L31 1212Q63 1224 103 1246T184 1297T259 1359T319 1427L326 1436L336 1438Q337 1438 350 1436T381 1427T421 1408T460 1377T490
1331T502 1266Q502 1250 500 1242T498 1231L496 1221L492 1219Q505 1208 513 1201Q517 1197 520 1192L526 1184L524 1174Q513 1136 509 1079T504 958Q504 887 510 823T528 721L530 713Z" />
<glyph unicode="&#xba;" glyph-name="ordmasculine" horiz-adv-x="975" d="M913 610Q913 564 902 530T878 472T853 437T840 424L829 416L815 420Q764 435 731 442T666 449Q637 449 606 443T530 422H516Q468 431 432 437T360 444Q320 444 280 435T188 408L180 406L170
410Q168 410 152 419T116 452T82 515T66 616Q66 629 66 638T68 659Q66 661 65 662T62 666Q60 668 59 670L51 682L55 694Q72 747 80 803T88 915Q88 965 82 1011T63 1100L59 1110L63 1118Q64 1121 66 1125Q68 1128 70 1132T76 1141Q71 1159 69 1180T66 1227Q66 1282
81 1318T114 1375T148 1405T166 1415L174 1419L182 1415Q226 1400 263 1393T338 1386Q373 1386 413 1390T494 1409H512Q562 1392 599 1384T670 1376Q704 1376 738 1383T815 1405L827 1409L838 1401Q839 1400 851 1390T876 1359T901 1305T913 1227V1210V1198Q930
1180 937 1165T946 1147L948 1139L944 1128Q924 1076 912 1008T899 866Q899 829 903 792T918 719L922 707L913 696Q912 694 910 692Q908 689 901 682Q906 667 909 649T913 610ZM811 168Q811 126 799 96T771 44T743 12T729 0L719 -6L705 -2Q652 15 588 23T461 31Q405
31 353 25T260 6L250 2L242 6Q240 7 225 15T191 44T158 99T143 186Q143 238 159 271T195 324T231 351T250 360H268Q294 350 328 342T400 328T478 319T559 315Q602 315 643 318T719 332L731 336L741 328Q742 327 753 318T777 289T800 240T811 168ZM614 952Q614 980
613 1007T606 1061Q589 1058 571 1052T530 1038H516Q454 1051 406 1057Q390 1006 382 948T373 829Q373 814 373 799T375 770Q403 772 433 777T494 793H512Q535 783 554 777T592 766Q604 812 609 859T614 952Z" />
<glyph unicode="&#xbb;" glyph-name="guillemotright" horiz-adv-x="1413" d="M1346 569L1339 561L1331 557Q1288 541 1240 512T1143 446T1053 368T979 285L973 272H958Q957 272 942 274T903 284T852 306T802 344T764 402T748 485Q748 504 750 514T752 526L756
539L768 543Q800 557 834 577T901 622T965 674T1024 731Q995 757 963 782T897 829T829 869T762 899L750 905L745 918Q745 920 742 933T739 969Q739 1013 753 1046T788 1103T834 1142T881 1166T919 1178T938 1182H952L958 1171Q990 1130 1037 1090T1135 1014T1237
953T1329 913L1339 911L1343 903Q1345 901 1355 879T1366 821Q1366 793 1359 771T1341 729Q1354 704 1358 683T1362 643Q1362 611 1354 591T1346 569ZM670 569L664 561L655 557Q612 541 564 512T467 446T377 368T303 285L297 272H283Q282 272 267 274T228 284T177
306T127 344T88 402T72 485Q72 504 74 514T76 526L80 539L92 543Q124 557 158 577T225 622T289 674T348 731Q319 757 287 782T221 829T153 869T86 899L74 905L70 918Q70 920 67 933T63 969Q63 1013 77 1046T112 1103T158 1142T205 1166T243 1178T262 1182H276L283
1171Q315 1130 362 1090T460 1014T561 953T653 913L664 911L668 903Q669 902 672 896T680 879T687 854T690 821Q690 793 684 771T666 729Q678 704 682 683T686 643Q686 611 678 591T670 569Z" />
<glyph unicode="&#xbc;" glyph-name="onequarter" horiz-adv-x="1618" d="M1053 1255L1047 1247Q1027 1215 1012 1174T985 1090T967 1002T961 920Q961 910 961 902T963 885L961 872Q942 837 928 796T903 712T887 626T881 545Q881 531 882 518T885 492L887 485L883
479Q865 447 850 411T825 335T809 255T803 176Q803 161 804 146T807 117L809 109L803 102Q802 101 795 93T773 76T735 59T680 51Q615 51 578 69T520 111Q497 137 489 172L487 178L492 186Q513 217 530 257T559 340T577 430T584 520V539L586 549Q603 582 616 623T639
708T654 797T659 881Q659 893 659 904T657 926L655 932L659 938Q680 969 697 1010T726 1097T745 1189T752 1278Q752 1287 751 1296T750 1315L748 1327L756 1333Q757 1334 764 1339T784 1349T816 1359T862 1364Q913 1364 947 1349T1004 1316T1036 1283T1047 1266L1053
1255ZM1569 90L1565 82Q1565 81 1559 68T1536 40T1491 13T1419 0Q1379 0 1353 12T1312 39T1290 67T1282 82V96Q1287 109 1291 126T1298 166Q1256 172 1210 172Q1164 172 1123 167T1049 152L1042 150L1034 154Q1033 154 1021 160T995 183T968 227T956 297Q956 306
956 314T958 330Q949 347 944 362T938 391Q938 407 940 416T944 428L946 436L952 440Q971 452 998 474T1055 526T1116 590T1174 658T1223 723T1257 780L1262 791L1272 793Q1275 794 1279 795Q1287 797 1298 797Q1341 797 1373 777T1426 730T1457 674T1468 631V625Q1490
619 1506 610T1534 592T1551 577T1559 569L1565 561L1563 551Q1552 514 1547 457T1542 336Q1542 301 1543 266T1548 200T1556 141T1567 96L1569 90ZM563 713L561 705Q560 704 553 691T529 663T485 636T416 623Q375 623 349 635T306 662T284 690T276 705V719Q283
738 288 767T297 832T303 906T305 985Q305 1005 304 1025T303 1065Q285 1046 269 1027T242 991L238 985L229 983Q225 979 199 979Q182 979 155 990T101 1021T56 1072T37 1141Q37 1169 44 1184T53 1202L57 1210L63 1212Q96 1224 136 1246T216 1297T292 1359T352
1427L358 1436L369 1438Q370 1438 383 1436T414 1427T454 1408T493 1377T523 1331T535 1266Q535 1250 533 1242T530 1231L528 1221L524 1219Q531 1214 536 1210T546 1201Q550 1197 553 1192L559 1184L557 1174Q546 1136 542 1079T537 958Q537 887 543 823T561 721L563
713ZM1309 459Q1295 443 1283 428T1260 399H1282H1311Q1311 415 1310 430T1309 459Z" />
<glyph unicode="&#xbd;" glyph-name="onehalf" horiz-adv-x="1581" d="M1053 1255L1047 1247Q1027 1215 1012 1174T985 1090T967 1002T961 920Q961 910 961 902T963 885L961 872Q942 837 928 796T903 712T887 626T881 545Q881 531 882 518T885 492L887 485L883
479Q865 447 850 411T825 335T809 255T803 176Q803 161 804 146T807 117L809 109L803 102Q802 101 795 93T773 76T735 59T680 51Q615 51 578 69T520 111Q497 137 489 172L487 178L492 186Q513 217 530 257T559 340T577 430T584 520V539L586 549Q603 582 616 623T639
708T654 797T659 881Q659 893 659 904T657 926L655 932L659 938Q680 969 697 1010T726 1097T745 1189T752 1278Q752 1287 751 1296T750 1315L748 1327L756 1333Q757 1334 764 1339T784 1349T816 1359T862 1364Q913 1364 947 1349T1004 1316T1036 1283T1047 1266L1053
1255ZM1475 473L1466 465Q1447 448 1426 422T1382 365T1337 300T1296 231H1321Q1356 231 1390 234T1454 246L1464 248L1473 244Q1474 243 1482 235T1501 212T1519 172T1528 115Q1528 82 1518 58T1496 17T1474 -8T1462 -18L1454 -25L1444 -23Q1400 -10 1349 -3T1247
4Q1202 4 1161 -1T1087 -16L1079 -18L1071 -14Q1070 -14 1058 -8T1032 15T1005 59T993 129V139Q984 158 981 173T977 197Q977 206 978 210T979 217L981 225L987 229Q1005 245 1031 274T1084 341T1139 419T1190 502Q1150 500 1113 496T1047 483H1032Q1030 484 1018
491T991 514T966 558T954 627Q954 669 967 696T995 738T1024 760T1038 768L1047 770L1055 766Q1076 758 1102 752T1159 741T1220 734T1284 731Q1319 731 1352 734T1413 745L1423 748L1432 741Q1433 739 1441 732T1460 708T1478 669T1487 612Q1487 583 1480 562T1462
524Q1468 507 1470 496T1473 483L1475 473ZM563 713L561 705Q560 704 553 691T529 663T485 636T416 623Q375 623 349 635T306 662T284 690T276 705V719Q283 738 288 767T297 832T303 906T305 985Q305 1005 304 1025T303 1065Q285 1046 269 1027T242 991L238 985L229
983Q225 979 199 979Q182 979 155 990T101 1021T56 1072T37 1141Q37 1169 44 1184T53 1202L57 1210L63 1212Q96 1224 136 1246T216 1297T292 1359T352 1427L358 1436L369 1438Q370 1438 383 1436T414 1427T454 1408T493 1377T523 1331T535 1266Q535 1250 533 1242T530
1231L528 1221L524 1219Q531 1214 536 1210T546 1201Q550 1197 553 1192L559 1184L557 1174Q546 1136 542 1079T537 958Q537 887 543 823T561 721L563 713Z" />
<glyph unicode="&#xbe;" glyph-name="threequarters" horiz-adv-x="1675" d="M1120 1255L1114 1247Q1095 1215 1079 1174T1052 1090T1035 1002T1028 920Q1028 910 1028 902T1030 885L1028 872Q1010 837 995 796T970 712T954 626T948 545Q948 531 949 518T952 492L954
485L950 479Q932 447 917 411T892 335T876 255T870 176Q870 161 871 146T874 117L877 109L870 102Q869 101 862 93T841 76T803 59T748 51Q683 51 645 69T588 111Q565 137 557 172L555 178L559 186Q580 217 597 257T626 340T644 430T651 520V539L653 549Q670 582
683 623T707 708T722 797T727 881Q727 893 727 904T725 926L723 932L727 938Q748 969 765 1010T794 1097T812 1189T819 1278Q819 1287 818 1296T817 1315L815 1327L823 1333Q824 1334 831 1339T851 1349T884 1359T930 1364Q981 1364 1015 1349T1072 1316T1103 1283T1114
1266L1120 1255ZM637 813L635 805Q633 803 629 795T614 774Q612 753 607 737T595 708T584 690T578 682L571 674L559 676H526Q486 676 443 671T358 655T278 631T211 600L197 598Q198 598 180 603T140 625T100 675T82 764Q82 793 90 814T109 848T129 869T139 877L154
879Q166 877 180 876T211 874Q246 874 286 879T367 893Q367 899 368 905T369 920Q337 918 308 914T258 905L248 901L242 907Q241 907 233 913T216 934T198 969T190 1022Q190 1050 198 1070T216 1105T234 1127T244 1135L250 1141L260 1137Q280 1130 309 1126T373
1120V1151Q353 1153 335 1154T297 1155Q251 1155 209 1150T135 1135L129 1133L121 1137Q120 1137 108 1143T82 1166T55 1210T43 1280Q43 1322 56 1348T84 1390T113 1412T129 1419H143Q185 1402 247 1392T375 1382Q410 1382 442 1385T504 1397L512 1399L520 1395Q522
1393 537 1379T565 1333Q590 1321 603 1308T618 1292L625 1284L623 1274Q613 1240 609 1191T604 1085Q604 1047 606 1009T612 935T622 871T635 821L637 813ZM1636 90L1632 82Q1632 81 1626 68T1603 40T1558 13T1487 0Q1447 0 1421 12T1380 39T1358 67T1350 82V96Q1355
109 1359 126T1366 166Q1322 172 1278 172Q1232 172 1190 167T1116 152L1110 150L1102 154Q1101 154 1089 160T1063 183T1036 227T1024 297Q1024 306 1024 314T1026 330Q1017 347 1012 362T1006 391Q1006 407 1008 416T1012 428L1014 436L1020 440Q1039 452 1066
474T1123 526T1184 590T1242 658T1291 723T1325 780L1329 791L1339 793Q1342 794 1346 795Q1356 797 1366 797Q1409 797 1441 777T1494 730T1525 674T1536 631V625Q1557 619 1573 610T1601 592T1619 577T1626 569L1632 561L1630 551Q1619 514 1615 457T1610 336Q1610
301 1611 266T1616 200T1623 141T1634 96L1636 90ZM1376 459Q1362 443 1350 428T1327 399H1350H1378Q1378 415 1377 430T1376 459Z" />
<glyph unicode="&#xbf;" glyph-name="questiondown" horiz-adv-x="932" d="M55 561L70 565Q118 580 169 605T270 663T363 730T436 801Q438 816 438 832T438 862Q438 884 436 905T428 944L424 956L432 967Q433 969 442 980T471 1004T522 1027T596 1038Q637 1038
667 1026T718 1000T748 974T760 961L768 948L764 936Q750 907 745 878T739 821Q739 787 746 756T762 692V674Q761 672 757 664T742 643T717 617T678 592Q673 560 662 541T649 520L643 512L635 510Q598 502 555 484T465 440H481L496 436Q531 409 565 392T634 365T705
350T780 346H821L827 340Q828 339 837 331T855 307T873 266T881 207Q881 151 868 112T836 46T794 4T753 -19T723 -29T713 -31H702L696 -25Q627 28 555 53T401 78L385 82Q343 114 310 133T245 163T178 177T98 180H84L78 190Q77 192 72 200T62 222T52 255T47 301Q47
337 59 381Q61 384 61 386T63 391Q51 417 46 441T41 485Q41 513 46 530T51 549L55 561ZM453 1176L457 1190Q468 1221 472 1248T477 1300Q477 1317 475 1332T467 1364L463 1376L473 1386Q498 1414 535 1429T618 1444Q662 1444 700 1429T764 1386L772 1376L768 1364Q762
1347 760 1330T758 1296Q758 1272 762 1246T778 1192L782 1178L772 1167Q744 1141 705 1127T621 1112Q574 1112 534 1126T465 1165L453 1176Z" />
<glyph unicode="&#xc0;" glyph-name="Agrave" horiz-adv-x="1040" d="M1069 522Q1075 489 1075 461Q1075 430 1069 406T1056 364T1042 336T1034 324L1026 313L1012 315Q998 317 984 317T956 317Q970 268 991 222T1038 133L1049 117L1036 102Q1035 101 1026 92T997
70T949 43T879 20Q860 15 842 13T805 10Q779 10 758 14T721 23T698 33T688 37L674 45L676 61Q676 74 677 86T678 111Q678 180 666 248Q662 244 659 244L645 240Q582 240 516 232T385 203V172Q385 129 391 86L393 76L387 68Q386 67 377 57T349 35T301 14T231 4Q151
4 105 27T33 79Q4 112 -6 154L-8 162L-2 170Q49 248 73 336T98 528V563L102 575Q141 653 159 730T178 887Q178 907 177 927T174 967L172 977L178 985Q274 1132 274 1303Q274 1318 273 1334T270 1368V1380L279 1389Q280 1390 289 1396T316 1410T357 1424T414 1430Q476
1430 519 1411T590 1369T629 1327T643 1307L649 1294L643 1282Q639 1278 639 1276H653Q697 1276 722 1270T750 1264L762 1255L760 1241Q758 1229 758 1218T758 1194Q758 1016 842 868L846 856V829Q846 777 850 730T866 639Q886 647 905 656T942 676L952 682L965
678Q966 677 978 669T1007 643T1041 596T1069 522ZM530 778L516 825Q493 765 482 706T471 590V563Q514 578 553 598L569 602Q576 600 583 599T596 598Q585 641 569 685T530 778ZM627 1603L625 1594Q618 1567 602 1548T566 1517T521 1498T475 1492Q467 1492 459
1492T442 1496L432 1498L428 1508Q397 1586 356 1657T260 1795L252 1803L256 1816Q265 1843 285 1866T333 1907T392 1933T459 1943Q470 1943 479 1943T500 1941L516 1937L518 1920Q524 1842 550 1764T623 1611L627 1603Z" />
<glyph unicode="&#xc1;" glyph-name="Aacute" horiz-adv-x="1040" d="M1069 522Q1075 489 1075 461Q1075 430 1069 406T1056 364T1042 336T1034 324L1026 313L1012 315Q998 317 984 317T956 317Q970 268 991 222T1038 133L1049 117L1036 102Q1035 101 1026 92T997
70T949 43T879 20Q860 15 842 13T805 10Q779 10 758 14T721 23T698 33T688 37L674 45L676 61Q676 74 677 86T678 111Q678 180 666 248Q662 244 659 244L645 240Q582 240 516 232T385 203V172Q385 129 391 86L393 76L387 68Q386 67 377 57T349 35T301 14T231 4Q151
4 105 27T33 79Q4 112 -6 154L-8 162L-2 170Q49 248 73 336T98 528V563L102 575Q141 653 159 730T178 887Q178 907 177 927T174 967L172 977L178 985Q274 1132 274 1303Q274 1318 273 1334T270 1368V1380L279 1389Q280 1390 289 1396T316 1410T357 1424T414 1430Q476
1430 519 1411T590 1369T629 1327T643 1307L649 1294L643 1282Q639 1278 639 1276H653Q697 1276 722 1270T750 1264L762 1255L760 1241Q758 1229 758 1218T758 1194Q758 1016 842 868L846 856V829Q846 777 850 730T866 639Q886 647 905 656T942 676L952 682L965
678Q966 677 978 669T1007 643T1041 596T1069 522ZM530 778L516 825Q493 765 482 706T471 590V563Q514 578 553 598L569 602Q576 600 583 599T596 598Q585 641 569 685T530 778ZM887 1764L876 1758Q801 1699 753 1633T663 1498L659 1490L647 1488Q642 1488 637
1487T627 1486Q601 1486 577 1494T532 1518T498 1553T477 1599L473 1611L481 1619Q541 1685 590 1760T674 1920L680 1932H692Q697 1934 701 1934T711 1934Q744 1934 774 1922T829 1888T868 1838T885 1777L887 1764Z" />
<glyph unicode="&#xc2;" glyph-name="Acircumflex" horiz-adv-x="1040" d="M1069 522Q1075 489 1075 461Q1075 430 1069 406T1056 364T1042 336T1034 324L1026 313L1012 315Q998 317 984 317T956 317Q970 268 991 222T1038 133L1049 117L1036 102Q1035 101 1026
92T997 70T949 43T879 20Q860 15 842 13T805 10Q779 10 758 14T721 23T698 33T688 37L674 45L676 61Q676 74 677 86T678 111Q678 180 666 248Q662 244 659 244L645 240Q582 240 516 232T385 203V172Q385 129 391 86L393 76L387 68Q386 67 377 57T349 35T301 14T231
4Q151 4 105 27T33 79Q4 112 -6 154L-8 162L-2 170Q49 248 73 336T98 528V563L102 575Q141 653 159 730T178 887Q178 907 177 927T174 967L172 977L178 985Q274 1132 274 1303Q274 1318 273 1334T270 1368V1380L279 1389Q280 1390 289 1396T316 1410T357 1424T414
1430Q476 1430 519 1411T590 1369T629 1327T643 1307L649 1294L643 1282Q639 1278 639 1276H653Q697 1276 722 1270T750 1264L762 1255L760 1241Q758 1229 758 1218T758 1194Q758 1016 842 868L846 856V829Q846 777 850 730T866 639Q886 647 905 656T942 676L952
682L965 678Q966 677 978 669T1007 643T1041 596T1069 522ZM530 778L516 825Q493 765 482 706T471 590V563Q514 578 553 598L569 602Q576 600 583 599T596 598Q585 641 569 685T530 778ZM848 1646V1635Q845 1600 830 1573T793 1527T743 1498T690 1488Q656 1488
627 1504L618 1508L616 1517Q598 1566 576 1612T528 1703Q497 1660 473 1614T428 1519L418 1508Q405 1502 392 1498T364 1494Q334 1494 307 1507T260 1543T229 1596T217 1658V1666L223 1672Q357 1814 418 1977L422 1988L430 1990Q444 1996 458 1999T487 2002Q516
2002 545 1990Q551 1992 556 1992T567 1992Q604 1992 641 1973L649 1969L651 1961Q686 1868 732 1792T842 1654L848 1646Z" />
<glyph unicode="&#xc3;" glyph-name="Atilde" horiz-adv-x="1040" d="M1069 522Q1075 489 1075 461Q1075 430 1069 406T1056 364T1042 336T1034 324L1026 313L1012 315Q998 317 984 317T956 317Q970 268 991 222T1038 133L1049 117L1036 102Q1035 101 1026 92T997
70T949 43T879 20Q860 15 842 13T805 10Q779 10 758 14T721 23T698 33T688 37L674 45L676 61Q676 74 677 86T678 111Q678 180 666 248Q662 244 659 244L645 240Q582 240 516 232T385 203V172Q385 129 391 86L393 76L387 68Q386 67 377 57T349 35T301 14T231 4Q151
4 105 27T33 79Q4 112 -6 154L-8 162L-2 170Q49 248 73 336T98 528V563L102 575Q141 653 159 730T178 887Q178 907 177 927T174 967L172 977L178 985Q274 1132 274 1303Q274 1318 273 1334T270 1368V1380L279 1389Q280 1390 289 1396T316 1410T357 1424T414 1430Q476
1430 519 1411T590 1369T629 1327T643 1307L649 1294L643 1282Q639 1278 639 1276H653Q697 1276 722 1270T750 1264L762 1255L760 1241Q758 1229 758 1218T758 1194Q758 1016 842 868L846 856V829Q846 777 850 730T866 639Q886 647 905 656T942 676L952 682L965
678Q966 677 978 669T1007 643T1041 596T1069 522ZM530 778L516 825Q493 765 482 706T471 590V563Q514 578 553 598L569 602Q576 600 583 599T596 598Q585 641 569 685T530 778ZM973 1845L967 1839Q904 1766 857 1683T780 1509L770 1497Q756 1487 741 1484T706
1480Q695 1480 684 1481T663 1486Q633 1474 602 1474Q570 1474 541 1490L532 1494L530 1503Q496 1603 444 1691Q413 1648 389 1603T342 1509L332 1497Q319 1490 305 1487T280 1484Q246 1484 219 1498T173 1535T144 1587T133 1648V1656L139 1662Q208 1734 257 1809T338
1966L342 1976L350 1980Q364 1983 378 1985T407 1988Q438 1988 467 1976Q472 1978 476 1978T487 1978Q524 1978 561 1959L571 1947Q588 1899 608 1855T653 1771Q679 1817 700 1864T735 1963L737 1974L747 1978Q777 1994 815 1994Q846 1994 874 1983T923 1952T958
1908T973 1855V1845Z" />
<glyph unicode="&#xc4;" glyph-name="Adieresis" horiz-adv-x="1040" d="M1069 522Q1075 489 1075 461Q1075 430 1069 406T1056 364T1042 336T1034 324L1026 313L1012 315Q998 317 984 317T956 317Q970 268 991 222T1038 133L1049 117L1036 102Q1035 101 1026
92T997 70T949 43T879 20Q860 15 842 13T805 10Q779 10 758 14T721 23T698 33T688 37L674 45L676 61Q676 74 677 86T678 111Q678 180 666 248Q662 244 659 244L645 240Q582 240 516 232T385 203V172Q385 129 391 86L393 76L387 68Q386 67 377 57T349 35T301 14T231
4Q151 4 105 27T33 79Q4 112 -6 154L-8 162L-2 170Q49 248 73 336T98 528V563L102 575Q141 653 159 730T178 887Q178 907 177 927T174 967L172 977L178 985Q274 1132 274 1303Q274 1318 273 1334T270 1368V1380L279 1389Q280 1390 289 1396T316 1410T357 1424T414
1430Q476 1430 519 1411T590 1369T629 1327T643 1307L649 1294L643 1282Q639 1278 639 1276H653Q697 1276 722 1270T750 1264L762 1255L760 1241Q758 1229 758 1218T758 1194Q758 1016 842 868L846 856V829Q846 777 850 730T866 639Q886 647 905 656T942 676L952
682L965 678Q966 677 978 669T1007 643T1041 596T1069 522ZM530 778L516 825Q493 765 482 706T471 590V563Q514 578 553 598L569 602Q576 600 583 599T596 598Q585 641 569 685T530 778ZM893 1760L887 1743Q844 1658 844 1582V1563V1551L833 1543Q787 1514 727
1514Q690 1514 655 1525T590 1559L580 1567L582 1580Q584 1594 584 1606T584 1633Q584 1664 581 1695T569 1758L567 1772L580 1780Q609 1803 647 1815T723 1827Q768 1827 808 1813T881 1772L893 1760ZM516 1778L510 1764Q496 1729 490 1695T483 1629Q483 1615 483
1603T487 1578L489 1567L481 1559Q458 1536 422 1523T342 1510Q310 1510 281 1517T231 1539L219 1545L221 1561Q223 1570 223 1578T223 1596Q223 1633 214 1669T182 1743L174 1758L186 1770Q217 1798 265 1813T367 1829Q412 1829 448 1819T504 1788L516 1778Z"
/>
<glyph unicode="&#xc5;" glyph-name="Aring" horiz-adv-x="1040" d="M1069 522Q1075 489 1075 461Q1075 430 1069 406T1056 364T1042 336T1034 324L1026 313L1012 315Q998 317 984 317T956 317Q970 268 991 222T1038 133L1049 117L1036 102Q1035 101 1026 92T997
70T949 43T879 20Q860 15 842 13T805 10Q779 10 758 14T721 23T698 33T688 37L674 45L676 61Q676 74 677 86T678 111Q678 180 666 248Q662 244 659 244L645 240Q582 240 516 232T385 203V172Q385 129 391 86L393 76L387 68Q386 67 377 57T349 35T301 14T231 4Q151
4 105 27T33 79Q4 112 -6 154L-8 162L-2 170Q49 248 73 336T98 528V563L102 575Q141 653 159 730T178 887Q178 907 177 927T174 967L172 977L178 985Q274 1132 274 1303Q274 1318 273 1334T270 1368V1380L279 1389Q280 1390 289 1396T316 1410T357 1424T414 1430Q476
1430 519 1411T590 1369T629 1327T643 1307L649 1294L643 1282Q639 1278 639 1276H653Q697 1276 722 1270T750 1264L762 1255L760 1241Q758 1229 758 1218T758 1194Q758 1016 842 868L846 856V829Q846 777 850 730T866 639Q886 647 905 656T942 676L952 682L965
678Q966 677 978 669T1007 643T1041 596T1069 522ZM530 778L516 825Q493 765 482 706T471 590V563Q514 578 553 598L569 602Q576 600 583 599T596 598Q585 641 569 685T530 778ZM805 1594Q803 1557 785 1526T737 1478L729 1473L721 1475Q671 1486 622 1491T522
1496Q477 1496 432 1492T342 1480L334 1478L326 1482Q295 1499 281 1529T266 1600Q266 1616 269 1630T278 1660Q255 1678 240 1703T219 1754L217 1766L227 1777Q283 1826 325 1889T399 2026L405 2039L418 2041Q423 2043 428 2043T440 2043Q469 2043 498 2032T553
2002Q576 2019 605 2028T661 2037Q683 2037 700 2030L711 2026L715 2016Q738 1942 770 1880T846 1764L850 1758V1752Q850 1717 837 1689T801 1641Q804 1630 804 1619T805 1594ZM549 1815Q527 1792 509 1768T473 1717H532Q551 1717 570 1717T608 1719Q596 1744 581
1768T549 1815Z" />
<glyph unicode="&#xc6;" glyph-name="AE" horiz-adv-x="1634" d="M1440 707Q1440 662 1428 629T1401 572T1374 537T1360 524L1348 516L1335 520Q1280 539 1237 548T1153 557Q1122 557 1092 551L1098 539V522Q1085 488 1078 455T1065 387Q1082 391 1102 394T1140
399Q1161 402 1182 403L1190 406L1198 401Q1255 378 1295 366T1376 354Q1404 354 1436 360T1511 377L1524 381L1534 373Q1535 371 1545 361T1568 329T1589 275T1599 197Q1598 152 1586 119T1558 64T1529 29T1513 16L1503 10L1491 14Q1432 36 1393 45T1317 55Q1291
55 1262 51T1196 37H1184Q1153 43 1127 49T1073 61Q1064 50 1049 38T1012 15T959 -1T891 -8Q832 -8 794 8T733 43T701 79T692 98L688 106L692 117Q729 207 735 307Q673 313 608 313Q553 313 501 308T408 291L397 287L393 289Q340 186 328 68L326 57L317 51Q316
50 310 45T290 35T259 25T215 20Q189 20 158 27T92 51Q38 76 11 106T-29 164T-42 210T-43 231V242L-35 248Q41 316 89 403T162 602L166 614Q237 696 279 786T334 977L342 991Q419 1063 465 1148T526 1339L528 1352L541 1358Q543 1358 562 1365T616 1372Q651 1372
676 1367T727 1350L725 1356L733 1366Q734 1367 745 1378T778 1403T834 1427T915 1438Q969 1438 1007 1423T1069 1391Q1098 1394 1130 1400T1194 1417L1202 1421L1210 1419Q1260 1404 1296 1397T1364 1389Q1399 1389 1436 1398T1526 1425L1538 1430L1548 1423Q1549
1422 1560 1412T1586 1382T1614 1330T1630 1253V1235Q1630 1195 1620 1164T1598 1112T1575 1079T1563 1067L1552 1059L1538 1063Q1490 1074 1456 1079T1393 1085Q1359 1085 1325 1078T1243 1055L1231 1053Q1189 1061 1150 1065T1073 1069Q1076 1041 1081 1014T1096
958V944Q1089 926 1086 909T1079 872Q1108 864 1134 861T1188 858Q1225 858 1263 864T1346 885L1358 889L1368 881Q1369 880 1380 870T1405 838T1429 784T1440 707ZM743 727Q743 828 713 924Q707 902 701 880T692 834L686 821Q640 770 608 718T553 612Q626 600
709 600H731Q743 664 743 727Z" />
<glyph unicode="&#xc7;" glyph-name="Ccedilla" horiz-adv-x="1055" d="M512 913L510 907Q481 839 468 784T455 674Q455 642 459 610T471 543L473 535L469 526Q440 469 425 425T406 332Q426 335 442 339T473 348T505 360T543 373Q548 375 552 376T561 381L569
385L578 383Q612 375 642 372T700 369Q757 369 811 383T930 428L942 434L952 428Q953 427 966 418T995 390T1028 340T1051 264Q1053 253 1053 243T1053 223Q1053 188 1045 160T1027 113T1009 82T999 70L989 59L977 63Q946 68 918 71T864 74Q808 74 760 61Q755 37
755 15T754 -33Q754 -75 759 -118T776 -205L778 -215L770 -225Q761 -235 750 -242T727 -256V-270Q727 -300 715 -328L711 -340L696 -342Q548 -363 412 -451L401 -459L391 -453Q370 -444 352 -428T321 -390T299 -342T291 -287Q291 -249 307 -219L313 -209L324 -207Q379
-199 429 -187T526 -154Q535 -96 535 -39Q535 -23 534 -9T532 20Q460 18 392 2T258 -49L248 -53L240 -51Q243 -52 225 -45T183 -20T137 31T109 115Q82 130 65 147T37 180T22 205T18 217L16 227L20 236Q39 270 53 300T76 358T89 416T94 481Q94 522 88 573L90 586Q116
649 128 703T141 811Q141 842 137 874T127 942L125 952L129 958Q152 1003 167 1040T190 1116Q175 1136 165 1169T154 1251Q154 1315 170 1355T207 1419T245 1450T264 1458L274 1462L283 1458Q335 1432 388 1421T500 1409Q524 1409 556 1409T614 1419L623 1421L631
1417Q690 1391 738 1378T838 1364Q869 1364 900 1368T967 1382L979 1384L987 1376Q988 1375 998 1365T1018 1335T1038 1285T1047 1212V1196Q1044 1151 1031 1118T1002 1063T975 1030T961 1018L948 1010L936 1014Q877 1039 831 1051T737 1063Q709 1063 681 1059T621
1047L606 1049Q577 1054 553 1060T504 1073Q502 1058 502 1044T502 1016Q502 994 504 971T512 922V913Z" />
<glyph unicode="&#xc8;" glyph-name="Egrave" horiz-adv-x="1004" d="M809 707Q809 662 797 629T770 572T743 537T729 524L719 516L705 520Q649 539 607 548T522 557Q491 557 461 551L467 539L471 530L467 522Q443 454 434 387Q450 391 470 394T508 399T538 402T551
403L559 406L567 401Q624 378 664 366T745 354Q773 354 806 360T881 377L893 381L903 373Q904 371 914 361T937 329T959 275T969 197Q968 152 955 119T927 64T899 29T885 16L872 10L860 14Q801 36 762 45T686 55Q660 55 632 51T567 37H553Q525 42 498 48T442 61Q432
50 417 38T379 15T327 -1T260 -8Q201 -8 163 8T102 43T70 79T61 98L57 106L61 117Q84 172 95 230T106 348Q106 390 102 433T86 522V535Q98 584 105 631T113 727Q113 780 104 831T80 932L78 942L82 950Q104 1004 114 1058T125 1167Q125 1211 119 1254T98 1343L94
1356L102 1366Q103 1367 114 1378T147 1403T204 1427T285 1438Q339 1438 377 1423T438 1391Q467 1394 499 1400T563 1417L571 1421L582 1419Q630 1404 665 1397T733 1389Q768 1389 806 1398T895 1425L907 1430L918 1423Q919 1422 931 1412T957 1382T983 1330T999
1253V1235Q999 1195 989 1164T967 1112T944 1079T932 1067L922 1059L907 1063Q859 1074 825 1079T762 1085Q728 1085 695 1078T614 1055L600 1053Q558 1061 520 1065T442 1069Q445 1041 450 1014T465 958V944Q459 926 456 909T449 872Q478 864 503 861T557 858Q594
858 632 864T715 885L727 889L737 881Q738 880 749 870T774 838T798 784T809 707ZM654 1632L652 1623Q645 1596 629 1577T593 1546T548 1527T502 1521Q494 1521 486 1521T469 1525L459 1527L455 1537Q424 1615 383 1686T287 1824L279 1832L283 1845Q292 1872 312
1895T360 1936T419 1962T486 1972Q497 1972 506 1972T527 1970L543 1966L545 1949Q551 1871 577 1793T650 1640L654 1632Z" />
<glyph unicode="&#xc9;" glyph-name="Eacute" horiz-adv-x="1004" d="M809 707Q809 662 797 629T770 572T743 537T729 524L719 516L705 520Q649 539 607 548T522 557Q491 557 461 551L467 539L471 530L467 522Q443 454 434 387Q450 391 470 394T508 399T538 402T551
403L559 406L567 401Q624 378 664 366T745 354Q773 354 806 360T881 377L893 381L903 373Q904 371 914 361T937 329T959 275T969 197Q968 152 955 119T927 64T899 29T885 16L872 10L860 14Q801 36 762 45T686 55Q660 55 632 51T567 37H553Q525 42 498 48T442 61Q432
50 417 38T379 15T327 -1T260 -8Q201 -8 163 8T102 43T70 79T61 98L57 106L61 117Q84 172 95 230T106 348Q106 390 102 433T86 522V535Q98 584 105 631T113 727Q113 780 104 831T80 932L78 942L82 950Q104 1004 114 1058T125 1167Q125 1211 119 1254T98 1343L94
1356L102 1366Q103 1367 114 1378T147 1403T204 1427T285 1438Q339 1438 377 1423T438 1391Q467 1394 499 1400T563 1417L571 1421L582 1419Q630 1404 665 1397T733 1389Q768 1389 806 1398T895 1425L907 1430L918 1423Q919 1422 931 1412T957 1382T983 1330T999
1253V1235Q999 1195 989 1164T967 1112T944 1079T932 1067L922 1059L907 1063Q859 1074 825 1079T762 1085Q728 1085 695 1078T614 1055L600 1053Q558 1061 520 1065T442 1069Q445 1041 450 1014T465 958V944Q459 926 456 909T449 872Q478 864 503 861T557 858Q594
858 632 864T715 885L727 889L737 881Q738 880 749 870T774 838T798 784T809 707ZM822 1782L811 1776Q736 1717 688 1651T598 1516L594 1508L582 1506Q577 1506 572 1505T562 1504Q536 1504 512 1512T467 1536T433 1571T412 1617L408 1629L416 1637Q476 1703 525
1778T609 1938L615 1950H627Q632 1952 636 1952T646 1952Q679 1952 709 1940T764 1906T803 1856T820 1795L822 1782Z" />
<glyph unicode="&#xca;" glyph-name="Ecircumflex" horiz-adv-x="1004" d="M809 707Q809 662 797 629T770 572T743 537T729 524L719 516L705 520Q649 539 607 548T522 557Q491 557 461 551L467 539L471 530L467 522Q443 454 434 387Q450 391 470 394T508 399T538
402T551 403L559 406L567 401Q624 378 664 366T745 354Q773 354 806 360T881 377L893 381L903 373Q904 371 914 361T937 329T959 275T969 197Q968 152 955 119T927 64T899 29T885 16L872 10L860 14Q801 36 762 45T686 55Q660 55 632 51T567 37H553Q525 42 498 48T442
61Q432 50 417 38T379 15T327 -1T260 -8Q201 -8 163 8T102 43T70 79T61 98L57 106L61 117Q84 172 95 230T106 348Q106 390 102 433T86 522V535Q98 584 105 631T113 727Q113 780 104 831T80 932L78 942L82 950Q104 1004 114 1058T125 1167Q125 1211 119 1254T98
1343L94 1356L102 1366Q103 1367 114 1378T147 1403T204 1427T285 1438Q339 1438 377 1423T438 1391Q467 1394 499 1400T563 1417L571 1421L582 1419Q630 1404 665 1397T733 1389Q768 1389 806 1398T895 1425L907 1430L918 1423Q919 1422 931 1412T957 1382T983
1330T999 1253V1235Q999 1195 989 1164T967 1112T944 1079T932 1067L922 1059L907 1063Q859 1074 825 1079T762 1085Q728 1085 695 1078T614 1055L600 1053Q558 1061 520 1065T442 1069Q445 1041 450 1014T465 958V944Q459 926 456 909T449 872Q478 864 503 861T557
858Q594 858 632 864T715 885L727 889L737 881Q738 880 749 870T774 838T798 784T809 707ZM844 1660V1649Q841 1614 826 1587T789 1541T739 1512T686 1502Q652 1502 623 1518L614 1522L612 1531Q594 1580 572 1626T524 1717Q493 1674 469 1628T424 1533L414 1522Q401
1516 388 1512T360 1508Q330 1508 303 1521T256 1557T225 1610T213 1672V1680L219 1686Q353 1828 414 1991L418 2002L426 2004Q440 2010 454 2013T483 2016Q512 2016 541 2004Q547 2006 552 2006T563 2006Q600 2006 637 1987L645 1983L647 1975Q682 1882 728 1806T838
1668L844 1660Z" />
<glyph unicode="&#xcb;" glyph-name="Edieresis" horiz-adv-x="1004" d="M809 707Q809 662 797 629T770 572T743 537T729 524L719 516L705 520Q649 539 607 548T522 557Q491 557 461 551L467 539L471 530L467 522Q443 454 434 387Q450 391 470 394T508 399T538
402T551 403L559 406L567 401Q624 378 664 366T745 354Q773 354 806 360T881 377L893 381L903 373Q904 371 914 361T937 329T959 275T969 197Q968 152 955 119T927 64T899 29T885 16L872 10L860 14Q801 36 762 45T686 55Q660 55 632 51T567 37H553Q525 42 498 48T442
61Q432 50 417 38T379 15T327 -1T260 -8Q201 -8 163 8T102 43T70 79T61 98L57 106L61 117Q84 172 95 230T106 348Q106 390 102 433T86 522V535Q98 584 105 631T113 727Q113 780 104 831T80 932L78 942L82 950Q104 1004 114 1058T125 1167Q125 1211 119 1254T98
1343L94 1356L102 1366Q103 1367 114 1378T147 1403T204 1427T285 1438Q339 1438 377 1423T438 1391Q467 1394 499 1400T563 1417L571 1421L582 1419Q630 1404 665 1397T733 1389Q768 1389 806 1398T895 1425L907 1430L918 1423Q919 1422 931 1412T957 1382T983
1330T999 1253V1235Q999 1195 989 1164T967 1112T944 1079T932 1067L922 1059L907 1063Q859 1074 825 1079T762 1085Q728 1085 695 1078T614 1055L600 1053Q558 1061 520 1065T442 1069Q445 1041 450 1014T465 958V944Q459 926 456 909T449 872Q478 864 503 861T557
858Q594 858 632 864T715 885L727 889L737 881Q738 880 749 870T774 838T798 784T809 707ZM887 1784L881 1767Q838 1682 838 1606V1587V1575L827 1567Q781 1538 721 1538Q684 1538 649 1549T584 1583L574 1591L576 1604Q578 1618 578 1630T578 1657Q578 1688 575
1719T563 1782L561 1796L574 1804Q603 1827 641 1839T717 1851Q762 1851 802 1837T875 1796L887 1784ZM510 1802L504 1788Q490 1753 484 1719T477 1653Q477 1639 477 1627T481 1602L483 1591L475 1583Q452 1560 416 1547T336 1534Q304 1534 275 1541T225 1563L213
1569L215 1585Q217 1594 217 1602T217 1620Q217 1657 208 1693T176 1767L168 1782L180 1794Q211 1822 259 1837T361 1853Q406 1853 442 1843T498 1812L510 1802Z" />
<glyph unicode="&#xcc;" glyph-name="Igrave" horiz-adv-x="545" d="M485 1348L479 1335Q461 1280 452 1228T442 1122Q442 1080 447 1041T465 961V946Q434 837 434 737Q434 686 442 638T467 541L471 532L467 524Q448 473 439 422T430 317Q430 265 438 215T465
113L469 102L465 94Q464 92 454 77T421 43T359 11T260 -4Q201 -4 163 11T102 46T70 82T61 100L57 111L61 119Q84 175 95 232T106 352Q106 394 102 436T86 524V537Q98 586 105 633T113 729Q113 783 104 834T80 936L78 944L82 952Q125 1062 125 1171Q125 1215 119
1258T98 1346L94 1358L102 1368Q103 1369 114 1380T147 1405T204 1429T285 1440Q333 1440 368 1428T426 1400T462 1372T475 1358L485 1348ZM622 1879L620 1870Q613 1843 597 1824T561 1793T516 1774T470 1768Q462 1768 454 1768T437 1772L427 1774L423 1784Q392
1862 351 1933T255 2071L247 2079L251 2092Q260 2119 280 2142T328 2183T387 2209T454 2219Q465 2219 474 2219T495 2217L511 2213L513 2196Q519 2118 545 2040T618 1887L622 1879Z" />
<glyph unicode="&#xcd;" glyph-name="Iacute" horiz-adv-x="545" d="M485 1348L479 1335Q461 1280 452 1228T442 1122Q442 1080 447 1041T465 961V946Q434 837 434 737Q434 686 442 638T467 541L471 532L467 524Q448 473 439 422T430 317Q430 265 438 215T465
113L469 102L465 94Q464 92 454 77T421 43T359 11T260 -4Q201 -4 163 11T102 46T70 82T61 100L57 111L61 119Q84 175 95 232T106 352Q106 394 102 436T86 524V537Q98 586 105 633T113 729Q113 783 104 834T80 936L78 944L82 952Q125 1062 125 1171Q125 1215 119
1258T98 1346L94 1358L102 1368Q103 1369 114 1380T147 1405T204 1429T285 1440Q333 1440 368 1428T426 1400T462 1372T475 1358L485 1348ZM617 1797L606 1791Q531 1732 483 1666T393 1531L389 1523L377 1521Q372 1521 367 1520T357 1519Q331 1519 307 1527T262
1551T228 1586T207 1632L203 1644L211 1652Q271 1718 320 1793T404 1953L410 1965H422Q427 1967 431 1967T441 1967Q474 1967 504 1955T559 1921T598 1871T615 1810L617 1797Z" />
<glyph unicode="&#xce;" glyph-name="Icircumflex" horiz-adv-x="545" d="M485 1348L479 1335Q461 1280 452 1228T442 1122Q442 1080 447 1041T465 961V946Q434 837 434 737Q434 686 442 638T467 541L471 532L467 524Q448 473 439 422T430 317Q430 265 438 215T465
113L469 102L465 94Q464 92 454 77T421 43T359 11T260 -4Q201 -4 163 11T102 46T70 82T61 100L57 111L61 119Q84 175 95 232T106 352Q106 394 102 436T86 524V537Q98 586 105 633T113 729Q113 783 104 834T80 936L78 944L82 952Q125 1062 125 1171Q125 1215 119
1258T98 1346L94 1358L102 1368Q103 1369 114 1380T147 1405T204 1429T285 1440Q333 1440 368 1428T426 1400T462 1372T475 1358L485 1348ZM878 1920V1909Q875 1874 860 1847T823 1801T773 1772T720 1762Q686 1762 657 1778L648 1782L646 1791Q628 1840 606 1886T558
1977Q527 1934 503 1888T458 1793L448 1782Q435 1776 422 1772T394 1768Q364 1768 337 1781T290 1817T259 1870T247 1932V1940L253 1946Q387 2088 448 2251L452 2262L460 2264Q474 2270 488 2273T517 2276Q546 2276 575 2264Q581 2266 586 2266T597 2266Q634 2266
671 2247L679 2243L681 2235Q716 2142 762 2066T872 1928L878 1920Z" />
<glyph unicode="&#xcf;" glyph-name="Idieresis" horiz-adv-x="545" d="M485 1348L479 1335Q461 1280 452 1228T442 1122Q442 1080 447 1041T465 961V946Q434 837 434 737Q434 686 442 638T467 541L471 532L467 524Q448 473 439 422T430 317Q430 265 438 215T465
113L469 102L465 94Q464 92 454 77T421 43T359 11T260 -4Q201 -4 163 11T102 46T70 82T61 100L57 111L61 119Q84 175 95 232T106 352Q106 394 102 436T86 524V537Q98 586 105 633T113 729Q113 783 104 834T80 936L78 944L82 952Q125 1062 125 1171Q125 1215 119
1258T98 1346L94 1358L102 1368Q103 1369 114 1380T147 1405T204 1429T285 1440Q333 1440 368 1428T426 1400T462 1372T475 1358L485 1348ZM902 2016L896 1999Q853 1914 853 1838V1819V1807L842 1799Q796 1770 736 1770Q699 1770 664 1781T599 1815L589 1823L591
1836Q593 1850 593 1862T593 1889Q593 1920 590 1951T578 2014L576 2028L589 2036Q618 2059 656 2071T732 2083Q777 2083 817 2069T890 2028L902 2016ZM525 2034L519 2020Q505 1985 499 1951T492 1885Q492 1871 492 1859T496 1834L498 1823L490 1815Q467 1792 431
1779T351 1766Q319 1766 290 1773T240 1795L228 1801L230 1817Q232 1826 232 1834T232 1852Q232 1889 223 1925T191 1999L183 2014L195 2026Q226 2054 274 2069T376 2085Q421 2085 457 2075T513 2044L525 2034Z" />
<glyph unicode="&#xd0;" glyph-name="Eth" horiz-adv-x="1372" d="M1393 586L1391 571L1378 565Q1287 516 1222 451T1114 301L1112 293L1106 291Q1066 267 1025 233T945 159T874 73T821 -18L817 -27L807 -31Q805 -33 791 -37T754 -41Q731 -41 700 -32T635 0Q619
-3 603 -5T567 -8Q508 -8 470 8T410 43T378 79T369 98L365 106L369 117Q414 226 414 348Q414 390 409 433T393 522V535L401 567Q342 573 287 573Q230 573 178 567T84 549L74 547L66 551Q64 552 49 560T15 589T-18 644T-33 729Q-33 781 -17 815T19 868T55 896T74
905L84 907L92 903Q118 893 151 885T223 871T301 862T383 858H408Q404 877 399 895T387 932L385 942L389 950Q411 1004 421 1058T432 1167Q432 1211 426 1254T406 1343L401 1356L410 1366Q411 1367 422 1378T455 1403T511 1427T592 1438H612Q650 1467 682 1476T739
1485Q761 1485 775 1482T791 1479L799 1475L803 1464Q821 1426 850 1388T914 1314T989 1246T1067 1188L1085 1180L1094 1176L1098 1167Q1144 1073 1212 1004T1374 887L1386 883L1389 868Q1389 866 1390 863Q1390 861 1390 858T1391 850Q1391 831 1383 798T1350
727Q1365 706 1373 686T1386 649T1392 617T1393 596V586ZM778 530L774 522Q759 481 750 436Q771 465 792 491T825 532L829 541L838 545Q965 608 1053 721Q1011 775 961 816T852 889L842 899Q823 924 804 949T762 999Q764 988 766 979T772 958V944Q757 888 749 837T741
735Q741 633 774 539L778 530Z" />
<glyph unicode="&#xd1;" glyph-name="Ntilde" horiz-adv-x="1225" d="M1167 1343L1163 1331Q1145 1275 1135 1222T1124 1116Q1124 1076 1130 1037T1149 956V942Q1118 836 1118 735Q1118 683 1126 634T1151 537V520Q1131 468 1122 415T1112 309Q1112 208 1147 109L1151
98L1147 90Q1146 88 1136 73T1103 39T1041 7T944 -8Q896 -8 862 1T805 27H795Q768 27 747 32T712 44T691 57T682 66L674 72V82Q669 184 632 277T524 461L520 471Q508 539 487 599T434 715Q436 668 443 624T467 537L471 528L467 520Q448 469 439 418T430 313Q430
261 438 211T465 109L469 98L465 90Q464 88 454 73T421 39T359 7T260 -8Q201 -8 163 7T102 42T70 78T61 96L57 106L61 115Q84 170 95 228T106 348Q106 390 102 432T86 520V532Q98 582 105 630T113 725Q113 779 104 830T80 932L78 940L82 948Q125 1058 125 1167Q125
1211 119 1253T98 1341L94 1354L102 1364Q103 1365 114 1376T147 1401T204 1425T285 1436Q330 1436 362 1426T418 1401H434Q476 1401 501 1392T528 1380L541 1374L543 1362Q564 1156 686 1016L692 1010V1004Q718 840 795 721V723Q795 777 787 828T764 932V948Q807
1058 807 1171Q807 1257 782 1341L778 1354L786 1364Q787 1365 798 1376T831 1401T888 1425T969 1436Q1016 1436 1051 1424T1110 1396T1146 1368T1159 1354L1167 1343ZM1104 1873L1098 1867Q1035 1794 988 1711T911 1537L901 1525Q887 1515 872 1512T837 1508Q826
1508 815 1509T794 1514Q764 1502 733 1502Q701 1502 672 1518L663 1522L661 1531Q627 1631 575 1719Q544 1676 520 1631T473 1537L463 1525Q450 1518 436 1515T411 1512Q377 1512 350 1526T304 1563T275 1615T264 1676V1684L270 1690Q339 1762 388 1837T469 1994L473
2004L481 2008Q495 2011 509 2013T538 2016Q569 2016 598 2004Q603 2006 607 2006T618 2006Q655 2006 692 1987L702 1975Q719 1927 739 1883T784 1799Q810 1845 831 1892T866 1991L868 2002L878 2006Q908 2022 946 2022Q977 2022 1005 2011T1054 1980T1089 1936T1104
1883V1873Z" />
<glyph unicode="&#xd2;" glyph-name="Ograve" horiz-adv-x="1255" d="M1223 164L1219 154Q1219 153 1210 134T1175 93T1105 52T991 33Q946 33 915 43T862 70Q816 63 772 51T684 18L678 14L672 16Q647 16 625 18T578 20Q497 20 412 3T258 -49L248 -53L240 -51Q243
-52 225 -45T183 -20T137 31T109 115Q82 130 65 147T37 180T22 205T18 217L16 227L20 236Q39 270 53 300T76 358T89 416T94 481Q94 522 88 573L90 586Q116 649 128 703T141 811Q141 842 137 874T127 942L125 952L129 958Q152 1003 167 1040T190 1116Q175 1136 165
1169T154 1251Q154 1315 170 1355T207 1419T245 1450T264 1458L274 1462L283 1458Q335 1432 388 1421T500 1409Q524 1409 556 1409T614 1419L623 1421L631 1417Q685 1392 731 1379T823 1364Q848 1375 879 1384T950 1393Q990 1393 1021 1384T1073 1362T1106 1340T1120
1329L1130 1319L1126 1307Q1115 1263 1110 1224T1104 1147Q1104 1097 1114 1051T1145 954L1149 948L1147 940Q1141 902 1137 868T1133 799Q1133 734 1146 675T1188 555L1192 549L1188 539Q1177 495 1171 458T1165 385Q1165 332 1178 282T1219 172L1223 164ZM512
913L510 907Q481 839 468 784T455 674Q455 642 459 610T471 543L473 535L469 526Q440 468 425 424T406 332Q430 335 458 339T512 348T562 362T602 381L610 385L618 383Q653 375 686 372T752 369Q796 369 840 375Q835 404 828 435T809 502L807 514Q819 581 819 645Q819
710 806 769T766 891L762 899L764 909Q775 948 782 985T791 1059Q777 1061 764 1062T737 1063Q709 1063 681 1059T621 1047L606 1049Q577 1054 553 1060T504 1073Q502 1058 502 1044T502 1016Q502 994 504 971T512 922V913ZM787 1619L785 1610Q778 1583 762 1564T726
1533T681 1514T635 1508Q627 1508 619 1508T602 1512L592 1514L588 1524Q557 1602 516 1673T420 1811L412 1819L416 1832Q425 1859 445 1882T493 1923T552 1949T619 1959Q630 1959 639 1959T660 1957L676 1953L678 1936Q684 1858 710 1780T783 1627L787 1619Z"
/>
<glyph unicode="&#xd3;" glyph-name="Oacute" horiz-adv-x="1255" d="M1223 164L1219 154Q1219 153 1210 134T1175 93T1105 52T991 33Q946 33 915 43T862 70Q816 63 772 51T684 18L678 14L672 16Q647 16 625 18T578 20Q497 20 412 3T258 -49L248 -53L240 -51Q243
-52 225 -45T183 -20T137 31T109 115Q82 130 65 147T37 180T22 205T18 217L16 227L20 236Q39 270 53 300T76 358T89 416T94 481Q94 522 88 573L90 586Q116 649 128 703T141 811Q141 842 137 874T127 942L125 952L129 958Q152 1003 167 1040T190 1116Q175 1136 165
1169T154 1251Q154 1315 170 1355T207 1419T245 1450T264 1458L274 1462L283 1458Q335 1432 388 1421T500 1409Q524 1409 556 1409T614 1419L623 1421L631 1417Q685 1392 731 1379T823 1364Q848 1375 879 1384T950 1393Q990 1393 1021 1384T1073 1362T1106 1340T1120
1329L1130 1319L1126 1307Q1115 1263 1110 1224T1104 1147Q1104 1097 1114 1051T1145 954L1149 948L1147 940Q1141 902 1137 868T1133 799Q1133 734 1146 675T1188 555L1192 549L1188 539Q1177 495 1171 458T1165 385Q1165 332 1178 282T1219 172L1223 164ZM512
913L510 907Q481 839 468 784T455 674Q455 642 459 610T471 543L473 535L469 526Q440 468 425 424T406 332Q430 335 458 339T512 348T562 362T602 381L610 385L618 383Q653 375 686 372T752 369Q796 369 840 375Q835 404 828 435T809 502L807 514Q819 581 819 645Q819
710 806 769T766 891L762 899L764 909Q775 948 782 985T791 1059Q777 1061 764 1062T737 1063Q709 1063 681 1059T621 1047L606 1049Q577 1054 553 1060T504 1073Q502 1058 502 1044T502 1016Q502 994 504 971T512 922V913ZM983 1778L972 1772Q897 1713 849 1647T759
1512L755 1504L743 1502Q738 1502 733 1501T723 1500Q697 1500 673 1508T628 1532T594 1567T573 1613L569 1625L577 1633Q637 1699 686 1774T770 1934L776 1946H788Q793 1948 797 1948T807 1948Q840 1948 870 1936T925 1902T964 1852T981 1791L983 1778Z" />
<glyph unicode="&#xd4;" glyph-name="Ocircumflex" horiz-adv-x="1255" d="M1223 164L1219 154Q1219 153 1210 134T1175 93T1105 52T991 33Q946 33 915 43T862 70Q816 63 772 51T684 18L678 14L672 16Q647 16 625 18T578 20Q497 20 412 3T258 -49L248 -53L240
-51Q243 -52 225 -45T183 -20T137 31T109 115Q82 130 65 147T37 180T22 205T18 217L16 227L20 236Q39 270 53 300T76 358T89 416T94 481Q94 522 88 573L90 586Q116 649 128 703T141 811Q141 842 137 874T127 942L125 952L129 958Q152 1003 167 1040T190 1116Q175
1136 165 1169T154 1251Q154 1315 170 1355T207 1419T245 1450T264 1458L274 1462L283 1458Q335 1432 388 1421T500 1409Q524 1409 556 1409T614 1419L623 1421L631 1417Q685 1392 731 1379T823 1364Q848 1375 879 1384T950 1393Q990 1393 1021 1384T1073 1362T1106
1340T1120 1329L1130 1319L1126 1307Q1115 1263 1110 1224T1104 1147Q1104 1097 1114 1051T1145 954L1149 948L1147 940Q1141 902 1137 868T1133 799Q1133 734 1146 675T1188 555L1192 549L1188 539Q1177 495 1171 458T1165 385Q1165 332 1178 282T1219 172L1223
164ZM512 913L510 907Q481 839 468 784T455 674Q455 642 459 610T471 543L473 535L469 526Q440 468 425 424T406 332Q430 335 458 339T512 348T562 362T602 381L610 385L618 383Q653 375 686 372T752 369Q796 369 840 375Q835 404 828 435T809 502L807 514Q819
581 819 645Q819 710 806 769T766 891L762 899L764 909Q775 948 782 985T791 1059Q777 1061 764 1062T737 1063Q709 1063 681 1059T621 1047L606 1049Q577 1054 553 1060T504 1073Q502 1058 502 1044T502 1016Q502 994 504 971T512 922V913ZM977 1646V1635Q974
1600 959 1573T922 1527T872 1498T819 1488Q785 1488 756 1504L747 1508L745 1517Q727 1566 705 1612T657 1703Q626 1660 602 1614T557 1519L547 1508Q534 1502 521 1498T493 1494Q463 1494 436 1507T389 1543T358 1596T346 1658V1666L352 1672Q486 1814 547 1977L551
1988L559 1990Q573 1996 587 1999T616 2002Q645 2002 674 1990Q680 1992 685 1992T696 1992Q733 1992 770 1973L778 1969L780 1961Q815 1868 861 1792T971 1654L977 1646Z" />
<glyph unicode="&#xd5;" glyph-name="Otilde" horiz-adv-x="1255" d="M1223 164L1219 154Q1219 153 1210 134T1175 93T1105 52T991 33Q946 33 915 43T862 70Q816 63 772 51T684 18L678 14L672 16Q647 16 625 18T578 20Q497 20 412 3T258 -49L248 -53L240 -51Q243
-52 225 -45T183 -20T137 31T109 115Q82 130 65 147T37 180T22 205T18 217L16 227L20 236Q39 270 53 300T76 358T89 416T94 481Q94 522 88 573L90 586Q116 649 128 703T141 811Q141 842 137 874T127 942L125 952L129 958Q152 1003 167 1040T190 1116Q175 1136 165
1169T154 1251Q154 1315 170 1355T207 1419T245 1450T264 1458L274 1462L283 1458Q335 1432 388 1421T500 1409Q524 1409 556 1409T614 1419L623 1421L631 1417Q685 1392 731 1379T823 1364Q848 1375 879 1384T950 1393Q990 1393 1021 1384T1073 1362T1106 1340T1120
1329L1130 1319L1126 1307Q1115 1263 1110 1224T1104 1147Q1104 1097 1114 1051T1145 954L1149 948L1147 940Q1141 902 1137 868T1133 799Q1133 734 1146 675T1188 555L1192 549L1188 539Q1177 495 1171 458T1165 385Q1165 332 1178 282T1219 172L1223 164ZM512
913L510 907Q481 839 468 784T455 674Q455 642 459 610T471 543L473 535L469 526Q440 468 425 424T406 332Q430 335 458 339T512 348T562 362T602 381L610 385L618 383Q653 375 686 372T752 369Q796 369 840 375Q835 404 828 435T809 502L807 514Q819 581 819 645Q819
710 806 769T766 891L762 899L764 909Q775 948 782 985T791 1059Q777 1061 764 1062T737 1063Q709 1063 681 1059T621 1047L606 1049Q577 1054 553 1060T504 1073Q502 1058 502 1044T502 1016Q502 994 504 971T512 922V913ZM1125 1863L1119 1857Q1056 1784 1009
1701T932 1527L922 1515Q908 1505 893 1502T858 1498Q847 1498 836 1499T815 1504Q785 1492 754 1492Q722 1492 693 1508L684 1512L682 1521Q648 1621 596 1709Q565 1666 541 1621T494 1527L484 1515Q471 1508 457 1505T432 1502Q398 1502 371 1516T325 1553T296
1605T285 1666V1674L291 1680Q360 1752 409 1827T490 1984L494 1994L502 1998Q516 2001 530 2003T559 2006Q590 2006 619 1994Q624 1996 628 1996T639 1996Q676 1996 713 1977L723 1965Q740 1917 760 1873T805 1789Q831 1835 852 1882T887 1981L889 1992L899 1996Q929
2012 967 2012Q998 2012 1026 2001T1075 1970T1110 1926T1125 1873V1863Z" />
<glyph unicode="&#xd6;" glyph-name="Odieresis" horiz-adv-x="1255" d="M1223 164L1219 154Q1219 153 1210 134T1175 93T1105 52T991 33Q946 33 915 43T862 70Q816 63 772 51T684 18L678 14L672 16Q647 16 625 18T578 20Q497 20 412 3T258 -49L248 -53L240 -51Q243
-52 225 -45T183 -20T137 31T109 115Q82 130 65 147T37 180T22 205T18 217L16 227L20 236Q39 270 53 300T76 358T89 416T94 481Q94 522 88 573L90 586Q116 649 128 703T141 811Q141 842 137 874T127 942L125 952L129 958Q152 1003 167 1040T190 1116Q175 1136 165
1169T154 1251Q154 1315 170 1355T207 1419T245 1450T264 1458L274 1462L283 1458Q335 1432 388 1421T500 1409Q524 1409 556 1409T614 1419L623 1421L631 1417Q685 1392 731 1379T823 1364Q848 1375 879 1384T950 1393Q990 1393 1021 1384T1073 1362T1106 1340T1120
1329L1130 1319L1126 1307Q1115 1263 1110 1224T1104 1147Q1104 1097 1114 1051T1145 954L1149 948L1147 940Q1141 902 1137 868T1133 799Q1133 734 1146 675T1188 555L1192 549L1188 539Q1177 495 1171 458T1165 385Q1165 332 1178 282T1219 172L1223 164ZM512
913L510 907Q481 839 468 784T455 674Q455 642 459 610T471 543L473 535L469 526Q440 468 425 424T406 332Q430 335 458 339T512 348T562 362T602 381L610 385L618 383Q653 375 686 372T752 369Q796 369 840 375Q835 404 828 435T809 502L807 514Q819 581 819 645Q819
710 806 769T766 891L762 899L764 909Q775 948 782 985T791 1059Q777 1061 764 1062T737 1063Q709 1063 681 1059T621 1047L606 1049Q577 1054 553 1060T504 1073Q502 1058 502 1044T502 1016Q502 994 504 971T512 922V913ZM979 1784L973 1767Q930 1682 930 1606V1587V1575L919
1567Q873 1538 813 1538Q776 1538 741 1549T676 1583L666 1591L668 1604Q670 1618 670 1630T670 1657Q670 1688 667 1719T655 1782L653 1796L666 1804Q695 1827 733 1839T809 1851Q854 1851 894 1837T967 1796L979 1784ZM602 1802L596 1788Q582 1753 576 1719T569
1653Q569 1639 569 1627T573 1602L575 1591L567 1583Q544 1560 508 1547T428 1534Q396 1534 367 1541T317 1563L305 1569L307 1585Q309 1594 309 1602T309 1620Q309 1657 300 1693T268 1767L260 1782L272 1794Q303 1822 351 1837T453 1853Q498 1853 534 1843T590
1812L602 1802Z" />
<glyph unicode="&#xd7;" glyph-name="multiply" horiz-adv-x="864" d="M801 551Q801 549 802 545T803 530Q803 519 801 502T791 464T769 420T733 373Q708 346 682 331T632 307T589 297T559 295H547L535 297L528 307Q513 335 500 357T475 397T451 427T424 453Q386
418 355 380T303 307L295 297L283 295Q280 294 277 294Q273 293 264 293Q253 293 238 295T203 304T163 324T121 358Q100 379 88 400T69 442T60 479T57 510Q57 521 58 527T59 535L63 547L76 553Q110 572 146 597T217 653Q189 679 157 700T78 743L68 748L63 758Q61
760 58 773T55 809Q55 838 69 879T127 969Q172 1015 213 1029T283 1044Q306 1044 320 1040T336 1036L344 1032L348 1024Q370 978 394 945T449 883Q478 914 501 946T541 1008L545 1018L555 1022Q557 1022 570 1026T606 1030Q634 1030 671 1017T750 963Q787 925 799
890T811 827Q811 800 805 783T799 764L795 756L784 752Q755 738 721 717T649 666Q675 637 707 615T788 569L799 563L801 551Z" />
<glyph unicode="&#xd8;" glyph-name="Oslash" horiz-adv-x="1255" d="M1157 1200L1145 1190L1106 1147Q1106 1096 1115 1050T1145 954L1149 948L1147 940Q1141 902 1137 868T1133 799Q1133 734 1146 675T1188 555L1192 549L1188 539Q1177 495 1171 458T1165 385Q1165
332 1178 282T1219 172L1223 164L1219 154Q1219 153 1210 134T1175 93T1105 52T991 33Q946 33 915 43T862 70Q816 63 772 51T684 18L678 14L672 16Q647 16 625 18T578 20Q547 20 515 18T451 10L442 -23L440 -33L432 -41Q431 -42 423 -48T401 -60T366 -72T322 -78Q260
-78 220 -54T157 1T125 65T115 113Q85 128 67 145T38 179T23 205T18 217L16 227L20 236Q39 270 53 300T76 358T89 416T94 481Q94 522 88 573L90 586Q116 649 128 703T141 811Q141 842 137 874T127 942L125 952L129 958Q152 1002 167 1040T190 1116Q175 1136 165
1169T154 1251Q154 1315 170 1355T207 1419T245 1450T264 1458L274 1462L283 1458Q335 1432 388 1421T500 1409Q524 1409 556 1409T614 1419L623 1421L631 1417Q691 1389 740 1377T842 1364H850Q850 1368 852 1370L856 1384L868 1391Q870 1391 892 1400T948 1409Q996
1409 1030 1395T1087 1358T1123 1310T1144 1263T1153 1227T1155 1214L1157 1200ZM512 913L510 907Q482 839 469 785T455 676V655Q507 730 545 807T606 969L608 979L616 985Q635 1004 653 1022T686 1059Q671 1057 655 1055T621 1047L606 1049Q577 1054 553 1060T504
1073Q502 1058 502 1044T502 1016Q502 994 504 971T512 922V913ZM809 502L807 514Q819 581 819 643Q819 654 819 665T817 688Q771 620 738 550T686 403L684 393L678 387L666 375Q708 369 752 369Q796 369 840 375Q835 404 828 435T809 502Z" />
<glyph unicode="&#xd9;" glyph-name="Ugrave" horiz-adv-x="1194" d="M532 1327L526 1315Q498 1250 486 1188T473 1063Q473 1003 485 942V928Q462 862 450 806T438 696Q438 661 443 626T459 553V537Q431 477 419 428T406 328Q438 336 468 347T537 373L553 377Q578
374 600 372T645 369Q712 369 774 387Q769 416 763 446T748 508L745 520Q753 557 756 593T760 668Q760 733 748 795T713 918V934Q728 980 734 1025T741 1116Q741 1169 732 1221T702 1327L696 1339L705 1352Q706 1353 717 1366T752 1394T813 1421T905 1434Q947 1434
978 1424T1032 1402T1065 1380T1077 1368L1087 1358L1083 1343Q1059 1254 1059 1169Q1059 1065 1096 969V954Q1077 871 1077 793Q1077 667 1126 551L1130 543L1128 535Q1104 448 1104 365Q1104 303 1116 243T1155 123L1159 115L1155 104Q1154 103 1145 86T1111
47T1044 9T936 -8Q895 -8 866 0T815 20T782 45T762 68Q731 58 702 46T641 16L629 14Q578 14 532 13T442 5T356 -16T270 -57L262 -63L252 -61Q246 -58 231 -53T196 -32T155 13T117 94Q89 107 71 123T43 155T28 180T23 193L20 203L25 211Q57 275 72 329T88 449Q88
475 86 503T78 563V575Q99 635 110 689T121 797Q121 832 116 868T100 944L98 952L102 961Q133 1024 148 1087T164 1217Q164 1282 147 1352L143 1366L154 1374Q155 1375 165 1385T195 1405T245 1425T317 1434Q369 1434 408 1420T472 1388T510 1355T524 1339L532
1327ZM719 1599L717 1590Q710 1563 694 1544T658 1513T613 1494T567 1488Q559 1488 551 1488T534 1492L524 1494L520 1504Q489 1582 448 1653T352 1791L344 1799L348 1812Q357 1839 377 1862T425 1903T484 1929T551 1939Q562 1939 571 1939T592 1937L608 1933L610
1916Q616 1838 642 1760T715 1607L719 1599Z" />
<glyph unicode="&#xda;" glyph-name="Uacute" horiz-adv-x="1194" d="M532 1327L526 1315Q498 1250 486 1188T473 1063Q473 1003 485 942V928Q462 862 450 806T438 696Q438 661 443 626T459 553V537Q431 477 419 428T406 328Q438 336 468 347T537 373L553 377Q578
374 600 372T645 369Q712 369 774 387Q769 416 763 446T748 508L745 520Q753 557 756 593T760 668Q760 733 748 795T713 918V934Q728 980 734 1025T741 1116Q741 1169 732 1221T702 1327L696 1339L705 1352Q706 1353 717 1366T752 1394T813 1421T905 1434Q947 1434
978 1424T1032 1402T1065 1380T1077 1368L1087 1358L1083 1343Q1059 1254 1059 1169Q1059 1065 1096 969V954Q1077 871 1077 793Q1077 667 1126 551L1130 543L1128 535Q1104 448 1104 365Q1104 303 1116 243T1155 123L1159 115L1155 104Q1154 103 1145 86T1111
47T1044 9T936 -8Q895 -8 866 0T815 20T782 45T762 68Q731 58 702 46T641 16L629 14Q578 14 532 13T442 5T356 -16T270 -57L262 -63L252 -61Q246 -58 231 -53T196 -32T155 13T117 94Q89 107 71 123T43 155T28 180T23 193L20 203L25 211Q57 275 72 329T88 449Q88
475 86 503T78 563V575Q99 635 110 689T121 797Q121 832 116 868T100 944L98 952L102 961Q133 1024 148 1087T164 1217Q164 1282 147 1352L143 1366L154 1374Q155 1375 165 1385T195 1405T245 1425T317 1434Q369 1434 408 1420T472 1388T510 1355T524 1339L532
1327ZM897 1778L886 1772Q811 1713 763 1647T673 1512L669 1504L657 1502Q652 1502 647 1501T637 1500Q611 1500 587 1508T542 1532T508 1567T487 1613L483 1625L491 1633Q551 1699 600 1774T684 1934L690 1946H702Q707 1948 711 1948T721 1948Q754 1948 784 1936T839
1902T878 1852T895 1791L897 1778Z" />
<glyph unicode="&#xdb;" glyph-name="Ucircumflex" horiz-adv-x="1194" d="M532 1327L526 1315Q498 1250 486 1188T473 1063Q473 1003 485 942V928Q462 862 450 806T438 696Q438 661 443 626T459 553V537Q431 477 419 428T406 328Q438 336 468 347T537 373L553
377Q578 374 600 372T645 369Q712 369 774 387Q769 416 763 446T748 508L745 520Q753 557 756 593T760 668Q760 733 748 795T713 918V934Q728 980 734 1025T741 1116Q741 1169 732 1221T702 1327L696 1339L705 1352Q706 1353 717 1366T752 1394T813 1421T905 1434Q947
1434 978 1424T1032 1402T1065 1380T1077 1368L1087 1358L1083 1343Q1059 1254 1059 1169Q1059 1065 1096 969V954Q1077 871 1077 793Q1077 667 1126 551L1130 543L1128 535Q1104 448 1104 365Q1104 303 1116 243T1155 123L1159 115L1155 104Q1154 103 1145 86T1111
47T1044 9T936 -8Q895 -8 866 0T815 20T782 45T762 68Q731 58 702 46T641 16L629 14Q578 14 532 13T442 5T356 -16T270 -57L262 -63L252 -61Q246 -58 231 -53T196 -32T155 13T117 94Q89 107 71 123T43 155T28 180T23 193L20 203L25 211Q57 275 72 329T88 449Q88
475 86 503T78 563V575Q99 635 110 689T121 797Q121 832 116 868T100 944L98 952L102 961Q133 1024 148 1087T164 1217Q164 1282 147 1352L143 1366L154 1374Q155 1375 165 1385T195 1405T245 1425T317 1434Q369 1434 408 1420T472 1388T510 1355T524 1339L532
1327ZM905 1652V1641Q902 1606 887 1579T850 1533T800 1504T747 1494Q713 1494 684 1510L675 1514L673 1523Q655 1572 633 1618T585 1709Q554 1666 530 1620T485 1525L475 1514Q462 1508 449 1504T421 1500Q391 1500 364 1513T317 1549T286 1602T274 1664V1672L280
1678Q414 1820 475 1983L479 1994L487 1996Q501 2002 515 2005T544 2008Q573 2008 602 1996Q608 1998 613 1998T624 1998Q661 1998 698 1979L706 1975L708 1967Q743 1874 789 1798T899 1660L905 1652Z" />
<glyph unicode="&#xdc;" glyph-name="Udieresis" horiz-adv-x="1194" d="M532 1327L526 1315Q498 1250 486 1188T473 1063Q473 1003 485 942V928Q462 862 450 806T438 696Q438 661 443 626T459 553V537Q431 477 419 428T406 328Q438 336 468 347T537 373L553 377Q578
374 600 372T645 369Q712 369 774 387Q769 416 763 446T748 508L745 520Q753 557 756 593T760 668Q760 733 748 795T713 918V934Q728 980 734 1025T741 1116Q741 1169 732 1221T702 1327L696 1339L705 1352Q706 1353 717 1366T752 1394T813 1421T905 1434Q947 1434
978 1424T1032 1402T1065 1380T1077 1368L1087 1358L1083 1343Q1059 1254 1059 1169Q1059 1065 1096 969V954Q1077 871 1077 793Q1077 667 1126 551L1130 543L1128 535Q1104 448 1104 365Q1104 303 1116 243T1155 123L1159 115L1155 104Q1154 103 1145 86T1111
47T1044 9T936 -8Q895 -8 866 0T815 20T782 45T762 68Q731 58 702 46T641 16L629 14Q578 14 532 13T442 5T356 -16T270 -57L262 -63L252 -61Q246 -58 231 -53T196 -32T155 13T117 94Q89 107 71 123T43 155T28 180T23 193L20 203L25 211Q57 275 72 329T88 449Q88
475 86 503T78 563V575Q99 635 110 689T121 797Q121 832 116 868T100 944L98 952L102 961Q133 1024 148 1087T164 1217Q164 1282 147 1352L143 1366L154 1374Q155 1375 165 1385T195 1405T245 1425T317 1434Q369 1434 408 1420T472 1388T510 1355T524 1339L532
1327ZM948 1784L942 1767Q899 1682 899 1606V1587V1575L888 1567Q842 1538 782 1538Q745 1538 710 1549T645 1583L635 1591L637 1604Q639 1618 639 1630T639 1657Q639 1688 636 1719T624 1782L622 1796L635 1804Q664 1827 702 1839T778 1851Q823 1851 863 1837T936
1796L948 1784ZM571 1802L565 1788Q551 1753 545 1719T538 1653Q538 1639 538 1627T542 1602L544 1591L536 1583Q513 1560 477 1547T397 1534Q365 1534 336 1541T286 1563L274 1569L276 1585Q278 1594 278 1602T278 1620Q278 1657 269 1693T237 1767L229 1782L241
1794Q272 1822 320 1837T422 1853Q467 1853 503 1843T559 1812L571 1802Z" />
<glyph unicode="&#xdd;" glyph-name="Yacute" horiz-adv-x="993" d="M1049 1217L1040 1206Q903 1051 885 864V858L879 852Q807 761 770 668T727 475V467L721 461Q649 379 609 284T563 80V70L555 63Q554 61 547 55T525 43T489 31T440 25Q417 25 390 30T330 49Q274
71 245 100T202 155T186 200T184 221L193 240Q264 312 307 402T369 604V606Q353 634 333 664T291 722T245 773T197 813L190 817L188 827Q157 928 102 1007T-39 1149L-49 1157V1169Q-49 1166 -46 1181T-33 1221T-6 1274T38 1327T105 1369T197 1386Q217 1386 229
1383T244 1380L256 1376L260 1364Q327 1170 477 1059L485 1047Q492 1030 499 1011T518 973Q518 976 519 979T520 987V995L526 1001Q601 1079 641 1167T692 1360V1374L705 1380Q707 1382 728 1390T791 1399Q840 1399 878 1387T944 1355T992 1313T1024 1272T1041
1241T1047 1229L1049 1217ZM809 1680L798 1674Q723 1615 675 1549T585 1414L581 1406L569 1404Q564 1404 559 1403T549 1402Q523 1402 499 1410T454 1434T420 1469T399 1515L395 1527L403 1535Q463 1601 512 1676T596 1836L602 1848H614Q619 1850 623 1850T633
1850Q666 1850 696 1838T751 1804T790 1754T807 1693L809 1680Z" />
<glyph unicode="&#xde;" glyph-name="Thorn" horiz-adv-x="1067" d="M1042 602L1040 588L1028 584Q932 542 860 485T735 350L723 340Q688 322 652 300T580 251T511 194T451 129Q454 120 457 110T465 90L469 80L465 72Q464 70 454 55T421 21T359 -12T260 -27Q201
-27 163 -11T102 24T70 59T61 78L57 88L61 96Q84 152 95 210T106 330Q106 372 102 414T86 502V514Q98 564 105 612T113 707Q113 761 104 811T80 913L78 922L82 930Q125 1040 125 1149Q125 1192 119 1235T98 1323L94 1335L102 1346Q103 1347 114 1358T147 1383T204
1406T285 1417Q333 1417 368 1405T426 1377T462 1349T475 1335L485 1325L479 1313Q471 1288 465 1265T453 1219Q499 1190 551 1173T670 1143Q675 1143 680 1142T690 1141H698L707 1135Q747 1101 783 1077T858 1036T940 1010T1036 997H1049L1055 987Q1056 985 1059
978T1067 959T1075 928T1079 887Q1079 868 1076 846T1063 797Q1048 752 1028 727Q1039 701 1043 679T1047 639Q1047 630 1046 624T1044 612Q1043 607 1042 602ZM590 782L578 788Q542 808 511 827T449 860Q441 823 438 786T434 715Q434 675 438 636T453 559Q464
570 473 581T485 600L492 608L500 610Q632 660 727 756Q665 776 590 782Z" />
<glyph unicode="&#xdf;" glyph-name="germandbls" horiz-adv-x="1812" d="M909 295Q909 292 908 275T898 233T866 177T801 119Q790 96 779 83T766 68L758 57L743 59Q708 64 682 67T633 70Q610 70 590 67T550 58T507 43T457 20L442 18Q416 18 392 20T348 23Q321
23 300 20T257 10T212 -8T156 -35L145 -41L137 -39Q99 -26 70 1Q45 24 25 66T4 176Q4 218 15 247T41 294T68 320T82 330L90 336L100 334Q131 328 154 325T197 322Q215 322 232 324T270 332T314 346T373 367L381 371L389 369Q436 359 473 356Q461 375 445 393T410
432L403 442Q389 493 372 535T333 615T282 685T219 750L211 756V764Q194 866 149 950T29 1104L20 1112V1124Q20 1125 22 1133T29 1154T44 1184T70 1219Q68 1224 68 1228T68 1237Q68 1279 79 1308T105 1355T131 1381T145 1391L154 1395L164 1393Q220 1380 258 1380Q276
1380 292 1382T326 1390T367 1403T418 1419Q423 1421 427 1422T436 1427L444 1432L453 1430Q490 1422 518 1419T571 1415Q616 1415 658 1428T760 1468L772 1475L784 1468Q785 1467 797 1459T826 1433T858 1386T881 1315Q883 1304 884 1293T885 1272Q885 1238 877
1212T859 1167T841 1138T831 1126L821 1118L807 1120Q773 1125 747 1127T698 1130Q675 1130 655 1128T615 1119T571 1104T520 1081L514 1077L506 1079Q481 1079 461 1080T424 1081Q444 1047 468 1017T524 958L530 948Q545 894 562 850T601 768T651 697T717 633L725
618Q735 566 748 525T782 447T831 378T901 311L907 305L909 295ZM1815 295Q1815 292 1814 275T1804 233T1772 177T1706 119Q1695 96 1684 83T1671 68L1663 57L1649 59Q1614 64 1587 67T1538 70Q1516 70 1496 67T1456 58T1413 43T1362 20L1348 18Q1322 18 1297 20T1253
23Q1226 23 1205 20T1163 10T1117 -8T1061 -35L1051 -41L1042 -39Q1004 -26 975 1Q950 24 930 66T909 176Q909 218 920 247T946 294T973 320T987 330L995 336L1006 334Q1037 328 1059 325T1102 322Q1120 322 1137 324T1175 332T1219 346T1278 367L1286 371L1294
369Q1341 359 1378 356Q1366 375 1350 393T1315 432L1309 442Q1295 493 1278 535T1239 615T1188 685T1124 750L1116 756V764Q1083 967 934 1104L926 1112V1124Q926 1125 927 1133T934 1154T949 1184T975 1219Q973 1224 973 1228T973 1237Q973 1279 984 1308T1010
1355T1037 1381T1051 1391L1059 1395L1069 1393Q1125 1380 1163 1380Q1181 1380 1197 1382T1231 1390T1272 1403T1323 1419Q1328 1421 1332 1422T1341 1427L1350 1432L1358 1430Q1395 1422 1423 1419T1477 1415Q1521 1415 1563 1428T1665 1468L1677 1475L1690 1468Q1691
1467 1703 1459T1732 1433T1763 1386T1786 1315Q1788 1304 1789 1293T1790 1272Q1790 1238 1782 1212T1764 1167T1746 1138T1737 1126L1726 1118L1712 1120Q1678 1125 1652 1127T1604 1130Q1581 1130 1561 1128T1520 1119T1476 1104T1425 1081L1419 1077L1411 1079Q1386
1079 1366 1080T1329 1081Q1349 1047 1374 1017T1430 958L1436 948Q1451 894 1468 850T1507 768T1557 697T1622 633L1630 618Q1640 566 1653 525T1687 447T1736 378T1806 311L1812 305L1815 295Z" />
<glyph unicode="&#xe0;" glyph-name="agrave" horiz-adv-x="1040" d="M1069 522Q1075 489 1075 461Q1075 430 1069 406T1056 364T1042 336T1034 324L1026 313L1012 315Q998 317 984 317T956 317Q970 268 991 222T1038 133L1049 117L1036 102Q1035 101 1026 92T997
70T949 43T879 20Q860 15 842 13T805 10Q779 10 758 14T721 23T698 33T688 37L674 45L676 61Q676 74 677 86T678 111Q678 180 666 248Q662 244 659 244L645 240Q582 240 516 232T385 203V172Q385 129 391 86L393 76L387 68Q386 67 377 57T349 35T301 14T231 4Q151
4 105 27T33 79Q4 112 -6 154L-8 162L-2 170Q49 248 73 336T98 528V563L102 575Q141 653 159 730T178 887Q178 907 177 927T174 967L172 977L178 985Q274 1132 274 1303Q274 1318 273 1334T270 1368V1380L279 1389Q280 1390 289 1396T316 1410T357 1424T414 1430Q476
1430 519 1411T590 1369T629 1327T643 1307L649 1294L643 1282Q639 1278 639 1276H653Q697 1276 722 1270T750 1264L762 1255L760 1241Q758 1229 758 1218T758 1194Q758 1016 842 868L846 856V829Q846 777 850 730T866 639Q886 647 905 656T942 676L952 682L965
678Q966 677 978 669T1007 643T1041 596T1069 522ZM530 778L516 825Q493 765 482 706T471 590V563Q514 578 553 598L569 602Q576 600 583 599T596 598Q585 641 569 685T530 778ZM627 1603L625 1594Q618 1567 602 1548T566 1517T521 1498T475 1492Q467 1492 459
1492T442 1496L432 1498L428 1508Q397 1586 356 1657T260 1795L252 1803L256 1816Q265 1843 285 1866T333 1907T392 1933T459 1943Q470 1943 479 1943T500 1941L516 1937L518 1920Q524 1842 550 1764T623 1611L627 1603Z" />
<glyph unicode="&#xe1;" glyph-name="aacute" horiz-adv-x="1040" d="M1069 522Q1075 489 1075 461Q1075 430 1069 406T1056 364T1042 336T1034 324L1026 313L1012 315Q998 317 984 317T956 317Q970 268 991 222T1038 133L1049 117L1036 102Q1035 101 1026 92T997
70T949 43T879 20Q860 15 842 13T805 10Q779 10 758 14T721 23T698 33T688 37L674 45L676 61Q676 74 677 86T678 111Q678 180 666 248Q662 244 659 244L645 240Q582 240 516 232T385 203V172Q385 129 391 86L393 76L387 68Q386 67 377 57T349 35T301 14T231 4Q151
4 105 27T33 79Q4 112 -6 154L-8 162L-2 170Q49 248 73 336T98 528V563L102 575Q141 653 159 730T178 887Q178 907 177 927T174 967L172 977L178 985Q274 1132 274 1303Q274 1318 273 1334T270 1368V1380L279 1389Q280 1390 289 1396T316 1410T357 1424T414 1430Q476
1430 519 1411T590 1369T629 1327T643 1307L649 1294L643 1282Q639 1278 639 1276H653Q697 1276 722 1270T750 1264L762 1255L760 1241Q758 1229 758 1218T758 1194Q758 1016 842 868L846 856V829Q846 777 850 730T866 639Q886 647 905 656T942 676L952 682L965
678Q966 677 978 669T1007 643T1041 596T1069 522ZM530 778L516 825Q493 765 482 706T471 590V563Q514 578 553 598L569 602Q576 600 583 599T596 598Q585 641 569 685T530 778ZM887 1764L876 1758Q801 1699 753 1633T663 1498L659 1490L647 1488Q642 1488 637
1487T627 1486Q601 1486 577 1494T532 1518T498 1553T477 1599L473 1611L481 1619Q541 1685 590 1760T674 1920L680 1932H692Q697 1934 701 1934T711 1934Q744 1934 774 1922T829 1888T868 1838T885 1777L887 1764Z" />
<glyph unicode="&#xe2;" glyph-name="acircumflex" horiz-adv-x="1040" d="M1069 522Q1075 489 1075 461Q1075 430 1069 406T1056 364T1042 336T1034 324L1026 313L1012 315Q998 317 984 317T956 317Q970 268 991 222T1038 133L1049 117L1036 102Q1035 101 1026
92T997 70T949 43T879 20Q860 15 842 13T805 10Q779 10 758 14T721 23T698 33T688 37L674 45L676 61Q676 74 677 86T678 111Q678 180 666 248Q662 244 659 244L645 240Q582 240 516 232T385 203V172Q385 129 391 86L393 76L387 68Q386 67 377 57T349 35T301 14T231
4Q151 4 105 27T33 79Q4 112 -6 154L-8 162L-2 170Q49 248 73 336T98 528V563L102 575Q141 653 159 730T178 887Q178 907 177 927T174 967L172 977L178 985Q274 1132 274 1303Q274 1318 273 1334T270 1368V1380L279 1389Q280 1390 289 1396T316 1410T357 1424T414
1430Q476 1430 519 1411T590 1369T629 1327T643 1307L649 1294L643 1282Q639 1278 639 1276H653Q697 1276 722 1270T750 1264L762 1255L760 1241Q758 1229 758 1218T758 1194Q758 1016 842 868L846 856V829Q846 777 850 730T866 639Q886 647 905 656T942 676L952
682L965 678Q966 677 978 669T1007 643T1041 596T1069 522ZM530 778L516 825Q493 765 482 706T471 590V563Q514 578 553 598L569 602Q576 600 583 599T596 598Q585 641 569 685T530 778ZM848 1646V1635Q845 1600 830 1573T793 1527T743 1498T690 1488Q656 1488
627 1504L618 1508L616 1517Q598 1566 576 1612T528 1703Q497 1660 473 1614T428 1519L418 1508Q405 1502 392 1498T364 1494Q334 1494 307 1507T260 1543T229 1596T217 1658V1666L223 1672Q357 1814 418 1977L422 1988L430 1990Q444 1996 458 1999T487 2002Q516
2002 545 1990Q551 1992 556 1992T567 1992Q604 1992 641 1973L649 1969L651 1961Q686 1868 732 1792T842 1654L848 1646Z" />
<glyph unicode="&#xe3;" glyph-name="atilde" horiz-adv-x="1040" d="M1069 522Q1075 489 1075 461Q1075 430 1069 406T1056 364T1042 336T1034 324L1026 313L1012 315Q998 317 984 317T956 317Q970 268 991 222T1038 133L1049 117L1036 102Q1035 101 1026 92T997
70T949 43T879 20Q860 15 842 13T805 10Q779 10 758 14T721 23T698 33T688 37L674 45L676 61Q676 74 677 86T678 111Q678 180 666 248Q662 244 659 244L645 240Q582 240 516 232T385 203V172Q385 129 391 86L393 76L387 68Q386 67 377 57T349 35T301 14T231 4Q151
4 105 27T33 79Q4 112 -6 154L-8 162L-2 170Q49 248 73 336T98 528V563L102 575Q141 653 159 730T178 887Q178 907 177 927T174 967L172 977L178 985Q274 1132 274 1303Q274 1318 273 1334T270 1368V1380L279 1389Q280 1390 289 1396T316 1410T357 1424T414 1430Q476
1430 519 1411T590 1369T629 1327T643 1307L649 1294L643 1282Q639 1278 639 1276H653Q697 1276 722 1270T750 1264L762 1255L760 1241Q758 1229 758 1218T758 1194Q758 1016 842 868L846 856V829Q846 777 850 730T866 639Q886 647 905 656T942 676L952 682L965
678Q966 677 978 669T1007 643T1041 596T1069 522ZM530 778L516 825Q493 765 482 706T471 590V563Q514 578 553 598L569 602Q576 600 583 599T596 598Q585 641 569 685T530 778ZM973 1845L967 1839Q904 1766 857 1683T780 1509L770 1497Q756 1487 741 1484T706
1480Q695 1480 684 1481T663 1486Q633 1474 602 1474Q570 1474 541 1490L532 1494L530 1503Q496 1603 444 1691Q413 1648 389 1603T342 1509L332 1497Q319 1490 305 1487T280 1484Q246 1484 219 1498T173 1535T144 1587T133 1648V1656L139 1662Q208 1734 257 1809T338
1966L342 1976L350 1980Q364 1983 378 1985T407 1988Q438 1988 467 1976Q472 1978 476 1978T487 1978Q524 1978 561 1959L571 1947Q588 1899 608 1855T653 1771Q679 1817 700 1864T735 1963L737 1974L747 1978Q777 1994 815 1994Q846 1994 874 1983T923 1952T958
1908T973 1855V1845Z" />
<glyph unicode="&#xe4;" glyph-name="adieresis" horiz-adv-x="1040" d="M1069 522Q1075 489 1075 461Q1075 430 1069 406T1056 364T1042 336T1034 324L1026 313L1012 315Q998 317 984 317T956 317Q970 268 991 222T1038 133L1049 117L1036 102Q1035 101 1026
92T997 70T949 43T879 20Q860 15 842 13T805 10Q779 10 758 14T721 23T698 33T688 37L674 45L676 61Q676 74 677 86T678 111Q678 180 666 248Q662 244 659 244L645 240Q582 240 516 232T385 203V172Q385 129 391 86L393 76L387 68Q386 67 377 57T349 35T301 14T231
4Q151 4 105 27T33 79Q4 112 -6 154L-8 162L-2 170Q49 248 73 336T98 528V563L102 575Q141 653 159 730T178 887Q178 907 177 927T174 967L172 977L178 985Q274 1132 274 1303Q274 1318 273 1334T270 1368V1380L279 1389Q280 1390 289 1396T316 1410T357 1424T414
1430Q476 1430 519 1411T590 1369T629 1327T643 1307L649 1294L643 1282Q639 1278 639 1276H653Q697 1276 722 1270T750 1264L762 1255L760 1241Q758 1229 758 1218T758 1194Q758 1016 842 868L846 856V829Q846 777 850 730T866 639Q886 647 905 656T942 676L952
682L965 678Q966 677 978 669T1007 643T1041 596T1069 522ZM530 778L516 825Q493 765 482 706T471 590V563Q514 578 553 598L569 602Q576 600 583 599T596 598Q585 641 569 685T530 778ZM893 1760L887 1743Q844 1658 844 1582V1563V1551L833 1543Q787 1514 727
1514Q690 1514 655 1525T590 1559L580 1567L582 1580Q584 1594 584 1606T584 1633Q584 1664 581 1695T569 1758L567 1772L580 1780Q609 1803 647 1815T723 1827Q768 1827 808 1813T881 1772L893 1760ZM516 1778L510 1764Q496 1729 490 1695T483 1629Q483 1615 483
1603T487 1578L489 1567L481 1559Q458 1536 422 1523T342 1510Q310 1510 281 1517T231 1539L219 1545L221 1561Q223 1570 223 1578T223 1596Q223 1633 214 1669T182 1743L174 1758L186 1770Q217 1798 265 1813T367 1829Q412 1829 448 1819T504 1788L516 1778Z"
/>
<glyph unicode="&#xe5;" glyph-name="aring" horiz-adv-x="1040" d="M1069 522Q1075 489 1075 461Q1075 430 1069 406T1056 364T1042 336T1034 324L1026 313L1012 315Q998 317 984 317T956 317Q970 268 991 222T1038 133L1049 117L1036 102Q1035 101 1026 92T997
70T949 43T879 20Q860 15 842 13T805 10Q779 10 758 14T721 23T698 33T688 37L674 45L676 61Q676 74 677 86T678 111Q678 180 666 248Q662 244 659 244L645 240Q582 240 516 232T385 203V172Q385 129 391 86L393 76L387 68Q386 67 377 57T349 35T301 14T231 4Q151
4 105 27T33 79Q4 112 -6 154L-8 162L-2 170Q49 248 73 336T98 528V563L102 575Q141 653 159 730T178 887Q178 907 177 927T174 967L172 977L178 985Q274 1132 274 1303Q274 1318 273 1334T270 1368V1380L279 1389Q280 1390 289 1396T316 1410T357 1424T414 1430Q476
1430 519 1411T590 1369T629 1327T643 1307L649 1294L643 1282Q639 1278 639 1276H653Q697 1276 722 1270T750 1264L762 1255L760 1241Q758 1229 758 1218T758 1194Q758 1016 842 868L846 856V829Q846 777 850 730T866 639Q886 647 905 656T942 676L952 682L965
678Q966 677 978 669T1007 643T1041 596T1069 522ZM530 778L516 825Q493 765 482 706T471 590V563Q514 578 553 598L569 602Q576 600 583 599T596 598Q585 641 569 685T530 778ZM805 1594Q803 1557 785 1526T737 1478L729 1473L721 1475Q671 1486 622 1491T522
1496Q477 1496 432 1492T342 1480L334 1478L326 1482Q295 1499 281 1529T266 1600Q266 1616 269 1630T278 1660Q255 1678 240 1703T219 1754L217 1766L227 1777Q283 1826 325 1889T399 2026L405 2039L418 2041Q423 2043 428 2043T440 2043Q469 2043 498 2032T553
2002Q576 2019 605 2028T661 2037Q683 2037 700 2030L711 2026L715 2016Q738 1942 770 1880T846 1764L850 1758V1752Q850 1717 837 1689T801 1641Q804 1630 804 1619T805 1594ZM549 1815Q527 1792 509 1768T473 1717H532Q551 1717 570 1717T608 1719Q596 1744 581
1768T549 1815Z" />
<glyph unicode="&#xe6;" glyph-name="ae" horiz-adv-x="1634" d="M1440 707Q1440 662 1428 629T1401 572T1374 537T1360 524L1348 516L1335 520Q1280 539 1237 548T1153 557Q1122 557 1092 551L1098 539V522Q1085 488 1078 455T1065 387Q1082 391 1102 394T1140
399Q1161 402 1182 403L1190 406L1198 401Q1255 378 1295 366T1376 354Q1404 354 1436 360T1511 377L1524 381L1534 373Q1535 371 1545 361T1568 329T1589 275T1599 197Q1598 152 1586 119T1558 64T1529 29T1513 16L1503 10L1491 14Q1432 36 1393 45T1317 55Q1291
55 1262 51T1196 37H1184Q1153 43 1127 49T1073 61Q1064 50 1049 38T1012 15T959 -1T891 -8Q832 -8 794 8T733 43T701 79T692 98L688 106L692 117Q729 207 735 307Q673 313 608 313Q553 313 501 308T408 291L397 287L393 289Q340 186 328 68L326 57L317 51Q316
50 310 45T290 35T259 25T215 20Q189 20 158 27T92 51Q38 76 11 106T-29 164T-42 210T-43 231V242L-35 248Q41 316 89 403T162 602L166 614Q237 696 279 786T334 977L342 991Q419 1063 465 1148T526 1339L528 1352L541 1358Q543 1358 562 1365T616 1372Q651 1372
676 1367T727 1350L725 1356L733 1366Q734 1367 745 1378T778 1403T834 1427T915 1438Q969 1438 1007 1423T1069 1391Q1098 1394 1130 1400T1194 1417L1202 1421L1210 1419Q1260 1404 1296 1397T1364 1389Q1399 1389 1436 1398T1526 1425L1538 1430L1548 1423Q1549
1422 1560 1412T1586 1382T1614 1330T1630 1253V1235Q1630 1195 1620 1164T1598 1112T1575 1079T1563 1067L1552 1059L1538 1063Q1490 1074 1456 1079T1393 1085Q1359 1085 1325 1078T1243 1055L1231 1053Q1189 1061 1150 1065T1073 1069Q1076 1041 1081 1014T1096
958V944Q1089 926 1086 909T1079 872Q1108 864 1134 861T1188 858Q1225 858 1263 864T1346 885L1358 889L1368 881Q1369 880 1380 870T1405 838T1429 784T1440 707ZM743 727Q743 828 713 924Q707 902 701 880T692 834L686 821Q640 770 608 718T553 612Q626 600
709 600H731Q743 664 743 727Z" />
<glyph unicode="&#xe7;" glyph-name="ccedilla" horiz-adv-x="1055" d="M512 913L510 907Q481 839 468 784T455 674Q455 642 459 610T471 543L473 535L469 526Q440 469 425 425T406 332Q426 335 442 339T473 348T505 360T543 373Q548 375 552 376T561 381L569
385L578 383Q612 375 642 372T700 369Q757 369 811 383T930 428L942 434L952 428Q953 427 966 418T995 390T1028 340T1051 264Q1053 253 1053 243T1053 223Q1053 188 1045 160T1027 113T1009 82T999 70L989 59L977 63Q946 68 918 71T864 74Q808 74 760 61Q755 37
755 15T754 -33Q754 -75 759 -118T776 -205L778 -215L770 -225Q761 -235 750 -242T727 -256V-270Q727 -300 715 -328L711 -340L696 -342Q548 -363 412 -451L401 -459L391 -453Q370 -444 352 -428T321 -390T299 -342T291 -287Q291 -249 307 -219L313 -209L324 -207Q379
-199 429 -187T526 -154Q535 -96 535 -39Q535 -23 534 -9T532 20Q460 18 392 2T258 -49L248 -53L240 -51Q243 -52 225 -45T183 -20T137 31T109 115Q82 130 65 147T37 180T22 205T18 217L16 227L20 236Q39 270 53 300T76 358T89 416T94 481Q94 522 88 573L90 586Q116
649 128 703T141 811Q141 842 137 874T127 942L125 952L129 958Q152 1003 167 1040T190 1116Q175 1136 165 1169T154 1251Q154 1315 170 1355T207 1419T245 1450T264 1458L274 1462L283 1458Q335 1432 388 1421T500 1409Q524 1409 556 1409T614 1419L623 1421L631
1417Q690 1391 738 1378T838 1364Q869 1364 900 1368T967 1382L979 1384L987 1376Q988 1375 998 1365T1018 1335T1038 1285T1047 1212V1196Q1044 1151 1031 1118T1002 1063T975 1030T961 1018L948 1010L936 1014Q877 1039 831 1051T737 1063Q709 1063 681 1059T621
1047L606 1049Q577 1054 553 1060T504 1073Q502 1058 502 1044T502 1016Q502 994 504 971T512 922V913Z" />
</font>
</defs>
</svg>
