<?xml version="1.0" standalone="no"?>
<!DOCTYPE svg PUBLIC "-//W3C//DTD SVG 1.1//EN" "http://www.w3.org/Graphics/SVG/1.1/DTD/svg11.dtd">
<svg xmlns="http://www.w3.org/2000/svg">
<defs >
<font id="Neuton" horiz-adv-x="883" ><font-face
    font-family="Neuton ExtraLight"
    units-per-em="2048"
    panose-1="0 0 3 0 0 0 0 0 0 0"
    ascent="2106"
    descent="-485"
    alphabetic="0" />
<glyph unicode=" " glyph-name="space" horiz-adv-x="426" />
<glyph unicode="!" glyph-name="exclam" horiz-adv-x="248" d="M141 360Q161 602 175 864T190 1253Q190 1275 175 1284T137 1294Q108 1294 88 1283T68 1253Q68 1165 77 882T97 369L141 360ZM152 -33T165 -7T179 66Q179 107 163 133T119 159Q94 159 78 133T62 66Q62
22 76 -5T120 -33Q152 -33 165 -7Z" />
<glyph unicode="&quot;" glyph-name="quotedbl" horiz-adv-x="396" d="M82 891L134 895L170 1296L61 1302L82 891ZM247 891L300 895L336 1296L226 1302L247 891Z" />
<glyph unicode="#" glyph-name="numbersign" horiz-adv-x="1090" d="M1028 712H771L725 403H973L952 326H714L662 -19L593 -26L646 326H383L331 -19L264 -26L317 326H43L64 403H328L374 712H114L136 789H386L440 1151L508 1161L452 789H716L770 1151L838 1160L783
789H1047L1028 712ZM658 403L704 712H441L394 403H658Z" />
<glyph unicode="$" glyph-name="dollar" horiz-adv-x="822" d="M778 224T739 155T627 39T455 -21L466 -164L348 -179L358 -26Q260 -22 177 17T46 116L76 401L124 393L152 174Q180 121 240 86T373 41L378 54V594Q288 652 230 700T134 813T95 959Q95 1042 132 1107T231
1212T365 1265L356 1396L465 1411L452 1270Q532 1266 603 1239T719 1161L686 851L640 858L613 1101Q590 1143 541 1173T435 1211L432 1205V694L483 661Q581 598 639 552T738 445T778 308Q778 224 739 155ZM193 922T242 857T383 728V1208L381 1213Q329 1208 286
1182T218 1111T193 1006Q193 922 242 857ZM504 40T555 67T637 143T668 262Q668 324 637 375T558 467T434 557V54L443 37Q504 40 555 67Z" />
<glyph unicode="%" glyph-name="percent" horiz-adv-x="1110" d="M927 1203L596 591L272 -47L171 -43L517 588L808 1163H433Q452 1134 467 1041T483 899Q483 815 453 743T371 629T262 586Q199 586 151 624T75 733T48 899Q48 984 75 1056T151 1170T260 1213Q297
1213 303 1210L295 1163Q292 1166 286 1172T275 1180T260 1182Q220 1182 193 1138T152 1028T138 899Q138 838 154 774T198 668T262 625Q302 625 331 667T376 772T392 899Q392 1078 337 1194L833 1212L930 1207L927 1203ZM904 591T955 550T1033 436T1060 274Q1060
191 1030 120T948 6T838 -36Q775 -36 726 3T650 113T622 278Q622 362 649 434T726 548T835 591Q904 591 955 550ZM878 0T907 43T952 151T968 280Q968 341 950 406T902 515T835 559Q795 559 768 515T728 406T715 278Q715 217 730 152T774 44T838 0Q878 0 907 43Z"
/>
<glyph unicode="&amp;" glyph-name="ampersand" horiz-adv-x="1237" d="M470 -20T565 50T739 236L842 116Q888 61 954 21T1089 -20Q1117 -20 1132 -17T1180 -3L1187 34L1141 47Q973 100 796 332L1019 723L1187 752L1192 786H776L774 752L935 721L747 385L492 680V683Q574
744 626 791T711 896T745 1021Q745 1097 714 1154T626 1241T492 1272Q414 1272 351 1231T253 1122T217 975Q217 904 259 829T368 672Q264 594 201 537T94 406T50 243Q50 170 85 110T185 15T337 -20Q470 -20 565 50ZM513 1212T555 1183T621 1106T646 1000Q646 928
595 866T449 731Q378 819 337 892T295 1026Q295 1074 316 1117T376 1186T464 1212Q513 1212 555 1183ZM410 622L693 290Q625 183 549 124T380 65Q320 65 270 94T191 172T162 281Q162 349 194 408T277 515T407 622H410Z" />
<glyph unicode="&apos;" glyph-name="quotesingle" horiz-adv-x="230" d="M82 891L134 895L170 1296L61 1302L82 891Z" />
<glyph unicode="(" glyph-name="parenleft" horiz-adv-x="461" d="M404 1256Q332 1193 263 1111T130 860T66 455Q66 223 131 47T269 -226T398 -374L426 -342Q373 -255 323 -158T226 104T179 456Q179 650 220 798T312 1036T428 1213L404 1256Z" />
<glyph unicode=")" glyph-name="parenright" horiz-adv-x="461" d="M292 269T245 105T148 -157T45 -342L73 -374Q129 -323 202 -227T340 46T405 455Q405 692 341 860T208 1110T67 1256L43 1213Q108 1126 159 1036T251 798T292 456Q292 269 245 105Z" />
<glyph unicode="*" glyph-name="asterisk" horiz-adv-x="796" d="M373 970L89 1093L47 990L357 919L153 684L236 616L405 893L562 623L654 680L447 923L747 990L722 1097L429 973L454 1280L345 1289L373 970Z" />
<glyph unicode="+" glyph-name="plus" horiz-adv-x="612" d="M272 426V187L342 172L341 426H550L561 495H341L339 730L272 742V495H64L51 426H272Z" />
<glyph unicode="," glyph-name="comma" horiz-adv-x="394" d="M209 -236T270 -156T332 9Q332 75 313 122T261 194T189 218Q146 218 120 193T93 127Q93 117 96 108Q105 112 123 112Q169 112 200 73T232 -30Q232 -97 194 -146T54 -236L66 -281Q209 -236 270 -156Z" />
<glyph unicode="-" glyph-name="hyphen" horiz-adv-x="544" d="M473 437L482 497L76 480L66 419L473 437Z" />
<glyph unicode="." glyph-name="period" horiz-adv-x="256" d="M162 -33T177 -7T192 70Q192 167 129 167Q66 167 66 70Q66 20 81 -6T129 -33Q162 -33 177 -7Z" />
<glyph unicode="/" glyph-name="slash" horiz-adv-x="626" d="M119 -354L584 1244L502 1241L40 -358L119 -354Z" />
<glyph unicode="0" glyph-name="zero" horiz-adv-x="890" d="M546 -27T635 43T778 253T832 588Q832 778 786 916T654 1128T448 1202Q337 1202 248 1126T107 910T55 588Q55 387 104 249T241 42T441 -27Q546 -27 635 43ZM529 1151T588 1079T678 879T710 588Q710
311 644 169T446 27Q369 27 308 91T211 281T175 584Q175 751 206 879T299 1079T450 1151Q529 1151 588 1079Z" />
<glyph unicode="1" glyph-name="one" horiz-adv-x="763" d="M711 3L720 58L446 82V1184H418L68 1133L63 1089H331V85L47 48L46 3H711Z" />
<glyph unicode="2" glyph-name="two" horiz-adv-x="898" d="M806 0L852 348L812 354L725 85H181L263 154Q483 338 585 435T747 633T806 854Q806 975 762 1054T642 1170T466 1207Q357 1207 269 1172T134 1093L128 841L164 834L209 1054Q239 1095 296 1123T441 1151Q517
1151 571 1112T652 1008T680 863Q680 751 641 661T520 479T286 256L46 46L52 0H806Z" />
<glyph unicode="3" glyph-name="three" horiz-adv-x="801" d="M454 -36T546 11T695 143T752 332Q752 408 715 470T609 574T452 628V637Q517 661 574 706T667 815T704 957Q704 1029 670 1086T578 1175T448 1207Q366 1207 305 1190T206 1149T131 1093L126 864L171
854L210 1054Q244 1100 288 1128T403 1156Q461 1156 501 1124T562 1041T582 939Q582 854 541 792T445 691T316 612L292 599L294 565Q391 560 468 528T590 435T635 287Q635 206 601 144T507 49T373 15Q323 15 277 32T196 78T144 136L138 323L88 333L49 106Q84 42
166 3T355 -36Q454 -36 546 11Z" />
<glyph unicode="4" glyph-name="four" horiz-adv-x="963" d="M554 372V73L297 43L289 1H852L862 47L660 66V369H899L916 444H660V683Q660 1023 669 1175L635 1187L45 398L59 372H554ZM551 984V444H155L551 984Z" />
<glyph unicode="5" glyph-name="five" horiz-adv-x="796" d="M446 -7T541 46T690 188T744 383Q744 488 686 573T515 713T244 779L295 1063L678 1081L694 1198L266 1171L155 677Q287 669 394 623T563 500T625 325Q625 242 595 179T507 82T370 47Q310 47 252 74T144
154L129 340L81 351L50 103Q172 -7 327 -7Q446 -7 541 46Z" />
<glyph unicode="6" glyph-name="six" horiz-adv-x="825" d="M506 -22T591 28T725 165T773 353Q773 446 737 527T632 659T469 709Q378 709 316 682T194 609H187Q224 793 318 937T617 1171L596 1213Q435 1155 313 1033T123 750T56 422Q56 298 90 198T201 38T400
-22Q506 -22 591 28ZM208 584T264 607T395 631Q473 631 531 592T621 483T653 327Q653 183 596 105T424 27Q361 27 304 72T212 204T176 408Q176 441 178 485T186 553Q208 584 264 607Z" />
<glyph unicode="7" glyph-name="seven" horiz-adv-x="860" d="M85 843L147 1078H734L275 -20L386 -33L816 1130V1182H77L47 848L85 843Z" />
<glyph unicode="8" glyph-name="eight" horiz-adv-x="777" d="M456 -27T541 12T677 122T729 281Q729 374 676 448T508 601L509 604Q581 661 628 741T676 923Q676 1006 642 1069T546 1167T402 1202Q308 1202 239 1164T133 1060T96 914Q96 829 135 758T257 626V621Q157
542 104 456T50 281Q50 196 90 126T201 14T362 -27Q456 -27 541 12ZM426 1155T479 1120T565 1024T597 891Q597 801 561 740T468 628Q353 701 291 752T200 855T171 975Q171 1027 195 1068T263 1132T363 1155Q426 1155 479 1120ZM439 506T511 448T613 341T643 230Q643
174 615 129T535 59T409 33Q355 33 295 68T193 168T151 319Q151 413 187 476T296 596Q439 506 511 448Z" />
<glyph unicode="9" glyph-name="nine" horiz-adv-x="818" d="M443 478T503 504T624 577H631Q608 464 552 354T392 152T137 15L151 -27Q331 8 470 129T686 418T763 756Q763 881 729 982T618 1145T420 1207Q314 1207 229 1157T97 1021T49 833Q49 740 85 659T189
528T352 478Q443 478 503 504ZM459 1157T516 1113T609 982T645 779Q645 688 635 640Q612 608 556 582T425 555Q347 555 288 594T197 703T165 860Q165 1003 223 1080T396 1157Q459 1157 516 1113Z" />
<glyph unicode=":" glyph-name="colon" horiz-adv-x="258" d="M162 631T176 656T190 734Q190 782 175 805T128 829Q65 829 65 734Q65 631 129 631Q162 631 176 656ZM164 0T179 26T194 103Q194 200 131 200Q68 200 68 103Q68 53 83 27T131 0Q164 0 179 26Z" />
<glyph unicode=";" glyph-name="semicolon" horiz-adv-x="363" d="M106 624T120 649T134 723Q134 816 74 816Q13 816 13 723Q13 624 74 624Q106 624 120 649ZM154 -222T211 -148T269 5Q269 67 251 111T203 177T136 200Q96 200 71 177T46 115Q46 106 49 97Q58 101
74 101Q117 101 146 65T176 -31Q176 -93 140 -139T10 -222L21 -264Q154 -222 211 -148Z" />
<glyph unicode="&lt;" glyph-name="less" horiz-adv-x="745" d="M692 -82L714 -37L194 444L695 926L679 973L60 456L58 426L692 -82Z" />
<glyph unicode="=" glyph-name="equal" horiz-adv-x="755" d="M680 580L691 645H78L65 580H680ZM678 340L689 405H74L62 340H678Z" />
<glyph unicode="&gt;" glyph-name="greater" horiz-adv-x="747" d="M66 -82L700 426L698 456L79 973L63 926L564 444L44 -37L66 -82Z" />
<glyph unicode="?" glyph-name="question" horiz-adv-x="606" d="M122 1140T172 1161T279 1182Q343 1182 388 1149T457 1061T481 946Q481 914 464 887T420 839T347 785Q291 746 256 716T195 642T170 544Q170 486 195 432T256 342L295 358Q275 395 262 437T249
508Q249 546 267 577T313 631T389 687Q444 724 478 753T535 826T559 925Q559 1014 517 1098T402 1234T243 1286Q198 1286 152 1269T75 1225T44 1166Q44 1128 89 1105Q122 1140 172 1161ZM324 -33T337 -7T351 66Q351 107 335 133T292 159Q267 159 251 133T235 66Q235
22 248 -5T292 -33Q324 -33 337 -7Z" />
<glyph unicode="@" glyph-name="at" horiz-adv-x="1291" d="M730 -227T809 -206T941 -155T1053 -82L1032 -43Q1007 -65 947 -93T810 -142T665 -163Q504 -163 387 -98T208 84T146 358Q146 537 216 681T409 906T687 988Q806 988 913 932T1087 774T1153 540Q1153
416 1108 324T991 184T840 136Q823 136 816 148T809 189Q809 215 814 263T822 330Q823 340 825 354T829 385L871 752L856 772Q809 782 782 786T717 790Q630 790 546 732T407 567T353 325Q353 197 391 129T500 60Q554 60 617 100T712 188H721Q719 154 719 137Q719
105 729 87T768 69Q902 69 1009 138T1176 322T1237 573Q1237 707 1168 814T982 983T725 1044Q524 1044 372 944T138 679T56 333Q56 157 133 31T341 -161T628 -227Q730 -227 809 -206ZM745 725T778 714L723 243Q705 223 668 198T591 156T526 138Q487 138 465 198T442
369Q442 471 471 552T550 679T663 725Q745 725 778 714Z" />
<glyph unicode="A" glyph-name="A" horiz-adv-x="1288" d="M451 0L460 46L276 65L424 478H856L995 73L829 43L820 1H1229L1237 47L1105 66L690 1268L637 1254L199 72L57 42L52 0H451ZM644 1085L837 534H444L644 1085Z" />
<glyph unicode="B" glyph-name="B" horiz-adv-x="1063" d="M646 0T764 45T940 171T998 353Q998 440 963 505T866 610T727 662V668Q800 711 852 785T904 947Q904 1094 803 1175T507 1257Q407 1257 326 1248T131 1221L64 1211L54 1175L226 1153V72L57 42L49 0H474Q646
0 764 45ZM354 1212T449 1212Q615 1212 708 1142T802 933Q802 840 762 774T647 670H327V1206Q354 1212 449 1212ZM583 621Q685 621 757 578T866 467T903 327Q903 190 804 122T473 54H327V621H583Z" />
<glyph unicode="C" glyph-name="C" horiz-adv-x="1061" d="M666 -26T756 10T911 100T1012 206L989 243Q920 164 819 109T611 54Q468 54 367 123T213 324T160 643Q160 809 216 939T367 1142T570 1215Q679 1215 744 1184T849 1101L879 842L926 834L957 1171Q886
1224 803 1247T617 1271Q436 1271 309 1171T118 918T54 607Q54 417 118 274T297 52T565 -26Q666 -26 756 10Z" />
<glyph unicode="D" glyph-name="D" horiz-adv-x="1255" d="M725 0T886 89T1124 327T1200 655Q1200 828 1133 963T918 1179T538 1259Q435 1259 331 1248T64 1211L54 1175L226 1153V72L57 42L49 0H480Q725 0 886 89ZM353 1199T400 1203T491 1207Q681 1207 816 1138T1021
934T1092 605Q1092 430 1020 306T817 118T507 54H327V1188Q353 1199 400 1203Z" />
<glyph unicode="E" glyph-name="E" horiz-adv-x="1064" d="M229 1175V72L59 42L53 0H980L1010 313L969 323L895 54H333V605H659L675 408L726 417L759 806L705 798L668 659H333V1193H867L886 931L932 925L963 1244H57L50 1202L229 1175Z" />
<glyph unicode="F" glyph-name="F" horiz-adv-x="1017" d="M227 1175V72L57 42L54 0H564L576 53L330 70V580H654L672 384L727 392L758 780L702 773L663 633H330V1193H860L881 930L930 922L963 1244H57L50 1202L227 1175Z" />
<glyph unicode="G" glyph-name="G" horiz-adv-x="1219" d="M719 -20T827 1T1030 79V496L1164 517L1171 556H691L685 517L926 492L924 118Q819 45 664 45Q489 45 378 128T218 344T168 633Q168 795 222 924T379 1128T619 1203Q730 1203 810 1171T929 1093L960 857L1005
852L1035 1170Q966 1217 863 1239T652 1262Q470 1262 334 1165T126 915T54 604Q54 417 122 275T305 57T560 -20Q719 -20 827 1Z" />
<glyph unicode="H" glyph-name="H" horiz-adv-x="1392" d="M229 1180V72L62 42L57 0H509L520 46L334 65V591H1052V72L886 42L878 0H1331L1338 46L1155 65V1182L1322 1205L1330 1244H875L868 1205L1052 1180V651H334V1182L503 1205L508 1244H52L49 1205L229 1180Z" />
<glyph unicode="I" glyph-name="I" horiz-adv-x="575" d="M220 1180V72L62 42L57 0H512L521 46L328 65V1182L503 1205L510 1244H53L47 1205L220 1180Z" />
<glyph unicode="J" glyph-name="J" horiz-adv-x="629" d="M199 -232T268 -151T369 47T402 360L406 1182L573 1205L579 1244H120L115 1205L295 1180V282Q295 144 268 45T186 -130T44 -281L66 -325Q199 -232 268 -151Z" />
<glyph unicode="K" glyph-name="K" horiz-adv-x="1205" d="M221 1180V72L64 42L58 0H504L515 46L329 65V1182L499 1205L502 1244H53L48 1205L221 1180ZM688 230Q761 142 810 92T914 10T1033 -22Q1056 -22 1072 -19T1114 -6L1139 3L1151 46L1097 54Q1038 63 987
93T881 176T749 321L487 629L943 1182L1096 1205L1099 1244H692L688 1205L861 1180L530 783Q482 726 401 638L383 619L385 604L688 230Z" />
<glyph unicode="L" glyph-name="L" horiz-adv-x="1039" d="M968 0L984 330L940 338L863 54H333V1182L509 1203L513 1243H58L54 1203L226 1178V72L57 42L52 0H968Z" />
<glyph unicode="M" glyph-name="M" horiz-adv-x="1683" d="M460 0L466 40L285 57L364 1151L772 50L822 60L1287 1169L1344 64L1173 33L1167 0H1629L1631 40L1451 57L1396 1178L1568 1208L1573 1244H1247L1186 1099L828 227L443 1244H124L117 1208L301 1175L218
64L51 33L46 0H460Z" />
<glyph unicode="N" glyph-name="N" horiz-adv-x="1346" d="M232 1175V72L65 42L59 0H480L490 46L306 65V1133L1088 -18L1142 -7V1182L1308 1205L1316 1244H892L886 1205L1069 1180V189L353 1244H55L47 1208L232 1175Z" />
<glyph unicode="O" glyph-name="O" horiz-adv-x="1221" d="M792 -27T927 69T1128 315T1195 627Q1195 814 1135 960T956 1190T669 1274Q483 1274 344 1192T129 961T54 620Q54 443 121 295T312 60T597 -27Q792 -27 927 69ZM763 1218T868 1137T1030 909T1087 573Q1087
430 1037 308T886 112T645 37Q495 37 387 118T221 343T164 669Q164 808 215 934T370 1139T621 1218Q763 1218 868 1137Z" />
<glyph unicode="P" glyph-name="P" horiz-adv-x="999" d="M557 46L323 66V1206Q334 1207 370 1209T433 1212Q565 1212 655 1167T789 1041T834 853Q834 759 795 684T672 562T456 509L402 506L412 464Q426 462 462 462Q587 462 698 516T877 666T945 885Q945 1073
825 1164T464 1256Q374 1256 307 1248T139 1224L60 1211L51 1175L213 1153V72L55 42L50 0H549L557 46Z" />
<glyph unicode="Q" glyph-name="Q" horiz-adv-x="1218" d="M634 -25T660 -22Q678 -120 725 -200T844 -327T1007 -375Q1108 -375 1140 -358L1149 -313Q1041 -305 967 -280T828 -193T710 -12Q855 21 964 114T1133 344T1193 637Q1193 821 1134 965T952 1191T646 1274Q464
1274 330 1189T125 955T54 615Q54 442 125 295T318 62T580 -25Q634 -25 660 -22ZM748 1218T858 1142T1029 925T1089 593Q1089 438 1032 319T879 125T667 27Q524 30 408 112T225 338T158 660Q158 824 209 950T359 1147T601 1218Q748 1218 858 1142Z" />
<glyph unicode="R" glyph-name="R" horiz-adv-x="1164" d="M527 46L316 65V531H600L773 238Q828 145 874 90T970 9T1084 -18Q1115 -18 1131 -16T1177 -3L1183 34L1135 50Q1093 64 1054 89T964 171T849 323L686 569V570Q927 695 927 910Q927 1020 869 1097T710
1214T487 1253Q386 1253 292 1243T62 1210L53 1174L213 1153V72L57 42L50 0H517L527 46ZM327 1203T365 1205T437 1207Q615 1207 716 1124T817 883Q817 818 791 757T717 650T613 587H316V1202Q327 1203 365 1205Z" />
<glyph unicode="S" glyph-name="S" horiz-adv-x="838" d="M511 -26T609 17T760 137T813 308Q813 384 771 445T668 552T503 661Q401 724 341 768T240 872T198 1006Q198 1069 227 1116T307 1189T416 1214Q487 1214 556 1191T656 1131L673 878L729 871L750 1201Q701
1235 621 1253T452 1271Q364 1271 283 1234T151 1125T100 959Q100 874 144 808T250 694T419 580Q515 521 571 480T665 384T703 262Q703 190 666 140T567 63T433 37Q339 37 256 63T137 134L129 383L74 391L41 76Q93 31 183 3T381 -26Q511 -26 609 17Z" />
<glyph unicode="T" glyph-name="T" horiz-adv-x="1007" d="M59 922L111 914L146 1193H502V72L327 42L322 0H775L786 46L609 73V1193H980L997 918L1047 912L1082 1244H49L59 922Z" />
<glyph unicode="U" glyph-name="U" horiz-adv-x="1357" d="M227 452Q227 182 352 78T690 -27Q857 -27 960 29T1111 200T1160 490L1163 1182L1329 1205L1337 1244H912L907 1205L1093 1180V449Q1093 42 723 42Q536 42 434 144T331 485V1182L500 1205L504 1244H50L46
1205L227 1180V452Z" />
<glyph unicode="V" glyph-name="V" horiz-adv-x="1285" d="M184 1178L608 -26L659 -11L1110 1182L1239 1208L1243 1244H853L850 1208L1036 1178L649 160L293 1182L461 1208L465 1244H41L37 1208L184 1178Z" />
<glyph unicode="W" glyph-name="W" horiz-adv-x="1769" d="M138 1178L503 -25L574 -13L879 990L1167 -26L1232 -13L1646 1178L1764 1208L1767 1244H1384L1379 1210L1566 1175L1222 178L919 1208L873 1202L564 178L248 1182L413 1212L416 1244H23L16 1207L138 1178Z" />
<glyph unicode="X" glyph-name="X" horiz-adv-x="1305" d="M416 0L424 42L259 60L634 576L988 60L825 27L821 0H1236L1243 36L1116 53L703 653L1098 1187L1224 1208V1244H856L851 1207L1023 1184L667 699L334 1182L490 1212L495 1244H75L71 1212L207 1184L593
630L180 64L56 36L50 0H416Z" />
<glyph unicode="Y" glyph-name="Y" horiz-adv-x="1182" d="M187 1177L542 489V72L367 42L361 0H821L829 46L648 67V489L997 1182L1126 1208L1129 1244H739L737 1208L922 1178L612 571L299 1181L465 1207L469 1243H52L48 1207L187 1177Z" />
<glyph unicode="Z" glyph-name="Z" horiz-adv-x="1057" d="M56 0H971L1001 335L957 342L871 58H184L989 1207L984 1244H98L99 914L139 903L197 1189H853L51 37L56 0Z" />
<glyph unicode="[" glyph-name="bracketleft" horiz-adv-x="485" d="M441 -374L447 -333L189 -312V1182L444 1203L441 1256H79V-374H441Z" />
<glyph unicode="\" glyph-name="backslash" horiz-adv-x="627" d="M508 -354L587 -358L126 1241L43 1244L508 -354Z" />
<glyph unicode="]" glyph-name="bracketright" horiz-adv-x="485" d="M48 -374H410V1256H48L45 1203L300 1182V-312L42 -333L48 -374Z" />
<glyph unicode="^" glyph-name="asciicircum" horiz-adv-x="743" d="M84 802L357 1123H366L650 796L689 824L395 1251L339 1238L51 826L84 802Z" />
<glyph unicode="_" glyph-name="underscore" horiz-adv-x="986" d="M905 -133L913 -66H85L74 -133H905Z" />
<glyph unicode="`" glyph-name="grave" horiz-adv-x="384" d="M259 1335L305 1362L172 1698L78 1661L259 1335Z" />
<glyph unicode="a" glyph-name="a" horiz-adv-x="749" d="M306 -26T367 0T469 63T519 128H524V115Q524 59 557 21T650 -18Q679 -18 706 -12T751 3L756 37L690 50Q649 57 630 81T607 138T602 229V569Q602 723 542 796T356 870Q280 870 213 841T106 765T65 666Q65
629 90 609T152 589Q156 698 191 758T309 819Q418 819 464 746T511 516V457Q359 451 249 413T80 310T21 162Q21 104 49 62T127 -3T237 -26Q306 -26 367 0ZM511 185Q495 148 462 116T382 63T279 42Q209 42 169 81T129 189Q129 259 183 309T325 385T511 412V185Z"
/>
<glyph unicode="b" glyph-name="b" horiz-adv-x="957" d="M201 48Q258 10 308 -7T424 -24Q557 -24 665 32T837 197T901 460Q901 585 863 678T754 823T588 874Q509 874 435 833T298 721H285L300 824V1307L295 1316L52 1297L46 1266L201 1235V48ZM364 732T416 767T521
802Q663 802 730 705T797 404Q797 297 753 214T639 84T500 37Q434 37 382 52T300 98V664Q364 732 416 767Z" />
<glyph unicode="c" glyph-name="c" horiz-adv-x="743" d="M457 -29T517 -10T624 41T695 111L677 144Q636 104 573 75T442 45Q305 45 231 141T157 453Q157 555 186 637T267 766T384 813Q460 813 506 766T588 612Q623 623 638 646T653 706Q653 775 601 824T432 873Q330
873 244 812T108 641T57 395Q57 273 95 177T210 26T394 -29Q457 -29 517 -10Z" />
<glyph unicode="d" glyph-name="d" horiz-adv-x="956" d="M463 -22T540 22T664 131H674V124Q674 58 706 19T807 -20Q837 -20 859 -14T902 1L908 37L848 50Q822 56 804 69T773 119T759 229V1305L751 1315L513 1295L507 1264L656 1233V960L672 825H662Q638 845 579
861T472 877Q362 877 267 817T114 646T56 386Q56 256 96 164T207 25T368 -22Q463 -22 540 22ZM494 818T557 789T664 704V190Q625 132 555 90T423 47Q289 47 223 153T156 442Q156 563 194 648T293 775T422 818Q494 818 557 789Z" />
<glyph unicode="e" glyph-name="e" horiz-adv-x="740" d="M493 -29T568 7T688 104L671 137Q633 99 578 76T455 53Q306 53 233 160T160 444L643 451Q650 478 655 518T661 582Q661 735 602 804T429 874Q330 874 245 820T109 660T57 411Q57 265 101 166T223 19T398
-29Q493 -29 568 7ZM429 818T470 790T535 713T559 605Q559 533 549 514L162 492Q162 595 189 668T265 780T380 818Q429 818 470 790Z" />
<glyph unicode="f" glyph-name="f" horiz-adv-x="609" d="M555 39L314 61V798H555L566 848H314V982Q314 1064 336 1125T394 1219T471 1252Q575 1252 649 1131Q674 1141 685 1158T697 1204Q697 1233 677 1258T618 1299T528 1315Q453 1315 386 1266T270 1113T210
855L71 833L59 798H207V59L57 30L44 0H548L555 39Z" />
<glyph unicode="g" glyph-name="g" horiz-adv-x="884" d="M489 -387T588 -345T746 -233T805 -84Q805 18 733 65T514 114H374Q218 114 218 195Q218 221 237 242T298 300Q310 294 338 288T394 281Q465 281 532 321T642 430T685 576Q685 625 667 685T633 768L638
772L797 732L805 734L836 813L826 826Q793 823 718 817T601 809Q510 873 430 873Q346 873 277 831T167 718T127 565Q127 502 149 451T203 366T265 317Q207 277 168 235T128 160Q128 121 156 91T224 44V39Q146 0 95 -47T44 -169Q44 -232 83 -281T197 -359T374 -387Q489
-387 588 -345ZM458 827T500 791T566 691T590 551Q590 483 567 435T505 362T421 337Q361 337 315 374T244 470T219 589Q219 695 265 761T406 827Q458 827 500 791ZM497 31Q618 31 668 -12T718 -135Q718 -192 677 -234T569 -297T432 -319Q140 -319 140 -123Q140
-74 170 -40T237 14T275 31H497Z" />
<glyph unicode="h" glyph-name="h" horiz-adv-x="1028" d="M450 36L308 59V664Q366 732 427 767T573 802Q655 802 702 743T749 555V549L746 57L606 33L600 0H974L980 37L840 57V576Q840 731 782 805T617 880Q534 880 450 834T303 721H298L308 826V1305L301 1315L63
1295L57 1264L210 1233V59L56 34L45 0H443L450 36Z" />
<glyph unicode="i" glyph-name="i" horiz-adv-x="511" d="M287 1091T301 1116T316 1193Q316 1290 252 1290Q190 1290 190 1193Q190 1143 205 1117T253 1091Q287 1091 301 1116ZM452 0L463 33L306 59V844L298 853L59 833L56 806L207 778V59L59 31L46 0H452Z" />
<glyph unicode="j" glyph-name="j" horiz-adv-x="379" d="M281 1091T281 1193Q281 1241 264 1265T214 1290Q151 1290 151 1193Q151 1091 215 1091Q281 1091 281 1193ZM45 -353Q150 -279 208 -155T267 151V844L260 853L24 833L20 806L168 779V149Q168 -38 115 -151T-31
-335L2 -384L45 -353Z" />
<glyph unicode="k" glyph-name="k" horiz-adv-x="983" d="M454 0L460 33L301 59V1306L294 1315L56 1295V1267L205 1238V59L55 31L46 0H454ZM593 116T641 67T728 -1T818 -20Q848 -20 876 -14T922 0L929 42L890 46Q836 52 798 72T724 129T615 250L551 323L431 459L724
786L874 818L881 852H520L515 818L649 785L337 442V425L500 228Q593 116 641 67Z" />
<glyph unicode="l" glyph-name="l" horiz-adv-x="509" d="M451 0L462 33L302 59V1306L293 1315L55 1295V1267L206 1238V59L55 31L45 0H451Z" />
<glyph unicode="m" glyph-name="m" horiz-adv-x="1571" d="M446 37L306 57V659Q352 720 424 761T573 803Q660 803 703 737T746 559V57L613 33L607 0H959L967 37L838 57V660Q972 800 1093 800Q1278 800 1278 559V57L1142 33L1137 3H1507L1518 40L1373 59V586Q1373
727 1320 803T1137 880Q1050 880 968 831T833 716H823Q809 793 754 836T616 880Q528 880 443 831T304 716H297L301 845L295 853L59 833L57 806L209 778V57L57 33L50 0H438L446 37Z" />
<glyph unicode="n" glyph-name="n" horiz-adv-x="1033" d="M446 36L306 57V665Q362 719 401 747T482 788T583 801Q653 801 700 742T747 559V57L607 31L601 0H978L981 37L846 57V584Q846 737 784 808T623 880Q558 880 494 854T380 789T304 717H297L301 844L295
853L59 833L57 805L209 778V57L57 31L50 0H440L446 36Z" />
<glyph unicode="o" glyph-name="o" horiz-adv-x="870" d="M534 -27T621 31T761 195T814 437Q814 555 770 656T644 818T457 879Q344 879 253 821T109 653T56 396Q56 268 105 172T239 25T431 -27Q534 -27 621 31ZM501 813T568 755T672 601T709 401Q709 297 679 215T594
85T467 37Q376 37 306 94T199 250T161 468Q161 565 192 643T281 767T413 813Q501 813 568 755Z" />
<glyph unicode="p" glyph-name="p" horiz-adv-x="935" d="M453 -333L298 -315V659Q346 706 374 730T444 775T535 795Q660 795 718 695T777 402Q777 286 738 204T637 81T502 40Q441 40 404 45T333 63L338 -9Q361 -14 393 -17T449 -20Q572 -20 669 40T822 208T878
456Q878 667 796 770T576 874Q489 874 417 825T298 710H290L295 845L288 854L51 833L47 805L198 776V-313L50 -335L45 -374H446L453 -333Z" />
<glyph unicode="q" glyph-name="q" horiz-adv-x="951" d="M435 -22T502 2T615 70L612 106Q577 80 522 66T418 52Q293 52 227 150T161 462Q161 562 196 643T290 771T417 818Q494 818 553 789T644 719V-308L493 -329L488 -368H898L905 -326L746 -308V864H727L656
837Q626 852 578 864T467 877Q363 877 268 814T115 642T56 401Q56 186 140 82T365 -22Q435 -22 502 2Z" />
<glyph unicode="r" glyph-name="r" horiz-adv-x="655" d="M536 36L312 55V423Q332 577 377 683T498 789Q530 789 553 777T603 734Q623 747 636 767T649 805Q649 839 622 860T546 882Q467 882 403 802T306 594H297L308 844L298 853L60 833L57 805L213 776V57L57
30L52 -1H528L536 36Z" />
<glyph unicode="s" glyph-name="s" horiz-adv-x="656" d="M385 -36T453 -5T558 80T595 199Q595 250 567 293T498 368T387 447Q316 494 275 527T206 603T177 698Q177 772 216 811T321 851Q383 851 432 799T500 656Q576 663 576 736Q576 777 548 815T470 876T356
899Q280 899 220 865T126 773T92 652Q92 586 125 533T205 440T328 351Q390 309 424 282T482 222T505 152Q505 92 459 54T339 15Q247 15 192 64T118 217Q78 214 59 192T40 134Q40 85 75 46T168 -14T296 -36Q385 -36 453 -5Z" />
<glyph unicode="t" glyph-name="t" horiz-adv-x="623" d="M168 243Q168 110 207 43T337 -24Q401 -24 465 14T575 115L559 148Q559 147 530 127T464 90T394 73Q349 73 322 92T282 160T268 301L270 756H543L550 810H272V1048H225Q207 946 187 898T138 830T45 787V758H171L168
243Z" />
<glyph unicode="u" glyph-name="u" horiz-adv-x="999" d="M201 283Q201 125 260 51T434 -24Q509 -24 580 17T703 133H714V117Q714 61 747 22T839 -18Q868 -18 895 -12T941 3L947 37L885 50Q845 57 827 80T803 137T798 230V844L791 853L550 833L548 806L703 776V183Q662
134 600 97T475 59Q292 59 292 317V844L284 853L50 833L46 806L201 776V283Z" />
<glyph unicode="v" glyph-name="v" horiz-adv-x="959" d="M168 782L455 -26L506 -11L796 783L905 816L911 848H577L569 813L729 782L496 129L266 783L412 816L415 848H50L46 813L168 782Z" />
<glyph unicode="w" glyph-name="w" horiz-adv-x="1304" d="M163 791L408 -22L463 -9L651 673L860 -22L912 -9L1142 793L1251 818L1256 851H926L922 816L1073 791L888 152L843 345L706 804L616 786L442 166L391 360L262 793L396 818L401 851H50L46 816L163 791Z" />
<glyph unicode="x" glyph-name="x" horiz-adv-x="1006" d="M382 0L390 33L248 57L492 374L717 54L591 29L580 0H946L952 31L839 54L556 451L827 800L932 824L940 858H618L608 824L747 797L520 503L308 803L423 826L430 858H77L73 824L191 802L454 426L166 57L58
31L50 0H382Z" />
<glyph unicode="y" glyph-name="y" horiz-adv-x="979" d="M258 -377T313 -341T410 -235T497 -53L827 785L928 816L930 848H637L631 813L760 785L517 167L291 789L418 816L420 848H74L68 813L192 785L462 25L436 -48Q393 -158 343 -210T242 -263Q181 -263 145 -251T77
-211Q44 -239 44 -286Q44 -329 83 -353T181 -377Q258 -377 313 -341Z" />
<glyph unicode="z" glyph-name="z" horiz-adv-x="783" d="M62 0H720L729 271L694 275L628 58H174L716 818L713 848H91L78 576L113 571L177 796H599L58 40L62 0Z" />
<glyph unicode="{" glyph-name="braceleft" horiz-adv-x="614" d="M575 -378L569 -329L468 -323Q419 -321 396 -280T365 -177T355 -8Q352 124 341 209T288 359T164 437V441Q248 462 289 531T340 685T353 901Q355 1003 361 1061T389 1158T457 1200L563 1207L571
1256H468Q366 1256 317 1198T256 1056T242 833Q240 716 232 647T193 528T97 470L48 463V414L101 408Q165 401 195 352T234 233T243 49Q245 -91 257 -175T319 -319T473 -378H575Z" />
<glyph unicode="|" glyph-name="bar" horiz-adv-x="226" d="M151 -380V1248L75 1260V-368L151 -380Z" />
<glyph unicode="}" glyph-name="braceright" horiz-adv-x="614" d="M248 -378T297 -319T359 -176T374 49Q375 164 383 233T421 351T516 408L569 414V463L520 470Q455 478 424 528T385 647T375 833Q373 972 361 1055T300 1197T149 1256H46L54 1207L160 1200Q206
1198 228 1159T256 1061T264 901Q266 771 276 686T328 531T453 441V437Q370 424 329 359T277 209T262 -8Q259 -116 252 -177T222 -279T149 -323L48 -329L42 -378H144Q248 -378 297 -319Z" />
<glyph unicode="~" glyph-name="asciitilde" horiz-adv-x="901" d="M97 411T115 440T162 494T226 519Q238 519 250 516L598 419Q622 413 642 413Q706 413 751 459T820 557T844 619L798 620Q798 616 782 588T737 536T673 512Q658 512 646 516L297 614Q273 620 252
620Q189 620 146 576T81 482T58 422L97 408Q97 411 115 440Z" />
<glyph unicode="&#xa0;" glyph-name="uni00A0" horiz-adv-x="426" />
<glyph unicode="&#xa1;" glyph-name="exclamdown" horiz-adv-x="249" d="M154 717T170 742T186 809Q186 854 173 882T129 910Q70 910 70 809Q70 768 86 743T129 717Q154 717 170 742ZM139 -416T157 -406T182 -375V-374Q182 -287 173 -4T153 507V509L113 517L107
515Q87 272 73 12T58 -375Q58 -397 73 -406T112 -416Q139 -416 157 -406Z" />
<glyph unicode="&#xa2;" glyph-name="cent" horiz-adv-x="735" d="M658 57T581 17T416 -28L445 -250L337 -267L361 -28Q263 -19 194 40T90 196T55 408Q55 537 93 639T198 806T355 891L327 1115L433 1133L412 899H430Q546 899 598 850T651 731Q651 695 636 672T586
638Q550 744 504 792T382 840Q322 840 270 796T187 667T155 465Q155 252 233 150T440 47Q509 47 571 75T675 144L693 111Q658 57 581 17Z" />
<glyph unicode="&#xa3;" glyph-name="sterling" horiz-adv-x="1027" d="M980 313L939 323L848 58H311Q340 134 356 250T373 516V580L583 593L594 653L375 640V701Q375 923 392 1027T448 1164T571 1198Q596 1198 650 1184T723 1161L744 897L792 889L823 1211Q768
1234 714 1242T592 1251Q479 1251 408 1202T303 1050T264 786L261 633L92 623L81 565L257 573V462Q254 336 246 240T219 72L49 42L43 0H949L980 313Z" />
<glyph unicode="&#xa4;" glyph-name="currency" horiz-adv-x="700" d="M123 617T105 571T87 492Q87 455 106 404T148 317L64 239L113 190L191 278Q227 256 271 238T343 220Q375 220 425 239T515 283L594 193L646 241L553 327Q575 357 594 407T613 493Q613 525
596 575T560 656L644 730L602 783L524 701Q488 727 437 749T349 772Q315 772 266 748T180 693L102 782L52 734L143 647Q123 617 105 571ZM402 700T446 674T515 600T540 489Q540 431 516 385T447 314T346 288Q291 288 249 314T184 387T161 496Q161 587 211 643T344
700Q402 700 446 674Z" />
<glyph unicode="&#xa5;" glyph-name="yen" horiz-adv-x="1041" d="M183 1177L460 577H142L133 531H471V337H139L129 290H471V72L296 42L291 0H751L760 46L577 67V290H932L943 337H577V531H933L945 577H586L866 1180L995 1207L999 1243H607L605 1207L790 1175L552
641L294 1181L460 1207L464 1243H46L43 1207L183 1177Z" />
<glyph unicode="&#xa6;" glyph-name="brokenbar" horiz-adv-x="215" d="M138 529L141 1248L73 1253V535L138 529ZM142 -380V410L73 414V-374L142 -380Z" />
<glyph unicode="&#xa7;" glyph-name="section" horiz-adv-x="822" d="M772 335Q766 404 725 460T628 559T479 662Q382 724 325 768T228 872T188 1006Q188 1069 216 1116T291 1189T396 1214Q459 1214 520 1182T608 1101L635 858L681 851L714 1161Q666 1215 587
1243T422 1271Q340 1271 263 1234T138 1125T90 959Q90 875 131 809T233 695T392 584L423 564L772 335ZM493 -378T584 -335T724 -217T773 -46Q773 37 727 103T617 215T437 333L99 547Q106 480 146 425T242 327T389 226Q481 167 535 125T627 29T664 -92Q664 -163
631 -214T543 -291T424 -317Q336 -317 258 -280T147 -179L119 42L72 46L43 -239Q93 -301 180 -339T372 -378Q493 -378 584 -335Z" />
<glyph unicode="&#xa8;" glyph-name="dieresis" horiz-adv-x="541" d="M168 1384T180 1404T193 1465Q193 1503 178 1523T135 1543Q80 1543 80 1465Q80 1425 93 1405T137 1384Q168 1384 180 1404ZM435 1384T448 1404T461 1465Q461 1503 446 1523T403 1543Q375 1543
362 1524T349 1465Q349 1425 361 1405T404 1384Q435 1384 448 1404Z" />
<glyph unicode="&#xa9;" glyph-name="copyright" horiz-adv-x="1326" d="M832 -27T974 54T1193 282T1270 623Q1270 818 1194 967T978 1198T651 1281Q482 1281 346 1199T131 966T53 620Q53 426 124 280T329 54T642 -27Q832 -27 974 54ZM809 1226T935 1147T1133
927T1205 613Q1205 448 1133 315T935 107T651 31Q497 31 377 108T189 323T121 631Q121 800 189 936T378 1149T653 1226Q809 1226 935 1147ZM725 262T794 295T894 377L879 404Q845 371 794 347T686 323Q574 323 514 402T453 657Q453 741 477 808T543 914T639 953Q701
953 738 914T806 788Q835 797 847 816T859 865Q859 921 816 961T678 1002Q594 1002 524 952T412 812T371 610Q371 510 402 432T496 308T647 262Q725 262 794 295Z" />
<glyph unicode="&#xaa;" glyph-name="ordfeminine" horiz-adv-x="667" d="M272 560T316 580T390 629T430 685H434V674Q434 628 460 597T534 566Q576 566 615 583L619 617L566 628Q532 634 521 651T510 702Q510 720 511 729L512 764V1036Q512 1160 461 1221T314
1282Q258 1282 204 1260T116 1201T81 1122Q81 1097 107 1083T162 1068Q170 1130 178 1162T207 1215T271 1235Q332 1235 365 1210T411 1134T424 994V967Q301 960 218 925T95 834T54 711Q54 664 77 630T138 578T220 560Q272 560 316 580ZM424 735Q395 685 348 654T246
622Q150 622 150 734Q150 823 220 865T424 927V735Z" />
<glyph unicode="&#xab;" glyph-name="guillemotleft" horiz-adv-x="644" d="M271 449L531 78L563 116L376 462L564 786L536 822L268 469L271 449ZM280 449L540 78L572 116L385 462L573 786L545 822L277 469L280 449Z" />
<glyph unicode="&#xac;" glyph-name="logicalnot" horiz-adv-x="878" d="M740 609V333L812 351V664H66L54 609H740Z" />
<glyph unicode="&#xad;" glyph-name="uni00AD" horiz-adv-x="538" d="M469 495L479 558L70 497L62 435L469 495Z" />
<glyph unicode="&#xae;" glyph-name="registered" horiz-adv-x="1056" d="M643 544T757 603T940 772T1008 1026Q1008 1177 944 1288T769 1459T519 1518Q388 1518 281 1458T111 1286T48 1022Q48 882 109 774T276 605T509 544Q643 544 757 603ZM637 1472T737 1418T894
1260T951 1016Q951 888 893 792T735 644T517 592Q394 592 300 648T155 806T103 1036Q103 1178 158 1276T305 1423T510 1472Q637 1472 737 1418ZM524 804L429 812V1020H518L597 880Q634 814 668 789T743 763Q757 763 764 764T785 770L788 796L766 804Q748 811 735
819T703 850T651 916L562 1039V1040Q699 1107 699 1203Q699 1265 642 1300T506 1335Q411 1335 295 1316L291 1293L363 1284V815L292 802L289 771H519L524 804ZM434 1297T449 1298T483 1299Q557 1299 593 1275T629 1191Q629 1149 603 1117T531 1055H429V1297Q434
1297 449 1298Z" />
<glyph unicode="&#xaf;" glyph-name="overscore" horiz-adv-x="609" d="M521 1380L529 1432H89L80 1380H521Z" />
<glyph unicode="&#xb0;" glyph-name="degree" horiz-adv-x="483" d="M281 928T325 954T396 1026T423 1128Q423 1212 380 1258T252 1304Q199 1304 155 1277T85 1204T59 1107Q59 1021 104 975T228 928Q281 928 325 954ZM293 1265T327 1221T361 1105Q361 1065 345
1034T301 985T244 967Q187 967 154 1010T120 1129Q120 1192 151 1228T238 1265Q293 1265 327 1221Z" />
<glyph unicode="&#xb1;" glyph-name="plusminus" horiz-adv-x="727" d="M268 492V253L338 238L337 492H546L557 561H337L335 796L268 808V561H60L47 492H268ZM663 36L680 100H69L52 36H663Z" />
<glyph unicode="&#xb4;" glyph-name="acute" horiz-adv-x="385" d="M124 1344L307 1668L211 1707L79 1370L124 1344Z" />
<glyph unicode="&#xb5;" glyph-name="uni00B5" horiz-adv-x="986" d="M197 495Q197 270 191 -33T182 -363L272 -389L261 -85Q259 -23 259 1Q259 51 257 60H263Q284 18 329 -3T430 -24Q499 -24 574 18T699 133H710V117Q710 61 743 22T835 -18Q864 -18 891 -12T937
3L943 37L881 50Q840 57 820 80T795 137T790 230V854L783 863L546 843L544 816L699 786V183Q658 134 596 97T471 59Q284 59 284 317V854L276 863L46 843L42 816L197 786V495Z" />
<glyph unicode="&#xb6;" glyph-name="paragraph" horiz-adv-x="1101" d="M526 528Q421 528 343 569T223 682T181 840Q181 960 216 1036T329 1149T534 1187Q579 1187 607 1185V73L391 43L385 1H707V1245H525Q401 1245 292 1194T116 1050T49 843Q49 639 169 559T508
478L526 528ZM1048 -2L1058 46L866 64V1184L1043 1207L1047 1245H763V1L1048 -2Z" />
<glyph unicode="&#xb7;" glyph-name="middot" horiz-adv-x="251" d="M160 401T174 426T189 502Q189 599 126 599Q63 599 63 502Q63 452 78 427T127 401Q160 401 174 426Z" />
<glyph unicode="&#xb8;" glyph-name="cedilla" horiz-adv-x="328" d="M163 -361T214 -322T266 -227Q266 -183 241 -147T177 -76L232 3H173L88 -118L111 -139Q143 -168 158 -190T174 -247Q174 -269 137 -300T56 -347L67 -390Q163 -361 214 -322Z" />
<glyph unicode="&#xba;" glyph-name="ordmasculine" horiz-adv-x="730" d="M445 558T517 604T632 736T676 929Q676 1023 639 1104T535 1234T383 1283Q293 1283 218 1236T98 1101T54 896Q54 794 95 717T206 599T362 558Q445 558 517 604ZM419 1223T471 1180T550
1062T578 900Q578 817 556 753T491 652T391 616Q317 616 263 658T181 777T152 954Q152 1031 176 1092T244 1188T348 1223Q419 1223 471 1180Z" />
<glyph unicode="&#xbb;" glyph-name="guillemotright" horiz-adv-x="645" d="M400 449L403 469L135 822L107 786L295 462L108 116L140 78L400 449ZM647 449L650 469L382 822L354 786L542 462L355 116L387 78L647 449Z" />
<glyph unicode="&#xbc;" glyph-name="onequarter" horiz-adv-x="1225" d="M466 570L471 625L312 634V1276H294L58 1248L55 1204H211V636L46 615L45 570H466ZM329 -47L653 591L984 1203L987 1207L890 1212L574 588L228 -43L329 -47ZM939 205V68L775 41L769 -1H1143L1149
45L1032 64V202H1171L1180 277H1032V420Q1032 621 1040 716L996 723L613 231L622 205H939ZM937 557V277H719L937 557Z" />
<glyph unicode="&#xbd;" glyph-name="onehalf" horiz-adv-x="1301" d="M466 570L471 625L312 634V1276H294L58 1248L55 1204H211V636L46 615L45 570H466ZM329 -47L653 591L984 1203L987 1207L890 1212L574 588L228 -43L329 -47ZM1236 0L1256 230L1221 233L1177
85H861L865 88Q1008 200 1074 258T1179 378T1218 511Q1218 619 1157 671T997 724Q924 724 866 705T781 660L776 501L818 497L844 647Q859 658 887 663T969 668Q1034 668 1070 622T1107 508Q1107 446 1085 396T1015 296T879 172L728 47L731 0H1236Z" />
<glyph unicode="&#xbe;" glyph-name="threequarters" horiz-adv-x="1232" d="M320 539T384 568T488 649T528 766Q528 813 501 854T423 922T309 958V964Q383 988 434 1036T486 1153Q486 1197 462 1233T399 1289T313 1309Q233 1309 176 1291T91 1245L87 1106L137
1100L168 1225Q183 1243 206 1250T272 1257Q304 1257 328 1238T366 1189T379 1130Q379 1078 343 1039T274 983T182 939L183 919Q242 916 297 896T389 838T425 750Q425 679 381 635T269 591Q224 591 185 612T130 662L126 781L82 786L45 644Q70 596 123 568T250 539Q320
539 384 568ZM336 -47L660 591L991 1203L994 1207L897 1212L581 588L235 -43L336 -47ZM946 205V68L782 41L776 -1H1150L1156 45L1039 64V202H1178L1187 277H1039V420Q1039 621 1047 716L1003 723L620 231L629 205H946ZM944 557V277H726L944 557Z" />
<glyph unicode="&#xbf;" glyph-name="questiondown" horiz-adv-x="605" d="M292 932T279 906T265 833Q265 792 281 766T324 740Q349 740 365 766T381 833Q381 877 368 904T324 932Q292 932 279 906ZM494 -241T444 -262T337 -283Q273 -283 228 -250T159 -162T135
-47Q135 -15 152 12T196 60T269 114Q325 153 360 183T421 257T446 355Q446 413 421 467T360 557L321 541Q341 504 354 462T367 391Q367 353 349 322T303 268T227 212Q172 175 138 146T81 73T57 -26Q57 -115 99 -199T214 -335T373 -387Q418 -387 464 -370T541 -326T572
-267Q572 -229 527 -206Q494 -241 444 -262Z" />
<glyph unicode="&#xc0;" glyph-name="Agrave" horiz-adv-x="1288" d="M451 0L460 46L276 65L424 478H856L995 73L829 43L820 1H1229L1237 47L1105 66L690 1268L637 1254L199 72L57 42L52 0H451ZM644 1085L837 534H444L644 1085ZM651 1341L697 1368L564 1704L470
1667L651 1341Z" />
<glyph unicode="&#xc1;" glyph-name="Aacute" horiz-adv-x="1288" d="M451 0L460 46L276 65L424 478H856L995 73L829 43L820 1H1229L1237 47L1105 66L690 1268L637 1254L199 72L57 42L52 0H451ZM644 1085L837 534H444L644 1085ZM678 1350L861 1674L765 1713L633
1376L678 1350Z" />
<glyph unicode="&#xc2;" glyph-name="Acircumflex" horiz-adv-x="1288" d="M451 0L460 46L276 65L424 478H856L995 73L829 43L820 1H1229L1237 47L1105 66L690 1268L637 1254L199 72L57 42L52 0H451ZM644 1085L837 534H444L644 1085ZM494 1364L651 1500H660L841
1365L873 1402L694 1588L640 1575L473 1394L494 1364Z" />
<glyph unicode="&#xc3;" glyph-name="Atilde" horiz-adv-x="1288" d="M451 0L460 46L276 65L424 478H856L995 73L829 43L820 1H1229L1237 47L1105 66L690 1268L637 1254L199 72L57 42L52 0H451ZM644 1085L837 534H444L644 1085ZM476 1426T496 1447T542 1468Q559
1468 576 1461T625 1437L697 1397Q734 1376 769 1376Q815 1376 848 1414T897 1529L865 1537Q848 1488 827 1467T781 1446Q764 1446 745 1453T699 1476L626 1517Q589 1537 557 1537Q512 1537 478 1501T427 1385L458 1377Q476 1426 496 1447Z" />
<glyph unicode="&#xc4;" glyph-name="Adieresis" horiz-adv-x="1288" d="M556 1384T568 1404T581 1465Q581 1503 566 1523T523 1543Q468 1543 468 1465Q468 1425 481 1405T525 1384Q556 1384 568 1404ZM823 1384T836 1404T849 1465Q849 1503 834 1523T791 1543Q763
1543 750 1524T737 1465Q737 1425 749 1405T792 1384Q823 1384 836 1404ZM451 0L460 46L276 65L424 478H856L995 73L829 43L820 1H1229L1237 47L1105 66L690 1268L637 1254L199 72L57 42L52 0H451ZM644 1085L837 534H444L644 1085Z" />
<glyph unicode="&#xc5;" glyph-name="Aring" horiz-adv-x="1288" d="M451 0L460 46L276 65L424 478H856L995 73L829 43L820 1H1229L1237 47L1105 66L690 1268L637 1254L199 72L57 42L52 0H451ZM644 1085L837 534H444L644 1085ZM713 1339T752 1363T812 1428T834
1514Q834 1585 791 1630T676 1676Q630 1676 592 1653T531 1590T508 1505Q508 1429 551 1384T664 1339Q713 1339 752 1363ZM711 1636T739 1594T768 1499Q768 1442 743 1411T674 1380Q626 1380 600 1421T573 1516Q573 1566 596 1601T664 1636Q711 1636 739 1594Z"
/>
<glyph unicode="&#xc6;" glyph-name="AE" horiz-adv-x="1714" d="M464 3L474 48L290 66L526 472H875V72L682 42L676 0H1630L1660 313L1618 323L1547 54H983V605H1313L1330 408L1377 417L1410 806L1361 798L1325 659H983V1193H1517L1538 931L1582 925L1614 1244H627L621
1205L854 1180L200 73L57 43L53 3H464ZM878 1093V537H564L878 1093Z" />
<glyph unicode="&#xc7;" glyph-name="Ccedilla" horiz-adv-x="1061" d="M982 161T929 115T802 31T646 -19L607 -76Q645 -110 670 -146T696 -227Q696 -283 645 -322T497 -390L486 -347Q529 -332 566 -301T604 -247Q604 -212 589 -190T541 -139L518 -118L583 -26H565Q413
-26 298 52T118 273T54 607Q54 764 117 917T308 1171T617 1271Q720 1271 803 1248T957 1171L926 834L879 842L849 1101Q809 1153 744 1184T570 1215Q461 1215 367 1143T217 940T160 643Q160 457 212 325T366 123T611 54Q718 54 819 109T989 243L1012 206Q982 161
929 115Z" />
<glyph unicode="&#xc8;" glyph-name="Egrave" horiz-adv-x="1064" d="M229 1175V72L59 42L53 0H980L1010 313L969 323L895 54H333V605H659L675 408L726 417L759 806L705 798L668 659H333V1193H867L886 931L932 925L963 1244H57L50 1202L229 1175ZM539 1341L585
1368L452 1704L358 1667L539 1341Z" />
<glyph unicode="&#xc9;" glyph-name="Eacute" horiz-adv-x="1064" d="M229 1175V72L59 42L53 0H980L1010 313L969 323L895 54H333V605H659L675 408L726 417L759 806L705 798L668 659H333V1193H867L886 931L932 925L963 1244H57L50 1202L229 1175ZM453 1350L636
1674L540 1713L408 1376L453 1350Z" />
<glyph unicode="&#xca;" glyph-name="Ecircumflex" horiz-adv-x="1064" d="M229 1175V72L59 42L53 0H980L1010 313L969 323L895 54H333V605H659L675 408L726 417L759 806L705 798L668 659H333V1193H867L886 931L932 925L963 1244H57L50 1202L229 1175ZM402 1364L559
1500H568L749 1365L781 1402L602 1588L548 1575L381 1394L402 1364Z" />
<glyph unicode="&#xcb;" glyph-name="Edieresis" horiz-adv-x="1064" d="M229 1175V72L59 42L53 0H980L1010 313L969 323L895 54H333V605H659L675 408L726 417L759 806L705 798L668 659H333V1193H867L886 931L932 925L963 1244H57L50 1202L229 1175ZM466 1373T478
1393T491 1454Q491 1492 476 1512T433 1532Q378 1532 378 1454Q378 1414 391 1394T435 1373Q466 1373 478 1393ZM733 1373T746 1393T759 1454Q759 1492 744 1512T701 1532Q673 1532 660 1513T647 1454Q647 1414 659 1394T702 1373Q733 1373 746 1393Z" />
<glyph unicode="&#xcc;" glyph-name="Igrave" horiz-adv-x="575" d="M220 1180V72L62 42L57 0H512L521 46L328 65V1182L503 1205L510 1244H53L47 1205L220 1180ZM288 1341L334 1368L201 1704L107 1667L288 1341Z" />
<glyph unicode="&#xcd;" glyph-name="Iacute" horiz-adv-x="575" d="M220 1180V72L62 42L57 0H512L521 46L328 65V1182L503 1205L510 1244H53L47 1205L220 1180ZM276 1350L459 1674L363 1713L231 1376L276 1350Z" />
<glyph unicode="&#xce;" glyph-name="Icircumflex" horiz-adv-x="575" d="M220 1180V72L62 42L57 0H512L521 46L328 65V1182L503 1205L510 1244H53L47 1205L220 1180ZM353 1364L510 1500H519L700 1365L732 1402L553 1588L499 1575L332 1394L353 1364Z" />
<glyph unicode="&#xcf;" glyph-name="Idieresis" horiz-adv-x="575" d="M220 1180V72L62 42L57 0H512L521 46L328 65V1182L503 1205L510 1244H53L47 1205L220 1180ZM179 1629T191 1649T204 1710Q204 1748 189 1768T146 1788Q91 1788 91 1710Q91 1670 104 1650T148
1629Q179 1629 191 1649ZM446 1629T459 1649T472 1710Q472 1748 457 1768T414 1788Q386 1788 373 1769T360 1710Q360 1670 372 1650T415 1629Q446 1629 459 1649Z" />
<glyph unicode="&#xd0;" glyph-name="Eth" horiz-adv-x="1267" d="M229 72L60 42L52 0H483Q728 0 892 89T1134 327T1212 655Q1212 821 1147 956T932 1175T541 1259Q438 1259 334 1248T67 1211L57 1175L229 1153V664L57 653L48 592L229 605V72ZM609 631L617 691L330
672V1201Q355 1205 437 1205H504Q695 1205 828 1130T1030 919T1098 599Q1098 435 1025 312T819 121T510 54H330V612L609 631Z" />
<glyph unicode="&#xd1;" glyph-name="Ntilde" horiz-adv-x="1346" d="M232 1175V72L65 42L59 0H480L490 46L306 65V1133L1088 -18L1142 -7V1182L1308 1205L1316 1244H892L886 1205L1069 1180V189L353 1244H55L47 1208L232 1175ZM445 1426T465 1447T511 1468Q528
1468 545 1461T594 1437L666 1397Q703 1376 738 1376Q784 1376 817 1414T866 1529L834 1537Q817 1488 796 1467T750 1446Q733 1446 714 1453T668 1476L595 1517Q558 1537 526 1537Q481 1537 447 1501T396 1385L427 1377Q445 1426 465 1447Z" />
<glyph unicode="&#xd2;" glyph-name="Ograve" horiz-adv-x="1221" d="M792 -27T927 69T1128 315T1195 627Q1195 814 1135 960T956 1190T669 1274Q483 1274 344 1192T129 961T54 620Q54 443 121 295T312 60T597 -27Q792 -27 927 69ZM763 1218T868 1137T1030 909T1087
573Q1087 430 1037 308T886 112T645 37Q495 37 387 118T221 343T164 669Q164 808 215 934T370 1139T621 1218Q763 1218 868 1137ZM612 1341L658 1368L525 1704L431 1667L612 1341Z" />
<glyph unicode="&#xd3;" glyph-name="Oacute" horiz-adv-x="1221" d="M792 -27T927 69T1128 315T1195 627Q1195 814 1135 960T956 1190T669 1274Q483 1274 344 1192T129 961T54 620Q54 443 121 295T312 60T597 -27Q792 -27 927 69ZM763 1218T868 1137T1030 909T1087
573Q1087 430 1037 308T886 112T645 37Q495 37 387 118T221 343T164 669Q164 808 215 934T370 1139T621 1218Q763 1218 868 1137ZM607 1350L790 1674L694 1713L562 1376L607 1350Z" />
<glyph unicode="&#xd4;" glyph-name="Ocircumflex" horiz-adv-x="1221" d="M792 -27T927 69T1128 315T1195 627Q1195 814 1135 960T956 1190T669 1274Q483 1274 344 1192T129 961T54 620Q54 443 121 295T312 60T597 -27Q792 -27 927 69ZM763 1218T868 1137T1030
909T1087 573Q1087 430 1037 308T886 112T645 37Q495 37 387 118T221 343T164 669Q164 808 215 934T370 1139T621 1218Q763 1218 868 1137ZM451 1364L608 1500H617L798 1365L830 1402L651 1588L597 1575L430 1394L451 1364Z" />
<glyph unicode="&#xd5;" glyph-name="Otilde" horiz-adv-x="1221" d="M440 1420T460 1441T506 1462Q523 1462 540 1455T589 1431L661 1391Q698 1370 733 1370Q779 1370 812 1408T861 1523L829 1531Q812 1482 791 1461T745 1440Q728 1440 709 1447T663 1470L590
1511Q553 1531 521 1531Q476 1531 442 1495T391 1379L422 1371Q440 1420 460 1441ZM792 -27T927 69T1128 315T1195 627Q1195 814 1135 960T956 1190T669 1274Q483 1274 344 1192T129 961T54 620Q54 443 121 295T312 60T597 -27Q792 -27 927 69ZM763 1218T868 1137T1030
909T1087 573Q1087 430 1037 308T886 112T645 37Q495 37 387 118T221 343T164 669Q164 808 215 934T370 1139T621 1218Q763 1218 868 1137Z" />
<glyph unicode="&#xd6;" glyph-name="Odieresis" horiz-adv-x="1221" d="M792 -27T927 69T1128 315T1195 627Q1195 814 1135 960T956 1190T669 1274Q483 1274 344 1192T129 961T54 620Q54 443 121 295T312 60T597 -27Q792 -27 927 69ZM763 1218T868 1137T1030
909T1087 573Q1087 430 1037 308T886 112T645 37Q495 37 387 118T221 343T164 669Q164 808 215 934T370 1139T621 1218Q763 1218 868 1137ZM533 1373T545 1393T558 1454Q558 1492 543 1512T500 1532Q445 1532 445 1454Q445 1414 458 1394T502 1373Q533 1373 545
1393ZM800 1373T813 1393T826 1454Q826 1492 811 1512T768 1532Q740 1532 727 1513T714 1454Q714 1414 726 1394T769 1373Q800 1373 813 1393Z" />
<glyph unicode="&#xd7;" glyph-name="multiply" horiz-adv-x="562" d="M102 236L277 425L448 242L506 287L318 459L498 622L452 680L280 496L116 678L58 630L240 462L56 294L102 236Z" />
<glyph unicode="&#xd8;" glyph-name="Oslash" horiz-adv-x="1283" d="M1108 1022Q1195 862 1195 627Q1195 465 1130 315T931 69T605 -27Q483 -27 383 27T213 180L130 92L46 127L176 240Q131 321 108 418T84 620Q84 812 156 960T361 1191T674 1274Q803 1274 902
1225T1069 1083L1148 1161L1236 1127L1108 1022ZM487 1218T389 1141T243 940T194 679Q194 467 265 308L991 995Q931 1102 838 1160T626 1218Q487 1218 389 1141ZM790 37T888 117T1037 321T1087 573Q1087 793 1014 950L289 261Q349 154 441 96T653 37Q790 37 888
117Z" />
<glyph unicode="&#xd9;" glyph-name="Ugrave" horiz-adv-x="1357" d="M227 452Q227 182 352 78T690 -27Q857 -27 960 29T1111 200T1160 490L1163 1182L1329 1205L1337 1244H912L907 1205L1093 1180V449Q1093 42 723 42Q536 42 434 144T331 485V1182L500 1205L504
1244H50L46 1205L227 1180V452ZM688 1341L734 1368L601 1704L507 1667L688 1341Z" />
<glyph unicode="&#xda;" glyph-name="Uacute" horiz-adv-x="1357" d="M227 452Q227 182 352 78T690 -27Q857 -27 960 29T1111 200T1160 490L1163 1182L1329 1205L1337 1244H912L907 1205L1093 1180V449Q1093 42 723 42Q536 42 434 144T331 485V1182L500 1205L504
1244H50L46 1205L227 1180V452ZM664 1350L847 1674L751 1713L619 1376L664 1350Z" />
<glyph unicode="&#xdb;" glyph-name="Ucircumflex" horiz-adv-x="1357" d="M227 452Q227 182 352 78T690 -27Q857 -27 960 29T1111 200T1160 490L1163 1182L1329 1205L1337 1244H912L907 1205L1093 1180V449Q1093 42 723 42Q536 42 434 144T331 485V1182L500 1205L504
1244H50L46 1205L227 1180V452ZM507 1364L664 1500H673L854 1365L886 1402L707 1588L653 1575L486 1394L507 1364Z" />
<glyph unicode="&#xdc;" glyph-name="Udieresis" horiz-adv-x="1357" d="M227 452Q227 182 352 78T690 -27Q857 -27 960 29T1111 200T1160 490L1163 1182L1329 1205L1337 1244H912L907 1205L1093 1180V449Q1093 42 723 42Q536 42 434 144T331 485V1182L500 1205L504
1244H50L46 1205L227 1180V452ZM573 1373T585 1393T598 1454Q598 1492 583 1512T540 1532Q485 1532 485 1454Q485 1414 498 1394T542 1373Q573 1373 585 1393ZM840 1373T853 1393T866 1454Q866 1492 851 1512T808 1532Q780 1532 767 1513T754 1454Q754 1414 766
1394T809 1373Q840 1373 853 1393Z" />
<glyph unicode="&#xdd;" glyph-name="Yacute" horiz-adv-x="1182" d="M187 1177L542 489V72L367 42L361 0H821L829 46L648 67V489L997 1182L1126 1208L1129 1244H739L737 1208L922 1178L612 571L299 1181L465 1207L469 1243H52L48 1207L187 1177ZM553 1350L736
1674L640 1713L508 1376L553 1350Z" />
<glyph unicode="&#xde;" glyph-name="Thorn" horiz-adv-x="1008" d="M219 72L61 42L56 0H555L563 46L329 66V972Q340 973 376 976T439 979Q565 979 653 932T785 807T830 640Q830 546 793 471T673 349T462 296L408 293L418 250Q432 248 449 248T471 248Q597 248
708 299T886 445T954 660Q954 783 891 864T718 985T470 1024Q371 1024 329 1021V1182L507 1205L512 1244H54L49 1205L222 1180L219 72Z" />
<glyph unicode="&#xdf;" glyph-name="germandbls" horiz-adv-x="1063" d="M312 982Q312 1057 339 1119T420 1217T554 1254Q603 1254 650 1227T727 1153T757 1052Q757 1004 739 966T696 900T627 835Q588 801 565 776T525 719T509 645Q509 581 541 530T620 442T742
355Q804 314 839 287T899 226T923 154Q923 121 899 89T831 36T734 15Q668 15 627 40T562 119T525 263Q492 255 469 234T445 174Q445 112 480 65T575 -9T704 -36Q787 -36 857 -7T969 78T1011 205Q1011 257 982 300T911 375T797 452Q727 496 686 527T617 599T588
690Q588 730 613 760T691 835Q740 875 770 906T822 984T844 1090Q844 1160 811 1211T722 1288T603 1315Q479 1315 394 1259T264 1105T212 880L73 858L61 824H209V59L59 30L46 0H312V982Z" />
<glyph unicode="&#xe0;" glyph-name="agrave" horiz-adv-x="749" d="M306 -26T367 0T469 63T519 128H524V115Q524 59 557 21T650 -18Q679 -18 706 -12T751 3L756 37L690 50Q649 57 630 81T607 138T602 229V569Q602 723 542 796T356 870Q280 870 213 841T106 765T65
666Q65 629 90 609T152 589Q156 698 191 758T309 819Q418 819 464 746T511 516V457Q359 451 249 413T80 310T21 162Q21 104 49 62T127 -3T237 -26Q306 -26 367 0ZM511 185Q495 148 462 116T382 63T279 42Q209 42 169 81T129 189Q129 259 183 309T325 385T511 412V185ZM336
972L382 999L249 1335L155 1298L336 972Z" />
<glyph unicode="&#xe1;" glyph-name="aacute" horiz-adv-x="749" d="M306 -26T367 0T469 63T519 128H524V115Q524 59 557 21T650 -18Q679 -18 706 -12T751 3L756 37L690 50Q649 57 630 81T607 138T602 229V569Q602 723 542 796T356 870Q280 870 213 841T106 765T65
666Q65 629 90 609T152 589Q156 698 191 758T309 819Q418 819 464 746T511 516V457Q359 451 249 413T80 310T21 162Q21 104 49 62T127 -3T237 -26Q306 -26 367 0ZM511 185Q495 148 462 116T382 63T279 42Q209 42 169 81T129 189Q129 259 183 309T325 385T511 412V185ZM300
981L483 1305L387 1344L255 1007L300 981Z" />
<glyph unicode="&#xe2;" glyph-name="acircumflex" horiz-adv-x="749" d="M306 -26T367 0T469 63T519 128H524V115Q524 59 557 21T650 -18Q679 -18 706 -12T751 3L756 37L690 50Q649 57 630 81T607 138T602 229V569Q602 723 542 796T356 870Q280 870 213 841T106
765T65 666Q65 629 90 609T152 589Q156 698 191 758T309 819Q418 819 464 746T511 516V457Q359 451 249 413T80 310T21 162Q21 104 49 62T127 -3T237 -26Q306 -26 367 0ZM511 185Q495 148 462 116T382 63T279 42Q209 42 169 81T129 189Q129 259 183 309T325 385T511
412V185ZM144 995L301 1131H310L491 996L523 1033L344 1219L290 1206L123 1025L144 995Z" />
<glyph unicode="&#xe3;" glyph-name="atilde" horiz-adv-x="749" d="M140 1027T160 1048T206 1069Q223 1069 240 1062T289 1038L361 998Q398 977 433 977Q479 977 512 1015T561 1130L529 1138Q512 1089 491 1068T445 1047Q428 1047 409 1054T363 1077L290 1118Q253
1138 221 1138Q176 1138 142 1102T91 986L122 978Q140 1027 160 1048ZM306 -26T367 0T469 63T519 128H524V115Q524 59 557 21T650 -18Q679 -18 706 -12T751 3L756 37L690 50Q649 57 630 81T607 138T602 229V569Q602 723 542 796T356 870Q280 870 213 841T106 765T65
666Q65 629 90 609T152 589Q156 698 191 758T309 819Q418 819 464 746T511 516V457Q359 451 249 413T80 310T21 162Q21 104 49 62T127 -3T237 -26Q306 -26 367 0ZM511 185Q495 148 462 116T382 63T279 42Q209 42 169 81T129 189Q129 259 183 309T325 385T511 412V185Z"
/>
<glyph unicode="&#xe4;" glyph-name="adieresis" horiz-adv-x="749" d="M306 -26T367 0T469 63T519 128H524V115Q524 59 557 21T650 -18Q679 -18 706 -12T751 3L756 37L690 50Q649 57 630 81T607 138T602 229V569Q602 723 542 796T356 870Q280 870 213 841T106
765T65 666Q65 629 90 609T152 589Q156 698 191 758T309 819Q418 819 464 746T511 516V457Q359 451 249 413T80 310T21 162Q21 104 49 62T127 -3T237 -26Q306 -26 367 0ZM511 185Q495 148 462 116T382 63T279 42Q209 42 169 81T129 189Q129 259 183 309T325 385T511
412V185ZM219 1004T231 1024T244 1085Q244 1123 229 1143T186 1163Q131 1163 131 1085Q131 1045 144 1025T188 1004Q219 1004 231 1024ZM486 1004T499 1024T512 1085Q512 1123 497 1143T454 1163Q426 1163 413 1144T400 1085Q400 1045 412 1025T455 1004Q486 1004
499 1024Z" />
<glyph unicode="&#xe5;" glyph-name="aring" horiz-adv-x="749" d="M359 973T398 997T458 1062T480 1148Q480 1219 437 1264T322 1310Q276 1310 238 1287T177 1224T154 1139Q154 1063 197 1018T310 973Q359 973 398 997ZM357 1270T385 1228T414 1133Q414 1076
389 1045T320 1014Q272 1014 246 1055T219 1150Q219 1200 242 1235T310 1270Q357 1270 385 1228ZM306 -26T367 0T469 63T519 128H524V115Q524 59 557 21T650 -18Q679 -18 706 -12T751 3L756 37L690 50Q649 57 630 81T607 138T602 229V569Q602 723 542 796T356 870Q280
870 213 841T106 765T65 666Q65 629 90 609T152 589Q156 698 191 758T309 819Q418 819 464 746T511 516V457Q359 451 249 413T80 310T21 162Q21 104 49 62T127 -3T237 -26Q306 -26 367 0ZM511 185Q495 148 462 116T382 63T279 42Q209 42 169 81T129 189Q129 259
183 309T325 385T511 412V185Z" />
<glyph unicode="&#xe6;" glyph-name="ae" horiz-adv-x="1195" d="M332 -27T394 6T496 86T546 169Q568 113 618 68T728 -3T839 -29Q934 -29 1007 7T1127 104L1109 137Q1071 99 1017 76T895 53Q745 53 672 154T599 429L1085 451Q1092 478 1096 513T1101 573Q1101
874 868 874Q788 874 716 837T593 718Q574 795 515 835T377 875Q309 875 241 846T130 770T86 673Q86 641 109 625T167 609Q180 714 213 769T322 825Q399 825 440 797T497 708T514 538V467Q270 440 161 367T52 169Q52 110 81 66T157 -3T259 -27Q332 -27 394 6ZM867
818T908 790T973 714T997 607Q997 538 987 514L600 476Q600 578 627 655T704 775T819 818Q867 818 908 790ZM514 248Q514 191 481 144T395 69T291 42Q248 42 216 63T167 119T150 196Q150 271 196 316T319 384T514 424V248Z" />
<glyph unicode="&#xe7;" glyph-name="ccedilla" horiz-adv-x="743" d="M664 62T597 24T451 -25L415 -76Q453 -110 478 -146T504 -227Q504 -283 453 -322T305 -390L294 -347Q337 -332 374 -301T412 -247Q412 -212 397 -190T349 -139L326 -118L389 -29Q283 -28 208
27T95 178T57 395Q57 532 107 641T244 811T432 873Q548 873 600 824T653 706Q653 670 638 647T588 612Q552 718 506 765T384 813Q319 813 267 767T186 638T157 453Q157 238 231 142T442 45Q510 45 573 74T677 144L695 111Q664 62 597 24Z" />
<glyph unicode="&#xe8;" glyph-name="egrave" horiz-adv-x="740" d="M493 -29T568 7T688 104L671 137Q633 99 578 76T455 53Q306 53 233 160T160 444L643 451Q650 478 655 518T661 582Q661 735 602 804T429 874Q330 874 245 820T109 660T57 411Q57 265 101 166T223
19T398 -29Q493 -29 568 7ZM429 818T470 790T535 713T559 605Q559 533 549 514L162 492Q162 595 189 668T265 780T380 818Q429 818 470 790ZM380 981L426 1008L293 1344L199 1307L380 981Z" />
<glyph unicode="&#xe9;" glyph-name="eacute" horiz-adv-x="740" d="M493 -29T568 7T688 104L671 137Q633 99 578 76T455 53Q306 53 233 160T160 444L643 451Q650 478 655 518T661 582Q661 735 602 804T429 874Q330 874 245 820T109 660T57 411Q57 265 101 166T223
19T398 -29Q493 -29 568 7ZM429 818T470 790T535 713T559 605Q559 533 549 514L162 492Q162 595 189 668T265 780T380 818Q429 818 470 790ZM382 972L565 1296L469 1335L337 998L382 972Z" />
<glyph unicode="&#xea;" glyph-name="ecircumflex" horiz-adv-x="740" d="M493 -29T568 7T688 104L671 137Q633 99 578 76T455 53Q306 53 233 160T160 444L643 451Q650 478 655 518T661 582Q661 735 602 804T429 874Q330 874 245 820T109 660T57 411Q57 265 101
166T223 19T398 -29Q493 -29 568 7ZM429 818T470 790T535 713T559 605Q559 533 549 514L162 492Q162 595 189 668T265 780T380 818Q429 818 470 790ZM214 995L371 1131H380L561 996L593 1033L414 1219L360 1206L193 1025L214 995Z" />
<glyph unicode="&#xeb;" glyph-name="edieresis" horiz-adv-x="740" d="M493 -29T568 7T688 104L671 137Q633 99 578 76T455 53Q306 53 233 160T160 444L643 451Q650 478 655 518T661 582Q661 735 602 804T429 874Q330 874 245 820T109 660T57 411Q57 265 101
166T223 19T398 -29Q493 -29 568 7ZM429 818T470 790T535 713T559 605Q559 533 549 514L162 492Q162 595 189 668T265 780T380 818Q429 818 470 790ZM297 1004T309 1024T322 1085Q322 1123 307 1143T264 1163Q209 1163 209 1085Q209 1045 222 1025T266 1004Q297
1004 309 1024ZM564 1004T577 1024T590 1085Q590 1123 575 1143T532 1163Q504 1163 491 1144T478 1085Q478 1045 490 1025T533 1004Q564 1004 577 1024Z" />
<glyph unicode="&#xec;" glyph-name="igrave" horiz-adv-x="514" d="M227 997L273 1024L140 1360L46 1323L227 997ZM455 0L466 33L306 59V880L298 888L62 867L59 842L212 812V59L62 31L49 0H455Z" />
<glyph unicode="&#xed;" glyph-name="iacute" horiz-adv-x="511" d="M260 1006L443 1330L347 1369L215 1032L260 1006ZM452 0L463 33L303 59V880L295 888L59 867L56 842L209 812V59L59 31L46 0H452Z" />
<glyph unicode="&#xee;" glyph-name="icircumflex" horiz-adv-x="526" d="M67 1020L224 1156H233L414 1021L446 1058L267 1244L213 1231L46 1050L67 1020ZM467 0L478 33L318 59V880L310 888L74 867L71 842L224 812V59L74 31L61 0H467Z" />
<glyph unicode="&#xef;" glyph-name="idieresis" horiz-adv-x="511" d="M145 1030T157 1050T170 1111Q170 1149 155 1169T112 1189Q57 1189 57 1111Q57 1071 70 1051T114 1030Q145 1030 157 1050ZM412 1030T425 1050T438 1111Q438 1149 423 1169T380 1189Q352
1189 339 1170T326 1111Q326 1071 338 1051T381 1030Q412 1030 425 1050ZM452 0L463 33L303 59V880L295 888L59 867L56 842L209 812V59L59 31L46 0H452Z" />
<glyph unicode="&#xf0;" glyph-name="eth" horiz-adv-x="844" d="M519 -27T599 32T724 202T768 465Q768 664 713 828T562 1117L680 1141L689 1192L527 1157Q450 1246 362 1302H296Q302 1297 347 1254T448 1141L242 1099L230 1048L479 1099Q532 1028 573 947T634
783L627 782Q612 822 577 860T493 924T387 949Q283 949 208 887T94 713T55 451Q55 325 95 216T215 40T412 -27Q519 -27 599 32ZM375 893Q447 893 514 840T624 681T667 425Q667 315 641 225T563 82T436 29Q358 29 295 82T194 241T156 498Q156 601 178 690T249 836T371
893H375Z" />
<glyph unicode="&#xf1;" glyph-name="ntilde" horiz-adv-x="1033" d="M446 36L306 57V665Q362 719 401 747T482 788T583 801Q653 801 700 742T747 559V57L607 31L601 0H978L981 37L846 57V584Q846 737 784 808T623 880Q558 880 494 854T380 789T304 717H297L301
844L295 853L59 833L57 805L209 778V57L57 31L50 0H440L446 36ZM321 1057T341 1078T387 1099Q404 1099 421 1092T470 1068L542 1028Q579 1007 614 1007Q660 1007 693 1045T742 1160L710 1168Q693 1119 672 1098T626 1077Q609 1077 590 1084T544 1107L471 1148Q434
1168 402 1168Q357 1168 323 1132T272 1016L303 1008Q321 1057 341 1078Z" />
<glyph unicode="&#xf2;" glyph-name="ograve" horiz-adv-x="870" d="M534 -27T621 31T761 195T814 437Q814 555 770 656T644 818T457 879Q344 879 253 821T109 653T56 396Q56 268 105 172T239 25T431 -27Q534 -27 621 31ZM501 813T568 755T672 601T709 401Q709
297 679 215T594 85T467 37Q376 37 306 94T199 250T161 468Q161 565 192 643T281 767T413 813Q501 813 568 755ZM441 972L487 999L354 1335L260 1298L441 972Z" />
<glyph unicode="&#xf3;" glyph-name="oacute" horiz-adv-x="870" d="M534 -27T621 31T761 195T814 437Q814 555 770 656T644 818T457 879Q344 879 253 821T109 653T56 396Q56 268 105 172T239 25T431 -27Q534 -27 621 31ZM501 813T568 755T672 601T709 401Q709
297 679 215T594 85T467 37Q376 37 306 94T199 250T161 468Q161 565 192 643T281 767T413 813Q501 813 568 755ZM421 981L604 1305L508 1344L376 1007L421 981Z" />
<glyph unicode="&#xf4;" glyph-name="ocircumflex" horiz-adv-x="870" d="M534 -27T621 31T761 195T814 437Q814 555 770 656T644 818T457 879Q344 879 253 821T109 653T56 396Q56 268 105 172T239 25T431 -27Q534 -27 621 31ZM501 813T568 755T672 601T709 401Q709
297 679 215T594 85T467 37Q376 37 306 94T199 250T161 468Q161 565 192 643T281 767T413 813Q501 813 568 755ZM267 995L424 1131H433L614 996L646 1033L467 1219L413 1206L246 1025L267 995Z" />
<glyph unicode="&#xf5;" glyph-name="otilde" horiz-adv-x="870" d="M534 -27T621 31T761 195T814 437Q814 555 770 656T644 818T457 879Q344 879 253 821T109 653T56 396Q56 268 105 172T239 25T431 -27Q534 -27 621 31ZM501 813T568 755T672 601T709 401Q709
297 679 215T594 85T467 37Q376 37 306 94T199 250T161 468Q161 565 192 643T281 767T413 813Q501 813 568 755ZM264 1057T284 1078T330 1099Q347 1099 364 1092T413 1068L485 1028Q522 1007 557 1007Q603 1007 636 1045T685 1160L653 1168Q636 1119 615 1098T569
1077Q552 1077 533 1084T487 1107L414 1148Q377 1168 345 1168Q300 1168 266 1132T215 1016L246 1008Q264 1057 284 1078Z" />
<glyph unicode="&#xf6;" glyph-name="odieresis" horiz-adv-x="870" d="M534 -27T621 31T761 195T814 437Q814 555 770 656T644 818T457 879Q344 879 253 821T109 653T56 396Q56 268 105 172T239 25T431 -27Q534 -27 621 31ZM501 813T568 755T672 601T709 401Q709
297 679 215T594 85T467 37Q376 37 306 94T199 250T161 468Q161 565 192 643T281 767T413 813Q501 813 568 755ZM330 1004T342 1024T355 1085Q355 1123 340 1143T297 1163Q242 1163 242 1085Q242 1045 255 1025T299 1004Q330 1004 342 1024ZM597 1004T610 1024T623
1085Q623 1123 608 1143T565 1163Q537 1163 524 1144T511 1085Q511 1045 523 1025T566 1004Q597 1004 610 1024Z" />
<glyph unicode="&#xf7;" glyph-name="divide" horiz-adv-x="929" d="M524 685T524 789Q524 837 507 861T457 885Q425 885 411 861T397 789Q397 738 411 712T459 685Q524 685 524 789ZM866 476L877 541H65L53 476H866ZM524 120T524 224Q524 317 457 317Q425 317
411 295T397 224Q397 173 411 147T459 120Q524 120 524 224Z" />
<glyph unicode="&#xf8;" glyph-name="oslash" horiz-adv-x="954" d="M775 734Q812 674 831 601T851 449Q851 313 799 204T658 34T468 -27Q385 -27 315 5T194 97L156 54L44 46L152 159Q93 265 93 408Q93 558 146 670T290 842T494 903Q564 903 624 874T731 793L775
847L889 857L775 734ZM377 840T320 791T230 660T198 480Q198 346 244 239L665 707Q625 769 571 804T450 840Q377 840 320 791ZM575 37T630 87T715 223T746 413Q746 478 732 542T691 661L266 193Q307 120 368 79T504 37Q575 37 630 87Z" />
<glyph unicode="&#xf9;" glyph-name="ugrave" horiz-adv-x="999" d="M201 283Q201 125 260 51T434 -24Q509 -24 580 17T703 133H714V117Q714 61 747 22T839 -18Q868 -18 895 -12T941 3L947 37L885 50Q845 57 827 80T803 137T798 230V844L791 853L550 833L548 806L703
776V183Q662 134 600 97T475 59Q292 59 292 317V844L284 853L50 833L46 806L201 776V283ZM475 972L521 999L388 1335L294 1298L475 972Z" />
<glyph unicode="&#xfa;" glyph-name="uacute" horiz-adv-x="999" d="M201 283Q201 125 260 51T434 -24Q509 -24 580 17T703 133H714V117Q714 61 747 22T839 -18Q868 -18 895 -12T941 3L947 37L885 50Q845 57 827 80T803 137T798 230V844L791 853L550 833L548 806L703
776V183Q662 134 600 97T475 59Q292 59 292 317V844L284 853L50 833L46 806L201 776V283ZM464 991L647 1315L551 1354L419 1017L464 991Z" />
<glyph unicode="&#xfb;" glyph-name="ucircumflex" horiz-adv-x="999" d="M201 283Q201 125 260 51T434 -24Q509 -24 580 17T703 133H714V117Q714 61 747 22T839 -18Q868 -18 895 -12T941 3L947 37L885 50Q845 57 827 80T803 137T798 230V844L791 853L550 833L548
806L703 776V183Q662 134 600 97T475 59Q292 59 292 317V844L284 853L50 833L46 806L201 776V283ZM300 995L457 1131H466L647 996L679 1033L500 1219L446 1206L279 1025L300 995Z" />
<glyph unicode="&#xfc;" glyph-name="udieresis" horiz-adv-x="999" d="M201 283Q201 125 260 51T434 -24Q509 -24 580 17T703 133H714V117Q714 61 747 22T839 -18Q868 -18 895 -12T941 3L947 37L885 50Q845 57 827 80T803 137T798 230V844L791 853L550 833L548
806L703 776V183Q662 134 600 97T475 59Q292 59 292 317V844L284 853L50 833L46 806L201 776V283ZM350 1004T362 1024T375 1085Q375 1123 360 1143T317 1163Q262 1163 262 1085Q262 1045 275 1025T319 1004Q350 1004 362 1024ZM617 1004T630 1024T643 1085Q643
1123 628 1143T585 1163Q557 1163 544 1144T531 1085Q531 1045 543 1025T586 1004Q617 1004 630 1024Z" />
<glyph unicode="&#xfd;" glyph-name="yacute" horiz-adv-x="979" d="M258 -377T313 -341T410 -235T497 -53L827 785L928 816L930 848H637L631 813L760 785L517 167L291 789L418 816L420 848H74L68 813L192 785L462 25L436 -48Q393 -158 343 -210T242 -263Q181
-263 145 -251T77 -211Q44 -239 44 -286Q44 -329 83 -353T181 -377Q258 -377 313 -341ZM521 981L704 1305L608 1344L476 1007L521 981Z" />
<glyph unicode="&#xfe;" glyph-name="thorn" horiz-adv-x="944" d="M452 -333L297 -315V680L312 695Q366 753 412 785T520 818Q650 818 713 708T776 414Q776 298 737 213T635 84T501 40Q440 40 403 45T332 63L337 -9Q360 -14 392 -17T448 -20Q573 -20 670 42T822
215T877 467Q877 610 840 706T735 851T580 899Q492 899 419 850T297 734H289L299 848V1305L291 1315L52 1295L49 1264L200 1233V-313L50 -335L45 -374H445L452 -333Z" />
<glyph unicode="&#xff;" glyph-name="ydieresis" horiz-adv-x="979" d="M258 -377T313 -341T410 -235T497 -53L827 785L928 816L930 848H637L631 813L760 785L517 167L291 789L418 816L420 848H74L68 813L192 785L462 25L436 -48Q393 -158 343 -210T242 -263Q181
-263 145 -251T77 -211Q44 -239 44 -286Q44 -329 83 -353T181 -377Q258 -377 313 -341ZM428 1004T440 1024T453 1085Q453 1123 438 1143T395 1163Q340 1163 340 1085Q340 1045 353 1025T397 1004Q428 1004 440 1024ZM695 1004T708 1024T721 1085Q721 1123 706 1143T663
1163Q635 1163 622 1144T609 1085Q609 1045 621 1025T664 1004Q695 1004 708 1024Z" />
<glyph unicode="&#x2013;" glyph-name="endash" horiz-adv-x="750" d="M678 437L687 498L78 493L66 430L678 437Z" />
<glyph unicode="&#x2014;" glyph-name="emdash" horiz-adv-x="1261" d="M1186 437L1198 498L79 493L66 430L1186 437Z" />
<glyph unicode="&#x2018;" glyph-name="quoteleft" horiz-adv-x="384" d="M222 1208T161 1128T99 963Q99 897 118 850T170 778T242 754Q285 754 311 779T338 845Q338 855 335 864Q326 860 308 860Q262 860 231 899T199 1002Q199 1069 237 1118T377 1208L365 1253Q222
1208 161 1128Z" />
<glyph unicode="&#x2019;" glyph-name="quoteright" horiz-adv-x="383" d="M163 827T224 907T286 1072Q286 1138 267 1185T215 1257T143 1281Q100 1281 74 1256T47 1190Q47 1180 50 1171Q59 1175 77 1175Q123 1175 154 1136T186 1033Q186 966 148 917T8 827L20
782Q163 827 224 907Z" />
<glyph unicode="&#x201a;" glyph-name="quotesinglbase" horiz-adv-x="394" d="M421 -236T482 -156T544 9Q544 75 525 122T473 194T401 218Q358 218 332 193T305 127Q305 117 308 108Q317 112 335 112Q381 112 412 73T444 -30Q444 -97 406 -146T266 -236L278 -281Q421
-236 482 -156Z" />
<glyph unicode="&#x201c;" glyph-name="quotedblleft" horiz-adv-x="698" d="M222 1211T161 1131T99 966Q99 900 118 853T170 781T242 757Q285 757 311 782T338 848Q338 858 335 867Q326 863 308 863Q262 863 231 902T199 1005Q199 1072 237 1121T377 1211L365
1256Q222 1211 161 1131ZM536 1211T475 1131T413 966Q413 900 432 853T484 781T556 757Q599 757 625 782T652 848Q652 858 649 867Q640 863 622 863Q576 863 545 902T513 1005Q513 1072 551 1121T691 1211L679 1256Q536 1211 475 1131Z" />
<glyph unicode="&#x201d;" glyph-name="quotedblright" horiz-adv-x="700" d="M163 833T224 913T286 1078Q286 1144 267 1191T215 1263T143 1287Q100 1287 74 1262T47 1196Q47 1186 50 1177Q59 1181 77 1181Q123 1181 154 1142T186 1039Q186 972 148 923T8 833L20
788Q163 833 224 913ZM480 833T541 913T603 1078Q603 1144 584 1191T532 1263T460 1287Q417 1287 391 1262T364 1196Q364 1186 367 1177Q376 1181 394 1181Q440 1181 471 1142T503 1039Q503 972 465 923T325 833L337 788Q480 833 541 913Z" />
<glyph unicode="&#x201e;" glyph-name="quotedblbase" horiz-adv-x="713" d="M419 11T480 91T542 256Q542 322 523 369T471 441T399 465Q356 465 330 440T303 374Q303 364 306 355Q315 359 333 359Q379 359 410 320T442 217Q442 150 404 101T264 11L276 -34Q419
11 480 91ZM480 -245T541 -165T603 0Q603 66 584 113T532 185T460 209Q417 209 391 184T364 118Q364 108 367 99Q376 103 394 103Q440 103 471 64T503 -39Q503 -106 465 -155T325 -245L337 -290Q480 -245 541 -165Z" />
<glyph unicode="&#x2022;" glyph-name="bullet" horiz-adv-x="543" d="M215 394T236 431T258 544Q258 615 236 650T166 686Q74 686 74 544Q74 471 96 433T166 394Q215 394 236 431Z" />
<glyph unicode="&#x2039;" glyph-name="guilsinglleft" horiz-adv-x="397" d="M52 449L312 78L344 116L157 462L345 786L317 822L49 469L52 449Z" />
<glyph unicode="&#x203a;" glyph-name="guilsinglright" horiz-adv-x="398" d="M374 449L377 469L109 822L81 786L269 462L82 116L114 78L374 449Z" />
</font>
</defs>
</svg>
