<?xml version="1.0" standalone="no"?>
<!DOCTYPE svg PUBLIC "-//W3C//DTD SVG 1.1//EN" "http://www.w3.org/Graphics/SVG/1.1/DTD/svg11.dtd">
<svg xmlns="http://www.w3.org/2000/svg">
<defs >
<font id="ExpletusSans" horiz-adv-x="455" ><font-face
    font-family="Expletus Sans"
    units-per-em="1000"
    panose-1="2 0 6 3 5 0 0 9 0 4"
    ascent="900"
    descent="-400"
    alphabetic="0" />
<glyph unicode=" " glyph-name="space" horiz-adv-x="240" />
<glyph unicode="!" glyph-name="exclam" horiz-adv-x="264" d="M71 51Q74 80 95 99T145 119Q174 119 190 100T204 51Q200 22 179 4T129 -15Q100 -15 83 3T71 51ZM168 727H276L195 198H117L168 727Z" />
<glyph unicode="&quot;" glyph-name="quotedbl" horiz-adv-x="380" d="M303 522L328 727H425L415 649Q412 625 405 600T384 556T350 526T303 522ZM120 522L145 727H242L232 649Q229 625 222 600T201 556T168 526T120 522Z" />
<glyph unicode="#" glyph-name="numbersign" horiz-adv-x="761" d="M425 0Q434 32 444 64T464 129L476 162H288Q297 181 308 194T334 216T369 229T419 233H496L559 432L572 471H351L204 0H118Q128 32 137 65T158 130L169 162H56L65 233H189L253 433L265 471H153L162
542H287L337 702H423L373 542H593L644 702H730L680 542H790L781 471H657L583 233H693L684 162H561L511 0H425Z" />
<glyph unicode="$" glyph-name="dollar" horiz-adv-x="518" d="M338 630Q289 630 258 604T222 542Q217 505 238 480T293 432T366 388T439 338T491 271T504 177Q500 144 485 114T443 60T382 18T303 -7L290 -107H208L220 -11Q180 -8 135 3T43 37L82 111Q128 88 169
79T248 70Q278 70 304 79T349 103T381 138T396 179Q401 219 381 246T327 295T254 338T182 386T130 449T117 540Q121 574 137 603T178 655T237 692T309 710L321 810H403L391 709Q419 706 448 699T515 681L475 608Q433 621 401 625T338 630Z" />
<glyph unicode="%" glyph-name="percent" horiz-adv-x="853" d="M747 191Q755 260 741 294T692 329Q660 329 636 295T604 191Q595 120 610 86T658 52Q692 52 715 86T747 191ZM840 191Q834 143 817 105T775 41T718 1T650 -13Q576 -13 538 40T511 191Q523 288 574
341T700 394Q773 394 812 341T840 191ZM334 513Q343 583 328 617T280 651Q247 651 224 617T191 513Q183 443 198 409T247 375Q280 375 303 409T334 513ZM427 513Q421 465 405 427T363 363T306 323T238 309Q163 309 125 362T98 513Q104 561 120 599T162 663T219
703T289 717Q361 717 400 664T427 513ZM166 0L690 702H772L248 0H166Z" />
<glyph unicode="&amp;" glyph-name="ampersand" horiz-adv-x="642" d="M322 78Q356 86 381 78T427 48Q389 20 347 5T253 -11Q202 -11 165 7T103 55T69 125T64 209Q68 243 81 273T113 328T157 376T209 416Q185 458 177 492T172 559Q177 598 195 631T243 687T311
724T397 737Q430 737 469 729T540 703L505 632Q479 644 446 650T385 656Q340 656 308 631T271 568Q268 546 272 527T285 489T309 449T341 404L481 212Q506 254 524 292T557 379H641Q619 313 593 255T529 146L639 0H509L276 316L252 353Q222 325 201 296T174 222Q166
155 192 113T278 70Q289 70 298 72T322 78Z" />
<glyph unicode="&apos;" glyph-name="quotesingle" horiz-adv-x="195" d="M120 522L145 727H239L229 649Q226 625 219 600T199 556T167 526T120 522Z" />
<glyph unicode="(" glyph-name="parenleft" horiz-adv-x="296" d="M177 296Q167 213 163 152T165 43T195 -43T262 -121L208 -176Q155 -137 125 -94T81 5T69 131T83 296Q94 389 109 460T152 586T220 684T324 767L364 713Q311 674 279 635T228 548T198 440T177 296Z" />
<glyph unicode=")" glyph-name="parenright" horiz-adv-x="295" d="M191 296Q201 379 205 439T202 548T172 635T106 713L160 767Q213 728 243 685T286 586T297 460T284 296Q272 202 257 132T215 6T148 -93T44 -176L4 -121Q56 -82 88 -44T139 43T170 152T191 296Z" />
<glyph unicode="*" glyph-name="asterisk" horiz-adv-x="479" d="M311 590L393 740L462 697Q432 663 412 641T379 604T359 581T347 568L511 588L500 503Q458 508 430 511T384 517T357 520T341 523L424 394L345 352L301 502L220 352L151 394L265 524L101 503L112
589L270 569L186 697L265 740L311 590Z" />
<glyph unicode="+" glyph-name="plus" horiz-adv-x="539" d="M67 268L76 342H268L294 546H377L351 342H544L535 268H342L317 62H234L259 268H67Z" />
<glyph unicode="," glyph-name="comma" horiz-adv-x="225" d="M50 -107L76 98H173L163 20Q160 -4 153 -29T132 -73T98 -103T50 -107Z" />
<glyph unicode="-" glyph-name="hyphen" horiz-adv-x="430" d="M398 268H96L105 342H407L398 268Z" />
<glyph unicode="." glyph-name="period" horiz-adv-x="238" d="M59 51Q62 80 83 99T133 118Q162 118 178 99T192 51Q188 22 167 4T117 -15Q88 -15 72 3T59 51Z" />
<glyph unicode="/" glyph-name="slash" horiz-adv-x="408" d="M119 -62H27L367 727H459L119 -62Z" />
<glyph unicode="0" glyph-name="zero" horiz-adv-x="656" d="M534 349Q551 483 518 559T406 636Q367 636 334 616T275 559T231 469T205 349Q188 215 222 140T335 64Q374 64 407 83T465 139T508 229T534 349ZM325 -17Q262 -17 214 8T136 81T94 197T92 349Q102 432
130 500T200 616T296 690T415 717Q482 717 530 689T608 612T647 495T648 349Q637 263 608 196T537 81T440 8T325 -17Z" />
<glyph unicode="1" glyph-name="one" horiz-adv-x="353" d="M262 0H157L227 578L108 519L80 587L306 701H348L262 0Z" />
<glyph unicode="2" glyph-name="two" horiz-adv-x="505" d="M512 528Q507 490 488 453T441 378T378 305T308 234T240 166T182 102L165 85L187 88H470L460 0H24L29 44Q79 116 140 180T257 302T353 414T399 517Q402 544 395 565T373 600T335 622T288 630Q262 630
229 623T153 596L134 670Q184 694 227 702T309 711Q358 711 398 699T465 663T505 606T512 528Z" />
<glyph unicode="3" glyph-name="three" horiz-adv-x="508" d="M502 552Q497 504 466 464T382 396L356 387L377 382Q401 373 422 357T458 317T480 266T483 203Q478 159 454 120T393 52T307 6T204 -11Q147 -11 103 4T30 36L65 108Q91 93 128 82T207 70Q241 70 270
82T320 113T355 157T371 205Q375 241 364 265T328 304T269 324T192 330L191 393Q222 405 255 418T317 447T365 486T389 538Q394 581 368 606T297 631Q268 631 234 624T154 596L135 670Q188 695 233 703T320 712Q364 712 400 701T460 668T495 618T502 552Z" />
<glyph unicode="4" glyph-name="four" horiz-adv-x="563" d="M44 223L419 701H530L472 231H552L542 152H462L444 0H344L410 538L415 567L397 541L185 276Q173 259 159 244L146 230Q151 231 155 231T163 232H239Q260 232 275 224T300 203T317 176T326 152H35L44 223Z" />
<glyph unicode="5" glyph-name="five" horiz-adv-x="515" d="M251 613Q244 577 237 542T222 471L212 417Q229 419 244 421T277 423Q338 423 382 405T454 358T491 290T497 209Q491 164 469 124T409 54T322 7T212 -11Q193 -11 171 -8T127 1T82 16T42 37L77 110Q117
87 154 79T221 70Q261 70 290 83T340 116T371 162T385 211Q393 279 353 311T243 343Q217 343 181 339T109 325L181 701H528L517 613H251Z" />
<glyph unicode="6" glyph-name="six" horiz-adv-x="590" d="M468 626Q415 626 370 604T290 542T232 447T201 328Q196 287 197 241T210 156T250 92T324 66Q351 66 375 77T418 109T449 157T466 218Q474 284 450 317T383 351Q376 351 368 350T348 346Q330 342 314
345T285 354T263 370T248 387Q274 400 294 408T332 422T365 429T397 431Q441 431 477 418T538 377T574 310T579 218Q574 175 552 133T496 58T416 5T316 -15Q241 -15 193 14T120 92T88 201T89 326Q98 397 129 465T210 587T329 674T478 707Q503 707 531 702T588 684L554
610Q531 620 510 623T468 626Z" />
<glyph unicode="7" glyph-name="seven" horiz-adv-x="462" d="M218 0H107Q147 156 208 289T363 548Q374 563 386 578T412 610L96 609L108 701H538L528 619Q480 566 436 508T351 376T277 211T218 0Z" />
<glyph unicode="8" glyph-name="eight" horiz-adv-x="579" d="M296 67Q327 67 353 75T398 98T430 133T446 178Q451 220 429 246T369 291T289 329T210 372T153 434T138 531Q143 574 165 607T220 664T294 700T378 713Q422 713 460 701T524 665T563 608T571 531Q565
486 535 442T460 359Q482 346 500 329T531 291T549 241T550 178Q544 132 521 96T462 36T381 -1T286 -14Q235 -14 193 -2T122 35T78 96T70 178Q72 195 78 213T96 251T127 295T175 345Q192 321 199 292T190 234Q174 208 171 187Q164 130 200 99T296 67ZM242 531Q239
504 250 485T282 450T331 422T388 396Q422 426 442 455T468 519Q472 548 465 569T443 604T409 624T368 631Q346 631 325 625T286 605T257 574T242 531Z" />
<glyph unicode="9" glyph-name="nine" horiz-adv-x="589" d="M204 71Q257 71 302 93T383 156T441 250T472 370Q477 411 476 457T463 541T424 605T350 631Q322 631 298 620T255 588T224 540T207 480Q199 414 224 381T290 347Q296 347 305 348T325 351Q344 355 359
353T387 344T409 328T425 310Q399 297 378 289T340 276T307 269T276 267Q232 267 196 280T134 321T98 388T93 480Q99 523 120 565T177 639T257 692T357 712Q432 712 480 683T554 605T586 496T585 372Q576 301 545 233T462 110T343 23T194 -10Q169 -10 141 -4T84
15L119 88Q142 79 163 75T204 71Z" />
<glyph unicode=":" glyph-name="colon" horiz-adv-x="261" d="M116 425Q119 454 140 473T190 493Q219 493 235 474T249 425Q245 397 224 379T174 360Q145 360 129 378T116 425ZM70 51Q73 80 94 99T144 118Q173 118 189 99T203 51Q199 22 178 4T128 -15Q99 -15
83 3T70 51Z" />
<glyph unicode=";" glyph-name="semicolon" horiz-adv-x="261" d="M68 -107L94 98H192L182 20Q179 -4 171 -29T150 -73T116 -103T68 -107ZM116 425Q119 454 140 473T190 493Q219 493 235 474T249 425Q245 397 224 379T174 360Q145 360 129 378T116 425Z" />
<glyph unicode="&lt;" glyph-name="less" horiz-adv-x="610" d="M193 270L561 95L550 0L63 245L70 307L617 552L606 457Q502 413 400 369T194 283L167 276L193 270Z" />
<glyph unicode="=" glyph-name="equal" horiz-adv-x="608" d="M116 393L125 469H597L588 393H116ZM89 172L98 248H570L561 172H89Z" />
<glyph unicode="&gt;" glyph-name="greater" horiz-adv-x="611" d="M72 95Q175 139 277 182T484 270L510 276L485 283L117 457L128 552L615 307L608 245L61 0L72 95Z" />
<glyph unicode="?" glyph-name="question" horiz-adv-x="447" d="M113 51Q116 80 137 99T187 119Q216 119 232 100T246 51Q242 22 221 4T171 -15Q143 -15 126 3T113 51ZM297 737Q342 737 378 726T438 694T473 645T481 583Q476 543 458 511T415 450T362 394T308
338T265 274T241 198H155Q161 250 178 289T218 358T265 414T311 463T348 512T368 568Q373 606 348 631T277 656Q248 656 216 650T139 621L119 696Q171 721 213 729T297 737Z" />
<glyph unicode="@" glyph-name="at" horiz-adv-x="831" d="M605 149Q603 143 603 137T600 126Q604 128 608 132T616 138Q676 174 705 219T741 317Q748 378 735 426T689 507T607 557T495 575Q431 575 374 555T273 494T199 395T159 257Q150 179 164 120T212 21T295
-39T403 -59Q425 -59 445 -58T488 -54T535 -44T593 -28L608 -90Q571 -101 543 -108T490 -118T443 -123T395 -125Q318 -125 255 -103T148 -35T85 84T77 257Q89 350 128 422T226 542T356 616T504 641Q580 641 642 620T748 557T812 455T822 317Q816 265 793 222T733
145T648 89T545 56Q534 62 530 71T523 94V113L511 93Q478 64 451 56T396 47Q333 47 301 77T274 158Q278 188 292 210T334 248T403 274T503 291Q501 284 497 274T485 253T466 234T439 223Q394 217 376 201T354 162Q352 139 368 124T416 109Q442 109 471 121T527
164L544 305Q549 351 530 376T460 402Q439 402 415 398T361 383L346 439Q387 455 418 460T482 466Q559 466 595 423T622 300L610 201Q608 187 607 174T605 149Z" />
<glyph unicode="A" glyph-name="A" horiz-adv-x="634" d="M352 727H459L632 0H516L390 573L387 604L375 572L234 269L220 249L232 251H350Q369 251 382 244T405 226T421 200T430 170H188L110 0H2L352 727Z" />
<glyph unicode="B" glyph-name="B" horiz-adv-x="647" d="M342 72Q351 70 358 70T374 69Q401 69 425 79T469 107T502 149T518 202Q522 237 511 263T477 307T421 334T348 343H240L198 0H90L178 717Q243 729 292 734T396 740Q461 740 508 725T584 684T625 622T632
544Q630 526 622 506T602 466T574 431T537 402L506 388L533 381Q587 356 614 310T634 205Q629 166 608 128T553 58T472 8T369 -12Q340 -12 311 -9T238 6Q247 19 258 31T282 54T310 69T342 72ZM249 419H357Q426 419 469 454T520 543Q523 566 517 587T494 623T450
648T386 658Q332 658 278 652L249 419Z" />
<glyph unicode="C" glyph-name="C" horiz-adv-x="620" d="M410 -12Q329 -12 264 15T157 91T95 209T87 363Q97 445 133 514T224 633T350 712T502 740Q588 740 675 706L637 633Q595 647 561 652T492 658Q438 658 390 638T303 580T239 487T204 363Q196 300 208 246T250
153T322 91T420 69Q455 69 492 78T573 107L593 34Q544 10 498 -1T410 -12Z" />
<glyph unicode="D" glyph-name="D" horiz-adv-x="752" d="M369 -12Q337 -12 309 -9T238 5Q255 31 280 51T342 70Q353 69 359 69T374 69Q425 69 469 93T547 158T605 252T635 365Q644 434 633 488T591 580T508 638T383 658Q356 658 329 656T278 651L199 0H90L177
715Q232 728 290 734T393 740Q490 740 562 715T680 641T744 523T752 365Q742 284 707 215T621 96T504 17T369 -12Z" />
<glyph unicode="E" glyph-name="E" horiz-adv-x="572" d="M379 421H529L519 342H279Q286 357 295 371T317 396T344 414T379 421ZM91 0L180 727H601L591 646H279L209 81H536L527 0H91Z" />
<glyph unicode="F" glyph-name="F" horiz-adv-x="544" d="M379 421H529L519 342H279Q286 357 295 371T317 396T344 414T379 421ZM91 0L180 727H601L591 646H279L200 0H91Z" />
<glyph unicode="G" glyph-name="G" horiz-adv-x="690" d="M503 658Q449 658 399 639T307 581T239 488T202 363Q193 294 207 239T253 147T330 89T430 69Q452 69 478 71T539 84L570 337H673L636 37Q579 9 521 -1T420 -12Q339 -12 273 14T161 90T95 208T85 363Q95
446 133 515T228 634T359 712T513 740Q556 740 607 731T710 696L672 622Q620 645 579 651T503 658Z" />
<glyph unicode="H" glyph-name="H" horiz-adv-x="749" d="M91 0L180 727H289L200 0H91ZM379 421H601L639 727H747L658 0H550L591 341H279Q293 371 317 396T379 421Z" />
<glyph unicode="I" glyph-name="I" horiz-adv-x="288" d="M286 727L197 0H91L180 727H286Z" />
<glyph unicode="J" glyph-name="J" horiz-adv-x="292" d="M291 727L217 128Q209 61 188 14T132 -72T52 -143T-52 -212L-91 -152Q-50 -121 -17 -95T42 -38T84 32T108 128L182 727H291Z" />
<glyph unicode="K" glyph-name="K" horiz-adv-x="660" d="M200 0H91L180 727H289L200 0ZM715 727L454 434L660 0H531L387 340L383 359L370 340L283 243Q279 261 280 283T287 328T305 376T333 421Q393 496 460 573T593 727H715Z" />
<glyph unicode="L" glyph-name="L" horiz-adv-x="511" d="M91 0L180 727H290L211 82H503Q500 62 497 41T492 0H91Z" />
<glyph unicode="M" glyph-name="M" horiz-adv-x="937" d="M59 0L226 727H366L480 150L483 117L494 150L749 727H889L877 0H774L792 572L794 617L777 572L522 10H416L298 573L290 617L161 0H59Z" />
<glyph unicode="N" glyph-name="N" horiz-adv-x="736" d="M548 0Q476 141 406 279T265 560L255 595L252 561L184 0H91L180 727H288L531 242Q539 228 546 214T560 185L569 150L571 186L638 727H734L645 0H548Z" />
<glyph unicode="O" glyph-name="O" horiz-adv-x="780" d="M207 364Q199 301 209 247T244 152T308 90T399 67Q448 67 492 89T572 151T630 245T662 364Q670 431 660 485T624 579T560 639T472 660Q422 660 378 639T298 578T239 485T207 364ZM90 364Q101 455 138 525T230
644T349 717T482 742Q568 742 628 711T725 628T775 507T779 364Q769 281 734 212T647 92T529 14T389 -14Q314 -14 254 12T154 88T97 208T90 364Z" />
<glyph unicode="P" glyph-name="P" horiz-adv-x="593" d="M635 518Q629 470 605 431T545 365T465 321T375 300Q353 298 328 299T276 309Q291 335 315 356T372 378Q396 379 421 389T467 419T502 463T521 518Q525 548 516 574T488 618T442 648T382 659Q354 659 330
658T279 653L199 0L90 1L178 719Q211 725 238 729T290 735T340 739T392 740Q452 740 500 723T580 677T626 607T635 518Z" />
<glyph unicode="Q" glyph-name="Q" horiz-adv-x="784" d="M658 115L721 42L653 -17L437 235L505 294L587 197L597 177L607 202Q631 240 643 281T661 364Q669 430 659 484T624 578T559 638T471 660Q422 660 378 639T298 578T238 485T206 364Q198 299 208 245T243
152T306 90T393 68Q408 68 421 69T448 74Q476 79 504 69T546 40Q503 12 463 -1T383 -14Q309 -14 250 13T152 89T96 209T90 364Q100 449 135 519T224 638T343 715T481 742Q556 742 616 716T715 640T772 521T778 364Q770 295 741 237T658 115Z" />
<glyph unicode="R" glyph-name="R" horiz-adv-x="630" d="M636 524Q628 464 592 419T501 347L475 338Q515 317 533 282T561 201T577 104T601 0H488Q473 42 468 89T454 180T431 259T381 311Q376 310 372 310T362 310Q342 309 322 311T278 319Q292 345 316 366T373
389Q398 390 423 400T468 429T503 471T522 524Q525 552 516 577T488 620T442 648T382 659Q368 659 357 659T334 658T309 656T278 651L199 0H90L178 718Q211 724 238 728T290 735T340 739T392 741Q452 741 499 725T579 679T627 610T636 524Z" />
<glyph unicode="S" glyph-name="S" horiz-adv-x="525" d="M346 659Q293 659 261 630T223 560Q220 532 232 510T265 470T315 435T373 401T431 363T480 317T511 259T517 183Q512 142 492 107T437 45T355 4T251 -12Q208 -12 153 -2T44 36L82 109Q127 87 172 78T253
69Q286 69 313 78T360 102T392 139T408 184Q413 225 392 253T336 303T260 347T184 396T130 462T117 556Q122 597 141 631T192 689T262 726T347 740Q391 740 433 733T529 709L490 637Q448 650 412 654T346 659Z" />
<glyph unicode="T" glyph-name="T" horiz-adv-x="565" d="M306 646H101L111 727H632L622 646H416L337 0H227L306 646Z" />
<glyph unicode="U" glyph-name="U" horiz-adv-x="715" d="M356 -14Q291 -14 242 6T162 63T119 152T115 271L171 727H279L221 255Q216 212 224 177T251 118T299 80T366 67Q403 67 436 80T494 117T535 177T557 255L615 727H722L666 271Q658 207 632 155T565 65T471
7T356 -14Z" />
<glyph unicode="V" glyph-name="V" horiz-adv-x="625" d="M370 0H257L91 727H208L325 143L328 109L339 142L599 727H712L370 0Z" />
<glyph unicode="W" glyph-name="W" horiz-adv-x="990" d="M527 717H645L720 153L724 102L738 151L953 727H1059L772 0H652L573 557L569 599L556 559L342 0H218L109 727H217L291 153L293 102L310 153L527 717Z" />
<glyph unicode="X" glyph-name="X" horiz-adv-x="595" d="M259 191L130 0H13L252 329Q259 317 266 301T275 266T275 228T259 191ZM460 0L114 727H239L347 470L353 443L364 470L537 727H658L401 374L582 0H460Z" />
<glyph unicode="Y" glyph-name="Y" horiz-adv-x="590" d="M421 518L564 727H683L426 376Q418 388 412 404T403 439T404 478T421 518ZM207 727L393 338L352 0H246L284 313L85 727H207Z" />
<glyph unicode="Z" glyph-name="Z" horiz-adv-x="585" d="M140 647L150 727H630L624 683L174 93L157 78L179 81H560L551 0H21L26 44L475 633L493 650L469 647H140Z" />
<glyph unicode="[" glyph-name="bracketleft" horiz-adv-x="347" d="M55 -199L174 771H445L435 690H264L165 -118H336Q334 -138 331 -158T326 -199H55Z" />
<glyph unicode="\" glyph-name="backslash" horiz-adv-x="414" d="M371 -62H273L127 727H225L371 -62Z" />
<glyph unicode="]" glyph-name="bracketright" horiz-adv-x="346" d="M360 771L241 -199H-28L-19 -118H152L251 690H80L90 771H360Z" />
<glyph unicode="^" glyph-name="asciicircum" horiz-adv-x="628" d="M379 569L194 210H100L372 727H437L581 210H489L404 525Q401 536 398 547T391 569L389 597L379 569Z" />
<glyph unicode="_" glyph-name="underscore" horiz-adv-x="451" d="M438 -72H-4L4 0H447L438 -72Z" />
<glyph unicode="`" glyph-name="grave" horiz-adv-x="196" d="M169 631L109 727H216L266 602Q235 594 210 600T169 631Z" />
<glyph unicode="a" glyph-name="a" horiz-adv-x="572" d="M446 436Q424 442 405 444T367 447Q294 447 245 396T184 251Q179 214 182 181T196 124T229 87T283 79Q328 85 360 37Q333 19 305 8T254 -5Q209 -11 172 7T111 61T75 145T71 251Q78 312 104 362T170 450T262
507T376 528Q418 528 459 521T557 496L517 181Q510 124 508 82T511 5L432 0Q421 10 411 37T405 103L446 436Z" />
<glyph unicode="b" glyph-name="b" horiz-adv-x="572" d="M272 491Q300 505 330 513T383 523Q426 525 462 508T522 456T558 374T562 266Q554 206 530 155T467 67T378 10T270 -11Q215 -11 168 1T75 41L163 758L268 751L186 84Q209 76 233 73T280 70Q314 70 342
84T393 124T430 186T450 266Q455 308 451 341T434 398T398 432T345 440Q320 437 303 451T272 491Z" />
<glyph unicode="c" glyph-name="c" horiz-adv-x="451" d="M289 -11Q238 -11 195 6T122 57T79 141T73 259Q81 325 107 375T172 459T258 510T355 528Q382 528 413 523T474 507L439 433Q413 441 389 444T345 447Q317 447 291 435T244 400T207 341T186 259Q175 164
208 117T299 70Q320 70 347 76T410 98L428 24Q385 4 349 -3T289 -11Z" />
<glyph unicode="d" glyph-name="d" horiz-adv-x="592" d="M74 261Q81 319 106 367T167 450T247 504T335 524Q358 524 382 521T437 507Q420 479 397 462T341 444Q314 444 289 433T243 399T208 342T188 261Q183 220 187 185T203 125T238 85T291 70Q356 70 427 142L503
758L608 751L538 181Q531 124 529 82T532 5L452 0Q441 10 435 21T423 52V70L410 52Q372 17 333 3T263 -11Q210 -11 171 10T108 67T76 153T74 261Z" />
<glyph unicode="e" glyph-name="e" horiz-adv-x="525" d="M304 317H420Q427 344 424 368T409 410T380 438T337 449Q308 449 282 437T235 402T200 345T179 265Q174 221 181 185T205 124T249 84T309 70Q344 70 376 77T455 106L474 33Q420 7 373 -2T287 -11Q228 -11
185 11T114 70T77 158T73 264Q80 325 104 374T165 457T250 509T355 528Q407 528 446 505T505 444T526 354T501 246H213Q227 276 249 296T304 317Z" />
<glyph unicode="f" glyph-name="f" horiz-adv-x="404" d="M394 517H449L439 439H295Q309 469 332 493T394 517ZM159 439H74L81 496L169 517L172 545Q178 594 196 634T244 703T313 747T399 763Q424 763 455 758T520 736L487 667Q458 678 439 681T402 685Q380 685
359 677T320 653T290 611T273 552L206 0H106L159 439Z" />
<glyph unicode="g" glyph-name="g" horiz-adv-x="569" d="M71 251Q78 312 104 362T170 450T262 507T375 528Q417 528 459 521T557 496L497 0Q489 -60 466 -106T406 -185T322 -233T220 -250Q181 -250 135 -242T40 -208L77 -133Q120 -153 155 -161T222 -170Q253
-170 281 -161T332 -131T370 -82T391 -11L446 436Q424 442 405 444T367 447Q294 447 245 396T184 251Q179 214 182 181T197 123T230 86T284 78Q308 80 326 69T361 35Q334 18 306 7T255 -7Q210 -12 173 6T111 60T75 145T71 251Z" />
<glyph unicode="h" glyph-name="h" horiz-adv-x="575" d="M397 0L442 373Q447 405 437 425T399 446Q390 446 381 444T361 440T341 437T321 438Q307 440 295 450T274 477Q330 508 366 518T430 528Q458 528 482 520T524 493T548 443T551 367L506 0H397ZM180 0H74L167
758L273 751L180 0Z" />
<glyph unicode="i" glyph-name="i" horiz-adv-x="257" d="M143 667Q147 696 168 715T218 735Q247 735 263 716T276 667Q273 639 252 620T201 601Q173 601 157 620T143 667ZM183 0H74L137 517H246L183 0Z" />
<glyph unicode="j" glyph-name="j" horiz-adv-x="257" d="M246 517L188 42Q183 0 171 -36T134 -106T70 -174T-31 -248L-72 -189Q-29 -155 -2 -128T42 -76T67 -22T80 42L138 517H246ZM144 667Q148 696 168 715T218 735Q248 735 265 716T278 667Q275 638 253 620T201
601Q172 601 157 619T144 667Z" />
<glyph unicode="k" glyph-name="k" horiz-adv-x="574" d="M591 510L410 336L565 0H445L354 221L336 266L252 182Q246 218 257 260T300 337Q311 350 322 361T344 385L473 517L591 510ZM272 751L180 0H74L167 758L272 751Z" />
<glyph unicode="l" glyph-name="l" horiz-adv-x="253" d="M271 751L179 0H74L167 758L271 751Z" />
<glyph unicode="m" glyph-name="m" horiz-adv-x="895" d="M718 0L763 373Q768 405 756 425T713 446Q704 446 694 444T672 440T650 437T629 438Q613 440 601 451T579 478Q637 507 676 517T744 528Q772 528 797 520T841 493T867 443T871 367L826 0H718ZM397 0L442
373Q447 405 437 425T397 446Q377 446 357 440T317 439Q302 441 291 452T268 479Q326 508 363 518T429 528Q457 528 482 520T524 493T548 443T551 367L506 0H397ZM123 512L209 517Q230 490 234 464T234 407L185 0H76L123 386Q126 414 126 445T123 512Z" />
<glyph unicode="n" glyph-name="n" horiz-adv-x="580" d="M402 0L447 373Q452 405 440 425T399 446Q389 446 379 444T359 440T338 437T317 438Q302 440 291 451T269 477Q325 507 362 517T429 528Q457 528 482 520T526 493T552 443T556 367L511 0H402ZM122 512L208
517Q229 490 233 464T233 407L184 0H76L123 386Q129 444 122 512Z" />
<glyph unicode="o" glyph-name="o" horiz-adv-x="580" d="M185 259Q180 217 185 183T204 123T242 84T298 70Q332 70 359 85T407 126T439 186T456 259Q467 351 435 399T344 447Q315 447 289 435T242 399T206 340T185 259ZM72 259Q81 328 109 378T177 462T263 512T354
528Q412 528 455 508T527 451T566 366T570 259Q562 194 536 144T470 60T384 7T288 -11Q237 -11 194 6T121 58T78 143T72 259Z" />
<glyph unicode="p" glyph-name="p" horiz-adv-x="591" d="M580 256Q573 198 548 150T487 67T408 13T320 -7Q296 -7 272 -4T218 10Q235 38 258 55T313 73Q340 73 365 84T411 118T446 175T467 256Q472 297 468 332T451 392T416 432T363 447Q297 447 228 375L152
-241L47 -234L116 336Q123 393 124 435T123 512L202 517Q213 507 220 495T231 464V447L244 465Q282 500 321 514T391 528Q444 528 482 507T545 450T578 364T580 256Z" />
<glyph unicode="q" glyph-name="q" horiz-adv-x="569" d="M361 36Q334 18 306 7T255 -6Q210 -11 173 7T111 61T75 145T71 251Q78 312 104 362T170 450T262 507T376 528Q418 528 459 521T557 496L467 -241L364 -234L446 436Q424 442 405 444T367 447Q294 447 245
396T184 251Q179 214 182 181T197 124T230 86T284 78Q308 81 326 70T361 36Z" />
<glyph unicode="r" glyph-name="r" horiz-adv-x="375" d="M122 512L203 517Q215 503 219 483T226 439L224 419L235 439Q260 477 298 501T374 525Q398 525 427 516L403 428Q372 435 353 435Q329 435 306 425T263 393T229 341T209 266L177 0H76L117 340Q122 383
124 428T122 512Z" />
<glyph unicode="s" glyph-name="s" horiz-adv-x="427" d="M37 32L74 106Q112 87 148 79T217 71Q260 71 283 90T310 139Q313 165 297 182T256 213T201 240T147 273T108 319T98 388Q101 412 114 436T150 481T206 513T282 526Q312 526 346 521T422 500L387 428Q355
439 330 443T281 447Q249 447 227 433T200 389Q197 364 213 347T254 316T309 288T363 255T401 207T411 137Q407 106 390 80T346 33T288 2T222 -10Q203 -10 183 -9T140 -4T92 9T37 32Z" />
<glyph unicode="t" glyph-name="t" horiz-adv-x="413" d="M442 439H388Q369 439 356 445T333 463T319 488T310 517H452L442 439ZM134 193L164 439H74L81 494L174 517L190 646L294 679L233 185Q227 134 245 101T299 68Q317 68 335 71T382 83L397 12Q357 -1 334
-6T285 -12Q199 -12 161 41T134 193Z" />
<glyph unicode="u" glyph-name="u" horiz-adv-x="575" d="M239 517L193 144Q189 112 200 92T240 71Q255 71 273 76T310 81Q330 80 344 69T371 40Q315 10 277 0T210 -11Q181 -11 157 -3T115 24T89 74T87 150L132 517H239ZM516 5L432 0Q411 27 407 53T406 110L456
517H562L515 131Q507 74 516 5Z" />
<glyph unicode="v" glyph-name="v" horiz-adv-x="517" d="M315 0H202L71 517H185L273 98L283 125L462 517L569 510L315 0Z" />
<glyph unicode="w" glyph-name="w" horiz-adv-x="831" d="M639 0H524L405 517H519L596 98L774 517L880 510L639 0ZM389 160L303 0H193L73 517H187L264 98L274 125L388 355Q398 340 404 318T411 269T407 214T389 160Z" />
<glyph unicode="x" glyph-name="x" horiz-adv-x="499" d="M200 94L130 0H17L198 224Q207 212 213 197T220 164T218 129T200 94ZM483 0H364Q331 65 298 128T229 256L89 517H210L287 348L291 327L301 348L422 517L530 510L334 261L483 0Z" />
<glyph unicode="y" glyph-name="y" horiz-adv-x="527" d="M95 -166Q123 -166 144 -151T184 -109T220 -45T259 37L471 517L578 510L336 11Q308 -45 283 -92T230 -173T168 -227T85 -247Q42 -245 0 -230L35 -157Q66 -166 95 -166ZM185 517Q201 435 218 352T246 188Q249
163 246 137T236 88T219 44T196 11L72 517H185Z" />
<glyph unicode="z" glyph-name="z" horiz-adv-x="459" d="M112 442L121 517H478L473 473L204 126Q196 117 190 108T177 91L160 74L182 77H429L420 0H27L32 44L330 428L347 445L326 442H112Z" />
<glyph unicode="{" glyph-name="braceleft" horiz-adv-x="342" d="M126 191Q128 226 103 246T39 274L47 335Q86 342 117 362T156 418Q168 479 185 530T229 623T291 700T378 767L418 713Q380 684 353 655T306 592T273 522T251 439Q243 397 219 366T161 314L135
303L158 292Q184 272 200 245T216 183Q217 170 217 157T216 130Q216 89 220 55T236 -10T267 -67T316 -121L262 -176Q218 -144 190 -108T146 -27T126 70T126 191Z" />
<glyph unicode="|" glyph-name="bar" horiz-adv-x="253" d="M137 -293H44L179 811H272L137 -293Z" />
<glyph unicode="}" glyph-name="braceright" horiz-adv-x="342" d="M262 191Q250 124 233 71T189 -27T126 -107T37 -176L-3 -121Q32 -95 58 -68T103 -10T134 54T156 130Q163 158 170 181T187 224T214 261T256 293L282 303L258 314Q229 335 213 366T198 439Q200
484 197 521T182 592T151 654T98 713L153 767Q195 736 222 701T265 623T286 530T288 418Q287 400 294 387T313 363T341 345T377 335L369 274Q330 267 300 247T262 191Z" />
<glyph unicode="~" glyph-name="asciitilde" horiz-adv-x="617" d="M175 228L85 236Q98 311 145 348T256 386Q290 386 315 374T361 346T405 319T457 306Q480 306 495 327T519 384L609 376Q601 334 585 305T546 259T498 234T443 226Q406 226 381 238T334 266T292
294T244 307Q222 307 203 287T175 228Z" />
<glyph unicode="&#xa1;" glyph-name="exclamdown" horiz-adv-x="258" d="M119 466Q122 495 143 513T193 532Q222 532 238 514T252 466Q248 437 227 418T176 398Q147 398 131 417T119 466ZM158 -210H50L129 319H207L158 -210Z" />
<glyph unicode="&#xa2;" glyph-name="cent" horiz-adv-x="462" d="M436 119Q405 105 378 98T328 86L316 -14H236L248 88Q206 95 172 115T116 169T84 249T81 354Q88 411 109 457T162 536T232 589T313 618L325 716H405L394 622Q416 620 438 615T481 602L445 528Q420
536 397 539T353 542Q325 542 299 531T251 496T215 437T194 354Q188 307 194 272T216 213T255 177T307 165Q328 165 355 171T417 193L436 119Z" />
<glyph unicode="&#xa3;" glyph-name="sterling" horiz-adv-x="537" d="M477 316H405Q367 316 351 338T327 391H487L477 316ZM274 197Q263 169 248 149T213 106L190 87L215 89H480L470 0H37L44 65Q102 92 142 137T189 242Q191 260 192 278T192 316H96L106 391H191Q189
414 189 447T194 512Q200 560 221 597T273 660T345 699T429 712Q464 712 500 704T578 675L541 600Q506 617 473 624T419 631Q365 631 334 599T295 511Q289 466 289 425T290 346T289 271T274 197Z" />
<glyph unicode="&#xa4;" glyph-name="currency" horiz-adv-x="590" d="M352 481Q326 481 304 470T265 440T236 395T220 340Q216 306 223 280T244 237T277 210T316 201Q337 201 359 210T399 237T431 281T449 343Q452 369 447 393T430 437T399 469T352 481ZM360
544Q395 544 423 533T470 505L555 576L592 531L504 460Q516 440 522 410T524 344Q519 304 505 273T475 223L543 149L495 106L429 178Q406 158 374 148T309 137Q277 137 248 147T202 176L121 105L83 150L166 221Q154 240 147 271T144 340Q149 378 164 409T197 460L130
531L178 576L244 505Q266 522 296 533T360 544Z" />
<glyph unicode="&#xa5;" glyph-name="yen" horiz-adv-x="658" d="M454 518L596 727H716L459 376Q451 388 445 404T436 439T437 478T454 518ZM150 259L157 312H317V313L118 727H240L426 338L423 312H582L575 259H416L408 188H567L560 135H401L385 0H279L295 135H135L142
188H302L310 259H150Z" />
<glyph unicode="&#xa6;" glyph-name="brokenbar" horiz-adv-x="232" d="M127 -293H33L86 141H180L127 -293ZM210 387H116L168 811H262L210 387Z" />
<glyph unicode="&#xa7;" glyph-name="section" horiz-adv-x="507" d="M410 330Q412 349 401 363T370 388T325 410T272 432Q199 401 193 354Q190 334 202 319T236 292T285 269T341 246Q374 265 390 286T410 330ZM37 -9L77 62Q120 44 164 36T247 27Q303 27 333 45T367
96Q370 123 351 141T300 173T231 201T162 234T113 282T99 352Q102 380 123 408T182 456L209 466L189 475Q162 495 147 521T137 585Q140 610 156 634T199 678T262 708T341 720Q375 720 415 715T504 694L466 623Q429 634 399 638T343 643Q295 643 267 629T235 586Q232
559 252 541T303 509T372 480T440 446T490 397T503 325Q499 292 478 265T424 220L399 211L419 202Q443 182 457 156T466 93Q462 61 443 35T395 -11T329 -40T251 -51Q208 -51 154 -44T37 -9Z" />
<glyph unicode="&#xa8;" glyph-name="dieresis" horiz-adv-x="442" d="M334 670Q337 693 355 709T397 725Q420 725 434 709T446 670Q443 647 425 631T383 615Q360 615 346 631T334 670ZM140 670Q143 693 161 709T202 725Q225 725 239 709T251 670Q248 647 230
631T188 615Q165 615 151 631T140 670Z" />
<glyph unicode="&#xa9;" glyph-name="copyright" horiz-adv-x="752" d="M418 176Q384 176 356 188T308 223T279 279T275 357Q281 400 298 434T340 490T397 525T462 537Q502 537 544 523L519 470Q487 481 456 481Q418 481 387 449T348 357Q340 296 363 264T425
231Q439 231 457 235T501 250L513 199Q484 185 459 181T418 176ZM453 620Q398 620 350 601T264 546T202 463T170 354Q163 295 175 247T217 164T289 111T388 92Q442 91 489 110T574 163T635 247T667 357Q674 415 662 463T622 547T550 601T453 620ZM460 683Q532 683
589 658T683 588T737 485T745 357Q737 289 706 229T627 125T515 54T380 28Q307 28 250 53T155 123T101 227T92 357Q100 424 131 483T211 586T323 657T460 683Z" />
<glyph unicode="&#xaa;" glyph-name="ordfeminine" horiz-adv-x="403" d="M402 522L389 422Q384 380 384 351T386 302H330Q319 310 314 322T310 350L301 338Q273 313 249 304T197 295Q144 295 115 322T91 394Q94 420 106 440T144 474T207 499T301 515Q299 509
295 500T285 481T268 465T243 456Q201 449 187 434T169 399Q167 379 179 365T216 351Q239 351 264 362T312 400L327 527Q332 569 315 591T252 614Q215 614 168 597L157 647Q192 662 220 666T272 671Q342 671 376 632T402 522Z" />
<glyph unicode="&#xab;" glyph-name="guillemotleft" horiz-adv-x="584" d="M497 49L301 258L548 468L589 422L430 258L549 94L497 49ZM240 49L44 258L291 468L332 422L173 258L292 94L240 49Z" />
<glyph unicode="&#xac;" glyph-name="logicalnot" horiz-adv-x="627" d="M116 443H607L572 156H489L515 369H107L116 443Z" />
<glyph unicode="&#xad;" glyph-name="uni00AD" horiz-adv-x="418" d="M392 268H90L99 342H401L392 268Z" />
<glyph unicode="&#xae;" glyph-name="registered" horiz-adv-x="752" d="M563 431Q559 400 540 378T488 344Q506 333 514 317T526 281T533 237T545 189H473Q466 209 464 231T458 273T447 308T421 331H396Q403 345 414 360T448 379Q466 382 478 397T492 431Q495
453 479 468T433 483Q424 483 416 483T394 480L359 189H291L332 522Q361 529 387 532T439 536Q499 536 534 508T563 431ZM453 620Q398 620 350 601T264 546T202 463T170 354Q163 295 175 247T217 164T289 111T388 92Q442 91 489 110T574 163T635 247T667 357Q674
415 662 463T622 547T550 601T453 620ZM460 683Q532 683 589 658T683 588T737 485T745 357Q737 289 706 229T627 125T515 54T380 28Q307 28 250 53T155 123T101 227T92 357Q100 424 131 483T211 586T323 657T460 683Z" />
<glyph unicode="&#xaf;" glyph-name="overscore" horiz-adv-x="500" d="M482 610H188L197 680H491L482 610Z" />
<glyph unicode="&#xb0;" glyph-name="degree" horiz-adv-x="370" d="M112 623Q116 652 131 678T168 723T219 754T279 766Q306 766 331 757T375 729T404 684T410 623Q406 590 390 564T350 519T298 490T243 480Q213 480 188 490T144 520T117 565T112 623ZM272 710Q253
710 237 703T209 683T190 655T181 623Q176 588 194 563T250 537Q270 537 286 545T314 565T333 592T342 623Q347 664 326 687T272 710Z" />
<glyph unicode="&#xb1;" glyph-name="plusminus" horiz-adv-x="586" d="M527 0H59L67 73H535L527 0ZM95 298L104 372H296L317 540H400L379 372H572L563 298H370L349 128H266L287 298H95Z" />
<glyph unicode="&#xb2;" glyph-name="twosuperior" horiz-adv-x="350" d="M375 628Q370 592 348 560T297 498T238 440T185 381L175 371L188 373H347L340 310H78L82 349Q116 397 153 434T221 503T273 563T299 621Q303 651 285 664T236 678Q203 678 163 661L145
711Q174 726 201 731T252 736Q280 736 303 729T344 708T369 674T375 628Z" />
<glyph unicode="&#xb3;" glyph-name="threesuperior" horiz-adv-x="328" d="M356 639Q352 607 328 581T267 539Q283 535 298 526T325 504T341 472T344 431Q341 404 327 381T290 339T237 311T172 301Q138 301 113 310T73 329L98 380Q115 372 134 366T179 360Q218
360 241 382T269 433Q274 469 248 486T170 503V550L204 563Q230 574 250 587T276 623Q279 638 276 649Q273 661 262 668T231 676Q214 676 195 672T154 660L136 710Q165 725 192 730T244 735Q299 735 330 710T356 639Z" />
<glyph unicode="&#xb4;" glyph-name="acute" horiz-adv-x="322" d="M352 740L254 635Q228 607 195 601T138 602L243 740H352Z" />
<glyph unicode="&#xb5;" glyph-name="mu" horiz-adv-x="614" d="M425 81L412 58Q389 31 356 11T274 -10Q249 -10 227 -2T191 22L180 42Q178 34 178 28T177 13L150 -211H54L143 517H245L207 210Q200 151 221 112T293 72Q316 72 338 82T379 109T411 149T427 199L466
517H569L524 148Q519 106 528 89T570 74L571 4Q554 -3 538 -5T511 -8Q482 -8 459 7T428 59L425 81Z" />
<glyph unicode="&#xb6;" glyph-name="paragraph" horiz-adv-x="577" d="M251 -30L292 304Q290 305 290 305Q245 309 208 325T144 370T104 436T97 520Q103 563 124 603T180 673T264 722T373 740Q400 740 424 739T471 736T518 730T569 720L477 -30H404L488 658Q466
662 447 663T409 666L324 -30H251Z" />
<glyph unicode="&#xb7;" glyph-name="middot" horiz-adv-x="253" d="M97 304Q100 333 121 352T171 372Q200 372 216 353T230 304Q226 276 205 257T155 238Q126 238 110 257T97 304Z" />
<glyph unicode="&#xb8;" glyph-name="cedilla" horiz-adv-x="500" d="M230 -2L284 2L265 -48Q279 -50 293 -56T317 -71T332 -94T336 -123Q333 -146 321 -162T290 -188T251 -203T208 -208Q191 -208 172 -204T130 -189L152 -142Q170 -150 184 -152T214 -155Q231
-155 248 -149T267 -126Q269 -108 251 -99T198 -86L230 -2Z" />
<glyph unicode="&#xb9;" glyph-name="onesuperior" horiz-adv-x="235" d="M213 309H136L177 636L112 605L89 657L228 727H265L213 309Z" />
<glyph unicode="&#xba;" glyph-name="ordmasculine" horiz-adv-x="424" d="M178 483Q170 421 191 387T255 353Q278 353 297 363T330 392T353 433T365 483Q368 508 366 531T354 573T329 602T287 613Q264 613 245 603T212 574T190 533T178 483ZM248 294Q170 294
129 344T99 483Q104 522 120 556T161 615T219 656T294 671Q331 671 361 659T411 622T440 563T443 483Q438 441 422 407T380 347T321 308T248 294Z" />
<glyph unicode="&#xbb;" glyph-name="guillemotright" horiz-adv-x="584" d="M602 258L356 49L314 94L472 258L354 422L407 468L602 258ZM345 258L99 49L57 94L216 258L97 422L150 468L345 258Z" />
<glyph unicode="&#xbc;" glyph-name="onequarter" horiz-adv-x="709" d="M368 144L589 423H668L634 145H682L675 87H627L617 0H547L583 299L589 327L570 302L455 162L440 145L468 146Q482 146 492 140T510 126T521 107T529 87H361L368 144ZM238 309H161L202 636L137
605L114 657L253 727H290L238 309ZM164 0H88L613 727H689L164 0Z" />
<glyph unicode="&#xbd;" glyph-name="onehalf" horiz-adv-x="740" d="M728 318Q723 282 702 250T651 189T591 131T538 72L528 61L542 63H700L693 0H431L435 39Q469 87 506 124T574 193T626 253T652 311Q656 341 638 354T589 368Q556 368 516 351L498 401Q527 416
554 421T605 426Q633 426 656 419T697 398T722 364T728 318ZM238 309H161L202 636L137 605L114 657L253 727H290L238 309ZM164 0H88L613 727H689L164 0Z" />
<glyph unicode="&#xbe;" glyph-name="threequarters" horiz-adv-x="747" d="M359 639Q355 607 331 581T270 539Q286 535 301 526T328 504T344 472T347 431Q344 404 330 381T293 339T240 311T175 301Q142 301 116 310T76 329L101 380Q118 372 137 366T182 360Q221
360 244 382T272 433Q277 469 251 486T174 503L173 550L207 563Q233 574 253 587T279 623Q283 636 279 649Q276 661 265 668T234 676Q217 676 198 672T157 660L139 710Q169 725 195 730T247 735Q302 735 333 710T359 639ZM412 144L633 423H711L677 145H725L718
87H670L660 0H591L630 322L486 146H511Q525 146 535 140T553 126T565 107T573 87H405L412 144ZM207 0H132L657 727H732L207 0Z" />
<glyph unicode="&#xbf;" glyph-name="questiondown" horiz-adv-x="447" d="M406 466Q402 437 381 418T330 398Q301 398 285 417T272 466Q275 494 296 512T347 531Q376 531 392 513T406 466ZM221 -220Q176 -220 140 -209T80 -177T44 -129T36 -67Q41 -27 59 5T103
66T156 122T210 179T254 243T278 319H363Q356 267 339 228T300 158T252 102T206 53T169 4T149 -52Q144 -90 169 -114T241 -139Q270 -139 302 -133T380 -104L399 -179Q346 -204 305 -212T221 -220Z" />
<glyph unicode="&#xc0;" glyph-name="Agrave" horiz-adv-x="634" d="M363 797L305 890H411L470 766Q456 763 441 763T411 765T384 776T363 797ZM353 727H459L632 0H517L386 597L234 269L220 249L233 251H351Q370 251 383 244T406 226T421 200T430 170H188L110
0H2L353 727Z" />
<glyph unicode="&#xc1;" glyph-name="Aacute" horiz-adv-x="634" d="M568 890L473 797Q447 771 414 765T358 766L461 890H568ZM353 727H460L632 0H517L386 597L235 269L220 249L233 251H351Q370 251 383 244T406 226T421 200T430 170H189L111 0H2L353 727Z" />
<glyph unicode="&#xc2;" glyph-name="Acircumflex" horiz-adv-x="634" d="M387 890H458L553 771L491 760L413 818L321 760L264 771L387 890ZM353 727H459L632 0H517L386 597L234 269L220 249L233 251H351Q370 251 383 244T406 226T421 200T430 170H188L110 0H2L353 727Z" />
<glyph unicode="&#xc3;" glyph-name="Atilde" horiz-adv-x="634" d="M327 777L267 783Q275 839 305 866T372 894Q394 894 408 886T435 867T458 848T484 839Q498 839 507 853T521 893L579 887Q574 855 563 834T538 800T509 782T479 776Q455 776 440 784T413 803T392
822T369 831Q357 831 345 819T327 777ZM353 727H459L632 0H517L386 597L234 269L220 249L233 251H351Q370 251 383 244T406 226T421 200T430 170H188L110 0H2L353 727Z" />
<glyph unicode="&#xc4;" glyph-name="Adieresis" horiz-adv-x="634" d="M461 840Q463 863 481 879T523 895Q546 895 560 879T572 840Q569 817 551 801T510 785Q487 785 473 801T461 840ZM267 840Q269 863 287 879T328 895Q351 895 365 879T378 840Q375 817 357
801T315 785Q292 785 278 801T267 840ZM353 727H459L632 0H517L386 597L234 269L220 249L233 251H351Q370 251 383 244T406 226T421 200T430 170H188L110 0H2L353 727Z" />
<glyph unicode="&#xc5;" glyph-name="Aring" horiz-adv-x="630" d="M405 754Q427 754 441 768T457 802Q459 822 449 836T417 850Q397 850 383 836T367 800Q365 783 375 769T405 754ZM109 0H0L348 724Q327 735 317 754T310 800Q315 840 346 866T423 892Q468 892
492 867T512 801Q509 776 494 756T458 725L630 0H515Q485 137 455 270T396 540L384 596L358 539Q326 471 296 404T233 269L218 249L231 251H349Q368 251 381 244T404 226T419 200T428 170H187L109 0Z" />
<glyph unicode="&#xc6;" glyph-name="AE" horiz-adv-x="909" d="M717 421H871L861 342H616Q623 357 632 371T653 397T681 414T717 421ZM491 0L473 536Q472 549 472 562T472 590L474 629L455 590L257 269L239 249L258 251H368Q387 251 400 244T423 226T439 200T448
170H196L92 0H-19L440 727H899L889 646H573L589 81H889L880 0H491Z" />
<glyph unicode="&#xc7;" glyph-name="Ccedilla" horiz-adv-x="623" d="M413 -12Q404 -12 395 -12T378 -10L364 -48Q378 -50 392 -56T416 -71T431 -94T435 -123Q432 -146 420 -162T389 -188T350 -203T307 -208Q290 -208 271 -204T229 -189L251 -142Q269 -150 283
-152T313 -155Q330 -155 347 -149T366 -126Q368 -108 350 -99T297 -86L328 -4Q266 9 218 40T138 119T94 229T90 363Q100 445 136 514T227 633T353 712T505 740Q591 740 678 706L640 633Q598 647 564 652T495 658Q441 658 393 638T306 580T242 487T207 363Q199 295
211 241T253 149T325 90T423 69Q458 69 495 78T576 107L596 34Q547 10 501 -1T413 -12Z" />
<glyph unicode="&#xc8;" glyph-name="Egrave" horiz-adv-x="571" d="M357 797L299 890H405L464 766Q450 763 435 763T405 765T378 776T357 797ZM379 421H528L518 342H279Q286 357 295 371T316 396T344 414T379 421ZM91 0L180 727H600L590 646H279L209 81H535L526 0H91Z" />
<glyph unicode="&#xc9;" glyph-name="Eacute" horiz-adv-x="571" d="M557 890L462 797Q436 771 403 765T347 766L450 890H557ZM379 421H528L518 342H279Q286 357 295 371T316 396T344 414T379 421ZM91 0L180 727H600L590 646H279L209 81H535L526 0H91Z" />
<glyph unicode="&#xca;" glyph-name="Ecircumflex" horiz-adv-x="571" d="M384 890H455L550 771L488 760L410 818L318 760L261 771L384 890ZM379 421H528L518 342H279Q286 357 295 371T316 396T344 414T379 421ZM91 0L180 727H600L590 646H279L209 81H535L526 0H91Z" />
<glyph unicode="&#xcb;" glyph-name="Edieresis" horiz-adv-x="571" d="M453 840Q455 863 473 879T515 895Q538 895 552 879T564 840Q561 817 543 801T502 785Q479 785 465 801T453 840ZM259 840Q261 863 279 879T320 895Q343 895 357 879T370 840Q367 817 349
801T307 785Q284 785 270 801T259 840ZM379 421H528L518 342H279Q286 357 295 371T316 396T344 414T379 421ZM91 0L180 727H600L590 646H279L209 81H535L526 0H91Z" />
<glyph unicode="&#xcc;" glyph-name="Igrave" horiz-adv-x="287" d="M187 797L130 890H235L294 766Q267 759 236 765T187 797ZM285 727L196 0H91L180 727H285Z" />
<glyph unicode="&#xcd;" glyph-name="Iacute" horiz-adv-x="288" d="M393 890L298 797Q272 771 239 765T182 766L285 890H393ZM286 727L197 0H91L180 727H286Z" />
<glyph unicode="&#xce;" glyph-name="Icircumflex" horiz-adv-x="288" d="M218 890H289L384 771L322 760L244 818L152 760L95 771L218 890ZM286 727L197 0H91L180 727H286Z" />
<glyph unicode="&#xcf;" glyph-name="Idieresis" horiz-adv-x="287" d="M288 840Q290 863 308 879T350 895Q373 895 387 879T399 840Q396 817 378 801T337 785Q314 785 300 801T288 840ZM94 840Q96 863 114 879T155 895Q178 895 192 879T205 840Q202 817 184 801T142
785Q119 785 105 801T94 840ZM285 727L196 0H91L180 727H285Z" />
<glyph unicode="&#xd0;" glyph-name="Eth" horiz-adv-x="756" d="M52 319L61 392H143L182 715Q236 728 294 734T397 740Q494 740 566 714T683 638T747 520T756 365Q746 284 711 215T625 96T508 17T373 -12Q341 -12 313 -9T242 5Q259 31 285 51T346 70Q357 69 363
69T378 69Q429 69 473 93T552 158T610 252T640 365Q649 434 638 488T596 580T512 638T387 658Q360 658 334 656T282 651L251 392H471L462 319H242L203 0H95L134 319H52Z" />
<glyph unicode="&#xd1;" glyph-name="Ntilde" horiz-adv-x="736" d="M377 777L317 783Q325 839 355 866T422 894Q444 894 458 886T485 867T508 848T534 839Q548 839 557 853T571 893L629 887Q624 855 613 834T588 800T559 782T529 776Q505 776 490 784T463 803T442
822T419 831Q407 831 395 819T377 777ZM548 0Q476 141 406 280T264 561L255 595L252 561L184 0H91L180 727H288L532 242Q540 228 546 213T561 184L569 151L571 186L638 727H734L645 0H548Z" />
<glyph unicode="&#xd2;" glyph-name="Ograve" horiz-adv-x="780" d="M406 797L348 890H454L513 766Q499 763 484 763T454 765T426 776T406 797ZM662 364Q670 430 660 484T625 578T560 638T471 660Q422 660 378 639T298 578T239 485T207 364Q199 298 209 244T245
150T310 89T398 67Q447 67 491 89T571 150T630 243T662 364ZM778 364Q767 278 732 209T644 90T525 13T388 -14Q314 -14 254 12T154 88T97 207T90 364Q100 449 135 519T224 638T343 715T481 742Q556 742 616 716T715 640T772 521T778 364Z" />
<glyph unicode="&#xd3;" glyph-name="Oacute" horiz-adv-x="780" d="M653 890L558 797Q532 771 499 765T443 766L546 890H653ZM661 364Q669 430 659 484T624 578T559 638T471 660Q421 660 377 639T297 578T238 485T206 364Q198 298 208 244T245 150T310 89T398
67Q447 67 491 89T571 150T629 243T661 364ZM778 364Q767 278 732 209T644 90T525 13T388 -14Q313 -14 253 12T153 88T96 207T89 364Q99 449 135 519T223 638T342 715T481 742Q556 742 615 716T715 640T772 521T778 364Z" />
<glyph unicode="&#xd4;" glyph-name="Ocircumflex" horiz-adv-x="780" d="M465 890H536L631 771L569 760L491 818L399 760L342 771L465 890ZM661 364Q669 430 659 484T624 578T559 638T471 660Q421 660 377 639T297 578T238 485T206 364Q198 298 208 244T245 150T310
89T398 67Q447 67 491 89T571 150T629 243T661 364ZM778 364Q767 278 732 209T644 90T525 13T388 -14Q313 -14 253 12T153 88T96 207T89 364Q99 449 135 519T223 638T342 715T481 742Q556 742 615 716T715 640T772 521T778 364Z" />
<glyph unicode="&#xd5;" glyph-name="Otilde" horiz-adv-x="780" d="M401 777L341 783Q349 839 379 866T446 894Q468 894 482 886T509 867T532 848T558 839Q572 839 581 853T595 893L653 887Q648 855 637 834T612 800T583 782T553 776Q529 776 514 784T487 803T466
822T443 831Q431 831 419 819T401 777ZM662 364Q670 430 660 484T625 578T560 638T471 660Q421 660 377 639T297 578T238 485T206 364Q198 298 208 244T245 150T310 89T398 67Q447 67 491 89T571 150T630 243T662 364ZM778 364Q767 278 732 209T644 90T525 13T388
-14Q314 -14 254 12T154 88T97 207T90 364Q100 449 135 519T224 638T343 715T481 742Q556 742 615 716T715 640T772 521T778 364Z" />
<glyph unicode="&#xd6;" glyph-name="Odieresis" horiz-adv-x="780" d="M536 840Q538 863 556 879T598 895Q621 895 635 879T647 840Q644 817 626 801T585 785Q562 785 548 801T536 840ZM342 840Q344 863 362 879T403 895Q426 895 440 879T453 840Q450 817 432
801T390 785Q367 785 353 801T342 840ZM662 364Q670 430 660 484T625 578T560 638T471 660Q421 660 377 639T297 578T238 485T206 364Q198 298 208 244T245 150T310 89T398 67Q447 67 491 89T571 150T630 243T662 364ZM778 364Q767 278 732 209T644 90T525 13T388
-14Q314 -14 254 12T154 88T97 207T90 364Q100 449 135 519T224 638T343 715T481 742Q556 742 615 716T715 640T772 521T778 364Z" />
<glyph unicode="&#xd7;" glyph-name="multiply" horiz-adv-x="559" d="M112 75L65 128L263 306L109 482L169 535L325 360L521 535L568 482L372 306L526 128L467 75L311 251L112 75Z" />
<glyph unicode="&#xd8;" glyph-name="Oslash" horiz-adv-x="780" d="M665 364Q673 429 663 482T627 574L314 136Q298 159 292 191T306 256L576 630Q554 645 528 653T472 662Q422 662 378 640T298 579T238 485T205 364Q197 298 208 244T245 150T310 88T399 66Q448
66 493 88T573 149T633 243T665 364ZM780 789L692 665Q744 615 767 539T779 364Q768 278 733 209T645 90T526 13T389 -14Q305 -14 239 20L183 -60H92L179 62Q126 111 103 187T91 364Q101 449 136 519T225 638T344 715T482 742Q566 742 630 707L689 789H780Z" />
<glyph unicode="&#xd9;" glyph-name="Ugrave" horiz-adv-x="715" d="M393 797L336 890H441L500 766Q473 759 442 765T393 797ZM356 -14Q291 -14 243 6T163 63T120 152T116 271L172 727H280L222 255Q211 168 251 118T366 67Q403 67 436 80T494 117T535 177T557
255L615 727H722L666 271Q658 207 632 155T565 65T471 7T356 -14Z" />
<glyph unicode="&#xda;" glyph-name="Uacute" horiz-adv-x="715" d="M616 890L521 797Q495 771 462 765T406 766L509 890H616ZM356 -14Q291 -14 243 6T163 63T120 152T116 271L172 727H279L221 255Q216 212 224 177T251 118T299 80T366 67Q403 67 436 80T494 117T535
177T557 255L615 727H722L666 271Q658 207 632 155T565 65T471 7T356 -14Z" />
<glyph unicode="&#xdb;" glyph-name="Ucircumflex" horiz-adv-x="715" d="M431 890H502L597 771L535 760L457 818L365 760L308 771L431 890ZM356 -14Q291 -14 243 6T163 63T120 152T116 271L172 727H279L221 255Q216 212 224 177T251 118T299 80T366 67Q403 67
436 80T494 117T535 177T557 255L615 727H722L666 271Q658 207 632 155T565 65T471 7T356 -14Z" />
<glyph unicode="&#xdc;" glyph-name="Udieresis" horiz-adv-x="716" d="M504 840Q506 863 524 879T566 895Q589 895 603 879T615 840Q612 817 594 801T553 785Q530 785 516 801T504 840ZM310 840Q312 863 330 879T371 895Q394 895 408 879T421 840Q418 817 400
801T358 785Q335 785 321 801T310 840ZM357 -14Q292 -14 243 6T163 63T120 152T116 271L172 727H280L222 255Q217 212 225 177T252 118T300 80T367 67Q404 67 436 80T494 117T535 177T557 255L615 727H723L667 271Q659 207 633 155T566 65T472 7T357 -14Z" />
<glyph unicode="&#xdd;" glyph-name="Yacute" horiz-adv-x="590" d="M576 890L481 797Q455 771 422 765T366 766L469 890H576ZM421 518L564 727H683L427 376Q419 388 412 404T403 439T404 478T421 518ZM207 727L393 338L352 0H246L284 313L85 727H207Z" />
<glyph unicode="&#xde;" glyph-name="Thorn" horiz-adv-x="591" d="M613 363Q607 314 583 275T522 209T442 165T352 144Q330 142 305 143T253 153Q268 179 292 200T349 222Q373 223 398 233T444 263T479 307T498 363Q502 393 493 419T466 464T420 494T360 505Q332
505 308 504T257 499L196 0H91L180 727H285L267 582Q292 584 317 585T370 587Q430 587 478 570T558 523T604 452T613 363Z" />
<glyph unicode="&#xdf;" glyph-name="germandbls" horiz-adv-x="569" d="M242 25L277 95Q309 81 335 75T381 69Q410 69 432 88T458 138Q461 163 451 182T423 217T386 250T348 287T322 335T317 401Q322 445 356 482T447 542Q456 565 459 588Q462 609 456 627T438
658T410 678T374 686Q353 686 331 679T291 655T260 614T243 555L175 0H74L140 545Q146 596 166 636T217 705T287 748T373 763Q419 763 453 749T510 712T541 656T546 588Q542 562 531 537T497 482Q461 466 441 448T417 401Q414 376 424 358T452 323T490 290T527
252T553 203T558 134Q554 103 538 76T498 30T444 -1T382 -12Q352 -12 320 -6T242 25Z" />
<glyph unicode="&#xe0;" glyph-name="agrave" horiz-adv-x="572" d="M446 436Q424 442 405 444T367 447Q294 447 245 396T184 251Q179 214 182 181T196 124T229 87T283 79Q328 85 360 37Q333 19 305 8T254 -5Q209 -11 172 7T111 61T75 145T71 251Q78 312 104 362T170
450T262 507T376 528Q418 528 459 521T557 496L517 181Q510 124 508 82T511 5L432 0Q421 10 411 37T405 103L446 436ZM320 636L262 740H369L425 602Q399 596 369 602T320 636Z" />
<glyph unicode="&#xe1;" glyph-name="aacute" horiz-adv-x="572" d="M446 436Q424 442 405 444T367 447Q294 447 245 396T184 251Q179 214 182 181T196 124T229 87T283 79Q328 85 360 37Q333 19 305 8T254 -5Q209 -11 172 7T111 61T75 145T71 251Q78 312 104 362T170
450T262 507T376 528Q418 528 459 521T557 496L517 181Q510 124 508 82T511 5L432 0Q421 10 411 37T405 103L446 436ZM533 740L435 635Q409 607 376 601T319 602L424 740H533Z" />
<glyph unicode="&#xe2;" glyph-name="acircumflex" horiz-adv-x="572" d="M446 436Q424 442 405 444T367 447Q294 447 245 396T184 251Q179 214 182 181T196 124T229 87T283 79Q328 85 360 37Q333 19 305 8T254 -5Q209 -11 172 7T111 61T75 145T71 251Q78 312
104 362T170 450T262 507T376 528Q418 528 459 521T557 496L517 181Q510 124 508 82T511 5L432 0Q421 10 411 37T405 103L446 436ZM368 743H439L531 599L469 589L394 669L299 588L242 599L368 743Z" />
<glyph unicode="&#xe3;" glyph-name="atilde" horiz-adv-x="572" d="M446 436Q424 442 405 444T367 447Q294 447 245 396T184 251Q179 214 182 181T196 124T229 87T283 79Q328 85 360 37Q333 19 305 8T254 -5Q209 -11 172 7T111 61T75 145T71 251Q78 312 104 362T170
450T262 507T376 528Q418 528 459 521T557 496L517 181Q510 124 508 82T511 5L432 0Q421 10 411 37T405 103L446 436ZM283 618L223 624Q231 680 262 707T329 735Q351 735 365 727T391 708T414 689T440 680Q454 680 463 694T478 734L536 728Q531 696 520 675T495
641T465 623T435 617Q411 617 396 625T369 644T348 663T325 672Q313 672 301 660T283 618Z" />
<glyph unicode="&#xe4;" glyph-name="adieresis" horiz-adv-x="572" d="M446 436Q424 442 405 444T367 447Q294 447 245 396T184 251Q179 214 182 181T196 124T229 87T283 79Q328 85 360 37Q333 19 305 8T254 -5Q209 -11 172 7T111 61T75 145T71 251Q78 312 104
362T170 450T262 507T376 528Q418 528 459 521T557 496L517 181Q510 124 508 82T511 5L432 0Q421 10 411 37T405 103L446 436ZM422 670Q425 693 443 709T485 725Q508 725 522 709T533 670Q530 647 512 631T471 615Q448 615 434 631T422 670ZM228 670Q231 693 249
709T290 725Q313 725 327 709T339 670Q336 647 318 631T276 615Q253 615 239 631T228 670Z" />
<glyph unicode="&#xe5;" glyph-name="aring" horiz-adv-x="572" d="M446 436Q424 442 405 444T367 447Q294 447 245 396T184 251Q179 214 182 181T196 124T229 87T283 79Q328 85 360 37Q333 19 305 8T254 -5Q209 -11 172 7T111 61T75 145T71 251Q78 312 104 362T170
450T262 507T376 528Q418 528 459 521T557 496L517 181Q510 124 508 82T511 5L432 0Q421 10 411 37T405 103L446 436ZM390 610Q412 610 426 624T442 658Q445 678 435 692T402 706Q382 706 369 692T352 656Q350 639 360 625T390 610ZM385 568Q340 568 315 593T295
656Q300 696 331 722T408 748Q453 748 477 723T497 657Q492 618 460 593T385 568Z" />
<glyph unicode="&#xe6;" glyph-name="ae" horiz-adv-x="826" d="M606 317H722Q729 344 726 368T711 410T681 438T638 449Q610 449 584 437T537 402T502 345T481 265Q476 221 483 185T507 124T550 84T610 70Q645 70 677 77T756 106L775 33Q721 7 675 -2T589 -11Q557
-11 528 0T475 30T436 74T413 128Q381 61 323 25T200 -11Q161 -11 131 -1T80 29T51 75T46 134Q50 170 68 198T121 248T210 283T344 305Q341 295 336 284T323 261T302 241T273 228Q242 218 221 210T187 193T166 172T157 142Q153 113 171 92T224 70Q284 70 324 121T375
263L382 318Q389 375 364 410T275 446Q249 446 222 441T156 423L139 492Q189 513 230 520T305 527Q360 527 400 498T457 419Q473 443 495 463T544 497T599 520T657 528Q709 528 748 505T807 444T827 354T802 246H515Q529 276 551 296T606 317Z" />
<glyph unicode="&#xe7;" glyph-name="ccedilla" horiz-adv-x="451" d="M289 -11H286L272 -48Q286 -50 300 -56T324 -71T339 -94T343 -123Q340 -146 328 -162T297 -188T258 -203T215 -208Q198 -208 179 -204T137 -189L159 -142Q177 -150 191 -152T221 -155Q238
-155 255 -149T274 -126Q276 -108 258 -99T205 -86L236 -6Q195 2 162 22T107 76T75 155T73 259Q81 325 107 375T172 459T258 510T355 528Q382 528 413 523T474 507L438 433Q412 441 389 444T345 447Q317 447 291 435T244 400T207 341T186 259Q175 164 208 117T299
70Q320 70 347 76T410 98L428 24Q385 4 350 -3T289 -11Z" />
<glyph unicode="&#xe8;" glyph-name="egrave" horiz-adv-x="525" d="M289 636L231 740H338L394 602Q368 596 338 602T289 636ZM305 317H421Q428 344 425 368T410 410T380 438T337 449Q309 449 283 437T236 402T201 345T180 265Q175 221 182 185T206 124T249 84T309
70Q344 70 376 77T455 106L474 33Q420 7 374 -2T288 -11Q229 -11 186 11T115 70T78 158T74 264Q81 325 105 374T166 457T251 509T356 528Q408 528 447 505T506 444T526 354T501 246H214Q228 276 250 296T305 317Z" />
<glyph unicode="&#xe9;" glyph-name="eacute" horiz-adv-x="525" d="M518 740L420 635Q394 607 361 601T304 602L409 740H518ZM305 317H421Q428 344 425 368T410 410T380 438T337 449Q309 449 283 437T236 402T200 345T179 265Q174 221 181 185T205 124T249 84T309
70Q344 70 376 77T455 106L474 33Q420 7 374 -2T288 -11Q229 -11 185 11T114 70T77 158T73 264Q80 325 104 374T166 457T251 509T355 528Q407 528 446 505T505 444T526 354T501 246H214Q228 276 250 296T305 317Z" />
<glyph unicode="&#xea;" glyph-name="ecircumflex" horiz-adv-x="525" d="M339 743H410L502 599L440 589L365 669L270 588L213 599L339 743ZM305 317H421Q427 344 424 368T410 410T380 438T337 449Q308 449 282 437T235 402T200 345T179 265Q174 221 181 185T205
124T249 84T309 70Q344 70 376 77T455 106L474 33Q420 7 373 -2T287 -11Q228 -11 185 11T114 70T77 158T73 264Q80 325 104 374T166 457T251 509T355 528Q407 528 446 505T505 444T526 354T501 246H214Q228 276 250 296T305 317Z" />
<glyph unicode="&#xeb;" glyph-name="edieresis" horiz-adv-x="525" d="M401 670Q404 693 422 709T464 725Q487 725 501 709T512 670Q509 647 491 631T450 615Q427 615 413 631T401 670ZM207 670Q210 693 228 709T269 725Q292 725 306 709T318 670Q315 647 297
631T255 615Q232 615 218 631T207 670ZM305 317H421Q428 344 425 368T410 410T380 438T337 449Q309 449 283 437T236 402T201 345T180 265Q175 221 182 185T206 124T249 84T309 70Q344 70 376 77T455 106L474 33Q420 7 374 -2T288 -11Q229 -11 186 11T115 70T78
158T74 264Q81 325 105 374T166 457T251 509T356 528Q408 528 447 505T506 444T526 354T501 246H214Q228 276 250 296T305 317Z" />
<glyph unicode="&#xec;" glyph-name="igrave" horiz-adv-x="257" d="M131 636L73 740H180L236 602Q210 596 180 602T131 636ZM183 0H74L137 517H246L183 0Z" />
<glyph unicode="&#xed;" glyph-name="iacute" horiz-adv-x="256" d="M364 740L266 635Q240 607 207 601T150 602L255 740H364ZM182 0H74L137 517H245L182 0Z" />
<glyph unicode="&#xee;" glyph-name="icircumflex" horiz-adv-x="256" d="M184 743H255L347 599L285 589L210 669L115 588L58 599L184 743ZM182 0H74L137 517H245L182 0Z" />
<glyph unicode="&#xef;" glyph-name="idieresis" horiz-adv-x="257" d="M251 670Q254 693 272 709T313 725Q336 725 350 709T362 670Q359 647 341 631T299 615Q276 615 262 631T251 670ZM57 670Q60 693 78 709T119 725Q142 725 157 709T169 670Q166 647 147 631T105
615Q83 615 69 631T57 670ZM183 0H74L137 517H246L183 0Z" />
<glyph unicode="&#xf0;" glyph-name="eth" horiz-adv-x="586" d="M457 259Q468 351 435 399T344 447Q315 447 289 435T242 399T207 340T186 259Q175 166 207 118T298 70Q327 70 353 82T401 118T436 177T457 259ZM570 259Q562 196 536 146T472 61T387 8T288 -11Q236
-11 193 7T121 59T78 144T72 259Q80 322 106 371T170 456T255 509T354 528Q379 528 401 521T451 497Q427 531 401 561T354 609L225 551L210 598L309 644Q289 659 267 672T221 697L264 761Q298 744 331 725T394 682L513 735L530 687L438 645Q460 624 487 587T535
499T567 388T570 259Z" />
<glyph unicode="&#xf1;" glyph-name="ntilde" horiz-adv-x="580" d="M279 618L219 624Q227 680 258 707T325 735Q347 735 361 727T387 708T410 689T436 680Q450 680 459 694T474 734L532 728Q527 696 516 675T491 641T461 623T431 617Q407 617 392 625T365 644T344
663T321 672Q309 672 297 660T279 618ZM402 0L447 373Q452 405 440 425T399 446Q389 446 379 444T359 440T338 437T317 438Q301 440 290 451T269 477Q325 507 362 517T429 528Q457 528 482 520T526 493T552 443T556 367L511 0H402ZM122 512L208 517Q229 490 233
464T233 407L184 0H76L123 386Q129 444 122 512Z" />
<glyph unicode="&#xf2;" glyph-name="ograve" horiz-adv-x="580" d="M306 636L249 740H355L411 602Q385 596 355 602T306 636ZM456 259Q467 351 435 399T344 447Q315 447 289 435T241 399T206 340T185 259Q174 166 207 118T298 70Q327 70 353 82T400 118T435 177T456
259ZM570 259Q562 196 536 146T472 61T387 8T288 -11Q236 -11 193 7T120 59T78 144T72 259Q80 322 106 371T170 456T255 509T354 528Q406 528 449 510T521 458T564 373T570 259Z" />
<glyph unicode="&#xf3;" glyph-name="oacute" horiz-adv-x="580" d="M526 740L428 635Q402 607 369 601T312 602L417 740H526ZM456 259Q467 351 435 399T344 447Q315 447 289 435T241 399T206 340T185 259Q174 166 207 118T298 70Q327 70 353 82T400 118T435 177T456
259ZM570 259Q562 196 536 146T472 61T387 8T288 -11Q236 -11 193 7T120 59T78 144T72 259Q80 322 106 371T170 456T255 509T354 528Q406 528 449 510T521 458T564 373T570 259Z" />
<glyph unicode="&#xf4;" glyph-name="ocircumflex" horiz-adv-x="580" d="M346 743H416L508 599L447 589L372 669L277 588L220 599L346 743ZM456 259Q467 351 435 399T344 447Q315 447 289 435T241 399T206 340T185 259Q174 166 207 118T298 70Q327 70 353 82T400
118T435 177T456 259ZM570 259Q562 196 536 146T472 61T387 8T288 -11Q236 -11 193 7T120 59T78 144T72 259Q80 322 106 371T170 456T255 509T354 528Q406 528 449 510T521 458T564 373T570 259Z" />
<glyph unicode="&#xf5;" glyph-name="otilde" horiz-adv-x="580" d="M277 618L217 624Q225 680 256 707T323 735Q345 735 359 727T385 708T408 689T434 680Q448 680 457 694T472 734L530 728Q525 696 514 675T489 641T459 623T429 617Q405 617 390 625T363 644T342
663T319 672Q307 672 295 660T277 618ZM456 259Q467 351 435 399T344 447Q315 447 289 435T241 399T206 340T185 259Q174 166 207 118T298 70Q327 70 353 82T400 118T435 177T456 259ZM570 259Q562 196 536 146T472 61T387 8T288 -11Q236 -11 193 7T120 59T78 144T72
259Q80 322 106 371T170 456T255 509T354 528Q406 528 449 510T521 458T564 373T570 259Z" />
<glyph unicode="&#xf6;" glyph-name="odieresis" horiz-adv-x="580" d="M413 670Q416 693 434 709T476 725Q499 725 513 709T524 670Q521 647 503 631T462 615Q439 615 425 631T413 670ZM219 670Q222 693 240 709T281 725Q304 725 318 709T330 670Q327 647 309
631T267 615Q244 615 230 631T219 670ZM456 259Q467 351 434 399T344 447Q315 447 289 435T241 399T206 340T185 259Q174 166 206 118T298 70Q326 70 352 82T400 118T435 177T456 259ZM570 259Q562 196 536 146T472 61T387 8T288 -11Q236 -11 193 7T120 59T78 144T72
259Q80 322 106 371T170 456T255 509T354 528Q406 528 449 510T521 458T564 373T570 259Z" />
<glyph unicode="&#xf7;" glyph-name="divide" horiz-adv-x="600" d="M259 112Q262 136 279 151T319 167Q343 167 356 152T367 112Q364 89 347 74T306 59Q283 59 270 74T259 112ZM306 494Q309 518 326 533T366 549Q390 549 403 534T414 494Q411 471 394 456T353
441Q330 441 317 456T306 494ZM98 268L107 342H575L566 268H98Z" />
<glyph unicode="&#xf8;" glyph-name="oslash" horiz-adv-x="579" d="M459 258Q464 293 461 321T448 373L264 115Q249 135 245 164T259 222L408 429Q380 449 345 449Q316 449 289 437T241 400T204 341T183 259Q172 166 206 117T298 68Q327 68 353 80T401 117T438
176T459 258ZM569 259Q561 196 536 146T472 61T386 8T288 -11Q234 -11 189 9L136 -66H53L133 46Q98 81 82 134T73 259Q81 322 107 371T171 456T256 509T354 528Q383 528 410 522T462 504L512 573H592L515 465Q547 430 562 379T569 259Z" />
<glyph unicode="&#xf9;" glyph-name="ugrave" horiz-adv-x="576" d="M296 636L239 740H345L401 602Q375 596 345 602T296 636ZM239 517L193 144Q189 112 200 92T241 71Q256 71 273 76T311 81Q330 80 344 69T371 40Q316 10 278 0T211 -11Q182 -11 157 -3T115 24T89
74T87 150L132 517H239ZM517 5L432 0Q412 27 407 53T406 110L456 517H563L516 131Q512 103 512 72T517 5Z" />
<glyph unicode="&#xfa;" glyph-name="uacute" horiz-adv-x="576" d="M534 740L436 635Q410 607 377 601T320 602L425 740H534ZM239 517L193 144Q189 112 200 92T241 71Q255 71 273 76T311 81Q330 80 344 69T371 40Q315 10 277 0T210 -11Q181 -11 157 -3T115 24T89
74T87 150L132 517H239ZM517 5L432 0Q411 27 407 53T406 110L456 517H563L516 131Q512 103 512 72T517 5Z" />
<glyph unicode="&#xfb;" glyph-name="ucircumflex" horiz-adv-x="576" d="M341 743H411L503 599L442 589L367 669L272 588L215 599L341 743ZM239 517L193 144Q189 112 200 92T241 71Q255 71 273 76T311 81Q330 80 344 69T371 40Q315 10 277 0T210 -11Q181 -11
157 -3T115 24T89 74T87 150L132 517H239ZM517 5L432 0Q411 27 407 53T406 110L456 517H563L516 131Q512 103 512 72T517 5Z" />
<glyph unicode="&#xfc;" glyph-name="udieresis" horiz-adv-x="575" d="M412 670Q415 693 433 709T475 725Q498 725 512 709T523 670Q520 647 502 631T461 615Q438 615 424 631T412 670ZM218 670Q221 693 239 709T280 725Q303 725 317 709T329 670Q326 647 308
631T266 615Q243 615 229 631T218 670ZM239 517L193 144Q189 112 200 92T240 71Q255 71 273 76T310 81Q330 80 344 69T371 40Q315 10 277 0T210 -11Q181 -11 157 -3T115 24T89 74T87 150L132 517H239ZM516 5L432 0Q411 27 407 53T406 110L456 517H562L515 131Q507
74 516 5Z" />
<glyph unicode="&#xfd;" glyph-name="yacute" horiz-adv-x="528" d="M512 740L413 635Q388 607 355 601T297 602L403 740H512ZM96 -166Q124 -166 145 -151T184 -109T220 -45T259 37L471 517L579 510L337 11Q309 -45 284 -92T231 -173T169 -227T86 -247Q43 -245
0 -230L35 -157Q68 -166 96 -166ZM186 517Q202 435 219 352T247 188Q250 163 247 137T237 88T220 44T197 11L72 517H186Z" />
<glyph unicode="&#xfe;" glyph-name="thorn" horiz-adv-x="572" d="M44 -241L167 758H269L186 84Q209 76 233 73T279 70Q313 70 341 84T392 124T429 186T449 266Q460 350 432 398T343 443Q317 441 300 456T272 498Q300 510 330 517T384 524Q427 524 463 506T523
455T558 373T562 266Q554 206 530 155T467 67T378 10T269 -11Q243 -11 222 -8T176 3L146 -241H44Z" />
<glyph unicode="&#xff;" glyph-name="ydieresis" horiz-adv-x="528" d="M390 670Q393 693 411 709T453 725Q476 725 490 709T501 670Q498 647 480 631T439 615Q416 615 402 631T390 670ZM196 670Q199 693 217 709T258 725Q281 725 295 709T307 670Q304 647 286
631T244 615Q221 615 207 631T196 670ZM95 -166Q123 -166 144 -151T184 -109T220 -45T259 37L471 517L579 510L337 11Q308 -45 284 -92T231 -173T168 -227T85 -247Q43 -245 0 -230L35 -157Q66 -166 95 -166ZM185 517Q202 435 219 352T247 188Q250 163 247 137T237
88T220 44T197 11L72 517H185Z" />
<glyph unicode="&#x2013;" glyph-name="endash" horiz-adv-x="554" d="M518 238H94L103 312H527L518 238Z" />
<glyph unicode="&#x2014;" glyph-name="emdash" horiz-adv-x="847" d="M833 238H94L103 312H842L833 238Z" />
<glyph unicode="&#x2018;" glyph-name="quoteleft" horiz-adv-x="204" d="M237 727L212 522H115L124 600Q127 624 134 649T155 694T189 724T237 727Z" />
<glyph unicode="&#x2019;" glyph-name="quoteright" horiz-adv-x="197" d="M120 522L145 727H242L232 649Q229 625 222 600T201 556T168 526T120 522Z" />
<glyph unicode="&#x201a;" glyph-name="quotesinglbase" horiz-adv-x="225" d="M50 -107L76 98H173L163 20Q160 -4 153 -29T132 -73T98 -103T50 -107Z" />
<glyph unicode="&#x201c;" glyph-name="quotedblleft" horiz-adv-x="387" d="M237 727L212 522H115L124 600Q127 624 134 649T155 694T189 724T237 727ZM420 727L395 522H298L307 600Q310 624 317 649T338 694T372 724T420 727Z" />
<glyph unicode="&#x201d;" glyph-name="quotedblright" horiz-adv-x="380" d="M303 522L328 727H425L415 649Q412 625 405 600T384 556T350 526T303 522ZM120 522L145 727H242L232 649Q229 625 222 600T201 556T168 526T120 522Z" />
<glyph unicode="&#x201e;" glyph-name="quotedblbase" horiz-adv-x="407" d="M232 -107L258 98H355L345 20Q342 -4 335 -29T314 -73T280 -103T232 -107ZM50 -107L76 98H173L163 20Q160 -4 153 -29T132 -73T98 -103T50 -107Z" />
<glyph unicode="&#x2022;" glyph-name="bullet" horiz-adv-x="274" d="M94 315Q99 350 124 373T184 397Q219 397 240 374T256 315Q252 280 226 258T164 235Q129 235 110 257T94 315Z" />
<glyph unicode="&#x2039;" glyph-name="guilsinglleft" horiz-adv-x="327" d="M240 49L44 258L291 468L332 422L174 258L292 94L240 49Z" />
<glyph unicode="&#x203a;" glyph-name="guilsinglright" horiz-adv-x="327" d="M345 258L99 49L57 94L215 258L97 422L150 468L345 258Z" />
</font>
</defs>
</svg>
