<?xml version="1.0" standalone="no"?>
<!DOCTYPE svg PUBLIC "-//W3C//DTD SVG 1.1//EN" "http://www.w3.org/Graphics/SVG/1.1/DTD/svg11.dtd">
<svg xmlns="http://www.w3.org/2000/svg">
<defs >
<font id="MuktaMahee" horiz-adv-x="523" ><font-face
    font-family="Mukta Mahee"
    units-per-em="1000"
    panose-1="2 11 0 0 0 0 0 0 0 0"
    ascent="1130"
    descent="-532"
    alphabetic="0" />
<glyph unicode=" " glyph-name="space" horiz-adv-x="230" />
<glyph unicode="!" glyph-name="exclam" horiz-adv-x="249" d="M59 674H191L174 213H74L59 674ZM52 64Q52 95 73 115T124 136Q153 136 174 116T196 64Q196 30 175 10T124 -10Q95 -10 74 10T52 64Z" />
<glyph unicode="&quot;" glyph-name="quotedbl" horiz-adv-x="365" d="M209 646H322L306 414H224L209 646ZM43 646H156L141 414H59L43 646Z" />
<glyph unicode="#" glyph-name="numbersign" horiz-adv-x="587" d="M245 431L221 282H345L369 431H245ZM413 703H491L460 510H557V431H447L423 282H524V203H412L379 0H300L332 203H209L176 0H98L129 203H33V282H143L167 431H66V510H181L211 703H289L258 509H383L413 703Z" />
<glyph unicode="$" glyph-name="dollar" horiz-adv-x="525" d="M227 691H310V588Q339 584 370 575T431 548L397 457Q370 472 336 482T268 492Q233 492 211 478T189 435Q189 409 208 394T273 364L316 350Q388 326 426 284T465 178Q465 114 422 68T295 11V-97H213V9Q168
13 132 25T61 60L104 150Q138 127 174 117T242 106Q291 106 312 124T333 169Q333 194 315 210T252 242L204 257Q174 266 147 280T101 315T70 362T58 423Q58 459 70 488T105 538T159 573T227 588V691Z" />
<glyph unicode="%" glyph-name="percent" horiz-adv-x="726" d="M130 0L524 674H601L207 0H130ZM697 163Q697 128 687 97T658 42T609 4T541 -10Q504 -10 475 4T427 41T397 96T386 163Q386 197 397 228T428 283T477 320T544 334Q580 334 608 320T656 283T686 229T697
163ZM601 163Q601 182 599 200T589 232T571 255T544 264Q512 264 497 234T482 163Q482 142 485 124T495 91T513 69T541 61Q573 61 587 90T601 163ZM334 503Q334 468 324 437T294 382T245 344T178 330Q141 330 113 344T65 382T35 437T25 503Q25 537 35 568T66 623T115
660T180 674Q217 674 246 660T294 623T324 569T334 503ZM240 503Q240 521 237 538T227 568T209 590T180 598Q148 598 135 570T121 503Q121 461 133 432T178 402Q210 402 225 430T240 503Z" />
<glyph unicode="&amp;" glyph-name="ampersand" horiz-adv-x="682" d="M155 192Q155 140 190 114T282 88Q324 88 354 103T400 136L234 307Q202 292 179 265T155 192ZM28 187Q28 248 62 295T174 379Q151 403 133 438T114 512Q114 585 164 627T302 670Q340 670 373
659T430 627T468 579T482 517Q482 467 453 432T384 377L321 442Q340 453 352 472T365 517Q365 544 346 562T300 581Q267 581 251 563T235 517Q235 484 254 455T311 385L470 222Q482 245 496 276T519 337L618 297Q603 255 582 214T544 147L687 0H533L469 65Q441
36 391 13T266 -10Q154 -10 91 43T28 187Z" />
<glyph unicode="&apos;" glyph-name="quotesingle" horiz-adv-x="200" d="M43 646H156L141 414H59L43 646Z" />
<glyph unicode="(" glyph-name="parenleft" horiz-adv-x="293" d="M193 -135Q163 -97 136 -54T87 40T53 149T40 275Q40 342 52 401T86 512T136 607T195 684L262 645Q214 569 183 477T151 275Q151 221 159 174T181 81T215 -7T262 -94L193 -135Z" />
<glyph unicode=")" glyph-name="parenright" horiz-adv-x="293" d="M98 684Q129 648 157 605T206 511T240 401T253 275Q253 208 240 149T206 39T157 -55T99 -135L30 -93Q55 -51 75 -8T111 80T134 173T142 275Q142 384 110 475T30 646L98 684Z" />
<glyph unicode="*" glyph-name="asterisk" horiz-adv-x="373" d="M56 409L100 467L160 515L85 517L15 539L39 614L108 594L175 553L150 625V695H233V625L209 553L276 593L343 614L368 539L299 516L223 515L282 468L325 409L259 360L218 419L192 492L165 418L121
360L56 409Z" />
<glyph unicode="+" glyph-name="plus" horiz-adv-x="526" d="M496 328V246H304V54H222V246H30V328H222V520H304V328H496Z" />
<glyph unicode="," glyph-name="comma" horiz-adv-x="238" d="M108 -11Q74 -4 56 19T38 74Q38 105 59 128T119 152Q134 152 150 146T179 126T200 89T208 33Q208 -1 197 -32T167 -91T124 -139T75 -174L37 -122Q67 -105 91 -77T123 -14L108 -11Z" />
<glyph unicode="-" glyph-name="hyphen" horiz-adv-x="280" d="M250 340V239H30V340H250Z" />
<glyph unicode="." glyph-name="period" horiz-adv-x="233" d="M47 71Q47 88 53 103T71 129T96 146T127 152Q159 152 182 129T206 71Q206 33 183 11T127 -11Q95 -11 71 11T47 71Z" />
<glyph unicode="/" glyph-name="slash" horiz-adv-x="349" d="M-1 -104L259 712H351L91 -104H-1Z" />
<glyph unicode="0" glyph-name="zero" horiz-adv-x="560" d="M281 609Q334 609 379 592T457 537T508 441T527 300Q527 219 507 161T453 64T374 8T280 -10Q227 -10 182 8T104 63T52 159T33 300Q33 378 53 436T108 533T187 590T281 609ZM163 300Q163 237 172 195T198
129T236 94T281 84Q304 84 325 94T362 129T387 195T397 300Q397 363 388 404T362 470T325 505T281 515Q258 515 237 505T199 470T173 404T163 300Z" />
<glyph unicode="1" glyph-name="one" horiz-adv-x="389" d="M206 598H310V0H185V483L74 429L45 523L206 598Z" />
<glyph unicode="2" glyph-name="two" horiz-adv-x="466" d="M211 512Q181 512 154 502T96 466L44 545Q81 575 124 592T226 609Q271 609 307 596T367 559T405 503T418 433Q418 370 373 301T245 154L185 98H425V0H58L35 84L121 169Q169 217 201 253T253 319T281
374T290 423Q290 467 268 489T211 512Z" />
<glyph unicode="3" glyph-name="three" horiz-adv-x="475" d="M47 566Q81 588 119 598T209 609Q252 609 287 597T348 564T387 513T401 451Q401 395 372 361T301 309Q355 298 388 259T422 166Q422 121 405 88T357 33T287 1T199 -10Q151 -10 108 -1T32 26L60 115Q89
102 117 94T180 85Q230 85 261 106T292 169Q292 208 264 231T180 254H111V347H161Q214 347 243 370T273 436Q273 473 248 493T186 514Q137 514 86 482L47 566Z" />
<glyph unicode="4" glyph-name="four" horiz-adv-x="530" d="M271 598H417V236H504V138H417V0H296V138H19V219L271 598ZM245 381L148 236H296V370L302 485H300L245 381Z" />
<glyph unicode="5" glyph-name="five" horiz-adv-x="504" d="M421 600V503H212L199 381Q212 383 220 383T241 383Q281 383 318 372T384 339T430 281T447 198Q447 156 433 118T388 52T311 7T201 -10Q156 -10 118 -1T52 22L79 114Q103 103 130 95T190 87Q252 87
284 115T316 190Q316 242 280 268T186 294Q161 294 136 291T87 282L117 598L421 600Z" />
<glyph unicode="6" glyph-name="six" horiz-adv-x="519" d="M312 609Q344 609 374 604T432 585L404 490Q384 501 363 507T314 513Q279 513 253 501T208 468T179 417T165 354Q190 377 223 388T294 400Q336 400 371 387T431 348T471 286T485 203Q485 156 470 117T426
50T359 6T270 -10Q229 -10 187 5T111 54T56 143T35 278Q35 366 59 429T122 532T210 590T312 609ZM165 215Q165 187 172 163T192 121T225 93T269 83Q290 83 306 92T335 118T353 155T359 199Q359 253 334 279T265 305Q235 305 214 293T180 265Q165 247 165 215Z"
/>
<glyph unicode="7" glyph-name="seven" horiz-adv-x="470" d="M433 598V518L180 -22L71 25L312 507H47V598H433Z" />
<glyph unicode="8" glyph-name="eight" horiz-adv-x="494" d="M252 609Q302 609 339 596T400 561T437 511T449 454Q449 406 421 372T343 317Q368 308 390 295T429 264T455 223T465 171Q465 130 449 97T404 40T334 3T244 -10Q195 -10 156 2T88 37T45 91T29 161Q29
219 62 253T145 308Q103 326 76 361T48 442Q48 473 61 503T99 556T163 594T252 609ZM170 449Q170 414 194 392T254 359Q284 370 305 393T327 446Q327 481 305 499T248 518Q211 518 191 497T170 449ZM240 258Q203 246 180 223T156 163Q156 128 180 106T249 83Q288
83 313 107T338 164Q338 201 310 224T240 258Z" />
<glyph unicode="9" glyph-name="nine" horiz-adv-x="512" d="M214 -10Q166 -10 131 -3T70 19L97 111Q117 100 143 93T202 85Q271 85 306 128T347 246Q328 229 299 217T234 205Q190 205 154 218T92 256T51 317T36 401Q36 448 51 486T96 552T166 594T258 609Q300
609 339 593T409 543T458 455T477 325Q477 238 457 175T401 71T318 10T214 -10ZM347 388Q347 415 341 438T323 478T294 506T256 516Q213 516 188 489T162 407Q162 351 189 326T259 300Q284 300 304 310T335 337Q341 346 344 358T347 388Z" />
<glyph unicode=":" glyph-name="colon" horiz-adv-x="245" d="M43 71Q43 106 67 129T123 152Q156 152 179 129T202 71Q202 33 179 12T123 -10Q91 -10 67 11T43 71ZM43 376Q43 393 49 408T67 434T92 451T123 457Q156 457 179 434T202 376Q202 338 179 316T123 294Q91
294 67 316T43 376Z" />
<glyph unicode=";" glyph-name="semicolon" horiz-adv-x="243" d="M44 376Q44 393 50 408T68 434T93 451T124 457Q156 457 179 434T203 376Q203 338 180 316T124 294Q92 294 68 316T44 376ZM110 -11Q76 -4 58 19T40 74Q40 105 61 128T121 152Q136 152 152 146T181
126T202 89T210 33Q210 -1 199 -32T169 -91T126 -139T77 -174L39 -122Q69 -105 93 -77T125 -14L110 -11Z" />
<glyph unicode="&lt;" glyph-name="less" horiz-adv-x="481" d="M58 217V290L422 493V391L161 254L422 117V15L58 217Z" />
<glyph unicode="=" glyph-name="equal" horiz-adv-x="426" d="M394 219V138H30V219H394ZM394 408V327H30V408H394Z" />
<glyph unicode="&gt;" glyph-name="greater" horiz-adv-x="481" d="M58 15V117L320 254L58 391V493L422 290V217L58 15Z" />
<glyph unicode="?" glyph-name="question" horiz-adv-x="419" d="M197 679Q241 679 275 667T334 633T370 582T383 518Q383 467 359 429T292 348Q271 328 257 314T233 289T220 267T216 243Q216 227 221 210L119 196Q115 207 112 221T109 251Q109 291 128 319T180
384Q218 421 236 448T255 511Q255 538 236 558T180 579Q156 579 136 572T93 549L47 635Q76 655 114 667T197 679ZM107 64Q107 95 129 115T180 136Q209 136 230 116T251 64Q251 30 230 10T180 -10Q151 -10 129 10T107 64Z" />
<glyph unicode="@" glyph-name="at" horiz-adv-x="966" d="M554 55H552Q520 23 483 6T394 -11Q330 -11 294 24T258 113Q258 157 275 190T325 246T402 280T501 292H561L565 317Q566 322 566 326T566 334Q566 393 495 393Q467 393 433 383T360 352L331 436Q377 460
424 473T522 487Q599 487 646 455T693 349Q693 331 690 310L664 149Q661 132 661 121Q661 83 698 83Q726 83 749 104T789 161T815 239T825 326Q825 386 806 438T751 528T661 588T540 610Q456 610 384 583T258 501T173 365T142 177Q142 90 171 30T246 -66T350 -119T466
-135Q530 -135 575 -125T660 -98L682 -173Q640 -191 580 -205T450 -219Q374 -219 301 -198T171 -131T79 -10T44 170Q44 297 85 394T196 558T353 658T536 692Q630 692 702 665T823 590T898 477T924 334Q924 264 907 203T855 97T770 25T654 -1Q633 -1 613 2T579 10L554
55ZM550 217H505Q445 217 417 190T388 126Q388 100 406 89T448 77Q474 77 496 88T534 117L550 217Z" />
<glyph unicode="A" glyph-name="A" horiz-adv-x="633" d="M235 246H395L366 330Q352 369 340 408T317 488H315Q304 450 291 411T264 330L235 246ZM247 630H389L622 0H477L428 145H204L155 0H12L247 630Z" />
<glyph unicode="B" glyph-name="B" horiz-adv-x="570" d="M294 630Q394 630 452 587T510 466Q510 437 500 414T473 375T436 347T394 331Q422 326 446 315T489 284T518 239T529 178Q529 139 512 107T464 50T388 13T289 0H69V630H294ZM206 378H271Q316 378 342 397T369
456Q369 491 345 508T274 526H206V378ZM206 104H271Q322 104 355 123T388 191Q388 236 353 255T267 275H206V104Z" />
<glyph unicode="C" glyph-name="C" horiz-adv-x="570" d="M380 95Q426 95 458 103T513 125L541 25Q517 11 473 0T366 -11Q295 -11 235 11T132 76T64 179T40 316Q40 390 63 450T129 552T233 618T369 641Q433 641 474 629T542 603L511 502Q485 516 454 525T383 535Q342
535 306 523T243 485T201 417T185 316Q185 259 200 218T241 149T303 109T380 95Z" />
<glyph unicode="D" glyph-name="D" horiz-adv-x="654" d="M289 630Q362 630 422 611T525 554T591 460T615 328Q615 242 587 181T511 79T399 19T262 0H69V630H289ZM206 106H253Q295 106 334 116T404 152T452 220T470 328Q470 423 416 473T271 524H206V106Z" />
<glyph unicode="E" glyph-name="E" horiz-adv-x="517" d="M69 630H479V524H206V380H453V275H206V106H482V0H69V630Z" />
<glyph unicode="F" glyph-name="F" horiz-adv-x="497" d="M469 630V524H206V357H447V252H206V0H69V630H469Z" />
<glyph unicode="G" glyph-name="G" horiz-adv-x="631" d="M371 641Q430 641 476 631T559 604L530 511Q495 528 458 536T385 544Q344 544 308 531T244 490T201 419T185 314Q185 205 233 147T372 88Q424 88 450 98V245H346V347H581V28Q542 11 490 0T371 -11Q301
-11 241 10T136 72T66 174T40 314Q40 393 65 454T135 557T239 619T371 641Z" />
<glyph unicode="H" glyph-name="H" horiz-adv-x="652" d="M69 0V630H206V380H445V630H582V0H445V272H206V0H69Z" />
<glyph unicode="I" glyph-name="I" horiz-adv-x="276" d="M206 630V0H69V630H206Z" />
<glyph unicode="J" glyph-name="J" horiz-adv-x="291" d="M223 630V115Q223 76 221 45T213 -13T197 -60T170 -100Q137 -139 87 -154T-19 -170V-65Q7 -65 26 -57T57 -37Q75 -21 80 5T86 63V630H223Z" />
<glyph unicode="K" glyph-name="K" horiz-adv-x="612" d="M69 0V630H206V365L423 630H593L358 355L613 0H444L258 269L206 214V0H69Z" />
<glyph unicode="L" glyph-name="L" horiz-adv-x="468" d="M69 630H206V108H460V0H69V630Z" />
<glyph unicode="M" glyph-name="M" horiz-adv-x="833" d="M109 630H282L372 343Q378 324 384 302T397 258T408 215T416 176H420Q423 192 428 213T439 258T451 303T462 343L549 630H722L769 0H640Q634 104 628 208T620 418L619 500H616Q603 445 588 385T558 280L469
0H363L272 281Q255 335 240 395T216 500H213Q213 464 212 425T210 346T207 270T203 201L191 0H64L109 630Z" />
<glyph unicode="N" glyph-name="N" horiz-adv-x="670" d="M69 630H194L411 298Q433 264 451 232T478 181H480Q474 246 474 310T474 441V630H601V0H476L274 306Q261 326 249 347T225 389T206 425T193 453H191Q196 384 196 321T197 191V0H69V630Z" />
<glyph unicode="O" glyph-name="O" horiz-adv-x="704" d="M354 641Q421 641 478 619T576 556T640 453T664 314Q664 238 640 178T574 76T475 12T350 -11Q283 -11 226 10T128 73T64 175T40 314Q40 390 64 450T130 553T229 618T354 641ZM185 314Q185 258 198 217T235
148T288 107T354 93Q388 93 418 106T471 147T506 216T519 314Q519 372 506 414T469 483T416 524T350 537Q315 537 285 523T233 482T198 412T185 314Z" />
<glyph unicode="P" glyph-name="P" horiz-adv-x="560" d="M69 630H290Q345 630 389 617T465 579T514 519T531 437Q531 383 511 344T457 280T376 242T278 229H206V0H69V630ZM206 334H262Q288 334 311 338T352 354T380 384T390 431Q390 480 357 503T273 526H206V334Z" />
<glyph unicode="Q" glyph-name="Q" horiz-adv-x="704" d="M353 641Q420 641 477 619T575 556T640 453T664 314Q664 204 616 125T479 -2L362 -67Q384 -69 404 -75T447 -89T494 -103T549 -109Q574 -109 598 -101T637 -81L685 -173Q668 -187 634 -201T552 -215Q510
-215 473 -206T402 -185T336 -164T271 -154Q241 -154 217 -160T168 -182L122 -96L284 -3Q172 17 106 99T40 314Q40 390 63 450T129 553T228 618T353 641ZM185 315Q185 259 198 217T233 147T285 104T350 90Q386 90 416 104T470 147T506 218T519 315Q519 373 506
415T470 484T416 524T351 537Q316 537 286 524T234 482T198 413T185 315Z" />
<glyph unicode="R" glyph-name="R" horiz-adv-x="571" d="M69 630H308Q361 630 401 615T469 573T509 511T523 434Q523 396 512 367T483 316T444 280T402 256L556 0H399L278 232H205V0H69V630ZM205 337H259Q313 337 347 359T382 432Q382 477 355 501T274 526H205V337Z" />
<glyph unicode="S" glyph-name="S" horiz-adv-x="536" d="M273 641Q334 641 381 629T465 598L434 496Q393 516 355 526T281 537Q233 537 207 518T180 467Q180 434 203 417T277 384L337 365Q412 340 454 294T497 181Q497 141 482 106T437 45T362 4T257 -11Q144
-11 50 35L81 137Q124 116 165 105T251 93Q304 93 331 112T358 167Q358 179 354 190T337 212T305 233T251 254L198 272Q163 284 134 300T85 337T53 386T41 453Q41 494 56 528T100 588T173 627T273 641Z" />
<glyph unicode="T" glyph-name="T" horiz-adv-x="508" d="M499 630V522H321V0H184V522H10V630H499Z" />
<glyph unicode="U" glyph-name="U" horiz-adv-x="661" d="M67 630H204V253Q204 175 235 135T333 94Q398 94 427 135T456 241V630H593V251Q593 119 528 54T333 -11Q209 -11 138 54T67 256V630Z" />
<glyph unicode="V" glyph-name="V" horiz-adv-x="613" d="M151 630L256 308Q261 292 268 270T282 223T295 175T306 132H309Q317 170 332 219T361 309L467 630H608L383 0H234L6 630H151Z" />
<glyph unicode="W" glyph-name="W" horiz-adv-x="868" d="M147 630L216 339Q219 326 223 301T233 248T243 191T251 145H253Q256 164 260 191T270 247T281 300T290 339L363 630H506L579 340Q582 327 587 302T598 248T609 191T617 145H619Q622 164 627 191T637 247T648
300T656 340L722 630H860L699 0H549L468 325Q458 365 450 404T433 485H431Q423 443 415 405T397 326L319 0H172L8 630H147Z" />
<glyph unicode="X" glyph-name="X" horiz-adv-x="626" d="M182 630L314 410L446 630H603L400 320L613 0H451L307 230L169 0H13L218 320L22 630H182Z" />
<glyph unicode="Y" glyph-name="Y" horiz-adv-x="587" d="M163 630L297 385L433 630H582L362 260V0H225V260L9 630H163Z" />
<glyph unicode="Z" glyph-name="Z" horiz-adv-x="536" d="M499 630V552L194 104H508V0H25V87L324 526H36V630H499Z" />
<glyph unicode="[" glyph-name="bracketleft" horiz-adv-x="281" d="M62 -143V700H256V623H165V-65H256V-143H62Z" />
<glyph unicode="\" glyph-name="backslash" horiz-adv-x="312" d="M218 -88L0 720H94L312 -88H218Z" />
<glyph unicode="]" glyph-name="bracketright" horiz-adv-x="281" d="M25 -143V-65H117V623H25V700H219V-143H25Z" />
<glyph unicode="^" glyph-name="asciicircum" horiz-adv-x="508" d="M459 408H368L253 644L141 408H49L216 720H290L459 408Z" />
<glyph unicode="_" glyph-name="underscore" horiz-adv-x="373" d="M367 -175V-250H6V-175H367Z" />
<glyph unicode="`" glyph-name="grave" horiz-adv-x="215" d="M17 720H127L200 555H123L17 720Z" />
<glyph unicode="a" glyph-name="a" horiz-adv-x="506" d="M68 435Q111 460 159 473T261 487Q304 487 339 477T400 446T439 391T453 310V0H350L338 49H334Q311 21 276 5T193 -11Q154 -11 124 0T73 31T42 78T31 136Q31 177 48 206T97 255T169 283T259 292H319V321Q319
354 299 369T241 385Q212 385 182 376T114 347L68 435ZM320 209L277 208Q216 206 192 188T168 143Q168 109 188 97T235 84Q261 84 284 99T320 134V209Z" />
<glyph unicode="b" glyph-name="b" horiz-adv-x="568" d="M533 237Q533 180 516 134T469 56T398 6T309 -11Q262 -11 229 3T171 44H167L158 0H62V714H194V438Q219 461 252 474T324 487Q422 487 477 421T533 237ZM396 234Q396 308 367 346T285 385Q257 385 233 372T195
341V122Q208 107 228 97T272 87Q296 87 318 96T358 123T386 168T396 234Z" />
<glyph unicode="c" glyph-name="c" horiz-adv-x="461" d="M310 87Q342 87 366 95T407 112L432 20Q412 9 374 -1T291 -11Q237 -11 190 5T109 52T54 130T34 237Q34 293 53 339T106 418T188 469T293 487Q324 487 358 481T431 455L403 363Q382 375 358 382T308 390Q246
390 208 352T169 241Q169 198 181 169T214 121T259 95T310 87Z" />
<glyph unicode="d" glyph-name="d" horiz-adv-x="563" d="M368 714H501V0H406L392 52H387Q369 27 336 8T248 -11Q203 -11 164 6T96 55T51 133T34 238Q34 295 49 341T92 419T161 469T255 487Q289 487 319 477T368 451V714ZM368 352Q355 368 334 379T288 390Q264
390 243 382T205 357T178 311T168 241Q168 201 177 172T201 124T236 96T280 87Q312 87 334 102T368 139V352Z" />
<glyph unicode="e" glyph-name="e" horiz-adv-x="519" d="M485 204H168V200Q168 143 208 115T311 87Q351 87 381 95T437 114L461 21Q434 8 393 -1T296 -11Q242 -11 195 3T112 48T55 124T34 234Q34 291 51 337T99 417T175 468T273 487Q370 487 427 428T485 263V204ZM349
295Q349 314 345 332T330 363T305 385T268 393Q228 393 202 366T171 293L349 295Z" />
<glyph unicode="f" glyph-name="f" horiz-adv-x="369" d="M255 715Q291 715 326 706T387 681L361 594Q344 602 327 607T290 613Q255 613 238 593T221 523V477H341V381H221V0H89V381H16V477H89V551Q89 631 134 673T255 715Z" />
<glyph unicode="g" glyph-name="g" horiz-adv-x="567" d="M55 315Q55 354 70 386T113 440T178 475T261 487Q278 487 298 485T335 477H539V393H496L434 402Q447 386 455 362T464 314Q464 238 410 192T260 145Q235 145 216 149Q191 139 191 116Q191 100 202 92T241
84H348Q427 84 474 50T522 -61Q522 -100 504 -132T451 -188T369 -225T262 -238Q153 -238 90 -200T26 -89Q26 -56 48 -32T109 7Q95 17 81 35T67 82Q67 115 87 139T138 177Q123 185 109 197T82 227T63 266T55 315ZM183 -16Q168 -24 158 -37T148 -70Q148 -99 174 -118T266
-138Q331 -138 361 -116T391 -66Q391 -38 372 -27T313 -16H183ZM334 316Q334 355 313 375T260 395Q227 395 207 375T186 317Q186 277 207 257T260 237Q293 237 313 257T334 316Z" />
<glyph unicode="h" glyph-name="h" horiz-adv-x="571" d="M195 0H62V714H195V434Q224 457 261 472T343 487Q385 487 416 475T468 440T499 386T509 317V0H376V294Q376 343 356 364T298 385Q272 385 245 373T195 339V0Z" />
<glyph unicode="i" glyph-name="i" horiz-adv-x="276" d="M71 0V477H204V0H71ZM138 579Q104 579 85 598T66 647Q66 676 85 695T138 715Q171 715 190 696T210 647Q210 618 191 599T138 579Z" />
<glyph unicode="j" glyph-name="j" horiz-adv-x="271" d="M66 477H199V67Q199 11 191 -38T161 -127T103 -200T12 -255L-45 -164Q-16 -149 5 -133T39 -93T59 -32T66 60V477ZM134 579Q99 579 81 598T62 647Q62 676 81 695T134 715Q167 715 186 696T205 647Q205 618
186 599T134 579Z" />
<glyph unicode="k" glyph-name="k" horiz-adv-x="528" d="M194 160V0H62V714H194V290L354 477H515L331 276L524 0H367L233 199L194 160Z" />
<glyph unicode="l" glyph-name="l" horiz-adv-x="259" d="M64 0V714H195V0H64Z" />
<glyph unicode="m" glyph-name="m" horiz-adv-x="854" d="M193 0H60V477H164L180 416Q212 449 250 468T336 487Q438 487 475 413Q507 448 548 467T636 487Q712 487 752 446T793 327V0H660V312Q660 346 644 365T595 385Q568 385 541 372T493 335V0H360V312Q360
346 344 365T295 385Q268 385 241 371T193 331V0Z" />
<glyph unicode="n" glyph-name="n" horiz-adv-x="564" d="M193 0H60V477H164L180 416Q213 450 252 468T340 487Q419 487 461 444T503 319V0H370V305Q370 342 352 363T299 385Q273 385 245 371T193 331V0Z" />
<glyph unicode="o" glyph-name="o" horiz-adv-x="559" d="M524 242Q524 183 505 136T453 57T374 7T277 -11Q225 -11 181 5T104 52T53 128T34 232Q34 293 53 340T105 420T184 470T281 487Q333 487 377 471T454 425T505 348T524 242ZM387 237Q387 278 378 307T354
354T319 380T278 389Q257 389 238 382T204 357T180 310T171 237Q171 198 180 170T204 123T239 96T280 87Q301 87 320 94T354 120T378 166T387 237Z" />
<glyph unicode="p" glyph-name="p" horiz-adv-x="560" d="M285 -11Q259 -11 234 -5T191 12V-230H59V479H160L174 426Q203 454 240 470T323 487Q417 487 471 424T526 248Q526 185 507 137T455 55T378 6T285 -11ZM287 387Q254 387 229 372T191 340V112Q222 87 268
87Q290 87 311 95T350 122T378 171T389 244Q389 275 383 301T363 346T331 376T287 387Z" />
<glyph unicode="q" glyph-name="q" horiz-adv-x="563" d="M368 24Q348 7 317 -2T254 -11Q202 -11 162 7T93 58T49 137T34 239Q34 293 49 338T92 417T162 468T256 487Q291 487 328 475T389 436L398 477H501V-230H368V24ZM368 346Q355 363 333 376T281 390Q258 390
238 382T202 356T177 310T168 242Q168 165 201 126T282 87Q311 87 333 98T368 124V346Z" />
<glyph unicode="r" glyph-name="r" horiz-adv-x="390" d="M60 0V477H163L178 391Q195 429 232 458T325 487Q348 487 366 482T396 470L374 365Q363 371 346 375T306 380Q257 380 225 348T192 241V0H60Z" />
<glyph unicode="s" glyph-name="s" horiz-adv-x="435" d="M348 363Q289 391 234 391Q202 391 185 380T167 350Q167 331 182 319T245 293L275 284Q337 266 369 232T401 144Q401 73 347 31T199 -11Q104 -11 36 23L66 121Q95 106 127 97T192 87Q232 87 250 99T269
132Q269 153 251 164T183 190L152 199Q92 219 64 252T36 340Q36 405 85 446T222 487Q309 487 376 456L348 363Z" />
<glyph unicode="t" glyph-name="t" horiz-adv-x="382" d="M345 381H218V161Q218 127 233 115T275 102Q295 102 316 106T350 117L370 24Q353 16 319 8T247 0Q160 0 123 34T86 138V381H12V477H86V624H218V477H345V381Z" />
<glyph unicode="u" glyph-name="u" horiz-adv-x="561" d="M368 477H501V0H402L388 54H384Q373 43 359 32T325 11T281 -5T226 -11Q149 -11 105 32T60 159V477H193V170Q193 127 213 108T266 89Q302 89 327 104T368 139V477Z" />
<glyph unicode="v" glyph-name="v" horiz-adv-x="506" d="M356 477H497L328 0H174L10 477H152L222 239L251 95H255L284 239L356 477Z" />
<glyph unicode="w" glyph-name="w" horiz-adv-x="759" d="M9 477H148L209 224L227 99H231L252 224L311 477H451L511 224L532 99H536L557 224L616 477H751L619 0H464L402 258L381 373L359 258L297 0H142L9 477Z" />
<glyph unicode="x" glyph-name="x" horiz-adv-x="513" d="M336 244L505 0H352L302 74L253 161L208 75L160 0H9L176 244L19 477H167L216 402L260 319L302 402L347 477H492L336 244Z" />
<glyph unicode="y" glyph-name="y" horiz-adv-x="520" d="M7 477H152L237 250L269 134H273L304 251L378 477H514L339 -17Q324 -58 306 -95T261 -165T198 -222T113 -263L58 -160Q114 -140 152 -102T204 -11L208 2L7 477Z" />
<glyph unicode="z" glyph-name="z" horiz-adv-x="419" d="M393 396L170 96H398V0H21V84L244 381H34V477H393V396Z" />
<glyph unicode="{" glyph-name="braceleft" horiz-adv-x="325" d="M302 624Q276 624 260 618T233 597T219 558T215 498V393Q215 347 197 320T150 279V276Q179 259 197 224T215 135V30Q215 1 219 -17T233 -47T260 -63T302 -71V-155Q219 -153 168 -111T117 7V140Q117
185 96 210T29 238V314Q74 320 95 341T117 410V555Q117 587 129 614T164 662T222 693T302 705V624Z" />
<glyph unicode="|" glyph-name="bar" horiz-adv-x="237" d="M72 -199V732H165V-199H72Z" />
<glyph unicode="}" glyph-name="braceright" horiz-adv-x="325" d="M23 706Q65 705 99 694T157 661T195 611T208 546V410Q208 364 229 340T296 312V236Q250 231 229 210T208 140V-2Q208 -69 160 -111T23 -155V-73Q48 -73 65 -67T92 -47T106 -11T110 46V151Q110
199 128 228T175 272V275Q146 292 128 325T110 409V514Q110 545 106 564T92 596T65 614T23 622V706Z" />
<glyph unicode="~" glyph-name="asciitilde" horiz-adv-x="577" d="M43 202Q43 282 84 322T189 362Q220 362 246 351T297 328T344 304T390 293Q444 293 444 361H533Q533 283 498 242T401 201Q370 201 342 212T287 236T236 261T188 272Q161 272 147 252T132 202H43Z" />
<glyph unicode="&#xa0;" glyph-name="uni00A0" horiz-adv-x="230" />
<glyph unicode="&#xa1;" glyph-name="exclamdown" horiz-adv-x="262" d="M79 251H184L200 -235H61L79 251ZM55 409Q55 444 77 465T131 486Q161 486 183 465T206 409Q206 376 184 354T131 332Q100 332 78 354T55 409Z" />
<glyph unicode="&#xa2;" glyph-name="cent" horiz-adv-x="486" d="M322 159Q354 159 378 166T417 182L443 92Q429 84 407 77T357 65V-22H252V65Q207 71 169 89T104 138T62 211T46 307Q46 357 60 398T102 471T167 523T252 552V641H357V552Q377 549 398 543T443
525L415 434Q395 446 369 453T317 460Q255 460 218 423T181 311Q181 268 193 239T226 192T271 167T322 159Z" />
<glyph unicode="&#xa3;" glyph-name="sterling" horiz-adv-x="500" d="M75 0L48 78Q93 100 117 132T141 209Q141 218 140 227T137 247H54V335H126Q123 354 120 377T116 424Q116 466 131 500T172 558T236 596T319 609Q357 609 392 601T443 581L417 491Q399 501
377 507T327 513Q306 513 289 505T261 484T243 452T237 415Q237 389 239 372T246 335H389V247H256Q257 237 257 229T258 211Q258 176 248 150T214 103L215 99H455V0H75Z" />
<glyph unicode="&#xa4;" glyph-name="currency" d="M91 59L31 120L114 200Q100 222 93 249T86 305Q86 369 113 408L31 489L92 549L172 466Q191 478 214 484T262 490Q313 490 351 466L431 549L491 489L407 408Q436 364 436 305Q436 274 428 247T408 199L491 119L431
59L349 142Q311 119 259 119Q236 119 213 126T172 144L91 59ZM340 305Q340 357 320 385T262 414Q224 414 203 387T182 305Q182 253 203 224T261 195Q294 195 317 220T340 305Z" />
<glyph unicode="&#xa5;" glyph-name="yen" horiz-adv-x="555" d="M512 223V150H340V0H211V150H37V223H211V250L178 307H37V380H141L14 598H153L279 350L407 598H541L412 380H512V307H374L340 250V223H512Z" />
<glyph unicode="&#xa6;" glyph-name="brokenbar" horiz-adv-x="257" d="M80 380V750H177V380H80ZM80 -180V188H177V-180H80Z" />
<glyph unicode="&#xa7;" glyph-name="section" horiz-adv-x="516" d="M73 63Q140 25 218 25Q260 25 278 41T296 80Q296 102 276 114T209 144L168 158Q105 178 73 212T41 298Q41 340 60 372T105 424Q81 452 81 498Q81 530 94 557T132 605T194 636T278 647Q324 647
366 638T439 612L411 520Q381 537 350 544T289 552Q252 552 232 539T211 502Q211 491 215 483T230 467T259 452T306 435L347 421Q408 401 441 367T475 278Q475 235 454 204T409 155Q427 125 427 84Q427 49 413 21T374 -28T313 -60T233 -71Q117 -71 44 -33L73 63ZM359
258Q359 284 342 299T277 332L222 351Q211 355 199 360T178 370Q168 361 162 349T156 322Q156 296 176 281T236 251L290 234Q303 229 315 225T338 214Q347 223 353 234T359 258Z" />
<glyph unicode="&#xa8;" glyph-name="dieresis" horiz-adv-x="389" d="M31 621Q31 647 50 666T96 685Q124 685 142 666T160 621Q160 593 142 574T96 555Q70 555 51 574T31 621ZM229 621Q229 647 248 666T294 685Q322 685 340 666T358 621Q358 593 340 574T294
555Q268 555 249 574T229 621Z" />
<glyph unicode="&#xa9;" glyph-name="copyright" horiz-adv-x="705" d="M378 193Q400 193 418 197T456 211L472 155Q427 134 373 134Q336 134 303 145T246 178T207 233T193 310Q193 351 206 383T242 439T299 474T372 487Q397 487 420 483T469 467L453 410Q434
420 415 424T378 428Q330 428 301 398T271 312Q271 278 280 256T305 219T339 199T378 193ZM354 635Q418 635 475 615T575 554T643 453T669 313Q669 235 644 175T575 74T474 12T352 -9Q288 -9 231 11T131 72T62 173T36 313Q36 391 62 451T131 552T233 614T354 635ZM354
590Q301 590 253 572T169 519T111 433T89 313Q89 244 110 192T167 106T250 54T352 36Q406 36 454 54T538 107T595 193T616 313Q616 382 595 434T539 520T456 572T354 590Z" />
<glyph unicode="&#xaa;" glyph-name="ordfeminine" horiz-adv-x="353" d="M55 558Q82 574 113 583T180 592Q237 592 271 565T305 476V274H238L230 306H228Q197 267 136 267Q85 267 58 294T31 362Q31 389 42 408T74 440T121 458T179 464H219V484Q219 505 205 515T167
525Q148 525 128 520T84 500L55 558ZM219 411L191 410Q150 408 135 396T119 367Q119 345 132 337T163 329Q180 329 195 338T219 361V411Z" />
<glyph unicode="&#xab;" glyph-name="guillemotleft" horiz-adv-x="507" d="M374 76L241 237L374 397H480L359 237L480 76H374ZM164 76L31 237L164 397H270L149 237L270 76H164Z" />
<glyph unicode="&#xac;" glyph-name="logicalnot" horiz-adv-x="370" />
<glyph unicode="&#xad;" glyph-name="uni00AD" horiz-adv-x="280" d="M250 340V239H30V340H250Z" />
<glyph unicode="&#xae;" glyph-name="registered" horiz-adv-x="529" d="M492 465Q492 408 476 365T429 292T357 247T265 232Q215 232 174 247T102 290T54 361T37 457Q37 514 53 557T100 629T171 672T263 687Q313 687 355 673T427 630T475 561T492 465ZM450 461Q450
510 435 546T395 605T335 640T263 652Q225 652 192 642T133 608T94 548T79 461Q79 412 92 376T131 315T190 279T265 267Q303 267 336 278T395 313T435 373T450 461ZM176 587H279Q321 587 343 565T365 510Q365 481 350 463T315 436L381 332H323L267 427H224V332H176V587ZM224
465H262Q285 465 299 475T314 508Q314 530 302 539T268 548H224V465Z" />
<glyph unicode="&#xaf;" glyph-name="overscore" horiz-adv-x="300" d="M278 661V586H23V661H278Z" />
<glyph unicode="&#xb0;" glyph-name="degree" horiz-adv-x="400" d="M369 468Q369 388 325 341T199 294Q123 294 77 341T31 468Q31 507 43 539T77 593T131 628T202 641Q239 641 270 629T323 594T357 539T369 468ZM287 468Q287 515 268 544T202 574Q157 574 135
547T113 468Q113 420 134 391T199 361Q237 361 262 386T287 468Z" />
<glyph unicode="&#xb1;" glyph-name="plusminus" horiz-adv-x="466" d="M390 79V0H54V79H390ZM430 363V284H275V134H192V284H37V363H192V513H275V363H430Z" />
<glyph unicode="&#xb2;" glyph-name="twosuperior" horiz-adv-x="329" d="M141 785Q122 785 102 780T56 757L22 820Q52 840 84 849T149 858Q221 858 260 822T300 730Q300 688 275 646T197 563L138 518H300V445H34L15 510L95 578Q125 603 145 623T177 660T194 693T200
726Q200 752 183 768T141 785Z" />
<glyph unicode="&#xb3;" glyph-name="threesuperior" horiz-adv-x="306" d="M20 836Q52 850 78 854T131 858Q159 858 184 850T229 828T259 793T270 748Q270 677 191 654V652Q233 644 258 620T284 558Q284 528 271 506T235 469T184 447T123 440Q94 440 62 444T9
459L28 527Q51 519 70 516T112 513Q144 513 162 527T181 567Q181 587 165 600T110 614H56V683H95Q131 683 150 698T169 739Q169 764 151 775T111 787Q94 787 77 784T40 771L20 836Z" />
<glyph unicode="&#xb4;" glyph-name="acute" horiz-adv-x="253" d="M122 548H30L103 705H232L122 548Z" />
<glyph unicode="&#xb5;" glyph-name="mu" horiz-adv-x="561" d="M368 477H501V0H402L388 54H384Q374 43 361 32T331 11T291 -5T239 -11Q207 -11 179 2L193 -73V-162H60V477H193V170Q193 127 213 108T266 89Q302 89 327 104T368 139V477Z" />
<glyph unicode="&#xb6;" glyph-name="paragraph" horiz-adv-x="597" d="M441 -178V552H350V-178H258V235Q146 235 91 289T35 436Q35 488 52 526T100 590T175 628T271 641H532V-178H441Z" />
<glyph unicode="&#xb7;" glyph-name="middot" horiz-adv-x="189" d="M31 346Q31 374 49 394T96 414Q122 414 140 395T158 346Q158 319 140 299T96 278Q67 278 49 298T31 346Z" />
<glyph unicode="&#xb8;" glyph-name="cedilla" horiz-adv-x="286" d="M126 0H198L175 -47Q211 -50 232 -69T254 -117Q254 -159 221 -179T138 -200Q113 -200 92 -196T56 -186L73 -131Q98 -140 123 -140Q143 -140 155 -133T168 -112Q168 -95 151 -87T92 -78L126 0Z" />
<glyph unicode="&#xb9;" glyph-name="onesuperior" horiz-adv-x="300" d="M146 851H234V445H128V747L45 708L22 794L146 851Z" />
<glyph unicode="&#xba;" glyph-name="ordmasculine" horiz-adv-x="219" />
<glyph unicode="&#xbb;" glyph-name="guillemotright" horiz-adv-x="507" d="M29 76L150 236L29 397H135L268 236L135 76H29ZM239 76L360 236L239 397H345L478 236L345 76H239Z" />
<glyph unicode="&#xbc;" glyph-name="onequarter" horiz-adv-x="785" d="M155 -10L544 609H620L231 -10H155ZM142 598H227V213H125V500L47 463L25 544L142 598ZM605 386H713V161H770V97H713V0H621V97H438V153L605 386ZM592 250L529 161H621V248L623 301H621L592 250Z" />
<glyph unicode="&#xbd;" glyph-name="onehalf" horiz-adv-x="823" d="M152 -10L542 609H618L228 -10H152ZM641 323Q623 323 604 318T560 296L528 356Q557 376 587 384T649 392Q718 392 755 358T793 271Q793 231 769 191T694 112L638 69H793V0H540L522 62L598 126Q626
150 645 169T676 204T693 236T698 267Q698 292 682 307T641 323ZM142 598H227V213H125V500L47 463L25 544L142 598Z" />
<glyph unicode="&#xbe;" glyph-name="threequarters" horiz-adv-x="798" d="M171 -10L560 609H636L247 -10H171ZM611 386H718V161H776V97H718V0H626V97H444V153L611 386ZM597 250L535 161H626V248L629 301H627L597 250ZM29 583Q58 597 83 600T134 604Q161 604
185 597T227 576T255 543T266 500Q266 466 247 444T191 410V409Q231 401 255 378T279 319Q279 290 267 269T233 235T184 214T126 207Q98 207 68 211T18 225L36 290Q58 282 76 279T116 276Q146 276 163 290T181 328Q181 347 165 359T114 372H63V438H100Q134 438
152 452T170 491Q170 514 153 525T115 537Q98 537 82 534T47 522L29 583Z" />
<glyph unicode="&#xbf;" glyph-name="questiondown" horiz-adv-x="432" d="M241 -247Q194 -247 157 -234T95 -199T57 -145T44 -78Q44 -24 70 16T140 101Q162 123 177 137T201 164T215 187T220 212Q220 230 214 247L323 262Q327 251 330 236T333 204Q333 162 313
132T257 64Q237 43 223 27T199 -4T184 -35T179 -70Q179 -99 199 -120T258 -141Q283 -141 304 -134T349 -110L397 -200Q367 -222 327 -234T241 -247ZM335 401Q335 369 312 347T259 325Q228 325 206 347T184 401Q184 436 206 457T259 478Q289 478 312 457T335 401Z"
/>
<glyph unicode="&#xc0;" glyph-name="Agrave" horiz-adv-x="633" d="M150 819H294L374 695H265L150 819ZM235 246H395L366 330Q352 369 340 408T317 488H315Q304 450 291 411T264 330L235 246ZM247 630H389L622 0H477L428 145H204L155 0H12L247 630Z" />
<glyph unicode="&#xc1;" glyph-name="Aacute" horiz-adv-x="633" d="M371 695H262L342 819H486L371 695ZM235 246H395L366 330Q352 369 340 408T317 488H315Q304 450 291 411T264 330L235 246ZM247 630H389L622 0H477L428 145H204L155 0H12L247 630Z" />
<glyph unicode="&#xc2;" glyph-name="Acircumflex" horiz-adv-x="633" d="M266 821H365L483 695H380L315 764L250 695H152L266 821ZM235 246H395L366 330Q352 369 340 408T317 488H315Q304 450 291 411T264 330L235 246ZM247 630H389L622 0H477L428 145H204L155
0H12L247 630Z" />
<glyph unicode="&#xc3;" glyph-name="Atilde" horiz-adv-x="633" d="M163 695Q163 744 186 778T253 813Q272 813 287 808T315 795T341 783T368 777Q384 777 391 788T401 816H466Q466 765 443 732T379 699Q359 699 342 704T310 716T283 728T259 734Q242 734 236
723T228 695H163ZM235 246H395L366 330Q352 369 340 408T317 488H315Q304 450 291 411T264 330L235 246ZM247 630H389L622 0H477L428 145H204L155 0H12L247 630Z" />
<glyph unicode="&#xc4;" glyph-name="Adieresis" horiz-adv-x="633" d="M155 751Q155 777 173 795T219 813Q245 813 263 795T281 751Q281 724 263 706T219 687Q192 687 174 705T155 751ZM350 751Q350 777 369 795T414 813Q440 813 458 795T477 751Q477 724 459
706T414 687Q388 687 369 705T350 751ZM235 246H395L366 330Q352 369 340 408T317 488H315Q304 450 291 411T264 330L235 246ZM247 630H389L622 0H477L428 145H204L155 0H12L247 630Z" />
<glyph unicode="&#xc5;" glyph-name="Aring" horiz-adv-x="633" d="M211 762Q211 807 240 830T315 853Q361 853 390 831T420 762Q420 716 389 694T315 672Q272 672 242 695T211 762ZM275 762Q275 741 285 729T315 717Q334 717 345 729T356 762Q356 784 345 796T315
808Q297 808 286 796T275 762ZM235 246H395L366 330Q352 369 340 408T317 488H315Q304 450 291 411T264 330L235 246ZM247 630H389L622 0H477L428 145H204L155 0H12L247 630Z" />
<glyph unicode="&#xc6;" glyph-name="AE" horiz-adv-x="832" d="M329 630H793V524H547V380H767V275H547V106H796V0H411V149H239L166 0H12L329 630ZM411 532L282 252H411V532Z" />
<glyph unicode="&#xc7;" glyph-name="Ccedilla" horiz-adv-x="570" d="M380 95Q426 95 458 103T513 125L541 25Q518 12 478 2T377 -11L364 -47Q403 -50 424 -72T446 -123Q446 -169 412 -192T327 -215Q302 -215 281 -211T246 -201L262 -146Q274 -151 285 -153T313
-155Q335 -155 347 -146T360 -118Q360 -101 344 -90T281 -78L308 -6Q248 2 199 28T114 95T60 192T40 316Q40 390 63 450T129 552T233 618T369 641Q433 641 474 629T542 603L511 502Q485 516 454 525T383 535Q342 535 306 523T243 485T201 417T185 316Q185 259 200
218T241 149T303 109T380 95Z" />
<glyph unicode="&#xc8;" glyph-name="Egrave" horiz-adv-x="519" d="M69 630H479V524H206V380H453V275H206V106H482V0H69V630ZM162 819H307L387 695H277L162 819Z" />
<glyph unicode="&#xc9;" glyph-name="Eacute" horiz-adv-x="517" d="M69 630H479V524H206V380H453V275H206V106H482V0H69V630ZM280 695H170L250 819H395L280 695Z" />
<glyph unicode="&#xca;" glyph-name="Ecircumflex" horiz-adv-x="517" d="M69 630H479V524H206V380H453V275H206V106H482V0H69V630ZM218 821H317L435 695H332L267 764L202 695H104L218 821Z" />
<glyph unicode="&#xcb;" glyph-name="Edieresis" horiz-adv-x="517" d="M69 630H479V524H206V380H453V275H206V106H482V0H69V630ZM113 751Q113 777 131 795T176 813Q202 813 220 795T239 751Q239 724 221 706T176 687Q150 687 132 705T113 751ZM308 751Q308 777
326 795T371 813Q398 813 416 795T434 751Q434 724 416 706T371 687Q345 687 327 705T308 751Z" />
<glyph unicode="&#xcc;" glyph-name="Igrave" horiz-adv-x="276" d="M206 630V0H69V630H206ZM-35 819H109L189 695H79L-35 819Z" />
<glyph unicode="&#xcd;" glyph-name="Iacute" horiz-adv-x="276" d="M206 630V0H69V630H206ZM196 695H87L167 819H311L196 695Z" />
<glyph unicode="&#xce;" glyph-name="Icircumflex" horiz-adv-x="276" d="M206 630V0H69V630H206ZM90 821H189L307 695H204L139 764L74 695H-24L90 821Z" />
<glyph unicode="&#xcf;" glyph-name="Idieresis" horiz-adv-x="276" d="M206 630V0H69V630H206ZM-24 751Q-24 777 -6 795T39 813Q66 813 84 795T102 751Q102 724 84 706T39 687Q13 687 -5 705T-24 751ZM171 751Q171 777 189 795T235 813Q261 813 279 795T297 751Q297
724 279 706T235 687Q208 687 190 705T171 751Z" />
<glyph unicode="&#xd0;" glyph-name="Eth" horiz-adv-x="691" d="M327 630Q400 630 460 611T563 554T629 460T653 328Q653 242 625 181T549 79T437 19T299 0H107V275H22V367H107V630H327ZM360 367V275H244V106H290Q332 106 371 116T441 152T490 220T508 328Q508
423 454 473T309 524H244V367H360Z" />
<glyph unicode="&#xd1;" glyph-name="Ntilde" horiz-adv-x="683" d="M69 630H269L423 283L483 115H486L479 303V630H614V0H414L266 334L200 519H197L204 311V0H69V630ZM207 695Q207 744 230 778T298 813Q316 813 331 808T359 795T386 783T413 777Q428 777 436
788T445 816H510Q510 765 487 732T423 699Q403 699 386 704T355 716T327 728T304 734Q287 734 280 723T272 695H207Z" />
<glyph unicode="&#xd2;" glyph-name="Ograve" horiz-adv-x="704" d="M354 641Q421 641 478 619T576 556T640 453T664 314Q664 238 640 178T574 76T475 12T350 -11Q283 -11 226 10T128 73T64 175T40 314Q40 390 64 450T130 553T229 618T354 641ZM185 314Q185 258
198 217T235 148T288 107T354 93Q388 93 418 106T471 147T506 216T519 314Q519 372 506 414T469 483T416 524T350 537Q315 537 285 523T233 482T198 412T185 314ZM237 819H381L461 695H351L237 819Z" />
<glyph unicode="&#xd3;" glyph-name="Oacute" horiz-adv-x="704" d="M354 641Q421 641 478 619T576 556T640 453T664 314Q664 238 640 178T574 76T475 12T350 -11Q283 -11 226 10T128 73T64 175T40 314Q40 390 64 450T130 553T229 618T354 641ZM185 314Q185 258
198 217T235 148T288 107T354 93Q388 93 418 106T471 147T506 216T519 314Q519 372 506 414T469 483T416 524T350 537Q315 537 285 523T233 482T198 412T185 314ZM351 695H242L322 819H466L351 695Z" />
<glyph unicode="&#xd4;" glyph-name="Ocircumflex" horiz-adv-x="704" d="M354 641Q421 641 478 619T576 556T640 453T664 314Q664 238 640 178T574 76T475 12T350 -11Q283 -11 226 10T128 73T64 175T40 314Q40 390 64 450T130 553T229 618T354 641ZM185 314Q185
258 198 217T235 148T288 107T354 93Q388 93 418 106T471 147T506 216T519 314Q519 372 506 414T469 483T416 524T350 537Q315 537 285 523T233 482T198 412T185 314ZM305 821H404L522 695H419L354 764L289 695H191L305 821Z" />
<glyph unicode="&#xd5;" glyph-name="Otilde" horiz-adv-x="704" d="M354 641Q421 641 478 619T576 556T640 453T664 314Q664 238 640 178T574 76T475 12T350 -11Q283 -11 226 10T128 73T64 175T40 314Q40 390 64 450T130 553T229 618T354 641ZM185 314Q185 258
198 217T235 148T288 107T354 93Q388 93 418 106T471 147T506 216T519 314Q519 372 506 414T469 483T416 524T350 537Q315 537 285 523T233 482T198 412T185 314ZM197 695Q197 745 220 779T288 813Q306 813 321 808T349 796T376 784T403 778Q419 778 426 788T435
816H500Q500 765 477 733T414 700Q394 700 377 705T345 717T317 728T294 734Q277 734 271 723T262 695H197Z" />
<glyph unicode="&#xd6;" glyph-name="Odieresis" horiz-adv-x="704" d="M354 641Q421 641 478 619T576 556T640 453T664 314Q664 238 640 178T574 76T475 12T350 -11Q283 -11 226 10T128 73T64 175T40 314Q40 390 64 450T130 553T229 618T354 641ZM185 314Q185
258 198 217T235 148T288 107T354 93Q388 93 418 106T471 147T506 216T519 314Q519 372 506 414T469 483T416 524T350 537Q315 537 285 523T233 482T198 412T185 314ZM192 751Q192 777 211 795T256 813Q282 813 300 795T319 751Q319 724 301 706T256 687Q230 687
211 705T192 751ZM388 751Q388 777 406 795T451 813Q477 813 495 795T514 751Q514 724 496 706T451 687Q425 687 407 705T388 751Z" />
<glyph unicode="&#xd7;" glyph-name="multiply" horiz-adv-x="445" d="M39 175L163 299L39 424L98 483L222 359L346 482L405 423L281 299L405 176L346 117L222 240L98 116L39 175Z" />
<glyph unicode="&#xd8;" glyph-name="Oslash" horiz-adv-x="704" d="M517 754L580 727L522 597Q587 558 625 487T664 314Q664 238 640 178T574 76T475 12T350 -11Q326 -11 302 -8T256 1L186 -161L123 -133L193 25Q123 63 82 135T40 314Q40 390 64 450T130 553T229
618T354 641Q381 641 408 637T460 625L517 754ZM185 314Q185 245 201 201T243 132L412 527Q398 532 382 534T350 537Q315 537 285 523T233 482T198 412T185 314ZM354 93Q388 93 418 106T471 147T506 216T519 314Q519 376 506 418T470 486L304 99Q328 93 354 93Z"
/>
<glyph unicode="&#xd9;" glyph-name="Ugrave" horiz-adv-x="661" d="M67 630H204V253Q204 175 235 135T333 94Q398 94 427 135T456 241V630H593V251Q593 119 528 54T333 -11Q209 -11 138 54T67 256V630ZM213 819H357L437 695H328L213 819Z" />
<glyph unicode="&#xda;" glyph-name="Uacute" horiz-adv-x="661" d="M67 630H204V253Q204 175 235 135T333 94Q398 94 427 135T456 241V630H593V251Q593 119 528 54T333 -11Q209 -11 138 54T67 256V630ZM334 695H224L304 819H448L334 695Z" />
<glyph unicode="&#xdb;" glyph-name="Ucircumflex" horiz-adv-x="661" d="M67 630H204V253Q204 175 235 135T333 94Q398 94 427 135T456 241V630H593V251Q593 119 528 54T333 -11Q209 -11 138 54T67 256V630ZM284 821H383L500 695H398L333 764L268 695H169L284 821Z" />
<glyph unicode="&#xdc;" glyph-name="Udieresis" horiz-adv-x="661" d="M67 630H204V253Q204 175 235 135T333 94Q398 94 427 135T456 241V630H593V251Q593 119 528 54T333 -11Q209 -11 138 54T67 256V630ZM172 751Q172 777 190 795T235 813Q262 813 280 795T298
751Q298 724 280 706T235 687Q209 687 191 705T172 751ZM367 751Q367 777 385 795T431 813Q457 813 475 795T493 751Q493 724 475 706T431 687Q404 687 386 705T367 751Z" />
<glyph unicode="&#xdd;" glyph-name="Yacute" horiz-adv-x="584" d="M160 630L294 385L430 630H579L359 260V0H222V260L6 630H160ZM320 695H211L291 819H435L320 695Z" />
<glyph unicode="&#xde;" glyph-name="Thorn" horiz-adv-x="544" d="M67 630H198V506Q220 513 241 515T286 517Q335 517 376 503T446 463T492 400T509 317Q509 262 490 222T438 156T360 116T262 103Q249 103 231 104T198 108V0H67V630ZM198 211Q212 206 225 205T256
203Q310 203 342 231T374 312Q374 366 343 392T264 418Q226 418 198 407V211Z" />
<glyph unicode="&#xdf;" glyph-name="germandbls" horiz-adv-x="611" d="M68 0V472Q68 526 81 571T125 650T202 701T315 720Q357 720 395 708T462 674T509 620T527 547Q527 521 522 501T507 462Q458 451 437 433T416 385Q416 356 433 336T477 295Q521 262 546
228T572 143Q572 76 522 33T373 -11Q358 -11 341 -10T306 -5T274 2T248 13L276 105Q318 87 364 87Q402 87 420 105T439 148Q439 176 421 194T367 238Q329 266 307 298T284 380Q284 422 310 455T384 502Q390 515 390 543Q390 580 366 600T308 620Q283 620 263 612T229
584T207 534T199 458V0H68Z" />
<glyph unicode="&#xe0;" glyph-name="agrave" horiz-adv-x="506" d="M68 435Q111 460 159 473T261 487Q304 487 339 477T400 446T439 391T453 310V0H350L338 49H334Q311 21 276 5T193 -11Q154 -11 124 0T73 31T42 78T31 136Q31 177 48 206T97 255T169 283T259
292H319V321Q319 354 299 369T241 385Q212 385 182 376T114 347L68 435ZM320 209L277 208Q216 206 192 188T168 143Q168 109 188 97T235 84Q261 84 284 99T320 134V209ZM135 697H268L338 548H244L135 697Z" />
<glyph unicode="&#xe1;" glyph-name="aacute" horiz-adv-x="506" d="M68 435Q111 460 159 473T261 487Q304 487 339 477T400 446T439 391T453 310V0H350L338 49H334Q311 21 276 5T193 -11Q154 -11 124 0T73 31T42 78T31 136Q31 177 48 206T97 255T169 283T259
292H319V321Q319 354 299 369T241 385Q212 385 182 376T114 347L68 435ZM320 209L277 208Q216 206 192 188T168 143Q168 109 188 97T235 84Q261 84 284 99T320 134V209ZM290 548H196L266 697H399L290 548Z" />
<glyph unicode="&#xe2;" glyph-name="acircumflex" horiz-adv-x="506" d="M68 435Q111 460 159 473T261 487Q304 487 339 477T400 446T439 391T453 310V0H350L338 49H334Q311 21 276 5T193 -11Q154 -11 124 0T73 31T42 78T31 136Q31 177 48 206T97 255T169 283T259
292H319V321Q319 354 299 369T241 385Q212 385 182 376T114 347L68 435ZM320 209L277 208Q216 206 192 188T168 143Q168 109 188 97T235 84Q261 84 284 99T320 134V209ZM422 548H323L261 625L198 548H96L222 690H299L422 548Z" />
<glyph unicode="&#xe3;" glyph-name="atilde" horiz-adv-x="506" d="M68 435Q111 460 159 473T261 487Q304 487 339 477T400 446T439 391T453 310V0H350L338 49H334Q311 21 276 5T193 -11Q154 -11 124 0T73 31T42 78T31 136Q31 177 48 206T97 255T169 283T259
292H319V321Q319 354 299 369T241 385Q212 385 182 376T114 347L68 435ZM320 209L277 208Q216 206 192 188T168 143Q168 109 188 97T235 84Q261 84 284 99T320 134V209ZM87 548Q87 610 111 644T180 679Q200 679 217 672T251 656T281 640T307 633Q327 633 333 649T340
685H405Q406 622 383 589T314 555Q291 555 273 562T238 577T209 593T185 600Q168 600 161 586T152 548H87Z" />
<glyph unicode="&#xe4;" glyph-name="adieresis" horiz-adv-x="506" d="M68 435Q111 460 159 473T261 487Q304 487 339 477T400 446T439 391T453 310V0H350L338 49H334Q311 21 276 5T193 -11Q154 -11 124 0T73 31T42 78T31 136Q31 177 48 206T97 255T169 283T259
292H319V321Q319 354 299 369T241 385Q212 385 182 376T114 347L68 435ZM320 209L277 208Q216 206 192 188T168 143Q168 109 188 97T235 84Q261 84 284 99T320 134V209ZM97 621Q97 647 116 666T162 685Q190 685 208 666T226 621Q226 593 208 574T162 555Q136 555
117 574T97 621ZM295 621Q295 647 314 666T360 685Q388 685 406 666T424 621Q424 593 406 574T360 555Q334 555 315 574T295 621Z" />
<glyph unicode="&#xe5;" glyph-name="aring" horiz-adv-x="506" d="M68 435Q111 460 159 473T261 487Q304 487 339 477T400 446T439 391T453 310V0H350L338 49H334Q311 21 276 5T193 -11Q154 -11 124 0T73 31T42 78T31 136Q31 177 48 206T97 255T169 283T259 292H319V321Q319
354 299 369T241 385Q212 385 182 376T114 347L68 435ZM320 209L277 208Q216 206 192 188T168 143Q168 109 188 97T235 84Q261 84 284 99T320 134V209ZM161 623Q161 646 170 663T193 691T226 707T265 713Q285 713 303 708T336 691T359 663T368 623Q368 600 359
583T336 555T303 538T265 532Q245 532 227 538T194 555T170 584T161 623ZM221 623Q221 600 233 589T265 577Q283 577 295 588T308 623Q308 646 295 657T265 669Q247 669 234 658T221 623Z" />
<glyph unicode="&#xe6;" glyph-name="ae" horiz-adv-x="795" d="M762 210H447V206Q447 145 486 116T588 87Q628 87 659 95T714 114L739 21Q713 8 674 -1T581 -11Q518 -11 466 8T378 68H374Q345 33 304 11T197 -11Q157 -11 126 0T74 31T42 78T31 136Q31 177 48
206T97 255T169 283T259 292H328V321Q328 354 305 369T241 385Q212 385 182 376T114 347L68 435Q111 460 157 473T258 487Q305 487 343 472T402 425H404Q428 455 466 471T551 487Q648 487 705 428T762 261V210ZM168 143Q168 109 188 97T235 84Q265 84 293 99T336
141Q326 169 323 209L277 208Q216 206 192 188T168 143ZM626 293Q626 312 622 330T608 362T583 384T546 393Q506 393 480 366T450 292L626 293Z" />
<glyph unicode="&#xe7;" glyph-name="ccedilla" horiz-adv-x="466" d="M315 87Q347 87 371 95T411 112L436 20Q417 9 382 0T303 -11L285 -47Q321 -50 342 -69T364 -117Q364 -159 331 -179T248 -200Q223 -200 202 -196T166 -186L183 -131Q208 -140 233 -140Q253
-140 265 -133T278 -112Q278 -95 261 -87T202 -78L234 -4Q191 3 156 22T94 72T54 143T39 237Q39 293 58 339T111 418T192 469T297 487Q328 487 363 481T436 455L407 363Q386 375 362 382T312 390Q250 390 212 352T174 241Q174 198 186 169T219 121T264 95T315 87Z"
/>
<glyph unicode="&#xe8;" glyph-name="egrave" horiz-adv-x="519" d="M485 211H168V207Q168 146 208 117T311 87Q351 87 381 95T437 114L461 21Q434 8 393 -1T296 -11Q242 -11 195 3T112 48T55 124T34 234Q34 291 51 337T99 417T175 468T273 487Q370 487 427 428T485
263V211ZM349 295Q349 314 345 332T330 363T305 385T268 393Q228 393 202 366T171 293L349 295ZM163 697H296L366 548H272L163 697Z" />
<glyph unicode="&#xe9;" glyph-name="eacute" horiz-adv-x="519" d="M485 211H168V207Q168 146 208 117T311 87Q351 87 381 95T437 114L461 21Q434 8 393 -1T296 -11Q242 -11 195 3T112 48T55 124T34 234Q34 291 51 337T99 417T175 468T273 487Q370 487 427 428T485
263V211ZM349 295Q349 314 345 332T330 363T305 385T268 393Q228 393 202 366T171 293L349 295ZM279 548H184L254 697H387L279 548Z" />
<glyph unicode="&#xea;" glyph-name="ecircumflex" horiz-adv-x="519" d="M485 211H168V207Q168 146 208 117T311 87Q351 87 381 95T437 114L461 21Q434 8 393 -1T296 -11Q242 -11 195 3T112 48T55 124T34 234Q34 291 51 337T99 417T175 468T273 487Q370 487 427
428T485 263V211ZM349 295Q349 314 345 332T330 363T305 385T268 393Q228 393 202 366T171 293L349 295ZM432 548H333L271 625L208 548H106L232 690H309L432 548Z" />
<glyph unicode="&#xeb;" glyph-name="edieresis" horiz-adv-x="519" d="M485 211H168V207Q168 146 208 117T311 87Q351 87 381 95T437 114L461 21Q434 8 393 -1T296 -11Q242 -11 195 3T112 48T55 124T34 234Q34 291 51 337T99 417T175 468T273 487Q370 487 427
428T485 263V211ZM349 295Q349 314 345 332T330 363T305 385T268 393Q228 393 202 366T171 293L349 295ZM107 621Q107 647 126 666T172 685Q200 685 218 666T236 621Q236 593 218 574T172 555Q146 555 127 574T107 621ZM305 621Q305 647 324 666T370 685Q398 685
416 666T434 621Q434 593 416 574T370 555Q344 555 325 574T305 621Z" />
<glyph unicode="&#xec;" glyph-name="igrave" horiz-adv-x="276" d="M72 0V477H205V0H72ZM-6 697H127L197 548H103L-6 697Z" />
<glyph unicode="&#xed;" glyph-name="iacute" horiz-adv-x="276" d="M72 0V477H205V0H72ZM174 548H79L149 697H282L174 548Z" />
<glyph unicode="&#xee;" glyph-name="icircumflex" horiz-adv-x="276" d="M72 0V477H205V0H72ZM299 548H200L138 625L76 548H-27L99 690H176L299 548Z" />
<glyph unicode="&#xef;" glyph-name="idieresis" horiz-adv-x="276" d="M72 0V477H205V0H72ZM-27 621Q-27 647 -8 666T38 685Q66 685 84 666T102 621Q102 593 84 574T38 555Q12 555 -7 574T-27 621ZM171 621Q171 647 190 666T236 685Q264 685 282 666T301 621Q301
593 283 574T236 555Q210 555 191 574T171 621Z" />
<glyph unicode="&#xf0;" glyph-name="eth" horiz-adv-x="559" d="M252 457Q287 457 321 445T378 411L381 413Q374 435 363 457T337 500T306 538T274 568L159 511L132 561L225 607Q202 622 177 631T123 649L172 736Q214 725 257 706T335 660L427 708L457 656L381
618Q408 591 433 555T477 474T508 374T520 258Q520 201 505 152T459 67T383 10T277 -11Q235 -11 193 2T116 45T59 118T37 224Q37 279 53 322T99 396T168 441T252 457ZM279 360Q260 360 241 354T207 331T181 290T171 227Q171 188 181 161T206 118T242 94T282 87Q305
87 325 98T359 127T382 172T390 228Q390 260 381 284T357 326T321 351T279 360Z" />
<glyph unicode="&#xf1;" glyph-name="ntilde" horiz-adv-x="563" d="M193 0H60V477H163L179 416Q212 450 251 468T339 487Q418 487 460 444T503 319V0H370V305Q370 342 352 363T298 385Q272 385 244 371T193 331V0ZM120 548Q120 610 144 644T213 679Q233 679 250
672T284 656T314 640T340 633Q360 633 366 649T373 685H438Q439 622 416 589T347 555Q324 555 306 562T271 577T242 593T218 600Q201 600 194 586T185 548H120Z" />
<glyph unicode="&#xf2;" glyph-name="ograve" horiz-adv-x="568" d="M529 242Q529 183 510 136T458 57T379 7T282 -11Q230 -11 186 5T109 52T58 128T39 232Q39 293 58 340T110 420T189 470T286 487Q338 487 382 471T459 425T510 348T529 242ZM392 237Q392 278
383 307T359 354T324 380T283 389Q262 389 243 382T209 357T185 310T176 237Q176 198 185 170T209 123T244 96T285 87Q306 87 325 94T359 120T383 166T392 237ZM147 697H280L350 548H255L147 697Z" />
<glyph unicode="&#xf3;" glyph-name="oacute" horiz-adv-x="568" d="M529 242Q529 183 510 136T458 57T379 7T282 -11Q230 -11 186 5T109 52T58 128T39 232Q39 293 58 340T110 420T189 470T286 487Q338 487 382 471T459 425T510 348T529 242ZM392 237Q392 278
383 307T359 354T324 380T283 389Q262 389 243 382T209 357T185 310T176 237Q176 198 185 170T209 123T244 96T285 87Q306 87 325 94T359 120T383 166T392 237ZM314 548H219L289 697H422L314 548Z" />
<glyph unicode="&#xf4;" glyph-name="ocircumflex" horiz-adv-x="568" d="M529 242Q529 183 510 136T458 57T379 7T282 -11Q230 -11 186 5T109 52T58 128T39 232Q39 293 58 340T110 420T189 470T286 487Q338 487 382 471T459 425T510 348T529 242ZM392 237Q392
278 383 307T359 354T324 380T283 389Q262 389 243 382T209 357T185 310T176 237Q176 198 185 170T209 123T244 96T285 87Q306 87 325 94T359 120T383 166T392 237ZM446 548H348L285 625L223 548H120L246 690H323L446 548Z" />
<glyph unicode="&#xf5;" glyph-name="otilde" horiz-adv-x="568" d="M529 242Q529 183 510 136T458 57T379 7T282 -11Q230 -11 186 5T109 52T58 128T39 232Q39 293 58 340T110 420T189 470T286 487Q338 487 382 471T459 425T510 348T529 242ZM392 237Q392 278
383 307T359 354T324 380T283 389Q262 389 243 382T209 357T185 310T176 237Q176 198 185 170T209 123T244 96T285 87Q306 87 325 94T359 120T383 166T392 237ZM121 548Q121 610 145 644T214 679Q234 679 251 672T285 656T314 640T340 633Q360 633 366 649T374
685H439Q440 622 417 589T348 555Q325 555 306 562T271 577T243 593T219 600Q202 600 195 586T186 548H121Z" />
<glyph unicode="&#xf6;" glyph-name="odieresis" horiz-adv-x="568" d="M529 242Q529 183 510 136T458 57T379 7T282 -11Q230 -11 186 5T109 52T58 128T39 232Q39 293 58 340T110 420T189 470T286 487Q338 487 382 471T459 425T510 348T529 242ZM392 237Q392 278
383 307T359 354T324 380T283 389Q262 389 243 382T209 357T185 310T176 237Q176 198 185 170T209 123T244 96T285 87Q306 87 325 94T359 120T383 166T392 237ZM119 621Q119 647 138 666T184 685Q212 685 230 666T248 621Q248 593 230 574T184 555Q158 555 139
574T119 621ZM317 621Q317 647 336 666T382 685Q410 685 428 666T446 621Q446 593 428 574T382 555Q356 555 337 574T317 621Z" />
<glyph unicode="&#xf7;" glyph-name="divide" horiz-adv-x="521" d="M191 94Q191 120 211 140T258 161Q286 161 305 141T325 94Q325 65 306 46T258 27Q231 27 211 46T191 94ZM191 415Q191 441 211 461T258 482Q286 482 305 462T325 415Q325 386 306 367T258 348Q231
348 211 367T191 415ZM483 291V219H38V291H483Z" />
<glyph unicode="&#xf8;" glyph-name="oslash" horiz-adv-x="568" d="M380 566L437 547L405 462Q461 435 494 381T529 245Q530 186 512 139T460 58T382 8T285 -11Q248 -11 221 -4L191 -87L135 -68L166 13Q109 41 75 94T39 229Q38 290 56 338T108 419T186 469T283
487Q317 487 349 481L380 566ZM281 389Q260 389 241 382T208 357T185 310T176 236Q176 194 185 166T210 121L307 387Q301 388 295 388T281 389ZM392 239Q392 281 383 309T358 354L261 90Q273 87 287 87Q307 87 326 95T359 121T383 168T392 239Z" />
<glyph unicode="&#xf9;" glyph-name="ugrave" horiz-adv-x="561" d="M368 477H501V0H402L388 54H384Q373 43 359 32T325 11T281 -5T226 -11Q149 -11 105 32T60 159V477H193V170Q193 127 213 108T266 89Q302 89 327 104T368 139V477ZM129 697H262L332 548H237L129 697Z" />
<glyph unicode="&#xfa;" glyph-name="uacute" horiz-adv-x="561" d="M368 477H501V0H402L388 54H384Q373 43 359 32T325 11T281 -5T226 -11Q149 -11 105 32T60 159V477H193V170Q193 127 213 108T266 89Q302 89 327 104T368 139V477ZM324 548H230L300 697H433L324 548Z" />
<glyph unicode="&#xfb;" glyph-name="ucircumflex" horiz-adv-x="561" d="M368 477H501V0H402L388 54H384Q373 43 359 32T325 11T281 -5T226 -11Q149 -11 105 32T60 159V477H193V170Q193 127 213 108T266 89Q302 89 327 104T368 139V477ZM445 548H346L284 625L221
548H119L245 690H322L445 548Z" />
<glyph unicode="&#xfc;" glyph-name="udieresis" horiz-adv-x="561" d="M368 477H501V0H402L388 54H384Q373 43 359 32T325 11T281 -5T226 -11Q149 -11 105 32T60 159V477H193V170Q193 127 213 108T266 89Q302 89 327 104T368 139V477ZM114 621Q114 647 133 666T179
685Q207 685 225 666T243 621Q243 593 225 574T179 555Q153 555 134 574T114 621ZM312 621Q312 647 331 666T377 685Q405 685 423 666T442 621Q442 593 424 574T377 555Q351 555 332 574T312 621Z" />
<glyph unicode="&#xfd;" glyph-name="yacute" horiz-adv-x="520" d="M7 477H152L237 250L269 134H273L304 251L378 477H514L339 -17Q324 -58 306 -95T261 -165T198 -222T113 -263L58 -160Q114 -140 152 -102T204 -11L208 2L7 477ZM300 548H205L275 697H408L300 548Z" />
<glyph unicode="&#xfe;" glyph-name="thorn" horiz-adv-x="572" d="M533 237Q533 180 516 134T469 56T398 6T309 -11Q239 -11 194 22V-170H62V714H194V439Q219 462 252 474T324 487Q422 487 477 421T533 237ZM396 234Q396 308 367 346T285 385Q257 385 233 372T195
342V122Q208 106 228 97T272 87Q296 87 318 96T358 123T386 168T396 234Z" />
<glyph unicode="&#xff;" glyph-name="ydieresis" horiz-adv-x="520" d="M7 477H152L237 250L269 134H273L304 251L378 477H514L339 -17Q324 -58 306 -95T261 -165T198 -222T113 -263L58 -160Q114 -140 152 -102T204 -11L208 2L7 477ZM104 621Q104 647 123 666T169
685Q197 685 215 666T234 621Q234 593 216 574T169 555Q143 555 124 574T104 621ZM303 621Q303 647 322 666T368 685Q395 685 413 666T432 621Q432 593 414 574T368 555Q341 555 322 574T303 621Z" />
<glyph unicode="&#x2013;" glyph-name="endash" horiz-adv-x="500" d="M464 271V188H36V271H464Z" />
<glyph unicode="&#x2014;" glyph-name="emdash" horiz-adv-x="913" d="M877 270V188H36V270H877Z" />
<glyph unicode="&#x2018;" glyph-name="quoteleft" horiz-adv-x="229" d="M123 595Q156 588 174 566T192 511Q192 479 171 456T111 432Q96 432 80 438T52 458T31 496T22 552Q22 586 33 617T63 675T106 723T156 758L194 706Q163 689 139 661T108 598L123 595Z" />
<glyph unicode="&#x2019;" glyph-name="quoteright" horiz-adv-x="229" d="M106 595Q73 602 55 624T37 679Q37 711 58 734T118 758Q133 758 148 752T177 732T198 695T206 639Q206 604 195 573T165 515T122 467T73 432L35 484Q65 501 89 529T121 592L106 595Z" />
<glyph unicode="&#x201a;" glyph-name="quotesinglbase" horiz-adv-x="232" d="M104 -9Q71 -3 52 18T32 72Q32 104 54 128T115 153Q130 153 147 147T177 126T200 89T209 33Q209 -1 198 -32T169 -90T126 -138T76 -173L38 -121Q68 -104 92 -76T124 -13L104 -9Z" />
<glyph unicode="&#x201c;" glyph-name="quotedblleft" horiz-adv-x="465" d="M123 595Q156 588 174 566T192 511Q192 479 172 456T113 432Q98 432 82 438T52 458T31 496T22 552Q22 586 33 617T63 675T106 723T156 758L194 706Q163 689 139 661T108 598L123 595ZM359
595Q392 588 410 566T428 511Q428 479 408 456T349 432Q334 432 318 438T289 458T268 496T259 552Q259 586 270 617T299 675T342 723T392 758L430 706Q400 689 376 661T344 598L359 595Z" />
<glyph unicode="&#x201d;" glyph-name="quotedblright" horiz-adv-x="465" d="M106 595Q73 602 55 624T37 679Q37 711 57 734T116 758Q131 758 147 752T176 732T197 695T206 639Q206 604 195 573T165 515T122 467T73 432L35 484Q65 501 89 529T121 592L106 595ZM342
595Q309 602 291 624T273 679Q273 711 293 734T352 758Q367 758 383 752T412 732T433 695T442 639Q442 604 431 573T402 515T359 467T309 432L271 484Q301 501 325 529T357 592L342 595Z" />
<glyph unicode="&#x201e;" glyph-name="quotedblbase" horiz-adv-x="476" d="M104 -9Q71 -3 52 18T32 72Q32 104 54 128T115 153Q130 153 147 147T177 126T200 89T209 33Q209 -1 198 -32T169 -90T126 -138T76 -173L38 -121Q68 -104 92 -76T124 -13L104 -9ZM348
-9Q315 -3 296 18T276 72Q276 104 298 128T359 153Q374 153 390 147T421 126T444 89T453 33Q453 -1 442 -32T412 -90T369 -138T320 -173L282 -121Q312 -104 336 -76T368 -13L348 -9Z" />
<glyph unicode="&#x2022;" glyph-name="bullet" horiz-adv-x="353" d="M44 273Q44 301 54 325T82 368T124 396T177 406Q205 406 229 396T271 367T299 325T309 273Q309 245 299 221T271 179T229 151T177 141Q149 141 125 151T82 179T54 221T44 273Z" />
<glyph unicode="&#x2039;" glyph-name="guilsinglleft" horiz-adv-x="298" d="M164 76L31 237L164 397H270L149 237L270 76H164Z" />
<glyph unicode="&#x203a;" glyph-name="guilsinglright" horiz-adv-x="297" d="M29 76L150 236L29 397H135L268 236L135 76H29Z" />
</font>
</defs>
</svg>
