<?xml version="1.0" standalone="no"?>
<!DOCTYPE svg PUBLIC "-//W3C//DTD SVG 1.1//EN" "http://www.w3.org/Graphics/SVG/1.1/DTD/svg11.dtd">
<svg xmlns="http://www.w3.org/2000/svg">
<defs >
<font id="TenorSans" horiz-adv-x="484" ><font-face
    font-family="Tenor Sans"
    units-per-em="1000"
    panose-1="2 0 0 0 0 0 0 0 0 0"
    ascent="920"
    descent="-250"
    alphabetic="0" />
<glyph unicode=" " glyph-name="space" horiz-adv-x="350" />
<glyph unicode="!" glyph-name="exclam" horiz-adv-x="348" d="M120 42Q120 64 136 80T174 96Q196 96 212 80T228 42Q228 20 212 4T174 -12Q152 -12 136 4T120 42ZM195 134H148L117 700H227L195 134Z" />
<glyph unicode="&quot;" glyph-name="quotedbl" horiz-adv-x="345" d="M102 516H61L30 747H131L102 516ZM284 516H246L215 747H315L284 516Z" />
<glyph unicode="#" glyph-name="numbersign" horiz-adv-x="866" d="M322 461L365 665H428L384 461H543L587 666H647L604 461H806L793 400H591L558 240H760L746 179H545L500 -22H440L483 179H324L281 -22H219L262 179H60L73 240H277L308 400H104L119 461H322ZM338
240H497L531 400H370L338 240Z" />
<glyph unicode="$" glyph-name="dollar" horiz-adv-x="625" d="M268 797V711Q226 708 189 695T125 658T81 602T65 527Q65 483 82 452T128 399T193 361T268 331V33Q215 37 184 54T135 93T112 138T105 177H37Q38 138 56 105T104 48T176 9T268 -10V-125H341V-10Q441
-2 499 50T557 187Q557 235 539 268T490 327T420 369T341 401V664Q390 656 423 630T463 554H531Q520 619 467 658T341 709V797H268ZM473 157Q473 101 438 71T341 34V304Q368 293 392 280T434 249T462 210T473 157ZM138 552Q138 594 171 626T268 666V428Q241 439
217 451T176 477T148 510T138 552Z" />
<glyph unicode="%" glyph-name="percent" horiz-adv-x="742" d="M60 554Q60 579 68 607T94 658T139 696T206 712Q245 712 273 697T319 658T345 607T353 554Q353 522 343 493T313 441T266 406T206 393Q173 393 146 406T100 441T71 492T60 554ZM125 554Q125 518
133 494T153 454T179 433T206 426Q219 426 233 432T259 454T279 493T287 554Q287 575 283 597T270 637T246 666T206 678Q183 678 168 667T143 637T129 597T125 554ZM388 146Q388 172 396 200T422 252T468 291T535 306Q574 306 602 291T648 253T674 201T682 146Q682
115 672 87T642 37T595 2T535 -11Q502 -11 475 2T429 36T399 86T388 146ZM454 146Q454 110 462 86T482 47T509 26T535 20Q547 20 561 26T588 47T608 86T616 146Q616 168 613 191T600 232T575 261T535 273Q512 273 497 262T472 232T458 191T454 146ZM595 712L208
-12H149L534 712H595Z" />
<glyph unicode="&amp;" glyph-name="ampersand" horiz-adv-x="706" d="M508 60Q447 15 399 2T309 -11Q248 -11 202 5T124 49T76 112T60 183Q60 221 74 253T114 312T174 362T248 404Q216 449 194 486T171 566Q171 591 179 617T206 665T253 699T322 713Q353 713
380 703T427 674T459 629T471 569Q471 527 443 487T344 413L543 151Q573 191 589 242T608 374H686Q681 320 666 277T632 201T596 147T569 115L660 0H554L508 60ZM327 669Q305 669 290 662T264 642T250 615T245 585Q245 550 267 517T321 443Q334 450 349 462T378
491T399 529T408 575Q408 588 404 604T391 635T367 659T327 669ZM273 369Q200 331 173 294T145 212Q145 171 162 140T206 86T267 53T334 41Q342 41 358 42T396 49T439 64T483 92L273 369Z" />
<glyph unicode="&apos;" glyph-name="quotesingle" horiz-adv-x="160" d="M102 516H60L30 747H130L102 516Z" />
<glyph unicode="(" glyph-name="parenleft" horiz-adv-x="300" d="M280 681Q248 652 230 614T202 523T190 402T187 246Q187 158 189 90T202 -32T230 -124T280 -192V-219Q237 -201 207 -167T156 -90T125 1T108 95T101 180T99 246Q99 273 100 312T107 397T124 490T156
580T206 657T280 710V681Z" />
<glyph unicode=")" glyph-name="parenright" horiz-adv-x="300" d="M20 -190Q51 -162 69 -123T98 -32T110 89T113 245Q113 333 110 401T98 523T70 615T20 683V710Q63 692 93 658T144 581T175 490T192 396T199 311T201 245Q201 219 200 180T193 95T176 1T144 -89T94
-166T20 -219V-190Z" />
<glyph unicode="*" glyph-name="asterisk" horiz-adv-x="333" d="M82 439L113 538L30 600H135L166 700L199 600H303L218 538L251 439L166 502L82 439Z" />
<glyph unicode="+" glyph-name="plus" horiz-adv-x="888" d="M475 712V394H788V350H475V26H414V350H100V394H414V712H475Z" />
<glyph unicode="," glyph-name="comma" horiz-adv-x="254" d="M93 -136H60V122H154L93 -136Z" />
<glyph unicode="-" glyph-name="hyphen" horiz-adv-x="367" d="M307 305V230H60V305H307Z" />
<glyph unicode="." glyph-name="period" horiz-adv-x="268" d="M80 43Q80 65 96 81T134 97Q156 97 172 81T188 43Q188 21 172 5T134 -11Q112 -11 96 5T80 43Z" />
<glyph unicode="/" glyph-name="slash" horiz-adv-x="516" d="M486 712L99 -12H30L415 712H486Z" />
<glyph unicode="0" glyph-name="zero" horiz-adv-x="597" d="M60 348Q60 377 64 415T79 494T107 574T151 643T213 693T297 712Q345 712 381 693T444 644T489 574T517 495T532 416T537 348Q537 285 523 222T480 106T405 22T297 -11Q235 -11 191 21T117 106T74 221T60
348ZM160 348Q160 297 164 241T182 139T224 63T297 33Q344 33 372 63T414 139T433 241T437 348Q437 400 433 457T415 560T372 637T297 668Q251 668 224 638T183 561T164 457T160 348Z" />
<glyph unicode="1" glyph-name="one" horiz-adv-x="319" d="M219 0H134V606L57 526L30 554L171 700H219V0Z" />
<glyph unicode="2" glyph-name="two" horiz-adv-x="544" d="M514 0H54L243 211Q268 241 296 276T349 350T389 431T405 517Q405 586 369 627T275 668Q241 668 219 655T182 621T160 571T150 511H50Q50 553 67 590T114 654T186 696T275 712Q329 712 372 697T444 654T488
592T504 517Q504 468 495 433T465 366T412 297T333 211L203 72H514V0Z" />
<glyph unicode="3" glyph-name="three" horiz-adv-x="574" d="M241 394Q262 394 289 398T341 417T382 459T399 530Q399 557 392 581T369 625T329 656T272 668Q251 668 232 663T198 645T173 607T159 546H70Q71 573 81 602T116 656T179 696T277 712Q331 712 370
697T435 656T473 596T485 525Q485 473 457 441T372 384L361 380V373L372 371Q405 366 431 350T475 310T504 258T514 201Q514 161 499 123T452 56T375 8T266 -10Q222 -11 183 2T115 38T68 93T50 158H150Q151 134 160 111T186 71T226 44T278 33Q338 33 375 73T413
197Q413 215 409 241T389 291T337 333T241 350V394Z" />
<glyph unicode="4" glyph-name="four" horiz-adv-x="547" d="M412 221H507V168H412V0H331V168H30L375 700H412V221ZM108 221H331V566L108 221Z" />
<glyph unicode="5" glyph-name="five" horiz-adv-x="564" d="M177 449Q205 460 227 465T278 471Q326 471 367 456T438 411T486 340T504 248Q504 186 484 138T428 57T345 7T243 -11Q197 -11 159 2T92 39T48 94T30 162H103Q104 135 114 112T141 71T184 43T241 33Q270
33 299 44T351 81T389 146T404 242Q404 321 362 370T236 419Q216 419 181 415T103 389L192 700H495L475 645H235L177 449Z" />
<glyph unicode="6" glyph-name="six" horiz-adv-x="585" d="M490 594Q486 625 470 647T430 684T376 705T313 712Q244 712 196 682T118 601T74 485T60 352Q60 288 69 224T103 107T175 22T296 -11Q347 -11 389 8T461 60T508 137T525 231Q525 291 506 334T457 405T390
446T315 460Q253 460 216 435T161 376L149 353H145Q145 423 151 481T176 580T226 645T308 668Q346 668 373 649T406 594H490ZM155 224Q155 276 168 312T201 371T247 404T297 415Q319 415 343 406T387 375T419 316T432 224Q432 164 418 127T383 68T339 40T296 33Q272
33 247 43T201 77T168 137T155 224Z" />
<glyph unicode="7" glyph-name="seven" horiz-adv-x="531" d="M501 700H30V645H396L283 367H172V324H266L135 0H218L349 324H451V367H366L501 700Z" />
<glyph unicode="8" glyph-name="eight" horiz-adv-x="585" d="M218 377Q183 381 158 397T115 435T89 484T80 536Q80 564 91 595T127 652T192 695T291 712Q349 712 389 695T455 652T491 595T503 536Q503 510 495 484T469 436T426 397T366 377V372Q403 370 432 354T482
312T514 255T525 193Q525 156 511 120T467 54T394 7T291 -11Q232 -11 189 7T117 54T74 119T60 193Q60 224 71 255T102 311T151 353T218 372V377ZM291 389Q316 389 339 397T381 423T411 466T422 527Q422 569 409 596T375 639T333 661T291 668Q272 668 250 662T209
640T176 597T163 527Q163 492 174 467T203 424T244 398T291 389ZM291 354Q261 354 236 343T194 311T167 263T157 203Q157 125 193 79T291 33Q354 33 391 79T428 203Q428 235 419 262T391 310T348 342T291 354Z" />
<glyph unicode="9" glyph-name="nine" horiz-adv-x="585" d="M179 107Q185 72 212 53T277 33Q327 33 359 56T409 120T433 220T440 348H436L427 325Q418 302 401 287T361 261T315 247T266 243Q232 243 196 256T129 297T80 367T60 470Q60 519 77 563T124 640T196
692T289 712Q363 712 409 679T481 594T516 477T525 349Q525 281 512 216T468 101T389 20T272 -11Q239 -11 209 -4T155 17T115 53T95 107H179ZM430 477Q430 528 417 564T384 623T339 657T289 668Q270 668 247 661T202 633T167 575T153 477Q153 421 165 385T198 326T241
295T288 286Q313 286 338 296T383 329T417 388T430 477Z" />
<glyph unicode=":" glyph-name="colon" horiz-adv-x="228" d="M60 42Q60 20 76 4T114 -12Q136 -12 152 4T168 42Q168 64 152 80T114 96Q92 96 76 80T60 42ZM60 457Q60 435 76 419T114 403Q136 403 152 419T168 457Q168 479 152 495T114 511Q92 511 76 495T60 457Z" />
<glyph unicode=";" glyph-name="semicolon" horiz-adv-x="228" d="M157 122H63V-136H96L157 122ZM60 457Q60 435 76 419T114 403Q136 403 152 419T168 457Q168 479 152 495T114 511Q92 511 76 495T60 457Z" />
<glyph unicode="&lt;" glyph-name="less" horiz-adv-x="782" d="M60 329L706 56L722 100L197 329L722 561L706 605L60 329Z" />
<glyph unicode="=" glyph-name="equal" horiz-adv-x="888" d="M100 223H788V285H100V223ZM100 475V414H788V475H100Z" />
<glyph unicode="&gt;" glyph-name="greater" horiz-adv-x="781" d="M721 329L76 605L60 561L585 329L60 100L76 56L721 329Z" />
<glyph unicode="?" glyph-name="question" horiz-adv-x="519" d="M324 257Q308 237 289 221T247 205Q235 205 223 216T210 248Q210 275 225 300T264 349T314 398T365 450T403 507T419 573Q419 598 412 623T386 667T335 699T254 712Q216 712 188 703T140 676T111
636T100 587H170V593Q170 611 177 626T198 653T227 670T260 676Q276 676 292 670T322 654T344 629T352 596Q352 565 338 540T302 491T255 446T208 399T170 348T152 287V277Q152 254 159 234T180 198T215 173T265 164Q290 164 319 180T372 224L324 257ZM197 42Q197
20 213 4T251 -12Q273 -12 289 4T305 42Q305 64 289 80T251 96Q229 96 213 80T197 42Z" />
<glyph unicode="@" glyph-name="at" horiz-adv-x="1029" d="M789 536H703L682 474Q666 498 649 511T615 531T584 540T559 542Q500 542 449 519T360 456T301 364T279 252Q279 199 294 162T335 100T393 65T460 54Q495 54 526 67T595 110Q609 88 625 75T659 55T691
46T719 44Q772 44 817 67T897 132T950 229T969 348Q969 390 963 432T942 514Q924 560 889 606T804 689T689 748T546 771Q497 771 449 765T355 741Q286 714 232 668T139 564T80 437T60 298Q60 211 92 126T183 -28T328 -139T522 -181Q550 -181 583 -178T655 -164T735
-133T824 -77L801 -48Q790 -58 767 -74T709 -106T626 -133T519 -144Q421 -144 343 -106T210 -5T126 137T96 297Q96 375 119 441T181 559T268 648T368 705Q406 720 446 727T528 734Q620 734 695 705T822 623T903 501T932 348Q932 288 912 239T862 155T797 100T729
81Q723 81 715 83T698 93T685 113T679 147Q679 158 683 178T699 235L789 536ZM587 157Q579 146 568 135T541 114T508 98T469 92Q423 92 401 126T379 214Q379 276 395 330T436 423T492 485T556 508Q594 508 622 481T658 408L587 157Z" />
<glyph unicode="A" glyph-name="A" horiz-adv-x="732" d="M509 206L605 0H702L376 700H326L30 0H76L164 206H509ZM488 251H183L327 588H331L488 251Z" />
<glyph unicode="B" glyph-name="B" horiz-adv-x="661" d="M120 0H371Q438 0 484 17T558 63T598 126T611 198Q611 255 587 289T528 341T458 365T400 372V376Q435 376 466 389T520 424T558 474T572 535Q572 563 560 592T524 645T461 684T370 700H120V0ZM211 44V350H321Q370
350 406 337T465 302T500 251T512 190Q512 155 500 128T466 82T417 54T356 44H211ZM211 394V656H333Q372 656 399 645T444 616T470 575T478 529Q478 500 467 475T435 432T388 404T331 394H211Z" />
<glyph unicode="C" glyph-name="C" horiz-adv-x="759" d="M709 129Q607 33 467 33Q389 33 329 60T229 132T169 236T148 359Q148 427 169 483T230 581T322 645T439 668Q482 668 517 658T580 632T625 596T650 554H724Q709 588 686 617T627 667T545 700T438 712Q351
712 280 687T157 616T78 504T50 357Q50 287 72 221T142 103T262 20T436 -12Q500 -12 550 0T638 29T701 67T739 102L709 129Z" />
<glyph unicode="D" glyph-name="D" horiz-adv-x="765" d="M130 0V700H360Q443 700 512 674T630 601T707 490T735 352Q735 275 707 211T629 99T513 26T372 0H130ZM221 44H331Q413 44 470 71T565 143T619 241T636 350Q636 410 616 465T558 563T462 631T331 656H221V44Z" />
<glyph unicode="E" glyph-name="E" horiz-adv-x="602" d="M120 700V0H572V55H211V348H521V394H211V645H572V700H120Z" />
<glyph unicode="F" glyph-name="F" horiz-adv-x="602" d="M120 700V0H211V348H521V394H211V645H572V700H120Z" />
<glyph unicode="G" glyph-name="G" horiz-adv-x="817" d="M757 312H559V271H671V90Q626 61 579 47T472 33Q393 33 334 57T236 123T178 224T158 353Q158 422 176 480T232 580T322 645T447 668Q494 668 535 658T608 632T660 596T687 554H759Q750 576 729 603T670
655T579 695T450 712Q365 712 294 688T170 619T89 509T60 360Q60 289 82 223T151 104T270 20T442 -12Q517 -12 575 4T671 41V0H757V312Z" />
<glyph unicode="H" glyph-name="H" horiz-adv-x="841" d="M211 348H630V0H721V700H630V394H211V700H120V0H211V348Z" />
<glyph unicode="I" glyph-name="I" horiz-adv-x="411" d="M160 700V0H251V700H160Z" />
<glyph unicode="J" glyph-name="J" horiz-adv-x="522" d="M311 700V195Q311 171 310 143T298 90T268 49T209 32Q176 32 155 44T121 74T103 112T97 149H10Q12 72 60 30T204 -12Q273 -12 313 8T372 60T397 129T402 198V700H311Z" />
<glyph unicode="K" glyph-name="K" horiz-adv-x="724" d="M120 0H211V246L324 367L590 0H694L382 429L636 700H586L211 306V700H120V0Z" />
<glyph unicode="L" glyph-name="L" horiz-adv-x="602" d="M120 0V700H211V55H572V0H120Z" />
<glyph unicode="M" glyph-name="M" horiz-adv-x="1026" d="M188 700H120V0H164V571H168L477 -12H495L811 567H815V0H906V700H837L513 99H509L188 700Z" />
<glyph unicode="N" glyph-name="N" horiz-adv-x="850" d="M684 700V165H680L125 712H120V0H166V535H170L725 -12H730V700H684Z" />
<glyph unicode="O" glyph-name="O" horiz-adv-x="865" d="M50 350Q50 294 71 231T139 113T256 24T426 -12Q493 -12 547 4T645 49T721 113T773 190T804 272T815 350Q815 406 792 469T721 587T600 676T426 712Q327 712 256 677T139 589T72 471T50 350ZM148 350Q148
420 169 478T228 579T317 644T428 668Q487 668 539 645T631 579T694 479T717 350Q717 280 694 222T632 121T540 56T428 32Q368 32 317 55T229 121T170 221T148 350Z" />
<glyph unicode="P" glyph-name="P" horiz-adv-x="613" d="M211 292Q237 285 267 281T333 276Q394 276 441 293T519 339T567 407T583 490Q583 532 569 570T527 637T455 683T354 700H120V0H211V292ZM211 656H316Q358 656 390 641T443 602T474 547T485 486Q485 457
476 428T445 374T392 335T315 320Q284 320 258 322T211 333V656Z" />
<glyph unicode="Q" glyph-name="Q" horiz-adv-x="894" d="M675 -88L751 -61L656 38Q705 67 740 105T797 186T829 270T839 351Q839 408 817 471T747 588T626 677T449 712Q347 712 275 677T156 589T87 472T65 351Q65 277 93 211T172 96T293 17T449 -12Q483 -12 516
-8T581 8L675 -88ZM537 163L474 122L545 49Q519 39 493 36T440 32Q385 32 335 53T247 116T187 217T164 351Q164 422 186 480T247 580T338 645T449 668Q510 668 563 645T655 581T716 481T739 351Q739 332 737 302T722 235T685 159T613 84L537 163Z" />
<glyph unicode="R" glyph-name="R" horiz-adv-x="718" d="M120 700V0H211V309H255Q283 309 301 304T335 287T363 256T394 209L473 92Q488 69 502 50T534 18T572 -4T624 -12Q646 -12 660 -10T688 0V37Q683 36 678 36T668 35Q647 35 631 41T601 58T574 86T547 124Q505
185 482 221T446 278T424 307T403 322L393 327V331Q441 334 475 352T532 397T564 455T574 517Q574 544 564 576T528 635T458 681T347 700H120ZM211 656H312Q350 656 380 645T433 615T466 568T478 509Q478 482 468 455T436 405T385 368T314 354H211V656Z" />
<glyph unicode="S" glyph-name="S" horiz-adv-x="625" d="M37 177Q39 134 59 99T115 40T199 2T304 -12Q362 -12 408 2T488 42T539 105T557 187Q557 249 526 288T449 354T348 399T247 437T169 483T138 552Q138 576 148 597T179 633T230 658T299 668Q364 668 409
641T463 554H531Q525 591 504 620T451 670T379 701T294 712Q248 712 207 700T134 665T84 607T65 527Q65 468 95 432T170 372T269 331T367 293T443 240T473 157Q473 92 426 62T299 32Q236 32 198 48T140 88T113 135T105 177H37Z" />
<glyph unicode="T" glyph-name="T" horiz-adv-x="667" d="M379 0V645H647V700H20V645H288V0H379Z" />
<glyph unicode="U" glyph-name="U" horiz-adv-x="720" d="M80 700V270Q80 229 88 180T126 88T215 17T376 -12Q440 -12 489 8T572 63T623 144T640 244V700H596V277Q596 255 595 233T589 188T574 143T543 99Q507 60 462 46T368 32Q326 32 294 45T232 84Q209 104
197 124T179 163T172 203T171 243V700H80Z" />
<glyph unicode="V" glyph-name="V" horiz-adv-x="697" d="M30 700L323 0H383L667 700H615L382 124H378L138 700H30Z" />
<glyph unicode="W" glyph-name="W" horiz-adv-x="1056" d="M30 700L278 0H338L529 547H534L719 0H778L1026 700H980L773 116H769L574 700H531L332 119H328L122 700H30Z" />
<glyph unicode="X" glyph-name="X" horiz-adv-x="719" d="M142 700H30L303 349L35 0H89L328 313H332L576 0H689L386 387L625 700H572L361 425H356L142 700Z" />
<glyph unicode="Y" glyph-name="Y" horiz-adv-x="639" d="M30 700L272 265V0H363V274L609 700H555L341 331H337L133 700H30Z" />
<glyph unicode="Z" glyph-name="Z" horiz-adv-x="666" d="M55 700V645H478L30 0H636V55H175L619 700H55Z" />
<glyph unicode="[" glyph-name="bracketleft" horiz-adv-x="305" d="M100 -220H275V-171H188V652H275V700H100V-220Z" />
<glyph unicode="\" glyph-name="backslash" horiz-adv-x="516" d="M101 712L486 -12H417L30 712H101Z" />
<glyph unicode="]" glyph-name="bracketright" horiz-adv-x="305" d="M205 -220H30V-171H117V652H30V700H205V-220Z" />
<glyph unicode="^" glyph-name="asciicircum" horiz-adv-x="436" d="M218 817L376 754V790L240 878H198L60 790V754L218 817Z" />
<glyph unicode="_" glyph-name="underscore" horiz-adv-x="759" d="M30 -220H729V-148H30V-220Z" />
<glyph unicode="`" glyph-name="grave" horiz-adv-x="223" d="M127 712H16L171 585H210L127 712Z" />
<glyph unicode="a" glyph-name="a" horiz-adv-x="540" d="M264 511Q337 511 377 491T435 437T457 361T460 273V0H379V49Q350 21 305 5T215 -12Q172 -12 139 3T84 42T51 96T40 157Q40 189 52 221T88 278T147 320T227 336Q272 336 312 319T379 269V312Q379 394 355
434T265 474Q237 474 216 467T179 448T148 417T120 375L68 427Q82 442 97 457T135 484T189 503T264 511ZM379 198Q374 210 365 226T340 257T304 282T254 293Q225 293 201 282T161 252T135 208T126 156Q126 124 137 101T167 61T207 36T249 28Q268 28 287 35T324
54T356 84T379 121V198Z" />
<glyph unicode="b" glyph-name="b" horiz-adv-x="604" d="M80 700H165V418H169Q179 444 195 461T233 490T277 506T325 511Q375 511 417 493T489 440T537 358T554 251Q554 191 537 143T490 60T417 7T325 -12Q206 -12 169 81H165V0H80V700ZM165 200Q165 167 175
138T205 87T249 53T304 40Q335 40 363 51T413 88T446 153T459 249Q459 306 447 346T413 411T363 448T304 460Q276 460 251 449T207 415T177 360T165 287V200Z" />
<glyph unicode="c" glyph-name="c" horiz-adv-x="544" d="M331 40Q295 40 262 51T202 86T161 151T145 251Q145 312 162 354T204 422T261 459T320 471Q366 471 400 447T445 388H514Q504 424 482 447T432 485T371 505T308 511Q245 511 197 491T116 435T67 353T50
253Q50 197 68 149T119 65T200 9T306 -12Q372 -12 421 10T505 58L476 96Q441 67 407 54T331 40Z" />
<glyph unicode="d" glyph-name="d" horiz-adv-x="604" d="M524 700H439V418H435Q425 444 409 461T371 490T327 506T279 511Q229 511 187 493T115 440T67 358T50 251Q50 191 67 143T114 60T187 7T279 -12Q397 -12 435 81H439V0H524V700ZM439 200Q439 167 428 138T399
87T355 53T300 40Q268 40 240 51T191 88T158 153T145 249Q145 306 157 346T191 411T241 448T300 460Q328 460 353 449T397 415T427 360T439 287V200Z" />
<glyph unicode="e" glyph-name="e" horiz-adv-x="574" d="M524 228V249Q524 316 505 365T454 446T378 494T287 510Q236 510 193 493T118 442T68 361T50 253Q50 203 65 156T112 71T192 11T307 -12Q371 -12 425 10T519 75L487 107Q466 89 448 74T410 49T371 34T325
28Q297 28 266 36T207 67T162 128T144 228H524ZM144 268Q144 308 152 345T178 412T223 458T287 476Q358 476 397 421T437 268H144Z" />
<glyph unicode="f" glyph-name="f" horiz-adv-x="363" d="M30 500V460H117V0H202V460H323V500H202V584Q202 596 203 612T209 643T224 668T254 678Q278 678 293 658T319 617L363 664Q339 688 314 700T256 712Q230 712 205 703T161 676T129 628T117 560V500H30Z" />
<glyph unicode="g" glyph-name="g" horiz-adv-x="602" d="M437 -42Q437 -88 426 -120T396 -172T350 -201T293 -210Q240 -210 208 -183T148 -111L93 -161Q100 -170 115 -184T153 -213T208 -238T281 -249Q357 -249 404 -228T477 -170T512 -88T522 9V500H437V422H433Q421
464 382 487T278 511Q227 511 185 493T113 440T67 358T50 251Q50 191 66 143T113 60T184 7T277 -12Q333 -12 374 10T433 80H437V-42ZM437 213Q437 171 426 139T395 85T351 52T299 40Q275 40 248 48T197 80T158 145T142 253Q142 323 161 364T205 428T257 456T299
463Q332 463 358 449T401 410T428 353T437 287V213Z" />
<glyph unicode="h" glyph-name="h" horiz-adv-x="569" d="M80 700V0H165V289Q165 309 168 338T184 394T225 440T300 460Q334 460 354 448T386 414T400 365T404 307V0H489V330Q489 386 473 421T433 477T381 504T326 511Q291 511 253 498T180 446L169 432H165V700H80Z" />
<glyph unicode="i" glyph-name="i" horiz-adv-x="308" d="M112 500V0H197V500H112ZM100 658Q100 636 116 620T154 604Q176 604 192 620T208 658Q208 680 192 696T154 712Q132 712 116 696T100 658Z" />
<glyph unicode="j" glyph-name="j" horiz-adv-x="291" d="M113 500V-92Q113 -115 111 -136T103 -175T84 -202T51 -212Q26 -212 14 -200T-10 -162L-60 -201Q-38 -230 -9 -240T53 -250Q75 -250 100 -242T148 -212T184 -150T199 -47V500H113ZM103 658Q103 636 118
620T157 604Q179 604 195 620T211 658Q211 680 195 696T157 712Q134 712 119 696T103 658Z" />
<glyph unicode="k" glyph-name="k" horiz-adv-x="536" d="M165 700H80V0H165V188L223 247L424 0H536L285 308L476 500H411L165 252V700Z" />
<glyph unicode="l" glyph-name="l" horiz-adv-x="285" d="M185 700H100V0H185V700Z" />
<glyph unicode="m" glyph-name="m" horiz-adv-x="859" d="M165 0V285Q165 303 168 332T183 390T222 439T295 460Q329 460 347 445T375 408T385 362T387 320V0H472V285Q472 307 476 337T493 395T530 441T597 460Q628 460 647 451T676 424T690 380T694 320V0H779V349Q779
372 774 400T753 453T705 494T621 511Q606 511 586 508T544 495T502 466T466 416H459Q453 432 442 448T414 479T374 502T317 511Q302 511 281 508T239 494T200 466T169 419H165V500H80V0H165Z" />
<glyph unicode="n" glyph-name="n" horiz-adv-x="581" d="M498 0V324Q498 342 495 373T476 435T423 488T321 511Q292 512 256 500T185 452L169 436H165V500H80V0H165V309Q165 348 176 376T206 423T249 451T300 460Q342 460 365 444T398 405T411 361T413 329V0H498Z" />
<glyph unicode="o" glyph-name="o" horiz-adv-x="618" d="M568 249Q568 197 550 150T499 66T418 9T311 -12Q251 -12 203 9T121 67T69 150T50 249Q50 301 68 348T120 432T202 489T311 511Q370 511 417 490T498 432T550 349T568 249ZM473 249Q473 319 458 362T419
430T366 462T310 471Q283 471 254 463T201 430T161 363T145 249Q145 180 160 137T200 69T254 37T310 28Q337 28 366 36T419 69T458 136T473 249Z" />
<glyph unicode="p" glyph-name="p" horiz-adv-x="604" d="M80 -250H165V82H169Q179 56 195 38T233 9T277 -7T325 -12Q375 -12 417 6T489 59T537 141T554 249Q554 309 537 357T490 439T417 492T325 511Q206 511 169 419H165V500H80V-250ZM165 300Q165 333 175 362T205
413T249 447T304 460Q335 460 363 449T413 412T446 347T459 251Q459 194 447 154T413 89T363 52T304 40Q276 40 251 51T207 85T177 140T165 213V300Z" />
<glyph unicode="q" glyph-name="q" horiz-adv-x="604" d="M524 -250H439V82H435Q425 56 409 38T371 9T327 -7T279 -12Q229 -12 187 6T115 59T67 141T50 249Q50 309 67 357T114 439T187 492T279 511Q398 511 435 419H439V500H524V-250ZM439 300Q439 333 428 362T399
413T355 447T300 460Q268 460 240 449T191 412T158 347T145 251Q145 194 157 154T191 89T241 52T300 40Q328 40 353 51T397 85T427 140T439 213V300Z" />
<glyph unicode="r" glyph-name="r" horiz-adv-x="382" d="M80 500V0H165V302Q165 343 174 371T199 418T232 444T267 452Q290 452 309 437T338 409L372 471Q363 483 351 491T326 503T303 509T287 511Q245 511 217 488T171 420H165V500H80Z" />
<glyph unicode="s" glyph-name="s" horiz-adv-x="480" d="M399 386Q399 413 385 436T347 475T290 501T220 511Q185 511 155 502T102 475T66 431T53 369Q53 321 75 293T130 248T201 221T273 198T328 166T350 114Q350 100 346 85T329 58T296 37T243 28Q203 28 176
40T131 70T106 106T98 136H33Q33 108 46 82T85 34T150 1T240 -12Q332 -12 378 28T425 135Q425 183 403 212T346 258T273 287T199 310T143 339T120 387Q120 400 125 414T142 441T174 462T224 471Q254 471 276 463T313 442T335 414T342 386H399Z" />
<glyph unicode="t" glyph-name="t" horiz-adv-x="375" d="M30 460V500H117V654H202V500H323V460H202V128Q202 116 203 101T209 72T224 49T254 40Q278 40 294 58T320 97L367 49Q318 0 256 0Q230 0 205 9T161 36T129 84T117 152V460H30Z" />
<glyph unicode="u" glyph-name="u" horiz-adv-x="581" d="M80 500V175Q80 157 83 126T104 64T157 11T260 -12Q289 -13 323 -1T393 47L409 63H413V0H498V500H413V190Q413 151 402 123T373 77T331 49T281 40Q239 40 216 56T181 95T167 138T165 170V500H80Z" />
<glyph unicode="v" glyph-name="v" horiz-adv-x="510" d="M20 500L228 0H288L490 500H443L281 99H275L108 500H20Z" />
<glyph unicode="w" glyph-name="w" horiz-adv-x="746" d="M20 500L193 0H247L363 335H367L497 0H544L726 500H674L538 126H534L392 500H372L241 123H237L107 500H20Z" />
<glyph unicode="x" glyph-name="x" horiz-adv-x="531" d="M246 207L399 0H501L297 274L465 500H407L268 313L131 500H30L217 246L31 0H90L246 207Z" />
<glyph unicode="y" glyph-name="y" horiz-adv-x="504" d="M274 117L101 500H10L234 6L181 -124Q172 -147 158 -161T124 -175Q106 -175 90 -165T64 -134L20 -217Q39 -234 62 -242T105 -250Q133 -250 154 -236T191 -200T219 -150T242 -95L484 500H435L278 117H274Z" />
<glyph unicode="z" glyph-name="z" horiz-adv-x="490" d="M36 500V460H337L20 0H457V40H143L460 500H36Z" />
<glyph unicode="{" glyph-name="braceleft" horiz-adv-x="356" d="M60 291Q75 289 92 283T123 260T148 215T158 142Q158 107 156 79T154 21Q154 -2 159 -33T181 -92T233 -141T326 -164V-105Q299 -99 284 -86T261 -58T251 -28T249 0Q249 31 252 61T255 121Q255
198 225 244T127 322V330Q194 361 224 408T255 532Q255 564 252 594T249 656Q249 667 251 682T261 713T284 741T326 761V819Q296 818 266 810T211 780T170 724T154 633Q154 603 156 574T158 514Q158 473 150 445T129 400T97 373T60 363V291Z" />
<glyph unicode="|" glyph-name="bar" horiz-adv-x="273" d="M100 885V-249H173V885H100Z" />
<glyph unicode="}" glyph-name="braceright" horiz-adv-x="358" d="M298 363Q284 364 267 370T235 393T210 439T200 514Q200 544 202 573T204 633Q204 688 188 723T147 780T90 809T30 819V761Q55 755 70 744T94 718T106 687T109 656Q109 624 106 594T103 532Q103
455 132 408T229 330V322Q162 291 133 245T103 121Q103 92 106 62T109 0Q109 -15 106 -31T95 -62T71 -88T30 -105V-164Q91 -161 126 -139T178 -88T199 -28T204 21Q204 50 202 78T200 142Q200 181 208 208T229 254T261 280T298 291V363Z" />
<glyph unicode="~" glyph-name="asciitilde" horiz-adv-x="602" d="M87 284Q98 300 116 309T164 319Q199 319 224 317T269 312T307 304T346 296L403 286Q408 285 413 285T424 285Q437 285 452 288T483 299T514 324T542 367L519 382Q502 364 482 357T434 349Q419
349 386 354T314 365T241 377T186 382Q173 382 157 380T125 369T91 345T60 303L87 284Z" />
<glyph unicode="&#xa0;" glyph-name="space" horiz-adv-x="350" />
<glyph unicode="&#xa1;" glyph-name="exclamdown" horiz-adv-x="348" d="M120 646Q120 624 136 608T174 592Q196 592 212 608T228 646Q228 668 212 684T174 700Q152 700 136 684T120 646ZM195 554H148L117 -12H227L195 554Z" />
<glyph unicode="&#xa2;" glyph-name="cent" horiz-adv-x="595" d="M311 643V510Q256 507 213 485T141 428T96 347T80 248Q80 198 96 153T142 74T215 17T311 -10V-164H364V-11Q418 -6 461 14T535 58L506 96Q471 67 438 53T364 37V466Q411 461 438 440T475 388H544Q535
419 517 441T475 477T423 499T364 509V643H311ZM175 249Q175 308 187 347T219 411T263 448T311 464V42Q283 49 258 64T215 104T186 165T175 249Z" />
<glyph unicode="&#xa3;" glyph-name="sterling" horiz-adv-x="768" d="M574 394H358Q353 427 350 452T344 495T341 527T340 553Q340 574 344 595T358 632T383 659T422 669Q446 669 456 662T467 648Q467 642 463 639T454 630T444 615T440 589Q440 567 456 551T499
535Q528 535 542 557T557 615Q557 660 526 686T446 712Q408 712 372 700T306 664T259 605T241 522Q241 493 244 458T252 394H96V350H260Q271 315 274 278T277 203Q277 186 275 172T266 139Q249 144 229 147T193 150Q166 150 143 144T103 126T76 97T66 57Q66 34
77 21T102 0T130 -9T150 -11H175Q214 -8 246 15T302 65L332 49Q385 20 424 5T502 -11Q544 -11 574 5T625 48T662 111T689 188L642 200Q634 174 623 150T596 108T557 80T505 69Q464 69 422 85T330 118Q346 150 357 187T368 268Q368 273 367 293T363 350H574V394ZM247
90Q225 52 202 41T165 29Q145 29 134 38T123 59Q123 65 125 72T134 86T153 97T186 102Q197 102 212 100T247 90Z" />
<glyph unicode="&#xa4;" glyph-name="currency" horiz-adv-x="733" d="M629 658L557 584Q515 617 468 634T365 651Q310 651 265 634T177 583L102 658L60 613L133 541Q98 498 82 452T66 351Q66 294 82 248T133 159L60 87L102 43L178 115Q225 77 272 63T365 48Q382
48 404 50T451 60T503 80T557 115L629 44L673 87L601 159Q634 201 650 247T667 350Q667 406 651 452T601 541L673 613L629 658ZM196 181Q169 208 148 249T127 351Q127 411 149 456T207 531T284 576T365 591Q404 591 446 576T524 531T582 455T605 350Q605 291 583
246T525 171T447 125T365 109Q316 109 273 129T196 181Z" />
<glyph unicode="&#xa5;" glyph-name="yen" horiz-adv-x="619" d="M20 700L251 284H124V228H262V187H124V130H262V0H353V130H491V187H353V228H491V284H359L599 700H545L331 331H327L123 700H20Z" />
<glyph unicode="&#xa6;" glyph-name="brokenbar" horiz-adv-x="248" d="M80 157V-249H165V157H80ZM80 885V479H165V885H80Z" />
<glyph unicode="&#xa7;" glyph-name="section" horiz-adv-x="562" d="M426 595V600Q426 624 416 644T387 680T343 703T289 712Q246 712 218 700T174 671T150 634T143 598Q143 560 167 528T219 470Q190 452 165 433T121 391T91 342T80 285Q80 255 93 229T128 177T177
128T234 77L246 66Q262 51 277 37T306 8T327 -22T335 -53Q335 -61 333 -71T322 -89T299 -104T260 -110Q249 -110 236 -108T211 -99T191 -77T182 -39H120Q120 -68 133 -89T168 -125T214 -147T266 -155Q297 -155 322 -146T365 -122T393 -87T403 -45Q403 -3 383 32T339
90Q365 103 390 119T436 157T469 204T482 261Q482 298 463 332T417 395T364 447T318 485L306 495Q264 529 239 557T213 613Q213 639 231 653T283 668Q318 668 338 649T359 599V595H426ZM353 349Q373 329 391 306T410 257Q410 222 390 183T315 111L202 211Q191 221
182 235T165 264T154 292T150 315Q150 354 176 388T242 451L353 349Z" />
<glyph unicode="&#xa8;" glyph-name="dieresis" horiz-adv-x="246" d="M0 658Q0 636 16 620T54 604Q76 604 92 620T108 658Q108 680 92 696T54 712Q32 712 16 696T0 658ZM138 658Q138 636 154 620T192 604Q214 604 230 620T246 658Q246 680 230 696T192 712Q170
712 154 696T138 658Z" />
<glyph unicode="&#xa9;" glyph-name="copyright" horiz-adv-x="862" d="M135 350Q135 411 158 465T222 559T316 622T431 646Q492 646 545 623T639 559T703 465T727 350Q727 289 704 236T640 142T546 78T431 54Q370 54 317 77T223 141T159 235T135 350ZM70 350Q70
276 98 211T176 96T290 19T431 -10Q506 -10 571 18T686 96T763 210T792 350Q792 425 764 490T686 605T572 682T431 711Q356 711 291 683T176 605T99 491T70 350ZM453 187Q427 187 404 195T361 222T331 270T320 342Q320 394 332 426T362 475T402 499T443 505Q484
505 505 488T534 446H590Q582 473 567 490T530 518T483 533T432 537Q388 537 354 522T296 480T260 418T247 342Q247 303 260 268T298 207T358 166T436 150Q484 150 521 166T583 202L558 233Q532 211 508 199T453 187Z" />
<glyph unicode="&#xaa;" glyph-name="ordfeminine" horiz-adv-x="481" d="M311 449Q295 423 272 408T222 393Q178 393 160 416T141 469Q141 483 144 498T157 526T182 547T223 555Q253 555 274 540T311 497V449ZM381 550Q381 580 379 609T362 660T316 697T227 711Q201
711 166 705T96 678L126 631Q152 652 178 665T228 678Q263 678 287 660T311 604V544Q289 565 264 578T204 592Q170 592 145 582T103 554T78 514T70 469Q70 450 77 430T99 394T139 368T199 357Q231 357 258 368T311 400V365H381V550Z" />
<glyph unicode="&#xab;" glyph-name="guillemotleft" horiz-adv-x="540" d="M151 259L268 457H200L80 259L200 61H268L151 259ZM342 259L460 457H392L270 259L392 61H460L342 259Z" />
<glyph unicode="&#xac;" glyph-name="logicalnot" horiz-adv-x="928" d="M120 230H745V125H808V293H120V230Z" />
<glyph unicode="&#xad;" glyph-name="uni00AD" horiz-adv-x="367" d="M60 300V236H307V300H60Z" />
<glyph unicode="&#xae;" glyph-name="registered" horiz-adv-x="862" d="M363 501H408Q442 501 464 479T487 427Q487 406 480 392T460 370T435 357T409 353H363V501ZM299 151H363V315H406Q410 315 421 301T444 267T468 230T484 205Q493 193 500 182T518 163T540
150T572 145Q588 145 596 147T614 155V187Q605 184 596 184Q573 184 562 196T546 216L468 326Q491 332 507 344T534 371T549 401T554 431Q554 440 550 457T533 492T494 522T426 535H299V151ZM135 349Q135 410 158 463T222 557T316 621T431 645Q492 645 545 622T639
558T703 464T727 349Q727 288 704 235T640 141T546 77T431 53Q370 53 317 76T223 140T159 234T135 349ZM70 349Q70 275 98 209T176 94T290 17T431 -12Q506 -12 571 16T686 94T763 209T792 349Q792 424 764 489T686 604T572 681T431 710Q356 710 291 682T176 604T99
490T70 349Z" />
<glyph unicode="&#xaf;" glyph-name="overscore" horiz-adv-x="363" d="M25 583H338V623H25V583Z" />
<glyph unicode="&#xb0;" glyph-name="degree" horiz-adv-x="375" d="M70 579Q70 555 79 534T104 497T141 472T188 462Q212 462 233 471T271 496T296 533T305 579Q305 604 296 625T271 663T234 688T188 697Q163 697 142 688T104 663T79 626T70 579ZM114 579Q114
610 136 631T188 653Q207 653 220 646T243 627T256 603T261 579Q261 550 239 529T188 507Q177 507 164 511T140 524T122 546T114 579Z" />
<glyph unicode="&#xb1;" glyph-name="plusminus" horiz-adv-x="828" d="M386 609V431H120V376H386V218H442V376H708V431H442V609H386ZM120 116H708V172H120V116Z" />
<glyph unicode="&#xb4;" glyph-name="acute" horiz-adv-x="194" d="M83 712H194L39 585H0L83 712Z" />
<glyph unicode="&#xb5;" glyph-name="mu" horiz-adv-x="658" d="M165 500H80V-223H145V75H150Q156 51 170 35T203 8T241 -7T278 -12Q296 -12 316 -6T356 14T390 48T415 97Q421 49 453 19T535 -12Q565 -12 588 -1T628 34L604 57Q593 42 576 31T545 20Q522 20 510
34T492 71T485 120T484 170V500H399V182Q399 119 370 80T283 41Q239 41 215 58T180 97T167 140T165 170V500Z" />
<glyph unicode="&#xb6;" glyph-name="paragraph" horiz-adv-x="541" d="M260 -250V700H175Q135 700 108 689T63 659T38 616T30 568Q30 544 37 521T62 478T107 448T175 436H191V-250H260ZM391 700V-250H461V700H391Z" />
<glyph unicode="&#xb7;" glyph-name="middot" horiz-adv-x="228" d="M60 370Q60 348 76 332T114 316Q136 316 152 332T168 370Q168 392 152 408T114 424Q92 424 76 408T60 370Z" />
<glyph unicode="&#xb8;" glyph-name="cedilla" horiz-adv-x="181" d="M0 -190Q15 -192 32 -194T67 -196Q88 -196 108 -192T145 -177T171 -151T181 -112Q181 -80 154 -62T94 -43Q88 -43 82 -43T70 -44L82 0H49L24 -82Q31 -80 42 -79T61 -78Q99 -78 112 -90T125
-114Q125 -131 116 -141T93 -156T63 -163T32 -165Q25 -165 19 -165T8 -163L0 -190Z" />
<glyph unicode="&#xba;" glyph-name="ordmasculine" horiz-adv-x="479" d="M125 535Q125 580 135 608T162 652T199 673T239 679Q258 679 278 674T316 652T343 608T354 535Q354 490 344 462T316 417T279 396T239 390Q220 390 200 395T163 417T136 461T125 535ZM50
535Q50 494 65 462T106 406T166 371T239 358Q278 358 312 370T373 406T414 461T429 535Q429 575 414 608T373 663T313 698T239 711Q201 711 167 699T106 664T65 608T50 535Z" />
<glyph unicode="&#xbb;" glyph-name="guillemotright" horiz-adv-x="540" d="M198 259L80 61H149L268 259L149 457H80L198 259ZM390 259L270 61H339L460 259L339 457H270L390 259Z" />
<glyph unicode="&#xbf;" glyph-name="questiondown" horiz-adv-x="519" d="M195 443Q211 463 230 479T272 495Q284 495 296 484T309 452Q309 425 294 400T255 351T205 302T154 250T116 193T100 127Q100 102 107 77T133 33T184 1T265 -12Q303 -12 331 -3T379 24T408
64T419 113H349V107Q349 89 342 74T321 47T292 30T259 24Q242 24 226 30T197 46T175 71T167 104Q167 134 181 159T217 208T264 254T311 300T349 352T367 413V423Q367 446 360 466T339 502T304 527T254 536Q229 536 200 520T147 476L195 443ZM322 658Q322 680 306
696T268 712Q246 712 230 696T214 658Q214 636 230 620T268 604Q290 604 306 620T322 658Z" />
<glyph unicode="&#xc0;" glyph-name="Agrave" horiz-adv-x="732" d="M509 206L605 0H702L376 700H326L30 0H76L164 206H509ZM488 251H183L327 588H331L488 251ZM380 912H269L424 785H463L380 912Z" />
<glyph unicode="&#xc1;" glyph-name="Aacute" horiz-adv-x="732" d="M509 206L605 0H702L376 700H326L30 0H76L164 206H509ZM488 251H183L327 588H331L488 251ZM352 912H463L308 785H269L352 912Z" />
<glyph unicode="&#xc2;" glyph-name="Acircumflex" horiz-adv-x="732" d="M509 206L605 0H702L376 700H326L30 0H76L164 206H509ZM488 251H183L327 588H331L488 251ZM365 828Q365 828 376 822T403 805T439 783T475 761T503 743T514 736L539 767Q539 767 528 778T501
805T465 840T429 875T401 901T390 912H340Q340 912 329 901T302 874T266 839T230 804T202 777T191 767L215 737Q215 737 226 743T254 760T290 782T326 804T354 821T365 828Z" />
<glyph unicode="&#xc3;" glyph-name="Atilde" horiz-adv-x="732" d="M509 206L605 0H702L376 700H326L30 0H76L164 206H509ZM488 251H183L327 588H331L488 251ZM207 789Q218 808 235 820T270 833Q283 833 295 829T319 820Q355 806 385 795T441 784Q476 784 505
807T552 884L522 898Q511 872 494 863T460 853Q448 853 437 856T416 861Q373 875 343 887T289 900Q251 900 223 873T180 804L207 789Z" />
<glyph unicode="&#xc4;" glyph-name="Adieresis" horiz-adv-x="732" d="M509 206L605 0H702L376 700H326L30 0H76L164 206H509ZM488 251H183L327 588H331L488 251ZM243 858Q243 836 259 820T297 804Q319 804 335 820T351 858Q351 880 335 896T297 912Q275 912
259 896T243 858ZM381 858Q381 836 397 820T435 804Q457 804 473 820T489 858Q489 880 473 896T435 912Q413 912 397 896T381 858Z" />
<glyph unicode="&#xc5;" glyph-name="Aring" horiz-adv-x="732" d="M509 206L605 0H702L376 700H326L30 0H76L164 206H509ZM488 251H183L327 588H331L488 251ZM307 829Q307 854 324 870T366 887Q390 887 407 871T425 829Q425 804 408 787T366 770Q341 770 324
787T307 829ZM274 829Q274 810 281 794T300 765T330 745T366 737Q385 737 402 744T431 764T451 793T458 829Q458 844 453 860T436 890T407 911T366 920Q343 920 326 912T298 890T280 861T274 829Z" />
<glyph unicode="&#xc6;" glyph-name="AE" horiz-adv-x="1002" d="M512 254H247L512 650V254ZM512 209V0H972V55H603V350H903V394H603V644H955V700H490L20 0H78L217 209H512Z" />
<glyph unicode="&#xc7;" glyph-name="Ccedilla" horiz-adv-x="759" d="M384 -190Q399 -192 416 -194T451 -196Q472 -196 492 -192T529 -177T555 -151T565 -112Q565 -80 538 -62T478 -43Q472 -43 466 -43T454 -44L463 -11Q521 -8 566 4T646 33T704 68T739 102L709
129Q607 33 467 33Q389 33 329 60T229 132T169 236T148 359Q148 427 169 483T230 581T322 645T439 668Q482 668 517 658T580 632T625 596T650 554H724Q709 588 686 617T627 667T545 700T438 712Q351 712 280 687T157 616T78 504T50 357Q50 288 72 222T140 105T258
21T429 -12L408 -82Q415 -80 426 -79T445 -78Q483 -78 496 -90T509 -114Q509 -131 500 -141T477 -156T447 -163T416 -165Q409 -165 403 -165T392 -163L384 -190Z" />
<glyph unicode="&#xc8;" glyph-name="Egrave" horiz-adv-x="602" d="M120 700V0H572V55H211V348H521V394H211V645H572V700H120ZM315 912H204L359 785H398L315 912Z" />
<glyph unicode="&#xc9;" glyph-name="Eacute" horiz-adv-x="602" d="M120 700V0H572V55H211V348H521V394H211V645H572V700H120ZM287 912H398L243 785H204L287 912Z" />
<glyph unicode="&#xca;" glyph-name="Ecircumflex" horiz-adv-x="602" d="M120 700V0H572V55H211V348H521V394H211V645H572V700H120ZM300 828Q300 828 311 822T338 805T374 783T410 761T438 743T449 736L474 767Q474 767 463 778T436 805T400 840T364 875T336
901T325 912H275Q275 912 264 901T237 874T201 839T165 804T137 777T126 767L150 737Q150 737 161 743T189 760T225 782T261 804T289 821T300 828Z" />
<glyph unicode="&#xcb;" glyph-name="Edieresis" horiz-adv-x="602" d="M120 700V0H572V55H211V348H521V394H211V645H572V700H120ZM178 858Q178 836 194 820T232 804Q254 804 270 820T286 858Q286 880 270 896T232 912Q210 912 194 896T178 858ZM316 858Q316 836
332 820T370 804Q392 804 408 820T424 858Q424 880 408 896T370 912Q348 912 332 896T316 858Z" />
<glyph unicode="&#xcc;" glyph-name="Igrave" horiz-adv-x="411" d="M160 700V0H251V700H160ZM219 912H108L263 785H302L219 912Z" />
<glyph unicode="&#xcd;" glyph-name="Iacute" horiz-adv-x="411" d="M160 700V0H251V700H160ZM191 912H302L147 785H108L191 912Z" />
<glyph unicode="&#xce;" glyph-name="Icircumflex" horiz-adv-x="411" d="M160 700V0H251V700H160ZM205 828Q205 828 216 822T243 805T279 783T315 761T343 743T354 736L379 767Q379 767 368 778T341 805T305 840T269 875T241 901T230 912H180Q180 912 169 901T142
874T106 839T70 804T42 777T31 767L55 737Q55 737 66 743T94 760T130 782T166 804T194 821T205 828Z" />
<glyph unicode="&#xcf;" glyph-name="Idieresis" horiz-adv-x="411" d="M160 700V0H251V700H160ZM82 858Q82 836 98 820T136 804Q158 804 174 820T190 858Q190 880 174 896T136 912Q114 912 98 896T82 858ZM220 858Q220 836 236 820T274 804Q296 804 312 820T328
858Q328 880 312 896T274 912Q252 912 236 896T220 858Z" />
<glyph unicode="&#xd0;" glyph-name="Eth" horiz-adv-x="786" d="M10 371H120V700H350Q433 700 502 673T621 599T698 487T726 347Q726 271 697 208T619 98T503 26T362 0H120V331H10V371ZM211 44H321Q403 44 460 72T555 144T609 244T626 353Q626 414 606 469T548
565T452 631T321 656H211V371H323V331H211V44Z" />
<glyph unicode="&#xd1;" glyph-name="Ntilde" horiz-adv-x="850" d="M684 700V165H680L125 712H120V0H166V535H170L725 -12H730V700H684ZM266 789Q277 808 294 820T329 833Q342 833 354 829T378 820Q414 806 444 795T500 784Q535 784 564 807T611 884L581 898Q570
872 553 863T519 853Q507 853 496 856T475 861Q432 875 402 887T348 900Q310 900 282 873T239 804L266 789Z" />
<glyph unicode="&#xd2;" glyph-name="Ograve" horiz-adv-x="865" d="M50 350Q50 294 71 231T139 113T256 24T426 -12Q493 -12 547 4T645 49T721 113T773 190T804 272T815 350Q815 406 792 469T721 587T600 676T426 712Q327 712 256 677T139 589T72 471T50 350ZM148
350Q148 420 169 478T228 579T317 644T428 668Q487 668 539 645T631 579T694 479T717 350Q717 280 694 222T632 121T540 56T428 32Q368 32 317 55T229 121T170 221T148 350ZM446 912H335L490 785H529L446 912Z" />
<glyph unicode="&#xd3;" glyph-name="Oacute" horiz-adv-x="865" d="M50 350Q50 294 71 231T139 113T256 24T426 -12Q493 -12 547 4T645 49T721 113T773 190T804 272T815 350Q815 406 792 469T721 587T600 676T426 712Q327 712 256 677T139 589T72 471T50 350ZM148
350Q148 420 169 478T228 579T317 644T428 668Q487 668 539 645T631 579T694 479T717 350Q717 280 694 222T632 121T540 56T428 32Q368 32 317 55T229 121T170 221T148 350ZM418 912H529L374 785H335L418 912Z" />
<glyph unicode="&#xd4;" glyph-name="Ocircumflex" horiz-adv-x="865" d="M50 350Q50 294 71 231T139 113T256 24T426 -12Q493 -12 547 4T645 49T721 113T773 190T804 272T815 350Q815 406 792 469T721 587T600 676T426 712Q327 712 256 677T139 589T72 471T50
350ZM148 350Q148 420 169 478T228 579T317 644T428 668Q487 668 539 645T631 579T694 479T717 350Q717 280 694 222T632 121T540 56T428 32Q368 32 317 55T229 121T170 221T148 350ZM432 828Q432 828 443 822T470 805T506 783T542 761T570 743T581 736L606 767Q606
767 595 778T568 805T532 840T496 875T468 901T457 912H407Q407 912 396 901T369 874T333 839T297 804T269 777T258 767L282 737Q282 737 293 743T321 760T357 782T393 804T421 821T432 828Z" />
<glyph unicode="&#xd5;" glyph-name="Otilde" horiz-adv-x="865" d="M50 350Q50 294 71 231T139 113T256 24T426 -12Q493 -12 547 4T645 49T721 113T773 190T804 272T815 350Q815 406 792 469T721 587T600 676T426 712Q327 712 256 677T139 589T72 471T50 350ZM148
350Q148 420 169 478T228 579T317 644T428 668Q487 668 539 645T631 579T694 479T717 350Q717 280 694 222T632 121T540 56T428 32Q368 32 317 55T229 121T170 221T148 350ZM273 789Q284 808 301 820T336 833Q349 833 361 829T385 820Q421 806 451 795T507 784Q542
784 571 807T618 884L588 898Q577 872 560 863T526 853Q514 853 503 856T482 861Q439 875 409 887T355 900Q317 900 289 873T246 804L273 789Z" />
<glyph unicode="&#xd6;" glyph-name="Odieresis" horiz-adv-x="865" d="M50 350Q50 294 71 231T139 113T256 24T426 -12Q493 -12 547 4T645 49T721 113T773 190T804 272T815 350Q815 406 792 469T721 587T600 676T426 712Q327 712 256 677T139 589T72 471T50 350ZM148
350Q148 420 169 478T228 579T317 644T428 668Q487 668 539 645T631 579T694 479T717 350Q717 280 694 222T632 121T540 56T428 32Q368 32 317 55T229 121T170 221T148 350ZM309 858Q309 836 325 820T363 804Q385 804 401 820T417 858Q417 880 401 896T363 912Q341
912 325 896T309 858ZM447 858Q447 836 463 820T501 804Q523 804 539 820T555 858Q555 880 539 896T501 912Q479 912 463 896T447 858Z" />
<glyph unicode="&#xd7;" glyph-name="multiply" horiz-adv-x="616" d="M495 579L308 392L119 581L80 542L268 353L80 164L119 126L308 314L496 126L536 164L346 353L535 541L495 579Z" />
<glyph unicode="&#xd8;" glyph-name="Oslash" horiz-adv-x="876" d="M595 712L577 678Q513 700 436 700Q337 700 266 666T149 580T82 464T60 344Q60 305 70 262T102 178T157 101T236 38L210 -12H279L292 12Q324 1 359 -5T436 -12Q503 -12 557 4T653 47T726 110T777
185T806 266T816 344Q816 383 806 426T773 511T716 589T634 652L666 712H595ZM718 344Q718 274 697 217T637 118T548 54T438 31Q371 31 317 58L605 599Q657 558 687 493T718 344ZM158 344Q158 414 179 471T238 570T327 633T438 656Q497 656 552 631L265 92Q215
134 187 198T158 344Z" />
<glyph unicode="&#xd9;" glyph-name="Ugrave" horiz-adv-x="720" d="M80 700V270Q80 229 88 180T126 88T215 17T376 -12Q440 -12 489 8T572 63T623 144T640 244V700H596V277Q596 255 595 233T589 188T574 143T543 99Q507 60 462 46T368 32Q326 32 294 45T232 84Q209
104 197 124T179 163T172 203T171 243V700H80ZM374 912H263L418 785H457L374 912Z" />
<glyph unicode="&#xda;" glyph-name="Uacute" horiz-adv-x="720" d="M80 700V270Q80 229 88 180T126 88T215 17T376 -12Q440 -12 489 8T572 63T623 144T640 244V700H596V277Q596 255 595 233T589 188T574 143T543 99Q507 60 462 46T368 32Q326 32 294 45T232 84Q209
104 197 124T179 163T172 203T171 243V700H80ZM346 912H457L302 785H263L346 912Z" />
<glyph unicode="&#xdb;" glyph-name="Ucircumflex" horiz-adv-x="720" d="M80 700V270Q80 229 88 180T126 88T215 17T376 -12Q440 -12 489 8T572 63T623 144T640 244V700H596V277Q596 255 595 233T589 188T574 143T543 99Q507 60 462 46T368 32Q326 32 294 45T232
84Q209 104 197 124T179 163T172 203T171 243V700H80ZM359 828Q359 828 370 822T397 805T433 783T469 761T497 743T508 736L533 767Q533 767 522 778T495 805T459 840T423 875T395 901T384 912H334Q334 912 323 901T296 874T260 839T224 804T196 777T185 767L209
737Q209 737 220 743T248 760T284 782T320 804T348 821T359 828Z" />
<glyph unicode="&#xdc;" glyph-name="Udieresis" horiz-adv-x="720" d="M80 700V270Q80 229 88 180T126 88T215 17T376 -12Q440 -12 489 8T572 63T623 144T640 244V700H596V277Q596 255 595 233T589 188T574 143T543 99Q507 60 462 46T368 32Q326 32 294 45T232
84Q209 104 197 124T179 163T172 203T171 243V700H80ZM237 858Q237 836 253 820T291 804Q313 804 329 820T345 858Q345 880 329 896T291 912Q269 912 253 896T237 858ZM375 858Q375 836 391 820T429 804Q451 804 467 820T483 858Q483 880 467 896T429 912Q407 912
391 896T375 858Z" />
<glyph unicode="&#xdd;" glyph-name="Yacute" horiz-adv-x="639" d="M30 700L272 265V0H363V274L609 700H555L341 331H337L133 700H30ZM305 912H416L261 785H222L305 912Z" />
<glyph unicode="&#xde;" glyph-name="Thorn" horiz-adv-x="670" d="M211 584Q217 584 222 584T233 585Q298 585 346 564T427 510T475 436T491 356Q491 317 474 278T423 206T338 154T218 134H211V584ZM211 0V90H223Q325 90 395 117T508 185T571 273T590 362Q590
413 567 461T499 546T392 605T249 628H211V700H120V0H211Z" />
<glyph unicode="&#xdf;" glyph-name="germandbls" horiz-adv-x="587" d="M110 0H195V528Q195 541 197 564T209 611T240 651T301 668Q333 668 353 656T383 625T397 587T401 550Q401 530 395 509T377 471T346 444T302 433H273V394H302Q351 394 378 374T419 325T436
261T439 199Q439 172 437 142T428 85T408 42T373 24Q368 24 359 26T339 35T321 56T310 92H249Q250 76 257 58T280 25T318 -1T375 -12Q406 -12 434 2T482 42T514 107T526 195Q526 218 522 252T500 319T448 379T354 414V418Q411 425 442 465T474 559Q474 628 428
670T299 712Q285 712 254 708T190 686T134 631T110 528V0Z" />
<glyph unicode="&#xe0;" glyph-name="agrave" horiz-adv-x="540" d="M264 511Q337 511 377 491T435 437T457 361T460 273V0H379V49Q350 21 305 5T215 -12Q172 -12 139 3T84 42T51 96T40 157Q40 189 52 221T88 278T147 320T227 336Q272 336 312 319T379 269V312Q379
394 355 434T265 474Q237 474 216 467T179 448T148 417T120 375L68 427Q82 442 97 457T135 484T189 503T264 511ZM379 198Q374 210 365 226T340 257T304 282T254 293Q225 293 201 282T161 252T135 208T126 156Q126 124 137 101T167 61T207 36T249 28Q268 28 287
35T324 54T356 84T379 121V198ZM284 712H173L328 585H367L284 712Z" />
<glyph unicode="&#xe1;" glyph-name="aacute" horiz-adv-x="540" d="M264 511Q337 511 377 491T435 437T457 361T460 273V0H379V49Q350 21 305 5T215 -12Q172 -12 139 3T84 42T51 96T40 157Q40 189 52 221T88 278T147 320T227 336Q272 336 312 319T379 269V312Q379
394 355 434T265 474Q237 474 216 467T179 448T148 417T120 375L68 427Q82 442 97 457T135 484T189 503T264 511ZM379 198Q374 210 365 226T340 257T304 282T254 293Q225 293 201 282T161 252T135 208T126 156Q126 124 137 101T167 61T207 36T249 28Q268 28 287
35T324 54T356 84T379 121V198ZM256 712H367L212 585H173L256 712Z" />
<glyph unicode="&#xe2;" glyph-name="acircumflex" horiz-adv-x="540" d="M264 511Q337 511 377 491T435 437T457 361T460 273V0H379V49Q350 21 305 5T215 -12Q172 -12 139 3T84 42T51 96T40 157Q40 189 52 221T88 278T147 320T227 336Q272 336 312 319T379 269V312Q379
394 355 434T265 474Q237 474 216 467T179 448T148 417T120 375L68 427Q82 442 97 457T135 484T189 503T264 511ZM379 198Q374 210 365 226T340 257T304 282T254 293Q225 293 201 282T161 252T135 208T126 156Q126 124 137 101T167 61T207 36T249 28Q268 28 287
35T324 54T356 84T379 121V198ZM269 628Q269 628 280 622T307 605T343 583T379 561T407 543T418 536L443 567Q443 567 432 578T405 605T369 640T333 675T305 701T294 712H244Q244 712 233 701T206 674T170 639T134 604T106 577T95 567L119 537Q119 537 130 543T158
560T194 582T230 604T258 621T269 628Z" />
<glyph unicode="&#xe3;" glyph-name="atilde" horiz-adv-x="540" d="M264 511Q337 511 377 491T435 437T457 361T460 273V0H379V49Q350 21 305 5T215 -12Q172 -12 139 3T84 42T51 96T40 157Q40 189 52 221T88 278T147 320T227 336Q272 336 312 319T379 269V312Q379
394 355 434T265 474Q237 474 216 467T179 448T148 417T120 375L68 427Q82 442 97 457T135 484T189 503T264 511ZM379 198Q374 210 365 226T340 257T304 282T254 293Q225 293 201 282T161 252T135 208T126 156Q126 124 137 101T167 61T207 36T249 28Q268 28 287
35T324 54T356 84T379 121V198ZM111 589Q122 608 139 620T174 633Q187 633 199 629T223 620Q259 606 289 595T345 584Q380 584 409 607T456 684L426 698Q415 672 398 663T364 653Q352 653 341 656T320 661Q277 675 247 687T193 700Q155 700 127 673T84 604L111
589Z" />
<glyph unicode="&#xe4;" glyph-name="adieresis" horiz-adv-x="540" d="M264 511Q337 511 377 491T435 437T457 361T460 273V0H379V49Q350 21 305 5T215 -12Q172 -12 139 3T84 42T51 96T40 157Q40 189 52 221T88 278T147 320T227 336Q272 336 312 319T379 269V312Q379
394 355 434T265 474Q237 474 216 467T179 448T148 417T120 375L68 427Q82 442 97 457T135 484T189 503T264 511ZM379 198Q374 210 365 226T340 257T304 282T254 293Q225 293 201 282T161 252T135 208T126 156Q126 124 137 101T167 61T207 36T249 28Q268 28 287
35T324 54T356 84T379 121V198ZM147 658Q147 636 163 620T201 604Q223 604 239 620T255 658Q255 680 239 696T201 712Q179 712 163 696T147 658ZM285 658Q285 636 301 620T339 604Q361 604 377 620T393 658Q393 680 377 696T339 712Q317 712 301 696T285 658Z"
/>
<glyph unicode="&#xe5;" glyph-name="aring" horiz-adv-x="540" d="M264 511Q337 511 377 491T435 437T457 361T460 273V0H379V49Q350 21 305 5T215 -12Q172 -12 139 3T84 42T51 96T40 157Q40 189 52 221T88 278T147 320T227 336Q272 336 312 319T379 269V312Q379
394 355 434T265 474Q237 474 216 467T179 448T148 417T120 375L68 427Q82 442 97 457T135 484T189 503T264 511ZM379 198Q374 210 365 226T340 257T304 282T254 293Q225 293 201 282T161 252T135 208T126 156Q126 124 137 101T167 61T207 36T249 28Q268 28 287
35T324 54T356 84T379 121V198ZM211 629Q211 654 228 670T270 687Q294 687 311 671T329 629Q329 604 312 587T270 570Q245 570 228 587T211 629ZM178 629Q178 610 185 594T204 565T234 545T270 537Q289 537 306 544T335 564T355 593T362 629Q362 644 357 660T340
690T311 711T270 720Q247 720 230 712T202 690T184 661T178 629Z" />
<glyph unicode="&#xe6;" glyph-name="ae" horiz-adv-x="888" d="M453 274Q453 324 465 362T498 425T544 464T596 477Q656 477 693 426T731 283V274H453ZM374 116Q365 95 351 80T320 54T285 38T251 33Q225 33 203 43T164 70T138 112T128 165Q128 195 138 218T165
257T204 281T251 290Q281 290 303 280T340 257T363 229T374 204V116ZM453 239H822V256Q822 333 800 383T743 461T671 501T599 512Q576 512 551 507T503 493T460 470T428 441Q390 485 350 498T258 512Q206 512 169 501T95 462L125 420Q154 446 188 461T260 477Q275
477 294 473T330 460T359 438T374 406V274Q356 295 336 307T296 325T258 334T227 336Q182 336 147 321T89 280T53 221T41 154Q41 124 52 95T85 42T140 3T219 -12Q271 -12 322 11T412 86Q427 68 447 51T492 19T550 -3T621 -12Q674 -12 728 10T828 81L799 111Q756
66 718 48T628 29Q592 29 560 43T504 84T467 149T453 235V239Z" />
<glyph unicode="&#xe7;" glyph-name="ccedilla" horiz-adv-x="544" d="M246 -190Q261 -192 278 -194T313 -196Q334 -196 354 -192T391 -177T417 -151T427 -112Q427 -80 400 -62T340 -43Q334 -43 328 -43T316 -44L325 -11Q383 -7 428 13T505 58L476 96Q441 67 407
54T331 40Q295 40 262 51T202 86T161 151T145 251Q145 312 162 354T204 422T261 459T320 471Q366 471 400 447T445 388H514Q504 424 482 447T432 485T371 505T308 511Q245 511 197 491T116 435T67 353T50 253Q50 199 67 152T115 69T191 13T291 -11L270 -82Q277
-80 288 -79T307 -78Q345 -78 358 -90T371 -114Q371 -131 362 -141T339 -156T309 -163T278 -165Q271 -165 265 -165T254 -163L246 -190Z" />
<glyph unicode="&#xe8;" glyph-name="egrave" horiz-adv-x="574" d="M524 228V249Q524 316 505 365T454 446T378 494T287 510Q236 510 193 493T118 442T68 361T50 253Q50 203 65 156T112 71T192 11T307 -12Q371 -12 425 10T519 75L487 107Q466 89 448 74T410 49T371
34T325 28Q297 28 266 36T207 67T162 128T144 228H524ZM144 268Q144 308 152 345T178 412T223 458T287 476Q358 476 397 421T437 268H144ZM301 712H190L345 585H384L301 712Z" />
<glyph unicode="&#xe9;" glyph-name="eacute" horiz-adv-x="574" d="M524 228V249Q524 316 505 365T454 446T378 494T287 510Q236 510 193 493T118 442T68 361T50 253Q50 203 65 156T112 71T192 11T307 -12Q371 -12 425 10T519 75L487 107Q466 89 448 74T410 49T371
34T325 28Q297 28 266 36T207 67T162 128T144 228H524ZM144 268Q144 308 152 345T178 412T223 458T287 476Q358 476 397 421T437 268H144ZM273 712H384L229 585H190L273 712Z" />
<glyph unicode="&#xea;" glyph-name="ecircumflex" horiz-adv-x="574" d="M524 228V249Q524 316 505 365T454 446T378 494T287 510Q236 510 193 493T118 442T68 361T50 253Q50 203 65 156T112 71T192 11T307 -12Q371 -12 425 10T519 75L487 107Q466 89 448 74T410
49T371 34T325 28Q297 28 266 36T207 67T162 128T144 228H524ZM144 268Q144 308 152 345T178 412T223 458T287 476Q358 476 397 421T437 268H144ZM286 628Q286 628 297 622T324 605T360 583T396 561T424 543T435 536L460 567Q460 567 449 578T422 605T386 640T350
675T322 701T311 712H261Q261 712 250 701T223 674T187 639T151 604T123 577T112 567L136 537Q136 537 147 543T175 560T211 582T247 604T275 621T286 628Z" />
<glyph unicode="&#xeb;" glyph-name="edieresis" horiz-adv-x="574" d="M524 228V249Q524 316 505 365T454 446T378 494T287 510Q236 510 193 493T118 442T68 361T50 253Q50 203 65 156T112 71T192 11T307 -12Q371 -12 425 10T519 75L487 107Q466 89 448 74T410
49T371 34T325 28Q297 28 266 36T207 67T162 128T144 228H524ZM144 268Q144 308 152 345T178 412T223 458T287 476Q358 476 397 421T437 268H144ZM164 658Q164 636 180 620T218 604Q240 604 256 620T272 658Q272 680 256 696T218 712Q196 712 180 696T164 658ZM302
658Q302 636 318 620T356 604Q378 604 394 620T410 658Q410 680 394 696T356 712Q334 712 318 696T302 658Z" />
<glyph unicode="&#xec;" glyph-name="igrave" horiz-adv-x="308" d="M112 500V0H197V500H112ZM168 712H57L212 585H251L168 712Z" />
<glyph unicode="&#xed;" glyph-name="iacute" horiz-adv-x="308" d="M112 500V0H197V500H112ZM140 712H251L96 585H57L140 712Z" />
<glyph unicode="&#xee;" glyph-name="icircumflex" horiz-adv-x="308" d="M112 500V0H197V500H112ZM154 628Q154 628 165 622T192 605T228 583T264 561T292 543T303 536L328 567Q328 567 317 578T290 605T254 640T218 675T190 701T179 712H129Q129 712 118 701T91
674T55 639T19 604T-9 577T-20 567L4 537Q4 537 15 543T43 560T79 582T115 604T143 621T154 628Z" />
<glyph unicode="&#xef;" glyph-name="idieresis" horiz-adv-x="308" d="M112 500V0H197V500H112ZM31 658Q31 636 47 620T85 604Q107 604 123 620T139 658Q139 680 123 696T85 712Q63 712 47 696T31 658ZM169 658Q169 636 185 620T223 604Q245 604 261 620T277
658Q277 680 261 696T223 712Q201 712 185 696T169 658Z" />
<glyph unicode="&#xf0;" glyph-name="eth" horiz-adv-x="597" d="M284 534L376 597Q413 571 438 536T471 452H467Q433 480 393 495T300 511Q240 511 192 490T111 431T61 346T43 246Q43 182 65 134T124 54T206 5T300 -12Q342 -12 388 1T472 50T535 145T560 298Q560
346 555 393T536 484T495 565T427 632L502 683L482 710L397 651Q337 683 270 694T146 712L139 676Q191 668 244 654T344 616L264 561L284 534ZM301 23Q283 23 256 29T202 59T157 127T138 250Q138 327 157 372T202 440T255 469T301 476Q329 476 358 467T411 432T450
362T465 250Q465 181 449 137T408 68T355 33T301 23Z" />
<glyph unicode="&#xf1;" glyph-name="ntilde" horiz-adv-x="581" d="M498 0V324Q498 342 495 373T476 435T423 488T321 511Q292 512 256 500T185 452L169 436H165V500H80V0H165V309Q165 348 176 376T206 423T249 451T300 460Q342 460 365 444T398 405T411 361T413
329V0H498ZM131 589Q142 608 159 620T194 633Q207 633 219 629T243 620Q279 606 309 595T365 584Q400 584 429 607T476 684L446 698Q435 672 418 663T384 653Q372 653 361 656T340 661Q297 675 267 687T213 700Q175 700 147 673T104 604L131 589Z" />
<glyph unicode="&#xf2;" glyph-name="ograve" horiz-adv-x="618" d="M568 249Q568 197 550 150T499 66T418 9T311 -12Q251 -12 203 9T121 67T69 150T50 249Q50 301 68 348T120 432T202 489T311 511Q370 511 417 490T498 432T550 349T568 249ZM473 249Q473 319
458 362T419 430T366 462T310 471Q283 471 254 463T201 430T161 363T145 249Q145 180 160 137T200 69T254 37T310 28Q337 28 366 36T419 69T458 136T473 249ZM323 712H212L367 585H406L323 712Z" />
<glyph unicode="&#xf3;" glyph-name="oacute" horiz-adv-x="618" d="M568 249Q568 197 550 150T499 66T418 9T311 -12Q251 -12 203 9T121 67T69 150T50 249Q50 301 68 348T120 432T202 489T311 511Q370 511 417 490T498 432T550 349T568 249ZM473 249Q473 319
458 362T419 430T366 462T310 471Q283 471 254 463T201 430T161 363T145 249Q145 180 160 137T200 69T254 37T310 28Q337 28 366 36T419 69T458 136T473 249ZM295 712H406L251 585H212L295 712Z" />
<glyph unicode="&#xf4;" glyph-name="ocircumflex" horiz-adv-x="618" d="M568 249Q568 197 550 150T499 66T418 9T311 -12Q251 -12 203 9T121 67T69 150T50 249Q50 301 68 348T120 432T202 489T311 511Q370 511 417 490T498 432T550 349T568 249ZM473 249Q473
319 458 362T419 430T366 462T310 471Q283 471 254 463T201 430T161 363T145 249Q145 180 160 137T200 69T254 37T310 28Q337 28 366 36T419 69T458 136T473 249ZM308 628Q308 628 319 622T346 605T382 583T418 561T446 543T457 536L482 567Q482 567 471 578T444
605T408 640T372 675T344 701T333 712H283Q283 712 272 701T245 674T209 639T173 604T145 577T134 567L158 537Q158 537 169 543T197 560T233 582T269 604T297 621T308 628Z" />
<glyph unicode="&#xf5;" glyph-name="otilde" horiz-adv-x="618" d="M568 249Q568 197 550 150T499 66T418 9T311 -12Q251 -12 203 9T121 67T69 150T50 249Q50 301 68 348T120 432T202 489T311 511Q370 511 417 490T498 432T550 349T568 249ZM473 249Q473 319
458 362T419 430T366 462T310 471Q283 471 254 463T201 430T161 363T145 249Q145 180 160 137T200 69T254 37T310 28Q337 28 366 36T419 69T458 136T473 249ZM150 589Q161 608 178 620T213 633Q226 633 238 629T262 620Q298 606 328 595T384 584Q419 584 448 607T495
684L465 698Q454 672 437 663T403 653Q391 653 380 656T359 661Q316 675 286 687T232 700Q194 700 166 673T123 604L150 589Z" />
<glyph unicode="&#xf6;" glyph-name="odieresis" horiz-adv-x="618" d="M568 249Q568 197 550 150T499 66T418 9T311 -12Q251 -12 203 9T121 67T69 150T50 249Q50 301 68 348T120 432T202 489T311 511Q370 511 417 490T498 432T550 349T568 249ZM473 249Q473 319
458 362T419 430T366 462T310 471Q283 471 254 463T201 430T161 363T145 249Q145 180 160 137T200 69T254 37T310 28Q337 28 366 36T419 69T458 136T473 249ZM186 658Q186 636 202 620T240 604Q262 604 278 620T294 658Q294 680 278 696T240 712Q218 712 202 696T186
658ZM324 658Q324 636 340 620T378 604Q400 604 416 620T432 658Q432 680 416 696T378 712Q356 712 340 696T324 658Z" />
<glyph unicode="&#xf7;" glyph-name="divide" horiz-adv-x="928" d="M120 238H808V299H120V238ZM411 79Q411 57 427 41T465 25Q487 25 503 41T519 79Q519 101 503 117T465 133Q443 133 427 117T411 79ZM411 457Q411 435 427 419T465 403Q487 403 503 419T519 457Q519
479 503 495T465 511Q443 511 427 495T411 457Z" />
<glyph unicode="&#xf8;" glyph-name="oslash" horiz-adv-x="638" d="M425 512L415 493Q392 501 368 506T317 511Q258 511 211 490T130 432T78 349T60 249Q60 185 86 130T161 38L133 -12H198L210 9Q233 -1 260 -6T317 -12Q377 -12 425 9T507 67T559 150T578 249Q578
315 549 372T466 466L492 512H425ZM483 249Q483 180 468 136T428 67T374 33T318 23Q296 23 274 28T231 47L439 418Q459 392 471 351T483 249ZM155 249Q155 319 170 363T209 432T262 466T318 476Q336 476 355 472T394 457L190 91Q174 117 165 155T155 249Z" />
<glyph unicode="&#xf9;" glyph-name="ugrave" horiz-adv-x="581" d="M80 500V175Q80 157 83 126T104 64T157 11T260 -12Q289 -13 323 -1T393 47L409 63H413V0H498V500H413V190Q413 151 402 123T373 77T331 49T281 40Q239 40 216 56T181 95T167 138T165 170V500H80ZM304
712H193L348 585H387L304 712Z" />
<glyph unicode="&#xfa;" glyph-name="uacute" horiz-adv-x="581" d="M80 500V175Q80 157 83 126T104 64T157 11T260 -12Q289 -13 323 -1T393 47L409 63H413V0H498V500H413V190Q413 151 402 123T373 77T331 49T281 40Q239 40 216 56T181 95T167 138T165 170V500H80ZM276
712H387L232 585H193L276 712Z" />
<glyph unicode="&#xfb;" glyph-name="ucircumflex" horiz-adv-x="581" d="M80 500V175Q80 157 83 126T104 64T157 11T260 -12Q289 -13 323 -1T393 47L409 63H413V0H498V500H413V190Q413 151 402 123T373 77T331 49T281 40Q239 40 216 56T181 95T167 138T165 170V500H80ZM290
628Q290 628 301 622T328 605T364 583T400 561T428 543T439 536L464 567Q464 567 453 578T426 605T390 640T354 675T326 701T315 712H265Q265 712 254 701T227 674T191 639T155 604T127 577T116 567L140 537Q140 537 151 543T179 560T215 582T251 604T279 621T290
628Z" />
<glyph unicode="&#xfc;" glyph-name="udieresis" horiz-adv-x="581" d="M80 500V175Q80 157 83 126T104 64T157 11T260 -12Q289 -13 323 -1T393 47L409 63H413V0H498V500H413V190Q413 151 402 123T373 77T331 49T281 40Q239 40 216 56T181 95T167 138T165 170V500H80ZM167
658Q167 636 183 620T221 604Q243 604 259 620T275 658Q275 680 259 696T221 712Q199 712 183 696T167 658ZM305 658Q305 636 321 620T359 604Q381 604 397 620T413 658Q413 680 397 696T359 712Q337 712 321 696T305 658Z" />
<glyph unicode="&#xfd;" glyph-name="yacute" horiz-adv-x="504" d="M274 117L101 500H10L234 6L181 -124Q172 -147 158 -161T124 -175Q106 -175 90 -165T64 -134L20 -217Q39 -234 62 -242T105 -250Q133 -250 154 -236T191 -200T219 -150T242 -95L484 500H435L278
117H274ZM238 712H349L194 585H155L238 712Z" />
<glyph unicode="&#xfe;" glyph-name="thorn" horiz-adv-x="604" d="M80 -250H165V82H169Q179 56 195 38T233 9T277 -7T325 -12Q375 -12 417 6T489 59T537 141T554 249Q554 309 537 357T490 439T417 492T325 511Q206 511 169 419H165V700H80V-250ZM165 300Q165
333 175 362T205 413T249 447T304 460Q335 460 363 449T413 412T446 347T459 251Q459 194 447 154T413 89T363 52T304 40Q276 40 251 51T207 85T177 140T165 213V300Z" />
<glyph unicode="&#xff;" glyph-name="ydieresis" horiz-adv-x="504" d="M274 117L101 500H10L234 6L181 -124Q172 -147 158 -161T124 -175Q106 -175 90 -165T64 -134L20 -217Q39 -234 62 -242T105 -250Q133 -250 154 -236T191 -200T219 -150T242 -95L484 500H435L278
117H274ZM129 658Q129 636 145 620T183 604Q205 604 221 620T237 658Q237 680 221 696T183 712Q161 712 145 696T129 658ZM267 658Q267 636 283 620T321 604Q343 604 359 620T375 658Q375 680 359 696T321 712Q299 712 283 696T267 658Z" />
<glyph unicode="&#x2013;" glyph-name="endash" horiz-adv-x="928" d="M120 230H808V293H120V230Z" />
<glyph unicode="&#x2014;" glyph-name="emdash" horiz-adv-x="1108" d="M40 230H1068V293H40V230Z" />
<glyph unicode="&#x2018;" glyph-name="quoteleft" horiz-adv-x="195" d="M50 460H145V718H110L50 460Z" />
<glyph unicode="&#x2019;" glyph-name="quoteright" horiz-adv-x="195" d="M145 718H50V460H86L145 718Z" />
<glyph unicode="&#x201a;" glyph-name="quotesinglbase" horiz-adv-x="174" d="M134 123H40V-135H74L134 123Z" />
<glyph unicode="&#x201c;" glyph-name="quotedblleft" horiz-adv-x="399" d="M254 442H349V700H313L254 442ZM50 442H145V700H110L50 442Z" />
<glyph unicode="&#x201d;" glyph-name="quotedblright" horiz-adv-x="399" d="M145 700H50V442H86L145 700ZM349 700H254V442H289L349 700Z" />
<glyph unicode="&#x201e;" glyph-name="quotedblbase" horiz-adv-x="379" d="M135 122H40V-136H76L135 122ZM339 122H244V-136H279L339 122Z" />
<glyph unicode="&#x2022;" glyph-name="bullet" horiz-adv-x="476" d="M120 327Q120 303 129 282T154 245T191 220T238 211Q262 211 283 220T321 245T346 282T356 327Q356 352 347 374T321 412T284 437T238 446Q213 446 192 437T154 412T129 374T120 327Z" />
<glyph unicode="&#x2039;" glyph-name="guilsinglleft" horiz-adv-x="348" d="M151 259L268 457H200L80 259L200 61H268L151 259Z" />
<glyph unicode="&#x203a;" glyph-name="guilsinglright" horiz-adv-x="348" d="M197 259L80 457H148L268 259L148 61H80L197 259Z" />
</font>
</defs>
</svg>
