<?xml version="1.0" standalone="no"?>
<!DOCTYPE svg PUBLIC "-//W3C//DTD SVG 1.1//EN" "http://www.w3.org/Graphics/SVG/1.1/DTD/svg11.dtd">
<svg xmlns="http://www.w3.org/2000/svg">
<defs >
<font id="Magra" horiz-adv-x="412" ><font-face
    font-family="Magra"
    units-per-em="1000"
    panose-1="2 0 0 0 0 0 0 0 0 0"
    ascent="968"
    descent="-247"
    alphabetic="0" />
<glyph unicode=" " glyph-name="space" horiz-adv-x="205" />
<glyph unicode="!" glyph-name="exclam" horiz-adv-x="260" d="M187 711L170 203L100 193L83 701L187 711ZM139 117Q200 117 200 49Q200 24 184 6T132 -12Q71 -12 71 56Q71 81 87 99T139 117Z" />
<glyph unicode="&quot;" glyph-name="quotedbl" horiz-adv-x="359" d="M65 754H147V668L137 515H75L65 668V754ZM212 754H294V668L284 515H222L212 668V754Z" />
<glyph unicode="#" glyph-name="numbersign" horiz-adv-x="603" d="M464 627L440 471H558L547 400H430L413 286H527L516 216H402L381 72L309 62L332 216H216L195 72L123 62L146 216H30L41 286H156L173 400H60L71 471H184L206 617L278 627L254 471H370L392 617L464
627ZM244 400L227 286H342L359 400H244Z" />
<glyph unicode="$" glyph-name="dollar" horiz-adv-x="453" d="M388 495Q306 533 252 533T178 513T158 463Q158 443 169 432L186 416Q196 405 214 397Q259 376 277 367Q333 340 364 309T396 222T353 122T236 66V-66L154 -76L174 63Q99 67 24 109L61 186Q142 144
207 144Q250 144 276 163T302 219Q302 261 232 292Q223 296 196 308T150 329T109 356Q64 391 64 452T107 558T233 611V736L315 746L292 610Q353 605 424 572L388 495Z" />
<glyph unicode="%" glyph-name="percent" horiz-adv-x="752" d="M196 712Q243 712 277 694T327 648Q356 596 356 546Q356 461 310 412T190 362Q143 362 109 380T59 426Q30 478 30 528Q30 613 76 662T196 712ZM284 589T261 619T193 649T125 617T102 535T125 455T193
425T261 457T284 539ZM562 338Q609 338 643 320T693 274Q722 222 722 172Q722 87 676 38T556 -12Q509 -12 475 6T425 52Q396 104 396 154Q396 239 442 288T562 338ZM650 215T627 245T559 275T491 243T468 161T491 81T559 51T627 83T650 165ZM588 620L198 19L143
55L534 656L588 620Z" />
<glyph unicode="&amp;" glyph-name="ampersand" horiz-adv-x="637" d="M340 560T316 578T252 597T185 578T157 512T195 433T319 377L311 310L268 305Q208 298 172 265T135 176T168 93T251 67Q331 67 366 125V377H448L537 382L528 319L450 307V131Q450 97 466 80T511
62T567 72L592 18Q552 -12 486 -12Q450 -12 423 5T388 52H384Q334 -12 231 -12Q148 -12 95 31T41 157T83 283T187 346V350Q68 394 68 503Q68 578 119 625T256 672T384 637T436 531L349 516Q340 560 316 578Z" />
<glyph unicode="&apos;" glyph-name="quotesingle" horiz-adv-x="212" d="M65 754H147V668L137 515H75L65 668V754Z" />
<glyph unicode="(" glyph-name="parenleft" horiz-adv-x="312" d="M65 156T65 303T110 571T223 767L296 757Q161 561 161 303T296 -151L223 -161Q156 -86 111 35Z" />
<glyph unicode=")" glyph-name="parenright" horiz-adv-x="312" d="M16 -152Q151 44 151 302T16 756L89 766Q157 689 202 574T247 312T201 39T89 -162L16 -152Z" />
<glyph unicode="*" glyph-name="asterisk" horiz-adv-x="396" d="M338 423L237 477L222 517L264 524L356 467L338 423ZM58 638L159 585L174 544L132 538L40 595L58 638ZM361 598L264 538L222 544L237 585L333 636L361 598ZM221 706L225 592L198 558L171 592L175
700L221 706ZM175 356L171 470L198 503L225 470L221 362L175 356ZM35 463L132 524L174 517L159 477L64 426L35 463Z" />
<glyph unicode="+" glyph-name="plus" horiz-adv-x="492" d="M209 313V469L284 482V313H452L440 238H284V82L209 69V238H40L52 313H209Z" />
<glyph unicode="," glyph-name="comma" horiz-adv-x="214" d="M154 76T154 50T151 5T136 -42Q114 -97 31 -147L-9 -97Q37 -55 48 -31T60 33T57 104L151 118Q154 76 154 50Z" />
<glyph unicode="-" glyph-name="hyphen" horiz-adv-x="330" d="M285 290V215H45V290H285Z" />
<glyph unicode="." glyph-name="period" horiz-adv-x="249" d="M121 -12Q60 -12 60 56Q60 81 76 99T128 117Q189 117 189 49Q189 24 173 6T121 -12Z" />
<glyph unicode="/" glyph-name="slash" horiz-adv-x="314" d="M221 750H300L98 -110H18L221 750Z" />
<glyph unicode="0" glyph-name="zero" horiz-adv-x="576" d="M299 531Q356 531 400 513T469 467T510 402Q537 341 537 274Q537 146 467 70T279 -6Q225 -6 182 12T113 59T70 123Q40 187 40 251Q40 378 112 454T299 531ZM444 350T406 400T288 451T172 396T136 259T176
126T292 74Q444 74 444 269Q444 350 406 400Z" />
<glyph unicode="1" glyph-name="one" horiz-adv-x="408" d="M378 0H64V65L182 75V335L190 416L187 417L147 388L72 350L42 407L164 492L208 530L280 522L272 384V75L378 65V0Z" />
<glyph unicode="2" glyph-name="two" horiz-adv-x="456" d="M53 491Q139 537 228 537T365 491T414 366Q414 252 267 153Q240 135 205 110T156 76L159 72L219 78H428L407 0H45V96Q138 164 179 196T258 262T305 317T316 365Q316 411 286 434T212 457T86 428L53 491Z" />
<glyph unicode="3" glyph-name="three" horiz-adv-x="470" d="M327 60Q327 118 293 144T185 170H133V246Q139 246 145 246Q232 246 276 302Q301 333 301 363T279 425T187 457Q145 457 73 432L45 495Q126 537 215 537T350 495T395 386Q395 269 297 221Q354 206
388 165T422 58Q422 -39 363 -93T199 -147T19 -94L48 -26Q139 -66 214 -66Q327 -66 327 60Z" />
<glyph unicode="4" glyph-name="four" horiz-adv-x="540" d="M419 77H530L509 0H419V-138L329 -148V0H55V86L279 540L346 490L149 77H329V160L341 300L419 310V77Z" />
<glyph unicode="5" glyph-name="five" horiz-adv-x="489" d="M243 283Q340 283 393 234T447 78T381 -87T226 -147Q111 -147 40 -97L68 -29Q154 -67 217 -67Q351 -67 351 77Q351 142 314 173T226 205T123 178L78 208L110 525H421L409 442H192L175 298L170 271Q203
283 243 283Z" />
<glyph unicode="6" glyph-name="six" horiz-adv-x="519" d="M312 592Q233 592 191 527T147 366Q210 414 287 414Q397 414 445 349Q487 292 487 202T432 50T277 -12Q160 -12 104 66T48 312T114 576T300 672Q375 672 456 636L427 571Q368 592 312 592ZM147 261Q147
171 180 120T273 68T361 107T391 207Q391 334 275 334Q193 334 147 281V261Z" />
<glyph unicode="7" glyph-name="seven" horiz-adv-x="472" d="M440 428Q337 228 188 -146L99 -103L356 433H38L49 525H440V428Z" />
<glyph unicode="8" glyph-name="eight" horiz-adv-x="521" d="M69 574T118 623T262 672T401 630T446 521Q446 413 346 365Q407 337 441 297T476 180T418 45T256 -12T98 33T45 154T76 271T166 344Q69 394 69 498Q69 574 118 623ZM189 292T164 261T139 179T172 98T268
67Q382 67 382 185Q382 236 340 265Q308 287 238 313Q189 292 164 261ZM301 601T253 601T182 581T159 513T189 441T278 393Q320 414 338 440T356 511T329 578Z" />
<glyph unicode="9" glyph-name="nine" horiz-adv-x="525" d="M40 415T98 476T265 537T425 459T476 217T410 -47T224 -147Q149 -147 68 -111L97 -46Q156 -67 214 -67Q289 -67 332 0T378 163Q360 142 320 127T236 111Q140 111 90 165T40 317ZM248 457Q136 457 136
316Q136 262 164 227T252 191Q334 191 377 244V269Q377 361 347 409T248 457Z" />
<glyph unicode=":" glyph-name="colon" horiz-adv-x="249" d="M128 117Q189 117 189 49Q189 24 173 6T121 -12Q60 -12 60 56Q60 81 76 99T128 117ZM128 498Q189 498 189 430Q189 405 173 387T121 369Q60 369 60 437Q60 462 76 480T128 498Z" />
<glyph unicode=";" glyph-name="semicolon" horiz-adv-x="239" d="M114 498Q175 498 175 430Q175 405 159 387T107 369Q46 369 46 437Q46 462 62 480T114 498ZM164 76T164 50T161 5T146 -42Q124 -97 41 -147L1 -97Q47 -55 58 -31T70 33T67 104L161 118Q164 76 164 50Z" />
<glyph unicode="&lt;" glyph-name="less" horiz-adv-x="498" d="M403 481L456 426L147 238L457 78L405 22L61 200L49 262L403 481Z" />
<glyph unicode="=" glyph-name="equal" horiz-adv-x="511" d="M471 238L460 163H40L51 238H471ZM471 418L460 343H40L51 418H471Z" />
<glyph unicode="&gt;" glyph-name="greater" horiz-adv-x="498" d="M103 481L457 262L445 200L101 22L49 78L359 238L50 426L103 481Z" />
<glyph unicode="?" glyph-name="question" horiz-adv-x="421" d="M24 667Q97 712 189 712T328 670T374 556T347 443T247 343Q217 319 209 301T201 245V186L121 177Q116 263 116 289Q116 338 173 382Q230 424 252 457T275 531Q275 631 159 631Q118 631 49 606L24
667ZM166 117Q227 117 227 49Q227 24 211 6T159 -12Q98 -12 98 56Q98 81 114 99T166 117Z" />
<glyph unicode="@" glyph-name="at" horiz-adv-x="853" d="M408 136Q436 136 461 152T496 186Q500 229 508 302T520 419Q496 427 467 427Q420 427 389 396Q336 342 336 239T408 136ZM590 461L561 158Q561 133 595 133Q643 133 683 201T723 399Q723 463 701 510T639
582Q564 630 457 630Q366 630 288 580Q245 552 213 509T159 396T138 251T151 126T185 44T236 -11T293 -45T352 -64Q394 -72 439 -72Q540 -72 616 -35L641 -95Q542 -142 410 -142Q257 -142 163 -58Q57 36 57 227Q57 348 93 441T192 590Q314 700 472 700T716 623T801
412Q801 251 737 160T579 68Q538 68 523 84T504 131H500Q458 72 388 72T287 119T257 233T278 354T347 449T461 489T590 461Z" />
<glyph unicode="A" glyph-name="A" horiz-adv-x="534" d="M328 705L522 0H421L374 185H152L103 0H10L205 693L328 705ZM262 615L175 267H354L269 615H262Z" />
<glyph unicode="B" glyph-name="B" horiz-adv-x="563" d="M90 700H330Q416 700 457 655T499 545T467 436T378 380V376Q536 361 536 198Q536 117 473 59T309 0H90V700ZM186 328V78H292Q375 78 404 111T434 202T396 294T275 328H186ZM186 627V408H276Q335 408 366
437T397 520T372 600T282 627H186Z" />
<glyph unicode="C" glyph-name="C" horiz-adv-x="542" d="M324 712Q428 712 472 661T516 508L414 498Q414 571 388 598T314 626T237 611T192 570T166 503Q152 438 152 317T198 135T340 74Q385 74 466 102Q485 109 488 110L516 38Q423 -12 322 -12Q254 -12 204
9T125 62T78 144Q50 224 50 322T65 484T111 600T197 682T324 712Z" />
<glyph unicode="D" glyph-name="D" horiz-adv-x="612" d="M90 700H294Q360 700 409 679T487 624T534 542Q562 462 562 344Q562 204 504 107Q474 57 421 29T297 0H90V700ZM186 616V84H286Q397 84 431 167Q448 208 454 251T460 354T452 458T424 540Q383 616 278 616H186Z" />
<glyph unicode="E" glyph-name="E" horiz-adv-x="499" d="M90 700H469L457 614H186V399H425L413 315H186V86H474L462 0H90V700Z" />
<glyph unicode="F" glyph-name="F" horiz-adv-x="472" d="M90 700H461L449 615H186V391H412L400 307H186V0H90V700Z" />
<glyph unicode="G" glyph-name="G" horiz-adv-x="602" d="M327 712Q438 712 483 661T528 509L426 499Q426 570 400 598T325 626T247 612T200 573T173 510Q157 446 157 322T200 136T341 74Q396 74 443 92V251H308L318 335H533V35Q431 -12 325 -12Q172 -12 112 81Q63
158 56 282Q55 313 55 355Q55 515 125 613T327 712Z" />
<glyph unicode="H" glyph-name="H" horiz-adv-x="627" d="M441 0V321H186V0H90V700H186V405H441V700H537V0H441Z" />
<glyph unicode="I" glyph-name="I" horiz-adv-x="276" d="M186 700V0H90V700H186Z" />
<glyph unicode="J" glyph-name="J" horiz-adv-x="276" d="M186 700V94Q186 -1 151 -64T10 -174L-49 -107Q5 -80 32 -54Q90 -1 90 134V700H186Z" />
<glyph unicode="K" glyph-name="K" horiz-adv-x="519" d="M186 700V0H90V700H186ZM428 701L511 665L293 361L542 0H425L190 350L428 701Z" />
<glyph unicode="L" glyph-name="L" horiz-adv-x="458" d="M186 700V85H443L431 0H90V700H186Z" />
<glyph unicode="M" glyph-name="M" horiz-adv-x="733" d="M640 700L677 0H583L559 494L566 614H560L425 40L310 30L155 614H148L160 496L143 0H61L88 700H228L348 230L369 120H374L392 227L500 700H640Z" />
<glyph unicode="N" glyph-name="N" horiz-adv-x="630" d="M540 700V0H439L207 474L174 566L169 563L186 460V0H90V700H192L423 214L457 119L462 122L444 240V700H540Z" />
<glyph unicode="O" glyph-name="O" horiz-adv-x="626" d="M410 597T378 611T301 626T224 604T177 538Q152 465 152 342Q152 182 197 126Q238 74 323 74Q363 74 391 90T435 131T460 196Q474 258 474 333T471 443T458 515T429 574ZM324 712Q576 712 576 365Q576
186 507 87T302 -12Q50 -12 50 335Q50 514 119 613T324 712Z" />
<glyph unicode="P" glyph-name="P" horiz-adv-x="536" d="M90 700H320Q430 700 472 646T515 500Q515 411 467 344Q441 307 388 286T260 264H186V0H90V700ZM186 627V344H286Q413 344 413 480Q413 554 387 590T277 627H186Z" />
<glyph unicode="Q" glyph-name="Q" horiz-adv-x="625" d="M49 335Q49 514 118 613T324 712Q575 712 575 365Q575 186 506 87T300 -12V-16L560 -94L523 -170L254 -68L271 -11Q49 8 49 335ZM214 103T246 89T320 74T390 90T434 131T459 196Q473 260 473 334T470 444T457
515T428 574Q385 626 301 626Q207 626 176 538Q151 465 151 341Q151 182 196 126Q214 103 246 89Z" />
<glyph unicode="R" glyph-name="R" horiz-adv-x="537" d="M90 700H316Q423 700 463 642Q499 589 499 513T459 384T351 307L542 0H429L257 291H186V0H90V700ZM186 626V371H263Q329 371 364 405T399 501T370 594T272 626H186Z" />
<glyph unicode="S" glyph-name="S" horiz-adv-x="486" d="M37 604T97 658T250 712T391 666T446 540L344 530Q341 576 314 601T239 626T164 603T137 544Q137 496 168 466Q199 436 274 398Q340 364 364 349T414 310Q462 267 462 185T400 46T233 -12T34 53L75 127Q168
74 250 74Q299 74 330 98T361 169T330 243T251 292T192 319T155 339T117 364T87 392T60 428Q37 475 37 524Q37 604 97 658Z" />
<glyph unicode="T" glyph-name="T" horiz-adv-x="446" d="M276 616V0H180V616H0L9 700H450L441 616H276Z" />
<glyph unicode="U" glyph-name="U" horiz-adv-x="622" d="M532 700V153L540 6L462 -5L452 53H448Q383 -12 291 -12T142 35T85 177V700H181V194Q181 131 219 103T314 74Q396 74 436 136V700H532Z" />
<glyph unicode="V" glyph-name="V" horiz-adv-x="513" d="M514 693L317 0H193L2 693L96 705L240 173L257 93H261L279 173L422 705L514 693Z" />
<glyph unicode="W" glyph-name="W" horiz-adv-x="774" d="M762 694L619 0H479L389 535H385L380 490L296 0H162L11 694L108 706L227 127L232 87H236L330 641L451 652L542 127L546 87H550L668 706L762 694Z" />
<glyph unicode="X" glyph-name="X" horiz-adv-x="501" d="M488 693L305 357L507 7L404 -5L250 273L102 -5L12 7L196 357L8 693L111 705L252 438L397 705L488 693Z" />
<glyph unicode="Y" glyph-name="Y" horiz-adv-x="478" d="M290 0H194V252Q83 505 0 693L97 705L239 345H245L387 705L478 693L290 252V0Z" />
<glyph unicode="Z" glyph-name="Z" horiz-adv-x="459" d="M435 700V608L128 83H444L435 0H25V93L328 617H27L36 700H435Z" />
<glyph unicode="[" glyph-name="bracketleft" horiz-adv-x="304" d="M289 798V733H175V-93H289V-158H95V798H289Z" />
<glyph unicode="\" glyph-name="backslash" horiz-adv-x="314" d="M97 750L300 -110H220L18 750H97Z" />
<glyph unicode="]" glyph-name="bracketright" horiz-adv-x="304" d="M209 798V-158H15V-93H129V733H15V798H209Z" />
<glyph unicode="^" glyph-name="asciicircum" horiz-adv-x="609" d="M335 748L544 299L460 282L300 632L150 283L65 298L256 734L335 748Z" />
<glyph unicode="_" glyph-name="underscore" horiz-adv-x="470" d="M475 -188H-5V-123H475V-188Z" />
<glyph unicode="`" glyph-name="grave" horiz-adv-x="309" d="M93 750L269 614L227 564L40 681L93 750Z" />
<glyph unicode="a" glyph-name="a" horiz-adv-x="481" d="M311 366Q311 457 228 457Q175 457 85 429L53 492Q139 537 239 537Q360 537 387 465Q401 428 401 367V154Q401 82 442 40L389 -12Q371 -1 353 20T327 63H324Q269 -12 172 -12Q29 -12 29 137Q29 269 215
296L311 310V366ZM125 126Q125 68 196 68T311 118V240Q185 223 156 200Q125 175 125 126Z" />
<glyph unicode="b" glyph-name="b" horiz-adv-x="528" d="M442 460Q483 395 483 274Q483 108 411 44Q348 -12 253 -12T75 46V745L165 755V530L160 480L163 478Q209 537 301 537T442 460ZM347 99Q387 139 387 256T358 415T271 457Q198 457 165 408V96Q204 67 259
67T347 99Z" />
<glyph unicode="c" glyph-name="c" horiz-adv-x="459" d="M45 384T103 460T259 537T389 492T422 359L332 353Q332 410 315 433T246 457Q141 457 141 263T275 68Q334 68 400 101L427 41Q402 19 356 4T257 -12Q45 -12 45 259Q45 384 103 460Z" />
<glyph unicode="d" glyph-name="d" horiz-adv-x="533" d="M363 505Q364 505 366 506L363 532V745L453 755V144L461 5L388 -5L377 56H373Q313 -12 229 -12T95 47T45 259Q45 321 59 371T95 451T146 501Q197 537 260 537T363 505ZM269 457Q242 457 223 451T184 426Q141
387 141 268T168 108T257 68Q291 68 320 83T363 117V429Q324 457 269 457Z" />
<glyph unicode="e" glyph-name="e" horiz-adv-x="481" d="M269 537Q355 537 396 485Q430 443 438 344Q441 305 441 247L400 241H141Q141 115 208 82Q236 68 285 68T398 100L426 38Q343 -12 259 -12Q45 -12 45 258Q45 386 101 461T269 537ZM345 392T329 424T256
457T174 419T144 312H345Q345 392 329 424Z" />
<glyph unicode="f" glyph-name="f" horiz-adv-x="335" d="M95 573Q95 672 147 716T277 760Q334 760 387 739L369 672Q326 681 294 681Q185 681 185 574V525H338L326 449H185V0H95V449H18L28 519L95 525V573Z" />
<glyph unicode="g" glyph-name="g" horiz-adv-x="490" d="M244 537Q260 537 271 536T330 533Q469 527 482 527L471 469L402 462Q427 420 427 362Q427 276 375 226T227 176Q212 176 188 178Q168 162 162 155T156 139Q156 110 219 104L294 97Q374 92 419 65T465
-26T428 -128Q359 -200 223 -200Q18 -200 18 -76Q18 -27 80 26Q87 32 90 34T100 41T107 46Q68 69 68 112Q68 138 82 155T129 195Q44 236 44 348Q44 436 96 486T244 537ZM106 -93T142 -111T237 -129T337 -111T379 -54Q379 -23 360 -11Q350 -4 342 0T313 8Q277 13
238 16T165 26Q125 -5 116 -21T106 -55Q106 -93 142 -111ZM230 466Q179 466 158 439T136 356Q136 245 241 245Q293 245 314 273T335 358Q335 466 230 466Z" />
<glyph unicode="h" glyph-name="h" horiz-adv-x="543" d="M169 480Q228 537 303 537T423 495T468 360V0H377V354Q377 457 274 457Q244 457 215 443T169 409V0H80V745L169 755V527L165 481L169 480Z" />
<glyph unicode="i" glyph-name="i" horiz-adv-x="250" d="M170 0H80V520L170 530V0ZM121 559Q60 559 60 627Q60 652 76 670T128 688Q189 688 189 620Q189 595 173 577T121 559Z" />
<glyph unicode="j" glyph-name="j" horiz-adv-x="250" d="M170 -12Q170 -91 150 -125T63 -200L12 -146Q59 -111 69 -83T80 31V520L170 530V-12ZM121 559Q60 559 60 627Q60 652 76 670T128 688Q189 688 189 620Q189 595 173 577T121 559Z" />
<glyph unicode="k" glyph-name="k" horiz-adv-x="467" d="M165 0H75V745L165 755V0ZM473 0H359L168 266L361 530L450 503L264 265L473 0Z" />
<glyph unicode="l" glyph-name="l" horiz-adv-x="245" d="M163 160Q163 111 171 86T207 31L140 -22Q99 21 86 51T73 153V745L163 755V160Z" />
<glyph unicode="m" glyph-name="m" horiz-adv-x="803" d="M162 471Q207 537 297 537T426 468Q479 537 576 537Q650 537 689 490T728 360V0H638V354Q638 457 549 457Q482 457 449 409V0H359V354Q359 457 270 457Q203 457 170 409V0H80V381L72 520L145 530L158 471H162Z" />
<glyph unicode="n" glyph-name="n" horiz-adv-x="543" d="M306 537Q380 537 424 495T468 360V0H378V354Q378 457 275 457Q245 457 216 443T170 409V0H80V381L72 520L145 530L158 471H162Q180 494 216 515T306 537Z" />
<glyph unicode="o" glyph-name="o" horiz-adv-x="524" d="M121 491T167 514T276 537T381 513T444 446Q479 369 479 257Q479 149 429 74Q403 34 357 11T248 -12T143 12T80 80Q45 156 45 268Q45 376 95 452Q121 491 167 514ZM337 437T314 447T259 457T203 445T168
417T150 370Q141 325 141 273T143 197T152 146T174 104Q204 68 266 68Q298 68 321 80T356 108T374 155Q383 200 383 252T381 328T372 379T351 421Z" />
<glyph unicode="p" glyph-name="p" horiz-adv-x="532" d="M159 469Q216 537 303 537T438 476T487 262Q487 185 467 129T413 43Q350 -12 277 -12T170 20L167 19L170 -6V-184L80 -194V381L72 520L145 530L155 469H159ZM170 94Q213 68 270 68T359 110T391 268Q391
407 339 442Q317 457 285 457Q209 457 170 407V94Z" />
<glyph unicode="q" glyph-name="q" horiz-adv-x="528" d="M363 430Q319 457 257 457T168 406T141 247Q141 68 255 68Q327 68 363 117V430ZM226 -12Q158 -12 106 40Q45 101 45 252Q45 335 65 393T120 482Q183 537 273 537Q316 537 368 527T453 501V-183L363 -193V-8L368
43H364Q318 -12 226 -12Z" />
<glyph unicode="r" glyph-name="r" horiz-adv-x="365" d="M293 537Q319 537 332 533T355 526T366 522L350 432Q320 442 279 442T204 407T170 321V0H80V381L72 520L145 530L156 429H160Q177 478 211 507T293 537Z" />
<glyph unicode="s" glyph-name="s" horiz-adv-x="429" d="M40 455T88 496T214 537T334 500T383 399L290 380Q288 417 266 438T209 459T155 443T136 402T144 363T170 336Q194 319 237 302T300 274T346 244Q395 209 395 144T343 33T206 -12T37 42L72 108Q166 68
217 68Q299 68 299 132Q299 161 274 180T205 218T142 247T94 278Q40 318 40 386Z" />
<glyph unicode="t" glyph-name="t" horiz-adv-x="350" d="M185 525H328L316 449H185V205Q185 127 198 97T260 66Q287 66 313 77L339 20Q327 8 295 -2T237 -12Q149 -12 122 37T95 199V449H9L19 519L95 525L100 635L185 660V525Z" />
<glyph unicode="u" glyph-name="u" horiz-adv-x="543" d="M231 -12Q163 -12 119 30T75 160V521L165 530V171Q165 68 262 68Q326 68 373 115V521L463 530V144L471 5L398 -5L387 56H383Q326 -12 231 -12Z" />
<glyph unicode="v" glyph-name="v" horiz-adv-x="435" d="M340 531L423 521L279 0H163L12 521L102 531L220 88H225L340 531Z" />
<glyph unicode="w" glyph-name="w" horiz-adv-x="683" d="M583 531L666 521L549 0H432L343 391H337L252 0H135L17 521L105 531L194 90H201L292 495L393 505L489 90H496L583 531Z" />
<glyph unicode="x" glyph-name="x" horiz-adv-x="428" d="M325 530L416 520L265 278L440 5L343 -5L218 205H213L90 -5L-2 5L162 277L11 520L106 530L214 348H219L325 530Z" />
<glyph unicode="y" glyph-name="y" horiz-adv-x="430" d="M333 529L420 519L297 104Q256 -36 221 -99Q199 -138 150 -168T65 -200L28 -127Q76 -123 119 -91T172 -8Q100 217 5 520L99 530L213 101H219L333 529Z" />
<glyph unicode="z" glyph-name="z" horiz-adv-x="407" d="M377 525V442L118 76H397L382 0H19V84L272 449H21L34 525H377Z" />
<glyph unicode="{" glyph-name="braceleft" horiz-adv-x="347" d="M222 617L232 454Q232 418 219 390T185 348Q144 318 115 316V310Q170 305 208 251Q232 218 232 182T226 91T220 8Q220 -115 349 -127L360 -187H324Q256 -187 198 -148Q168 -128 149 -93T130 -20T136
75T142 164Q142 221 118 245T45 276V350Q93 356 117 380T142 461Q142 490 136 548T130 637Q130 725 191 769T324 813H359L349 753Q222 742 222 617Z" />
<glyph unicode="|" glyph-name="bar" horiz-adv-x="265" d="M170 760V-150H95V760H170Z" />
<glyph unicode="}" glyph-name="braceright" horiz-adv-x="346" d="M114 454L124 617Q124 742 -3 753L-13 813H22Q93 813 154 769T216 637Q216 606 210 548T204 461Q204 404 228 380T301 350V276Q252 269 228 245T204 164Q204 132 210 75T216 -19T197 -92T148
-148Q89 -187 22 -187H-14L-3 -127Q126 -115 126 8Q126 37 120 91T114 181T138 251Q176 305 231 310V316Q202 318 161 348Q141 362 128 390T114 454Z" />
<glyph unicode="~" glyph-name="asciitilde" horiz-adv-x="531" d="M367 209Q324 209 260 234T172 259T132 254T110 244Q88 232 66 214L41 275Q110 339 159 339T272 313T360 287T400 292T422 302Q444 314 466 332L491 271Q424 209 367 209Z" />
<glyph unicode="&#xa1;" glyph-name="exclamdown" horiz-adv-x="260" d="M170 323L187 -175L83 -185L100 313L170 323ZM138 538Q199 538 199 470Q199 445 183 427T131 409Q70 409 70 477Q70 502 86 520T138 538Z" />
<glyph unicode="&#xa2;" glyph-name="cent" horiz-adv-x="482" d="M306 536Q230 536 191 484T152 327T181 185T272 147T392 176L413 117Q360 74 277 67V-63L195 -73L216 68Q140 79 98 135T56 288Q56 427 110 516T272 615L277 739L359 749L331 614Q394 607 448
570L412 509Q351 536 306 536Z" />
<glyph unicode="&#xa3;" glyph-name="sterling" horiz-adv-x="459" d="M324 537Q238 537 227 453Q225 441 223 391H390L360 322H219Q212 209 167 170Q186 167 229 152T309 137T396 169L417 109Q362 61 295 61Q253 61 198 80T113 100T44 73L15 126Q40 148 78 163Q104
181 115 205T129 271L132 322H45L63 382L136 391L140 447Q148 543 206 582Q257 616 325 616Q367 616 389 610T416 602T441 592T463 582L429 520Q385 537 324 537Z" />
<glyph unicode="&#xa4;" glyph-name="currency" horiz-adv-x="618" d="M485 486Q523 438 523 346T468 188L548 108L484 56L421 147Q367 115 291 115T169 143L107 56L45 110L123 187Q89 234 89 312Q89 428 160 494L87 579L154 627L212 529Q263 552 328 552T440
526L523 627L583 571L485 486ZM314 471Q185 471 185 317Q185 196 297 196Q427 196 427 350Q427 471 314 471Z" />
<glyph unicode="&#xa5;" glyph-name="yen" horiz-adv-x="459" d="M368 614L453 604L290 303H411L382 245H265L258 195H392L363 137H250L241 70H151L160 137H23L52 195H168L175 245H42L71 303H164L64 604L149 614L225 332H233L368 614Z" />
<glyph unicode="&#xa6;" glyph-name="brokenbar" horiz-adv-x="265" d="M95 190H170V-150H95V190ZM95 760H170V420H95V760Z" />
<glyph unicode="&#xa7;" glyph-name="section" horiz-adv-x="514" d="M347 668T322 673T263 679T201 659T171 600Q171 570 181 558T195 540T216 526T238 514Q246 509 290 490T347 464T385 444T420 420T444 392Q466 365 466 312Q466 201 354 162Q446 113 446 22Q446
-55 390 -101T238 -148T43 -94L76 -20Q98 -33 150 -50T247 -68T320 -48T348 12Q348 69 260 108Q188 139 163 152T109 186Q54 227 54 300Q54 350 84 388T162 449Q73 502 73 583T127 712T280 760T458 706L427 636Q426 636 399 648T359 664ZM152 313Q152 274 183 249T277
197Q318 204 343 233T369 298T342 359T238 413Q152 387 152 313Z" />
<glyph unicode="&#xa8;" glyph-name="dieresis" horiz-adv-x="376" d="M100 711Q152 711 152 652Q152 600 93 600Q40 600 40 659Q40 684 52 697T100 711ZM283 711Q336 711 336 652Q336 627 324 614T276 600Q224 600 224 659Q224 711 283 711Z" />
<glyph unicode="&#xa9;" glyph-name="copyright" horiz-adv-x="760" d="M236 350T277 405T391 460T487 428T511 334L441 328Q441 364 430 380T382 396T328 364T311 264Q311 137 385 137Q412 137 426 150T441 198L511 191Q511 136 475 104T382 72Q236 72 236 257Q236
350 277 405ZM45 423T139 523T391 624T632 526T715 269T621 9T369 -91T128 6T45 263ZM645 399T583 476T392 553T189 474T115 265T180 58T371 -20T571 59T645 268Z" />
<glyph unicode="&#xaa;" glyph-name="ordfeminine" horiz-adv-x="369" d="M300 676Q319 644 319 589V456Q319 393 327 372T352 333L305 297Q272 321 257 350H252Q201 298 140 298Q36 298 36 407Q36 514 169 532L249 544V585Q249 621 233 639T175 658T73 638L51
686Q122 717 200 717T300 676ZM112 412Q112 358 165 358Q213 358 249 397V496Q172 483 142 468T112 412Z" />
<glyph unicode="&#xab;" glyph-name="guillemotleft" horiz-adv-x="442" d="M222 447L128 248L222 49L159 31L40 248L159 465L222 447ZM402 447L308 248L402 49L339 31L220 248L339 465L402 447Z" />
<glyph unicode="&#xac;" glyph-name="logicalnot" horiz-adv-x="561" d="M506 328V97L432 87V253H40L52 328H506Z" />
<glyph unicode="&#xae;" glyph-name="registered" horiz-adv-x="534" d="M184 645H285Q321 645 338 626T355 575Q355 522 302 502L370 393H312L254 491H236V393H184V645ZM236 608V528H265Q282 528 291 540T301 571Q301 608 267 608H236ZM40 624T104 692T275 760T438
694T494 520T430 344T259 276T96 342T40 516ZM443 606T402 657T275 708T141 656T91 517T134 380T261 328T394 380T443 519Z" />
<glyph unicode="&#xaf;" glyph-name="overscore" horiz-adv-x="340" d="M40 691H300V621H40V691Z" />
<glyph unicode="&#xb0;" glyph-name="degree" horiz-adv-x="344" d="M176 712Q214 712 241 699T282 664Q305 623 305 583Q305 519 267 481T163 442T66 484T35 571Q35 635 74 673T176 712ZM239 613T222 633T170 654T119 631T103 575T120 521T172 500Q239 500 239
580Q239 613 222 633Z" />
<glyph unicode="&#xb1;" glyph-name="plusminus" horiz-adv-x="494" d="M284 387H452L440 312H284V156L209 143V312H40L52 387H209V543L284 556V387ZM454 88L442 13H42L54 88H454Z" />
<glyph unicode="&#xb2;" glyph-name="twosuperior" horiz-adv-x="380" d="M55 684Q112 717 178 717T277 685T311 607T290 525T246 466Q224 445 123 362L124 357L177 367H320L305 304H55V382L155 468Q238 539 238 591Q238 660 164 660Q121 660 77 640L55 684Z" />
<glyph unicode="&#xb3;" glyph-name="threesuperior" horiz-adv-x="363" d="M51 689Q113 717 174 717T265 691T294 624Q294 557 230 525Q230 522 251 511T292 476T313 422Q313 362 275 330T173 298Q83 298 35 337L57 381Q122 354 170 354Q240 354 240 424Q240
455 220 472T163 489H109V540Q221 540 221 613Q221 661 161 661Q126 661 75 647L51 689Z" />
<glyph unicode="&#xb4;" glyph-name="acute" horiz-adv-x="309" d="M216 750L269 681L82 564L40 614L216 750Z" />
<glyph unicode="&#xb5;" glyph-name="mu" horiz-adv-x="569" d="M484 154Q484 82 525 40L472 -12Q431 11 409 62Q349 -12 252 -12Q230 -12 204 -2T167 27L164 26L175 -41V-184L85 -194V521L176 530V168Q176 118 205 92T280 66Q347 66 394 115V521L484 530V154Z" />
<glyph unicode="&#xb6;" glyph-name="paragraph" horiz-adv-x="595" d="M538 700V647H495V113Q495 50 464 7T375 -78L270 -154L228 -105Q276 -71 286 -46T297 46V261H231Q135 261 89 324T43 477Q43 700 232 700H538ZM372 647V-6Q423 41 423 115V647H372ZM197 571T195
545T192 458T209 355T271 312H297V649H271Q221 649 205 597Q197 571 195 545Z" />
<glyph unicode="&#xb7;" glyph-name="middot" horiz-adv-x="206" d="M103 370Q164 370 164 302Q164 277 148 259T96 241Q35 241 35 309Q35 334 51 352T103 370Z" />
<glyph unicode="&#xb8;" glyph-name="cedilla" horiz-adv-x="243" d="M177 -58Q208 -76 208 -113T185 -169T121 -188T35 -165L53 -120Q90 -137 118 -137T146 -111Q146 -96 110 -86T70 -75L96 21H143L132 -44Q174 -56 177 -58Z" />
<glyph unicode="&#xb9;" glyph-name="onesuperior" horiz-adv-x="329" d="M294 304H62V357L147 366V579L154 634L149 638L118 616L64 590L40 632L124 687L158 717L224 710L217 612V366L294 357V304Z" />
<glyph unicode="&#xba;" glyph-name="ordmasculine" horiz-adv-x="405" d="M346 646Q371 591 371 504T328 357T191 298Q92 298 60 368Q35 424 35 511T78 658T217 717T346 646ZM283 614T261 636T206 658T156 649T131 627T118 590Q111 557 111 496T130 396T208 357Q254
357 276 388Q295 417 295 510Q295 556 289 585Z" />
<glyph unicode="&#xbb;" glyph-name="guillemotright" horiz-adv-x="442" d="M283 465L402 248L283 31L220 49L314 248L220 447L283 465ZM103 465L222 248L103 31L40 49L134 248L40 447L103 465Z" />
<glyph unicode="&#xbc;" glyph-name="onequarter" horiz-adv-x="735" d="M570 145V193L577 280L631 286V145H710L697 89H631V5L570 -3V89H388V158L555 416L602 385L458 145H570ZM545 704L236 -12L183 15L493 731L545 704ZM264 304H32V357L119 366V579L126 634L121
638L88 616L34 590L10 632L94 687L128 717L194 710L187 612V366L264 357V304Z" />
<glyph unicode="&#xbd;" glyph-name="onehalf" horiz-adv-x="743" d="M453 380Q510 413 576 413T677 381T712 303T690 221T645 162Q631 148 521 58L522 53L575 63H718L703 0H453V78L552 165Q594 202 615 229T636 287Q636 355 562 355Q517 355 475 336L453 380ZM545
704L236 -12L183 15L493 731L545 704ZM264 304H32V357L119 366V579L126 634L121 638L88 616L34 590L10 632L94 687L128 717L194 710L187 612V366L264 357V304Z" />
<glyph unicode="&#xbe;" glyph-name="threequarters" horiz-adv-x="746" d="M556 704L247 -12L194 15L504 731L556 704ZM41 689Q103 717 164 717T255 691T284 624Q284 557 220 525Q220 522 241 511T282 476T303 422Q303 362 265 330T163 298Q73 298 25 337L47
381Q112 354 160 354Q230 354 230 424Q230 455 210 472T153 489H99V540Q211 540 211 613Q211 661 151 661Q116 661 65 647L41 689ZM581 145V193L588 280L642 286V145H721L708 89H642V5L581 -3V89H399V158L566 416L613 385L469 145H581Z" />
<glyph unicode="&#xbf;" glyph-name="questiondown" horiz-adv-x="434" d="M313 347L317 235Q316 185 258 143T177 67T154 -10Q154 -107 268 -107Q309 -107 378 -84L402 -145Q332 -187 224 -187Q142 -187 98 -143T54 -30Q54 62 109 118Q133 143 174 174T222 224T232
280L234 339L313 347ZM271 537Q332 537 332 469Q332 444 316 426T264 408Q203 408 203 476Q203 501 219 519T271 537Z" />
<glyph unicode="&#xc0;" glyph-name="Agrave" horiz-adv-x="534" d="M348 792L315 736L107 821L145 898L348 792ZM328 705L522 0H421L374 185H152L103 0H10L205 693L328 705ZM262 615L175 267H354L269 615H262Z" />
<glyph unicode="&#xc1;" glyph-name="Aacute" horiz-adv-x="534" d="M383 898L421 821L214 736L181 792L383 898ZM328 705L522 0H421L374 185H152L103 0H10L205 693L328 705ZM262 615L175 267H354L269 615H262Z" />
<glyph unicode="&#xc2;" glyph-name="Acircumflex" horiz-adv-x="534" d="M293 885L420 779L382 735L267 812L152 735L114 779L241 885H293ZM328 705L522 0H421L374 185H152L103 0H10L205 693L328 705ZM262 615L175 267H354L269 615H262Z" />
<glyph unicode="&#xc3;" glyph-name="Atilde" horiz-adv-x="534" d="M328 705L522 0H421L374 185H152L103 0H10L205 693L328 705ZM262 615L175 267H354L269 615H262ZM324 775Q298 775 260 791T195 807T122 775L101 836Q157 885 210 885Q236 885 274 869T339 853T412
885L433 824Q377 775 324 775Z" />
<glyph unicode="&#xc4;" glyph-name="Adieresis" horiz-adv-x="534" d="M179 884Q231 884 231 825Q231 773 172 773Q119 773 119 832Q119 857 131 870T179 884ZM362 884Q415 884 415 825Q415 800 403 787T355 773Q303 773 303 832Q303 884 362 884ZM328 705L522
0H421L374 185H152L103 0H10L205 693L328 705ZM262 615L175 267H354L269 615H262Z" />
<glyph unicode="&#xc5;" glyph-name="Aring" horiz-adv-x="534" d="M328 705L522 0H421L374 185H152L103 0H10L205 693L328 705ZM262 615L175 267H354L269 615H262ZM180 863T203 889T269 916T333 892T354 833T331 770T265 742T202 767T180 827ZM264 871Q246 871
237 859T227 830Q227 787 270 787Q288 787 297 799T307 828Q307 871 264 871Z" />
<glyph unicode="&#xc6;" glyph-name="AE" horiz-adv-x="793" d="M487 614V399H719L707 315H487V86H768L756 0H391V185H171L78 0H-20L337 700H763L751 614H487ZM391 267V615H378L210 267H391Z" />
<glyph unicode="&#xc7;" glyph-name="Ccedilla" horiz-adv-x="542" d="M398 -114Q398 -150 375 -169T311 -188T225 -165L243 -120Q280 -137 308 -137T336 -111Q336 -94 283 -81Q262 -76 260 -75L277 -9Q221 -3 179 20T113 77T74 156Q50 235 50 328T65 484T111
600T197 682T324 712Q428 712 472 661T516 508L414 498Q414 559 390 592T306 626Q228 626 192 570Q161 524 154 420Q152 380 152 320Q152 196 198 135T340 74Q385 74 466 102Q485 109 488 110L516 38Q430 -9 327 -12L322 -44Q383 -59 393 -84Q398 -96 398 -114Z"
/>
<glyph unicode="&#xc8;" glyph-name="Egrave" horiz-adv-x="499" d="M363 792L330 736L122 821L160 898L363 792ZM90 700H469L457 614H186V399H425L413 315H186V86H474L462 0H90V700Z" />
<glyph unicode="&#xc9;" glyph-name="Eacute" horiz-adv-x="499" d="M400 898L438 821L231 736L198 792L400 898ZM90 700H469L457 614H186V399H425L413 315H186V86H474L462 0H90V700Z" />
<glyph unicode="&#xca;" glyph-name="Ecircumflex" horiz-adv-x="499" d="M302 885L429 779L391 735L276 812L161 735L123 779L250 885H302ZM90 700H469L457 614H186V399H425L413 315H186V86H474L462 0H90V700Z" />
<glyph unicode="&#xcb;" glyph-name="Edieresis" horiz-adv-x="499" d="M188 884Q240 884 240 825Q240 773 181 773Q128 773 128 832Q128 857 140 870T188 884ZM371 884Q424 884 424 825Q424 800 412 787T364 773Q312 773 312 832Q312 884 371 884ZM90 700H469L457
614H186V399H425L413 315H186V86H474L462 0H90V700Z" />
<glyph unicode="&#xcc;" glyph-name="Igrave" horiz-adv-x="276" d="M219 792L186 736L-22 821L16 898L219 792ZM186 700V0H90V700H186Z" />
<glyph unicode="&#xcd;" glyph-name="Iacute" horiz-adv-x="276" d="M258 898L296 821L88 736L55 792L258 898ZM186 700V0H90V700H186Z" />
<glyph unicode="&#xce;" glyph-name="Icircumflex" horiz-adv-x="276" d="M164 885L281 779L243 735L138 812L33 735L-5 779L112 885H164ZM186 700V0H90V700H186Z" />
<glyph unicode="&#xcf;" glyph-name="Idieresis" horiz-adv-x="276" d="M70 884Q122 884 122 825Q122 773 63 773Q10 773 10 832Q10 857 22 870T70 884ZM213 884Q266 884 266 825Q266 800 254 787T206 773Q154 773 154 832Q154 884 213 884ZM186 700V0H90V700H186Z" />
<glyph unicode="&#xd0;" glyph-name="Eth" horiz-adv-x="617" d="M95 700H299Q365 700 414 679T492 624T538 542Q567 462 567 344Q567 204 509 107Q479 57 426 29T302 0H95V318H16L26 388L95 394V700ZM191 616V394H346L334 318H191V84H291Q415 84 448 198Q465
260 465 337T457 458T428 540Q388 616 283 616H191Z" />
<glyph unicode="&#xd1;" glyph-name="Ntilde" horiz-adv-x="630" d="M372 775Q346 775 308 791T243 807T170 775L149 836Q205 885 258 885Q284 885 322 869T387 853T460 885L481 824Q425 775 372 775ZM540 700V0H439L207 474L174 566L169 563L186 460V0H90V700H192L423
214L457 119L462 122L444 240V700H540Z" />
<glyph unicode="&#xd2;" glyph-name="Ograve" horiz-adv-x="626" d="M394 792L361 736L153 821L191 898L394 792ZM410 597T378 611T301 626T224 604T177 538Q152 465 152 342Q152 182 197 126Q238 74 323 74Q363 74 391 90T435 131T460 196Q474 258 474 333T471
443T458 515T429 574ZM324 712Q576 712 576 365Q576 186 507 87T302 -12Q50 -12 50 335Q50 514 119 613T324 712Z" />
<glyph unicode="&#xd3;" glyph-name="Oacute" horiz-adv-x="626" d="M432 898L470 821L262 736L229 792L432 898ZM410 597T378 611T301 626T224 604T177 538Q152 465 152 342Q152 182 197 126Q238 74 323 74Q363 74 391 90T435 131T460 196Q474 258 474 333T471
443T458 515T429 574ZM324 712Q576 712 576 365Q576 186 507 87T302 -12Q50 -12 50 335Q50 514 119 613T324 712Z" />
<glyph unicode="&#xd4;" glyph-name="Ocircumflex" horiz-adv-x="626" d="M345 885L472 779L434 735L319 812L204 735L166 779L293 885H345ZM410 597T378 611T301 626T224 604T177 538Q152 465 152 342Q152 182 197 126Q238 74 323 74Q363 74 391 90T435 131T460
196Q474 258 474 333T471 443T458 515T429 574ZM324 712Q576 712 576 365Q576 186 507 87T302 -12Q50 -12 50 335Q50 514 119 613T324 712Z" />
<glyph unicode="&#xd5;" glyph-name="Otilde" horiz-adv-x="626" d="M410 597T378 611T301 626T224 604T177 538Q152 465 152 342Q152 182 197 126Q238 74 323 74Q363 74 391 90T435 131T460 196Q474 258 474 333T471 443T458 515T429 574ZM324 712Q576 712 576
365Q576 186 507 87T302 -12Q50 -12 50 335Q50 514 119 613T324 712ZM376 775Q350 775 312 791T247 807T174 775L153 836Q209 885 262 885Q288 885 326 869T391 853T464 885L485 824Q429 775 376 775Z" />
<glyph unicode="&#xd6;" glyph-name="Odieresis" horiz-adv-x="626" d="M231 884Q283 884 283 825Q283 773 224 773Q171 773 171 832Q171 857 183 870T231 884ZM414 884Q467 884 467 825Q467 800 455 787T407 773Q355 773 355 832Q355 884 414 884ZM410 597T378
611T301 626T224 604T177 538Q152 465 152 342Q152 182 197 126Q238 74 323 74Q363 74 391 90T435 131T460 196Q474 258 474 333T471 443T458 515T429 574ZM324 712Q576 712 576 365Q576 186 507 87T302 -12Q50 -12 50 335Q50 514 119 613T324 712Z" />
<glyph unicode="&#xd7;" glyph-name="multiply" horiz-adv-x="539" d="M447 403L319 275L441 154L394 95L266 222L148 104L85 147L213 275L92 396L139 456L266 328L385 447L447 403Z" />
<glyph unicode="&#xd8;" glyph-name="Oslash" horiz-adv-x="626" d="M576 365Q576 186 507 87T302 -12Q265 -12 231 -4L201 -91L139 -70L170 21Q50 94 50 335Q50 514 119 613T324 712Q367 712 405 701L436 791L498 769L465 673Q576 596 576 365ZM375 613Q342 626
299 626T222 598T174 530Q149 459 149 351Q149 179 204 118L375 613ZM261 82Q288 74 326 74T393 91T439 142Q473 213 475 291Q476 314 476 334Q476 380 470 454T430 571L261 82Z" />
<glyph unicode="&#xd9;" glyph-name="Ugrave" horiz-adv-x="622" d="M386 792L353 736L145 821L183 898L386 792ZM532 700V153L540 6L462 -5L452 53H448Q383 -12 291 -12T142 35T85 177V700H181V194Q181 131 219 103T314 74Q396 74 436 136V700H532Z" />
<glyph unicode="&#xda;" glyph-name="Uacute" horiz-adv-x="622" d="M425 898L463 821L255 736L222 792L425 898ZM532 700V153L540 6L462 -5L452 53H448Q383 -12 291 -12T142 35T85 177V700H181V194Q181 131 219 103T314 74Q396 74 436 136V700H532Z" />
<glyph unicode="&#xdb;" glyph-name="Ucircumflex" horiz-adv-x="622" d="M331 885L458 779L420 735L305 812L190 735L152 779L279 885H331ZM532 700V153L540 6L462 -5L452 53H448Q383 -12 291 -12T142 35T85 177V700H181V194Q181 131 219 103T314 74Q396 74 436
136V700H532Z" />
<glyph unicode="&#xdc;" glyph-name="Udieresis" horiz-adv-x="622" d="M217 884Q269 884 269 825Q269 773 210 773Q157 773 157 832Q157 857 169 870T217 884ZM400 884Q453 884 453 825Q453 800 441 787T393 773Q341 773 341 832Q341 884 400 884ZM532 700V153L540
6L462 -5L452 53H448Q383 -12 291 -12T142 35T85 177V700H181V194Q181 131 219 103T314 74Q396 74 436 136V700H532Z" />
<glyph unicode="&#xdd;" glyph-name="Yacute" horiz-adv-x="478" d="M366 898L404 821L197 736L164 792L366 898ZM290 0H194V252Q83 505 0 693L97 705L239 345H245L387 705L478 693L290 252V0Z" />
<glyph unicode="&#xde;" glyph-name="Thorn" horiz-adv-x="536" d="M186 700V570H320Q430 570 472 516T515 370Q515 281 467 214Q441 177 388 156T260 134H186V0H90V700H186ZM186 494V211H286Q413 211 413 347Q413 421 387 457T277 494H186Z" />
<glyph unicode="&#xdf;" glyph-name="germandbls" horiz-adv-x="565" d="M85 659T141 709T277 760T405 720T452 601Q452 516 409 478Q391 463 373 452Q330 426 330 390Q330 359 400 318Q430 301 459 281T509 226T530 149Q530 79 478 34T355 -12T218 17L247 90Q302
68 346 68T412 88T434 142T417 195T364 234T313 262T276 290Q234 325 234 381Q234 436 279 469Q298 483 317 498Q362 532 362 597Q362 678 280 678Q175 678 175 551V0H85V555Q85 659 141 709Z" />
<glyph unicode="&#xe0;" glyph-name="agrave" horiz-adv-x="481" d="M291 614L249 564L62 681L115 750L291 614ZM239 537Q360 537 387 465Q401 428 401 367V154Q401 82 442 40L389 -12Q371 -1 353 20T327 63H324Q269 -12 172 -12Q29 -12 29 137Q29 269 215 296L311
310V366Q311 457 228 457Q175 457 85 429L53 492Q139 537 239 537ZM125 126Q125 68 196 68T311 118V240Q185 223 156 200Q125 175 125 126Z" />
<glyph unicode="&#xe1;" glyph-name="aacute" horiz-adv-x="481" d="M364 681L177 564L135 614L311 750L364 681ZM239 537Q360 537 387 465Q401 428 401 367V154Q401 82 442 40L389 -12Q371 -1 353 20T327 63H324Q269 -12 172 -12Q29 -12 29 137Q29 269 215 296L311
310V366Q311 457 228 457Q175 457 85 429L53 492Q139 537 239 537ZM125 126Q125 68 196 68T311 118V240Q185 223 156 200Q125 175 125 126Z" />
<glyph unicode="&#xe2;" glyph-name="acircumflex" horiz-adv-x="481" d="M242 731L367 613L329 567L214 656L99 567L61 613L186 731H242ZM239 537Q360 537 387 465Q401 428 401 367V154Q401 82 442 40L389 -12Q371 -1 353 20T327 63H324Q269 -12 172 -12Q29 -12
29 137Q29 269 215 296L311 310V366Q311 457 228 457Q175 457 85 429L53 492Q139 537 239 537ZM125 126Q125 68 196 68T311 118V240Q185 223 156 200Q125 175 125 126Z" />
<glyph unicode="&#xe3;" glyph-name="atilde" horiz-adv-x="481" d="M268 600Q242 600 204 616T139 632T66 600L45 661Q101 710 154 710Q180 710 218 694T283 678T356 710L377 649Q321 600 268 600ZM311 366Q311 457 228 457Q175 457 85 429L53 492Q139 537 239
537Q360 537 387 465Q401 428 401 367V154Q401 82 442 40L389 -12Q371 -1 353 20T327 63H324Q269 -12 172 -12Q29 -12 29 137Q29 269 215 296L311 310V366ZM125 126Q125 68 196 68T311 118V240Q185 223 156 200Q125 175 125 126Z" />
<glyph unicode="&#xe4;" glyph-name="adieresis" horiz-adv-x="481" d="M131 711Q183 711 183 652Q183 600 124 600Q71 600 71 659Q71 684 83 697T131 711ZM314 711Q367 711 367 652Q367 627 355 614T307 600Q255 600 255 659Q255 711 314 711ZM239 537Q360 537
387 465Q401 428 401 367V154Q401 82 442 40L389 -12Q371 -1 353 20T327 63H324Q269 -12 172 -12Q29 -12 29 137Q29 269 215 296L311 310V366Q311 457 228 457Q175 457 85 429L53 492Q139 537 239 537ZM125 126Q125 68 196 68T311 118V240Q185 223 156 200Q125
175 125 126Z" />
<glyph unicode="&#xe5;" glyph-name="aring" horiz-adv-x="481" d="M239 537Q360 537 387 465Q401 428 401 367V154Q401 82 442 40L389 -12Q371 -1 353 20T327 63H324Q269 -12 172 -12Q29 -12 29 137Q29 269 215 296L311 310V366Q311 457 228 457Q175 457 85 429L53
492Q139 537 239 537ZM125 126Q125 68 196 68T311 118V240Q185 223 156 200Q125 175 125 126ZM151 694T174 720T240 747T304 723T325 664T302 601T236 573T173 598T151 658ZM241 618Q259 618 268 630T278 659Q278 702 235 702Q217 702 208 690T198 661Q198 618
241 618Z" />
<glyph unicode="&#xe6;" glyph-name="ae" horiz-adv-x="740" d="M53 492Q139 537 239 537T373 463Q428 537 531 537Q615 537 656 485Q689 442 697 344Q700 305 700 247L659 241H403Q403 166 424 121Q450 68 530 68Q593 68 657 100L685 38Q602 -12 518 -12Q396
-12 350 71Q275 -12 166 -12Q29 -12 29 138Q29 270 215 298L311 312V366Q311 457 228 457Q175 457 85 429L53 492ZM125 135Q125 64 199 64Q231 64 262 81T311 118V242Q186 225 156 201Q125 176 125 135ZM514 457Q474 457 450 436T417 385T405 312H604Q604 392 588
424T514 457Z" />
<glyph unicode="&#xe7;" glyph-name="ccedilla" horiz-adv-x="459" d="M45 384T103 460T259 537T389 492T422 359L332 353Q332 410 315 433T246 457Q141 457 141 263T275 68Q334 68 400 101L427 41Q401 19 355 4T255 -12L250 -44Q311 -59 321 -84Q326 -96 326
-114Q326 -150 303 -169T239 -188T153 -165L171 -120Q208 -137 236 -137T264 -111Q264 -94 211 -81Q190 -76 188 -75L206 -7Q45 22 45 259Q45 384 103 460Z" />
<glyph unicode="&#xe8;" glyph-name="egrave" horiz-adv-x="481" d="M269 537Q355 537 396 485Q430 443 438 344Q441 305 441 247L400 241H141Q141 115 208 82Q236 68 285 68T398 100L426 38Q343 -12 259 -12Q45 -12 45 258Q45 386 101 461T269 537ZM345 392T329
424T256 457T174 419T144 312H345Q345 392 329 424ZM90 681L143 750L319 614L277 564L90 681Z" />
<glyph unicode="&#xe9;" glyph-name="eacute" horiz-adv-x="481" d="M269 537Q355 537 396 485Q430 443 438 344Q441 305 441 247L400 241H141Q141 115 208 82Q236 68 285 68T398 100L426 38Q343 -12 259 -12Q45 -12 45 258Q45 386 101 461T269 537ZM345 392T329
424T256 457T174 419T144 312H345Q345 392 329 424ZM341 750L394 681L207 564L165 614L341 750Z" />
<glyph unicode="&#xea;" glyph-name="ecircumflex" horiz-adv-x="481" d="M269 537Q355 537 396 485Q430 443 438 344Q441 305 441 247L400 241H141Q141 115 208 82Q236 68 285 68T398 100L426 38Q343 -12 259 -12Q45 -12 45 258Q45 386 101 461T269 537ZM345
392T329 424T256 457T174 419T144 312H345Q345 392 329 424ZM278 731L403 613L365 567L250 656L135 567L97 613L222 731H278Z" />
<glyph unicode="&#xeb;" glyph-name="edieresis" horiz-adv-x="481" d="M269 537Q355 537 396 485Q430 443 438 344Q441 305 441 247L400 241H141Q141 115 208 82Q236 68 285 68T398 100L426 38Q343 -12 259 -12Q45 -12 45 258Q45 386 101 461T269 537ZM345 392T329
424T256 457T174 419T144 312H345Q345 392 329 424ZM154 711Q206 711 206 652Q206 600 147 600Q94 600 94 659Q94 684 106 697T154 711ZM337 711Q390 711 390 652Q390 627 378 614T330 600Q278 600 278 659Q278 711 337 711Z" />
<glyph unicode="&#xec;" glyph-name="igrave" horiz-adv-x="250" d="M80 0V520L170 530V0H80ZM158 564L-29 681L24 750L200 614L158 564Z" />
<glyph unicode="&#xed;" glyph-name="iacute" horiz-adv-x="250" d="M223 750L276 681L89 564L47 614L223 750ZM170 0H80V520L170 530V0Z" />
<glyph unicode="&#xee;" glyph-name="icircumflex" horiz-adv-x="250" d="M153 731L263 613L225 567L125 652L24 567L-14 613L97 731H153ZM170 0H80V520L170 530V0Z" />
<glyph unicode="&#xef;" glyph-name="idieresis" horiz-adv-x="250" d="M60 711Q112 711 112 652Q112 600 53 600Q0 600 0 659Q0 684 12 697T60 711ZM197 711Q250 711 250 652Q250 627 238 614T190 600Q138 600 138 659Q138 711 197 711ZM170 0H80V520L170 530V0Z" />
<glyph unicode="&#xf0;" glyph-name="eth" horiz-adv-x="519" d="M488 253Q488 134 433 61T260 -13Q164 -13 109 44T54 190T104 337T259 395Q297 395 332 382T384 351Q358 511 238 596L156 527L112 571L174 636Q137 657 78 679L113 743Q192 717 240 690L312 749L356
705L303 651Q488 514 488 253ZM389 269Q346 315 280 315T182 281T150 191T180 102T271 68T362 108T393 220Q393 249 389 269Z" />
<glyph unicode="&#xf1;" glyph-name="ntilde" horiz-adv-x="543" d="M306 537Q380 537 424 495T468 360V0H378V354Q378 457 275 457Q245 457 216 443T170 409V0H80V381L72 520L145 530L158 471H162Q180 494 216 515T306 537ZM325 600Q299 600 261 616T196 632T123
600L102 661Q158 710 211 710Q237 710 275 694T340 678T413 710L434 649Q378 600 325 600Z" />
<glyph unicode="&#xf2;" glyph-name="ograve" horiz-adv-x="524" d="M335 614L293 564L106 681L159 750L335 614ZM121 491T167 514T276 537T381 513T444 446Q479 369 479 257Q479 149 429 74Q403 34 357 11T248 -12T143 12T80 80Q45 156 45 268Q45 376 95 452Q121
491 167 514ZM337 437T314 447T259 457T203 445T168 417T150 370Q141 325 141 273T143 197T152 146T174 104Q204 68 266 68Q298 68 321 80T356 108T374 155Q383 200 383 252T381 328T372 379T351 421Z" />
<glyph unicode="&#xf3;" glyph-name="oacute" horiz-adv-x="524" d="M361 750L414 681L227 564L185 614L361 750ZM403 34T357 11T248 -12T143 12T80 80Q45 156 45 268Q45 376 95 452Q121 491 167 514T276 537T381 513T444 446Q479 369 479 257Q479 149 429 74Q403
34 357 11ZM187 88T210 78T265 68T321 80T356 108T374 155Q383 200 383 252T381 328T372 379T350 421Q320 457 258 457Q226 457 203 445T168 417T150 370Q141 325 141 273T143 197T152 146T173 104Z" />
<glyph unicode="&#xf4;" glyph-name="ocircumflex" horiz-adv-x="524" d="M292 731L417 613L379 567L264 656L149 567L111 613L236 731H292ZM121 491T167 514T276 537T381 513T444 446Q479 369 479 257Q479 149 429 74Q403 34 357 11T248 -12T143 12T80 80Q45
156 45 268Q45 376 95 452Q121 491 167 514ZM337 437T314 447T259 457T203 445T168 417T150 370Q141 325 141 273T143 197T152 146T174 104Q204 68 266 68Q298 68 321 80T356 108T374 155Q383 200 383 252T381 328T372 379T351 421Z" />
<glyph unicode="&#xf5;" glyph-name="otilde" horiz-adv-x="524" d="M317 600Q291 600 253 616T188 632T115 600L94 661Q150 710 203 710Q229 710 267 694T332 678T405 710L426 649Q370 600 317 600ZM121 491T167 514T276 537T381 513T444 446Q479 369 479 257Q479
149 429 74Q403 34 357 11T248 -12T143 12T80 80Q45 156 45 268Q45 376 95 452Q121 491 167 514ZM337 437T314 447T259 457T203 445T168 417T150 370Q141 325 141 273T143 197T152 146T174 104Q204 68 266 68Q298 68 321 80T356 108T374 155Q383 200 383 252T381
328T372 379T351 421Z" />
<glyph unicode="&#xf6;" glyph-name="odieresis" horiz-adv-x="524" d="M175 711Q227 711 227 652Q227 600 168 600Q115 600 115 659Q115 684 127 697T175 711ZM358 711Q411 711 411 652Q411 627 399 614T351 600Q299 600 299 659Q299 711 358 711ZM121 491T167
514T276 537T381 513T444 446Q479 369 479 257Q479 149 429 74Q403 34 357 11T248 -12T143 12T80 80Q45 156 45 268Q45 376 95 452Q121 491 167 514ZM337 437T314 447T259 457T203 445T168 417T150 370Q141 325 141 273T143 197T152 146T174 104Q204 68 266 68Q298
68 321 80T356 108T374 155Q383 200 383 252T381 328T372 379T351 421Z" />
<glyph unicode="&#xf7;" glyph-name="divide" horiz-adv-x="572" d="M230 108Q230 133 246 150T296 168Q355 168 355 102Q355 78 339 61T289 43Q230 43 230 108ZM230 475Q230 500 246 517T296 534Q355 534 355 468Q355 444 339 427T289 409Q230 409 230 475ZM532
328L520 253H40L52 328H532Z" />
<glyph unicode="&#xf8;" glyph-name="oslash" horiz-adv-x="524" d="M45 268Q45 376 95 452Q121 491 167 514T277 537Q305 537 329 531L357 612L409 594L381 513Q479 456 479 257Q479 149 429 74Q403 34 357 11T247 -12Q230 -12 202 -8L175 -87L123 -69L149 8Q45
62 45 268ZM141 256Q141 136 180 97L302 451Q282 457 254 457T203 445T168 417T150 370Q141 325 141 256ZM229 72Q244 68 271 68T321 80T356 108T374 155Q383 200 383 269Q383 381 349 421L229 72Z" />
<glyph unicode="&#xf9;" glyph-name="ugrave" horiz-adv-x="543" d="M231 -12Q163 -12 119 30T75 160V521L165 530V171Q165 68 262 68Q326 68 373 115V521L463 530V144L471 5L398 -5L387 56H383Q326 -12 231 -12ZM347 614L305 564L118 681L171 750L347 614Z" />
<glyph unicode="&#xfa;" glyph-name="uacute" horiz-adv-x="543" d="M231 -12Q163 -12 119 30T75 160V521L165 530V171Q165 68 262 68Q326 68 373 115V521L463 530V144L471 5L398 -5L387 56H383Q326 -12 231 -12ZM368 750L421 681L234 564L192 614L368 750Z" />
<glyph unicode="&#xfb;" glyph-name="ucircumflex" horiz-adv-x="543" d="M231 -12Q163 -12 119 30T75 160V521L165 530V171Q165 68 262 68Q326 68 373 115V521L463 530V144L471 5L398 -5L387 56H383Q326 -12 231 -12ZM298 731L423 613L385 567L270 656L155 567L117
613L242 731H298Z" />
<glyph unicode="&#xfc;" glyph-name="udieresis" horiz-adv-x="543" d="M231 -12Q163 -12 119 30T75 160V521L165 530V171Q165 68 262 68Q326 68 373 115V521L463 530V144L471 5L398 -5L387 56H383Q326 -12 231 -12ZM181 711Q233 711 233 652Q233 600 174 600Q121
600 121 659Q121 684 133 697T181 711ZM364 711Q417 711 417 652Q417 627 405 614T357 600Q305 600 305 659Q305 711 364 711Z" />
<glyph unicode="&#xfd;" glyph-name="yacute" horiz-adv-x="430" d="M333 529L420 519L297 104Q256 -36 221 -99Q199 -138 150 -168T65 -200L28 -127Q76 -123 119 -91T172 -8Q100 217 5 520L99 530L213 101H219L333 529ZM307 750L360 681L173 564L131 614L307 750Z" />
<glyph unicode="&#xfe;" glyph-name="thorn" horiz-adv-x="533" d="M170 94Q213 68 270 68T360 110T392 265T363 417T268 457T170 408V94ZM301 537Q488 537 488 265Q488 200 474 150T437 70T384 21Q333 -12 269 -12T170 20L167 19L170 -6V-184L80 -194V745L170
755V531L165 481L168 478Q212 537 301 537Z" />
<glyph unicode="&#xff;" glyph-name="ydieresis" horiz-adv-x="430" d="M333 529L420 519L297 104Q256 -36 221 -99Q199 -138 150 -168T65 -200L28 -127Q76 -123 119 -91T172 -8Q100 217 5 520L99 530L213 101H219L333 529ZM130 711Q182 711 182 652Q182 600 123
600Q70 600 70 659Q70 684 82 697T130 711ZM313 711Q366 711 366 652Q366 627 354 614T306 600Q254 600 254 659Q254 711 313 711Z" />
<glyph unicode="&#x2013;" glyph-name="endash" horiz-adv-x="510" d="M480 291V216H30V291H480Z" />
<glyph unicode="&#x2014;" glyph-name="emdash" horiz-adv-x="760" d="M730 291V216H30V291H730Z" />
<glyph unicode="&#x2018;" glyph-name="quoteleft" horiz-adv-x="194" d="M118 616Q118 601 147 514L71 480Q70 483 60 510Q40 559 40 597Q40 664 105 752L155 716Q118 656 118 616Z" />
<glyph unicode="&#x2019;" glyph-name="quoteright" horiz-adv-x="194" d="M154 635Q154 568 89 480L39 516Q76 576 76 616Q76 631 47 718L123 752Q124 749 134 722Q154 673 154 635Z" />
<glyph unicode="&#x201a;" glyph-name="quotesinglbase" horiz-adv-x="194" d="M154 40Q154 -27 89 -115L39 -79Q76 -19 76 21Q76 36 47 123L123 157Q124 154 134 128Q154 78 154 40Z" />
<glyph unicode="&#x201c;" glyph-name="quotedblleft" horiz-adv-x="352" d="M278 616Q278 601 307 514L231 480Q230 483 220 510Q200 559 200 597Q200 664 265 752L315 716Q278 656 278 616ZM170 716Q128 647 128 614T150 514L73 480Q50 549 50 603T120 752L170 716Z" />
<glyph unicode="&#x201d;" glyph-name="quotedblright" horiz-adv-x="354" d="M154 635Q154 568 89 480L39 516Q76 576 76 616Q76 631 47 718L123 752Q124 749 134 722Q154 673 154 635ZM281 752Q304 683 304 629T234 480L184 516Q226 585 226 618T204 718L281 752Z" />
<glyph unicode="&#x201e;" glyph-name="quotedblbase" horiz-adv-x="354" d="M154 40Q154 -27 89 -115L39 -79Q76 -19 76 21Q76 36 47 123L123 157Q124 154 134 128Q154 78 154 40ZM281 157Q304 88 304 34T234 -115L184 -79Q226 -10 226 23T204 123L281 157Z" />
<glyph unicode="&#x2022;" glyph-name="bullet" horiz-adv-x="384" d="M198 414Q314 414 314 272Q314 221 281 188T180 154Q65 154 65 295Q66 347 98 380T198 414Z" />
<glyph unicode="&#x2039;" glyph-name="guilsinglleft" horiz-adv-x="262" d="M222 447L128 248L222 49L159 31L40 248L159 465L222 447Z" />
<glyph unicode="&#x203a;" glyph-name="guilsinglright" horiz-adv-x="262" d="M103 465L222 248L103 31L40 49L134 248L40 447L103 465Z" />
</font>
</defs>
</svg>
