<?xml version="1.0" standalone="no"?>
<!DOCTYPE svg PUBLIC "-//W3C//DTD SVG 1.1//EN" "http://www.w3.org/Graphics/SVG/1.1/DTD/svg11.dtd">
<svg xmlns="http://www.w3.org/2000/svg">
<defs >
<font id="Gidugu" horiz-adv-x="324" ><font-face
    font-family="Gidugu"
    units-per-em="1124"
    panose-1="0 0 0 0 0 0 0 0 0 0"
    ascent="1294"
    descent="-790"
    alphabetic="0" />
<glyph unicode=" " glyph-name="space" horiz-adv-x="165" />
<glyph unicode="!" glyph-name="exclam" horiz-adv-x="215" d="M167 335V460H46V335L75 142H140L167 335ZM167 54Q167 78 149 95T107 113T66 96T48 55T65 13T107 -5T149 12T167 54Z" />
<glyph unicode="&quot;" glyph-name="quotedbl" horiz-adv-x="269" d="M118 411V460H17V411L37 284H97L118 411ZM252 411V460H151V411L171 284H232L252 411Z" />
<glyph unicode="#" glyph-name="numbersign" horiz-adv-x="537" d="M441 286H502L517 371H456L482 508H369L344 371H244L269 508H157L131 371H74L58 286H116L95 173H37L21 88H80L56 -48H168L193 88H293L268 -48H381L405 88H465L482 173H420L441 286ZM329 286L308
173H208L229 286H329Z" />
<glyph unicode="$" glyph-name="dollar" horiz-adv-x="397" d="M242 272L193 277Q167 281 157 299T146 352Q146 419 198 419Q234 419 248 395T262 322L360 330Q360 392 332 423T238 462V531H163V462Q34 448 34 329Q34 266 64 232T158 188L207 181Q262 169 262
104Q262 72 247 56T196 40Q131 40 131 137L34 130Q34 68 63 36T163 -4V-71H238V-3Q373 12 373 126Q373 254 242 272Z" />
<glyph unicode="%" glyph-name="percent" horiz-adv-x="635" d="M207 205T232 239T257 337T232 434T144 469T56 435T31 337T55 240T143 205ZM401 460H355L234 0H279L401 460ZM114 338Q114 394 120 416T143 438T167 416T174 338Q174 238 144 238T114 338ZM554 -5T579
29T604 126T579 223T491 258T403 224T378 127T402 29T490 -5ZM461 127Q461 185 466 206T490 228T515 206T521 127Q521 27 491 27T461 127Z" />
<glyph unicode="&amp;" glyph-name="ampersand" horiz-adv-x="412" d="M420 259H200Q172 259 157 280T142 338Q142 425 184 425T231 338L327 368Q319 422 287 445T179 469T68 433T31 338Q31 301 52 274T106 239Q66 229 42 198T18 118T58 30T189 -10T316 24T353
120V202H420V259ZM255 202V127Q255 79 241 57T194 34T146 58T130 120Q130 202 205 202H255Z" />
<glyph unicode="&apos;" glyph-name="quotesingle" horiz-adv-x="134" d="M118 411V460H17V411L37 284H97L118 411Z" />
<glyph unicode="(" glyph-name="parenleft" horiz-adv-x="211" d="M204 22Q166 22 148 85T129 230T147 374T204 437V482Q148 482 109 460T49 398T21 319T13 230T21 141T49 61T108 0T204 -23V22Z" />
<glyph unicode=")" glyph-name="parenright" horiz-adv-x="211" d="M6 -23Q62 -23 102 -1T161 61T189 141T198 230T190 318T162 398T102 459T6 482V437Q45 437 63 374T82 230T64 86T6 22V-23Z" />
<glyph unicode="*" glyph-name="asterisk" horiz-adv-x="354" d="M227 424V491H126V424L160 364H193L227 424ZM105 402L41 423L14 342L78 321L144 329L153 358L105 402ZM275 321L339 342L311 423L247 402L200 358L209 328L275 321ZM86 293L47 236L122 179L163
237L171 302L147 320L86 293ZM190 237L230 179L307 236L266 293L207 320L181 302L190 237Z" />
<glyph unicode="+" glyph-name="plus" horiz-adv-x="365" d="M147 237H51V165H147V68H219V165H314V237H219V332H147V237Z" />
<glyph unicode="," glyph-name="comma" horiz-adv-x="149" d="M52 113T37 98T22 64T30 25T38 -5Q38 -34 15 -58L35 -81Q127 -29 127 54Q127 80 112 96T75 113Z" />
<glyph unicode="-" glyph-name="hyphen" horiz-adv-x="293" d="M257 237H36V165H257V237Z" />
<glyph unicode="." glyph-name="period" horiz-adv-x="149" d="M99 -5T116 12T133 54T116 96T75 113T33 96T16 55T33 13T74 -5Z" />
<glyph unicode="/" glyph-name="slash" horiz-adv-x="270" d="M266 489H154L5 -67H117L266 489Z" />
<glyph unicode="0" glyph-name="zero" horiz-adv-x="414" d="M309 -9T348 53T388 229T349 406T206 470Q101 470 62 400Q28 338 28 230Q28 52 117 8Q153 -9 206 -9Q309 -9 348 53ZM140 230Q140 334 153 379T207 425T261 380T275 230Q275 35 206 35Q140 35 140 230Z" />
<glyph unicode="1" glyph-name="one" horiz-adv-x="414" d="M365 44H276V460H232Q201 440 154 426T68 410V368L165 370V44H70V0H365V44Z" />
<glyph unicode="2" glyph-name="two" horiz-adv-x="414" d="M135 307Q137 368 151 396T196 424Q253 424 253 350Q253 306 240 276T187 209L35 71V0H365V86H153L288 209Q333 249 349 281T365 350Q365 406 320 437T196 469Q48 469 39 322L135 307Z" />
<glyph unicode="3" glyph-name="three" horiz-adv-x="414" d="M301 239T333 270T365 352T322 436T199 469T82 437T39 333L136 320Q139 424 196 424T254 351Q254 299 238 276T175 253H131V202H174Q236 202 252 162Q260 144 260 115Q260 36 194 36Q132 36 128 131L31
119Q36 51 75 21T196 -9T324 26T371 114Q371 210 249 229Q301 239 333 270Z" />
<glyph unicode="4" glyph-name="four" horiz-adv-x="414" d="M382 84V170H339V460H173L11 153V84H228V0H339V84H382ZM228 170H100L228 415V170Z" />
<glyph unicode="5" glyph-name="five" horiz-adv-x="414" d="M47 140Q55 -9 206 -9Q290 -9 336 32T382 134T332 236T185 277H116L123 374H349V460H84L69 233H134Q267 233 267 130Q267 35 206 35Q150 35 145 149L47 140Z" />
<glyph unicode="6" glyph-name="six" horiz-adv-x="414" d="M140 259Q142 347 156 386T210 425Q272 425 275 320L371 329Q364 469 210 469Q110 469 70 401T30 222Q30 -9 209 -9Q382 -9 382 140Q382 273 230 273Q189 273 140 259ZM140 217Q171 228 197 228Q273
228 273 140Q273 35 209 35Q171 35 156 74T140 217Z" />
<glyph unicode="7" glyph-name="seven" horiz-adv-x="414" d="M278 374L78 0H177L366 390V460H36V374H278Z" />
<glyph unicode="8" glyph-name="eight" horiz-adv-x="414" d="M379 342Q379 397 335 433T208 469T81 433T36 342Q36 264 122 230Q30 202 30 119Q30 63 78 27T207 -9T337 27T385 119Q385 198 304 232Q379 265 379 342ZM149 342Q149 425 207 425T266 348T234 252L225
253L209 256Q174 259 162 281T149 342ZM143 119Q143 203 185 215L193 213L209 212Q236 207 254 181T272 118T255 58T207 35T160 58T143 119Z" />
<glyph unicode="9" glyph-name="nine" horiz-adv-x="414" d="M125 469T77 426T28 317Q28 180 184 180Q232 180 271 196Q269 107 256 71T200 35Q137 35 134 139L37 128Q43 -9 200 -9Q302 -9 343 54T384 256Q384 355 342 412T213 469ZM142 367T159 396T212 425T259
380T271 236Q242 224 210 224T160 252T142 323Z" />
<glyph unicode=":" glyph-name="colon" horiz-adv-x="149" d="M99 235T116 252T133 294T116 336T75 354T33 337T16 295T33 253T74 235ZM99 -5T116 12T133 54T116 96T75 113T33 96T16 55T33 13T74 -5Z" />
<glyph unicode=";" glyph-name="semicolon" horiz-adv-x="149" d="M94 235T111 252T129 295T112 337T70 354T28 337T11 295T28 253T69 235ZM52 113T37 98T22 64T30 25T38 -5Q38 -34 15 -58L35 -81Q127 -29 127 54Q127 80 112 96T75 113Z" />
<glyph unicode="&lt;" glyph-name="less" horiz-adv-x="365" d="M310 275V355L56 245V155L310 45V123L121 200L310 275Z" />
<glyph unicode="=" glyph-name="equal" horiz-adv-x="365" d="M314 308H51V237H314V308ZM314 165H51V94H314V165Z" />
<glyph unicode="&gt;" glyph-name="greater" horiz-adv-x="365" d="M310 245L56 355V275L245 200L56 123V45L310 155V245Z" />
<glyph unicode="?" glyph-name="question" horiz-adv-x="327" d="M113 326Q115 425 165 425Q188 425 199 413T210 354T188 271T107 208L113 142H182L189 208Q245 223 280 257T316 344T277 432T165 469Q26 469 17 338L113 326ZM174 -5T191 12T209 54T192 96T150
113T108 96T91 55T108 13T149 -5Z" />
<glyph unicode="@" glyph-name="at" horiz-adv-x="679" d="M40 199Q40 -64 348 -64H462V-29H348Q143 -29 143 199Q143 314 197 373T348 432T495 378T544 241Q544 189 528 156T482 123H470V356H426L410 339Q373 356 328 356Q194 356 194 215T307 73Q352 73 378
98L397 79H493Q567 79 603 126T639 241Q639 350 560 408T335 467T115 394T40 199ZM369 120Q362 116 345 116Q294 116 294 214T350 312Q365 312 369 314V120Z" />
<glyph unicode="A" glyph-name="A" horiz-adv-x="421" d="M271 127L309 0H418L276 460H145L5 0H68L106 127H271ZM255 181H122L189 404L255 181Z" />
<glyph unicode="B" glyph-name="B" horiz-adv-x="401" d="M369 342Q369 388 335 424T214 460H52V0H232Q316 0 351 36T386 123Q386 209 302 237Q369 262 369 342ZM165 255V419H203Q257 419 257 337T203 255H165ZM165 41V215H217Q243 215 258 188T274 123Q274 41
217 41H165Z" />
<glyph unicode="C" glyph-name="C" horiz-adv-x="387" d="M382 335Q375 402 340 435T221 469Q111 469 68 411T25 230T68 49T211 -9T344 31T383 154L292 158Q292 98 277 68T218 38T156 81T138 230T156 379T215 422T272 397T292 321L382 335Z" />
<glyph unicode="D" glyph-name="D" horiz-adv-x="440" d="M52 460V0H218Q328 0 368 60T409 230Q409 364 354 416Q308 460 218 460H52ZM165 41V419H200Q238 419 259 392T288 326T295 230T288 135T260 69T200 41H165Z" />
<glyph unicode="E" glyph-name="E" horiz-adv-x="353" d="M338 54H165V207H308V261H165V406H326V460H52V0H338V54Z" />
<glyph unicode="F" glyph-name="F" horiz-adv-x="320" d="M165 397H313V460H52V0H165V203H287V265H165V397Z" />
<glyph unicode="G" glyph-name="G" horiz-adv-x="439" d="M393 239H228V185H297V171Q296 97 276 68T213 38T155 85T138 234T156 379T215 422T272 397T292 321L382 335Q375 402 340 435T221 469Q111 469 68 411T25 233T67 52T212 -9Q278 -9 319 44L339 0H393V239Z" />
<glyph unicode="H" glyph-name="H" horiz-adv-x="463" d="M410 460H296V257H165V460H52V0H165V203H296V0H410V460Z" />
<glyph unicode="I" glyph-name="I" horiz-adv-x="217" d="M165 0V460H52V0H165Z" />
<glyph unicode="J" glyph-name="J" horiz-adv-x="316" d="M273 460H160V115Q160 38 127 38T94 140H-5Q-5 42 26 17Q57 -9 115 -9T204 1T250 30Q273 63 273 115V460Z" />
<glyph unicode="K" glyph-name="K" horiz-adv-x="404" d="M169 207L298 0H417L265 245L402 460H336L212 262H165V460H52V0H165V207H169Z" />
<glyph unicode="L" glyph-name="L" horiz-adv-x="304" d="M309 54H165V460H52V0H309V54Z" />
<glyph unicode="M" glyph-name="M" horiz-adv-x="567" d="M413 0H526L513 460H361L278 132L198 460H55L42 0H111L117 383L213 0H311L406 369L413 0Z" />
<glyph unicode="N" glyph-name="N" horiz-adv-x="480" d="M428 460H361V118L168 460H50V0H117V342L310 0H428V460Z" />
<glyph unicode="O" glyph-name="O" horiz-adv-x="439" d="M329 -9T371 53T414 229T372 405T220 469Q104 469 62 398Q25 335 25 230Q25 52 122 8Q162 -9 220 -9Q329 -9 371 53ZM138 230Q138 289 144 329T169 396T220 424Q302 424 302 230T220 36Q188 36 169 63T144
131T138 230Z" />
<glyph unicode="P" glyph-name="P" horiz-adv-x="381" d="M52 460V0H165V157H232Q313 157 348 199T383 308T348 417T232 460H52ZM165 198V419H211Q271 419 271 309T211 198H165Z" />
<glyph unicode="Q" glyph-name="Q" horiz-adv-x="433" d="M25 335T25 229T62 62T195 -8L370 -104L408 -33L304 5Q414 44 414 230Q414 342 372 405T217 469T65 402ZM220 424Q302 424 302 230T220 36Q188 36 169 63T144 131T138 230T144 329T169 396T220 424Z" />
<glyph unicode="R" glyph-name="R" horiz-adv-x="426" d="M411 0L340 171Q332 189 310 202Q392 227 392 318Q392 372 362 413Q326 460 231 460H52V0H165V191H184Q204 191 210 186T224 164L291 0H411ZM165 231V419H215Q245 419 262 389T279 321T262 257T215 231H165Z" />
<glyph unicode="S" glyph-name="S" horiz-adv-x="391" d="M31 328Q31 265 59 232T151 185L184 178Q241 165 260 152T279 106T258 55T198 36Q119 36 111 148L21 134Q29 61 72 26T198 -9T326 27T370 127T342 224T249 272L211 282Q157 295 139 309T121 354T141 405T197
424T254 395T277 313L367 326Q358 399 317 434T197 469Q31 469 31 328Z" />
<glyph unicode="T" glyph-name="T" horiz-adv-x="336" d="M343 460H-7V406H113V0H225V406H343V460Z" />
<glyph unicode="U" glyph-name="U" horiz-adv-x="446" d="M403 460H337V152Q337 97 309 72T237 46Q156 46 156 152V460H43V152Q43 -9 230 -9Q293 -9 344 23Q403 60 403 152V460Z" />
<glyph unicode="V" glyph-name="V" horiz-adv-x="405" d="M407 460H340L226 56L111 460H-2L138 0H268L407 460Z" />
<glyph unicode="W" glyph-name="W" horiz-adv-x="591" d="M581 460H514L452 137L372 460H269L186 135L122 460H11L105 0H212L301 335L385 0H486L581 460Z" />
<glyph unicode="X" glyph-name="X" horiz-adv-x="388" d="M286 0H415L255 244L407 460H340L221 293L113 460H-16L143 218L-7 0H59L176 168L286 0Z" />
<glyph unicode="Y" glyph-name="Y" horiz-adv-x="375" d="M244 159L385 460H320L207 221L102 460H-11L131 158V0H244V159Z" />
<glyph unicode="Z" glyph-name="Z" horiz-adv-x="361" d="M350 54H125L344 389V460H23V406H230L11 71V0H350V54Z" />
<glyph unicode="[" glyph-name="bracketleft" horiz-adv-x="225" d="M156 437H218V482H42V-23H218V22H156V437Z" />
<glyph unicode="\" glyph-name="backslash" horiz-adv-x="270" d="M154 -67H266L117 489H5L154 -67Z" />
<glyph unicode="]" glyph-name="bracketright" horiz-adv-x="225" d="M183 482H7V437H69V22H7V-23H183V482Z" />
<glyph unicode="^" glyph-name="asciicircum" horiz-adv-x="365" d="M247 199H325L228 390H138L41 199H121L183 334L247 199Z" />
<glyph unicode="_" glyph-name="underscore" horiz-adv-x="348" d="M313 0H36V-72H313V0Z" />
<glyph unicode="`" glyph-name="graveaccent" horiz-adv-x="238" />
<glyph unicode="a" glyph-name="a" horiz-adv-x="396" d="M248 42L276 0H350V244Q350 369 197 369Q120 369 87 339T48 244L140 233Q144 314 194 314Q239 314 239 251V215L177 203Q98 189 65 165T32 93T60 19T136 -9Q206 -9 248 42ZM131 96Q131 147 194 161L239
170V81Q209 49 182 49Q131 49 131 96Z" />
<glyph unicode="b" glyph-name="b" horiz-adv-x="413" d="M164 356V485L52 471V0H104L133 26Q177 -9 232 -9Q384 -9 384 180T232 369Q198 369 164 356ZM164 62V309Q184 314 199 314Q239 314 256 281T273 180Q273 54 198 54Q182 54 164 62Z" />
<glyph unicode="c" glyph-name="c" horiz-adv-x="370" d="M196 314Q246 314 247 225L339 235Q335 303 302 336T190 369Q92 369 58 312Q30 264 30 180Q30 41 108 6Q141 -9 190 -9Q269 -9 302 26T340 132L247 136Q246 46 196 46Q166 46 154 75T141 180T153 285T196 314Z" />
<glyph unicode="d" glyph-name="d" horiz-adv-x="413" d="M361 485L249 471V353Q218 369 181 369Q30 369 30 172Q30 -9 165 -9Q218 -9 261 34L285 0H361V485ZM197 46Q141 46 141 176T215 306Q233 306 249 298V71Q228 46 197 46Z" />
<glyph unicode="e" glyph-name="e" horiz-adv-x="383" d="M354 165V177Q354 369 194 369Q30 369 30 180Q30 85 68 38T191 -9T310 21T349 103L257 105Q257 46 203 46Q171 46 156 71T141 165H354ZM246 220H143Q147 275 158 294T195 314T232 292T246 220Z" />
<glyph unicode="f" glyph-name="f" horiz-adv-x="229" d="M57 364V360H3V303H57V0H168V303H236V360H168V388Q168 405 177 416T205 428Q236 428 259 392L292 472Q242 495 195 495Q57 495 57 364Z" />
<glyph unicode="g" glyph-name="g" horiz-adv-x="397" d="M377 317V360H265Q233 369 197 369Q115 369 82 331T48 235T80 143L60 124Q30 95 30 61Q30 14 75 3Q54 -3 39 -22T23 -61Q23 -153 189 -153Q371 -153 371 -46Q371 -1 339 27T251 56H115Q94 56 94 71Q94
82 109 94L129 113Q157 104 197 104Q282 104 316 142T350 233T328 317H377ZM154 237Q154 279 163 297T198 315T234 297T244 237T234 176T198 158T163 176T154 237ZM216 0Q244 0 259 -13T275 -50Q275 -97 189 -97Q119 -97 119 -56Q119 -25 146 0H216Z" />
<glyph unicode="h" glyph-name="h" horiz-adv-x="422" d="M164 342V485L52 471V0H164V287Q192 306 219 306T256 291T265 239V0H376V253Q376 304 348 336T267 369T164 342Z" />
<glyph unicode="i" glyph-name="i" horiz-adv-x="216" d="M135 393T154 411T173 458T154 506T107 526T60 507T41 460T60 413T107 393ZM163 0V360H51V0H163Z" />
<glyph unicode="j" glyph-name="j" horiz-adv-x="217" d="M135 393T154 411T173 458T154 506T107 526T60 507T41 460T60 413T107 393ZM-71 -112Q-21 -134 26 -134Q164 -134 164 -4V360H52V-18Q52 -40 43 -54T18 -68Q-15 -68 -38 -32L-71 -112Z" />
<glyph unicode="k" glyph-name="k" horiz-adv-x="382" d="M261 0H381L237 216L370 360H307L164 204V485L52 471V0H164V139H165L169 144L261 0Z" />
<glyph unicode="l" glyph-name="l" horiz-adv-x="217" d="M164 0V485L52 471V0H164Z" />
<glyph unicode="m" glyph-name="m" horiz-adv-x="635" d="M355 329Q323 369 262 369T140 328L103 360H52V0H164V292Q189 306 217 306Q266 306 266 255V0H377V253Q377 266 373 290Q400 306 428 306Q478 306 478 255V0H590V253Q590 304 561 336T472 369T355 329Z" />
<glyph unicode="n" glyph-name="n" horiz-adv-x="422" d="M140 328L103 360H52V0H164V287Q192 306 219 306T256 290T265 239V0H376V253Q376 304 348 336T260 369T140 328Z" />
<glyph unicode="o" glyph-name="o" horiz-adv-x="401" d="M371 180Q371 369 201 369T30 180T200 -9T371 180ZM141 180Q141 250 153 282T200 314T247 283T259 180T248 78T201 46T153 78T141 180Z" />
<glyph unicode="p" glyph-name="p" horiz-adv-x="413" d="M135 336L104 360H52V-152L164 -137V-2Q198 -9 231 -9Q384 -9 384 180T230 369Q183 369 135 336ZM164 48V300Q184 306 196 306Q273 306 273 176T200 46Q176 46 164 48Z" />
<glyph unicode="q" glyph-name="q" horiz-adv-x="413" d="M361 360H311L281 334Q237 369 181 369Q30 369 30 180T181 -9Q216 -9 249 5V-135L361 -121V360ZM141 180Q141 306 215 306Q232 306 249 299V51Q231 46 214 46Q174 46 158 79T141 180Z" />
<glyph unicode="r" glyph-name="r" horiz-adv-x="259" d="M103 360H52V0H164V223Q164 254 185 269T262 284V363Q189 363 148 297L103 360Z" />
<glyph unicode="s" glyph-name="s" horiz-adv-x="351" d="M193 230Q158 240 140 251T122 282Q122 314 172 314Q227 314 233 242L326 254Q317 311 281 340T177 369T69 341T28 262T52 185T127 144L159 134Q235 113 235 80T182 46Q153 46 135 66T114 121L22 108Q31
50 67 21T175 -9T287 21T329 101T302 178T223 219L193 230Z" />
<glyph unicode="t" glyph-name="t" horiz-adv-x="246" d="M240 63Q216 52 200 52Q174 52 174 87V303H242V360H174V447L62 409V360H8V303H62V109Q62 42 86 18Q113 -9 163 -9T255 13L240 63Z" />
<glyph unicode="u" glyph-name="u" horiz-adv-x="421" d="M368 360H257V75Q232 49 205 49T168 67T158 120V360H46V105Q46 -9 164 -9Q228 -9 268 36L297 0H368V360Z" />
<glyph unicode="v" glyph-name="v" horiz-adv-x="358" d="M359 360H296L204 55L112 360H1L117 0H242L359 360Z" />
<glyph unicode="w" glyph-name="w" horiz-adv-x="497" d="M494 360H431L372 85L322 360H223L165 87L116 360H3L77 0H202L246 187L284 0H408L494 360Z" />
<glyph unicode="x" glyph-name="x" horiz-adv-x="353" d="M226 0H347L221 203L343 360H281L194 248L123 360H1L123 165L-5 0H57L149 122L226 0Z" />
<glyph unicode="y" glyph-name="y" horiz-adv-x="348" d="M348 360H284L208 125L112 360H1L160 -12L95 -143L177 -152L348 360Z" />
<glyph unicode="z" glyph-name="z" horiz-adv-x="315" d="M299 56H134L294 295V360H20V303H178L16 66V0H299V56Z" />
<glyph unicode="{" glyph-name="leftcurly" horiz-adv-x="294" />
<glyph unicode="|" glyph-name="bar" horiz-adv-x="220" d="M169 489H50V-67H169V489Z" />
<glyph unicode="}" glyph-name="rightcurly" horiz-adv-x="294" />
<glyph unicode="~" glyph-name="asciitilde" horiz-adv-x="365" d="M51 165Q74 150 104 150T182 163T261 177T314 165V237Q291 248 261 248T183 235T103 221T51 237V165Z" />
<glyph unicode="&#xa0;" glyph-name="uni00A0" horiz-adv-x="165" />
<glyph unicode="&#xa1;" glyph-name="exclamdown" horiz-adv-x="215" d="M83 370T66 352T48 310T65 269T107 251T149 268T167 310T149 352T107 370ZM46 -95H167V30L140 222H75L46 30V-95Z" />
<glyph unicode="&#xa2;" glyph-name="cent" horiz-adv-x="397" d="M281 165Q280 119 262 94T210 68T161 114T144 230Q144 392 215 392Q240 392 257 362T276 286L363 290Q358 350 328 389T239 435V510H165V431Q32 404 32 229T165 28V-51H239V26Q360 39 368 158L281 165Z" />
<glyph unicode="&#xa3;" glyph-name="sterling" horiz-adv-x="397" d="M380 86H151Q170 101 178 114T186 151V179H305V254H186V327Q186 375 195 400T232 425Q279 425 279 316L376 324Q376 396 344 432T232 469Q73 469 73 327V254H36V179H73V131Q73 113 63 94T32
65V0H380V86Z" />
<glyph unicode="&#xa4;" glyph-name="currency" horiz-adv-x="397" d="M334 312L390 369L338 420L283 366Q251 383 202 383T118 363L59 420L8 369L68 310Q51 271 51 230T68 151L8 91L59 40L117 96Q150 77 197 77T282 95L338 40L390 91L333 148Q352 181 352 230T334
312ZM150 230Q150 339 205 339Q254 339 254 230T197 121Q150 121 150 230Z" />
<glyph unicode="&#xa5;" glyph-name="yen" horiz-adv-x="397" d="M322 302L396 460H331L219 220L113 460H1L75 302H31V237H106L124 197H31V131H142V0H256V131H367V197H273L291 237H367V302H322Z" />
<glyph unicode="&#xa6;" glyph-name="brokenbar" horiz-adv-x="220" d="M169 489H50V256H169V489ZM169 167H50V-67H169V167Z" />
<glyph unicode="&#xa7;" glyph-name="section" horiz-adv-x="325" d="M172 392Q172 428 241 443L214 521Q61 487 61 377Q61 336 87 296Q8 252 8 179Q8 128 53 74L131 -18Q145 -35 149 -43T153 -68Q153 -105 84 -120L110 -198Q264 -164 264 -54Q264 -8 239 29Q317
71 317 139T268 252L185 352Q172 369 172 392ZM143 227L183 181Q198 163 201 155T205 128T181 95L132 154Q120 170 120 191T143 227Z" />
<glyph unicode="&#xa8;" glyph-name="dieresis" horiz-adv-x="281" d="M85 399T102 416T120 458T103 500T60 518T19 501T2 459T19 417T60 399ZM245 399T262 416T280 458T263 500T221 518T179 501T161 459T178 417T220 399Z" />
<glyph unicode="&#xa9;" glyph-name="copyright" horiz-adv-x="466" d="M23 250T77 197T233 143T389 196T443 353T390 509T234 563T77 510T23 353ZM233 511Q388 511 388 353T233 195T78 353T233 511ZM330 399Q324 484 234 484Q182 484 159 452T136 354T158 255T234
221Q328 221 331 320L281 322Q276 266 238 266Q194 266 194 354Q194 392 205 416T238 441T267 430T278 394L330 399Z" />
<glyph unicode="&#xaa;" glyph-name="ordfeminine" horiz-adv-x="272" d="M106 383Q108 420 115 431T136 442Q158 442 158 391V366L108 361Q64 356 42 336T19 286Q19 214 94 214Q136 214 172 244L199 221H249V392Q249 479 136 479Q92 479 64 459T32 400L106 383ZM155
260L135 258Q104 258 104 288Q104 333 145 337L158 338V261L155 260ZM253 178H14V115H253V178Z" />
<glyph unicode="&#xab;" glyph-name="guillemotleft" horiz-adv-x="338" d="M168 103L101 199L168 294L134 329L14 217V180L134 68L168 103ZM323 103L255 199L323 294L288 329L169 217V180L288 68L323 103Z" />
<glyph unicode="&#xac;" glyph-name="logicalnot" horiz-adv-x="365" d="M314 237H51V165H246V77H314V237Z" />
<glyph unicode="&#xae;" glyph-name="registered" horiz-adv-x="466" d="M23 250T77 197T233 143T389 196T443 353T390 509T234 563T77 510T23 353ZM233 511Q388 511 388 353T233 195T78 353T233 511ZM151 480V227H209V323H223Q232 323 238 309L273 227H335L298
310Q291 324 283 332Q324 344 324 405Q324 480 237 480H151ZM209 365V437H236Q265 437 265 401T236 365H209Z" />
<glyph unicode="&#xaf;" glyph-name="overscore" horiz-adv-x="223" d="M210 487H14V411H210V487Z" />
<glyph unicode="&#xb0;" glyph-name="degree" horiz-adv-x="267" d="M191 236T222 267T253 353T220 438T131 469T45 438T14 351T46 266T134 236ZM132 281Q100 281 100 353T132 425Q168 425 168 353T132 281Z" />
<glyph unicode="&#xb1;" glyph-name="plusminus" horiz-adv-x="365" d="M147 268H51V196H147V100H219V196H314V268H219V364H147V268ZM314 72H51V0H314V72Z" />
<glyph unicode="&#xb2;" glyph-name="twosuperior" horiz-adv-x="288" d="M113 413Q114 477 142 477Q166 477 166 447T159 400T129 366L40 303V252H247V314H128L203 366Q248 398 248 436Q248 509 142 509Q93 509 69 489T41 423L113 413Z" />
<glyph unicode="&#xb3;" glyph-name="threesuperior" horiz-adv-x="288" d="M247 446Q247 474 219 491T142 509T69 492T41 430L113 421Q116 477 140 477Q154 477 159 471T165 441T158 406T120 396H99V358H119Q120 358 127 358T137 359T146 357T156 353T163 346Q170
338 170 315Q170 280 140 280T109 332L37 322Q40 280 64 264T140 247T221 267T250 315Q250 368 174 378Q247 389 247 446Z" />
<glyph unicode="&#xb4;" glyph-name="acute" horiz-adv-x="181" d="M131 554L46 419L68 394L195 480L131 554Z" />
<glyph unicode="&#xb5;" glyph-name="mu" horiz-adv-x="387" d="M371 360H259V130Q259 75 214 75Q184 75 162 85V360H50V-143H162V9Q209 -9 263 -9T344 23T371 107V360Z" />
<glyph unicode="&#xb6;" glyph-name="paragraph" horiz-adv-x="333" d="M268 422H136Q70 422 36 385T2 293T36 201T136 163H156V0H268V422Z" />
<glyph unicode="&#xb7;" glyph-name="middot" horiz-adv-x="149" d="M99 162T116 179T133 221T116 263T75 281T33 264T16 222T33 180T74 162Z" />
<glyph unicode="&#xb8;" glyph-name="cedilla" horiz-adv-x="169" d="M104 4H59L43 -56Q76 -62 87 -72T99 -102T83 -122Q76 -122 71 -112T65 -85L6 -92Q6 -158 85 -158Q125 -158 144 -138T163 -88Q163 -34 95 -24L104 4Z" />
<glyph unicode="&#xb9;" glyph-name="onesuperior" horiz-adv-x="281" d="M235 284H185V505H151Q96 478 46 475V446L103 447V284H47V252H235V284Z" />
<glyph unicode="&#xba;" glyph-name="ordmasculine" horiz-adv-x="280" d="M266 214T266 346T140 479T14 347T140 214ZM107 347Q107 402 113 422T139 442T165 423T172 347T166 271T140 251T114 271T107 347ZM259 178H21V115H259V178Z" />
<glyph unicode="&#xbb;" glyph-name="guillemotright" horiz-adv-x="338" d="M14 294L84 199L14 103L50 68L168 180V217L50 329L14 294ZM170 294L237 199L170 103L203 68L323 180V217L203 329L170 294Z" />
<glyph unicode="&#xbc;" glyph-name="onequarter" horiz-adv-x="653" d="M185 242V464H151Q100 438 46 434V404L103 406V242H47V211H235V242H185ZM417 460H371L249 0H294L417 460ZM619 40V101H599V253H476L389 91V40H518V0H599V40H619ZM518 101H454L518 222V101Z" />
<glyph unicode="&#xbd;" glyph-name="onehalf" horiz-adv-x="653" d="M195 242V464H162Q111 438 57 434V404L113 406V242H58V211H246V242H195ZM417 460H371L249 0H294L417 460ZM493 62L569 114Q613 146 613 184T585 239T508 257T435 237T407 171L478 161Q480 196
486 210T508 225Q531 225 531 195T524 148T494 114L405 51V0H612V62H493Z" />
<glyph unicode="&#xbe;" glyph-name="threequarters" horiz-adv-x="653" d="M247 405Q247 433 219 450T142 468T69 451T41 389L113 380Q116 436 140 436Q154 436 159 430T165 400T158 366T120 355H99V317H119Q120 317 127 317T137 318T146 316T156 312T163 304Q170
297 170 274Q170 239 140 239T109 291L37 281Q40 239 64 222T140 205T221 225T250 274Q250 325 174 337Q247 348 247 405ZM417 460H371L249 0H294L417 460ZM619 40V101H599V253H476L389 91V40H518V0H599V40H619ZM518 101H454L518 222V101Z" />
<glyph unicode="&#xbf;" glyph-name="questiondown" horiz-adv-x="320" d="M148 370T131 353T113 311T130 269T172 251T213 268T230 310T213 352T172 370ZM210 39Q207 -60 158 -60Q135 -60 124 -48T113 11T135 94T215 157L208 222H140L132 157Q76 142 41 108T5
21T44 -67T158 -104Q297 -104 305 27L210 39Z" />
<glyph unicode="&#xc0;" glyph-name="Agrave" horiz-adv-x="421" d="M238 494L259 519L174 653L110 580L238 494ZM271 127L309 0H418L276 460H145L5 0H68L106 127H271ZM255 181H122L189 404L255 181Z" />
<glyph unicode="&#xc1;" glyph-name="Aacute" horiz-adv-x="421" d="M182 494L310 580L246 653L160 519L182 494ZM271 127L309 0H418L276 460H145L5 0H68L106 127H271ZM255 181H122L189 404L255 181Z" />
<glyph unicode="&#xc2;" glyph-name="Acircumflex" horiz-adv-x="421" d="M142 491L210 552L279 491L309 516L237 635H185L112 516L142 491ZM271 127L309 0H418L276 460H145L5 0H68L106 127H271ZM255 181H122L189 404L255 181Z" />
<glyph unicode="&#xc3;" glyph-name="Atilde" horiz-adv-x="421" d="M178 536T206 525T259 513T302 534T327 601L292 613Q283 585 255 585Q241 585 213 597T161 609Q104 609 94 518L128 506Q138 536 165 536Q178 536 206 525ZM271 127L309 0H418L276 460H145L5
0H68L106 127H271ZM255 181H122L189 404L255 181Z" />
<glyph unicode="&#xc4;" glyph-name="Adieresis" horiz-adv-x="421" d="M155 499T172 516T190 558T173 600T131 618T89 601T72 559T89 517T130 499ZM315 499T332 516T350 558T333 600T291 618T249 601T231 559T248 517T290 499ZM271 127L309 0H418L276 460H145L5
0H68L106 127H271ZM255 181H122L189 404L255 181Z" />
<glyph unicode="&#xc5;" glyph-name="Aring" horiz-adv-x="421" d="M288 563Q288 593 271 615T210 638Q133 638 133 562T210 486T288 563ZM234 563Q234 523 210 523T186 563T210 603T234 563ZM271 127L309 0H418L276 460H145L5 0H68L106 127H271ZM255 181H122L189
404L255 181Z" />
<glyph unicode="&#xc6;" glyph-name="AE" horiz-adv-x="603" d="M588 54H416V194H558V248H416V406H575V460H203L10 0H75L155 194H302V0H588V54ZM302 248H176L241 406H302V248Z" />
<glyph unicode="&#xc7;" glyph-name="Ccedilla" horiz-adv-x="387" d="M292 158Q292 98 277 68T218 38T156 81T138 230T156 379T215 422T272 397T292 321L382 335Q375 402 340 435T221 469Q111 469 68 411T25 235T60 60T185 -7L172 -56Q205 -62 216 -72T228 -102T212
-122Q205 -122 200 -112T194 -85L135 -92Q135 -158 213 -158Q254 -158 273 -138T292 -88Q292 -34 224 -24L230 -9Q314 -7 345 33T383 154L292 158Z" />
<glyph unicode="&#xc8;" glyph-name="Egrave" horiz-adv-x="353" d="M216 494L238 519L152 653L88 580L216 494ZM338 54H165V207H308V261H165V406H326V460H52V0H338V54Z" />
<glyph unicode="&#xc9;" glyph-name="Eacute" horiz-adv-x="353" d="M160 494L288 580L224 653L139 519L160 494ZM338 54H165V207H308V261H165V406H326V460H52V0H338V54Z" />
<glyph unicode="&#xca;" glyph-name="Ecircumflex" horiz-adv-x="353" d="M121 491L188 552L257 491L287 516L215 635H164L90 516L121 491ZM338 54H165V207H308V261H165V406H326V460H52V0H338V54Z" />
<glyph unicode="&#xcb;" glyph-name="Edieresis" horiz-adv-x="353" d="M133 499T150 516T168 558T151 600T109 618T67 601T50 559T67 517T109 499ZM293 499T311 516T329 558T311 600T269 618T228 601T210 559T227 517T269 499ZM338 54H165V207H308V261H165V406H326V460H52V0H338V54Z"
/>
<glyph unicode="&#xcc;" glyph-name="Igrave" horiz-adv-x="217" d="M136 494L158 519L72 653L8 580L136 494ZM165 0V460H52V0H165Z" />
<glyph unicode="&#xcd;" glyph-name="Iacute" horiz-adv-x="217" d="M144 653L59 519L80 494L208 580L144 653ZM165 0V460H52V0H165Z" />
<glyph unicode="&#xce;" glyph-name="Icircumflex" horiz-adv-x="217" d="M84 635L10 516L41 491L108 552L177 491L207 516L135 635H84ZM165 0V460H52V0H165Z" />
<glyph unicode="&#xcf;" glyph-name="Idieresis" horiz-adv-x="217" d="M53 499T70 516T88 558T71 600T29 618T-13 601T-30 559T-13 517T28 499ZM213 499T230 516T248 558T231 600T189 618T148 601T130 559T147 517T189 499ZM165 0V460H52V0H165Z" />
<glyph unicode="&#xd0;" glyph-name="Eth" horiz-adv-x="440" d="M52 460V263H30V191H52V0H218Q328 0 368 60T409 230Q409 364 354 416Q308 460 218 460H52ZM165 41V191H251V263H165V419H200Q238 419 259 392T288 326T295 230T288 135T260 69T200 41H165Z" />
<glyph unicode="&#xd1;" glyph-name="Ntilde" horiz-adv-x="480" d="M207 536T235 525T288 513T331 534T356 601L320 613Q312 585 284 585Q270 585 242 597T190 609Q134 609 122 518L157 506Q168 536 194 536Q207 536 235 525ZM428 460H361V118L168 460H50V0H117V342L310
0H428V460Z" />
<glyph unicode="&#xd2;" glyph-name="Ograve" horiz-adv-x="439" d="M248 494L269 519L184 653L120 580L248 494ZM329 -9T371 53T414 229T372 405T220 469Q104 469 62 398Q25 335 25 230Q25 52 122 8Q162 -9 220 -9Q329 -9 371 53ZM138 230Q138 289 144 329T169
396T220 424Q302 424 302 230T220 36Q188 36 169 63T144 131T138 230Z" />
<glyph unicode="&#xd3;" glyph-name="Oacute" horiz-adv-x="439" d="M256 653L170 519L192 494L320 580L256 653ZM329 -9T371 53T414 229T372 405T220 469Q104 469 62 398Q25 335 25 230Q25 52 122 8Q162 -9 220 -9Q329 -9 371 53ZM138 230Q138 289 144 329T169
396T220 424Q302 424 302 230T220 36Q188 36 169 63T144 131T138 230Z" />
<glyph unicode="&#xd4;" glyph-name="Ocircumflex" horiz-adv-x="439" d="M195 635L122 516L152 491L220 552L289 491L319 516L247 635H195ZM329 -9T371 53T414 229T372 405T220 469Q104 469 62 398Q25 335 25 230Q25 52 122 8Q162 -9 220 -9Q329 -9 371 53ZM138
230Q138 289 144 329T169 396T220 424Q302 424 302 230T220 36Q188 36 169 63T144 131T138 230Z" />
<glyph unicode="&#xd5;" glyph-name="Otilde" horiz-adv-x="439" d="M337 601L302 613Q293 585 265 585Q251 585 223 597T171 609Q114 609 104 518L138 506Q148 536 175 536Q188 536 216 525T269 513T312 534T337 601ZM329 -9T371 53T414 229T372 405T220 469Q104
469 62 398Q25 335 25 230Q25 52 122 8Q162 -9 220 -9Q329 -9 371 53ZM138 230Q138 289 144 329T169 396T220 424Q302 424 302 230T220 36Q188 36 169 63T144 131T138 230Z" />
<glyph unicode="&#xd6;" glyph-name="Odieresis" horiz-adv-x="439" d="M164 499T181 516T199 558T182 600T140 618T98 601T81 559T98 517T139 499ZM324 499T341 516T359 558T342 600T300 618T258 601T240 559T257 517T299 499ZM329 -9T371 53T414 229T372 405T220
469Q104 469 62 398Q25 335 25 230Q25 52 122 8Q162 -9 220 -9Q329 -9 371 53ZM138 230Q138 289 144 329T169 396T220 424Q302 424 302 230T220 36Q188 36 169 63T144 131T138 230Z" />
<glyph unicode="&#xd7;" glyph-name="multiply" horiz-adv-x="365" d="M131 201L53 122L103 70L183 149L262 70L312 122L234 201L312 279L262 330L183 251L103 330L53 279L131 201Z" />
<glyph unicode="&#xd8;" glyph-name="Oslash" horiz-adv-x="439" d="M303 494H257L251 467Q231 469 220 469Q104 469 62 398Q25 335 25 237T51 81T144 1L136 -35H181L187 -7Q207 -9 220 -9Q329 -9 371 53T414 218T388 378T295 458L303 494ZM220 424Q232 424 240
420L161 75Q138 120 138 204T144 329T169 396T220 424ZM198 40L278 384Q302 337 302 230Q302 36 220 36Q206 36 198 40Z" />
<glyph unicode="&#xd9;" glyph-name="Ugrave" horiz-adv-x="446" d="M257 494L278 519L193 653L129 580L257 494ZM403 460H337V152Q337 97 309 72T237 46Q156 46 156 152V460H43V152Q43 -9 230 -9Q293 -9 344 23Q403 60 403 152V460Z" />
<glyph unicode="&#xda;" glyph-name="Uacute" horiz-adv-x="446" d="M265 653L179 519L201 494L329 580L265 653ZM403 460H337V152Q337 97 309 72T237 46Q156 46 156 152V460H43V152Q43 -9 230 -9Q293 -9 344 23Q403 60 403 152V460Z" />
<glyph unicode="&#xdb;" glyph-name="Ucircumflex" horiz-adv-x="446" d="M204 635L131 516L161 491L229 552L298 491L328 516L256 635H204ZM403 460H337V152Q337 97 309 72T237 46Q156 46 156 152V460H43V152Q43 -9 230 -9Q293 -9 344 23Q403 60 403 152V460Z" />
<glyph unicode="&#xdc;" glyph-name="Udieresis" horiz-adv-x="446" d="M174 499T191 516T209 558T192 600T149 618T108 601T91 559T108 517T149 499ZM334 499T351 516T369 558T352 600T310 618T268 601T250 559T267 517T309 499ZM403 460H337V152Q337 97 309
72T237 46Q156 46 156 152V460H43V152Q43 -9 230 -9Q293 -9 344 23Q403 60 403 152V460Z" />
<glyph unicode="&#xdd;" glyph-name="Yacute" horiz-adv-x="375" d="M159 494L287 580L223 653L138 519L159 494ZM244 159L385 460H320L207 221L102 460H-11L131 158V0H244V159Z" />
<glyph unicode="&#xde;" glyph-name="Thorn" horiz-adv-x="381" d="M165 383V466H52V0H165V82H232Q313 82 348 124T383 232Q383 383 232 383H165ZM165 123V343H211Q271 343 271 233T211 123H165Z" />
<glyph unicode="&#xdf;" glyph-name="germandbls" horiz-adv-x="426" d="M312 73Q312 35 297 35T278 53T275 127H185Q185 -9 300 -9Q361 -9 392 24T424 112T395 202T307 246Q378 271 378 332T336 430T215 466T98 433T59 320V0H170V320Q170 376 179 399T216 423T255
399T266 317T229 259H199V221H245Q277 221 294 201T312 119V73Z" />
<glyph unicode="&#xe0;" glyph-name="agrave" horiz-adv-x="396" d="M231 394L253 419L167 554L104 480L231 394ZM248 42L276 0H350V244Q350 369 197 369Q120 369 87 339T48 244L140 233Q144 314 194 314Q239 314 239 251V215L177 203Q98 189 65 165T32 93T60
19T136 -9Q206 -9 248 42ZM131 96Q131 147 194 161L239 170V81Q209 49 182 49Q131 49 131 96Z" />
<glyph unicode="&#xe1;" glyph-name="aacute" horiz-adv-x="396" d="M239 554L154 419L176 394L303 480L239 554ZM248 42L276 0H350V244Q350 369 197 369Q120 369 87 339T48 244L140 233Q144 314 194 314Q239 314 239 251V215L177 203Q98 189 65 165T32 93T60
19T136 -9Q206 -9 248 42ZM131 96Q131 147 194 161L239 170V81Q209 49 182 49Q131 49 131 96Z" />
<glyph unicode="&#xe2;" glyph-name="acircumflex" horiz-adv-x="396" d="M179 536L105 416L136 392L203 452L273 392L302 416L230 536H179ZM248 42L276 0H350V244Q350 369 197 369Q120 369 87 339T48 244L140 233Q144 314 194 314Q239 314 239 251V215L177 203Q98
189 65 165T32 93T60 19T136 -9Q206 -9 248 42ZM131 96Q131 147 194 161L239 170V81Q209 49 182 49Q131 49 131 96Z" />
<glyph unicode="&#xe3;" glyph-name="atilde" horiz-adv-x="396" d="M320 501L285 513Q277 485 248 485Q235 485 207 497T155 509Q97 509 87 419L122 406Q133 437 158 437Q172 437 200 425T253 413T295 434T320 501ZM248 42L276 0H350V244Q350 369 197 369Q120
369 87 339T48 244L140 233Q144 314 194 314Q239 314 239 251V215L177 203Q98 189 65 165T32 93T60 19T136 -9Q206 -9 248 42ZM131 96Q131 147 194 161L239 170V81Q209 49 182 49Q131 49 131 96Z" />
<glyph unicode="&#xe4;" glyph-name="adieresis" horiz-adv-x="396" d="M149 399T166 416T184 458T167 500T124 518T83 501T66 459T83 417T124 399ZM309 399T326 416T344 458T327 500T285 518T243 501T225 459T242 417T284 399ZM248 42L276 0H350V244Q350 369
197 369Q120 369 87 339T48 244L140 233Q144 314 194 314Q239 314 239 251V215L177 203Q98 189 65 165T32 93T60 19T136 -9Q206 -9 248 42ZM131 96Q131 147 194 161L239 170V81Q209 49 182 49Q131 49 131 96Z" />
<glyph unicode="&#xe5;" glyph-name="aring" horiz-adv-x="396" d="M282 463Q282 493 265 515T203 538Q127 538 127 462T204 386T282 463ZM180 463Q180 503 204 503T228 463T204 423T180 463ZM248 42L276 0H350V244Q350 369 197 369Q120 369 87 339T48 244L140
233Q144 314 194 314Q239 314 239 251V215L177 203Q98 189 65 165T32 93T60 19T136 -9Q206 -9 248 42ZM131 96Q131 147 194 161L239 170V81Q209 49 182 49Q131 49 131 96Z" />
<glyph unicode="&#xe6;" glyph-name="ae" horiz-adv-x="579" d="M549 165V177Q549 369 391 369Q334 369 293 346Q256 369 188 369T87 339T48 244L140 233Q144 314 194 314Q228 314 238 269Q229 246 227 213L177 207Q101 197 67 169T32 94T60 19T136 -9Q212 -9
256 49Q294 -9 393 -9Q535 -9 544 103L453 105Q451 46 399 46Q366 46 352 71T337 165H549ZM440 220H338Q341 275 353 294T390 314Q436 314 440 220ZM155 49T143 62T131 100T148 142T194 164L225 168Q227 114 239 81Q218 49 175 49Q155 49 143 62Z" />
<glyph unicode="&#xe7;" glyph-name="ccedilla" horiz-adv-x="370" d="M247 136Q246 46 196 46Q166 46 154 75T141 180T153 285T196 314Q246 314 247 225L339 235Q335 303 302 336T190 369Q92 369 58 312Q30 264 30 180Q30 55 94 14Q120 -3 160 -7L147 -56Q180
-62 191 -72T203 -102T186 -122Q179 -122 174 -112T168 -85L110 -92Q110 -158 188 -158Q229 -158 247 -138T266 -88Q266 -34 199 -24L204 -9Q274 -6 305 29T340 132L247 136Z" />
<glyph unicode="&#xe8;" glyph-name="egrave" horiz-adv-x="383" d="M217 394L239 419L153 554L89 480L217 394ZM354 165V177Q354 369 194 369Q30 369 30 180Q30 85 68 38T191 -9T310 21T349 103L257 105Q257 46 203 46Q171 46 156 71T141 165H354ZM246 220H143Q147
275 158 294T195 314T232 292T246 220Z" />
<glyph unicode="&#xe9;" glyph-name="eacute" horiz-adv-x="383" d="M161 394L289 480L225 554L140 419L161 394ZM354 165V177Q354 369 194 369Q30 369 30 180Q30 85 68 38T191 -9T310 21T349 103L257 105Q257 46 203 46Q171 46 156 71T141 165H354ZM246 220H143Q147
275 158 294T195 314T232 292T246 220Z" />
<glyph unicode="&#xea;" glyph-name="ecircumflex" horiz-adv-x="383" d="M122 392L189 452L258 392L288 416L216 536H165L91 416L122 392ZM354 165V177Q354 369 194 369Q30 369 30 180Q30 85 68 38T191 -9T310 21T349 103L257 105Q257 46 203 46Q171 46 156 71T141
165H354ZM246 220H143Q147 275 158 294T195 314T232 292T246 220Z" />
<glyph unicode="&#xeb;" glyph-name="edieresis" horiz-adv-x="383" d="M133 399T150 416T168 458T151 500T109 518T67 501T50 459T67 417T109 399ZM293 399T311 416T329 458T311 500T269 518T228 501T210 459T227 417T269 399ZM354 165V177Q354 369 194 369Q30
369 30 180Q30 85 68 38T191 -9T310 21T349 103L257 105Q257 46 203 46Q171 46 156 71T141 165H354ZM246 220H143Q147 275 158 294T195 314T232 292T246 220Z" />
<glyph unicode="&#xec;" glyph-name="igrave" horiz-adv-x="217" d="M135 394L157 419L71 554L7 480L135 394ZM164 0V360H52V0H164Z" />
<glyph unicode="&#xed;" glyph-name="iacute" horiz-adv-x="217" d="M142 554L57 419L78 394L206 480L142 554ZM164 0V360H52V0H164Z" />
<glyph unicode="&#xee;" glyph-name="icircumflex" horiz-adv-x="217" d="M82 536L8 416L39 392L106 452L176 392L205 416L133 536H82ZM164 0V360H52V0H164Z" />
<glyph unicode="&#xef;" glyph-name="idieresis" horiz-adv-x="217" d="M51 399T68 416T86 458T69 500T27 518T-15 501T-32 459T-15 417T27 399ZM211 399T229 416T247 458T229 500T187 518T146 501T128 459T145 417T187 399ZM164 0V360H52V0H164Z" />
<glyph unicode="&#xf0;" glyph-name="eth" horiz-adv-x="407" d="M346 413V482L268 451Q254 467 218 500L166 443Q169 440 177 432T191 419L155 405V338L234 369Q262 330 275 293Q253 319 200 319Q111 319 71 271T30 155T70 39T199 -9T330 46T371 169Q371 301
309 399L346 413ZM141 155Q141 275 203 275Q230 275 244 256T262 214T266 155Q266 35 204 35T141 155Z" />
<glyph unicode="&#xf1;" glyph-name="ntilde" horiz-adv-x="422" d="M179 437T207 425T260 413T303 434T328 501L293 513Q284 485 256 485Q242 485 214 497T162 509Q105 509 95 419L129 406Q140 437 166 437Q179 437 207 425ZM140 328L103 360H52V0H164V287Q192
306 219 306T256 290T265 239V0H376V253Q376 304 348 336T260 369T140 328Z" />
<glyph unicode="&#xf2;" glyph-name="ograve" horiz-adv-x="401" d="M228 394L249 419L164 554L100 480L228 394ZM371 180Q371 369 201 369T30 180T200 -9T371 180ZM141 180Q141 250 153 282T200 314T247 283T259 180T248 78T201 46T153 78T141 180Z" />
<glyph unicode="&#xf3;" glyph-name="oacute" horiz-adv-x="401" d="M235 554L149 419L171 394L299 480L235 554ZM371 180Q371 369 201 369T30 180T200 -9T371 180ZM141 180Q141 250 153 282T200 314T247 283T259 180T248 78T201 46T153 78T141 180Z" />
<glyph unicode="&#xf4;" glyph-name="ocircumflex" horiz-adv-x="401" d="M175 536L101 416L131 392L199 452L268 392L298 416L226 536H175ZM371 180Q371 369 201 369T30 180T200 -9T371 180ZM141 180Q141 250 153 282T200 314T247 283T259 180T248 78T201 46T153
78T141 180Z" />
<glyph unicode="&#xf5;" glyph-name="otilde" horiz-adv-x="401" d="M317 501L282 513Q273 485 245 485Q231 485 203 497T151 509Q94 509 84 419L118 406Q129 437 155 437Q168 437 196 425T249 413T292 434T317 501ZM371 180Q371 369 201 369T30 180T200 -9T371
180ZM141 180Q141 250 153 282T200 314T247 283T259 180T248 78T201 46T153 78T141 180Z" />
<glyph unicode="&#xf6;" glyph-name="odieresis" horiz-adv-x="401" d="M144 399T161 416T179 458T162 500T120 518T78 501T61 459T78 417T119 399ZM304 399T321 416T339 458T322 500T280 518T239 501T221 459T238 417T280 399ZM371 180Q371 369 201 369T30 180T200
-9T371 180ZM141 180Q141 250 153 282T200 314T247 283T259 180T248 78T201 46T153 78T141 180Z" />
<glyph unicode="&#xf7;" glyph-name="divide" horiz-adv-x="365" d="M230 317Q230 333 228 343T215 362T178 371T144 357T135 322T137 292T150 273T182 264T214 273T228 291T230 317ZM314 237H51V165H314V237ZM230 77Q230 93 228 103T215 122T178 131T144 117T135
82T137 52T150 33T182 24T214 33T228 51T230 77Z" />
<glyph unicode="&#xf8;" glyph-name="oslash" horiz-adv-x="401" d="M284 410H239L227 368Q219 369 200 369Q30 369 30 180Q30 33 131 1L117 -50H162L173 -8Q182 -9 200 -9Q371 -9 371 180Q371 325 271 359L284 410ZM200 314Q209 314 212 313L152 82Q141 109 141
179T153 282T200 314ZM188 47L249 278Q259 251 259 180T248 78T200 46Q192 46 188 47Z" />
<glyph unicode="&#xf9;" glyph-name="ugrave" horiz-adv-x="421" d="M238 394L259 419L174 554L110 480L238 394ZM368 360H257V75Q232 49 205 49T168 67T158 120V360H46V105Q46 -9 164 -9Q228 -9 268 36L297 0H368V360Z" />
<glyph unicode="&#xfa;" glyph-name="uacute" horiz-adv-x="421" d="M182 394L310 480L246 554L160 419L182 394ZM368 360H257V75Q232 49 205 49T168 67T158 120V360H46V105Q46 -9 164 -9Q228 -9 268 36L297 0H368V360Z" />
<glyph unicode="&#xfb;" glyph-name="ucircumflex" horiz-adv-x="421" d="M142 392L210 452L279 392L309 416L237 536H185L112 416L142 392ZM368 360H257V75Q232 49 205 49T168 67T158 120V360H46V105Q46 -9 164 -9Q228 -9 268 36L297 0H368V360Z" />
<glyph unicode="&#xfc;" glyph-name="udieresis" horiz-adv-x="421" d="M155 399T172 416T190 458T173 500T131 518T89 501T72 459T89 417T130 399ZM315 399T332 416T350 458T333 500T291 518T249 501T231 459T248 417T290 399ZM368 360H257V75Q232 49 205 49T168
67T158 120V360H46V105Q46 -9 164 -9Q228 -9 268 36L297 0H368V360Z" />
<glyph unicode="&#xfd;" glyph-name="yacute" horiz-adv-x="348" d="M169 394L297 480L233 554L148 419L169 394ZM348 360H284L208 125L112 360H1L160 -12L95 -143L177 -152L348 360Z" />
<glyph unicode="&#xfe;" glyph-name="thorn" horiz-adv-x="413" d="M164 353V464L52 460V-121H164V-2Q198 -9 231 -9Q384 -9 384 180T230 369Q198 369 164 353ZM164 48V300Q184 306 196 306Q273 306 273 176T200 46Q176 46 164 48Z" />
<glyph unicode="&#xff;" glyph-name="ydieresis" horiz-adv-x="348" d="M142 399T159 416T177 458T160 500T118 518T76 501T59 459T76 417T118 399ZM302 399T320 416T338 458T320 500T278 518T237 501T219 459T236 417T278 399ZM348 360H284L208 125L112 360H1L160
-12L95 -143L177 -152L348 360Z" />
<glyph unicode="&#x2013;" glyph-name="endash" horiz-adv-x="348" d="M313 237H36V165H313V237Z" />
<glyph unicode="&#x2014;" glyph-name="emdash" horiz-adv-x="558" d="M523 237H36V165H523V237Z" />
<glyph unicode="&#x2018;" glyph-name="uni2018" horiz-adv-x="318" d="M75 529T101 502T165 475T225 496T246 550T227 604T179 625T127 607Q127 642 156 670T219 707L204 736Q145 725 110 682T75 584Z" />
<glyph unicode="&#x2019;" glyph-name="uni2019" horiz-adv-x="318" d="M246 681T221 708T157 736T97 715T75 661T94 607T143 586T195 604Q195 569 167 541T102 504L117 475Q177 486 211 528T246 639Q246 681 221 708Z" />
<glyph unicode="&#x201a;" glyph-name="quotesinglbase" horiz-adv-x="149" d="M52 113T37 98T22 64T30 25T38 -5Q38 -34 15 -58L35 -81Q127 -29 127 54Q127 80 112 96T75 113Z" />
<glyph unicode="&#x201c;" glyph-name="uni201C" horiz-adv-x="495" d="M303 493T319 459T361 425T405 437T424 468T401 515T378 561Q378 645 424 698L394 713Q303 639 303 531Q303 493 319 459ZM75 493T91 459T134 425T178 437T196 469T174 516Q151 544 151 561Q151
648 196 698L166 713Q75 639 75 531Q75 493 91 459Z" />
<glyph unicode="&#x201d;" glyph-name="uni201D" horiz-adv-x="495" d="M424 569T408 603T366 637T322 624T303 592T325 545T348 501Q348 414 303 364L333 349Q424 423 424 531Q424 569 408 603ZM196 569T180 603T138 637T94 624T75 593T98 546T121 501Q121 417
75 364L105 349Q196 423 196 531Q196 569 180 603Z" />
<glyph unicode="&#x201e;" glyph-name="quotedblbase" horiz-adv-x="298" d="M52 113T37 98T22 64T30 25T38 -5Q38 -34 15 -58L35 -81Q127 -29 127 54Q127 80 112 96T75 113ZM201 113T186 98T171 64T179 25T187 -5Q187 -35 165 -58L184 -81Q276 -28 276 54Q276
80 261 96T223 113Z" />
<glyph unicode="&#x2022;" glyph-name="uni2022" horiz-adv-x="522" />
<glyph unicode="&#x2039;" glyph-name="guilsinglleft" horiz-adv-x="183" d="M168 103L101 199L168 294L134 329L14 217V180L134 68L168 103Z" />
<glyph unicode="&#x203a;" glyph-name="guilsinglright" horiz-adv-x="183" d="M14 294L82 199L14 103L49 68L168 180V217L49 329L14 294Z" />
</font>
</defs>
</svg>
