<?xml version="1.0" standalone="no"?>
<!DOCTYPE svg PUBLIC "-//W3C//DTD SVG 1.1//EN" "http://www.w3.org/Graphics/SVG/1.1/DTD/svg11.dtd">
<svg xmlns="http://www.w3.org/2000/svg">
<defs >
<font id="Amita" horiz-adv-x="588" ><font-face
    font-family="Amita"
    units-per-em="1000"
    panose-1="0 0 8 0 0 0 0 0 0 0"
    ascent="1292"
    descent="-650"
    alphabetic="0" />
<glyph unicode=" " glyph-name="space" horiz-adv-x="215" />
<glyph unicode="!" glyph-name="exclam" horiz-adv-x="266" d="M101 168L168 185L213 713L53 673L101 168ZM202 80T182 100T133 121Q106 121 86 101T65 53Q65 26 85 7T133 -13Q161 -13 181 6T202 53Q202 80 182 100Z" />
<glyph unicode="&quot;" glyph-name="quotedbl" horiz-adv-x="402" d="M96 445L153 467L184 715L62 668L96 445ZM252 445L307 467L340 715L218 668L252 445Z" />
<glyph unicode="#" glyph-name="numbersign" horiz-adv-x="609" d="M113 115L192 124L239 257H322L280 115L358 124L405 257H509L523 292H416L441 363H551L563 395H453L509 554L408 535L365 395H289L345 554L242 535L200 395H95L83 363H191L168 292H55L41 257H157L113
115ZM355 363L334 292H251L277 363H355Z" />
<glyph unicode="$" glyph-name="dollar" horiz-adv-x="564" d="M154 498T177 466T235 413T329 365Q389 337 425 316T485 260T510 175Q510 95 459 48T321 -9L338 -117L248 -145L264 -10Q200 -6 144 22T55 96L141 195Q169 123 215 80T316 37Q357 37 382 62T408 121Q408
154 388 179T337 223T254 267Q187 300 145 326T74 396T44 500Q44 558 72 605T151 684T264 724L248 835L338 862L322 728Q394 727 453 696T556 610L467 503Q441 577 393 625T279 673Q222 673 188 637T154 546Q154 498 177 466Z" />
<glyph unicode="%" glyph-name="percent" horiz-adv-x="1038" d="M308 317T346 344T404 416T424 511Q424 561 405 606T347 678T254 706Q200 706 162 679T105 606T85 511Q85 461 104 417T162 345T254 317Q308 317 346 344ZM269 677T293 647T330 570T344 476Q344
422 326 387T272 352Q242 352 218 382T180 460T166 554Q166 607 184 642T239 677Q269 677 293 647ZM700 697L291 50L344 15L747 663L700 697ZM839 -5T877 22T935 94T955 189Q955 239 936 283T878 355T785 383Q732 383 694 356T636 284T616 189Q616 139 635 95T693
23T785 -5Q839 -5 877 22ZM800 354T824 324T861 247T875 153Q875 99 857 65T803 30Q773 30 749 60T711 138T697 231Q697 284 715 319T770 354Q800 354 824 324Z" />
<glyph unicode="&amp;" glyph-name="ampersand" horiz-adv-x="637" d="M662 106Q628 49 583 19T489 -12Q463 -12 442 -4T400 22Q330 -21 238 -21Q178 -21 129 2T50 69T20 176Q20 239 58 289T168 371L157 389Q132 437 122 473T112 543Q112 592 138 628T207 684T295
704Q355 704 399 683T466 628T489 558Q489 510 447 467T330 407L320 433Q379 463 379 549Q379 596 357 627T296 659Q258 659 239 635T219 573Q219 519 248 465L429 179Q441 234 441 313L552 344Q552 194 483 98Q508 68 544 68Q568 69 593 83T638 124L662 106ZM137
136T159 99T211 46T269 31Q327 31 365 61Q354 75 344 91L196 327Q137 277 137 198Q137 136 159 99Z" />
<glyph unicode="&apos;" glyph-name="quotesingle" horiz-adv-x="246" d="M97 445L153 467L184 715L62 668L97 445Z" />
<glyph unicode="(" glyph-name="parenleft" horiz-adv-x="329" d="M247 -51T202 67T156 304Q156 423 201 542T328 736L308 761Q226 718 161 645T60 483T23 304Q23 215 59 127T161 -35T309 -151L328 -122Q247 -51 202 67Z" />
<glyph unicode=")" glyph-name="parenright" horiz-adv-x="329" d="M104 717T168 645T269 484T306 306Q306 216 270 128T168 -34T22 -151L1 -126Q83 -53 128 66T173 306Q173 424 128 542T1 732L22 761Q104 717 168 645Z" />
<glyph unicode="*" glyph-name="asterisk" horiz-adv-x="398" d="M218 498L297 416L349 478L248 543L349 608L297 671L220 582L239 711H151L172 590L101 671L49 608L151 543L49 478L101 416L169 486L151 380H239L218 498Z" />
<glyph unicode="+" glyph-name="plus" horiz-adv-x="455" d="M381 335L411 414H268V559L187 527V414H75L42 335H187V189L268 221V335H381Z" />
<glyph unicode="," glyph-name="comma" horiz-adv-x="218" d="M137 121T157 101T178 53Q178 10 151 -25T83 -85L62 -67Q73 -58 82 -43T93 -12Q71 -7 56 11T41 53Q41 80 61 100T109 121Q137 121 157 101Z" />
<glyph unicode="-" glyph-name="hyphen" horiz-adv-x="472" d="M59 326H398L428 423H91L59 326Z" />
<glyph unicode="." glyph-name="period" horiz-adv-x="218" d="M178 26T158 7T109 -13Q81 -13 61 6T41 53Q41 80 61 100T109 121Q137 121 157 101T178 53Q178 26 158 7Z" />
<glyph unicode="/" glyph-name="slash" horiz-adv-x="577" d="M543 695L88 -20L34 16L494 728L543 695Z" />
<glyph unicode="0" glyph-name="zero" horiz-adv-x="689" d="M443 -9T513 42T619 178T655 356Q655 451 620 535T514 671T345 723Q246 723 176 671T71 536T36 356Q36 261 71 178T176 43T345 -9Q443 -9 513 42ZM378 673T429 616T510 469T539 290Q539 188 499 121T379
54Q315 54 264 111T185 258T156 437Q156 539 195 606T314 673Q378 673 429 616Z" />
<glyph unicode="1" glyph-name="one" horiz-adv-x="326" d="M6 589L28 548L122 599V-23L247 17V718L6 589Z" />
<glyph unicode="2" glyph-name="two" horiz-adv-x="577" d="M375 717T439 660T503 504Q503 419 457 349T352 232T198 119L202 114Q238 128 278 128Q301 128 322 124T349 119Q397 109 426 109Q461 109 486 127T533 177L557 159L471 -9Q418 -5 339 7Q283 16 244
20T162 24Q91 24 45 -9L19 16Q44 39 72 63Q161 141 220 201T323 334T367 479Q367 548 327 590T219 633Q170 633 124 608T44 541L16 565Q58 627 128 672T269 717Q375 717 439 660Z" />
<glyph unicode="3" glyph-name="three" horiz-adv-x="531" d="M300 434T362 489T425 609Q425 665 387 695T287 725Q218 725 145 689T19 584L45 558Q75 592 121 617T205 643Q238 643 257 626T277 572Q277 501 213 446T61 350L74 316Q114 333 144 341T205 349Q271
349 314 311T358 209Q358 140 307 87T181 2T35 -39L42 -70Q140 -70 246 -41T425 53T499 212Q499 267 471 309T395 374T290 398Q251 398 220 389L218 395Q300 434 362 489Z" />
<glyph unicode="4" glyph-name="four" horiz-adv-x="575" d="M466 717L343 678V291H143Q195 345 244 433T311 593L224 632Q191 502 136 393T-4 187H343V-23L466 17V187H518L556 291H466V717Z" />
<glyph unicode="5" glyph-name="five" horiz-adv-x="517" d="M482 287T449 336T359 408T237 432Q198 432 168 426T105 406L152 591H444L482 711H117L23 335Q90 372 163 372Q239 372 291 334T344 226Q344 113 252 46T27 -53L35 -86Q132 -83 236 -48T411 55T482
214Q482 287 449 336Z" />
<glyph unicode="6" glyph-name="six" horiz-adv-x="635" d="M610 298T585 349T509 432T389 464Q282 464 203 414Q226 476 276 530T392 623T526 679L517 716Q402 699 291 638T109 479T37 264Q37 184 72 118T171 14T318 -25Q398 -25 465 11T571 107T610 237Q610
298 585 349ZM207 375T240 390T310 405Q366 405 403 376T458 301T475 203Q475 128 440 80T336 32Q253 32 213 94T172 249Q172 301 182 347Q207 375 240 390Z" />
<glyph unicode="7" glyph-name="seven" horiz-adv-x="501" d="M537 705Q419 577 344 415T268 100Q268 54 273 37L112 -24Q112 134 188 298T377 590H217Q163 590 133 584T82 563T35 516L5 538L98 705H413Q446 705 469 711T511 731L537 705Z" />
<glyph unicode="8" glyph-name="eight" horiz-adv-x="598" d="M565 243T534 282T449 353L365 399Q518 474 518 574Q518 645 466 683T325 722Q263 722 209 702T121 639T87 536Q87 486 115 444T191 373Q124 339 79 288T33 173Q33 111 68 65T162 -7T290 -32Q376 -32
438 -5T532 71T565 186Q565 243 534 282ZM398 519T371 485T305 429Q257 455 228 493T199 579Q199 623 227 649T298 676Q343 676 370 644T398 562Q398 519 371 485ZM409 251T430 218T452 144Q452 94 418 60T321 26Q257 26 216 71T175 189Q175 231 195 270T250 337L358
279Q409 251 430 218Z" />
<glyph unicode="9" glyph-name="nine" horiz-adv-x="635" d="M27 394T52 342T126 259T247 227Q353 227 432 278Q409 216 359 161T242 68T107 12L119 -25Q234 -8 345 54T528 213T600 428Q600 508 565 574T465 678T317 716Q238 716 172 680T66 584T27 455Q27 394
52 342ZM427 317T394 302T324 287Q269 287 232 316T178 391T161 490Q161 564 196 611T299 658Q382 658 422 597T463 442Q463 394 452 345Q427 317 394 302Z" />
<glyph unicode=":" glyph-name="colon" horiz-adv-x="221" d="M178 360T158 380T109 401Q83 401 63 381T42 332Q42 305 62 285T109 265Q137 265 157 284T178 332Q178 360 158 380ZM178 80T158 100T109 121Q83 121 63 101T42 53Q42 26 62 7T109 -13Q137 -13 157
6T178 53Q178 80 158 100Z" />
<glyph unicode=";" glyph-name="semicolon" horiz-adv-x="221" d="M137 401T157 381T178 332Q178 304 158 285T109 265Q82 265 62 285T42 332Q42 360 62 380T109 401Q137 401 157 381ZM137 121T157 101T178 53Q178 10 151 -25T83 -85L62 -67Q74 -58 83 -43T94
-12Q72 -7 57 11T42 53Q42 80 62 100T109 121Q137 121 157 101Z" />
<glyph unicode="&lt;" glyph-name="less" horiz-adv-x="374" d="M311 528L294 544L54 349L294 171L311 192L179 349L311 528Z" />
<glyph unicode="=" glyph-name="equal" horiz-adv-x="509" d="M69 416H409L439 496H103L69 416ZM69 253H409L439 334H103L69 253Z" />
<glyph unicode="&gt;" glyph-name="greater" horiz-adv-x="374" d="M62 528L194 349L62 192L80 171L319 349L80 544L62 528Z" />
<glyph unicode="?" glyph-name="question" horiz-adv-x="512" d="M478 583T450 627T373 696T260 720Q197 720 146 695T66 626T36 533Q36 499 51 466T96 411L177 477Q157 495 145 519T133 572Q133 614 162 642T230 671Q282 671 315 629T349 520Q349 471 329 435T268
352Q239 318 223 295T195 240T183 170L249 185Q249 220 273 249T348 324Q390 360 416 386T460 448T478 525Q478 583 450 627ZM284 80T264 100T216 121Q188 121 169 101T149 53Q149 25 168 6T216 -13Q244 -13 264 6T284 53Q284 80 264 100Z" />
<glyph unicode="@" glyph-name="at" horiz-adv-x="619" d="M420 447T475 419T560 341T590 231Q590 183 574 139T527 67T460 39Q396 39 394 108H390Q379 77 356 57T301 37Q255 37 228 72T201 161Q201 210 222 252T282 319T375 345Q411 345 440 333T485 293L405
267Q387 306 358 306Q328 306 310 272T292 189Q292 143 302 114T337 84Q368 84 379 122T390 207V234L485 263V108Q485 89 499 89Q513 89 527 108T550 159T559 227Q559 281 535 325T463 396T351 422Q281 422 231 385T154 290T128 169Q128 114 147 68T204 -7T298
-36Q337 -36 384 -18L395 -41Q364 -56 328 -64T260 -72Q193 -72 141 -42T60 40T31 157Q31 229 67 295T176 404T349 447Q420 447 475 419Z" />
<glyph unicode="A" glyph-name="A" horiz-adv-x="686" d="M541 677Q434 663 346 602T208 448T158 250Q158 157 188 106T270 55Q318 55 362 131T434 333T461 593L587 634V101Q587 80 597 67T623 53Q638 53 653 62T680 87L701 67Q656 -7 572 -7Q519 -7 490 26T461
126V262H454Q425 126 367 58T225 -10Q134 -10 81 52T28 223Q28 351 97 462T284 642T541 716V677Z" />
<glyph unicode="B" glyph-name="B" horiz-adv-x="649" d="M501 390T562 349T623 226Q623 133 549 65T368 -38T168 -77L159 -41Q287 -15 385 48T484 218Q484 257 462 287T404 334T330 351Q264 351 195 324L193 329V27L68 -14V354Q68 455 112 539T235 671T415 720Q466
720 501 695T536 623Q536 560 471 495T326 384L328 379Q379 390 414 390Q501 390 562 349ZM277 394T338 453T400 584Q400 621 381 643T329 666Q279 666 249 624T206 522T193 409V354Q277 394 338 453Z" />
<glyph unicode="C" glyph-name="C" horiz-adv-x="617" d="M514 730T555 694T596 599Q596 551 569 503T497 417T396 365L381 391Q424 411 450 452T477 542Q477 599 446 633T365 668Q312 668 266 626T192 512T164 358Q164 274 190 210T262 109T369 73Q412 73 455
94T540 157L567 132Q520 71 451 31T305 -10Q223 -10 162 28T67 133T34 288Q34 410 89 511T239 671T447 730Q514 730 555 694Z" />
<glyph unicode="D" glyph-name="D" horiz-adv-x="679" d="M512 727T579 656T646 462Q646 330 562 224T349 57T87 -13V547L211 588V50Q300 77 368 134T474 272T513 446Q513 545 464 604T327 663Q258 663 184 631T49 547L24 576Q88 639 187 683T383 727Q512 727 579 656Z" />
<glyph unicode="E" glyph-name="E" horiz-adv-x="536" d="M399 723T438 705T504 654L416 598Q371 675 306 675Q278 675 252 661T210 622T193 565Q193 513 229 480T315 447Q349 447 373 457L382 425Q292 397 226 341T160 203Q160 146 191 109T276 72Q347 72 411
114T506 214L538 188Q489 103 406 46T225 -11Q131 -11 75 38T19 169Q19 239 71 295T200 388Q154 401 126 438T97 521Q97 582 135 628T232 698T355 723Q399 723 438 705Z" />
<glyph unicode="F" glyph-name="F" horiz-adv-x="590" d="M307 585T298 564T289 513V371H356Q443 371 497 412L514 394Q457 306 330 306H289V116Q289 46 258 -3T161 -94L140 -70Q165 -43 165 27V306H74L124 371H165V455Q165 527 259 610L122 611Q58 611 6 550L-15
571Q31 633 80 669T194 705H433Q481 705 530 713T605 744L620 726Q588 677 532 644T409 610H326Q307 585 298 564Z" />
<glyph unicode="G" glyph-name="G" horiz-adv-x="664" d="M500 728T540 702T580 633Q580 590 545 547T453 475T337 443L323 469Q375 482 411 520T448 600Q448 632 429 651T376 670Q318 670 272 626T199 504T172 329Q172 214 208 147T312 80Q353 80 391 111T453
194T478 299L603 338V-69L481 -110V177H475Q450 90 390 41T254 -9Q189 -9 140 24T63 118T35 257Q35 387 88 494T234 665T437 728Q500 728 540 702Z" />
<glyph unicode="H" glyph-name="H" horiz-adv-x="660" d="M456 693V338H215V733L90 693V338H44L10 271H90V-18L215 23V271H456V-18L581 23V733L456 693Z" />
<glyph unicode="I" glyph-name="I" horiz-adv-x="292" d="M205 22L80 -18V694L205 733V22Z" />
<glyph unicode="J" glyph-name="J" horiz-adv-x="378" d="M327 648Q288 600 273 569T258 500V100Q258 33 226 -24T136 -115T3 -149Q-92 -149 -168 -94L-71 -11Q-53 -46 -23 -72T46 -99Q90 -99 111 -70T133 9V439Q133 489 164 532T247 610L137 611Q101 611 72 596T15
550L-7 572Q42 634 97 669T225 705H378L327 648Z" />
<glyph unicode="K" glyph-name="K" horiz-adv-x="624" d="M630 116Q597 58 551 25T458 -9Q413 -9 385 14T315 103L216 251L204 237V23L79 -18V693L204 733V334L516 712L595 706L294 345L448 117Q463 92 477 82T513 72Q536 72 561 89T607 135L630 116Z" />
<glyph unicode="L" glyph-name="L" horiz-adv-x="565" d="M457 730T494 704T532 628Q532 584 502 546T420 479T306 438L295 465Q349 490 378 525T407 603Q407 634 390 652T340 671Q295 671 264 646T218 581T203 499V197Q203 168 195 148T167 106L173 102Q218 130
268 130Q301 130 347 122Q354 121 375 118T420 115Q455 115 482 133T534 182L558 165L477 -10Q426 -6 347 10Q299 19 263 24T185 29Q118 29 63 -9L33 19Q56 38 66 63T77 130V401Q77 493 117 568T231 686T400 730Q457 730 494 704Z" />
<glyph unicode="M" glyph-name="M" horiz-adv-x="900" d="M206 734V525Q232 625 285 677T398 729Q450 729 476 696T504 609V524Q529 624 582 676T695 729Q747 729 774 696T802 609V101Q802 80 811 67T839 53Q854 53 869 62T897 87L918 67Q872 -7 788 -7Q735 -7
706 26T677 126V583Q677 663 638 663Q608 663 577 615T525 494T504 351V23L379 -18V583Q379 663 342 663Q312 663 280 615T227 494T206 351V23L82 -18V693L206 734Z" />
<glyph unicode="N" glyph-name="N" horiz-adv-x="632" d="M205 735V560Q262 730 405 730Q468 730 501 689T534 586V101Q534 80 543 67T570 53Q586 53 601 62T628 87L650 67Q629 33 598 13T521 -7Q468 -7 439 26T409 126V553Q409 606 399 639T352 673Q304 673 271
621T222 500T205 385V25L80 -17V694L205 735Z" />
<glyph unicode="O" glyph-name="O" horiz-adv-x="731" d="M466 727T541 674T656 536T697 356Q697 259 659 175T547 39T368 -13Q270 -13 194 40T77 178T36 356Q36 453 75 538T189 675T368 727Q466 727 541 674ZM271 671T233 634T177 539T160 422Q160 335 185 249T265
104T403 46Q462 46 500 84T556 180T573 297Q573 381 548 467T468 612T331 671Q271 671 233 634Z" />
<glyph unicode="P" glyph-name="P" horiz-adv-x="625" d="M494 728T555 674T617 523Q617 440 561 370T416 258T232 216Q221 216 212 217L217 245Q285 254 348 288T450 378T490 504Q490 577 449 620T323 663Q253 663 180 630T46 544L20 572Q95 641 191 684T394
728Q494 728 555 674ZM208 23L87 -18V547L208 588V23Z" />
<glyph unicode="Q" glyph-name="Q" horiz-adv-x="731" d="M708 -33Q689 -61 661 -80T594 -100Q547 -100 513 -80T437 -6Q406 -13 368 -13Q270 -13 194 40T77 178T36 356Q36 453 75 538T189 675T368 727Q466 727 541 674T656 536T697 356Q697 258 658 173T546 39Q575
2 597 -13T642 -29Q668 -29 689 -12L708 -33ZM271 671T233 634T177 539T160 422Q160 362 172 300T211 185Q254 236 313 236Q349 236 376 225T431 185T496 105Q508 90 507 91Q540 127 556 183T573 297Q573 381 548 467T468 612T331 671Q271 671 233 634ZM292 49T399
46Q351 114 323 139T264 165Q242 165 227 155Q292 49 399 46Z" />
<glyph unicode="R" glyph-name="R" horiz-adv-x="644" d="M494 728T555 674T617 523Q617 457 582 399T486 297T352 233L457 102Q481 73 513 73Q553 73 608 128L629 109Q593 58 548 23T455 -12Q422 -12 395 5T333 66L216 217L222 245Q290 254 351 288T451 378T490
504Q490 577 449 620T323 663Q253 663 180 630T46 544L20 572Q95 641 191 684T394 728Q494 728 555 674ZM206 23L85 -19V548L206 588V23Z" />
<glyph unicode="S" glyph-name="S" horiz-adv-x="564" d="M389 728T451 698T556 610L467 503Q441 577 393 625T279 673Q222 673 188 637T154 546Q154 498 177 466T235 413T329 365Q389 337 425 316T485 260T510 175Q510 87 448 38T285 -11Q216 -11 153 17T55 96L141
195Q169 123 215 80T316 37Q357 37 382 62T408 121Q408 154 388 179T337 223T254 267Q187 300 145 326T74 396T44 500Q44 565 79 617T177 698T314 728Q389 728 451 698Z" />
<glyph unicode="T" glyph-name="T" horiz-adv-x="500" d="M537 726Q502 676 445 643T330 610Q311 586 303 564T294 513V190Q294 118 263 69T165 -21L144 3Q170 36 170 100V455Q170 497 196 536T262 610L129 611Q95 611 67 596T14 550L-8 571Q39 633 88 669T201
705H349Q397 705 446 713T520 744L537 726Z" />
<glyph unicode="U" glyph-name="U" horiz-adv-x="636" d="M529 101Q529 80 538 67T565 53Q580 53 595 62T623 87L644 67Q600 -7 514 -7Q464 -7 434 26T404 120V163Q347 -10 205 -10Q141 -10 109 31T76 135V686L201 727V167Q201 130 203 107T218 66T258 48Q306
48 338 100T387 222T404 338V687L529 727V101Z" />
<glyph unicode="V" glyph-name="V" horiz-adv-x="569" d="M509 757T535 709T561 617Q561 548 514 450L288 -41L-9 664L108 715L330 174L434 393Q454 441 463 468T472 525Q472 618 378 690L465 785Q509 757 535 709Z" />
<glyph unicode="W" glyph-name="W" horiz-adv-x="793" d="M733 752T755 709T777 616Q777 543 739 459L530 -37L395 327L253 -37L-8 670L112 715L296 206L370 396L283 633L403 678L577 197L660 393Q691 471 691 521Q691 616 600 690L687 785Q733 752 755 709Z" />
<glyph unicode="X" glyph-name="X" horiz-adv-x="581" d="M453 -21L272 262Q237 176 202 116T118 17T5 -21L36 109Q41 105 49 103T65 101Q120 101 160 155T242 310L8 675L131 712L298 450Q350 574 409 644T557 714L528 584Q507 591 497 591Q445 591 406 543T329
403L575 18L453 -21Z" />
<glyph unicode="Y" glyph-name="Y" horiz-adv-x="634" d="M368 0T230 0Q167 0 134 41T101 146V608Q101 628 93 641T65 655Q49 655 34 646T8 622L-15 642Q34 717 111 717Q166 717 196 681T227 584V178Q227 125 237 91T284 57Q332 57 364 109T413 230T429 345V687L554
727V27Q554 -40 521 -97T432 -188T308 -222Q255 -222 215 -208T142 -166L237 -84Q253 -118 281 -144T343 -171Q385 -171 407 -141T429 -66V164H424Q368 0 230 0Z" />
<glyph unicode="Z" glyph-name="Z" horiz-adv-x="586" d="M568 707L151 106L155 102Q202 130 259 130Q298 130 352 122Q396 115 430 115Q467 115 495 133T548 182L573 165L491 -10Q436 -6 348 10Q297 19 259 24T175 29Q102 29 43 -9L13 20L408 591H271Q198 591
163 587T105 567T53 516L27 536L118 705H418Q465 705 492 710T541 735L568 707Z" />
<glyph unicode="[" glyph-name="bracketleft" horiz-adv-x="294" d="M188 -101V707H282V747H63V-140H282V-101H188Z" />
<glyph unicode="\" glyph-name="backslash" horiz-adv-x="577" d="M541 16L488 -20L34 695L82 728L541 16Z" />
<glyph unicode="]" glyph-name="bracketright" horiz-adv-x="294" d="M232 -140H13V-101H107V707H13V747H232V-140Z" />
<glyph unicode="^" glyph-name="asciicircum" horiz-adv-x="305" d="M244 390L122 516L33 386L0 413L144 620L305 456L244 390Z" />
<glyph unicode="_" glyph-name="underscore" horiz-adv-x="554" d="M104 -153H443L474 -74H136L104 -153Z" />
<glyph unicode="`" glyph-name="grave" horiz-adv-x="203" d="M198 475L59 618L-6 524L180 444L198 475Z" />
<glyph unicode="a" glyph-name="a" horiz-adv-x="587" d="M372 500T417 479T485 414L388 374Q374 400 349 417T296 434Q229 434 190 378T151 238Q151 161 174 112T247 62Q317 62 343 127T369 270V314L486 356V96Q486 82 492 72T512 61Q537 61 563 96L582 77Q567
42 535 18T465 -7Q417 -7 395 25T373 109H369Q345 55 305 22T212 -12Q132 -12 89 46T45 199Q45 279 79 348T176 458T319 500Q372 500 417 479Z" />
<glyph unicode="b" glyph-name="b" horiz-adv-x="558" d="M517 196T479 133T381 29T260 -12Q173 -12 125 43T76 186V882L196 924V164Q196 117 220 82T290 46Q328 46 355 69T397 128T411 200Q411 250 387 299T320 382T229 419L337 498Q383 484 424 446T491 358T517
257Q517 196 479 133Z" />
<glyph unicode="c" glyph-name="c" horiz-adv-x="519" d="M367 506T406 482T468 408L364 352Q354 394 328 417T272 441Q232 441 201 417T154 353T137 271Q137 204 158 155T215 81T298 55Q390 55 475 160L498 140Q448 67 392 28T257 -12Q194 -12 144 17T66 100T37
224Q37 301 71 365T169 468T321 506Q367 506 406 482Z" />
<glyph unicode="d" glyph-name="d" horiz-adv-x="596" d="M490 96Q490 82 496 72T516 61Q529 61 542 72T563 96L585 77Q567 42 536 18T468 -7Q416 -7 393 21T371 109H366Q343 57 306 23T217 -12Q162 -12 123 16T64 91T44 197Q44 271 74 342T163 460T298 506Q337
506 369 487V882L490 924V96ZM248 442T217 410T170 330T155 236Q155 174 179 118T257 62Q321 62 345 127T369 270V409Q336 442 296 442Q248 442 217 410Z" />
<glyph unicode="e" glyph-name="e" horiz-adv-x="531" d="M394 509T433 480T472 394Q472 349 424 294T309 191T195 122Q237 55 318 55Q363 55 408 80T486 148L506 124Q454 59 397 24T260 -12Q196 -12 146 17T67 96T38 210Q38 286 79 355T190 467T336 509Q394 509
433 480ZM241 444T211 417T164 346T147 257Q147 197 173 154Q210 175 251 212T321 293T349 371Q349 406 331 425T279 444Q241 444 211 417Z" />
<glyph unicode="f" glyph-name="f" horiz-adv-x="367" d="M372 932T415 909T483 846L390 795Q377 835 353 860T294 886Q249 886 231 852T212 773V500H395L364 434H212V-132L92 -182V434H24L52 500H92V635Q92 712 115 779T193 889T333 932Q372 932 415 909Z" />
<glyph unicode="g" glyph-name="g" horiz-adv-x="558" d="M369 509T415 484T485 414L388 374Q373 408 349 426T295 445Q252 445 219 413T169 332T151 238Q151 167 176 115T256 62Q319 62 343 128T368 270V314L486 356V49Q486 -28 446 -108T338 -241T191 -294Q135
-294 99 -257L184 -176Q216 -218 259 -218Q326 -218 347 -168T369 -34L368 36Q368 81 376 109H368Q339 55 303 22T216 -12Q134 -12 89 45T44 189Q44 271 78 345T175 464T317 509Q369 509 415 484Z" />
<glyph unicode="h" glyph-name="h" horiz-adv-x="583" d="M201 248H205Q227 345 277 427T400 509Q434 509 450 488T471 439T475 369V92Q475 80 482 70T504 59Q528 59 554 94L571 75Q554 41 522 17T452 -7Q357 -7 357 98V360Q357 373 353 383T337 394Q295 394 265
324T218 162T201 13L81 -13V882L201 924V248Z" />
<glyph unicode="i" glyph-name="i" horiz-adv-x="312" d="M172 605L109 585L68 794L207 841L172 605ZM204 92Q204 77 211 68T230 59Q255 59 281 94L299 75Q277 35 243 14T174 -7Q83 -7 83 98V458L204 500V92Z" />
<glyph unicode="j" glyph-name="j" horiz-adv-x="288" d="M116 585L179 605L216 841L77 794L116 585ZM90 458V-21Q90 -127 62 -168T-17 -209Q-69 -209 -115 -171L-190 -264Q-152 -292 -100 -292Q-25 -292 47 -243T164 -114T209 55V500L90 458Z" />
<glyph unicode="k" glyph-name="k" horiz-adv-x="574" d="M199 223H206Q239 337 291 423T422 509Q459 509 481 484T503 422Q503 360 452 304T333 208Q342 195 351 185Q392 129 424 96T486 62Q523 62 549 93L567 73Q545 37 505 13T421 -11Q378 -11 344 19T266 103Q233
143 224 151L215 146Q209 125 205 84T199 13L80 -13V882L199 924V223ZM317 405T280 328T219 179Q286 218 333 268T381 365Q381 381 373 393T351 405Q317 405 280 328Z" />
<glyph unicode="l" glyph-name="l" horiz-adv-x="314" d="M204 92Q204 79 210 69T231 59Q245 59 259 70T283 94L301 75Q284 41 252 17T182 -7Q85 -7 85 98V882L204 925V92Z" />
<glyph unicode="m" glyph-name="m" horiz-adv-x="819" d="M669 509T686 485T704 412V92Q704 78 711 69T730 59Q741 59 754 68T780 94L798 75Q773 24 737 9T681 -7Q584 -7 584 98V368Q584 378 580 386T568 394Q547 394 525 347T487 212T471 13L350 -13V368Q350
378 346 386T335 394Q316 394 293 346T253 211T236 13L120 -13V407Q120 423 113 432T93 442Q81 442 68 432T44 404L25 424Q50 476 87 492T143 509Q237 509 237 404V285H241Q266 390 308 449T397 509Q437 509 453 485T469 412V285H475Q499 390 541 449T631 509Q669
509 686 485Z" />
<glyph unicode="n" glyph-name="n" horiz-adv-x="619" d="M474 509T490 489T510 441T514 370V92Q514 80 521 70T540 59Q555 59 566 68T591 94L608 75Q590 40 559 17T491 -7Q443 -7 419 20T395 98V360Q395 374 392 384T378 394Q344 394 309 322T250 155T226 13L109
-13V407Q109 422 102 432T82 442Q68 442 55 431T32 404L14 424Q29 459 61 484T130 509Q180 509 203 482T226 405V212H230Q257 323 310 416T439 509Q474 509 490 489Z" />
<glyph unicode="o" glyph-name="o" horiz-adv-x="558" d="M300 488Q234 441 197 382T159 242Q159 198 176 153T226 79T305 49Q363 49 398 91T434 195Q434 242 410 290T344 372T256 410Q277 433 301 452T363 498Q435 474 477 409T520 266Q520 197 490 132T402 27T268
-14Q205 -14 153 15T69 96T38 210Q38 317 105 398T281 511L300 488Z" />
<glyph unicode="p" glyph-name="p" horiz-adv-x="595" d="M418 508T460 478T528 397T553 283Q553 194 525 128T444 25T321 -11Q276 -11 229 14L260 91Q292 52 345 52Q391 52 419 106T447 249Q447 330 412 380T322 431Q276 431 251 376T226 219V-277L109 -319V404Q109
421 102 431T82 442Q63 442 32 405L14 423Q31 460 63 484T130 508Q178 508 201 481T225 395H230Q250 446 287 477T366 508Q418 508 460 478Z" />
<glyph unicode="q" glyph-name="q" horiz-adv-x="558" d="M372 507T417 482T485 414L387 374Q366 408 342 426T293 445Q254 445 222 418T170 343T151 238Q151 160 180 111T256 62Q306 62 337 119T368 270V314L484 356V-190Q484 -205 491 -214T512 -224Q525 -224
539 -214T562 -190L580 -210Q563 -246 530 -270T463 -294Q368 -294 368 -189V14Q368 52 369 74T373 112H370Q350 54 310 21T216 -12Q138 -12 91 43T44 189Q44 279 79 351T177 465T317 507Q372 507 417 482Z" />
<glyph unicode="r" glyph-name="r" horiz-adv-x="452" d="M228 318T198 248T167 119Q167 63 197 27T282 -10Q326 -10 366 12T436 71L421 89Q387 67 357 67Q312 67 289 98T265 175Q265 250 306 324T405 452L387 471Q320 427 259 427Q220 427 189 457T146 529L50
421Q54 407 70 393T89 376L22 238L63 220L128 359Q154 349 185 349Q233 349 267 369L270 365Q228 318 198 248Z" />
<glyph unicode="s" glyph-name="s" horiz-adv-x="405" d="M266 541T266 487Q265 463 256 445T237 413T222 394Q235 379 269 351Q300 326 319 306T351 254T364 177Q364 125 339 82T269 13T172 -12Q133 -12 91 2T28 41L101 139Q122 107 151 82T209 57Q246 57 273
82T300 145Q300 176 274 206T200 279Q167 308 158 318L90 219L54 243L132 351Q112 387 112 434Q112 480 134 510T198 541Q266 541 266 487ZM186 500T182 493T178 473Q178 462 182 451T191 429Q202 437 210 453T218 481Q218 489 213 494T198 500Q186 500 182 493Z"
/>
<glyph unicode="t" glyph-name="t" horiz-adv-x="345" d="M210 434V92Q210 78 218 69T239 59Q263 59 293 94L311 75Q293 39 266 21T214 -3T189 -7Q89 -7 89 98V434H18L49 500H89V727L210 768V500H341L311 434H210Z" />
<glyph unicode="u" glyph-name="u" horiz-adv-x="609" d="M504 93Q504 78 511 69T531 59Q551 59 580 93L597 75Q572 24 535 9T479 -7Q442 -7 423 10T395 66T386 178V208L382 277H378Q354 170 307 79T182 -12Q148 -12 132 4T111 49T106 126V404Q106 421 99 430T80
440Q56 440 29 404L12 423Q29 460 55 479T100 503T126 508Q180 508 203 479T226 404V137Q226 119 230 109T242 99Q278 99 309 171T359 336T378 471L504 513V93Z" />
<glyph unicode="v" glyph-name="v" horiz-adv-x="518" d="M458 521T481 490T504 420Q504 399 498 375T483 332L314 -4Q311 -10 302 -14T283 -18Q271 -18 262 -14T249 -2L82 366Q60 407 35 407Q21 407 4 387L-12 401Q0 440 36 469T115 499Q142 499 160 471T196
402L326 109L398 257Q417 297 417 324Q417 362 397 390T341 435L416 537Q458 521 481 490Z" />
<glyph unicode="w" glyph-name="w" horiz-adv-x="734" d="M707 500T707 417Q707 399 702 375T689 331L551 18Q540 -7 513 -7Q480 -7 471 19L393 284L289 20Q282 3 274 -3T250 -9Q221 -9 213 18L101 363Q93 387 83 397T55 407Q44 407 33 401T15 385L-3 401Q18 443
51 471T132 499Q164 499 183 474T215 405L295 145L373 350L337 470L455 512L559 143L611 265Q624 294 624 324Q624 361 606 389T554 435L629 538Q707 500 707 417Z" />
<glyph unicode="x" glyph-name="x" horiz-adv-x="571" d="M543 73Q522 41 489 17T425 -8Q386 -8 348 36T267 159Q241 80 205 36T104 -8Q53 -8 19 23L69 135Q82 123 100 115T135 106Q173 106 198 132T242 207L230 230Q177 330 144 377T77 424Q57 424 38 408L22
428Q44 461 77 485T143 509Q180 509 216 469T291 356Q317 432 353 474T453 517Q502 517 535 487L485 375Q471 387 454 395T420 403Q383 403 359 379T316 309L331 279Q368 209 390 170T438 104T489 77Q499 77 507 81T527 93L543 73Z" />
<glyph unicode="y" glyph-name="y" horiz-adv-x="580" d="M504 55Q504 -35 462 -117T351 -248T207 -298Q180 -298 156 -290T106 -264L180 -171Q203 -193 231 -205T281 -218Q329 -218 357 -149T385 42Q385 219 389 303H383Q313 -12 182 -12Q152 -12 136 0T113 41T106
126V404Q106 421 99 430T80 440Q68 440 55 431T29 404L11 423Q34 470 60 489T129 509Q175 509 200 482T225 404V136Q225 119 230 110T243 101Q267 101 299 164T355 315T379 471L504 513V55Z" />
<glyph unicode="z" glyph-name="z" horiz-adv-x="493" d="M181 109T208 114T260 119Q283 119 309 116Q318 115 331 114T363 113Q427 113 476 134L394 2Q375 -7 349 -7Q327 -7 301 -2T269 4Q219 15 190 15Q127 15 43 -10L22 14L320 388L316 395Q280 380 216 380Q197
380 161 382Q131 385 96 385Q79 385 57 381T27 375L109 500Q129 500 151 498T181 495Q231 491 260 491Q375 491 447 513L458 488L153 105L158 99Q181 109 208 114Z" />
<glyph unicode="{" glyph-name="braceleft" horiz-adv-x="326" d="M293 752T317 745L309 712Q299 718 287 718Q255 718 245 694T234 627L235 530Q235 441 206 382T98 309V303Q177 292 206 231T235 80L234 -14Q234 -58 243 -82T287 -107Q299 -107 309 -104L317
-135Q293 -142 265 -142Q196 -142 162 -109T120 -29T111 83V130Q111 174 104 205T74 258T3 287V324Q50 331 73 353T104 406T111 485L110 541Q110 601 120 646T165 721T265 752Q293 752 317 745Z" />
<glyph unicode="|" glyph-name="bar" horiz-adv-x="254" d="M65 711V-142L189 -103V747L65 711Z" />
<glyph unicode="}" glyph-name="braceright" horiz-adv-x="326" d="M127 752T161 722T205 646T216 541L215 485Q215 438 222 407T252 353T323 324V287Q275 280 252 257T222 201T215 121L216 67Q216 -25 186 -83T61 -142Q33 -142 9 -135L17 -104Q28 -107 39 -107Q73
-107 82 -83T92 -14L91 80Q91 169 120 230T228 303V309Q149 322 120 381T91 530L92 627Q92 669 81 693T39 718Q27 718 17 712L9 745Q33 752 61 752Q127 752 161 722Z" />
<glyph unicode="~" glyph-name="asciitilde" horiz-adv-x="349" d="M90 431T70 412T50 360Q50 327 75 303L96 313Q86 328 86 341Q86 356 93 363T112 370Q120 370 129 364T153 345Q175 326 192 316T229 306Q266 306 286 326T306 377Q306 411 281 436L260 426Q271
406 271 397Q271 370 243 370Q234 370 225 376T202 394Q181 412 164 421T126 431Q90 431 70 412Z" />
<glyph unicode="&#xa0;" glyph-name="uni00A0" horiz-adv-x="215" />
<glyph unicode="&#xa1;" glyph-name="exclamdown" horiz-adv-x="266" d="M64 414T84 394T133 373Q161 373 181 393T201 441Q201 469 181 488T133 507Q105 507 85 488T64 441Q64 414 84 394ZM166 326L98 310L53 -219L213 -178L166 326Z" />
<glyph unicode="&#xa2;" glyph-name="cent" horiz-adv-x="399" d="M448 224T392 185T257 145H245L260 40L167 11L184 156Q117 178 77 237T37 381Q37 458 71 522T167 624L161 666L252 693L248 655Q283 663 321 663Q367 663 406 639T468 564L364 509Q354 551 328
574T272 597Q254 597 241 593L235 534L182 516L178 550Q158 526 148 494T137 428Q137 361 158 312T215 238T298 212Q390 212 475 317L498 297Q448 224 392 185Z" />
<glyph unicode="&#xa3;" glyph-name="sterling" horiz-adv-x="565" d="M558 165L477 -10Q426 -6 347 10Q299 19 263 24T185 29Q118 29 63 -9L33 19Q56 38 66 63T77 130V279H-8L17 333H77V401Q77 493 117 568T231 686T400 730Q457 730 494 704T532 628Q532 584
502 546T420 479T306 438L295 465Q349 490 378 525T407 603Q407 634 390 652T340 671Q295 671 264 646T218 581T203 499V333H385L360 279H203V197Q203 168 195 148T167 106L173 102Q218 130 268 130Q301 130 347 122Q354 121 375 118T420 115Q455 115 482 133T534
182L558 165Z" />
<glyph unicode="&#xa4;" glyph-name="currency" horiz-adv-x="547" d="M585 360T559 300T487 200L518 177L459 109L419 159Q377 143 333 143Q286 143 245 159T172 205L98 107L31 166L136 249Q103 302 103 367Q103 417 118 460L29 527L88 594L146 521Q178 573 229
610T345 668L364 645Q298 598 261 539T223 399Q223 355 240 310T290 235T370 205Q378 205 382 206L374 216L401 264L446 231Q471 251 485 282T499 352Q499 386 487 421T451 485L409 452L361 480L402 535Q365 562 321 567Q342 590 367 610T428 655Q500 631 542 566T585
423Q585 360 559 300Z" />
<glyph unicode="&#xa5;" glyph-name="yen" horiz-adv-x="564" d="M347 279H539L512 226H347V23L224 -19V226H16L41 279H217L163 375H15L41 427H134L1 664L118 708L323 334L360 396Q384 433 395 465T406 530Q406 621 318 689L398 778Q441 751 467 706T493 618Q493
571 480 528T437 438L430 427H539L513 375H398L347 291V279Z" />
<glyph unicode="&#xa6;" glyph-name="brokenbar" horiz-adv-x="248" d="M62 710V321L187 360V748L62 710ZM62 247V-141L187 -103V285L62 247Z" />
<glyph unicode="&#xa7;" glyph-name="section" horiz-adv-x="488" d="M414 302T393 271T335 221Q372 200 393 173T414 104Q414 37 365 -1T238 -39Q187 -39 141 -18T69 41L136 118Q154 64 186 30T264 -4Q293 -4 311 15T329 59Q329 95 302 118T215 170Q165 195 135
215T84 267T62 344Q62 417 121 466Q62 515 62 584Q62 634 89 673T163 734T267 756Q325 756 371 734T449 668L381 586Q361 642 326 677T243 713Q204 713 179 687T154 620Q154 586 171 563T212 524T280 489Q323 469 350 453T395 410T414 344Q414 302 393 271ZM154
342T173 318T216 280T292 243Q309 250 319 266T329 301Q329 326 314 345T277 377T215 411Q200 418 170 434Q154 410 154 378Q154 342 173 318Z" />
<glyph unicode="&#xa8;" glyph-name="dieresis" horiz-adv-x="319" d="M96 612T115 593T134 547Q134 520 115 502T70 483Q43 483 24 501T5 547Q5 573 24 592T70 612Q96 612 115 593ZM277 612T296 593T315 547Q315 520 296 502T249 483Q223 483 204 501T185 547Q185
573 204 592T249 612Q277 612 296 593Z" />
<glyph unicode="&#xa9;" glyph-name="copyright" horiz-adv-x="578" d="M352 578T405 547T489 462T521 346Q521 284 490 231T405 147T289 116Q227 116 174 147T90 231T58 346Q58 409 89 462T174 546T289 578Q352 578 405 547ZM233 553T186 525T111 450T83 346Q83
290 110 243T185 168T289 140Q345 140 392 167T468 242T496 346Q496 402 468 449T393 525T289 553Q233 553 186 525ZM355 499T372 485T389 446Q389 415 364 389T305 352L300 363Q316 370 326 387T337 425Q337 446 326 460T295 474Q260 474 240 435T219 351Q219
306 239 273T300 240Q333 240 366 275L377 265Q356 239 328 222T268 205Q219 205 191 240T163 323Q163 369 184 409T243 474T328 499Q355 499 372 485Z" />
<glyph unicode="&#xaa;" glyph-name="ordfeminine" horiz-adv-x="414" d="M322 802T358 785T412 733L334 700Q323 721 303 735T260 749Q208 749 177 704T145 592Q145 530 163 491T222 451Q277 451 298 503T319 618V653L413 686V478Q413 467 418 459T434 450Q455
450 474 478L489 463Q478 436 452 416T396 396Q357 396 340 422T322 489H319Q300 446 268 419T194 392Q129 392 95 439T60 561Q60 625 87 680T165 768T279 802Q322 802 358 785ZM44 247H339L363 319H69L44 247Z" />
<glyph unicode="&#xab;" glyph-name="guillemotleft" horiz-adv-x="424" d="M219 303L190 327L24 189L190 51L219 81L146 189L219 303ZM376 303L348 327L182 189L348 51L376 81L304 189L376 303Z" />
<glyph unicode="&#xac;" glyph-name="logicalnot" horiz-adv-x="472" d="M413 234V414H76L44 335H353V183L413 234Z" />
<glyph unicode="&#xad;" glyph-name="uni00AD" horiz-adv-x="472" d="M59 326H398L428 423H91L59 326Z" />
<glyph unicode="&#xae;" glyph-name="registered" horiz-adv-x="578" d="M352 578T405 547T489 462T521 346Q521 284 490 231T405 147T289 116Q227 116 174 147T90 231T58 346Q58 409 89 462T174 546T289 578Q352 578 405 547ZM345 140T392 167T468 242T496 346Q496
402 468 449T393 525T289 553Q233 553 186 525T111 450T83 346Q83 290 110 243T185 168T289 140Q345 140 392 167ZM380 240T400 262L409 254Q395 233 376 219T337 205Q323 205 313 211T287 236L244 296V219L194 201V430L244 447V310Q287 318 319 344T352 412Q352
441 336 458T289 475Q237 475 178 428L168 439Q198 467 233 484T317 502Q357 502 381 479T406 419Q406 379 376 351T298 306L341 251Q350 240 363 240Q380 240 400 262Z" />
<glyph unicode="&#xaf;" glyph-name="overscore" horiz-adv-x="266" d="M264 587H40L3 506H228L264 587Z" />
<glyph unicode="&#xb0;" glyph-name="degree" horiz-adv-x="387" d="M234 747T269 729T324 678T345 608Q345 547 303 507T193 467Q152 467 119 485T65 536T45 608Q45 667 86 707T193 747Q234 747 269 729ZM149 702T139 686T129 647Q129 620 141 588T174 534T220
512Q240 512 249 528T259 570Q259 597 248 628T215 680T168 702Q149 702 139 686Z" />
<glyph unicode="&#xb1;" glyph-name="plusminus" horiz-adv-x="473" d="M277 559L197 527V414H83L51 335H197V189L277 221V335H392L421 414H277V559ZM51 60H392L421 140H83L51 60Z" />
<glyph unicode="&#xb2;" glyph-name="uni00B2" horiz-adv-x="328" d="M211 702T248 672T286 590Q286 546 262 511T209 455T122 396L126 393Q142 403 169 403Q184 403 204 399Q224 395 233 395Q254 395 268 405T295 434L312 421L264 317Q220 320 179 328Q129 337
92 337Q73 337 59 332T28 317L10 336Q71 387 106 420T169 495T197 579Q197 616 178 636T125 656Q101 656 76 643T32 606L12 623Q36 655 73 678T150 702Q211 702 248 672Z" />
<glyph unicode="&#xb3;" glyph-name="uni00B3" horiz-adv-x="313" d="M177 554T210 583T243 645Q243 675 222 691T166 707Q128 707 88 687T17 631L36 613Q50 631 72 644T111 658Q147 658 147 622Q147 584 114 555T39 508L48 483Q88 504 117 504Q148 504 169 485T190
433Q190 397 164 370T100 326T25 306L29 285Q83 285 142 301T242 350T283 435Q283 479 250 506T169 534Q145 534 137 530L135 534Q177 554 210 583Z" />
<glyph unicode="&#xb4;" glyph-name="acute" horiz-adv-x="200" d="M141 618L4 475L22 445L207 524L141 618Z" />
<glyph unicode="&#xb5;" glyph-name="mu" horiz-adv-x="666" d="M538 93Q538 79 546 69T565 59Q577 59 591 68T618 93L636 75Q614 35 580 14T511 -7Q472 -7 447 20T421 98V303H418Q392 195 356 110T255 -4V-194L136 -243V404Q136 421 128 430T105 440Q95 440 82
431T56 404L37 423Q59 464 94 486T162 509Q201 509 228 481T255 404V136Q255 101 273 101Q318 101 358 217T418 471L538 513V93Z" />
<glyph unicode="&#xb6;" glyph-name="paragraph" horiz-adv-x="532" d="M422 23L297 -18V257Q184 276 112 333T39 482Q39 557 91 610T230 689T422 715V23ZM237 630T202 587T167 482Q167 421 202 378T297 310V654Q237 630 202 587Z" />
<glyph unicode="&#xb7;" glyph-name="middot" horiz-adv-x="212" d="M174 390T154 410T106 430Q79 430 59 411T39 364Q39 334 58 315T106 296Q134 296 154 315T174 364Q174 390 154 410Z" />
<glyph unicode="&#xb8;" glyph-name="cedilla" horiz-adv-x="131" d="M40 -45Q61 -37 79 -37Q114 -37 137 -58T160 -117Q160 -154 132 -177T67 -201Q41 -201 17 -187T-20 -151L2 -135Q22 -161 45 -161Q64 -161 74 -148T85 -117Q85 -98 73 -85T43 -72Q27 -72 14
-81L-5 -66L39 10H72L40 -45Z" />
<glyph unicode="&#xb9;" glyph-name="uni00B9" horiz-adv-x="224" d="M4 634L18 606L62 630V309L144 333V705L4 634Z" />
<glyph unicode="&#xba;" glyph-name="ordmasculine" horiz-adv-x="402" d="M270 792Q217 754 187 707T157 595Q157 560 170 524T210 464T274 440Q321 440 349 474T377 558Q377 596 358 634T306 700T235 730Q262 760 321 800Q379 781 413 729T447 614Q447 559 423
507T352 423T245 390Q195 390 153 413T86 478T61 570Q61 656 115 720T255 810L270 792ZM44 247H339L363 319H69L44 247Z" />
<glyph unicode="&#xbb;" glyph-name="guillemotright" horiz-adv-x="424" d="M242 189L76 51L48 78L120 189L48 299L76 327L242 189ZM401 189L234 51L205 78L277 189L205 299L234 327L401 189Z" />
<glyph unicode="&#xbc;" glyph-name="onequarter" horiz-adv-x="968" d="M153 634L167 606L211 630V309L293 333V705L153 634ZM616 697L207 50L260 15L663 663L616 697ZM757 382L674 359V155H578Q605 186 630 231T665 313L602 338Q568 195 489 99H674V-14L757
10V99H783L802 155H757V382Z" />
<glyph unicode="&#xbd;" glyph-name="onehalf" horiz-adv-x="975" d="M153 634L167 606L211 630V309L293 333V705L153 634ZM616 697L207 50L260 15L663 663L616 697ZM709 380T746 350T783 267Q783 223 759 189T706 133T619 74L623 70Q638 81 666 81Q681 81 701
77Q721 73 730 73Q751 73 765 82T792 110L809 99L761 -5Q717 -2 676 6Q626 15 589 15Q570 15 556 10T525 -5L507 14Q565 62 602 96T666 173T694 257Q694 294 675 314T622 335Q598 335 573 321T529 284L509 301Q533 333 570 356T647 380Q709 380 746 350Z" />
<glyph unicode="&#xbe;" glyph-name="threequarters" horiz-adv-x="1058" d="M326 554T359 583T392 645Q392 675 371 691T315 707Q277 707 237 687T166 631L185 613Q199 631 221 644T260 658Q296 658 296 622Q296 584 263 555T188 508L197 483Q237 504 266 504Q297
504 318 485T339 433Q339 397 313 370T249 326T174 306L178 285Q232 285 291 301T391 350T432 435Q432 479 399 506T318 534Q294 534 286 530L284 534Q326 554 359 583ZM705 697L296 50L349 15L752 663L705 697ZM847 382L764 359V155H668Q695 186 720 231T755 313L692
338Q658 195 579 99H764V-14L847 10V99H873L892 155H847V382Z" />
<glyph unicode="&#xbf;" glyph-name="questiondown" horiz-adv-x="512" d="M228 414T248 394T296 373Q324 373 343 393T363 441Q363 469 344 488T296 507Q268 507 248 488T228 441Q228 414 248 394ZM34 -89T62 -133T139 -202T252 -226Q315 -226 366 -200T446 -131T476
-38Q476 -4 461 28T416 83L335 17Q355 -1 367 -25T379 -78Q379 -120 350 -148T282 -177Q230 -177 197 -135T163 -26Q163 23 183 59T244 142Q273 176 289 199T317 254T329 324L263 310Q263 275 239 246T164 171Q121 134 96 108T52 46T34 -31Q34 -89 62 -133Z" />
<glyph unicode="&#xc0;" glyph-name="Agrave" horiz-adv-x="686" d="M541 677Q434 663 346 602T208 448T158 250Q158 157 188 106T270 55Q318 55 362 131T434 333T461 593L587 634V101Q587 80 597 67T623 53Q638 53 653 62T680 87L701 67Q656 -7 572 -7Q519 -7
490 26T461 126V262H454Q425 126 367 58T225 -10Q134 -10 81 52T28 223Q28 351 97 462T284 642T541 716V677ZM490 804L351 947L286 853L472 773L490 804Z" />
<glyph unicode="&#xc1;" glyph-name="Aacute" horiz-adv-x="686" d="M541 677Q434 663 346 602T208 448T158 250Q158 157 188 106T270 55Q318 55 362 131T434 333T461 593L587 634V101Q587 80 597 67T623 53Q638 53 653 62T680 87L701 67Q656 -7 572 -7Q519 -7
490 26T461 126V262H454Q425 126 367 58T225 -10Q134 -10 81 52T28 223Q28 351 97 462T284 642T541 716V677ZM437 947L300 804L318 774L503 853L437 947Z" />
<glyph unicode="&#xc2;" glyph-name="Acircumflex" horiz-adv-x="686" d="M541 677Q434 663 346 602T208 448T158 250Q158 157 188 106T270 55Q318 55 362 131T434 333T461 593L587 634V101Q587 80 597 67T623 53Q638 53 653 62T680 87L701 67Q656 -7 572 -7Q519
-7 490 26T461 126V262H454Q425 126 367 58T225 -10Q134 -10 81 52T28 223Q28 351 97 462T284 642T541 716V677ZM530 840L474 770L360 861L291 779L257 805L384 956L530 840Z" />
<glyph unicode="&#xc3;" glyph-name="Atilde" horiz-adv-x="686" d="M541 677Q434 663 346 602T208 448T158 250Q158 157 188 106T270 55Q318 55 362 131T434 333T461 593L587 634V101Q587 80 597 67T623 53Q638 53 653 62T680 87L701 67Q656 -7 572 -7Q519 -7
490 26T461 126V262H454Q425 126 367 58T225 -10Q134 -10 81 52T28 223Q28 351 97 462T284 642T541 716V677ZM515 922T515 886Q515 853 494 831T438 809Q417 809 403 818T375 842Q365 852 358 857T342 862Q324 862 324 838Q324 825 331 814L298 801Q273 830 273
866Q273 899 293 921T349 943Q370 943 384 934T412 910Q422 900 429 895T445 890Q454 890 459 896T464 913Q464 926 456 937L490 950Q515 922 515 886Z" />
<glyph unicode="&#xc4;" glyph-name="Adieresis" horiz-adv-x="686" d="M541 677Q434 663 346 602T208 448T158 250Q158 157 188 106T270 55Q318 55 362 131T434 333T461 593L587 634V101Q587 80 597 67T623 53Q638 53 653 62T680 87L701 67Q656 -7 572 -7Q519
-7 490 26T461 126V262H454Q425 126 367 58T225 -10Q134 -10 81 52T28 223Q28 351 97 462T284 642T541 716V677ZM330 941T349 922T368 876Q368 849 349 831T304 812Q277 812 258 830T239 876Q239 902 258 921T304 941Q330 941 349 922ZM511 941T530 922T549 876Q549
849 530 831T483 812Q457 812 438 830T419 876Q419 902 438 921T483 941Q511 941 530 922Z" />
<glyph unicode="&#xc5;" glyph-name="Aring" horiz-adv-x="686" d="M541 677Q434 663 346 602T208 448T158 250Q158 157 188 106T270 55Q318 55 362 131T434 333T461 593L587 634V101Q587 80 597 67T623 53Q638 53 653 62T680 87L701 67Q656 -7 572 -7Q519 -7
490 26T461 126V262H454Q425 126 367 58T225 -10Q134 -10 81 52T28 223Q28 351 97 462T284 642T541 716V677ZM439 994T468 967T498 896Q498 857 467 828T393 798Q349 798 320 826T290 896Q290 937 320 965T393 994Q439 994 468 967ZM369 958T363 947T356 916Q356
882 372 859T406 835Q418 835 424 847T430 879Q430 913 414 935T381 958Q369 958 363 947Z" />
<glyph unicode="&#xc6;" glyph-name="AE" horiz-adv-x="902" d="M906 188Q858 103 775 46T594 -11Q516 -11 464 23T395 117Q333 -10 219 -10Q132 -10 81 53T29 223Q29 344 96 455T292 637T598 708V697Q658 723 724 723Q769 723 807 706T874 654L785 598Q764 635
736 655T674 675Q646 675 620 661T578 622T562 565Q562 513 598 480T684 447Q719 447 743 457L752 425Q647 392 585 338T523 200Q523 145 556 109T646 72Q718 72 781 114T876 214L906 188ZM401 261T447 311T556 394Q467 434 467 521Q467 565 487 601T543 665Q419
644 333 581T203 431T160 250Q160 169 184 112T264 55Q342 55 391 199Q401 261 447 311Z" />
<glyph unicode="&#xc7;" glyph-name="Ccedilla" horiz-adv-x="617" d="M412 73T455 94T540 157L567 132Q520 71 451 31T305 -10H300L280 -45Q301 -37 319 -37Q354 -37 377 -58T400 -117Q400 -154 372 -177T307 -201Q281 -201 257 -187T220 -151L242 -135Q262 -161
285 -161Q304 -161 314 -148T325 -117Q325 -98 313 -85T283 -72Q268 -72 254 -81L235 -66L269 -8Q197 0 144 40T62 144T34 288Q34 410 89 511T239 671T447 730Q514 730 555 694T596 599Q596 551 569 503T497 417T396 365L381 391Q424 411 450 452T477 542Q477 599
446 633T365 668Q312 668 266 626T192 512T164 358Q164 274 190 210T262 109T369 73Q412 73 455 94Z" />
<glyph unicode="&#xc8;" glyph-name="Egrave" horiz-adv-x="536" d="M399 723T438 705T504 654L416 598Q371 675 306 675Q278 675 252 661T210 622T193 565Q193 513 229 480T315 447Q349 447 373 457L382 425Q292 397 226 341T160 203Q160 146 191 109T276 72Q347
72 411 114T506 214L538 188Q489 103 406 46T225 -11Q131 -11 75 38T19 169Q19 239 71 295T200 388Q154 401 126 438T97 521Q97 582 135 628T232 698T355 723Q399 723 438 705ZM415 804L276 947L211 853L397 773L415 804Z" />
<glyph unicode="&#xc9;" glyph-name="Eacute" horiz-adv-x="536" d="M399 723T438 705T504 654L416 598Q371 675 306 675Q278 675 252 661T210 622T193 565Q193 513 229 480T315 447Q349 447 373 457L382 425Q292 397 226 341T160 203Q160 146 191 109T276 72Q347
72 411 114T506 214L538 188Q489 103 406 46T225 -11Q131 -11 75 38T19 169Q19 239 71 295T200 388Q154 401 126 438T97 521Q97 582 135 628T232 698T355 723Q399 723 438 705ZM362 947L225 804L243 774L428 853L362 947Z" />
<glyph unicode="&#xca;" glyph-name="Ecircumflex" horiz-adv-x="536" d="M399 723T438 705T504 654L416 598Q371 675 306 675Q278 675 252 661T210 622T193 565Q193 513 229 480T315 447Q349 447 373 457L382 425Q292 397 226 341T160 203Q160 146 191 109T276
72Q347 72 411 114T506 214L538 188Q489 103 406 46T225 -11Q131 -11 75 38T19 169Q19 239 71 295T200 388Q154 401 126 438T97 521Q97 582 135 628T232 698T355 723Q399 723 438 705ZM455 840L399 770L285 861L216 779L182 805L309 956L455 840Z" />
<glyph unicode="&#xcb;" glyph-name="Edieresis" horiz-adv-x="536" d="M399 723T438 705T504 654L416 598Q371 675 306 675Q278 675 252 661T210 622T193 565Q193 513 229 480T315 447Q349 447 373 457L382 425Q292 397 226 341T160 203Q160 146 191 109T276
72Q347 72 411 114T506 214L538 188Q489 103 406 46T225 -11Q131 -11 75 38T19 169Q19 239 71 295T200 388Q154 401 126 438T97 521Q97 582 135 628T232 698T355 723Q399 723 438 705ZM255 941T274 922T293 876Q293 849 274 831T229 812Q202 812 183 830T164 876Q164
902 183 921T229 941Q255 941 274 922ZM436 941T455 922T474 876Q474 849 455 831T408 812Q382 812 363 830T344 876Q344 902 363 921T408 941Q436 941 455 922Z" />
<glyph unicode="&#xcc;" glyph-name="Igrave" horiz-adv-x="292" d="M205 22L80 -18V694L205 733V22ZM240 804L101 947L36 853L222 773L240 804Z" />
<glyph unicode="&#xcd;" glyph-name="Iacute" horiz-adv-x="292" d="M205 22L80 -18V694L205 733V22ZM187 947L50 804L68 774L253 853L187 947Z" />
<glyph unicode="&#xce;" glyph-name="Icircumflex" horiz-adv-x="292" d="M205 22L80 -18V694L205 733V22ZM279 840L223 770L109 861L40 779L6 805L133 956L279 840Z" />
<glyph unicode="&#xcf;" glyph-name="Idieresis" horiz-adv-x="292" d="M205 22L80 -18V694L205 733V22ZM79 941T98 922T117 876Q117 849 98 831T53 812Q26 812 7 830T-12 876Q-12 902 7 921T53 941Q79 941 98 922ZM260 941T279 922T298 876Q298 849 279 831T232
812Q206 812 187 830T168 876Q168 902 187 921T232 941Q260 941 279 922Z" />
<glyph unicode="&#xd0;" glyph-name="Eth" horiz-adv-x="679" d="M512 727T579 656T646 462Q646 330 562 224T349 57T87 -13V323H-16L7 375H87V547L211 588V375H358L336 323H211V50Q300 77 368 134T474 272T513 446Q513 545 464 604T327 663Q258 663 184 631T49
547L24 576Q88 639 187 683T383 727Q512 727 579 656Z" />
<glyph unicode="&#xd1;" glyph-name="Ntilde" horiz-adv-x="632" d="M205 735V560Q262 730 405 730Q468 730 501 689T534 586V101Q534 80 543 67T570 53Q586 53 601 62T628 87L650 67Q629 33 598 13T521 -7Q468 -7 439 26T409 126V553Q409 606 399 639T352 673Q304
673 271 621T222 500T205 385V25L80 -17V694L205 735ZM444 922T444 886Q444 853 423 831T367 809Q346 809 332 818T304 842Q294 852 287 857T271 862Q253 862 253 838Q253 825 260 814L227 801Q202 830 202 866Q202 899 222 921T278 943Q299 943 313 934T341 910Q351
900 358 895T374 890Q383 890 388 896T393 913Q393 926 385 937L419 950Q444 922 444 886Z" />
<glyph unicode="&#xd2;" glyph-name="Ograve" horiz-adv-x="731" d="M466 727T541 674T656 536T697 356Q697 259 659 175T547 39T368 -13Q270 -13 194 40T77 178T36 356Q36 453 75 538T189 675T368 727Q466 727 541 674ZM271 671T233 634T177 539T160 422Q160
335 185 249T265 104T403 46Q462 46 500 84T556 180T573 297Q573 381 548 467T468 612T331 671Q271 671 233 634ZM465 804L326 947L261 853L447 773L465 804Z" />
<glyph unicode="&#xd3;" glyph-name="Oacute" horiz-adv-x="731" d="M466 727T541 674T656 536T697 356Q697 259 659 175T547 39T368 -13Q270 -13 194 40T77 178T36 356Q36 453 75 538T189 675T368 727Q466 727 541 674ZM271 671T233 634T177 539T160 422Q160
335 185 249T265 104T403 46Q462 46 500 84T556 180T573 297Q573 381 548 467T468 612T331 671Q271 671 233 634ZM412 947L275 804L293 774L478 853L412 947Z" />
<glyph unicode="&#xd4;" glyph-name="Ocircumflex" horiz-adv-x="731" d="M466 727T541 674T656 536T697 356Q697 259 659 175T547 39T368 -13Q270 -13 194 40T77 178T36 356Q36 453 75 538T189 675T368 727Q466 727 541 674ZM271 671T233 634T177 539T160 422Q160
335 185 249T265 104T403 46Q462 46 500 84T556 180T573 297Q573 381 548 467T468 612T331 671Q271 671 233 634ZM505 840L449 770L335 861L266 779L232 805L359 956L505 840Z" />
<glyph unicode="&#xd5;" glyph-name="Otilde" horiz-adv-x="731" d="M466 727T541 674T656 536T697 356Q697 259 659 175T547 39T368 -13Q270 -13 194 40T77 178T36 356Q36 453 75 538T189 675T368 727Q466 727 541 674ZM271 671T233 634T177 539T160 422Q160
335 185 249T265 104T403 46Q462 46 500 84T556 180T573 297Q573 381 548 467T468 612T331 671Q271 671 233 634ZM490 922T490 886Q490 853 469 831T413 809Q392 809 378 818T350 842Q340 852 333 857T317 862Q299 862 299 838Q299 825 306 814L273 801Q248 830
248 866Q248 899 268 921T324 943Q345 943 359 934T387 910Q397 900 404 895T420 890Q429 890 434 896T439 913Q439 926 431 937L465 950Q490 922 490 886Z" />
<glyph unicode="&#xd6;" glyph-name="Odieresis" horiz-adv-x="731" d="M466 727T541 674T656 536T697 356Q697 259 659 175T547 39T368 -13Q270 -13 194 40T77 178T36 356Q36 453 75 538T189 675T368 727Q466 727 541 674ZM271 671T233 634T177 539T160 422Q160
335 185 249T265 104T403 46Q462 46 500 84T556 180T573 297Q573 381 548 467T468 612T331 671Q271 671 233 634ZM305 941T324 922T343 876Q343 849 324 831T279 812Q252 812 233 830T214 876Q214 902 233 921T279 941Q305 941 324 922ZM486 941T505 922T524 876Q524
849 505 831T458 812Q432 812 413 830T394 876Q394 902 413 921T458 941Q486 941 505 922Z" />
<glyph unicode="&#xd7;" glyph-name="multiply" horiz-adv-x="439" d="M221 436L140 553L60 518L177 375L60 231L140 197L221 315L300 197L379 231L262 375L379 518L300 553L221 436Z" />
<glyph unicode="&#xd8;" glyph-name="Oslash" horiz-adv-x="731" d="M638 584T667 510T697 356Q697 259 659 175T547 39T368 -13Q276 -13 200 36L165 -20L111 16L150 76Q96 129 66 203T36 356Q36 453 75 538T189 675T368 727Q462 727 537 676L571 728L620 695L584
638Q638 584 667 510ZM160 360T174 295T215 177L484 594Q422 671 331 671Q271 671 233 634T177 539T160 422Q160 360 174 295ZM462 46T500 84T556 180T573 297Q573 357 560 421T520 537L253 118Q315 46 403 46Q462 46 500 84Z" />
<glyph unicode="&#xd9;" glyph-name="Ugrave" horiz-adv-x="636" d="M529 101Q529 80 538 67T565 53Q580 53 595 62T623 87L644 67Q600 -7 514 -7Q464 -7 434 26T404 120V163Q347 -10 205 -10Q141 -10 109 31T76 135V686L201 727V167Q201 130 203 107T218 66T258
48Q306 48 338 100T387 222T404 338V687L529 727V101ZM418 804L279 947L214 853L400 773L418 804Z" />
<glyph unicode="&#xda;" glyph-name="Uacute" horiz-adv-x="636" d="M529 101Q529 80 538 67T565 53Q580 53 595 62T623 87L644 67Q600 -7 514 -7Q464 -7 434 26T404 120V163Q347 -10 205 -10Q141 -10 109 31T76 135V686L201 727V167Q201 130 203 107T218 66T258
48Q306 48 338 100T387 222T404 338V687L529 727V101ZM365 947L228 804L246 774L431 853L365 947Z" />
<glyph unicode="&#xdb;" glyph-name="Ucircumflex" horiz-adv-x="636" d="M529 101Q529 80 538 67T565 53Q580 53 595 62T623 87L644 67Q600 -7 514 -7Q464 -7 434 26T404 120V163Q347 -10 205 -10Q141 -10 109 31T76 135V686L201 727V167Q201 130 203 107T218
66T258 48Q306 48 338 100T387 222T404 338V687L529 727V101ZM458 840L402 770L288 861L219 779L185 805L312 956L458 840Z" />
<glyph unicode="&#xdc;" glyph-name="Udieresis" horiz-adv-x="636" d="M529 101Q529 80 538 67T565 53Q580 53 595 62T623 87L644 67Q600 -7 514 -7Q464 -7 434 26T404 120V163Q347 -10 205 -10Q141 -10 109 31T76 135V686L201 727V167Q201 130 203 107T218 66T258
48Q306 48 338 100T387 222T404 338V687L529 727V101ZM258 941T277 922T296 876Q296 849 277 831T232 812Q205 812 186 830T167 876Q167 902 186 921T232 941Q258 941 277 922ZM439 941T458 922T477 876Q477 849 458 831T411 812Q385 812 366 830T347 876Q347 902
366 921T411 941Q439 941 458 922Z" />
<glyph unicode="&#xdd;" glyph-name="Yacute" horiz-adv-x="634" d="M368 0T230 0Q167 0 134 41T101 146V608Q101 628 93 641T65 655Q49 655 34 646T8 622L-15 642Q34 717 111 717Q166 717 196 681T227 584V178Q227 125 237 91T284 57Q332 57 364 109T413 230T429
345V687L554 727V27Q554 -40 521 -97T432 -188T308 -222Q255 -222 215 -208T142 -166L237 -84Q253 -118 281 -144T343 -171Q385 -171 407 -141T429 -66V164H424Q368 0 230 0ZM363 947L226 804L244 774L429 853L363 947Z" />
<glyph unicode="&#xde;" glyph-name="Thorn" horiz-adv-x="620" d="M491 626T552 572T613 421Q613 338 557 268T411 156T227 114Q216 114 207 116L212 144Q280 153 343 187T446 277T486 402Q486 475 445 518T319 561Q266 561 205 540V11L80 -30V474Q57 457 41
443L15 470Q42 495 80 522V693L205 733V590Q298 626 390 626Q491 626 552 572Z" />
<glyph unicode="&#xdf;" glyph-name="germandbls" horiz-adv-x="662" d="M408 933T451 896T494 791Q494 757 481 729T441 661Q414 622 401 593T387 529Q387 496 402 469T439 420T498 368Q540 334 564 310T606 252T624 175Q624 122 598 78T527 8T426 -18Q385 -18
342 -5T275 36L358 134Q374 105 404 79T464 52Q505 52 532 76T559 140Q559 168 539 190T475 248Q425 287 393 320T337 405T313 525Q313 551 323 578T353 651Q375 698 386 729T397 790Q397 826 371 855T306 884Q254 884 236 846T218 750V-134L95 -185V414H29L58
478H95Q95 604 107 696T173 861T339 933Q408 933 451 896Z" />
<glyph unicode="&#xe0;" glyph-name="agrave" horiz-adv-x="587" d="M372 500T417 479T485 414L388 374Q374 400 349 417T296 434Q229 434 190 378T151 238Q151 161 174 112T247 62Q317 62 343 127T369 270V314L486 356V96Q486 82 492 72T512 61Q537 61 563 96L582
77Q567 42 535 18T465 -7Q417 -7 395 25T373 109H369Q345 55 305 22T212 -12Q132 -12 89 46T45 199Q45 279 79 348T176 458T319 500Q372 500 417 479ZM423 599L284 742L219 648L405 568L423 599Z" />
<glyph unicode="&#xe1;" glyph-name="aacute" horiz-adv-x="587" d="M372 500T417 479T485 414L388 374Q374 400 349 417T296 434Q229 434 190 378T151 238Q151 161 174 112T247 62Q317 62 343 127T369 270V314L486 356V96Q486 82 492 72T512 61Q537 61 563 96L582
77Q567 42 535 18T465 -7Q417 -7 395 25T373 109H369Q345 55 305 22T212 -12Q132 -12 89 46T45 199Q45 279 79 348T176 458T319 500Q372 500 417 479ZM370 742L233 599L251 569L436 648L370 742Z" />
<glyph unicode="&#xe2;" glyph-name="acircumflex" horiz-adv-x="587" d="M372 500T417 479T485 414L388 374Q374 400 349 417T296 434Q229 434 190 378T151 238Q151 161 174 112T247 62Q317 62 343 127T369 270V314L486 356V96Q486 82 492 72T512 61Q537 61 563
96L582 77Q567 42 535 18T465 -7Q417 -7 395 25T373 109H369Q345 55 305 22T212 -12Q132 -12 89 46T45 199Q45 279 79 348T176 458T319 500Q372 500 417 479ZM463 635L407 565L293 656L224 574L190 600L317 751L463 635Z" />
<glyph unicode="&#xe3;" glyph-name="atilde" horiz-adv-x="587" d="M372 500T417 479T485 414L388 374Q374 400 349 417T296 434Q229 434 190 378T151 238Q151 161 174 112T247 62Q317 62 343 127T369 270V314L486 356V96Q486 82 492 72T512 61Q537 61 563 96L582
77Q567 42 535 18T465 -7Q417 -7 395 25T373 109H369Q345 55 305 22T212 -12Q132 -12 89 46T45 199Q45 279 79 348T176 458T319 500Q372 500 417 479ZM448 717T448 681Q448 648 427 626T371 604Q350 604 336 613T308 637Q298 647 291 652T275 657Q257 657 257 633Q257
620 264 609L231 596Q206 625 206 661Q206 694 226 716T282 738Q303 738 317 729T345 705Q355 695 362 690T378 685Q387 685 392 691T397 708Q397 721 389 732L423 745Q448 717 448 681Z" />
<glyph unicode="&#xe4;" glyph-name="adieresis" horiz-adv-x="587" d="M372 500T417 479T485 414L388 374Q374 400 349 417T296 434Q229 434 190 378T151 238Q151 161 174 112T247 62Q317 62 343 127T369 270V314L486 356V96Q486 82 492 72T512 61Q537 61 563
96L582 77Q567 42 535 18T465 -7Q417 -7 395 25T373 109H369Q345 55 305 22T212 -12Q132 -12 89 46T45 199Q45 279 79 348T176 458T319 500Q372 500 417 479ZM263 736T282 717T301 671Q301 644 282 626T237 607Q210 607 191 625T172 671Q172 697 191 716T237 736Q263
736 282 717ZM444 736T463 717T482 671Q482 644 463 626T416 607Q390 607 371 625T352 671Q352 697 371 716T416 736Q444 736 463 717Z" />
<glyph unicode="&#xe5;" glyph-name="aring" horiz-adv-x="587" d="M372 500T417 479T485 414L388 374Q374 400 349 417T296 434Q229 434 190 378T151 238Q151 161 174 112T247 62Q317 62 343 127T369 270V314L486 356V96Q486 82 492 72T512 61Q537 61 563 96L582
77Q567 42 535 18T465 -7Q417 -7 395 25T373 109H369Q345 55 305 22T212 -12Q132 -12 89 46T45 199Q45 279 79 348T176 458T319 500Q372 500 417 479ZM372 789T401 762T431 691Q431 652 400 623T326 593Q282 593 253 621T223 691Q223 732 253 760T326 789Q372 789
401 762ZM302 753T296 742T289 711Q289 677 305 654T339 630Q351 630 357 642T363 674Q363 708 347 730T314 753Q302 753 296 742Z" />
<glyph unicode="&#xe6;" glyph-name="ae" horiz-adv-x="852" d="M828 126Q779 64 716 26T581 -12Q510 -12 455 25T375 124Q353 56 311 22T212 -12Q131 -12 86 45T40 189Q40 269 74 340T171 456T314 500Q354 500 397 483T472 438Q513 472 561 490T660 509Q717 509
755 480T794 394Q794 349 746 293T633 190T519 122Q544 92 575 75T640 57Q682 57 725 84T806 149L828 126ZM472 200T498 154Q534 175 574 212T641 293T668 371Q668 407 651 425T602 444Q565 444 536 417T489 347T472 257Q472 200 498 154ZM314 62T338 138T362 351Q362
392 340 413T291 434Q249 434 217 408T167 337T149 238Q149 173 174 118T253 62Q314 62 338 138Z" />
<glyph unicode="&#xe7;" glyph-name="ccedilla" horiz-adv-x="519" d="M248 -12L229 -45Q250 -37 268 -37Q303 -37 326 -58T349 -117Q349 -154 321 -177T256 -201Q230 -201 206 -187T169 -151L191 -135Q211 -161 234 -161Q253 -161 263 -148T274 -117Q274 -98
262 -85T232 -72Q216 -72 203 -81L184 -66L217 -9Q136 5 87 67T37 224Q37 301 71 365T169 468T321 506Q367 506 406 482T468 408L364 352Q354 394 328 417T272 441Q232 441 201 417T154 353T137 271Q137 204 158 155T215 81T298 55Q390 55 475 160L498 140Q448
67 392 28T257 -12H248Z" />
<glyph unicode="&#xe8;" glyph-name="egrave" horiz-adv-x="531" d="M394 509T433 480T472 394Q472 349 424 294T309 191T195 122Q237 55 318 55Q363 55 408 80T486 148L506 124Q454 59 397 24T260 -12Q196 -12 146 17T67 96T38 210Q38 286 79 355T190 467T336
509Q394 509 433 480ZM241 444T211 417T164 346T147 257Q147 197 173 154Q210 175 251 212T321 293T349 371Q349 406 331 425T279 444Q241 444 211 417ZM380 599L241 742L176 648L362 568L380 599Z" />
<glyph unicode="&#xe9;" glyph-name="eacute" horiz-adv-x="531" d="M394 509T433 480T472 394Q472 349 424 294T309 191T195 122Q237 55 318 55Q363 55 408 80T486 148L506 124Q454 59 397 24T260 -12Q196 -12 146 17T67 96T38 210Q38 286 79 355T190 467T336
509Q394 509 433 480ZM241 444T211 417T164 346T147 257Q147 197 173 154Q210 175 251 212T321 293T349 371Q349 406 331 425T279 444Q241 444 211 417ZM327 742L190 599L208 569L393 648L327 742Z" />
<glyph unicode="&#xea;" glyph-name="ecircumflex" horiz-adv-x="531" d="M394 509T433 480T472 394Q472 349 424 294T309 191T195 122Q237 55 318 55Q363 55 408 80T486 148L506 124Q454 59 397 24T260 -12Q196 -12 146 17T67 96T38 210Q38 286 79 355T190 467T336
509Q394 509 433 480ZM241 444T211 417T164 346T147 257Q147 197 173 154Q210 175 251 212T321 293T349 371Q349 406 331 425T279 444Q241 444 211 417ZM420 635L364 565L250 656L181 574L147 600L274 751L420 635Z" />
<glyph unicode="&#xeb;" glyph-name="edieresis" horiz-adv-x="531" d="M394 509T433 480T472 394Q472 349 424 294T309 191T195 122Q237 55 318 55Q363 55 408 80T486 148L506 124Q454 59 397 24T260 -12Q196 -12 146 17T67 96T38 210Q38 286 79 355T190 467T336
509Q394 509 433 480ZM241 444T211 417T164 346T147 257Q147 197 173 154Q210 175 251 212T321 293T349 371Q349 406 331 425T279 444Q241 444 211 417ZM220 736T239 717T258 671Q258 644 239 626T194 607Q167 607 148 625T129 671Q129 697 148 716T194 736Q220
736 239 717ZM401 736T420 717T439 671Q439 644 420 626T373 607Q347 607 328 625T309 671Q309 697 328 716T373 736Q401 736 420 717Z" />
<glyph unicode="&#xec;" glyph-name="igrave" horiz-adv-x="313" d="M204 92Q204 77 211 68T231 59Q255 59 282 94L300 75Q278 35 244 14T174 -7Q127 -7 105 18T83 98V458L204 500V92ZM237 599L98 742L33 648L219 568L237 599Z" />
<glyph unicode="&#xed;" glyph-name="iacute" horiz-adv-x="313" d="M204 92Q204 77 211 68T231 59Q255 59 282 94L300 75Q278 35 244 14T174 -7Q127 -7 105 18T83 98V458L204 500V92ZM184 742L47 599L65 569L250 648L184 742Z" />
<glyph unicode="&#xee;" glyph-name="icircumflex" horiz-adv-x="313" d="M204 92Q204 77 211 68T231 59Q255 59 282 94L300 75Q278 35 244 14T174 -7Q127 -7 105 18T83 98V458L204 500V92ZM277 635L221 565L107 656L38 574L4 600L131 751L277 635Z" />
<glyph unicode="&#xef;" glyph-name="idieresis" horiz-adv-x="313" d="M204 92Q204 77 211 68T231 59Q255 59 282 94L300 75Q278 35 244 14T174 -7Q127 -7 105 18T83 98V458L204 500V92ZM333 736T352 717T371 671Q371 644 352 626T307 607Q280 607 261 625T242
671Q242 697 261 716T307 736Q333 736 352 717ZM514 736T533 717T552 671Q552 644 533 626T486 607Q460 607 441 625T422 671Q422 697 441 716T486 736Q514 736 533 717Z" />
<glyph unicode="&#xf0;" glyph-name="eth" horiz-adv-x="586" d="M451 622T494 515T538 279Q538 204 503 137T408 28T278 -13Q209 -13 155 20T69 117T38 265Q38 325 68 381T150 474T264 517Q301 492 326 472T372 428Q296 428 240 391T153 299T123 194Q123 132
157 90T256 48Q305 48 341 81T398 171T418 295Q418 402 385 498T290 674L130 615V684L246 727Q179 798 89 851L109 874Q227 831 319 754L477 813V743L372 705Q451 622 494 515Z" />
<glyph unicode="&#xf1;" glyph-name="ntilde" horiz-adv-x="619" d="M474 509T490 489T510 441T514 370V92Q514 80 521 70T540 59Q555 59 566 68T591 94L608 75Q590 40 559 17T491 -7Q443 -7 419 20T395 98V360Q395 374 392 384T378 394Q344 394 309 322T250 155T226
13L109 -13V407Q109 422 102 432T82 442Q68 442 55 431T32 404L14 424Q29 459 61 484T130 509Q180 509 203 482T226 405V212H230Q257 323 310 416T439 509Q474 509 490 489ZM445 717T445 681Q445 648 424 626T368 604Q347 604 333 613T305 637Q295 647 288 652T272
657Q254 657 254 633Q254 620 261 609L228 596Q203 625 203 661Q203 694 223 716T279 738Q300 738 314 729T342 705Q352 695 359 690T375 685Q384 685 389 691T394 708Q394 721 386 732L420 745Q445 717 445 681Z" />
<glyph unicode="&#xf2;" glyph-name="ograve" horiz-adv-x="558" d="M300 488Q234 441 197 382T159 242Q159 198 176 153T226 79T305 49Q363 49 398 91T434 195Q434 242 410 290T344 372T256 410Q277 433 301 452T363 498Q435 474 477 409T520 266Q520 197 490
132T402 27T268 -14Q205 -14 153 15T69 96T38 210Q38 317 105 398T281 511L300 488ZM384 599L245 742L180 648L366 568L384 599Z" />
<glyph unicode="&#xf3;" glyph-name="oacute" horiz-adv-x="558" d="M300 488Q234 441 197 382T159 242Q159 198 176 153T226 79T305 49Q363 49 398 91T434 195Q434 242 410 290T344 372T256 410Q277 433 301 452T363 498Q435 474 477 409T520 266Q520 197 490
132T402 27T268 -14Q205 -14 153 15T69 96T38 210Q38 317 105 398T281 511L300 488ZM331 742L194 599L212 569L397 648L331 742Z" />
<glyph unicode="&#xf4;" glyph-name="ocircumflex" horiz-adv-x="558" d="M300 488Q234 441 197 382T159 242Q159 198 176 153T226 79T305 49Q363 49 398 91T434 195Q434 242 410 290T344 372T256 410Q277 433 301 452T363 498Q435 474 477 409T520 266Q520 197
490 132T402 27T268 -14Q205 -14 153 15T69 96T38 210Q38 317 105 398T281 511L300 488ZM424 635L368 565L254 656L185 574L151 600L278 751L424 635Z" />
<glyph unicode="&#xf5;" glyph-name="otilde" horiz-adv-x="558" d="M300 488Q234 441 197 382T159 242Q159 198 176 153T226 79T305 49Q363 49 398 91T434 195Q434 242 410 290T344 372T256 410Q277 433 301 452T363 498Q435 474 477 409T520 266Q520 197 490
132T402 27T268 -14Q205 -14 153 15T69 96T38 210Q38 317 105 398T281 511L300 488ZM409 717T409 681Q409 648 388 626T332 604Q311 604 297 613T269 637Q259 647 252 652T236 657Q218 657 218 633Q218 620 225 609L192 596Q167 625 167 661Q167 694 187 716T243
738Q264 738 278 729T306 705Q316 695 323 690T339 685Q348 685 353 691T358 708Q358 721 350 732L384 745Q409 717 409 681Z" />
<glyph unicode="&#xf6;" glyph-name="odieresis" horiz-adv-x="558" d="M300 488Q234 441 197 382T159 242Q159 198 176 153T226 79T305 49Q363 49 398 91T434 195Q434 242 410 290T344 372T256 410Q277 433 301 452T363 498Q435 474 477 409T520 266Q520 197
490 132T402 27T268 -14Q205 -14 153 15T69 96T38 210Q38 317 105 398T281 511L300 488ZM224 736T243 717T262 671Q262 644 243 626T198 607Q171 607 152 625T133 671Q133 697 152 716T198 736Q224 736 243 717ZM405 736T424 717T443 671Q443 644 424 626T377 607Q351
607 332 625T313 671Q313 697 332 716T377 736Q405 736 424 717Z" />
<glyph unicode="&#xf7;" glyph-name="divide" horiz-adv-x="465" d="M217 544T203 530T189 496Q189 476 203 464T236 451Q255 451 269 463T283 496Q283 515 269 529T236 544Q217 544 203 530ZM49 335H386L418 414H80L49 335ZM217 299T203 286T189 253Q189 234
203 221T236 207Q254 207 268 220T283 253Q283 271 269 285T236 299Q217 299 203 286Z" />
<glyph unicode="&#xf8;" glyph-name="oslash" horiz-adv-x="558" d="M435 474T477 409T520 266Q520 197 490 132T402 27T268 -14Q205 -14 153 15T69 96T38 210Q38 317 105 398T281 511L300 488Q234 441 197 382T159 242Q159 198 176 153T226 79T305 49Q363 49
398 91T434 195Q434 242 410 290T344 372T256 410Q277 433 301 452T363 498Q435 474 477 409Z" />
<glyph unicode="&#xf9;" glyph-name="ugrave" horiz-adv-x="609" d="M504 93Q504 78 511 69T531 59Q551 59 580 93L597 75Q572 24 535 9T479 -7Q442 -7 423 10T395 66T386 178V208L382 277H378Q354 170 307 79T182 -12Q148 -12 132 4T111 49T106 126V404Q106 421
99 430T80 440Q56 440 29 404L12 423Q29 460 55 479T100 503T126 508Q180 508 203 479T226 404V137Q226 119 230 109T242 99Q278 99 309 171T359 336T378 471L504 513V93ZM402 599L263 742L198 648L384 568L402 599Z" />
<glyph unicode="&#xfa;" glyph-name="uacute" horiz-adv-x="609" d="M504 93Q504 78 511 69T531 59Q551 59 580 93L597 75Q572 24 535 9T479 -7Q442 -7 423 10T395 66T386 178V208L382 277H378Q354 170 307 79T182 -12Q148 -12 132 4T111 49T106 126V404Q106 421
99 430T80 440Q56 440 29 404L12 423Q29 460 55 479T100 503T126 508Q180 508 203 479T226 404V137Q226 119 230 109T242 99Q278 99 309 171T359 336T378 471L504 513V93ZM349 742L212 599L230 569L415 648L349 742Z" />
<glyph unicode="&#xfb;" glyph-name="ucircumflex" horiz-adv-x="609" d="M504 93Q504 78 511 69T531 59Q551 59 580 93L597 75Q572 24 535 9T479 -7Q442 -7 423 10T395 66T386 178V208L382 277H378Q354 170 307 79T182 -12Q148 -12 132 4T111 49T106 126V404Q106
421 99 430T80 440Q56 440 29 404L12 423Q29 460 55 479T100 503T126 508Q180 508 203 479T226 404V137Q226 119 230 109T242 99Q278 99 309 171T359 336T378 471L504 513V93ZM442 635L386 565L272 656L203 574L169 600L296 751L442 635Z" />
<glyph unicode="&#xfc;" glyph-name="udieresis" horiz-adv-x="609" d="M504 93Q504 78 511 69T531 59Q551 59 580 93L597 75Q572 24 535 9T479 -7Q442 -7 423 10T395 66T386 178V208L382 277H378Q354 170 307 79T182 -12Q148 -12 132 4T111 49T106 126V404Q106
421 99 430T80 440Q56 440 29 404L12 423Q29 460 55 479T100 503T126 508Q180 508 203 479T226 404V137Q226 119 230 109T242 99Q278 99 309 171T359 336T378 471L504 513V93ZM242 736T261 717T280 671Q280 644 261 626T216 607Q189 607 170 625T151 671Q151 697
170 716T216 736Q242 736 261 717ZM423 736T442 717T461 671Q461 644 442 626T395 607Q369 607 350 625T331 671Q331 697 350 716T395 736Q423 736 442 717Z" />
<glyph unicode="&#xfd;" glyph-name="yacute" horiz-adv-x="580" d="M504 55Q504 -35 462 -117T351 -248T207 -298Q180 -298 156 -290T106 -264L180 -171Q203 -193 231 -205T281 -218Q329 -218 357 -149T385 42Q385 219 389 303H383Q313 -12 182 -12Q152 -12 136
0T113 41T106 126V404Q106 421 99 430T80 440Q68 440 55 431T29 404L11 423Q34 470 60 489T129 509Q175 509 200 482T225 404V136Q225 119 230 110T243 101Q267 101 299 164T355 315T379 471L504 513V55ZM348 742L211 599L229 569L414 648L348 742Z" />
<glyph unicode="&#xfe;" glyph-name="thorn" horiz-adv-x="567" d="M390 508T432 478T499 396T524 283Q524 196 497 130T417 26T291 -11Q239 -11 197 21V-277L78 -319V804Q78 819 72 828T52 837Q37 837 24 827T2 801L-16 822Q-1 856 31 881T101 906Q197 906 197
804V395H201Q216 443 253 475T338 508Q390 508 432 478ZM365 52T391 107T418 249Q418 298 402 340T357 406T294 431Q197 431 197 219V33L250 84Q275 52 323 52Q365 52 391 107Z" />
<glyph unicode="&#xff;" glyph-name="ydieresis" horiz-adv-x="580" d="M504 55Q504 -35 462 -117T351 -248T207 -298Q180 -298 156 -290T106 -264L180 -171Q203 -193 231 -205T281 -218Q329 -218 357 -149T385 42Q385 219 389 303H383Q313 -12 182 -12Q152 -12
136 0T113 41T106 126V404Q106 421 99 430T80 440Q68 440 55 431T29 404L11 423Q34 470 60 489T129 509Q175 509 200 482T225 404V136Q225 119 230 110T243 101Q267 101 299 164T355 315T379 471L504 513V55ZM241 736T260 717T279 671Q279 644 260 626T215 607Q188
607 169 625T150 671Q150 697 169 716T215 736Q241 736 260 717ZM422 736T441 717T460 671Q460 644 441 626T394 607Q368 607 349 625T330 671Q330 697 349 716T394 736Q422 736 441 717Z" />
<glyph unicode="&#x2013;" glyph-name="endash" horiz-adv-x="513" d="M50 326H456V423H50V326Z" />
<glyph unicode="&#x2014;" glyph-name="emdash" horiz-adv-x="919" d="M50 326H862V423H50V326Z" />
<glyph unicode="&#x2018;" glyph-name="quoteleft" horiz-adv-x="258" d="M196 604T182 622T145 646Q147 660 156 675T178 702L156 721Q114 694 88 659T62 581Q62 553 81 533T129 513Q157 513 176 533T196 581Q196 604 182 622Z" />
<glyph unicode="&#x2019;" glyph-name="quoteright" horiz-adv-x="258" d="M196 680T177 700T129 721Q101 721 82 701T62 652Q62 629 76 611T114 586Q111 572 102 557T81 531L102 513Q144 539 170 574T196 652Q196 680 177 700Z" />
<glyph unicode="&#x201a;" glyph-name="quotesinglbase" horiz-adv-x="218" d="M137 121T157 101T178 53Q178 10 151 -25T83 -85L62 -67Q73 -58 82 -43T93 -12Q71 -7 56 11T41 53Q41 80 61 100T109 121Q137 121 157 101Z" />
<glyph unicode="&#x201c;" glyph-name="quotedblleft" horiz-adv-x="434" d="M196 604T182 622T145 646Q147 660 156 676T178 702L156 721Q114 694 88 659T62 581Q62 553 81 533T128 513Q156 513 176 533T196 581Q196 604 182 622ZM372 604T358 622T321 646Q324
661 333 676T354 702L332 721Q290 694 264 659T238 581Q238 553 257 533T305 513Q333 513 352 533T372 581Q372 604 358 622Z" />
<glyph unicode="&#x201d;" glyph-name="quotedblright" horiz-adv-x="432" d="M196 680T177 700T129 721Q101 721 82 701T62 652Q62 629 76 611T114 586Q111 572 102 557T81 531L102 513Q144 539 170 574T196 652Q196 680 177 700ZM370 680T350 700T303 721Q275
721 256 701T236 652Q236 629 250 611T287 586Q284 573 275 557T254 531L276 513Q318 539 344 574T370 652Q370 680 350 700Z" />
<glyph unicode="&#x201e;" glyph-name="quotedblbase" horiz-adv-x="392" d="M137 121T157 101T178 53Q178 10 151 -25T83 -85L62 -67Q73 -58 82 -43T93 -12Q71 -7 56 11T41 53Q41 80 61 100T109 121Q137 121 157 101ZM310 121T330 101T351 53Q351 10 324 -25T256
-85L234 -67Q245 -57 255 -42T267 -12Q245 -7 230 12T215 53Q215 80 235 100T282 121Q310 121 330 101Z" />
<glyph unicode="&#x2022;" glyph-name="bullet" horiz-adv-x="301" d="M266 423T232 457T150 492Q102 492 69 458T35 375Q35 328 68 295T150 261Q198 261 232 294T266 375Q266 423 232 457Z" />
<glyph unicode="&#x2039;" glyph-name="guilsinglleft" horiz-adv-x="267" d="M218 303L189 327L24 189L189 51L218 81L146 189L218 303Z" />
<glyph unicode="&#x203a;" glyph-name="guilsinglright" horiz-adv-x="267" d="M242 189L76 51L48 78L120 189L48 299L76 327L242 189Z" />
</font>
</defs>
</svg>
