<?xml version="1.0" standalone="no"?>
<!DOCTYPE svg PUBLIC "-//W3C//DTD SVG 1.1//EN" "http://www.w3.org/Graphics/SVG/1.1/DTD/svg11.dtd">
<svg xmlns="http://www.w3.org/2000/svg">
<defs >
<font id="Archivo" horiz-adv-x="596" ><font-face
    font-family="Archivo SemiBold"
    units-per-em="1000"
    panose-1="2 11 6 3 2 2 2 9 11 4"
    ascent="878"
    descent="-210"
    alphabetic="0" />
<glyph unicode=" " glyph-name="space" horiz-adv-x="278" />
<glyph unicode="!" glyph-name="exclam" horiz-adv-x="314" d="M149 686H288L167 188H92L149 686ZM58 127H183L160 0H36L58 127Z" />
<glyph unicode="&quot;" glyph-name="quotedbl" horiz-adv-x="433" d="M87 539L113 686H245L219 539L173 407H87V539ZM286 539L312 686H444L418 539L373 407H286V539Z" />
<glyph unicode="#" glyph-name="numbersign" horiz-adv-x="556" d="M78 169H9V265H98L126 400H55V496H147L190 698H284L241 496H373L416 698H510L467 496H544V400H447L419 265H498V169H399L362 -12H267L304 169H173L135 -12H41L78 169ZM324 265L352 400H221L193 265H324Z" />
<glyph unicode="$" glyph-name="dollar" horiz-adv-x="556" d="M206 68Q117 75 72 111T26 204Q26 226 33 245H150Q146 237 146 226Q146 198 167 183T222 163L247 301Q194 315 160 329T102 370T78 440Q78 521 141 568T303 617L322 723H373L354 615Q430 607 474
575T519 495Q519 482 517 470T512 452H395Q397 457 397 467Q397 488 382 502T337 520L315 399Q370 385 405 371T466 329T492 256Q492 160 425 114T256 67L236 -49H185L206 68ZM286 521Q245 517 224 501T203 464Q203 445 219 433T267 412L286 521ZM314 166T340 182T367
227Q367 249 348 263T295 288L273 162Q314 166 340 182Z" />
<glyph unicode="%" glyph-name="percent" horiz-adv-x="889" d="M150 337T112 367T73 464Q73 492 79 525Q94 614 138 656T259 698Q333 698 370 668T408 569Q408 541 404 514Q389 423 345 380T224 337Q150 337 112 367ZM708 686H806L182 0H85L708 686ZM260 410T279
435T307 508Q313 538 313 561Q313 593 300 609T258 625Q222 625 203 600T175 529Q169 498 169 474Q169 442 181 426T223 410Q260 410 279 435ZM554 -12T516 17T478 115Q478 140 485 180Q500 268 544 308T663 349Q738 349 775 319T813 220Q813 184 807 158Q791 70
748 29T629 -12Q554 -12 516 17ZM665 61T684 86T712 159Q718 189 718 212Q718 244 705 260T663 276Q626 276 607 251T579 178Q574 147 574 125Q574 93 586 77T628 61Q665 61 684 86Z" />
<glyph unicode="&amp;" glyph-name="ampersand" horiz-adv-x="703" d="M161 -12T92 32T23 156Q23 235 70 286T190 352L191 356Q146 377 122 407T98 484Q98 551 135 599T238 673T384 698Q495 698 562 655T629 540Q629 524 622 485H502Q505 508 505 520Q505 599
384 599Q310 599 264 568T218 478Q218 440 248 419T323 397H389L372 299H309Q242 299 196 272T150 175Q150 87 277 87Q354 87 397 115T451 198L486 397H697L681 299H589L571 201Q553 100 479 44T281 -12Q161 -12 92 32Z" />
<glyph unicode="&apos;" glyph-name="quotesingle" horiz-adv-x="222" d="M87 539L113 686H245L219 539L173 407H87V539Z" />
<glyph unicode="(" glyph-name="parenleft" horiz-adv-x="333" d="M95 -85T69 1T43 180Q43 333 110 478T300 736H381Q279 610 218 460T156 165Q156 79 174 -5T224 -157H146Q95 -85 69 1Z" />
<glyph unicode=")" glyph-name="parenright" horiz-adv-x="333" d="M32 -30T93 121T155 416Q155 502 137 585T87 736H165Q216 664 242 578T268 399Q268 247 200 102T11 -157H-69Q32 -30 93 121Z" />
<glyph unicode="*" glyph-name="asterisk" horiz-adv-x="389" d="M198 481L89 407L60 478L181 524L77 571L130 641L213 567L217 686H300L262 568L371 641L400 571L280 524L383 478L330 407L247 481L243 362H160L198 481Z" />
<glyph unicode="+" glyph-name="plus" horiz-adv-x="584" d="M229 206H43L61 304H247L283 511H383L347 304H533L515 206H329L292 0H192L229 206Z" />
<glyph unicode="," glyph-name="comma" horiz-adv-x="278" d="M71 0H22L45 127H169L149 11L61 -148H-4L71 0Z" />
<glyph unicode="-" glyph-name="hyphen" horiz-adv-x="333" d="M44 326H295L276 214H25L44 326Z" />
<glyph unicode="." glyph-name="period" horiz-adv-x="278" d="M45 127H169L146 0H22L45 127Z" />
<glyph unicode="/" glyph-name="slash" horiz-adv-x="278" d="M260 735H346L18 -49H-68L260 735Z" />
<glyph unicode="0" glyph-name="zero" horiz-adv-x="556" d="M134 -12T82 34T29 195Q29 256 44 343Q66 479 105 556T199 666T328 698Q430 698 482 651T535 489Q535 429 520 343Q497 208 458 130T364 20T236 -12Q134 -12 82 34ZM281 86T310 111T358 186T392 320Q414
444 414 492Q414 547 395 573T330 600Q283 600 253 575T205 500T172 366Q149 242 149 194Q149 139 168 113T233 86Q281 86 310 111Z" />
<glyph unicode="1" glyph-name="one" horiz-adv-x="556" d="M45 98H212L289 534H121L134 608Q181 613 251 635T377 686H435L332 98H485L467 0H28L45 98Z" />
<glyph unicode="2" glyph-name="two" horiz-adv-x="556" d="M-10 34Q-1 89 33 135T113 217T228 300Q295 345 333 375T398 444T424 526Q424 556 402 577T334 598Q276 598 244 571T200 491L192 450H73Q82 579 157 638T341 698Q451 698 499 650T547 529Q547 457 510
399T422 301T292 210Q221 164 195 142Q173 123 163 109H479L460 0H-16L-10 34Z" />
<glyph unicode="3" glyph-name="three" horiz-adv-x="556" d="M127 -12T68 32T9 153Q9 181 15 209H136Q131 180 131 166Q131 127 158 107T235 86Q296 86 336 119T376 219Q376 300 265 300H207L224 398H285Q338 398 377 431T416 526Q416 563 392 581T327 600Q275
600 242 573T202 501L200 485H78L82 506Q90 564 125 607T213 674T330 698Q428 698 485 656T542 537Q542 412 401 356L400 352Q446 336 472 301T499 211Q499 144 465 94T371 16T240 -12Q127 -12 68 32Z" />
<glyph unicode="4" glyph-name="four" horiz-adv-x="556" d="M293 154H-9L7 253Q154 441 262 698H396Q362 616 308 524T201 358T119 252H309L339 423Q386 492 433 596H490L429 252H515L498 154H413L385 0H265L293 154Z" />
<glyph unicode="5" glyph-name="five" horiz-adv-x="556" d="M130 -12T71 35T11 166Q11 190 15 213H139Q136 197 136 182Q136 137 161 112T231 86Q269 86 302 104T356 161T377 256Q377 302 353 326T287 350Q217 350 165 291L55 306L149 686H544L525 577H235L193
406Q252 446 326 446Q407 446 454 402T502 269Q502 183 467 120T371 22T235 -12Q130 -12 71 35Z" />
<glyph unicode="6" glyph-name="six" horiz-adv-x="556" d="M138 -12T82 38T25 203Q25 256 37 326Q60 464 101 546T199 663T334 698Q433 698 481 655T530 537Q530 514 525 484H405Q408 505 408 521Q408 600 330 600Q281 600 251 574T202 502T170 380Q239 440 321
440Q414 440 460 393T506 262Q506 181 471 119T377 22T247 -12Q138 -12 82 38ZM305 86T342 133T380 248Q380 293 358 318T288 344Q224 344 185 299T146 184Q146 139 170 113T241 86Q305 86 342 133Z" />
<glyph unicode="7" glyph-name="seven" horiz-adv-x="556" d="M104 156T197 306T414 577H79L98 686H589L575 608Q445 478 351 340T227 50L219 0H76Q104 156 197 306Z" />
<glyph unicode="8" glyph-name="eight" horiz-adv-x="556" d="M117 -12T61 32T5 150Q5 220 41 272T148 352Q114 372 97 404T79 476Q79 535 110 586T197 667T328 698Q430 698 483 653T536 534Q536 476 504 428T412 352Q498 312 498 217Q498 154 468 102T379 19T233
-12Q117 -12 61 32ZM342 399T377 432T413 524Q413 561 390 581T324 601Q269 601 235 567T200 475Q200 438 222 419T288 399Q342 399 377 432ZM292 85T333 120T374 218Q374 259 348 280T271 302Q208 302 170 266T131 168Q131 129 157 107T233 85Q292 85 333 120Z"
/>
<glyph unicode="9" glyph-name="nine" horiz-adv-x="556" d="M125 -12T77 31T28 149Q28 172 33 202H154Q150 174 150 165Q150 86 228 86Q277 86 307 112T356 184T388 306Q319 246 237 246Q144 246 98 293T52 424Q52 505 87 567T181 664T311 698Q420 698 476 648T533
483Q533 431 521 360Q499 222 458 140T360 23T224 -12Q125 -12 77 31ZM334 342T373 387T412 502Q412 547 388 573T317 600Q254 600 217 553T179 438Q179 393 201 368T270 342Q334 342 373 387Z" />
<glyph unicode=":" glyph-name="colon" horiz-adv-x="314" d="M131 526H256L234 399H109L131 526ZM60 127H185L163 0H38L60 127Z" />
<glyph unicode=";" glyph-name="semicolon" horiz-adv-x="314" d="M131 526H256L233 399H108L131 526ZM87 0H37L60 127H185L165 11L76 -148H11L87 0Z" />
<glyph unicode="&lt;" glyph-name="less" horiz-adv-x="584" d="M39 199L61 319L569 516L550 404L144 256L497 107L479 3L39 199Z" />
<glyph unicode="=" glyph-name="equal" horiz-adv-x="584" d="M78 409H550L533 311H61L78 409ZM41 196H513L496 99H24L41 196Z" />
<glyph unicode="&gt;" glyph-name="greater" horiz-adv-x="584" d="M26 115L433 263L79 411L98 516L537 319L516 199L7 3L26 115Z" />
<glyph unicode="?" glyph-name="question" horiz-adv-x="592" d="M209 239Q216 281 235 312T278 364T338 411Q383 444 403 466T423 524Q423 592 333 592Q283 592 252 570T208 517T195 459H73Q74 529 108 583T203 667T342 698Q444 698 500 657T556 538Q556 487
537 450T490 389T418 334Q370 300 347 278T319 224L313 191H201L209 239ZM187 127H312L290 0H165L187 127Z" />
<glyph unicode="@" glyph-name="at" horiz-adv-x="989" d="M679 698T767 660T901 550T947 379Q947 293 917 211T823 76T660 22Q619 22 590 38T560 90V100H555Q531 62 492 42T410 21Q338 21 297 68T255 205Q255 284 280 356T356 475T475 521Q524 521 556 505T608
455H614L641 510H733L684 240Q665 140 665 136Q665 123 673 117T702 111Q752 111 789 149T847 248T868 379Q868 495 786 561T552 628Q345 628 232 524T118 212Q118 73 191 -5T439 -83Q486 -83 526 -79T591 -71T621 -65L610 -139Q518 -153 439 -153Q224 -153 131
-58T37 205Q37 455 170 576T552 698Q679 698 767 660ZM496 116T527 153T573 240T587 331Q587 429 504 429Q456 429 426 396T383 312T369 211Q369 164 388 140T449 116Q496 116 527 153Z" />
<glyph unicode="A" glyph-name="A" horiz-adv-x="703" d="M338 686H499L646 0H514L484 149H168L86 0H-49L338 686ZM463 257L428 436Q421 470 409 549Q406 561 406 567T404 576H399Q397 572 386 551Q345 472 326 437L228 257H463Z" />
<glyph unicode="B" glyph-name="B" horiz-adv-x="703" d="M133 686H454Q555 686 612 647T669 530Q669 468 628 421T526 360V356Q573 341 602 303T631 208Q631 139 597 92T507 23T384 0H12L133 686ZM421 405Q475 405 505 433T535 504Q535 541 513 559T453 577H242L212
405H421ZM380 109Q433 109 467 135T501 215Q501 255 477 276T405 298H193L160 109H380Z" />
<glyph unicode="C" glyph-name="C" horiz-adv-x="722" d="M35 -12T35 254Q35 368 72 464T183 620Q230 658 292 678T426 698Q551 698 626 645T701 489Q701 466 696 433H565Q568 451 568 468Q568 528 530 559T425 590Q325 590 263 531T179 366Q166 302 166 259Q166
176 205 136T326 96Q410 96 467 136T538 251H664Q642 122 549 55T325 -12Q35 -12 35 254Z" />
<glyph unicode="D" glyph-name="D" horiz-adv-x="722" d="M133 686H393Q536 686 612 619T689 415Q689 322 661 243T579 106Q529 55 460 28T306 0H12L133 686ZM299 109Q398 109 463 165T547 325Q557 381 557 412Q557 494 514 535T387 577H241L159 109H299Z" />
<glyph unicode="E" glyph-name="E" horiz-adv-x="667" d="M133 686H668L649 577H241L211 405H575L556 296H192L159 109H573L553 0H12L133 686Z" />
<glyph unicode="F" glyph-name="F" horiz-adv-x="611" d="M133 686H626L607 577H241L208 391H537L518 282H190L140 0H12L133 686Z" />
<glyph unicode="G" glyph-name="G" horiz-adv-x="778" d="M602 452Q604 460 604 475Q604 530 561 560T448 590Q338 590 269 532T179 367Q167 303 167 260Q167 176 208 136T333 96Q396 96 448 117T533 175T572 260V261H352L371 367H719L654 0H564V79Q512 33 455
11T323 -12Q183 -12 109 54T35 256Q35 360 67 448T163 596Q215 646 286 672T444 698Q574 698 656 647T738 497Q738 473 734 452H602Z" />
<glyph unicode="H" glyph-name="H" horiz-adv-x="722" d="M133 686H261L211 406H536L585 686H713L592 0H464L517 296H192L140 0H12L133 686Z" />
<glyph unicode="I" glyph-name="I" horiz-adv-x="278" d="M138 686H265L144 0H17L138 686Z" />
<glyph unicode="J" glyph-name="J" horiz-adv-x="537" d="M102 -12T49 27T-4 142Q-4 180 7 226H134Q124 189 124 166Q124 130 142 113T200 96Q248 96 277 121T315 195L402 686H531L444 195Q425 91 364 40T203 -12Q102 -12 49 27Z" />
<glyph unicode="K" glyph-name="K" horiz-adv-x="703" d="M133 686H261L200 344L582 686H750L436 407L634 0H491L338 321L173 189L140 0H12L133 686Z" />
<glyph unicode="L" glyph-name="L" horiz-adv-x="592" d="M133 686H261L159 111H529L509 0H12L133 686Z" />
<glyph unicode="M" glyph-name="M" horiz-adv-x="833" d="M133 686H322L371 277Q374 249 375 202T377 140H382Q387 156 404 204T433 277L626 686H824L703 0H575L654 443Q659 472 667 508T678 559H672Q655 515 639 482L414 0H292L239 482L237 508L233 559H228Q226
545 222 509T212 443L134 0H12L133 686Z" />
<glyph unicode="N" glyph-name="N" horiz-adv-x="722" d="M133 686H255L476 266Q484 251 491 235T503 209L508 210Q515 261 517 269L590 686H713L592 0H472L252 421Q242 439 234 458T223 481H218L214 457L208 418L135 0H12L133 686Z" />
<glyph unicode="O" glyph-name="O" horiz-adv-x="778" d="M195 -12T115 56T35 257Q35 306 42 348Q68 514 170 606T436 698Q583 698 664 630T745 431Q745 393 738 342Q713 175 610 82T342 -11Q195 -12 115 56ZM450 97T516 158T603 336Q613 390 613 424Q613 503
568 546T437 590Q328 590 262 529T176 351Q166 290 166 264Q166 184 211 141T341 97Q450 97 516 158Z" />
<glyph unicode="P" glyph-name="P" horiz-adv-x="667" d="M133 686H420Q653 686 653 499Q653 421 620 364T525 276T382 245H183L140 0H12L133 686ZM381 354Q444 354 483 388T522 485Q522 577 420 577H241L202 354H381Z" />
<glyph unicode="Q" glyph-name="Q" horiz-adv-x="778" d="M368 -10Q356 -12 343 -12Q195 -12 115 54T35 254Q35 364 71 456T177 607Q226 651 291 674T435 698Q584 698 664 631T745 431Q745 284 680 173T499 16L626 -130H470L368 -10ZM440 96T508 153T599 315Q613
381 613 421Q613 505 570 547T442 590Q338 590 270 531T179 366Q167 303 167 265Q167 181 210 139T336 96Q440 96 508 153Z" />
<glyph unicode="R" glyph-name="R" horiz-adv-x="722" d="M133 686H459Q573 686 630 638T687 502Q687 420 643 363T527 283L623 0H487L403 265H187L140 0H12L133 686ZM429 373Q487 373 521 405T556 493Q556 533 531 555T458 577H241L205 373H429Z" />
<glyph unicode="S" glyph-name="S" horiz-adv-x="667" d="M176 -12T97 32T17 163Q17 190 25 220H154Q148 196 148 184Q148 142 186 119T292 96Q379 96 422 122T466 195Q466 223 446 242T394 273T310 301Q239 322 195 341T120 395T89 487Q89 556 127 603T230 674T373
698Q491 698 563 658T635 537Q635 516 630 487H504Q507 501 507 512Q507 549 473 569T380 590Q307 590 264 568T221 505Q221 470 257 451T370 409Q443 388 488 369T567 313T600 219Q600 139 558 87T449 12T303 -12Q176 -12 97 32Z" />
<glyph unicode="T" glyph-name="T" horiz-adv-x="611" d="M285 576H64L84 686H652L633 576H412L311 0H183L285 576Z" />
<glyph unicode="U" glyph-name="U" horiz-adv-x="722" d="M194 -12T125 42T56 199Q56 229 62 262L136 686H264L189 260Q184 235 184 217Q184 158 219 127T322 96Q399 96 448 137T512 257L588 686H716L640 254Q592 -12 322 -12Q194 -12 125 42Z" />
<glyph unicode="V" glyph-name="V" horiz-adv-x="667" d="M73 686H204L278 265Q282 245 285 223T292 181L298 143H303L319 175Q328 193 340 217T364 263L586 686H723L351 0H202L73 686Z" />
<glyph unicode="W" glyph-name="W" horiz-adv-x="944" d="M68 686H190L227 242Q229 225 230 190T231 143H236Q240 155 251 191T269 242L450 686H612L638 242Q640 214 640 184T640 143H645Q649 154 661 188T681 242L871 686H1000L692 0H540L512 452Q510 484 510
513T509 554H505Q502 543 491 508T471 452L281 0H129L68 686Z" />
<glyph unicode="X" glyph-name="X" horiz-adv-x="667" d="M261 364L84 686H229L347 462H352L545 686H701L410 355L604 0H459L325 255H319L98 0H-58L261 364Z" />
<glyph unicode="Y" glyph-name="Y" horiz-adv-x="667" d="M260 279L67 686H200L339 393H344L581 686H723L388 279L339 0H211L260 279Z" />
<glyph unicode="Z" glyph-name="Z" horiz-adv-x="611" d="M-27 61L423 577H89L108 686H641L630 624L180 109H549L529 0H-38L-27 61Z" />
<glyph unicode="[" glyph-name="bracketleft" horiz-adv-x="314" d="M142 735H348L334 650H231L102 -76H205L191 -161H-14L142 735Z" />
<glyph unicode="\" glyph-name="backslash" horiz-adv-x="278" d="M73 735H159L210 -49H122L73 735Z" />
<glyph unicode="]" glyph-name="bracketright" horiz-adv-x="314" d="M-40 -76H62L191 650H88L102 735H308L151 -161H-54L-40 -76Z" />
<glyph unicode="^" glyph-name="asciicircum" horiz-adv-x="469" d="M243 686H350L438 294H338L281 580L124 294H19L243 686Z" />
<glyph unicode="_" glyph-name="underscore" horiz-adv-x="556" d="M-61 -65H495L481 -148H-74L-61 -65Z" />
<glyph unicode="`" glyph-name="grave" horiz-adv-x="333" d="M86 720L87 723H204L262 591H171L86 720Z" />
<glyph unicode="a" glyph-name="a" horiz-adv-x="579" d="M469 86T498 86H531L516 4Q486 -12 440 -12Q401 -12 378 11T354 74H349Q322 33 279 11T188 -12Q109 -12 64 40T18 190Q18 277 46 357T128 487T259 538Q313 538 348 520T406 465H412L443 526H542Q529 453
519 395T500 290Q469 123 469 113Q469 86 498 86ZM283 91T317 130T366 224T382 329Q382 438 290 438Q238 438 205 401T158 309T143 197Q143 144 164 118T230 91Q283 91 317 130Z" />
<glyph unicode="b" glyph-name="b" horiz-adv-x="592" d="M242 -12T201 8T141 70H134L112 0H13L140 723H260L215 465H221Q278 538 376 538Q458 538 505 488T552 337Q552 249 524 169T439 39T298 -12Q242 -12 201 8ZM326 88T361 125T412 217T428 330Q428 384 405
409T331 435Q277 435 242 398T190 307T173 201Q173 88 270 88Q326 88 361 125Z" />
<glyph unicode="c" glyph-name="c" horiz-adv-x="537" d="M129 -12T74 37T18 189Q18 282 46 361T137 489T294 538Q396 538 451 495T506 373Q506 352 503 329H381Q383 347 383 356Q383 441 297 441Q181 441 150 276Q142 229 142 197Q142 140 166 113T241 85Q293
85 324 115T364 197H480Q464 97 404 43T243 -12Q129 -12 74 37Z" />
<glyph unicode="d" glyph-name="d" horiz-adv-x="592" d="M115 -12T67 39T19 196Q19 281 47 360T132 488T266 538Q323 538 360 520T422 465H428L473 723H593L466 0H369V70H363Q333 31 292 10T205 -12Q115 -12 67 39ZM295 91T330 126T382 215T399 329Q399 438 299
438Q217 438 181 366T144 200Q144 144 167 118T241 91Q295 91 330 126Z" />
<glyph unicode="e" glyph-name="e" horiz-adv-x="556" d="M135 -12T77 37T18 190Q18 284 47 363T140 490T302 538Q516 538 516 347Q516 307 508 270L502 234H143Q140 218 140 191Q140 136 166 110T250 83Q301 83 333 108T375 184H493Q478 87 414 38T254 -12Q135
-12 77 37ZM393 319Q396 337 396 354Q396 400 372 421T305 443Q194 443 160 319H393Z" />
<glyph unicode="f" glyph-name="f" horiz-adv-x="314" d="M-34 -182T-59 -178T-99 -167L-84 -84H-33Q11 -84 19 -39L101 428H25L43 526H119L130 594Q141 654 176 692T280 731Q303 731 327 727T368 716L353 633H302Q258 633 250 588L239 526H335L317 428H221L138
-45Q128 -105 93 -143T-12 -182Q-34 -182 -59 -178Z" />
<glyph unicode="g" glyph-name="g" horiz-adv-x="592" d="M111 -182T55 -145T-2 -35V-25H115Q118 -56 141 -70T210 -84Q329 -84 356 59L361 87H355Q296 15 199 15Q119 15 71 63T22 207Q22 293 51 369T137 491T274 538Q329 538 369 518T430 456H437L459 526H558L476
63Q454 -61 389 -121T207 -182Q111 -182 55 -145ZM297 118T332 150T383 232T400 334Q400 435 303 435Q221 435 184 369T146 213Q146 164 169 141T243 118Q297 118 332 150Z" />
<glyph unicode="h" glyph-name="h" horiz-adv-x="592" d="M143 723H263L218 466H224Q254 498 297 518T386 538Q455 538 496 506T538 404Q538 377 529 325L471 0H351L407 318Q413 354 413 367Q413 403 395 418T342 434Q285 434 242 394T186 283L136 0H16L143 723Z" />
<glyph unicode="i" glyph-name="i" horiz-adv-x="259" d="M140 723H260L240 608H120L140 723ZM106 526H226L133 0H13L106 526Z" />
<glyph unicode="j" glyph-name="j" horiz-adv-x="259" d="M140 723H260L240 608H120L140 723ZM-42 -182T-68 -178T-109 -167L-95 -85H-46Q-2 -85 6 -40L106 526H226L125 -48Q101 -182 -20 -182Q-42 -182 -68 -178Z" />
<glyph unicode="k" glyph-name="k" horiz-adv-x="537" d="M140 723H260L186 300L417 526H558L346 319L475 0H345L260 235L161 157L133 0H13L140 723Z" />
<glyph unicode="l" glyph-name="l" horiz-adv-x="259" d="M140 723H260L133 0H13L140 723Z" />
<glyph unicode="m" glyph-name="m" horiz-adv-x="870" d="M109 526H206V455H213Q282 538 374 538Q424 538 457 518T503 455H510Q543 493 586 515T677 538Q817 538 817 406Q817 378 809 336L749 0H629L686 324Q692 358 692 369Q692 434 626 434Q579 434 542 394T494
291L443 0H323L380 324Q385 352 385 369Q385 434 320 434Q273 434 236 394T187 291L136 0H16L109 526Z" />
<glyph unicode="n" glyph-name="n" horiz-adv-x="592" d="M109 526H206V455H213Q243 491 289 514T386 538Q455 538 496 506T538 404Q538 377 529 325L471 0H351L407 318Q413 354 413 367Q413 403 395 418T342 434Q285 434 242 394T186 283L136 0H16L109 526Z" />
<glyph unicode="o" glyph-name="o" horiz-adv-x="592" d="M186 -12T134 15T53 90T23 203Q23 247 30 285Q50 409 120 473T315 538Q383 538 435 512T516 436T546 324Q546 283 540 241Q498 -12 253 -12Q186 -12 134 15ZM333 87T372 129T424 262Q429 291 429 326Q428
380 396 410T306 440Q235 440 196 398T145 264Q141 233 141 200Q142 147 173 117T261 87Q333 87 372 129Z" />
<glyph unicode="p" glyph-name="p" horiz-adv-x="592" d="M103 526H200V456H207Q237 495 278 516T365 538Q455 538 503 487T551 330Q551 245 522 166T437 38T303 -12Q247 -12 209 6T147 61H141L100 -173H-20L103 526ZM352 88T389 160T426 326Q426 382 403 408T329
435Q275 435 240 400T188 311T171 197Q171 88 270 88Q352 88 389 160Z" />
<glyph unicode="q" glyph-name="q" horiz-adv-x="592" d="M356 61H350Q293 -12 195 -12Q113 -12 66 38T19 189Q19 277 47 357T132 487T273 538Q329 538 370 518T430 456H437L459 526H558L435 -173H315L356 61ZM294 91T329 128T381 219T398 325Q398 438 301 438Q245
438 210 401T159 309T143 196Q143 142 166 117T240 91Q294 91 329 128Z" />
<glyph unicode="r" glyph-name="r" horiz-adv-x="370" d="M109 526H206L204 443H211Q235 487 265 512T342 538Q362 538 378 534T394 529L375 416H337Q209 416 183 270L136 0H16L109 526Z" />
<glyph unicode="s" glyph-name="s" horiz-adv-x="537" d="M120 -12T63 25T6 125Q6 139 9 151T13 166H130Q126 157 126 147Q126 113 155 98T229 82Q277 82 312 98T347 148Q347 177 319 191T230 222Q176 236 142 250T83 291T58 361Q58 444 124 491T292 538Q386 538
442 505T499 416Q499 403 497 391T492 373H375Q377 379 377 388Q377 414 355 428T290 443Q238 443 211 426T183 385Q183 360 208 348T292 321Q348 307 384 294T446 252T472 177Q472 80 403 34T228 -12Q120 -12 63 25Z" />
<glyph unicode="t" glyph-name="t" horiz-adv-x="314" d="M91 -12T64 15T37 86Q37 105 49 168L94 428H31L48 526H111L137 673H265L231 526H322L304 428H214L165 148Q160 128 160 117Q160 86 196 86H244L230 4Q214 -2 192 -7T152 -12Q91 -12 64 15Z" />
<glyph unicode="u" glyph-name="u" horiz-adv-x="592" d="M119 -12T77 20T35 122Q35 144 39 170T45 201L103 526H223L167 208Q161 172 161 159Q161 123 179 108T232 92Q289 92 332 132T388 243L438 526H558L465 0H368V71H361Q331 35 285 12T188 -12Q119 -12 77 20Z" />
<glyph unicode="v" glyph-name="v" horiz-adv-x="537" d="M48 526H169L212 287Q218 258 225 202T234 127H239Q246 145 269 199T310 287L437 526H563L275 0H150L48 526Z" />
<glyph unicode="w" glyph-name="w" horiz-adv-x="759" d="M43 526H162L184 282Q187 245 189 201T192 140H196Q202 157 218 200T249 281L351 526H481L500 280Q503 241 504 199T507 140H512Q517 155 535 202T566 280L673 526H793L543 0H417L399 273Q397 300 397
337T396 386H391Q387 375 374 338T349 274L234 0H107L43 526Z" />
<glyph unicode="x" glyph-name="x" horiz-adv-x="537" d="M190 273L54 526H187L270 360H276L415 526H554L326 269L471 0H337L247 180H241L88 0H-51L190 273Z" />
<glyph unicode="y" glyph-name="y" horiz-adv-x="537" d="M12 -182T-9 -177T-32 -171L-17 -88H37Q76 -88 106 -68T160 0L48 526H167L221 273Q227 244 234 194T244 127H249Q255 142 275 191T313 273L438 526H563L304 27Q252 -72 194 -127T55 -182Q12 -182 -9 -177Z" />
<glyph unicode="z" glyph-name="z" horiz-adv-x="500" d="M-15 56L309 428H66L84 526H510L500 471L174 98H446L429 0H-25L-15 56Z" />
<glyph unicode="{" glyph-name="braceleft" horiz-adv-x="370" d="M151 -159T107 -136T63 -47Q63 -18 87 104Q102 181 102 193Q102 219 78 231T19 243L36 333Q73 333 102 347T137 393L172 587Q183 649 210 680T281 723T398 735L386 665Q347 665 317 651T279 600Q274
572 252 475L236 401Q224 344 196 319T103 293L102 283Q154 283 176 263T199 201Q199 179 180 54Q168 -34 168 -37Q168 -89 253 -89L241 -159Q151 -159 107 -136Z" />
<glyph unicode="|" glyph-name="bar" horiz-adv-x="273" d="M90 723H183V-173H90V723Z" />
<glyph unicode="}" glyph-name="braceright" horiz-adv-x="370" d="M-37 -89Q3 -89 33 -75T71 -24Q75 0 99 108L113 175Q122 214 135 236T175 271T246 283L248 293Q196 293 173 314T150 375Q150 397 169 522Q182 604 182 613Q182 665 97 665L108 735Q199 735 243
712T287 623Q287 594 263 472Q247 399 247 383Q247 357 271 345T330 333L314 243Q276 243 247 229T212 183L178 -11Q167 -72 140 -104T69 -147T-49 -159L-37 -89Z" />
<glyph unicode="~" glyph-name="asciitilde" horiz-adv-x="584" d="M43 313Q43 315 65 334T122 369T200 385Q225 385 247 378T300 355Q330 340 353 333T402 325Q440 325 475 341T534 376T559 397L540 288Q540 286 518 267T461 231T383 215Q358 215 336 222T283
245Q254 260 231 268T181 276Q143 276 108 260T49 225T24 203L43 313Z" />
<glyph unicode="&#xa0;" glyph-name="uni00A0" horiz-adv-x="278" />
<glyph unicode="&#xa1;" glyph-name="exclamdown" horiz-adv-x="333" d="M157 526H282L259 399H134L157 526ZM150 338H225L168 -160H29L150 338Z" />
<glyph unicode="&#xa2;" glyph-name="cent" horiz-adv-x="556" d="M212 70Q125 81 83 129T40 268Q40 359 68 437T156 565T309 617L328 723H379L360 614Q441 606 484 564T527 453Q527 432 524 408H403Q404 418 404 435Q404 507 342 518L280 165Q324 171 350 200T385
276H501Q485 177 425 123T263 67L242 -49H191L212 70ZM292 517Q197 501 171 351Q163 307 163 277Q163 229 179 202T230 167L292 517Z" />
<glyph unicode="&#xa3;" glyph-name="sterling" horiz-adv-x="556" d="M1 101H67L101 290H21L37 388H117L137 499Q173 698 368 698Q463 698 515 662T567 551Q567 521 561 491H442Q446 520 446 529Q446 564 426 582T369 600Q324 600 296 577T260 513L238 388H397L381
290H220L174 101H487L469 0H-16L1 101Z" />
<glyph unicode="&#xa4;" glyph-name="currency" horiz-adv-x="556" d="M29 144L83 200Q58 231 46 270T33 351Q33 394 45 433T83 501L28 555L76 603L133 547Q161 571 199 584T278 598Q318 598 356 585T423 547L480 603L528 555L473 501Q498 473 510 434T523 351Q523
309 511 270T473 200L527 144L482 99L427 157Q398 130 359 116T278 102Q236 102 197 116T129 157L74 99L29 144ZM322 181T359 204T419 267T441 351Q441 395 419 433T360 495T278 519Q234 519 197 496T137 434T115 351Q115 306 137 267T196 205T278 181Q322 181
359 204Z" />
<glyph unicode="&#xa5;" glyph-name="yen" horiz-adv-x="556" d="M186 151H-5L7 227H199L212 297H20L33 372H194L177 413L158 457L62 686H193L261 498Q271 474 278 449T289 416H294Q321 458 349 497L483 686H614L435 448L409 415Q380 378 376 372H534L521 297H332L319
227H508L495 151H306L280 0H160L186 151Z" />
<glyph unicode="&#xa6;" glyph-name="brokenbar" horiz-adv-x="273" d="M90 723H183V357H90V723ZM90 193H183V-173H90V193Z" />
<glyph unicode="&#xa7;" glyph-name="section" horiz-adv-x="556" d="M109 -182T53 -149T-3 -58Q-3 -49 -1 -36T4 -17H126L125 -33Q125 -88 210 -88Q265 -88 292 -65T320 -15Q320 14 293 34T206 81Q152 105 118 125T60 178T36 255Q36 304 66 344T150 415Q98 457
98 521Q98 605 165 651T340 698Q434 698 490 665T546 575Q546 564 544 552T539 533H417Q418 540 418 549Q418 574 397 588T334 602Q278 602 251 580T224 530Q224 500 251 480T337 433Q390 409 424 388T482 334T506 256Q506 208 476 168T393 101Q445 57 445 -1Q445
-87 378 -134T204 -182Q109 -182 53 -149ZM384 181T384 238Q384 267 367 287T323 322T252 357Q241 361 219 371Q159 336 159 278Q159 248 178 226T225 189T300 154L323 144Q384 181 384 238Z" />
<glyph unicode="&#xa8;" glyph-name="dieresis" horiz-adv-x="333" d="M21 723H128L109 613H2L21 723ZM223 723H331L311 613H203L223 723Z" />
<glyph unicode="&#xa9;" glyph-name="copyright" horiz-adv-x="737" d="M272 -12T191 36T61 165T13 343Q13 439 61 520T190 650T368 698Q464 698 545 650T675 521T723 343Q723 247 675 166T546 36T368 -12Q272 -12 191 36ZM449 45T517 85T624 193T664 343Q664
424 625 492T517 601T368 641Q287 641 219 601T112 493T72 343Q72 262 111 194T219 85T368 45Q449 45 517 85ZM276 132T233 183T190 342Q190 450 233 501T368 552Q451 552 489 511T527 389H453Q453 442 434 466T368 490Q314 490 290 456T265 342Q265 263 289 229T368
194Q415 194 436 219T457 295H527Q527 224 488 178T368 132Q276 132 233 183Z" />
<glyph unicode="&#xaa;" glyph-name="ordfeminine" horiz-adv-x="370" d="M341 451T359 451H380L371 399Q349 389 324 389Q298 389 283 403T267 444H264Q247 417 221 403T166 389Q117 389 88 421T59 516Q59 571 76 622T128 704T211 736Q275 736 300 690H304L324
728H388Q364 591 351 524L341 468Q341 451 359 451ZM224 457T245 482T276 542T286 604Q286 670 230 670Q184 670 162 624T139 520Q139 457 192 457Q224 457 245 482Z" />
<glyph unicode="&#xab;" glyph-name="guillemotleft" horiz-adv-x="556" d="M277 326L446 526H544L394 326L473 126H384L277 326ZM58 326L227 526H325L175 326L254 126H165L58 326Z" />
<glyph unicode="&#xac;" glyph-name="logicalnot" horiz-adv-x="584" d="M450 358H52L70 454H560L514 194H421L450 358Z" />
<glyph unicode="&#xad;" glyph-name="uni00AD" horiz-adv-x="333" d="M44 326H295L276 214H25L44 326Z" />
<glyph unicode="&#xae;" glyph-name="registered" horiz-adv-x="737" d="M272 -12T191 36T61 165T13 343Q13 439 61 520T190 650T368 698Q464 698 545 650T675 521T723 343Q723 247 675 166T546 36T368 -12Q272 -12 191 36ZM449 45T517 85T624 193T664 343Q664
424 625 492T517 601T368 641Q287 641 219 601T112 493T72 343Q72 262 111 194T219 85T368 45Q449 45 517 85ZM221 550H413Q475 550 508 516T541 425Q541 384 524 354T471 308L558 138H478L399 295H296V138H221V550ZM403 359Q431 359 448 376T465 425Q465 456 449
472T403 488H296V359H403Z" />
<glyph unicode="&#xaf;" glyph-name="overscore" horiz-adv-x="333" d="M18 699H323L308 617H3L18 699Z" />
<glyph unicode="&#xb0;" glyph-name="degree" horiz-adv-x="400" d="M168 401T134 420T80 474T60 549Q60 590 80 624T134 678T209 698Q250 698 284 678T337 624T357 549Q357 508 338 474T284 421T209 401Q168 401 134 420ZM240 473T262 495T284 549Q284 581 263
603T209 625Q177 625 155 603T132 549Q132 517 154 495T209 473Q240 473 262 495Z" />
<glyph unicode="&#xb1;" glyph-name="plusminus" horiz-adv-x="549" d="M227 348H42L60 445H245L282 652H382L345 445H532L514 348H328L292 141H192L227 348ZM-1 97H470L453 0H-19L-1 97Z" />
<glyph unicode="&#xb2;" glyph-name="uni00B2" horiz-adv-x="333" d="M37 356Q45 400 77 431T165 499Q213 530 235 551T257 599Q257 614 248 624T218 634Q166 634 158 586L154 566H80Q81 630 121 664T223 698Q282 698 308 672T334 606Q334 568 314 537T267 485T197
438Q156 413 142 399H300L288 331H33L37 356Z" />
<glyph unicode="&#xb3;" glyph-name="uni00B3" horiz-adv-x="333" d="M114 326T83 349T51 413Q51 431 54 446H130Q128 433 128 425Q128 390 174 390Q201 390 218 404T235 447Q235 483 186 483H155L166 547H193Q219 547 238 561T257 602Q257 619 246 627T217 635Q197
635 182 624T163 590L161 582H85L88 596Q95 642 132 670T218 698Q272 698 303 675T334 609Q334 576 317 555T266 519V516Q313 493 313 442Q313 390 273 358T174 326Q114 326 83 349Z" />
<glyph unicode="&#xb4;" glyph-name="acute" horiz-adv-x="333" d="M164 723H289L290 720L161 591H60L164 723Z" />
<glyph unicode="&#xb5;" glyph-name="uni00B5" horiz-adv-x="576" d="M99 526H219L163 208Q157 172 157 159Q157 123 175 108T228 92Q285 92 328 132T384 243L435 526H555L462 0H364V71H357Q327 35 281 12T185 -12Q150 -12 125 -1L95 -173H-25L99 526Z" />
<glyph unicode="&#xb6;" glyph-name="paragraph" horiz-adv-x="549" d="M222 253Q144 253 93 298T41 427Q41 506 75 565T169 655T308 686H594L583 625H522L382 -168H298L438 625H372L232 -168H148L222 253Z" />
<glyph unicode="&#xb7;" glyph-name="middot" horiz-adv-x="333" d="M123 421H247L224 294H100L123 421Z" />
<glyph unicode="&#xb8;" glyph-name="cedilla" horiz-adv-x="333" d="M77 -182T31 -174L40 -125H133Q156 -125 168 -119T180 -96Q180 -86 172 -82T143 -77H99L129 11H206L191 -34Q229 -36 252 -51T276 -97Q276 -144 233 -163T134 -182Q77 -182 31 -174Z" />
<glyph unicode="&#xb9;" glyph-name="uni00B9" horiz-adv-x="333" d="M62 398H146L181 597H97L107 646Q133 649 170 660T235 686H273L222 398H299L287 329H50L62 398Z" />
<glyph unicode="&#xba;" glyph-name="ordmasculine" horiz-adv-x="365" d="M135 389T97 420T59 516Q59 608 102 672T239 736Q316 736 354 705T393 608Q393 516 349 453T211 389Q135 389 97 420ZM292 454T307 559Q312 583 312 603Q312 672 242 672Q162 672 144
568Q139 543 139 522Q139 487 156 471T208 454Q292 454 307 559Z" />
<glyph unicode="&#xbb;" glyph-name="guillemotright" horiz-adv-x="556" d="M371 326L291 526H380L488 326L318 126H220L371 326ZM160 326L80 526H169L277 326L107 126H9L160 326Z" />
<glyph unicode="&#xbc;" glyph-name="onequarter" horiz-adv-x="834" d="M715 698H805L134 -12H44L715 698ZM64 398H149L184 597H100L109 646Q136 649 173 660T237 686H276L225 398H301L289 329H53L64 398ZM623 75H464L474 134Q541 220 606 367H691Q665 307 622
241T548 139H635L646 204Q677 254 695 297H738L711 139H752L741 75H699L686 1H610L623 75Z" />
<glyph unicode="&#xbd;" glyph-name="onehalf" horiz-adv-x="834" d="M717 698H807L136 -12H46L717 698ZM67 398H151L186 597H102L111 646Q138 649 175 660T239 686H278L227 398H303L291 329H55L67 398ZM481 25Q489 69 521 100T609 168Q656 200 678 220T700 268Q700
283 691 293T661 303Q609 303 601 255L597 235H523Q524 299 565 333T667 367Q725 367 751 341T777 274Q777 236 757 206T710 154T641 107Q600 83 585 68H743L731 0H476L481 25Z" />
<glyph unicode="&#xbe;" glyph-name="threequarters" horiz-adv-x="834" d="M722 698H812L141 -12H51L722 698ZM130 326T98 349T66 413Q66 426 70 446H146Q143 433 143 425Q143 408 155 399T189 390Q216 390 233 404T251 447Q251 483 202 483H170L182 547H208Q234
547 253 561T272 602Q272 619 262 627T233 635Q212 635 198 624T178 589L177 582H101L103 596Q110 642 147 670T234 698Q288 698 319 675T350 609Q350 576 333 556T282 520L281 516Q328 494 328 442Q328 390 288 358T190 326Q130 326 98 349ZM628 75H469L479 134Q546
220 611 367H696Q671 307 628 241T553 139H640L651 204Q682 254 700 297H743L716 139H757L746 75H704L691 1H615L628 75Z" />
<glyph unicode="&#xbf;" glyph-name="questiondown" horiz-adv-x="611" d="M310 526H435L413 399H288L310 526ZM156 -172T100 -131T44 -12Q44 39 63 76T110 137T182 192Q230 226 253 248T281 302L287 335H399L391 287Q384 245 365 214T323 162T263 115Q218 83
198 60T177 2Q177 -66 268 -66Q318 -66 349 -44T392 9T405 67H527Q527 -3 493 -57T398 -141T258 -172Q156 -172 100 -131Z" />
<glyph unicode="&#xc0;" glyph-name="Agrave" horiz-adv-x="703" d="M338 686H499L646 0H514L484 149H168L86 0H-49L338 686ZM463 257L428 436Q421 470 409 549Q406 561 406 567T404 576H399Q397 572 386 551Q345 472 326 437L228 257H463ZM298 865L299 868H416L474
736H383L298 865Z" />
<glyph unicode="&#xc1;" glyph-name="Aacute" horiz-adv-x="703" d="M338 686H499L646 0H514L484 149H168L86 0H-49L338 686ZM463 257L428 436Q421 470 409 549Q406 561 406 567T404 576H399Q397 572 386 551Q345 472 326 437L228 257H463ZM481 868H606L607 865L478
736H377L481 868Z" />
<glyph unicode="&#xc2;" glyph-name="Acircumflex" horiz-adv-x="703" d="M338 686H499L646 0H514L484 149H168L86 0H-49L338 686ZM463 257L428 436Q421 470 409 549Q406 561 406 567T404 576H399Q397 572 386 551Q345 472 326 437L228 257H463ZM391 868H499L581
733H482L438 805L373 733H262L391 868Z" />
<glyph unicode="&#xc3;" glyph-name="Atilde" horiz-adv-x="703" d="M338 686H499L646 0H514L484 149H168L86 0H-49L338 686ZM463 257L428 436Q421 470 409 549Q406 561 406 567T404 576H399Q397 572 386 551Q345 472 326 437L228 257H463ZM274 802T302 835T375
868Q404 868 446 850Q486 833 511 833Q539 833 550 868H618Q609 817 581 785T507 752Q489 752 473 756T437 770Q417 778 403 782T372 787Q344 787 333 752H266Q274 802 302 835Z" />
<glyph unicode="&#xc4;" glyph-name="Adieresis" horiz-adv-x="703" d="M338 686H499L646 0H514L484 149H168L86 0H-49L338 686ZM463 257L428 436Q421 470 409 549Q406 561 406 567T404 576H399Q397 572 386 551Q345 472 326 437L228 257H463ZM297 868H404L385
758H278L297 868ZM499 868H607L587 758H479L499 868Z" />
<glyph unicode="&#xc5;" glyph-name="Aring" horiz-adv-x="703" d="M338 686H499L646 0H514L484 149H168L86 0H-49L338 686ZM463 257L428 436Q421 470 409 549Q406 561 406 567T404 576H399Q397 572 386 551Q345 472 326 437L228 257H463ZM385 704T361 727T337
787Q337 836 368 869T450 903Q491 903 514 880T538 819Q538 770 507 737T425 704Q385 704 361 727ZM453 757T469 773T485 812Q485 829 474 839T445 850Q421 850 406 834T391 794Q391 778 401 768T430 757Q453 757 469 773Z" />
<glyph unicode="&#xc6;" glyph-name="AE" horiz-adv-x="1000" d="M395 686H1001L982 577H575L591 405H908L889 296H602L620 109H906L886 0H508L494 149H173L76 0H-62L395 686ZM485 257L456 577H451L243 257H485Z" />
<glyph unicode="&#xc7;" glyph-name="Ccedilla" horiz-adv-x="722" d="M565 433Q568 451 568 468Q568 528 530 559T425 590Q325 590 263 531T179 366Q166 302 166 259Q166 176 205 136T326 96Q410 96 467 136T538 251H664Q642 128 557 61T349 -11L341 -34Q379
-36 402 -51T426 -97Q426 -144 383 -163T284 -182Q228 -182 182 -174L191 -125H283Q306 -125 318 -119T331 -96Q331 -86 323 -82T294 -77H249L272 -10Q35 13 35 254Q35 368 72 464T183 620Q230 658 292 678T426 698Q551 698 626 645T701 489Q701 466 696 433H565Z"
/>
<glyph unicode="&#xc8;" glyph-name="Egrave" horiz-adv-x="667" d="M133 686H668L649 577H241L211 405H575L556 296H192L159 109H573L553 0H12L133 686ZM283 865L284 868H401L459 736H368L283 865Z" />
<glyph unicode="&#xc9;" glyph-name="Eacute" horiz-adv-x="667" d="M133 686H668L649 577H241L211 405H575L556 296H192L159 109H573L553 0H12L133 686ZM466 868H591L592 865L463 736H362L466 868Z" />
<glyph unicode="&#xca;" glyph-name="Ecircumflex" horiz-adv-x="667" d="M133 686H668L649 577H241L211 405H575L556 296H192L159 109H573L553 0H12L133 686ZM376 868H484L566 733H467L423 805L358 733H247L376 868Z" />
<glyph unicode="&#xcb;" glyph-name="Edieresis" horiz-adv-x="667" d="M133 686H668L649 577H241L211 405H575L556 296H192L159 109H573L553 0H12L133 686ZM282 868H389L370 758H263L282 868ZM484 868H592L572 758H464L484 868Z" />
<glyph unicode="&#xcc;" glyph-name="Igrave" horiz-adv-x="278" d="M138 686H265L144 0H17L138 686ZM80 865L81 868H198L256 736H165L80 865Z" />
<glyph unicode="&#xcd;" glyph-name="Iacute" horiz-adv-x="278" d="M138 686H265L144 0H17L138 686ZM263 868H388L389 865L260 736H159L263 868Z" />
<glyph unicode="&#xce;" glyph-name="Icircumflex" horiz-adv-x="278" d="M138 686H265L144 0H17L138 686ZM173 868H281L363 733H264L220 805L155 733H44L173 868Z" />
<glyph unicode="&#xcf;" glyph-name="Idieresis" horiz-adv-x="278" d="M138 686H265L144 0H17L138 686ZM79 868H186L167 758H60L79 868ZM281 868H389L369 758H261L281 868Z" />
<glyph unicode="&#xd0;" glyph-name="Eth" horiz-adv-x="722" d="M536 686T612 619T689 415Q689 322 661 243T579 106Q529 55 460 28T306 0H12L68 316H2L15 394H81L133 686H393Q536 686 612 619ZM557 381T557 412Q557 494 514 535T387 577H241L209 394H360L346
316H195L159 109H299Q398 109 463 165T547 325Q557 381 557 412Z" />
<glyph unicode="&#xd1;" glyph-name="Ntilde" horiz-adv-x="722" d="M133 686H255L476 266Q484 251 491 235T503 209L508 210Q515 261 517 269L590 686H713L592 0H472L252 421Q242 439 234 458T223 481H218L214 457L208 418L135 0H12L133 686ZM293 802T321 835T394
868Q423 868 465 850Q505 833 530 833Q558 833 569 868H637Q628 817 600 785T526 752Q508 752 492 756T456 770Q436 778 422 782T391 787Q363 787 352 752H285Q293 802 321 835Z" />
<glyph unicode="&#xd2;" glyph-name="Ograve" horiz-adv-x="778" d="M195 -12T115 56T35 257Q35 306 42 348Q68 514 170 606T436 698Q583 698 664 630T745 431Q745 393 738 342Q713 175 610 82T342 -11Q195 -12 115 56ZM450 97T516 158T603 336Q613 390 613 424Q613
503 568 546T437 590Q328 590 262 529T176 351Q166 290 166 264Q166 184 211 141T341 97Q450 97 516 158ZM308 865L309 868H426L484 736H393L308 865Z" />
<glyph unicode="&#xd3;" glyph-name="Oacute" horiz-adv-x="778" d="M195 -12T115 56T35 257Q35 306 42 348Q68 514 170 606T436 698Q583 698 664 630T745 431Q745 393 738 342Q713 175 610 82T342 -11Q195 -12 115 56ZM450 97T516 158T603 336Q613 390 613 424Q613
503 568 546T437 590Q328 590 262 529T176 351Q166 290 166 264Q166 184 211 141T341 97Q450 97 516 158ZM491 868H616L617 865L488 736H387L491 868Z" />
<glyph unicode="&#xd4;" glyph-name="Ocircumflex" horiz-adv-x="778" d="M195 -12T115 56T35 257Q35 306 42 348Q68 514 170 606T436 698Q583 698 664 630T745 431Q745 393 738 342Q713 175 610 82T342 -11Q195 -12 115 56ZM450 97T516 158T603 336Q613 390 613
424Q613 503 568 546T437 590Q328 590 262 529T176 351Q166 290 166 264Q166 184 211 141T341 97Q450 97 516 158ZM401 868H509L591 733H492L448 805L383 733H272L401 868Z" />
<glyph unicode="&#xd5;" glyph-name="Otilde" horiz-adv-x="778" d="M195 -12T115 56T35 257Q35 306 42 348Q68 514 170 606T436 698Q583 698 664 630T745 431Q745 393 738 342Q713 175 610 82T342 -11Q195 -12 115 56ZM450 97T516 158T603 336Q613 390 613 424Q613
503 568 546T437 590Q328 590 262 529T176 351Q166 290 166 264Q166 184 211 141T341 97Q450 97 516 158ZM284 802T312 835T385 868Q414 868 456 850Q496 833 521 833Q549 833 560 868H628Q619 817 591 785T517 752Q499 752 483 756T447 770Q427 778 413 782T382
787Q354 787 343 752H276Q284 802 312 835Z" />
<glyph unicode="&#xd6;" glyph-name="Odieresis" horiz-adv-x="778" d="M195 -12T115 56T35 257Q35 306 42 348Q68 514 170 606T436 698Q583 698 664 630T745 431Q745 393 738 342Q713 175 610 82T342 -11Q195 -12 115 56ZM450 97T516 158T603 336Q613 390 613
424Q613 503 568 546T437 590Q328 590 262 529T176 351Q166 290 166 264Q166 184 211 141T341 97Q450 97 516 158ZM307 868H414L395 758H288L307 868ZM509 868H617L597 758H489L509 868Z" />
<glyph unicode="&#xd7;" glyph-name="multiply" horiz-adv-x="584" d="M49 111L225 258L105 403L180 469L299 324L475 473L534 400L358 251L478 107L403 41L284 186L108 38L49 111Z" />
<glyph unicode="&#xd8;" glyph-name="Oslash" horiz-adv-x="778" d="M98 71Q35 137 35 254Q35 367 73 460T183 614Q231 655 295 676T435 698Q553 698 628 656L700 735H791L681 615Q745 546 745 431Q745 326 712 238T615 89Q564 40 495 14T343 -12Q222 -12 150
30L79 -49H-12L98 71ZM545 565Q505 590 442 590Q337 590 269 531T179 365Q167 302 167 265Q167 207 188 169L545 565ZM443 96T512 157T602 329Q613 390 613 421Q613 479 591 516L233 120Q274 96 336 96Q443 96 512 157Z" />
<glyph unicode="&#xd9;" glyph-name="Ugrave" horiz-adv-x="722" d="M194 -12T125 42T56 199Q56 229 62 262L136 686H264L189 260Q184 235 184 217Q184 158 219 127T322 96Q399 96 448 137T512 257L588 686H716L640 254Q592 -12 322 -12Q194 -12 125 42ZM311 865L312
868H429L487 736H396L311 865Z" />
<glyph unicode="&#xda;" glyph-name="Uacute" horiz-adv-x="722" d="M194 -12T125 42T56 199Q56 229 62 262L136 686H264L189 260Q184 235 184 217Q184 158 219 127T322 96Q399 96 448 137T512 257L588 686H716L640 254Q592 -12 322 -12Q194 -12 125 42ZM494 868H619L620
865L491 736H390L494 868Z" />
<glyph unicode="&#xdb;" glyph-name="Ucircumflex" horiz-adv-x="722" d="M194 -12T125 42T56 199Q56 229 62 262L136 686H264L189 260Q184 235 184 217Q184 158 219 127T322 96Q399 96 448 137T512 257L588 686H716L640 254Q592 -12 322 -12Q194 -12 125 42ZM404
868H512L594 733H495L451 805L386 733H275L404 868Z" />
<glyph unicode="&#xdc;" glyph-name="Udieresis" horiz-adv-x="722" d="M194 -12T125 42T56 199Q56 229 62 262L136 686H264L189 260Q184 235 184 217Q184 158 219 127T322 96Q399 96 448 137T512 257L588 686H716L640 254Q592 -12 322 -12Q194 -12 125 42ZM310
868H417L398 758H291L310 868ZM512 868H620L600 758H492L512 868Z" />
<glyph unicode="&#xdd;" glyph-name="Yacute" horiz-adv-x="667" d="M260 279L67 686H200L339 393H344L581 686H723L388 279L339 0H211L260 279ZM466 868H591L592 865L463 736H362L466 868Z" />
<glyph unicode="&#xde;" glyph-name="Thorn" horiz-adv-x="667" d="M133 686H261L241 575H400Q633 575 633 388Q633 310 600 253T505 165T362 134H163L140 0H12L133 686ZM361 243Q424 243 463 277T502 373Q502 466 400 466H222L182 243H361Z" />
<glyph unicode="&#xdf;" glyph-name="germandbls" horiz-adv-x="611" d="M98 513Q118 627 189 682Q258 735 366 735Q473 735 532 692T592 570Q592 509 553 463T448 396V392Q557 353 557 230Q557 162 523 110T429 29T289 0H196L213 98H291Q334 98 367 116T418 164T436
229Q436 274 408 302T331 331H253L272 435H344Q395 435 431 468T467 550Q467 591 442 614T365 638Q307 638 268 607T219 519L128 0H8L98 513Z" />
<glyph unicode="&#xe0;" glyph-name="agrave" horiz-adv-x="579" d="M469 86T498 86H531L516 4Q486 -12 440 -12Q401 -12 378 11T354 74H349Q322 33 279 11T188 -12Q109 -12 64 40T18 190Q18 277 46 357T128 487T259 538Q313 538 348 520T406 465H412L443 526H542Q529
453 519 395T500 290Q469 123 469 113Q469 86 498 86ZM283 91T317 130T366 224T382 329Q382 438 290 438Q238 438 205 401T158 309T143 197Q143 144 164 118T230 91Q283 91 317 130ZM174 720L175 723H292L350 591H259L174 720Z" />
<glyph unicode="&#xe1;" glyph-name="aacute" horiz-adv-x="579" d="M469 86T498 86H531L516 4Q486 -12 440 -12Q401 -12 378 11T354 74H349Q322 33 279 11T188 -12Q109 -12 64 40T18 190Q18 277 46 357T128 487T259 538Q313 538 348 520T406 465H412L443 526H542Q529
453 519 395T500 290Q469 123 469 113Q469 86 498 86ZM283 91T317 130T366 224T382 329Q382 438 290 438Q238 438 205 401T158 309T143 197Q143 144 164 118T230 91Q283 91 317 130ZM357 723H482L483 720L354 591H253L357 723Z" />
<glyph unicode="&#xe2;" glyph-name="acircumflex" horiz-adv-x="579" d="M469 86T498 86H531L516 4Q486 -12 440 -12Q401 -12 378 11T354 74H349Q322 33 279 11T188 -12Q109 -12 64 40T18 190Q18 277 46 357T128 487T259 538Q313 538 348 520T406 465H412L443
526H542Q529 453 519 395T500 290Q469 123 469 113Q469 86 498 86ZM283 91T317 130T366 224T382 329Q382 438 290 438Q238 438 205 401T158 309T143 197Q143 144 164 118T230 91Q283 91 317 130ZM267 723H375L457 588H358L314 660L249 588H138L267 723Z" />
<glyph unicode="&#xe3;" glyph-name="atilde" horiz-adv-x="579" d="M469 86T498 86H531L516 4Q486 -12 440 -12Q401 -12 378 11T354 74H349Q322 33 279 11T188 -12Q109 -12 64 40T18 190Q18 277 46 357T128 487T259 538Q313 538 348 520T406 465H412L443 526H542Q529
453 519 395T500 290Q469 123 469 113Q469 86 498 86ZM283 91T317 130T366 224T382 329Q382 438 290 438Q238 438 205 401T158 309T143 197Q143 144 164 118T230 91Q283 91 317 130ZM150 657T178 690T251 723Q280 723 322 705Q362 688 387 688Q415 688 426 723H494Q485
672 457 640T383 607Q365 607 349 611T313 625Q293 633 279 637T248 642Q220 642 209 607H142Q150 657 178 690Z" />
<glyph unicode="&#xe4;" glyph-name="adieresis" horiz-adv-x="579" d="M469 86T498 86H531L516 4Q486 -12 440 -12Q401 -12 378 11T354 74H349Q322 33 279 11T188 -12Q109 -12 64 40T18 190Q18 277 46 357T128 487T259 538Q313 538 348 520T406 465H412L443 526H542Q529
453 519 395T500 290Q469 123 469 113Q469 86 498 86ZM283 91T317 130T366 224T382 329Q382 438 290 438Q238 438 205 401T158 309T143 197Q143 144 164 118T230 91Q283 91 317 130ZM173 723H280L261 613H154L173 723ZM375 723H483L463 613H355L375 723Z" />
<glyph unicode="&#xe5;" glyph-name="aring" horiz-adv-x="579" d="M469 86T498 86H531L516 4Q486 -12 440 -12Q401 -12 378 11T354 74H349Q322 33 279 11T188 -12Q109 -12 64 40T18 190Q18 277 46 357T128 487T259 538Q313 538 348 520T406 465H412L443 526H542Q529
453 519 395T500 290Q469 123 469 113Q469 86 498 86ZM283 91T317 130T366 224T382 329Q382 438 290 438Q238 438 205 401T158 309T143 197Q143 144 164 118T230 91Q283 91 317 130ZM261 559T237 582T213 642Q213 691 244 724T326 758Q367 758 390 735T414 674Q414
625 383 592T301 559Q261 559 237 582ZM329 612T345 628T361 667Q361 684 350 694T321 705Q297 705 282 689T267 649Q267 633 277 623T306 612Q329 612 345 628Z" />
<glyph unicode="&#xe6;" glyph-name="ae" horiz-adv-x="889" d="M108 -12T51 15T-6 117Q-6 231 94 275T374 319L382 363Q384 379 384 385Q384 413 365 428T296 443Q241 443 214 426T183 384L180 370H64Q64 420 95 458T179 517T297 538Q424 538 473 483Q537 538
638 538Q850 538 850 347Q850 315 842 270L836 234H481Q477 213 477 191Q477 136 503 110T586 83Q636 83 668 108T709 184H827Q812 87 748 38T589 -12Q440 -12 387 67Q308 -12 184 -12Q108 -12 51 15ZM727 319Q730 337 730 354Q730 400 707 421T641 443Q584 443
549 412T497 319H727ZM260 84T303 118T355 210L360 234Q249 234 185 212T120 133Q120 84 197 84Q260 84 303 118Z" />
<glyph unicode="&#xe7;" glyph-name="ccedilla" horiz-adv-x="537" d="M381 329Q383 347 383 356Q383 441 297 441Q181 441 150 276Q142 229 142 197Q142 140 166 113T241 85Q293 85 324 115T364 197H480Q465 100 408 46T254 -12L247 -34Q285 -36 308 -51T332
-97Q332 -144 289 -163T190 -182Q133 -182 87 -174L96 -125H189Q212 -125 224 -119T236 -96Q236 -86 228 -82T199 -77H155L179 -7Q97 5 58 53T18 189Q18 282 46 361T137 489T294 538Q396 538 451 495T506 373Q506 352 503 329H381Z" />
<glyph unicode="&#xe8;" glyph-name="egrave" horiz-adv-x="556" d="M135 -12T77 37T18 190Q18 284 47 363T140 490T302 538Q516 538 516 347Q516 307 508 270L502 234H143Q140 218 140 191Q140 136 166 110T250 83Q301 83 333 108T375 184H493Q478 87 414 38T254
-12Q135 -12 77 37ZM393 319Q396 337 396 354Q396 400 372 421T305 443Q194 443 160 319H393ZM188 720L189 723H306L364 591H273L188 720Z" />
<glyph unicode="&#xe9;" glyph-name="eacute" horiz-adv-x="556" d="M135 -12T77 37T18 190Q18 284 47 363T140 490T302 538Q516 538 516 347Q516 307 508 270L502 234H143Q140 218 140 191Q140 136 166 110T250 83Q301 83 333 108T375 184H493Q478 87 414 38T254
-12Q135 -12 77 37ZM393 319Q396 337 396 354Q396 400 372 421T305 443Q194 443 160 319H393ZM371 723H496L497 720L368 591H267L371 723Z" />
<glyph unicode="&#xea;" glyph-name="ecircumflex" horiz-adv-x="556" d="M135 -12T77 37T18 190Q18 284 47 363T140 490T302 538Q516 538 516 347Q516 307 508 270L502 234H143Q140 218 140 191Q140 136 166 110T250 83Q301 83 333 108T375 184H493Q478 87 414
38T254 -12Q135 -12 77 37ZM393 319Q396 337 396 354Q396 400 372 421T305 443Q194 443 160 319H393ZM281 723H389L471 588H372L328 660L263 588H152L281 723Z" />
<glyph unicode="&#xeb;" glyph-name="edieresis" horiz-adv-x="556" d="M135 -12T77 37T18 190Q18 284 47 363T140 490T302 538Q516 538 516 347Q516 307 508 270L502 234H143Q140 218 140 191Q140 136 166 110T250 83Q301 83 333 108T375 184H493Q478 87 414
38T254 -12Q135 -12 77 37ZM393 319Q396 337 396 354Q396 400 372 421T305 443Q194 443 160 319H393ZM187 723H294L275 613H168L187 723ZM389 723H497L477 613H369L389 723Z" />
<glyph unicode="&#xec;" glyph-name="igrave" horiz-adv-x="278" d="M62 720L63 723H180L239 591H147L62 720ZM114 526H234L141 0H21L114 526Z" />
<glyph unicode="&#xed;" glyph-name="iacute" horiz-adv-x="278" d="M224 723H348L349 720L218 591H119L224 723ZM114 526H234L141 0H21L114 526Z" />
<glyph unicode="&#xee;" glyph-name="icircumflex" horiz-adv-x="278" d="M144 723H253L335 588H236L192 660L126 588H16L144 723ZM114 526H234L141 0H21L114 526Z" />
<glyph unicode="&#xef;" glyph-name="idieresis" horiz-adv-x="278" d="M48 723H155L136 613H29L48 723ZM250 723H358L338 613H230L250 723ZM114 526H234L141 0H21L114 526Z" />
<glyph unicode="&#xf0;" glyph-name="eth" horiz-adv-x="592" d="M137 -12T78 37T19 190Q19 274 42 344T109 461Q141 495 184 513T279 531Q335 531 376 515L380 518Q365 554 331 601L168 589L179 657L281 665Q276 671 244 700L225 718L229 723H365Q399 691 412
674L578 686L565 617L465 611Q506 552 528 485T551 345Q551 186 481 87T256 -12Q137 -12 78 37ZM326 86T364 127T417 245Q425 289 425 322Q425 379 398 406T311 433Q241 433 203 392T152 273Q144 229 144 197Q144 140 171 113T257 86Q326 86 364 127Z" />
<glyph unicode="&#xf1;" glyph-name="ntilde" horiz-adv-x="592" d="M109 526H206V455H213Q243 491 289 514T386 538Q455 538 496 506T538 404Q538 377 529 325L471 0H351L407 318Q413 354 413 367Q413 403 395 418T342 434Q285 434 242 394T186 283L136 0H16L109
526ZM199 657T227 690T300 723Q329 723 371 705Q411 688 436 688Q464 688 475 723H543Q534 672 506 640T432 607Q414 607 398 611T362 625Q342 633 328 637T297 642Q269 642 258 607H191Q199 657 227 690Z" />
<glyph unicode="&#xf2;" glyph-name="ograve" horiz-adv-x="592" d="M186 -12T134 15T53 90T23 203Q23 247 30 285Q50 409 120 473T315 538Q383 538 435 512T516 436T546 324Q546 283 540 241Q498 -12 253 -12Q186 -12 134 15ZM333 87T372 129T424 262Q429 291
429 326Q428 380 396 410T306 440Q235 440 196 398T145 264Q141 233 141 200Q142 147 173 117T261 87Q333 87 372 129ZM195 720L196 723H313L371 591H280L195 720Z" />
<glyph unicode="&#xf3;" glyph-name="oacute" horiz-adv-x="592" d="M186 -12T134 15T53 90T23 203Q23 247 30 285Q50 409 120 473T315 538Q383 538 435 512T516 436T546 324Q546 283 540 241Q498 -12 253 -12Q186 -12 134 15ZM333 87T372 129T424 262Q429 291
429 326Q428 380 396 410T306 440Q235 440 196 398T145 264Q141 233 141 200Q142 147 173 117T261 87Q333 87 372 129ZM378 723H503L504 720L375 591H274L378 723Z" />
<glyph unicode="&#xf4;" glyph-name="ocircumflex" horiz-adv-x="592" d="M186 -12T134 15T53 90T23 203Q23 247 30 285Q50 409 120 473T315 538Q383 538 435 512T516 436T546 324Q546 283 540 241Q498 -12 253 -12Q186 -12 134 15ZM333 87T372 129T424 262Q429
291 429 326Q428 380 396 410T306 440Q235 440 196 398T145 264Q141 233 141 200Q142 147 173 117T261 87Q333 87 372 129ZM288 723H396L478 588H379L335 660L270 588H159L288 723Z" />
<glyph unicode="&#xf5;" glyph-name="otilde" horiz-adv-x="592" d="M186 -12T134 15T53 90T23 203Q23 247 30 285Q50 409 120 473T315 538Q383 538 435 512T516 436T546 324Q546 283 540 241Q498 -12 253 -12Q186 -12 134 15ZM333 87T372 129T424 262Q429 291
429 326Q428 380 396 410T306 440Q235 440 196 398T145 264Q141 233 141 200Q142 147 173 117T261 87Q333 87 372 129ZM171 657T199 690T272 723Q301 723 343 705Q383 688 408 688Q436 688 447 723H515Q506 672 478 640T404 607Q386 607 370 611T334 625Q314 633
300 637T269 642Q241 642 230 607H163Q171 657 199 690Z" />
<glyph unicode="&#xf6;" glyph-name="odieresis" horiz-adv-x="592" d="M186 -12T134 15T53 90T23 203Q23 247 30 285Q50 409 120 473T315 538Q383 538 435 512T516 436T546 324Q546 283 540 241Q498 -12 253 -12Q186 -12 134 15ZM333 87T372 129T424 262Q429
291 429 326Q428 380 396 410T306 440Q235 440 196 398T145 264Q141 233 141 200Q142 147 173 117T261 87Q333 87 372 129ZM194 723H301L282 613H175L194 723ZM396 723H504L484 613H376L396 723Z" />
<glyph unicode="&#xf7;" glyph-name="divide" horiz-adv-x="549" d="M255 512H368L348 405H235L255 512ZM39 304H511L494 207H22L39 304ZM183 107H296L277 1H164L183 107Z" />
<glyph unicode="&#xf8;" glyph-name="oslash" horiz-adv-x="611" d="M73 51Q27 100 27 189Q27 281 55 360T148 488T314 538Q406 538 463 510L518 575H599L513 474Q559 425 559 335Q559 243 530 165T437 37T271 -12Q180 -12 123 15L69 -49H-12L73 51ZM389 424Q362
440 320 440Q253 440 215 399T161 282Q152 236 152 198Q152 171 158 150L389 424ZM330 86T367 123T421 232Q434 288 434 327Q434 346 428 374L196 101Q223 86 265 86Q330 86 367 123Z" />
<glyph unicode="&#xf9;" glyph-name="ugrave" horiz-adv-x="592" d="M119 -12T77 20T35 122Q35 144 39 170T45 201L103 526H223L167 208Q161 172 161 159Q161 123 179 108T232 92Q289 92 332 132T388 243L438 526H558L465 0H368V71H361Q331 35 285 12T188 -12Q119
-12 77 20ZM212 720L213 723H330L388 591H297L212 720Z" />
<glyph unicode="&#xfa;" glyph-name="uacute" horiz-adv-x="592" d="M119 -12T77 20T35 122Q35 144 39 170T45 201L103 526H223L167 208Q161 172 161 159Q161 123 179 108T232 92Q289 92 332 132T388 243L438 526H558L465 0H368V71H361Q331 35 285 12T188 -12Q119
-12 77 20ZM395 723H520L521 720L392 591H291L395 723Z" />
<glyph unicode="&#xfb;" glyph-name="ucircumflex" horiz-adv-x="592" d="M119 -12T77 20T35 122Q35 144 39 170T45 201L103 526H223L167 208Q161 172 161 159Q161 123 179 108T232 92Q289 92 332 132T388 243L438 526H558L465 0H368V71H361Q331 35 285 12T188
-12Q119 -12 77 20ZM305 723H413L495 588H396L352 660L287 588H176L305 723Z" />
<glyph unicode="&#xfc;" glyph-name="udieresis" horiz-adv-x="592" d="M119 -12T77 20T35 122Q35 144 39 170T45 201L103 526H223L167 208Q161 172 161 159Q161 123 179 108T232 92Q289 92 332 132T388 243L438 526H558L465 0H368V71H361Q331 35 285 12T188 -12Q119
-12 77 20ZM211 723H318L299 613H192L211 723ZM413 723H521L501 613H393L413 723Z" />
<glyph unicode="&#xfd;" glyph-name="yacute" horiz-adv-x="537" d="M12 -182T-9 -177T-32 -171L-17 -88H37Q76 -88 106 -68T160 0L48 526H167L221 273Q227 244 234 194T244 127H249Q255 142 275 191T313 273L438 526H563L304 27Q252 -72 194 -127T55 -182Q12
-182 -9 -177ZM367 723H492L493 720L364 591H263L367 723Z" />
<glyph unicode="&#xfe;" glyph-name="thorn" horiz-adv-x="592" d="M139 732H259L212 465H219Q247 499 286 518T368 538Q456 538 503 487T551 330Q551 245 522 166T437 38T303 -12Q247 -12 209 6T147 61H141L100 -173H-20L139 732ZM352 88T389 160T426 326Q426
382 403 408T329 435Q275 435 240 400T188 311T171 197Q171 88 270 88Q352 88 389 160Z" />
<glyph unicode="&#xff;" glyph-name="ydieresis" horiz-adv-x="537" d="M12 -182T-9 -177T-32 -171L-17 -88H37Q76 -88 106 -68T160 0L48 526H167L221 273Q227 244 234 194T244 127H249Q255 142 275 191T313 273L438 526H563L304 27Q252 -72 194 -127T55 -182Q12
-182 -9 -177ZM183 723H290L271 613H164L183 723ZM385 723H493L473 613H365L385 723Z" />
<glyph unicode="&#x2013;" glyph-name="endash" horiz-adv-x="556" d="M3 315H559L543 225H-12L3 315Z" />
<glyph unicode="&#x2014;" glyph-name="emdash" horiz-adv-x="1000" d="M3 315H1003L987 225H-12L3 315Z" />
<glyph unicode="&#x2018;" glyph-name="quoteleft" horiz-adv-x="259" d="M103 527L191 686H256L181 538H230L208 411H83L103 527Z" />
<glyph unicode="&#x2019;" glyph-name="quoteright" horiz-adv-x="259" d="M149 559H99L122 686H247L227 570L138 411H73L149 559Z" />
<glyph unicode="&#x201a;" glyph-name="quotesinglbase" horiz-adv-x="259" d="M71 0H22L45 127H169L149 11L61 -148H-4L71 0Z" />
<glyph unicode="&#x201c;" glyph-name="quotedblleft" horiz-adv-x="442" d="M89 527L177 686H242L166 538H216L193 411H69L89 527ZM287 527L376 686H441L365 538H415L392 411H267L287 527Z" />
<glyph unicode="&#x201d;" glyph-name="quotedblright" horiz-adv-x="442" d="M149 559H99L122 686H247L227 570L138 411H73L149 559ZM348 559H298L321 686H445L425 570L337 411H272L348 559Z" />
<glyph unicode="&#x201e;" glyph-name="quotedblbase" horiz-adv-x="442" d="M71 0H22L45 127H169L149 11L61 -148H-4L71 0ZM270 0H220L243 127H368L348 11L259 -148H194L270 0Z" />
<glyph unicode="&#x2022;" glyph-name="bullet" horiz-adv-x="350" d="M116 212T80 248T43 336Q43 373 60 405T110 456T181 475Q234 475 270 439T307 350Q307 313 289 281T240 231T169 212Q116 212 80 248Z" />
<glyph unicode="&#x2039;" glyph-name="guilsinglleft" horiz-adv-x="333" d="M58 326L227 526H325L175 326L254 126H165L58 326Z" />
<glyph unicode="&#x203a;" glyph-name="guilsinglright" horiz-adv-x="333" d="M160 326L80 526H169L277 326L107 126H9L160 326Z" />
</font>
</defs>
</svg>
