<?xml version="1.0" standalone="no"?>
<!DOCTYPE svg PUBLIC "-//W3C//DTD SVG 1.1//EN" "http://www.w3.org/Graphics/SVG/1.1/DTD/svg11.dtd">
<svg xmlns="http://www.w3.org/2000/svg">
<defs >
<font id="Coustard" horiz-adv-x="1399" ><font-face
    font-family="Coustard Black"
    units-per-em="2048"
    panose-1="2 11 8 3 5 3 2 2 2 4"
    ascent="2095"
    descent="-781"
    alphabetic="0" />
<glyph unicode=" " horiz-adv-x="442" />
<glyph unicode="!" horiz-adv-x="670" d="M385 -29T349 -29T274 -22T190 2T116 55T87 140Q87 316 342 316Q416 316 468 299T544 254T578 197T588 137Q588 90 563 56T499 4T423 -21ZM340 416Q299 416 277 417T238 423T214 434T204 456T200 486T198 532T192 592Q175
709 139 915T77 1270T51 1438Q51 1480 72 1498T141 1516H537Q584 1516 605 1498T627 1438Q627 1419 601 1270T538 916T486 592Q482 563 480 533T477 487T474 456T464 435T441 424T402 417T340 416Z" />
<glyph unicode="&quot;" horiz-adv-x="1161" d="M113 978Q113 992 131 1014T170 1055T210 1100T228 1145Q228 1156 202 1167T146 1191T89 1245T63 1347Q63 1449 131 1512T309 1575Q413 1575 485 1506T558 1337Q558 1277 527 1205T447 1070T329 965T195 923Q158
923 136 940T113 978ZM662 978Q662 996 691 1025T748 1087T777 1145Q777 1156 751 1167T695 1191T638 1245T612 1347Q612 1449 680 1512T858 1575Q962 1575 1034 1506T1107 1337Q1107 1277 1076 1205T996 1070T878 965T744 923Q707 923 685 940T662 978Z" />
<glyph unicode="#" horiz-adv-x="1112" d="M535 536Q547 603 586 735H386Q370 681 329 533Q321 504 316 492T300 463T269 442T220 436Q203 436 184 442T145 467T125 518Q125 531 127 548T136 588T147 630T161 681T176 731Q166 731 148 731T120 730H104Q71 730
56 739T40 778Q40 812 59 846T124 893Q163 899 225 901Q236 936 255 1000T283 1091Q271 1091 247 1091T212 1090H196Q163 1090 148 1099T132 1138Q132 1172 151 1206T216 1253Q230 1255 335 1262Q375 1394 387 1444Q400 1496 486 1496Q587 1496 587 1434Q587 1420
580 1394T558 1327T538 1265H744Q778 1378 795 1444Q808 1496 894 1496Q995 1496 995 1434Q995 1423 979 1371L946 1268H1046Q1083 1268 1083 1223V1217Q1083 1203 1080 1187T1069 1150T1039 1114T987 1100H897L842 908H954Q991 908 991 863V857Q991 843 988 827T977
790T947 754T895 740H795L737 533Q729 504 724 492T708 463T677 442T628 436Q611 436 592 442T553 467T533 518Q533 529 535 536ZM488 1095L434 905H634L693 1095H488Z" />
<glyph unicode="$" horiz-adv-x="1145" d="M438 238L554 240Q552 210 552 159T550 83T543 28T524 -14T490 -27T454 -8T438 48V238ZM651 239H767V48Q767 13 750 -7T710 -27Q691 -27 679 -15T663 26T657 80T654 156T651 239ZM536 1249L420 1251V1441Q420 1477 435
1496T472 1516T506 1504T524 1462T531 1406T533 1330T536 1249ZM749 1250H633Q634 1276 635 1310T636 1367T638 1415T643 1457T652 1488T668 1509T692 1516Q715 1516 732 1496T749 1441V1250ZM1108 544Q1108 453 1067 384T951 274T777 212T555 192Q426 192 311
227T120 331T44 488Q44 572 177 572Q206 572 238 572T275 573Q339 573 363 550T406 470Q413 437 442 420T509 403Q555 403 591 421T627 468Q627 495 601 520T533 565T448 600T360 631T295 656Q173 714 108 794T43 987Q43 1067 91 1131T219 1234T395 1293T595 1314Q1061
1314 1061 1051Q1061 1039 1057 1028T1041 1002T1000 978T928 969Q902 969 873 969T840 968Q807 968 784 976T747 1004T726 1038T708 1084Q701 1103 671 1113T601 1124Q562 1124 533 1109T504 1065Q504 1034 550 1000T673 945Q724 931 758 921T842 891T925 851T996
800T1056 734T1093 650T1108 544Z" />
<glyph unicode="%" horiz-adv-x="1533" d="M40 1103Q40 1271 148 1381T413 1492Q556 1492 645 1402T734 1162Q734 993 633 881T370 768Q224 768 132 862T40 1103ZM375 1380Q337 1380 317 1309T297 1140Q297 1036 319 963T374 889Q411 889 430 958T450 1122Q450
1233 429 1306T375 1380ZM801 358Q801 528 907 639T1173 750Q1316 750 1405 659T1494 420Q1494 254 1393 140T1134 26Q986 26 894 118T801 358ZM1135 638Q1097 638 1077 565T1057 395Q1057 292 1080 220T1135 147Q1172 147 1191 213T1210 376Q1210 489 1189 563T1135
638ZM888 1187Q987 1369 1001 1439Q1007 1471 1042 1486T1125 1502Q1185 1502 1244 1483T1303 1434Q1303 1413 1289 1395Q762 678 586 210Q569 166 560 135Q535 48 417 48Q356 48 294 70T232 111Q232 112 234 116Q302 199 521 557T888 1187Z" />
<glyph unicode="&amp;" horiz-adv-x="1727" d="M1503 543Q1436 391 1362 285Q1364 282 1370 278Q1408 233 1513 233Q1551 233 1591 239T1653 252T1679 260Q1681 261 1683 244T1688 198T1690 142Q1690 14 1670 10Q1532 -26 1403 -26Q1292 -26 1233 -8T1115 63Q942
-27 667 -27Q537 -27 423 1T222 81T85 216T35 399Q35 465 52 522T98 623T170 704T257 769T358 823Q214 1019 214 1150Q214 1160 216 1180Q225 1242 254 1293T322 1379T411 1439T507 1479T602 1502T681 1513T736 1516Q872 1516 986 1479T1176 1361T1251 1170Q1251
1102 1224 1039T1146 920T1041 822T914 732Q1035 601 1187 452Q1239 508 1252 554Q1247 555 1227 558T1201 564T1182 574T1164 593T1155 624T1150 672Q1150 737 1158 809L1170 814Q1523 821 1636 821Q1654 821 1664 780T1675 691Q1675 630 1663 584Q1580 570 1503
543ZM632 1150Q632 1091 716 971Q798 1011 842 1059T887 1173Q887 1223 853 1247T763 1272Q709 1272 671 1237T632 1150ZM756 264Q820 264 885 280Q703 444 607 540Q530 481 530 435Q530 346 591 305T756 264Z" />
<glyph unicode="&apos;" horiz-adv-x="612" d="M113 978Q113 992 131 1014T170 1055T210 1100T228 1145Q228 1156 202 1167T146 1191T89 1245T63 1347Q63 1449 131 1512T309 1575Q413 1575 485 1506T558 1337Q558 1277 527 1205T447 1070T329 965T195 923Q158
923 136 940T113 978Z" />
<glyph unicode="(" horiz-adv-x="710" d="M435 771Q435 535 492 373T669 88Q670 83 670 73Q670 14 609 -47T470 -138Q340 -69 245 74T102 396T54 765T101 1134T244 1455T470 1668Q548 1638 609 1577T670 1457Q670 1447 669 1442Q550 1320 493 1161T435 771Z" />
<glyph unicode=")" horiz-adv-x="719" d="M282 771Q282 1001 225 1160T48 1442Q47 1447 47 1457Q47 1516 108 1577T247 1668Q377 1599 472 1456T615 1134T663 765T616 396T473 75T247 -138Q169 -108 108 -47T47 73Q47 82 48 88Q168 211 225 373T282 771Z" />
<glyph unicode="*" horiz-adv-x="1178" d="M267 1063L459 949L404 1164Q402 1172 402 1188Q402 1252 458 1298T585 1345T712 1299T768 1188Q768 1180 766 1164L711 949L903 1063Q937 1080 966 1080Q1032 1080 1082 1025T1133 898Q1133 840 1100 794T1012 741L780
722L966 584L983 567Q1014 529 1014 476Q1014 399 956 341T817 283Q777 283 742 300T690 350L584 576L478 350Q463 319 426 301T351 283Q270 283 212 340T154 476Q154 529 185 567L202 584L388 722L158 741Q102 749 69 794T36 898Q36 970 87 1025T204 1080Q236
1080 267 1063Z" />
<glyph unicode="+" horiz-adv-x="942" d="M721 831Q825 831 864 834Q900 820 900 749Q900 644 845 644Q839 646 773 647T642 650H578H565Q566 576 566 416Q566 379 569 347Q553 310 484 310Q379 310 379 365Q381 371 382 438T384 568L385 632V648H367Q113 647
100 642Q45 642 45 747Q45 818 81 832Q120 829 224 829H383V843Q382 1097 377 1110Q377 1135 403 1150T482 1166Q551 1166 567 1129Q564 1090 564 986V830Q648 831 721 831Z" />
<glyph unicode="," horiz-adv-x="611" d="M108 -155Q108 -137 137 -108T194 -46T223 12Q223 21 206 29T165 47T116 75T75 128T58 214Q58 316 126 379T304 442Q408 442 480 373T553 204Q553 144 522 72T442 -63T324 -168T190 -210Q153 -210 131 -193T108 -155Z" />
<glyph unicode="-" horiz-adv-x="963" d="M136 567Q68 567 68 679Q68 804 120 876T284 949Q326 949 426 939T585 928Q633 928 717 937T821 946Q858 946 873 937T889 901Q889 857 887 822T877 747T856 677T821 622T767 584T692 571Q642 571 533 578T373 585Q226
585 136 567Z" />
<glyph unicode="." horiz-adv-x="637" d="M62 209Q62 308 128 376T323 444Q388 444 438 424T518 370T561 296T576 209Q576 112 513 43T323 -26Q195 -26 129 42T62 209Z" />
<glyph unicode="/" horiz-adv-x="1011" d="M43 153Q97 285 330 822T622 1510Q652 1587 768 1587Q882 1587 931 1567T981 1506Q981 1493 977 1479T960 1438T944 1400Q735 867 430 139Q416 107 409 93T388 57T357 26T315 10T254 3Q221 3 187 8T117 25T59 61T36 117Q36
135 43 153Z" />
<glyph unicode="0" horiz-adv-x="1827" d="M927 -29Q792 -29 665 3T429 102T239 259T111 477T64 748Q64 925 129 1070T310 1312T585 1462T934 1515Q1120 1515 1278 1458T1545 1299T1715 1059T1776 758Q1776 590 1710 443T1529 193T1259 31T927 -29ZM914 199Q950
199 978 224T1024 294T1054 392T1073 511T1081 633T1084 750Q1084 1283 919 1283Q882 1283 853 1261T806 1196T776 1104T757 991T749 872T747 751Q747 653 753 567T777 392T829 251T914 199Z" />
<glyph unicode="1" horiz-adv-x="994" d="M236 555V1089Q236 1121 215 1136T163 1154T102 1161T50 1182T28 1236Q28 1299 55 1389T116 1502Q321 1489 448 1489Q528 1489 619 1501T732 1516Q801 1516 801 1442V575Q801 520 803 482T813 397T839 324T885 294Q903
291 912 289T935 279T955 259T961 227Q961 152 941 72T883 -27Q738 0 564 0Q330 0 155 -27Q118 -8 98 72T77 227Q77 246 83 259T102 279T125 288T153 294Q179 297 196 319T222 382T233 462T236 555Z" />
<glyph unicode="2" horiz-adv-x="1496" d="M181 1456Q277 1482 445 1498T802 1514Q890 1514 972 1504T1135 1468T1274 1404T1369 1306T1406 1170Q1406 1082 1374 998T1296 851T1178 718T1047 603T908 495T786 395H834Q873 395 900 396T976 408T1059 435T1132 489T1193
575Q1271 609 1327 609Q1343 609 1364 604T1409 589T1448 559T1464 513Q1464 440 1408 286T1313 59Q1229 -2 530 -2Q448 -2 322 -1T159 0Q125 12 89 66T49 173Q50 188 61 211T98 266T145 326T208 397T272 467T341 541T405 608Q542 753 635 898T728 1155Q728 1291
642 1291Q596 1291 528 1248T403 1150T303 1049T256 994Q196 994 117 1027T37 1095Q37 1214 82 1317T181 1456Z" />
<glyph unicode="3" horiz-adv-x="1552" d="M262 12Q191 47 118 139T45 304Q45 358 115 409T249 460Q255 460 284 437T353 387T465 337T622 314Q880 314 880 497Q880 577 829 631T709 691Q649 695 616 695Q582 695 521 692T440 689Q417 691 406 719T394 820Q394
925 449 950Q478 947 506 947Q675 948 753 995T831 1123Q831 1192 788 1238T684 1285T570 1258T482 1193T419 1116T366 1051T323 1024Q235 1024 170 1060T104 1125Q104 1268 186 1380T366 1503Q483 1514 820 1514Q928 1514 1015 1496T1160 1445T1257 1370T1313
1280T1330 1181Q1330 1086 1269 1004T1110 895Q1219 886 1312 823T1456 672T1508 494Q1508 365 1450 264T1289 101T1053 6T763 -27Q533 -27 262 12Z" />
<glyph unicode="4" horiz-adv-x="1718" d="M721 835Q723 885 723 1055V1072Q723 1197 725 1233Q717 1229 705 1215T668 1171T627 1122Q532 1013 463 884Q451 862 451 854Q451 840 487 836T605 832Q685 832 721 835ZM734 495Q704 495 615 494T496 493H468Q380 493
333 494T224 503T133 529Q93 568 69 649T45 765Q45 786 57 812Q97 882 147 950T257 1085T367 1202T491 1327T609 1445Q634 1466 682 1476T765 1487T876 1488L1198 1489Q1319 1489 1319 1416Q1300 1144 1300 951V859Q1300 839 1318 839H1383Q1418 839 1489 844T1591
849Q1634 849 1652 826T1675 753Q1674 678 1657 627T1590 542Q1522 520 1472 514T1299 505Q1299 464 1301 435T1311 372T1337 317T1383 294Q1401 291 1410 289T1433 279T1453 259T1459 227Q1459 152 1439 72T1381 -27Q1236 0 1062 0Q828 0 653 -27Q616 -8 596 72T575
227Q575 246 581 259T600 279T623 288T651 294Q677 297 694 315T720 364T731 424T734 495Z" />
<glyph unicode="5" horiz-adv-x="1583" d="M327 3Q292 20 247 50T154 120T74 210T41 304Q41 362 113 411T247 460Q267 446 301 419T352 382T404 355T486 330T602 314Q915 314 915 499Q915 548 893 580T824 630T722 653T585 660Q528 660 428 635T275 609Q202 609
176 622T148 657Q148 725 153 875T158 1094Q158 1118 158 1159T157 1217Q157 1271 158 1303T164 1375T180 1436T210 1477T257 1503Q484 1489 727 1489Q1224 1489 1342 1516Q1365 1482 1406 1339T1448 1107Q1448 1072 1418 1048T1348 1013T1262 1003Q1259 1003 1248
1024T1218 1076T1172 1136T1104 1188T1015 1210Q698 1210 590 1201Q568 1133 568 1020Q568 926 574 914Q714 971 935 971Q1219 971 1377 833T1536 475Q1536 313 1446 199T1200 29T840 -26Q653 -26 559 -21T327 3Z" />
<glyph unicode="6" horiz-adv-x="1739" d="M1048 1303T986 1303T878 1264T806 1160T769 1020T757 862V835Q908 927 1116 927Q1196 927 1275 913T1430 867T1564 788T1657 670T1693 512Q1693 397 1650 305T1534 152T1358 50T1141 -9T897 -27Q691 -24 532 29T274
175T124 393T74 667Q74 847 132 1000T301 1268T588 1450T986 1516Q1307 1516 1392 1486Q1465 1451 1525 1348T1586 1125Q1586 1090 1507 1057T1367 1024Q1354 1024 1336 1044T1300 1096T1252 1163T1188 1231T1101 1282ZM918 692Q883 692 856 683T811 662T781 626T762
584T752 532T749 478T748 421Q748 294 795 235T910 175Q958 175 993 194T1047 241T1077 311T1090 388T1093 466Q1093 578 1044 635T918 692Z" />
<glyph unicode="7" horiz-adv-x="1517" d="M1076 173Q1076 132 1063 100T1030 47T976 12T912 -10T835 -22T756 -26T673 -27Q310 -27 310 187Q310 295 351 420T457 656T600 874T752 1058T887 1186H543Q489 1186 438 1165T351 1115T286 1055T236 1004T207 983Q178
983 149 988T92 1004T45 1036T27 1086Q27 1297 133 1516Q403 1488 708 1488Q1060 1488 1435 1516Q1448 1516 1464 1502T1480 1474V1338Q1480 1261 1439 1215Q985 713 985 359Q985 318 994 293T1017 261T1043 252T1066 248T1076 239V173Z" />
<glyph unicode="8" horiz-adv-x="1744" d="M1587 1167Q1587 1103 1565 1048T1502 950T1416 876T1313 816Q1690 723 1690 437Q1690 346 1656 272T1559 149T1419 64T1245 9T1056 -19T862 -28Q788 -28 720 -24T569 -8T415 24T277 79T161 160T84 273T54 424Q54 732
463 823Q142 908 142 1134Q142 1204 169 1262T241 1358T348 1426T476 1472T616 1499T753 1513T878 1516Q935 1516 990 1514T1118 1502T1254 1478T1379 1437T1487 1375T1559 1286T1587 1167ZM720 406Q720 328 774 278T902 227Q968 227 1007 280T1046 404Q1046 454
1027 503T979 588T922 650T874 692L855 705Q850 702 841 696T808 664T767 607T735 522T720 406ZM708 1176Q708 1133 727 1090T773 1014T827 957T873 919L892 906Q897 912 904 922T932 963T967 1025T994 1101T1007 1186Q1007 1242 964 1276T854 1311Q791 1311 750
1274T708 1176Z" />
<glyph unicode="9" horiz-adv-x="1704" d="M739 184Q801 184 847 223T919 327T956 467T968 624V652Q817 560 609 560Q529 560 450 574T295 620T161 699T68 817T32 975Q32 1090 76 1182T195 1335T376 1438T598 1498T848 1516Q1049 1513 1204 1460T1456 1313T1602
1095T1651 820Q1651 640 1593 488T1424 220T1137 39T739 -27Q458 -27 353 1Q269 13 194 125T119 362Q119 397 213 430T378 463Q391 463 407 443T441 391T486 324T547 256T630 205T739 184ZM807 795Q842 795 869 804T914 825T944 861T963 903T973 955T976 1009T977
1066Q977 1193 930 1252T815 1312Q767 1312 732 1293T678 1246T648 1176T635 1099T632 1021Q632 909 681 852T807 795Z" />
<glyph unicode=":" horiz-adv-x="607" d="M61 165T61 257T123 412T304 476Q421 476 480 412T539 257T480 103T304 38Q185 38 123 101ZM61 877T61 969T123 1124T304 1188Q421 1188 480 1124T539 969T480 815T304 750Q185 750 123 813Z" />
<glyph unicode=";" horiz-adv-x="611" d="M62 877T62 969T124 1124T305 1188Q422 1188 481 1124T540 969T481 815T305 750Q186 750 124 813ZM107 -115Q107 -100 125 -79T164 -38T204 7T222 52Q222 61 205 69T164 87T116 115T74 168T57 254Q57 356 125 419T303
482Q407 482 479 413T552 244Q552 184 521 112T441 -23T323 -128T189 -170Q152 -170 130 -153T107 -115Z" />
<glyph unicode="&lt;" horiz-adv-x="858" d="M39 534Q39 574 173 705T442 949L577 1061Q588 1069 598 1069Q619 1069 667 1026T757 926T799 835Q799 819 786 806Q538 603 468 534Q500 503 582 435T730 314L796 262Q809 249 809 233Q809 199 766 142T671 42T598
-1Q588 -1 577 7Q566 16 547 32T471 95T365 187T252 288T145 391T70 476T39 534Z" />
<glyph unicode="=" horiz-adv-x="1140" d="M261 892Q313 893 886 893Q990 893 1029 896Q1065 882 1065 811Q1065 716 1010 716Q1005 718 948 719T837 722H783H282Q144 718 137 714Q82 714 82 809Q82 880 118 894Q144 892 261 892ZM261 559Q311 560 884 560Q975
560 1027 564Q1063 550 1063 479Q1063 384 1008 384Q1003 386 947 387T836 390H781H282Q144 386 137 382Q82 382 82 477Q82 548 118 562Q157 559 261 559Z" />
<glyph unicode="&gt;" horiz-adv-x="846" d="M816 534Q816 494 682 363T412 119L278 7Q267 -1 257 -1Q235 -1 184 42T90 142T46 233Q46 249 59 262Q315 465 387 534Q356 565 277 633T133 754L69 806Q56 819 56 835Q56 869 97 926T187 1026T257 1069Q267 1069 278
1061Q289 1052 308 1036T384 973T490 881T603 780T710 677T785 592T816 534Z" />
<glyph unicode="?" horiz-adv-x="1303" d="M32 1262Q33 1382 79 1449T192 1535Q233 1535 266 1525T315 1503T345 1481T369 1471Q389 1477 432 1493T502 1518T580 1534T692 1542Q817 1542 919 1521T1101 1458T1224 1345T1268 1182Q1268 1133 1244 1090T1182 1016T1097
956T1003 906T918 863T855 820T831 777Q831 752 848 696T866 616Q866 535 678 535Q653 535 617 536T574 538Q479 538 404 603T328 756Q328 796 347 819T411 861Q447 876 472 887T538 925T604 978T650 1046T670 1134Q670 1222 628 1285T520 1348Q467 1348 413 1318T323
1245Q299 1198 246 1159T143 1119Q32 1119 32 1262ZM323 101T323 193T385 348T566 412Q683 412 742 348T801 193T742 39T566 -26Q447 -26 385 37Z" />
<glyph unicode="@" horiz-adv-x="1831" d="M1417 381Q1442 381 1462 390T1497 414T1524 452T1543 497T1555 553T1563 610T1567 670T1569 727T1569 781Q1569 909 1519 1013T1385 1184T1196 1286T975 1322Q847 1322 735 1284T543 1180T404 1028T318 845T289 648Q289
552 314 464T393 296T524 158T713 65T959 31Q1243 31 1500 175Q1534 144 1534 82Q1534 43 1489 -1T1371 -83T1193 -146T980 -171Q769 -171 594 -108T303 67T123 328T59 652Q59 782 95 906T207 1141T389 1335T646 1467T972 1516Q1137 1516 1284 1464T1541 1319T1715
1089T1779 790Q1779 658 1742 550T1643 375T1504 271T1341 234Q1179 234 1069 366Q1022 294 949 256T799 218Q722 218 664 239T573 299T523 383T507 485Q507 552 527 601T578 678T660 722T759 744T877 749Q904 749 932 747T974 742L989 739V862Q989 906 972 924T917
943Q859 943 795 916T694 860L658 833Q585 833 585 919Q585 960 603 991T656 1041T729 1072T820 1090T912 1097T1003 1099Q1076 1099 1130 1087T1222 1048T1284 984T1321 892T1340 776T1345 632Q1345 600 1345 584T1346 541T1349 499T1354 465T1362 433T1375 410T1393
391T1417 381ZM980 444Q989 481 989 609Q989 634 980 641T929 648Q891 648 870 620T848 537Q848 486 866 443T917 399Q935 399 955 413T980 444Z" />
<glyph unicode="A" horiz-adv-x="1890" d="M1044 535H616Q584 429 584 394Q584 357 601 335T642 305T690 292T732 278T749 251Q749 33 656 -13Q557 0 387 0T118 -13Q58 26 58 196Q58 243 76 266T125 296T188 310T254 344T307 422L552 1063Q576 1126 576 1155Q576
1178 567 1188T546 1201T522 1207T500 1226T491 1270Q491 1368 512 1430T558 1503Q728 1489 934 1489Q1123 1489 1221 1503Q1242 1496 1262 1443L1574 604Q1619 482 1671 388T1758 294Q1776 291 1785 289T1808 279T1828 259T1834 227Q1834 156 1814 81T1756 -13Q1644
0 1437 0Q1163 0 1028 -13Q991 5 971 80T950 227Q950 246 956 259T975 279T998 289T1026 294Q1078 295 1078 382Q1078 457 1044 535ZM1000 705Q981 764 897 1003Q893 1015 885 1037Q876 1064 872 1076T862 1101T852 1120T845 1125Q836 1125 805 1042L681 705H1000Z"
/>
<glyph unicode="B" horiz-adv-x="1617" d="M816 869Q889 869 924 915T960 1075Q960 1115 952 1159T920 1241T865 1279Q853 1279 801 1271Q786 1243 786 921V892Q786 880 792 875T816 869ZM791 251Q803 232 826 221T871 210Q990 210 990 493Q990 587 960 648T868
709Q816 709 801 701T786 673Q786 410 791 251ZM556 1489Q619 1489 751 1496T951 1503Q1057 1503 1144 1486T1306 1430T1424 1316T1467 1138Q1467 1063 1441 1006T1366 911T1258 850T1124 811Q1258 798 1358 759T1520 640T1583 449Q1583 320 1546 231T1432 88T1246
11T985 -13Q920 -13 767 -7T524 0Q439 0 97 -13Q69 6 54 88T39 247Q39 266 46 279T67 298T94 307T128 312Q158 315 177 335T206 389T218 457T221 535V974Q221 1013 220 1039T213 1094T199 1140T172 1170T131 1186Q110 1188 98 1191T71 1200T49 1220T42 1252Q42
1325 57 1405T100 1503Q116 1503 291 1496T556 1489Z" />
<glyph unicode="C" horiz-adv-x="1536" d="M875 -27Q709 -27 569 17T333 137T168 314T69 527T37 759Q37 874 65 983T152 1189T293 1359T490 1474T738 1516Q848 1516 928 1496T1106 1421Q1104 1445 1104 1452Q1104 1483 1126 1493T1223 1503Q1289 1503 1321 1497T1382
1464T1423 1389T1451 1250Q1465 1155 1465 1116Q1465 1087 1462 1070T1453 1042T1431 1026T1402 1018T1357 1013Q1260 1004 1252 1004Q1204 1004 1177 1057Q1123 1143 1053 1187T910 1232Q803 1232 731 1142T658 885Q658 772 692 678T784 520T919 421T1084 386Q1272
386 1444 483Q1481 416 1481 343Q1481 271 1441 205T1327 87T1135 4T875 -27Z" />
<glyph unicode="D" horiz-adv-x="1726" d="M894 222Q964 222 1016 297T1094 486T1119 732Q1119 867 1093 982T1007 1174T864 1252Q832 1252 817 1249Q812 1225 812 790V623Q812 495 816 396T824 260L827 224Q848 222 894 222ZM123 -13Q95 5 80 87T65 245Q65 264
72 277T93 296T120 305T154 310Q184 313 203 333T232 387T244 455T247 533V972Q247 1011 246 1037T239 1092T225 1138T198 1168T157 1184Q136 1186 124 1189T97 1198T75 1218T68 1250Q68 1323 83 1404T126 1503Q504 1489 564 1489Q622 1489 742 1496T925 1503Q1074
1503 1201 1460T1416 1344T1568 1172T1660 964T1690 738Q1690 624 1661 516T1572 311T1427 143T1222 29T960 -13Q905 -13 800 -7T637 0Q530 0 123 -13Z" />
<glyph unicode="E" horiz-adv-x="1513" d="M126 1503Q396 1489 732 1489Q1060 1489 1322 1503Q1356 1439 1392 1324T1428 1137Q1428 1108 1409 1087T1359 1054T1301 1038T1248 1033Q1242 1033 1221 1058T1169 1118T1099 1190T1010 1251T912 1276Q887 1276 875
1274T849 1260T828 1223T817 1153T812 1037V819Q938 968 1084 968Q1166 968 1214 912T1262 782Q1262 702 1206 648T1076 593Q1039 635 990 662T894 690Q844 690 812 641V378Q812 194 855 194H943Q1000 205 1047 237T1134 326T1203 440T1269 582Q1280 586 1298 586Q1348
586 1412 562T1494 507Q1499 497 1499 473Q1499 424 1474 319T1420 127Q1407 86 1380 37T1332 -13Q1253 -6 1152 -3T981 1T783 1T605 0Q318 0 123 -13Q95 6 80 88T65 247Q65 266 72 279T93 298T120 307T154 312Q184 315 203 335T232 389T244 457T247 535V974Q247
1013 246 1039T239 1094T225 1140T198 1170T157 1186Q136 1188 124 1191T97 1200T75 1220T68 1252Q68 1325 83 1405T126 1503Z" />
<glyph unicode="F" horiz-adv-x="1408" d="M126 1503Q355 1489 755 1489Q1129 1489 1312 1503Q1346 1439 1382 1324T1418 1137Q1418 1108 1399 1087T1349 1054T1291 1038T1238 1033Q1225 1033 1206 1063Q1149 1164 1078 1220T902 1276Q880 1276 869 1274T845 1260T826
1223T816 1153T812 1037V850Q940 1008 1084 1008Q1166 1008 1214 952T1262 822Q1262 742 1206 688T1076 633Q1039 675 990 702T894 730Q844 730 812 681V603Q812 565 812 536T815 469T823 404T835 351T856 312T885 296Q887 296 897 294T909 292T921 289T933 286T943
281T953 275T960 267T967 257T970 244T972 227Q972 156 955 81T904 -13Q769 0 495 0Q194 0 123 -13Q95 6 80 88T65 247Q65 266 72 279T93 298T120 307T154 312Q184 315 203 335T232 389T244 457T247 535V974Q247 1013 246 1039T239 1094T225 1140T198 1170T157
1186Q136 1188 124 1191T97 1200T75 1220T68 1252Q68 1325 83 1405T126 1503Z" />
<glyph unicode="G" horiz-adv-x="1755" d="M1262 84Q1123 -27 876 -27Q748 -27 628 2T399 96T211 251T84 476T37 769Q37 949 99 1094T268 1329T508 1468T791 1516Q934 1516 1020 1494T1194 1421Q1194 1472 1214 1487T1309 1503H1342Q1382 1503 1404 1499T1454
1476T1497 1420T1528 1314T1554 1144Q1556 1127 1556 1100Q1556 1081 1554 1067T1544 1044T1531 1029T1509 1020T1484 1015T1450 1012T1412 1007Q1369 1002 1348 1002Q1316 1002 1300 1014T1255 1068L1241 1088Q1156 1233 976 1233Q847 1233 754 1124T661 835Q661
738 685 657T747 523T833 433T931 380T1027 363Q1088 363 1127 391T1167 467Q1167 530 1126 554T952 588Q943 606 943 652Q943 694 965 752T1007 829Q1112 810 1284 810Q1464 810 1605 828Q1632 828 1650 825T1687 812T1715 780T1725 722Q1725 678 1718 648T1699
603T1674 577T1646 555T1620 528T1601 479T1594 398Q1594 356 1598 276T1602 156V122Q1522 47 1420 47Q1385 47 1328 64T1262 84Z" />
<glyph unicode="H" horiz-adv-x="2087" d="M1945 1503Q1973 1485 1988 1405T2003 1252Q2003 1233 1996 1220T1975 1201T1948 1191T1914 1186Q1890 1183 1873 1171T1847 1141T1832 1094T1826 1039T1824 974V535Q1824 490 1827 457T1839 390T1867 335T1917 312Q1939
310 1951 308T1977 299T1999 279T2006 247Q2006 171 1991 89T1948 -13Q1876 0 1587 0Q1313 0 1178 -13Q1141 5 1121 80T1100 227Q1100 246 1106 259T1125 279T1148 288T1176 294Q1226 299 1242 381T1259 615Q1259 644 1255 650T1227 657Q1213 657 1150 656T1035
655Q984 655 921 656T844 657Q822 657 818 650T813 615Q813 566 814 531T820 449T833 372T858 320T897 294Q915 291 924 289T947 279T967 259T973 227Q973 156 953 81T895 -13Q783 0 576 0Q209 0 123 -13Q95 6 80 88T65 247Q65 266 72 279T93 298T120 307T154 312Q184
315 203 335T232 389T244 457T247 535V974Q247 1013 246 1039T239 1094T225 1140T198 1170T157 1186Q136 1188 124 1191T97 1200T75 1220T68 1252Q68 1325 83 1405T126 1503Q219 1489 579 1489Q778 1489 898 1503Q935 1485 955 1408T976 1259Q976 1240 970 1227T949
1207T923 1197T889 1190Q813 1182 813 922Q813 908 815 901T826 888T853 882Q867 882 926 882T1032 883Q1086 883 1151 882T1231 881Q1251 881 1255 886T1259 911Q1259 1054 1247 1120T1190 1190Q1167 1194 1156 1197T1130 1207T1109 1227T1103 1259Q1103 1331
1123 1408T1181 1503Q1327 1489 1590 1489Q1868 1489 1945 1503Z" />
<glyph unicode="I" horiz-adv-x="1045" d="M926 1503Q954 1485 969 1405T984 1252Q984 1233 977 1220T956 1201T929 1191T895 1186Q871 1183 854 1171T828 1141T813 1094T807 1039T805 974V535Q805 490 808 457T820 390T848 335T898 312Q920 310 932 308T958 299T980
279T987 247Q987 171 972 89T929 -12Q858 0 528 0Q188 0 116 -12Q88 7 73 89T58 247Q58 266 65 279T86 298T113 307T147 312Q177 315 196 335T225 389T237 457T240 535V974Q240 1013 239 1039T232 1094T218 1140T191 1170T150 1186Q129 1188 117 1191T90 1200T68
1220T61 1252Q61 1325 76 1405T119 1503Q201 1489 532 1489Q814 1489 926 1503Z" />
<glyph unicode="J" horiz-adv-x="1313" d="M505 510V974Q505 1013 504 1039T497 1094T483 1140T456 1170T415 1186Q394 1188 382 1191T355 1200T333 1220T326 1252Q326 1325 341 1405T384 1503Q466 1489 797 1489Q1079 1489 1191 1503Q1219 1485 1234 1405T1249
1252Q1249 1233 1242 1220T1221 1201T1194 1191T1160 1186Q1136 1183 1119 1171T1093 1141T1078 1094T1072 1039T1070 974V490Q1070 332 1037 224T933 50T763 -43T521 -72Q281 -72 159 -3T36 170Q36 229 77 269T185 309Q221 309 243 294T274 256T291 213T317 176T365
160Q396 160 419 175T463 226T494 334T505 510Z" />
<glyph unicode="K" horiz-adv-x="1987" d="M126 1503Q208 1489 528 1489Q777 1489 917 1503Q945 1485 960 1410T975 1262Q975 1243 969 1230T950 1210T927 1201T899 1195Q812 1185 812 914V838Q850 863 932 929T1105 1069T1202 1149Q1225 1167 1225 1184T1194
1226T1163 1266Q1163 1268 1165 1274Q1169 1284 1181 1314T1200 1359T1218 1400T1237 1441T1254 1472T1271 1495T1283 1503Q1284 1503 1327 1500T1442 1493T1584 1489Q1676 1489 1753 1496T1847 1503Q1875 1503 1884 1492T1894 1452Q1894 1432 1888 1377T1882 1317Q1879
1268 1865 1242T1824 1204T1767 1186T1688 1162T1594 1114L1291 883Q1371 811 1427 756Q1490 694 1542 622T1621 497T1681 397T1747 325Q1769 310 1803 302T1861 290T1902 269T1920 216Q1920 174 1907 153Q1885 104 1855 71T1792 19T1707 -11T1609 -24T1488 -27Q1428
-27 1381 -22T1298 -3T1235 26T1187 70T1150 125T1119 194T1090 275T1057 371T1017 480Q1009 501 1000 525T986 563T975 591T966 613T958 628T949 637T940 640Q929 640 908 625L812 556Q814 303 896 294Q914 291 923 289T946 279T966 259T972 227Q972 156 955 81T904
-13Q771 0 505 0Q196 0 123 -13Q95 6 80 88T65 247Q65 266 72 279T93 298T120 307T154 312Q184 315 203 335T232 389T244 457T247 535V974Q247 1013 246 1039T239 1094T225 1140T198 1170T157 1186Q136 1188 124 1191T97 1200T75 1220T68 1252Q68 1325 83 1405T126
1503Z" />
<glyph unicode="L" horiz-adv-x="1494" d="M812 974V420Q812 204 844 204Q911 204 963 228T1046 289T1104 372T1151 459T1199 538T1262 590Q1275 597 1301 597Q1358 597 1416 570T1474 506Q1461 437 1402 288T1290 29Q1271 -13 1225 -13Q1223 -13 1191 -12T1101
-9T969 -5T787 -2T569 0Q209 0 123 -13Q95 6 80 88T65 247Q65 266 72 279T93 298T120 307T154 312Q184 315 203 335T232 389T244 457T247 535V974Q247 1013 246 1039T239 1094T225 1140T198 1170T157 1186Q136 1188 124 1191T97 1200T75 1220T68 1252Q68 1325 83
1405T126 1503Q208 1489 539 1489Q821 1489 933 1503Q961 1485 976 1405T991 1252Q991 1233 984 1220T963 1201T936 1191T902 1186Q878 1183 861 1171T835 1141T820 1094T814 1039T812 974Z" />
<glyph unicode="M" horiz-adv-x="2313" d="M1493 605V756Q1493 860 1480 865Q1468 865 1460 850Q1349 607 1175 154L1135 50Q1085 25 1022 16Q990 18 963 56Q913 150 777 453T584 845Q573 862 564 862Q546 862 546 656V579Q546 527 548 486T557 398T577 320T613
266T667 241Q690 239 704 237T736 230T761 214T770 187Q770 128 753 65T705 -13Q594 0 447 0Q254 0 121 -13Q90 2 74 64T57 187Q57 208 74 220T109 235T159 241Q199 244 226 268T267 333T286 420T292 524Q292 532 292 680T291 1032Q291 1092 268 1124T211 1164T145
1178T88 1198T64 1249Q64 1312 83 1396T142 1503Q302 1489 547 1489Q756 1489 910 1504Q943 1496 955 1479T967 1434Q967 1424 965 1400T963 1362Q963 1320 975 1290Q1058 1080 1197 792Q1329 1147 1364 1341Q1366 1355 1366 1395T1372 1463T1394 1503Q1509 1489
1796 1489Q2065 1489 2164 1503Q2188 1503 2214 1423T2240 1264Q2240 1227 2230 1208T2204 1185T2169 1180T2130 1171T2094 1144T2068 1077T2058 955V575Q2058 520 2060 482T2070 397T2096 324T2142 294Q2160 291 2169 289T2192 279T2212 259T2218 227Q2218 156
2201 81T2150 -13Q2036 0 1821 0Q1540 0 1402 -13Q1369 5 1352 80T1334 227Q1334 246 1340 259T1359 279T1382 288T1410 294Q1436 297 1453 323T1479 398T1490 494T1493 605Z" />
<glyph unicode="N" horiz-adv-x="1881" d="M547 803V473Q547 250 660 241Q683 239 697 237T729 230T754 214T763 187Q763 128 746 65T698 -13Q588 0 446 0Q246 0 110 -13Q79 2 63 64T46 187Q46 208 63 220T98 235T148 241Q186 244 210 266T245 328T259 406T263
498V1051Q263 1101 242 1130T189 1169T128 1185T76 1203T54 1243Q54 1275 57 1315T80 1417T132 1503Q265 1489 503 1489Q577 1489 631 1492T711 1499T742 1503Q755 1503 766 1497T792 1475T819 1442T856 1393T904 1333Q1321 837 1322 838Q1331 831 1346 831V1021Q1346
1061 1345 1088T1337 1146T1319 1194T1288 1225T1240 1240Q1217 1242 1203 1244T1172 1251T1147 1267T1138 1294Q1138 1356 1154 1421T1202 1503Q1349 1489 1528 1489Q1658 1489 1781 1503Q1812 1487 1828 1422T1845 1294Q1845 1278 1837 1268T1811 1252T1780 1244T1742
1240Q1706 1237 1683 1217T1649 1161T1635 1094T1631 1021V930Q1631 168 1650 44Q1531 -27 1441 -27Q1374 -27 1305 12T1152 138Q1063 235 626 770Q573 834 559 834Q547 834 547 803Z" />
<glyph unicode="O" horiz-adv-x="1826" d="M918 -27Q513 -27 276 177T38 748Q38 1108 274 1312T925 1516Q1095 1516 1237 1479T1481 1375T1653 1216T1758 1012T1792 773Q1792 608 1747 474T1623 248T1434 93T1194 2T918 -27ZM931 220Q958 220 980 233T1018 275T1045
334T1063 411T1074 493T1080 584T1082 670T1083 753Q1083 816 1081 866T1074 982T1056 1096T1026 1189T979 1256T911 1279Q771 1279 771 733Q771 220 931 220Z" />
<glyph unicode="P" horiz-adv-x="1682" d="M822 822Q828 819 836 816T847 811T856 807T863 805T868 803T875 802T882 801T891 801Q1013 801 1013 1102Q1013 1338 912 1338Q880 1338 860 1323T829 1274T816 1206T812 1116Q812 1112 812 1082T811 1012Q811 935 812
873Q812 844 822 822ZM126 1503Q136 1503 213 1499T368 1492T498 1489Q566 1489 704 1496T915 1503Q968 1503 1007 1502T1108 1497T1216 1486T1321 1463T1421 1428T1507 1377T1577 1306T1622 1212T1639 1093Q1639 988 1603 905T1507 768T1361 679T1184 628T985
613Q922 613 812 622Q812 304 897 296Q899 296 909 294T921 292T933 289T945 286T955 281T965 275T972 267T979 257T982 244T984 227Q984 149 969 77T916 -13Q781 0 497 0Q193 0 123 -13Q95 6 80 88T65 247Q65 266 72 279T93 298T120 307T154 312Q184 315 203 335T232
389T244 457T247 535V974Q247 1013 246 1039T239 1094T225 1140T198 1170T157 1186Q136 1188 124 1191T97 1200T75 1220T68 1252Q68 1325 83 1405T126 1503Z" />
<glyph unicode="Q" horiz-adv-x="1869" d="M933 231Q960 231 981 244T1018 283T1045 339T1064 412T1075 492T1081 581T1083 668T1084 752Q1084 834 1082 898T1073 1029T1055 1145T1024 1233T977 1293T913 1313Q775 1313 775 733Q775 231 933 231ZM997 -27Q842
-27 704 -1T443 86T230 235T89 459T37 760Q37 1109 272 1312T915 1516Q1338 1516 1567 1312T1796 756Q1796 548 1713 392T1456 120Q1474 78 1518 48T1615 2T1717 -25T1805 -45T1849 -66Q1847 -113 1799 -201Q1746 -298 1549 -298Q1472 -298 1412 -282T1314 -242T1249
-179T1208 -106T1181 -25Q1135 -25 997 -27Z" />
<glyph unicode="R" horiz-adv-x="1895" d="M812 846Q854 836 897 836Q1029 836 1029 1097Q1029 1141 1024 1174T1007 1239T970 1286T908 1303Q853 1303 833 1254T812 1111V846ZM126 1503Q339 1489 446 1489Q581 1489 713 1496T941 1503Q1010 1503 1057 1502T1183
1493T1317 1472T1437 1430T1541 1364T1608 1265T1635 1128Q1635 839 1346 767Q1413 749 1463 720T1548 654T1605 564T1642 456T1665 323Q1669 292 1690 278T1737 263T1794 256T1842 235Q1842 174 1839 139T1821 70T1785 21T1717 -7T1614 -23T1465 -27Q1337 -27
1256 -1T1139 71T1086 174T1063 298T1043 429T990 557T878 667H812Q812 620 812 586T815 506T823 427T837 363T860 315T893 296Q895 296 905 294T917 292T929 289T941 286T951 281T961 275T968 267T975 257T978 244T980 227Q980 155 963 80T912 -14Q778 0 543 0Q201
0 123 -13Q95 6 80 88T65 247Q65 266 72 279T93 298T120 307T154 312Q184 315 203 335T232 389T244 457T247 535V974Q247 1013 246 1039T239 1094T225 1140T198 1170T157 1186Q136 1188 124 1191T97 1200T75 1220T68 1252Q68 1325 83 1405T126 1503Z" />
<glyph unicode="S" horiz-adv-x="1520" d="M1062 1430Q1063 1434 1067 1446T1072 1460T1076 1471T1083 1481T1091 1488T1103 1494T1118 1498T1139 1501T1166 1502T1200 1503Q1221 1503 1250 1501T1298 1496L1317 1494Q1327 1471 1342 1433T1383 1301T1409 1147Q1409
1109 1340 1087T1203 1064Q1159 1064 1152 1074Q1128 1111 1095 1145T1014 1213T903 1265T769 1285Q679 1285 622 1264T565 1203Q565 1183 583 1164T636 1128T709 1097T800 1070T893 1048T985 1028Q1230 978 1358 846T1487 519Q1480 404 1441 311T1340 155T1196
52T1025 -8T836 -27Q571 -27 416 58Q415 54 412 41T407 24T399 10T383 -2T358 -9T318 -13Q249 -13 171 -5Q69 237 69 367Q69 410 128 438T249 466Q286 466 306 454Q361 360 495 288T743 216Q827 216 889 243T951 323Q951 341 942 357T915 388T875 415T822 440T763
462T696 483T628 501T559 519T493 536Q411 558 346 584T221 651T123 741T60 860T37 1012Q37 1175 116 1289T336 1460T666 1516Q782 1516 873 1493T1062 1430Z" />
<glyph unicode="T" horiz-adv-x="1580" d="M1513 1503Q1515 1490 1526 1430T1546 1322T1563 1211T1571 1105Q1571 1092 1566 1075Q1553 1057 1471 1036T1335 1014Q1323 1014 1317 1017Q1312 1028 1300 1055T1281 1099T1261 1142T1239 1187T1216 1226T1192 1263T1167
1290T1141 1310T1116 1316Q1078 1316 1078 1243V605Q1078 539 1080 494T1090 399T1115 324T1159 294Q1177 291 1186 289T1209 279T1229 259T1235 227Q1235 156 1215 81T1157 -13Q1044 0 796 0T435 -13Q398 5 378 80T357 227Q357 246 363 259T382 279T405 288T433
294Q459 297 476 323T501 399T510 493T513 605V1243Q513 1316 476 1316Q458 1316 441 1307T404 1275T371 1234T337 1179T308 1126T279 1067T255 1017Q248 1014 237 1014Q183 1014 101 1035T6 1075Q1 1092 1 1105Q1 1147 9 1210T25 1321T45 1430T59 1503Q245 1489
796 1489Q1332 1489 1513 1503Z" />
<glyph unicode="U" horiz-adv-x="1841" d="M1648 989V698Q1648 523 1614 394T1520 185T1369 57T1174 -9T935 -27Q863 -27 809 -25T690 -14T577 8T475 46T385 105T312 190T256 303T221 450T208 635V914Q208 975 206 1014T196 1095T172 1157T128 1181Q110 1184 101
1186T78 1196T58 1216T52 1248Q52 1323 72 1403T130 1503Q273 1489 532 1489Q738 1489 861 1503Q898 1484 918 1404T939 1248Q939 1229 933 1216T914 1196T891 1187T863 1181Q773 1171 773 914V623Q773 550 776 498T792 393T826 307T884 254T973 233Q1006 233 1034
241T1082 260T1117 293T1143 334T1160 384T1171 437T1176 495T1178 553T1179 612V989Q1179 1033 1177 1062T1167 1120T1143 1166T1100 1184Q1083 1187 1073 1190T1054 1204T1044 1234Q1044 1312 1064 1397T1121 1503Q1233 1489 1435 1489Q1620 1489 1721 1503Q1753
1483 1771 1398T1789 1234Q1789 1215 1779 1204T1759 1190T1732 1184Q1648 1176 1648 989Z" />
<glyph unicode="V" horiz-adv-x="1628" d="M956 0H751Q718 0 692 8T644 36T607 75T574 134T545 202T512 286T476 379Q433 484 376 625T289 840T224 997T162 1138Q152 1158 131 1167T86 1180T41 1191T4 1223T-10 1291Q-10 1350 -9 1384T1 1455T27 1503Q177 1489
422 1489Q665 1489 829 1503Q843 1503 862 1413T881 1265Q881 1243 866 1233T833 1220T800 1207T785 1173V1169Q785 1153 796 1123Q796 1122 805 1092T827 1022T855 930T886 829T915 739T938 672T949 647Q953 647 993 759T1073 998T1113 1157Q1113 1178 1100 1195T1064
1217Q1031 1222 1015 1235T997 1260T994 1298Q994 1480 1039 1503Q1133 1489 1287 1489Q1356 1489 1610 1503Q1638 1501 1638 1371V1312Q1638 1273 1631 1253T1609 1226T1576 1217T1533 1203T1485 1171T1433 1097T1381 967Q1344 850 1292 703T1168 363T1076 116Q1066
89 1060 76T1040 41T1005 10T956 0Z" />
<glyph unicode="W" horiz-adv-x="2316" d="M1644 0H1479Q1458 0 1440 6T1410 20T1385 46T1365 76T1348 114T1334 154T1322 199T1309 243L1168 716Q1024 263 975 116Q966 90 960 76T940 41T905 10T856 0H671Q643 0 621 8T581 36T549 76T521 134T495 202T466 286T434
378Q414 433 363 577T294 766T245 900T191 1040T149 1139Q141 1156 125 1166T91 1178T52 1187T17 1201T-9 1233T-20 1293Q-20 1352 -19 1386T-9 1456T17 1503Q182 1489 412 1489Q649 1489 809 1503Q823 1503 842 1414T861 1267Q861 1248 843 1238T801 1225T760
1206T741 1160Q741 1148 746 1125Q752 1102 813 910T879 717Q881 717 907 796T965 976T1009 1125Q1020 1169 1020 1225Q1020 1266 1015 1311T1004 1387T998 1422Q998 1444 1010 1460T1040 1477Q1210 1460 1269 1460Q1354 1460 1469 1476Q1474 1477 1482 1477Q1519
1477 1519 1432Q1519 1404 1510 1355T1500 1273Q1500 1226 1513 1175Q1517 1161 1532 1102T1571 952T1614 795T1637 727Q1645 727 1703 933T1761 1159Q1761 1181 1748 1200T1712 1219Q1687 1224 1672 1231T1651 1250T1643 1271T1642 1300Q1642 1480 1687 1503Q1818
1489 2005 1489Q2062 1489 2288 1503Q2317 1502 2326 1468T2336 1373V1314Q2336 1275 2327 1255T2302 1229T2265 1220T2218 1207T2166 1174T2111 1100T2057 970Q1878 409 1765 116Q1755 90 1748 76T1727 41T1692 10T1644 0Z" />
<glyph unicode="X" horiz-adv-x="1774" d="M638 -13Q512 0 371 0Q209 0 68 -13Q39 0 39 59Q39 139 43 178T55 236T84 265T129 285T199 329T293 419Q296 423 366 499T486 636T587 763Q549 808 452 930T316 1103Q292 1135 247 1156T165 1186T100 1214T71 1265Q71
1355 76 1408T86 1475T101 1503Q183 1489 528 1489Q795 1489 909 1503Q924 1493 937 1406T951 1257Q951 1242 928 1227T905 1192Q905 1184 909 1173T921 1146T938 1118T959 1085T980 1054T1002 1022T1022 995Q1072 1057 1115 1121T1158 1198Q1158 1210 1145 1217T1116
1230T1087 1255T1074 1311Q1074 1474 1120 1503Q1195 1489 1374 1489Q1573 1489 1690 1503Q1719 1493 1719 1417Q1719 1385 1719 1371T1718 1332T1716 1298T1711 1271T1702 1248T1690 1232T1674 1219T1651 1213Q1629 1209 1614 1205T1585 1197T1555 1183T1526 1164T1492
1136T1455 1099T1406 1048T1348 985T1273 903T1182 805Q1227 740 1463 453Q1500 403 1538 370T1602 326T1651 301T1689 273T1711 222T1719 124Q1719 90 1718 71T1708 26T1681 -13Q1548 0 1253 0Q994 0 878 -13Q857 3 843 75T828 189Q828 222 842 240T874 261T905
273T920 298Q920 327 878 393L764 567Q760 561 727 518T666 437T612 360T586 312Q586 295 601 285T635 269T668 238T684 170V161Q684 15 638 -13Z" />
<glyph unicode="Y" horiz-adv-x="1609" d="M1085 605Q1085 539 1087 494T1097 399T1122 324T1166 294Q1184 291 1193 289T1216 279T1236 259T1242 227Q1242 156 1225 81T1174 -13Q1059 0 803 0T432 -13Q399 5 382 80T364 227Q364 246 370 259T389 279T412 288T440
294Q466 297 483 323T508 399T517 493T520 605V737L386 920Q351 967 326 998T263 1069T183 1137T97 1176Q85 1179 64 1183T34 1190T13 1202T-6 1227T-15 1269T-20 1335V1349Q-20 1398 -9 1450T22 1503Q194 1489 440 1489Q614 1489 810 1503Q824 1503 843 1409T862
1259Q862 1242 850 1233T822 1222T794 1213T781 1192Q781 1172 799 1144L914 966Q1037 1149 1056 1178Q1064 1190 1064 1200T1044 1217T1005 1237T985 1272V1287Q985 1483 1030 1503Q1132 1489 1295 1489Q1339 1489 1454 1496T1601 1503Q1629 1503 1629 1329V1295Q1629
1255 1613 1237T1567 1215T1506 1208T1434 1184T1364 1122Q1321 1063 1263 985T1178 870T1126 796T1085 733V605Z" />
<glyph unicode="Z" horiz-adv-x="1472" d="M117 -13Q111 -11 97 24T69 112T56 205Q56 215 61 225Q134 343 153 373L713 1246Q729 1276 729 1285Q729 1301 633 1301Q579 1301 525 1273T431 1204T359 1123T306 1054T282 1025Q209 1025 130 1058T50 1123Q50 1129
51 1132Q64 1208 98 1316T170 1503Q425 1489 850 1489Q1073 1489 1369 1503Q1385 1474 1389 1441T1394 1314Q1394 1282 1351 1209T1226 1014Q822 372 749 256Q748 255 748 254Q748 241 895 241Q952 241 1004 273T1091 351T1154 443T1197 521T1216 553Q1270 553
1326 534T1412 493T1443 463Q1438 383 1388 223T1299 -13Q1026 0 686 0Q355 0 117 -13Z" />
<glyph unicode="[" horiz-adv-x="1033" d="M680 1054V295Q680 270 681 255T689 228T701 211T726 202T761 197T813 194Q831 192 841 190T866 184T889 173T903 155T909 127Q909 52 889 -28T831 -127Q649 -100 402 -100Q347 -100 271 -104T179 -108Q176 -108 171
-108T163 -107Q135 -97 135 88V1262Q135 1273 135 1301T134 1345Q134 1487 160 1496Q162 1496 167 1496T176 1497Q191 1497 267 1493T399 1489Q646 1489 828 1516Q865 1497 885 1417T906 1262Q906 1243 898 1230T874 1210T845 1200T810 1195Q721 1189 701 1167T680
1054Z" />
<glyph unicode="\" horiz-adv-x="1214" d="M1121 188Q1150 130 1150 106Q1150 77 1130 56T1077 24T1014 8T954 3Q918 3 890 10T844 27T810 59T783 98T758 148Q625 429 542 601T337 1002T111 1400Q62 1478 62 1512Q62 1550 108 1568T266 1587Q391 1587 430 1510Q529
1313 1121 188Z" />
<glyph unicode="]" horiz-adv-x="1033" d="M320 295V1054Q320 1144 300 1166T190 1195Q169 1197 156 1200T126 1210T102 1230T94 1262Q94 1337 114 1417T172 1516Q354 1489 601 1489Q656 1489 732 1493T824 1497Q827 1497 832 1497T840 1496Q866 1487 866 1345Q866
1329 866 1301T865 1262V88Q865 -97 837 -107Q835 -107 830 -107T821 -108Q806 -108 730 -104T598 -100Q351 -100 169 -127Q132 -108 112 -28T91 127Q91 146 98 159T123 179T152 188T187 194Q224 196 238 197T273 202T299 211T311 228T319 255T320 295Z" />
<glyph unicode="^" horiz-adv-x="930" d="M390 1096H540Q607 1035 700 938T821 807Q832 793 848 774T874 745T892 722T905 700T909 681Q909 649 878 635T772 620Q714 620 686 635T616 693L465 884L314 693Q273 651 245 636T158 620Q84 620 53 634T21 681Q21 690
25 699T38 721T56 744T81 774T109 807Q136 840 229 937T390 1096Z" />
<glyph unicode="_" horiz-adv-x="1183" d="M179 -27Q231 -26 1004 -26Q1108 -26 1147 -23Q1183 -37 1183 -108Q1183 -203 1128 -203Q1123 -201 1066 -200T955 -198L901 -197H200Q62 -201 55 -205Q0 -205 0 -110Q0 -39 36 -25Q62 -27 179 -27Z" />
<glyph unicode="`" horiz-adv-x="1334" d="M947 1149H796Q727 1208 629 1304T495 1438Q476 1458 444 1489T399 1535T387 1564Q387 1596 423 1610T544 1625Q624 1625 662 1606T735 1532Q761 1490 844 1337T947 1149Z" />
<glyph unicode="a" horiz-adv-x="1363" d="M729 124Q669 50 579 12T394 -27Q303 -27 235 0T128 76T70 183T51 310Q51 377 64 430T100 522T159 588T234 632T325 659T428 672T540 676Q577 676 615 673T674 666L694 663V781Q694 840 671 864T593 888Q545 888 492
873T398 837T322 794T268 757L250 742Q203 742 179 772T154 858Q154 904 173 940T223 1001T301 1043T394 1070T499 1085T604 1092T706 1094Q808 1094 883 1079T1011 1031T1096 953T1148 842T1173 702T1180 528Q1180 497 1180 482T1181 441T1184 401T1189 368T1198
338T1211 316T1230 298T1255 289Q1256 289 1267 289T1285 286T1301 276T1314 254T1319 214Q1319 193 1314 148T1289 43T1237 -27Q1232 -26 1209 -20T1177 -12T1142 -7T1087 -2T1013 -1Q943 -1 884 -6T805 -11Q768 -11 729 124ZM684 271Q694 320 694 492Q694 524
682 533T610 542Q559 542 531 504T503 394Q503 326 527 269T594 212Q620 212 648 231T684 271Z" />
<glyph unicode="b" horiz-adv-x="1486" d="M719 1415Q719 1411 717 1341T712 1180T709 1038Q824 1094 950 1094Q1048 1094 1137 1061T1296 967T1407 813T1449 609Q1449 460 1399 338T1263 137T1062 16T817 -27Q611 -27 436 67Q296 -14 200 -14Q94 -14 94 91Q94
108 105 128T133 166T167 199T196 222L207 231Q224 363 224 1021Q224 1054 223 1074T215 1124T193 1172T152 1205T84 1225Q52 1228 43 1240T34 1285Q34 1354 51 1425T98 1516Q260 1489 443 1489Q495 1489 562 1495T646 1502Q691 1502 705 1486T719 1415ZM709 514Q709
441 713 387T730 287T764 217T819 193Q920 193 920 538Q920 695 894 791T816 887Q797 887 782 880T755 857T736 824T723 777T715 723T711 658T710 590T709 514Z" />
<glyph unicode="c" horiz-adv-x="1154" d="M1089 390L1120 340Q1120 165 1008 69T660 -27Q509 -27 388 19T192 143T78 317T38 519Q38 633 77 735T191 918T386 1046T659 1094Q865 1094 970 1023T1075 855Q1075 781 1014 728T855 674L743 908Q732 919 683 919T601
877T555 771T541 629Q541 477 611 392T786 307Q947 307 1089 390Z" />
<glyph unicode="d" horiz-adv-x="1468" d="M1268 1038Q1268 917 1268 806T1269 576Q1269 525 1270 494T1276 422T1291 356T1320 313T1367 289Q1368 289 1379 289T1397 286T1413 276T1426 254T1431 214Q1431 193 1426 148T1401 43T1349 -27Q1343 -26 1321 -21T1291
-15T1260 -10T1215 -5T1159 -2T1082 -1Q1019 -1 955 -6T875 -11Q830 -11 811 22T791 124Q723 -27 484 -27Q394 -27 319 7T192 98T106 231T54 388T38 556Q38 812 172 953T541 1094Q705 1094 793 1021Q793 1054 792 1074T784 1124T762 1172T721 1205T653 1225Q621
1228 612 1240T603 1285Q603 1354 620 1425T667 1516Q824 1489 1002 1489Q1054 1489 1121 1495T1205 1502Q1250 1502 1264 1486T1278 1415Q1278 1411 1276 1341T1271 1180T1268 1038ZM571 514Q571 441 575 387T592 287T626 217T681 193Q782 193 782 538Q782 695
756 791T678 887Q659 887 644 880T617 857T598 824T585 777T577 723T573 658T572 590T571 514Z" />
<glyph unicode="e" horiz-adv-x="1229" d="M543 700Q572 700 632 699T725 697Q765 697 779 713T794 769Q794 842 764 881T677 920Q595 920 569 869T543 700ZM1094 98Q963 -27 670 -27Q499 -27 359 39T133 236T48 538Q48 800 217 947T663 1094Q881 1094 1025 977T1185
693Q1162 539 812 532Q711 529 561 529Q571 413 637 358T800 302Q890 302 982 331T1144 408Q1178 393 1178 349Q1178 280 1151 203T1094 98Z" />
<glyph unicode="f" horiz-adv-x="972" d="M199 538Q199 769 196 769H190Q39 769 39 795Q39 822 38 864T36 926Q36 931 76 940T158 955L198 961Q198 1229 343 1372T747 1516Q842 1516 916 1494T1035 1436T1103 1356T1126 1267Q1126 1190 1068 1136T910 1081L759
1348Q679 1348 639 1311T599 1212Q599 1078 683 959Q685 959 728 959T823 960T894 961Q942 961 959 948T977 890Q977 781 889 781H684V587Q684 305 767 297Q790 293 801 290T827 280T848 260T854 228Q854 153 834 73T776 -27Q628 0 447 0T118 -27Q81 -8 61 72T40
228Q40 247 46 260T67 280T93 290T127 297Q199 305 199 538Z" />
<glyph unicode="g" horiz-adv-x="1294" d="M1282 -110Q1282 -534 654 -534Q527 -534 421 -516T248 -462T181 -378Q181 -296 263 -198Q68 -146 68 24Q68 68 81 110T120 193T168 261T224 327Q75 447 75 642Q75 759 115 847T228 989T395 1068T603 1094Q666 1094 712
1088T823 1064T910 1041Q912 1043 929 1067T962 1109T1004 1148T1064 1183T1136 1195Q1182 1195 1214 1180T1260 1140T1281 1095T1287 1056Q1287 988 1257 968T1143 947Q1044 947 1044 935Q1172 803 1172 637Q1172 470 1013 356T613 241Q585 241 554 245T520 250Q497
225 497 209Q497 181 540 167T653 150T805 144T973 131T1126 96T1238 20T1282 -110ZM624 384Q679 388 698 453T718 648T694 857T619 937Q592 937 573 913T543 848T529 766T525 678Q525 657 528 621T539 526T570 425T624 384ZM517 -223Q453 -223 406 -219V-238Q406
-258 408 -271T419 -300T447 -322T497 -330Q824 -330 894 -320T965 -255Q965 -234 920 -229T782 -223H517Z" />
<glyph unicode="h" horiz-adv-x="1666" d="M708 1038L707 969Q772 1036 867 1065T1103 1094Q1180 1094 1246 1072T1364 1007T1445 893T1475 731V562Q1475 521 1476 491T1482 423T1495 359T1519 316T1558 294Q1576 291 1585 289T1608 279T1628 259T1634 227Q1634
152 1614 72T1556 -27Q1434 0 1307 0Q1283 0 1221 -7T1127 -14Q1062 -14 1025 8T987 90Q987 133 988 225T990 407Q990 640 973 740T897 841Q837 841 785 812T707 718V587Q707 543 708 511T713 436T724 367T746 319T780 296Q803 292 814 289T840 279T861 259T867
227Q867 152 847 72T789 -27Q644 0 470 0Q290 0 141 -27Q104 -8 84 72T63 227Q63 246 69 259T90 279T116 289T150 296Q170 298 183 315T204 356T215 417T220 481T221 547V1021Q221 1055 220 1074T212 1124T191 1172T150 1205T82 1225Q50 1228 41 1240T32 1285Q32
1354 49 1425T96 1516Q258 1489 442 1489Q494 1489 561 1495T645 1502Q690 1502 704 1486T718 1415Q713 1338 708 1038Z" />
<glyph unicode="i" horiz-adv-x="927" d="M487 1171Q443 1171 395 1178T291 1202T201 1255T165 1340Q165 1516 480 1516Q560 1516 616 1499T698 1454T735 1397T746 1337Q746 1290 719 1256T650 1204T567 1179T487 1171ZM731 587Q731 542 732 511T737 436T750 366T775
318T814 294Q832 291 841 289T864 279T884 259T890 227Q890 152 870 72T812 -27Q667 0 493 0Q312 0 164 -27Q127 -8 107 72T86 227Q86 246 92 259T111 279T134 288T162 294Q190 297 208 321T233 386T243 463T246 547V599Q246 632 245 652T236 702T214 750T173 783T105
803Q73 806 64 818T55 863Q55 932 72 1003T119 1094Q281 1067 464 1067Q516 1067 581 1074T663 1081Q708 1081 722 1064T736 993Q736 989 735 911T733 736T731 587Z" />
<glyph unicode="j" horiz-adv-x="991" d="M628 1171Q584 1171 536 1178T432 1202T342 1255T306 1340Q306 1516 621 1516Q701 1516 757 1499T839 1454T876 1397T887 1337Q887 1290 860 1256T791 1204T708 1179T628 1171ZM409 599V-15Q409 -68 407 -100T396 -165T371
-212T324 -227Q300 -227 286 -217T267 -192T254 -159T236 -126T199 -101T132 -91Q84 -91 53 -120T21 -200T38 -291T79 -357T144 -401T217 -428T296 -442T368 -447T431 -448Q513 -448 580 -428T695 -373T778 -286T836 -177T871 -47T889 92T894 240V616Q894 667 895
757T898 918T900 993Q900 1047 886 1064T827 1081Q810 1081 743 1074T624 1067Q445 1067 283 1094Q253 1075 236 1004T219 863Q219 830 228 818T269 803Q309 799 336 784T378 750T399 702T408 652T409 599Z" />
<glyph unicode="k" horiz-adv-x="1622" d="M1469 1095Q1499 1087 1508 1062T1518 990Q1518 950 1516 933T1500 900T1469 877T1409 846T1320 792L1060 643Q1110 632 1149 618T1217 592T1268 562T1304 530T1332 494T1352 456T1370 413T1390 369Q1407 326 1429 308T1491
289Q1583 289 1583 223Q1583 213 1577 164T1556 50T1520 -27Q1517 -15 1452 -8T1303 0Q1115 0 1071 -27Q1034 -21 1014 28T981 160T962 262Q942 328 922 370T886 436T842 470T797 483T738 485H711Q717 302 784 296Q807 292 818 289T844 279T865 259T871 227Q871
152 851 72T793 -27Q648 0 474 0Q293 0 145 -27Q108 -8 88 72T67 227Q67 246 73 259T94 279T120 289T154 296Q178 298 193 321T215 387T224 463T226 547V1021Q226 1054 225 1074T217 1124T195 1172T154 1205T86 1225Q54 1228 45 1240T36 1285Q36 1354 53 1425T100
1516Q262 1489 445 1489Q497 1489 564 1495T648 1502Q693 1502 707 1486T721 1415Q721 1411 719 1341T714 1180T711 1038V735L932 884Q935 886 942 891T953 898T961 904T969 910T974 916T978 924T979 932Q979 944 967 971T954 1010Q954 1070 981 1095Q1018 1086
1102 1077T1267 1067Q1364 1067 1469 1095Z" />
<glyph unicode="l" horiz-adv-x="846" d="M684 1415Q684 1372 679 1217T673 1009V587Q673 543 674 511T679 436T690 367T712 319T746 296Q769 292 780 289T806 279T827 259T833 227Q833 152 813 72T755 -27Q610 0 436 0Q256 0 107 -27Q70 -8 50 72T29 227Q29 246
35 259T56 279T82 289T116 296Q140 298 155 321T177 387T186 463T188 547V1018Q188 1046 188 1062T184 1104T173 1147T153 1180T119 1208T69 1221Q37 1225 28 1235T19 1272Q19 1344 38 1421T93 1517Q159 1489 379 1489Q443 1489 517 1496T611 1503Q653 1503 668
1488T684 1415Z" />
<glyph unicode="m" horiz-adv-x="2258" d="M1228 0Q1204 0 1142 -8T1048 -16Q987 -16 953 6T918 88Q918 132 919 224T921 407Q921 635 903 727T818 820Q686 820 686 655V577Q686 533 686 509T689 447T697 389T711 345T735 310T770 294Q800 294 823 277T846 227Q846
152 826 72T768 -27Q630 0 469 0Q288 0 140 -27Q103 -8 83 72T62 227Q62 260 85 277T138 294Q190 304 205 365T221 547V574Q221 701 193 746T67 805Q43 810 37 823T30 879Q30 932 41 983T68 1064T94 1094Q270 1067 410 1067Q468 1067 535 1074T622 1081Q665 1081
680 1066T695 993L693 930Q871 1094 1094 1094Q1180 1094 1249 1054T1360 932Q1453 1021 1538 1057T1736 1094Q1882 1094 1978 997T2074 710Q2074 686 2071 637T2068 562Q2068 527 2068 503T2071 446T2078 389T2090 344T2110 310T2140 296Q2142 296 2152 294T2164
292T2176 289T2188 286T2198 281T2208 275T2215 267T2222 257T2225 244T2227 227Q2227 152 2207 72T2149 -27Q2028 0 1900 0Q1879 0 1823 -8T1738 -16Q1677 -16 1643 6T1608 88Q1608 132 1609 224T1611 407Q1611 465 1611 503T1608 585T1603 657T1593 714T1579
761T1558 793T1529 814T1491 820Q1461 820 1439 802T1406 755T1391 698T1386 642Q1386 304 1428 296Q1430 296 1440 294T1452 292T1464 289T1476 286T1486 281T1496 275T1503 267T1510 257T1513 244T1515 227Q1515 152 1498 72T1447 -27Q1336 0 1228 0Z" />
<glyph unicode="n" horiz-adv-x="1618" d="M1260 0Q1236 0 1174 -8T1080 -16Q1015 -16 978 6T940 88Q940 132 941 224T943 407Q943 633 924 726T838 820Q706 820 706 655V577Q706 533 706 509T709 447T715 389T728 345T749 310T780 294Q810 294 833 277T856 227Q856
152 836 72T778 -27Q636 0 469 0Q288 0 140 -27Q103 -8 83 72T62 227Q62 260 85 277T138 294Q190 304 205 365T221 547V574Q221 701 193 746T67 805Q43 810 37 823T30 879Q30 932 41 983T68 1064T94 1094Q270 1067 410 1067Q474 1067 544 1074T634 1081Q677 1081
692 1066T707 993L705 930Q781 1010 875 1052T1066 1094Q1141 1094 1206 1071T1323 1003T1404 882T1434 710Q1434 686 1431 637T1428 562Q1428 527 1428 503T1431 446T1438 389T1450 344T1470 310T1500 296Q1502 296 1512 294T1524 292T1536 289T1548 286T1558
281T1568 275T1575 267T1582 257T1585 244T1587 227Q1587 152 1567 72T1509 -27Q1388 0 1260 0Z" />
<glyph unicode="o" horiz-adv-x="1398" d="M700 -27Q411 -27 236 119T60 530Q60 794 221 944T688 1094Q836 1094 954 1061T1158 962T1291 790T1338 544Q1338 270 1170 122T700 -27ZM594 529Q594 340 616 252T703 164Q726 164 743 177T771 218T789 276T799 356T803
445T804 546Q804 592 804 621T800 701T791 784T773 851T744 902T700 919Q634 919 614 830T594 529Z" />
<glyph unicode="p" horiz-adv-x="1464" d="M688 91Q688 49 690 20T698 -46T720 -102T760 -125Q783 -129 794 -132T820 -142T841 -162T847 -194Q847 -269 827 -349T769 -448Q624 -421 450 -421Q270 -421 121 -448Q84 -429 64 -349T43 -194Q43 -175 49 -162T70 -142T96
-132T130 -125Q154 -123 170 -99T193 -34T202 42T204 126V553Q204 622 195 669T172 740T141 776T107 793T75 801T52 816T43 851Q43 885 48 930T72 1028T117 1095Q200 1067 399 1067Q455 1067 526 1074T631 1081Q654 1081 658 1059T662 933Q698 1021 783 1057T976
1094Q1071 1094 1147 1067T1274 992T1358 879T1407 737T1422 575Q1422 443 1382 336T1272 158T1109 51T908 13Q766 13 688 91ZM680 514Q680 441 684 387T701 287T735 217T790 193Q891 193 891 538Q891 695 865 791T787 887Q768 887 753 880T726 857T707 824T694
777T686 723T682 658T681 590T680 514Z" />
<glyph unicode="q" horiz-adv-x="1431" d="M668 193Q757 193 757 510V542Q757 586 757 613T754 684T745 757T729 814T703 858T664 872Q571 872 571 515Q571 450 574 403T586 303T615 222T668 193ZM1022 -421Q842 -421 650 -451Q620 -432 603 -361T586 -220Q586
-188 595 -176T636 -160Q681 -157 713 -142T761 -111T785 -65T794 -18T796 31Q671 -27 535 -27Q437 -27 347 14T188 128T78 314T36 560Q36 662 66 749T150 898T274 1005T428 1072T598 1094Q833 1094 1029 1002Q1147 1081 1228 1081Q1341 1081 1341 978Q1341 951
1318 916T1271 860L1248 838Q1242 717 1242 48Q1242 20 1242 4T1246 -38T1257 -81T1277 -116T1311 -144T1361 -157Q1393 -161 1402 -172T1411 -217Q1411 -286 1394 -357T1347 -448Q1196 -421 1022 -421Z" />
<glyph unicode="r" horiz-adv-x="1131" d="M702 537Q702 489 704 457T713 384T739 320T785 294Q803 291 812 289T835 279T855 259T861 227Q861 152 841 72T783 -27Q638 0 464 0Q284 0 135 -27Q98 -8 78 72T57 227Q57 246 63 259T82 279T105 288T133 294Q161 297
179 318T204 376T214 443T217 517V599Q217 632 216 652T207 702T185 750T144 783T76 803Q44 806 35 818T26 863Q26 932 43 1004T90 1095Q247 1067 415 1067Q456 1067 510 1074T578 1081Q623 1081 637 1064T651 993Q651 979 648 916Q769 1094 914 1094Q1007 1094
1056 1044T1105 920Q1105 835 1045 768T887 700L827 814Q782 814 747 781T702 669V537Z" />
<glyph unicode="s" horiz-adv-x="1137" d="M1101 325Q1101 234 1062 165T950 55T782 -7T568 -27Q323 -27 201 36T78 185Q78 249 143 296T312 343L390 199Q447 184 505 184Q552 184 586 203T620 249T594 301T526 346T441 381T353 412T288 437Q166 495 101 575T36
768Q36 848 84 912T212 1014T388 1073T588 1094Q797 1094 919 1025T1042 873Q1042 819 986 784T825 749L760 872Q749 884 702 894T606 905Q497 905 497 846Q497 815 543 781T666 726Q717 712 751 702T835 672T918 632T989 581T1049 515T1086 431T1101 325Z" />
<glyph unicode="t" horiz-adv-x="920" d="M770 188Q803 188 880 234Q917 218 917 141Q917 114 905 95Q851 34 749 3T542 -28Q472 -28 416 -17T321 21T253 74T207 151T179 238T164 343T159 453T158 575V844H106Q3 844 3 881Q3 946 29 1020Q40 1053 62 1060T160
1067Q193 1067 212 1095T260 1213Q349 1442 483 1442Q576 1442 643 1378V1118Q643 1081 644 1074T656 1067H833Q859 1067 867 1040T876 964Q876 887 845 866T735 844H643V528Q643 467 644 425T650 342T664 274T687 227T721 197T770 188Z" />
<glyph unicode="u" horiz-adv-x="1639" d="M967 599Q967 633 966 652T958 702T937 750T896 783T828 803Q796 806 787 818T778 863Q778 932 795 1003T842 1094Q999 1067 1177 1067Q1232 1067 1302 1074T1391 1081Q1435 1081 1446 1065T1458 993Q1458 990 1457 920T1454
754T1452 591Q1452 531 1452 500T1457 425T1470 358T1495 316T1536 290Q1538 290 1548 289T1566 286T1582 277T1595 254T1600 215Q1600 194 1595 149T1570 44T1518 -26Q1512 -25 1490 -20T1460 -14T1429 -9T1384 -4T1328 -1T1251 0Q1185 0 1118 -5T1034 -10Q950
-10 950 125Q895 40 809 7T597 -27Q534 -27 483 -16T393 20T325 76T275 151T242 242T222 350T213 468T210 599Q210 641 208 666T195 725T158 778T90 802Q58 806 49 818T40 863Q40 932 57 1003T104 1094Q244 1067 410 1067Q467 1067 540 1074T633 1081Q678 1081
692 1064T706 993Q706 989 703 921T698 761T695 614Q695 530 695 491T700 397T712 319T735 270T773 236T830 227Q857 227 878 236T913 259T938 301T953 355T962 425T966 505T967 599Z" />
<glyph unicode="v" horiz-adv-x="1299" d="M430 87Q412 128 318 351T176 679Q150 734 123 764T75 799T37 808T11 823T2 868Q2 990 10 1032T43 1094Q232 1067 360 1067Q556 1067 685 1095Q708 1087 717 1039T727 871Q727 846 713 834T681 821T650 809T635 775Q635
770 684 639T745 475Q766 418 777 418Q789 418 804 463Q828 518 879 647T930 786Q930 803 916 812T886 825T855 842T841 878Q841 1081 896 1095Q1012 1067 1091 1067Q1173 1067 1249 1094Q1251 1095 1255 1095Q1266 1095 1272 1079T1281 1026T1284 965T1285 891Q1285
851 1273 834T1242 814T1201 810T1157 792T1120 740Q1079 632 1005 444T876 122L822 -12Q822 -28 581 -28Q520 -28 490 -8T430 87Z" />
<glyph unicode="w" horiz-adv-x="2031" d="M380 87Q360 141 314 267T228 501T155 688Q133 744 108 774T66 809T33 818T10 833T2 878Q2 995 9 1035T38 1095Q240 1067 360 1067Q556 1067 685 1095Q708 1087 717 1039T727 871Q727 848 716 838T691 826T667 816T655
785Q655 781 676 718T720 587T745 515Q755 482 762 482Q765 482 769 490T776 506L779 515L881 793Q869 809 853 814T830 829T824 878Q824 995 831 1035T860 1094Q1017 1067 1112 1067Q1314 1067 1447 1095Q1470 1087 1479 1039T1489 871Q1489 848 1478 838T1453
826T1429 816T1417 785Q1417 781 1438 718T1482 587T1507 515Q1517 482 1524 482Q1528 482 1534 498T1541 515L1557 556Q1573 598 1592 646T1626 738T1642 786Q1642 803 1631 812T1608 825T1584 842T1573 878Q1573 1081 1628 1095Q1744 1067 1823 1067Q1905 1067
1981 1094Q1982 1095 1987 1095Q1998 1095 2004 1079T2013 1026T2016 965T2017 891Q2017 851 2005 834T1974 814T1933 810T1889 792T1852 740Q1810 628 1554 -12Q1554 -28 1303 -28Q1242 -28 1211 -8T1152 87Q1128 149 1075 294T996 508L802 -12Q802 -28 531 -28Q470
-28 440 -8T380 87Z" />
<glyph unicode="x" horiz-adv-x="1513" d="M790 296L670 419Q543 285 543 281Q543 264 558 255T592 242T626 225T642 189Q642 -14 587 -28Q421 0 302 0Q197 0 94 -27Q92 -28 88 -28Q77 -28 71 -12T62 41T59 102T58 176Q58 210 74 227T111 248T161 264T209 297Q235
321 337 417T500 569Q476 591 438 626T377 683T341 712Q279 760 229 784T161 811T134 824T125 868Q125 990 133 1032T166 1094Q382 1067 533 1067Q710 1067 825 1095Q848 1088 857 1044T867 891Q867 866 856 854T831 841T807 829T795 795Q795 794 802 785L908 667Q1040
810 1040 816Q1040 833 1028 837T1001 840T974 846T961 878Q961 1081 1016 1095Q1149 1067 1241 1067Q1320 1067 1389 1094Q1390 1095 1395 1095Q1406 1095 1412 1079T1421 1026T1424 965T1425 891Q1425 857 1409 840T1372 819T1322 803T1274 770Q1172 668 1067
558Q1269 369 1284 356Q1325 321 1360 298T1411 270T1437 257T1451 239T1453 199Q1453 77 1445 35T1412 -27Q1223 0 1095 0Q899 0 770 -28Q747 -20 738 28T728 196Q728 221 737 233T759 248T780 261T790 296Z" />
<glyph unicode="y" horiz-adv-x="1422" d="M974 221Q832 -28 771 -113Q655 -277 540 -319Q490 -338 434 -338Q375 -338 310 -317T193 -249T141 -143Q141 -99 156 -62T206 -24Q332 -48 371 -48Q408 -48 423 -48T461 -40T493 -24T524 13T562 69T612 156L521 157Q296
546 194 717Q168 760 141 783T93 811T57 819T32 832T23 868Q23 990 31 1032T64 1094Q253 1067 381 1067Q563 1067 686 1095Q709 1087 718 1039T728 871Q728 846 717 834T692 821T667 809T656 775Q656 773 669 747T700 684T737 611T771 545T788 512Q807 475 819
475T847 512Q850 519 885 596T940 722T961 776Q961 792 946 801T912 814T878 831T862 868Q862 1080 927 1095Q1076 1067 1182 1067Q1269 1067 1350 1094Q1351 1095 1356 1095Q1367 1095 1373 1079T1382 1026T1385 965T1386 891Q1386 857 1379 837T1362 811T1336
800T1306 792T1273 776T1243 739Q1200 663 1156 578T1055 381T974 221Z" />
<glyph unicode="z" horiz-adv-x="1163" d="M153 -12Q149 -13 141 -13Q63 -13 63 126Q63 184 118 265Q162 330 257 465T424 705T539 889H477Q429 889 376 853T290 780T256 744Q90 744 90 767Q90 904 139 1081Q510 1067 599 1067Q839 1067 1027 1082Q1065 1078 1077
1054T1090 976Q1090 914 983 754L720 361L629 223H712Q782 223 834 274T934 436Q938 436 948 436T963 437Q1108 437 1108 346Q1108 285 1073 161T1015 -15Q670 0 469 0Q307 0 153 -12Z" />
<glyph unicode="{" horiz-adv-x="966" d="M127 583T101 583T60 613T44 685Q44 725 59 755T101 785T146 789T178 799T200 819T213 845T220 882T222 925T223 979Q223 1107 252 1211T328 1384T437 1499T565 1566T698 1586Q793 1586 860 1555T927 1476Q927 1362 811
1362Q796 1362 767 1369T728 1376Q695 1376 679 1352T654 1253T646 1029Q646 790 427 684Q646 577 646 339Q646 189 654 115T678 17T728 -8Q737 -8 766 -2T811 5Q865 5 896 -19T927 -108Q927 -155 861 -186T698 -218Q631 -218 566 -198T438 -132T328 -17T252 156T223
389Q223 426 223 443T220 486T214 523T201 548T179 568T146 578Z" />
<glyph unicode="|" horiz-adv-x="542" d="M102 709Q102 731 98 1138T93 1568Q93 1608 137 1622T289 1636Q372 1636 409 1627T446 1585Q446 1567 445 1520T443 1365T441 1089Q441 848 441 646T441 322T442 116T442 -11T442 -63Q442 -90 432 -109T407 -137T367 -152T321
-159T269 -160Q231 -160 209 -159T160 -151T120 -128T107 -85Q107 -34 105 248T102 709Z" />
<glyph unicode="}" horiz-adv-x="968" d="M892 583T866 583T821 579T789 569T767 549T754 523T747 486T745 443T744 389Q744 261 715 157T639 -16T530 -131T402 -198T269 -218Q173 -218 107 -187T40 -108Q40 -44 71 -20T156 5Q172 5 201 -1T239 -8Q272 -8 288
16T313 115T321 339Q321 577 540 684Q321 790 321 1029Q321 1179 313 1253T289 1351T239 1376Q230 1376 201 1369T156 1362Q40 1362 40 1476Q40 1523 107 1554T269 1586Q336 1586 401 1566T529 1500T639 1385T715 1212T744 979Q744 942 744 925T747 882T753 845T766
820T788 800T821 790T866 785T907 755T923 685Q923 644 908 614Z" />
<glyph unicode="~" horiz-adv-x="1024" d="M920 1026Q951 928 951 851Q951 751 901 690T743 629Q679 629 594 653T441 702T348 727Q314 727 304 703T293 637Q287 622 204 622Q91 622 88 637Q73 705 73 765Q73 817 84 861T120 942T190 1001T296 1022Q353 1022 433
998T579 951T667 927Q695 927 710 947T726 1024Q726 1025 740 1026T778 1030T823 1032Q883 1032 920 1026Z" />
<glyph unicode="&#xa0;" horiz-adv-x="250" />
<glyph unicode="&#xa1;" horiz-adv-x="657" d="M304 1516T340 1516T413 1508T490 1483T554 1432T579 1350Q579 1318 569 1290T535 1234T459 1188T333 1171Q78 1171 78 1347Q78 1396 107 1432T180 1485T264 1509ZM331 1071Q371 1071 393 1070T432 1064T454 1053T464
1031T469 1000T470 955T477 895Q493 777 529 572T591 217T618 49Q618 7 597 -11T528 -29H132Q85 -29 64 -11T42 49Q42 68 68 216T130 571T183 895Q187 924 189 955T191 1000T195 1031T205 1052T228 1063T268 1070T331 1071Z" />
<glyph unicode="&#xa2;" horiz-adv-x="1181" d="M1112 480L1143 430Q1143 149 870 83V-261Q869 -264 868 -277T864 -291T854 -297T829 -303T783 -304Q762 -304 752 -296T741 -262Q741 -219 740 -104T738 64Q720 63 683 63H650V-261Q649 -264 648 -277T644 -291T634
-297T609 -303T563 -304Q542 -304 532 -296T521 -262Q521 -217 520 -97T518 79Q371 108 266 190T111 380T61 609Q61 708 90 798T175 963T322 1093T526 1170Q524 1465 521 1483Q521 1516 600 1516Q651 1516 658 1495Q650 1391 650 1350V1184Q660 1185 682 1185T746
1183Q744 1464 741 1483Q741 1516 820 1516Q871 1516 878 1495Q870 1391 870 1350V1167Q985 1145 1045 1083T1106 945T1048 816T889 762L788 970Q765 983 716 983Q630 983 587 907T544 719Q544 567 619 482T809 397Q970 397 1112 480Z" />
<glyph unicode="&#xa3;" horiz-adv-x="1517" d="M236 841H257V964Q257 1229 400 1372T786 1516Q915 1516 1042 1430Q1044 1434 1044 1436Q1053 1467 1060 1478T1094 1495T1180 1501L1297 1493Q1307 1467 1322 1424T1363 1278T1389 1107Q1389 1069 1320 1047T1183
1024Q1163 1024 1145 1043T1114 1092T1080 1154T1038 1217T976 1265T889 1285Q807 1285 774 1247T741 1137Q741 1093 779 991T821 842H911Q1015 842 1054 845Q1090 831 1090 760Q1090 665 1035 665Q1019 671 822 671V420Q822 204 854 204Q922 204 974 221T1057
268T1112 334T1151 409T1182 483T1220 547T1272 590Q1285 597 1311 597Q1368 597 1426 570T1484 506Q1473 431 1422 269T1330 14Q1312 -28 1265 -28Q1263 -28 1229 -25T1135 -18T997 -10T807 -3T579 0Q322 0 136 -27Q99 -8 79 72T58 227Q58 246 64 259T83 279T106
288T134 294Q173 297 199 316T237 370T253 437T257 515V671Q119 667 112 663Q57 663 57 758Q57 829 93 843Q119 841 236 841Z" />
<glyph unicode="&#xa4;" horiz-adv-x="1053" d="M524 685Q409 685 328 735L255 660Q177 578 175 572Q164 561 149 561Q126 561 91 593T56 651Q56 654 60 660T72 675T90 693T115 718T144 747L225 829Q163 918 163 1034Q163 1154 228 1244L205 1268Q79 1392 69 1396Q58
1406 58 1422Q58 1445 90 1480T147 1515Q151 1515 157 1512T172 1500T190 1483T214 1457T244 1427L334 1337Q415 1384 524 1384Q632 1384 716 1338L806 1427Q820 1440 835 1456T859 1481T877 1499T892 1511T902 1515Q927 1515 959 1481T991 1422Q991 1405 980 1396Q976
1394 942 1362T876 1299L845 1268L823 1246Q893 1154 893 1034Q893 917 826 826L906 747Q915 738 927 726T946 707T962 691T976 677T985 666T992 657T994 651Q994 625 959 593T901 561Q886 561 875 572Q874 575 854 597T814 640L795 660L722 734Q638 685 524 685ZM742
1034Q742 1143 677 1204T524 1266T373 1205T310 1034Q310 924 373 864T524 804Q613 804 677 865T742 1034Z" />
<glyph unicode="&#xa5;" horiz-adv-x="1748" d="M475 605Q476 605 516 605T589 606V716Q330 714 321 710Q266 710 266 805Q266 876 302 890Q341 887 445 887H476L452 920Q414 970 392 998T329 1068T248 1137T163 1176Q151 1179 130 1183T100 1190T79 1202T60 1227T51
1269T46 1335V1349Q46 1398 57 1450T88 1503Q307 1475 506 1475Q624 1475 876 1503Q890 1503 909 1409T928 1259Q928 1242 916 1233T888 1222T860 1213T847 1192Q847 1172 865 1144L980 966Q1103 1149 1122 1178Q1130 1190 1130 1200T1110 1217T1071 1237T1051
1272V1287Q1051 1484 1096 1504Q1230 1475 1361 1475Q1405 1475 1520 1489T1667 1503Q1695 1503 1695 1329V1295Q1695 1255 1679 1237T1633 1215T1572 1208T1500 1184T1430 1122Q1389 1065 1329 985T1258 889H1308Q1412 889 1451 892Q1487 878 1487 807Q1487 712
1432 712Q1427 714 1370 715T1259 718H1205H1149V607H1278Q1382 607 1421 610Q1457 596 1457 525Q1457 430 1402 430Q1397 432 1341 433T1230 436H1175H1156Q1173 301 1232 294Q1250 291 1259 289T1282 279T1302 259T1308 227Q1308 152 1288 72T1230 -27Q1090 0
869 0T508 -27Q471 -8 451 72T430 227Q430 246 436 259T455 279T478 288T506 294Q566 301 581 434Q358 430 351 428Q296 428 296 523Q296 594 332 608Q371 605 475 605Z" />
<glyph unicode="&#xa6;" horiz-adv-x="525" d="M432 586Q432 479 432 264T433 -63Q433 -90 423 -109T398 -137T358 -152T312 -159T260 -160Q222 -160 200 -159T151 -151T111 -128T98 -85Q98 -55 95 181T92 551Q92 606 125 621T275 637Q358 637 395 628T432 586ZM432
1585L433 987Q433 960 423 941T398 913T358 898T312 891T260 890Q222 890 200 891T151 899T111 922T98 965Q98 994 96 1071T93 1205Q93 1226 93 1386T92 1568Q92 1608 131 1622T275 1636Q358 1636 395 1627T432 1585Z" />
<glyph unicode="&#xa7;" horiz-adv-x="1197" d="M452 588Q489 575 551 553T645 520T717 495T777 476T806 470T820 484T827 520Q827 600 763 625Q702 649 607 687T467 743T408 761Q400 761 394 746T387 711Q387 615 452 588ZM1061 374Q1131 279 1131 177Q1131 111
1099 53T1003 -52T831 -127T581 -155Q452 -155 337 -120T146 -16T70 141Q70 225 203 225Q232 225 264 225T301 226Q365 226 389 203T432 123Q439 90 468 73T535 56Q581 56 617 74T653 121Q653 136 646 150T622 178T589 203T546 226T501 245T451 263T406 278T362
292Q197 343 133 419T69 620Q69 753 164 853Q81 951 81 1052Q81 1193 232 1290T621 1387Q1087 1387 1087 1124Q1087 1112 1083 1101T1067 1075T1026 1051T954 1042Q928 1042 899 1042T866 1041Q833 1041 810 1049T773 1077T752 1111T734 1157Q727 1176 697 1186T627
1197Q588 1197 559 1182T530 1138Q530 1107 576 1073T699 1018Q750 1004 784 994T868 964T951 924T1022 873T1082 807T1119 723T1134 617Q1134 476 1061 374Z" />
<glyph unicode="&#xa8;" horiz-adv-x="1066" d="M75 1255T75 1332T127 1462T280 1515Q379 1515 428 1462T478 1332T429 1202T280 1148Q179 1148 127 1201ZM588 1255T588 1332T640 1462T793 1515Q892 1515 941 1462T991 1332T942 1202T793 1148Q692 1148 640 1201Z" />
<glyph unicode="&#xa9;" horiz-adv-x="1716" d="M866 -27Q707 -27 563 25T307 174T129 419T63 748Q63 983 168 1158T456 1425T873 1516Q1046 1516 1193 1458T1441 1299T1598 1059T1655 758Q1655 535 1549 354T1263 73T866 -27ZM867 111Q1038 111 1180 193T1407
425T1491 758Q1491 936 1415 1077T1198 1300T873 1382Q688 1382 544 1308T316 1088T232 750Q232 602 284 479T425 277T627 154T867 111ZM899 322Q784 322 692 359T545 460T460 600T431 761Q431 842 457 916T530 1050T654 1146T822 1182Q884 1182 929 1171T1028
1130Q1026 1144 1026 1147Q1026 1164 1038 1169T1093 1175Q1141 1175 1162 1167T1196 1130T1220 1035Q1228 984 1228 960Q1228 923 1218 914T1168 902Q1113 897 1107 897Q1086 897 1067 927Q1038 974 998 999T918 1025Q858 1025 818 974T777 831Q777 706 846 629T1015
552Q1119 552 1216 607Q1237 568 1237 528Q1237 444 1147 383T899 322Z" />
<glyph unicode="&#xaa;" horiz-adv-x="907" d="M470 908Q433 861 378 837T264 813Q154 813 102 873T49 1024Q49 1082 65 1124T108 1191T175 1230T258 1249T356 1254Q378 1254 401 1252T436 1248L448 1245V1319Q448 1356 434 1371T389 1386Q341 1386 288 1363T204
1318L174 1295Q114 1295 114 1368Q114 1417 146 1449T236 1494T344 1512T460 1516Q539 1516 594 1501T684 1460T738 1388T764 1290T771 1161Q771 1130 771 1115T774 1078T781 1044T795 1024T818 1011Q819 1011 826 1011T837 1009T846 1003T855 989T858 964Q858
934 846 878T807 813Q803 814 791 817T773 821T755 824T729 827T696 828T652 829Q608 829 571 826T522 823Q497 823 470 908ZM441 1000Q448 1030 448 1136Q448 1158 441 1164T399 1170Q367 1170 350 1146T332 1077Q332 1035 347 999T389 963Q404 963 420 975T441
1000Z" />
<glyph unicode="&#xab;" horiz-adv-x="1440" d="M689 534Q689 559 740 622T865 759T1011 901T1136 1016L1188 1061Q1198 1069 1208 1069Q1238 1069 1308 990T1379 865Q1379 849 1366 836Q1126 612 1058 534Q1089 499 1168 424T1312 290L1376 232Q1389 219 1389
203Q1389 174 1352 124T1271 37T1208 -1Q1198 -1 1187 7Q1177 16 1159 32T1089 95T990 187T886 288T787 391T718 476T689 534ZM53 534Q53 574 178 705T426 949T552 1061Q562 1069 572 1069Q602 1069 672 990T743 865Q743 849 730 836Q490 612 422 534Q453 499 532
424T676 290L740 232Q753 219 753 203Q753 174 716 124T635 37T572 -1Q562 -1 551 7Q541 16 523 32T453 95T354 187T250 288T151 391T82 476T53 534Z" />
<glyph unicode="&#xac;" horiz-adv-x="1152" d="M1056 719Q1058 631 1058 558T1058 457T1061 404Q1047 368 976 368Q881 368 881 423Q886 445 886 650V721Q773 722 273 722Q135 718 128 714Q73 714 73 809Q73 880 109 894Q135 892 252 892Q275 892 454 892T803
892T975 893Q1000 893 1011 892T1035 886T1052 869T1056 835V719Z" />
<glyph unicode="&#xad;" horiz-adv-x="250" />
<glyph unicode="&#xae;" horiz-adv-x="1716" d="M866 -27Q707 -27 563 25T307 174T129 419T63 748Q63 983 168 1158T456 1425T873 1516Q1046 1516 1193 1458T1441 1299T1598 1059T1655 758Q1655 535 1549 354T1263 73T866 -27ZM867 111Q1038 111 1180 193T1407
425T1491 758Q1491 936 1415 1077T1198 1300T873 1382Q688 1382 544 1308T316 1088T232 750Q232 602 284 479T425 277T627 154T867 111ZM800 356H499V1169Q737 1178 865 1178Q902 1178 927 1178T995 1173T1066 1161T1129 1138T1184 1102T1219 1048T1234 973Q1234
822 1060 784Q1107 776 1141 763T1198 735T1233 696T1253 649T1261 591T1262 524T1260 445T1260 356H959V531Q959 658 941 695T853 732H800V356ZM797 1065V826Q833 824 857 824Q897 824 920 853T944 959Q944 1068 869 1068L797 1065Z" />
<glyph unicode="&#xaf;" horiz-adv-x="915" d="M120 1207Q82 1207 82 1339Q82 1489 128 1489Q186 1489 325 1488T549 1486H785Q811 1486 822 1458T833 1351Q833 1206 786 1206Q720 1206 572 1206T357 1205Q316 1205 237 1206T120 1207Z" />
<glyph unicode="&#xb0;" horiz-adv-x="759" d="M372 916Q270 916 195 960T86 1070T51 1214Q51 1271 71 1323T130 1419T232 1487T372 1513Q524 1513 610 1424T696 1214T611 1005T372 916ZM565 1214Q565 1308 508 1360T372 1412T238 1360T182 1214Q182 1120 238
1069T372 1017T507 1069T565 1214Z" />
<glyph unicode="&#xb1;" horiz-adv-x="962" d="M730 831Q834 831 873 834Q909 820 909 749Q909 644 854 644Q848 646 782 647T651 650H587H574Q575 576 575 416Q575 379 578 347Q562 310 493 310Q388 310 388 365Q390 371 391 438T394 568V632V648H376Q122 647
109 642Q54 642 54 747Q54 818 90 832Q129 829 233 829H392V843Q391 1097 386 1110Q386 1135 412 1150T491 1166Q560 1166 576 1129Q573 1090 573 986V830Q657 831 730 831ZM273 170Q412 172 550 172T754 173T833 175Q869 161 869 90Q869 -5 814 -5Q809 -3 753
-2T642 0L587 1H574Q162 -2 149 -7Q94 -7 94 88Q94 159 130 173Q169 170 273 170Z" />
<glyph unicode="&#xb2;" horiz-adv-x="1173" d="M163 1473Q331 1515 635 1515Q716 1515 789 1502T928 1462T1033 1384T1072 1265Q1072 1202 1049 1141T993 1034T907 938T812 854T711 776T623 704H658Q694 704 721 707T789 721T863 760T918 834Q973 859 1015 859Q1046
859 1080 842T1114 790Q1114 737 1074 625T1005 461Q945 417 438 417Q374 417 275 417T147 418Q123 427 97 466T68 543Q69 562 92 597T161 683T239 767T326 857Q581 1116 581 1255Q581 1353 519 1353Q473 1353 399 1301T275 1199T218 1138Q174 1138 117 1162T59
1211Q59 1297 91 1372T163 1473Z" />
<glyph unicode="&#xb3;" horiz-adv-x="1175" d="M212 421Q160 447 107 514T53 634Q53 672 104 709T202 747Q207 747 228 731T278 694T360 658T474 641Q662 641 662 774Q662 918 470 918Q444 918 397 916T341 914Q324 916 316 936T308 1010Q308 1087 348 1104Q376
1102 390 1102Q512 1103 569 1137T627 1230Q627 1281 596 1314T519 1348T436 1329T372 1281T326 1225T288 1178T256 1158Q192 1158 144 1184T96 1232Q96 1336 156 1418T288 1507Q365 1515 619 1515Q808 1515 899 1445T991 1273Q991 1204 946 1144T830 1064Q949
1055 1034 964T1120 772Q1120 648 1046 561T851 433T577 392Q407 392 212 421Z" />
<glyph unicode="&#xb4;" horiz-adv-x="671" d="M50 1149Q193 1359 302 1532Q336 1586 370 1605T474 1625Q554 1625 587 1611T620 1564Q620 1550 607 1535T558 1489T502 1438Q467 1404 354 1307T162 1149H50Z" />
<glyph unicode="&#xb5;" horiz-adv-x="1722" d="M242 -265L243 599Q243 628 242 643T238 685T227 728T207 761T173 789T123 802Q91 806 82 818T73 863Q73 932 90 1003T137 1094Q288 1067 462 1067Q520 1067 593 1073T685 1080Q730 1080 744 1064T758 993Q758 989
755 921T750 761T747 614Q747 530 747 491T752 397T764 319T787 270T825 236T882 227Q909 227 930 236T965 259T990 301T1005 355T1014 425T1018 505T1019 599Q1019 633 1018 652T1010 702T989 750T948 783T880 803Q848 806 839 818T830 863Q830 932 847 1003T894
1094Q1051 1067 1229 1067Q1281 1067 1348 1073T1432 1080Q1477 1080 1491 1064T1505 993Q1505 990 1502 921T1496 758T1493 602Q1493 562 1493 542T1494 488T1498 437T1505 394T1516 355T1533 326T1556 302T1588 290Q1590 290 1600 289T1618 286T1634 277T1647
254T1652 215Q1652 194 1647 149T1622 44T1570 -26Q1564 -25 1542 -20T1512 -14T1481 -9T1436 -4T1380 -1T1303 0Q1237 0 1170 -5T1086 -10Q1002 -10 1002 125Q906 19 685 0Q688 -71 708 -111T778 -160Q779 -160 790 -161T808 -164T824 -172T837 -191T842 -225Q842
-241 837 -276T812 -359T760 -415Q754 -414 737 -410T714 -405T690 -400T659 -396T623 -393T574 -391T513 -390Q456 -390 399 -395T326 -400Q282 -400 263 -367T242 -265Z" />
<glyph unicode="&#xb6;" horiz-adv-x="1581" d="M1168 1489Q1228 1489 1474 1501Q1481 1501 1494 1477T1519 1395T1532 1262Q1532 1238 1518 1227T1481 1214T1434 1207T1387 1190T1351 1145T1336 1057V652Q1336 467 1337 362T1343 203T1353 134T1368 116Q1377
114 1396 112T1426 107T1452 100T1475 89T1489 72T1495 47Q1495 -28 1475 -108T1417 -207Q1301 -190 1188 -190Q1144 -190 1082 -189T1014 -187Q1011 -187 1010 -167T1007 -102T1005 -7T1004 125T1004 278T1005 458T1005 652V1197Q1005 1202 911 1202Q901 1202
895 1202T878 1202T864 1200T859 1197V652Q859 425 860 175T862 -113Q862 -192 836 -192Q824 -192 762 -191T655 -190Q558 -190 456 -207Q419 -188 399 -108T378 47Q378 61 384 72T398 89T421 100T446 107T476 111T505 116Q511 117 515 121T523 135T528 164T532
212T535 285T536 390T537 531T538 714Q538 719 538 722Q274 722 158 820T41 1116Q41 1192 72 1258T167 1380T345 1468T607 1501Q621 1501 672 1498T849 1492T1168 1489Z" />
<glyph unicode="&#xb7;" horiz-adv-x="612" d="M67 785T67 877T129 1032T310 1096Q427 1096 486 1032T545 877T486 723T310 658Q191 658 129 721Z" />
<glyph unicode="&#xb8;" horiz-adv-x="542" d="M66 -480L98 -308Q147 -323 190 -323Q237 -323 262 -302T288 -250Q288 -216 257 -190T172 -164Q148 -164 120 -170V11H224V-65Q293 -67 345 -89T424 -145T463 -215T476 -287Q476 -374 405 -433T200 -493Q134 -493 66 -480Z" />
<glyph unicode="&#xb9;" horiz-adv-x="719" d="M191 824V1208Q191 1236 170 1247T122 1258T75 1270T53 1314Q53 1360 71 1425T112 1505Q253 1496 332 1496Q385 1496 446 1505T520 1516Q566 1516 566 1462V838Q566 798 567 771T574 710T591 657T622 636Q638 632
646 630T663 616T672 587Q672 533 659 476T620 405Q514 424 409 424Q270 424 137 405Q113 419 100 476T86 587Q86 605 95 616T112 629T136 636Q169 639 180 690T191 824Z" />
<glyph unicode="&#xba;" horiz-adv-x="929" d="M462 812Q348 812 256 851T106 970T48 1161Q48 1324 158 1419T454 1515Q542 1515 616 1495T747 1433T837 1325T870 1170Q870 1002 757 907T462 812ZM395 1160Q395 1041 409 987T464 932T515 991T527 1171Q527 1200
527 1218T525 1268T519 1320T508 1362T489 1394T462 1405Q421 1405 408 1349T395 1160Z" />
<glyph unicode="&#xbb;" horiz-adv-x="1442" d="M1393 574T1393 534T1269 363T1020 119L895 7Q884 -1 874 -1Q855 -1 811 36T730 124T693 203Q693 219 706 232Q954 456 1024 534Q994 569 917 644T778 778L716 836Q703 849 703 865Q703 910 773 989T874 1069Q884
1069 894 1061Q897 1061 1019 949T1267 706ZM757 534Q757 494 633 363T384 119L259 7Q248 -1 238 -1Q219 -1 175 36T94 124T57 203Q57 219 70 232Q318 456 388 534Q358 569 281 644T142 778L80 836Q67 849 67 865Q67 910 137 989T238 1069Q248 1069 258 1061Q268
1052 286 1036T356 973T455 882T559 780T658 678T728 592T757 534Z" />
<glyph unicode="&#xbc;" horiz-adv-x="2723" d="M185 824V1208Q185 1236 164 1247T116 1258T69 1270T47 1314Q47 1360 65 1425T106 1505Q247 1496 326 1496Q379 1496 440 1505T514 1516Q560 1516 560 1462V838Q560 798 561 771T568 710T585 657T616 636Q632 632
640 630T657 616T666 587Q666 533 653 476T614 405Q508 424 403 424Q264 424 131 405Q107 419 94 476T80 587Q80 605 89 616T106 629T130 636Q163 639 174 690T185 824ZM770 153Q824 285 1057 822T1349 1510Q1379 1587 1495 1587Q1609 1587 1658 1567T1708 1506Q1708
1493 1704 1479T1687 1438T1671 1400Q1462 867 1157 139Q1143 107 1136 93T1115 57T1084 26T1042 10T981 3Q948 3 914 8T844 25T786 61T763 117Q763 135 770 153ZM1992 623Q1993 659 1993 782V794Q1993 885 1995 911Q1989 907 1980 897T1953 865T1924 830Q1855
752 1805 659Q1797 643 1797 637Q1797 621 1908 621Q1966 621 1992 623ZM2001 378Q1980 378 1915 377T1829 376H1809Q1745 376 1711 377T1633 384T1567 402Q1538 430 1521 488T1504 573Q1504 590 1512 607Q1547 669 1600 735T1692 843T1806 959T1911 1064Q1929
1079 1963 1086T2024 1094T2104 1095H2336Q2423 1095 2423 1043Q2410 850 2410 707V640Q2410 626 2423 626H2470Q2496 626 2547 629T2620 633Q2651 633 2664 616T2681 564Q2680 510 2667 473T2619 411Q2572 396 2538 392T2423 385H2409Q2409 355 2410 334T2417
288T2436 249T2470 231Q2486 229 2496 226T2515 213T2525 184Q2525 130 2510 72T2468 0Q2365 20 2238 20Q2066 20 1943 0Q1916 14 1901 72T1886 184Q1886 202 1895 212T1915 226T1941 231Q1977 236 1989 275T2001 378Z" />
<glyph unicode="&#xbd;" horiz-adv-x="2672" d="M185 824V1208Q185 1236 164 1247T116 1258T69 1270T47 1314Q47 1360 65 1425T106 1505Q247 1496 326 1496Q379 1496 440 1505T514 1516Q560 1516 560 1462V838Q560 798 561 771T568 710T585 657T616 636Q632 632
640 630T657 616T666 587Q666 533 653 476T614 405Q508 424 403 424Q264 424 131 405Q107 419 94 476T80 587Q80 605 89 616T106 629T130 636Q163 639 174 690T185 824ZM724 153Q778 285 1011 822T1303 1510Q1333 1587 1449 1587Q1563 1587 1612 1567T1662 1506Q1662
1493 1658 1479T1641 1438T1625 1400Q1416 867 1111 139Q1097 107 1090 93T1069 57T1038 26T996 10T935 3Q902 3 868 8T798 25T740 61T717 117Q717 135 724 153ZM1685 1057Q1853 1099 2157 1099Q2238 1099 2311 1086T2450 1046T2555 968T2594 849Q2594 786 2571
725T2515 618T2429 522T2334 438T2233 360T2145 288H2180Q2216 288 2243 291T2311 305T2385 344T2440 418Q2495 443 2537 443Q2568 443 2602 426T2636 374Q2636 321 2596 209T2527 45Q2467 1 1960 1Q1896 1 1797 1T1669 2Q1645 11 1619 50T1590 127Q1591 146 1614
181T1683 267T1761 351T1848 441Q2103 700 2103 839Q2103 937 2041 937Q1995 937 1921 885T1797 783T1740 722Q1696 722 1639 746T1581 795Q1581 881 1613 956T1685 1057Z" />
<glyph unicode="&#xbe;" horiz-adv-x="3067" d="M208 421Q156 447 103 514T49 634Q49 672 100 709T198 747Q203 747 224 731T274 694T356 658T470 641Q658 641 658 774Q658 918 466 918Q440 918 393 916T337 914Q320 916 312 936T304 1010Q304 1087 344 1104Q372
1102 386 1102Q508 1103 565 1137T623 1230Q623 1281 592 1314T515 1348T432 1329T368 1281T322 1225T284 1178T252 1158Q188 1158 140 1184T92 1232Q92 1336 152 1418T284 1507Q361 1515 615 1515Q804 1515 895 1445T987 1273Q987 1204 942 1144T826 1064Q945
1055 1030 964T1116 772Q1116 648 1042 561T847 433T573 392Q403 392 208 421ZM1128 153Q1182 285 1415 822T1707 1510Q1737 1587 1853 1587Q1967 1587 2016 1567T2066 1506Q2066 1493 2062 1479T2045 1438T2029 1400Q1820 867 1515 139Q1501 107 1494 93T1473
57T1442 26T1400 10T1339 3Q1306 3 1272 8T1202 25T1144 61T1121 117Q1121 135 1128 153ZM2336 622Q2337 658 2337 781V793Q2337 884 2339 910Q2333 906 2324 896T2297 864T2268 829Q2199 751 2149 658Q2141 642 2141 636Q2141 620 2252 620Q2310 620 2336 622ZM2345
377Q2324 377 2259 376T2173 375H2153Q2089 375 2055 376T1977 383T1911 401Q1882 429 1865 487T1848 572Q1848 589 1856 606Q1891 668 1944 734T2036 842T2150 958T2255 1063Q2273 1078 2307 1085T2368 1093T2448 1094H2680Q2767 1094 2767 1042Q2754 849 2754
706V639Q2754 625 2767 625H2814Q2840 625 2891 628T2964 632Q2995 632 3008 615T3025 563Q3024 509 3011 472T2963 410Q2916 395 2882 391T2767 384H2753Q2753 354 2754 333T2761 287T2780 248T2814 230Q2830 228 2840 225T2859 212T2869 183Q2869 129 2854 71T2812
-1Q2709 19 2582 19Q2410 19 2287 -1Q2260 13 2245 71T2230 183Q2230 201 2239 211T2259 225T2285 230Q2321 235 2333 274T2345 377Z" />
<glyph unicode="&#xbf;" horiz-adv-x="1313" d="M1278 254Q1277 134 1231 67T1118 -19Q1077 -19 1044 -9T995 13T965 35T941 45Q921 39 878 23T808 -2T730 -18T618 -26Q493 -26 391 -5T209 58T86 171T42 334Q42 383 66 426T128 500T213 560T307 610T392 653T455
696T479 739Q479 764 462 820T444 900Q444 981 632 981Q657 981 693 980T736 978Q831 978 906 913T982 760Q982 720 963 697T899 655Q863 640 838 629T772 591T706 538T660 470T640 382Q640 294 682 231T790 168Q843 168 897 198T987 271Q1011 318 1064 357T1167
397Q1278 397 1278 254ZM987 1415T987 1323T925 1168T744 1104Q627 1104 568 1168T509 1323T568 1477T744 1542Q863 1542 925 1479Z" />
<glyph unicode="&#xc0;" horiz-adv-x="1890" d="M965 1618H814Q745 1677 647 1773T513 1907Q494 1927 462 1958T417 2004T405 2033Q405 2065 441 2079T562 2094Q642 2094 680 2075T753 2001Q779 1959 862 1806T965 1618ZM1044 535H616Q584 429 584 394Q584 357
601 335T642 305T690 292T732 278T749 251Q749 33 656 -13Q557 0 387 0T118 -13Q58 26 58 196Q58 243 76 266T125 296T188 310T254 344T307 422L552 1063Q576 1126 576 1155Q576 1178 567 1188T546 1201T522 1207T500 1226T491 1270Q491 1368 512 1430T558 1503Q728
1489 934 1489Q1123 1489 1221 1503Q1242 1496 1262 1443L1574 604Q1619 482 1671 388T1758 294Q1776 291 1785 289T1808 279T1828 259T1834 227Q1834 156 1814 81T1756 -13Q1644 0 1437 0Q1163 0 1028 -13Q991 5 971 80T950 227Q950 246 956 259T975 279T998 289T1026
294Q1078 295 1078 382Q1078 457 1044 535ZM1000 705Q981 764 897 1003Q893 1015 885 1037Q876 1064 872 1076T862 1101T852 1120T845 1125Q836 1125 805 1042L681 705H1000Z" />
<glyph unicode="&#xc1;" horiz-adv-x="1890" d="M831 1618Q974 1828 1083 2001Q1117 2055 1151 2074T1255 2094Q1335 2094 1368 2080T1401 2033Q1401 2019 1388 2004T1339 1958T1283 1907Q1248 1873 1135 1776T943 1618H831ZM1044 535H616Q584 429 584 394Q584
357 601 335T642 305T690 292T732 278T749 251Q749 33 656 -13Q557 0 387 0T118 -13Q58 26 58 196Q58 243 76 266T125 296T188 310T254 344T307 422L552 1063Q576 1126 576 1155Q576 1178 567 1188T546 1201T522 1207T500 1226T491 1270Q491 1368 512 1430T558
1503Q728 1489 934 1489Q1123 1489 1221 1503Q1242 1496 1262 1443L1574 604Q1619 482 1671 388T1758 294Q1776 291 1785 289T1808 279T1828 259T1834 227Q1834 156 1814 81T1756 -13Q1644 0 1437 0Q1163 0 1028 -13Q991 5 971 80T950 227Q950 246 956 259T975
279T998 289T1026 294Q1078 295 1078 382Q1078 457 1044 535ZM1000 705Q981 764 897 1003Q893 1015 885 1037Q876 1064 872 1076T862 1101T852 1120T845 1125Q836 1125 805 1042L681 705H1000Z" />
<glyph unicode="&#xc2;" horiz-adv-x="1890" d="M814 2094H964Q1031 2033 1124 1936T1245 1805Q1256 1791 1272 1772T1298 1743T1316 1720T1329 1698T1333 1679Q1333 1647 1302 1633T1196 1618Q1138 1618 1110 1633T1040 1691L889 1882L738 1691Q697 1649 669
1634T582 1618Q508 1618 477 1632T445 1679Q445 1688 449 1697T462 1719T480 1742T505 1772T533 1805Q560 1838 653 1935T814 2094ZM1044 535H616Q584 429 584 394Q584 357 601 335T642 305T690 292T732 278T749 251Q749 33 656 -13Q557 0 387 0T118 -13Q58 26
58 196Q58 243 76 266T125 296T188 310T254 344T307 422L552 1063Q576 1126 576 1155Q576 1178 567 1188T546 1201T522 1207T500 1226T491 1270Q491 1368 512 1430T558 1503Q728 1489 934 1489Q1123 1489 1221 1503Q1242 1496 1262 1443L1574 604Q1619 482 1671
388T1758 294Q1776 291 1785 289T1808 279T1828 259T1834 227Q1834 156 1814 81T1756 -13Q1644 0 1437 0Q1163 0 1028 -13Q991 5 971 80T950 227Q950 246 956 259T975 279T998 289T1026 294Q1078 295 1078 382Q1078 457 1044 535ZM1000 705Q981 764 897 1003Q893
1015 885 1037Q876 1064 872 1076T862 1101T852 1120T845 1125Q836 1125 805 1042L681 705H1000Z" />
<glyph unicode="&#xc3;" horiz-adv-x="1890" d="M1297 1990Q1328 1910 1328 1847Q1328 1747 1278 1686T1120 1625Q1058 1625 975 1655T825 1716T735 1747Q689 1747 689 1697L690 1633Q686 1618 591 1618Q468 1618 465 1633Q450 1701 450 1761Q450 1807 461 1845T498
1916T567 1967T673 1986Q728 1986 807 1959T951 1903T1037 1875T1072 1886T1086 1919V1988Q1086 1989 1102 1990T1146 1994T1200 1996Q1260 1996 1297 1990ZM1044 535H616Q584 429 584 394Q584 357 601 335T642 305T690 292T732 278T749 251Q749 33 656 -13Q557
0 387 0T118 -13Q58 26 58 196Q58 243 76 266T125 296T188 310T254 344T307 422L552 1063Q576 1126 576 1155Q576 1178 567 1188T546 1201T522 1207T500 1226T491 1270Q491 1368 512 1430T558 1503Q728 1489 934 1489Q1123 1489 1221 1503Q1242 1496 1262 1443L1574
604Q1619 482 1671 388T1758 294Q1776 291 1785 289T1808 279T1828 259T1834 227Q1834 156 1814 81T1756 -13Q1644 0 1437 0Q1163 0 1028 -13Q991 5 971 80T950 227Q950 246 956 259T975 279T998 289T1026 294Q1078 295 1078 382Q1078 457 1044 535ZM1000 705Q981
764 897 1003Q893 1015 885 1037Q876 1064 872 1076T862 1101T852 1120T845 1125Q836 1125 805 1042L681 705H1000Z" />
<glyph unicode="&#xc4;" horiz-adv-x="1890" d="M437 1725T437 1802T489 1932T642 1985Q741 1985 790 1932T840 1802T791 1672T642 1618Q541 1618 489 1671ZM950 1725T950 1802T1002 1932T1155 1985Q1254 1985 1303 1932T1353 1802T1304 1672T1155 1618Q1054 1618
1002 1671ZM1044 535H616Q584 429 584 394Q584 357 601 335T642 305T690 292T732 278T749 251Q749 33 656 -13Q557 0 387 0T118 -13Q58 26 58 196Q58 243 76 266T125 296T188 310T254 344T307 422L552 1063Q576 1126 576 1155Q576 1178 567 1188T546 1201T522 1207T500
1226T491 1270Q491 1368 512 1430T558 1503Q728 1489 934 1489Q1123 1489 1221 1503Q1242 1496 1262 1443L1574 604Q1619 482 1671 388T1758 294Q1776 291 1785 289T1808 279T1828 259T1834 227Q1834 156 1814 81T1756 -13Q1644 0 1437 0Q1163 0 1028 -13Q991 5
971 80T950 227Q950 246 956 259T975 279T998 289T1026 294Q1078 295 1078 382Q1078 457 1044 535ZM1000 705Q981 764 897 1003Q893 1015 885 1037Q876 1064 872 1076T862 1101T852 1120T845 1125Q836 1125 805 1042L681 705H1000Z" />
<glyph unicode="&#xc5;" horiz-adv-x="1890" d="M916 1528Q812 1528 738 1589T664 1754Q664 1857 735 1917T918 1978Q1028 1978 1096 1916T1164 1757Q1164 1658 1093 1593T916 1528ZM767 1753Q767 1679 810 1638T912 1596T1014 1638T1058 1754Q1058 1827 1015
1867T913 1908T811 1867T767 1753ZM1044 535H616Q584 429 584 394Q584 357 601 335T642 305T690 292T732 278T749 251Q749 33 656 -13Q557 0 387 0T118 -13Q58 26 58 196Q58 243 76 266T125 296T188 310T254 344T307 422L552 1063Q576 1126 576 1155Q576 1178 567
1188T546 1201T522 1207T500 1226T491 1270Q491 1368 512 1430T558 1503Q728 1489 934 1489Q1123 1489 1221 1503Q1242 1496 1262 1443L1574 604Q1619 482 1671 388T1758 294Q1776 291 1785 289T1808 279T1828 259T1834 227Q1834 156 1814 81T1756 -13Q1644 0 1437
0Q1163 0 1028 -13Q991 5 971 80T950 227Q950 246 956 259T975 279T998 289T1026 294Q1078 295 1078 382Q1078 457 1044 535ZM1000 705Q981 764 897 1003Q893 1015 885 1037Q876 1064 872 1076T862 1101T852 1120T845 1125Q836 1125 805 1042L681 705H1000Z" />
<glyph unicode="&#xc6;" horiz-adv-x="2401" d="M1126 705Q1124 739 1108 1003Q1094 1125 1091 1125Q1081 1125 1068 1107T1027 1042L807 705H1126ZM1285 1487Q1409 1489 1473 1489Q1802 1489 2062 1503Q2112 1439 2164 1324T2217 1137Q2217 1109 2199 1087T2154
1054T2100 1038T2051 1033Q2044 1033 2021 1058T1964 1118T1887 1190T1790 1251T1682 1276Q1665 1276 1655 1273T1631 1260T1612 1223T1605 1155Q1605 1100 1614 1037L1644 819Q1760 968 1895 968Q1988 968 2043 912T2098 782Q2098 702 2050 648T1938 593Q1898
635 1846 662T1743 690Q1696 690 1667 641L1703 378Q1703 194 1770 194H1858Q1906 205 1945 237T2018 326T2077 440T2132 582Q2143 586 2161 586Q2214 586 2281 562T2367 507Q2377 497 2377 473Q2377 360 2344 127Q2324 31 2300 -11Q2027 -2 1794 -2Q1651 -2 1428
-7T1066 -13Q1021 6 997 88T973 247Q973 266 979 279T998 298T1023 307T1054 312Q1070 315 1080 328T1097 366T1105 413T1111 474T1117 535H694Q690 528 677 510T659 484T645 462T633 437T626 416T622 394Q622 357 635 335T666 305T702 292T733 278T746 251Q746
153 706 82T578 -13Q482 0 313 0Q141 0 40 -13V196Q40 243 63 266T125 296T204 310T287 344T353 422L780 1063Q831 1128 831 1155Q831 1183 823 1194T805 1205T787 1219T778 1270Q778 1368 820 1430T912 1503Q1083 1487 1285 1487Z" />
<glyph unicode="&#xc7;" horiz-adv-x="1536" d="M766 -501L798 -329Q847 -344 890 -344Q937 -344 962 -323T988 -271Q988 -237 957 -211T872 -185Q848 -185 820 -191V-10H924V-86Q993 -88 1045 -110T1124 -166T1163 -236T1176 -308Q1176 -395 1105 -454T900 -514Q834
-514 766 -501ZM875 -27Q709 -27 569 17T333 137T168 314T69 527T37 759Q37 874 65 983T152 1189T293 1359T490 1474T738 1516Q848 1516 928 1496T1106 1421Q1104 1445 1104 1452Q1104 1483 1126 1493T1223 1503Q1289 1503 1321 1497T1382 1464T1423 1389T1451
1250Q1465 1155 1465 1116Q1465 1087 1462 1070T1453 1042T1431 1026T1402 1018T1357 1013Q1260 1004 1252 1004Q1204 1004 1177 1057Q1123 1143 1053 1187T910 1232Q803 1232 731 1142T658 885Q658 772 692 678T784 520T919 421T1084 386Q1272 386 1444 483Q1481
416 1481 343Q1481 271 1441 205T1327 87T1135 4T875 -27Z" />
<glyph unicode="&#xc8;" horiz-adv-x="1513" d="M799 1618H648Q579 1677 481 1773T347 1907Q328 1927 296 1958T251 2004T239 2033Q239 2065 275 2079T396 2094Q476 2094 514 2075T587 2001Q613 1959 696 1806T799 1618ZM126 1503Q396 1489 732 1489Q1060 1489
1322 1503Q1356 1439 1392 1324T1428 1137Q1428 1108 1409 1087T1359 1054T1301 1038T1248 1033Q1242 1033 1221 1058T1169 1118T1099 1190T1010 1251T912 1276Q887 1276 875 1274T849 1260T828 1223T817 1153T812 1037V819Q938 968 1084 968Q1166 968 1214 912T1262
782Q1262 702 1206 648T1076 593Q1039 635 990 662T894 690Q844 690 812 641V378Q812 194 855 194H943Q1000 205 1047 237T1134 326T1203 440T1269 582Q1280 586 1298 586Q1348 586 1412 562T1494 507Q1499 497 1499 473Q1499 424 1474 319T1420 127Q1407 86 1380
37T1332 -13Q1253 -6 1152 -3T981 1T783 1T605 0Q318 0 123 -13Q95 6 80 88T65 247Q65 266 72 279T93 298T120 307T154 312Q184 315 203 335T232 389T244 457T247 535V974Q247 1013 246 1039T239 1094T225 1140T198 1170T157 1186Q136 1188 124 1191T97 1200T75
1220T68 1252Q68 1325 83 1405T126 1503Z" />
<glyph unicode="&#xc9;" horiz-adv-x="1513" d="M666 1618Q809 1828 918 2001Q952 2055 986 2074T1090 2094Q1170 2094 1203 2080T1236 2033Q1236 2019 1223 2004T1174 1958T1118 1907Q1083 1873 970 1776T778 1618H666ZM126 1503Q396 1489 732 1489Q1060 1489
1322 1503Q1356 1439 1392 1324T1428 1137Q1428 1108 1409 1087T1359 1054T1301 1038T1248 1033Q1242 1033 1221 1058T1169 1118T1099 1190T1010 1251T912 1276Q887 1276 875 1274T849 1260T828 1223T817 1153T812 1037V819Q938 968 1084 968Q1166 968 1214 912T1262
782Q1262 702 1206 648T1076 593Q1039 635 990 662T894 690Q844 690 812 641V378Q812 194 855 194H943Q1000 205 1047 237T1134 326T1203 440T1269 582Q1280 586 1298 586Q1348 586 1412 562T1494 507Q1499 497 1499 473Q1499 424 1474 319T1420 127Q1407 86 1380
37T1332 -13Q1253 -6 1152 -3T981 1T783 1T605 0Q318 0 123 -13Q95 6 80 88T65 247Q65 266 72 279T93 298T120 307T154 312Q184 315 203 335T232 389T244 457T247 535V974Q247 1013 246 1039T239 1094T225 1140T198 1170T157 1186Q136 1188 124 1191T97 1200T75
1220T68 1252Q68 1325 83 1405T126 1503Z" />
<glyph unicode="&#xca;" horiz-adv-x="1513" d="M649 2094H799Q866 2033 959 1936T1080 1805Q1091 1791 1107 1772T1133 1743T1151 1720T1164 1698T1168 1679Q1168 1647 1137 1633T1031 1618Q973 1618 945 1633T875 1691L724 1882L573 1691Q532 1649 504 1634T417
1618Q343 1618 312 1632T280 1679Q280 1688 284 1697T297 1719T315 1742T340 1772T368 1805Q395 1838 488 1935T649 2094ZM126 1503Q396 1489 732 1489Q1060 1489 1322 1503Q1356 1439 1392 1324T1428 1137Q1428 1108 1409 1087T1359 1054T1301 1038T1248 1033Q1242
1033 1221 1058T1169 1118T1099 1190T1010 1251T912 1276Q887 1276 875 1274T849 1260T828 1223T817 1153T812 1037V819Q938 968 1084 968Q1166 968 1214 912T1262 782Q1262 702 1206 648T1076 593Q1039 635 990 662T894 690Q844 690 812 641V378Q812 194 855 194H943Q1000
205 1047 237T1134 326T1203 440T1269 582Q1280 586 1298 586Q1348 586 1412 562T1494 507Q1499 497 1499 473Q1499 424 1474 319T1420 127Q1407 86 1380 37T1332 -13Q1253 -6 1152 -3T981 1T783 1T605 0Q318 0 123 -13Q95 6 80 88T65 247Q65 266 72 279T93 298T120
307T154 312Q184 315 203 335T232 389T244 457T247 535V974Q247 1013 246 1039T239 1094T225 1140T198 1170T157 1186Q136 1188 124 1191T97 1200T75 1220T68 1252Q68 1325 83 1405T126 1503Z" />
<glyph unicode="&#xcb;" horiz-adv-x="1513" d="M271 1725T271 1802T323 1932T476 1985Q575 1985 624 1932T674 1802T625 1672T476 1618Q375 1618 323 1671ZM784 1725T784 1802T836 1932T989 1985Q1088 1985 1137 1932T1187 1802T1138 1672T989 1618Q888 1618
836 1671ZM126 1503Q396 1489 732 1489Q1060 1489 1322 1503Q1356 1439 1392 1324T1428 1137Q1428 1108 1409 1087T1359 1054T1301 1038T1248 1033Q1242 1033 1221 1058T1169 1118T1099 1190T1010 1251T912 1276Q887 1276 875 1274T849 1260T828 1223T817 1153T812
1037V819Q938 968 1084 968Q1166 968 1214 912T1262 782Q1262 702 1206 648T1076 593Q1039 635 990 662T894 690Q844 690 812 641V378Q812 194 855 194H943Q1000 205 1047 237T1134 326T1203 440T1269 582Q1280 586 1298 586Q1348 586 1412 562T1494 507Q1499 497
1499 473Q1499 424 1474 319T1420 127Q1407 86 1380 37T1332 -13Q1253 -6 1152 -3T981 1T783 1T605 0Q318 0 123 -13Q95 6 80 88T65 247Q65 266 72 279T93 298T120 307T154 312Q184 315 203 335T232 389T244 457T247 535V974Q247 1013 246 1039T239 1094T225 1140T198
1170T157 1186Q136 1188 124 1191T97 1200T75 1220T68 1252Q68 1325 83 1405T126 1503Z" />
<glyph unicode="&#xcc;" horiz-adv-x="1045" d="M598 1618H447Q378 1677 280 1773T146 1907Q127 1927 95 1958T50 2004T38 2033Q38 2065 74 2079T195 2094Q275 2094 313 2075T386 2001Q412 1959 495 1806T598 1618ZM926 1503Q954 1485 969 1405T984 1252Q984 1233
977 1220T956 1201T929 1191T895 1186Q871 1183 854 1171T828 1141T813 1094T807 1039T805 974V535Q805 490 808 457T820 390T848 335T898 312Q920 310 932 308T958 299T980 279T987 247Q987 171 972 89T929 -12Q858 0 528 0Q188 0 116 -12Q88 7 73 89T58 247Q58
266 65 279T86 298T113 307T147 312Q177 315 196 335T225 389T237 457T240 535V974Q240 1013 239 1039T232 1094T218 1140T191 1170T150 1186Q129 1188 117 1191T90 1200T68 1220T61 1252Q61 1325 76 1405T119 1503Q201 1489 532 1489Q814 1489 926 1503Z" />
<glyph unicode="&#xcd;" horiz-adv-x="1045" d="M464 1618Q607 1828 716 2001Q750 2055 784 2074T888 2094Q968 2094 1001 2080T1034 2033Q1034 2019 1021 2004T972 1958T916 1907Q881 1873 768 1776T576 1618H464ZM926 1503Q954 1485 969 1405T984 1252Q984 1233
977 1220T956 1201T929 1191T895 1186Q871 1183 854 1171T828 1141T813 1094T807 1039T805 974V535Q805 490 808 457T820 390T848 335T898 312Q920 310 932 308T958 299T980 279T987 247Q987 171 972 89T929 -12Q858 0 528 0Q188 0 116 -12Q88 7 73 89T58 247Q58
266 65 279T86 298T113 307T147 312Q177 315 196 335T225 389T237 457T240 535V974Q240 1013 239 1039T232 1094T218 1140T191 1170T150 1186Q129 1188 117 1191T90 1200T68 1220T61 1252Q61 1325 76 1405T119 1503Q201 1489 532 1489Q814 1489 926 1503Z" />
<glyph unicode="&#xce;" horiz-adv-x="1045" d="M447 2094H597Q664 2033 757 1936T878 1805Q889 1791 905 1772T931 1743T949 1720T962 1698T966 1679Q966 1647 935 1633T829 1618Q771 1618 743 1633T673 1691L522 1882L371 1691Q330 1649 302 1634T215 1618Q141
1618 110 1632T78 1679Q78 1688 82 1697T95 1719T113 1742T138 1772T166 1805Q193 1838 286 1935T447 2094ZM926 1503Q954 1485 969 1405T984 1252Q984 1233 977 1220T956 1201T929 1191T895 1186Q871 1183 854 1171T828 1141T813 1094T807 1039T805 974V535Q805
490 808 457T820 390T848 335T898 312Q920 310 932 308T958 299T980 279T987 247Q987 171 972 89T929 -12Q858 0 528 0Q188 0 116 -12Q88 7 73 89T58 247Q58 266 65 279T86 298T113 307T147 312Q177 315 196 335T225 389T237 457T240 535V974Q240 1013 239 1039T232
1094T218 1140T191 1170T150 1186Q129 1188 117 1191T90 1200T68 1220T61 1252Q61 1325 76 1405T119 1503Q201 1489 532 1489Q814 1489 926 1503Z" />
<glyph unicode="&#xcf;" horiz-adv-x="1045" d="M70 1725T70 1802T122 1932T275 1985Q374 1985 423 1932T473 1802T424 1672T275 1618Q174 1618 122 1671ZM583 1725T583 1802T635 1932T788 1985Q887 1985 936 1932T986 1802T937 1672T788 1618Q687 1618 635 1671ZM926
1503Q954 1485 969 1405T984 1252Q984 1233 977 1220T956 1201T929 1191T895 1186Q871 1183 854 1171T828 1141T813 1094T807 1039T805 974V535Q805 490 808 457T820 390T848 335T898 312Q920 310 932 308T958 299T980 279T987 247Q987 171 972 89T929 -12Q858
0 528 0Q188 0 116 -12Q88 7 73 89T58 247Q58 266 65 279T86 298T113 307T147 312Q177 315 196 335T225 389T237 457T240 535V974Q240 1013 239 1039T232 1094T218 1140T191 1170T150 1186Q129 1188 117 1191T90 1200T68 1220T61 1252Q61 1325 76 1405T119 1503Q201
1489 532 1489Q814 1489 926 1503Z" />
<glyph unicode="&#xd0;" horiz-adv-x="1766" d="M246 856Q394 858 783 858Q887 858 926 861Q962 847 962 776Q962 681 907 681Q902 683 845 684T734 686L680 687H577Q135 684 122 679Q67 679 67 774Q67 845 103 859Q142 856 246 856ZM894 222Q964 222 1016 297T1094
486T1119 732Q1119 867 1093 982T1007 1174T864 1252Q832 1252 817 1249Q812 1225 812 790V623Q812 495 816 396T824 260L827 224Q848 222 894 222ZM123 -13Q95 5 80 87T65 245Q65 264 72 277T93 296T120 305T154 310Q184 313 203 333T232 387T244 455T247 533V972Q247
1011 246 1037T239 1092T225 1138T198 1168T157 1184Q136 1186 124 1189T97 1198T75 1218T68 1250Q68 1323 83 1404T126 1503Q504 1489 564 1489Q622 1489 742 1496T925 1503Q1074 1503 1201 1460T1416 1344T1568 1172T1660 964T1690 738Q1690 624 1661 516T1572
311T1427 143T1222 29T960 -13Q905 -13 800 -7T637 0Q530 0 123 -13Z" />
<glyph unicode="&#xd1;" horiz-adv-x="1881" d="M1365 1990Q1396 1910 1396 1847Q1396 1747 1346 1686T1188 1625Q1126 1625 1043 1655T893 1716T803 1747Q757 1747 757 1697L758 1633Q754 1618 659 1618Q536 1618 533 1633Q518 1701 518 1761Q518 1807 529 1845T566
1916T635 1967T741 1986Q796 1986 875 1959T1019 1903T1105 1875T1140 1886T1154 1919V1988Q1154 1989 1170 1990T1214 1994T1268 1996Q1328 1996 1365 1990ZM547 803V473Q547 250 660 241Q683 239 697 237T729 230T754 214T763 187Q763 128 746 65T698 -13Q588
0 446 0Q246 0 110 -13Q79 2 63 64T46 187Q46 208 63 220T98 235T148 241Q186 244 210 266T245 328T259 406T263 498V1051Q263 1101 242 1130T189 1169T128 1185T76 1203T54 1243Q54 1275 57 1315T80 1417T132 1503Q265 1489 503 1489Q577 1489 631 1492T711 1499T742
1503Q755 1503 766 1497T792 1475T819 1442T856 1393T904 1333Q1321 837 1322 838Q1331 831 1346 831V1021Q1346 1061 1345 1088T1337 1146T1319 1194T1288 1225T1240 1240Q1217 1242 1203 1244T1172 1251T1147 1267T1138 1294Q1138 1356 1154 1421T1202 1503Q1349
1489 1528 1489Q1658 1489 1781 1503Q1812 1487 1828 1422T1845 1294Q1845 1278 1837 1268T1811 1252T1780 1244T1742 1240Q1706 1237 1683 1217T1649 1161T1635 1094T1631 1021V930Q1631 168 1650 44Q1531 -27 1441 -27Q1374 -27 1305 12T1152 138Q1063 235 626
770Q573 834 559 834Q547 834 547 803Z" />
<glyph unicode="&#xd2;" horiz-adv-x="1826" d="M1001 1618H850Q781 1677 683 1773T549 1907Q530 1927 498 1958T453 2004T441 2033Q441 2065 477 2079T598 2094Q678 2094 716 2075T789 2001Q815 1959 898 1806T1001 1618ZM918 -27Q513 -27 276 177T38 748Q38
1108 274 1312T925 1516Q1095 1516 1237 1479T1481 1375T1653 1216T1758 1012T1792 773Q1792 608 1747 474T1623 248T1434 93T1194 2T918 -27ZM931 220Q958 220 980 233T1018 275T1045 334T1063 411T1074 493T1080 584T1082 670T1083 753Q1083 816 1081 866T1074
982T1056 1096T1026 1189T979 1256T911 1279Q771 1279 771 733Q771 220 931 220Z" />
<glyph unicode="&#xd3;" horiz-adv-x="1826" d="M866 1618Q1009 1828 1118 2001Q1152 2055 1186 2074T1290 2094Q1370 2094 1403 2080T1436 2033Q1436 2019 1423 2004T1374 1958T1318 1907Q1283 1873 1170 1776T978 1618H866ZM918 -27Q513 -27 276 177T38 748Q38
1108 274 1312T925 1516Q1095 1516 1237 1479T1481 1375T1653 1216T1758 1012T1792 773Q1792 608 1747 474T1623 248T1434 93T1194 2T918 -27ZM931 220Q958 220 980 233T1018 275T1045 334T1063 411T1074 493T1080 584T1082 670T1083 753Q1083 816 1081 866T1074
982T1056 1096T1026 1189T979 1256T911 1279Q771 1279 771 733Q771 220 931 220Z" />
<glyph unicode="&#xd4;" horiz-adv-x="1826" d="M850 2094H1000Q1067 2033 1160 1936T1281 1805Q1292 1791 1308 1772T1334 1743T1352 1720T1365 1698T1369 1679Q1369 1647 1338 1633T1232 1618Q1174 1618 1146 1633T1076 1691L925 1882L774 1691Q733 1649 705
1634T618 1618Q544 1618 513 1632T481 1679Q481 1688 485 1697T498 1719T516 1742T541 1772T569 1805Q596 1838 689 1935T850 2094ZM918 -27Q513 -27 276 177T38 748Q38 1108 274 1312T925 1516Q1095 1516 1237 1479T1481 1375T1653 1216T1758 1012T1792 773Q1792
608 1747 474T1623 248T1434 93T1194 2T918 -27ZM931 220Q958 220 980 233T1018 275T1045 334T1063 411T1074 493T1080 584T1082 670T1083 753Q1083 816 1081 866T1074 982T1056 1096T1026 1189T979 1256T911 1279Q771 1279 771 733Q771 220 931 220Z" />
<glyph unicode="&#xd5;" horiz-adv-x="1826" d="M1333 1990Q1364 1910 1364 1847Q1364 1747 1314 1686T1156 1625Q1094 1625 1011 1655T861 1716T771 1747Q725 1747 725 1697L726 1633Q722 1618 627 1618Q504 1618 501 1633Q486 1701 486 1761Q486 1807 497 1845T534
1916T603 1967T709 1986Q764 1986 843 1959T987 1903T1073 1875T1108 1886T1122 1919V1988Q1122 1989 1138 1990T1182 1994T1236 1996Q1296 1996 1333 1990ZM918 -27Q513 -27 276 177T38 748Q38 1108 274 1312T925 1516Q1095 1516 1237 1479T1481 1375T1653 1216T1758
1012T1792 773Q1792 608 1747 474T1623 248T1434 93T1194 2T918 -27ZM931 220Q958 220 980 233T1018 275T1045 334T1063 411T1074 493T1080 584T1082 670T1083 753Q1083 816 1081 866T1074 982T1056 1096T1026 1189T979 1256T911 1279Q771 1279 771 733Q771 220
931 220Z" />
<glyph unicode="&#xd6;" horiz-adv-x="1826" d="M472 1725T472 1802T524 1932T677 1985Q776 1985 825 1932T875 1802T826 1672T677 1618Q576 1618 524 1671ZM985 1725T985 1802T1037 1932T1190 1985Q1289 1985 1338 1932T1388 1802T1339 1672T1190 1618Q1089 1618
1037 1671ZM918 -27Q513 -27 276 177T38 748Q38 1108 274 1312T925 1516Q1095 1516 1237 1479T1481 1375T1653 1216T1758 1012T1792 773Q1792 608 1747 474T1623 248T1434 93T1194 2T918 -27ZM931 220Q958 220 980 233T1018 275T1045 334T1063 411T1074 493T1080
584T1082 670T1083 753Q1083 816 1081 866T1074 982T1056 1096T1026 1189T979 1256T911 1279Q771 1279 771 733Q771 220 931 220Z" />
<glyph unicode="&#xd7;" horiz-adv-x="1068" d="M531 783L724 978Q726 980 743 999T773 1030T804 1054T835 1068Q879 1068 940 997T1001 895Q1001 868 977 844Q955 834 719 598L941 378Q1008 323 1008 291Q1008 247 937 187T835 126Q809 126 785 147Q780 159 672
273T535 410L528 402Q291 164 283 146Q257 123 234 123Q206 123 133 183T59 288Q59 318 204 457Q344 592 344 594Q101 837 88 842Q63 865 63 893Q63 908 90 949T158 1029T229 1067Q239 1067 253 1059T286 1032T320 999T359 959T395 921L531 783Z" />
<glyph unicode="&#xd8;" horiz-adv-x="1853" d="M931 220Q958 220 980 233T1018 275T1045 334T1063 411T1074 493T1080 584T1082 670T1083 753V800Q855 427 809 353Q849 220 931 220ZM773 613Q908 828 1062 1071Q1023 1279 911 1279Q771 1279 771 733Q771 661
773 613ZM1447 1396Q1617 1300 1704 1138T1792 773Q1792 608 1747 474T1623 248T1434 93T1194 2T918 -27Q745 -27 596 13Q581 -11 553 -56T514 -116Q487 -163 423 -163Q370 -163 348 -146T325 -94Q325 -85 333 -73T358 -42T384 -6Q394 10 433 73Q244 166 141 338T38
748Q38 1108 274 1312T925 1516Q1139 1516 1305 1459Q1376 1572 1402 1618Q1411 1644 1447 1644H1454Q1460 1645 1467 1645T1485 1645T1505 1643T1525 1639T1542 1632T1553 1621T1558 1605Q1558 1579 1543 1553Q1506 1492 1447 1396Z" />
<glyph unicode="&#xd9;" horiz-adv-x="1841" d="M1001 1618H850Q781 1677 683 1773T549 1907Q530 1927 498 1958T453 2004T441 2033Q441 2065 477 2079T598 2094Q678 2094 716 2075T789 2001Q815 1959 898 1806T1001 1618ZM1648 989V698Q1648 523 1614 394T1520
185T1369 57T1174 -9T935 -27Q863 -27 809 -25T690 -14T577 8T475 46T385 105T312 190T256 303T221 450T208 635V914Q208 975 206 1014T196 1095T172 1157T128 1181Q110 1184 101 1186T78 1196T58 1216T52 1248Q52 1323 72 1403T130 1503Q273 1489 532 1489Q738
1489 861 1503Q898 1484 918 1404T939 1248Q939 1229 933 1216T914 1196T891 1187T863 1181Q773 1171 773 914V623Q773 550 776 498T792 393T826 307T884 254T973 233Q1006 233 1034 241T1082 260T1117 293T1143 334T1160 384T1171 437T1176 495T1178 553T1179
612V989Q1179 1033 1177 1062T1167 1120T1143 1166T1100 1184Q1083 1187 1073 1190T1054 1204T1044 1234Q1044 1312 1064 1397T1121 1503Q1233 1489 1435 1489Q1620 1489 1721 1503Q1753 1483 1771 1398T1789 1234Q1789 1215 1779 1204T1759 1190T1732 1184Q1648
1176 1648 989Z" />
<glyph unicode="&#xda;" horiz-adv-x="1841" d="M867 1618Q1010 1828 1119 2001Q1153 2055 1187 2074T1291 2094Q1371 2094 1404 2080T1437 2033Q1437 2019 1424 2004T1375 1958T1319 1907Q1284 1873 1171 1776T979 1618H867ZM1648 989V698Q1648 523 1614 394T1520
185T1369 57T1174 -9T935 -27Q863 -27 809 -25T690 -14T577 8T475 46T385 105T312 190T256 303T221 450T208 635V914Q208 975 206 1014T196 1095T172 1157T128 1181Q110 1184 101 1186T78 1196T58 1216T52 1248Q52 1323 72 1403T130 1503Q273 1489 532 1489Q738
1489 861 1503Q898 1484 918 1404T939 1248Q939 1229 933 1216T914 1196T891 1187T863 1181Q773 1171 773 914V623Q773 550 776 498T792 393T826 307T884 254T973 233Q1006 233 1034 241T1082 260T1117 293T1143 334T1160 384T1171 437T1176 495T1178 553T1179
612V989Q1179 1033 1177 1062T1167 1120T1143 1166T1100 1184Q1083 1187 1073 1190T1054 1204T1044 1234Q1044 1312 1064 1397T1121 1503Q1233 1489 1435 1489Q1620 1489 1721 1503Q1753 1483 1771 1398T1789 1234Q1789 1215 1779 1204T1759 1190T1732 1184Q1648
1176 1648 989Z" />
<glyph unicode="&#xdb;" horiz-adv-x="1841" d="M851 2094H1001Q1068 2033 1161 1936T1282 1805Q1293 1791 1309 1772T1335 1743T1353 1720T1366 1698T1370 1679Q1370 1647 1339 1633T1233 1618Q1175 1618 1147 1633T1077 1691L926 1882L775 1691Q734 1649 706
1634T619 1618Q545 1618 514 1632T482 1679Q482 1688 486 1697T499 1719T517 1742T542 1772T570 1805Q597 1838 690 1935T851 2094ZM1648 989V698Q1648 523 1614 394T1520 185T1369 57T1174 -9T935 -27Q863 -27 809 -25T690 -14T577 8T475 46T385 105T312 190T256
303T221 450T208 635V914Q208 975 206 1014T196 1095T172 1157T128 1181Q110 1184 101 1186T78 1196T58 1216T52 1248Q52 1323 72 1403T130 1503Q273 1489 532 1489Q738 1489 861 1503Q898 1484 918 1404T939 1248Q939 1229 933 1216T914 1196T891 1187T863 1181Q773
1171 773 914V623Q773 550 776 498T792 393T826 307T884 254T973 233Q1006 233 1034 241T1082 260T1117 293T1143 334T1160 384T1171 437T1176 495T1178 553T1179 612V989Q1179 1033 1177 1062T1167 1120T1143 1166T1100 1184Q1083 1187 1073 1190T1054 1204T1044
1234Q1044 1312 1064 1397T1121 1503Q1233 1489 1435 1489Q1620 1489 1721 1503Q1753 1483 1771 1398T1789 1234Q1789 1215 1779 1204T1759 1190T1732 1184Q1648 1176 1648 989Z" />
<glyph unicode="&#xdc;" horiz-adv-x="1841" d="M502 1725T502 1802T554 1932T707 1985Q806 1985 855 1932T905 1802T856 1672T707 1618Q606 1618 554 1671ZM1015 1725T1015 1802T1067 1932T1220 1985Q1319 1985 1368 1932T1418 1802T1369 1672T1220 1618Q1119
1618 1067 1671ZM1648 989V698Q1648 523 1614 394T1520 185T1369 57T1174 -9T935 -27Q863 -27 809 -25T690 -14T577 8T475 46T385 105T312 190T256 303T221 450T208 635V914Q208 975 206 1014T196 1095T172 1157T128 1181Q110 1184 101 1186T78 1196T58 1216T52
1248Q52 1323 72 1403T130 1503Q273 1489 532 1489Q738 1489 861 1503Q898 1484 918 1404T939 1248Q939 1229 933 1216T914 1196T891 1187T863 1181Q773 1171 773 914V623Q773 550 776 498T792 393T826 307T884 254T973 233Q1006 233 1034 241T1082 260T1117 293T1143
334T1160 384T1171 437T1176 495T1178 553T1179 612V989Q1179 1033 1177 1062T1167 1120T1143 1166T1100 1184Q1083 1187 1073 1190T1054 1204T1044 1234Q1044 1312 1064 1397T1121 1503Q1233 1489 1435 1489Q1620 1489 1721 1503Q1753 1483 1771 1398T1789 1234Q1789
1215 1779 1204T1759 1190T1732 1184Q1648 1176 1648 989Z" />
<glyph unicode="&#xdd;" horiz-adv-x="1609" d="M753 1618Q896 1828 1005 2001Q1039 2055 1073 2074T1177 2094Q1257 2094 1290 2080T1323 2033Q1323 2019 1310 2004T1261 1958T1205 1907Q1170 1873 1057 1776T865 1618H753ZM1085 605Q1085 539 1087 494T1097
399T1122 324T1166 294Q1184 291 1193 289T1216 279T1236 259T1242 227Q1242 156 1225 81T1174 -13Q1059 0 803 0T432 -13Q399 5 382 80T364 227Q364 246 370 259T389 279T412 288T440 294Q466 297 483 323T508 399T517 493T520 605V737L386 920Q351 967 326 998T263
1069T183 1137T97 1176Q85 1179 64 1183T34 1190T13 1202T-6 1227T-15 1269T-20 1335V1349Q-20 1398 -9 1450T22 1503Q194 1489 440 1489Q614 1489 810 1503Q824 1503 843 1409T862 1259Q862 1242 850 1233T822 1222T794 1213T781 1192Q781 1172 799 1144L914 966Q1037
1149 1056 1178Q1064 1190 1064 1200T1044 1217T1005 1237T985 1272V1287Q985 1483 1030 1503Q1132 1489 1295 1489Q1339 1489 1454 1496T1601 1503Q1629 1503 1629 1329V1295Q1629 1255 1613 1237T1567 1215T1506 1208T1434 1184T1364 1122Q1321 1063 1263 985T1178
870T1126 796T1085 733V605Z" />
<glyph unicode="&#xde;" horiz-adv-x="1652" d="M224 502V1016Q224 1091 207 1140T153 1193Q151 1193 141 1195T129 1197T117 1200T105 1203T95 1208T85 1214T78 1222T71 1232T68 1245T66 1262Q66 1337 86 1417T144 1516Q289 1489 463 1489Q579 1489 694 1516Q728
1498 749 1428T776 1281Q861 1281 933 1278T1093 1265T1250 1238T1387 1191T1502 1120T1576 1019T1604 883Q1604 769 1551 685T1403 554T1197 485T950 463Q920 463 866 467T789 472Q789 396 803 349T862 296Q864 296 874 294T886 292T898 289T910 286T920 281T930
275T937 267T944 257T947 244T949 227Q949 152 929 72T871 -27Q726 0 552 0Q318 0 143 -27Q106 -8 86 72T65 227Q65 237 66 245T72 259T78 269T89 278T99 284T112 288T124 291T139 294L152 296Q175 298 190 316T212 365T221 428T224 502ZM777 652Q817 641 856 641Q978
641 978 882Q978 1118 857 1118Q819 1118 777 1111V652Z" />
<glyph unicode="&#xdf;" horiz-adv-x="1677" d="M819 1516Q1460 1516 1460 1138Q1460 894 1174 807Q1637 717 1637 407Q1637 314 1604 240T1515 116T1381 34T1217 -13T1035 -27Q975 -27 900 -20V219Q1004 219 1061 271T1118 399Q1118 499 1025 578T769 657V628Q769
353 783 251Q789 197 789 173Q789 95 770 42T721 -12Q719 -12 630 -6T437 0Q335 0 83 -12Q69 6 62 81T55 227Q55 252 68 267T95 286T131 294Q154 297 169 320T191 386T200 468T203 565V1080Q203 1516 819 1516ZM799 889Q872 889 907 931T943 1075Q943 1115 935
1159T903 1241T848 1279Q823 1279 806 1259T781 1202T771 1127T768 1040Q768 1022 768 988T769 941V912Q769 900 775 895T799 889Z" />
<glyph unicode="&#xe0;" horiz-adv-x="1363" d="M782 1197H631Q562 1256 464 1352T330 1486Q311 1506 279 1537T234 1583T222 1612Q222 1644 258 1658T379 1673Q459 1673 497 1654T570 1580Q596 1538 679 1385T782 1197ZM729 124Q669 50 579 12T394 -27Q303 -27
235 0T128 76T70 183T51 310Q51 377 64 430T100 522T159 588T234 632T325 659T428 672T540 676Q577 676 615 673T674 666L694 663V781Q694 840 671 864T593 888Q545 888 492 873T398 837T322 794T268 757L250 742Q203 742 179 772T154 858Q154 904 173 940T223
1001T301 1043T394 1070T499 1085T604 1092T706 1094Q808 1094 883 1079T1011 1031T1096 953T1148 842T1173 702T1180 528Q1180 497 1180 482T1181 441T1184 401T1189 368T1198 338T1211 316T1230 298T1255 289Q1256 289 1267 289T1285 286T1301 276T1314 254T1319
214Q1319 193 1314 148T1289 43T1237 -27Q1232 -26 1209 -20T1177 -12T1142 -7T1087 -2T1013 -1Q943 -1 884 -6T805 -11Q768 -11 729 124ZM684 271Q694 320 694 492Q694 524 682 533T610 542Q559 542 531 504T503 394Q503 326 527 269T594 212Q620 212 648 231T684
271Z" />
<glyph unicode="&#xe1;" horiz-adv-x="1363" d="M647 1197Q790 1407 899 1580Q933 1634 967 1653T1071 1673Q1151 1673 1184 1659T1217 1612Q1217 1598 1204 1583T1155 1537T1099 1486Q1064 1452 951 1355T759 1197H647ZM729 124Q669 50 579 12T394 -27Q303 -27
235 0T128 76T70 183T51 310Q51 377 64 430T100 522T159 588T234 632T325 659T428 672T540 676Q577 676 615 673T674 666L694 663V781Q694 840 671 864T593 888Q545 888 492 873T398 837T322 794T268 757L250 742Q203 742 179 772T154 858Q154 904 173 940T223
1001T301 1043T394 1070T499 1085T604 1092T706 1094Q808 1094 883 1079T1011 1031T1096 953T1148 842T1173 702T1180 528Q1180 497 1180 482T1181 441T1184 401T1189 368T1198 338T1211 316T1230 298T1255 289Q1256 289 1267 289T1285 286T1301 276T1314 254T1319
214Q1319 193 1314 148T1289 43T1237 -27Q1232 -26 1209 -20T1177 -12T1142 -7T1087 -2T1013 -1Q943 -1 884 -6T805 -11Q768 -11 729 124ZM684 271Q694 320 694 492Q694 524 682 533T610 542Q559 542 531 504T503 394Q503 326 527 269T594 212Q620 212 648 231T684
271Z" />
<glyph unicode="&#xe2;" horiz-adv-x="1363" d="M631 1673H781Q848 1612 941 1515T1062 1384Q1073 1370 1089 1351T1115 1322T1133 1299T1146 1277T1150 1258Q1150 1226 1119 1212T1013 1197Q955 1197 927 1212T857 1270L706 1461L555 1270Q514 1228 486 1213T399
1197Q325 1197 294 1211T262 1258Q262 1267 266 1276T279 1298T297 1321T322 1351T350 1384Q377 1417 470 1514T631 1673ZM729 124Q669 50 579 12T394 -27Q303 -27 235 0T128 76T70 183T51 310Q51 377 64 430T100 522T159 588T234 632T325 659T428 672T540 676Q577
676 615 673T674 666L694 663V781Q694 840 671 864T593 888Q545 888 492 873T398 837T322 794T268 757L250 742Q203 742 179 772T154 858Q154 904 173 940T223 1001T301 1043T394 1070T499 1085T604 1092T706 1094Q808 1094 883 1079T1011 1031T1096 953T1148 842T1173
702T1180 528Q1180 497 1180 482T1181 441T1184 401T1189 368T1198 338T1211 316T1230 298T1255 289Q1256 289 1267 289T1285 286T1301 276T1314 254T1319 214Q1319 193 1314 148T1289 43T1237 -27Q1232 -26 1209 -20T1177 -12T1142 -7T1087 -2T1013 -1Q943 -1
884 -6T805 -11Q768 -11 729 124ZM684 271Q694 320 694 492Q694 524 682 533T610 542Q559 542 531 504T503 394Q503 326 527 269T594 212Q620 212 648 231T684 271Z" />
<glyph unicode="&#xe3;" horiz-adv-x="1363" d="M1114 1569Q1145 1489 1145 1426Q1145 1326 1095 1265T937 1204Q875 1204 792 1234T642 1295T552 1326Q506 1326 506 1276L507 1212Q503 1197 408 1197Q285 1197 282 1212Q267 1280 267 1340Q267 1386 278 1424T315
1495T384 1546T490 1565Q545 1565 624 1538T768 1482T854 1454T889 1465T903 1498V1567Q903 1568 919 1569T963 1573T1017 1575Q1077 1575 1114 1569ZM729 124Q669 50 579 12T394 -27Q303 -27 235 0T128 76T70 183T51 310Q51 377 64 430T100 522T159 588T234 632T325
659T428 672T540 676Q577 676 615 673T674 666L694 663V781Q694 840 671 864T593 888Q545 888 492 873T398 837T322 794T268 757L250 742Q203 742 179 772T154 858Q154 904 173 940T223 1001T301 1043T394 1070T499 1085T604 1092T706 1094Q808 1094 883 1079T1011
1031T1096 953T1148 842T1173 702T1180 528Q1180 497 1180 482T1181 441T1184 401T1189 368T1198 338T1211 316T1230 298T1255 289Q1256 289 1267 289T1285 286T1301 276T1314 254T1319 214Q1319 193 1314 148T1289 43T1237 -27Q1232 -26 1209 -20T1177 -12T1142
-7T1087 -2T1013 -1Q943 -1 884 -6T805 -11Q768 -11 729 124ZM684 271Q694 320 694 492Q694 524 682 533T610 542Q559 542 531 504T503 394Q503 326 527 269T594 212Q620 212 648 231T684 271Z" />
<glyph unicode="&#xe4;" horiz-adv-x="1363" d="M253 1304T253 1381T305 1511T458 1564Q557 1564 606 1511T656 1381T607 1251T458 1197Q357 1197 305 1250ZM766 1304T766 1381T818 1511T971 1564Q1070 1564 1119 1511T1169 1381T1120 1251T971 1197Q870 1197
818 1250ZM729 124Q669 50 579 12T394 -27Q303 -27 235 0T128 76T70 183T51 310Q51 377 64 430T100 522T159 588T234 632T325 659T428 672T540 676Q577 676 615 673T674 666L694 663V781Q694 840 671 864T593 888Q545 888 492 873T398 837T322 794T268 757L250
742Q203 742 179 772T154 858Q154 904 173 940T223 1001T301 1043T394 1070T499 1085T604 1092T706 1094Q808 1094 883 1079T1011 1031T1096 953T1148 842T1173 702T1180 528Q1180 497 1180 482T1181 441T1184 401T1189 368T1198 338T1211 316T1230 298T1255 289Q1256
289 1267 289T1285 286T1301 276T1314 254T1319 214Q1319 193 1314 148T1289 43T1237 -27Q1232 -26 1209 -20T1177 -12T1142 -7T1087 -2T1013 -1Q943 -1 884 -6T805 -11Q768 -11 729 124ZM684 271Q694 320 694 492Q694 524 682 533T610 542Q559 542 531 504T503
394Q503 326 527 269T594 212Q620 212 648 231T684 271Z" />
<glyph unicode="&#xe5;" horiz-adv-x="1363" d="M708 1197Q604 1197 530 1258T456 1423Q456 1526 527 1586T710 1647Q820 1647 888 1585T956 1426Q956 1327 885 1262T708 1197ZM559 1422Q559 1348 602 1307T704 1265T806 1307T850 1423Q850 1496 807 1536T705
1577T603 1536T559 1422ZM729 124Q669 50 579 12T394 -27Q303 -27 235 0T128 76T70 183T51 310Q51 377 64 430T100 522T159 588T234 632T325 659T428 672T540 676Q577 676 615 673T674 666L694 663V781Q694 840 671 864T593 888Q545 888 492 873T398 837T322 794T268
757L250 742Q203 742 179 772T154 858Q154 904 173 940T223 1001T301 1043T394 1070T499 1085T604 1092T706 1094Q808 1094 883 1079T1011 1031T1096 953T1148 842T1173 702T1180 528Q1180 497 1180 482T1181 441T1184 401T1189 368T1198 338T1211 316T1230 298T1255
289Q1256 289 1267 289T1285 286T1301 276T1314 254T1319 214Q1319 193 1314 148T1289 43T1237 -27Q1232 -26 1209 -20T1177 -12T1142 -7T1087 -2T1013 -1Q943 -1 884 -6T805 -11Q768 -11 729 124ZM684 271Q694 320 694 492Q694 524 682 533T610 542Q559 542 531
504T503 394Q503 326 527 269T594 212Q620 212 648 231T684 271Z" />
<glyph unicode="&#xe6;" horiz-adv-x="1902" d="M1751 98Q1620 -27 1327 -27Q1214 -27 1116 19T947 152Q844 63 704 18T412 -27Q321 -27 253 0T146 76T88 183T69 310Q69 377 82 430T118 522T177 588T252 632T343 659T446 672T558 676Q598 676 639 673T703 666L725
663V781Q725 840 698 864T611 888Q563 888 510 873T416 837T340 794T286 757L268 742Q221 742 197 772T172 858Q172 904 191 941T240 1002T316 1044T407 1071T511 1086T614 1093T714 1095Q814 1095 896 1061T1018 968Q1072 1028 1159 1061T1340 1095Q1549 1095
1687 978T1842 693Q1836 653 1809 624T1745 578T1657 551T1563 537T1469 532Q1330 529 1238 529Q1246 413 1307 358T1457 302Q1547 302 1639 331T1801 408Q1835 393 1835 349Q1835 280 1808 203T1751 98ZM715 251Q725 304 725 489Q725 513 721 522T696 536T628
542Q577 542 549 504T521 394Q521 326 545 269T612 212Q641 212 674 224T715 251ZM1220 700Q1247 700 1304 699T1392 697Q1432 697 1446 713T1461 769Q1461 842 1431 881T1344 920Q1268 920 1244 868T1220 700Z" />
<glyph unicode="&#xe7;" horiz-adv-x="1154" d="M551 -501L583 -329Q632 -344 675 -344Q722 -344 747 -323T773 -271Q773 -237 742 -211T657 -185Q633 -185 605 -191V-10H709V-86Q778 -88 830 -110T909 -166T948 -236T961 -308Q961 -395 890 -454T685 -514Q619
-514 551 -501ZM1089 390L1120 340Q1120 165 1008 69T660 -27Q509 -27 388 19T192 143T78 317T38 519Q38 633 77 735T191 918T386 1046T659 1094Q865 1094 970 1023T1075 855Q1075 781 1014 728T855 674L743 908Q732 919 683 919T601 877T555 771T541 629Q541 477
611 392T786 307Q947 307 1089 390Z" />
<glyph unicode="&#xe8;" horiz-adv-x="1229" d="M739 1197H588Q519 1256 421 1352T287 1486Q268 1506 236 1537T191 1583T179 1612Q179 1644 215 1658T336 1673Q416 1673 454 1654T527 1580Q553 1538 636 1385T739 1197ZM543 700Q572 700 632 699T725 697Q765
697 779 713T794 769Q794 842 764 881T677 920Q595 920 569 869T543 700ZM1094 98Q963 -27 670 -27Q499 -27 359 39T133 236T48 538Q48 800 217 947T663 1094Q881 1094 1025 977T1185 693Q1162 539 812 532Q711 529 561 529Q571 413 637 358T800 302Q890 302 982
331T1144 408Q1178 393 1178 349Q1178 280 1151 203T1094 98Z" />
<glyph unicode="&#xe9;" horiz-adv-x="1229" d="M604 1197Q747 1407 856 1580Q890 1634 924 1653T1028 1673Q1108 1673 1141 1659T1174 1612Q1174 1598 1161 1583T1112 1537T1056 1486Q1021 1452 908 1355T716 1197H604ZM543 700Q572 700 632 699T725 697Q765
697 779 713T794 769Q794 842 764 881T677 920Q595 920 569 869T543 700ZM1094 98Q963 -27 670 -27Q499 -27 359 39T133 236T48 538Q48 800 217 947T663 1094Q881 1094 1025 977T1185 693Q1162 539 812 532Q711 529 561 529Q571 413 637 358T800 302Q890 302 982
331T1144 408Q1178 393 1178 349Q1178 280 1151 203T1094 98Z" />
<glyph unicode="&#xea;" horiz-adv-x="1229" d="M588 1673H738Q805 1612 898 1515T1019 1384Q1030 1370 1046 1351T1072 1322T1090 1299T1103 1277T1107 1258Q1107 1226 1076 1212T970 1197Q912 1197 884 1212T814 1270L663 1461L512 1270Q471 1228 443 1213T356
1197Q282 1197 251 1211T219 1258Q219 1267 223 1276T236 1298T254 1321T279 1351T307 1384Q334 1417 427 1514T588 1673ZM543 700Q572 700 632 699T725 697Q765 697 779 713T794 769Q794 842 764 881T677 920Q595 920 569 869T543 700ZM1094 98Q963 -27 670 -27Q499
-27 359 39T133 236T48 538Q48 800 217 947T663 1094Q881 1094 1025 977T1185 693Q1162 539 812 532Q711 529 561 529Q571 413 637 358T800 302Q890 302 982 331T1144 408Q1178 393 1178 349Q1178 280 1151 203T1094 98Z" />
<glyph unicode="&#xeb;" horiz-adv-x="1229" d="M210 1304T210 1381T262 1511T415 1564Q514 1564 563 1511T613 1381T564 1251T415 1197Q314 1197 262 1250ZM723 1304T723 1381T775 1511T928 1564Q1027 1564 1076 1511T1126 1381T1077 1251T928 1197Q827 1197
775 1250ZM543 700Q572 700 632 699T725 697Q765 697 779 713T794 769Q794 842 764 881T677 920Q595 920 569 869T543 700ZM1094 98Q963 -27 670 -27Q499 -27 359 39T133 236T48 538Q48 800 217 947T663 1094Q881 1094 1025 977T1185 693Q1162 539 812 532Q711
529 561 529Q571 413 637 358T800 302Q890 302 982 331T1144 408Q1178 393 1178 349Q1178 280 1151 203T1094 98Z" />
<glyph unicode="&#xec;" horiz-adv-x="927" d="M615 1196H464Q395 1255 297 1351T163 1485Q144 1505 112 1536T67 1582T55 1611Q55 1643 91 1657T212 1672Q292 1672 330 1653T403 1579Q429 1537 512 1384T615 1196ZM730 587Q730 543 731 511T737 436T750 366T775
318T814 294Q832 291 841 289T864 279T884 259T890 227Q890 152 870 72T812 -27Q667 0 493 0Q312 0 164 -27Q127 -8 107 72T86 227Q86 246 92 259T111 279T134 288T162 294Q190 297 208 321T233 386T243 463T246 547V599Q246 632 245 652T236 702T214 750T173 783T105
803Q73 806 64 818T55 863Q55 932 72 1003T119 1094Q281 1067 464 1067Q516 1067 583 1073T667 1080Q712 1080 726 1064T740 993Q740 989 738 911T733 736T730 587Z" />
<glyph unicode="&#xed;" horiz-adv-x="927" d="M258 1196Q401 1406 510 1579Q544 1633 578 1652T682 1672Q762 1672 795 1658T828 1611Q828 1597 815 1582T766 1536T710 1485Q675 1451 562 1354T370 1196H258ZM730 587Q730 543 731 511T737 436T750 366T775 318T814
294Q832 291 841 289T864 279T884 259T890 227Q890 152 870 72T812 -27Q667 0 493 0Q312 0 164 -27Q127 -8 107 72T86 227Q86 246 92 259T111 279T134 288T162 294Q190 297 208 321T233 386T243 463T246 547V599Q246 632 245 652T236 702T214 750T173 783T105 803Q73
806 64 818T55 863Q55 932 72 1003T119 1094Q281 1067 464 1067Q516 1067 583 1073T667 1080Q712 1080 726 1064T740 993Q740 989 738 911T733 736T730 587Z" />
<glyph unicode="&#xee;" horiz-adv-x="927" d="M642 1672H792Q859 1611 952 1514T1073 1383Q1084 1369 1100 1350T1126 1321T1144 1298T1157 1276T1161 1257Q1161 1225 1130 1211T1024 1196Q966 1196 938 1211T868 1269L717 1460L566 1269Q525 1227 497 1212T410
1196Q336 1196 305 1210T273 1257Q273 1266 277 1275T290 1297T308 1320T333 1350T361 1383Q388 1416 481 1513T642 1672ZM730 587Q730 543 731 511T737 436T750 366T775 318T814 294Q832 291 841 289T864 279T884 259T890 227Q890 152 870 72T812 -27Q667 0 493
0Q312 0 164 -27Q127 -8 107 72T86 227Q86 246 92 259T111 279T134 288T162 294Q190 297 208 321T233 386T243 463T246 547V599Q246 632 245 652T236 702T214 750T173 783T105 803Q73 806 64 818T55 863Q55 932 72 1003T119 1094Q281 1067 464 1067Q516 1067 583
1073T667 1080Q712 1080 726 1064T740 993Q740 989 738 911T733 736T730 587Z" />
<glyph unicode="&#xef;" horiz-adv-x="927" d="M262 1303T262 1380T314 1510T467 1563Q566 1563 615 1510T665 1380T616 1250T467 1196Q366 1196 314 1249ZM775 1303T775 1380T827 1510T980 1563Q1079 1563 1128 1510T1178 1380T1129 1250T980 1196Q879 1196 827
1249ZM730 587Q730 543 731 511T737 436T750 366T775 318T814 294Q832 291 841 289T864 279T884 259T890 227Q890 152 870 72T812 -27Q667 0 493 0Q312 0 164 -27Q127 -8 107 72T86 227Q86 246 92 259T111 279T134 288T162 294Q190 297 208 321T233 386T243 463T246
547V599Q246 632 245 652T236 702T214 750T173 783T105 803Q73 806 64 818T55 863Q55 932 72 1003T119 1094Q281 1067 464 1067Q516 1067 583 1073T667 1080Q712 1080 726 1064T740 993Q740 989 738 911T733 736T730 587Z" />
<glyph unicode="&#xf0;" horiz-adv-x="1707" d="M808 697Q731 697 682 640T633 471Q633 427 635 393T649 317T678 247T732 200T816 180Q884 180 931 239T978 426Q978 463 978 483T974 536T965 588T946 631T916 667T871 688T808 697ZM718 1002Q650 1002 650 1114Q650
1157 685 1178T808 1215Q815 1216 830 1219T859 1224T885 1229Q829 1308 740 1308Q682 1308 632 1288T549 1236T488 1169T442 1101T409 1050T379 1029Q308 1029 214 1062T120 1130Q120 1255 195 1367T354 1491Q459 1519 740 1519Q1134 1519 1373 1320Q1394 1324
1439 1333T1506 1346Q1568 1359 1603 1346T1638 1307Q1638 1246 1615 1208T1522 1151Q1652 948 1652 672Q1652 522 1603 398T1457 179T1205 32T849 -24Q716 -24 599 -6T377 53T197 156T77 310T33 517Q33 604 68 675T162 793T296 872T451 918T610 932Q818 932 969
840V868Q969 969 954 1048Q822 1024 718 1002Z" />
<glyph unicode="&#xf1;" horiz-adv-x="1618" d="M1216 1569Q1247 1489 1247 1426Q1247 1326 1197 1265T1039 1204Q977 1204 894 1234T744 1295T654 1326Q608 1326 608 1276L609 1212Q605 1197 510 1197Q387 1197 384 1212Q369 1280 369 1340Q369 1386 380 1424T417
1495T486 1546T592 1565Q647 1565 726 1538T870 1482T956 1454T991 1465T1005 1498V1567Q1005 1568 1021 1569T1065 1573T1119 1575Q1179 1575 1216 1569ZM1260 0Q1236 0 1174 -8T1080 -16Q1015 -16 978 6T940 88Q940 132 941 224T943 407Q943 633 924 726T838
820Q706 820 706 655V577Q706 533 706 509T709 447T715 389T728 345T749 310T780 294Q810 294 833 277T856 227Q856 152 836 72T778 -27Q636 0 469 0Q288 0 140 -27Q103 -8 83 72T62 227Q62 260 85 277T138 294Q190 304 205 365T221 547V574Q221 701 193 746T67
805Q43 810 37 823T30 879Q30 932 41 983T68 1064T94 1094Q270 1067 410 1067Q474 1067 544 1074T634 1081Q677 1081 692 1066T707 993L705 930Q781 1010 875 1052T1066 1094Q1141 1094 1206 1071T1323 1003T1404 882T1434 710Q1434 686 1431 637T1428 562Q1428
527 1428 503T1431 446T1438 389T1450 344T1470 310T1500 296Q1502 296 1512 294T1524 292T1536 289T1548 286T1558 281T1568 275T1575 267T1582 257T1585 244T1587 227Q1587 152 1567 72T1509 -27Q1388 0 1260 0Z" />
<glyph unicode="&#xf2;" horiz-adv-x="1398" d="M763 1197H612Q543 1256 445 1352T311 1486Q292 1506 260 1537T215 1583T203 1612Q203 1644 239 1658T360 1673Q440 1673 478 1654T551 1580Q577 1538 660 1385T763 1197ZM700 -27Q411 -27 236 119T60 530Q60 794
221 944T688 1094Q836 1094 954 1061T1158 962T1291 790T1338 544Q1338 270 1170 122T700 -27ZM594 529Q594 340 616 252T703 164Q726 164 743 177T771 218T789 276T799 356T803 445T804 546Q804 592 804 621T800 701T791 784T773 851T744 902T700 919Q634 919
614 830T594 529Z" />
<glyph unicode="&#xf3;" horiz-adv-x="1398" d="M630 1197Q773 1407 882 1580Q916 1634 950 1653T1054 1673Q1134 1673 1167 1659T1200 1612Q1200 1598 1187 1583T1138 1537T1082 1486Q1047 1452 934 1355T742 1197H630ZM700 -27Q411 -27 236 119T60 530Q60 794
221 944T688 1094Q836 1094 954 1061T1158 962T1291 790T1338 544Q1338 270 1170 122T700 -27ZM594 529Q594 340 616 252T703 164Q726 164 743 177T771 218T789 276T799 356T803 445T804 546Q804 592 804 621T800 701T791 784T773 851T744 902T700 919Q634 919
614 830T594 529Z" />
<glyph unicode="&#xf4;" horiz-adv-x="1398" d="M613 1673H763Q830 1612 923 1515T1044 1384Q1055 1370 1071 1351T1097 1322T1115 1299T1128 1277T1132 1258Q1132 1226 1101 1212T995 1197Q937 1197 909 1212T839 1270L688 1461L537 1270Q496 1228 468 1213T381
1197Q307 1197 276 1211T244 1258Q244 1267 248 1276T261 1298T279 1321T304 1351T332 1384Q359 1417 452 1514T613 1673ZM700 -27Q411 -27 236 119T60 530Q60 794 221 944T688 1094Q836 1094 954 1061T1158 962T1291 790T1338 544Q1338 270 1170 122T700 -27ZM594
529Q594 340 616 252T703 164Q726 164 743 177T771 218T789 276T799 356T803 445T804 546Q804 592 804 621T800 701T791 784T773 851T744 902T700 919Q634 919 614 830T594 529Z" />
<glyph unicode="&#xf5;" horiz-adv-x="1398" d="M1096 1569Q1127 1489 1127 1426Q1127 1326 1077 1265T919 1204Q857 1204 774 1234T624 1295T534 1326Q488 1326 488 1276L489 1212Q485 1197 390 1197Q267 1197 264 1212Q249 1280 249 1340Q249 1386 260 1424T297
1495T366 1546T472 1565Q527 1565 606 1538T750 1482T836 1454T871 1465T885 1498V1567Q885 1568 901 1569T945 1573T999 1575Q1059 1575 1096 1569ZM700 -27Q411 -27 236 119T60 530Q60 794 221 944T688 1094Q836 1094 954 1061T1158 962T1291 790T1338 544Q1338
270 1170 122T700 -27ZM594 529Q594 340 616 252T703 164Q726 164 743 177T771 218T789 276T799 356T803 445T804 546Q804 592 804 621T800 701T791 784T773 851T744 902T700 919Q634 919 614 830T594 529Z" />
<glyph unicode="&#xf6;" horiz-adv-x="1398" d="M235 1304T235 1381T287 1511T440 1564Q539 1564 588 1511T638 1381T589 1251T440 1197Q339 1197 287 1250ZM748 1304T748 1381T800 1511T953 1564Q1052 1564 1101 1511T1151 1381T1102 1251T953 1197Q852 1197
800 1250ZM700 -27Q411 -27 236 119T60 530Q60 794 221 944T688 1094Q836 1094 954 1061T1158 962T1291 790T1338 544Q1338 270 1170 122T700 -27ZM594 529Q594 340 616 252T703 164Q726 164 743 177T771 218T789 276T799 356T803 445T804 546Q804 592 804 621T800
701T791 784T773 851T744 902T700 919Q634 919 614 830T594 529Z" />
<glyph unicode="&#xf7;" horiz-adv-x="1060" d="M216 697Q268 698 841 698Q945 698 984 701Q1020 687 1020 616Q1020 521 965 521Q960 523 903 524T792 526L738 527H237Q99 523 92 519Q37 519 37 614Q37 685 73 699Q99 697 216 697ZM337 238Q337 310 386 360T529
411Q622 411 668 360T715 238T669 116T529 65Q435 65 386 115T337 238ZM337 978Q337 1051 386 1101T529 1151Q622 1151 668 1100T715 978T669 856T529 805Q435 805 386 855T337 978Z" />
<glyph unicode="&#xf8;" horiz-adv-x="1373" d="M576 497Q685 668 769 803Q745 919 682 919Q616 919 596 830T576 529V497ZM299 62Q176 131 109 249T42 530Q42 794 203 944T670 1094Q817 1094 932 1063Q979 1138 1005 1184Q1014 1210 1050 1210H1056Q1063 1211
1070 1211T1088 1211T1108 1209T1128 1205T1145 1198T1156 1187T1161 1171Q1161 1145 1146 1119Q1137 1104 1114 1066T1076 1005Q1320 868 1320 544Q1320 270 1152 122T682 -27Q563 -27 459 -1Q444 -25 421 -62T389 -112Q359 -159 298 -159Q250 -159 230 -142T210
-90Q210 -80 215 -70T236 -37T259 -2Q262 3 275 24T299 62ZM605 234Q631 164 685 164Q707 164 724 176T752 215T770 271T780 346T785 431T786 529Q662 327 605 234Z" />
<glyph unicode="&#xf9;" horiz-adv-x="1639" d="M1135 1197H984Q915 1256 817 1352T683 1486Q664 1506 632 1537T587 1583T575 1612Q575 1644 611 1658T732 1673Q812 1673 850 1654T923 1580Q949 1538 1032 1385T1135 1197ZM967 599Q967 633 966 652T958 702T937
750T896 783T828 803Q796 806 787 818T778 863Q778 932 795 1003T842 1094Q999 1067 1177 1067Q1232 1067 1302 1074T1391 1081Q1435 1081 1446 1065T1458 993Q1458 990 1457 920T1454 754T1452 591Q1452 531 1452 500T1457 425T1470 358T1495 316T1536 290Q1538
290 1548 289T1566 286T1582 277T1595 254T1600 215Q1600 194 1595 149T1570 44T1518 -26Q1512 -25 1490 -20T1460 -14T1429 -9T1384 -4T1328 -1T1251 0Q1185 0 1118 -5T1034 -10Q950 -10 950 125Q895 40 809 7T597 -27Q534 -27 483 -16T393 20T325 76T275 151T242
242T222 350T213 468T210 599Q210 641 208 666T195 725T158 778T90 802Q58 806 49 818T40 863Q40 932 57 1003T104 1094Q244 1067 410 1067Q467 1067 540 1074T633 1081Q678 1081 692 1064T706 993Q706 989 703 921T698 761T695 614Q695 530 695 491T700 397T712
319T735 270T773 236T830 227Q857 227 878 236T913 259T938 301T953 355T962 425T966 505T967 599Z" />
<glyph unicode="&#xfa;" horiz-adv-x="1639" d="M618 1197Q761 1407 870 1580Q904 1634 938 1653T1042 1673Q1122 1673 1155 1659T1188 1612Q1188 1598 1175 1583T1126 1537T1070 1486Q1035 1452 922 1355T730 1197H618ZM967 599Q967 633 966 652T958 702T937
750T896 783T828 803Q796 806 787 818T778 863Q778 932 795 1003T842 1094Q999 1067 1177 1067Q1232 1067 1302 1074T1391 1081Q1435 1081 1446 1065T1458 993Q1458 990 1457 920T1454 754T1452 591Q1452 531 1452 500T1457 425T1470 358T1495 316T1536 290Q1538
290 1548 289T1566 286T1582 277T1595 254T1600 215Q1600 194 1595 149T1570 44T1518 -26Q1512 -25 1490 -20T1460 -14T1429 -9T1384 -4T1328 -1T1251 0Q1185 0 1118 -5T1034 -10Q950 -10 950 125Q895 40 809 7T597 -27Q534 -27 483 -16T393 20T325 76T275 151T242
242T222 350T213 468T210 599Q210 641 208 666T195 725T158 778T90 802Q58 806 49 818T40 863Q40 932 57 1003T104 1094Q244 1067 410 1067Q467 1067 540 1074T633 1081Q678 1081 692 1064T706 993Q706 989 703 921T698 761T695 614Q695 530 695 491T700 397T712
319T735 270T773 236T830 227Q857 227 878 236T913 259T938 301T953 355T962 425T966 505T967 599Z" />
<glyph unicode="&#xfb;" horiz-adv-x="1639" d="M722 1673H872Q939 1612 1032 1515T1153 1384Q1164 1370 1180 1351T1206 1322T1224 1299T1237 1277T1241 1258Q1241 1226 1210 1212T1104 1197Q1046 1197 1018 1212T948 1270L797 1461L646 1270Q605 1228 577 1213T490
1197Q416 1197 385 1211T353 1258Q353 1267 357 1276T370 1298T388 1321T413 1351T441 1384Q468 1417 561 1514T722 1673ZM967 599Q967 633 966 652T958 702T937 750T896 783T828 803Q796 806 787 818T778 863Q778 932 795 1003T842 1094Q999 1067 1177 1067Q1232
1067 1302 1074T1391 1081Q1435 1081 1446 1065T1458 993Q1458 990 1457 920T1454 754T1452 591Q1452 531 1452 500T1457 425T1470 358T1495 316T1536 290Q1538 290 1548 289T1566 286T1582 277T1595 254T1600 215Q1600 194 1595 149T1570 44T1518 -26Q1512 -25
1490 -20T1460 -14T1429 -9T1384 -4T1328 -1T1251 0Q1185 0 1118 -5T1034 -10Q950 -10 950 125Q895 40 809 7T597 -27Q534 -27 483 -16T393 20T325 76T275 151T242 242T222 350T213 468T210 599Q210 641 208 666T195 725T158 778T90 802Q58 806 49 818T40 863Q40
932 57 1003T104 1094Q244 1067 410 1067Q467 1067 540 1074T633 1081Q678 1081 692 1064T706 993Q706 989 703 921T698 761T695 614Q695 530 695 491T700 397T712 319T735 270T773 236T830 227Q857 227 878 236T913 259T938 301T953 355T962 425T966 505T967 599Z"
/>
<glyph unicode="&#xfc;" horiz-adv-x="1639" d="M306 1304T306 1381T358 1511T511 1564Q610 1564 659 1511T709 1381T660 1251T511 1197Q410 1197 358 1250ZM819 1304T819 1381T871 1511T1024 1564Q1123 1564 1172 1511T1222 1381T1173 1251T1024 1197Q923 1197
871 1250ZM967 599Q967 633 966 652T958 702T937 750T896 783T828 803Q796 806 787 818T778 863Q778 932 795 1003T842 1094Q999 1067 1177 1067Q1232 1067 1302 1074T1391 1081Q1435 1081 1446 1065T1458 993Q1458 990 1457 920T1454 754T1452 591Q1452 531 1452
500T1457 425T1470 358T1495 316T1536 290Q1538 290 1548 289T1566 286T1582 277T1595 254T1600 215Q1600 194 1595 149T1570 44T1518 -26Q1512 -25 1490 -20T1460 -14T1429 -9T1384 -4T1328 -1T1251 0Q1185 0 1118 -5T1034 -10Q950 -10 950 125Q895 40 809 7T597
-27Q534 -27 483 -16T393 20T325 76T275 151T242 242T222 350T213 468T210 599Q210 641 208 666T195 725T158 778T90 802Q58 806 49 818T40 863Q40 932 57 1003T104 1094Q244 1067 410 1067Q467 1067 540 1074T633 1081Q678 1081 692 1064T706 993Q706 989 703
921T698 761T695 614Q695 530 695 491T700 397T712 319T735 270T773 236T830 227Q857 227 878 236T913 259T938 301T953 355T962 425T966 505T967 599Z" />
<glyph unicode="&#xfd;" horiz-adv-x="1422" d="M627 1197Q770 1407 879 1580Q913 1634 947 1653T1051 1673Q1131 1673 1164 1659T1197 1612Q1197 1598 1184 1583T1135 1537T1079 1486Q1044 1452 931 1355T739 1197H627ZM974 221Q832 -28 771 -113Q655 -277 540
-319Q490 -338 434 -338Q375 -338 310 -317T193 -249T141 -143Q141 -99 156 -62T206 -24Q332 -48 371 -48Q408 -48 423 -48T461 -40T493 -24T524 13T562 69T612 156L521 157Q296 546 194 717Q168 760 141 783T93 811T57 819T32 832T23 868Q23 990 31 1032T64 1094Q253
1067 381 1067Q563 1067 686 1095Q709 1087 718 1039T728 871Q728 846 717 834T692 821T667 809T656 775Q656 773 669 747T700 684T737 611T771 545T788 512Q807 475 819 475T847 512Q850 519 885 596T940 722T961 776Q961 792 946 801T912 814T878 831T862 868Q862
1080 927 1095Q1076 1067 1182 1067Q1269 1067 1350 1094Q1351 1095 1356 1095Q1367 1095 1373 1079T1382 1026T1385 965T1386 891Q1386 857 1379 837T1362 811T1336 800T1306 792T1273 776T1243 739Q1200 663 1156 578T1055 381T974 221Z" />
<glyph unicode="&#xfe;" horiz-adv-x="1474" d="M799 876Q710 876 710 559V527Q710 483 710 456T713 385T722 312T738 255T764 211T803 197Q896 197 896 554Q896 619 893 666T881 766T852 847T799 876ZM711 7Q712 -51 714 -129T718 -257T720 -313Q720 -367 706
-383T647 -400Q630 -400 563 -394T444 -387Q261 -387 99 -414Q69 -395 52 -324T35 -183Q35 -150 44 -138T85 -123Q125 -119 152 -104T194 -70T215 -22T224 28T225 81Q225 152 223 304T221 529Q221 605 223 773T225 1021Q225 1054 224 1074T216 1124T194 1172T153
1205T85 1225Q53 1228 44 1240T35 1285Q35 1354 52 1425T99 1516Q261 1489 444 1489Q496 1489 563 1495T647 1502Q692 1502 706 1486T720 1415Q720 1411 718 1341T713 1180T710 1038Q824 1095 951 1095Q1045 1095 1131 1062T1284 968T1390 814T1430 609Q1430 495
1397 396T1306 226T1170 103T1003 26T818 0Q761 0 711 7Z" />
<glyph unicode="&#xff;" horiz-adv-x="1422" d="M321 1304T321 1381T373 1511T526 1564Q625 1564 674 1511T724 1381T675 1251T526 1197Q425 1197 373 1250ZM834 1304T834 1381T886 1511T1039 1564Q1138 1564 1187 1511T1237 1381T1188 1251T1039 1197Q938 1197
886 1250ZM974 221Q832 -28 771 -113Q655 -277 540 -319Q490 -338 434 -338Q375 -338 310 -317T193 -249T141 -143Q141 -99 156 -62T206 -24Q332 -48 371 -48Q408 -48 423 -48T461 -40T493 -24T524 13T562 69T612 156L521 157Q296 546 194 717Q168 760 141 783T93
811T57 819T32 832T23 868Q23 990 31 1032T64 1094Q253 1067 381 1067Q563 1067 686 1095Q709 1087 718 1039T728 871Q728 846 717 834T692 821T667 809T656 775Q656 773 669 747T700 684T737 611T771 545T788 512Q807 475 819 475T847 512Q850 519 885 596T940
722T961 776Q961 792 946 801T912 814T878 831T862 868Q862 1080 927 1095Q1076 1067 1182 1067Q1269 1067 1350 1094Q1351 1095 1356 1095Q1367 1095 1373 1079T1382 1026T1385 965T1386 891Q1386 857 1379 837T1362 811T1336 800T1306 792T1273 776T1243 739Q1200
663 1156 578T1055 381T974 221Z" />
<glyph unicode="&#x2013;" horiz-adv-x="1168" d="M272 729Q324 730 897 730Q1001 730 1040 733Q1076 719 1076 648Q1076 553 1021 553Q1016 555 959 556T848 558L794 559H293Q155 555 148 551Q93 551 93 646Q93 717 129 731Q155 729 272 729Z" />
<glyph unicode="&#x2014;" horiz-adv-x="1714" d="M272 729Q324 730 1443 730Q1547 730 1586 733Q1622 719 1622 648Q1622 553 1567 553Q1562 555 1505 556T1394 558L1340 559H293Q155 555 148 551Q93 551 93 646Q93 717 129 731Q155 729 272 729Z" />
<glyph unicode="&#x2018;" horiz-adv-x="634" d="M518 1520Q518 1502 489 1473T432 1411T403 1353Q403 1342 429 1331T485 1307T542 1253T568 1151Q568 1049 500 986T322 923Q218 923 146 992T73 1161Q73 1221 104 1293T184 1428T302 1533T436 1575Q473 1575 495
1558T518 1520Z" />
<glyph unicode="&#x2019;" horiz-adv-x="637" d="M122 978Q122 996 151 1025T208 1087T237 1145Q237 1156 211 1167T155 1191T98 1245T72 1347Q72 1449 140 1512T318 1575Q422 1575 494 1506T567 1337Q567 1277 536 1205T456 1070T338 965T204 923Q167 923 145
940T122 978Z" />
<glyph unicode="&#x201a;" horiz-adv-x="671" d="M142 -188Q142 -170 171 -141T228 -79T257 -21Q257 -10 231 1T175 25T118 79T92 181Q92 283 160 346T338 409Q442 409 514 340T587 171Q587 111 556 39T476 -96T358 -201T224 -243Q186 -243 164 -226T142 -188Z" />
<glyph unicode="&#x201c;" horiz-adv-x="1183" d="M1067 1520Q1067 1506 1049 1484T1010 1443T970 1398T952 1353Q952 1342 978 1331T1034 1307T1091 1253T1117 1151Q1117 1049 1049 986T871 923Q767 923 695 992T622 1161Q622 1221 653 1293T733 1428T851 1533T985
1575Q1022 1575 1044 1558T1067 1520ZM518 1520Q518 1502 489 1473T432 1411T403 1353Q403 1342 429 1331T485 1307T542 1253T568 1151Q568 1049 500 986T322 923Q218 923 146 992T73 1161Q73 1221 104 1293T184 1428T302 1533T436 1575Q473 1575 495 1558T518
1520Z" />
<glyph unicode="&#x201d;" horiz-adv-x="1186" d="M122 978Q122 996 151 1025T208 1087T237 1145Q237 1156 211 1167T155 1191T98 1245T72 1347Q72 1449 140 1512T318 1575Q422 1575 494 1506T567 1337Q567 1277 536 1205T456 1070T338 965T204 923Q167 923 145
940T122 978ZM671 978Q671 992 689 1014T728 1055T768 1100T786 1145Q786 1156 760 1167T704 1191T647 1245T621 1347Q621 1449 689 1512T867 1575Q971 1575 1043 1506T1116 1337Q1116 1277 1085 1205T1005 1070T887 965T753 923Q716 923 694 940T671 978Z" />
<glyph unicode="&#x201e;" horiz-adv-x="1220" d="M142 -188Q142 -170 171 -141T228 -79T257 -21Q257 -10 231 1T175 25T118 79T92 181Q92 283 160 346T338 409Q442 409 514 340T587 171Q587 111 556 39T476 -96T358 -201T224 -243Q186 -243 164 -226T142 -188ZM691
-188Q691 -174 709 -152T748 -111T788 -66T806 -21Q806 -10 780 1T724 25T667 79T641 181Q641 283 709 346T887 409Q991 409 1063 340T1136 171Q1136 111 1105 39T1025 -96T907 -201T773 -243Q735 -243 713 -226T691 -188Z" />
<glyph unicode="&#x2022;" horiz-adv-x="939" d="M472 300Q372 300 291 333T158 422T80 547T52 690Q52 763 78 829T156 949T289 1035T475 1067Q576 1067 656 1036T786 951T861 832T887 693Q887 619 860 550T783 424T651 334T472 300Z" />
<glyph unicode="&#x2039;" horiz-adv-x="848" d="M37 534Q37 574 171 705T440 949L575 1061Q586 1069 596 1069Q617 1069 665 1026T755 926T797 835Q797 819 784 806Q536 603 466 534Q498 503 580 435T728 314L794 262Q807 249 807 233Q807 199 764 142T669 42T596
-1Q586 -1 575 7Q564 16 545 32T469 95T363 187T250 288T143 391T68 476T37 534Z" />
<glyph unicode="&#x203a;" horiz-adv-x="853" d="M818 534Q818 494 684 363T414 119L280 7Q269 -1 259 -1Q237 -1 186 42T92 142T48 233Q48 249 61 262Q317 465 389 534Q358 565 279 633T135 754L71 806Q58 819 58 835Q58 869 99 926T189 1026T259 1069Q269 1069
280 1061Q291 1052 310 1036T386 973T492 881T605 780T712 677T787 592T818 534Z" />
</font>
</defs>
</svg>
