<?xml version="1.0" standalone="no"?>
<!DOCTYPE svg PUBLIC "-//W3C//DTD SVG 1.1//EN" "http://www.w3.org/Graphics/SVG/1.1/DTD/svg11.dtd">
<svg xmlns="http://www.w3.org/2000/svg">
<defs >
<font id="LifeSavers" horiz-adv-x="419" ><font-face
    font-family="Life Savers"
    units-per-em="1000"
    panose-1="3 5 6 2 4 3 2 0 0 4"
    ascent="972"
    descent="-250"
    alphabetic="0" />
<glyph unicode=" " glyph-name="space" horiz-adv-x="226" />
<glyph unicode="!" glyph-name="exclam" horiz-adv-x="222" d="M98 127Q97 134 96 177T94 282T92 420T90 566T89 699T88 795Q88 815 91 820T107 826Q116 826 122 822T128 795V172Q128 137 126 119T112 101Q107 101 104 105T98 127ZM150 20Q150 3 138 -5T114 -13Q101
-13 90 -5T79 21Q79 40 91 48T117 56Q131 56 140 46T150 20Z" />
<glyph unicode="&quot;" glyph-name="quotedbl" horiz-adv-x="265" d="M68 850Q77 850 81 845T88 832T90 815T91 798Q91 795 90 773T87 725T80 678T69 657Q61 657 57 674T50 713T47 755T46 783Q46 788 46 799T49 821T55 841T68 850ZM197 850Q206 850 210 845T217
832T219 815T220 798Q220 795 219 773T216 725T209 678T198 657Q190 657 186 674T179 713T176 755T175 783Q175 788 175 799T178 821T184 841T197 850Z" />
<glyph unicode="#" glyph-name="numbersign" horiz-adv-x="705" d="M41 242Q37 242 33 245T29 256Q29 261 32 268T46 275H184L250 431H99Q92 431 87 436T81 448Q81 453 84 458T95 464Q99 464 115 464T156 464T208 463T264 462Q289 522 306 561T324 602Q330 617
333 628T341 646T350 656T365 660Q379 660 379 650Q379 648 374 633T358 592T334 533T304 462H368Q385 462 418 462T490 463L550 602Q563 631 570 645T591 660Q605 660 605 650Q605 648 600 633T584 592T560 534T530 463Q576 464 613 464T663 465Q667 465 671 461T676
451Q676 446 673 439T659 432H517L451 276H605Q612 276 617 270T623 259Q623 254 620 249T608 243Q603 243 586 243T544 243T492 244T437 244Q422 208 408 175T384 116T366 70T356 42Q354 34 350 28T334 22Q318 22 315 37Q315 40 321 57T338 103T365 168T397 245H356Q337
245 297 245T211 244Q196 208 183 175T159 116T141 70T130 42Q128 34 124 28T108 22Q92 22 89 37Q89 40 95 57T112 103T138 167T170 243Q124 243 88 243T41 242ZM224 275Q269 275 316 275T410 276Q427 316 444 355T477 432Q431 432 384 432T291 431L224 275Z" />
<glyph unicode="$" glyph-name="dollar" horiz-adv-x="600" d="M83 91Q83 68 84 50Q84 42 84 35T85 22Q85 15 86 9Q86 -16 67 -16Q57 -16 52 -8T47 7Q47 13 47 25T49 52T50 82T51 108Q51 124 51 135T50 156T50 178T49 205Q49 219 52 229T68 239Q82 239 86 221T90
180Q90 150 103 122T141 70T204 32T291 14Q291 84 291 153T292 293Q260 305 219 323T142 372T82 452T57 574Q57 623 76 661T128 726T203 768T291 786V818Q291 832 299 836T312 840Q323 840 327 827T331 802V786Q397 782 444 742T520 621Q516 684 514 714T512 746Q512
771 531 771Q541 771 546 763T551 748Q551 713 549 676T547 602Q547 570 548 547T549 492Q549 478 546 468T530 458Q516 458 513 476T509 517Q509 562 496 604T458 679T402 732T331 756Q330 709 330 662T329 562T329 451T329 321Q363 307 400 290T468 252T519 204T539
145Q539 104 519 75T468 27T400 -3T330 -15Q330 -23 330 -31T331 -48Q331 -65 311 -65Q303 -65 297 -61T291 -51V-15Q261 -14 230 -7T171 13T120 45T83 91ZM292 336Q292 402 292 458T292 565T292 662T291 755Q246 751 211 736T150 695T112 637T98 565Q98 511 116
473T162 409T224 366T292 336ZM329 279Q329 213 329 147T330 15Q363 17 393 27T446 53T484 93T498 145Q498 168 484 187T445 222T391 252T329 279Z" />
<glyph unicode="%" glyph-name="percent" horiz-adv-x="634" d="M30 513Q30 548 41 575T69 622T108 652T152 662Q180 662 198 648T238 617T293 585T387 571Q405 571 423 572T456 584Q467 591 475 604T490 629T505 651T522 660Q535 660 535 650Q535 647 523 622T490
558T443 468T388 365T331 259T280 162T241 86T220 42Q217 34 212 28T196 22Q179 22 179 37Q179 41 190 65T221 125T264 207T313 299T363 391T406 471T437 527T449 550Q435 548 417 547T385 545Q344 545 309 553T241 582Q249 567 250 552T252 526Q252 492 244 464T220
415T186 384T144 372Q125 372 105 381T69 407T41 451T30 513ZM373 122Q373 186 404 226T485 266Q510 266 530 255T563 225T583 180T590 125Q590 59 559 20T480 -19Q454 -19 434 -7T401 25T380 70T373 122ZM404 124Q404 109 407 90T419 54T441 24T478 12Q499 12
513 22T537 50T551 87T556 128Q556 158 549 178T531 211T507 229T481 235Q453 235 429 208T404 124ZM61 513Q61 490 67 470T83 435T108 412T141 403Q175 403 198 434T221 521Q221 551 215 572T198 606T175 625T149 631Q136 631 121 625T92 606T70 569T61 513Z"
/>
<glyph unicode="&amp;" glyph-name="ampersand" horiz-adv-x="708" d="M434 359Q419 359 411 370T403 391Q403 409 411 422T431 442T455 453T474 457Q506 457 526 427T547 333Q547 285 528 234T485 140Q498 120 514 100T545 63T574 33T596 16Q602 13 684 13Q707
13 718 12T730 0Q730 -14 698 -16T595 -19Q582 -19 566 -7T533 24T497 65T461 108Q442 85 419 64T368 26T308 1T240 -9Q207 -9 172 0T107 32T58 90T38 182Q38 237 57 277T103 351T160 412T213 469Q185 523 165 575T145 677Q145 715 157 745T191 795T239 827T295
838Q316 838 338 832T377 811T406 772T417 713Q417 672 402 636T365 567T317 508T269 460Q284 425 308 386T360 307T415 231T464 163Q485 196 499 242T514 332Q514 383 505 402T485 422Q479 422 475 417T470 391Q470 377 459 368T434 359ZM235 434Q194 396 166
367T119 310T92 253T83 188Q83 134 99 102T139 51T190 28T241 22Q280 22 311 32T368 59T411 95T440 132Q392 190 342 261T235 434ZM373 709Q373 725 369 742T354 774T329 798T293 807Q272 807 254 798T221 771T198 729T190 676Q190 634 206 589T247 493Q269 516
291 538T332 585T361 641T373 709Z" />
<glyph unicode="&apos;" glyph-name="quotesingle" horiz-adv-x="136" d="M68 850Q77 850 81 845T88 832T90 815T91 798Q91 795 90 773T87 725T80 678T69 657Q61 657 57 674T50 713T47 755T46 783Q46 788 46 799T49 821T55 841T68 850Z" />
<glyph unicode="(" glyph-name="parenleft" horiz-adv-x="243" d="M152 6Q148 17 131 50T96 136T62 258T47 409Q47 491 68 566T115 699Q145 767 183 825Q183 824 188 831T204 838Q213 838 216 833T219 819Q219 806 210 789T186 748T156 693T125 622T102 529T92
411Q92 307 108 237T143 121T179 47T195 0Q195 -10 191 -14T181 -19Q173 -19 165 -12T152 6Z" />
<glyph unicode=")" glyph-name="parenright" horiz-adv-x="243" d="M91 813Q95 802 112 769T147 683T181 561T196 410Q196 328 175 253T128 120Q98 52 60 -6Q60 -5 55 -12T39 -19Q30 -19 27 -14T24 0Q24 13 33 30T57 71T87 126T118 197T141 290T151 408Q151 512
135 582T100 698T64 772T48 819Q48 829 52 833T62 838Q70 838 78 831T91 813Z" />
<glyph unicode="*" glyph-name="asterisk" horiz-adv-x="321" d="M213 821Q224 821 228 814T233 799Q233 792 226 782T209 762T192 743T184 731Q186 731 195 732T217 734T240 735T259 736Q267 736 273 731T279 715Q279 707 273 702T260 697Q251 697 239 698T215
701T194 704T182 706Q183 704 193 697T214 679T234 657T243 635Q243 625 237 621T222 617Q216 617 206 628T187 654T170 680T159 695Q157 692 152 680T138 653T120 628T104 617Q82 617 82 637Q82 644 89 653T105 672T124 691T139 706Q125 704 104 701T69 697Q61
697 51 700T41 715Q41 736 69 736Q86 736 104 734T139 731Q119 754 101 771T82 799Q82 812 87 816T103 821Q110 821 116 814T128 794T142 768T160 739Q165 749 171 763T185 790T199 812T213 821Z" />
<glyph unicode="+" glyph-name="plus" horiz-adv-x="362" d="M163 541Q163 552 169 556T180 560Q185 560 192 556T200 541Q200 521 200 491T199 425Q237 425 267 427T320 430Q324 430 327 425T331 415Q331 410 327 403T312 394H199V276Q198 269 191 265T179 260Q174
260 168 264T161 276Q161 285 161 299T162 329T163 362T164 394Q127 393 96 392T47 391Q40 391 36 397T31 408Q31 413 35 419T47 425H166Q166 463 165 492T163 541Z" />
<glyph unicode="," glyph-name="comma" horiz-adv-x="187" d="M52 36Q52 49 62 59T92 70Q107 70 120 59T134 13Q134 3 131 -10T123 -36T110 -57T91 -66Q86 -66 82 -63T77 -54Q77 -47 82 -33T88 -8Q88 -2 83 1T70 8T58 18T52 36Z" />
<glyph unicode="-" glyph-name="hyphen" horiz-adv-x="380" d="M307 285Q311 285 314 281T318 272Q318 267 314 261T299 254Q279 254 249 254T186 254T125 253T78 253Q71 253 67 258T62 269Q62 274 66 279T78 284Q85 284 97 284T123 283T151 283T179 282Q221 282
252 283T307 285Z" />
<glyph unicode="." glyph-name="period" horiz-adv-x="196" d="M54 34Q54 47 64 60T98 74Q121 74 131 62T141 36Q141 21 130 9T96 -4Q73 -4 64 8T54 34Z" />
<glyph unicode="/" glyph-name="slash" horiz-adv-x="505" d="M27 18Q63 85 86 128T123 199T145 241T158 266T169 285T183 310T206 352T245 423Q276 480 295 516T328 578T350 620T368 658T391 704T425 774Q426 777 429 784T439 800T452 814T469 821Q478 821 481
817T484 807Q484 799 479 788T470 768L65 5Q58 -9 53 -14T36 -19Q22 -19 22 -7Q22 -1 23 6T27 18Z" />
<glyph unicode="0" glyph-name="zero" horiz-adv-x="571" d="M90 384Q90 324 98 259T128 138T183 48T271 12Q308 12 345 33T413 100T463 221T482 402Q482 439 479 483T469 572T448 659T414 734T365 786T297 806Q243 806 204 768T139 669T102 533T90 384ZM45 365Q45
418 51 473T69 581T102 680T149 761T213 816T295 837Q340 837 374 818T434 765T478 687T506 595T522 496T527 399Q527 282 502 202T439 73T357 3T273 -19Q237 -19 197 0T123 63T67 181T45 365Z" />
<glyph unicode="1" glyph-name="one" horiz-adv-x="320" d="M187 31H263Q274 31 283 26T292 13Q292 0 272 0H60Q46 0 33 2T19 13Q19 22 29 25T48 28Q58 28 74 28T105 33T131 47T142 74Q143 114 144 148T147 224T150 320T154 457Q155 522 156 566T157 642T158 701T159
755Q159 759 159 765T156 776T150 785T136 789Q131 789 120 789T96 789T69 788T48 788Q19 788 19 801Q19 816 46 818Q52 818 72 818T114 819T156 820T182 821Q196 821 199 813T202 792L187 31Z" />
<glyph unicode="2" glyph-name="two" horiz-adv-x="530" d="M473 124Q481 137 494 137Q506 137 506 126Q506 122 505 119T498 106T481 77T450 22Q446 16 439 8T420 0Q389 0 362 0T308 1T254 2T196 3H57Q53 -2 47 -4T35 -6Q26 -6 21 0T16 14Q16 22 22 27T37 40Q72
66 114 106T198 195T280 299T350 411T399 523T418 628Q418 656 411 686T387 742T343 783T276 800Q232 800 196 780T133 734T93 682T78 647Q78 640 82 636T92 627T101 617T106 602Q106 590 102 583T93 571T83 566T75 565Q61 565 53 571T41 586T35 603T34 616Q34
640 50 676T99 747T178 806T286 831Q334 831 368 815T423 771T453 706T463 626Q463 573 444 517T392 405T320 296T238 195T157 107T89 38Q123 36 173 36T271 34T355 33T400 33Q407 33 412 37T426 53L473 124Z" />
<glyph unicode="3" glyph-name="three" horiz-adv-x="509" d="M111 406Q127 419 155 435T217 470T285 514T347 567T393 630T411 705Q411 732 401 751T374 781T336 798T293 804Q230 804 180 762T100 642Q93 623 86 610T67 596Q55 596 53 605T51 620Q51 644 67 680T114
751T192 811T301 836Q317 836 343 833T394 817T437 779T456 711Q456 667 438 630T393 562T333 507T272 466T225 438T203 425Q205 425 225 429T267 433Q309 433 345 422T409 390T452 338T468 264Q468 214 442 164T371 74T271 8T154 -18Q131 -18 107 -14T64 0T32
24T20 59Q20 64 22 71T35 78Q42 78 45 74T56 59Q70 41 94 26T156 11Q195 11 242 30T329 83T396 162T423 259Q423 299 409 325T370 368T317 392T257 399Q230 399 207 394T165 381T132 369T111 363Q106 363 101 367T95 380Q95 390 101 396T111 406Z" />
<glyph unicode="4" glyph-name="four" horiz-adv-x="554" d="M411 244Q409 221 408 190T405 128T402 75T401 45Q401 38 408 35T425 31T448 29T472 29Q482 29 494 28T506 15Q506 10 499 5T472 0H227Q218 0 211 3T204 14Q204 25 224 25Q234 25 248 26T275 28T299
30T314 31Q336 33 349 41T363 69L372 244Q219 241 138 238T34 234Q17 234 5 242T-8 264Q-8 270 -6 276T2 291Q50 355 86 405T153 496T210 573T262 643T318 715T383 798Q386 803 395 812T421 821Q429 821 436 818T443 804Q443 802 442 773T437 699T431 597T424 484T418
373T414 280L508 276Q524 275 529 271T534 259Q534 254 529 249T515 244H411ZM55 268Q59 268 93 269T176 271T277 275T374 280L404 763L53 296Q51 293 46 287T40 276Q40 268 55 268Z" />
<glyph unicode="5" glyph-name="five" horiz-adv-x="522" d="M420 812Q434 812 448 809T463 792Q463 783 452 778T425 773Q411 773 388 773T335 772T275 770T215 767T165 761T131 754L98 463Q105 465 125 469T173 479T231 488T289 492Q346 492 385 471T448 418T483
346T494 269Q494 220 476 170T420 80T323 14T180 -12Q173 -12 149 -10T99 3T53 37T32 104Q32 123 38 137T52 159T71 171T90 175Q102 175 112 168T123 141Q123 124 114 120T94 114T74 110T65 93Q65 73 76 60T107 38T149 25T196 21Q262 21 310 43T389 101T434 182T449
274Q449 305 442 337T415 395T363 437T279 454Q250 454 221 449T166 439T120 428T90 423Q76 423 67 433T58 460Q58 466 59 479T62 505Q68 547 71 576T78 633T83 694T89 775Q91 791 108 794Q134 798 178 801T269 807T357 811T420 812Z" />
<glyph unicode="6" glyph-name="six" horiz-adv-x="508" d="M354 794Q327 777 296 746T234 673T174 582T123 480Q95 414 85 361T75 260Q75 246 75 241T78 231Q86 273 105 308T154 367T222 406T305 420Q366 420 403 397T461 342T487 274T494 214Q494 184 484 144T448
68T381 7T276 -18Q233 -18 191 -4T114 42T59 126T38 254Q38 342 66 430T136 595T229 731T324 822Q329 826 335 828T349 831Q369 831 369 815Q369 807 364 802T354 794ZM270 13Q306 13 338 26T395 65T434 126T449 205Q449 232 442 264T419 323T374 368T302 386Q264
386 228 371T164 329T119 264T101 180Q101 136 116 104T156 52T211 23T270 13Z" />
<glyph unicode="7" glyph-name="seven" horiz-adv-x="448" d="M14 18Q113 206 181 334T293 546T362 674T397 740T410 767T412 774Q412 787 398 787Q310 787 224 784T43 780Q36 780 32 784T28 794Q28 805 37 807T67 810Q78 810 105 811T168 813T243 815T318 818T381
820T421 821Q447 821 456 811T465 789Q465 784 463 779T457 768L52 5Q45 -9 40 -14T23 -19Q9 -19 9 -7Q9 -1 10 6T14 18Z" />
<glyph unicode="8" glyph-name="eight" horiz-adv-x="537" d="M40 191Q40 238 56 275T95 340T146 386T194 416Q171 426 148 444T105 489T74 547T62 617Q62 659 78 697T123 766T192 814T282 832Q333 832 370 813T433 764T470 698T482 625Q482 581 466 546T427 483T377
439T329 416Q357 408 386 388T440 339T479 274T495 199Q495 157 477 118T428 48T355 -1T266 -20Q226 -20 186 -7T113 32T61 98T40 191ZM85 198Q85 161 96 128T130 68T185 27T259 11Q296 11 330 24T391 62T432 123T448 204Q448 249 432 284T391 343T333 379T268
392Q236 392 203 380T144 343T102 282T85 198ZM107 612Q107 568 122 536T160 482T212 450T268 439Q299 439 329 452T384 489T422 549T437 628Q437 652 431 682T408 739T360 783T281 801Q233 801 200 784T146 738T116 677T107 612Z" />
<glyph unicode="9" glyph-name="nine" horiz-adv-x="519" d="M197 -8Q183 -19 169 -19Q165 -19 157 -17T149 -3Q149 8 155 14T172 28Q219 59 262 108T340 216T400 340T436 467Q394 402 338 371T230 339Q186 339 147 356T79 405T33 482T15 581Q15 623 29 667T72
748T147 807T256 830Q322 830 365 806T435 745T471 667T482 591Q482 541 474 490T452 390T420 297T382 217Q334 129 285 76T197 -8ZM250 799Q218 799 185 786T123 746T78 677T60 576Q60 534 70 498T101 434T153 392T228 376Q285 376 325 401T390 462T426 540T438
615Q438 640 429 672T397 732T339 779T250 799Z" />
<glyph unicode=":" glyph-name="colon" horiz-adv-x="211" d="M62 35Q62 48 72 61T106 75Q129 75 139 63T149 37Q149 22 138 10T104 -3Q81 -3 72 9T62 35ZM62 337Q62 350 72 363T106 377Q129 377 139 365T149 339Q149 324 138 312T104 299Q81 299 72 311T62 337Z" />
<glyph unicode=";" glyph-name="semicolon" horiz-adv-x="203" d="M57 337Q57 350 67 363T101 377Q124 377 134 365T144 339Q144 324 133 312T99 299Q76 299 67 311T57 337ZM62 36Q62 49 72 59T102 70Q117 70 130 59T144 13Q144 3 141 -10T133 -36T120 -57T101
-66Q96 -66 92 -63T87 -54Q87 -47 92 -35T98 -12Q98 -6 93 -2T80 6T68 17T62 36Z" />
<glyph unicode="&lt;" glyph-name="less" horiz-adv-x="265" d="M211 496Q211 490 199 479T171 451T136 417T106 378Q118 358 136 340T170 306T199 279T211 261Q211 252 200 252Q191 252 166 268T113 305T64 347T43 378Q43 389 64 410T112 452T165 489T200 505Q211
505 211 496Z" />
<glyph unicode="=" glyph-name="equal" horiz-adv-x="372" d="M303 301Q307 301 310 297T314 288Q314 283 310 277T295 270Q275 270 245 270T182 270T121 269T74 269Q67 269 63 274T58 285Q58 290 62 295T74 300Q81 300 93 300T119 299T147 299T175 298Q217 298
248 299T303 301ZM303 469Q307 469 310 465T314 456Q314 451 310 445T295 438Q275 438 245 438T182 438T121 437T74 437Q67 437 63 442T58 453Q58 458 62 463T74 468Q81 468 93 468T119 467T147 467T175 466Q217 466 248 467T303 469Z" />
<glyph unicode="&gt;" glyph-name="greater" horiz-adv-x="265" d="M54 496Q54 505 65 505Q74 505 99 489T152 452T201 410T222 378Q222 368 201 347T153 305T100 268T65 252Q54 252 54 261Q54 267 66 278T94 305T129 339T159 378Q147 398 129 416T95 451T66 478T54 496Z" />
<glyph unicode="?" glyph-name="question" horiz-adv-x="548" d="M160 -29Q160 -13 170 -5T195 4Q209 4 219 -4T229 -28Q229 -43 219 -52T194 -62Q182 -62 171 -54T160 -29ZM158 503Q158 487 145 477T112 466Q92 466 77 477T52 506T37 550T31 603Q31 660 51 702T105
773T180 816T266 831Q302 831 346 820T428 782T493 708T520 592Q520 540 505 500T468 428T417 374T364 335Q336 317 306 300T250 264T208 223T191 174Q191 155 196 135T202 97Q202 82 197 78T185 74Q166 74 163 96Q161 107 160 123T159 152Q159 201 179 233T231
290T298 334T367 380Q385 394 404 414T439 462T465 522T475 594Q475 648 456 687T405 751T336 788T261 800Q214 800 178 783T117 738T78 672T65 593Q65 553 75 533T100 513Q106 513 109 516T115 524T121 532T133 536Q149 536 153 523T158 503Z" />
<glyph unicode="@" glyph-name="at" horiz-adv-x="665" d="M588 236Q588 292 573 341T528 427T453 485T348 507Q289 507 240 487T156 429T102 341T83 227Q83 165 102 114T154 25T232 -32T329 -52Q348 -52 353 -56T358 -67Q358 -73 352 -78T328 -84Q272 -84 221
-62T132 2T70 101T47 227Q47 295 69 352T132 452T229 517T351 541Q416 541 466 517T551 451T603 354T621 237Q621 187 612 152T586 95T548 64T503 54Q469 54 454 68T432 97Q416 77 391 63T328 49Q294 49 266 62T218 97T186 150T175 215Q175 254 187 287T222 345T275
384T342 399Q363 399 387 392T428 360Q427 368 427 376T426 391Q426 399 432 405T444 411Q450 411 455 406T461 392Q458 314 458 237Q458 209 458 182T460 126Q461 114 466 105Q471 97 480 91T506 85Q523 85 538 93T564 119T581 165T588 236ZM426 273Q426 317 405
343T340 369Q314 369 292 359T253 328T227 280T217 216Q217 150 248 115T333 79Q360 79 378 89T406 115T421 146T426 175V273Z" />
<glyph unicode="A" glyph-name="A" horiz-adv-x="681" d="M582 3Q587 -17 612 -23T685 -29Q699 -29 710 -30T721 -41Q721 -55 686 -55H473Q455 -55 449 -52T442 -41Q442 -32 457 -30T490 -26T523 -21T538 -5Q538 1 534 19T524 61T511 112T497 164T485 209T477
238H206Q199 214 190 185T173 129T160 79T154 45Q154 38 161 35T178 31T201 29T225 29Q235 29 247 28T259 15Q259 10 252 5T225 0H-27Q-36 0 -43 3T-50 14Q-50 25 -30 25Q-20 25 -6 26T22 28T46 30T61 31Q83 33 93 42T110 69Q125 112 144 174T184 309T224 456T264
600T298 725T324 816Q326 824 331 829T345 835Q350 835 356 831T365 816L582 3ZM343 755Q339 735 330 700T309 621T284 530T259 435T236 346T218 274Q249 273 279 273T340 272Q371 272 402 272T465 274Q453 323 438 384T407 509T374 636T343 755Z" />
<glyph unicode="B" glyph-name="B" horiz-adv-x="666" d="M50 28Q65 28 81 28T110 31T133 38T142 52Q142 126 142 197T143 313Q143 367 142 432T140 559T137 674T135 753Q134 779 114 784T50 789Q36 789 30 793T24 804Q24 812 31 815T50 818Q86 818 129 818T212
819T282 820T321 821Q374 821 422 808T507 768T566 703T588 612Q588 542 549 491T442 421Q528 405 579 352T630 220Q630 159 600 117T518 49T401 12T262 0H72Q49 0 35 1T21 12Q21 20 29 24T50 28ZM262 395Q243 395 232 395T214 394T200 393T183 392V32Q227 32 274
33T366 41T451 59T521 93T568 145T586 222Q586 280 558 314T483 366T379 389T262 395ZM264 787Q247 787 232 787T206 785Q193 784 183 783V432Q183 430 201 430T253 429Q277 429 308 430T371 437T435 453T491 483T531 532T546 605Q546 660 521 695T456 751T365
779T264 787Z" />
<glyph unicode="C" glyph-name="C" horiz-adv-x="625" d="M584 214Q584 182 571 143T527 69T450 10T336 -14Q282 -14 229 9T134 83T67 213T41 405Q41 496 65 575T132 712T230 804T349 838Q390 838 422 825T477 791T514 747T537 702Q535 733 534 750T533 775T532
786T532 788Q532 813 551 813Q561 813 566 805T571 790Q571 755 569 713T567 634Q567 602 568 571T569 507Q569 493 566 483T550 473Q536 473 533 491T529 532Q529 587 520 637T489 724T433 784T350 807Q291 807 243 774T160 684T106 555T86 404Q86 325 102 255T150
132T230 49T344 18Q388 18 422 31T483 68T526 125T553 197Q554 203 555 211T557 226T562 238T570 243Q584 243 584 214Z" />
<glyph unicode="D" glyph-name="D" horiz-adv-x="674" d="M45 818Q95 820 142 820T251 821Q314 821 382 801T506 736T598 618T634 439Q634 349 610 269T536 130T413 35T241 0H57Q40 0 31 2T21 12Q21 19 28 23T52 28Q65 28 80 28T109 31T132 38T141 52Q141 110
141 150T141 230T142 317T142 437Q142 456 141 498T139 587T136 678T135 747Q135 762 129 770T112 783T84 788T47 789Q34 789 29 794T24 805Q24 817 45 818ZM245 786Q230 786 214 785T183 782V44Q183 40 189 38T205 35T225 34T245 34Q335 34 400 65T507 150T569
279T589 439Q589 511 569 574T507 684T400 758T245 786Z" />
<glyph unicode="E" glyph-name="E" horiz-adv-x="643" d="M586 310Q600 310 602 300T605 277Q605 268 604 241T600 177T595 102T589 33Q587 8 577 4T547 0Q486 0 429 1T310 2Q249 2 189 2T67 0Q52 0 37 1T21 11Q21 22 30 25T60 28Q107 28 124 35T141 64Q141 99
141 125T141 175T142 222T142 273T143 338T143 425Q143 481 142 526T140 609T138 682T137 750Q137 765 130 772T111 784T87 788T64 789Q47 789 36 791T24 804Q24 815 37 818T65 821Q98 821 133 821T200 820T259 820T306 819Q343 819 366 819T412 820T462 820T533
821Q547 821 554 814T561 785V651Q561 632 558 619T544 605Q529 605 527 618T524 645V757Q524 776 511 780T487 785H184V440Q213 439 241 438T298 437Q312 437 329 437T361 438T389 439T406 440Q412 440 415 450T420 475T422 505T423 530Q423 531 423 536T425 546T430
556T440 560Q452 560 454 552T457 533Q457 504 456 477T455 420Q455 391 456 363T457 307Q457 290 452 285T442 280Q435 280 430 288T425 309Q425 322 423 338T416 369T402 392T377 402Q363 402 345 402T298 403Q269 403 241 403T184 401V36H513Q520 36 527 37T541
41T551 52T556 73Q557 86 559 111T563 166T566 223T569 273Q570 293 575 301T586 310Z" />
<glyph unicode="F" glyph-name="F" horiz-adv-x="572" d="M140 72Q142 177 143 280T144 489Q144 526 143 558T141 620T139 682T138 752Q138 772 119 781T46 791Q32 791 28 796T24 806Q24 817 36 819T62 821Q126 821 189 820T317 819Q370 819 422 820T527 821Q548
821 554 810T561 773V651Q561 645 561 637T559 622T554 610T544 605Q530 605 527 619T524 651V744Q524 773 515 779T485 785H184V440Q213 438 240 438T296 438Q310 438 328 438T362 439T392 439T409 440Q414 440 417 449T421 471T423 496T423 513Q423 533 425 546T442
560Q453 560 455 545T457 513Q457 488 456 464T455 415Q455 390 456 366T457 317Q457 296 454 288T442 279Q427 279 425 307Q425 336 421 354T409 383T395 398T381 402Q361 403 340 403T299 404Q241 404 184 401Q184 381 184 356T184 303T183 251T183 205Q183 185
183 157T184 103T185 56T186 30H303Q314 30 321 26T329 11Q329 0 309 0H64Q51 0 36 1T21 13Q21 28 49 28Q92 28 115 34T140 72Z" />
<glyph unicode="G" glyph-name="G" horiz-adv-x="635" d="M516 269Q466 269 416 266T311 262Q290 262 282 267T273 278Q273 288 290 291T324 295Q386 298 440 301T549 306Q561 306 570 299T579 273Q579 256 578 228T577 164Q577 119 578 85T579 33Q579 22 574
17T563 12Q546 12 546 34Q546 51 547 73T548 103Q531 71 507 49T456 13T398 -7T339 -14Q286 -14 233 7T137 78T68 208T41 404Q41 491 64 570T128 708T227 803T354 838Q408 838 458 807T537 702L532 791Q532 801 537 807T549 813Q557 813 564 808T571 790Q571 749
569 719T567 648Q567 622 568 589T569 530Q569 502 567 488T551 474Q543 474 539 479T532 493T530 511T529 527Q529 589 519 640T487 729T430 786T345 807Q292 807 245 775T163 689T107 561T86 404Q86 333 100 264T144 141T225 53T347 19Q384 19 419 31T481 68T524
132T541 225Q541 251 538 260T516 269Z" />
<glyph unicode="H" glyph-name="H" horiz-adv-x="775" d="M629 752Q629 739 629 713T629 654T628 585T628 514T627 450T627 401Q627 330 628 259T632 129T635 28T637 -24H733Q744 -24 753 -29T763 -42Q763 -55 743 -55H535Q521 -55 508 -53T494 -42Q494 -33 504
-30T523 -27Q533 -27 544 -27T565 -22T581 -8T587 19V401Q548 401 512 402Q480 402 447 402T387 403Q336 403 285 403T183 401V31H279Q298 31 303 26T309 13Q309 0 289 0H77Q63 0 50 2T36 13Q36 22 46 25T65 28Q75 28 87 28T111 33T130 47T138 74Q138 156 140 234T142
401Q142 489 140 584T138 768Q138 777 130 781T109 788T82 790T58 791Q47 791 34 793T21 806Q21 817 35 819T58 821H240Q272 821 281 818T291 806Q291 795 279 793T254 791Q249 791 238 791T214 788T193 781T183 766V439Q234 437 285 437T387 437Q412 437 446 437T512
437T564 438T584 439V754Q584 763 577 767T560 774T537 776T514 777Q503 777 490 779T477 792Q477 803 491 805T514 807H696Q728 807 737 804T747 792Q747 781 735 779T710 777Q705 777 692 777T665 774T640 767T629 752Z" />
<glyph unicode="I" glyph-name="I" horiz-adv-x="325" d="M183 31H279Q290 31 299 26T309 13Q309 0 289 0H77Q63 0 50 2T36 13Q36 22 46 25T65 28Q75 28 87 28T111 33T130 47T138 74Q138 156 140 234T142 401Q142 489 140 584T138 768Q138 777 130 781T109 788T82
790T58 791Q47 791 34 793T21 806Q21 817 35 819T58 821H240Q272 821 281 818T291 806Q291 795 279 793T254 791Q249 791 238 791T214 788T193 781T183 766V31Z" />
<glyph unicode="J" glyph-name="J" horiz-adv-x="502" d="M29 131Q29 104 40 84T71 49T116 27T169 20Q233 20 267 49T318 128T336 243T339 379Q339 416 339 457T339 540T338 619T337 688T336 740T336 768Q336 777 328 781T307 788T280 790T256 791Q245 791 232
793T219 806Q219 817 233 819T256 821H438Q470 821 479 818T489 806Q489 795 477 793T452 791Q447 791 436 791T412 788T391 781T381 766V279Q381 132 329 59T164 -14Q128 -14 98 -3T45 29T11 76T-2 137Q-2 146 0 162T11 195T35 224T78 237Q88 237 101 229T114
204Q114 184 102 176T77 167Q69 167 62 171T50 182Q37 177 33 162T29 131Z" />
<glyph unicode="K" glyph-name="K" horiz-adv-x="721" d="M183 391Q205 411 239 444T310 516T386 593T454 666T504 722T523 750Q523 757 516 760T499 764T476 766T452 766Q442 766 430 767T418 780Q418 785 425 790T452 795H709Q718 795 725 792T732 781Q732 770
712 770Q694 769 676 769T643 766T614 760T593 749Q557 714 514 671T424 581T333 486T248 395Q306 318 362 246Q386 215 411 183T462 119T512 59T557 8Q565 0 599 -2T676 -4Q699 -4 710 -5T722 -17Q722 -24 709 -28T672 -33T617 -35T550 -36Q541 -36 520 -15T471
40T410 117T342 206T276 294T218 370L183 335V30H279Q290 30 299 26T309 13Q309 0 289 0H77Q63 0 50 2T36 13Q36 22 46 25T65 28Q75 28 87 28T111 33T130 47T138 74Q138 156 140 234T142 401Q142 489 140 584T138 768Q138 777 130 781T109 788T82 790T58 791Q47
791 34 793T21 806Q21 817 35 819T58 821H240Q272 821 281 818T291 806Q291 795 279 793T254 791Q249 791 238 791T214 788T193 781T183 766V391Z" />
<glyph unicode="L" glyph-name="L" horiz-adv-x="542" d="M53 28Q69 28 85 28T115 32T136 41T145 58Q145 70 145 110T146 202T146 311T147 416Q147 483 146 533T144 622T142 692T141 754Q141 767 132 774T111 785T84 790T59 791Q48 791 35 793T22 806Q22 817 36
819T59 821H241Q273 821 282 818T292 806Q292 795 280 793T255 791Q250 791 239 791T217 788T197 781T188 766V36H429Q446 36 456 43T469 67Q470 73 472 98T476 154T480 211T482 249Q482 272 485 285T500 299Q505 299 512 295T519 279Q519 261 517 230T513 162T508
91T503 29Q501 12 493 6T470 0H42Q25 0 22 3T18 11Q18 28 53 28Z" />
<glyph unicode="M" glyph-name="M" horiz-adv-x="999" d="M974 753Q943 750 919 749T864 745Q842 743 838 729T833 698Q833 652 831 575T829 380Q829 335 830 277T831 162T833 59T834 -10H936Q947 -10 956 -15T966 -28Q966 -41 946 -41H736Q722 -41 709 -39T695
-28Q695 -19 705 -16T724 -13Q734 -13 745 -13T766 -8T782 6T788 33V662Q761 592 734 521T681 381T630 252T585 139T548 48T522 -12Q520 -16 515 -22T501 -28Q489 -28 482 -7Q467 33 443 92T390 220T331 360T272 498T222 618T187 704V31H283Q294 31 303 26T313
13Q313 0 293 0H81Q67 0 54 2T40 13Q40 22 50 25T69 28Q79 28 91 28T113 33T130 47T137 74Q142 146 144 224T146 383Q146 474 145 563T143 738Q143 756 124 760T80 766T37 768T17 781Q17 788 23 792T37 798T53 800T65 801H176Q190 801 197 795T213 761Q223 730
245 676T295 554T354 414T415 272T468 144T504 45Q518 84 540 140T588 260T641 394T693 527T740 646T775 739Q780 753 782 761T790 773T804 779T831 781H967Q983 781 992 780T1002 768Q1002 756 974 753Z" />
<glyph unicode="N" glyph-name="N" horiz-adv-x="788" d="M185 738V31H281Q292 31 301 26T311 13Q311 0 291 0H79Q65 0 52 2T38 13Q38 22 48 25T67 28Q77 28 89 28T111 33T128 47T135 74Q140 146 142 226T144 388Q144 479 143 575T141 758Q141 776 122 782T78
790T35 795T15 809Q15 813 21 815T35 819T51 821T63 821H171Q183 821 190 814T211 781Q223 758 245 719T296 631T356 527T421 415T485 305T542 206T586 128T613 80V751Q613 760 605 764T584 771T557 773T533 774Q522 774 509 776T496 789Q496 800 510 802T533 804H724Q756
804 765 801T775 789Q775 778 763 776T738 774Q733 774 720 774T693 771T668 764T657 749Q656 691 656 648T655 562T654 475T653 368Q653 335 653 288T653 190T654 90T655 6Q655 -5 647 -8T634 -11Q627 -11 622 -8T610 6L185 738Z" />
<glyph unicode="O" glyph-name="O" horiz-adv-x="687" d="M86 400Q86 312 104 241T155 121T236 45T342 18Q397 18 444 42T526 116T580 239T600 410Q600 493 582 565T533 691T458 776T362 807Q291 807 240 771T154 676T103 545T86 400ZM41 404Q41 455 50 507T77
607T121 697T183 771T261 820T356 838Q424 838 478 804T569 710T625 573T645 408Q645 286 615 205T539 74T440 5T340 -16Q284 -16 231 8T135 84T67 214T41 404Z" />
<glyph unicode="P" glyph-name="P" horiz-adv-x="599" d="M63 28Q92 28 107 33T130 45T139 59T140 72Q140 132 140 173T140 253T141 333T141 437Q141 533 138 614T135 749Q135 765 127 777T86 789H52Q35 789 30 794T24 804Q24 809 29 813T52 818Q88 818 115 818T168
819T225 820T297 821Q358 821 411 809T503 770T565 700T588 595Q588 527 556 481T475 407T365 366T249 354Q240 354 229 354T207 355Q195 355 183 356V31H280Q323 31 323 13Q323 3 313 2T278 0H82Q74 0 64 0T44 1T28 5T21 12Q21 17 27 22T63 28ZM255 787Q236 787
218 785T183 780V390Q192 389 203 389Q212 388 223 388T248 388Q265 388 293 390T355 399T421 419T482 455T526 511T543 592Q543 639 528 672T489 726T434 760T371 778T309 785T255 787Z" />
<glyph unicode="Q" glyph-name="Q" horiz-adv-x="687" d="M203 -68Q203 -54 247 -34Q276 -20 309 -14Q257 -8 209 19T124 98T64 225T41 404Q41 455 50 507T77 607T121 697T183 771T261 820T356 838Q424 838 478 804T569 710T625 573T645 408Q645 331 633 271T599
165T549 86T490 32T425 -1T362 -15Q376 -19 392 -26T423 -41T454 -53T482 -58Q496 -58 511 -56T542 -47Q554 -42 562 -40T575 -37Q585 -37 585 -53Q585 -60 577 -66T555 -78T523 -87T483 -90Q464 -90 445 -84T407 -69T372 -54T341 -47Q323 -47 304 -52T268 -63T238
-75T217 -80Q212 -80 208 -77T203 -68ZM86 400Q86 312 104 241T155 121T236 45T342 18Q397 18 444 42T526 116T580 239T600 410Q600 493 582 565T533 691T458 776T362 807Q291 807 240 771T154 676T103 545T86 400Z" />
<glyph unicode="R" glyph-name="R" horiz-adv-x="657" d="M543 588Q543 631 528 662T487 715T431 752T367 773T306 784T255 787Q241 787 228 786T205 783Q193 781 183 780V390Q184 390 190 390T203 389T217 389T225 388Q275 388 331 396T434 426T512 487T543 588ZM190
352Q186 352 183 353V31H258Q277 31 290 28T303 12Q303 7 301 5T292 2T272 0T236 0H64Q35 0 28 4T21 14Q21 20 30 24T73 28Q86 28 98 29T119 36T134 51T140 77Q140 161 141 244T142 412Q142 497 139 579T136 747Q136 763 131 771T116 784T91 788T56 789Q48 789
36 791T24 805Q24 810 27 812T36 816T46 818T53 818Q93 818 118 818T166 819T218 820T291 821Q337 821 389 809T485 771T558 701T588 594Q588 527 561 481T489 406T387 365T270 352Q315 282 361 214Q380 185 402 154T446 93T491 36T534 -14H630Q653 -14 664 -16T676
-28Q676 -34 671 -37T648 -42T598 -44T514 -44Q505 -44 487 -24T443 29T389 104T330 190T269 276T213 352H190Z" />
<glyph unicode="S" glyph-name="S" horiz-adv-x="592" d="M84 91Q84 68 85 50Q85 42 85 35T86 22Q86 15 87 9Q87 -16 68 -16Q58 -16 53 -8T48 7Q48 13 48 25T50 52T51 82T52 108Q52 124 52 135T51 156T51 178T50 205Q50 219 53 229T69 239Q83 239 87 221T91 180Q91
149 105 119T147 66T215 29T309 14Q345 14 379 23T439 48T482 89T499 145Q499 176 473 200T409 243T327 280T247 314Q215 329 182 348T121 396T76 468T58 574Q58 630 81 678T142 761T225 817T316 837Q389 837 440 798T521 671Q517 734 515 764T513 796Q513 821
532 821Q542 821 547 813T552 798Q552 763 550 726T548 652Q548 620 549 597T550 542Q550 528 547 518T531 508Q517 508 514 526T510 567Q506 621 491 665T452 741T394 790T320 807Q273 807 233 787T163 732T116 655T99 565Q99 515 112 481T148 423T200 382T259
351Q289 337 336 319T429 276T507 219T540 145Q540 101 517 71T460 21T385 -7T312 -16Q280 -16 247 -10T182 8T126 41T84 91Z" />
<glyph unicode="T" glyph-name="T" horiz-adv-x="609" d="M90 785Q64 785 59 775T53 736V620Q53 588 50 577T34 565Q26 565 21 572T16 609Q16 625 16 650T17 693Q17 709 17 735T16 778Q16 807 23 814T54 821Q88 821 118 821T179 820T239 820T304 819Q338 819 368
819T429 820T489 820T554 821Q578 821 585 814T592 778Q592 761 592 735T591 693Q591 676 591 651T592 609Q592 579 587 572T574 565Q561 565 558 576T555 620V736Q555 765 550 775T518 785H323V31H419Q430 31 439 26T449 13Q449 0 429 0H217Q203 0 190 2T176 13Q176
22 186 25T205 28Q215 28 227 28T251 33T270 47T278 74Q278 156 280 234T282 401Q282 444 282 493T280 593T279 692T278 785H90Z" />
<glyph unicode="U" glyph-name="U" horiz-adv-x="755" d="M170 323Q170 263 173 208T196 111T255 44T368 18Q431 18 474 40T543 98T582 179T594 272V714Q594 723 585 727T562 734T533 736T508 737Q497 737 484 739T471 752Q471 763 485 765T508 767H690Q722 767
731 764T741 752Q741 741 729 739T704 737Q699 737 688 737T664 734T643 727T634 712Q634 656 633 602T632 492Q632 437 633 382T634 272Q634 198 615 144T560 55T475 3T367 -14Q327 -14 292 -6T228 20T179 63T150 125Q137 176 134 227T130 334Q130 366 130 399T131
467Q131 542 130 617T129 768Q129 777 121 781T100 788T73 790T49 791Q38 791 25 793T12 806Q12 817 26 819T49 821H231Q263 821 272 818T282 806Q282 795 270 793T245 791Q240 791 228 791T203 788T180 781T170 766V323Z" />
<glyph unicode="V" glyph-name="V" horiz-adv-x="682" d="M343 52Q395 225 436 367Q453 427 470 486T500 594T521 677T529 721Q529 728 522 731T505 735T482 737T458 737Q448 737 436 738T424 751Q424 756 431 761T458 766H701Q710 766 717 763T724 752Q724 741
704 741Q693 741 681 740T658 738T638 736T625 735Q603 733 593 724T576 697Q560 654 541 595T502 468T462 330T422 196T388 79T362 -9Q360 -17 355 -22T341 -28Q336 -28 330 -24T321 -9L104 763Q99 783 74 789T1 795Q-13 795 -24 796T-35 807Q-35 821 0 821H217Q235
821 241 818T248 807Q248 798 233 796T200 792T167 787T152 771Q152 762 160 727T181 640T212 524T247 395Q289 242 343 52Z" />
<glyph unicode="W" glyph-name="W" horiz-adv-x="1109" d="M950 701Q950 712 941 718T919 726T892 729T866 730Q856 730 844 731T832 744Q832 749 839 754T866 759H1121Q1130 759 1137 756T1144 745Q1144 734 1124 734Q1113 734 1099 733T1072 731T1048 729T1033
728Q992 724 984 690Q969 631 956 579T929 477T902 374T871 263T836 136T794 -17Q789 -37 781 -42T765 -47Q757 -47 749 -41T734 -15Q716 49 696 121T657 265T621 401T590 519T568 604T558 643Q520 516 487 399Q472 349 457 296T428 193T401 97T378 16Q376 8 371
0T355 -9Q349 -9 343 -4T332 13Q303 106 276 196T221 379T163 566T98 763Q91 783 68 789T-4 795Q-18 795 -29 796T-40 807Q-40 821 -5 821H212Q230 821 236 818T243 807Q243 798 228 796T195 792T162 787T147 771Q147 761 157 722T185 625T224 496T268 351T313
204T352 73Q394 217 429 340Q444 392 459 445T487 546T511 631T528 690Q534 708 539 722T559 737Q567 737 572 731T582 716T587 701T590 690Q615 577 640 478T689 295T731 141T765 17Q772 42 783 83T809 174T839 281T871 394T901 502T926 596T943 665T950 701Z"
/>
<glyph unicode="X" glyph-name="X" horiz-adv-x="679" d="M192 754Q192 750 198 735T214 698T237 650T264 596Q296 532 337 454Q344 470 359 499T391 562T428 632T462 698T487 749T497 776Q497 788 481 790T426 792Q416 792 404 793T392 806Q392 811 399 816T426
821H651Q660 821 667 818T674 807Q674 796 654 796Q633 795 612 793T583 790Q561 788 552 779T534 752L356 414L561 21Q571 2 598 -4T674 -11Q688 -11 699 -12T710 -23Q710 -37 675 -37H458Q440 -37 434 -34T427 -23Q427 -14 442 -12T475 -8T509 -6T524 2Q524 6
516 24T495 68T465 128T430 194Q389 272 337 370Q337 369 326 346T298 289T261 213T225 136T197 75T185 45Q185 38 192 35T209 31T232 29T256 29Q266 29 278 28T290 15Q290 10 283 5T256 0H11Q2 0 -5 3T-12 14Q-12 25 8 25Q18 25 32 26T60 28T84 30T99 31Q121 33
130 42T148 69L316 412L151 741Q141 761 115 767T41 773Q27 773 16 774T5 785Q5 799 40 799H257Q275 799 281 796T288 785Q288 776 273 774T240 770T207 767T192 754Z" />
<glyph unicode="Y" glyph-name="Y" horiz-adv-x="648" d="M158 763Q158 757 169 732T196 672T233 594T272 513T306 443T327 395Q333 410 348 438T381 501T419 573T455 642T482 699T493 732Q493 739 486 742T469 746T446 748T422 748Q412 748 400 749T388 762Q388
767 395 772T422 777H667Q676 777 683 774T690 763Q690 752 670 752Q659 752 645 751T618 749T594 747T579 746Q557 744 548 735T530 708Q508 667 482 616T429 514T379 416T341 334Q341 282 342 228Q343 182 343 129T344 31H440Q451 31 460 26T470 13Q470 0 450
0H241Q227 0 214 2T200 13Q200 22 210 25T229 28Q239 28 251 28T275 33T294 47T302 74V355Q269 428 248 476T208 566T166 649T109 755Q98 774 76 780T6 787Q-8 787 -19 788T-30 799Q-30 813 5 813H223Q241 813 247 810T254 799Q254 790 239 788T206 784T173 779T158
763Z" />
<glyph unicode="Z" glyph-name="Z" horiz-adv-x="618" d="M578 281Q578 280 577 264T575 222T572 167T569 110T566 61T565 31Q565 8 557 4T529 0Q471 0 413 0T297 1Q239 1 182 1T66 0Q44 0 33 3T22 19Q22 24 22 27T25 35T32 44T43 61Q50 72 74 107T131 192T205
302T287 425T367 546T436 652T484 731T502 769Q502 774 501 777T496 782T482 784T454 785H134Q105 785 99 776T92 742Q92 734 92 718T92 684T91 649T91 620Q91 583 87 574T72 565Q61 565 58 575T54 601Q54 624 54 645T55 690Q55 713 55 735T54 780Q54 795 56 803T64
816T80 820T108 821Q159 821 209 820T311 819Q362 819 413 820T515 821Q535 821 551 819T567 802Q567 799 562 790T551 770T538 750T531 738Q510 702 480 654T415 550T342 437T268 323T199 218T141 131T102 70T87 45Q87 39 91 37T107 35H469Q481 35 491 35T509
39T523 49T529 69Q531 89 533 118T537 177T540 234T542 276Q542 291 547 300T561 309Q566 309 572 304T578 281Z" />
<glyph unicode="[" glyph-name="bracketleft" horiz-adv-x="298" d="M110 835Q131 836 155 836T203 837T244 838T270 838Q278 838 283 836T289 826Q289 824 286 820T271 814L153 806Q139 805 136 794T132 776V-10Q132 -23 155 -25T223 -27Q224 -27 234 -27T256
-29T277 -34T287 -43Q287 -48 278 -51T257 -55T232 -57T211 -58H111Q102 -58 97 -51T92 -23Q92 -7 92 23T93 92T93 171T93 251T93 319T93 366Q93 418 93 456T93 525T93 583T92 641T91 710T89 800Q89 812 95 823T110 835Z" />
<glyph unicode="\" glyph-name="backslash" horiz-adv-x="505" d="M478 18Q442 85 419 128T382 199T360 241T347 266T336 285T322 310T299 352T260 423Q229 480 210 516T177 578T155 620T137 658T114 704T80 774Q79 777 76 784T66 800T53 814T36 821Q27 821 24
817T21 807Q21 799 26 788T35 768L440 5Q447 -9 452 -14T469 -19Q483 -19 483 -7Q483 -1 482 6T478 18Z" />
<glyph unicode="]" glyph-name="bracketright" horiz-adv-x="298" d="M188 835Q197 834 203 823T209 800Q208 748 208 710T207 641T206 583T205 525T205 456T205 366Q205 350 205 320T205 251T205 172T205 92T205 24T206 -23Q206 -44 201 -51T187 -58H87Q79 -58
66 -58T41 -56T20 -51T11 -43Q11 -38 20 -35T41 -30T63 -28T75 -27Q120 -27 143 -25T166 -10V776Q166 783 163 794T145 806L27 814Q16 815 13 819T9 826Q9 834 14 836T28 838Q35 838 53 838T95 838T142 837T188 835Z" />
<glyph unicode="^" glyph-name="asciicircum" horiz-adv-x="315" d="M277 510Q272 510 259 519T229 541T193 569T157 596Q140 584 121 569T86 541T56 519T38 510Q30 510 30 521Q30 530 46 550T85 590T127 625T157 640Q166 640 187 625T230 590T268 550T285 521Q285
510 277 510Z" />
<glyph unicode="_" glyph-name="underscore" horiz-adv-x="481" d="M405 -40Q410 -40 415 -44T420 -53Q420 -58 415 -64T393 -71Q365 -71 323 -71T235 -71T149 -72T83 -72Q74 -72 68 -67T61 -56Q61 -51 66 -46T83 -41Q93 -41 110 -41T146 -42T186 -42T225 -43Q283
-43 327 -42T405 -40Z" />
<glyph unicode="`" glyph-name="grave" horiz-adv-x="154" d="M23 653Q23 680 47 680Q53 680 62 670T80 645T99 610T116 574T129 542T134 521Q134 510 126 510Q121 510 112 519T91 542T67 574T46 606T30 635T23 653Z" />
<glyph unicode="a" glyph-name="a" horiz-adv-x="455" d="M333 219Q333 232 333 244T334 264Q334 342 306 384T212 427Q190 427 169 423T132 409T105 387T95 358Q95 346 101 343T115 338Q123 336 131 332T140 311Q140 296 131 286T104 276Q81 276 69 294T56 339Q56
366 68 387T102 424T154 448T220 457Q299 457 336 412T374 268Q374 256 374 238T373 199T372 159T371 122Q371 91 373 71T380 40T394 24T415 19Q429 19 437 23T449 36T455 54T458 76Q459 88 468 88Q476 88 478 82T481 65Q481 22 462 6T414 -11Q387 -11 366 2T335
48Q303 19 265 4T179 -11Q109 -11 68 21T26 106Q26 133 38 156T72 197T125 223T194 233Q232 233 267 222T333 187V219ZM67 106Q67 66 99 43T184 19Q214 19 241 27T288 48T321 79T333 117Q333 135 323 151T294 178T252 196T199 203Q171 203 147 196T105 177T77 146T67
106Z" />
<glyph unicode="b" glyph-name="b" horiz-adv-x="495" d="M110 334Q138 394 183 426T285 458Q334 458 368 435T422 377T451 300T460 220Q460 155 439 111T385 41T313 3T239 -9Q209 -9 187 -2T149 16T122 40T102 68Q99 20 95 4T80 -12Q61 -12 61 24Q61 57 62 84T64
138T66 197T68 270T69 367T70 498Q70 538 70 578T70 653T69 717T69 760Q69 775 58 781T24 787H-34Q-51 787 -65 789T-80 799Q-80 806 -69 810T-45 815T-20 817T-6 818H84Q93 818 101 813T110 782V334ZM109 182Q109 153 114 125T134 73T173 36T239 22Q264 22 295
30T353 60T398 122T417 225Q417 283 403 321T368 383T323 417T278 427Q245 427 214 408T160 356T123 278T109 182Z" />
<glyph unicode="c" glyph-name="c" horiz-adv-x="465" d="M386 428Q385 439 385 454T384 483Q384 494 388 502T401 511Q409 511 413 503T418 484Q418 470 418 448T417 401T417 355T417 320Q417 312 413 305T401 298Q393 298 389 302T384 319Q384 380 357 416T263
452Q223 452 190 436T132 389T94 318T80 227Q80 134 125 80T253 26Q302 26 339 51T407 128Q417 143 428 143Q433 143 437 139T441 128Q441 118 431 101Q368 -6 247 -6Q199 -6 160 12T93 61T49 135T33 225Q33 279 50 326T99 407T173 462T266 482Q304 482 334 472T386
428Z" />
<glyph unicode="d" glyph-name="d" horiz-adv-x="539" d="M439 27Q439 18 441 13T449 6T469 2T506 1Q544 0 556 -2T569 -15Q569 -20 564 -25T540 -30Q513 -30 495 -30T464 -30T444 -29T432 -28Q411 -26 404 -11T395 29L393 83Q369 40 324 16T224 -9Q172 -9 136
13T77 68T44 142T34 218Q34 236 37 262T48 318T72 375T110 426T168 463T248 477Q278 477 301 472T343 457T375 437T396 416V756Q396 769 385 771T356 774Q333 774 312 773T257 772Q256 772 252 772T242 773T233 776T229 783Q229 792 250 797T299 805T353 808T392
809Q415 809 427 804T439 771Q439 753 439 716T439 632T438 535T437 442T436 367T436 325Q436 308 436 229T439 27ZM241 21Q289 21 319 42T367 96T392 169T399 248Q399 268 397 296T388 349Q382 370 372 388T347 419T309 441T256 449Q208 449 175 430T119 379T87
306T77 222Q77 170 90 132T125 70T178 33T241 21Z" />
<glyph unicode="e" glyph-name="e" horiz-adv-x="468" d="M368 293Q385 293 385 311Q385 331 377 354T352 398T309 431T245 445Q207 445 180 431T133 395T102 345T85 289L368 293ZM81 259Q80 248 80 238T79 218Q79 182 87 147T115 84T166 39T243 21Q284 21 315
35T366 72T397 125T408 187Q408 205 425 205Q442 205 442 187Q442 148 427 112T386 49T323 5T245 -11Q192 -11 153 7T87 57T48 132T34 226Q34 281 50 327T96 407T164 458T248 477Q296 477 330 458T385 411T417 354T428 304Q428 288 420 275T393 261Q367 260 330
260T252 260Q240 260 217 260T169 260T119 259T81 259Z" />
<glyph unicode="f" glyph-name="f" horiz-adv-x="297" d="M113 45Q119 130 119 217Q119 265 118 313T117 409Q117 423 115 429T104 435H37Q20 435 14 440T8 452Q8 460 15 461T40 463H104Q112 463 114 471T116 491Q117 517 119 552T128 624T147 697T181 761T234
807T312 825Q349 825 374 814T413 786T433 751T439 718Q439 696 429 682T400 667Q386 667 377 676T367 702Q367 718 382 729Q390 735 393 739T397 750Q397 766 379 782T317 799Q277 799 250 783T206 741T179 681T165 612T160 544T159 484Q159 471 161 467T167 463H245Q255
463 263 459T272 447Q272 439 263 436T243 433Q238 433 229 433T210 434T191 434T177 435Q165 435 162 432T159 424V30H268Q297 30 297 15Q297 8 289 5T255 1Q246 1 232 1T203 2T172 2T145 3Q131 3 116 3T85 2T59 1T41 0Q27 0 17 1T7 11Q7 19 17 21T39 24Q79 27
95 30T113 45Z" />
<glyph unicode="g" glyph-name="g" horiz-adv-x="467" d="M247 460Q283 460 318 441Q329 459 344 475T376 503T410 523T442 530Q452 530 458 525T464 512Q464 504 455 498T431 486Q407 479 386 465T345 422Q372 400 388 369T405 301Q405 270 394 241T360 188T305
151T231 137Q212 137 194 140T158 150Q132 139 120 129T108 95Q108 72 119 59T153 39T210 30T292 27Q330 26 372 23T449 9T507 -26T530 -91Q530 -127 512 -156T460 -206T381 -238T280 -250Q231 -250 187 -241T110 -214T58 -167T38 -102Q38 -16 154 7Q115 14 91
32T66 89Q66 118 81 134T128 165Q96 186 81 221T65 294Q65 330 78 360T114 412T171 447T247 460ZM297 -1Q252 -1 213 -7T145 -26T98 -58T81 -106Q81 -135 98 -156T144 -191T209 -212T285 -219Q331 -219 368 -210T432 -184T472 -146T487 -99Q487 -63 461 -43T400
-14T336 -3T297 -1ZM239 430Q178 430 143 393T108 292Q108 232 139 200T230 167Q291 167 326 202T362 301Q362 361 330 395T239 430Z" />
<glyph unicode="h" glyph-name="h" horiz-adv-x="529" d="M445 293Q448 267 448 241T449 176V-32H493Q513 -32 530 -36T547 -50Q547 -61 518 -61Q502 -61 474 -60T424 -58Q402 -58 377 -59T337 -61Q306 -61 306 -50Q306 -45 312 -42T328 -37T349 -33T371 -31Q391
-29 397 -23T406 0Q407 11 407 26T408 59T409 92T409 120Q409 132 409 152T408 197T406 245T403 288Q401 302 397 321T383 357T352 387T299 399Q261 399 231 382T180 337T148 271T137 193V32H210Q226 32 239 28T252 14Q252 8 246 4T232 0Q203 0 171 1T116 3Q93
3 71 2T25 0Q11 0 1 1T-9 10Q-9 20 12 24T71 32Q85 34 90 41T97 72Q98 94 99 133T101 221T103 325T104 436Q104 460 104 496T104 575T103 663T103 753Q103 785 81 785H11Q-3 785 -16 786T-30 795Q-30 802 -12 807T29 814T74 817T101 818Q130 818 136 802T143 745V327Q169
375 212 401T309 428Q350 428 375 414T416 379T437 335T445 293Z" />
<glyph unicode="i" glyph-name="i" horiz-adv-x="272" d="M172 28H234Q256 28 269 25T282 13Q282 4 273 2T252 0H93Q69 0 47 1T24 12Q24 22 88 26Q110 28 118 32T128 47Q131 85 131 131T132 213Q132 259 131 301T128 389Q127 397 124 401T113 406Q108 406 96 405T71
404T46 402T30 401Q22 401 12 402T2 412Q2 421 16 425T65 431Q87 433 114 434T154 436Q166 436 169 427T172 401V28ZM102 580Q102 585 104 592T112 605T124 616T143 621Q157 621 167 611T177 584Q177 557 164 548T136 538Q122 538 112 550T102 580Z" />
<glyph unicode="j" glyph-name="j" horiz-adv-x="225" d="M-37 -89Q-37 -110 -49 -116T-74 -124Q-82 -125 -86 -128T-90 -143Q-90 -162 -67 -175T-5 -189Q20 -189 41 -182T77 -157T103 -111T117 -40Q119 -14 120 31T123 124T124 214T125 278V388Q125 400 119 404T100
409H20Q-18 409 -18 419Q-18 426 -3 430T35 437T85 439T139 440Q155 440 158 431T162 402Q162 395 162 369T162 307T161 231T160 156T159 94T159 61Q159 51 159 37T157 8T155 -20T153 -44Q147 -98 132 -132T95 -186T49 -213T-3 -221Q-36 -221 -59 -213T-96 -190T-117
-158T-124 -120Q-124 -91 -106 -75T-68 -59Q-57 -59 -47 -64T-37 -89ZM88 578Q88 593 98 607T128 621Q142 621 152 612T163 582Q163 558 150 548T123 538Q105 538 97 551T88 578Z" />
<glyph unicode="k" glyph-name="k" horiz-adv-x="463" d="M131 234Q167 265 197 292T248 341T282 376T294 394Q294 402 282 402L248 404Q228 405 228 417Q228 431 303 431Q348 431 377 431T424 429T449 425T457 419Q457 415 454 412T443 407T418 403T376 399Q356
397 345 386L209 257Q242 257 267 252T311 231T338 188T347 116V68Q347 37 349 19T354 -8T364 -19T378 -22Q394 -22 404 -13T414 17Q414 36 430 36Q445 36 445 9Q445 -18 423 -37T367 -56Q338 -56 323 -32T307 50V116Q307 148 302 169T284 204T246 222T182 228L131
185V21H192Q215 21 224 16T234 5Q234 0 226 -3T205 -6Q183 -6 159 -5T96 -4Q80 -4 59 -5T23 -6Q-10 -6 -10 6Q-10 11 -1 14T44 23Q72 27 80 36T88 75Q88 109 88 131T89 169T90 201T91 238T92 291T93 370Q93 446 93 505T91 611T90 693T89 758Q89 781 67 781H-13Q-25
781 -33 783T-41 791Q-41 796 -29 801T3 809T49 815T106 817Q131 817 131 788V234Z" />
<glyph unicode="l" glyph-name="l" horiz-adv-x="237" d="M142 785Q142 760 142 733T141 682T141 643T141 626Q141 388 142 243T143 27H204Q229 27 236 22T244 10Q244 5 238 2T216 -1Q209 -1 197 -1T172 0T144 1T116 2Q106 2 94 2T69 1T45 1T25 0Q5 0 -1 2T-8
11Q-8 23 13 24L36 25Q96 28 98 55Q99 85 100 119T102 196T103 292T103 413Q103 480 103 531T103 624T102 698T102 762Q102 778 99 784T83 790H6Q-11 790 -20 792T-30 799Q-30 806 -15 810T21 816T64 819T100 820Q120 820 131 816T142 785Z" />
<glyph unicode="m" glyph-name="m" horiz-adv-x="807" d="M723 6H770Q803 6 812 3T821 -6Q821 -18 781 -19Q773 -19 754 -19T712 -20T669 -21T636 -21Q594 -21 581 -19T568 -9Q568 3 591 5L655 10Q665 11 670 15T678 41Q679 50 680 68T682 111T684 164T685 220Q685
272 681 309T667 369T637 403T588 414Q559 414 537 406T497 383T466 349T444 310V35H495Q518 35 525 32T532 23Q532 18 526 14T510 10Q506 10 484 10T435 10T386 9T355 9Q308 9 308 21Q308 30 337 33L372 37Q382 38 388 44T397 59T401 81T403 109Q404 126 404 145T405
202Q405 204 405 223T404 265Q401 334 382 369T311 404Q283 404 258 394T214 364T184 314T172 245V29H212Q244 29 256 24T268 12Q268 1 247 1Q243 1 237 1T211 1T154 2T49 2Q41 2 35 6T29 15Q29 25 55 26Q78 28 91 28T110 30T119 38T123 60Q125 80 129 135T134
264Q134 309 132 335T127 374T118 391T108 395H75Q2 395 2 407Q2 412 13 416T44 422T91 426T149 428Q157 428 161 424T166 406L169 341Q187 385 225 409T312 434Q404 434 435 347Q464 396 503 420T590 444Q647 444 685 406T723 282V6Z" />
<glyph unicode="n" glyph-name="n" horiz-adv-x="571" d="M488 -1H542Q557 -1 572 -4T588 -18Q588 -24 583 -26T571 -29Q568 -29 553 -29T517 -29T472 -30T427 -30T391 -31T373 -31Q349 -31 349 -19Q349 -6 372 -4Q393 -2 406 0T428 5T440 14T444 30Q446 75 447
119T448 196Q448 235 446 275T432 349T399 404T336 425Q295 425 257 401T195 329Q178 292 175 258T172 186V44H239Q253 44 263 41T273 29Q273 15 239 15Q236 15 223 15T192 15T152 15T111 14T78 14T61 14Q44 14 37 16T30 24Q30 31 37 35T57 41L102 44Q117 45 123
54T130 95Q131 142 132 179T133 252T134 322T135 398Q135 408 132 414T120 420H51Q33 420 15 422T-4 431Q-4 438 14 442T58 448T109 450T150 451Q162 451 167 447T174 425L177 357Q200 403 242 429T336 455Q362 455 389 446T438 415T474 356T488 260V-1Z" />
<glyph unicode="o" glyph-name="o" horiz-adv-x="508" d="M474 236Q474 174 454 128T401 51T328 5T248 -11Q204 -11 165 6T97 56T51 132T33 230Q33 282 50 326T98 403T171 453T264 472Q316 472 355 453T421 402T460 327T474 236ZM259 442Q223 442 191 428T133
387T93 321T78 231Q78 178 94 138T135 72T191 33T250 20Q278 20 310 32T369 71T413 138T431 235Q431 280 419 318T384 383T329 426T259 442Z" />
<glyph unicode="p" glyph-name="p" horiz-adv-x="559" d="M170 346Q196 407 243 439T340 471Q397 471 433 448T489 391T516 315T524 238Q524 166 502 119T447 42T380 1T318 -11Q285 -11 261 -4T218 15T189 41T170 68V-174H235Q261 -174 273 -179T285 -189Q285
-196 279 -199T265 -202H40Q34 -202 28 -200T22 -190Q22 -184 32 -181T68 -175Q91 -174 103 -172T122 -161T129 -136T130 -86Q130 -66 130 -47T131 -5T132 49T133 124Q133 175 133 212T131 279T130 331T129 375Q129 405 123 411T95 417H23Q12 417 -2 418T-17 427Q-17
434 -4 438T32 445T84 448T145 449Q159 449 164 443T170 413V346ZM169 219Q169 179 175 143T198 80T243 36T315 19Q338 19 366 28T420 63T463 131T480 240Q480 269 475 304T455 369T411 419T336 440Q309 440 280 427T226 385T185 316T169 219Z" />
<glyph unicode="q" glyph-name="q" horiz-adv-x="518" d="M396 371Q421 385 449 398T500 411Q515 411 520 405T526 391Q526 379 510 376Q506 375 497 375T476 372T454 366T435 352Q427 342 426 333T423 301Q422 276 421 240T419 165T417 92T416 36Q416 22 416
-8T417 -72T417 -134T418 -174H471Q500 -174 511 -179T523 -191Q523 -203 496 -203H285Q262 -203 262 -189Q262 -180 272 -178T296 -175Q330 -173 344 -171T366 -164Q373 -159 375 -146T377 -98V80Q363 43 324 16T226 -11Q182 -11 147 6T86 53T48 125T35 216Q35
277 54 322T104 396T172 439T245 453Q275 453 300 445T346 424T379 398T396 371ZM231 19Q277 19 307 39T355 90T380 161T387 241Q387 273 382 305T361 364T319 406T246 423Q195 423 163 403T112 351T86 282T78 213Q78 178 86 143T112 81T159 36T231 19Z" />
<glyph unicode="r" glyph-name="r" horiz-adv-x="395" d="M374 349Q374 337 372 325T365 301T350 283T325 276Q308 276 300 285T291 308Q291 321 297 328T311 340T325 351T332 369Q332 386 319 394T286 403Q268 403 247 395T208 368T178 319T166 243V31H210Q262
31 283 26T304 13Q304 7 298 4T284 0Q270 0 252 0T214 1T177 2T146 3Q120 3 99 2T53 0Q45 0 38 4T31 13Q31 19 47 24T89 31Q107 32 111 36T118 57Q121 73 122 98T125 163T127 263T128 406Q128 420 113 420H14Q4 420 -1 425T-6 433Q-6 437 8 440T42 446T85 450T127
451Q153 451 162 445T171 413V364Q195 399 226 416T292 434Q329 434 351 414T374 349Z" />
<glyph unicode="s" glyph-name="s" horiz-adv-x="412" d="M74 37Q75 29 75 20T75 5Q75 -10 72 -20T58 -30Q51 -30 47 -25T42 -6Q42 2 43 21T44 54Q44 73 42 97T40 139Q40 171 54 171Q69 171 72 136Q74 101 80 82T105 46Q128 25 156 17T216 8Q235 8 256 12T294
27T322 55T334 98Q334 121 324 135T295 160T248 178T184 194Q121 208 86 237T51 323Q51 359 64 384T100 425T151 449T210 457Q239 457 260 451T296 435T320 414T335 392Q334 405 334 419T333 441Q333 461 337 468T349 475Q358 475 362 468T367 449Q367 389 366
350T364 299Q364 290 361 282T349 273Q340 273 337 281T332 298Q331 306 331 316T325 342Q320 360 311 375T288 402T254 419T206 426Q181 426 159 421T121 403T96 371T87 323Q87 297 95 281T121 254T165 236T228 220Q261 212 287 204T332 183T361 151T372 103Q372
60 352 35T306 -3T252 -19T212 -23Q192 -23 171 -19T130 -6T96 13T74 37Z" />
<glyph unicode="t" glyph-name="t" horiz-adv-x="349" d="M89 424Q70 424 46 423T4 422Q-2 422 -8 425T-15 436Q-15 441 -10 444T9 450L60 456Q80 458 84 468T88 500Q88 521 89 545T95 590Q100 610 104 614T113 618Q121 618 125 612T129 575V458Q138 458 162 458T214
460T264 461T295 462Q321 462 321 449Q321 444 317 440T304 434Q260 430 215 429T129 426V152Q129 131 130 108T138 65T161 32T206 19Q228 19 245 27T273 47T292 73T304 102Q309 118 312 127T326 137Q337 137 339 130T341 117Q341 103 333 81T308 39T263 4T199
-11Q142 -11 115 30Q105 45 100 62T91 98T88 134T87 165L89 424Z" />
<glyph unicode="u" glyph-name="u" horiz-adv-x="565" d="M424 359Q424 386 419 393T397 400H331Q297 400 297 411Q297 418 311 422T346 429T388 431T422 432Q435 432 443 431T456 426T463 411T465 383Q465 372 465 357T464 316T463 252T462 156Q462 90 462 63T463
30Q463 20 468 15T491 9Q497 9 512 9T551 10Q560 10 569 8T578 -1Q578 -9 563 -13T527 -19T482 -21T442 -22Q431 -22 427 0T422 81Q415 65 402 47T370 14T323 -10T261 -20Q214 -20 183 -3T133 44T105 110T97 187V402Q97 425 93 432T65 440H-2Q-11 440 -15 444T-19
452Q-19 459 -3 463T35 469T77 471T107 472Q128 472 134 465T141 427Q141 414 141 392T139 344T138 292T137 243Q137 207 139 166T152 91T188 33T258 10Q291 10 320 22T372 57T407 108T421 172L424 359Z" />
<glyph unicode="v" glyph-name="v" horiz-adv-x="492" d="M403 369Q394 353 382 323T355 255T327 177T301 103T280 43T269 12Q259 -14 246 -14Q232 -14 224 9Q208 58 196 95T174 162T156 218T139 270T120 325T96 390Q91 404 82 412T62 424T38 429T10 431Q-18 432
-18 443Q-18 453 8 453Q12 453 36 453T87 453T137 454T164 454Q197 454 197 442Q197 434 187 432T161 428Q133 427 133 415Q133 412 133 408T137 393T147 361T167 302T199 205T248 61Q281 155 302 215T336 310T352 360T357 382Q357 393 345 395T299 398Q278 398
278 410Q278 419 297 421T373 423Q413 423 438 423T477 421T497 416T502 409Q502 400 487 399T448 395Q428 393 419 388T403 369Z" />
<glyph unicode="w" glyph-name="w" horiz-adv-x="748" d="M501 50Q540 142 563 201T598 296T614 348T618 373Q618 390 596 390H561Q550 390 544 393T537 401Q537 410 568 413T676 417Q703 417 719 417T744 415T756 411T759 404Q759 396 752 393T724 390Q701 390
695 388T681 381Q678 379 675 375T667 359T652 325T626 262T586 162T527 15Q519 -3 511 -10T495 -17Q480 -17 474 3L371 375L267 29Q264 18 258 13T246 8Q240 8 234 13T222 32L85 408Q78 425 69 431T37 438Q9 438 -2 442T-14 453Q-14 460 -3 462T41 465H165Q194
465 205 463T217 453Q217 438 180 438H142Q128 438 128 428Q128 423 132 406T149 349T185 245T246 78Q274 174 292 235T321 333T337 387T347 413Q352 424 359 428T374 433Q381 433 386 429T397 413Q399 408 403 396T417 348T447 241T501 50Z" />
<glyph unicode="x" glyph-name="x" horiz-adv-x="550" d="M364 -3Q371 -2 376 0T381 11Q381 20 353 60T270 175Q251 152 229 121T181 55Q172 43 172 35Q172 25 196 25Q233 25 243 23T253 13Q253 0 230 0Q206 0 179 1T127 2Q105 2 84 2T49 1Q27 1 27 13Q27 25 68
29Q94 32 109 37T132 53Q157 85 174 108T205 150T227 181T246 207L128 373Q119 385 110 392T90 402T66 407T36 409Q14 410 6 413T-2 424Q-2 432 15 434T79 436H170Q214 436 228 434T242 424Q241 417 232 412T209 407Q180 407 171 406T162 398Q162 395 173 378T200
337T235 287T270 239L332 327Q343 342 351 353T359 371Q359 378 353 379T324 382Q304 383 296 385T288 396Q288 402 300 404T347 406H507Q530 406 530 394Q530 381 508 381Q487 381 475 381T454 380T441 378T430 374Q413 368 396 348Q384 333 370 315T343 278T316
241T293 208Q332 154 360 116T407 53T438 16T456 2Q472 -3 484 -4T515 -7Q544 -8 544 -19Q544 -24 535 -26T511 -28Q486 -28 469 -28T428 -27Q411 -27 397 -27T365 -28Q339 -28 329 -27T318 -20Q318 -14 326 -10T364 -3Z" />
<glyph unicode="y" glyph-name="y" horiz-adv-x="577" d="M103 -109Q103 -126 122 -139T171 -152Q197 -152 216 -140T254 -103Q266 -87 279 -64T305 -12L94 373Q89 382 85 387T74 395T60 399T40 400Q2 401 -8 403T-18 414Q-18 422 -10 425T23 428H174Q200 428
210 426T220 417Q220 402 181 402Q166 402 153 401T139 389Q139 386 141 377T148 357L320 32L417 330Q425 353 425 368Q425 378 419 381T388 385Q364 385 351 387T338 397Q338 405 347 408T379 411H547Q562 411 572 408T582 397Q582 386 547 385Q524 385 511 384T490
381T478 374T471 361L359 44Q322 -62 279 -118Q250 -156 223 -169T167 -183Q148 -183 131 -178T100 -162T78 -135T69 -96Q69 -62 86 -45T126 -28Q136 -28 146 -33T156 -58Q156 -80 143 -86T119 -93Q103 -96 103 -109Z" />
<glyph unicode="z" glyph-name="z" horiz-adv-x="439" d="M88 406L85 322Q84 293 80 280T66 267Q57 267 54 273T51 298V405Q51 422 56 429T74 436Q98 435 114 435T146 434T178 434T219 434Q251 434 291 435T363 436Q380 436 387 431T394 419Q394 409 372 379T316
308T243 223T170 139T114 72T91 36Q91 29 108 29H353Q360 29 362 48L369 151Q371 177 374 186T387 196Q400 196 400 181L394 85Q393 74 393 53T392 18Q392 -1 378 -1Q343 -1 319 -1T277 0T241 0T202 1Q180 1 156 1T109 0T70 -1T44 -2Q26 -2 26 13Q26 23 49 54T107
127T182 215T257 300T315 367T338 398Q338 406 329 406H88Z" />
<glyph unicode="{" glyph-name="braceleft" horiz-adv-x="313" d="M167 27Q167 7 170 -4T180 -20T202 -26T238 -27Q239 -27 249 -27T271 -29T292 -34T302 -43Q302 -48 293 -51T272 -55T247 -57T226 -58H195Q179 -58 167 -55T145 -43T132 -16T127 32V200Q127 252
115 281T88 326T59 344T38 348Q2 348 2 374Q2 388 13 394T44 400Q50 400 63 403T90 422T114 475T125 580Q125 606 125 647T124 747Q124 753 125 767T134 797T158 823T204 835Q210 835 220 835T243 836T266 837T285 838Q293 838 298 836T304 826Q304 824 301 820T286
814L220 808Q200 806 190 799T174 782T168 765T167 753V579Q165 521 153 476Q148 457 140 439T119 406T92 383T55 374Q76 374 91 367T119 347T139 319T153 287Q165 249 167 201V27Z" />
<glyph unicode="|" glyph-name="bar" horiz-adv-x="221" d="M131 802Q131 748 131 690T130 572T130 454T129 342Q129 288 129 228T129 107T129 -14T131 -128Q131 -145 111 -145Q103 -145 97 -141T91 -131Q91 -76 91 -15T91 108T92 231T92 348Q92 403 92 462T92
582T92 703T91 818Q91 832 99 836T112 840Q123 840 127 827T131 802Z" />
<glyph unicode="}" glyph-name="braceright" horiz-adv-x="313" d="M146 753Q146 773 143 784T133 800T111 806T75 807Q74 807 64 807T42 809T21 814T11 823Q11 828 20 831T41 835T66 837T87 838H118Q134 838 146 835T168 823T181 796T186 748V580Q186 528 198
499T225 454T254 436T275 432Q311 432 311 406Q311 392 300 386T269 380Q263 380 250 377T223 358T199 305T188 200Q188 174 188 133T189 33Q189 27 188 13T179 -17T155 -43T109 -55Q103 -55 93 -55T70 -56T47 -57T28 -58Q20 -58 15 -56T9 -46Q9 -44 12 -40T27
-34L93 -28Q113 -26 123 -19T139 -2T145 15T146 27V201Q148 259 160 304Q165 323 173 341T194 374T221 397T258 406Q237 406 222 413T194 433T174 461T160 493Q148 531 146 579V753Z" />
<glyph unicode="~" glyph-name="asciitilde" horiz-adv-x="398" d="M30 537Q30 548 59 565Q90 583 127 583Q142 583 159 579T195 569T231 560T264 555Q290 555 324 572Q338 580 343 582T354 585Q359 585 363 580T367 568Q367 559 359 551T337 537T305 527T265
523Q246 523 228 526T192 534T158 543T128 547Q113 547 100 543T76 535T57 526T44 522Q39 522 35 527T30 537Z" />
<glyph unicode="&#xa0;" glyph-name="uni00A0" horiz-adv-x="226" />
<glyph unicode="&#xa1;" glyph-name="exclamdown" horiz-adv-x="221" d="M97 496Q99 513 103 517T112 522Q123 522 126 504T129 451V-172Q129 -195 123 -199T107 -203Q95 -203 91 -198T87 -172Q87 -137 87 -76T89 56T91 203T93 340T95 446T97 496ZM150 628Q150
613 141 603T117 592Q103 592 91 600T79 627Q79 645 90 653T114 661Q126 661 138 653T150 628Z" />
<glyph unicode="&#xa2;" glyph-name="cent" horiz-adv-x="475" d="M276 768Q276 734 276 704T275 644Q305 643 331 635T377 611T407 576T418 533Q418 509 406 494T375 478Q358 478 348 488T338 514Q338 526 343 532T355 543T366 552T372 566Q372 576 364 585T343
600T312 611T275 617Q274 560 273 504T272 382Q272 349 272 323T273 274T274 232T275 191Q306 195 331 209T382 250Q393 261 417 293Q423 302 431 302Q443 302 443 291Q443 283 433 268Q415 241 394 224Q368 201 338 185T275 163Q276 142 276 119T276 65Q276 45
272 38T257 31Q238 31 238 59V160Q195 161 159 179T96 228T54 300T39 389Q39 438 54 481T95 558T158 614T239 642Q239 675 239 710T238 784Q238 798 245 802T258 806Q269 806 272 793T276 768ZM90 391Q90 303 129 249T238 190Q238 212 238 232T239 276T239 327T239
388V614Q205 608 178 589T131 541T101 474T90 391Z" />
<glyph unicode="&#xa3;" glyph-name="sterling" horiz-adv-x="590" d="M201 418Q235 419 266 420T317 421Q321 421 324 417T328 407Q328 402 324 395T309 388Q292 388 263 388T201 387V178Q201 140 194 113T178 69Q168 49 156 36H472Q489 36 499 43T512 67Q513
73 514 86T516 114T519 145T520 170Q520 193 523 206T538 220Q543 220 550 216T557 200Q557 163 554 123T546 29Q544 12 536 6T513 0H55Q38 0 35 3T31 11Q31 28 66 28Q82 28 98 33T128 56T149 106T158 193Q158 216 159 261T162 387H48Q41 387 37 393T32 404Q32
409 36 414T48 420Q55 420 68 420T98 419T131 419T162 418Q162 467 160 505T158 577Q158 635 168 683T201 766T259 819T343 838Q368 838 387 830T421 810T445 784T459 756Q458 775 458 785T457 800T456 806T456 808Q456 823 472 823Q481 823 484 819T487 809Q487
787 486 762T484 715Q484 696 485 677T486 639Q486 630 482 624T469 618Q461 618 457 629T452 653Q452 686 446 714T428 764T395 796T344 808Q305 808 278 791T234 743T209 670T201 577V418Z" />
<glyph unicode="&#xa4;" glyph-name="currency" horiz-adv-x="527" d="M427 383Q427 350 418 323T394 274Q403 265 415 254T437 232T455 210T462 193Q462 185 455 182T443 178Q439 178 436 179T425 187T405 207T368 244Q342 220 313 209T257 197Q196 197 153 237Q96
178 87 178Q79 178 73 183T66 197Q66 204 83 223T126 268Q95 313 95 378Q95 409 103 436T128 485Q102 511 84 530T66 558Q66 566 72 571T87 577Q92 577 108 561T154 516Q177 537 207 549T269 561Q301 561 328 549T375 517Q396 539 408 551T427 569T437 576T443
577Q448 577 455 574T462 562Q462 555 456 545T440 525T419 504T399 485Q427 440 427 383ZM265 532Q242 532 220 523T179 494T150 446T139 379Q139 339 149 310T177 263T215 236T258 227Q276 227 297 235T338 262T370 310T383 382Q383 451 350 491T265 532Z" />
<glyph unicode="&#xa5;" glyph-name="yen" horiz-adv-x="765" d="M515 285Q519 285 522 281T526 272Q526 267 522 261T507 254Q489 254 458 254T392 253Q392 229 392 201T393 144T394 86T394 31H490Q501 31 510 26T520 13Q520 0 500 0H291Q277 0 264 2T250 13Q250
22 260 25T279 28Q289 28 301 28T325 33T344 47T352 74V253H246Q239 253 235 258T230 269Q230 274 234 279T246 284Q252 284 264 284T291 283T322 283T352 282V355L340 381H246Q239 381 235 386T230 397Q230 402 234 407T246 412Q256 412 279 411T327 410Q302 466
285 505T249 582T211 659T159 755Q148 774 126 780T56 787Q42 787 31 788T20 799Q20 813 55 813H273Q291 813 297 810T304 799Q304 790 289 788T256 784T223 779T208 763Q208 757 219 732T246 672T283 594T322 513T356 443T377 395Q383 410 398 438T431 501T469
573T505 642T532 699T543 732Q543 739 536 742T519 746T496 748T472 748Q462 748 450 749T438 762Q438 767 445 772T472 777H717Q726 777 733 774T740 763Q740 752 720 752Q709 752 695 751T668 749T644 747T629 746Q607 744 598 735T580 708Q563 676 544 639T504
563T464 484T427 410Q453 411 476 412T515 413Q519 413 522 409T526 400Q526 395 522 389T507 382Q492 382 467 382T412 381L391 334V320Q391 313 391 303T392 282Q427 282 461 283T515 285Z" />
<glyph unicode="&#xa6;" glyph-name="brokenbar" horiz-adv-x="221" d="M131 817Q131 766 130 712T129 608Q129 557 130 506T131 404Q131 391 125 386T110 380Q102 380 97 384T91 400Q91 451 91 505T92 610Q92 662 92 716T91 823Q91 829 98 834T111 840Q121 840
126 832T131 817ZM129 292Q129 241 128 187T127 82Q127 31 128 -20T129 -123Q129 -137 124 -141T110 -146Q102 -146 97 -141T91 -125Q91 -74 91 -21T92 84Q92 136 92 189T91 295Q91 306 98 310T111 314Q121 314 125 306T129 292Z" />
<glyph unicode="&#xa7;" glyph-name="section" horiz-adv-x="454" d="M102 50Q101 18 96 6T82 -7Q70 -7 70 16Q70 26 71 39T73 67Q73 86 71 106T68 148Q68 162 70 168T81 175Q89 175 92 168T99 141Q102 125 104 113T113 88Q129 56 160 43T230 30Q281 30 314 50T347
106Q347 136 328 155T282 186T224 205T171 218Q157 222 139 230T106 252T80 287T69 339Q69 378 91 406T149 450Q135 456 121 465T96 487T77 519T69 564Q69 593 82 616T116 655T164 681T220 690Q252 690 275 682T315 662T342 637T355 613Q354 626 354 636T353 655Q353
673 356 680T367 688Q376 688 380 681T385 662Q385 602 385 561T384 508Q384 500 381 492T370 484Q360 484 357 493T353 507Q351 515 348 542T333 594Q317 628 288 644T219 660Q194 660 174 652T141 632T120 602T112 567Q112 538 124 522T155 496T199 480T249 466Q274
458 299 449T345 426T377 391T390 339Q390 315 380 297T354 265T318 244T279 231Q301 224 321 215T356 192T381 159T390 114Q390 81 372 59T328 24T274 6T227 0Q210 0 192 3T156 13T124 28T102 50ZM112 342Q112 319 122 303T149 276T187 260T230 255Q281 255 314
275T347 331Q347 356 333 373T298 402T252 421T204 434Q160 429 136 402T112 342Z" />
<glyph unicode="&#xa8;" glyph-name="dieresis" horiz-adv-x="342" d="M30 575Q30 580 32 587T40 600T52 611T71 616Q85 616 95 606T105 579Q105 552 92 543T64 533Q50 533 40 545T30 575ZM237 552Q237 557 239 564T247 577T259 588T278 593Q292 593 302 583T312
556Q312 529 299 520T271 510Q257 510 247 522T237 552Z" />
<glyph unicode="&#xa9;" glyph-name="copyright" horiz-adv-x="670" d="M621 253Q621 172 595 112T526 12T432 -47T328 -67Q271 -67 220 -45T131 19T70 118T47 244Q47 312 69 369T132 469T229 534T351 558Q417 558 467 534T551 468T603 371T621 253ZM588 252Q588
308 574 357T529 444T454 502T348 524Q289 524 240 504T156 446T102 358T83 244Q83 182 102 131T154 42T233 -15T329 -35Q376 -35 422 -18T505 35T565 125T588 252ZM428 376Q427 384 427 395T426 416Q426 424 432 430T444 436Q450 436 455 431T461 417Q461 407
461 390T460 353T460 317T460 290Q460 284 455 279T444 274Q438 274 432 277T426 289Q426 333 405 359T340 385Q314 385 292 375T253 344T227 296T217 232Q217 166 248 131T333 95Q368 95 391 109T436 161Q440 167 443 171T453 175Q462 175 464 171T467 161Q467
154 460 142Q415 65 328 65Q294 65 266 78T218 113T186 166T175 231Q175 270 187 303T222 361T275 400T342 415Q363 415 387 408T428 376Z" />
<glyph unicode="&#xaa;" glyph-name="ordfeminine" horiz-adv-x="267" d="M162 761Q162 784 151 800T113 816Q77 816 77 792Q77 784 85 782Q88 782 91 779T95 770Q95 756 74 756Q63 756 57 763T51 781Q51 810 69 824T117 838Q148 838 168 819T188 762Q188 753
188 735T187 704Q187 689 191 679T204 668Q213 668 214 674T217 686Q218 688 219 691T226 694Q231 694 232 690T233 681Q233 664 225 656T202 648Q169 648 162 675Q150 663 135 656T100 648Q72 648 56 662T39 698Q39 720 57 734T106 748Q138 748 162 730V761ZM67
699Q67 688 76 680T105 671Q129 671 140 680T152 701Q152 712 143 720T111 728Q89 728 78 720T67 699Z" />
<glyph unicode="&#xab;" glyph-name="guillemotleft" horiz-adv-x="369" d="M173 516Q173 510 165 495T143 461T115 420T88 378Q100 358 115 337T143 296T164 262T173 241Q173 232 162 232Q153 232 134 251T95 295T60 344T45 378Q45 385 52 399T70 429T94 462T121
493T145 516T162 525Q173 525 173 516ZM316 516Q316 510 308 495T286 461T258 420T231 378Q243 358 258 337T286 296T307 262T316 241Q316 232 305 232Q296 232 277 251T238 295T203 344T188 378Q188 385 195 399T213 429T237 462T264 493T288 516T305 525Q316
525 316 516Z" />
<glyph unicode="&#xac;" glyph-name="logicalnot" horiz-adv-x="375" d="M78 286Q78 286 91 286T121 285T157 285T187 284Q199 284 214 284T245 285T272 286T288 287Q296 287 306 283T317 252V180Q316 174 314 170Q309 161 298 161Q284 161 282 169T280 183V215Q280
232 274 241T239 251H77Q70 251 64 256T58 269Q58 280 64 283T78 286Z" />
<glyph unicode="&#xad;" glyph-name="uni00AD" horiz-adv-x="380" d="M307 285Q311 285 314 281T318 272Q318 267 314 261T299 254Q279 254 249 254T186 254T125 253T78 253Q71 253 67 258T62 269Q62 274 66 279T78 284Q85 284 97 284T123 283T151 283T179 282Q221
282 252 283T307 285Z" />
<glyph unicode="&#xae;" glyph-name="registered" horiz-adv-x="670" d="M621 253Q621 172 595 112T526 12T432 -47T328 -67Q271 -67 220 -45T131 19T70 118T47 244Q47 312 69 369T132 469T229 534T351 558Q417 558 467 534T551 468T603 371T621 253ZM588 252Q588
308 574 357T529 444T454 502T348 524Q289 524 240 504T156 446T102 358T83 244Q83 182 102 131T154 42T233 -15T329 -35Q376 -35 422 -18T505 35T565 125T588 252ZM267 229V97H303Q308 97 311 93T314 84Q314 82 313 78T306 74Q293 74 281 74T257 75Q245 75 228
75T199 74Q181 74 181 85Q181 88 184 92T193 96Q212 96 220 99T228 116Q228 152 229 185T230 255Q230 292 229 323T227 392Q227 406 221 408T197 411Q183 411 183 423Q183 427 185 430T196 433Q214 433 226 433T251 434T277 434T311 435Q331 435 353 430T395 413T428
382T441 335Q441 305 430 285T400 253T361 235T321 229Q341 200 361 173Q378 150 398 124T437 78H459Q470 78 475 75T480 67Q480 64 478 62T468 59T446 56T408 55Q402 55 388 74T354 120T314 177T276 229H267ZM401 332Q401 356 390 370T362 392T327 402T295 405Q285
405 275 403Q271 402 267 402V259Q268 259 274 259T282 258Q304 258 325 262T363 275T390 298T401 332Z" />
<glyph unicode="&#xaf;" glyph-name="overscore" horiz-adv-x="316" d="M285 542Q289 542 292 538T296 529Q296 524 292 518T277 511Q257 511 224 511T154 511T86 510T36 510Q29 510 25 515T20 526Q20 531 24 536T36 541Q43 541 58 541T91 540T126 540T157 539Q199
539 230 540T285 542Z" />
<glyph unicode="&#xb0;" glyph-name="degree" horiz-adv-x="236" d="M199 754Q199 732 192 716T172 690T146 674T116 669Q84 669 61 691T37 752Q37 788 60 812T122 837Q160 837 179 812T199 754ZM119 814Q94 814 84 796T74 752Q74 725 84 708T116 690Q138 690
150 707T162 753Q162 776 153 795T119 814Z" />
<glyph unicode="&#xb1;" glyph-name="plusminus" horiz-adv-x="390" d="M176 541Q176 552 182 556T193 560Q198 560 205 556T213 541Q213 521 213 491T212 425Q250 425 280 427T333 430Q337 430 340 425T344 415Q344 410 340 403T325 394H212V276Q211 269 204
265T192 260Q187 260 181 264T174 276Q174 285 174 299T175 329T176 362T177 394Q140 393 109 392T60 391Q53 391 49 397T44 408Q44 413 48 419T60 425H179Q179 463 178 492T176 541ZM333 210Q337 210 340 205T344 195Q344 190 340 183T325 176Q303 176 266 176T188
174T113 172T60 171Q53 171 49 177T44 188Q44 193 48 199T60 205H201Q243 205 276 207T333 210Z" />
<glyph unicode="&#xb2;" glyph-name="twosuperior" horiz-adv-x="247" d="M191 553Q193 556 196 559T206 563Q214 563 216 560T218 554Q218 552 218 551T215 546T209 535T196 512Q194 510 192 507T184 503Q168 503 146 503T104 505Q80 506 55 507Q53 505 50 503T35
501Q22 501 22 509Q22 513 30 519Q51 535 76 562T122 623T158 690T172 755Q172 778 162 793T126 808Q108 808 96 803T75 790T63 774T59 762Q59 757 64 755T70 744Q70 728 61 725T50 721Q29 721 29 750Q29 759 35 774T55 802T87 826T130 836Q169 836 189 812T210
754Q210 722 196 689T162 626T120 571T79 529L168 526Q170 526 175 530T191 553Z" />
<glyph unicode="&#xb3;" glyph-name="threesuperior" horiz-adv-x="233" d="M67 676Q81 686 97 696T127 718T150 745T159 781Q159 795 153 802T129 810Q102 810 86 795T61 753Q59 746 56 740T46 734Q35 734 35 749Q35 759 41 773T60 802T92 826T136 836Q143 836
153 835T173 828T190 812T197 784Q197 759 184 740T153 708T121 686T101 673Q103 673 107 674Q110 674 113 674T121 675Q133 675 147 671T173 659T193 638T201 609Q201 589 190 569T160 532T119 505T74 495Q57 495 40 502T23 527Q23 532 25 537T35 543Q40 543 44
540T52 532T63 525T80 521Q92 521 106 526T133 543T154 569T163 605Q163 631 149 641T115 652Q98 652 85 648T67 643Q65 643 59 645T53 655Q53 663 59 668T67 676Z" />
<glyph unicode="&#xb4;" glyph-name="acute" horiz-adv-x="154" d="M131 653Q131 648 125 635T109 607T87 574T64 543T43 519T28 510Q20 510 20 521Q20 527 25 541T37 573T54 610T73 644T92 670T107 680Q131 680 131 653Z" />
<glyph unicode="&#xb5;" glyph-name="mu" horiz-adv-x="644" d="M468 359Q468 386 463 393T441 400H375Q341 400 341 411Q341 418 355 422T390 429T432 431T466 432Q479 432 487 431T500 426T507 411T509 383Q509 372 509 357T508 316T507 252T506 156Q506 90
506 63T507 30Q507 20 512 15T535 9Q541 9 556 9T595 10Q604 10 613 8T622 -1Q622 -9 607 -13T571 -19T526 -21T486 -22Q475 -22 471 0T466 81Q459 65 446 47T414 14T367 -10T305 -20Q261 -20 230 -2T179 42Q180 -13 181 -69T183 -174Q183 -189 178 -195T163 -201Q155
-201 148 -196T140 -177Q142 -114 143 -43T144 115Q144 178 143 249T141 402Q141 425 137 432T109 440H42Q33 440 29 444T25 452Q25 459 41 463T79 469T121 471T151 472Q172 472 178 465T185 427Q185 404 183 351T181 206Q181 171 185 137T201 74T238 28T302 10Q335
10 364 22T416 57T451 108T465 172L468 359Z" />
<glyph unicode="&#xb6;" glyph-name="paragraph" horiz-adv-x="623" d="M360 388Q360 330 360 288T361 209T361 132T362 39Q362 16 355 8T337 0Q329 0 323 6T317 29Q317 84 317 120T317 189T318 260T318 356Q266 360 214 375T121 419T54 491T28 595Q28 657 50
700T112 770T205 809T319 821Q361 821 391 821T447 820T501 819T564 818Q582 818 587 814T592 804Q592 799 587 794T564 789H530Q498 789 490 777T481 749Q481 696 478 615T475 437Q475 376 475 331T475 243T476 157T476 52Q476 33 474 17T457 0Q447 0 440 8T433
26V780Q416 783 400 785T362 787Q362 746 362 698T361 597T361 492T360 388Z" />
<glyph unicode="&#xb7;" glyph-name="middot" horiz-adv-x="200" d="M57 357Q57 370 67 383T101 397Q124 397 134 385T144 359Q144 344 133 332T99 319Q76 319 67 331T57 357Z" />
<glyph unicode="&#xb8;" glyph-name="cedilla" horiz-adv-x="228" d="M45 7L64 3L51 -69Q75 -55 92 -48T131 -40Q164 -40 186 -57T208 -103Q208 -123 198 -137T169 -161T128 -176T79 -181Q51 -181 43 -176T34 -164Q34 -155 44 -154T75 -152Q121 -152 146 -142T171
-109Q171 -95 161 -84T128 -72Q114 -72 101 -76T75 -86T53 -95T36 -100Q28 -100 24 -96T20 -88Q20 -85 21 -80T23 -71Q28 -50 30 -26T35 7H45Z" />
<glyph unicode="&#xb9;" glyph-name="onesuperior" horiz-adv-x="179" d="M140 524Q145 524 151 523T158 512Q158 504 155 502T144 500H42Q37 500 30 501T22 512Q22 518 28 520T37 522Q58 522 66 525T75 541Q75 557 75 569T76 595T78 630T80 683Q80 709 80 724T81
750T82 769T82 789Q82 793 81 798T73 803Q69 803 57 803T37 802Q32 802 27 803T21 812Q21 817 26 820T37 823Q39 823 49 824T72 825T95 826T108 827Q111 827 113 825T116 815Q116 809 115 776Q114 748 113 690T110 524H140Z" />
<glyph unicode="&#xba;" glyph-name="ordmasculine" horiz-adv-x="250" d="M213 744Q213 719 205 701T184 670T155 651T123 645Q88 645 63 672T37 741Q37 783 62 810T129 838Q171 838 192 810T213 744ZM127 813Q102 813 86 795T70 742Q70 704 87 687T124 670Q144
670 162 687T181 743Q181 775 167 794T127 813Z" />
<glyph unicode="&#xbb;" glyph-name="guillemotright" horiz-adv-x="369" d="M196 516Q196 525 207 525Q213 525 224 516T248 493T274 462T299 429T317 399T324 378Q324 368 309 344T275 295T236 251T207 232Q196 232 196 241Q196 247 204 261T226 295T254 336T281
378Q269 398 254 419T226 460T205 495T196 516ZM53 516Q53 525 64 525Q70 525 81 516T105 493T131 462T156 429T174 399T181 378Q181 368 166 344T132 295T93 251T64 232Q53 232 53 241Q53 247 61 261T83 295T111 336T138 378Q126 398 111 419T83 460T62 495T53
516Z" />
<glyph unicode="&#xbc;" glyph-name="onequarter" horiz-adv-x="556" d="M42 18Q78 85 101 128T138 199T160 241T173 266T184 285T198 310T221 352T260 423Q291 480 310 516T343 578T365 620T383 658T406 704T440 774Q441 777 444 784T454 800T467 814T484 821Q493
821 496 817T499 807Q499 799 494 788T485 768L80 5Q73 -9 68 -14T51 -19Q37 -19 37 -7Q37 -1 38 6T42 18ZM158 524Q163 524 169 523T176 512Q176 504 171 502T162 500H60Q55 500 48 501T40 512Q40 518 46 520T55 522Q59 522 65 522T78 524T88 530T93 541Q93 557
93 569T95 595T96 630T98 683Q98 709 98 724T99 750T100 769T100 789Q100 793 99 798T91 803Q87 803 75 803T55 802Q50 802 45 803T39 812Q39 817 44 820T55 823Q57 823 67 824T90 825T113 826T126 827Q129 827 131 825T134 815Q134 809 133 776Q132 748 131 690T128
524H158ZM473 98Q471 79 470 59T469 34Q469 26 479 25T498 24Q502 24 509 23T517 12Q517 3 512 2T498 0H389Q385 0 381 2T376 9Q376 14 379 17T387 21Q396 22 404 22T416 24Q425 25 430 28T436 39L440 98Q424 98 409 98T378 97Q356 96 335 95T304 94Q288 94 288
106Q288 108 288 110T292 117Q320 155 339 181T375 229T406 271T444 319Q446 321 452 325T466 329Q469 329 477 327T486 308Q486 306 485 286T481 238T476 178T473 122H506Q523 122 523 110Q523 108 520 103T509 98H473ZM340 120Q344 120 374 120T439 123L451 280L339
132Q338 130 336 128T334 124Q334 120 340 120Z" />
<glyph unicode="&#xbd;" glyph-name="onehalf" horiz-adv-x="563" d="M41 18Q77 85 100 128T137 199T159 241T172 266T183 285T197 310T220 352T259 423Q290 480 309 516T342 578T364 620T382 658T405 704T439 774Q440 777 443 784T453 800T466 814T483 821Q492
821 495 817T498 807Q498 799 493 788T484 768L79 5Q72 -9 67 -14T50 -19Q36 -19 36 -7Q36 -1 37 6T41 18ZM157 524Q162 524 168 523T175 512Q175 504 170 502T161 500H59Q54 500 47 501T39 512Q39 518 45 520T54 522Q58 522 64 522T77 524T87 530T92 541Q92 557
92 569T94 595T95 630T97 683Q97 709 97 724T98 750T99 769T99 789Q99 793 98 798T90 803Q86 803 74 803T54 802Q49 802 44 803T38 812Q38 817 43 820T54 823Q56 823 66 824T89 825T112 826T125 827Q128 827 130 825T133 815Q133 809 132 776Q131 748 130 690T127
524H157ZM502 52Q504 55 507 58T517 62Q525 62 527 59T529 53Q529 51 529 50T526 45T520 34T507 11Q505 9 503 6T495 2Q479 2 457 2T415 4Q391 5 366 6Q364 4 361 2T346 0Q333 0 333 8Q333 12 341 18Q362 34 387 61T433 122T469 189T483 254Q483 277 473 292T437
307Q419 307 407 302T386 289T374 273T370 261Q370 256 375 254T381 243Q381 227 372 224T361 220Q340 220 340 249Q340 258 346 273T366 301T398 325T441 335Q480 335 500 311T521 253Q521 221 507 188T473 125T431 70T390 28L479 25Q481 25 486 29T502 52Z" />
<glyph unicode="&#xbe;" glyph-name="threequarters" horiz-adv-x="561" d="M51 18Q87 85 110 128T147 199T169 241T182 266T193 285T207 310T230 352T269 423Q300 480 319 516T352 578T374 620T392 658T415 704T449 774Q450 777 453 784T463 800T476 814T493
821Q502 821 505 817T508 807Q508 799 503 788T494 768L89 5Q82 -9 77 -14T60 -19Q46 -19 46 -7Q46 -1 47 6T51 18ZM77 676Q91 686 107 696T137 718T160 745T169 781Q169 795 163 802T139 810Q112 810 96 795T71 753Q69 746 66 740T56 734Q45 734 45 749Q45 759
51 773T70 802T102 826T146 836Q153 836 163 835T183 828T200 812T207 784Q207 759 194 740T163 708T131 686T111 673Q113 673 117 674Q120 674 123 674T131 675Q143 675 157 671T183 659T203 638T211 609Q211 589 200 569T170 532T129 505T84 495Q67 495 50 502T33
527Q33 532 35 537T45 543Q50 543 54 540T62 532T73 525T90 521Q102 521 116 526T143 543T164 569T173 605Q173 631 159 641T125 652Q108 652 95 648T77 643Q75 643 69 645T63 655Q63 663 69 668T77 676ZM478 98Q476 79 475 59T474 34Q474 26 484 25T503 24Q507
24 514 23T522 12Q522 3 517 2T503 0H394Q390 0 386 2T381 9Q381 14 384 17T392 21Q401 22 409 22T421 24Q430 25 435 28T441 39L445 98Q429 98 414 98T383 97Q361 96 340 95T309 94Q293 94 293 106Q293 108 293 110T297 117Q325 155 344 181T380 229T411 271T449
319Q451 321 457 325T471 329Q474 329 482 327T491 308Q491 306 490 286T486 238T481 178T478 122H511Q528 122 528 110Q528 108 525 103T514 98H478ZM345 120Q349 120 379 120T444 123L456 280L344 132Q343 130 341 128T339 124Q339 120 345 120Z" />
<glyph unicode="&#xbf;" glyph-name="questiondown" horiz-adv-x="549" d="M393 658Q393 642 382 634T359 625Q348 625 336 633T324 657Q324 671 334 681T359 691Q372 691 382 682T393 658ZM391 125Q391 137 396 144T409 156T425 161T439 163Q475 163 496 126T517
31Q517 -30 495 -74T438 -146T363 -188T286 -202Q252 -202 208 -190T123 -150T55 -77T27 33Q27 86 45 128T91 203T148 259T203 298Q231 315 259 331T310 365T347 404T362 454Q362 474 357 496T351 534Q351 547 356 551T368 555Q373 555 377 553T386 543T392 523T394
489Q394 442 383 413T351 363T302 325T238 285Q160 233 116 174T71 35Q71 -19 91 -58T142 -122T211 -159T287 -171Q333 -171 370 -155T432 -110T470 -45T484 35Q484 74 474 95T449 116Q443 116 440 113T433 105T427 97T416 93Q405 93 398 102T391 125Z" />
<glyph unicode="&#xc0;" glyph-name="Agrave" horiz-adv-x="681" d="M288 950Q288 964 293 968T307 972Q314 972 330 962T362 939T390 910T402 886Q402 875 394 875Q387 875 370 884T334 905T302 929T288 950ZM582 3Q587 -17 612 -23T685 -29Q699 -29 710 -30T721
-41Q721 -55 686 -55H473Q455 -55 449 -52T442 -41Q442 -32 457 -30T490 -26T523 -21T538 -5Q538 1 534 19T524 61T511 112T497 164T485 209T477 238H206Q199 214 190 185T173 129T160 79T154 45Q154 38 161 35T178 31T201 29T225 29Q235 29 247 28T259 15Q259
10 252 5T225 0H-27Q-36 0 -43 3T-50 14Q-50 25 -30 25Q-20 25 -6 26T22 28T46 30T61 31Q83 33 93 42T110 69Q125 112 144 174T184 309T224 456T264 600T298 725T324 816Q326 824 331 829T345 835Q350 835 356 831T365 816L582 3ZM343 755Q339 735 330 700T309
621T284 530T259 435T236 346T218 274Q249 273 279 273T340 272Q371 272 402 272T465 274Q453 323 438 384T407 509T374 636T343 755Z" />
<glyph unicode="&#xc1;" glyph-name="Aacute" horiz-adv-x="681" d="M401 950Q401 942 387 930T355 905T320 884T295 875Q287 875 287 886Q287 895 299 910T327 938T359 962T382 972Q390 972 395 968T401 950ZM582 3Q587 -17 612 -23T685 -29Q699 -29 710 -30T721
-41Q721 -55 686 -55H473Q455 -55 449 -52T442 -41Q442 -32 457 -30T490 -26T523 -21T538 -5Q538 1 534 19T524 61T511 112T497 164T485 209T477 238H206Q199 214 190 185T173 129T160 79T154 45Q154 38 161 35T178 31T201 29T225 29Q235 29 247 28T259 15Q259
10 252 5T225 0H-27Q-36 0 -43 3T-50 14Q-50 25 -30 25Q-20 25 -6 26T22 28T46 30T61 31Q83 33 93 42T110 69Q125 112 144 174T184 309T224 456T264 600T298 725T324 816Q326 824 331 829T345 835Q350 835 356 831T365 816L582 3ZM343 755Q339 735 330 700T309
621T284 530T259 435T236 346T218 274Q249 273 279 273T340 272Q371 272 402 272T465 274Q453 323 438 384T407 509T374 636T343 755Z" />
<glyph unicode="&#xc2;" glyph-name="Acircumflex" horiz-adv-x="681" d="M464 875Q459 875 445 880T412 893T376 910T344 928Q330 919 312 910T277 893T245 880T225 875Q217 875 217 886Q217 895 233 910T272 938T314 962T344 972Q353 972 374 962T417 939T455
910T472 886Q472 875 464 875ZM582 3Q587 -17 612 -23T685 -29Q699 -29 710 -30T721 -41Q721 -55 686 -55H473Q455 -55 449 -52T442 -41Q442 -32 457 -30T490 -26T523 -21T538 -5Q538 1 534 19T524 61T511 112T497 164T485 209T477 238H206Q199 214 190 185T173
129T160 79T154 45Q154 38 161 35T178 31T201 29T225 29Q235 29 247 28T259 15Q259 10 252 5T225 0H-27Q-36 0 -43 3T-50 14Q-50 25 -30 25Q-20 25 -6 26T22 28T46 30T61 31Q83 33 93 42T110 69Q125 112 144 174T184 309T224 456T264 600T298 725T324 816Q326 824
331 829T345 835Q350 835 356 831T365 816L582 3ZM343 755Q339 735 330 700T309 621T284 530T259 435T236 346T218 274Q249 273 279 273T340 272Q371 272 402 272T465 274Q453 323 438 384T407 509T374 636T343 755Z" />
<glyph unicode="&#xc3;" glyph-name="Atilde" horiz-adv-x="681" d="M582 3Q587 -17 612 -23T685 -29Q699 -29 710 -30T721 -41Q721 -55 686 -55H473Q455 -55 449 -52T442 -41Q442 -32 457 -30T490 -26T523 -21T538 -5Q538 1 534 19T524 61T511 112T497 164T485
209T477 238H206Q199 214 190 185T173 129T160 79T154 45Q154 38 161 35T178 31T201 29T225 29Q235 29 247 28T259 15Q259 10 252 5T225 0H-27Q-36 0 -43 3T-50 14Q-50 25 -30 25Q-20 25 -6 26T22 28T46 30T61 31Q83 33 93 42T110 69Q125 112 144 174T184 309T224
456T264 600T298 725T324 816Q326 824 331 829T345 835Q350 835 356 831T365 816L582 3ZM343 755Q339 735 330 700T309 621T284 530T259 435T236 346T218 274Q249 273 279 273T340 272Q371 272 402 272T465 274Q453 323 438 384T407 509T374 636T343 755ZM179 903Q179
914 208 931Q239 949 276 949Q291 949 308 945T344 935T380 926T413 921Q439 921 473 938Q487 946 492 948T503 951Q508 951 512 946T516 934Q516 925 508 917T486 903T454 893T414 889Q395 889 377 892T341 900T307 909T277 913Q262 913 249 909T225 901T206 892T193
888Q188 888 184 893T179 903Z" />
<glyph unicode="&#xc4;" glyph-name="Adieresis" horiz-adv-x="681" d="M205 931Q205 936 207 943T215 956T227 967T246 972Q260 972 270 962T280 935Q280 908 267 899T239 889Q225 889 215 901T205 931ZM412 917Q412 922 414 929T422 942T434 953T453 958Q467
958 477 948T487 921Q487 894 474 885T446 875Q432 875 422 887T412 917ZM582 3Q587 -17 612 -23T685 -29Q699 -29 710 -30T721 -41Q721 -55 686 -55H473Q455 -55 449 -52T442 -41Q442 -32 457 -30T490 -26T523 -21T538 -5Q538 1 534 19T524 61T511 112T497 164T485
209T477 238H206Q199 214 190 185T173 129T160 79T154 45Q154 38 161 35T178 31T201 29T225 29Q235 29 247 28T259 15Q259 10 252 5T225 0H-27Q-36 0 -43 3T-50 14Q-50 25 -30 25Q-20 25 -6 26T22 28T46 30T61 31Q83 33 93 42T110 69Q125 112 144 174T184 309T224
456T264 600T298 725T324 816Q326 824 331 829T345 835Q350 835 356 831T365 816L582 3ZM343 755Q339 735 330 700T309 621T284 530T259 435T236 346T218 274Q249 273 279 273T340 272Q371 272 402 272T465 274Q453 323 438 384T407 509T374 636T343 755Z" />
<glyph unicode="&#xc5;" glyph-name="Aring" horiz-adv-x="681" d="M410 925Q410 912 404 903T389 887T368 878T345 875Q319 875 301 888T283 923Q283 944 301 958T349 972Q379 972 394 958T410 925ZM347 951Q328 951 321 942T313 923Q313 912 320 904T345 895Q380
895 380 924Q380 933 374 942T347 951ZM582 3Q587 -17 612 -23T685 -29Q699 -29 710 -30T721 -41Q721 -55 686 -55H473Q455 -55 449 -52T442 -41Q442 -32 457 -30T490 -26T523 -21T538 -5Q538 1 534 19T524 61T511 112T497 164T485 209T477 238H206Q199 214 190
185T173 129T160 79T154 45Q154 38 161 35T178 31T201 29T225 29Q235 29 247 28T259 15Q259 10 252 5T225 0H-27Q-36 0 -43 3T-50 14Q-50 25 -30 25Q-20 25 -6 26T22 28T46 30T61 31Q83 33 93 42T110 69Q125 112 144 174T184 309T224 456T264 600T298 725T324 816Q326
824 331 829T345 835Q350 835 356 831T365 816L582 3ZM343 755Q339 735 330 700T309 621T284 530T259 435T236 346T218 274Q249 273 279 273T340 272Q371 272 402 272T465 274Q453 323 438 384T407 509T374 636T343 755Z" />
<glyph unicode="&#xc6;" glyph-name="AE" horiz-adv-x="1023" d="M966 310Q980 310 982 300T985 277Q985 268 984 241T980 177T975 102T969 33Q967 8 957 4T927 0Q866 0 809 1T690 2Q629 2 569 2T447 0Q432 0 417 1T401 11Q401 22 410 25T440 28Q487 28 504 35T521
64Q521 93 521 116T521 159T522 198T522 238H268Q256 214 240 183T208 124T183 73T173 45Q173 38 179 35T195 31T217 29T240 29Q250 29 260 28T271 15Q271 10 263 5T234 0Q202 0 170 1T105 2Q73 2 43 2T-20 0Q-40 0 -40 14Q-40 25 -18 25Q-7 25 7 26T35 28T59 30T74
31Q96 33 108 42T131 69Q154 110 184 168T248 292T317 428T384 565T445 687T493 783Q482 788 469 788T444 789Q427 789 416 791T404 804Q404 815 417 818T445 821Q478 821 513 821T580 820T639 820T686 819Q723 819 746 819T792 820T842 820T913 821Q927 821 934
814T941 785V651Q941 632 938 619T924 605Q909 605 907 618T904 645V757Q904 776 891 780T867 785H564V440Q593 439 621 438T678 437Q692 437 709 437T741 438T769 439T786 440Q792 440 795 450T800 475T802 505T803 530Q803 531 803 536T805 546T810 556T820 560Q832
560 834 552T837 533Q837 504 836 477T835 420Q835 391 836 363T837 307Q837 290 832 285T822 280Q815 280 810 288T805 309Q805 322 803 338T796 369T782 392T757 402Q743 402 725 402T678 403Q649 403 621 403T564 401V36H893Q900 36 907 37T921 41T931 52T936
73Q937 86 939 111T943 166T946 223T949 273Q950 293 955 301T966 310ZM406 272Q435 272 464 272T522 273Q523 302 523 338T523 425Q523 481 522 526T520 609T518 682T517 750V754Q508 734 491 699T453 620T409 529T364 435T321 346T288 274Q318 274 346 273T406
272Z" />
<glyph unicode="&#xc7;" glyph-name="Ccedilla" horiz-adv-x="625" d="M584 214Q584 184 571 146T531 74T459 15T353 -13L338 -94Q362 -80 379 -73T418 -65Q451 -65 473 -82T495 -128Q495 -148 485 -162T456 -186T415 -201T366 -206Q338 -206 330 -201T321 -189Q321
-180 331 -179T362 -177Q408 -177 433 -167T458 -134Q458 -120 448 -109T415 -97Q401 -97 388 -101T362 -111T340 -120T323 -125Q315 -125 311 -121T307 -113Q307 -110 308 -105T310 -96Q313 -80 317 -56T324 -14Q271 -12 220 13T130 88T66 217T41 405Q41 496 65
575T132 712T230 804T349 838Q390 838 422 825T477 791T514 747T537 702Q535 733 534 750T533 775T532 786T532 788Q532 813 551 813Q561 813 566 805T571 790Q571 755 569 713T567 634Q567 602 568 571T569 507Q569 493 566 483T550 473Q536 473 533 491T529 532Q529
587 520 637T489 724T433 784T350 807Q291 807 243 774T160 684T106 555T86 404Q86 325 102 255T150 132T230 49T344 18Q388 18 422 31T483 68T526 125T553 197Q554 203 555 211T557 226T562 238T570 243Q584 243 584 214Z" />
<glyph unicode="&#xc8;" glyph-name="Egrave" horiz-adv-x="643" d="M269 950Q269 964 274 968T288 972Q295 972 311 962T343 939T371 910T383 886Q383 875 375 875Q368 875 351 884T315 905T283 929T269 950ZM586 310Q600 310 602 300T605 277Q605 268 604 241T600
177T595 102T589 33Q587 8 577 4T547 0Q486 0 429 1T310 2Q249 2 189 2T67 0Q52 0 37 1T21 11Q21 22 30 25T60 28Q107 28 124 35T141 64Q141 99 141 125T141 175T142 222T142 273T143 338T143 425Q143 481 142 526T140 609T138 682T137 750Q137 765 130 772T111
784T87 788T64 789Q47 789 36 791T24 804Q24 815 37 818T65 821Q98 821 133 821T200 820T259 820T306 819Q343 819 366 819T412 820T462 820T533 821Q547 821 554 814T561 785V651Q561 632 558 619T544 605Q529 605 527 618T524 645V757Q524 776 511 780T487 785H184V440Q213
439 241 438T298 437Q312 437 329 437T361 438T389 439T406 440Q412 440 415 450T420 475T422 505T423 530Q423 531 423 536T425 546T430 556T440 560Q452 560 454 552T457 533Q457 504 456 477T455 420Q455 391 456 363T457 307Q457 290 452 285T442 280Q435 280
430 288T425 309Q425 322 423 338T416 369T402 392T377 402Q363 402 345 402T298 403Q269 403 241 403T184 401V36H513Q520 36 527 37T541 41T551 52T556 73Q557 86 559 111T563 166T566 223T569 273Q570 293 575 301T586 310Z" />
<glyph unicode="&#xc9;" glyph-name="Eacute" horiz-adv-x="643" d="M382 950Q382 942 368 930T336 905T301 884T276 875Q268 875 268 886Q268 895 280 910T308 938T340 962T363 972Q371 972 376 968T382 950ZM586 310Q600 310 602 300T605 277Q605 268 604 241T600
177T595 102T589 33Q587 8 577 4T547 0Q486 0 429 1T310 2Q249 2 189 2T67 0Q52 0 37 1T21 11Q21 22 30 25T60 28Q107 28 124 35T141 64Q141 99 141 125T141 175T142 222T142 273T143 338T143 425Q143 481 142 526T140 609T138 682T137 750Q137 765 130 772T111
784T87 788T64 789Q47 789 36 791T24 804Q24 815 37 818T65 821Q98 821 133 821T200 820T259 820T306 819Q343 819 366 819T412 820T462 820T533 821Q547 821 554 814T561 785V651Q561 632 558 619T544 605Q529 605 527 618T524 645V757Q524 776 511 780T487 785H184V440Q213
439 241 438T298 437Q312 437 329 437T361 438T389 439T406 440Q412 440 415 450T420 475T422 505T423 530Q423 531 423 536T425 546T430 556T440 560Q452 560 454 552T457 533Q457 504 456 477T455 420Q455 391 456 363T457 307Q457 290 452 285T442 280Q435 280
430 288T425 309Q425 322 423 338T416 369T402 392T377 402Q363 402 345 402T298 403Q269 403 241 403T184 401V36H513Q520 36 527 37T541 41T551 52T556 73Q557 86 559 111T563 166T566 223T569 273Q570 293 575 301T586 310Z" />
<glyph unicode="&#xca;" glyph-name="Ecircumflex" horiz-adv-x="643" d="M445 875Q440 875 427 880T397 893T361 910T325 928Q308 919 289 910T253 893T224 880T206 875Q198 875 198 886Q198 895 214 910T253 938T295 962T325 972Q334 972 355 962T398 939T436
910T453 886Q453 875 445 875ZM586 310Q600 310 602 300T605 277Q605 268 604 241T600 177T595 102T589 33Q587 8 577 4T547 0Q486 0 429 1T310 2Q249 2 189 2T67 0Q52 0 37 1T21 11Q21 22 30 25T60 28Q107 28 124 35T141 64Q141 99 141 125T141 175T142 222T142
273T143 338T143 425Q143 481 142 526T140 609T138 682T137 750Q137 765 130 772T111 784T87 788T64 789Q47 789 36 791T24 804Q24 815 37 818T65 821Q98 821 133 821T200 820T259 820T306 819Q343 819 366 819T412 820T462 820T533 821Q547 821 554 814T561 785V651Q561
632 558 619T544 605Q529 605 527 618T524 645V757Q524 776 511 780T487 785H184V440Q213 439 241 438T298 437Q312 437 329 437T361 438T389 439T406 440Q412 440 415 450T420 475T422 505T423 530Q423 531 423 536T425 546T430 556T440 560Q452 560 454 552T457
533Q457 504 456 477T455 420Q455 391 456 363T457 307Q457 290 452 285T442 280Q435 280 430 288T425 309Q425 322 423 338T416 369T402 392T377 402Q363 402 345 402T298 403Q269 403 241 403T184 401V36H513Q520 36 527 37T541 41T551 52T556 73Q557 86 559
111T563 166T566 223T569 273Q570 293 575 301T586 310Z" />
<glyph unicode="&#xcb;" glyph-name="Edieresis" horiz-adv-x="643" d="M186 931Q186 936 188 943T196 956T208 967T227 972Q241 972 251 962T261 935Q261 908 248 899T220 889Q206 889 196 901T186 931ZM393 917Q393 922 395 929T403 942T415 953T434 958Q448
958 458 948T468 921Q468 894 455 885T427 875Q413 875 403 887T393 917ZM586 310Q600 310 602 300T605 277Q605 268 604 241T600 177T595 102T589 33Q587 8 577 4T547 0Q486 0 429 1T310 2Q249 2 189 2T67 0Q52 0 37 1T21 11Q21 22 30 25T60 28Q107 28 124 35T141
64Q141 99 141 125T141 175T142 222T142 273T143 338T143 425Q143 481 142 526T140 609T138 682T137 750Q137 765 130 772T111 784T87 788T64 789Q47 789 36 791T24 804Q24 815 37 818T65 821Q98 821 133 821T200 820T259 820T306 819Q343 819 366 819T412 820T462
820T533 821Q547 821 554 814T561 785V651Q561 632 558 619T544 605Q529 605 527 618T524 645V757Q524 776 511 780T487 785H184V440Q213 439 241 438T298 437Q312 437 329 437T361 438T389 439T406 440Q412 440 415 450T420 475T422 505T423 530Q423 531 423 536T425
546T430 556T440 560Q452 560 454 552T457 533Q457 504 456 477T455 420Q455 391 456 363T457 307Q457 290 452 285T442 280Q435 280 430 288T425 309Q425 322 423 338T416 369T402 392T377 402Q363 402 345 402T298 403Q269 403 241 403T184 401V36H513Q520 36
527 37T541 41T551 52T556 73Q557 86 559 111T563 166T566 223T569 273Q570 293 575 301T586 310Z" />
<glyph unicode="&#xcc;" glyph-name="Igrave" horiz-adv-x="325" d="M99 949Q99 963 104 967T118 971Q125 971 141 961T173 938T201 910T213 886Q213 875 205 875Q198 875 181 883T145 904T113 928T99 949ZM183 31H279Q290 31 299 26T309 13Q309 0 289 0H77Q63
0 50 2T36 13Q36 22 46 25T65 28Q75 28 87 28T111 33T130 47T138 74Q138 156 140 234T142 401Q142 489 140 584T138 768Q138 777 130 781T109 788T82 790T58 791Q47 791 34 793T21 806Q21 817 35 819T58 821H240Q272 821 281 818T291 806Q291 795 279 793T254 791Q249
791 238 791T214 788T193 781T183 766V31Z" />
<glyph unicode="&#xcd;" glyph-name="Iacute" horiz-adv-x="325" d="M212 950Q212 942 198 930T166 905T131 884T106 875Q98 875 98 886Q98 895 110 910T138 938T170 962T193 972Q201 972 206 968T212 950ZM183 31H279Q290 31 299 26T309 13Q309 0 289 0H77Q63
0 50 2T36 13Q36 22 46 25T65 28Q75 28 87 28T111 33T130 47T138 74Q138 156 140 234T142 401Q142 489 140 584T138 768Q138 777 130 781T109 788T82 790T58 791Q47 791 34 793T21 806Q21 817 35 819T58 821H240Q272 821 281 818T291 806Q291 795 279 793T254 791Q249
791 238 791T214 788T193 781T183 766V31Z" />
<glyph unicode="&#xce;" glyph-name="Icircumflex" horiz-adv-x="325" d="M275 875Q270 875 257 880T227 893T191 910T155 928Q138 919 119 910T83 893T54 880T36 875Q28 875 28 886Q28 895 44 910T83 938T125 962T155 972Q164 972 185 962T228 939T266 910T283
886Q283 875 275 875ZM183 31H279Q290 31 299 26T309 13Q309 0 289 0H77Q63 0 50 2T36 13Q36 22 46 25T65 28Q75 28 87 28T111 33T130 47T138 74Q138 156 140 234T142 401Q142 489 140 584T138 768Q138 777 130 781T109 788T82 790T58 791Q47 791 34 793T21 806Q21
817 35 819T58 821H240Q272 821 281 818T291 806Q291 795 279 793T254 791Q249 791 238 791T214 788T193 781T183 766V31Z" />
<glyph unicode="&#xcf;" glyph-name="Idieresis" horiz-adv-x="325" d="M16 931Q16 936 18 943T26 956T38 967T57 972Q71 972 81 962T91 935Q91 908 78 899T50 889Q36 889 26 901T16 931ZM223 917Q223 922 225 929T233 942T245 953T264 958Q278 958 288 948T298
921Q298 894 285 885T257 875Q243 875 233 887T223 917ZM183 31H279Q290 31 299 26T309 13Q309 0 289 0H77Q63 0 50 2T36 13Q36 22 46 25T65 28Q75 28 87 28T111 33T130 47T138 74Q138 156 140 234T142 401Q142 489 140 584T138 768Q138 777 130 781T109 788T82
790T58 791Q47 791 34 793T21 806Q21 817 35 819T58 821H240Q272 821 281 818T291 806Q291 795 279 793T254 791Q249 791 238 791T214 788T193 781T183 766V31Z" />
<glyph unicode="&#xd0;" glyph-name="Eth" horiz-adv-x="674" d="M45 818Q95 820 142 820T251 821Q314 821 382 801T506 736T598 618T634 439Q634 349 610 269T536 130T413 35T241 0H57Q40 0 31 2T21 12Q21 19 28 23T52 28Q65 28 80 28T109 31T132 38T141 52Q141
104 141 142T141 217T142 294T142 389H47Q40 389 36 396T31 409Q31 414 35 421T47 428Q58 428 87 427T142 426V437Q142 456 141 498T139 587T136 678T135 747Q135 762 129 770T112 783T84 788T47 789Q34 789 29 794T24 805Q24 817 45 818ZM245 786Q230 786 214
785T183 782V426Q218 426 246 427T296 429Q300 429 303 423T307 412Q307 407 303 399T288 390Q271 390 243 390T183 389V44Q183 40 189 38T205 35T225 34T245 34Q335 34 400 65T507 150T569 279T589 439Q589 511 569 574T507 684T400 758T245 786Z" />
<glyph unicode="&#xd1;" glyph-name="Ntilde" horiz-adv-x="788" d="M185 738V31H281Q292 31 301 26T311 13Q311 0 291 0H79Q65 0 52 2T38 13Q38 22 48 25T67 28Q77 28 89 28T111 33T128 47T135 74Q140 146 142 226T144 388Q144 479 143 575T141 758Q141 776 122
782T78 790T35 795T15 809Q15 813 21 815T35 819T51 821T63 821H171Q183 821 190 814T211 781Q223 758 245 719T296 631T356 527T421 415T485 305T542 206T586 128T613 80V751Q613 760 605 764T584 771T557 773T533 774Q522 774 509 776T496 789Q496 800 510 802T533
804H724Q756 804 765 801T775 789Q775 778 763 776T738 774Q733 774 720 774T693 771T668 764T657 749Q656 691 656 648T655 562T654 475T653 368Q653 335 653 288T653 190T654 90T655 6Q655 -5 647 -8T634 -11Q627 -11 622 -8T610 6L185 738ZM222 903Q222 914
251 931Q282 949 319 949Q334 949 351 945T387 935T423 926T456 921Q482 921 516 938Q530 946 535 948T546 951Q551 951 555 946T559 934Q559 925 551 917T529 903T497 893T457 889Q438 889 420 892T384 900T350 909T320 913Q305 913 292 909T268 901T249 892T236
888Q231 888 227 893T222 903Z" />
<glyph unicode="&#xd2;" glyph-name="Ograve" horiz-adv-x="687" d="M297 950Q297 964 302 968T316 972Q323 972 339 962T371 939T399 910T411 886Q411 875 403 875Q396 875 379 884T343 905T311 929T297 950ZM86 400Q86 312 104 241T155 121T236 45T342 18Q397
18 444 42T526 116T580 239T600 410Q600 493 582 565T533 691T458 776T362 807Q291 807 240 771T154 676T103 545T86 400ZM41 404Q41 455 50 507T77 607T121 697T183 771T261 820T356 838Q424 838 478 804T569 710T625 573T645 408Q645 286 615 205T539 74T440
5T340 -16Q284 -16 231 8T135 84T67 214T41 404Z" />
<glyph unicode="&#xd3;" glyph-name="Oacute" horiz-adv-x="687" d="M410 950Q410 942 396 930T364 905T329 884T304 875Q296 875 296 886Q296 895 308 910T336 938T368 962T391 972Q399 972 404 968T410 950ZM86 400Q86 312 104 241T155 121T236 45T342 18Q397
18 444 42T526 116T580 239T600 410Q600 493 582 565T533 691T458 776T362 807Q291 807 240 771T154 676T103 545T86 400ZM41 404Q41 455 50 507T77 607T121 697T183 771T261 820T356 838Q424 838 478 804T569 710T625 573T645 408Q645 286 615 205T539 74T440
5T340 -16Q284 -16 231 8T135 84T67 214T41 404Z" />
<glyph unicode="&#xd4;" glyph-name="Ocircumflex" horiz-adv-x="687" d="M473 875Q468 875 455 880T425 893T389 910T353 928Q336 919 317 910T281 893T252 880T234 875Q226 875 226 886Q226 895 242 910T281 938T323 962T353 972Q362 972 383 962T426 939T464
910T481 886Q481 875 473 875ZM86 400Q86 312 104 241T155 121T236 45T342 18Q397 18 444 42T526 116T580 239T600 410Q600 493 582 565T533 691T458 776T362 807Q291 807 240 771T154 676T103 545T86 400ZM41 404Q41 455 50 507T77 607T121 697T183 771T261 820T356
838Q424 838 478 804T569 710T625 573T645 408Q645 286 615 205T539 74T440 5T340 -16Q284 -16 231 8T135 84T67 214T41 404Z" />
<glyph unicode="&#xd5;" glyph-name="Otilde" horiz-adv-x="687" d="M86 400Q86 312 104 241T155 121T236 45T342 18Q397 18 444 42T526 116T580 239T600 410Q600 493 582 565T533 691T458 776T362 807Q291 807 240 771T154 676T103 545T86 400ZM41 404Q41 455
50 507T77 607T121 697T183 771T261 820T356 838Q424 838 478 804T569 710T625 573T645 408Q645 286 615 205T539 74T440 5T340 -16Q284 -16 231 8T135 84T67 214T41 404ZM176 903Q176 914 205 931Q236 949 273 949Q288 949 305 945T341 935T377 926T410 921Q436
921 470 938Q484 946 489 948T500 951Q505 951 509 946T513 934Q513 925 505 917T483 903T451 893T411 889Q392 889 374 892T338 900T304 909T274 913Q259 913 246 909T222 901T203 892T190 888Q185 888 181 893T176 903Z" />
<glyph unicode="&#xd6;" glyph-name="Odieresis" horiz-adv-x="687" d="M214 931Q214 936 216 943T224 956T236 967T255 972Q269 972 279 962T289 935Q289 908 276 899T248 889Q234 889 224 901T214 931ZM421 917Q421 922 423 929T431 942T443 953T462 958Q476
958 486 948T496 921Q496 894 483 885T455 875Q441 875 431 887T421 917ZM86 400Q86 312 104 241T155 121T236 45T342 18Q397 18 444 42T526 116T580 239T600 410Q600 493 582 565T533 691T458 776T362 807Q291 807 240 771T154 676T103 545T86 400ZM41 404Q41
455 50 507T77 607T121 697T183 771T261 820T356 838Q424 838 478 804T569 710T625 573T645 408Q645 286 615 205T539 74T440 5T340 -16Q284 -16 231 8T135 84T67 214T41 404Z" />
<glyph unicode="&#xd7;" glyph-name="multiply" horiz-adv-x="372" d="M316 281Q316 273 312 268T299 263Q286 263 270 276T239 307T210 344T188 376Q180 370 166 351T135 313T102 278T74 262Q61 262 61 277Q61 286 70 295T87 315Q112 346 124 360T142 381T151
392T164 408Q132 450 112 475T80 514T64 534T59 544Q59 550 65 555T77 561Q89 561 96 556T119 530Q123 525 139 504T188 440L237 509Q257 537 269 549T292 562Q297 562 302 558T307 545Q307 537 301 530Q277 501 255 470T211 409Q227 382 245 362T279 327T305 300T316
281Z" />
<glyph unicode="&#xd8;" glyph-name="Oslash" horiz-adv-x="687" d="M145 71Q98 122 70 204T41 404Q41 455 50 507T77 607T121 697T183 771T261 820T356 838Q403 838 442 821T515 774Q516 777 519 784T529 800T542 815T559 821Q568 821 571 817T574 807Q574 799
569 788T560 768L546 741Q594 681 619 595T645 408Q645 286 615 205T539 74T440 5T340 -16Q296 -16 254 -2T175 43L155 5Q148 -9 143 -14T126 -19Q112 -19 112 -7Q112 -1 113 6T117 18L145 71ZM86 400Q86 306 106 233T164 108Q195 167 211 198T237 246T252 273T266
298T290 341T335 423Q364 476 383 511T414 570T435 612T452 646T471 685T498 739Q469 771 435 789T362 807Q291 807 240 771T154 676T103 545T86 400ZM600 410Q600 498 580 573T525 703L193 76Q256 18 342 18Q397 18 444 42T526 116T580 239T600 410Z" />
<glyph unicode="&#xd9;" glyph-name="Ugrave" horiz-adv-x="755" d="M170 323Q170 263 173 208T196 111T255 44T368 18Q431 18 474 40T543 98T582 179T594 272V714Q594 723 585 727T562 734T533 736T508 737Q497 737 484 739T471 752Q471 763 485 765T508 767H690Q722
767 731 764T741 752Q741 741 729 739T704 737Q699 737 688 737T664 734T643 727T634 712Q634 656 633 602T632 492Q632 437 633 382T634 272Q634 198 615 144T560 55T475 3T367 -14Q327 -14 292 -6T228 20T179 63T150 125Q137 176 134 227T130 334Q130 366 130
399T131 467Q131 542 130 617T129 768Q129 777 121 781T100 788T73 790T49 791Q38 791 25 793T12 806Q12 817 26 819T49 821H231Q263 821 272 818T282 806Q282 795 270 793T245 791Q240 791 228 791T203 788T180 781T170 766V323ZM325 950Q325 964 330 968T344
972Q351 972 367 957T399 922T427 882T439 853Q439 842 431 842Q424 842 407 856T371 888T339 924T325 950Z" />
<glyph unicode="&#xda;" glyph-name="Uacute" horiz-adv-x="755" d="M438 950Q438 942 424 930T392 905T357 884T332 875Q324 875 324 886Q324 895 336 910T364 938T396 962T419 972Q427 972 432 968T438 950ZM170 323Q170 263 173 208T196 111T255 44T368 18Q431
18 474 40T543 98T582 179T594 272V714Q594 723 585 727T562 734T533 736T508 737Q497 737 484 739T471 752Q471 763 485 765T508 767H690Q722 767 731 764T741 752Q741 741 729 739T704 737Q699 737 688 737T664 734T643 727T634 712Q634 656 633 602T632 492Q632
437 633 382T634 272Q634 198 615 144T560 55T475 3T367 -14Q327 -14 292 -6T228 20T179 63T150 125Q137 176 134 227T130 334Q130 366 130 399T131 467Q131 542 130 617T129 768Q129 777 121 781T100 788T73 790T49 791Q38 791 25 793T12 806Q12 817 26 819T49
821H231Q263 821 272 818T282 806Q282 795 270 793T245 791Q240 791 228 791T203 788T180 781T170 766V323Z" />
<glyph unicode="&#xdb;" glyph-name="Ucircumflex" horiz-adv-x="755" d="M501 875Q496 875 483 880T453 893T417 910T381 928Q364 919 345 910T309 893T280 880T262 875Q254 875 254 886Q254 895 270 910T309 938T351 962T381 972Q390 972 411 962T454 939T492
910T509 886Q509 875 501 875ZM170 323Q170 263 173 208T196 111T255 44T368 18Q431 18 474 40T543 98T582 179T594 272V714Q594 723 585 727T562 734T533 736T508 737Q497 737 484 739T471 752Q471 763 485 765T508 767H690Q722 767 731 764T741 752Q741 741 729
739T704 737Q699 737 688 737T664 734T643 727T634 712Q634 656 633 602T632 492Q632 437 633 382T634 272Q634 198 615 144T560 55T475 3T367 -14Q327 -14 292 -6T228 20T179 63T150 125Q137 176 134 227T130 334Q130 366 130 399T131 467Q131 542 130 617T129
768Q129 777 121 781T100 788T73 790T49 791Q38 791 25 793T12 806Q12 817 26 819T49 821H231Q263 821 272 818T282 806Q282 795 270 793T245 791Q240 791 228 791T203 788T180 781T170 766V323Z" />
<glyph unicode="&#xdc;" glyph-name="Udieresis" horiz-adv-x="755" d="M242 931Q242 936 244 943T252 956T264 967T283 972Q297 972 307 962T317 935Q317 908 304 899T276 889Q262 889 252 901T242 931ZM449 917Q449 922 451 929T459 942T471 953T490 958Q504
958 514 948T524 921Q524 894 511 885T483 875Q469 875 459 887T449 917ZM170 323Q170 263 173 208T196 111T255 44T368 18Q431 18 474 40T543 98T582 179T594 272V714Q594 723 585 727T562 734T533 736T508 737Q497 737 484 739T471 752Q471 763 485 765T508 767H690Q722
767 731 764T741 752Q741 741 729 739T704 737Q699 737 688 737T664 734T643 727T634 712Q634 656 633 602T632 492Q632 437 633 382T634 272Q634 198 615 144T560 55T475 3T367 -14Q327 -14 292 -6T228 20T179 63T150 125Q137 176 134 227T130 334Q130 366 130
399T131 467Q131 542 130 617T129 768Q129 777 121 781T100 788T73 790T49 791Q38 791 25 793T12 806Q12 817 26 819T49 821H231Q263 821 272 818T282 806Q282 795 270 793T245 791Q240 791 228 791T203 788T180 781T170 766V323Z" />
<glyph unicode="&#xdd;" glyph-name="Yacute" horiz-adv-x="648" d="M385 949Q385 941 371 929T339 904T304 884T279 875Q271 875 271 886Q271 895 283 909T311 937T343 961T366 971Q374 971 379 967T385 949ZM158 763Q158 757 169 732T196 672T233 594T272 513T306
443T327 395Q333 410 348 438T381 501T419 573T455 642T482 699T493 732Q493 739 486 742T469 746T446 748T422 748Q412 748 400 749T388 762Q388 767 395 772T422 777H667Q676 777 683 774T690 763Q690 752 670 752Q659 752 645 751T618 749T594 747T579 746Q557
744 548 735T530 708Q508 667 482 616T429 514T379 416T341 334Q341 282 342 228Q343 182 343 129T344 31H440Q451 31 460 26T470 13Q470 0 450 0H241Q227 0 214 2T200 13Q200 22 210 25T229 28Q239 28 251 28T275 33T294 47T302 74V355Q269 428 248 476T208 566T166
649T109 755Q98 774 76 780T6 787Q-8 787 -19 788T-30 799Q-30 813 5 813H223Q241 813 247 810T254 799Q254 790 239 788T206 784T173 779T158 763Z" />
<glyph unicode="&#xde;" glyph-name="Thorn" horiz-adv-x="609" d="M63 28Q92 28 107 33T130 45T139 59T140 72Q140 112 140 140T140 190T140 232T141 274T141 325T141 395Q141 443 140 494T138 594T136 683T135 750Q135 766 127 778T86 790H52Q35 790 30 795T24
805Q24 810 29 814T52 819Q69 819 97 819T156 820T212 820T250 821Q254 821 260 821T273 820T285 815T290 806Q290 795 276 793T248 791Q239 791 228 791T206 787T189 778T182 760V648Q206 649 233 649T297 649Q358 649 411 637T503 598T565 528T588 423Q588 355
556 309T475 235T365 194T249 182Q240 182 229 182T207 183Q195 183 183 184V31H280Q323 31 323 13Q323 3 313 2T278 0H82Q74 0 64 0T44 1T28 5T21 12Q21 17 27 22T63 28ZM255 615Q236 615 218 613T183 608V218Q192 217 203 217Q212 216 223 216T248 216Q265 216
293 218T355 227T421 247T482 283T526 339T543 420Q543 467 528 500T489 554T434 588T371 606T309 613T255 615Z" />
<glyph unicode="&#xdf;" glyph-name="germandbls" horiz-adv-x="581" d="M392 700Q392 717 386 734T369 766T340 790T301 799Q261 799 234 783T190 741T163 681T149 612T144 544T143 484V30Q143 13 135 8T117 3Q106 3 93 3T66 2T42 1T25 0Q11 0 1 1T-9 11Q-9 19
1 21T23 24Q63 27 79 30T97 45Q98 68 99 96T101 154T102 211T102 263Q102 295 102 322T101 375T101 429T100 491Q100 518 102 553T110 625T130 698T164 762T218 807T296 825Q333 825 359 811T402 776T425 734T433 698Q433 653 411 617T361 549T311 489T288 432Q288
408 298 388T324 350T362 319T406 292Q430 279 458 261T510 221T550 172T566 114Q566 81 548 59T504 24T450 6T403 0Q386 0 368 3T332 13T300 28T278 50Q277 18 272 6T258 -7Q246 -7 246 16Q246 26 247 39T249 67Q249 86 247 106T244 148Q244 162 246 168T257 175Q265
175 268 168T275 141Q278 125 280 113T289 88Q305 56 336 43T406 30Q457 30 490 48T523 102Q523 128 513 148T485 187T440 221T380 257Q367 264 344 278T299 314T261 364T245 429Q245 454 256 475T283 515T318 554T354 595T381 642T392 700Z" />
<glyph unicode="&#xe0;" glyph-name="agrave" horiz-adv-x="455" d="M333 219Q333 232 333 244T334 264Q334 342 306 384T212 427Q190 427 169 423T132 409T105 387T95 358Q95 346 101 343T115 338Q123 336 131 332T140 311Q140 296 131 286T104 276Q81 276 69
294T56 339Q56 366 68 387T102 424T154 448T220 457Q299 457 336 412T374 268Q374 256 374 238T373 199T372 159T371 122Q371 91 373 71T380 40T394 24T415 19Q429 19 437 23T449 36T455 54T458 76Q459 88 468 88Q476 88 478 82T481 65Q481 22 462 6T414 -11Q387
-11 366 2T335 48Q303 19 265 4T179 -11Q109 -11 68 21T26 106Q26 133 38 156T72 197T125 223T194 233Q232 233 267 222T333 187V219ZM67 106Q67 66 99 43T184 19Q214 19 241 27T288 48T321 79T333 117Q333 135 323 151T294 178T252 196T199 203Q171 203 147 196T105
177T77 146T67 106ZM157 618Q157 632 162 636T176 640Q183 640 199 625T231 590T259 550T271 521Q271 510 263 510Q256 510 239 524T203 556T171 592T157 618Z" />
<glyph unicode="&#xe1;" glyph-name="aacute" horiz-adv-x="455" d="M333 219Q333 232 333 244T334 264Q334 342 306 384T212 427Q190 427 169 423T132 409T105 387T95 358Q95 346 101 343T115 338Q123 336 131 332T140 311Q140 296 131 286T104 276Q81 276 69
294T56 339Q56 366 68 387T102 424T154 448T220 457Q299 457 336 412T374 268Q374 256 374 238T373 199T372 159T371 122Q371 91 373 71T380 40T394 24T415 19Q429 19 437 23T449 36T455 54T458 76Q459 88 468 88Q476 88 478 82T481 65Q481 22 462 6T414 -11Q387
-11 366 2T335 48Q303 19 265 4T179 -11Q109 -11 68 21T26 106Q26 133 38 156T72 197T125 223T194 233Q232 233 267 222T333 187V219ZM67 106Q67 66 99 43T184 19Q214 19 241 27T288 48T321 79T333 117Q333 135 323 151T294 178T252 196T199 203Q171 203 147 196T105
177T77 146T67 106ZM270 618Q270 610 256 592T224 556T189 524T164 510Q156 510 156 521Q156 530 168 550T196 590T228 625T251 640Q259 640 264 636T270 618Z" />
<glyph unicode="&#xe2;" glyph-name="acircumflex" horiz-adv-x="455" d="M333 219Q333 232 333 244T334 264Q334 342 306 384T212 427Q190 427 169 423T132 409T105 387T95 358Q95 346 101 343T115 338Q123 336 131 332T140 311Q140 296 131 286T104 276Q81 276
69 294T56 339Q56 366 68 387T102 424T154 448T220 457Q299 457 336 412T374 268Q374 256 374 238T373 199T372 159T371 122Q371 91 373 71T380 40T394 24T415 19Q429 19 437 23T449 36T455 54T458 76Q459 88 468 88Q476 88 478 82T481 65Q481 22 462 6T414 -11Q387
-11 366 2T335 48Q303 19 265 4T179 -11Q109 -11 68 21T26 106Q26 133 38 156T72 197T125 223T194 233Q232 233 267 222T333 187V219ZM67 106Q67 66 99 43T184 19Q214 19 241 27T288 48T321 79T333 117Q333 135 323 151T294 178T252 196T199 203Q171 203 147 196T105
177T77 146T67 106ZM333 510Q328 510 315 519T285 541T249 569T213 596Q196 584 177 569T142 541T112 519T94 510Q86 510 86 521Q86 530 102 550T141 590T183 625T213 640Q222 640 243 625T286 590T324 550T341 521Q341 510 333 510Z" />
<glyph unicode="&#xe3;" glyph-name="atilde" horiz-adv-x="455" d="M333 219Q333 232 333 244T334 264Q334 342 306 384T212 427Q190 427 169 423T132 409T105 387T95 358Q95 346 101 343T115 338Q123 336 131 332T140 311Q140 296 131 286T104 276Q81 276 69
294T56 339Q56 366 68 387T102 424T154 448T220 457Q299 457 336 412T374 268Q374 256 374 238T373 199T372 159T371 122Q371 91 373 71T380 40T394 24T415 19Q429 19 437 23T449 36T455 54T458 76Q459 88 468 88Q476 88 478 82T481 65Q481 22 462 6T414 -11Q387
-11 366 2T335 48Q303 19 265 4T179 -11Q109 -11 68 21T26 106Q26 133 38 156T72 197T125 223T194 233Q232 233 267 222T333 187V219ZM67 106Q67 66 99 43T184 19Q214 19 241 27T288 48T321 79T333 117Q333 135 323 151T294 178T252 196T199 203Q171 203 147 196T105
177T77 146T67 106ZM58 537Q58 548 87 565Q118 583 155 583Q170 583 187 579T223 569T259 560T292 555Q318 555 352 572Q366 580 371 582T382 585Q387 585 391 580T395 568Q395 559 387 551T365 537T333 527T293 523Q274 523 256 526T220 534T186 543T156 547Q141
547 128 543T104 535T85 526T72 522Q67 522 63 527T58 537Z" />
<glyph unicode="&#xe4;" glyph-name="adieresis" horiz-adv-x="455" d="M333 219Q333 232 333 244T334 264Q334 342 306 384T212 427Q190 427 169 423T132 409T105 387T95 358Q95 346 101 343T115 338Q123 336 131 332T140 311Q140 296 131 286T104 276Q81 276
69 294T56 339Q56 366 68 387T102 424T154 448T220 457Q299 457 336 412T374 268Q374 256 374 238T373 199T372 159T371 122Q371 91 373 71T380 40T394 24T415 19Q429 19 437 23T449 36T455 54T458 76Q459 88 468 88Q476 88 478 82T481 65Q481 22 462 6T414 -11Q387
-11 366 2T335 48Q303 19 265 4T179 -11Q109 -11 68 21T26 106Q26 133 38 156T72 197T125 223T194 233Q232 233 267 222T333 187V219ZM67 106Q67 66 99 43T184 19Q214 19 241 27T288 48T321 79T333 117Q333 135 323 151T294 178T252 196T199 203Q171 203 147 196T105
177T77 146T67 106ZM74 575Q74 580 76 587T84 600T96 611T115 616Q129 616 139 606T149 579Q149 552 136 543T108 533Q94 533 84 545T74 575ZM281 552Q281 557 283 564T291 577T303 588T322 593Q336 593 346 583T356 556Q356 529 343 520T315 510Q301 510 291 522T281
552Z" />
<glyph unicode="&#xe5;" glyph-name="aring" horiz-adv-x="455" d="M333 219Q333 232 333 244T334 264Q334 342 306 384T212 427Q190 427 169 423T132 409T105 387T95 358Q95 346 101 343T115 338Q123 336 131 332T140 311Q140 296 131 286T104 276Q81 276 69
294T56 339Q56 366 68 387T102 424T154 448T220 457Q299 457 336 412T374 268Q374 256 374 238T373 199T372 159T371 122Q371 91 373 71T380 40T394 24T415 19Q429 19 437 23T449 36T455 54T458 76Q459 88 468 88Q476 88 478 82T481 65Q481 22 462 6T414 -11Q387
-11 366 2T335 48Q303 19 265 4T179 -11Q109 -11 68 21T26 106Q26 133 38 156T72 197T125 223T194 233Q232 233 267 222T333 187V219ZM67 106Q67 66 99 43T184 19Q214 19 241 27T288 48T321 79T333 117Q333 135 323 151T294 178T252 196T199 203Q171 203 147 196T105
177T77 146T67 106ZM279 581Q279 545 258 528T214 510Q188 510 170 529T152 579Q152 609 170 629T218 649Q248 649 263 629T279 581ZM216 629Q197 629 190 615T182 579Q182 557 189 543T214 529Q231 529 240 543T249 580Q249 599 243 614T216 629Z" />
<glyph unicode="&#xe6;" glyph-name="ae" horiz-adv-x="767" d="M380 259Q379 248 379 238T378 218Q378 182 386 147T414 84T465 39T542 21Q583 21 614 35T665 72T696 125T707 187Q707 205 724 205Q741 205 741 187Q741 148 726 112T685 49T622 5T544 -11Q481
-11 438 14T368 82Q321 26 272 8T179 -11Q109 -11 68 21T26 106Q26 133 38 156T72 197T125 223T194 233Q232 233 267 222T333 187Q333 205 333 216T333 236T334 250T334 264Q334 342 306 384T212 427Q190 427 169 423T132 409T105 387T95 358Q95 346 101 343T115
338Q123 336 131 332T140 311Q140 296 131 286T104 276Q81 276 69 294T56 339Q56 366 68 387T102 424T154 448T220 457Q277 457 312 433T363 358Q391 414 439 445T547 477Q595 477 629 458T684 411T716 354T727 304Q727 288 719 275T692 261Q666 260 629 260T551
260Q539 260 516 260T468 260T418 259T380 259ZM67 106Q67 66 99 43T184 19Q214 19 241 27T288 48T321 79T333 117Q333 135 323 151T294 178T252 196T199 203Q171 203 147 196T105 177T77 146T67 106ZM667 293Q684 293 684 311Q684 331 676 354T651 398T608 431T544
445Q506 445 479 431T432 395T401 345T384 289L667 293Z" />
<glyph unicode="&#xe7;" glyph-name="ccedilla" horiz-adv-x="465" d="M386 428Q385 439 385 454T384 483Q384 494 388 502T401 511Q409 511 413 503T418 484Q418 470 418 448T417 401T417 355T417 320Q417 312 413 305T401 298Q393 298 389 302T384 319Q384 380
357 416T263 452Q223 452 190 436T132 389T94 318T80 227Q80 134 125 80T253 26Q302 26 339 51T407 128Q417 143 428 143Q433 143 437 139T441 128Q441 118 431 101Q371 -3 252 -6L241 -69Q265 -55 282 -48T321 -40Q354 -40 376 -57T398 -103Q398 -123 388 -137T359
-161T318 -176T269 -181Q241 -181 233 -176T224 -164Q224 -155 234 -154T265 -152Q311 -152 336 -142T361 -109Q361 -95 351 -84T318 -72Q304 -72 291 -76T265 -86T243 -95T226 -100Q218 -100 214 -96T210 -88Q210 -85 211 -80T213 -71Q216 -54 218 -36T223 -5Q180
-1 145 19T85 69T47 140T33 225Q33 279 50 326T99 407T173 462T266 482Q304 482 334 472T386 428Z" />
<glyph unicode="&#xe8;" glyph-name="egrave" horiz-adv-x="468" d="M368 293Q385 293 385 311Q385 331 377 354T352 398T309 431T245 445Q207 445 180 431T133 395T102 345T85 289L368 293ZM81 259Q80 248 80 238T79 218Q79 182 87 147T115 84T166 39T243 21Q284
21 315 35T366 72T397 125T408 187Q408 205 425 205Q442 205 442 187Q442 148 427 112T386 49T323 5T245 -11Q192 -11 153 7T87 57T48 132T34 226Q34 281 50 327T96 407T164 458T248 477Q296 477 330 458T385 411T417 354T428 304Q428 288 420 275T393 261Q367
260 330 260T252 260Q240 260 217 260T169 260T119 259T81 259ZM188 618Q188 632 193 636T207 640Q214 640 230 625T262 590T290 550T302 521Q302 510 294 510Q287 510 270 524T234 556T202 592T188 618Z" />
<glyph unicode="&#xe9;" glyph-name="eacute" horiz-adv-x="468" d="M368 293Q385 293 385 311Q385 331 377 354T352 398T309 431T245 445Q207 445 180 431T133 395T102 345T85 289L368 293ZM81 259Q80 248 80 238T79 218Q79 182 87 147T115 84T166 39T243 21Q284
21 315 35T366 72T397 125T408 187Q408 205 425 205Q442 205 442 187Q442 148 427 112T386 49T323 5T245 -11Q192 -11 153 7T87 57T48 132T34 226Q34 281 50 327T96 407T164 458T248 477Q296 477 330 458T385 411T417 354T428 304Q428 288 420 275T393 261Q367
260 330 260T252 260Q240 260 217 260T169 260T119 259T81 259ZM301 618Q301 610 287 592T255 556T220 524T195 510Q187 510 187 521Q187 530 199 550T227 590T259 625T282 640Q290 640 295 636T301 618Z" />
<glyph unicode="&#xea;" glyph-name="ecircumflex" horiz-adv-x="468" d="M368 293Q385 293 385 311Q385 331 377 354T352 398T309 431T245 445Q207 445 180 431T133 395T102 345T85 289L368 293ZM81 259Q80 248 80 238T79 218Q79 182 87 147T115 84T166 39T243
21Q284 21 315 35T366 72T397 125T408 187Q408 205 425 205Q442 205 442 187Q442 148 427 112T386 49T323 5T245 -11Q192 -11 153 7T87 57T48 132T34 226Q34 281 50 327T96 407T164 458T248 477Q296 477 330 458T385 411T417 354T428 304Q428 288 420 275T393 261Q367
260 330 260T252 260Q240 260 217 260T169 260T119 259T81 259ZM364 510Q359 510 346 519T316 541T280 569T244 596Q227 584 208 569T173 541T143 519T125 510Q117 510 117 521Q117 530 133 550T172 590T214 625T244 640Q253 640 274 625T317 590T355 550T372 521Q372
510 364 510Z" />
<glyph unicode="&#xeb;" glyph-name="edieresis" horiz-adv-x="468" d="M368 293Q385 293 385 311Q385 331 377 354T352 398T309 431T245 445Q207 445 180 431T133 395T102 345T85 289L368 293ZM81 259Q80 248 80 238T79 218Q79 182 87 147T115 84T166 39T243
21Q284 21 315 35T366 72T397 125T408 187Q408 205 425 205Q442 205 442 187Q442 148 427 112T386 49T323 5T245 -11Q192 -11 153 7T87 57T48 132T34 226Q34 281 50 327T96 407T164 458T248 477Q296 477 330 458T385 411T417 354T428 304Q428 288 420 275T393 261Q367
260 330 260T252 260Q240 260 217 260T169 260T119 259T81 259ZM105 575Q105 580 107 587T115 600T127 611T146 616Q160 616 170 606T180 579Q180 552 167 543T139 533Q125 533 115 545T105 575ZM312 552Q312 557 314 564T322 577T334 588T353 593Q367 593 377
583T387 556Q387 529 374 520T346 510Q332 510 322 522T312 552Z" />
<glyph unicode="&#xec;" glyph-name="igrave" horiz-adv-x="272" d="M172 28H234Q256 28 269 25T282 13Q282 4 273 2T252 0H93Q69 0 47 1T24 12Q24 22 88 26Q110 28 118 32T128 47Q131 85 131 131T132 213Q132 259 131 301T128 389Q127 397 124 401T113 406Q108
406 96 405T71 404T46 402T30 401Q22 401 12 402T2 412Q2 421 16 425T65 431Q87 433 114 434T154 436Q166 436 169 427T172 401V28ZM92 618Q92 632 97 636T111 640Q118 640 134 625T166 590T194 550T206 521Q206 510 198 510Q191 510 174 524T138 556T106 592T92
618Z" />
<glyph unicode="&#xed;" glyph-name="iacute" horiz-adv-x="272" d="M172 28H234Q256 28 269 25T282 13Q282 4 273 2T252 0H93Q69 0 47 1T24 12Q24 22 88 26Q110 28 118 32T128 47Q131 85 131 131T132 213Q132 259 131 301T128 389Q127 397 124 401T113 406Q108
406 96 405T71 404T46 402T30 401Q22 401 12 402T2 412Q2 421 16 425T65 431Q87 433 114 434T154 436Q166 436 169 427T172 401V28ZM205 618Q205 610 191 592T159 556T124 524T99 510Q91 510 91 521Q91 530 103 550T131 590T163 625T186 640Q194 640 199 636T205
618Z" />
<glyph unicode="&#xee;" glyph-name="icircumflex" horiz-adv-x="272" d="M172 28H234Q256 28 269 25T282 13Q282 4 273 2T252 0H93Q69 0 47 1T24 12Q24 22 88 26Q110 28 118 32T128 47Q131 85 131 131T132 213Q132 259 131 301T128 389Q127 397 124 401T113 406Q108
406 96 405T71 404T46 402T30 401Q22 401 12 402T2 412Q2 421 16 425T65 431Q87 433 114 434T154 436Q166 436 169 427T172 401V28ZM238 510Q233 510 220 519T190 541T154 569T118 596Q101 584 82 569T47 541T17 519T-1 510Q-9 510 -9 521Q-9 530 7 550T46 590T88
625T118 640Q127 640 148 625T191 590T229 550T246 521Q246 510 238 510Z" />
<glyph unicode="&#xef;" glyph-name="idieresis" horiz-adv-x="272" d="M172 28H234Q256 28 269 25T282 13Q282 4 273 2T252 0H93Q69 0 47 1T24 12Q24 22 88 26Q110 28 118 32T128 47Q131 85 131 131T132 213Q132 259 131 301T128 389Q127 397 124 401T113 406Q108
406 96 405T71 404T46 402T30 401Q22 401 12 402T2 412Q2 421 16 425T65 431Q87 433 114 434T154 436Q166 436 169 427T172 401V28ZM9 575Q9 580 11 587T19 600T31 611T50 616Q64 616 74 606T84 579Q84 552 71 543T43 533Q29 533 19 545T9 575ZM216 552Q216 557
218 564T226 577T238 588T257 593Q271 593 281 583T291 556Q291 529 278 520T250 510Q236 510 226 522T216 552Z" />
<glyph unicode="&#xf0;" glyph-name="eth" horiz-adv-x="537" d="M434 732Q437 732 445 729T453 715Q453 712 451 705T441 694Q428 687 409 676T366 651Q374 637 383 623T400 594Q419 558 437 514T469 421T491 321T500 220Q500 185 490 144T453 66T384 6T274 -19Q211
-19 166 4T91 63T47 143T33 230Q33 284 51 328T99 402T168 449T252 466Q277 466 306 459T363 435T417 388T462 314Q449 393 415 476T333 631Q300 612 274 598T242 584Q236 584 229 587T222 600Q222 605 224 609T234 619L313 660Q284 698 253 730T190 783Q179 791
173 797T167 814Q167 825 175 827T187 830Q201 830 215 819Q243 796 277 763T346 680Q376 699 402 715T434 732ZM268 12Q321 12 357 31T415 79T446 139T456 196Q456 229 445 270T408 348T343 410T246 435Q203 435 172 420T119 377T88 314T78 235Q78 176 95 134T141
65T202 25T268 12Z" />
<glyph unicode="&#xf1;" glyph-name="ntilde" horiz-adv-x="571" d="M488 -1H542Q557 -1 572 -4T588 -18Q588 -24 583 -26T571 -29Q568 -29 553 -29T517 -29T472 -30T427 -30T391 -31T373 -31Q349 -31 349 -19Q349 -6 372 -4Q393 -2 406 0T428 5T440 14T444 30Q446
75 447 119T448 196Q448 235 446 275T432 349T399 404T336 425Q295 425 257 401T195 329Q178 292 175 258T172 186V44H239Q253 44 263 41T273 29Q273 15 239 15Q236 15 223 15T192 15T152 15T111 14T78 14T61 14Q44 14 37 16T30 24Q30 31 37 35T57 41L102 44Q117
45 123 54T130 95Q131 142 132 179T133 252T134 322T135 398Q135 408 132 414T120 420H51Q33 420 15 422T-4 431Q-4 438 14 442T58 448T109 450T150 451Q162 451 167 447T174 425L177 357Q200 403 242 429T336 455Q362 455 389 446T438 415T474 356T488 260V-1ZM137
537Q137 548 166 565Q197 583 234 583Q249 583 266 579T302 569T338 560T371 555Q397 555 431 572Q445 580 450 582T461 585Q466 585 470 580T474 568Q474 559 466 551T444 537T412 527T372 523Q353 523 335 526T299 534T265 543T235 547Q220 547 207 543T183 535T164
526T151 522Q146 522 142 527T137 537Z" />
<glyph unicode="&#xf2;" glyph-name="ograve" horiz-adv-x="508" d="M474 236Q474 174 454 128T401 51T328 5T248 -11Q204 -11 165 6T97 56T51 132T33 230Q33 282 50 326T98 403T171 453T264 472Q316 472 355 453T421 402T460 327T474 236ZM259 442Q223 442 191
428T133 387T93 321T78 231Q78 178 94 138T135 72T191 33T250 20Q278 20 310 32T369 71T413 138T431 235Q431 280 419 318T384 383T329 426T259 442ZM204 618Q204 632 209 636T223 640Q230 640 246 625T278 590T306 550T318 521Q318 510 310 510Q303 510 286 524T250
556T218 592T204 618Z" />
<glyph unicode="&#xf3;" glyph-name="oacute" horiz-adv-x="508" d="M474 236Q474 174 454 128T401 51T328 5T248 -11Q204 -11 165 6T97 56T51 132T33 230Q33 282 50 326T98 403T171 453T264 472Q316 472 355 453T421 402T460 327T474 236ZM259 442Q223 442 191
428T133 387T93 321T78 231Q78 178 94 138T135 72T191 33T250 20Q278 20 310 32T369 71T413 138T431 235Q431 280 419 318T384 383T329 426T259 442ZM317 618Q317 610 303 592T271 556T236 524T211 510Q203 510 203 521Q203 530 215 550T243 590T275 625T298 640Q306
640 311 636T317 618Z" />
<glyph unicode="&#xf4;" glyph-name="ocircumflex" horiz-adv-x="508" d="M474 236Q474 174 454 128T401 51T328 5T248 -11Q204 -11 165 6T97 56T51 132T33 230Q33 282 50 326T98 403T171 453T264 472Q316 472 355 453T421 402T460 327T474 236ZM259 442Q223 442
191 428T133 387T93 321T78 231Q78 178 94 138T135 72T191 33T250 20Q278 20 310 32T369 71T413 138T431 235Q431 280 419 318T384 383T329 426T259 442ZM380 510Q375 510 362 519T332 541T296 569T260 596Q243 584 224 569T189 541T159 519T141 510Q133 510 133
521Q133 530 149 550T188 590T230 625T260 640Q269 640 290 625T333 590T371 550T388 521Q388 510 380 510Z" />
<glyph unicode="&#xf5;" glyph-name="otilde" horiz-adv-x="508" d="M474 236Q474 174 454 128T401 51T328 5T248 -11Q204 -11 165 6T97 56T51 132T33 230Q33 282 50 326T98 403T171 453T264 472Q316 472 355 453T421 402T460 327T474 236ZM259 442Q223 442 191
428T133 387T93 321T78 231Q78 178 94 138T135 72T191 33T250 20Q278 20 310 32T369 71T413 138T431 235Q431 280 419 318T384 383T329 426T259 442ZM89 537Q89 548 118 565Q149 583 186 583Q201 583 218 579T254 569T290 560T323 555Q349 555 383 572Q397 580
402 582T413 585Q418 585 422 580T426 568Q426 559 418 551T396 537T364 527T324 523Q305 523 287 526T251 534T217 543T187 547Q172 547 159 543T135 535T116 526T103 522Q98 522 94 527T89 537Z" />
<glyph unicode="&#xf6;" glyph-name="odieresis" horiz-adv-x="508" d="M474 236Q474 174 454 128T401 51T328 5T248 -11Q204 -11 165 6T97 56T51 132T33 230Q33 282 50 326T98 403T171 453T264 472Q316 472 355 453T421 402T460 327T474 236ZM259 442Q223 442
191 428T133 387T93 321T78 231Q78 178 94 138T135 72T191 33T250 20Q278 20 310 32T369 71T413 138T431 235Q431 280 419 318T384 383T329 426T259 442ZM121 575Q121 580 123 587T131 600T143 611T162 616Q176 616 186 606T196 579Q196 552 183 543T155 533Q141
533 131 545T121 575ZM328 552Q328 557 330 564T338 577T350 588T369 593Q383 593 393 583T403 556Q403 529 390 520T362 510Q348 510 338 522T328 552Z" />
<glyph unicode="&#xf7;" glyph-name="divide" horiz-adv-x="389" d="M155 257Q155 270 165 283T199 297Q222 297 232 285T242 259Q242 244 231 232T197 219Q174 219 165 231T155 257ZM155 559Q155 572 165 585T199 599Q222 599 232 587T242 561Q242 546 231 534T197
521Q174 521 165 533T155 559ZM334 430Q338 430 341 425T345 415Q345 410 341 403T326 396Q304 396 267 396T189 394T114 392T61 391Q54 391 50 397T45 408Q45 413 49 419T61 425H202Q244 425 277 427T334 430Z" />
<glyph unicode="&#xf8;" glyph-name="oslash" horiz-adv-x="508" d="M474 236Q474 174 454 128T401 51T328 5T248 -11Q204 -11 163 8L140 -35Q133 -49 128 -54T111 -59Q97 -59 97 -47Q97 -41 98 -34T102 -22Q109 -9 115 3T128 28Q85 60 59 111T33 230Q33 282 50
326T98 403T171 453T264 472Q313 472 354 453L363 470Q364 473 367 480T377 496T390 510T407 517Q416 517 419 513T422 503Q422 495 417 484T408 464L390 431Q432 399 453 348T474 236ZM259 442Q223 442 191 428T133 387T93 321T78 231Q78 171 97 129T146 61Q193
148 240 235T338 421Q321 431 301 436T259 442ZM431 235Q431 286 416 327T372 396L179 38Q215 20 250 20Q278 20 310 32T369 71T413 138T431 235Z" />
<glyph unicode="&#xf9;" glyph-name="ugrave" horiz-adv-x="565" d="M424 359Q424 386 419 393T397 400H331Q297 400 297 411Q297 418 311 422T346 429T388 431T422 432Q435 432 443 431T456 426T463 411T465 383Q465 372 465 357T464 316T463 252T462 156Q462
90 462 63T463 30Q463 20 468 15T491 9Q497 9 512 9T551 10Q560 10 569 8T578 -1Q578 -9 563 -13T527 -19T482 -21T442 -22Q431 -22 427 0T422 81Q415 65 402 47T370 14T323 -10T261 -20Q214 -20 183 -3T133 44T105 110T97 187V402Q97 425 93 432T65 440H-2Q-11
440 -15 444T-19 452Q-19 459 -3 463T35 469T77 471T107 472Q128 472 134 465T141 427Q141 414 141 392T139 344T138 292T137 243Q137 207 139 166T152 91T188 33T258 10Q291 10 320 22T372 57T407 108T421 172L424 359ZM213 618Q213 632 218 636T232 640Q239 640
255 625T287 590T315 550T327 521Q327 510 319 510Q312 510 295 524T259 556T227 592T213 618Z" />
<glyph unicode="&#xfa;" glyph-name="uacute" horiz-adv-x="565" d="M424 359Q424 386 419 393T397 400H331Q297 400 297 411Q297 418 311 422T346 429T388 431T422 432Q435 432 443 431T456 426T463 411T465 383Q465 372 465 357T464 316T463 252T462 156Q462
90 462 63T463 30Q463 20 468 15T491 9Q497 9 512 9T551 10Q560 10 569 8T578 -1Q578 -9 563 -13T527 -19T482 -21T442 -22Q431 -22 427 0T422 81Q415 65 402 47T370 14T323 -10T261 -20Q214 -20 183 -3T133 44T105 110T97 187V402Q97 425 93 432T65 440H-2Q-11
440 -15 444T-19 452Q-19 459 -3 463T35 469T77 471T107 472Q128 472 134 465T141 427Q141 414 141 392T139 344T138 292T137 243Q137 207 139 166T152 91T188 33T258 10Q291 10 320 22T372 57T407 108T421 172L424 359ZM326 618Q326 610 312 592T280 556T245 524T220
510Q212 510 212 521Q212 530 224 550T252 590T284 625T307 640Q315 640 320 636T326 618Z" />
<glyph unicode="&#xfb;" glyph-name="ucircumflex" horiz-adv-x="565" d="M424 359Q424 386 419 393T397 400H331Q297 400 297 411Q297 418 311 422T346 429T388 431T422 432Q435 432 443 431T456 426T463 411T465 383Q465 372 465 357T464 316T463 252T462 156Q462
90 462 63T463 30Q463 20 468 15T491 9Q497 9 512 9T551 10Q560 10 569 8T578 -1Q578 -9 563 -13T527 -19T482 -21T442 -22Q431 -22 427 0T422 81Q415 65 402 47T370 14T323 -10T261 -20Q214 -20 183 -3T133 44T105 110T97 187V402Q97 425 93 432T65 440H-2Q-11
440 -15 444T-19 452Q-19 459 -3 463T35 469T77 471T107 472Q128 472 134 465T141 427Q141 414 141 392T139 344T138 292T137 243Q137 207 139 166T152 91T188 33T258 10Q291 10 320 22T372 57T407 108T421 172L424 359ZM389 510Q384 510 371 519T341 541T305 569T269
596Q252 584 233 569T198 541T168 519T150 510Q142 510 142 521Q142 530 158 550T197 590T239 625T269 640Q278 640 299 625T342 590T380 550T397 521Q397 510 389 510Z" />
<glyph unicode="&#xfc;" glyph-name="udieresis" horiz-adv-x="565" d="M424 359Q424 386 419 393T397 400H331Q297 400 297 411Q297 418 311 422T346 429T388 431T422 432Q435 432 443 431T456 426T463 411T465 383Q465 372 465 357T464 316T463 252T462 156Q462
90 462 63T463 30Q463 20 468 15T491 9Q497 9 512 9T551 10Q560 10 569 8T578 -1Q578 -9 563 -13T527 -19T482 -21T442 -22Q431 -22 427 0T422 81Q415 65 402 47T370 14T323 -10T261 -20Q214 -20 183 -3T133 44T105 110T97 187V402Q97 425 93 432T65 440H-2Q-11
440 -15 444T-19 452Q-19 459 -3 463T35 469T77 471T107 472Q128 472 134 465T141 427Q141 414 141 392T139 344T138 292T137 243Q137 207 139 166T152 91T188 33T258 10Q291 10 320 22T372 57T407 108T421 172L424 359ZM130 575Q130 580 132 587T140 600T152 611T171
616Q185 616 195 606T205 579Q205 552 192 543T164 533Q150 533 140 545T130 575ZM337 552Q337 557 339 564T347 577T359 588T378 593Q392 593 402 583T412 556Q412 529 399 520T371 510Q357 510 347 522T337 552Z" />
<glyph unicode="&#xfd;" glyph-name="yacute" horiz-adv-x="577" d="M103 -109Q103 -126 122 -139T171 -152Q197 -152 216 -140T254 -103Q266 -87 279 -64T305 -12L94 373Q89 382 85 387T74 395T60 399T40 400Q2 401 -8 403T-18 414Q-18 422 -10 425T23 428H174Q200
428 210 426T220 417Q220 402 181 402Q166 402 153 401T139 389Q139 386 141 377T148 357L320 32L417 330Q425 353 425 368Q425 378 419 381T388 385Q364 385 351 387T338 397Q338 405 347 408T379 411H547Q562 411 572 408T582 397Q582 386 547 385Q524 385 511
384T490 381T478 374T471 361L359 44Q322 -62 279 -118Q250 -156 223 -169T167 -183Q148 -183 131 -178T100 -162T78 -135T69 -96Q69 -62 86 -45T126 -28Q136 -28 146 -33T156 -58Q156 -80 143 -86T119 -93Q103 -96 103 -109ZM345 618Q345 610 331 592T299 556T264
524T239 510Q231 510 231 521Q231 530 243 550T271 590T303 625T326 640Q334 640 339 636T345 618Z" />
<glyph unicode="&#xfe;" glyph-name="thorn" horiz-adv-x="494" d="M109 334Q137 394 182 426T284 458Q333 458 367 435T421 377T450 300T459 220Q459 155 438 111T384 41T312 3T238 -9Q208 -9 186 -2T148 16T120 40T100 68V-206H165Q167 -206 176 -206T194 -209T212
-214T220 -223Q220 -228 217 -230T209 -233T201 -235T196 -235Q192 -235 174 -235T136 -234T100 -233T82 -232Q81 -232 70 -232T45 -233T18 -234T-1 -235Q-29 -235 -36 -232T-43 -224Q-43 -217 -36 -214T-17 -210T6 -209T27 -206Q33 -205 38 -204T49 -199T57 -183T60
-149Q60 -50 64 110T69 498Q69 538 69 578T69 653T68 717T68 760Q68 775 57 781T23 787H-35Q-52 787 -66 789T-81 799Q-81 806 -70 810T-46 815T-21 817T-7 818H83Q92 818 100 813T109 782V334ZM108 182Q108 153 113 125T133 73T172 36T238 22Q263 22 294 30T352
60T397 122T416 225Q416 283 402 321T367 383T322 417T277 427Q244 427 213 408T159 356T122 278T108 182Z" />
<glyph unicode="&#xff;" glyph-name="ydieresis" horiz-adv-x="577" d="M103 -109Q103 -126 122 -139T171 -152Q197 -152 216 -140T254 -103Q266 -87 279 -64T305 -12L94 373Q89 382 85 387T74 395T60 399T40 400Q2 401 -8 403T-18 414Q-18 422 -10 425T23 428H174Q200
428 210 426T220 417Q220 402 181 402Q166 402 153 401T139 389Q139 386 141 377T148 357L320 32L417 330Q425 353 425 368Q425 378 419 381T388 385Q364 385 351 387T338 397Q338 405 347 408T379 411H547Q562 411 572 408T582 397Q582 386 547 385Q524 385 511
384T490 381T478 374T471 361L359 44Q322 -62 279 -118Q250 -156 223 -169T167 -183Q148 -183 131 -178T100 -162T78 -135T69 -96Q69 -62 86 -45T126 -28Q136 -28 146 -33T156 -58Q156 -80 143 -86T119 -93Q103 -96 103 -109ZM149 575Q149 580 151 587T159 600T171
611T190 616Q204 616 214 606T224 579Q224 552 211 543T183 533Q169 533 159 545T149 575ZM356 552Q356 557 358 564T366 577T378 588T397 593Q411 593 421 583T431 556Q431 529 418 520T390 510Q376 510 366 522T356 552Z" />
<glyph unicode="&#x2013;" glyph-name="endash" horiz-adv-x="483" d="M406 285Q411 285 416 281T421 272Q421 267 416 261T394 254Q366 254 324 254T236 254T150 253T84 253Q75 253 69 258T62 269Q62 274 67 279T84 284Q94 284 111 284T147 283T187 283T226 282Q284
282 328 283T406 285Z" />
<glyph unicode="&#x2014;" glyph-name="emdash" horiz-adv-x="714" d="M641 285Q645 285 648 281T652 272Q652 267 648 261T633 254Q620 254 577 254T476 254T353 254T231 253T132 253T78 253Q71 253 67 258T62 269Q62 274 66 279T78 284Q83 284 103 284T151 284T212
283T274 283T326 282T358 282Q379 282 421 282T508 283T591 284T641 285Z" />
<glyph unicode="&#x2018;" glyph-name="quoteleft" horiz-adv-x="152" d="M116 749Q116 735 106 725T80 715Q61 715 50 727T38 759Q38 769 42 789T53 829T70 865T93 880Q98 880 103 876T109 865Q109 861 106 852T100 831T93 810T90 793Q90 788 94 784T103 775T112
764T116 749Z" />
<glyph unicode="&#x2019;" glyph-name="quoteright" horiz-adv-x="152" d="M40 816Q40 830 50 840T76 850Q95 850 106 838T118 806Q118 796 114 776T103 736T86 700T63 685Q58 685 53 689T47 700Q47 704 50 713T56 734T63 755T66 772Q66 777 62 781T53 790T44
801T40 816Z" />
<glyph unicode="&#x201a;" glyph-name="quotesinglbase" horiz-adv-x="183" d="M53 83Q53 97 63 107T89 117Q108 117 119 105T131 73Q131 63 127 43T116 3T99 -33T76 -48Q71 -48 66 -44T60 -33Q60 -29 63 -20T69 1T76 22T79 39Q79 44 75 48T66 57T57 68T53 83Z" />
<glyph unicode="&#x201c;" glyph-name="quotedblleft" horiz-adv-x="278" d="M116 749Q116 735 106 725T80 715Q61 715 50 727T38 759Q38 769 42 789T53 829T70 865T93 880Q98 880 103 876T109 865Q109 861 106 852T100 831T93 810T90 793Q90 788 94 784T103 775T112
764T116 749ZM242 749Q242 735 232 725T206 715Q187 715 176 727T164 759Q164 769 168 789T179 829T196 865T219 880Q224 880 229 876T235 865Q235 861 232 852T226 831T219 810T216 793Q216 788 220 784T229 775T238 764T242 749Z" />
<glyph unicode="&#x201d;" glyph-name="quotedblright" horiz-adv-x="278" d="M40 816Q40 830 50 840T76 850Q95 850 106 838T118 806Q118 796 114 776T103 736T86 700T63 685Q58 685 53 689T47 700Q47 704 50 713T56 734T63 755T66 772Q66 777 62 781T53 790T44
801T40 816ZM166 816Q166 830 176 840T202 850Q221 850 232 838T244 806Q244 796 240 776T229 736T212 700T189 685Q184 685 179 689T173 700Q173 704 176 713T182 734T189 755T192 772Q192 777 188 781T179 790T170 801T166 816Z" />
<glyph unicode="&#x201e;" glyph-name="quotedblbase" horiz-adv-x="309" d="M53 83Q53 97 63 107T89 117Q108 117 119 105T131 73Q131 63 127 43T116 3T99 -33T76 -48Q71 -48 66 -44T60 -33Q60 -29 63 -20T69 1T76 22T79 39Q79 44 75 48T66 57T57 68T53 83ZM179
83Q179 97 189 107T215 117Q234 117 245 105T257 73Q257 63 253 43T242 3T225 -33T202 -48Q197 -48 192 -44T186 -33Q186 -29 189 -20T195 1T202 22T205 39Q205 44 201 48T192 57T183 68T179 83Z" />
<glyph unicode="&#x2022;" glyph-name="bullet" horiz-adv-x="285" d="M213 360Q213 340 207 326T190 302T167 287T141 282Q113 282 93 303T73 358Q73 391 93 413T146 435Q179 435 196 413T213 360Z" />
<glyph unicode="&#x2039;" glyph-name="guilsinglleft" horiz-adv-x="226" d="M173 516Q173 510 165 495T143 461T115 420T88 378Q100 358 115 337T143 296T164 262T173 241Q173 232 162 232Q153 232 134 251T95 295T60 344T45 378Q45 385 52 399T70 429T94 462T121
493T145 516T162 525Q173 525 173 516Z" />
<glyph unicode="&#x203a;" glyph-name="guilsinglright" horiz-adv-x="226" d="M53 516Q53 510 61 495T83 461T111 420T138 378Q126 358 111 337T83 296T62 262T53 241Q53 232 64 232Q73 232 92 251T131 295T166 344T181 378Q181 385 174 399T156 429T132 462T105
493T81 516T64 525Q53 525 53 516Z" />
</font>
</defs>
</svg>
