<?xml version="1.0" standalone="no"?>
<!DOCTYPE svg PUBLIC "-//W3C//DTD SVG 1.1//EN" "http://www.w3.org/Graphics/SVG/1.1/DTD/svg11.dtd">
<svg xmlns="http://www.w3.org/2000/svg">
<defs >
<font id="LibreBarcode128Text" horiz-adv-x="287" ><font-face
    font-family="Libre Barcode 128 Text"
    units-per-em="1000"
    panose-1="0 0 0 0 0 0 0 0 0 0"
    ascent="600"
    descent="-400"
    alphabetic="0" />
<glyph unicode=" " glyph-name="uni0020" horiz-adv-x="330" d="M0 0V590H60V0H0ZM90 0V590H150V0H90ZM210 0V590H270V0H210Z" />
<glyph unicode="!" glyph-name="uni0021" horiz-adv-x="330" d="M0 0V590H60V0H0ZM120 0V590H180V0H120ZM210 0V590H270V0H210ZM143 -98Q143 -85 148 -78Q153 -71 162 -71Q181 -71 181 -102L171 -247H152L143 -98ZM161 -323Q152 -323 145 -317Q139 -310 139 -302Q139
-293 145 -286Q152 -279 161 -279Q170 -279 176 -286Q183 -293 183 -302Q183 -310 176 -317Q170 -323 161 -323Z" />
<glyph unicode="&quot;" glyph-name="uni0022" horiz-adv-x="330" d="M0 0V590H60V0H0ZM120 0V590H180V0H120ZM240 0V590H300V0H240ZM152 -72Q152 -103 151 -118Q150 -132 148 -150L146 -168H128L126 -150Q124 -133 123 -118Q122 -103 122 -72H152ZM208 -72Q208
-103 207 -118Q206 -132 204 -150L202 -168H184L182 -150Q180 -133 179 -118Q178 -103 178 -72H208Z" />
<glyph unicode="#" glyph-name="uni0023" horiz-adv-x="330" d="M0 0V590H30V0H0ZM90 0V590H120V0H90ZM180 0V590H240V0H180ZM181 -247H139L131 -314H110L117 -248H81L83 -231H120L127 -168H86L88 -151H129L136 -87L159 -86L151 -150H192L200 -88L223 -87L215
-149H249L247 -167H213L205 -229H242L240 -246H203L195 -314L172 -315L181 -247ZM182 -231L190 -167H149L142 -231H182Z" />
<glyph unicode="$" glyph-name="uni0024" horiz-adv-x="330" d="M0 0V590H30V0H0ZM90 0V590H120V0H90ZM210 0V590H270V0H210ZM159 -314Q120 -311 94 -284L110 -262Q111 -262 112 -266Q112 -269 113 -270Q131 -289 159 -292V-210Q130 -200 115 -187Q101 -173 101
-153Q101 -133 118 -118Q134 -103 159 -99V-77H183Q184 -77 184 -78Q184 -79 182 -81Q181 -83 181 -85V-99Q216 -103 236 -128L220 -148Q219 -147 218 -144Q217 -141 216 -140Q204 -125 181 -121V-193Q214 -203 229 -216Q243 -229 243 -252Q243 -266 235 -279Q228
-292 214 -302Q200 -311 181 -313V-336H159V-314ZM159 -120Q143 -122 135 -131Q126 -139 126 -150Q126 -171 159 -185V-120ZM181 -291Q198 -288 209 -277Q219 -267 219 -253Q219 -240 210 -232Q201 -224 181 -218V-291Z" />
<glyph unicode="%" glyph-name="uni0025" horiz-adv-x="330" d="M0 0V590H30V0H0ZM120 0V590H150V0H120ZM210 0V590H270V0H210ZM124 -180Q113 -180 103 -174Q94 -168 88 -157Q82 -145 82 -132Q82 -118 88 -107Q94 -96 103 -90Q113 -83 124 -83Q135 -83 145 -90Q155
-96 160 -107Q166 -119 166 -132Q166 -153 154 -167Q142 -180 124 -180ZM217 -87H239L109 -319H89L217 -87ZM124 -161Q132 -161 137 -154Q142 -146 142 -132Q142 -117 137 -110Q131 -103 123 -103Q116 -103 110 -110Q105 -117 105 -132Q105 -146 111 -153Q116 -161
124 -161ZM210 -323Q199 -323 189 -316Q179 -310 174 -299Q168 -288 168 -275Q168 -261 174 -250Q179 -239 189 -233Q199 -226 210 -226Q227 -226 239 -241Q251 -255 251 -275Q251 -288 246 -299Q240 -310 231 -316Q221 -323 210 -323ZM210 -304Q218 -304 224 -297Q229
-289 229 -275Q229 -262 224 -254Q218 -245 210 -245Q201 -245 196 -253Q190 -260 190 -274Q190 -289 196 -297Q202 -304 210 -304Z" />
<glyph unicode="&amp;" glyph-name="uni0026" horiz-adv-x="330" d="M0 0V590H30V0H0ZM90 0V590H150V0H90ZM210 0V590H240V0H210ZM206 -291Q195 -306 178 -314Q161 -323 143 -323Q127 -323 114 -315Q100 -307 93 -295Q85 -282 85 -267Q85 -244 98 -224Q111 -204
132 -191Q106 -160 106 -134Q106 -120 113 -109Q120 -98 131 -91Q143 -85 157 -85Q171 -85 183 -92Q194 -99 201 -110Q207 -121 207 -134Q207 -152 196 -170Q184 -189 167 -196L208 -255Q217 -244 221 -236Q224 -228 225 -217Q225 -215 227 -213L251 -230Q237 -254
223 -273L249 -307L227 -323L206 -291ZM154 -180Q167 -174 175 -161Q182 -149 182 -136Q182 -124 175 -115Q167 -107 157 -107Q146 -107 139 -115Q131 -122 131 -134Q131 -152 154 -180ZM146 -299Q170 -299 192 -273L145 -209Q131 -218 122 -233Q114 -248 114 -262Q114
-278 123 -288Q133 -299 146 -299Z" />
<glyph unicode="&apos;" glyph-name="uni0027" horiz-adv-x="330" d="M0 0V590H30V0H0ZM90 0V590H150V0H90ZM240 0V590H270V0H240ZM180 -72Q180 -103 179 -118Q178 -132 176 -150L174 -168H156L154 -150Q152 -133 151 -118Q150 -103 150 -72H180Z" />
<glyph unicode="(" glyph-name="uni0028" horiz-adv-x="330" d="M0 0V590H30V0H0ZM120 0V590H180V0H120ZM240 0V590H270V0H240ZM219 -384Q188 -370 165 -345Q142 -320 130 -290Q117 -259 117 -226Q117 -193 130 -163Q142 -133 164 -110Q187 -86 217 -72L224 -95Q187
-115 166 -150Q144 -186 144 -227Q144 -269 166 -305Q188 -342 226 -361L219 -384Z" />
<glyph unicode=")" glyph-name="uni0029" horiz-adv-x="330" d="M0 0V590H60V0H0ZM120 0V590H150V0H120ZM210 0V590H240V0H210ZM114 -361Q152 -342 174 -305Q197 -269 197 -227Q197 -186 175 -150Q153 -115 117 -95L124 -72Q153 -86 176 -110Q198 -133 211 -163Q223
-193 223 -226Q223 -259 210 -290Q198 -320 175 -345Q152 -370 121 -384L114 -361Z" />
<glyph unicode="*" glyph-name="uni002A" horiz-adv-x="330" d="M0 0V590H60V0H0ZM120 0V590H150V0H120ZM240 0V590H270V0H240ZM103 -257L152 -201L87 -181L97 -157L157 -186L151 -120H180L173 -186L233 -159L242 -181L179 -201L226 -257L205 -273L165 -211L123
-273L103 -257Z" />
<glyph unicode="+" glyph-name="uni002B" horiz-adv-x="330" d="M0 0V590H60V0H0ZM150 0V590H180V0H150ZM240 0V590H270V0H240ZM155 -211H89V-188H155V-125H178V-188H242V-211H178V-280H155V-211Z" />
<glyph unicode="," glyph-name="uni002C" horiz-adv-x="330" d="M0 0V590H30V0H0ZM60 0V590H120V0H60ZM180 0V590H270V0H180ZM133 -370Q144 -361 151 -349Q158 -338 158 -331Q158 -328 156 -326Q154 -323 149 -319Q144 -314 141 -311Q139 -307 139 -303Q139 -293
145 -287Q151 -281 160 -281Q171 -281 178 -289Q186 -298 186 -312Q186 -341 146 -381L133 -370Z" />
<glyph unicode="-" glyph-name="uni002D" horiz-adv-x="330" d="M0 0V590H30V0H0ZM90 0V590H150V0H90ZM180 0V590H270V0H180ZM98 -190H232V-215H98V-190Z" />
<glyph unicode="." glyph-name="uni002E" horiz-adv-x="330" d="M0 0V590H30V0H0ZM90 0V590H150V0H90ZM210 0V590H300V0H210ZM160 -323Q152 -323 145 -317Q139 -310 139 -302Q139 -293 145 -287Q152 -281 160 -281Q169 -281 175 -287Q182 -293 182 -302Q182 -310
175 -317Q169 -323 160 -323Z" />
<glyph unicode="/" glyph-name="uni002F" horiz-adv-x="330" d="M0 0V590H30V0H0ZM60 0V590H150V0H60ZM210 0V590H270V0H210ZM96 -324L212 -72L234 -83L118 -335L96 -324Z" />
<glyph unicode="0" glyph-name="uni0030" horiz-adv-x="330" d="M0 0V590H30V0H0ZM90 0V590H180V0H90ZM210 0V590H270V0H210ZM165 -86Q199 -86 218 -117Q237 -149 237 -204Q237 -261 218 -292Q200 -323 165 -323Q130 -323 112 -292Q93 -261 93 -204Q93 -149 112
-117Q131 -86 165 -86ZM165 -109Q144 -109 132 -134Q120 -160 120 -204Q120 -229 123 -247L202 -145Q197 -128 187 -118Q178 -109 165 -109ZM165 -300Q186 -300 198 -276Q210 -251 210 -204Q210 -183 207 -167L129 -268Q140 -300 165 -300Z" />
<glyph unicode="1" glyph-name="uni0031" horiz-adv-x="330" d="M0 0V590H30V0H0ZM90 0V590H180V0H90ZM240 0V590H300V0H240ZM158 -119L111 -133L105 -119L165 -87H184V-319H158V-119Z" />
<glyph unicode="2" glyph-name="uni0032" horiz-adv-x="330" d="M0 0V590H60V0H0ZM120 0V590H210V0H120ZM270 0V590H300V0H270ZM99 -298L129 -268Q159 -238 174 -220Q189 -203 198 -186Q207 -170 207 -151Q207 -129 197 -119Q186 -109 168 -109Q140 -109 121 -132Q117
-138 117 -142Q117 -145 117 -146L115 -148L113 -146L94 -131Q105 -109 124 -98Q143 -86 168 -86Q197 -86 216 -104Q234 -122 234 -152Q234 -172 224 -191Q215 -210 200 -227Q185 -244 158 -271L133 -296H219Q225 -296 228 -296Q230 -295 233 -293H235V-319H99V-298Z"
/>
<glyph unicode="3" glyph-name="uni0033" horiz-adv-x="330" d="M0 0V590H60V0H0ZM120 0V590H150V0H120ZM180 0V590H270V0H180ZM161 -323Q143 -323 126 -316Q110 -310 98 -297L115 -276L117 -273L119 -275Q120 -279 121 -282Q122 -284 126 -288Q133 -294 141 -297Q149
-301 160 -301Q182 -301 193 -288Q204 -276 204 -254Q204 -231 190 -220Q176 -208 151 -208Q147 -208 139 -209V-188Q172 -188 184 -176Q196 -164 196 -142Q196 -127 187 -117Q178 -108 163 -108Q139 -108 121 -125L105 -110Q128 -86 163 -86Q191 -86 207 -102Q223
-117 223 -144Q223 -162 214 -177Q204 -191 187 -196Q207 -203 219 -218Q231 -233 231 -255Q231 -274 223 -289Q214 -305 199 -314Q183 -323 161 -323Z" />
<glyph unicode="4" glyph-name="uni0034" horiz-adv-x="330" d="M0 0V590H60V0H0ZM120 0V590H150V0H120ZM210 0V590H300V0H210ZM190 -262H90V-243L196 -87H218V-241H247V-262H218V-319H190V-262ZM190 -240V-134L120 -240H190Z" />
<glyph unicode="5" glyph-name="uni0035" horiz-adv-x="330" d="M0 0V590H60V0H0ZM90 0V590H180V0H90ZM240 0V590H270V0H240ZM165 -323Q143 -323 125 -314Q107 -305 96 -287L120 -270L121 -271Q121 -275 122 -278Q123 -280 127 -284Q134 -293 144 -297Q153 -300
166 -300Q178 -300 188 -294Q199 -287 205 -274Q211 -262 211 -245Q211 -220 197 -205Q184 -190 163 -190Q152 -190 140 -196Q129 -202 120 -212L104 -205L111 -87H229V-111H133L130 -177Q148 -168 168 -168Q188 -168 203 -178Q219 -187 228 -205Q237 -223 237
-246Q237 -270 228 -287Q218 -305 202 -314Q185 -323 165 -323Z" />
<glyph unicode="6" glyph-name="uni0036" horiz-adv-x="330" d="M0 0V590H60V0H0ZM120 0V590H210V0H120ZM240 0V590H270V0H240ZM169 -323Q135 -323 116 -294Q97 -264 97 -213Q97 -173 107 -144Q117 -115 135 -100Q154 -85 179 -85Q208 -85 230 -106L211 -128L209
-126Q208 -122 207 -119Q206 -117 201 -113Q193 -108 179 -108Q167 -108 155 -115Q142 -123 132 -143Q123 -163 123 -197Q130 -184 144 -177Q157 -170 172 -170Q189 -170 204 -179Q218 -189 227 -206Q235 -223 235 -245Q235 -268 226 -286Q218 -303 202 -313Q187
-323 169 -323ZM170 -300Q187 -300 198 -285Q210 -271 210 -246Q210 -228 204 -216Q198 -204 189 -198Q179 -192 169 -192Q156 -192 144 -201Q132 -210 124 -223Q123 -229 123 -233Q123 -249 129 -265Q135 -280 146 -290Q156 -300 170 -300Z" />
<glyph unicode="7" glyph-name="uni0037" horiz-adv-x="330" d="M0 0V590H90V0H0ZM120 0V590H180V0H120ZM210 0V590H300V0H210ZM130 -319Q162 -213 200 -112H101V-87H233V-102Q187 -217 159 -319H130Z" />
<glyph unicode="8" glyph-name="uni0038" horiz-adv-x="330" d="M0 0V590H90V0H0ZM120 0V590H150V0H120ZM210 0V590H270V0H210ZM165 -323Q144 -323 128 -315Q111 -306 103 -292Q94 -278 94 -261Q94 -241 107 -223Q120 -206 141 -196Q125 -188 115 -173Q105 -158
105 -142Q105 -117 121 -101Q137 -84 167 -84Q197 -84 213 -100Q228 -115 228 -139Q228 -156 218 -171Q208 -186 191 -195Q211 -204 224 -222Q236 -239 236 -259Q236 -277 227 -291Q218 -306 202 -314Q186 -323 165 -323ZM171 -186Q185 -178 194 -166Q203 -153
203 -140Q203 -126 193 -116Q184 -106 166 -106Q149 -106 139 -116Q130 -125 130 -139Q130 -155 140 -165Q150 -175 171 -186ZM166 -299Q187 -299 198 -288Q210 -277 210 -259Q210 -242 196 -228Q183 -213 160 -206Q143 -213 132 -228Q121 -242 121 -258Q121 -276
133 -287Q145 -299 166 -299Z" />
<glyph unicode="9" glyph-name="uni0039" horiz-adv-x="330" d="M0 0V590H90V0H0ZM150 0V590H180V0H150ZM210 0V590H270V0H210ZM164 -86Q185 -86 202 -98Q218 -111 226 -133Q235 -155 235 -184Q235 -252 215 -287Q194 -322 157 -323Q123 -323 101 -302L120 -280L122
-282Q122 -286 124 -289Q125 -291 130 -294Q140 -300 155 -300Q180 -300 194 -276Q207 -251 210 -215Q201 -223 190 -227Q179 -231 165 -231Q146 -231 130 -222Q115 -213 106 -198Q97 -182 97 -161Q97 -140 106 -123Q115 -106 130 -96Q146 -86 164 -86ZM165 -209Q181
-209 191 -204Q202 -200 210 -189Q209 -148 198 -128Q187 -109 165 -109Q146 -109 134 -123Q123 -137 123 -161Q123 -183 135 -196Q147 -209 165 -209Z" />
<glyph unicode=":" glyph-name="uni003A" horiz-adv-x="330" d="M0 0V590H90V0H0ZM150 0V590H180V0H150ZM240 0V590H300V0H240ZM160 -204Q152 -204 145 -198Q139 -192 139 -183Q139 -174 145 -168Q152 -162 160 -162Q169 -162 176 -168Q183 -174 183 -183Q183
-192 176 -198Q169 -204 160 -204ZM160 -323Q151 -323 145 -317Q139 -311 139 -302Q139 -293 145 -287Q152 -280 160 -280Q169 -280 176 -287Q183 -293 183 -302Q183 -310 176 -317Q170 -323 160 -323Z" />
<glyph unicode=";" glyph-name="uni003B" horiz-adv-x="330" d="M0 0V590H90V0H0ZM120 0V590H180V0H120ZM240 0V590H270V0H240ZM160 -204Q152 -204 145 -198Q139 -192 139 -183Q139 -174 145 -168Q152 -162 160 -162Q169 -162 176 -168Q183 -174 183 -183Q183
-192 176 -198Q169 -204 160 -204ZM133 -370Q144 -361 151 -349Q158 -338 158 -331Q158 -328 156 -326Q154 -323 149 -319Q144 -314 141 -311Q139 -307 139 -303Q139 -293 145 -287Q151 -281 160 -281Q171 -281 178 -289Q186 -298 186 -312Q186 -341 146 -381L133
-370Z" />
<glyph unicode="&lt;" glyph-name="uni003C" horiz-adv-x="330" d="M0 0V590H90V0H0ZM150 0V590H210V0H150ZM240 0V590H270V0H240ZM85 -209V-191L242 -108V-135L113 -200L243 -273V-302L85 -209Z" />
<glyph unicode="=" glyph-name="uni003D" horiz-adv-x="330" d="M0 0V590H90V0H0ZM150 0V590H210V0H150ZM270 0V590H300V0H270ZM89 -156H242V-179H89V-156ZM89 -215H242V-237H89V-215Z" />
<glyph unicode="&gt;" glyph-name="uni003E" horiz-adv-x="330" d="M0 0V590H60V0H0ZM90 0V590H150V0H90ZM180 0V590H240V0H180ZM87 -273L217 -200L88 -135V-108L245 -191V-209L87 -302V-273Z" />
<glyph unicode="?" glyph-name="uni003F" horiz-adv-x="330" d="M0 0V590H60V0H0ZM90 0V590H150V0H90ZM240 0V590H300V0H240ZM156 -235Q156 -217 163 -206Q169 -194 182 -182Q195 -169 201 -159Q208 -148 208 -132Q208 -115 196 -105Q185 -94 166 -94Q152 -94
142 -99Q131 -103 123 -112Q119 -116 118 -118Q117 -121 117 -125L116 -127L113 -125L96 -110Q109 -91 125 -81Q142 -72 168 -72Q197 -72 215 -87Q233 -103 233 -130Q233 -151 226 -164Q218 -176 204 -190Q192 -202 186 -211Q181 -220 181 -235V-250H156V-235ZM169
-323Q160 -323 154 -317Q147 -310 147 -302Q147 -293 154 -287Q160 -281 169 -281Q178 -281 184 -287Q190 -293 190 -302Q190 -310 184 -317Q178 -323 169 -323Z" />
<glyph unicode="@" glyph-name="uni0040" horiz-adv-x="330" d="M0 0V590H60V0H0ZM150 0V590H210V0H150ZM240 0V590H300V0H240ZM182 -323Q156 -323 134 -310Q111 -296 97 -269Q84 -242 84 -203Q84 -164 97 -137Q110 -110 130 -97Q150 -84 173 -84Q192 -84 208
-93Q225 -103 235 -122Q245 -141 245 -167V-254H223V-240Q208 -257 187 -257Q165 -257 151 -243Q137 -229 137 -208Q137 -184 156 -169Q175 -154 210 -154Q218 -154 221 -154Q221 -132 208 -118Q194 -104 172 -104Q153 -104 138 -114Q123 -125 114 -146Q105 -167
105 -199Q105 -232 116 -256Q127 -279 145 -290Q163 -302 184 -302Q205 -302 224 -290L234 -308Q210 -323 182 -323ZM190 -236Q207 -236 215 -222Q223 -207 223 -173Q214 -172 210 -172Q186 -172 173 -181Q160 -190 160 -206Q160 -220 168 -228Q175 -236 190 -236Z"
/>
<glyph unicode="A" glyph-name="uni0041" horiz-adv-x="330" d="M0 0V590H30V0H0ZM60 0V590H90V0H60ZM180 0V590H240V0H180ZM202 -251H127L104 -319H78L163 -83H166L252 -319H225L202 -251ZM195 -231L165 -143L134 -231H195Z" />
<glyph unicode="B" glyph-name="uni0042" horiz-adv-x="330" d="M0 0V590H30V0H0ZM120 0V590H150V0H120ZM180 0V590H240V0H180ZM90 -87H156Q194 -87 213 -102Q233 -117 233 -144Q233 -161 224 -175Q214 -189 198 -195Q218 -202 230 -218Q242 -235 242 -254Q242
-284 220 -302Q199 -319 155 -319H90V-87ZM152 -183Q207 -183 207 -146Q207 -130 194 -120Q182 -109 156 -109H115V-183H152ZM160 -296Q214 -296 214 -252Q214 -205 153 -205H115V-296H160Z" />
<glyph unicode="C" glyph-name="uni0043" horiz-adv-x="330" d="M0 0V590H30V0H0ZM120 0V590H150V0H120ZM240 0V590H300V0H240ZM178 -323Q152 -323 132 -310Q111 -297 99 -271Q87 -244 87 -204Q87 -162 100 -135Q113 -109 133 -97Q153 -86 176 -86Q201 -86 219
-98Q237 -110 246 -131L224 -142L221 -143L220 -141V-138Q220 -134 215 -127Q207 -116 197 -111Q187 -106 176 -106Q146 -106 129 -132Q113 -157 113 -203Q113 -231 121 -254Q130 -276 144 -288Q159 -300 177 -300Q191 -300 203 -293Q216 -285 224 -272L243 -285Q231
-304 216 -313Q200 -323 178 -323Z" />
<glyph unicode="D" glyph-name="uni0044" horiz-adv-x="330" d="M0 0V590H30V0H0ZM60 0V590H120V0H60ZM210 0V590H240V0H210ZM92 -87H146Q175 -87 191 -95Q208 -103 220 -119Q243 -149 243 -204Q241 -261 217 -290Q193 -320 142 -319H92V-87ZM140 -299Q217 -299
217 -206Q217 -159 200 -134Q182 -109 144 -109H117V-299H140Z" />
<glyph unicode="E" glyph-name="uni0045" horiz-adv-x="330" d="M0 0V590H30V0H0ZM120 0V590H180V0H120ZM210 0V590H240V0H210ZM94 -87H236V-110H118V-186H216V-210H118V-296H235V-319H94V-87Z" />
<glyph unicode="F" glyph-name="uni0046" horiz-adv-x="330" d="M0 0V590H30V0H0ZM120 0V590H180V0H120ZM270 0V590H300V0H270ZM101 -87H234V-110H127V-183H214V-205H127V-319H101V-87Z" />
<glyph unicode="G" glyph-name="uni0047" horiz-adv-x="330" d="M0 0V590H60V0H0ZM90 0V590H120V0H90ZM210 0V590H240V0H210ZM175 -323Q147 -323 127 -308Q107 -294 96 -267Q85 -241 85 -206Q85 -160 99 -133Q113 -106 133 -95Q153 -85 173 -85Q194 -85 213 -96Q233
-106 242 -124L224 -138L221 -141L220 -139Q220 -136 219 -133Q217 -131 213 -126Q204 -116 195 -112Q186 -108 173 -108Q146 -108 128 -129Q111 -151 111 -200Q111 -248 128 -274Q145 -300 175 -300Q186 -300 198 -296Q211 -293 219 -286V-231H177V-208H243V-299Q210
-323 175 -323Z" />
<glyph unicode="H" glyph-name="uni0048" horiz-adv-x="330" d="M0 0V590H60V0H0ZM150 0V590H180V0H150ZM210 0V590H240V0H210ZM91 -87H121V-90Q119 -92 118 -95Q118 -97 118 -104V-186H208V-87H239V-90Q237 -92 236 -95Q236 -97 236 -104V-319H208V-209H118V-319H91V-87Z"
/>
<glyph unicode="I" glyph-name="uni0049" horiz-adv-x="330" d="M0 0V590H60V0H0ZM150 0V590H180V0H150ZM270 0V590H300V0H270ZM102 -297H148V-109H105V-87H220V-109H174V-297H222V-319H102V-297Z" />
<glyph unicode="J" glyph-name="uni004A" horiz-adv-x="330" d="M0 0V590H30V0H0ZM60 0V590H120V0H60ZM150 0V590H240V0H150ZM146 -323Q111 -323 90 -297L105 -279L108 -276L110 -277Q110 -281 111 -284Q113 -286 117 -290Q130 -300 145 -300Q164 -300 172 -287Q181
-274 181 -242V-109H136V-87H242V-109H206V-241Q207 -270 199 -288Q191 -306 177 -315Q163 -323 146 -323Z" />
<glyph unicode="K" glyph-name="uni004B" horiz-adv-x="330" d="M0 0V590H30V0H0ZM60 0V590H120V0H60ZM210 0V590H300V0H210ZM134 -203L115 -223V-319H88V-87H119V-90Q117 -92 116 -95Q115 -97 115 -104V-194L212 -86Q221 -87 231 -87H241L153 -187L247 -319L214
-320L134 -203Z" />
<glyph unicode="L" glyph-name="uni004C" horiz-adv-x="330" d="M0 0V590H30V0H0ZM120 0V590H180V0H120ZM210 0V590H300V0H210ZM97 -87H127V-90Q125 -92 124 -95Q124 -97 124 -104V-297H235V-319H97V-87Z" />
<glyph unicode="M" glyph-name="uni004D" horiz-adv-x="330" d="M0 0V590H30V0H0ZM60 0V590H150V0H60ZM180 0V590H240V0H180ZM87 -87H108L165 -201L223 -87H243V-319H218V-144L168 -238H158L111 -145V-319H87V-87Z" />
<glyph unicode="N" glyph-name="uni004E" horiz-adv-x="330" d="M0 0V590H30V0H0ZM60 0V590H150V0H60ZM240 0V590H300V0H240ZM91 -87H116L213 -259V-87H242V-90Q239 -92 239 -95Q238 -97 238 -104V-319H218L115 -137V-319H91V-87Z" />
<glyph unicode="O" glyph-name="uni004F" horiz-adv-x="330" d="M0 0V590H30V0H0ZM120 0V590H210V0H120ZM240 0V590H300V0H240ZM165 -323Q125 -323 104 -292Q82 -261 82 -204Q82 -149 104 -117Q126 -86 165 -86Q204 -86 226 -117Q248 -149 248 -204Q248 -261 226
-292Q205 -323 165 -323ZM165 -300Q192 -300 206 -276Q221 -251 221 -204Q221 -160 206 -134Q191 -109 165 -109Q139 -109 124 -134Q109 -160 109 -204Q109 -251 123 -276Q138 -300 165 -300Z" />
<glyph unicode="P" glyph-name="uni0050" horiz-adv-x="330" d="M0 0V590H90V0H0ZM120 0V590H210V0H120ZM240 0V590H300V0H240ZM94 -87H168Q205 -87 223 -106Q242 -124 242 -153Q242 -181 224 -199Q206 -217 170 -217H121V-319H94V-87ZM167 -194Q192 -194 203
-183Q215 -173 215 -154Q215 -135 203 -124Q191 -112 168 -112H121V-194H167Z" />
<glyph unicode="Q" glyph-name="uni0051" horiz-adv-x="330" d="M0 0V590H60V0H0ZM90 0V590H120V0H90ZM210 0V590H300V0H210ZM221 -373Q185 -374 171 -363Q156 -351 156 -322Q137 -319 120 -305Q103 -291 93 -266Q83 -240 83 -204Q83 -161 95 -135Q108 -108 127
-96Q146 -85 165 -85Q188 -85 207 -97Q226 -110 237 -137Q248 -164 247 -203Q247 -255 230 -284Q213 -314 179 -322Q179 -335 186 -342Q192 -349 206 -349L236 -348V-373H221ZM167 -299Q181 -299 193 -289Q206 -280 214 -260Q222 -241 222 -210Q222 -171 213 -148Q205
-126 192 -117Q179 -107 165 -107Q138 -107 123 -134Q108 -161 108 -199Q108 -244 124 -271Q140 -299 167 -299Z" />
<glyph unicode="R" glyph-name="uni0052" horiz-adv-x="330" d="M0 0V590H60V0H0ZM150 0V590H180V0H150ZM210 0V590H300V0H210ZM93 -87H161Q201 -87 219 -105Q238 -122 238 -154Q238 -174 225 -192Q212 -210 191 -216L245 -319H216L164 -217H119V-319H93V-87ZM164
-194Q188 -194 200 -183Q211 -173 211 -154Q211 -135 200 -123Q188 -112 164 -112H119V-194H164Z" />
<glyph unicode="S" glyph-name="uni0053" horiz-adv-x="330" d="M0 0V590H60V0H0ZM90 0V590H180V0H90ZM210 0V590H240V0H210ZM164 -323Q119 -323 91 -293L105 -270L106 -267L109 -268Q109 -269 110 -272Q110 -274 112 -277Q113 -279 116 -281Q137 -299 168 -299Q188
-299 202 -288Q216 -276 216 -260Q216 -249 211 -241Q207 -234 196 -227Q185 -220 162 -210Q128 -197 113 -180Q99 -163 99 -142Q99 -116 118 -100Q137 -84 169 -84Q188 -84 205 -92Q221 -100 234 -113L217 -136L215 -134Q215 -133 214 -131Q214 -128 212 -126Q211
-123 208 -121Q200 -113 189 -109Q179 -106 165 -106Q147 -106 137 -116Q126 -126 126 -140Q126 -151 130 -159Q135 -167 147 -174Q159 -182 183 -191Q216 -205 229 -219Q241 -234 241 -256Q241 -273 233 -288Q224 -303 207 -313Q189 -323 164 -323Z" />
<glyph unicode="T" glyph-name="uni0054" horiz-adv-x="330" d="M0 0V590H60V0H0ZM90 0V590H180V0H90ZM270 0V590H300V0H270ZM149 -110H84V-87H244V-110H176V-319H149V-110Z" />
<glyph unicode="U" glyph-name="uni0055" horiz-adv-x="330" d="M0 0V590H60V0H0ZM90 0V590H180V0H90ZM210 0V590H300V0H210ZM165 -323Q129 -323 110 -301Q91 -279 91 -239V-87H120V-90Q117 -92 117 -95Q116 -97 116 -104V-239Q116 -269 128 -285Q139 -301 166
-301Q192 -301 204 -285Q216 -269 216 -238V-87H241V-238Q241 -281 221 -302Q201 -323 165 -323Z" />
<glyph unicode="V" glyph-name="uni0056" horiz-adv-x="330" d="M0 0V590H90V0H0ZM120 0V590H150V0H120ZM180 0V590H240V0H180ZM81 -87H108L168 -265L224 -87H250L172 -320H160L81 -87Z" />
<glyph unicode="W" glyph-name="uni0057" horiz-adv-x="330" d="M0 0V590H90V0H0ZM120 0V590H150V0H120ZM240 0V590H300V0H240ZM78 -87H102L127 -244L165 -104H173L210 -245L231 -87H253L217 -319H207L167 -168L126 -319H115L78 -87Z" />
<glyph unicode="X" glyph-name="uni0058" horiz-adv-x="330" d="M0 0V590H90V0H0ZM180 0V590H210V0H180ZM240 0V590H300V0H240ZM150 -201L88 -87H116L165 -175L213 -87H239L180 -200L246 -319H217L165 -227L115 -319H87L150 -201Z" />
<glyph unicode="Y" glyph-name="uni0059" horiz-adv-x="330" d="M0 0V590H90V0H0ZM120 0V590H180V0H120ZM210 0V590H240V0H210ZM154 -228L82 -87H112L169 -200L220 -87H248L182 -228V-319H154V-228Z" />
<glyph unicode="Z" glyph-name="uni005A" horiz-adv-x="330" d="M0 0V590H90V0H0ZM120 0V590H180V0H120ZM270 0V590H300V0H270ZM91 -301L207 -111H95V-87H238V-106L123 -296H228Q234 -296 237 -295Q239 -294 242 -292H244V-319H91V-301Z" />
<glyph unicode="[" glyph-name="uni005B" horiz-adv-x="330" d="M0 0V590H90V0H0ZM180 0V590H240V0H180ZM270 0V590H300V0H270ZM121 -70H227V-92H144V-331H227V-352H121V-70Z" />
<glyph unicode="\" glyph-name="uni005C" horiz-adv-x="330" d="M0 0V590H90V0H0ZM120 0V590H240V0H120ZM270 0V590H300V0H270ZM96 -83L118 -72L234 -324L213 -335L96 -83Z" />
<glyph unicode="]" glyph-name="uni005D" horiz-adv-x="330" d="M0 0V590H60V0H0ZM120 0V590H150V0H120ZM270 0V590H300V0H270ZM121 -352V-331H204V-92H121V-70H227V-352H121Z" />
<glyph unicode="^" glyph-name="uni005E" horiz-adv-x="330" d="M0 0V590H120V0H0ZM210 0V590H240V0H210ZM270 0V590H300V0H270ZM107 -183L163 -87H172L222 -182L202 -191L166 -126L125 -191L107 -183Z" />
<glyph unicode="_" glyph-name="uni005F" horiz-adv-x="330" d="M0 0V590H30V0H0ZM60 0V590H90V0H60ZM150 0V590H210V0H150ZM85 -326H245V-349H85V-326Z" />
<glyph unicode="`" glyph-name="uni0060" horiz-adv-x="330" d="M0 0V590H30V0H0ZM60 0V590H90V0H60ZM210 0V590H270V0H210ZM129 -80L150 -65L181 -121L167 -131L129 -80Z" />
<glyph unicode="a" glyph-name="uni0061" horiz-adv-x="330" d="M0 0V590H30V0H0ZM90 0V590H120V0H90ZM150 0V590H210V0H150ZM163 -145Q199 -145 218 -164Q237 -183 237 -229V-319H208V-293Q193 -323 150 -323Q122 -323 106 -310Q90 -297 90 -276Q90 -258 102
-245Q113 -232 133 -224Q152 -217 176 -217Q197 -217 214 -219Q212 -191 199 -179Q186 -167 161 -167Q148 -167 137 -172Q125 -177 115 -186L102 -169Q126 -145 163 -145ZM153 -303Q181 -303 197 -286Q213 -270 214 -240Q197 -237 178 -237Q150 -237 133 -247Q117
-256 117 -275Q117 -303 153 -303Z" />
<glyph unicode="b" glyph-name="uni0062" horiz-adv-x="330" d="M0 0V590H30V0H0ZM90 0V590H120V0H90ZM240 0V590H300V0H240ZM171 -323Q156 -323 143 -316Q130 -309 121 -297L111 -319H94V-72H125V-74Q123 -77 122 -79Q121 -82 121 -88V-175Q130 -161 144 -153Q158
-145 172 -145Q204 -145 223 -167Q242 -190 242 -232Q242 -261 232 -282Q222 -303 205 -313Q189 -323 171 -323ZM168 -299Q188 -299 201 -283Q214 -268 214 -234Q214 -201 202 -185Q189 -168 168 -168Q147 -168 134 -187Q121 -205 121 -235Q121 -299 168 -299Z"
/>
<glyph unicode="c" glyph-name="uni0063" horiz-adv-x="330" d="M0 0V590H30V0H0ZM150 0V590H180V0H150ZM210 0V590H270V0H210ZM178 -323Q153 -323 134 -312Q115 -300 104 -280Q93 -260 93 -234Q93 -209 104 -189Q115 -169 134 -157Q153 -146 178 -146Q198 -146
215 -154Q231 -162 242 -177L225 -194L223 -196L221 -194Q221 -191 219 -188Q218 -186 214 -182Q206 -175 197 -172Q187 -168 175 -168Q160 -168 148 -176Q135 -184 128 -199Q120 -213 120 -232Q120 -251 128 -267Q136 -282 149 -290Q163 -299 179 -299Q205 -299
224 -278L239 -296Q214 -323 178 -323Z" />
<glyph unicode="d" glyph-name="uni0064" horiz-adv-x="330" d="M0 0V590H30V0H0ZM150 0V590H180V0H150ZM240 0V590H300V0H240ZM159 -323Q141 -323 125 -312Q109 -302 99 -282Q89 -261 89 -232Q89 -203 99 -183Q110 -164 126 -154Q142 -145 160 -145Q178 -145
190 -152Q203 -160 210 -174V-72H238V-74Q236 -77 235 -79Q235 -82 235 -88V-293Q235 -302 236 -307Q236 -313 239 -319H213Q210 -313 209 -307Q209 -302 209 -293Q201 -307 188 -315Q175 -323 159 -323ZM163 -299Q186 -299 197 -281Q208 -263 208 -233Q208 -203
196 -185Q184 -167 161 -167Q139 -167 127 -183Q115 -200 115 -228Q115 -261 127 -280Q140 -299 163 -299Z" />
<glyph unicode="e" glyph-name="uni0065" horiz-adv-x="330" d="M0 0V590H30V0H0ZM60 0V590H120V0H60ZM180 0V590H210V0H180ZM173 -323Q135 -323 113 -300Q90 -277 90 -235Q90 -207 101 -186Q111 -166 129 -156Q146 -145 168 -145Q199 -145 218 -165Q237 -186
237 -226Q237 -230 237 -238H116Q117 -269 133 -285Q149 -301 174 -301Q201 -301 218 -282L233 -297Q211 -323 173 -323ZM210 -217Q210 -193 198 -179Q186 -165 166 -165Q148 -165 134 -178Q120 -191 117 -217H210Z" />
<glyph unicode="f" glyph-name="uni0066" horiz-adv-x="330" d="M0 0V590H30V0H0ZM60 0V590H120V0H60ZM240 0V590H270V0H240ZM132 -170H95V-149H132V-135Q132 -102 149 -86Q166 -70 195 -70Q211 -70 225 -75Q239 -81 248 -93L234 -113L231 -116L229 -114Q229 -113
229 -111Q228 -109 227 -106Q225 -103 222 -101Q217 -96 211 -93Q205 -91 195 -91Q178 -91 168 -102Q158 -112 158 -135V-149H214V-170H158V-319H132V-170Z" />
<glyph unicode="g" glyph-name="uni0067" horiz-adv-x="330" d="M0 0V590H30V0H0ZM90 0V590H150V0H90ZM180 0V590H210V0H180ZM249 -167Q245 -166 239 -166Q221 -166 209 -174Q216 -187 216 -202Q216 -219 208 -232Q201 -246 187 -254Q174 -261 156 -261Q142 -261
130 -256Q123 -264 123 -272Q123 -281 134 -285Q146 -289 175 -289Q211 -289 224 -299Q237 -310 237 -332Q237 -354 220 -368Q202 -383 164 -383Q127 -383 107 -372Q86 -361 86 -339Q86 -326 94 -316Q101 -306 113 -301Q100 -293 100 -278Q100 -263 115 -247Q106
-239 101 -227Q97 -216 97 -202Q97 -186 104 -172Q111 -158 125 -151Q138 -143 156 -143Q183 -143 200 -160Q208 -152 218 -148Q227 -144 239 -144L245 -145L249 -167ZM156 -239Q172 -239 183 -228Q193 -218 193 -202Q193 -186 183 -175Q172 -165 156 -165Q140
-165 129 -175Q119 -186 119 -202Q119 -218 129 -228Q140 -239 156 -239ZM213 -336Q213 -327 210 -322Q207 -317 197 -314Q188 -312 169 -312Q143 -312 127 -307Q118 -313 114 -319Q111 -326 111 -336Q111 -349 125 -356Q139 -363 164 -363Q189 -363 201 -356Q213
-348 213 -336Z" />
<glyph unicode="h" glyph-name="uni0068" horiz-adv-x="330" d="M0 0V590H30V0H0ZM90 0V590H150V0H90ZM270 0V590H300V0H270ZM99 -72H129V-74Q126 -77 126 -79Q125 -82 125 -88V-179Q135 -164 150 -154Q165 -145 181 -145Q205 -145 219 -162Q233 -179 233 -216V-319H207V-217Q207
-191 198 -180Q189 -168 175 -168Q163 -168 152 -175Q140 -181 133 -194Q125 -206 125 -221V-319H99V-72Z" />
<glyph unicode="i" glyph-name="uni0069" horiz-adv-x="330" d="M0 0V590H30V0H0ZM150 0V590H210V0H150ZM240 0V590H270V0H240ZM109 -297H153V-171H111V-149H179V-297H219V-319H109V-297ZM165 -113Q157 -113 151 -108Q146 -102 146 -94Q146 -86 151 -81Q156 -75
165 -75Q172 -75 178 -81Q184 -87 184 -94Q184 -102 178 -108Q172 -113 165 -113Z" />
<glyph unicode="j" glyph-name="uni006A" horiz-adv-x="330" d="M0 0V590H30V0H0ZM150 0V590H210V0H150ZM270 0V590H300V0H270ZM144 -384Q128 -384 114 -378Q100 -372 90 -360L105 -340L107 -337L109 -338Q109 -339 110 -341Q110 -344 112 -347Q113 -349 116 -351Q128
-361 144 -361Q161 -361 172 -349Q182 -337 182 -312V-171H119V-149H209V-311Q209 -348 191 -366Q173 -384 144 -384ZM194 -113Q186 -113 180 -108Q175 -102 175 -94Q175 -86 180 -81Q185 -75 194 -75Q201 -75 207 -81Q213 -87 213 -94Q213 -102 207 -108Q201 -113
194 -113Z" />
<glyph unicode="k" glyph-name="uni006B" horiz-adv-x="330" d="M0 0V590H60V0H0ZM180 0V590H210V0H180ZM270 0V590H300V0H270ZM146 -234L124 -255V-319H97V-72H127V-74Q125 -77 124 -79Q124 -82 124 -88V-227L209 -148Q218 -150 229 -150H238L167 -218L250 -319L216
-320L146 -234Z" />
<glyph unicode="l" glyph-name="uni006C" horiz-adv-x="330" d="M0 0V590H60V0H0ZM120 0V590H150V0H120ZM180 0V590H210V0H180ZM101 -297H152V-93H104V-72H179V-297H229V-319H101V-297Z" />
<glyph unicode="m" glyph-name="uni006D" horiz-adv-x="330" d="M0 0V590H120V0H0ZM150 0V590H240V0H150ZM270 0V590H300V0H270ZM86 -149H111V-166Q117 -157 126 -151Q135 -145 145 -145Q156 -145 165 -152Q173 -159 175 -170Q180 -159 191 -152Q201 -145 214
-145Q230 -145 239 -157Q247 -169 246 -189V-319H222V-199Q222 -177 218 -171Q214 -165 206 -165Q199 -165 193 -171Q187 -177 183 -187Q179 -197 179 -207V-319H154V-201Q154 -180 150 -173Q146 -165 135 -165Q130 -165 124 -170Q118 -175 114 -185Q111 -194 111
-206V-319H86V-149Z" />
<glyph unicode="n" glyph-name="uni006E" horiz-adv-x="330" d="M0 0V590H60V0H0ZM180 0V590H210V0H180ZM240 0V590H270V0H240ZM99 -149H125V-179Q135 -164 150 -154Q165 -145 182 -145Q205 -145 219 -162Q232 -180 232 -216V-319H206V-217Q206 -191 198 -180Q189
-168 175 -168Q163 -168 152 -175Q140 -182 132 -194Q125 -206 125 -221V-319H99V-149Z" />
<glyph unicode="o" glyph-name="uni006F" horiz-adv-x="330" d="M0 0V590H30V0H0ZM120 0V590H240V0H120ZM270 0V590H300V0H270ZM165 -322Q142 -322 124 -311Q107 -300 97 -280Q86 -260 86 -234Q86 -208 97 -188Q107 -168 124 -157Q142 -145 165 -145Q188 -145
205 -157Q223 -168 233 -188Q243 -208 243 -234Q243 -260 233 -280Q223 -300 205 -311Q188 -322 165 -322ZM165 -300Q179 -300 191 -291Q202 -283 209 -268Q215 -252 215 -233Q215 -204 201 -186Q187 -168 165 -168Q143 -168 129 -186Q115 -204 115 -233Q115 -252
121 -268Q128 -283 139 -291Q150 -300 165 -300Z" />
<glyph unicode="p" glyph-name="uni0070" horiz-adv-x="330" d="M0 0V590H30V0H0ZM60 0V590H90V0H60ZM150 0V590H270V0H150ZM94 -149H121V-183Q127 -164 141 -155Q155 -145 173 -145Q192 -145 209 -155Q225 -165 234 -185Q244 -204 244 -233Q244 -261 234 -282Q224
-303 208 -313Q191 -323 172 -323Q157 -323 144 -316Q130 -309 122 -297V-381H94V-149ZM168 -300Q188 -300 202 -284Q216 -269 216 -234Q216 -202 204 -185Q192 -168 169 -168Q148 -168 135 -186Q121 -204 121 -240Q122 -269 134 -284Q147 -300 168 -300Z" />
<glyph unicode="q" glyph-name="uni0071" horiz-adv-x="330" d="M0 0V590H30V0H0ZM90 0V590H120V0H90ZM150 0V590H270V0H150ZM210 -292Q202 -306 188 -315Q174 -323 158 -323Q138 -323 122 -311Q106 -300 97 -280Q88 -260 88 -233Q88 -206 98 -186Q108 -166 125
-155Q142 -145 162 -145Q180 -145 192 -152Q204 -160 211 -174V-149H236V-381H210V-292ZM162 -299Q183 -299 196 -282Q209 -265 209 -229Q209 -167 165 -167Q143 -167 129 -183Q115 -200 115 -232Q115 -263 128 -281Q140 -299 162 -299Z" />
<glyph unicode="r" glyph-name="uni0072" horiz-adv-x="330" d="M0 0V590H30V0H0ZM90 0V590H120V0H90ZM180 0V590H300V0H180ZM197 -145Q224 -145 242 -164L230 -184L229 -188L226 -186Q225 -182 224 -180Q222 -177 217 -174Q208 -168 195 -168Q182 -168 170 -175Q158
-181 151 -195Q143 -209 143 -229V-319H116V-149H144L143 -180Q150 -164 165 -154Q180 -145 197 -145Z" />
<glyph unicode="s" glyph-name="uni0073" horiz-adv-x="330" d="M0 0V590H30V0H0ZM60 0V590H180V0H60ZM240 0V590H270V0H240ZM165 -323Q122 -323 93 -296L108 -271L110 -267L113 -269Q113 -270 113 -272Q114 -275 115 -277Q117 -280 119 -283Q128 -291 139 -296Q150
-300 166 -300Q186 -300 198 -293Q209 -286 209 -273Q209 -262 200 -255Q191 -248 166 -241Q102 -222 102 -188Q102 -168 119 -157Q135 -145 165 -145Q188 -145 204 -152Q220 -158 233 -172L217 -190L215 -193L213 -191Q213 -187 211 -185Q210 -182 206 -179Q197
-172 187 -169Q176 -165 166 -165Q150 -165 139 -171Q129 -176 129 -186Q129 -196 140 -203Q150 -211 177 -219Q209 -229 222 -240Q236 -251 236 -270Q236 -293 218 -308Q200 -323 165 -323Z" />
<glyph unicode="t" glyph-name="uni0074" horiz-adv-x="330" d="M0 0V590H30V0H0ZM90 0V590H210V0H90ZM240 0V590H270V0H240ZM237 -303Q213 -322 183 -322Q155 -322 143 -305Q131 -287 131 -249Q131 -242 132 -227L136 -171H98V-149H137L140 -104L169 -99H173V-101Q171
-104 170 -107Q168 -110 168 -115L164 -149H220V-171H162L159 -229Q158 -244 158 -248Q158 -278 165 -289Q172 -299 187 -299Q198 -299 208 -295Q217 -291 229 -282L237 -303Z" />
<glyph unicode="u" glyph-name="uni0075" horiz-adv-x="330" d="M0 0V590H30V0H0ZM90 0V590H210V0H90ZM270 0V590H300V0H270ZM154 -323Q127 -323 111 -303Q95 -283 96 -244V-149H122V-244Q122 -274 133 -288Q143 -302 161 -302Q180 -302 193 -286Q207 -271 207
-243V-149H233V-293Q233 -302 233 -307Q234 -313 236 -319H211Q208 -313 208 -307Q207 -302 207 -293Q199 -307 185 -315Q171 -323 154 -323Z" />
<glyph unicode="v" glyph-name="uni0076" horiz-adv-x="330" d="M0 0V590H120V0H0ZM150 0V590H180V0H150ZM240 0V590H270V0H240ZM241 -149Q235 -179 216 -223L175 -319H154L87 -149H114L166 -282L194 -219Q211 -181 216 -149H241Z" />
<glyph unicode="w" glyph-name="uni0077" horiz-adv-x="330" d="M0 0V590H120V0H0ZM180 0V590H210V0H180ZM240 0V590H270V0H240ZM78 -149H101L129 -286L158 -165H174L210 -285Q221 -216 223 -194Q226 -172 226 -155V-149H251Q240 -235 223 -319H197L166 -209L136
-319H112L78 -149Z" />
<glyph unicode="x" glyph-name="uni0078" horiz-adv-x="330" d="M0 0V590H120V0H0ZM180 0V590H210V0H180ZM270 0V590H300V0H270ZM149 -233L91 -149H120L164 -212L207 -149H234L179 -232L242 -319H211L164 -253L120 -319H89L149 -233Z" />
<glyph unicode="y" glyph-name="uni0079" horiz-adv-x="330" d="M0 0V590H60V0H0ZM90 0V590H150V0H90ZM180 0V590H300V0H180ZM237 -149Q234 -164 230 -179Q225 -194 217 -219L174 -338Q166 -362 152 -373Q138 -384 119 -384Q95 -384 80 -369L92 -351L94 -348L96
-349Q97 -353 99 -355Q101 -358 106 -360Q113 -362 121 -362Q134 -362 143 -352Q151 -342 159 -320L89 -149H117L170 -285L192 -217Q200 -191 204 -178Q208 -164 210 -149H237Z" />
<glyph unicode="z" glyph-name="uni007A" horiz-adv-x="330" d="M0 0V590H60V0H0ZM90 0V590H210V0H90ZM240 0V590H300V0H240ZM91 -301L196 -173H98V-149H230V-167L127 -296H223Q229 -296 232 -295Q234 -294 237 -292H239V-319H91V-301Z" />
<glyph unicode="{" glyph-name="uni007B" horiz-adv-x="330" d="M0 0V590H120V0H0ZM150 0V590H210V0H150ZM240 0V590H300V0H240ZM210 -378Q182 -378 164 -373Q147 -367 138 -353Q130 -339 131 -313L133 -276Q133 -252 124 -243Q116 -234 99 -234H92V-213H99Q116
-213 125 -204Q133 -194 133 -174V-147Q133 -82 200 -82H224V-103H193Q159 -103 159 -143V-169Q159 -210 127 -224Q159 -234 159 -281L158 -313Q158 -338 168 -347Q179 -357 204 -357H223V-378H210Z" />
<glyph unicode="|" glyph-name="uni007C" horiz-adv-x="330" d="M0 0V590H30V0H0ZM60 0V590H90V0H60ZM120 0V590H240V0H120ZM153 -77H178V-375H153V-77Z" />
<glyph unicode="}" glyph-name="uni007D" horiz-adv-x="330" d="M0 0V590H30V0H0ZM60 0V590H90V0H60ZM180 0V590H300V0H180ZM92 -378V-357H111Q137 -357 147 -347Q158 -338 158 -313L157 -281Q157 -234 189 -224Q156 -210 156 -169L157 -143Q157 -103 123 -103H92V-82H115Q183
-82 183 -147L182 -174Q182 -194 191 -204Q200 -213 217 -213H224V-234H217Q200 -234 191 -243Q183 -252 183 -276L185 -313Q186 -339 177 -353Q169 -367 152 -373Q134 -378 106 -378H92Z" />
<glyph unicode="~" glyph-name="uni007E" horiz-adv-x="330" d="M0 0V590H30V0H0ZM120 0V590H150V0H120ZM180 0V590H300V0H180ZM201 -220Q192 -220 185 -217Q178 -214 169 -209Q161 -204 156 -202Q151 -200 145 -200Q136 -200 129 -204Q123 -208 117 -218L98 -209Q105
-196 116 -188Q128 -180 144 -180Q153 -180 160 -182Q166 -185 175 -190Q182 -195 188 -197Q194 -200 200 -200Q208 -200 213 -196Q219 -192 226 -182L243 -192Q234 -208 224 -214Q215 -220 201 -220Z" />
<glyph unicode="&#xa0;" glyph-name="uni00A0" horiz-adv-x="330" />
<glyph unicode="&#xc2;" glyph-name="uni00C2" horiz-adv-x="330" d="M0 0V590H60V0H0ZM90 0V590H150V0H90ZM210 0V590H270V0H210Z" />
<glyph unicode="&#xc3;" glyph-name="uni00C3" horiz-adv-x="330" d="M0 0V590H30V0H0ZM60 0V590H180V0H60ZM210 0V590H240V0H210Z" />
<glyph unicode="&#xc4;" glyph-name="uni00C4" horiz-adv-x="330" d="M0 0V590H30V0H0ZM60 0V590H180V0H60ZM270 0V590H300V0H270Z" />
<glyph unicode="&#xc5;" glyph-name="uni00C5" horiz-adv-x="330" d="M0 0V590H120V0H0ZM150 0V590H180V0H150ZM210 0V590H240V0H210Z" />
<glyph unicode="&#xc6;" glyph-name="uni00C6" horiz-adv-x="330" d="M0 0V590H120V0H0ZM150 0V590H180V0H150ZM270 0V590H300V0H270Z" />
<glyph unicode="&#xc7;" glyph-name="uni00C7" horiz-adv-x="330" d="M0 0V590H30V0H0ZM60 0V590H150V0H60ZM180 0V590H300V0H180Z" />
<glyph unicode="&#xc8;" glyph-name="uni00C8" horiz-adv-x="330" d="M0 0V590H30V0H0ZM60 0V590H180V0H60ZM210 0V590H300V0H210Z" />
<glyph unicode="&#xc9;" glyph-name="uni00C9" horiz-adv-x="330" d="M0 0V590H90V0H0ZM120 0V590H150V0H120ZM180 0V590H300V0H180Z" />
<glyph unicode="&#xca;" glyph-name="uni00CA" horiz-adv-x="330" d="M0 0V590H120V0H0ZM150 0V590H180V0H150ZM210 0V590H300V0H210Z" />
<glyph unicode="&#xcb;" glyph-name="uni00CB" horiz-adv-x="330" d="M0 0V590H60V0H0ZM90 0V590H120V0H90ZM240 0V590H270V0H240Z" />
<glyph unicode="&#xcc;" glyph-name="uni00CC" horiz-adv-x="330" d="M0 0V590H60V0H0ZM90 0V590H120V0H90ZM180 0V590H210V0H180Z" />
<glyph unicode="&#xcd;" glyph-name="uni00CD" horiz-adv-x="330" d="M0 0V590H60V0H0ZM90 0V590H120V0H90ZM180 0V590H270V0H180Z" />
<glyph unicode="&#xce;" glyph-name="uni00CE" horiz-adv-x="390" d="M0 0V590H60V0H0ZM150 0V590H240V0H150ZM270 0V590H300V0H270ZM330 0V590H390V0H330Z" />
</font>
</defs>
</svg>
