<?xml version="1.0" standalone="no"?>
<!DOCTYPE svg PUBLIC "-//W3C//DTD SVG 1.1//EN" "http://www.w3.org/Graphics/SVG/1.1/DTD/svg11.dtd">
<svg xmlns="http://www.w3.org/2000/svg">
<defs >
<font id="PassionOne" horiz-adv-x="437" ><font-face
    font-family="Passion One Black"
    units-per-em="1000"
    panose-1="2 0 5 3 8 0 0 2 0 4"
    ascent="835"
    descent="-266"
    alphabetic="0" />
<glyph unicode=" " glyph-name="space" horiz-adv-x="175" />
<glyph unicode="!" glyph-name="exclam" horiz-adv-x="272" d="M34 176L20 615H262L245 176H34ZM30 59V90Q30 127 51 142T123 158H154Q209 158 230 143T252 90V59Q252 21 230 6T152 -10H120Q71 -10 51 5T30 59Z" />
<glyph unicode="&quot;" glyph-name="quotedbl" horiz-adv-x="487" d="M20 551V582Q20 619 41 634T113 650H144Q199 650 220 635T242 582V548Q242 495 218 458T139 387H61L90 482H80Q47 482 34 497T20 551ZM255 551V582Q255 619 276 634T348 650H379Q434 650 455
635T477 582V548Q477 495 453 458T374 387H296L325 482H315Q282 482 269 497T255 551Z" />
<glyph unicode="#" glyph-name="numbersign" horiz-adv-x="560" d="M552 309H489L487 287H539V141H472L457 0H262L277 141H252L237 0H34L52 141H8V287H66L69 309H22V452H82L101 591H297L282 452H304L319 591H517L502 452H552V309ZM291 314H267L263 282H287L291 314Z" />
<glyph unicode="$" glyph-name="dollar" horiz-adv-x="529" d="M33 271T17 311T0 420T38 541T149 616V693H381V626Q434 621 513 609L494 410L271 444V425Q405 407 467 361T529 202Q529 44 382 4V-64H149V-4Q99 0 19 20L27 202L257 158V176Q190 190 148 204T70 245Z" />
<glyph unicode="%" glyph-name="percent" horiz-adv-x="1051" d="M329 630T369 580T410 405T370 231T208 181T45 230T4 404T45 579T207 630ZM966 439T1006 389T1047 214T1007 40T845 -10T682 39T641 213T682 388T844 439ZM694 621L566 0H359L486 621H694ZM221
298V492H196V298H221ZM858 107V301H833V107H858Z" />
<glyph unicode="&amp;" glyph-name="ampersand" horiz-adv-x="698" d="M279 -10Q0 -10 0 179Q0 247 29 284T115 345V349Q59 393 59 460Q59 631 314 631Q437 631 502 589T568 473T538 364T434 305V301L485 250H489V305H687V252Q687 174 646 134L648 130H698L690
-10H588Q502 -10 455 15H447Q369 -10 279 -10ZM336 385V467H300V385H336ZM317 130L238 206V149Q238 130 258 130H317Z" />
<glyph unicode="&apos;" glyph-name="quotesingle" horiz-adv-x="252" d="M10 551V582Q10 619 31 634T103 650H134Q189 650 210 635T232 582V548Q232 495 208 458T129 387H51L80 482H70Q37 482 24 497T10 551Z" />
<glyph unicode="(" glyph-name="parenleft" horiz-adv-x="402" d="M210 645L406 595Q288 450 288 259T406 -106L202 -147Q108 -60 60 32T12 251T60 472T210 645Z" />
<glyph unicode=")" glyph-name="parenright" horiz-adv-x="402" d="M294 565T342 471T390 253T341 34T199 -147L-4 -106Q116 55 116 251T-4 594L193 645Q294 565 342 471Z" />
<glyph unicode="*" glyph-name="asterisk" horiz-adv-x="486" d="M478 446L383 416L451 326L324 248L246 330L173 249L47 323L101 414L8 446L36 566L152 547L163 640H328L336 547L445 566L478 446Z" />
<glyph unicode="+" glyph-name="plus" horiz-adv-x="449" d="M127 87V188H15V378H127V498H321V378H434V188H321V87H127Z" />
<glyph unicode="," glyph-name="comma" horiz-adv-x="242" d="M10 59V90Q10 127 31 142T103 158H134Q189 158 210 143T232 90V56Q232 3 208 -34T129 -105H51L80 -10H70Q37 -10 24 5T10 59Z" />
<glyph unicode="-" glyph-name="hyphen" horiz-adv-x="388" d="M373 146H15V340H373V146Z" />
<glyph unicode="." glyph-name="period" horiz-adv-x="242" d="M10 59V90Q10 127 31 142T103 158H134Q189 158 210 143T232 90V59Q232 21 210 6T132 -10H100Q51 -10 31 5T10 59Z" />
<glyph unicode="/" glyph-name="slash" horiz-adv-x="383" d="M393 621L237 -137H-10L145 621H393Z" />
<glyph unicode="0" glyph-name="zero" horiz-adv-x="583" d="M558 512T569 456T581 310T570 164T527 67T438 8T292 -10T145 7T57 66T14 164T2 309T13 455T56 553T144 613T291 631T438 613T526 554ZM312 157V435H276V157H312Z" />
<glyph unicode="1" glyph-name="one" horiz-adv-x="359" d="M339 0H57V397H0V560L92 621H339V0Z" />
<glyph unicode="2" glyph-name="two" horiz-adv-x="505" d="M248 630Q502 630 502 440Q502 364 474 312T385 200V194H500V0H24L18 153Q162 282 162 361Q162 391 132 391Q108 391 21 376L2 600Q114 630 248 630Z" />
<glyph unicode="3" glyph-name="three" horiz-adv-x="520" d="M0 598Q127 630 253 630T444 589T508 456Q508 407 493 378T438 324V320Q518 282 518 180T456 34T264 -10T15 14L33 206Q177 190 189 190T205 194T210 209T205 224T186 228H50V375H186Q197 375 201
379T206 393T201 407T175 411T19 390L0 598Z" />
<glyph unicode="4" glyph-name="four" horiz-adv-x="577" d="M569 97H526V0H244V97H15L0 236L143 621H526V263H577L569 97ZM259 259V343H223V259H259Z" />
<glyph unicode="5" glyph-name="five" horiz-adv-x="511" d="M414 402T460 362T507 215T445 49T242 -10Q134 -10 12 15L26 208Q208 192 225 192T245 195T249 207Q249 223 233 223L8 231V621H475V423H249V398Q287 402 308 402Q414 402 460 362Z" />
<glyph unicode="6" glyph-name="six" horiz-adv-x="568" d="M279 400H347Q464 400 519 356T574 207T509 46T293 -10T73 61T2 286Q2 466 92 543T376 621H536L525 423H306Q279 423 279 400ZM311 143V260H275V143H311Z" />
<glyph unicode="7" glyph-name="seven" horiz-adv-x="469" d="M465 452L347 0H20L140 397H0V621H465V452Z" />
<glyph unicode="8" glyph-name="eight" horiz-adv-x="579" d="M288 631Q566 631 566 459Q566 403 548 373T480 317V311Q532 298 553 267T575 181Q575 82 503 36T294 -10Q4 -10 4 173Q4 273 99 308V314Q52 338 32 369T11 455Q11 543 85 587T288 631ZM310 129V252H274V129H310ZM310
368V472H274V368H310Z" />
<glyph unicode="9" glyph-name="nine" horiz-adv-x="568" d="M289 205H217Q105 205 50 248T-6 399Q-6 621 270 621Q429 621 497 547T566 306T476 65T192 -10H32L43 182H264Q278 182 283 187T289 205ZM257 443V326H293V443H257Z" />
<glyph unicode=":" glyph-name="colon" horiz-adv-x="242" d="M10 59V90Q10 127 31 142T103 158H134Q189 158 210 143T232 90V59Q232 21 210 6T132 -10H100Q51 -10 31 5T10 59ZM10 359V390Q10 427 31 442T103 458H134Q189 458 210 443T232 390V359Q232 321 210
306T132 290H100Q51 290 31 305T10 359Z" />
<glyph unicode=";" glyph-name="semicolon" horiz-adv-x="242" d="M10 59V90Q10 127 31 142T103 158H134Q189 158 210 143T232 90V56Q232 3 208 -34T129 -105H51L80 -10H70Q37 -10 24 5T10 59ZM10 359V390Q10 427 31 442T103 458H134Q189 458 210 443T232 390V359Q232
321 210 306T132 290H100Q51 290 31 305T10 359Z" />
<glyph unicode="&lt;" glyph-name="less" horiz-adv-x="342" d="M327 -21L5 199V331L327 551V322L244 266L327 211V-21Z" />
<glyph unicode="=" glyph-name="equal" horiz-adv-x="448" d="M428 270H20V429H428V270ZM428 86H20V246H428V86Z" />
<glyph unicode="&gt;" glyph-name="greater" horiz-adv-x="342" d="M337 199L15 -21V211L98 266L15 322V551L337 331V199Z" />
<glyph unicode="?" glyph-name="question" horiz-adv-x="392" d="M392 438Q392 353 361 308T253 234V175H47V278Q47 315 60 330T104 358T142 379T150 403Q150 431 120 431Q99 431 10 420V612Q98 625 168 625Q392 625 392 438ZM39 59V90Q39 127 60 142T132 158H163Q218
158 239 143T261 90V59Q261 21 239 6T161 -10H129Q80 -10 60 5T39 59Z" />
<glyph unicode="@" glyph-name="at" horiz-adv-x="1052" d="M268 419T321 455T523 491T727 463T782 356V161H802V356Q802 448 740 480T516 512T300 470T244 287V146Q244 45 285 8T419 -30H803V-194Q622 -217 509 -217T328 -212T201 -188T107 -140T48 -58T14 65T4
257T28 462T117 602T283 676T519 697T729 689T862 659T954 608T1010 528T1040 420T1048 276T1039 140T1004 53T930 4T805 -10H641Q580 -10 555 21H551Q526 -10 462 -10H419Q336 -10 301 25T265 151T288 265T410 289H532V306H268Q268 419 321 455ZM513 194V114H533V194H513Z"
/>
<glyph unicode="A" glyph-name="A" horiz-adv-x="665" d="M673 0H383L367 95H289L272 0H-8L113 621H552L673 0ZM345 228V352H313V228H345Z" />
<glyph unicode="B" glyph-name="B" horiz-adv-x="631" d="M627 183Q627 93 575 47T402 0H20V621H398Q615 621 615 457Q615 406 603 378T555 330V326Q627 298 627 183ZM332 127V250H300V127H332ZM332 364V468H300V364H332Z" />
<glyph unicode="C" glyph-name="C" horiz-adv-x="468" d="M338 249T349 234T382 219T445 227L460 0Q388 -10 325 -10Q163 -10 85 66T6 314T87 558T341 630Q385 630 460 620L443 381Q403 386 382 386T349 372T338 304Z" />
<glyph unicode="D" glyph-name="D" horiz-adv-x="637" d="M631 324Q631 0 289 0H20V621H295Q478 621 554 545T631 324ZM326 157V435H294V157H326Z" />
<glyph unicode="E" glyph-name="E" horiz-adv-x="489" d="M470 0H20V621H489L474 417H302V381H470L460 215H302V179H485L470 0Z" />
<glyph unicode="F" glyph-name="F" horiz-adv-x="478" d="M302 220V0H20V621H478L463 417H302V381H460L450 220H302Z" />
<glyph unicode="G" glyph-name="G" horiz-adv-x="613" d="M556 392Q367 410 351 410T330 405T325 383V157H357V338H603V0H409L399 26H395Q343 -10 259 -10Q6 -10 6 313Q6 473 82 551T337 630Q440 630 582 606L556 392Z" />
<glyph unicode="H" glyph-name="H" horiz-adv-x="640" d="M620 0H336V218H304V0H20V621H304V390H336V621H620V0Z" />
<glyph unicode="I" glyph-name="I" horiz-adv-x="322" d="M302 0H20V621H302V0Z" />
<glyph unicode="J" glyph-name="J" horiz-adv-x="353" d="M333 621V131Q333 53 302 22T179 -10H11L0 171H51V621H333Z" />
<glyph unicode="K" glyph-name="K" horiz-adv-x="661" d="M659 0H368L327 216H317V0H35V621H317V369H327L379 621H661L593 309L659 0Z" />
<glyph unicode="L" glyph-name="L" horiz-adv-x="406" d="M392 0H20V621H302V199H406L392 0Z" />
<glyph unicode="M" glyph-name="M" horiz-adv-x="817" d="M807 0H566L557 249H548L522 0H293L270 249H262L251 0H20L46 621H374L405 395H419L445 621H781L807 0Z" />
<glyph unicode="N" glyph-name="N" horiz-adv-x="652" d="M632 0H376L263 199V0H20V621H283L387 420V621H632V0Z" />
<glyph unicode="O" glyph-name="O" horiz-adv-x="670" d="M6 481T82 555T336 630T588 557T664 317T586 70T334 -10T83 69T6 314ZM357 157V435H325V157H357Z" />
<glyph unicode="P" glyph-name="P" horiz-adv-x="594" d="M331 173H302V0H20V621H319Q461 621 527 566T594 395T530 226T331 173ZM330 318V442H298V318H330Z" />
<glyph unicode="Q" glyph-name="Q" horiz-adv-x="670" d="M6 481T82 555T336 630T588 557T664 320Q664 120 518 51V47H653L634 -108H539Q422 -108 372 -65L307 -10Q159 -10 83 72T6 317ZM357 157V435H325V157H357Z" />
<glyph unicode="R" glyph-name="R" horiz-adv-x="623" d="M484 621T546 572T608 422T545 264L628 0H356L320 193H302V0H20V621H350Q484 621 546 572ZM330 340V442H298V340H330Z" />
<glyph unicode="S" glyph-name="S" horiz-adv-x="529" d="M529 204Q529 -10 272 -10Q145 -10 19 20L27 202L257 158V176Q190 190 148 204T70 245Q0 295 0 404T66 572T256 630T513 609L494 410L271 444V425Q405 407 467 361T529 204Z" />
<glyph unicode="T" glyph-name="T" horiz-adv-x="486" d="M473 419H383V0H100V419H0L10 621H486L473 419Z" />
<glyph unicode="U" glyph-name="U" horiz-adv-x="644" d="M304 621V177H336V621H624V208Q624 -10 319 -10Q174 -10 97 44T20 206V621H304Z" />
<glyph unicode="V" glyph-name="V" horiz-adv-x="636" d="M636 621L545 0H99L0 621H292L316 257H335L356 621H636Z" />
<glyph unicode="W" glyph-name="W" horiz-adv-x="816" d="M816 621L769 0H454L423 226H409L383 0H60L0 621H245L262 369H274L297 621H532L554 369H565L580 621H816Z" />
<glyph unicode="X" glyph-name="X" horiz-adv-x="654" d="M660 0H359L327 150H314L280 0H-6L92 315L6 621H302L330 473H342L366 621H644L567 315L660 0Z" />
<glyph unicode="Y" glyph-name="Y" horiz-adv-x="587" d="M599 621L432 161V0H150V162L-12 621H266L291 417H303L328 621H599Z" />
<glyph unicode="Z" glyph-name="Z" horiz-adv-x="581" d="M579 0L28 1L20 155L206 417H15L2 621H565L573 467L407 187H579V0Z" />
<glyph unicode="[" glyph-name="bracketleft" horiz-adv-x="386" d="M376 -137H44V630H376V486H299V6H376V-137Z" />
<glyph unicode="\" glyph-name="backslash" horiz-adv-x="383" d="M146 -137L-10 621H238L393 -137H146Z" />
<glyph unicode="]" glyph-name="bracketright" horiz-adv-x="386" d="M342 -137H10V6H89V486H10V630H342V-137Z" />
<glyph unicode="^" glyph-name="asciicircum" horiz-adv-x="500" d="M373 635L441 501H267L251 537H247L231 501H53L121 635H373Z" />
<glyph unicode="_" glyph-name="underscore" horiz-adv-x="400" d="M400 -137H0V0H400V-137Z" />
<glyph unicode="`" glyph-name="grave" horiz-adv-x="500" d="M224 511L105 641H339L403 511H224Z" />
<glyph unicode="a" glyph-name="a" horiz-adv-x="547" d="M525 346L520 174Q520 150 545 150L531 -6Q471 -10 435 -10Q345 -10 305 21H300Q240 -10 168 -10Q0 -10 0 136Q0 227 70 260Q107 277 152 284T266 294V315L38 296L19 472Q168 491 292 491T471 458T525
346ZM256 196V116H276V196H256Z" />
<glyph unicode="b" glyph-name="b" horiz-adv-x="576" d="M572 251Q572 117 530 54T367 -10Q305 -10 233 19L229 0H16V630H271V480Q307 491 364 491T465 477T532 431T564 357T572 251ZM289 131V321H269V131H289Z" />
<glyph unicode="c" glyph-name="c" horiz-adv-x="388" d="M308 281T300 272T292 234T299 197T320 188T372 192L383 1Q317 -10 267 -10Q133 -10 69 48T4 231Q4 491 270 491Q333 491 388 481L371 277Q333 281 321 281Z" />
<glyph unicode="d" glyph-name="d" horiz-adv-x="583" d="M474 -10Q384 -10 342 20H337Q287 -10 222 -10Q4 -10 4 244Q4 364 61 427T227 491Q254 491 302 483V630H557V173Q557 150 581 150L567 -5Q500 -10 474 -10ZM309 131V321H289V131H309Z" />
<glyph unicode="e" glyph-name="e" horiz-adv-x="543" d="M541 298Q541 255 533 180H268V162Q311 157 354 157T515 163L525 12Q388 -10 280 -10Q2 -10 2 237Q2 491 291 491Q430 491 485 442T541 298ZM287 254V333H267V254H287Z" />
<glyph unicode="f" glyph-name="f" horiz-adv-x="321" d="M200 640Q248 640 336 634L327 491H285V474H326L320 325H289V0H27V325H0V474H27V493Q27 569 67 604T200 640Z" />
<glyph unicode="g" glyph-name="g" horiz-adv-x="554" d="M235 491H554V366H503V361Q528 334 528 287Q528 212 484 177T340 141H210V123H409Q481 123 514 97T547 17Q547 -63 472 -105T253 -147Q66 -147 27 -101Q10 -81 10 -45T50 9V13Q2 33 2 88Q2 155 77 179V184Q6
229 6 319T63 450T235 491ZM210 -7V-25H353V-7H210ZM266 340V245H286V340H266Z" />
<glyph unicode="h" glyph-name="h" horiz-adv-x="570" d="M320 491T400 491T520 453T560 349V0H293V299H273V0H10V630H265V465Q320 491 400 491Z" />
<glyph unicode="i" glyph-name="i" horiz-adv-x="282" d="M272 0H10V464H272V0ZM10 556V567Q10 645 123 645H154Q272 645 272 567V556Q272 477 154 477H122Q10 477 10 556Z" />
<glyph unicode="j" glyph-name="j" horiz-adv-x="296" d="M286 464V2Q286 -76 240 -106T79 -137H8L0 0H24V464H286ZM19 557V568Q19 646 132 646H163Q281 646 281 568V557Q281 478 163 478H131Q19 478 19 557Z" />
<glyph unicode="k" glyph-name="k" horiz-adv-x="561" d="M563 0H297L269 177H259V0H10V630H259V291H269L303 479H566L525 283Q519 254 492 240V236Q521 226 526 195L563 0Z" />
<glyph unicode="l" glyph-name="l" horiz-adv-x="297" d="M10 125V630H269V190Q269 166 295 166L287 -10H186Q10 -10 10 125Z" />
<glyph unicode="m" glyph-name="m" horiz-adv-x="858" d="M679 491Q848 491 848 354V0H581V299H561V0H293V299H273V0H10V479H252L256 452Q334 491 407 491T525 448Q596 491 679 491Z" />
<glyph unicode="n" glyph-name="n" horiz-adv-x="570" d="M256 452Q336 491 408 491T520 453T560 349V0H293V299H273V0H10V479H252L256 452Z" />
<glyph unicode="o" glyph-name="o" horiz-adv-x="568" d="M4 373T72 432T286 491T497 433T564 243T500 50T287 -10T72 50T4 241ZM296 131V321H276V131H296Z" />
<glyph unicode="p" glyph-name="p" horiz-adv-x="570" d="M345 -10Q316 -10 273 0V-137H10V479H242L246 459Q296 491 367 491Q482 491 524 435T566 246T520 52T345 -10ZM283 131V321H263V131H283Z" />
<glyph unicode="q" glyph-name="q" horiz-adv-x="572" d="M107 -10T56 53T4 239T56 426T207 491Q272 491 326 461L329 479H562V-137H299V-1Q267 -10 232 -10Q107 -10 56 53ZM309 131V321H289V131H309Z" />
<glyph unicode="r" glyph-name="r" horiz-adv-x="349" d="M273 228V0H10V479H230L232 454H236Q266 483 347 483L336 277H324Q296 277 285 267T273 228Z" />
<glyph unicode="s" glyph-name="s" horiz-adv-x="464" d="M2 404T61 447T235 491T453 472L439 312L248 333V319Q305 314 341 306T407 279Q462 245 462 154Q462 -10 243 -10Q127 -10 10 9L17 165L222 141V155Q166 163 131 172T63 198Q2 232 2 318Z" />
<glyph unicode="t" glyph-name="t" horiz-adv-x="345" d="M201 -10Q110 -10 69 23T27 132V325H0V479H38L50 571H289V479H343L336 325H289V190Q289 168 310 168H334L328 0Q254 -10 201 -10Z" />
<glyph unicode="u" glyph-name="u" horiz-adv-x="570" d="M153 -10Q10 -10 10 127V479H276V170H296V479H560V0H307V32H303Q230 -10 153 -10Z" />
<glyph unicode="v" glyph-name="v" horiz-adv-x="554" d="M564 479L468 0H87L-10 479H265L280 263H288L305 479H564Z" />
<glyph unicode="w" glyph-name="w" horiz-adv-x="728" d="M728 479L671 0H391L370 151H364L348 0H56L0 479H230L241 293H249L263 479H472L486 293H495L505 479H728Z" />
<glyph unicode="x" glyph-name="x" horiz-adv-x="575" d="M575 0H306L290 115H282L266 0H0L85 234L1 479H272L287 344H295L310 479H572L490 235L575 0Z" />
<glyph unicode="y" glyph-name="y" horiz-adv-x="552" d="M560 479L445 -7Q428 -76 378 -106T222 -137H43L25 32H87Q100 32 100 46Q100 53 93 74L-8 479H265L282 252H290L310 479H560Z" />
<glyph unicode="z" glyph-name="z" horiz-adv-x="474" d="M472 0H22L14 130L135 301H12L2 479H460L468 356L353 176H472V0Z" />
<glyph unicode="{" glyph-name="braceleft" horiz-adv-x="397" d="M387 -137H239Q147 -137 107 -106T67 -3V155Q67 173 55 177T0 181V323Q45 323 56 326T67 349V488Q67 566 105 598T239 630H387V483H311V328Q311 297 301 282T264 254V248Q289 236 300 220T311
175V5H387V-137Z" />
<glyph unicode="|" glyph-name="bar" horiz-adv-x="278" d="M258 -137H20V621H258V-137Z" />
<glyph unicode="}" glyph-name="braceright" horiz-adv-x="397" d="M158 -137H10V5H86V175Q86 204 97 220T134 248V254Q107 267 97 281T86 328V483H10V630H158Q253 630 291 598T330 488V349Q330 330 341 327T397 323V181Q338 181 332 170Q330 165 330 155V-3Q330
-75 290 -106T158 -137Z" />
<glyph unicode="~" glyph-name="asciitilde" horiz-adv-x="500" d="M461 656V642Q461 570 436 538T334 505Q300 505 224 529V505H43V520Q43 590 69 623T166 656Q199 656 281 632V656H461Z" />
<glyph unicode="&#xa0;" glyph-name="nbspace" horiz-adv-x="175" />
<glyph unicode="&#xa1;" glyph-name="exclamdown" horiz-adv-x="272" d="M238 302L252 -137H10L27 302H238ZM242 419V388Q242 351 221 336T149 320H118Q63 320 42 335T20 388V419Q20 457 42 472T120 488H152Q201 488 221 473T242 419Z" />
<glyph unicode="&#xa2;" glyph-name="cent" horiz-adv-x="388" d="M308 281T300 272T292 234T299 197T320 188T372 192L383 1Q338 -6 322 -8V-64H99V26Q4 82 4 233T99 448V537H321V489Q345 488 388 481L371 277Q333 281 321 281Z" />
<glyph unicode="&#xa3;" glyph-name="sterling" horiz-adv-x="673" d="M321 630Q398 630 570 610L551 403L420 418L417 412L432 384H550L541 269H450V160H467V252H671V179Q671 75 630 22T477 -31Q415 -31 311 1H307Q241 -24 181 -24Q20 -24 20 119Q20 186 56 220T154
255Q165 255 197 253V269H87V384H162Q131 451 131 485Q131 630 321 630ZM175 102H205V122H175V102Z" />
<glyph unicode="&#xa4;" glyph-name="currency" horiz-adv-x="779" d="M84 76L54 126L178 198Q161 252 161 301T173 395L48 468L79 521L199 452Q268 542 393 542T587 454L701 521L731 468L614 400Q627 355 627 305T607 197L727 126L695 75L575 146Q506 72 390
72T206 148Q163 124 84 76ZM391 122Q565 122 565 306Q565 394 522 442T391 490Q219 490 219 305Q219 214 264 168T391 122Z" />
<glyph unicode="&#xa5;" glyph-name="yen" horiz-adv-x="591" d="M601 621L493 325H542V213H453L447 198H542V88H434V0H152V88H41V198H139L134 213H41V325H94L-10 621H268L293 417H305L330 621H601Z" />
<glyph unicode="&#xa6;" glyph-name="brokenbar" horiz-adv-x="278" d="M258 -137H20V217H258V-137ZM258 621V285H20V621H258Z" />
<glyph unicode="&#xa7;" glyph-name="section" horiz-adv-x="494" d="M273 461L271 451Q390 425 441 380T492 252T448 100Q460 68 460 34Q460 -52 401 -99T230 -146T13 -129L29 37Q209 18 234 18L237 33Q109 67 56 119T2 270Q2 344 49 404Q39 433 39 464Q39 555
102 592T279 630Q358 630 474 613L442 447Q294 461 273 461ZM314 236L199 290L188 265L303 212L314 236Z" />
<glyph unicode="&#xa8;" glyph-name="dieresis" horiz-adv-x="500" d="M85 506T63 520T41 572T63 625T142 640T219 626T241 573T220 520T142 506ZM307 506T285 520T263 572T285 625T364 640T441 626T463 573T442 520T364 506Z" />
<glyph unicode="&#xa9;" glyph-name="copyright" horiz-adv-x="1039" d="M330 695Q410 707 542 707T765 688T918 616T1004 474T1029 263T1019 69T983 -55T922 -140T830 -192T706 -219T540 -226T369 -220T233 -195T131 -144T63 -60Q10 36 10 248T82 564T330 695ZM789
108V354Q789 445 746 478T604 512H421Q332 512 291 478T250 351V113Q250 24 293 -9T431 -43H619Q714 -43 751 -11T789 108ZM547 184T556 173T598 161T695 168L703 -7Q556 -18 516 -18Q391 -18 338 40T285 236T340 427T529 482Q582 482 703 473L692 287Q619 292
592 292T556 281T547 227Z" />
<glyph unicode="&#xaa;" glyph-name="ordfeminine" horiz-adv-x="416" d="M399 537L396 417Q396 400 413 400L404 291Q373 288 323 288T245 310H242Q202 288 150 288Q32 288 32 390Q32 452 76 474T218 501V515L59 502L45 625Q157 639 240 639T361 616T399 537ZM211
432V376H225V432H211Z" />
<glyph unicode="&#xab;" glyph-name="guillemotleft" horiz-adv-x="603" d="M257 210V249L384 434H601L467 233L601 33H374L257 210ZM0 210V249L127 434H344L210 233L344 33H117L0 210Z" />
<glyph unicode="&#xac;" glyph-name="logicalnot" horiz-adv-x="513" d="M273 86V186H15V380H488V86H273Z" />
<glyph unicode="&#xae;" glyph-name="registered" horiz-adv-x="1079" d="M1019 562T1044 474T1069 263T1058 69T1019 -55T953 -140T852 -192T718 -219T543 -226T369 -220T233 -195T131 -144T63 -60Q10 36 10 248T82 564T330 695Q410 707 549 707T788 688T953
616ZM696 479T739 441T782 318T737 190L788 -4Q829 32 829 108V354Q829 438 779 475T629 512H421Q330 512 290 476T250 355V108Q250 28 293 -7T431 -43H644Q737 -43 780 -10H575L547 140H532V-10H310V479H601Q696 479 739 441ZM554 258V340H529V258H554Z" />
<glyph unicode="&#xaf;" glyph-name="overscore" horiz-adv-x="500" d="M430 497H71V621H430V497Z" />
<glyph unicode="&#xb0;" glyph-name="degree" horiz-adv-x="339" d="M257 625T295 594T334 496T296 398T170 367T44 398T5 495T44 593T170 625ZM159 511V477H179V511H159Z" />
<glyph unicode="&#xb1;" glyph-name="plusminus" horiz-adv-x="449" d="M127 193V268H15V458H127V568H321V458H434V268H321V193H127ZM430 0H15V180H430V0Z" />
<glyph unicode="&#xb2;" glyph-name="twosuperior" horiz-adv-x="364" d="M183 630Q360 630 360 497Q360 444 341 407T278 329V325H359V189H26L22 296Q122 386 122 442Q122 463 101 463Q90 463 24 452L10 609Q91 630 183 630Z" />
<glyph unicode="&#xb3;" glyph-name="threesuperior" horiz-adv-x="377" d="M33 333Q132 322 142 322Q157 322 157 335T140 349H45V451H140Q154 451 154 464T137 477T23 462L10 608Q98 630 188 630Q366 630 366 508Q366 474 355 453T317 416V413Q373 386 373 315T330
213T197 182T20 199L33 333Z" />
<glyph unicode="&#xb4;" glyph-name="acute" horiz-adv-x="500" d="M477 641L358 511H179L243 641H477Z" />
<glyph unicode="&#xb5;" glyph-name="mu" horiz-adv-x="586" d="M570 -5Q502 -10 462 -10T398 -4T350 20H344Q316 -10 266 -10V-137H10V479H276V170H296V479H560V173Q560 150 584 150L570 -5Z" />
<glyph unicode="&#xb6;" glyph-name="paragraph" horiz-adv-x="675" d="M425 474V-137H230V153Q109 153 58 207T6 390T59 573T236 628H655V-137H461V474H425Z" />
<glyph unicode="&#xb7;" glyph-name="middot" horiz-adv-x="307" d="M20 288V319Q20 356 48 372T136 389H164Q228 389 257 373T287 319V288Q287 250 257 234T162 218H132Q74 218 47 233T20 288Z" />
<glyph unicode="&#xb8;" glyph-name="cedilla" horiz-adv-x="500" d="M368 -79Q368 -121 335 -145T235 -169T107 -133L154 -51Q193 -78 238 -91L242 -83L185 -58Q166 -48 166 -31T186 4H304L291 -13V-17Q368 -17 368 -79Z" />
<glyph unicode="&#xb9;" glyph-name="onesuperior" horiz-adv-x="257" d="M247 186H50V464H10V578L74 621H247V186Z" />
<glyph unicode="&#xba;" glyph-name="ordmasculine" horiz-adv-x="424" d="M31 556T79 597T228 639T376 599T423 466T378 331T229 288T78 330T31 464ZM235 387V520H221V387H235Z" />
<glyph unicode="&#xbb;" glyph-name="guillemotright" horiz-adv-x="603" d="M346 256V217L219 32H2L136 233L2 433H229L346 256ZM603 256V217L476 32H259L393 233L259 433H486L603 256Z" />
<glyph unicode="&#xbc;" glyph-name="onequarter" horiz-adv-x="872" d="M544 621L414 0H212L341 621H544ZM247 186H50V464H10V578L74 621H247V186ZM862 68H832V0H635V68H474L464 165L564 435H832V184H868L862 68ZM645 181V240H620V181H645Z" />
<glyph unicode="&#xbd;" glyph-name="onehalf" horiz-adv-x="864" d="M544 621L414 0H212L341 621H544ZM247 186H50V464H10V578L74 621H247V186ZM677 441Q854 441 854 308Q854 255 835 218T772 140V136H853V0H520L516 107Q616 197 616 253Q616 274 595 274Q584
274 518 263L504 420Q585 441 677 441Z" />
<glyph unicode="&#xbe;" glyph-name="threequarters" horiz-adv-x="972" d="M651 621L521 0H319L448 621H651ZM33 333Q132 322 142 322Q157 322 157 335T140 349H45V451H140Q154 451 154 464T137 477T23 462L10 608Q98 630 188 630Q366 630 366 508Q366 474 355
453T317 416V413Q373 386 373 315T330 213T197 182T20 199L33 333ZM962 68H932V0H735V68H574L564 165L664 435H932V184H968L962 68ZM745 181V240H720V181H745Z" />
<glyph unicode="&#xbf;" glyph-name="questiondown" horiz-adv-x="392" d="M0 40Q0 125 31 170T139 244V303H345V200Q345 163 332 148T288 120T250 99T242 75Q242 47 272 47Q293 47 382 58V-134Q294 -147 224 -147Q0 -147 0 40ZM353 419V388Q353 351 332 336T260
320H229Q174 320 153 335T131 388V419Q131 457 153 472T231 488H263Q312 488 332 473T353 419Z" />
<glyph unicode="&#xc0;" glyph-name="Agrave" horiz-adv-x="665" d="M673 0H383L367 95H289L272 0H-8L113 621H552L673 0ZM345 228V352H313V228H345ZM262 645L149 769H371L432 645H262Z" />
<glyph unicode="&#xc1;" glyph-name="Aacute" horiz-adv-x="665" d="M673 0H383L367 95H289L272 0H-8L113 621H552L673 0ZM345 228V352H313V228H345ZM508 769L395 645H225L286 769H508Z" />
<glyph unicode="&#xc2;" glyph-name="Acircumflex" horiz-adv-x="665" d="M673 0H383L367 95H289L272 0H-8L113 621H552L673 0ZM345 228V352H313V228H345ZM449 763L514 636H349L333 670H330L314 636H145L210 763H449Z" />
<glyph unicode="&#xc3;" glyph-name="Atilde" horiz-adv-x="665" d="M673 0H383L367 95H289L272 0H-8L113 621H552L673 0ZM345 228V352H313V228H345ZM529 783V770Q529 701 505 671T408 640Q373 640 304 663V640H132V654Q132 720 157 751T249 783Q283 783 358 760V783H529Z"
/>
<glyph unicode="&#xc4;" glyph-name="Adieresis" horiz-adv-x="665" d="M673 0H383L367 95H289L272 0H-8L113 621H552L673 0ZM345 228V352H313V228H345ZM170 641T149 654T128 703T149 754T224 768T297 755T318 704T298 654T224 641ZM380 641T360 654T339 703T360
754T434 768T508 755T529 704T509 654T435 641Z" />
<glyph unicode="&#xc5;" glyph-name="Aring" horiz-adv-x="665" d="M202 699T232 716T332 733T432 717T462 655Q462 633 458 621H552L673 0H383L367 95H289L272 0H-8L113 621H206Q202 632 202 650Q202 699 232 716ZM345 228V352H313V228H345ZM342 621V676H322V621H342Z" />
<glyph unicode="&#xc6;" glyph-name="AE" horiz-adv-x="867" d="M848 0H398V95H295L258 0H-20L240 621H867L852 417H680V381H848L838 215H680V179H863L848 0ZM398 228V397H394L336 228H398Z" />
<glyph unicode="&#xc7;" glyph-name="Ccedilla" horiz-adv-x="468" d="M383 -79Q383 -121 350 -145T250 -169T122 -133L169 -51Q208 -78 253 -91L257 -83L200 -58Q181 -48 181 -31T201 4Q102 29 54 104T6 315Q6 486 87 558T341 630Q385 630 460 620L443 381Q403
386 382 386T349 372T338 304T349 234T382 219T445 227L460 0Q388 -10 325 -10H308L306 -13V-17Q383 -17 383 -79Z" />
<glyph unicode="&#xc8;" glyph-name="Egrave" horiz-adv-x="489" d="M470 0H20V621H489L474 417H302V381H470L460 215H302V179H485L470 0ZM202 645L89 769H311L372 645H202Z" />
<glyph unicode="&#xc9;" glyph-name="Eacute" horiz-adv-x="489" d="M470 0H20V621H489L474 417H302V381H470L460 215H302V179H485L470 0ZM458 769L345 645H175L236 769H458Z" />
<glyph unicode="&#xca;" glyph-name="Ecircumflex" horiz-adv-x="489" d="M470 0H20V621H489L474 417H302V381H470L460 215H302V179H485L470 0ZM372 763L437 636H272L256 670H253L237 636H68L133 763H372Z" />
<glyph unicode="&#xcb;" glyph-name="Edieresis" horiz-adv-x="489" d="M470 0H20V621H489L474 417H302V381H470L460 215H302V179H485L470 0ZM101 641T80 654T59 703T80 754T155 768T228 755T249 704T229 654T155 641ZM311 641T291 654T270 703T291 754T365 768T439
755T460 704T440 654T366 641Z" />
<glyph unicode="&#xcc;" glyph-name="Igrave" horiz-adv-x="322" d="M302 0H20V621H302V0ZM106 655L-7 779H215L276 655H106Z" />
<glyph unicode="&#xcd;" glyph-name="Iacute" horiz-adv-x="322" d="M302 0H20V621H302V0ZM326 779L213 655H43L104 779H326Z" />
<glyph unicode="&#xce;" glyph-name="Icircumflex" horiz-adv-x="322" d="M302 0H20V621H302V0ZM279 773L344 646H179L163 680H160L144 646H-25L40 773H279Z" />
<glyph unicode="&#xcf;" glyph-name="Idieresis" horiz-adv-x="322" d="M301 0H19V621H301V0ZM3 651T-18 664T-39 713T-18 764T57 778T130 765T151 714T131 664T57 651ZM213 651T193 664T172 713T193 764T267 778T341 765T362 714T342 664T268 651Z" />
<glyph unicode="&#xd0;" glyph-name="Eth" horiz-adv-x="637" d="M631 324Q631 0 289 0H20V195H-15V399H20V621H295Q478 621 554 545T631 324ZM328 157V435H292V157H328Z" />
<glyph unicode="&#xd1;" glyph-name="Ntilde" horiz-adv-x="652" d="M632 0H376L263 199V0H20V621H283L387 420V621H632V0ZM519 783V770Q519 701 495 671T398 640Q363 640 294 663V640H122V654Q122 720 147 751T239 783Q273 783 348 760V783H519Z" />
<glyph unicode="&#xd2;" glyph-name="Ograve" horiz-adv-x="670" d="M6 481T82 555T336 630T588 557T664 317T586 70T334 -10T83 69T6 314ZM254 655L141 779H363L424 655H254ZM357 157V435H325V157H357Z" />
<glyph unicode="&#xd3;" glyph-name="Oacute" horiz-adv-x="670" d="M6 481T82 555T336 630T588 557T664 317T586 70T334 -10T83 69T6 314ZM525 779L412 655H242L303 779H525ZM357 157V435H325V157H357Z" />
<glyph unicode="&#xd4;" glyph-name="Ocircumflex" horiz-adv-x="670" d="M6 481T82 555T336 630T588 557T664 317T586 70T334 -10T83 69T6 314ZM449 773L514 646H349L333 680H330L314 646H145L210 773H449ZM357 157V435H325V157H357Z" />
<glyph unicode="&#xd5;" glyph-name="Otilde" horiz-adv-x="670" d="M6 481T82 555T336 630T588 557T664 317T586 70T334 -10T83 69T6 314ZM532 783V770Q532 701 508 671T411 640Q376 640 307 663V640H135V654Q135 720 160 751T252 783Q286 783 361 760V783H532ZM357
157V435H325V157H357Z" />
<glyph unicode="&#xd6;" glyph-name="Odieresis" horiz-adv-x="670" d="M6 481T82 555T336 630T588 557T664 317T586 70T334 -10T83 69T6 314ZM381 641T361 654T340 703T361 754T435 768T509 755T530 704T510 654T436 641ZM171 641T150 654T129 703T150 754T225
768T298 755T319 704T299 654T225 641ZM357 157V435H325V157H357Z" />
<glyph unicode="&#xd7;" glyph-name="multiply" horiz-adv-x="456" d="M15 206L91 284L8 367L144 504L228 419L313 504L448 367L366 284L442 206L307 70L228 149L150 71L15 206Z" />
<glyph unicode="&#xd8;" glyph-name="Oslash" horiz-adv-x="670" d="M337 631Q361 631 373 630L393 673H655L596 549Q664 475 664 313T586 70T332 -10H324L306 -48H41L93 59Q6 135 6 308T83 556T337 631ZM359 157V435H323V157H359Z" />
<glyph unicode="&#xd9;" glyph-name="Ugrave" horiz-adv-x="644" d="M304 621V177H336V621H624V208Q624 -10 319 -10Q174 -10 97 44T20 206V621H304ZM234 645L121 769H343L404 645H234Z" />
<glyph unicode="&#xda;" glyph-name="Uacute" horiz-adv-x="644" d="M304 621V177H336V621H624V208Q624 -10 319 -10Q174 -10 97 44T20 206V621H304ZM519 769L406 645H236L297 769H519Z" />
<glyph unicode="&#xdb;" glyph-name="Ucircumflex" horiz-adv-x="644" d="M304 621V177H336V621H624V208Q624 -10 319 -10Q174 -10 97 44T20 206V621H304ZM437 763L502 636H337L321 670H318L302 636H133L198 763H437Z" />
<glyph unicode="&#xdc;" glyph-name="Udieresis" horiz-adv-x="644" d="M304 621V177H336V621H624V208Q624 -10 319 -10Q174 -10 97 44T20 206V621H304ZM160 641T139 654T118 703T139 754T214 768T287 755T308 704T288 654T214 641ZM370 641T350 654T329 703T350
754T424 768T498 755T519 704T499 654T425 641Z" />
<glyph unicode="&#xdd;" glyph-name="Yacute" horiz-adv-x="546" d="M605 621L438 161V0H156V162L-6 621H272L297 417H309L334 621H605ZM495 769L382 645H212L273 769H495Z" />
<glyph unicode="&#xde;" glyph-name="Thorn" horiz-adv-x="594" d="M594 423T594 307T530 137T331 83H302V0H20V621H302V531H319Q462 531 528 477ZM330 230V354H302V230H330Z" />
<glyph unicode="&#xdf;" glyph-name="germandbls" horiz-adv-x="613" d="M316 364V468H280V0H27V327H-6V465H27V471Q27 563 97 606T309 650Q597 650 597 458Q597 408 586 380T537 330V326Q577 309 593 276T609 183Q609 89 559 42T392 -6Q365 -6 295 0V127H316V250H295V364H316Z"
/>
<glyph unicode="&#xe0;" glyph-name="agrave" horiz-adv-x="547" d="M525 346L520 174Q520 150 545 150L531 -6Q471 -10 435 -10Q345 -10 305 21H300Q240 -10 168 -10Q0 -10 0 136Q0 227 70 260Q107 277 152 284T266 294V315L38 296L19 472Q168 491 292 491T471
458T525 346ZM256 196V116H276V196H256ZM210 511L91 641H325L389 511H210Z" />
<glyph unicode="&#xe1;" glyph-name="aacute" horiz-adv-x="547" d="M525 346L520 174Q520 150 545 150L531 -6Q471 -10 435 -10Q345 -10 305 21H300Q240 -10 168 -10Q0 -10 0 136Q0 227 70 260Q107 277 152 284T266 294V315L38 296L19 472Q168 491 292 491T471
458T525 346ZM256 196V116H276V196H256ZM483 641L364 511H185L249 641H483Z" />
<glyph unicode="&#xe2;" glyph-name="acircumflex" horiz-adv-x="547" d="M525 346L520 174Q520 150 545 150L531 -6Q471 -10 435 -10Q345 -10 305 21H300Q240 -10 168 -10Q0 -10 0 136Q0 227 70 260Q107 277 152 284T266 294V315L38 296L19 472Q168 491 292 491T471
458T525 346ZM256 196V116H276V196H256ZM398 635L466 501H292L276 537H272L256 501H78L146 635H398Z" />
<glyph unicode="&#xe3;" glyph-name="atilde" horiz-adv-x="547" d="M525 346L520 174Q520 150 545 150L531 -6Q471 -10 435 -10Q345 -10 305 21H300Q240 -10 168 -10Q0 -10 0 136Q0 227 70 260Q107 277 152 284T266 294V315L38 296L19 472Q168 491 292 491T471
458T525 346ZM256 196V116H276V196H256ZM478 656V642Q478 570 453 538T351 505Q317 505 241 529V505H60V520Q60 590 86 623T183 656Q216 656 298 632V656H478Z" />
<glyph unicode="&#xe4;" glyph-name="adieresis" horiz-adv-x="547" d="M525 346L520 174Q520 150 545 150L531 -6Q471 -10 435 -10Q345 -10 305 21H300Q240 -10 168 -10Q0 -10 0 136Q0 227 70 260Q107 277 152 284T266 294V315L38 296L19 472Q168 491 292 491T471
458T525 346ZM256 196V116H276V196H256ZM108 506T86 520T64 572T86 625T165 640T242 626T264 573T243 520T165 506ZM330 506T308 520T286 572T308 625T387 640T464 626T486 573T465 520T387 506Z" />
<glyph unicode="&#xe5;" glyph-name="aring" horiz-adv-x="547" d="M525 346L520 174Q520 150 545 150L531 -6Q471 -10 435 -10Q345 -10 305 21H300Q240 -10 168 -10Q0 -10 0 136Q0 227 70 260Q107 277 152 284T266 294V315L38 296L19 472Q168 491 292 491T471
458T525 346ZM144 628T174 645T274 662T374 646T404 582T375 517T275 501T174 517T144 580ZM256 196V116H276V196H256ZM284 550V605H264V550H284Z" />
<glyph unicode="&#xe6;" glyph-name="ae" horiz-adv-x="808" d="M806 298Q806 255 798 180H533V162Q576 157 619 157T780 163L790 12Q652 -10 541 -10T355 21H350Q267 -10 168 -10Q0 -10 0 136Q0 227 70 260Q107 277 152 284T266 294V315L38 296L19 472Q168 491
275 491T432 475Q483 491 556 491Q695 491 750 442T806 298ZM256 196V116H276V196H256ZM552 254V333H532V254H552Z" />
<glyph unicode="&#xe7;" glyph-name="ccedilla" horiz-adv-x="388" d="M270 491Q333 491 388 481L371 281Q329 285 318 285Q292 285 292 236Q292 202 299 193T320 184T372 188L383 1Q318 -10 270 -10L268 -13V-17Q345 -17 345 -79Q345 -121 312 -145T212 -169T84
-133L131 -51Q170 -78 215 -91L219 -83L162 -58Q143 -48 143 -32T160 2Q4 42 4 231Q4 491 270 491Z" />
<glyph unicode="&#xe8;" glyph-name="egrave" horiz-adv-x="543" d="M541 298Q541 255 533 180H268V162Q311 157 354 157T515 163L525 12Q388 -10 280 -10Q2 -10 2 237Q2 491 291 491Q430 491 485 442T541 298ZM216 511L97 641H331L395 511H216ZM287 254V333H267V254H287Z"
/>
<glyph unicode="&#xe9;" glyph-name="eacute" horiz-adv-x="543" d="M541 298Q541 255 533 180H268V162Q311 157 354 157T515 163L525 12Q388 -10 280 -10Q2 -10 2 237Q2 491 291 491Q430 491 485 442T541 298ZM487 641L368 511H189L253 641H487ZM287 254V333H267V254H287Z"
/>
<glyph unicode="&#xea;" glyph-name="ecircumflex" horiz-adv-x="543" d="M541 298Q541 255 533 180H268V162Q311 157 354 157T515 163L525 12Q388 -10 280 -10Q2 -10 2 237Q2 491 291 491Q430 491 485 442T541 298ZM402 635L470 501H296L280 537H276L260 501H82L150
635H402ZM287 254V333H267V254H287Z" />
<glyph unicode="&#xeb;" glyph-name="edieresis" horiz-adv-x="543" d="M541 298Q541 255 533 180H268V162Q311 157 354 157T515 163L525 12Q388 -10 280 -10Q2 -10 2 237Q2 491 291 491Q430 491 485 442T541 298ZM334 506T312 520T290 572T312 625T391 640T468
626T490 573T469 520T391 506ZM112 506T90 520T68 572T90 625T169 640T246 626T268 573T247 520T169 506ZM287 254V333H267V254H287Z" />
<glyph unicode="&#xec;" glyph-name="igrave" horiz-adv-x="282" d="M272 0H10V464H272V0ZM81 511L-38 641H196L260 511H81Z" />
<glyph unicode="&#xed;" glyph-name="iacute" horiz-adv-x="282" d="M272 0H10V464H272V0ZM331 641L212 511H33L97 641H331Z" />
<glyph unicode="&#xee;" glyph-name="icircumflex" horiz-adv-x="282" d="M275 0H13V464H275V0ZM272 635L340 501H166L150 537H146L130 501H-48L20 635H272Z" />
<glyph unicode="&#xef;" glyph-name="idieresis" horiz-adv-x="282" d="M275 0H13V464H275V0ZM-24 506T-46 520T-68 572T-46 625T33 640T110 626T132 573T111 520T33 506ZM198 506T176 520T154 572T176 625T255 640T332 626T354 573T333 520T255 506Z" />
<glyph unicode="&#xf0;" glyph-name="eth" horiz-adv-x="570" d="M233 401Q268 401 300 397L301 400Q282 422 254 435L122 397V490L143 496V501H56V654Q227 654 340 621L475 673V541L453 530Q566 426 566 265Q566 132 500 61T292 -10Q4 -10 4 208Q4 401 233 401ZM295
131V261H275V131H295Z" />
<glyph unicode="&#xf1;" glyph-name="ntilde" horiz-adv-x="570" d="M256 452Q336 491 408 491T520 453T560 349V0H293V299H273V0H10V479H252L256 452ZM488 656V642Q488 570 463 538T361 505Q327 505 251 529V505H70V520Q70 590 96 623T193 656Q226 656 308 632V656H488Z" />
<glyph unicode="&#xf2;" glyph-name="ograve" horiz-adv-x="568" d="M4 373T72 432T286 491T497 433T564 243T500 50T287 -10T72 50T4 241ZM213 511L94 641H328L392 511H213ZM296 131V321H276V131H296Z" />
<glyph unicode="&#xf3;" glyph-name="oacute" horiz-adv-x="568" d="M4 373T72 432T286 491T497 433T564 243T500 50T287 -10T72 50T4 241ZM479 641L360 511H181L245 641H479ZM296 131V321H276V131H296Z" />
<glyph unicode="&#xf4;" glyph-name="ocircumflex" horiz-adv-x="568" d="M4 373T72 432T286 491T497 433T564 243T500 50T287 -10T72 50T4 241ZM411 635L479 501H305L289 537H285L269 501H91L159 635H411ZM296 131V321H276V131H296Z" />
<glyph unicode="&#xf5;" glyph-name="otilde" horiz-adv-x="568" d="M4 373T72 432T286 491T497 433T564 243T500 50T287 -10T72 50T4 241ZM489 656V642Q489 570 464 538T362 505Q328 505 252 529V505H71V520Q71 590 97 623T194 656Q227 656 309 632V656H489ZM296
131V321H276V131H296Z" />
<glyph unicode="&#xf6;" glyph-name="odieresis" horiz-adv-x="568" d="M4 373T72 432T286 491T497 433T564 243T500 50T287 -10T72 50T4 241ZM340 506T318 520T296 572T318 625T397 640T474 626T496 573T475 520T397 506ZM118 506T96 520T74 572T96 625T175 640T252
626T274 573T253 520T175 506ZM296 131V321H276V131H296Z" />
<glyph unicode="&#xf7;" glyph-name="divide" horiz-adv-x="445" d="M117 69V100Q117 137 138 152T210 168H241Q296 168 317 153T339 100V69Q339 31 317 16T239 0H207Q158 0 138 15T117 69ZM117 468V499Q117 536 138 551T210 567H241Q296 567 317 552T339 499V468Q339
430 317 415T239 399H207Q158 399 138 414T117 468ZM430 186H15V380H430V186Z" />
<glyph unicode="&#xf8;" glyph-name="oslash" horiz-adv-x="568" d="M288 491H302L323 532H542L494 436Q564 378 564 244T500 50T288 -10H278L258 -53H37L82 41Q4 99 4 236T72 432T288 491ZM296 131V321H276V131H296Z" />
<glyph unicode="&#xf9;" glyph-name="ugrave" horiz-adv-x="570" d="M153 -10Q10 -10 10 127V479H276V170H296V479H560V0H307V32H303Q230 -10 153 -10ZM198 511L79 641H313L377 511H198Z" />
<glyph unicode="&#xfa;" glyph-name="uacute" horiz-adv-x="570" d="M153 -10Q10 -10 10 127V479H276V170H296V479H560V0H307V32H303Q230 -10 153 -10ZM495 641L376 511H197L261 641H495Z" />
<glyph unicode="&#xfb;" glyph-name="ucircumflex" horiz-adv-x="570" d="M153 -10Q10 -10 10 127V479H276V170H296V479H560V0H307V32H303Q230 -10 153 -10ZM409 635L477 501H303L287 537H283L267 501H89L157 635H409Z" />
<glyph unicode="&#xfc;" glyph-name="udieresis" horiz-adv-x="570" d="M153 -10Q10 -10 10 127V479H276V170H296V479H560V0H307V32H303Q230 -10 153 -10ZM119 506T97 520T75 572T97 625T176 640T253 626T275 573T254 520T176 506ZM341 506T319 520T297 572T319
625T398 640T475 626T497 573T476 520T398 506Z" />
<glyph unicode="&#xfd;" glyph-name="yacute" horiz-adv-x="602" d="M585 479L470 -7Q453 -76 403 -106T247 -137H68L50 32H112Q125 32 125 46Q125 53 118 74L17 479H290L307 252H315L335 479H585ZM512 641L393 511H214L278 641H512Z" />
<glyph unicode="&#xfe;" glyph-name="thorn" horiz-adv-x="570" d="M361 -10Q316 -10 273 0V-136H10V640H265V478Q308 491 363 491Q477 491 521 432T566 244T522 53T361 -10ZM283 131V321H263V131H283Z" />
<glyph unicode="&#xff;" glyph-name="ydieresis" horiz-adv-x="602" d="M585 479L470 -7Q453 -76 403 -106T247 -137H68L50 32H112Q125 32 125 46Q125 53 118 74L17 479H290L307 252H315L335 479H585ZM143 506T121 520T99 572T121 625T200 640T277 626T299 573T278
520T200 506ZM365 506T343 520T321 572T343 625T422 640T499 626T521 573T500 520T422 506Z" />
<glyph unicode="&#x2013;" glyph-name="endash" horiz-adv-x="383" d="M368 146H15V340H368V146Z" />
<glyph unicode="&#x2014;" glyph-name="emdash" horiz-adv-x="583" d="M568 146H15V340H568V146Z" />
<glyph unicode="&#x2018;" glyph-name="quoteleft" horiz-adv-x="252" d="M232 486V455Q232 418 211 403T139 387H108Q53 387 32 402T10 455V489Q10 542 34 579T113 650H191L162 555H172Q205 555 218 540T232 486Z" />
<glyph unicode="&#x2019;" glyph-name="quoteright" horiz-adv-x="252" d="M20 551V582Q20 619 41 634T113 650H144Q199 650 220 635T242 582V548Q242 495 218 458T139 387H61L90 482H80Q47 482 34 497T20 551Z" />
<glyph unicode="&#x201a;" glyph-name="quotesinglbase" horiz-adv-x="252" d="M10 59V90Q10 127 31 142T103 158H134Q189 158 210 143T232 90V56Q232 3 208 -34T129 -105H51L80 -10H70Q37 -10 24 5T10 59Z" />
<glyph unicode="&#x201c;" glyph-name="quotedblleft" horiz-adv-x="487" d="M467 486V455Q467 418 446 403T374 387H343Q288 387 267 402T245 455V489Q245 542 269 579T348 650H426L397 555H407Q440 555 453 540T467 486ZM232 486V455Q232 418 211 403T139 387H108Q53
387 32 402T10 455V489Q10 542 34 579T113 650H191L162 555H172Q205 555 218 540T232 486Z" />
<glyph unicode="&#x201d;" glyph-name="quotedblright" horiz-adv-x="487" d="M20 551V582Q20 619 41 634T113 650H144Q199 650 220 635T242 582V548Q242 495 218 458T139 387H61L90 482H80Q47 482 34 497T20 551ZM255 551V582Q255 619 276 634T348 650H379Q434
650 455 635T477 582V548Q477 495 453 458T374 387H296L325 482H315Q282 482 269 497T255 551Z" />
<glyph unicode="&#x201e;" glyph-name="quotedblbase" horiz-adv-x="487" d="M10 59V90Q10 127 31 142T103 158H134Q189 158 210 143T232 90V56Q232 3 208 -34T129 -105H51L80 -10H70Q37 -10 24 5T10 59ZM245 59V90Q245 127 266 142T338 158H369Q424 158 445 143T467
90V56Q467 3 443 -34T364 -105H286L315 -10H305Q272 -10 259 5T245 59Z" />
<glyph unicode="&#x2022;" glyph-name="bullet" horiz-adv-x="451" d="M72 301Q72 430 226 430Q304 430 341 399T379 298T343 200T228 170T110 200T72 301Z" />
<glyph unicode="&#x2039;" glyph-name="guilsinglleft" horiz-adv-x="346" d="M0 210V249L127 434H344L210 233L344 33H117L0 210Z" />
<glyph unicode="&#x203a;" glyph-name="guilsinglright" horiz-adv-x="346" d="M346 256V217L219 32H2L136 233L2 433H229L346 256Z" />
</font>
</defs>
</svg>
