<?xml version="1.0" standalone="no"?>
<!DOCTYPE svg PUBLIC "-//W3C//DTD SVG 1.1//EN" "http://www.w3.org/Graphics/SVG/1.1/DTD/svg11.dtd">
<svg xmlns="http://www.w3.org/2000/svg">
<defs >
<font id="FiraSansCondensed" horiz-adv-x="503" ><font-face
    font-family="Fira Sans Condensed"
    units-per-em="1000"
    panose-1="2 11 5 3 5 0 0 2 0 4"
    ascent="935"
    descent="-265"
    alphabetic="0" />
<glyph unicode=" " glyph-name="space" horiz-adv-x="230" />
<glyph unicode="!" glyph-name="exclam" horiz-adv-x="225" d="M67 229L122 689H217L143 229H67ZM52 -12T36 5T20 48Q20 78 40 99T90 121Q117 121 133 104T150 61Q150 31 130 10T79 -12Q52 -12 36 5Z" />
<glyph unicode="&quot;" glyph-name="quotedbl" horiz-adv-x="379" d="M91 427L115 689H205L155 427H91ZM270 427L294 689H384L334 427H270Z" />
<glyph unicode="#" glyph-name="numbersign" horiz-adv-x="466" d="M478 448H410L354 231H415L405 165H337L294 0H221L264 165H131L88 0H15L57 165H-1L9 231H74L130 448H73L82 515H147L187 669H261L221 515H354L394 669H467L427 515H488L478 448ZM281 231L337
448H204L148 231H281Z" />
<glyph unicode="$" glyph-name="dollar" horiz-adv-x="477" d="M353 355T392 314T431 205Q431 153 408 107T340 30T231 -9L211 -154H139L159 -11Q60 -1 -9 77L46 126Q75 94 110 78T193 61Q257 61 298 98T340 201Q340 243 317 268T230 320Q152 352 117 390T81 489Q81
538 104 579T169 646T266 678L287 823H359L338 675Q417 662 474 600L422 550Q364 607 290 607Q237 607 204 577T170 494Q170 455 193 432T278 384Q353 355 392 314Z" />
<glyph unicode="%" glyph-name="percent" horiz-adv-x="743" d="M615 710L98 9L152 -30L668 671L615 710ZM147 342T112 380T77 480Q77 526 95 572T151 648T244 679Q302 679 336 642T371 544Q371 498 353 452T298 374T203 342Q147 342 112 380ZM256 402T277 448T298
544Q298 619 242 619Q191 619 170 574T149 480Q149 402 205 402Q256 402 277 448ZM462 -12T427 26T392 126Q392 172 410 218T466 294T559 325Q617 325 652 288T687 190Q687 144 669 98T614 20T519 -12Q462 -12 427 26ZM572 48T593 94T614 190Q614 265 558 265Q507
265 486 220T465 126Q465 48 521 48Q572 48 593 94Z" />
<glyph unicode="&amp;" glyph-name="ampersand" horiz-adv-x="661" d="M403 700T446 661T489 563Q489 516 469 482T416 423T329 366L460 196Q508 280 535 354L610 325Q567 228 506 143L589 38L519 -12L450 81Q402 32 354 10T246 -12Q192 -12 152 10T90 70T68 156Q68
220 101 271T217 379Q185 421 170 455T154 528Q154 576 175 615T237 677T333 700Q403 700 446 661ZM288 635T264 606T239 529Q239 475 286 415Q348 452 376 484T405 562Q405 596 386 615T332 635Q288 635 264 606ZM199 287T178 247T157 158Q157 111 182 85T253
58Q334 58 405 134L257 327Q199 287 178 247Z" />
<glyph unicode="&apos;" glyph-name="quotesingle" horiz-adv-x="200" d="M91 427L115 689H205L155 427H91Z" />
<glyph unicode="(" glyph-name="parenleft" horiz-adv-x="288" d="M331 806Q224 662 174 524T124 224Q124 123 143 49T202 -110L144 -142Q107 -67 86 -19T51 91T37 229Q37 356 64 456T142 645T280 846L331 806Z" />
<glyph unicode=")" glyph-name="parenright" horiz-adv-x="288" d="M206 767T227 719T262 609T276 471Q276 344 249 244T170 55T32 -146L-19 -107Q89 38 139 176T189 477Q189 578 170 651T110 811L169 842Q206 767 227 719Z" />
<glyph unicode="*" glyph-name="asterisk" horiz-adv-x="406" d="M425 562L282 528L361 408L287 362L236 495L148 362L85 407L196 530L65 563L96 638L219 580L226 739H312L276 580L410 642L425 562Z" />
<glyph unicode="+" glyph-name="plus" horiz-adv-x="454" d="M303 518L282 367H411L401 294H271L249 145H171L192 294H62L72 367H203L224 518H303Z" />
<glyph unicode="," glyph-name="comma" horiz-adv-x="219" d="M112 121T128 105T144 62Q144 45 138 28T117 -17L37 -164H-23L38 1Q17 19 17 48Q17 79 36 100T87 121Q112 121 128 105Z" />
<glyph unicode="-" glyph-name="hyphen" horiz-adv-x="364" d="M56 276L66 350H322L311 276H56Z" />
<glyph unicode="." glyph-name="period" horiz-adv-x="220" d="M48 -12T32 5T16 48Q16 78 36 99T86 121Q113 121 129 104T146 61Q146 31 126 10T75 -12Q48 -12 32 5Z" />
<glyph unicode="/" glyph-name="slash" horiz-adv-x="470" d="M377 808L450 789L117 -103L45 -83L377 808Z" />
<glyph unicode="0" glyph-name="zero" horiz-adv-x="518" d="M226 679T167 606T82 425T56 211Q56 103 97 46T218 -12Q311 -12 370 61T456 242T482 455Q482 564 441 621T320 679Q226 679 167 606ZM356 609T375 576T395 471Q395 377 376 282T318 122T222 58Q183
58 163 91T143 196Q143 290 162 385T221 545T317 609Q356 609 375 576Z" />
<glyph unicode="1" glyph-name="one" horiz-adv-x="394" d="M347 669L253 0H165L245 565L96 473L64 540L269 669H347Z" />
<glyph unicode="2" glyph-name="two" horiz-adv-x="445" d="M332 679T377 634T422 516Q422 460 397 407T304 277T103 72L373 74L351 0H-4L6 72Q157 226 221 299T308 417T331 512Q331 558 309 582T248 606Q210 606 179 589T114 533L62 581Q106 631 153 655T254
679Q332 679 377 634Z" />
<glyph unicode="3" glyph-name="three" horiz-adv-x="448" d="M332 679T374 636T417 525Q417 460 379 416T267 353Q321 347 353 313T385 221Q385 164 359 111T279 23T149 -12Q37 -12 -22 80L36 123Q60 89 88 74T153 59Q218 59 257 106T296 229Q296 276 271 296T196
316H149L172 384H201Q260 384 295 423T330 523Q330 565 309 587T248 609Q213 609 182 595T115 548L74 601Q119 641 163 660T257 679Q332 679 374 636Z" />
<glyph unicode="4" glyph-name="four" horiz-adv-x="478" d="M448 236L437 166H361L338 0H253L276 166H20L30 230L268 679L340 648L126 236H287L321 418H397L371 236H448Z" />
<glyph unicode="5" glyph-name="five" horiz-adv-x="453" d="M430 599H198L170 400Q216 425 265 425Q332 425 371 380T410 255Q410 193 384 132T303 29T166 -12Q108 -12 68 10T-3 74L54 121Q76 90 104 75T169 60Q221 60 255 90T305 165T321 255Q321 357 236 357Q212
357 191 352T145 333H78L125 669H451L430 599Z" />
<glyph unicode="6" glyph-name="six" horiz-adv-x="490" d="M373 439T411 396T450 273Q450 207 425 141T349 32T223 -12Q136 -12 95 44T53 202Q53 317 88 427T191 608T348 679Q415 679 468 637L427 581Q391 609 344 609Q280 609 230 539T156 351Q224 439 310 439Q373
439 411 396ZM275 58T305 92T349 176T363 273Q363 369 289 369Q250 369 213 342T145 269Q140 222 140 196Q140 124 160 91T226 58Q275 58 305 92Z" />
<glyph unicode="7" glyph-name="seven" horiz-adv-x="398" d="M429 669L420 602L113 -10L37 17L330 597H68L78 669H429Z" />
<glyph unicode="8" glyph-name="eight" horiz-adv-x="497" d="M447 306T447 206Q447 142 417 93T333 16T212 -12Q127 -12 77 35T27 157Q27 220 61 269T178 355Q105 399 105 487Q105 544 132 587T204 655T306 679Q379 679 427 640T476 531Q476 470 445 429T345
355Q447 306 447 206ZM245 612T217 576T189 489Q189 448 209 426T274 386L290 380Q349 413 370 448T391 529Q391 569 369 590T303 612Q245 612 217 576ZM280 58T319 99T358 208Q358 248 335 272T256 320L234 329Q167 297 142 253T116 157Q116 110 142 84T217 58Q280
58 319 99Z" />
<glyph unicode="9" glyph-name="nine" horiz-adv-x="474" d="M367 679T410 626T454 479Q454 371 425 277T307 102T56 -23L42 43Q171 83 247 148T352 325Q288 244 206 244Q142 244 102 291T61 416Q61 482 86 542T161 641T283 679Q367 679 410 626ZM295 313T363
402Q366 450 366 480Q366 547 345 578T280 609Q211 609 180 549T148 414Q148 365 168 339T225 313Q295 313 363 402Z" />
<glyph unicode=":" glyph-name="colon" horiz-adv-x="220" d="M48 -12T32 5T16 48Q16 78 36 99T86 121Q113 121 129 104T146 61Q146 31 126 10T75 -12Q48 -12 32 5ZM100 357T84 374T68 417Q68 447 88 468T138 490Q165 490 181 473T198 430Q198 400 178 379T127
357Q100 357 84 374Z" />
<glyph unicode=";" glyph-name="semicolon" horiz-adv-x="224" d="M112 121T128 105T144 62Q144 45 138 28T117 -17L37 -164H-23L38 1Q17 19 17 48Q17 79 36 100T87 121Q112 121 128 105ZM104 357T88 374T72 417Q72 447 92 468T142 490Q169 490 185 473T202 430Q202
400 182 379T131 357Q104 357 88 374Z" />
<glyph unicode="&lt;" glyph-name="less" horiz-adv-x="451" d="M412 548L438 476L122 329L394 186L353 117L47 288L60 377L412 548Z" />
<glyph unicode="=" glyph-name="equal" horiz-adv-x="453" d="M75 389L85 463H424L413 389H75ZM305 454L315 528H654L643 454H305Z" />
<glyph unicode="&gt;" glyph-name="greater" horiz-adv-x="451" d="M117 548L422 378L410 288L57 117L32 188L348 338L76 478L117 548Z" />
<glyph unicode="?" glyph-name="question" horiz-adv-x="418" d="M347 700T388 661T429 561Q429 515 412 483T371 432T307 388Q273 368 253 353T220 315T207 262Q207 249 210 232L132 219Q124 241 124 269Q124 311 139 340T178 388T238 429Q288 459 313 486T338
560Q338 628 264 628Q196 628 129 556L77 604Q162 700 271 700Q347 700 388 661ZM134 -12T118 5T102 48Q102 78 122 99T172 121Q199 121 215 104T232 61Q232 31 212 10T161 -12Q134 -12 118 5Z" />
<glyph unicode="@" glyph-name="at" horiz-adv-x="924" d="M639 700T714 657T828 537T867 365Q867 287 843 205T769 66T643 9Q594 9 569 39T541 111Q488 11 402 11Q343 11 307 55T271 176Q271 251 295 323T372 443T507 491Q576 491 641 453L602 169Q600 145 600
135Q600 108 609 93T644 77Q690 77 721 123T768 236T783 369Q783 492 717 560T528 628Q393 628 307 556T182 378T143 168Q143 79 175 10T270 -99T418 -139Q506 -139 595 -105L610 -174Q559 -193 513 -202T412 -212Q307 -212 227 -164T102 -29T57 168Q57 288 107
411T264 617T532 700Q639 700 714 657ZM456 76T483 107T525 173L561 417Q536 428 507 428Q424 428 389 351T353 173Q353 76 417 76Q456 76 483 107Z" />
<glyph unicode="A" glyph-name="A" horiz-adv-x="520" d="M381 0L360 175H133L63 0H-30L263 689H376L475 0H381ZM162 248H351L308 613L162 248Z" />
<glyph unicode="B" glyph-name="B" horiz-adv-x="549" d="M432 351T466 319T501 225Q501 126 436 63T225 0H50L147 689H327Q418 689 471 650T525 537Q525 467 484 423T373 364Q432 351 466 319ZM227 617L196 396H287Q355 396 394 431T433 534Q433 617 328 617H227ZM331
73T369 114T408 226Q408 279 377 302T286 325H186L150 73H233Q331 73 369 114Z" />
<glyph unicode="C" glyph-name="C" horiz-adv-x="506" d="M424 700T464 683T537 630L485 580Q457 604 431 615T373 626Q295 626 245 568T172 422T149 246Q149 153 183 109T278 65Q318 65 348 79T418 122L456 62Q372 -12 269 -12Q171 -12 113 57T55 252Q55 358
89 461T194 632T371 700Q424 700 464 683Z" />
<glyph unicode="D" glyph-name="D" horiz-adv-x="586" d="M409 689T481 634T554 444Q554 322 519 222T404 61T203 0H50L147 689H287Q409 689 481 634ZM227 616L150 72H219Q306 72 361 126T439 265T463 445Q463 544 419 580T296 616H227Z" />
<glyph unicode="E" glyph-name="E" horiz-adv-x="475" d="M483 689L462 616H227L194 387H400L390 314H184L150 73H404L392 0H50L147 689H483Z" />
<glyph unicode="F" glyph-name="F" horiz-adv-x="435" d="M476 689L455 616H227L193 377H392L382 305H183L140 0H50L147 689H476Z" />
<glyph unicode="G" glyph-name="G" horiz-adv-x="570" d="M440 700T483 681T562 623L505 574Q475 602 447 614T381 626Q302 626 250 567T172 418T147 233Q147 145 180 104T278 63Q341 63 398 96L428 307H323L324 381H527L482 53Q380 -12 269 -12Q166 -12 110 53T53
243Q53 354 89 459T200 632T382 700Q440 700 483 681Z" />
<glyph unicode="H" glyph-name="H" horiz-adv-x="606" d="M140 0H50L147 689H237L196 399H448L489 689H579L482 0H392L438 324H185L140 0Z" />
<glyph unicode="I" glyph-name="I" horiz-adv-x="264" d="M237 689L140 0H50L147 689H237Z" />
<glyph unicode="J" glyph-name="J" horiz-adv-x="275" d="M168 90Q158 22 133 -21T70 -90T-25 -136L-45 -71Q-1 -51 23 -30T60 21T79 99L163 689H253L168 90Z" />
<glyph unicode="K" glyph-name="K" horiz-adv-x="532" d="M50 0L147 689H237L140 0H50ZM389 0L196 368L472 689H573L295 365L492 0H389Z" />
<glyph unicode="L" glyph-name="L" horiz-adv-x="440" d="M237 689L151 80H402L381 0H50L147 689H237Z" />
<glyph unicode="M" glyph-name="M" horiz-adv-x="707" d="M611 0H524L546 310Q557 462 571 595L372 78H284L220 594Q209 504 170 304L109 0H21L170 689H284L343 185L531 689H656L611 0Z" />
<glyph unicode="N" glyph-name="N" horiz-adv-x="608" d="M484 0H366L204 610Q201 484 178 321L134 0H50L147 689H265L428 78Q431 201 445 311L497 689H581L484 0Z" />
<glyph unicode="O" glyph-name="O" horiz-adv-x="624" d="M477 700T534 632T592 437Q592 331 560 228T455 57T272 -12Q170 -12 112 56T54 249Q54 352 87 455T192 629T375 700Q477 700 534 632ZM290 626T240 565T169 417T148 246Q148 63 276 63Q357 63 407 124T478
273T499 445Q499 538 467 582T370 626Q290 626 240 565Z" />
<glyph unicode="P" glyph-name="P" horiz-adv-x="513" d="M410 689T465 643T521 508Q521 441 494 384T405 291T246 255H176L140 0H50L147 689H307Q410 689 465 643ZM348 327T387 379T427 509Q427 567 395 592T297 617H227L186 327H250Q348 327 387 379Z" />
<glyph unicode="Q" glyph-name="Q" horiz-adv-x="623" d="M592 356T573 276T510 131T398 35Q490 31 559 -31L489 -102Q447 -50 402 -31T272 -12Q170 -12 112 56T54 249Q54 352 87 455T192 629T375 700Q477 700 534 632T592 437Q592 356 573 276ZM148 150T181 107T276
63Q358 63 407 125T478 275T499 449Q499 626 370 626Q290 626 240 565T169 416T148 243Q148 150 181 107Z" />
<glyph unicode="R" glyph-name="R" horiz-adv-x="542" d="M518 454T480 396T363 310L484 0H387L278 293H181L140 0H50L147 689H306Q411 689 464 646T518 523Q518 454 480 396ZM268 364Q352 364 388 410T425 520Q425 571 396 594T303 617H227L191 364H268Z" />
<glyph unicode="S" glyph-name="S" horiz-adv-x="489" d="M364 700T408 679T489 618L434 567Q404 598 373 612T305 626Q249 626 213 593T176 507Q176 468 199 445T287 396Q365 365 404 325T444 212Q444 153 415 102T329 20T194 -12Q70 -12 -9 80L48 131Q79 97
114 80T196 63Q266 63 308 102T351 208Q351 252 327 277T237 330Q155 364 120 401T84 503Q84 552 111 597T189 671T306 700Q364 700 408 679Z" />
<glyph unicode="T" glyph-name="T" horiz-adv-x="463" d="M515 689L494 611H325L239 0H149L235 611H61L72 689H515Z" />
<glyph unicode="U" glyph-name="U" horiz-adv-x="588" d="M502 197Q489 105 424 47T257 -12Q165 -12 116 38T66 169Q66 192 68 204L137 689H227L159 202Q157 190 157 169Q157 65 263 65Q328 65 366 103T413 208L480 689H570L502 197Z" />
<glyph unicode="V" glyph-name="V" horiz-adv-x="504" d="M556 689L267 0H165L67 689H160L228 98L462 689H556Z" />
<glyph unicode="W" glyph-name="W" horiz-adv-x="743" d="M780 689L560 0H444L416 583L224 0H110L84 689H170L181 81L381 689H479L511 81L696 689H780Z" />
<glyph unicode="X" glyph-name="X" horiz-adv-x="483" d="M520 689L307 371L442 0H346L249 307L66 0H-34L202 367L80 689H177L260 426L421 689H520Z" />
<glyph unicode="Y" glyph-name="Y" horiz-adv-x="493" d="M549 689L292 265L255 0H163L201 264L64 689H158L256 344L451 689H549Z" />
<glyph unicode="Z" glyph-name="Z" horiz-adv-x="465" d="M-12 0L-1 73L379 612H106L117 689H489L478 615L99 77L403 78L381 0H-12Z" />
<glyph unicode="[" glyph-name="bracketleft" horiz-adv-x="287" d="M321 815L310 741H205L95 -43H200L191 -116H3L134 815H321Z" />
<glyph unicode="\" glyph-name="backslash" horiz-adv-x="469" d="M242 802L324 -90L250 -103L169 789L242 802Z" />
<glyph unicode="]" glyph-name="bracketright" horiz-adv-x="287" d="M309 815L178 -116H-9L1 -43H107L216 741H111L121 815H309Z" />
<glyph unicode="^" glyph-name="asciicircum" horiz-adv-x="488" d="M364 839L488 527H398L316 762L167 527H74L286 839H364Z" />
<glyph unicode="_" glyph-name="underscore" horiz-adv-x="471" d="M-38 -140L-27 -64H406L395 -140H-38Z" />
<glyph unicode="`" glyph-name="grave" horiz-adv-x="273" d="M139 796L303 684L274 639L95 725L139 796Z" />
<glyph unicode="a" glyph-name="a" horiz-adv-x="519" d="M390 538T474 497L420 119Q418 99 418 92Q418 76 424 66T446 49L418 -12Q381 -7 361 13T336 73Q305 32 271 10T194 -12Q123 -12 83 39T43 178Q43 262 71 345T160 483T312 538Q390 538 474 497ZM252 468T212
425T153 314T134 178Q134 58 212 58Q248 58 277 82T339 153L381 455Q349 468 312 468Q252 468 212 425Z" />
<glyph unicode="b" glyph-name="b" horiz-adv-x="527" d="M405 538T444 488T483 346Q483 259 456 177T369 42T216 -12Q175 -12 136 -4T48 23L149 739L237 749L199 472Q263 538 338 538Q405 538 444 488ZM253 468T187 391L143 73Q184 58 224 58Q282 58 320 102T376
214T394 350Q394 468 314 468Q253 468 187 391Z" />
<glyph unicode="c" glyph-name="c" horiz-adv-x="428" d="M340 538T373 525T436 481L389 428Q368 448 347 457T298 466Q240 466 204 423T152 315T136 186Q136 63 228 63Q257 63 281 72T335 102L370 43Q299 -12 220 -12Q137 -12 91 41T45 191Q45 273 72 352T156
485T298 538Q340 538 373 525Z" />
<glyph unicode="d" glyph-name="d" horiz-adv-x="532" d="M516 738L412 0H336L338 85Q283 -12 193 -12Q121 -12 83 40T44 184Q44 263 69 345T146 483T276 539Q351 539 392 475L430 747L516 738ZM235 469T200 423T150 309T134 179Q134 119 154 89T212 58Q251 58
283 89T352 183L382 403Q365 436 343 452T288 469Q235 469 200 423Z" />
<glyph unicode="e" glyph-name="e" horiz-adv-x="474" d="M452 305T369 260T135 197V191Q135 62 232 62Q265 62 295 73T359 109L396 51Q313 -12 223 -12Q138 -12 92 41T45 190Q45 273 71 353T156 485T301 538Q373 538 412 501T452 407Q452 305 369 260ZM229 468T191
409T140 264Q255 278 309 308T363 404Q363 432 347 450T297 468Q229 468 191 409Z" />
<glyph unicode="f" glyph-name="f" horiz-adv-x="295" d="M273 679T253 659T228 598L218 527H333L313 458H208L147 22Q137 -50 115 -92T58 -159T-36 -212L-60 -146Q-22 -128 0 -111T38 -61T61 28L122 458H40L49 527H131L142 603Q151 671 193 710T306 750Q340 750
366 741T421 712L388 655Q350 679 310 679Q273 679 253 659Z" />
<glyph unicode="g" glyph-name="g" horiz-adv-x="523" d="M358 538T397 528T477 497L406 5Q389 -111 332 -163T183 -215Q141 -215 98 -202T19 -165L54 -100Q81 -116 114 -127T181 -139Q236 -139 272 -109T321 6L330 76Q301 40 269 20T195 0Q125 0 85 50T44 186Q44
270 72 350T162 484T315 538Q358 538 397 528ZM254 468T214 426T154 319T135 186Q135 70 214 70Q249 70 279 95T342 166L384 455Q352 468 314 468Q254 468 214 426Z" />
<glyph unicode="h" glyph-name="h" horiz-adv-x="522" d="M400 539T431 505T462 411Q462 389 460 377L407 0H320L372 375Q374 397 374 404Q374 465 325 465Q254 465 176 321L132 0H45L149 738L237 747L192 432Q259 539 347 539Q400 539 431 505Z" />
<glyph unicode="i" glyph-name="i" horiz-adv-x="252" d="M206 527L132 0H45L119 527H206ZM156 657T141 672T126 711Q126 740 145 758T191 777Q216 777 231 762T246 723Q246 694 227 676T181 657Q156 657 141 672Z" />
<glyph unicode="j" glyph-name="j" horiz-adv-x="253" d="M-70 -146Q-32 -128 -10 -111T27 -61T51 28L121 527H208L137 22Q127 -50 105 -92T48 -159T-46 -212L-70 -146ZM159 657T144 672T129 711Q129 740 148 758T194 777Q219 777 234 762T249 723Q249 694 230
676T184 657Q159 657 144 672Z" />
<glyph unicode="k" glyph-name="k" horiz-adv-x="495" d="M193 434Q260 538 355 538Q408 538 441 506T474 422Q474 360 436 313T321 235L425 0H330L222 257Q308 282 345 319T383 413Q383 440 370 454T331 469Q292 469 251 430T176 315L132 0H45L149 739L237 749L193 434Z" />
<glyph unicode="l" glyph-name="l" horiz-adv-x="262" d="M141 99L140 87Q140 61 163 61Q179 61 195 67L210 5Q177 -12 142 -12Q101 -12 78 12T54 81Q54 89 56 107L145 739L232 749L141 99Z" />
<glyph unicode="m" glyph-name="m" horiz-adv-x="764" d="M646 539T675 505T704 412Q704 391 702 379L648 0H561L614 375Q616 397 616 404Q616 465 570 465Q537 465 504 426T436 322L389 0H302L355 375Q357 397 357 405Q357 437 345 451T311 465Q278 465 245 426T177
321L132 0H45L119 527H194L186 429Q220 482 257 510T339 539Q381 539 409 511T444 432Q479 485 516 512T598 539Q646 539 675 505Z" />
<glyph unicode="n" glyph-name="n" horiz-adv-x="522" d="M401 539T432 505T463 412Q463 394 460 376L407 0H320L373 375Q375 395 375 403Q375 465 325 465Q255 465 177 321L132 0H45L119 527H194L186 427Q222 481 261 510T349 539Q401 539 432 505Z" />
<glyph unicode="o" glyph-name="o" horiz-adv-x="524" d="M138 -12T92 43T45 194Q45 272 71 351T154 484T301 538Q386 538 432 484T479 333Q479 256 454 177T371 43T224 -12Q138 -12 92 43ZM286 59T322 105T373 216T389 342Q389 467 297 467Q238 467 202 422T151
312T135 185Q135 59 227 59Q286 59 322 105Z" />
<glyph unicode="p" glyph-name="p" horiz-adv-x="527" d="M119 527H195L191 463Q256 538 338 538Q406 538 445 488T484 346Q484 260 457 178T372 42T222 -12Q176 -12 132 6L102 -203L15 -215L119 527ZM282 58T320 102T376 214T394 350Q394 468 315 468Q253 468
187 391L143 73Q181 58 224 58Q282 58 320 102Z" />
<glyph unicode="q" glyph-name="q" horiz-adv-x="521" d="M327 63Q271 -12 194 -12Q123 -12 83 39T43 178Q43 262 71 345T160 483T312 538Q354 538 393 528T476 497L376 -203L289 -215L327 63ZM248 58T277 82T339 153L382 455Q350 468 312 468Q252 468 212 425T153
314T134 178Q134 58 212 58Q248 58 277 82Z" />
<glyph unicode="r" glyph-name="r" horiz-adv-x="346" d="M350 538T375 531L348 447Q326 452 309 452Q265 452 232 409T171 282L132 0H45L119 527H194L187 425Q214 481 249 509T328 538Q350 538 375 531Z" />
<glyph unicode="s" glyph-name="s" horiz-adv-x="423" d="M338 538T404 474L361 423Q307 468 245 468Q202 468 177 448T151 392Q151 364 172 347T245 310Q310 287 341 252T372 160Q372 107 345 68T272 9T170 -12Q63 -12 -8 63L42 114Q102 59 173 59Q228 59 254
87T281 152Q281 189 261 208T184 248Q119 272 91 304T62 387Q62 426 84 460T147 516T245 538Q338 538 404 474Z" />
<glyph unicode="t" glyph-name="t" horiz-adv-x="326" d="M157 126Q156 119 156 107Q156 84 166 73T199 61Q215 61 230 66T267 82L294 23Q243 -12 185 -12Q131 -12 100 18T69 102Q69 110 71 130L117 458H37L47 527H130L161 649L232 657L214 527H325L305 458H204L157 126Z" />
<glyph unicode="u" glyph-name="u" horiz-adv-x="518" d="M122 -12T91 21T59 112Q59 121 61 143L115 527H202L148 141Q146 131 146 114Q146 57 194 57Q233 57 268 92T337 180L386 527H473L399 0H325L332 94Q297 42 261 15T176 -12Q122 -12 91 21Z" />
<glyph unicode="v" glyph-name="v" horiz-adv-x="444" d="M471 527L238 0H134L47 527H141L197 79L377 527H471Z" />
<glyph unicode="w" glyph-name="w" horiz-adv-x="649" d="M666 527L487 0H372L352 448L205 0H93L58 527H143L160 62L316 527H413L435 62L582 527H666Z" />
<glyph unicode="x" glyph-name="x" horiz-adv-x="437" d="M450 527L273 275L395 0H301L214 225L65 0H-32L169 283L62 527H155L228 329L354 527H450Z" />
<glyph unicode="y" glyph-name="y" horiz-adv-x="444" d="M244 -5Q204 -101 146 -150T-9 -212L-12 -145Q37 -135 67 -119T119 -75T162 0H129L47 527H139L195 67L380 527H471L244 -5Z" />
<glyph unicode="z" glyph-name="z" horiz-adv-x="391" d="M399 527L390 459L97 74H339L319 0H-16L-7 66L286 452H67L79 527H399Z" />
<glyph unicode="{" glyph-name="braceleft" horiz-adv-x="289" d="M321 767Q277 767 256 750T228 690L196 454Q189 403 169 382T106 347Q138 336 152 320T167 269Q167 262 165 240L132 3Q131 -4 131 -15Q131 -44 147 -55T202 -67L195 -135Q122 -135 86 -107T50
-19Q50 2 52 13L83 240Q85 250 85 267Q85 292 73 302T28 313L38 385Q73 385 91 402T114 460L147 692Q158 770 198 802T328 835L321 767Z" />
<glyph unicode="|" glyph-name="bar" horiz-adv-x="361" d="M297 807L170 -102H90L217 807H297Z" />
<glyph unicode="}" glyph-name="braceright" horiz-adv-x="289" d="M-7 -67Q37 -67 58 -50T85 10L118 246Q125 297 144 318T207 353Q176 364 162 380T147 430Q147 449 149 460L181 697Q183 711 183 717Q183 744 166 755T111 767L118 835Q191 835 227 807T263 719Q263
698 261 687L230 460Q228 450 228 433Q228 408 240 398T285 387L275 315Q240 315 222 298T199 240L166 8Q155 -70 115 -102T-14 -135L-7 -67Z" />
<glyph unicode="~" glyph-name="asciitilde" horiz-adv-x="443" d="M269 252T252 261T213 287Q197 300 186 306T161 313Q138 313 121 299T86 260L37 290Q95 382 169 382Q190 382 207 374T244 349Q262 335 274 329T299 322Q339 322 372 369L421 339Q366 252 292
252Q269 252 252 261Z" />
<glyph unicode="&#xa0;" glyph-name="uni00A0" horiz-adv-x="231" />
<glyph unicode="&#xa1;" glyph-name="exclamdown" horiz-adv-x="225" d="M104 359T88 376T72 419Q72 449 92 470T142 492Q169 492 185 475T202 432Q202 402 182 381T131 359Q104 359 88 376ZM150 247L97 -201H2L75 247H150Z" />
<glyph unicode="&#xa2;" glyph-name="cent" horiz-adv-x="428" d="M240 466T204 423T152 315T136 186Q136 63 228 63Q257 63 281 72T335 102L370 43Q311 -3 248 -10L227 -154H154L175 -7Q113 7 79 58T45 191Q45 265 67 338T135 465T252 534L273 684H345L324 537Q387
530 436 481L389 428Q368 448 347 457T298 466Q240 466 204 423Z" />
<glyph unicode="&#xa3;" glyph-name="sterling" horiz-adv-x="467" d="M388 679T425 658T488 595L429 555Q411 583 390 595T338 607Q294 607 266 577T230 492L215 381H397L388 323H207L190 197Q183 147 168 120T116 73H401L379 0H2L10 71Q44 84 62 99T89 138T104
204L121 323H61L70 381H129L145 497Q157 579 207 629T337 679Q388 679 425 658Z" />
<glyph unicode="&#xa4;" glyph-name="currency" horiz-adv-x="504" d="M435 90L366 166Q318 134 256 134Q198 134 151 167L82 90L31 139L104 218Q71 270 71 341Q71 409 103 462L28 545L82 593L152 515Q198 547 256 547Q318 547 365 516L435 593L487 544L414 465Q448
412 448 341Q448 270 416 218L489 138L435 90ZM312 203T339 238T366 342Q366 410 339 445T259 481Q206 481 179 446T151 342Q151 273 178 238T259 203Q312 203 339 238Z" />
<glyph unicode="&#xa5;" glyph-name="yen" horiz-adv-x="479" d="M533 669L317 345H417L408 285H287L274 194H395L387 135H266L247 0H158L178 135H55L63 194H186L199 285H76L85 345H186L61 669H154L255 371L439 669H533Z" />
<glyph unicode="&#xa6;" glyph-name="brokenbar" horiz-adv-x="361" d="M297 807L246 443H166L217 807H297ZM221 262L170 -102H90L141 262H221Z" />
<glyph unicode="&#xa7;" glyph-name="section" horiz-adv-x="492" d="M264 609T242 587T219 530Q219 498 238 480T311 439Q429 393 429 307Q429 264 407 231T337 169Q374 132 374 79Q374 40 354 6T291 -49T184 -71Q98 -71 31 -20L71 36Q120 -2 190 -2Q242 -2 264
20T287 77Q287 110 269 127T194 166Q132 189 104 219T75 297Q75 383 168 438Q133 473 133 523Q133 571 157 606T223 659T314 677Q404 677 470 621L431 569Q403 590 376 599T316 609Q264 609 242 587ZM241 389T213 405Q183 379 172 356T160 306Q160 279 175 262T228
229Q267 214 291 201Q321 227 334 249T347 296Q347 323 330 342T268 379Q241 389 213 405Z" />
<glyph unicode="&#xa8;" glyph-name="dieresis" horiz-adv-x="356" d="M119 656T106 669T92 704Q92 730 109 747T152 764Q173 764 186 750T200 716Q200 689 183 673T141 656Q119 656 106 669ZM307 656T294 669T280 704Q280 730 297 747T340 764Q361 764 374 750T388
716Q388 690 371 673T329 656Q307 656 294 669Z" />
<glyph unicode="&#xa9;" glyph-name="copyright" horiz-adv-x="731" d="M468 747T532 708T634 598T672 434Q672 342 635 271T533 161T390 122Q311 122 246 161T144 271T106 434Q106 526 143 597T246 708T390 747Q468 747 532 708ZM325 696T274 664T193 573T163
434Q163 356 192 297T273 206T390 174Q455 174 506 206T586 297T616 434Q616 513 587 572T506 664T390 696Q325 696 274 664ZM450 624T497 585L465 541Q431 566 395 566Q359 566 338 535T316 435Q316 369 337 338T396 307Q418 307 434 314T470 336L500 291Q478
270 453 258T392 246Q327 246 286 295T245 435Q245 526 286 575T393 624Q450 624 497 585Z" />
<glyph unicode="&#xaa;" glyph-name="ordfeminine" horiz-adv-x="447" d="M132 271T102 302T72 383Q72 443 115 484T259 525H311L314 546Q316 562 316 568Q316 596 301 609T254 622Q211 622 153 601L136 662Q210 689 271 689Q334 689 366 660T399 575Q399 567
397 547L374 380Q372 366 372 361Q372 349 377 342T395 330L370 272Q341 276 324 289T299 329Q253 271 184 271Q132 271 102 302ZM256 335T293 393L304 471H258Q205 471 182 447T158 387Q158 362 170 349T206 335Q256 335 293 393ZM18 0L28 74H367L356 0H18Z" />
<glyph unicode="&#xab;" glyph-name="guillemotleft" horiz-adv-x="529" d="M241 533L293 497L142 286L234 77L178 41L50 256L58 317L241 533ZM460 533L512 497L361 286L453 77L397 41L269 256L277 317L460 533Z" />
<glyph unicode="&#xac;" glyph-name="logicalnot" horiz-adv-x="455" d="M411 359L381 144H298L318 285H60L70 359H411Z" />
<glyph unicode="&#xad;" glyph-name="uni00AD" horiz-adv-x="364" d="M56 276L66 350H322L311 276H56Z" />
<glyph unicode="&#xae;" glyph-name="registered" horiz-adv-x="576" d="M385 748T437 715T520 624T550 494Q550 422 520 364T438 273T320 240Q256 240 204 272T121 363T91 493Q91 565 121 623T203 715T320 748Q385 748 437 715ZM372 288T412 313T476 386T499
494Q499 555 476 602T413 675T320 701Q269 701 229 675T165 602T142 493Q142 432 165 386T228 314T320 288Q372 288 412 313ZM417 522T402 503T360 475L426 360H366L313 466H289V360H237V635H307Q362 635 389 614T417 551Q417 522 402 503ZM289 509H316Q364 509
364 551Q364 572 352 582T314 592H289V509Z" />
<glyph unicode="&#xaf;" glyph-name="overscore" horiz-adv-x="305" d="M331 668H87L96 734H341L331 668Z" />
<glyph unicode="&#xb0;" glyph-name="degree" horiz-adv-x="465" d="M161 383T125 417T89 515Q89 567 111 609T171 675T256 700Q311 700 347 666T383 568Q383 517 361 475T301 408T217 383Q161 383 125 417ZM263 443T288 477T314 568Q314 640 253 640Q209 640
184 606T158 515Q158 443 219 443Q263 443 288 477Z" />
<glyph unicode="&#xb1;" glyph-name="plusminus" horiz-adv-x="454" d="M21 0L31 74H370L359 0H21ZM306 540L285 389H414L404 316H274L252 167H174L195 316H65L75 389H206L227 540H306Z" />
<glyph unicode="&#xb2;" glyph-name="uni00B2" horiz-adv-x="355" d="M288 745T318 716T348 640Q348 601 326 563T269 490T170 397L154 382H322L306 322H64L72 380L107 413Q167 470 199 504T253 572T274 639Q274 662 262 674T228 686Q205 686 186 675T144 642L102
680Q159 745 236 745Q288 745 318 716Z" />
<glyph unicode="&#xb3;" glyph-name="uni00B3" horiz-adv-x="355" d="M292 746T320 719T349 650Q349 608 324 581T253 542Q288 539 309 518T331 459Q331 418 311 385T256 333T176 313Q135 313 104 329T54 375L100 410Q131 371 176 371Q214 371 237 397T260 463Q260
490 245 501T198 513H165L182 567H201Q235 567 256 590T278 645Q278 667 265 678T229 689Q206 689 186 681T143 655L111 695Q169 746 239 746Q292 746 320 719Z" />
<glyph unicode="&#xb4;" glyph-name="acute" horiz-adv-x="276" d="M279 797L312 725L111 639L88 685L279 797Z" />
<glyph unicode="&#xb5;" glyph-name="uni00B5" horiz-adv-x="525" d="M416 115T416 74Q416 42 422 -2L342 -10Q336 16 334 35T333 80Q273 -12 196 -12Q148 -12 122 24Q125 11 125 -7Q125 -39 116 -97L102 -201L15 -212L119 527H206L153 152Q151 132 151 125Q151
59 209 59Q283 59 336 163L387 527H473L424 177Q416 115 416 74Z" />
<glyph unicode="&#xb6;" glyph-name="paragraph" horiz-adv-x="660" d="M600 689L475 -201L396 -214L511 618H409L296 -201L216 -214L286 284Q198 288 154 333T110 451Q110 524 141 577T229 660T361 689H600Z" />
<glyph unicode="&#xb7;" glyph-name="middot" horiz-adv-x="220" d="M84 244T68 261T52 304Q52 334 72 355T122 377Q149 377 165 360T182 317Q182 287 162 266T111 244Q84 244 68 261Z" />
<glyph unicode="&#xb8;" glyph-name="cedilla" horiz-adv-x="254" d="M93 -59Q130 -63 148 -83T167 -135Q167 -178 135 -208T46 -239Q-6 -239 -37 -213L-8 -167Q6 -174 18 -178T46 -182Q68 -182 82 -170T97 -138Q97 -116 82 -108T23 -99L50 16H105L93 -59Z" />
<glyph unicode="&#xb9;" glyph-name="uni00B9" horiz-adv-x="355" d="M310 739L251 322H180L227 662L136 607L108 656L246 739H310Z" />
<glyph unicode="&#xba;" glyph-name="ordmasculine" horiz-adv-x="448" d="M353 689T392 646T432 525Q432 461 410 403T341 308T229 271Q156 271 117 314T77 435Q77 499 100 557T169 652T281 689Q353 689 392 646ZM218 622T191 564T163 429Q163 338 231 338Q291
338 318 397T346 532Q346 622 278 622Q218 622 191 564ZM18 0L28 74H367L356 0H18Z" />
<glyph unicode="&#xbb;" glyph-name="guillemotright" horiz-adv-x="529" d="M138 533L267 317L259 256L74 41L24 77L175 288L83 497L138 533ZM357 533L486 317L478 256L293 41L243 77L394 288L302 497L357 533Z" />
<glyph unicode="&#xbc;" glyph-name="onequarter" horiz-adv-x="826" d="M303 689L244 272H173L220 612L129 557L101 606L239 689H303ZM627 749L679 722L205 -77L152 -50L627 749ZM775 155L766 97H721L707 0H638L651 97H484L492 149L643 424L701 400L567 155H660L683
261H744L729 155H775Z" />
<glyph unicode="&#xbd;" glyph-name="onehalf" horiz-adv-x="826" d="M303 689L244 272H173L220 612L129 557L101 606L239 689H303ZM627 749L679 722L205 -77L152 -50L627 749ZM714 423T744 394T774 318Q774 279 752 241T695 168T596 75L580 60H748L732 0H490L498
58L533 91Q593 148 625 182T679 250T700 317Q700 340 688 352T654 364Q631 364 612 353T570 320L528 358Q585 423 662 423Q714 423 744 394Z" />
<glyph unicode="&#xbe;" glyph-name="threequarters" horiz-adv-x="826" d="M285 696T313 669T342 600Q342 558 317 531T246 492Q281 489 302 468T324 409Q324 368 304 335T249 283T169 263Q128 263 97 279T47 325L93 360Q124 321 169 321Q207 321 230 347T253
413Q253 440 238 451T191 463H158L175 517H194Q228 517 249 540T271 595Q271 617 258 628T222 639Q199 639 179 631T136 605L104 645Q162 696 232 696Q285 696 313 669ZM627 749L679 722L205 -77L152 -50L627 749ZM775 155L766 97H721L707 0H638L651 97H484L492
149L643 424L701 400L567 155H660L683 261H744L729 155H775Z" />
<glyph unicode="&#xbf;" glyph-name="questiondown" horiz-adv-x="418" d="M277 507T293 490T309 447Q309 417 289 396T239 374Q212 374 196 391T179 434Q179 464 199 485T250 507Q277 507 293 490ZM64 -215T24 -176T-17 -76Q-17 -30 0 1T40 52T104 96Q138 116
158 131T191 169T204 223Q204 231 202 253L279 266Q288 245 288 216Q288 174 272 145T234 98T173 56Q139 36 120 21T87 -18T73 -73Q73 -143 148 -143Q182 -143 216 -125T283 -70L335 -119Q250 -215 141 -215Q64 -215 24 -176Z" />
<glyph unicode="&#xc0;" glyph-name="Agrave" horiz-adv-x="520" d="M381 0L360 175H133L63 0H-30L263 689H376L475 0H381ZM162 248H351L308 613L162 248ZM281 903L447 801L418 755L239 831L281 903Z" />
<glyph unicode="&#xc1;" glyph-name="Aacute" horiz-adv-x="520" d="M381 0L360 175H133L63 0H-30L263 689H376L475 0H381ZM162 248H351L308 613L162 248ZM416 904L449 831L248 755L227 801L416 904Z" />
<glyph unicode="&#xc2;" glyph-name="Acircumflex" horiz-adv-x="520" d="M381 0L360 175H133L63 0H-30L263 689H376L475 0H381ZM162 248H351L308 613L162 248ZM216 759L180 801L318 912H374L480 798L442 759L339 840L216 759Z" />
<glyph unicode="&#xc3;" glyph-name="Atilde" horiz-adv-x="520" d="M381 0L360 175H133L63 0H-30L263 689H376L475 0H381ZM162 248H351L308 613L162 248ZM373 783T359 790T327 811Q315 821 307 826T289 831Q274 831 262 820T234 786L187 814Q236 898 292 898Q311
898 324 891T355 870Q366 860 374 855T392 850Q406 850 418 860T446 894L495 866Q450 783 392 783Q373 783 359 790Z" />
<glyph unicode="&#xc4;" glyph-name="Adieresis" horiz-adv-x="520" d="M381 0L360 175H133L63 0H-30L263 689H376L475 0H381ZM162 248H351L308 613L162 248ZM221 782T208 795T194 830Q194 856 211 873T254 890Q275 890 288 876T302 842Q302 815 285 799T243 782Q221
782 208 795ZM409 782T396 795T382 830Q382 856 399 873T442 890Q463 890 476 876T490 842Q490 816 473 799T431 782Q409 782 396 795Z" />
<glyph unicode="&#xc5;" glyph-name="Aring" horiz-adv-x="520" d="M381 0L360 175H133L63 0H-30L263 689H376L475 0H381ZM162 248H351L308 613L162 248ZM397 960T423 934T449 866Q449 817 416 785T334 752Q293 752 267 778T241 845Q241 894 274 927T355 960Q397
960 423 934ZM327 912T313 893T298 846Q298 824 308 812T337 799Q363 799 377 818T392 865Q392 888 382 900T353 912Q327 912 313 893Z" />
<glyph unicode="&#xc6;" glyph-name="AE" horiz-adv-x="733" d="M689 616H417L434 386H660L650 313H440L458 73H662L650 0H378L367 174H131L50 0H-44L295 689H711L689 616ZM166 248H362L338 616L166 248Z" />
<glyph unicode="&#xc7;" glyph-name="Ccedilla" horiz-adv-x="506" d="M295 626T245 568T172 422T149 246Q149 153 183 109T278 65Q318 65 348 79T418 122L456 62Q383 -2 294 -11L286 -59Q323 -63 341 -83T360 -135Q360 -178 328 -208T239 -239Q187 -239 156 -213L185
-167Q199 -174 211 -178T239 -182Q261 -182 275 -170T290 -138Q290 -116 275 -108T216 -99L237 -10Q153 2 104 69T55 252Q55 358 89 461T194 632T371 700Q424 700 464 683T537 630L485 580Q457 604 431 615T373 626Q295 626 245 568Z" />
<glyph unicode="&#xc8;" glyph-name="Egrave" horiz-adv-x="475" d="M483 689L462 616H227L194 387H400L390 314H184L150 73H404L392 0H50L147 689H483ZM279 903L445 801L416 755L237 831L279 903Z" />
<glyph unicode="&#xc9;" glyph-name="Eacute" horiz-adv-x="475" d="M483 689L462 616H227L194 387H400L390 314H184L150 73H404L392 0H50L147 689H483ZM414 904L447 831L246 755L225 801L414 904Z" />
<glyph unicode="&#xca;" glyph-name="Ecircumflex" horiz-adv-x="475" d="M483 689L462 616H227L194 387H400L390 314H184L150 73H404L392 0H50L147 689H483ZM214 759L178 801L316 912H372L478 798L440 759L337 840L214 759Z" />
<glyph unicode="&#xcb;" glyph-name="Edieresis" horiz-adv-x="475" d="M483 689L462 616H227L194 387H400L390 314H184L150 73H404L392 0H50L147 689H483ZM219 782T206 795T192 830Q192 856 209 873T252 890Q273 890 286 876T300 842Q300 815 283 799T241 782Q219
782 206 795ZM407 782T394 795T380 830Q380 856 397 873T440 890Q461 890 474 876T488 842Q488 816 471 799T429 782Q407 782 394 795Z" />
<glyph unicode="&#xcc;" glyph-name="Igrave" horiz-adv-x="264" d="M237 689L140 0H50L147 689H237ZM153 903L319 801L290 755L111 831L153 903Z" />
<glyph unicode="&#xcd;" glyph-name="Iacute" horiz-adv-x="264" d="M237 689L140 0H50L147 689H237ZM288 904L321 831L120 755L99 801L288 904Z" />
<glyph unicode="&#xce;" glyph-name="Icircumflex" horiz-adv-x="264" d="M237 689L140 0H50L147 689H237ZM88 759L52 801L190 912H246L352 798L314 759L211 840L88 759Z" />
<glyph unicode="&#xcf;" glyph-name="Idieresis" horiz-adv-x="264" d="M237 689L140 0H50L147 689H237ZM93 782T80 795T66 830Q66 856 83 873T126 890Q147 890 160 876T174 842Q174 815 157 799T115 782Q93 782 80 795ZM281 782T268 795T254 830Q254 856 271
873T314 890Q335 890 348 876T362 842Q362 816 345 799T303 782Q281 782 268 795Z" />
<glyph unicode="&#xd0;" glyph-name="Eth" horiz-adv-x="594" d="M417 689T489 634T562 444Q562 322 527 222T412 61T211 0H58L103 319H26L36 387H112L155 689H295Q417 689 489 634ZM314 72T369 126T447 265T471 445Q471 544 427 580T304 616H235L203 387H342L333
319H193L158 72H227Q314 72 369 126Z" />
<glyph unicode="&#xd1;" glyph-name="Ntilde" horiz-adv-x="608" d="M484 0H366L204 610Q201 484 178 321L134 0H50L147 689H265L428 78Q431 201 445 311L497 689H581L484 0ZM426 783T412 790T380 811Q368 821 360 826T342 831Q327 831 315 820T287 786L240 814Q289
898 345 898Q364 898 377 891T408 870Q419 860 427 855T445 850Q459 850 471 860T499 894L548 866Q503 783 445 783Q426 783 412 790Z" />
<glyph unicode="&#xd2;" glyph-name="Ograve" horiz-adv-x="624" d="M477 700T534 632T592 437Q592 331 560 228T455 57T272 -12Q170 -12 112 56T54 249Q54 352 87 455T192 629T375 700Q477 700 534 632ZM290 626T240 565T169 417T148 246Q148 63 276 63Q357 63
407 124T478 273T499 445Q499 538 467 582T370 626Q290 626 240 565ZM338 903L504 801L475 755L296 831L338 903Z" />
<glyph unicode="&#xd3;" glyph-name="Oacute" horiz-adv-x="624" d="M477 700T534 632T592 437Q592 331 560 228T455 57T272 -12Q170 -12 112 56T54 249Q54 352 87 455T192 629T375 700Q477 700 534 632ZM290 626T240 565T169 417T148 246Q148 63 276 63Q357 63
407 124T478 273T499 445Q499 538 467 582T370 626Q290 626 240 565ZM473 904L506 831L305 755L284 801L473 904Z" />
<glyph unicode="&#xd4;" glyph-name="Ocircumflex" horiz-adv-x="624" d="M477 700T534 632T592 437Q592 331 560 228T455 57T272 -12Q170 -12 112 56T54 249Q54 352 87 455T192 629T375 700Q477 700 534 632ZM290 626T240 565T169 417T148 246Q148 63 276 63Q357
63 407 124T478 273T499 445Q499 538 467 582T370 626Q290 626 240 565ZM273 759L237 801L375 912H431L537 798L499 759L396 840L273 759Z" />
<glyph unicode="&#xd5;" glyph-name="Otilde" horiz-adv-x="624" d="M477 700T534 632T592 437Q592 331 560 228T455 57T272 -12Q170 -12 112 56T54 249Q54 352 87 455T192 629T375 700Q477 700 534 632ZM290 626T240 565T169 417T148 246Q148 63 276 63Q357 63
407 124T478 273T499 445Q499 538 467 582T370 626Q290 626 240 565ZM430 783T416 790T384 811Q372 821 364 826T346 831Q331 831 319 820T291 786L244 814Q293 898 349 898Q368 898 381 891T412 870Q423 860 431 855T449 850Q463 850 475 860T503 894L552 866Q507
783 449 783Q430 783 416 790Z" />
<glyph unicode="&#xd6;" glyph-name="Odieresis" horiz-adv-x="624" d="M477 700T534 632T592 437Q592 331 560 228T455 57T272 -12Q170 -12 112 56T54 249Q54 352 87 455T192 629T375 700Q477 700 534 632ZM290 626T240 565T169 417T148 246Q148 63 276 63Q357
63 407 124T478 273T499 445Q499 538 467 582T370 626Q290 626 240 565ZM278 782T265 795T251 830Q251 856 268 873T311 890Q332 890 345 876T359 842Q359 815 342 799T300 782Q278 782 265 795ZM466 782T453 795T439 830Q439 856 456 873T499 890Q520 890 533
876T547 842Q547 816 530 799T488 782Q466 782 453 795Z" />
<glyph unicode="&#xd7;" glyph-name="multiply" horiz-adv-x="455" d="M364 484L413 434L285 308L386 180L325 131L228 254L103 131L54 181L181 306L82 435L142 484L238 357L364 484Z" />
<glyph unicode="&#xd8;" glyph-name="Oslash" horiz-adv-x="624" d="M541 635T566 577T592 437Q592 331 560 228T455 57T272 -12Q243 -12 217 -6L169 -126L98 -106L151 23Q104 55 79 112T54 249Q54 352 87 455T192 629T375 700Q404 700 429 694L479 818L550 798L495
666Q541 635 566 577ZM290 626T240 565T169 416T148 243Q148 134 192 92L406 622Q391 626 370 626Q290 626 240 565ZM358 63T407 125T478 275T499 449Q499 558 454 598L241 67Q256 63 276 63Q358 63 407 125Z" />
<glyph unicode="&#xd9;" glyph-name="Ugrave" horiz-adv-x="588" d="M502 197Q489 105 424 47T257 -12Q165 -12 116 38T66 169Q66 192 68 204L137 689H227L159 202Q157 190 157 169Q157 65 263 65Q328 65 366 103T413 208L480 689H570L502 197ZM314 903L480 801L451
755L272 831L314 903Z" />
<glyph unicode="&#xda;" glyph-name="Uacute" horiz-adv-x="588" d="M502 197Q489 105 424 47T257 -12Q165 -12 116 38T66 169Q66 192 68 204L137 689H227L159 202Q157 190 157 169Q157 65 263 65Q328 65 366 103T413 208L480 689H570L502 197ZM449 904L482 831L281
755L260 801L449 904Z" />
<glyph unicode="&#xdb;" glyph-name="Ucircumflex" horiz-adv-x="588" d="M502 197Q489 105 424 47T257 -12Q165 -12 116 38T66 169Q66 192 68 204L137 689H227L159 202Q157 190 157 169Q157 65 263 65Q328 65 366 103T413 208L480 689H570L502 197ZM249 759L213
801L351 912H407L513 798L475 759L372 840L249 759Z" />
<glyph unicode="&#xdc;" glyph-name="Udieresis" horiz-adv-x="588" d="M502 197Q489 105 424 47T257 -12Q165 -12 116 38T66 169Q66 192 68 204L137 689H227L159 202Q157 190 157 169Q157 65 263 65Q328 65 366 103T413 208L480 689H570L502 197ZM254 782T241
795T227 830Q227 856 244 873T287 890Q308 890 321 876T335 842Q335 815 318 799T276 782Q254 782 241 795ZM442 782T429 795T415 830Q415 856 432 873T475 890Q496 890 509 876T523 842Q523 816 506 799T464 782Q442 782 429 795Z" />
<glyph unicode="&#xdd;" glyph-name="Yacute" horiz-adv-x="493" d="M549 689L292 265L255 0H163L201 264L64 689H158L256 344L451 689H549ZM402 904L435 831L234 755L213 801L402 904Z" />
<glyph unicode="&#xde;" glyph-name="Thorn" horiz-adv-x="516" d="M396 569T451 523T507 385Q507 318 480 260T392 165T232 128H158L140 0H50L147 689H237L220 569H294Q396 569 451 523ZM333 200T373 253T413 386Q413 446 381 472T284 498H210L168 200H236Q333
200 373 253Z" />
<glyph unicode="&#xdf;" glyph-name="germandbls" horiz-adv-x="528" d="M-70 -146Q-32 -128 -10 -111T28 -61T51 28L123 542Q136 641 190 695T331 749Q399 749 438 714T478 622Q478 575 459 548T403 490Q377 468 365 454T353 419Q353 398 364 383T402 343Q428
319 444 300T473 250T485 177Q485 131 464 88T402 16T301 -12Q269 -12 241 -3T193 19L226 78Q259 59 295 59Q347 59 372 94T397 173Q397 214 381 240T331 299Q301 329 286 352T271 409Q271 446 286 468T334 518Q365 546 379 566T394 620Q394 650 377 665T328 680Q280
680 250 644T209 536L137 22Q127 -50 105 -92T48 -159T-46 -212L-70 -146Z" />
<glyph unicode="&#xe0;" glyph-name="agrave" horiz-adv-x="519" d="M390 538T474 497L420 119Q418 99 418 92Q418 76 424 66T446 49L418 -12Q381 -7 361 13T336 73Q305 32 271 10T194 -12Q123 -12 83 39T43 178Q43 262 71 345T160 483T312 538Q390 538 474 497ZM252
468T212 425T153 314T134 178Q134 58 212 58Q248 58 277 82T339 153L381 455Q349 468 312 468Q252 468 212 425ZM292 796L456 684L427 639L248 725L292 796Z" />
<glyph unicode="&#xe1;" glyph-name="aacute" horiz-adv-x="519" d="M390 538T474 497L420 119Q418 99 418 92Q418 76 424 66T446 49L418 -12Q381 -7 361 13T336 73Q305 32 271 10T194 -12Q123 -12 83 39T43 178Q43 262 71 345T160 483T312 538Q390 538 474 497ZM252
468T212 425T153 314T134 178Q134 58 212 58Q248 58 277 82T339 153L381 455Q349 468 312 468Q252 468 212 425ZM421 797L454 725L253 639L230 685L421 797Z" />
<glyph unicode="&#xe2;" glyph-name="acircumflex" horiz-adv-x="519" d="M390 538T474 497L420 119Q418 99 418 92Q418 76 424 66T446 49L418 -12Q381 -7 361 13T336 73Q305 32 271 10T194 -12Q123 -12 83 39T43 178Q43 262 71 345T160 483T312 538Q390 538 474
497ZM252 468T212 425T153 314T134 178Q134 58 212 58Q248 58 277 82T339 153L381 455Q349 468 312 468Q252 468 212 425ZM221 637L186 678L324 791H380L485 676L445 637L344 719L221 637Z" />
<glyph unicode="&#xe3;" glyph-name="atilde" horiz-adv-x="519" d="M390 538T474 497L420 119Q418 99 418 92Q418 76 424 66T446 49L418 -12Q381 -7 361 13T336 73Q305 32 271 10T194 -12Q123 -12 83 39T43 178Q43 262 71 345T160 483T312 538Q390 538 474 497ZM252
468T212 425T153 314T134 178Q134 58 212 58Q248 58 277 82T339 153L381 455Q349 468 312 468Q252 468 212 425ZM375 657T361 664T329 685Q317 695 309 700T291 705Q277 705 265 694T236 660L189 688Q238 772 294 772Q313 772 326 765T357 744Q368 734 376 729T394
724Q408 724 420 734T448 768L497 740Q452 657 394 657Q375 657 361 664Z" />
<glyph unicode="&#xe4;" glyph-name="adieresis" horiz-adv-x="519" d="M390 538T474 497L420 119Q418 99 418 92Q418 76 424 66T446 49L418 -12Q381 -7 361 13T336 73Q305 32 271 10T194 -12Q123 -12 83 39T43 178Q43 262 71 345T160 483T312 538Q390 538 474
497ZM252 468T212 425T153 314T134 178Q134 58 212 58Q248 58 277 82T339 153L381 455Q349 468 312 468Q252 468 212 425ZM221 656T208 669T194 704Q194 730 211 747T254 764Q275 764 288 750T302 716Q302 689 285 673T243 656Q221 656 208 669ZM409 656T396 669T382
704Q382 730 399 747T442 764Q463 764 476 750T490 716Q490 690 473 673T431 656Q409 656 396 669Z" />
<glyph unicode="&#xe5;" glyph-name="aring" horiz-adv-x="519" d="M390 538T474 497L420 119Q418 99 418 92Q418 76 424 66T446 49L418 -12Q381 -7 361 13T336 73Q305 32 271 10T194 -12Q123 -12 83 39T43 178Q43 262 71 345T160 483T312 538Q390 538 474 497ZM252
468T212 425T153 314T134 178Q134 58 212 58Q248 58 277 82T339 153L381 455Q349 468 312 468Q252 468 212 425ZM395 834T421 808T447 740Q447 691 414 659T332 626Q291 626 265 652T239 719Q239 768 272 801T353 834Q395 834 421 808ZM325 786T311 767T296 720Q296
698 306 686T335 673Q361 673 375 692T390 739Q390 762 380 774T351 786Q325 786 311 767Z" />
<glyph unicode="&#xe6;" glyph-name="ae" horiz-adv-x="745" d="M316 538T349 518T403 458Q433 495 475 516T572 538Q644 538 684 501T724 407Q724 306 640 261T405 199Q405 127 429 95T503 62Q536 62 566 73T630 109L667 51Q585 -12 494 -12Q438 -12 399 11T339
78Q300 29 258 9T165 -12Q98 -12 60 25T22 124Q22 203 77 255T256 307H330Q338 344 352 383Q346 422 318 444T247 467Q216 467 190 461T122 440L106 506Q186 538 261 538Q316 538 349 518ZM500 468T462 410T411 266Q527 280 580 309T634 404Q634 432 618 450T568
468Q500 468 462 410ZM261 247Q189 247 153 218T117 124Q117 54 182 54Q219 54 251 76T319 148Q317 170 317 190Q317 228 320 247H261Z" />
<glyph unicode="&#xe7;" glyph-name="ccedilla" horiz-adv-x="428" d="M240 466T204 423T152 315T136 186Q136 63 228 63Q257 63 281 72T335 102L370 43Q305 -7 234 -12L226 -59Q263 -63 281 -83T300 -135Q300 -178 268 -208T179 -239Q127 -239 96 -213L125 -167Q139
-174 151 -178T179 -182Q201 -182 215 -170T230 -138Q230 -116 215 -108T156 -99L177 -8Q114 6 80 57T45 191Q45 273 72 352T156 485T298 538Q340 538 373 525T436 481L389 428Q368 448 347 457T298 466Q240 466 204 423Z" />
<glyph unicode="&#xe8;" glyph-name="egrave" horiz-adv-x="474" d="M452 305T369 260T135 197V191Q135 62 232 62Q265 62 295 73T359 109L396 51Q313 -12 223 -12Q138 -12 92 41T45 190Q45 273 71 353T156 485T301 538Q373 538 412 501T452 407Q452 305 369 260ZM229
468T191 409T140 264Q255 278 309 308T363 404Q363 432 347 450T297 468Q229 468 191 409ZM269 796L433 684L404 639L225 725L269 796Z" />
<glyph unicode="&#xe9;" glyph-name="eacute" horiz-adv-x="474" d="M452 305T369 260T135 197V191Q135 62 232 62Q265 62 295 73T359 109L396 51Q313 -12 223 -12Q138 -12 92 41T45 190Q45 273 71 353T156 485T301 538Q373 538 412 501T452 407Q452 305 369 260ZM229
468T191 409T140 264Q255 278 309 308T363 404Q363 432 347 450T297 468Q229 468 191 409ZM398 797L431 725L230 639L207 685L398 797Z" />
<glyph unicode="&#xea;" glyph-name="ecircumflex" horiz-adv-x="474" d="M452 305T369 260T135 197V191Q135 62 232 62Q265 62 295 73T359 109L396 51Q313 -12 223 -12Q138 -12 92 41T45 190Q45 273 71 353T156 485T301 538Q373 538 412 501T452 407Q452 305
369 260ZM229 468T191 409T140 264Q255 278 309 308T363 404Q363 432 347 450T297 468Q229 468 191 409ZM198 637L163 678L301 791H357L462 676L422 637L321 719L198 637Z" />
<glyph unicode="&#xeb;" glyph-name="edieresis" horiz-adv-x="474" d="M452 305T369 260T135 197V191Q135 62 232 62Q265 62 295 73T359 109L396 51Q313 -12 223 -12Q138 -12 92 41T45 190Q45 273 71 353T156 485T301 538Q373 538 412 501T452 407Q452 305 369
260ZM229 468T191 409T140 264Q255 278 309 308T363 404Q363 432 347 450T297 468Q229 468 191 409ZM198 656T185 669T171 704Q171 730 188 747T231 764Q252 764 265 750T279 716Q279 689 262 673T220 656Q198 656 185 669ZM386 656T373 669T359 704Q359 730 376
747T419 764Q440 764 453 750T467 716Q467 690 450 673T408 656Q386 656 373 669Z" />
<glyph unicode="&#xec;" glyph-name="igrave" horiz-adv-x="252" d="M206 527L132 0H45L119 527H206ZM137 796L301 684L272 639L93 725L137 796Z" />
<glyph unicode="&#xed;" glyph-name="iacute" horiz-adv-x="252" d="M206 527L132 0H45L119 527H206ZM266 797L299 725L98 639L75 685L266 797Z" />
<glyph unicode="&#xee;" glyph-name="icircumflex" horiz-adv-x="252" d="M206 527L132 0H45L119 527H206ZM66 637L31 678L169 791H225L330 676L290 637L189 719L66 637Z" />
<glyph unicode="&#xef;" glyph-name="idieresis" horiz-adv-x="252" d="M206 527L132 0H45L119 527H206ZM66 656T53 669T39 704Q39 730 56 747T99 764Q120 764 133 750T147 716Q147 689 130 673T88 656Q66 656 53 669ZM254 656T241 669T227 704Q227 730 244 747T287
764Q308 764 321 750T335 716Q335 690 318 673T276 656Q254 656 241 669Z" />
<glyph unicode="&#xf0;" glyph-name="eth" horiz-adv-x="525" d="M421 612T446 550T471 396Q471 286 443 193T358 44T216 -12Q136 -12 89 39T42 182Q42 252 67 319T142 430T261 474Q341 474 386 413Q384 481 368 525T312 609L239 541L184 571L263 647Q223 671
169 683L195 748Q232 740 260 729T316 698L395 774L438 729L366 660Q421 612 446 550ZM291 58T329 133T380 326Q347 405 272 405Q197 405 164 338T131 182Q131 120 153 89T218 58Q291 58 329 133Z" />
<glyph unicode="&#xf1;" glyph-name="ntilde" horiz-adv-x="522" d="M401 539T432 505T463 412Q463 394 460 376L407 0H320L373 375Q375 395 375 403Q375 465 325 465Q255 465 177 321L132 0H45L119 527H194L186 427Q222 481 261 510T349 539Q401 539 432 505ZM357
657T343 664T311 685Q299 695 291 700T273 705Q259 705 247 694T218 660L171 688Q220 772 276 772Q295 772 308 765T339 744Q350 734 358 729T376 724Q390 724 402 734T430 768L479 740Q434 657 376 657Q357 657 343 664Z" />
<glyph unicode="&#xf2;" glyph-name="ograve" horiz-adv-x="524" d="M138 -12T92 43T45 194Q45 272 71 351T154 484T301 538Q386 538 432 484T479 333Q479 256 454 177T371 43T224 -12Q138 -12 92 43ZM286 59T322 105T373 216T389 342Q389 467 297 467Q238 467
202 422T151 312T135 185Q135 59 227 59Q286 59 322 105ZM276 796L440 684L411 639L232 725L276 796Z" />
<glyph unicode="&#xf3;" glyph-name="oacute" horiz-adv-x="524" d="M138 -12T92 43T45 194Q45 272 71 351T154 484T301 538Q386 538 432 484T479 333Q479 256 454 177T371 43T224 -12Q138 -12 92 43ZM286 59T322 105T373 216T389 342Q389 467 297 467Q238 467
202 422T151 312T135 185Q135 59 227 59Q286 59 322 105ZM405 797L438 725L237 639L214 685L405 797Z" />
<glyph unicode="&#xf4;" glyph-name="ocircumflex" horiz-adv-x="524" d="M138 -12T92 43T45 194Q45 272 71 351T154 484T301 538Q386 538 432 484T479 333Q479 256 454 177T371 43T224 -12Q138 -12 92 43ZM286 59T322 105T373 216T389 342Q389 467 297 467Q238
467 202 422T151 312T135 185Q135 59 227 59Q286 59 322 105ZM205 637L170 678L308 791H364L469 676L429 637L328 719L205 637Z" />
<glyph unicode="&#xf5;" glyph-name="otilde" horiz-adv-x="524" d="M138 -12T92 43T45 194Q45 272 71 351T154 484T301 538Q386 538 432 484T479 333Q479 256 454 177T371 43T224 -12Q138 -12 92 43ZM286 59T322 105T373 216T389 342Q389 467 297 467Q238 467
202 422T151 312T135 185Q135 59 227 59Q286 59 322 105ZM359 657T345 664T313 685Q301 695 293 700T275 705Q261 705 249 694T220 660L173 688Q222 772 278 772Q297 772 310 765T341 744Q352 734 360 729T378 724Q392 724 404 734T432 768L481 740Q436 657 378
657Q359 657 345 664Z" />
<glyph unicode="&#xf6;" glyph-name="odieresis" horiz-adv-x="524" d="M138 -12T92 43T45 194Q45 272 71 351T154 484T301 538Q386 538 432 484T479 333Q479 256 454 177T371 43T224 -12Q138 -12 92 43ZM286 59T322 105T373 216T389 342Q389 467 297 467Q238
467 202 422T151 312T135 185Q135 59 227 59Q286 59 322 105ZM205 656T192 669T178 704Q178 730 195 747T238 764Q259 764 272 750T286 716Q286 689 269 673T227 656Q205 656 192 669ZM393 656T380 669T366 704Q366 730 383 747T426 764Q447 764 460 750T474 716Q474
690 457 673T415 656Q393 656 380 669Z" />
<glyph unicode="&#xf7;" glyph-name="divide" horiz-adv-x="453" d="M175 38T159 55T143 98Q143 128 163 149T213 171Q240 171 256 154T273 111Q273 81 253 60T202 38Q175 38 159 55ZM238 493T222 510T206 553Q206 583 226 604T276 626Q303 626 319 609T336 566Q336
536 316 515T265 493Q238 493 222 510ZM62 295L72 369H411L400 295H62Z" />
<glyph unicode="&#xf8;" glyph-name="oslash" horiz-adv-x="524" d="M442 480T460 436T479 333Q479 256 454 177T371 43T224 -12Q199 -12 180 -8L130 -129L62 -108L118 20Q82 46 64 90T45 194Q45 272 71 351T154 484T301 538Q323 538 346 533L397 655L465 634L409
507L408 505Q442 480 460 436ZM238 467T202 422T151 312T135 185Q135 115 160 84L322 465Q306 467 297 467Q238 467 202 422ZM286 59T322 105T373 216T389 342Q389 412 365 440L205 61Q219 59 227 59Q286 59 322 105Z" />
<glyph unicode="&#xf9;" glyph-name="ugrave" horiz-adv-x="518" d="M122 -12T91 21T59 112Q59 121 61 143L115 527H202L148 141Q146 131 146 114Q146 57 194 57Q233 57 268 92T337 180L386 527H473L399 0H325L332 94Q297 42 261 15T176 -12Q122 -12 91 21ZM269
796L433 684L404 639L225 725L269 796Z" />
<glyph unicode="&#xfa;" glyph-name="uacute" horiz-adv-x="518" d="M122 -12T91 21T59 112Q59 121 61 143L115 527H202L148 141Q146 131 146 114Q146 57 194 57Q233 57 268 92T337 180L386 527H473L399 0H325L332 94Q297 42 261 15T176 -12Q122 -12 91 21ZM398
797L431 725L230 639L207 685L398 797Z" />
<glyph unicode="&#xfb;" glyph-name="ucircumflex" horiz-adv-x="518" d="M122 -12T91 21T59 112Q59 121 61 143L115 527H202L148 141Q146 131 146 114Q146 57 194 57Q233 57 268 92T337 180L386 527H473L399 0H325L332 94Q297 42 261 15T176 -12Q122 -12 91 21ZM198
637L163 678L301 791H357L462 676L422 637L321 719L198 637Z" />
<glyph unicode="&#xfc;" glyph-name="udieresis" horiz-adv-x="518" d="M122 -12T91 21T59 112Q59 121 61 143L115 527H202L148 141Q146 131 146 114Q146 57 194 57Q233 57 268 92T337 180L386 527H473L399 0H325L332 94Q297 42 261 15T176 -12Q122 -12 91 21ZM198
656T185 669T171 704Q171 730 188 747T231 764Q252 764 265 750T279 716Q279 689 262 673T220 656Q198 656 185 669ZM386 656T373 669T359 704Q359 730 376 747T419 764Q440 764 453 750T467 716Q467 690 450 673T408 656Q386 656 373 669Z" />
<glyph unicode="&#xfd;" glyph-name="yacute" horiz-adv-x="444" d="M244 -5Q204 -101 146 -150T-9 -212L-12 -145Q37 -135 67 -119T119 -75T162 0H129L47 527H139L195 67L380 527H471L244 -5ZM363 797L396 725L195 639L172 685L363 797Z" />
<glyph unicode="&#xfe;" glyph-name="thorn" horiz-adv-x="528" d="M407 538T445 488T484 346Q484 260 458 178T372 42T222 -12Q177 -12 133 7L104 -203L15 -216L150 739L238 749L199 472Q263 538 339 538Q407 538 445 488ZM283 58T321 102T377 214T395 350Q395
468 315 468Q255 468 187 391L144 74Q185 58 225 58Q283 58 321 102Z" />
<glyph unicode="&#xff;" glyph-name="ydieresis" horiz-adv-x="444" d="M244 -5Q204 -101 146 -150T-9 -212L-12 -145Q37 -135 67 -119T119 -75T162 0H129L47 527H139L195 67L380 527H471L244 -5ZM163 656T150 669T136 704Q136 730 153 747T196 764Q217 764 230
750T244 716Q244 689 227 673T185 656Q163 656 150 669ZM351 656T338 669T324 704Q324 730 341 747T384 764Q405 764 418 750T432 716Q432 690 415 673T373 656Q351 656 338 669Z" />
<glyph unicode="&#x2013;" glyph-name="endash" horiz-adv-x="469" d="M33 276L43 350H450L440 276H33Z" />
<glyph unicode="&#x2014;" glyph-name="emdash" horiz-adv-x="709" d="M33 276L43 350H690L680 276H33Z" />
<glyph unicode="&#x2018;" glyph-name="quoteleft" horiz-adv-x="210" d="M113 495T98 509T83 547Q83 563 88 577T108 617L185 752H240L180 601Q200 587 200 558Q200 531 182 513T136 495Q113 495 98 509Z" />
<glyph unicode="&#x2019;" glyph-name="quoteright" horiz-adv-x="210" d="M198 751T213 737T228 699Q228 683 223 669T203 629L126 494H71L131 645Q111 659 111 688Q111 715 129 733T175 751Q198 751 213 737Z" />
<glyph unicode="&#x201a;" glyph-name="quotesinglbase" horiz-adv-x="210" d="M107 103T122 89T137 51Q137 35 132 21T112 -19L35 -154H-20L40 -3Q20 11 20 40Q20 67 38 85T84 103Q107 103 122 89Z" />
<glyph unicode="&#x201c;" glyph-name="quotedblleft" horiz-adv-x="387" d="M113 495T98 509T83 547Q83 563 88 577T108 617L185 752H240L180 601Q200 587 200 558Q200 531 182 513T136 495Q113 495 98 509ZM290 495T275 509T260 547Q260 563 265 577T285 617L362
752H417L357 601Q377 587 377 558Q377 531 359 513T313 495Q290 495 275 509Z" />
<glyph unicode="&#x201d;" glyph-name="quotedblright" horiz-adv-x="387" d="M198 751T213 737T228 699Q228 683 223 669T203 629L126 494H71L131 645Q111 659 111 688Q111 715 129 733T175 751Q198 751 213 737ZM375 751T390 737T405 699Q405 683 400 669T380
629L303 494H248L308 645Q288 659 288 688Q288 715 306 733T352 751Q375 751 390 737Z" />
<glyph unicode="&#x201e;" glyph-name="quotedblbase" horiz-adv-x="387" d="M107 103T122 89T137 51Q137 35 132 21T112 -19L35 -154H-20L40 -3Q20 11 20 40Q20 67 38 85T84 103Q107 103 122 89ZM284 103T299 89T314 51Q314 35 309 21T289 -19L212 -154H157L217
-3Q197 11 197 40Q197 67 215 85T261 103Q284 103 299 89Z" />
<glyph unicode="&#x2022;" glyph-name="bullet" horiz-adv-x="306" d="M217 450T243 423T270 355Q270 304 236 269T153 234Q111 234 85 260T58 329Q58 380 92 415T175 450Q217 450 243 423Z" />
<glyph unicode="&#x2039;" glyph-name="guilsinglleft" horiz-adv-x="310" d="M241 533L293 497L142 286L234 77L178 41L50 256L58 317L241 533Z" />
<glyph unicode="&#x203a;" glyph-name="guilsinglright" horiz-adv-x="310" d="M138 533L267 317L259 256L74 41L24 77L175 288L83 497L138 533Z" />
</font>
</defs>
</svg>
