<?xml version="1.0" standalone="no"?>
<!DOCTYPE svg PUBLIC "-//W3C//DTD SVG 1.1//EN" "http://www.w3.org/Graphics/SVG/1.1/DTD/svg11.dtd">
<svg xmlns="http://www.w3.org/2000/svg">
<defs >
<font id="Kanit" horiz-adv-x="541" ><font-face
    font-family="Kanit ExtraLight"
    units-per-em="1000"
    panose-1="0 0 3 0 0 0 0 0 0 0"
    ascent="1100"
    descent="-395"
    alphabetic="0" />
<glyph unicode=" " glyph-name="space" horiz-adv-x="390" />
<glyph unicode="!" glyph-name="exclam" horiz-adv-x="171" d="M58 491V644H113V491L108 146H64L58 491ZM55 48H116V0H55V48Z" />
<glyph unicode="&quot;" glyph-name="quotedbl" horiz-adv-x="297" d="M55 644H108L96 479H55V644ZM189 644H242L230 479H189V644Z" />
<glyph unicode="#" glyph-name="numbersign" horiz-adv-x="694" d="M151 187H55V228H164L223 414H103V456H236L295 644H345L286 456H493L552 644H603L544 456H639V414H530L472 228H591V187H459L400 0H350L408 187H201L142 0H93L151 187ZM421 228L480 414H272L214
228H421Z" />
<glyph unicode="$" glyph-name="dollar" horiz-adv-x="553" d="M253 -10Q140 -9 71 18V67Q152 37 253 37V307L251 308Q143 332 99 372T55 481Q55 555 104 600T253 653V730H299V654Q346 653 389 646T459 630V581Q387 606 299 606V346Q409 319 453 277T498 164Q498
86 448 43T299 -8V-86H253V-10ZM253 604Q181 597 145 567T109 481Q109 447 122 425T166 388T253 357V604ZM372 44T408 74T444 164Q444 217 411 246T299 296V38Q372 44 408 74Z" />
<glyph unicode="%" glyph-name="percent" horiz-adv-x="695" d="M123 370T89 407T55 506Q55 576 88 615T189 654Q255 654 288 615T322 506Q322 444 288 407T189 370Q123 370 89 407ZM492 644H544L200 0H148L492 644ZM237 410T258 434T280 506Q280 562 258 587T189
613Q141 613 119 588T97 506Q97 410 189 410Q237 410 258 434ZM440 -10T406 26T372 125Q372 195 405 234T506 273Q573 273 606 234T640 125Q640 63 606 27T506 -10Q440 -10 406 26ZM554 30T576 54T598 126Q598 182 576 207T506 233Q459 233 437 208T415 126Q415
79 436 55T506 30Q554 30 576 54Z" />
<glyph unicode="&amp;" glyph-name="ampersand" horiz-adv-x="652" d="M169 -10T112 32T55 147Q55 212 96 260T218 354Q165 403 142 437T118 516Q118 575 157 614T267 654Q336 654 374 617T412 516Q412 464 384 426T292 346L482 152Q501 195 501 251V271H547V252Q547
175 515 120L607 27L574 -3L489 82Q455 36 398 13T265 -10Q169 -10 112 32ZM316 412T340 440T364 514Q364 559 341 584T267 610Q216 610 191 584T165 514Q165 488 176 468T202 431T258 375Q316 412 340 440ZM396 32T455 114L252 320Q177 280 143 243T108 148Q108
93 151 63T265 32Q396 32 455 114Z" />
<glyph unicode="&apos;" glyph-name="quotesingle" horiz-adv-x="163" d="M55 644H108L96 479H55V644Z" />
<glyph unicode="(" glyph-name="parenleft" horiz-adv-x="292" d="M120 -12T88 90T55 303Q55 413 87 515T194 678H257Q109 555 109 303Q109 180 144 86T257 -72H194Q120 -12 88 90Z" />
<glyph unicode=")" glyph-name="parenright" horiz-adv-x="292" d="M182 51T182 303Q182 555 35 678H98Q172 617 204 515T237 303Q237 192 205 90T98 -72H35Q182 51 182 303Z" />
<glyph unicode="*" glyph-name="asterisk" horiz-adv-x="421" d="M84 373L179 483L55 533L73 572L191 517L187 644H234L230 517L347 572L366 533L240 482L337 373L301 346L210 463L119 346L84 373Z" />
<glyph unicode="+" glyph-name="plus" horiz-adv-x="482" d="M217 235H55V280H217V442H264V280H427V235H264V79H217V235Z" />
<glyph unicode="," glyph-name="comma" horiz-adv-x="189" d="M81 45H134L96 -120H55L81 45Z" />
<glyph unicode="-" glyph-name="hyphen" horiz-adv-x="482" d="M55 280H427V235H55V280Z" />
<glyph unicode="." glyph-name="period" horiz-adv-x="163" d="M55 51H108V0H55V51Z" />
<glyph unicode="/" glyph-name="slash" horiz-adv-x="399" d="M289 662H344L110 0H55L289 662Z" />
<glyph unicode="0" glyph-name="zero" horiz-adv-x="639" d="M184 -10T120 74T55 310Q55 480 116 567T320 654Q462 654 523 567T584 310Q584 158 520 74T320 -10Q184 -10 120 74ZM429 37T479 110T530 310Q530 459 482 532T320 606Q205 606 157 533T109 310Q109
183 159 110T320 37Q429 37 479 110Z" />
<glyph unicode="1" glyph-name="one" horiz-adv-x="286" d="M156 600L55 583V629L211 654V0H156V600Z" />
<glyph unicode="2" glyph-name="two" horiz-adv-x="499" d="M55 34Q77 93 122 144T237 254Q296 305 326 337T369 402T383 475Q383 606 228 606Q151 606 80 579V629Q111 640 153 647T232 654Q331 654 384 607T437 475Q437 427 420 390T374 321T294 243L271 222Q211
170 175 131T119 44H444V0H55V34Z" />
<glyph unicode="3" glyph-name="three" horiz-adv-x="506" d="M174 -10T129 -3T55 15V64Q129 37 213 37Q307 37 352 70T397 174Q397 240 355 272T233 305H145L151 348H225Q303 348 342 383T382 484Q382 546 342 576T217 606Q140 606 67 579V628Q93 639 137 646T222
654Q330 654 383 609T436 484Q436 429 407 386T320 328Q386 314 418 273T451 174Q451 83 390 37T218 -10Q174 -10 129 -3Z" />
<glyph unicode="4" glyph-name="four" horiz-adv-x="536" d="M376 155H35V202L380 644H431V201H501V155H431V0H376V155ZM381 200V576L88 200H381Z" />
<glyph unicode="5" glyph-name="five" horiz-adv-x="506" d="M175 -10T130 -4T58 15V65Q131 37 217 37Q397 37 397 189Q397 264 362 298T237 333H55V380L72 644H403L397 599H117L103 378H236Q349 378 400 332T451 189Q451 94 392 42T221 -10Q175 -10 130 -4Z" />
<glyph unicode="6" glyph-name="six" horiz-adv-x="561" d="M168 -10T112 48T55 231V390Q55 469 85 529T171 621T302 654Q384 654 446 634V586Q389 606 304 606Q207 606 158 550T108 399V341Q149 371 198 386T291 402Q398 402 452 350T506 197Q506 101 448 46T281
-10Q168 -10 112 48ZM366 35T410 78T454 196Q454 276 416 317T286 358Q238 358 192 342T108 297V210Q108 35 280 35Q366 35 410 78Z" />
<glyph unicode="7" glyph-name="seven" horiz-adv-x="495" d="M395 599H45V644H450V599L197 0H142L395 599Z" />
<glyph unicode="8" glyph-name="eight" horiz-adv-x="575" d="M175 -10T115 35T55 166Q55 228 89 272T188 333Q130 348 102 387T73 478Q73 560 128 607T287 654Q393 654 447 608T501 478Q501 361 380 322Q453 306 486 268T520 166Q520 80 460 35T287 -10Q175 -10
115 35ZM388 357T419 388T451 478Q451 541 409 575T287 609Q208 609 166 576T124 478Q124 430 152 399T235 356L316 340Q388 357 419 388ZM469 35T469 166Q469 223 438 250T336 293L245 312Q177 298 141 264T105 167Q105 101 151 68T287 35Q469 35 469 166Z" />
<glyph unicode="9" glyph-name="nine" horiz-adv-x="561" d="M172 -10T115 9V58Q171 37 259 37Q356 37 404 93T453 244V300Q412 269 365 254T271 239Q164 239 110 291T55 444Q55 541 113 597T282 654Q395 654 450 596T506 412V254Q506 174 477 115T392 23T261
-10Q172 -10 115 9ZM326 283T371 299T453 344V434Q453 609 283 609Q196 609 151 565T105 445Q105 366 144 325T276 283Q326 283 371 299Z" />
<glyph unicode=":" glyph-name="colon" horiz-adv-x="164" d="M55 384H109V332H55V384ZM55 82H109V30H55V82Z" />
<glyph unicode=";" glyph-name="semicolon" horiz-adv-x="190" d="M82 384H135V332H82V384ZM81 71H134L96 -94H55L81 71Z" />
<glyph unicode="&lt;" glyph-name="less" horiz-adv-x="546" d="M55 269V314L491 518V465L112 292L491 118V65L55 269Z" />
<glyph unicode="=" glyph-name="equal" horiz-adv-x="488" d="M55 348H433V306H55V348ZM55 209H433V167H55V209Z" />
<glyph unicode="&gt;" glyph-name="greater" horiz-adv-x="546" d="M55 118L435 292L55 465V518L491 314V269L55 65V118Z" />
<glyph unicode="?" glyph-name="question" horiz-adv-x="488" d="M176 172Q176 212 192 242T225 287T289 342Q336 380 357 408T379 478Q379 543 342 574T217 606Q128 606 55 571V619Q85 635 130 644T227 654Q329 654 381 609T433 479Q433 443 420 415T387 367T330
316L313 302Q281 276 265 260T240 223T231 169V148H176V172ZM173 48H234V0H173V48Z" />
<glyph unicode="@" glyph-name="at" horiz-adv-x="768" d="M237 -132T146 -58T55 188Q55 525 404 525Q558 525 635 456T713 254Q713 154 672 99T544 43H526Q468 -20 360 -20Q294 -20 254 10T213 99Q213 157 250 192T366 228H508V261Q508 303 499 325T465 356T388
366Q321 366 262 345V385Q313 407 399 407Q480 407 516 373T553 262V86Q612 86 638 126T665 254Q665 368 603 423T404 479Q251 479 177 411T103 187Q103 37 180 -25T388 -87Q498 -87 561 -68V-114Q485 -132 390 -132Q237 -132 146 -58ZM414 19T448 34T508 81V188H371Q308
188 284 166T259 99Q259 56 286 38T367 19Q414 19 448 34Z" />
<glyph unicode="A" glyph-name="A" horiz-adv-x="667" d="M299 644H369L612 0H556L485 188H183L112 0H55L299 644ZM472 233L333 600L195 233H472Z" />
<glyph unicode="B" glyph-name="B" horiz-adv-x="619" d="M75 644H358Q451 644 494 601T538 476Q538 423 516 387T454 333Q564 308 564 182Q564 88 518 44T377 0H75V644ZM363 354Q427 354 456 386T486 473Q486 538 456 569T346 600H130V354H363ZM372 43Q444 43
477 75T510 184Q510 249 476 280T357 311H130V43H372Z" />
<glyph unicode="C" glyph-name="C" horiz-adv-x="589" d="M203 -10T129 74T55 304Q55 470 125 562T350 654Q452 654 534 625V576Q453 606 355 606Q222 606 166 529T109 304Q109 37 358 37Q404 37 450 44T534 64V15Q454 -10 351 -10Q203 -10 129 74Z" />
<glyph unicode="D" glyph-name="D" horiz-adv-x="632" d="M75 644H317Q410 644 467 611T550 506T577 317Q577 206 551 137T468 34T317 0H75V644ZM305 44Q382 44 428 67T498 149T522 317Q522 427 501 488T433 574T305 599H130V44H305Z" />
<glyph unicode="E" glyph-name="E" d="M75 644H496V599H130V344H461V300H130V44H496V0H75V644Z" />
<glyph unicode="F" glyph-name="F" horiz-adv-x="516" d="M75 644H481V599H130V344H444V300H130V0H75V644Z" />
<glyph unicode="G" glyph-name="G" horiz-adv-x="633" d="M203 -10T129 74T55 304Q55 470 125 562T350 654Q453 654 534 627V578Q450 606 356 606Q222 606 166 529T109 304Q109 37 357 37Q403 37 449 45T528 67V296H345V340H578V39Q546 18 490 4T351 -10Q203 -10 129 74Z" />
<glyph unicode="H" glyph-name="H" horiz-adv-x="630" d="M75 644H130V344H500V644H555V0H500V300H130V0H75V644Z" />
<glyph unicode="I" glyph-name="I" horiz-adv-x="205" d="M75 644H130V0H75V644Z" />
<glyph unicode="J" glyph-name="J" horiz-adv-x="419" d="M92 -10T35 13V61Q59 50 92 44T158 37Q232 37 263 68T294 168V644H349V165Q349 -10 165 -10Q92 -10 35 13Z" />
<glyph unicode="K" glyph-name="K" horiz-adv-x="585" d="M75 644H130V302L457 644H524L279 388L530 0H470L245 352L130 231V0H75V644Z" />
<glyph unicode="L" glyph-name="L" horiz-adv-x="521" d="M75 644H130V44H486V0H75V644Z" />
<glyph unicode="M" glyph-name="M" horiz-adv-x="744" d="M75 644H139L372 167L605 644H669V0H615V564L394 112H351L129 564V0H75V644Z" />
<glyph unicode="N" glyph-name="N" horiz-adv-x="656" d="M75 644H127L526 82V644H581V0H528L130 561V0H75V644Z" />
<glyph unicode="O" glyph-name="O" horiz-adv-x="688" d="M197 -10T126 73T55 319Q55 492 125 573T344 654Q493 654 563 573T633 319Q633 156 562 73T344 -10Q197 -10 126 73ZM463 37T520 105T578 319Q578 424 553 487T476 578T344 606Q263 606 212 578T135 487T109
319Q109 174 166 106T344 37Q463 37 520 105Z" />
<glyph unicode="P" glyph-name="P" horiz-adv-x="571" d="M75 644H331Q433 644 484 590T536 443Q536 352 480 300T327 247H130V0H75V644ZM322 291Q399 291 440 331T481 443Q481 519 442 559T327 599H130V291H322Z" />
<glyph unicode="Q" glyph-name="Q" horiz-adv-x="688" d="M371 -172T342 -131T311 -8Q181 0 118 82T55 319Q55 492 125 573T344 654Q493 654 563 573T633 319Q633 3 365 -9Q365 -73 382 -98T447 -124Q485 -124 518 -114V-162Q483 -172 439 -172Q371 -172 342 -131ZM463
37T520 105T578 319Q578 424 553 487T476 578T344 606Q263 606 212 578T135 487T109 319Q109 174 166 106T344 37Q463 37 520 105Z" />
<glyph unicode="R" glyph-name="R" horiz-adv-x="592" d="M75 644H344Q442 644 489 594T536 452Q536 377 500 330T394 270Q415 260 425 246T450 201L536 0H480L395 194Q384 219 372 232T339 251T281 258H130V0H75V644ZM328 302Q481 302 481 452Q481 599 340 599H130V302H328Z"
/>
<glyph unicode="S" glyph-name="S" horiz-adv-x="553" d="M142 -10T71 18V67Q153 37 254 37Q350 37 397 67T444 164Q444 205 426 231T367 274T253 308Q144 332 100 372T55 481Q55 562 113 608T286 654Q336 654 383 647T459 630V581Q387 606 297 606Q204 606 157
576T109 481Q109 444 125 421T180 382T292 348Q407 321 452 278T498 164Q498 78 437 34T258 -10Q142 -10 71 18Z" />
<glyph unicode="T" glyph-name="T" horiz-adv-x="569" d="M257 599H35V644H534V599H312V0H257V599Z" />
<glyph unicode="U" glyph-name="U" horiz-adv-x="663" d="M202 -10T136 52T70 233V644H125V227Q125 133 178 86T332 38Q431 38 484 85T538 227V644H593V233Q593 114 528 52T332 -10Q202 -10 136 52Z" />
<glyph unicode="V" glyph-name="V" horiz-adv-x="668" d="M55 644H112L334 49L556 644H613L370 0H298L55 644Z" />
<glyph unicode="W" glyph-name="W" horiz-adv-x="850" d="M55 644H110L243 67L399 579V644H444L607 67L741 644H795L646 0H580L431 530L272 0H205L55 644Z" />
<glyph unicode="X" glyph-name="X" horiz-adv-x="624" d="M279 318L56 644H118L312 357L506 644H567L344 318L569 0H507L312 278L117 0H55L279 318Z" />
<glyph unicode="Y" glyph-name="Y" horiz-adv-x="624" d="M284 241L55 644H112L312 289L512 644H569L339 241V0H284V241Z" />
<glyph unicode="Z" glyph-name="Z" horiz-adv-x="568" d="M55 34L445 599H72V644H513V605L126 44H518V0H55V34Z" />
<glyph unicode="[" glyph-name="bracketleft" horiz-adv-x="333" d="M55 706H286L288 661H110V-55H288L286 -99H55V706Z" />
<glyph unicode="\" glyph-name="backslash" horiz-adv-x="418" d="M55 662H110L363 -54H308L55 662Z" />
<glyph unicode="]" glyph-name="bracketright" horiz-adv-x="333" d="M45 -55H223V661H45L47 706H278V-99H47L45 -55Z" />
<glyph unicode="^" glyph-name="asciicircum" horiz-adv-x="439" d="M196 624H242L384 397H331L220 583L108 397H55L196 624Z" />
<glyph unicode="_" glyph-name="underscore" horiz-adv-x="554" d="M55 0H499V-45H55V0Z" />
<glyph unicode="`" glyph-name="grave" horiz-adv-x="229" d="M55 680H107L174 522H129L55 680Z" />
<glyph unicode="a" glyph-name="a" horiz-adv-x="531" d="M148 -10T102 24T55 126Q55 193 97 230T231 268H408V313Q408 360 396 386T352 425T260 437Q182 437 109 411V458Q176 484 270 484Q369 484 415 444T461 314V0H416L411 59Q378 23 333 7T220 -10Q148 -10
102 24ZM345 36T408 110V224H233Q165 224 137 200T109 126Q109 78 141 57T234 36Q345 36 408 110Z" />
<glyph unicode="b" glyph-name="b" horiz-adv-x="564" d="M243 -10T202 5T126 53L121 0H75V674H130V434Q199 484 297 484Q509 484 509 241Q509 114 454 52T297 -10Q243 -10 202 5ZM374 35T414 86T455 241Q455 345 413 391T282 438Q192 438 130 386V99Q190 35 284
35Q374 35 414 86Z" />
<glyph unicode="c" glyph-name="c" horiz-adv-x="483" d="M55 -10T55 237Q55 359 119 421T298 484Q341 484 369 478T427 458V413Q374 438 307 438Q109 438 109 237Q109 132 154 84T303 35Q368 35 428 61V15Q369 -10 290 -10Q55 -10 55 237Z" />
<glyph unicode="d" glyph-name="d" horiz-adv-x="564" d="M168 -10T112 49T55 233Q55 359 112 421T272 484Q321 484 359 473T434 434V674H489V0H443L438 53Q403 20 362 5T267 -10Q168 -10 112 49ZM374 35T434 99V386Q374 438 287 438Q198 438 154 388T109 233Q109
132 151 84T280 35Q374 35 434 99Z" />
<glyph unicode="e" glyph-name="e" horiz-adv-x="525" d="M172 -10T114 50T55 240Q55 484 274 484Q372 484 421 432T470 294V208H110Q113 145 133 108T195 53T311 35Q377 35 439 60V15Q378 -10 300 -10Q172 -10 114 50ZM420 251V296Q420 438 275 438Q185 438 148
392T110 251H420Z" />
<glyph unicode="f" glyph-name="f" horiz-adv-x="339" d="M108 428H35V474H108V554Q108 619 144 654T247 690Q290 690 324 677V633Q293 644 261 644Q206 644 185 624T163 555V474H295L292 428H163V0H108V428Z" />
<glyph unicode="g" glyph-name="g" horiz-adv-x="542" d="M137 -176T71 -152V-105Q149 -131 253 -131Q339 -131 376 -118T413 -62Q413 -28 392 -15T314 -1H185Q120 -1 89 19T57 82Q57 112 78 136T139 171Q57 204 57 314Q57 402 106 443T258 484Q290 484 335 474H502L500
433H408Q457 391 457 314Q457 148 268 148Q240 148 204 154Q164 150 138 133T111 88Q111 66 129 56T193 46H326Q468 46 468 -59Q468 -125 416 -150T255 -176Q137 -176 71 -152ZM339 191T371 219T403 314Q403 381 370 411T258 441Q180 441 146 412T112 314Q112 249
145 220T258 191Q339 191 371 219Z" />
<glyph unicode="h" glyph-name="h" horiz-adv-x="559" d="M75 674H130V417Q168 449 214 466T320 484Q407 484 448 443T489 313V0H434V312Q434 382 404 410T299 438Q252 438 208 419T130 368V0H75V674Z" />
<glyph unicode="i" glyph-name="i" horiz-adv-x="270" d="M132 657H195V597H132V657ZM139 428H65L71 474H194V0H139V428Z" />
<glyph unicode="j" glyph-name="j" horiz-adv-x="270" d="M132 657H195V597H132V657ZM13 -234T-20 -222V-177Q11 -187 41 -187Q95 -187 117 -166T139 -99V428H65L71 474H194V-102Q194 -164 159 -199T59 -234Q13 -234 -20 -222Z" />
<glyph unicode="k" glyph-name="k" horiz-adv-x="506" d="M75 674H130V246L374 474H440L245 289L451 0H393L209 258L130 184V0H75V674Z" />
<glyph unicode="l" glyph-name="l" horiz-adv-x="246" d="M120 -10T98 13T75 91V674H130V93Q130 62 140 50T172 37Q194 37 216 43V-3Q195 -10 163 -10Q120 -10 98 13Z" />
<glyph unicode="m" glyph-name="m" horiz-adv-x="850" d="M75 474H123L128 416Q210 484 305 484Q358 484 388 467T434 416Q515 484 621 484Q702 484 741 443T780 317V0H726V312Q726 382 697 410T600 438Q554 438 514 423T447 377Q454 344 454 310V0H401V309Q401
379 377 408T289 438Q247 438 205 419T129 369V0H75V474Z" />
<glyph unicode="n" glyph-name="n" horiz-adv-x="559" d="M75 474H123L128 416Q167 449 213 466T320 484Q408 484 448 443T489 313V0H434V312Q434 360 422 387T380 426T297 438Q248 438 206 420T130 369V0H75V474Z" />
<glyph unicode="o" glyph-name="o" horiz-adv-x="563" d="M163 -10T109 52T55 237Q55 359 110 421T281 484Q397 484 452 422T508 237Q508 114 454 52T281 -10Q163 -10 109 52ZM374 37T413 85T453 237Q453 340 413 388T281 436Q189 436 149 388T109 237Q109 133
148 85T281 37Q374 37 413 85Z" />
<glyph unicode="p" glyph-name="p" horiz-adv-x="564" d="M75 474H121L126 420Q161 453 202 468T297 484Q509 484 509 238Q509 112 453 51T293 -10Q243 -10 204 1T130 39V-216H75V474ZM368 35T411 84T455 238Q455 341 415 389T284 438Q190 438 130 374V88Q191
35 279 35Q368 35 411 84Z" />
<glyph unicode="q" glyph-name="q" horiz-adv-x="603" d="M485 -242T460 -214T434 -126V39Q399 13 360 2T271 -10Q168 -10 112 51T55 238Q55 484 267 484Q321 484 362 469T438 420L443 474H489V-124Q489 -164 501 -179T551 -195Q566 -195 588 -189V-235Q566 -242
537 -242Q485 -242 460 -214ZM373 35T434 88V374Q374 438 280 438Q189 438 149 390T109 238Q109 133 152 84T285 35Q373 35 434 88Z" />
<glyph unicode="r" glyph-name="r" horiz-adv-x="342" d="M75 474H123L129 408Q165 433 212 453T307 484V439Q262 428 211 407T130 364V0H75V474Z" />
<glyph unicode="s" glyph-name="s" horiz-adv-x="447" d="M128 -10T68 10V59Q133 37 207 37Q277 37 307 56T337 120Q337 148 326 164T292 190T223 216L198 225Q144 243 118 255T73 292T55 359Q55 422 96 453T229 484Q297 484 355 467V418Q297 436 237 436Q167
436 138 419T109 360Q109 333 121 318T156 292T233 265Q293 246 325 230T375 188T392 120Q392 -10 214 -10Q128 -10 68 10Z" />
<glyph unicode="t" glyph-name="t" horiz-adv-x="350" d="M177 -10T143 25T109 123V428H35V474H109V598L164 616V474H301L298 428H164V125Q164 79 186 57T256 35Q283 35 315 46V2Q282 -10 240 -10Q177 -10 143 25Z" />
<glyph unicode="u" glyph-name="u" horiz-adv-x="559" d="M158 -10T114 37T70 174V474H125V172Q125 103 159 69T266 35Q314 35 355 53T429 104V474H484V0H435L430 58Q392 25 347 8T243 -10Q158 -10 114 37Z" />
<glyph unicode="v" glyph-name="v" horiz-adv-x="546" d="M55 474H112L273 46L435 474H491L306 0H240L55 474Z" />
<glyph unicode="w" glyph-name="w" horiz-adv-x="719" d="M55 474H110L214 56L333 422V474H376L506 56L609 474H664L541 0H482L361 377L238 0H178L55 474Z" />
<glyph unicode="x" glyph-name="x" horiz-adv-x="528" d="M234 241L60 474H120L263 279L407 474H466L295 241L473 0H413L263 204L114 0H55L234 241Z" />
<glyph unicode="y" glyph-name="y" horiz-adv-x="566" d="M103 -176T74 -165V-119Q101 -129 135 -129Q168 -129 189 -115T224 -75T262 3L55 474H112L290 62L475 474H531L326 15Q296 -53 275 -91T222 -152T146 -176Q103 -176 74 -165Z" />
<glyph unicode="z" glyph-name="z" horiz-adv-x="479" d="M55 34L353 428H69V474H418V436L122 45H424V0H55V34Z" />
<glyph unicode="{" glyph-name="braceleft" horiz-adv-x="285" d="M153 -104T129 -82T104 -6V179Q104 227 90 250T35 278V318Q76 323 90 346T104 417V602Q104 656 128 678T208 700H240V655H216Q183 655 171 643T159 595V390Q159 359 145 333T98 298Q130 289 144
263T159 206V1Q159 -34 171 -46T216 -59H240V-104H208Q153 -104 129 -82Z" />
<glyph unicode="|" glyph-name="bar" horiz-adv-x="165" d="M55 735H110V-120H55V735Z" />
<glyph unicode="}" glyph-name="braceright" horiz-adv-x="285" d="M45 -59H69Q102 -59 114 -47T126 1V206Q126 237 140 263T187 298Q155 307 141 333T126 390V595Q126 630 114 642T69 655H45V700H77Q132 700 156 678T181 602V417Q181 369 195 346T250 318V278Q209
273 195 250T181 179V-6Q181 -60 157 -82T77 -104H45V-59Z" />
<glyph unicode="~" glyph-name="asciitilde" horiz-adv-x="579" d="M381 241T354 250T290 277Q253 295 226 304T172 313Q135 313 108 299T55 252V310Q73 334 104 348T172 363Q204 363 232 353T297 325Q336 307 359 299T409 291Q446 291 472 305T524 351V293Q507
269 477 255T409 241Q381 241 354 250Z" />
<glyph unicode="&#xa0;" glyph-name="uni00A0" horiz-adv-x="390" />
<glyph unicode="&#xa1;" glyph-name="exclamdown" horiz-adv-x="171" d="M55 632H116V584H55V632ZM58 141L64 486H108L113 141V-12H58V141Z" />
<glyph unicode="&#xa2;" glyph-name="cent" horiz-adv-x="483" d="M266 -9Q55 2 55 237Q55 350 110 412T266 482V560H310V484Q348 483 374 477T427 458V413Q375 437 310 438V35Q371 36 428 61V15Q378 -6 310 -9V-86H266V-9ZM266 435Q109 416 109 237Q109 142 146
93T266 36V435Z" />
<glyph unicode="&#xa3;" glyph-name="sterling" horiz-adv-x="505" d="M55 45H82Q145 45 145 123V319H72V364H145V504Q145 575 191 614T309 654Q341 654 369 649T414 636V592Q400 599 375 603T324 608Q262 608 231 583T200 503V364H413L412 319H200V126Q200 67
171 45H450V0H55V45Z" />
<glyph unicode="&#xa4;" glyph-name="currency" horiz-adv-x="571" d="M55 100L139 163Q103 208 103 269Q103 329 139 374L55 438L81 471L166 404Q190 426 220 438T285 450Q353 450 404 404L490 471L516 438L432 374Q468 327 468 269Q468 211 432 162L516 99L490
66L404 132Q354 87 286 87Q217 87 166 132L81 66L55 100ZM323 129T354 148T404 199T423 269Q423 307 405 339T354 389T285 408Q247 408 216 390T166 339T148 269Q148 231 166 199T216 148T285 129Q323 129 354 148Z" />
<glyph unicode="&#xa5;" glyph-name="yen" horiz-adv-x="615" d="M279 110H116V151H279V219H116V260H268L55 644H111L307 289L503 644H560L345 260H498V219H335V151H498V110H335V0H279V110Z" />
<glyph unicode="&#xa6;" glyph-name="brokenbar" horiz-adv-x="165" d="M55 735H110V434H55V735ZM55 180H110V-120H55V180Z" />
<glyph unicode="&#xa7;" glyph-name="section" horiz-adv-x="553" d="M142 -10T71 18V67Q153 37 254 37Q349 37 396 67T444 164Q444 205 424 230T364 272T250 306Q176 324 135 343T74 390T55 460Q55 492 72 523Q55 552 55 593Q55 674 113 719T286 765Q336 765
383 758T459 741V692Q387 717 297 717Q203 717 156 687T109 592Q109 555 125 532T180 492T292 458Q377 438 420 419T480 374T498 305Q498 289 494 269T482 234Q498 203 498 163Q498 77 437 34T258 -10Q142 -10 71 18ZM449 287T449 306Q449 339 434 356T384 386T265
420Q203 435 168 449T113 485Q107 473 107 455Q107 425 122 407T173 376T280 346Q401 317 443 271Q449 287 449 306Z" />
<glyph unicode="&#xa8;" glyph-name="dieresis" horiz-adv-x="333" d="M55 622H111V567H55V622ZM221 622H278V567H221V622Z" />
<glyph unicode="&#xa9;" glyph-name="copyright" horiz-adv-x="774" d="M297 -10T221 34T100 155T55 322Q55 412 99 488T220 609T387 654Q477 654 553 610T674 489T719 322Q719 232 675 156T554 35T387 -10Q297 -10 221 34ZM467 33T533 71T637 175T675 322Q675
402 637 468T533 572T387 610Q307 610 241 572T137 468T99 322Q99 241 137 175T241 71T387 33Q467 33 533 71ZM276 83T215 146T153 321Q153 398 185 451T271 531T393 558Q471 558 522 530V490Q466 517 401 517Q310 517 255 468T200 321Q200 220 249 172T396 124Q427
124 462 131T522 152V111Q496 98 460 91T385 83Q276 83 215 146Z" />
<glyph unicode="&#xaa;" glyph-name="ordfeminine" horiz-adv-x="348" d="M108 380T82 399T55 456Q55 540 158 540H252V557Q252 591 236 605T170 619Q128 619 89 605V640Q129 654 179 654Q293 654 293 559V386H256L253 418Q233 398 209 389T150 380Q108 380 82
399ZM191 412T212 422T252 454V508H161Q124 508 109 497T94 457Q94 412 160 412Q191 412 212 422Z" />
<glyph unicode="&#xab;" glyph-name="guillemotleft" horiz-adv-x="581" d="M55 271V303L305 487L328 453L106 287L328 121L305 87L55 271ZM252 271V303L502 487L526 453L303 287L526 121L502 87L252 271Z" />
<glyph unicode="&#xac;" glyph-name="logicalnot" horiz-adv-x="535" d="M433 319H55V364H480V152H433V319Z" />
<glyph unicode="&#xad;" glyph-name="uni00AD" horiz-adv-x="482" d="M55 280H427V235H55V280Z" />
<glyph unicode="&#xae;" glyph-name="registered" horiz-adv-x="774" d="M297 -10T221 34T100 155T55 322Q55 412 99 488T220 609T387 654Q477 654 553 610T674 489T719 322Q719 232 675 156T554 35T387 -10Q297 -10 221 34ZM467 33T533 71T637 175T675 322Q675
402 637 468T533 572T387 610Q307 610 241 572T137 468T99 322Q99 241 137 175T241 71T387 33Q467 33 533 71ZM232 545H420Q489 545 524 511T560 414Q560 362 534 330T457 288Q472 280 480 270T497 239L556 100H512L452 237Q441 262 426 269T369 277H277V100H232V545ZM402
316Q460 316 488 337T516 414Q516 465 493 485T417 506H277V316H402Z" />
<glyph unicode="&#xaf;" glyph-name="overscore" horiz-adv-x="387" d="M55 609H332V567H55V609Z" />
<glyph unicode="&#xb0;" glyph-name="degree" horiz-adv-x="321" d="M116 507T86 537T55 612Q55 657 85 687T160 717Q205 717 235 687T266 612Q266 567 236 537T160 507Q116 507 86 537ZM188 546T207 565T226 612Q226 640 207 659T160 678Q132 678 114 659T95
612Q95 584 113 565T160 546Q188 546 207 565Z" />
<glyph unicode="&#xb1;" glyph-name="plusminus" horiz-adv-x="482" d="M217 245H55V290H217V452H264V290H427V245H264V89H217V245ZM55 45H427V0H55V45Z" />
<glyph unicode="&#xb2;" glyph-name="uni00B2" horiz-adv-x="296" d="M55 396Q66 420 85 439T137 485Q173 515 185 532T197 572Q197 596 183 607T136 619Q101 619 65 607V641Q79 646 101 650T144 654Q189 654 213 631T238 572Q238 543 225 524T175 473L156 457Q142
445 129 432T107 404H241V370H55V396Z" />
<glyph unicode="&#xb3;" glyph-name="uni00B3" horiz-adv-x="298" d="M109 362T88 365T55 373V407Q88 395 124 395Q166 395 183 406T200 446Q200 471 183 482T129 494H94L98 525H125Q161 525 177 537T194 576Q194 600 179 610T125 620Q91 620 60 609V643Q73 647
93 650T132 654Q237 654 237 578Q237 554 225 536T188 509Q243 498 243 445Q243 362 130 362Q109 362 88 365Z" />
<glyph unicode="&#xb4;" glyph-name="acute" horiz-adv-x="229" d="M122 680H174L99 522H55L122 680Z" />
<glyph unicode="&#xb6;" glyph-name="paragraph" horiz-adv-x="611" d="M330 253Q201 253 128 303T55 477Q55 599 125 654T320 710H556V-77H501V665H385V-77H330V253Z" />
<glyph unicode="&#xb7;" glyph-name="middot" horiz-adv-x="163" d="M55 309H108V258H55V309Z" />
<glyph unicode="&#xb8;" glyph-name="cedilla" horiz-adv-x="315" d="M105 -240T86 -238T55 -232V-195Q84 -203 118 -203Q170 -203 193 -189T217 -139Q217 -107 195 -96T125 -84H92L120 0H163L146 -51Q260 -51 260 -139Q260 -240 120 -240Q105 -240 86 -238Z" />
<glyph unicode="&#xb9;" glyph-name="uni00B9" horiz-adv-x="206" d="M131 614L55 597V631L171 654V370H131V614Z" />
<glyph unicode="&#xba;" glyph-name="ordmasculine" horiz-adv-x="363" d="M55 380T55 517Q55 584 86 619T181 654Q244 654 276 619T308 517Q308 380 181 380Q55 380 55 517ZM228 414T247 439T267 517Q267 568 247 593T181 619Q135 619 115 594T95 517Q95 465
114 440T181 414Q228 414 247 439Z" />
<glyph unicode="&#xbb;" glyph-name="guillemotright" horiz-adv-x="581" d="M55 121L277 287L55 453L78 487L328 303V271L78 87L55 121ZM252 121L475 287L252 453L276 487L526 303V271L276 87L252 121Z" />
<glyph unicode="&#xbc;" glyph-name="onequarter" horiz-adv-x="616" d="M131 614L55 597V631L171 654V370H131V614ZM447 644H499L155 0H103L447 644ZM490 62H335V96L482 284H530V95H561V62H530V0H490V62ZM497 95V253L374 95H497Z" />
<glyph unicode="&#xbd;" glyph-name="onehalf" horiz-adv-x="615" d="M131 614L55 597V631L171 654V370H131V614ZM447 644H499L155 0H103L447 644ZM374 26Q386 50 404 69T456 115Q493 145 504 162T516 202Q516 226 502 237T455 249Q422 249 384 237V271Q398 276
420 280T463 284Q508 284 533 261T558 202Q558 173 545 154T495 103L476 87Q462 75 449 62T427 34H560V0H374V26Z" />
<glyph unicode="&#xbe;" glyph-name="threequarters" horiz-adv-x="630" d="M109 362T88 365T55 373V406Q88 394 124 394Q166 394 183 406T200 446Q200 471 183 482T129 494H94L98 525H125Q161 525 177 537T194 576Q194 600 178 610T125 621Q91 621 60 610V643Q73
647 93 650T132 654Q237 654 237 578Q237 554 225 536T188 509Q243 498 243 445Q243 362 130 362Q109 362 88 365ZM460 644H512L169 0H117L460 644ZM504 62H349V96L495 284H544V95H575V62H544V0H504V62ZM510 95V253L388 95H510Z" />
<glyph unicode="&#xbf;" glyph-name="questiondown" horiz-adv-x="488" d="M264 632H325V584H264V632ZM169 -22T117 23T65 153Q65 189 78 217T111 265T168 316L185 330Q217 356 233 372T258 409T267 463V484H322V460Q322 420 306 390T273 345T209 290Q162 252
141 224T119 154Q119 89 156 58T281 26Q370 26 443 61V13Q413 -3 368 -12T271 -22Q169 -22 117 23Z" />
<glyph unicode="&#xc0;" glyph-name="Agrave" horiz-adv-x="667" d="M230 846H282L349 688H304L230 846ZM299 644H369L612 0H556L485 188H183L112 0H55L299 644ZM472 233L333 600L195 233H472Z" />
<glyph unicode="&#xc1;" glyph-name="Aacute" horiz-adv-x="667" d="M367 846H419L345 688H300L367 846ZM299 644H369L612 0H556L485 188H183L112 0H55L299 644ZM472 233L333 600L195 233H472Z" />
<glyph unicode="&#xc2;" glyph-name="Acircumflex" horiz-adv-x="667" d="M309 822H357L462 687H412L333 790L254 687H204L309 822ZM299 644H369L612 0H556L485 188H183L112 0H55L299 644ZM472 233L333 600L195 233H472Z" />
<glyph unicode="&#xc3;" glyph-name="Atilde" horiz-adv-x="667" d="M387 710T370 715T331 730Q291 747 271 747Q221 747 192 712V759Q204 772 225 780T270 788Q288 788 302 784T340 769Q360 760 373 756T402 751Q426 751 444 759T475 786V739Q465 725 447 718T404
710Q387 710 370 715ZM299 644H369L612 0H556L485 188H183L112 0H55L299 644ZM472 233L333 600L195 233H472Z" />
<glyph unicode="&#xc4;" glyph-name="Adieresis" horiz-adv-x="667" d="M222 768H279V713H222V768ZM389 768H445V713H389V768ZM299 644H369L612 0H556L485 188H183L112 0H55L299 644ZM472 233L333 600L195 233H472Z" />
<glyph unicode="&#xc5;" glyph-name="Aring" horiz-adv-x="667" d="M292 626Q264 637 248 662T231 719Q231 762 260 791T333 821Q378 821 407 792T436 719Q436 688 420 663T375 626L612 0H556L485 188H183L112 0H55L292 626ZM362 654T380 672T399 719Q399 748
381 766T333 785Q305 785 286 767T267 719Q267 691 286 673T333 654Q362 654 380 672ZM472 233L333 600L195 233H472Z" />
<glyph unicode="&#xc6;" glyph-name="AE" horiz-adv-x="832" d="M299 644H777V598H465V344H742V299H465V44H777V0H410V189H185L113 0H55L299 644ZM410 233V598H340L202 233H410Z" />
<glyph unicode="&#xc7;" glyph-name="Ccedilla" horiz-adv-x="589" d="M222 606T166 529T109 304Q109 37 358 37Q404 37 450 44T534 64V15Q459 -9 363 -10L349 -51Q405 -51 434 -73T463 -139Q463 -189 430 -214T324 -240Q309 -240 290 -238T258 -232V-195Q287
-203 321 -203Q373 -203 396 -189T420 -139Q420 -108 399 -96T328 -84H295L320 -9Q188 0 122 83T55 304Q55 470 125 562T350 654Q452 654 534 625V576Q453 606 355 606Q222 606 166 529Z" />
<glyph unicode="&#xc8;" glyph-name="Egrave" d="M197 846H249L316 688H271L197 846ZM75 644H496V599H130V344H461V300H130V44H496V0H75V644Z" />
<glyph unicode="&#xc9;" glyph-name="Eacute" d="M324 846H376L302 688H257L324 846ZM75 644H496V599H130V344H461V300H130V44H496V0H75V644Z" />
<glyph unicode="&#xca;" glyph-name="Ecircumflex" d="M253 822H301L406 687H356L277 790L198 687H148L253 822ZM75 644H496V599H130V344H461V300H130V44H496V0H75V644Z" />
<glyph unicode="&#xcb;" glyph-name="Edieresis" d="M172 769H229V714H172V769ZM339 769H395V714H339V769ZM75 644H496V599H130V344H461V300H130V44H496V0H75V644Z" />
<glyph unicode="&#xcc;" glyph-name="Igrave" horiz-adv-x="205" d="M6 846H58L125 688H80L6 846ZM75 644H130V0H75V644Z" />
<glyph unicode="&#xcd;" glyph-name="Iacute" horiz-adv-x="205" d="M145 846H197L123 688H78L145 846ZM75 644H130V0H75V644Z" />
<glyph unicode="&#xce;" glyph-name="Icircumflex" horiz-adv-x="205" d="M78 822H126L231 687H181L102 790L23 687H-27L78 822ZM75 644H130V0H75V644Z" />
<glyph unicode="&#xcf;" glyph-name="Idieresis" horiz-adv-x="205" d="M-10 770H47V715H-10V770ZM157 770H213V715H157V770ZM75 644H130V0H75V644Z" />
<glyph unicode="&#xd0;" glyph-name="Eth" horiz-adv-x="673" d="M116 294H35V339H116V644H359Q452 644 508 611T591 506T618 317Q618 206 592 137T509 34T359 0H116V294ZM346 44Q424 44 470 67T540 149T564 317Q564 427 543 487T475 573T346 598H171V339H361V294H171V44H346Z"
/>
<glyph unicode="&#xd1;" glyph-name="Ntilde" horiz-adv-x="656" d="M382 713T365 718T326 733Q286 750 266 750Q216 750 187 715V762Q199 775 220 783T265 791Q283 791 297 787T335 772Q355 763 368 759T397 754Q421 754 439 762T470 789V742Q460 728 442 721T399
713Q382 713 365 718ZM75 644H127L526 82V644H581V0H528L130 561V0H75V644Z" />
<glyph unicode="&#xd2;" glyph-name="Ograve" horiz-adv-x="688" d="M253 846H305L372 688H327L253 846ZM197 -10T126 73T55 319Q55 492 125 573T344 654Q493 654 563 573T633 319Q633 156 562 73T344 -10Q197 -10 126 73ZM463 37T520 105T578 319Q578 424 553
487T476 578T344 606Q263 606 212 578T135 487T109 319Q109 174 166 106T344 37Q463 37 520 105Z" />
<glyph unicode="&#xd3;" glyph-name="Oacute" horiz-adv-x="688" d="M389 846H441L367 688H322L389 846ZM197 -10T126 73T55 319Q55 492 125 573T344 654Q493 654 563 573T633 319Q633 156 562 73T344 -10Q197 -10 126 73ZM463 37T520 105T578 319Q578 424 553
487T476 578T344 606Q263 606 212 578T135 487T109 319Q109 174 166 106T344 37Q463 37 520 105Z" />
<glyph unicode="&#xd4;" glyph-name="Ocircumflex" horiz-adv-x="688" d="M320 822H368L473 687H423L344 790L265 687H215L320 822ZM197 -10T126 73T55 319Q55 492 125 573T344 654Q493 654 563 573T633 319Q633 156 562 73T344 -10Q197 -10 126 73ZM463 37T520
105T578 319Q578 424 553 487T476 578T344 606Q263 606 212 578T135 487T109 319Q109 174 166 106T344 37Q463 37 520 105Z" />
<glyph unicode="&#xd5;" glyph-name="Otilde" horiz-adv-x="688" d="M398 715T381 720T342 735Q302 752 282 752Q232 752 203 717V764Q215 777 236 785T281 793Q299 793 313 789T351 774Q371 765 384 761T413 756Q437 756 455 764T486 791V744Q476 730 458 723T415
715Q398 715 381 720ZM197 -10T126 73T55 319Q55 492 125 573T344 654Q493 654 563 573T633 319Q633 156 562 73T344 -10Q197 -10 126 73ZM463 37T520 105T578 319Q578 424 553 487T476 578T344 606Q263 606 212 578T135 487T109 319Q109 174 166 106T344 37Q463
37 520 105Z" />
<glyph unicode="&#xd6;" glyph-name="Odieresis" horiz-adv-x="688" d="M233 769H290V714H233V769ZM400 769H456V714H400V769ZM197 -10T126 73T55 319Q55 492 125 573T344 654Q493 654 563 573T633 319Q633 156 562 73T344 -10Q197 -10 126 73ZM463 37T520 105T578
319Q578 424 553 487T476 578T344 606Q263 606 212 578T135 487T109 319Q109 174 166 106T344 37Q463 37 520 105Z" />
<glyph unicode="&#xd7;" glyph-name="multiply" horiz-adv-x="403" d="M203 222L91 111L60 142L171 254L55 369L85 400L200 283L317 399L348 368L232 251L348 135L319 106L203 222Z" />
<glyph unicode="&#xd8;" glyph-name="Oslash" horiz-adv-x="688" d="M199 17Q55 85 55 319Q55 492 125 573T344 654Q391 654 426 647L443 693H493L472 634Q554 604 593 527T633 319Q633 156 562 73T344 -10Q288 -10 244 2L224 -53H174L199 17ZM409 600Q379 606
344 606Q263 606 212 578T135 487T109 319Q109 220 135 157T216 64L409 600ZM463 37T520 105T578 319Q578 433 548 498T455 588L260 47Q296 37 344 37Q463 37 520 105Z" />
<glyph unicode="&#xd9;" glyph-name="Ugrave" horiz-adv-x="663" d="M255 846H307L374 688H329L255 846ZM202 -10T136 52T70 233V644H125V227Q125 133 178 86T332 38Q431 38 484 85T538 227V644H593V233Q593 114 528 52T332 -10Q202 -10 136 52Z" />
<glyph unicode="&#xda;" glyph-name="Uacute" horiz-adv-x="663" d="M368 846H420L346 688H301L368 846ZM202 -10T136 52T70 233V644H125V227Q125 133 178 86T332 38Q431 38 484 85T538 227V644H593V233Q593 114 528 52T332 -10Q202 -10 136 52Z" />
<glyph unicode="&#xdb;" glyph-name="Ucircumflex" horiz-adv-x="663" d="M307 822H355L460 687H410L331 790L252 687H202L307 822ZM202 -10T136 52T70 233V644H125V227Q125 133 178 86T332 38Q431 38 484 85T538 227V644H593V233Q593 114 528 52T332 -10Q202
-10 136 52Z" />
<glyph unicode="&#xdc;" glyph-name="Udieresis" horiz-adv-x="663" d="M213 769H270V714H213V769ZM380 769H436V714H380V769ZM202 -10T136 52T70 233V644H125V227Q125 133 178 86T332 38Q431 38 484 85T538 227V644H593V233Q593 114 528 52T332 -10Q202 -10 136 52Z" />
<glyph unicode="&#xdd;" glyph-name="Yacute" horiz-adv-x="624" d="M343 846H395L321 688H276L343 846ZM284 241L55 644H112L312 289L512 644H569L339 241V0H284V241Z" />
<glyph unicode="&#xde;" glyph-name="Thorn" horiz-adv-x="571" d="M75 644H130V519H331Q433 519 484 466T536 320Q536 228 480 175T327 122H130V0H75V644ZM322 167Q399 167 440 208T481 320Q481 395 443 434T327 474H130V167H322Z" />
<glyph unicode="&#xdf;" glyph-name="germandbls" horiz-adv-x="620" d="M279 -10T224 12V60Q278 37 362 37Q433 37 471 77T510 191Q510 261 475 298T357 335H270V379H361Q425 379 455 416T486 512Q486 578 445 615T305 652Q216 652 171 607T125 474V0H70V478Q70
581 132 640T305 700Q420 700 479 648T538 512Q538 457 514 417T450 358Q504 343 534 300T565 189Q565 94 514 42T368 -10Q279 -10 224 12Z" />
<glyph unicode="&#xe0;" glyph-name="agrave" horiz-adv-x="531" d="M194 680H246L313 522H268L194 680ZM148 -10T102 24T55 126Q55 193 97 230T231 268H408V313Q408 360 396 386T352 425T260 437Q182 437 109 411V458Q176 484 270 484Q369 484 415 444T461 314V0H416L411
59Q378 23 333 7T220 -10Q148 -10 102 24ZM345 36T408 110V224H233Q165 224 137 200T109 126Q109 78 141 57T234 36Q345 36 408 110Z" />
<glyph unicode="&#xe1;" glyph-name="aacute" horiz-adv-x="531" d="M319 680H371L297 522H252L319 680ZM148 -10T102 24T55 126Q55 193 97 230T231 268H408V313Q408 360 396 386T352 425T260 437Q182 437 109 411V458Q176 484 270 484Q369 484 415 444T461 314V0H416L411
59Q378 23 333 7T220 -10Q148 -10 102 24ZM345 36T408 110V224H233Q165 224 137 200T109 126Q109 78 141 57T234 36Q345 36 408 110Z" />
<glyph unicode="&#xe2;" glyph-name="acircumflex" horiz-adv-x="531" d="M254 656H302L407 521H357L278 624L199 521H149L254 656ZM148 -10T102 24T55 126Q55 193 97 230T231 268H408V313Q408 360 396 386T352 425T260 437Q182 437 109 411V458Q176 484 270 484Q369
484 415 444T461 314V0H416L411 59Q378 23 333 7T220 -10Q148 -10 102 24ZM345 36T408 110V224H233Q165 224 137 200T109 126Q109 78 141 57T234 36Q345 36 408 110Z" />
<glyph unicode="&#xe3;" glyph-name="atilde" horiz-adv-x="531" d="M332 547T315 552T276 567Q236 584 216 584Q166 584 137 549V596Q149 609 170 617T215 625Q233 625 247 621T285 606Q305 597 318 593T347 588Q371 588 389 596T420 623V576Q410 562 392 555T349
547Q332 547 315 552ZM148 -10T102 24T55 126Q55 193 97 230T231 268H408V313Q408 360 396 386T352 425T260 437Q182 437 109 411V458Q176 484 270 484Q369 484 415 444T461 314V0H416L411 59Q378 23 333 7T220 -10Q148 -10 102 24ZM345 36T408 110V224H233Q165
224 137 200T109 126Q109 78 141 57T234 36Q345 36 408 110Z" />
<glyph unicode="&#xe4;" glyph-name="adieresis" horiz-adv-x="531" d="M171 603H228V548H171V603ZM338 603H394V548H338V603ZM148 -10T102 24T55 126Q55 193 97 230T231 268H408V313Q408 360 396 386T352 425T260 437Q182 437 109 411V458Q176 484 270 484Q369
484 415 444T461 314V0H416L411 59Q378 23 333 7T220 -10Q148 -10 102 24ZM345 36T408 110V224H233Q165 224 137 200T109 126Q109 78 141 57T234 36Q345 36 408 110Z" />
<glyph unicode="&#xe5;" glyph-name="aring" horiz-adv-x="531" d="M240 521T211 550T182 622Q182 665 211 694T284 724Q329 724 358 695T387 622Q387 580 358 551T284 521Q240 521 211 550ZM313 557T331 575T350 622Q350 651 332 669T284 688Q256 688 237 670T218
622Q218 594 237 576T284 557Q313 557 331 575ZM148 -10T102 24T55 126Q55 193 97 230T231 268H408V313Q408 360 396 386T352 425T260 437Q182 437 109 411V458Q176 484 270 484Q369 484 415 444T461 314V0H416L411 59Q378 23 333 7T220 -10Q148 -10 102 24ZM345
36T408 110V224H233Q165 224 137 200T109 126Q109 78 141 57T234 36Q345 36 408 110Z" />
<glyph unicode="&#xe6;" glyph-name="ae" horiz-adv-x="879" d="M148 -10T102 24T55 126Q55 193 97 230T231 268H408V301Q408 369 375 403T262 437Q182 437 109 411V458Q176 484 270 484Q404 484 439 393Q463 438 510 461T625 484Q723 484 773 431T824 294V208H463Q465
144 485 107T548 52T664 35Q729 35 793 60V15Q730 -10 654 -10Q570 -10 518 15T439 94Q410 46 356 18T220 -10Q148 -10 102 24ZM773 251V296Q773 364 737 401T626 438Q535 438 499 394T463 251H773ZM373 36T408 136V224H233Q165 224 137 200T109 126Q109 78 141
57T234 36Q373 36 408 136Z" />
<glyph unicode="&#xe7;" glyph-name="ccedilla" horiz-adv-x="483" d="M370 -10T293 -10L279 -51Q335 -51 364 -73T393 -139Q393 -189 360 -214T254 -240Q239 -240 220 -238T188 -232V-195Q217 -203 251 -203Q303 -203 326 -189T350 -139Q350 -108 329 -96T258
-84H225L250 -8Q55 12 55 237Q55 359 119 421T298 484Q341 484 369 478T427 458V413Q374 438 307 438Q109 438 109 237Q109 132 154 84T303 35Q368 35 428 61V15Q370 -10 293 -10Z" />
<glyph unicode="&#xe8;" glyph-name="egrave" horiz-adv-x="525" d="M173 680H225L292 522H247L173 680ZM172 -10T114 50T55 240Q55 484 274 484Q372 484 421 432T470 294V208H110Q113 145 133 108T195 53T311 35Q377 35 439 60V15Q378 -10 300 -10Q172 -10 114
50ZM420 251V296Q420 438 275 438Q185 438 148 392T110 251H420Z" />
<glyph unicode="&#xe9;" glyph-name="eacute" horiz-adv-x="525" d="M306 680H358L284 522H239L306 680ZM172 -10T114 50T55 240Q55 484 274 484Q372 484 421 432T470 294V208H110Q113 145 133 108T195 53T311 35Q377 35 439 60V15Q378 -10 300 -10Q172 -10 114
50ZM420 251V296Q420 438 275 438Q185 438 148 392T110 251H420Z" />
<glyph unicode="&#xea;" glyph-name="ecircumflex" horiz-adv-x="525" d="M244 656H292L397 521H347L268 624L189 521H139L244 656ZM172 -10T114 50T55 240Q55 484 274 484Q372 484 421 432T470 294V208H110Q113 145 133 108T195 53T311 35Q377 35 439 60V15Q378
-10 300 -10Q172 -10 114 50ZM420 251V296Q420 438 275 438Q185 438 148 392T110 251H420Z" />
<glyph unicode="&#xeb;" glyph-name="edieresis" horiz-adv-x="525" d="M155 603H212V548H155V603ZM322 603H378V548H322V603ZM172 -10T114 50T55 240Q55 484 274 484Q372 484 421 432T470 294V208H110Q113 145 133 108T195 53T311 35Q377 35 439 60V15Q378 -10
300 -10Q172 -10 114 50ZM420 251V296Q420 438 275 438Q185 438 148 392T110 251H420Z" />
<glyph unicode="&#xec;" glyph-name="igrave" horiz-adv-x="270" d="M71 680H123L190 522H145L71 680ZM140 428H65L69 474H195V0H140V428Z" />
<glyph unicode="&#xed;" glyph-name="iacute" horiz-adv-x="270" d="M200 680H252L178 522H133L200 680ZM140 428H65L69 474H195V0H140V428Z" />
<glyph unicode="&#xee;" glyph-name="icircumflex" horiz-adv-x="270" d="M124 656H172L277 521H227L148 624L69 521H19L124 656ZM140 428H65L69 474H195V0H140V428Z" />
<glyph unicode="&#xef;" glyph-name="idieresis" horiz-adv-x="270" d="M31 603H88V548H31V603ZM198 603H254V548H198V603ZM140 428H65L69 474H195V0H140V428Z" />
<glyph unicode="&#xf0;" glyph-name="eth" horiz-adv-x="570" d="M170 -10T113 44T55 195Q55 294 111 347T273 400Q316 400 364 385T453 339V395Q453 494 421 547L285 487V526L397 575Q356 611 284 611Q203 611 143 590V634Q210 654 289 654Q389 654 444 596L540
638V599L466 566Q506 501 506 391V231Q506 106 450 48T280 -10Q170 -10 113 44ZM453 33T453 208V296Q415 324 370 340T282 357Q188 357 147 315T105 195Q105 118 149 76T280 33Q453 33 453 208Z" />
<glyph unicode="&#xf1;" glyph-name="ntilde" horiz-adv-x="559" d="M341 547T324 552T285 567Q245 584 225 584Q175 584 146 549V596Q158 609 179 617T224 625Q242 625 256 621T294 606Q314 597 327 593T356 588Q380 588 398 596T429 623V576Q419 562 401 555T358
547Q341 547 324 552ZM75 474H123L128 416Q167 449 213 466T320 484Q408 484 448 443T489 313V0H434V312Q434 360 422 387T380 426T297 438Q248 438 206 420T130 369V0H75V474Z" />
<glyph unicode="&#xf2;" glyph-name="ograve" horiz-adv-x="563" d="M192 680H244L311 522H266L192 680ZM163 -10T109 52T55 237Q55 359 110 421T281 484Q397 484 452 422T508 237Q508 114 454 52T281 -10Q163 -10 109 52ZM374 37T413 85T453 237Q453 340 413
388T281 436Q189 436 149 388T109 237Q109 133 148 85T281 37Q374 37 413 85Z" />
<glyph unicode="&#xf3;" glyph-name="oacute" horiz-adv-x="563" d="M328 680H380L306 522H261L328 680ZM163 -10T109 52T55 237Q55 359 110 421T281 484Q397 484 452 422T508 237Q508 114 454 52T281 -10Q163 -10 109 52ZM374 37T413 85T453 237Q453 340 413
388T281 436Q189 436 149 388T109 237Q109 133 148 85T281 37Q374 37 413 85Z" />
<glyph unicode="&#xf4;" glyph-name="ocircumflex" horiz-adv-x="563" d="M257 656H305L410 521H360L281 624L202 521H152L257 656ZM163 -10T109 52T55 237Q55 359 110 421T281 484Q397 484 452 422T508 237Q508 114 454 52T281 -10Q163 -10 109 52ZM374 37T413
85T453 237Q453 340 413 388T281 436Q189 436 149 388T109 237Q109 133 148 85T281 37Q374 37 413 85Z" />
<glyph unicode="&#xf5;" glyph-name="otilde" horiz-adv-x="563" d="M335 549T318 554T279 569Q239 586 219 586Q169 586 140 551V598Q152 611 173 619T218 627Q236 627 250 623T288 608Q308 599 321 595T350 590Q374 590 392 598T423 625V578Q413 564 395 557T352
549Q335 549 318 554ZM163 -10T109 52T55 237Q55 359 110 421T281 484Q397 484 452 422T508 237Q508 114 454 52T281 -10Q163 -10 109 52ZM374 37T413 85T453 237Q453 340 413 388T281 436Q189 436 149 388T109 237Q109 133 148 85T281 37Q374 37 413 85Z" />
<glyph unicode="&#xf6;" glyph-name="odieresis" horiz-adv-x="563" d="M170 603H227V548H170V603ZM337 603H393V548H337V603ZM163 -10T109 52T55 237Q55 359 110 421T281 484Q397 484 452 422T508 237Q508 114 454 52T281 -10Q163 -10 109 52ZM374 37T413 85T453
237Q453 340 413 388T281 436Q189 436 149 388T109 237Q109 133 148 85T281 37Q374 37 413 85Z" />
<glyph unicode="&#xf7;" glyph-name="divide" horiz-adv-x="481" d="M213 442H267V388H213V442ZM55 280H426V235H55V280ZM213 133H267V79H213V133Z" />
<glyph unicode="&#xf8;" glyph-name="oslash" horiz-adv-x="563" d="M179 5Q115 29 85 86T55 237Q55 359 110 421T281 484Q320 484 349 477L367 528H416L393 464Q508 413 508 237Q508 114 454 52T281 -10Q248 -10 224 -6L207 -54H158L179 5ZM332 431Q307 436 281
436Q189 436 149 388T109 237Q109 160 129 115T196 51L332 431ZM374 37T413 85T453 237Q453 308 435 352T376 417L241 39Q265 37 281 37Q374 37 413 85Z" />
<glyph unicode="&#xf9;" glyph-name="ugrave" horiz-adv-x="559" d="M187 680H239L306 522H261L187 680ZM158 -10T114 37T70 174V474H125V172Q125 103 159 69T266 35Q314 35 355 53T429 104V474H484V0H435L430 58Q392 25 347 8T243 -10Q158 -10 114 37Z" />
<glyph unicode="&#xfa;" glyph-name="uacute" horiz-adv-x="559" d="M309 680H361L287 522H242L309 680ZM158 -10T114 37T70 174V474H125V172Q125 103 159 69T266 35Q314 35 355 53T429 104V474H484V0H435L430 58Q392 25 347 8T243 -10Q158 -10 114 37Z" />
<glyph unicode="&#xfb;" glyph-name="ucircumflex" horiz-adv-x="559" d="M252 656H300L405 521H355L276 624L197 521H147L252 656ZM158 -10T114 37T70 174V474H125V172Q125 103 159 69T266 35Q314 35 355 53T429 104V474H484V0H435L430 58Q392 25 347 8T243 -10Q158
-10 114 37Z" />
<glyph unicode="&#xfc;" glyph-name="udieresis" horiz-adv-x="559" d="M162 601H219V546H162V601ZM329 601H385V546H329V601ZM158 -10T114 37T70 174V474H125V172Q125 103 159 69T266 35Q314 35 355 53T429 104V474H484V0H435L430 58Q392 25 347 8T243 -10Q158
-10 114 37Z" />
<glyph unicode="&#xfd;" glyph-name="yacute" horiz-adv-x="566" d="M325 680H377L303 522H258L325 680ZM103 -176T74 -165V-119Q101 -129 135 -129Q168 -129 189 -115T224 -75T262 3L55 474H112L290 62L475 474H531L326 15Q296 -53 275 -91T222 -152T146 -176Q103
-176 74 -165Z" />
<glyph unicode="&#xfe;" glyph-name="thorn" horiz-adv-x="564" d="M75 700H130V428Q198 484 297 484Q509 484 509 238Q509 112 453 51T293 -10Q243 -10 204 1T130 39V-216H75V700ZM368 35T411 84T455 238Q455 341 415 389T284 438Q190 438 130 374V88Q191 35
279 35Q368 35 411 84Z" />
<glyph unicode="&#xff;" glyph-name="ydieresis" horiz-adv-x="566" d="M184 606H241V551H184V606ZM351 606H407V551H351V606ZM103 -176T74 -165V-119Q101 -129 135 -129Q168 -129 189 -115T224 -75T262 3L55 474H112L290 62L475 474H531L326 15Q296 -53 275 -91T222
-152T146 -176Q103 -176 74 -165Z" />
<glyph unicode="&#x2013;" glyph-name="endash" horiz-adv-x="591" d="M55 280H536V235H55V280Z" />
<glyph unicode="&#x2014;" glyph-name="emdash" horiz-adv-x="893" d="M55 280H838V235H55V280Z" />
<glyph unicode="&#x2018;" glyph-name="quoteleft" horiz-adv-x="210" d="M113 654H155L109 483H55L113 654Z" />
<glyph unicode="&#x2019;" glyph-name="quoteright" horiz-adv-x="210" d="M101 654H155L97 483H55L101 654Z" />
<glyph unicode="&#x201a;" glyph-name="quotesinglbase" horiz-adv-x="210" d="M101 33H155L97 -138H55L101 33Z" />
<glyph unicode="&#x201c;" glyph-name="quotedblleft" horiz-adv-x="333" d="M113 654H152L106 483H55L113 654ZM239 654H278L232 483H181L239 654Z" />
<glyph unicode="&#x201d;" glyph-name="quotedblright" horiz-adv-x="333" d="M101 654H152L94 483H55L101 654ZM227 654H278L220 483H181L227 654Z" />
<glyph unicode="&#x201e;" glyph-name="quotedblbase" horiz-adv-x="333" d="M101 48H152L94 -123H55L101 48ZM227 48H278L220 -123H181L227 48Z" />
<glyph unicode="&#x2022;" glyph-name="bullet" horiz-adv-x="341" d="M122 172T89 205T55 287Q55 335 88 369T170 403Q218 403 252 369T286 287Q286 239 252 206T170 172Q122 172 89 205Z" />
<glyph unicode="&#x2039;" glyph-name="guilsinglleft" horiz-adv-x="383" d="M55 271V303L305 487L328 453L106 287L328 121L305 87L55 271Z" />
<glyph unicode="&#x203a;" glyph-name="guilsinglright" horiz-adv-x="383" d="M55 121L277 287L55 453L78 487L328 303V271L78 87L55 121Z" />
</font>
</defs>
</svg>
