<?xml version="1.0" standalone="no"?>
<!DOCTYPE svg PUBLIC "-//W3C//DTD SVG 1.1//EN" "http://www.w3.org/Graphics/SVG/1.1/DTD/svg11.dtd">
<svg xmlns="http://www.w3.org/2000/svg">
<defs >
<font id="BubblerOne" horiz-adv-x="373" ><font-face
    font-family="Bubbler One"
    units-per-em="1000"
    panose-1="2 1 5 6 2 1 0 2 0 4"
    ascent="900"
    descent="-263"
    alphabetic="0" />
<glyph unicode=" " glyph-name="space" horiz-adv-x="203" />
<glyph unicode="!" glyph-name="exclam" horiz-adv-x="199" d="M81 66H119V0H81V66ZM118 200H81V750H118V200Z" />
<glyph unicode="&quot;" glyph-name="quotedbl" horiz-adv-x="280" d="M51 564L46 700H84L78 564H51ZM201 564L196 700H234L228 564H201Z" />
<glyph unicode="#" glyph-name="numbersign" horiz-adv-x="643" d="M172 201L84 0H42L130 201H34V238H146L239 451H128V488H256L349 700H390L297 488H472L565 700H606L513 488H609V451H497L404 238H515V201H388L300 0H258L346 201H172ZM281 451L188 238H362L455 451H281Z" />
<glyph unicode="$" glyph-name="dollar" horiz-adv-x="424" d="M240 -90H203V11Q143 -2 73 -2H48V35Q138 35 203 53V353Q95 392 70 420Q36 459 36 509V514Q36 592 86 643T203 699V790H240V699Q302 697 374 686V650Q309 660 240 663V385Q349 342 376 270Q388 239
388 197Q388 70 240 21V-90ZM113 442Q142 422 203 399V662Q149 656 111 617T72 523T113 442ZM351 195V205Q351 257 322 287T240 339V64Q351 106 351 195Z" />
<glyph unicode="%" glyph-name="percent" horiz-adv-x="644" d="M180 0H143L462 500H499L180 0ZM301 308T263 270T168 231T72 270T33 366T72 461T167 499T262 461T301 366ZM264 409T237 435T168 462T98 435T70 368T97 298T168 268T237 297T264 367ZM611 78T573
40T478 1T382 40T343 136T382 231T477 269T572 231T611 136ZM574 179T547 205T478 232T408 205T380 138T407 68T478 38T547 67T574 137Z" />
<glyph unicode="&amp;" glyph-name="ampersand" horiz-adv-x="506" d="M447 299H484Q435 179 397 117L473 0H431L375 85Q314 0 239 0Q146 0 92 64T37 203T75 334T169 403Q118 486 118 547T156 648T256 689Q300 689 333 657T367 569H330Q328 608 305 628T249 648T187
625T158 558Q158 492 231 377L376 150Q406 200 447 299ZM145 362T109 318T73 211T121 93T233 37T355 117L192 367Q145 362 109 318Z" />
<glyph unicode="&apos;" glyph-name="quotesingle" horiz-adv-x="130" d="M51 564L46 700H84L78 564H51Z" />
<glyph unicode="(" glyph-name="parenleft" horiz-adv-x="309" d="M297 -97H251Q38 91 38 309Q38 564 292 727V690Q76 535 76 308Q76 94 297 -97Z" />
<glyph unicode=")" glyph-name="parenright" horiz-adv-x="309" d="M58 -97H12Q233 94 233 308Q233 535 17 690V727Q271 564 271 309Q271 91 58 -97Z" />
<glyph unicode="*" glyph-name="asterisk" horiz-adv-x="485" d="M217 450L54 601H105L225 490V650H262V492L380 601H431L268 450L431 300H380L262 409V250H225V411L105 300H54L217 450Z" />
<glyph unicode="+" glyph-name="plus" horiz-adv-x="427" d="M393 323H233V159H196V323H35V360H196V517H233V360H393V323Z" />
<glyph unicode="," glyph-name="comma" horiz-adv-x="192" d="M150 98L41 -111H-9L75 98H150Z" />
<glyph unicode="-" glyph-name="hyphen" horiz-adv-x="334" d="M287 257H47V294H287V257Z" />
<glyph unicode="." glyph-name="period" horiz-adv-x="181" d="M129 0H52V95H129V0Z" />
<glyph unicode="/" glyph-name="slash" horiz-adv-x="558" d="M536 700L59 -122H22L499 700H536Z" />
<glyph unicode="0" glyph-name="zero" horiz-adv-x="551" d="M499 344Q499 179 443 91T281 2T113 92T51 347T111 601T282 690Q499 690 499 344ZM462 499T416 575T280 651T140 575T88 347Q88 169 169 86Q214 40 272 40T367 66T424 137Q462 222 462 360Z" />
<glyph unicode="1" glyph-name="one" horiz-adv-x="283" d="M207 0H169V644L19 576V613L207 700V0Z" />
<glyph unicode="2" glyph-name="two" horiz-adv-x="437" d="M17 0L284 370Q306 401 317 418T341 464T353 518Q353 587 309 625T207 663T51 600V636Q139 700 214 700T339 650T389 522T335 370L95 37H397V0H17Z" />
<glyph unicode="3" glyph-name="three" horiz-adv-x="445" d="M27 99L75 100Q125 36 197 36T315 88T361 207T314 319T198 366Q180 366 171 364V410Q184 406 203 406Q258 406 296 445T335 537T295 628T196 667T95 612H49Q70 654 111 679T202 704Q274 704 323 656T372
535Q372 437 290 388Q341 363 369 315T398 205Q398 117 341 58T199 -1Q143 -1 98 26T27 99Z" />
<glyph unicode="4" glyph-name="four" horiz-adv-x="447" d="M349 0H312V160H19V197L349 700V197H421V160H349V0ZM312 575L61 197H312V575Z" />
<glyph unicode="5" glyph-name="five" horiz-adv-x="470" d="M67 339V700H395V663H101V422Q151 458 212 458Q321 458 377 396T434 242T375 76T221 1Q154 1 102 39T46 136H83Q87 98 126 70T226 41Q302 41 348 101T395 238T348 368T211 421Q166 421 127 398T67 339Z" />
<glyph unicode="6" glyph-name="six" horiz-adv-x="496" d="M60 226L61 338V454Q61 510 76 554T112 625T162 670Q209 700 252 700Q351 700 428 644L426 607Q393 630 344 646T258 663Q194 663 146 605T98 453V324Q123 363 165 385T259 408Q344 408 401 349T458
202Q458 155 442 118T402 60T348 24Q297 1 255 1Q173 1 117 54T60 202V226ZM97 134T144 88T258 41T373 88T421 200T374 318T258 371T143 319T97 200Z" />
<glyph unicode="7" glyph-name="seven" horiz-adv-x="377" d="M17 663V700H367L123 3H86L317 663H17Z" />
<glyph unicode="8" glyph-name="eight" horiz-adv-x="491" d="M330 -1T245 -1T103 58T46 205Q46 266 75 315T156 389Q120 411 99 450T77 535Q77 607 127 655T248 704T369 656T418 535Q418 437 336 388Q387 363 415 315T444 205Q444 117 387 58ZM407 273T360 319T246
366T131 319T83 207T130 89T246 36T361 88T407 207ZM381 589T341 628T248 667T155 628T114 538T154 447T249 406T342 445T381 537Z" />
<glyph unicode="9" glyph-name="nine" horiz-adv-x="496" d="M436 475L435 364V247Q435 191 420 147T384 76T334 32Q287 1 244 1Q145 1 68 57L70 94Q103 71 152 55T238 38Q302 38 350 96T398 248V377Q373 338 331 316T237 293Q152 293 95 352T38 499Q38 546 54
583T94 641T148 676Q199 700 241 700Q323 700 379 647T436 499V475ZM399 567T352 613T238 660T123 613T75 501T122 383T238 330T353 382T399 501Z" />
<glyph unicode=":" glyph-name="colon" horiz-adv-x="193" d="M135 0H58V95H135V0ZM135 410H58V505H135V410Z" />
<glyph unicode=";" glyph-name="semicolon" horiz-adv-x="222" d="M160 416H83V511H160V416ZM160 98L51 -111H1L85 98H160Z" />
<glyph unicode="&lt;" glyph-name="less" horiz-adv-x="498" d="M371 146L29 300L369 455H444L98 300L446 146H371Z" />
<glyph unicode="=" glyph-name="equal" horiz-adv-x="581" d="M518 395H63V432H518V395ZM518 208H63V245H518V208Z" />
<glyph unicode="&gt;" glyph-name="greater" horiz-adv-x="498" d="M469 300L127 146H52L400 300L54 455H129L469 300Z" />
<glyph unicode="?" glyph-name="question" horiz-adv-x="452" d="M224 170H187V300Q262 305 318 357T375 486T330 612T218 660T112 632T68 565H31Q34 623 86 661T206 700Q225 700 260 694T317 674T363 639Q412 594 412 494T359 337T224 266V170ZM184 66H222V0H184V66Z" />
<glyph unicode="@" glyph-name="at" horiz-adv-x="745" d="M471 459H505V45Q505 43 522 49T564 71T613 114T655 190T673 302Q673 430 598 509T393 589Q269 589 180 507Q136 467 110 402T84 256Q84 93 189 3T450 -89V-126Q351 -126 273 -94T146 -8Q47 103 47 263Q47
351 76 422T154 536Q255 626 385 626Q465 626 526 601T620 539T676 456Q710 381 710 303Q710 176 643 90T451 4T258 66T190 248Q190 310 207 356T250 425Q298 469 344 469Q412 469 471 405V459ZM224 247Q224 132 288 84T471 36V360Q405 436 350 436T259 386T224
247Z" />
<glyph unicode="A" glyph-name="A" horiz-adv-x="502" d="M428 648V0H391V330H107V0H70V458Q70 566 139 635T312 704Q388 704 428 648ZM391 367V634Q359 667 310 667Q222 667 165 603T107 457V367H391Z" />
<glyph unicode="B" glyph-name="B" horiz-adv-x="471" d="M76 -3L75 700Q230 695 309 658T388 546T346 435T244 391Q323 384 378 336T434 196T343 51T76 -3ZM397 253T368 288T290 338Q208 365 113 365V35Q194 36 253 53T342 98Q397 149 397 201ZM351 546Q351 602
287 632T112 662V408Q351 411 351 546Z" />
<glyph unicode="C" glyph-name="C" horiz-adv-x="431" d="M407 545L370 546Q361 600 326 631T246 663Q172 663 129 588T86 414Q86 139 228 70Q296 36 407 36V-1Q262 -1 191 42Q163 59 135 90T88 164Q49 261 49 415Q49 488 69 546T119 636Q180 700 242 700T355
650T407 545Z" />
<glyph unicode="D" glyph-name="D" horiz-adv-x="482" d="M434 336Q434 262 416 201T368 101T290 40Q205 -3 76 -3V701Q213 701 292 660Q360 624 394 553Q434 471 434 336ZM397 347Q397 662 113 662V35Q275 37 339 128Q397 210 397 347Z" />
<glyph unicode="E" glyph-name="E" horiz-adv-x="479" d="M76 0V700H434V663H113V407H434V370H113V37H434V0H76Z" />
<glyph unicode="F" glyph-name="F" horiz-adv-x="472" d="M113 0H76V700H434V663H113V407H434V370H113V0Z" />
<glyph unicode="G" glyph-name="G" horiz-adv-x="465" d="M407 545L370 546Q361 600 326 631T246 663Q172 663 129 588T86 414Q86 215 154 130T370 37V312H272V349H407V-1Q262 -1 191 42Q163 59 135 90T88 164Q49 261 49 415Q49 488 69 546T119 636Q180 700 242
700T355 650T407 545Z" />
<glyph unicode="H" glyph-name="H" horiz-adv-x="510" d="M434 0H397V330H113V0H76V700H113V367H397V700H434V0Z" />
<glyph unicode="I" glyph-name="I" horiz-adv-x="189" d="M113 0H76V698H113V0Z" />
<glyph unicode="J" glyph-name="J" horiz-adv-x="402" d="M18 150H55Q57 74 93 50Q120 33 146 33Q217 33 255 81T293 243V700H330V242Q330 -4 144 -4Q106 -4 66 22Q45 37 32 70T18 150Z" />
<glyph unicode="K" glyph-name="K" horiz-adv-x="467" d="M433 0H396V68Q396 378 244 378Q212 378 183 362T143 333T113 296V0H76V700H113V355L383 701H434L202 409Q226 415 249 415Q334 415 383 333T433 80V0Z" />
<glyph unicode="L" glyph-name="L" horiz-adv-x="436" d="M424 0H76V700H113V37H424V0Z" />
<glyph unicode="M" glyph-name="M" horiz-adv-x="590" d="M477 0L479 642L312 259H278L111 642V0H76V701H124L295 309L465 701H514V0H477Z" />
<glyph unicode="N" glyph-name="N" horiz-adv-x="510" d="M113 637V0H76V701H129L397 85V700H434V0H397L113 637Z" />
<glyph unicode="O" glyph-name="O" horiz-adv-x="547" d="M497 344Q497 179 441 90T279 0T111 90T49 347T110 609T280 705Q345 705 390 672T458 581Q497 476 497 344ZM460 500T413 583T278 666T138 584T86 347Q86 168 167 84Q212 38 270 38T365 64T422 136Q460
222 460 361Z" />
<glyph unicode="P" glyph-name="P" horiz-adv-x="457" d="M113 333L123 332Q397 336 397 497Q397 557 342 604Q312 630 254 646T113 663V333ZM113 296V0H76V701Q251 700 342 648T434 500Q434 388 346 344Q316 328 293 320T231 306Q182 300 113 296Z" />
<glyph unicode="Q" glyph-name="Q" horiz-adv-x="547" d="M495 -87V-124Q475 -129 457 -129Q420 -129 379 -95T315 9Q297 6 277 6Q172 6 111 94T49 348T110 609T280 705Q345 705 390 672T458 581Q497 476 497 344Q497 73 350 18Q367 -30 396 -61T463 -92Q478 -92
495 -87ZM460 501T413 584T279 668T139 585T86 347Q86 171 166 88Q211 43 278 43Q328 43 365 68T422 138Q460 223 460 362Z" />
<glyph unicode="R" glyph-name="R" horiz-adv-x="451" d="M434 0H389L195 297Q158 292 113 290V0H76V701Q411 700 411 500Q411 339 235 303L434 0ZM113 330L123 329Q374 333 374 497Q374 543 353 573T304 621Q240 661 113 663V330Z" />
<glyph unicode="S" glyph-name="S" horiz-adv-x="428" d="M307 106Q352 145 352 201T320 290T241 340T149 374T70 425T37 514Q37 608 89 654T215 700T375 686V649Q297 663 229 663T118 625T74 518Q74 458 136 428Q164 414 197 402T265 375T326 340T371 283T389
198T367 112T311 54T234 20Q163 -2 74 -2H49V35Q227 35 307 106Z" />
<glyph unicode="T" glyph-name="T" horiz-adv-x="384" d="M210 0H173V663H13V700H371V663H210V0Z" />
<glyph unicode="U" glyph-name="U" horiz-adv-x="501" d="M429 127T383 63T248 -2T115 69T71 242V700H108V243Q108 141 149 88T250 35T351 87T392 243V700H429V242Q429 127 383 63Z" />
<glyph unicode="V" glyph-name="V" horiz-adv-x="411" d="M180 0L29 700H66L205 60L344 700H381L232 0H180Z" />
<glyph unicode="W" glyph-name="W" horiz-adv-x="577" d="M179 60L270 700H307L398 60L510 700H547L426 0H369L288 544L208 0H151L30 700H67L179 60Z" />
<glyph unicode="X" glyph-name="X" horiz-adv-x="535" d="M505 700L293 348V305Q293 111 340 60Q362 37 396 37Q456 37 519 104V56Q460 0 390 0Q301 0 275 116Q260 182 256 292L65 0H22L251 356V397Q251 539 225 600Q214 626 193 645T141 664Q83 664 20 597V645Q80
701 151 701T253 630T289 414L468 700H505Z" />
<glyph unicode="Y" glyph-name="Y" horiz-adv-x="477" d="M78 100L118 99Q153 35 218 35T326 87T368 243V329Q320 255 228 255T91 326T47 499V700H84V500Q84 397 124 345T219 292T314 325T368 423V700H405V242Q405 128 358 63T217 -2T78 100Z" />
<glyph unicode="Z" glyph-name="Z" horiz-adv-x="385" d="M43 663V700H357L67 37H368V0H10L301 663H43Z" />
<glyph unicode="[" glyph-name="bracketleft" horiz-adv-x="333" d="M309 -100H76V700H309V663H113V-63H309V-100Z" />
<glyph unicode="\" glyph-name="backslash" horiz-adv-x="567" d="M500 -100L23 700H67L544 -100H500Z" />
<glyph unicode="]" glyph-name="bracketright" horiz-adv-x="333" d="M257 -100H24V-63H220V663H24V700H257V-100Z" />
<glyph unicode="^" glyph-name="asciicircum" horiz-adv-x="328" d="M245 536L158 635L71 536H42L158 692L274 536H245Z" />
<glyph unicode="_" glyph-name="underscore" horiz-adv-x="708" d="M587 -100H121V-63H587V-100Z" />
<glyph unicode="`" glyph-name="grave" horiz-adv-x="833" d="M426 564L312 685L349 700L455 564H426Z" />
<glyph unicode="a" glyph-name="a" horiz-adv-x="460" d="M353 500H390V-1Q330 -1 285 4T192 25T112 70T61 147T41 259T53 365T85 436T129 480Q171 511 212 511Q287 511 353 440V500ZM78 264Q78 133 159 82Q231 37 353 37V390Q319 429 288 451T218 474Q155 474
117 419T78 264Z" />
<glyph unicode="b" glyph-name="b" horiz-adv-x="460" d="M70 750H107V440Q171 511 243 511Q298 511 353 462Q382 437 400 386T419 267T399 148T348 70T269 26T175 4T70 -1V750ZM382 258Q382 360 343 417T242 474T107 390V37Q382 37 382 258Z" />
<glyph unicode="c" glyph-name="c" horiz-adv-x="416" d="M390 399L352 400Q336 433 298 453T218 473Q150 473 114 413T78 264Q78 135 154 86T391 36V-1Q331 -1 286 4T192 25T112 70T61 147T41 265T59 385T106 462Q161 510 219 510T325 480T390 399Z" />
<glyph unicode="d" glyph-name="d" horiz-adv-x="460" d="M353 750H390V-1Q330 -1 285 4T192 25T112 70T61 147T41 259T53 365T85 436T129 480Q171 511 212 511Q287 511 353 440V750ZM159 474T119 411T78 274T99 153T159 82Q231 37 353 37V390Q319 429 288 451T218
474Q159 474 119 411Z" />
<glyph unicode="e" glyph-name="e" horiz-adv-x="433" d="M393 36V-1Q333 -1 288 4T193 25T113 70T61 147T40 265T58 385T106 462Q160 510 211 510Q296 510 343 460T391 328Q391 273 390 264H77Q77 135 154 86T393 36ZM354 301V323Q354 389 317 431T218 473T121
425T78 301H354Z" />
<glyph unicode="f" glyph-name="f" horiz-adv-x="228" d="M212 500V463H116V0H79V463H39V500H79V505Q79 574 96 625T140 702Q190 751 240 751Q265 751 273 750V713Q267 714 246 714Q188 714 152 652T116 504V500H212Z" />
<glyph unicode="g" glyph-name="g" horiz-adv-x="460" d="M353 500H390V-17Q390 -86 373 -137T330 -214Q279 -263 229 -263Q162 -263 103 -207V-159Q166 -226 228 -226T321 -167T353 -16V0Q174 7 103 78Q41 142 41 265Q41 416 129 480Q171 511 212 511Q287 511
353 440V500ZM159 474T119 411T78 274T99 153T159 82Q231 37 353 37V390Q319 429 288 451T218 474Q159 474 119 411Z" />
<glyph unicode="h" glyph-name="h" horiz-adv-x="482" d="M381 0L382 264Q382 348 342 411T242 474Q204 474 173 452T107 390V0H70V750H107V440Q173 511 248 511Q289 511 331 480Q419 416 419 265L418 0H381Z" />
<glyph unicode="i" glyph-name="i" horiz-adv-x="177" d="M107 0H70V500H107V0ZM72 665H109V579H72V665Z" />
<glyph unicode="j" glyph-name="j" horiz-adv-x="177" d="M71 666H108V579H71V666ZM70 -12V500H107V-13Q107 -82 90 -133T46 -210Q-4 -259 -54 -259Q-120 -259 -180 -203V-155Q-117 -222 -60 -222T34 -160T70 -12Z" />
<glyph unicode="k" glyph-name="k" horiz-adv-x="460" d="M429 0H392V68Q392 151 356 210T267 270T165 226L107 165V0H70V750H107V219L378 501H429L241 304Q253 307 271 307T315 296T367 260T411 188T429 80V0Z" />
<glyph unicode="l" glyph-name="l" horiz-adv-x="185" d="M111 0H74V749H111V0Z" />
<glyph unicode="m" glyph-name="m" horiz-adv-x="774" d="M371 0L372 264Q372 348 335 410T239 473T107 390V0H70V500H107V440Q172 510 248 510Q279 510 315 488T377 419Q448 510 540 510Q591 510 646 462Q674 436 692 385T711 265L710 0H673L674 264Q674 348
634 410T534 473Q495 473 456 446T391 384Q409 332 409 265L408 0H371Z" />
<glyph unicode="n" glyph-name="n" horiz-adv-x="482" d="M381 0L382 264Q382 348 342 410T241 473T107 390V0H70V500H107V440Q172 510 248 510Q299 510 354 462Q382 436 400 385T419 265L418 0H381Z" />
<glyph unicode="o" glyph-name="o" horiz-adv-x="451" d="M410 269Q410 201 397 150T365 70T318 25Q250 -19 169 7Q141 16 110 39T60 114T41 239Q41 359 89 434T227 510T363 439T410 269ZM214 35L226 34L237 35Q373 48 373 264Q373 353 337 413T222 473Q171 473
137 438Q78 376 78 245V237Q78 154 112 98T214 35Z" />
<glyph unicode="p" glyph-name="p" horiz-adv-x="460" d="M107 -250H70V500H107V440Q173 511 248 511Q289 511 331 480Q419 416 419 265Q419 87 286 32Q218 4 107 0V-250ZM361 153Q382 199 382 273T342 411T242 474Q204 474 173 452T107 390V37Q308 37 361 153Z" />
<glyph unicode="q" glyph-name="q" horiz-adv-x="460" d="M390 -250H353V0Q174 7 103 78Q41 142 41 265Q41 416 129 480Q171 511 212 511Q287 511 353 440V500H390V-250ZM159 474T119 411T78 274T99 153T159 82Q231 37 353 37V390Q319 429 288 451T218 474Q159
474 119 411Z" />
<glyph unicode="r" glyph-name="r" horiz-adv-x="369" d="M107 0H70V500H107V427Q128 452 171 480T254 509T323 487T354 413H317Q317 441 299 457T250 473T175 443T107 377V0Z" />
<glyph unicode="s" glyph-name="s" horiz-adv-x="413" d="M295 67T318 92T342 159T310 226T233 257T142 272T64 310T32 394Q32 510 212 510Q278 510 365 496V457Q275 473 214 473T111 456T68 397T100 333T177 302T269 282T347 239T379 147Q379 74 322 42Q294 26
268 17T199 4Q131 -2 69 -2H44V35Q174 35 234 51Z" />
<glyph unicode="t" glyph-name="t" horiz-adv-x="286" d="M124 463H9V500H124V665H161V500H277V463H161V0H124V463Z" />
<glyph unicode="u" glyph-name="u" horiz-adv-x="481" d="M100 500L99 236Q99 152 139 90T240 27T374 110V500H411V0H374V60Q309 -10 233 -10Q182 -10 128 38Q99 64 81 115T62 235L63 500H100Z" />
<glyph unicode="v" glyph-name="v" horiz-adv-x="420" d="M195 0L11 500H48L213 60L372 500H409L232 0H195Z" />
<glyph unicode="w" glyph-name="w" horiz-adv-x="667" d="M168 0L14 500H51L186 60L315 500H352L487 60L616 500H653L506 0H469L334 438L205 0H168Z" />
<glyph unicode="x" glyph-name="x" horiz-adv-x="579" d="M272 206L73 0H21L271 257V264Q271 350 235 412T142 474T21 407V455Q80 511 147 511Q192 511 242 468Q267 445 285 400T307 295L507 501H558L308 242Q309 158 344 98T437 37T558 104V56Q498 0 432 0Q387
0 339 42Q314 63 296 105T272 206Z" />
<glyph unicode="y" glyph-name="y" horiz-adv-x="477" d="M370 500H407V-13Q407 -82 390 -133T346 -210Q296 -259 246 -259Q180 -259 120 -203V-155Q183 -222 240 -222T334 -160T370 -12V4Q191 11 120 82Q58 146 58 269Q58 490 59 500H96Q95 491 95 268Q95 137
176 86Q248 41 370 41V500Z" />
<glyph unicode="z" glyph-name="z" horiz-adv-x="423" d="M19 0V37L348 463H42V500H396V463L66 37H396V0H19Z" />
<glyph unicode="{" glyph-name="braceleft" horiz-adv-x="342" d="M150 170L138 31Q138 -13 164 -38T241 -63H318V-100H244Q101 -100 101 32Q101 55 107 100T113 171Q113 276 13 281L12 318Q113 323 113 428Q113 452 107 497T101 566Q101 700 244 700H318V663H242Q193
663 166 637T138 567L150 429Q150 370 128 341T58 299Q105 287 127 259T150 170Z" />
<glyph unicode="|" glyph-name="bar" horiz-adv-x="185" d="M111 -191H74V716H111V-191Z" />
<glyph unicode="}" glyph-name="braceright" horiz-adv-x="342" d="M192 429L204 567Q204 611 177 637T100 663H24V700H98Q241 700 241 566Q241 543 235 498T229 428Q229 323 330 318L329 281Q229 276 229 171Q229 146 235 101T241 32Q241 -100 98 -100H24V-63H101Q152
-63 178 -38T204 31L192 170Q192 230 214 258T284 299Q237 311 215 340T192 429Z" />
<glyph unicode="~" glyph-name="asciitilde" horiz-adv-x="369" d="M315 300V263Q293 231 261 231T188 252T121 274Q79 274 55 242V278Q62 291 81 299T124 308T189 287T255 265Q295 265 315 300Z" />
<glyph unicode="&#xa1;" glyph-name="exclamdown" horiz-adv-x="199" d="M119 684H81V750H119V684ZM81 550H118V0H81V550Z" />
<glyph unicode="&#xa2;" glyph-name="cent" horiz-adv-x="440" d="M256 0H219V108Q47 156 47 355Q47 411 60 455T92 526T136 570Q178 600 219 600V690H256V597Q307 589 344 561T396 489H358Q329 545 256 560V137Q311 126 397 126V89Q316 89 256 100V0ZM84 354Q84
189 219 147V563Q153 560 119 501T84 354Z" />
<glyph unicode="&#xa3;" glyph-name="sterling" horiz-adv-x="334" d="M295 750V713Q289 714 268 714Q210 714 174 652T138 504V500H234V463H138V187Q138 127 125 80Q139 76 174 58T234 40Q274 40 294 75V38Q272 6 240 6T167 27T100 49Q58 49 34 17V53Q45 75 84
81Q101 130 101 188V463H61V500H101V505Q101 574 118 625T162 702Q212 751 262 751Q287 751 295 750Z" />
<glyph unicode="&#xa4;" glyph-name="currency" horiz-adv-x="568" d="M534 500L432 387Q484 332 484 252T432 113L534 1H483L404 88Q351 49 284 49T163 87L85 1H34L135 113Q82 169 82 250T135 388L34 500H85L163 413Q217 451 284 451T404 412L483 500H534ZM447
322T400 368T283 414T167 368T119 255T166 137T284 86T401 136T447 254Z" />
<glyph unicode="&#xa5;" glyph-name="yen" horiz-adv-x="551" d="M504 198H295V152H504V115H295V-4H258V115H49V152H258V198H49V235H258V316Q178 323 122 388T66 559V700H103V560Q103 460 155 408T274 356T392 408T445 560V700H482V559Q482 455 429 390T295 317V235H504V198Z"
/>
<glyph unicode="&#xa6;" glyph-name="brokenbar" horiz-adv-x="191" d="M114 365H77V716H114V365ZM77 160H114V-191H77V160Z" />
<glyph unicode="&#xa7;" glyph-name="section" horiz-adv-x="444" d="M397 -3Q397 -51 375 -88T319 -146T242 -180Q171 -202 82 -202H57V-165Q234 -165 315 -98Q360 -60 360 -5T328 83T249 130T157 159T78 205T45 289Q45 362 98 408Q45 443 45 509Q45 595 99 647T225
700T383 686V650Q310 663 240 663T125 625T81 518Q81 481 104 458T163 424T239 400T315 368T373 313T397 228T386 161T352 120Q397 75 397 -3ZM131 390Q113 375 104 366Q81 343 81 302T106 237T164 203Q286 166 320 145Q342 162 351 176T360 222T346 279T305 322T253
348T190 369T131 390Z" />
<glyph unicode="&#xa8;" glyph-name="dieresis" horiz-adv-x="496" d="M140 630H178V564H140V630ZM310 630H348V564H310V630Z" />
<glyph unicode="&#xa9;" glyph-name="copyright" horiz-adv-x="512" d="M347 267T256 267T102 330T39 485T102 639T256 701T410 640T473 486T410 330ZM436 568T387 616T257 664T126 616T76 489T125 358T258 304T389 356T436 488ZM351 548L315 549Q298 580 254
580T194 557T178 497T184 441T200 413T230 398Q260 392 322 392H352V358H327Q208 358 178 386Q142 419 142 488Q142 615 245 615Q284 615 312 597T351 548Z" />
<glyph unicode="&#xaa;" glyph-name="ordfeminine" horiz-adv-x="313" d="M220 692H257V401Q171 401 108 429Q38 461 38 545T72 664T140 699Q190 699 220 666V692ZM116 662T96 635T75 562T90 493T130 458Q172 439 220 439V626Q188 662 144 662Q116 662 96 635Z" />
<glyph unicode="&#xab;" glyph-name="guillemotleft" horiz-adv-x="444" d="M195 0L27 252L193 500H230L64 252L232 0H195ZM375 0L207 252L373 500H410L244 252L412 0H375Z" />
<glyph unicode="&#xac;" glyph-name="logicalnot" horiz-adv-x="642" d="M58 401H577V203H540V364H58V401Z" />
<glyph unicode="&#xad;" glyph-name="uni00AD" horiz-adv-x="437" d="M385 259H52V296H385V259Z" />
<glyph unicode="&#xae;" glyph-name="registered" horiz-adv-x="520" d="M351 263T260 263T104 328T39 485T104 641T260 705T416 642T481 486T416 328ZM444 568T393 618T261 668T128 618T76 489T127 356T262 300T395 354T444 488ZM359 340H318L245 467H234V340H196V641Q276
640 311 622T347 560Q347 487 283 473L359 340ZM312 559Q312 604 234 606V502Q312 502 312 559Z" />
<glyph unicode="&#xb0;" glyph-name="degree" horiz-adv-x="340" d="M226 431T170 431T75 470T36 566T75 661T170 699T265 661T304 566T265 470ZM267 609T240 635T171 662T101 635T73 568T100 498T171 468T240 497T267 567Z" />
<glyph unicode="&#xb1;" glyph-name="plusminus" horiz-adv-x="466" d="M412 323H252V159H215V323H54V360H215V517H252V360H412V323ZM412 0H54V37H412V0Z" />
<glyph unicode="&#xb2;" glyph-name="twosuperior" horiz-adv-x="324" d="M28 299L198 506Q198 506 206 518Q212 527 214 530T222 542T229 555T235 568Q240 580 240 595Q240 667 155 667Q122 667 63 629V666Q120 704 163 704T241 673T276 594T244 506L107 336H271V299H28Z"
/>
<glyph unicode="&#xb3;" glyph-name="threesuperior" horiz-adv-x="295" d="M32 342L76 343Q94 319 133 319T195 344T218 408T197 469T135 492Q124 492 119 491V539Q128 536 138 536Q169 536 185 556T202 604T185 650T138 668T89 650H45Q58 675 82 690T144 705T210
676T239 604Q239 545 190 515Q221 501 238 472T255 398T221 318T135 282Q66 282 32 342Z" />
<glyph unicode="&#xb4;" glyph-name="acute" horiz-adv-x="662" d="M535 685L421 564H392L498 700L535 685Z" />
<glyph unicode="&#xb5;" glyph-name="mu" horiz-adv-x="407" d="M104 -191H67V500H104V92Q104 65 122 49T172 32T247 62T315 128V500H352V0H315V78Q294 53 251 25T169 -4T104 14V-191Z" />
<glyph unicode="&#xb6;" glyph-name="paragraph" horiz-adv-x="518" d="M415 0H378V663H273V0H236V290Q208 293 189 296T138 313T86 347T51 407T35 500Q35 700 273 700H486V663H415V0Z" />
<glyph unicode="&#xb7;" glyph-name="middot" horiz-adv-x="154" d="M58 336H96V270H58V336Z" />
<glyph unicode="&#xb8;" glyph-name="cedilla" horiz-adv-x="361" d="M122 0H163Q165 -25 178 -38T208 -55T242 -65Q280 -77 280 -133Q280 -221 142 -221Q119 -221 108 -220L106 -187Q116 -188 137 -188Q247 -188 247 -133Q247 -93 185 -84Q162 -80 142 -60T122 0Z" />
<glyph unicode="&#xb9;" glyph-name="onesuperior" horiz-adv-x="222" d="M162 299H125V643L23 599V637L162 700V299Z" />
<glyph unicode="&#xba;" glyph-name="ordmasculine" horiz-adv-x="340" d="M226 431T170 431T75 470T36 566T75 661T170 699T265 661T304 566T265 470ZM267 609T240 635T171 662T101 635T73 568T100 498T171 468T240 497T267 567Z" />
<glyph unicode="&#xbb;" glyph-name="guillemotright" horiz-adv-x="444" d="M417 252L249 0H212L380 252L214 500H251L417 252ZM237 252L69 0H32L200 252L34 500H71L237 252Z" />
<glyph unicode="&#xbc;" glyph-name="onequarter" horiz-adv-x="716" d="M589 0H552V96H391V133L589 420V133H633V96H589V0ZM689 700L75 0H31L642 700H689ZM202 299H165V643L63 599V637L202 700V299ZM552 300L436 133H552V300Z" />
<glyph unicode="&#xbd;" glyph-name="onehalf" horiz-adv-x="748" d="M687 700L73 0H29L640 700H687ZM200 299H163V643L61 599V637L200 700V299ZM452 -1L622 206Q622 206 630 218Q636 227 638 230T646 242T653 255T659 268Q664 280 664 295Q664 367 579 367Q546
367 487 329V366Q544 404 587 404T665 373T700 294T668 206L531 36H695V-1H452Z" />
<glyph unicode="&#xbe;" glyph-name="threequarters" horiz-adv-x="751" d="M624 0H587V96H426V133L624 420V133H668V96H624V0ZM724 700L110 0H66L677 700H724ZM42 342L86 343Q104 319 143 319T205 344T228 408T207 469T145 492Q134 492 129 491V539Q138 536 148
536Q179 536 195 556T212 604T195 650T148 668T99 650H55Q68 675 92 690T154 705T220 676T249 604Q249 545 200 515Q231 501 248 472T265 398T231 318T145 282Q76 282 42 342ZM587 300L471 133H587V300Z" />
<glyph unicode="&#xbf;" glyph-name="questiondown" horiz-adv-x="452" d="M228 530H265V400Q190 395 134 343T77 214T122 88T234 40T340 68T384 135H421Q418 77 366 39T246 0Q227 0 192 6T135 26T89 61Q40 106 40 206T93 363T228 434V530ZM268 634H230V700H268V634Z" />
<glyph unicode="&#xc0;" glyph-name="Agrave" horiz-adv-x="502" d="M428 648V0H391V330H107V0H70V458Q70 566 139 635T312 704Q388 704 428 648ZM391 367V634Q359 667 310 667Q222 667 165 603T107 457V367H391ZM291 764L177 885L214 900L320 764H291Z" />
<glyph unicode="&#xc1;" glyph-name="Aacute" horiz-adv-x="502" d="M428 648V0H391V330H107V0H70V458Q70 566 139 635T312 704Q388 704 428 648ZM391 367V634Q359 667 310 667Q222 667 165 603T107 457V367H391ZM380 885L266 764H237L343 900L380 885Z" />
<glyph unicode="&#xc2;" glyph-name="Acircumflex" horiz-adv-x="502" d="M428 648V0H391V330H107V0H70V458Q70 566 139 635T312 704Q388 704 428 648ZM391 367V634Q359 667 310 667Q222 667 165 603T107 457V367H391ZM333 756L256 837L179 756H150L256 892L362 756H333Z" />
<glyph unicode="&#xc3;" glyph-name="Atilde" horiz-adv-x="502" d="M428 648V0H391V330H107V0H70V458Q70 566 139 635T312 704Q388 704 428 648ZM391 367V634Q359 667 310 667Q222 667 165 603T107 457V367H391ZM378 826V789Q356 757 324 757T251 778T184 800Q142
800 118 768V804Q124 817 143 825T187 834T252 813T318 791Q358 791 378 826Z" />
<glyph unicode="&#xc4;" glyph-name="Adieresis" horiz-adv-x="502" d="M428 648V0H391V330H107V0H70V458Q70 566 139 635T312 704Q388 704 428 648ZM391 367V634Q359 667 310 667Q222 667 165 603T107 457V367H391ZM150 830H188V764H150V830ZM320 830H358V764H320V830Z" />
<glyph unicode="&#xc5;" glyph-name="Aring" horiz-adv-x="502" d="M291 721T258 721T202 744T179 800T202 856T258 879T314 857T337 801T314 744ZM309 823T295 837T258 851T222 837T207 802T221 765T259 749T295 764T309 801ZM428 648V0H391V330H107V0H70V458Q70
566 139 635T312 704Q388 704 428 648ZM391 367V634Q359 667 310 667Q222 667 165 603T107 457V367H391Z" />
<glyph unicode="&#xc6;" glyph-name="AE" horiz-adv-x="643" d="M276 700H601V663H360V407H601V370H360V37H601V0H322V330H108V0H71V458Q71 562 135 631T276 700ZM322 367V662Q300 663 274 663Q213 663 161 599T108 457V367H322Z" />
<glyph unicode="&#xc7;" glyph-name="Ccedilla" horiz-adv-x="431" d="M407 545L370 546Q361 600 326 631T246 663Q172 663 129 588T86 414Q86 139 228 70Q296 36 407 36V-1Q341 -1 290 7Q295 -17 314 -28T354 -42T390 -62T406 -115Q406 -203 268 -203Q245 -203
234 -202L232 -169Q242 -170 263 -170Q373 -170 373 -115Q373 -75 311 -66Q288 -62 268 -42T248 17Q154 46 102 137T49 415Q49 488 69 546T119 636Q180 700 242 700T355 650T407 545Z" />
<glyph unicode="&#xc8;" glyph-name="Egrave" horiz-adv-x="479" d="M76 0V700H434V663H113V407H434V370H113V37H434V0H76ZM264 764L150 885L187 900L293 764H264Z" />
<glyph unicode="&#xc9;" glyph-name="Eacute" horiz-adv-x="479" d="M76 0V700H434V663H113V407H434V370H113V37H434V0H76ZM375 885L261 764H232L338 900L375 885Z" />
<glyph unicode="&#xca;" glyph-name="Ecircumflex" horiz-adv-x="479" d="M76 0V700H434V663H113V407H434V370H113V37H434V0H76ZM335 756L258 837L181 756H152L258 892L364 756H335Z" />
<glyph unicode="&#xcb;" glyph-name="Edieresis" horiz-adv-x="479" d="M76 0V700H434V663H113V407H434V370H113V37H434V0H76ZM162 830H200V764H162V830ZM332 830H370V764H332V830Z" />
<glyph unicode="&#xcc;" glyph-name="Igrave" horiz-adv-x="189" d="M113 0H76V698H113V0ZM90 764L-24 885L13 900L119 764H90Z" />
<glyph unicode="&#xcd;" glyph-name="Iacute" horiz-adv-x="189" d="M113 0H76V698H113V0ZM220 885L106 764H77L183 900L220 885Z" />
<glyph unicode="&#xce;" glyph-name="Icircumflex" horiz-adv-x="189" d="M113 0H76V698H113V0ZM166 756L89 837L12 756H-17L89 892L195 756H166Z" />
<glyph unicode="&#xcf;" glyph-name="Idieresis" horiz-adv-x="189" d="M113 0H76V698H113V0ZM-15 830H23V764H-15V830ZM155 830H193V764H155V830Z" />
<glyph unicode="&#xd0;" glyph-name="Eth" horiz-adv-x="494" d="M88 327H0V364H88V701Q225 701 304 660Q372 624 406 553Q446 471 446 344Q446 112 302 40Q217 -3 88 -3V327ZM409 347Q409 662 125 662V364H240V327H125V35Q287 37 351 128Q409 210 409 347Z" />
<glyph unicode="&#xd1;" glyph-name="Ntilde" horiz-adv-x="510" d="M113 637V0H76V701H129L397 85V700H434V0H397L113 637ZM382 826V789Q360 757 328 757T255 778T188 800Q146 800 122 768V804Q128 817 147 825T191 834T256 813T322 791Q362 791 382 826Z" />
<glyph unicode="&#xd2;" glyph-name="Ograve" horiz-adv-x="547" d="M497 344Q497 179 441 90T279 0T111 90T49 347T110 609T280 705Q345 705 390 672T458 581Q497 476 497 344ZM460 500T413 583T278 666T138 584T86 347Q86 168 167 84Q212 38 270 38T365 64T422
136Q460 222 460 361ZM274 764L160 885L197 900L303 764H274Z" />
<glyph unicode="&#xd3;" glyph-name="Oacute" horiz-adv-x="547" d="M497 344Q497 179 441 90T279 0T111 90T49 347T110 609T280 705Q345 705 390 672T458 581Q497 476 497 344ZM460 500T413 583T278 666T138 584T86 347Q86 168 167 84Q212 38 270 38T365 64T422
136Q460 222 460 361ZM399 885L285 764H256L362 900L399 885Z" />
<glyph unicode="&#xd4;" glyph-name="Ocircumflex" horiz-adv-x="547" d="M497 344Q497 179 441 90T279 0T111 90T49 347T110 609T280 705Q345 705 390 672T458 581Q497 476 497 344ZM460 500T413 583T278 666T138 584T86 347Q86 168 167 84Q212 38 270 38T365
64T422 136Q460 222 460 361ZM349 756L272 837L195 756H166L272 892L378 756H349Z" />
<glyph unicode="&#xd5;" glyph-name="Otilde" horiz-adv-x="547" d="M497 344Q497 179 441 90T279 0T111 90T49 347T110 609T280 705Q345 705 390 672T458 581Q497 476 497 344ZM460 500T413 583T278 666T138 584T86 347Q86 168 167 84Q212 38 270 38T365 64T422
136Q460 222 460 361ZM402 826V789Q380 757 348 757T275 778T208 800Q166 800 142 768V804Q148 817 167 825T211 834T276 813T342 791Q382 791 402 826Z" />
<glyph unicode="&#xd6;" glyph-name="Odieresis" horiz-adv-x="547" d="M497 344Q497 179 441 90T279 0T111 90T49 347T110 609T280 705Q345 705 390 672T458 581Q497 476 497 344ZM460 500T413 583T278 666T138 584T86 347Q86 168 167 84Q212 38 270 38T365 64T422
136Q460 222 460 361ZM168 830H206V764H168V830ZM338 830H376V764H338V830Z" />
<glyph unicode="&#xd7;" glyph-name="multiply" horiz-adv-x="469" d="M209 320L46 501H97L234 348L372 501H423L260 320L423 140H372L234 292L97 140H46L209 320Z" />
<glyph unicode="&#xd8;" glyph-name="Oslash" horiz-adv-x="567" d="M468 584Q509 493 509 336T453 90T291 0T123 89L61 0H18L104 123Q61 212 61 344Q61 514 122 609T289 705T451 617L509 700H549L468 584ZM442 546L147 124Q198 38 290 38Q340 38 377 64T434 136Q472
222 472 343T442 546ZM426 581Q379 666 291 666T150 584T98 347Q98 236 130 159L426 581Z" />
<glyph unicode="&#xd9;" glyph-name="Ugrave" horiz-adv-x="501" d="M429 127T383 63T248 -2T115 69T71 242V700H108V243Q108 141 149 88T250 35T351 87T392 243V700H429V242Q429 127 383 63ZM260 764L146 885L183 900L289 764H260Z" />
<glyph unicode="&#xda;" glyph-name="Uacute" horiz-adv-x="501" d="M429 127T383 63T248 -2T115 69T71 242V700H108V243Q108 141 149 88T250 35T351 87T392 243V700H429V242Q429 127 383 63ZM383 885L269 764H240L346 900L383 885Z" />
<glyph unicode="&#xdb;" glyph-name="Ucircumflex" horiz-adv-x="501" d="M429 127T383 63T248 -2T115 69T71 242V700H108V243Q108 141 149 88T250 35T351 87T392 243V700H429V242Q429 127 383 63ZM325 756L248 837L171 756H142L248 892L354 756H325Z" />
<glyph unicode="&#xdc;" glyph-name="Udieresis" horiz-adv-x="501" d="M429 127T383 63T248 -2T115 69T71 242V700H108V243Q108 141 149 88T250 35T351 87T392 243V700H429V242Q429 127 383 63ZM151 830H189V764H151V830ZM321 830H359V764H321V830Z" />
<glyph unicode="&#xdd;" glyph-name="Yacute" horiz-adv-x="477" d="M78 100L118 99Q153 35 218 35T326 87T368 243V329Q320 255 228 255T91 326T47 499V700H84V500Q84 397 124 345T219 292T314 325T368 423V700H405V242Q405 128 358 63T217 -2T78 100ZM346 885L232
764H203L309 900L346 885Z" />
<glyph unicode="&#xde;" glyph-name="Thorn" horiz-adv-x="473" d="M331 548T390 498T450 356T384 211T214 158H113V0H76V690H113V548H230Q331 548 390 498ZM304 195T358 237T413 354T363 470T226 511H113V195H216Q304 195 358 237Z" />
<glyph unicode="&#xdf;" glyph-name="germandbls" horiz-adv-x="468" d="M206 393L192 392V436Q229 442 266 497T304 616Q304 654 278 683T217 713Q159 713 133 659T107 481V-51H70V482Q70 686 138 730Q169 751 217 751T305 715T344 622T318 514T246 428Q333 416
382 356T432 217Q432 114 364 58T197 1V38Q285 38 338 90T391 214T342 339T206 393Z" />
<glyph unicode="&#xe0;" glyph-name="agrave" horiz-adv-x="460" d="M353 500H390V-1Q330 -1 285 4T192 25T112 70T61 147T41 259T53 365T85 436T129 480Q171 511 212 511Q287 511 353 440V500ZM78 264Q78 133 159 82Q231 37 353 37V390Q319 429 288 451T218 474Q155
474 117 419T78 264ZM230 564L116 685L153 700L259 564H230Z" />
<glyph unicode="&#xe1;" glyph-name="aacute" horiz-adv-x="460" d="M353 500H390V-1Q330 -1 285 4T192 25T112 70T61 147T41 259T53 365T85 436T129 480Q171 511 212 511Q287 511 353 440V500ZM78 264Q78 133 159 82Q231 37 353 37V390Q319 429 288 451T218 474Q155
474 117 419T78 264ZM335 685L221 564H192L298 700L335 685Z" />
<glyph unicode="&#xe2;" glyph-name="acircumflex" horiz-adv-x="460" d="M353 500H390V-1Q330 -1 285 4T192 25T112 70T61 147T41 259T53 365T85 436T129 480Q171 511 212 511Q287 511 353 440V500ZM78 264Q78 133 159 82Q231 37 353 37V390Q319 429 288 451T218
474Q155 474 117 419T78 264ZM296 556L219 637L142 556H113L219 692L325 556H296Z" />
<glyph unicode="&#xe3;" glyph-name="atilde" horiz-adv-x="460" d="M353 500H390V-1Q330 -1 285 4T192 25T112 70T61 147T41 259T53 365T85 436T129 480Q171 511 212 511Q287 511 353 440V500ZM78 264Q78 133 159 82Q231 37 353 37V390Q319 429 288 451T218 474Q155
474 117 419T78 264ZM350 626V589Q328 557 296 557T223 578T156 600Q114 600 90 568V604Q96 617 115 625T159 634T224 613T290 591Q330 591 350 626Z" />
<glyph unicode="&#xe4;" glyph-name="adieresis" horiz-adv-x="460" d="M353 500H390V-1Q330 -1 285 4T192 25T112 70T61 147T41 259T53 365T85 436T129 480Q171 511 212 511Q287 511 353 440V500ZM78 264Q78 133 159 82Q231 37 353 37V390Q319 429 288 451T218
474Q155 474 117 419T78 264ZM115 630H153V564H115V630ZM285 630H323V564H285V630Z" />
<glyph unicode="&#xe5;" glyph-name="aring" horiz-adv-x="460" d="M267 564T234 564T178 587T155 643T178 699T234 722T290 700T313 644T290 587ZM285 666T271 680T234 694T198 680T183 645T197 608T235 592T271 607T285 644ZM353 500H390V-1Q330 -1 285 4T192
25T112 70T61 147T41 259T53 365T85 436T129 480Q171 511 212 511Q287 511 353 440V500ZM78 264Q78 133 159 82Q231 37 353 37V390Q319 429 288 451T218 474Q155 474 117 419T78 264Z" />
<glyph unicode="&#xe6;" glyph-name="ae" horiz-adv-x="745" d="M705 36V-1Q591 0 512 23T390 111V-1Q330 -1 285 4T192 25T112 70T61 147T41 259T53 365T85 436T129 480Q171 511 212 511Q287 511 353 440V500H390V425Q417 469 454 489T523 510Q608 510 655 460T703
328Q703 273 702 264H390V238Q397 124 474 80T705 36ZM78 264Q78 133 159 82Q231 37 353 37V390Q319 429 288 451T218 474Q155 474 117 419T78 264ZM666 301V323Q666 389 629 431T530 473T433 425T390 301H666Z" />
<glyph unicode="&#xe7;" glyph-name="ccedilla" horiz-adv-x="416" d="M390 399L352 400Q336 433 298 453T218 473Q150 473 114 413T78 264Q78 135 154 86T391 36V-1Q320 -1 268 7Q273 -19 292 -31T332 -45T368 -65T384 -118Q384 -206 246 -206Q223 -206 212 -205L210
-172Q220 -173 241 -173Q351 -173 351 -118Q351 -78 289 -68Q266 -65 246 -45T226 15Q41 60 41 265Q41 334 59 385T106 462Q161 510 219 510T325 480T390 399Z" />
<glyph unicode="&#xe8;" glyph-name="egrave" horiz-adv-x="433" d="M393 36V-1Q333 -1 288 4T193 25T113 70T61 147T40 265T58 385T106 462Q160 510 211 510Q296 510 343 460T391 328Q391 273 390 264H77Q77 135 154 86T393 36ZM354 301V323Q354 389 317 431T218
473T121 425T78 301H354ZM223 564L109 685L146 700L252 564H223Z" />
<glyph unicode="&#xe9;" glyph-name="eacute" horiz-adv-x="433" d="M393 36V-1Q333 -1 288 4T193 25T113 70T61 147T40 265T58 385T106 462Q160 510 211 510Q296 510 343 460T391 328Q391 273 390 264H77Q77 135 154 86T393 36ZM354 301V323Q354 389 317 431T218
473T121 425T78 301H354ZM340 685L226 564H197L303 700L340 685Z" />
<glyph unicode="&#xea;" glyph-name="ecircumflex" horiz-adv-x="433" d="M393 36V-1Q333 -1 288 4T193 25T113 70T61 147T40 265T58 385T106 462Q160 510 211 510Q296 510 343 460T391 328Q391 273 390 264H77Q77 135 154 86T393 36ZM354 301V323Q354 389 317
431T218 473T121 425T78 301H354ZM308 556L231 637L154 556H125L231 692L337 556H308Z" />
<glyph unicode="&#xeb;" glyph-name="edieresis" horiz-adv-x="433" d="M393 36V-1Q333 -1 288 4T193 25T113 70T61 147T40 265T58 385T106 462Q160 510 211 510Q296 510 343 460T391 328Q391 273 390 264H77Q77 135 154 86T393 36ZM354 301V323Q354 389 317 431T218
473T121 425T78 301H354ZM121 630H159V564H121V630ZM291 630H329V564H291V630Z" />
<glyph unicode="&#xec;" glyph-name="igrave" horiz-adv-x="177" d="M107 0H70V500H107V0ZM79 564L-35 685L2 700L108 564H79Z" />
<glyph unicode="&#xed;" glyph-name="iacute" horiz-adv-x="177" d="M107 0H70V500H107V0ZM216 685L102 564H73L179 700L216 685Z" />
<glyph unicode="&#xee;" glyph-name="icircumflex" horiz-adv-x="177" d="M107 0H70V500H107V0ZM164 556L87 637L10 556H-19L87 692L193 556H164Z" />
<glyph unicode="&#xef;" glyph-name="idieresis" horiz-adv-x="177" d="M107 0H70V500H107V0ZM-16 630H22V564H-16V630ZM154 630H192V564H154V630Z" />
<glyph unicode="&#xf0;" glyph-name="eth" horiz-adv-x="451" d="M307 550T358 453T410 279T397 150T365 70T318 25Q250 -19 169 7Q141 16 110 39T60 114T41 239Q41 359 89 434T226 510Q264 510 295 496Q244 562 192 607L111 571L92 599L163 631Q114 669 64 685L76
717Q138 696 199 647L280 683L298 655L227 623Q307 550 358 453ZM226 34Q373 48 373 264Q373 353 337 413T222 473Q183 473 154 453T109 398Q78 332 78 243T114 97T226 34Z" />
<glyph unicode="&#xf1;" glyph-name="ntilde" horiz-adv-x="482" d="M381 0L382 264Q382 348 342 410T241 473T107 390V0H70V500H107V440Q172 510 248 510Q299 510 354 462Q382 436 400 385T419 265L418 0H381ZM375 626V589Q353 557 321 557T248 578T181 600Q139
600 115 568V604Q122 617 141 625T184 634T249 613T315 591Q355 591 375 626Z" />
<glyph unicode="&#xf2;" glyph-name="ograve" horiz-adv-x="451" d="M410 269Q410 201 397 150T365 70T318 25Q250 -19 169 7Q141 16 110 39T60 114T41 239Q41 359 89 434T227 510T363 439T410 269ZM214 35L226 34L237 35Q373 48 373 264Q373 353 337 413T222
473Q171 473 137 438Q78 376 78 245V237Q78 154 112 98T214 35ZM209 564L95 685L132 700L238 564H209Z" />
<glyph unicode="&#xf3;" glyph-name="oacute" horiz-adv-x="451" d="M410 269Q410 201 397 150T365 70T318 25Q250 -19 169 7Q141 16 110 39T60 114T41 239Q41 359 89 434T227 510T363 439T410 269ZM214 35L226 34L237 35Q373 48 373 264Q373 353 337 413T222
473Q171 473 137 438Q78 376 78 245V237Q78 154 112 98T214 35ZM346 685L232 564H203L309 700L346 685Z" />
<glyph unicode="&#xf4;" glyph-name="ocircumflex" horiz-adv-x="451" d="M410 269Q410 201 397 150T365 70T318 25Q250 -19 169 7Q141 16 110 39T60 114T41 239Q41 359 89 434T227 510T363 439T410 269ZM214 35L226 34L237 35Q373 48 373 264Q373 353 337 413T222
473Q171 473 137 438Q78 376 78 245V237Q78 154 112 98T214 35ZM308 556L231 637L154 556H125L231 692L337 556H308Z" />
<glyph unicode="&#xf5;" glyph-name="otilde" horiz-adv-x="451" d="M410 269Q410 201 397 150T365 70T318 25Q250 -19 169 7Q141 16 110 39T60 114T41 239Q41 359 89 434T227 510T363 439T410 269ZM214 35L226 34L237 35Q373 48 373 264Q373 353 337 413T222
473Q171 473 137 438Q78 376 78 245V237Q78 154 112 98T214 35ZM358 626V589Q336 557 304 557T231 578T164 600Q122 600 98 568V604Q104 617 123 625T167 634T232 613T298 591Q338 591 358 626Z" />
<glyph unicode="&#xf6;" glyph-name="odieresis" horiz-adv-x="451" d="M410 269Q410 201 397 150T365 70T318 25Q250 -19 169 7Q141 16 110 39T60 114T41 239Q41 359 89 434T227 510T363 439T410 269ZM214 35L226 34L237 35Q373 48 373 264Q373 353 337 413T222
473Q171 473 137 438Q78 376 78 245V237Q78 154 112 98T214 35ZM131 630H169V564H131V630ZM301 630H339V564H301V630Z" />
<glyph unicode="&#xf7;" glyph-name="divide" horiz-adv-x="435" d="M384 229H51V266H384V229ZM271 0H194V95H271V0ZM271 410H194V505H271V410Z" />
<glyph unicode="&#xf8;" glyph-name="oslash" horiz-adv-x="466" d="M385 415Q416 354 417 278T405 150T373 70T326 25Q284 -2 234 -2Q147 -2 98 60L49 0H12L81 85Q49 146 49 252T97 434T232 510T369 441L417 500H454L385 415ZM230 473Q179 473 145 438Q86 376
86 245V237Q86 169 108 119L345 412Q306 473 230 473ZM222 35L234 34L245 35Q381 48 381 264Q381 334 360 384L123 92Q159 39 222 35Z" />
<glyph unicode="&#xf9;" glyph-name="ugrave" horiz-adv-x="481" d="M100 500L99 236Q99 152 139 90T240 27T374 110V500H411V0H374V60Q309 -10 233 -10Q182 -10 128 38Q99 64 81 115T62 235L63 500H100ZM239 564L125 685L162 700L268 564H239Z" />
<glyph unicode="&#xfa;" glyph-name="uacute" horiz-adv-x="481" d="M100 500L99 236Q99 152 139 90T240 27T374 110V500H411V0H374V60Q309 -10 233 -10Q182 -10 128 38Q99 64 81 115T62 235L63 500H100ZM364 685L250 564H221L327 700L364 685Z" />
<glyph unicode="&#xfb;" glyph-name="ucircumflex" horiz-adv-x="481" d="M100 500L99 236Q99 152 139 90T240 27T374 110V500H411V0H374V60Q309 -10 233 -10Q182 -10 128 38Q99 64 81 115T62 235L63 500H100ZM317 556L240 637L163 556H134L240 692L346 556H317Z" />
<glyph unicode="&#xfc;" glyph-name="udieresis" horiz-adv-x="481" d="M100 500L99 236Q99 152 139 90T240 27T374 110V500H411V0H374V60Q309 -10 233 -10Q182 -10 128 38Q99 64 81 115T62 235L63 500H100ZM135 630H173V564H135V630ZM305 630H343V564H305V630Z" />
<glyph unicode="&#xfd;" glyph-name="yacute" horiz-adv-x="477" d="M370 500H407V-13Q407 -82 390 -133T346 -210Q296 -259 246 -259Q180 -259 120 -203V-155Q183 -222 240 -222T334 -160T370 -12V4Q191 11 120 82Q58 146 58 269Q58 490 59 500H96Q95 491 95
268Q95 137 176 86Q248 41 370 41V500ZM354 685L240 564H211L317 700L354 685Z" />
<glyph unicode="&#xfe;" glyph-name="thorn" horiz-adv-x="460" d="M70 750H107V440Q171 511 243 511Q298 511 353 462Q382 437 400 386T419 269T402 155T357 79T286 32Q218 4 107 0V-191H70V750ZM382 258Q382 360 343 417T242 474T107 390V37Q382 37 382 258Z" />
<glyph unicode="&#xff;" glyph-name="ydieresis" horiz-adv-x="477" d="M370 500H407V-13Q407 -82 390 -133T346 -210Q296 -259 246 -259Q180 -259 120 -203V-155Q183 -222 240 -222T334 -160T370 -12V4Q191 11 120 82Q58 146 58 269Q58 490 59 500H96Q95 491
95 268Q95 137 176 86Q248 41 370 41V500ZM130 630H168V564H130V630ZM300 630H338V564H300V630Z" />
<glyph unicode="&#x2013;" glyph-name="endash" horiz-adv-x="453" d="M401 263H52V300H401V263Z" />
<glyph unicode="&#x2014;" glyph-name="emdash" horiz-adv-x="570" d="M518 260H52V297H518V260Z" />
<glyph unicode="&#x2018;" glyph-name="quoteleft" horiz-adv-x="131" d="M47 564L52 700H79L85 564H47Z" />
<glyph unicode="&#x2019;" glyph-name="quoteright" horiz-adv-x="130" d="M51 564L46 700H84L78 564H51Z" />
<glyph unicode="&#x201a;" glyph-name="quotesinglbase" horiz-adv-x="172" d="M133 63L6 -72H-23L83 63H133Z" />
<glyph unicode="&#x201c;" glyph-name="quotedblleft" horiz-adv-x="281" d="M47 564L52 700H79L85 564H47ZM197 564L202 700H229L235 564H197Z" />
<glyph unicode="&#x201d;" glyph-name="quotedblright" horiz-adv-x="280" d="M51 564L46 700H84L78 564H51ZM201 564L196 700H234L228 564H201Z" />
<glyph unicode="&#x201e;" glyph-name="quotedblbase" horiz-adv-x="332" d="M133 63L6 -72H-23L83 63H133ZM293 63L166 -72H137L243 63H293Z" />
<glyph unicode="&#x2022;" glyph-name="bullet" horiz-adv-x="283" d="M49 263T49 302T75 368T140 395T206 368T234 302T207 237T141 210T76 236Z" />
<glyph unicode="&#x2039;" glyph-name="guilsinglleft" horiz-adv-x="264" d="M195 0L27 252L193 500H230L64 252L232 0H195Z" />
<glyph unicode="&#x203a;" glyph-name="guilsinglright" horiz-adv-x="264" d="M237 252L69 0H32L200 252L34 500H71L237 252Z" />
</font>
</defs>
</svg>
