<?xml version="1.0" standalone="no"?>
<!DOCTYPE svg PUBLIC "-//W3C//DTD SVG 1.1//EN" "http://www.w3.org/Graphics/SVG/1.1/DTD/svg11.dtd">
<svg xmlns="http://www.w3.org/2000/svg">
<defs >
<font id="Itim" horiz-adv-x="548" ><font-face
    font-family="Itim"
    units-per-em="1000"
    panose-1="0 0 5 0 0 0 0 0 0 0"
    ascent="950"
    descent="-250"
    alphabetic="0" />
<glyph unicode=" " glyph-name="space" horiz-adv-x="225" />
<glyph unicode="!" glyph-name="exclam" horiz-adv-x="252" d="M178 526T172 422Q166 322 166 269Q166 255 168 211Q167 194 156 186T130 177Q114 177 101 185T85 206Q73 288 73 402L74 558Q74 595 83 618T125 642Q152 642 165 625T178 580Q178 526 172 422ZM193
125T193 74Q193 48 177 27T135 5Q105 5 86 23T67 67Q67 89 83 107T125 125Q193 125 193 74Z" />
<glyph unicode="&quot;" glyph-name="quotedbl" horiz-adv-x="364" d="M147 655T147 590Q147 572 140 525L134 481Q131 430 127 418Q124 411 114 404T92 396Q78 396 69 405T57 440Q55 454 49 520Q40 556 40 597Q40 655 90 655Q147 655 147 590ZM323 655T323 590Q323
569 317 530T310 481Q309 430 303 418Q301 411 291 404T268 396Q254 396 245 405T233 440Q231 454 225 520Q217 557 217 597Q217 655 266 655Q323 655 323 590Z" />
<glyph unicode="#" glyph-name="numbersign" horiz-adv-x="652" d="M643 408T627 395T592 382H502Q491 365 475 319T452 251L519 250Q548 249 564 241T580 200Q580 178 562 170T526 162L464 163Q445 163 417 161Q404 132 398 109T378 27Q368 0 326 0Q315 0 304
10T292 40Q292 55 296 71T310 108Q312 112 318 130T328 166Q313 169 294 169Q276 169 246 167Q228 165 220 165L197 92L180 37Q165 0 143 0Q100 0 100 43Q100 97 127 160Q122 159 101 158T68 157Q46 157 30 168T14 202Q14 217 16 226T34 242Q57 250 88 250Q106
250 115 249Q122 249 132 249T155 249Q164 268 168 286T175 311Q184 344 202 383L176 382Q156 380 143 380Q65 380 65 421Q65 436 74 453T104 470Q120 470 129 469L166 468Q200 468 225 472Q226 479 239 514Q258 571 260 581Q273 642 302 642Q331 642 340 635T350
623Q350 600 346 581T336 546T328 524Q321 505 313 472Q320 471 333 471Q348 471 357 472L392 473Q414 473 442 471Q467 517 483 596Q489 617 498 625T528 633Q545 633 554 622T563 592Q563 566 552 529T529 465Q537 463 546 463L597 464Q616 464 629 455T643 427Q643
408 627 395ZM393 388T377 388Q357 388 337 385Q331 385 316 384T287 383Q283 371 277 355T265 323Q239 257 237 248L328 251L360 252Q380 300 405 369L411 385Q393 388 377 388Z" />
<glyph unicode="$" glyph-name="dollar" horiz-adv-x="507" d="M466 135T446 106T375 37Q336 6 284 0Q284 -45 285 -54Q285 -64 279 -69T262 -74Q249 -74 239 -66T228 -42Q228 -25 226 -3Q204 -2 185 5T154 18T137 26Q101 51 83 66T54 101T43 146Q43 171 54 180T94
190Q107 190 119 183T137 166Q170 107 222 93Q222 99 224 160T227 283Q170 303 146 315Q49 363 49 455Q49 494 76 535T139 593Q153 600 179 609T229 624Q229 652 228 665Q228 683 237 690T255 698Q278 698 283 682T288 627Q320 624 359 603Q404 577 424 558T445
508Q445 491 431 480T385 469Q371 469 349 497Q329 519 318 524Q314 525 305 528T287 534Q287 443 285 383V368Q339 344 374 322Q422 292 444 263T466 179Q466 135 446 106ZM150 440T169 423T213 396L228 391V535Q195 528 173 509T150 460Q150 440 169 423ZM319
104T341 128T363 177Q363 221 284 257Q283 206 283 94Q319 104 341 128Z" />
<glyph unicode="%" glyph-name="percent" horiz-adv-x="706" d="M594 642T601 631T608 606Q608 587 592 568L553 518Q439 369 370 271T237 56Q206 -4 166 -4Q148 -4 134 5T120 38Q120 53 129 63Q162 110 247 238Q327 357 379 432T482 570Q486 575 501 595T537
628T580 642Q594 642 601 631ZM214 631T245 617T298 578T319 521Q319 477 300 441T248 385T175 364Q112 364 74 401T36 500Q36 564 75 597T184 631Q214 631 245 617ZM234 440T234 517Q234 536 221 545T178 554Q146 554 130 538T113 500Q113 477 127 459T162 440Q234
440 234 517ZM670 101T649 71T592 23T517 6Q484 6 455 22T409 68T391 133Q391 170 409 203T463 256T545 277Q606 277 638 242T670 140Q670 101 649 71ZM508 201T491 186T473 139Q473 111 487 96T517 81Q594 81 594 150Q594 173 579 187T537 201Q508 201 491 186Z"
/>
<glyph unicode="&amp;" glyph-name="ampersand" horiz-adv-x="646" d="M414 85T388 67Q339 37 303 22T223 6Q181 6 141 26T75 83T49 163Q49 220 82 270T154 357Q114 435 114 506Q114 545 127 580Q138 612 159 626T216 641Q257 641 287 623T346 575Q377 543 377
494Q377 467 361 439T313 370Q308 363 298 353T284 337Q305 300 340 266T403 216Q415 224 425 237T453 277Q478 315 495 333T535 352Q558 352 571 344T585 318Q585 309 581 299T576 287Q567 268 556 253T522 211Q487 169 479 157Q508 128 562 103Q572 97 588 89T616
72Q630 64 630 40Q630 15 616 1T583 -14Q557 -14 534 1T475 48Q439 80 426 88Q414 85 388 67ZM211 539T211 500Q211 477 218 455T237 417Q258 431 271 456T284 506Q284 529 270 543T230 558Q211 539 211 500ZM258 90T286 107T338 148Q304 174 249 231Q240 242 206
276Q184 252 169 220T154 161Q154 132 178 111T233 90Q258 90 286 107Z" />
<glyph unicode="&apos;" glyph-name="quotesingle" horiz-adv-x="187" d="M147 655T147 590Q147 572 140 525L134 481Q131 430 127 418Q124 411 114 404T92 396Q78 396 69 405T57 440Q55 454 49 520Q40 556 40 597Q40 655 90 655Q147 655 147 590Z" />
<glyph unicode="(" glyph-name="parenleft" horiz-adv-x="326" d="M273 660T288 650T303 624Q303 612 273 584Q255 566 255 566Q213 518 184 418T154 216Q154 104 179 33Q217 -71 246 -104Q251 -110 259 -117T272 -130Q291 -147 301 -160T312 -185Q312 -196 303
-206T283 -217Q257 -217 221 -195T169 -152Q117 -88 88 14T58 242Q58 302 72 368T108 490Q119 520 143 560T197 630T250 660Q273 660 288 650Z" />
<glyph unicode=")" glyph-name="parenright" horiz-adv-x="326" d="M101 660T129 633T182 567T218 499Q239 445 253 375T267 242Q267 115 238 14T157 -152Q141 -173 105 -195T43 -217Q32 -217 23 -207T13 -185Q13 -173 23 -161T54 -130Q80 -104 80 -104Q109 -71
147 33Q172 104 172 216Q172 317 143 420T71 571L51 589Q22 614 22 625Q22 642 37 651T76 660Q101 660 129 633Z" />
<glyph unicode="*" glyph-name="asterisk" horiz-adv-x="422" d="M386 553T386 509Q386 491 371 482T328 462Q321 459 308 456T288 447Q307 421 319 416Q337 404 347 394T358 369Q358 348 344 334T308 319Q293 319 281 328T255 356Q247 365 237 382Q220 411 211
411Q205 411 194 395T178 365Q159 308 127 308Q109 308 93 319T76 352Q76 368 84 379T111 406Q137 428 141 445Q131 450 109 458Q73 470 56 482Q39 492 39 514Q39 529 47 539Q54 549 65 554T86 560Q100 560 111 554T141 535Q146 531 159 520T182 507Q182 519 175
552Q169 578 169 590Q169 614 188 628T232 643Q249 643 259 630T269 597Q269 581 259 547Q251 515 252 507Q261 508 274 519T292 533Q309 543 321 548T349 553Q386 553 386 509Z" />
<glyph unicode="+" glyph-name="plus" horiz-adv-x="537" d="M464 253T478 245T492 208Q492 186 471 176T422 166L389 165Q355 163 339 163Q325 163 321 164Q319 157 319 141Q318 127 322 97Q323 91 324 80T325 60Q325 31 314 16Q303 2 278 2Q263 2 249 13T234
39Q234 118 230 165Q203 168 196 168Q172 168 149 165Q119 163 106 163Q80 164 63 173T45 203Q45 225 54 234Q69 250 113 250Q136 250 164 252Q188 254 197 254Q206 254 214 253T229 251Q231 260 231 280Q231 297 229 329Q227 359 227 373Q227 403 235 417T270
431Q293 431 305 422T317 395Q318 374 316 334L315 289Q315 265 316 253Q340 251 351 251Q374 251 385 252L421 253Q464 253 478 245Z" />
<glyph unicode="," glyph-name="comma" horiz-adv-x="237" d="M83 -3Q72 -3 67 1Q55 8 46 19T37 52Q38 67 44 78T61 95Q82 106 115 106Q139 106 154 89T169 46Q169 16 152 -23T117 -85Q104 -100 88 -111T59 -122Q35 -122 29 -115T22 -88Q22 -80 43 -63Q60 -48
64 -42Q79 -22 86 -3H83Z" />
<glyph unicode="-" glyph-name="hyphen" horiz-adv-x="401" d="M365 265T365 213Q365 186 347 174T301 162Q293 162 284 163T265 165Q235 170 211 170Q194 170 160 166Q124 162 105 162Q78 162 57 172T36 208Q36 243 62 253T135 264L168 263Q192 261 205 261L278
263L319 265Q365 265 365 213Z" />
<glyph unicode="." glyph-name="period" horiz-adv-x="246" d="M192 30T172 9T128 -13Q100 -13 77 2T54 42Q54 80 68 98T112 116Q146 116 169 100T192 55Q192 30 172 9Z" />
<glyph unicode="/" glyph-name="slash" horiz-adv-x="421" d="M390 642T400 634T410 613Q410 602 405 593Q372 541 348 496T288 379Q274 351 243 290Q228 261 200 195Q159 103 133 55Q102 -5 62 -5Q11 -5 11 31Q11 45 20 57Q74 136 112 210T196 385Q247 499 282
563Q299 597 318 619T374 642Q390 642 400 634Z" />
<glyph unicode="0" glyph-name="zero" horiz-adv-x="616" d="M522 513T542 448T562 314Q562 233 535 160T453 41T320 -5Q247 -5 186 32T94 120Q71 157 59 203T47 297Q47 379 81 457T177 582Q235 625 310 625Q393 625 489 564Q522 513 542 448ZM212 480T203 468Q181
435 171 413T153 344Q149 323 149 295Q149 224 177 173T256 103Q280 94 310 94Q385 94 423 160T462 325Q462 416 428 474T323 533Q294 533 274 524T221 495Q212 480 203 468Z" />
<glyph unicode="1" glyph-name="one" horiz-adv-x="464" d="M313 526Q303 330 303 214Q303 154 306 100Q314 94 337 94L360 95Q374 97 386 97Q412 97 426 88T441 53Q441 28 427 14T367 0Q329 0 275 6Q262 7 250 8T228 9Q173 8 146 5Q119 2 85 2Q54 2 54 49Q54
94 112 94Q121 94 141 92Q158 89 177 89Q188 89 195 90Q196 157 202 285Q208 435 208 507Q203 506 173 493Q127 470 105 470Q93 470 83 482T73 512Q73 529 94 545T162 587Q188 600 212 616Q218 620 229 624T247 628Q273 628 294 618T316 590L313 526Z" />
<glyph unicode="2" glyph-name="two" horiz-adv-x="526" d="M225 102T236 102Q270 102 296 103T342 105Q391 108 430 108Q468 108 486 88T504 35Q504 19 483 10T440 0Q421 0 361 4Q289 10 248 10Q226 10 196 7Q184 6 167 5T129 4Q89 4 68 15T47 55Q47 80 67 106T123
168L147 192Q163 209 206 250Q277 314 316 363T356 460Q356 491 327 510T259 530Q201 530 176 505T150 431Q150 419 137 410T103 400Q75 400 64 420T53 469Q53 515 81 550T157 606T265 626Q307 626 352 606T428 551T459 475Q459 413 428 357T356 258T248 155Q216
128 191 104Q225 102 236 102Z" />
<glyph unicode="3" glyph-name="three" horiz-adv-x="545" d="M397 382T451 329T505 206Q505 164 485 124Q453 60 390 28T243 -4Q191 -4 150 15T69 68Q54 82 43 108T31 151Q31 173 43 186T77 200Q98 200 110 190T139 158Q155 137 168 125T203 103T258 94Q325 94
363 127T401 220Q401 243 376 266T329 300Q316 307 281 314Q234 326 211 337T187 374Q187 391 202 407T247 449Q277 474 292 490T307 524Q288 529 250 529Q233 529 199 527Q169 525 153 525Q117 525 92 537T66 568Q66 589 70 601T85 617Q92 620 110 620Q159 620
195 617Q235 615 256 615L339 616Q441 616 441 567Q441 530 404 484T315 400Q397 382 451 329Z" />
<glyph unicode="4" glyph-name="four" horiz-adv-x="601" d="M236 551T219 487T168 328L145 259Q162 256 180 256Q211 256 273 262Q335 268 362 268L361 378Q359 492 359 546Q359 617 406 617Q443 617 453 598T464 541Q464 502 458 420Q457 404 455 367T453 303L454
271L474 272Q498 274 511 274Q535 274 557 259T579 222Q579 197 572 183T554 169Q537 169 511 173Q505 173 493 174T470 176L453 175L454 40Q454 19 440 8T408 -3Q386 -3 369 11T352 46Q352 113 354 151Q355 160 355 173Q325 174 251 166Q181 158 145 158Q99 158
68 171T36 212Q36 239 47 278T80 383Q90 409 95 426Q113 477 122 512T142 599Q146 615 159 623T189 631Q207 631 221 623T236 600Q236 551 219 487Z" />
<glyph unicode="5" glyph-name="five" horiz-adv-x="525" d="M183 496T181 450Q179 410 175 390Q204 402 230 405T296 409Q358 409 404 381T474 305T498 203Q498 182 484 147T455 92Q420 46 374 22T274 -3Q233 -3 200 8T128 40Q89 61 72 83T54 140Q54 158 69 169T99
181Q108 181 115 176T138 156L163 132Q187 112 210 102T268 92Q299 92 318 100Q356 115 377 139T399 216Q399 267 365 295T250 324Q239 324 218 318T177 305Q129 289 118 289Q104 289 90 301T76 333Q94 454 94 534L93 559Q91 577 91 589Q91 607 110 616T151 626Q169
626 229 620L277 616Q286 615 304 615L341 616Q352 617 373 617Q403 617 423 608T443 579Q443 548 433 534T410 520Q398 520 370 524Q333 528 283 528Q248 528 190 524Q183 496 181 450Z" />
<glyph unicode="6" glyph-name="six" horiz-adv-x="529" d="M280 517T256 497T213 447L197 422Q179 395 170 378T158 342Q207 392 298 392Q337 392 380 370T451 319Q468 300 479 261T491 178Q491 143 470 107T419 43T362 9Q322 -1 293 -1Q227 -1 171 35T82 131T49
263Q49 361 96 450T222 596Q235 605 268 615T328 626Q377 626 377 587Q377 564 361 551T314 530Q280 517 256 497ZM297 91T313 93T342 104Q362 118 377 137T393 175Q393 244 360 272T281 301Q258 301 229 289T179 256T158 217Q158 174 176 146T222 104T274 91Q297
91 313 93Z" />
<glyph unicode="7" glyph-name="seven" horiz-adv-x="496" d="M460 523T441 463T391 325Q340 188 319 104Q302 47 287 22T252 -3Q236 -3 209 16Q202 25 202 41Q202 54 209 79T226 136L238 172Q251 215 282 288Q305 344 323 396T360 520Q308 504 257 504Q232 504
181 511Q139 517 121 517Q122 502 136 460Q153 417 153 395Q153 382 144 373T115 364Q89 364 76 380T54 418T41 448Q27 480 19 514T11 576Q11 592 19 604T39 616Q54 614 84 608Q132 600 164 596T234 591Q325 591 374 623Q381 627 395 627Q421 627 447 615T473 584Q460
523 441 463Z" />
<glyph unicode="8" glyph-name="eight" d="M443 307T480 267T517 175Q517 160 511 138T493 99Q427 -3 260 -3Q173 -3 109 32T45 139Q45 240 184 312Q54 360 54 454Q54 511 86 550T170 608T285 627Q331 627 379 606T445 550Q463 512 463 479Q463 436 446 400T382
331Q443 307 480 267ZM310 382T327 395T357 428T370 474Q370 504 346 524T288 544Q215 544 187 519T158 460Q158 433 176 415T216 386T278 361Q310 382 327 395ZM411 199T390 218T339 251T290 271Q256 257 215 227T165 182Q155 168 152 159T148 136Q148 121 166
108T209 86T252 78Q323 78 367 106T411 182Q411 199 390 218Z" />
<glyph unicode="9" glyph-name="nine" horiz-adv-x="523" d="M244 109T275 138T328 203T354 274Q326 254 297 246T230 238Q179 238 146 255T76 306Q70 312 61 332T45 383T38 446Q38 475 56 507T101 564T154 601Q177 611 207 618T259 626Q330 626 378 593T450 505T473
383Q473 268 422 174T293 27Q280 18 249 8T191 -3Q171 -3 156 15T141 56Q141 72 152 78T188 92L210 98Q244 109 275 138ZM243 541T222 535T185 519Q168 509 153 489T137 457Q137 326 243 326Q267 326 296 336T346 366T366 409Q366 475 339 508T259 541Q243 541
222 535Z" />
<glyph unicode=":" glyph-name="colon" horiz-adv-x="245" d="M100 301T79 320T58 368Q58 377 63 394Q69 413 83 422T113 432Q140 432 163 410T186 360Q186 344 178 331Q159 301 125 301Q100 301 79 320ZM153 118T169 105T186 67Q186 41 170 20T128 -2Q93 -2 77
16T60 60Q60 82 75 100T118 118Q153 118 169 105Z" />
<glyph unicode=";" glyph-name="semicolon" horiz-adv-x="250" d="M101 301T80 321T58 368Q58 377 63 394Q69 413 83 422T114 432Q140 432 163 410T187 360Q187 347 179 331Q160 301 126 301Q101 301 80 321ZM106 0Q94 0 89 4Q77 12 68 23T59 55Q61 88 84 98Q94
103 109 106T138 109Q161 109 176 92T192 49Q192 18 174 -21T139 -82Q126 -98 110 -109T82 -120Q59 -120 52 -112T45 -86Q45 -79 67 -59Q82 -46 86 -40Q104 -14 109 0H106Z" />
<glyph unicode="&lt;" glyph-name="less" horiz-adv-x="550" d="M31 227T51 243T111 274L302 364Q357 389 356 389L388 405Q410 417 425 423T459 429Q478 429 488 415T498 382Q498 362 488 352T461 333T435 319L291 258L159 203Q212 183 266 167T397 128Q454 112
472 106Q491 100 500 86T509 56Q509 36 496 21T464 6Q450 6 423 18Q395 28 385 31Q310 53 182 104Q161 112 141 119T105 132Q75 142 53 160T31 199Q31 227 51 243Z" />
<glyph unicode="=" glyph-name="equal" horiz-adv-x="561" d="M471 346T489 338T507 310Q507 299 500 288Q490 268 472 262T427 256Q399 256 372 259Q363 259 344 260T308 262Q272 262 234 259Q221 258 196 257T151 256Q111 256 92 259T63 272T54 304Q54 332 83
345Q95 349 112 349Q119 349 185 346Q194 345 217 343T256 341L275 342Q359 346 434 346Q471 346 489 338ZM472 180T489 173T507 146Q507 135 500 124Q490 104 471 98T427 91Q408 91 372 93Q342 96 308 96Q272 96 234 93Q221 92 196 91T151 90Q112 90 92 93T63
107T54 140Q54 168 83 181Q89 184 112 184Q141 184 185 180Q237 176 261 176Q277 176 329 178Q393 180 434 180Q472 180 489 173Z" />
<glyph unicode="&gt;" glyph-name="greater" horiz-adv-x="550" d="M518 178T497 160T445 132Q438 130 362 102Q227 50 165 31Q143 25 126 17Q97 6 85 6Q68 6 54 21T40 56Q40 71 49 85T78 106Q96 112 153 128Q230 150 284 166T391 203L259 258L115 319Q106 324
87 334T60 355T52 382Q52 401 62 415T91 429Q108 429 122 424T163 405Q186 392 193 389L439 274Q478 259 498 243T518 199Q518 178 497 160Z" />
<glyph unicode="?" glyph-name="question" horiz-adv-x="441" d="M405 529T405 481Q405 447 390 420T343 359Q315 330 302 305T286 258T278 190Q278 167 262 157T229 146Q184 146 184 200Q184 229 194 269T231 356Q240 372 254 388T273 409Q289 426 300 444T311
477Q311 493 307 502T293 522Q280 537 259 546T220 555Q191 555 167 545T128 518T113 484Q113 456 124 442Q135 429 135 418Q135 412 132 404Q120 376 91 376Q54 376 37 404T20 475Q20 516 46 553T122 615T241 639Q281 639 316 622T374 571Q405 529 405 481ZM259
108T277 87Q292 72 292 46Q292 24 271 10T225 -5Q207 -5 190 5Q169 20 169 58Q169 78 187 93T229 108Q259 108 277 87Z" />
<glyph unicode="@" glyph-name="at" horiz-adv-x="751" d="M524 164T500 184T462 242Q439 202 399 179T313 156Q291 156 275 164T233 189Q217 199 210 220T202 267Q202 297 208 320T225 370Q255 441 300 460Q324 471 337 475T365 480Q392 480 419 471T462 437Q473
451 482 457T508 463Q522 463 531 455T540 431Q540 417 529 380Q517 338 517 319Q517 283 527 261T561 239Q592 239 605 274T619 360Q619 412 609 443T575 505Q554 533 506 549T408 566Q359 566 305 541T225 488Q178 439 165 395Q154 360 148 332T141 274Q141 243
151 209T179 148Q192 130 210 115T245 94L272 87Q336 70 356 70Q398 70 431 77T493 102Q498 105 519 118T556 132Q595 132 595 95Q595 73 573 57T510 21Q472 3 439 -2T355 -7Q319 -7 247 5Q178 34 146 65Q105 102 80 157T54 268Q54 302 62 335T85 414Q107 484 175
550Q209 583 283 610T416 637Q487 637 538 617T614 577Q663 534 683 481T703 355Q703 263 667 223Q639 192 616 178T561 164Q524 164 500 184ZM437 296T437 361Q437 377 418 394T376 412Q347 412 325 392T292 341T280 279Q280 259 289 243T307 226Q340 225 378
250Q437 296 437 361Z" />
<glyph unicode="A" glyph-name="A" horiz-adv-x="640" d="M515 32T506 52T487 102Q485 107 476 132T454 175Q391 166 351 166Q329 166 303 167T263 169Q213 173 183 173Q171 157 163 139T141 85Q123 33 110 11Q101 -4 75 -4Q53 -4 35 5T16 32Q24 70 41 112T92
226L132 324Q165 408 192 468T265 610Q271 622 285 630T316 639Q335 639 343 637T357 629T372 606Q406 553 430 497T493 342L514 289Q542 217 562 169T608 80Q624 54 624 44Q624 20 610 8T572 -5Q543 -5 528 15Q515 32 506 52ZM409 291T379 375Q348 465 317 518Q298
470 261 394Q236 347 204 258Q268 250 342 250Q395 250 425 257Q409 291 379 375Z" />
<glyph unicode="B" glyph-name="B" horiz-adv-x="646" d="M536 329T571 292T607 199Q607 144 567 95T463 19Q435 8 390 3T296 -2Q216 -2 132 13Q117 16 101 28T84 63Q83 155 77 319L76 374Q72 502 72 575Q72 588 87 605T125 625Q138 625 150 626Q263 637 301 637Q376
637 433 623T529 570Q543 554 552 530T561 482Q562 433 536 392T463 338Q536 329 571 292ZM273 552T237 548T175 538L181 349L217 350Q304 359 345 365Q371 371 396 388T437 425T454 455Q454 470 448 485T435 508Q408 534 380 543T307 552Q273 552 237 548ZM235
79T281 79Q382 79 440 105T499 207Q499 237 454 257T357 277Q322 277 268 269Q225 263 184 261Q186 201 186 185Q186 154 185 138L184 86Q235 79 281 79Z" />
<glyph unicode="C" glyph-name="C" horiz-adv-x="643" d="M575 537T581 526T587 505Q587 493 572 477T541 461Q521 461 509 467T489 486Q473 510 450 527T378 545Q336 545 283 526T206 479Q186 454 172 403T157 304Q157 246 182 198T256 120T373 91Q410 91 449
105T518 153H517Q535 172 562 172Q578 172 592 158T607 130Q607 115 603 104T586 78Q545 32 489 15T355 -2Q286 -2 216 31T107 111Q87 140 69 194T50 283Q50 370 76 448T156 574Q191 606 257 622T378 638Q445 638 483 620T560 555Q575 537 581 526Z" />
<glyph unicode="D" glyph-name="D" horiz-adv-x="662" d="M351 634T430 597T551 513Q584 475 605 426T626 307Q626 256 603 201T543 111Q504 74 470 51T377 14T228 -1Q160 -1 105 14T50 67Q50 82 63 90T93 99Q102 99 105 98Q112 164 112 238Q112 321 108 375T97
484Q96 491 93 523T89 588Q89 609 110 623T153 638Q166 638 188 636Q206 634 215 634Q351 634 430 597ZM226 89T265 89Q331 89 390 116T485 193T521 308Q521 376 497 424T423 503Q386 526 332 536T202 547Q202 523 205 487Q205 475 207 445Q213 329 213 258Q213
155 202 93Q226 89 265 89Z" />
<glyph unicode="E" glyph-name="E" horiz-adv-x="552" d="M501 136T510 122T520 90Q520 69 514 61T489 43Q447 23 385 11T252 -1Q163 -1 122 29T71 101T61 213Q61 287 67 358T88 541Q95 589 126 610T194 632Q225 632 295 634L382 635Q436 635 460 632Q490 626
504 619T519 593Q519 573 506 554T465 535Q434 535 376 539Q318 543 289 543Q264 543 240 540Q212 538 200 533T186 516Q172 413 172 364Q195 361 217 361Q245 361 277 364T318 368Q371 373 409 373Q431 373 442 365T454 343Q454 321 443 309T402 291Q367 284 316
280T215 276Q198 276 168 278Q165 217 165 165Q165 94 259 94Q309 94 342 101T418 121Q458 136 482 136Q501 136 510 122Z" />
<glyph unicode="F" glyph-name="F" horiz-adv-x="513" d="M182 21T168 11T127 0Q105 0 93 12T79 37Q85 79 85 163Q85 213 79 317Q72 415 72 491Q72 532 76 575Q76 589 92 605T138 625Q233 635 371 635H403Q439 635 473 622T508 577Q508 556 498 544T461 532Q448
532 431 534T407 537Q369 543 348 543Q232 543 173 527Q173 494 175 420L176 356Q228 356 269 360T316 366Q368 372 385 372Q409 372 425 362T442 329Q442 279 372 279Q355 279 342 278T320 276Q284 272 263 272Q217 272 185 269Q185 232 188 191Q188 178 189 151T191
102Q191 83 190 67T185 36Q182 21 168 11Z" />
<glyph unicode="G" glyph-name="G" horiz-adv-x="690" d="M488 512T457 526T385 541Q303 541 244 499Q199 466 177 413T155 294Q155 231 184 184T259 111T355 86Q405 86 441 101T500 142Q534 185 534 256Q534 266 518 270T472 274L400 273Q371 273 354 284T337
312Q337 336 353 347T396 359Q428 359 482 355Q536 351 560 351Q595 351 616 329T638 265Q638 226 621 174T573 81Q543 41 485 21T355 0Q296 0 241 19T149 72Q103 115 77 174T50 293Q50 379 90 460T200 587Q230 607 284 620T383 633Q453 633 506 612T587 550Q599
532 599 518Q599 502 585 488T557 474Q551 474 543 476T531 481Q488 512 457 526Z" />
<glyph unicode="H" glyph-name="H" horiz-adv-x="692" d="M512 374T512 406V444Q512 482 510 501Q508 517 508 584Q508 608 522 621T562 635Q594 635 605 621T616 575V537L615 427Q614 395 614 331L615 249Q616 230 616 196Q616 169 618 119Q620 73 620 50Q620
31 610 15T581 -1Q511 -1 511 46Q511 72 513 104Q515 127 515 174Q515 207 513 269Q466 265 351 265Q279 265 239 265T181 270L180 155Q180 144 185 96Q190 64 190 40Q190 25 173 12T140 -2Q104 -2 91 15T78 69L77 148Q76 162 76 187Q76 224 74 288Q72 346 72 372Q72
411 74 481Q76 547 76 579Q76 611 92 622T128 633Q184 633 184 596Q184 530 181 470Q179 394 179 359Q208 352 240 350T330 348Q448 348 513 358Q512 374 512 406Z" />
<glyph unicode="I" glyph-name="I" horiz-adv-x="373" d="M230 488T230 429Q230 368 238 250Q239 232 242 178T245 78Q255 79 266 81T284 83Q306 83 319 72T332 38Q332 23 320 15T279 4T193 0Q131 0 100 4T57 19T45 54Q45 71 56 77T87 83L108 82L141 80L136 198Q130
294 130 374Q130 417 133 492L135 547Q101 545 82 545Q60 545 53 553T45 586Q45 614 83 622T201 630Q262 630 292 626T323 608Q323 574 309 564T253 553L233 552Q230 488 230 429Z" />
<glyph unicode="J" glyph-name="J" horiz-adv-x="490" d="M111 120T124 100T165 79Q235 79 260 136T286 292Q286 340 280 426Q274 508 274 548Q167 548 167 590Q167 615 175 623T202 631Q213 631 226 630T245 628Q265 625 283 625Q316 625 344 628Q380 630 398
630Q434 630 448 623T463 596Q463 575 453 567T422 554L376 549Q375 483 384 391Q385 377 388 339T391 268Q391 138 336 68T172 -3Q104 -3 59 36T13 155Q13 177 29 190T72 204Q91 204 101 191T111 166Q111 120 124 100Z" />
<glyph unicode="K" glyph-name="K" horiz-adv-x="639" d="M621 71T626 63T632 40Q632 21 618 10T584 -2Q562 -2 534 9Q478 34 425 101T296 296Q239 252 180 214Q180 193 181 166T183 125Q185 67 185 48Q185 31 174 16T141 0Q109 0 95 10T78 41Q70 91 70 137Q70
189 78 287Q86 381 86 428Q86 446 84 480Q83 507 78 530Q74 562 74 575Q74 607 88 621T131 635Q153 635 167 623T184 589Q189 504 189 458Q188 433 186 387T181 328Q215 347 314 437T456 580L469 595Q485 616 496 624T526 632Q545 632 560 620T576 590Q576 557
542 523Q459 437 376 363Q493 144 611 76Q621 71 626 63Z" />
<glyph unicode="L" glyph-name="L" horiz-adv-x="505" d="M142 635T157 625T176 590Q188 511 191 433T195 255Q195 213 188 102Q232 98 256 98Q273 98 333 103Q368 108 394 108Q418 108 438 104T479 89Q500 77 500 52Q500 32 488 16T458 0Q446 0 420 4Q373 11
330 11Q316 11 299 10T273 8Q249 5 225 5Q176 5 137 10Q117 12 97 25T77 65Q77 80 81 142Q88 245 88 299Q88 341 84 387T79 445Q70 530 70 585Q70 611 82 623T123 635Q142 635 157 625Z" />
<glyph unicode="M" glyph-name="M" horiz-adv-x="786" d="M663 632T683 614T704 582Q704 521 700 415Q699 389 698 353T697 268Q697 116 715 44Q714 20 696 10T660 -1Q620 -1 608 27T595 107Q595 300 599 462Q484 334 420 247Q420 247 402 235Q385 220 374 220Q348
220 331 233T298 271L250 339Q200 409 177 445Q177 353 186 195Q193 104 193 58Q193 34 181 18T143 1Q117 1 101 11T83 41Q84 58 84 97Q84 175 79 287L77 341L75 411Q74 442 73 483T72 574Q72 634 137 634Q157 634 177 624T208 595Q216 560 267 479T367 327Q411
383 439 411Q487 460 518 502T587 603Q596 615 613 623T649 632Q663 632 683 614Z" />
<glyph unicode="N" glyph-name="N" horiz-adv-x="675" d="M490 591T503 612T544 634Q567 634 585 625T603 595Q603 554 599 480Q595 408 595 373Q595 318 599 226Q603 138 603 97Q603 64 602 48Q602 32 585 17T531 1Q512 1 499 7T480 22Q433 79 343 216Q242 369
178 450Q186 378 186 274Q186 228 185 155T180 58Q176 29 163 14T120 -2Q98 -2 88 10T75 54Q74 95 80 177Q81 190 83 222T85 279Q85 348 78 437Q72 535 72 582Q72 606 89 619T130 632Q150 632 172 622Q258 514 405 300L499 156Q500 172 500 201Q500 252 498 311T495
391Q490 488 490 562Q490 591 503 612Z" />
<glyph unicode="O" glyph-name="O" horiz-adv-x="725" d="M414 636T469 620T559 571Q622 514 647 447T673 274Q673 252 668 234T650 188Q635 157 632 139Q612 104 567 72T468 20T375 0Q182 0 100 132Q77 169 65 209T52 287Q52 389 88 464T190 582Q229 605 271
620T347 636Q414 636 469 620ZM156 230T180 195T256 119Q298 103 313 99T347 94Q448 94 508 149T568 300Q568 376 551 420T490 499Q467 518 432 527T355 536Q293 536 248 500T180 405T156 284Q156 230 180 195Z" />
<glyph unicode="P" glyph-name="P" horiz-adv-x="571" d="M280 226T254 228T184 237L183 132Q182 105 182 55Q182 29 168 15T135 0Q102 0 86 8T70 39Q70 68 75 121Q86 235 86 355Q86 467 79 566Q80 580 93 598T128 618Q151 618 201 626Q253 634 280 634Q362 634
407 618T499 565Q549 487 549 455Q549 388 522 336T443 255T319 226Q280 226 254 228ZM264 549T241 546T184 534Q188 442 188 400Q188 357 185 328Q228 319 253 317T309 314Q383 314 413 352T444 442Q444 457 435 479T419 508Q392 532 367 540T296 549Q264 549
241 546Z" />
<glyph unicode="Q" glyph-name="Q" horiz-adv-x="725" d="M414 636T469 620T559 571Q622 514 647 447T673 274Q673 240 641 160Q623 125 604 105T544 57Q578 3 597 -17T642 -38Q650 -38 654 -37Q657 -36 663 -36Q677 -36 685 -45T694 -68Q694 -75 690 -83T679
-95Q660 -107 646 -110T595 -114Q556 -114 526 -80T462 16Q419 0 375 0Q182 0 100 132Q77 169 65 209T52 287Q52 389 88 465T190 582Q228 606 270 621T347 636Q414 636 469 620ZM154 250T165 222T199 168Q217 206 250 225T328 244Q375 244 408 227T457 192T497
139Q568 196 568 300Q568 378 552 421T490 501Q466 521 431 531T355 541Q294 541 248 504T178 408T154 287Q154 250 165 222ZM318 168T294 157T261 114L274 104Q295 96 311 93T347 89Q380 89 418 100Q400 133 383 150T346 168Q318 168 294 157Z" />
<glyph unicode="R" glyph-name="R" horiz-adv-x="604" d="M431 206T466 161T560 49Q567 42 567 33Q567 19 552 9T514 -1Q483 -1 447 25Q415 48 390 86T332 185Q306 232 301 240Q262 224 179 220Q179 186 185 128Q191 68 191 41Q191 23 174 11T134 -1Q108 -1 94
20Q80 48 76 87T72 180Q72 237 79 309Q85 389 85 427Q85 458 79 510Q78 519 76 541T74 581Q74 595 84 605T107 620Q188 633 265 633Q396 633 482 584T568 435Q568 404 555 376T518 328Q457 281 396 265Q431 206 466 161ZM463 486T412 516T267 547Q225 547 184 537L185
486Q185 442 182 400Q179 358 179 310Q196 314 215 315T240 318Q284 322 308 328Q353 342 382 353T437 386T463 438Q463 486 412 516Z" />
<glyph unicode="S" glyph-name="S" horiz-adv-x="562" d="M521 134T500 101T429 39Q396 19 352 9T263 -1Q217 -1 149 29Q100 53 72 86T43 158Q43 185 55 197T94 210Q108 210 123 199T141 176Q155 135 190 114T277 92Q337 92 377 114T418 173Q418 209 374 237T284
276Q218 294 167 319Q114 345 88 383T62 463Q62 502 89 542T153 601Q173 611 221 622T292 634Q321 634 356 627T413 607Q457 582 478 562T499 512Q499 494 486 480T439 466Q431 466 423 473T403 494Q387 515 372 522Q357 527 329 533T278 539Q254 539 228 529T185
501T167 458Q167 438 185 424T230 400Q260 388 295 379Q341 365 370 354T428 325Q477 296 499 266T521 181Q521 134 500 101Z" />
<glyph unicode="T" glyph-name="T" horiz-adv-x="561" d="M11 626T74 626Q101 626 177 624Q261 620 304 620Q339 620 389 624Q423 626 432 626Q487 624 525 606Q536 601 543 594T550 571Q550 549 536 534T502 518Q480 518 438 524Q401 531 373 531Q346 531 332
530Q329 497 329 372Q329 223 338 70L340 41Q340 0 293 0Q256 0 243 17T230 71Q230 142 226 248Q222 336 222 373Q222 398 228 526L111 525Q55 525 33 535T11 583Q11 626 74 626Z" />
<glyph unicode="U" glyph-name="U" horiz-adv-x="663" d="M177 551T175 503L174 438Q174 343 188 279Q208 189 248 140Q285 97 339 97Q381 97 414 122T465 186Q495 248 495 339Q495 394 488 469Q482 553 482 595Q482 617 508 623T562 630Q572 630 585 617T598
589Q598 559 595 532Q593 502 593 490Q593 452 597 384Q598 367 599 343T600 288Q600 220 568 153T477 42T346 -2Q234 -2 171 70T85 258Q72 324 69 396T65 589Q65 605 80 619T114 633Q177 633 177 580Q177 551 175 503Z" />
<glyph unicode="V" glyph-name="V" horiz-adv-x="589" d="M165 495T212 364T298 136Q327 229 378 359T473 595Q486 626 517 626Q546 626 561 615T576 575Q576 564 573 556T564 535Q533 474 502 395T426 193Q428 198 398 118L365 32Q359 16 346 8T315 -1Q298 -1
278 7T248 25Q214 90 162 213T71 440L56 481Q41 523 34 545T27 582Q27 602 49 614T93 626Q104 626 114 621T128 605Q165 495 212 364Z" />
<glyph unicode="W" glyph-name="W" horiz-adv-x="855" d="M730 599T742 612T768 626Q802 626 817 613T832 568Q832 559 818 517Q787 422 750 282Q741 250 736 226T726 186Q702 83 684 31Q678 16 663 8T631 -1Q614 -1 598 6T574 24Q543 85 498 190T427 375Q365
218 316 72Q313 63 310 53T302 31Q295 16 282 8T253 -1Q235 -1 218 6T195 24Q182 46 168 92T129 221L104 306Q78 389 59 476T40 580Q40 601 61 613T103 626Q115 626 128 619T145 593Q180 406 248 159Q274 221 305 310T366 483L376 513Q380 528 396 536T430 545Q452
545 466 534T484 510Q485 506 524 391T617 159Q637 218 665 348L680 414Q707 520 724 578Q730 599 742 612Z" />
<glyph unicode="X" glyph-name="X" horiz-adv-x="639" d="M565 633T575 621T586 587Q586 564 574 535Q539 503 495 450T391 318Q446 228 480 183T545 120Q558 113 576 108Q599 101 610 94T621 73Q621 45 595 32T532 18Q484 18 438 71T326 229Q263 146 221 95T145
11Q138 5 125 2T103 -2Q81 -2 66 16T49 53Q49 56 60 73T94 112Q119 131 159 180T269 319L240 365Q202 425 184 451T150 490T116 504Q110 504 98 501T77 497Q66 497 57 501Q32 512 32 534Q32 544 36 551Q44 569 69 584T139 600Q180 600 210 579T265 522T336 409Q435
543 476 589Q500 617 514 625T545 633Q565 633 575 621Z" />
<glyph unicode="Y" glyph-name="Y" horiz-adv-x="569" d="M560 569T529 534Q492 492 336 276Q338 147 344 99Q347 69 347 56Q347 23 336 12T296 0Q275 0 257 12T238 43Q238 116 235 257Q235 263 227 277T217 295Q196 332 165 377T110 446Q66 490 41 525T16 576Q16
597 35 609T78 622Q91 622 105 615T129 595Q188 507 234 449L281 388Q324 432 356 475T428 579L445 605Q464 631 504 631Q523 631 541 620T560 587Q560 569 529 534Z" />
<glyph unicode="Z" glyph-name="Z" horiz-adv-x="569" d="M59 22T44 39T29 76Q29 88 34 103T44 124Q91 182 220 328T393 523L354 525Q301 528 265 528Q252 528 199 523Q166 518 139 518Q100 518 83 525T62 543T58 571Q58 584 68 597T94 613Q134 618 201 622T310
627Q437 627 489 614Q502 610 511 594T520 569Q520 557 517 544T507 522Q494 499 447 439T347 317Q291 251 233 186T157 103Q185 104 243 108Q337 114 384 114Q421 114 466 109T535 89Q542 85 548 66T555 35Q555 22 543 12T508 2Q506 2 464 6Q377 16 349 16L278
15Q230 13 205 13Q144 13 103 18Q59 22 44 39Z" />
<glyph unicode="[" glyph-name="bracketleft" horiz-adv-x="301" d="M77 -220T77 -182Q77 -148 80 -107T84 -49Q93 41 93 114Q93 328 84 455Q83 470 80 492T76 525Q68 585 68 607Q68 623 71 632Q77 646 101 653T159 660Q275 660 275 615Q275 592 259 582T222 569T166
567Q179 375 179 215Q179 205 176 -23L174 -139Q180 -140 193 -140L226 -139Q252 -139 265 -148T279 -185Q276 -204 260 -211T218 -218Q200 -218 190 -217L159 -216Q145 -216 133 -219Q119 -221 112 -221Q77 -220 77 -182Z" />
<glyph unicode="\" glyph-name="backslash" horiz-adv-x="419" d="M83 642T102 620T139 563Q178 491 224 385Q270 282 307 209T400 57Q409 43 409 31Q409 -5 359 -5Q319 -5 288 55Q262 103 221 195Q193 261 178 290Q147 351 133 379Q97 451 73 496T16 593Q11 605
11 613Q11 625 21 633T47 642Q83 642 102 620Z" />
<glyph unicode="]" glyph-name="bracketright" horiz-adv-x="301" d="M182 -221T168 -219Q154 -216 142 -216L111 -217Q102 -218 84 -218Q57 -218 41 -211T22 -185Q22 -158 36 -149T76 -139L111 -140Q123 -140 128 -139L126 -23Q122 129 122 215Q122 348 135 567Q100
567 79 569T42 581T26 615Q26 660 142 660Q175 660 199 653T230 632Q233 623 233 607Q233 591 230 566T226 530Q219 488 218 455Q209 328 209 114Q209 51 217 -49Q224 -130 224 -182Q224 -220 190 -221Q182 -221 168 -219Z" />
<glyph unicode="^" glyph-name="asciicircum" horiz-adv-x="547" d="M103 233T84 233Q67 233 49 243T31 261Q31 274 49 314T101 424Q141 506 157 544Q171 579 196 610T255 642Q275 642 297 626Q307 619 349 561T409 474Q429 445 443 411Q457 378 477 346Q485 335
492 326Q516 298 516 279Q516 260 499 248T461 236Q444 236 428 250T399 285T376 321Q357 354 336 396Q315 437 300 465T263 522Q246 507 217 459T180 392Q173 378 156 331Q138 274 119 249Q103 233 84 233Z" />
<glyph unicode="_" glyph-name="underscore" horiz-adv-x="414" d="M385 -38T397 -47T409 -83Q409 -99 379 -106T319 -114Q278 -114 241 -113L89 -111Q83 -111 55 -111T15 -100T4 -65Q4 -49 22 -44T83 -38H354Q385 -38 397 -47Z" />
<glyph unicode="`" glyph-name="grave" horiz-adv-x="517" d="M239 693T253 684T279 650Q289 629 297 619T313 602T325 592Q334 584 340 578T346 566Q346 557 341 552T325 546Q313 546 289 552T250 567Q221 584 196 609T171 661Q171 675 184 684T218 693Q239 693
253 684Z" />
<glyph unicode="a" glyph-name="a" horiz-adv-x="521" d="M508 26T485 11T441 -4Q403 -4 381 5T339 41Q313 18 268 7T185 -5Q123 -5 83 28T43 127Q43 155 58 178T99 220Q128 239 165 249T242 260Q263 260 292 252T337 235V251Q337 305 311 325T227 346Q210 346
194 339T156 320Q128 305 103 305Q94 305 86 317T78 340Q78 369 105 390T171 421T239 432Q269 432 308 421T372 389Q402 363 418 329T435 253Q435 240 433 214Q431 186 431 166Q431 157 429 139Q427 117 427 104Q427 92 436 84T457 75L485 76Q496 76 502 68T508
48Q508 26 485 11ZM229 74T258 83T328 116Q332 133 333 161Q278 187 242 187Q201 187 169 172T137 119Q137 100 153 87T186 74Q229 74 258 83Z" />
<glyph unicode="b" glyph-name="b" horiz-adv-x="520" d="M77 236T78 265L79 360Q79 418 76 487Q75 508 69 545Q61 601 61 629Q61 675 107 675Q136 675 148 660T166 611Q176 542 176 449Q176 421 174 365Q193 395 223 412T284 429Q371 429 434 357Q451 332 464
298T478 238Q478 194 469 157T435 85Q411 50 375 28T290 6Q248 6 215 23T161 68Q156 43 139 19T100 -6Q82 -6 70 3T58 32Q58 46 64 67Q70 96 73 120T77 180Q77 236 78 265ZM314 89T347 123T380 217Q380 271 351 310Q341 323 323 331T286 339Q244 339 215 315T182
247Q178 189 178 147Q190 124 214 107T265 89Q314 89 347 123Z" />
<glyph unicode="c" glyph-name="c" horiz-adv-x="469" d="M408 290T363 290Q348 290 338 297T316 318Q286 351 264 351Q235 351 208 334T163 286T146 217Q146 175 162 147T214 99Q227 92 244 88T275 84Q304 84 348 107Q364 115 375 119T398 123Q409 123 423 113T437
88Q437 58 409 38T341 7T263 -4Q204 -4 154 23T73 97T43 205Q43 269 72 322T150 405T257 435Q290 435 325 423T384 388T408 334Q408 290 363 290Z" />
<glyph unicode="d" glyph-name="d" horiz-adv-x="552" d="M452 616T447 571Q436 461 436 348Q436 249 439 197T454 118T491 90Q539 90 539 58Q539 37 518 23T472 8Q442 8 416 22T375 65Q354 34 315 16T238 -3Q181 -3 137 21T69 86T45 178Q45 226 56 270T88 344Q115
382 160 404T250 427Q277 427 301 417T343 391Q343 458 342 475V496Q342 589 354 632Q365 674 407 674Q430 674 441 664T452 626Q452 616 447 571ZM144 134T170 106T234 78Q287 78 312 111T338 196L337 295Q298 338 256 338Q227 338 202 324T161 280Q144 247 144
180Q144 134 170 106Z" />
<glyph unicode="e" glyph-name="e" horiz-adv-x="477" d="M45 250T59 288T96 359Q119 391 169 411T258 432Q298 432 339 421T397 387Q434 335 434 285Q434 258 423 239T390 198Q373 180 337 174T264 168Q241 168 208 172T144 184Q146 164 154 145T173 116Q193
97 214 92T270 87Q306 87 337 99Q362 108 378 108Q397 108 407 97T417 67Q417 42 388 26T322 3T261 -5Q214 -5 170 12T97 60Q73 88 59 127T45 212Q45 250 59 288ZM241 347T219 339T183 315Q165 296 159 285T150 253Q175 245 254 245Q297 245 320 258T344 292Q344
313 318 330T263 347Q241 347 219 339Z" />
<glyph unicode="f" glyph-name="f" horiz-adv-x="379" d="M332 521T319 528T301 549Q291 576 280 587T252 599Q242 599 234 584T221 537Q214 471 214 436Q229 433 256 433Q270 433 292 435L319 436Q337 436 347 429T357 406Q357 383 343 368T310 353Q238 353 213
346Q213 286 219 174Q219 157 221 125L225 48Q227 19 220 8T188 -4Q144 -4 131 49Q123 87 119 157T114 282Q114 310 117 347Q115 348 106 348Q97 348 93 347Q63 345 49 345Q40 345 31 358T22 388Q22 398 29 406T46 419Q61 427 89 427H119Q119 567 150 622Q180 674
249 674Q281 674 310 661T358 625T377 573Q377 542 369 532T346 521Q332 521 319 528Z" />
<glyph unicode="g" glyph-name="g" horiz-adv-x="513" d="M441 -17T450 -40T460 -104Q460 -124 449 -144T425 -173Q330 -225 235 -225Q188 -225 154 -213T90 -181Q70 -166 58 -140T45 -87Q45 -51 67 -24T128 15Q121 30 121 50Q121 69 149 107Q101 123 74 164T46
260Q46 294 62 320T110 382Q132 406 166 417T251 428Q287 428 340 412Q403 456 451 456Q463 456 478 450T502 438Q508 427 508 401Q508 391 500 382T478 372L454 373Q436 375 426 375Q415 375 393 373Q414 348 425 320T437 247Q437 213 412 176T353 118Q301 90
232 89Q224 81 219 75T213 64Q213 53 232 47T290 38Q320 36 356 26T414 2Q441 -17 450 -40ZM284 171T312 196T340 267Q340 302 315 324T251 346Q226 346 198 338T157 311Q151 303 145 281T139 246Q139 229 153 212T191 183T238 171Q284 171 312 196ZM246 -41T224
-37T187 -26Q136 -53 136 -85Q136 -115 167 -130T238 -146Q256 -146 287 -142T339 -128Q353 -121 360 -115T367 -91Q367 -70 345 -59T301 -46Q246 -41 224 -37Z" />
<glyph unicode="h" glyph-name="h" horiz-adv-x="538" d="M174 608T173 574T171 521Q168 470 168 419Q168 381 171 340Q202 385 238 406T325 427Q362 427 394 394T435 317Q438 278 438 222Q438 186 442 128Q444 106 453 87T481 68Q490 68 495 69T506 70Q520 70
525 63T531 43Q531 19 507 7T463 -5Q391 -5 364 55Q349 89 345 143T341 271Q341 343 292 343Q265 343 238 315T192 240T174 143L175 39Q175 17 158 7T126 -4Q104 -4 86 9T68 40Q75 115 75 291Q75 323 70 528L67 620Q67 642 87 658T132 675Q154 675 164 665T174
634Q174 608 173 574Z" />
<glyph unicode="i" glyph-name="i" horiz-adv-x="256" d="M139 639T165 624T191 577Q191 554 170 541T118 527Q89 527 78 542T67 573Q67 603 73 623T104 642Q139 639 165 624ZM184 199V170Q184 131 186 97T193 27Q192 17 178 7T153 -4Q134 -4 115 3T91 22Q85 54
85 79Q85 161 80 263Q76 353 76 389Q76 407 94 420T132 433Q161 433 172 420T184 379V199Z" />
<glyph unicode="j" glyph-name="j" horiz-adv-x="247" d="M132 639T156 625T180 580Q180 557 161 544T112 530Q82 530 71 544T59 573Q59 602 66 622T97 642Q132 639 156 625ZM154 434T167 421T180 392Q180 383 178 361Q175 328 175 295Q175 253 178 212Q180 170
180 151Q184 27 184 -51Q184 -127 147 -165T43 -204Q23 -204 0 -189T-23 -155Q-23 -140 -15 -131T4 -122Q11 -122 22 -125T40 -128Q57 -128 67 -123T83 -98T89 -36Q89 185 78 305Q72 365 72 396Q72 410 86 422T130 434Q154 434 167 421Z" />
<glyph unicode="k" glyph-name="k" horiz-adv-x="517" d="M110 -4T96 3T79 18Q68 58 68 123Q68 243 72 318Q76 407 76 489Q76 513 70 559Q69 567 67 588T65 627Q65 649 80 662T121 675Q141 675 153 663T166 629Q166 597 168 539Q170 485 170 458Q170 428 168 378Q166
348 166 334Q166 290 167 261Q204 298 264 348T357 418Q392 439 403 439Q424 439 439 430T454 404Q454 387 449 377T431 357L302 263Q324 252 339 235T371 193Q405 137 425 111T463 85L488 86Q495 86 500 78T506 55Q506 32 484 18T433 4Q394 4 364 34T307 117Q268
191 230 205L166 153L170 44Q170 18 157 7T130 -4Q110 -4 96 3Z" />
<glyph unicode="l" glyph-name="l" horiz-adv-x="283" d="M165 117T176 97T206 76Q216 76 225 77T243 79Q253 79 260 69T268 47Q268 23 246 10T185 -4Q158 -4 131 12T85 64T67 153Q67 267 71 346Q76 440 76 583Q76 628 81 646Q87 660 100 667T129 675Q144 675
155 670T171 654Q175 642 176 631T178 598Q178 557 175 519Q173 473 173 452Q165 276 165 155Q165 117 176 97Z" />
<glyph unicode="m" glyph-name="m" horiz-adv-x="841" d="M669 63T665 97T661 193Q661 251 645 294T579 337Q560 337 542 326T514 297Q500 270 495 239T490 166Q490 140 493 113Q493 105 494 88T496 56Q496 -4 454 -4Q399 -4 396 54Q396 95 397 98V141Q397 177
394 211T387 262Q378 295 364 313T318 331Q274 331 247 293Q228 263 222 220Q216 165 214 134T211 61Q211 32 202 14T166 -4Q147 -4 127 6T106 35Q106 54 110 73Q119 130 119 277Q119 301 108 323T80 346Q76 346 66 342T50 338Q37 338 27 350T16 370Q16 395 40
412T92 430Q129 430 155 407T195 343Q218 383 257 407T344 432Q374 432 392 425T423 404T454 363Q479 395 518 413T600 431Q650 431 690 391T744 297Q751 270 751 193L755 135Q760 83 789 72Q823 62 823 51Q823 27 811 16Q802 10 786 3T761 -4Q707 -4 684 35Q669
63 665 97Z" />
<glyph unicode="n" glyph-name="n" horiz-adv-x="565" d="M514 75T525 72T541 66T546 57Q547 33 529 18T485 2Q446 2 424 23T392 87Q388 104 388 134Q388 151 390 189Q392 229 392 253Q392 288 373 314T318 341Q297 341 274 329T242 298Q227 269 221 235Q210 175
210 110Q210 79 211 62Q211 58 211 47T210 26T201 8Q196 3 186 0T166 -4Q152 -4 131 8T107 35L106 52Q106 61 108 73Q120 143 120 195Q120 218 119 231L118 278Q118 302 106 324T78 347Q73 347 64 344T49 340Q39 340 28 350T16 371Q16 392 30 405Q45 417 59 424T93
431Q109 431 119 428T146 415Q155 410 167 393T187 345Q213 393 251 412T350 432Q373 432 399 417T445 382Q463 360 475 328T487 269Q487 254 485 220Q482 193 482 163Q482 93 509 77Q514 75 525 72Z" />
<glyph unicode="o" glyph-name="o" horiz-adv-x="512" d="M457 307T462 281T467 233Q467 194 450 122Q381 -4 246 -4Q196 -4 144 29T72 105Q45 191 45 214Q45 254 62 299T107 377Q124 400 168 416T248 433Q318 433 367 407T449 321Q457 307 462 281ZM367 173T367
227Q367 256 357 284T326 332Q324 334 315 338T291 347T255 352Q199 352 173 307T147 205Q147 195 152 167T162 132Q165 125 177 113T208 91T247 81Q292 81 319 102T362 160Q367 173 367 227Z" />
<glyph unicode="p" glyph-name="p" horiz-adv-x="529" d="M67 348T59 347T43 345Q32 345 23 355T13 373Q13 399 39 413T92 428Q115 428 139 413T176 373Q202 404 240 418T319 432Q365 432 404 403T467 330T490 241Q490 198 481 165T449 97Q423 61 380 38T276 15Q260
15 237 23T199 42Q192 -26 192 -76Q192 -106 195 -133Q197 -165 197 -179Q197 -201 182 -211T149 -222Q113 -222 102 -203T90 -147Q94 -61 100 12Q106 102 106 290Q106 308 99 328T76 348Q67 348 59 347ZM208 122T231 110T274 97Q331 97 359 128Q380 150 386 171T393
238Q393 274 379 298T345 334T307 346Q266 346 241 322T208 255Q203 222 203 141Q208 122 231 110Z" />
<glyph unicode="q" glyph-name="q" horiz-adv-x="512" d="M433 435T447 427T462 399Q462 386 450 340Q441 304 440 295Q428 203 428 34Q428 -17 431 -50T439 -132Q443 -166 443 -172Q443 -193 429 -208T397 -224Q373 -224 363 -214T348 -185Q343 -150 339 -98T334
-5Q334 18 335 39T336 67Q317 44 282 32T215 19Q176 19 150 29T94 69Q69 94 54 126T38 193Q38 240 48 284T80 358Q112 395 158 413T252 432Q278 432 307 420T359 389Q368 412 384 423T418 435Q433 435 447 427ZM259 100T288 119T327 168Q334 213 336 302Q320 323
296 333T254 344Q231 344 205 335T165 309Q137 266 137 206Q137 180 142 162T162 132Q181 117 196 109T230 100Q259 100 288 119Z" />
<glyph unicode="r" glyph-name="r" horiz-adv-x="397" d="M201 23T188 10T156 -3Q126 -3 112 8T98 51Q98 88 96 148Q94 198 94 232Q94 248 96 274Q98 298 98 310Q95 329 83 341T52 354Q43 354 37 362T31 380Q31 403 49 415T94 427Q148 427 169 363Q195 393 228
411T293 430Q330 430 360 410T391 356Q391 337 375 317T341 297Q332 297 326 301T310 315Q300 325 293 329T277 334Q261 334 247 329T228 317Q212 292 205 272T197 229Q197 212 196 202L195 145Q195 132 196 116T198 92Q201 65 201 40Q201 23 188 10Z" />
<glyph unicode="s" glyph-name="s" horiz-adv-x="445" d="M341 220T364 207T396 175T404 125Q404 89 383 62T329 19Q305 8 271 2T216 -4Q196 -4 165 2T121 13Q90 31 68 57T45 110Q45 130 58 141T92 153Q102 153 113 146T128 130Q139 104 165 91T218 78Q253 78
283 89T313 121Q313 130 309 135T296 147Q282 157 254 163T218 172Q177 181 138 199Q99 218 76 244T53 311Q53 338 73 367T118 409Q136 416 178 424T236 432Q259 432 286 428T327 413Q354 397 371 380T388 340Q388 329 383 317T371 301Q356 294 336 294Q327 294
322 299T307 315Q296 332 286 335Q274 338 251 342T220 347Q197 347 173 334T148 304Q148 295 155 290T171 281T183 276Q204 266 229 259T261 250Q315 237 333 225Q341 220 364 207Z" />
<glyph unicode="t" glyph-name="t" horiz-adv-x="376" d="M53 346Q39 348 31 358T22 382Q22 389 25 397T36 411Q49 424 106 424Q114 463 114 503Q114 518 113 529T112 546Q112 568 128 579T166 590Q192 590 201 577T211 529Q211 477 202 427Q218 427 246 429Q284
431 301 431Q318 431 330 423T343 399Q343 360 308 353Q271 344 193 342Q190 303 190 257Q190 185 199 139Q205 107 219 93T263 78Q280 78 298 87Q310 94 320 94Q334 94 340 85T347 61Q347 33 317 15T240 -4Q211 -4 182 10T132 45Q129 48 121 68T107 111Q97 158
97 243Q97 280 101 342L53 346Z" />
<glyph unicode="u" glyph-name="u" horiz-adv-x="553" d="M26 337T20 343T13 359Q13 382 33 402Q39 405 57 412T89 419Q127 419 151 399T175 340Q175 329 171 293Q167 251 167 228Q167 158 186 115Q193 101 208 93T235 85Q264 85 282 95T321 127Q342 149 348 177T358
254Q360 286 362 301Q367 349 367 383Q367 405 379 419T412 434Q424 434 439 427T460 409Q466 399 466 376Q466 364 463 353Q456 328 456 293L457 241Q457 170 467 136Q472 120 481 104T498 76Q518 54 524 46T530 29Q530 17 519 7T494 -4Q457 -4 430 21T390 86Q356
47 327 23Q307 9 278 3T220 -4Q181 -4 141 28T87 102Q86 104 82 118T77 160Q77 197 81 253Q84 289 84 319Q84 328 78 334T63 340Q57 340 50 339T34 337Q26 337 20 343Z" />
<glyph unicode="v" glyph-name="v" horiz-adv-x="463" d="M288 265T306 315T341 391Q367 432 387 432Q415 432 430 422T445 392Q445 383 438 367T429 348Q389 260 357 159L336 81Q324 43 295 20T227 -4Q192 -4 162 28Q144 56 125 99T91 183L56 288Q45 319 39 341T32
381Q31 402 44 415T80 428Q106 428 117 418T137 385Q141 362 159 291L166 263Q175 229 189 194T217 127Q215 132 231 94Q241 123 254 165L285 257Q288 265 306 315Z" />
<glyph unicode="w" glyph-name="w" horiz-adv-x="681" d="M521 260T528 298Q538 343 544 366T560 405Q571 423 579 429T598 435Q650 435 650 395Q650 375 634 320Q581 160 558 72Q548 35 528 16T474 -4Q457 -4 440 12T411 53L400 80Q372 151 359 189T341 259L332
227Q308 141 282 67Q269 29 250 13T201 -4Q183 -4 170 4T144 31Q128 57 114 101T72 238Q59 278 48 322T37 385Q37 406 48 418T80 430Q107 430 118 420T138 388Q143 352 160 286L182 192Q184 181 194 146L202 117Q224 164 239 207T272 313Q273 317 292 382Q305 403
315 413T335 424Q355 424 369 412T391 381Q403 342 412 310Q416 297 430 248T457 164T477 116L515 238Q521 260 528 298Z" />
<glyph unicode="x" glyph-name="x" horiz-adv-x="495" d="M411 441T422 432T434 408Q434 398 431 388T423 366Q400 312 326 215Q402 117 449 89Q453 87 464 82T481 70T488 54Q488 32 472 19T432 5Q393 5 347 48T269 140Q246 105 217 71T162 12Q152 1 139 -5T112
-11Q94 -11 80 -3T66 25Q66 30 73 41T81 55Q93 76 113 98T138 127Q150 142 164 156Q172 165 188 184T210 214L175 262Q150 291 132 308T103 326Q87 326 73 317Q61 309 49 309Q36 309 29 315T22 330Q22 364 49 388T117 413Q156 413 186 387T247 316Q251 312 256
303T266 288Q277 304 306 350Q337 405 343 413Q364 441 391 441Q411 441 422 432Z" />
<glyph unicode="y" glyph-name="y" horiz-adv-x="469" d="M124 -204T99 -192T61 -162T48 -131Q48 -114 60 -105T89 -95Q99 -95 108 -101T118 -108Q125 -113 132 -116T147 -120Q169 -120 183 -91T211 3Q166 69 136 135L113 188Q108 200 86 250T41 340Q27 368 27
378Q27 403 44 415T85 427Q101 427 109 421T129 397Q158 349 192 253Q212 198 224 170T253 112Q270 151 296 245Q312 299 322 331T346 391Q355 409 368 420T399 431Q416 431 435 419T455 389Q455 379 448 365Q409 275 380 196T323 21Q307 -32 290 -80T265 -139Q245
-167 220 -185T162 -204Q124 -204 99 -192Z" />
<glyph unicode="z" glyph-name="z" horiz-adv-x="464" d="M378 306T342 268T250 178Q197 128 191 121L157 90Q177 86 232 86Q254 86 296 94Q336 102 355 102Q371 102 391 97T430 82Q439 78 445 67T451 45Q451 32 442 16T421 0Q410 0 392 4Q365 9 354 9Q319 9 261
4Q181 -2 143 -2Q95 -2 68 10T40 55Q40 80 65 112T126 181L140 196Q156 212 194 244Q232 277 252 296T285 338L125 337Q86 337 68 346T49 380Q49 394 59 406T85 422Q121 427 232 427Q343 427 385 416Q396 412 402 402T409 380Q409 362 399 342Q378 306 342 268Z"
/>
<glyph unicode="{" glyph-name="braceleft" horiz-adv-x="347" d="M213 532T213 474L214 434V395Q214 342 204 306T157 229Q178 210 185 164T193 50Q194 -25 200 -66T233 -128Q244 -137 258 -140T291 -144Q313 -146 322 -150T332 -170Q332 -193 311 -205T257 -217Q204
-217 161 -178T108 -86Q104 -67 104 -40Q104 -24 106 10L107 60Q107 130 95 155Q89 169 62 185Q43 197 35 205T27 229Q27 241 32 252Q38 261 47 267T67 278Q87 289 94 296Q112 312 116 339T121 417V448Q121 529 135 581T196 652Q213 659 241 659Q273 659 298 651T323
625Q323 594 311 587T283 580T262 581Q239 581 230 566Q213 532 213 474Z" />
<glyph unicode="|" glyph-name="bar" horiz-adv-x="289" d="M192 32T197 -118L199 -203Q199 -218 189 -232T150 -246Q131 -246 121 -241T106 -231T101 -223Q100 -222 99 -218T97 -202T95 -175Q95 31 94 46Q93 55 92 178T90 373Q90 408 93 496L96 663Q96 691 112
702T148 714Q167 714 183 703T199 670Q199 654 198 643Q194 531 194 425V373L192 85Q192 32 197 -118Z" />
<glyph unicode="}" glyph-name="braceright" horiz-adv-x="343" d="M108 575T100 577T78 580Q74 580 56 580T29 590T20 625Q20 642 45 650T102 659Q129 659 147 652Q194 633 207 582T221 448V417Q221 367 226 340T249 296Q256 289 276 278Q286 273 295 267T310
252Q316 239 316 228Q316 214 307 205T281 185Q255 170 247 155Q236 129 236 60L237 10Q238 -7 238 -40Q238 -72 235 -86Q225 -139 182 -178T85 -217Q53 -217 32 -205T11 -170Q11 -155 20 -151T52 -144Q71 -143 85 -140T110 -128Q135 -108 141 -68T150 50Q151 118
157 164T185 229Q149 270 139 306T129 395V434V473Q129 533 112 566Q108 575 100 577Z" />
<glyph unicode="~" glyph-name="asciitilde" horiz-adv-x="515" d="M465 297T482 284T499 248Q499 226 476 204T418 167T352 152Q325 152 302 161T242 190Q201 215 181 215Q172 215 163 210T145 198T130 187Q112 175 101 169T76 162Q64 162 51 177T37 212Q37 236
57 260T110 300T174 316Q220 316 284 280Q286 279 304 267Q318 257 327 253T351 248Q359 248 368 253T387 266T405 279Q433 297 449 297Q465 297 482 284Z" />
<glyph unicode="&#xa0;" glyph-name="uni00A0" horiz-adv-x="225" />
<glyph unicode="&#xa1;" glyph-name="exclamdown" horiz-adv-x="252" d="M58 308T58 359Q58 384 75 405T117 427Q147 427 165 409T184 365Q184 344 168 326T127 308Q58 308 58 359ZM74 -93T80 5Q81 23 83 69T85 155Q85 200 84 222Q85 239 95 247T122 256Q138 256
151 248T167 227Q179 143 179 23L178 -125Q178 -162 169 -185T127 -209Q100 -209 87 -192T74 -148Q74 -93 80 5Z" />
<glyph unicode="&#xa2;" glyph-name="cent" horiz-adv-x="469" d="M408 290T363 290Q348 290 338 297T316 318L312 320L276 215L234 91Q254 84 275 84Q304 84 348 107Q364 115 375 119T398 123Q409 123 423 113T437 88Q437 58 409 38T341 7T263 -4Q234 -4 205
4Q193 -34 191 -45Q188 -52 181 -57T166 -62Q153 -62 142 -53T131 -31Q131 -24 133 -17T137 -8L148 26Q100 53 72 99T43 205Q43 269 72 322T150 405T257 435Q271 435 286 432Q301 474 306 490Q310 502 318 508T334 514Q348 514 357 506T367 484Q367 472 354 435Q348
421 346 414Q373 401 390 381T408 334Q408 290 363 290ZM231 349T205 332T162 284T146 217Q146 186 154 163T181 123Q194 166 224 250L259 351Q231 349 205 332Z" />
<glyph unicode="&#xa3;" glyph-name="sterling" horiz-adv-x="535" d="M471 125T485 110T499 80Q499 45 463 23T367 0Q335 0 302 17T243 61Q215 27 188 13T115 -2Q96 -2 76 9T41 40T27 79Q27 106 34 124T51 150T79 175Q115 199 153 200Q174 200 195 191Q208 224
208 246Q208 253 192 280Q170 281 137 281Q131 281 103 281T64 292T53 326Q53 342 70 347T130 353H145Q102 421 102 468Q102 511 129 548T200 607T295 629Q340 629 378 609T440 560T463 503Q463 485 450 473T418 461Q388 461 373 486Q358 512 350 522T330 537T294
542Q254 542 227 523Q211 512 206 498T201 453Q201 436 211 417T235 379T253 353H379Q409 353 421 344T434 310Q434 292 404 285T345 278H294Q303 257 303 235Q303 184 282 136Q296 128 309 118Q330 102 346 94T384 85Q404 85 433 110Q448 125 462 125Q471 125
485 110ZM186 109T179 114T162 125T141 130Q125 130 114 118T103 94Q103 82 109 74T128 65Q152 65 179 94L188 107Q186 109 179 114Z" />
<glyph unicode="&#xa4;" glyph-name="currency" horiz-adv-x="567" d="M531 477T450 398Q466 373 466 326Q466 295 455 265T427 217Q436 210 453 193Q466 180 471 176Q485 165 493 155T501 127Q501 110 490 97T458 84Q446 84 433 93T399 121Q388 132 383 136Q380
138 373 144T363 154Q313 123 277 123Q245 123 222 128T169 149Q156 139 140 119Q120 95 107 85T76 74Q65 74 51 85T36 111Q36 120 47 136T74 169Q76 171 90 186T110 215Q80 252 80 312Q80 346 90 376T121 428L100 450Q84 464 77 472Q73 478 64 486T50 502T45 520Q45
556 98 556Q105 556 113 553T128 544Q141 536 155 521T172 502Q177 497 182 491T191 483Q206 492 231 497T278 503Q307 503 333 493T391 461Q399 465 405 473T417 489Q421 498 428 506L443 523Q455 538 463 545T479 553Q498 553 514 542T531 514Q531 477 450 398ZM374
344T358 366T317 403T265 417Q239 417 216 403T180 366T166 321Q166 292 179 265T217 220T274 202Q294 202 314 212T350 241Q374 269 374 318Q374 344 358 366Z" />
<glyph unicode="&#xa5;" glyph-name="yen" horiz-adv-x="560" d="M454 297T466 289T478 260Q478 246 448 240T390 234Q361 234 336 235Q336 202 337 188H424Q454 188 466 181T478 152Q478 138 449 132T390 126Q363 126 338 127L341 99Q345 72 345 56Q345 23 333
12T293 0Q272 0 254 12T235 43L237 129Q215 130 182 130Q174 130 147 130T109 138T98 166Q98 179 115 183T175 188H236Q236 219 235 237Q214 238 182 238Q175 238 147 238T109 246T98 274Q98 288 116 292T175 297H216Q196 332 165 377T110 446Q66 490 41 525T16
576Q16 597 35 609T78 622Q91 622 105 615T129 595Q188 507 234 449Q237 445 271 399L283 382Q313 413 335 445T385 523Q407 561 419 579L436 605Q455 631 495 631Q514 631 532 620T551 587Q551 569 520 534Q505 516 476 476T433 415Q396 359 350 297H424Q454 297
466 289Z" />
<glyph unicode="&#xa6;" glyph-name="brokenbar" horiz-adv-x="283" d="M191 354T181 341T145 328Q126 328 115 333T100 343T95 351Q94 353 92 364T90 399L91 545Q91 577 106 586T143 595Q162 595 177 584T193 551L192 432Q191 406 191 367Q191 354 181 341ZM191
-102T181 -114T145 -127Q126 -127 115 -122T100 -112T95 -104Q94 -102 92 -91T90 -57L91 90Q91 113 108 126T143 139Q163 139 178 130T193 95Q193 80 191 44Q188 17 188 -9Q188 -20 190 -50L191 -88Q191 -102 181 -114Z" />
<glyph unicode="&#xa7;" glyph-name="section" horiz-adv-x="520" d="M67 567T91 603T145 654Q165 663 210 672T273 682Q298 682 330 676T378 659Q411 638 428 620T446 575Q446 563 441 552T427 537Q411 529 390 529Q381 529 374 535T359 553Q354 560 348 566T335
575Q326 580 300 586T255 592Q229 592 200 573T171 531Q171 512 183 497T211 474Q230 465 270 449Q312 432 337 420T384 393Q429 363 447 333T466 246Q466 207 445 173T390 115Q426 91 443 62T460 -13Q460 -55 437 -80T373 -128Q342 -144 311 -151T239 -159Q209
-159 183 -149T142 -131T123 -121Q90 -89 72 -65T54 -9Q54 15 68 29T106 44Q118 44 130 32T147 8Q158 -27 187 -44T247 -62Q292 -62 325 -48T358 -8Q358 17 326 43T255 82Q239 87 209 100T151 128Q58 175 58 268Q58 307 83 345T144 406Q110 432 89 462T67 534Q67
567 91 603ZM372 267T364 284T349 305Q337 316 322 323T283 340Q256 351 242 359Q212 351 185 328T157 281Q157 227 196 209L302 162Q329 172 350 196T372 247Q372 267 364 284Z" />
<glyph unicode="&#xa8;" glyph-name="dieresis" horiz-adv-x="522" d="M188 661T208 648T229 607Q229 588 213 577T172 566Q148 566 139 578T129 605Q129 628 135 644T161 661Q188 661 208 648ZM356 661T377 648T398 607Q398 588 382 577T340 566Q316 566 307
578T297 605Q297 628 303 644T329 661Q356 661 377 648Z" />
<glyph unicode="&#xa9;" glyph-name="copyright" horiz-adv-x="734" d="M682 267T661 201T601 101Q542 50 489 25T372 0Q292 0 225 28T121 112Q116 119 96 150T64 223T52 314Q52 412 101 489T221 605Q250 621 303 628T401 636Q437 636 476 623T538 597Q558 585
588 559T627 519Q645 488 663 439T682 333Q682 267 661 201ZM128 349T128 303Q128 239 157 186T235 103T343 73Q475 73 539 140T603 354Q603 408 574 457T501 536T415 566Q291 566 228 520T140 389Q128 349 128 303ZM486 252T496 243T506 222Q506 204 493 190Q470
164 440 155T369 146Q332 146 294 163T235 206Q223 222 214 251T204 300Q204 349 219 390T261 455Q280 473 315 481T380 490Q417 490 438 480T480 445Q489 434 492 427T496 413Q496 403 486 393T463 382Q439 382 429 399Q422 410 412 417T380 425Q360 425 335 416T300
394Q290 383 283 358T276 310Q276 270 302 241T378 211Q417 211 440 234L445 239Q455 252 474 252Q486 252 496 243Z" />
<glyph unicode="&#xaa;" glyph-name="ordfeminine" horiz-adv-x="367" d="M352 357T336 347T305 337Q280 337 265 343T236 367Q218 351 187 344T130 336Q87 336 59 359T31 427Q31 460 69 492Q105 522 168 522Q182 522 201 517T232 505V512Q232 546 214 562T157
578Q142 578 127 570T109 560Q93 549 73 549Q67 549 62 557T56 573Q56 593 75 607T120 629T166 637Q186 637 213 629T257 607Q278 590 289 566T301 513Q301 495 300 486L299 454Q299 444 298 434T296 410Q296 402 302 397T317 391H336Q343 391 347 386T352 372Q352
357 336 347ZM159 393T178 398T226 420Q228 428 229 450Q207 460 194 464T168 468Q140 468 120 458T99 422Q99 409 109 401T130 393Q159 393 178 398Z" />
<glyph unicode="&#xab;" glyph-name="guillemotleft" horiz-adv-x="405" d="M196 119T196 89Q196 72 184 62T160 51Q146 51 107 91L88 112Q70 134 60 143Q51 150 42 166T33 199Q33 215 41 226T65 253L85 274Q122 311 130 318Q152 335 171 335Q182 335 189 327T196
306Q196 282 183 264T143 224Q126 210 115 198L135 177L150 162Q196 119 196 89ZM364 119T364 89Q364 72 352 62T328 51Q315 51 276 91Q265 102 253 117Q247 123 242 129T230 141Q220 150 211 166T202 199Q202 215 209 226T233 253Q254 274 254 274Q289 309 300
318Q319 335 339 335Q351 335 357 327T364 306Q364 282 351 265T312 224Q297 212 283 198Q290 189 301 179T319 162Q364 119 364 89Z" />
<glyph unicode="&#xac;" glyph-name="logicalnot" horiz-adv-x="536" d="M448 360T467 351T487 310Q487 260 484 204L483 151Q483 137 473 125T443 113Q420 113 406 123T391 154Q391 160 392 194T394 266L211 269L151 267L108 266Q84 266 62 274T40 307Q40 338
59 348T112 359Q135 359 204 356L301 354L363 357Q402 360 421 360Q448 360 467 351Z" />
<glyph unicode="&#xad;" glyph-name="uni00AD" horiz-adv-x="401" d="M365 265T365 213Q365 186 347 174T301 162Q293 162 284 163T265 165Q235 170 211 170Q194 170 160 166Q124 162 105 162Q78 162 57 172T36 208Q36 243 62 253T135 264L168 263Q192 261 205
261L278 263L319 265Q365 265 365 213Z" />
<glyph unicode="&#xae;" glyph-name="registered" horiz-adv-x="734" d="M682 267T662 201T602 101Q542 50 489 25T372 0Q292 0 226 28T122 112Q118 118 97 149T64 222T52 314Q52 412 101 489T221 605Q250 621 303 628T401 636Q437 636 477 623T538 597Q558 586
589 560T628 519Q682 421 682 333Q682 267 662 201ZM129 348T129 303Q129 239 158 186T236 103T344 73Q475 73 539 140T603 354Q603 408 575 457T502 536T416 566Q292 566 229 520T140 389Q129 348 129 303ZM511 176T511 168Q511 156 500 150T475 143Q456 143 436
158Q418 171 404 192T373 244Q368 252 366 257T361 266Q346 262 310 258Q310 245 312 219Q315 198 315 173Q315 160 304 152T277 143Q259 143 250 157Q242 173 240 194T237 246Q237 281 240 314Q243 346 243 373Q243 387 241 413Q238 433 238 454Q238 465 245 472T261
482Q302 490 346 490Q424 490 468 461T512 378Q512 361 504 344T483 316Q453 293 427 285Q443 258 459 237T502 186Q511 176 511 168ZM312 411T312 405Q312 385 311 373L310 323Q333 323 368 331Q440 351 440 380Q440 402 415 415T346 428Q327 428 310 425Q312
411 312 405Z" />
<glyph unicode="&#xaf;" glyph-name="overscore" horiz-adv-x="450" d="M118 680T72 678L46 677Q15 677 5 683T-5 712Q-5 735 47 743T198 751Q313 751 384 748T456 732Q456 711 447 701T417 687T353 683L165 680Q118 680 72 678Z" />
<glyph unicode="&#xb0;" glyph-name="degree" horiz-adv-x="295" d="M264 504T257 481T234 446Q211 427 192 418T148 409Q119 409 95 420T58 451Q55 455 47 465T35 489T31 521Q31 556 49 583T94 626Q105 631 125 634T160 637Q182 637 211 624Q264 583 264 528Q264
504 257 481ZM94 499T108 486T142 472Q171 472 185 485T199 531Q199 548 186 561T158 574Q130 574 112 560T94 519Q94 499 108 486Z" />
<glyph unicode="&#xb1;" glyph-name="plusminus" horiz-adv-x="529" d="M99 229T79 236T58 270Q58 286 68 298Q85 314 131 314L169 313Q199 311 219 311Q219 325 218 332L217 353Q217 436 263 436Q278 436 288 430T299 409L298 359Q297 344 297 317Q314 311 341
311Q351 311 377 313Q397 316 418 316Q439 316 455 309T471 277Q471 247 454 239T405 231L345 232Q317 232 303 230Q300 221 300 210Q300 202 302 182Q305 169 305 153Q305 112 260 112Q235 112 226 151Q220 176 220 226Q211 231 184 231Q167 231 158 230L125 229Q99
229 79 236ZM465 90T465 51Q465 32 454 22Q446 12 430 7T394 1Q379 1 367 2T344 4L320 5Q278 7 255 7Q238 7 198 3Q158 -1 133 -1Q115 -1 95 6T75 32Q75 54 80 64T98 82Q112 89 160 89Q167 89 181 89T233 88Q253 88 264 89Q271 89 283 89T312 89Q319 88 334 88Q352
88 362 89L401 90Q465 90 465 51Z" />
<glyph unicode="&#xb2;" glyph-name="uni00B2" horiz-adv-x="312" d="M261 358T271 346T281 311Q281 297 270 290T242 283Q230 283 200 285Q176 288 148 288L118 287Q96 285 83 285Q62 285 46 291T29 322Q29 338 43 355T84 398Q115 429 115 429Q121 436 144 461T180
507T193 543Q193 557 181 566T154 575Q120 575 109 562T97 526Q97 516 90 508T68 500Q51 500 42 512T32 547Q32 588 67 615T157 642Q182 642 207 630T249 596T265 551Q265 462 133 355Q155 354 200 356Q226 358 238 358Q261 358 271 346Z" />
<glyph unicode="&#xb3;" glyph-name="uni00B3" horiz-adv-x="328" d="M252 499T277 470T303 404Q303 380 292 355Q275 321 237 302T148 283Q116 283 92 295T45 329Q20 352 20 378Q20 392 29 401T54 411Q70 411 79 404T101 382Q111 367 121 360T148 352Q196 352
212 369T229 413Q229 422 217 433T195 449Q189 452 169 456Q141 463 127 470T112 495Q112 506 118 513T133 526T148 538Q155 543 163 554T175 572Q151 572 139 571L103 570Q81 570 66 578T50 601Q50 613 53 621T67 634Q78 638 90 638L134 637Q164 635 181 635L204
636Q268 636 268 600Q268 580 252 557T211 513Q252 499 277 470Z" />
<glyph unicode="&#xb4;" glyph-name="acute" horiz-adv-x="517" d="M320 693T333 684T346 661Q346 634 321 609T266 567Q251 558 228 552T192 546Q171 546 171 566Q171 572 175 577T192 592Q196 596 204 603T221 621T238 650Q249 674 263 683T299 693Q320 693 333 684Z" />
<glyph unicode="&#xb5;" glyph-name="uni00B5" horiz-adv-x="557" d="M522 55T528 46T535 30Q535 18 523 8T498 -3Q460 -3 433 22T393 87Q355 40 336 24Q298 -3 239 -3Q226 -3 199 7T157 35Q154 -87 154 -182Q154 -198 142 -209T110 -221Q90 -221 75 -205T59 -161Q59
-142 63 -42Q68 118 68 151Q68 243 70 333L71 377Q71 408 86 422T127 436Q148 436 156 424T166 396T168 341Q168 319 165 286Q161 234 161 209Q161 140 180 116Q187 103 206 95T238 86Q268 86 286 96T325 128Q346 150 352 178T361 255Q363 287 365 303Q371 347
371 385Q371 407 383 421T416 436Q427 436 442 429T463 411Q470 399 470 378Q470 355 466 305Q461 245 461 229Q461 171 471 137Q484 99 501 77Q522 55 528 46Z" />
<glyph unicode="&#xb6;" glyph-name="paragraph" horiz-adv-x="544" d="M439 444T437 253V211Q437 90 441 -7Q441 -15 443 -41Q447 -83 447 -109Q447 -141 431 -161T384 -182Q366 -182 360 -164T353 -115L354 -69L353 226Q353 417 360 528L308 527Q274 527 258
531Q258 461 254 383T249 287Q241 137 241 72L242 31Q245 -35 245 -135Q245 -161 228 -173T187 -186Q162 -186 155 -169T147 -106Q147 -32 150 82T157 278Q109 298 77 333T45 415Q45 479 62 514T121 579Q142 593 155 599T193 612Q212 617 241 617L285 616Q315 614
329 614Q353 614 364 616Q383 620 433 620H489Q506 620 520 608T535 575Q535 553 528 543T503 529T445 525Q439 444 437 253Z" />
<glyph unicode="&#xb7;" glyph-name="middot" horiz-adv-x="240" d="M97 255T76 275T54 325Q54 352 70 371T111 391Q145 391 165 369T186 316Q186 290 167 273T123 255Q97 255 76 275Z" />
<glyph unicode="&#xb8;" glyph-name="cedilla" horiz-adv-x="522" d="M183 -65T189 -56T207 -35Q229 -10 244 4T271 18Q285 18 292 11T299 -13Q299 -20 281 -40L267 -58Q308 -62 332 -81T357 -137Q357 -170 316 -202Q302 -212 277 -218T218 -225Q194 -225 176
-213T158 -180Q158 -172 166 -166T182 -160Q192 -160 201 -166T220 -172Q232 -172 246 -169T269 -162Q276 -158 281 -150T286 -131Q286 -111 261 -106T206 -101Q197 -101 190 -92T183 -74Q183 -65 189 -56Z" />
<glyph unicode="&#xb9;" glyph-name="uni00B9" horiz-adv-x="293" d="M239 355T247 346T256 321Q256 284 205 284Q186 284 169 287Q149 289 141 289Q124 289 100 287Q78 285 69 285Q56 285 46 295T36 319Q36 354 71 354Q77 354 91 352T113 351Q113 374 115 418L116
449Q120 521 120 554Q114 552 100 546T73 539Q62 539 55 548T47 571Q47 583 60 594T100 619L118 629Q140 643 152 643Q169 643 183 635T198 613L196 567Q191 484 191 409Q191 390 193 354L225 355Q239 355 247 346Z" />
<glyph unicode="&#xba;" glyph-name="ordmasculine" horiz-adv-x="355" d="M316 548T319 531T323 499Q323 472 311 424Q290 387 251 362T170 337Q135 337 100 359T50 412Q49 417 40 445T31 487Q31 515 43 545T75 598Q87 614 117 626T172 639Q220 639 254 620T310
559Q316 548 319 531ZM250 463T250 499Q250 518 243 531T220 561Q219 562 214 565T200 571T176 574Q137 574 121 547T104 481Q104 474 108 457T115 431Q120 423 137 413T171 402Q191 402 214 417T247 454Q250 463 250 499Z" />
<glyph unicode="&#xbb;" glyph-name="guillemotright" horiz-adv-x="405" d="M91 167T102 178T121 198Q110 210 93 224Q66 247 53 264T40 306Q40 319 47 327T66 335Q86 335 105 318Q121 304 151 274Q151 274 172 253Q187 238 194 227T202 199Q202 183 193 167T175
141Q169 136 164 130T152 117Q140 102 129 91Q90 51 76 51Q65 51 53 61T40 89Q40 119 86 162Q91 167 102 178ZM270 177L290 198Q279 210 262 224Q235 246 222 264T209 306Q209 319 216 327T234 335Q254 335 274 318Q292 303 319 274L340 253Q357 236 364 226T372
199Q372 183 363 167T345 143Q335 134 317 112L298 91Q259 51 245 51Q233 51 221 61T209 89Q209 119 255 162L270 177Z" />
<glyph unicode="&#xbc;" glyph-name="onequarter" horiz-adv-x="770" d="M636 604T626 584Q583 526 471 384Q280 139 216 52Q193 20 177 6T145 -8Q127 -8 116 -1T104 29Q104 41 113 54Q280 244 535 594Q558 628 568 636T599 645Q615 645 625 635T636 612Q636 604
626 584ZM248 355T256 346T265 321Q265 284 214 284Q195 284 178 287Q158 289 150 289Q133 289 109 287Q87 285 78 285Q65 285 55 295T45 319Q45 354 80 354Q86 354 100 352T122 351Q122 374 124 418L125 449Q129 521 129 554Q123 552 109 546T82 539Q71 539 64
548T56 571Q56 583 69 594T109 619L127 629Q149 643 161 643Q178 643 192 635T207 613L205 567Q200 484 200 409Q200 390 202 354L234 355Q248 355 256 346ZM714 161T728 151T743 125Q743 106 737 97T721 87Q713 87 695 89Q679 91 671 91Q671 76 672 67L673 25Q673
-5 641 -5Q625 -5 613 4T600 29Q600 67 602 89Q588 89 554 85Q547 85 533 83Q509 81 498 81Q458 81 444 92T430 119Q430 138 435 155T450 199Q456 214 463 236Q473 267 488 331Q489 342 498 348T522 355Q537 355 546 348T555 330Q555 299 548 270T525 196Q517 175
509 149Q527 149 561 153Q568 154 582 155T607 156V209Q606 239 606 301Q606 348 640 348Q660 348 669 338Q679 329 679 299Q679 275 678 258T676 228Q672 184 672 160Q676 160 681 160T697 161Q714 161 728 151Z" />
<glyph unicode="&#xbd;" glyph-name="onehalf" horiz-adv-x="736" d="M636 604T626 584Q594 540 478 392Q308 178 217 52Q193 20 177 6T145 -8Q127 -8 116 -1T104 29Q104 41 113 54Q280 244 535 594Q560 628 570 636T599 645Q615 645 625 635T636 612Q636 604
626 584ZM248 355T256 346T265 321Q265 284 214 284Q195 284 178 287Q158 289 150 289Q133 289 109 287Q87 285 78 285Q65 285 55 295T45 319Q45 354 80 354Q86 354 100 352T122 351Q122 374 124 418L125 449Q129 521 129 554Q123 552 109 546T82 539Q71 539 64
548T56 571Q56 583 69 594T109 619L127 629Q149 643 161 643Q178 643 192 635T207 613L205 567Q200 484 200 409Q200 390 202 354L234 355Q248 355 256 346ZM676 70T686 58T696 23Q696 9 685 2T657 -5Q645 -5 615 -3Q591 0 562 0L533 -1Q511 -3 498 -3Q477 -3 461
3T444 34Q444 50 458 67T499 110Q530 141 530 141Q569 185 587 209T606 255Q606 269 594 278T567 287Q533 287 522 274T510 238Q510 228 503 220T481 212Q464 212 455 224T445 259Q445 300 480 327T570 354Q595 354 620 342T662 308T679 263Q679 173 548 67Q570
66 615 68Q641 70 653 70Q676 70 686 58Z" />
<glyph unicode="&#xbe;" glyph-name="threequarters" horiz-adv-x="783" d="M649 606T638 584Q608 543 495 399Q294 143 229 52Q206 20 190 6T157 -8Q139 -8 128 -1T117 29Q117 41 126 54Q280 229 548 594Q572 628 582 636T612 645Q628 645 638 635T649 612Q649
606 638 584ZM268 499T293 470T319 404Q319 380 308 355Q291 321 253 302T164 283Q132 283 108 295T61 329Q36 352 36 378Q36 392 45 401T70 411Q86 411 95 404T117 382Q129 366 138 359T165 352Q213 352 229 369T245 413Q245 422 233 433T211 449Q205 452 185
456Q157 463 143 470T129 495Q129 506 135 513T150 526T165 538Q177 548 191 572Q167 572 155 571L119 570Q97 570 82 578T67 601Q67 613 70 621T84 634Q93 638 106 638L151 637Q181 635 197 635L220 636Q284 636 284 600Q284 580 268 557T227 513Q268 499 293
470ZM727 161T741 151T756 125Q756 106 749 97T733 87Q724 87 708 89Q692 91 684 91Q684 76 685 67L686 25Q686 10 677 3T653 -5Q637 -5 625 4T613 29Q613 67 615 89Q601 89 567 85Q560 85 546 83Q522 81 510 81Q471 81 457 92T443 119Q443 139 448 157T464 203L476
236Q489 276 500 331Q502 342 511 348T535 355Q549 355 558 348T568 330Q568 299 561 270T538 196Q530 175 522 149Q539 149 552 150T574 152Q604 156 620 156Q619 173 619 209Q618 239 618 301Q618 328 628 338T652 348Q674 348 681 338Q687 333 689 325T691 305Q691
267 688 228Q687 217 686 197T685 160Q688 160 694 160T710 161Q727 161 741 151Z" />
<glyph unicode="&#xbf;" glyph-name="questiondown" horiz-adv-x="441" d="M181 315T164 336Q148 351 148 377Q148 399 169 413T216 427Q236 427 251 418Q272 403 272 364Q272 345 254 330T212 315Q181 315 164 336ZM36 -106T36 -58Q36 -24 51 3T98 64Q126 93
139 118T155 165T163 233Q163 256 179 266T212 277Q256 277 256 223Q256 194 246 154T210 67Q201 51 187 35T168 14Q152 -2 141 -21T130 -54Q130 -70 134 -79T148 -99Q161 -114 181 -123T220 -132Q249 -132 274 -122T313 -95T328 -61Q328 -33 317 -19Q306 -6 306
5Q306 12 309 19Q321 47 350 47Q387 47 404 19T421 -52Q421 -92 395 -129T320 -190T206 -214Q165 -214 127 -197T67 -148Q36 -106 36 -58Z" />
<glyph unicode="&#xc0;" glyph-name="Agrave" horiz-adv-x="640" d="M280 842T294 833T320 799Q330 778 338 768T354 751T366 741Q378 731 382 726T386 715Q386 706 381 701T366 695Q353 695 330 701T291 716Q262 733 237 758T212 810Q212 824 225 833T259 842Q280
842 294 833ZM515 32T506 52T487 102Q485 107 476 132T454 175Q391 166 351 166Q329 166 303 167T263 169Q213 173 183 173Q171 157 163 139T141 85Q123 33 110 11Q101 -4 75 -4Q53 -4 35 5T16 32Q24 70 41 112T92 226L132 324Q165 408 192 468T265 610Q271 622
285 630T316 639Q335 639 343 637T357 629T372 606Q406 553 430 497T493 342L514 289Q542 217 562 169T608 80Q624 54 624 44Q624 20 610 8T572 -5Q543 -5 528 15Q515 32 506 52ZM409 291T379 375Q348 465 317 518Q298 470 261 394Q236 347 204 258Q268 250 342
250Q395 250 425 257Q409 291 379 375Z" />
<glyph unicode="&#xc1;" glyph-name="Aacute" horiz-adv-x="640" d="M392 842T404 833T417 810Q417 783 392 758T338 716Q323 707 300 701T264 695Q243 695 243 715Q243 721 247 726T264 741Q268 745 276 752T293 770T309 799Q321 823 335 832T371 842Q392 842
404 833ZM515 32T506 52T487 102Q485 107 476 132T454 175Q391 166 351 166Q329 166 303 167T263 169Q213 173 183 173Q171 157 163 139T141 85Q123 33 110 11Q101 -4 75 -4Q53 -4 35 5T16 32Q24 70 41 112T92 226L132 324Q165 408 192 468T265 610Q271 622 285
630T316 639Q335 639 343 637T357 629T372 606Q406 553 430 497T493 342L514 289Q542 217 562 169T608 80Q624 54 624 44Q624 20 610 8T572 -5Q543 -5 528 15Q515 32 506 52ZM409 291T379 375Q348 465 317 518Q298 470 261 394Q236 347 204 258Q268 250 342 250Q395
250 425 257Q409 291 379 375Z" />
<glyph unicode="&#xc2;" glyph-name="Acircumflex" horiz-adv-x="640" d="M341 838T354 831T377 808Q387 793 407 774T444 743Q466 727 466 711Q466 702 457 693T436 684Q402 684 375 707T320 768Q299 738 265 711T203 684Q187 684 180 692T173 711Q173 719 185
734T213 762Q241 785 262 812Q271 823 283 830T318 838Q341 838 354 831ZM515 32T506 52T487 102Q485 107 476 132T454 175Q391 166 351 166Q329 166 303 167T263 169Q213 173 183 173Q171 157 163 139T141 85Q123 33 110 11Q101 -4 75 -4Q53 -4 35 5T16 32Q24
70 41 112T92 226L132 324Q165 408 192 468T265 610Q271 622 285 630T316 639Q335 639 343 637T357 629T372 606Q406 553 430 497T493 342L514 289Q542 217 562 169T608 80Q624 54 624 44Q624 20 610 8T572 -5Q543 -5 528 15Q515 32 506 52ZM409 291T379 375Q348
465 317 518Q298 470 261 394Q236 347 204 258Q268 250 342 250Q395 250 425 257Q409 291 379 375Z" />
<glyph unicode="&#xc3;" glyph-name="Atilde" horiz-adv-x="640" d="M151 748T169 768T214 799T266 811Q304 811 339 787Q367 767 385 768Q395 768 401 773T410 784T415 792Q421 801 428 805T446 810Q459 810 469 803T480 780Q480 760 466 741T429 709T383 696Q357
696 341 703T306 724Q294 733 287 737T270 741Q240 741 224 717Q208 694 183 694Q173 694 162 702T151 723Q151 748 169 768ZM543 -5T572 -5Q595 -5 609 7T624 44Q624 54 608 80Q583 120 563 168T514 289L493 342Q455 441 431 497T372 606Q362 623 357 628T344
636T316 639Q299 639 285 631T265 610Q220 528 193 468T132 324L92 226Q59 155 42 113T16 32Q16 15 34 6T75 -4Q101 -4 110 11Q123 33 141 85Q154 121 162 139T183 173Q213 173 263 169Q276 169 302 168T351 166Q391 166 454 175Q466 157 475 132T487 102Q497 73
506 53T528 15Q543 -5 572 -5ZM395 250T342 250Q268 250 204 258Q236 347 261 394Q298 470 317 518Q348 465 379 375Q409 291 425 257Q395 250 342 250Z" />
<glyph unicode="&#xc4;" glyph-name="Adieresis" horiz-adv-x="640" d="M242 810T263 797T285 756Q285 737 269 726T227 715Q203 715 194 727T184 754Q184 777 189 793T214 810Q242 810 263 797ZM410 810T431 797T453 756Q453 737 437 726T395 715Q371 715 362
727T352 754Q352 777 357 793T383 810Q410 810 431 797ZM515 32T506 52T487 102Q485 107 476 132T454 175Q391 166 351 166Q329 166 303 167T263 169Q213 173 183 173Q171 157 163 139T141 85Q123 33 110 11Q101 -4 75 -4Q53 -4 35 5T16 32Q24 70 41 112T92 226L132
324Q165 408 192 468T265 610Q271 622 285 630T316 639Q335 639 343 637T357 629T372 606Q406 553 430 497T493 342L514 289Q542 217 562 169T608 80Q624 54 624 44Q624 20 610 8T572 -5Q543 -5 528 15Q515 32 506 52ZM409 291T379 375Q348 465 317 518Q298 470
261 394Q236 347 204 258Q268 250 342 250Q395 250 425 257Q409 291 379 375Z" />
<glyph unicode="&#xc5;" glyph-name="Aring" horiz-adv-x="641" d="M304 659T281 663T247 679Q229 697 220 714T211 751Q211 771 225 792T261 828T309 843Q418 843 418 744Q418 726 404 706T368 673T328 659Q304 659 281 663ZM299 793T286 779T272 749Q272 732
283 721T310 709Q359 709 359 745Q359 764 345 778T310 793Q299 793 286 779ZM516 37T508 56T487 105Q480 124 472 142T454 175Q391 166 351 166Q329 166 303 167T263 169Q213 173 183 173Q171 157 163 139T141 85Q123 33 110 11Q101 -4 75 -4Q53 -4 35 5T16 32Q24
70 41 112T92 226L132 324Q165 408 192 468T265 610Q271 622 285 630T316 639Q335 639 343 637T357 629T372 606Q406 553 430 497T493 342L505 312Q535 237 558 184T609 85Q611 82 618 69T625 49Q625 24 611 12T573 0Q543 0 529 20Q516 37 508 56ZM413 278T402
311T386 354L379 375Q348 465 317 518Q298 470 261 394Q247 367 233 331T204 255Q259 247 342 247Q395 247 425 254Q413 278 402 311Z" />
<glyph unicode="&#xc6;" glyph-name="AE" horiz-adv-x="842" d="M490 465T490 366Q502 364 531 364Q564 364 620 366L697 367Q720 367 732 359T744 335Q744 311 734 300T691 281Q654 275 592 275H533Q504 275 490 276Q486 223 486 163Q486 135 503 116T576 97Q617
97 645 100T711 109Q749 117 778 117Q793 117 802 104T811 75Q811 53 805 44T778 27Q739 11 690 6T569 0Q478 0 431 45T384 174Q362 171 334 171Q292 171 244 175T187 181Q176 169 166 148T140 88Q118 30 106 12Q97 -4 67 -4Q48 -4 33 9T17 41Q17 48 18 51Q51 134
141 312T301 597Q308 607 326 616T363 626Q441 635 528 635Q674 635 744 625Q774 620 789 610T805 580Q805 557 793 545T758 532L730 534Q667 539 617 539Q583 539 503 535Q490 465 490 366ZM343 496T296 410T225 258Q258 255 304 255H334Q344 255 357 255T385
255Q385 374 405 530L368 525Q343 496 296 410Z" />
<glyph unicode="&#xc7;" glyph-name="Ccedilla" horiz-adv-x="643" d="M277 -63T288 -51T301 -35Q313 -20 333 -1Q268 4 205 35T107 111Q87 140 69 194T50 283Q50 370 76 448T156 574Q191 606 257 622T378 638Q445 638 483 620T560 555Q575 537 581 526T587 505Q587
493 572 477T541 461Q521 461 509 467T489 486Q473 510 450 527T378 545Q336 545 283 526T206 479Q186 454 172 403T157 304Q157 246 182 198T256 120T373 91Q410 91 449 105T518 153H517Q535 172 562 172Q578 172 592 158T607 130Q607 115 603 104T586 78Q553
40 510 22T409 0L394 -18L362 -58Q403 -62 427 -81T452 -137Q452 -169 410 -202Q396 -212 371 -218T312 -225Q289 -225 271 -213T253 -180Q253 -172 260 -166T276 -160Q286 -160 296 -166T314 -172Q326 -172 341 -169T364 -162Q371 -158 376 -149T381 -131Q381
-101 301 -101Q292 -101 285 -92T277 -74Q277 -63 288 -51Z" />
<glyph unicode="&#xc8;" glyph-name="Egrave" horiz-adv-x="552" d="M243 864T257 855T283 821Q293 800 301 790T317 773T329 763Q341 753 345 748T349 737Q349 728 344 723T329 717Q316 717 293 723T254 738Q225 755 200 780T175 832Q175 846 188 855T222 864Q243
864 257 855ZM501 136T510 122T520 90Q520 69 514 61T489 43Q447 23 385 11T252 -1Q163 -1 122 29T71 101T61 213Q61 287 67 358T88 541Q95 589 126 610T194 632Q225 632 295 634L382 635Q436 635 460 632Q490 626 504 619T519 593Q519 573 506 554T465 535Q434
535 376 539Q318 543 289 543Q264 543 240 540Q212 538 200 533T186 516Q172 413 172 364Q195 361 217 361Q245 361 277 364T318 368Q371 373 409 373Q431 373 442 365T454 343Q454 321 443 309T402 291Q367 284 316 280T215 276Q198 276 168 278Q165 217 165 165Q165
94 259 94Q309 94 342 101T418 121Q458 136 482 136Q501 136 510 122Z" />
<glyph unicode="&#xc9;" glyph-name="Eacute" horiz-adv-x="552" d="M371 864T383 855T396 832Q396 805 371 780T317 738Q302 729 279 723T243 717Q222 717 222 737Q222 743 226 748T243 763Q247 767 255 774T272 792T288 821Q300 845 314 854T350 864Q371 864
383 855ZM501 136T510 122T520 90Q520 69 514 61T489 43Q447 23 385 11T252 -1Q163 -1 122 29T71 101T61 213Q61 287 67 358T88 541Q95 589 126 610T194 632Q225 632 295 634L382 635Q436 635 460 632Q490 626 504 619T519 593Q519 573 506 554T465 535Q434 535
376 539Q318 543 289 543Q264 543 240 540Q212 538 200 533T186 516Q172 413 172 364Q195 361 217 361Q245 361 277 364T318 368Q371 373 409 373Q431 373 442 365T454 343Q454 321 443 309T402 291Q367 284 316 280T215 276Q198 276 168 278Q165 217 165 165Q165
94 259 94Q309 94 342 101T418 121Q458 136 482 136Q501 136 510 122Z" />
<glyph unicode="&#xca;" glyph-name="Ecircumflex" horiz-adv-x="552" d="M334 860T347 853T370 830Q380 815 400 796T437 765Q459 749 459 733Q459 724 450 715T429 706Q395 706 368 729T313 790Q292 760 258 733T196 706Q180 706 173 714T166 733Q166 741 178
756T206 784Q234 807 255 834Q264 845 276 852T311 860Q334 860 347 853ZM501 136T510 122T520 90Q520 69 514 61T489 43Q447 23 385 11T252 -1Q163 -1 122 29T71 101T61 213Q61 287 67 358T88 541Q95 589 126 610T194 632Q225 632 295 634L382 635Q436 635 460
632Q490 626 504 619T519 593Q519 573 506 554T465 535Q434 535 376 539Q318 543 289 543Q264 543 240 540Q212 538 200 533T186 516Q172 413 172 364Q195 361 217 361Q245 361 277 364T318 368Q371 373 409 373Q431 373 442 365T454 343Q454 321 443 309T402 291Q367
284 316 280T215 276Q198 276 168 278Q165 217 165 165Q165 94 259 94Q309 94 342 101T418 121Q458 136 482 136Q501 136 510 122Z" />
<glyph unicode="&#xcb;" glyph-name="Edieresis" horiz-adv-x="552" d="M233 832T254 819T276 778Q276 759 260 748T218 737Q194 737 185 749T175 776Q175 799 180 815T205 832Q233 832 254 819ZM401 832T422 819T444 778Q444 759 428 748T386 737Q362 737 353
749T343 776Q343 799 348 815T374 832Q401 832 422 819ZM501 136T510 122T520 90Q520 69 514 61T489 43Q447 23 385 11T252 -1Q163 -1 122 29T71 101T61 213Q61 287 67 358T88 541Q95 589 126 610T194 632Q225 632 295 634L382 635Q436 635 460 632Q490 626 504
619T519 593Q519 573 506 554T465 535Q434 535 376 539Q318 543 289 543Q264 543 240 540Q212 538 200 533T186 516Q172 413 172 364Q195 361 217 361Q245 361 277 364T318 368Q371 373 409 373Q431 373 442 365T454 343Q454 321 443 309T402 291Q367 284 316 280T215
276Q198 276 168 278Q165 217 165 165Q165 94 259 94Q309 94 342 101T418 121Q458 136 482 136Q501 136 510 122Z" />
<glyph unicode="&#xcc;" glyph-name="Igrave" horiz-adv-x="373" d="M144 864T158 855T184 821Q194 800 202 790T218 773T230 763Q242 753 246 748T250 737Q250 728 245 723T230 717Q217 717 194 723T155 738Q126 755 101 780T76 832Q76 846 89 855T123 864Q144
864 158 855ZM230 488T230 429Q230 368 238 250Q239 232 242 178T245 78Q255 79 266 81T284 83Q306 83 319 72T332 38Q332 23 320 15T279 4T193 0Q131 0 100 4T57 19T45 54Q45 71 56 77T87 83L108 82L141 80L136 198Q130 294 130 374Q130 417 133 492L135 547Q101
545 82 545Q60 545 53 553T45 586Q45 614 83 622T201 630Q262 630 292 626T323 608Q323 574 309 564T253 553L233 552Q230 488 230 429Z" />
<glyph unicode="&#xcd;" glyph-name="Iacute" horiz-adv-x="373" d="M257 864T269 855T282 832Q282 805 257 780T203 738Q188 729 165 723T129 717Q108 717 108 737Q108 743 112 748T129 763Q133 767 141 774T158 792T174 821Q186 845 200 854T236 864Q257 864
269 855ZM230 488T230 429Q230 368 238 250Q239 232 242 178T245 78Q255 79 266 81T284 83Q306 83 319 72T332 38Q332 23 320 15T279 4T193 0Q131 0 100 4T57 19T45 54Q45 71 56 77T87 83L108 82L141 80L136 198Q130 294 130 374Q130 417 133 492L135 547Q101 545
82 545Q60 545 53 553T45 586Q45 614 83 622T201 630Q262 630 292 626T323 608Q323 574 309 564T253 553L233 552Q230 488 230 429Z" />
<glyph unicode="&#xce;" glyph-name="Icircumflex" horiz-adv-x="373" d="M211 860T224 853T247 830Q257 815 277 796T314 765Q336 749 336 733Q336 724 327 715T306 706Q272 706 245 729T190 790Q169 760 135 733T73 706Q57 706 50 714T43 733Q43 741 55 756T83
784Q111 807 132 834Q141 845 153 852T188 860Q211 860 224 853ZM230 488T230 429Q230 368 238 250Q239 232 242 178T245 78Q255 79 266 81T284 83Q306 83 319 72T332 38Q332 23 320 15T279 4T193 0Q131 0 100 4T57 19T45 54Q45 71 56 77T87 83L108 82L141 80L136
198Q130 294 130 374Q130 417 133 492L135 547Q101 545 82 545Q60 545 53 553T45 586Q45 614 83 622T201 630Q262 630 292 626T323 608Q323 574 309 564T253 553L233 552Q230 488 230 429Z" />
<glyph unicode="&#xcf;" glyph-name="Idieresis" horiz-adv-x="373" d="M107 832T128 819T150 778Q150 759 134 748T92 737Q68 737 59 749T49 776Q49 799 54 815T79 832Q107 832 128 819ZM275 832T296 819T318 778Q318 759 302 748T260 737Q236 737 227 749T217
776Q217 799 222 815T248 832Q275 832 296 819ZM230 488T230 429Q230 368 238 250Q239 232 242 178T245 78Q255 79 266 81T284 83Q306 83 319 72T332 38Q332 23 320 15T279 4T193 0Q131 0 100 4T57 19T45 54Q45 71 56 77T87 83L108 82L141 80L136 198Q130 294 130
374Q130 417 133 492L135 547Q101 545 82 545Q60 545 53 553T45 586Q45 614 83 622T201 630Q262 630 292 626T323 608Q323 574 309 564T253 553L233 552Q230 488 230 429Z" />
<glyph unicode="&#xd0;" glyph-name="Eth" horiz-adv-x="680" d="M373 634T451 597T571 513Q603 474 623 425T644 307Q644 257 622 204T562 114Q521 76 487 53T394 15T247 -1Q179 -1 124 14T69 68Q69 83 80 90T108 98Q115 98 123 96Q130 189 130 238V270H121Q88
270 69 281T50 324Q50 342 63 352T103 362L127 360Q125 410 114 511Q108 575 108 586Q108 608 129 623T173 638Q189 638 211 636Q227 634 235 634Q373 634 451 597ZM235 86T257 86T283 86Q348 86 407 114T502 193T539 308Q539 427 463 489T218 551Q218 531 222
447L226 359Q250 361 260 361Q292 364 309 364Q331 364 346 350T362 311Q362 295 347 286T298 274Q280 271 229 271V258Q229 155 217 90Q235 86 257 86Z" />
<glyph unicode="&#xd1;" glyph-name="Ntilde" horiz-adv-x="675" d="M171 770T189 790T234 821T286 833Q324 833 359 809Q387 789 405 790Q415 790 421 795T430 806T435 814Q441 823 448 827T466 832Q479 832 489 825T500 802Q500 782 486 763T449 731T403 718Q377
718 361 725T326 746Q314 755 307 759T290 763Q260 763 244 739Q228 716 203 716Q193 716 182 724T171 745Q171 770 189 790ZM490 488T495 391Q496 370 498 311T500 201Q500 172 499 156L405 300Q258 514 172 622Q150 632 130 632Q107 632 90 619T72 582Q72 535
78 437Q85 348 85 279Q85 254 83 222T80 177Q74 95 75 54Q77 23 87 11T120 -2Q149 -2 162 13T180 58Q183 81 184 154T186 274Q186 378 178 450Q242 369 343 216Q433 79 480 22Q485 14 498 8T531 1Q567 1 584 16T602 48Q603 64 603 97Q603 138 599 226Q595 318 595
373Q595 408 599 480Q603 554 603 595Q603 616 585 625T544 634Q517 634 504 613T490 562Q490 488 495 391Z" />
<glyph unicode="&#xd2;" glyph-name="Ograve" horiz-adv-x="725" d="M335 864T349 855T375 821Q385 800 393 790T409 773T421 763Q433 753 437 748T441 737Q441 728 436 723T421 717Q408 717 385 723T346 738Q317 755 292 780T267 832Q267 846 280 855T314 864Q335
864 349 855ZM414 636T469 620T559 571Q622 514 647 447T673 274Q673 252 668 234T650 188Q635 157 632 139Q612 104 567 72T468 20T375 0Q182 0 100 132Q77 169 65 209T52 287Q52 389 88 464T190 582Q229 605 271 620T347 636Q414 636 469 620ZM156 230T180 195T256
119Q298 103 313 99T347 94Q448 94 508 149T568 300Q568 376 551 420T490 499Q467 518 432 527T355 536Q293 536 248 500T180 405T156 284Q156 230 180 195Z" />
<glyph unicode="&#xd3;" glyph-name="Oacute" horiz-adv-x="725" d="M427 864T439 855T452 832Q452 805 427 780T373 738Q358 729 335 723T299 717Q278 717 278 737Q278 743 282 748T299 763Q303 767 311 774T328 792T344 821Q356 845 370 854T406 864Q427 864
439 855ZM414 636T469 620T559 571Q622 514 647 447T673 274Q673 252 668 234T650 188Q635 157 632 139Q612 104 567 72T468 20T375 0Q182 0 100 132Q77 169 65 209T52 287Q52 389 88 464T190 582Q229 605 271 620T347 636Q414 636 469 620ZM156 230T180 195T256
119Q298 103 313 99T347 94Q448 94 508 149T568 300Q568 376 551 420T490 499Q467 518 432 527T355 536Q293 536 248 500T180 405T156 284Q156 230 180 195Z" />
<glyph unicode="&#xd4;" glyph-name="Ocircumflex" horiz-adv-x="725" d="M394 860T407 853T430 830Q440 815 460 796T497 765Q519 749 519 733Q519 724 510 715T489 706Q455 706 428 729T373 790Q352 760 318 733T256 706Q240 706 233 714T226 733Q226 741 238
756T266 784Q294 807 315 834Q324 845 336 852T371 860Q394 860 407 853ZM414 636T469 620T559 571Q622 514 647 447T673 274Q673 252 668 234T650 188Q635 157 632 139Q612 104 567 72T468 20T375 0Q182 0 100 132Q77 169 65 209T52 287Q52 389 88 464T190 582Q229
605 271 620T347 636Q414 636 469 620ZM156 230T180 195T256 119Q298 103 313 99T347 94Q448 94 508 149T568 300Q568 376 551 420T490 499Q467 518 432 527T355 536Q293 536 248 500T180 405T156 284Q156 230 180 195Z" />
<glyph unicode="&#xd5;" glyph-name="Otilde" horiz-adv-x="725" d="M202 770T220 790T265 821T317 833Q355 833 390 809Q418 789 436 790Q446 790 452 795T461 806T466 814Q472 823 479 827T497 832Q510 832 520 825T531 802Q531 782 517 763T480 731T434 718Q408
718 392 725T357 746Q345 755 338 759T321 763Q291 763 275 739Q259 716 234 716Q224 716 213 724T202 745Q202 770 220 790ZM314 636T272 621T190 582Q125 540 89 465T52 287Q52 249 64 209T100 132Q182 0 375 0Q415 0 468 20T566 72T632 139Q635 157 650 188Q662
216 667 234T673 274Q673 379 648 446T559 571Q524 603 469 619T347 636Q314 636 272 621ZM156 347T179 405T248 499T355 536Q396 536 431 527T490 499Q534 464 551 420T568 300Q568 204 508 149T347 94Q328 94 313 98T256 119Q205 160 181 195T156 284Q156 347
179 405Z" />
<glyph unicode="&#xd6;" glyph-name="Odieresis" horiz-adv-x="725" d="M289 832T310 819T332 778Q332 759 316 748T274 737Q250 737 241 749T231 776Q231 799 236 815T261 832Q289 832 310 819ZM457 832T478 819T500 778Q500 759 484 748T442 737Q418 737 409
749T399 776Q399 799 404 815T430 832Q457 832 478 819ZM414 636T469 620T559 571Q622 514 647 447T673 274Q673 252 668 234T650 188Q635 157 632 139Q612 104 567 72T468 20T375 0Q182 0 100 132Q77 169 65 209T52 287Q52 389 88 464T190 582Q229 605 271 620T347
636Q414 636 469 620ZM156 230T180 195T256 119Q298 103 313 99T347 94Q448 94 508 149T568 300Q568 376 551 420T490 499Q467 518 432 527T355 536Q293 536 248 500T180 405T156 284Q156 230 180 195Z" />
<glyph unicode="&#xd7;" glyph-name="multiply" horiz-adv-x="489" d="M410 140T420 130T437 109T444 85Q444 68 430 57T397 45Q383 45 358 65T298 117Q278 137 274 139Q249 154 238 169Q224 160 210 143T189 119Q175 100 136 59Q124 46 115 40T90 34Q74 34 60
44T45 71Q45 91 68 122Q90 146 116 167Q138 186 150 199T171 228Q156 246 136 263T94 298Q49 341 49 364Q49 379 65 394T102 409Q119 409 136 392Q153 376 173 352Q221 300 238 289Q257 311 281 332Q317 369 338 386T376 403Q396 403 411 393T426 365Q426 349 422
342T411 329Q337 282 299 230Q318 210 355 184Q391 158 408 142Q410 140 420 130Z" />
<glyph unicode="&#xd8;" glyph-name="Oslash" horiz-adv-x="725" d="M450 636T518 599Q548 640 559 657Q572 674 595 674Q611 674 622 665T634 642Q634 631 626 618T597 578L583 559L579 553Q631 500 652 436T673 274Q673 252 668 234T650 188Q635 157 632 139Q612
104 567 72T468 20T375 0Q270 0 194 41L173 11Q157 -13 153 -19Q149 -24 143 -27T132 -31Q116 -31 101 -20T86 7Q86 20 92 27L134 87Q113 109 100 132Q77 169 65 209T52 287Q52 389 88 464T190 582Q229 605 271 620T347 636Q450 636 518 599ZM413 536T355 536Q293
536 247 499T178 404T154 283Q154 248 165 222T198 171Q203 178 250 239L349 370L458 517Q413 536 355 536ZM298 103T313 99T347 94Q448 94 508 149T568 300Q568 361 557 401T519 472L440 366Q423 343 371 275T254 121L256 119Q298 103 313 99Z" />
<glyph unicode="&#xd9;" glyph-name="Ugrave" horiz-adv-x="663" d="M286 864T300 855T326 821Q336 800 344 790T360 773T372 763Q384 753 388 748T392 737Q392 728 387 723T372 717Q359 717 336 723T297 738Q268 755 243 780T218 832Q218 846 231 855T265 864Q286
864 300 855ZM177 551T175 503L174 438Q174 343 188 279Q208 189 248 140Q285 97 339 97Q381 97 414 122T465 186Q495 248 495 339Q495 394 488 469Q482 553 482 595Q482 617 508 623T562 630Q572 630 585 617T598 589Q598 559 595 532Q593 502 593 490Q593 452
597 384Q598 367 599 343T600 288Q600 220 568 153T477 42T346 -2Q234 -2 171 70T85 258Q72 324 69 396T65 589Q65 605 80 619T114 633Q177 633 177 580Q177 551 175 503Z" />
<glyph unicode="&#xda;" glyph-name="Uacute" horiz-adv-x="663" d="M407 864T419 855T432 832Q432 805 407 780T353 738Q338 729 315 723T279 717Q258 717 258 737Q258 743 262 748T279 763Q283 767 291 774T308 792T324 821Q336 845 350 854T386 864Q407 864
419 855ZM177 551T175 503L174 438Q174 343 188 279Q208 189 248 140Q285 97 339 97Q381 97 414 122T465 186Q495 248 495 339Q495 394 488 469Q482 553 482 595Q482 617 508 623T562 630Q572 630 585 617T598 589Q598 559 595 532Q593 502 593 490Q593 452 597
384Q598 367 599 343T600 288Q600 220 568 153T477 42T346 -2Q234 -2 171 70T85 258Q72 324 69 396T65 589Q65 605 80 619T114 633Q177 633 177 580Q177 551 175 503Z" />
<glyph unicode="&#xdb;" glyph-name="Ucircumflex" horiz-adv-x="663" d="M359 860T372 853T395 830Q405 815 425 796T462 765Q484 749 484 733Q484 724 475 715T454 706Q420 706 393 729T338 790Q317 760 283 733T221 706Q205 706 198 714T191 733Q191 741 203
756T231 784Q259 807 280 834Q289 845 301 852T336 860Q359 860 372 853ZM177 551T175 503L174 438Q174 343 188 279Q208 189 248 140Q285 97 339 97Q381 97 414 122T465 186Q495 248 495 339Q495 394 488 469Q482 553 482 595Q482 617 508 623T562 630Q572 630
585 617T598 589Q598 559 595 532Q593 502 593 490Q593 452 597 384Q598 367 599 343T600 288Q600 220 568 153T477 42T346 -2Q234 -2 171 70T85 258Q72 324 69 396T65 589Q65 605 80 619T114 633Q177 633 177 580Q177 551 175 503Z" />
<glyph unicode="&#xdc;" glyph-name="Udieresis" horiz-adv-x="663" d="M256 832T277 819T299 778Q299 759 283 748T241 737Q217 737 208 749T198 776Q198 799 203 815T228 832Q256 832 277 819ZM424 832T445 819T467 778Q467 759 451 748T409 737Q385 737 376
749T366 776Q366 799 371 815T397 832Q424 832 445 819ZM177 551T175 503L174 438Q174 343 188 279Q208 189 248 140Q285 97 339 97Q381 97 414 122T465 186Q495 248 495 339Q495 394 488 469Q482 553 482 595Q482 617 508 623T562 630Q572 630 585 617T598 589Q598
559 595 532Q593 502 593 490Q593 452 597 384Q598 367 599 343T600 288Q600 220 568 153T477 42T346 -2Q234 -2 171 70T85 258Q72 324 69 396T65 589Q65 605 80 619T114 633Q177 633 177 580Q177 551 175 503Z" />
<glyph unicode="&#xdd;" glyph-name="Yacute" horiz-adv-x="569" d="M370 864T382 855T395 832Q395 805 370 780T316 738Q301 729 278 723T242 717Q221 717 221 737Q221 743 225 748T242 763Q246 767 254 774T271 792T287 821Q299 845 313 854T349 864Q370 864
382 855ZM560 569T529 534Q492 492 336 276Q338 147 344 99Q347 69 347 56Q347 23 336 12T296 0Q275 0 257 12T238 43Q238 116 235 257Q235 263 227 277T217 295Q196 332 165 377T110 446Q66 490 41 525T16 576Q16 597 35 609T78 622Q91 622 105 615T129 595Q188
507 234 449L281 388Q324 432 356 475T428 579L445 605Q464 631 504 631Q523 631 541 620T560 587Q560 569 529 534Z" />
<glyph unicode="&#xde;" glyph-name="Thorn" horiz-adv-x="571" d="M267 141T216 149L179 154V133Q180 115 180 53Q180 27 166 13T133 -2Q72 -2 72 45Q72 96 76 144Q81 214 81 283Q81 480 76 574Q76 598 84 617T122 636Q150 636 165 625T181 579Q181 566 179 546L177
524L207 527Q244 532 275 532Q359 532 405 517T498 464Q544 392 544 359Q544 294 513 245T429 168T311 141Q267 141 216 149ZM222 443T178 433L179 331Q180 299 180 241Q217 233 239 232T278 230T301 230Q377 230 409 263T441 346Q441 360 433 380T418 407Q392
430 367 436T292 443Q222 443 178 433Z" />
<glyph unicode="&#xdf;" glyph-name="germandbls" horiz-adv-x="613" d="M504 259T527 244T565 202T581 134Q581 106 565 75T508 22T403 0Q384 0 360 4T325 12Q306 20 276 44T245 84Q245 104 258 123T291 142Q305 142 313 138T329 126T341 114Q360 97 371 91T399
85Q477 85 477 137Q477 164 452 181T379 220Q356 229 345 235Q343 236 324 246T289 278T273 328Q273 367 293 390T354 442Q361 447 377 458T401 478T409 496Q409 543 381 561T305 579Q274 579 244 563T194 522T174 470Q174 411 171 352Q169 278 169 242Q169 203
167 137L166 42Q166 24 153 11T118 -2Q102 -2 88 9L84 15Q68 51 68 113L69 157Q70 172 70 200Q70 220 69 230Q67 264 67 282Q67 326 70 369Q71 384 72 413T73 465Q73 518 94 559T159 636Q184 657 227 666T339 675Q369 675 401 661T459 628T494 595Q517 557 517
501Q517 458 496 434T434 384Q404 367 392 356T380 330Q380 320 395 312T438 292Q454 286 459 283Q504 259 527 244Z" />
<glyph unicode="&#xe0;" glyph-name="agrave" horiz-adv-x="521" d="M233 637T247 628T273 594Q283 573 291 563T307 546T319 536Q331 526 335 521T339 510Q339 501 334 496T319 490Q306 490 283 496T244 511Q215 528 190 553T165 605Q165 619 178 628T212 637Q233
637 247 628ZM508 26T485 11T441 -4Q403 -4 381 5T339 41Q313 18 268 7T185 -5Q123 -5 83 28T43 127Q43 155 58 178T99 220Q128 239 165 249T242 260Q263 260 292 252T337 235V251Q337 305 311 325T227 346Q210 346 194 339T156 320Q128 305 103 305Q94 305 86
317T78 340Q78 369 105 390T171 421T239 432Q269 432 308 421T372 389Q402 363 418 329T435 253Q435 240 433 214Q431 186 431 166Q431 157 429 139Q427 117 427 104Q427 92 436 84T457 75L485 76Q496 76 502 68T508 48Q508 26 485 11ZM229 74T258 83T328 116Q332
133 333 161Q278 187 242 187Q201 187 169 172T137 119Q137 100 153 87T186 74Q229 74 258 83Z" />
<glyph unicode="&#xe1;" glyph-name="aacute" horiz-adv-x="521" d="M342 637T354 628T367 605Q367 578 342 553T288 511Q273 502 250 496T214 490Q193 490 193 510Q193 516 197 521T214 536Q218 540 226 547T243 565T259 594Q271 618 285 627T321 637Q342 637
354 628ZM508 26T485 11T441 -4Q403 -4 381 5T339 41Q313 18 268 7T185 -5Q123 -5 83 28T43 127Q43 155 58 178T99 220Q128 239 165 249T242 260Q263 260 292 252T337 235V251Q337 305 311 325T227 346Q210 346 194 339T156 320Q128 305 103 305Q94 305 86 317T78
340Q78 369 105 390T171 421T239 432Q269 432 308 421T372 389Q402 363 418 329T435 253Q435 240 433 214Q431 186 431 166Q431 157 429 139Q427 117 427 104Q427 92 436 84T457 75L485 76Q496 76 502 68T508 48Q508 26 485 11ZM229 74T258 83T328 116Q332 133
333 161Q278 187 242 187Q201 187 169 172T137 119Q137 100 153 87T186 74Q229 74 258 83Z" />
<glyph unicode="&#xe2;" glyph-name="acircumflex" horiz-adv-x="521" d="M275 641T288 634T311 611Q321 596 341 577T378 546Q400 530 400 514Q400 505 391 496T370 487Q336 487 309 510T254 571Q233 541 199 514T137 487Q121 487 114 495T107 514Q107 522 119
537T147 565Q175 588 196 615Q205 626 217 633T252 641Q275 641 288 634ZM508 26T485 11T441 -4Q403 -4 381 5T339 41Q313 18 268 7T185 -5Q123 -5 83 28T43 127Q43 155 58 178T99 220Q128 239 165 249T242 260Q263 260 292 252T337 235V251Q337 305 311 325T227
346Q210 346 194 339T156 320Q128 305 103 305Q94 305 86 317T78 340Q78 369 105 390T171 421T239 432Q269 432 308 421T372 389Q402 363 418 329T435 253Q435 240 433 214Q431 186 431 166Q431 157 429 139Q427 117 427 104Q427 92 436 84T457 75L485 76Q496 76
502 68T508 48Q508 26 485 11ZM229 74T258 83T328 116Q332 133 333 161Q278 187 242 187Q201 187 169 172T137 119Q137 100 153 87T186 74Q229 74 258 83Z" />
<glyph unicode="&#xe3;" glyph-name="atilde" horiz-adv-x="521" d="M86 541T104 561T149 592T201 604Q239 604 274 580Q302 560 320 561Q330 561 336 566T345 577T350 585Q356 594 363 598T381 603Q394 603 404 596T415 573Q415 553 401 534T364 502T318 489Q292
489 276 496T241 517Q229 526 222 530T205 534Q175 534 159 510Q143 487 118 487Q108 487 97 495T86 516Q86 541 104 561ZM508 60T502 68T485 76L457 75Q445 75 436 83T427 104Q427 117 429 139Q431 157 431 166Q431 186 433 214Q435 240 435 253Q435 294 419 328T372
389Q347 409 308 420T239 432Q209 432 171 422T106 390T78 340Q78 330 86 318T103 305Q128 305 156 320Q177 332 193 339T227 346Q285 346 311 326T337 251V235Q321 244 292 252T242 260Q202 260 165 250T99 220Q73 202 58 179T43 127Q43 62 83 29T185 -5Q223 -5
268 6T339 41Q358 15 380 6T441 -4Q461 -4 484 11T508 48Q508 60 502 68ZM169 74T153 87T137 119Q137 157 169 172T242 187Q278 187 333 161Q332 133 328 116Q287 92 258 83T186 74Q169 74 153 87Z" />
<glyph unicode="&#xe4;" glyph-name="adieresis" horiz-adv-x="521" d="M175 597T196 584T218 543Q218 524 202 513T160 502Q136 502 127 514T117 541Q117 564 122 580T147 597Q175 597 196 584ZM343 597T364 584T386 543Q386 524 370 513T328 502Q304 502 295
514T285 541Q285 564 290 580T316 597Q343 597 364 584ZM508 26T485 11T441 -4Q403 -4 381 5T339 41Q313 18 268 7T185 -5Q123 -5 83 28T43 127Q43 155 58 178T99 220Q128 239 165 249T242 260Q263 260 292 252T337 235V251Q337 305 311 325T227 346Q210 346 194
339T156 320Q128 305 103 305Q94 305 86 317T78 340Q78 369 105 390T171 421T239 432Q269 432 308 421T372 389Q402 363 418 329T435 253Q435 240 433 214Q431 186 431 166Q431 157 429 139Q427 117 427 104Q427 92 436 84T457 75L485 76Q496 76 502 68T508 48Q508
26 485 11ZM229 74T258 83T328 116Q332 133 333 161Q278 187 242 187Q201 187 169 172T137 119Q137 100 153 87T186 74Q229 74 258 83Z" />
<glyph unicode="&#xe5;" glyph-name="aring" horiz-adv-x="521" d="M250 486T228 490T194 506Q158 542 158 578Q158 598 171 617T206 650T255 663Q307 663 335 640T363 571Q363 553 349 533T313 500T274 486Q250 486 228 490ZM244 611T232 602T219 576Q219 559
229 548T257 537Q277 537 289 546T302 572Q302 590 290 600T257 611Q244 611 232 602ZM508 60T502 68T485 76L457 75Q445 75 436 83T427 104Q427 117 429 139Q431 157 431 166Q431 186 433 214Q435 240 435 253Q435 294 419 328T372 389Q347 409 308 420T239 432Q209
432 171 422T106 390T78 340Q78 330 86 318T103 305Q128 305 156 320Q177 332 193 339T227 346Q285 346 311 326T337 251V235Q321 244 292 252T242 260Q202 260 165 250T99 220Q73 202 58 179T43 127Q43 62 83 29T185 -5Q223 -5 268 6T339 41Q358 15 380 6T441
-4Q461 -4 484 11T508 48Q508 60 502 68ZM169 74T153 87T137 119Q137 157 169 172T242 187Q278 187 333 161Q332 133 328 116Q287 92 258 83T186 74Q169 74 153 87Z" />
<glyph unicode="&#xe6;" glyph-name="ae" horiz-adv-x="757" d="M127 -4T85 29T43 127Q43 155 58 178T99 220Q130 241 162 250T239 260Q259 260 286 252T332 235V251Q332 305 307 326T224 348Q210 348 197 342T172 330T156 320Q128 305 103 305Q94 305 86 317T78
340Q78 369 105 390T169 421T237 432Q266 432 303 421T366 389Q375 382 389 365Q414 396 459 416T541 436Q578 436 619 423T677 387Q714 335 714 285Q714 258 703 239T670 198Q641 168 546 168Q499 168 432 184Q434 164 442 145T461 115Q481 96 500 91T553 85Q586
85 617 97Q638 106 658 106Q677 106 687 96T697 67Q697 42 669 27T604 4T544 -4Q440 -4 385 57H384Q316 -4 189 -4Q127 -4 85 29ZM524 351T505 342T471 318Q454 300 447 287T438 253Q463 245 536 245Q579 245 601 257T624 292Q624 314 599 332T545 351Q524 351
505 342ZM231 74T255 82T322 116Q327 132 328 161Q299 174 279 180T239 187Q199 187 168 172T137 119Q137 100 154 87T190 74Q231 74 255 82Z" />
<glyph unicode="&#xe7;" glyph-name="ccedilla" horiz-adv-x="469" d="M180 -65T186 -56T204 -35Q222 -13 234 -2Q181 4 138 31T69 104T43 205Q43 269 72 322T150 405T257 435Q290 435 325 423T384 388T408 334Q408 290 363 290Q348 290 338 297T316 318Q286 351
264 351Q235 351 208 334T163 286T146 217Q146 175 162 147T214 99Q227 92 244 88T275 84Q304 84 348 107Q364 115 375 119T398 123Q409 123 423 113T437 88Q437 54 399 32T308 0Q305 -6 287 -28Q267 -55 265 -58Q306 -62 330 -81T355 -137Q355 -169 313 -202Q299
-212 274 -218T215 -225Q191 -225 174 -213T156 -180Q156 -172 163 -166T179 -160Q189 -160 199 -166T217 -172Q229 -172 243 -169T266 -162Q273 -158 278 -150T283 -131Q283 -111 258 -106T203 -101Q195 -101 188 -92T180 -74Q180 -65 186 -56Z" />
<glyph unicode="&#xe8;" glyph-name="egrave" horiz-adv-x="477" d="M215 634T229 625T255 591Q265 570 273 560T289 543T301 533Q313 523 317 518T321 507Q321 498 316 493T301 487Q288 487 265 493T226 508Q197 525 172 550T147 602Q147 616 160 625T194 634Q215
634 229 625ZM45 250T59 288T96 359Q119 391 169 411T258 432Q298 432 339 421T397 387Q434 335 434 285Q434 258 423 239T390 198Q373 180 337 174T264 168Q241 168 208 172T144 184Q146 164 154 145T173 116Q193 97 214 92T270 87Q306 87 337 99Q362 108 378
108Q397 108 407 97T417 67Q417 42 388 26T322 3T261 -5Q214 -5 170 12T97 60Q73 88 59 127T45 212Q45 250 59 288ZM241 347T219 339T183 315Q165 296 159 285T150 253Q175 245 254 245Q297 245 320 258T344 292Q344 313 318 330T263 347Q241 347 219 339Z" />
<glyph unicode="&#xe9;" glyph-name="eacute" horiz-adv-x="477" d="M326 634T338 625T351 602Q351 575 326 550T272 508Q257 499 234 493T198 487Q177 487 177 507Q177 513 181 518T198 533Q202 537 210 544T227 562T243 591Q255 615 269 624T305 634Q326 634
338 625ZM45 250T59 288T96 359Q119 391 169 411T258 432Q298 432 339 421T397 387Q434 335 434 285Q434 258 423 239T390 198Q373 180 337 174T264 168Q241 168 208 172T144 184Q146 164 154 145T173 116Q193 97 214 92T270 87Q306 87 337 99Q362 108 378 108Q397
108 407 97T417 67Q417 42 388 26T322 3T261 -5Q214 -5 170 12T97 60Q73 88 59 127T45 212Q45 250 59 288ZM241 347T219 339T183 315Q165 296 159 285T150 253Q175 245 254 245Q297 245 320 258T344 292Q344 313 318 330T263 347Q241 347 219 339Z" />
<glyph unicode="&#xea;" glyph-name="ecircumflex" horiz-adv-x="477" d="M277 641T290 634T313 611Q323 596 343 577T380 546Q402 530 402 514Q402 505 393 496T372 487Q338 487 311 510T256 571Q235 541 201 514T139 487Q123 487 116 495T109 514Q109 522 121
537T149 565Q177 588 198 615Q207 626 219 633T254 641Q277 641 290 634ZM45 250T59 288T96 359Q119 391 169 411T258 432Q298 432 339 421T397 387Q434 335 434 285Q434 258 423 239T390 198Q373 180 337 174T264 168Q241 168 208 172T144 184Q146 164 154 145T173
116Q193 97 214 92T270 87Q306 87 337 99Q362 108 378 108Q397 108 407 97T417 67Q417 42 388 26T322 3T261 -5Q214 -5 170 12T97 60Q73 88 59 127T45 212Q45 250 59 288ZM241 347T219 339T183 315Q165 296 159 285T150 253Q175 245 254 245Q297 245 320 258T344
292Q344 313 318 330T263 347Q241 347 219 339Z" />
<glyph unicode="&#xeb;" glyph-name="edieresis" horiz-adv-x="477" d="M178 597T199 584T221 543Q221 524 205 513T163 502Q139 502 130 514T120 541Q120 564 125 580T150 597Q178 597 199 584ZM346 597T367 584T389 543Q389 524 373 513T331 502Q307 502 298
514T288 541Q288 564 293 580T319 597Q346 597 367 584ZM45 250T59 288T96 359Q119 391 169 411T258 432Q298 432 339 421T397 387Q434 335 434 285Q434 258 423 239T390 198Q373 180 337 174T264 168Q241 168 208 172T144 184Q146 164 154 145T173 116Q193 97
214 92T270 87Q306 87 337 99Q362 108 378 108Q397 108 407 97T417 67Q417 42 388 26T322 3T261 -5Q214 -5 170 12T97 60Q73 88 59 127T45 212Q45 250 59 288ZM241 347T219 339T183 315Q165 296 159 285T150 253Q175 245 254 245Q297 245 320 258T344 292Q344 313
318 330T263 347Q241 347 219 339Z" />
<glyph unicode="&#xec;" glyph-name="igrave" horiz-adv-x="256" d="M76 693T90 684T116 650Q126 629 134 619T150 602T162 592Q174 582 178 577T182 566Q182 557 177 552T162 546Q149 546 126 552T87 567Q58 584 33 609T8 661Q8 675 21 684T55 693Q76 693 90
684ZM184 199V170Q184 131 186 97T193 27Q192 17 178 7T153 -4Q134 -4 115 3T91 22Q85 54 85 79Q85 161 80 263Q76 353 76 390Q76 408 94 421T132 434Q161 434 172 421T184 380V199Z" />
<glyph unicode="&#xed;" glyph-name="iacute" horiz-adv-x="256" d="M217 634T229 625T242 602Q242 575 217 550T163 508Q148 499 125 493T89 487Q68 487 68 507Q68 513 72 518T89 533Q93 537 101 544T118 562T134 591Q146 615 160 624T196 634Q217 634 229 625ZM184
199V170Q184 131 186 97T193 27Q192 17 178 7T153 -4Q134 -4 115 3T91 22Q85 54 85 79Q85 161 80 263Q76 353 76 390Q76 408 94 421T132 434Q161 434 172 421T184 380V199Z" />
<glyph unicode="&#xee;" glyph-name="icircumflex" horiz-adv-x="256" d="M149 689T162 682T185 659Q195 644 215 625T252 594Q274 578 274 562Q274 553 265 544T244 535Q210 535 183 558T128 619Q107 589 73 562T11 535Q-5 535 -12 543T-19 562Q-19 570 -7 585T21
613Q49 636 70 663Q79 674 91 681T126 689Q149 689 162 682ZM184 199V170Q184 131 186 97T193 27Q192 17 178 7T153 -4Q134 -4 115 3T91 22Q85 54 85 79Q85 161 80 263Q76 353 76 390Q76 408 94 421T132 434Q161 434 172 421T184 380V199Z" />
<glyph unicode="&#xef;" glyph-name="idieresis" horiz-adv-x="256" d="M51 661T72 648T94 607Q94 588 78 577T36 566Q12 566 3 578T-7 605Q-7 628 -2 644T23 661Q51 661 72 648ZM219 661T240 648T262 607Q262 588 246 577T204 566Q180 566 171 578T161 605Q161
628 166 644T192 661Q219 661 240 648ZM184 199V170Q184 131 186 97T193 27Q192 17 178 7T153 -4Q134 -4 115 3T91 22Q85 54 85 79Q85 161 80 263Q76 353 76 390Q76 408 94 421T132 434Q161 434 172 421T184 380V199Z" />
<glyph unicode="&#xf0;" glyph-name="eth" horiz-adv-x="527" d="M225 557Q218 562 197 574T162 598T147 615Q147 660 187 660Q220 660 247 650T306 615Q330 631 338 639Q354 654 360 657T380 660Q392 660 404 649T417 624Q417 616 396 599T355 568L359 564Q412
509 442 418T473 253Q473 186 456 126Q426 71 368 35T248 -2Q198 -2 146 32T73 109Q72 112 59 154T45 217Q45 287 111 368Q128 391 172 408T254 425Q274 425 304 418T347 398Q341 424 322 455T276 513Q234 482 227 475Q221 470 209 464T189 457Q181 457 165 469T149
490Q149 498 152 504T158 512L225 557ZM372 178T372 229Q372 259 363 280T332 322Q330 324 321 328T296 337T260 342Q202 342 175 303T148 208Q148 179 160 150T196 102T250 83Q280 83 316 108T366 164Q372 178 372 229Z" />
<glyph unicode="&#xf1;" glyph-name="ntilde" horiz-adv-x="565" d="M130 599T148 619T193 650T245 662Q283 662 318 638Q346 618 364 619Q374 619 380 624T389 635T394 643Q400 652 407 656T425 661Q438 661 448 654T459 631Q459 611 445 592T408 560T362 547Q336
547 320 554T285 575Q273 584 266 588T249 592Q219 592 203 568Q187 545 162 545Q152 545 141 553T130 574Q130 599 148 619ZM482 93T482 163Q482 193 485 220Q487 254 487 269Q487 295 475 327T445 382Q426 402 400 417T350 432Q290 432 252 413T187 345Q179 376
167 393T146 415Q129 425 119 428T93 431Q74 431 60 424T30 405Q16 392 16 371Q16 360 27 350T49 340Q55 340 64 343T78 347Q94 347 106 325T118 278L119 231Q120 218 120 195Q120 143 108 73Q106 61 106 52L107 35Q110 20 131 8T166 -4Q175 -4 185 -1T201 8Q208
18 210 28T212 48T211 62Q210 79 210 110Q210 175 221 235Q227 269 242 298Q251 316 274 328T318 341Q353 341 372 315T392 253Q392 229 390 189Q388 151 388 134Q388 104 392 87Q402 44 424 23T485 2Q510 2 528 17T546 57Q546 63 541 66T525 72T509 77Q482 93
482 163Z" />
<glyph unicode="&#xf2;" glyph-name="ograve" horiz-adv-x="512" d="M215 693T229 684T255 650Q265 629 273 619T289 602T301 592Q313 582 317 577T321 566Q321 557 316 552T301 546Q288 546 265 552T226 567Q197 584 172 609T147 661Q147 675 160 684T194 693Q215
693 229 684ZM457 307T462 281T467 233Q467 194 450 122Q381 -4 246 -4Q196 -4 144 29T72 105Q45 191 45 214Q45 254 62 299T107 377Q124 400 168 416T248 433Q318 433 367 407T449 321Q457 307 462 281ZM367 173T367 227Q367 256 357 284T326 332Q324 334 315
338T291 347T255 352Q199 352 173 307T147 205Q147 195 152 167T162 132Q165 125 177 113T208 91T247 81Q292 81 319 102T362 160Q367 173 367 227Z" />
<glyph unicode="&#xf3;" glyph-name="oacute" horiz-adv-x="512" d="M325 693T337 684T350 661Q350 634 325 609T271 567Q256 558 233 552T197 546Q176 546 176 566Q176 572 180 577T197 592Q201 596 209 603T226 621T242 650Q254 674 268 683T304 693Q325 693
337 684ZM457 307T462 281T467 233Q467 194 450 122Q381 -4 246 -4Q196 -4 144 29T72 105Q45 191 45 214Q45 254 62 299T107 377Q124 400 168 416T248 433Q318 433 367 407T449 321Q457 307 462 281ZM367 173T367 227Q367 256 357 284T326 332Q324 334 315 338T291
347T255 352Q199 352 173 307T147 205Q147 195 152 167T162 132Q165 125 177 113T208 91T247 81Q292 81 319 102T362 160Q367 173 367 227Z" />
<glyph unicode="&#xf4;" glyph-name="ocircumflex" horiz-adv-x="512" d="M280 689T293 682T316 659Q326 644 346 625T383 594Q405 578 405 562Q405 553 396 544T375 535Q341 535 314 558T259 619Q238 589 204 562T142 535Q126 535 119 543T112 562Q112 570 124
585T152 613Q180 636 201 663Q210 674 222 681T257 689Q280 689 293 682ZM457 307T462 281T467 233Q467 194 450 122Q381 -4 246 -4Q196 -4 144 29T72 105Q45 191 45 214Q45 254 62 299T107 377Q124 400 168 416T248 433Q318 433 367 407T449 321Q457 307 462 281ZM367
173T367 227Q367 256 357 284T326 332Q324 334 315 338T291 347T255 352Q199 352 173 307T147 205Q147 195 152 167T162 132Q165 125 177 113T208 91T247 81Q292 81 319 102T362 160Q367 173 367 227Z" />
<glyph unicode="&#xf5;" glyph-name="otilde" horiz-adv-x="512" d="M96 599T114 619T159 650T211 662Q249 662 284 638Q312 618 330 619Q340 619 346 624T355 635T360 643Q366 652 373 656T391 661Q404 661 414 654T425 631Q425 611 411 592T374 560T328 547Q302
547 286 554T251 575Q239 584 232 588T215 592Q185 592 169 568Q153 545 128 545Q118 545 107 553T96 574Q96 599 114 619ZM416 380T367 406T248 433Q212 433 168 417T107 377Q80 344 63 299T45 214Q45 191 72 105Q92 62 144 29T246 -4Q381 -4 450 122Q467 194
467 233Q467 254 462 280T449 321Q416 380 367 406ZM346 124T319 103T247 81Q227 81 209 90T178 112T162 132Q158 139 153 167T147 205Q147 262 173 307T255 352Q275 352 290 348T315 339T326 332Q346 312 356 284T367 227Q367 173 362 160Q346 124 319 103Z" />
<glyph unicode="&#xf6;" glyph-name="odieresis" horiz-adv-x="512" d="M180 661T201 648T223 607Q223 588 207 577T165 566Q141 566 132 578T122 605Q122 628 127 644T152 661Q180 661 201 648ZM348 661T369 648T391 607Q391 588 375 577T333 566Q309 566 300
578T290 605Q290 628 295 644T321 661Q348 661 369 648ZM457 307T462 281T467 233Q467 194 450 122Q381 -4 246 -4Q196 -4 144 29T72 105Q45 191 45 214Q45 254 62 299T107 377Q124 400 168 416T248 433Q318 433 367 407T449 321Q457 307 462 281ZM367 173T367
227Q367 256 357 284T326 332Q324 334 315 338T291 347T255 352Q199 352 173 307T147 205Q147 195 152 167T162 132Q165 125 177 113T208 91T247 81Q292 81 319 102T362 160Q367 173 367 227Z" />
<glyph unicode="&#xf7;" glyph-name="divide" horiz-adv-x="549" d="M246 303T231 318T216 354Q216 367 219 380T230 401Q240 413 251 417T284 421Q305 421 316 406T328 370Q328 345 310 324T267 303Q246 303 231 318ZM472 260T488 253T504 222Q504 194 479 182T425
169Q400 169 371 172Q360 172 338 173T298 175Q271 175 249 174T210 172Q148 168 118 168Q85 168 65 177T45 219Q45 247 74 259Q84 264 103 264Q122 264 166 260Q225 254 265 256Q282 256 338 258Q406 260 441 260Q472 260 488 253ZM304 121T319 108T335 67Q335
47 322 31Q314 19 301 12T274 5Q265 5 253 10Q222 22 222 64Q222 86 238 103T282 121Q304 121 319 108Z" />
<glyph unicode="&#xf8;" glyph-name="oslash" horiz-adv-x="512" d="M457 305T462 280T467 233Q467 192 450 124Q420 70 363 34T246 -2Q199 -2 149 27L120 -15Q117 -19 112 -22T102 -25Q89 -25 78 -16T66 6Q66 15 70 22L102 66Q81 85 72 107Q45 193 45 214Q45
254 62 298T107 375Q124 399 167 415T248 431Q314 431 359 409Q378 436 385 445Q395 459 415 459Q428 459 437 452T447 432Q447 425 421 395L406 376Q429 354 449 319Q457 305 462 280ZM287 350T255 350Q199 350 173 306T147 205Q147 197 151 177T160 140Q203 192
309 339Q287 350 255 350ZM367 175T367 227Q367 263 350 297L288 214Q241 152 201 98Q226 82 247 82Q276 82 312 107T362 162Q367 175 367 227Z" />
<glyph unicode="&#xf9;" glyph-name="ugrave" horiz-adv-x="553" d="M212 693T226 684T252 650Q262 629 270 619T286 602T298 592Q310 582 314 577T318 566Q318 557 313 552T298 546Q285 546 262 552T223 567Q194 584 169 609T144 661Q144 675 157 684T191 693Q212
693 226 684ZM26 337T20 343T13 359Q13 382 33 402Q39 405 57 412T89 419Q127 419 151 399T175 340Q175 329 171 293Q167 251 167 228Q167 158 186 115Q193 101 208 93T235 85Q264 85 282 95T321 127Q342 149 348 177T358 254Q360 286 362 301Q367 349 367 383Q367
405 379 419T412 434Q424 434 439 427T460 409Q466 399 466 376Q466 364 463 353Q456 328 456 293L457 241Q457 170 467 136Q472 120 481 104T498 76Q518 54 524 46T530 29Q530 17 519 7T494 -4Q457 -4 430 21T390 86Q356 47 327 23Q307 9 278 3T220 -4Q181 -4
141 28T87 102Q86 104 82 118T77 160Q77 197 81 253Q84 289 84 319Q84 328 78 334T63 340Q57 340 50 339T34 337Q26 337 20 343Z" />
<glyph unicode="&#xfa;" glyph-name="uacute" horiz-adv-x="553" d="M336 693T348 684T361 661Q361 634 336 609T282 567Q267 558 244 552T208 546Q187 546 187 566Q187 572 191 577T208 592Q212 596 220 603T237 621T253 650Q265 674 279 683T315 693Q336 693
348 684ZM26 337T20 343T13 359Q13 382 33 402Q39 405 57 412T89 419Q127 419 151 399T175 340Q175 329 171 293Q167 251 167 228Q167 158 186 115Q193 101 208 93T235 85Q264 85 282 95T321 127Q342 149 348 177T358 254Q360 286 362 301Q367 349 367 383Q367
405 379 419T412 434Q424 434 439 427T460 409Q466 399 466 376Q466 364 463 353Q456 328 456 293L457 241Q457 170 467 136Q472 120 481 104T498 76Q518 54 524 46T530 29Q530 17 519 7T494 -4Q457 -4 430 21T390 86Q356 47 327 23Q307 9 278 3T220 -4Q181 -4
141 28T87 102Q86 104 82 118T77 160Q77 197 81 253Q84 289 84 319Q84 328 78 334T63 340Q57 340 50 339T34 337Q26 337 20 343Z" />
<glyph unicode="&#xfb;" glyph-name="ucircumflex" horiz-adv-x="553" d="M280 689T293 682T316 659Q326 644 346 625T383 594Q405 578 405 562Q405 553 396 544T375 535Q341 535 314 558T259 619Q238 589 204 562T142 535Q126 535 119 543T112 562Q112 570 124
585T152 613Q180 636 201 663Q210 674 222 681T257 689Q280 689 293 682ZM26 337T20 343T13 359Q13 382 33 402Q39 405 57 412T89 419Q127 419 151 399T175 340Q175 329 171 293Q167 251 167 228Q167 158 186 115Q193 101 208 93T235 85Q264 85 282 95T321 127Q342
149 348 177T358 254Q360 286 362 301Q367 349 367 383Q367 405 379 419T412 434Q424 434 439 427T460 409Q466 399 466 376Q466 364 463 353Q456 328 456 293L457 241Q457 170 467 136Q472 120 481 104T498 76Q518 54 524 46T530 29Q530 17 519 7T494 -4Q457 -4
430 21T390 86Q356 47 327 23Q307 9 278 3T220 -4Q181 -4 141 28T87 102Q86 104 82 118T77 160Q77 197 81 253Q84 289 84 319Q84 328 78 334T63 340Q57 340 50 339T34 337Q26 337 20 343Z" />
<glyph unicode="&#xfc;" glyph-name="udieresis" horiz-adv-x="553" d="M188 661T209 648T231 607Q231 588 215 577T173 566Q149 566 140 578T130 605Q130 628 135 644T160 661Q188 661 209 648ZM356 661T377 648T399 607Q399 588 383 577T341 566Q317 566 308
578T298 605Q298 628 303 644T329 661Q356 661 377 648ZM26 337T20 343T13 359Q13 382 33 402Q39 405 57 412T89 419Q127 419 151 399T175 340Q175 329 171 293Q167 251 167 228Q167 158 186 115Q193 101 208 93T235 85Q264 85 282 95T321 127Q342 149 348 177T358
254Q360 286 362 301Q367 349 367 383Q367 405 379 419T412 434Q424 434 439 427T460 409Q466 399 466 376Q466 364 463 353Q456 328 456 293L457 241Q457 170 467 136Q472 120 481 104T498 76Q518 54 524 46T530 29Q530 17 519 7T494 -4Q457 -4 430 21T390 86Q356
47 327 23Q307 9 278 3T220 -4Q181 -4 141 28T87 102Q86 104 82 118T77 160Q77 197 81 253Q84 289 84 319Q84 328 78 334T63 340Q57 340 50 339T34 337Q26 337 20 343Z" />
<glyph unicode="&#xfd;" glyph-name="yacute" horiz-adv-x="469" d="M333 693T345 684T358 661Q358 634 333 609T279 567Q264 558 241 552T205 546Q184 546 184 566Q184 572 188 577T205 592Q209 596 217 603T234 621T250 650Q262 674 276 683T312 693Q333 693
345 684ZM124 -204T99 -192T61 -162T48 -131Q48 -114 60 -105T89 -95Q99 -95 108 -101T118 -108Q125 -113 132 -116T147 -120Q169 -120 183 -91T211 3Q166 69 136 135L113 188Q108 200 86 250T41 340Q27 368 27 378Q27 403 44 415T85 427Q101 427 109 421T129 397Q158
349 192 253Q212 198 224 170T253 112Q270 151 296 245Q312 299 322 331T346 391Q355 409 368 420T399 431Q416 431 435 419T455 389Q455 379 448 365Q409 275 380 196T323 21Q307 -32 290 -80T265 -139Q245 -167 220 -185T162 -204Q124 -204 99 -192Z" />
<glyph unicode="&#xfe;" glyph-name="thorn" horiz-adv-x="496" d="M331 429T370 401T433 330T457 242Q457 199 448 165T416 95Q389 59 346 36T242 12Q226 12 205 20T168 40Q167 29 167 7L168 -37Q169 -50 169 -75Q169 -89 170 -106T172 -132Q175 -156 175 -179Q175
-201 161 -211T129 -221Q93 -221 81 -202T69 -145Q70 -129 70 -99L69 -32Q69 -15 71 15Q74 59 74 200L73 439Q72 495 72 575Q72 626 82 650T124 674Q181 674 181 624Q181 605 178 557Q173 437 172 389Q193 410 223 419T284 429Q331 429 370 401ZM346 148T352 170T359
239Q359 275 345 299T311 335T273 347Q232 347 206 323T173 256Q170 235 170 209Q170 187 171 165T173 139Q184 122 204 109T240 95Q297 95 325 126Q346 148 352 170Z" />
<glyph unicode="&#xff;" glyph-name="ydieresis" horiz-adv-x="469" d="M173 661T194 648T216 607Q216 588 200 577T158 566Q134 566 125 578T115 605Q115 628 120 644T145 661Q173 661 194 648ZM341 661T362 648T384 607Q384 588 368 577T326 566Q302 566 293
578T283 605Q283 628 288 644T314 661Q341 661 362 648ZM124 -204T99 -192T61 -162T48 -131Q48 -114 60 -105T89 -95Q99 -95 108 -101T118 -108Q125 -113 132 -116T147 -120Q169 -120 183 -91T211 3Q166 69 136 135L113 188Q108 200 86 250T41 340Q27 368 27 378Q27
403 44 415T85 427Q101 427 109 421T129 397Q158 349 192 253Q212 198 224 170T253 112Q270 151 296 245Q312 299 322 331T346 391Q355 409 368 420T399 431Q416 431 435 419T455 389Q455 379 448 365Q409 275 380 196T323 21Q307 -32 290 -80T265 -139Q245 -167
220 -185T162 -204Q124 -204 99 -192Z" />
<glyph unicode="&#x2013;" glyph-name="endash" horiz-adv-x="558" d="M522 265T522 213Q522 185 504 174T457 162Q449 162 440 163T422 165Q392 170 368 170Q331 170 241 166Q147 162 105 162Q57 162 42 184Q36 195 36 207Q36 232 53 249Q63 259 122 261T255
264Q268 264 343 261Q369 259 446 264L475 265Q522 265 522 213Z" />
<glyph unicode="&#x2014;" glyph-name="emdash" horiz-adv-x="837" d="M776 289T788 279T801 241Q801 214 783 202T737 190L626 193Q519 198 478 198L312 194Q138 190 104 190Q57 190 42 212Q36 223 36 236Q36 285 71 285Q128 285 268 289Q342 292 373 292Q394
292 472 289Q480 288 553 288L755 289Q776 289 788 279Z" />
<glyph unicode="&#x2018;" glyph-name="quoteleft" horiz-adv-x="193" d="M111 526Q122 526 127 523Q139 516 148 505T157 472Q155 440 132 428Q112 418 78 418Q55 418 41 435T27 478Q27 508 44 547T79 608Q91 624 108 635T137 646Q160 646 165 639T171 612Q171
607 162 598T150 586Q134 572 130 566Q113 542 107 526H111Z" />
<glyph unicode="&#x2019;" glyph-name="quoteright" horiz-adv-x="193" d="M83 537Q72 537 67 541Q54 549 46 560T37 592Q38 607 44 618T61 635Q82 646 115 646Q139 646 152 629T166 586Q166 556 149 517T114 455Q101 440 85 429T57 418Q33 418 28 425T22 452Q22
460 43 477Q60 492 64 498Q79 518 86 537H83Z" />
<glyph unicode="&#x201a;" glyph-name="quotesinglbase" horiz-adv-x="193" d="M83 -3Q72 -3 67 1Q55 8 46 19T37 52Q38 67 44 78T61 95Q82 106 115 106Q139 106 152 89T166 46Q166 16 149 -23T114 -85Q101 -100 85 -111T57 -122Q33 -122 28 -115T22 -88Q22 -80
43 -63Q60 -48 64 -42Q79 -22 86 -3H83Z" />
<glyph unicode="&#x201c;" glyph-name="quotedblleft" horiz-adv-x="367" d="M111 526Q122 526 127 523Q139 516 148 505T157 472Q155 440 132 428Q112 418 78 418Q55 418 41 435T27 478Q27 508 44 547T79 608Q91 624 108 635T137 646Q160 646 165 639T171 612Q171
607 162 598T150 586Q134 572 130 566Q113 542 107 526H111ZM284 526Q296 526 301 523Q313 515 321 504T330 472Q328 440 306 428Q286 418 252 418Q229 418 215 435T201 478Q201 508 218 547T253 608Q266 624 282 635T310 646Q334 646 339 639T345 612Q345 604
322 585Q318 581 312 576T303 566Q288 545 281 526H284Z" />
<glyph unicode="&#x201d;" glyph-name="quotedblright" horiz-adv-x="367" d="M83 537Q72 537 67 541Q54 549 46 560T37 592Q38 607 44 618T61 635Q82 646 115 646Q139 646 152 629T166 586Q166 556 149 517T114 455Q101 440 85 429T57 418Q33 418 28 425T22 452Q22
460 43 477Q60 492 64 498Q79 518 86 537H83ZM257 537Q245 537 240 541Q228 548 220 559T211 592Q211 606 217 618T235 635Q254 646 289 646Q312 646 326 629T340 586Q340 556 323 517T288 455Q275 440 259 429T230 418Q207 418 202 425T196 452Q196 460 217 477Q234
492 238 498Q255 524 260 537H257Z" />
<glyph unicode="&#x201e;" glyph-name="quotedblbase" horiz-adv-x="367" d="M83 -3Q72 -3 67 1Q55 8 46 19T37 52Q38 67 44 78T61 95Q82 106 115 106Q139 106 152 89T166 46Q166 16 149 -23T114 -85Q101 -100 85 -111T57 -122Q33 -122 28 -115T22 -88Q22 -80
43 -63Q60 -48 64 -42Q79 -22 86 -3H83ZM257 -3Q245 -3 240 1Q228 8 220 19T211 52Q211 66 217 78T235 95Q254 106 289 106Q312 106 326 89T340 46Q340 16 323 -23T288 -85Q275 -100 259 -111T230 -122Q207 -122 202 -115T196 -88Q196 -80 217 -63Q234 -48 238
-42Q255 -16 260 -3H257Z" />
<glyph unicode="&#x2022;" glyph-name="bullet" horiz-adv-x="356" d="M232 433T262 408T293 339Q293 309 280 280T242 232T186 213Q122 213 93 246T63 327Q63 368 90 400T168 433Q232 433 262 408Z" />
<glyph unicode="&#x2039;" glyph-name="guilsinglleft" horiz-adv-x="237" d="M196 119T196 89Q196 72 184 62T160 51Q146 51 107 91L88 112Q70 134 60 143Q51 150 42 166T33 199Q33 215 41 226T65 253L85 274Q122 311 130 318Q152 335 171 335Q182 335 189 327T196
306Q196 282 183 264T143 224Q126 210 115 198L135 177L150 162Q196 119 196 89Z" />
<glyph unicode="&#x203a;" glyph-name="guilsinglright" horiz-adv-x="237" d="M91 167T102 178T121 198Q113 208 94 224Q67 247 54 264T40 306Q40 319 47 327T66 335Q86 335 106 318Q129 298 151 274Q151 274 172 253Q188 237 195 226T203 199Q203 183 194 167T176
143Q163 131 149 112L130 91Q91 51 76 51Q65 51 53 61T40 89Q40 119 86 162Q91 167 102 178Z" />
</font>
</defs>
</svg>
