<?xml version="1.0" standalone="no"?>
<!DOCTYPE svg PUBLIC "-//W3C//DTD SVG 1.1//EN" "http://www.w3.org/Graphics/SVG/1.1/DTD/svg11.dtd">
<svg xmlns="http://www.w3.org/2000/svg">
<defs >
<font id="SignikaNegative" horiz-adv-x="424" ><font-face
    font-family="Signika Negative"
    units-per-em="1000"
    panose-1="2 1 0 3 2 6 0 0 0 4"
    ascent="940"
    descent="-292"
    alphabetic="0" />
<glyph unicode=" " glyph-name="space" horiz-adv-x="220" />
<glyph unicode="!" glyph-name="exclam" horiz-adv-x="285" d="M103 193L92 662Q130 690 196 690L202 683L179 193Q164 188 141 188T103 193ZM87 94Q107 106 141 106T196 94Q204 80 204 49T196 4Q176 -8 142 -8T87 4Q79 17 79 48T87 94Z" />
<glyph unicode="&quot;" glyph-name="quotedbl" horiz-adv-x="382" d="M223 696T223 711T229 748Q250 760 279 760T328 748Q335 722 335 709T330 668Q311 569 304 510Q296 505 280 505T253 510Q245 577 234 636ZM48 696T48 711T54 748Q75 760 104 760T153 748Q160
722 160 709T155 668Q136 569 129 510Q121 505 105 505T78 510Q70 577 59 636Z" />
<glyph unicode="#" glyph-name="numbersign" horiz-adv-x="637" d="M423 493L455 637Q472 644 499 644T544 637L511 493H609Q615 476 615 452T609 412H493L455 239H562Q568 222 568 198T562 157H436L404 13Q388 6 360 6T316 13L348 157H221L189 13Q173 6 145 6T101
13L133 157H30Q24 174 24 198T30 239H152L190 412H77Q71 428 71 452T77 493H208L241 637Q258 644 285 644T329 637L296 493H423ZM278 412L240 239H366L405 412H278Z" />
<glyph unicode="$" glyph-name="dollar" horiz-adv-x="498" d="M34 99Q35 119 47 141T74 174Q173 118 255 118Q298 118 327 136T356 185T336 237T280 271L179 307Q57 353 57 451Q57 510 96 552T204 605V688Q219 691 243 691T283 688V607Q360 601 439 564Q439 517
404 487Q319 526 249 526Q207 526 182 508T157 462T173 419T228 392L326 356Q385 335 421 295T458 193T410 88T279 38V-39Q269 -41 240 -41T200 -39V40Q103 54 34 99Z" />
<glyph unicode="%" glyph-name="percent" horiz-adv-x="897" d="M849 305T849 192T800 29Q760 -12 693 -12T585 29Q537 80 537 192T585 353Q624 395 692 395T800 353Q849 305 849 192ZM765 330T693 330T621 192T693 53T765 191ZM360 605T360 492T311 330Q270 288
204 288T97 330Q48 379 48 491T97 654Q137 695 205 695T311 654Q360 605 360 492ZM205 630Q132 630 132 492T205 353Q276 353 276 491T205 630ZM212 0L589 683Q606 689 621 689Q668 689 684 683L308 0Q291 -6 276 -6Q228 -6 212 0Z" />
<glyph unicode="&amp;" glyph-name="ampersand" horiz-adv-x="618" d="M495 320L496 258V150Q496 111 502 0Q482 -5 458 -5T411 -1L403 40Q330 -13 241 -13T101 40T51 180Q51 246 89 297T183 366Q138 382 109 424T80 518Q80 594 136 645T290 696T468 667Q468 664
468 661Q468 617 442 590Q357 615 300 615T214 587T184 510T215 433T310 404H493Q554 404 587 419Q600 403 600 372Q600 320 527 320H495ZM399 257Q399 297 400 320H300Q227 320 191 280T155 185T184 98T264 67Q343 67 399 115V257Z" />
<glyph unicode="&apos;" glyph-name="quotesingle" horiz-adv-x="207" d="M44 696T44 711T50 748Q71 760 100 760T149 748Q156 722 156 709T151 668Q132 569 125 510Q117 505 101 505T74 510Q66 577 55 636Z" />
<glyph unicode="(" glyph-name="parenleft" horiz-adv-x="326" d="M311 774Q168 590 168 325T311 -125Q293 -164 253 -178Q164 -90 114 49T63 325T113 601T253 827Q293 815 311 774Z" />
<glyph unicode=")" glyph-name="parenright" horiz-adv-x="326" d="M15 -125Q159 61 159 324T15 774Q33 815 74 827Q163 740 213 601T263 325T213 49T74 -178Q33 -164 15 -125Z" />
<glyph unicode="*" glyph-name="asterisk" horiz-adv-x="502" d="M46 551Q46 554 46 563T53 595T73 632L124 615Q159 603 226 562Q209 636 209 676L208 731Q224 738 251 738T294 731V676Q293 644 275 562Q331 598 378 615L430 631Q441 619 449 594T457 550L405
534Q371 523 290 516Q346 470 372 434L404 390Q396 375 375 360T335 340L304 384Q283 411 251 487Q222 416 198 384L167 340Q150 344 129 359T97 391L129 434Q155 468 211 516Q135 520 98 534L46 551Z" />
<glyph unicode="+" glyph-name="plus" horiz-adv-x="530" d="M221 334L220 381V509Q241 512 265 512T310 509V381Q310 381 309 334L355 335H473Q477 316 477 292T473 251H355L309 252L310 206V77Q290 74 266 74T220 77V206L221 252L175 251H57Q53 267 53 292T57
335H175L221 334Z" />
<glyph unicode="," glyph-name="comma" horiz-adv-x="266" d="M60 -159Q35 -145 35 -116Q35 -112 35 -109Q70 -93 92 -67T116 -9Q86 -1 77 5Q68 21 68 54T77 101Q101 114 138 114T194 101Q204 78 204 37Q204 -28 167 -81T60 -159Z" />
<glyph unicode="-" glyph-name="hyphen" horiz-adv-x="347" d="M295 224H51Q47 241 47 265T51 309H295Q300 292 300 266T295 224Z" />
<glyph unicode="." glyph-name="period" horiz-adv-x="260" d="M62 22T62 53T71 102Q93 114 130 114T189 102Q198 84 198 53T189 4Q170 -8 132 -8T71 4Q62 22 62 53Z" />
<glyph unicode="/" glyph-name="slash" horiz-adv-x="419" d="M8 -78L324 760Q373 756 408 729L92 -110Q44 -107 8 -78Z" />
<glyph unicode="0" glyph-name="zero" horiz-adv-x="530" d="M79 90T64 155T48 324T63 493T121 604Q176 661 264 661T409 604Q451 558 466 493T482 324T467 156T409 44Q352 -13 265 -13T121 44Q79 90 64 155ZM150 497T150 324T191 99Q217 64 265 64T339 99Q380
151 380 324T339 549Q313 584 265 584T191 549Q150 497 150 324Z" />
<glyph unicode="1" glyph-name="one" horiz-adv-x="530" d="M246 81L245 147V387Q245 406 250 508Q192 436 104 399Q71 418 62 457Q204 545 249 648Q269 653 294 653T341 648V147L340 81L398 82H468Q473 60 473 42T468 0H97Q92 23 92 41T97 82H190L246 81Z" />
<glyph unicode="2" glyph-name="two" horiz-adv-x="530" d="M473 86Q473 61 471 48Q463 0 408 0H96Q56 35 56 62Q56 146 182 253L279 338Q357 405 357 477Q357 524 329 552T258 580T184 554T133 484Q81 488 63 518Q86 579 139 620T272 661T404 610T457 476Q457
429 438 388T396 324T332 265L255 198Q166 122 154 79Q221 86 284 86H473Z" />
<glyph unicode="3" glyph-name="three" horiz-adv-x="530" d="M429 541L320 425Q301 405 283 393Q365 391 419 343T473 197T406 44T247 -13Q127 -13 50 52Q59 92 93 118Q161 67 228 67T333 103T371 201T340 294T263 326T186 309Q157 322 146 362L275 502Q305 536
343 568L339 572Q298 563 222 563H78Q72 580 72 603T81 648H428Q449 610 449 586T429 541Z" />
<glyph unicode="4" glyph-name="four" horiz-adv-x="530" d="M388 141L389 91V0Q369 -4 342 -4T294 0V91L295 141L244 140H63Q41 177 41 195T61 261L231 654Q241 656 253 656Q298 656 322 636L201 358Q160 262 136 222L138 219Q195 222 251 222H295Q294 233 294
256V340Q294 375 311 394T358 414H385L389 410V273L388 222L433 223H489Q492 210 492 186T485 141H388Z" />
<glyph unicode="5" glyph-name="five" horiz-adv-x="530" d="M437 648Q444 628 444 608Q444 564 401 564H185Q185 523 184 511L180 438Q180 428 177 410Q224 430 270 430Q362 430 416 375T471 215T405 48T236 -13T58 50Q66 90 100 116Q170 67 232 67T332 105T370
216T333 321T239 353T128 307Q115 309 101 319T81 340L95 641L102 648H437Z" />
<glyph unicode="6" glyph-name="six" horiz-adv-x="530" d="M484 114T425 51T270 -13T123 50Q112 63 108 68T91 99T72 150Q52 230 52 328Q52 483 118 572T308 661Q396 661 450 629Q446 584 415 560Q365 582 313 582Q235 582 196 525T154 373Q218 432 302 432T435
378T484 219ZM277 350Q210 350 154 291V275Q154 156 197 101Q226 63 276 63T355 102T384 209Q384 350 277 350Z" />
<glyph unicode="7" glyph-name="seven" horiz-adv-x="530" d="M70 648H464Q483 612 483 590T467 545L434 497Q356 382 314 277T258 35L255 0Q233 -5 205 -5T154 0L158 40Q181 276 323 482L334 498Q350 523 389 568L386 572Q346 563 231 563H66Q62 578 62 600T70 648Z" />
<glyph unicode="8" glyph-name="eight" horiz-adv-x="530" d="M46 163Q46 219 79 265T164 337Q64 392 64 490Q64 564 121 612T266 661T409 615T465 495Q465 447 438 409T367 347Q483 286 483 171Q482 87 418 37T259 -13T105 33T46 163ZM237 307H235Q192 284 169
248T146 165T179 89T263 59T348 90T382 172Q382 265 253 302L237 307ZM162 492Q162 413 281 380L293 376Q368 417 368 491Q368 536 339 562T265 588T191 562T162 492Z" />
<glyph unicode="9" glyph-name="nine" horiz-adv-x="530" d="M46 534T105 597T260 661T407 598Q418 585 422 580T439 549T458 498Q478 418 478 320Q478 165 412 76T222 -13Q134 -13 80 19Q84 64 115 88Q165 66 217 66Q295 66 334 123T375 274Q312 216 228 216T95
270T46 429ZM253 298Q320 298 376 357V373Q376 492 333 547Q304 585 254 585T175 546T146 439Q146 298 253 298Z" />
<glyph unicode=":" glyph-name="colon" horiz-adv-x="265" d="M65 22T65 53T74 102Q96 114 133 114T192 102Q201 84 201 53T192 4Q173 -8 135 -8T74 4Q65 22 65 53ZM65 354T65 385T74 434Q96 446 133 446T192 434Q201 416 201 385T192 336Q173 324 135 324T74
336Q65 354 65 385Z" />
<glyph unicode=";" glyph-name="semicolon" horiz-adv-x="269" d="M59 -159Q34 -145 34 -116Q34 -112 34 -109Q69 -93 91 -67T115 -9Q84 -1 76 5Q67 21 67 54T76 101Q100 114 137 114T193 101Q203 78 203 37Q203 -28 166 -81T59 -159ZM67 354T67 385T76 434Q98
446 135 446T194 434Q203 416 203 385T194 336Q175 324 137 324T76 336Q67 354 67 385Z" />
<glyph unicode="&lt;" glyph-name="less" horiz-adv-x="530" d="M54 331L425 534Q465 510 470 458L226 329Q186 309 154 295V289Q205 267 226 255L470 127Q465 76 425 50L54 253Q48 276 48 295T54 331Z" />
<glyph unicode="=" glyph-name="equal" horiz-adv-x="530" d="M473 158H57Q53 175 53 199T57 243H473Q477 224 477 200T473 158ZM473 346H57Q53 363 53 387T57 431H473Q477 412 477 388T473 346Z" />
<glyph unicode="&gt;" glyph-name="greater" horiz-adv-x="530" d="M476 254L105 51Q65 75 60 127L304 256Q344 276 376 290V296Q325 318 304 330L60 458Q65 509 105 535L476 332Q482 310 482 291T476 254Z" />
<glyph unicode="?" glyph-name="question" horiz-adv-x="393" d="M12 646Q103 695 193 695T334 649T384 526Q384 406 254 333L191 298L183 193Q169 188 146 188T108 193L103 342L111 353L159 377Q280 440 280 517Q280 559 254 584T173 609T48 572Q35 584 24 605T12
646ZM92 93Q111 105 146 105T201 93Q210 77 210 47T201 3Q182 -9 147 -9T92 3Q84 16 84 47T92 93Z" />
<glyph unicode="@" glyph-name="at" horiz-adv-x="945" d="M659 412L658 156Q658 84 702 84T776 134T806 292Q806 433 720 518T485 604T243 497T149 228T231 -23T450 -111Q564 -111 654 -74Q681 -99 681 -143Q564 -187 445 -187Q268 -187 160 -80T52 224T175 548T485
676T787 571T902 289Q902 159 842 85T699 10T582 73Q520 6 444 6T326 65T283 230T337 408T488 481T659 412ZM462 83Q488 83 517 101T566 146V378Q535 409 485 409T406 358T378 229Q378 83 462 83Z" />
<glyph unicode="A" glyph-name="A" horiz-adv-x="608" d="M429 169L368 168H231L170 169L116 -1Q100 -5 75 -5T24 2L21 7L248 683Q268 687 306 687T361 683L587 6Q565 -7 535 -7T492 4T469 46L429 169ZM196 250L249 251H352Q354 251 374 251T403 250L354 405Q324
496 302 583H296Q280 511 258 444L196 250Z" />
<glyph unicode="B" glyph-name="B" horiz-adv-x="604" d="M316 -4L99 -1L92 6V677L99 684L304 687Q412 687 466 640T521 506Q521 459 495 420T425 365Q479 350 516 302T553 191Q553 104 495 50T316 -4ZM310 320H191V72Q235 73 296 73T385 84T426 116Q450 153 450
198T418 282T310 320ZM191 610V398H300Q366 398 392 429T419 504Q419 609 302 609Q225 609 191 610Z" />
<glyph unicode="C" glyph-name="C" horiz-adv-x="603" d="M464 451Q464 454 464 474T453 528T407 588T321 614Q240 614 198 544T156 344T201 144T329 74T505 151Q545 125 555 86Q512 42 447 15T312 -13T190 16T108 96Q51 195 51 338Q51 515 128 605T317 696T495
638T562 502Q562 445 505 445Q487 445 464 451Z" />
<glyph unicode="D" glyph-name="D" horiz-adv-x="646" d="M549 585T571 513T593 341T572 169T488 46Q458 21 409 8T316 -5T99 -1L92 6V677L99 684Q185 687 315 687Q359 687 408 674T488 636Q549 585 571 513ZM192 77L314 76Q358 76 390 92T441 134T471 196T485
266T489 341T486 415T471 486T442 548T391 589T314 606L192 607V77Z" />
<glyph unicode="E" glyph-name="E" horiz-adv-x="565" d="M190 386L252 387H444Q449 364 449 345T444 303H252Q213 303 190 304V130Q190 122 190 107T189 82Q217 85 254 85H516Q516 59 514 46Q505 -1 450 -1H149Q123 -1 108 15T92 61V677L98 683H497Q500 668 500
644T493 598H252Q212 598 189 599L190 534V386Z" />
<glyph unicode="F" glyph-name="F" horiz-adv-x="520" d="M191 598L192 476V385Q208 386 237 386H439Q444 364 444 345T439 302H237Q208 302 192 303V0Q172 -4 142 -4T92 0V677L99 683H491Q497 665 497 643Q497 597 440 597H290Q219 597 191 598Z" />
<glyph unicode="G" glyph-name="G" horiz-adv-x="642" d="M351 356H505Q544 356 560 340T577 290V30Q465 -13 332 -13Q257 -13 201 15T114 94Q51 192 51 337Q51 429 76 500T144 612Q229 696 344 696Q481 696 576 622Q568 575 526 547Q445 610 343 610Q259 610
207 544T155 336Q155 71 350 71Q420 71 481 89V206Q481 250 482 269H390Q343 269 343 314Q343 332 351 356Z" />
<glyph unicode="H" glyph-name="H" horiz-adv-x="673" d="M482 395L481 469V683Q500 687 530 687T581 683V0Q560 -4 531 -4T481 0V237L482 311L424 310H249L191 311L192 237V0Q172 -4 142 -4T92 0V683Q112 687 142 687T192 683V469L191 395L249 396H424L482 395Z" />
<glyph unicode="I" glyph-name="I" horiz-adv-x="292" d="M96 0V683Q115 687 145 687T196 683V0Q176 -4 146 -4T96 0Z" />
<glyph unicode="J" glyph-name="J" horiz-adv-x="446" d="M48 107Q103 74 160 74T242 110T266 232V683Q286 687 316 687T366 683V247Q366 187 359 145T330 65Q287 -10 165 -10Q77 -10 10 32Q18 75 48 107Z" />
<glyph unicode="K" glyph-name="K" horiz-adv-x="594" d="M576 26Q555 -6 508 -6Q480 -6 466 8T441 56L385 205Q363 263 336 286T263 310Q242 310 192 307V0Q172 -4 142 -4T92 0V683Q112 687 142 687T192 683V394L252 395Q274 395 289 423L422 644Q434 667 446
676T484 686T540 683L546 674L391 414Q373 384 353 367Q401 359 427 330T476 243L532 96Q551 47 576 26Z" />
<glyph unicode="L" glyph-name="L" horiz-adv-x="511" d="M280 86H482Q482 59 480 46Q471 -1 415 -1H150Q124 -1 108 15T92 62V681L98 687H137Q167 687 179 672T192 623V83Q239 86 280 86Z" />
<glyph unicode="M" glyph-name="M" horiz-adv-x="804" d="M76 1L129 683Q152 687 195 687T260 683L360 361Q368 338 382 281T399 205H405Q415 268 445 361L544 683Q569 687 610 687T675 683L728 1Q707 -5 680 -5T633 -1L608 376Q601 489 600 576H594L453 105Q432
101 402 101T352 105L210 576H204Q198 404 196 376L172 -1Q152 -5 124 -5T76 1Z" />
<glyph unicode="N" glyph-name="N" horiz-adv-x="678" d="M181 565H177Q185 429 185 326V0Q162 -4 139 -4T92 0V682Q120 687 153 687T212 683L430 256Q445 227 468 177T498 113V112L501 113Q493 239 493 360V624Q493 658 504 672T547 687H579L586 682V1Q558 -4
524 -4T465 0L246 427Q216 486 181 565Z" />
<glyph unicode="O" glyph-name="O" horiz-adv-x="657" d="M156 394T156 342T163 246T188 160T241 93T323 68T400 85T450 128T480 192Q500 256 500 325T493 437T469 523T415 590T328 615T242 591T189 524T164 438ZM157 47Q51 139 51 341T157 636Q225 696 328 696T499
636Q606 544 606 342T499 47Q431 -13 328 -13T157 47Z" />
<glyph unicode="P" glyph-name="P" horiz-adv-x="565" d="M99 684L301 687Q404 687 466 630T529 467T467 303T301 245H192V0Q172 -4 142 -4T92 0V677L99 684ZM192 324L299 325Q347 325 376 348T415 401T424 477T396 565T297 606T192 607V324Z" />
<glyph unicode="Q" glyph-name="Q" horiz-adv-x="650" d="M455 -100L340 -12Q336 -13 329 -13Q222 -13 154 45Q51 136 51 341T154 638Q220 696 324 696T495 638Q598 547 598 347T506 59Q478 31 448 19L470 4Q547 -52 597 -53Q595 -88 575 -107T522 -126T455 -100ZM325
615Q155 615 155 343T325 70Q493 70 493 342T325 615Z" />
<glyph unicode="R" glyph-name="R" horiz-adv-x="599" d="M99 684L311 687Q416 687 476 634T536 483Q536 416 500 368T407 301Q452 285 477 217L523 96Q543 43 567 24Q547 -7 500 -7Q473 -7 459 7T433 55L381 194Q366 235 344 256T278 277H192V0Q172 -4 142 -4T92
0V677L99 684ZM192 608V357Q251 360 313 360T404 395T432 483Q432 607 307 607Q226 607 192 608Z" />
<glyph unicode="S" glyph-name="S" horiz-adv-x="556" d="M32 62Q37 110 75 139Q179 71 276 71Q337 71 373 98T409 170Q409 239 314 281L197 331Q60 391 60 504Q60 586 122 641T288 696T493 645Q491 597 456 566Q362 613 296 613T196 586T162 521T184 461T248
421L364 372Q513 306 513 186Q513 97 451 42T265 -13T32 62Z" />
<glyph unicode="T" glyph-name="T" horiz-adv-x="490" d="M295 600L296 526V0Q275 -4 246 -4T196 0V600L139 599H18Q14 618 14 640T18 683H473Q479 666 479 643Q479 599 423 599H353L296 600H295Z" />
<glyph unicode="U" glyph-name="U" horiz-adv-x="668" d="M584 683V238Q584 117 517 52T334 -13T152 52T84 238V681L90 687H128Q159 687 171 672T184 623V239Q184 155 222 112T334 68T446 111T485 239V683Q504 687 534 687T584 683Z" />
<glyph unicode="V" glyph-name="V" horiz-adv-x="571" d="M298 91L460 683Q477 687 503 687T549 681L553 674L353 -1Q305 -5 277 -5T233 4T208 44L22 674Q56 690 83 690Q124 690 138 641L245 271Q254 241 289 100Q291 91 298 91Z" />
<glyph unicode="W" glyph-name="W" horiz-adv-x="844" d="M158 46L32 678Q57 690 84 690T124 678T141 636L206 287L239 94Q240 86 241 85T247 83L360 669Q385 673 426 673T489 669L592 94Q593 86 595 85T601 83Q614 169 637 288L717 683Q734 687 761 687T810 681L815
674L670 1Q634 -5 594 -5T539 5T518 45L469 319Q451 413 427 568H420Q396 426 375 319L311 0Q271 -5 225 -5Q168 -5 158 46Z" />
<glyph unicode="X" glyph-name="X" horiz-adv-x="584" d="M447 683Q460 688 490 688T540 679L543 672L351 361L565 15Q534 -7 497 -7T435 33L285 276L118 0Q103 -5 74 -5T22 4L19 11L235 358L44 668Q75 690 111 690T173 650L301 442L447 683Z" />
<glyph unicode="Y" glyph-name="Y" horiz-adv-x="498" d="M301 447L394 683Q411 688 435 688T485 681L490 674L300 220V0Q280 -4 250 -4T200 0V222L10 672Q42 690 67 690T105 680T127 646L210 445Q226 405 252 322H257Q273 377 301 447Z" />
<glyph unicode="Z" glyph-name="Z" horiz-adv-x="560" d="M62 108L319 496Q348 539 397 603L394 606Q353 598 238 598H75Q71 614 71 636T78 683H487Q502 632 502 615T488 577L233 193Q197 138 155 84L158 81Q221 87 275 87H385Q464 87 503 105Q511 83 511 56Q511
0 441 0H62Q49 48 49 67T62 108Z" />
<glyph unicode="[" glyph-name="bracketleft" horiz-adv-x="337" d="M303 -140L106 -148L99 -141V807L106 814L303 806Q307 795 307 778T299 736L197 733V-67L299 -69Q307 -96 307 -112T303 -140Z" />
<glyph unicode="\" glyph-name="backslash" horiz-adv-x="419" d="M327 -110L11 729Q48 758 95 760L411 -78Q376 -105 327 -110Z" />
<glyph unicode="]" glyph-name="bracketright" horiz-adv-x="337" d="M231 -148L34 -140Q31 -131 31 -110T39 -69L141 -67V733L39 736Q31 754 31 776T34 806L231 814L238 807V-141L231 -148Z" />
<glyph unicode="^" glyph-name="asciicircum" horiz-adv-x="530" d="M317 648L484 306Q468 301 438 301T388 306L302 489Q296 501 268 570H262Q234 501 228 489L142 306Q123 301 93 301T46 306L213 648Q231 652 264 652T317 648Z" />
<glyph unicode="_" glyph-name="underscore" horiz-adv-x="525" d="M526 -152H0Q-4 -137 -4 -115T0 -76H526Q530 -100 530 -115T526 -152Z" />
<glyph unicode="`" glyph-name="grave" horiz-adv-x="398" d="M135 735L277 577Q266 548 234 537L65 670Q73 691 93 709T135 735Z" />
<glyph unicode="a" glyph-name="a" horiz-adv-x="506" d="M458 43Q448 8 420 -7Q365 4 344 57Q272 -13 197 -13T84 31T45 134Q45 216 97 257T236 299Q287 299 335 292V333Q335 424 251 424Q186 424 92 385Q65 412 63 457Q168 503 268 503Q345 503 387 461T430
336V131Q430 67 458 43ZM212 65Q279 65 335 130V226Q296 231 245 231T168 207T142 145T160 86T212 65Z" />
<glyph unicode="b" glyph-name="b" horiz-adv-x="527" d="M392 501T437 433T482 246T419 60T262 -8T80 25V729L87 735H122Q152 735 163 721T175 673V448Q236 501 314 501ZM289 420Q223 420 175 360V78Q213 65 264 65T349 113T383 249T357 378T289 420Z" />
<glyph unicode="c" glyph-name="c" horiz-adv-x="471" d="M343 306Q343 311 343 316Q343 431 251 431Q201 431 174 383T146 243Q146 67 262 67Q315 67 385 119Q399 111 411 94T427 61Q353 -13 250 -13T97 60T46 253T106 439T252 506T385 460T433 358T383 302Q360
302 343 306Z" />
<glyph unicode="d" glyph-name="d" horiz-adv-x="529" d="M134 -13T90 56T46 245T102 433T236 501Q292 501 352 467V729L358 735H395Q425 735 436 721T447 673V140Q447 68 475 43Q465 8 437 -7Q383 4 363 56Q303 -13 219 -13ZM238 68Q304 68 352 134V385Q296 423
250 423T174 377T144 242T170 111T238 68Z" />
<glyph unicode="e" glyph-name="e" horiz-adv-x="501" d="M443 216H146Q149 145 176 106T266 67T405 106Q430 82 436 43Q356 -13 249 -13T94 59T46 246T99 434T249 506T398 446T450 292Q450 254 443 216ZM356 359T331 396T254 434T176 396T146 287H356V300Q356
359 331 396Z" />
<glyph unicode="f" glyph-name="f" horiz-adv-x="331" d="M102 0V423L16 422Q12 444 12 457T16 494L98 493Q91 549 91 586Q91 653 131 696T241 739T368 716Q368 675 346 651Q295 666 259 666T203 644T183 582T191 492L333 494Q337 470 337 457T333 422L197 423V0Q178
-4 150 -4T102 0Z" />
<glyph unicode="g" glyph-name="g" horiz-adv-x="527" d="M135 -9T91 59T46 249T102 438T236 506T374 453Q395 490 438 500Q466 485 476 450Q448 425 448 353V53Q448 -98 401 -155Q348 -220 238 -220Q149 -220 67 -187Q67 -142 93 -113Q159 -145 230 -145T328
-107T355 -1V48Q294 -9 215 -9ZM355 136V380Q303 427 253 427T174 381T144 247T170 116T237 73Q305 73 355 136Z" />
<glyph unicode="h" glyph-name="h" horiz-adv-x="544" d="M468 339V103Q468 45 484 14Q458 -7 423 -7Q372 -7 372 55V314Q372 368 358 391T310 414T239 396T175 349V0Q158 -4 129 -4T80 0V729L87 735H123Q153 735 164 721T175 673V434Q249 501 336 501Q403 501
435 456T468 339Z" />
<glyph unicode="i" glyph-name="i" horiz-adv-x="268" d="M189 411V0Q172 -4 141 -4T93 0V371Q93 398 84 410T50 422H39Q35 437 35 456T39 492Q71 496 99 496H112Q148 496 168 474T189 411ZM318 605T318 630T326 673Q347 685 381 685T432 673Q440 655 440 630T432
587Q415 575 380 575T326 587Q318 605 318 630Z" />
<glyph unicode="j" glyph-name="j" horiz-adv-x="275" d="M196 411V17Q196 -69 187 -105T164 -160Q130 -200 57 -219Q34 -198 28 -159Q70 -138 85 -112T100 -36V371Q100 399 91 410T57 422H37Q33 444 33 455T37 492Q73 496 108 496H120Q155 496 175 474T196 411ZM68
605T68 630T76 673Q97 685 131 685T182 673Q190 655 190 630T182 587Q165 575 130 575T76 587Q68 605 68 630Z" />
<glyph unicode="k" glyph-name="k" horiz-adv-x="499" d="M398 185L433 101Q457 41 481 23Q457 -7 416 -7Q391 -7 379 6T353 50L311 149Q294 189 277 203T230 217T175 214V0Q158 -4 129 -4T80 0V729L87 735H123Q153 735 164 721T175 673V295L211 297Q224 297 235
312L327 454Q340 476 354 486T396 496T443 495L449 487L336 311Q323 290 305 275Q366 259 398 185Z" />
<glyph unicode="l" glyph-name="l" horiz-adv-x="291" d="M212 73H251Q259 51 259 33T257 3Q217 -4 174 -4Q79 -4 79 94V729L85 735H121Q151 735 162 721T173 673V117Q173 73 212 73Z" />
<glyph unicode="m" glyph-name="m" horiz-adv-x="796" d="M352 315Q352 368 337 391T290 414Q233 414 177 350V0Q160 -4 130 -4T80 0V490L87 497H123Q174 497 177 434Q243 502 322 502T433 428Q512 502 593 502Q655 502 687 458T720 346V103Q720 45 736 14Q712
-7 675 -7Q624 -7 624 55V316Q624 369 609 391T562 414Q503 414 448 349V0Q431 -4 400 -4T352 0V315Z" />
<glyph unicode="n" glyph-name="n" horiz-adv-x="546" d="M470 340V103Q470 43 485 14Q460 -7 425 -7Q373 -7 373 55V315Q373 369 360 391T312 414T241 396T177 349V0Q160 -4 130 -4T80 0V491L87 497H123Q174 497 177 434Q252 502 338 502Q405 502 437 457T470 340Z" />
<glyph unicode="o" glyph-name="o" horiz-adv-x="520" d="M404 451Q474 380 474 247T404 42Q349 -13 260 -13T116 42Q46 113 46 246T116 451Q171 506 260 506T404 451ZM146 246Q146 62 260 62T374 246Q374 298 365 337T329 404T260 432T192 404T156 337T146 246Z" />
<glyph unicode="p" glyph-name="p" horiz-adv-x="529" d="M395 506T439 437T483 247T427 59T293 -9Q233 -9 175 26V-153Q175 -186 164 -200T123 -215H87L80 -209V491L87 497H117Q165 497 173 445Q232 506 313 506ZM291 424Q221 424 175 355V109Q230 70 278 70T355
116T385 251T359 381T291 424Z" />
<glyph unicode="q" glyph-name="q" horiz-adv-x="528" d="M353 -153V46Q292 -9 214 -9T91 59T46 249T102 438T237 506T373 455Q396 490 438 500Q464 485 476 450Q448 426 448 353V-209L441 -215H405Q375 -215 364 -201T353 -153ZM237 73Q303 73 353 133V382Q301
427 253 427T174 381T144 247T170 116T237 73Z" />
<glyph unicode="r" glyph-name="r" horiz-adv-x="365" d="M53 448Q61 482 89 500Q155 484 176 411Q217 500 307 500Q331 500 359 494Q359 440 336 403Q330 404 296 407Q226 407 186 329V0Q169 -4 138 -4T89 0V346Q89 414 53 448Z" />
<glyph unicode="s" glyph-name="s" horiz-adv-x="437" d="M32 37Q33 54 42 74T65 105Q147 60 197 60T273 78T299 126Q299 172 234 197L178 219Q50 267 50 360Q50 427 99 466T229 506T386 471Q387 452 379 431T357 399Q284 431 224 431Q190 431 169 415T148 373T163
334T213 306L273 284Q399 235 399 134Q399 67 347 27T205 -13T32 37Z" />
<glyph unicode="t" glyph-name="t" horiz-adv-x="348" d="M318 494Q322 477 322 458T318 422L193 423V116Q193 73 234 73H304Q312 54 312 32T311 3Q253 -4 201 -4Q99 -4 99 94V423L26 422Q22 438 22 457T26 494L99 493V584Q99 618 110 632T151 646H187L193 640V492L318
494Z" />
<glyph unicode="u" glyph-name="u" horiz-adv-x="547" d="M76 153V390Q76 448 60 479Q83 499 116 499T160 484T172 437V178Q172 124 186 101T234 78T305 96T369 144V493Q395 497 417 497T465 493V139Q465 67 493 42Q484 9 456 -7Q395 6 377 66Q302 -9 207 -9Q141
-9 109 36T76 153Z" />
<glyph unicode="v" glyph-name="v" horiz-adv-x="453" d="M235 79L356 493Q369 497 395 497T442 490L445 486Q346 167 288 0Q262 -5 225 -5T174 5T148 50L7 486Q38 500 63 500Q104 500 115 460L185 236Q208 164 225 87Q227 79 235 79Z" />
<glyph unicode="w" glyph-name="w" horiz-adv-x="718" d="M129 50L25 487Q54 500 82 500Q119 500 127 461L174 248Q192 160 207 81Q209 72 215 72L303 491Q328 496 362 496T419 491L503 81Q505 72 511 72Q516 93 523 128Q534 183 549 248L604 493Q619 497 648
497T694 490L697 485L575 -1Q550 -5 511 -5T455 5T433 49L403 192L363 402H358Q348 346 316 193L274 0Q237 -5 203 -5T153 6T129 50Z" />
<glyph unicode="x" glyph-name="x" horiz-adv-x="458" d="M332 493Q348 497 374 497T419 490L422 483L281 262L443 15Q407 -8 376 -8T326 22L222 181L110 -1Q98 -5 69 -5T20 3L16 10L174 256L29 479Q61 501 93 501T145 472L234 335L332 493Z" />
<glyph unicode="y" glyph-name="y" horiz-adv-x="464" d="M452 485L318 16Q282 -109 236 -163T98 -218Q49 -218 6 -203Q6 -199 6 -194Q6 -160 27 -133Q59 -145 103 -145T175 -113T222 -16L225 -5Q194 -3 177 8T151 48L18 486Q49 500 76 500Q113 500 126 457L196
222Q202 203 235 73Q237 66 244 66L357 493Q373 497 400 497T448 490L452 485Z" />
<glyph unicode="z" glyph-name="z" horiz-adv-x="446" d="M52 93L220 323Q261 376 299 420L296 423Q242 417 163 417H54Q51 433 51 450T56 493H389Q404 451 404 436T391 401L223 174Q217 165 146 76L149 72Q193 76 243 76H292Q370 76 401 89Q411 68 411 46Q411
0 348 0H50Q36 41 36 56T52 93Z" />
<glyph unicode="{" glyph-name="braceleft" horiz-adv-x="340" d="M313 817Q332 796 332 763Q332 755 330 749L282 734Q222 715 222 646V478Q222 430 200 389T140 329V321Q177 303 199 262T222 172V4Q222 -67 282 -84L330 -100Q332 -106 332 -114T328 -139T313
-167L264 -159Q200 -148 162 -107T124 3V174Q124 218 101 249T42 293Q38 304 38 325T42 357Q78 369 101 400T124 476V647Q124 716 162 757T264 809L313 817Z" />
<glyph unicode="|" glyph-name="bar" horiz-adv-x="254" d="M81 -141V774Q98 779 126 779T172 774V-141Q153 -145 127 -145T81 -141Z" />
<glyph unicode="}" glyph-name="braceright" horiz-adv-x="340" d="M27 -167Q8 -146 8 -113Q8 -106 10 -100L58 -84Q118 -67 118 4V172Q118 220 140 261T200 321V329Q163 347 141 388T118 478V646Q118 715 58 734L10 749Q8 755 8 764T12 789T27 817L77 809Q140
798 178 757T216 647V476Q216 432 239 401T298 357Q302 346 302 325T298 293Q262 281 239 250T216 174V3Q216 -65 178 -106T77 -159L27 -167Z" />
<glyph unicode="~" glyph-name="asciitilde" horiz-adv-x="580" d="M272 352L351 317Q378 305 407 305T464 338L482 359Q499 357 516 347T540 321L527 299Q480 213 392 213Q353 213 308 234L229 269Q202 281 173 281T116 248L98 227Q82 228 65 238T41 264L53 287Q99
372 188 372Q230 372 272 352Z" />
<glyph unicode="&#xa1;" glyph-name="exclamdown" horiz-adv-x="285" d="M182 300L193 -169Q155 -197 89 -197L83 -190L107 300Q122 305 145 305T182 300ZM178 386T144 386T90 399Q81 413 81 443T90 489Q111 501 144 501T199 489Q207 475 207 444T199 399Q178
386 144 386Z" />
<glyph unicode="&#xa2;" glyph-name="cent" horiz-adv-x="469" d="M208 -31V69Q123 83 84 154T44 331T91 501T211 582V681Q225 684 249 684T290 681V583Q357 573 393 530T429 440Q429 382 378 382Q356 382 340 386Q340 392 340 398Q340 441 320 475T248 510Q146
510 146 329T261 147Q320 147 382 200Q414 179 426 145Q372 83 287 69V-31Q276 -33 247 -33T208 -31Z" />
<glyph unicode="&#xa3;" glyph-name="sterling" horiz-adv-x="528" d="M212 342L397 343Q402 325 402 307T397 269Q284 269 227 270V263Q227 176 159 81L162 78Q252 83 297 83H489Q489 60 487 47Q480 -1 423 -1H69Q56 47 56 67T69 106L86 131Q135 204 135 265V269H59Q53
286 53 305T59 343Q68 343 88 343T118 342Q115 351 105 374T90 411Q77 450 77 483Q77 553 128 607T274 661Q389 661 471 588Q469 568 454 549T420 523Q354 578 281 578Q235 578 205 552T175 478Q175 442 192 397T212 342Z" />
<glyph unicode="&#xa4;" glyph-name="currency" horiz-adv-x="573" d="M104 213Q69 267 69 335T104 456L33 533Q49 563 87 587L164 515Q219 549 286 549T407 515L486 588Q519 570 539 535L467 456Q503 403 503 335T467 213L539 135Q522 104 486 82L407 154Q354
121 286 121T165 154L87 82Q54 101 33 136L104 213ZM232 475T200 434T167 335T199 236T286 195T373 235T405 334T373 434T287 475Z" />
<glyph unicode="&#xa5;" glyph-name="yen" horiz-adv-x="512" d="M454 174H303V0Q283 -4 255 -4T207 0V174H56Q51 194 51 206T56 241H202L166 322H56Q51 344 51 356T56 390H136L25 639Q62 658 91 658T138 620L215 432Q232 395 256 319H262Q291 406 304 433L395
650Q416 656 437 656T484 650L488 644L374 390H454Q458 373 458 356T454 322H344L307 241H454Q458 224 458 207T454 174Z" />
<glyph unicode="&#xa6;" glyph-name="brokenbar" horiz-adv-x="248" d="M79 -141V246Q95 251 123 251T169 246V-141Q150 -145 123 -145T79 -141ZM79 387V774Q95 779 123 779T169 774V387Q150 383 123 383T79 387Z" />
<glyph unicode="&#xa7;" glyph-name="section" horiz-adv-x="484" d="M368 438T410 401T452 310Q452 213 345 155Q415 109 415 41T364 -67T223 -107T67 -65Q66 -47 76 -26T99 5Q169 -32 233 -32Q271 -32 294 -15T317 30Q317 72 252 97L193 121Q117 151 75 188T32
286Q32 375 139 434Q70 479 70 547T120 656T248 696T401 661Q402 642 394 622T373 590Q303 621 258 621T190 604T168 559Q168 519 233 492L292 469Q368 438 410 401ZM251 383L208 400Q129 361 129 300Q129 268 156 247T234 206L276 190Q356 227 356 289Q356 321
328 342T251 383Z" />
<glyph unicode="&#xa8;" glyph-name="dieresis" horiz-adv-x="398" d="M237 591T237 611T245 649Q262 660 291 660T338 649Q345 630 345 610T338 573Q319 561 291 561T245 573Q237 591 237 611ZM53 592T53 611T60 649Q77 660 106 660T153 649Q161 631 161 610T153
573Q136 561 108 561T60 573Q53 592 53 611Z" />
<glyph unicode="&#xa9;" glyph-name="copyright" horiz-adv-x="804" d="M41 188T41 341T145 598T401 702T658 598T763 341T659 85T402 -19T145 84ZM283 632T204 548T124 342T203 136T402 51T600 135T680 341T601 547T402 632ZM476 382Q476 387 476 392Q476 424
459 450T401 477T337 442T314 343T340 244T414 209T513 250Q539 237 549 203Q523 177 482 160T400 143Q318 143 273 198T228 346T280 490T403 541T513 504T553 422T510 377Q491 377 476 382Z" />
<glyph unicode="&#xaa;" glyph-name="ordfeminine" horiz-adv-x="420" d="M374 341Q372 330 361 318T338 299Q295 306 277 345Q219 295 161 295T71 329T40 410Q40 474 81 505T191 537Q215 537 267 533V562Q267 627 207 627Q150 627 80 600Q57 622 55 660Q143 696
212 696Q350 696 350 565V411Q350 360 374 341ZM175 360Q223 360 267 406V475Q219 479 190 479T142 462T123 419T137 376T175 360Z" />
<glyph unicode="&#xab;" glyph-name="guillemotleft" horiz-adv-x="551" d="M509 419L368 257L514 90Q508 74 492 59T459 38L262 224Q257 236 257 255T262 286L454 470Q471 465 487 450T509 419ZM287 419L146 257L292 90Q286 74 270 59T237 38L40 224Q35 236 35
255T40 286L232 470Q249 465 265 450T287 419Z" />
<glyph unicode="&#xac;" glyph-name="logicalnot" horiz-adv-x="530" d="M383 257L337 256H52Q48 273 48 297T52 341H466L472 335V114Q455 110 429 110T382 114V213L383 257Z" />
<glyph unicode="&#xad;" glyph-name="uni00AD" horiz-adv-x="347" d="M295 224H51Q47 241 47 265T51 309H295Q300 292 300 266T295 224Z" />
<glyph unicode="&#xae;" glyph-name="registered" horiz-adv-x="592" d="M35 373T35 482T110 667T295 743T480 668T556 483T481 298T296 222T111 297ZM213 683T157 625T101 483T157 341T295 282T434 340T490 482T434 624T296 683ZM397 537Q397 487 346 471Q362
465 379 432L393 405Q404 384 415 377Q400 355 376 355T338 386L313 433Q302 452 282 452H258V360Q243 356 229 356T199 360V607L202 610Q266 612 307 612T373 592T397 537ZM258 567V499H295Q336 499 336 533Q336 548 326 557T298 567H258Z" />
<glyph unicode="&#xaf;" glyph-name="overscore" horiz-adv-x="398" d="M338 576H60Q56 592 56 615T60 655H338Q342 638 342 615T338 576Z" />
<glyph unicode="&#xb0;" glyph-name="degree" horiz-adv-x="324" d="M18 464T18 526T59 629T162 671T265 630T306 526T265 423T162 381T59 422ZM93 560T93 526T112 470T161 448T211 470T230 526T211 582T162 604T112 582Z" />
<glyph unicode="&#xb1;" glyph-name="plusminus" horiz-adv-x="530" d="M222 382L221 429V536Q238 540 265 540T310 536V429Q310 429 309 382L354 383H463Q467 364 467 343T463 302H354L309 303L310 256V148Q293 144 266 144T221 148V256L222 303L176 302H67Q63
321 63 342T67 383H176L222 382ZM463 0H67Q63 19 63 40T67 82H463Q467 62 467 41T463 0Z" />
<glyph unicode="&#xb2;" glyph-name="twosuperior" horiz-adv-x="420" d="M351 416Q351 390 350 380Q344 341 304 341H85Q57 375 57 392Q57 446 134 509L205 567Q252 604 252 642Q252 666 237 682T196 698Q151 698 126 640Q109 642 90 651T63 671Q77 714 114 743T207
772T302 736T340 651T320 572T258 508L202 464Q155 427 146 410Q191 416 228 416H351Z" />
<glyph unicode="&#xb3;" glyph-name="threesuperior" horiz-adv-x="420" d="M316 685L256 626Q245 615 226 603H228Q280 603 314 568T349 472T302 374T181 337T53 379Q59 415 86 438Q135 405 176 405T239 423T262 475T244 529T199 549T150 539Q139 544 130 557T118
584L198 666Q218 686 236 697L233 700Q206 695 155 695H73Q68 712 68 732T74 765H316Q332 735 332 718T316 685Z" />
<glyph unicode="&#xb4;" glyph-name="acute" horiz-adv-x="398" d="M126 577L268 735Q290 728 310 710T338 670L169 537Q137 548 126 577Z" />
<glyph unicode="&#xb6;" glyph-name="paragraph" horiz-adv-x="661" d="M288 60V253H269Q168 253 106 309T44 472T106 633T272 688Q297 688 381 684L387 678V75Q387 11 378 -30T343 -102Q296 -155 200 -155Q128 -155 72 -131Q72 -89 96 -56Q148 -78 196 -78T266
-49T288 60ZM453 -133V677L459 683H632Q637 668 637 640T632 597H591Q564 597 552 598V-133Q532 -137 502 -137T453 -133Z" />
<glyph unicode="&#xb7;" glyph-name="middot" horiz-adv-x="302" d="M87 252T87 283T96 332Q117 344 151 344T207 332Q215 313 215 283T207 234Q188 222 153 222T96 234Q87 252 87 283Z" />
<glyph unicode="&#xb8;" glyph-name="cedilla" horiz-adv-x="398" d="M146 -74Q157 -33 172 0H236Q219 -33 218 -37Q259 -40 285 -63T311 -127T278 -194T195 -222T115 -203Q116 -176 135 -152Q158 -166 183 -166T219 -155T231 -126T220 -97T192 -86T164 -91Q151
-86 146 -74Z" />
<glyph unicode="&#xb9;" glyph-name="onesuperior" horiz-adv-x="420" d="M143 415L190 414V582Q190 591 191 615T193 645Q162 604 99 576Q69 590 63 629Q155 681 194 765Q211 769 231 769T272 765V414L321 415H354Q358 400 358 380T354 343H88Q84 369 84 381T88
415H143Z" />
<glyph unicode="&#xba;" glyph-name="ordmasculine" horiz-adv-x="407" d="M316 655Q372 596 372 495T316 336Q273 295 204 295T91 336Q35 393 35 494T91 655Q134 696 203 696T316 655ZM120 496Q120 361 204 361Q247 361 267 398T287 495T267 592T204 630T140
593T120 496Z" />
<glyph unicode="&#xbb;" glyph-name="guillemotright" horiz-adv-x="551" d="M43 90L183 252L37 419Q43 435 59 450T92 470L290 285Q296 269 296 254T290 223L97 38Q80 43 64 58T43 90ZM265 90L405 252L259 419Q265 435 281 450T314 470L512 285Q518 269 518 254T512
223L319 38Q302 43 286 58T265 90Z" />
<glyph unicode="&#xbc;" glyph-name="onequarter" horiz-adv-x="932" d="M117 333L164 332V500Q164 509 165 533T167 563Q136 522 73 494Q43 508 37 547Q129 599 168 683Q185 687 205 687T246 683V332L295 333H328Q332 318 332 298T328 261H62Q58 287 58 299T62
333H117ZM266 0L642 683Q659 689 674 689Q722 689 738 683L361 0Q344 -6 329 -6Q282 -6 266 0ZM858 81L827 82V3Q813 -2 788 -2T747 3V82L708 81H587Q569 111 569 130T584 176L701 428Q708 429 718 429T747 425T780 410L701 239Q669 173 654 152L655 150Q679 152
723 152H747V212Q747 240 761 255T801 271H825L827 268V152H889Q892 139 892 119T885 81H858Z" />
<glyph unicode="&#xbd;" glyph-name="onehalf" horiz-adv-x="932" d="M252 0L628 683Q645 689 660 689Q708 689 724 683L347 0Q330 -6 315 -6Q268 -6 252 0ZM117 333L164 332V500Q164 509 165 533T167 563Q136 522 73 494Q43 508 37 547Q129 599 168 683Q185 687
205 687T246 683V332L295 333H328Q332 318 332 298T328 261H62Q58 287 58 299T62 333H117ZM883 75Q883 49 882 39Q876 0 836 0H617Q589 34 589 51Q589 105 666 168L737 226Q784 263 784 301Q784 325 769 341T728 357Q683 357 658 299Q641 301 622 310T595 330Q609
373 646 402T739 431T834 395T872 310T852 231T790 167L734 123Q687 86 678 69Q723 75 760 75H883Z" />
<glyph unicode="&#xbe;" glyph-name="threequarters" horiz-adv-x="932" d="M253 0L629 683Q646 689 661 689Q709 689 725 683L348 0Q331 -6 316 -6Q269 -6 253 0ZM315 605L255 546Q244 535 225 523H227Q279 523 313 488T348 392T301 294T180 257T52 299Q58 335
85 358Q134 325 175 325T238 343T261 395T243 449T198 469T149 459Q138 464 129 477T117 504L197 586Q217 606 235 617L232 620Q205 615 154 615H72Q67 632 67 652T73 685H315Q331 655 331 638T315 605ZM855 81L824 82V3Q810 -2 785 -2T744 3V82L705 81H584Q566
111 566 130T581 176L698 428Q705 429 715 429T744 425T777 410L698 239Q666 173 651 152L652 150Q676 152 720 152H744V212Q744 240 758 255T798 271H822L824 268V152H886Q889 139 889 119T882 81H855Z" />
<glyph unicode="&#xbf;" glyph-name="questiondown" horiz-adv-x="393" d="M383 -154Q290 -204 201 -204T61 -158T11 -35Q11 85 141 159L204 194L212 299Q226 304 249 304T287 299L292 150L284 139L236 115Q115 51 115 -25Q115 -67 142 -92T222 -118T347 -80Q360
-92 371 -113T383 -154ZM303 399Q282 386 249 386T194 399Q186 412 186 443T194 489Q216 501 248 501T303 489Q311 475 311 444T303 399Z" />
<glyph unicode="&#xc0;" glyph-name="Agrave" horiz-adv-x="608" d="M429 169L368 168H231L170 169L116 -1Q100 -5 75 -5T24 2L21 7L248 683Q268 687 306 687T361 683L587 6Q565 -7 535 -7T492 4T469 46L429 169ZM196 250L249 251H352Q354 251 374 251T403 250L354
405Q324 496 302 583H296Q280 511 258 444L196 250ZM216 898L416 779Q410 743 387 728L172 817Q175 841 188 864T216 898Z" />
<glyph unicode="&#xc1;" glyph-name="Aacute" horiz-adv-x="608" d="M429 169L368 168H231L170 169L116 -1Q100 -5 75 -5T24 2L21 7L248 683Q268 687 306 687T361 683L587 6Q565 -7 535 -7T492 4T469 46L429 169ZM196 250L249 251H352Q354 251 374 251T403 250L354
405Q324 496 302 583H296Q280 511 258 444L196 250ZM207 779L407 898Q422 887 435 864T451 817L236 728Q211 745 207 779Z" />
<glyph unicode="&#xc2;" glyph-name="Acircumflex" horiz-adv-x="608" d="M429 169L368 168H231L170 169L116 -1Q100 -5 75 -5T24 2L21 7L248 683Q268 687 306 687T361 683L587 6Q565 -7 535 -7T492 4T469 46L429 169ZM196 250L249 251H352Q354 251 374 251T403
250L354 405Q324 496 302 583H296Q280 511 258 444L196 250ZM416 737L304 812L190 730Q177 735 164 747T147 774L261 885Q282 890 304 890T348 885L459 780Q454 765 442 753T416 737Z" />
<glyph unicode="&#xc3;" glyph-name="Atilde" horiz-adv-x="608" d="M429 169L368 168H231L170 169L116 -1Q100 -5 75 -5T24 2L21 7L248 683Q268 687 306 687T361 683L587 6Q565 -7 535 -7T492 4T469 46L429 169ZM196 250L249 251H352Q354 251 374 251T403 250L354
405Q324 496 302 583H296Q280 511 258 444L196 250ZM317 756L260 783Q240 792 223 792T187 767L175 753Q160 753 146 761T127 782L135 802Q149 835 176 854T233 873T293 858L350 831Q366 822 385 822T423 847L435 861Q449 861 463 853T483 831L475 812Q459 778
433 760T379 741T317 756Z" />
<glyph unicode="&#xc4;" glyph-name="Adieresis" horiz-adv-x="608" d="M429 169L368 168H231L170 169L116 -1Q100 -5 75 -5T24 2L21 7L248 683Q268 687 306 687T361 683L587 6Q565 -7 535 -7T492 4T469 46L429 169ZM196 250L249 251H352Q354 251 374 251T403
250L354 405Q324 496 302 583H296Q280 511 258 444L196 250ZM382 839T409 839T456 828Q464 811 464 788T456 747Q439 736 409 736T362 747Q353 764 353 787T362 828Q382 839 409 839ZM174 839T201 839T248 828Q257 811 257 788T248 747Q231 736 201 736T154 747Q146
764 146 787T154 828Q174 839 201 839Z" />
<glyph unicode="&#xc5;" glyph-name="Aring" horiz-adv-x="608" d="M429 169L368 168H231L170 169L116 -1Q100 -5 75 -5T24 2L21 7L247 681Q186 712 186 780Q186 827 219 859T304 891T389 859T423 787Q423 711 361 681L587 6Q565 -7 535 -7T492 4T469 46L429 169ZM196
250L249 251H352Q354 251 374 251T403 250L354 405Q324 496 302 583H296Q280 511 258 444L196 250ZM283 835T269 819T254 780T268 741T305 725T341 740T355 779T341 819T305 835Z" />
<glyph unicode="&#xc6;" glyph-name="AE" horiz-adv-x="875" d="M402 169L345 168H256L201 169L118 -1Q99 -5 71 -5T20 2L16 7L349 673Q368 683 408 683H807Q810 668 810 644T803 598H561Q521 598 498 599L499 534V386L561 387H753Q758 369 758 345T753 303H561Q522
303 499 304V131Q499 123 499 107T498 82Q526 85 563 85H826Q826 59 824 46Q815 -1 760 -1H459Q433 -1 418 15T402 61V169ZM346 251L402 250V583H397Q370 516 336 444L241 250L282 251H346Z" />
<glyph unicode="&#xc7;" glyph-name="Ccedilla" horiz-adv-x="603" d="M263 -74Q273 -40 284 -11Q223 -6 177 25T104 106Q51 204 51 338Q51 515 128 605T317 696T495 638T562 502Q562 445 505 445Q487 445 464 451Q464 454 464 474T453 528T407 588T321 614Q240
614 198 544T156 344T201 144T329 74T505 151Q545 125 555 86Q471 2 346 -11Q337 -29 335 -37Q376 -40 401 -64T427 -128T394 -195T312 -222T231 -203Q232 -177 252 -152Q273 -166 299 -166T336 -155T348 -126T337 -98T309 -86T280 -91Q268 -86 263 -74Z" />
<glyph unicode="&#xc8;" glyph-name="Egrave" horiz-adv-x="565" d="M190 386L252 387H444Q449 364 449 345T444 303H252Q213 303 190 304V130Q190 122 190 107T189 82Q217 85 254 85H516Q516 59 514 46Q505 -1 450 -1H149Q123 -1 108 15T92 61V677L98 683H497Q500
668 500 644T493 598H252Q212 598 189 599L190 534V386ZM210 898L410 779Q404 743 381 728L166 817Q169 841 182 864T210 898Z" />
<glyph unicode="&#xc9;" glyph-name="Eacute" horiz-adv-x="565" d="M190 386L252 387H444Q449 364 449 345T444 303H252Q213 303 190 304V130Q190 122 190 107T189 82Q217 85 254 85H516Q516 59 514 46Q505 -1 450 -1H149Q123 -1 108 15T92 61V677L98 683H497Q500
668 500 644T493 598H252Q212 598 189 599L190 534V386ZM201 779L401 898Q416 887 429 864T445 817L230 728Q205 745 201 779Z" />
<glyph unicode="&#xca;" glyph-name="Ecircumflex" horiz-adv-x="565" d="M190 386L252 387H444Q449 364 449 345T444 303H252Q213 303 190 304V130Q190 122 190 107T189 82Q217 85 254 85H516Q516 59 514 46Q505 -1 450 -1H149Q123 -1 108 15T92 61V677L98 683H497Q500
668 500 644T493 598H252Q212 598 189 599L190 534V386ZM410 737L298 812L184 730Q171 735 158 747T141 774L255 885Q276 890 298 890T342 885L453 780Q448 765 436 753T410 737Z" />
<glyph unicode="&#xcb;" glyph-name="Edieresis" horiz-adv-x="565" d="M190 386L252 387H444Q449 364 449 345T444 303H252Q213 303 190 304V130Q190 122 190 107T189 82Q217 85 254 85H516Q516 59 514 46Q505 -1 450 -1H149Q123 -1 108 15T92 61V677L98 683H497Q500
668 500 644T493 598H252Q212 598 189 599L190 534V386ZM376 839T403 839T450 828Q458 811 458 788T450 747Q433 736 403 736T356 747Q347 764 347 787T356 828Q376 839 403 839ZM168 839T195 839T242 828Q251 811 251 788T242 747Q225 736 195 736T148 747Q140
764 140 787T148 828Q168 839 195 839Z" />
<glyph unicode="&#xcc;" glyph-name="Igrave" horiz-adv-x="292" d="M96 0V683Q115 687 145 687T196 683V0Q176 -4 146 -4T96 0ZM57 898L257 779Q251 743 228 728L13 817Q16 841 29 864T57 898Z" />
<glyph unicode="&#xcd;" glyph-name="Iacute" horiz-adv-x="292" d="M96 0V683Q115 687 145 687T196 683V0Q176 -4 146 -4T96 0ZM48 779L248 898Q263 887 276 864T292 817L77 728Q52 745 48 779Z" />
<glyph unicode="&#xce;" glyph-name="Icircumflex" horiz-adv-x="292" d="M96 0V683Q115 687 145 687T196 683V0Q176 -4 146 -4T96 0ZM257 737L145 812L31 730Q18 735 5 747T-12 774L102 885Q124 890 146 890T189 885L300 780Q295 765 283 753T257 737Z" />
<glyph unicode="&#xcf;" glyph-name="Idieresis" horiz-adv-x="292" d="M96 0V683Q115 687 145 687T196 683V0Q176 -4 146 -4T96 0ZM223 839T250 839T297 828Q305 811 305 788T297 747Q280 736 250 736T203 747Q194 764 194 787T203 828Q223 839 250 839ZM15 839T42
839T89 828Q98 811 98 788T89 747Q72 736 42 736T-5 747Q-13 764 -13 787T-5 828Q15 839 42 839Z" />
<glyph unicode="&#xd0;" glyph-name="Eth" horiz-adv-x="662" d="M565 585T587 513T609 341T588 169T504 46Q474 21 425 8T332 -5T114 -1L108 6V305H30Q26 321 26 345T30 388H108V677L114 684Q201 687 331 687Q375 687 424 674T504 636Q565 585 587 513ZM330 606L207
607V388H364Q369 365 369 345T364 305H207V77L330 76Q439 76 475 165Q505 239 505 342Q505 445 475 518Q439 606 330 606Z" />
<glyph unicode="&#xd1;" glyph-name="Ntilde" horiz-adv-x="678" d="M181 565H177Q185 429 185 326V0Q162 -4 139 -4T92 0V682Q120 687 153 687T212 683L430 256Q445 227 468 177T498 113V112L501 113Q493 239 493 360V624Q493 658 504 672T547 687H579L586 682V1Q558
-4 524 -4T465 0L246 427Q216 486 181 565ZM354 756L297 783Q277 792 260 792T224 767L212 753Q197 753 183 761T164 782L172 802Q186 835 213 854T270 873T330 858L387 831Q403 822 422 822T460 847L472 861Q486 861 500 853T520 831L512 812Q496 778 470 760T416
741T354 756Z" />
<glyph unicode="&#xd2;" glyph-name="Ograve" horiz-adv-x="657" d="M156 394T156 342T163 246T188 160T241 93T323 68T400 85T450 128T480 192Q500 256 500 325T493 437T469 523T415 590T328 615T242 591T189 524T164 438ZM157 47Q51 139 51 341T157 636Q225
696 328 696T499 636Q606 544 606 342T499 47Q431 -13 328 -13T157 47ZM239 898L439 779Q433 743 410 728L195 817Q198 841 211 864T239 898Z" />
<glyph unicode="&#xd3;" glyph-name="Oacute" horiz-adv-x="657" d="M156 394T156 342T163 246T188 160T241 93T323 68T400 85T450 128T480 192Q500 256 500 325T493 437T469 523T415 590T328 615T242 591T189 524T164 438ZM157 47Q51 139 51 341T157 636Q225
696 328 696T499 636Q606 544 606 342T499 47Q431 -13 328 -13T157 47ZM230 779L430 898Q445 887 458 864T474 817L259 728Q234 745 230 779Z" />
<glyph unicode="&#xd4;" glyph-name="Ocircumflex" horiz-adv-x="657" d="M156 394T156 342T163 246T188 160T241 93T323 68T400 85T450 128T480 192Q500 256 500 325T493 437T469 523T415 590T328 615T242 591T189 524T164 438ZM157 47Q51 139 51 341T157 636Q225
696 328 696T499 636Q606 544 606 342T499 47Q431 -13 328 -13T157 47ZM439 737L327 812L213 730Q200 735 187 747T170 774L284 885Q306 890 327 890T371 885L482 780Q477 765 465 753T439 737Z" />
<glyph unicode="&#xd5;" glyph-name="Otilde" horiz-adv-x="657" d="M156 394T156 342T163 246T188 160T241 93T323 68T400 85T450 128T480 192Q500 256 500 325T493 437T469 523T415 590T328 615T242 591T189 524T164 438ZM157 47Q51 139 51 341T157 636Q225
696 328 696T499 636Q606 544 606 342T499 47Q431 -13 328 -13T157 47ZM339 762L283 790Q259 798 251 798Q230 798 211 774L200 759Q185 759 171 767T152 789L161 808Q192 879 258 879Q283 879 315 863L371 837Q387 828 405 828T443 853L454 867Q490 865 502 837L493
818Q478 784 452 766T399 747T339 762Z" />
<glyph unicode="&#xd6;" glyph-name="Odieresis" horiz-adv-x="657" d="M156 394T156 342T163 246T188 160T241 93T323 68T400 85T450 128T480 192Q500 256 500 325T493 437T469 523T415 590T328 615T242 591T189 524T164 438ZM157 47Q51 139 51 341T157 636Q225
696 328 696T499 636Q606 544 606 342T499 47Q431 -13 328 -13T157 47ZM405 839T432 839T479 828Q487 811 487 788T479 747Q462 736 432 736T385 747Q376 764 376 787T385 828Q405 839 432 839ZM197 839T224 839T271 828Q280 811 280 788T271 747Q254 736 224 736T177
747Q169 764 169 787T177 828Q197 839 224 839Z" />
<glyph unicode="&#xd7;" glyph-name="multiply" horiz-adv-x="530" d="M236 204L135 101Q118 109 101 125T73 163L176 264Q189 278 205 293Q189 307 176 322L73 423Q99 471 135 484L236 382Q246 373 265 352L293 382L395 484Q413 477 430 460Q447 445 456 423L325
293L456 163Q447 142 431 126T395 102L265 233Q250 217 236 204Z" />
<glyph unicode="&#xd8;" glyph-name="Oslash" horiz-adv-x="658" d="M51 342Q51 431 77 509T158 636Q226 696 329 696Q403 696 457 666L496 734Q538 728 562 698L518 618Q607 522 607 342Q607 140 500 47Q432 -13 329 -13Q255 -13 200 16L162 -50Q120 -44 96 -14L140
64Q51 160 51 342ZM189 155L416 591Q379 617 329 617T242 592T187 524Q153 444 153 334T189 155ZM469 527L241 92Q278 66 329 66T416 91T470 159Q504 237 504 346T469 527Z" />
<glyph unicode="&#xd9;" glyph-name="Ugrave" horiz-adv-x="668" d="M584 683V238Q584 117 517 52T334 -13T152 52T84 238V681L90 687H128Q159 687 171 672T184 623V239Q184 155 222 112T334 68T446 111T485 239V683Q504 687 534 687T584 683ZM244 898L444 779Q438
743 415 728L200 817Q203 841 216 864T244 898Z" />
<glyph unicode="&#xda;" glyph-name="Uacute" horiz-adv-x="668" d="M584 683V238Q584 117 517 52T334 -13T152 52T84 238V681L90 687H128Q159 687 171 672T184 623V239Q184 155 222 112T334 68T446 111T485 239V683Q504 687 534 687T584 683ZM235 779L435 898Q450
887 463 864T479 817L264 728Q239 745 235 779Z" />
<glyph unicode="&#xdb;" glyph-name="Ucircumflex" horiz-adv-x="668" d="M584 683V238Q584 117 517 52T334 -13T152 52T84 238V681L90 687H128Q159 687 171 672T184 623V239Q184 155 222 112T334 68T446 111T485 239V683Q504 687 534 687T584 683ZM444 737L332
812L218 730Q205 735 192 747T175 774L289 885Q311 890 332 890T376 885L487 780Q482 765 470 753T444 737Z" />
<glyph unicode="&#xdc;" glyph-name="Udieresis" horiz-adv-x="668" d="M584 683V238Q584 117 517 52T334 -13T152 52T84 238V681L90 687H128Q159 687 171 672T184 623V239Q184 155 222 112T334 68T446 111T485 239V683Q504 687 534 687T584 683ZM410 839T437
839T484 828Q492 811 492 788T484 747Q467 736 437 736T390 747Q381 764 381 787T390 828Q410 839 437 839ZM202 839T229 839T276 828Q285 811 285 788T276 747Q259 736 229 736T182 747Q174 764 174 787T182 828Q202 839 229 839Z" />
<glyph unicode="&#xdd;" glyph-name="Yacute" horiz-adv-x="495" d="M299 447L392 683Q410 688 434 688T483 681L488 674L298 220V0Q278 -4 248 -4T198 0V222L8 672Q40 690 65 690T103 680T125 646L208 445Q224 405 250 322H255Q271 377 299 447ZM153 779L353
898Q368 887 381 864T397 817L182 728Q157 745 153 779Z" />
<glyph unicode="&#xde;" glyph-name="Thorn" horiz-adv-x="568" d="M92 0V683Q112 687 142 687T192 683V580Q262 582 299 582Q402 582 464 527T527 365T465 202T299 146H192V0Q172 -4 142 -4T92 0ZM297 501L192 502V226Q231 227 298 227T394 267T423 364T395 461T297
501Z" />
<glyph unicode="&#xdf;" glyph-name="germandbls" horiz-adv-x="623" d="M106 0V395L20 393Q16 409 16 432T20 473L106 471V507Q106 598 165 648T322 699T479 645T538 501Q538 464 523 423H521L523 422Q481 412 460 391T439 345T478 288L515 255Q589 189 589 127T539
26T415 -13T282 16Q283 33 292 54T315 86Q358 63 398 63T462 80T486 127T444 195L404 230Q337 288 337 340Q337 377 364 409T436 459Q440 483 440 496Q440 551 410 587T321 624T233 591T204 497V0Q185 -4 155 -4T106 0Z" />
<glyph unicode="&#xe0;" glyph-name="agrave" horiz-adv-x="506" d="M458 43Q448 8 420 -7Q365 4 344 57Q272 -13 197 -13T84 31T45 134Q45 216 97 257T236 299Q287 299 335 292V333Q335 424 251 424Q186 424 92 385Q65 412 63 457Q168 503 268 503Q345 503 387
461T430 336V131Q430 67 458 43ZM212 65Q279 65 335 130V226Q296 231 245 231T168 207T142 145T160 86T212 65ZM183 735L325 577Q314 548 282 537L113 670Q121 691 141 709T183 735Z" />
<glyph unicode="&#xe1;" glyph-name="aacute" horiz-adv-x="506" d="M458 43Q448 8 420 -7Q365 4 344 57Q272 -13 197 -13T84 31T45 134Q45 216 97 257T236 299Q287 299 335 292V333Q335 424 251 424Q186 424 92 385Q65 412 63 457Q168 503 268 503Q345 503 387
461T430 336V131Q430 67 458 43ZM212 65Q279 65 335 130V226Q296 231 245 231T168 207T142 145T160 86T212 65ZM171 577L313 735Q335 728 355 710T383 670L214 537Q182 548 171 577Z" />
<glyph unicode="&#xe2;" glyph-name="acircumflex" horiz-adv-x="506" d="M458 43Q448 8 420 -7Q365 4 344 57Q272 -13 197 -13T84 31T45 134Q45 216 97 257T236 299Q287 299 335 292V333Q335 424 251 424Q186 424 92 385Q65 412 63 457Q168 503 268 503Q345 503
387 461T430 336V131Q430 67 458 43ZM212 65Q279 65 335 130V226Q296 231 245 231T168 207T142 145T160 86T212 65ZM339 546L245 637L145 540Q116 552 100 581L206 715Q222 720 242 720T289 715L387 589Q372 556 339 546Z" />
<glyph unicode="&#xe3;" glyph-name="atilde" horiz-adv-x="506" d="M458 43Q448 8 420 -7Q365 4 344 57Q272 -13 197 -13T84 31T45 134Q45 216 97 257T236 299Q287 299 335 292V333Q335 424 251 424Q186 424 92 385Q65 412 63 457Q168 503 268 503Q345 503 387
461T430 336V131Q430 67 458 43ZM212 65Q279 65 335 130V226Q296 231 245 231T168 207T142 145T160 86T212 65ZM256 571L200 599Q180 608 164 608T128 583L117 568Q102 568 88 576T69 598L78 618Q92 651 118 670T172 690T232 674L288 647Q304 638 322 638T360 663L371
678Q386 677 400 669T419 647L410 628Q395 594 369 575T316 556T256 571Z" />
<glyph unicode="&#xe4;" glyph-name="adieresis" horiz-adv-x="506" d="M458 43Q448 8 420 -7Q365 4 344 57Q272 -13 197 -13T84 31T45 134Q45 216 97 257T236 299Q287 299 335 292V333Q335 424 251 424Q186 424 92 385Q65 412 63 457Q168 503 268 503Q345 503
387 461T430 336V131Q430 67 458 43ZM212 65Q279 65 335 130V226Q296 231 245 231T168 207T142 145T160 86T212 65ZM282 591T282 611T290 649Q307 660 336 660T383 649Q390 630 390 610T383 573Q364 561 336 561T290 573Q282 591 282 611ZM98 592T98 611T105 649Q122
660 151 660T198 649Q206 631 206 610T198 573Q181 561 153 561T105 573Q98 592 98 611Z" />
<glyph unicode="&#xe5;" glyph-name="aring" horiz-adv-x="506" d="M458 43Q448 8 420 -7Q365 4 344 57Q272 -13 197 -13T84 31T45 134Q45 216 97 257T236 299Q287 299 335 292V333Q335 424 251 424Q186 424 92 385Q65 412 63 457Q168 503 268 503Q345 503 387
461T430 336V131Q430 67 458 43ZM212 65Q279 65 335 130V226Q296 231 245 231T168 207T142 145T160 86T212 65ZM126 603T126 650T159 729T244 761T329 729T362 650T329 571T244 538T159 570ZM222 705T208 689T194 650T208 611T244 595T280 610T294 649T280 689T244
705Z" />
<glyph unicode="&#xe6;" glyph-name="ae" horiz-adv-x="785" d="M728 216H432Q435 145 462 106T552 67T690 107Q715 82 721 43Q641 -13 532 -13T372 73Q296 -13 192 -13Q122 -13 84 31T45 135Q45 216 97 257T236 299Q282 299 335 291V333Q335 424 251 424Q186
424 92 385Q65 412 63 457Q168 503 262 503T397 440Q453 506 542 506T683 446T735 292Q735 254 728 216ZM142 108T160 87T212 65T282 84T346 139Q337 177 334 224Q281 231 238 231T168 208T142 146ZM538 434Q440 434 432 287H640V299Q640 359 615 396T538 434Z"
/>
<glyph unicode="&#xe7;" glyph-name="ccedilla" horiz-adv-x="471" d="M196 -74Q202 -48 217 -11Q131 0 89 71T46 243Q46 373 106 439T252 506T385 460T433 358T383 302Q360 302 343 306Q343 311 343 316Q343 431 251 431Q201 431 174 383T146 243Q146 67 262
67Q315 67 385 119Q399 111 411 94T427 61Q365 -1 279 -11Q270 -29 268 -37Q309 -40 334 -64T360 -128T327 -195T245 -222T164 -203Q165 -176 184 -152Q207 -166 232 -166T269 -155T280 -126T269 -98T242 -86T213 -91Q199 -86 196 -74Z" />
<glyph unicode="&#xe8;" glyph-name="egrave" horiz-adv-x="501" d="M443 216H146Q149 145 176 106T266 67T405 106Q430 82 436 43Q356 -13 249 -13T94 59T46 246T99 434T249 506T398 446T450 292Q450 254 443 216ZM356 359T331 396T254 434T176 396T146 287H356V300Q356
359 331 396ZM194 735L336 577Q325 548 293 537L124 670Q132 691 152 709T194 735Z" />
<glyph unicode="&#xe9;" glyph-name="eacute" horiz-adv-x="501" d="M443 216H146Q149 145 176 106T266 67T405 106Q430 82 436 43Q356 -13 249 -13T94 59T46 246T99 434T249 506T398 446T450 292Q450 254 443 216ZM356 359T331 396T254 434T176 396T146 287H356V300Q356
359 331 396ZM183 577L325 735Q347 728 367 710T395 670L226 537Q194 548 183 577Z" />
<glyph unicode="&#xea;" glyph-name="ecircumflex" horiz-adv-x="501" d="M443 216H146Q149 145 176 106T266 67T405 106Q430 82 436 43Q356 -13 249 -13T94 59T46 246T99 434T249 506T398 446T450 292Q450 254 443 216ZM356 359T331 396T254 434T176 396T146
287H356V300Q356 359 331 396ZM350 546L256 637L156 540Q127 552 111 581L217 715Q233 720 253 720T300 715L398 589Q383 556 350 546Z" />
<glyph unicode="&#xeb;" glyph-name="edieresis" horiz-adv-x="501" d="M443 216H146Q149 145 176 106T266 67T405 106Q430 82 436 43Q356 -13 249 -13T94 59T46 246T99 434T249 506T398 446T450 292Q450 254 443 216ZM356 359T331 396T254 434T176 396T146 287H356V300Q356
359 331 396ZM293 591T293 611T301 649Q318 660 347 660T394 649Q401 630 401 610T394 573Q375 561 347 561T301 573Q293 591 293 611ZM109 592T109 611T116 649Q133 660 162 660T209 649Q217 631 217 610T209 573Q192 561 164 561T116 573Q109 592 109 611Z" />
<glyph unicode="&#xec;" glyph-name="igrave" horiz-adv-x="265" d="M187 411V0Q170 -4 139 -4T91 0V371Q91 398 82 410T48 422H37Q33 437 33 456T37 492Q69 496 97 496H110Q146 496 166 474T187 411ZM59 735L201 577Q190 548 158 537L-11 670Q-3 691 17 709T59 735Z" />
<glyph unicode="&#xed;" glyph-name="iacute" horiz-adv-x="265" d="M187 411V0Q170 -4 139 -4T91 0V371Q91 398 82 410T48 422H37Q33 437 33 456T37 492Q69 496 97 496H110Q146 496 166 474T187 411ZM47 577L189 735Q211 728 231 710T259 670L90 537Q58 548 47 577Z" />
<glyph unicode="&#xee;" glyph-name="icircumflex" horiz-adv-x="265" d="M187 411V0Q170 -4 139 -4T91 0V371Q91 398 82 410T48 422H37Q33 437 33 456T37 492Q69 496 97 496H110Q146 496 166 474T187 411ZM215 546L121 637L21 540Q-8 552 -24 581L82 715Q98 720
119 720T165 715L263 589Q248 556 215 546Z" />
<glyph unicode="&#xef;" glyph-name="idieresis" horiz-adv-x="265" d="M187 411V0Q170 -4 139 -4T91 0V371Q91 398 82 410T48 422H37Q33 437 33 456T37 492Q69 496 97 496H110Q146 496 166 474T187 411ZM158 591T158 611T166 649Q183 660 212 660T259 649Q266
630 266 610T259 573Q240 561 212 561T166 573Q158 591 158 611ZM-26 592T-26 611T-19 649Q-2 660 27 660T74 649Q82 631 82 610T74 573Q57 561 29 561T-19 573Q-26 592 -26 611Z" />
<glyph unicode="&#xf0;" glyph-name="eth" horiz-adv-x="517" d="M115 572L203 632Q162 664 120 685Q128 730 159 747Q219 721 273 680L360 741Q371 733 382 718T396 689L322 638Q472 486 472 244Q472 113 402 42Q347 -13 258 -13T114 42Q44 113 44 238T115 434Q170
487 254 487Q290 487 331 468Q309 529 251 589L151 520Q139 528 128 543T115 572ZM354 116T363 154T373 257T356 383Q312 414 259 414Q144 414 144 240Q144 162 170 112T258 61Q300 61 327 88Z" />
<glyph unicode="&#xf1;" glyph-name="ntilde" horiz-adv-x="546" d="M470 340V103Q470 43 485 14Q460 -7 425 -7Q373 -7 373 55V315Q373 369 360 391T312 414T241 396T177 349V0Q160 -4 130 -4T80 0V491L87 497H123Q174 497 177 434Q252 502 338 502Q405 502 437
457T470 340ZM290 571L234 599Q214 608 198 608T162 583L151 568Q136 568 122 576T103 598L112 618Q126 651 152 670T206 690T266 674L322 647Q338 638 356 638T394 663L405 678Q420 677 434 669T453 647L444 628Q429 594 403 575T350 556T290 571Z" />
<glyph unicode="&#xf2;" glyph-name="ograve" horiz-adv-x="520" d="M404 451Q474 380 474 247T404 42Q349 -13 260 -13T116 42Q46 113 46 246T116 451Q171 506 260 506T404 451ZM146 246Q146 62 260 62T374 246Q374 298 365 337T329 404T260 432T192 404T156
337T146 246ZM198 735L340 577Q329 548 297 537L128 670Q136 691 156 709T198 735Z" />
<glyph unicode="&#xf3;" glyph-name="oacute" horiz-adv-x="520" d="M404 451Q474 380 474 247T404 42Q349 -13 260 -13T116 42Q46 113 46 246T116 451Q171 506 260 506T404 451ZM146 246Q146 62 260 62T374 246Q374 298 365 337T329 404T260 432T192 404T156
337T146 246ZM187 577L329 735Q351 728 371 710T399 670L230 537Q198 548 187 577Z" />
<glyph unicode="&#xf4;" glyph-name="ocircumflex" horiz-adv-x="520" d="M404 451Q474 380 474 247T404 42Q349 -13 260 -13T116 42Q46 113 46 246T116 451Q171 506 260 506T404 451ZM146 246Q146 62 260 62T374 246Q374 298 365 337T329 404T260 432T192 404T156
337T146 246ZM355 546L261 637L161 540Q132 552 116 581L222 715Q238 720 258 720T305 715L403 589Q388 556 355 546Z" />
<glyph unicode="&#xf5;" glyph-name="otilde" horiz-adv-x="520" d="M404 451Q474 380 474 247T404 42Q349 -13 260 -13T116 42Q46 113 46 246T116 451Q171 506 260 506T404 451ZM146 246Q146 62 260 62T374 246Q374 298 365 337T329 404T260 432T192 404T156
337T146 246ZM272 571L216 599Q196 608 180 608T144 583L133 568Q118 568 104 576T85 598L94 618Q108 651 134 670T188 690T248 674L304 647Q320 638 338 638T376 663L387 678Q402 677 416 669T435 647L426 628Q411 594 385 575T332 556T272 571Z" />
<glyph unicode="&#xf6;" glyph-name="odieresis" horiz-adv-x="520" d="M404 451Q474 380 474 247T404 42Q349 -13 260 -13T116 42Q46 113 46 246T116 451Q171 506 260 506T404 451ZM146 246Q146 62 260 62T374 246Q374 298 365 337T329 404T260 432T192 404T156
337T146 246ZM298 591T298 611T306 649Q323 660 352 660T399 649Q406 630 406 610T399 573Q380 561 352 561T306 573Q298 591 298 611ZM114 592T114 611T121 649Q138 660 167 660T214 649Q222 631 222 610T214 573Q197 561 169 561T121 573Q114 592 114 611Z" />
<glyph unicode="&#xf7;" glyph-name="divide" horiz-adv-x="530" d="M214 429Q206 449 206 470T214 512Q233 523 266 523T315 512Q324 494 324 471T315 429Q301 418 266 418T214 429ZM206 93T206 114T214 155Q235 167 266 167T315 155Q324 137 324 114T315 73Q300
61 267 61T214 73Q206 93 206 114ZM473 251H57Q53 268 53 292T57 336H473Q477 317 477 293T473 251Z" />
<glyph unicode="&#xf8;" glyph-name="oslash" horiz-adv-x="521" d="M405 449Q475 379 475 246T404 42Q349 -13 260 -13Q206 -13 167 6L132 -55Q117 -53 100 -44T75 -23L114 45Q46 114 46 247T117 451Q172 506 260 506Q310 506 351 488L386 549Q422 544 444 517L405
449ZM360 368L205 73Q228 59 261 59T319 75T357 118Q382 171 382 246T360 368ZM196 435T168 382T139 250T159 127L314 421Q291 435 261 435Q196 435 168 382Z" />
<glyph unicode="&#xf9;" glyph-name="ugrave" horiz-adv-x="547" d="M76 153V390Q76 448 60 479Q83 499 116 499T160 484T172 437V178Q172 124 186 101T234 78T305 96T369 144V493Q395 497 417 497T465 493V139Q465 67 493 42Q484 9 456 -7Q395 6 377 66Q302 -9
207 -9Q141 -9 109 36T76 153ZM207 735L349 577Q338 548 306 537L137 670Q145 691 165 709T207 735Z" />
<glyph unicode="&#xfa;" glyph-name="uacute" horiz-adv-x="547" d="M76 153V390Q76 448 60 479Q83 499 116 499T160 484T172 437V178Q172 124 186 101T234 78T305 96T369 144V493Q395 497 417 497T465 493V139Q465 67 493 42Q484 9 456 -7Q395 6 377 66Q302 -9
207 -9Q141 -9 109 36T76 153ZM195 577L337 735Q359 728 379 710T407 670L238 537Q206 548 195 577Z" />
<glyph unicode="&#xfb;" glyph-name="ucircumflex" horiz-adv-x="547" d="M76 153V390Q76 448 60 479Q83 499 116 499T160 484T172 437V178Q172 124 186 101T234 78T305 96T369 144V493Q395 497 417 497T465 493V139Q465 67 493 42Q484 9 456 -7Q395 6 377 66Q302
-9 207 -9Q141 -9 109 36T76 153ZM363 546L269 637L169 540Q140 552 124 581L230 715Q246 720 266 720T313 715L411 589Q396 556 363 546Z" />
<glyph unicode="&#xfc;" glyph-name="udieresis" horiz-adv-x="547" d="M76 153V390Q76 448 60 479Q83 499 116 499T160 484T172 437V178Q172 124 186 101T234 78T305 96T369 144V493Q395 497 417 497T465 493V139Q465 67 493 42Q484 9 456 -7Q395 6 377 66Q302
-9 207 -9Q141 -9 109 36T76 153ZM306 591T306 611T314 649Q331 660 360 660T407 649Q414 630 414 610T407 573Q388 561 360 561T314 573Q306 591 306 611ZM122 592T122 611T129 649Q146 660 175 660T222 649Q230 631 230 610T222 573Q205 561 177 561T129 573Q122
592 122 611Z" />
<glyph unicode="&#xfd;" glyph-name="yacute" horiz-adv-x="464" d="M452 485L318 16Q282 -109 236 -163T98 -218Q49 -218 6 -203Q6 -199 6 -194Q6 -160 27 -133Q59 -145 103 -145T175 -113T222 -16L225 -5Q194 -3 177 8T151 48L18 486Q49 500 76 500Q113 500
126 457L196 222Q202 203 235 73Q237 66 244 66L357 493Q373 497 400 497T448 490L452 485ZM159 577L301 735Q323 728 343 710T371 670L202 537Q170 548 159 577Z" />
<glyph unicode="&#xfe;" glyph-name="thorn" horiz-adv-x="527" d="M392 501T437 434T482 246T425 59T293 -9Q234 -9 174 26V-153Q174 -186 163 -200T122 -215H87L80 -209V729L87 735H122Q152 735 163 721T174 673V443Q230 501 311 501ZM289 420Q220 420 174 353V108Q232
70 278 70T353 116T383 249T357 378T289 420Z" />
<glyph unicode="&#xff;" glyph-name="ydieresis" horiz-adv-x="464" d="M452 485L318 16Q282 -109 236 -163T98 -218Q49 -218 6 -203Q6 -199 6 -194Q6 -160 27 -133Q59 -145 103 -145T175 -113T222 -16L225 -5Q194 -3 177 8T151 48L18 486Q49 500 76 500Q113 500
126 457L196 222Q202 203 235 73Q237 66 244 66L357 493Q373 497 400 497T448 490L452 485ZM269 591T269 611T277 649Q294 660 323 660T370 649Q377 630 377 610T370 573Q351 561 323 561T277 573Q269 591 269 611ZM85 592T85 611T92 649Q109 660 138 660T185 649Q193
631 193 610T185 573Q168 561 140 561T92 573Q85 592 85 611Z" />
<glyph unicode="&#x2013;" glyph-name="endash" horiz-adv-x="528" d="M463 225H66Q61 240 61 264T66 305H463Q467 286 467 264T463 225Z" />
<glyph unicode="&#x2014;" glyph-name="emdash" horiz-adv-x="797" d="M717 225H80Q76 241 76 263T80 305H717Q721 286 721 264T717 225Z" />
<glyph unicode="&#x2018;" glyph-name="quoteleft" horiz-adv-x="223" d="M54 520Q43 545 43 584Q43 645 75 691T171 760Q184 754 190 742T197 722T197 712Q169 699 150 677T129 627Q158 625 171 616Q180 600 180 567T171 520Q147 507 110 507T54 520Z" />
<glyph unicode="&#x2019;" glyph-name="quoteright" horiz-adv-x="223" d="M169 746Q180 721 180 682Q180 621 148 575T52 506Q39 512 33 524T26 544T26 554Q54 567 73 589T94 639Q65 641 52 650Q43 666 43 699T52 746Q76 759 113 759T169 746Z" />
<glyph unicode="&#x201a;" glyph-name="quotesinglbase" horiz-adv-x="224" d="M174 99Q185 72 185 34Q185 -26 153 -72T57 -142Q44 -136 38 -124T31 -104T31 -94Q96 -62 99 -9Q66 -4 57 2Q48 18 48 52T57 99Q79 111 117 111T174 99Z" />
<glyph unicode="&#x201c;" glyph-name="quotedblleft" horiz-adv-x="412" d="M53 520Q42 545 42 584Q42 645 74 691T170 760Q183 754 190 740T196 712Q168 699 149 677T128 627Q157 625 170 616Q179 600 179 567T170 520Q146 507 109 507T53 520ZM242 520Q231
545 231 584Q231 645 263 691T359 760Q372 754 378 742T385 722T385 712Q357 699 338 677T317 627Q346 625 359 616Q368 600 368 567T359 520Q335 507 298 507T242 520Z" />
<glyph unicode="&#x201d;" glyph-name="quotedblright" horiz-adv-x="412" d="M170 746Q181 721 181 682Q181 621 149 575T53 506Q40 512 34 524T27 544T27 554Q55 567 74 589T95 639Q66 641 53 650Q44 666 44 699T53 746Q77 759 114 759T170 746ZM360 746Q371
721 371 682Q371 621 339 575T243 506Q230 512 224 524T217 544T217 554Q245 567 264 589T285 639Q256 641 243 650Q234 666 234 699T243 746Q267 759 304 759T360 746Z" />
<glyph unicode="&#x201e;" glyph-name="quotedblbase" horiz-adv-x="413" d="M174 99Q185 72 185 34Q185 -26 153 -72T57 -142Q44 -136 38 -124T31 -104T31 -94Q96 -62 99 -9Q66 -4 57 2Q48 18 48 52T57 99Q79 111 117 111T174 99ZM363 99Q374 72 374 34Q374 -26
342 -72T246 -142Q233 -136 227 -124T220 -104T220 -94Q285 -62 288 -9Q255 -4 246 2Q237 18 237 52T246 99Q268 111 306 111T363 99Z" />
<glyph unicode="&#x2022;" glyph-name="bullet" horiz-adv-x="445" d="M127 186Q112 217 112 271T127 357Q164 378 225 378T320 357Q335 326 335 272T320 186Q288 165 226 165T127 186Z" />
<glyph unicode="&#x2039;" glyph-name="guilsinglleft" horiz-adv-x="329" d="M287 419L146 257L292 90Q286 74 270 59T237 38L40 224Q35 236 35 255T40 286L232 470Q249 465 265 450T287 419Z" />
<glyph unicode="&#x203a;" glyph-name="guilsinglright" horiz-adv-x="329" d="M43 90L183 252L37 419Q43 435 59 450T92 470L290 285Q296 269 296 254T290 223L97 38Q80 43 64 58T43 90Z" />
</font>
</defs>
</svg>
