<?xml version="1.0" standalone="no"?>
<!DOCTYPE svg PUBLIC "-//W3C//DTD SVG 1.1//EN" "http://www.w3.org/Graphics/SVG/1.1/DTD/svg11.dtd">
<svg xmlns="http://www.w3.org/2000/svg">
<defs >
<font id="Saira" horiz-adv-x="576" ><font-face
    font-family="Saira SemiBold"
    units-per-em="1000"
    panose-1="0 0 7 0 0 0 0 0 0 0"
    ascent="1135"
    descent="-439"
    alphabetic="0" />
<glyph unicode=" " glyph-name="space" horiz-adv-x="246" />
<glyph unicode="!" glyph-name="exclam" horiz-adv-x="303" d="M103 275Q100 311 90 448T80 633V688H236V633Q236 573 213 283Q211 259 210 245T208 225H107L103 275ZM85 0V135H231V0H85Z" />
<glyph unicode="&quot;" glyph-name="quotedbl" horiz-adv-x="432" d="M80 432L65 627V688H187V627L172 432H80ZM260 432L245 627V688H367V627L352 432H260Z" />
<glyph unicode="#" glyph-name="numbersign" horiz-adv-x="746" d="M340 0L381 179H240L199 0H107L148 179H57V270H168L202 414H94V505H222L265 688H357L314 505H455L499 688H591L547 505H640V414H527L494 270H603V179H473L432 0H340ZM435 414H294L260 270H402L435 414Z" />
<glyph unicode="$" glyph-name="dollar" horiz-adv-x="537" d="M222 68Q139 71 74 83V189Q170 181 247 181Q295 181 316 185T343 200T349 232Q349 253 346 261T332 273T296 280L178 296Q106 306 82 345T57 458Q57 541 99 576T222 617V696H319V618Q351 617 388
612T450 602V496Q356 505 291 505Q247 505 227 502T197 489T187 457Q187 436 190 428T202 416T237 409L367 394Q408 388 431 374T467 328T479 236Q479 143 439 108T319 68V-8H222V68Z" />
<glyph unicode="%" glyph-name="percent" horiz-adv-x="859" d="M129 311T99 326T61 379T52 503Q52 589 60 626T99 680T199 696Q269 696 299 680T337 627T346 503Q346 417 338 380T299 327T199 311Q129 311 99 326ZM161 0L609 688H698L249 0H161ZM234 380T245
386T260 414T263 503Q263 569 260 591T245 620T199 626Q165 626 153 620T138 592T135 503Q135 436 138 414T152 386T199 380Q234 380 245 386ZM590 -8T560 7T522 60T513 184Q513 270 521 307T560 361T660 377Q730 377 760 361T799 308T808 184Q808 98 800 61T761
8T660 -8Q590 -8 560 7ZM695 61T706 67T721 95T724 184Q724 251 721 273T707 301T660 307Q626 307 615 301T600 273T597 184Q597 117 600 95T614 67T660 61Q695 61 706 67Z" />
<glyph unicode="&amp;" glyph-name="ampersand" horiz-adv-x="735" d="M706 403V292H598V14Q547 4 481 -2T361 -8Q234 -8 168 16T79 82T56 184Q56 263 85 298T180 349V353Q119 368 91 405T62 515Q62 599 126 647T361 696Q412 696 477 690T594 674V569Q547 575
489 579T388 583Q303 583 264 575T211 549T198 491Q198 459 205 441T235 413T307 403H379V292H307Q257 292 233 284T200 256T192 198Q192 158 208 138T259 111T362 104Q421 104 465 108V403H706Z" />
<glyph unicode="&apos;" glyph-name="quotesingle" horiz-adv-x="252" d="M80 432L65 627V688H187V627L172 432H80Z" />
<glyph unicode="(" glyph-name="parenleft" horiz-adv-x="339" d="M159 -72T129 -25T84 95T69 297Q69 426 83 499T129 622T228 743H319Q267 676 245 634T209 515T195 297Q195 156 208 79T244 -40T319 -150H228Q159 -72 129 -25Z" />
<glyph unicode=")" glyph-name="parenright" horiz-adv-x="339" d="M72 -82T94 -41T130 78T144 297Q144 437 131 514T95 634T20 743H111Q178 672 209 623T254 500T269 297Q269 167 255 95T210 -25T111 -150H20Q72 -82 94 -41Z" />
<glyph unicode="*" glyph-name="asterisk" horiz-adv-x="447" d="M251 453L261 319H186L196 453L82 376L44 445L168 502L44 562L82 630L196 553L186 688H261L250 554L366 630L402 562L279 502L402 445L366 376L251 453Z" />
<glyph unicode="+" glyph-name="plus" horiz-adv-x="539" d="M218 52V200H70V305H218V453H320V305H470V200H320V52H218Z" />
<glyph unicode="," glyph-name="comma" horiz-adv-x="274" d="M93 -82T106 -70T119 -17V0H64V135H210V37Q210 -40 199 -76T156 -126T52 -141V-82Q93 -82 106 -70Z" />
<glyph unicode="-" glyph-name="hyphen" horiz-adv-x="368" d="M53 226V343H316V226H53Z" />
<glyph unicode="." glyph-name="period" horiz-adv-x="274" d="M64 0V135H210V0H64Z" />
<glyph unicode="/" glyph-name="slash" horiz-adv-x="392" d="M-8 -55L282 743H398L108 -55H-8Z" />
<glyph unicode="0" glyph-name="zero" horiz-adv-x="664" d="M202 -8T147 20T77 116T62 344Q62 504 77 572T147 668T332 696Q462 696 517 668T587 572T602 344Q602 184 587 116T517 20T332 -8Q202 -8 147 20ZM400 112T423 123T453 178T460 344Q460 467 454 510T424
564T332 576Q264 576 241 565T211 510T204 344Q204 221 210 178T240 124T332 112Q400 112 423 123Z" />
<glyph unicode="1" glyph-name="one" horiz-adv-x="388" d="M158 0V530L24 473V596L202 688H300V0H158Z" />
<glyph unicode="2" glyph-name="two" horiz-adv-x="610" d="M196 122H550V0H58V92Q58 178 65 221T96 293T176 344L199 353Q243 372 333 408Q367 421 381 431T401 456T407 499Q407 534 395 550T355 571T266 576Q232 576 177 572T72 561V674Q118 684 185 690T310
696Q386 696 437 683T519 629T550 508Q550 447 537 409T498 347T429 307Q349 275 329 267L250 236Q232 229 223 224T208 210Q201 200 199 186T196 147V122Z" />
<glyph unicode="3" glyph-name="three" horiz-adv-x="605" d="M219 -8T158 -2T53 13V124Q175 112 256 112Q314 112 342 117T384 140T398 198Q398 235 389 254T357 280T292 288H172V408H292Q346 408 369 424T392 491Q392 531 380 548T338 571T246 576Q204 576 151
572T57 563V675Q99 684 159 690T270 696Q417 696 476 652T536 515Q536 442 507 404T418 353V349Q481 335 512 299T543 184Q543 122 521 81T438 16T269 -8Q219 -8 158 -2Z" />
<glyph unicode="4" glyph-name="four" horiz-adv-x="646" d="M377 0V143H38V250L289 688H445L191 264H378L417 447H519V264H610V143H519V0H377Z" />
<glyph unicode="5" glyph-name="five" horiz-adv-x="622" d="M196 112T275 112Q336 112 366 120T407 148T419 210Q419 254 407 274T364 301T269 307Q231 307 178 304T81 295V688H512V566H208V419Q271 426 342 426Q430 426 478 403T544 337T563 222Q563 137 541
88T459 16T290 -8Q240 -8 179 -3T73 12V124Q196 112 275 112Z" />
<glyph unicode="6" glyph-name="six" horiz-adv-x="663" d="M267 -8T221 -2T144 24T93 83Q76 118 69 180T62 340Q62 425 68 483T91 579Q117 645 176 670T350 696Q392 696 453 690T566 675V562Q445 576 378 576Q298 576 263 562T217 508T206 379H212Q257 427 379
427Q462 427 509 411T581 352T605 226Q605 134 584 85T508 14T343 -8Q267 -8 221 -2ZM393 111T419 117T455 143T466 207Q466 255 456 275T420 302T335 308Q278 308 251 300T216 274T208 223Q208 170 219 147T255 118T335 111Q393 111 419 117Z" />
<glyph unicode="7" glyph-name="seven" horiz-adv-x="568" d="M114 0L375 566H36V688H528V577L271 0H114Z" />
<glyph unicode="8" glyph-name="eight" horiz-adv-x="681" d="M228 -8T167 14T84 78T61 184Q61 240 75 272T115 322T186 349V353Q124 366 96 403T67 515Q67 576 92 615T176 675T340 696Q444 696 503 676T588 616T613 515Q613 442 584 404T494 353V349Q538 339
564 322T605 273T619 184Q619 120 596 79T512 15T340 -8Q228 -8 167 14ZM396 404T422 410T459 434T469 490Q469 529 459 547T423 571T340 578Q283 578 257 572T222 548T212 490Q212 452 222 434T258 410T340 404Q396 404 422 410ZM397 110T424 115T463 139T475
199Q475 241 464 260T426 285T340 291Q281 291 254 285T217 260T206 199Q206 158 217 140T255 116T340 110Q397 110 424 115Z" />
<glyph unicode="9" glyph-name="nine" horiz-adv-x="663" d="M270 -8T209 -2T96 13V126Q217 112 284 112Q364 112 399 126T445 180T457 309H451Q406 261 284 261Q201 261 153 277T82 336T58 462Q58 554 79 603T155 674T319 696Q402 696 450 688T529 657T576 586Q590
547 595 490T601 348Q601 253 593 191T563 90Q534 36 476 14T312 -8Q270 -8 209 -2ZM384 380T411 388T446 414T454 465Q454 518 443 541T407 570T327 577Q270 577 244 571T208 545T197 481Q197 433 207 413T242 386T327 380Q384 380 411 388Z" />
<glyph unicode=":" glyph-name="colon" horiz-adv-x="274" d="M64 375V510H210V375H64ZM64 0V135H210V0H64Z" />
<glyph unicode=";" glyph-name="semicolon" horiz-adv-x="274" d="M64 375V510H210V375H64ZM93 -82T106 -70T119 -17V0H64V135H210V37Q210 -40 199 -76T156 -126T52 -141V-82Q93 -82 106 -70Z" />
<glyph unicode="&lt;" glyph-name="less" horiz-adv-x="540" d="M471 44L71 198V307L471 461V354L185 253L471 151V44Z" />
<glyph unicode="=" glyph-name="equal" horiz-adv-x="539" d="M70 302V407H470V302H70ZM70 98V203H470V98H70Z" />
<glyph unicode="&gt;" glyph-name="greater" horiz-adv-x="540" d="M70 44V151L356 253L70 354V461L470 307V198L70 44Z" />
<glyph unicode="?" glyph-name="question" horiz-adv-x="510" d="M142 295Q142 349 157 373T209 410L248 422Q276 431 287 438T303 460T308 506Q308 540 298 554T265 572T193 576Q162 576 116 573T37 565V678Q80 686 137 691T241 696Q316 696 361 679T427 620T449
508Q449 438 429 402T366 351L323 337Q292 327 281 322T267 304T263 262V224H142V295ZM130 0V135H276V0H130Z" />
<glyph unicode="@" glyph-name="at" horiz-adv-x="935" d="M272 -108T195 -81T97 23T76 294Q76 490 96 565T194 668T467 696Q663 696 740 670T837 567T857 294Q857 188 845 142T807 86T724 75H553L548 128H541Q519 91 487 80T406 68Q336 68 305 98T273 200Q273
253 284 280T324 320T408 332Q459 332 545 328V346Q545 384 538 399T509 418T430 422Q392 422 299 416V505Q388 518 469 518Q556 518 597 500T651 446T664 341V132H734Q762 132 773 140T790 181T795 294Q795 430 789 490T758 583T674 628Q643 634 598 635T466 637Q409
637 360 636T281 631Q211 621 182 590T145 498T137 294Q137 137 147 74T196 -16T331 -48Q367 -50 467 -50Q515 -50 572 -49T663 -46V-105Q589 -108 467 -108Q272 -108 195 -81ZM495 156T513 163T538 188T545 239V263H441Q416 263 405 260T390 245T386 210Q386 186
391 176T411 161T459 156Q495 156 513 163Z" />
<glyph unicode="A" glyph-name="A" horiz-adv-x="687" d="M525 0L475 148H207L158 0H15L248 688H439L672 0H525ZM343 554H338L245 272H437L343 554Z" />
<glyph unicode="B" glyph-name="B" horiz-adv-x="678" d="M83 688H419Q519 688 566 645T613 515Q613 443 585 405T495 353V349Q563 335 591 297T620 183Q620 94 575 47T419 0H83V688ZM426 409T447 425T469 486Q469 519 461 535T432 558T368 565H225V409H368Q426
409 447 425ZM415 123T437 130T467 154T476 204Q476 237 467 254T437 279T373 286H225V123H373Q415 123 437 130Z" />
<glyph unicode="C" glyph-name="C" horiz-adv-x="573" d="M491 1T442 -3T350 -8Q223 -8 163 23T82 126T62 344Q62 488 82 560T162 664T350 696Q393 696 441 691T521 678V563Q434 573 386 573Q295 573 260 560T215 502T205 344Q205 230 215 186T260 129T386 115Q462
115 525 125V8Q491 1 442 -3Z" />
<glyph unicode="D" glyph-name="D" horiz-adv-x="686" d="M83 688H317Q465 688 528 659T608 563T624 344Q624 191 608 125T529 30T317 0H83V688ZM310 123Q401 123 432 133T471 184T480 344Q480 462 471 503T432 555T310 565H225V123H310Z" />
<glyph unicode="E" glyph-name="E" horiz-adv-x="612" d="M83 0V688H556V565H225V409H509V286H225V123H556V0H83Z" />
<glyph unicode="F" glyph-name="F" horiz-adv-x="573" d="M83 0V688H536V565H225V390H499V267H225V0H83Z" />
<glyph unicode="G" glyph-name="G" horiz-adv-x="670" d="M346 276V394H595V15Q542 5 478 -1T365 -8Q235 -8 173 19T86 120T62 344Q62 487 86 560T174 665T365 696Q411 696 455 691T563 677L592 673V558L555 562Q460 573 421 573Q315 573 275 562T220 506T205
344Q205 239 216 193T260 129T370 112Q426 112 459 115V276H346Z" />
<glyph unicode="H" glyph-name="H" horiz-adv-x="720" d="M496 0V282H224V0H82V688H224V410H496V688H639V0H496Z" />
<glyph unicode="I" glyph-name="I" horiz-adv-x="306" d="M82 0V688H224V0H82Z" />
<glyph unicode="J" glyph-name="J" horiz-adv-x="388" d="M101 115T128 123T161 157T168 261V688H311V301Q311 143 296 87T229 16T26 0V114Q101 115 128 123Z" />
<glyph unicode="K" glyph-name="K" horiz-adv-x="679" d="M503 0L294 289H225V0H83V688H225V412H294L507 688H664L408 360L667 0H503Z" />
<glyph unicode="L" glyph-name="L" horiz-adv-x="541" d="M83 0V688H225V129H516V0H83Z" />
<glyph unicode="M" glyph-name="M" horiz-adv-x="897" d="M678 0V470H673L495 0H397L220 470H215V0H82V688H278L446 247H452L620 688H815V0H678Z" />
<glyph unicode="N" glyph-name="N" horiz-adv-x="721" d="M504 0L223 437H219V0H82V688H229L498 276H503V688H640V0H504Z" />
<glyph unicode="O" glyph-name="O" horiz-adv-x="709" d="M213 -8T153 22T78 120T62 344Q62 500 77 568T153 666T354 696Q495 696 555 666T631 568T647 344Q647 188 632 120T556 22T354 -8Q213 -8 153 22ZM433 115T460 126T495 179T503 344Q503 466 496 508T461
562T354 573Q275 573 248 562T213 508T205 344Q205 223 213 180T248 126T354 115Q433 115 460 126Z" />
<glyph unicode="P" glyph-name="P" horiz-adv-x="650" d="M83 688H400Q486 688 532 661T594 585T610 459Q610 385 595 336T532 258T397 229H225V0H83V688ZM339 352Q399 352 425 360T459 389T467 459Q467 507 460 528T427 557T341 565H225V352H339Z" />
<glyph unicode="Q" glyph-name="Q" horiz-adv-x="709" d="M670 -110V-115H514L439 -5Q401 -8 354 -8Q213 -8 153 22T78 120T62 344Q62 500 77 568T153 666T354 696Q495 696 555 666T631 568T647 344Q647 243 643 187T622 92T569 30L670 -110ZM357 115L287 218H434L485
147Q497 167 500 208T503 344Q503 466 496 508T461 562T354 573Q275 573 248 562T213 508T205 344Q205 223 213 180T248 126T354 115H357Z" />
<glyph unicode="R" glyph-name="R" horiz-adv-x="679" d="M481 0L380 249H225V0H83V688H407Q496 688 542 662T604 589T620 469Q620 306 522 268L632 0H481ZM408 372T434 380T468 407T476 469Q476 512 469 531T436 557T351 565H225V372H350Q408 372 434 380Z" />
<glyph unicode="S" glyph-name="S" horiz-adv-x="622" d="M178 -8T73 8V127Q196 115 283 115Q334 115 362 119T405 135Q418 145 421 159T425 199Q425 228 421 241T405 261T365 271L218 288Q152 297 116 322T67 388T53 489Q53 577 85 622T171 682T310 696Q441 696
534 676V560Q437 573 339 573Q249 573 220 558Q204 550 200 537T196 498Q196 468 200 455T217 437T263 427L421 408Q467 403 497 390T544 345Q568 302 568 212Q568 117 538 69T458 7T325 -8Q178 -8 73 8Z" />
<glyph unicode="T" glyph-name="T" horiz-adv-x="582" d="M220 0V559H20V688H562V559H362V0H220Z" />
<glyph unicode="U" glyph-name="U" horiz-adv-x="696" d="M619 688V308Q619 171 602 108T528 18T348 -8Q224 -8 168 18T94 107T76 308V688H218V272Q218 195 225 165T258 124T348 113Q413 113 438 124T470 165T477 272V688H619Z" />
<glyph unicode="V" glyph-name="V" horiz-adv-x="662" d="M236 0L17 688H163L330 160H336L500 688H644L425 0H236Z" />
<glyph unicode="W" glyph-name="W" horiz-adv-x="982" d="M624 0L499 460H495L370 0H192L23 688H166L288 174H293L426 688H573L709 174H714L829 688H971L802 0H624Z" />
<glyph unicode="X" glyph-name="X" horiz-adv-x="677" d="M495 0L340 230H332L176 0H18L251 345L22 688H186L337 465H345L497 688H656L427 348L659 0H495Z" />
<glyph unicode="Y" glyph-name="Y" horiz-adv-x="623" d="M239 0V242L4 688H153L310 386H317L473 688H618L382 242V0H239Z" />
<glyph unicode="Z" glyph-name="Z" horiz-adv-x="613" d="M47 0V118L385 565H58V688H565V574L223 123H569V0H47Z" />
<glyph unicode="[" glyph-name="bracketleft" horiz-adv-x="365" d="M83 -150V743H322V653L203 649V-56L322 -60V-150H83Z" />
<glyph unicode="\" glyph-name="backslash" horiz-adv-x="392" d="M283 -55L-8 743H109L398 -55H283Z" />
<glyph unicode="]" glyph-name="bracketright" horiz-adv-x="365" d="M43 -150V-60L162 -56V649L43 653V743H283V-150H43Z" />
<glyph unicode="^" glyph-name="asciicircum" horiz-adv-x="441" d="M314 443L221 656L127 443H28L169 749H272L412 443H314Z" />
<glyph unicode="_" glyph-name="underscore" horiz-adv-x="378" d="M0 -182V-77H378V-182H0Z" />
<glyph unicode="`" glyph-name="grave" horiz-adv-x="267" d="M151 599L20 738V743H153L248 604V599H151Z" />
<glyph unicode="a" glyph-name="a" horiz-adv-x="564" d="M119 -8T82 27T44 143Q44 203 58 237T106 286T204 302Q256 302 360 298V317Q360 362 351 380T315 403T225 408Q194 408 148 405T75 399V502Q168 518 269 518Q367 518 415 497T478 433T493 311V0H368L364
62H357Q334 20 292 6T196 -8Q119 -8 82 27ZM292 97T312 104T345 129Q360 153 360 204V220H240Q210 220 196 216T177 198T172 157Q172 130 178 118T202 102T259 97Q292 97 312 104Z" />
<glyph unicode="b" glyph-name="b" horiz-adv-x="584" d="M305 -8T266 7T206 63H199L195 0H70V743H203V454H210Q232 490 269 504T360 518Q424 518 460 494T514 414T531 255Q531 153 514 96T460 16T357 -8Q305 -8 266 7ZM347 110T366 119T391 156T398 255Q398 324
392 352T366 390T300 399Q268 399 250 392T221 369Q210 353 207 326T203 255Q203 211 206 184T221 140Q231 124 249 117T300 110Q347 110 366 119Z" />
<glyph unicode="c" glyph-name="c" horiz-adv-x="461" d="M388 0T347 -4T268 -8Q170 -8 124 20T65 102T52 256Q52 351 66 405T126 488T266 518Q304 518 344 514T413 502V399Q361 408 301 408Q248 408 225 396T195 354T187 255Q187 186 195 156T226 114T303 102Q339
102 417 110V7Q388 0 347 -4Z" />
<glyph unicode="d" glyph-name="d" horiz-adv-x="584" d="M162 -8T125 15T70 95T52 254Q52 356 69 413T123 494T224 518Q278 518 314 505T373 454H380V743H513V0H389L385 63H377Q356 23 317 8T227 -8Q162 -8 125 15ZM320 110T339 119T368 150Q375 167 377 192T380
255Q380 293 378 317T368 358Q359 380 340 389T284 399Q237 399 218 390T192 353T186 255Q186 185 192 157T217 119T284 110Q320 110 339 119Z" />
<glyph unicode="e" glyph-name="e" horiz-adv-x="556" d="M503 215H185Q185 161 193 139T229 110T328 102Q387 102 483 110V8Q451 1 399 -3T297 -8Q186 -8 134 17T67 95T52 254Q52 357 67 410T132 491T286 518Q388 518 434 492T491 414T503 254V215ZM239 412T219
404T193 372T185 297H377Q377 349 369 373T342 404T284 412Q239 412 219 404Z" />
<glyph unicode="f" glyph-name="f" horiz-adv-x="404" d="M120 400H22V510H120V554Q120 645 141 683T212 732T379 742V642Q319 642 295 638T262 621T253 576V510H379V400H253V0H120V400Z" />
<glyph unicode="g" glyph-name="g" horiz-adv-x="584" d="M218 -206T168 -203T90 -194V-92Q150 -95 234 -95Q305 -95 334 -86T371 -53T380 33V64H374Q354 28 317 14T227 -1Q161 -1 124 22T69 100T52 257Q52 358 69 414T124 494T227 518Q340 518 377 447H385L389
510H513V60Q513 -44 498 -98T430 -179T266 -206Q218 -206 168 -203ZM317 117T335 124T364 149Q374 165 377 190T380 257Q380 299 377 324T365 365Q354 384 336 392T284 400Q237 400 218 391T192 354T186 257Q186 189 192 162T217 126T284 117Q317 117 335 124Z"
/>
<glyph unicode="h" glyph-name="h" horiz-adv-x="592" d="M388 270Q388 334 383 359T360 391T300 399Q257 399 237 386T210 345T203 264V0H70V743H203V450H211Q231 485 267 501T361 517Q428 517 463 495T509 432T521 319V0H388V270Z" />
<glyph unicode="i" glyph-name="i" horiz-adv-x="275" d="M69 622V743H206V622H69ZM70 0V510H204V0H70Z" />
<glyph unicode="j" glyph-name="j" horiz-adv-x="275" d="M69 622V743H206V622H69ZM-17 -98Q24 -98 42 -93T65 -78T70 -45V510H204V-16Q204 -101 186 -139T124 -188T-17 -200V-98Z" />
<glyph unicode="k" glyph-name="k" horiz-adv-x="557" d="M389 0L245 200H203V0H70V743H203V310H245L391 510H535L352 265L538 0H389Z" />
<glyph unicode="l" glyph-name="l" horiz-adv-x="275" d="M70 0V743H204V0H70Z" />
<glyph unicode="m" glyph-name="m" horiz-adv-x="870" d="M666 270Q666 333 661 358T641 391T587 399Q549 399 531 387T507 347T501 264V0H368V270Q368 333 363 358T343 391T289 399Q251 399 233 387T209 346T203 264V0H70V510H195L199 447H206Q225 483 261 500T353
518Q413 518 444 501T490 447H498Q536 518 648 518Q710 518 743 496T787 432T799 318V0H666V270Z" />
<glyph unicode="n" glyph-name="n" horiz-adv-x="592" d="M388 270Q388 334 383 359T360 391T300 399Q257 399 237 386T210 345T203 264V0H70V510H195L199 447H207Q226 484 264 501T361 518Q428 518 463 496T509 432T521 319V0H388V270Z" />
<glyph unicode="o" glyph-name="o" horiz-adv-x="572" d="M176 -8T128 14T66 89T52 256Q52 371 65 422T127 496T286 518Q397 518 445 496T506 423T520 256Q520 141 507 89T445 15T286 -8Q176 -8 128 14ZM338 102T357 112T381 150T386 256Q386 334 382 361T358
398T286 408Q234 408 215 399T191 362T186 256Q186 178 190 150T214 112T286 102Q338 102 357 112Z" />
<glyph unicode="p" glyph-name="p" horiz-adv-x="584" d="M70 510H195L199 447H206Q227 487 266 502T357 518Q422 518 459 495T514 415T531 256Q531 154 514 97T461 16T360 -8Q306 -8 270 6T211 56H203V-199H70V510ZM347 111T366 120T391 157T398 255Q398 324
392 353T366 391T300 400Q265 400 246 391T217 362Q209 345 206 320T203 255Q203 214 205 190T216 149Q225 129 245 120T300 111Q347 111 366 120Z" />
<glyph unicode="q" glyph-name="q" horiz-adv-x="585" d="M380 56H374Q351 19 315 6T224 -8Q160 -8 123 15T69 96T52 255Q52 357 69 413T124 494T227 518Q278 518 317 503T377 447H385L389 510H513V-199H380V56ZM320 111T339 120T369 151Q380 178 380 255Q380
300 377 326T363 369Q353 385 334 392T284 400Q237 400 218 391T192 354T186 255Q186 185 192 157T217 120T284 111Q320 111 339 120Z" />
<glyph unicode="r" glyph-name="r" horiz-adv-x="394" d="M70 510H195L199 422H207Q226 476 265 497T370 518V387Q304 387 268 370T218 312T203 200V0H70V510Z" />
<glyph unicode="s" glyph-name="s" horiz-adv-x="498" d="M212 -8T157 -4T60 6V110Q96 106 144 104T229 101Q274 101 294 105T321 119T327 150Q327 170 324 178T310 189T273 196L155 211Q109 216 85 235T53 284T44 364Q44 430 69 463T138 507T251 518Q295 518
344 514T425 502V400Q339 409 270 409Q228 409 208 407T179 394T170 363Q170 344 173 336T185 325T218 318L346 303Q385 298 407 286T441 243T453 153Q453 84 430 50T366 4T257 -8Q212 -8 157 -4Z" />
<glyph unicode="t" glyph-name="t" horiz-adv-x="390" d="M119 0V400H21V510H119V658H252V510H368V400H252V0H119Z" />
<glyph unicode="u" glyph-name="u" horiz-adv-x="592" d="M393 63H385Q366 26 328 9T231 -8Q164 -8 129 14T82 78T70 191V510H203V240Q203 177 208 152T231 119T292 111Q334 111 354 124T381 164T388 246V510H521V0H397L393 63Z" />
<glyph unicode="v" glyph-name="v" horiz-adv-x="540" d="M182 0L18 510H155L267 128H277L387 510H522L359 0H182Z" />
<glyph unicode="w" glyph-name="w" horiz-adv-x="831" d="M504 0L419 292H411L327 0H165L23 510H157L247 147H255L356 510H478L579 147H588L677 510H808L665 0H504Z" />
<glyph unicode="x" glyph-name="x" horiz-adv-x="557" d="M390 0L277 163H271L159 0H19L196 259L25 510H172L278 355H285L390 510H531L360 260L538 0H390Z" />
<glyph unicode="y" glyph-name="y" horiz-adv-x="592" d="M233 -206T185 -203T106 -195V-93Q211 -96 248 -96Q316 -96 344 -87T380 -53T388 30V66H381Q362 31 326 15T231 -1Q164 -1 129 21T82 84T70 197V510H203V246Q203 182 208 157T231 125T292 117Q335 117
355 130T381 170T388 251V510H521V58Q521 -46 506 -99T440 -179T279 -206Q233 -206 185 -203Z" />
<glyph unicode="z" glyph-name="z" horiz-adv-x="520" d="M48 0V103L300 400H60V510H470V407L217 110H472V0H48Z" />
<glyph unicode="{" glyph-name="braceleft" horiz-adv-x="351" d="M115 -71T115 35V149Q115 198 97 230T24 265V328Q78 329 96 361T115 444V558Q115 664 239 743H331Q329 741 305 718T259 651T236 568V446Q236 322 124 300V293Q236 271 236 146V25Q236 -15 255
-52T296 -112T331 -150H239Q115 -71 115 35Z" />
<glyph unicode="|" glyph-name="bar" horiz-adv-x="290" d="M86 -161V743H203V-161H86Z" />
<glyph unicode="}" glyph-name="braceright" horiz-adv-x="351" d="M21 -148T45 -125T91 -58T114 25V146Q114 271 226 293V300Q114 322 114 446V568Q114 608 95 645T54 705T19 743H111Q235 664 235 558V444Q235 394 253 362T326 328V265Q272 263 254 231T235 149V35Q235
-71 111 -150H19Q21 -148 45 -125Z" />
<glyph unicode="~" glyph-name="asciitilde" horiz-adv-x="497" d="M438 325T433 298T410 256T352 241Q308 241 234 261Q226 263 199 269T154 276Q135 276 131 267T127 229H57Q57 281 62 308T85 350T144 365Q188 365 262 345Q270 343 297 337T342 330Q361 330
365 338T369 376H438Q438 325 433 298Z" />
<glyph unicode="&#xa0;" glyph-name="uni00A0" horiz-adv-x="246" />
<glyph unicode="&#xa1;" glyph-name="exclamdown" horiz-adv-x="291" d="M72 375V510H218V375H72ZM67 -123Q67 -75 78 69T95 285H195Q201 214 212 70T223 -123V-178H67V-123Z" />
<glyph unicode="&#xa2;" glyph-name="cent" horiz-adv-x="467" d="M218 70Q145 79 110 112T65 198T55 342Q55 432 66 486T112 573T218 615V696H315V617Q378 614 415 602V494Q363 503 306 503Q254 503 232 491T202 447T194 342Q194 270 202 238T233 194T308 182Q365
182 419 191V83Q378 72 315 69V-8H218V70Z" />
<glyph unicode="&#xa3;" glyph-name="sterling" horiz-adv-x="598" d="M555 120V0H46V120H120V296H46V412H121Q121 523 143 583T222 669T386 696Q427 696 471 691T543 679V567Q467 576 424 576Q376 576 348 572T303 556Q280 541 272 509T264 412H468V296H264V120H555Z" />
<glyph unicode="&#xa4;" glyph-name="currency" horiz-adv-x="678" d="M53 72L128 148Q114 177 110 221T105 345Q105 423 109 467T127 541L52 616L124 690L209 605Q255 618 339 618Q423 618 469 605L554 691L626 617L550 541Q564 511 568 466T573 345Q573 268
569 223T549 148L626 72L554 -3L468 83Q422 70 339 70Q255 70 209 83L124 -2L53 72ZM391 181T410 191T434 231T439 345Q439 428 435 457T411 497T339 507Q286 507 267 497T243 458T238 345Q238 261 242 232T266 192T339 181Q391 181 410 191Z" />
<glyph unicode="&#xa5;" glyph-name="yen" horiz-adv-x="627" d="M241 0V217H53V295H223L181 369H53V447H143L23 688H170L311 386H318L460 688H602L482 447H572V369H444L401 295H572V217H384V0H241Z" />
<glyph unicode="&#xa6;" glyph-name="brokenbar" horiz-adv-x="290" d="M86 390V743H203V390H86ZM86 -161V192H203V-161H86Z" />
<glyph unicode="&#xa7;" glyph-name="section" horiz-adv-x="691" d="M257 -171T202 -165T138 -156V-47Q142 -47 181 -50T277 -53Q342 -53 370 -50T409 -38T420 -5Q420 15 417 24T404 38T371 50L174 107Q126 121 100 137T61 185T47 274Q47 352 68 394T148 448Q140
463 138 482T136 533Q136 598 163 634T240 683T363 696Q433 696 488 690T552 681V572Q548 572 506 574T413 577Q348 577 320 574T281 562T270 530Q270 509 273 500T286 485T320 473L517 416Q564 402 590 386T629 339T643 249Q643 172 622 129T542 76Q554 47 554
-8Q554 -74 527 -109T450 -158T327 -171Q257 -171 202 -165ZM496 154T506 171T516 227Q516 265 506 279T464 301L262 358Q256 360 240 364T215 369Q194 369 185 352T175 296Q175 269 179 256T194 236T228 222L429 164Q463 154 476 154Q496 154 506 171Z" />
<glyph unicode="&#xa8;" glyph-name="dieresis" horiz-adv-x="351" d="M19 627V730H133V627H19ZM218 627V730H332V627H218Z" />
<glyph unicode="&#xa9;" glyph-name="copyright" horiz-adv-x="741" d="M226 -8T168 17T95 109T80 344Q80 512 95 578T168 670T370 696Q514 696 572 671T646 579T661 344Q661 176 646 109T573 17T370 -8Q226 -8 168 17ZM495 48T538 63T592 132T604 344Q604 501
593 555T538 624T370 639Q245 639 202 624T148 555T136 344Q136 187 147 133T202 63T370 48Q495 48 538 63ZM325 153T293 170T250 226T239 342Q239 419 249 458T292 514T392 531Q416 531 442 529T484 522V458Q444 463 411 463Q365 463 348 456T326 426T321 342Q321
281 326 258T348 228T411 221Q453 221 486 226V161Q451 153 392 153Q325 153 293 170Z" />
<glyph unicode="&#xaa;" glyph-name="ordfeminine" horiz-adv-x="414" d="M89 313T64 339T38 425Q38 468 47 492T81 527T151 538Q190 538 264 534V550Q264 581 258 593T233 609T163 613Q132 613 59 606V684Q129 696 200 696Q272 696 307 680T353 633T364 544V317H270L265
360H260Q240 332 212 323T146 313Q89 313 64 339ZM220 388T234 392T256 410Q264 426 264 464V479H180Q150 479 141 471T132 434Q132 414 136 405T153 392T193 388Q220 388 234 392Z" />
<glyph unicode="&#xab;" glyph-name="guillemotleft" horiz-adv-x="493" d="M163 98L31 304L163 510H251L144 304L251 98H163ZM348 98L216 304L348 510H436L328 304L436 98H348Z" />
<glyph unicode="&#xac;" glyph-name="logicalnot" horiz-adv-x="539" d="M368 53V201H70V307H469V53H368Z" />
<glyph unicode="&#xad;" glyph-name="uni00AD" horiz-adv-x="368" d="M53 226V343H316V226H53Z" />
<glyph unicode="&#xae;" glyph-name="registered" horiz-adv-x="741" d="M514 696T572 671T646 579T661 344Q661 176 646 109T573 17T370 -8Q226 -8 168 17T95 109T80 344Q80 512 95 578T168 670T370 696Q514 696 572 671ZM495 48T538 63T592 132T604 344Q604
501 593 555T538 624T370 639Q245 639 202 624T148 555T136 344Q136 187 147 133T202 63T370 48Q495 48 538 63ZM518 370T507 343T465 303L525 158H440L389 293Q381 292 367 292H309V158H230V528H400Q451 528 476 514T510 476T518 411Q518 370 507 343ZM401 357T415
362T434 377T438 409Q438 431 434 441T416 456T374 460H309V357H369Q401 357 415 362Z" />
<glyph unicode="&#xaf;" glyph-name="overscore" horiz-adv-x="370" d="M53 625V742H316V625H53Z" />
<glyph unicode="&#xb0;" glyph-name="degree" horiz-adv-x="393" d="M130 397T101 410T63 453T55 546Q55 609 63 638T100 682T196 696Q263 696 292 682T330 639T338 546Q338 483 330 454T293 411T196 397Q130 397 101 410ZM226 461T238 467T252 489T255 546Q255
588 253 603T238 625T196 632Q166 632 154 626T140 604T137 546Q137 505 139 489T154 467T196 461Q226 461 238 467Z" />
<glyph unicode="&#xb1;" glyph-name="plusminus" horiz-adv-x="539" d="M218 185V334H70V439H218V586H320V439H470V334H320V185H218ZM70 -1V104H470V-1H70Z" />
<glyph unicode="&#xb2;" glyph-name="uni00B2" horiz-adv-x="370" d="M135 396H323V315H47V371Q47 414 50 436T63 474T97 500Q122 512 197 541Q219 550 225 557T231 584Q231 599 226 605T207 614T165 616Q121 616 54 607V684Q82 689 119 692T188 696Q232 696 260
689T305 659T323 589Q323 543 307 517T260 478L167 443Q149 437 142 430T135 409V396Z" />
<glyph unicode="&#xb3;" glyph-name="uni00B3" horiz-adv-x="365" d="M103 307T40 319V393Q119 386 156 386Q196 386 209 393T223 426Q223 451 213 459T175 468H103V538H175Q199 538 209 546T219 578Q219 603 206 609T150 616Q108 616 42 608V684Q105 696 164
696Q245 696 278 671T312 593Q312 526 261 507V503Q316 486 316 417Q316 362 284 335T163 307Q103 307 40 319Z" />
<glyph unicode="&#xb4;" glyph-name="acute" horiz-adv-x="267" d="M20 599V604L114 743H248V738L116 599H20Z" />
<glyph unicode="&#xb5;" glyph-name="uni00B5" horiz-adv-x="592" d="M521 510V0H397L393 63H385Q366 28 329 11T233 -6Q218 -6 203 -3V-189H70V510H203V240Q203 177 208 152T231 119T292 111Q334 111 354 124T381 164T388 246V510H521Z" />
<glyph unicode="&#xb6;" glyph-name="paragraph" horiz-adv-x="619" d="M296 222Q176 222 128 238T66 298T53 454Q53 566 66 610T127 671T296 688H387V-144H296V222ZM453 -144V688H541V-144H453Z" />
<glyph unicode="&#xb7;" glyph-name="middot" horiz-adv-x="274" d="M64 232V367H210V232H64Z" />
<glyph unicode="&#xb8;" glyph-name="cedilla" horiz-adv-x="202" d="M20 -190V-185L92 8H182V3L145 -190H20Z" />
<glyph unicode="&#xb9;" glyph-name="uni00B9" horiz-adv-x="261" d="M108 315V585L37 555V636L138 688H199V315H108Z" />
<glyph unicode="&#xba;" glyph-name="ordmasculine" horiz-adv-x="430" d="M136 313T101 330T55 386T44 504Q44 584 54 622T100 678T215 696Q294 696 329 679T375 623T386 504Q386 424 376 386T330 331T215 313Q136 313 101 330ZM251 395T265 402T282 428T285
504Q285 559 282 579T265 606T215 614Q179 614 165 607T148 579T145 504Q145 448 148 429T165 402T215 395Q251 395 265 402Z" />
<glyph unicode="&#xbb;" glyph-name="guillemotright" horiz-adv-x="493" d="M57 98L165 304L57 510H145L277 304L145 98H57ZM242 98L349 304L242 510H330L461 304L330 98H242Z" />
<glyph unicode="&#xbc;" glyph-name="onequarter" horiz-adv-x="737" d="M108 315V585L37 555V636L138 688H199V315H108ZM79 0L527 688H616L168 0H79ZM557 0V71H376V137L509 375H609L474 150H561L587 248H647V150H696V71H647V0H557Z" />
<glyph unicode="&#xbd;" glyph-name="onehalf" horiz-adv-x="795" d="M108 315V585L37 555V636L138 688H199V315H108ZM527 688H616L168 0H79L527 688ZM555 81H743V0H466V55Q466 118 475 143T516 185Q537 195 617 226Q639 235 645 242T651 269Q651 290 638 295T585
301Q541 301 473 292V368Q501 374 538 377T607 381Q651 381 679 374T725 344T743 274Q743 227 727 201T679 162L617 139Q593 131 588 129Q570 122 563 115T555 94V81Z" />
<glyph unicode="&#xbe;" glyph-name="threequarters" horiz-adv-x="807" d="M120 386T157 386Q197 386 210 393T224 426Q224 451 214 459T176 468H104V538H176Q200 538 210 546T220 578Q220 603 207 609T151 616Q109 616 43 608V684Q106 696 164 696Q246 696 279
671T313 593Q313 557 300 537T261 507V503Q317 487 317 417Q317 362 285 335T164 307Q104 307 41 319V393Q120 386 157 386ZM150 0L598 688H688L240 0H150ZM627 0V71H446V137L579 375H680L545 150H631L657 248H718V150H766V71H718V0H627Z" />
<glyph unicode="&#xbf;" glyph-name="questiondown" horiz-adv-x="450" d="M229 375V510H375V375H229ZM187 -186T142 -168T77 -108T56 2Q56 69 75 106T135 157L177 171Q212 182 223 187T238 205T242 248V286H363V215Q363 161 348 137T296 100L263 89Q232 80 219
72T202 50T197 4Q197 -30 207 -44T240 -62T312 -66Q381 -66 469 -55V-168Q426 -176 369 -181T264 -186Q187 -186 142 -168Z" />
<glyph unicode="&#xc0;" glyph-name="Agrave" horiz-adv-x="684" d="M525 0L475 148H207L158 0H15L248 688H439L672 0H525ZM343 554H338L245 272H437L343 554ZM319 750L188 889V894H321L416 755V750H319Z" />
<glyph unicode="&#xc1;" glyph-name="Aacute" horiz-adv-x="684" d="M525 0L475 148H207L158 0H15L248 688H439L672 0H525ZM343 554H338L245 272H437L343 554ZM263 750V755L357 894H491V889L359 750H263Z" />
<glyph unicode="&#xc2;" glyph-name="Acircumflex" horiz-adv-x="684" d="M525 0L475 148H207L158 0H15L248 688H439L672 0H525ZM343 554H338L245 272H437L343 554ZM182 750V757L278 895H406L503 757V750H415L341 835L269 750H182Z" />
<glyph unicode="&#xc3;" glyph-name="Atilde" horiz-adv-x="684" d="M525 0L475 148H207L158 0H15L248 688H439L672 0H525ZM343 554H338L245 272H437L343 554ZM532 846T527 819T504 777T446 762Q420 762 396 766T328 782Q320 784 293 790T248 797Q229 797 225
789T221 751H151Q151 802 156 829T179 872T238 887Q264 887 289 882T355 867Q413 852 436 852Q455 852 459 860T463 898H532Q532 846 527 819Z" />
<glyph unicode="&#xc4;" glyph-name="Adieresis" horiz-adv-x="684" d="M525 0L475 148H207L158 0H15L248 688H439L672 0H525ZM343 554H338L245 272H437L343 554ZM185 777V880H299V777H185ZM384 777V880H498V777H384Z" />
<glyph unicode="&#xc5;" glyph-name="Aring" horiz-adv-x="687" d="M672 0H525L475 148H207L158 0H15L251 689Q219 701 210 723T201 791Q201 838 209 861T247 897T342 909Q409 909 439 897T478 862T486 791Q486 746 477 724T436 689L672 0ZM310 847T297 842T280
827T276 791Q276 766 279 755T296 740T342 735Q376 735 390 739T407 754T410 791Q410 816 407 826T390 842T342 847Q310 847 297 842ZM245 272H437L343 554H338L245 272Z" />
<glyph unicode="&#xc6;" glyph-name="AE" horiz-adv-x="969" d="M496 0L465 148H198L128 0H-14L308 688H912V565H524L558 408H865V286H581L616 123H912V0H496ZM386 553H381L250 271H443L386 553Z" />
<glyph unicode="&#xc7;" glyph-name="Ccedilla" horiz-adv-x="573" d="M462 115T525 125V8Q491 1 442 -3T350 -8H330L295 -190H170V-185L239 0Q163 12 126 49T75 154T62 344Q62 488 82 560T162 664T350 696Q393 696 441 691T521 678V563Q434 573 386 573Q295 573
260 560T215 502T205 344Q205 230 215 186T260 129T386 115Q462 115 525 125Z" />
<glyph unicode="&#xc8;" glyph-name="Egrave" horiz-adv-x="606" d="M83 0V688H556V565H225V409H509V286H225V123H556V0H83ZM292 750L161 889V894H294L389 755V750H292Z" />
<glyph unicode="&#xc9;" glyph-name="Eacute" horiz-adv-x="606" d="M83 0V688H556V565H225V409H509V286H225V123H556V0H83ZM270 750V755L364 894H498V889L366 750H270Z" />
<glyph unicode="&#xca;" glyph-name="Ecircumflex" horiz-adv-x="606" d="M83 0V688H556V565H225V409H509V286H225V123H556V0H83ZM153 750V757L249 895H377L474 757V750H386L312 835L240 750H153Z" />
<glyph unicode="&#xcb;" glyph-name="Edieresis" horiz-adv-x="606" d="M83 0V688H556V565H225V409H509V286H225V123H556V0H83ZM162 772V875H276V772H162ZM361 772V875H475V772H361Z" />
<glyph unicode="&#xcc;" glyph-name="Igrave" horiz-adv-x="306" d="M82 0V688H224V0H82ZM130 750L-1 889V894H132L227 755V750H130Z" />
<glyph unicode="&#xcd;" glyph-name="Iacute" horiz-adv-x="306" d="M82 0V688H224V0H82ZM86 750V755L180 894H314V889L182 750H86Z" />
<glyph unicode="&#xce;" glyph-name="Icircumflex" horiz-adv-x="306" d="M82 0V688H224V0H82ZM-7 750V757L89 895H217L314 757V750H226L152 835L80 750H-7Z" />
<glyph unicode="&#xcf;" glyph-name="Idieresis" horiz-adv-x="306" d="M82 0V688H224V0H82ZM-3 777V880H111V777H-3ZM196 777V880H310V777H196Z" />
<glyph unicode="&#xd0;" glyph-name="Eth" horiz-adv-x="686" d="M83 295H16V401H83V688H317Q465 688 528 659T608 563T624 344Q624 191 608 125T529 30T317 0H83V295ZM401 123T432 133T471 184T480 344Q480 462 471 503T432 555T310 565H225V401H318V295H225V123H310Q401
123 432 133Z" />
<glyph unicode="&#xd1;" glyph-name="Ntilde" horiz-adv-x="721" d="M504 0L223 437H219V0H82V688H229L498 276H503V688H640V0H504ZM550 847T545 820T522 778T464 763Q438 763 414 767T346 783Q338 785 311 791T266 798Q247 798 243 790T239 752H169Q169 803 174
830T197 873T256 888Q282 888 307 883T373 868Q431 853 454 853Q473 853 477 861T481 899H550Q550 847 545 820Z" />
<glyph unicode="&#xd2;" glyph-name="Ograve" horiz-adv-x="705" d="M213 -8T153 22T78 120T62 344Q62 500 77 568T153 666T354 696Q495 696 555 666T631 568T647 344Q647 188 632 120T556 22T354 -8Q213 -8 153 22ZM433 115T460 126T495 179T503 344Q503 466
496 508T461 562T354 573Q275 573 248 562T213 508T205 344Q205 223 213 180T248 126T354 115Q433 115 460 126ZM313 750L182 889V894H315L410 755V750H313Z" />
<glyph unicode="&#xd3;" glyph-name="Oacute" horiz-adv-x="705" d="M213 -8T153 22T78 120T62 344Q62 500 77 568T153 666T354 696Q495 696 555 666T631 568T647 344Q647 188 632 120T556 22T354 -8Q213 -8 153 22ZM433 115T460 126T495 179T503 344Q503 466
496 508T461 562T354 573Q275 573 248 562T213 508T205 344Q205 223 213 180T248 126T354 115Q433 115 460 126ZM291 750V755L385 894H519V889L387 750H291Z" />
<glyph unicode="&#xd4;" glyph-name="Ocircumflex" horiz-adv-x="705" d="M213 -8T153 22T78 120T62 344Q62 500 77 568T153 666T354 696Q495 696 555 666T631 568T647 344Q647 188 632 120T556 22T354 -8Q213 -8 153 22ZM433 115T460 126T495 179T503 344Q503
466 496 508T461 562T354 573Q275 573 248 562T213 508T205 344Q205 223 213 180T248 126T354 115Q433 115 460 126ZM192 750V757L288 895H416L513 757V750H425L351 835L279 750H192Z" />
<glyph unicode="&#xd5;" glyph-name="Otilde" horiz-adv-x="705" d="M213 -8T153 22T78 120T62 344Q62 500 77 568T153 666T354 696Q495 696 555 666T631 568T647 344Q647 188 632 120T556 22T354 -8Q213 -8 153 22ZM433 115T460 126T495 179T503 344Q503 466
496 508T461 562T354 573Q275 573 248 562T213 508T205 344Q205 223 213 180T248 126T354 115Q433 115 460 126ZM544 846T539 819T516 777T458 762Q432 762 408 766T340 782Q332 784 305 790T260 797Q241 797 237 789T233 751H163Q163 802 168 829T191 872T250
887Q276 887 301 882T367 867Q425 852 448 852Q467 852 471 860T475 898H544Q544 846 539 819Z" />
<glyph unicode="&#xd6;" glyph-name="Odieresis" horiz-adv-x="705" d="M213 -8T153 22T78 120T62 344Q62 500 77 568T153 666T354 696Q495 696 555 666T631 568T647 344Q647 188 632 120T556 22T354 -8Q213 -8 153 22ZM433 115T460 126T495 179T503 344Q503 466
496 508T461 562T354 573Q275 573 248 562T213 508T205 344Q205 223 213 180T248 126T354 115Q433 115 460 126ZM197 777V880H311V777H197ZM396 777V880H510V777H396Z" />
<glyph unicode="&#xd7;" glyph-name="multiply" horiz-adv-x="500" d="M250 178L139 68L68 142L178 252L67 362L139 437L250 327L361 437L433 363L322 253L433 142L361 67L250 178Z" />
<glyph unicode="&#xd8;" glyph-name="Oslash" horiz-adv-x="703" d="M613 622T626 583T643 490T647 344Q647 188 632 120T556 22T354 -8Q262 -8 210 3L176 -55H62L120 45Q94 69 82 108T66 199T62 344Q62 500 77 568T153 666T354 696Q440 696 493 686L526 743H642L585
646Q613 622 626 583ZM205 240T210 199L426 571Q407 573 354 573Q275 573 248 562T213 508T205 344Q205 240 210 199ZM433 115T460 126T495 179T503 344Q503 392 502 432T498 496L277 118Q297 115 354 115Q433 115 460 126Z" />
<glyph unicode="&#xd9;" glyph-name="Ugrave" horiz-adv-x="696" d="M619 688V308Q619 171 602 108T528 18T348 -8Q224 -8 168 18T94 107T76 308V688H218V272Q218 195 225 165T258 124T348 113Q413 113 438 124T470 165T477 272V688H619ZM316 750L185 889V894H318L413
755V750H316Z" />
<glyph unicode="&#xda;" glyph-name="Uacute" horiz-adv-x="696" d="M619 688V308Q619 171 602 108T528 18T348 -8Q224 -8 168 18T94 107T76 308V688H218V272Q218 195 225 165T258 124T348 113Q413 113 438 124T470 165T477 272V688H619ZM300 750V755L394 894H528V889L396
750H300Z" />
<glyph unicode="&#xdb;" glyph-name="Ucircumflex" horiz-adv-x="696" d="M619 688V308Q619 171 602 108T528 18T348 -8Q224 -8 168 18T94 107T76 308V688H218V272Q218 195 225 165T258 124T348 113Q413 113 438 124T470 165T477 272V688H619ZM190 750V757L286
895H414L511 757V750H423L349 835L277 750H190Z" />
<glyph unicode="&#xdc;" glyph-name="Udieresis" horiz-adv-x="696" d="M619 688V308Q619 171 602 108T528 18T348 -8Q224 -8 168 18T94 107T76 308V688H218V272Q218 195 225 165T258 124T348 113Q413 113 438 124T470 165T477 272V688H619ZM191 777V880H305V777H191ZM390
777V880H504V777H390Z" />
<glyph unicode="&#xdd;" glyph-name="Yacute" horiz-adv-x="623" d="M239 0V242L4 688H153L310 386H317L473 688H618L382 242V0H239ZM268 750V755L362 894H496V889L364 750H268Z" />
<glyph unicode="&#xde;" glyph-name="Thorn" horiz-adv-x="650" d="M83 688H225V580H400Q486 580 532 553T594 477T610 351Q610 278 595 229T532 151T397 122H225V0H83V688ZM339 244Q399 244 425 252T459 282T467 351Q467 399 460 420T427 449T341 457H225V244H339Z" />
<glyph unicode="&#xdf;" glyph-name="germandbls" horiz-adv-x="602" d="M274 0V110H307Q361 110 381 117T408 150T415 244Q415 304 406 330T376 365T308 374H288V485H308Q349 485 369 490T398 511T406 555Q406 592 398 610T368 634T304 640Q265 640 244 633T213
604T203 536V0H70V553Q70 622 92 665T166 729T308 750Q399 750 449 730T520 672T540 574Q540 511 512 478T424 436V432Q488 420 518 377T549 239Q549 147 532 97T468 24T327 0H274Z" />
<glyph unicode="&#xe0;" glyph-name="agrave" horiz-adv-x="564" d="M119 -8T82 27T44 143Q44 203 58 237T106 286T204 302Q256 302 360 298V317Q360 362 351 380T315 403T225 408Q194 408 148 405T75 399V502Q168 518 269 518Q367 518 415 497T478 433T493 311V0H368L364
62H357Q334 20 292 6T196 -8Q119 -8 82 27ZM292 97T312 104T345 129Q360 153 360 204V220H240Q210 220 196 216T177 198T172 157Q172 130 178 118T202 102T259 97Q292 97 312 104ZM241 599L110 738V743H243L338 604V599H241Z" />
<glyph unicode="&#xe1;" glyph-name="aacute" horiz-adv-x="564" d="M119 -8T82 27T44 143Q44 203 58 237T106 286T204 302Q256 302 360 298V317Q360 362 351 380T315 403T225 408Q194 408 148 405T75 399V502Q168 518 269 518Q367 518 415 497T478 433T493 311V0H368L364
62H357Q334 20 292 6T196 -8Q119 -8 82 27ZM292 97T312 104T345 129Q360 153 360 204V220H240Q210 220 196 216T177 198T172 157Q172 130 178 118T202 102T259 97Q292 97 312 104ZM225 599V604L319 743H453V738L321 599H225Z" />
<glyph unicode="&#xe2;" glyph-name="acircumflex" horiz-adv-x="564" d="M119 -8T82 27T44 143Q44 203 58 237T106 286T204 302Q256 302 360 298V317Q360 362 351 380T315 403T225 408Q194 408 148 405T75 399V502Q168 518 269 518Q367 518 415 497T478 433T493
311V0H368L364 62H357Q334 20 292 6T196 -8Q119 -8 82 27ZM292 97T312 104T345 129Q360 153 360 204V220H240Q210 220 196 216T177 198T172 157Q172 130 178 118T202 102T259 97Q292 97 312 104ZM123 598V605L219 743H347L444 605V598H356L282 683L210 598H123Z"
/>
<glyph unicode="&#xe3;" glyph-name="atilde" horiz-adv-x="564" d="M119 -8T82 27T44 143Q44 203 58 237T106 286T204 302Q256 302 360 298V317Q360 362 351 380T315 403T225 408Q194 408 148 405T75 399V502Q168 518 269 518Q367 518 415 497T478 433T493 311V0H368L364
62H357Q334 20 292 6T196 -8Q119 -8 82 27ZM292 97T312 104T345 129Q360 153 360 204V220H240Q210 220 196 216T177 198T172 157Q172 130 178 118T202 102T259 97Q292 97 312 104ZM472 947T467 920T444 878T386 863Q360 863 336 867T268 883Q260 885 233 891T188
898Q169 898 165 890T161 852H91Q91 903 96 930T119 973T178 988Q204 988 229 983T295 968Q353 953 376 953Q395 953 399 961T403 999H472Q472 947 467 920Z" />
<glyph unicode="&#xe4;" glyph-name="adieresis" horiz-adv-x="564" d="M119 -8T82 27T44 143Q44 203 58 237T106 286T204 302Q256 302 360 298V317Q360 362 351 380T315 403T225 408Q194 408 148 405T75 399V502Q168 518 269 518Q367 518 415 497T478 433T493
311V0H368L364 62H357Q334 20 292 6T196 -8Q119 -8 82 27ZM292 97T312 104T345 129Q360 153 360 204V220H240Q210 220 196 216T177 198T172 157Q172 130 178 118T202 102T259 97Q292 97 312 104ZM126 627V730H240V627H126ZM325 627V730H439V627H325Z" />
<glyph unicode="&#xe5;" glyph-name="aring" horiz-adv-x="564" d="M119 -8T82 27T44 143Q44 203 58 237T106 286T204 302Q256 302 360 298V317Q360 362 351 380T315 403T225 408Q194 408 148 405T75 399V502Q168 518 269 518Q367 518 415 497T478 433T493 311V0H368L364
62H357Q334 20 292 6T196 -8Q119 -8 82 27ZM292 97T312 104T345 129Q360 153 360 204V220H240Q210 220 196 216T177 198T172 157Q172 130 178 118T202 102T259 97Q292 97 312 104ZM217 836T188 847T150 881T142 951Q142 998 150 1021T187 1056T282 1068Q348 1068
378 1057T416 1022T425 951Q425 905 417 882T378 848T282 836Q217 836 188 847ZM316 895T330 899T347 914T350 951Q350 977 347 987T330 1003T282 1008Q250 1008 237 1003T220 988T216 951Q216 926 219 915T236 900T282 895Q316 895 330 899Z" />
<glyph unicode="&#xe6;" glyph-name="ae" horiz-adv-x="867" d="M812 217H494Q494 162 502 140T538 110T637 102Q696 102 792 110V8Q760 1 708 -3T606 -8Q527 -8 481 5T410 48Q377 13 330 3T220 -8Q128 -8 86 26T44 143Q44 203 58 237T106 286T204 302Q216 302
330 299L360 298V317Q360 362 351 380T315 403T225 408Q193 408 144 405T75 399V502Q165 518 267 518Q327 518 367 508T433 475Q485 518 597 518Q698 518 743 492T800 414T812 254V217ZM548 412T528 404T502 372T494 297H686Q686 349 678 373T651 404T593 412Q548
412 528 404ZM360 217H240Q209 217 196 214T177 198T172 157Q172 130 178 118T202 102T259 97Q296 97 317 106T349 138Q360 165 360 204V217Z" />
<glyph unicode="&#xe7;" glyph-name="ccedilla" horiz-adv-x="461" d="M417 7Q389 0 350 -4T274 -8L239 -190H114V-185L183 -1Q124 11 96 43T60 123T52 256Q52 351 66 405T126 488T266 518Q304 518 344 514T413 502V399Q361 408 301 408Q248 408 225 396T195 354T187
255Q187 186 195 156T226 114T303 102Q339 102 417 110V7Z" />
<glyph unicode="&#xe8;" glyph-name="egrave" horiz-adv-x="556" d="M503 215H185Q185 161 193 139T229 110T328 102Q387 102 483 110V8Q451 1 399 -3T297 -8Q186 -8 134 17T67 95T52 254Q52 357 67 410T132 491T286 518Q388 518 434 492T491 414T503 254V215ZM239
412T219 404T193 372T185 297H377Q377 349 369 373T342 404T284 412Q239 412 219 404ZM247 599L116 738V743H249L344 604V599H247Z" />
<glyph unicode="&#xe9;" glyph-name="eacute" horiz-adv-x="556" d="M503 215H185Q185 161 193 139T229 110T328 102Q387 102 483 110V8Q451 1 399 -3T297 -8Q186 -8 134 17T67 95T52 254Q52 357 67 410T132 491T286 518Q388 518 434 492T491 414T503 254V215ZM239
412T219 404T193 372T185 297H377Q377 349 369 373T342 404T284 412Q239 412 219 404ZM228 599V604L322 743H456V738L324 599H228Z" />
<glyph unicode="&#xea;" glyph-name="ecircumflex" horiz-adv-x="556" d="M503 215H185Q185 161 193 139T229 110T328 102Q387 102 483 110V8Q451 1 399 -3T297 -8Q186 -8 134 17T67 95T52 254Q52 357 67 410T132 491T286 518Q388 518 434 492T491 414T503 254V215ZM239
412T219 404T193 372T185 297H377Q377 349 369 373T342 404T284 412Q239 412 219 404ZM123 598V605L219 743H347L444 605V598H356L282 683L210 598H123Z" />
<glyph unicode="&#xeb;" glyph-name="edieresis" horiz-adv-x="556" d="M503 215H185Q185 161 193 139T229 110T328 102Q387 102 483 110V8Q451 1 399 -3T297 -8Q186 -8 134 17T67 95T52 254Q52 357 67 410T132 491T286 518Q388 518 434 492T491 414T503 254V215ZM239
412T219 404T193 372T185 297H377Q377 349 369 373T342 404T284 412Q239 412 219 404ZM129 627V730H243V627H129ZM328 627V730H442V627H328Z" />
<glyph unicode="&#xec;" glyph-name="igrave" horiz-adv-x="275" d="M70 0V510H204V0H70ZM364 599L233 738V743H366L461 604V599H364Z" />
<glyph unicode="&#xed;" glyph-name="iacute" horiz-adv-x="275" d="M70 0V510H204V0H70ZM73 599V604L167 743H301V738L169 599H73Z" />
<glyph unicode="&#xee;" glyph-name="icircumflex" horiz-adv-x="275" d="M70 0V510H204V0H70ZM233 598V605L329 743H457L554 605V598H466L392 683L320 598H233Z" />
<glyph unicode="&#xef;" glyph-name="idieresis" horiz-adv-x="275" d="M70 0V510H204V0H70ZM237 627V730H351V627H237ZM436 627V730H550V627H436Z" />
<glyph unicode="&#xf0;" glyph-name="eth" d="M177 -8T128 15T66 90T52 254Q52 356 64 409T117 490T246 517Q305 517 353 501L356 505Q336 555 311 595L193 577V660L260 670Q226 707 189 739V743H332Q365 713 386 690L503 708V625L439 615Q481 546 503 447Q520
365 520 264Q520 145 507 92T446 16T286 -8Q177 -8 128 15ZM339 102T358 111T382 148T387 254Q387 328 383 356T358 396T286 408Q234 408 215 398T191 360T186 254Q186 176 190 149T214 112T286 102Q339 102 358 111Z" />
<glyph unicode="&#xf1;" glyph-name="ntilde" horiz-adv-x="592" d="M388 270Q388 334 383 359T360 391T300 399Q257 399 237 386T210 345T203 264V0H70V510H195L199 447H207Q226 484 264 501T361 518Q428 518 463 496T509 432T521 319V0H388V270ZM489 947T484
920T461 878T403 863Q377 863 353 867T285 883Q277 885 250 891T205 898Q186 898 182 890T178 852H108Q108 903 113 930T136 973T195 988Q221 988 246 983T312 968Q370 953 393 953Q412 953 416 961T420 999H489Q489 947 484 920Z" />
<glyph unicode="&#xf2;" glyph-name="ograve" horiz-adv-x="572" d="M176 -8T128 14T66 89T52 256Q52 371 65 422T127 496T286 518Q397 518 445 496T506 423T520 256Q520 141 507 89T445 15T286 -8Q176 -8 128 14ZM338 102T357 112T381 150T386 256Q386 334 382
361T358 398T286 408Q234 408 215 399T191 362T186 256Q186 178 190 150T214 112T286 102Q338 102 357 112ZM249 599L118 738V743H251L346 604V599H249Z" />
<glyph unicode="&#xf3;" glyph-name="oacute" horiz-adv-x="572" d="M176 -8T128 14T66 89T52 256Q52 371 65 422T127 496T286 518Q397 518 445 496T506 423T520 256Q520 141 507 89T445 15T286 -8Q176 -8 128 14ZM338 102T357 112T381 150T386 256Q386 334 382
361T358 398T286 408Q234 408 215 399T191 362T186 256Q186 178 190 150T214 112T286 102Q338 102 357 112ZM231 599V604L325 743H459V738L327 599H231Z" />
<glyph unicode="&#xf4;" glyph-name="ocircumflex" horiz-adv-x="572" d="M176 -8T128 14T66 89T52 256Q52 371 65 422T127 496T286 518Q397 518 445 496T506 423T520 256Q520 141 507 89T445 15T286 -8Q176 -8 128 14ZM338 102T357 112T381 150T386 256Q386 334
382 361T358 398T286 408Q234 408 215 399T191 362T186 256Q186 178 190 150T214 112T286 102Q338 102 357 112ZM126 598V605L222 743H350L447 605V598H359L285 683L213 598H126Z" />
<glyph unicode="&#xf5;" glyph-name="otilde" horiz-adv-x="572" d="M176 -8T128 14T66 89T52 256Q52 371 65 422T127 496T286 518Q397 518 445 496T506 423T520 256Q520 141 507 89T445 15T286 -8Q176 -8 128 14ZM338 102T357 112T381 150T386 256Q386 334 382
361T358 398T286 408Q234 408 215 399T191 362T186 256Q186 178 190 150T214 112T286 102Q338 102 357 112ZM478 947T473 920T450 878T392 863Q366 863 342 867T274 883Q266 885 239 891T194 898Q175 898 171 890T167 852H97Q97 903 102 930T125 973T184 988Q210
988 235 983T301 968Q359 953 382 953Q401 953 405 961T409 999H478Q478 947 473 920Z" />
<glyph unicode="&#xf6;" glyph-name="odieresis" horiz-adv-x="572" d="M176 -8T128 14T66 89T52 256Q52 371 65 422T127 496T286 518Q397 518 445 496T506 423T520 256Q520 141 507 89T445 15T286 -8Q176 -8 128 14ZM338 102T357 112T381 150T386 256Q386 334
382 361T358 398T286 408Q234 408 215 399T191 362T186 256Q186 178 190 150T214 112T286 102Q338 102 357 112ZM131 627V730H245V627H131ZM330 627V730H444V627H330Z" />
<glyph unicode="&#xf7;" glyph-name="divide" horiz-adv-x="539" d="M218 391V487H320V391H218ZM70 200V305H470V200H70ZM218 18V114H320V18H218Z" />
<glyph unicode="&#xf8;" glyph-name="oslash" horiz-adv-x="572" d="M502 454T511 405T520 256Q520 141 507 89T445 15T286 -8Q228 -8 186 -2L155 -55H52L102 30Q70 56 61 105T52 256Q52 371 65 422T127 496T286 518Q344 518 386 512L417 565H520L470 480Q502
454 511 405ZM186 196T187 175L324 407Q313 408 286 408Q234 408 215 399T191 362T186 256Q186 196 187 175ZM338 102T357 112T381 150T386 256Q386 315 385 335L248 103Q259 102 286 102Q338 102 357 112Z" />
<glyph unicode="&#xf9;" glyph-name="ugrave" horiz-adv-x="592" d="M393 63H385Q366 26 328 9T231 -8Q164 -8 129 14T82 78T70 191V510H203V240Q203 177 208 152T231 119T292 111Q334 111 354 124T381 164T388 246V510H521V0H397L393 63ZM259 599L128 738V743H261L356
604V599H259Z" />
<glyph unicode="&#xfa;" glyph-name="uacute" horiz-adv-x="592" d="M393 63H385Q366 26 328 9T231 -8Q164 -8 129 14T82 78T70 191V510H203V240Q203 177 208 152T231 119T292 111Q334 111 354 124T381 164T388 246V510H521V0H397L393 63ZM250 599V604L344 743H478V738L346
599H250Z" />
<glyph unicode="&#xfb;" glyph-name="ucircumflex" horiz-adv-x="592" d="M393 63H385Q366 26 328 9T231 -8Q164 -8 129 14T82 78T70 191V510H203V240Q203 177 208 152T231 119T292 111Q334 111 354 124T381 164T388 246V510H521V0H397L393 63ZM136 598V605L232
743H360L457 605V598H369L295 683L223 598H136Z" />
<glyph unicode="&#xfc;" glyph-name="udieresis" horiz-adv-x="592" d="M393 63H385Q366 26 328 9T231 -8Q164 -8 129 14T82 78T70 191V510H203V240Q203 177 208 152T231 119T292 111Q334 111 354 124T381 164T388 246V510H521V0H397L393 63ZM139 627V730H253V627H139ZM338
627V730H452V627H338Z" />
<glyph unicode="&#xfd;" glyph-name="yacute" horiz-adv-x="592" d="M233 -206T185 -203T106 -195V-93Q211 -96 248 -96Q316 -96 344 -87T380 -53T388 30V66H381Q362 31 326 15T231 -1Q164 -1 129 21T82 84T70 197V510H203V246Q203 182 208 157T231 125T292 117Q335
117 355 130T381 170T388 251V510H521V58Q521 -46 506 -99T440 -179T279 -206Q233 -206 185 -203ZM246 599V604L340 743H474V738L342 599H246Z" />
<glyph unicode="&#xfe;" glyph-name="thorn" horiz-adv-x="584" d="M70 743H203V449H211Q232 490 268 504T357 518Q422 518 459 495T514 415T531 256Q531 154 514 97T461 16T360 -8Q306 -8 270 6T211 56H203V-189H70V743ZM347 111T366 120T391 157T398 255Q398
324 392 353T366 391T300 400Q267 400 248 392T219 365Q209 348 206 323T203 255Q203 216 205 192T215 153Q224 130 243 121T300 111Q347 111 366 120Z" />
<glyph unicode="&#xff;" glyph-name="ydieresis" horiz-adv-x="592" d="M233 -206T185 -203T106 -195V-93Q211 -96 248 -96Q316 -96 344 -87T380 -53T388 30V66H381Q362 31 326 15T231 -1Q164 -1 129 21T82 84T70 197V510H203V246Q203 182 208 157T231 125T292
117Q335 117 355 130T381 170T388 251V510H521V58Q521 -46 506 -99T440 -179T279 -206Q233 -206 185 -203ZM139 627V730H253V627H139ZM338 627V730H452V627H338Z" />
<glyph unicode="&#x2013;" glyph-name="endash" horiz-adv-x="475" d="M48 251V356H427V251H48Z" />
<glyph unicode="&#x2014;" glyph-name="emdash" horiz-adv-x="875" d="M48 251V356H827V251H48Z" />
<glyph unicode="&#x2018;" glyph-name="quoteleft" horiz-adv-x="267" d="M64 519Q64 592 74 626T115 674T214 688V633Q174 633 161 621T148 570V554H203V426H64V519Z" />
<glyph unicode="&#x2019;" glyph-name="quoteright" horiz-adv-x="267" d="M92 482T105 494T118 544V561H64V688H203V595Q203 522 193 488T152 440T53 426V482Q92 482 105 494Z" />
<glyph unicode="&#x201a;" glyph-name="quotesinglbase" horiz-adv-x="267" d="M92 -79T105 -67T118 -16V0H64V128H203V35Q203 -38 193 -72T152 -120T53 -134V-79Q92 -79 105 -67Z" />
<glyph unicode="&#x201c;" glyph-name="quotedblleft" horiz-adv-x="469" d="M64 519Q64 592 74 626T115 674T214 688V633Q174 633 161 621T148 570V554H203V426H64V519ZM266 519Q266 592 276 626T317 674T416 688V633Q376 633 363 621T350 570V554H405V426H266V519Z" />
<glyph unicode="&#x201d;" glyph-name="quotedblright" horiz-adv-x="469" d="M92 482T105 494T118 544V561H64V688H203V595Q203 522 193 488T152 440T53 426V482Q92 482 105 494ZM294 482T307 494T320 544V561H266V688H405V595Q405 522 395 488T354 440T255 426V482Q294
482 307 494Z" />
<glyph unicode="&#x201e;" glyph-name="quotedblbase" horiz-adv-x="469" d="M92 -79T105 -67T118 -16V0H64V128H203V35Q203 -38 193 -72T152 -120T53 -134V-79Q92 -79 105 -67ZM294 -79T307 -67T320 -16V0H266V128H405V35Q405 -38 395 -72T354 -120T255 -134V-79Q294
-79 307 -67Z" />
<glyph unicode="&#x2022;" glyph-name="bullet" horiz-adv-x="384" d="M309 285T303 263T273 232T190 223Q133 223 110 231T81 262T75 342Q75 401 81 424T110 455T190 464Q249 464 273 456T303 424T309 342Q309 285 303 263Z" />
<glyph unicode="&#x2039;" glyph-name="guilsinglleft" horiz-adv-x="308" d="M162 98L31 304L162 510H250L143 304L250 98H162Z" />
<glyph unicode="&#x203a;" glyph-name="guilsinglright" horiz-adv-x="308" d="M57 98L165 304L57 510H146L278 304L146 98H57Z" />
</font>
</defs>
</svg>
