<?xml version="1.0" standalone="no"?>
<!DOCTYPE svg PUBLIC "-//W3C//DTD SVG 1.1//EN" "http://www.w3.org/Graphics/SVG/1.1/DTD/svg11.dtd">
<svg xmlns="http://www.w3.org/2000/svg">
<defs >
<font id="Overpass" horiz-adv-x="554" ><font-face
    font-family="Overpass"
    units-per-em="1000"
    panose-1="0 0 8 0 0 0 0 0 0 0"
    ascent="982"
    descent="-284"
    alphabetic="0" />
<glyph unicode=" " glyph-name="space" horiz-adv-x="221" />
<glyph unicode="!" glyph-name="exclam" horiz-adv-x="274" d="M143 193L168 488L208 712H318L278 488L199 193H143ZM138 -13Q109 -13 91 6T73 53Q73 91 98 117T158 143Q188 143 206 124T225 78Q225 40 200 14T138 -13Z" />
<glyph unicode="&quot;" glyph-name="quotedbl" horiz-adv-x="408" d="M137 415L166 700H300L228 415H137ZM325 415L354 700H488L416 415H325Z" />
<glyph unicode="#" glyph-name="numbersign" horiz-adv-x="661" d="M119 0L179 183H72L105 283H210L260 433H155L186 532H291L347 700H443L389 532H509L564 700H662L608 532H715L683 433H578L528 283H633L601 183H496L437 0H339L398 183H277L218 0H119ZM309 283H430L479
433H358L309 283Z" />
<glyph unicode="$" glyph-name="dollar" horiz-adv-x="568" d="M211 -94L227 -4Q162 13 126 59T80 167L187 205Q212 100 308 100Q364 100 397 128T430 204Q430 241 403 267T336 313T256 354T189 416T161 515Q161 581 211 639T352 710L366 786H476L462 704Q517
689 547 650T586 564L476 528Q455 601 378 601Q335 601 309 580T283 526Q283 500 303 479T353 445T417 413T482 371T532 310T552 219Q552 131 498 69T344 -10L329 -94H211Z" />
<glyph unicode="%" glyph-name="percent" horiz-adv-x="814" d="M234 -12H118L704 712H820L234 -12ZM270 349Q203 349 168 394T133 499Q133 579 183 645T321 712Q388 712 423 667T458 561Q458 474 406 412T270 349ZM280 441Q317 441 339 475T362 554Q362 583 349
601T310 620Q273 620 251 586T229 507Q229 479 241 460T280 441ZM621 -12Q554 -12 519 34T483 139Q483 219 533 285T671 352Q739 352 773 307T808 201Q808 114 757 51T621 -12ZM631 81Q667 81 689 115T712 193Q712 223 699 241T660 259Q623 259 601 225T579 146Q579
118 591 100T631 81Z" />
<glyph unicode="&amp;" glyph-name="ampersand" horiz-adv-x="667" d="M507 0L463 72Q368 -12 249 -12Q171 -12 125 34T79 155Q79 241 127 296T266 396Q224 465 224 530Q224 612 280 662T412 712Q482 712 522 674T562 572Q562 460 415 375L486 262Q507 306 515
342H623Q600 240 548 164L649 0H507ZM331 546Q331 507 369 450Q456 502 456 564Q456 591 441 606T401 622Q371 622 351 601T331 546ZM283 98Q354 98 413 154L314 317Q254 285 225 252T196 180Q196 142 219 120T283 98Z" />
<glyph unicode="&apos;" glyph-name="quotesingle" horiz-adv-x="220" d="M166 700H300L228 415H137L166 700Z" />
<glyph unicode="(" glyph-name="parenleft" horiz-adv-x="342" d="M163 -130Q138 -84 121 -4T103 160Q103 490 316 712H430Q407 688 384 659T329 577T273 465T232 327T214 165Q214 76 233 -9T270 -130H163Z" />
<glyph unicode=")" glyph-name="parenright" horiz-adv-x="342" d="M17 -130Q39 -106 61 -77T116 5T171 116T212 252T229 413Q229 503 210 590T172 712H279Q305 667 323 586T341 419Q341 91 131 -130H17Z" />
<glyph unicode="*" glyph-name="asterisk" horiz-adv-x="517" d="M345 383L335 438L310 383L227 283L150 350L233 443L287 474L240 476L134 515L176 612L281 574L319 545L311 597L333 718H439L417 600L390 545L438 578L546 611L566 512L452 476L395 474L433 445L491
341L400 282L345 383Z" />
<glyph unicode="+" glyph-name="plus" horiz-adv-x="605" d="M418 287V108H302V287H134V399H302V578H418V399H586V287H418Z" />
<glyph unicode="," glyph-name="comma" horiz-adv-x="225" d="M58 -141L20 -109Q38 -94 62 -65T97 -10Q76 -5 63 11T49 51Q49 91 74 116T134 142Q165 142 184 123T204 69Q204 9 162 -48T58 -141Z" />
<glyph unicode="-" glyph-name="hyphen" horiz-adv-x="387" d="M115 241L134 352H377L357 241H115Z" />
<glyph unicode="." glyph-name="period" horiz-adv-x="220" d="M112 -13Q83 -13 65 6T47 53Q47 91 72 117T131 143Q162 143 180 124T199 78Q199 40 174 14T112 -13Z" />
<glyph unicode="/" glyph-name="slash" horiz-adv-x="485" d="M-37 -130L489 712H604L78 -130H-37Z" />
<glyph unicode="0" glyph-name="zero" horiz-adv-x="610" d="M314 -13Q214 -13 164 64T113 257Q113 320 123 382T158 505T216 611T304 685T420 714Q475 714 516 690T578 625T610 540T620 447Q620 371 604 295T553 148T457 32T314 -13ZM326 100Q373 100 410 137T466
230T495 339T505 435Q505 505 481 553T406 601Q358 601 321 562T265 466T237 356T228 264Q228 194 251 147T326 100Z" />
<glyph unicode="1" glyph-name="one" horiz-adv-x="362" d="M131 0L225 532H120L136 622Q243 622 280 700H371L248 0H131Z" />
<glyph unicode="2" glyph-name="two" horiz-adv-x="571" d="M55 0Q67 75 92 133T160 234T237 304T331 365Q339 370 361 383T394 402T422 420T448 442T468 465T483 492T487 523Q487 560 463 582T395 605Q300 605 258 513L164 561Q202 632 264 672T409 712Q496 712
551 660T606 531Q606 483 592 446T544 378T478 326T390 273Q383 269 379 267Q243 189 218 114H534L514 0H55Z" />
<glyph unicode="3" glyph-name="three" horiz-adv-x="560" d="M302 -12Q206 -12 146 33T66 152L176 194Q205 98 302 98Q354 98 391 131T429 220Q429 260 404 284T328 309H268L287 419H345Q393 419 426 450T459 525Q459 559 436 581T375 603Q298 603 256 526L159
566Q193 632 252 672T388 712Q471 712 525 667T579 547Q579 485 546 438T455 366Q501 347 524 305T548 214Q548 115 478 52T302 -12Z" />
<glyph unicode="4" glyph-name="four" horiz-adv-x="597" d="M359 0L386 152H43L58 239L476 700H599L522 262H609L589 152H503L476 0H359ZM405 262L452 528L214 262H405Z" />
<glyph unicode="5" glyph-name="five" horiz-adv-x="572" d="M295 -12Q213 -12 151 29T68 133L171 182Q215 100 307 100Q368 100 411 138T454 242Q454 292 426 322T348 352Q283 352 229 296L133 345L221 700H597L578 587H306L262 430Q313 462 380 462Q468 462
521 405T574 253Q574 131 497 60T295 -12Z" />
<glyph unicode="6" glyph-name="six" horiz-adv-x="569" d="M304 -12Q199 -12 142 51T85 216Q85 279 104 344T162 471T257 583T391 668T559 713L540 601Q449 584 373 532T256 399Q308 442 383 442Q466 442 517 390T568 254Q568 133 492 61T304 -12ZM310 98Q370
98 411 134T452 230Q452 274 424 302T349 331Q290 331 249 294T208 198Q208 153 235 126T310 98Z" />
<glyph unicode="7" glyph-name="seven" horiz-adv-x="495" d="M150 0Q212 339 429 588H123L142 700H589L572 599Q447 476 373 312T274 0H150Z" />
<glyph unicode="8" glyph-name="eight" horiz-adv-x="583" d="M308 -12Q210 -12 149 46T87 188Q87 269 134 322T258 392Q222 406 198 438T173 520Q173 601 237 656T404 712Q498 712 551 664T604 543Q604 481 566 438T473 380Q516 365 546 323T577 224Q577 126
505 57T308 -12ZM380 432Q425 432 455 458T485 528Q485 560 462 583T396 607T323 581T292 512Q292 479 315 456T380 432ZM318 95Q379 95 417 129T455 223Q455 265 426 295T343 326Q283 326 246 290T208 199Q208 153 238 124T318 95Z" />
<glyph unicode="9" glyph-name="nine" horiz-adv-x="569" d="M148 -12L168 102Q257 112 332 163T447 311Q395 264 312 264Q227 264 173 317T118 458Q118 572 196 642T387 712Q491 712 548 650T606 480Q606 417 590 353T539 225T451 111T321 28T148 -12ZM338 372Q403
372 443 410T483 504Q483 547 457 574T380 602Q321 602 280 563T238 469Q238 424 266 398T338 372Z" />
<glyph unicode=":" glyph-name="colon" horiz-adv-x="220" d="M171 330Q142 330 124 349T106 395Q106 433 131 459T191 485Q222 485 240 467T259 420Q259 382 234 356T171 330ZM112 -13Q83 -13 65 6T47 53Q47 91 72 117T131 143Q162 143 180 124T199 78Q199 40
174 14T112 -13Z" />
<glyph unicode=";" glyph-name="semicolon" horiz-adv-x="220" d="M171 330Q142 330 124 349T106 395Q106 433 131 459T191 485Q222 485 240 467T259 420Q259 382 234 356T171 330ZM55 -141L17 -109Q35 -94 58 -66T92 -10Q72 -5 59 11T46 51Q46 91 71 116T131
142Q162 142 181 123T201 69Q201 9 159 -48T55 -141Z" />
<glyph unicode="&lt;" glyph-name="less" horiz-adv-x="605" d="M593 104L141 295V391L593 582V464L298 343L593 222V104Z" />
<glyph unicode="=" glyph-name="equal" horiz-adv-x="605" d="M134 390V502H586V390H134ZM134 184V295H586V184H134Z" />
<glyph unicode="&gt;" glyph-name="greater" horiz-adv-x="605" d="M585 295L133 104V222L428 343L133 464V582L585 391V295Z" />
<glyph unicode="?" glyph-name="question" horiz-adv-x="483" d="M211 189L216 219Q227 273 253 314T308 380T366 425T412 471T430 527Q430 559 410 580T349 602Q296 602 260 568T214 474H103Q122 585 195 648T368 712Q449 712 496 664T544 542Q544 492 525 454T476
392T416 345T360 290T327 218L322 189H211ZM235 -13Q206 -13 188 6T169 53Q169 91 194 117T254 143Q285 143 303 124T322 78Q322 40 297 14T235 -13Z" />
<glyph unicode="@" glyph-name="at" horiz-adv-x="788" d="M408 -12Q264 -12 183 67T102 283Q102 458 224 586T530 714Q661 714 737 642T813 459Q813 332 743 246T576 159Q544 159 523 173T500 217Q456 156 388 156Q336 156 306 193T275 295Q275 391 338 462T489
534Q556 534 569 477L584 521H673L606 330Q583 268 583 259Q583 240 602 240Q648 240 687 301T727 448Q727 526 674 574T524 623Q381 623 289 527T196 289Q196 194 253 136T416 77Q482 77 552 94L511 -1Q461 -12 408 -12ZM415 245Q461 245 495 289T529 385Q529
413 516 429T480 446Q434 446 401 404T367 307Q367 280 380 263T415 245Z" />
<glyph unicode="A" glyph-name="A" horiz-adv-x="673" d="M30 0L404 700H517L646 0H525L498 154H238L157 0H30ZM293 262H480L443 478Q442 482 439 505T434 536Q421 504 407 480L293 262Z" />
<glyph unicode="B" glyph-name="B" horiz-adv-x="646" d="M198 700H475Q572 700 618 654T664 542Q664 480 633 433T548 363Q593 346 617 307T642 217Q642 125 577 63T379 0H75L198 700ZM411 417Q477 417 511 444T546 515Q546 546 527 568T461 590H297L267 417H411ZM380
110Q447 110 482 140T517 217Q517 308 414 308H248L213 110H380Z" />
<glyph unicode="C" glyph-name="C" horiz-adv-x="612" d="M349 -12Q231 -12 170 72T108 282Q108 394 148 491T269 649T453 711Q539 711 593 669T669 565L564 518Q526 598 446 598Q379 598 328 549T254 431T230 290Q230 214 262 159T358 104Q449 104 504 192L607
147Q512 -12 349 -12Z" />
<glyph unicode="D" glyph-name="D" horiz-adv-x="668" d="M198 700H405Q542 700 612 611T682 388Q682 333 670 280T629 176T559 86T453 24T309 0H75L198 700ZM312 112Q374 112 422 136T498 201T540 288T555 383Q555 474 514 531T392 588H295L211 112H312Z" />
<glyph unicode="E" glyph-name="E" horiz-adv-x="578" d="M75 0L198 700H638L619 588H299L269 417H462L442 306H249L215 112H556L536 0H75Z" />
<glyph unicode="F" glyph-name="F" horiz-adv-x="538" d="M75 0L198 700H635L616 588H299L269 420H472L451 303H249L195 0H75Z" />
<glyph unicode="G" glyph-name="G" horiz-adv-x="651" d="M359 -12Q232 -12 170 74T108 290Q108 372 130 447T195 581T304 676T453 712Q609 712 676 570L570 513Q527 599 442 599Q343 599 285 507T226 293Q226 208 260 155T365 101Q423 101 463 135T518 228L522
248H399L419 354H668L661 317Q634 143 554 66T359 -12Z" />
<glyph unicode="H" glyph-name="H" horiz-adv-x="679" d="M75 0L198 700H318L268 417H558L608 700H728L605 0H485L538 305H249L195 0H75Z" />
<glyph unicode="I" glyph-name="I" horiz-adv-x="269" d="M75 0L198 700H318L195 0H75Z" />
<glyph unicode="J" glyph-name="J" horiz-adv-x="527" d="M255 -12Q172 -12 117 27T41 134L146 180Q177 102 251 102Q350 102 373 232L455 700H576L489 208Q477 141 451 95T389 27T321 -3T255 -12Z" />
<glyph unicode="K" glyph-name="K" horiz-adv-x="661" d="M499 0L379 349L229 191L195 0H75L198 700H318L261 375L570 700H714L468 442L626 0H499Z" />
<glyph unicode="L" glyph-name="L" horiz-adv-x="529" d="M75 0L198 700H318L215 113H538L518 0H75Z" />
<glyph unicode="M" glyph-name="M" horiz-adv-x="768" d="M380 -12L279 390Q271 427 269 440Q266 408 262 390L194 0H75L198 700H318L410 307Q418 275 422 247Q432 269 449 297L699 700H817L694 0H575L643 390L654 442Q644 420 627 391L380 -12Z" />
<glyph unicode="N" glyph-name="N" horiz-adv-x="678" d="M75 0L198 700H309L507 263Q523 229 526 213Q528 237 532 263L609 700H727L604 0H496L298 431Q287 454 276 488Q276 483 269 430L193 0H75Z" />
<glyph unicode="O" glyph-name="O" horiz-adv-x="690" d="M367 -12Q299 -12 248 13T167 81T123 177T108 290Q108 371 130 446T195 581T303 676T451 712Q535 712 594 668T679 559T705 414Q705 302 666 206T549 49T367 -12ZM367 101Q467 101 527 193T587 414Q587
490 552 544T444 599Q377 599 326 552T251 435T226 290Q226 211 260 156T367 101Z" />
<glyph unicode="P" glyph-name="P" horiz-adv-x="610" d="M75 0L198 700H478Q529 700 568 683T629 638T661 577T672 508Q672 408 605 337T416 266H242L195 0H75ZM428 377Q489 377 520 414T551 497Q551 589 466 589H299L261 377H428Z" />
<glyph unicode="Q" glyph-name="Q" horiz-adv-x="690" d="M495 -80L456 2Q414 -12 367 -12Q299 -12 248 13T167 81T123 177T108 290Q108 371 130 446T195 581T303 676T451 712Q535 712 594 668T679 559T705 414Q705 304 666 208T554 53L593 -29L495 -80ZM367 101Q385
101 406 108L368 190L468 239L503 163Q543 207 565 273T587 414Q587 490 552 544T444 599Q377 599 326 552T251 435T226 290Q226 211 260 156T367 101Z" />
<glyph unicode="R" glyph-name="R" horiz-adv-x="645" d="M686 500Q686 467 677 435T648 372T592 316T508 282L588 0H460L383 275H243L195 0H75L198 700H484Q589 700 637 642T686 500ZM441 386Q509 386 537 419T565 496Q565 536 543 562T471 588H298L263 386H441Z" />
<glyph unicode="S" glyph-name="S" horiz-adv-x="580" d="M487 527Q477 560 450 581T380 603Q330 603 301 580T272 522Q272 492 302 470T376 429T462 387T536 318T567 210Q567 108 495 48T304 -12Q215 -12 157 37T76 168L186 208Q222 101 320 101Q375 101 408
127T442 199Q442 236 412 262T340 307T254 348T181 413T151 515Q151 601 215 656T388 712Q478 712 530 669T595 564L487 527Z" />
<glyph unicode="T" glyph-name="T" horiz-adv-x="568" d="M448 587L344 0H224L328 587H141L160 700H655L636 587H448Z" />
<glyph unicode="U" glyph-name="U" horiz-adv-x="672" d="M349 -12Q246 -12 181 43T116 206Q116 247 126 304L197 700H316L243 284Q236 239 236 217Q236 103 357 103Q425 103 470 139T530 266L607 700H725L648 257Q622 108 547 48T349 -12Z" />
<glyph unicode="V" glyph-name="V" horiz-adv-x="641" d="M268 0L155 700H278L344 252Q351 207 351 168Q364 209 383 246L607 700H736L385 0H268Z" />
<glyph unicode="W" glyph-name="W" horiz-adv-x="806" d="M171 0L156 700H275L276 279Q276 268 276 250T275 228Q276 231 295 280L472 700H572L603 278Q605 246 605 228Q611 249 622 277L774 700H898L634 0H525L489 419Q487 445 487 485Q481 464 463 422L280 0H171Z" />
<glyph unicode="X" glyph-name="X" horiz-adv-x="628" d="M31 0L310 368L173 700H304L393 477L561 700H705L444 357L592 0H461L360 247L175 0H31Z" />
<glyph unicode="Y" glyph-name="Y" horiz-adv-x="641" d="M260 0L310 282L144 700H268L384 396L608 700H741L428 278L379 0H260Z" />
<glyph unicode="Z" glyph-name="Z" horiz-adv-x="611" d="M47 0L62 90L503 589H172L191 700H681L665 610L224 112H578L558 0H47Z" />
<glyph unicode="[" glyph-name="bracketleft" horiz-adv-x="364" d="M72 -130L221 712H452L433 603H314L204 -21H323L303 -130H72Z" />
<glyph unicode="\" glyph-name="backslash" horiz-adv-x="485" d="M340 -130L112 712H223L452 -130H340Z" />
<glyph unicode="]" glyph-name="bracketright" horiz-adv-x="364" d="M16 -130L35 -21H154L264 603H145L165 712H397L248 -130H16Z" />
<glyph unicode="^" glyph-name="asciicircum" horiz-adv-x="605" d="M489 346L375 564L239 346H126L335 712H424L602 346H489Z" />
<glyph unicode="_" glyph-name="underscore" horiz-adv-x="480" d="M-36 -177L-20 -83H470L454 -177H-36Z" />
<glyph unicode="`" glyph-name="grave" horiz-adv-x="415" d="M336 576L189 732H336L445 576H336Z" />
<glyph unicode="a" glyph-name="a" horiz-adv-x="523" d="M351 0L359 41Q306 -12 220 -12Q153 -12 109 28T65 137Q65 227 127 277T288 327Q352 327 403 295L408 321Q412 341 412 356Q412 422 334 422Q255 422 173 370L157 464Q252 523 351 523Q379 523 406 516T462
493T507 446T524 370Q524 352 517 313L463 0H351ZM250 89Q319 89 375 139L387 205Q339 229 286 229Q240 229 209 209T177 147Q177 121 196 105T250 89Z" />
<glyph unicode="b" glyph-name="b" horiz-adv-x="542" d="M305 -12Q266 -12 236 4T191 45L183 0H72L191 682L313 722L269 473Q315 523 387 523T506 465T554 307Q554 157 482 73T305 -12ZM296 98Q362 98 400 155T439 297Q439 352 415 383T347 414Q319 414 292 399T249
364L211 146Q237 98 296 98Z" />
<glyph unicode="c" glyph-name="c" horiz-adv-x="503" d="M275 -12Q185 -12 134 49T83 210Q83 344 155 433T346 523Q415 523 463 485T525 384L414 347Q399 414 332 414Q273 414 236 357T199 218Q199 164 220 131T282 98Q353 98 386 173L487 138Q460 68 404 28T275 -12Z" />
<glyph unicode="d" glyph-name="d" horiz-adv-x="543" d="M248 -12Q172 -12 128 46T83 201Q83 348 157 435T338 523Q410 523 444 474L481 682L602 722L475 0H363L371 45Q325 -12 248 -12ZM285 98Q348 98 388 149L425 363Q403 414 342 414Q275 414 237 358T198
214Q198 161 220 130T285 98Z" />
<glyph unicode="e" glyph-name="e" horiz-adv-x="523" d="M280 -12Q187 -12 132 45T76 205Q76 335 151 429T350 523Q440 523 489 470T539 322Q539 266 520 211H192V200Q192 149 221 120T294 90Q358 90 410 140L467 64Q389 -12 280 -12ZM209 309H428Q430 326 428
339Q418 422 338 422Q289 422 255 392T209 309Z" />
<glyph unicode="f" glyph-name="f" horiz-adv-x="331" d="M283 410L210 0H97L169 410H98L116 511H187L201 593Q213 659 252 686T341 714Q390 714 439 687L422 593Q384 610 355 610Q319 610 311 569L300 511H404L386 410H283Z" />
<glyph unicode="g" glyph-name="g" horiz-adv-x="543" d="M161 -109Q257 -103 303 -75T361 5L367 40Q324 -12 248 -12T128 45T83 198Q83 341 155 432T335 523Q407 523 443 471L450 511H566L478 19Q457 -99 390 -147T200 -204L161 -109ZM284 98Q347 98 386 150L424
363Q414 383 392 398T337 414Q272 414 235 357T197 213Q197 163 219 131T284 98Z" />
<glyph unicode="h" glyph-name="h" horiz-adv-x="553" d="M72 0L191 682L313 722L266 458Q317 523 396 523Q469 523 506 480T544 365Q544 340 536 290L484 0H371L423 290Q428 325 428 338Q428 416 356 416Q314 416 282 388T238 299L185 0H72Z" />
<glyph unicode="i" glyph-name="i" horiz-adv-x="256" d="M232 583Q208 583 192 599T176 639Q176 671 199 694T250 718Q276 718 292 702T308 662Q308 630 285 607T232 583ZM72 0L162 511H276L186 0H72Z" />
<glyph unicode="j" glyph-name="j" horiz-adv-x="258" d="M231 583Q207 583 191 599T175 639Q175 671 198 694T250 718Q276 718 292 702T308 662Q308 630 285 607T231 583ZM-38 -220L-77 -125Q-4 -114 29 -88T71 -8L162 511H276L186 1Q168 -100 120 -150T-38 -220Z" />
<glyph unicode="k" glyph-name="k" horiz-adv-x="523" d="M383 358L499 0H378L291 278L223 217L185 0H72L191 682L313 722L250 365L412 511H558L383 358Z" />
<glyph unicode="l" glyph-name="l" horiz-adv-x="264" d="M73 0L193 682L314 722L186 0H73Z" />
<glyph unicode="m" glyph-name="m" horiz-adv-x="833" d="M72 0L162 511H273L265 463Q319 523 399 523Q438 523 468 503T513 447Q575 523 674 523Q732 523 778 485T824 371Q824 347 820 326L762 0H646L700 306Q703 324 703 338Q703 379 683 397T636 415Q603 415
571 389T529 307L475 0H358L412 306Q415 324 415 338Q415 379 395 397T348 415Q315 415 282 389T239 307L185 0H72Z" />
<glyph unicode="n" glyph-name="n" horiz-adv-x="553" d="M72 0L162 511H276L267 459Q318 523 395 523Q467 523 505 479T544 362Q544 327 536 290L485 0H371L422 289Q427 312 427 337Q427 416 355 416Q315 416 281 385T238 298L185 0H72Z" />
<glyph unicode="o" glyph-name="o" horiz-adv-x="535" d="M280 -12Q182 -12 133 46T83 208Q83 341 156 432T350 523Q441 523 491 463T542 308Q542 171 470 80T280 -12ZM288 98Q350 98 389 154T428 291Q428 348 405 381T336 414Q274 414 235 357T196 222Q196 98 288 98Z" />
<glyph unicode="p" glyph-name="p" horiz-adv-x="544" d="M306 -12Q230 -12 192 41L157 -161L35 -201L161 511H275L267 469Q316 523 391 523Q462 523 507 465T553 310Q553 162 480 75T306 -12ZM300 98Q363 98 401 153T439 297Q439 351 417 382T351 414Q321 414
292 399T247 359L211 149Q236 98 300 98Z" />
<glyph unicode="q" glyph-name="q" horiz-adv-x="543" d="M243 -12Q171 -12 127 47T82 205Q82 349 155 436T333 523Q413 523 444 467L451 511H565L447 -161L325 -200L368 41Q317 -12 243 -12ZM285 98Q345 98 387 149L424 362Q416 385 394 399T344 414Q281 414
239 357T197 214Q197 159 219 129T285 98Z" />
<glyph unicode="r" glyph-name="r" horiz-adv-x="395" d="M69 0L159 511H273L263 457Q308 524 379 524Q425 524 460 489L426 382Q393 411 351 411Q313 411 279 382T233 286L183 0H69Z" />
<glyph unicode="s" glyph-name="s" horiz-adv-x="460" d="M240 -12Q179 -12 129 13T55 81L138 145Q183 86 251 86Q285 86 309 100T333 142Q333 163 311 180T256 212T191 245T136 294T113 366Q113 438 167 480T308 523Q365 523 409 499T477 442L392 379Q357 427
297 427Q264 427 244 413T223 374Q223 356 246 341T301 310T367 277T423 226T446 152Q446 76 391 32T240 -12Z" />
<glyph unicode="t" glyph-name="t" horiz-adv-x="364" d="M218 -12Q171 -12 144 14T117 84Q117 116 124 150L169 410H89L107 511H187L217 682L337 722L300 511H412L395 410H283L239 161Q233 132 233 121Q233 89 270 89Q302 89 347 110L323 10Q279 -12 218 -12Z" />
<glyph unicode="u" glyph-name="u" horiz-adv-x="553" d="M371 0L379 48Q325 -12 236 -12Q176 -12 135 29T94 147Q94 169 99 204L153 511H268L216 222Q211 191 211 174Q211 137 230 118T283 98Q329 98 363 124T407 206L461 511H574L484 0H371Z" />
<glyph unicode="v" glyph-name="v" horiz-adv-x="516" d="M205 0L114 511H228L279 197Q284 157 284 149Q287 155 295 172T307 197L468 511H587L321 0H205Z" />
<glyph unicode="w" glyph-name="w" horiz-adv-x="703" d="M165 0L117 511H226L242 228Q243 209 243 168Q251 192 267 228L388 511H491L516 228Q519 198 519 168Q522 175 529 196T541 228L654 511H766L550 0H447L417 277Q414 302 414 344Q403 311 387 276L267 0H165Z" />
<glyph unicode="x" glyph-name="x" horiz-adv-x="539" d="M31 0L251 267L131 511H255L328 360L453 511H586L378 259L505 0H382L301 167L164 0H31Z" />
<glyph unicode="y" glyph-name="y" horiz-adv-x="526" d="M96 -194L207 12L112 511H226L282 197Q287 169 289 153Q293 165 310 197L479 511H602L220 -194H96Z" />
<glyph unicode="z" glyph-name="z" horiz-adv-x="499" d="M51 0L66 87L366 408H141L159 511H535L520 426L219 103H462L444 0H51Z" />
<glyph unicode="{" glyph-name="braceleft" horiz-adv-x="357" d="M298 -130Q218 -124 172 -79T125 51Q125 80 131 115L140 165Q142 181 142 189Q142 240 106 240H83L101 343H124Q146 343 162 363T184 417L199 506Q216 603 280 657T447 712L428 607Q328 602 308
496L295 422Q281 344 252 319T170 291L169 288Q252 280 252 192Q252 183 248 151L235 81Q235 79 234 69T232 53Q232 -24 316 -28L298 -130Z" />
<glyph unicode="|" glyph-name="bar" horiz-adv-x="274" d="M140 -378V1062H257V-378H140Z" />
<glyph unicode="}" glyph-name="braceright" horiz-adv-x="357" d="M13 -130L32 -26Q132 -22 151 87L163 157Q176 228 206 260T294 293L295 297Q210 313 210 400Q210 404 210 409T212 421T213 432L224 496Q228 516 228 526Q228 606 143 610L162 712Q246 709 291
666T337 538Q337 514 330 474L321 418Q318 403 318 384Q318 342 355 342H377L358 240H339Q289 240 277 165L259 67Q241 -28 180 -79T13 -130Z" />
<glyph unicode="~" glyph-name="asciitilde" horiz-adv-x="605" d="M454 259Q410 259 353 287T273 315Q227 315 219 259H136Q138 331 172 379T273 427Q317 427 373 399T454 371Q500 371 508 427H591Q589 354 555 307T454 259Z" />
<glyph unicode="&#xa0;" glyph-name="uni00A0" horiz-adv-x="221" />
<glyph unicode="&#xa1;" glyph-name="exclamdown" horiz-adv-x="274" d="M207 369Q176 369 158 387T139 434Q139 472 164 498T226 524Q255 524 273 505T292 459Q292 421 267 395T207 369ZM47 -200L86 23L165 318H221L196 23L157 -200H47Z" />
<glyph unicode="&#xa2;" glyph-name="cent" horiz-adv-x="509" d="M200 -12L219 94Q163 115 133 170T102 302Q102 418 158 502T310 610L328 712H435L416 611Q467 599 500 565T545 477L433 440Q419 506 354 506Q293 506 256 451T218 312Q218 259 240 226T303 193Q372
193 403 268L504 234Q480 170 433 132T324 85L307 -12H200Z" />
<glyph unicode="&#xa3;" glyph-name="sterling" horiz-adv-x="570" d="M76 0L96 113Q140 132 168 180T205 277H121L140 381H201Q200 387 196 404T189 441T186 478Q186 576 253 644T451 712Q566 712 647 640L587 534Q522 602 434 602Q367 602 335 569T302 486Q302
469 310 432T321 381H483L464 277H322Q307 187 229 112H560L541 0H76Z" />
<glyph unicode="&#xa4;" glyph-name="currency" horiz-adv-x="613" d="M322 85Q252 85 203 119L126 50L59 136L141 208Q131 237 131 282Q131 378 186 459L129 532L223 615L277 547Q340 581 409 581Q481 581 526 547L603 615L671 529L591 458Q599 424 599 380Q599
283 544 205L602 133L507 50L452 120Q390 85 322 85ZM341 197Q402 197 443 244T485 360Q485 408 460 438T389 469Q329 469 288 422T246 306Q246 258 272 228T341 197Z" />
<glyph unicode="&#xa5;" glyph-name="yen" horiz-adv-x="565" d="M409 335H531L515 247H381L370 182H503L488 93H355L338 0H226L243 93H107L123 182H258L269 247H134L150 335H274L137 700H261L356 432L543 700H673L409 335Z" />
<glyph unicode="&#xa6;" glyph-name="brokenbar" horiz-adv-x="274" d="M144 366V825H261V366H144ZM144 -225V234H261V-225H144Z" />
<glyph unicode="&#xa7;" glyph-name="section" horiz-adv-x="505" d="M249 -120Q178 -120 124 -91T43 -11L139 52Q181 -10 254 -10Q351 -10 351 58Q351 75 334 92T300 118T244 147Q232 153 226 156Q199 169 183 179T147 205T119 242T110 290Q110 376 198 422Q152
461 152 531Q152 612 213 662T365 712Q428 712 475 688T546 624L452 556Q418 601 356 601Q317 601 294 586T271 543Q271 521 299 503T384 459Q444 433 477 402T510 315Q510 224 435 179Q474 137 474 72Q474 -11 414 -65T249 -120ZM357 233Q392 249 392 285Q392
310 365 328T284 367Q231 357 231 318Q231 305 238 295T269 273T304 255T357 233Z" />
<glyph unicode="&#xa8;" glyph-name="dieresis" horiz-adv-x="415" d="M250 587Q226 587 211 603T195 643Q195 674 217 697T269 720Q295 720 310 705T325 665Q325 633 303 610T250 587ZM428 587Q403 587 388 603T372 643Q372 675 394 697T447 720Q472 720 487
705T503 665Q503 634 480 611T428 587Z" />
<glyph unicode="&#xa9;" glyph-name="copyright" horiz-adv-x="810" d="M617 -12T463 -12T205 92T101 350T205 608T463 712T721 608T825 350T721 92ZM463 66Q583 66 662 147T741 350Q741 472 662 553T463 634Q342 634 263 553T184 350Q184 229 263 148T463 66ZM466
134Q374 134 330 195T285 351Q285 441 331 505T468 569Q576 569 619 472L535 433Q511 480 466 480T401 443T381 351Q381 296 402 260T467 223Q518 223 537 272L620 242Q576 134 466 134Z" />
<glyph unicode="&#xaa;" glyph-name="ordfeminine" horiz-adv-x="421" d="M327 283L332 313Q292 273 230 273Q179 273 144 305T109 395Q109 471 160 512T279 553Q335 553 371 532L374 550Q377 568 377 575Q377 627 313 627Q250 627 192 586L178 666Q249 712 339
712Q393 712 432 683T471 591Q471 570 466 547L420 283H327ZM253 357Q301 357 347 395L357 452Q321 471 280 471Q246 471 222 454T198 405Q198 384 213 371T253 357Z" />
<glyph unicode="&#xab;" glyph-name="guillemotleft" horiz-adv-x="519" d="M175 0L74 256L265 511H384L191 251L291 0H175ZM385 0L284 256L475 511H595L401 251L501 0H385Z" />
<glyph unicode="&#xac;" glyph-name="logicalnot" horiz-adv-x="605" d="M470 165V365H134V476H586V165H470Z" />
<glyph unicode="&#xad;" glyph-name="uni00AD" horiz-adv-x="387" d="M115 241L134 352H377L357 241H115Z" />
<glyph unicode="&#xae;" glyph-name="registered" horiz-adv-x="810" d="M617 -12T463 -12T205 92T101 350T205 608T463 712T721 608T825 350T721 92ZM343 67T463 67T661 148T740 350T662 552T463 633T264 552T185 350T264 148ZM316 139V561H488Q562 561 594 525T627
432Q627 393 606 360T540 312L636 139H538L452 303H404V139H316ZM404 385H485Q536 385 536 432T485 479H404V385Z" />
<glyph unicode="&#xaf;" glyph-name="overscore" horiz-adv-x="415" d="M191 592L207 687H524L508 592H191Z" />
<glyph unicode="&#xb0;" glyph-name="degree" horiz-adv-x="390" d="M294 442Q218 442 174 489T129 611Q129 694 185 749T320 805Q396 805 440 758T485 636Q485 553 429 498T294 442ZM297 549Q330 549 353 573T377 634Q377 662 361 680T317 698Q284 698 261 674T237
614Q237 586 253 568T297 549Z" />
<glyph unicode="&#xb1;" glyph-name="plusminus" horiz-adv-x="605" d="M419 346V195H304V346H136V457H304V608H419V457H588V346H419ZM136 0V111H588V0H136Z" />
<glyph unicode="&#xb2;" glyph-name="uni00B2" horiz-adv-x="348" d="M101 444Q117 528 156 578T284 680Q346 716 346 748Q346 764 336 774T306 785Q260 785 237 731L157 754Q182 809 225 841T325 873T414 840T447 759Q447 711 421 679T323 605Q255 564 237 534H405L389
444H101Z" />
<glyph unicode="&#xb3;" glyph-name="uni00B3" horiz-adv-x="337" d="M201 580Q208 522 258 522Q284 522 299 537T315 575Q315 595 303 607T269 620H232L247 701H278Q304 701 318 716T332 752Q332 767 323 777T296 787Q260 787 235 744L162 774Q217 873 320 873Q369
873 399 845T429 774Q429 738 409 709T359 664Q381 655 395 632T410 577Q410 516 366 476T252 436Q132 436 112 554L201 580Z" />
<glyph unicode="&#xb4;" glyph-name="acute" horiz-adv-x="415" d="M339 576H231L395 732H541L339 576Z" />
<glyph unicode="&#xb5;" glyph-name="uni00B5" horiz-adv-x="553" d="M371 0L380 51Q335 -12 261 -12Q207 -12 185 24L152 -161L31 -201L156 511H268L217 221Q212 194 212 173Q212 98 287 98Q331 98 364 126T408 215L461 511H574L484 0H371Z" />
<glyph unicode="&#xb6;" glyph-name="paragraph" horiz-adv-x="611" d="M201 -200L284 275Q194 279 148 331T101 459Q101 500 114 540T156 617T237 677T358 700H660L526 -62L406 -115L529 589H452L322 -147L201 -200Z" />
<glyph unicode="&#xb7;" glyph-name="middot" horiz-adv-x="220" d="M161 272Q132 272 114 291T96 337Q96 375 121 401T181 427Q211 427 229 408T248 362Q248 324 223 298T161 272Z" />
<glyph unicode="&#xb8;" glyph-name="cedilla" horiz-adv-x="415" d="M223 -242T158 -242T64 -198L122 -159Q133 -177 158 -177Q182 -177 197 -164T213 -130Q213 -94 170 -94Q146 -94 128 -106L110 -77L194 10H255L209 -49Q256 -49 279 -69T302 -123Q302 -175 263 -208Z" />
<glyph unicode="&#xb9;" glyph-name="uni00B9" horiz-adv-x="202" d="M136 444L192 758H144L157 831Q210 831 232 866H304L229 444H136Z" />
<glyph unicode="&#xba;" glyph-name="ordmasculine" horiz-adv-x="440" d="M272 273Q202 273 160 320T117 449Q117 568 179 640T343 712Q413 712 455 664T497 535Q497 416 436 345T272 273ZM285 366Q338 366 369 409T401 520Q401 567 383 593T330 619Q278 619
246 576T213 466Q213 418 231 392T285 366Z" />
<glyph unicode="&#xbb;" glyph-name="guillemotright" horiz-adv-x="519" d="M10 0L206 261L109 511H224L325 256L134 0H10ZM220 0L416 261L319 511H434L535 256L344 0H220Z" />
<glyph unicode="&#xbc;" glyph-name="onequarter" horiz-adv-x="700" d="M12 -12L599 712H708L121 -12H12ZM111 283L166 597H118L131 670Q182 670 206 705H278L204 283H111ZM522 0L537 87H339L350 149L600 422H683L639 170H692L677 87H624L609 0H522ZM551 170L575
300L457 170H551Z" />
<glyph unicode="&#xbd;" glyph-name="onehalf" horiz-adv-x="743" d="M12 -12L599 712H708L121 -12H12ZM111 283L166 597H118L131 670Q182 670 206 705H278L204 283H111ZM459 310Q484 365 527 397T627 429Q682 429 714 399T747 321Q747 288 739 264T709 221T669
189T612 157Q551 125 530 90H707L691 0H403Q418 87 465 142T586 236Q617 253 632 268T648 306Q648 321 639 331T609 341Q563 341 538 287L459 310Z" />
<glyph unicode="&#xbe;" glyph-name="threequarters" horiz-adv-x="824" d="M212 275Q157 275 124 306T82 393L172 418Q180 361 228 361Q255 361 271 377T287 419Q287 459 239 459H203L218 540H250Q277 540 290 555T304 591Q304 606 295 616T268 626Q232 626 207
583L133 613Q159 659 201 685T292 712Q342 712 371 684T400 613Q400 577 380 547T330 503Q381 483 381 424Q381 359 335 317T212 275ZM135 -12L722 712H832L245 -12H135ZM646 0L661 87H463L474 149L724 422H807L763 170H816L801 87H748L733 0H646ZM675 170L699
300L581 170H675Z" />
<glyph unicode="&#xbf;" glyph-name="questiondown" horiz-adv-x="483" d="M320 369Q289 369 271 387T253 434Q253 472 278 498T340 524Q369 524 387 505T405 459Q405 421 380 395T320 369ZM206 -200Q125 -200 78 -152T31 -30Q31 20 50 58T99 120T159 167T215
222T248 294L253 323H364L358 293Q347 239 321 198T266 132T208 87T162 41T144 -15Q144 -47 165 -68T225 -90Q278 -90 314 -57T361 38H471Q452 -73 379 -136T206 -200Z" />
<glyph unicode="&#xc0;" glyph-name="Agrave" horiz-adv-x="673" d="M424 753L277 909H424L533 753H424ZM30 0L404 700H517L646 0H525L498 154H238L157 0H30ZM293 262H480L443 478Q442 482 439 505T434 536Q421 504 407 480L293 262Z" />
<glyph unicode="&#xc1;" glyph-name="Aacute" horiz-adv-x="673" d="M513 753H405L569 909H715L513 753ZM30 0L404 700H517L646 0H525L498 154H238L157 0H30ZM293 262H480L443 478Q442 482 439 505T434 536Q421 504 407 480L293 262Z" />
<glyph unicode="&#xc2;" glyph-name="Acircumflex" horiz-adv-x="673" d="M560 753L485 830L383 753H282L444 909H554L662 753H560ZM30 0L404 700H517L646 0H525L498 154H238L157 0H30ZM293 262H480L443 478Q442 482 439 505T434 536Q421 504 407 480L293 262Z" />
<glyph unicode="&#xc3;" glyph-name="Atilde" horiz-adv-x="673" d="M553 765Q516 765 470 788T403 812Q360 812 350 769H297Q319 900 425 900Q462 900 508 877T575 853Q617 853 628 896H681Q657 765 553 765ZM30 0L404 700H517L646 0H525L498 154H238L157 0H30ZM293
262H480L443 478Q442 482 439 505T434 536Q421 504 407 480L293 262Z" />
<glyph unicode="&#xc4;" glyph-name="Adieresis" horiz-adv-x="673" d="M386 764Q362 764 347 780T331 820Q331 852 353 874T405 897Q431 897 446 882T461 842Q461 810 439 787T386 764ZM564 764Q539 764 524 780T508 820Q508 852 530 874T583 897Q608 897 623
882T639 842Q639 810 616 787T564 764ZM30 0L404 700H517L646 0H525L498 154H238L157 0H30ZM293 262H480L443 478Q442 482 439 505T434 536Q421 504 407 480L293 262Z" />
<glyph unicode="&#xc5;" glyph-name="Aring" horiz-adv-x="673" d="M527 644L646 0H525L498 154H238L157 0H30L372 641Q341 674 341 719Q341 778 385 820T486 862Q529 862 557 832T586 758Q586 688 527 644ZM472 783Q452 783 437 769T422 731Q422 714 431 704T456
693Q476 693 491 708T506 747Q506 763 497 773T472 783ZM293 262H480L443 478Q442 482 439 505T434 536Q421 504 407 480L293 262Z" />
<glyph unicode="&#xc6;" glyph-name="AE" horiz-adv-x="837" d="M-30 0L483 700H897L878 588H597L567 417H724L703 306H547L514 112H815L795 0H376L404 154H212L100 0H-30ZM291 262H422L467 512Q457 493 433 459L291 262Z" />
<glyph unicode="&#xc7;" glyph-name="Ccedilla" horiz-adv-x="612" d="M350 -242T285 -242T192 -200L251 -161Q259 -177 285 -177Q310 -177 325 -164T341 -130Q341 -114 329 -104T298 -94Q276 -94 256 -106L238 -77L304 -8Q210 6 159 84T108 278Q108 388 146 484T265
646T454 711Q618 711 669 565L561 517Q525 598 446 598Q378 598 327 548T253 428T230 287Q230 209 262 157T355 104Q450 104 503 192L606 148Q518 -2 366 -11L338 -49Q384 -49 407 -69T431 -122Q431 -174 391 -208Z" />
<glyph unicode="&#xc8;" glyph-name="Egrave" horiz-adv-x="578" d="M381 748L234 904H381L490 748H381ZM75 0L198 700H638L619 588H299L269 417H462L442 306H249L215 112H556L536 0H75Z" />
<glyph unicode="&#xc9;" glyph-name="Eacute" horiz-adv-x="578" d="M470 748H362L526 904H672L470 748ZM75 0L198 700H638L619 588H299L269 417H462L442 306H249L215 112H556L536 0H75Z" />
<glyph unicode="&#xca;" glyph-name="Ecircumflex" horiz-adv-x="578" d="M517 748L442 825L340 748H239L401 904H511L619 748H517ZM75 0L198 700H638L619 588H299L269 417H462L442 306H249L215 112H556L536 0H75Z" />
<glyph unicode="&#xcb;" glyph-name="Edieresis" horiz-adv-x="578" d="M343 759Q319 759 304 775T288 815Q288 846 311 869T362 892Q388 892 403 877T418 837Q418 805 396 782T343 759ZM521 759Q496 759 481 775T465 815Q465 847 487 869T540 892Q565 892 580
877T596 837Q596 806 573 783T521 759ZM75 0L198 700H638L619 588H299L269 417H462L442 306H249L215 112H556L536 0H75Z" />
<glyph unicode="&#xcc;" glyph-name="Igrave" horiz-adv-x="269" d="M219 753L72 909H219L328 753H219ZM75 0L198 700H318L195 0H75Z" />
<glyph unicode="&#xcd;" glyph-name="Iacute" horiz-adv-x="269" d="M308 753H200L364 909H510L308 753ZM75 0L198 700H318L195 0H75Z" />
<glyph unicode="&#xce;" glyph-name="Icircumflex" horiz-adv-x="269" d="M355 753L280 830L178 753H77L239 909H349L457 753H355ZM75 0L198 700H318L195 0H75Z" />
<glyph unicode="&#xcf;" glyph-name="Idieresis" horiz-adv-x="269" d="M181 764Q157 764 142 780T126 820Q126 852 149 874T200 897Q226 897 241 882T256 842Q256 810 234 787T181 764ZM359 764Q334 764 319 780T303 820Q303 852 325 874T378 897Q403 897 418
882T434 842Q434 810 411 787T359 764ZM75 0L198 700H318L195 0H75Z" />
<glyph unicode="&#xd0;" glyph-name="Eth" horiz-adv-x="671" d="M78 0L130 295H69L89 405H149L201 700H408Q544 700 614 612T685 388Q685 319 665 254T603 131T486 36T312 0H78ZM214 112H315Q377 112 425 136T502 201T544 288T558 383Q558 474 517 531T395 588H298L266
405H406L386 295H247L214 112Z" />
<glyph unicode="&#xd1;" glyph-name="Ntilde" horiz-adv-x="678" d="M548 762Q512 762 466 785T398 809Q355 809 345 766H292Q314 897 420 897Q457 897 502 874T570 850Q612 850 623 893H676Q652 762 548 762ZM75 0L198 700H309L507 263Q523 229 526 213Q528 237
532 263L609 700H727L604 0H496L298 431Q287 454 276 488Q276 483 269 430L193 0H75Z" />
<glyph unicode="&#xd2;" glyph-name="Ograve" horiz-adv-x="690" d="M409 753L262 909H409L518 753H409ZM367 -12Q299 -12 248 13T167 81T123 177T108 290Q108 371 130 446T195 581T303 676T451 712Q535 712 594 668T679 559T705 414Q705 302 666 206T549 49T367
-12ZM367 101Q467 101 527 193T587 414Q587 490 552 544T444 599Q377 599 326 552T251 435T226 290Q226 211 260 156T367 101Z" />
<glyph unicode="&#xd3;" glyph-name="Oacute" horiz-adv-x="690" d="M498 753H390L554 909H700L498 753ZM367 -12Q299 -12 248 13T167 81T123 177T108 290Q108 371 130 446T195 581T303 676T451 712Q535 712 594 668T679 559T705 414Q705 302 666 206T549 49T367
-12ZM367 101Q467 101 527 193T587 414Q587 490 552 544T444 599Q377 599 326 552T251 435T226 290Q226 211 260 156T367 101Z" />
<glyph unicode="&#xd4;" glyph-name="Ocircumflex" horiz-adv-x="690" d="M545 753L470 830L368 753H267L429 909H539L647 753H545ZM367 -12Q299 -12 248 13T167 81T123 177T108 290Q108 371 130 446T195 581T303 676T451 712Q535 712 594 668T679 559T705 414Q705
302 666 206T549 49T367 -12ZM367 101Q467 101 527 193T587 414Q587 490 552 544T444 599Q377 599 326 552T251 435T226 290Q226 211 260 156T367 101Z" />
<glyph unicode="&#xd5;" glyph-name="Otilde" horiz-adv-x="690" d="M538 765Q502 765 456 788T388 812Q345 812 335 769H282Q304 900 410 900Q446 900 492 877T560 853Q602 853 613 896H666Q642 765 538 765ZM367 -12Q299 -12 248 13T167 81T123 177T108 290Q108
371 130 446T195 581T303 676T451 712Q535 712 594 668T679 559T705 414Q705 302 666 206T549 49T367 -12ZM367 101Q467 101 527 193T587 414Q587 490 552 544T444 599Q377 599 326 552T251 435T226 290Q226 211 260 156T367 101Z" />
<glyph unicode="&#xd6;" glyph-name="Odieresis" horiz-adv-x="690" d="M371 764Q347 764 332 780T316 820Q316 852 339 874T390 897Q416 897 431 882T446 842Q446 810 424 787T371 764ZM549 764Q524 764 509 780T493 820Q493 852 515 874T568 897Q593 897 608
882T624 842Q624 810 601 787T549 764ZM367 -12Q299 -12 248 13T167 81T123 177T108 290Q108 371 130 446T195 581T303 676T451 712Q535 712 594 668T679 559T705 414Q705 302 666 206T549 49T367 -12ZM367 101Q467 101 527 193T587 414Q587 490 552 544T444 599Q377
599 326 552T251 435T226 290Q226 211 260 156T367 101Z" />
<glyph unicode="&#xd7;" glyph-name="multiply" horiz-adv-x="605" d="M362 262L211 110L128 194L279 344L129 495L209 575L360 425L510 576L594 493L442 342L593 192L512 111L362 262Z" />
<glyph unicode="&#xd8;" glyph-name="Oslash" horiz-adv-x="690" d="M51 -12L148 106Q108 179 108 289T146 493T264 650T453 712Q545 712 605 662L647 712H763L664 592Q705 516 705 414Q705 302 666 206T548 49T365 -12Q269 -12 207 37L167 -12H51ZM235 211L529
569Q496 599 443 599Q376 599 325 552T250 435T226 290Q226 241 235 211ZM367 101Q434 101 485 146T562 261T587 413Q587 450 577 487L283 130Q317 101 367 101Z" />
<glyph unicode="&#xd9;" glyph-name="Ugrave" horiz-adv-x="672" d="M415 750L268 906H415L524 750H415ZM349 -12Q246 -12 181 43T116 206Q116 247 126 304L197 700H316L243 284Q236 239 236 217Q236 103 357 103Q425 103 470 139T530 266L607 700H725L648 257Q622
108 547 48T349 -12Z" />
<glyph unicode="&#xda;" glyph-name="Uacute" horiz-adv-x="672" d="M504 750H396L560 906H706L504 750ZM349 -12Q246 -12 181 43T116 206Q116 247 126 304L197 700H316L243 284Q236 239 236 217Q236 103 357 103Q425 103 470 139T530 266L607 700H725L648 257Q622
108 547 48T349 -12Z" />
<glyph unicode="&#xdb;" glyph-name="Ucircumflex" horiz-adv-x="672" d="M551 750L476 827L374 750H273L435 906H545L653 750H551ZM349 -12Q246 -12 181 43T116 206Q116 247 126 304L197 700H316L243 284Q236 239 236 217Q236 103 357 103Q425 103 470 139T530
266L607 700H725L648 257Q622 108 547 48T349 -12Z" />
<glyph unicode="&#xdc;" glyph-name="Udieresis" horiz-adv-x="672" d="M377 761Q353 761 338 777T322 817Q322 848 345 871T396 894Q422 894 437 879T452 839Q452 807 430 784T377 761ZM555 761Q530 761 515 777T499 817Q499 849 521 871T574 894Q599 894 614
879T630 839Q630 808 607 785T555 761ZM349 -12Q246 -12 181 43T116 206Q116 247 126 304L197 700H316L243 284Q236 239 236 217Q236 103 357 103Q425 103 470 139T530 266L607 700H725L648 257Q622 108 547 48T349 -12Z" />
<glyph unicode="&#xdd;" glyph-name="Yacute" horiz-adv-x="641" d="M489 750H381L545 906H691L489 750ZM260 0L310 282L144 700H268L384 396L608 700H741L428 278L379 0H260Z" />
<glyph unicode="&#xde;" glyph-name="Thorn" horiz-adv-x="610" d="M75 0L198 700H318L296 573H457Q509 573 548 556T608 510T640 449T650 382Q650 282 582 211T391 139H219L194 0H75ZM407 251Q467 251 498 288T529 368Q529 461 444 461H276L239 251H407Z" />
<glyph unicode="&#xdf;" glyph-name="germandbls" horiz-adv-x="543" d="M27 -201L146 477Q168 599 235 655T391 712Q468 712 517 669T566 552Q566 498 535 452T445 383Q492 366 519 325T546 226Q546 122 477 55T310 -12Q241 -12 209 9L274 94Q290 88 314 88Q361
88 396 125T432 224Q432 270 407 300T328 330H301L319 430H346Q392 430 423 458T455 535Q455 569 435 590T379 612Q281 612 256 474L147 -146L27 -201Z" />
<glyph unicode="&#xe0;" glyph-name="agrave" horiz-adv-x="523" d="M314 580L167 736H314L423 580H314ZM351 0L359 41Q306 -12 220 -12Q153 -12 109 28T65 137Q65 227 127 277T288 327Q352 327 403 295L408 321Q412 341 412 356Q412 422 334 422Q255 422 173
370L157 464Q252 523 351 523Q379 523 406 516T462 493T507 446T524 370Q524 352 517 313L463 0H351ZM250 89Q319 89 375 139L387 205Q339 229 286 229Q240 229 209 209T177 147Q177 121 196 105T250 89Z" />
<glyph unicode="&#xe1;" glyph-name="aacute" horiz-adv-x="523" d="M403 580H295L459 736H605L403 580ZM351 0L359 41Q306 -12 220 -12Q153 -12 109 28T65 137Q65 227 127 277T288 327Q352 327 403 295L408 321Q412 341 412 356Q412 422 334 422Q255 422 173
370L157 464Q252 523 351 523Q379 523 406 516T462 493T507 446T524 370Q524 352 517 313L463 0H351ZM250 89Q319 89 375 139L387 205Q339 229 286 229Q240 229 209 209T177 147Q177 121 196 105T250 89Z" />
<glyph unicode="&#xe2;" glyph-name="acircumflex" horiz-adv-x="523" d="M450 580L375 657L273 580H172L334 736H444L552 580H450ZM351 0L359 41Q306 -12 220 -12Q153 -12 109 28T65 137Q65 227 127 277T288 327Q352 327 403 295L408 321Q412 341 412 356Q412
422 334 422Q255 422 173 370L157 464Q252 523 351 523Q379 523 406 516T462 493T507 446T524 370Q524 352 517 313L463 0H351ZM250 89Q319 89 375 139L387 205Q339 229 286 229Q240 229 209 209T177 147Q177 121 196 105T250 89Z" />
<glyph unicode="&#xe3;" glyph-name="atilde" horiz-adv-x="523" d="M443 592Q406 592 360 615T293 639Q250 639 240 596H187Q209 727 315 727Q352 727 398 704T465 680Q507 680 518 723H571Q547 592 443 592ZM351 0L359 41Q306 -12 220 -12Q153 -12 109 28T65
137Q65 227 127 277T288 327Q352 327 403 295L408 321Q412 341 412 356Q412 422 334 422Q255 422 173 370L157 464Q252 523 351 523Q379 523 406 516T462 493T507 446T524 370Q524 352 517 313L463 0H351ZM250 89Q319 89 375 139L387 205Q339 229 286 229Q240 229
209 209T177 147Q177 121 196 105T250 89Z" />
<glyph unicode="&#xe4;" glyph-name="adieresis" horiz-adv-x="523" d="M276 591Q252 591 237 607T221 647Q221 678 243 701T295 724Q321 724 336 709T351 669Q351 637 329 614T276 591ZM454 591Q429 591 414 607T398 647Q398 679 420 701T473 724Q498 724 513
709T529 669Q529 638 506 615T454 591ZM351 0L359 41Q306 -12 220 -12Q153 -12 109 28T65 137Q65 227 127 277T288 327Q352 327 403 295L408 321Q412 341 412 356Q412 422 334 422Q255 422 173 370L157 464Q252 523 351 523Q379 523 406 516T462 493T507 446T524
370Q524 352 517 313L463 0H351ZM250 89Q319 89 375 139L387 205Q339 229 286 229Q240 229 209 209T177 147Q177 121 196 105T250 89Z" />
<glyph unicode="&#xe5;" glyph-name="aring" horiz-adv-x="523" d="M362 569Q318 569 290 600T261 675Q261 733 305 775T406 818Q449 818 477 788T506 713Q506 655 462 612T362 569ZM376 649Q396 649 411 664T426 702Q426 718 417 728T392 739Q372 739 357 724T342
686Q342 670 351 660T376 649ZM351 0L359 41Q306 -12 220 -12Q153 -12 109 28T65 137Q65 227 127 277T288 327Q352 327 403 295L408 321Q412 341 412 356Q412 422 334 422Q255 422 173 370L157 464Q252 523 351 523Q379 523 406 516T462 493T507 446T524 370Q524
352 517 313L463 0H351ZM250 89Q319 89 375 139L387 205Q339 229 286 229Q240 229 209 209T177 147Q177 121 196 105T250 89Z" />
<glyph unicode="&#xe6;" glyph-name="ae" horiz-adv-x="814" d="M211 -12Q149 -12 108 27T66 137Q66 230 129 279T283 329Q344 329 390 301L395 330Q397 350 397 356Q397 388 378 405T325 422Q245 422 169 370L154 464Q245 523 343 523Q383 523 418 505T474 454Q537
523 645 523Q731 523 780 473T830 325Q830 270 811 211H484Q483 206 483 199Q483 148 511 119T586 90Q650 90 701 140L758 64Q680 -12 571 -12Q449 -12 403 78Q319 -12 211 -12ZM499 309H718Q720 326 719 337Q715 379 691 400T627 422Q581 422 547 394T499 309ZM249
89Q309 89 361 141L367 174Q368 179 369 189T372 206Q335 229 284 229Q238 229 208 209T177 147Q177 121 195 105T249 89Z" />
<glyph unicode="&#xe7;" glyph-name="ccedilla" horiz-adv-x="502" d="M205 -242Q139 -242 113 -200L172 -161Q180 -177 206 -177Q231 -177 246 -164T262 -129Q262 -114 250 -104T218 -94Q195 -94 177 -106L159 -77L227 -7Q160 7 122 64T83 205Q83 345 157 434T349
523Q418 523 464 485T524 384L413 347Q399 414 334 414Q273 414 236 357T198 218Q198 164 219 131T280 98Q351 98 385 173L486 138Q457 63 402 28T287 -12L258 -49Q305 -49 328 -69T351 -122Q351 -174 311 -208T205 -242Z" />
<glyph unicode="&#xe8;" glyph-name="egrave" horiz-adv-x="523" d="M314 580L167 736H314L423 580H314ZM280 -12Q187 -12 132 45T76 205Q76 335 151 429T350 523Q440 523 489 470T539 322Q539 266 520 211H192V200Q192 149 221 120T294 90Q358 90 410 140L467
64Q389 -12 280 -12ZM209 309H428Q430 326 428 339Q418 422 338 422Q289 422 255 392T209 309Z" />
<glyph unicode="&#xe9;" glyph-name="eacute" horiz-adv-x="523" d="M403 580H295L459 736H605L403 580ZM280 -12Q187 -12 132 45T76 205Q76 335 151 429T350 523Q440 523 489 470T539 322Q539 266 520 211H192V200Q192 149 221 120T294 90Q358 90 410 140L467
64Q389 -12 280 -12ZM209 309H428Q430 326 428 339Q418 422 338 422Q289 422 255 392T209 309Z" />
<glyph unicode="&#xea;" glyph-name="ecircumflex" horiz-adv-x="523" d="M450 580L375 657L273 580H172L334 736H444L552 580H450ZM280 -12Q187 -12 132 45T76 205Q76 335 151 429T350 523Q440 523 489 470T539 322Q539 266 520 211H192V200Q192 149 221 120T294
90Q358 90 410 140L467 64Q389 -12 280 -12ZM209 309H428Q430 326 428 339Q418 422 338 422Q289 422 255 392T209 309Z" />
<glyph unicode="&#xeb;" glyph-name="edieresis" horiz-adv-x="523" d="M276 591Q252 591 237 607T221 647Q221 678 243 701T295 724Q321 724 336 709T351 669Q351 637 329 614T276 591ZM454 591Q429 591 414 607T398 647Q398 679 420 701T473 724Q498 724 513
709T529 669Q529 638 506 615T454 591ZM280 -12Q187 -12 132 45T76 205Q76 335 151 429T350 523Q440 523 489 470T539 322Q539 266 520 211H192V200Q192 149 221 120T294 90Q358 90 410 140L467 64Q389 -12 280 -12ZM209 309H428Q430 326 428 339Q418 422 338 422Q289
422 255 392T209 309Z" />
<glyph unicode="&#xec;" glyph-name="igrave" horiz-adv-x="256" d="M182 575L35 731H182L291 575H182ZM72 0L162 511H275L185 0H72Z" />
<glyph unicode="&#xed;" glyph-name="iacute" horiz-adv-x="256" d="M271 575H163L327 731H473L271 575ZM72 0L162 511H275L185 0H72Z" />
<glyph unicode="&#xee;" glyph-name="icircumflex" horiz-adv-x="256" d="M318 575L243 652L141 575H40L202 731H312L420 575H318ZM72 0L162 511H275L185 0H72Z" />
<glyph unicode="&#xef;" glyph-name="idieresis" horiz-adv-x="256" d="M144 586Q120 586 105 602T89 642Q89 674 111 696T163 719Q189 719 204 704T219 664Q219 632 197 609T144 586ZM322 586Q297 586 282 602T266 642Q266 674 288 696T341 719Q366 719 381 704T397
664Q397 632 374 609T322 586ZM72 0L162 511H275L185 0H72Z" />
<glyph unicode="&#xf0;" glyph-name="eth" horiz-adv-x="535" d="M271 -12Q183 -12 131 43T78 189Q78 301 151 378T329 456Q402 456 437 412Q432 503 387 551L317 488L268 547L323 598Q281 617 230 619L248 712Q340 710 406 673L472 734L521 674L465 623Q547 532
547 349Q547 187 475 88T271 -12ZM285 98Q338 98 378 140T419 244Q419 290 395 318T328 347Q273 347 234 305T194 199Q194 154 219 126T285 98Z" />
<glyph unicode="&#xf1;" glyph-name="ntilde" horiz-adv-x="553" d="M464 592Q428 592 382 615T314 639Q271 639 261 596H208Q230 727 336 727Q372 727 418 704T486 680Q528 680 539 723H592Q568 592 464 592ZM72 0L162 511H276L267 459Q318 523 395 523Q467 523
505 479T544 362Q544 327 536 290L485 0H371L422 289Q427 312 427 337Q427 416 355 416Q315 416 281 385T238 298L185 0H72Z" />
<glyph unicode="&#xf2;" glyph-name="ograve" horiz-adv-x="535" d="M314 580L167 736H314L423 580H314ZM280 -12Q182 -12 133 46T83 208Q83 341 156 432T350 523Q441 523 491 463T542 308Q542 171 470 80T280 -12ZM288 98Q350 98 389 154T428 291Q428 348 405
381T336 414Q274 414 235 357T196 222Q196 98 288 98Z" />
<glyph unicode="&#xf3;" glyph-name="oacute" horiz-adv-x="535" d="M403 580H295L459 736H605L403 580ZM280 -12Q182 -12 133 46T83 208Q83 341 156 432T350 523Q441 523 491 463T542 308Q542 171 470 80T280 -12ZM288 98Q350 98 389 154T428 291Q428 348 405
381T336 414Q274 414 235 357T196 222Q196 98 288 98Z" />
<glyph unicode="&#xf4;" glyph-name="ocircumflex" horiz-adv-x="535" d="M450 580L375 657L273 580H172L334 736H444L552 580H450ZM280 -12Q182 -12 133 46T83 208Q83 341 156 432T350 523Q441 523 491 463T542 308Q542 171 470 80T280 -12ZM288 98Q350 98 389
154T428 291Q428 348 405 381T336 414Q274 414 235 357T196 222Q196 98 288 98Z" />
<glyph unicode="&#xf5;" glyph-name="otilde" horiz-adv-x="535" d="M443 592Q406 592 360 615T293 639Q250 639 240 596H187Q209 727 315 727Q352 727 398 704T465 680Q507 680 518 723H571Q547 592 443 592ZM280 -12Q182 -12 133 46T83 208Q83 341 156 432T350
523Q441 523 491 463T542 308Q542 171 470 80T280 -12ZM288 98Q350 98 389 154T428 291Q428 348 405 381T336 414Q274 414 235 357T196 222Q196 98 288 98Z" />
<glyph unicode="&#xf6;" glyph-name="odieresis" horiz-adv-x="535" d="M276 591Q252 591 237 607T221 647Q221 678 243 701T295 724Q321 724 336 709T351 669Q351 637 329 614T276 591ZM454 591Q429 591 414 607T398 647Q398 679 420 701T473 724Q498 724 513
709T529 669Q529 638 506 615T454 591ZM280 -12Q182 -12 133 46T83 208Q83 341 156 432T350 523Q441 523 491 463T542 308Q542 171 470 80T280 -12ZM288 98Q350 98 389 154T428 291Q428 348 405 381T336 414Q274 414 235 357T196 222Q196 98 288 98Z" />
<glyph unicode="&#xf7;" glyph-name="divide" horiz-adv-x="605" d="M389 460T359 460T309 480T289 529T309 578T359 598T409 578T430 529T410 480ZM134 287V399H586V287H134ZM389 88T359 88T309 108T289 157T309 206T359 226T409 206T430 157T410 108Z" />
<glyph unicode="&#xf8;" glyph-name="oslash" horiz-adv-x="535" d="M43 -12L113 73Q83 127 83 208Q83 341 156 432T350 523Q410 523 456 492L482 523H582L510 435Q542 382 542 308Q542 171 470 80T280 -12Q211 -12 167 17L143 -12H43ZM200 180L382 400Q362 414
336 414Q274 414 235 357T196 222Q196 197 200 180ZM288 98Q350 98 389 154T428 291Q428 314 424 330L244 111Q262 98 288 98Z" />
<glyph unicode="&#xf9;" glyph-name="ugrave" horiz-adv-x="553" d="M324 580L177 736H324L433 580H324ZM371 0L379 48Q325 -12 236 -12Q176 -12 135 29T94 147Q94 169 99 204L153 511H268L216 222Q211 191 211 174Q211 137 230 118T283 98Q329 98 363 124T407
206L461 511H574L484 0H371Z" />
<glyph unicode="&#xfa;" glyph-name="uacute" horiz-adv-x="553" d="M413 580H305L469 736H615L413 580ZM371 0L379 48Q325 -12 236 -12Q176 -12 135 29T94 147Q94 169 99 204L153 511H268L216 222Q211 191 211 174Q211 137 230 118T283 98Q329 98 363 124T407
206L461 511H574L484 0H371Z" />
<glyph unicode="&#xfb;" glyph-name="ucircumflex" horiz-adv-x="553" d="M460 580L385 657L283 580H182L344 736H454L562 580H460ZM371 0L379 48Q325 -12 236 -12Q176 -12 135 29T94 147Q94 169 99 204L153 511H268L216 222Q211 191 211 174Q211 137 230 118T283
98Q329 98 363 124T407 206L461 511H574L484 0H371Z" />
<glyph unicode="&#xfc;" glyph-name="udieresis" horiz-adv-x="553" d="M286 591Q262 591 247 607T231 647Q231 678 253 701T305 724Q331 724 346 709T361 669Q361 637 339 614T286 591ZM464 591Q439 591 424 607T408 647Q408 679 430 701T483 724Q508 724 523
709T539 669Q539 638 516 615T464 591ZM371 0L379 48Q325 -12 236 -12Q176 -12 135 29T94 147Q94 169 99 204L153 511H268L216 222Q211 191 211 174Q211 137 230 118T283 98Q329 98 363 124T407 206L461 511H574L484 0H371Z" />
<glyph unicode="&#xfd;" glyph-name="yacute" horiz-adv-x="526" d="M405 580H297L461 736H607L405 580ZM96 -194L207 12L112 511H226L282 197Q287 169 289 153Q293 165 310 197L479 511H602L220 -194H96Z" />
<glyph unicode="&#xfe;" glyph-name="thorn" horiz-adv-x="544" d="M301 -12Q227 -12 192 41L157 -160L36 -201L191 679L312 720L267 469Q319 523 391 523Q462 523 507 466T553 312Q553 162 479 75T301 -12ZM298 98Q363 98 401 153T439 299Q439 352 417 383T350
414Q322 414 293 399T247 359L211 149Q236 98 298 98Z" />
<glyph unicode="&#xff;" glyph-name="ydieresis" horiz-adv-x="526" d="M278 591Q254 591 239 607T223 647Q223 678 245 701T297 724Q323 724 338 709T353 669Q353 637 331 614T278 591ZM456 591Q431 591 416 607T400 647Q400 679 422 701T475 724Q500 724 515
709T531 669Q531 638 508 615T456 591ZM96 -194L207 12L112 511H226L282 197Q287 169 289 153Q293 165 310 197L479 511H602L220 -194H96Z" />
<glyph unicode="&#x2013;" glyph-name="endash" horiz-adv-x="475" d="M90 237L108 337H487L469 237H90Z" />
<glyph unicode="&#x2014;" glyph-name="emdash" horiz-adv-x="552" d="M37 237L55 337H617L599 237H37Z" />
<glyph unicode="&#x2018;" glyph-name="quoteleft" horiz-adv-x="225" d="M188 429Q160 429 141 448T122 502Q122 562 164 619T268 712L306 680Q287 665 264 637T229 582Q250 577 263 561T277 521Q277 482 251 456T188 429Z" />
<glyph unicode="&#x2019;" glyph-name="quoteright" horiz-adv-x="225" d="M159 429L121 461Q139 476 163 504T197 559Q150 571 150 621Q150 659 176 685T239 712Q267 712 286 693T305 639Q305 579 263 522T159 429Z" />
<glyph unicode="&#x201a;" glyph-name="quotesinglbase" horiz-adv-x="225" d="M58 -141L20 -109Q38 -94 62 -65T97 -10Q76 -5 63 11T49 51Q49 91 74 116T134 142Q165 142 184 123T204 69Q204 9 162 -48T58 -141Z" />
<glyph unicode="&#x201c;" glyph-name="quotedblleft" horiz-adv-x="444" d="M188 429Q160 429 141 448T122 502Q122 562 164 619T268 712L306 680Q287 665 264 637T229 582Q250 577 263 561T277 521Q277 482 251 456T188 429ZM406 429Q377 429 359 448T341 503Q341
562 383 619T487 712L525 680Q506 665 483 637T449 582Q470 577 483 561T496 521Q496 481 469 455T406 429Z" />
<glyph unicode="&#x201d;" glyph-name="quotedblright" horiz-adv-x="444" d="M159 429L121 461Q139 476 163 504T197 559Q150 571 150 621Q150 659 176 685T239 712Q267 712 286 693T305 639Q305 579 263 522T159 429ZM378 429L340 461Q359 476 383 504T417 559Q370
571 370 621Q370 660 396 686T459 712Q487 712 505 693T524 639Q524 579 482 522T378 429Z" />
<glyph unicode="&#x201e;" glyph-name="quotedblbase" horiz-adv-x="444" d="M58 -141L20 -109Q38 -94 62 -65T97 -10Q76 -5 63 11T49 51Q49 91 74 116T134 142Q165 142 184 123T204 69Q204 9 162 -48T58 -141ZM277 -141L239 -109Q258 -94 281 -65T315 -10Q294
-5 281 11T268 51Q268 91 293 116T352 142Q384 142 403 123T423 69Q423 9 381 -48T277 -141Z" />
<glyph unicode="&#x2022;" glyph-name="bullet" horiz-adv-x="396" d="M235 210Q183 210 150 244T117 329Q117 395 167 443T283 492Q335 492 369 457T403 372Q403 305 353 258T235 210Z" />
<glyph unicode="&#x2039;" glyph-name="guilsinglleft" horiz-adv-x="309" d="M175 0L74 256L265 511H388L194 254L293 0H175Z" />
<glyph unicode="&#x203a;" glyph-name="guilsinglright" horiz-adv-x="309" d="M13 0L207 259L108 511H224L325 256L134 0H13Z" />
</font>
</defs>
</svg>
