<?xml version="1.0" standalone="no"?>
<!DOCTYPE svg PUBLIC "-//W3C//DTD SVG 1.1//EN" "http://www.w3.org/Graphics/SVG/1.1/DTD/svg11.dtd">
<svg xmlns="http://www.w3.org/2000/svg">
<defs >
<font id="Marvel" horiz-adv-x="410" ><font-face
    font-family="Marvel"
    units-per-em="1000"
    panose-1="2 0 0 0 0 0 0 0 0 0"
    ascent="951"
    descent="-259"
    alphabetic="0" />
<glyph unicode=" " glyph-name="space" horiz-adv-x="206" />
<glyph unicode="!" glyph-name="exclam" horiz-adv-x="199" d="M40 137L138 695H202L104 137H40ZM15 1L32 102H97L80 1H15Z" />
<glyph unicode="&quot;" glyph-name="quotedbl" horiz-adv-x="316" d="M335 637Q325 580 293 545T215 492L209 562Q227 570 243 587T265 638L275 695H345L335 637ZM207 637Q197 580 165 545T88 492L82 562Q100 570 115 587T137 638L147 695H217L207 637Z" />
<glyph unicode="$" glyph-name="dollar" horiz-adv-x="474" d="M282 757H349L337 689Q354 685 370 678L453 642L419 574L397 585Q375 596 345 609T291 623Q266 623 243 613T202 585T171 544T154 496Q149 467 156 446T177 411T213 389T257 382Q297 382 330 369T385
331T416 272T418 197Q411 158 393 124T347 65T287 22T216 1L203 -71H136L149 5Q128 12 107 21T65 38T30 54T5 67L40 132Q87 109 115 97T159 78T185 71T204 69Q230 69 254 78T297 105T329 145T348 196Q353 224 346 245T324 280T288 301T244 308Q203 308 170 321T115
360T84 418T82 493Q89 529 106 562T149 621T205 666T270 690L282 757Z" />
<glyph unicode="&amp;" glyph-name="ampersand" horiz-adv-x="597" d="M222 332Q208 325 195 317T168 303H169Q132 283 109 257T79 194Q73 163 80 138T103 94T144 67T199 57Q253 57 296 77T374 131L222 332ZM543 363Q537 335 530 304T511 242T486 182T453 131Q473
100 498 66T543 0H464L411 84Q366 42 310 17T187 -9Q143 -9 107 5T47 46T14 109T12 193Q21 247 53 285T136 351Q150 359 162 365T189 379L153 429Q133 458 126 485T125 548Q131 581 148 610T192 661T252 695T322 708Q358 708 387 697T436 665T464 615T466 548Q457
495 428 462T354 404L281 365L420 181Q446 218 459 262T483 363H543ZM403 548Q411 594 385 621T312 648Q291 648 271 641T234 621T206 590T190 548Q188 536 189 525T197 499T215 463T249 411L329 456Q358 473 378 496T403 548ZM473 11L462 3L406 89L418 97L473
11Z" />
<glyph unicode="&apos;" glyph-name="quotesingle" horiz-adv-x="189" d="M208 637Q198 580 166 545T88 492L82 562Q100 570 115 587T137 638L147 695H218L208 637V637Z" />
<glyph unicode="(" glyph-name="parenleft" horiz-adv-x="238" d="M114 609Q127 680 167 711T260 743H284L272 677H252Q227 677 207 664T180 614L86 82Q79 45 95 32T136 18H156L144 -48H120Q94 -48 73 -41T39 -17T21 25T22 87L114 609Z" />
<glyph unicode=")" glyph-name="parenright" horiz-adv-x="238" d="M142 86Q129 14 88 -17T-4 -49H-28L-16 18H3Q28 18 48 31T76 81L171 614Q177 650 161 663T120 677H101L113 743H137Q162 743 183 736T217 712T236 670T235 609L142 86V86Z" />
<glyph unicode="*" glyph-name="asterisk" horiz-adv-x="403" d="M313 215L222 276L205 159H149L172 276L61 215L42 264L155 320L62 376L98 424L187 365L205 482H261L238 364L350 424L369 376L255 320Q278 306 302 292T348 265L313 215Z" />
<glyph unicode="+" glyph-name="plus" horiz-adv-x="429" d="M375 229H241L217 95H141L165 229H31L44 305H178L202 439H278L254 305H388L375 229Z" />
<glyph unicode="," glyph-name="comma" horiz-adv-x="183" d="M88 54Q78 -3 47 -38T-32 -91L-38 -21Q-20 -13 -5 4T17 54L27 111H98L88 54V54Z" />
<glyph unicode="-" glyph-name="hyphen" horiz-adv-x="365" d="M62 314L75 390H322L309 314H62Z" />
<glyph unicode="." glyph-name="period" horiz-adv-x="192" d="M5 5L23 104H104L86 5H5Z" />
<glyph unicode="/" glyph-name="slash" horiz-adv-x="269" d="M219 694H291L69 1H-3L219 694Z" />
<glyph unicode="0" glyph-name="zero" horiz-adv-x="438" d="M191 56Q206 56 220 62T247 78T267 103T278 134L345 511Q351 546 329 565T275 585Q237 585 206 569T168 511L101 134Q96 102 112 79T160 56H191ZM342 131Q337 101 322 76T284 32T235 2T180 -9H148Q119
-9 97 2T59 31T39 75T38 131L105 511Q110 541 125 566T161 610T209 640T265 651H297Q325 651 348 640T386 611T408 567T409 511L342 131Z" />
<glyph unicode="1" glyph-name="one" horiz-adv-x="220" d="M133 617L205 650L91 1H25L133 617Z" />
<glyph unicode="2" glyph-name="two" horiz-adv-x="399" d="M267 367Q286 389 296 411T312 460Q315 485 312 507T298 547T272 574T233 585Q228 585 222 584T201 578T164 565T102 541L86 604L172 636Q188 643 209 647T246 652Q281 652 308 637T354 597T378 537T378
463Q372 428 360 399T319 338Q284 293 246 245T174 158Q135 111 98 68H306L295 0H11L23 72L267 367Z" />
<glyph unicode="3" glyph-name="three" horiz-adv-x="417" d="M99 605L179 635V634Q196 641 221 646T260 652Q296 651 323 637T366 599T388 541T387 468Q383 448 378 431T363 397T339 365T303 334Q321 317 329 298T340 259T340 219T335 178Q328 139 310 105T265
46T205 5T137 -10Q121 -9 101 -5T67 5L-1 33L29 99L109 62L110 63Q119 59 128 57T146 54Q168 54 189 64T227 93T256 134T274 182Q278 206 276 228T265 268T239 295T195 305H133L144 367H207Q261 367 288 397T326 477Q329 502 323 522T306 556T279 578T246 586Q236
586 222 584T198 577L115 542L99 605Z" />
<glyph unicode="4" glyph-name="four" horiz-adv-x="398" d="M227 0L260 190H14L26 256L243 646H311L99 256H272L291 367H357L293 0H227Z" />
<glyph unicode="5" glyph-name="five" horiz-adv-x="429" d="M367 196Q359 154 343 117T301 53T243 9T170 -8Q149 -8 123 -1T73 15T33 31T16 39L47 101Q71 90 95 82Q115 74 138 69T181 63Q206 63 226 74T260 103T284 145T299 196L304 225Q309 252 308 276T298
318T273 346T231 357H74L125 646H392L381 582H185L157 423H244Q284 423 312 408T356 367T375 304T372 225L367 196V196Z" />
<glyph unicode="6" glyph-name="six" horiz-adv-x="420" d="M213 352Q198 352 184 346T157 330T137 305T126 274L100 129Q93 91 117 73T177 54Q212 54 241 71T277 129L303 274Q308 306 291 329T244 352H213ZM148 -7Q120 -7 98 4T60 33T39 77T38 133L102 497Q108
531 125 559T167 608T223 640T287 652Q292 652 308 649T341 641Q360 636 384 630L355 571Q335 576 318 580Q304 584 292 587T277 590Q257 590 239 584T205 565T178 536T163 497L145 393Q160 401 176 405T208 412T236 414T255 415Q283 415 306 404T344 373T365 327T366
271L342 133Q337 103 322 78T284 34T235 4T180 -7H148Z" />
<glyph unicode="7" glyph-name="seven" horiz-adv-x="366" d="M95 646H393L381 574L98 0H28L312 583H84L95 646Z" />
<glyph unicode="8" glyph-name="eight" horiz-adv-x="435" d="M191 52Q206 52 220 58T247 75T267 100T279 131L292 205Q299 243 275 261T214 280Q179 280 150 263T113 205L100 131Q94 99 111 76T160 52H191ZM245 359Q276 359 301 382T333 439L346 515Q353 550
331 569T275 589Q237 589 206 573T167 515L154 439Q148 406 165 383T214 359H245ZM51 211Q57 247 78 276T129 321Q106 340 95 369T90 436L105 519Q111 556 129 581T171 621T226 644T288 651Q317 651 341 642T383 616T407 575T410 519L395 436Q388 397 367 367T313
320Q338 303 350 276T356 211L341 128Q336 100 322 75T287 32T241 2T188 -9H141Q114 -9 93 2T57 31T37 75T36 128L51 211Z" />
<glyph unicode="9" glyph-name="nine" horiz-adv-x="429" d="M227 304Q257 304 282 327T314 382L337 516Q344 551 322 570T267 589Q229 589 199 574T160 516L137 382Q131 350 148 327T196 304H227ZM289 652Q317 652 340 641T378 612T400 568T401 512L336 144Q330
110 313 82T270 33T215 1T151 -11Q145 -11 123 -6T74 5Q44 12 9 22L38 82Q71 73 97 66Q120 60 139 56T161 51Q180 51 199 57T233 76T259 106T274 144L295 263Q282 256 267 252T236 246T207 242T185 241Q156 241 134 252T96 283T75 329T74 385L97 512Q102 542 117
567T153 611T201 641T257 652H289Z" />
<glyph unicode=":" glyph-name="colon" horiz-adv-x="199" d="M63 312L80 413H161L144 312H63ZM7 1L24 100H105L88 1H7Z" />
<glyph unicode=";" glyph-name="semicolon" horiz-adv-x="222" d="M114 52Q103 -5 73 -40T-3 -93L-28 -25Q-9 -17 9 1T34 53L44 109H124L114 52ZM80 312L97 413H177L160 312H80Z" />
<glyph unicode="&lt;" glyph-name="less" horiz-adv-x="487" d="M407 232L395 164L42 254L59 348L443 434L431 366L258 330H259Q243 326 221 322T179 313Q155 308 130 303L129 295Q134 294 145 292T171 285H170Q190 280 212 276T249 268L407 232Z" />
<glyph unicode="=" glyph-name="equal" horiz-adv-x="483" d="M79 360L92 436H439L426 360H79ZM45 170L59 246H406L392 170H45Z" />
<glyph unicode="&gt;" glyph-name="greater" horiz-adv-x="489" d="M231 273H230Q246 277 269 281T314 290L359 300L361 307L242 335H243L82 371L94 439L449 353L432 259L46 169L58 236L231 273Z" />
<glyph unicode="?" glyph-name="question" horiz-adv-x="430" d="M143 14L156 88H102L89 14H143ZM432 531Q426 498 413 475T385 435L209 226Q198 212 189 198T176 163L171 136H101L106 162Q112 197 125 221T153 262Q194 311 236 361T320 460Q334 476 347 495T363
530Q367 554 359 573T335 605T300 626T264 633Q253 633 241 630T216 623L108 585L96 651L191 687Q208 694 233 699T276 704Q313 704 344 692T397 656T429 602T432 531Z" />
<glyph unicode="@" glyph-name="at" horiz-adv-x="856" d="M835 397Q827 350 807 302T756 215T685 151T594 126Q562 126 541 144T516 193Q490 165 452 147T380 128Q341 128 314 142T271 181T251 238T252 306Q259 347 279 386T328 456T395 506T479 525Q510 525
536 513T574 474L592 517H641L574 253L573 244Q568 216 577 199T609 182Q640 182 667 200T716 249T753 318T775 397Q787 464 772 516T722 604T635 658T518 677Q439 677 371 651T250 578T161 467T112 324Q100 255 112 195T158 89T245 17T370 -9Q435 -9 500 3T632
42L621 -18Q550 -46 488 -56T358 -67Q274 -67 210 -37T106 46T51 170T51 324Q67 415 109 490T213 620T356 705T528 735Q604 735 666 712T771 646T831 539T835 397ZM540 347Q544 371 543 393T533 432T507 460T462 470Q433 470 408 455T364 417T331 364T313 306Q304
254 323 219T392 183Q424 183 449 198T493 238T523 291T540 347Z" />
<glyph unicode="A" glyph-name="A" horiz-adv-x="466" d="M293 623H292Q257 532 221 444T150 264H307L293 623ZM43 1H-25L258 701H353L390 1H323L312 192H119L43 1Z" />
<glyph unicode="B" glyph-name="B" horiz-adv-x="479" d="M149 321L105 71H222Q249 71 269 80T303 106T325 145T339 193Q343 219 343 242T334 283T310 311T266 321H149ZM372 514Q374 538 372 560T360 600T335 628T294 639Q284 639 264 636T201 617L161 391H255Q283
391 303 401T337 427T359 466T372 514ZM315 710Q348 710 364 703T386 690Q387 689 387 689Q419 667 438 622T447 518Q443 496 438 475T423 433T398 393T360 356Q383 338 395 319T412 280T416 239T410 193Q405 162 394 136T371 91T347 59T331 44Q310 27 281 14T210
0H24L142 670Q184 685 215 693T259 704Q273 707 287 708T315 710Z" />
<glyph unicode="C" glyph-name="C" horiz-adv-x="441" d="M112 191Q107 161 112 137T132 96T167 70T212 59Q219 59 226 60T244 64T272 74T316 90L351 104L366 35L273 4Q256 -2 235 -6T200 -10Q162 -10 130 3T77 42T46 104T45 186L101 503Q109 544 130 581T173
639Q193 658 207 668T235 686L241 688L238 687Q250 693 272 701T329 710Q344 710 363 705T396 695L474 663L440 598L354 633Q345 637 336 640T318 643Q293 643 269 631T224 600T189 555T169 503L112 191Z" />
<glyph unicode="D" glyph-name="D" horiz-adv-x="479" d="M136 669Q204 695 246 702T303 710Q343 710 374 694T424 649T451 583T451 504L396 188Q388 146 366 110T312 47T242 5T165 -10Q157 -10 146 -9T119 -5T79 6T23 28L136 669ZM378 504Q385 546 372 577T340
624Q329 632 315 635T290 639Q269 639 244 631T195 613L101 82Q134 68 152 65T181 62H185Q208 62 231 73T273 103T307 146T326 197L378 504Z" />
<glyph unicode="E" glyph-name="E" horiz-adv-x="411" d="M438 700L426 630H205L162 387H335L322 317H149L106 72H329L317 1H25L148 700H438Z" />
<glyph unicode="F" glyph-name="F" horiz-adv-x="394" d="M438 700L426 630H205L162 386H335L322 317H149L94 0H25L148 700H438Z" />
<glyph unicode="G" glyph-name="G" horiz-adv-x="450" d="M112 180Q107 154 113 132T133 93T167 67T211 57Q221 57 238 60T291 81L324 270H393L352 38Q320 22 294 13T249 -2T216 -8T196 -10Q155 -10 124 6T73 50T46 115T46 194L101 506Q111 553 132 591T182 655T247
696T325 710Q340 709 359 705T393 695L456 669L420 599L349 628Q328 638 312 638Q288 638 265 627T222 598T188 556T170 506L112 180Z" />
<glyph unicode="H" glyph-name="H" horiz-adv-x="518" d="M217 700L162 389H387L442 700H512L389 1H319L375 318H150L94 1H25L148 700H217Z" />
<glyph unicode="I" glyph-name="I" horiz-adv-x="219" d="M148 700H213L90 0H25L148 700Z" />
<glyph unicode="J" glyph-name="J" horiz-adv-x="317" d="M212 140Q204 97 195 68T169 22T128 -2T63 -10Q59 -10 46 -9T18 -7T-12 -3T-34 1L-9 73Q-4 71 9 70T35 67T60 64T73 63Q84 63 95 65T115 75T131 96T143 133L243 700H311L212 140V140Z" />
<glyph unicode="K" glyph-name="K" horiz-adv-x="398" d="M248 0L165 313H148L93 0H25L148 700H216L160 385H176Q226 463 274 541T373 698H448L233 348L323 0H248Z" />
<glyph unicode="L" glyph-name="L" horiz-adv-x="379" d="M148 700H217L106 69H324L312 0H25L148 700Z" />
<glyph unicode="M" glyph-name="M" horiz-adv-x="611" d="M303 274L508 700H605L482 0H416L516 571H515L335 202H240L191 569L91 0H25L148 700H246L299 274H303Z" />
<glyph unicode="N" glyph-name="N" horiz-adv-x="558" d="M552 700L429 0H323L190 571H189L89 0H25L148 700H230L376 81H378L487 700H552Z" />
<glyph unicode="O" glyph-name="O" horiz-adv-x="520" d="M428 520Q435 557 425 579T396 614T357 631T320 635Q305 635 283 631T238 614T197 579T172 519L111 175Q105 137 115 116T144 83T183 68T220 65Q235 65 257 68T302 83T343 116T367 175L428 520ZM434 175Q430
153 416 122T375 61T306 12T206 -9Q149 -9 116 11T65 61T44 121T44 175L105 519Q109 541 123 573T165 636T234 687T334 709Q391 709 424 688T475 637T495 575T495 520L434 175Z" />
<glyph unicode="P" glyph-name="P" horiz-adv-x="494" d="M305 639Q289 639 271 636T236 627Q218 622 199 616L152 351H254Q322 351 369 388T431 500Q437 536 431 562T407 606T364 631T305 639ZM326 710Q368 710 403 695T463 653T497 587T500 500Q491 452 468
412T412 342T336 296T249 280H139L90 0H24L141 669Q170 680 202 689Q229 697 261 703T326 710Z" />
<glyph unicode="Q" glyph-name="Q" horiz-adv-x="521" d="M426 518Q432 555 422 578T395 614T357 633T321 638Q306 638 284 633T240 615T199 579T174 519L113 175Q107 137 117 116T145 83T184 68T220 65Q235 65 257 68T301 82T341 115T365 175L426 518ZM434 175Q431
156 419 130T386 77T334 29T263 -3Q270 -19 290 -28L258 -101Q228 -87 209 -64T185 -8Q136 -3 107 18T62 67T44 124T44 175L105 518Q109 540 123 572T165 635T234 687T334 709Q391 709 424 688T475 636T495 573T495 518L434 175Z" />
<glyph unicode="R" glyph-name="R" horiz-adv-x="510" d="M305 639Q289 639 271 636T236 628Q218 623 199 617L153 352H255Q323 352 370 392T432 507Q438 543 432 568T408 609T365 632T305 639ZM424 0H356L283 283Q275 282 266 282T249 281H139L90 0H24L141 669Q171
680 203 689Q230 697 262 703T326 710Q368 710 403 697T463 657T498 593T501 507Q495 474 482 443T449 384T405 335T355 302L424 0Z" />
<glyph unicode="S" glyph-name="S" horiz-adv-x="469" d="M428 208Q420 166 399 128T347 62T278 18T199 1Q160 1 124 11T60 35Q27 50 0 69L35 135Q66 117 98 104Q124 92 154 83T210 73Q236 73 260 83T305 112T339 154T358 206Q363 234 353 253T325 284T284 304T238
315Q202 321 172 336T121 376T92 432T90 506Q97 548 118 585T171 649T239 693T316 710Q340 710 365 705T412 692Q437 684 460 674L426 606Q405 615 383 622Q364 628 343 633T301 639Q276 639 253 628T210 599T177 558T159 509Q154 480 162 459T186 422T222 398T262
385Q302 378 336 365T393 331T425 280T428 208Z" />
<glyph unicode="T" glyph-name="T" horiz-adv-x="421" d="M462 633H305L194 0H127L238 633H76L88 700H474L462 633Z" />
<glyph unicode="U" glyph-name="U" horiz-adv-x="535" d="M225 56Q242 56 265 61T311 79T351 116T376 176L468 701H532L440 176Q435 147 420 115T378 55T311 11T214 -7Q158 -7 124 10T73 55T53 114T54 176L146 701H211L119 176Q112 139 120 116T146 80T184 61T225 56Z" />
<glyph unicode="V" glyph-name="V" horiz-adv-x="462" d="M508 700L224 0H129L95 700H163L190 78H192Q196 88 208 120T239 198T279 299T323 410Q375 540 439 700H508Z" />
<glyph unicode="W" glyph-name="W" horiz-adv-x="613" d="M316 347L179 1H83L104 700H169L145 78L288 432H374L386 78L586 700H650L426 1H329L316 347Z" />
<glyph unicode="X" glyph-name="X" horiz-adv-x="449" d="M224 312L38 0H-30L177 347L93 700H161L240 384V384L431 700H499L291 347L375 0H306L230 312H224Z" />
<glyph unicode="Y" glyph-name="Y" horiz-adv-x="434" d="M262 312H251L196 0H131L186 312H178L84 700H152L231 384V384L422 700H490L262 312Z" />
<glyph unicode="Z" glyph-name="Z" horiz-adv-x="458" d="M384 628V628H113L126 700H483L471 635L79 72V72H388L376 0H-19L-7 73L384 628Z" />
<glyph unicode="[" glyph-name="bracketleft" horiz-adv-x="244" d="M-2 -82L148 769H297L286 708H199L71 -20H158L147 -82H-2Z" />
<glyph unicode="\" glyph-name="backslash" horiz-adv-x="390" d="M234 -55L110 761H177L300 -55H234Z" />
<glyph unicode="]" glyph-name="bracketright" horiz-adv-x="244" d="M-36 -83L-25 -21H62L190 707H103L114 768H263L113 -83H-36Z" />
<glyph unicode="_" glyph-name="underscore" horiz-adv-x="206" />
<glyph unicode="`" glyph-name="grave" horiz-adv-x="364" d="M300 573L214 730H291L367 573H300Z" />
<glyph unicode="a" glyph-name="a" horiz-adv-x="405" d="M275 243Q275 244 268 248T247 258T215 267T176 271Q161 271 147 265T120 248T100 223T89 194L78 132Q72 100 89 78T137 55Q148 55 167 60T204 71Q225 78 248 88L275 243ZM306 57L324 37L271 -8L249 19Q215
4 180 -3T127 -10Q98 -10 75 1T37 33T17 79T16 136L26 191Q31 220 46 246T83 291T131 322T187 334Q193 334 205 334T232 331T262 324T289 312L292 333Q296 354 292 375T278 412T252 438T217 448Q210 448 188 443T143 433Q116 426 83 418L77 478Q112 487 142 494Q168
500 192 505T228 510Q260 510 286 495T329 455T352 399T353 333L306 57Z" />
<glyph unicode="b" glyph-name="b" horiz-adv-x="418" d="M89 86Q91 79 103 73T132 63T163 57T188 55Q218 55 243 77T275 132L317 369Q322 401 305 423T256 446Q248 446 235 444T206 439T175 429T147 416L89 86ZM158 486Q199 505 225 507T267 510Q295 510 318
499T356 468T377 422T378 366L337 136Q332 106 317 80T280 34T231 3T176 -8Q155 -8 124 -3T63 20Q55 15 47 7T31 -6L-5 38L20 60L132 695H195L158 486Z" />
<glyph unicode="c" glyph-name="c" horiz-adv-x="350" d="M89 151Q85 129 90 111T106 81T134 61T171 54Q179 54 195 56T227 63Q245 67 265 73L274 15Q252 8 232 3Q214 -2 195 -5T160 -8Q127 -8 100 4T54 37T29 87T27 151L63 354Q69 388 86 417T129 467T186 499T251
511Q267 511 285 507T318 497Q336 491 353 483L327 428Q312 434 296 438Q282 442 267 445T240 449Q200 449 167 423T125 354L89 151Z" />
<glyph unicode="d" glyph-name="d" horiz-adv-x="418" d="M314 414Q288 432 260 439T216 446Q201 446 187 440T160 424T140 399T128 368L87 131Q81 99 98 77T146 54Q155 54 171 56T204 63T235 72T256 85L314 414ZM365 694H427L314 56L335 32L282 -12L258 18Q225
3 191 -3T136 -9Q107 -9 85 2T47 32T26 78T25 135L66 365Q71 395 86 421T123 466T171 497T227 509Q242 509 269 506T328 485L365 694Z" />
<glyph unicode="e" glyph-name="e" horiz-adv-x="409" d="M219 248Q234 248 249 254T276 272T296 298T308 329L315 370Q319 391 313 405T295 429T266 442T230 446Q196 446 167 426T131 370L109 249L219 248ZM65 365Q70 395 85 421T123 467T173 498T230 510H263Q292
510 315 499T354 469T376 423T378 365L372 333Q364 290 344 261T295 214T229 188T153 180Q125 180 98 183L89 133Q90 98 113 76T172 54Q174 54 196 58T244 69Q274 75 311 84L316 18Q277 10 244 4Q216 -1 191 -5T161 -9Q128 -9 101 3T55 36T29 86T27 150L65 365Z"
/>
<glyph unicode="f" glyph-name="f" horiz-adv-x="293" d="M125 0H59L136 439H51L62 500H148L160 569Q173 641 213 672T304 703H328L317 637H298Q274 637 253 624T225 576L212 500H305L294 439H202L125 0Z" />
<glyph unicode="g" glyph-name="g" horiz-adv-x="420" d="M316 416Q282 436 258 441T216 446Q186 446 161 424T130 370L88 132Q82 100 99 77T148 54Q156 54 164 54T184 58T213 67T257 85L316 416ZM287 -107Q280 -145 263 -172T221 -217T166 -243T102 -252Q86 -252
63 -247T16 -236Q-10 -229 -39 -219L-11 -160Q16 -169 41 -176Q62 -182 82 -187T113 -192Q152 -192 184 -171T224 -108L246 12Q211 -4 188 -6T147 -9H137Q108 -9 85 2T47 33T26 79T25 135L66 366Q71 396 86 422T124 467T172 498T228 510Q250 510 278 503T338 482L375
513L412 468L384 445L287 -107Z" />
<glyph unicode="h" glyph-name="h" horiz-adv-x="424" d="M252 0L317 369Q322 401 304 423T256 446Q239 446 208 440T146 415L73 0H10L132 695H195L158 486Q199 505 225 507T267 510Q295 510 318 499T356 468T377 422T378 366L314 0H252Z" />
<glyph unicode="i" glyph-name="i" horiz-adv-x="189" d="M132 695H198L182 605H116L132 695ZM98 500H164L76 0H10L98 500Z" />
<glyph unicode="j" glyph-name="j" horiz-adv-x="189" d="M97 501H164L57 -103Q45 -174 5 -205T-88 -237H-112L-101 -171H-81Q-57 -171 -36 -157T-8 -108L97 501ZM131 694H198L183 608H116L131 694Z" />
<glyph unicode="k" glyph-name="k" horiz-adv-x="339" d="M198 0L134 232H113L73 0H10L132 695H195L126 305H146L284 499H354L191 268L268 0H198Z" />
<glyph unicode="l" glyph-name="l" horiz-adv-x="217" d="M138 695H202L102 130Q96 94 111 81T152 67H172L161 1H136Q85 1 56 32T39 135L138 695Z" />
<glyph unicode="m" glyph-name="m" horiz-adv-x="683" d="M324 373Q327 388 322 401T305 425T278 440T246 446Q238 446 225 444T198 437T170 427T147 415L74 0H11L89 444L68 468L121 512L145 481Q173 495 199 502T251 510Q293 510 326 493T372 442Q409 483 449
496T525 510Q562 510 585 495T621 455T635 404T634 352L572 0H508L570 352Q573 369 572 385T565 415T545 437T511 446Q454 446 422 414T379 321L323 0H259L324 373Z" />
<glyph unicode="n" glyph-name="n" horiz-adv-x="432" d="M381 425Q389 399 387 374T379 322L323 0H258L320 352Q327 398 307 422T257 447Q240 447 213 443T147 415L74 0H11L89 443L69 466L121 511L146 481Q203 509 251 509Q273 509 294 505T333 490T362 464T381 425Z" />
<glyph unicode="o" glyph-name="o" horiz-adv-x="418" d="M318 358Q323 388 316 405T295 432T265 445T236 448Q224 448 207 445T172 433T141 406T122 358L84 147Q79 117 86 99T108 72T138 59T167 55Q179 55 196 58T230 71T261 99T280 147L318 358ZM337 140Q329
93 307 65T257 20T203 -1T156 -6Q137 -6 111 -1T64 20T30 64T26 140L66 365Q74 412 96 440T146 484T200 505T247 510Q266 510 291 505T339 485T373 441T377 365L337 140Z" />
<glyph unicode="p" glyph-name="p" horiz-adv-x="419" d="M88 85Q98 78 112 73T140 63T166 57T187 54Q218 54 243 76T275 131L317 370Q322 401 305 423T257 446Q240 446 209 440T146 414L88 85ZM30 -243H-32L89 445L69 468L120 513L146 482Q181 497 213 503T267
510Q295 510 318 499T356 468T377 422T378 366L337 134Q332 104 317 78T280 33T231 2T176 -10Q162 -10 135 -7T75 14L30 -243Z" />
<glyph unicode="q" glyph-name="q" horiz-adv-x="419" d="M314 413Q283 436 258 441T215 446Q185 446 160 424T129 369L87 131Q81 99 98 77T147 54Q154 54 167 55T196 60T227 69T256 84L314 413ZM235 8Q207 -4 186 -6T148 -10H139Q110 -10 87 1T49 32T27 78T25
134L66 365Q71 395 86 421T123 466T171 497T227 509Q247 509 278 503T338 482L376 512L411 467L383 444L262 -243H200L245 12L235 8Z" />
<glyph unicode="r" glyph-name="r" horiz-adv-x="336" d="M316 413Q301 424 290 430T271 440T255 443T238 444Q224 444 200 437T147 408L76 1H14L90 435Q85 441 78 449T66 463L118 508L146 475Q179 498 205 504T251 510Q271 510 295 501T361 466L316 413Z" />
<glyph unicode="s" glyph-name="s" horiz-adv-x="364" d="M312 141Q299 66 255 28T151 -10Q133 -10 114 -7T77 5L-3 39L31 94L112 59Q136 50 162 50Q193 50 219 74T253 145Q256 164 251 177T236 199T213 211T188 215Q152 215 124 222T78 245T54 289T55 359Q61
396 77 424T115 472T164 500T221 510Q239 510 256 506T293 494L329 480L294 425Q270 434 257 439T235 446T223 448T215 449H210Q179 449 151 424T114 354Q111 335 116 321T132 296T156 281T182 276Q214 276 241 271T286 250T312 209T312 141Z" />
<glyph unicode="t" glyph-name="t" horiz-adv-x="276" d="M127 439H44L55 501H138L172 695H237L203 501H292L281 439H192L137 128Q131 92 146 79T187 65H215L203 -1H170Q144 -1 124 6T90 30T72 72T73 133L127 439Z" />
<glyph unicode="u" glyph-name="u" horiz-adv-x="432" d="M36 76Q28 102 30 127T37 179L94 500H158L96 149Q88 103 108 79T159 54Q188 54 219 64T270 86L343 500H406L328 58L349 35L296 -10L271 20Q241 6 208 -1T149 -8Q131 -8 113 -4T80 11T54 37T36 76Z" />
<glyph unicode="v" glyph-name="v" horiz-adv-x="368" d="M317 500H381L180 0H86L55 500H118Q127 361 132 278T140 150Q144 97 145 77L317 500Z" />
<glyph unicode="w" glyph-name="w" horiz-adv-x="532" d="M347 499L340 75L476 500H539L371 0H287L285 421Q247 317 211 210T136 0H54L62 500H124L106 75L251 499H347Z" />
<glyph unicode="x" glyph-name="x" horiz-adv-x="362" d="M163 214L34 0H-29L120 249L59 500H122L179 286Q211 339 243 393T308 500H373L226 249Q241 189 257 125T288 1H223L167 214H163Z" />
<glyph unicode="y" glyph-name="y" horiz-adv-x="380" d="M22 -243L105 0H100L56 500H120Q127 393 133 319T144 196Q149 141 154 105H155Q158 111 168 137T200 211T253 330T331 500H396L174 0H168Q148 -60 127 -121T86 -243H22Z" />
<glyph unicode="z" glyph-name="z" horiz-adv-x="409" d="M328 0H-17L-7 60L303 425L305 435H67L78 498H398L388 438L77 71L76 63H339L328 0Z" />
<glyph unicode="{" glyph-name="braceleft" horiz-adv-x="240" d="M115 -72Q80 -72 61 -65T30 -45Q17 -30 15 -10T18 45L125 650Q131 685 140 705T168 739Q183 753 205 760T263 767H292L281 705H257Q236 705 225 704T206 696Q193 684 185 638L82 53Q78 30 78 18T83
-2Q88 -9 99 -10T131 -11H155L144 -72H115Z" />
<glyph unicode="|" glyph-name="bar" horiz-adv-x="195" d="M13 -10L137 695H199L75 -10H13Z" />
<glyph unicode="}" glyph-name="braceright" horiz-adv-x="245" d="M139 47Q133 12 123 -8T95 -43Q79 -56 57 -63T-1 -70H-33L-22 -9H18Q32 -9 41 -8T56 -1Q64 6 68 18T77 54L181 644Q188 687 180 698Q174 705 163 706T131 707H104L115 768H147Q182 768 202 762T233
741Q246 727 249 707T245 652L139 47V47Z" />
<glyph unicode="~" glyph-name="asciitilde" horiz-adv-x="458" d="M416 282Q393 263 376 251T345 232T317 223T290 220Q271 220 254 227T218 244Q201 252 184 259T148 267Q140 267 133 266T117 260T97 249T71 228L35 263Q57 282 74 294T105 313T133 322T160 325Q182
325 200 317T235 301Q251 292 267 285T303 278Q311 278 318 279T333 285T352 296T378 317L416 282Z" />
<glyph unicode="&#xa0;" glyph-name="space" horiz-adv-x="206" />
<glyph unicode="&#xa1;" glyph-name="exclamdown" horiz-adv-x="198" d="M177 558L79 1H15L113 558H177ZM201 695L183 593H118L136 695H201Z" />
<glyph unicode="&#xa2;" glyph-name="cent" horiz-adv-x="357" d="M225 633H287L265 510Q279 508 294 504T321 495Q335 490 349 484L323 429Q308 435 292 439Q278 443 263 446T236 450Q196 450 163 424T121 355L85 152Q81 130 86 112T102 82T130 62T167 55Q175
55 191 57T223 64Q241 68 262 74L267 18Q251 12 235 7Q221 2 205 -1T174 -6L153 -127H91L113 -2Q91 5 73 20T41 55T23 99T23 152L59 355Q64 383 77 408T110 452T153 486T203 507L225 633Z" />
<glyph unicode="&#xa3;" glyph-name="sterling" horiz-adv-x="504" d="M430 512Q437 552 429 576T404 614T367 632T329 637Q311 637 290 632T249 615T214 579T192 520L168 385H383L371 314H156L112 66H417L406 0H34L89 314H51L63 385H101L125 518Q132 558 151
592T198 651T262 689T341 703Q382 703 414 689T468 650T496 589T497 512H430Z" />
<glyph unicode="&#xa5;" glyph-name="yen" horiz-adv-x="490" d="M258 171L228 1H156L186 171H49L62 247H199L210 310H202L188 361H82L96 437H171Q155 499 140 566T109 696H177L255 382H263L452 696H520L368 437H443L429 361H322L293 310H282L271 247H409L396 171H258Z" />
<glyph unicode="&#xa6;" glyph-name="brokenbar" horiz-adv-x="197" d="M137 695H201L145 377H81L137 695ZM70 317H134L79 0H15L70 317Z" />
<glyph unicode="&#xa8;" glyph-name="dieresis" horiz-adv-x="451" d="M392 584L408 672H478L462 584H392ZM200 584L216 672H286L270 584H200Z" />
<glyph unicode="&#xa9;" glyph-name="copyright" horiz-adv-x="794" d="M761 346Q748 272 709 208T613 95T487 18T343 -10Q269 -10 210 18T110 94T54 207T50 346Q63 420 102 485T198 598T324 674T468 702Q542 702 601 674T701 598T757 485T761 346ZM699 346Q709
407 696 460T649 554T567 617T457 640Q397 640 340 617T235 555T155 461T112 346Q101 285 115 232T162 139T244 76T354 53Q415 53 472 76T576 138T655 231T699 346ZM312 270Q305 231 328 207T388 182Q394 182 403 183T421 186T439 190T453 194Q455 186 455 183T457
172Q442 168 428 165Q416 162 404 160T383 158Q335 158 307 189T288 270L317 435Q321 459 334 479T365 515T405 538T451 546Q471 546 489 540T516 530L507 510Q496 512 485 515Q476 517 465 519T446 521Q409 521 379 497T341 435L312 270Z" />
<glyph unicode="&#xae;" glyph-name="registered" horiz-adv-x="794" d="M762 350Q749 276 710 212T614 99T487 22T344 -6Q270 -6 211 22T111 98T55 211T51 350Q64 424 103 489T200 602T326 678T470 706Q543 706 603 678T702 602T758 489T762 350ZM700 350Q711
411 698 465T651 558T569 621T459 644Q398 644 341 621T236 559T157 465T113 350Q102 289 115 236T162 142T244 79T355 56Q415 56 472 79T577 142T656 235T700 350ZM433 532Q422 532 409 530T385 524Q372 520 358 516L328 342H400Q444 342 475 368T516 444Q524
493 501 512T433 532ZM449 323L488 157H468L427 326Q416 323 411 323T400 322H324L295 157H278L344 533Q360 539 377 543Q391 547 408 550T442 553Q464 553 483 546T516 525T535 491T537 444Q530 407 507 375T454 332L449 323Z" />
<glyph unicode="&#xb0;" glyph-name="degree" horiz-adv-x="329" d="M341 577Q336 551 322 528T288 487T242 459T189 448Q163 448 142 458T106 486T85 527T84 577Q89 604 103 627T138 667T184 695T235 705Q262 705 284 695T320 668T340 628T341 577ZM283 577Q288
606 271 626T225 647Q211 647 197 642T172 627T153 605T142 577Q137 548 154 528T200 508Q215 508 229 513T254 528T273 550T283 577Z" />
<glyph unicode="&#xb4;" glyph-name="acute" horiz-adv-x="463" d="M359 574H292L422 731H499L359 574Z" />
<glyph unicode="&#xb5;" glyph-name="mu" horiz-adv-x="446" d="M-16 -202L43 135Q44 144 46 156T50 179L108 502L171 500L109 149Q101 103 121 79T172 54Q201 54 232 64T283 86L356 500H419L341 58L362 35L309 -10L284 20Q254 6 221 -1T162 -8Q141 -8 121 -3T84
16L46 -202H-16Z" />
<glyph unicode="&#xb8;" glyph-name="cedilla" horiz-adv-x="394" d="M221 -89Q211 -145 189 -174T134 -218L106 -172Q126 -164 140 -142T161 -88L171 -31H231L221 -89V-89Z" />
<glyph unicode="&#xbf;" glyph-name="questiondown" horiz-adv-x="392" d="M317 464L300 363H219L236 464H317ZM-28 -67Q-23 -38 -11 -17T15 21L191 231Q203 245 213 261T229 301L231 314H273L271 302Q265 269 254 248T228 210Q186 161 144 111T61 12Q46 -5 32
-26T14 -66Q9 -93 18 -114T45 -151T84 -175T124 -183Q138 -183 150 -180T176 -172L270 -138L278 -177L197 -209Q179 -216 155 -221T117 -227Q83 -227 54 -216T5 -183T-25 -133T-28 -67Z" />
<glyph unicode="&#xc0;" glyph-name="Agrave" horiz-adv-x="466" d="M293 623H292Q257 532 221 444T150 264H307L293 623ZM43 1H-25L258 701H353L390 1H323L312 192H119L43 1ZM279 773L193 930H270L346 773H279Z" />
<glyph unicode="&#xc1;" glyph-name="Aacute" horiz-adv-x="466" d="M293 623H292Q257 532 221 444T150 264H307L293 623ZM43 1H-25L258 701H353L390 1H323L312 192H119L43 1ZM350 774H283L413 931H490L350 774Z" />
<glyph unicode="&#xc2;" glyph-name="Acircumflex" horiz-adv-x="466" d="M293 623H292Q257 532 221 444T150 264H307L293 623ZM43 1H-25L258 701H353L390 1H323L312 192H119L43 1ZM397 809L337 885L251 809H186L318 944H377L461 809H397Z" />
<glyph unicode="&#xc3;" glyph-name="Atilde" horiz-adv-x="466" d="M293 623H292Q257 532 221 444T150 264H307L293 623ZM43 1H-25L258 701H353L390 1H323L312 192H119L43 1ZM458 851L475 789H197L177 851H458Z" />
<glyph unicode="&#xc4;" glyph-name="Adieresis" horiz-adv-x="466" d="M293 623H292Q257 532 221 444T150 264H307L293 623ZM43 1H-25L258 701H353L390 1H323L312 192H119L43 1ZM382 784L398 872H468L452 784H382ZM190 784L206 872H276L260 784H190Z" />
<glyph unicode="&#xc6;" glyph-name="AE" horiz-adv-x="736" d="M197 264Q249 264 297 264T397 263Q413 354 429 442T461 622Q451 622 442 622T421 623L197 264ZM763 700L751 630H529L486 387H660L647 317H473L430 72H654L642 1H351L384 192H150L30 1H-38L406 700H763Z" />
<glyph unicode="&#xc7;" glyph-name="Ccedilla" horiz-adv-x="441" d="M112 191Q107 161 112 137T132 96T167 70T212 59Q219 59 226 60T244 64T272 74T316 90L351 104L366 35L273 4Q256 -2 235 -6T200 -10Q162 -10 130 3T77 42T46 104T45 186L101 503Q109 544
130 581T173 639Q193 658 207 668T235 686L241 688L238 687Q250 693 272 701T329 710Q344 710 363 705T396 695L474 663L440 598L354 633Q345 637 336 640T318 643Q293 643 269 631T224 600T189 555T169 503L112 191ZM469 -89Q459 -145 437 -174T382 -218L354 -172Q374
-164 388 -142T409 -88L419 -31H479L469 -89V-89Z" />
<glyph unicode="&#xc8;" glyph-name="Egrave" horiz-adv-x="411" d="M438 700L426 630H205L162 387H335L322 317H149L106 72H329L317 1H25L148 700H438ZM270 773L184 930H261L337 773H270Z" />
<glyph unicode="&#xc9;" glyph-name="Eacute" horiz-adv-x="411" d="M438 700L426 630H205L162 387H335L322 317H149L106 72H329L317 1H25L148 700H438ZM319 768H252L382 925H459L319 768Z" />
<glyph unicode="&#xca;" glyph-name="Ecircumflex" horiz-adv-x="411" d="M438 700L426 630H205L162 387H335L322 317H149L106 72H329L317 1H25L148 700H438ZM361 809L301 885L215 809H150L282 944H341L425 809H361Z" />
<glyph unicode="&#xcb;" glyph-name="Edieresis" horiz-adv-x="411" d="M438 700L426 630H205L162 387H335L322 317H149L106 72H329L317 1H25L148 700H438ZM364 784L380 872H450L434 784H364ZM172 784L188 872H258L242 784H172Z" />
<glyph unicode="&#xcc;" glyph-name="Igrave" horiz-adv-x="219" d="M148 700H213L90 0H25L148 700ZM163 773L77 930H154L230 773H163Z" />
<glyph unicode="&#xcd;" glyph-name="Iacute" horiz-adv-x="219" d="M148 700H213L90 0H25L148 700ZM233 774H166L296 931H373L233 774Z" />
<glyph unicode="&#xce;" glyph-name="Icircumflex" horiz-adv-x="219" d="M148 700H213L90 0H25L148 700ZM274 809L214 885L128 809H63L195 944H254L338 809H274Z" />
<glyph unicode="&#xcf;" glyph-name="Idieresis" horiz-adv-x="219" d="M148 700H213L90 0H25L148 700ZM256 784L272 872H342L326 784H256ZM64 784L80 872H150L134 784H64Z" />
<glyph unicode="&#xd1;" glyph-name="Ntilde" horiz-adv-x="558" d="M552 700L429 0H323L190 571H189L89 0H25L148 700H230L376 81H378L487 700H552ZM501 851L518 789H240L220 851H501Z" />
<glyph unicode="&#xd2;" glyph-name="Ograve" horiz-adv-x="520" d="M428 520Q435 557 425 579T396 614T357 631T320 635Q305 635 283 631T238 614T197 579T172 519L111 175Q105 137 115 116T144 83T183 68T220 65Q235 65 257 68T302 83T343 116T367 175L428 520ZM434
175Q430 153 416 122T375 61T306 12T206 -9Q149 -9 116 11T65 61T44 121T44 175L105 519Q109 541 123 573T165 636T234 687T334 709Q391 709 424 688T475 637T495 575T495 520L434 175ZM320 773L234 930H311L387 773H320Z" />
<glyph unicode="&#xd3;" glyph-name="Oacute" horiz-adv-x="520" d="M428 520Q435 557 425 579T396 614T357 631T320 635Q305 635 283 631T238 614T197 579T172 519L111 175Q105 137 115 116T144 83T183 68T220 65Q235 65 257 68T302 83T343 116T367 175L428 520ZM434
175Q430 153 416 122T375 61T306 12T206 -9Q149 -9 116 11T65 61T44 121T44 175L105 519Q109 541 123 573T165 636T234 687T334 709Q391 709 424 688T475 637T495 575T495 520L434 175ZM381 774H314L444 931H521L381 774Z" />
<glyph unicode="&#xd4;" glyph-name="Ocircumflex" horiz-adv-x="520" d="M428 520Q435 557 425 579T396 614T357 631T320 635Q305 635 283 631T238 614T197 579T172 519L111 175Q105 137 115 116T144 83T183 68T220 65Q235 65 257 68T302 83T343 116T367 175L428
520ZM434 175Q430 153 416 122T375 61T306 12T206 -9Q149 -9 116 11T65 61T44 121T44 175L105 519Q109 541 123 573T165 636T234 687T334 709Q391 709 424 688T475 637T495 575T495 520L434 175ZM424 809L364 885L278 809H213L345 944H404L488 809H424Z" />
<glyph unicode="&#xd5;" glyph-name="Otilde" horiz-adv-x="520" d="M428 520Q435 557 425 579T396 614T357 631T320 635Q305 635 283 631T238 614T197 579T172 519L111 175Q105 137 115 116T144 83T183 68T220 65Q235 65 257 68T302 83T343 116T367 175L428 520ZM434
175Q430 153 416 122T375 61T306 12T206 -9Q149 -9 116 11T65 61T44 121T44 175L105 519Q109 541 123 573T165 636T234 687T334 709Q391 709 424 688T475 637T495 575T495 520L434 175ZM485 851L502 789H224L204 851H485Z" />
<glyph unicode="&#xd6;" glyph-name="Odieresis" horiz-adv-x="520" d="M428 520Q435 557 425 579T396 614T357 631T320 635Q305 635 283 631T238 614T197 579T172 519L111 175Q105 137 115 116T144 83T183 68T220 65Q235 65 257 68T302 83T343 116T367 175L428
520ZM434 175Q430 153 416 122T375 61T306 12T206 -9Q149 -9 116 11T65 61T44 121T44 175L105 519Q109 541 123 573T165 636T234 687T334 709Q391 709 424 688T475 637T495 575T495 520L434 175ZM410 784L426 872H496L480 784H410ZM218 784L234 872H304L288 784H218Z"
/>
<glyph unicode="&#xd7;" glyph-name="multiply" horiz-adv-x="455" d="M325 93L215 226L60 93L24 137L180 269L70 402L122 446L231 313L387 446L422 402L267 269L376 137L325 93Z" />
<glyph unicode="&#xd8;" glyph-name="Oslash" horiz-adv-x="521" d="M428 520Q435 557 425 579T396 614T357 631T320 635Q305 635 283 631T238 614T197 579T172 519L111 175Q105 137 115 116T144 83T183 68T220 65Q235 65 257 68T302 83T343 116T367 175L428 520ZM435
175Q431 153 417 122T376 61T306 12T206 -9Q150 -9 116 11T65 61T44 121T44 175L105 519Q109 541 123 573T165 636T234 687T334 709Q391 709 424 688T475 637T496 575T496 520L435 175ZM441 765L173 -65H100L368 765H441Z" />
<glyph unicode="&#xd9;" glyph-name="Ugrave" horiz-adv-x="536" d="M226 56Q243 56 266 61T312 79T352 116T377 176L469 701H533L441 176Q436 147 421 115T379 55T312 11T215 -7Q159 -7 125 10T74 55T54 114T55 176L147 701H212L120 176Q113 139 121 116T147
80T185 61T226 56ZM329 773L243 930H320L396 773H329Z" />
<glyph unicode="&#xda;" glyph-name="Uacute" horiz-adv-x="536" d="M226 56Q243 56 266 61T312 79T352 116T377 176L469 701H533L441 176Q436 147 421 115T379 55T312 11T215 -7Q159 -7 125 10T74 55T54 114T55 176L147 701H212L120 176Q113 139 121 116T147
80T185 61T226 56ZM378 774H311L441 931H518L378 774Z" />
<glyph unicode="&#xdb;" glyph-name="Ucircumflex" horiz-adv-x="536" d="M226 56Q243 56 266 61T312 79T352 116T377 176L469 701H533L441 176Q436 147 421 115T379 55T312 11T215 -7Q159 -7 125 10T74 55T54 114T55 176L147 701H212L120 176Q113 139 121 116T147
80T185 61T226 56ZM432 809L372 885L286 809H221L353 944H412L496 809H432Z" />
<glyph unicode="&#xdc;" glyph-name="Udieresis" horiz-adv-x="536" d="M226 56Q243 56 266 61T312 79T352 116T377 176L469 701H533L441 176Q436 147 421 115T379 55T312 11T215 -7Q159 -7 125 10T74 55T54 114T55 176L147 701H212L120 176Q113 139 121 116T147
80T185 61T226 56ZM413 784L429 872H499L483 784H413ZM221 784L237 872H307L291 784H221Z" />
<glyph unicode="&#xdd;" glyph-name="Yacute" horiz-adv-x="434" d="M262 312H251L196 0H131L186 312H178L84 700H152L231 384V384L422 700H490L262 312ZM327 774H260L390 931H467L327 774Z" />
<glyph unicode="&#xde;" glyph-name="Thorn" horiz-adv-x="433" d="M103 80Q127 67 151 61T204 55Q219 55 233 61T260 78T280 103T292 133L334 372Q340 404 322 427T273 450Q252 450 220 442T163 420L103 80ZM174 490Q215 509 242 511T284 514Q313 514 336 503T374
471T395 425T397 369L356 137Q351 107 336 81T298 35T248 4T192 -7Q172 -7 146 -3T89 15L43 -244H-19L149 700H211L174 490Z" />
<glyph unicode="&#xdf;" glyph-name="germandbls" horiz-adv-x="506" d="M444 188Q440 164 427 132T389 71T324 21T226 0H168L179 66H235Q251 66 272 70T314 88T352 125T376 188L383 230Q390 269 383 293T362 330T329 347T294 351H264L276 417H308Q350 417 375
444T409 518Q416 557 408 581T383 618T348 635T312 639Q296 639 275 635T232 618T194 581T170 518L79 0H12L103 520Q107 542 120 574T158 635T224 684T324 705Q382 705 414 685T462 635T478 573T476 518Q469 480 448 443T390 388Q416 374 430 354T449 312T455 268T451
232L444 188V188Z" />
<glyph unicode="&#xe0;" glyph-name="agrave" horiz-adv-x="405" d="M275 243Q275 244 268 248T247 258T215 267T176 271Q161 271 147 265T120 248T100 223T89 194L78 132Q72 100 89 78T137 55Q148 55 167 60T204 71Q225 78 248 88L275 243ZM306 57L324 37L271
-8L249 19Q215 4 180 -3T127 -10Q98 -10 75 1T37 33T17 79T16 136L26 191Q31 220 46 246T83 291T131 322T187 334Q193 334 205 334T232 331T262 324T289 312L292 333Q296 354 292 375T278 412T252 438T217 448Q210 448 188 443T143 433Q116 426 83 418L77 478Q112
487 142 494Q168 500 192 505T228 510Q260 510 286 495T329 455T352 399T353 333L306 57ZM484 573L398 730H475L551 573H484Z" />
<glyph unicode="&#xe1;" glyph-name="aacute" horiz-adv-x="405" d="M275 243Q275 244 268 248T247 258T215 267T176 271Q161 271 147 265T120 248T100 223T89 194L78 132Q72 100 89 78T137 55Q148 55 167 60T204 71Q225 78 248 88L275 243ZM306 57L324 37L271
-8L249 19Q215 4 180 -3T127 -10Q98 -10 75 1T37 33T17 79T16 136L26 191Q31 220 46 246T83 291T131 322T187 334Q193 334 205 334T232 331T262 324T289 312L292 333Q296 354 292 375T278 412T252 438T217 448Q210 448 188 443T143 433Q116 426 83 418L77 478Q112
487 142 494Q168 500 192 505T228 510Q260 510 286 495T329 455T352 399T353 333L306 57ZM536 574H469L599 731H676L536 574Z" />
<glyph unicode="&#xe2;" glyph-name="acircumflex" horiz-adv-x="405" d="M275 243Q275 244 268 248T247 258T215 267T176 271Q161 271 147 265T120 248T100 223T89 194L78 132Q72 100 89 78T137 55Q148 55 167 60T204 71Q225 78 248 88L275 243ZM306 57L324 37L271
-8L249 19Q215 4 180 -3T127 -10Q98 -10 75 1T37 33T17 79T16 136L26 191Q31 220 46 246T83 291T131 322T187 334Q193 334 205 334T232 331T262 324T289 312L292 333Q296 354 292 375T278 412T252 438T217 448Q210 448 188 443T143 433Q116 426 83 418L77 478Q112
487 142 494Q168 500 192 505T228 510Q260 510 286 495T329 455T352 399T353 333L306 57ZM591 609L531 685L445 609H380L512 744H571L655 609H591Z" />
<glyph unicode="&#xe3;" glyph-name="atilde" horiz-adv-x="405" d="M275 243Q275 244 268 248T247 258T215 267T176 271Q161 271 147 265T120 248T100 223T89 194L78 132Q72 100 89 78T137 55Q148 55 167 60T204 71Q225 78 248 88L275 243ZM306 57L324 37L271
-8L249 19Q215 4 180 -3T127 -10Q98 -10 75 1T37 33T17 79T16 136L26 191Q31 220 46 246T83 291T131 322T187 334Q193 334 205 334T232 331T262 324T289 312L292 333Q296 354 292 375T278 412T252 438T217 448Q210 448 188 443T143 433Q116 426 83 418L77 478Q112
487 142 494Q168 500 192 505T228 510Q260 510 286 495T329 455T352 399T353 333L306 57ZM648 651L665 589H387L367 651H648Z" />
<glyph unicode="&#xe4;" glyph-name="adieresis" horiz-adv-x="405" d="M275 243Q275 244 268 248T247 258T215 267T176 271Q161 271 147 265T120 248T100 223T89 194L78 132Q72 100 89 78T137 55Q148 55 167 60T204 71Q225 78 248 88L275 243ZM306 57L324 37L271
-8L249 19Q215 4 180 -3T127 -10Q98 -10 75 1T37 33T17 79T16 136L26 191Q31 220 46 246T83 291T131 322T187 334Q193 334 205 334T232 331T262 324T289 312L292 333Q296 354 292 375T278 412T252 438T217 448Q210 448 188 443T143 433Q116 426 83 418L77 478Q112
487 142 494Q168 500 192 505T228 510Q260 510 286 495T329 455T352 399T353 333L306 57ZM567 584L583 672H653L637 584H567ZM375 584L391 672H461L445 584H375Z" />
<glyph unicode="&#xe6;" glyph-name="ae" horiz-adv-x="640" d="M254 24Q218 4 183 -3T128 -10Q99 -10 76 1T38 33T17 79T16 136L26 191Q31 220 46 246T83 291T132 322T188 334Q194 334 206 334T232 331T261 325T288 313L293 345Q293 364 288 383T273 416T249
439T217 448Q210 448 189 443T144 433Q117 426 84 418L77 478Q112 487 142 494Q168 500 192 505T228 510Q264 510 291 493T335 447Q359 477 391 493T461 510H494Q523 510 546 499T586 469T608 423T609 365L603 333Q595 290 575 261T526 214T460 188T384 180Q356
180 329 183L320 133Q322 98 345 76T403 54Q405 54 427 58T475 69Q505 75 542 84L547 18Q508 10 475 4Q447 -1 422 -5T392 -9Q357 -9 326 6T281 40L254 24ZM177 271Q162 271 148 265T121 248T101 223T90 194L79 132Q73 100 90 78T138 55Q149 55 168 60T205 71Q226
78 249 88L256 129Q256 134 257 139T259 150L275 240Q270 243 261 248T239 258T211 267T177 271ZM448 249Q464 248 479 254T506 272T527 298T539 329L546 370Q550 391 544 405T526 429T497 442T461 446Q427 446 398 426T362 370L340 249H448Z" />
<glyph unicode="&#xe7;" glyph-name="ccedilla" horiz-adv-x="350" d="M89 151Q85 129 90 111T106 81T134 61T171 54Q179 54 195 56T227 63Q245 67 265 73L274 15Q252 8 232 3Q214 -2 195 -5T160 -8Q127 -8 100 4T54 37T29 87T27 151L63 354Q69 388 86 417T129
467T186 499T251 511Q267 511 285 507T318 497Q336 491 353 483L327 428Q312 434 296 438Q282 442 267 445T240 449Q200 449 167 423T125 354L89 151ZM430 -89Q420 -145 398 -174T343 -218L315 -172Q335 -164 349 -142T370 -88L380 -31H440L430 -89V-89Z" />
<glyph unicode="&#xe8;" glyph-name="egrave" horiz-adv-x="409" d="M219 248Q234 248 249 254T276 272T296 298T308 329L315 370Q319 391 313 405T295 429T266 442T230 446Q196 446 167 426T131 370L109 249L219 248ZM65 365Q70 395 85 421T123 467T173 498T230
510H263Q292 510 315 499T354 469T376 423T378 365L372 333Q364 290 344 261T295 214T229 188T153 180Q125 180 98 183L89 133Q90 98 113 76T172 54Q174 54 196 58T244 69Q274 75 311 84L316 18Q277 10 244 4Q216 -1 191 -5T161 -9Q128 -9 101 3T55 36T29 86T27
150L65 365ZM489 573L403 730H480L556 573H489Z" />
<glyph unicode="&#xe9;" glyph-name="eacute" horiz-adv-x="409" d="M219 248Q234 248 249 254T276 272T296 298T308 329L315 370Q319 391 313 405T295 429T266 442T230 446Q196 446 167 426T131 370L109 249L219 248ZM65 365Q70 395 85 421T123 467T173 498T230
510H263Q292 510 315 499T354 469T376 423T378 365L372 333Q364 290 344 261T295 214T229 188T153 180Q125 180 98 183L89 133Q90 98 113 76T172 54Q174 54 196 58T244 69Q274 75 311 84L316 18Q277 10 244 4Q216 -1 191 -5T161 -9Q128 -9 101 3T55 36T29 86T27
150L65 365ZM545 574H478L608 731H685L545 574Z" />
<glyph unicode="&#xea;" glyph-name="ecircumflex" horiz-adv-x="409" d="M219 248Q234 248 249 254T276 272T296 298T308 329L315 370Q319 391 313 405T295 429T266 442T230 446Q196 446 167 426T131 370L109 249L219 248ZM65 365Q70 395 85 421T123 467T173
498T230 510H263Q292 510 315 499T354 469T376 423T378 365L372 333Q364 290 344 261T295 214T229 188T153 180Q125 180 98 183L89 133Q90 98 113 76T172 54Q174 54 196 58T244 69Q274 75 311 84L316 18Q277 10 244 4Q216 -1 191 -5T161 -9Q128 -9 101 3T55 36T29
86T27 150L65 365ZM590 609L530 685L444 609H379L511 744H570L654 609H590Z" />
<glyph unicode="&#xeb;" glyph-name="edieresis" horiz-adv-x="409" d="M219 248Q234 248 249 254T276 272T296 298T308 329L315 370Q319 391 313 405T295 429T266 442T230 446Q196 446 167 426T131 370L109 249L219 248ZM65 365Q70 395 85 421T123 467T173 498T230
510H263Q292 510 315 499T354 469T376 423T378 365L372 333Q364 290 344 261T295 214T229 188T153 180Q125 180 98 183L89 133Q90 98 113 76T172 54Q174 54 196 58T244 69Q274 75 311 84L316 18Q277 10 244 4Q216 -1 191 -5T161 -9Q128 -9 101 3T55 36T29 86T27
150L65 365ZM580 584L596 672H666L650 584H580ZM388 584L404 672H474L458 584H388Z" />
<glyph unicode="&#xec;" glyph-name="igrave" horiz-adv-x="188" d="M98 500H163L75 0H10L98 500ZM115 580L29 737H106L182 580H115Z" />
<glyph unicode="&#xed;" glyph-name="iacute" horiz-adv-x="189" d="M98 500H164L76 0H10L98 500ZM180 581H113L243 738H320L180 581Z" />
<glyph unicode="&#xee;" glyph-name="icircumflex" horiz-adv-x="189" d="M132 695H198L182 605H116L132 695ZM98 500H164L76 0H10L98 500ZM223 609L163 685L77 609H12L144 744H203L287 609H223Z" />
<glyph unicode="&#xef;" glyph-name="idieresis" horiz-adv-x="188" d="M98 500H163L75 0H10L98 500ZM211 591L227 679H297L281 591H211ZM19 591L35 679H105L89 591H19Z" />
<glyph unicode="&#xf1;" glyph-name="ntilde" horiz-adv-x="432" d="M381 425Q389 399 387 374T379 322L323 0H258L320 352Q327 398 307 422T257 447Q240 447 213 443T147 415L74 0H11L89 443L69 466L121 511L146 481Q203 509 251 509Q273 509 294 505T333 490T362
464T381 425ZM656 651L673 589H395L375 651H656Z" />
<glyph unicode="&#xf2;" glyph-name="ograve" horiz-adv-x="418" d="M318 358Q323 388 316 405T295 432T265 445T236 448Q224 448 207 445T172 433T141 406T122 358L84 147Q79 117 86 99T108 72T138 59T167 55Q179 55 196 58T230 71T261 99T280 147L318 358ZM337
140Q329 93 307 65T257 20T203 -1T156 -6Q137 -6 111 -1T64 20T30 64T26 140L66 365Q74 412 96 440T146 484T200 505T247 510Q266 510 291 505T339 485T373 441T377 365L337 140ZM485 573L399 730H476L552 573H485Z" />
<glyph unicode="&#xf3;" glyph-name="oacute" horiz-adv-x="418" d="M319 358Q324 388 317 405T296 432T266 445T237 448Q225 448 208 445T173 433T142 406T123 358L85 147Q80 117 87 99T109 72T139 59T168 55Q180 55 197 58T231 71T262 99T281 147L319 358ZM338
140Q330 93 308 65T258 20T204 -1T157 -6Q138 -6 112 -1T65 20T31 64T27 140L67 365Q75 412 97 440T147 484T201 505T248 510Q267 510 292 505T340 485T374 441T378 365L338 140ZM540 574H473L603 731H680L540 574Z" />
<glyph unicode="&#xf4;" glyph-name="ocircumflex" horiz-adv-x="418" d="M319 358Q324 388 317 405T296 432T266 445T237 448Q225 448 208 445T173 433T142 406T123 358L85 147Q80 117 87 99T109 72T139 59T168 55Q180 55 197 58T231 71T262 99T281 147L319 358ZM338
140Q330 93 308 65T258 20T204 -1T157 -6Q138 -6 112 -1T65 20T31 64T27 140L67 365Q75 412 97 440T147 484T201 505T248 510Q267 510 292 505T340 485T374 441T378 365L338 140ZM595 609L535 685L449 609H384L516 744H575L659 609H595Z" />
<glyph unicode="&#xf5;" glyph-name="otilde" horiz-adv-x="418" d="M319 358Q324 388 317 405T296 432T266 445T237 448Q225 448 208 445T173 433T142 406T123 358L85 147Q80 117 87 99T109 72T139 59T168 55Q180 55 197 58T231 71T262 99T281 147L319 358ZM338
140Q330 93 308 65T258 20T204 -1T157 -6Q138 -6 112 -1T65 20T31 64T27 140L67 365Q75 412 97 440T147 484T201 505T248 510Q267 510 292 505T340 485T374 441T378 365L338 140ZM655 651L672 589H394L374 651H655Z" />
<glyph unicode="&#xf6;" glyph-name="odieresis" horiz-adv-x="418" d="M319 358Q324 388 317 405T296 432T266 445T237 448Q225 448 208 445T173 433T142 406T123 358L85 147Q80 117 87 99T109 72T139 59T168 55Q180 55 197 58T231 71T262 99T281 147L319 358ZM338
140Q330 93 308 65T258 20T204 -1T157 -6Q138 -6 112 -1T65 20T31 64T27 140L67 365Q75 412 97 440T147 484T201 505T248 510Q267 510 292 505T340 485T374 441T378 365L338 140ZM577 584L593 672H663L647 584H577ZM385 584L401 672H471L455 584H385Z" />
<glyph unicode="&#xf7;" glyph-name="divide" horiz-adv-x="445" d="M193 312L210 413H291L274 312H193ZM137 1L154 100H235L218 1H137ZM285 429L298 505H645L632 429H285Z" />
<glyph unicode="&#xf8;" glyph-name="oslash" horiz-adv-x="419" d="M318 358Q323 388 316 405T295 432T265 445T236 448Q224 448 207 445T172 433T141 406T122 358L84 147Q79 117 86 99T108 72T138 59T167 55Q179 55 196 58T230 71T261 99T280 147L318 358ZM337
140Q329 93 307 65T257 20T203 -1T156 -6Q137 -6 111 -1T64 20T30 64T26 140L66 365Q74 412 96 440T146 484T200 505T247 510Q266 510 291 505T339 485T373 441T377 365L337 140ZM277 861H349L127 168H55L277 861Z" />
<glyph unicode="&#xf9;" glyph-name="ugrave" horiz-adv-x="432" d="M36 76Q28 102 30 127T37 179L94 500H158L96 149Q88 103 108 79T159 54Q188 54 219 64T270 86L343 500H406L328 58L349 35L296 -10L271 20Q241 6 208 -1T149 -8Q131 -8 113 -4T80 11T54 37T36
76ZM488 573L402 730H479L555 573H488Z" />
<glyph unicode="&#xfa;" glyph-name="uacute" horiz-adv-x="432" d="M36 76Q28 102 30 127T37 179L94 500H158L96 149Q88 103 108 79T159 54Q188 54 219 64T270 86L343 500H406L328 58L349 35L296 -10L271 20Q241 6 208 -1T149 -8Q131 -8 113 -4T80 11T54 37T36
76ZM540 574H473L603 731H680L540 574Z" />
<glyph unicode="&#xfb;" glyph-name="ucircumflex" horiz-adv-x="432" d="M36 76Q28 102 30 127T37 179L94 500H158L96 149Q88 103 108 79T159 54Q188 54 219 64T270 86L343 500H406L328 58L349 35L296 -10L271 20Q241 6 208 -1T149 -8Q131 -8 113 -4T80 11T54
37T36 76ZM599 609L539 685L453 609H388L520 744H579L663 609H599Z" />
<glyph unicode="&#xfc;" glyph-name="udieresis" horiz-adv-x="432" d="M36 76Q28 102 30 127T37 179L94 500H158L96 149Q88 103 108 79T159 54Q188 54 219 64T270 86L343 500H406L328 58L349 35L296 -10L271 20Q241 6 208 -1T149 -8Q131 -8 113 -4T80 11T54 37T36
76ZM584 584L600 672H670L654 584H584ZM392 584L408 672H478L462 584H392Z" />
<glyph unicode="&#xfd;" glyph-name="yacute" horiz-adv-x="380" d="M22 -243L105 0H100L56 500H120Q127 393 133 319T144 196Q149 141 154 105H155Q158 111 168 137T200 211T253 330T331 500H396L174 0H168Q148 -60 127 -121T86 -243H22ZM517 574H450L580 731H657L517
574Z" />
<glyph unicode="&#xfe;" glyph-name="thorn" horiz-adv-x="418" d="M83 81Q85 79 86 79V75L83 81ZM86 79Q109 65 133 60T187 54Q217 54 242 76T274 131L315 368Q321 400 304 423T255 446Q234 446 202 438T146 415L86 79ZM157 485Q197 503 224 506T266 509Q294
509 317 498T355 467T376 421T377 365L336 135Q331 105 316 79T279 34T230 3T175 -8Q155 -8 129 -4T73 14L28 -243H-34L132 694H194L157 485Z" />
<glyph unicode="&#xff;" glyph-name="ydieresis" horiz-adv-x="380" d="M22 -243L105 0H100L56 500H120Q127 393 133 319T144 196Q149 141 154 105H155Q158 111 168 137T200 211T253 330T331 500H396L174 0H168Q148 -60 127 -121T86 -243H22ZM558 584L574 672H644L628
584H558ZM366 584L382 672H452L436 584H366Z" />
<glyph unicode="&#x2013;" glyph-name="endash" horiz-adv-x="472" d="M46 203L58 269H405L393 203H46Z" />
<glyph unicode="&#x2014;" glyph-name="emdash" horiz-adv-x="735" d="M45 203L57 269H668L656 203H45Z" />
<glyph unicode="&#x201a;" glyph-name="quotesinglbase" horiz-adv-x="196" d="M178 444Q168 387 136 352T58 299L52 369Q69 377 85 394T107 445L117 501H188L178 444V444Z" />
<glyph unicode="&#x201c;" glyph-name="quotedblleft" horiz-adv-x="322" d="M93 554Q103 610 135 645T212 698L219 628Q201 620 185 603T163 553L153 496H83L93 554ZM220 554Q230 610 262 645T340 698L346 628Q328 620 313 603T291 553L281 496H210L220 554Z" />
<glyph unicode="&#x201d;" glyph-name="quotedblright" horiz-adv-x="316" d="M335 637Q325 580 293 545T215 492L209 562Q227 570 243 587T265 638L275 695H345L335 637ZM207 637Q197 580 165 545T88 492L81 562Q100 570 115 587T137 638L147 695H217L207 637Z" />
<glyph unicode="&#x2022;" glyph-name="bullet" horiz-adv-x="299" d="M249 247Q245 225 233 206T204 171T166 148T122 139Q100 139 82 147T52 171T35 205T34 247Q38 269 49 288T78 323T117 346T160 355Q182 355 200 347T230 323T247 289T249 247Z" />
</font>
</defs>
</svg>
