<?xml version="1.0" standalone="no"?>
<!DOCTYPE svg PUBLIC "-//W3C//DTD SVG 1.1//EN" "http://www.w3.org/Graphics/SVG/1.1/DTD/svg11.dtd">
<svg xmlns="http://www.w3.org/2000/svg">
<defs >
<font id="Warnes" horiz-adv-x="612" ><font-face
    font-family="Warnes"
    units-per-em="1000"
    panose-1="2 0 5 5 0 0 0 2 0 4"
    ascent="994"
    descent="-310"
    alphabetic="0" />
<glyph unicode=" " glyph-name="space" horiz-adv-x="400" />
<glyph unicode="!" glyph-name="exclam" horiz-adv-x="343" d="M241 760Q275 760 296 753T330 731T346 698T350 655Q350 619 343 564T321 437V220Q321 212 315 206T301 200H262Q254 200 248 206T241 220V760ZM214 61Q214 75 217 87T227 109T248 123T281 129Q320
129 334 109T349 61Q349 32 335 13T281 -6Q261 -6 248 -1T228 13T217 34T214 61Z" />
<glyph unicode="&quot;" glyph-name="quotedbl" horiz-adv-x="370" d="M165 561Q165 527 148 517T111 507H80V737Q80 774 99 785T141 797H165V561ZM340 561Q340 527 323 517T286 507H255V737Q255 774 274 785T316 797H340V561Z" />
<glyph unicode="#" glyph-name="numbersign" horiz-adv-x="717" d="M510 200L473 60Q463 24 448 12T396 0H377L430 200H240L203 60Q193 24 178 12T126 0H107L160 200H67Q67 234 77 252T121 270H178L224 440H131Q131 474 141 492T185 510H242L280 650Q286 671 292
683T308 701T329 708T357 710H376L322 510H512L550 650Q556 671 562 683T578 701T599 708T627 710H646L592 510H687Q687 476 677 458T633 440H574L529 270H623Q623 236 613 218T569 200H510ZM259 270H448L494 440H304L259 270Z" />
<glyph unicode="$" glyph-name="dollar" horiz-adv-x="600" d="M330 699Q383 710 447 710Q466 710 481 699T497 650V630H438Q406 630 380 627T330 618V374H453Q468 374 481 372T505 361T521 336T527 294Q527 254 517 215T483 142T422 78T330 30V10Q330 -26 318
-38T269 -50H260V12Q200 0 123 0Q114 0 105 2T88 11T77 29T72 60V70H124Q204 70 260 85V299H146Q131 299 118 302T94 315T78 341T72 384Q72 425 80 468T110 551T168 624T260 679V700Q260 721 263 733T274 751T293 758T321 760H330V699ZM260 374V589Q226 568 207
541T177 484T165 426T162 374H260ZM330 299V111Q364 129 385 152T417 201T433 252T437 299H330Z" />
<glyph unicode="%" glyph-name="percent" horiz-adv-x="1028" d="M518 60Q512 42 506 31T492 12T471 3T441 0H432L659 650Q666 670 673 682T688 700T708 708T736 710H745L518 60ZM446 726Q480 726 490 709T501 668V552Q501 483 490 433T452 350T376 303T255 287Q220
287 210 304T200 345V461Q200 530 210 580T249 663T324 710T446 726ZM431 662Q378 661 347 650T298 614T276 552T270 461V351Q322 352 353 363T402 399T425 461T431 552V662ZM923 439Q957 439 967 422T978 381V265Q978 196 967 146T929 63T853 16T732 0Q697 0 687
17T677 58V174Q677 243 687 293T726 376T801 423T923 439ZM908 375Q855 374 824 363T775 327T753 265T747 174V64Q799 65 830 76T879 112T902 174T908 265V375Z" />
<glyph unicode="&amp;" glyph-name="ampersand" horiz-adv-x="693" d="M883 70Q883 48 877 35T861 14T839 3T813 0H243Q224 0 208 2T179 13T160 38T153 80Q153 117 163 157T193 238T239 314T299 380Q288 427 288 465Q288 516 306 562T364 644T464 699T610 720Q644
720 654 703T664 666V640H610Q544 640 499 626T425 589T383 535T370 469Q370 431 381 387T416 298T475 212T558 140T663 89T793 70H883ZM528 70Q457 108 406 169T326 298Q280 250 257 189T233 70H528Z" />
<glyph unicode="&apos;" glyph-name="quotesingle" horiz-adv-x="195" d="M165 561Q165 527 148 517T111 507H80V737Q80 774 99 785T141 797H165V561Z" />
<glyph unicode="(" glyph-name="parenleft" horiz-adv-x="241" d="M20 355Q20 462 44 539T97 667Q131 725 175 764Q181 770 189 770Q195 770 200 764L225 739Q231 733 231 726Q231 721 230 719T226 713Q194 680 168 630Q146 586 128 519T110 355Q110 258 128 191T168
80Q194 29 226 -3Q228 -6 229 -8T231 -16Q231 -23 225 -29L200 -56Q194 -60 189 -60Q182 -60 175 -55Q131 -16 97 43Q68 93 44 170T20 355Z" />
<glyph unicode=")" glyph-name="parenright" horiz-adv-x="431" d="M411 355Q411 248 387 171T333 43Q299 -16 256 -55Q249 -60 242 -60Q237 -60 231 -56L206 -29Q200 -23 200 -16Q200 -11 201 -9T205 -3Q237 29 263 80Q285 123 303 190T321 355Q321 452 303 519T263
630Q237 680 205 713Q203 716 202 718T200 726Q200 733 206 739L231 764Q235 770 242 770Q250 770 256 764Q299 725 333 667Q362 617 386 540T411 355Z" />
<glyph unicode="*" glyph-name="asterisk" horiz-adv-x="698" d="M632 713Q632 666 605 631T543 572Q562 564 586 564Q606 564 630 569T683 583Q693 547 695 537T698 522Q698 499 676 489T625 479Q590 479 561 492T506 529V521Q506 492 520 463T561 398L525 372Q509
361 496 361Q481 361 470 372T452 399T441 433T437 465Q437 507 453 547Q424 539 399 516T347 455L310 481Q290 495 290 516Q290 537 306 553T346 581T394 598T438 604H455Q440 630 410 646T334 676L348 719Q359 752 386 752Q410 752 430 739T467 706T494 663T510
620Q530 643 536 676T543 756H586Q608 756 620 746T632 713Z" />
<glyph unicode="+" glyph-name="plus" horiz-adv-x="460" d="M272 299H175Q161 299 152 302T138 313T132 336T130 374H272V471Q272 485 275 494T286 508T309 514T347 516V374H445Q473 374 481 360T490 299H347V201Q347 187 344 178T333 164T310 158T272 156V299Z" />
<glyph unicode="," glyph-name="comma" horiz-adv-x="343" d="M194 -157Q203 -139 212 -120T228 -76T239 -16T244 68V123H275Q313 123 330 104T348 41Q348 11 338 -21T310 -84T272 -142T231 -188L194 -157Z" />
<glyph unicode="-" glyph-name="hyphen" horiz-adv-x="460" d="M325 374Q339 374 352 371T376 360T393 337T400 299H175Q161 299 148 302T124 313T107 336T100 374H325Z" />
<glyph unicode="." glyph-name="period" horiz-adv-x="343" d="M214 61Q214 75 217 87T227 109T248 123T281 129Q320 129 334 109T349 61Q349 32 335 13T281 -6Q261 -6 248 -1T228 13T217 34T214 61Z" />
<glyph unicode="/" glyph-name="slash" horiz-adv-x="360" d="M213 60Q203 24 188 12T136 0H107L294 700Q300 721 306 733T322 751T343 758T371 760H400L213 60Z" />
<glyph unicode="0" glyph-name="zero" horiz-adv-x="600" d="M563 720Q588 720 603 714T627 696T639 669T642 636V438Q642 323 624 240T561 104T436 26T236 0Q211 0 196 6T172 24T160 51T157 84V282Q157 397 175 480T238 616T362 694T563 720ZM552 640Q452 640
392 620T300 557T257 446T247 282V80Q347 80 407 100T499 163T542 274T552 438V640Z" />
<glyph unicode="1" glyph-name="one" horiz-adv-x="600" d="M194 0Q194 44 216 62T264 80H364V490Q335 455 292 436T196 416Q188 416 182 422T176 436V476Q176 484 182 490T196 496Q244 496 277 514T331 558T361 608T370 648V710H418Q445 710 460 698T475 657Q475
641 469 622T453 583V80H623Q623 36 601 18T553 0H194Z" />
<glyph unicode="2" glyph-name="two" horiz-adv-x="600" d="M416 710Q470 710 507 705T566 684T598 639T608 561Q608 505 577 441T498 312T395 188T293 80H638Q638 36 616 18T568 0H149Q149 20 154 35T169 60Q226 124 287 189T400 319T484 444T518 561Q518 584
513 597T496 618T465 628T416 630H235Q226 630 218 632T202 641T191 659T186 690V710H416Z" />
<glyph unicode="3" glyph-name="three" horiz-adv-x="600" d="M411 710Q465 710 502 705T561 686T593 647T603 581Q603 564 598 543T580 498T550 451T507 410H534Q562 410 579 405T607 389T620 364T624 330V320Q624 237 604 177T541 77T430 19T266 0Q238 0 221
7T193 26T180 52T176 80H266Q341 80 392 90T474 128T520 208T534 340H327Q304 340 285 349T266 387V410H349Q385 410 415 427T467 470T501 525T513 581Q513 612 491 621T411 630H245Q236 630 228 632T212 641T201 659T196 690V710H411Z" />
<glyph unicode="4" glyph-name="four" horiz-adv-x="600" d="M256 720Q298 720 316 714T334 683Q334 673 331 660Q320 612 309 567T286 473T260 372T229 255H479V520Q479 528 485 534T499 540H548Q556 540 562 534T569 520V255H641Q647 255 651 251T656 240V191Q656
185 652 180T641 175H569V0H540Q529 0 518 2T499 11T485 29T479 60V175H215Q187 175 167 194T147 255L256 720Z" />
<glyph unicode="5" glyph-name="five" horiz-adv-x="600" d="M531 710Q559 710 574 694T590 640V630H388Q354 630 329 625T288 604T264 561T256 491V420H524Q552 420 569 413T597 394T610 366T614 330V320Q614 237 594 177T531 77T420 19T256 0Q228 0 211 7T183
26T170 52T166 80H256Q331 80 382 90T464 128T510 208T524 340H227Q204 340 185 349T166 387V491Q166 603 215 656T385 710H531Z" />
<glyph unicode="6" glyph-name="six" horiz-adv-x="600" d="M544 430Q572 430 589 423T617 404T630 376T634 340V330Q634 163 542 82T256 0Q228 0 211 7T183 26T170 54T166 90V312Q166 426 182 504T240 630T358 699T551 720Q579 720 594 704T610 650V640H551Q461
640 405 628T317 587T273 508T257 385Q278 407 311 418T393 430H544ZM393 350Q358 350 333 345T290 325T265 285T256 219V80Q331 80 385 92T474 134T527 216T544 350H393Z" />
<glyph unicode="7" glyph-name="seven" horiz-adv-x="630" d="M588 710Q616 710 636 691T656 630L396 -10Q354 -10 336 -4T318 27Q318 35 330 68T363 150T411 261T466 386T521 514T570 630H235Q226 630 218 632T202 641T191 659T186 690V710H588Z" />
<glyph unicode="8" glyph-name="eight" horiz-adv-x="600" d="M168 191Q168 289 218 338Q194 348 186 367T178 412Q178 493 203 551T276 646T391 702T544 720Q571 720 588 714T614 696T627 670T631 638V529Q631 480 621 444T587 383Q613 374 622 354T631 308Q631
227 604 169T528 74T410 18T255 0Q228 0 211 6T185 24T172 50T168 82V191ZM400 325Q366 325 340 320T295 300T268 260T258 196V80Q330 80 384 91T474 130T528 205T546 325H400ZM409 395Q443 395 468 400T509 420T533 460T541 524V640Q469 640 417 629T330 590T280
515T263 395H409Z" />
<glyph unicode="9" glyph-name="nine" horiz-adv-x="600" d="M537 710Q564 710 581 703T609 684T622 656T626 620V408Q626 294 610 216T552 90T434 21T241 0Q213 0 198 16T182 70V80H241Q337 80 395 94T484 142T525 235T536 380Q495 329 429 305T260 280Q233 280
216 287T190 306T177 334T173 370V491Q173 603 222 656T392 710H537ZM395 630Q361 630 336 625T295 604T271 561T263 491V360Q335 360 387 371T474 413T524 496T541 630H395Z" />
<glyph unicode=":" glyph-name="colon" horiz-adv-x="343" d="M214 61Q214 75 217 87T227 109T248 123T281 129Q320 129 334 109T349 61Q349 32 335 13T281 -6Q261 -6 248 -1T228 13T217 34T214 61ZM214 481Q214 495 217 507T227 529T248 543T281 549Q320 549
334 529T349 481Q349 452 335 433T281 414Q261 414 248 419T228 433T217 454T214 481Z" />
<glyph unicode=";" glyph-name="semicolon" horiz-adv-x="343" d="M194 -157Q203 -139 212 -120T228 -76T239 -16T244 68V123H275Q313 123 330 104T348 41Q348 11 338 -21T310 -84T272 -142T231 -188L194 -157ZM218 481Q218 495 221 507T231 529T252 543T285 549Q324
549 338 529T353 481Q353 452 339 433T285 414Q265 414 252 419T232 433T221 454T218 481Z" />
<glyph unicode="&lt;" glyph-name="less" horiz-adv-x="460" d="M159 288Q130 302 130 334Q130 367 159 380L477 526Q493 490 493 471Q493 460 486 453T465 440L233 334L465 228Q479 222 486 215T493 197Q493 178 477 142L159 288Z" />
<glyph unicode="=" glyph-name="equal" horiz-adv-x="460" d="M445 469Q473 469 481 455T490 394H175Q161 394 152 397T138 408T132 431T130 469H445ZM445 279Q473 279 481 265T490 204H175Q161 204 152 207T138 218T132 241T130 279H445Z" />
<glyph unicode="&gt;" glyph-name="greater" horiz-adv-x="460" d="M146 142Q130 178 130 197Q130 208 137 215T158 228L390 334L158 440Q144 446 137 453T130 471Q130 490 146 526L464 380Q493 367 493 334Q493 302 464 288L146 142Z" />
<glyph unicode="?" glyph-name="question" horiz-adv-x="601" d="M214 61Q214 75 217 87T227 109T248 123T281 129Q320 129 334 109T349 61Q349 32 335 13T281 -6Q261 -6 248 -1T228 13T217 34T214 61ZM178 690V716Q178 736 188 753T232 770Q298 770 363 750T482
685T568 572T601 403Q601 377 594 360T575 332T547 317T511 313H321V220Q321 212 315 206T301 200H262Q254 200 248 206T241 220V343Q241 354 243 365T252 384T270 398T301 403H521Q521 453 507 504T459 596T370 664T232 690H178Z" />
<glyph unicode="@" glyph-name="at" horiz-adv-x="963" d="M713 223Q731 223 749 225T783 241T809 283T819 361V674Q704 674 620 671T475 656T377 621T318 560T288 465T280 328V70H1190Q1190 48 1184 35T1168 14T1146 3T1120 0H265Q228 0 209 16T190 75V328Q190
421 202 488T242 602T318 677T437 722T607 743T834 749Q871 749 890 733T909 674V361Q909 300 892 260T846 196T783 162T713 152H686Q676 152 667 154T650 162T638 178T633 206V274Q593 214 541 181T441 148Q397 148 382 169T366 223V413Q366 456 375 487T404 539T458
570T538 580Q565 580 575 566T585 518V501H533Q510 501 494 498T467 485T451 458T446 413V223Q471 227 503 242T565 289T613 367T633 483V573H664Q728 573 728 496Q728 478 724 459T713 424V223Z" />
<glyph unicode="A" glyph-name="A" horiz-adv-x="779" d="M969 70Q969 48 963 35T947 14T925 3T899 0H586Q575 0 564 2T545 11T531 29T526 60V299H222Q208 247 201 188T194 60Q194 22 178 11T139 0H104V60Q104 190 126 289T187 462T277 585T385 664T501 707T616
720Q650 720 660 703T670 666V640H616V70H969ZM526 630Q438 610 365 548T247 374H526V630Z" />
<glyph unicode="B" glyph-name="B" horiz-adv-x="733" d="M179 70Q262 70 326 86T439 127T520 185T573 251T602 314T611 367H489Q469 356 442 350T390 343Q373 343 356 348T325 364T303 393T294 437H427Q465 437 492 453T536 493T562 540T570 581Q570 612 548
621T468 630H250V180Q250 161 245 150T231 132T211 123T189 120H160V630H90V650Q90 669 94 680T106 698T121 707T139 710H468Q522 710 559 705T618 686T650 647T660 581Q660 552 642 511T583 437H601Q620 437 636 435T665 424T684 399T691 357Q691 322 679 284T640
207T575 133T482 70H923Q923 48 917 35T901 14T879 3T853 0H166Q155 0 144 2T125 11T111 29T106 60V70H179Z" />
<glyph unicode="C" glyph-name="C" horiz-adv-x="555" d="M745 70Q745 48 739 35T723 14T701 3T675 0H175Q156 0 140 2T111 13T92 38T85 80Q85 257 124 379T226 577T369 686T532 720Q566 720 576 703T586 666V640H532Q446 640 380 602T268 490T199 311T175 70H745Z" />
<glyph unicode="D" glyph-name="D" horiz-adv-x="713" d="M671 219Q671 177 655 137T594 70H903Q903 48 897 35T881 14T859 3T833 0H150Q139 0 128 2T109 11T95 29T90 60V70H419Q465 70 496 84T546 121T573 169T581 219Q581 277 564 340T508 459T406 560T250 625V180Q250
161 245 150T231 132T211 123T189 120H160V638Q146 639 133 639T106 640V660Q106 697 124 708T166 720Q263 720 354 683T515 578T628 419T671 219Z" />
<glyph unicode="E" glyph-name="E" horiz-adv-x="693" d="M883 70Q883 48 877 35T861 14T839 3T813 0H243Q224 0 208 2T179 13T160 38T153 80Q153 102 159 129T179 186T211 244T256 299Q238 299 223 302T197 314T180 338T173 379Q173 415 189 454T236 532T310
604T406 664T520 705T650 720Q684 720 694 703T704 666V640H650Q545 640 470 611T347 540T276 453T253 374H360Q389 388 422 395T494 403Q511 403 528 398T559 381T581 349T590 299H388Q344 276 314 246T266 185T241 123T233 70H883Z" />
<glyph unicode="F" glyph-name="F" horiz-adv-x="547" d="M190 299H60Q60 339 82 356T130 374H190Q190 413 196 454T217 533T257 605T320 665T410 705T531 720Q548 720 562 709T577 660V640H525Q467 640 427 627T359 591T316 540T292 483T282 425T280 374H757Q757
352 751 338T735 315T713 303T687 299H280V0Q280 -85 265 -144T218 -240T135 -293T13 -310Q-19 -310 -31 -294T-43 -241V-230H13Q58 -230 91 -224T146 -193T179 -123T190 2V299Z" />
<glyph unicode="G" glyph-name="G" horiz-adv-x="715" d="M495 70V320Q495 328 501 334T515 340H564Q572 340 578 334T585 320V70H905Q905 48 899 35T883 14T861 3T835 0H584Q582 -92 566 -152T517 -247T436 -296T318 -310Q286 -310 274 -294T262 -241V-230H318Q363
-230 395 -224T449 -193T481 -124T494 0H175Q156 0 140 2T111 13T92 38T85 80Q85 257 124 379T226 577T369 686T532 720Q566 720 576 703T586 666V640H532Q446 640 380 602T268 490T199 311T175 70H495Z" />
<glyph unicode="H" glyph-name="H" horiz-adv-x="807" d="M677 70H997Q997 48 991 35T975 14T953 3T927 0H647Q636 0 625 2T606 11T592 29T587 60V299H250V0H221Q210 0 199 2T180 11T166 29T160 60V690Q160 698 166 704T180 710H229Q237 710 243 704T250 690V374H587V690Q587
698 593 704T607 710H656Q664 710 670 704T677 690V70Z" />
<glyph unicode="I" glyph-name="I" horiz-adv-x="440" d="M190 70V630H144Q110 630 100 647T90 684V710H320Q339 710 350 705T368 691T377 671T380 649V630H280V70H630Q630 48 624 35T608 14T586 3T560 0H160Q147 0 135 3T112 13T96 34T90 70H190Z" />
<glyph unicode="J" glyph-name="J" horiz-adv-x="505" d="M53 0Q20 0 10 17T0 54V70H110Q157 70 190 79T245 116T277 198T287 340V630H67Q33 630 23 647T13 684V710H281Q283 737 301 756T353 775Q389 775 407 754T426 702Q426 677 414 659T377 633V340Q377 238
362 173T315 70H695Q695 48 689 35T673 14T651 3T625 0H53Z" />
<glyph unicode="K" glyph-name="K" horiz-adv-x="640" d="M220 0Q178 0 159 21T139 91Q139 118 144 143T160 191V690Q160 698 166 704T180 710H230Q238 710 244 704T250 690V343Q274 424 310 493T392 612T491 691T603 720Q637 720 647 703T657 666V640H603Q564
640 528 622T460 573T398 498T345 404L409 307Q448 248 480 204T543 130T608 85T687 70H830Q830 48 823 35T805 14T780 3T753 0H682Q617 0 570 20T485 75T417 153T356 245L309 317Q281 238 266 156T250 0H220Z" />
<glyph unicode="L" glyph-name="L" horiz-adv-x="510" d="M443 720Q477 720 487 703T497 666V640H427Q380 640 347 633T292 599T260 520T250 380V70H700Q700 48 694 35T678 14T656 3T630 0H130Q117 0 105 3T82 13T66 34T60 70H160V380Q160 482 175 547T222 651T305
705T427 720H443Z" />
<glyph unicode="M" glyph-name="M" horiz-adv-x="1193" d="M214 0Q139 0 139 91Q139 118 144 143T160 191V690Q160 698 166 704T180 710H230Q238 710 244 704T250 690V371Q281 441 320 504T401 616T486 692T567 720Q593 720 610 713T638 694T653 666T657 630V371Q688
441 727 504T808 616T893 692T974 720Q1000 720 1017 713T1045 694T1060 666T1064 630V70H1383Q1383 48 1377 35T1361 14T1339 3T1313 0H1033Q1021 0 1011 2T992 11T979 29T974 60V640Q952 640 920 617T853 553T783 457T720 337T675 203T657 63V0H627Q585 0 566
21T546 91Q546 118 551 143T567 191V640Q545 640 513 617T446 553T376 457T313 337T268 203T250 63V0H214Z" />
<glyph unicode="N" glyph-name="N" horiz-adv-x="807" d="M220 0Q178 0 159 21T139 91Q139 118 144 143T160 191V690Q160 698 166 704T180 710H230Q238 710 244 704T250 690V363Q282 435 323 499T409 613T500 691T587 720Q613 720 630 713T658 694T673 666T677
630V70H997Q997 48 991 35T975 14T953 3T927 0H647Q636 0 625 2T606 11T592 29T587 60V640Q563 640 529 617T458 553T383 457T317 337T269 203T250 63V0H220Z" />
<glyph unicode="O" glyph-name="O" horiz-adv-x="761" d="M670 437Q670 295 627 207T495 70H951Q951 48 945 35T929 14T907 3T881 0H194Q169 0 154 6T130 24T118 51T115 84V282Q115 397 144 480T231 616T379 694T591 720Q616 720 631 714T655 696T667 669T670
636V437ZM205 70Q305 70 376 91T492 157T559 271T580 437V640Q480 640 409 620T293 557T226 446T205 282V70Z" />
<glyph unicode="P" glyph-name="P" horiz-adv-x="617" d="M161 200Q152 200 144 202T130 211T120 229T116 260V280Q130 280 143 280T170 282V580H199Q210 580 221 578T240 569T254 551T260 520V296Q326 312 373 340T451 401T496 468T511 532Q511 553 503 571T476
602T426 622T349 630H100V650Q100 669 104 680T116 698T131 707T149 710H349Q433 710 483 690T559 641T593 582T601 532Q601 478 572 427T494 334T385 259T260 212V70H807Q807 48 801 35T785 14T763 3T737 0H231Q220 0 209 2T190 11T176 29T170 60V200H161Z" />
<glyph unicode="Q" glyph-name="Q" horiz-adv-x="761" d="M205 282Q205 263 200 252T186 234T166 225T144 222H115V282Q115 397 144 480T231 616T379 694T591 720Q616 720 631 714T655 696T667 669T670 636V437Q670 297 628 208T498 70H951Q951 48 945 35T929
14T907 3T881 0H300Q278 -8 254 -14T204 -20Q188 -20 172 -17T144 -3T123 24T115 70H205Q305 70 376 91T492 157T559 271T580 437V640Q480 640 409 620T293 557T226 446T205 282Z" />
<glyph unicode="R" glyph-name="R" horiz-adv-x="647" d="M714 0Q631 0 572 21T473 77T409 157T372 253Q317 225 260 212V20Q260 12 254 6T240 0H190Q182 0 176 6T170 20V200H161Q152 200 144 202T130 211T120 229T116 260V280Q130 280 143 280T170 282V580H199Q210
580 221 578T240 569T254 551T260 520V296Q326 312 373 340T451 401T496 468T511 532Q511 553 503 571T476 602T426 622T349 630H100V650Q100 669 104 680T116 698T131 707T149 710H349Q433 710 483 690T559 641T593 582T601 532Q601 466 558 405T448 298Q451 261
467 221T517 147T603 92T730 70H837Q837 44 830 30T807 10T768 2T714 0Z" />
<glyph unicode="S" glyph-name="S" horiz-adv-x="707" d="M535 374Q554 374 570 372T599 361T618 336T625 294Q625 232 594 172T488 70H897Q897 48 891 35T875 14T853 3T827 0H150Q139 0 128 2T109 11T95 29T90 60V70H153Q236 70 297 81T400 110T468 151T510 200T530
251T535 299H180Q161 299 145 302T116 315T97 341T90 384Q90 439 109 498T177 606T313 688T535 720Q546 720 557 718T576 709T590 691T595 660V640H522Q441 640 385 627T290 591T230 540T197 483T183 425T180 374H535Z" />
<glyph unicode="T" glyph-name="T" horiz-adv-x="770" d="M238 70Q338 70 403 87T505 140T558 230T573 358Q573 395 592 406T634 418H663V358Q663 250 633 181T532 70H960Q960 48 954 35T938 14T916 3T890 0H227Q202 0 187 6T163 24T151 51T148 84Q148 175 166
257T215 408T290 534T383 630H165Q131 630 121 647T111 684V710H502Q548 726 597 726Q613 726 628 722T657 706T678 677T686 630H605Q519 630 451 586T336 466T263 288T238 70Z" />
<glyph unicode="U" glyph-name="U" horiz-adv-x="817" d="M587 347Q555 275 514 211T427 97T336 19T250 -10Q224 -10 207 -3T179 16T164 44T160 80V690Q160 698 166 704T180 710H230Q238 710 244 704T250 690V70Q271 70 304 93T375 157T450 253T518 373T568 507T587
647V710H623Q698 710 698 619Q698 592 692 567T677 519V70H1007Q1007 48 1001 35T985 14T963 3T937 0H648Q637 0 626 2T607 11T593 29T587 60V347V347Z" />
<glyph unicode="V" glyph-name="V" horiz-adv-x="737" d="M671 638Q670 518 653 426T606 264T539 148T458 70H927Q927 48 921 35T905 14T883 3T857 0H250Q224 0 207 7T179 26T164 54T160 90V690Q160 698 166 704T180 710H230Q238 710 244 704T250 690V80Q299 80
345 96T432 149T504 248T557 400V710H584Q633 710 652 699T671 647V638Z" />
<glyph unicode="W" glyph-name="W" horiz-adv-x="1138" d="M1072 640Q1072 519 1055 426T1010 264T945 148T865 70H1328Q1328 48 1322 35T1306 14T1284 3T1258 0H661Q635 0 618 7T590 26T575 54T571 90V337Q540 267 501 204T420 94T334 18T250 -10Q224 -10 207
-3T179 16T164 44T160 80V690Q160 698 166 704T180 710H230Q238 710 244 704T250 690V70Q271 70 303 93T371 157T442 253T506 373T553 507T571 647V710H601Q643 710 662 689T682 619Q682 592 676 567T661 519V80Q708 80 752 95T836 146T906 241T958 387V710H985Q1034
710 1053 699T1072 647V640Z" />
<glyph unicode="X" glyph-name="X" horiz-adv-x="713" d="M99 720Q128 720 151 716T196 698T240 656T291 580L370 444L447 580Q474 628 496 656T540 698T584 716T636 720Q670 720 680 703T690 666V640H649Q627 640 611 636T578 619T543 579T498 506L417 363L510
204Q536 159 554 132T588 92T618 74T651 70H903Q903 48 897 35T881 14T859 3T833 0H622Q606 0 588 2T547 18T500 60T446 140L367 276L290 140Q261 89 236 61T189 19T149 3T114 0Q93 0 80 2T59 11T48 29T45 59V70H88Q106 70 121 74T152 91T187 131T232 204L320 357L234
506Q208 551 190 578T156 618T124 636T86 640H45V666Q45 686 55 703T99 720Z" />
<glyph unicode="Y" glyph-name="Y" horiz-adv-x="817" d="M587 347Q555 275 514 211T427 97T336 19T250 -10Q224 -10 207 -3T179 16T164 44T160 80V690Q160 698 166 704T180 710H230Q238 710 244 704T250 690V70Q271 70 304 93T375 157T450 253T518 373T568 507T587
647V710H623Q698 710 698 619Q698 592 692 567T677 519V70H1007Q1007 48 1001 35T985 14T963 3T937 0H676Q674 -92 658 -152T609 -247T528 -296T410 -310Q378 -310 366 -294T354 -241V-230H410Q457 -230 490 -223T545 -189T577 -111T587 30V347V347Z" />
<glyph unicode="Z" glyph-name="Z" horiz-adv-x="610" d="M433 299Q395 225 344 167T235 70H800Q800 48 794 35T778 14T756 3T730 0H145Q123 -8 99 -14T49 -20Q33 -20 17 -17T-11 -3T-32 24T-40 70H20Q68 70 113 87T197 135T271 208T333 299H169Q169 321 175 335T191
358T213 370T239 374H369Q395 437 409 502T423 630H133Q99 630 89 647T79 684V710H423Q442 710 458 708T487 697T506 672T513 630Q513 560 501 496T467 374H610Q610 352 604 338T588 315T566 303T540 299H433Z" />
<glyph unicode="[" glyph-name="bracketleft" horiz-adv-x="271" d="M140 20H200Q213 20 225 17T248 7T264 -14T270 -50H50V760H270Q270 738 264 725T248 704T226 693T200 690H140V20Z" />
<glyph unicode="\" glyph-name="backslash" horiz-adv-x="440" d="M100 760H129Q145 760 157 759T178 751T193 733T206 700L393 0H364Q327 0 312 12T287 60L100 760Z" />
<glyph unicode="]" glyph-name="bracketright" horiz-adv-x="470" d="M330 690H270Q257 690 245 693T222 703T206 724T200 760H420V-50H200Q200 -28 206 -15T222 6T244 17T270 20H330V690Z" />
<glyph unicode="^" glyph-name="asciicircum" horiz-adv-x="460" d="M233 481Q228 473 221 468T202 463Q183 463 147 479L265 691Q273 704 283 712T311 720Q328 720 338 712T357 691L475 479Q439 463 420 463Q409 463 402 468T389 481L311 617L233 481Z" />
<glyph unicode="_" glyph-name="underscore" horiz-adv-x="617" d="M707 0Q707 -22 701 -35T685 -56T663 -67T637 -70H350Q337 -70 325 -67T302 -57T286 -36T280 0H707Z" />
<glyph unicode="`" glyph-name="grave" horiz-adv-x="474" d="M418 620Q383 626 344 635T271 657T215 683T193 715Q193 734 218 772L231 792L440 661L418 620Z" />
<glyph unicode="a" glyph-name="a" horiz-adv-x="777" d="M280 75Q304 75 333 85T393 117T453 171T505 248T542 350T556 477V540H592Q667 540 667 449Q667 422 661 397T646 349V70H967Q967 48 961 35T945 14T923 3T897 0H617Q606 0 595 2T576 11T562 29T556 60V198Q529
151 496 114T427 50T354 10T280 -5Q254 -5 237 2T209 21T194 49T190 85V331Q190 387 202 428T241 497T311 537T417 550Q460 550 483 534T506 480V470H417Q381 470 356 465T313 444T288 401T280 331V75Z" />
<glyph unicode="b" glyph-name="b" horiz-adv-x="786" d="M250 0Q208 0 189 21T169 91Q169 118 174 143T190 191V740Q190 748 196 754T210 760H260Q268 760 274 754T280 740V346Q308 394 343 433T418 501T497 544T577 560Q603 560 620 553T648 534T663 506T667
470V219Q667 177 651 137T590 70H976Q976 48 970 35T954 14T932 3T906 0H402Q391 0 380 2T361 11T347 29T342 60V70H440Q477 70 503 85T545 124T569 173T577 219V480Q541 480 491 454T393 376T313 246T280 63V0H250Z" />
<glyph unicode="c" glyph-name="c" horiz-adv-x="619" d="M582 443Q582 417 579 396T565 358T537 333T488 324V480Q421 480 373 466T293 420T246 334T231 200Q231 156 234 130T252 91T294 74T373 70H809Q809 48 803 35T787 14T765 3T739 0H373Q291 0 245 8T175
39T146 100T140 200Q140 382 223 471T466 560Q502 560 524 552T560 527T577 490T582 443Z" />
<glyph unicode="d" glyph-name="d" horiz-adv-x="777" d="M280 75Q304 75 333 85T393 117T453 171T505 248T542 350T556 477V760H573Q629 760 653 742T678 675Q678 622 669 556T646 422V70H967Q967 48 961 35T945 14T923 3T897 0H617Q606 0 595 2T576 11T562 29T556
60V198Q529 151 496 114T427 50T354 10T280 -5Q254 -5 237 2T209 21T194 49T190 85V331Q190 387 202 428T241 497T311 537T417 550Q460 550 483 534T506 480V470H417Q381 470 356 465T313 444T288 401T280 331V75Z" />
<glyph unicode="e" glyph-name="e" horiz-adv-x="639" d="M241 200Q241 156 244 130T262 91T304 74T383 70H829Q829 48 823 35T807 14T785 3T759 0H383Q301 0 255 8T185 39T156 100T150 200V241Q150 327 161 386T211 481T322 534T518 550Q570 550 589 524T608
461Q608 384 594 334T548 253T469 211T352 199Q325 199 314 209T302 251V272L381 275Q418 276 444 282T486 308T510 366T518 470Q427 470 373 463T289 432T250 363T241 240V200Z" />
<glyph unicode="f" glyph-name="f" horiz-adv-x="411" d="M190 460H60Q60 504 82 522T130 540H195Q203 607 222 651T273 722T351 759T457 770Q489 770 501 754T513 701V690H457Q419 690 390 686T339 666T305 620T285 540H661Q661 496 639 478T591 460H280V30Q280
-72 265 -137T218 -241T135 -295T13 -310Q-19 -310 -31 -294T-43 -241V-230H13Q60 -230 93 -223T148 -189T180 -111T190 30V460Z" />
<glyph unicode="g" glyph-name="g" horiz-adv-x="777" d="M506 470H417Q381 470 356 465T313 444T288 401T280 331V75Q304 75 333 85T393 117T453 171T505 248T542 350T556 477V540H592Q667 540 667 449Q667 422 661 397T646 349V70H967Q967 48 961 35T945 14T923
3T897 0H645Q643 -92 627 -152T578 -247T497 -296T379 -310Q347 -310 335 -294T323 -241V-230H379Q426 -230 459 -223T514 -189T546 -111T556 30V198Q529 151 496 114T427 50T354 10T280 -5Q254 -5 237 2T209 21T194 49T190 85V331Q190 387 202 428T241 497T311
537T417 550Q460 550 483 534T506 480V470Z" />
<glyph unicode="h" glyph-name="h" horiz-adv-x="787" d="M244 0Q169 0 169 91Q169 118 174 143T190 191V740Q190 748 196 754T210 760H260Q268 760 274 754T280 740V340Q308 389 342 430T415 499T492 544T567 560Q593 560 610 553T638 534T653 506T657 470V70H977Q977
48 971 35T955 14T933 3T907 0H627Q616 0 605 2T586 11T572 29T567 60V480Q531 480 482 454T388 376T312 246T280 63V0H244Z" />
<glyph unicode="i" glyph-name="i" horiz-adv-x="411" d="M601 70Q601 48 595 35T579 14T557 3T531 0H251Q240 0 229 2T210 11T196 29T190 60V520Q190 528 196 534T210 540H259Q267 540 273 534T280 520V70H601ZM174 704Q174 729 186 747T235 766Q271 766 284
748T297 704Q297 678 284 661T235 643Q198 643 186 660T174 704Z" />
<glyph unicode="j" glyph-name="j" horiz-adv-x="411" d="M190 520Q190 528 196 534T210 540H259Q267 540 273 534T280 520V70H601Q601 48 595 35T579 14T557 3T531 0H279Q277 -92 261 -152T212 -247T131 -296T13 -310Q-19 -310 -31 -294T-43 -241V-230H13Q60
-230 93 -223T148 -189T180 -111T190 30V520ZM174 704Q174 729 186 747T235 766Q271 766 284 748T297 704Q297 678 284 661T235 643Q198 643 186 660T174 704Z" />
<glyph unicode="k" glyph-name="k" horiz-adv-x="670" d="M250 0Q208 0 189 21T169 91Q169 118 174 143T190 191V740Q190 748 196 754T210 760H260Q268 760 274 754T280 740V362Q305 407 337 444T403 506T474 546T546 560Q572 560 589 553T617 534T632 506T636
470V451Q636 330 604 269T497 190L573 70H860Q860 48 854 35T838 14T816 3T790 0H556Q542 0 528 3T506 20L409 181Q366 181 348 192T330 241V251H409Q445 251 470 259T513 289T538 350T546 451V480Q510 480 464 457T377 384T308 259T280 78V0H250Z" />
<glyph unicode="l" glyph-name="l" horiz-adv-x="411" d="M280 70H601Q601 48 595 35T579 14T557 3T531 0H251Q240 0 229 2T210 11T196 29T190 60V760H207Q263 760 287 742T312 675Q312 622 303 556T280 422V70Z" />
<glyph unicode="m" glyph-name="m" horiz-adv-x="1124" d="M244 0Q169 0 169 91Q169 118 174 143T190 191V520Q190 528 196 534T210 540H260Q268 540 274 534T280 520V347Q306 395 338 434T406 501T477 544T547 560Q573 560 590 553T618 534T633 506T637 470V347Q663
395 695 434T763 501T834 544T904 560Q930 560 947 553T975 534T990 506T994 470V70H1314Q1314 48 1308 35T1292 14T1270 3T1244 0H964Q953 0 942 2T923 11T909 29T904 60V480Q871 480 825 454T738 376T667 246T637 63V0H607Q565 0 546 21T526 91Q526 118 531 143T547
191V480Q514 480 468 454T381 376T310 246T280 63V0H244Z" />
<glyph unicode="n" glyph-name="n" horiz-adv-x="788" d="M251 0Q209 0 190 21T170 91Q170 118 175 143T191 191V520Q191 528 197 534T211 540H261Q269 540 275 534T281 520V340Q309 389 343 430T416 499T493 544T568 560Q594 560 611 553T639 534T654 506T658
470V70H978Q978 48 972 35T956 14T934 3T908 0H628Q617 0 606 2T587 11T573 29T568 60V480Q532 480 483 454T389 376T313 246T281 63V0H251Z" />
<glyph unicode="o" glyph-name="o" horiz-adv-x="739" d="M496 532Q496 562 514 583T568 605Q602 605 620 586T641 540H999Q999 496 977 478T929 460H658V360Q658 178 566 89T280 0Q252 0 235 7T207 26T194 54T190 90V331Q190 387 202 428T241 497T311 537T417
550Q445 550 460 534T476 480V470H417Q381 470 356 465T313 444T288 401T280 331V80Q355 80 409 94T498 140T551 226T568 360V460Q532 460 514 481T496 532Z" />
<glyph unicode="p" glyph-name="p" horiz-adv-x="787" d="M190 520Q190 528 196 534T210 540H259Q267 540 273 534T280 520V339Q308 389 343 429T418 499T497 544T577 560Q603 560 620 553T648 534T663 506T667 470V219Q667 177 651 137T590 70H977Q977 48 971
35T955 14T933 3T907 0H402Q391 0 380 2T361 11T347 29T342 60V70H433Q472 70 499 85T544 124T569 172T577 219V480Q541 480 491 454T393 376T313 246T280 63V-300H263Q207 -300 183 -282T158 -215Q158 -162 167 -96T190 38V520Z" />
<glyph unicode="q" glyph-name="q" horiz-adv-x="776" d="M280 75Q304 75 333 85T393 117T453 171T505 248T542 350T556 477V540H592Q667 540 667 449Q667 422 661 397T646 349V70H966Q966 48 960 35T944 14T922 3T896 0H646V-300H629Q573 -300 549 -282T524 -215Q524
-162 533 -96T556 38V198Q529 151 496 114T427 50T354 10T280 -5Q254 -5 237 2T209 21T194 49T190 85V331Q190 387 202 428T241 497T311 537T417 550Q460 550 483 534T506 480V470H417Q381 470 356 465T313 444T288 401T280 331V75Z" />
<glyph unicode="r" glyph-name="r" horiz-adv-x="714" d="M202 12Q197 0 185 0H129Q115 0 115 13Q115 20 119 29L173 169Q183 194 185 220T188 274V460Q152 460 134 481T116 532Q116 562 134 583T188 605Q222 605 240 586T261 540H391Q461 540 502 530T563 497T588
436T594 340V70H904Q904 48 898 35T882 14T860 3T834 0H565Q554 0 543 2T524 11T510 29T504 60V340Q504 376 501 399T487 435T453 454T391 460H273V274Q273 240 267 205T249 138L202 12Z" />
<glyph unicode="s" glyph-name="s" horiz-adv-x="576" d="M190 532Q190 562 208 583T262 605Q298 605 316 584T335 532Q335 519 333 510T328 493L391 444Q416 424 444 401T494 351T532 291T547 219Q547 177 531 137T470 70H766Q766 48 760 35T744 14T722 3T696
0H322Q311 0 300 2T281 11T267 29T262 60V70H295Q341 70 372 84T422 121T449 169T457 219Q457 243 450 261T431 296T403 325T370 352L298 408L136 12Q131 0 119 0H63Q49 0 49 13Q49 20 53 29L229 463L213 476Q190 496 190 532Z" />
<glyph unicode="t" glyph-name="t" horiz-adv-x="441" d="M281 460V70H631Q631 48 625 35T609 14T587 3T561 0H251Q240 0 229 2T210 11T196 29T190 60V460H60Q60 504 82 522T130 540H190V680Q190 688 196 694T210 700H260Q268 700 274 694T281 680V540H451Q451
496 429 478T381 460H281Z" />
<glyph unicode="u" glyph-name="u" horiz-adv-x="767" d="M280 75Q316 75 362 98T449 171T518 296T546 477V540H582Q657 540 657 449Q657 422 651 397T636 349V70H957Q957 48 951 35T935 14T913 3T887 0H607Q596 0 585 2T566 11T552 29T546 60V192Q520 147 489
111T423 49T352 9T280 -5Q254 -5 237 2T209 21T194 49T190 85V520Q190 528 196 534T210 540H259Q267 540 273 534T280 520V75Z" />
<glyph unicode="v" glyph-name="v" horiz-adv-x="684" d="M504 532Q504 562 525 583T576 605Q604 605 624 586T648 540H951Q951 496 929 478T881 460H647Q641 371 613 288T535 141T411 39T244 0Q210 0 200 17T190 54V520Q190 528 196 534T210 540H259Q267 540
273 534T280 520V82Q327 87 374 109T460 175T526 289T562 461Q537 466 521 486T504 532Z" />
<glyph unicode="w" glyph-name="w" horiz-adv-x="1009" d="M829 532Q829 562 850 583T901 605Q929 605 949 586T973 540H1276Q1276 496 1254 478T1206 460H972Q967 371 942 288T870 141T753 39T589 0Q555 0 545 17T535 54V161Q492 88 421 44T244 0Q210 0 200 17T190
54V520Q190 528 196 534T210 540H259Q267 540 273 534T280 520V82Q342 89 389 117T469 200T518 339T535 540H576Q618 540 637 519T657 449Q657 414 648 383T625 324V82Q671 87 715 109T795 175T855 289T887 461Q862 466 846 486T829 532Z" />
<glyph unicode="x" glyph-name="x" horiz-adv-x="675" d="M584 0Q568 0 551 3T513 20T467 62T411 140L366 211L322 140Q291 90 266 62T221 20T183 3T149 0Q128 0 115 2T94 11T83 29T80 59V70H123Q141 70 156 74T187 92T222 132T270 204L320 284L294 326Q266 371
247 397T213 438T181 456T143 460H100V471Q100 508 112 524T156 540Q185 540 207 536T250 517T293 475T345 400L372 357L398 400Q427 447 449 475T491 517T533 536T584 540Q616 540 628 524T640 471V460H597Q575 460 559 456T526 438T490 398T443 326L418 284L469
204Q497 160 516 134T551 93T581 75T613 70H865Q865 48 859 35T843 14T821 3T795 0H584Z" />
<glyph unicode="y" glyph-name="y" horiz-adv-x="767" d="M280 80Q316 80 361 103T446 174T513 297T541 477V540H566Q608 540 627 519T647 449Q647 422 641 397T626 349V70H957Q957 48 951 35T935 14T913 3T887 0H625Q623 -92 607 -152T558 -247T477 -296T359
-310Q327 -310 315 -294T303 -241V-230H359Q406 -230 439 -223T494 -189T526 -111T536 30V189Q511 145 480 111T412 51T338 13T259 0Q221 0 206 10T190 51V520Q190 528 196 534T210 540H259Q267 540 273 534T280 520V80Z" />
<glyph unicode="z" glyph-name="z" horiz-adv-x="500" d="M394 460H148Q122 460 100 478T78 540H496Q515 540 526 537T538 519Q538 512 532 502T516 480L174 70H690Q690 48 684 35T668 14T646 3T620 0H73Q54 0 47 3T40 21Q40 28 46 38T62 60L394 460Z" />
<glyph unicode="{" glyph-name="braceleft" horiz-adv-x="271" d="M71 351Q105 347 122 325T140 279V20H200Q213 20 225 17T248 7T264 -14T270 -50H50V187Q50 227 48 252T41 293T28 314T6 320Q-2 320 -8 326T-14 340V370Q-14 378 -8 384T6 390Q19 390 27 396T41
417T48 457T50 523V760H270Q270 738 264 725T248 704T226 693T200 690H140V431Q140 408 123 386T71 359V351Z" />
<glyph unicode="|" glyph-name="bar" horiz-adv-x="500" d="M320 10Q320 -26 308 -38T259 -50H250V700Q250 721 253 733T264 751T283 758T311 760H320V10Z" />
<glyph unicode="}" glyph-name="braceright" horiz-adv-x="470" d="M399 359Q365 363 348 385T330 431V690H270Q257 690 245 693T222 703T206 724T200 760H420V523Q420 483 422 458T429 417T442 396T464 390Q472 390 478 384T484 370V340Q484 332 478 326T464
320Q451 320 443 314T429 293T422 253T420 187V-50H200Q200 -28 206 -15T222 6T244 17T270 20H330V279Q330 302 347 324T399 351V359Z" />
<glyph unicode="~" glyph-name="asciitilde" horiz-adv-x="460" d="M490 298Q470 309 452 313T413 317Q387 317 361 311T308 298T256 284T202 278Q178 278 164 282T143 295T133 315T130 342V374Q150 363 168 359T207 355Q233 355 259 361T311 374T364 388T418
394Q442 394 456 390T477 377T487 357T490 330V298Z" />
<glyph unicode="&#xa1;" glyph-name="exclamdown" horiz-adv-x="406" d="M279 -206Q245 -206 224 -199T190 -177T174 -144T170 -101Q170 -65 177 -10T199 117V334Q199 342 205 348T219 354H258Q266 354 272 348T279 334V-206ZM306 493Q306 465 293 445T239 425Q200
425 186 445T171 493Q171 522 185 541T239 560Q279 560 292 541T306 493Z" />
<glyph unicode="&#xa2;" glyph-name="cent" horiz-adv-x="600" d="M374 633Q385 634 396 634T420 635Q449 635 464 629T485 613T491 588T493 555H442Q423 555 407 554T374 550V145H506Q506 123 500 110T484 89T462 78T436 75H374V10Q374 -26 362 -38T313 -50H304V75Q230
76 188 85T125 117T99 178T94 275Q94 420 147 505T304 620V700Q304 721 307 733T318 751T337 758T365 760H374V633ZM185 275Q185 233 188 208T202 169T238 150T304 145V533Q242 507 214 446T185 275Z" />
<glyph unicode="&#xa3;" glyph-name="sterling" horiz-adv-x="600" d="M247 286V80H576Q576 36 554 18T506 0H87Q87 44 109 62T157 80V286H63Q63 320 73 338T117 356H157V370Q157 472 172 537T219 641T302 695T424 710H480Q514 710 524 693T534 656V630H424Q377
630 344 623T289 589T257 510T247 370V356H431Q431 322 421 304T377 286H247Z" />
<glyph unicode="&#xa5;" glyph-name="yen" horiz-adv-x="600" d="M345 126V0H316Q305 0 294 2T275 11T261 29T255 60V126H116Q116 160 126 178T170 196H255V276L249 285H116Q116 319 126 337T170 355H217L54 704Q73 712 88 716T114 720Q125 720 137 713T155 692L300
370L445 692Q451 706 463 713T486 720Q496 720 511 716T546 704L383 355H484Q484 321 474 303T430 285H350Q348 279 345 276V196H484Q484 162 474 144T430 126H345Z" />
<glyph unicode="&#xa6;" glyph-name="brokenbar" horiz-adv-x="500" d="M320 515Q320 479 308 467T259 455H250V700Q250 721 253 733T264 751T283 758T311 760H320V515ZM320 10Q320 -26 308 -38T259 -50H250V195Q250 216 253 228T264 246T283 253T311 255H320V10Z" />
<glyph unicode="&#xa7;" glyph-name="section" horiz-adv-x="618" d="M144 61Q129 61 117 63T97 74T84 99T80 141Q80 172 87 204T113 266T159 323T230 370H167Q152 370 139 372T115 381T99 404T93 445Q93 500 109 557T167 662T281 740T468 771Q487 771 502 760T518
711V691H459Q394 691 348 678T272 644T223 596T197 541T186 485T183 435H474Q489 435 501 433T521 422T534 397T538 355Q538 324 531 292T505 229T458 173T386 126H451Q466 126 479 124T503 115T519 92T525 51Q525 -4 509 -61T451 -166T337 -244T150 -275Q141 -275
132 -273T116 -264T105 -246T100 -215V-195H159Q224 -195 270 -182T346 -148T395 -100T421 -45T432 11T435 61H144ZM156 128Q254 130 313 155T406 216T450 293T462 367Q364 365 304 340T212 279T168 202T156 128Z" />
<glyph unicode="&#xa8;" glyph-name="dieresis" horiz-adv-x="391" d="M63 704Q63 729 78 747T124 766Q154 766 170 748T186 704Q186 678 170 661T124 643Q93 643 78 660T63 704ZM285 704Q285 729 300 747T346 766Q376 766 392 748T408 704Q408 678 392 661T346
643Q315 643 300 660T285 704Z" />
<glyph unicode="&#xa9;" glyph-name="copyright" horiz-adv-x="775" d="M619 643Q619 626 617 612T606 587T584 570T546 564V656Q511 655 487 647T446 621T422 574T414 501Q414 478 415 462T424 435T447 419T488 414H619Q619 377 604 366T570 355H488Q437 355
408 363T365 390T347 435T343 501Q343 612 393 666T543 720Q589 720 604 699T619 643ZM260 290Q398 290 486 297T625 332T695 415T715 567V760Q577 760 489 754T350 722T280 642T260 492V290ZM775 567Q775 456 753 389T673 287T515 241T260 230Q231 230 216 243T200
290V492Q200 603 222 670T302 772T460 818T715 829Q744 829 759 816T775 769V567Z" />
<glyph unicode="&#xaa;" glyph-name="ordfeminine" horiz-adv-x="494" d="M169 418Q190 421 215 435T261 477T298 545T313 641V714H342Q394 714 394 652Q394 637 391 622T382 593V356H356Q339 356 326 364T313 400V455Q281 407 240 380T161 353Q125 353 113 370T100
414V584Q100 654 131 687T240 720Q262 720 270 708T278 670V656H240Q203 656 186 643T169 584V418Z" />
<glyph unicode="&#xab;" glyph-name="guillemotleft" horiz-adv-x="502" d="M183 224Q188 219 195 209T202 187Q202 176 191 160T164 129L24 286Q13 297 7 310T0 334Q0 358 24 382L164 540Q179 525 190 509T202 482Q202 470 195 460T183 445L94 334L183 224ZM383
224Q388 219 395 209T402 187Q402 176 391 160T364 129L224 286Q213 297 207 310T200 334Q200 358 224 382L364 540Q379 525 390 509T402 482Q402 470 395 460T383 445L294 334L383 224Z" />
<glyph unicode="&#xac;" glyph-name="logicalnot" horiz-adv-x="460" d="M175 299Q161 299 152 302T138 313T132 336T130 374H445Q473 374 481 360T490 299V221Q490 197 478 190T427 183V299H175Z" />
<glyph unicode="&#xae;" glyph-name="registered" horiz-adv-x="775" d="M441 373Q441 365 436 360T424 355H387Q380 355 375 360T370 373V710H499Q536 710 559 701T596 677T613 644T618 608Q618 583 600 552T537 496Q546 469 566 438T623 390Q613 366 603 358T580
349Q562 349 546 361T516 393T493 433T477 472Q467 469 460 467T441 463V373ZM260 290Q398 290 486 297T625 332T695 415T715 567V760Q577 760 489 754T350 722T280 642T260 492V290ZM775 567Q775 456 753 389T673 287T515 241T260 230Q231 230 216 243T200 290V492Q200
603 222 670T302 772T460 818T715 829Q744 829 759 816T775 769V567ZM441 524Q497 536 522 557T547 608Q547 645 503 645H441V524Z" />
<glyph unicode="&#xaf;" glyph-name="overscore" horiz-adv-x="490" d="M224 650Q190 650 180 667T170 704V730H430Q449 730 460 725T478 711T487 691T490 669V650H224Z" />
<glyph unicode="&#xb0;" glyph-name="degree" horiz-adv-x="565" d="M465 668Q465 594 450 535T400 434T310 370T175 347Q151 347 137 353T114 370T103 395T100 427V459Q100 532 115 591T165 693T255 757T390 780Q414 780 428 774T451 757T462 731T465 700V668ZM380
704Q320 704 283 687T223 637T193 560T185 459V423Q245 423 282 440T342 490T372 567T380 668V704Z" />
<glyph unicode="&#xb1;" glyph-name="plusminus" horiz-adv-x="460" d="M272 299H175Q161 299 152 302T138 313T132 336T130 374H272V471Q272 485 275 494T286 508T309 514T347 516V374H445Q473 374 481 360T490 299H347V201Q347 187 344 178T333 164T310 158T272
156V299ZM445 75Q473 75 481 61T490 0H175Q161 0 152 3T138 14T132 37T130 75H445Z" />
<glyph unicode="&#xb2;" glyph-name="twosuperior" horiz-adv-x="420" d="M217 744Q251 744 274 741T312 727T332 698T338 648Q338 616 322 581T280 509T224 438T166 375H356Q356 340 341 326T306 311H52Q52 348 65 361L113 412Q142 443 169 474T219 535T254 593T268
648Q268 669 257 674T217 680H111Q105 680 98 681T86 687T78 701T74 724V744H217Z" />
<glyph unicode="&#xb3;" glyph-name="threesuperior" horiz-adv-x="420" d="M215 744Q249 744 272 741T309 728T330 703T336 660Q336 651 333 639T324 613T308 587T283 568Q316 567 331 553T347 513V507Q347 405 297 358T130 311Q110 311 98 317T80 332T71 352T68
375H130Q169 375 196 381T241 402T267 443T277 510H165Q148 510 135 517T121 546V568H193Q212 568 225 579T248 605T261 635T265 660Q265 673 255 676T215 680H117Q111 680 104 681T92 687T84 701T80 724V744H215Z" />
<glyph unicode="&#xb4;" glyph-name="acute" horiz-adv-x="474" d="M163 661L373 792L386 772Q410 735 410 715Q410 698 388 684T333 657T260 636T186 620L163 661Z" />
<glyph unicode="&#xb5;" glyph-name="mu" horiz-adv-x="767" d="M280 75Q316 75 362 98T449 171T518 296T546 477V540H582Q657 540 657 449Q657 422 651 397T636 349V70H957Q957 48 951 35T935 14T913 3T887 0H607Q596 0 585 2T566 11T552 29T546 60V192Q520 147
489 111T423 49T352 9T280 -5V-280Q280 -288 274 -294T259 -300H210Q202 -300 196 -294T190 -280V520Q190 528 196 534T210 540H259Q267 540 273 534T280 520V75Z" />
<glyph unicode="&#xb6;" glyph-name="paragraph" horiz-adv-x="776" d="M476 0H447Q436 0 425 2T406 11T392 29T386 60V257Q366 254 343 254Q298 254 258 268T186 312T137 388T118 500Q118 548 128 587T160 653T220 695T312 710H597Q606 710 614 708T630 699T641
681T646 650V630H312Q254 630 232 595T209 500Q209 414 247 372T343 330Q366 330 386 334V494H421Q496 494 496 403Q496 376 491 351T476 303V0ZM646 -200H617Q606 -200 595 -198T576 -189T562 -171T556 -140V474Q556 482 562 488T576 494H625Q633 494 639 488T646
474V-200Z" />
<glyph unicode="&#xb7;" glyph-name="middot" horiz-adv-x="343" d="M214 355Q214 369 217 381T227 403T248 417T281 423Q320 423 334 403T349 355Q349 326 335 307T281 288Q261 288 248 293T228 307T217 328T214 355Z" />
<glyph unicode="&#xb8;" glyph-name="cedilla" horiz-adv-x="424" d="M249 37L224 -93H313Q339 -93 351 -111T364 -149Q364 -225 317 -267T181 -310Q168 -310 160 -308T148 -298T142 -278T140 -243H161Q229 -243 256 -226T283 -160H188Q171 -160 165 -154T158
-134Q158 -132 158 -128T162 -107T171 -57T190 37H249Z" />
<glyph unicode="&#xb9;" glyph-name="onesuperior" horiz-adv-x="420" d="M78 311Q78 346 93 360T128 375H178V584Q161 570 138 563T89 555Q80 555 74 561T68 575V599Q68 606 74 612T89 619Q114 619 131 629T160 652T176 678T181 699V744H219Q260 744 260 704Q260
695 257 683T248 659V375H347Q347 340 332 326T297 311H78Z" />
<glyph unicode="&#xba;" glyph-name="ordmasculine" horiz-adv-x="489" d="M169 417Q207 418 235 426T282 453T310 500T319 571V720Q362 720 375 703T389 659V571Q389 461 334 407T161 353Q122 353 111 370T100 414V584Q100 654 131 687T240 720Q260 720 272 708T284
670V656H240Q203 656 186 643T169 584V417Z" />
<glyph unicode="&#xbb;" glyph-name="guillemotright" horiz-adv-x="677" d="M533 334L444 445Q439 450 432 460T425 482Q425 493 436 509T463 540L603 382Q627 358 627 334Q627 323 621 310T603 286L463 129Q448 144 437 160T425 187Q425 199 432 209T444 224L533
334ZM333 334L244 445Q239 450 232 460T225 482Q225 493 236 509T263 540L403 382Q427 358 427 334Q427 323 421 310T403 286L263 129Q248 144 237 160T225 187Q225 199 232 209T244 224L333 334Z" />
<glyph unicode="&#xbc;" glyph-name="onequarter" horiz-adv-x="977" d="M468 60Q462 42 456 31T442 12T421 3T391 0H382L609 650Q616 670 623 682T638 700T658 708T686 710H695L468 60ZM158 287Q158 322 173 336T208 351H258V560Q241 546 218 539T169 531Q160
531 154 537T148 551V575Q148 582 154 588T169 595Q194 595 211 605T240 628T256 654T261 675V720H299Q340 720 340 680Q340 671 337 659T328 635V351H427Q427 316 412 302T377 287H158ZM690 439Q722 439 736 434T751 409Q751 405 751 401T750 393Q743 365 737
340T725 289T710 234T692 167H818V313Q818 322 824 328T838 334H868Q875 334 881 328T888 313V167H922Q928 167 934 162T940 149V121Q940 113 934 108T922 102H888V0H863Q846 0 832 8T818 44V102H673Q653 102 639 116T624 160L690 439Z" />
<glyph unicode="&#xbd;" glyph-name="onehalf" horiz-adv-x="977" d="M468 60Q462 42 456 31T442 12T421 3T391 0H382L609 650Q616 670 623 682T638 700T658 708T686 710H695L468 60ZM158 287Q158 322 173 336T208 351H258V560Q241 546 218 539T169 531Q160 531
154 537T148 551V575Q148 582 154 588T169 595Q194 595 211 605T240 628T256 654T261 675V720H299Q340 720 340 680Q340 671 337 659T328 635V351H427Q427 316 412 302T377 287H158ZM790 433Q824 433 847 430T885 416T905 387T911 337Q911 305 895 270T853 198T797
127T739 64H929Q929 29 914 15T879 0H625Q625 37 638 50L686 101Q715 132 742 163T792 224T827 282T841 337Q841 358 830 363T790 369H684Q678 369 671 370T659 376T651 390T647 413V433H790Z" />
<glyph unicode="&#xbe;" glyph-name="threequarters" horiz-adv-x="977" d="M468 60Q462 42 456 31T442 12T421 3T391 0H382L609 650Q616 670 623 682T638 700T658 708T686 710H695L468 60ZM295 720Q329 720 352 717T389 704T410 679T416 636Q416 627 413 615T404
589T388 563T363 544Q396 543 411 529T427 489V483Q427 381 377 334T210 287Q190 287 178 293T160 308T151 328T148 351H210Q249 351 276 357T321 378T347 419T357 486H245Q228 486 215 493T201 522V544H273Q292 544 305 555T328 581T341 611T345 636Q345 649 335
652T295 656H197Q191 656 184 657T172 663T164 677T160 700V720H295ZM690 439Q722 439 736 434T751 409Q751 405 751 401T750 393Q743 365 737 340T725 289T710 234T692 167H818V313Q818 322 824 328T838 334H868Q875 334 881 328T888 313V167H922Q928 167 934
162T940 149V121Q940 113 934 108T922 102H888V0H863Q846 0 832 8T818 44V102H673Q653 102 639 116T624 160L690 439Z" />
<glyph unicode="&#xbf;" glyph-name="questiondown" horiz-adv-x="406" d="M306 493Q306 465 293 445T239 425Q200 425 186 445T171 493Q171 522 185 541T239 560Q279 560 292 541T306 493ZM342 -136V-162Q342 -182 332 -199T288 -216Q222 -216 157 -196T38 -131T-48
-18T-81 151Q-81 203 -55 222T9 241H199V334Q199 342 205 348T219 354H258Q266 354 272 348T279 334V211Q279 188 268 170T219 151H-1Q-1 101 13 50T61 -42T150 -110T288 -136H342Z" />
<glyph unicode="&#xc0;" glyph-name="Agrave" horiz-adv-x="779" d="M969 70Q969 48 963 35T947 14T925 3T899 0H586Q575 0 564 2T545 11T531 29T526 60V299H222Q208 247 201 188T194 60Q194 22 178 11T139 0H104V60Q104 190 126 289T187 462T277 585T385 664T501
707T616 720Q650 720 660 703T670 666V640H616V70H969ZM526 630Q438 610 365 548T247 374H526V630ZM527 770Q492 776 453 785T380 807T324 833T302 865Q302 884 327 922L340 942L549 811L527 770Z" />
<glyph unicode="&#xc1;" glyph-name="Aacute" horiz-adv-x="779" d="M969 70Q969 48 963 35T947 14T925 3T899 0H586Q575 0 564 2T545 11T531 29T526 60V299H222Q208 247 201 188T194 60Q194 22 178 11T139 0H104V60Q104 190 126 289T187 462T277 585T385 664T501
707T616 720Q650 720 660 703T670 666V640H616V70H969ZM526 630Q438 610 365 548T247 374H526V630ZM322 811L532 942L545 922Q569 885 569 865Q569 848 547 834T492 807T419 786T345 770L322 811Z" />
<glyph unicode="&#xc2;" glyph-name="Acircumflex" horiz-adv-x="779" d="M969 70Q969 48 963 35T947 14T925 3T899 0H586Q575 0 564 2T545 11T531 29T526 60V299H222Q208 247 201 188T194 60Q194 22 178 11T139 0H104V60Q104 190 126 289T187 462T277 585T385
664T501 707T616 720Q650 720 660 703T670 666V640H616V70H969ZM526 630Q438 610 365 548T247 374H526V630ZM597 771Q575 775 554 784T513 803T479 825T456 845Q438 824 400 803T315 771L291 811L436 942H476L621 811L597 771Z" />
<glyph unicode="&#xc3;" glyph-name="Atilde" horiz-adv-x="779" d="M969 70Q969 48 963 35T947 14T925 3T899 0H586Q575 0 564 2T545 11T531 29T526 60V299H222Q208 247 201 188T194 60Q194 22 178 11T139 0H104V60Q104 190 126 289T187 462T277 585T385 664T501
707T616 720Q650 720 660 703T670 666V640H616V70H969ZM526 630Q438 610 365 548T247 374H526V630ZM357 885Q366 877 375 872T399 866Q417 866 459 884L493 899Q524 913 555 913Q593 913 618 892T643 837Q643 827 640 815T622 786L596 811Q587 819 578 824T554
830Q536 830 494 812L460 797Q429 783 398 783Q360 783 335 804T310 859Q310 869 313 881T331 910L357 885Z" />
<glyph unicode="&#xc4;" glyph-name="Adieresis" horiz-adv-x="779" d="M969 70Q969 48 963 35T947 14T925 3T899 0H586Q575 0 564 2T545 11T531 29T526 60V299H222Q208 247 201 188T194 60Q194 22 178 11T139 0H104V60Q104 190 126 289T187 462T277 585T385 664T501
707T616 720Q650 720 660 703T670 666V640H616V70H969ZM526 630Q438 610 365 548T247 374H526V630ZM289 854Q289 879 304 897T350 916Q380 916 396 898T412 854Q412 828 396 811T350 793Q319 793 304 810T289 854ZM511 854Q511 879 526 897T572 916Q602 916 618
898T634 854Q634 828 618 811T572 793Q541 793 526 810T511 854Z" />
<glyph unicode="&#xc5;" glyph-name="Aring" horiz-adv-x="779" d="M969 70Q969 48 963 35T947 14T925 3T899 0H586Q575 0 564 2T545 11T531 29T526 60V299H222Q208 247 201 188T194 60Q194 22 178 11T139 0H104V60Q104 190 126 289T187 462T277 585T385 664T501
707T616 720Q650 720 660 703T670 666V640H616V70H969ZM526 630Q438 610 365 548T247 374H526V630ZM426 761Q365 761 336 794T307 877Q307 928 336 961T426 994Q487 994 516 961T545 877Q545 827 516 794T426 761ZM426 825Q454 825 467 839T480 877Q480 900 467
915T426 930Q398 930 385 915T372 877Q372 854 385 840T426 825Z" />
<glyph unicode="&#xc6;" glyph-name="AE" horiz-adv-x="967" d="M104 60Q104 190 126 288T187 459T277 580T385 657T501 698T616 710Q645 710 656 697T669 667Q707 687 756 698T866 710H888Q922 710 932 693T942 656V630H860Q782 630 732 607T652 547T611 465T596
374H860Q860 352 854 338T838 315T816 303T790 299H597Q600 264 613 224T656 150T735 93T860 70H1157Q1157 48 1151 35T1135 14T1113 3T1087 0H856Q760 0 696 26T591 94T531 190T507 299H222Q208 248 201 189T194 60Q194 22 178 11T139 0H104V60ZM507 374Q512 449
536 515T615 630Q558 630 504 615T403 569T316 490T248 374H507Z" />
<glyph unicode="&#xc7;" glyph-name="Ccedilla" horiz-adv-x="555" d="M745 70Q745 48 739 35T723 14T701 3T675 0H362L344 -93H433Q459 -93 471 -111T484 -149Q484 -225 437 -267T301 -310Q288 -310 280 -308T268 -298T262 -278T260 -243H281Q349 -243 376 -226T403
-160H308Q291 -160 285 -154T278 -134Q278 -132 278 -128T281 -111T288 -72T302 0H175Q156 0 140 2T111 13T92 38T85 80Q85 257 124 379T226 577T369 686T532 720Q566 720 576 703T586 666V640H532Q446 640 380 602T268 490T199 311T175 70H745Z" />
<glyph unicode="&#xc8;" glyph-name="Egrave" horiz-adv-x="693" d="M883 70Q883 48 877 35T861 14T839 3T813 0H243Q224 0 208 2T179 13T160 38T153 80Q153 102 159 129T179 186T211 244T256 299Q238 299 223 302T197 314T180 338T173 379Q173 415 189 454T236
532T310 604T406 664T520 705T650 720Q684 720 694 703T704 666V640H650Q545 640 470 611T347 540T276 453T253 374H360Q389 388 422 395T494 403Q511 403 528 398T559 381T581 349T590 299H388Q344 276 314 246T266 185T241 123T233 70H883ZM579 770Q544 776 505
785T432 807T376 833T354 865Q354 884 379 922L392 942L601 811L579 770Z" />
<glyph unicode="&#xc9;" glyph-name="Eacute" horiz-adv-x="693" d="M883 70Q883 48 877 35T861 14T839 3T813 0H243Q224 0 208 2T179 13T160 38T153 80Q153 102 159 129T179 186T211 244T256 299Q238 299 223 302T197 314T180 338T173 379Q173 415 189 454T236
532T310 604T406 664T520 705T650 720Q684 720 694 703T704 666V640H650Q545 640 470 611T347 540T276 453T253 374H360Q389 388 422 395T494 403Q511 403 528 398T559 381T581 349T590 299H388Q344 276 314 246T266 185T241 123T233 70H883ZM355 811L565 942L578
922Q602 885 602 865Q602 848 580 834T525 807T452 786T378 770L355 811Z" />
<glyph unicode="&#xca;" glyph-name="Ecircumflex" horiz-adv-x="693" d="M883 70Q883 48 877 35T861 14T839 3T813 0H243Q224 0 208 2T179 13T160 38T153 80Q153 102 159 129T179 186T211 244T256 299Q238 299 223 302T197 314T180 338T173 379Q173 415 189 454T236
532T310 604T406 664T520 705T650 720Q684 720 694 703T704 666V640H650Q545 640 470 611T347 540T276 453T253 374H360Q389 388 422 395T494 403Q511 403 528 398T559 381T581 349T590 299H388Q344 276 314 246T266 185T241 123T233 70H883ZM591 771Q569 775 548
784T507 803T473 825T450 845Q432 824 394 803T309 771L285 811L430 942H470L615 811L591 771Z" />
<glyph unicode="&#xcb;" glyph-name="Edieresis" horiz-adv-x="693" d="M883 70Q883 48 877 35T861 14T839 3T813 0H243Q224 0 208 2T179 13T160 38T153 80Q153 102 159 129T179 186T211 244T256 299Q238 299 223 302T197 314T180 338T173 379Q173 415 189 454T236
532T310 604T406 664T520 705T650 720Q684 720 694 703T704 666V640H650Q545 640 470 611T347 540T276 453T253 374H360Q389 388 422 395T494 403Q511 403 528 398T559 381T581 349T590 299H388Q344 276 314 246T266 185T241 123T233 70H883ZM276 854Q276 879 291
897T337 916Q367 916 383 898T399 854Q399 828 383 811T337 793Q306 793 291 810T276 854ZM498 854Q498 879 513 897T559 916Q589 916 605 898T621 854Q621 828 605 811T559 793Q528 793 513 810T498 854Z" />
<glyph unicode="&#xcc;" glyph-name="Igrave" horiz-adv-x="440" d="M190 70V630H144Q110 630 100 647T90 684V710H320Q339 710 350 705T368 691T377 671T380 649V630H280V70H630Q630 48 624 35T608 14T586 3T560 0H160Q147 0 135 3T112 13T96 34T90 70H190ZM336
770Q301 776 262 785T189 807T133 833T111 865Q111 884 136 922L149 942L358 811L336 770Z" />
<glyph unicode="&#xcd;" glyph-name="Iacute" horiz-adv-x="440" d="M190 70V630H144Q110 630 100 647T90 684V710H320Q339 710 350 705T368 691T377 671T380 649V630H280V70H630Q630 48 624 35T608 14T586 3T560 0H160Q147 0 135 3T112 13T96 34T90 70H190ZM113
811L323 942L336 922Q360 885 360 865Q360 848 338 834T283 807T210 786T136 770L113 811Z" />
<glyph unicode="&#xce;" glyph-name="Icircumflex" horiz-adv-x="440" d="M190 70V630H144Q110 630 100 647T90 684V710H320Q339 710 350 705T368 691T377 671T380 649V630H280V70H630Q630 48 624 35T608 14T586 3T560 0H160Q147 0 135 3T112 13T96 34T90 70H190ZM376
771Q354 775 333 784T292 803T258 825T235 845Q217 824 179 803T94 771L70 811L215 942H255L400 811L376 771Z" />
<glyph unicode="&#xcf;" glyph-name="Idieresis" horiz-adv-x="440" d="M190 70V630H144Q110 630 100 647T90 684V710H320Q339 710 350 705T368 691T377 671T380 649V630H280V70H630Q630 48 624 35T608 14T586 3T560 0H160Q147 0 135 3T112 13T96 34T90 70H190ZM63
854Q63 879 78 897T124 916Q154 916 170 898T186 854Q186 828 170 811T124 793Q93 793 78 810T63 854ZM285 854Q285 879 300 897T346 916Q376 916 392 898T408 854Q408 828 392 811T346 793Q315 793 300 810T285 854Z" />
<glyph unicode="&#xd0;" glyph-name="Eth" horiz-adv-x="713" d="M671 219Q671 177 655 137T594 70H903Q903 48 897 35T881 14T859 3T833 0H150Q139 0 128 2T109 11T95 29T90 60V70H419Q465 70 496 84T546 121T573 169T581 219Q581 277 564 340T508 459T406 560T250
625V390H433Q433 356 423 338T379 320H250V180Q250 161 245 150T231 132T211 123T189 120H160V320H65Q65 354 75 372T119 390H160V638Q146 639 133 639T106 640V660Q106 697 124 708T166 720Q263 720 354 683T515 578T628 419T671 219Z" />
<glyph unicode="&#xd1;" glyph-name="Ntilde" horiz-adv-x="807" d="M220 0Q178 0 159 21T139 91Q139 118 144 143T160 191V690Q160 698 166 704T180 710H230Q238 710 244 704T250 690V363Q282 435 323 499T409 613T500 691T587 720Q613 720 630 713T658 694T673
666T677 630V70H997Q997 48 991 35T975 14T953 3T927 0H647Q636 0 625 2T606 11T592 29T587 60V640Q563 640 529 617T458 553T383 457T317 337T269 203T250 63V0H220ZM328 885Q337 877 346 872T370 866Q388 866 430 884L464 899Q495 913 526 913Q564 913 589 892T614
837Q614 827 611 815T593 786L567 811Q558 819 549 824T525 830Q507 830 465 812L431 797Q400 783 369 783Q331 783 306 804T281 859Q281 869 284 881T302 910L328 885Z" />
<glyph unicode="&#xd2;" glyph-name="Ograve" horiz-adv-x="761" d="M670 437Q670 295 627 207T495 70H951Q951 48 945 35T929 14T907 3T881 0H194Q169 0 154 6T130 24T118 51T115 84V282Q115 397 144 480T231 616T379 694T591 720Q616 720 631 714T655 696T667
669T670 636V437ZM205 70Q305 70 376 91T492 157T559 271T580 437V640Q480 640 409 620T293 557T226 446T205 282V70ZM511 770Q476 776 437 785T364 807T308 833T286 865Q286 884 311 922L324 942L533 811L511 770Z" />
<glyph unicode="&#xd3;" glyph-name="Oacute" horiz-adv-x="801" d="M690 437Q690 295 647 207T515 70H971Q971 48 965 35T949 14T927 3T901 0H214Q189 0 174 6T150 24T138 51T135 84V282Q135 397 164 480T251 616T399 694T611 720Q636 720 651 714T675 696T687
669T690 636V437ZM225 70Q325 70 396 91T512 157T579 271T600 437V640Q500 640 429 620T313 557T246 446T225 282V70ZM322 811L532 942L545 922Q569 885 569 865Q569 848 547 834T492 807T419 786T345 770L322 811Z" />
<glyph unicode="&#xd4;" glyph-name="Ocircumflex" horiz-adv-x="761" d="M670 437Q670 295 627 207T495 70H951Q951 48 945 35T929 14T907 3T881 0H194Q169 0 154 6T130 24T118 51T115 84V282Q115 397 144 480T231 616T379 694T591 720Q616 720 631 714T655 696T667
669T670 636V437ZM205 70Q305 70 376 91T492 157T559 271T580 437V640Q480 640 409 620T293 557T226 446T205 282V70ZM536 771Q514 775 493 784T452 803T418 825T395 845Q377 824 339 803T254 771L230 811L375 942H415L560 811L536 771Z" />
<glyph unicode="&#xd5;" glyph-name="Otilde" horiz-adv-x="761" d="M670 437Q670 295 627 207T495 70H951Q951 48 945 35T929 14T907 3T881 0H194Q169 0 154 6T130 24T118 51T115 84V282Q115 397 144 480T231 616T379 694T591 720Q616 720 631 714T655 696T667
669T670 636V437ZM205 70Q305 70 376 91T492 157T559 271T580 437V640Q480 640 409 620T293 557T226 446T205 282V70ZM301 885Q310 877 319 872T343 866Q361 866 403 884L437 899Q468 913 499 913Q537 913 562 892T587 837Q587 827 584 815T566 786L540 811Q531
819 522 824T498 830Q480 830 438 812L404 797Q373 783 342 783Q304 783 279 804T254 859Q254 869 257 881T275 910L301 885Z" />
<glyph unicode="&#xd6;" glyph-name="Odieresis" horiz-adv-x="801" d="M690 437Q690 295 647 207T515 70H971Q971 48 965 35T949 14T927 3T901 0H214Q189 0 174 6T150 24T138 51T135 84V282Q135 397 164 480T251 616T399 694T611 720Q636 720 651 714T675 696T687
669T690 636V437ZM225 70Q325 70 396 91T512 157T579 271T600 437V640Q500 640 429 620T313 557T246 446T225 282V70ZM273 854Q273 879 288 897T334 916Q364 916 380 898T396 854Q396 828 380 811T334 793Q303 793 288 810T273 854ZM495 854Q495 879 510 897T556
916Q586 916 602 898T618 854Q618 828 602 811T556 793Q525 793 510 810T495 854Z" />
<glyph unicode="&#xd7;" glyph-name="multiply" horiz-adv-x="460" d="M308 282L220 194Q203 177 190 177Q179 177 167 186T135 215L255 335L166 425Q150 441 150 454Q150 465 159 477T188 510L309 389L399 479Q415 495 428 495Q439 495 451 486T484 457L362 335L451
246Q468 229 468 216Q468 205 459 193T430 161L308 282Z" />
<glyph unicode="&#xd8;" glyph-name="Oslash" horiz-adv-x="761" d="M522 718Q539 719 556 719T591 720Q616 720 631 714T655 696T667 669T670 636V437Q670 295 627 207T495 70H951Q951 48 945 35T929 14T907 3T881 0H330L320 -40Q315 -58 310 -70T295 -88T274
-97T243 -100H234L260 0H194Q169 0 154 6T130 24T118 51T115 84V282Q115 475 197 579T450 710L461 750Q467 771 473 783T489 801T510 808T538 810H547L522 718ZM580 640Q559 640 539 639T500 636L353 85Q472 113 526 199T580 437V640ZM205 70Q244 70 280 73L427
625Q310 597 258 515T205 282V70Z" />
<glyph unicode="&#xd9;" glyph-name="Ugrave" horiz-adv-x="817" d="M587 347Q555 275 514 211T427 97T336 19T250 -10Q224 -10 207 -3T179 16T164 44T160 80V690Q160 698 166 704T180 710H230Q238 710 244 704T250 690V70Q271 70 304 93T375 157T450 253T518
373T568 507T587 647V710H623Q698 710 698 619Q698 592 692 567T677 519V70H1007Q1007 48 1001 35T985 14T963 3T937 0H648Q637 0 626 2T607 11T593 29T587 60V347ZM523 770Q488 776 449 785T376 807T320 833T298 865Q298 884 323 922L336 942L545 811L523 770Z"
/>
<glyph unicode="&#xda;" glyph-name="Uacute" horiz-adv-x="817" d="M587 347Q555 275 514 211T427 97T336 19T250 -10Q224 -10 207 -3T179 16T164 44T160 80V690Q160 698 166 704T180 710H230Q238 710 244 704T250 690V70Q271 70 304 93T375 157T450 253T518
373T568 507T587 647V710H623Q698 710 698 619Q698 592 692 567T677 519V70H1007Q1007 48 1001 35T985 14T963 3T937 0H648Q637 0 626 2T607 11T593 29T587 60V347ZM316 811L526 942L539 922Q563 885 563 865Q563 848 541 834T486 807T413 786T339 770L316 811Z"
/>
<glyph unicode="&#xdb;" glyph-name="Ucircumflex" horiz-adv-x="817" d="M587 347Q555 275 514 211T427 97T336 19T250 -10Q224 -10 207 -3T179 16T164 44T160 80V690Q160 698 166 704T180 710H230Q238 710 244 704T250 690V70Q271 70 304 93T375 157T450 253T518
373T568 507T587 647V710H623Q698 710 698 619Q698 592 692 567T677 519V70H1007Q1007 48 1001 35T985 14T963 3T937 0H648Q637 0 626 2T607 11T593 29T587 60V347ZM558 771Q536 775 515 784T474 803T440 825T417 845Q399 824 361 803T276 771L252 811L397 942H437L582
811L558 771Z" />
<glyph unicode="&#xdc;" glyph-name="Udieresis" horiz-adv-x="817" d="M587 347Q555 275 514 211T427 97T336 19T250 -10Q224 -10 207 -3T179 16T164 44T160 80V690Q160 698 166 704T180 710H230Q238 710 244 704T250 690V70Q271 70 304 93T375 157T450 253T518
373T568 507T587 647V710H623Q698 710 698 619Q698 592 692 567T677 519V70H1007Q1007 48 1001 35T985 14T963 3T937 0H648Q637 0 626 2T607 11T593 29T587 60V347ZM256 854Q256 879 271 897T317 916Q347 916 363 898T379 854Q379 828 363 811T317 793Q286 793
271 810T256 854ZM478 854Q478 879 493 897T539 916Q569 916 585 898T601 854Q601 828 585 811T539 793Q508 793 493 810T478 854Z" />
<glyph unicode="&#xdd;" glyph-name="Yacute" horiz-adv-x="817" d="M587 347Q555 275 514 211T427 97T336 19T250 -10Q224 -10 207 -3T179 16T164 44T160 80V690Q160 698 166 704T180 710H230Q238 710 244 704T250 690V70Q271 70 304 93T375 157T450 253T518
373T568 507T587 647V710H623Q698 710 698 619Q698 592 692 567T677 519V70H1007Q1007 48 1001 35T985 14T963 3T937 0H676Q674 -92 658 -152T609 -247T528 -296T410 -310Q378 -310 366 -294T354 -241V-230H410Q457 -230 490 -223T545 -189T577 -111T587 30V347ZM321
811L531 942L544 922Q568 885 568 865Q568 848 546 834T491 807T418 786T344 770L321 811Z" />
<glyph unicode="&#xde;" glyph-name="Thorn" horiz-adv-x="617" d="M161 120Q152 120 144 122T130 131T120 149T116 180V200Q130 200 143 200T170 202V690Q170 698 176 704T190 710H239Q247 710 253 704T260 690V630H349Q433 630 483 610T559 561T593 502T601
452Q601 398 572 347T494 254T385 179T260 132V70H807Q807 48 801 35T785 14T763 3T737 0H231Q220 0 209 2T190 11T176 29T170 60V120H161ZM260 550V216Q326 232 373 260T451 321T496 388T511 452Q511 473 503 491T476 522T426 542T349 550H260Z" />
<glyph unicode="&#xdf;" glyph-name="germandbls" horiz-adv-x="837" d="M666 630Q620 630 592 614T547 566T526 486T520 374H665Q684 374 700 372T729 361T748 336T755 294Q755 232 724 172T618 70H1027Q1027 48 1021 35T1005 14T983 3T957 0H279Q277 -92 261
-152T212 -247T131 -296T13 -310Q-19 -310 -31 -294T-43 -241V-230H13Q60 -230 93 -223T148 -189T180 -111T190 30V370Q190 472 205 537T252 641T335 695T457 710H726V690Q726 671 721 660T708 642T688 633T666 630ZM280 70Q406 70 482 93T598 151T652 226T665
299H520Q501 299 485 302T456 315T437 341T430 384Q430 414 433 447T443 514T464 577T496 630H457Q410 630 377 623T322 589T290 510T280 370V70Z" />
<glyph unicode="&#xe0;" glyph-name="agrave" horiz-adv-x="777" d="M280 75Q304 75 333 85T393 117T453 171T505 248T542 350T556 477V540H592Q667 540 667 449Q667 422 661 397T646 349V70H967Q967 48 961 35T945 14T923 3T897 0H617Q606 0 595 2T576 11T562
29T556 60V198Q529 151 496 114T427 50T354 10T280 -5Q254 -5 237 2T209 21T194 49T190 85V331Q190 387 202 428T241 497T311 537T417 550Q460 550 483 534T506 480V470H417Q381 470 356 465T313 444T288 401T280 331V75ZM519 620Q484 626 445 635T372 657T316
683T294 715Q294 734 319 772L332 792L541 661L519 620Z" />
<glyph unicode="&#xe1;" glyph-name="aacute" horiz-adv-x="777" d="M280 75Q304 75 333 85T393 117T453 171T505 248T542 350T556 477V540H592Q667 540 667 449Q667 422 661 397T646 349V70H967Q967 48 961 35T945 14T923 3T897 0H617Q606 0 595 2T576 11T562
29T556 60V198Q529 151 496 114T427 50T354 10T280 -5Q254 -5 237 2T209 21T194 49T190 85V331Q190 387 202 428T241 497T311 537T417 550Q460 550 483 534T506 480V470H417Q381 470 356 465T313 444T288 401T280 331V75ZM329 661L539 792L552 772Q576 735 576
715Q576 698 554 684T499 657T426 636T352 620L329 661Z" />
<glyph unicode="&#xe2;" glyph-name="acircumflex" horiz-adv-x="777" d="M280 75Q304 75 333 85T393 117T453 171T505 248T542 350T556 477V540H592Q667 540 667 449Q667 422 661 397T646 349V70H967Q967 48 961 35T945 14T923 3T897 0H617Q606 0 595 2T576 11T562
29T556 60V198Q529 151 496 114T427 50T354 10T280 -5Q254 -5 237 2T209 21T194 49T190 85V331Q190 387 202 428T241 497T311 537T417 550Q460 550 483 534T506 480V470H417Q381 470 356 465T313 444T288 401T280 331V75ZM579 621Q557 625 536 634T495 653T461
675T438 695Q420 674 382 653T297 621L273 661L418 792H458L603 661L579 621Z" />
<glyph unicode="&#xe3;" glyph-name="atilde" horiz-adv-x="777" d="M280 75Q304 75 333 85T393 117T453 171T505 248T542 350T556 477V540H592Q667 540 667 449Q667 422 661 397T646 349V70H967Q967 48 961 35T945 14T923 3T897 0H617Q606 0 595 2T576 11T562
29T556 60V198Q529 151 496 114T427 50T354 10T280 -5Q254 -5 237 2T209 21T194 49T190 85V331Q190 387 202 428T241 497T311 537T417 550Q460 550 483 534T506 480V470H417Q381 470 356 465T313 444T288 401T280 331V75ZM330 735Q339 727 348 722T372 716Q390
716 432 734L466 749Q497 763 528 763Q566 763 591 742T616 687Q616 677 613 665T595 636L569 661Q560 669 551 674T527 680Q509 680 467 662L433 647Q402 633 371 633Q333 633 308 654T283 709Q283 719 286 731T304 760L330 735Z" />
<glyph unicode="&#xe4;" glyph-name="adieresis" horiz-adv-x="777" d="M280 75Q304 75 333 85T393 117T453 171T505 248T542 350T556 477V540H592Q667 540 667 449Q667 422 661 397T646 349V70H967Q967 48 961 35T945 14T923 3T897 0H617Q606 0 595 2T576 11T562
29T556 60V198Q529 151 496 114T427 50T354 10T280 -5Q254 -5 237 2T209 21T194 49T190 85V331Q190 387 202 428T241 497T311 537T417 550Q460 550 483 534T506 480V470H417Q381 470 356 465T313 444T288 401T280 331V75ZM284 704Q284 729 299 747T345 766Q375
766 391 748T407 704Q407 678 391 661T345 643Q314 643 299 660T284 704ZM506 704Q506 729 521 747T567 766Q597 766 613 748T629 704Q629 678 613 661T567 643Q536 643 521 660T506 704Z" />
<glyph unicode="&#xe5;" glyph-name="aring" horiz-adv-x="777" d="M280 75Q304 75 333 85T393 117T453 171T505 248T542 350T556 477V540H592Q667 540 667 449Q667 422 661 397T646 349V70H967Q967 48 961 35T945 14T923 3T897 0H617Q606 0 595 2T576 11T562
29T556 60V198Q529 151 496 114T427 50T354 10T280 -5Q254 -5 237 2T209 21T194 49T190 85V331Q190 387 202 428T241 497T311 537T417 550Q460 550 483 534T506 480V470H417Q381 470 356 465T313 444T288 401T280 331V75ZM436 591Q375 591 346 624T317 707Q317
758 346 791T436 824Q497 824 526 791T555 707Q555 657 526 624T436 591ZM436 655Q464 655 477 669T490 707Q490 730 477 745T436 760Q408 760 395 745T382 707Q382 684 395 670T436 655Z" />
<glyph unicode="&#xe6;" glyph-name="ae" horiz-adv-x="1045" d="M787 275Q824 276 850 282T892 308T916 366T924 470Q833 470 779 463T695 432T656 363T647 240V200Q647 156 650 130T668 91T710 74T789 70H1235Q1235 48 1229 35T1213 14T1191 3T1165 0H789Q707
0 661 8T591 39T562 99T556 198Q529 151 496 114T427 50T354 10T280 -5Q254 -5 237 2T209 21T194 49T190 85V331Q190 387 202 428T241 497T311 537T417 550Q460 550 483 534T506 480V470H417Q381 470 356 465T313 444T288 401T280 331V75Q304 75 333 85T393 117T453
171T505 248T542 350T556 477V540H585Q604 540 620 533T643 502Q685 528 752 539T924 550Q976 550 995 524T1014 461Q1014 384 1000 334T954 253T875 211T758 199Q731 199 720 209T708 251V272L787 275Z" />
<glyph unicode="&#xe7;" glyph-name="ccedilla" horiz-adv-x="619" d="M582 443Q582 417 579 396T565 358T537 333T488 324V480Q421 480 373 466T293 420T246 334T231 200Q231 156 234 130T252 91T294 74T373 70H809Q809 48 803 35T787 14T765 3T739 0H393L375
-93H464Q490 -93 502 -111T515 -149Q515 -225 468 -267T332 -310Q319 -310 311 -308T299 -298T293 -278T291 -243H312Q380 -243 407 -226T434 -160H339Q322 -160 316 -154T309 -134Q309 -132 309 -128T312 -111T319 -72T333 0Q265 2 227 12T169 45T145 105T140
200Q140 382 223 471T466 560Q502 560 524 552T560 527T577 490T582 443Z" />
<glyph unicode="&#xe8;" glyph-name="egrave" horiz-adv-x="639" d="M241 200Q241 156 244 130T262 91T304 74T383 70H829Q829 48 823 35T807 14T785 3T759 0H383Q301 0 255 8T185 39T156 100T150 200V241Q150 327 161 386T211 481T322 534T518 550Q570 550 589
524T608 461Q608 384 594 334T548 253T469 211T352 199Q325 199 314 209T302 251V272L381 275Q418 276 444 282T486 308T510 366T518 470Q427 470 373 463T289 432T250 363T241 240V200ZM480 620Q445 626 406 635T333 657T277 683T255 715Q255 734 280 772L293
792L502 661L480 620Z" />
<glyph unicode="&#xe9;" glyph-name="eacute" horiz-adv-x="639" d="M241 200Q241 156 244 130T262 91T304 74T383 70H829Q829 48 823 35T807 14T785 3T759 0H383Q301 0 255 8T185 39T156 100T150 200V241Q150 327 161 386T211 481T322 534T518 550Q570 550 589
524T608 461Q608 384 594 334T548 253T469 211T352 199Q325 199 314 209T302 251V272L381 275Q418 276 444 282T486 308T510 366T518 470Q427 470 373 463T289 432T250 363T241 240V200ZM312 661L522 792L535 772Q559 735 559 715Q559 698 537 684T482 657T409
636T335 620L312 661Z" />
<glyph unicode="&#xea;" glyph-name="ecircumflex" horiz-adv-x="639" d="M241 200Q241 156 244 130T262 91T304 74T383 70H829Q829 48 823 35T807 14T785 3T759 0H383Q301 0 255 8T185 39T156 100T150 200V241Q150 327 161 386T211 481T322 534T518 550Q570 550
589 524T608 461Q608 384 594 334T548 253T469 211T352 199Q325 199 314 209T302 251V272L381 275Q418 276 444 282T486 308T510 366T518 470Q427 470 373 463T289 432T250 363T241 240V200ZM553 621Q531 625 510 634T469 653T435 675T412 695Q394 674 356 653T271
621L247 661L392 792H432L577 661L553 621Z" />
<glyph unicode="&#xeb;" glyph-name="edieresis" horiz-adv-x="639" d="M241 200Q241 156 244 130T262 91T304 74T383 70H829Q829 48 823 35T807 14T785 3T759 0H383Q301 0 255 8T185 39T156 100T150 200V241Q150 327 161 386T211 481T322 534T518 550Q570 550
589 524T608 461Q608 384 594 334T548 253T469 211T352 199Q325 199 314 209T302 251V272L381 275Q418 276 444 282T486 308T510 366T518 470Q427 470 373 463T289 432T250 363T241 240V200ZM228 704Q228 729 243 747T289 766Q319 766 335 748T351 704Q351 678
335 661T289 643Q258 643 243 660T228 704ZM450 704Q450 729 465 747T511 766Q541 766 557 748T573 704Q573 678 557 661T511 643Q480 643 465 660T450 704Z" />
<glyph unicode="&#xec;" glyph-name="igrave" horiz-adv-x="411" d="M601 70Q601 48 595 35T579 14T557 3T531 0H251Q240 0 229 2T210 11T196 29T190 60V520Q190 528 196 534T210 540H259Q267 540 273 534T280 520V70H601ZM337 620Q302 626 263 635T190 657T134
683T112 715Q112 734 137 772L150 792L359 661L337 620Z" />
<glyph unicode="&#xed;" glyph-name="iacute" horiz-adv-x="411" d="M601 70Q601 48 595 35T579 14T557 3T531 0H251Q240 0 229 2T210 11T196 29T190 60V520Q190 528 196 534T210 540H259Q267 540 273 534T280 520V70H601ZM142 661L352 792L365 772Q389 735 389
715Q389 698 367 684T312 657T239 636T165 620L142 661Z" />
<glyph unicode="&#xee;" glyph-name="icircumflex" horiz-adv-x="411" d="M601 70Q601 48 595 35T579 14T557 3T531 0H251Q240 0 229 2T210 11T196 29T190 60V520Q190 528 196 534T210 540H259Q267 540 273 534T280 520V70H601ZM375 621Q353 625 332 634T291 653T257
675T234 695Q216 674 178 653T93 621L69 661L214 792H254L399 661L375 621Z" />
<glyph unicode="&#xef;" glyph-name="idieresis" horiz-adv-x="411" d="M601 70Q601 48 595 35T579 14T557 3T531 0H251Q240 0 229 2T210 11T196 29T190 60V520Q190 528 196 534T210 540H259Q267 540 273 534T280 520V70H601ZM63 704Q63 729 78 747T124 766Q154
766 170 748T186 704Q186 678 170 661T124 643Q93 643 78 660T63 704ZM285 704Q285 729 300 747T346 766Q376 766 392 748T408 704Q408 678 392 661T346 643Q315 643 300 660T285 704Z" />
<glyph unicode="&#xf0;" glyph-name="eth" horiz-adv-x="739" d="M456 650Q419 674 361 697L304 719L307 727Q315 750 327 765T362 780Q368 780 378 779T409 769Q450 754 483 736T543 694L609 728Q629 738 640 738Q653 738 664 728T689 690L591 640Q626 590 642
520T658 350Q658 251 626 182T533 70H929Q929 48 923 35T907 14T885 3T859 0H280Q252 0 235 7T207 26T194 54T190 90V281Q190 337 202 378T241 447T311 487T417 500Q445 500 460 484T476 430V420H417Q381 420 356 415T313 394T288 351T280 281V70H294Q365 71 416
85T502 133T552 219T568 350Q568 439 556 498T511 599L453 570Q433 560 421 560Q408 560 398 570T373 608L456 650Z" />
<glyph unicode="&#xf1;" glyph-name="ntilde" horiz-adv-x="788" d="M251 0Q209 0 190 21T170 91Q170 118 175 143T191 191V520Q191 528 197 534T211 540H261Q269 540 275 534T281 520V340Q309 389 343 430T416 499T493 544T568 560Q594 560 611 553T639 534T654
506T658 470V70H978Q978 48 972 35T956 14T934 3T908 0H628Q617 0 606 2T587 11T573 29T568 60V480Q532 480 483 454T389 376T313 246T281 63V0H251ZM335 735Q344 727 353 722T377 716Q395 716 437 734L471 749Q502 763 533 763Q571 763 596 742T621 687Q621 677
618 665T600 636L574 661Q565 669 556 674T532 680Q514 680 472 662L438 647Q407 633 376 633Q338 633 313 654T288 709Q288 719 291 731T309 760L335 735Z" />
<glyph unicode="&#xf2;" glyph-name="ograve" horiz-adv-x="739" d="M496 532Q496 562 514 583T568 605Q602 605 620 586T641 540H999Q999 496 977 478T929 460H658V360Q658 178 566 89T280 0Q252 0 235 7T207 26T194 54T190 90V331Q190 387 202 428T241 497T311
537T417 550Q445 550 460 534T476 480V470H417Q381 470 356 465T313 444T288 401T280 331V80Q355 80 409 94T498 140T551 226T568 360V460Q532 460 514 481T496 532ZM500 620Q465 626 426 635T353 657T297 683T275 715Q275 734 300 772L313 792L522 661L500 620Z"
/>
<glyph unicode="&#xf3;" glyph-name="oacute" horiz-adv-x="739" d="M496 532Q496 562 514 583T568 605Q602 605 620 586T641 540H999Q999 496 977 478T929 460H658V360Q658 178 566 89T280 0Q252 0 235 7T207 26T194 54T190 90V331Q190 387 202 428T241 497T311
537T417 550Q445 550 460 534T476 480V470H417Q381 470 356 465T313 444T288 401T280 331V80Q355 80 409 94T498 140T551 226T568 360V460Q532 460 514 481T496 532ZM345 661L555 792L568 772Q592 735 592 715Q592 698 570 684T515 657T442 636T368 620L345 661Z"
/>
<glyph unicode="&#xf4;" glyph-name="ocircumflex" horiz-adv-x="739" d="M496 532Q496 562 514 583T568 605Q602 605 620 586T641 540H999Q999 496 977 478T929 460H658V360Q658 178 566 89T280 0Q252 0 235 7T207 26T194 54T190 90V331Q190 387 202 428T241
497T311 537T417 550Q445 550 460 534T476 480V470H417Q381 470 356 465T313 444T288 401T280 331V80Q355 80 409 94T498 140T551 226T568 360V460Q532 460 514 481T496 532ZM570 621Q548 625 527 634T486 653T452 675T429 695Q411 674 373 653T288 621L264 661L409
792H449L594 661L570 621Z" />
<glyph unicode="&#xf5;" glyph-name="otilde" horiz-adv-x="739" d="M496 532Q496 562 514 583T568 605Q602 605 620 586T641 540H999Q999 496 977 478T929 460H658V360Q658 178 566 89T280 0Q252 0 235 7T207 26T194 54T190 90V331Q190 387 202 428T241 497T311
537T417 550Q445 550 460 534T476 480V470H417Q381 470 356 465T313 444T288 401T280 331V80Q355 80 409 94T498 140T551 226T568 360V460Q532 460 514 481T496 532ZM311 735Q320 727 329 722T353 716Q371 716 413 734L447 749Q478 763 509 763Q547 763 572 742T597
687Q597 677 594 665T576 636L550 661Q541 669 532 674T508 680Q490 680 448 662L414 647Q383 633 352 633Q314 633 289 654T264 709Q264 719 267 731T285 760L311 735Z" />
<glyph unicode="&#xf6;" glyph-name="odieresis" horiz-adv-x="739" d="M496 532Q496 562 514 583T568 605Q602 605 620 586T641 540H999Q999 496 977 478T929 460H658V360Q658 178 566 89T280 0Q252 0 235 7T207 26T194 54T190 90V331Q190 387 202 428T241 497T311
537T417 550Q445 550 460 534T476 480V470H417Q381 470 356 465T313 444T288 401T280 331V80Q355 80 409 94T498 140T551 226T568 360V460Q532 460 514 481T496 532ZM250 704Q250 729 265 747T311 766Q341 766 357 748T373 704Q373 678 357 661T311 643Q280 643
265 660T250 704ZM472 704Q472 729 487 747T533 766Q563 766 579 748T595 704Q595 678 579 661T533 643Q502 643 487 660T472 704Z" />
<glyph unicode="&#xf7;" glyph-name="divide" horiz-adv-x="460" d="M250 504Q250 529 261 547T310 565Q345 565 358 547T371 504Q371 478 358 461T310 444Q273 444 262 461T250 504ZM445 374Q473 374 481 360T490 299H175Q161 299 152 302T138 313T132 336T130
374H445ZM250 168Q250 193 261 211T310 229Q345 229 358 211T371 168Q371 142 358 125T310 108Q273 108 262 125T250 168Z" />
<glyph unicode="&#xf8;" glyph-name="oslash" horiz-adv-x="739" d="M405 93Q447 103 477 123T528 176T558 253T568 360V460Q568 493 587 516T647 540H999Q999 496 977 478T929 460H658V360Q658 204 590 117T382 7L355 -93Q350 -111 345 -123T330 -141T309 -150T278
-153H269L310 0H280Q252 0 235 7T207 26T194 54T190 90V331Q190 387 202 428T241 497T311 537T417 550Q440 550 454 540L496 697Q502 718 508 730T524 748T545 755T573 757H582L405 93ZM331 81L435 470H417Q381 470 356 465T313 444T288 401T280 331V80L331 81Z"
/>
<glyph unicode="&#xf9;" glyph-name="ugrave" horiz-adv-x="767" d="M280 75Q316 75 362 98T449 171T518 296T546 477V540H582Q657 540 657 449Q657 422 651 397T636 349V70H957Q957 48 951 35T935 14T913 3T887 0H607Q596 0 585 2T566 11T552 29T546 60V192Q520
147 489 111T423 49T352 9T280 -5Q254 -5 237 2T209 21T194 49T190 85V520Q190 528 196 534T210 540H259Q267 540 273 534T280 520V75ZM514 620Q479 626 440 635T367 657T311 683T289 715Q289 734 314 772L327 792L536 661L514 620Z" />
<glyph unicode="&#xfa;" glyph-name="uacute" horiz-adv-x="767" d="M280 75Q316 75 362 98T449 171T518 296T546 477V540H582Q657 540 657 449Q657 422 651 397T636 349V70H957Q957 48 951 35T935 14T913 3T887 0H607Q596 0 585 2T566 11T552 29T546 60V192Q520
147 489 111T423 49T352 9T280 -5Q254 -5 237 2T209 21T194 49T190 85V520Q190 528 196 534T210 540H259Q267 540 273 534T280 520V75ZM324 661L534 792L547 772Q571 735 571 715Q571 698 549 684T494 657T421 636T347 620L324 661Z" />
<glyph unicode="&#xfb;" glyph-name="ucircumflex" horiz-adv-x="767" d="M280 75Q316 75 362 98T449 171T518 296T546 477V540H582Q657 540 657 449Q657 422 651 397T636 349V70H957Q957 48 951 35T935 14T913 3T887 0H607Q596 0 585 2T566 11T552 29T546 60V192Q520
147 489 111T423 49T352 9T280 -5Q254 -5 237 2T209 21T194 49T190 85V520Q190 528 196 534T210 540H259Q267 540 273 534T280 520V75ZM554 621Q532 625 511 634T470 653T436 675T413 695Q395 674 357 653T272 621L248 661L393 792H433L578 661L554 621Z" />
<glyph unicode="&#xfc;" glyph-name="udieresis" horiz-adv-x="767" d="M280 75Q316 75 362 98T449 171T518 296T546 477V540H582Q657 540 657 449Q657 422 651 397T636 349V70H957Q957 48 951 35T935 14T913 3T887 0H607Q596 0 585 2T566 11T552 29T546 60V192Q520
147 489 111T423 49T352 9T280 -5Q254 -5 237 2T209 21T194 49T190 85V520Q190 528 196 534T210 540H259Q267 540 273 534T280 520V75ZM245 704Q245 729 260 747T306 766Q336 766 352 748T368 704Q368 678 352 661T306 643Q275 643 260 660T245 704ZM467 704Q467
729 482 747T528 766Q558 766 574 748T590 704Q590 678 574 661T528 643Q497 643 482 660T467 704Z" />
<glyph unicode="&#xfd;" glyph-name="yacute" horiz-adv-x="736" d="M249 80Q285 80 330 103T415 174T482 297T510 477V540H535Q577 540 596 519T616 449Q616 422 610 397T595 349V70H926Q926 48 920 35T904 14T882 3T856 0H594Q592 -92 576 -152T527 -247T446
-296T328 -310Q296 -310 284 -294T272 -241V-230H328Q375 -230 408 -223T463 -189T495 -111T505 30V189Q480 145 449 111T381 51T307 13T228 0Q190 0 175 10T159 51V520Q159 528 165 534T179 540H228Q236 540 242 534T249 520V80ZM274 661L484 792L497 772Q521
735 521 715Q521 698 499 684T444 657T371 636T297 620L274 661Z" />
<glyph unicode="&#xfe;" glyph-name="thorn" horiz-adv-x="787" d="M190 740Q190 748 196 754T210 760H259Q267 760 273 754T280 740V328Q309 379 345 422T420 495T500 543T577 560Q603 560 620 553T648 534T663 506T667 470V219Q667 177 651 137T590 70H977Q977
48 971 35T955 14T933 3T907 0H402Q391 0 380 2T361 11T347 29T342 60V70H440Q477 70 503 85T545 124T569 173T577 219V480Q541 480 491 454T393 376T313 246T280 63V-300H263Q207 -300 183 -282T158 -215Q158 -162 167 -96T190 38V740Z" />
<glyph unicode="&#xff;" glyph-name="ydieresis" horiz-adv-x="767" d="M280 80Q316 80 361 103T446 174T513 297T541 477V540H566Q608 540 627 519T647 449Q647 422 641 397T626 349V70H957Q957 48 951 35T935 14T913 3T887 0H625Q623 -92 607 -152T558 -247T477
-296T359 -310Q327 -310 315 -294T303 -241V-230H359Q406 -230 439 -223T494 -189T526 -111T536 30V189Q511 145 480 111T412 51T338 13T259 0Q221 0 206 10T190 51V520Q190 528 196 534T210 540H259Q267 540 273 534T280 520V80ZM242 704Q242 729 257 747T303
766Q333 766 349 748T365 704Q365 678 349 661T303 643Q272 643 257 660T242 704ZM464 704Q464 729 479 747T525 766Q555 766 571 748T587 704Q587 678 571 661T525 643Q494 643 479 660T464 704Z" />
<glyph unicode="&#x2013;" glyph-name="endash" horiz-adv-x="660" d="M525 374Q539 374 552 371T576 360T593 337T600 299H175Q161 299 148 302T124 313T107 336T100 374H525Z" />
<glyph unicode="&#x2014;" glyph-name="emdash" horiz-adv-x="860" d="M725 374Q739 374 752 371T776 360T793 337T800 299H175Q161 299 148 302T124 313T107 336T100 374H725Z" />
<glyph unicode="&#x2018;" glyph-name="quoteleft" horiz-adv-x="183" d="M193 776Q184 758 175 739T159 695T148 635T143 551V496H112Q74 496 57 515T39 578Q39 608 49 640T77 703T115 760T156 807L193 776Z" />
<glyph unicode="&#x2019;" glyph-name="quoteright" horiz-adv-x="193" d="M39 517Q48 535 57 554T73 598T84 658T89 742V797H120Q158 797 175 778T193 715Q193 685 183 653T155 590T117 532T76 486L39 517Z" />
<glyph unicode="&#x201a;" glyph-name="quotesinglbase" horiz-adv-x="343" d="M194 -157Q203 -139 212 -120T228 -76T239 -16T244 68V123H275Q313 123 330 104T348 41Q348 11 338 -21T310 -84T272 -142T231 -188L194 -157Z" />
<glyph unicode="&#x201c;" glyph-name="quotedblleft" horiz-adv-x="363" d="M193 776Q184 758 175 739T159 695T148 635T143 551V496H112Q74 496 57 515T39 578Q39 608 49 640T77 703T115 760T156 807L193 776ZM373 776Q364 758 355 739T339 695T328 635T323
551V496H292Q254 496 237 515T219 578Q219 608 229 640T257 703T295 760T336 807L373 776Z" />
<glyph unicode="&#x201d;" glyph-name="quotedblright" horiz-adv-x="373" d="M219 517Q228 535 237 554T253 598T264 658T269 742V797H300Q338 797 355 778T373 715Q373 685 363 653T335 590T297 532T256 486L219 517ZM39 517Q48 535 57 554T73 598T84 658T89
742V797H120Q158 797 175 778T193 715Q193 685 183 653T155 590T117 532T76 486L39 517Z" />
<glyph unicode="&#x201e;" glyph-name="quotedblbase" horiz-adv-x="523" d="M374 -157Q383 -139 392 -120T408 -76T419 -16T424 68V123H455Q493 123 510 104T528 41Q528 11 518 -21T490 -84T452 -142T411 -188L374 -157ZM194 -157Q203 -139 212 -120T228 -76T239
-16T244 68V123H275Q313 123 330 104T348 41Q348 11 338 -21T310 -84T272 -142T231 -188L194 -157Z" />
<glyph unicode="&#x2022;" glyph-name="bullet" horiz-adv-x="397" d="M185 355Q185 374 189 391T203 422T232 442T279 450Q306 450 324 443T354 422T369 392T374 355Q374 335 370 318T354 288T325 268T279 261Q250 261 232 268T204 288T189 318T185 355Z" />
<glyph unicode="&#x2039;" glyph-name="guilsinglleft" horiz-adv-x="302" d="M183 224Q188 219 195 209T202 187Q202 176 191 160T164 129L24 286Q13 297 7 310T0 334Q0 358 24 382L164 540Q179 525 190 509T202 482Q202 470 195 460T183 445L94 334L183 224Z" />
<glyph unicode="&#x203a;" glyph-name="guilsinglright" horiz-adv-x="427" d="M333 334L244 445Q239 450 232 460T225 482Q225 493 236 509T263 540L403 382Q427 358 427 334Q427 323 421 310T403 286L263 129Q248 144 237 160T225 187Q225 199 232 209T244 224L333
334Z" />
</font>
</defs>
</svg>
