<?xml version="1.0" standalone="no"?>
<!DOCTYPE svg PUBLIC "-//W3C//DTD SVG 1.1//EN" "http://www.w3.org/Graphics/SVG/1.1/DTD/svg11.dtd">
<svg xmlns="http://www.w3.org/2000/svg">
<defs >
<font id="Orbitron" horiz-adv-x="564" ><font-face
    font-family="Orbitron"
    units-per-em="1000"
    panose-1="2 0 0 0 0 0 0 0 0 0"
    ascent="750"
    descent="-250"
    alphabetic="0" />
<glyph unicode=" " glyph-name="space" horiz-adv-x="308" />
<glyph unicode="!" glyph-name="exclam" horiz-adv-x="220" d="M189 0H58V131H189V0ZM58 197V720H189V197H58Z" />
<glyph unicode="&quot;" glyph-name="quotedbl" horiz-adv-x="372" d="M191 719V537H59V719H191ZM350 719V537H219V719H350Z" />
<glyph unicode="#" glyph-name="numbersign" horiz-adv-x="797" d="M757 566V435H640L594 291H728V160H553L505 0H373L422 160H246L198 0H66L115 160H32V291H155L201 435H61V566H243L293 720H427L375 566H550L601 720H734L682 566H757ZM287 291H462L508 435H333L287 291Z" />
<glyph unicode="$" glyph-name="dollar" horiz-adv-x="788" d="M747 582V528H616V582Q616 589 609 589H456V426H609Q666 426 706 386T747 288V138Q747 81 707 41T609 0H456V-103H325V0H172Q115 0 75 40T34 138V192H165V138Q165 131 172 131H325V295H172Q115 295
75 335T34 433V582Q34 639 74 679T172 720H325V823H456V720H609Q666 720 706 680T747 582ZM609 295H456V131H609Q616 131 616 138V288Q616 295 609 295ZM325 426V589H172Q165 589 165 582V433Q165 426 172 426H325Z" />
<glyph unicode="%" glyph-name="percent" horiz-adv-x="966" d="M808 720H841V577L161 0H128V143L808 720ZM186 713H272Q329 713 369 673T410 575V499Q410 442 370 402T272 361H186Q129 361 89 401T48 499V575Q48 632 88 672T186 713ZM167 474H291Q297 474 297
480V594Q297 601 291 601H167Q160 601 160 594V480Q160 474 167 474ZM679 351H764Q821 351 861 311T902 213V137Q902 80 862 40T764 -1H679Q622 -1 582 39T541 137V213Q541 270 581 310T679 351ZM660 111H783Q790 111 790 118V232Q790 239 783 239H660Q653 239
653 232V118Q653 111 660 111Z" />
<glyph unicode="&amp;" glyph-name="ampersand" horiz-adv-x="938" d="M766 195L887 124V-8L749 70Q732 38 700 19T628 0H191Q134 0 94 40T53 138V332Q53 354 66 379T103 414Q91 435 91 476V582Q91 639 131 679T229 720H600Q650 720 689 688T737 606V521H606V581Q606
588 600 588H229Q222 588 222 581V457L635 249V358H766V195ZM191 131H608L198 338H191Q184 338 184 332V138Q184 131 191 131Z" />
<glyph unicode="&apos;" glyph-name="quotesingle" horiz-adv-x="224" d="M190 719V537H59V719H190Z" />
<glyph unicode="(" glyph-name="parenleft" horiz-adv-x="277" d="M189 131H244V0H189Q132 0 92 40T52 138V582Q52 639 92 679T189 720H244V589H189Q183 589 183 582V138Q183 131 189 131Z" />
<glyph unicode=")" glyph-name="parenright" horiz-adv-x="278" d="M56 0V131H111Q117 131 117 138V582Q117 589 111 589H56V720H111Q167 720 208 680T249 582V138Q249 81 208 41T111 0H56Z" />
<glyph unicode="*" glyph-name="asterisk" horiz-adv-x="491" d="M439 632L480 506L358 467L434 364L328 287L251 390L177 287L71 364L146 467L25 506L65 632L186 591V719H318V592L439 632Z" />
<glyph unicode="+" glyph-name="plus" horiz-adv-x="433" d="M154 499H285V361H426V230H285V90H154V230H17V361H154V499Z" />
<glyph unicode="," glyph-name="comma" horiz-adv-x="220" d="M54 119H185V2Q185 -49 148 -88T54 -137V119Z" />
<glyph unicode="-" glyph-name="hyphen" horiz-adv-x="517" d="M468 361V230H59V361H468Z" />
<glyph unicode="." glyph-name="period" horiz-adv-x="214" d="M185 131V0H54V131H185Z" />
<glyph unicode="/" glyph-name="slash" horiz-adv-x="521" d="M6 142L484 720H519V579L41 0H6V142Z" />
<glyph unicode="0" glyph-name="zero" horiz-adv-x="834" d="M195 720H632Q689 720 729 678T770 579V142Q770 85 730 43T632 0H195Q138 0 98 42T57 142V579Q57 636 97 678T195 720ZM580 586H195Q188 586 188 579V257L580 586ZM247 135H632Q639 135 639 142V464L247 135Z" />
<glyph unicode="1" glyph-name="one" horiz-adv-x="391" d="M1 461L218 720H363V0H232V529L174 461H1Z" />
<glyph unicode="2" glyph-name="two" horiz-adv-x="830" d="M195 720H632Q689 720 729 680T770 582V422Q770 365 730 325T632 284H195Q188 284 188 278V138Q188 131 195 131H770V0H57V278Q57 335 97 375T195 416H632Q639 416 639 422V582Q639 589 632 589H195Q188
589 188 582V528H57V582Q57 639 97 679T195 720Z" />
<glyph unicode="3" glyph-name="three" horiz-adv-x="826" d="M738 582V438Q738 409 728 388Q766 348 766 294V138Q766 81 726 41T629 0H191Q134 0 94 40T53 138V181H184V138Q184 131 191 131H629Q635 131 635 138V294Q635 301 629 301H177V432H600Q607 432 607
438V582Q607 589 600 589H191Q184 589 184 582V530H53V582Q53 639 93 679T191 720H600Q657 720 697 680T738 582Z" />
<glyph unicode="4" glyph-name="four" horiz-adv-x="730" d="M590 312H691V181H590V0H459V181H6V304L467 720H590V312ZM459 514L210 312H459V514Z" />
<glyph unicode="5" glyph-name="five" horiz-adv-x="830" d="M188 582V441Q188 435 195 435H632Q689 435 729 395T770 297V138Q770 81 730 41T632 0H195Q138 0 98 40T57 138V192H188V138Q188 131 195 131H632Q639 131 639 138V297Q639 303 632 303H57V720H770V589H195Q188
589 188 582Z" />
<glyph unicode="6" glyph-name="six" horiz-adv-x="820" d="M195 435H632Q689 435 729 395T770 297V138Q770 81 730 41T632 0H195Q138 0 98 40T57 138V582Q57 639 97 679T195 720H656V589H195Q188 589 188 582V441Q188 435 195 435ZM639 138V297Q639 303 632 303H188V138Q188
131 195 131H632Q639 131 639 138Z" />
<glyph unicode="7" glyph-name="seven" horiz-adv-x="660" d="M3 720H464Q521 720 561 680T602 582V0H471V582Q471 589 464 589H3V720Z" />
<glyph unicode="8" glyph-name="eight" horiz-adv-x="834" d="M770 606V441Q770 399 750 369Q770 339 770 297V138Q770 81 730 41T632 0H195Q138 0 98 40T57 138V297Q57 337 77 369Q57 401 57 441V582Q57 639 97 679T195 720H632Q683 720 722 688T770 606ZM639
138V297Q639 303 632 303H195Q188 303 188 297V138Q188 131 195 131H632Q639 131 639 138ZM639 431V581Q639 588 632 588H195Q188 588 188 581V431Q188 424 195 424H632Q639 424 639 431Z" />
<glyph unicode="9" glyph-name="nine" horiz-adv-x="828" d="M628 288H190Q133 288 93 328T52 426V582Q52 639 92 679T190 720H628Q685 720 725 680T765 582V138Q765 81 725 41T628 0H190Q139 0 100 37T51 131H628Q634 131 634 138V282Q634 288 628 288ZM184 582V426Q184
420 190 420H634V582Q634 589 628 589H190Q184 589 184 582Z" />
<glyph unicode=":" glyph-name="colon" horiz-adv-x="214" d="M54 131H185V0H54V131ZM185 588V456H54V588H185Z" />
<glyph unicode=";" glyph-name="semicolon" horiz-adv-x="217" d="M182 588V456H51V588H182ZM51 119H182V2Q182 -49 145 -88T51 -137V119Z" />
<glyph unicode="&lt;" glyph-name="less" horiz-adv-x="473" d="M163 296L424 145V-7L5 237V355L424 597V446L163 296Z" />
<glyph unicode="=" glyph-name="equal" horiz-adv-x="638" d="M582 267V136H59V267H582ZM582 448V317H59V448H582Z" />
<glyph unicode="&gt;" glyph-name="greater" horiz-adv-x="475" d="M59 -9V143L319 294L59 444V595L479 353V235L59 -9Z" />
<glyph unicode="?" glyph-name="question" horiz-adv-x="678" d="M31 720H517Q575 720 615 680T655 582V407Q655 350 615 310T517 269H271Q265 269 265 263V196H133V263Q133 320 173 360T271 401H517Q524 401 524 407V582Q524 589 517 589H31V720ZM265 0H133V131H265V0Z" />
<glyph unicode="@" glyph-name="at" horiz-adv-x="831" d="M381 529H447Q504 529 544 489T584 392V310H639V582Q639 589 632 589H195Q188 589 188 582V138Q188 131 195 131H770V0H195Q138 0 98 40T57 138V582Q57 639 97 679T195 720H632Q689 720 729 680T770 582V198H381Q324
198 284 238T243 336V392Q243 449 283 489T381 529ZM352 310H482V421Q482 427 476 427H352Q345 427 345 421V317Q345 310 352 310Z" />
<glyph unicode="A" glyph-name="A" horiz-adv-x="836" d="M197 720H638Q696 720 737 680T778 581V0H645V242H190V0H58V581Q58 639 98 679T197 720ZM190 374H645V581Q645 588 638 588H197Q190 588 190 581V374Z" />
<glyph unicode="B" glyph-name="B" horiz-adv-x="832" d="M750 581V440Q750 410 740 389Q779 348 779 294V139Q779 81 738 41T639 0H59V720H611Q668 720 709 680T750 581ZM611 588H198Q191 588 191 581V440Q191 433 198 433H611Q617 433 617 440V581Q617 588 611
588ZM646 139V294Q646 300 639 300H198Q191 300 191 294V139Q191 132 198 132H639Q646 132 646 139Z" />
<glyph unicode="C" glyph-name="C" horiz-adv-x="822" d="M774 588H195Q188 588 188 581V139Q188 132 195 132H774V0H195Q137 0 97 40T56 139V581Q56 639 96 679T195 720H774V588Z" />
<glyph unicode="D" glyph-name="D" horiz-adv-x="834" d="M58 720H638Q696 720 737 680T778 581V139Q778 81 737 41T638 0H58V720ZM645 139V581Q645 588 638 588H197Q190 588 190 581V139Q190 132 197 132H638Q645 132 645 139Z" />
<glyph unicode="E" glyph-name="E" horiz-adv-x="766" d="M720 720V588H191V426H617V294H191V132H720V0H58V720H720Z" />
<glyph unicode="F" glyph-name="F" horiz-adv-x="723" d="M58 720H720V588H191V426H617V294H191V0H58V720Z" />
<glyph unicode="G" glyph-name="G" horiz-adv-x="830" d="M776 581V525H643V581Q643 588 636 588H195Q188 588 188 581V139Q188 132 195 132H636Q643 132 643 139V275H480V407H776V139Q776 81 735 41T636 0H195Q137 0 97 40T56 139V581Q56 639 96 679T195 720H636Q694
720 735 680T776 581Z" />
<glyph unicode="H" glyph-name="H" horiz-adv-x="851" d="M661 720H793V0H661V294H189V0H57V720H189V426H661V720Z" />
<glyph unicode="I" glyph-name="I" horiz-adv-x="220" d="M57 0V720H189V0H57Z" />
<glyph unicode="J" glyph-name="J" horiz-adv-x="780" d="M591 139V720H724V139Q724 81 683 41T585 0H143Q85 0 45 40T4 139V221H136V139Q136 132 143 132H585Q591 132 591 139Z" />
<glyph unicode="K" glyph-name="K" horiz-adv-x="797" d="M606 720H751V685L479 360L751 35V0H606L360 294H190V0H57V720H190V426H360L606 720Z" />
<glyph unicode="L" glyph-name="L" horiz-adv-x="779" d="M57 0V721H189V132H777V0H57Z" />
<glyph unicode="M" glyph-name="M" horiz-adv-x="928" d="M462 408L723 720H868V0H735V528L462 203L188 528V0H56V720H200L462 408Z" />
<glyph unicode="N" glyph-name="N" horiz-adv-x="832" d="M643 192V720H776V0H632L188 528V0H56V720H200L643 192Z" />
<glyph unicode="O" glyph-name="O" horiz-adv-x="828" d="M193 720H635Q692 720 733 680T774 581V139Q774 81 733 41T635 0H193Q135 0 95 40T54 139V581Q54 639 94 679T193 720ZM193 132H635Q641 132 641 139V581Q641 588 635 588H193Q186 588 186 581V139Q186
132 193 132Z" />
<glyph unicode="P" glyph-name="P" horiz-adv-x="791" d="M56 719H636Q694 719 735 678T776 580V386Q776 329 735 288T636 247L191 246L188 247V0H56V719ZM643 386V580Q643 587 636 587H195Q188 587 188 580V386Q188 379 195 379H636Q643 379 643 386Z" />
<glyph unicode="Q" glyph-name="Q" horiz-adv-x="884" d="M774 132H860V0H193Q135 0 95 40T54 139V581Q54 639 94 679T193 720H634Q692 720 733 680T774 581V132ZM193 132H634Q641 132 641 139V581Q641 588 634 588H193Q186 588 186 581V139Q186 132 193 132Z" />
<glyph unicode="R" glyph-name="R" horiz-adv-x="825" d="M775 580V386Q775 329 734 288T635 247H596L775 34V0H631L423 247H190H187V0H55V719H635Q693 719 734 678T775 580ZM194 379H635Q642 379 642 386V580Q642 587 635 587H194Q187 587 187 580V386Q187 379 194 379Z" />
<glyph unicode="S" glyph-name="S" horiz-adv-x="822" d="M771 581V526H638V581Q638 588 632 588H190Q183 588 183 581V433Q183 426 190 426H632Q689 426 730 386T771 287V139Q771 81 730 41T632 0H190Q132 0 92 40T51 139V194H183V139Q183 132 190 132H632Q638
132 638 139V287Q638 294 632 294H190Q132 294 92 334T51 433V581Q51 639 91 679T190 720H632Q689 720 730 680T771 581Z" />
<glyph unicode="T" glyph-name="T" horiz-adv-x="759" d="M20 720H740V588H447V0H314V588H20V720Z" />
<glyph unicode="U" glyph-name="U" horiz-adv-x="828" d="M641 139V720H774V139Q774 81 733 41T635 0H193Q135 0 95 40T54 139V720H186V139Q186 132 193 132H635Q641 132 641 139Z" />
<glyph unicode="V" glyph-name="V" horiz-adv-x="1003" d="M511 160L833 720H986L570 0H451L35 720H188L511 160Z" />
<glyph unicode="W" glyph-name="W" horiz-adv-x="1179" d="M1000 720H1140L878 0H774L587 511L400 0H297L35 720H175L349 245L523 720H652L826 245L1000 720Z" />
<glyph unicode="X" glyph-name="X" horiz-adv-x="812" d="M621 720H766V685L492 360L766 35V0H621L406 255L191 0H46V35L319 360L46 685V720H191L406 465L621 720Z" />
<glyph unicode="Y" glyph-name="Y" horiz-adv-x="806" d="M657 720H815L482 269V0H350V269L17 720H174L416 414L657 720Z" />
<glyph unicode="Z" glyph-name="Z" horiz-adv-x="821" d="M51 588V720H771V576L243 132H771V0H51V144L579 588H51Z" />
<glyph unicode="[" glyph-name="bracketleft" horiz-adv-x="275" d="M54 0V720H246V589H185V131H246V0H54Z" />
<glyph unicode="\" glyph-name="backslash" horiz-adv-x="520" d="M5 720H40L518 141V0H483L5 579V720Z" />
<glyph unicode="]" glyph-name="bracketright" horiz-adv-x="276" d="M51 589V720H243V0H51V131H111V589H51Z" />
<glyph unicode="_" glyph-name="underscore" horiz-adv-x="828" d="M767 0V-131H54V0H767Z" />
<glyph unicode="`" glyph-name="grave" horiz-adv-x="213" d="M165 969L211 786H78L32 969H165Z" />
<glyph unicode="a" glyph-name="a" horiz-adv-x="694" d="M503 580Q560 580 600 540T641 442V0H190Q133 0 93 40T52 138V356H510V442Q510 449 503 449H52V580H503ZM510 131V224H183V138Q183 131 190 131H510Z" />
<glyph unicode="b" glyph-name="b" horiz-adv-x="667" d="M505 580Q562 580 602 540T643 442V138Q643 81 603 41T505 0H54V770H185V580H505ZM512 138V442Q512 449 505 449H192Q185 449 185 442V138Q185 131 192 131H505Q512 131 512 138Z" />
<glyph unicode="c" glyph-name="c" horiz-adv-x="695" d="M189 131H640V0H189Q132 0 92 40T51 138V442Q51 499 91 539T189 580H638V449H189Q182 449 182 442V138Q182 131 189 131Z" />
<glyph unicode="d" glyph-name="d" horiz-adv-x="667" d="M482 770H613V0H161Q104 0 64 40T23 138V442Q23 499 63 539T161 580H482V770ZM161 131H475Q482 131 482 138V442Q482 449 475 449H161Q155 449 155 442V138Q155 131 161 131Z" />
<glyph unicode="e" glyph-name="e" horiz-adv-x="692" d="M502 580Q559 580 599 540T640 442V224H182V138Q182 131 189 131H640V0H189Q132 0 92 40T51 138V442Q51 499 91 539T189 580H502ZM182 356H509V442Q509 449 502 449H189Q182 449 182 442V356Z" />
<glyph unicode="f" glyph-name="f" horiz-adv-x="437" d="M191 638Q184 638 184 632V580H410V449H184V0H53V632Q53 689 93 729T191 770H410V638H191Z" />
<glyph unicode="g" glyph-name="g" horiz-adv-x="683" d="M630 -92Q630 -149 590 -189T493 -230H138V-98H493Q499 -98 499 -92V0H179Q122 0 82 40T41 138V442Q41 499 81 539T179 580H493Q550 580 590 540T630 442V-92ZM179 131H493Q499 131 499 138V442Q499 449
493 449H179Q172 449 172 442V138Q172 131 179 131Z" />
<glyph unicode="h" glyph-name="h" horiz-adv-x="668" d="M505 580Q561 580 602 540T643 442V0H512V442Q512 449 505 449H192Q185 449 185 442V0H54V770H185V580H505Z" />
<glyph unicode="i" glyph-name="i" horiz-adv-x="233" d="M52 0V580H183V0H52ZM52 770H183V638H52V770Z" />
<glyph unicode="j" glyph-name="j" horiz-adv-x="239" d="M70 770H201V638H70V770ZM201 580V-81Q201 -138 161 -178T63 -219H-187V-87H63Q70 -87 70 -81V580H201Z" />
<glyph unicode="k" glyph-name="k" horiz-adv-x="646" d="M495 580H636V546L404 290L636 34V0H495L288 224H185V0H54V770H185V356H288L495 580Z" />
<glyph unicode="l" glyph-name="l" horiz-adv-x="344" d="M52 770H184V138Q184 131 190 131H307V0H190Q133 0 93 40T52 138V770Z" />
<glyph unicode="m" glyph-name="m" horiz-adv-x="978" d="M773 580Q830 580 870 540T911 442V0H781V442Q781 449 773 449H555Q549 449 549 442V0H417V442Q417 449 411 449H192Q185 449 185 442V0H54V580H773Z" />
<glyph unicode="n" glyph-name="n" horiz-adv-x="696" d="M505 580Q562 580 602 540T643 442V0H512V442Q512 449 505 449H192Q185 449 185 442V0H54V580H505Z" />
<glyph unicode="o" glyph-name="o" horiz-adv-x="692" d="M189 580H502Q559 580 599 540T640 442V138Q640 81 600 41T502 0H189Q132 0 92 40T51 138V442Q51 499 91 539T189 580ZM502 449H189Q182 449 182 442V138Q182 131 189 131H502Q509 131 509 138V442Q509
449 502 449Z" />
<glyph unicode="p" glyph-name="p" horiz-adv-x="664" d="M505 580Q562 580 602 540T643 442V138Q643 81 603 41T505 0H185V-230H54V580H505ZM512 138V442Q512 449 505 449H192Q185 449 185 442V138Q185 131 192 131H505Q512 131 512 138Z" />
<glyph unicode="q" glyph-name="q" horiz-adv-x="664" d="M20 442Q20 499 60 539T158 580H610V-230H479V0H158Q101 0 61 40T20 138V442ZM152 442V138Q152 131 158 131H472Q479 131 479 138V442Q479 449 472 449H158Q152 449 152 442Z" />
<glyph unicode="r" glyph-name="r" horiz-adv-x="528" d="M190 580H512V449H190Q183 449 183 442V0H52V442Q52 499 92 539T190 580Z" />
<glyph unicode="s" glyph-name="s" horiz-adv-x="686" d="M637 442V417H506V442Q506 449 499 449H186Q179 449 179 442V362Q179 356 186 356H499Q557 356 597 316T637 218V138Q637 81 597 41T499 0H186Q129 0 89 40T48 138V163H179V138Q179 131 186 131H499Q506
131 506 138V218Q506 224 499 224H186Q129 224 89 264T48 362V442Q48 499 88 539T186 580H499Q557 580 597 540T637 442Z" />
<glyph unicode="t" glyph-name="t" horiz-adv-x="437" d="M410 449H184V138Q184 131 191 131H410V0H191Q133 0 93 40T53 138V770H184V580H410V449Z" />
<glyph unicode="u" glyph-name="u" horiz-adv-x="695" d="M511 580H642V138Q642 81 602 41T504 0H191Q133 0 93 40T53 138V580H184V138Q184 131 191 131H504Q511 131 511 138V580Z" />
<glyph unicode="v" glyph-name="v" horiz-adv-x="790" d="M629 580H780L460 0H340L21 580H172L400 159L629 580Z" />
<glyph unicode="w" glyph-name="w" horiz-adv-x="1056" d="M888 580H1027L809 0H707L532 388L364 0H263L35 580H174L314 238L463 580H599L757 236L888 580Z" />
<glyph unicode="x" glyph-name="x" horiz-adv-x="692" d="M502 580H645V547L430 295L645 33V0H502L345 192L189 0H46V33L260 295L46 547V580H189L345 396L502 580Z" />
<glyph unicode="y" glyph-name="y" horiz-adv-x="685" d="M631 -92Q631 -149 591 -189T494 -230H139V-98H494Q500 -98 500 -92V0H180Q123 0 83 40T42 138V578H173V138Q173 131 180 131H494Q500 131 500 138V578H631V-92Z" />
<glyph unicode="z" glyph-name="z" horiz-adv-x="698" d="M54 449V580H643V437L247 131H643V0H54V143L450 449H54Z" />
<glyph unicode="{" glyph-name="braceleft" horiz-adv-x="289" d="M196 318V138Q196 131 203 131H257V0H203Q145 0 105 40T65 138V281Q58 285 43 294T23 306V425L65 448V582Q65 639 105 679T203 720H257V589H203Q196 589 196 582V411L139 365L196 318Z" />
<glyph unicode="|" glyph-name="bar" horiz-adv-x="214" d="M54 -104V816H185V-104H54Z" />
<glyph unicode="}" glyph-name="braceright" horiz-adv-x="289" d="M112 138V318L169 365L112 411V582Q112 589 105 589H51V720H105Q162 720 202 680T243 582V453Q250 449 264 438T285 424V306L243 281V138Q243 81 203 41T105 0H51V131H105Q112 131 112 138Z" />
<glyph unicode="~" glyph-name="asciitilde" horiz-adv-x="404" d="M301 312Q349 312 388 338V242Q338 221 299 221Q263 221 202 253T103 285Q56 285 24 254V358Q67 377 109 377Q147 377 208 347T301 312Z" />
<glyph unicode="&#xa1;" glyph-name="exclamdown" horiz-adv-x="210" d="M184 720V589H53V720H184ZM184 0H53V523H184V0Z" />
<glyph unicode="&#xa2;" glyph-name="cent" horiz-adv-x="636" d="M621 458H424V131H621V0H424V-104H292V0H171Q114 0 74 40T33 138V452Q33 509 73 549T171 590H292V711H424V590H621V458ZM292 131V458H171Q164 458 164 452V138Q164 131 171 131H292Z" />
<glyph unicode="&#xa3;" glyph-name="sterling" horiz-adv-x="734" d="M683 539H552V582Q552 589 546 589H272Q265 589 265 582V422H583V291H265V131H683V0H39V131H134V291H39V422H134V582Q134 639 174 679T272 720H546Q603 720 643 680T683 582V539Z" />
<glyph unicode="&#xa8;" glyph-name="dieresis" horiz-adv-x="385" d="M357 918V786H225V918H357ZM185 918V786H54V918H185Z" />
<glyph unicode="&#xb0;" glyph-name="degree" horiz-adv-x="439" d="M183 713H268Q325 713 365 673T406 575V499Q406 442 366 402T268 361H183Q126 361 86 401T45 499V575Q45 632 85 672T183 713ZM164 474H287Q294 474 294 480V594Q294 601 287 601H164Q157 601
157 594V480Q157 474 164 474Z" />
<glyph unicode="&#xb4;" glyph-name="acute" horiz-adv-x="213" d="M33 786L79 969H212L166 786H33Z" />
<glyph unicode="&#xb6;" glyph-name="paragraph" horiz-adv-x="833" d="M56 574Q56 630 96 671T194 712H769V0H638V244H561V0H429V244H194Q137 244 97 285T56 382V574ZM561 581V376H638V581H561ZM187 574V382Q187 376 194 376H429V581H194Q187 581 187 574Z" />
<glyph unicode="&#xb8;" glyph-name="cedilla" horiz-adv-x="213" d="M33 -154L79 29H212L166 -154H33Z" />
<glyph unicode="&#xbf;" glyph-name="questiondown" horiz-adv-x="675" d="M644 0H157Q100 0 60 40T19 138V313Q19 370 59 410T157 451H403Q410 451 410 457V530H541V457Q541 400 501 360T403 319H157Q150 319 150 313V138Q150 131 157 131H644V0ZM541 720V589H410V720H541Z"
/>
<glyph unicode="&#xc0;" glyph-name="Agrave" horiz-adv-x="836" d="M197 720H638Q696 720 737 680T778 581V0H645V242H190V0H58V581Q58 639 98 679T197 720ZM190 374H645V581Q645 588 638 588H197Q190 588 190 581V374ZM477 962L523 779H390L344 962H477Z" />
<glyph unicode="&#xc1;" glyph-name="Aacute" horiz-adv-x="836" d="M197 720H638Q696 720 737 680T778 581V0H645V242H190V0H58V581Q58 639 98 679T197 720ZM190 374H645V581Q645 588 638 588H197Q190 588 190 581V374ZM344 778L390 961H523L477 778H344Z" />
<glyph unicode="&#xc2;" glyph-name="Acircumflex" horiz-adv-x="836" d="M197 720H638Q696 720 737 680T778 581V0H645V242H190V0H58V581Q58 639 98 679T197 720ZM190 374H645V581Q645 588 638 588H197Q190 588 190 581V374ZM400 778H296L394 941H481L579 778H473L436
837Q430 828 418 808T400 778Z" />
<glyph unicode="&#xc3;" glyph-name="Atilde" horiz-adv-x="836" d="M197 720H638Q696 720 737 680T778 581V0H645V242H190V0H58V581Q58 639 98 679T197 720ZM190 374H645V581Q645 588 638 588H197Q190 588 190 581V374ZM519 874Q566 874 606 901V805Q554 783
517 783Q481 783 421 815T327 848H315Q271 848 242 810V921Q287 939 327 939Q366 939 426 909T519 874Z" />
<glyph unicode="&#xc4;" glyph-name="Adieresis" horiz-adv-x="836" d="M197 720H638Q696 720 737 680T778 581V0H645V242H190V0H58V581Q58 639 98 679T197 720ZM190 374H645V581Q645 588 638 588H197Q190 588 190 581V374ZM582 901V769H450V901H582ZM410 901V769H279V901H410Z"
/>
<glyph unicode="&#xc5;" glyph-name="Aring" horiz-adv-x="836" d="M197 720H638Q696 720 737 680T778 581V0H645V242H190V0H58V581Q58 639 98 679T197 720ZM190 374H645V581Q645 588 638 588H197Q190 588 190 581V374ZM388 961H442Q469 961 488 942T507 896V845Q507
819 488 800T442 780H388Q361 780 342 799T323 845V896Q323 922 342 941T388 961ZM389 894V847H441V894H389Z" />
<glyph unicode="&#xc6;" glyph-name="AE" horiz-adv-x="1375" d="M774 588V426H1200V294H774V132H1304V0H642V242H187V0H54V581Q54 639 95 679T193 720H1304V588H774ZM642 374V581Q642 588 635 588H193Q187 588 187 581V374H642Z" />
<glyph unicode="&#xc7;" glyph-name="Ccedilla" horiz-adv-x="822" d="M774 588H195Q188 588 188 581V139Q188 132 195 132H774V0H508L470 -154H337L375 0H195Q137 0 97 40T56 139V581Q56 639 96 679T195 720H774V588Z" />
<glyph unicode="&#xc8;" glyph-name="Egrave" horiz-adv-x="766" d="M720 720V588H191V426H617V294H191V132H720V0H58V720H720ZM442 962L488 779H355L309 962H442Z" />
<glyph unicode="&#xc9;" glyph-name="Eacute" horiz-adv-x="766" d="M720 720V588H191V426H617V294H191V132H720V0H58V720H720ZM309 779L355 962H488L442 779H309Z" />
<glyph unicode="&#xca;" glyph-name="Ecircumflex" horiz-adv-x="766" d="M720 720V588H191V426H617V294H191V132H720V0H58V720H720ZM365 778H261L359 941H446L544 778H438L401 837Q395 828 383 808T365 778Z" />
<glyph unicode="&#xcb;" glyph-name="Edieresis" horiz-adv-x="766" d="M720 720V588H191V426H617V294H191V132H720V0H58V720H720ZM547 911V779H415V911H547ZM375 911V779H244V911H375Z" />
<glyph unicode="&#xcc;" glyph-name="Igrave" horiz-adv-x="220" d="M57 0V720H189V0H57ZM169 962L215 779H82L36 962H169Z" />
<glyph unicode="&#xcd;" glyph-name="Iacute" horiz-adv-x="220" d="M57 0V720H189V0H57ZM36 779L82 962H215L169 779H36Z" />
<glyph unicode="&#xce;" glyph-name="Icircumflex" horiz-adv-x="220" d="M57 0V720H189V0H57ZM92 778H-12L86 941H173L271 778H165L128 837Q122 828 110 808T92 778Z" />
<glyph unicode="&#xcf;" glyph-name="Idieresis" horiz-adv-x="220" d="M57 0V720H189V0H57ZM274 911V779H142V911H274ZM102 911V779H-29V911H102Z" />
<glyph unicode="&#xd1;" glyph-name="Ntilde" horiz-adv-x="832" d="M643 192V720H776V0H632L188 528V0H56V720H200L643 192ZM517 874Q564 874 604 901V805Q552 783 515 783Q479 783 419 815T325 848H313Q269 848 240 810V921Q285 939 325 939Q364 939 424 909T517 874Z" />
<glyph unicode="&#xd2;" glyph-name="Ograve" horiz-adv-x="828" d="M193 720H635Q692 720 733 680T774 581V139Q774 81 733 41T635 0H193Q135 0 95 40T54 139V581Q54 639 94 679T193 720ZM193 132H635Q641 132 641 139V581Q641 588 635 588H193Q186 588 186 581V139Q186
132 193 132ZM473 962L519 779H386L340 962H473Z" />
<glyph unicode="&#xd3;" glyph-name="Oacute" horiz-adv-x="828" d="M193 720H635Q692 720 733 680T774 581V139Q774 81 733 41T635 0H193Q135 0 95 40T54 139V581Q54 639 94 679T193 720ZM193 132H635Q641 132 641 139V581Q641 588 635 588H193Q186 588 186 581V139Q186
132 193 132ZM340 779L386 962H519L473 779H340Z" />
<glyph unicode="&#xd4;" glyph-name="Ocircumflex" horiz-adv-x="828" d="M193 720H635Q692 720 733 680T774 581V139Q774 81 733 41T635 0H193Q135 0 95 40T54 139V581Q54 639 94 679T193 720ZM193 132H635Q641 132 641 139V581Q641 588 635 588H193Q186 588
186 581V139Q186 132 193 132ZM396 778H292L390 941H477L575 778H469L432 837Q426 828 414 808T396 778Z" />
<glyph unicode="&#xd5;" glyph-name="Otilde" horiz-adv-x="828" d="M193 720H635Q692 720 733 680T774 581V139Q774 81 733 41T635 0H193Q135 0 95 40T54 139V581Q54 639 94 679T193 720ZM193 132H635Q641 132 641 139V581Q641 588 635 588H193Q186 588 186 581V139Q186
132 193 132ZM515 874Q562 874 602 901V805Q550 783 513 783Q477 783 417 815T323 848H311Q267 848 238 810V921Q283 939 323 939Q362 939 422 909T515 874Z" />
<glyph unicode="&#xd6;" glyph-name="Odieresis" horiz-adv-x="828" d="M193 720H635Q692 720 733 680T774 581V139Q774 81 733 41T635 0H193Q135 0 95 40T54 139V581Q54 639 94 679T193 720ZM193 132H635Q641 132 641 139V581Q641 588 635 588H193Q186 588 186
581V139Q186 132 193 132ZM578 911V779H446V911H578ZM406 911V779H275V911H406Z" />
<glyph unicode="&#xd7;" glyph-name="multiply" horiz-adv-x="546" d="M500 513V480L361 300L500 119V86H356L276 195L196 86H53V119L192 300L53 480V513H196L276 404L356 513H500Z" />
<glyph unicode="&#xd9;" glyph-name="Ugrave" horiz-adv-x="828" d="M641 139V720H774V139Q774 81 733 41T635 0H193Q135 0 95 40T54 139V720H186V139Q186 132 193 132H635Q641 132 641 139ZM473 962L519 779H386L340 962H473Z" />
<glyph unicode="&#xda;" glyph-name="Uacute" horiz-adv-x="828" d="M641 139V720H774V139Q774 81 733 41T635 0H193Q135 0 95 40T54 139V720H186V139Q186 132 193 132H635Q641 132 641 139ZM340 779L386 962H519L473 779H340Z" />
<glyph unicode="&#xdb;" glyph-name="Ucircumflex" horiz-adv-x="828" d="M641 139V720H774V139Q774 81 733 41T635 0H193Q135 0 95 40T54 139V720H186V139Q186 132 193 132H635Q641 132 641 139ZM396 778H292L390 941H477L575 778H469L432 837Q426 828 414 808T396 778Z" />
<glyph unicode="&#xdc;" glyph-name="Udieresis" horiz-adv-x="828" d="M641 139V720H774V139Q774 81 733 41T635 0H193Q135 0 95 40T54 139V720H186V139Q186 132 193 132H635Q641 132 641 139ZM578 911V779H446V911H578ZM406 911V779H275V911H406Z" />
<glyph unicode="&#xdd;" glyph-name="Yacute" horiz-adv-x="806" d="M657 720H815L482 269V0H350V269L17 720H174L416 414L657 720ZM329 779L375 962H508L462 779H329Z" />
<glyph unicode="&#xdf;" glyph-name="germandbls" horiz-adv-x="833" d="M770 599V438Q770 396 750 366Q770 336 770 294V138Q770 81 730 41T632 0H273V131H632Q639 131 639 138V294Q639 300 632 300H273V421H632Q639 421 639 428V574Q639 581 632 581H195Q188
581 188 574V0H57V575Q57 632 97 672T195 713H632Q683 713 722 681T770 599Z" />
<glyph unicode="&#xe0;" glyph-name="agrave" horiz-adv-x="725" d="M503 580Q560 580 600 540T641 442V0H190Q133 0 93 40T52 138V356H510V442Q510 449 503 449H52V580H503ZM510 131V224H183V138Q183 131 190 131H510ZM421 860L467 677H334L288 860H421Z" />
<glyph unicode="&#xe1;" glyph-name="aacute" horiz-adv-x="725" d="M503 580Q560 580 600 540T641 442V0H190Q133 0 93 40T52 138V356H510V442Q510 449 503 449H52V580H503ZM510 131V224H183V138Q183 131 190 131H510ZM288 677L334 860H467L421 677H288Z" />
<glyph unicode="&#xe2;" glyph-name="acircumflex" horiz-adv-x="725" d="M503 580Q560 580 600 540T641 442V0H190Q133 0 93 40T52 138V356H510V442Q510 449 503 449H52V580H503ZM510 131V224H183V138Q183 131 190 131H510ZM344 677H240L338 840H425L523 677H417L380
736Q374 727 362 707T344 677Z" />
<glyph unicode="&#xe3;" glyph-name="atilde" horiz-adv-x="725" d="M503 580Q560 580 600 540T641 442V0H190Q133 0 93 40T52 138V356H510V442Q510 449 503 449H52V580H503ZM510 131V224H183V138Q183 131 190 131H510ZM463 771Q510 771 550 798V702Q498 680 461
680Q425 680 365 712T271 745H259Q215 745 186 707V818Q231 836 271 836Q310 836 370 806T463 771Z" />
<glyph unicode="&#xe4;" glyph-name="adieresis" horiz-adv-x="725" d="M503 580Q560 580 600 540T641 442V0H190Q133 0 93 40T52 138V356H510V442Q510 449 503 449H52V580H503ZM510 131V224H183V138Q183 131 190 131H510ZM526 809V677H394V809H526ZM354 809V677H223V809H354Z"
/>
<glyph unicode="&#xe5;" glyph-name="aring" horiz-adv-x="725" d="M503 580Q560 580 600 540T641 442V0H190Q133 0 93 40T52 138V356H510V442Q510 449 503 449H52V580H503ZM510 131V224H183V138Q183 131 190 131H510ZM332 858H386Q413 858 432 839T451 793V742Q451
716 432 697T386 677H332Q305 677 286 696T267 742V793Q267 819 286 838T332 858ZM333 791V744H385V791H333Z" />
<glyph unicode="&#xe6;" glyph-name="ae" horiz-adv-x="1178" d="M963 580Q1020 580 1060 540T1100 442V224H642V136Q642 131 649 131H1100V0H190Q133 0 93 40T53 138V356H511V442Q511 449 504 449H53V580H963ZM511 131V224H184V138Q184 131 190 131H511ZM642
356H969V442Q969 449 963 449H649Q642 449 642 442V356Z" />
<glyph unicode="&#xe7;" glyph-name="ccedilla" horiz-adv-x="693" d="M189 131H640V0H433L395 -154H262L300 0H189Q132 0 92 40T51 138V442Q51 499 91 539T189 580H638V449H189Q182 449 182 442V138Q182 131 189 131Z" />
<glyph unicode="&#xe8;" glyph-name="egrave" horiz-adv-x="638" d="M502 580Q559 580 599 540T640 442V224H182V138Q182 131 189 131H640V0H189Q132 0 92 40T51 138V442Q51 499 91 539T189 580H502ZM182 356H509V442Q509 449 502 449H189Q182 449 182 442V356ZM378
860L424 677H291L245 860H378Z" />
<glyph unicode="&#xe9;" glyph-name="eacute" horiz-adv-x="638" d="M502 580Q559 580 599 540T640 442V224H182V138Q182 131 189 131H640V0H189Q132 0 92 40T51 138V442Q51 499 91 539T189 580H502ZM182 356H509V442Q509 449 502 449H189Q182 449 182 442V356ZM245
678L291 861H424L378 678H245Z" />
<glyph unicode="&#xea;" glyph-name="ecircumflex" horiz-adv-x="638" d="M502 580Q559 580 599 540T640 442V224H182V138Q182 131 189 131H640V0H189Q132 0 92 40T51 138V442Q51 499 91 539T189 580H502ZM182 356H509V442Q509 449 502 449H189Q182 449 182 442V356ZM301
677H197L295 840H382L480 677H374L337 736Q331 727 319 707T301 677Z" />
<glyph unicode="&#xeb;" glyph-name="edieresis" horiz-adv-x="638" d="M502 580Q559 580 599 540T640 442V224H182V138Q182 131 189 131H640V0H189Q132 0 92 40T51 138V442Q51 499 91 539T189 580H502ZM182 356H509V442Q509 449 502 449H189Q182 449 182 442V356ZM483
809V677H351V809H483ZM311 809V677H180V809H311Z" />
<glyph unicode="&#xec;" glyph-name="igrave" horiz-adv-x="214" d="M56 0V580H187V0H56ZM149 861L195 678H62L16 861H149Z" />
<glyph unicode="&#xed;" glyph-name="iacute" horiz-adv-x="214" d="M51 0V580H182V0H51ZM49 677L95 860H228L182 677H49Z" />
<glyph unicode="&#xee;" glyph-name="icircumflex" horiz-adv-x="214" d="M51 0V580H182V0H51ZM89 677H-15L83 840H170L268 677H162L125 736Q119 727 107 707T89 677Z" />
<glyph unicode="&#xef;" glyph-name="idieresis" horiz-adv-x="214" d="M55 0V580H186V0H55ZM271 811V679H139V811H271ZM99 811V679H-32V811H99Z" />
<glyph unicode="&#xf1;" glyph-name="ntilde" horiz-adv-x="708" d="M505 580Q562 580 602 540T643 442V0H512V442Q512 449 505 449H192Q185 449 185 442V0H54V580H505ZM455 770Q502 770 542 797V701Q490 679 453 679Q417 679 357 711T263 744H251Q207 744 178
706V817Q223 835 263 835Q302 835 362 805T455 770Z" />
<glyph unicode="&#xf2;" glyph-name="ograve" horiz-adv-x="692" d="M189 580H502Q559 580 599 540T640 442V138Q640 81 600 41T502 0H189Q132 0 92 40T51 138V442Q51 499 91 539T189 580ZM502 449H189Q182 449 182 442V138Q182 131 189 131H502Q509 131 509 138V442Q509
449 502 449ZM405 861L451 678H318L272 861H405Z" />
<glyph unicode="&#xf3;" glyph-name="oacute" horiz-adv-x="692" d="M189 580H502Q559 580 599 540T640 442V138Q640 81 600 41T502 0H189Q132 0 92 40T51 138V442Q51 499 91 539T189 580ZM502 449H189Q182 449 182 442V138Q182 131 189 131H502Q509 131 509 138V442Q509
449 502 449ZM272 678L318 861H451L405 678H272Z" />
<glyph unicode="&#xf4;" glyph-name="ocircumflex" horiz-adv-x="692" d="M189 580H502Q559 580 599 540T640 442V138Q640 81 600 41T502 0H189Q132 0 92 40T51 138V442Q51 499 91 539T189 580ZM502 449H189Q182 449 182 442V138Q182 131 189 131H502Q509 131
509 138V442Q509 449 502 449ZM328 677H224L322 840H409L507 677H401L364 736Q358 727 346 707T328 677Z" />
<glyph unicode="&#xf5;" glyph-name="otilde" horiz-adv-x="692" d="M189 580H502Q559 580 599 540T640 442V138Q640 81 600 41T502 0H189Q132 0 92 40T51 138V442Q51 499 91 539T189 580ZM502 449H189Q182 449 182 442V138Q182 131 189 131H502Q509 131 509 138V442Q509
449 502 449ZM447 770Q494 770 534 797V701Q482 679 445 679Q409 679 349 711T255 744H243Q199 744 170 706V817Q215 835 255 835Q294 835 354 805T447 770Z" />
<glyph unicode="&#xf6;" glyph-name="odieresis" horiz-adv-x="692" d="M189 580H502Q559 580 599 540T640 442V138Q640 81 600 41T502 0H189Q132 0 92 40T51 138V442Q51 499 91 539T189 580ZM502 449H189Q182 449 182 442V138Q182 131 189 131H502Q509 131 509
138V442Q509 449 502 449ZM510 811V679H378V811H510ZM338 811V679H207V811H338Z" />
<glyph unicode="&#xf7;" glyph-name="divide" horiz-adv-x="502" d="M503 361V230H18V361H503ZM201 132H332V1H201V132ZM332 589V457H201V589H332Z" />
<glyph unicode="&#xf9;" glyph-name="ugrave" horiz-adv-x="695" d="M511 580H642V138Q642 81 602 41T504 0H191Q133 0 93 40T53 138V580H184V138Q184 131 191 131H504Q511 131 511 138V580ZM406 861L452 678H319L273 861H406Z" />
<glyph unicode="&#xfa;" glyph-name="uacute" horiz-adv-x="695" d="M511 580H642V138Q642 81 602 41T504 0H191Q133 0 93 40T53 138V580H184V138Q184 131 191 131H504Q511 131 511 138V580ZM273 678L319 861H452L406 678H273Z" />
<glyph unicode="&#xfb;" glyph-name="ucircumflex" horiz-adv-x="695" d="M511 580H642V138Q642 81 602 41T504 0H191Q133 0 93 40T53 138V580H184V138Q184 131 191 131H504Q511 131 511 138V580ZM329 678H225L323 841H410L508 678H402L365 737Q359 728 347 708T329 678Z" />
<glyph unicode="&#xfc;" glyph-name="udieresis" horiz-adv-x="695" d="M511 580H642V138Q642 81 602 41T504 0H191Q133 0 93 40T53 138V580H184V138Q184 131 191 131H504Q511 131 511 138V580ZM511 809V677H379V809H511ZM339 809V677H208V809H339Z" />
<glyph unicode="&#xfd;" glyph-name="yacute" horiz-adv-x="688" d="M631 -92Q631 -149 591 -189T494 -230H139V-98H494Q500 -98 500 -92V0H180Q123 0 83 40T42 138V578H173V138Q173 131 180 131H494Q500 131 500 138V578H631V-92ZM270 678L316 861H449L403 678H270Z" />
<glyph unicode="&#xff;" glyph-name="ydieresis" horiz-adv-x="688" d="M631 -92Q631 -149 591 -189T494 -230H139V-98H494Q500 -98 500 -92V0H180Q123 0 83 40T42 138V578H173V138Q173 131 180 131H494Q500 131 500 138V578H631V-92ZM508 811V679H376V811H508ZM336
811V679H205V811H336Z" />
<glyph unicode="&#x2013;" glyph-name="endash" horiz-adv-x="708" d="M653 360V229H54V360H653Z" />
<glyph unicode="&#x2014;" glyph-name="emdash" horiz-adv-x="822" d="M762 360V229H54V360H762Z" />
<glyph unicode="&#x2018;" glyph-name="quoteleft" horiz-adv-x="217" d="M165 467H34V584Q34 636 71 675T165 723V467Z" />
<glyph unicode="&#x2019;" glyph-name="quoteright" horiz-adv-x="216" d="M54 720H185V603Q185 552 148 513T54 464V720Z" />
<glyph unicode="&#x201c;" glyph-name="quotedblleft" horiz-adv-x="402" d="M176 467H45V584Q45 636 82 675T176 723V467ZM349 467H218V584Q218 636 255 675T349 723V467Z" />
<glyph unicode="&#x201d;" glyph-name="quotedblright" horiz-adv-x="401" d="M226 720H358V603Q358 552 321 513T226 464V720ZM54 720H185V603Q185 552 148 513T54 464V720Z" />
<glyph unicode="&#x2022;" glyph-name="bullet" horiz-adv-x="371" d="M172 420H194Q249 420 249 366V347Q249 293 194 293H172Q118 293 118 347V366Q118 420 172 420Z" />
</font>
</defs>
</svg>
