<?xml version="1.0" standalone="no"?>
<!DOCTYPE svg PUBLIC "-//W3C//DTD SVG 1.1//EN" "http://www.w3.org/Graphics/SVG/1.1/DTD/svg11.dtd">
<svg xmlns="http://www.w3.org/2000/svg">
<defs >
<font id="ArimaMadurai" horiz-adv-x="592" ><font-face
    font-family="Arima Madurai ExtraLight"
    units-per-em="1000"
    panose-1="0 0 3 0 0 0 0 0 0 0"
    ascent="1073"
    descent="-560"
    alphabetic="0" />
<glyph unicode=" " glyph-name="space" horiz-adv-x="224" />
<glyph unicode="!" glyph-name="exclam" horiz-adv-x="275" d="M119 168H157L164 718Q153 722 138 722Q123 722 112 718L119 168ZM122 -12T111 -1T99 27Q99 43 110 54T138 66Q153 66 165 55T177 27Q177 11 165 0T138 -12Q122 -12 111 -1Z" />
<glyph unicode="&quot;" glyph-name="quotedbl" horiz-adv-x="228" d="M153 601H179L188 727Q179 730 166 730Q155 730 144 727L153 601ZM49 601H75L84 727Q75 730 62 730Q51 730 40 727L49 601Z" />
<glyph unicode="#" glyph-name="numbersign" horiz-adv-x="672" d="M466 429L436 261H613L608 229H430L388 0H351L393 229H230L188 0H151L193 229H25L30 261H199L229 429H57L62 461H235L277 689H314L272 461H435L477 689H514L472 461H645L640 429H466ZM429 429H266L236
261H399L429 429Z" />
<glyph unicode="$" glyph-name="dollar" horiz-adv-x="546" d="M490 91T446 42T297 -12Q299 -60 303 -81Q295 -89 286 -89Q270 -89 270 -67V-12Q165 -11 114 32T62 140Q62 167 72 179T109 188Q104 169 105 152Q106 88 150 54T270 18L269 345Q203 381 167 406T109
465T86 548Q86 621 136 659T268 701Q266 749 262 768Q270 776 279 776Q295 776 295 754V701Q375 698 423 664T471 573Q471 559 467 551T451 538Q443 536 439 536Q435 536 425 538Q431 550 429 567Q428 614 391 640T295 670L296 381Q362 346 403 315T467 246T490
158Q490 91 446 42ZM130 519T148 490T195 441T269 396L268 671Q209 668 170 641T130 557Q130 519 148 490ZM367 23T406 57T446 153Q446 209 411 246T296 329L297 19Q367 23 406 57Z" />
<glyph unicode="%" glyph-name="percent" horiz-adv-x="974" d="M694 702T699 702Q706 702 712 698T719 686L281 -12H278Q262 -12 254 3L692 701Q694 702 699 702ZM129 315T89 363T48 509Q48 606 88 653T206 701Q363 701 363 509Q363 411 323 363T206 315Q129
315 89 363ZM264 338T294 380T325 509Q325 678 206 678Q87 678 87 509Q87 338 206 338Q264 338 294 380ZM692 -8T652 40T611 185Q611 282 651 330T769 378Q925 378 925 185Q925 -8 769 -8Q692 -8 652 40ZM827 15T857 57T888 185Q888 355 769 355Q649 355 649 185Q649
99 680 57T769 15Q827 15 857 57Z" />
<glyph unicode="&amp;" glyph-name="ampersand" horiz-adv-x="806" d="M750 598T758 592T767 576Q767 568 760 558Q722 500 666 441Q686 376 686 314Q686 219 643 144T527 27T364 -15Q273 -15 206 27T103 139T67 287Q67 356 95 407T169 487T272 515Q342 515 379
472T417 370Q417 318 389 282T305 210Q378 245 464 310T622 451Q588 543 522 602T373 657Q373 675 383 683T416 691Q489 691 551 632T651 482Q703 540 737 598Q750 598 758 592ZM442 17T506 52T608 155T647 313Q647 362 635 410Q542 322 433 256T235 164L230 186Q282
216 312 240T361 294T379 364Q379 415 352 449T269 483Q227 483 192 461T135 395T113 292Q113 221 143 158T231 56T368 17Q442 17 506 52Z" />
<glyph unicode="&apos;" glyph-name="quotesingle" horiz-adv-x="124" d="M49 601H75L84 727Q75 730 62 730Q51 730 40 727L49 601Z" />
<glyph unicode="(" glyph-name="parenleft" horiz-adv-x="410" d="M310 -172T255 -121T159 34T118 288Q118 438 159 541T255 696T349 748Q362 748 366 743T370 728Q312 709 265 646T190 488T162 288Q162 182 190 88T265 -70T370 -152Q370 -162 366 -167T349 -172Q310
-172 255 -121Z" />
<glyph unicode=")" glyph-name="parenright" horiz-adv-x="410" d="M48 -172T44 -167T40 -152Q97 -134 144 -71T219 87T247 288Q247 394 220 488T145 645T40 728Q40 738 44 743T61 748Q100 748 155 697T251 541T292 288Q292 138 251 35T155 -120T61 -172Q48 -172
44 -167Z" />
<glyph unicode="*" glyph-name="asterisk" horiz-adv-x="511" d="M364 463T332 475Q318 447 312 419Q356 407 384 380T412 324Q412 302 396 287T356 271Q321 271 301 305T281 382Q281 396 282 403Q264 405 255 405Q247 405 231 403V395Q231 346 208 307T147 268Q125
268 109 282T93 320Q93 353 124 381T202 421Q198 451 185 479Q154 467 120 467Q83 467 60 483T36 529Q36 551 50 567T92 584Q122 584 150 564T198 509Q225 524 242 540Q199 589 199 642Q199 703 257 703Q286 703 300 687T315 641Q315 590 274 541Q295 520 321 506Q342
539 368 559T422 579Q447 579 461 563T475 523Q475 494 453 479T396 463Q364 463 332 475ZM226 680T226 643Q226 601 259 558Q293 598 293 639Q293 659 284 669T258 680Q226 680 226 643ZM145 489T175 499Q159 527 139 543T97 560Q81 560 73 551T64 528Q64 509
79 499T121 489Q145 489 175 499ZM401 557T381 540T343 495Q373 485 396 485Q421 485 436 495T451 524Q451 539 443 548T421 557Q401 557 381 540ZM294 455T309 486Q279 502 257 524Q232 502 209 490Q223 459 229 426L254 427Q266 427 286 425Q294 455 309 486ZM204
398Q167 388 143 366T119 322Q119 309 127 300T148 291Q172 291 188 323T204 395V398ZM390 345T367 366T308 397Q307 392 307 382Q307 351 320 323T357 295Q370 295 380 303T390 325Q390 345 367 366Z" />
<glyph unicode="+" glyph-name="plus" horiz-adv-x="556" d="M478 362T478 352Q478 343 474 335H295V156Q288 153 279 153Q269 153 261 157V335H82Q79 344 79 352Q79 361 82 370H260V549Q269 552 278 552Q286 552 295 549V370H474Q478 362 478 352Z" />
<glyph unicode="," glyph-name="comma" horiz-adv-x="245" d="M94 -89T84 -77Q112 -48 112 -18Q112 2 104 11T80 27Q80 39 91 52T122 66Q139 66 152 55T165 13Q165 -43 105 -92Q94 -89 84 -77Z" />
<glyph unicode="-" glyph-name="hyphen" horiz-adv-x="399" d="M342 273V239H57V273H342Z" />
<glyph unicode="." glyph-name="period" horiz-adv-x="238" d="M103 -12T92 -1T80 27Q80 43 91 54T119 66Q135 66 146 55T158 27Q158 11 147 0T119 -12Q103 -12 92 -1Z" />
<glyph unicode="/" glyph-name="slash" horiz-adv-x="404" d="M6 -142L330 730H374L51 -142H6Z" />
<glyph unicode="0" glyph-name="zero" horiz-adv-x="612" d="M192 -12T133 76T73 345Q73 524 132 612T306 701Q419 701 479 613T539 345Q539 165 479 77T306 -12Q192 -12 133 76ZM493 18T493 345Q493 511 445 591T306 671Q215 671 167 591T119 345Q119 18 306
18Q493 18 493 345Z" />
<glyph unicode="1" glyph-name="one" horiz-adv-x="404" d="M265 27T273 2Q262 -9 248 -9Q237 -9 231 -2T224 19L222 592Q222 618 220 648Q179 611 126 572T60 533Q45 533 42 540T38 554T39 563Q47 565 116 613T220 689Q232 695 239 695Q250 695 256 688T263 667L265
94Q265 27 273 2Z" />
<glyph unicode="2" glyph-name="two" horiz-adv-x="536" d="M55 4T52 13T51 34Q173 132 247 201T370 346T418 499Q418 574 376 623T255 672Q203 672 170 650T122 597T103 542Q88 542 80 550T71 574Q71 599 93 629T158 680T257 701Q312 701 358 680T434 615T463
504Q463 415 411 332T280 180T93 31Q227 31 465 39L499 40Q508 36 508 19Q508 12 506 7T498 0H62Q55 4 52 13Z" />
<glyph unicode="3" glyph-name="three" horiz-adv-x="544" d="M175 -12T129 11T63 64T43 115Q43 127 51 135T75 143Q98 18 250 18Q340 18 388 60T436 177Q436 267 367 308T186 353L187 382Q291 384 351 427T412 541Q412 597 373 634T259 672Q204 672 170 651T119
602T100 547Q68 547 68 574Q68 598 89 628T155 679T264 701Q346 701 403 663T460 542Q460 473 417 430T295 369Q384 351 433 307T483 181Q483 88 420 38T252 -12Q175 -12 129 11Z" />
<glyph unicode="4" glyph-name="four" horiz-adv-x="582" d="M548 225T548 213Q548 199 541 195H443V94Q443 29 450 2Q441 -9 426 -9Q415 -9 408 -2T401 19L400 195H50Q39 203 39 214Q39 222 46 231L392 685Q401 696 417 696Q428 696 434 689T441 669L443 226Q502
228 542 234Q548 225 548 213ZM400 226L399 639L85 226H400Z" />
<glyph unicode="5" glyph-name="five" horiz-adv-x="553" d="M205 -12T162 8T95 59T71 121Q71 133 80 141T105 149Q106 124 122 93T172 40T260 17Q355 17 400 69T446 218Q446 305 399 352T273 399Q227 399 189 386T117 357Q98 357 98 378L111 668Q111 678 117
683T134 689H242Q381 689 446 692Q448 688 448 680Q448 666 440 653Q245 653 148 654L137 395Q174 411 207 419T282 428Q378 428 435 373T492 222Q492 99 428 44T261 -12Q205 -12 162 8Z" />
<glyph unicode="6" glyph-name="six" horiz-adv-x="571" d="M403 427T457 374T512 221Q512 151 486 99T413 17T301 -12Q203 -12 138 59T73 301Q73 511 136 606T326 701Q357 701 389 692T443 668T464 638Q464 629 458 623T446 617Q416 648 387 660T327 672Q204
672 162 570T117 317Q147 363 198 395T315 427Q403 427 457 374ZM358 16T394 45T448 121T466 221Q466 302 425 349T312 397Q248 397 197 360T118 266Q124 151 169 84T302 16Q358 16 394 45Z" />
<glyph unicode="7" glyph-name="seven" horiz-adv-x="501" d="M221 -4T209 -4Q197 -4 188 0Q189 87 220 217T303 470T409 655Q337 653 192 653H47Q43 655 41 661T39 673Q39 686 45 690Q110 689 237 689H445Q451 688 454 683T457 669Q457 660 452 652Q390 575 339
453T259 207T230 0Q221 -4 209 -4Z" />
<glyph unicode="8" glyph-name="eight" horiz-adv-x="581" d="M421 321T469 274T518 162Q518 119 496 80T422 14T288 -12Q207 -12 157 13T85 78T64 160Q64 232 116 287T249 366Q173 399 131 441T89 548Q89 582 109 617T173 677T287 701Q352 701 397 681T465 626T488
550Q488 489 446 441T329 367Q421 321 469 274ZM133 506T151 479T202 431T293 384L301 380Q375 416 409 460T443 551Q443 604 400 639T288 674Q223 674 178 641T133 546Q133 506 151 479ZM338 14T379 31T446 80T472 157Q472 222 420 267T280 352Q212 326 161 282T109
163Q109 114 134 81T201 31T289 14Q338 14 379 31Z" />
<glyph unicode="9" glyph-name="nine" horiz-adv-x="573" d="M377 701T438 630T500 389Q500 241 473 153T391 27T253 -12Q195 -12 153 7T95 52Q90 60 90 67Q90 77 97 83T112 88Q147 48 181 33T252 18Q372 18 413 117T456 373Q427 327 377 295T264 263Q177 263
124 318T71 477Q71 579 127 640T277 701Q377 701 438 630ZM329 293T379 330T455 424Q446 673 277 673Q223 673 187 645T133 573T116 477Q116 392 156 343T267 293Q329 293 379 330Z" />
<glyph unicode=":" glyph-name="colon" horiz-adv-x="234" d="M101 330T90 341T78 369Q78 385 89 396T117 408Q133 408 144 397T156 369Q156 353 145 342T117 330Q101 330 90 341ZM357 -12T346 -1T334 27Q334 43 345 54T373 66Q389 66 400 55T412 27Q412 11 401
0T373 -12Q357 -12 346 -1Z" />
<glyph unicode=";" glyph-name="semicolon" horiz-adv-x="242" d="M109 330T98 341T86 369Q86 385 97 396T125 408Q141 408 152 397T164 369Q164 353 153 342T125 330Q109 330 98 341ZM348 -89T338 -77Q366 -48 366 -18Q366 2 358 11T334 27Q334 39 345 52T376
66Q393 66 406 55T419 13Q419 -43 359 -92Q348 -89 338 -77Z" />
<glyph unicode="&lt;" glyph-name="less" horiz-adv-x="479" d="M37 348T37 351Q37 356 41 362L407 535Q413 538 418 532T424 514Q424 511 422 501L87 351L422 201Q424 193 424 188Q424 177 419 171T407 167L41 340Q37 348 37 351Z" />
<glyph unicode="=" glyph-name="equal" horiz-adv-x="555" d="M474 472Q477 465 477 455Q477 447 474 438H82Q78 450 78 455Q78 462 82 472H474ZM474 264Q477 255 477 247Q477 238 474 229H82Q78 241 78 247Q78 252 82 264H474Z" />
<glyph unicode="&gt;" glyph-name="greater" horiz-adv-x="480" d="M74 167Q67 164 62 170T57 189Q57 197 58 201L393 351L58 501Q56 509 56 514Q56 525 61 531T74 535L439 362Q443 358 443 351Q443 345 439 340L74 167Z" />
<glyph unicode="?" glyph-name="question" horiz-adv-x="491" d="M174 313Q220 314 270 337T356 406T392 516Q392 598 346 649T210 700Q158 700 125 679T77 628T58 574Q25 574 25 603Q25 629 47 658T113 709T215 730Q274 730 324 709T406 640T438 521Q438 425
375 361T211 282V167H174V313ZM160 -12T149 -1T137 27Q137 43 148 54T176 66Q192 66 203 55T215 27Q215 11 204 0T176 -12Q160 -12 149 -1Z" />
<glyph unicode="@" glyph-name="at" horiz-adv-x="836" d="M554 637T627 583T730 447T760 279Q760 200 740 146T689 65T624 39Q590 39 565 64T539 131L540 166Q495 52 391 52Q309 52 282 109T255 239Q255 349 299 411T428 474Q510 474 544 423T579 304L578 140Q578
108 590 89T626 69Q653 69 675 92T712 164T726 284Q726 363 701 435T610 557T434 607Q328 607 257 560T152 434T118 264Q118 163 154 88T247 -26T363 -66Q375 -66 381 -65Q385 -75 385 -78Q385 -96 345 -96Q292 -96 229 -57T120 63T75 260Q75 358 113 444T232 583T432
637Q554 637 627 583ZM435 80T468 108T520 185T538 298Q538 361 515 403T426 445Q358 445 322 394T286 240Q286 80 392 80Q435 80 468 108Z" />
<glyph unicode="A" glyph-name="A" horiz-adv-x="570" d="M546 15T556 3Q546 -9 532 -9Q521 -9 513 -4T502 10L429 230H140L76 35Q71 20 71 11Q71 -1 74 -5Q63 -9 51 -9Q39 -9 32 -3T26 14Q26 22 33 43L256 692Q273 702 289 702Q313 702 320 681L538 37Q546 15
556 3ZM418 262L284 665L151 262H418Z" />
<glyph unicode="B" glyph-name="B" horiz-adv-x="564" d="M416 347T454 303T493 180Q493 109 462 70T371 16T217 0H131Q107 0 105 28V594Q105 611 103 642T97 686Q123 701 210 701Q336 701 397 661T458 532Q458 469 428 425T337 360Q416 347 454 303ZM161 675T148
671V373H256Q323 373 368 412T413 531Q413 609 364 642T202 675Q161 675 148 671ZM299 30T347 42T421 88T447 182Q447 272 391 308T225 344H148V30H226Q299 30 347 42Z" />
<glyph unicode="C" glyph-name="C" horiz-adv-x="581" d="M199 -12T133 79T67 345Q67 518 133 609T321 701Q372 701 414 689T479 656T503 614Q503 603 493 596T468 592Q460 628 421 649T322 671Q222 671 168 588T113 345Q113 185 167 102T321 18Q379 18 428 47T489
124Q504 125 514 120T524 102Q524 77 496 50T421 6T320 -12Q199 -12 133 79Z" />
<glyph unicode="D" glyph-name="D" horiz-adv-x="632" d="M105 0T105 28L104 594Q104 668 97 695Q175 701 294 701Q425 701 495 613T565 346Q565 167 496 84T295 0H130Q105 0 105 28ZM294 30Q404 30 461 105T518 345Q518 510 461 590T294 671H145L147 30H294Z" />
<glyph unicode="E" glyph-name="E" horiz-adv-x="527" d="M453 35T455 29T458 16Q458 0 447 0H130Q119 0 113 7T106 28L104 592Q104 651 97 678Q107 689 127 689H438Q448 689 448 677Q448 669 444 662T434 652Q300 657 146 659L147 382H414Q416 377 416 366Q416
356 414 351H147L148 30Q196 30 401 35Q433 37 448 37Q453 35 455 29Z" />
<glyph unicode="F" glyph-name="F" horiz-adv-x="508" d="M448 689T448 677Q448 669 444 662T434 652Q300 657 146 659L147 375H412Q414 370 414 359Q414 349 412 343H147L148 94Q148 29 155 2Q146 -9 130 -9Q119 -9 113 -2T106 19L104 592Q104 651 97 678Q107
689 127 689H438Q448 689 448 677Z" />
<glyph unicode="G" glyph-name="G" horiz-adv-x="606" d="M201 -12T134 79T67 344Q67 519 134 610T326 701Q374 701 415 688T480 656T504 616Q504 604 494 597T469 592Q462 628 423 649T328 671Q223 671 168 589T113 345Q113 183 168 101T329 18Q429 18 464 79T499
220Q499 289 477 323T415 359Q416 370 425 376T449 382Q488 382 515 345T543 223Q543 132 497 60T329 -12Q201 -12 134 79Z" />
<glyph unicode="H" glyph-name="H" horiz-adv-x="667" d="M562 27T570 2Q559 -9 545 -9Q534 -9 527 -2T520 19L519 351H148V94Q148 29 155 2Q146 -9 130 -9Q119 -9 113 -2T106 19L104 594Q104 659 97 686Q108 697 122 697Q134 697 141 690T148 669V382H519V594Q519
661 511 686Q522 697 536 697Q548 697 555 690T562 669V94Q562 27 570 2Z" />
<glyph unicode="I" glyph-name="I" horiz-adv-x="252" d="M119 -9T113 -2T106 19L104 594Q104 659 97 686Q108 697 122 697Q134 697 141 690T148 669V94Q148 29 155 2Q146 -9 130 -9Q119 -9 113 -2Z" />
<glyph unicode="J" glyph-name="J" horiz-adv-x="428" d="M118 -12T85 18T51 92Q51 107 59 118T83 130Q89 130 93 127Q89 114 89 100Q89 58 116 38T177 18Q240 18 263 55T286 166V628Q286 657 287 670Q260 669 191 673L168 675Q148 677 133 669T118 637Q118 621
124 611T145 594Q137 588 123 588Q106 588 94 603T81 644Q81 667 98 684T148 701Q167 701 198 698L265 695Q292 695 332 700Q329 678 329 631V165Q329 90 298 39T179 -12Q118 -12 85 18Z" />
<glyph unicode="K" glyph-name="K" horiz-adv-x="562" d="M544 37T544 26Q544 10 529 1T497 -9Q474 -9 455 9T427 55L375 220Q360 258 344 280T288 317T179 332H147L148 94Q148 29 155 2Q146 -9 130 -9Q119 -9 113 -2T106 19L104 594Q104 659 97 686Q108 697 122
697Q133 697 139 690T146 669L147 361L180 362Q253 364 307 403T390 499T419 614Q419 660 401 688Q413 700 425 700Q441 700 452 680T463 619Q463 537 416 462T274 352Q335 342 368 311T417 227L466 72Q475 48 484 38T507 28Q529 28 539 44Q544 37 544 26Z" />
<glyph unicode="L" glyph-name="L" horiz-adv-x="462" d="M148 31Q206 31 277 33T375 36Q405 38 419 38Q429 34 429 16Q429 0 418 0H130Q119 0 113 7T106 28L104 594Q104 659 97 686Q108 697 122 697Q133 697 139 690T146 669L148 31Z" />
<glyph unicode="M" glyph-name="M" horiz-adv-x="850" d="M746 27T754 2Q743 -9 728 -9Q717 -9 711 -2T705 19L703 625L448 129Q438 123 427 123Q417 123 406 129Q300 315 136 617L138 94Q138 27 146 0Q137 -9 124 -9Q106 -9 106 17L104 595Q104 660 98 688Q107
697 123 697Q137 697 145 686L254 488Q350 317 430 168Q489 281 563 430Q673 648 696 692Q705 697 719 697Q730 697 737 691T744 674L746 94Q746 27 754 2Z" />
<glyph unicode="N" glyph-name="N" horiz-adv-x="671" d="M112 -9T98 0Q106 27 106 94L104 586Q104 660 98 688Q105 694 119 694Q132 694 138 690Q189 613 364 339Q471 168 537 68L531 602V633Q531 668 533 690Q545 696 556 695Q569 687 569 660L570 93Q570 19
573 0Q567 -7 552 -7Q547 -7 541 -5Q448 117 139 614L144 20Q144 7 138 -1T121 -9Q112 -9 98 0Z" />
<glyph unicode="O" glyph-name="O" horiz-adv-x="641" d="M198 -12T133 76T67 345Q67 524 132 612T321 701Q443 701 508 613T574 345Q574 165 509 77T321 -12Q198 -12 133 76ZM422 18T475 98T528 345Q528 510 475 590T321 671Q220 671 167 591T113 345Q113 179
166 99T321 18Q422 18 475 98Z" />
<glyph unicode="P" glyph-name="P" horiz-adv-x="541" d="M352 701T417 652T483 500Q483 387 408 334T178 281H148V93Q148 77 150 46T156 2Q145 -9 131 -9Q107 -9 105 19V594Q105 611 103 642T97 686Q123 701 208 701Q352 701 417 652ZM315 308T376 354T437 498Q437
590 381 631T201 673Q161 673 148 669V308H187Q315 308 376 354Z" />
<glyph unicode="Q" glyph-name="Q" horiz-adv-x="642" d="M425 -138T365 -104T227 -9L199 13Q134 62 101 142T67 344Q67 524 132 612T321 701Q444 701 509 613T575 345Q575 166 509 77T321 -12Q294 -12 272 -7Q333 -52 379 -76T473 -101Q520 -101 550 -79T576
-20Q591 -18 600 -27T610 -50Q610 -91 577 -114T489 -138Q425 -138 365 -104ZM422 18T475 98T528 345Q528 510 475 590T321 671Q220 671 167 590T114 342Q114 180 167 99T321 18Q422 18 475 98Z" />
<glyph unicode="R" glyph-name="R" horiz-adv-x="579" d="M562 37T562 27Q562 10 547 1T516 -9Q493 -9 476 8T446 56L387 202Q373 238 362 257T324 289T250 303H148V93Q148 77 150 46T156 2Q145 -9 131 -9Q107 -9 105 19V594Q105 611 103 642T97 686Q106 691 134
696T214 701Q356 701 419 656T483 508Q483 437 444 388T338 320Q370 311 390 283T430 208L485 73Q495 48 504 38T525 28Q547 28 557 44Q562 37 562 27ZM174 331T250 331Q301 332 343 352T411 411T437 503Q437 596 385 634T213 673Q164 673 148 669V332Q174 331
250 331Z" />
<glyph unicode="S" glyph-name="S" horiz-adv-x="546" d="M168 -12T115 31T62 140Q62 167 72 179T109 188Q104 169 105 152Q106 86 152 52T276 18Q355 18 400 52T446 153Q446 195 426 226T371 282T270 344Q203 381 167 406T109 465T86 548Q86 625 141 663T282
701Q367 701 419 667T471 573Q471 559 467 551T451 538Q443 536 439 536Q435 536 425 538Q431 550 429 567Q428 618 386 644T278 671Q215 671 173 644T130 557Q130 514 152 484T204 434T294 382Q361 346 402 316T466 247T490 158Q490 87 441 38T276 -12Q168 -12
115 31Z" />
<glyph unicode="T" glyph-name="T" horiz-adv-x="509" d="M490 689T490 677Q490 670 486 662T476 652Q347 660 276 661L277 94Q277 27 285 2Q274 -9 260 -9Q249 -9 243 -2T236 19L234 661Q160 660 34 652Q28 654 24 661T20 677Q20 689 30 689H481Q490 689 490 677Z" />
<glyph unicode="U" glyph-name="U" horiz-adv-x="646" d="M553 304Q553 148 495 68T322 -12Q208 -12 154 65T99 304V594Q99 656 91 686Q102 697 116 697Q127 697 133 690T140 669V304Q140 157 184 88T322 18Q416 18 464 90T512 304V594Q512 661 504 686Q515 697
529 697Q540 697 546 690T553 669V304Z" />
<glyph unicode="V" glyph-name="V" horiz-adv-x="560" d="M519 701T526 695T533 679Q533 672 526 649L308 0Q292 -9 278 -9Q252 -9 246 11L32 656Q23 680 14 690Q24 701 41 701Q63 701 69 683L280 32L482 658Q487 673 487 682Q487 694 484 698Q491 701 506 701Q519
701 526 695Z" />
<glyph unicode="W" glyph-name="W" horiz-adv-x="896" d="M860 701T867 695T874 679Q874 670 867 649L683 0Q668 -9 654 -9Q642 -9 634 -4T623 11L455 561L283 0Q267 -9 253 -9Q227 -9 221 11L42 656Q36 676 24 690Q34 701 51 701Q75 701 79 683L256 33L428 595Q430
601 430 611Q430 618 428 624Q442 631 456 631Q471 631 476 626L657 33L823 657Q828 675 828 681Q828 693 825 698Q835 701 847 701Q860 701 867 695Z" />
<glyph unicode="X" glyph-name="X" horiz-adv-x="582" d="M554 63T560 55T567 36Q567 18 552 5T510 -8Q459 -8 425 57L286 318L79 8Q70 -6 55 -6Q33 -6 30 22Q48 33 87 89L267 353L126 615Q114 636 103 646T78 656Q63 656 56 647T50 624Q39 626 32 634T25 653Q25
671 40 683T82 696Q132 696 167 631L297 388L486 686Q494 701 509 701Q520 701 526 695T535 673Q509 656 476 605L314 357L467 74Q478 54 489 44T515 33Q530 33 537 43T542 64Q554 63 560 55Z" />
<glyph unicode="Y" glyph-name="Y" horiz-adv-x="522" d="M499 664T488 645L283 240L284 94Q284 27 292 2Q281 -9 267 -9Q256 -9 249 -2T242 19V240L240 244L43 653Q38 663 18 686Q31 701 50 701Q69 701 79 680L266 278L446 650Q456 671 456 680Q456 691 452 698Q462
701 474 701Q486 701 492 694T499 675Q499 664 488 645Z" />
<glyph unicode="Z" glyph-name="Z" horiz-adv-x="558" d="M495 190T510 160T526 98Q526 55 494 28T397 0L183 1Q102 1 63 -5L51 11Q51 32 72 62L457 655L182 653Q137 653 116 636T94 592Q94 570 104 554T137 524Q128 517 112 518Q88 519 73 545T57 601Q57 639
89 665T178 690H355H395Q459 690 482 695L499 683Q499 651 482 624L96 35L383 37Q487 37 487 110Q487 135 476 154T448 185Q451 186 456 188T468 191Q495 190 510 160Z" />
<glyph unicode="[" glyph-name="bracketleft" horiz-adv-x="317" d="M219 731V703H140V-133H219V-161H98V731H219Z" />
<glyph unicode="\" glyph-name="backslash" horiz-adv-x="411" d="M53 730H97L420 -142H376L53 730Z" />
<glyph unicode="]" glyph-name="bracketright" horiz-adv-x="317" d="M192 -161H71V-133H151V703H71V731H192V-161Z" />
<glyph unicode="^" glyph-name="asciicircum" horiz-adv-x="536" d="M98 273T89 275T78 281L249 441Q261 443 269 443Q276 443 288 441L458 281Q455 278 447 276T432 273L269 401L105 273Q98 273 89 275Z" />
<glyph unicode="_" glyph-name="underscore" horiz-adv-x="375" d="M405 -69V-100L-30 -98V-67L405 -69Z" />
<glyph unicode="`" glyph-name="grave" horiz-adv-x="600" d="M207 706T239 706L330 564Q328 561 319 560T302 559L185 692Q207 706 239 706Z" />
<glyph unicode="a" glyph-name="a" horiz-adv-x="538" d="M526 41T526 28Q526 11 510 1T472 -10Q436 -10 418 14T400 83V156Q364 77 303 33T172 -12Q115 -12 84 20T53 103Q53 159 93 199T212 261Q272 277 348 277Q383 277 399 275V301Q399 394 362 439T244 484Q191
484 154 465T116 399Q116 377 128 356T164 329Q158 320 149 316T132 312Q108 312 91 338T74 396Q74 455 120 484T250 514Q347 514 394 461T442 300V80Q442 27 480 27Q490 27 500 34T516 52Q526 41 526 28ZM233 22T282 56T365 143T400 251Q390 252 368 252Q330 252
288 247T217 232Q159 214 129 183T98 108Q98 71 119 47T186 22Q233 22 282 56Z" />
<glyph unicode="b" glyph-name="b" horiz-adv-x="532" d="M218 -12T168 3T85 56V701Q85 729 110 729Q123 729 136 718Q133 706 131 673T129 618L128 373Q148 433 196 473T310 514Q395 514 438 456T481 275Q481 150 429 69T268 -12Q218 -12 168 3ZM362 19T399 94T437
276Q437 481 308 481Q244 481 204 440T145 339T127 223V69Q141 48 181 34T263 19Q362 19 399 94Z" />
<glyph unicode="c" glyph-name="c" horiz-adv-x="501" d="M166 -12T109 53T51 245Q51 370 111 442T279 514Q353 514 396 480T439 389Q439 357 426 338T390 318Q370 318 359 335Q377 336 386 351T395 390Q395 437 360 461T273 486Q193 486 145 426T96 251Q96 130
147 77T275 23Q333 23 375 51T431 138Q446 133 446 117Q446 108 440 93Q422 41 377 15T268 -12Q166 -12 109 53Z" />
<glyph unicode="d" glyph-name="d" horiz-adv-x="550" d="M516 34T516 22Q516 9 504 1T470 -7Q407 -7 407 85V135Q382 68 335 28T218 -12Q120 -12 86 59T51 224Q51 360 104 437T258 514Q313 514 351 490T406 421L405 615Q405 693 398 718Q409 729 423 729Q435
729 442 722T449 701L448 80Q448 29 479 29Q498 29 506 47Q516 34 516 22ZM279 21T320 56T383 152T406 290Q406 370 373 426T256 482Q181 482 139 418T96 226Q96 21 225 21Q279 21 320 56Z" />
<glyph unicode="e" glyph-name="e" horiz-adv-x="500" d="M446 112T446 98Q446 86 440 74Q422 32 377 10T270 -12Q166 -12 109 53T51 245Q51 371 109 442T278 514Q355 514 400 478T445 375Q445 301 385 263T210 224Q153 224 96 234Q100 122 150 73T278 23Q334
23 376 47T432 119Q446 112 446 98ZM194 485T146 428T96 261Q150 252 212 252Q400 252 400 378Q400 435 364 460T275 485Q194 485 146 428Z" />
<glyph unicode="f" glyph-name="f" horiz-adv-x="376" d="M313 740T346 718T379 656Q379 627 364 610T332 592Q323 592 319 595Q339 619 339 650Q339 682 318 696T259 711Q197 711 177 672T156 566V502H250Q289 502 309 504L308 488Q306 472 295 472H156L155 94Q155
27 163 2Q152 -9 138 -9Q127 -9 121 -2T114 19L113 472H93Q59 472 33 470L34 486Q35 493 39 497T48 502H113V572Q113 642 144 691T261 740Q313 740 346 718Z" />
<glyph unicode="g" glyph-name="g" horiz-adv-x="531" d="M143 -238T99 -206T54 -115Q54 -85 66 -67T97 -48Q113 -48 121 -59Q94 -75 94 -113Q94 -162 127 -185T213 -209Q313 -209 359 -144T405 58V122Q385 61 339 26T227 -9Q142 -9 97 54T51 247Q51 354 96 434T268
514Q318 514 367 500T448 448V46Q448 -106 385 -172T210 -238Q143 -238 99 -206ZM296 23T334 58T388 145T405 247L406 437Q386 460 348 472T261 484Q164 484 130 413T96 244Q96 130 130 77T234 23Q296 23 334 58Z" />
<glyph unicode="h" glyph-name="h" horiz-adv-x="556" d="M469 32T477 2Q466 -9 452 -9Q441 -9 435 -2T428 19L427 299Q427 392 398 437T301 482Q263 482 225 460T161 384T135 246Q135 101 136 61T143 2Q132 -9 118 -9Q107 -9 101 -1T94 20L93 701Q93 714 99 721T118
728H121Q134 728 144 718Q137 695 136 619L135 388Q157 447 204 480T309 514Q469 514 469 301V94Q469 32 477 2Z" />
<glyph unicode="i" glyph-name="i" horiz-adv-x="251" d="M106 615T95 626T83 654Q83 670 94 681T122 693Q138 693 149 682T161 654Q161 638 150 627T122 615Q106 615 95 626ZM147 27T155 2Q144 -9 130 -9Q119 -9 113 -2T106 19L104 412Q104 477 96 504Q109 514
121 514Q132 514 138 507T145 487L147 94Q147 27 155 2Z" />
<glyph unicode="j" glyph-name="j" horiz-adv-x="256" d="M115 630T104 641T92 669Q92 685 103 696T130 708Q146 708 157 697T169 669Q169 653 158 642T130 630Q115 630 104 641ZM-13 -235T-37 -216T-61 -161Q-61 -147 -54 -136T-32 -125Q-27 -125 -23 -129Q-27
-140 -27 -153Q-27 -205 31 -205Q78 -205 95 -172T112 -70L113 412Q113 477 105 504Q117 514 130 514Q141 514 147 507T154 487L155 -75Q155 -235 32 -235Q-13 -235 -37 -216Z" />
<glyph unicode="k" glyph-name="k" horiz-adv-x="541" d="M506 38T506 27Q506 10 491 1T459 -9Q441 -9 426 3T400 35L300 218Q216 186 136 166Q136 71 137 46T144 2Q131 -9 118 -9Q94 -9 94 20L93 701Q93 714 100 721T119 729Q133 729 144 718Q138 690 136 619L135
344Q158 422 214 468T346 514Q403 514 436 484T469 398Q469 341 431 300T332 231Q341 224 347 215T354 203L435 58Q444 42 451 36T471 29Q489 29 500 45Q506 38 506 27ZM224 218T285 243T386 306T426 396Q426 440 402 461T338 482Q276 482 231 446T161 344T136
193Q224 218 285 243Z" />
<glyph unicode="l" glyph-name="l" horiz-adv-x="255" d="M131 -10T111 13T91 80V701Q91 714 98 721T116 729Q132 729 141 718Q136 704 135 664T134 522L133 80Q133 54 143 41T173 27Q187 27 198 33T215 52Q225 41 225 28Q225 11 208 1T167 -10Q131 -10 111 13Z" />
<glyph unicode="m" glyph-name="m" horiz-adv-x="873" d="M786 27T794 2Q783 -9 769 -9Q758 -9 752 -2T745 19L744 299Q744 392 717 437T625 482Q590 482 556 461T498 391T471 264L472 94Q472 27 480 2Q469 -9 455 -9Q444 -9 438 -2T431 19L430 299Q430 393 403
437T311 482Q275 482 240 459T182 380T158 237Q158 98 159 60T166 2Q155 -9 141 -9Q130 -9 124 -2T117 20L116 423Q116 448 106 462T76 476Q65 476 56 469T43 450Q34 462 34 474Q34 491 48 501T82 512Q116 512 136 489T156 423V380Q176 442 220 478T319 514Q444
514 467 379Q485 441 530 477T633 514Q712 514 748 461T785 301L786 94Q786 27 794 2Z" />
<glyph unicode="n" glyph-name="n" horiz-adv-x="565" d="M479 25T486 2Q475 -9 461 -9Q449 -9 442 -2T435 19V299Q434 392 405 437T308 482Q270 482 232 460T169 384T143 246Q143 101 144 61T151 2Q140 -9 126 -9Q114 -9 107 -1T100 20V426Q99 454 93 465T71
476Q52 476 44 459Q34 470 34 483Q34 496 46 504T78 512Q111 512 126 492T141 428V387Q162 446 209 480T316 514Q477 514 477 301V94Q479 25 486 2Z" />
<glyph unicode="o" glyph-name="o" horiz-adv-x="537" d="M166 -12T109 57T51 251Q51 376 108 445T269 514Q372 514 429 445T486 251Q486 126 429 57T269 -12Q166 -12 109 57ZM350 18T395 79T441 251Q441 361 396 422T269 484Q187 484 142 423T96 251Q96 141 141
80T269 18Q350 18 395 79Z" />
<glyph unicode="p" glyph-name="p" horiz-adv-x="549" d="M429 514T463 442T498 278Q498 142 445 65T291 -12Q236 -12 198 12T142 81V-93Q142 -127 144 -164T150 -216Q139 -227 125 -227Q113 -227 106 -220T99 -199L100 425Q100 453 94 464T71 475Q52 475 44 458Q34
471 34 483Q34 496 46 504T79 512Q112 512 127 489T142 421V367Q167 434 214 474T330 514Q429 514 463 442ZM365 21T409 85T453 276Q453 481 324 481Q270 481 229 446T166 350T143 213Q143 21 284 21Q365 21 409 85Z" />
<glyph unicode="q" glyph-name="q" horiz-adv-x="534" d="M410 -228T397 -217Q402 -201 403 -167T405 -69V133Q386 69 337 28T224 -13Q51 -13 51 238Q51 300 70 363T135 470T259 514Q321 514 371 496T448 446V-200Q448 -213 442 -220T422 -228Q410 -228 397 -217ZM292
20T331 63T388 166T406 273V436Q388 454 347 468T262 483Q165 483 131 404T96 235Q96 124 130 72T231 20Q292 20 331 63Z" />
<glyph unicode="r" glyph-name="r" horiz-adv-x="420" d="M321 514T350 489T379 418Q379 390 366 372T336 351H332Q323 351 318 354Q330 370 334 383T338 414Q338 482 269 482Q218 482 181 427T143 246Q143 102 144 62T151 2Q141 -8 125 -8Q114 -8 107 -1T100
20V426Q100 453 93 464T71 476Q52 476 44 459Q34 470 34 483Q34 496 46 504T78 512Q110 512 125 490T140 423V396Q156 453 191 483T274 514Q321 514 350 489Z" />
<glyph unicode="s" glyph-name="s" horiz-adv-x="462" d="M133 -12T88 23T43 113Q43 164 88 158Q82 142 82 123Q83 71 121 45T226 18Q294 18 335 42T376 109Q376 137 361 156T324 187T262 218Q234 230 220 237Q211 241 163 264T90 321T66 398Q66 458 112 486T233
515Q314 515 357 488T401 413Q401 386 382 378Q376 376 371 376Q367 376 357 378Q363 392 361 407Q360 446 326 465T230 485Q178 485 144 466T109 406Q109 372 126 349T167 313T243 275L276 260Q324 239 352 223T399 180T419 117Q419 64 375 26T226 -12Q133 -12
88 23Z" />
<glyph unicode="t" glyph-name="t" horiz-adv-x="328" d="M258 502T278 504L277 488Q276 481 272 477T263 472H150V428L149 80Q149 54 161 40T199 25Q216 25 231 31T251 50Q261 39 261 27Q261 9 241 -1T192 -12Q152 -12 129 11T106 78V472H92Q58 472 32 470L33
486Q34 493 38 497T47 502H106V607Q106 620 113 627T132 634Q145 634 157 624Q150 602 150 502H218Q258 502 278 504Z" />
<glyph unicode="u" glyph-name="u" horiz-adv-x="555" d="M521 34T521 23Q521 9 509 1T477 -7Q444 -7 429 14T414 78V116Q392 56 346 22T242 -12Q161 -12 125 37T87 205L86 412Q86 476 79 504Q89 514 104 514Q115 514 121 507T128 487L129 206Q129 135 141 95T179
37T251 20Q288 20 325 43T387 120T412 260Q412 405 411 444T405 504Q415 514 430 514Q441 514 447 507T454 486L455 80Q455 52 461 41T484 30Q503 30 511 47Q521 34 521 23Z" />
<glyph unicode="v" glyph-name="v" horiz-adv-x="470" d="M438 503T445 497T451 481Q451 469 444 451L266 1Q252 -9 236 -9Q214 -9 206 11L32 458Q29 466 24 476T14 492Q25 503 41 503Q62 503 68 485L240 23L401 460Q406 475 406 484Q406 496 404 500Q410 503
424 503Q438 503 445 497Z" />
<glyph unicode="w" glyph-name="w" horiz-adv-x="745" d="M189 -9T183 11L37 458Q34 466 29 476T19 492Q30 503 46 503Q67 503 73 485L217 26L343 460Q347 480 347 484Q347 496 344 500Q358 507 376 507Q392 507 400 498L536 26L671 460Q677 472 677 484Q677 494
674 500Q680 503 694 503Q722 503 722 481Q722 474 715 451L565 1Q549 -9 535 -9Q524 -9 515 -4T503 11L376 453L245 1Q229 -9 212 -9Q189 -9 183 11Z" />
<glyph unicode="x" glyph-name="x" horiz-adv-x="488" d="M462 57T468 49T475 29Q475 13 460 0T420 -13Q392 -13 374 3T337 51L236 228L80 2Q71 -12 56 -12Q47 -12 40 -6T32 15Q50 26 89 82L217 261L118 433Q105 455 95 464T70 474Q54 474 47 465T42 443Q31 445
24 452T17 471Q17 488 32 501T73 514Q101 514 119 498T156 450L246 290L395 500Q406 514 419 514Q440 514 444 487Q427 475 398 435Q384 418 385 419L265 258L375 68Q387 47 398 37T424 27Q439 27 446 37T450 58Q462 57 468 49Z" />
<glyph unicode="y" glyph-name="y" horiz-adv-x="539" d="M456 47Q456 -238 236 -238Q172 -238 126 -211T80 -129Q80 -103 90 -86T118 -68Q133 -68 141 -79Q120 -90 120 -123Q120 -169 154 -189T235 -209Q329 -209 371 -145T413 59L414 123Q393 60 346 25T234
-10Q161 -10 125 40T87 206L86 412Q86 476 79 504Q89 514 104 514Q115 514 121 507T128 487L129 207Q129 108 155 66T241 23Q311 23 361 80T412 269Q412 408 411 446T405 504Q415 514 430 514Q441 514 447 507T454 486L456 47Z" />
<glyph unicode="z" glyph-name="z" horiz-adv-x="479" d="M424 164T435 141T446 93Q446 51 416 25T335 -1L145 0Q78 0 49 -5L40 8Q40 27 56 48L379 467L152 465Q115 464 98 448T81 409Q81 383 106 363Q99 356 89 357Q67 358 55 378T42 421Q42 456 70 479T148 503L314
502Q347 502 372 503T409 507L419 497Q419 481 416 469T403 443L89 36L322 37Q366 38 386 57T407 106Q407 123 400 138T380 161Q394 166 400 165Q424 164 435 141Z" />
<glyph unicode="{" glyph-name="braceleft" horiz-adv-x="352" d="M200 -172T164 -137T128 -30Q128 0 135 58Q144 139 144 172Q144 217 130 238T77 275V301Q116 316 130 339T144 408Q144 443 140 479T135 522Q128 573 128 603Q128 675 164 710T259 746Q279 746
297 743T320 735Q322 734 322 727Q322 716 313 713Q289 717 273 717Q224 717 197 690T169 608Q169 583 176 530Q186 460 186 416Q186 308 135 291V285Q158 278 172 247T186 162Q186 124 176 50Q175 37 172 11T169 -32Q169 -86 196 -114T273 -143Q289 -143 313 -139Q322
-142 322 -153Q322 -159 320 -161Q315 -165 297 -168T259 -172Q200 -172 164 -137Z" />
<glyph unicode="|" glyph-name="bar" horiz-adv-x="245" d="M102 730H143V-137H102V730Z" />
<glyph unicode="}" glyph-name="braceright" horiz-adv-x="352" d="M73 -172T55 -169T32 -161Q30 -159 30 -153Q30 -142 39 -139Q63 -143 79 -143Q128 -143 155 -115T183 -32Q183 -16 180 10T176 50Q166 124 166 162Q166 216 180 247T217 285V291Q166 308 166
416Q166 460 176 530Q183 583 183 608Q183 662 156 689T79 717Q63 717 39 713Q32 715 30 723T32 735Q37 739 55 742T93 746Q152 746 188 711T224 603Q224 573 217 522Q216 515 212 479T208 408Q208 363 222 340T275 301V275Q237 259 223 238T208 172Q208 139 217
58Q224 0 224 -30Q224 -101 188 -136T93 -172Q73 -172 55 -169Z" />
<glyph unicode="~" glyph-name="asciitilde" horiz-adv-x="519" d="M435 356T413 335T359 314Q329 314 307 320T254 341Q228 353 209 359T164 366Q143 366 127 354T104 320H102Q90 320 78 330Q85 366 110 384T169 402Q199 402 221 396T273 375Q300 363 320 357T366
350Q385 350 395 361T413 397Q431 397 441 388Q435 356 413 335Z" />
<glyph unicode="&#xa0;" glyph-name="uni00A0" horiz-adv-x="298" />
<glyph unicode="&#xa1;" glyph-name="exclamdown" horiz-adv-x="274" d="M152 511T164 500T176 472Q176 456 164 445T137 433Q121 433 110 444T98 472Q98 488 109 499T137 511Q152 511 164 500ZM123 -222T137 -222Q151 -222 163 -219L156 332H119L111 -219Q123
-222 137 -222Z" />
<glyph unicode="&#xa2;" glyph-name="cent" horiz-adv-x="501" d="M448 232T448 216Q448 205 443 192Q415 115 330 94L338 51Q350 -9 360 -33Q353 -42 346 -44H342Q331 -44 326 -25L303 89Q283 87 270 87Q169 87 112 153T54 344Q54 444 92 511T202 602L195 636Q182
698 172 720Q173 721 177 725T187 731H191Q202 731 207 712L227 609Q255 614 281 614Q355 614 398 580T442 488Q442 457 429 438T393 418Q372 418 362 435Q380 436 389 451T398 490Q398 537 363 561T276 585Q256 585 233 580L323 128Q365 137 394 164T434 237Q448
232 448 216ZM290 123T297 124L208 572Q157 549 128 493T99 350Q99 230 149 177T278 123Q290 123 297 124Z" />
<glyph unicode="&#xa3;" glyph-name="sterling" horiz-adv-x="508" d="M466 35T466 23Q466 14 462 7T449 0H43V24Q96 101 115 148T134 260Q134 272 132 298H92Q58 298 32 296L33 312Q35 328 47 328H130L124 381Q114 463 114 494Q114 700 295 700Q334 700 363 687T408
651T424 604Q424 575 403 575Q395 575 391 578Q391 622 363 646T294 670Q231 670 194 634T156 501Q156 456 165 389L171 328H295Q336 328 356 330L355 314Q354 307 351 303T341 298H173Q174 287 174 263Q174 192 153 142T76 28Q254 28 460 41Q466 35 466 23Z" />
<glyph unicode="&#xa4;" glyph-name="currency" horiz-adv-x="540" d="M470 193T488 182Q488 170 481 164Q476 159 470 159Q462 159 454 167L392 228Q368 207 337 195T271 183Q235 183 203 195T146 229L137 220Q90 172 79 154Q78 154 72 155T61 161Q56 166 56
172Q56 180 65 189L125 250Q79 302 79 374Q79 445 125 497L117 505Q69 552 51 563Q51 564 52 570T59 581Q63 586 70 586Q78 586 86 578L146 518Q171 539 202 550T268 562Q303 562 335 550T393 515L402 525Q449 573 460 591Q471 591 478 584Q483 579 483 573Q483
564 475 556L414 495Q459 442 459 372Q459 302 413 248L422 240Q470 193 488 182ZM310 217T345 238T401 294T422 373Q422 415 402 451T346 508T270 529Q228 529 193 508T137 451T116 372Q116 330 136 295T192 238T269 217Q310 217 345 238Z" />
<glyph unicode="&#xa5;" glyph-name="yen" horiz-adv-x="519" d="M499 664T488 645L316 305H360Q406 305 426 307L425 291Q424 284 420 280T411 275H301L283 240V217H360Q406 217 426 219L425 203Q424 196 420 192T411 187H283L284 94Q284 27 292 2Q281 -9 267
-9Q256 -9 249 -2T242 19V187H153Q119 187 93 185L94 201Q95 208 99 212T108 217H242V240L240 244L225 275H153Q119 275 93 273L94 289Q95 296 99 300T108 305H211L43 653Q38 663 18 686Q31 701 50 701Q69 701 79 680L254 305H280L446 650Q456 671 456 680Q456
691 452 698Q462 701 474 701Q486 701 492 694T499 675Q499 664 488 645Z" />
<glyph unicode="&#xa6;" glyph-name="brokenbar" horiz-adv-x="245" d="M102 728H143V381H102V728ZM102 210H143V-137H102V210Z" />
<glyph unicode="&#xa7;" glyph-name="section" horiz-adv-x="462" d="M133 -86T88 -51T43 39Q43 85 77 85Q83 85 87 84Q82 72 82 50Q83 -2 121 -28T226 -55Q294 -55 335 -31T376 36Q376 64 361 83T324 114T262 145Q234 157 220 164Q211 168 163 191T90 248T66
325Q66 376 94 406T172 447Q120 473 93 503T66 585Q66 644 112 672T233 701Q314 701 357 674T400 599Q400 571 382 565Q376 562 370 562Q367 562 357 564Q363 578 361 594Q360 633 326 652T230 671Q177 671 143 653T108 592Q108 558 125 535T167 499T243 461Q269
449 275 447Q323 426 351 410T398 367T418 303Q418 259 389 224T291 180Q353 152 385 123T418 44Q418 -9 374 -47T226 -86Q133 -86 88 -51ZM252 201T263 201Q311 201 343 225T376 296Q376 322 360 341T321 374T254 408Q245 412 238 415T226 421Q219 422 207 422Q161
422 135 399T108 333Q108 300 127 277T171 240T246 202Q252 201 263 201Z" />
<glyph unicode="&#xa8;" glyph-name="dieresis" horiz-adv-x="600" d="M202 587T191 598T179 624Q179 639 190 650T217 661Q232 661 243 650T254 624Q254 609 243 598T217 587Q202 587 191 598ZM365 587T354 598T343 624Q343 639 354 650T380 661Q395 661 406
650T417 624Q417 609 406 598T380 587Q365 587 354 598Z" />
<glyph unicode="&#xa9;" glyph-name="copyright" horiz-adv-x="833" d="M319 -12T237 36T106 166T58 347Q58 443 106 524T236 653T417 701Q514 701 596 654T727 525T775 347Q775 249 727 167T597 36T417 -12Q319 -12 237 36ZM506 16T581 60T701 181T745 347Q745
436 701 511T582 630T417 674Q328 674 252 630T132 511T88 347Q88 257 132 181T251 61T417 16Q506 16 581 60ZM336 124T289 181T241 347Q241 455 288 512T423 569Q459 569 489 561T537 540T554 514Q554 508 547 503T529 500Q522 521 495 533T423 546Q353 546 316
495T278 347Q278 249 315 198T423 147Q465 147 500 164T545 210Q569 210 569 196Q569 180 549 163T494 135T422 124Q336 124 289 181Z" />
<glyph unicode="&#xaa;" glyph-name="ordfeminine" horiz-adv-x="364" d="M355 395T355 385Q355 373 345 366T319 359Q297 359 284 373T270 411Q270 419 271 423L272 474Q247 420 206 389T116 358Q77 358 57 379T36 434Q36 472 63 500T143 541Q183 552 239 552Q259
552 269 551V567Q269 628 244 657T165 687Q131 687 106 675T81 632Q81 617 89 604T112 586Q103 574 90 574Q73 574 62 591T50 631Q50 670 81 689T169 709Q236 709 268 674T301 567V421Q301 387 325 387Q331 387 338 391T349 401Q355 395 355 385ZM156 384T189 406T246
462T269 533Q242 535 206 532T147 521Q109 510 89 489T69 439Q69 415 82 400T124 384Q156 384 189 406Z" />
<glyph unicode="&#xab;" glyph-name="guillemotleft" horiz-adv-x="626" d="M286 243V238L568 43L548 19L244 223Q243 228 243 241Q243 254 244 258L548 464L566 438L286 243ZM77 243V238L359 43L339 19L35 223Q34 228 34 241Q34 254 35 258L339 464L357 438L77 243Z" />
<glyph unicode="&#xac;" glyph-name="logicalnot" horiz-adv-x="569" d="M472 377V228Q462 224 455 224Q450 224 438 228V342H80Q77 351 77 360Q77 368 80 377H472Z" />
<glyph unicode="&#xad;" glyph-name="uni00AD" horiz-adv-x="399" d="M342 273V239H57V273H342Z" />
<glyph unicode="&#xae;" glyph-name="registered" horiz-adv-x="833" d="M514 701T596 654T727 525T775 347Q775 249 727 167T597 36T417 -12Q319 -12 237 36T106 166T58 347Q58 443 106 524T236 653T417 701Q514 701 596 654ZM506 16T581 60T701 181T745 347Q745
436 701 511T582 630T417 674Q328 674 252 630T132 511T88 347Q88 257 132 181T251 61T417 16Q506 16 581 60ZM607 149T616 160Q621 153 621 147Q621 136 609 130T585 123Q568 123 554 134T529 166L486 261Q476 283 467 295T439 316T386 325H313V191Q313 178 315
159T320 130Q318 129 312 126T297 123Q289 123 284 128T278 141V516Q278 527 277 547T272 577Q297 587 359 587Q466 587 513 558T561 460Q561 414 532 382T455 338Q478 331 490 315T521 265L561 177Q570 162 577 156T593 149Q607 149 616 160ZM387 347Q444 347
484 376T524 456Q524 515 485 539T358 565Q325 565 313 562V347H387Z" />
<glyph unicode="&#xaf;" glyph-name="overscore" horiz-adv-x="600" d="M416 631Q419 624 419 615Q419 608 416 599H175Q172 608 172 615Q172 624 175 631H416Z" />
<glyph unicode="&#xb0;" glyph-name="degree" horiz-adv-x="364" d="M133 474T99 507T64 588Q64 635 98 668T182 701Q231 701 265 668T300 588Q300 541 266 508T182 474Q133 474 99 507ZM217 504T241 529T266 588Q266 622 242 646T182 671Q147 671 123 647T98
588Q98 554 123 529T182 504Q217 504 241 529Z" />
<glyph unicode="&#xb1;" glyph-name="plusminus" horiz-adv-x="577" d="M93 343Q89 355 89 361Q89 368 93 378H271V507Q279 511 288 511Q298 511 305 507V378H484Q488 371 488 361Q488 351 484 343H305V214Q295 212 290 212Q280 212 271 215V343H93ZM484 156Q488
149 488 139Q488 129 484 121H93Q89 133 89 139Q89 146 93 156H484Z" />
<glyph unicode="&#xb2;" glyph-name="uni00B2" horiz-adv-x="358" d="M32 247T34 268Q111 328 160 372T242 467T275 572Q275 618 248 648T171 679Q123 679 100 650T73 591Q60 591 53 598T46 617Q46 635 61 654T106 687T174 701Q233 701 273 669T313 573Q313 488
243 413T65 265Q178 266 334 278Q341 273 341 259Q341 253 339 248T333 241H41Q32 247 34 268Z" />
<glyph unicode="&#xb3;" glyph-name="uni00B3" horiz-adv-x="382" d="M132 233T101 248T56 282T43 316Q43 325 49 332T70 339Q74 307 98 282T183 256Q240 256 271 283T302 357Q302 416 256 443T137 471V492Q207 494 246 523T286 596Q286 632 261 655T189 679Q138
679 114 653T87 597Q61 597 61 618Q61 634 75 653T119 687T193 701Q248 701 286 676T325 596Q325 552 296 524T216 483Q275 472 308 443T341 360Q341 300 298 267T184 233Q132 233 101 248Z" />
<glyph unicode="&#xb5;" glyph-name="uni00B5" horiz-adv-x="562" d="M525 35T525 23Q525 9 513 1T480 -7Q448 -7 433 14T418 78V119Q397 58 351 23T246 -12Q168 -12 131 33V-96Q131 -129 134 -165T141 -216Q130 -227 116 -227Q104 -227 97 -220T90 -199V412Q90
472 82 504Q94 514 107 514Q118 514 124 507T131 487L132 206Q132 135 144 95T182 37T254 20Q291 20 328 43T390 120T416 260Q416 405 415 444T408 504Q421 514 433 514Q444 514 450 507T457 486L458 80Q458 52 464 41T488 30Q506 30 514 47Q525 35 525 23Z" />
<glyph unicode="&#xb6;" glyph-name="paragraph" horiz-adv-x="651" d="M538 -120T548 -144T578 -173Q572 -195 547 -195Q528 -195 512 -168T496 -98V431Q496 554 446 612T289 671Q180 671 137 614T94 480Q94 397 136 352T247 306Q265 306 283 309L282 433Q282
497 275 525Q288 535 299 535Q310 535 316 528T323 508L324 94Q324 27 332 2Q321 -9 308 -9Q297 -9 291 -2T284 19L283 277Q264 274 245 274Q193 274 149 297T77 367T50 479Q50 563 100 632T289 701Q415 701 476 635T538 432V-67Q538 -120 548 -144Z" />
<glyph unicode="&#xb7;" glyph-name="middot" horiz-adv-x="238" d="M103 212T92 223T80 251Q80 267 91 278T119 290Q135 290 146 279T158 251Q158 235 147 224T119 212Q103 212 92 223Z" />
<glyph unicode="&#xb8;" glyph-name="cedilla" horiz-adv-x="600" d="M298 -43Q337 -43 359 -62T381 -113Q381 -149 356 -171T291 -193Q236 -193 210 -165V-163Q210 -157 213 -150T222 -140Q234 -150 247 -156T284 -162Q309 -162 324 -150T339 -115Q339 -67 275
-67L259 -68L274 2H307L298 -43Z" />
<glyph unicode="&#xb9;" glyph-name="uni00B9" horiz-adv-x="289" d="M173 236T168 241T163 257L161 629Q161 654 160 665L130 643Q125 639 93 616T53 592Q39 592 39 614L78 641Q147 689 160 698Q168 701 175 701Q184 701 190 696T196 679V309Q196 267 202 244Q191
236 182 236Q173 236 168 241Z" />
<glyph unicode="&#xba;" glyph-name="ordmasculine" horiz-adv-x="363" d="M112 357T74 403T35 534Q35 617 73 663T182 709Q251 709 290 663T329 534Q329 451 290 404T182 357Q112 357 74 403ZM236 380T266 420T296 534Q296 606 266 646T182 687Q128 687 98 647T68
534Q68 461 98 421T182 380Q236 380 266 420Z" />
<glyph unicode="&#xbb;" glyph-name="guillemotright" horiz-adv-x="626" d="M287 464L591 258Q593 250 593 241Q593 233 591 223L287 19L267 43L549 238V243L269 438L287 464ZM78 464L382 258Q384 250 384 241Q384 233 382 223L78 19L58 43L340 238V243L60 438L78 464Z" />
<glyph unicode="&#xbc;" glyph-name="onequarter" horiz-adv-x="833" d="M173 236T168 241T163 257L161 629Q161 654 160 665L130 643Q125 639 93 616T53 592Q39 592 39 614L78 641Q147 689 160 698Q168 701 175 701Q184 701 190 696T196 679V309Q196 267 202
244Q191 236 182 236Q173 236 168 241ZM592 702T597 702Q614 702 617 686L179 -12H176Q159 -12 152 3L590 701Q592 702 597 702ZM824 150T824 141Q824 130 818 124H754V67Q754 28 759 3Q757 0 752 -3T740 -6Q731 -6 726 0T720 16V124H491Q481 130 481 139Q481 145
486 152L713 450Q721 460 733 460Q742 460 747 454T753 437L754 151Q798 153 819 158Q824 150 824 141ZM720 151L719 416L517 151H720Z" />
<glyph unicode="&#xbd;" glyph-name="onehalf" horiz-adv-x="892" d="M173 236T168 241T163 257L161 629Q161 654 160 665L130 643Q125 639 93 616T53 592Q39 592 39 614L78 641Q147 689 160 698Q168 701 175 701Q184 701 190 696T196 679V309Q196 267 202 244Q191
236 182 236Q173 236 168 241ZM604 702T609 702Q626 702 629 686L191 -12H188Q171 -12 164 3L602 701Q604 702 609 702ZM554 7T556 27Q633 87 682 131T764 226T798 331Q798 377 771 407T694 438Q646 438 622 409T596 349Q582 349 575 356T568 375Q568 393 583 413T628
446T696 460Q755 460 795 428T835 332Q835 247 766 172T588 24Q701 25 857 37Q864 32 864 18Q864 3 855 0H564Q554 7 556 27Z" />
<glyph unicode="&#xbe;" glyph-name="threequarters" horiz-adv-x="912" d="M132 233T101 248T56 282T43 316Q43 325 49 332T70 339Q74 307 98 282T183 256Q240 256 271 283T302 357Q302 416 256 443T137 471V492Q207 494 246 523T286 596Q286 632 261 655T189
679Q138 679 114 653T87 597Q61 597 61 618Q61 634 75 653T119 687T193 701Q248 701 286 676T325 596Q325 552 296 524T216 483Q275 472 308 443T341 360Q341 300 298 267T184 233Q132 233 101 248ZM671 702T676 702Q693 702 696 686L258 -12H255Q238 -12 231 3L669
701Q671 702 676 702ZM904 150T904 141Q904 130 898 124H834V67Q834 28 839 3Q837 0 832 -3T820 -6Q811 -6 806 0T800 16V124H571Q561 130 561 139Q561 145 566 152L793 450Q801 460 813 460Q822 460 827 454T833 437L834 151Q878 153 899 158Q904 150 904 141ZM800
151L799 416L597 151H800Z" />
<glyph unicode="&#xbf;" glyph-name="questiondown" horiz-adv-x="470" d="M321 525T332 514T344 486Q344 470 333 459T305 447Q289 447 278 458T266 486Q266 502 277 513T305 525Q321 525 332 514ZM308 200Q262 199 211 176T125 107T89 -3Q89 -85 136 -136T271
-187Q323 -187 356 -166T405 -115T423 -61Q456 -61 456 -90Q456 -116 434 -145T368 -196T266 -217Q208 -217 158 -196T76 -127T44 -8Q44 88 107 152T271 231V346H308V200Z" />
<glyph unicode="&#xc0;" glyph-name="Agrave" horiz-adv-x="570" d="M546 15T556 3Q546 -9 532 -9Q521 -9 513 -4T502 10L429 230H140L76 35Q71 20 71 11Q71 -1 74 -5Q63 -9 51 -9Q39 -9 32 -3T26 14Q26 22 33 43L256 692Q273 702 289 702Q313 702 320 681L538
37Q546 15 556 3ZM418 262L284 665L151 262H418ZM151 835T179 850L310 748Q309 744 305 738T296 729L140 812Q151 835 179 850Z" />
<glyph unicode="&#xc1;" glyph-name="Aacute" horiz-adv-x="570" d="M546 15T556 3Q546 -9 532 -9Q521 -9 513 -4T502 10L429 230H140L76 35Q71 20 71 11Q71 -1 74 -5Q63 -9 51 -9Q39 -9 32 -3T26 14Q26 22 33 43L256 692Q273 702 289 702Q313 702 320 681L538
37Q546 15 556 3ZM418 262L284 665L151 262H418ZM271 729Q267 731 263 737T257 748L388 850Q414 836 427 812L271 729Z" />
<glyph unicode="&#xc2;" glyph-name="Acircumflex" horiz-adv-x="570" d="M546 15T556 3Q546 -9 532 -9Q521 -9 513 -4T502 10L429 230H140L76 35Q71 20 71 11Q71 -1 74 -5Q63 -9 51 -9Q39 -9 32 -3T26 14Q26 22 33 43L256 692Q273 702 289 702Q313 702 320 681L538
37Q546 15 556 3ZM418 262L284 665L151 262H418ZM421 745Q419 741 414 736T404 728L284 806L163 728Q158 730 153 735T146 745L264 847Q276 849 283 849Q291 849 303 847L421 745Z" />
<glyph unicode="&#xc3;" glyph-name="Atilde" horiz-adv-x="570" d="M546 15T556 3Q546 -9 532 -9Q521 -9 513 -4T502 10L429 230H140L76 35Q71 20 71 11Q71 -1 74 -5Q63 -9 51 -9Q39 -9 32 -3T26 14Q26 22 33 43L256 692Q273 702 289 702Q313 702 320 681L538
37Q546 15 556 3ZM418 262L284 665L151 262H418ZM409 784T390 767T343 749Q326 749 311 755T277 771Q258 780 247 784T223 789Q181 789 169 748H167Q159 748 149 758Q156 792 176 809T226 826Q243 826 256 821T290 805Q310 795 322 790T348 785Q366 785 376 793T396
821Q409 821 417 812Q409 784 390 767Z" />
<glyph unicode="&#xc4;" glyph-name="Adieresis" horiz-adv-x="570" d="M546 15T556 3Q546 -9 532 -9Q521 -9 513 -4T502 10L429 230H140L76 35Q71 20 71 11Q71 -1 74 -5Q63 -9 51 -9Q39 -9 32 -3T26 14Q26 22 33 43L256 692Q273 702 289 702Q313 702 320 681L538
37Q546 15 556 3ZM418 262L284 665L151 262H418ZM189 759T178 770T166 798Q166 813 177 824T204 836Q220 836 231 825T242 798Q242 782 231 771T204 759Q189 759 178 770ZM355 759T344 770T332 798Q332 813 343 824T371 836Q386 836 397 825T409 798Q409 782 398
771T371 759Q355 759 344 770Z" />
<glyph unicode="&#xc5;" glyph-name="Aring" horiz-adv-x="570" d="M546 15T556 3Q546 -9 532 -9Q521 -9 513 -4T502 10L429 230H140L76 35Q71 20 71 11Q71 -1 74 -5Q63 -9 51 -9Q39 -9 32 -3T26 14Q26 22 33 43L256 692Q273 702 289 702Q313 702 320 681L538
37Q546 15 556 3ZM418 262L284 665L151 262H418ZM326 897T348 876T371 820Q370 783 347 761T285 738Q248 738 226 759T203 816Q203 853 227 875T289 897Q326 897 348 876ZM262 873T248 858T233 818Q233 792 247 777T287 762Q312 762 326 777T341 818Q341 843 327
858T287 873Q262 873 248 858Z" />
<glyph unicode="&#xc6;" glyph-name="AE" horiz-adv-x="811" d="M738 35T740 29T743 16Q743 0 732 0H415Q404 0 398 7T391 28L390 230H178L75 35Q69 26 69 11Q69 1 72 -5Q64 -9 51 -9Q39 -9 32 -3T26 15Q26 30 33 43L380 687Q418 689 445 689H723Q733 689 733
677Q733 669 729 662T719 652Q593 657 431 659L432 382H698Q701 375 701 366Q701 359 698 351H432L433 30Q481 30 686 35Q718 37 733 37Q738 35 740 29ZM390 262L389 592Q389 619 388 630L194 262H390Z" />
<glyph unicode="&#xc7;" glyph-name="Ccedilla" horiz-adv-x="581" d="M524 77T497 51T425 7T328 -12L322 -43Q361 -43 383 -62T405 -113Q405 -149 380 -171T315 -193Q260 -193 234 -165V-163Q234 -157 237 -150T246 -140Q258 -150 271 -156T308 -162Q333 -162
348 -150T363 -115Q363 -67 299 -67L283 -68L295 -11Q186 -2 127 89T67 345Q67 518 133 609T321 701Q372 701 414 689T479 656T503 614Q503 603 493 596T468 592Q460 628 421 649T322 671Q222 671 168 588T113 345Q113 185 167 102T321 18Q379 18 428 47T489 124Q504
125 514 120T524 102Q524 77 497 51Z" />
<glyph unicode="&#xc8;" glyph-name="Egrave" horiz-adv-x="527" d="M453 35T455 29T458 16Q458 0 447 0H130Q119 0 113 7T106 28L104 592Q104 651 97 678Q107 689 127 689H438Q448 689 448 677Q448 669 444 662T434 652Q300 657 146 659L147 382H414Q416 377
416 366Q416 356 414 351H147L148 30Q196 30 401 35Q433 37 448 37Q453 35 455 29ZM143 835T171 850L302 748Q301 744 297 738T288 729L132 812Q143 835 171 850Z" />
<glyph unicode="&#xc9;" glyph-name="Eacute" horiz-adv-x="527" d="M453 35T455 29T458 16Q458 0 447 0H130Q119 0 113 7T106 28L104 592Q104 651 97 678Q107 689 127 689H438Q448 689 448 677Q448 669 444 662T434 652Q300 657 146 659L147 382H414Q416 377
416 366Q416 356 414 351H147L148 30Q196 30 401 35Q433 37 448 37Q453 35 455 29ZM263 729Q259 731 255 737T249 748L380 850Q406 836 419 812L263 729Z" />
<glyph unicode="&#xca;" glyph-name="Ecircumflex" horiz-adv-x="527" d="M453 35T455 29T458 16Q458 0 447 0H130Q119 0 113 7T106 28L104 592Q104 651 97 678Q107 689 127 689H438Q448 689 448 677Q448 669 444 662T434 652Q300 657 146 659L147 382H414Q416
377 416 366Q416 356 414 351H147L148 30Q196 30 401 35Q433 37 448 37Q453 35 455 29ZM413 745Q411 741 406 736T396 728L276 806L155 728Q150 730 145 735T138 745L256 847Q268 849 275 849Q283 849 295 847L413 745Z" />
<glyph unicode="&#xcb;" glyph-name="Edieresis" horiz-adv-x="527" d="M453 35T455 29T458 16Q458 0 447 0H130Q119 0 113 7T106 28L104 592Q104 651 97 678Q107 689 127 689H438Q448 689 448 677Q448 669 444 662T434 652Q300 657 146 659L147 382H414Q416 377
416 366Q416 356 414 351H147L148 30Q196 30 401 35Q433 37 448 37Q453 35 455 29ZM181 759T170 770T158 798Q158 813 169 824T196 836Q212 836 223 825T234 798Q234 782 223 771T196 759Q181 759 170 770ZM347 759T336 770T324 798Q324 813 335 824T363 836Q378
836 389 825T401 798Q401 782 390 771T363 759Q347 759 336 770Z" />
<glyph unicode="&#xcc;" glyph-name="Igrave" horiz-adv-x="252" d="M119 -9T113 -2T106 19L104 594Q104 659 97 686Q108 697 122 697Q134 697 141 690T148 669V94Q148 29 155 2Q146 -9 130 -9Q119 -9 113 -2ZM-12 835T16 850L147 748Q146 744 142 738T133 729L-23
812Q-12 835 16 850Z" />
<glyph unicode="&#xcd;" glyph-name="Iacute" horiz-adv-x="252" d="M119 -9T113 -2T106 19L104 594Q104 659 97 686Q108 697 122 697Q134 697 141 690T148 669V94Q148 29 155 2Q146 -9 130 -9Q119 -9 113 -2ZM107 729Q103 731 99 737T93 748L224 850Q250 836
263 812L107 729Z" />
<glyph unicode="&#xce;" glyph-name="Icircumflex" horiz-adv-x="252" d="M119 -9T113 -2T106 19L104 594Q104 659 97 686Q108 697 122 697Q134 697 141 690T148 669V94Q148 29 155 2Q146 -9 130 -9Q119 -9 113 -2ZM258 745Q256 741 251 736T241 728L121 806L0
728Q-5 730 -10 735T-17 745L101 847Q113 849 120 849Q128 849 140 847L258 745Z" />
<glyph unicode="&#xcf;" glyph-name="Idieresis" horiz-adv-x="252" d="M119 -9T113 -2T106 19L104 594Q104 659 97 686Q108 697 122 697Q134 697 141 690T148 669V94Q148 29 155 2Q146 -9 130 -9Q119 -9 113 -2ZM26 759T15 770T3 798Q3 813 14 824T41 836Q57
836 68 825T79 798Q79 782 68 771T41 759Q26 759 15 770ZM192 759T181 770T169 798Q169 813 180 824T208 836Q223 836 234 825T246 798Q246 782 235 771T208 759Q192 759 181 770Z" />
<glyph unicode="&#xd0;" glyph-name="Eth" horiz-adv-x="624" d="M425 701T495 613T565 346Q565 167 496 84T295 0H130Q105 0 105 28L104 335H26Q23 343 23 349Q23 357 26 363H104V594Q104 668 97 695Q175 701 294 701Q425 701 495 613ZM404 30T461 105T518 345Q518
510 461 590T294 671H145L146 363H314Q317 357 317 349Q317 343 314 335H146L147 30H294Q404 30 461 105Z" />
<glyph unicode="&#xd1;" glyph-name="Ntilde" horiz-adv-x="671" d="M112 -9T98 0Q106 27 106 94L104 586Q104 660 98 688Q105 694 119 694Q132 694 138 690Q189 613 364 339Q471 168 537 68L531 602V633Q531 668 533 690Q545 696 556 695Q569 687 569 660L570
93Q570 19 573 0Q567 -7 552 -7Q547 -7 541 -5Q448 117 139 614L144 20Q144 7 138 -1T121 -9Q112 -9 98 0ZM459 784T440 767T393 749Q376 749 361 755T327 771Q308 780 297 784T273 789Q231 789 219 748H217Q209 748 199 758Q206 792 226 809T276 826Q293 826 306
821T340 805Q360 795 372 790T398 785Q416 785 426 793T446 821Q459 821 467 812Q459 784 440 767Z" />
<glyph unicode="&#xd2;" glyph-name="Ograve" horiz-adv-x="641" d="M198 -12T133 76T67 345Q67 524 132 612T321 701Q443 701 508 613T574 345Q574 165 509 77T321 -12Q198 -12 133 76ZM422 18T475 98T528 345Q528 510 475 590T321 671Q220 671 167 591T113 345Q113
179 166 99T321 18Q422 18 475 98ZM187 835T215 850L346 748Q345 744 341 738T332 729L176 812Q187 835 215 850Z" />
<glyph unicode="&#xd3;" glyph-name="Oacute" horiz-adv-x="641" d="M198 -12T133 76T67 345Q67 524 132 612T321 701Q443 701 508 613T574 345Q574 165 509 77T321 -12Q198 -12 133 76ZM422 18T475 98T528 345Q528 510 475 590T321 671Q220 671 167 591T113 345Q113
179 166 99T321 18Q422 18 475 98ZM307 729Q303 731 299 737T293 748L424 850Q450 836 463 812L307 729Z" />
<glyph unicode="&#xd4;" glyph-name="Ocircumflex" horiz-adv-x="641" d="M198 -12T133 76T67 345Q67 524 132 612T321 701Q443 701 508 613T574 345Q574 165 509 77T321 -12Q198 -12 133 76ZM422 18T475 98T528 345Q528 510 475 590T321 671Q220 671 167 591T113
345Q113 179 166 99T321 18Q422 18 475 98ZM457 745Q455 741 450 736T440 728L320 806L199 728Q194 730 189 735T182 745L300 847Q312 849 319 849Q327 849 339 847L457 745Z" />
<glyph unicode="&#xd5;" glyph-name="Otilde" horiz-adv-x="641" d="M198 -12T133 76T67 345Q67 524 132 612T321 701Q443 701 508 613T574 345Q574 165 509 77T321 -12Q198 -12 133 76ZM422 18T475 98T528 345Q528 510 475 590T321 671Q220 671 167 591T113 345Q113
179 166 99T321 18Q422 18 475 98ZM445 784T426 767T379 749Q362 749 347 755T313 771Q294 780 283 784T259 789Q217 789 205 748H203Q195 748 185 758Q192 792 212 809T262 826Q279 826 292 821T326 805Q346 795 358 790T384 785Q402 785 412 793T432 821Q445
821 453 812Q445 784 426 767Z" />
<glyph unicode="&#xd6;" glyph-name="Odieresis" horiz-adv-x="641" d="M198 -12T133 76T67 345Q67 524 132 612T321 701Q443 701 508 613T574 345Q574 165 509 77T321 -12Q198 -12 133 76ZM422 18T475 98T528 345Q528 510 475 590T321 671Q220 671 167 591T113
345Q113 179 166 99T321 18Q422 18 475 98ZM225 759T214 770T202 798Q202 813 213 824T240 836Q256 836 267 825T278 798Q278 782 267 771T240 759Q225 759 214 770ZM391 759T380 770T368 798Q368 813 379 824T407 836Q422 836 433 825T445 798Q445 782 434 771T407
759Q391 759 380 770Z" />
<glyph unicode="&#xd7;" glyph-name="multiply" horiz-adv-x="488" d="M268 353L409 212Q402 195 385 187L244 328L103 187Q86 196 80 212L220 352L79 493Q86 509 103 517L244 376L385 518Q402 511 409 494L268 353Z" />
<glyph unicode="&#xd8;" glyph-name="Oslash" horiz-adv-x="623" d="M574 546T574 345Q574 165 509 77T321 -12Q214 -12 151 54L112 -13Q94 -13 87 0L132 77Q67 168 67 345Q67 524 132 612T321 701Q412 701 469 654L498 704H500Q513 704 522 690L490 635Q574 546
574 345ZM113 199T156 118L450 622Q401 671 321 671Q220 671 167 591T113 345Q113 199 156 118ZM422 18T475 98T528 345Q528 517 469 599L172 90Q225 18 321 18Q422 18 475 98Z" />
<glyph unicode="&#xd9;" glyph-name="Ugrave" horiz-adv-x="646" d="M553 304Q553 148 495 68T322 -12Q208 -12 154 65T99 304V594Q99 656 91 686Q102 697 116 697Q127 697 133 690T140 669V304Q140 157 184 88T322 18Q416 18 464 90T512 304V594Q512 661 504
686Q515 697 529 697Q540 697 546 690T553 669V304ZM189 835T217 850L348 748Q347 744 343 738T334 729L178 812Q189 835 217 850Z" />
<glyph unicode="&#xda;" glyph-name="Uacute" horiz-adv-x="646" d="M553 304Q553 148 495 68T322 -12Q208 -12 154 65T99 304V594Q99 656 91 686Q102 697 116 697Q127 697 133 690T140 669V304Q140 157 184 88T322 18Q416 18 464 90T512 304V594Q512 661 504
686Q515 697 529 697Q540 697 546 690T553 669V304ZM309 729Q305 731 301 737T295 748L426 850Q452 836 465 812L309 729Z" />
<glyph unicode="&#xdb;" glyph-name="Ucircumflex" horiz-adv-x="646" d="M553 304Q553 148 495 68T322 -12Q208 -12 154 65T99 304V594Q99 656 91 686Q102 697 116 697Q127 697 133 690T140 669V304Q140 157 184 88T322 18Q416 18 464 90T512 304V594Q512 661
504 686Q515 697 529 697Q540 697 546 690T553 669V304ZM460 745Q458 741 453 736T443 728L323 806L202 728Q197 730 192 735T185 745L303 847Q315 849 322 849Q330 849 342 847L460 745Z" />
<glyph unicode="&#xdc;" glyph-name="Udieresis" horiz-adv-x="646" d="M553 304Q553 148 495 68T322 -12Q208 -12 154 65T99 304V594Q99 656 91 686Q102 697 116 697Q127 697 133 690T140 669V304Q140 157 184 88T322 18Q416 18 464 90T512 304V594Q512 661 504
686Q515 697 529 697Q540 697 546 690T553 669V304ZM227 759T216 770T204 798Q204 813 215 824T242 836Q258 836 269 825T280 798Q280 782 269 771T242 759Q227 759 216 770ZM393 759T382 770T370 798Q370 813 381 824T409 836Q424 836 435 825T447 798Q447 782
436 771T409 759Q393 759 382 770Z" />
<glyph unicode="&#xdd;" glyph-name="Yacute" horiz-adv-x="522" d="M499 664T488 645L283 240L284 94Q284 27 292 2Q281 -9 267 -9Q256 -9 249 -2T242 19V240L240 244L43 653Q38 663 18 686Q31 701 50 701Q69 701 79 680L266 278L446 650Q456 671 456 680Q456
691 452 698Q462 701 474 701Q486 701 492 694T499 675Q499 664 488 645ZM262 729Q258 731 254 737T248 748L379 850Q405 836 418 812L262 729Z" />
<glyph unicode="&#xde;" glyph-name="Thorn" horiz-adv-x="540" d="M352 571T417 522T483 370Q483 257 408 204T178 151H148V94Q148 29 155 2Q146 -9 130 -9Q119 -9 113 -2T106 19L104 594Q104 659 97 686Q108 697 122 697Q133 697 139 690T146 669V571H208Q352
571 417 522ZM315 178T376 224T437 368Q437 460 381 501T201 543Q164 543 146 542L148 178H187Q315 178 376 224Z" />
<glyph unicode="&#xdf;" glyph-name="germandbls" d="M93 -8T93 20V449Q93 595 146 662T303 729Q379 729 421 695T463 592Q463 538 441 508T377 447Q348 425 335 410T322 372Q322 342 345 322T426 270Q466 247 490 230T532 186T549 122Q549 67 510 28T383 -12Q303
-12 265 23T227 115Q227 151 253 156Q256 157 261 157Q268 157 271 156Q265 141 265 115Q265 65 297 43T380 20Q435 20 469 45T504 116Q504 147 489 169T453 204T396 236Q333 268 306 297T278 364Q278 398 295 420T348 467Q375 488 390 502T415 539T426 590Q426
644 391 671T299 699Q206 699 171 632T135 444V205Q135 84 136 52T142 2Q132 -8 114 -8Q93 -8 93 20Z" />
<glyph unicode="&#xe0;" glyph-name="agrave" horiz-adv-x="538" d="M526 41T526 28Q526 11 510 1T472 -10Q436 -10 418 14T400 83V156Q364 77 303 33T172 -12Q115 -12 84 20T53 103Q53 159 93 199T212 261Q272 277 348 277Q383 277 399 275V301Q399 394 362 439T244
484Q191 484 154 465T116 399Q116 377 128 356T164 329Q158 320 149 316T132 312Q108 312 91 338T74 396Q74 455 120 484T250 514Q347 514 394 461T442 300V80Q442 27 480 27Q490 27 500 34T516 52Q526 41 526 28ZM233 22T282 56T365 143T400 251Q390 252 368 252Q330
252 288 247T217 232Q159 214 129 183T98 108Q98 71 119 47T186 22Q233 22 282 56ZM147 706T179 706L270 564Q268 561 259 560T242 559L125 692Q147 706 179 706Z" />
<glyph unicode="&#xe1;" glyph-name="aacute" horiz-adv-x="538" d="M526 41T526 28Q526 11 510 1T472 -10Q436 -10 418 14T400 83V156Q364 77 303 33T172 -12Q115 -12 84 20T53 103Q53 159 93 199T212 261Q272 277 348 277Q383 277 399 275V301Q399 394 362 439T244
484Q191 484 154 465T116 399Q116 377 128 356T164 329Q158 320 149 316T132 312Q108 312 91 338T74 396Q74 455 120 484T250 514Q347 514 394 461T442 300V80Q442 27 480 27Q490 27 500 34T516 52Q526 41 526 28ZM233 22T282 56T365 143T400 251Q390 252 368 252Q330
252 288 247T217 232Q159 214 129 183T98 108Q98 71 119 47T186 22Q233 22 282 56ZM258 559H252Q233 559 231 564L321 706Q353 706 375 692L258 559Z" />
<glyph unicode="&#xe2;" glyph-name="acircumflex" horiz-adv-x="538" d="M526 41T526 28Q526 11 510 1T472 -10Q436 -10 418 14T400 83V156Q364 77 303 33T172 -12Q115 -12 84 20T53 103Q53 159 93 199T212 261Q272 277 348 277Q383 277 399 275V301Q399 394
362 439T244 484Q191 484 154 465T116 399Q116 377 128 356T164 329Q158 320 149 316T132 312Q108 312 91 338T74 396Q74 455 120 484T250 514Q347 514 394 461T442 300V80Q442 27 480 27Q490 27 500 34T516 52Q526 41 526 28ZM233 22T282 56T365 143T400 251Q390
252 368 252Q330 252 288 247T217 232Q159 214 129 183T98 108Q98 71 119 47T186 22Q233 22 282 56ZM143 557T134 559T123 566L235 689Q249 691 256 691Q264 691 274 689L386 566Q383 562 375 560T360 557L255 648L149 557Q143 557 134 559Z" />
<glyph unicode="&#xe3;" glyph-name="atilde" horiz-adv-x="538" d="M526 41T526 28Q526 11 510 1T472 -10Q436 -10 418 14T400 83V156Q364 77 303 33T172 -12Q115 -12 84 20T53 103Q53 159 93 199T212 261Q272 277 348 277Q383 277 399 275V301Q399 394 362 439T244
484Q191 484 154 465T116 399Q116 377 128 356T164 329Q158 320 149 316T132 312Q108 312 91 338T74 396Q74 455 120 484T250 514Q347 514 394 461T442 300V80Q442 27 480 27Q490 27 500 34T516 52Q526 41 526 28ZM233 22T282 56T365 143T400 251Q390 252 368 252Q330
252 288 247T217 232Q159 214 129 183T98 108Q98 71 119 47T186 22Q233 22 282 56ZM386 623T366 602T317 581Q298 581 285 588T252 608Q233 621 222 626T197 631Q176 631 160 619T138 586H136Q128 586 118 596Q124 631 147 649T200 668Q219 668 232 662T264 642Q280
630 293 624T322 617Q342 617 352 628T371 663Q385 663 392 655Q386 623 366 602Z" />
<glyph unicode="&#xe4;" glyph-name="adieresis" horiz-adv-x="538" d="M526 41T526 28Q526 11 510 1T472 -10Q436 -10 418 14T400 83V156Q364 77 303 33T172 -12Q115 -12 84 20T53 103Q53 159 93 199T212 261Q272 277 348 277Q383 277 399 275V301Q399 394 362
439T244 484Q191 484 154 465T116 399Q116 377 128 356T164 329Q158 320 149 316T132 312Q108 312 91 338T74 396Q74 455 120 484T250 514Q347 514 394 461T442 300V80Q442 27 480 27Q490 27 500 34T516 52Q526 41 526 28ZM233 22T282 56T365 143T400 251Q390 252
368 252Q330 252 288 247T217 232Q159 214 129 183T98 108Q98 71 119 47T186 22Q233 22 282 56ZM162 587T151 598T139 624Q139 639 150 650T177 661Q192 661 203 650T214 624Q214 609 203 598T177 587Q162 587 151 598ZM325 587T314 598T303 624Q303 639 314 650T340
661Q355 661 366 650T377 624Q377 609 366 598T340 587Q325 587 314 598Z" />
<glyph unicode="&#xe5;" glyph-name="aring" horiz-adv-x="538" d="M526 41T526 28Q526 11 510 1T472 -10Q436 -10 418 14T400 83V156Q364 77 303 33T172 -12Q115 -12 84 20T53 103Q53 159 93 199T212 261Q272 277 348 277Q383 277 399 275V301Q399 394 362 439T244
484Q191 484 154 465T116 399Q116 377 128 356T164 329Q158 320 149 316T132 312Q108 312 91 338T74 396Q74 455 120 484T250 514Q347 514 394 461T442 300V80Q442 27 480 27Q490 27 500 34T516 52Q526 41 526 28ZM233 22T282 56T365 143T400 251Q390 252 368 252Q330
252 288 247T217 232Q159 214 129 183T98 108Q98 71 119 47T186 22Q233 22 282 56ZM296 710T318 689T341 633Q340 596 317 574T255 551Q218 551 196 572T173 629Q173 666 197 688T259 710Q296 710 318 689ZM232 686T218 671T203 631Q203 605 217 590T257 575Q282
575 296 590T311 631Q311 656 297 671T257 686Q232 686 218 671Z" />
<glyph unicode="&#xe6;" glyph-name="ae" horiz-adv-x="849" d="M795 112T795 98Q795 89 789 74Q771 32 726 10T619 -12Q533 -12 478 32T406 164Q370 82 307 35T172 -12Q115 -12 84 20T53 103Q53 159 93 199T212 261Q272 277 348 277Q383 277 400 275V276V301Q400
394 363 439T244 484Q191 484 154 465T116 399Q116 377 128 356T164 329Q158 320 149 316T132 312Q108 312 91 338T74 396Q74 455 120 484T250 514Q391 514 428 395Q455 452 505 483T626 514Q703 514 748 478T793 375Q793 301 733 263T559 224Q500 224 445 234Q449
122 499 73T626 23Q682 23 724 47T781 119Q795 112 795 98ZM543 485T495 428T445 260Q503 252 560 252Q651 252 700 283T749 378Q749 435 713 460T624 485Q543 485 495 428ZM231 22T279 53T360 134T399 236V245V251Q389 252 367 252Q329 252 288 247T217 232Q159
214 129 183T98 108Q98 71 119 47T186 22Q231 22 279 53Z" />
<glyph unicode="&#xe7;" glyph-name="ccedilla" horiz-adv-x="501" d="M446 133T446 117Q446 108 440 93Q423 44 382 18T281 -12L275 -43Q314 -43 336 -62T358 -113Q358 -149 333 -171T268 -193Q213 -193 187 -165V-163Q187 -157 190 -150T199 -140Q211 -150 224
-156T261 -162Q286 -162 301 -150T316 -115Q316 -67 252 -67L236 -68L248 -11Q155 -5 103 60T51 245Q51 370 111 442T279 514Q353 514 396 480T439 389Q439 357 426 338T390 318Q370 318 359 335Q377 336 386 351T395 390Q395 437 360 461T273 486Q193 486 145
426T96 251Q96 130 147 77T275 23Q333 23 375 51T431 138Q446 133 446 117Z" />
<glyph unicode="&#xe8;" glyph-name="egrave" horiz-adv-x="500" d="M446 112T446 98Q446 86 440 74Q422 32 377 10T270 -12Q166 -12 109 53T51 245Q51 371 109 442T278 514Q355 514 400 478T445 375Q445 301 385 263T210 224Q153 224 96 234Q100 122 150 73T278
23Q334 23 376 47T432 119Q446 112 446 98ZM194 485T146 428T96 261Q150 252 212 252Q400 252 400 378Q400 435 364 460T275 485Q194 485 146 428ZM160 706T192 706L283 564Q281 561 272 560T255 559L138 692Q160 706 192 706Z" />
<glyph unicode="&#xe9;" glyph-name="eacute" horiz-adv-x="500" d="M446 112T446 98Q446 86 440 74Q422 32 377 10T270 -12Q166 -12 109 53T51 245Q51 371 109 442T278 514Q355 514 400 478T445 375Q445 301 385 263T210 224Q153 224 96 234Q100 122 150 73T278
23Q334 23 376 47T432 119Q446 112 446 98ZM194 485T146 428T96 261Q150 252 212 252Q400 252 400 378Q400 435 364 460T275 485Q194 485 146 428ZM271 559H265Q246 559 244 564L334 706Q366 706 388 692L271 559Z" />
<glyph unicode="&#xea;" glyph-name="ecircumflex" horiz-adv-x="500" d="M446 112T446 98Q446 86 440 74Q422 32 377 10T270 -12Q166 -12 109 53T51 245Q51 371 109 442T278 514Q355 514 400 478T445 375Q445 301 385 263T210 224Q153 224 96 234Q100 122 150
73T278 23Q334 23 376 47T432 119Q446 112 446 98ZM194 485T146 428T96 261Q150 252 212 252Q400 252 400 378Q400 435 364 460T275 485Q194 485 146 428ZM156 557T147 559T136 566L248 689Q262 691 269 691Q277 691 287 689L399 566Q396 562 388 560T373 557L268
648L162 557Q156 557 147 559Z" />
<glyph unicode="&#xeb;" glyph-name="edieresis" horiz-adv-x="500" d="M446 112T446 98Q446 86 440 74Q422 32 377 10T270 -12Q166 -12 109 53T51 245Q51 371 109 442T278 514Q355 514 400 478T445 375Q445 301 385 263T210 224Q153 224 96 234Q100 122 150 73T278
23Q334 23 376 47T432 119Q446 112 446 98ZM194 485T146 428T96 261Q150 252 212 252Q400 252 400 378Q400 435 364 460T275 485Q194 485 146 428ZM175 587T164 598T152 624Q152 639 163 650T190 661Q205 661 216 650T227 624Q227 609 216 598T190 587Q175 587
164 598ZM338 587T327 598T316 624Q316 639 327 650T353 661Q368 661 379 650T390 624Q390 609 379 598T353 587Q338 587 327 598Z" />
<glyph unicode="&#xec;" glyph-name="igrave" horiz-adv-x="228" d="M133 29T140 2Q129 -9 115 -9Q104 -9 98 -2T91 19L90 412Q90 472 82 504Q95 514 107 514Q118 514 124 507T131 487L133 94Q133 29 140 2ZM-1 706T31 706L122 564Q120 561 111 560T94 559L-23
692Q-1 706 31 706Z" />
<glyph unicode="&#xed;" glyph-name="iacute" horiz-adv-x="228" d="M133 29T140 2Q129 -9 115 -9Q104 -9 98 -2T91 19L90 412Q90 472 82 504Q95 514 107 514Q118 514 124 507T131 487L133 94Q133 29 140 2ZM110 559H104Q85 559 83 564L173 706Q205 706 227 692L110 559Z" />
<glyph unicode="&#xee;" glyph-name="icircumflex" horiz-adv-x="228" d="M133 29T140 2Q129 -9 115 -9Q104 -9 98 -2T91 19L90 412Q90 472 82 504Q95 514 107 514Q118 514 124 507T131 487L133 94Q133 29 140 2ZM-5 557T-14 559T-25 566L87 689Q101 691 108 691Q116
691 126 689L238 566Q235 562 227 560T212 557L107 648L1 557Q-5 557 -14 559Z" />
<glyph unicode="&#xef;" glyph-name="idieresis" horiz-adv-x="228" d="M133 29T140 2Q129 -9 115 -9Q104 -9 98 -2T91 19L90 412Q90 472 82 504Q95 514 107 514Q118 514 124 507T131 487L133 94Q133 29 140 2ZM14 587T3 598T-9 624Q-9 639 2 650T29 661Q44 661
55 650T66 624Q66 609 55 598T29 587Q14 587 3 598ZM177 587T166 598T155 624Q155 639 166 650T192 661Q207 661 218 650T229 624Q229 609 218 598T192 587Q177 587 166 598Z" />
<glyph unicode="&#xf0;" glyph-name="eth" horiz-adv-x="503" d="M404 567T428 478T452 285Q452 148 403 68T244 -12Q132 -12 92 63T51 235Q51 310 75 368T145 461T257 495Q300 495 336 480T393 436Q373 531 316 605L228 558Q217 567 215 582L297 626Q268 658
235 675T169 693L145 692Q142 704 151 716T173 729Q271 729 341 650L421 693Q434 687 434 669L359 628Q404 567 428 478ZM326 21T366 89T406 267Q406 348 373 405T261 462Q184 462 140 404T96 246Q96 153 128 87T244 21Q326 21 366 89Z" />
<glyph unicode="&#xf1;" glyph-name="ntilde" horiz-adv-x="565" d="M479 25T486 2Q475 -9 461 -9Q449 -9 442 -2T435 19V299Q434 392 405 437T308 482Q270 482 232 460T169 384T143 246Q143 101 144 61T151 2Q140 -9 126 -9Q114 -9 107 -1T100 20V426Q99 454
93 465T71 476Q52 476 44 459Q34 470 34 483Q34 496 46 504T78 512Q111 512 126 492T141 428V387Q162 446 209 480T316 514Q477 514 477 301V94Q479 25 486 2ZM417 623T397 602T348 581Q329 581 316 588T283 608Q264 621 253 626T228 631Q207 631 191 619T169 586H167Q159
586 149 596Q155 631 178 649T231 668Q250 668 263 662T295 642Q311 630 324 624T353 617Q373 617 383 628T402 663Q416 663 423 655Q417 623 397 602Z" />
<glyph unicode="&#xf2;" glyph-name="ograve" horiz-adv-x="537" d="M166 -12T109 57T51 251Q51 376 108 445T269 514Q372 514 429 445T486 251Q486 126 429 57T269 -12Q166 -12 109 57ZM350 18T395 79T441 251Q441 361 396 422T269 484Q187 484 142 423T96 251Q96
141 141 80T269 18Q350 18 395 79ZM160 706T192 706L283 564Q281 561 272 560T255 559L138 692Q160 706 192 706Z" />
<glyph unicode="&#xf3;" glyph-name="oacute" horiz-adv-x="537" d="M166 -12T109 57T51 251Q51 376 108 445T269 514Q372 514 429 445T486 251Q486 126 429 57T269 -12Q166 -12 109 57ZM350 18T395 79T441 251Q441 361 396 422T269 484Q187 484 142 423T96 251Q96
141 141 80T269 18Q350 18 395 79ZM271 559H265Q246 559 244 564L334 706Q366 706 388 692L271 559Z" />
<glyph unicode="&#xf4;" glyph-name="ocircumflex" horiz-adv-x="537" d="M166 -12T109 57T51 251Q51 376 108 445T269 514Q372 514 429 445T486 251Q486 126 429 57T269 -12Q166 -12 109 57ZM350 18T395 79T441 251Q441 361 396 422T269 484Q187 484 142 423T96
251Q96 141 141 80T269 18Q350 18 395 79ZM156 557T147 559T136 566L248 689Q262 691 269 691Q277 691 287 689L399 566Q396 562 388 560T373 557L268 648L162 557Q156 557 147 559Z" />
<glyph unicode="&#xf5;" glyph-name="otilde" horiz-adv-x="537" d="M166 -12T109 57T51 251Q51 376 108 445T269 514Q372 514 429 445T486 251Q486 126 429 57T269 -12Q166 -12 109 57ZM350 18T395 79T441 251Q441 361 396 422T269 484Q187 484 142 423T96 251Q96
141 141 80T269 18Q350 18 395 79ZM399 623T379 602T330 581Q311 581 298 588T265 608Q246 621 235 626T210 631Q189 631 173 619T151 586H149Q141 586 131 596Q137 631 160 649T213 668Q232 668 245 662T277 642Q293 630 306 624T335 617Q355 617 365 628T384
663Q398 663 405 655Q399 623 379 602Z" />
<glyph unicode="&#xf6;" glyph-name="odieresis" horiz-adv-x="537" d="M166 -12T109 57T51 251Q51 376 108 445T269 514Q372 514 429 445T486 251Q486 126 429 57T269 -12Q166 -12 109 57ZM350 18T395 79T441 251Q441 361 396 422T269 484Q187 484 142 423T96
251Q96 141 141 80T269 18Q350 18 395 79ZM175 587T164 598T152 624Q152 639 163 650T190 661Q205 661 216 650T227 624Q227 609 216 598T190 587Q175 587 164 598ZM338 587T327 598T316 624Q316 639 327 650T353 661Q368 661 379 650T390 624Q390 609 379 598T353
587Q338 587 327 598Z" />
<glyph unicode="&#xf7;" glyph-name="divide" horiz-adv-x="555" d="M264 476T253 487T242 512Q242 527 253 537T278 548Q292 548 303 538T314 512Q314 498 303 487T278 476Q264 476 253 487ZM474 370Q477 361 477 352Q477 344 474 335H82Q78 347 78 352Q78 358
82 370H474ZM264 156T253 167T242 192Q242 206 253 217T278 228Q292 228 303 217T314 192Q314 178 303 167T278 156Q264 156 253 167Z" />
<glyph unicode="&#xf8;" glyph-name="oslash" horiz-adv-x="537" d="M449 428T467 375T486 251Q486 126 429 57T269 -12Q199 -12 148 22L128 -11Q112 -10 104 3L126 39Q89 72 70 126T51 251Q51 376 108 445T269 514Q341 514 390 480L411 514Q428 514 436 499L413
461Q449 428 467 375ZM96 136T146 73L372 448Q330 484 269 484Q187 484 142 423T96 251Q96 136 146 73ZM350 18T395 79T441 251Q441 366 392 427L167 53Q208 18 269 18Q350 18 395 79Z" />
<glyph unicode="&#xf9;" glyph-name="ugrave" horiz-adv-x="555" d="M521 34T521 23Q521 9 509 1T477 -7Q444 -7 429 14T414 78V116Q392 56 346 22T242 -12Q161 -12 125 37T87 205L86 412Q86 476 79 504Q89 514 104 514Q115 514 121 507T128 487L129 206Q129 135
141 95T179 37T251 20Q288 20 325 43T387 120T412 260Q412 405 411 444T405 504Q415 514 430 514Q441 514 447 507T454 486L455 80Q455 52 461 41T484 30Q503 30 511 47Q521 34 521 23ZM157 706T189 706L280 564Q278 561 269 560T252 559L135 692Q157 706 189 706Z"
/>
<glyph unicode="&#xfa;" glyph-name="uacute" horiz-adv-x="555" d="M521 34T521 23Q521 9 509 1T477 -7Q444 -7 429 14T414 78V116Q392 56 346 22T242 -12Q161 -12 125 37T87 205L86 412Q86 476 79 504Q89 514 104 514Q115 514 121 507T128 487L129 206Q129 135
141 95T179 37T251 20Q288 20 325 43T387 120T412 260Q412 405 411 444T405 504Q415 514 430 514Q441 514 447 507T454 486L455 80Q455 52 461 41T484 30Q503 30 511 47Q521 34 521 23ZM268 559H262Q243 559 241 564L331 706Q363 706 385 692L268 559Z" />
<glyph unicode="&#xfb;" glyph-name="ucircumflex" horiz-adv-x="555" d="M521 34T521 23Q521 9 509 1T477 -7Q444 -7 429 14T414 78V116Q392 56 346 22T242 -12Q161 -12 125 37T87 205L86 412Q86 476 79 504Q89 514 104 514Q115 514 121 507T128 487L129 206Q129
135 141 95T179 37T251 20Q288 20 325 43T387 120T412 260Q412 405 411 444T405 504Q415 514 430 514Q441 514 447 507T454 486L455 80Q455 52 461 41T484 30Q503 30 511 47Q521 34 521 23ZM153 557T144 559T133 566L245 689Q259 691 266 691Q274 691 284 689L396
566Q393 562 385 560T370 557L265 648L159 557Q153 557 144 559Z" />
<glyph unicode="&#xfc;" glyph-name="udieresis" horiz-adv-x="555" d="M521 34T521 23Q521 9 509 1T477 -7Q444 -7 429 14T414 78V116Q392 56 346 22T242 -12Q161 -12 125 37T87 205L86 412Q86 476 79 504Q89 514 104 514Q115 514 121 507T128 487L129 206Q129
135 141 95T179 37T251 20Q288 20 325 43T387 120T412 260Q412 405 411 444T405 504Q415 514 430 514Q441 514 447 507T454 486L455 80Q455 52 461 41T484 30Q503 30 511 47Q521 34 521 23ZM172 587T161 598T149 624Q149 639 160 650T187 661Q202 661 213 650T224
624Q224 609 213 598T187 587Q172 587 161 598ZM335 587T324 598T313 624Q313 639 324 650T350 661Q365 661 376 650T387 624Q387 609 376 598T350 587Q335 587 324 598Z" />
<glyph unicode="&#xfd;" glyph-name="yacute" horiz-adv-x="539" d="M456 47Q456 -238 236 -238Q172 -238 126 -211T80 -129Q80 -103 90 -86T118 -68Q133 -68 141 -79Q120 -90 120 -123Q120 -169 154 -189T235 -209Q329 -209 371 -145T413 59L414 123Q393 60 346
25T234 -10Q161 -10 125 40T87 206L86 412Q86 476 79 504Q89 514 104 514Q115 514 121 507T128 487L129 207Q129 108 155 66T241 23Q311 23 361 80T412 269Q412 408 411 446T405 504Q415 514 430 514Q441 514 447 507T454 486L456 47ZM279 559H273Q254 559 252
564L342 706Q374 706 396 692L279 559Z" />
<glyph unicode="&#xfe;" glyph-name="thorn" horiz-adv-x="543" d="M423 514T457 442T492 278Q492 143 438 67T285 -10Q230 -10 192 14T136 81V-93Q136 -127 138 -164T144 -216Q133 -227 119 -227Q107 -227 100 -220T93 -199V701Q93 728 117 728H120Q134 728 144
718Q137 695 136 619V367Q161 434 208 474T324 514Q423 514 457 442ZM358 23T402 86T447 276Q447 481 318 481Q264 481 223 446T160 350T137 213Q137 23 278 23Q358 23 402 86Z" />
<glyph unicode="&#xff;" glyph-name="ydieresis" horiz-adv-x="539" d="M456 47Q456 -238 236 -238Q172 -238 126 -211T80 -129Q80 -103 90 -86T118 -68Q133 -68 141 -79Q120 -90 120 -123Q120 -169 154 -189T235 -209Q329 -209 371 -145T413 59L414 123Q393 60
346 25T234 -10Q161 -10 125 40T87 206L86 412Q86 476 79 504Q89 514 104 514Q115 514 121 507T128 487L129 207Q129 108 155 66T241 23Q311 23 361 80T412 269Q412 408 411 446T405 504Q415 514 430 514Q441 514 447 507T454 486L456 47ZM183 587T172 598T160
624Q160 639 171 650T198 661Q213 661 224 650T235 624Q235 609 224 598T198 587Q183 587 172 598ZM346 587T335 598T324 624Q324 639 335 650T361 661Q376 661 387 650T398 624Q398 609 387 598T361 587Q346 587 335 598Z" />
<glyph unicode="&#x2013;" glyph-name="endash" horiz-adv-x="472" d="M424 273V239H48V273H424Z" />
<glyph unicode="&#x2014;" glyph-name="emdash" horiz-adv-x="781" d="M724 273V239H57V273H724Z" />
<glyph unicode="&#x2018;" glyph-name="quoteleft" horiz-adv-x="161" d="M111 730T119 717Q92 689 92 658Q92 639 100 629T123 613Q123 600 112 587T81 574Q64 574 51 586T38 627Q38 684 98 732Q111 730 119 717Z" />
<glyph unicode="&#x2019;" glyph-name="quoteright" horiz-adv-x="162" d="M52 567T42 579Q70 608 70 638Q70 658 62 667T38 683Q38 695 49 708T80 722Q97 722 110 711T123 669Q123 613 63 564Q52 567 42 579Z" />
<glyph unicode="&#x201a;" glyph-name="quotesinglbase" horiz-adv-x="162" d="M308 164T298 176Q326 205 326 235Q326 255 318 264T294 280Q294 292 305 305T336 319Q353 319 366 308T379 266Q379 210 319 161Q308 164 298 176Z" />
<glyph unicode="&#x201c;" glyph-name="quotedblleft" horiz-adv-x="286" d="M111 730T119 717Q92 689 92 658Q92 639 100 629T123 613Q123 600 112 587T81 574Q64 574 51 586T38 627Q38 684 98 732Q111 730 119 717ZM235 728T243 717Q216 687 216 658Q216 638
224 629T248 613Q248 601 237 588T206 574Q189 574 176 586T162 627Q162 683 222 732Q235 728 243 717Z" />
<glyph unicode="&#x201d;" glyph-name="quotedblright" horiz-adv-x="286" d="M184 567T174 579Q202 608 202 638Q202 658 194 667T170 683Q170 695 181 708T212 722Q229 722 242 711T255 669Q255 613 195 564Q184 567 174 579ZM59 567T49 579Q77 608 77 638Q77
658 69 667T45 683Q45 695 56 708T87 722Q104 722 117 711T130 669Q130 613 70 564Q59 567 49 579Z" />
<glyph unicode="&#x201e;" glyph-name="quotedblbase" horiz-adv-x="286" d="M176 -89T166 -77Q194 -48 194 -18Q194 2 186 11T162 27Q162 39 173 52T204 66Q221 66 234 55T247 13Q247 -43 187 -92Q176 -89 166 -77ZM308 -89T298 -77Q326 -48 326 -18Q326 2 318
11T294 27Q294 39 305 52T336 66Q353 66 366 55T379 13Q379 -43 319 -92Q308 -89 298 -77Z" />
<glyph unicode="&#x2022;" glyph-name="bullet" horiz-adv-x="309" d="M123 194T102 216T80 269Q80 299 101 320T154 342Q185 342 207 321T229 269Q229 238 207 216T154 194Q123 194 102 216Z" />
<glyph unicode="&#x2039;" glyph-name="guilsinglleft" horiz-adv-x="417" d="M77 243V238L359 43L339 19L35 223Q34 228 34 241Q34 254 35 258L339 464L357 438L77 243Z" />
<glyph unicode="&#x203a;" glyph-name="guilsinglright" horiz-adv-x="417" d="M78 464L382 258Q384 250 384 241Q384 233 382 223L78 19L58 43L340 238V243L60 438L78 464Z" />
</font>
</defs>
</svg>
