<?xml version="1.0" standalone="no"?>
<!DOCTYPE svg PUBLIC "-//W3C//DTD SVG 1.1//EN" "http://www.w3.org/Graphics/SVG/1.1/DTD/svg11.dtd">
<svg xmlns="http://www.w3.org/2000/svg">
<defs >
<font id="BilboSwashCaps" horiz-adv-x="264" ><font-face
    font-family="Bilbo Swash Caps"
    units-per-em="1000"
    panose-1="2 0 0 0 0 0 0 0 0 0"
    ascent="850"
    descent="-400"
    alphabetic="0" />
<glyph unicode=" " glyph-name="space" horiz-adv-x="200" />
<glyph unicode="!" glyph-name="exclam" horiz-adv-x="202" d="M164 179Q152 179 152 198Q152 226 175 288T238 438T279 529Q282 538 305 584T331 641Q333 644 330 644T322 647T314 655Q314 658 319 661T331 666T347 670T364 671Q370 671 375 671T385 668T392
664T395 657Q395 654 393 650Q371 624 283 444T195 222Q195 217 198 212T202 203Q202 199 198 194T189 186T177 181T164 179ZM136 76Q141 76 144 73V72Q142 64 139 49T133 23T130 8Q130 1 125 -5T111 -14T96 -17Q76 -17 76 25Q76 43 98 59T136 76Z" />
<glyph unicode="&quot;" glyph-name="quotedbl" horiz-adv-x="406" d="M381 639Q388 617 388 606Q388 598 384 591T379 581V580Q371 557 360 535T336 496T310 464T283 438T259 420T238 408T225 404Q220 406 220 409Q239 428 261 454T302 510T321 557Q321 561 320
564T317 569V570Q308 579 308 593Q308 617 325 625Q350 647 367 647Q377 647 381 639ZM251 631Q258 610 258 598Q258 590 254 583T248 573L249 572Q224 498 171 447T94 396Q91 396 90 397T89 401H90Q123 434 157 480T191 549Q191 557 186 562Q184 564 182 567T179
572T178 578T177 584Q177 600 194 617V616Q219 639 237 639Q246 639 251 631Z" />
<glyph unicode="#" glyph-name="numbersign" horiz-adv-x="672" d="M638 407Q644 407 647 407T654 406T659 404T661 399Q661 397 659 395T653 392T646 388T642 386Q588 368 558 368H477Q424 226 422 220H544Q582 220 586 214Q591 205 561 196Q515 182 484 182L407
181Q381 111 377 99Q367 70 356 51T334 32Q323 32 323 50Q323 56 324 63T326 73T327 78Q335 100 365 181L198 180Q192 164 182 136T168 99Q144 32 125 32Q114 32 114 49L119 78Q142 130 161 180H72Q71 180 70 180T67 180T63 180Q33 180 13 185T-7 201Q-7 208 4
212T23 218T35 219H176Q190 255 230 367L146 366Q67 366 67 387Q67 394 77 398T98 404L109 405Q198 405 243 404Q250 422 262 458T282 514Q287 526 288 530T293 541T298 549T304 551Q311 551 311 529Q311 478 298 445L282 403Q309 403 363 403T445 402Q466 459
491 515Q506 548 514 550Q524 541 519 502T507 445L491 403Q511 403 538 404T591 406T638 407ZM268 367Q215 225 213 219H379Q407 301 431 368L268 367Z" />
<glyph unicode="$" glyph-name="dollar" horiz-adv-x="572" d="M41 39Q41 81 69 81Q71 81 71 76T73 63T77 49Q92 16 152 16Q179 107 233 249Q204 260 189 267T153 287T123 318T114 359Q115 419 180 465T333 522Q374 629 383 635Q390 637 394 637Q398 637 401 634T404
626T400 611Q391 592 364 524H373Q415 524 430 506T446 457Q446 454 446 450T445 442Q443 433 435 421T418 409Q413 409 413 414Q413 416 413 420T415 427T416 436T417 445Q417 493 352 495Q300 361 268 273Q271 272 277 270Q300 261 311 257T341 243T367 225T383
204T390 176Q390 171 389 165T386 151Q370 97 311 53T174 -4Q151 -83 147 -116Q146 -124 146 -130Q146 -145 150 -153T161 -161Q164 -161 162 -168Q160 -175 153 -181T139 -187Q128 -187 124 -173T120 -139Q120 -92 145 -7Q136 -8 117 -8Q75 -7 58 6T41 39ZM340
124Q345 141 345 155Q345 186 323 204T256 240Q207 105 180 17Q232 22 279 52T340 124ZM245 282Q245 283 250 295L323 494Q297 492 269 483T214 459T170 423T153 376Q153 342 177 321T245 282Z" />
<glyph unicode="%" glyph-name="percent" horiz-adv-x="596" d="M553 601Q559 601 566 597T573 585Q573 577 565 569Q448 433 301 236T127 -33Q126 -37 125 -40T123 -47T122 -54T122 -61Q122 -77 131 -82Q136 -84 131 -89Q124 -98 113 -98Q98 -98 98 -73Q98 -44
117 10Q139 69 284 269T515 565Q473 545 410 527T310 507L311 502Q311 492 303 475T281 437T250 395T213 357T175 329T139 318H126Q104 318 93 338T81 377Q81 428 155 520T275 612Q291 612 301 606T315 589T319 565Q319 563 319 561T319 556T318 551T318 546T317
541T315 536Q315 535 317 535T323 534Q326 534 330 534T338 535T344 535T349 536Q434 547 548 599Q552 601 553 601ZM485 148Q485 147 487 147T491 146T495 145T498 143T499 138Q499 136 498 133T492 126T480 120Q481 118 481 115Q481 95 453 51T382 -32T309 -70H296Q274
-70 263 -50T251 -11Q251 40 325 132T445 224Q461 224 471 218T485 201T489 178Q489 171 488 164T485 148ZM290 505Q283 509 275 518T261 536L256 544Q238 544 205 512T147 437T121 371Q121 343 141 343Q177 343 233 409T290 505ZM460 117Q453 121 445 131T431
148L426 156Q412 156 389 136T345 89T307 31T291 -17Q291 -44 311 -44Q347 -44 403 22T460 117Z" />
<glyph unicode="&amp;" glyph-name="ampersand" horiz-adv-x="862" d="M489 276Q474 276 461 274T435 268T414 258T400 242T394 220Q394 214 395 207T399 193Q400 189 400 186Q399 180 395 179Q391 179 386 183T376 197T371 217Q371 265 414 287T514 310Q543 310
574 304T646 287T704 273Q708 272 711 272T720 270T730 268T740 266T751 265T761 264T771 263Q779 263 784 264T794 267Q804 271 810 271Q814 271 815 270T817 266Q817 261 810 253Q796 237 750 237Q732 237 673 243Q656 245 637 250T600 262T576 271Q597 261 612
239T627 189Q627 130 550 69T371 -15Q298 -31 237 -31Q142 -31 92 5T42 95Q42 123 55 151T92 206T156 257T243 297Q114 308 114 387Q114 446 157 495T266 573T404 617T543 633Q573 633 599 630T647 619T685 601T709 576T718 543Q718 512 693 475Q666 436 605 412T503
388Q495 388 494 393Q497 401 507 403Q534 403 583 430T645 488Q650 501 652 512T655 534Q655 573 621 593T526 613Q474 613 414 599T296 558T200 486T162 387Q162 357 196 342T280 327Q327 327 358 339Q365 342 372 342Q375 342 378 341T383 339T386 337T389 333T390
329Q390 319 374 310T325 298Q256 279 205 246T130 177T106 103Q106 56 148 26T270 -5Q318 -5 376 7Q441 21 489 53T559 121T581 194Q581 230 557 253T489 276Z" />
<glyph unicode="&apos;" glyph-name="quotesingle" horiz-adv-x="209" d="M284 572Q295 572 301 559T307 532Q307 515 296 505Q290 487 282 470T264 438T245 410T224 386T203 366T184 350T166 339T152 332T142 329Q139 329 138 330T137 334V335Q143 341 149 347T163
362T177 380T192 398T206 417T219 436T229 454T235 469T238 483Q238 490 233 495Q231 497 229 500T226 505T225 511T224 517Q224 533 241 550H242Q267 572 284 572Z" />
<glyph unicode="(" glyph-name="parenleft" horiz-adv-x="268" d="M435 678Q439 677 441 676T445 674T447 670T448 666Q448 656 433 644T407 631Q341 630 280 602T175 530T99 437T51 339Q13 226 13 122Q13 57 31 14T88 -40Q92 -40 95 -41T101 -43T106 -45T109
-48T111 -51T112 -54Q112 -57 110 -59T105 -63T96 -64Q90 -64 83 -62Q35 -53 9 5T-18 151Q-18 246 12 345Q29 402 66 459T155 566T281 647T434 678H435Z" />
<glyph unicode=")" glyph-name="parenright" horiz-adv-x="397" d="M207 666Q207 667 208 668T210 670T214 672T218 673T223 674T228 674T234 674T239 674Q327 674 366 626T406 500Q406 414 366 318Q299 158 190 51T-23 -56H-24Q-31 -53 -31 -45Q-31 -32 -16 -15T13
3Q93 4 179 102T329 333H330Q377 430 377 511Q377 572 344 609T238 646Q233 646 229 646Q224 646 216 653T207 666Z" />
<glyph unicode="*" glyph-name="asterisk" horiz-adv-x="203" d="M167 656Q173 656 177 652T182 642Q182 621 122 599Q181 581 181 559Q181 552 177 548T166 544Q146 544 115 577Q123 548 123 533Q123 508 104 508Q83 508 83 536Q83 551 90 577Q58 545 38 545Q34
545 30 546T24 552T21 561Q21 583 81 598Q67 603 62 605T45 614T27 626T21 640Q21 647 26 650T37 654Q59 654 90 618Q89 623 88 627T86 637T85 648T84 659Q84 672 88 680T103 689Q121 686 121 660Q121 644 114 619Q151 656 167 656Z" />
<glyph unicode="+" glyph-name="plus" horiz-adv-x="379" d="M356 179Q359 177 360 176T363 173T364 171Q364 165 340 162T275 157T215 152Q200 94 161 12Q149 -13 144 -13Q139 -13 139 2Q139 23 143 29Q181 146 178 154Q178 153 85 153Q80 153 76 153T68 153T63
153T61 153Q58 156 58 160Q58 168 66 175T87 183L186 181Q187 184 204 235T225 298Q227 305 237 311T254 318Q257 318 259 317T262 312Q262 278 224 180Q226 180 259 181T312 182Q349 182 356 179Z" />
<glyph unicode="," glyph-name="comma" horiz-adv-x="202" d="M89 20Q89 36 105 52H106Q131 74 148 74Q158 74 162 66Q169 45 169 33Q169 25 165 18T159 8Q146 -32 123 -67T76 -123T34 -156T5 -169Q0 -169 1 -164Q35 -129 69 -84T103 -16Q103 -8 98 -4H97Q89 6 89 20Z" />
<glyph unicode="-" glyph-name="hyphen" horiz-adv-x="289" d="M158 153Q171 153 197 154T244 156Q259 156 259 151Q259 146 247 142Q223 134 167 128T67 122Q56 122 47 122Q46 122 43 122T38 122Q23 122 23 134Q23 144 33 154T53 168Q57 170 61 171T67 173T73
174Q75 174 76 173T78 171T79 168Q79 166 78 163T74 157Q136 153 158 153Z" />
<glyph unicode="." glyph-name="period" horiz-adv-x="247" d="M163 11Q162 6 159 2T151 -6T141 -11T130 -13Q113 -13 113 26Q113 43 136 60T173 77Q176 77 177 75Q175 67 172 52T166 26T163 11Z" />
<glyph unicode="/" glyph-name="slash" horiz-adv-x="604" d="M561 698Q569 698 577 693T585 679T576 660Q441 505 266 271T60 -48Q54 -66 54 -80Q54 -99 65 -105Q70 -107 65 -114Q57 -124 44 -124Q20 -124 20 -92Q20 -59 39 -13T104 105T179 218T275 353Q337
440 402 522T510 651T561 698Z" />
<glyph unicode="0" glyph-name="zero" horiz-adv-x="558" d="M517 518Q491 527 472 527Q469 527 465 527Q493 517 513 497Q560 452 560 382Q560 318 523 248T423 123Q386 90 347 65T271 24T199 1T131 -7Q114 -7 99 -5Q64 0 46 26T28 96Q28 184 94 292Q135 360
210 424T360 522Q347 534 374 538L390 539Q398 539 405 538Q430 546 470 546Q534 546 534 523Q532 512 517 518ZM67 81Q67 45 80 29T124 13Q186 13 254 49T383 139Q431 181 462 229T505 316T516 392Q516 423 508 446T489 479Q448 510 411 518Q331 493 255 420T137
281Q78 190 68 104Q67 92 67 81Z" />
<glyph unicode="1" glyph-name="one" horiz-adv-x="297" d="M134 57Q190 67 256 67Q260 67 262 65T265 58Q265 53 262 50T252 46Q234 46 217 45T181 39T149 31T113 20T82 8T48 -6T15 -19H12Q7 -19 4 -12T0 3Q0 16 7 19Q85 48 93 50Q117 91 195 235T306 439Q251
406 187 383L182 382Q174 382 174 391Q174 393 174 395T177 399T182 402Q237 423 343 504L348 513Q357 528 385 528Q410 528 410 516Q410 513 408 509L134 57Z" />
<glyph unicode="2" glyph-name="two" horiz-adv-x="614" d="M145 57Q131 53 110 37T65 9T19 -4Q1 -4 1 8Q1 19 15 35T48 60Q56 64 69 67T96 74T124 78T149 80Q150 80 152 80T155 80Q344 187 405 235Q464 281 497 322T541 418Q541 420 541 422T542 427T542 432Q542
444 538 453T527 467T509 475T484 478Q471 478 456 476T424 469Q299 437 222 365Q218 362 214 362Q206 362 206 372Q206 378 211 382Q280 440 368 479T537 519Q612 519 612 456T533 312Q485 261 410 206Q325 145 176 71Q213 68 301 39Q385 13 442 13Q516 13 532
50Q535 57 535 64Q535 94 486 110Q475 114 482 120Q486 124 494 122Q561 103 561 60Q561 25 524 4T437 -17Q379 -17 279 19Q272 22 255 28T228 38T202 47T173 54T145 57Z" />
<glyph unicode="3" glyph-name="three" horiz-adv-x="608" d="M457 330Q586 317 586 228Q586 158 525 102T382 19T220 -9Q135 -9 84 18T33 102Q33 163 92 200T220 237Q230 237 230 230Q228 223 218 222Q171 222 128 188T84 103Q84 59 122 36T223 12Q297 12 367
35T487 108T538 225Q538 254 520 273T477 299T419 306Q373 306 333 293Q330 292 327 291T322 290T317 290Q301 290 301 305Q301 314 308 322T326 330Q417 330 484 361Q517 376 536 401T555 454Q555 462 552 469T542 481T524 490T500 493Q485 493 467 489Q382 473
309 424Q306 422 303 422Q297 422 297 432Q297 440 301 449T313 462Q345 478 375 508Q379 512 383 512Q388 512 388 507T384 495L377 488Q471 526 534 526Q609 526 609 466Q609 423 559 382T457 330Z" />
<glyph unicode="4" glyph-name="four" horiz-adv-x="483" d="M232 47L250 50Q249 54 249 59Q249 114 323 226Q259 243 216 243Q156 243 57 206Q54 205 51 205Q43 205 38 212T33 228Q33 233 34 237T38 244T44 249T52 254T60 257T70 259T80 261T90 263T99 265Q230
330 365 408T538 536Q543 541 552 541Q562 541 571 537T581 527L580 524Q562 500 514 438T431 331T367 241Q424 222 468 222Q482 222 497 227T523 246T535 279Q535 283 535 287T533 296Q532 302 535 305T543 306T552 299Q560 285 564 274T568 253Q568 201 464 201Q418
201 354 218Q351 213 337 192T314 155T294 118T277 81T272 53Q332 60 375 60Q379 60 381 58T384 51Q384 46 381 43T371 39Q353 39 336 38T300 32T268 24T232 13T201 1T167 -13T134 -26Q133 -26 133 -26T131 -26Q126 -26 123 -19T119 -4Q119 9 126 12Q203 41 232
47ZM160 273Q192 276 218 276Q261 276 335 252Q344 266 366 299T410 365T453 426L473 451Q367 379 160 273Z" />
<glyph unicode="5" glyph-name="five" horiz-adv-x="613" d="M705 528Q716 528 716 506Q716 490 705 478T677 460T647 452T623 449Q581 449 507 460T390 471Q333 471 303 447Q298 444 294 444Q287 444 284 449T281 463Q281 485 295 493Q331 515 383 515Q431 515
512 492Q590 470 628 470Q645 470 670 482T695 515Q695 521 698 524T705 528ZM172 -29Q103 -29 58 -4T12 57Q12 86 27 109T81 162Q84 164 87 165T93 167Q97 167 100 166T104 161T106 155Q106 146 94 141Q77 135 64 113T50 73Q50 35 85 15T174 -5Q225 -5 284 14T395
68T481 154T516 263Q516 299 484 315T401 332Q363 332 326 325T266 306Q256 301 230 287T188 265Q185 264 183 264Q179 264 177 267T175 275Q175 287 186 293L299 440Q306 450 337 450Q342 450 345 450T351 448T354 445Q354 444 354 443T352 441L242 313Q263 331
317 344T427 358Q493 358 536 337T579 268Q579 196 518 126T362 14T172 -29Z" />
<glyph unicode="6" glyph-name="six" horiz-adv-x="563" d="M315 363Q237 324 155 243T73 90Q75 6 179 6Q209 6 252 15T342 40T421 86T454 152Q454 166 442 176T406 186Q329 186 276 147T209 41Q206 25 195 25Q187 25 187 35Q187 90 221 131T308 191T420 210Q460
210 482 195T505 155Q505 111 469 76T378 22T271 -6T175 -16Q109 -16 76 12T43 93Q43 163 112 249T290 394Q416 463 505 493L490 496Q485 499 486 502Q494 515 563 515Q573 515 581 515Q593 514 603 511T620 504T629 494T633 485Q633 477 624 475Q498 452 315 363Z"
/>
<glyph unicode="7" glyph-name="seven" horiz-adv-x="420" d="M294 547Q334 547 415 529T514 509Q522 515 538 527T558 541Q562 544 569 541T582 531Q592 521 592 513Q592 509 589 507Q384 359 245 220Q236 211 227 201T207 178T188 151T169 123T153 93T139 64T130
36T127 11Q127 8 127 3T128 -5Q128 -7 128 -8T126 -11T122 -12T118 -13Q112 -13 108 -8T104 2T103 17Q103 65 137 124T216 234Q331 364 491 491Q488 491 448 497T377 507T312 510Q239 510 196 492T134 417Q129 401 112 401Q104 401 99 406T93 420L94 429Q94 430
94 432L95 434Q96 436 98 440T102 449T106 458T111 468T116 477T119 486T120 493Q120 498 120 501T121 510T123 518T128 520Q134 516 134 494Q194 547 294 547Z" />
<glyph unicode="8" glyph-name="eight" horiz-adv-x="517" d="M443 535Q481 535 511 523T541 483Q541 464 525 443L597 466Q603 468 606 465T610 456Q610 439 586 434Q481 410 360 353Q406 334 438 315Q500 275 500 224Q500 170 434 114T273 20Q235 5 191 -5T107
-16Q60 -16 31 3T1 61Q1 111 53 167Q145 270 281 341Q256 357 243 371T229 403Q229 411 232 420Q245 455 280 482T359 522T443 535ZM47 56Q47 1 116 1Q170 1 248 32Q299 53 338 75T402 119T439 162T452 203Q452 254 378 291Q316 322 305 328Q280 314 241 286T157
219T79 135T47 56ZM515 478Q515 496 488 503T431 510Q403 510 376 503T329 485T296 457T283 423Q283 401 295 389T335 364Q453 419 497 434Q498 436 500 439T503 445T507 451T510 457T512 464T514 471T515 478Z" />
<glyph unicode="9" glyph-name="nine" horiz-adv-x="374" d="M491 496Q487 496 479 496T466 497Q409 497 345 482T227 442T138 384T103 315Q103 289 131 289Q136 289 141 290Q179 295 241 328Q358 389 477 487Q481 491 492 491Q505 491 516 486T528 473Q528 467
520 460Q515 455 498 441T463 410T427 377Q375 330 331 283T240 174T166 47T138 -77Q138 -82 138 -87Q138 -110 150 -115Q163 -119 155 -126Q150 -129 143 -129Q102 -129 102 -77Q102 -14 148 75T257 244T386 389Q256 300 162 274Q134 266 114 266Q90 266 77 276T64
306Q64 350 97 388T180 452T291 496T404 523T497 532Q502 532 507 532Q513 532 513 524Q513 521 512 518T508 511T503 504T497 498T491 496Z" />
<glyph unicode=":" glyph-name="colon" horiz-adv-x="202" d="M193 361Q197 361 200 358V357Q198 349 195 334T189 308T186 294Q186 283 175 276T151 268Q132 268 132 309Q132 317 136 325T148 339T164 350T180 358T193 361ZM144 88Q144 76 133 70T109 63Q90 63
90 104Q90 122 112 138T150 155Q155 155 157 153H158V152Q156 144 153 129T147 103T144 88Z" />
<glyph unicode=";" glyph-name="semicolon" horiz-adv-x="202" d="M199 191Q199 184 193 178T179 169T164 166Q146 166 146 199Q146 200 146 202T146 206Q146 215 153 225T169 242T189 254T205 259Q210 259 212 256V255Q199 193 199 191ZM89 20Q89 36 105 52H106Q131
74 148 74Q158 74 162 66Q169 45 169 33Q169 25 165 18T159 8Q137 -63 99 -103T37 -144Q28 -144 28 -137V-136Q35 -126 56 -99T90 -51T103 -18Q103 -9 97 -4Q89 6 89 20Z" />
<glyph unicode="&lt;" glyph-name="less" horiz-adv-x="318" d="M85 256Q85 265 109 301T166 381T203 431Q209 442 222 442Q229 442 229 436T189 370T130 283Q132 280 145 264T171 233T196 199T218 168T227 149Q227 136 217 136L209 140Q172 190 88 250Q85 253 85 256Z" />
<glyph unicode="=" glyph-name="equal" horiz-adv-x="399" d="M242 151Q251 151 262 151T281 152T302 153T328 154Q343 154 343 149Q343 144 331 140Q307 132 251 126T151 120Q147 120 144 120T137 120T131 120Q130 120 127 120T122 120Q107 120 107 132Q107 142
117 152T137 166L157 172Q160 172 161 171T163 166Q163 160 158 155Q220 151 242 151ZM246 233Q255 233 266 233T285 234T306 235T332 236Q347 236 347 231Q347 226 335 222Q311 214 255 208T155 202Q149 202 144 202T135 202Q134 202 131 202T126 202Q122 202
119 203T113 207T111 214Q111 224 121 234T141 248L161 254Q164 254 165 253T167 248Q167 242 162 237Q224 233 246 233Z" />
<glyph unicode="&gt;" glyph-name="greater" horiz-adv-x="318" d="M229 315Q229 306 205 270T147 190T110 140Q103 129 91 129Q85 129 85 135T125 201T184 288Q86 404 86 422Q86 435 97 435L105 431Q139 385 226 321Q229 320 229 315Z" />
<glyph unicode="?" glyph-name="question" horiz-adv-x="464" d="M428 657Q487 657 525 631T564 551Q564 531 556 511T536 473T500 433T457 395T403 355T344 316T279 274Q270 268 265 265Q248 254 235 238T217 211T204 181T194 155H193Q190 152 188 150T182 148Q175
148 170 157T164 179Q164 209 188 240Q196 250 230 272T314 326T393 379H392Q439 414 468 459T498 542Q498 576 471 596T389 617Q306 617 244 580T182 483Q182 479 182 475Q184 451 192 441T207 430T214 426Q214 425 214 424T213 421T211 417V416Q202 409 191 409Q177
409 164 418T141 443T132 478Q132 506 151 532Q190 585 271 621T428 657ZM177 73Q175 61 166 36T156 9V8Q151 -10 122 -17H121Q111 -17 108 -10T104 10Q104 13 104 17T104 24Q105 43 129 59T169 76Q172 76 173 76T177 73Z" />
<glyph unicode="@" glyph-name="at" horiz-adv-x="804" d="M452 471H451Q445 471 438 472T422 474T406 475Q402 475 398 475T388 474T376 471Q352 465 299 363T238 198Q237 191 237 186Q237 169 247 169Q262 169 297 205T357 271T392 317Q404 337 415 359T437
402T453 440T459 465Q459 471 455 471Q454 471 454 471T452 471ZM684 483Q690 508 690 532Q690 657 532 657Q472 657 396 638Q491 628 568 589T684 483ZM49 259Q49 162 108 95T272 27Q316 27 365 38T461 69T551 119T627 182T678 257T698 339Q698 367 689 395Q670
344 619 278T508 162T412 113Q397 113 388 122T374 152Q372 190 407 307Q273 122 215 122Q210 122 207 123T200 127T196 132T193 139T192 147T191 158Q191 204 218 283T286 425T356 488Q358 488 359 488L370 496Q379 506 398 506Q413 506 439 499T470 491Q473 491
473 493Q476 493 482 499T496 506Q521 506 521 485Q521 476 518 466T507 439T499 421Q498 418 490 414T481 408Q440 293 427 211Q424 194 424 182Q424 174 425 169T429 159T434 154T442 152Q466 152 515 205T610 327T670 437Q623 524 530 567T323 616Q238 588 166
517T66 361Q57 336 53 310T49 259ZM299 -2Q169 -2 89 78T9 278Q9 329 26 379Q77 530 250 623Q244 623 209 622T157 620Q141 620 138 621Q131 624 133 629T144 638Q186 651 304 651Q311 651 317 651T330 651Q430 679 521 679Q564 679 600 672T666 647T713 600T730
527Q730 491 712 444Q741 392 741 337Q741 272 701 209T598 100T455 26T299 -2Z" />
<glyph unicode="A" glyph-name="A" horiz-adv-x="614" d="M609 72Q609 66 593 56Q512 17 449 -64Q445 -70 440 -70Q430 -70 430 -56Q430 -45 445 -25T473 4Q475 33 477 81T481 178T483 255Q483 267 483 273Q177 270 175 270Q129 199 105 156T58 46T36 -88Q36 -140
60 -166Q69 -175 69 -180Q69 -186 51 -186Q24 -186 12 -148T-1 -75Q-1 9 37 92T141 270Q137 270 132 270T121 270T110 270T98 270T86 269T74 269Q52 269 39 270T26 274Q26 283 34 289T56 297T85 301T117 303Q128 303 139 303T157 302T165 301Q274 448 431 599Q421
642 421 654Q421 674 445 674Q475 674 480 645Q498 663 504 663Q514 663 514 644Q514 641 514 637T513 630Q510 627 502 620T490 608Q517 483 517 301Q518 301 520 301T524 301Q601 301 608 287Q606 282 571 279T517 275V42Q586 79 600 79Q609 79 609 72ZM483 300Q483
343 470 432T441 563Q262 399 197 300H483Z" />
<glyph unicode="B" glyph-name="B" horiz-adv-x="860" d="M315 -61Q315 -79 308 -79Q301 -79 296 -67T289 -44T287 -26Q263 -15 236 3T209 37Q209 43 214 43Q217 43 232 34T264 13T287 -1Q287 109 348 293T476 612Q355 641 270 641Q228 641 190 634T117 610T61
560T40 482Q40 380 137 290Q141 310 147 310Q154 310 164 289T175 259Q175 246 157 246Q120 246 83 288T24 384T2 474Q2 529 26 568T93 628T180 657T276 666Q368 666 489 640Q503 673 519 687Q520 687 521 687Q525 687 530 688T541 690T551 692Q579 692 579 680Q579
679 579 678T578 676Q567 661 549 627Q586 617 624 603T705 565T774 509T801 438Q801 403 779 374T719 324T649 290T581 268Q617 266 659 257T746 231T820 183T850 113Q850 75 815 38Q714 -68 528 -68Q405 -68 314 -35Q314 -39 314 -47T315 -61ZM754 436Q754 467
730 495T668 544T597 577T534 599H533Q452 458 389 265Q405 270 433 272T471 277Q507 283 546 293T637 323T721 371T754 436ZM803 64T803 104T771 173T689 217T595 237T515 244Q504 244 473 241T414 234T379 231Q378 231 378 231Q327 73 316 -11Q402 -45 529 -45Q695
-45 761 22Q803 64 803 104Z" />
<glyph unicode="C" glyph-name="C" horiz-adv-x="753" d="M740 139Q744 139 744 130T740 108T729 85T718 70Q656 7 551 -34T350 -75Q192 -75 109 1T26 210Q26 221 27 233Q33 345 110 448T301 612T525 673T674 623Q683 650 683 662Q683 664 681 670T680 679T688
683Q696 683 704 679T712 669Q712 657 709 645T700 616T692 592Q701 568 701 537Q701 469 671 469Q654 469 647 476T640 498Q640 507 641 515T644 533T649 548T654 565T660 581Q643 609 607 627T525 645Q419 645 318 588T150 433T78 229Q78 221 78 213Q78 96 159
24T362 -49Q415 -49 463 -39T542 -16T606 18T653 54T689 89T713 113Q716 118 726 128T740 139Z" />
<glyph unicode="D" glyph-name="D" horiz-adv-x="917" d="M851 171Q803 105 724 56T568 -15T423 -37Q365 -37 334 -20Q303 -3 295 23Q295 24 295 25T293 28Q289 23 279 7T261 -18Q246 -34 236 -34Q220 -34 220 6Q220 281 360 573Q354 572 318 565T255 551Q229
545 192 532T107 499T26 450T-7 393Q-7 377 6 360T34 334Q51 318 55 312H51Q54 304 44 304Q42 304 39 305T31 308T23 311Q-12 333 -23 345Q-53 376 -53 406Q-53 440 -15 472T78 525T196 565T305 591T376 603Q396 647 414 667H416Q444 674 468 674Q479 674 479 670Q455
646 437 607Q439 607 442 607Q529 607 604 592T732 549T824 484T882 405T901 316Q901 241 851 171ZM264 34Q265 35 273 44T287 58T298 63Q300 63 302 62T305 59T307 55T309 50Q310 48 314 39T321 26T328 15T338 5T351 -2Q376 -11 411 -11Q471 -11 546 14T688 81T790
168Q864 263 864 345Q864 418 806 473T657 554T460 580Q441 580 422 579Q289 347 265 38Q265 35 264 34Z" />
<glyph unicode="E" glyph-name="E" horiz-adv-x="935" d="M441 291Q438 291 435 291T429 291T422 291T416 291T410 291T404 292T400 294T396 296T393 300T392 305Q392 313 399 321T414 330Q423 330 433 330Q447 330 474 330T514 329Q526 363 549 432T584 537Q328
612 195 612Q166 612 138 608T79 594T28 562T8 509Q8 462 50 412T144 329T237 266T280 228Q280 225 276 225Q260 225 213 250Q167 274 128 302T52 368T-4 451T-25 548Q-25 659 147 659Q318 659 593 563Q594 567 597 579T604 599T612 617T624 632T639 637Q658 637
674 617T690 578Q690 568 684 568Q677 568 666 577T653 586Q645 586 638 573T629 550Q749 509 873 509Q894 509 912 514T940 524T952 529Q965 529 965 520Q965 495 927 484T857 473Q806 473 737 487T621 522Q616 506 591 437T554 329Q561 329 630 328T724 326Q742
326 753 322T765 311Q765 300 730 300Q701 300 624 297T543 294Q525 229 488 152T412 31Q616 -68 750 -68Q801 -68 843 -40T885 38Q885 61 869 84T853 114Q853 134 869 134Q883 134 896 108T910 45Q910 -26 855 -65T725 -105Q676 -105 611 -86T510 -52T400 -2Q387
4 380 7Q292 -75 161 -75Q111 -75 72 -56T33 9T69 83T153 112Q236 112 382 45Q431 109 503 292Q498 292 476 292T441 291ZM359 18Q316 38 247 55T134 72Q67 72 67 31Q67 6 94 -13T152 -40T208 -48Q293 -48 359 18Z" />
<glyph unicode="F" glyph-name="F" horiz-adv-x="735" d="M60 90Q60 108 63 123T73 138Q80 138 83 110Q83 96 89 71T109 14T143 -47T195 -95T264 -115Q271 -115 278 -114Q310 -111 341 -90T399 -30T446 44T487 132T518 211T541 280Q540 280 533 280T514 280T490
280Q423 280 405 283Q396 288 396 301T405 315L458 317Q510 319 552 319Q564 356 588 432T622 538Q509 587 416 613T222 640Q144 640 96 617T47 550Q47 493 107 404T225 274Q245 260 275 243T315 220Q323 215 321 211T309 208Q205 231 115 332T15 529Q14 540 14
551Q14 687 202 687Q257 687 317 675T411 651T524 608T631 566Q657 641 664 642Q666 642 668 642T671 643T674 643T678 644Q684 644 689 642T697 638T705 631T710 624T717 614T723 604Q724 601 725 598T727 592T728 587T729 581Q729 577 727 574T722 571Q714 571
699 585Q695 591 691 591Q686 591 680 583T671 565T667 552Q730 530 779 517T858 503Q871 503 880 506T894 515Q900 523 911 523Q922 523 922 515Q922 505 908 491Q883 466 836 466Q767 466 657 518Q596 333 592 319Q741 319 763 309Q770 304 767 300T755 295Q752
295 726 293T659 287T581 282Q537 121 506 55Q441 -82 329 -124Q303 -134 268 -134Q218 -134 171 -113T99 -51Q79 -17 70 20T60 90Z" />
<glyph unicode="G" glyph-name="G" horiz-adv-x="848" d="M818 284Q853 284 853 275Q853 265 818 259T758 253Q688 -5 659 -67Q585 -224 499 -291T328 -358Q239 -358 189 -296Q170 -273 170 -252Q171 -242 176 -241Q184 -241 195 -256Q212 -279 224 -292T261 -318T313
-331Q384 -331 449 -282T560 -157T637 -4T684 145Q642 64 525 9T289 -46Q163 -46 89 26T15 206Q15 269 37 328T97 434T188 521T299 587T423 629T551 644Q565 644 579 643Q651 639 696 621T754 584Q760 574 760 566Q760 562 758 558T754 551T746 543T739 535Q736
531 732 525T725 512T717 501T710 492T703 488Q701 488 700 489T697 492V493Q697 500 704 514T711 539Q711 554 698 572Q667 615 569 624Q557 625 543 625Q518 625 490 622T427 611T358 590T287 557T220 511T160 449T111 370Q71 286 71 208Q71 110 143 49T307 -13Q456
-13 550 50T709 248Q624 243 437 243Q420 243 410 253T399 277Q399 290 419 300T455 310Q456 310 457 310Q463 310 464 306Q464 305 463 304Q458 298 457 294T460 288Q471 288 524 287T649 285T769 284Q801 284 818 284Z" />
<glyph unicode="H" glyph-name="H" horiz-adv-x="959" d="M35 89Q35 100 36 110T41 126T48 133Q56 133 58 105Q58 91 64 66T84 9T118 -52T170 -100T240 -120Q247 -120 253 -119Q300 -114 345 -71T423 33T474 136T501 207Q500 207 495 207T484 206Q469 206 452
210Q443 214 443 228T452 242L462 244Q472 246 514 246Q526 283 561 393T607 533Q586 542 483 577T349 622Q308 634 270 640T198 647Q127 647 86 620T44 537Q44 475 100 387Q135 333 171 300T252 242T300 215Q308 210 306 205T294 203Q243 220 170 274T58 387Q-7
485 -7 556Q-7 621 46 654T187 688Q285 688 395 649Q409 644 484 613T623 560T717 537Q725 537 730 539T737 544Q743 552 754 552Q765 552 765 544Q765 539 762 534T751 520Q737 506 693 506Q656 506 642 513Q635 493 617 437T581 330T554 246Q734 246 851 243L931
473Q930 476 929 479T928 487T927 494Q927 504 930 516T936 535T944 550T948 558Q953 572 968 579T998 587Q1005 587 1010 586T1018 582T1021 576Q1021 572 1016 567Q968 450 897 241Q952 239 964 236Q970 233 970 230Q970 226 961 224T936 221T911 220T890 220Q829
33 818 -69Q824 -69 853 -46T893 -8Q904 2 912 2Q917 2 917 -4Q917 -18 891 -43Q824 -108 797 -108Q769 -108 769 -66Q769 -36 783 16T816 129T843 218Q707 215 541 209Q468 -68 304 -129Q278 -139 243 -139Q193 -139 146 -118T74 -56Q35 9 35 89Z" />
<glyph unicode="I" glyph-name="I" horiz-adv-x="473" d="M414 587Q411 587 359 597T282 607Q254 607 233 600T200 580T188 548Q188 510 235 463Q238 460 240 457T244 450T246 444Q246 442 246 442T243 441Q236 441 216 459Q162 509 162 555Q162 594 199 618T298
642Q311 642 325 641T355 637Q360 636 400 628T480 614T545 608Q575 608 582 617Q585 620 588 621Q594 621 594 613Q594 610 593 606T587 597T577 586Q569 579 557 576T528 572Q508 572 453 581Q451 576 429 498T391 372T347 250T285 116T213 15Q309 -28 388 -28Q448
-28 448 0Q448 8 444 17T436 33T432 43Q432 47 434 50T439 53Q447 50 453 35T459 2Q459 -27 441 -47T383 -67Q345 -67 287 -51T188 -17Q142 -58 79 -58Q49 -58 29 -47T9 -14Q9 10 32 32T89 54Q123 54 185 27Q227 78 267 164T330 319T380 477T414 587ZM162 -5Q147
2 115 12T59 22Q25 22 25 -2Q25 -21 40 -32T78 -44Q123 -43 162 -5Z" />
<glyph unicode="J" glyph-name="J" horiz-adv-x="604" d="M623 579Q600 581 500 597T358 614Q267 614 267 569Q267 538 312 491T438 393Q444 390 441 386Q439 383 433 384Q350 404 300 455T250 559Q250 573 253 585T264 609T284 629T312 644T349 654T395 658Q410
658 425 657T459 653T496 646Q499 645 534 637T595 624T657 613T718 608Q738 608 751 611T771 622Q772 624 773 625T776 627T779 628T782 629Q784 629 785 628T788 625T789 620Q789 606 768 584Q752 568 712 568Q687 568 662 573Q659 564 649 531Q419 -257 191
-257Q113 -257 44 -159Q5 -104 5 -18Q5 0 8 15T18 30Q25 30 28 4Q28 3 28 2Q28 -6 30 -19T37 -50T50 -87T69 -126T93 -162T125 -193T163 -215T209 -223Q213 -223 216 -223T223 -222Q258 -219 296 -181T370 -78T438 58T502 216T554 365T597 496T623 579Z" />
<glyph unicode="K" glyph-name="K" horiz-adv-x="950" d="M1005 596Q1008 596 1010 595T1014 593T1017 589T1018 584Q1018 558 942 488T763 347Q655 273 555 233L536 180Q555 162 602 116T679 44T748 -16T819 -67T875 -86H878Q902 -86 912 -55T923 18Q923 28 922
42T920 64Q920 70 921 73T926 76Q931 76 936 69T941 54Q941 50 941 46T942 39T942 31T942 24Q942 -50 916 -84T856 -118Q804 -118 711 -39T523 148Q429 -86 314 -129Q288 -139 253 -139Q203 -139 156 -118T84 -56Q45 9 45 89Q45 100 46 110T51 126T58 133Q66 133
68 105Q68 91 74 66T94 9T128 -52T180 -100T250 -120Q253 -120 256 -120T263 -119Q388 -108 496 178Q492 182 480 193T462 211T447 227T434 243T430 254Q430 259 439 259Q453 246 478 246Q497 246 522 253Q542 314 570 410T607 533Q403 620 346 631Q281 644 218
644Q136 644 84 620T31 548Q31 539 33 530T39 509Q65 444 95 395T156 316T210 269T262 237T300 215Q308 210 306 206T294 203Q193 225 102 330T0 524Q-2 537 -2 549Q-2 587 14 614T58 655T118 676T189 682Q246 682 304 671T395 649Q409 644 484 613T623 560T717
537Q725 537 730 539T737 544Q743 552 754 552Q765 552 765 544Q765 539 762 534T751 520Q737 506 693 506Q656 506 642 513Q632 483 608 400T567 269Q638 297 734 359Q775 386 818 421T890 481T943 531T972 559L969 566Q969 573 975 579T989 591T1005 596Z" />
<glyph unicode="L" glyph-name="L" horiz-adv-x="798" d="M689 672Q725 672 725 627Q725 589 717 545T688 453T639 364T565 295T465 260Q447 203 413 131T350 27Q526 -62 640 -62Q684 -62 719 -37T755 33Q755 55 742 76T729 102Q729 109 732 115T742 120Q754 115
765 86T777 40Q777 -24 731 -60T618 -96Q604 -96 589 -94T560 -90T528 -82T498 -73T466 -61T436 -49T405 -35T377 -22T348 -8T322 5Q247 -69 135 -69Q91 -69 58 -52T25 6Q25 47 55 73T128 100Q195 100 324 40Q367 99 428 262Q360 262 321 296T281 395Q281 421 288
441T311 461Q316 461 316 452Q316 447 314 432T312 410Q312 357 342 318T434 279Q437 287 451 328T481 413T515 504T552 579T584 609Q598 609 614 602T630 582Q630 573 622 573Q620 573 618 577T613 581Q597 581 567 518T505 369T472 280Q536 294 586 350T660 475T684
613Q684 624 683 634Q682 644 675 649T668 659Q668 672 689 672ZM304 15Q279 27 217 45T111 63Q55 62 54 27Q54 -8 89 -26T175 -45Q247 -45 304 15Z" />
<glyph unicode="M" glyph-name="M" horiz-adv-x="963" d="M904 597Q933 597 933 464Q933 403 924 340T898 216T856 97T802 -14Q857 29 917 52Q926 56 932 57T943 59Q947 58 947 57Q947 49 920 31Q903 20 884 4T850 -26T819 -54T790 -79T764 -95T741 -102Q736 -102
730 -100T718 -92T713 -81Q713 -68 742 -49T773 -27Q799 35 815 79T849 183T877 301T887 416Q887 459 881 501Q874 491 851 450T796 358T734 263Q555 9 470 8Q433 8 416 54T399 181Q399 342 448 549Q401 485 351 403T243 213T149 -8T112 -208V-209Q109 -224 103
-224Q94 -224 86 -201T78 -156Q78 -88 126 31T237 262T356 462T434 576Q429 577 413 581T382 588T344 597T301 605T255 610T207 613Q165 613 129 599T70 558T48 499Q48 459 87 417T210 336Q228 328 230 319Q230 318 229 317T224 316Q219 316 213 317T196 321Q123
339 76 392T23 496Q23 498 23 500T22 505T22 510T22 515T22 519Q22 651 212 651Q327 651 483 606Q501 601 501 579Q501 568 493 530Q446 310 446 187Q446 159 448 137T456 99T472 73T496 64Q561 64 710 275Q765 354 811 436T870 552Q888 597 904 597Z" />
<glyph unicode="N" glyph-name="N" horiz-adv-x="966" d="M1020 451Q1026 446 1026 443Q1024 439 1017 438Q1009 438 1002 442Q978 453 941 502Q929 306 895 181Q863 63 832 9T771 -46Q740 -46 710 15T659 165T626 349T613 518Q613 528 619 535T633 543Q641 543
646 535T652 511Q658 431 667 354T690 190T726 50T773 -3Q819 -3 875 197Q885 231 892 276T904 366T911 449T913 517Q913 524 913 529T913 540Q903 555 898 563T887 584T878 610T875 638Q875 642 875 646T876 653T878 660T880 665T883 669T886 672T890 673Q894
673 898 670T907 661Q918 648 944 580Q989 462 1020 451ZM16 111Q16 129 20 143T29 158Q37 158 39 131Q39 119 43 100T56 55T80 3T113 -44T160 -80T219 -94Q223 -94 226 -94T233 -93Q274 -89 315 -46T389 57T455 201T509 349T553 486T582 578Q562 584 495 599T406
617Q355 625 317 625Q293 625 275 622T246 612T229 597T223 576Q223 542 268 494T393 395Q398 392 397 389T388 386Q305 406 255 456T205 560Q205 604 242 632T352 660Q369 660 388 658T429 653T469 645T511 635T548 626T583 617T610 609Q617 607 624 605T637 599T648
593T656 587T659 581Q659 577 651 575T624 572H617Q614 563 593 494T551 363T501 223T448 102Q391 -5 328 -66T201 -128Q123 -128 54 -30Q16 24 16 111Z" />
<glyph unicode="O" glyph-name="O" horiz-adv-x="796" d="M496 684Q574 684 574 645Q574 623 547 592Q788 560 788 343Q788 270 759 204T680 90T567 5T435 -49T298 -67Q238 -67 187 -52T95 -5T31 77T8 193Q8 364 162 525Q111 507 90 495Q85 493 81 491T73 487T66
484T59 482T54 481T50 480T46 479Q42 480 41 482Q41 493 82 514Q142 546 205 565Q320 663 457 681Q459 681 461 681T465 682T469 682T474 683T478 683T482 683T487 683T491 684T496 684ZM518 595Q531 619 531 632Q531 653 493 653Q489 653 485 653T477 653T467
652Q367 642 284 585Q354 599 433 599Q453 599 474 598T518 595ZM61 206Q61 156 74 115T111 45T167 -3T238 -32T319 -42Q377 -42 437 -25T551 25T649 104T717 211T743 342Q743 432 685 496T534 571Q527 562 509 543T450 491T371 438Q325 416 315 416Q312 416 312
417Q312 427 367 463Q445 515 503 573Q480 574 455 574Q398 574 342 567T235 547Q147 467 104 379T61 206Z" />
<glyph unicode="P" glyph-name="P" horiz-adv-x="854" d="M459 259Q462 259 468 258T479 257Q501 317 522 382T562 507T584 579Q592 600 614 600Q632 600 632 584Q632 582 632 581T631 577Q588 418 524 257Q590 261 645 270T742 293T813 323T863 359T891 397T900
438Q900 512 803 571T565 630Q476 630 397 610T268 552T218 469Q218 415 292 359Q310 345 310 341Q310 338 305 338Q298 338 285 343T265 353Q171 422 171 486Q171 524 204 556T294 610T422 644T572 656Q664 656 737 640T856 595T925 533T949 459Q949 417 921 377T841
305T704 253T518 233Q516 233 514 233Q481 154 447 89T372 -35T286 -126T195 -159Q118 -159 46 -59Q7 -4 7 82Q7 101 10 115T20 130Q28 130 30 102Q30 88 36 63T56 6T90 -55T142 -103T212 -123Q219 -123 225 -122Q341 -111 471 234Q463 237 457 242T451 253Q451
259 459 259Z" />
<glyph unicode="Q" glyph-name="Q" horiz-adv-x="796" d="M496 684Q574 684 574 645Q574 623 547 592Q788 560 788 343Q788 262 752 191T659 73T533 -9T400 -59T282 -75Q160 -75 84 0T8 194Q8 364 162 525Q111 507 90 495Q85 493 81 491T73 487T66 484T59 482T54
481T50 480T46 479Q42 480 41 482Q41 493 82 514Q142 546 205 565Q320 663 457 681Q459 681 461 681T465 682T469 682T474 683T478 683T482 683T487 683T491 684T496 684ZM755 -138Q755 -201 708 -237T596 -274Q547 -274 486 -254T374 -207T258 -154T142 -118Q123
-114 103 -114Q68 -114 45 -126T22 -160Q22 -171 18 -185T8 -200Q3 -200 3 -171Q3 -129 31 -99T100 -68Q152 -68 221 -95T348 -154T480 -213T617 -240Q662 -240 697 -215T733 -145Q733 -134 732 -126T729 -111T726 -101T721 -91T716 -82Q710 -67 715 -59Q717 -57
720 -58Q732 -63 743 -92T755 -138ZM518 595Q531 619 531 632Q531 653 493 653Q489 653 485 653T477 653T467 652Q367 642 284 585Q354 599 433 599Q453 599 474 598T518 595ZM61 206Q61 133 90 76T172 -15T296 -48Q338 -48 385 -38T483 -9T580 42T662 116T721
216T743 342Q743 432 685 496T534 571Q527 562 509 543T450 491T371 438Q325 416 315 416Q312 416 312 417Q312 427 367 463Q445 515 503 573Q480 574 455 574Q398 574 342 567T235 547Q147 467 104 379T61 206Z" />
<glyph unicode="R" glyph-name="R" horiz-adv-x="951" d="M923 18Q923 28 922 42T920 64Q920 70 921 73T926 76Q931 76 936 69T941 54Q941 50 941 46T942 39T942 31T942 24Q942 -50 916 -84T856 -118Q746 -118 496 191Q464 119 431 60T360 -51T279 -131T195 -160Q117
-160 46 -59Q7 -4 7 82Q7 101 10 115T20 130Q28 130 30 102Q30 88 36 63T56 6T90 -55T142 -103T212 -123Q219 -123 225 -122Q341 -111 468 226L451 247Q448 251 448 261Q448 272 451 282T460 292Q464 292 467 288L484 268Q512 346 546 458T584 579Q592 600 614
600Q632 600 632 584Q632 582 632 581T631 577Q588 418 524 257Q590 261 645 270T742 293T813 323T863 359T891 397T900 438Q900 512 803 571T565 630Q476 630 397 610T268 552T218 469Q218 415 292 359Q310 345 310 341Q310 338 305 338Q298 338 285 343T265 353Q171
422 171 486Q171 524 204 556T294 610T422 644T572 656Q664 656 737 640T856 595T925 533T949 459Q949 417 921 377T841 305T704 253T518 233Q516 233 514 233V232Q767 -76 875 -86H878Q902 -86 912 -55T923 18Z" />
<glyph unicode="S" glyph-name="S" horiz-adv-x="460" d="M157 -54Q204 -54 254 -43T344 -7T384 50Q384 55 383 59Q378 92 335 114T236 151T124 186T30 243T-9 338Q-9 411 31 473T136 577T273 646T419 682Q462 688 500 688Q671 688 671 575Q671 516 615 461T484
406Q477 406 474 408T470 414Q470 416 471 418T474 422T480 425T487 426Q538 426 584 464T630 560Q630 589 618 609T583 641T536 658T480 663Q465 663 451 662T422 659Q327 647 244 611T103 509T46 363Q46 315 73 281T140 230T229 199T319 174T393 143T429 92L430
80Q430 39 386 0T269 -63T121 -88Q19 -88 19 -14Q19 26 46 26Q49 26 51 20T56 3T63 -15Q70 -27 79 -35T101 -47T126 -52T157 -54Z" />
<glyph unicode="T" glyph-name="T" horiz-adv-x="700" d="M60 90Q60 108 63 123T73 138Q80 138 83 110Q83 96 89 71T109 14T143 -47T195 -95T264 -115Q271 -115 278 -114Q313 -111 347 -83T411 -6T467 96T518 219T559 339T595 452T622 538Q510 587 419 613T229
640Q48 640 48 535Q48 502 63 465T103 395T150 337T195 294Q224 268 266 246T315 220Q323 215 321 211T309 208Q227 226 168 277Q110 327 63 399T16 543Q16 608 64 647T204 687Q259 687 319 675T412 651T525 608T631 566Q657 641 664 642Q666 642 668 642T671 643T674
643T678 644Q684 644 689 642T697 638T705 631T710 624T717 614T723 604Q724 601 725 598T727 592T728 587T729 581Q729 577 727 574T722 571Q714 571 699 585Q695 591 691 591Q686 591 680 583T671 565T667 552Q723 528 771 515T852 501Q884 501 894 515Q900 523
911 523Q922 523 922 515Q922 505 908 491Q884 466 840 466Q774 466 658 522Q646 487 625 413T588 283T543 155T487 32T418 -63T329 -124Q303 -134 268 -134Q218 -134 171 -113T99 -51Q79 -17 70 20T60 90Z" />
<glyph unicode="U" glyph-name="U" horiz-adv-x="898" d="M363 -38Q343 -38 332 -25T321 12Q321 27 324 45T336 87T349 127T368 173T386 213T406 255T421 287Q422 290 433 313T452 351T472 393T493 443T510 490T523 538T528 578Q528 606 513 615T460 625Q369 625
275 572T119 431T56 249Q56 206 74 179T131 152Q173 152 209 168T265 203T299 238T317 254T321 245Q311 202 258 165T132 128Q84 128 49 162T14 260Q14 344 59 419T175 544T324 621T475 650Q575 650 575 574Q575 546 563 506T536 435T484 324Q474 303 469 292Q467
289 459 272T444 239T426 200T407 157T391 114T379 73T375 41Q375 10 398 10Q406 10 418 14T447 29T485 55Q584 130 726 322T896 597Q911 616 933 616Q944 616 951 607T958 575Q939 546 879 390T799 165Q769 59 769 24Q769 -11 794 -11Q816 -11 866 30Q878 41 883
41Q887 41 887 36T884 24T878 15Q797 -58 748 -58Q719 -58 719 -15Q719 32 764 183Q810 333 866 465Q795 349 674 214T474 17Q439 -10 411 -24T363 -38Z" />
<glyph unicode="V" glyph-name="V" horiz-adv-x="705" d="M985 667L984 666Q981 665 972 664T953 660T925 647T885 617Q805 546 706 406T545 160T492 57Q496 56 496 51Q496 32 466 2Q449 -15 438 -16Q426 -16 416 -10T405 8Q405 13 407 18T414 29Q425 42 439 136T453
285Q453 343 450 389T434 489T400 577T339 636T247 660Q164 660 111 613T58 473Q58 411 89 372T165 332Q171 332 175 331T182 329T184 325Q184 323 179 321T165 319Q97 319 55 365T12 482Q12 577 81 630T256 683Q497 683 497 340Q497 309 496 278T491 209T485 154T478
96Q480 99 524 172T603 300T690 430T792 565T883 656Q927 690 959 690Q966 690 972 689T981 684T987 678T989 673Q989 671 988 670T985 667Z" />
<glyph unicode="W" glyph-name="W" horiz-adv-x="1173" d="M891 484Q895 484 900 480T910 469T915 453Q915 432 906 400Q834 159 834 58Q834 -20 875 -20Q911 -20 968 30T1079 155T1171 331T1210 520Q1210 614 1158 633Q1143 638 1143 646Q1143 648 1145 650T1150
654T1159 655Q1200 655 1228 622T1257 525Q1257 436 1211 329T1101 137T968 -5T852 -63Q790 -63 790 49Q790 87 797 139T813 231T833 323T848 392Q774 333 692 231T569 64T495 -57V-56Q472 -99 450 -99Q440 -99 435 -91T429 -67Q429 -54 433 -40Q436 -30 480 102T554
356T585 555Q585 612 560 636T474 661Q436 661 384 649T275 611T169 551T88 466T56 359Q56 299 104 258T215 217Q270 217 294 234Q296 236 298 237T303 238T307 239Q313 239 313 234Q313 227 299 219Q270 202 209 202Q200 202 188 202Q121 204 69 249T16 362Q16
429 62 491T178 594T326 659T472 684Q643 684 643 533Q643 502 638 468T618 388T596 321T567 240T541 173Q508 81 502 30Q713 296 810 405Q818 414 830 428Q860 462 871 473T891 484Z" />
<glyph unicode="X" glyph-name="X" horiz-adv-x="730" d="M728 661Q743 661 743 632Q743 577 677 522Q532 402 429 312Q550 42 634 11Q637 10 639 10T644 9Q659 9 673 26T695 62T707 100Q710 115 715 115Q718 115 720 110T723 99Q723 69 709 43T675 3T638 -19T613
-27Q610 -27 607 -27T602 -26Q520 -3 394 281L273 173Q207 113 130 26T36 -94Q27 -111 16 -111Q12 -111 10 -108T7 -99Q7 -97 7 -94T10 -87Q70 28 247 192Q297 239 383 310Q328 472 315 503Q292 565 254 606T178 648Q79 648 50 532Q40 492 40 457Q40 416 52 390T77
358Q81 356 82 353T81 348T74 345Q45 345 24 380T2 462Q2 487 8 509Q32 593 82 637T179 681Q234 681 280 639T354 519L420 341Q601 489 679 571Q710 603 719 634Q720 637 720 642T721 651T723 658T728 661ZM427 319H426V318L427 319Z" />
<glyph unicode="Y" glyph-name="Y" horiz-adv-x="955" d="M1022 605Q1022 504 931 292T762 -51Q730 -105 688 -160T590 -272T471 -364T349 -400Q295 -400 251 -369T207 -287Q207 -268 214 -239T233 -207Q235 -208 236 -210T239 -214T240 -220T241 -227T241 -234Q241
-242 240 -255T239 -271Q239 -315 276 -339T360 -364Q412 -364 468 -331T574 -242T659 -139T726 -40Q762 18 795 91T848 216T900 360T948 492Q911 430 806 306T576 70T395 -42Q363 -42 363 2Q363 58 398 145T474 309T551 471T586 609Q586 639 568 648T517 658Q452
658 377 622T239 529T136 400T94 261Q94 163 193 163Q218 163 240 169T281 190T310 212T335 238T352 257Q367 272 367 257Q367 246 353 228Q325 188 276 162T177 136Q119 136 81 176T43 274Q43 343 93 418T216 551T373 646T524 684Q569 684 601 665T633 604Q633
558 602 480T532 331T463 180T431 50Q431 17 454 17Q500 17 599 119T776 322T891 481T970 635Q978 654 995 654Q1010 654 1016 638T1022 605Z" />
<glyph unicode="Z" glyph-name="Z" horiz-adv-x="655" d="M30 -53T26 -53T12 -39T2 -17V-16Q7 19 54 77T166 198T307 329T447 454T553 555T596 616Q596 621 593 623Q591 623 587 623T578 624T567 625T553 627T538 628T521 629T502 630T482 631T461 632T438 632Q357
632 280 625T183 602Q186 601 190 595T195 582Q194 573 187 573Q177 573 162 587T137 616Q135 619 134 622T133 629Q133 642 148 644Q243 659 422 659Q444 659 466 659T511 658T551 658T591 657T626 656Q646 652 646 622Q646 597 634 581Q607 545 539 483T396 356T248
224T123 95T65 -7Q87 -4 114 0T194 10T305 20T417 24Q524 24 585 7Q609 0 609 -18Q609 -35 591 -56T556 -88Q549 -92 547 -92Q542 -92 548 -83Q577 -54 577 -36Q577 -26 569 -20T548 -12T517 -9Q363 -9 122 -38Q103 -40 81 -44T44 -50Z" />
<glyph unicode="[" glyph-name="bracketleft" horiz-adv-x="585" d="M551 664Q548 658 544 657T520 656H438Q407 656 364 599T235 392Q75 115 75 42Q75 11 167 11Q179 11 213 12T259 14Q264 14 264 9Q264 2 258 -5T244 -13H116Q115 -13 114 -13T110 -13T107 -13T103
-13T99 -13Q20 -13 20 18Q20 96 148 329T353 651Q382 684 418 684H545Q550 684 552 682T555 677Q555 674 554 671T551 664Z" />
<glyph unicode="\" glyph-name="backslash" horiz-adv-x="604" d="M586 -93Q580 -93 578 -91T575 -85T574 -71T568 -48Q537 36 362 270T52 660Q45 668 45 678Q45 687 50 692T67 698Q82 698 200 550T443 222T592 -26Q603 -57 603 -73Q603 -82 599 -87T586 -93Z" />
<glyph unicode="]" glyph-name="bracketright" horiz-adv-x="556" d="M27 3Q30 9 34 10T58 11H140Q171 11 214 68T343 275Q503 552 503 625Q503 656 411 656Q399 656 365 655T319 653Q314 653 314 658Q314 665 320 672T334 680H462Q464 680 466 680T472 680T479
680Q558 680 558 649Q558 571 430 338T225 16Q196 -17 160 -17H33Q23 -17 23 -10Q23 -5 27 3Z" />
<glyph unicode="^" glyph-name="asciicircum" horiz-adv-x="334" d="M273 455Q211 489 162 527Q150 517 109 488T59 455Q56 453 53 453Q51 453 51 454T50 456Q50 459 53 463Q59 472 108 514T167 559Q174 557 218 519T277 466Q279 464 280 462T281 458Q281 454
277 454Q275 454 273 455Z" />
<glyph unicode="_" glyph-name="underscore" horiz-adv-x="328" d="M341 -15L339 -17H1L-2 -15V1L1 4H339L341 1V-15Z" />
<glyph unicode="`" glyph-name="grave" horiz-adv-x="355" d="M268 477L270 473Q270 472 269 472T266 471Q240 471 90 554Q85 557 83 560T81 569Q81 578 89 587T105 596Q107 596 109 595T113 593Q133 577 170 554T233 511T268 477Z" />
<glyph unicode="a" glyph-name="a" horiz-adv-x="329" d="M332 80Q331 79 323 72T310 60T296 48T279 34T262 22T245 12T229 5T214 2Q193 2 189 27Q189 69 222 182Q88 -3 30 -3Q6 -3 6 33Q6 79 33 157T101 299T171 363H174L185 371Q194 381 213 381Q228 381 255
373T285 365Q289 365 295 373T311 381Q336 381 336 359Q336 350 333 339T323 314T315 296Q314 294 306 290T296 283Q274 221 257 151T240 64Q240 39 254 39T288 56T324 90T340 107Q342 107 342 103Q342 88 332 80ZM266 346Q260 346 246 348T221 350Q207 350 191
346Q166 339 109 228T52 61Q52 44 62 44Q83 44 136 105T207 192Q232 232 253 278T274 340Q274 346 269 346H266Z" />
<glyph unicode="b" glyph-name="b" horiz-adv-x="292" d="M39 11Q34 -1 29 -1Q20 -1 9 11T-2 39Q-2 54 22 115Q25 123 31 127T39 134Q147 415 210 631L218 637Q225 643 235 649T253 655Q263 655 263 640Q252 599 193 439T96 187Q134 244 196 314T290 385Q310 385
310 348V341Q309 321 291 251Q313 262 321 262Q324 262 324 260Q324 255 312 245T286 230Q247 101 210 60Q196 45 153 19T100 -8Q59 -8 39 11ZM236 206Q118 144 84 107Q78 95 70 76T58 51Q82 24 107 24Q148 24 183 85T236 206ZM244 228Q260 270 262 315Q262 336
252 336Q219 336 91 132Q151 181 244 228Z" />
<glyph unicode="c" glyph-name="c" horiz-adv-x="231" d="M264 328Q264 307 255 291T234 274Q222 274 222 292Q222 298 226 314T230 337Q230 353 213 353Q201 353 176 337T137 307Q118 287 82 198T46 59Q46 22 75 22Q112 22 149 50T209 108T233 138Q238 136 238
131Q238 116 214 84T148 22T65 -8Q4 -8 4 63Q4 132 49 229T127 341Q142 347 159 356T189 370T217 375Q264 375 264 328Z" />
<glyph unicode="d" glyph-name="d" horiz-adv-x="339" d="M426 648Q429 646 429 639Q429 623 414 580T371 467T328 353Q329 354 330 354Q334 354 338 347T343 334T333 328Q320 328 319 331Q299 286 269 185T238 61T251 38Q266 38 286 55T321 91T340 109T343 104Q343
101 342 96T339 88T336 84Q313 61 272 32T208 2Q189 2 189 23Q189 77 227 188Q184 127 123 60T26 -7Q5 -7 5 23Q5 66 35 147T106 295T176 362H180Q187 362 196 369T217 377Q232 377 259 369T289 361Q290 361 290 362Q362 556 364 562Q353 562 353 574Q353 602 383
647Q387 655 399 655Q412 655 426 648ZM283 339Q283 350 224 350Q207 350 199 348Q177 342 115 227T52 59Q52 43 62 43T91 59T126 93T161 132T181 156Q208 186 230 226T267 302T283 339Z" />
<glyph unicode="e" glyph-name="e" horiz-adv-x="253" d="M263 311Q269 280 269 261Q269 239 254 224T215 202T172 193T136 190Q126 190 114 190T100 191Q67 107 67 59Q67 19 97 19Q118 19 146 45T195 98T220 125Q227 125 227 117Q227 89 172 40T86 -10Q61 -10
41 5T20 57Q20 68 23 83Q30 121 41 157T54 201Q39 205 39 217Q39 228 56 228H63Q103 307 109 319Q137 372 216 372Q250 372 263 311ZM227 263Q227 288 222 306T211 331T197 338Q177 338 150 295T109 219Q111 219 125 218T149 217Q190 217 208 226T227 263Z" />
<glyph unicode="f" glyph-name="f" horiz-adv-x="210" d="M386 663Q402 660 402 640Q402 626 396 613T382 599Q381 599 376 609T360 630T331 640Q283 640 261 584Q217 471 193 375H291Q319 375 319 369Q319 359 273 354T185 348Q181 338 161 268T115 112T76 -16Q43
-120 -5 -163T-103 -207Q-180 -207 -180 -127Q-180 -99 -172 -75T-156 -51Q-152 -51 -151 -57Q-153 -77 -153 -85Q-153 -131 -135 -159T-91 -187Q-67 -187 -42 -162T4 -84Q32 -14 79 140T140 344Q116 340 73 340Q50 340 50 349Q50 356 63 365T84 375H148Q194 538
211 575Q220 595 230 610T253 634T277 648T303 656T329 660T358 661T386 663Z" />
<glyph unicode="g" glyph-name="g" horiz-adv-x="293" d="M239 -214Q230 -265 151 -307T0 -350Q-73 -350 -73 -297T-24 -149T58 -16Q61 -12 78 -6Q73 -3 65 1T52 8T42 15T38 23Q38 34 47 43T67 53H71Q132 30 186 -48T240 -194Q240 -208 239 -214ZM310 294Q310
285 295 285H286Q285 279 282 261T275 227T270 206Q245 142 201 104T108 65Q80 65 68 81T55 132Q55 218 108 298T221 378Q226 378 236 376Q236 412 262 412Q291 412 291 366Q291 359 290 342T289 317Q290 317 293 315T298 311T304 306T308 300T310 294ZM192 -227V-214Q192
-161 164 -108T95 -20Q93 -23 71 -55T33 -111T-3 -169T-34 -233T-45 -284Q-45 -325 2 -325Q53 -325 121 -291T192 -227ZM249 289Q238 291 236 320T222 350Q191 350 164 310T122 231Q97 163 97 125Q97 94 122 94Q159 94 204 153T249 289Z" />
<glyph unicode="h" glyph-name="h" horiz-adv-x="310" d="M334 354Q280 267 234 161T187 -5Q187 -19 195 -19Q198 -19 212 -10T230 -1Q235 -1 235 -7Q235 -19 216 -32T179 -46Q154 -46 154 -9Q154 34 182 112T238 255T266 328Q266 330 265 330Q261 330 247 315Q184
244 141 177T84 73T54 16T17 -6Q8 -6 8 4Q8 13 13 24Q40 94 65 169T118 336T165 483Q168 492 168 501Q168 505 167 508T166 514Q166 518 169 527Q192 591 208 611T257 632Q270 632 272 623Q163 403 95 155Q244 388 320 388Q341 388 341 374Q341 365 334 354Z" />
<glyph unicode="i" glyph-name="i" horiz-adv-x="168" d="M255 550Q255 537 236 517T212 486Q199 453 184 449Q164 449 164 482Q164 503 195 528T249 553Q254 553 255 550ZM198 379Q196 376 185 354T165 316T143 269T118 210T95 143T74 65Q73 62 73 57Q73 45 83
45Q89 45 115 60T150 75Q157 75 158 71Q158 59 107 27T37 -6T18 12Q18 21 22 33Q33 64 44 97T62 148T74 185T84 213T89 232T93 247T94 257Q94 261 93 264T91 270Q91 274 94 283Q116 346 133 367T183 388Q196 388 198 379Z" />
<glyph unicode="j" glyph-name="j" horiz-adv-x="201" d="M219 379Q148 209 84 -74Q60 -178 16 -221T-78 -265Q-163 -265 -163 -173Q-163 -149 -157 -129T-144 -109Q-140 -109 -139 -115V-125Q-139 -179 -119 -213T-70 -247Q-47 -247 -25 -222T13 -146Q72 43 122
239Q124 247 124 256Q124 260 123 264T121 271Q121 278 123 283Q139 345 155 366T203 388Q216 388 219 379ZM253 530Q241 523 232 510T219 484T208 462T192 452Q185 452 179 467T172 493Q172 514 205 536T257 558Q271 558 271 549T253 530Z" />
<glyph unicode="k" glyph-name="k" horiz-adv-x="269" d="M326 353Q264 317 209 257T153 177Q153 141 184 87T239 13Q258 -3 258 -13Q258 -19 249 -19Q229 -19 203 8T159 64T120 130L99 167Q56 48 54 17Q54 10 36 -5T6 -21Q-1 -21 -1 -12Q-1 -8 4 7Q32 77 58 154T116
333T164 483Q168 495 168 501Q168 505 167 508T165 514Q165 518 168 527Q191 591 207 611T256 632Q270 632 271 623Q211 502 174 406T107 194L153 235Q199 276 249 319T306 369Q333 389 347 389Q353 389 353 385Q353 374 326 353Z" />
<glyph unicode="l" glyph-name="l" horiz-adv-x="179" d="M269 623Q214 509 157 348T73 65Q72 62 72 57Q72 45 82 45Q88 45 114 60T148 75Q154 75 157 71Q157 59 107 27T36 -6Q17 -6 17 12Q17 22 21 33Q47 104 69 174T121 340T164 483Q167 492 167 501Q167 505
166 508T164 515T167 527Q187 590 204 611T254 632Q268 632 269 623Z" />
<glyph unicode="m" glyph-name="m" horiz-adv-x="488" d="M540 363Q419 149 394 18Q391 8 391 -2Q391 -16 400 -16Q404 -16 420 -7T440 3Q445 3 445 -3Q445 -16 423 -30T379 -44Q364 -44 357 -35T350 -2Q350 21 360 56T380 115T408 181T430 230Q461 303 461 317Q461
324 456 324Q453 324 445 319Q393 284 335 206T249 24Q247 16 228 6T196 -5Q184 -5 184 4V6L185 8Q213 140 279 315Q284 328 284 333T281 338Q276 338 266 327Q202 253 153 180T85 69T46 7T6 -17Q-2 -17 -2 -9Q-2 -2 2 9T12 31T19 44Q35 83 85 239Q89 251 89 257Q89
261 88 264T86 270Q86 274 89 283Q111 346 128 367T177 388Q190 388 192 379Q110 211 94 139Q261 405 347 405Q367 405 367 392Q367 383 360 372Q273 225 250 113Q299 210 343 263T476 381Q495 396 526 396Q546 396 546 382Q546 375 540 363Z" />
<glyph unicode="n" glyph-name="n" horiz-adv-x="326" d="M360 372Q309 287 265 177T221 12Q221 -6 229 -6Q232 -6 248 4T268 14Q274 14 274 8Q274 -4 252 -19T208 -34Q179 -34 179 9Q179 48 195 100T245 233T279 315Q284 328 284 335Q284 340 281 340Q276 340
259 322Q216 274 136 158T54 15Q53 8 35 -4T5 -17Q-2 -17 -3 -10Q-1 -13 34 90T85 239Q89 251 89 257Q89 261 88 264T86 270Q86 274 89 283Q112 347 128 367T177 388Q190 388 192 379Q110 211 94 139Q259 405 347 405Q367 405 367 392Q367 383 360 372Z" />
<glyph unicode="o" glyph-name="o" horiz-adv-x="261" d="M303 295T303 287T288 272T261 264Q261 147 200 64T79 -19Q21 -19 21 65Q21 88 25 111Q30 137 43 178T77 267T128 348T190 382H197Q197 396 205 406T227 416Q241 415 252 358T284 298Q303 295 303 287ZM233
272Q224 277 211 307T193 338Q162 338 121 247T70 102Q66 79 66 60Q66 11 94 11Q134 11 183 92T233 272Z" />
<glyph unicode="p" glyph-name="p" horiz-adv-x="298" d="M268 215Q274 217 287 222T311 230T333 233Q340 233 340 230Q340 223 330 218T300 206T272 197Q277 171 277 140Q277 62 238 27T144 -9Q86 -9 54 17Q45 -9 20 -81T-16 -186Q-17 -188 -17 -190Q-17 -193
-14 -199T-10 -211Q-10 -223 -25 -249T-56 -276Q-68 -276 -68 -251Q-68 -230 -52 -178T-4 -43T29 45Q26 52 26 62Q26 85 48 99Q115 306 126 346Q126 347 115 348T104 355Q104 363 120 370L135 376Q131 380 131 384Q131 398 150 414T182 431Q190 431 190 421Q190
412 185 402L174 378Q245 328 268 215ZM229 183Q212 183 160 152T88 102L66 39Q101 16 134 16Q185 16 209 49T234 131Q234 153 229 183ZM224 199Q217 235 205 266T183 313T165 329Q162 329 152 301T125 218T99 137Q147 170 224 199Z" />
<glyph unicode="q" glyph-name="q" horiz-adv-x="311" d="M353 296Q352 294 344 290T334 283Q293 186 274 140T228 13T185 -137Q181 -153 181 -165Q181 -183 192 -183Q211 -183 248 -148T289 -112Q294 -112 294 -119Q294 -125 291 -132T285 -140Q187 -224 149
-224Q129 -224 126 -199Q126 -134 244 177Q214 139 182 103T105 30T33 -8Q10 -8 10 23Q10 67 44 148T126 296T204 363H207L218 371Q227 381 246 381Q262 381 288 373T317 365Q321 365 328 373T345 381Q372 381 372 356Q372 337 353 296ZM298 346Q292 346 277 348T253
351Q238 351 223 346Q210 343 172 288T100 163T65 58Q65 44 74 44Q95 44 148 100T229 192Q258 236 281 281T305 341Q305 346 301 346H298Z" />
<glyph unicode="r" glyph-name="r" horiz-adv-x="270" d="M295 295Q287 284 274 274T253 263Q247 263 247 269Q247 273 256 297T266 330Q266 337 261 337Q226 337 158 229T56 18Q50 10 37 2T15 -6Q9 -6 6 -1Q6 26 12 48T29 74Q51 157 60 198L70 240Q72 247 72
256Q72 261 70 265T68 273Q68 279 70 284Q86 347 102 370T151 393Q163 393 165 385Q164 382 151 350T126 290T100 219T78 140Q111 205 180 296T294 388Q318 388 318 358Q318 327 295 295Z" />
<glyph unicode="s" glyph-name="s" horiz-adv-x="254" d="M287 343Q285 323 261 286T224 249Q220 249 220 255Q220 264 231 291T242 327Q242 342 224 342Q221 342 191 337Q166 331 126 305T85 248Q85 237 90 228Q103 202 135 184T191 150T215 108Q215 64 148 24T32
-17Q24 -17 19 -11T14 3Q14 15 25 15Q58 15 117 35T177 80Q177 94 155 113T106 148T57 186T34 230Q34 247 46 262Q55 273 65 283T84 302T104 318T125 332T146 344T165 353T183 362T199 368T214 374T225 378Q242 383 251 383Q287 383 287 343Z" />
<glyph unicode="t" glyph-name="t" horiz-adv-x="231" d="M151 375L155 389Q158 401 158 406Q158 410 156 413T154 420T157 432Q177 496 193 517T242 538Q256 538 258 529Q236 482 197 375H294Q322 375 322 369Q322 359 276 354T188 348Q138 207 107 78Q102 58
102 49Q102 32 113 32Q133 32 171 67T213 103Q218 103 218 97Q218 80 207 75Q115 -8 78 -8Q55 -8 55 21Q55 37 79 115Q82 125 143 344Q119 340 76 340Q53 340 53 349Q53 356 66 365T87 375H151Z" />
<glyph unicode="u" glyph-name="u" horiz-adv-x="333" d="M359 384Q356 375 337 324T306 238Q288 187 268 114T247 25Q247 22 249 22Q257 22 289 47T334 72Q342 72 342 67Q342 60 320 44T268 11T236 -9Q229 -15 216 -29T191 -53T170 -63Q157 -63 157 -52Q157 -45
173 -31T194 -5Q211 36 262 234Q215 164 138 78T21 -9Q7 -9 7 9Q7 24 18 52Q18 53 42 106T80 197T95 253Q95 258 93 262T91 270Q91 271 93 281Q110 345 125 365T175 386Q189 386 192 377Q72 82 72 68Q72 64 75 64Q79 64 99 80Q199 157 275 296Q276 327 294 360T347
393Q358 393 359 384Z" />
<glyph unicode="v" glyph-name="v" horiz-adv-x="349" d="M347 354Q336 295 297 228T212 109T123 24T57 -11Q51 -11 51 -6Q51 1 53 3T57 8T64 14T71 30T78 63T85 123T89 216Q89 234 83 243T77 278Q77 327 86 346T126 365Q140 365 145 356Q110 77 107 41Q108 42
127 58T164 93T207 141T253 210T289 295Q291 303 291 307Q291 314 287 324T283 340Q283 352 304 377T339 403Q350 403 350 382Q350 370 347 354Z" />
<glyph unicode="w" glyph-name="w" horiz-adv-x="493" d="M534 361Q534 355 516 315T466 214T403 103Q391 84 385 72T376 54T369 29T359 -4Q355 -11 348 -11Q338 -11 328 1T317 25Q317 29 317 37T318 51Q318 188 263 321Q227 300 161 169T94 -8Q91 -19 83 -19Q73
-19 61 -5T49 20Q49 23 50 24Q92 127 92 214Q92 257 85 284T69 322T50 332Q48 332 36 324T20 316Q17 316 17 319Q17 333 43 356T83 379Q124 379 124 238Q124 208 121 157Q152 214 204 294T278 374Q286 385 298 385Q317 385 317 363Q317 360 316 355T315 346Q315
340 324 314Q332 290 344 239T365 149T375 110Q389 110 437 204T488 349Q488 355 484 367T480 386Q480 398 490 409H491Q502 418 508 418Q521 418 527 399T534 361Z" />
<glyph unicode="x" glyph-name="x" horiz-adv-x="282" d="M322 335Q313 332 312 332L309 333Q306 333 277 304T240 265Q192 217 192 214L218 122Q244 29 244 6Q244 -5 231 -24T205 -44Q201 -44 194 -4T177 93T157 177Q134 147 90 94T13 -2T-45 -91Q-56 -111 -66
-111Q-75 -111 -75 -93Q-75 -70 -30 -12T74 113T148 203L146 210Q145 217 144 224T139 242T133 262T124 282T113 299T100 310T84 315Q79 315 70 314T58 313T53 313T48 315T45 319T44 325T57 336T76 345Q90 346 104 362T122 378H123Q140 378 160 324T186 239Q199
263 255 323T324 384Q335 384 335 369Q335 344 322 335Z" />
<glyph unicode="y" glyph-name="y" horiz-adv-x="317" d="M364 388Q367 383 367 377Q367 337 280 216T139 33V35Q138 35 137 27T132 7T126 -16T119 -36T110 -45T100 -43T92 -40Q-43 -221 -43 -272Q-43 -281 -39 -290T-35 -303Q-35 -314 -47 -322T-71 -330Q-87
-330 -87 -311Q-87 -275 -44 -202T44 -65T91 2Q102 35 102 92Q102 174 87 236T44 298Q41 298 36 298L30 297Q26 297 26 302Q26 310 48 326Q51 328 65 348T86 368Q107 368 123 304T140 160Q140 152 140 136T139 112Q139 96 147 96Q170 96 239 202T309 337Q309 343
304 343Q302 343 297 341T289 339Q284 339 281 344Q281 357 310 373T357 389Q362 389 364 388Z" />
<glyph unicode="z" glyph-name="z" horiz-adv-x="303" d="M333 345Q328 327 320 318T304 307T296 304Q246 263 164 180T49 48Q47 46 47 42Q47 26 115 26Q214 26 270 40Q280 43 287 43Q297 43 297 36Q297 23 285 7T259 -10Q246 -10 246 0Q186 5 150 5Q112 5 67
2T14 -2Q-11 -2 -11 21Q-11 48 8 65Q182 233 270 339H216Q138 339 125 325Q124 324 116 314T101 296T91 287Q82 287 82 294Q82 336 104 354T184 373Q188 373 197 373T218 373T241 374Q281 374 307 370T334 355Q334 349 333 345Z" />
<glyph unicode="{" glyph-name="braceleft" horiz-adv-x="323" d="M115 265Q126 261 135 255T151 242T163 225T171 205T174 181V174Q171 137 149 68T123 -38Q123 -42 123 -47Q123 -62 127 -73T139 -90T157 -99T177 -103T200 -104Q203 -104 208 -104T216 -104Q223
-105 223 -109T217 -118T200 -122Q186 -122 176 -122T153 -119T131 -114T112 -105T97 -91T88 -72T84 -46Q84 -43 84 -40T85 -34Q88 3 111 73T137 179Q137 181 137 182T137 185T137 189Q137 214 126 230T99 252T63 259Q36 259 36 267Q36 275 54 280Q125 287 155
308T204 393Q209 411 217 448T230 503Q239 534 251 556T285 598T340 629T420 640Q421 640 423 640H424Q428 638 429 631Q429 621 419 619Q344 619 315 585T266 474Q251 414 241 391Q223 345 190 310T115 265Z" />
<glyph unicode="|" glyph-name="bar" horiz-adv-x="219" d="M123 -75Q116 -88 109 -88Q106 -88 105 -86T102 -81T101 -73Q101 -68 102 -62Q109 -34 109 111V444Q109 499 107 537T103 593T101 616Q101 626 118 626Q158 626 158 540Q158 431 148 198T123 -75Z" />
<glyph unicode="}" glyph-name="braceright" horiz-adv-x="425" d="M341 254Q314 264 298 286T282 338Q282 340 282 341T282 345Q285 382 307 451T333 557Q333 561 333 566Q333 585 327 597T308 615T284 621T256 623Q253 623 248 623T240 623Q233 624 233 628T239
637T256 641Q281 641 298 639T334 629T362 605T372 565Q372 559 371 553Q368 516 345 446T319 340Q319 335 319 330Q319 294 340 277T393 260Q420 260 420 252Q420 244 402 239Q331 232 301 211T252 126Q247 108 239 71T226 16Q217 -15 205 -37T171 -79T116 -110T36
-121Q35 -121 33 -121H32Q27 -121 27 -112Q27 -102 37 -100Q112 -100 141 -66T190 45Q205 105 215 128Q233 174 266 209T341 254Z" />
<glyph unicode="~" glyph-name="asciitilde" horiz-adv-x="304" d="M31 438Q29 438 29 440Q29 447 45 461T72 481Q88 491 108 491Q125 491 156 481T203 470Q227 470 245 491Q251 491 251 487Q251 480 237 466T211 445Q198 437 184 437Q166 437 134 450T85 464Q68
464 52 451T31 438Z" />
<glyph unicode="&#xa1;" glyph-name="exclamdown" horiz-adv-x="202" d="M125 309Q126 313 128 317T133 323T141 328T149 331T158 332Q168 332 171 321T174 294V293Q174 276 151 259T114 242Q111 242 111 244Q112 251 116 267T122 294T125 309ZM88 136Q98 134
99 119Q99 92 75 28T14 -120T-28 -213Q-30 -219 -54 -266T-81 -324Q-83 -330 -74 -332T-64 -339Q-64 -342 -68 -344T-80 -348T-96 -351T-113 -353Q-119 -353 -124 -352T-134 -350T-140 -347T-143 -342Q-143 -340 -143 -339T-141 -336Q-118 -308 -34 -137Q59 51
59 95Q59 100 56 105T52 113Q52 121 65 128T88 136Z" />
<glyph unicode="&#xa2;" glyph-name="cent" horiz-adv-x="231" d="M311 631Q319 631 319 622Q319 618 316 611Q301 581 257 478Q266 478 273 476T287 470T296 459T299 443Q299 427 291 416T271 404Q261 404 261 417Q261 421 264 432T268 449Q268 462 250 462Q198
341 153 219Q181 227 209 248T253 287T271 305Q275 305 275 300Q275 290 257 269Q240 250 209 229T146 199Q109 96 103 53Q103 51 103 49T102 44T102 41Q102 18 114 18Q118 18 115 13Q114 10 109 5T103 0Q99 -2 96 -2Q87 -2 84 8T80 34Q80 82 121 194Q120 194 119
194T115 194Q105 194 97 196T83 202T72 212T65 226T63 244Q63 292 100 364T175 453Q187 457 205 465T232 476Q293 625 302 629Q304 630 305 630T307 630T311 631ZM184 428Q177 422 163 400T135 350T111 292T100 242Q100 230 104 223T119 215H128Q168 315 190 368Q194
379 205 408T223 452Q205 443 184 428Z" />
<glyph unicode="&#xa3;" glyph-name="sterling" horiz-adv-x="817" d="M228 312Q228 324 237 327T265 330Q274 330 285 330T306 330T327 329T346 329Q352 343 364 381T387 454T420 532T466 606T530 658T615 679Q658 679 687 652T717 583Q717 548 702 529T669 510Q660
510 657 513T661 523Q692 544 692 587Q692 608 682 624T652 650T602 660Q571 660 544 642T499 599T461 533T432 463T407 390T386 329Q393 329 435 328T502 326Q520 326 531 322T543 311Q543 300 508 300Q479 300 432 301T380 302Q379 301 364 263T344 212T323 165T297
111T272 69T244 31Q313 -2 421 -24T613 -46Q664 -46 706 -18T748 60Q748 87 737 109T716 136Q708 140 710 146T722 153Q740 153 756 129T773 67Q773 -5 725 -44T604 -83Q578 -83 553 -81T496 -73T448 -63T392 -47T346 -32T293 -14T246 2Q158 32 120 32Q72 32 72
-13Q72 -18 63 -18Q55 -18 48 -10T40 15Q40 67 107 67Q142 67 219 42Q238 66 278 149T340 300Q335 300 313 300T278 299Q275 299 271 299T264 299T257 299T249 299T243 300T237 302T232 304T229 307T228 312Z" />
<glyph unicode="&#xa4;" glyph-name="currency" horiz-adv-x="479" d="M414 448L437 439Q435 437 421 425T389 397T354 365Q383 344 383 304Q383 265 361 235T303 187Q351 108 366 91H333Q329 104 285 179Q256 169 221 169T163 180L81 90H49L151 186Q116 208 116
251Q116 320 183 360L130 441L159 450Q163 432 198 368Q237 385 282 385Q316 385 342 373Q385 415 414 448ZM345 295Q345 324 327 342T273 360Q221 360 188 334T155 266Q155 237 175 218T233 198Q283 198 314 226T345 295Z" />
<glyph unicode="&#xa5;" glyph-name="yen" horiz-adv-x="582" d="M242 174Q252 174 263 174T282 174T301 175T321 176T344 177T371 177Q381 177 386 176T392 171Q392 166 375 162Q332 151 237 144Q234 126 234 113Q232 89 230 76T223 46T211 21T189 6T155 0Q135
0 137 12Q142 21 152 42T165 69Q181 103 192 141Q184 141 177 141T162 140T147 140T133 139Q115 139 99 140Q79 140 73 143Q67 147 65 151T62 160Q62 167 67 172T79 182T94 186Q103 186 118 182T137 178Q156 178 202 176V177Q202 178 203 179Q209 201 212 229Q182
227 152 227Q132 227 116 228Q96 228 90 231Q86 234 84 237T80 242T79 248Q79 258 89 266T111 274Q120 274 135 270T154 266Q173 266 215 264Q215 273 214 276Q176 374 107 584Q100 610 100 624Q100 641 111 646Q120 650 128 652T146 654Q151 654 156 653T166 651T178
648Q195 642 176 626Q170 624 167 617T164 598Q164 527 255 309Q309 353 405 456T518 625Q520 636 527 651T541 666Q542 666 544 666T550 667T555 667Q577 667 578 647Q581 624 485 507Q477 498 473 493Q411 418 267 284Q261 266 260 262Q278 262 298 263T341 264T388
265Q395 265 400 264T407 262T409 259Q409 254 392 250Q348 239 253 232Q246 197 242 174Z" />
<glyph unicode="&#xa6;" glyph-name="brokenbar" horiz-adv-x="219" d="M153 322L109 324V444Q109 499 107 537T103 593T101 616Q101 626 118 626Q158 626 158 540Q158 443 153 322ZM109 277L151 278Q139 -32 123 -78Q116 -91 109 -91Q106 -91 105 -89T102 -84T101
-76Q101 -71 102 -65Q110 -32 110 62Q110 88 110 159T109 277Z" />
<glyph unicode="&#xa7;" glyph-name="section" horiz-adv-x="626" d="M554 551Q554 629 457 629Q455 629 453 629T448 628T444 628T439 628Q424 627 408 624T374 615T339 601T305 583T275 561T251 536T234 507T228 475Q228 472 228 470T229 465Q231 447 238 432T253
405T276 382T302 363T333 347T363 333T396 321T427 309Q450 300 466 293T500 274T530 253T549 228T557 198Q557 195 557 192T556 185Q547 132 502 83T388 7Q408 -14 408 -41Q408 -47 407 -53Q393 -133 304 -195T97 -258Q93 -258 88 -258Q-14 -256 -14 -186Q-14
-183 -14 -180Q-10 -147 14 -144Q14 -144 15 -144Q18 -144 20 -150T24 -166T31 -184Q45 -209 70 -217T136 -226Q183 -226 229 -209T310 -160T352 -88Q353 -84 353 -80T354 -71Q354 -20 278 16Q262 24 231 36T177 57T126 82T80 114T50 155T37 208Q37 265 81 316T196
397Q186 418 186 446Q186 502 229 553T342 634T488 665Q589 665 589 565Q589 556 586 545T575 526T561 517Q554 517 554 530Q554 532 554 539T554 551ZM80 227Q82 209 89 194T104 167T127 144T153 125T184 109T214 95T247 83T278 71Q344 43 369 25Q418 42 455 76T501
150Q502 153 502 156T502 161T503 167Q503 218 427 254Q413 260 359 281T269 324T211 372Q156 351 118 316T80 236Q80 232 80 227Z" />
<glyph unicode="&#xa8;" glyph-name="dieresis" horiz-adv-x="565" d="M506 520Q506 513 501 507T487 498T472 495Q453 495 453 527Q453 531 453 536Q454 554 476 571T514 588Q519 588 520 585Q520 573 513 548T506 520ZM354 520Q354 513 349 507T335 498T320
495Q301 495 301 527Q301 531 301 536Q302 554 324 571T362 588Q367 588 368 585Q368 573 361 548T354 520Z" />
<glyph unicode="&#xa9;" glyph-name="copyright" horiz-adv-x="799" d="M324 -8Q255 -8 202 12T116 68T66 149T49 246Q49 302 67 358T121 466T206 557T323 621T467 645Q542 645 599 625T691 571T743 492T761 397Q761 341 742 284T684 174T594 82T472 17T324 -8ZM474
628Q419 628 367 611T273 564T196 496T137 412T100 320T87 229Q87 134 148 73T332 12Q398 12 458 36T564 101T643 192T694 298T712 407Q712 453 698 492T656 562T582 610T474 628ZM600 226Q604 225 604 221Q604 213 596 199T580 176Q546 138 480 117T352 95Q264
95 220 142T175 261Q175 328 209 392T313 502T469 548Q536 548 558 518Q564 532 564 541Q564 553 573 553Q577 553 579 551T581 546Q581 539 579 531T574 514T569 499Q575 485 575 460Q572 426 557 426Q552 426 549 427T543 430T539 435T538 442Q538 447 538 452T540
464T543 473T547 484T550 493Q529 527 462 527Q408 527 361 504T283 443T235 360T217 271Q217 206 255 164T367 121Q483 121 582 212Q595 228 600 226Z" />
<glyph unicode="&#xaa;" glyph-name="ordfeminine" horiz-adv-x="329" d="M332 370Q331 369 323 362T310 350T296 338T279 324T262 312T245 302T229 295T214 292Q193 292 189 317Q189 359 222 472Q88 287 30 287Q6 287 6 323Q6 369 33 447T101 589T171 653H174L185
661Q194 671 213 671Q228 671 255 663T285 655Q289 655 295 663T311 671Q336 671 336 649Q336 640 333 629T323 604T315 586Q314 584 306 580T296 573Q274 511 257 441T240 354Q240 329 254 329T288 346T324 380T340 397Q342 397 342 393Q342 378 332 370ZM266
636Q260 636 246 638T221 640Q207 640 191 636Q166 629 109 518T52 351Q52 334 62 334Q83 334 136 395T207 482Q232 522 253 568T274 630Q274 636 269 636H266Z" />
<glyph unicode="&#xab;" glyph-name="guillemotleft" horiz-adv-x="420" d="M369 436Q369 429 328 368T270 283Q368 168 368 149Q368 136 359 136Q358 136 357 136L349 140Q337 157 321 173T294 199T260 225T228 250Q225 253 225 256Q225 267 274 337T344 431Q352
442 363 442Q369 442 369 436ZM229 436Q229 429 188 368T130 283Q227 162 227 149T218 136Q218 136 217 136L209 140Q197 157 181 173T154 198T120 225T88 250Q85 253 85 256Q85 267 133 335T203 431Q211 442 222 442Q229 442 229 436Z" />
<glyph unicode="&#xac;" glyph-name="logicalnot" horiz-adv-x="596" d="M430 227Q439 227 458 226T486 225L515 226L530 228L546 231Q551 231 554 228Q556 228 557 229H560Q572 229 572 217Q572 188 559 137T544 83Q538 61 535 37Q531 31 526 31Q518 31 516 41Q520
152 534 209L492 206Q442 203 422 197Q386 188 378 188Q368 185 350 187L313 190Q294 191 277 197Q259 194 242 194H202Q192 194 187 193L170 191Q165 190 150 191T131 190Q105 180 46 176Q42 176 40 178H39Q31 179 29 187Q29 193 37 198L114 201Q181 201 216 211Q228
216 238 217L260 220Q272 220 284 216Q303 217 330 220T382 225T430 227Z" />
<glyph unicode="&#xad;" glyph-name="uni00AD" horiz-adv-x="289" d="M158 153Q171 153 197 154T244 156Q259 156 259 151Q259 146 247 142Q223 134 167 128T67 122Q56 122 47 122Q46 122 43 122T38 122Q23 122 23 134Q23 144 33 154T53 168Q57 170 61 171T67
173T73 174Q75 174 76 173T78 171T79 168Q79 166 78 163T74 157Q136 153 158 153Z" />
<glyph unicode="&#xae;" glyph-name="registered" horiz-adv-x="638" d="M260 317Q194 317 160 352T126 440Q126 517 184 575Q244 634 329 634Q377 634 410 617T457 574T472 513Q472 467 447 423T372 348T260 317ZM356 367Q358 367 360 367T364 368T367 368T370
367Q405 395 425 436T445 518Q445 564 417 594T332 624Q306 624 281 616T236 593T199 560T171 520T153 476T146 432Q146 386 175 357T264 328Q317 328 362 360Q358 359 345 359Q327 359 300 384T250 441L242 454Q228 401 228 377Q228 374 225 371Q223 368 215 368T207
371Q207 373 208 378T210 388T212 395Q215 412 231 464Q223 475 225 477Q227 479 234 480Q244 514 266 569Q269 589 281 604Q285 609 299 608Q304 606 304 604Q296 592 295 587Q299 587 309 587T326 585T343 583T360 580T373 573T383 563T387 547Q387 541 385 534Q376
497 343 481T266 465Q265 465 264 465T261 465Q252 465 260 457Q264 452 273 441T289 421T306 402T324 384T340 372T356 367ZM366 530Q369 538 369 544Q369 555 363 562T344 572T320 577T291 579H290Q271 550 249 476Q259 474 271 474Q301 474 329 488T366 530Z"
/>
<glyph unicode="&#xaf;" glyph-name="overscore" horiz-adv-x="228" d="M218 430Q218 425 208 423T192 420H47Q34 420 28 421T22 426Q22 436 52 443Q75 448 99 448Q130 448 192 440Q218 434 218 430Z" />
<glyph unicode="&#xb0;" glyph-name="degree" horiz-adv-x="283" d="M237 441T237 406T212 346T151 320T91 345T65 406T90 466T151 492T211 467ZM215 380T215 406T196 451T151 470T106 451T87 406T106 361T151 342T196 361Z" />
<glyph unicode="&#xb1;" glyph-name="plusminus" horiz-adv-x="379" d="M391 282Q399 277 399 274Q399 268 375 265T310 260T250 255Q235 197 196 115Q184 90 179 90Q176 90 175 94T174 105Q174 126 178 132Q216 249 213 257Q213 256 120 256Q109 256 103 256T96
256Q93 259 93 263Q93 268 96 273T107 281T122 286L221 284Q222 287 239 338T260 401Q261 403 262 405T266 410T272 414T278 417T284 420T289 421Q292 421 294 420T297 415Q297 381 259 283Q261 283 294 284T347 285Q384 285 391 282ZM272 51Q275 51 284 51T301
50T310 46Q310 39 235 29T112 18Q98 18 90 19Q89 19 87 19Q84 18 83 18Q79 18 77 22T74 30Q74 36 76 42T83 52T92 60T103 63Q112 63 107 50Q117 50 137 50T180 49T221 48Q256 48 272 50V51Z" />
<glyph unicode="&#xb2;" glyph-name="twosuperior" horiz-adv-x="547" d="M137 327Q127 324 111 312T77 290T42 280Q28 280 28 290Q28 298 39 310T64 329Q76 335 100 339T141 344Q142 344 144 344Q277 418 332 460Q376 495 401 525T434 597Q435 602 435 607Q435
643 391 643Q372 643 346 636Q252 612 194 558Q186 550 182 560Q182 566 186 570Q237 614 303 643T431 673Q487 673 487 626T428 518Q392 479 335 438Q272 393 160 337Q189 334 253 314T359 294Q389 294 409 303T429 331Q429 354 392 366Q385 369 389 373Q392 377
398 375Q449 362 449 329Q449 303 421 287T356 271Q316 271 237 298Q231 300 215 306T189 316T165 322T137 327Z" />
<glyph unicode="&#xb3;" glyph-name="threesuperior" horiz-adv-x="608" d="M320 531Q416 522 416 455Q416 378 327 328T142 277Q79 277 41 297T2 360Q2 406 46 434T142 462Q149 462 150 457Q147 452 140 450Q105 450 73 425T40 361Q40 328 68 311T144 293Q233
293 306 336T380 453Q380 485 355 499T291 513Q274 513 257 511T227 504Q220 501 215 501Q203 501 203 512Q203 517 205 521T211 528T221 531Q289 531 340 555Q365 566 379 585T393 624Q393 637 383 645T351 654Q340 654 327 651Q259 637 209 602Q206 600 204 600Q200
600 200 607Q200 624 212 630Q234 641 258 665Q261 668 264 668Q267 668 268 664T265 655L260 650Q331 679 378 679Q404 679 419 668T434 633Q434 601 396 570T320 531Z" />
<glyph unicode="&#xb4;" glyph-name="acute" horiz-adv-x="355" d="M461 558Q439 544 406 516T346 469T303 446Q302 446 302 446T300 446Q299 446 298 446T297 448Q297 466 431 592Q434 595 437 596T443 597Q452 597 459 588T467 570Q467 566 466 563T461 558Z" />
<glyph unicode="&#xb5;" glyph-name="mu" horiz-adv-x="333" d="M359 384Q356 374 348 353T328 297T306 238Q278 155 254 40Q254 38 254 31T252 18T247 5T236 -9Q233 -12 230 -14T224 -17T219 -20T214 -22T209 -23T205 -24Q192 -24 192 -13Q192 -9 194 -5Q207
19 262 234Q225 180 168 111T64 11Q45 -2 32 -7Q30 -13 30 -15Q23 -39 16 -92T8 -195Q8 -319 61 -321Q79 -322 79 -333Q79 -340 72 -345T52 -350Q19 -350 1 -325T-24 -270Q-26 -258 -28 -246T-30 -221T-31 -195Q-31 -180 -30 -164Q-21 -34 54 135Q86 216 93 237Q96
247 96 254Q96 258 94 262T91 271Q91 275 93 281Q104 322 114 350Q120 365 139 375T175 386Q190 386 192 377Q141 251 132 223Q113 169 77 85Q72 73 72 68Q73 65 75 64Q80 64 99 80Q199 157 275 296Q284 331 284 339Q284 346 288 354T300 369T315 381T332 390T347
393Q358 393 359 384Z" />
<glyph unicode="&#xb6;" glyph-name="paragraph" horiz-adv-x="414" d="M245 506Q242 414 241 347T238 175T236 -20Q236 -36 236 -47Q236 -50 225 -58T207 -66Q199 -66 199 -56Q199 -39 203 31T209 128Q209 133 213 242T218 383Q218 388 218 391Q193 381 172 381Q126
381 101 418T75 506Q75 521 77 535T85 564T97 590T113 613T135 631T162 643T193 647Q198 647 202 647T212 646Q228 643 249 631T271 606Q271 600 265 599T254 600T247 600Q245 576 245 506ZM292 691Q298 691 310 676T322 647Q322 643 321 639T319 634L318 632Q312
503 309 290Q305 20 305 -20Q305 -36 305 -47Q305 -49 300 -53T288 -62T276 -66Q268 -66 268 -56Q268 -39 272 31T278 128Q280 193 281 226T283 313T284 414T285 506Q285 523 285 545T284 586T284 626T283 667Q283 671 283 674T284 681T285 686T287 689T289 690T292
691Z" />
<glyph unicode="&#xb7;" glyph-name="middot" horiz-adv-x="273" d="M160 289Q160 278 149 271T126 264Q107 264 107 296Q107 300 107 305Q107 317 119 329T145 349T168 357Q173 357 174 354Q174 342 167 317T160 289Z" />
<glyph unicode="&#xb8;" glyph-name="cedilla" horiz-adv-x="224" d="M173 -181Q173 -214 147 -237T89 -270T24 -280Q15 -280 15 -269Q15 -264 24 -261Q37 -257 60 -255T97 -251T120 -234T131 -192Q131 -178 105 -142T79 -85Q79 -51 98 -25T149 2Q160 2 161 -5Q140
-9 128 -27T115 -68Q115 -80 144 -116T173 -181Z" />
<glyph unicode="&#xb9;" glyph-name="onesuperior" horiz-adv-x="443" d="M127 327Q169 334 219 334Q228 334 225 325Q223 318 216 318Q203 318 190 317T163 313T139 307T112 298T89 290T63 280T38 270Q37 270 36 270Q32 270 30 275T27 287Q27 296 32 298Q78 317
97 321Q116 353 176 464T256 613Q214 588 167 571Q162 569 159 572T157 579T163 585Q209 604 284 662L288 669Q295 680 316 680Q321 680 325 679T331 676T334 671Q334 669 333 666L127 327Z" />
<glyph unicode="&#xba;" glyph-name="ordmasculine" horiz-adv-x="261" d="M303 564T303 556T288 541T261 533Q261 416 200 333T79 250Q21 250 21 334Q21 357 25 380Q30 406 43 447T77 536T128 617T190 651H197Q197 665 205 675T227 685Q241 684 252 627T284 567Q303
564 303 556ZM233 541Q224 546 211 576T193 607Q162 607 121 516T70 371Q66 348 66 329Q66 280 94 280Q134 280 183 361T233 541Z" />
<glyph unicode="&#xbb;" glyph-name="guillemotright" horiz-adv-x="420" d="M385 315Q385 304 336 234T266 140Q257 129 247 129Q241 129 241 135Q241 142 281 202T340 288Q242 403 242 422Q244 434 251 435Q252 435 253 435L261 431Q273 414 289 398T316 373T350
346T382 321Q385 318 385 315ZM229 315Q229 304 180 234T110 140Q101 129 91 129Q85 129 85 135Q85 142 125 202T184 288Q86 403 86 422Q86 424 86 426T87 429T89 432T91 434T95 435Q96 435 97 435L105 431Q117 414 133 398T160 373T194 346T226 321Q229 318 229
315Z" />
<glyph unicode="&#xbc;" glyph-name="onequarter" horiz-adv-x="933" d="M614 35L627 37Q627 40 627 44Q627 58 633 77T649 115T667 146T682 169Q636 182 602 182Q558 182 483 154L479 153Q473 153 469 158T465 171Q465 186 479 190L514 199Q795 338 843 402Q846
406 854 406Q858 406 861 405T868 403T874 400T876 396Q876 395 876 395T875 393Q858 370 824 327T764 249T715 181Q757 166 791 166Q802 166 813 170T832 184T841 210Q841 216 840 222Q838 229 844 229T854 224Q866 204 866 190Q866 151 788 151Q757 151 705 163Q702
158 689 137T666 101T650 68T643 40Q686 45 721 45Q730 45 727 36Q725 29 718 29Q706 29 694 28T672 25T648 20T628 14T605 6T585 -2T561 -12L540 -20Q540 -20 540 -20T538 -20Q534 -20 532 -15T529 -3Q529 0 529 2T531 6T534 9Q609 34 614 35ZM127 327Q169 334
219 334Q228 334 225 325Q223 318 216 318Q203 318 190 317T163 313T139 307T112 298T89 290T63 280T38 270Q37 270 36 270Q32 270 30 275T27 287Q27 296 32 298Q78 317 97 321Q116 353 176 464T256 613Q214 588 167 571Q162 569 159 572T157 579T163 585Q209 604
284 662L288 669Q295 680 316 680Q321 680 325 679T331 676T334 671Q334 669 333 666L127 327ZM616 506Q623 499 613 492Q516 419 393 311T248 163Q236 143 251 137Q256 135 246 131Q238 128 236 128Q219 128 219 143T233 180T278 233T332 287T400 349Q466 410
529 459T602 509Q610 509 616 506ZM560 205Q592 207 603 207Q635 207 691 189Q693 192 726 241T780 319L795 338Q711 282 560 205Z" />
<glyph unicode="&#xbd;" glyph-name="onehalf" horiz-adv-x="1015" d="M718 506Q725 499 715 492Q618 419 495 311T350 163Q338 143 353 137Q358 135 348 131Q340 128 338 128Q321 128 321 143T335 180T380 233T434 287T502 349Q568 410 631 459T704 509Q712 509
718 506ZM127 327Q169 334 219 334Q228 334 225 325Q223 318 216 318Q203 318 190 317T163 313T139 307T112 298T89 290T63 280T38 270Q37 270 36 270Q32 270 30 275T27 287Q27 296 32 298Q78 317 97 321Q116 353 176 464T256 613Q214 588 167 571Q162 569 159
572T157 579T163 585Q209 604 284 662L288 669Q295 680 316 680Q321 680 325 679T331 676T334 671Q334 669 333 666L127 327ZM596 43Q588 40 552 16Q523 -3 501 -4Q487 -4 487 6Q487 14 498 26T523 45Q535 51 559 55T600 60Q601 60 601 60T603 60Q736 134 791 176Q835
211 860 241T893 313Q893 316 893 318T894 323Q894 359 850 359Q840 359 829 357T805 352Q711 328 653 274Q645 266 641 276Q640 282 645 286Q696 330 762 359T890 389Q946 389 946 342T887 234Q851 195 794 154Q731 109 619 53Q645 51 724 27Q779 10 818 10Q848
10 868 19T888 47Q888 57 879 66T851 82Q844 85 848 89Q851 93 857 91Q908 78 908 45Q908 19 880 3T815 -13Q775 -13 696 14Q690 16 674 22T648 32T624 38T596 43Z" />
<glyph unicode="&#xbe;" glyph-name="threequarters" horiz-adv-x="1029" d="M714 35L727 37Q727 40 727 44Q727 58 733 77T749 115T767 146T782 169Q736 182 702 182Q658 182 583 154Q581 153 579 153Q573 153 569 158T565 171Q565 186 579 190L614 199Q895 338
943 402Q946 406 954 406Q958 406 961 405T968 403T974 400T976 396Q976 395 976 395T975 393Q958 370 924 327T864 249T815 181Q857 166 891 166Q902 166 913 170T932 184T941 210Q941 216 940 222Q938 229 944 229T954 224Q966 204 966 190Q966 151 888 151Q857
151 805 163Q802 158 789 137T766 101T750 68T743 40Q786 45 821 45Q830 45 827 36Q825 29 818 29Q806 29 794 28T772 25T748 20T728 14T705 6T685 -2T661 -12L640 -20Q640 -20 640 -20T638 -20Q634 -20 632 -15T629 -3Q629 0 629 2T631 6T634 9Q709 34 714 35ZM320
531Q416 522 416 455Q416 378 327 328T142 277Q79 277 41 297T2 360Q2 406 46 434T142 462Q149 462 150 457Q147 452 140 450Q105 450 73 425T40 361Q40 328 68 311T144 293Q233 293 306 336T380 453Q380 485 355 499T291 513Q274 513 257 511T227 504Q220 501
215 501Q203 501 203 512Q203 517 205 521T211 528T221 531Q289 531 340 555Q365 566 379 585T393 624Q393 637 383 645T351 654Q340 654 327 651Q259 637 209 602Q206 600 204 600Q200 600 200 607Q200 624 212 630Q234 641 258 665Q261 668 264 668Q267 668 268
664T265 655L260 650Q331 679 378 679Q404 679 419 668T434 633Q434 601 396 570T320 531ZM744 506Q751 499 741 492Q644 419 521 311T376 163Q364 143 379 137Q384 135 374 131Q366 128 364 128Q347 128 347 143T361 180T406 233T460 287T528 349Q594 410 657
459T730 509Q738 509 744 506ZM660 205Q692 207 703 207Q735 207 791 189Q793 192 826 241T880 319L895 338Q811 282 660 205Z" />
<glyph unicode="&#xbf;" glyph-name="questiondown" horiz-adv-x="464" d="M389 247Q388 228 364 212T324 195Q319 195 316 198Q318 210 327 235T337 262V263Q343 282 372 287L373 288Q390 288 390 263Q390 261 389 247ZM280 -155Q280 -150 284 -146T293 -141T303
-139Q325 -139 344 -159T363 -209Q363 -235 344 -261Q305 -314 224 -350T67 -386Q8 -386 -30 -360T-69 -280Q-69 -260 -61 -240T-41 -202T-5 -162T37 -125T91 -85T148 -46T214 -4Q224 3 229 6Q252 20 264 37T288 83T301 115H302Q305 118 307 120T313 122Q318 122
322 118T328 107T331 91Q331 61 307 30Q299 20 265 -2T181 -56T102 -109Q55 -144 26 -189T-4 -272Q-4 -294 7 -310T42 -337T104 -347Q157 -347 204 -331T282 -283T312 -212Q312 -208 312 -204Q310 -180 302 -170T287 -159T280 -155Z" />
<glyph unicode="&#xc0;" glyph-name="Agrave" horiz-adv-x="614" d="M609 72Q609 66 593 56Q512 17 449 -64Q445 -70 440 -70Q430 -70 430 -56Q430 -45 445 -25T473 4Q475 33 477 81T481 178T483 255Q483 267 483 273Q177 270 175 270Q129 199 105 156T58 46T36
-88Q36 -140 60 -166Q69 -175 69 -180Q69 -186 51 -186Q24 -186 12 -148T-1 -75Q-1 9 37 92T141 270Q137 270 132 270T121 270T110 270T98 270T86 269T74 269Q52 269 39 270T26 274Q26 283 34 289T56 297T85 301T117 303Q128 303 139 303T157 302T165 301Q274 448
431 599Q421 642 421 654Q421 674 445 674Q475 674 480 645Q498 663 504 663Q514 663 514 644Q514 641 514 637T513 630Q510 627 502 620T490 608Q517 483 517 301Q518 301 520 301T524 301Q601 301 608 287Q606 282 571 279T517 275V42Q586 79 600 79Q609 79 609
72ZM483 300Q483 343 470 432T441 563Q262 399 197 300H483ZM547 718Q549 716 549 714Q549 713 548 713T545 712Q531 712 478 738T369 795Q360 800 360 810Q360 814 362 819T367 828T375 834T384 837T392 834Q412 818 449 795T512 752T547 718Z" />
<glyph unicode="&#xc1;" glyph-name="Aacute" horiz-adv-x="614" d="M609 72Q609 66 593 56Q512 17 449 -64Q445 -70 440 -70Q430 -70 430 -56Q430 -45 445 -25T473 4Q475 33 477 81T481 178T483 255Q483 267 483 273Q177 270 175 270Q129 199 105 156T58 46T36
-88Q36 -140 60 -166Q69 -175 69 -180Q69 -186 51 -186Q24 -186 12 -148T-1 -75Q-1 9 37 92T141 270Q137 270 132 270T121 270T110 270T98 270T86 269T74 269Q52 269 39 270T26 274Q26 283 34 289T56 297T85 301T117 303Q128 303 139 303T157 302T165 301Q274 448
431 599Q421 642 421 654Q421 674 445 674Q475 674 480 645Q498 663 504 663Q514 663 514 644Q514 641 514 637T513 630Q510 627 502 620T490 608Q517 483 517 301Q518 301 520 301T524 301Q601 301 608 287Q606 282 571 279T517 275V42Q586 79 600 79Q609 79 609
72ZM483 300Q483 343 470 432T441 563Q262 399 197 300H483ZM597 811Q575 797 542 769T482 722T439 699H436Q433 699 433 701Q433 719 567 845Q573 850 579 850Q582 850 586 849T593 844T598 838T601 830T603 823T602 816T597 811Z" />
<glyph unicode="&#xc2;" glyph-name="Acircumflex" horiz-adv-x="614" d="M609 72Q609 66 593 56Q512 17 449 -64Q445 -70 440 -70Q430 -70 430 -56Q430 -45 445 -25T473 4Q475 33 477 81T481 178T483 255Q483 267 483 273Q177 270 175 270Q129 199 105 156T58
46T36 -88Q36 -140 60 -166Q69 -175 69 -180Q69 -186 51 -186Q24 -186 12 -148T-1 -75Q-1 9 37 92T141 270Q137 270 132 270T121 270T110 270T98 270T86 269T74 269Q52 269 39 270T26 274Q26 283 34 289T56 297T85 301T117 303Q128 303 139 303T157 302T165 301Q274
448 431 599Q421 642 421 654Q421 674 445 674Q475 674 480 645Q498 663 504 663Q514 663 514 644Q514 641 514 637T513 630Q510 627 502 620T490 608Q517 483 517 301Q518 301 520 301T524 301Q601 301 608 287Q606 282 571 279T517 275V42Q586 79 600 79Q609
79 609 72ZM483 300Q483 343 470 432T441 563Q262 399 197 300H483ZM566 727Q553 738 526 768T488 813Q475 801 432 767T380 727Q377 725 375 725Q372 725 372 728Q372 729 373 731T376 737Q386 749 439 798T501 850Q506 848 535 803T573 740Q574 737 574 733Q574
731 574 730T572 727T569 726Q569 726 568 726T566 727Z" />
<glyph unicode="&#xc3;" glyph-name="Atilde" horiz-adv-x="614" d="M609 72Q609 66 593 56Q512 17 449 -64Q445 -70 440 -70Q430 -70 430 -56Q430 -45 445 -25T473 4Q475 33 477 81T481 178T483 255Q483 267 483 273Q177 270 175 270Q129 199 105 156T58 46T36
-88Q36 -140 60 -166Q69 -175 69 -180Q69 -186 51 -186Q24 -186 12 -148T-1 -75Q-1 9 37 92T141 270Q137 270 132 270T121 270T110 270T98 270T86 269T74 269Q52 269 39 270T26 274Q26 283 34 289T56 297T85 301T117 303Q128 303 139 303T157 302T165 301Q274 448
431 599Q421 642 421 654Q421 674 445 674Q475 674 480 645Q498 663 504 663Q514 663 514 644Q514 641 514 637T513 630Q510 627 502 620T490 608Q517 483 517 301Q518 301 520 301T524 301Q601 301 608 287Q606 282 571 279T517 275V42Q586 79 600 79Q609 79 609
72ZM483 300Q483 343 470 432T441 563Q262 399 197 300H483ZM376 743Q374 743 374 745Q374 752 390 766T417 786Q433 796 453 796Q470 796 501 786T548 775Q572 775 590 796Q596 796 596 792Q596 785 582 771T556 750Q543 742 529 742Q511 742 479 755T430 769Q413
769 397 756T376 743Z" />
<glyph unicode="&#xc4;" glyph-name="Adieresis" horiz-adv-x="614" d="M609 72Q609 66 593 56Q512 17 449 -64Q445 -70 440 -70Q430 -70 430 -56Q430 -45 445 -25T473 4Q475 33 477 81T481 178T483 255Q483 267 483 273Q177 270 175 270Q129 199 105 156T58 46T36
-88Q36 -140 60 -166Q69 -175 69 -180Q69 -186 51 -186Q24 -186 12 -148T-1 -75Q-1 9 37 92T141 270Q137 270 132 270T121 270T110 270T98 270T86 269T74 269Q52 269 39 270T26 274Q26 283 34 289T56 297T85 301T117 303Q128 303 139 303T157 302T165 301Q274 448
431 599Q421 642 421 654Q421 674 445 674Q475 674 480 645Q498 663 504 663Q514 663 514 644Q514 641 514 637T513 630Q510 627 502 620T490 608Q517 483 517 301Q518 301 520 301T524 301Q601 301 608 287Q606 282 571 279T517 275V42Q586 79 600 79Q609 79 609
72ZM483 300Q483 343 470 432T441 563Q262 399 197 300H483ZM591 765Q591 754 580 747T557 740Q538 740 538 772Q538 774 538 776T538 781Q538 790 545 800T562 817T582 828T599 833Q604 833 605 830Q605 818 598 793T591 765ZM439 765Q439 754 428 747T405 740Q386
740 386 772Q386 776 386 781Q387 799 409 816T447 833Q452 833 453 830Q453 818 446 793T439 765Z" />
<glyph unicode="&#xc5;" glyph-name="Aring" horiz-adv-x="614" d="M570 739Q570 713 554 689T513 653Q514 650 514 644Q514 641 514 637T513 630Q510 627 502 620T490 608Q517 483 517 301Q518 301 520 301T524 301Q601 301 608 287Q606 282 571 279T517 275V42Q586
79 600 79Q609 79 609 72Q609 66 593 56Q512 17 449 -64Q445 -70 440 -70Q430 -70 430 -56Q430 -45 445 -25T473 4Q475 33 477 81T481 178T483 255Q483 267 483 273Q177 270 175 270Q129 199 105 156T58 46T36 -88Q36 -140 60 -166Q69 -175 69 -180Q69 -186 51
-186Q24 -186 12 -148T-1 -75Q-1 9 37 92T141 270Q137 270 132 270T121 270T110 270T98 270T86 269T74 269Q52 269 39 270T26 274Q26 283 34 289T56 297T85 301T117 303Q128 303 139 303T157 302T165 301Q274 448 431 599Q421 642 421 654Q421 670 438 673Q437
676 437 683Q437 703 448 728T476 759Q490 788 527 788Q546 788 558 774T570 739ZM483 300Q483 343 470 432T441 563Q262 399 197 300H483ZM524 773Q509 773 494 760T469 728T460 692Q460 664 489 664Q514 664 532 687T550 739Q550 773 524 773Z" />
<glyph unicode="&#xc6;" glyph-name="AE" horiz-adv-x="960" d="M523 620Q546 616 560 614T595 608T632 603T669 600T708 599Q737 599 765 601T820 606Q841 609 859 616T887 630T899 637Q912 639 912 630Q912 605 874 589T804 568Q786 565 769 564T732 563Q710
563 689 564T638 570T597 576T546 585T503 593Q505 573 505 552T506 506Q506 411 494 303Q510 303 541 303T584 302Q591 302 655 302T744 301Q754 301 763 300T778 296T787 290T791 283Q791 279 783 276T760 273Q667 273 489 269L455 44Q487 36 552 14T672 -22T775
-36Q804 -36 830 -31Q868 -23 897 7T926 79Q926 82 926 84T926 88T925 94Q922 117 907 138T890 165Q889 173 891 180T901 187Q907 187 917 170T935 133T944 106Q946 94 946 82Q946 20 908 -21T815 -72Q803 -74 791 -75T765 -77Q702 -77 588 -38T433 9Q422 4 406
7Q406 11 407 13Q387 15 369 15Q344 15 321 11Q283 2 279 -23Q279 -25 280 -31Q280 -37 278 -38Q271 -38 267 -29T263 -11Q263 20 294 38T369 56Q388 56 413 53Q418 77 427 121T444 201T455 269Q392 270 304 270Q278 270 227 270T150 270Q104 199 80 156T33 46T11
-88Q11 -107 15 -123T24 -150T35 -167T45 -178T49 -184Q49 -186 26 -186Q-1 -186 -13 -148T-26 -75Q-26 9 12 92T116 270Q110 270 101 270T85 270T67 270T49 269Q39 269 31 269T15 270T5 272T1 274Q1 283 9 289T31 297T60 301T92 303Q100 303 109 303T124 302T134
302T140 301Q195 375 281 464T433 605Q431 605 386 611Q344 615 301 617T218 620Q159 620 118 614Q57 605 6 572T-45 481Q-45 444 -30 425Q-26 420 -24 416T-22 409Q-22 406 -24 405T-31 403Q-47 403 -56 420Q-78 461 -78 516Q-78 628 94 651Q143 658 203 658Q259
658 322 652T442 636Q437 656 437 671Q437 691 461 691Q474 691 485 673T496 639Q525 663 534 663Q549 663 549 654Q549 652 548 649T546 642T542 636T538 630Q533 625 523 620ZM460 302Q468 421 468 480Q468 514 466 541T459 588Q250 418 172 300Q400 300 460
302Z" />
<glyph unicode="&#xc7;" glyph-name="Ccedilla" horiz-adv-x="753" d="M740 139Q744 139 744 130T740 108T729 85T718 70Q656 7 551 -34T350 -75Q335 -75 328 -74Q306 -93 306 -127Q306 -139 335 -175T364 -240Q364 -273 338 -296T280 -329T215 -339Q206 -339
206 -328Q206 -323 215 -320Q228 -316 251 -314T288 -310T311 -293T322 -251Q322 -237 296 -201T270 -144Q270 -97 298 -72Q165 -60 96 14T26 210Q26 221 27 233Q33 345 110 448T301 612T525 673T674 623Q683 650 683 662Q683 664 681 670T680 679T688 683Q696
683 704 679T712 669Q712 657 709 645T700 616T692 592Q701 568 701 537Q701 469 671 469Q654 469 647 476T640 498Q640 507 641 515T644 533T649 548T654 565T660 581Q643 609 607 627T525 645Q419 645 318 588T150 433T78 229Q78 221 78 213Q78 96 159 24T362
-49Q415 -49 463 -39T542 -16T606 18T653 54T689 89T713 113Q716 118 726 128T740 139Z" />
<glyph unicode="&#xc8;" glyph-name="Egrave" horiz-adv-x="935" d="M441 291Q438 291 435 291T429 291T422 291T416 291T410 291T404 292T400 294T396 296T393 300T392 305Q392 313 399 321T414 330Q423 330 433 330Q447 330 474 330T514 329Q526 363 549 432T584
537Q328 612 195 612Q166 612 138 608T79 594T28 562T8 509Q8 462 50 412T144 329T237 266T280 228Q280 225 276 225Q260 225 213 250Q167 274 128 302T52 368T-4 451T-25 548Q-25 659 147 659Q318 659 593 563Q594 567 597 579T604 599T612 617T624 632T639 637Q658
637 674 617T690 578Q690 568 684 568Q677 568 666 577T653 586Q645 586 638 573T629 550Q749 509 873 509Q894 509 912 514T940 524T952 529Q965 529 965 520Q965 495 927 484T857 473Q806 473 737 487T621 522Q616 506 591 437T554 329Q561 329 630 328T724 326Q742
326 753 322T765 311Q765 300 730 300Q701 300 624 297T543 294Q525 229 488 152T412 31Q616 -68 750 -68Q801 -68 843 -40T885 38Q885 61 869 84T853 114Q853 134 869 134Q883 134 896 108T910 45Q910 -26 855 -65T725 -105Q676 -105 611 -86T510 -52T400 -2Q387
4 380 7Q292 -75 161 -75Q111 -75 72 -56T33 9T69 83T153 112Q236 112 382 45Q431 109 503 292Q498 292 476 292T441 291ZM359 18Q316 38 247 55T134 72Q67 72 67 31Q67 6 94 -13T152 -40T208 -48Q293 -48 359 18ZM783 685Q785 683 785 681Q785 680 784 680T781
679Q767 679 714 705T605 762Q596 767 596 777Q596 781 598 786T603 795T611 801T620 804T628 801Q648 785 685 762T748 719T783 685Z" />
<glyph unicode="&#xc9;" glyph-name="Eacute" horiz-adv-x="935" d="M441 291Q438 291 435 291T429 291T422 291T416 291T410 291T404 292T400 294T396 296T393 300T392 305Q392 313 399 321T414 330Q423 330 433 330Q447 330 474 330T514 329Q526 363 549 432T584
537Q328 612 195 612Q166 612 138 608T79 594T28 562T8 509Q8 462 50 412T144 329T237 266T280 228Q280 225 276 225Q260 225 213 250Q167 274 128 302T52 368T-4 451T-25 548Q-25 659 147 659Q318 659 593 563Q594 567 597 579T604 599T612 617T624 632T639 637Q658
637 674 617T690 578Q690 568 684 568Q677 568 666 577T653 586Q645 586 638 573T629 550Q749 509 873 509Q894 509 912 514T940 524T952 529Q965 529 965 520Q965 495 927 484T857 473Q806 473 737 487T621 522Q616 506 591 437T554 329Q561 329 630 328T724 326Q742
326 753 322T765 311Q765 300 730 300Q701 300 624 297T543 294Q525 229 488 152T412 31Q616 -68 750 -68Q801 -68 843 -40T885 38Q885 61 869 84T853 114Q853 134 869 134Q883 134 896 108T910 45Q910 -26 855 -65T725 -105Q676 -105 611 -86T510 -52T400 -2Q387
4 380 7Q292 -75 161 -75Q111 -75 72 -56T33 9T69 83T153 112Q236 112 382 45Q431 109 503 292Q498 292 476 292T441 291ZM359 18Q316 38 247 55T134 72Q67 72 67 31Q67 6 94 -13T152 -40T208 -48Q293 -48 359 18ZM865 796Q843 782 810 754T750 707T707 684H704Q701
684 701 686Q701 704 835 830Q841 835 847 835Q856 835 863 826T871 808Q871 804 870 801T865 796Z" />
<glyph unicode="&#xca;" glyph-name="Ecircumflex" horiz-adv-x="935" d="M441 291Q438 291 435 291T429 291T422 291T416 291T410 291T404 292T400 294T396 296T393 300T392 305Q392 313 399 321T414 330Q423 330 433 330Q447 330 474 330T514 329Q526 363 549
432T584 537Q328 612 195 612Q166 612 138 608T79 594T28 562T8 509Q8 462 50 412T144 329T237 266T280 228Q280 225 276 225Q260 225 213 250Q167 274 128 302T52 368T-4 451T-25 548Q-25 659 147 659Q318 659 593 563Q594 567 597 579T604 599T612 617T624 632T639
637Q658 637 674 617T690 578Q690 568 684 568Q677 568 666 577T653 586Q645 586 638 573T629 550Q749 509 873 509Q894 509 912 514T940 524T952 529Q965 529 965 520Q965 495 927 484T857 473Q806 473 737 487T621 522Q616 506 591 437T554 329Q561 329 630 328T724
326Q742 326 753 322T765 311Q765 300 730 300Q701 300 624 297T543 294Q525 229 488 152T412 31Q616 -68 750 -68Q801 -68 843 -40T885 38Q885 61 869 84T853 114Q853 134 869 134Q883 134 896 108T910 45Q910 -26 855 -65T725 -105Q676 -105 611 -86T510 -52T400
-2Q387 4 380 7Q292 -75 161 -75Q111 -75 72 -56T33 9T69 83T153 112Q236 112 382 45Q431 109 503 292Q498 292 476 292T441 291ZM359 18Q316 38 247 55T134 72Q67 72 67 31Q67 6 94 -13T152 -40T208 -48Q293 -48 359 18ZM833 696Q820 707 793 737T755 782Q742
770 699 736T647 696Q644 694 642 694Q639 694 639 697Q639 700 643 706Q653 718 706 767T768 819Q773 817 802 772T840 709Q841 706 841 702Q840 696 836 695Q836 695 835 695T833 696Z" />
<glyph unicode="&#xcb;" glyph-name="Edieresis" horiz-adv-x="935" d="M441 291Q438 291 435 291T429 291T422 291T416 291T410 291T404 292T400 294T396 296T393 300T392 305Q392 313 399 321T414 330Q423 330 433 330Q447 330 474 330T514 329Q526 363 549
432T584 537Q328 612 195 612Q166 612 138 608T79 594T28 562T8 509Q8 462 50 412T144 329T237 266T280 228Q280 225 276 225Q260 225 213 250Q167 274 128 302T52 368T-4 451T-25 548Q-25 659 147 659Q318 659 593 563Q594 567 597 579T604 599T612 617T624 632T639
637Q658 637 674 617T690 578Q690 568 684 568Q677 568 666 577T653 586Q645 586 638 573T629 550Q749 509 873 509Q894 509 912 514T940 524T952 529Q965 529 965 520Q965 495 927 484T857 473Q806 473 737 487T621 522Q616 506 591 437T554 329Q561 329 630 328T724
326Q742 326 753 322T765 311Q765 300 730 300Q701 300 624 297T543 294Q525 229 488 152T412 31Q616 -68 750 -68Q801 -68 843 -40T885 38Q885 61 869 84T853 114Q853 134 869 134Q883 134 896 108T910 45Q910 -26 855 -65T725 -105Q676 -105 611 -86T510 -52T400
-2Q387 4 380 7Q292 -75 161 -75Q111 -75 72 -56T33 9T69 83T153 112Q236 112 382 45Q431 109 503 292Q498 292 476 292T441 291ZM359 18Q316 38 247 55T134 72Q67 72 67 31Q67 6 94 -13T152 -40T208 -48Q293 -48 359 18ZM873 724Q873 713 862 706T839 699Q820
699 820 731Q820 733 820 734T820 737T820 740Q821 758 843 775T881 792Q886 792 887 789Q887 777 880 752T873 724ZM721 724Q721 713 710 706T687 699Q668 699 668 731Q668 733 668 734T668 737T668 740Q668 749 675 759T692 776T712 787T729 792Q734 792 735
789Q735 777 728 752T721 724Z" />
<glyph unicode="&#xcc;" glyph-name="Igrave" horiz-adv-x="458" d="M414 587Q411 587 359 597T282 607Q254 607 233 600T200 580T188 548Q188 510 235 463Q238 460 240 457T244 450T246 444Q246 442 246 442T243 441Q236 441 216 459Q162 509 162 555Q162 594
199 618T298 642Q311 642 325 641T355 637Q360 636 400 628T480 614T545 608Q575 608 582 617Q585 620 588 621Q594 621 594 613Q594 610 593 606T587 597T577 586Q569 579 557 576T528 572Q508 572 453 581Q451 576 429 498T391 372T347 250T285 116T213 15Q309
-28 388 -28Q448 -28 448 0Q448 8 444 17T436 33T432 43Q432 47 434 50T439 53Q447 50 453 35T459 2Q459 -27 441 -47T383 -67Q345 -67 287 -51T188 -17Q142 -58 79 -58Q49 -58 29 -47T9 -14Q9 10 32 32T89 54Q123 54 185 27Q227 78 267 164T330 319T380 477T414
587ZM162 -5Q147 2 115 12T59 22Q25 22 25 -2Q25 -21 40 -32T78 -44Q123 -43 162 -5ZM541 708Q543 706 543 704Q543 703 542 703T539 702Q525 702 472 728T363 785Q354 790 354 800Q354 804 356 809T361 818T369 824T378 827T386 824Q406 808 443 785T506 742T541
708Z" />
<glyph unicode="&#xcd;" glyph-name="Iacute" horiz-adv-x="458" d="M414 587Q411 587 359 597T282 607Q254 607 233 600T200 580T188 548Q188 510 235 463Q238 460 240 457T244 450T246 444Q246 442 246 442T243 441Q236 441 216 459Q162 509 162 555Q162 594
199 618T298 642Q311 642 325 641T355 637Q360 636 400 628T480 614T545 608Q575 608 582 617Q585 620 588 621Q594 621 594 613Q594 610 593 606T587 597T577 586Q569 579 557 576T528 572Q508 572 453 581Q451 576 429 498T391 372T347 250T285 116T213 15Q309
-28 388 -28Q448 -28 448 0Q448 8 444 17T436 33T432 43Q432 47 434 50T439 53Q447 50 453 35T459 2Q459 -27 441 -47T383 -67Q345 -67 287 -51T188 -17Q142 -58 79 -58Q49 -58 29 -47T9 -14Q9 10 32 32T89 54Q123 54 185 27Q227 78 267 164T330 319T380 477T414
587ZM162 -5Q147 2 115 12T59 22Q25 22 25 -2Q25 -21 40 -32T78 -44Q123 -43 162 -5ZM578 800Q556 786 523 758T463 711T420 688H417Q414 688 414 690Q414 708 548 834Q551 837 554 838T560 839Q569 839 576 830T584 812Q584 808 583 805T578 800Z" />
<glyph unicode="&#xce;" glyph-name="Icircumflex" horiz-adv-x="458" d="M414 587Q411 587 359 597T282 607Q254 607 233 600T200 580T188 548Q188 510 235 463Q238 460 240 457T244 450T246 444Q246 442 246 442T243 441Q236 441 216 459Q162 509 162 555Q162
594 199 618T298 642Q311 642 325 641T355 637Q360 636 400 628T480 614T545 608Q575 608 582 617Q585 620 588 621Q594 621 594 613Q594 610 593 606T587 597T577 586Q569 579 557 576T528 572Q508 572 453 581Q451 576 429 498T391 372T347 250T285 116T213 15Q309
-28 388 -28Q448 -28 448 0Q448 8 444 17T436 33T432 43Q432 47 434 50T439 53Q447 50 453 35T459 2Q459 -27 441 -47T383 -67Q345 -67 287 -51T188 -17Q142 -58 79 -58Q49 -58 29 -47T9 -14Q9 10 32 32T89 54Q123 54 185 27Q227 78 267 164T330 319T380 477T414
587ZM162 -5Q147 2 115 12T59 22Q25 22 25 -2Q25 -21 40 -32T78 -44Q123 -43 162 -5ZM558 714Q545 725 518 755T480 800Q467 788 424 754T372 714Q369 712 367 712Q364 712 364 715Q364 716 365 718T368 724Q378 736 431 785T493 837Q498 835 527 790T565 727Q566
724 566 720Q566 718 566 717T564 714T561 713Q561 713 560 713T558 714Z" />
<glyph unicode="&#xcf;" glyph-name="Idieresis" horiz-adv-x="458" d="M414 587Q411 587 359 597T282 607Q254 607 233 600T200 580T188 548Q188 510 235 463Q238 460 240 457T244 450T246 444Q246 442 246 442T243 441Q236 441 216 459Q162 509 162 555Q162
594 199 618T298 642Q311 642 325 641T355 637Q360 636 400 628T480 614T545 608Q575 608 582 617Q585 620 588 621Q594 621 594 613Q594 610 593 606T587 597T577 586Q569 579 557 576T528 572Q508 572 453 581Q451 576 429 498T391 372T347 250T285 116T213 15Q309
-28 388 -28Q448 -28 448 0Q448 8 444 17T436 33T432 43Q432 47 434 50T439 53Q447 50 453 35T459 2Q459 -27 441 -47T383 -67Q345 -67 287 -51T188 -17Q142 -58 79 -58Q49 -58 29 -47T9 -14Q9 10 32 32T89 54Q123 54 185 27Q227 78 267 164T330 319T380 477T414
587ZM162 -5Q147 2 115 12T59 22Q25 22 25 -2Q25 -21 40 -32T78 -44Q123 -43 162 -5ZM562 749Q562 738 551 731T528 724Q509 724 509 756Q509 760 509 765Q509 774 516 784T533 801T553 812T570 817Q575 817 576 814Q576 802 569 777T562 749ZM410 749Q410 738
399 731T376 724Q357 724 357 756Q357 760 357 765Q358 783 380 800T418 817Q423 817 424 814Q424 802 417 777T410 749Z" />
<glyph unicode="&#xd0;" glyph-name="Eth" horiz-adv-x="775" d="M12 247Q12 250 13 253T17 257T22 260T28 262T36 263T45 264T55 264Q71 264 103 262Q119 458 156 603Q154 603 152 603T148 603Q140 603 131 603T114 601T100 598Q98 597 96 597Q89 597 89 607Q89
618 99 629T125 640H164Q169 668 182 681Q203 692 219 692Q226 692 229 690T233 681Q225 663 218 643Q239 644 262 644Q306 644 350 639T440 623T527 594T605 552T668 497T709 428T725 344Q725 271 675 200Q627 133 540 84T365 13T204 -9Q98 -9 93 30Q92 36 94
39T106 40Q98 78 98 142Q98 180 101 228Q82 227 48 227Q39 227 31 229T18 236T12 247ZM144 105Q146 37 175 27Q200 18 234 18Q326 18 443 73T614 197Q688 292 688 377Q688 465 605 520T390 594Q307 606 248 606Q238 606 228 606T208 605Q158 434 146 262Q165 262
196 262T248 261Q263 261 263 257Q263 251 248 247Q222 238 144 231Q142 199 142 168T144 105Z" />
<glyph unicode="&#xd1;" glyph-name="Ntilde" horiz-adv-x="966" d="M1020 451Q1026 446 1026 443Q1024 439 1017 438Q1009 438 1002 442Q978 453 941 502Q929 306 895 181Q863 63 832 9T771 -46Q740 -46 710 15T659 165T626 349T613 518Q613 528 619 535T633
543Q641 543 646 535T652 511Q658 431 667 354T690 190T726 50T773 -3Q819 -3 875 197Q885 231 892 276T904 366T911 449T913 517Q913 524 913 529T913 540Q903 555 898 563T887 584T878 610T875 638Q875 642 875 646T876 653T878 660T880 665T883 669T886 672T890
673Q894 673 898 670T907 661Q918 648 944 580Q989 462 1020 451ZM16 111Q16 129 20 143T29 158Q37 158 39 131Q39 119 43 100T56 55T80 3T113 -44T160 -80T219 -94Q223 -94 226 -94T233 -93Q274 -89 315 -46T389 57T455 201T509 349T553 486T582 578Q562 584 495
599T406 617Q355 625 317 625Q293 625 275 622T246 612T229 597T223 576Q223 542 268 494T393 395Q398 392 397 389T388 386Q305 406 255 456T205 560Q205 604 242 632T352 660Q369 660 388 658T429 653T469 645T511 635T548 626T583 617T610 609Q617 607 624 605T637
599T648 593T656 587T659 581Q659 577 651 575T624 572H617Q614 563 593 494T551 363T501 223T448 102Q391 -5 328 -66T201 -128Q123 -128 54 -30Q16 24 16 111ZM666 722Q665 722 665 722T664 724Q664 731 680 745T707 765Q723 775 743 775Q760 775 791 765T838
754Q862 754 880 775Q886 775 886 771Q886 764 872 750T846 729Q833 721 819 721Q801 721 769 734T720 748Q703 748 687 735T666 722Z" />
<glyph unicode="&#xd2;" glyph-name="Ograve" horiz-adv-x="796" d="M496 684Q574 684 574 645Q574 623 547 592Q788 560 788 343Q788 270 759 204T680 90T567 5T435 -49T298 -67Q238 -67 187 -52T95 -5T31 77T8 193Q8 364 162 525Q111 507 90 495Q85 493 81 491T73
487T66 484T59 482T54 481T50 480T46 479Q42 480 41 482Q41 493 82 514Q142 546 205 565Q320 663 457 681Q459 681 461 681T465 682T469 682T474 683T478 683T482 683T487 683T491 684T496 684ZM518 595Q531 619 531 632Q531 653 493 653Q489 653 485 653T477 653T467
652Q367 642 284 585Q354 599 433 599Q453 599 474 598T518 595ZM61 206Q61 156 74 115T111 45T167 -3T238 -32T319 -42Q377 -42 437 -25T551 25T649 104T717 211T743 342Q743 432 685 496T534 571Q527 562 509 543T450 491T371 438Q325 416 315 416Q312 416 312
417Q312 427 367 463Q445 515 503 573Q480 574 455 574Q398 574 342 567T235 547Q147 467 104 379T61 206ZM603 727Q605 725 605 723Q605 722 604 722T601 721Q587 721 534 747T425 804Q416 809 416 819Q416 823 418 828T423 837T431 843T440 846T448 843Q468 827
505 804T568 761T603 727Z" />
<glyph unicode="&#xd3;" glyph-name="Oacute" horiz-adv-x="796" d="M496 684Q574 684 574 645Q574 623 547 592Q788 560 788 343Q788 270 759 204T680 90T567 5T435 -49T298 -67Q238 -67 187 -52T95 -5T31 77T8 193Q8 364 162 525Q111 507 90 495Q85 493 81 491T73
487T66 484T59 482T54 481T50 480T46 479Q42 480 41 482Q41 493 82 514Q142 546 205 565Q320 663 457 681Q459 681 461 681T465 682T469 682T474 683T478 683T482 683T487 683T491 684T496 684ZM518 595Q531 619 531 632Q531 653 493 653Q489 653 485 653T477 653T467
652Q367 642 284 585Q354 599 433 599Q453 599 474 598T518 595ZM61 206Q61 156 74 115T111 45T167 -3T238 -32T319 -42Q377 -42 437 -25T551 25T649 104T717 211T743 342Q743 432 685 496T534 571Q527 562 509 543T450 491T371 438Q325 416 315 416Q312 416 312
417Q312 427 367 463Q445 515 503 573Q480 574 455 574Q398 574 342 567T235 547Q147 467 104 379T61 206ZM639 811Q617 797 584 769T524 722T481 699H478Q475 699 475 701Q475 719 609 845Q612 848 615 849T621 850Q624 850 628 849T635 844T640 838T643 830T645
823T644 816T639 811Z" />
<glyph unicode="&#xd4;" glyph-name="Ocircumflex" horiz-adv-x="796" d="M496 684Q574 684 574 645Q574 623 547 592Q788 560 788 343Q788 270 759 204T680 90T567 5T435 -49T298 -67Q238 -67 187 -52T95 -5T31 77T8 193Q8 364 162 525Q111 507 90 495Q85 493
81 491T73 487T66 484T59 482T54 481T50 480T46 479Q42 480 41 482Q41 493 82 514Q142 546 205 565Q320 663 457 681Q459 681 461 681T465 682T469 682T474 683T478 683T482 683T487 683T491 684T496 684ZM518 595Q531 619 531 632Q531 653 493 653Q489 653 485
653T477 653T467 652Q367 642 284 585Q354 599 433 599Q453 599 474 598T518 595ZM61 206Q61 156 74 115T111 45T167 -3T238 -32T319 -42Q377 -42 437 -25T551 25T649 104T717 211T743 342Q743 432 685 496T534 571Q527 562 509 543T450 491T371 438Q325 416 315
416Q312 416 312 417Q312 427 367 463Q445 515 503 573Q480 574 455 574Q398 574 342 567T235 547Q147 467 104 379T61 206ZM614 724Q601 735 574 765T536 810Q523 798 480 764T428 724Q425 722 423 722Q420 722 420 725Q420 726 421 728T424 734Q434 746 487 795T549
847Q554 845 583 800T621 737Q622 734 622 730Q621 724 617 723Q617 723 616 723T614 724Z" />
<glyph unicode="&#xd5;" glyph-name="Otilde" horiz-adv-x="796" d="M496 684Q574 684 574 645Q574 623 547 592Q788 560 788 343Q788 270 759 204T680 90T567 5T435 -49T298 -67Q238 -67 187 -52T95 -5T31 77T8 193Q8 364 162 525Q111 507 90 495Q85 493 81 491T73
487T66 484T59 482T54 481T50 480T46 479Q42 480 41 482Q41 493 82 514Q142 546 205 565Q320 663 457 681Q459 681 461 681T465 682T469 682T474 683T478 683T482 683T487 683T491 684T496 684ZM518 595Q531 619 531 632Q531 653 493 653Q489 653 485 653T477 653T467
652Q367 642 284 585Q354 599 433 599Q453 599 474 598T518 595ZM61 206Q61 156 74 115T111 45T167 -3T238 -32T319 -42Q377 -42 437 -25T551 25T649 104T717 211T743 342Q743 432 685 496T534 571Q527 562 509 543T450 491T371 438Q325 416 315 416Q312 416 312
417Q312 427 367 463Q445 515 503 573Q480 574 455 574Q398 574 342 567T235 547Q147 467 104 379T61 206ZM359 759Q357 759 357 761Q357 768 373 782T400 802Q416 812 436 812Q453 812 484 802T531 791Q555 791 573 812Q579 812 579 808Q579 801 565 787T539 766Q526
758 512 758Q494 758 462 771T413 785Q396 785 380 772T359 759Z" />
<glyph unicode="&#xd6;" glyph-name="Odieresis" horiz-adv-x="796" d="M496 684Q574 684 574 645Q574 623 547 592Q788 560 788 343Q788 270 759 204T680 90T567 5T435 -49T298 -67Q238 -67 187 -52T95 -5T31 77T8 193Q8 364 162 525Q111 507 90 495Q85 493 81
491T73 487T66 484T59 482T54 481T50 480T46 479Q42 480 41 482Q41 493 82 514Q142 546 205 565Q320 663 457 681Q459 681 461 681T465 682T469 682T474 683T478 683T482 683T487 683T491 684T496 684ZM518 595Q531 619 531 632Q531 653 493 653Q489 653 485 653T477
653T467 652Q367 642 284 585Q354 599 433 599Q453 599 474 598T518 595ZM61 206Q61 156 74 115T111 45T167 -3T238 -32T319 -42Q377 -42 437 -25T551 25T649 104T717 211T743 342Q743 432 685 496T534 571Q527 562 509 543T450 491T371 438Q325 416 315 416Q312
416 312 417Q312 427 367 463Q445 515 503 573Q480 574 455 574Q398 574 342 567T235 547Q147 467 104 379T61 206ZM590 767Q590 756 579 749T556 742Q537 742 537 774Q537 776 537 778T537 783Q537 792 544 802T561 819T581 830T598 835Q603 835 604 832Q604 820
597 795T590 767ZM438 767Q438 756 427 749T404 742Q385 742 385 774Q385 778 385 783Q386 801 408 818T446 835Q451 835 452 832Q452 820 445 795T438 767Z" />
<glyph unicode="&#xd7;" glyph-name="multiply" horiz-adv-x="440" d="M371 86Q363 88 354 95T338 108T321 126T306 141Q299 147 232 214L115 91Q111 87 106 87Q100 87 96 93T91 106Q91 111 94 114Q119 139 149 171L211 235Q184 262 151 297T94 356Q93 358 92
360T91 364Q91 371 95 377T106 383Q111 383 115 379L232 255L306 329Q361 384 380 390H383Q386 390 386 387Q386 373 361 347L251 235Q277 208 319 168T371 119Q385 104 385 94Q385 85 376 85Q373 85 371 86Z" />
<glyph unicode="&#xd8;" glyph-name="Oslash" horiz-adv-x="782" d="M484 705Q555 705 555 668Q555 646 531 614Q570 607 576 605Q634 671 668 703Q672 707 677 707Q681 707 684 705T689 698T691 689Q691 685 690 681T685 673Q663 650 613 592Q749 535 749 371Q749
283 714 208T622 85T494 9T348 -18Q258 -18 194 15Q173 -23 167 -43Q161 -61 161 -75Q161 -94 172 -100Q176 -102 172 -109Q164 -119 151 -119Q127 -119 127 -87Q127 -42 165 31Q62 103 62 248Q62 329 95 408T195 549Q145 527 133 519L126 517Q124 517 122 518T119
521T117 526Q117 533 126 537Q192 573 233 588Q332 683 453 703Q470 705 484 705ZM594 569Q488 443 380 295T211 45Q269 6 355 6Q415 6 475 31T587 100T670 215T703 368Q703 433 674 486T594 569ZM253 569Q180 514 145 433T110 262Q110 136 184 66Q229 144 382
358Q466 477 559 585Q541 591 521 594Q517 590 514 587T508 582T503 579T499 577T496 576Q494 576 493 577T491 580Q491 588 500 596Q480 597 459 597Q355 597 253 569ZM514 617Q523 638 523 651Q523 675 485 675Q475 675 462 674Q416 669 367 649T285 603Q341
621 432 621Q474 621 514 617Z" />
<glyph unicode="&#xd9;" glyph-name="Ugrave" horiz-adv-x="885" d="M363 -38Q343 -38 332 -25T321 12Q321 27 324 45T336 87T349 127T368 173T386 213T406 255T421 287Q422 290 433 313T452 351T472 393T493 443T510 490T523 538T528 578Q528 606 513 615T460
625Q369 625 275 572T119 431T56 249Q56 206 74 179T131 152Q173 152 209 168T265 203T299 238T317 254T321 245Q311 202 258 165T132 128Q84 128 49 162T14 260Q14 344 59 419T175 544T324 621T475 650Q575 650 575 574Q575 546 563 506T536 435T484 324Q474 303
469 292Q467 289 459 272T444 239T426 200T407 157T391 114T379 73T375 41Q375 10 398 10Q406 10 418 14T447 29T485 55Q584 130 726 322T896 597Q911 616 933 616Q944 616 951 607T958 575Q939 546 879 390T799 165Q769 59 769 24Q769 -11 794 -11Q816 -11 866
30Q878 41 883 41Q887 41 887 36T884 24T878 15Q797 -58 748 -58Q719 -58 719 -15Q719 32 764 183Q810 333 866 465Q795 349 674 214T474 17Q439 -10 411 -24T363 -38ZM821 695Q823 693 823 691Q823 690 822 690T819 689Q805 689 752 715T643 772Q634 777 634 787Q634
791 636 796T641 805T649 811T658 814T666 811Q686 795 723 772T786 729T821 695Z" />
<glyph unicode="&#xda;" glyph-name="Uacute" horiz-adv-x="885" d="M363 -38Q343 -38 332 -25T321 12Q321 27 324 45T336 87T349 127T368 173T386 213T406 255T421 287Q422 290 433 313T452 351T472 393T493 443T510 490T523 538T528 578Q528 606 513 615T460
625Q369 625 275 572T119 431T56 249Q56 206 74 179T131 152Q173 152 209 168T265 203T299 238T317 254T321 245Q311 202 258 165T132 128Q84 128 49 162T14 260Q14 344 59 419T175 544T324 621T475 650Q575 650 575 574Q575 546 563 506T536 435T484 324Q474 303
469 292Q467 289 459 272T444 239T426 200T407 157T391 114T379 73T375 41Q375 10 398 10Q406 10 418 14T447 29T485 55Q584 130 726 322T896 597Q911 616 933 616Q944 616 951 607T958 575Q939 546 879 390T799 165Q769 59 769 24Q769 -11 794 -11Q816 -11 866
30Q878 41 883 41Q887 41 887 36T884 24T878 15Q797 -58 748 -58Q719 -58 719 -15Q719 32 764 183Q810 333 866 465Q795 349 674 214T474 17Q439 -10 411 -24T363 -38ZM877 805Q855 791 822 763T762 716T719 693H716Q713 693 713 695Q713 713 847 839Q853 844 859
844Q862 844 865 843T870 840T875 835T879 829T882 823T883 817Q883 813 882 810T877 805Z" />
<glyph unicode="&#xdb;" glyph-name="Ucircumflex" horiz-adv-x="885" d="M363 -38Q343 -38 332 -25T321 12Q321 27 324 45T336 87T349 127T368 173T386 213T406 255T421 287Q422 290 433 313T452 351T472 393T493 443T510 490T523 538T528 578Q528 606 513 615T460
625Q369 625 275 572T119 431T56 249Q56 206 74 179T131 152Q173 152 209 168T265 203T299 238T317 254T321 245Q311 202 258 165T132 128Q84 128 49 162T14 260Q14 344 59 419T175 544T324 621T475 650Q575 650 575 574Q575 546 563 506T536 435T484 324Q474 303
469 292Q467 289 459 272T444 239T426 200T407 157T391 114T379 73T375 41Q375 10 398 10Q406 10 418 14T447 29T485 55Q584 130 726 322T896 597Q911 616 933 616Q944 616 951 607T958 575Q939 546 879 390T799 165Q769 59 769 24Q769 -11 794 -11Q816 -11 866
30Q878 41 883 41Q887 41 887 36T884 24T878 15Q797 -58 748 -58Q719 -58 719 -15Q719 32 764 183Q810 333 866 465Q795 349 674 214T474 17Q439 -10 411 -24T363 -38ZM839 683Q826 694 799 724T761 769Q748 757 705 723T653 683Q650 681 648 681Q645 681 645 684Q645
687 649 693Q659 705 712 754T774 806Q779 804 808 759T846 696Q847 693 847 689Q846 683 842 682L839 683Z" />
<glyph unicode="&#xdc;" glyph-name="Udieresis" horiz-adv-x="885" d="M363 -38Q343 -38 332 -25T321 12Q321 27 324 45T336 87T349 127T368 173T386 213T406 255T421 287Q422 290 433 313T452 351T472 393T493 443T510 490T523 538T528 578Q528 606 513 615T460
625Q369 625 275 572T119 431T56 249Q56 206 74 179T131 152Q173 152 209 168T265 203T299 238T317 254T321 245Q311 202 258 165T132 128Q84 128 49 162T14 260Q14 344 59 419T175 544T324 621T475 650Q575 650 575 574Q575 546 563 506T536 435T484 324Q474 303
469 292Q467 289 459 272T444 239T426 200T407 157T391 114T379 73T375 41Q375 10 398 10Q406 10 418 14T447 29T485 55Q584 130 726 322T896 597Q911 616 933 616Q944 616 951 607T958 575Q939 546 879 390T799 165Q769 59 769 24Q769 -11 794 -11Q816 -11 866
30Q878 41 883 41Q887 41 887 36T884 24T878 15Q797 -58 748 -58Q719 -58 719 -15Q719 32 764 183Q810 333 866 465Q795 349 674 214T474 17Q439 -10 411 -24T363 -38ZM856 747Q856 736 845 729T822 722Q803 722 803 754Q803 756 803 758T803 763Q803 772 810 782T827
799T847 810T864 815Q869 815 870 812Q870 800 863 775T856 747ZM704 747Q704 736 693 729T670 722Q651 722 651 754Q651 756 651 757T651 760T651 763Q651 772 658 782T675 799T695 810T712 815Q717 815 718 812Q718 800 711 775T704 747Z" />
<glyph unicode="&#xdd;" glyph-name="Yacute" horiz-adv-x="955" d="M1022 605Q1022 504 931 292T762 -51Q730 -105 688 -160T590 -272T471 -364T349 -400Q295 -400 251 -369T207 -287Q207 -268 214 -239T233 -207Q235 -208 236 -210T239 -214T240 -220T241 -227T241
-234Q241 -242 240 -255T239 -271Q239 -315 276 -339T360 -364Q412 -364 468 -331T574 -242T659 -139T726 -40Q762 18 795 91T848 216T900 360T948 492Q911 430 806 306T576 70T395 -42Q363 -42 363 2Q363 58 398 145T474 309T551 471T586 609Q586 639 568 648T517
658Q452 658 377 622T239 529T136 400T94 261Q94 163 193 163Q218 163 240 169T281 190T310 212T335 238T352 257Q367 272 367 257Q367 246 353 228Q325 188 276 162T177 136Q119 136 81 176T43 274Q43 343 93 418T216 551T373 646T524 684Q569 684 601 665T633
604Q633 558 602 480T532 331T463 180T431 50Q431 17 454 17Q500 17 599 119T776 322T891 481T970 635Q978 654 995 654Q1010 654 1016 638T1022 605ZM956 808Q934 794 901 766T841 719T798 696Q797 696 797 696T795 696Q792 696 792 698Q792 716 926 842Q928 844
930 845T934 846T938 847Q947 847 954 838T962 820Q962 816 961 813T956 808Z" />
<glyph unicode="&#xde;" glyph-name="Thorn" horiz-adv-x="298" d="M390 269Q390 178 337 120T190 61Q116 61 77 94Q39 17 2 -155Q1 -160 1 -165Q1 -173 5 -183T9 -201Q9 -214 -2 -233Q-4 -236 -7 -239T-13 -245T-20 -249T-28 -252T-36 -253Q-48 -253 -56 -244T-64
-217Q-64 -166 44 132Q39 143 39 155Q39 187 69 205Q162 490 175 540Q175 541 160 543T145 553Q145 564 166 572L187 580Q204 626 212 648T227 684T235 698T243 706Q254 717 267 717Q274 717 279 712T284 698Q284 687 278 674L240 583Q301 544 345 458T390 269ZM189
87Q227 87 255 103T300 146T325 206T333 275Q333 302 329 329Q309 460 227 531Q195 459 94 124Q130 87 189 87Z" />
<glyph unicode="&#xdf;" glyph-name="germandbls" horiz-adv-x="610" d="M-63 -206Q-100 -206 -120 -188T-141 -140Q-141 -110 -128 -104Q-123 -101 -119 -103T-116 -115Q-117 -119 -117 -125Q-117 -140 -110 -155Q-102 -171 -86 -179T-53 -187Q5 -187 44 -84Q72
-15 117 136T178 346H113Q106 346 103 347T100 352Q100 357 107 362T121 367H185Q232 534 251 575Q292 664 402 664Q478 664 519 627Q562 588 562 553Q562 492 441 443Q417 433 402 426T369 408T342 383T333 353Q333 346 335 338Q337 330 342 322T357 307T375 294T399
281T422 269T448 258T473 247Q482 242 489 239T506 230T521 220T535 210T547 198T556 185T562 171T564 155Q564 152 564 150T563 145Q554 83 482 37T322 -10Q302 -10 287 -6T263 7T251 24T247 43Q247 58 254 66T278 75Q281 75 282 71T284 59T289 46Q307 17 362
17Q364 17 366 17T372 17Q422 17 463 43T514 116Q515 122 515 129Q515 170 462 200Q449 208 401 231T327 273T295 315Q294 320 293 324T292 333T291 342Q291 376 319 404T417 455Q460 469 491 493T522 547Q522 578 486 610Q447 643 395 643Q367 643 343 631T304
593Q271 536 220 346Q155 106 116 -16Q102 -60 84 -94T48 -149T10 -183T-28 -201T-63 -206Z" />
<glyph unicode="&#xe0;" glyph-name="agrave" horiz-adv-x="329" d="M332 80Q331 79 323 72T310 60T296 48T279 34T262 22T245 12T229 5T214 2Q193 2 189 27Q189 69 222 182Q88 -3 30 -3Q6 -3 6 33Q6 79 33 157T101 299T171 363H174L185 371Q194 381 213 381Q228
381 255 373T285 365Q289 365 295 373T311 381Q336 381 336 359Q336 350 333 339T323 314T315 296Q314 294 306 290T296 283Q274 221 257 151T240 64Q240 39 254 39T288 56T324 90T340 107Q342 107 342 103Q342 88 332 80ZM266 346Q260 346 246 348T221 350Q207
350 191 346Q166 339 109 228T52 61Q52 44 62 44Q83 44 136 105T207 192Q232 232 253 278T274 340Q274 346 269 346H266ZM350 463Q351 462 351 461T352 459Q350 457 348 457Q322 457 172 540Q163 545 163 555Q163 559 165 564T170 573T178 579T187 582T195 579Q215
563 252 540T315 497T350 463Z" />
<glyph unicode="&#xe1;" glyph-name="aacute" horiz-adv-x="329" d="M332 80Q331 79 323 72T310 60T296 48T279 34T262 22T245 12T229 5T214 2Q193 2 189 27Q189 69 222 182Q88 -3 30 -3Q6 -3 6 33Q6 79 33 157T101 299T171 363H174L185 371Q194 381 213 381Q228
381 255 373T285 365Q289 365 295 373T311 381Q336 381 336 359Q336 350 333 339T323 314T315 296Q314 294 306 290T296 283Q274 221 257 151T240 64Q240 39 254 39T288 56T324 90T340 107Q342 107 342 103Q342 88 332 80ZM266 346Q260 346 246 348T221 350Q207
350 191 346Q166 339 109 228T52 61Q52 44 62 44Q83 44 136 105T207 192Q232 232 253 278T274 340Q274 346 269 346H266ZM393 558Q371 544 338 516T278 469T235 446Q233 446 232 446Q230 447 229 448Q229 466 363 592Q366 595 369 596T375 597Q384 597 391 588T399
570Q399 566 398 563T393 558Z" />
<glyph unicode="&#xe2;" glyph-name="acircumflex" horiz-adv-x="329" d="M332 80Q331 79 323 72T310 60T296 48T279 34T262 22T245 12T229 5T214 2Q193 2 189 27Q189 69 222 182Q88 -3 30 -3Q6 -3 6 33Q6 79 33 157T101 299T171 363H174L185 371Q194 381 213
381Q228 381 255 373T285 365Q289 365 295 373T311 381Q336 381 336 359Q336 350 333 339T323 314T315 296Q314 294 306 290T296 283Q274 221 257 151T240 64Q240 39 254 39T288 56T324 90T340 107Q342 107 342 103Q342 88 332 80ZM266 346Q260 346 246 348T221
350Q207 350 191 346Q166 339 109 228T52 61Q52 44 62 44Q83 44 136 105T207 192Q232 232 253 278T274 340Q274 346 269 346H266ZM370 469Q357 480 330 510T292 555Q279 543 236 509T184 469Q181 467 179 467Q177 467 177 468T176 470Q176 473 180 479Q190 491
243 540T305 592Q310 590 339 545T377 482Q378 479 378 475Q378 468 373 468Q372 468 370 469Z" />
<glyph unicode="&#xe3;" glyph-name="atilde" horiz-adv-x="329" d="M332 80Q331 79 323 72T310 60T296 48T279 34T262 22T245 12T229 5T214 2Q193 2 189 27Q189 69 222 182Q88 -3 30 -3Q6 -3 6 33Q6 79 33 157T101 299T171 363H174L185 371Q194 381 213 381Q228
381 255 373T285 365Q289 365 295 373T311 381Q336 381 336 359Q336 350 333 339T323 314T315 296Q314 294 306 290T296 283Q274 221 257 151T240 64Q240 39 254 39T288 56T324 90T340 107Q342 107 342 103Q342 88 332 80ZM266 346Q260 346 246 348T221 350Q207
350 191 346Q166 339 109 228T52 61Q52 44 62 44Q83 44 136 105T207 192Q232 232 253 278T274 340Q274 346 269 346H266ZM176 487Q174 487 174 489Q174 496 190 510T217 530Q233 540 253 540Q270 540 301 530T348 519Q372 519 390 540Q396 540 396 536Q396 529
382 515T356 494Q343 486 329 486Q311 486 279 499T230 513Q213 513 197 500T176 487Z" />
<glyph unicode="&#xe4;" glyph-name="adieresis" horiz-adv-x="329" d="M332 80Q331 79 323 72T310 60T296 48T279 34T262 22T245 12T229 5T214 2Q193 2 189 27Q189 69 222 182Q88 -3 30 -3Q6 -3 6 33Q6 79 33 157T101 299T171 363H174L185 371Q194 381 213 381Q228
381 255 373T285 365Q289 365 295 373T311 381Q336 381 336 359Q336 350 333 339T323 314T315 296Q314 294 306 290T296 283Q274 221 257 151T240 64Q240 39 254 39T288 56T324 90T340 107Q342 107 342 103Q342 88 332 80ZM266 346Q260 346 246 348T221 350Q207
350 191 346Q166 339 109 228T52 61Q52 44 62 44Q83 44 136 105T207 192Q232 232 253 278T274 340Q274 346 269 346H266ZM379 509Q379 502 374 496T360 487T345 484Q326 484 326 516Q326 520 326 525Q327 543 349 560T387 577Q392 577 393 574Q393 562 386 537T379
509ZM227 509Q227 498 216 491T193 484Q174 484 174 516Q174 520 174 525Q175 543 197 560T235 577Q240 577 241 574Q241 562 234 537T227 509Z" />
<glyph unicode="&#xe5;" glyph-name="aring" horiz-adv-x="329" d="M332 80Q331 79 323 72T310 60T296 48T279 34T262 22T245 12T229 5T214 2Q193 2 189 27Q189 69 222 182Q88 -3 30 -3Q6 -3 6 33Q6 79 33 157T101 299T171 363H174L185 371Q194 381 213 381Q228
381 255 373T285 365Q289 365 295 373T311 381Q336 381 336 359Q336 350 333 339T323 314T315 296Q314 294 306 290T296 283Q274 221 257 151T240 64Q240 39 254 39T288 56T324 90T340 107Q342 107 342 103Q342 88 332 80ZM266 346Q260 346 246 348T221 350Q207
350 191 346Q166 339 109 228T52 61Q52 44 62 44Q83 44 136 105T207 192Q232 232 253 278T274 340Q274 346 269 346H266ZM364 527Q364 491 336 462T272 433Q254 433 243 443T231 471Q231 491 242 516T270 547Q284 576 321 576Q340 576 352 562T364 527ZM318 561Q303
561 288 548T263 516T254 480Q254 452 283 452Q308 452 326 475T344 527Q344 561 318 561Z" />
<glyph unicode="&#xe6;" glyph-name="ae" horiz-adv-x="470" d="M30 -3Q7 3 6 33Q6 79 33 158T101 300T171 363Q172 363 172 363T174 363L185 371Q194 381 213 381Q228 381 254 374T285 366Q288 366 288 368Q291 368 297 374T311 381Q333 381 335 364Q350 369
376 369Q383 372 389 372Q405 372 418 356T436 311Q442 279 442 262Q442 243 435 234Q414 208 380 199T309 190Q303 190 296 190T283 191T275 191Q274 191 273 191Q258 151 249 117T240 59Q240 19 270 19Q288 19 309 36T358 86T385 119Q389 125 393 125Q405 125
396 102Q379 71 339 34T269 -9Q267 -9 265 -9T259 -10Q235 -10 214 5T193 57Q193 69 196 83Q205 134 221 181Q201 153 182 128T133 70T77 17T30 -3ZM267 346H266Q260 346 253 347T237 349T221 350Q207 350 191 346Q167 340 114 237T53 73Q52 66 52 61Q52 44 62
44Q83 44 133 101T207 192Q233 235 253 279T274 340Q274 346 270 346H267ZM400 263Q400 273 397 288Q391 338 370 338Q356 338 336 313T303 263T282 219Q285 219 291 219T306 218T322 217T337 217T352 219T367 222Q386 227 392 234T400 263Z" />
<glyph unicode="&#xe7;" glyph-name="ccedilla" horiz-adv-x="231" d="M264 328Q264 307 255 291T234 274Q222 274 222 292Q222 298 226 314T230 337Q230 353 213 353Q201 353 176 337T137 307Q118 287 82 198T46 59Q46 22 75 22Q112 22 149 50T209 108T233 138Q238
136 238 131Q238 107 189 56T87 -5V-6Q66 -10 54 -28T41 -69Q41 -81 70 -117T99 -182Q99 -215 73 -238T15 -271T-50 -281Q-59 -281 -59 -270Q-59 -265 -50 -262Q-37 -258 -14 -256T23 -252T46 -235T57 -193Q57 -179 31 -143T5 -86Q5 -61 16 -39T46 -6Q4 4 4 63Q4
132 49 229T127 341Q142 347 159 356T189 370T217 375Q264 375 264 328Z" />
<glyph unicode="&#xe8;" glyph-name="egrave" horiz-adv-x="253" d="M263 311Q269 280 269 261Q269 239 254 224T215 202T172 193T136 190Q126 190 114 190T100 191Q67 107 67 59Q67 19 97 19Q118 19 146 45T195 98T220 125Q227 125 227 117Q227 89 172 40T86
-10Q61 -10 41 5T20 57Q20 68 23 83Q30 121 41 157T54 201Q39 205 39 217Q39 228 56 228H63Q103 307 109 319Q137 372 216 372Q250 372 263 311ZM227 263Q227 288 222 306T211 331T197 338Q177 338 150 295T109 219Q111 219 125 218T149 217Q190 217 208 226T227
263ZM278 441L280 437Q280 436 279 436T276 435Q250 435 100 518Q95 521 93 524T91 532T93 542T98 551T106 557T115 560Q117 560 118 560T120 559T123 557Q143 541 180 518T243 475T278 441Z" />
<glyph unicode="&#xe9;" glyph-name="eacute" horiz-adv-x="253" d="M263 311Q269 280 269 261Q269 239 254 224T215 202T172 193T136 190Q126 190 114 190T100 191Q67 107 67 59Q67 19 97 19Q118 19 146 45T195 98T220 125Q227 125 227 117Q227 89 172 40T86
-10Q61 -10 41 5T20 57Q20 68 23 83Q30 121 41 157T54 201Q39 205 39 217Q39 228 56 228H63Q103 307 109 319Q137 372 216 372Q250 372 263 311ZM227 263Q227 288 222 306T211 331T197 338Q177 338 150 295T109 219Q111 219 125 218T149 217Q190 217 208 226T227
263ZM341 532Q319 518 286 490T226 443T183 420Q181 420 180 420Q178 421 177 422Q177 440 311 566Q314 569 317 570T323 571Q332 571 339 562T347 544Q347 540 346 537T341 532Z" />
<glyph unicode="&#xea;" glyph-name="ecircumflex" horiz-adv-x="253" d="M263 311Q269 280 269 261Q269 239 254 224T215 202T172 193T136 190Q126 190 114 190T100 191Q67 107 67 59Q67 19 97 19Q118 19 146 45T195 98T220 125Q227 125 227 117Q227 89 172 40T86
-10Q61 -10 41 5T20 57Q20 68 23 83Q30 121 41 157T54 201Q39 205 39 217Q39 228 56 228H63Q103 307 109 319Q137 372 216 372Q250 372 263 311ZM227 263Q227 288 222 306T211 331T197 338Q177 338 150 295T109 219Q111 219 125 218T149 217Q190 217 208 226T227
263ZM321 457Q308 468 281 498T243 543Q230 531 187 497T135 457Q132 455 130 455Q128 455 128 456T127 458Q127 461 131 467Q141 479 194 528T256 580Q261 578 290 533T328 470Q329 467 329 463Q329 456 324 456Q323 456 321 457Z" />
<glyph unicode="&#xeb;" glyph-name="edieresis" horiz-adv-x="253" d="M263 311Q269 280 269 261Q269 239 254 224T215 202T172 193T136 190Q126 190 114 190T100 191Q67 107 67 59Q67 19 97 19Q118 19 146 45T195 98T220 125Q227 125 227 117Q227 89 172 40T86
-10Q61 -10 41 5T20 57Q20 68 23 83Q30 121 41 157T54 201Q39 205 39 217Q39 228 56 228H63Q103 307 109 319Q137 372 216 372Q250 372 263 311ZM227 263Q227 288 222 306T211 331T197 338Q177 338 150 295T109 219Q111 219 125 218T149 217Q190 217 208 226T227
263ZM321 472Q321 465 316 459T302 450T287 447Q268 447 268 479Q268 483 268 488Q269 506 291 523T329 540Q334 540 335 537Q335 525 328 500T321 472ZM169 472Q169 461 158 454T135 447Q116 447 116 479Q116 483 116 488Q117 506 139 523T177 540Q182 540 183
537Q183 525 176 500T169 472Z" />
<glyph unicode="&#xec;" glyph-name="igrave" horiz-adv-x="168" d="M198 379Q196 376 185 354T165 316T143 269T118 210T95 143T74 65Q73 60 73 57Q73 51 75 48T83 45Q95 45 118 61Q124 66 130 69T141 74T150 76Q153 76 155 75T158 71Q158 65 148 57T119 37T91
17Q63 -6 37 -6Q31 -6 27 -5T21 1T18 12Q18 21 22 33Q45 100 90 239Q92 246 93 250T94 257Q94 261 93 264T91 271Q91 273 91 276T94 283Q112 333 122 352Q127 362 138 370T161 383T183 388Q189 388 193 386T198 379ZM251 469Q253 467 253 465Q251 463 249 463Q223
463 73 546Q68 549 66 552T64 561Q64 570 72 579T88 588Q90 588 91 588T93 587T96 585Q116 569 153 546T216 503T251 469Z" />
<glyph unicode="&#xed;" glyph-name="iacute" horiz-adv-x="168" d="M198 379Q196 376 185 354T165 316T143 269T118 210T95 143T74 65Q73 60 73 57Q73 51 75 48T83 45Q95 45 118 61Q124 66 130 69T141 74T150 76Q153 76 155 75T158 71Q158 65 148 57T119 37T91
17Q63 -6 37 -6Q31 -6 27 -5T21 1T18 12Q18 21 22 33Q45 100 90 239Q92 246 93 250T94 257Q94 261 93 264T91 271Q91 273 91 276T94 283Q112 333 122 352Q127 362 138 370T161 383T183 388Q189 388 193 386T198 379ZM317 564Q295 550 262 522T202 475T159 452Q157
452 156 452Q154 453 153 454Q153 472 287 598Q290 601 293 602T299 603Q308 603 315 594T323 576Q323 572 322 569T317 564Z" />
<glyph unicode="&#xee;" glyph-name="icircumflex" horiz-adv-x="168" d="M198 379Q196 376 185 354T165 316T143 269T118 210T95 143T74 65Q73 60 73 57Q73 51 75 48T83 45Q95 45 118 61Q124 66 130 69T141 74T150 76Q153 76 155 75T158 71Q158 65 148 57T119
37T91 17Q63 -6 37 -6Q31 -6 27 -5T21 1T18 12Q18 21 22 33Q45 100 90 239Q92 246 93 250T94 257Q94 261 93 264T91 271Q91 273 91 276T94 283Q112 333 122 352Q127 362 138 370T161 383T183 388Q189 388 193 386T198 379ZM281 456Q268 467 241 497T203 542Q190
530 147 496T95 456Q92 454 90 454Q88 454 88 455T87 457Q87 458 88 460T91 466Q101 478 154 527T216 579Q221 577 250 532T288 469Q289 466 289 462Q289 455 284 455Q283 455 281 456Z" />
<glyph unicode="&#xef;" glyph-name="idieresis" horiz-adv-x="168" d="M198 379Q196 376 185 354T165 316T143 269T118 210T95 143T74 65Q73 60 73 57Q73 51 75 48T83 45Q95 45 118 61Q124 66 130 69T141 74T150 76Q153 76 155 75T158 71Q158 65 148 57T119 37T91
17Q63 -6 37 -6Q31 -6 27 -5T21 1T18 12Q18 21 22 33Q45 100 90 239Q92 246 93 250T94 257Q94 261 93 264T91 271Q91 273 91 276T94 283Q112 333 122 352Q127 362 138 370T161 383T183 388Q189 388 193 386T198 379ZM291 497Q291 490 286 484T272 475T257 472T245
477T239 489T238 504Q238 508 238 513Q239 531 261 548T299 565Q304 565 305 562Q305 550 298 525T291 497ZM139 497Q139 486 128 479T105 472Q86 472 86 504Q86 508 86 513Q87 531 109 548T147 565Q152 565 153 562Q153 550 146 525T139 497Z" />
<glyph unicode="&#xf0;" glyph-name="eth" horiz-adv-x="310" d="M203 541Q263 420 263 288Q263 154 194 65Q183 51 171 39T146 17T121 1T97 -9T75 -13Q50 -13 36 6T21 65Q21 86 25 111Q31 147 49 202T104 314T178 381Q189 383 202 383Q216 383 224 380Q222 422
166 522Q119 499 87 486L77 483Q67 483 67 493Q67 504 80 513Q98 525 151 548Q117 602 92 623Q84 630 84 640T91 658T109 666Q123 666 135 650Q168 607 191 566Q210 574 239 586T276 601Q284 604 288 604Q291 603 292 602Q292 600 288 596T278 587Q250 566 203
541ZM233 272Q233 276 233 278T233 284T233 290Q233 313 228 325T207 338Q205 338 204 338T200 337Q198 338 197 338T193 338Q172 338 144 289T96 186T70 102Q68 90 67 80T66 60Q66 11 94 11Q112 11 135 32T181 88T218 172T233 272Z" />
<glyph unicode="&#xf1;" glyph-name="ntilde" horiz-adv-x="326" d="M360 372Q309 287 265 177T221 12Q221 -6 229 -6Q232 -6 248 4T268 14Q274 14 274 8Q274 -4 252 -19T208 -34Q179 -34 179 9Q179 48 195 100T245 233T279 315Q284 328 284 335Q284 340 281 340Q276
340 259 322Q216 274 136 158T54 15Q53 8 35 -4T5 -17Q-2 -17 -3 -10Q-1 -13 34 90T85 239Q89 251 89 257Q89 261 88 264T86 270Q86 274 89 283Q112 347 128 367T177 388Q190 388 192 379Q110 211 94 139Q259 405 347 405Q367 405 367 392Q367 383 360 372ZM155
489Q153 489 153 491Q153 498 169 512T196 532Q212 542 232 542Q249 542 280 532T327 521Q351 521 369 542Q375 542 375 538Q375 531 361 517T335 496Q322 488 308 488Q290 488 258 501T209 515Q192 515 176 502T155 489Z" />
<glyph unicode="&#xf2;" glyph-name="ograve" horiz-adv-x="261" d="M303 295T303 287T288 272T261 264Q261 147 200 64T79 -19Q21 -19 21 65Q21 88 25 111Q30 137 43 178T77 267T128 348T190 382H197Q197 396 205 406T227 416Q241 415 252 358T284 298Q303 295
303 287ZM233 272Q224 277 211 307T193 338Q162 338 121 247T70 102Q66 79 66 60Q66 11 94 11Q134 11 183 92T233 272ZM313 464Q314 463 314 462T315 460Q315 459 314 459T311 458Q285 458 135 541Q132 543 130 545T127 550T126 556Q126 560 128 565T133 574T141
580T150 583T158 580Q178 564 215 541T278 498T313 464Z" />
<glyph unicode="&#xf3;" glyph-name="oacute" horiz-adv-x="261" d="M303 295T303 287T288 272T261 264Q261 147 200 64T79 -19Q21 -19 21 65Q21 88 25 111Q30 137 43 178T77 267T128 348T190 382H197Q197 396 205 406T227 416Q241 415 252 358T284 298Q303 295
303 287ZM233 272Q224 277 211 307T193 338Q162 338 121 247T70 102Q66 79 66 60Q66 11 94 11Q134 11 183 92T233 272ZM346 567Q324 553 291 525T231 478T188 455Q186 455 185 455T183 455T182 457Q182 475 316 601Q319 604 322 605T328 606Q337 606 344 597T352
579Q352 575 351 572T346 567Z" />
<glyph unicode="&#xf4;" glyph-name="ocircumflex" horiz-adv-x="261" d="M303 295T303 287T288 272T261 264Q261 147 200 64T79 -19Q21 -19 21 65Q21 88 25 111Q30 137 43 178T77 267T128 348T190 382H197Q197 396 205 406T227 416Q241 415 252 358T284 298Q303
295 303 287ZM233 272Q224 277 211 307T193 338Q162 338 121 247T70 102Q66 79 66 60Q66 11 94 11Q134 11 183 92T233 272ZM322 474Q309 485 282 515T244 560Q231 548 188 514T136 474Q133 472 131 472Q129 472 129 473T128 475Q128 478 132 484Q142 496 195 545T257
597Q262 595 291 550T329 487Q330 484 330 480Q330 473 325 473Q324 473 322 474Z" />
<glyph unicode="&#xf5;" glyph-name="otilde" horiz-adv-x="261" d="M303 295T303 287T288 272T261 264Q261 147 200 64T79 -19Q21 -19 21 65Q21 88 25 111Q30 137 43 178T77 267T128 348T190 382H197Q197 396 205 406T227 416Q241 415 252 358T284 298Q303 295
303 287ZM233 272Q224 277 211 307T193 338Q162 338 121 247T70 102Q66 79 66 60Q66 11 94 11Q134 11 183 92T233 272ZM137 493Q135 493 135 495Q135 502 151 516T178 536Q194 546 214 546Q231 546 262 536T309 525Q333 525 351 546Q357 546 357 542Q357 535 343
521T317 500Q304 492 290 492Q272 492 240 505T191 519Q174 519 158 506T137 493Z" />
<glyph unicode="&#xf6;" glyph-name="odieresis" horiz-adv-x="261" d="M303 295T303 287T288 272T261 264Q261 147 200 64T79 -19Q21 -19 21 65Q21 88 25 111Q30 137 43 178T77 267T128 348T190 382H197Q197 396 205 406T227 416Q241 415 252 358T284 298Q303
295 303 287ZM233 272Q224 277 211 307T193 338Q162 338 121 247T70 102Q66 79 66 60Q66 11 94 11Q134 11 183 92T233 272ZM331 505Q331 498 326 492T312 483T297 480Q278 480 278 512Q278 516 278 521Q279 539 301 556T339 573Q344 573 345 570Q345 558 338 533T331
505ZM179 505Q179 494 168 487T145 480Q126 480 126 512Q126 516 126 521Q127 539 149 556T187 573Q192 573 193 570Q193 558 186 533T179 505Z" />
<glyph unicode="&#xf7;" glyph-name="divide" horiz-adv-x="406" d="M268 335Q268 323 255 314T230 305Q213 305 201 315T188 340Q188 369 226 369Q240 369 254 360T268 335ZM198 260Q214 260 231 260T265 260T300 259Q365 259 396 262L397 259Q397 248 359 239T267
222T207 213Q201 212 174 212Q121 212 70 217T19 235Q19 246 28 252T44 259Q45 259 61 259T97 259T145 260T198 260ZM222 135Q222 123 209 114T184 105Q167 105 155 115T142 140Q142 169 180 169Q194 169 208 160T222 135Z" />
<glyph unicode="&#xf8;" glyph-name="oslash" horiz-adv-x="261" d="M303 452Q307 452 311 448T315 439Q315 433 311 426Q296 405 255 340Q264 299 284 298Q288 298 291 297T296 295T300 293T302 291T303 287Q303 279 288 272T261 264Q261 204 243 150T197 60T138
3T79 -19Q66 -18 56 -14Q39 -53 39 -71Q39 -78 41 -82T46 -89Q53 -93 35 -101Q22 -101 22 -80Q22 -50 41 -3Q21 18 21 64Q21 85 25 111Q27 121 30 135T39 168T52 207T68 248T88 288T110 325T134 355T161 375T190 382Q192 382 193 382T197 382Q197 396 205 406T227
416Q239 415 248 377Q296 452 303 452ZM233 272Q227 275 221 286Q126 129 73 22Q75 18 78 16T85 12T93 11Q111 11 135 32T181 88T218 172T233 272ZM66 53Q111 146 208 312Q200 328 200 337Q198 338 197 338T193 338Q172 338 144 289T96 186T70 102Q68 94 68 87T67
74T66 63Q66 58 66 53Z" />
<glyph unicode="&#xf9;" glyph-name="ugrave" horiz-adv-x="333" d="M359 384Q356 375 337 324T306 238Q288 187 268 114T247 25Q247 22 249 22Q257 22 289 47T334 72Q342 72 342 67Q342 60 320 44T268 11T236 -9Q229 -15 216 -29T191 -53T170 -63Q157 -63 157
-52Q157 -45 173 -31T194 -5Q211 36 262 234Q215 164 138 78T21 -9Q7 -9 7 9Q7 24 18 52Q18 53 42 106T80 197T95 253Q95 258 93 262T91 270Q91 271 93 281Q110 345 125 365T175 386Q189 386 192 377Q72 82 72 68Q72 64 75 64Q79 64 99 80Q199 157 275 296Q276
327 294 360T347 393Q358 393 359 384ZM341 468Q342 467 342 466T343 464Q343 463 342 463T339 462Q313 462 163 545Q154 550 154 560Q154 564 156 569T161 578T169 584T178 587T186 584Q206 568 243 545T306 502T341 468Z" />
<glyph unicode="&#xfa;" glyph-name="uacute" horiz-adv-x="333" d="M359 384Q356 375 337 324T306 238Q288 187 268 114T247 25Q247 22 249 22Q257 22 289 47T334 72Q342 72 342 67Q342 60 320 44T268 11T236 -9Q229 -15 216 -29T191 -53T170 -63Q157 -63 157
-52Q157 -45 173 -31T194 -5Q211 36 262 234Q215 164 138 78T21 -9Q7 -9 7 9Q7 24 18 52Q18 53 42 106T80 197T95 253Q95 258 93 262T91 270Q91 271 93 281Q110 345 125 365T175 386Q189 386 192 377Q72 82 72 68Q72 64 75 64Q79 64 99 80Q199 157 275 296Q276
327 294 360T347 393Q358 393 359 384ZM386 541Q364 527 331 499T271 452T228 429Q226 429 225 429Q223 430 222 431Q222 449 356 575Q359 578 362 579T368 580Q377 580 384 571T392 553Q392 549 391 546T386 541Z" />
<glyph unicode="&#xfb;" glyph-name="ucircumflex" horiz-adv-x="333" d="M359 384Q356 375 337 324T306 238Q288 187 268 114T247 25Q247 22 249 22Q257 22 289 47T334 72Q342 72 342 67Q342 60 320 44T268 11T236 -9Q229 -15 216 -29T191 -53T170 -63Q157 -63
157 -52Q157 -45 173 -31T194 -5Q211 36 262 234Q215 164 138 78T21 -9Q7 -9 7 9Q7 24 18 52Q18 53 42 106T80 197T95 253Q95 258 93 262T91 270Q91 271 93 281Q110 345 125 365T175 386Q189 386 192 377Q72 82 72 68Q72 64 75 64Q79 64 99 80Q199 157 275 296Q276
327 294 360T347 393Q358 393 359 384ZM363 474Q350 485 323 515T285 560Q272 548 229 514T177 474Q174 472 172 472Q170 472 170 473T169 475Q169 478 173 484Q183 496 236 545T298 597Q303 595 332 550T370 487Q371 484 371 480Q371 473 366 473Q365 473 363
474Z" />
<glyph unicode="&#xfc;" glyph-name="udieresis" horiz-adv-x="333" d="M359 384Q356 375 337 324T306 238Q288 187 268 114T247 25Q247 22 249 22Q257 22 289 47T334 72Q342 72 342 67Q342 60 320 44T268 11T236 -9Q229 -15 216 -29T191 -53T170 -63Q157 -63
157 -52Q157 -45 173 -31T194 -5Q211 36 262 234Q215 164 138 78T21 -9Q7 -9 7 9Q7 24 18 52Q18 53 42 106T80 197T95 253Q95 258 93 262T91 270Q91 271 93 281Q110 345 125 365T175 386Q189 386 192 377Q72 82 72 68Q72 64 75 64Q79 64 99 80Q199 157 275 296Q276
327 294 360T347 393Q358 393 359 384ZM366 496Q366 489 361 483T347 474T332 471Q313 471 313 503Q313 507 313 512Q314 530 336 547T374 564Q379 564 380 561Q380 549 373 524T366 496ZM214 496Q214 485 203 478T180 471Q161 471 161 503Q161 507 161 512Q162
530 184 547T222 564Q227 564 228 561Q228 549 221 524T214 496Z" />
<glyph unicode="&#xfd;" glyph-name="yacute" horiz-adv-x="317" d="M364 388Q367 383 367 377Q367 337 280 216T139 33V35Q138 35 137 27T132 7T126 -16T119 -36T110 -45T100 -43T92 -40Q-43 -221 -43 -272Q-43 -281 -39 -290T-35 -303Q-35 -314 -47 -322T-71
-330Q-87 -330 -87 -311Q-87 -275 -44 -202T44 -65T91 2Q102 35 102 92Q102 174 87 236T44 298Q41 298 36 298L30 297Q26 297 26 302Q26 310 48 326Q51 328 65 348T86 368Q107 368 123 304T140 160Q140 152 140 136T139 112Q139 96 147 96Q170 96 239 202T309 337Q309
343 304 343Q302 343 297 341T289 339Q284 339 281 344Q281 357 310 373T357 389Q362 389 364 388ZM356 523Q334 509 301 481T241 434T198 411Q196 411 195 411Q193 412 192 413Q192 431 326 557Q329 560 332 561T338 562Q347 562 354 553T362 535Q362 531 361
528T356 523Z" />
<glyph unicode="&#xfe;" glyph-name="thorn" horiz-adv-x="219" d="M-10 -211Q-10 -221 -17 -236T-36 -264T-56 -276Q-68 -276 -68 -250Q-68 -234 -56 -192T-29 -111T4 -21T29 45Q27 49 27 53T26 62Q26 85 48 99Q115 306 126 346Q126 347 121 347T110 350T104
356Q104 364 120 370L135 376Q147 409 169 474T206 581T226 628Q247 649 260 649Q267 649 267 642Q267 640 267 638T266 634T264 628T261 621Q259 616 217 498T174 378Q220 346 246 287Q276 217 276 143Q276 37 205 3Q178 -9 145 -9Q85 -9 54 17Q45 -9 20 -81T-16
-186Q-17 -188 -17 -190Q-17 -193 -15 -196T-12 -203T-10 -211ZM234 132Q234 169 220 217T190 297T164 329Q163 329 163 329T161 327Q117 187 88 102L66 39Q85 27 101 22T134 17Q184 17 209 49T234 132Z" />
<glyph unicode="&#xff;" glyph-name="ydieresis" horiz-adv-x="317" d="M364 388Q367 383 367 377Q367 337 280 216T139 33V35Q138 35 137 27T132 7T126 -16T119 -36T110 -45T100 -43T92 -40Q-43 -221 -43 -272Q-43 -281 -39 -290T-35 -303Q-35 -314 -47 -322T-71
-330Q-87 -330 -87 -311Q-87 -275 -44 -202T44 -65T91 2Q102 35 102 92Q102 174 87 236T44 298Q41 298 36 298L30 297Q26 297 26 302Q26 310 48 326Q51 328 65 348T86 368Q107 368 123 304T140 160Q140 152 140 136T139 112Q139 96 147 96Q170 96 239 202T309 337Q309
343 304 343Q302 343 297 341T289 339Q284 339 281 344Q281 357 310 373T357 389Q362 389 364 388ZM345 493Q345 486 340 480T326 471T311 468Q292 468 292 500Q292 504 292 509Q293 527 315 544T353 561Q358 561 359 558Q359 546 352 521T345 493ZM193 493Q193
482 182 475T159 468Q140 468 140 500Q140 504 140 509Q140 521 152 533T178 553T201 561Q206 561 207 558Q207 546 200 521T193 493Z" />
<glyph unicode="&#x2013;" glyph-name="endash" horiz-adv-x="397" d="M436 152Q441 149 441 147Q441 144 437 142T425 139T404 138H37Q25 138 25 149Q25 156 29 162T39 168H118Q265 168 341 164Q419 161 436 152Z" />
<glyph unicode="&#x2014;" glyph-name="emdash" horiz-adv-x="606" d="M584 152Q589 149 589 147Q589 138 552 138H37Q25 138 25 149Q25 156 29 162T39 168H118Q413 168 489 164Q567 161 584 152Z" />
<glyph unicode="&#x2018;" glyph-name="quoteleft" horiz-adv-x="221" d="M212 641H211Q177 606 143 561T109 493Q109 485 114 481Q123 471 123 457Q123 441 107 425Q82 402 64 402Q55 402 50 410Q46 422 44 430T42 444Q42 452 46 459T52 469Q75 544 128 595T207
646Q210 646 211 645T212 641Z" />
<glyph unicode="&#x2019;" glyph-name="quoteright" horiz-adv-x="209" d="M224 517Q224 533 241 550H242Q267 572 284 572Q294 572 298 564Q299 561 300 558T301 552T302 547T303 542T304 538T305 535T305 531Q305 523 301 516T295 506L296 505Q290 487 282 470T264
438T245 410T224 386T203 366T184 350T166 339T152 332T142 329Q139 329 138 330T137 334V335Q143 341 149 347T163 362T177 380T192 398T206 417T219 436T229 454T235 469T238 483Q238 490 233 495Q231 497 229 500T226 505T225 511T224 517Z" />
<glyph unicode="&#x201a;" glyph-name="quotesinglbase" horiz-adv-x="255" d="M229 231Q232 221 233 213T235 198Q235 190 233 184T228 173T224 164Q212 129 189 96T143 43T100 9T72 -4Q68 -2 68 1V2Q101 35 135 81T169 150Q169 157 164 162Q155 171 155 182Q155
202 175 220T214 238Q224 238 229 231Z" />
<glyph unicode="&#x201c;" glyph-name="quotedblleft" horiz-adv-x="275" d="M212 641H211Q177 606 143 561T109 493Q109 485 114 481Q123 471 123 457Q123 441 107 425Q82 402 64 402Q55 402 50 410Q46 422 44 430T42 444Q42 452 46 459T52 469Q75 544 128 595T207
646Q210 646 211 645T212 641ZM343 649Q329 635 313 617T281 576T253 534T241 501Q241 493 246 489Q255 479 255 465Q255 445 240 434H239L238 433V434Q213 411 195 411Q186 411 182 419Q175 441 175 453Q175 460 179 467T184 477Q208 552 261 603T338 654Q344
654 343 649ZM239 433H238H239Z" />
<glyph unicode="&#x201d;" glyph-name="quotedblright" horiz-adv-x="406" d="M381 639Q388 617 388 606Q388 598 384 591T379 581V580Q371 557 360 535T336 496T310 464T283 438T259 420T238 408T225 404Q220 406 220 409Q239 428 261 454T302 510T321 557Q321
561 320 564T317 569V570Q308 579 308 593Q308 617 325 625Q350 647 367 647Q377 647 381 639ZM251 631Q258 610 258 598Q258 590 254 583T248 573L249 572Q224 498 171 447T94 396Q91 396 90 397T89 401H90Q123 434 157 480T191 549Q191 557 186 562Q184 564 182
567T179 572T178 578T177 584Q177 600 194 617V616Q219 639 237 639Q246 639 251 631Z" />
<glyph unicode="&#x201e;" glyph-name="quotedblbase" horiz-adv-x="447" d="M396 231Q399 221 400 213T402 198Q402 190 400 184T395 173T391 164Q375 119 342 78T280 17T239 -4Q235 -2 235 1V2Q268 35 302 81T336 150Q336 157 331 162Q322 171 322 182Q322 190
326 198T336 213T350 225T366 234T381 238Q391 238 396 231ZM229 231Q232 221 233 213T235 198Q235 190 233 184T228 173T224 164Q212 129 189 96T143 43T100 9T72 -4Q68 -2 68 1V2Q101 35 135 81T169 150Q169 157 164 162Q155 171 155 182Q155 202 175 220T214
238Q224 238 229 231Z" />
<glyph unicode="&#x2022;" glyph-name="bullet" horiz-adv-x="537" d="M487 237Q487 147 424 84T271 20Q181 20 118 83T54 236Q54 326 117 389T270 453Q360 453 423 390T487 237Z" />
<glyph unicode="&#x2039;" glyph-name="guilsinglleft" horiz-adv-x="324" d="M197 55Q197 40 193 19T182 -3Q179 -3 177 2T171 16T165 30Q153 52 120 101T83 155Q70 175 54 199T27 238T14 259Q15 285 22 288Q253 469 295 509L298 510Q300 509 301 501Q301 488
296 469T287 447Q100 312 57 269Q75 235 133 154T195 65L197 55Z" />
<glyph unicode="&#x203a;" glyph-name="guilsinglright" horiz-adv-x="371" d="M168 446Q168 455 170 468T175 492T183 504Q186 504 188 499T194 485T200 471Q212 449 245 400T282 346Q295 326 311 302T338 263T351 242Q350 216 343 213Q112 32 70 -8Q69 -9 69
-9T67 -9Q64 -9 64 0Q64 13 69 32T78 54Q265 189 308 232Q290 266 232 347T170 436Q169 437 169 439T168 446Z" />
</font>
</defs>
</svg>
