<?xml version="1.0" standalone="no"?>
<!DOCTYPE svg PUBLIC "-//W3C//DTD SVG 1.1//EN" "http://www.w3.org/Graphics/SVG/1.1/DTD/svg11.dtd">
<svg xmlns="http://www.w3.org/2000/svg">
<defs >
<font id="PlayfairDisplaySC" horiz-adv-x="1175" ><font-face
    font-family="Playfair Display SC"
    units-per-em="2048"
    panose-1="0 0 5 0 0 0 0 0 0 0"
    ascent="2216"
    descent="-514"
    alphabetic="0" />
<glyph unicode=" " glyph-name="space" horiz-adv-x="518" />
<glyph unicode="!" glyph-name="exclam" horiz-adv-x="539" d="M235 569T265 730T332 1107Q385 1423 412 1522Q422 1560 446 1581T504 1602Q551 1602 574 1579T598 1519Q598 1499 590 1475Q566 1393 475 1147Q393 926 334 753T229 401L193 408Q235 569 265 730ZM13
116T35 152T92 211T166 233Q212 233 241 203T270 126Q270 86 249 51T191 -7T116 -29Q71 -29 42 1T13 76Q13 116 35 152Z" />
<glyph unicode="&quot;" glyph-name="quotedbl" horiz-adv-x="606" d="M700 1390T685 1353T632 1249Q573 1143 538 1061H510Q522 1150 531 1262Q539 1364 551 1409Q561 1452 584 1473T637 1495Q700 1495 700 1427Q700 1390 685 1353ZM477 1390T462 1353T409 1249Q350
1143 315 1061H287Q299 1150 308 1262Q316 1364 328 1409Q338 1452 361 1473T414 1495Q477 1495 477 1427Q477 1390 462 1353Z" />
<glyph unicode="#" glyph-name="numbersign" horiz-adv-x="1309" d="M827 547H1120L1100 506H808L670 207H621L759 506H425L287 207H238L376 506H76L94 547H395L554 889H254L270 930H573L713 1233H762L622 930H956L1096 1233H1145L1005 930H1296L1280 889H986L827
547ZM603 889L444 547H778L937 889H603Z" />
<glyph unicode="$" glyph-name="dollar" horiz-adv-x="1128" d="M1101 1329T1134 1270T1167 1145Q1167 1079 1134 1031T1044 983Q993 983 967 1022T940 1116Q940 1176 961 1226T1020 1333Q975 1380 902 1408L724 767Q798 698 847 641T929 516T961 373Q961 250
896 164T727 31T504 -26L436 -270H391L458 -29H442Q362 -29 295 -11L223 -270H178L254 2Q210 18 179 38T109 90Q63 125 33 182T2 305Q2 371 35 419T125 467Q177 467 203 429T229 334Q229 274 208 225T150 117Q194 71 265 44L453 719Q369 803 323 887T276 1079Q276
1194 329 1279T471 1413T663 1475L731 1720H776L709 1479H727Q804 1479 872 1462L944 1720H989L914 1449Q959 1433 990 1412T1061 1360Q1101 1329 1134 1270ZM796 1440T729 1440Q708 1440 698 1439L557 930Q596 886 688 800L861 1422Q796 1440 729 1440ZM442 1077T523
971L651 1433Q554 1415 498 1352T442 1180Q442 1077 523 971ZM469 12L620 555Q581 596 522 652L488 684L306 30Q376 12 449 12H469ZM750 395T654 515L515 16Q626 30 688 92T750 268Q750 395 654 515Z" />
<glyph unicode="%" glyph-name="percent" horiz-adv-x="1569" d="M12 -113L-19 -86L1687 1688L1718 1661L12 -113ZM229 1203T285 1311T439 1489T653 1559Q761 1559 821 1503T881 1346Q881 1237 825 1129T672 951T459 881Q350 881 290 936T229 1094Q229 1203 285
1311ZM556 1522T495 1441T400 1248T367 1055Q367 918 473 918Q554 918 615 999T710 1192T743 1386Q743 1522 637 1522Q556 1522 495 1441ZM770 293T826 401T979 579T1194 649Q1301 649 1361 593T1421 436Q1421 327 1366 219T1213 41T999 -29Q891 -29 831 26T770
184Q770 293 826 401ZM1096 612T1035 531T940 338T907 145Q907 8 1014 8Q1095 8 1156 89T1251 283T1284 477Q1284 544 1257 578T1178 612Q1096 612 1035 531Z" />
<glyph unicode="&amp;" glyph-name="ampersand" horiz-adv-x="1673" d="M1640 1479T1709 1421T1778 1245Q1778 1141 1719 1061T1528 915Q1435 869 1201 784Q1350 657 1350 477Q1350 341 1269 225T1033 40T668 -29Q488 -29 355 23T150 172T78 403Q78 523 135 628T292
808T518 918Q449 955 412 1016T375 1147Q375 1236 435 1302T590 1403T780 1438Q856 1438 913 1416T1001 1353T1032 1260Q1032 1210 1007 1176T941 1124T858 1106L862 1143Q919 1143 954 1173T989 1255Q989 1323 933 1364T791 1405Q708 1405 642 1366T539 1257T502
1100Q502 1005 547 930Q620 942 676 942Q750 942 750 899Q750 877 731 867T686 856Q635 856 545 901Q452 874 381 814T271 672T231 498Q231 378 297 294T479 166T745 123Q904 123 1032 170T1235 304T1309 504Q1309 579 1275 651T1171 773L1119 754Q932 684 911
676Q819 640 758 594T696 473Q696 410 746 373T870 336Q951 336 1002 376T1079 457L1106 438Q1024 303 862 303Q767 303 704 350T641 504Q641 623 726 701T981 842Q1002 850 1089 881Q1402 992 1511 1044Q1612 1093 1667 1146T1722 1272Q1722 1321 1696 1361T1623
1425T1520 1448Q1466 1448 1454 1430Q1475 1418 1486 1397T1497 1352Q1497 1321 1478 1294T1428 1251T1362 1235Q1321 1235 1296 1258T1270 1321Q1270 1363 1298 1396T1372 1450Q1440 1479 1522 1479Q1640 1479 1709 1421Z" />
<glyph unicode="&apos;" glyph-name="quotesingle" horiz-adv-x="383" d="M477 1390T462 1353T409 1249Q350 1143 315 1061H287Q299 1150 308 1262Q316 1364 328 1409Q338 1452 361 1473T414 1495Q477 1495 477 1427Q477 1390 462 1353Z" />
<glyph unicode="(" glyph-name="parenleft" horiz-adv-x="739" d="M311 -245T236 -124T120 140T78 457Q78 679 193 900T508 1314T965 1651L985 1624Q625 1381 431 1092T236 434Q236 -30 461 -346L424 -373Q311 -245 236 -124Z" />
<glyph unicode=")" glyph-name="parenright" horiz-adv-x="739" d="M447 1523T522 1402T638 1138T680 821Q680 599 565 378T250 -36T-207 -373L-227 -346Q133 -103 327 186T522 844Q522 1308 297 1624L334 1651Q447 1523 522 1402Z" />
<glyph unicode="*" glyph-name="asterisk" horiz-adv-x="1014" d="M1048 1264T1048 1257Q1048 1203 961 1157Q925 1139 883 1127T765 1096Q713 1084 635 1063Q582 1080 755 1027Q823 1008 859 996T920 967Q969 936 969 894Q969 866 950 844Q927 812 887 812Q854
812 819 836Q793 852 771 876T706 953Q669 1001 632 1044Q633 995 637 930Q641 838 641 809Q641 767 637 739Q622 682 594 656T532 629Q509 629 495 645T480 695Q480 718 485 739Q492 779 511 824T575 960Q589 987 622 1055H621Q589 1030 564 1009T520 972Q452
914 413 883T338 834Q291 811 258 811Q215 811 203 846Q199 858 199 865Q199 916 287 965Q323 983 365 995T482 1026Q539 1040 611 1059Q565 1074 493 1094Q422 1115 387 1127T328 1155Q278 1186 278 1229Q278 1256 297 1278Q320 1310 361 1310Q394 1310 428 1286Q455
1269 479 1243T541 1167Q592 1103 622 1068Q621 1093 617 1134Q607 1270 607 1307Q607 1353 612 1382Q625 1439 653 1466T713 1493Q737 1493 752 1477T767 1426Q767 1403 762 1382Q757 1346 740 1305T687 1188Q652 1113 634 1072L736 1156Q805 1214 841 1242T909
1288Q956 1311 989 1311Q1032 1311 1044 1276Q1048 1264 1048 1257Z" />
<glyph unicode="+" glyph-name="plus" horiz-adv-x="1198" d="M743 1241H817L680 758H1155L1137 696H662L524 215H451L588 696H111L129 758H606L743 1241Z" />
<glyph unicode="," glyph-name="comma" horiz-adv-x="516" d="M264 42T228 -30T124 -165T-37 -274L-47 -246Q50 -187 107 -117T170 23Q111 -29 63 -29Q27 -29 7 -10T-14 43Q-14 86 13 130T85 204T174 233Q219 233 241 198T264 113Q264 42 228 -30Z" />
<glyph unicode="-" glyph-name="hyphen" horiz-adv-x="1032" d="M848 461H109L139 580H879L848 461Z" />
<glyph unicode="." glyph-name="period" horiz-adv-x="500" d="M-3 116T19 152T76 211T150 233Q196 233 225 203T254 126Q254 86 233 51T175 -7T100 -29Q55 -29 26 1T-3 76Q-3 116 19 152Z" />
<glyph unicode="/" glyph-name="slash" horiz-adv-x="958" d="M1108 1479L-14 -29H-82L1040 1479H1108Z" />
<glyph unicode="0" glyph-name="zero" horiz-adv-x="1157" d="M886 1083T968 988T1051 721Q1051 538 962 364T723 80T399 -29Q296 -29 220 13T104 137T63 336Q63 518 156 692T403 974T729 1083Q886 1083 968 988ZM580 1047T479 944T315 671T252 317Q252 8 438
8Q553 8 650 116T805 398T862 752Q862 910 817 978T690 1047Q580 1047 479 944Z" />
<glyph unicode="1" glyph-name="one" horiz-adv-x="700" d="M147 0L410 887Q289 819 102 762L109 805Q228 841 317 885T467 972T602 1077H643L326 0H147Z" />
<glyph unicode="2" glyph-name="two" horiz-adv-x="1030" d="M749 1081T824 1028T899 879Q899 779 818 675T628 484T364 289Q245 206 211 178Q267 178 423 150Q589 121 645 121Q786 121 786 219Q786 294 696 336L723 362Q836 310 836 201Q836 144 809 96T725 18T580
-12Q513 -12 395 17Q327 33 280 41T176 50Q115 50 68 39T-43 0L-33 43Q-23 51 100 140Q277 265 400 366T618 596T713 856Q713 940 673 988T555 1036Q481 1036 399 987T261 862T205 707Q205 656 233 632T324 608Q377 608 419 628T512 692L537 664Q483 613 424 589T309
565Q246 565 201 596T156 705Q156 795 220 882T392 1025T623 1081Q749 1081 824 1028Z" />
<glyph unicode="3" glyph-name="three" horiz-adv-x="993" d="M747 1087T822 1034T897 885Q897 797 832 721T670 592T473 512Q566 510 640 483T758 404T801 279Q801 103 646 -30T265 -234T-164 -309L-154 -272Q22 -261 198 -193T492 0T610 293Q610 375 564 425T436
479Q388 460 364 452T317 444Q281 444 281 465Q281 467 283 475Q291 513 380 513Q406 513 420 512Q502 543 570 596T680 716T721 858Q721 944 676 993T553 1042Q483 1042 405 1003T275 901T223 774Q223 724 251 700T342 676Q411 676 469 707L492 676Q412 633 328
633Q264 633 219 663T174 772Q174 847 235 920T399 1040T621 1087Q747 1087 822 1034Z" />
<glyph unicode="4" glyph-name="four" horiz-adv-x="1055" d="M583 70L487 -289H309L405 70H-104L-92 113L801 1083H854L614 186H889L856 70H583ZM603 813L29 186H436L603 813Z" />
<glyph unicode="5" glyph-name="five" horiz-adv-x="940" d="M796 862T618 862Q580 862 504 900Q469 918 447 926T403 935Q395 935 391 934L162 465Q228 500 296 517T449 535Q606 535 684 471T762 301Q762 113 612 -21T246 -226T-166 -303L-156 -266Q10 -265 177
-198T456 -4T567 297Q567 379 515 426T352 473Q244 473 125 418L104 428L412 1061Q448 1063 476 1058T543 1039Q587 1025 621 1018T705 1010Q821 1010 874 1102L899 1087Q796 862 618 862Z" />
<glyph unicode="6" glyph-name="six" horiz-adv-x="1079" d="M888 1391T697 1223T383 807T260 281Q260 131 297 72T408 12Q516 12 600 112T730 358T776 631Q776 838 643 838Q576 838 512 780T401 588L369 600Q419 759 512 828T711 897Q788 897 846 861T936 756T969
590Q969 431 887 288T668 58T375 -29Q221 -29 148 63T74 338Q74 628 238 876T638 1282T1073 1479L1085 1438Q888 1391 697 1223Z" />
<glyph unicode="7" glyph-name="seven" horiz-adv-x="997" d="M1044 967T916 821Q778 662 688 546T516 280T389 -37Q380 -69 366 -140Q356 -190 354 -199Q341 -243 308 -273T227 -303Q163 -303 163 -234Q163 -216 168 -188Q191 -57 287 101T503 405T797 746Q936
902 983 960Q854 872 682 872Q625 872 581 880T477 905Q382 932 326 932Q246 932 198 897T150 795Q150 709 219 652T434 559L422 528Q100 590 100 817Q100 879 131 936T228 1029T389 1065Q452 1065 506 1052T633 1013Q704 988 755 975T865 962Q926 962 972 982T1055
1053H1108Q1044 967 916 821Z" />
<glyph unicode="8" glyph-name="eight" horiz-adv-x="1114" d="M1100 1028T694 811Q775 733 822 679T904 553T938 395Q938 268 864 172T663 24T383 -29Q217 -29 119 36T20 236Q20 403 164 536T511 758Q451 817 412 865T347 972T322 1102Q322 1212 392 1298T575
1431T811 1479Q941 1479 1020 1424T1100 1262Q1100 1028 694 811ZM742 881T802 950T898 1102T934 1268Q934 1442 774 1442Q698 1442 633 1405T530 1300T492 1147Q492 1087 515 1034T576 935T671 833Q742 881 802 950ZM756 431T726 497T652 613T535 735Q437 681
362 600T244 419T201 217Q201 118 247 63T401 8Q494 8 575 49T706 168T756 352Q756 431 726 497Z" />
<glyph unicode="9" glyph-name="nine" horiz-adv-x="1051" d="M807 1081T880 990T954 715Q954 434 793 195T401 -196T-25 -385L-37 -344Q155 -299 342 -138T648 264T768 772Q768 922 731 981T621 1040Q512 1040 428 940T298 695T252 422Q252 215 385 215Q452 215
516 273T627 465L659 453Q609 293 516 225T317 156Q240 156 182 191T92 296T59 463Q59 621 141 764T360 994T653 1081Q807 1081 880 990Z" />
<glyph unicode=":" glyph-name="colon" horiz-adv-x="569" d="M32 116T54 152T111 211T185 233Q231 233 260 203T289 126Q289 86 268 51T210 -7T135 -29Q90 -29 61 1T32 76Q32 116 54 152ZM237 964T259 1000T316 1059T390 1081Q436 1081 465 1051T494 974Q494
934 473 899T415 841T340 819Q295 819 266 849T237 924Q237 964 259 1000Z" />
<glyph unicode=";" glyph-name="semicolon" horiz-adv-x="588" d="M239 964T261 1000T318 1059T392 1081Q438 1081 467 1051T496 974Q496 934 475 899T417 841T342 819Q297 819 268 849T239 924Q239 964 261 1000ZM305 42T269 -30T165 -165T4 -274L-6 -246Q91
-187 148 -117T211 23Q152 -29 104 -29Q68 -29 48 -10T27 43Q27 86 54 130T126 204T215 233Q260 233 282 198T305 113Q305 42 269 -30Z" />
<glyph unicode="&lt;" glyph-name="less" horiz-adv-x="1233" d="M258 719L936 362L903 297L104 727L1235 1192L1255 1133L258 719Z" />
<glyph unicode="=" glyph-name="equal" horiz-adv-x="1358" d="M1270 901L1251 840H225L244 901H1270ZM1188 614L1169 553H143L162 614H1188Z" />
<glyph unicode="&gt;" glyph-name="greater" horiz-adv-x="1233" d="M1049 770L291 1176L324 1235L1202 762L127 317L106 377L1049 770Z" />
<glyph unicode="?" glyph-name="question" horiz-adv-x="897" d="M569 1567T504 1541T424 1466Q443 1461 459 1438T475 1384Q475 1340 444 1312T367 1284Q326 1284 306 1307T285 1370Q285 1436 340 1489T485 1572T670 1602Q807 1602 890 1539T973 1360Q973 1295
942 1230T836 1089T635 913Q583 873 528 833Q438 767 396 730T329 653T305 561Q305 499 340 460T451 420Q511 420 568 444T647 510Q628 512 611 534T594 582Q594 614 620 640T686 666Q717 666 736 649T756 594Q756 533 703 485T570 411T412 385Q304 385 240 436T176
584Q176 658 215 721T316 837T492 976Q530 1003 557 1024Q659 1102 714 1154T796 1258T823 1374Q823 1462 777 1514T637 1567Q569 1567 504 1541ZM218 116T240 152T297 211T371 233Q417 233 446 203T475 126Q475 86 454 51T396 -7T321 -29Q276 -29 247 1T218 76Q218
116 240 152Z" />
<glyph unicode="@" glyph-name="at" horiz-adv-x="1737" d="M946 53T946 186Q946 232 965 300Q904 173 833 113T662 53Q552 53 502 120T451 301Q451 453 531 612T735 875T983 979Q1045 979 1079 948T1118 846L1147 950Q1264 950 1331 979L1114 227Q1101 185 1101
157Q1101 128 1115 116T1161 104Q1239 104 1356 191T1560 439T1647 807Q1647 989 1568 1106T1354 1277T1051 1331Q804 1331 585 1189T233 808T100 297Q100 93 178 -39T394 -232T715 -293Q952 -293 1137 -182L1151 -209Q1072 -265 959 -297T713 -330Q517 -330 371
-264T142 -58T59 293Q59 566 192 815T553 1216T1049 1368Q1234 1368 1377 1309T1604 1123T1688 805Q1688 588 1593 416T1359 149T1094 53Q946 53 946 186ZM808 115T880 221T1034 546L1102 788Q1101 932 991 932Q896 932 812 839T676 601T625 313Q625 115 731 115Q808
115 880 221Z" />
<glyph unicode="A" glyph-name="A" horiz-adv-x="1288" d="M1037 105T1066 74T1133 41L1124 0Q1042 6 901 6Q736 6 655 0L664 41Q734 44 772 58T826 108T840 213L821 549H318L164 332Q68 196 68 128Q68 44 219 41L209 0Q95 6 -25 6Q-114 6 -178 0L-168 41Q-74
61 37 219L920 1460H950L1032 172Q1037 105 1066 74ZM785 1209L347 590H819L785 1209Z" />
<glyph unicode="B" glyph-name="B" horiz-adv-x="1294" d="M1145 711T1145 432Q1145 293 1057 195T829 49T535 0Q465 0 385 3Q202 6 182 6Q19 6 -68 0L-59 41Q15 44 51 57T110 105T152 217L422 1233Q439 1301 439 1331Q439 1372 409 1390T301 1409L311 1450Q395
1444 555 1444Q599 1444 693 1446Q791 1448 844 1448Q1034 1448 1131 1378T1229 1186Q1229 1086 1170 1003T1016 860T809 766Q1145 711 1145 432ZM623 770Q742 770 834 825T976 973T1026 1171Q1026 1293 974 1351T805 1409Q743 1409 709 1397T654 1355T618 1264L488
770H623ZM707 47T823 152T940 463Q940 735 647 735H479L342 217Q323 144 323 117Q323 79 350 63T446 47Q707 47 823 152Z" />
<glyph unicode="C" glyph-name="C" horiz-adv-x="1372" d="M1390 1273T1327 979H1282Q1294 1059 1294 1119Q1294 1215 1262 1282Q1224 1358 1152 1400T993 1442Q823 1442 665 1282T408 880T309 410Q309 212 386 110T602 8Q692 8 792 50T967 168Q1019 221 1058
292T1151 492H1196Q1103 152 1075 0H1030Q1036 44 1036 70Q1036 122 1012 122Q996 122 969 104Q896 57 847 31T732 -12T582 -29Q354 -29 229 94T104 453Q104 689 222 928T545 1323T997 1479Q1080 1479 1136 1461T1226 1417T1303 1346Q1321 1328 1334 1328Q1370
1328 1415 1450H1458Q1390 1273 1327 979Z" />
<glyph unicode="D" glyph-name="D" horiz-adv-x="1485" d="M1442 741T1316 511T967 141T471 0Q424 0 352 3Q181 6 184 6Q19 6 -61 0L-55 41Q15 44 50 57T108 105T150 217L418 1233Q437 1307 437 1334Q437 1374 407 1390T299 1409L305 1450Q415 1443 505 1443L555
1444L639 1446Q799 1450 864 1450Q1152 1450 1297 1335T1442 997Q1442 741 1316 511ZM700 37T880 175T1153 544T1245 1049Q1245 1234 1141 1323T807 1413Q743 1413 707 1399T649 1347T608 1237L340 213Q321 142 321 112Q321 73 349 55T446 37Q700 37 880 175Z"
/>
<glyph unicode="E" glyph-name="E" horiz-adv-x="1249" d="M1194 1444T1315 1450Q1261 1302 1237 1208Q1214 1128 1208 1081H1161Q1179 1191 1179 1246Q1179 1305 1160 1338T1097 1387T973 1403H823Q750 1403 714 1391T655 1345T612 1233L483 750H618Q690 750
737 784T810 863T864 978Q879 1017 881 1020H928Q884 885 853 765L844 729Q817 633 778 438H731L735 464Q747 542 747 577Q747 640 716 674T606 709H472L340 217Q322 153 322 118Q322 88 336 73T379 53T461 47H610Q738 47 813 81T939 190T1042 410H1090Q1070 360
1044 262Q1014 152 989 0Q850 6 520 6Q127 6 -72 0L-61 41Q13 44 49 57T107 105T150 217L422 1233Q440 1298 440 1333Q440 1363 427 1378T385 1400T303 1409L313 1450Q514 1444 907 1444Q1194 1444 1315 1450Z" />
<glyph unicode="F" glyph-name="F" horiz-adv-x="1159" d="M1194 1444T1315 1450Q1262 1301 1231 1188Q1209 1112 1192 1020H1145Q1168 1156 1168 1224Q1168 1291 1147 1329T1074 1385T932 1403H823Q750 1403 714 1391T655 1345T612 1233L477 729H627Q700 729
747 764T821 845T874 962Q884 988 889 999H936Q894 872 862 749Q857 724 852 709L843 673Q768 331 786 418H739L744 449Q756 527 756 560Q756 621 725 654T616 688H466L340 217Q324 156 324 126Q324 92 341 75T395 50T500 41L489 0Q383 6 188 6Q15 6 -72 0L-61
41Q13 44 49 57T107 105T150 217L422 1233Q440 1298 440 1333Q440 1363 427 1378T385 1400T303 1409L313 1450Q514 1444 907 1444Q1194 1444 1315 1450Z" />
<glyph unicode="G" glyph-name="G" horiz-adv-x="1444" d="M714 12T775 31T881 76Q922 100 942 131T975 205L1022 385Q1040 453 1040 491Q1040 527 1023 545T971 571T868 582L879 623Q978 616 1165 616Q1311 616 1380 623L1370 582Q1321 578 1297 566T1257 519T1219
406L1110 0H1069Q1075 32 1075 54Q1075 117 1044 117Q1031 117 1017 111T967 82Q881 27 798 -1T618 -29Q368 -29 235 93T102 440Q102 677 218 919T539 1320T999 1479Q1084 1479 1145 1462T1248 1417T1335 1346Q1354 1327 1371 1327Q1410 1327 1452 1450H1497Q1429
1273 1366 979H1321Q1331 1067 1331 1133Q1331 1227 1303 1282Q1260 1357 1175 1399T987 1442Q775 1442 618 1264T377 834T293 373Q293 189 380 101T647 12Q714 12 775 31Z" />
<glyph unicode="H" glyph-name="H" horiz-adv-x="1546" d="M1590 1444T1679 1450L1669 1409Q1594 1406 1558 1393T1500 1345T1458 1233L1188 217Q1170 147 1170 117Q1170 87 1183 72T1226 50T1309 41L1300 0Q1214 6 1038 6Q874 6 778 0L786 41Q860 44 897 57T955
105T997 217L1128 709H471L340 217Q323 151 323 118Q323 88 336 72T379 50T461 41L453 0Q357 6 193 6Q22 6 -68 0L-57 41Q15 44 51 57T108 105T150 217L420 1233Q437 1298 437 1331Q437 1362 423 1378T381 1400T299 1409L309 1450Q393 1444 569 1444Q733 1444 831
1450L821 1409Q746 1406 710 1393T652 1345T610 1233L482 750H1139L1268 1233Q1286 1296 1286 1331Q1286 1362 1272 1378T1229 1400T1147 1409L1157 1450Q1250 1444 1415 1444Q1590 1444 1679 1450Z" />
<glyph unicode="I" glyph-name="I" horiz-adv-x="698" d="M323 151T323 118Q323 88 336 72T379 50T461 41L453 0Q357 6 193 6Q22 6 -68 0L-57 41Q15 44 51 57T108 105T150 217L420 1233Q437 1298 437 1331Q437 1362 423 1378T381 1400T299 1409L309 1450Q393 1444
569 1444Q734 1444 831 1450L821 1409Q746 1406 710 1393T652 1345T610 1233L340 217Q323 151 323 118Z" />
<glyph unicode="J" glyph-name="J" horiz-adv-x="1303" d="M1522 1484T1522 1470Q1522 1420 1372 1364Q1086 1173 946 750H1149L1143 709H933Q925 683 911 629L784 133Q726 -96 605 -240T301 -385Q205 -385 149 -355T92 -268Q92 -239 106 -213T147 -169T205 -152Q242
-152 266 -176T291 -237Q291 -271 268 -298T209 -342Q239 -352 281 -352Q374 -352 434 -283T529 -109T610 180Q619 219 639 297L700 537Q724 629 757 709H485L492 750H775Q834 879 918 984T1102 1175T1337 1358Q1100 1235 932 1235Q866 1235 813 1249T681 1292Q605
1321 550 1335T428 1350Q360 1350 326 1314T295 1214Q296 1154 335 1117T446 1065L440 1024Q347 1040 283 1097T215 1262Q212 1335 240 1392T323 1481T453 1513Q506 1513 552 1498T636 1461T726 1402Q778 1366 814 1345T895 1309T991 1294Q1057 1294 1113 1305T1220
1334T1354 1386Q1431 1506 1481 1506Q1495 1506 1509 1495Q1522 1484 1522 1470Z" />
<glyph unicode="K" glyph-name="K" horiz-adv-x="1382" d="M1390 1479T1419 1449T1448 1369Q1448 1342 1436 1309T1397 1251T1329 1227Q1288 1227 1269 1251T1249 1309Q1249 1338 1268 1373T1315 1436H1309Q1268 1434 1235 1407Q1200 1375 1175 1321T1115 1169Q1072
1047 1034 969T928 830T756 757Q830 741 874 715T944 628T970 455L969 420L961 188L960 164Q960 124 973 104T1022 84Q1074 84 1109 122T1174 244L1208 348H1249L1196 190Q1158 78 1097 25T946 -29Q773 -29 773 174Q773 197 774 209L788 440Q791 483 791 519Q791
610 773 655T716 734Q644 715 598 715Q535 715 535 756Q535 797 596 797Q637 797 721 776Q825 789 891 847T994 981T1073 1178Q1108 1280 1135 1338T1204 1432Q1265 1479 1327 1479Q1390 1479 1419 1449ZM323 151T323 118Q323 88 336 72T379 50T461 41L453 0Q357
6 193 6Q22 6 -68 0L-57 41Q15 44 51 57T108 105T150 217L420 1233Q437 1298 437 1331Q437 1362 423 1378T381 1400T299 1409L309 1450Q393 1444 569 1444Q733 1444 831 1450L821 1409Q746 1406 710 1393T652 1345T610 1233L340 217Q323 151 323 118Z" />
<glyph unicode="L" glyph-name="L" horiz-adv-x="1200" d="M1083 396T1052 292Q1050 282 1044 262Q1014 152 989 0Q850 6 520 6Q127 6 -72 0L-61 41Q13 44 49 57T107 105T150 217L422 1233Q440 1298 440 1333Q440 1363 427 1378T385 1400T303 1409L313 1450Q400
1444 575 1444Q740 1444 836 1450L825 1409Q750 1406 714 1393T655 1345T612 1233L340 217Q322 153 322 118Q322 88 336 73T379 53T461 47H610Q738 47 814 83T941 198T1049 430H1096Q1083 396 1052 292Z" />
<glyph unicode="M" glyph-name="M" horiz-adv-x="1778" d="M1812 1444T1911 1450L1901 1409Q1826 1406 1790 1393T1732 1345T1690 1233L1419 217Q1402 152 1402 119Q1402 88 1416 72T1458 50T1540 41L1532 0Q1436 6 1278 6Q1098 6 1012 0L1020 41Q1095 44 1131
57T1189 105T1231 217L1528 1321L678 -10H633L494 1337L203 238Q185 168 185 135Q185 85 219 65T340 41L330 0Q260 6 123 6Q1 6 -70 0L-59 41Q13 44 51 61T112 119T156 238L422 1233Q439 1298 439 1331Q439 1362 425 1378T383 1400T301 1409L311 1450Q376 1444
494 1444Q603 1444 674 1450L786 236L1556 1444H1655Q1812 1444 1911 1450Z" />
<glyph unicode="N" glyph-name="N" horiz-adv-x="1577" d="M1729 1544T1757 1515T1786 1440Q1786 1404 1772 1370T1731 1314T1665 1292Q1624 1292 1606 1316T1587 1372Q1587 1405 1606 1439T1653 1501H1647Q1547 1498 1479 1397Q1388 1261 1290 920T1067 -10H1022L555
1309Q456 798 366 442T195 -23Q148 -83 99 -117T-25 -152Q-147 -152 -147 -45Q-147 -10 -133 23T-92 78T-27 100Q15 100 33 76T51 20Q51 -13 33 -47T-14 -109H-8Q98 -105 162 -2Q241 121 324 441T506 1278Q510 1302 510 1324Q510 1358 496 1375T448 1400T352 1409L362
1450Q428 1444 545 1444Q640 1444 711 1450L1098 318Q1186 711 1270 999T1442 1413Q1532 1544 1663 1544Q1729 1544 1757 1515Z" />
<glyph unicode="O" glyph-name="O" horiz-adv-x="1493" d="M111 695T220 932T524 1324T965 1479Q1116 1479 1224 1421T1390 1252T1448 985Q1448 754 1338 518T1032 126T592 -29Q441 -29 333 29T168 197T111 463Q111 695 220 932ZM792 1442T649 1295T417 913T328
436Q328 304 363 208T463 60T610 8Q765 8 908 155T1140 537T1229 1014Q1229 1146 1193 1242T1093 1390T946 1442Q792 1442 649 1295Z" />
<glyph unicode="P" glyph-name="P" horiz-adv-x="1206" d="M1063 1448T1166 1366T1270 1139Q1270 979 1173 853T899 654T498 582H437L340 217Q320 139 320 114Q320 76 350 60T461 41L453 0Q357 6 199 6Q19 6 -68 0L-59 41Q15 44 51 57T110 105T152 217L422 1233Q440
1298 440 1331Q440 1373 410 1390T301 1409L311 1450Q395 1444 563 1444Q612 1444 710 1446Q810 1448 862 1448Q1063 1448 1166 1366ZM805 623T934 772T1063 1171Q1063 1293 1001 1351T803 1409Q741 1409 707 1394T651 1342T610 1233L448 623H518Q805 623 934 772Z"
/>
<glyph unicode="Q" glyph-name="Q" horiz-adv-x="1599" d="M1370 102T1398 71T1427 -14Q1427 -104 1348 -190T1146 -331T903 -385Q803 -385 717 -346T562 -250T413 -107Q241 -168 121 -168Q20 -168 -36 -128T-92 -16Q-92 37 -60 78T30 143T158 166Q231 166 294
142T410 83T540 -15Q742 87 923 259T1215 637T1327 1042Q1327 1162 1287 1252T1167 1392T977 1442Q826 1442 707 1354T523 1126T457 838Q457 691 520 618T690 545Q780 545 854 594T970 718T1012 868Q1012 925 997 950Q976 908 934 883T846 858Q801 858 776 884T750
954Q750 1008 790 1043T891 1079Q964 1079 1008 1024T1053 879Q1053 778 997 691T839 551T612 498Q497 498 415 543T291 669T248 856Q248 1031 357 1174T643 1398T1012 1479Q1174 1479 1293 1428T1476 1282T1540 1055Q1540 848 1398 637T1033 249T572 -41Q652 -104
721 -147T878 -218T1073 -246Q1175 -246 1248 -215T1368 -106Q1339 -119 1305 -119Q1258 -119 1231 -91T1204 -20Q1204 11 1220 39T1263 85T1325 102Q1370 102 1398 71ZM248 -133T389 -81Q321 -10 279 29T191 94T96 121Q59 121 25 105T-31 59T-53 -12Q-53 -133
143 -133Q248 -133 389 -81Z" />
<glyph unicode="R" glyph-name="R" horiz-adv-x="1360" d="M1260 248L1251 221Q1215 92 1159 32T1008 -29Q947 -29 905 -5T843 61T822 150L823 168L840 397Q843 431 843 461Q843 548 812 595T700 665T465 688L340 217Q321 146 321 117Q321 76 351 59T461 41L453
0Q357 6 199 6Q19 6 -68 0L-59 41Q15 44 51 57T110 105T152 217L422 1233Q440 1298 440 1329Q440 1372 409 1390T301 1409L311 1450Q395 1444 563 1444Q612 1444 710 1446Q810 1448 862 1448Q1063 1448 1166 1371T1270 1159Q1270 1048 1205 955T1018 797T735 705Q759
702 807 694Q887 679 935 655T1009 585T1034 467Q1034 454 1032 424L1016 215Q1014 187 1014 173Q1014 47 1079 47Q1114 47 1142 89T1202 219L1212 248H1260ZM539 729Q815 729 939 849T1063 1171Q1063 1293 1001 1351T803 1409Q741 1409 707 1394T651 1342T610
1233L476 729H539Z" />
<glyph unicode="S" glyph-name="S" horiz-adv-x="1135" d="M1106 1284T1059 1047H1018Q1030 1104 1030 1163Q1030 1241 1000 1303T904 1403T739 1440Q610 1440 532 1374T453 1180Q453 1110 486 1046T569 928T703 796Q792 713 845 656T934 526T971 373Q971 239
894 149T699 15T453 -29Q345 -29 280 -3T162 66Q123 96 88 96Q64 96 47 72T4 -14H-37Q32 149 102 477H143Q132 416 128 383T125 311Q138 12 459 12Q598 12 679 75T760 268Q760 346 729 412T654 528T532 652Q451 729 403 784T321 914T287 1079Q287 1205 351 1295T518
1432T737 1479Q821 1479 882 1459T1004 1393Q1051 1356 1071 1356Q1088 1356 1103 1381T1139 1464H1180Q1106 1284 1059 1047Z" />
<glyph unicode="T" glyph-name="T" horiz-adv-x="1350" d="M1618 1673T1641 1645T1665 1575Q1665 1530 1639 1492T1569 1427Q1460 1360 1245 1360Q1156 1360 1035 1374L733 238Q715 173 715 134Q715 99 732 80T785 52T887 41L879 0Q771 6 573 6Q373 6 274 0L283
41Q370 44 417 62T492 120T543 238L852 1398Q693 1421 588 1421Q410 1421 358 1386Q374 1365 384 1332T395 1268Q395 1221 369 1185T293 1149Q249 1149 226 1176T203 1251Q203 1358 311 1411Q407 1458 586 1458Q716 1458 927 1429Q1141 1401 1260 1401Q1351 1401
1412 1411T1523 1446Q1473 1498 1473 1561Q1473 1607 1498 1640T1573 1673Q1618 1673 1641 1645Z" />
<glyph unicode="U" glyph-name="U" horiz-adv-x="1397" d="M1306 1268T1306 1303Q1306 1359 1271 1382T1155 1409L1165 1450Q1235 1444 1372 1444Q1495 1444 1565 1450L1554 1409Q1482 1406 1443 1388T1380 1330T1337 1212L1178 596Q1103 311 977 162Q902 74 792
23T557 -29Q338 -29 242 82Q170 162 170 290Q170 396 221 590L391 1233Q408 1298 408 1331Q408 1362 395 1378T352 1400T270 1409L283 1450Q365 1444 547 1444Q704 1444 803 1450L791 1409Q716 1406 679 1393T621 1345T580 1233L399 555Q354 378 354 278Q354 165
409 104T596 43Q811 43 934 182T1124 573L1292 1212Q1306 1268 1306 1303Z" />
<glyph unicode="V" glyph-name="V" horiz-adv-x="1294" d="M1455 1444T1520 1450L1509 1409Q1400 1386 1303 1231L496 -10H465L303 1278Q295 1345 264 1376T197 1409L207 1450Q287 1444 428 1444Q584 1444 674 1450L664 1409Q600 1406 566 1398T514 1365T496 1290Q496
1277 500 1237L616 248L1184 1118Q1272 1253 1272 1321Q1272 1366 1235 1386T1120 1409L1130 1450Q1244 1444 1364 1444Q1455 1444 1520 1450Z" />
<glyph unicode="W" glyph-name="W" horiz-adv-x="1847" d="M1972 1444T2036 1450L2025 1409Q1904 1384 1831 1231L1219 -10H1186L1039 923L483 -10H451L289 1278Q271 1405 176 1409L184 1450Q268 1444 387 1444Q535 1444 608 1450L600 1409Q537 1405 510 1381T482
1290Q482 1267 485 1237L600 260L1029 986L983 1278Q963 1405 891 1409L899 1450Q972 1444 1081 1444Q1258 1444 1343 1450L1335 1409Q1273 1406 1240 1397T1190 1366T1174 1302Q1174 1275 1180 1237L1326 306L1726 1118Q1794 1254 1794 1318Q1794 1368 1756 1387T1636
1409L1647 1450Q1759 1444 1880 1444Q1972 1444 2036 1450Z" />
<glyph unicode="X" glyph-name="X" horiz-adv-x="1432" d="M1476 1479T1505 1450T1535 1373Q1535 1343 1522 1309T1482 1251T1413 1227Q1374 1227 1355 1249T1335 1305Q1335 1336 1353 1372T1401 1436H1395Q1324 1436 1264 1393Q1172 1326 1058 1167T839 781L893
317Q905 209 942 147T1055 84Q1115 84 1152 121T1219 244L1253 348H1294L1241 190Q1203 78 1142 25T991 -29Q857 -29 799 61T723 291L686 613Q605 444 479 284T242 43Q147 -29 53 -29Q-10 -29 -39 0T-69 77Q-69 107 -56 141T-16 199T53 223Q93 223 112 201T131
145Q131 115 113 78T66 14H74Q143 17 203 57Q309 127 437 287T678 680L625 1133Q612 1241 575 1303T463 1366Q403 1366 366 1329T299 1206L264 1102H223L276 1260Q315 1372 376 1425T526 1479Q660 1479 718 1390T795 1159L832 843Q912 1016 1020 1172T1225 1407Q1318
1479 1413 1479Q1476 1479 1505 1450Z" />
<glyph unicode="Y" glyph-name="Y" horiz-adv-x="1372" d="M1494 1479T1521 1448T1548 1369Q1548 1339 1535 1306T1495 1250T1427 1227Q1350 1227 1350 1308Q1350 1341 1368 1375T1415 1436H1409Q1354 1433 1296 1391Q1189 1313 1066 1140T828 692L709 217Q692
151 692 118Q692 88 705 72T747 50T829 41L819 0Q727 6 565 6Q385 6 297 0L307 41Q381 44 418 57T477 105T518 217L638 695Q565 1366 399 1366Q364 1366 341 1344T301 1270L244 1102H199L266 1300Q288 1364 312 1402T373 1459T467 1479Q575 1479 641 1391T745 1146T809
737Q957 1109 1192 1346Q1325 1479 1434 1479Q1494 1479 1521 1448Z" />
<glyph unicode="Z" glyph-name="Z" horiz-adv-x="1335" d="M1472 1450T1472 1433Q1472 1405 1434 1371T1319 1307L752 750H1063L1047 709H711L131 139Q319 250 485 250Q543 250 588 236T703 193Q768 164 816 150T924 135Q992 135 1027 170T1063 270Q1063 390 915
420L924 461Q1016 444 1078 388T1141 223Q1141 150 1111 93T1025 4T893 -29Q846 -29 806 -14T733 23T654 82Q609 118 578 139T508 175T424 190Q345 190 282 169T121 98Q84 45 43 12T-30 -21Q-46 -21 -59 -10Q-71 0 -71 17Q-71 45 -33 79T82 143L658 709H326L340
750H699L1270 1311Q1082 1200 915 1200Q857 1200 812 1214T697 1257Q631 1286 584 1300T477 1315Q409 1315 374 1280T338 1180Q338 1060 485 1030L477 989Q385 1006 323 1062T260 1227Q260 1300 290 1357T376 1446T508 1479Q555 1479 595 1464T668 1427T746 1368Q793
1331 823 1310T893 1275T977 1260Q1056 1260 1119 1281T1280 1352Q1317 1405 1357 1438T1430 1471Q1446 1471 1460 1460Q1472 1450 1472 1433Z" />
<glyph unicode="[" glyph-name="bracketleft" horiz-adv-x="614" d="M784 1581L776 1542H610L141 -332H307L299 -371H-50L436 1581H784Z" />
<glyph unicode="\" glyph-name="backslash" horiz-adv-x="1008" d="M733 -29L270 1479H334L801 -29H733Z" />
<glyph unicode="]" glyph-name="bracketright" horiz-adv-x="614" d="M-170 -371L-162 -332H4L473 1542H307L315 1581H664L178 -371H-170Z" />
<glyph unicode="^" glyph-name="asciicircum" horiz-adv-x="1096" d="M514 837T403 771T182 659L174 688Q321 751 451 857T662 1081H698Q716 963 789 857T977 688L952 659Q841 704 743 771T592 905Q514 837 403 771Z" />
<glyph unicode="_" glyph-name="underscore" horiz-adv-x="1524" d="M1126 -327H-103L-82 -245H1149L1126 -327Z" />
<glyph unicode="`" glyph-name="grave" horiz-adv-x="457" d="M350 1335T238 1469Q162 1559 133 1606Q112 1640 112 1671Q112 1712 145 1729Q160 1735 177 1735Q230 1735 266 1671Q289 1631 333 1518Q401 1346 453 1239L426 1227Q350 1335 238 1469Z" />
<glyph unicode="a" glyph-name="a" horiz-adv-x="1294" d="M1043 104T1071 74T1135 41L1124 0Q1042 6 901 6Q736 6 655 0L666 41Q729 44 767 55T825 94T845 173Q845 191 842 213L811 467H292L152 293Q71 194 71 129Q71 51 195 41V0Q134 6 8 6Q-117 6 -170 0V41Q-80
64 53 231L877 1260H907L1034 172Q1043 104 1071 74ZM743 1027L325 508H806L743 1027Z" />
<glyph unicode="b" glyph-name="b" horiz-adv-x="1255" d="M935 639T1014 568T1094 391Q1094 282 1017 193T812 52T537 0Q467 0 387 3Q204 6 184 6Q21 6 -66 0L-57 41Q17 44 53 57T112 105T154 217L371 1028Q389 1093 389 1126Q389 1168 358 1186T250 1204L260
1245Q343 1239 504 1239Q548 1239 642 1241Q740 1243 793 1243Q983 1243 1080 1184T1178 1022Q1178 937 1119 866T965 744T758 664Q935 639 1014 568ZM571 668Q691 668 783 714T925 839T975 1008Q975 1107 922 1155T754 1204Q691 1204 657 1193T603 1151T567 1059L463
668H571ZM621 47T717 93T851 221T889 422Q889 633 596 633H454L344 217Q325 144 325 116Q325 78 352 63T449 47Q621 47 717 93Z" />
<glyph unicode="c" glyph-name="c" horiz-adv-x="1362" d="M412 -29T306 21T143 167T86 401Q86 608 191 811T487 1144T926 1274Q1038 1274 1106 1239T1229 1141Q1244 1123 1258 1123Q1296 1123 1341 1245H1386Q1322 1056 1253 774H1208Q1221 875 1221 932Q1221
1010 1188 1077Q1151 1155 1077 1196T907 1237Q745 1237 603 1102T376 761T291 360Q291 191 368 100T580 8Q674 8 774 50T948 168Q1002 224 1041 294T1133 492H1178Q1081 137 1057 0H1012Q1018 44 1018 70Q1018 122 992 122Q976 122 950 104Q857 39 768 5T561 -29Q412
-29 306 21Z" />
<glyph unicode="d" glyph-name="d" horiz-adv-x="1483" d="M1393 568T1280 387T959 103T475 0Q428 0 356 3Q185 6 188 6Q23 6 -57 0L-51 41Q19 44 54 57T112 105T154 217L369 1028Q388 1095 388 1128Q388 1170 358 1186T250 1204L256 1245Q366 1238 456 1238L506
1239L590 1241Q750 1245 815 1245Q1103 1245 1248 1130T1393 793Q1393 568 1280 387ZM706 37T872 138T1117 420T1196 844Q1196 1029 1092 1118T758 1208Q694 1208 658 1194T600 1142T559 1032L344 213Q326 144 326 111Q326 71 353 54T451 37Q706 37 872 138Z" />
<glyph unicode="e" glyph-name="e" horiz-adv-x="1268" d="M1143 1239T1278 1245Q1248 1170 1204 1024L1198 1001Q1176 913 1169 877H1122Q1141 970 1141 1026Q1141 1089 1119 1126T1049 1181T922 1198H772Q698 1198 662 1187T603 1140T561 1028L458 647H649Q714
647 759 684T830 767T881 877H928Q876 720 854 627L841 578Q813 472 799 377H752Q761 435 761 471Q761 535 730 570T616 606H447L342 217Q325 151 325 118Q325 88 338 73T381 53T463 47H612Q724 47 799 81T931 194T1038 410H1085Q1050 302 1036 242Q1012 161 985
0Q842 6 504 6Q125 6 -70 0L-59 41Q15 44 51 57T110 105T152 217L371 1028Q388 1094 388 1128Q388 1158 375 1173T333 1195T252 1204L262 1245Q455 1239 834 1239Q1143 1239 1278 1245Z" />
<glyph unicode="f" glyph-name="f" horiz-adv-x="1184" d="M1149 1239T1284 1245Q1254 1170 1210 1024Q1181 907 1176 877H1128Q1146 963 1146 1022Q1146 1117 1094 1157T922 1198H772Q698 1198 662 1187T603 1140T561 1028L458 647H670Q735 647 780 684T850 767T901
877H948Q903 741 874 627L862 579Q835 480 819 377H772Q780 441 780 473Q780 536 754 571T657 606H447L342 217Q327 160 327 127Q327 93 344 75T397 50T502 41L492 0Q387 6 193 6Q20 6 -70 0L-59 41Q15 44 51 57T110 105T152 217L371 1028Q388 1094 388 1128Q388
1158 375 1173T333 1195T252 1204L262 1245Q455 1239 834 1239Q1149 1239 1284 1245Z" />
<glyph unicode="g" glyph-name="g" horiz-adv-x="1427" d="M1059 28T1059 44Q1059 96 1028 96Q995 96 920 49Q852 8 777 -10T602 -29Q351 -29 219 82T86 399Q86 600 188 803T481 1140T926 1274Q1010 1274 1071 1257T1175 1212T1262 1141Q1281 1122 1297 1122Q1336
1122 1378 1245H1423Q1357 1052 1292 774H1247Q1257 862 1257 928Q1257 1022 1229 1077Q1186 1152 1102 1194T913 1237Q704 1237 560 1083T346 716T276 332Q276 169 363 91T631 12Q692 12 760 28T883 80T954 176L991 313Q1010 384 1010 419Q1010 455 993 473T941
499T838 510L846 551Q954 545 1135 545Q1273 545 1348 551L1339 510Q1288 507 1264 495T1223 448T1184 334L1094 0H1053Q1059 28 1059 44Z" />
<glyph unicode="h" glyph-name="h" horiz-adv-x="1552" d="M1539 1239T1628 1245L1618 1204Q1543 1201 1507 1188T1449 1140T1407 1028L1192 217Q1175 151 1175 118Q1175 88 1188 72T1231 50T1313 41L1305 0Q1218 6 1042 6Q878 6 782 0L791 41Q865 44 901 57T959
105T1001 217L1105 606H447L344 217Q327 151 327 118Q327 88 340 72T383 50T465 41L457 0Q361 6 197 6Q25 6 -63 0L-53 41Q19 44 55 57T112 105T154 217L369 1028Q386 1093 386 1126Q386 1157 372 1173T330 1195T248 1204L258 1245Q340 1239 518 1239Q683 1239
780 1245L770 1204Q695 1201 659 1188T601 1140T559 1028L458 647H1116L1217 1028Q1234 1093 1234 1126Q1234 1157 1220 1173T1178 1195T1096 1204L1106 1245Q1197 1239 1364 1239Q1539 1239 1628 1245Z" />
<glyph unicode="i" glyph-name="i" horiz-adv-x="705" d="M327 151T327 118Q327 88 340 72T383 50T465 41L457 0Q361 6 197 6Q25 6 -63 0L-53 41Q19 44 55 57T112 105T154 217L369 1028Q386 1093 386 1126Q386 1157 372 1173T330 1195T248 1204L258 1245Q340 1239
518 1239Q683 1239 780 1245L770 1204Q695 1201 659 1188T601 1140T559 1028L344 217Q327 151 327 118Z" />
<glyph unicode="j" glyph-name="j" horiz-adv-x="1260" d="M1391 1259T1391 1245Q1391 1196 1241 1139Q1153 1068 1093 981T988 787T895 524H1100L1094 483H883L879 471L735 -10Q703 -116 638 -201T475 -335T252 -385Q156 -385 100 -355T43 -268Q43 -239 57 -213T98
-169T156 -152Q193 -152 217 -176T242 -237Q242 -271 219 -298T160 -342Q190 -352 231 -352Q332 -352 391 -303T486 -168T574 92Q572 84 592 154L659 379Q672 421 694 483H436L442 524H709Q765 664 837 766T987 942T1206 1133Q1111 1075 1027 1043T862 1010Q798
1010 746 1024T622 1067Q547 1096 495 1110T379 1124Q311 1124 277 1089T246 989Q249 868 397 840L391 799Q298 815 234 871T166 1036Q163 1109 191 1166T273 1255T403 1288Q454 1288 499 1273T579 1236T667 1177Q717 1141 752 1120T830 1084T922 1069Q1000 1069
1062 1090T1223 1161Q1300 1281 1351 1281Q1365 1281 1378 1270Q1391 1259 1391 1245Z" />
<glyph unicode="k" glyph-name="k" horiz-adv-x="1380" d="M1302 1274T1331 1244T1360 1164Q1360 1137 1348 1104T1309 1046T1241 1022Q1200 1022 1181 1046T1161 1104Q1161 1133 1180 1168T1227 1231H1221Q1196 1231 1181 1225T1147 1202Q1117 1174 1096 1127T1045
999Q1008 896 976 829T886 711T743 648Q852 624 908 562T964 376Q964 353 963 340L958 164Q957 127 977 106T1026 84Q1078 84 1113 122T1178 244L1212 348H1253L1200 190Q1162 78 1101 25T950 -29Q864 -29 820 21T776 166Q776 179 778 209L791 360Q793 377 793
411Q793 493 770 552T705 631Q624 610 574 610Q508 610 508 647Q508 686 572 686Q618 686 699 666Q789 674 846 722T935 835T1000 1003Q1031 1093 1055 1144T1116 1227Q1176 1274 1239 1274Q1302 1274 1331 1244ZM327 151T327 118Q327 88 340 72T383 50T465 41L457
0Q361 6 197 6Q25 6 -63 0L-53 41Q19 44 55 57T112 105T154 217L369 1028Q386 1093 386 1126Q386 1157 372 1173T330 1195T248 1204L258 1245Q340 1239 518 1239Q682 1239 780 1245L770 1204Q695 1201 659 1188T601 1140T559 1028L344 217Q327 151 327 118Z" />
<glyph unicode="l" glyph-name="l" horiz-adv-x="1217" d="M1057 305T1042 242Q1022 175 991 0Q848 6 504 6Q125 6 -70 0L-59 41Q15 44 51 57T110 105T152 217L371 1028Q388 1094 388 1128Q388 1158 375 1173T333 1195T252 1204L262 1245Q344 1239 522 1239Q687
1239 784 1245L774 1204Q699 1201 662 1188T603 1140T561 1028L342 217Q325 151 325 118Q325 88 338 73T381 53T463 47H592Q747 47 862 136T1053 430H1100Q1057 305 1042 242Z" />
<glyph unicode="m" glyph-name="m" horiz-adv-x="1774" d="M1763 1268T1862 1274L1851 1233Q1776 1230 1740 1217T1682 1169T1640 1057L1417 217Q1400 152 1400 119Q1400 88 1414 72T1456 50T1538 41L1530 0Q1434 6 1276 6Q1096 6 1010 0L1018 41Q1093 44 1129
57T1186 105T1229 217L1477 1142L676 -10H631L443 1158L201 238Q183 168 183 134Q183 84 217 64T336 41L326 0Q251 6 119 6Q-7 6 -74 0L-63 41Q9 44 48 61T111 119T156 238L373 1057Q390 1122 390 1155Q390 1186 376 1202T334 1224T252 1233L262 1274Q326 1268
444 1268Q545 1268 616 1274L778 218L1507 1268H1606Q1763 1268 1862 1274Z" />
<glyph unicode="n" glyph-name="n" horiz-adv-x="1632" d="M1727 1339T1755 1310T1784 1235Q1784 1199 1770 1165T1729 1109T1663 1087Q1622 1087 1604 1111T1585 1167Q1585 1201 1604 1236T1651 1296H1645Q1592 1295 1553 1268T1477 1192Q1386 1064 1285 771T1065
-10H1020L554 1114Q332 151 193 -23Q160 -63 132 -89T64 -134T-27 -152Q-150 -152 -150 -45Q-150 -9 -136 24T-95 78T-29 100Q13 100 31 76T49 20Q49 -13 31 -47T-16 -109H-12Q88 -105 160 -2Q305 213 508 1109Q510 1148 497 1167T450 1193T350 1204L360 1245Q424
1239 543 1239Q638 1239 709 1245L1097 281Q1187 614 1272 857T1440 1208Q1536 1339 1661 1339Q1727 1339 1755 1310Z" />
<glyph unicode="o" glyph-name="o" horiz-adv-x="1499" d="M447 -29T334 25T158 190T94 465Q94 650 198 839T489 1151T909 1274Q1060 1274 1173 1220T1349 1055T1413 780Q1413 595 1309 406T1018 94T598 -29Q447 -29 334 25ZM728 1237T596 1121T388 819T313 436Q313
214 394 111T616 8Q779 8 911 124T1119 426T1194 809Q1194 1031 1113 1134T891 1237Q728 1237 596 1121Z" />
<glyph unicode="p" glyph-name="p" horiz-adv-x="1192" d="M1010 1243T1113 1172T1217 975Q1217 840 1122 732T856 562T465 500H417L342 217Q325 147 325 119Q325 80 354 63T463 41L455 0Q359 6 201 6Q21 6 -66 0L-57 41Q17 44 53 57T112 105T154 217L369 1028Q383
1093 383 1118Q383 1161 354 1180T248 1204L258 1245Q340 1239 510 1239Q557 1239 657 1241Q757 1243 809 1243Q1010 1243 1113 1172ZM762 541T886 668T1010 1008Q1010 1108 948 1156T750 1204Q688 1204 654 1189T598 1137T557 1028L428 541H485Q762 541 886 668Z"
/>
<glyph unicode="q" glyph-name="q" horiz-adv-x="1591" d="M1361 61T1389 30T1417 -53Q1417 -150 1340 -226T1145 -343T911 -385Q801 -385 709 -348T544 -256T394 -121Q235 -168 115 -168Q11 -168 -45 -129T-102 -23Q-102 59 -36 102T139 145Q214 145 280 121T403
62T537 -34Q732 51 901 189T1173 500T1276 854Q1276 969 1236 1055T1117 1189T928 1237Q787 1237 667 1168T477 979T406 713Q406 578 471 510T645 442Q718 442 791 478T911 576T958 707Q958 760 942 788Q920 745 880 720T795 694Q750 694 724 721T698 791Q698 844
738 879T836 915Q911 915 956 863T1001 725Q1001 625 941 550T782 435T575 395Q449 395 365 432T239 536T197 692Q197 868 313 1000T604 1203T950 1274Q1106 1274 1228 1224T1419 1077T1489 848Q1489 666 1355 490T1012 172T572 -61Q649 -119 713 -157T857 -221T1028
-246Q1146 -246 1225 -223T1368 -141Q1331 -160 1294 -160Q1248 -160 1221 -131T1194 -59Q1194 -28 1210 -1T1253 44T1315 61Q1361 61 1389 30ZM234 -133T368 -95Q300 -25 260 12T173 74T80 100Q20 100 -23 70T-66 -16Q-66 -75 -12 -104T113 -133Q234 -133 368
-95Z" />
<glyph unicode="r" glyph-name="r" horiz-adv-x="1325" d="M1208 248L1200 221Q1164 94 1104 33T948 -29Q854 -29 812 28T774 168L782 297Q784 337 784 354Q784 436 758 483T667 555T478 586H467H441L342 217Q325 147 325 119Q325 80 354 63T463 41L455 0Q359
6 201 6Q21 6 -66 0L-57 41Q17 44 53 57T112 105T154 217L371 1028Q385 1093 385 1118Q385 1161 356 1180T250 1204L260 1245Q343 1239 512 1239Q559 1239 659 1241Q759 1243 811 1243Q1012 1243 1115 1177T1219 995Q1219 892 1155 811T974 677T696 601L741 594Q822
579 872 553T947 479T972 354Q972 334 971 324L965 215Q963 179 963 163Q963 106 977 77T1027 47Q1063 47 1090 88T1151 219L1161 248H1208ZM487 627Q683 627 797 666T962 787T1012 1008Q1012 1108 950 1156T752 1204Q690 1204 656 1189T600 1137T559 1028L452
627H487Z" />
<glyph unicode="s" glyph-name="s" horiz-adv-x="1153" d="M1065 1076T1018 842H977Q989 901 989 956Q989 1080 917 1157T694 1235Q570 1235 491 1180T412 1018Q412 949 446 894T534 796T678 694Q781 627 838 582T934 473T973 328Q973 211 897 131T701 11T457
-29Q380 -29 325 -15T235 18T164 66Q124 96 92 96Q66 96 50 73T6 -14H-35Q34 149 104 477H145Q127 373 127 326Q127 176 209 94T465 12Q603 12 682 66T762 231Q762 302 731 358T651 456T524 551Q425 619 373 661T283 767T246 915Q246 1028 310 1109T478 1232T702
1274Q787 1274 844 1253T963 1188Q1011 1151 1030 1151Q1047 1151 1062 1176T1098 1260H1139Q1065 1076 1018 842Z" />
<glyph unicode="t" glyph-name="t" horiz-adv-x="1251" d="M1450 1468T1473 1441T1497 1372Q1497 1290 1403 1221Q1343 1187 1278 1171T1120 1155Q1052 1155 947 1166L678 238Q659 172 659 136Q659 100 676 80T730 51T831 41L823 0Q717 6 518 6Q318 6 219 0L227
41Q316 44 362 60T436 117T487 238L764 1192Q591 1217 506 1217Q376 1217 313 1182Q329 1160 339 1127T350 1063Q350 1016 324 980T248 944Q205 944 182 972T158 1047Q158 1150 264 1206Q352 1253 496 1253Q571 1253 640 1246T821 1224Q1025 1196 1128 1196Q1204
1196 1255 1206T1356 1241Q1305 1292 1305 1356Q1305 1402 1330 1435T1405 1468Q1450 1468 1473 1441Z" />
<glyph unicode="u" glyph-name="u" horiz-adv-x="1399" d="M1101 311T975 162Q900 74 790 23T555 -29Q326 -29 240 82Q202 128 185 178T167 292Q167 393 219 590L336 1028Q353 1093 353 1126Q353 1157 339 1173T297 1195T215 1204L227 1245Q311 1239 492 1239Q649
1239 748 1245L735 1204Q660 1201 624 1188T566 1140T524 1028L397 555Q352 378 352 278Q352 165 408 104T594 43Q809 43 932 182T1122 573L1239 1008Q1254 1062 1254 1099Q1254 1154 1218 1177T1102 1204L1112 1245Q1186 1239 1319 1239Q1444 1239 1511 1245L1501
1204Q1438 1201 1399 1183T1332 1124T1284 1008L1176 596Q1101 311 975 162Z" />
<glyph unicode="v" glyph-name="v" horiz-adv-x="1303" d="M1431 1239T1487 1245L1477 1204Q1416 1180 1370 1139T1249 1004L440 -10H410L274 1073Q266 1140 235 1171T168 1204L178 1245Q258 1239 399 1239Q557 1239 645 1245L635 1204Q572 1201 538 1192T486
1158T468 1083Q468 1061 471 1032L569 221L1126 918Q1242 1062 1242 1129Q1242 1199 1112 1204L1122 1245Q1181 1239 1348 1239Q1431 1239 1487 1245Z" />
<glyph unicode="w" glyph-name="w" horiz-adv-x="1855" d="M1962 1239T2011 1245L2001 1204Q1938 1185 1889 1141T1782 1001L1163 -10H1130L980 916L428 -10H395L260 1073Q243 1200 147 1204L156 1245Q239 1239 358 1239Q505 1239 580 1245L571 1204Q508 1200
481 1176T453 1087Q453 1060 457 1032L545 263L969 979L954 1073Q935 1200 862 1204L870 1245Q945 1239 1053 1239Q1228 1239 1315 1245L1307 1204Q1245 1201 1211 1192T1161 1162T1144 1099Q1144 1068 1151 1032L1282 262L1667 895Q1760 1048 1760 1120Q1760 1164
1729 1183T1636 1204L1647 1245Q1709 1239 1833 1239Q1962 1239 2011 1245Z" />
<glyph unicode="x" glyph-name="x" horiz-adv-x="1384" d="M1376 1274T1405 1245T1435 1169Q1435 1138 1422 1104T1382 1046T1313 1022Q1273 1022 1254 1044T1235 1100Q1235 1130 1253 1167T1300 1231H1294Q1226 1228 1163 1188Q1082 1129 983 997T789 679L829
317Q842 209 879 147T991 84Q1051 84 1088 121T1155 244L1190 348H1231L1178 190Q1139 78 1078 25T928 -29Q793 -29 734 61T659 291L634 512Q552 368 445 241T244 43Q145 -29 55 -29Q-8 -29 -37 0T-67 77Q-67 107 -54 141T-14 199T55 223Q95 223 114 201T133 145Q133
115 115 78T68 14H74Q147 17 205 57Q298 117 410 251T627 579L588 928Q575 1036 539 1098T426 1161Q366 1161 329 1124T262 1001L227 897H186L240 1055Q278 1167 339 1220T489 1274Q624 1274 683 1184T758 954L782 739Q859 887 951 1012T1124 1202Q1215 1274 1313
1274Q1376 1274 1405 1245Z" />
<glyph unicode="y" glyph-name="y" horiz-adv-x="1307" d="M1377 1274T1404 1243T1432 1164Q1432 1134 1419 1101T1378 1045T1311 1022Q1233 1022 1233 1103Q1233 1134 1251 1168T1298 1231H1292Q1242 1228 1180 1186Q1076 1108 960 955T738 562L649 217Q632 151
632 118Q632 88 645 72T688 50T770 41L760 0Q667 6 506 6Q326 6 238 0L248 41Q322 44 359 57T418 105T459 217L556 593Q497 1161 365 1161Q329 1161 306 1139T266 1065L209 897H164L231 1096Q253 1160 277 1197T338 1254T432 1274Q517 1274 568 1214T649 1044T711
737L726 637Q870 947 1075 1149Q1130 1203 1193 1238T1317 1274Q1377 1274 1404 1243Z" />
<glyph unicode="z" glyph-name="z" horiz-adv-x="1339" d="M1433 1245T1433 1228Q1433 1200 1395 1166T1280 1102L731 647H969L952 606H682L119 139Q305 250 473 250Q531 250 576 236T691 193Q757 164 804 150T911 135Q980 135 1015 170T1051 270Q1051 390 903
420L911 461Q1004 444 1066 388T1128 223Q1128 150 1098 93T1012 4T881 -29Q834 -29 794 -14T721 23T642 82Q597 118 566 139T496 175T412 190Q333 190 270 169T109 98Q72 45 31 12T-43 -21Q-59 -21 -72 -10Q-84 0 -84 17Q-84 45 -46 79T70 143L628 606H395L410
647H678L1231 1106Q1043 995 877 995Q819 995 773 1009T658 1052Q592 1081 545 1095T438 1110Q370 1110 335 1075T299 975Q299 855 446 825L438 784Q346 801 284 857T221 1022Q221 1095 251 1152T337 1241T469 1274Q516 1274 556 1259T629 1222T707 1163Q754 1126
784 1105T854 1070T938 1055Q993 1055 1040 1066T1130 1095T1241 1147Q1278 1200 1319 1233T1391 1266Q1407 1266 1421 1255Q1433 1245 1433 1228Z" />
<glyph unicode="{" glyph-name="braceleft" horiz-adv-x="627" d="M175 -385T114 -328T52 -164Q52 -81 94 89Q162 358 162 465Q161 527 138 555T66 586H56L62 623H72Q138 628 181 672T264 819T353 1121Q401 1311 459 1414T601 1559T817 1602L807 1563Q735 1562
696 1534T622 1416T537 1121Q494 948 429 842T288 683T117 605Q315 545 315 323Q315 231 279 89Q216 -164 219 -243Q219 -302 246 -323T336 -346L326 -385Q175 -385 114 -328Z" />
<glyph unicode="|" glyph-name="bar" horiz-adv-x="651" d="M305 -399V1757H387V-399H305Z" />
<glyph unicode="}" glyph-name="braceright" horiz-adv-x="627" d="M454 1602T515 1545T577 1381Q577 1298 535 1128Q467 859 467 752Q468 690 491 662T563 631H573L567 594H557Q491 589 448 545T365 398T276 96Q228 -94 170 -197T28 -342T-188 -385L-178 -346Q-106
-345 -67 -317T7 -199T92 96Q135 269 200 375T341 534T512 612Q314 672 314 894Q314 986 350 1128Q413 1381 410 1460Q410 1519 383 1540T293 1563L303 1602Q454 1602 515 1545Z" />
<glyph unicode="~" glyph-name="asciitilde" horiz-adv-x="1329" d="M789 485T734 506T607 568Q537 607 488 626T375 645Q242 645 168 526L139 537Q186 639 275 697T477 756Q548 756 602 736T730 674Q798 635 848 616T963 596Q1095 596 1169 715L1198 705Q1152
602 1063 544T860 485Q789 485 734 506Z" />
<glyph unicode="&#xa0;" glyph-name="nbspace" horiz-adv-x="518" />
<glyph unicode="&#xa1;" glyph-name="exclamdown" horiz-adv-x="510" d="M216 964T238 1000T295 1059T369 1081Q415 1081 444 1051T473 974Q473 934 452 899T394 841T319 819Q274 819 245 849T216 924Q216 964 238 1000ZM237 433T175 38Q137 -210 113 -305Q104
-344 79 -364T20 -385Q-26 -385 -49 -362T-73 -301Q-73 -279 -66 -258Q-47 -193 37 24Q110 212 162 357T254 653L291 647Q237 433 175 38Z" />
<glyph unicode="&#xa2;" glyph-name="cent" horiz-adv-x="887" d="M1316 1056T1247 774H1202Q1215 875 1215 932Q1215 1009 1182 1077Q1145 1155 1071 1196T901 1237Q769 1237 644 1141L364 97Q439 8 574 8Q668 8 768 50T942 168Q996 224 1035 294T1127 492H1172Q1075
137 1051 0H1006Q1012 43 1012 70Q1012 122 986 122Q970 122 944 104Q851 39 762 5T555 -29Q431 -29 339 5L238 -371H193L298 21Q192 72 136 168T80 401Q80 563 145 725T332 1019T619 1216L682 1450H727L669 1235Q789 1274 920 1274Q1032 1274 1100 1239T1223 1141Q1238
1123 1252 1123Q1290 1123 1335 1245H1380Q1316 1056 1247 774ZM497 1004T429 882T323 624T285 360Q285 229 331 145L585 1090Q497 1004 429 882Z" />
<glyph unicode="&#xa3;" glyph-name="sterling" horiz-adv-x="1278" d="M1028 1350T1055 1382T1126 1427Q1126 1447 1091 1462T1012 1477Q890 1477 813 1406T692 1230T602 952L576 854H854L842 813H565L522 649H799L786 608H510Q482 520 437 446T336 308T193 156Q332
221 451 221Q497 221 537 211T638 177Q700 153 746 141T846 129Q892 129 932 148T997 201T1022 281Q1022 339 987 374T889 422L901 457Q990 441 1049 388T1108 248Q1108 181 1068 117T959 12T815 -29Q752 -29 703 -5T587 67Q541 99 510 118T438 150T352 164Q267
164 174 123Q122 51 70 11T-23 -29Q-37 -29 -43 -25T-49 -8Q-49 12 -25 40T46 95T154 141Q196 223 229 308T299 528L320 608H121L133 649H331L374 813H176L188 854H385L397 899Q471 1177 621 1342T1016 1507Q1086 1507 1134 1488T1205 1438T1229 1368Q1229 1334
1213 1305T1167 1257T1102 1239Q1070 1239 1049 1258T1028 1309Q1028 1350 1055 1382Z" />
<glyph unicode="&#xa4;" glyph-name="currency" horiz-adv-x="1165" d="M199 475T199 614Q199 755 287 860L197 950L254 1008L344 918Q451 1004 588 1004Q725 1004 831 915L924 1008L981 950L889 858Q975 749 975 614Q975 476 889 371L979 283L922 223L831 313Q722
227 588 227Q449 227 344 311L256 223L197 283L285 371Q199 475 199 614ZM283 530T324 459T436 345T588 303Q670 303 739 345T850 458T891 614Q891 697 850 769T739 884T588 928Q506 928 436 885T324 770T283 614Q283 530 324 459Z" />
<glyph unicode="&#xa5;" glyph-name="yen" horiz-adv-x="1440" d="M1510 1479T1537 1448T1564 1369Q1564 1339 1551 1306T1511 1250T1443 1227Q1366 1227 1366 1308Q1366 1341 1384 1375T1431 1436H1425Q1370 1433 1312 1391Q1205 1313 1082 1140T844 692L823
608H1112L1102 567H813L782 444H1067L1057 403H772L725 217Q708 151 708 118Q708 88 721 72T763 50T845 41L835 0Q743 6 581 6Q401 6 313 0L323 41Q397 44 434 57T493 105T534 217L581 403H293L303 444H591L622 567H338L348 608H632L654 695Q581 1366 415 1366Q380
1366 357 1344T317 1270L260 1102H215L282 1300Q304 1364 328 1402T389 1459T483 1479Q591 1479 657 1391T761 1146T825 737Q973 1109 1208 1346Q1341 1479 1450 1479Q1510 1479 1537 1448Z" />
<glyph unicode="&#xa6;" glyph-name="brokenbar" horiz-adv-x="659" d="M309 786V1757H391V786H309ZM391 668V-399H309V668H391Z" />
<glyph unicode="&#xa7;" glyph-name="section" horiz-adv-x="1040" d="M842 1404T876 1439T961 1489Q948 1530 894 1546T780 1563Q706 1563 640 1537T532 1449T489 1290Q489 1233 519 1181T592 1087T708 982L739 956Q813 894 857 848T927 750T952 639Q952 508
861 404T623 228Q711 127 711 18Q711 -93 648 -185T481 -331T260 -385Q193 -385 127 -366T17 -304T-27 -195Q-27 -160 -9 -128T41 -75T111 -55Q151 -55 175 -77T199 -137Q199 -186 165 -222T80 -272Q92 -311 148 -328T260 -346Q336 -346 401 -319T509 -231T551
-70Q551 -13 521 39T447 133T329 237L301 260Q227 323 183 369T113 467T88 578Q88 709 179 813T418 988Q330 1091 330 1198Q330 1309 393 1401T559 1548T780 1602Q845 1602 912 1583T1024 1521T1069 1417Q1069 1380 1051 1347T1002 1293T930 1272Q890 1272 866
1295T842 1358Q842 1404 876 1439ZM477 925T440 963Q221 846 221 692Q221 640 249 592T321 501T436 397Q553 301 600 253Q819 371 819 524Q819 577 791 626T719 717T604 819Q477 925 440 963Z" />
<glyph unicode="&#xa8;" glyph-name="dieresis" horiz-adv-x="799" d="M61 1420T80 1451T131 1502T199 1522Q242 1522 271 1492T301 1419Q301 1386 282 1355T232 1304T164 1284Q118 1284 90 1313T61 1389Q61 1420 80 1451ZM496 1420T515 1451T565 1502T633 1522Q676
1522 705 1492T735 1419Q735 1386 716 1355T666 1304T598 1284Q553 1284 525 1314T496 1389Q496 1420 515 1451Z" />
<glyph unicode="&#xa9;" glyph-name="copyright" horiz-adv-x="1892" d="M180 1008T289 1195T586 1492T995 1602Q1217 1602 1404 1493T1700 1196T1810 786Q1810 565 1701 378T1404 81T995 -29Q774 -29 587 80T290 377T180 786Q180 1008 289 1195ZM262 583T360
411T627 138T995 37Q1195 37 1363 138T1630 411T1729 786Q1729 990 1631 1162T1364 1435T995 1536Q796 1536 628 1435T361 1162T262 786Q262 583 360 411ZM1132 319T1211 370T1341 530L1380 516Q1357 443 1310 379T1185 273T1006 231Q877 231 774 297T611 486T551
774Q551 940 611 1069T780 1271T1030 1343Q1116 1343 1192 1316T1315 1237T1362 1120Q1362 1067 1332 1037T1253 1006Q1206 1006 1174 1036T1141 1116Q1141 1158 1164 1185T1227 1221Q1207 1258 1154 1282T1042 1307Q967 1307 901 1260T793 1099T750 799Q750 630
789 523T894 368T1042 319Q1132 319 1211 370Z" />
<glyph unicode="&#xaa;" glyph-name="ordfeminine" horiz-adv-x="930" d="M932 979L895 879Q866 799 822 768T711 737Q666 737 644 756T622 821Q622 864 641 930L666 1016Q528 737 358 737Q284 737 242 782T199 901Q199 1019 277 1156T474 1386T700 1479Q729 1479
751 1461T777 1405L793 1460Q876 1460 936 1479L743 881Q733 851 733 830Q733 797 766 797Q800 797 824 826T874 928L893 979H932ZM443 788T505 848T627 1008T723 1217L762 1352Q759 1430 711 1430Q640 1430 554 1350T408 1144T348 885Q348 839 361 814T399 788Q443
788 505 848Z" />
<glyph unicode="&#xab;" glyph-name="guillemotleft" horiz-adv-x="1059" d="M609 991T531 875T365 657T203 500Q260 453 319 359T425 159T492 -29H455Q274 324 49 498V502Q206 612 343 755T614 1081H651Q609 991 531 875ZM950 993T873 877T705 658T541 500Q597
453 656 359T763 159T829 -29H793Q612 324 387 498V502Q544 612 681 755T952 1081H989Q950 993 873 877Z" />
<glyph unicode="&#xac;" glyph-name="logicalnot" horiz-adv-x="1354" d="M1237 758L1116 338H1042L1145 696H193L211 758H1237Z" />
<glyph unicode="&#xad;" glyph-name="softhyphen" horiz-adv-x="1032" />
<glyph unicode="&#xae;" glyph-name="registered" horiz-adv-x="1432" d="M984 1602T1115 1525T1324 1317T1401 1030Q1401 875 1324 744T1116 536T829 459Q674 459 543 536T335 744T258 1030Q258 1185 335 1316T543 1525T829 1602Q984 1602 1115 1525ZM962 524T1073
592T1250 777T1315 1030Q1315 1167 1250 1283T1074 1467T829 1536Q696 1536 585 1468T409 1283T344 1030Q344 894 409 778T585 593T829 524Q962 524 1073 592ZM1125 745T1135 762L1155 748Q1143 724 1122 715T1065 705Q1013 705 989 724T952 788L918 940Q909 980
895 998T846 1024T737 1034V827Q737 795 740 780T753 760T784 752V721Q757 721 741 722L680 723L612 722Q597 721 573 721V752Q594 754 603 759T617 780T621 827V1276Q621 1309 617 1324T604 1346T573 1354V1384Q598 1382 672 1382L798 1383Q820 1384 848 1384Q964
1384 1024 1342T1085 1223Q1085 1084 887 1049Q968 1040 1003 1012T1049 930L1073 813Q1075 805 1079 785T1090 755T1110 745Q1125 745 1135 762ZM782 1354T766 1349T743 1329T737 1286V1067H786Q887 1067 922 1102T958 1202Q958 1281 926 1317T815 1354Q782 1354
766 1349Z" />
<glyph unicode="&#xaf;" glyph-name="overscore" horiz-adv-x="741" d="M236 1407L248 1458H887L874 1407H236Z" />
<glyph unicode="&#xb0;" glyph-name="degree" horiz-adv-x="686" d="M602 1679T659 1649T750 1563T784 1434Q784 1359 750 1303T659 1217T535 1186Q468 1186 412 1216T321 1303T287 1434Q287 1507 321 1563T411 1649T535 1679Q602 1679 659 1649ZM584 1221T629
1244T704 1316T733 1432Q733 1498 704 1546T629 1620T535 1645Q487 1645 442 1620T367 1547T338 1432Q338 1364 367 1316T441 1245T535 1221Q584 1221 629 1244Z" />
<glyph unicode="&#xb1;" glyph-name="plusminus" horiz-adv-x="1300" d="M1026 62L1007 0H-19L0 62H1026ZM786 1241H860L723 758H1198L1180 696H705L567 215H494L631 696H154L172 758H649L786 1241Z" />
<glyph unicode="&#xb2;" glyph-name="twosuperior" horiz-adv-x="698" d="M677 1544T720 1516T764 1427Q764 1364 719 1304T612 1194T455 1079Q381 1027 352 1004Q391 1004 482 985Q576 967 610 967Q653 967 680 986T707 1038Q707 1062 698 1077L733 1092Q754
1059 754 1026Q754 987 732 956T669 906T569 887Q524 887 454 904Q362 925 301 925Q263 925 236 918T166 895L174 932L247 979Q358 1049 438 1107T581 1239T643 1386Q643 1475 532 1475Q407 1475 313 1368L285 1391Q338 1456 420 1500T602 1544Q677 1544 720 1516Z"
/>
<glyph unicode="&#xb3;" glyph-name="threesuperior" horiz-adv-x="668" d="M686 1544T731 1516T776 1434Q776 1379 731 1331T620 1249T492 1200Q588 1197 651 1161T715 1049Q715 953 617 879T373 762T88 709V745Q212 755 328 796T518 906T592 1065Q592 1168 479
1171Q442 1151 414 1151Q377 1151 377 1178Q377 1215 467 1212Q555 1244 606 1293T657 1405Q657 1443 632 1462T561 1481Q439 1481 324 1366L295 1391Q346 1451 431 1497T612 1544Q686 1544 731 1516Z" />
<glyph unicode="&#xb4;" glyph-name="acute" horiz-adv-x="457" d="M345 1345T448 1486Q530 1597 567 1634Q607 1680 651 1680Q676 1680 696 1665Q712 1649 712 1625Q712 1584 666 1538Q627 1496 528 1425Q386 1321 281 1227L260 1245Q345 1345 448 1486Z" />
<glyph unicode="&#xb6;" glyph-name="paragraph" horiz-adv-x="1311" d="M386 -27T230 104T74 469Q74 737 202 962T552 1320T1038 1452Q1045 1452 1204 1449Q1276 1446 1346 1446Q1427 1446 1468 1450L1458 1411Q1393 1408 1355 1393T1297 1349T1264 1272L979
190Q908 -77 784 -231T477 -385Q383 -385 326 -356T268 -272Q268 -243 285 -214T330 -166T389 -147Q421 -147 439 -165T457 -211Q457 -277 385 -342Q415 -352 457 -352Q527 -352 576 -312T660 -201T725 -27Q386 -27 230 104ZM808 504T784 345T759 120Q759 98 762
98Q814 291 954 814T1096 1343Q1089 1343 1051 1257T963 1034T872 750Q728 750 596 744T378 730T291 719Q290 715 370 708T580 696T856 690Q808 504 784 345Z" />
<glyph unicode="&#xb7;" glyph-name="middot" horiz-adv-x="528" d="M112 528T134 564T191 623T265 645Q311 645 340 615T369 538Q369 498 348 463T290 405T215 383Q170 383 141 413T112 488Q112 528 134 564Z" />
<glyph unicode="&#xb8;" glyph-name="cedilla" horiz-adv-x="467" d="M281 -133T326 -133Q367 -133 390 -155T414 -215Q414 -271 375 -309T278 -366T162 -385Q109 -385 65 -372T-2 -340L12 -309Q42 -322 67 -329T135 -336Q162 -336 196 -326T257 -293T283 -231Q283
-182 225 -182Q192 -182 162 -197L256 0H311L242 -147Q281 -133 326 -133Z" />
<glyph unicode="&#xb9;" glyph-name="onesuperior" horiz-adv-x="518" d="M319 895L485 1409Q422 1372 366 1346T227 1298L238 1337Q329 1365 395 1398T502 1461T608 1542H647L440 895H319Z" />
<glyph unicode="&#xba;" glyph-name="ordmasculine" horiz-adv-x="842" d="M219 1060T271 1184T422 1393T653 1479Q764 1479 826 1425T889 1264Q889 1156 837 1033T686 824T455 739Q344 739 282 793T219 952Q219 1060 271 1184ZM571 1442T507 1358T405 1146T367
895Q367 834 391 805T465 776Q537 776 601 859T703 1071T741 1323Q741 1384 717 1413T643 1442Q571 1442 507 1358Z" />
<glyph unicode="&#xbb;" glyph-name="guillemotright" horiz-adv-x="1057" d="M408 727T633 553V551Q476 439 339 297T68 -29H31Q73 61 151 177T317 396T479 553Q422 600 363 693T257 893T190 1081H227Q408 727 633 553ZM746 727T971 553V551Q671 338 406 -29H369Q411
61 489 177T655 396T817 553Q760 600 701 693T595 893T528 1081H565Q746 727 971 553Z" />
<glyph unicode="&#xbc;" glyph-name="onequarter" horiz-adv-x="1241" d="M-203 -113L-234 -86L1472 1688L1503 1661L-203 -113ZM319 895L485 1409Q422 1372 366 1346T227 1298L238 1337Q329 1365 395 1398T502 1461T608 1542H647L440 895H319ZM921 149L898 66H782L712
-174H605L675 66H288L298 102L913 649H952L806 149H921ZM799 496L407 149H699L799 496Z" />
<glyph unicode="&#xbd;" glyph-name="onehalf" horiz-adv-x="1241" d="M-203 -113L-234 -86L1472 1688L1503 1661L-203 -113ZM319 895L485 1409Q422 1372 366 1346T227 1298L238 1337Q329 1365 395 1398T502 1461T608 1542H647L440 895H319ZM998 649T1041 621T1085
532Q1085 469 1040 409T933 299T776 184Q702 132 673 109Q712 109 803 90Q897 72 931 72Q974 72 1001 91T1028 143Q1028 167 1019 182L1054 197Q1075 164 1075 131Q1075 92 1053 61T990 11T890 -8Q845 -8 775 9Q683 30 622 30Q584 30 557 23T487 0L495 37L568 84Q679
154 759 212T902 344T964 491Q964 580 853 580Q728 580 634 473L606 496Q659 561 741 605T923 649Q998 649 1041 621Z" />
<glyph unicode="&#xbe;" glyph-name="threequarters" horiz-adv-x="1446" d="M2 -113L-29 -86L1677 1688L1708 1661L2 -113ZM686 1544T731 1516T776 1434Q776 1379 731 1331T620 1249T492 1200Q588 1197 651 1161T715 1049Q715 953 617 879T373 762T88 709V745Q212
755 328 796T518 906T592 1065Q592 1168 479 1171Q442 1151 414 1151Q377 1151 377 1178Q377 1215 467 1212Q555 1244 606 1293T657 1405Q657 1443 632 1462T561 1481Q439 1481 324 1366L295 1391Q346 1451 431 1497T612 1544Q686 1544 731 1516ZM1126 149L1103
66H987L917 -174H810L880 66H493L503 102L1118 649H1157L1011 149H1126ZM1004 496L612 149H904L1004 496Z" />
<glyph unicode="&#xbf;" glyph-name="questiondown" horiz-adv-x="913" d="M409 964T431 1000T488 1059T562 1081Q608 1081 637 1051T666 974Q666 934 645 899T587 841T512 819Q467 819 438 849T409 924Q409 964 431 1000ZM331 -350T408 -324T504 -250Q485 -245
469 -222T453 -168Q453 -124 484 -96T561 -68Q601 -68 622 -91T643 -154Q643 -220 582 -273T421 -355T213 -385Q78 -385 -4 -333T-86 -184Q-86 -122 -54 -72T46 34T252 180L322 229Q408 290 447 321T509 389T532 473Q532 510 515 542T466 593T393 612Q328 612 266
588T178 522Q198 520 215 499T231 451Q231 418 205 393T139 367Q70 367 70 438Q70 499 126 547T267 621T434 647Q541 647 605 596T670 451Q670 383 635 328T543 225T378 102Q346 80 330 68Q231 2 179 -40T100 -122T74 -211Q74 -271 121 -310T252 -350Q331 -350
408 -324Z" />
<glyph unicode="&#xc0;" glyph-name="Agrave" horiz-adv-x="1288" d="M1037 105T1066 74T1133 41L1124 0Q1042 6 901 6Q736 6 655 0L664 41Q734 44 772 58T826 108T840 213L821 549H318L164 332Q68 196 68 128Q68 44 219 41L209 0Q95 6 -25 6Q-114 6 -178 0L-168
41Q-74 61 37 219L920 1460H950L1032 172Q1037 105 1066 74ZM785 1209L347 590H819L785 1209ZM902 1649T793 1725Q699 1792 670 1821Q654 1837 643 1858T631 1901Q631 1924 645 1942Q662 1962 691 1962Q714 1962 738 1950T780 1919Q806 1891 868 1800Q940 1689
1014 1595L993 1575Q902 1649 793 1725Z" />
<glyph unicode="&#xc1;" glyph-name="Aacute" horiz-adv-x="1288" d="M1037 105T1066 74T1133 41L1124 0Q1042 6 901 6Q736 6 655 0L664 41Q734 44 772 58T826 108T840 213L821 549H318L164 332Q68 196 68 128Q68 44 219 41L209 0Q95 6 -25 6Q-114 6 -178 0L-168
41Q-74 61 37 219L920 1460H950L1032 172Q1037 105 1066 74ZM785 1209L347 590H819L785 1209ZM926 1684T1061 1789Q1162 1867 1208 1894Q1247 1918 1286 1918Q1329 1918 1344 1884Q1348 1875 1348 1864Q1348 1839 1327 1815T1276 1774Q1226 1745 1113 1704Q943
1641 821 1581L807 1604Q926 1684 1061 1789Z" />
<glyph unicode="&#xc2;" glyph-name="Acircumflex" horiz-adv-x="1288" d="M1037 105T1066 74T1133 41L1124 0Q1042 6 901 6Q736 6 655 0L664 41Q734 44 772 58T826 108T840 213L821 549H318L164 332Q68 196 68 128Q68 44 219 41L209 0Q95 6 -25 6Q-114 6 -178
0L-168 41Q-74 61 37 219L920 1460H950L1032 172Q1037 105 1066 74ZM785 1209L347 590H819L785 1209ZM737 1625T541 1581L531 1610Q678 1655 805 1726T1012 1876H1049Q1106 1777 1171 1713T1334 1610L1325 1581Q1214 1602 1146 1629T994 1703L963 1720Q737 1625
541 1581Z" />
<glyph unicode="&#xc3;" glyph-name="Atilde" horiz-adv-x="1288" d="M1037 105T1066 74T1133 41L1124 0Q1042 6 901 6Q736 6 655 0L664 41Q734 44 772 58T826 108T840 213L821 549H318L164 332Q68 196 68 128Q68 44 219 41L209 0Q95 6 -25 6Q-114 6 -178 0L-168
41Q-74 61 37 219L920 1460H950L1032 172Q1037 105 1066 74ZM785 1209L347 590H819L785 1209ZM903 1833T939 1822T1000 1794T1061 1750Q1102 1716 1134 1700T1211 1683Q1289 1683 1354 1802L1391 1792Q1346 1685 1275 1633T1125 1581Q1079 1581 1043 1592T982 1620T921
1664Q880 1698 848 1714T771 1731Q692 1731 627 1612L590 1622Q635 1730 706 1781T857 1833Q903 1833 939 1822Z" />
<glyph unicode="&#xc4;" glyph-name="Adieresis" horiz-adv-x="1288" d="M1037 105T1066 74T1133 41L1124 0Q1042 6 901 6Q736 6 655 0L664 41Q734 44 772 58T826 108T840 213L821 549H318L164 332Q68 196 68 128Q68 44 219 41L209 0Q95 6 -25 6Q-114 6 -178 0L-168
41Q-74 61 37 219L920 1460H950L1032 172Q1037 105 1066 74ZM785 1209L347 590H819L785 1209ZM606 1717T625 1748T676 1799T744 1819Q787 1819 816 1789T846 1716Q846 1683 827 1652T777 1601T709 1581Q663 1581 635 1610T606 1686Q606 1717 625 1748ZM1041 1717T1060
1748T1110 1799T1178 1819Q1221 1819 1250 1789T1280 1716Q1280 1683 1261 1652T1211 1601T1143 1581Q1098 1581 1070 1611T1041 1686Q1041 1717 1060 1748Z" />
<glyph unicode="&#xc5;" glyph-name="Aring" horiz-adv-x="1288" d="M1037 105T1066 74T1133 41L1124 0Q1042 6 901 6Q736 6 655 0L664 41Q734 44 772 58T826 108T840 213L821 549H318L164 332Q68 196 68 128Q68 44 219 41L209 0Q95 6 -25 6Q-114 6 -178 0L-168
41Q-74 61 37 219L920 1460H950L1032 172Q1037 105 1066 74ZM785 1209L347 590H819L785 1209ZM1045 1894T1085 1874T1148 1817T1172 1731Q1172 1675 1140 1627T1055 1549T943 1520Q869 1520 821 1564T773 1683Q773 1741 803 1789T884 1866T996 1894Q1045 1894 1085
1874ZM994 1563T1033 1585T1095 1646T1119 1733Q1119 1770 1100 1796T1051 1837T988 1851Q947 1851 910 1828T849 1766T826 1686Q826 1628 863 1596T951 1563Q994 1563 1033 1585Z" />
<glyph unicode="&#xc6;" glyph-name="AE" horiz-adv-x="1837" d="M1784 1444T1913 1450Q1881 1361 1835 1208Q1816 1140 1808 1081H1763Q1778 1167 1778 1226Q1778 1322 1736 1362T1597 1403H1407Q1336 1403 1301 1391T1244 1345T1202 1233L1074 750H1294Q1352
750 1390 780T1452 856T1505 979H1550Q1524 897 1491 770Q1484 739 1481 729Q1459 654 1427 479H1382Q1382 490 1387 542Q1393 586 1393 606Q1393 651 1370 678T1286 709H1063L932 217Q914 147 914 117Q914 88 927 73T969 53T1049 47H1260Q1359 47 1422 81T1531
192T1626 410H1671Q1652 360 1628 262Q1593 135 1575 0Q1436 6 1112 6Q723 6 522 0L530 41Q604 44 641 57T699 105T741 217L872 709H539L82 193Q23 126 23 96Q23 51 150 41V0Q95 6 -27 6Q-114 6 -164 0V41Q-99 44 12 172L1029 1322Q1031 1356 1018 1374T976 1399T891
1409L901 1450Q1049 1446 1138 1446L1260 1583H1313L1191 1445Q1278 1444 1354 1444T1489 1444Q1784 1444 1913 1450ZM1012 1233L1016 1247L575 750H883L1012 1233Z" />
<glyph unicode="&#xc7;" glyph-name="Ccedilla" horiz-adv-x="1372" d="M1390 1273T1327 979H1282Q1294 1058 1294 1119Q1294 1215 1262 1282Q1224 1358 1152 1400T993 1442Q823 1442 665 1282T408 880T309 410Q309 212 386 110T602 8Q692 8 792 50T967 168Q1019
221 1058 292T1151 492H1196Q1103 152 1075 0H1030Q1036 43 1036 70Q1036 122 1012 122Q996 122 969 104Q898 58 851 33T742 -9T601 -29L545 -147Q596 -133 649 -133Q700 -133 729 -155T758 -215Q758 -271 710 -309T589 -366T445 -385Q378 -385 324 -372T240 -340L254
-309Q325 -336 418 -336Q456 -336 505 -326T590 -293T627 -231Q627 -182 549 -182Q507 -182 465 -197L546 -28Q334 -18 219 104T104 453Q104 689 222 928T545 1323T997 1479Q1080 1479 1136 1461T1226 1417T1303 1346Q1321 1328 1334 1328Q1370 1328 1415 1450H1458Q1390
1273 1327 979Z" />
<glyph unicode="&#xc8;" glyph-name="Egrave" horiz-adv-x="1249" d="M1194 1444T1315 1450Q1261 1302 1237 1208Q1214 1128 1208 1081H1161Q1179 1191 1179 1246Q1179 1305 1160 1338T1097 1387T973 1403H823Q750 1403 714 1391T655 1345T612 1233L483 750H618Q690
750 737 784T810 863T864 978Q879 1017 881 1020H928Q884 885 853 765L844 729Q817 633 778 438H731L735 464Q747 542 747 577Q747 640 716 674T606 709H472L340 217Q322 153 322 118Q322 88 336 73T379 53T461 47H610Q738 47 813 81T939 190T1042 410H1090Q1070
360 1044 262Q1014 152 989 0Q850 6 520 6Q127 6 -72 0L-61 41Q13 44 49 57T107 105T150 217L422 1233Q440 1298 440 1333Q440 1363 427 1378T385 1400T303 1409L313 1450Q514 1444 907 1444Q1194 1444 1315 1450ZM830 1649T721 1725Q627 1792 598 1821Q582 1837
571 1858T559 1901Q559 1924 573 1942Q590 1962 619 1962Q642 1962 666 1950T708 1919Q734 1891 796 1800Q868 1689 942 1595L921 1575Q830 1649 721 1725Z" />
<glyph unicode="&#xc9;" glyph-name="Eacute" horiz-adv-x="1249" d="M1194 1444T1315 1450Q1261 1302 1237 1208Q1214 1128 1208 1081H1161Q1179 1191 1179 1246Q1179 1305 1160 1338T1097 1387T973 1403H823Q750 1403 714 1391T655 1345T612 1233L483 750H618Q690
750 737 784T810 863T864 978Q879 1017 881 1020H928Q884 885 853 765L844 729Q817 633 778 438H731L735 464Q747 542 747 577Q747 640 716 674T606 709H472L340 217Q322 153 322 118Q322 88 336 73T379 53T461 47H610Q738 47 813 81T939 190T1042 410H1090Q1070
360 1044 262Q1014 152 989 0Q850 6 520 6Q127 6 -72 0L-61 41Q13 44 49 57T107 105T150 217L422 1233Q440 1298 440 1333Q440 1363 427 1378T385 1400T303 1409L313 1450Q514 1444 907 1444Q1194 1444 1315 1450ZM854 1684T989 1789Q1090 1867 1136 1894Q1175
1918 1214 1918Q1257 1918 1272 1884Q1276 1875 1276 1864Q1276 1839 1255 1815T1204 1774Q1154 1745 1041 1704Q871 1641 749 1581L735 1604Q854 1684 989 1789Z" />
<glyph unicode="&#xca;" glyph-name="Ecircumflex" horiz-adv-x="1249" d="M1194 1444T1315 1450Q1261 1302 1237 1208Q1214 1128 1208 1081H1161Q1179 1191 1179 1246Q1179 1305 1160 1338T1097 1387T973 1403H823Q750 1403 714 1391T655 1345T612 1233L483 750H618Q690
750 737 784T810 863T864 978Q879 1017 881 1020H928Q884 885 853 765L844 729Q817 633 778 438H731L735 464Q747 542 747 577Q747 640 716 674T606 709H472L340 217Q322 153 322 118Q322 88 336 73T379 53T461 47H610Q738 47 813 81T939 190T1042 410H1090Q1070
360 1044 262Q1014 152 989 0Q850 6 520 6Q127 6 -72 0L-61 41Q13 44 49 57T107 105T150 217L422 1233Q440 1298 440 1333Q440 1363 427 1378T385 1400T303 1409L313 1450Q514 1444 907 1444Q1194 1444 1315 1450ZM665 1625T469 1581L459 1610Q606 1655 733 1726T940
1876H977Q1034 1777 1099 1713T1262 1610L1253 1581Q1142 1602 1074 1629T922 1703L891 1720Q665 1625 469 1581Z" />
<glyph unicode="&#xcb;" glyph-name="Edieresis" horiz-adv-x="1249" d="M1194 1444T1315 1450Q1261 1302 1237 1208Q1214 1128 1208 1081H1161Q1179 1191 1179 1246Q1179 1305 1160 1338T1097 1387T973 1403H823Q750 1403 714 1391T655 1345T612 1233L483 750H618Q690
750 737 784T810 863T864 978Q879 1017 881 1020H928Q884 885 853 765L844 729Q817 633 778 438H731L735 464Q747 542 747 577Q747 640 716 674T606 709H472L340 217Q322 153 322 118Q322 88 336 73T379 53T461 47H610Q738 47 813 81T939 190T1042 410H1090Q1070
360 1044 262Q1014 152 989 0Q850 6 520 6Q127 6 -72 0L-61 41Q13 44 49 57T107 105T150 217L422 1233Q440 1298 440 1333Q440 1363 427 1378T385 1400T303 1409L313 1450Q514 1444 907 1444Q1194 1444 1315 1450ZM534 1717T553 1748T604 1799T672 1819Q715 1819
744 1789T774 1716Q774 1683 755 1652T705 1601T637 1581Q591 1581 563 1610T534 1686Q534 1717 553 1748ZM969 1717T988 1748T1038 1799T1106 1819Q1149 1819 1178 1789T1208 1716Q1208 1683 1189 1652T1139 1601T1071 1581Q1026 1581 998 1611T969 1686Q969 1717
988 1748Z" />
<glyph unicode="&#xcc;" glyph-name="Igrave" horiz-adv-x="698" d="M323 151T323 118Q323 88 336 72T379 50T461 41L453 0Q357 6 193 6Q22 6 -68 0L-57 41Q15 44 51 57T108 105T150 217L420 1233Q437 1298 437 1331Q437 1362 423 1378T381 1400T299 1409L309
1450Q393 1444 569 1444Q734 1444 831 1450L821 1409Q746 1406 710 1393T652 1345T610 1233L340 217Q323 151 323 118ZM580 1649T471 1725Q377 1792 348 1821Q332 1837 321 1858T309 1901Q309 1924 323 1942Q340 1962 369 1962Q392 1962 416 1950T458 1919Q484
1891 546 1800Q618 1689 692 1595L671 1575Q580 1649 471 1725Z" />
<glyph unicode="&#xcd;" glyph-name="Iacute" horiz-adv-x="698" d="M323 151T323 118Q323 88 336 72T379 50T461 41L453 0Q357 6 193 6Q22 6 -68 0L-57 41Q15 44 51 57T108 105T150 217L420 1233Q437 1298 437 1331Q437 1362 423 1378T381 1400T299 1409L309
1450Q393 1444 569 1444Q734 1444 831 1450L821 1409Q746 1406 710 1393T652 1345T610 1233L340 217Q323 151 323 118ZM604 1684T739 1789Q840 1867 886 1894Q925 1918 964 1918Q1007 1918 1022 1884Q1026 1875 1026 1864Q1026 1839 1005 1815T954 1774Q904 1745
791 1704Q621 1641 499 1581L485 1604Q604 1684 739 1789Z" />
<glyph unicode="&#xce;" glyph-name="Icircumflex" horiz-adv-x="698" d="M323 151T323 118Q323 88 336 72T379 50T461 41L453 0Q357 6 193 6Q22 6 -68 0L-57 41Q15 44 51 57T108 105T150 217L420 1233Q437 1298 437 1331Q437 1362 423 1378T381 1400T299 1409L309
1450Q393 1444 569 1444Q734 1444 831 1450L821 1409Q746 1406 710 1393T652 1345T610 1233L340 217Q323 151 323 118ZM415 1625T219 1581L209 1610Q356 1655 483 1726T690 1876H727Q784 1777 849 1713T1012 1610L1003 1581Q892 1602 824 1629T672 1703L641 1720Q415
1625 219 1581Z" />
<glyph unicode="&#xcf;" glyph-name="Idieresis" horiz-adv-x="698" d="M323 151T323 118Q323 88 336 72T379 50T461 41L453 0Q357 6 193 6Q22 6 -68 0L-57 41Q15 44 51 57T108 105T150 217L420 1233Q437 1298 437 1331Q437 1362 423 1378T381 1400T299 1409L309
1450Q393 1444 569 1444Q734 1444 831 1450L821 1409Q746 1406 710 1393T652 1345T610 1233L340 217Q323 151 323 118ZM284 1717T303 1748T354 1799T422 1819Q465 1819 494 1789T524 1716Q524 1683 505 1652T455 1601T387 1581Q341 1581 313 1610T284 1686Q284
1717 303 1748ZM719 1717T738 1748T788 1799T856 1819Q899 1819 928 1789T958 1716Q958 1683 939 1652T889 1601T821 1581Q776 1581 748 1611T719 1686Q719 1717 738 1748Z" />
<glyph unicode="&#xd0;" glyph-name="Eth" horiz-adv-x="1485" d="M1152 1450T1297 1335T1442 997Q1442 741 1316 511T967 141T471 0Q424 0 352 3Q181 6 184 6Q19 6 -61 0L-55 41Q15 44 50 57T108 105T150 217L279 707H135L147 759H293L418 1233Q437 1307 437
1334Q437 1374 407 1390T299 1409L305 1450Q415 1443 505 1443L555 1444L639 1446Q799 1450 864 1450Q1152 1450 1297 1335ZM700 37T880 175T1153 544T1245 1049Q1245 1234 1141 1323T807 1413Q743 1413 707 1399T649 1347T608 1237L483 759H868L856 707H469L340
213Q321 142 321 112Q321 73 349 55T446 37Q700 37 880 175Z" />
<glyph unicode="&#xd1;" glyph-name="Ntilde" horiz-adv-x="1577" d="M1729 1544T1757 1515T1786 1440Q1786 1404 1772 1370T1731 1314T1665 1292Q1624 1292 1606 1316T1587 1372Q1587 1405 1606 1439T1653 1501H1647Q1547 1498 1479 1397Q1388 1261 1290 920T1067
-10H1022L555 1309Q456 798 366 442T195 -23Q148 -83 99 -117T-25 -152Q-147 -152 -147 -45Q-147 -10 -133 23T-92 78T-27 100Q15 100 33 76T51 20Q51 -13 33 -47T-14 -109H-8Q98 -105 162 -2Q241 121 324 441T506 1278Q510 1302 510 1324Q510 1358 496 1375T448
1400T352 1409L362 1450Q428 1444 545 1444Q640 1444 711 1450L1098 318Q1186 711 1270 999T1442 1413Q1532 1544 1663 1544Q1729 1544 1757 1515ZM1032 1833T1068 1822T1129 1794T1190 1750Q1231 1716 1263 1700T1340 1683Q1418 1683 1483 1802L1520 1792Q1475
1685 1404 1633T1254 1581Q1208 1581 1172 1592T1111 1620T1050 1664Q1009 1698 977 1714T900 1731Q821 1731 756 1612L719 1622Q764 1730 835 1781T986 1833Q1032 1833 1068 1822Z" />
<glyph unicode="&#xd2;" glyph-name="Ograve" horiz-adv-x="1493" d="M111 695T220 932T524 1324T965 1479Q1116 1479 1224 1421T1390 1252T1448 985Q1448 754 1338 518T1032 126T592 -29Q441 -29 333 29T168 197T111 463Q111 695 220 932ZM792 1442T649 1295T417
913T328 436Q328 304 363 208T463 60T610 8Q765 8 908 155T1140 537T1229 1014Q1229 1146 1193 1242T1093 1390T946 1442Q792 1442 649 1295ZM980 1649T871 1725Q777 1792 748 1821Q732 1837 721 1858T709 1901Q709 1924 723 1942Q740 1962 769 1962Q792 1962 816
1950T858 1919Q884 1891 946 1800Q1018 1689 1092 1595L1071 1575Q980 1649 871 1725Z" />
<glyph unicode="&#xd3;" glyph-name="Oacute" horiz-adv-x="1493" d="M111 695T220 932T524 1324T965 1479Q1116 1479 1224 1421T1390 1252T1448 985Q1448 754 1338 518T1032 126T592 -29Q441 -29 333 29T168 197T111 463Q111 695 220 932ZM792 1442T649 1295T417
913T328 436Q328 304 363 208T463 60T610 8Q765 8 908 155T1140 537T1229 1014Q1229 1146 1193 1242T1093 1390T946 1442Q792 1442 649 1295ZM1004 1684T1139 1789Q1240 1867 1286 1894Q1325 1918 1364 1918Q1407 1918 1422 1884Q1426 1875 1426 1864Q1426 1839
1405 1815T1354 1774Q1304 1745 1191 1704Q1021 1641 899 1581L885 1604Q1004 1684 1139 1789Z" />
<glyph unicode="&#xd4;" glyph-name="Ocircumflex" horiz-adv-x="1493" d="M111 695T220 932T524 1324T965 1479Q1116 1479 1224 1421T1390 1252T1448 985Q1448 754 1338 518T1032 126T592 -29Q441 -29 333 29T168 197T111 463Q111 695 220 932ZM792 1442T649
1295T417 913T328 436Q328 304 363 208T463 60T610 8Q765 8 908 155T1140 537T1229 1014Q1229 1146 1193 1242T1093 1390T946 1442Q792 1442 649 1295ZM815 1625T619 1581L609 1610Q756 1655 883 1726T1090 1876H1127Q1184 1777 1249 1713T1412 1610L1403 1581Q1292
1602 1224 1629T1072 1703L1041 1720Q815 1625 619 1581Z" />
<glyph unicode="&#xd5;" glyph-name="Otilde" horiz-adv-x="1493" d="M111 695T220 932T524 1324T965 1479Q1116 1479 1224 1421T1390 1252T1448 985Q1448 754 1338 518T1032 126T592 -29Q441 -29 333 29T168 197T111 463Q111 695 220 932ZM792 1442T649 1295T417
913T328 436Q328 304 363 208T463 60T610 8Q765 8 908 155T1140 537T1229 1014Q1229 1146 1193 1242T1093 1390T946 1442Q792 1442 649 1295ZM981 1833T1017 1822T1078 1794T1139 1750Q1180 1716 1212 1700T1289 1683Q1367 1683 1432 1802L1469 1792Q1424 1685
1353 1633T1203 1581Q1157 1581 1121 1592T1060 1620T999 1664Q958 1698 926 1714T849 1731Q770 1731 705 1612L668 1622Q713 1730 784 1781T935 1833Q981 1833 1017 1822Z" />
<glyph unicode="&#xd6;" glyph-name="Odieresis" horiz-adv-x="1493" d="M111 695T220 932T524 1324T965 1479Q1116 1479 1224 1421T1390 1252T1448 985Q1448 754 1338 518T1032 126T592 -29Q441 -29 333 29T168 197T111 463Q111 695 220 932ZM792 1442T649 1295T417
913T328 436Q328 304 363 208T463 60T610 8Q765 8 908 155T1140 537T1229 1014Q1229 1146 1193 1242T1093 1390T946 1442Q792 1442 649 1295ZM684 1717T703 1748T754 1799T822 1819Q865 1819 894 1789T924 1716Q924 1683 905 1652T855 1601T787 1581Q741 1581 713
1610T684 1686Q684 1717 703 1748ZM1119 1717T1138 1748T1188 1799T1256 1819Q1299 1819 1328 1789T1358 1716Q1358 1683 1339 1652T1289 1601T1221 1581Q1176 1581 1148 1611T1119 1686Q1119 1717 1138 1748Z" />
<glyph unicode="&#xd7;" glyph-name="multiply" horiz-adv-x="1051" d="M256 1085L309 1122L561 764L1026 1126L1059 1081L594 721L850 367L799 330L545 684L86 328L55 373L512 727L256 1085Z" />
<glyph unicode="&#xd8;" glyph-name="Oslash" horiz-adv-x="1493" d="M1448 1174T1448 985Q1448 754 1338 518T1032 126T592 -29Q359 -29 233 105L-6 -150L-41 -121L204 139Q111 264 111 463Q111 695 220 932T524 1324T965 1479Q1212 1479 1339 1330L1581 1583L1612
1556L1365 1295Q1448 1174 1448 985ZM792 1442T649 1295T417 913T328 436Q328 349 345 273L1206 1203Q1175 1317 1107 1379T946 1442Q792 1442 649 1295ZM765 8T908 155T1140 537T1229 1014Q1229 1089 1217 1152L359 222Q392 120 457 64T610 8Q765 8 908 155Z"
/>
<glyph unicode="&#xd9;" glyph-name="Ugrave" horiz-adv-x="1397" d="M1306 1268T1306 1303Q1306 1359 1271 1382T1155 1409L1165 1450Q1235 1444 1372 1444Q1495 1444 1565 1450L1554 1409Q1482 1406 1443 1388T1380 1330T1337 1212L1178 596Q1103 311 977 162Q902
74 792 23T557 -29Q338 -29 242 82Q170 162 170 290Q170 396 221 590L391 1233Q408 1298 408 1331Q408 1362 395 1378T352 1400T270 1409L283 1450Q365 1444 547 1444Q704 1444 803 1450L791 1409Q716 1406 679 1393T621 1345T580 1233L399 555Q354 378 354 278Q354
165 409 104T596 43Q811 43 934 182T1124 573L1292 1212Q1306 1268 1306 1303ZM939 1649T830 1725Q736 1792 707 1821Q691 1837 680 1858T668 1901Q668 1924 682 1942Q699 1962 728 1962Q751 1962 775 1950T817 1919Q843 1891 905 1800Q977 1689 1051 1595L1030
1575Q939 1649 830 1725Z" />
<glyph unicode="&#xda;" glyph-name="Uacute" horiz-adv-x="1397" d="M1306 1268T1306 1303Q1306 1359 1271 1382T1155 1409L1165 1450Q1235 1444 1372 1444Q1495 1444 1565 1450L1554 1409Q1482 1406 1443 1388T1380 1330T1337 1212L1178 596Q1103 311 977 162Q902
74 792 23T557 -29Q338 -29 242 82Q170 162 170 290Q170 396 221 590L391 1233Q408 1298 408 1331Q408 1362 395 1378T352 1400T270 1409L283 1450Q365 1444 547 1444Q704 1444 803 1450L791 1409Q716 1406 679 1393T621 1345T580 1233L399 555Q354 378 354 278Q354
165 409 104T596 43Q811 43 934 182T1124 573L1292 1212Q1306 1268 1306 1303ZM963 1684T1098 1789Q1199 1867 1245 1894Q1284 1918 1323 1918Q1366 1918 1381 1884Q1385 1875 1385 1864Q1385 1839 1364 1815T1313 1774Q1263 1745 1150 1704Q980 1641 858 1581L844
1604Q963 1684 1098 1789Z" />
<glyph unicode="&#xdb;" glyph-name="Ucircumflex" horiz-adv-x="1397" d="M1306 1268T1306 1303Q1306 1359 1271 1382T1155 1409L1165 1450Q1235 1444 1372 1444Q1495 1444 1565 1450L1554 1409Q1482 1406 1443 1388T1380 1330T1337 1212L1178 596Q1103 311 977
162Q902 74 792 23T557 -29Q338 -29 242 82Q170 162 170 290Q170 396 221 590L391 1233Q408 1298 408 1331Q408 1362 395 1378T352 1400T270 1409L283 1450Q365 1444 547 1444Q704 1444 803 1450L791 1409Q716 1406 679 1393T621 1345T580 1233L399 555Q354 378
354 278Q354 165 409 104T596 43Q811 43 934 182T1124 573L1292 1212Q1306 1268 1306 1303ZM774 1625T578 1581L568 1610Q715 1655 842 1726T1049 1876H1086Q1143 1777 1208 1713T1371 1610L1362 1581Q1251 1602 1183 1629T1031 1703L1000 1720Q774 1625 578 1581Z"
/>
<glyph unicode="&#xdc;" glyph-name="Udieresis" horiz-adv-x="1397" d="M1306 1268T1306 1303Q1306 1359 1271 1382T1155 1409L1165 1450Q1235 1444 1372 1444Q1495 1444 1565 1450L1554 1409Q1482 1406 1443 1388T1380 1330T1337 1212L1178 596Q1103 311 977
162Q902 74 792 23T557 -29Q338 -29 242 82Q170 162 170 290Q170 396 221 590L391 1233Q408 1298 408 1331Q408 1362 395 1378T352 1400T270 1409L283 1450Q365 1444 547 1444Q704 1444 803 1450L791 1409Q716 1406 679 1393T621 1345T580 1233L399 555Q354 378
354 278Q354 165 409 104T596 43Q811 43 934 182T1124 573L1292 1212Q1306 1268 1306 1303ZM643 1717T662 1748T713 1799T781 1819Q824 1819 853 1789T883 1716Q883 1683 864 1652T814 1601T746 1581Q700 1581 672 1610T643 1686Q643 1717 662 1748ZM1078 1717T1097
1748T1147 1799T1215 1819Q1258 1819 1287 1789T1317 1716Q1317 1683 1298 1652T1248 1601T1180 1581Q1135 1581 1107 1611T1078 1686Q1078 1717 1097 1748Z" />
<glyph unicode="&#xdd;" glyph-name="Yacute" horiz-adv-x="1372" d="M1494 1479T1521 1448T1548 1369Q1548 1339 1535 1306T1495 1250T1427 1227Q1350 1227 1350 1308Q1350 1341 1368 1375T1415 1436H1409Q1354 1433 1296 1391Q1189 1313 1066 1140T828 692L709
217Q692 151 692 118Q692 88 705 72T747 50T829 41L819 0Q727 6 565 6Q385 6 297 0L307 41Q381 44 418 57T477 105T518 217L638 695Q565 1366 399 1366Q364 1366 341 1344T301 1270L244 1102H199L266 1300Q288 1364 312 1402T373 1459T467 1479Q575 1479 641 1391T745
1146T809 737Q957 1109 1192 1346Q1325 1479 1434 1479Q1494 1479 1521 1448ZM955 1684T1090 1789Q1191 1867 1237 1894Q1276 1918 1315 1918Q1358 1918 1373 1884Q1377 1875 1377 1864Q1377 1839 1356 1815T1305 1774Q1255 1745 1142 1704Q972 1641 850 1581L836
1604Q955 1684 1090 1789Z" />
<glyph unicode="&#xde;" glyph-name="Thorn" horiz-adv-x="1239" d="M340 217Q323 151 323 118Q323 88 336 72T379 50T461 41L453 0Q357 6 193 6Q22 6 -68 0L-57 41Q15 44 51 57T108 105T150 217L420 1233Q437 1298 437 1331Q437 1362 423 1378T381 1400T299 1409L309
1450Q393 1444 569 1444Q734 1444 831 1450L821 1409Q746 1406 710 1393T652 1345T610 1233L595 1175L659 1176Q759 1178 811 1178Q1012 1178 1115 1095T1219 868Q1219 709 1122 582T848 383T446 311L365 312L340 217ZM467 352Q753 352 882 502T1012 901Q1012 1023
950 1081T752 1139Q665 1139 583 1132L376 352H467Z" />
<glyph unicode="&#xdf;" glyph-name="germandbls" horiz-adv-x="1255" d="M11 -359T-76 -385L240 772Q309 1030 467 1152T840 1274Q988 1274 1070 1218T1153 1059Q1153 975 1099 901T952 771T741 684Q921 667 1003 582T1085 379Q1085 265 1015 172T828 25T578
-29Q481 -29 419 0T356 86Q356 114 371 141T414 187T473 205Q510 205 533 181T557 121Q557 89 535 62T477 18Q523 4 582 4Q670 4 740 55T850 193T889 379Q889 454 866 520T800 626T700 666L672 657Q617 641 594 641Q553 641 553 666Q553 683 571 695T608 707Q642
707 663 704T713 688Q792 715 847 771T929 903T956 1059Q956 1147 921 1195T799 1243Q697 1243 606 1165T461 889L123 -356Q11 -359 -76 -385Z" />
<glyph unicode="&#xe0;" glyph-name="agrave" horiz-adv-x="1294" d="M1043 104T1071 74T1135 41L1124 0Q1042 6 901 6Q736 6 655 0L666 41Q729 44 767 55T825 94T845 173Q845 191 842 213L811 467H292L152 293Q71 194 71 129Q71 51 195 41V0Q134 6 8 6Q-117 6
-170 0V41Q-80 64 53 231L877 1260H907L1034 172Q1043 104 1071 74ZM743 1027L325 508H806L743 1027ZM863 1444T754 1520Q660 1587 631 1616Q592 1655 592 1696Q592 1719 606 1737Q623 1758 652 1758Q675 1758 699 1746T741 1714Q758 1697 777 1671T809 1625T829
1595Q909 1473 975 1391L954 1370Q863 1444 754 1520Z" />
<glyph unicode="&#xe1;" glyph-name="aacute" horiz-adv-x="1294" d="M1043 104T1071 74T1135 41L1124 0Q1042 6 901 6Q736 6 655 0L666 41Q729 44 767 55T825 94T845 173Q845 191 842 213L811 467H292L152 293Q71 194 71 129Q71 51 195 41V0Q134 6 8 6Q-117 6
-170 0V41Q-80 64 53 231L877 1260H907L1034 172Q1043 104 1071 74ZM743 1027L325 508H806L743 1027ZM860 1479T998 1586Q1103 1667 1142 1690Q1182 1713 1220 1713Q1263 1713 1278 1679Q1282 1670 1282 1659Q1282 1634 1261 1610T1210 1569Q1160 1540 1047 1499Q877
1436 755 1376L741 1399Q860 1479 998 1586Z" />
<glyph unicode="&#xe2;" glyph-name="acircumflex" horiz-adv-x="1294" d="M1043 104T1071 74T1135 41L1124 0Q1042 6 901 6Q736 6 655 0L666 41Q729 44 767 55T825 94T845 173Q845 191 842 213L811 467H292L152 293Q71 194 71 129Q71 51 195 41V0Q134 6 8 6Q-117
6 -170 0V41Q-80 64 53 231L877 1260H907L1034 172Q1043 104 1071 74ZM743 1027L325 508H806L743 1027ZM828 1477T713 1438T496 1376L485 1405Q632 1450 759 1521T967 1671H1003Q1061 1572 1126 1508T1288 1405L1280 1376Q1168 1397 1100 1425T947 1500Q927 1510
917 1516Q828 1477 713 1438Z" />
<glyph unicode="&#xe3;" glyph-name="atilde" horiz-adv-x="1294" d="M1043 104T1071 74T1135 41L1124 0Q1042 6 901 6Q736 6 655 0L666 41Q729 44 767 55T825 94T845 173Q845 191 842 213L811 467H292L152 293Q71 194 71 129Q71 51 195 41V0Q134 6 8 6Q-117 6
-170 0V41Q-80 64 53 231L877 1260H907L1034 172Q1043 104 1071 74ZM743 1027L325 508H806L743 1027ZM810 1628T846 1617T908 1589T968 1546Q1011 1512 1042 1496T1118 1479Q1198 1479 1262 1597L1299 1587Q1254 1480 1183 1428T1032 1376Q986 1376 950 1387T889
1415T828 1459Q787 1493 755 1509T678 1526Q600 1526 535 1407L498 1417Q543 1524 614 1576T764 1628Q810 1628 846 1617Z" />
<glyph unicode="&#xe4;" glyph-name="adieresis" horiz-adv-x="1294" d="M1043 104T1071 74T1135 41L1124 0Q1042 6 901 6Q736 6 655 0L666 41Q729 44 767 55T825 94T845 173Q845 191 842 213L811 467H292L152 293Q71 194 71 129Q71 51 195 41V0Q134 6 8 6Q-117
6 -170 0V41Q-80 64 53 231L877 1260H907L1034 172Q1043 104 1071 74ZM743 1027L325 508H806L743 1027ZM565 1512T584 1543T635 1594T703 1614Q746 1614 775 1584T805 1511Q805 1478 786 1447T736 1396T668 1376Q622 1376 594 1405T565 1481Q565 1512 584 1543ZM1000
1512T1019 1543T1069 1594T1137 1614Q1180 1614 1209 1584T1239 1511Q1239 1478 1220 1447T1170 1396T1102 1376Q1057 1376 1029 1406T1000 1481Q1000 1512 1019 1543Z" />
<glyph unicode="&#xe5;" glyph-name="aring" horiz-adv-x="1294" d="M1043 104T1071 74T1135 41L1124 0Q1042 6 901 6Q736 6 655 0L666 41Q729 44 767 55T825 94T845 173Q845 191 842 213L811 467H292L152 293Q71 194 71 129Q71 51 195 41V0Q134 6 8 6Q-117 6
-170 0V41Q-80 64 53 231L877 1260H907L1034 172Q1043 104 1071 74ZM743 1027L325 508H806L743 1027ZM1020 1690T1060 1670T1123 1612T1147 1526Q1147 1470 1115 1422T1030 1344T918 1315Q843 1315 796 1359T748 1479Q748 1537 778 1585T859 1662T971 1690Q1020
1690 1060 1670ZM969 1358T1008 1380T1070 1442T1094 1528Q1094 1565 1075 1592T1026 1633T963 1647Q922 1647 885 1624T824 1562T801 1481Q801 1423 838 1391T926 1358Q969 1358 1008 1380Z" />
<glyph unicode="&#xe6;" glyph-name="ae" horiz-adv-x="1864" d="M1742 1239T1870 1245Q1836 1152 1792 1004Q1773 935 1765 877H1720Q1735 963 1735 1021Q1735 1117 1693 1157T1554 1198H1364Q1292 1198 1257 1187T1201 1140T1159 1028L1057 647H1272Q1330 647
1368 677T1430 753T1483 877H1528Q1505 808 1474 689L1458 627Q1436 545 1405 377H1360Q1360 388 1365 440Q1370 477 1370 503Q1370 549 1348 575T1264 606H1046L942 217Q925 151 925 118Q925 88 938 73T980 53T1059 47H1270Q1369 47 1432 81T1541 192T1636 410H1681Q1668
375 1638 262Q1603 135 1585 0Q1446 6 1122 6Q733 6 532 0L541 41Q615 44 651 57T710 105T752 217L856 606H458L92 193Q33 126 33 96Q33 51 160 41V0Q105 6 -16 6Q-104 6 -154 0V41Q-90 44 23 172L927 1196Q894 1203 848 1204L858 1245L968 1242L1067 1354H1120L1020
1241Q1186 1239 1450 1239Q1742 1239 1870 1245ZM969 1028Q986 1093 986 1126Q986 1164 965 1179L494 647H867L969 1028Z" />
<glyph unicode="&#xe7;" glyph-name="ccedilla" horiz-adv-x="1362" d="M1322 1056T1253 774H1208Q1221 875 1221 932Q1221 1010 1188 1077Q1151 1155 1077 1196T907 1237Q745 1237 603 1102T376 761T291 360Q291 191 368 100T580 8Q674 8 774 50T948 168Q1002
224 1041 294T1133 492H1178Q1081 137 1057 0H1012Q1018 44 1018 70Q1018 122 992 122Q976 122 950 104Q862 42 777 8T582 -29L526 -147Q577 -133 630 -133Q681 -133 710 -155T739 -215Q739 -271 691 -309T570 -366T426 -385Q359 -385 305 -372T221 -340L235 -309Q306
-336 399 -336Q437 -336 486 -326T571 -293T608 -231Q608 -182 530 -182Q488 -182 446 -197L527 -28Q317 -20 202 91T86 401Q86 608 191 811T487 1144T926 1274Q1038 1274 1106 1239T1229 1141Q1244 1123 1258 1123Q1296 1123 1341 1245H1386Q1322 1056 1253 774Z"
/>
<glyph unicode="&#xe8;" glyph-name="egrave" horiz-adv-x="1268" d="M1143 1239T1278 1245Q1248 1170 1204 1024L1198 1001Q1176 913 1169 877H1122Q1141 970 1141 1026Q1141 1089 1119 1126T1049 1181T922 1198H772Q698 1198 662 1187T603 1140T561 1028L458
647H649Q714 647 759 684T830 767T881 877H928Q876 720 854 627L841 578Q813 472 799 377H752Q761 435 761 471Q761 535 730 570T616 606H447L342 217Q325 151 325 118Q325 88 338 73T381 53T463 47H612Q724 47 799 81T931 194T1038 410H1085Q1050 302 1036 242Q1012
161 985 0Q842 6 504 6Q125 6 -70 0L-59 41Q15 44 51 57T110 105T152 217L371 1028Q388 1094 388 1128Q388 1158 375 1173T333 1195T252 1204L262 1245Q455 1239 834 1239Q1143 1239 1278 1245ZM789 1444T680 1520Q586 1587 557 1616Q518 1655 518 1696Q518 1719
532 1737Q549 1758 578 1758Q601 1758 625 1746T667 1714Q684 1697 703 1671T735 1625T755 1595Q835 1473 901 1391L880 1370Q789 1444 680 1520Z" />
<glyph unicode="&#xe9;" glyph-name="eacute" horiz-adv-x="1268" d="M1143 1239T1278 1245Q1248 1170 1204 1024L1198 1001Q1176 913 1169 877H1122Q1141 970 1141 1026Q1141 1089 1119 1126T1049 1181T922 1198H772Q698 1198 662 1187T603 1140T561 1028L458
647H649Q714 647 759 684T830 767T881 877H928Q876 720 854 627L841 578Q813 472 799 377H752Q761 435 761 471Q761 535 730 570T616 606H447L342 217Q325 151 325 118Q325 88 338 73T381 53T463 47H612Q724 47 799 81T931 194T1038 410H1085Q1050 302 1036 242Q1012
161 985 0Q842 6 504 6Q125 6 -70 0L-59 41Q15 44 51 57T110 105T152 217L371 1028Q388 1094 388 1128Q388 1158 375 1173T333 1195T252 1204L262 1245Q455 1239 834 1239Q1143 1239 1278 1245ZM786 1479T924 1586Q1029 1667 1068 1690Q1108 1713 1146 1713Q1189
1713 1204 1679Q1208 1670 1208 1659Q1208 1634 1187 1610T1136 1569Q1086 1540 973 1499Q803 1436 681 1376L667 1399Q786 1479 924 1586Z" />
<glyph unicode="&#xea;" glyph-name="ecircumflex" horiz-adv-x="1268" d="M1143 1239T1278 1245Q1248 1170 1204 1024L1198 1001Q1176 913 1169 877H1122Q1141 970 1141 1026Q1141 1089 1119 1126T1049 1181T922 1198H772Q698 1198 662 1187T603 1140T561 1028L458
647H649Q714 647 759 684T830 767T881 877H928Q876 720 854 627L841 578Q813 472 799 377H752Q761 435 761 471Q761 535 730 570T616 606H447L342 217Q325 151 325 118Q325 88 338 73T381 53T463 47H612Q724 47 799 81T931 194T1038 410H1085Q1050 302 1036 242Q1012
161 985 0Q842 6 504 6Q125 6 -70 0L-59 41Q15 44 51 57T110 105T152 217L371 1028Q388 1094 388 1128Q388 1158 375 1173T333 1195T252 1204L262 1245Q455 1239 834 1239Q1143 1239 1278 1245ZM754 1477T639 1438T422 1376L411 1405Q558 1450 685 1521T893 1671H929Q987
1572 1052 1508T1214 1405L1206 1376Q1094 1397 1026 1425T873 1500Q853 1510 843 1516Q754 1477 639 1438Z" />
<glyph unicode="&#xeb;" glyph-name="edieresis" horiz-adv-x="1268" d="M1143 1239T1278 1245Q1248 1170 1204 1024L1198 1001Q1176 913 1169 877H1122Q1141 970 1141 1026Q1141 1089 1119 1126T1049 1181T922 1198H772Q698 1198 662 1187T603 1140T561 1028L458
647H649Q714 647 759 684T830 767T881 877H928Q876 720 854 627L841 578Q813 472 799 377H752Q761 435 761 471Q761 535 730 570T616 606H447L342 217Q325 151 325 118Q325 88 338 73T381 53T463 47H612Q724 47 799 81T931 194T1038 410H1085Q1050 302 1036 242Q1012
161 985 0Q842 6 504 6Q125 6 -70 0L-59 41Q15 44 51 57T110 105T152 217L371 1028Q388 1094 388 1128Q388 1158 375 1173T333 1195T252 1204L262 1245Q455 1239 834 1239Q1143 1239 1278 1245ZM491 1512T510 1543T561 1594T629 1614Q672 1614 701 1584T731 1511Q731
1478 712 1447T662 1396T594 1376Q548 1376 520 1405T491 1481Q491 1512 510 1543ZM926 1512T945 1543T995 1594T1063 1614Q1106 1614 1135 1584T1165 1511Q1165 1478 1146 1447T1096 1396T1028 1376Q983 1376 955 1406T926 1481Q926 1512 945 1543Z" />
<glyph unicode="&#xec;" glyph-name="igrave" horiz-adv-x="705" d="M327 151T327 118Q327 88 340 72T383 50T465 41L457 0Q361 6 197 6Q25 6 -63 0L-53 41Q19 44 55 57T112 105T154 217L369 1028Q386 1093 386 1126Q386 1157 372 1173T330 1195T248 1204L258
1245Q340 1239 518 1239Q683 1239 780 1245L770 1204Q695 1201 659 1188T601 1140T559 1028L344 217Q327 151 327 118ZM513 1444T404 1520Q310 1587 281 1616Q242 1655 242 1696Q242 1719 256 1737Q273 1758 302 1758Q325 1758 349 1746T391 1714Q408 1697 427
1671T459 1625T479 1595Q559 1473 625 1391L604 1370Q513 1444 404 1520Z" />
<glyph unicode="&#xed;" glyph-name="iacute" horiz-adv-x="705" d="M327 151T327 118Q327 88 340 72T383 50T465 41L457 0Q361 6 197 6Q25 6 -63 0L-53 41Q19 44 55 57T112 105T154 217L369 1028Q386 1093 386 1126Q386 1157 372 1173T330 1195T248 1204L258
1245Q340 1239 518 1239Q683 1239 780 1245L770 1204Q695 1201 659 1188T601 1140T559 1028L344 217Q327 151 327 118ZM510 1479T648 1586Q753 1667 792 1690Q832 1713 870 1713Q913 1713 928 1679Q932 1670 932 1659Q932 1634 911 1610T860 1569Q810 1540 697
1499Q527 1436 405 1376L391 1399Q510 1479 648 1586Z" />
<glyph unicode="&#xee;" glyph-name="icircumflex" horiz-adv-x="705" d="M327 151T327 118Q327 88 340 72T383 50T465 41L457 0Q361 6 197 6Q25 6 -63 0L-53 41Q19 44 55 57T112 105T154 217L369 1028Q386 1093 386 1126Q386 1157 372 1173T330 1195T248 1204L258
1245Q340 1239 518 1239Q683 1239 780 1245L770 1204Q695 1201 659 1188T601 1140T559 1028L344 217Q327 151 327 118ZM478 1477T363 1438T146 1376L135 1405Q282 1450 409 1521T617 1671H653Q711 1572 776 1508T938 1405L930 1376Q818 1397 750 1425T597 1500Q577
1510 567 1516Q478 1477 363 1438Z" />
<glyph unicode="&#xef;" glyph-name="idieresis" horiz-adv-x="705" d="M327 151T327 118Q327 88 340 72T383 50T465 41L457 0Q361 6 197 6Q25 6 -63 0L-53 41Q19 44 55 57T112 105T154 217L369 1028Q386 1093 386 1126Q386 1157 372 1173T330 1195T248 1204L258
1245Q340 1239 518 1239Q683 1239 780 1245L770 1204Q695 1201 659 1188T601 1140T559 1028L344 217Q327 151 327 118ZM215 1512T234 1543T285 1594T353 1614Q396 1614 425 1584T455 1511Q455 1478 436 1447T386 1396T318 1376Q272 1376 244 1405T215 1481Q215
1512 234 1543ZM650 1512T669 1543T719 1594T787 1614Q830 1614 859 1584T889 1511Q889 1478 870 1447T820 1396T752 1376Q707 1376 679 1406T650 1481Q650 1512 669 1543Z" />
<glyph unicode="&#xf0;" glyph-name="eth" horiz-adv-x="1483" d="M1103 1245T1248 1130T1393 793Q1393 568 1280 387T959 103T475 0Q428 0 356 3Q185 6 188 6Q23 6 -57 0L-51 41Q19 44 54 57T112 105T154 217L256 603H90L102 654H270L369 1028Q388 1095 388 1128Q388
1170 358 1186T250 1204L256 1245Q366 1238 456 1238L506 1239L590 1241Q750 1245 815 1245Q1103 1245 1248 1130ZM706 37T872 138T1117 420T1196 844Q1196 1029 1092 1118T758 1208Q694 1208 658 1194T600 1142T559 1032L460 654H823L811 603H446L344 213Q326
144 326 111Q326 71 353 54T451 37Q706 37 872 138Z" />
<glyph unicode="&#xf1;" glyph-name="ntilde" horiz-adv-x="1632" d="M1727 1339T1755 1310T1784 1235Q1784 1199 1770 1165T1729 1109T1663 1087Q1622 1087 1604 1111T1585 1167Q1585 1201 1604 1236T1651 1296H1645Q1592 1295 1553 1268T1477 1192Q1386 1064
1285 771T1065 -10H1020L554 1114Q332 151 193 -23Q160 -63 132 -89T64 -134T-27 -152Q-150 -152 -150 -45Q-150 -9 -136 24T-95 78T-29 100Q13 100 31 76T49 20Q49 -13 31 -47T-16 -109H-12Q88 -105 160 -2Q305 213 508 1109Q510 1148 497 1167T450 1193T350 1204L360
1245Q424 1239 543 1239Q638 1239 709 1245L1097 281Q1187 614 1272 857T1440 1208Q1536 1339 1661 1339Q1727 1339 1755 1310ZM966 1628T1002 1617T1064 1589T1124 1546Q1167 1512 1198 1496T1274 1479Q1354 1479 1418 1597L1455 1587Q1410 1480 1339 1428T1188
1376Q1142 1376 1106 1387T1045 1415T984 1459Q943 1493 911 1509T834 1526Q756 1526 691 1407L654 1417Q699 1524 770 1576T920 1628Q966 1628 1002 1617Z" />
<glyph unicode="&#xf2;" glyph-name="ograve" horiz-adv-x="1499" d="M447 -29T334 25T158 190T94 465Q94 650 198 839T489 1151T909 1274Q1060 1274 1173 1220T1349 1055T1413 780Q1413 595 1309 406T1018 94T598 -29Q447 -29 334 25ZM728 1237T596 1121T388
819T313 436Q313 214 394 111T616 8Q779 8 911 124T1119 426T1194 809Q1194 1031 1113 1134T891 1237Q728 1237 596 1121ZM931 1444T822 1520Q728 1587 699 1616Q660 1655 660 1696Q660 1719 674 1737Q691 1758 720 1758Q743 1758 767 1746T809 1714Q826 1697 845
1671T877 1625T897 1595Q977 1473 1043 1391L1022 1370Q931 1444 822 1520Z" />
<glyph unicode="&#xf3;" glyph-name="oacute" horiz-adv-x="1499" d="M447 -29T334 25T158 190T94 465Q94 650 198 839T489 1151T909 1274Q1060 1274 1173 1220T1349 1055T1413 780Q1413 595 1309 406T1018 94T598 -29Q447 -29 334 25ZM728 1237T596 1121T388
819T313 436Q313 214 394 111T616 8Q779 8 911 124T1119 426T1194 809Q1194 1031 1113 1134T891 1237Q728 1237 596 1121ZM928 1479T1066 1586Q1171 1667 1210 1690Q1250 1713 1288 1713Q1331 1713 1346 1679Q1350 1670 1350 1659Q1350 1634 1329 1610T1278 1569Q1228
1540 1115 1499Q945 1436 823 1376L809 1399Q928 1479 1066 1586Z" />
<glyph unicode="&#xf4;" glyph-name="ocircumflex" horiz-adv-x="1499" d="M447 -29T334 25T158 190T94 465Q94 650 198 839T489 1151T909 1274Q1060 1274 1173 1220T1349 1055T1413 780Q1413 595 1309 406T1018 94T598 -29Q447 -29 334 25ZM728 1237T596 1121T388
819T313 436Q313 214 394 111T616 8Q779 8 911 124T1119 426T1194 809Q1194 1031 1113 1134T891 1237Q728 1237 596 1121ZM896 1477T781 1438T564 1376L553 1405Q700 1450 827 1521T1035 1671H1071Q1129 1572 1194 1508T1356 1405L1348 1376Q1236 1397 1168 1425T1015
1500Q995 1510 985 1516Q896 1477 781 1438Z" />
<glyph unicode="&#xf5;" glyph-name="otilde" horiz-adv-x="1499" d="M447 -29T334 25T158 190T94 465Q94 650 198 839T489 1151T909 1274Q1060 1274 1173 1220T1349 1055T1413 780Q1413 595 1309 406T1018 94T598 -29Q447 -29 334 25ZM728 1237T596 1121T388
819T313 436Q313 214 394 111T616 8Q779 8 911 124T1119 426T1194 809Q1194 1031 1113 1134T891 1237Q728 1237 596 1121ZM878 1628T914 1617T976 1589T1036 1546Q1079 1512 1110 1496T1186 1479Q1266 1479 1330 1597L1367 1587Q1322 1480 1251 1428T1100 1376Q1054
1376 1018 1387T957 1415T896 1459Q855 1493 823 1509T746 1526Q668 1526 603 1407L566 1417Q611 1524 682 1576T832 1628Q878 1628 914 1617Z" />
<glyph unicode="&#xf6;" glyph-name="odieresis" horiz-adv-x="1499" d="M447 -29T334 25T158 190T94 465Q94 650 198 839T489 1151T909 1274Q1060 1274 1173 1220T1349 1055T1413 780Q1413 595 1309 406T1018 94T598 -29Q447 -29 334 25ZM728 1237T596 1121T388
819T313 436Q313 214 394 111T616 8Q779 8 911 124T1119 426T1194 809Q1194 1031 1113 1134T891 1237Q728 1237 596 1121ZM633 1512T652 1543T703 1594T771 1614Q814 1614 843 1584T873 1511Q873 1478 854 1447T804 1396T736 1376Q690 1376 662 1405T633 1481Q633
1512 652 1543ZM1068 1512T1087 1543T1137 1594T1205 1614Q1248 1614 1277 1584T1307 1511Q1307 1478 1288 1447T1238 1396T1170 1376Q1125 1376 1097 1406T1068 1481Q1068 1512 1087 1543Z" />
<glyph unicode="&#xf7;" glyph-name="divide" horiz-adv-x="1346" d="M698 1068T740 1101T829 1135Q868 1135 892 1112T916 1053Q916 1040 911 1022Q898 974 855 942T764 909Q726 909 703 931T679 990Q679 1004 684 1022Q698 1068 740 1101ZM1223 758L1204 696H178L197
758H1223ZM527 478T570 511T659 545Q698 545 722 523T746 464Q746 450 741 432Q727 385 684 351T594 317Q556 317 533 340T509 400Q509 414 514 432Q527 478 570 511Z" />
<glyph unicode="&#xf8;" glyph-name="oslash" horiz-adv-x="1499" d="M1413 1021T1413 780Q1413 595 1309 406T1018 94T598 -29Q382 -29 251 78L37 -150L2 -121L218 109Q94 238 94 465Q94 650 198 839T489 1151T909 1274Q1114 1274 1241 1178L1499 1448L1530 1421L1274
1151Q1413 1021 1413 780ZM728 1237T596 1121T388 819T313 436Q313 314 340 222L1142 1087Q1067 1237 891 1237Q728 1237 596 1121ZM779 8T911 124T1119 426T1194 809Q1194 948 1160 1044L357 175Q431 8 616 8Q779 8 911 124Z" />
<glyph unicode="&#xf9;" glyph-name="ugrave" horiz-adv-x="1399" d="M1101 311T975 162Q900 74 790 23T555 -29Q326 -29 240 82Q202 128 185 178T167 292Q167 393 219 590L336 1028Q353 1093 353 1126Q353 1157 339 1173T297 1195T215 1204L227 1245Q311 1239
492 1239Q649 1239 748 1245L735 1204Q660 1201 624 1188T566 1140T524 1028L397 555Q352 378 352 278Q352 165 408 104T594 43Q809 43 932 182T1122 573L1239 1008Q1254 1062 1254 1099Q1254 1154 1218 1177T1102 1204L1112 1245Q1186 1239 1319 1239Q1444 1239
1511 1245L1501 1204Q1438 1201 1399 1183T1332 1124T1284 1008L1176 596Q1101 311 975 162ZM877 1444T768 1520Q674 1587 645 1616Q606 1655 606 1696Q606 1719 620 1737Q637 1758 666 1758Q689 1758 713 1746T755 1714Q772 1697 791 1671T823 1625T843 1595Q923
1473 989 1391L968 1370Q877 1444 768 1520Z" />
<glyph unicode="&#xfa;" glyph-name="uacute" horiz-adv-x="1399" d="M1101 311T975 162Q900 74 790 23T555 -29Q326 -29 240 82Q202 128 185 178T167 292Q167 393 219 590L336 1028Q353 1093 353 1126Q353 1157 339 1173T297 1195T215 1204L227 1245Q311 1239
492 1239Q649 1239 748 1245L735 1204Q660 1201 624 1188T566 1140T524 1028L397 555Q352 378 352 278Q352 165 408 104T594 43Q809 43 932 182T1122 573L1239 1008Q1254 1062 1254 1099Q1254 1154 1218 1177T1102 1204L1112 1245Q1186 1239 1319 1239Q1444 1239
1511 1245L1501 1204Q1438 1201 1399 1183T1332 1124T1284 1008L1176 596Q1101 311 975 162ZM874 1479T1012 1586Q1117 1667 1156 1690Q1196 1713 1234 1713Q1277 1713 1292 1679Q1296 1670 1296 1659Q1296 1634 1275 1610T1224 1569Q1174 1540 1061 1499Q891 1436
769 1376L755 1399Q874 1479 1012 1586Z" />
<glyph unicode="&#xfb;" glyph-name="ucircumflex" horiz-adv-x="1399" d="M1101 311T975 162Q900 74 790 23T555 -29Q326 -29 240 82Q202 128 185 178T167 292Q167 393 219 590L336 1028Q353 1093 353 1126Q353 1157 339 1173T297 1195T215 1204L227 1245Q311
1239 492 1239Q649 1239 748 1245L735 1204Q660 1201 624 1188T566 1140T524 1028L397 555Q352 378 352 278Q352 165 408 104T594 43Q809 43 932 182T1122 573L1239 1008Q1254 1062 1254 1099Q1254 1154 1218 1177T1102 1204L1112 1245Q1186 1239 1319 1239Q1444
1239 1511 1245L1501 1204Q1438 1201 1399 1183T1332 1124T1284 1008L1176 596Q1101 311 975 162ZM842 1477T727 1438T510 1376L499 1405Q646 1450 773 1521T981 1671H1017Q1075 1572 1140 1508T1302 1405L1294 1376Q1182 1397 1114 1425T961 1500Q941 1510 931
1516Q842 1477 727 1438Z" />
<glyph unicode="&#xfc;" glyph-name="udieresis" horiz-adv-x="1399" d="M1101 311T975 162Q900 74 790 23T555 -29Q326 -29 240 82Q202 128 185 178T167 292Q167 393 219 590L336 1028Q353 1093 353 1126Q353 1157 339 1173T297 1195T215 1204L227 1245Q311 1239
492 1239Q649 1239 748 1245L735 1204Q660 1201 624 1188T566 1140T524 1028L397 555Q352 378 352 278Q352 165 408 104T594 43Q809 43 932 182T1122 573L1239 1008Q1254 1062 1254 1099Q1254 1154 1218 1177T1102 1204L1112 1245Q1186 1239 1319 1239Q1444 1239
1511 1245L1501 1204Q1438 1201 1399 1183T1332 1124T1284 1008L1176 596Q1101 311 975 162ZM579 1512T598 1543T649 1594T717 1614Q760 1614 789 1584T819 1511Q819 1478 800 1447T750 1396T682 1376Q636 1376 608 1405T579 1481Q579 1512 598 1543ZM1014 1512T1033
1543T1083 1594T1151 1614Q1194 1614 1223 1584T1253 1511Q1253 1478 1234 1447T1184 1396T1116 1376Q1071 1376 1043 1406T1014 1481Q1014 1512 1033 1543Z" />
<glyph unicode="&#xfd;" glyph-name="yacute" horiz-adv-x="1307" d="M1377 1274T1404 1243T1432 1164Q1432 1134 1419 1101T1378 1045T1311 1022Q1233 1022 1233 1103Q1233 1134 1251 1168T1298 1231H1292Q1242 1228 1180 1186Q1076 1108 960 955T738 562L649
217Q632 151 632 118Q632 88 645 72T688 50T770 41L760 0Q667 6 506 6Q326 6 238 0L248 41Q322 44 359 57T418 105T459 217L556 593Q497 1161 365 1161Q329 1161 306 1139T266 1065L209 897H164L231 1096Q253 1160 277 1197T338 1254T432 1274Q517 1274 568 1214T649
1044T711 737L726 637Q870 947 1075 1149Q1130 1203 1193 1238T1317 1274Q1377 1274 1404 1243ZM823 1479T961 1586Q1066 1667 1105 1690Q1145 1713 1183 1713Q1226 1713 1241 1679Q1245 1670 1245 1659Q1245 1634 1224 1610T1173 1569Q1123 1540 1010 1499Q840
1436 718 1376L704 1399Q823 1479 961 1586Z" />
<glyph unicode="&#xfe;" glyph-name="thorn" horiz-adv-x="1210" d="M327 151T327 118Q327 88 340 72T383 50T465 41L457 0Q361 6 197 6Q25 6 -63 0L-53 41Q19 44 55 57T112 105T154 217L369 1028Q386 1093 386 1126Q386 1157 372 1173T330 1195T248 1204L258
1245Q340 1239 518 1239Q682 1239 780 1245L770 1204Q695 1201 659 1188T601 1140T559 1028L551 996L595 997Q695 999 748 999Q948 999 1051 928T1155 731Q1155 596 1060 488T794 318T403 256H354L344 217Q327 151 327 118ZM424 297Q700 297 824 424T948 764Q948
864 886 912T688 961Q617 961 541 959L365 297H424Z" />
<glyph unicode="&#xff;" glyph-name="ydieresis" horiz-adv-x="1307" d="M1377 1274T1404 1243T1432 1164Q1432 1134 1419 1101T1378 1045T1311 1022Q1233 1022 1233 1103Q1233 1134 1251 1168T1298 1231H1292Q1242 1228 1180 1186Q1076 1108 960 955T738 562L649
217Q632 151 632 118Q632 88 645 72T688 50T770 41L760 0Q667 6 506 6Q326 6 238 0L248 41Q322 44 359 57T418 105T459 217L556 593Q497 1161 365 1161Q329 1161 306 1139T266 1065L209 897H164L231 1096Q253 1160 277 1197T338 1254T432 1274Q517 1274 568 1214T649
1044T711 737L726 637Q870 947 1075 1149Q1130 1203 1193 1238T1317 1274Q1377 1274 1404 1243ZM528 1512T547 1543T598 1594T666 1614Q709 1614 738 1584T768 1511Q768 1478 749 1447T699 1396T631 1376Q585 1376 557 1405T528 1481Q528 1512 547 1543ZM963 1512T982
1543T1032 1594T1100 1614Q1143 1614 1172 1584T1202 1511Q1202 1478 1183 1447T1133 1396T1065 1376Q1020 1376 992 1406T963 1481Q963 1512 982 1543Z" />
<glyph unicode="&#x2013;" glyph-name="endash" horiz-adv-x="1491" d="M1331 500H102L123 582H1354L1331 500Z" />
<glyph unicode="&#x2014;" glyph-name="emdash" horiz-adv-x="2052" d="M1892 500H102L123 582H1915L1892 500Z" />
<glyph unicode="&#x2018;" glyph-name="quoteleft" horiz-adv-x="489" d="M252 1175T288 1247T392 1382T553 1491L563 1463Q466 1404 409 1334T346 1194Q405 1246 453 1246Q489 1246 509 1227T530 1174Q530 1131 503 1087T431 1013T342 984Q297 984 275 1019T252
1104Q252 1175 288 1247Z" />
<glyph unicode="&#x2019;" glyph-name="quoteright" horiz-adv-x="492" d="M567 1263T531 1191T427 1056T266 947L256 975Q353 1034 410 1104T473 1244Q414 1192 366 1192Q330 1192 310 1211T289 1264Q289 1307 316 1351T388 1425T477 1454Q522 1454 544 1419T567
1334Q567 1263 531 1191Z" />
<glyph unicode="&#x201a;" glyph-name="quotesinglbase" horiz-adv-x="516" d="M264 42T228 -30T124 -165T-37 -274L-47 -246Q50 -187 107 -117T170 23Q111 -29 63 -29Q27 -29 7 -10T-14 43Q-14 86 13 130T85 204T174 233Q219 233 241 198T264 113Q264 42 228 -30Z" />
<glyph unicode="&#x201c;" glyph-name="quotedblleft" horiz-adv-x="817" d="M594 1177T630 1249T734 1384T895 1493L906 1465Q809 1406 752 1336T688 1196Q747 1248 795 1248Q822 1248 837 1229T852 1176Q852 1133 828 1089T764 1015T684 986Q594 986 594 1106Q594
1177 630 1249ZM254 1177T290 1249T394 1384T555 1493L566 1465Q469 1406 412 1336T348 1196Q407 1248 455 1248Q482 1248 497 1229T512 1176Q512 1133 488 1089T424 1015T344 986Q254 986 254 1106Q254 1177 290 1249Z" />
<glyph unicode="&#x201d;" glyph-name="quotedblright" horiz-adv-x="821" d="M559 1269T523 1197T419 1062T258 953L247 981Q344 1040 401 1110T465 1250Q406 1198 358 1198Q331 1198 316 1217T301 1270Q301 1313 325 1357T389 1431T469 1460Q559 1460 559 1340Q559
1269 523 1197ZM899 1269T863 1197T759 1062T598 953L587 981Q684 1040 741 1110T805 1250Q746 1198 698 1198Q671 1198 656 1217T641 1270Q641 1313 665 1357T729 1431T809 1460Q899 1460 899 1340Q899 1269 863 1197Z" />
<glyph unicode="&#x201e;" glyph-name="quotedblbase" horiz-adv-x="838" d="M246 42T210 -30T106 -165T-55 -274L-66 -246Q31 -187 88 -117T152 23Q93 -29 45 -29Q18 -29 3 -10T-12 43Q-12 86 12 130T76 204T156 233Q246 233 246 113Q246 42 210 -30ZM586 42T550
-30T446 -165T285 -274L274 -246Q371 -187 428 -117T492 23Q433 -29 385 -29Q358 -29 343 -10T328 43Q328 86 352 130T416 204T496 233Q586 233 586 113Q586 42 550 -30Z" />
<glyph unicode="&#x2022;" glyph-name="bullet" horiz-adv-x="911" d="M148 590T194 657T310 763T461 803Q535 803 595 769T690 675T725 542Q725 532 723 510Q715 430 669 364T552 258T401 219Q327 219 267 253T173 348T138 481Q138 500 139 510Q148 590 194 657Z" />
<glyph unicode="&#x2039;" glyph-name="guilsinglleft" horiz-adv-x="721" d="M609 991T531 875T365 657T203 500Q260 453 319 359T425 159T492 -29H455Q274 324 49 498V502Q206 612 343 755T614 1081H651Q609 991 531 875Z" />
<glyph unicode="&#x203a;" glyph-name="guilsinglright" horiz-adv-x="719" d="M408 727T633 553V551Q476 439 339 297T68 -29H31Q73 61 151 177T317 396T479 553Q422 600 363 693T257 893T190 1081H227Q408 727 633 553Z" />
</font>
</defs>
</svg>
