<?xml version="1.0" standalone="no"?>
<!DOCTYPE svg PUBLIC "-//W3C//DTD SVG 1.1//EN" "http://www.w3.org/Graphics/SVG/1.1/DTD/svg11.dtd">
<svg xmlns="http://www.w3.org/2000/svg">
<defs >
<font id="EncodeSansSemiCondensed" horiz-adv-x="1139" ><font-face
    font-family="Encode Sans Semi Condensed"
    units-per-em="2000"
    panose-1="0 0 8 6 0 0 0 0 0 0"
    ascent="2060"
    descent="-440"
    alphabetic="0" />
<glyph unicode=" " glyph-name="space" horiz-adv-x="467" />
<glyph unicode="!" glyph-name="exclam" horiz-adv-x="563" d="M189 471L117 966V1480H445V966L377 471H189ZM192 -17T137 33T82 170Q82 255 136 306T281 357Q341 357 386 334T456 268T481 170Q481 115 456 73T386 7T281 -17Q192 -17 137 33Z" />
<glyph unicode="&quot;" glyph-name="quotedbl" horiz-adv-x="859" d="M129 849L69 1616H377L317 849H129ZM543 849L483 1616H791L731 849H543Z" />
<glyph unicode="#" glyph-name="numbersign" horiz-adv-x="1199" d="M1104 844H924L905 636H1104V405H883L845 0H611L649 405H487L449 0H215L253 405H95V636H275L294 844H95V1075H316L354 1480H588L550 1075H712L750 1480H984L946 1075H1104V844ZM671 636L690
844H528L509 636H671Z" />
<glyph unicode="$" glyph-name="dollar" horiz-adv-x="1075" d="M1032 273T942 162T682 7V-240H395V-17Q314 -13 232 1T80 39V297Q168 270 266 255T449 239Q591 239 655 283T720 410Q720 457 701 488T637 544T510 593L404 625Q43 730 43 1049Q43 1212 131 1320T395
1473V1720H682V1498Q835 1493 956 1462V1203Q891 1221 814 1231T665 1241Q498 1241 427 1197T355 1070Q355 1026 372 996T429 942T542 897L648 866Q840 811 936 708T1032 436Q1032 273 942 162Z" />
<glyph unicode="%" glyph-name="percent" horiz-adv-x="1976" d="M278 569T176 685T73 1035Q73 1267 175 1383T456 1499Q634 1499 736 1383T839 1035Q839 802 737 686T456 569Q278 569 176 685ZM546 0L1183 1480H1431L793 0H546ZM522 766T558 827T594 1034Q594
1181 558 1242T456 1303Q390 1303 354 1242T318 1035Q318 888 354 827T456 766Q522 766 558 827ZM1343 -18T1241 98T1138 447Q1138 680 1240 796T1521 912Q1699 912 1801 796T1903 447Q1903 215 1801 99T1521 -18Q1343 -18 1241 98ZM1586 178T1622 239T1658 447Q1658
594 1622 655T1521 716Q1455 716 1419 655T1383 448Q1383 301 1419 240T1521 178Q1586 178 1622 239Z" />
<glyph unicode="&amp;" glyph-name="ampersand" horiz-adv-x="1520" d="M1363 -20L1126 150Q1044 66 924 24T651 -18Q470 -18 345 34T156 181T93 405Q93 531 153 626T315 774Q266 838 245 904T223 1044Q223 1262 371 1380T814 1499Q946 1499 1063 1475V1216Q951
1241 839 1241Q678 1241 607 1191T535 1043Q535 978 567 928T684 814L1038 560Q1040 592 1040 611Q1040 670 1031 736T1006 865H1257Q1289 739 1289 614Q1289 497 1263 398L1520 214L1363 -20ZM842 210T931 290L527 580L470 623Q402 549 402 441Q402 332 475 271T686
210Q842 210 931 290Z" />
<glyph unicode="&apos;" glyph-name="quotesingle" horiz-adv-x="446" d="M129 849L69 1616H377L317 849H129Z" />
<glyph unicode="(" glyph-name="parenleft" horiz-adv-x="678" d="M95 -34T95 588Q95 1210 401 1616H713Q560 1394 486 1139T412 588Q412 293 486 38T713 -440H401Q95 -34 95 588Z" />
<glyph unicode=")" glyph-name="parenright" horiz-adv-x="678" d="M118 -218T192 37T266 588Q266 883 192 1138T-35 1616H277Q583 1210 583 588Q583 -34 277 -440H-35Q118 -218 192 37Z" />
<glyph unicode="*" glyph-name="asterisk" horiz-adv-x="983" d="M604 1139L748 1003L838 878L668 754L577 879L492 1063L406 879L315 754L145 878L235 1003L379 1139L184 1165L30 1214L95 1414L249 1363L424 1268L387 1464V1616H597V1464L560 1268L734 1363L888
1414L953 1214L799 1165L604 1139Z" />
<glyph unicode="+" glyph-name="plus" horiz-adv-x="1062" d="M407 329V641H107V879H407V1191H655V879H955V641H655V329H407Z" />
<glyph unicode="," glyph-name="comma" horiz-adv-x="523" d="M356 369T408 306T460 118Q460 0 419 -122T308 -343H132Q175 -246 199 -168T230 -15Q154 -6 108 45T62 176Q62 267 115 318T256 369Q356 369 408 306Z" />
<glyph unicode="-" glyph-name="hyphen" horiz-adv-x="817" d="M107 442V692H710V442H107Z" />
<glyph unicode="." glyph-name="period" horiz-adv-x="523" d="M171 -17T117 35T62 176Q62 265 116 317T261 369Q352 369 406 316T461 176Q461 89 406 36T261 -17Q171 -17 117 35Z" />
<glyph unicode="/" glyph-name="slash" horiz-adv-x="718" d="M0 -240L421 1616H718L297 -240H0Z" />
<glyph unicode="0" glyph-name="zero" horiz-adv-x="1253" d="M362 -19T224 164T85 740Q85 1132 223 1315T626 1499Q891 1499 1029 1316T1168 740Q1168 348 1029 165T626 -19Q362 -19 224 164ZM705 238T756 284T834 441T861 739Q861 928 835 1038T757 1195T627
1242Q548 1242 497 1196T419 1039T392 741Q392 552 418 442T496 285T627 238Q705 238 756 284Z" />
<glyph unicode="1" glyph-name="one" horiz-adv-x="749" d="M424 1485H618V0H307V1116L17 923V1214L424 1485Z" />
<glyph unicode="2" glyph-name="two" horiz-adv-x="1002" d="M954 267V0H43V172L413 673Q502 793 540 879T579 1042Q579 1144 518 1192T322 1241Q244 1241 167 1228T25 1188V1446Q88 1470 182 1484T363 1499Q620 1499 753 1396T887 1070Q886 956 842 841T691 586L449
267H954Z" />
<glyph unicode="3" glyph-name="three" horiz-adv-x="1014" d="M813 734T887 643T962 409Q962 273 896 177T701 31T386 -19Q199 -19 34 29V269Q113 247 205 235T376 222Q525 222 595 273T666 429Q666 531 596 582T370 634H182V880H332Q619 880 619 1076Q619 1168
558 1213T365 1258Q287 1258 206 1245T57 1206V1447Q125 1471 219 1485T404 1499Q656 1499 786 1398T917 1108Q917 981 852 891T669 765Q813 734 887 643Z" />
<glyph unicode="4" glyph-name="four" horiz-adv-x="1198" d="M1168 551V310H987V0H709V310H35V483L525 1480H822L373 551H709L742 980H987V551H1168Z" />
<glyph unicode="5" glyph-name="five" horiz-adv-x="1028" d="M613 880T740 827T927 679T987 442Q987 215 840 98T414 -19Q230 -19 63 32V273Q141 249 233 236T405 223Q552 223 621 274T691 431Q691 504 654 549T524 621T260 658L106 668L154 1480H931V1229H431L410
894Q613 880 740 827Z" />
<glyph unicode="6" glyph-name="six" horiz-adv-x="1177" d="M810 889T911 841T1071 694T1130 447Q1130 301 1069 196T897 36T640 -19Q383 -19 239 152T94 697Q94 1102 272 1300T781 1499Q952 1499 1057 1459V1213Q938 1253 792 1253Q599 1253 503 1146T399 806Q455
846 528 867T682 889Q810 889 911 841ZM735 214T791 269T847 436Q847 548 787 603T621 658Q562 658 505 640T400 586Q405 444 435 363T517 248T643 214Q735 214 791 269Z" />
<glyph unicode="7" glyph-name="seven" horiz-adv-x="954" d="M11 1480H897V1308L447 0H125L563 1213H11V1480Z" />
<glyph unicode="8" glyph-name="eight" horiz-adv-x="1253" d="M1061 709T1119 620T1178 402Q1178 277 1114 182T927 34T631 -19Q448 -19 323 30T136 167T73 374Q73 490 137 581T325 730Q212 797 162 885T111 1091Q111 1214 172 1306T353 1448T639 1499Q793 1499
905 1454T1078 1323T1139 1122Q1139 1015 1087 927T922 777Q1061 709 1119 620ZM526 1278T466 1231T406 1102Q406 1043 431 1004T522 930T716 856Q798 904 835 962T872 1097Q872 1185 812 1231T640 1278Q526 1278 466 1231ZM759 202T823 250T888 386Q888 446 860
486T765 560T575 629L526 644Q446 604 405 540T363 403Q363 305 431 254T631 202Q759 202 823 250Z" />
<glyph unicode="9" glyph-name="nine" horiz-adv-x="1177" d="M794 1499T938 1328T1083 783Q1083 378 905 180T396 -19Q225 -19 120 21V267Q239 227 385 227Q578 227 674 334T778 674Q722 634 649 613T495 591Q367 591 266 639T106 786T47 1033Q47 1179 108 1284T280
1444T537 1499Q794 1499 938 1328ZM330 932T390 877T556 822Q615 822 672 840T777 894Q772 1036 742 1117T660 1232T534 1266Q442 1266 386 1211T330 1044Q330 932 390 877Z" />
<glyph unicode=":" glyph-name="colon" horiz-adv-x="523" d="M171 -17T117 35T62 176Q62 265 116 317T261 369Q352 369 406 316T461 176Q461 89 406 36T261 -17Q171 -17 117 35ZM171 725T117 777T62 918Q62 1007 116 1059T261 1111Q352 1111 406 1058T461 918Q461
831 406 778T261 725Q171 725 117 777Z" />
<glyph unicode=";" glyph-name="semicolon" horiz-adv-x="523" d="M356 369T408 306T460 118Q460 0 419 -122T308 -343H132Q175 -246 199 -168T230 -15Q154 -6 108 45T62 176Q62 267 115 318T256 369Q356 369 408 306ZM171 725T117 777T62 918Q62 1007 116 1059T261
1111Q352 1111 406 1058T461 918Q461 831 406 778T261 725Q171 725 117 777Z" />
<glyph unicode="&lt;" glyph-name="less" horiz-adv-x="1062" d="M955 1240V1000L320 761L955 520V280L107 611V909L955 1240Z" />
<glyph unicode="=" glyph-name="equal" horiz-adv-x="1062" d="M107 860V1098H955V860H107ZM107 422V660H955V422H107Z" />
<glyph unicode="&gt;" glyph-name="greater" horiz-adv-x="1062" d="M107 1240L955 909V611L107 280V520L742 761L107 1000V1240Z" />
<glyph unicode="?" glyph-name="question" horiz-adv-x="927" d="M261 830Q386 859 457 893T557 972T586 1076Q586 1166 524 1211T331 1256Q254 1256 174 1243T23 1204V1447Q91 1471 186 1485T370 1499Q622 1499 753 1398T884 1107Q884 951 794 847T525 686L501
467H313L261 830ZM318 -17T263 34T208 170Q208 255 262 306T407 357Q467 357 512 334T582 268T607 170Q607 115 582 73T512 7T407 -17Q318 -17 263 34Z" />
<glyph unicode="@" glyph-name="at" horiz-adv-x="1984" d="M1441 1498T1675 1268T1908 580Q1908 267 1791 124T1471 -20Q1256 -20 1172 130H1156Q1123 53 1051 17T887 -20Q788 -20 714 19T600 129T560 296Q560 454 661 539T985 641L1144 655V674Q1144 742 1122
781T1053 838T925 856Q860 856 787 844T649 807L651 1046Q722 1070 810 1083T980 1097Q1142 1097 1243 1055T1393 917T1442 660V310Q1442 248 1465 219T1534 190Q1607 190 1647 271T1687 560Q1687 823 1613 984T1389 1219T1000 1293Q763 1293 613 1217T389 971T315
521Q315 238 391 68T624 -178T1036 -255Q1249 -255 1460 -200V-405Q1254 -460 1036 -460Q75 -460 75 520Q75 1016 314 1257T1000 1498Q1441 1498 1675 1268ZM1033 205T1073 221T1144 271V482L1018 471Q938 464 899 430T860 331Q860 269 894 237T991 205Q1033 205
1073 221Z" />
<glyph unicode="A" glyph-name="A" horiz-adv-x="1349" d="M1034 0L922 395H422L311 0H7L445 1480H904L1341 0H1034ZM495 653H849L672 1282L495 653Z" />
<glyph unicode="B" glyph-name="B" horiz-adv-x="1266" d="M1075 735T1147 647T1220 413Q1220 198 1054 91T520 -17Q430 -17 322 -9T121 12V1451Q223 1473 340 1485T569 1498Q780 1498 914 1454T1113 1320T1178 1089Q1178 970 1117 883T945 764Q1075 735 1147
647ZM519 1262T425 1246V878H619Q717 878 775 898T859 960T885 1069Q885 1139 859 1181T773 1242T615 1262Q519 1262 425 1246ZM724 219T795 241T898 309T929 429Q929 535 862 584T648 634H425V228Q522 219 603 219Q724 219 795 241Z" />
<glyph unicode="C" glyph-name="C" horiz-adv-x="1144" d="M441 -19T258 162T75 737Q75 1120 265 1309T809 1499Q969 1499 1106 1465V1204Q970 1238 834 1238Q687 1238 592 1189T449 1031T401 741Q401 555 448 446T589 289T828 242Q953 242 1106 291V30Q1041 7
958 -6T790 -19Q441 -19 258 162Z" />
<glyph unicode="D" glyph-name="D" horiz-adv-x="1388" d="M307 -16T121 6V1451Q341 1498 551 1498Q933 1498 1122 1313T1312 740Q1312 478 1223 311T954 64T499 -16Q307 -16 121 6ZM719 242T809 290T946 449T992 741Q992 922 946 1032T809 1191T581 1241Q504
1241 432 1227V248Q496 242 580 242Q719 242 809 290Z" />
<glyph unicode="E" glyph-name="E" horiz-adv-x="1165" d="M428 260H1101V0H121V1480H1091V1220H428V887H990V627H428V260Z" />
<glyph unicode="F" glyph-name="F" horiz-adv-x="1116" d="M1088 1216H432V854H990V590H432V0H121V1480H1088V1216Z" />
<glyph unicode="G" glyph-name="G" horiz-adv-x="1329" d="M1217 720V13Q1028 -17 871 -17Q472 -17 274 167T75 738Q75 1122 276 1310T860 1499Q1031 1499 1179 1461V1200Q1025 1238 891 1238Q721 1237 614 1188T453 1029T400 734Q400 559 450 451T597 293T842
243Q886 243 928 246V720H1217Z" />
<glyph unicode="H" glyph-name="H" horiz-adv-x="1423" d="M121 0V1480H432V897H991V1480H1302V0H991V616H432V0H121Z" />
<glyph unicode="I" glyph-name="I" horiz-adv-x="553" d="M121 0V1480H432V0H121Z" />
<glyph unicode="J" glyph-name="J" horiz-adv-x="553" d="M-32 -214Q54 -94 88 21T122 300V1480H432V302Q430 113 371 -40T171 -348L-32 -214Z" />
<glyph unicode="K" glyph-name="K" horiz-adv-x="1256" d="M972 0L570 616H432V0H121V1480H432V897H572L942 1480H1269L814 764L1308 0H972Z" />
<glyph unicode="L" glyph-name="L" horiz-adv-x="1070" d="M121 0V1480H432V270H1063V0H121Z" />
<glyph unicode="M" glyph-name="M" horiz-adv-x="1773" d="M1267 1480H1648V0H1358V1052L1012 214H761L415 1027V0H125V1480H506L892 551L1267 1480Z" />
<glyph unicode="N" glyph-name="N" horiz-adv-x="1440" d="M1028 1480H1319V0H1007L413 981V0H121V1480H433L1028 497V1480Z" />
<glyph unicode="O" glyph-name="O" horiz-adv-x="1444" d="M524 -19T379 61T155 311T75 740Q75 999 155 1168T379 1418T722 1499Q920 1499 1064 1418T1288 1168T1368 740Q1368 482 1288 313T1064 62T722 -19Q524 -19 379 61ZM881 237T964 353T1048 733Q1048 1006
965 1124T722 1243Q562 1243 479 1127T395 747Q395 474 478 356T722 237Q881 237 964 353Z" />
<glyph unicode="P" glyph-name="P" horiz-adv-x="1243" d="M121 1453Q333 1498 546 1498Q864 1498 1021 1368T1178 963Q1178 700 1023 564T565 428Q510 428 432 433V0H121V1453ZM728 674T801 741T875 960Q875 1113 802 1183T574 1253Q496 1253 432 1241V682Q491
674 569 674Q728 674 801 741Z" />
<glyph unicode="Q" glyph-name="Q" horiz-adv-x="1444" d="M1368 441T1254 259T922 28Q1121 -31 1346 -59L1290 -310Q831 -236 566 -100T188 240T75 738Q75 998 155 1167T379 1418T722 1499Q920 1499 1064 1419T1288 1169T1368 740Q1368 441 1254 259ZM395 474T478
356T722 237Q881 237 964 353T1048 733Q1048 1006 965 1124T722 1243Q562 1243 479 1127T395 747Q395 474 478 356Z" />
<glyph unicode="R" glyph-name="R" horiz-adv-x="1304" d="M952 0L593 543H574Q523 543 427 547V0H121V1451Q338 1498 556 1498Q867 1498 1020 1381T1174 1022Q1175 865 1101 757T887 594L1287 0H952ZM427 791Q500 784 576 784Q732 784 806 840T881 1021Q881 1144
810 1202T594 1260Q503 1260 427 1246V791Z" />
<glyph unicode="S" glyph-name="S" horiz-adv-x="1075" d="M367 -19T265 -3T80 42V300Q170 272 269 256T458 239Q720 239 720 410Q720 457 701 488T637 544T510 593L404 625Q43 730 43 1049Q43 1190 108 1290T304 1445T627 1499Q718 1499 803 1488T956 1458V1199Q889
1219 811 1230T653 1241Q494 1241 425 1196T355 1070Q355 1026 372 996T429 942T542 897L648 866Q840 811 936 708T1032 436Q1032 295 965 193T769 36T463 -19Q367 -19 265 -3Z" />
<glyph unicode="T" glyph-name="T" horiz-adv-x="1204" d="M446 0V1210H9V1480H1195V1210H758V0H446Z" />
<glyph unicode="U" glyph-name="U" horiz-adv-x="1394" d="M500 -19T371 45T179 245T115 593V1480H426V559Q426 391 493 316T701 241Q840 241 907 316T975 559V1480H1280V593Q1280 380 1218 245T1028 46T701 -19Q500 -19 371 45Z" />
<glyph unicode="V" glyph-name="V" horiz-adv-x="1323" d="M1028 1480H1328L896 0H427L-5 1480H317L670 235L1028 1480Z" />
<glyph unicode="W" glyph-name="W" horiz-adv-x="2108" d="M1790 1480H2083L1728 0H1325L1061 1107L783 0H380L24 1480H339L606 304L893 1480H1235L1513 292L1790 1480Z" />
<glyph unicode="X" glyph-name="X" horiz-adv-x="1304" d="M833 770L1327 0H987L650 528L312 0H-30L469 768L6 1480H350L652 1013L953 1480H1289L833 770Z" />
<glyph unicode="Y" glyph-name="Y" horiz-adv-x="1204" d="M1251 1480L759 626V0H448V624L-56 1480H273L611 901L948 1480H1251Z" />
<glyph unicode="Z" glyph-name="Z" horiz-adv-x="1151" d="M451 269H1104V0H47V173L690 1211H58V1480H1093V1307L451 269Z" />
<glyph unicode="[" glyph-name="bracketleft" horiz-adv-x="678" d="M141 -440V1616H710V1375H447V-199H707V-440H141Z" />
<glyph unicode="\" glyph-name="backslash" horiz-adv-x="719" d="M422 -240L0 1616H298L719 -240H422Z" />
<glyph unicode="]" glyph-name="bracketright" horiz-adv-x="678" d="M-29 -440V-199H231V1375H-32V1616H537V-440H-29Z" />
<glyph unicode="^" glyph-name="asciicircum" horiz-adv-x="1199" d="M1130 740H840L599 1207L358 740H68L463 1480H735L1130 740Z" />
<glyph unicode="_" glyph-name="underscore" horiz-adv-x="1124" d="M85 -241V0H1038V-241H85Z" />
<glyph unicode="`" glyph-name="grave" horiz-adv-x="1137" d="M433 1232L177 1616H492L705 1232H433Z" />
<glyph unicode="a" glyph-name="a" horiz-adv-x="1038" d="M634 1112T736 1069T887 929T937 665V0H687L665 114H651Q609 46 540 13T382 -20Q283 -20 209 19T95 129T55 296Q55 455 157 541T483 643L639 656V681Q639 754 617 795T546 853T412 871Q348 871 275 861T136
829V1069Q208 1090 297 1101T469 1112Q634 1112 736 1069ZM528 202T567 218T639 268V479L516 468Q355 455 355 328Q355 267 389 235T486 202Q528 202 567 218Z" />
<glyph unicode="b" glyph-name="b" horiz-adv-x="1138" d="M397 -20T295 -5T108 40V1616H414V984H429Q469 1045 534 1078T684 1112Q794 1112 882 1054T1023 874T1076 566Q1076 276 934 128T497 -20Q397 -20 295 -5ZM603 215T656 246T737 348T765 540Q765 662 741
731T671 828T560 856Q519 856 480 841T414 798V228Q461 215 519 215Q603 215 656 246Z" />
<glyph unicode="c" glyph-name="c" horiz-adv-x="879" d="M328 -21T195 118T62 545Q62 836 206 974T621 1112Q741 1112 839 1089V842Q752 859 672 859Q569 859 505 828T410 730T379 550Q379 433 408 363T496 263T644 232Q727 232 839 266V19Q781 0 715 -10T584
-21Q328 -21 195 118Z" />
<glyph unicode="d" glyph-name="d" horiz-adv-x="1138" d="M359 -20T266 37T118 217T62 525Q62 814 204 962T637 1111Q672 1111 724 1105V1616H1030V0H772L751 118H737Q697 53 630 17T475 -20Q359 -20 266 37ZM616 235T656 251T724 300V867Q666 877 621 877Q536
877 482 846T401 743T373 551Q373 429 397 360T464 263T572 235Q616 235 656 251Z" />
<glyph unicode="e" glyph-name="e" horiz-adv-x="1031" d="M981 455H371Q375 366 404 316T496 243T664 220Q776 220 925 256V17Q843 -3 771 -12T624 -21Q428 -21 305 38T122 223T62 550Q62 823 185 967T538 1112Q756 1112 868 967T981 541V455ZM481 912T446 887T391
802T370 638H695Q694 742 676 802T624 887T536 912Q481 912 446 887Z" />
<glyph unicode="f" glyph-name="f" horiz-adv-x="746" d="M585 1389T535 1344T484 1199V1094H758V853H484V0H182V853H15V1094H182V1181Q182 1401 301 1518T651 1636Q731 1636 800 1624V1381Q751 1389 697 1389Q585 1389 535 1344Z" />
<glyph unicode="g" glyph-name="g" horiz-adv-x="1138" d="M386 -460T299 -450T138 -419V-177Q294 -220 441 -220Q588 -220 656 -160T724 44V117H709Q668 57 603 24T453 -10Q347 -10 259 47T116 224T62 526Q62 1111 645 1112Q743 1112 845 1097T1030 1052V98Q1030
-98 968 -221T782 -402T467 -460Q386 -460 299 -450ZM619 242T658 257T724 300V866Q666 878 617 878Q494 878 434 803T373 553Q373 434 397 366T465 270T578 242Q619 242 658 257Z" />
<glyph unicode="h" glyph-name="h" horiz-adv-x="1135" d="M108 1616H414V980H429Q531 1112 712 1112Q857 1112 946 1014T1035 705V0H729V681Q729 768 694 805T591 842Q542 842 494 821T414 760V0H108V1616Z" />
<glyph unicode="i" glyph-name="i" horiz-adv-x="523" d="M108 0V1094H415V0H108ZM166 1252T119 1295T71 1419Q71 1500 118 1543T262 1587Q357 1587 404 1543T452 1419Q452 1339 405 1296T262 1252Q166 1252 119 1295Z" />
<glyph unicode="j" glyph-name="j" horiz-adv-x="523" d="M-45 -338Q40 -218 74 -103T108 176V1094H415V190Q415 -4 356 -159T156 -471L-45 -338ZM165 1254T118 1297T70 1421Q70 1502 117 1545T261 1589Q356 1589 403 1545T451 1421Q451 1341 404 1298T261 1254Q165
1254 118 1297Z" />
<glyph unicode="k" glyph-name="k" horiz-adv-x="1094" d="M798 0L516 441H414V0H108V1616H414V683H514L771 1094H1094L771 568L1130 0H798Z" />
<glyph unicode="l" glyph-name="l" horiz-adv-x="522" d="M108 0V1616H414V0H108Z" />
<glyph unicode="m" glyph-name="m" horiz-adv-x="1686" d="M1404 1112T1494 1015T1585 703V0H1279V686Q1279 770 1245 806T1150 842Q1110 842 1069 825T997 774Q999 738 999 718V0H699V686Q699 771 667 806T575 842Q530 842 486 821T414 759V0H108V1094H362L384
979H398Q508 1112 687 1112Q772 1112 838 1078T946 971Q1006 1042 1085 1077T1250 1112Q1404 1112 1494 1015Z" />
<glyph unicode="n" glyph-name="n" horiz-adv-x="1135" d="M108 1094H362L384 980H398Q454 1045 529 1078T696 1112Q852 1112 943 1015T1035 705V0H729V684Q729 770 694 806T591 842Q541 842 493 822T414 761V0H108V1094Z" />
<glyph unicode="o" glyph-name="o" horiz-adv-x="1110" d="M318 -21T190 119T62 542Q62 830 189 971T555 1112Q792 1112 920 970T1048 545Q1048 261 920 120T555 -21Q318 -21 190 119ZM617 210T656 239T716 340T737 542Q737 674 716 748T656 851T555 881Q494 881
455 852T394 749T373 546Q373 415 394 342T454 239T555 210Q617 210 656 239Z" />
<glyph unicode="p" glyph-name="p" horiz-adv-x="1138" d="M108 1094H366L387 974H401Q441 1039 508 1075T663 1112Q778 1112 871 1055T1020 875T1076 566Q1076 277 934 129T501 -20Q466 -20 414 -14V-440H108V1094ZM602 215T656 246T737 349T765 540Q765 662
741 731T673 829T566 857Q522 857 482 841T414 792V225Q462 215 517 215Q602 215 656 246Z" />
<glyph unicode="q" glyph-name="q" horiz-adv-x="1138" d="M724 108H709Q669 47 604 14T453 -20Q343 -20 255 38T115 218T62 526Q62 817 205 964T644 1112Q743 1112 845 1097T1030 1052V-440H724V108ZM619 236T658 251T724 294V866Q666 878 617 878Q494 878 434
803T373 552Q373 430 397 361T467 264T578 236Q619 236 658 251Z" />
<glyph unicode="r" glyph-name="r" horiz-adv-x="767" d="M108 1094H359L383 946H397Q438 1030 509 1070T673 1110Q710 1110 756 1102V820Q719 828 653 828Q583 828 517 801T414 725V0H108V1094Z" />
<glyph unicode="s" glyph-name="s" horiz-adv-x="893" d="M224 -21T82 26V262Q229 215 393 215Q488 215 530 242T573 322Q573 362 552 383T481 416L321 450Q185 479 119 556T52 764Q52 869 105 947T266 1069T529 1112Q671 1112 794 1080V844Q678 876 543 876Q332
876 332 767Q332 731 353 710T424 677L584 643Q721 613 787 539T854 331Q854 223 800 144T643 22T398 -21Q224 -21 82 26Z" />
<glyph unicode="t" glyph-name="t" horiz-adv-x="788" d="M691 239T759 250V3Q718 -8 668 -14T569 -20Q375 -20 275 79T174 392V853H7V1094H174L230 1480H480V1094H753V853H480V432Q480 359 497 317T551 257T650 239Q691 239 759 250Z" />
<glyph unicode="u" glyph-name="u" horiz-adv-x="1127" d="M283 -19T192 77T101 385V1094H407V409Q407 324 441 287T539 250Q585 250 633 271T713 332V1094H1019V0H765L743 113H729Q614 -19 438 -19Q283 -19 192 77Z" />
<glyph unicode="v" glyph-name="v" horiz-adv-x="1078" d="M777 1094H1079L735 0H343L-1 1094H316L547 289L777 1094Z" />
<glyph unicode="w" glyph-name="w" horiz-adv-x="1688" d="M1384 1094H1658L1382 0H1048L847 785L641 0H307L29 1094H315L492 342L684 1094H1018L1203 356L1384 1094Z" />
<glyph unicode="x" glyph-name="x" horiz-adv-x="1054" d="M708 555L1071 0H736L525 332L311 0H-14L344 551L-7 1094H327L530 777L733 1094H1058L708 555Z" />
<glyph unicode="y" glyph-name="y" horiz-adv-x="1078" d="M777 1094H1079L596 -440H296L436 0H343L-1 1094H316L543 275L777 1094Z" />
<glyph unicode="z" glyph-name="z" horiz-adv-x="919" d="M409 241H879V0H53V191L512 853H64V1094H868V903L409 241Z" />
<glyph unicode="{" glyph-name="braceleft" horiz-adv-x="718" d="M487 788T444 722T307 629Q401 602 444 536T487 364V-81Q487 -150 523 -182T633 -214H750V-447Q674 -460 582 -460Q384 -460 283 -364T181 -82V383Q181 443 148 476T56 509H6V750H56Q115 750 148
783T181 876V1258Q181 1444 282 1540T582 1636Q674 1636 750 1623V1390H633Q559 1390 523 1358T487 1257V894Q487 788 444 722Z" />
<glyph unicode="|" glyph-name="bar" horiz-adv-x="516" d="M121 -440V1616H394V-440H121Z" />
<glyph unicode="}" glyph-name="braceright" horiz-adv-x="718" d="M712 750V509H662Q603 509 570 476T537 383V-82Q537 -268 436 -364T135 -460Q44 -460 -32 -447V-214H85Q159 -214 195 -182T231 -81V364Q231 470 274 536T412 629Q318 656 275 722T231 894V1257Q231
1326 195 1358T85 1390H-32V1623Q44 1636 135 1636Q334 1636 435 1540T537 1258V876Q537 816 570 783T662 750H712Z" />
<glyph unicode="~" glyph-name="asciitilde" horiz-adv-x="1062" d="M670 583T623 599T508 646Q450 673 413 686T337 700Q270 700 216 674T107 591V835Q152 886 208 910T339 934Q392 934 438 919T554 871Q610 844 648 831T725 817Q792 817 846 843T955 926V681Q909
630 853 607T723 583Q670 583 623 599Z" />
<glyph unicode="&#xa0;" glyph-name="uni00A0" horiz-adv-x="467" />
<glyph unicode="&#xa1;" glyph-name="exclamdown" horiz-adv-x="563" d="M340 1112T385 1088T456 1020T481 919Q481 831 427 778T281 725Q190 725 136 777T82 919Q82 1007 137 1059T281 1112Q340 1112 385 1088ZM189 611H377L445 122V-380H117V122L189 611Z" />
<glyph unicode="&#xa2;" glyph-name="cent" horiz-adv-x="882" d="M568 859T505 828T410 730T379 550Q379 433 408 363T496 263T644 232Q727 232 839 266V19Q772 -4 687 -15V-240H429V-6Q62 71 62 545Q62 1003 429 1091V1334H687V1110Q765 1106 839 1089V842Q751
859 671 859Q568 859 505 828Z" />
<glyph unicode="&#xa3;" glyph-name="sterling" horiz-adv-x="1252" d="M1202 260V0H63V260H249V632H63V868H249V1016Q249 1253 398 1376T848 1499Q932 1499 1014 1489T1164 1462V1203Q1099 1221 1022 1231T872 1241Q754 1241 685 1219T584 1150T553 1026V868H992V632H553V260H1202Z"
/>
<glyph unicode="&#xa4;" glyph-name="currency" horiz-adv-x="1199" d="M1025 470L1129 368L971 210L870 314L784 416Q702 372 599 372Q495 372 415 416L329 314L227 210L69 368L173 470L275 556Q232 637 232 740Q232 841 276 924L173 1010L69 1112L227 1270L328
1166L416 1063Q497 1106 599 1106Q702 1106 783 1063L870 1166L972 1270L1130 1112L1025 1010L923 924Q967 842 967 740Q967 639 924 556L1025 470ZM423 652T472 601T599 550Q677 550 726 601T776 740Q776 824 728 877T601 930Q522 930 473 879T423 740Q423 652
472 601Z" />
<glyph unicode="&#xa5;" glyph-name="yen" horiz-adv-x="1218" d="M1260 1480L856 781H1069V593H766V455H1069V267H766V0H455V267H152V455H455V593H152V781H363L-47 1480H282L619 901L956 1480H1260Z" />
<glyph unicode="&#xa6;" glyph-name="brokenbar" horiz-adv-x="516" d="M121 836V1616H394V836H121ZM121 -440V340H394V-440H121Z" />
<glyph unicode="&#xa7;" glyph-name="section" horiz-adv-x="1018" d="M936 595T834 504Q897 436 897 324Q897 218 843 141T683 21T430 -21Q271 -21 129 19V241Q271 201 428 201Q531 201 575 228T619 308Q619 349 598 370T527 403L337 445Q213 474 148 548T82
752Q82 886 184 975Q118 1044 118 1151Q118 1312 239 1404T602 1497Q738 1497 857 1472V1250Q746 1275 624 1275Q396 1275 396 1166Q396 1130 418 1108T488 1075L680 1035Q808 1006 872 934T936 730Q936 595 834 504ZM631 604Q662 632 674 658T687 715Q687 762
662 790T575 833L386 875Q378 877 375 877Q352 850 342 823T331 765Q331 717 356 688T442 645L631 604Z" />
<glyph unicode="&#xa8;" glyph-name="dieresis" horiz-adv-x="1137" d="M256 1258T212 1301T167 1419Q167 1495 211 1538T334 1581Q412 1581 457 1538T502 1419Q502 1344 457 1301T334 1258Q256 1258 212 1301ZM725 1258T680 1301T635 1419Q635 1495 680 1538T803
1581Q881 1581 926 1538T971 1419Q971 1344 926 1301T803 1258Q725 1258 680 1301Z" />
<glyph unicode="&#xa9;" glyph-name="copyright" horiz-adv-x="1647" d="M600 -22T431 73T168 340T75 740Q75 967 168 1139T430 1407T823 1502Q1046 1502 1216 1407T1479 1140T1572 740Q1572 513 1479 341T1216 73T823 -22Q600 -22 431 73ZM1000 149T1128 221T1325
426T1393 740Q1393 920 1325 1053T1129 1259T823 1331Q646 1331 518 1259T322 1054T254 740Q254 560 322 427T518 221T823 149Q1000 149 1128 221ZM753 324T657 372T508 512T455 733Q455 862 508 954T662 1095T899 1144Q1004 1144 1091 1120V922Q1041 932 1002
937T920 942Q690 942 690 734Q690 632 746 579T905 526Q947 526 989 532T1091 555V357Q1005 324 883 324Q753 324 657 372Z" />
<glyph unicode="&#xaa;" glyph-name="ordfeminine" horiz-adv-x="868" d="M529 1499T617 1463T749 1347T792 1130V610H560L539 700H525Q492 645 434 619T304 593Q222 593 161 625T66 716T32 849Q32 982 117 1050T393 1129L512 1138V1158Q512 1203 495 1229T438
1268T328 1281Q219 1281 101 1248V1463Q164 1481 239 1490T386 1499Q529 1499 617 1463ZM439 791T465 800T512 830V990L431 985Q368 980 338 956T308 888Q308 839 335 815T412 791Q439 791 465 800Z" />
<glyph unicode="&#xab;" glyph-name="guillemotleft" horiz-adv-x="1138" d="M305 133L80 567L305 1002H611L386 567L611 133H305ZM793 133L568 567L793 1002H1099L874 567L1099 133H793Z" />
<glyph unicode="&#xac;" glyph-name="logicalnot" horiz-adv-x="1287" d="M937 193V641H107V879H1186V193H937Z" />
<glyph unicode="&#xad;" glyph-name="uni00AD" horiz-adv-x="817" d="M107 442V692H710V442H107Z" />
<glyph unicode="&#xae;" glyph-name="registered" horiz-adv-x="1416" d="M887 1498T1025 1420T1241 1202T1318 882Q1318 702 1241 563T1026 346T708 268Q529 268 391 345T175 562T98 882Q98 1062 175 1202T390 1420T708 1498Q887 1498 1025 1420ZM849 399T955
458T1120 627T1178 882Q1178 1028 1120 1138T956 1307T708 1367Q567 1367 461 1308T296 1138T238 882Q238 737 296 628T460 459T708 399Q849 399 955 458ZM957 859T838 817L986 600H834L699 797H698H632L628 600H490V1192H698Q957 1192 957 994Q957 859 838 817ZM632
910H720Q771 910 796 930T822 994Q822 1037 796 1058T720 1080H632V910Z" />
<glyph unicode="&#xaf;" glyph-name="overscore" horiz-adv-x="1137" d="M227 1323V1517H910V1323H227Z" />
<glyph unicode="&#xb0;" glyph-name="degree" horiz-adv-x="942" d="M364 763T279 810T146 942T98 1132Q98 1237 146 1320T279 1451T471 1499Q577 1499 662 1452T795 1321T844 1132Q844 1026 796 942T662 811T471 763Q364 763 279 810ZM522 946T562 968T625 1033T648
1132Q648 1188 625 1230T562 1294T471 1316Q420 1316 380 1294T316 1230T293 1132Q293 1076 316 1034T379 969T471 946Q522 946 562 968Z" />
<glyph unicode="&#xb1;" glyph-name="plusminus" horiz-adv-x="1062" d="M407 369V674H107V912H407V1216H655V912H955V674H655V369H407ZM107 1V240H955V1H107Z" />
<glyph unicode="&#xb2;" glyph-name="uni00B2" horiz-adv-x="818" d="M740 67V-136H85V-5L340 322Q401 401 428 456T455 559Q455 622 414 652T278 682Q226 682 172 673T72 646V842Q119 858 185 867T316 877Q502 877 599 806T696 582Q696 505 664 429T557 258L407 67H740Z" />
<glyph unicode="&#xb3;" glyph-name="uni00B3" horiz-adv-x="818" d="M636 361T686 300T736 142Q736 2 629 -73T321 -149Q190 -149 71 -117V67Q127 51 191 42T312 33Q413 33 459 64T505 159Q505 220 462 250T322 281H168V468H300Q473 468 473 584Q473 639 431
667T301 695Q247 695 189 686T85 658V842Q132 858 200 867T333 877Q516 877 610 808T705 610Q705 524 661 464T539 381Q636 361 686 300Z" />
<glyph unicode="&#xb4;" glyph-name="acute" horiz-adv-x="1137" d="M433 1232L645 1616H960L705 1232H433Z" />
<glyph unicode="&#xb5;" glyph-name="uni00B5" horiz-adv-x="1127" d="M1019 1094V0H765L743 113H729Q641 -19 510 -19Q453 -19 407 6V-440H101V1094H407V409Q407 324 441 287T539 250Q585 250 633 271T713 332V1094H1019Z" />
<glyph unicode="&#xb6;" glyph-name="paragraph" horiz-adv-x="1243" d="M566 431Q519 428 477 428Q273 428 169 564T65 963Q65 1149 113 1267T263 1441T524 1498Q662 1498 783 1480V0H566V431ZM904 0V1480H1122V0H904Z" />
<glyph unicode="&#xb7;" glyph-name="middot" horiz-adv-x="523" d="M172 366T117 418T62 559Q62 649 116 701T261 753Q352 753 406 700T461 559Q461 502 436 458T366 390T261 366Q172 366 117 418Z" />
<glyph unicode="&#xb8;" glyph-name="cedilla" horiz-adv-x="1137" d="M730 -103T771 -147T812 -261Q812 -347 750 -395T562 -443Q467 -443 390 -413V-289Q428 -305 469 -312T547 -320Q598 -320 622 -304T646 -249Q646 -175 544 -175H503V20H654V-89Q730 -103 771 -147Z" />
<glyph unicode="&#xb9;" glyph-name="uni00B9" horiz-adv-x="818" d="M567 67H751V-136H130V67H324V592L137 472V689L414 868H567V67Z" />
<glyph unicode="&#xba;" glyph-name="ordmasculine" horiz-adv-x="929" d="M262 593T152 708T41 1045Q41 1267 151 1383T465 1499Q667 1499 777 1382T888 1045Q888 827 778 710T465 593Q262 593 152 708ZM509 801T539 822T586 896T603 1045Q603 1141 586 1195T539
1271T465 1292Q397 1292 362 1239T326 1045Q326 906 361 854T465 801Q509 801 539 822Z" />
<glyph unicode="&#xbb;" glyph-name="guillemotright" horiz-adv-x="1138" d="M40 133L265 567L40 1002H346L571 567L346 133H40ZM528 133L753 567L528 1002H834L1059 567L834 133H528Z" />
<glyph unicode="&#xbc;" glyph-name="onequarter" horiz-adv-x="1967" d="M567 819H751V616H130V819H324V1344L137 1224V1441L414 1620H567V819ZM475 -136L1239 1616H1493L728 -136H475ZM1943 248V64H1827V-136H1615V64H1175V197L1480 864H1708L1430 248H1615L1665
526H1827V248H1943Z" />
<glyph unicode="&#xbd;" glyph-name="onehalf" horiz-adv-x="1967" d="M567 819H751V616H130V819H324V1344L137 1224V1441L414 1620H567V819ZM475 -136L1239 1616H1493L728 -136H475ZM1889 67V-136H1234V-5L1489 322Q1550 401 1577 456T1604 559Q1604 622 1563
652T1427 682Q1375 682 1321 673T1221 646V842Q1268 858 1334 867T1465 877Q1651 877 1748 806T1845 582Q1845 505 1813 429T1706 258L1556 67H1889Z" />
<glyph unicode="&#xbe;" glyph-name="threequarters" horiz-adv-x="1967" d="M636 1113T686 1052T736 894Q736 754 629 679T321 603Q190 603 71 635V819Q127 803 191 794T312 785Q413 785 459 816T505 911Q505 972 462 1002T322 1033H168V1220H300Q473 1220 473
1336Q473 1391 431 1419T301 1447Q247 1447 189 1438T85 1410V1594Q132 1610 200 1619T333 1629Q516 1629 610 1560T705 1362Q705 1276 661 1216T539 1133Q636 1113 686 1052ZM475 -136L1239 1616H1493L728 -136H475ZM1943 248V64H1827V-136H1615V64H1175V197L1480
864H1708L1430 248H1615L1665 526H1827V248H1943Z" />
<glyph unicode="&#xbf;" glyph-name="questiondown" horiz-adv-x="927" d="M609 1112T664 1061T719 925Q719 839 665 788T520 737Q429 737 375 789T320 925Q320 980 345 1022T415 1088T520 1112Q609 1112 664 1061ZM666 264Q541 235 470 201T370 123T341 21Q341
-68 403 -112T596 -156Q674 -156 754 -143T903 -104V-348Q836 -372 741 -386T557 -400Q305 -400 174 -299T43 -10Q43 144 133 247T402 408L426 628H614L666 264Z" />
<glyph unicode="&#xc0;" glyph-name="Agrave" horiz-adv-x="1349" d="M1034 0L922 395H422L311 0H7L445 1480H904L1341 0H1034ZM495 653H849L672 1282L495 653ZM536 1594L321 1898H641L811 1594H536Z" />
<glyph unicode="&#xc1;" glyph-name="Aacute" horiz-adv-x="1349" d="M1034 0L922 395H422L311 0H7L445 1480H904L1341 0H1034ZM495 653H849L672 1282L495 653ZM536 1594L705 1898H1026L810 1594H536Z" />
<glyph unicode="&#xc2;" glyph-name="Acircumflex" horiz-adv-x="1349" d="M1034 0L922 395H422L311 0H7L445 1480H904L1341 0H1034ZM495 653H849L672 1282L495 653ZM1026 1594H806L674 1785L541 1594H321L543 1898H804L1026 1594Z" />
<glyph unicode="&#xc3;" glyph-name="Atilde" horiz-adv-x="1349" d="M1034 0L922 395H422L311 0H7L445 1480H904L1341 0H1034ZM495 653H849L672 1282L495 653ZM792 1617T751 1628T656 1659Q603 1678 571 1686T504 1695Q446 1695 402 1678T312 1622V1809Q350 1846
397 1864T508 1882Q555 1882 595 1871T691 1839Q742 1820 775 1811T843 1802Q901 1802 945 1819T1035 1875V1689Q997 1651 951 1634T839 1617Q792 1617 751 1628Z" />
<glyph unicode="&#xc4;" glyph-name="Adieresis" horiz-adv-x="1349" d="M1034 0L922 395H422L311 0H7L445 1480H904L1341 0H1034ZM495 653H849L672 1282L495 653ZM346 1604T302 1642T258 1751Q258 1821 302 1859T428 1898Q509 1898 553 1860T597 1751Q597 1681
553 1643T428 1604Q346 1604 302 1642ZM838 1604T794 1642T750 1751Q750 1821 794 1859T920 1898Q1001 1898 1045 1860T1089 1751Q1089 1681 1045 1643T920 1604Q838 1604 794 1642Z" />
<glyph unicode="&#xc5;" glyph-name="Aring" horiz-adv-x="1349" d="M1034 0L922 395H422L311 0H7L445 1480H904L1341 0H1034ZM495 653H849L672 1282L495 653ZM614 1531T565 1558T488 1632T460 1740Q460 1800 488 1848T565 1923T676 1950Q737 1950 786 1923T863
1848T891 1740Q891 1680 863 1633T786 1558T676 1531Q614 1531 565 1558ZM717 1644T742 1670T768 1740Q768 1784 743 1810T676 1836Q634 1836 609 1810T583 1740Q583 1696 608 1670T676 1644Q717 1644 742 1670Z" />
<glyph unicode="&#xc6;" glyph-name="AE" horiz-adv-x="1878" d="M1207 260H1814V0H923L895 393H427L314 0H7L448 1480H1804V1220H1132L1158 887H1703V627H1178L1207 260ZM503 654H876L836 1220H666L503 654Z" />
<glyph unicode="&#xc7;" glyph-name="Ccedilla" horiz-adv-x="1144" d="M687 1238T592 1189T449 1031T401 741Q401 555 448 446T589 289T828 242Q953 242 1106 291V30Q1041 7 958 -6T790 -19H765V-87Q852 -99 898 -143T944 -260Q944 -347 878 -395T675 -443Q569
-443 482 -413V-289Q525 -305 571 -312T660 -320Q720 -320 749 -304T778 -249Q778 -175 657 -175H614V-6Q350 35 213 215T75 737Q75 1120 265 1309T809 1499Q969 1499 1106 1465V1204Q970 1238 834 1238Q687 1238 592 1189Z" />
<glyph unicode="&#xc8;" glyph-name="Egrave" horiz-adv-x="1165" d="M428 260H1101V0H121V1480H1091V1220H428V887H990V627H428V260ZM490 1594L275 1898H595L765 1594H490Z" />
<glyph unicode="&#xc9;" glyph-name="Eacute" horiz-adv-x="1165" d="M428 260H1101V0H121V1480H1091V1220H428V887H990V627H428V260ZM490 1594L659 1898H980L764 1594H490Z" />
<glyph unicode="&#xca;" glyph-name="Ecircumflex" horiz-adv-x="1165" d="M428 260H1101V0H121V1480H1091V1220H428V887H990V627H428V260ZM980 1594H760L628 1785L495 1594H275L497 1898H758L980 1594Z" />
<glyph unicode="&#xcb;" glyph-name="Edieresis" horiz-adv-x="1165" d="M428 260H1101V0H121V1480H1091V1220H428V887H990V627H428V260ZM300 1604T256 1642T212 1751Q212 1821 256 1859T382 1898Q463 1898 507 1860T551 1751Q551 1681 507 1643T382 1604Q300
1604 256 1642ZM792 1604T748 1642T704 1751Q704 1821 748 1859T874 1898Q955 1898 999 1860T1043 1751Q1043 1681 999 1643T874 1604Q792 1604 748 1642Z" />
<glyph unicode="&#xcc;" glyph-name="Igrave" horiz-adv-x="553" d="M121 0V1480H432V0H121ZM139 1594L-76 1898H244L414 1594H139Z" />
<glyph unicode="&#xcd;" glyph-name="Iacute" horiz-adv-x="553" d="M121 0V1480H432V0H121ZM139 1594L308 1898H629L413 1594H139Z" />
<glyph unicode="&#xce;" glyph-name="Icircumflex" horiz-adv-x="553" d="M121 0V1480H432V0H121ZM629 1594H409L277 1785L144 1594H-76L146 1898H407L629 1594Z" />
<glyph unicode="&#xcf;" glyph-name="Idieresis" horiz-adv-x="553" d="M121 0V1480H432V0H121ZM-51 1604T-95 1642T-139 1751Q-139 1821 -95 1859T31 1898Q112 1898 156 1860T200 1751Q200 1681 156 1643T31 1604Q-51 1604 -95 1642ZM441 1604T397 1642T353 1751Q353
1821 397 1859T523 1898Q604 1898 648 1860T692 1751Q692 1681 648 1643T523 1604Q441 1604 397 1642Z" />
<glyph unicode="&#xd0;" glyph-name="Eth" horiz-adv-x="1388" d="M933 1498T1122 1313T1312 740Q1312 478 1223 311T954 64T499 -16Q307 -16 121 6V659H2V865H121V1451Q341 1498 551 1498Q933 1498 1122 1313ZM719 242T809 290T946 449T992 741Q992 922 946 1032T809
1191T581 1241Q504 1241 432 1227V865H684V659H432V248Q496 242 580 242Q719 242 809 290Z" />
<glyph unicode="&#xd1;" glyph-name="Ntilde" horiz-adv-x="1440" d="M1028 1480H1319V0H1007L413 981V0H121V1480H433L1028 497V1480ZM838 1617T797 1628T702 1659Q649 1678 617 1686T550 1695Q492 1695 448 1678T358 1622V1809Q396 1846 443 1864T554 1882Q601
1882 641 1871T737 1839Q788 1820 821 1811T889 1802Q947 1802 991 1819T1081 1875V1689Q1043 1651 997 1634T885 1617Q838 1617 797 1628Z" />
<glyph unicode="&#xd2;" glyph-name="Ograve" horiz-adv-x="1444" d="M524 -19T379 61T155 311T75 740Q75 999 155 1168T379 1418T722 1499Q920 1499 1064 1418T1288 1168T1368 740Q1368 482 1288 313T1064 62T722 -19Q524 -19 379 61ZM881 237T964 353T1048 733Q1048
1006 965 1124T722 1243Q562 1243 479 1127T395 747Q395 474 478 356T722 237Q881 237 964 353ZM584 1594L369 1898H689L859 1594H584Z" />
<glyph unicode="&#xd3;" glyph-name="Oacute" horiz-adv-x="1444" d="M524 -19T379 61T155 311T75 740Q75 999 155 1168T379 1418T722 1499Q920 1499 1064 1418T1288 1168T1368 740Q1368 482 1288 313T1064 62T722 -19Q524 -19 379 61ZM881 237T964 353T1048 733Q1048
1006 965 1124T722 1243Q562 1243 479 1127T395 747Q395 474 478 356T722 237Q881 237 964 353ZM584 1594L753 1898H1074L858 1594H584Z" />
<glyph unicode="&#xd4;" glyph-name="Ocircumflex" horiz-adv-x="1444" d="M524 -19T379 61T155 311T75 740Q75 999 155 1168T379 1418T722 1499Q920 1499 1064 1418T1288 1168T1368 740Q1368 482 1288 313T1064 62T722 -19Q524 -19 379 61ZM881 237T964 353T1048
733Q1048 1006 965 1124T722 1243Q562 1243 479 1127T395 747Q395 474 478 356T722 237Q881 237 964 353ZM1074 1594H854L722 1785L589 1594H369L591 1898H852L1074 1594Z" />
<glyph unicode="&#xd5;" glyph-name="Otilde" horiz-adv-x="1444" d="M524 -19T379 61T155 311T75 740Q75 999 155 1168T379 1418T722 1499Q920 1499 1064 1418T1288 1168T1368 740Q1368 482 1288 313T1064 62T722 -19Q524 -19 379 61ZM881 237T964 353T1048 733Q1048
1006 965 1124T722 1243Q562 1243 479 1127T395 747Q395 474 478 356T722 237Q881 237 964 353ZM840 1617T799 1628T704 1659Q651 1678 619 1686T552 1695Q494 1695 450 1678T360 1622V1809Q398 1846 445 1864T556 1882Q603 1882 643 1871T739 1839Q790 1820 823
1811T891 1802Q949 1802 993 1819T1083 1875V1689Q1045 1651 999 1634T887 1617Q840 1617 799 1628Z" />
<glyph unicode="&#xd6;" glyph-name="Odieresis" horiz-adv-x="1444" d="M524 -19T379 61T155 311T75 740Q75 999 155 1168T379 1418T722 1499Q920 1499 1064 1418T1288 1168T1368 740Q1368 482 1288 313T1064 62T722 -19Q524 -19 379 61ZM881 237T964 353T1048
733Q1048 1006 965 1124T722 1243Q562 1243 479 1127T395 747Q395 474 478 356T722 237Q881 237 964 353ZM394 1604T350 1642T306 1751Q306 1821 350 1859T476 1898Q557 1898 601 1860T645 1751Q645 1681 601 1643T476 1604Q394 1604 350 1642ZM886 1604T842 1642T798
1751Q798 1821 842 1859T968 1898Q1049 1898 1093 1860T1137 1751Q1137 1681 1093 1643T968 1604Q886 1604 842 1642Z" />
<glyph unicode="&#xd7;" glyph-name="multiply" horiz-adv-x="1013" d="M250 335L82 503L338 760L82 1017L250 1185L507 928L763 1185L932 1017L675 760L932 503L763 335L507 592L250 335Z" />
<glyph unicode="&#xd8;" glyph-name="Oslash" horiz-adv-x="1444" d="M1368 1095T1368 740Q1368 482 1288 313T1064 62T722 -19Q503 -19 354 77L264 -49L128 48L229 190Q75 383 75 740Q75 999 155 1168T379 1418T722 1499Q941 1499 1091 1402L1181 1529L1317 1432L1215
1289Q1368 1095 1368 740ZM395 579T427 469L926 1171Q850 1243 722 1243Q562 1243 479 1127T395 747Q395 579 427 469ZM881 237T964 353T1048 733Q1048 899 1016 1009L518 308Q593 237 722 237Q881 237 964 353Z" />
<glyph unicode="&#xd9;" glyph-name="Ugrave" horiz-adv-x="1394" d="M500 -19T371 45T179 245T115 593V1480H426V559Q426 391 493 316T701 241Q840 241 907 316T975 559V1480H1280V593Q1280 380 1218 245T1028 46T701 -19Q500 -19 371 45ZM563 1594L348 1898H668L838
1594H563Z" />
<glyph unicode="&#xda;" glyph-name="Uacute" horiz-adv-x="1394" d="M500 -19T371 45T179 245T115 593V1480H426V559Q426 391 493 316T701 241Q840 241 907 316T975 559V1480H1280V593Q1280 380 1218 245T1028 46T701 -19Q500 -19 371 45ZM563 1594L732 1898H1053L837
1594H563Z" />
<glyph unicode="&#xdb;" glyph-name="Ucircumflex" horiz-adv-x="1394" d="M500 -19T371 45T179 245T115 593V1480H426V559Q426 391 493 316T701 241Q840 241 907 316T975 559V1480H1280V593Q1280 380 1218 245T1028 46T701 -19Q500 -19 371 45ZM1053 1594H833L701
1785L568 1594H348L570 1898H831L1053 1594Z" />
<glyph unicode="&#xdc;" glyph-name="Udieresis" horiz-adv-x="1394" d="M500 -19T371 45T179 245T115 593V1480H426V559Q426 391 493 316T701 241Q840 241 907 316T975 559V1480H1280V593Q1280 380 1218 245T1028 46T701 -19Q500 -19 371 45ZM373 1604T329 1642T285
1751Q285 1821 329 1859T455 1898Q536 1898 580 1860T624 1751Q624 1681 580 1643T455 1604Q373 1604 329 1642ZM865 1604T821 1642T777 1751Q777 1821 821 1859T947 1898Q1028 1898 1072 1860T1116 1751Q1116 1681 1072 1643T947 1604Q865 1604 821 1642Z" />
<glyph unicode="&#xdd;" glyph-name="Yacute" horiz-adv-x="1204" d="M1251 1480L759 626V0H448V624L-56 1480H273L611 901L948 1480H1251ZM466 1594L635 1898H956L740 1594H466Z" />
<glyph unicode="&#xde;" glyph-name="Thorn" horiz-adv-x="1253" d="M121 1480H432V1288Q440 1289 476 1292T549 1296Q865 1296 1021 1166T1178 760Q1178 496 1024 361T568 226Q526 226 432 230V0H121V1480ZM728 471T801 538T875 757Q875 910 802 980T574 1050Q497
1050 432 1038V479Q502 471 569 471Q728 471 801 538Z" />
<glyph unicode="&#xdf;" glyph-name="germandbls" horiz-adv-x="1450" d="M1277 613T1343 539T1410 331Q1410 222 1355 143T1195 22T941 -21Q781 -21 639 19V255Q708 236 785 226T938 215Q1041 215 1085 242T1129 322Q1129 362 1108 383T1037 416L877 450Q741
479 675 556T608 764Q608 922 724 1011T1067 1103Q1068 1115 1068 1138Q1068 1285 996 1351T797 1417Q640 1417 564 1330T488 1056V0H182V851H15V1094H183Q190 1264 262 1386T466 1572T777 1636Q1012 1636 1150 1512T1288 1127Q1288 1008 1252 866Q1193 876 1111
876Q889 876 889 767Q889 731 910 710T980 677L1140 643Q1277 613 1343 539Z" />
<glyph unicode="&#xe0;" glyph-name="agrave" horiz-adv-x="1038" d="M634 1112T736 1069T887 929T937 665V0H687L665 114H651Q609 46 540 13T382 -20Q283 -20 209 19T95 129T55 296Q55 455 157 541T483 643L639 656V681Q639 754 617 795T546 853T412 871Q348
871 275 861T136 829V1069Q208 1090 297 1101T469 1112Q634 1112 736 1069ZM528 202T567 218T639 268V479L516 468Q355 455 355 328Q355 267 389 235T486 202Q528 202 567 218ZM380 1232L124 1616H439L652 1232H380Z" />
<glyph unicode="&#xe1;" glyph-name="aacute" horiz-adv-x="1038" d="M634 1112T736 1069T887 929T937 665V0H687L665 114H651Q609 46 540 13T382 -20Q283 -20 209 19T95 129T55 296Q55 455 157 541T483 643L639 656V681Q639 754 617 795T546 853T412 871Q348
871 275 861T136 829V1069Q208 1090 297 1101T469 1112Q634 1112 736 1069ZM528 202T567 218T639 268V479L516 468Q355 455 355 328Q355 267 389 235T486 202Q528 202 567 218ZM380 1232L592 1616H907L652 1232H380Z" />
<glyph unicode="&#xe2;" glyph-name="acircumflex" horiz-adv-x="1038" d="M634 1112T736 1069T887 929T937 665V0H687L665 114H651Q609 46 540 13T382 -20Q283 -20 209 19T95 129T55 296Q55 455 157 541T483 643L639 656V681Q639 754 617 795T546 853T412 871Q348
871 275 861T136 829V1069Q208 1090 297 1101T469 1112Q634 1112 736 1069ZM528 202T567 218T639 268V479L516 468Q355 455 355 328Q355 267 389 235T486 202Q528 202 567 218ZM854 1232H641L516 1475L390 1232H177L387 1616H645L854 1232Z" />
<glyph unicode="&#xe3;" glyph-name="atilde" horiz-adv-x="1038" d="M634 1112T736 1069T887 929T937 665V0H687L665 114H651Q609 46 540 13T382 -20Q283 -20 209 19T95 129T55 296Q55 455 157 541T483 643L639 656V681Q639 754 617 795T546 853T412 871Q348
871 275 861T136 829V1069Q208 1090 297 1101T469 1112Q634 1112 736 1069ZM528 202T567 218T639 268V479L516 468Q355 455 355 328Q355 267 389 235T486 202Q528 202 567 218ZM626 1285T588 1297T498 1334Q450 1356 420 1366T358 1377Q305 1377 262 1357T174 1292V1492Q212
1531 257 1549T362 1568Q405 1568 443 1556T533 1519Q584 1497 613 1487T673 1477Q727 1477 770 1497T857 1562V1362Q819 1322 774 1304T669 1285Q626 1285 588 1297Z" />
<glyph unicode="&#xe4;" glyph-name="adieresis" horiz-adv-x="1038" d="M634 1112T736 1069T887 929T937 665V0H687L665 114H651Q609 46 540 13T382 -20Q283 -20 209 19T95 129T55 296Q55 455 157 541T483 643L639 656V681Q639 754 617 795T546 853T412 871Q348
871 275 861T136 829V1069Q208 1090 297 1101T469 1112Q634 1112 736 1069ZM528 202T567 218T639 268V479L516 468Q355 455 355 328Q355 267 389 235T486 202Q528 202 567 218ZM203 1258T159 1301T114 1419Q114 1495 158 1538T281 1581Q359 1581 404 1538T449 1419Q449
1344 404 1301T281 1258Q203 1258 159 1301ZM672 1258T627 1301T582 1419Q582 1495 627 1538T750 1581Q828 1581 873 1538T918 1419Q918 1344 873 1301T750 1258Q672 1258 627 1301Z" />
<glyph unicode="&#xe5;" glyph-name="aring" horiz-adv-x="1038" d="M634 1112T736 1069T887 929T937 665V0H687L665 114H651Q609 46 540 13T382 -20Q283 -20 209 19T95 129T55 296Q55 455 157 541T483 643L639 656V681Q639 754 617 795T546 853T412 871Q348 871
275 861T136 829V1069Q208 1090 297 1101T469 1112Q634 1112 736 1069ZM528 202T567 218T639 268V479L516 468Q355 455 355 328Q355 267 389 235T486 202Q528 202 567 218ZM454 1227T405 1254T328 1329T300 1437Q300 1497 328 1545T405 1620T516 1647Q577 1647
626 1620T703 1545T731 1437Q731 1377 703 1329T626 1254T516 1227Q454 1227 405 1254ZM557 1341T582 1367T608 1437Q608 1481 583 1507T516 1533Q474 1533 449 1507T423 1437Q423 1393 448 1367T516 1341Q557 1341 582 1367Z" />
<glyph unicode="&#xe6;" glyph-name="ae" horiz-adv-x="1590" d="M1540 455H938Q942 367 971 316T1061 243T1224 220Q1337 220 1484 256V17Q1326 -21 1187 -21Q1031 -21 924 18T751 139Q682 53 598 17T411 -20Q299 -20 219 18T97 128T55 299Q55 457 162 547T493
638H644V679Q644 752 620 794T545 853T410 871Q349 871 277 861T137 829V1069Q295 1112 456 1112Q585 1112 672 1079T810 977Q919 1112 1114 1112Q1247 1112 1342 1049T1489 858T1540 542V455ZM1045 912T1011 887T957 802T937 638H1254Q1253 743 1235 802T1184
887T1098 912Q1045 912 1011 887ZM543 203T588 224T675 293Q653 366 647 463H526Q437 463 396 427T355 325Q355 266 390 235T491 203Q543 203 588 224Z" />
<glyph unicode="&#xe7;" glyph-name="ccedilla" horiz-adv-x="879" d="M569 859T505 828T410 730T379 550Q379 433 408 363T496 263T644 232Q727 232 839 266V19Q722 -19 591 -21V-89Q667 -103 708 -147T749 -261Q749 -347 687 -395T499 -443Q404 -443 327 -413V-289Q365
-305 406 -312T484 -320Q535 -320 559 -304T583 -249Q583 -175 481 -175H440V-8Q254 27 158 164T62 545Q62 836 206 974T621 1112Q741 1112 839 1089V842Q752 859 672 859Q569 859 505 828Z" />
<glyph unicode="&#xe8;" glyph-name="egrave" horiz-adv-x="1031" d="M981 455H371Q375 366 404 316T496 243T664 220Q776 220 925 256V17Q843 -3 771 -12T624 -21Q428 -21 305 38T122 223T62 550Q62 823 185 967T538 1112Q756 1112 868 967T981 541V455ZM481
912T446 887T391 802T370 638H695Q694 742 676 802T624 887T536 912Q481 912 446 887ZM395 1232L139 1616H454L667 1232H395Z" />
<glyph unicode="&#xe9;" glyph-name="eacute" horiz-adv-x="1031" d="M981 455H371Q375 366 404 316T496 243T664 220Q776 220 925 256V17Q843 -3 771 -12T624 -21Q428 -21 305 38T122 223T62 550Q62 823 185 967T538 1112Q756 1112 868 967T981 541V455ZM481
912T446 887T391 802T370 638H695Q694 742 676 802T624 887T536 912Q481 912 446 887ZM395 1232L607 1616H922L667 1232H395Z" />
<glyph unicode="&#xea;" glyph-name="ecircumflex" horiz-adv-x="1031" d="M981 455H371Q375 366 404 316T496 243T664 220Q776 220 925 256V17Q843 -3 771 -12T624 -21Q428 -21 305 38T122 223T62 550Q62 823 185 967T538 1112Q756 1112 868 967T981 541V455ZM481
912T446 887T391 802T370 638H695Q694 742 676 802T624 887T536 912Q481 912 446 887ZM869 1232H656L531 1475L405 1232H192L402 1616H660L869 1232Z" />
<glyph unicode="&#xeb;" glyph-name="edieresis" horiz-adv-x="1031" d="M981 455H371Q375 366 404 316T496 243T664 220Q776 220 925 256V17Q843 -3 771 -12T624 -21Q428 -21 305 38T122 223T62 550Q62 823 185 967T538 1112Q756 1112 868 967T981 541V455ZM481
912T446 887T391 802T370 638H695Q694 742 676 802T624 887T536 912Q481 912 446 887ZM218 1258T174 1301T129 1419Q129 1495 173 1538T296 1581Q374 1581 419 1538T464 1419Q464 1344 419 1301T296 1258Q218 1258 174 1301ZM687 1258T642 1301T597 1419Q597 1495
642 1538T765 1581Q843 1581 888 1538T933 1419Q933 1344 888 1301T765 1258Q687 1258 642 1301Z" />
<glyph unicode="&#xec;" glyph-name="igrave" horiz-adv-x="523" d="M108 0V1094H415V0H108ZM125 1232L-131 1616H184L397 1232H125Z" />
<glyph unicode="&#xed;" glyph-name="iacute" horiz-adv-x="523" d="M108 0V1094H415V0H108ZM125 1232L337 1616H652L397 1232H125Z" />
<glyph unicode="&#xee;" glyph-name="icircumflex" horiz-adv-x="523" d="M108 0V1094H415V0H108ZM599 1232H386L261 1475L135 1232H-78L132 1616H390L599 1232Z" />
<glyph unicode="&#xef;" glyph-name="idieresis" horiz-adv-x="523" d="M108 0V1094H415V0H108ZM-52 1258T-96 1301T-141 1419Q-141 1495 -97 1538T26 1581Q104 1581 149 1538T194 1419Q194 1344 149 1301T26 1258Q-52 1258 -96 1301ZM417 1258T372 1301T327 1419Q327
1495 372 1538T495 1581Q573 1581 618 1538T663 1419Q663 1344 618 1301T495 1258Q417 1258 372 1301Z" />
<glyph unicode="&#xf0;" glyph-name="eth" horiz-adv-x="1110" d="M932 1156T990 971T1048 606Q1048 281 922 129T556 -23Q319 -23 191 117T62 542Q62 827 187 966T531 1106Q600 1106 663 1079Q623 1169 558 1264L176 1189L140 1354L439 1414Q342 1521 225 1616H569Q645
1556 719 1469L985 1522L1022 1356L830 1318Q932 1156 990 971ZM617 207T656 237T716 339T737 538Q737 670 716 744T656 848T555 878Q494 878 455 849T394 746T373 542Q373 412 393 339T453 236T556 207Q617 207 656 237Z" />
<glyph unicode="&#xf1;" glyph-name="ntilde" horiz-adv-x="1135" d="M108 1094H362L384 980H398Q454 1045 529 1078T696 1112Q852 1112 943 1015T1035 705V0H729V684Q729 770 694 806T591 842Q541 842 493 822T414 761V0H108V1094ZM682 1285T644 1297T554 1334Q506
1356 476 1366T414 1377Q361 1377 318 1357T230 1292V1492Q268 1531 313 1549T418 1568Q461 1568 499 1556T589 1519Q640 1497 669 1487T729 1477Q783 1477 826 1497T913 1562V1362Q875 1322 830 1304T725 1285Q682 1285 644 1297Z" />
<glyph unicode="&#xf2;" glyph-name="ograve" horiz-adv-x="1110" d="M318 -21T190 119T62 542Q62 830 189 971T555 1112Q792 1112 920 970T1048 545Q1048 261 920 120T555 -21Q318 -21 190 119ZM617 210T656 239T716 340T737 542Q737 674 716 748T656 851T555
881Q494 881 455 852T394 749T373 546Q373 415 394 342T454 239T555 210Q617 210 656 239ZM419 1232L163 1616H478L691 1232H419Z" />
<glyph unicode="&#xf3;" glyph-name="oacute" horiz-adv-x="1110" d="M318 -21T190 119T62 542Q62 830 189 971T555 1112Q792 1112 920 970T1048 545Q1048 261 920 120T555 -21Q318 -21 190 119ZM617 210T656 239T716 340T737 542Q737 674 716 748T656 851T555
881Q494 881 455 852T394 749T373 546Q373 415 394 342T454 239T555 210Q617 210 656 239ZM419 1232L631 1616H946L691 1232H419Z" />
<glyph unicode="&#xf4;" glyph-name="ocircumflex" horiz-adv-x="1110" d="M318 -21T190 119T62 542Q62 830 189 971T555 1112Q792 1112 920 970T1048 545Q1048 261 920 120T555 -21Q318 -21 190 119ZM617 210T656 239T716 340T737 542Q737 674 716 748T656 851T555
881Q494 881 455 852T394 749T373 546Q373 415 394 342T454 239T555 210Q617 210 656 239ZM893 1232H680L555 1475L429 1232H216L426 1616H684L893 1232Z" />
<glyph unicode="&#xf5;" glyph-name="otilde" horiz-adv-x="1110" d="M318 -21T190 119T62 542Q62 830 189 971T555 1112Q792 1112 920 970T1048 545Q1048 261 920 120T555 -21Q318 -21 190 119ZM617 210T656 239T716 340T737 542Q737 674 716 748T656 851T555
881Q494 881 455 852T394 749T373 546Q373 415 394 342T454 239T555 210Q617 210 656 239ZM665 1285T627 1297T537 1334Q489 1356 459 1366T397 1377Q344 1377 301 1357T213 1292V1492Q251 1531 296 1549T401 1568Q444 1568 482 1556T572 1519Q623 1497 652 1487T712
1477Q766 1477 809 1497T896 1562V1362Q858 1322 813 1304T708 1285Q665 1285 627 1297Z" />
<glyph unicode="&#xf6;" glyph-name="odieresis" horiz-adv-x="1110" d="M318 -21T190 119T62 542Q62 830 189 971T555 1112Q792 1112 920 970T1048 545Q1048 261 920 120T555 -21Q318 -21 190 119ZM617 210T656 239T716 340T737 542Q737 674 716 748T656 851T555
881Q494 881 455 852T394 749T373 546Q373 415 394 342T454 239T555 210Q617 210 656 239ZM242 1258T198 1301T153 1419Q153 1495 197 1538T320 1581Q398 1581 443 1538T488 1419Q488 1344 443 1301T320 1258Q242 1258 198 1301ZM711 1258T666 1301T621 1419Q621
1495 666 1538T789 1581Q867 1581 912 1538T957 1419Q957 1344 912 1301T789 1258Q711 1258 666 1301Z" />
<glyph unicode="&#xf7;" glyph-name="divide" horiz-adv-x="1062" d="M450 977T401 1023T352 1150Q352 1230 400 1276T531 1323Q613 1323 661 1276T710 1150Q710 1072 661 1025T531 977Q450 977 401 1023ZM107 641V879H955V641H107ZM451 197T402 244T352 370Q352
450 400 496T531 543Q613 543 661 496T710 370Q710 292 661 245T531 197Q451 197 402 244Z" />
<glyph unicode="&#xf8;" glyph-name="oslash" horiz-adv-x="1110" d="M1048 811T1048 545Q1048 261 920 120T555 -21Q406 -21 299 34L239 -53L105 41L173 140Q62 282 62 542Q62 830 189 971T555 1112Q698 1112 804 1059L865 1147L999 1053L932 956Q1048 811 1048
545ZM491 887T448 857T382 752T359 546Q359 455 369 396L677 844Q633 887 555 887Q491 887 448 857ZM621 204T663 233T728 337T751 542Q751 638 739 704L427 251Q451 226 482 215T555 204Q621 204 663 233Z" />
<glyph unicode="&#xf9;" glyph-name="ugrave" horiz-adv-x="1127" d="M283 -19T192 77T101 385V1094H407V409Q407 324 441 287T539 250Q585 250 633 271T713 332V1094H1019V0H765L743 113H729Q614 -19 438 -19Q283 -19 192 77ZM424 1232L168 1616H483L696 1232H424Z" />
<glyph unicode="&#xfa;" glyph-name="uacute" horiz-adv-x="1127" d="M283 -19T192 77T101 385V1094H407V409Q407 324 441 287T539 250Q585 250 633 271T713 332V1094H1019V0H765L743 113H729Q614 -19 438 -19Q283 -19 192 77ZM424 1232L636 1616H951L696 1232H424Z" />
<glyph unicode="&#xfb;" glyph-name="ucircumflex" horiz-adv-x="1127" d="M283 -19T192 77T101 385V1094H407V409Q407 324 441 287T539 250Q585 250 633 271T713 332V1094H1019V0H765L743 113H729Q614 -19 438 -19Q283 -19 192 77ZM898 1232H685L560 1475L434
1232H221L431 1616H689L898 1232Z" />
<glyph unicode="&#xfc;" glyph-name="udieresis" horiz-adv-x="1127" d="M283 -19T192 77T101 385V1094H407V409Q407 324 441 287T539 250Q585 250 633 271T713 332V1094H1019V0H765L743 113H729Q614 -19 438 -19Q283 -19 192 77ZM247 1258T203 1301T158 1419Q158
1495 202 1538T325 1581Q403 1581 448 1538T493 1419Q493 1344 448 1301T325 1258Q247 1258 203 1301ZM716 1258T671 1301T626 1419Q626 1495 671 1538T794 1581Q872 1581 917 1538T962 1419Q962 1344 917 1301T794 1258Q716 1258 671 1301Z" />
<glyph unicode="&#xfd;" glyph-name="yacute" horiz-adv-x="1078" d="M777 1094H1079L596 -440H296L436 0H343L-1 1094H316L543 275L777 1094ZM403 1232L615 1616H930L675 1232H403Z" />
<glyph unicode="&#xfe;" glyph-name="thorn" horiz-adv-x="1138" d="M108 1616H414V984H429Q469 1045 534 1078T685 1112Q795 1112 883 1054T1023 874T1076 566Q1076 277 934 129T501 -20Q466 -20 414 -14V-440H108V1616ZM602 215T656 246T737 349T765 540Q765
662 741 731T671 828T560 856Q518 856 480 841T414 796V225Q462 215 517 215Q602 215 656 246Z" />
<glyph unicode="&#xff;" glyph-name="ydieresis" horiz-adv-x="1078" d="M777 1094H1079L596 -440H296L436 0H343L-1 1094H316L543 275L777 1094ZM226 1258T182 1301T137 1419Q137 1495 181 1538T304 1581Q382 1581 427 1538T472 1419Q472 1344 427 1301T304 1258Q226
1258 182 1301ZM695 1258T650 1301T605 1419Q605 1495 650 1538T773 1581Q851 1581 896 1538T941 1419Q941 1344 896 1301T773 1258Q695 1258 650 1301Z" />
<glyph unicode="&#x2013;" glyph-name="endash" horiz-adv-x="850" d="M0 461V673H850V461H0Z" />
<glyph unicode="&#x2014;" glyph-name="emdash" horiz-adv-x="1700" d="M0 461V673H1700V461H0Z" />
<glyph unicode="&#x2018;" glyph-name="quoteleft" horiz-adv-x="523" d="M368 1279T414 1228T461 1097Q461 1007 410 956T278 904Q62 904 62 1155Q62 1273 103 1395T214 1616H390Q347 1519 323 1441T292 1288Q368 1279 414 1228Z" />
<glyph unicode="&#x2019;" glyph-name="quoteright" horiz-adv-x="523" d="M356 1633T408 1570T460 1382Q460 1264 419 1142T308 921H132Q175 1018 199 1096T230 1249Q154 1258 108 1309T62 1440Q62 1531 115 1582T256 1633Q356 1633 408 1570Z" />
<glyph unicode="&#x201a;" glyph-name="quotesinglbase" horiz-adv-x="523" d="M356 369T408 306T460 118Q460 0 419 -122T308 -343H132Q175 -246 199 -168T230 -15Q154 -6 108 45T62 176Q62 267 115 318T256 369Q356 369 408 306Z" />
<glyph unicode="&#x201c;" glyph-name="quotedblleft" horiz-adv-x="991" d="M368 1279T414 1228T461 1097Q461 1007 410 956T278 904Q62 904 62 1155Q62 1273 103 1395T214 1616H390Q347 1519 323 1441T292 1288Q368 1279 414 1228ZM836 1279T882 1228T929 1097Q929
1007 878 956T746 904Q530 904 530 1155Q530 1273 571 1395T682 1616H858Q815 1519 791 1441T760 1288Q836 1279 882 1228Z" />
<glyph unicode="&#x201d;" glyph-name="quotedblright" horiz-adv-x="991" d="M356 1633T408 1570T460 1382Q460 1264 419 1142T308 921H132Q175 1018 199 1096T230 1249Q154 1258 108 1309T62 1440Q62 1531 115 1582T256 1633Q356 1633 408 1570ZM824 1633T876
1570T928 1382Q928 1264 887 1142T776 921H600Q643 1018 667 1096T698 1249Q622 1258 576 1309T530 1440Q530 1531 583 1582T724 1633Q824 1633 876 1570Z" />
<glyph unicode="&#x201e;" glyph-name="quotedblbase" horiz-adv-x="991" d="M356 369T408 306T460 118Q460 0 419 -122T308 -343H132Q175 -246 199 -168T230 -15Q154 -6 108 45T62 176Q62 267 115 318T256 369Q356 369 408 306ZM824 369T876 306T928 118Q928
0 887 -122T776 -343H600Q643 -246 667 -168T698 -15Q622 -6 576 45T530 176Q530 267 583 318T724 369Q824 369 876 306Z" />
<glyph unicode="&#x2022;" glyph-name="bullet" horiz-adv-x="741" d="M285 251T215 291T103 402T62 560Q62 648 103 718T214 829T371 869Q457 869 527 829T639 719T680 560Q680 473 639 402T528 291T371 251Q285 251 215 291Z" />
<glyph unicode="&#x2039;" glyph-name="guilsinglleft" horiz-adv-x="651" d="M305 133L80 567L305 1002H611L386 567L611 133H305Z" />
<glyph unicode="&#x203a;" glyph-name="guilsinglright" horiz-adv-x="651" d="M40 133L265 567L40 1002H346L571 567L346 133H40Z" />
</font>
</defs>
</svg>
