<?xml version="1.0" standalone="no"?>
<!DOCTYPE svg PUBLIC "-//W3C//DTD SVG 1.1//EN" "http://www.w3.org/Graphics/SVG/1.1/DTD/svg11.dtd">
<svg xmlns="http://www.w3.org/2000/svg">
<defs >
<font id="SairaCondensed" horiz-adv-x="454" ><font-face
    font-family="Saira Condensed Black"
    units-per-em="1000"
    panose-1="0 0 10 6 0 0 0 0 0 0"
    ascent="1135"
    descent="-439"
    alphabetic="0" />
<glyph unicode=" " glyph-name="space" horiz-adv-x="181" />
<glyph unicode="!" glyph-name="exclam" horiz-adv-x="295" d="M51 602T51 655V688H251V655Q251 602 206 233H96Q51 602 51 655ZM63 0V152H239V0H63Z" />
<glyph unicode="&quot;" glyph-name="quotedbl" horiz-adv-x="440" d="M65 420L48 644V688H199V644L183 420H65ZM257 420L241 644V688H392V644L375 420H257Z" />
<glyph unicode="#" glyph-name="numbersign" horiz-adv-x="574" d="M283 0L306 174H221L198 0H86L109 174H42V283H124L140 407H64V516H155L178 688H289L266 516H352L375 688H486L463 516H536V407H448L432 283H515V174H417L395 0H283ZM337 407H251L235 283H321L337 407Z" />
<glyph unicode="$" glyph-name="dollar" horiz-adv-x="411" d="M149 72Q95 77 44 88V211Q110 205 148 205Q181 205 194 206T214 215T220 239Q220 261 215 266T189 276L140 286Q95 294 72 313T41 365T32 455Q32 528 62 566T149 614V696H271V616Q324 611 355 602V478Q285
485 255 485Q227 485 215 483T198 474T194 455Q194 433 198 428T222 419L276 410Q311 404 332 392T366 346T379 250Q379 166 352 126T271 76V-8H149V72Z" />
<glyph unicode="%" glyph-name="percent" horiz-adv-x="773" d="M116 312T88 328T50 382T41 503Q41 586 50 625T87 680T178 696Q241 696 269 680T307 625T316 503Q316 420 307 382T270 328T178 312Q116 312 88 328ZM151 0L526 688H622L247 0H151ZM193 393T199
398T206 425T208 503Q208 561 207 582T200 608T178 614Q163 614 158 609T151 582T149 503Q149 446 150 425T157 399T178 393Q193 393 199 398ZM533 -8T505 8T467 62T458 183Q458 266 467 305T504 360T595 376Q657 376 686 360T724 305T733 183Q733 101 724 63T686
8T595 -8Q533 -8 505 8ZM610 74T615 79T622 105T624 183Q624 242 623 263T616 289T595 295Q580 295 575 290T568 263T566 183Q566 126 567 106T574 80T595 74Q610 74 615 79Z" />
<glyph unicode="&amp;" glyph-name="ampersand" horiz-adv-x="558" d="M547 414V281H474V12Q429 4 371 -2T268 -8Q177 -8 126 11T52 72T30 181Q30 263 54 299T131 349V353Q82 366 59 405T36 518Q36 585 60 623T137 679T276 696Q319 696 374 691T473 676V554Q399
561 318 561Q262 561 242 558T214 540T207 487Q207 452 210 437T224 418T257 414H267V281H257Q233 281 222 277T206 257T200 203Q200 166 206 151T229 131T289 127H306V414H547Z" />
<glyph unicode="&apos;" glyph-name="quotesingle" horiz-adv-x="248" d="M65 420L48 644V688H199V644L183 420H65Z" />
<glyph unicode="(" glyph-name="parenleft" horiz-adv-x="314" d="M112 -67T89 -21T55 97T43 297Q43 426 54 499T90 622T168 743H293Q256 680 240 640T214 521T204 297Q204 152 213 74T239 -45T293 -150H168Q112 -67 89 -21Z" />
<glyph unicode=")" glyph-name="parenright" horiz-adv-x="314" d="M59 -87T75 -47T100 73T110 297Q110 442 101 520T75 639T22 743H146Q199 671 223 622T260 500T272 297Q272 169 260 98T225 -20T146 -150H22Q59 -87 75 -47Z" />
<glyph unicode="*" glyph-name="asterisk" horiz-adv-x="413" d="M240 466L251 361H162L173 466L84 402L40 480L137 524L40 568L84 646L173 583L162 688H251L240 583L328 646L373 568L274 524L373 480L328 402L240 466Z" />
<glyph unicode="+" glyph-name="plus" horiz-adv-x="473" d="M170 72V187H56V319H170V434H303V319H417V187H303V72H170Z" />
<glyph unicode="," glyph-name="comma" horiz-adv-x="277" d="M78 -92T90 -85T106 -62T110 -14V0H51V152H227V45Q227 -42 216 -84T168 -145T53 -164V-92Q78 -92 90 -85Z" />
<glyph unicode="-" glyph-name="hyphen" horiz-adv-x="302" d="M44 214V354H258V214H44Z" />
<glyph unicode="." glyph-name="period" horiz-adv-x="277" d="M51 0V152H227V0H51Z" />
<glyph unicode="/" glyph-name="slash" horiz-adv-x="353" d="M8 -55L202 743H345L151 -55H8Z" />
<glyph unicode="0" glyph-name="zero" horiz-adv-x="483" d="M141 -8T97 21T42 118T30 344Q30 501 41 569T97 667T242 696Q343 696 386 667T441 570T453 344Q453 187 442 119T387 21T242 -8Q141 -8 97 21ZM261 140T267 149T274 195T276 344Q276 456 275 492T267
538T242 548Q223 548 217 539T209 493T207 344Q207 232 208 196T216 150T242 140Q261 140 267 149Z" />
<glyph unicode="1" glyph-name="one" horiz-adv-x="326" d="M107 0V498L8 460V613L155 688H287V0H107Z" />
<glyph unicode="2" glyph-name="two" horiz-adv-x="462" d="M209 216T208 197T207 149H431V0H30V92Q30 192 33 237T52 312T104 360L147 382Q168 392 206 412Q210 414 225 422T246 445T251 487Q251 517 246 529T227 545T180 548Q127 548 39 540V677Q75 685 127
690T226 696Q291 696 333 683T403 627T431 496Q431 404 409 363T347 301Q277 267 238 247Q230 243 223 238T212 225Q209 216 208 197Z" />
<glyph unicode="3" glyph-name="three" horiz-adv-x="450" d="M165 -8T114 -2T23 12V147Q114 140 168 140Q203 140 217 143T237 159T242 203Q242 238 237 252T221 271T184 275H91V420H184Q209 420 219 424T233 442T236 487Q236 518 232 529T213 544T162 548Q94
548 24 540V677Q64 685 115 690T206 696Q281 696 327 680T395 625T417 518Q417 444 394 405T323 353V349Q375 336 398 300T422 181Q422 112 401 71T333 11T205 -8Q165 -8 114 -2Z" />
<glyph unicode="4" glyph-name="four" horiz-adv-x="480" d="M242 0V125H16V255L136 688H323L190 273H245L298 412H419V273H470V125H419V0H242Z" />
<glyph unicode="5" glyph-name="five" horiz-adv-x="467" d="M125 140T178 140Q219 140 234 144T255 163T261 219Q261 258 256 274T236 294T180 299Q114 299 48 292V688H412V539H208V441Q238 446 277 446Q369 446 405 393T441 233Q441 142 423 91T359 16T225 -8Q185
-8 134 -3T43 11V147Q125 140 178 140Z" />
<glyph unicode="6" glyph-name="six" horiz-adv-x="481" d="M187 -8T150 1T88 38T47 118Q30 183 30 346Q30 509 54 575Q79 642 128 669T267 696Q300 696 345 690T431 674V538Q348 548 299 548Q254 548 236 539T213 500T207 399H216Q224 417 247 431T310 446Q361
446 391 431T439 371T456 237Q456 143 439 91T377 16T248 -8Q187 -8 150 1ZM263 137T271 141T282 162T285 219Q285 258 282 274T271 294T245 299Q227 299 220 295T210 274T207 220Q207 179 210 162T221 141T245 137Q263 137 271 141Z" />
<glyph unicode="7" glyph-name="seven" horiz-adv-x="434" d="M50 0L236 539H20V688H421V555L241 0H50Z" />
<glyph unicode="8" glyph-name="eight" horiz-adv-x="494" d="M165 -8T117 11T48 71T27 181Q27 262 51 299T126 349V353Q78 367 56 405T33 518Q33 586 55 624T124 679T247 696Q323 696 369 680T438 625T460 518Q460 444 438 406T367 353V349Q419 336 443 299T467
181Q467 112 446 71T376 11T247 -8Q165 -8 117 11ZM266 413T273 416T282 433T284 483Q284 520 282 533T273 551T247 555Q228 555 221 551T211 534T209 483Q209 447 211 434T220 417T247 413Q266 413 273 416ZM266 132T273 136T283 155T286 207Q286 244 284 259T274
278T247 283Q228 283 220 278T210 259T207 207Q207 171 209 156T220 137T247 132Q266 132 273 136Z" />
<glyph unicode="9" glyph-name="nine" horiz-adv-x="481" d="M179 -8T133 -2T50 14V150Q132 140 182 140Q227 140 245 149T268 188T274 289H266Q258 270 233 256T171 242Q120 242 90 257T42 317T25 451Q25 545 42 597T104 672T233 696Q295 696 333 687T395 652T432
576Q451 503 451 342Q451 175 422 105Q398 43 349 18T214 -8Q179 -8 133 -2ZM254 389T261 393T270 414T273 468Q273 509 270 526T260 547T236 551Q218 551 210 547T199 526T196 469Q196 430 199 414T209 394T236 389Q254 389 261 393Z" />
<glyph unicode=":" glyph-name="colon" horiz-adv-x="277" d="M51 358V510H227V358H51ZM51 0V152H227V0H51Z" />
<glyph unicode=";" glyph-name="semicolon" horiz-adv-x="277" d="M51 358V510H227V358H51ZM78 -92T90 -85T106 -62T110 -14V0H51V152H227V45Q227 -42 216 -84T168 -145T53 -164V-92Q78 -92 90 -85Z" />
<glyph unicode="&lt;" glyph-name="less" horiz-adv-x="474" d="M418 65L56 188V318L418 442V310L221 253L418 197V65Z" />
<glyph unicode="=" glyph-name="equal" horiz-adv-x="473" d="M56 280V413H417V280H56ZM56 94V226H417V94H56Z" />
<glyph unicode="&gt;" glyph-name="greater" horiz-adv-x="474" d="M56 65V197L253 253L56 310V442L418 318V188L56 65Z" />
<glyph unicode="?" glyph-name="question" horiz-adv-x="410" d="M94 316Q94 365 105 387T144 425L159 434Q184 451 191 463T198 502Q198 524 192 533T173 545T133 548Q85 548 33 541V679Q65 686 110 691T193 696Q276 696 326 663T376 532Q376 475 367 445T343
399T293 359L280 350Q260 335 253 327T245 308T243 266V233H94V316ZM81 0V152H257V0H81Z" />
<glyph unicode="@" glyph-name="at" horiz-adv-x="725" d="M208 -108T147 -82T69 20T52 294Q52 492 69 568T147 670T365 696Q522 696 583 670T660 568T677 294Q677 187 666 142T632 86T557 75H391L387 125H379Q356 68 297 68Q247 68 226 101T205 203Q205 255 215
283T249 323T318 336Q341 336 386 333V351Q386 379 382 389T365 403T317 406Q296 406 224 402V506Q295 518 361 518Q431 518 466 501T513 446T525 338V142H562Q585 142 593 149T604 186T607 294Q607 440 602 500T574 589T497 626Q469 630 365 630Q271 630 240 627Q181
620 158 593T129 506T123 294Q123 133 130 72T167 -13T273 -41Q293 -42 365 -42Q481 -42 525 -39V-106Q498 -108 365 -108Q208 -108 147 -82ZM377 181T381 191T386 234V257H361Q345 257 340 249T335 216Q335 196 339 189T359 181Q377 181 381 191Z" />
<glyph unicode="A" glyph-name="A" horiz-adv-x="517" d="M335 0L319 117H194L178 0H1L127 688H390L516 0H335ZM260 529H253L216 260H297L260 529Z" />
<glyph unicode="B" glyph-name="B" horiz-adv-x="492" d="M40 688H297Q464 688 464 515Q464 441 442 404T372 353V349Q422 336 445 301T469 185Q469 91 428 46T297 0H40V688ZM266 415T274 419T285 435T288 478Q288 511 286 523T275 538T245 542H217V415H245Q266
415 274 419ZM267 146T275 149T285 165T288 213Q288 246 285 259T274 276T245 280H217V146H245Q267 146 275 149Z" />
<glyph unicode="C" glyph-name="C" horiz-adv-x="403" d="M355 2T319 -3T251 -8Q153 -8 107 24T45 128T30 344Q30 487 45 559T107 663T251 696Q286 696 321 691T376 679V542Q313 548 288 548Q247 548 233 536T215 488T211 344Q211 237 214 200T232 152T288 140Q341
140 378 146V10Q355 2 319 -3Z" />
<glyph unicode="D" glyph-name="D" horiz-adv-x="500" d="M40 688H240Q353 688 400 658T459 563T470 344Q470 190 459 126T401 31T240 0H40V688ZM241 148Q268 148 277 157T288 201T290 344Q290 452 288 487T277 531T241 540H219V148H241Z" />
<glyph unicode="E" glyph-name="E" horiz-adv-x="426" d="M40 0V688H393V540H220V421H367V274H220V148H393V0H40Z" />
<glyph unicode="F" glyph-name="F" horiz-adv-x="397" d="M40 0V688H377V540H220V402H356V254H220V0H40Z" />
<glyph unicode="G" glyph-name="G" horiz-adv-x="494" d="M256 272V413H458V14Q420 4 366 -2T264 -8Q166 -8 117 21T49 124T30 344Q30 490 50 563T121 666T276 696Q315 696 366 690T456 675V538Q360 548 326 548Q264 548 243 539T214 490T207 344Q207 244 211
203T227 149T271 135L299 136V272H256Z" />
<glyph unicode="H" glyph-name="H" horiz-adv-x="520" d="M300 0V266H220V0H40V688H220V426H300V688H480V0H300Z" />
<glyph unicode="I" glyph-name="I" horiz-adv-x="260" d="M40 0V688H220V0H40Z" />
<glyph unicode="J" glyph-name="J" horiz-adv-x="326" d="M59 139T78 145T102 173T108 250V688H289V328Q289 158 274 97T207 18T9 0V139Q59 139 78 145Z" />
<glyph unicode="K" glyph-name="K" horiz-adv-x="509" d="M316 0L233 273H220V0H40V688H220V425H233L319 688H505L376 360L507 0H316Z" />
<glyph unicode="L" glyph-name="L" horiz-adv-x="385" d="M40 0V688H220V153H372V0H40Z" />
<glyph unicode="M" glyph-name="M" horiz-adv-x="723" d="M511 0V467H502L436 0H283L218 467H208V0H40V688H306L360 270H368L421 688H684V0H511Z" />
<glyph unicode="N" glyph-name="N" horiz-adv-x="526" d="M327 0L216 310H211V0H40V688H213L309 421H315V688H486V0H327Z" />
<glyph unicode="O" glyph-name="O" horiz-adv-x="509" d="M144 -8T98 23T41 121T30 344Q30 501 40 567T97 664T254 696Q364 696 410 665T468 567T479 344Q479 188 468 122T411 24T254 -8Q144 -8 98 23ZM278 140T286 149T296 195T298 344Q298 456 296 492T286 538T254
548Q230 548 223 539T213 493T211 344Q211 232 213 196T222 150T254 140Q278 140 286 149Z" />
<glyph unicode="P" glyph-name="P" horiz-adv-x="483" d="M40 688H288Q364 688 402 663T454 587T468 447Q468 363 456 313T405 235T288 206H220V0H40V688ZM241 353Q264 353 272 358T284 381T287 447Q287 495 284 513T273 536T241 541H220V353H241Z" />
<glyph unicode="Q" glyph-name="Q" horiz-adv-x="509" d="M278 -7Q270 -8 254 -8Q144 -8 98 23T41 121T30 344Q30 501 40 567T97 664T254 696Q364 696 410 665T468 567T479 344Q479 213 470 147T430 45L525 -108V-115H341L278 -7ZM278 140T286 149T296 195T298
344Q298 456 296 492T286 538T254 548Q230 548 223 539T213 493T211 344Q211 232 213 196T222 150T254 140Q278 140 286 149Z" />
<glyph unicode="R" glyph-name="R" horiz-adv-x="501" d="M305 0L251 226H220V0H40V688H293Q369 688 408 664T460 591T474 457Q474 380 462 333T414 258L490 0H305ZM220 368H247Q269 368 278 372T290 394T293 455Q293 499 291 515T279 536T247 541H220V368Z" />
<glyph unicode="S" glyph-name="S" horiz-adv-x="449" d="M179 -8T126 -3T36 11V147Q129 140 173 140Q204 140 218 142T238 151Q244 157 246 168T248 199Q248 229 244 241T228 260T185 271L100 287Q58 295 41 344T23 484Q23 572 49 618T121 680T236 696Q288 696
332 690T401 678V541Q341 548 278 548Q249 548 236 547T215 539Q208 533 206 522T203 490Q203 466 205 455T216 439T243 430L316 416Q350 409 373 394T412 341Q428 297 428 223Q428 122 403 72T335 7T225 -8Q179 -8 126 -3Z" />
<glyph unicode="T" glyph-name="T" horiz-adv-x="433" d="M126 0V535H7V688H426V535H307V0H126Z" />
<glyph unicode="U" glyph-name="U" horiz-adv-x="506" d="M469 688V309Q469 170 459 110T403 21T253 -8Q148 -8 103 20T48 109T37 309V688H217V261Q217 196 218 175T226 147T253 141Q272 141 278 147T287 175T289 261V688H469Z" />
<glyph unicode="V" glyph-name="V" horiz-adv-x="499" d="M120 0L5 688H187L247 184H258L315 688H494L379 0H120Z" />
<glyph unicode="W" glyph-name="W" horiz-adv-x="781" d="M442 0L394 422H386L338 0H94L10 688H190L225 186H234L290 688H496L554 186H563L593 688H771L686 0H442Z" />
<glyph unicode="X" glyph-name="X" horiz-adv-x="521" d="M321 0L262 221H253L193 0H6L136 346L9 688H202L258 477H267L325 688H512L386 351L515 0H321Z" />
<glyph unicode="Y" glyph-name="Y" horiz-adv-x="490" d="M155 0V229L-2 688H179L244 410H253L315 688H492L335 229V0H155Z" />
<glyph unicode="Z" glyph-name="Z" horiz-adv-x="453" d="M29 0V140L219 540H36V688H423V550L231 148H423V0H29Z" />
<glyph unicode="[" glyph-name="bracketleft" horiz-adv-x="329" d="M44 -150V743H293V643L200 639V-45L293 -49V-150H44Z" />
<glyph unicode="\" glyph-name="backslash" horiz-adv-x="353" d="M202 -55L8 743H151L345 -55H202Z" />
<glyph unicode="]" glyph-name="bracketright" horiz-adv-x="329" d="M36 -150V-49L128 -45V639L36 643V743H285V-150H36Z" />
<glyph unicode="^" glyph-name="asciicircum" horiz-adv-x="382" d="M251 474L191 631L130 474H-3L125 750H256L384 474H251Z" />
<glyph unicode="_" glyph-name="underscore" horiz-adv-x="380" d="M0 -194V-63H380V-194H0Z" />
<glyph unicode="`" glyph-name="grave" horiz-adv-x="224" d="M89 595L7 738V743H165L218 600V595H89Z" />
<glyph unicode="a" glyph-name="a" horiz-adv-x="436" d="M70 -8T45 31T19 150Q19 209 31 242T72 291T156 306Q190 306 236 302V322Q236 354 231 367T211 383T154 387Q90 387 42 382V503Q119 518 206 518Q289 518 331 497T388 432T403 307V0H241L237 57H227Q200
-8 131 -8Q70 -8 45 31ZM216 124T222 127T232 139Q236 151 236 186V213H207Q188 213 182 204T176 165Q176 141 180 133T205 124Q216 124 222 127Z" />
<glyph unicode="b" glyph-name="b" d="M274 -8T248 7T210 56H200L196 0H35V743H202V458H211Q224 489 248 503T307 518Q354 518 380 494T418 413T429 254Q429 149 417 93T379 15T307 -8Q274 -8 248 7ZM249 133T254 138T260 166T262 255Q262 322 261 344T254 371T232
377Q219 377 214 374T205 357Q202 341 202 255Q202 174 205 156Q207 141 213 137T232 133Q249 133 254 138Z" />
<glyph unicode="c" glyph-name="c" horiz-adv-x="347" d="M264 -8T204 -8Q125 -8 87 21T37 104T25 255Q25 353 37 407T87 490T204 518Q269 518 323 504V383Q283 387 254 387Q224 387 213 380T197 346T193 255Q193 189 196 164T212 131T254 123Q279 123 325 127V8Q264
-8 204 -8Z" />
<glyph unicode="d" glyph-name="d" d="M101 -8T75 14T37 92T25 254Q25 356 36 412T73 493T146 518Q182 518 206 504T243 458H252V743H419V0H258L254 56H244Q232 21 206 7T147 -8Q101 -8 75 14ZM237 133T242 138T250 161Q252 184 252 255Q252 327 250 344Q248 366
243 371T222 377Q205 377 200 372T193 344T191 255Q191 189 192 167T199 139T222 133Q237 133 242 138Z" />
<glyph unicode="e" glyph-name="e" horiz-adv-x="431" d="M405 213H190Q190 166 194 150T213 128T271 123Q311 123 393 127V8Q366 1 321 -3T231 -8Q134 -8 91 19T36 97T25 254Q25 358 36 410T88 490T220 518Q310 518 349 493T396 419T405 254V213ZM206 392T200
388T192 366T190 305H250Q250 350 249 366T242 387T220 392Q206 392 200 388Z" />
<glyph unicode="f" glyph-name="f" horiz-adv-x="338" d="M71 379H12V510H71V519Q71 629 88 673T153 730T320 743V627Q279 627 264 623T244 605T239 552V510H320V379H239V0H71V379Z" />
<glyph unicode="g" glyph-name="g" d="M172 -206T130 -203T60 -194V-75H169Q213 -75 228 -70T248 -49T252 16V66H243Q230 35 206 21T146 7Q99 7 73 30T36 109T25 264Q25 366 37 420T75 496T147 518Q180 518 206 504T244 454H254L258 510H419V56Q419 -46 408 -97T353
-177T212 -206Q172 -206 130 -203ZM236 148T241 152T249 172Q252 188 252 263Q252 330 250 346Q248 366 243 371T222 377Q205 377 200 372T193 345T191 263Q191 201 192 180T199 154T222 148Q236 148 241 152Z" />
<glyph unicode="h" glyph-name="h" horiz-adv-x="457" d="M257 272Q257 328 256 347T249 371T230 376Q215 376 210 370T204 343T202 258V0H35V743H202V453H211Q238 518 315 518Q361 518 384 499T416 443T424 338V0H257V272Z" />
<glyph unicode="i" glyph-name="i" horiz-adv-x="238" d="M35 604V743H203V604H35ZM35 0V510H203V0H35Z" />
<glyph unicode="j" glyph-name="j" horiz-adv-x="238" d="M35 604V743H203V604H35ZM-20 -80Q6 -80 17 -75T32 -60T35 -29V510H203V35Q203 -74 186 -121T124 -183T-20 -198V-80Z" />
<glyph unicode="k" glyph-name="k" horiz-adv-x="455" d="M278 0L214 186H202V0H35V743H202V318H214L283 510H452L353 269L453 0H278Z" />
<glyph unicode="l" glyph-name="l" horiz-adv-x="238" d="M35 0V743H203V0H35Z" />
<glyph unicode="m" glyph-name="m" horiz-adv-x="675" d="M474 272Q474 328 473 347T467 371T448 376Q433 376 428 370T422 343T421 258V0H255V272Q255 327 254 346T247 371T228 376Q214 376 209 370T203 343T202 258V0H35V510H196L200 453H209Q240 518 316 518Q358
518 382 502T415 453H424Q441 490 469 504T532 518Q577 518 600 500T632 444T641 344V0H474V272Z" />
<glyph unicode="n" glyph-name="n" horiz-adv-x="457" d="M257 272Q257 328 256 347T249 371T230 376Q215 376 210 370T204 343T202 258V0H35V510H196L200 453H209Q236 518 315 518Q361 518 384 499T416 443T424 338V0H257V272Z" />
<glyph unicode="o" glyph-name="o" horiz-adv-x="443" d="M130 -8T89 14T37 88T25 255Q25 370 36 421T89 495T222 518Q314 518 354 496T407 421T419 255Q419 141 407 89T355 15T222 -8Q130 -8 89 14ZM238 123T243 130T250 161T252 255Q252 324 251 348T244 380T222
387Q206 387 200 380T193 349T191 255Q191 186 192 162T200 130T222 123Q238 123 243 130Z" />
<glyph unicode="p" glyph-name="p" d="M35 510H196L200 454H210Q221 488 247 503T307 518Q353 518 379 496T417 417T429 256Q429 154 418 98T381 17T307 -8Q272 -8 248 6T211 52H202V-199H35V510ZM249 133T254 138T260 166T262 255Q262 322 261 344T254 371T232
377Q219 377 213 373T204 352Q202 336 202 255Q202 173 204 161Q207 143 213 138T232 133Q249 133 254 138Z" />
<glyph unicode="q" glyph-name="q" d="M252 52H243Q230 20 206 6T146 -8Q99 -8 73 16T36 97T25 256Q25 361 37 417T75 496T147 518Q180 518 206 504T244 454H254L258 510H419V-199H252V52ZM234 133T240 137T249 155Q252 172 252 255Q252 338 249 355Q246 369 241
373T222 377Q205 377 200 372T193 344T191 255Q191 189 192 167T199 139T222 133Q234 133 240 137Z" />
<glyph unicode="r" glyph-name="r" horiz-adv-x="336" d="M35 510H196L200 429H209Q226 479 251 498T324 518V353Q279 353 254 344T215 305T202 220V0H35V510Z" />
<glyph unicode="s" glyph-name="s" horiz-adv-x="376" d="M153 -8T107 -3T29 9V127Q95 121 132 121Q165 121 178 122T196 131T202 154Q202 175 197 180T166 191L84 204Q47 211 32 247T17 361Q17 447 62 482T193 518Q229 518 270 514T336 502V382Q269 389 237 389Q209
389 197 387T182 379T178 361Q178 345 179 340T186 332T207 326L273 314Q300 310 318 299T348 255T360 164Q360 95 340 58T284 6T192 -8Q153 -8 107 -3Z" />
<glyph unicode="t" glyph-name="t" horiz-adv-x="328" d="M70 0V379H12V510H70V658H239V510H317V379H239V0H70Z" />
<glyph unicode="u" glyph-name="u" horiz-adv-x="457" d="M257 57H248Q221 -8 142 -8Q96 -8 73 11T41 67T33 172V510H200V238Q200 182 201 163T208 139T228 134Q243 134 248 140T254 167T255 252V510H422V0H261L257 57Z" />
<glyph unicode="v" glyph-name="v" horiz-adv-x="433" d="M100 0L2 510H169L215 164H224L266 510H431L333 0H100Z" />
<glyph unicode="w" glyph-name="w" horiz-adv-x="670" d="M377 0L341 230H331L296 0H87L5 510H168L197 185H207L259 510H417L471 185H480L508 510H665L583 0H377Z" />
<glyph unicode="x" glyph-name="x" horiz-adv-x="445" d="M269 0L223 148H214L170 0H2L111 257L5 510H181L224 373H232L272 510H440L335 259L444 0H269Z" />
<glyph unicode="y" glyph-name="y" horiz-adv-x="457" d="M177 -206T135 -203T66 -194V-75H175Q218 -75 232 -71T251 -50T255 16V72H246Q219 7 142 7Q95 7 72 25T41 81T33 187V510H200V252Q200 197 201 178T208 153T228 148Q243 148 248 154T254 181T255 267V510H422V56Q422
-46 411 -97T357 -177T217 -206Q177 -206 135 -203Z" />
<glyph unicode="z" glyph-name="z" horiz-adv-x="410" d="M28 0V122L184 379H35V510H380V388L224 131H382V0H28Z" />
<glyph unicode="{" glyph-name="braceleft" horiz-adv-x="342" d="M161 -124T127 -73T93 33V156Q93 201 78 227T20 263V330Q63 339 78 365T93 437V560Q93 614 127 665T214 743H317Q279 698 265 659T250 556V445Q250 387 223 350T137 300V293Q195 281 222 244T250
148V37Q250 -27 264 -66T317 -150H214Q161 -124 127 -73Z" />
<glyph unicode="|" glyph-name="bar" horiz-adv-x="247" d="M48 -161V743H198V-161H48Z" />
<glyph unicode="}" glyph-name="braceright" horiz-adv-x="342" d="M63 -104T77 -65T92 37V148Q92 206 119 243T205 293V300Q147 312 120 349T92 445V556Q92 619 78 658T25 743H127Q180 718 214 666T248 560V437Q248 392 263 366T321 330V263Q279 254 264 228T248
156V33Q248 -21 214 -73T127 -150H25Q63 -104 77 -65Z" />
<glyph unicode="~" glyph-name="asciitilde" horiz-adv-x="467" d="M420 326T416 299T391 255T326 239Q288 239 217 252L195 256Q168 261 157 261Q145 261 142 255T139 227H47Q47 282 51 309T76 353T141 370Q180 370 249 357L273 353Q298 348 310 348Q323 348
325 354T328 381H420Q420 326 416 299Z" />
<glyph unicode="&#xa0;" glyph-name="uni00A0" horiz-adv-x="181" />
<glyph unicode="&#xa1;" glyph-name="exclamdown" horiz-adv-x="288" d="M55 358V510H231V358H55ZM43 -145Q43 -120 56 1T89 277H198Q217 128 230 5T243 -145V-178H43V-145Z" />
<glyph unicode="&#xa2;" glyph-name="cent" horiz-adv-x="356" d="M145 74Q97 86 73 118T40 204T31 342Q31 427 40 480T74 566T145 609V696H266V613Q299 608 325 601V476Q269 480 258 480Q229 480 218 472T202 437T198 342Q198 274 202 247T217 212T258 204Q274
204 328 208V84Q301 77 266 72V-8H145V74Z" />
<glyph unicode="&#xa3;" glyph-name="sterling" horiz-adv-x="447" d="M416 148V0H28V148H87V282H28V426H87V442Q87 537 101 590T159 669T287 696Q318 696 352 692T410 682V542Q360 548 331 548Q312 548 301 547T284 539Q273 530 270 510T267 442V426H366V282H267V148H416Z"
/>
<glyph unicode="&#xa4;" glyph-name="currency" horiz-adv-x="556" d="M25 101L94 170Q86 198 84 237T81 345Q81 412 83 451T93 519L25 588L119 682L194 607Q222 613 278 613Q329 613 363 607L439 682L532 588L462 518Q470 490 472 450T475 345Q475 281 473 241T462
172L532 102L438 7L363 82Q329 76 278 76Q227 76 193 82L119 8L25 101ZM294 207T299 214T306 246T308 345Q308 417 307 442T300 475T278 482Q262 482 256 475T249 443T247 345Q247 272 248 247T256 214T278 207Q294 207 299 214Z" />
<glyph unicode="&#xa5;" glyph-name="yen" horiz-adv-x="522" d="M171 0V194H41V278H159L134 346H41V430H107L23 688H201L260 412H270L324 688H498L415 430H480V346H386L362 278H480V194H351V0H171Z" />
<glyph unicode="&#xa6;" glyph-name="brokenbar" horiz-adv-x="247" d="M48 390V743H198V390H48ZM48 -161V192H198V-161H48Z" />
<glyph unicode="&#xa7;" glyph-name="section" horiz-adv-x="510" d="M195 -170T152 -165T85 -151V-18Q151 -24 217 -24Q244 -24 252 -18T260 7Q260 26 256 31T230 46L151 80Q109 97 85 113T42 163T23 254Q23 332 42 369T105 420Q82 457 82 520Q82 616 131 656T272
696Q318 696 360 690T425 677V544Q355 551 293 551Q266 551 259 545T251 519Q251 501 255 495T280 481L357 449Q399 431 424 416T468 365T487 272Q487 194 468 157T405 105Q428 70 428 6Q428 -90 379 -130T238 -170Q195 -170 152 -165ZM317 187T319 201T321 248Q321
286 303 294L219 332Q205 339 199 339Q193 339 191 325T189 279Q189 241 213 230L294 193Q308 187 311 187Q317 187 319 201Z" />
<glyph unicode="&#xa8;" glyph-name="dieresis" horiz-adv-x="328" d="M5 615V730H141V615H5ZM186 615V730H322V615H186Z" />
<glyph unicode="&#xa9;" glyph-name="copyright" horiz-adv-x="596" d="M175 -8T127 15T66 105T52 344Q52 516 65 583T127 673T298 696Q421 696 469 673T531 584T544 344Q544 171 531 105T470 15T298 -8Q175 -8 127 15ZM399 50T432 63T474 130T483 344Q483 505
475 558T433 624T298 638Q197 638 164 625T122 558T113 344Q113 183 121 130T163 64T298 50Q399 50 432 63ZM262 156T238 173T206 229T198 344Q198 420 206 458T238 514T314 532Q332 532 350 530T380 523V450Q354 452 334 452Q312 452 305 446T295 421T293 344Q293
287 295 268T304 242T334 236Q362 236 382 238V166Q352 156 314 156Q262 156 238 173Z" />
<glyph unicode="&#xaa;" glyph-name="ordfeminine" horiz-adv-x="337" d="M61 306T42 335T23 423Q23 488 44 513T123 539Q128 539 182 536V551Q182 575 179 584T164 596T122 599Q95 599 40 595V685Q101 696 161 696Q222 696 252 681T294 633T305 540V312H186L183
355H176Q157 306 106 306Q61 306 42 335ZM168 404T172 406T179 416Q182 422 182 450V470H162Q148 470 143 463T138 434Q138 417 141 411T160 404Q168 404 172 406Z" />
<glyph unicode="&#xab;" glyph-name="guillemotleft" horiz-adv-x="439" d="M114 124L28 317L114 510H227L164 317L227 124H114ZM291 124L204 317L291 510H404L340 317L404 124H291Z" />
<glyph unicode="&#xac;" glyph-name="logicalnot" horiz-adv-x="474" d="M285 64V178H56V311H418V64H285Z" />
<glyph unicode="&#xad;" glyph-name="uni00AD" horiz-adv-x="302" d="M44 214V354H258V214H44Z" />
<glyph unicode="&#xae;" glyph-name="registered" horiz-adv-x="596" d="M421 696T469 673T531 584T544 344Q544 171 531 105T470 15T298 -8Q175 -8 127 15T66 105T52 344Q52 516 65 583T127 673T298 696Q421 696 469 673ZM399 50T432 63T474 130T483 344Q483
505 475 558T433 624T298 638Q197 638 164 625T122 558T113 344Q113 183 121 130T163 64T298 50Q399 50 432 63ZM414 364T408 339T383 298L423 160H327L297 281H278V160H186V528H317Q358 528 379 515T407 476T414 404Q414 364 408 339ZM278 357H296Q308 357 313
359T319 371T321 403Q321 426 320 435T314 446T296 449H278V357Z" />
<glyph unicode="&#xaf;" glyph-name="overscore" horiz-adv-x="303" d="M43 603V743H260V603H43Z" />
<glyph unicode="&#xb0;" glyph-name="degree" horiz-adv-x="327" d="M101 397T74 411T39 454T31 547Q31 610 38 639T73 682T164 696Q227 696 255 683T290 640T297 547Q297 483 290 454T255 411T164 397Q101 397 74 411ZM181 474T187 478T194 496T196 547Q196 584
195 597T187 615T164 620Q148 620 142 615T134 597T132 547Q132 511 133 498T141 479T164 474Q181 474 187 478Z" />
<glyph unicode="&#xb1;" glyph-name="plusminus" horiz-adv-x="473" d="M170 197V312H56V444H170V559H303V444H417V312H303V197H170ZM56 28V161H417V28H56Z" />
<glyph unicode="&#xb2;" glyph-name="uni00B2" horiz-adv-x="304" d="M149 442T147 436T144 405H267V314H37V367Q37 419 39 445T49 487T76 513Q123 536 137 544Q149 550 153 556T158 578Q158 597 152 601T123 605Q103 605 41 600V685Q62 690 92 693T149 696Q187
696 211 689T251 657T267 583Q267 532 254 510T216 475L161 447Q149 442 147 436Z" />
<glyph unicode="&#xb3;" glyph-name="uni00B3" horiz-adv-x="303" d="M90 306T38 317V402Q93 397 121 397Q144 397 149 401T154 426Q154 450 150 455T130 460H75V545H130Q146 545 149 550T152 578Q152 592 151 597T143 603T118 605Q83 605 40 600V686Q88 696 142
696Q206 696 234 674T262 595Q262 558 251 537T215 506V502Q240 493 252 472T265 412Q265 354 238 330T142 306Q90 306 38 317Z" />
<glyph unicode="&#xb4;" glyph-name="acute" horiz-adv-x="224" d="M7 595V600L59 743H218V738L135 595H7Z" />
<glyph unicode="&#xb5;" glyph-name="uni00B5" horiz-adv-x="458" d="M424 510V0H262L258 57H249Q230 17 202 6V-189H35V510H202V238Q202 181 203 163T209 139T229 134Q244 134 249 140T255 167T257 252V510H424Z" />
<glyph unicode="&#xb6;" glyph-name="paragraph" horiz-adv-x="516" d="M169 222Q101 222 72 238T34 300T25 454Q25 562 34 608T72 671T169 688H289V-144H169V222ZM343 -144V688H464V-144H343Z" />
<glyph unicode="&#xb7;" glyph-name="middot" horiz-adv-x="277" d="M51 223V375H227V223H51Z" />
<glyph unicode="&#xb8;" glyph-name="cedilla" horiz-adv-x="184" d="M5 -188V-183L74 8H180V3L147 -188H5Z" />
<glyph unicode="&#xb9;" glyph-name="uni00B9" horiz-adv-x="233" d="M87 314V570L35 549V644L119 688H197V314H87Z" />
<glyph unicode="&#xba;" glyph-name="ordmasculine" horiz-adv-x="347" d="M108 307T78 322T38 377T28 501Q28 586 38 625T78 680T174 696Q239 696 269 681T309 626T319 501Q319 417 309 378T269 323T174 307Q108 307 78 322ZM186 404T190 409T195 432T196 501Q196
552 195 570T190 594T174 599Q162 599 158 594T152 571T151 501Q151 450 152 432T157 409T174 404Q186 404 190 409Z" />
<glyph unicode="&#xbb;" glyph-name="guillemotright" horiz-adv-x="439" d="M36 124L99 317L36 510H149L235 317L149 124H36ZM212 124L276 317L212 510H325L412 317L325 124H212Z" />
<glyph unicode="&#xbc;" glyph-name="onequarter" horiz-adv-x="662" d="M86 314V570L33 549V644L117 688H195V314H86ZM82 0L436 688H535L182 0H82ZM490 0V67H366V142L435 375H549L469 158H497L532 233H598V158H626V67H598V0H490Z" />
<glyph unicode="&#xbd;" glyph-name="onehalf" horiz-adv-x="682" d="M86 314V570L33 549V644L117 688H195V314H86ZM436 688H535L182 0H82L436 688ZM528 129T525 121T522 92H645V0H415V53Q415 105 417 131T427 173T454 199L515 230Q528 237 532 243T536 264Q536
283 530 287T501 291Q481 291 419 286V371Q466 382 527 382Q565 382 589 375T629 344T645 270Q645 218 632 196T594 161L541 135Q528 129 525 121Z" />
<glyph unicode="&#xbe;" glyph-name="threequarters" horiz-adv-x="707" d="M93 397T121 397Q144 397 149 401T154 426Q154 450 150 455T130 460H75V545H130Q146 545 149 550T152 578Q152 592 151 597T143 603T118 605Q83 605 40 600V686Q88 696 142 696Q206 696
234 674T262 595Q262 558 251 537T215 506V502Q240 493 252 472T265 412Q265 354 238 330T142 306Q90 306 38 317V402Q93 397 121 397ZM128 0L482 688H581L227 0H128ZM533 0V67H409V142L479 375H592L513 158H540L575 233H642V158H669V67H642V0H533Z" />
<glyph unicode="&#xbf;" glyph-name="questiondown" horiz-adv-x="381" d="M154 358V510H330V358H154ZM131 -186T83 -152T35 -22Q35 31 41 60T63 108T108 146L142 169Q156 179 161 185T167 202T168 244V277H317V194Q317 145 307 123T268 85L254 77Q227 58 220
46T213 8Q213 -14 220 -23T239 -35T279 -38Q319 -38 378 -31V-169Q347 -176 302 -181T218 -186Q131 -186 83 -152Z" />
<glyph unicode="&#xc0;" glyph-name="Agrave" horiz-adv-x="517" d="M335 0L319 117H194L178 0H1L127 688H390L516 0H335ZM260 529H253L216 260H297L260 529ZM200 749L118 892V897H276L329 754V749H200Z" />
<glyph unicode="&#xc1;" glyph-name="Aacute" horiz-adv-x="517" d="M335 0L319 117H194L178 0H1L127 688H390L516 0H335ZM260 529H253L216 260H297L260 529ZM178 750V755L230 898H389V893L306 750H178Z" />
<glyph unicode="&#xc2;" glyph-name="Acircumflex" horiz-adv-x="517" d="M335 0L319 117H194L178 0H1L127 688H390L516 0H335ZM260 529H253L216 260H297L260 529ZM105 750V758L178 881H336L411 758V750H301L257 811L215 750H105Z" />
<glyph unicode="&#xc3;" glyph-name="Atilde" horiz-adv-x="517" d="M335 0L319 117H194L178 0H1L127 688H390L516 0H335ZM260 529H253L216 260H297L260 529ZM422 849T418 822T397 778T339 762Q301 762 249 776Q242 777 226 780T200 784Q189 784 187 778T184 750H94Q94
805 98 832T120 876T178 892Q198 892 222 888T268 878Q275 877 291 874T317 870Q328 870 330 876T333 904H422Q422 849 418 822Z" />
<glyph unicode="&#xc4;" glyph-name="Adieresis" horiz-adv-x="517" d="M335 0L319 117H194L178 0H1L127 688H390L516 0H335ZM260 529H253L216 260H297L260 529ZM100 777V892H236V777H100ZM281 777V892H417V777H281Z" />
<glyph unicode="&#xc5;" glyph-name="Aring" horiz-adv-x="517" d="M516 0H335L319 117H194L178 0H1L127 689Q118 702 116 720T113 770Q113 819 121 843T161 880T259 893Q325 893 356 881T395 844T404 770Q404 740 401 721T390 688L516 0ZM281 728T289 731T300
742T302 770Q302 791 300 799T289 811T259 815Q238 815 229 811T218 799T216 770Q216 750 218 743T228 732T259 728Q281 728 289 731ZM216 260H297L260 529H253L216 260Z" />
<glyph unicode="&#xc6;" glyph-name="AE" horiz-adv-x="696" d="M321 0L312 118H183L159 0H-18L163 688H662V540H443L454 421H637V274H468L480 148H662V0H321ZM280 536H272L215 261H301L280 536Z" />
<glyph unicode="&#xc7;" glyph-name="Ccedilla" horiz-adv-x="403" d="M378 10Q357 3 322 -2T255 -8L224 -188H82V-183L150 4Q99 20 73 59T39 164T30 344Q30 487 45 559T107 663T251 696Q286 696 321 691T376 679V542Q313 548 288 548Q247 548 233 536T215 488T211
344Q211 237 214 200T232 152T288 140Q341 140 378 146V10Z" />
<glyph unicode="&#xc8;" glyph-name="Egrave" horiz-adv-x="426" d="M40 0V688H393V540H220V421H367V274H220V148H393V0H40ZM169 750L87 893V898H245L298 755V750H169Z" />
<glyph unicode="&#xc9;" glyph-name="Eacute" horiz-adv-x="426" d="M40 0V688H393V540H220V421H367V274H220V148H393V0H40ZM149 750V755L201 898H360V893L277 750H149Z" />
<glyph unicode="&#xca;" glyph-name="Ecircumflex" horiz-adv-x="426" d="M40 0V688H393V540H220V421H367V274H220V148H393V0H40ZM63 750V758L136 881H294L369 758V750H259L215 811L173 750H63Z" />
<glyph unicode="&#xcb;" glyph-name="Edieresis" horiz-adv-x="426" d="M40 0V688H393V540H220V421H367V274H220V148H393V0H40ZM59 768V883H195V768H59ZM240 768V883H376V768H240Z" />
<glyph unicode="&#xcc;" glyph-name="Igrave" horiz-adv-x="260" d="M40 0V688H220V0H40ZM91 750L9 893V898H167L220 755V750H91Z" />
<glyph unicode="&#xcd;" glyph-name="Iacute" horiz-adv-x="260" d="M40 0V688H220V0H40ZM43 750V755L95 898H254V893L171 750H43Z" />
<glyph unicode="&#xce;" glyph-name="Icircumflex" horiz-adv-x="260" d="M40 0V688H220V0H40ZM-23 750V758L50 881H208L283 758V750H173L129 811L87 750H-23Z" />
<glyph unicode="&#xcf;" glyph-name="Idieresis" horiz-adv-x="260" d="M40 0V688H220V0H40ZM-29 777V892H107V777H-29ZM152 777V892H288V777H152Z" />
<glyph unicode="&#xd0;" glyph-name="Eth" horiz-adv-x="501" d="M40 279H-4V417H40V688H240Q353 688 400 658T459 563T470 344Q470 190 459 126T401 31T240 0H40V279ZM268 148T277 157T288 201T290 344Q290 452 288 487T277 531T241 540H219V417H262V279H219V148H241Q268
148 277 157Z" />
<glyph unicode="&#xd1;" glyph-name="Ntilde" horiz-adv-x="526" d="M327 0L216 310H211V0H40V688H213L309 421H315V688H486V0H327ZM427 850T423 823T402 779T344 763Q306 763 254 777Q247 778 231 781T205 785Q194 785 192 779T189 751H99Q99 806 103 833T125
877T183 893Q203 893 227 889T273 879Q280 878 296 875T322 871Q333 871 335 877T338 905H427Q427 850 423 823Z" />
<glyph unicode="&#xd2;" glyph-name="Ograve" horiz-adv-x="509" d="M144 -8T98 23T41 121T30 344Q30 501 40 567T97 664T254 696Q364 696 410 665T468 567T479 344Q479 188 468 122T411 24T254 -8Q144 -8 98 23ZM278 140T286 149T296 195T298 344Q298 456 296
492T286 538T254 548Q230 548 223 539T213 493T211 344Q211 232 213 196T222 150T254 140Q278 140 286 149ZM195 750L113 893V898H271L324 755V750H195Z" />
<glyph unicode="&#xd3;" glyph-name="Oacute" horiz-adv-x="509" d="M144 -8T98 23T41 121T30 344Q30 501 40 567T97 664T254 696Q364 696 410 665T468 567T479 344Q479 188 468 122T411 24T254 -8Q144 -8 98 23ZM278 140T286 149T296 195T298 344Q298 456 296
492T286 538T254 548Q230 548 223 539T213 493T211 344Q211 232 213 196T222 150T254 140Q278 140 286 149ZM183 750V755L235 898H394V893L311 750H183Z" />
<glyph unicode="&#xd4;" glyph-name="Ocircumflex" horiz-adv-x="509" d="M144 -8T98 23T41 121T30 344Q30 501 40 567T97 664T254 696Q364 696 410 665T468 567T479 344Q479 188 468 122T411 24T254 -8Q144 -8 98 23ZM278 140T286 149T296 195T298 344Q298 456
296 492T286 538T254 548Q230 548 223 539T213 493T211 344Q211 232 213 196T222 150T254 140Q278 140 286 149ZM101 750V758L174 881H332L407 758V750H297L253 811L211 750H101Z" />
<glyph unicode="&#xd5;" glyph-name="Otilde" horiz-adv-x="509" d="M144 -8T98 23T41 121T30 344Q30 501 40 567T97 664T254 696Q364 696 410 665T468 567T479 344Q479 188 468 122T411 24T254 -8Q144 -8 98 23ZM278 140T286 149T296 195T298 344Q298 456 296
492T286 538T254 548Q230 548 223 539T213 493T211 344Q211 232 213 196T222 150T254 140Q278 140 286 149ZM420 849T416 822T395 778T337 762Q299 762 247 776Q240 777 224 780T198 784Q187 784 185 778T182 750H92Q92 805 96 832T118 876T176 892Q196 892 220
888T266 878Q273 877 289 874T315 870Q326 870 328 876T331 904H420Q420 849 416 822Z" />
<glyph unicode="&#xd6;" glyph-name="Odieresis" horiz-adv-x="509" d="M144 -8T98 23T41 121T30 344Q30 501 40 567T97 664T254 696Q364 696 410 665T468 567T479 344Q479 188 468 122T411 24T254 -8Q144 -8 98 23ZM278 140T286 149T296 195T298 344Q298 456
296 492T286 538T254 548Q230 548 223 539T213 493T211 344Q211 232 213 196T222 150T254 140Q278 140 286 149ZM95 777V892H231V777H95ZM276 777V892H412V777H276Z" />
<glyph unicode="&#xd7;" glyph-name="multiply" horiz-adv-x="464" d="M232 160L150 78L57 171L138 254L56 336L150 430L233 347L315 430L408 336L326 254L408 172L315 77L232 160Z" />
<glyph unicode="&#xd8;" glyph-name="Oslash" horiz-adv-x="509" d="M438 639Q465 603 472 540T479 344Q479 188 468 122T411 24T254 -8Q220 -8 191 -5L173 -55H30L70 49Q43 85 37 147T30 344Q30 501 40 567T97 664T254 696Q289 696 316 693L336 743H479L438 639ZM278
140T286 149T296 195T298 344Q298 456 296 492T286 538T254 548Q230 548 223 539T213 493T211 344Q211 232 213 196T222 150T254 140Q278 140 286 149Z" />
<glyph unicode="&#xd9;" glyph-name="Ugrave" horiz-adv-x="506" d="M469 688V309Q469 170 459 110T403 21T253 -8Q148 -8 103 20T48 109T37 309V688H217V261Q217 196 218 175T226 147T253 141Q272 141 278 147T287 175T289 261V688H469ZM193 750L111 893V898H269L322
755V750H193Z" />
<glyph unicode="&#xda;" glyph-name="Uacute" horiz-adv-x="506" d="M469 688V309Q469 170 459 110T403 21T253 -8Q148 -8 103 20T48 109T37 309V688H217V261Q217 196 218 175T226 147T253 141Q272 141 278 147T287 175T289 261V688H469ZM184 750V755L236 898H395V893L312
750H184Z" />
<glyph unicode="&#xdb;" glyph-name="Ucircumflex" horiz-adv-x="506" d="M469 688V309Q469 170 459 110T403 21T253 -8Q148 -8 103 20T48 109T37 309V688H217V261Q217 196 218 175T226 147T253 141Q272 141 278 147T287 175T289 261V688H469ZM100 750V758L173
881H331L406 758V750H296L252 811L210 750H100Z" />
<glyph unicode="&#xdc;" glyph-name="Udieresis" horiz-adv-x="506" d="M469 688V309Q469 170 459 110T403 21T253 -8Q148 -8 103 20T48 109T37 309V688H217V261Q217 196 218 175T226 147T253 141Q272 141 278 147T287 175T289 261V688H469ZM94 777V892H230V777H94ZM275
777V892H411V777H275Z" />
<glyph unicode="&#xdd;" glyph-name="Yacute" horiz-adv-x="490" d="M155 0V229L-2 688H179L244 410H253L315 688H492L335 229V0H155ZM182 750V755L234 898H393V893L310 750H182Z" />
<glyph unicode="&#xde;" glyph-name="Thorn" horiz-adv-x="483" d="M40 688H220V593H288Q364 593 402 568T454 492T468 353Q468 269 456 219T405 140T288 112H220V0H40V688ZM241 259Q264 259 272 263T284 286T287 353Q287 401 284 419T273 441T241 446H220V259H241Z" />
<glyph unicode="&#xdf;" glyph-name="germandbls" horiz-adv-x="463" d="M235 0V131H238Q254 131 260 137T269 169T271 258Q271 316 269 339T260 368T235 374H232V505H235Q251 505 256 508T263 522T265 563Q265 588 263 600T254 615T235 619Q220 619 214 615T205
594T202 540V0H35V545Q35 617 53 661T114 728T234 750Q342 750 388 711T434 587Q434 525 411 491T339 446V442Q392 430 415 386T439 245Q439 155 425 103T369 26T249 0H235Z" />
<glyph unicode="&#xe0;" glyph-name="agrave" horiz-adv-x="436" d="M70 -8T45 31T19 150Q19 209 31 242T72 291T156 306Q190 306 236 302V322Q236 354 231 367T211 383T154 387Q90 387 42 382V503Q119 518 206 518Q289 518 331 497T388 432T403 307V0H241L237
57H227Q200 -8 131 -8Q70 -8 45 31ZM216 124T222 127T232 139Q236 151 236 186V213H207Q188 213 182 204T176 165Q176 141 180 133T205 124Q216 124 222 127ZM162 595L80 738V743H238L291 600V595H162Z" />
<glyph unicode="&#xe1;" glyph-name="aacute" horiz-adv-x="436" d="M70 -8T45 31T19 150Q19 209 31 242T72 291T156 306Q190 306 236 302V322Q236 354 231 367T211 383T154 387Q90 387 42 382V503Q119 518 206 518Q289 518 331 497T388 432T403 307V0H241L237
57H227Q200 -8 131 -8Q70 -8 45 31ZM216 124T222 127T232 139Q236 151 236 186V213H207Q188 213 182 204T176 165Q176 141 180 133T205 124Q216 124 222 127ZM153 595V600L205 743H364V738L281 595H153Z" />
<glyph unicode="&#xe2;" glyph-name="acircumflex" horiz-adv-x="436" d="M70 -8T45 31T19 150Q19 209 31 242T72 291T156 306Q190 306 236 302V322Q236 354 231 367T211 383T154 387Q90 387 42 382V503Q119 518 206 518Q289 518 331 497T388 432T403 307V0H241L237
57H227Q200 -8 131 -8Q70 -8 45 31ZM216 124T222 127T232 139Q236 151 236 186V213H207Q188 213 182 204T176 165Q176 141 180 133T205 124Q216 124 222 127ZM68 612V620L141 743H299L374 620V612H264L220 673L178 612H68Z" />
<glyph unicode="&#xe3;" glyph-name="atilde" horiz-adv-x="436" d="M70 -8T45 31T19 150Q19 209 31 242T72 291T156 306Q190 306 236 302V322Q236 354 231 367T211 383T154 387Q90 387 42 382V503Q119 518 206 518Q289 518 331 497T388 432T403 307V0H241L237
57H227Q200 -8 131 -8Q70 -8 45 31ZM216 124T222 127T232 139Q236 151 236 186V213H207Q188 213 182 204T176 165Q176 141 180 133T205 124Q216 124 222 127ZM383 688T379 661T358 617T300 601Q262 601 210 615Q203 616 187 619T161 623Q150 623 148 617T145 589H55Q55
644 59 671T81 715T139 731Q159 731 183 727T229 717Q236 716 252 713T278 709Q289 709 291 715T294 743H383Q383 688 379 661Z" />
<glyph unicode="&#xe4;" glyph-name="adieresis" horiz-adv-x="436" d="M70 -8T45 31T19 150Q19 209 31 242T72 291T156 306Q190 306 236 302V322Q236 354 231 367T211 383T154 387Q90 387 42 382V503Q119 518 206 518Q289 518 331 497T388 432T403 307V0H241L237
57H227Q200 -8 131 -8Q70 -8 45 31ZM216 124T222 127T232 139Q236 151 236 186V213H207Q188 213 182 204T176 165Q176 141 180 133T205 124Q216 124 222 127ZM62 615V730H198V615H62ZM243 615V730H379V615H243Z" />
<glyph unicode="&#xe5;" glyph-name="aring" horiz-adv-x="436" d="M70 -8T45 31T19 150Q19 209 31 242T72 291T156 306Q190 306 236 302V322Q236 354 231 367T211 383T154 387Q90 387 42 382V503Q119 518 206 518Q289 518 331 497T388 432T403 307V0H241L237
57H227Q200 -8 131 -8Q70 -8 45 31ZM216 124T222 127T232 139Q236 151 236 186V213H207Q188 213 182 204T176 165Q176 141 180 133T205 124Q216 124 222 127ZM158 838T129 850T92 884T84 952Q84 999 92 1022T129 1056T221 1068Q284 1068 312 1057T349 1022T357
952Q357 907 349 885T313 850T221 838Q158 838 129 850ZM241 913T249 916T259 926T261 952Q261 971 259 979T249 990T221 994Q201 994 193 991T183 979T181 952Q181 933 183 926T193 916T221 913Q241 913 249 916Z" />
<glyph unicode="&#xe6;" glyph-name="ae" horiz-adv-x="644" d="M617 213H403Q403 166 407 150T426 128T484 123Q531 123 605 127V8Q578 1 532 -3T444 -8Q350 -8 308 25Q253 -8 168 -8Q108 -8 76 9T31 61T19 150Q19 209 31 242T72 291T156 306Q190 306 236 302V322Q236
354 231 367T211 383T154 387Q96 387 42 382V503Q117 518 200 518Q279 518 321 486Q363 518 439 518Q526 518 563 493T608 419T617 254V213ZM418 392T413 388T405 366T403 305H463Q463 350 461 366T454 387T432 392Q418 392 413 388ZM236 213H207Q188 213 182 204T176
165Q176 138 180 129T205 119Q219 119 225 124T234 142Q236 153 236 183V213Z" />
<glyph unicode="&#xe7;" glyph-name="ccedilla" horiz-adv-x="347" d="M325 8Q274 -6 227 -7L196 -188H54V-183L121 4Q80 18 59 50T32 130T25 255Q25 353 37 407T87 490T204 518Q269 518 323 504V383Q283 387 254 387Q224 387 213 380T197 346T193 255Q193 189
196 164T212 131T254 123Q279 123 325 127V8Z" />
<glyph unicode="&#xe8;" glyph-name="egrave" horiz-adv-x="431" d="M405 213H190Q190 166 194 150T213 128T271 123Q311 123 393 127V8Q366 1 321 -3T231 -8Q134 -8 91 19T36 97T25 254Q25 358 36 410T88 490T220 518Q310 518 349 493T396 419T405 254V213ZM206
392T200 388T192 366T190 305H250Q250 350 249 366T242 387T220 392Q206 392 200 388ZM164 595L82 738V743H240L293 600V595H164Z" />
<glyph unicode="&#xe9;" glyph-name="eacute" horiz-adv-x="431" d="M405 213H190Q190 166 194 150T213 128T271 123Q311 123 393 127V8Q366 1 321 -3T231 -8Q134 -8 91 19T36 97T25 254Q25 358 36 410T88 490T220 518Q310 518 349 493T396 419T405 254V213ZM206
392T200 388T192 366T190 305H250Q250 350 249 366T242 387T220 392Q206 392 200 388ZM158 595V600L210 743H369V738L286 595H158Z" />
<glyph unicode="&#xea;" glyph-name="ecircumflex" horiz-adv-x="431" d="M405 213H190Q190 166 194 150T213 128T271 123Q311 123 393 127V8Q366 1 321 -3T231 -8Q134 -8 91 19T36 97T25 254Q25 358 36 410T88 490T220 518Q310 518 349 493T396 419T405 254V213ZM206
392T200 388T192 366T190 305H250Q250 350 249 366T242 387T220 392Q206 392 200 388ZM72 612V620L145 743H303L378 620V612H268L224 673L182 612H72Z" />
<glyph unicode="&#xeb;" glyph-name="edieresis" horiz-adv-x="431" d="M405 213H190Q190 166 194 150T213 128T271 123Q311 123 393 127V8Q366 1 321 -3T231 -8Q134 -8 91 19T36 97T25 254Q25 358 36 410T88 490T220 518Q310 518 349 493T396 419T405 254V213ZM206
392T200 388T192 366T190 305H250Q250 350 249 366T242 387T220 392Q206 392 200 388ZM64 615V730H200V615H64ZM245 615V730H381V615H245Z" />
<glyph unicode="&#xec;" glyph-name="igrave" horiz-adv-x="238" d="M35 0V510H203V0H35ZM330 595L248 738V743H406L459 600V595H330Z" />
<glyph unicode="&#xed;" glyph-name="iacute" horiz-adv-x="238" d="M35 0V510H203V0H35ZM35 595V600L87 743H246V738L163 595H35Z" />
<glyph unicode="&#xee;" glyph-name="icircumflex" horiz-adv-x="238" d="M35 0V510H203V0H35ZM222 612V620L295 743H453L528 620V612H418L374 673L332 612H222Z" />
<glyph unicode="&#xef;" glyph-name="idieresis" horiz-adv-x="238" d="M35 0V510H203V0H35ZM216 615V730H352V615H216ZM397 615V730H533V615H397Z" />
<glyph unicode="&#xf0;" glyph-name="eth" horiz-adv-x="443" d="M130 -8T89 15T37 89T25 254Q25 352 34 406T73 489T164 518Q192 518 221 512L225 516Q216 555 204 587L108 574V665L158 672Q144 695 108 739V743H279Q295 724 315 694L412 708V617L364 609Q391
542 407 447Q419 370 419 252Q419 140 408 89T355 15T222 -8Q130 -8 89 15ZM238 123T243 130T250 161T252 255Q252 324 251 348T244 380T222 387Q206 387 200 380T193 349T191 255Q191 186 192 162T200 130T222 123Q238 123 243 130Z" />
<glyph unicode="&#xf1;" glyph-name="ntilde" horiz-adv-x="457" d="M257 272Q257 328 256 347T249 371T230 376Q215 376 210 370T204 343T202 258V0H35V510H196L200 453H209Q236 518 315 518Q361 518 384 499T416 443T424 338V0H257V272ZM395 688T391 661T370
617T312 601Q274 601 222 615Q215 616 199 619T173 623Q162 623 160 617T157 589H67Q67 644 71 671T93 715T151 731Q171 731 195 727T241 717Q248 716 264 713T290 709Q301 709 303 715T306 743H395Q395 688 391 661Z" />
<glyph unicode="&#xf2;" glyph-name="ograve" horiz-adv-x="443" d="M130 -8T89 14T37 88T25 255Q25 370 36 421T89 495T222 518Q314 518 354 496T407 421T419 255Q419 141 407 89T355 15T222 -8Q130 -8 89 14ZM238 123T243 130T250 161T252 255Q252 324 251 348T244
380T222 387Q206 387 200 380T193 349T191 255Q191 186 192 162T200 130T222 123Q238 123 243 130ZM160 595L78 738V743H236L289 600V595H160Z" />
<glyph unicode="&#xf3;" glyph-name="oacute" horiz-adv-x="443" d="M130 -8T89 14T37 88T25 255Q25 370 36 421T89 495T222 518Q314 518 354 496T407 421T419 255Q419 141 407 89T355 15T222 -8Q130 -8 89 14ZM238 123T243 130T250 161T252 255Q252 324 251 348T244
380T222 387Q206 387 200 380T193 349T191 255Q191 186 192 162T200 130T222 123Q238 123 243 130ZM150 595V600L202 743H361V738L278 595H150Z" />
<glyph unicode="&#xf4;" glyph-name="ocircumflex" horiz-adv-x="443" d="M130 -8T89 14T37 88T25 255Q25 370 36 421T89 495T222 518Q314 518 354 496T407 421T419 255Q419 141 407 89T355 15T222 -8Q130 -8 89 14ZM238 123T243 130T250 161T252 255Q252 324
251 348T244 380T222 387Q206 387 200 380T193 349T191 255Q191 186 192 162T200 130T222 123Q238 123 243 130ZM70 612V620L143 743H301L376 620V612H266L222 673L180 612H70Z" />
<glyph unicode="&#xf5;" glyph-name="otilde" horiz-adv-x="443" d="M130 -8T89 14T37 88T25 255Q25 370 36 421T89 495T222 518Q314 518 354 496T407 421T419 255Q419 141 407 89T355 15T222 -8Q130 -8 89 14ZM238 123T243 130T250 161T252 255Q252 324 251 348T244
380T222 387Q206 387 200 380T193 349T191 255Q191 186 192 162T200 130T222 123Q238 123 243 130ZM388 688T384 661T363 617T305 601Q267 601 215 615Q208 616 192 619T166 623Q155 623 153 617T150 589H60Q60 644 64 671T86 715T144 731Q164 731 188 727T234
717Q241 716 257 713T283 709Q294 709 296 715T299 743H388Q388 688 384 661Z" />
<glyph unicode="&#xf6;" glyph-name="odieresis" horiz-adv-x="443" d="M130 -8T89 14T37 88T25 255Q25 370 36 421T89 495T222 518Q314 518 354 496T407 421T419 255Q419 141 407 89T355 15T222 -8Q130 -8 89 14ZM238 123T243 130T250 161T252 255Q252 324 251
348T244 380T222 387Q206 387 200 380T193 349T191 255Q191 186 192 162T200 130T222 123Q238 123 243 130ZM64 615V730H200V615H64ZM245 615V730H381V615H245Z" />
<glyph unicode="&#xf7;" glyph-name="divide" horiz-adv-x="473" d="M170 368V472H303V368H170ZM56 187V319H417V187H56ZM170 34V139H303V34H170Z" />
<glyph unicode="&#xf8;" glyph-name="oslash" horiz-adv-x="443" d="M62 36Q38 62 32 110T25 255Q25 370 36 421T89 495T222 518Q245 518 256 517L276 565H419L382 473Q405 446 412 397T419 255Q419 141 407 89T355 15T222 -8Q197 -8 187 -7L168 -55H25L62 36ZM238
123T243 130T250 161T252 255Q252 324 251 348T244 380T222 387Q206 387 200 380T193 349T191 255Q191 186 192 162T200 130T222 123Q238 123 243 130Z" />
<glyph unicode="&#xf9;" glyph-name="ugrave" horiz-adv-x="457" d="M257 57H248Q221 -8 142 -8Q96 -8 73 11T41 67T33 172V510H200V238Q200 182 201 163T208 139T228 134Q243 134 248 140T254 167T255 252V510H422V0H261L257 57ZM168 595L86 738V743H244L297
600V595H168Z" />
<glyph unicode="&#xfa;" glyph-name="uacute" horiz-adv-x="457" d="M257 57H248Q221 -8 142 -8Q96 -8 73 11T41 67T33 172V510H200V238Q200 182 201 163T208 139T228 134Q243 134 248 140T254 167T255 252V510H422V0H261L257 57ZM162 595V600L214 743H373V738L290
595H162Z" />
<glyph unicode="&#xfb;" glyph-name="ucircumflex" horiz-adv-x="457" d="M257 57H248Q221 -8 142 -8Q96 -8 73 11T41 67T33 172V510H200V238Q200 182 201 163T208 139T228 134Q243 134 248 140T254 167T255 252V510H422V0H261L257 57ZM76 612V620L149 743H307L382
620V612H272L228 673L186 612H76Z" />
<glyph unicode="&#xfc;" glyph-name="udieresis" horiz-adv-x="457" d="M257 57H248Q221 -8 142 -8Q96 -8 73 11T41 67T33 172V510H200V238Q200 182 201 163T208 139T228 134Q243 134 248 140T254 167T255 252V510H422V0H261L257 57ZM70 615V730H206V615H70ZM251
615V730H387V615H251Z" />
<glyph unicode="&#xfd;" glyph-name="yacute" horiz-adv-x="457" d="M177 -206T135 -203T66 -194V-75H175Q218 -75 232 -71T251 -50T255 16V72H246Q219 7 142 7Q95 7 72 25T41 81T33 187V510H200V252Q200 197 201 178T208 153T228 148Q243 148 248 154T254 181T255
267V510H422V56Q422 -46 411 -97T357 -177T217 -206Q177 -206 135 -203ZM159 595V600L211 743H370V738L287 595H159Z" />
<glyph unicode="&#xfe;" glyph-name="thorn" d="M35 743H202V454H211Q223 489 248 503T307 518Q353 518 379 496T417 417T429 256Q429 154 418 98T381 17T307 -8Q272 -8 248 6T211 52H202V-189H35V743ZM249 133T254 138T260 166T262 255Q262 322 261 344T254 371T232
377Q217 377 212 372T204 344Q202 327 202 255Q202 180 203 168Q206 145 212 139T232 133Q249 133 254 138Z" />
<glyph unicode="&#xff;" glyph-name="ydieresis" horiz-adv-x="457" d="M177 -206T135 -203T66 -194V-75H175Q218 -75 232 -71T251 -50T255 16V72H246Q219 7 142 7Q95 7 72 25T41 81T33 187V510H200V252Q200 197 201 178T208 153T228 148Q243 148 248 154T254
181T255 267V510H422V56Q422 -46 411 -97T357 -177T217 -206Q177 -206 135 -203ZM70 615V730H206V615H70ZM251 615V730H387V615H251Z" />
<glyph unicode="&#x2013;" glyph-name="endash" d="M37 240V370H417V240H37Z" />
<glyph unicode="&#x2014;" glyph-name="emdash" horiz-adv-x="820" d="M37 240V370H782V240H37Z" />
<glyph unicode="&#x2018;" glyph-name="quoteleft" horiz-adv-x="270" d="M53 494Q53 575 64 614T109 671T216 688V622Q180 622 170 607T159 549V536H218V393H53V494Z" />
<glyph unicode="&#x2019;" glyph-name="quoteright" horiz-adv-x="270" d="M89 460T100 475T111 532V546H52V688H217V587Q217 506 206 467T161 410T54 393V460Q89 460 100 475Z" />
<glyph unicode="&#x201a;" glyph-name="quotesinglbase" horiz-adv-x="267" d="M89 -86T99 -71T110 -13V0H51V143H216V42Q216 -40 206 -79T161 -136T54 -153V-86Q89 -86 99 -71Z" />
<glyph unicode="&#x201c;" glyph-name="quotedblleft" horiz-adv-x="485" d="M53 494Q53 575 64 614T109 671T216 688V622Q180 622 170 607T159 549V536H218V393H53V494ZM267 494Q267 575 278 614T323 671T430 688V622Q395 622 385 607T374 549V536H433V393H267V494Z" />
<glyph unicode="&#x201d;" glyph-name="quotedblright" horiz-adv-x="485" d="M89 460T100 475T111 532V546H52V688H217V587Q217 506 206 467T161 410T54 393V460Q89 460 100 475ZM304 460T314 475T325 532V546H266V688H431V587Q431 505 421 466T376 410T269 393V460Q304
460 314 475Z" />
<glyph unicode="&#x201e;" glyph-name="quotedblbase" horiz-adv-x="482" d="M89 -86T99 -71T110 -13V0H51V143H216V42Q216 -40 206 -79T161 -136T54 -153V-86Q89 -86 99 -71ZM303 -86T314 -71T325 -13V0H265V143H431V42Q431 -40 420 -79T375 -136T268 -153V-86Q303
-86 314 -71Z" />
<glyph unicode="&#x2022;" glyph-name="bullet" horiz-adv-x="300" d="M258 291T253 271T225 244T149 236Q97 236 76 243T49 271T43 342Q43 395 48 415T75 443T149 451Q203 451 225 444T252 416T258 342Q258 291 253 271Z" />
<glyph unicode="&#x2039;" glyph-name="guilsinglleft" horiz-adv-x="263" d="M114 124L28 317L114 510H227L164 317L227 124H114Z" />
<glyph unicode="&#x203a;" glyph-name="guilsinglright" horiz-adv-x="263" d="M36 124L99 317L36 510H149L235 317L149 124H36Z" />
</font>
</defs>
</svg>
