<?xml version="1.0" standalone="no"?>
<!DOCTYPE svg PUBLIC "-//W3C//DTD SVG 1.1//EN" "http://www.w3.org/Graphics/SVG/1.1/DTD/svg11.dtd">
<svg xmlns="http://www.w3.org/2000/svg">
<defs >
<font id="Sahitya" horiz-adv-x="532" ><font-face
    font-family="Sahitya"
    units-per-em="1000"
    panose-1="0 0 8 0 0 0 0 0 0 0"
    ascent="1106"
    descent="-447"
    alphabetic="0" />
<glyph unicode=" " glyph-name="space" horiz-adv-x="174" />
<glyph unicode="!" glyph-name="exclam" horiz-adv-x="285" d="M218 705L234 687L172 234L108 223L92 236L72 666L84 683L218 705ZM88 -11T69 9T50 65Q50 101 72 124T131 147Q166 147 186 127T206 72Q206 35 184 12T124 -11Q88 -11 69 9Z" />
<glyph unicode="&quot;" glyph-name="quotedbl" horiz-adv-x="321" d="M149 625T139 560T113 428L65 408L50 412L51 457Q51 518 48 571T43 640L144 654L152 644Q149 625 139 560ZM294 625T284 560T258 428L210 408L195 412L196 457Q196 518 193 571T188 640L289
654L297 644Q294 625 284 560Z" />
<glyph unicode="#" glyph-name="numbersign" horiz-adv-x="526" d="M157 431L184 570L257 577L268 571L237 431H284L331 430L358 570L431 577L442 571L411 431L508 433L513 421L499 351H395L390 323L377 258L474 259L479 247L465 178H363L337 44L266 33L256 41L284
178L228 179L190 178L164 44L93 33L83 41L111 178L15 177L9 189L24 258L125 257L135 309L144 351H49L43 362L58 432L157 431ZM247 257L298 256L309 309L317 352H222L216 323L203 257H247Z" />
<glyph unicode="$" glyph-name="dollar" horiz-adv-x="466" d="M428 86T379 45T243 -6L227 -151L148 -159L142 -152L158 -8Q127 -5 101 1T61 13T42 21L34 33Q36 45 42 85T49 164L127 170Q127 114 145 93T212 71Q248 71 269 85T290 122Q290 145 267 161T192 200L170
209Q109 238 75 269T41 351Q41 411 88 453T215 506L230 649L310 658L316 649L300 509Q330 507 355 503T395 494T414 489L421 477Q419 466 412 427T401 343L330 337L322 343L323 365Q323 397 305 411T248 426Q216 426 196 413T175 377Q175 352 201 336T283 295Q351
266 389 235T428 149Q428 86 379 45Z" />
<glyph unicode="%" glyph-name="percent" horiz-adv-x="713" d="M585 590T495 452T348 227Q279 116 222 27T145 -93L81 -66L76 -52Q96 -22 162 78T283 264L544 678L606 653L614 634Q585 590 495 452ZM92 309T55 353T18 474Q18 555 61 604T176 654Q245 654 281
610T317 492Q317 411 275 360T160 309Q92 309 55 353ZM254 408T254 474Q254 509 230 530T161 551Q122 551 102 534T81 486Q81 447 106 428T172 408Q254 408 254 474ZM483 -12T446 32T408 154Q408 235 451 284T566 333Q635 333 671 289T707 171Q707 90 665 39T550
-12Q483 -12 446 32ZM643 88T643 153Q643 188 619 209T550 231Q511 231 491 214T470 165Q470 126 495 107T561 88Q643 88 643 153Z" />
<glyph unicode="&amp;" glyph-name="ampersand" horiz-adv-x="720" d="M496 229T496 267Q496 315 479 337T423 360Q406 360 390 357T370 353L350 420Q352 421 360 425T384 432T419 437L624 449Q704 456 706 460L720 437L702 387Q695 371 681 365T633 359H550L547
352Q561 336 569 315T577 270Q577 211 535 148L672 32V16Q667 12 650 0T612 -23T578 -34Q565 -34 455 64Q412 28 362 8T266 -12Q160 -12 101 34T41 163Q41 215 68 251T130 307T165 325V334Q123 378 105 413T86 484Q86 534 114 572T193 632T309 654Q346 654 377
649T426 639T448 631L451 614L402 523L385 522Q357 547 333 557T280 568Q244 568 224 551T204 502Q204 461 232 422T336 318L483 192Q496 229 496 267ZM186 270T171 244T156 188Q156 137 195 106T297 74Q360 74 409 106L212 287Q186 270 171 244Z" />
<glyph unicode="&apos;" glyph-name="quotesingle" horiz-adv-x="176" d="M149 625T139 560T113 428L65 408L50 412L51 457Q51 518 48 571T43 640L144 654L152 644Q149 625 139 560Z" />
<glyph unicode="(" glyph-name="parenleft" horiz-adv-x="309" d="M70 445T110 514T199 620T249 649H259L291 603L290 597Q290 602 260 574T205 491T180 351V178Q180 85 205 24T262 -69T294 -96V-104L254 -146H246Q246 -153 197 -118T109 -14T70 163V336Q70 445 110 514Z" />
<glyph unicode=")" glyph-name="parenright" horiz-adv-x="309" d="M239 58T200 -11T111 -117T61 -146H50L19 -100L20 -94Q20 -99 50 -71T105 12T129 152V325Q129 418 104 479T47 572T15 599V607L56 649H64Q64 656 112 621T200 517T239 340V167Q239 58 200 -11Z" />
<glyph unicode="*" glyph-name="asterisk" horiz-adv-x="412" d="M255 726T247 692T225 618L183 613L176 617Q175 652 173 686T170 730Q177 732 202 738T250 744L257 736Q255 726 247 692ZM71 668T101 650T165 607L157 566L150 560Q117 571 84 579T41 590Q41 598
43 623T52 670L62 673Q71 668 101 650ZM366 570T331 567T254 564L236 601L238 611Q271 622 303 634T344 651Q346 648 352 638T368 612T382 579L376 571Q366 570 331 567ZM252 415T238 447T212 520L242 549H252Q272 522 293 496T322 461Q322 459 304 438T266 403L256
406Q252 415 238 447ZM69 476T95 499T156 546L193 526L196 518Q176 490 158 461T135 423Q132 424 121 428T92 440T62 459V469Q69 476 95 499Z" />
<glyph unicode="+" glyph-name="plus" horiz-adv-x="506" d="M304 472T302 420T299 306Q361 307 413 309T483 312L489 300L479 208L299 207L300 39L212 24L201 32L202 207L24 206L17 217L31 307L202 306L203 486L293 497L305 490Q304 472 302 420Z" />
<glyph unicode="," glyph-name="comma" horiz-adv-x="238" d="M93 142T127 142Q157 142 175 118T194 53Q194 1 150 -51T41 -140L4 -110V-93Q36 -71 56 -40T76 21Q76 40 67 60T45 94L48 108Q93 142 127 142Z" />
<glyph unicode="-" glyph-name="hyphen" horiz-adv-x="324" d="M45 194L35 206L43 284L207 303Q241 307 258 309T280 313L290 300L281 220L45 194Z" />
<glyph unicode="." glyph-name="period" horiz-adv-x="238" d="M79 -11T60 9T41 65Q41 101 63 124T122 147Q157 147 177 127T197 72Q197 35 175 12T115 -11Q79 -11 60 9Z" />
<glyph unicode="/" glyph-name="slash" horiz-adv-x="329" d="M306 613T271 483T198 215Q167 95 144 7T114 -110H29L20 -99Q29 -70 58 30T111 226L226 675H307L319 660Q306 613 271 483Z" />
<glyph unicode="0" glyph-name="zero" horiz-adv-x="501" d="M140 -12T83 54T26 237Q26 318 56 380T140 476T264 510Q362 510 418 444T475 263Q475 181 446 119T363 23T239 -12Q140 -12 83 54ZM321 119T357 151T394 240Q394 302 354 338T244 374Q180 374 144 342T107
251Q107 191 147 155T255 119Q321 119 357 151Z" />
<glyph unicode="1" glyph-name="one" horiz-adv-x="365" d="M246 289T246 132Q246 95 255 80T290 65Q308 65 321 66T338 68L341 63L330 -4Q315 -3 273 -2T186 0Q142 0 89 -5T31 -11L39 52Q90 57 109 76T128 144V359Q128 394 117 405T77 416Q65 416 49 414T27 411L21
418L27 475Q80 480 147 490Q221 500 251 505T284 510L294 480Q276 465 268 449T256 402Q246 289 246 132Z" />
<glyph unicode="2" glyph-name="two" horiz-adv-x="484" d="M170 199T204 253T238 343Q238 372 222 388T176 404Q147 404 117 384T64 327H50L33 401Q72 452 123 481T228 510Q298 510 341 475T384 381Q384 349 368 315T313 232T197 101L201 93H297Q344 93 363 111T393
184L469 191Q465 173 455 114T441 3L427 -9Q387 -8 267 -4T87 0L23 -9L15 24L90 107Q170 199 204 253Z" />
<glyph unicode="3" glyph-name="three" horiz-adv-x="431" d="M62 3T110 3Q173 3 214 30T256 98Q256 139 220 158T108 178L99 188L92 250L157 264Q191 279 211 305T232 360Q232 384 215 399T170 414Q145 414 116 401T61 365L49 364L28 435Q56 458 112 484T214
510Q281 510 321 478T362 393Q362 352 332 315T251 257V249Q319 231 354 198T390 117Q390 66 346 15T233 -68T92 -100Q50 -100 32 -77T11 2L24 16Q62 3 110 3Z" />
<glyph unicode="4" glyph-name="four" horiz-adv-x="468" d="M5 140L270 508L276 510L360 499V157H442L450 146L441 63L361 66Q362 20 364 -23T367 -79L359 -88L244 -100L236 -90Q237 -75 238 -31T242 69Q84 73 2 73L5 140ZM242 335H232L107 157H242V335Z" />
<glyph unicode="5" glyph-name="five" horiz-adv-x="427" d="M384 72T339 19T222 -67T81 -100Q41 -100 23 -78T1 2L14 16Q54 3 100 3Q165 3 208 30T251 99Q251 138 209 160T62 198L53 209Q61 291 66 373T73 479L81 487L274 494Q304 496 317 504T337 534L392 538L366
391L354 378Q338 379 280 382T154 386L146 297Q266 273 325 235T384 130Q384 72 339 19Z" />
<glyph unicode="6" glyph-name="six" horiz-adv-x="464" d="M405 541T356 515T257 443T180 330L185 324Q192 327 222 342T271 361Q323 361 361 338T419 276T439 191Q439 132 412 86T336 14T222 -12Q163 -12 120 15T52 92T28 204Q28 338 105 425T278 559T375 598L385
593L405 538Q405 541 356 515ZM209 273T188 264T153 245Q150 224 150 203Q150 140 173 105T240 69Q278 69 299 94T320 166Q320 213 296 243T232 273Q209 273 188 264Z" />
<glyph unicode="7" glyph-name="seven" horiz-adv-x="427" d="M83 -48L306 394L172 386Q140 383 124 376T100 351T85 298L25 292Q27 311 34 375T44 497L50 502Q60 501 96 500T172 498H389L428 450Q312 207 232 13L201 -100H185L94 -73L83 -48Z" />
<glyph unicode="8" glyph-name="eight" horiz-adv-x="479" d="M38 186T71 222T150 278Q104 306 78 342T51 429Q51 474 77 513T149 575T252 598Q298 598 337 581T401 532T425 458Q425 410 399 376T335 323Q383 295 411 260T439 174Q439 122 411 80T334 13T224 -12Q145
-12 92 27T38 130Q38 186 71 222ZM168 431T182 414T216 384T275 353Q315 385 315 435Q315 475 294 497T239 519Q207 519 188 500T168 453Q168 431 182 414ZM277 62T300 84T324 140Q324 164 308 182T272 211T203 247Q147 211 147 156Q147 117 173 90T241 62Q277
62 300 84Z" />
<glyph unicode="9" glyph-name="nine" horiz-adv-x="464" d="M58 -43T107 -18T205 54T282 167L278 174Q271 171 241 155T193 137Q141 137 103 160T44 221T24 307Q24 366 51 412T127 484T241 510Q300 510 343 483T411 406T435 294Q435 160 358 72T185 -62T88 -101L78
-95L58 -40Q58 -43 107 -18ZM269 225T311 252Q314 273 314 295Q314 357 291 393T225 429Q186 429 165 404T144 332Q144 284 167 255T232 225Q269 225 311 252Z" />
<glyph unicode=":" glyph-name="colon" horiz-adv-x="238" d="M333 -11T314 9T295 65Q295 101 317 124T376 147Q411 147 431 127T451 72Q451 35 429 12T369 -11Q333 -11 314 9ZM77 262T58 282T39 338Q39 374 61 397T120 420Q155 420 175 400T195 345Q195 308 173
285T113 262Q77 262 58 282Z" />
<glyph unicode=";" glyph-name="semicolon" horiz-adv-x="238" d="M93 142T127 142Q157 142 175 118T194 53Q194 1 150 -51T41 -140L4 -110V-93Q36 -71 56 -40T76 21Q76 40 67 60T45 94L48 108Q93 142 127 142ZM77 262T58 282T39 338Q39 374 61 397T120 420Q155
420 175 400T195 345Q195 308 173 285T113 262Q77 262 58 282Z" />
<glyph unicode="&lt;" glyph-name="less" horiz-adv-x="470" d="M220 405L397 481L410 473L430 397Q413 391 356 369T250 326L127 276V269L263 209L427 137L431 122L389 57L225 131Q166 157 111 181T36 213L28 225L29 323L220 405Z" />
<glyph unicode="=" glyph-name="equal" horiz-adv-x="506" d="M252 297L24 296L17 307L31 397L266 396Q316 396 388 398T483 402L489 390L479 298L252 297ZM252 119L24 118L17 129L31 219L266 218Q316 218 388 220T483 224L489 212L479 120L252 119Z" />
<glyph unicode="&gt;" glyph-name="greater" horiz-adv-x="470" d="M250 132L73 57L60 64L40 141Q57 147 114 168T221 211L344 261V268L208 328L44 400L39 416L81 481L245 406L434 325L442 312L441 214L250 132Z" />
<glyph unicode="?" glyph-name="question" horiz-adv-x="370" d="M188 424Q241 456 241 496Q241 543 193 569T57 600L49 614L86 698L101 705Q173 703 232 680T326 617T360 531Q360 490 344 461T299 409T213 346L195 334L192 327L207 244L201 233L113 215L101 221L77
347L80 362L188 424ZM115 -11T96 9T77 65Q77 101 99 124T158 147Q193 147 213 127T233 72Q233 35 211 12T151 -11Q115 -11 96 9Z" />
<glyph unicode="@" glyph-name="at" horiz-adv-x="863" d="M473 -12T461 -1T449 29Q449 47 483 193L475 194Q431 113 393 65T314 -12Q259 -12 230 27T200 134Q200 214 236 291T328 417T441 466L527 448L534 470L546 477L626 463L634 446Q630 430 616 373T585 235T558
84L563 78Q651 78 701 137T752 294Q752 420 672 491T453 562Q354 562 277 515T156 385T113 205Q113 98 155 18T283 -108T493 -158L492 -174L461 -224Q324 -221 226 -169T76 -27T24 179Q24 299 84 406T250 577T481 642Q588 642 669 602T795 491T839 326Q839 230
798 153T679 32T493 -12Q473 -12 461 -1ZM360 105T386 139T443 232T498 358Q447 387 410 387Q389 387 369 359T337 284T324 189Q324 154 330 130T346 105Q360 105 386 139Z" />
<glyph unicode="A" glyph-name="A" horiz-adv-x="625" d="M563 96T580 81T630 63L634 56L627 -3Q614 -2 578 -1T504 0Q451 0 400 -3T335 -8L330 0L335 61Q369 64 384 67T406 77T412 97Q412 109 406 130L386 206Q360 207 295 207Q256 207 200 200L176 125Q170 104
170 94Q170 77 180 71T216 64H258L263 57L256 -6Q242 -5 196 -3T110 0Q68 0 34 -1T-12 -3L-4 64Q20 68 34 82T61 130L239 637L398 653L409 648Q424 591 471 415T552 132Q563 96 580 81ZM326 286T368 290L310 510H296L224 286H294Q326 286 368 290Z" />
<glyph unicode="B" glyph-name="B" horiz-adv-x="629" d="M146 0T99 -4T36 -10L43 58Q86 65 101 81T116 137L117 527Q117 555 110 566T85 577Q75 577 65 576T51 575L44 583L54 644Q71 644 113 643T192 642Q231 642 279 644T346 647Q450 647 504 608T558 492Q558
442 530 404T451 339Q515 322 553 285T592 190Q592 130 560 85T468 15T331 -10Q308 -10 266 -5Q254 -4 226 -2T182 0Q146 0 99 -4ZM265 368T300 364T348 360Q348 358 367 370T401 406T417 466Q417 516 384 540T279 564Q269 564 266 561T261 546Q255 467 253 369Q265
368 300 364ZM247 103T269 90T341 76Q390 76 417 102T444 176Q444 216 418 243T343 281L251 280L247 135Q247 103 269 90Z" />
<glyph unicode="C" glyph-name="C" horiz-adv-x="617" d="M234 -12T167 26T64 135T28 304Q28 410 71 489T193 611T378 654Q415 654 457 649T530 637T569 629L575 616Q573 609 568 584T558 516T549 427L450 420Q450 425 451 439T452 473Q452 516 426 536T343 557Q265
557 225 502T184 338Q184 216 228 149T350 82Q404 82 434 114T476 220L575 227Q572 209 565 151T555 40L545 28Q545 27 512 17T429 -3T325 -12Q234 -12 167 26Z" />
<glyph unicode="D" glyph-name="D" horiz-adv-x="693" d="M302 -10T252 -5T166 0Q134 0 93 -4T38 -10L45 59Q87 67 102 84T117 143V522Q117 554 111 565T86 576Q75 576 66 575T53 574L47 583L55 645Q69 645 107 644T183 642Q227 642 275 644T341 647Q493 647 579
568T665 347Q665 243 621 161T497 34T318 -12Q302 -10 252 -5ZM272 560T267 555T260 536Q247 263 247 146Q247 117 254 102T278 81T330 75Q417 75 462 135T507 316Q507 443 454 501T288 560Q272 560 267 555Z" />
<glyph unicode="E" glyph-name="E" horiz-adv-x="597" d="M247 111T251 99T268 83T311 79Q376 79 405 87T447 117T467 193L551 200L559 190Q556 174 547 119T531 4L521 -7Q490 -6 389 -3T210 0Q154 0 103 -4T36 -10L43 58Q85 64 100 82T115 144L116 523Q116 555
110 566T84 577Q74 577 66 576T54 575L47 584L55 645Q73 644 126 643T239 642Q451 642 543 654L551 643Q548 628 540 574T528 461L437 455Q437 459 438 471T439 495Q439 524 431 536T397 553T312 558Q287 558 277 556T264 548T260 525L253 370L346 369Q367 369
408 372T462 377L470 368L456 282Q443 283 405 284T325 285Q303 285 249 279Q247 206 247 139Q247 111 251 99Z" />
<glyph unicode="F" glyph-name="F" d="M247 104T255 91T290 78Q306 78 327 80T355 84L363 73L352 -4Q335 -3 289 -2T197 0Q150 0 100 -4T36 -11L43 57Q86 64 100 82T115 144L116 523Q116 555 110 566T84 577Q74 577 66 576T54 575L47 584L55 645Q73 644 126 643T239
642Q435 642 520 654L528 643Q525 627 518 573T507 460L416 454Q416 459 417 471T418 495Q418 523 411 536T382 553T312 558Q287 558 277 556T264 548T260 525L252 353L346 352Q365 352 402 355T451 360L458 351L444 265Q432 266 398 267T325 268Q289 268 249 261L247
142Q247 104 255 91Z" />
<glyph unicode="G" glyph-name="G" horiz-adv-x="654" d="M587 281T579 265T567 218T564 128Q564 68 571 41L562 28Q562 27 529 17T443 -3T326 -12Q235 -12 168 26T64 135T28 304Q28 412 70 491T193 612T384 654Q423 654 467 649T542 637T582 629L589 616Q587
610 582 585T572 519T563 432L464 426Q465 430 466 444T467 480Q467 522 443 539T360 557Q270 557 227 503T183 338Q183 215 227 149T351 82Q377 82 398 88T432 100T447 108V201Q447 230 439 239T403 249H352L346 257L357 329Q382 329 400 328L496 327Q527 327
558 329T598 332L605 293Q587 281 579 265Z" />
<glyph unicode="H" glyph-name="H" horiz-adv-x="747" d="M636 444T633 329T629 133Q629 94 637 80T670 66Q683 66 693 67T707 69L712 61L703 -3Q689 -2 648 -1T557 0Q518 0 476 -1T417 -2L426 64Q455 65 470 73T491 100T497 156V283L390 284Q373 284 320 280T249
274L247 133Q247 92 254 79T285 65Q299 65 309 66T322 68L327 61L318 -3Q304 -3 268 -2T196 0Q152 0 95 -3T37 -9L44 56Q88 65 102 81T116 140V525Q116 556 109 566T80 577L50 576L45 584L52 643L172 642Q203 642 254 645T323 649L318 582Q292 578 280 572T264
552T258 511L252 368L380 366Q441 366 497 373L498 525Q498 556 491 566T462 577L431 576L426 584L433 643L561 642Q590 642 641 645T708 649L703 583Q666 578 655 568T641 528Q636 444 633 329Z" />
<glyph unicode="I" glyph-name="I" horiz-adv-x="365" d="M247 286T247 133Q247 92 255 79T286 65Q302 65 313 66T328 68L333 61L324 -3Q307 -3 263 -2T176 0Q140 0 95 -3T36 -9L43 56Q87 65 101 82T116 140V525Q116 556 109 566T80 577L46 576L41 584L48 643L187
642Q215 642 264 645T330 649L324 582Q286 577 274 567T259 528Q247 286 247 133Z" />
<glyph unicode="J" glyph-name="J" horiz-adv-x="333" d="M107 557T101 567T73 577Q61 577 49 576T31 574L26 582L33 642H157Q200 643 247 646T309 650L303 582Q271 576 262 567T251 528Q247 459 243 321T238 101Q238 2 190 -59T38 -154L10 -113L13 -102Q51 -74
71 -46T99 20T107 123V525Q107 557 101 567Z" />
<glyph unicode="K" glyph-name="K" horiz-adv-x="659" d="M117 556T110 566T81 577L51 576L45 584L53 644L188 642Q215 642 262 645T326 649L320 582Q283 574 271 563T257 524L248 133Q247 92 254 79T286 65Q301 65 311 66T325 68L330 61L321 -3Q305 -3 262 -2T177
0Q131 0 91 -1T37 -3L46 61Q76 66 90 73T110 96T116 140L117 525Q117 556 110 566ZM443 524T443 547Q443 562 431 569T391 578L387 585L395 647Q409 646 451 644T520 642Q554 642 589 643T637 646L644 635L636 578Q605 565 577 541T505 464L402 348L534 146Q564
101 589 81T648 59L655 50L646 -3Q630 -5 586 -10T530 -15Q498 -15 472 5T418 69L267 316L270 338L417 498Q443 524 443 547Z" />
<glyph unicode="L" glyph-name="L" horiz-adv-x="531" d="M158 0T107 -4T42 -10L49 58Q87 64 101 82T116 144L117 525Q117 557 110 567T80 577L50 576L45 584L52 643L188 642Q216 642 270 645T343 649L336 578Q302 574 287 567T266 547T259 505Q248 335 248 139Q248
113 252 101T270 84T310 79Q359 79 383 90T419 133T439 231L523 240L530 230Q527 211 519 144T504 3L494 -8Q467 -7 377 -4T213 0Q158 0 107 -4Z" />
<glyph unicode="M" glyph-name="M" horiz-adv-x="841" d="M283 256T215 445H206Q203 394 195 254T186 98Q186 65 218 65Q227 65 237 66T252 67L257 61L247 -4Q233 -3 197 -2T128 0Q103 0 70 -3T27 -8L33 59Q64 63 77 78T94 131Q94 139 97 155Q134 513 134 531Q134
558 120 567T59 581L53 587L62 647Q77 646 115 644T190 642Q224 642 256 643T299 646Q337 507 374 388T422 235H431Q442 268 481 387T561 643Q584 643 598 642L653 641L685 642Q717 643 746 645T786 648L790 644L784 582Q741 579 726 568T711 529Q711 497 719 373T735
157Q740 103 750 85T783 66Q793 66 801 67T812 68L816 62L807 -3Q797 -2 768 -1T705 0Q681 0 623 -3T559 -8L566 60Q595 63 608 74T622 109Q622 133 614 265T602 445H593Q510 213 440 -7L368 -16Q283 256 215 445Z" />
<glyph unicode="N" glyph-name="N" horiz-adv-x="729" d="M527 557T520 567T495 577L460 576L457 584L464 646Q478 645 516 644T593 642Q624 642 661 644T711 647L706 580Q673 575 659 561T643 517L629 -14L524 -27Q455 83 390 182T284 341T232 417H222L221 109Q222
84 229 74T256 64Q267 64 280 65T299 67L304 60L294 -4Q280 -3 242 -2T165 0Q131 0 93 -3T43 -8L50 59Q80 63 94 77T110 122L123 517Q123 549 107 561T41 579L34 589L41 647Q52 646 89 644T157 642Q184 642 214 643T253 646Q334 513 427 373T520 235H530L528 534Q527
557 520 567Z" />
<glyph unicode="O" glyph-name="O" horiz-adv-x="674" d="M227 -12T162 26T63 136T28 304Q28 409 68 488T183 610T356 654Q492 654 569 571T646 341Q646 236 605 156T489 32T315 -12Q227 -12 162 26ZM411 75T450 131T490 288Q490 420 448 488T329 557Q260 557
222 502T183 344Q183 213 224 144T341 75Q411 75 450 131Z" />
<glyph unicode="P" glyph-name="P" horiz-adv-x="577" d="M179 642Q218 642 265 644T331 647Q460 647 516 593T572 454Q572 395 539 343T450 259T333 227H248L247 153Q247 115 250 97T263 72T294 65Q308 65 321 66T338 68L341 62L332 -3Q318 -3 280 -2T206 0Q173
0 116 -3T39 -8L47 60Q88 67 102 84T116 143V523Q116 555 110 566T84 577Q73 577 63 576T50 575L44 583L53 643L179 642ZM430 323T430 440Q430 503 395 532T283 561Q269 561 266 559T261 543Q254 414 251 316L339 304Q430 323 430 440Z" />
<glyph unicode="Q" glyph-name="Q" horiz-adv-x="679" d="M227 -12T162 26T63 136T28 304Q28 409 68 488T183 610T356 654Q492 654 569 571T646 341Q646 227 591 140T444 15V6Q526 -51 591 -78T712 -106Q741 -106 765 -102T797 -96L805 -103L816 -145Q808 -151
781 -171T724 -209T682 -228Q635 -228 594 -212T492 -152T315 -12Q227 -12 162 26ZM411 75T450 131T490 288Q490 420 448 488T329 557Q260 557 222 502T183 344Q183 213 224 144T341 75Q411 75 450 131Z" />
<glyph unicode="R" glyph-name="R" horiz-adv-x="643" d="M247 106T252 91T271 71T319 64L322 58L313 -4Q295 -3 249 -2T164 -1Q127 -1 88 -3T36 -6L45 61Q87 67 101 83T116 143V528Q116 556 110 566T85 577Q74 577 64 576T50 575L44 583L53 644Q67 644 105 643T179
642Q220 642 267 644T332 647Q447 647 508 603T569 475Q569 416 535 367T435 284L522 144Q549 99 575 79T633 58L640 48L633 -5L514 -16Q448 -16 404 77L319 251H249L247 141Q247 106 252 91ZM427 366T427 456Q427 511 391 537T278 564Q268 564 265 560T261 542Q253
418 252 341L342 331Q427 366 427 456Z" />
<glyph unicode="S" glyph-name="S" horiz-adv-x="540" d="M174 -12T135 -4T70 15T44 26L36 40Q37 47 40 70T48 134T52 210L136 217Q136 161 146 131T179 89T246 77Q293 77 321 98T350 154Q350 177 334 195T295 226T228 262L202 274Q128 310 86 350T44 454Q44 512
78 557T173 628T312 654Q356 654 394 648T454 636T483 627L490 614Q487 600 479 550T466 442L390 436L381 443Q381 446 381 455T382 478Q382 522 360 540T286 559Q244 559 217 539T190 488Q190 454 222 431T321 376Q377 349 413 327T474 271T499 190Q499 130 465
84T367 13T221 -12Q174 -12 135 -4Z" />
<glyph unicode="T" glyph-name="T" horiz-adv-x="569" d="M159 561T137 553T105 520T89 433L5 427Q7 447 11 514T17 642L28 653L128 642H440L542 653L553 642Q554 579 558 516T563 433L479 427Q471 495 463 519T433 552T358 563Q354 493 351 368T348 135Q348 98
360 83T402 67Q423 67 437 68T455 70L459 65L450 -4Q430 -3 378 -2T276 0Q241 0 184 -2T109 -6L117 60Q163 64 182 72T209 100T216 165V563Q159 561 137 553Z" />
<glyph unicode="U" glyph-name="U" horiz-adv-x="655" d="M219 161T251 120T343 79Q465 79 465 209Q465 286 464 384T461 523Q459 556 454 566T429 577Q419 577 410 576T396 575L393 579L402 645Q415 645 450 644T519 642Q551 642 589 644T638 648L632 581Q594
573 584 564T573 531V220Q573 108 507 48T316 -12Q84 -12 84 204V523Q84 556 78 566T52 577Q42 577 33 576T20 575L18 579L26 645Q40 644 81 643T170 642Q196 642 236 644T289 648L282 580Q250 576 239 565T226 527L219 236Q219 161 251 120Z" />
<glyph unicode="V" glyph-name="V" horiz-adv-x="625" d="M62 547T45 561T-3 577L-7 584L0 644Q14 644 51 643T126 642Q172 642 226 645T296 650L302 642L297 581Q262 578 247 575T226 564T220 543Q220 520 258 355T311 131H326Q349 190 400 357T452 547Q452 564
441 571T401 578H362L357 585L364 647Q378 646 425 644T512 642Q552 642 584 643T628 644L621 578Q597 574 587 565T567 526L383 5L218 -15Q203 42 155 220T71 515Q62 547 45 561Z" />
<glyph unicode="W" glyph-name="W" horiz-adv-x="964" d="M566 21T541 124T486 342H476L372 5L211 -15Q197 42 151 220T70 515Q61 546 44 560T-2 577L-6 584L1 644Q14 644 50 643T123 642Q174 642 223 645T287 650L292 642L287 581Q253 578 238 575T218 565T212
544Q212 519 249 355T301 131H314Q341 202 410 445L424 491Q422 511 416 533Q411 557 395 566T343 577L338 584L346 644Q361 644 401 643T483 642Q530 642 580 645T646 650L651 642L646 581Q611 578 597 575T577 565T571 543Q571 521 608 356T660 131H673Q695 191
745 359T796 550Q796 566 785 572T746 578H708L703 585L711 647Q725 646 770 644T854 642Q893 642 924 643T966 644L959 578Q936 574 927 565T907 526L731 5L572 -15Q566 21 541 124Z" />
<glyph unicode="X" glyph-name="X" horiz-adv-x="682" d="M71 87T14 66L7 6L11 -4Q24 -3 63 -1T127 1Q149 1 195 -2T257 -6L263 56L259 63Q233 65 222 72T210 93Q210 103 217 117T245 159L311 252L397 125Q413 103 413 89Q413 76 400 70T358 61L353 0L358 -7Q379
-6 442 -3T538 1Q576 1 614 0T667 -2L675 64L672 68Q631 70 601 90T541 152L423 321L531 470Q566 518 592 540T663 577L669 638L665 645Q654 644 622 643T552 642Q523 642 469 644L421 645L415 587L417 582Q443 581 454 575T465 557Q465 546 448 519T399 445Q367
399 368 400Q318 473 299 505T279 552Q279 566 293 573T338 582L343 640L338 649Q323 648 274 645T185 642Q129 642 85 643T26 644L18 580L22 575Q65 567 94 549T150 491L258 331L158 200Q71 87 14 66Z" />
<glyph unicode="Y" glyph-name="Y" horiz-adv-x="598" d="M228 531T313 346H322L401 511Q415 539 415 559Q415 570 403 575T364 582L362 587L369 645L418 643Q472 641 502 641Q531 641 563 642T605 645L609 638L602 577Q562 564 538 538T480 449L385 270Q371 245
369 220T366 126Q366 93 376 80T413 67Q430 67 444 68T463 70L466 65L457 -4Q438 -3 389 -2T292 0Q256 0 204 -4T136 -11L143 58Q183 63 201 72T226 99T233 152V182Q233 208 227 230T204 284L106 475Q82 523 60 544T-7 575L-10 580L-2 644Q13 644 51 643T127 641Q160
641 215 644T288 649L293 640L287 582Q254 581 241 574T228 552Q228 531 313 346Z" />
<glyph unicode="Z" glyph-name="Z" horiz-adv-x="580" d="M44 -5L19 40L369 569L243 561Q199 556 176 544T143 507T128 434L43 428Q45 449 51 517T60 644L70 654L248 643L541 640L559 599Q457 464 375 342T210 92L198 73L354 84Q404 89 431 125T470 238L555 245Q552
223 543 150T531 16L514 -3L119 3L44 -5Z" />
<glyph unicode="[" glyph-name="bracketleft" horiz-adv-x="317" d="M83 -76T87 58T92 255Q92 318 88 453T81 634L299 645L303 637L296 580L192 560V-47L299 -68L303 -77L296 -132L81 -121Q83 -76 87 58Z" />
<glyph unicode="\" glyph-name="backslash" horiz-adv-x="329" d="M220 226Q244 131 273 31T311 -99L302 -110H217Q210 -82 187 6T133 215Q96 353 61 483T12 660L24 675H105L220 226Z" />
<glyph unicode="]" glyph-name="bracketright" horiz-adv-x="317" d="M234 589T230 455T225 258Q225 196 229 60T236 -121L18 -132L14 -124L21 -68L124 -47V560L18 580L14 589L21 645L236 634Q234 589 230 455Z" />
<glyph unicode="^" glyph-name="asciicircum" horiz-adv-x="489" d="M381 282Q407 224 428 179T457 118L392 76L376 81L303 244L243 381H236L186 257Q165 209 143 152T115 77L39 97L31 110L107 287L188 478L285 482L298 474L381 282Z" />
<glyph unicode="_" glyph-name="underscore" horiz-adv-x="453" d="M0 -180L-9 -166L2 -90L243 -91Q287 -91 373 -89Q408 -89 429 -88T455 -87L463 -101L452 -179L0 -180Z" />
<glyph unicode="`" glyph-name="grave" horiz-adv-x="398" d="M133 736Q147 721 198 669T300 567L270 527L255 523Q197 566 140 603T66 651L65 665L119 735L133 736Z" />
<glyph unicode="a" glyph-name="a" horiz-adv-x="479" d="M279 332T257 355T194 379Q169 379 136 366T76 332L68 337L49 397Q108 430 161 452T234 474Q313 474 357 438T402 337Q402 316 393 246Q382 149 382 132Q382 113 391 103T417 92Q438 92 465 109L480 88Q460
51 433 23T383 -12Q338 -12 313 7T282 65L275 68Q240 33 210 13T164 -8Q126 -8 95 11T45 63T27 138Q27 170 43 192T85 221L278 266L279 289Q279 332 257 355ZM147 175T147 150Q147 121 162 105T206 89Q220 89 238 96T273 117L275 211L171 182Q147 175 147 150Z"
/>
<glyph unicode="b" glyph-name="b" horiz-adv-x="514" d="M67 628T58 640T24 653L1 652L-3 656L3 710Q61 717 125 728T209 742L216 723Q207 712 200 628T189 406Q279 471 298 471Q385 471 436 412T488 250Q488 175 456 116T366 24T236 -10Q200 -10 165 -7T106
1T76 6L67 16V597Q67 628 58 640ZM195 83T216 78T258 73Q305 73 331 109T358 212Q358 287 331 331T260 375Q243 375 223 366T188 343L185 89Q195 83 216 78Z" />
<glyph unicode="c" glyph-name="c" horiz-adv-x="432" d="M390 57T365 39T307 5T246 -12Q143 -12 84 50T25 219Q25 293 56 351T142 441T269 474Q302 474 330 470T375 460T396 453L400 444Q399 438 395 417T385 361T378 289L313 285V318Q313 352 297 370T251 389Q205
389 181 355T157 257Q157 175 185 132T267 89Q291 89 315 95T354 109T373 118L381 115L397 63Q390 57 365 39Z" />
<glyph unicode="d" glyph-name="d" horiz-adv-x="537" d="M234 -8T215 -8Q127 -8 76 51T25 211Q25 286 57 345T147 437T277 471Q310 471 328 469V595Q328 626 319 638T285 651Q277 651 270 650T261 648L268 709Q327 717 388 727T468 742L477 725Q464 706 455 531T446
133Q446 114 454 103T477 92Q488 92 498 96T514 104T523 109L538 88Q535 82 521 62T485 19T438 -12Q349 -12 338 60L331 62Q234 -8 215 -8ZM326 371T317 375T291 383T256 387Q209 387 183 351T156 248Q156 174 182 130T253 86Q269 86 286 93T314 108T328 119V370Q326
371 317 375Z" />
<glyph unicode="e" glyph-name="e" horiz-adv-x="463" d="M158 159T190 123T279 86Q307 86 334 92T378 106T400 116L407 113L424 62Q424 61 393 41T323 5T252 -12Q146 -12 86 50T25 219Q25 291 56 349T141 440T262 474Q431 474 431 302Q431 284 428 267T424 245L412
234H155V225Q158 159 190 123ZM300 299T304 303T308 320Q308 394 245 394Q206 394 183 368T155 290L289 297Q300 299 304 303Z" />
<glyph unicode="f" glyph-name="f" horiz-adv-x="342" d="M93 454V462Q93 547 124 610T212 708T345 742Q375 742 400 738T441 728T460 721L464 705Q461 698 452 675T430 616L417 613Q414 616 400 625T362 642T312 651Q260 651 238 616T215 496V450Q265 450 299
451T343 453L347 448L336 380Q327 380 295 381T214 383L211 113Q211 89 221 78T253 67Q275 67 292 68T314 69L317 64L308 -3Q291 -3 248 -2T163 0Q128 0 86 -2T30 -6L37 56Q66 60 79 73T93 113V346Q92 369 79 376T28 386L24 392L31 444L93 454Z" />
<glyph unicode="g" glyph-name="g" horiz-adv-x="512" d="M208 127T177 134Q151 116 151 102Q151 83 180 75T272 60Q339 53 382 44T456 12T488 -55Q488 -102 450 -145T350 -215T221 -242Q141 -242 93 -204T44 -101Q58 -87 87 -67T122 -43L144 -28V-22Q96 -13 70
13T41 81Q78 120 123 148V155Q87 174 68 209T48 290Q48 342 75 384T149 451T255 475Q280 475 316 469Q346 465 359 465Q390 467 467 490L499 498L505 493L492 416Q468 412 419 410L415 404Q454 362 454 305Q454 255 427 214T350 150T239 127Q208 127 177 134ZM292
195T311 219T330 291Q330 341 308 370T246 399Q173 399 173 302Q173 253 194 224T256 195Q292 195 311 219ZM309 -167T341 -146T373 -93Q373 -77 361 -68T314 -52T207 -35Q193 -44 182 -65T170 -105Q170 -134 193 -150T260 -167Q309 -167 341 -146Z" />
<glyph unicode="h" glyph-name="h" horiz-adv-x="544" d="M51 62T61 73T72 113V597Q72 628 63 640T29 652H6L2 657L8 710Q65 717 130 728T214 742L221 723Q211 711 204 622T193 387Q223 415 264 444T325 474Q398 474 437 441T476 344Q476 319 467 238Q457 138
457 109Q457 84 464 73T489 62L519 63L521 59L511 -3Q499 -2 468 -1T403 0Q379 0 341 -3T291 -8L296 55Q321 61 331 73T342 111L346 282Q347 369 283 369Q244 369 192 328Q190 259 190 107Q190 82 196 72T219 62Q227 62 234 63T244 64L247 58L237 -3Q226 -2 194
-1T128 0Q89 0 58 -1T16 -3L24 59Q51 62 61 73Z" />
<glyph unicode="i" glyph-name="i" horiz-adv-x="293" d="M115 574T97 593T78 646Q78 682 100 704T158 726Q190 726 209 707T228 654Q228 618 206 596T149 574Q115 574 97 593ZM64 58T77 73T91 115V329Q91 360 82 372T49 385Q41 385 34 384T25 382L31 441Q89 448
147 459T223 474L232 457Q222 435 216 338T209 106Q209 82 216 72T239 62Q248 62 256 63T268 64L271 60L261 -3Q249 -2 217 -1T150 0Q119 0 79 -4T27 -11L34 53Q64 58 77 73Z" />
<glyph unicode="j" glyph-name="j" horiz-adv-x="275" d="M107 574T89 593T70 646Q70 682 92 704T150 726Q182 726 201 707T220 654Q220 618 198 596T141 574Q107 574 89 593ZM52 -160T67 -110T83 36V329Q83 361 75 373T46 385Q35 385 27 384T16 382L22 440Q73
447 134 458T213 474L222 457Q201 412 201 -14Q201 -84 158 -145T39 -244L7 -214L9 -202Q52 -160 67 -110Z" />
<glyph unicode="k" glyph-name="k" horiz-adv-x="519" d="M55 61T63 76T72 134V597Q72 622 65 635T44 651Q40 652 31 652L4 651Q3 655 3 664L8 710Q65 717 130 728T214 742L221 723Q208 707 199 532T190 106Q190 81 196 71T219 61Q227 61 234 62T245 63L248 57L237
-4Q225 -3 193 -2T128 0Q97 0 62 -2T16 -6L24 57Q55 61 63 76ZM304 354Q316 366 320 373T325 388Q325 399 313 403T273 408L270 413L279 464Q291 464 325 463T399 462Q428 462 462 463T506 466L509 461L500 404Q464 391 431 363T348 285L324 261L408 131Q433 95
457 78T509 57L514 49L506 -1Q498 -3 474 -7T433 -13Q410 -14 389 -10Q363 -4 345 13T305 68L205 236L207 258L304 354Z" />
<glyph unicode="l" glyph-name="l" horiz-adv-x="265" d="M55 61T63 77T72 134V597Q72 622 65 635T44 651Q40 652 31 652L4 651Q3 655 3 664L8 710Q65 717 130 728T214 742L221 723Q208 707 199 532T190 106Q190 81 196 71T219 61Q228 61 238 62T252 63L255 57L244
-3Q232 -2 198 -1T129 0Q98 0 62 -3T15 -9L22 54Q55 61 63 77Z" />
<glyph unicode="m" glyph-name="m" horiz-adv-x="839" d="M342 61T352 73T364 111L367 282Q367 369 303 369Q267 369 217 331Q207 151 207 108Q207 82 213 73T237 63Q244 63 252 64T263 65L265 60L255 -3Q244 -2 213 -1T149 0Q108 0 74 -1T29 -3L38 60Q67 62 78
73T90 113V323Q90 358 80 370T41 383H28L24 388L29 441Q87 450 143 460T216 474L224 464Q222 458 218 437T213 395L216 392Q252 421 290 447T346 474Q461 474 488 390Q516 415 559 444T620 474Q692 474 731 440T771 344Q771 328 763 238Q753 138 753 109Q753 83
760 73T785 62L815 63L817 59L807 -3Q795 -2 763 -1T697 0Q673 0 637 -2T588 -5L595 59Q618 62 627 73T638 111L641 282Q641 369 577 369Q540 369 493 333L480 109Q480 83 487 73T510 62L538 63L540 59L530 -3Q519 -2 488 -1T424 0Q400 0 362 -3T312 -8L318 55Q342
61 352 73Z" />
<glyph unicode="n" glyph-name="n" horiz-adv-x="570" d="M342 61T352 73T364 111L367 282Q367 369 303 369Q269 369 217 332Q207 150 207 108Q207 82 213 73T237 63Q244 63 252 64T263 65L265 60L255 -3Q244 -2 213 -1T149 0Q117 0 79 -2T29 -6L38 58Q67 61 78
73T90 113V323Q90 358 80 370T41 383H28L24 388L29 441Q87 450 143 460T216 474L224 464Q222 458 218 437T213 395L217 391Q250 420 289 447T346 474Q417 474 457 440T497 344Q497 328 489 238Q479 138 479 109Q479 83 486 73T510 62L540 63L542 59L533 -3Q521
-2 489 -1T424 0Q400 0 362 -3T312 -8L318 55Q342 61 352 73Z" />
<glyph unicode="o" glyph-name="o" horiz-adv-x="503" d="M173 -12T125 16T51 97T25 217Q25 293 55 351T141 441T267 474Q364 474 420 413T477 245Q477 169 447 111T362 21T236 -12Q173 -12 125 16ZM342 65T342 199Q342 293 317 340T243 388Q201 388 180 354T158
254Q158 160 183 113T257 65Q342 65 342 199Z" />
<glyph unicode="p" glyph-name="p" horiz-adv-x="538" d="M65 -171T74 -159T83 -112L88 41V323Q88 358 78 370T39 383H26L22 388L27 441Q84 450 140 460T212 474L221 464Q220 458 216 439T210 401L214 396Q252 431 278 450T314 470Q373 470 418 443T487 365T512
250Q512 173 478 114T384 23T247 -10Q234 -10 222 -9T205 -7V-99Q205 -140 211 -154T241 -168Q256 -168 266 -167T282 -166L284 -170L273 -232Q252 -232 235 -231L151 -230Q116 -230 78 -232T29 -236L37 -174Q65 -171 74 -159ZM247 73T282 73Q329 73 355 109T382
212Q382 285 356 327T284 370Q270 370 251 362T214 341Q208 185 208 87Q247 73 282 73Z" />
<glyph unicode="q" glyph-name="q" horiz-adv-x="517" d="M283 -170T297 -166T317 -149T324 -111L328 59Q231 -10 215 -10Q128 -10 77 49T25 211Q25 286 57 345T147 437T277 471Q329 471 388 461Q414 471 432 478T455 488L466 476Q456 455 451 298T445 -101Q445
-130 447 -143T456 -161T476 -166Q486 -166 493 -166T502 -165L504 -168L497 -230H369Q329 -230 294 -231T245 -234L252 -172Q283 -170 297 -166ZM326 371T317 375T291 383T256 387Q209 387 183 351T156 248Q156 173 182 129T253 85Q269 85 286 92T314 108T328
119V370Q326 371 317 375Z" />
<glyph unicode="r" glyph-name="r" horiz-adv-x="413" d="M72 60T82 74T93 126V324Q93 359 85 371T51 383L32 382L27 389L32 441Q87 449 143 460T216 474L225 465Q223 457 220 428T215 372L221 368Q252 414 289 440T361 467Q373 467 383 466T396 463L400 455Q397
438 390 381T380 272L314 268Q314 316 309 331T286 347Q270 347 253 336T220 304Q218 277 215 214T210 112Q210 86 218 76T249 66Q265 66 280 67T300 70L303 64L292 -4Q278 -3 240 -2T161 0Q123 0 85 -1T35 -4L43 58Q72 60 82 74Z" />
<glyph unicode="s" glyph-name="s" horiz-adv-x="409" d="M133 -12T104 -6T57 6T35 15L29 26Q33 52 36 88T42 157L99 163Q101 62 187 62Q215 62 234 74T253 106Q253 126 234 142T154 186Q94 214 67 245T39 320Q39 365 65 400T139 454T247 474Q276 474 301 470T340
462T359 456L365 445Q363 434 357 396T346 315L289 312L290 329Q289 364 273 380T221 397Q195 397 178 385T160 354Q160 335 176 319T228 286Q287 258 318 236T362 192T375 138Q375 97 348 63T273 8T169 -12Q133 -12 104 -6Z" />
<glyph unicode="t" glyph-name="t" horiz-adv-x="332" d="M68 365T57 375T14 387L4 394L10 444Q49 462 87 486T150 528T181 552L209 537Q208 531 205 508T198 450L315 453L319 448L309 380L192 383Q186 296 186 167Q186 125 200 106T249 87Q267 87 287 93T308
101L321 68Q315 62 293 43T245 6T205 -12Q134 -12 101 17T68 111V333Q68 365 57 375Z" />
<glyph unicode="u" glyph-name="u" horiz-adv-x="547" d="M74 362T66 373T40 385Q31 385 24 384T15 382L21 441Q74 449 130 459T204 474L214 457Q203 433 195 349T187 175Q187 134 202 114T249 94Q268 94 287 103T334 131V335Q334 364 326 373T291 384L274 383L282
441Q336 449 394 459T469 472L479 455Q468 432 460 339T452 133Q452 114 461 103T487 92Q498 92 508 96T525 104T534 109L550 88Q546 81 530 60T490 16T445 -12Q354 -12 343 65L335 69Q297 33 266 11T224 -11Q147 -11 107 21T67 115L74 336Q74 362 66 373Z" />
<glyph unicode="v" glyph-name="v" horiz-adv-x="468" d="M332 392T326 396T300 400H272L268 407L276 463L385 462L476 463L468 401Q446 398 437 388T413 343L288 0L156 -15Q143 32 105 168T52 351Q37 400 -10 401L-12 406L-5 463L90 462Q131 462 173 465T227
469L229 464L221 405Q190 402 181 398T172 379Q172 362 197 256T233 112H243Q332 354 332 380Q332 392 326 396Z" />
<glyph unicode="w" glyph-name="w" horiz-adv-x="740" d="M602 392T596 396T571 401H544L540 407L548 464Q558 464 588 463T654 462L745 463L737 401Q715 398 706 388T683 343L560 0L434 -15Q429 14 393 152L372 233H361L286 0L156 -15Q144 32 107 168T55 351Q47
376 32 388T-7 401L-9 406L-2 463L92 462Q133 462 174 465T227 469L229 464L221 405Q190 402 182 398T173 379Q173 362 198 256T233 112H243Q260 156 286 236T324 359Q319 382 308 391T269 400L266 406L275 463L367 462Q408 462 448 464T500 468L502 463L493 404Q462
401 454 397T446 379Q446 362 471 256T505 112H515Q602 353 602 380Q602 392 596 396Z" />
<glyph unicode="x" glyph-name="x" horiz-adv-x="497" d="M419 0T448 -1T488 -2L496 51L493 55Q465 57 444 73T396 124L319 228L398 331Q440 382 484 405L490 459L487 465Q479 464 455 463T402 462H313L307 410L309 406Q330 406 337 403T345 392Q345 385 340 377T330
361T321 348L274 286L233 344Q222 359 217 369T211 389Q211 399 220 403T249 408L255 460L252 466Q241 465 204 464T128 462L11 463L5 407L7 403Q40 397 61 382T110 328L177 235L97 140Q58 93 43 77T8 52L1 4L4 -3Q12 -2 34 -1T82 0Q108 0 138 -1T181 -4L188 45L185
51Q164 52 156 56T148 71Q148 80 163 102T206 159Q216 171 220 177L280 96Q292 77 292 67Q292 58 283 54T253 49L246 -1L249 -6Q266 -5 316 -3T391 0Q419 0 448 -1Z" />
<glyph unicode="y" glyph-name="y" horiz-adv-x="465" d="M338 358T338 381Q338 393 332 397T309 402H277L274 407L282 465Q292 464 322 463T388 462H481L473 401Q451 396 441 387T422 352L294 43Q231 -110 175 -176T53 -241Q44 -241 26 -225T-8 -190T-23 -160L-15
-147Q49 -142 101 -106T186 -9Q159 71 116 187T48 357Q36 380 23 389T-12 400L-14 405L-7 462H71Q116 462 170 465T224 469L226 464L217 405Q189 404 179 399T169 381Q169 361 197 264T237 132H248Q338 358 338 381Z" />
<glyph unicode="z" glyph-name="z" horiz-adv-x="458" d="M182 391Q146 388 128 380T101 354T89 303L38 298Q40 315 44 369T49 464L56 471L186 463L418 460L431 430Q351 324 280 222T172 63L277 72Q320 77 342 104T373 190L425 195Q424 187 420 159T412 88T408
11L393 -5L94 2L38 -4L20 29L272 397L182 391Z" />
<glyph unicode="{" glyph-name="braceleft" horiz-adv-x="321" d="M85 299T107 318T129 363Q129 377 124 394T108 440Q82 504 82 538Q82 588 123 621T232 654Q253 654 275 651T305 645L311 635L298 579Q294 580 281 582T257 584Q230 584 216 568T202 524Q202 502
215 452Q229 392 229 370Q229 333 209 310T156 277V271Q190 260 209 236T229 174Q229 148 215 86Q202 32 202 8Q202 -20 217 -37T260 -55Q271 -55 284 -53T301 -49L309 -59L298 -113Q296 -114 286 -117T258 -124T218 -128Q158 -128 120 -95T82 -12Q82 9 89 32T109
89Q111 94 120 119T129 160Q129 221 44 241L48 289Q85 299 107 318Z" />
<glyph unicode="|" glyph-name="bar" horiz-adv-x="334" d="M219 740T217 568T214 291L215 -258L128 -269L116 -258Q116 -200 116 -42T117 276L118 796L204 807L220 796Q219 740 217 568Z" />
<glyph unicode="}" glyph-name="braceright" horiz-adv-x="321" d="M238 232T216 213T193 167Q193 153 198 136T214 90Q227 58 233 36T240 -7Q240 -60 199 -94T90 -128Q69 -128 47 -125T17 -119L11 -109L24 -54Q28 -55 41 -57T65 -59Q92 -59 106 -43T120 1Q120
23 107 77Q93 137 93 161Q93 197 113 220T166 253V259Q93 284 93 357Q93 382 107 442Q120 494 120 517Q120 545 105 562T62 580Q51 580 38 578T21 575L13 584L24 639Q26 640 36 643T64 650T104 654Q164 654 202 620T240 538Q240 517 233 494T213 439Q211 434 202
410T193 370Q193 338 216 318T278 289L274 242Q238 232 216 213Z" />
<glyph unicode="~" glyph-name="asciitilde" horiz-adv-x="506" d="M27 226L118 327L137 331Q168 331 256 310Q287 303 316 298T359 292Q371 292 387 304T417 331T434 349H445L480 311V301L389 199L370 195Q339 195 251 216Q220 223 191 228T148 234Q136 234 119
222T90 196T73 178H62L27 215V226Z" />
<glyph unicode="&#xa0;" glyph-name="nbspace" horiz-adv-x="174" />
<glyph unicode="&#xa1;" glyph-name="exclamdown" horiz-adv-x="285" d="M196 474T215 454T235 398Q235 362 213 339T153 316Q118 316 99 336T79 391Q79 428 101 451T160 474Q196 474 215 454ZM67 -242L50 -224L112 229L176 240L192 227L212 -203L200 -220L67 -242Z" />
<glyph unicode="&#xa2;" glyph-name="cent" horiz-adv-x="432" d="M391 58T370 42T318 10T261 -11L245 -151L166 -159L160 -152L177 -3Q105 16 65 74T25 219Q25 319 80 388T227 471L247 649L326 658L332 649L313 472Q345 468 370 461T396 453L400 444Q399 438
395 417T385 361T378 289L313 285V318Q313 352 297 370T251 389Q205 389 181 355T157 257Q157 175 185 132T267 89Q291 89 315 95T354 109T373 118L381 115L397 63Q391 58 370 42Z" />
<glyph unicode="&#xa3;" glyph-name="sterling" horiz-adv-x="518" d="M478 161T483 138T489 93Q489 47 462 18T392 -12Q370 -12 346 -6T283 12Q239 25 215 31T167 37Q139 37 113 29T58 1L47 6L27 67Q119 123 119 203V244Q118 267 106 274T55 284L51 290L58 342L119
352V373Q119 434 150 485T234 567T348 598Q380 598 411 594T460 583L465 572L433 476L414 473Q346 511 305 511Q270 511 254 489T235 416L232 348Q289 348 329 349T383 351L387 346L376 278Q364 279 325 280T230 281L228 221Q227 188 215 158T181 110L238 122Q259
122 309 112Q316 111 339 107T379 103Q408 103 425 122T443 178L468 177Q478 161 483 138Z" />
<glyph unicode="&#xa4;" glyph-name="currency" horiz-adv-x="444" d="M68 392T88 426L13 497L16 514L87 564Q109 537 153 492Q189 510 227 510Q264 510 300 492L368 569L386 565L437 494L365 427Q386 391 386 351Q386 311 367 278L441 211L438 194L366 142L301
212Q267 192 227 192Q186 192 150 213Q125 185 106 166T81 140L64 144L16 215Q38 234 86 278Q68 314 68 351Q68 392 88 426ZM140 315T165 290T226 264Q263 264 288 289T314 351Q314 387 289 412T226 438Q191 438 166 413T140 351Q140 315 165 290Z" />
<glyph unicode="&#xa5;" glyph-name="yen" horiz-adv-x="568" d="M228 422T235 405T244 383L254 360L301 279L366 408Q374 426 374 432Q374 438 371 440T354 443T331 450Q331 463 332 470L336 505L380 504Q426 502 453 502Q483 502 507 503T540 505L545 499L538
444Q504 433 489 419T452 371L428 331L523 333L530 324L525 267H390L363 222Q358 213 354 195Q433 196 521 199L528 189L524 132H342Q342 118 344 94Q346 76 351 69T370 60Q376 59 389 59L424 61L427 55L419 -3Q403 -3 360 -2T277 0Q248 0 202 -3T140 -9L146 51Q179
55 194 62T214 85T220 132L49 131L41 139L50 195H212Q205 217 196 232L176 267L50 266L43 273L51 329H138Q84 427 20 444Q20 460 21 468Q21 470 27 505Q38 504 67 503T130 502Q161 503 207 505T275 509L281 499L275 448Q246 446 237 442T228 429Q228 422 235 405Z"
/>
<glyph unicode="&#xa6;" glyph-name="brokenbar" horiz-adv-x="334" d="M118 796L204 807L220 796Q219 755 217 635T214 375L125 363L117 370L118 796ZM215 -258L128 -269L116 -258V158L204 173L214 163L215 -258Z" />
<glyph unicode="&#xa7;" glyph-name="section" horiz-adv-x="500" d="M473 207T447 168T377 103Q388 79 388 54Q388 16 363 -19T294 -77T196 -100Q160 -100 129 -90T79 -61T60 -22Q60 7 67 37T87 83L108 82Q116 38 145 10T213 -19Q237 -19 253 -6T269 30Q269 58
245 79T170 134Q125 162 97 183T48 236T28 308Q28 349 55 386T126 451Q114 478 114 503Q114 544 137 579T200 634T289 654Q337 654 374 639T411 604Q411 580 401 545T381 501H362Q350 531 327 550T277 569Q259 569 246 557T233 525Q233 498 257 476T333 420Q378
391 406 369T453 317T473 248Q473 207 447 168ZM132 315T160 288T247 222Q284 198 304 184T342 151Q365 176 365 208Q365 243 337 270T251 336Q185 380 158 408Q132 384 132 350Q132 315 160 288Z" />
<glyph unicode="&#xa8;" glyph-name="dieresis" horiz-adv-x="398" d="M77 563T62 579T46 623Q46 653 64 672T113 691Q141 691 157 674T173 630Q173 601 155 582T105 563Q77 563 62 579ZM255 563T240 579T224 623Q224 653 242 672T291 691Q319 691 335 674T351
630Q351 601 333 582T284 563Q255 563 240 579Z" />
<glyph unicode="&#xa9;" glyph-name="copyright" horiz-adv-x="696" d="M43 376T83 446T194 557T347 598Q430 598 500 557T611 446T652 293Q652 210 611 140T500 29T347 -12Q264 -12 194 29T84 140T43 293Q43 376 83 446ZM94 224T128 165T220 72T347 37Q416 37
474 71T567 165T602 293Q602 362 568 421T475 514T347 549Q278 549 220 515T128 421T94 293Q94 224 128 165ZM263 129T223 172T183 289Q183 370 231 417T364 464Q393 464 426 459T469 451L473 444Q472 441 469 428T463 392T458 343L398 340L399 366Q399 386 388
396T350 407Q315 407 298 383T281 306Q281 186 352 186Q379 186 392 201T411 251L470 256Q469 247 466 216T461 156L455 148Q451 146 435 142T393 133T337 129Q263 129 223 172Z" />
<glyph unicode="&#xaa;" glyph-name="ordfeminine" horiz-adv-x="341" d="M193 551T178 565T137 580Q120 580 103 574T75 560T60 551L53 554L39 598Q46 602 71 614T124 638T168 650Q229 650 258 625T287 559Q287 549 281 499Q274 454 274 434Q274 423 280 416T296
409Q305 409 313 412T324 418L334 402Q331 397 321 382T296 351T267 331Q235 331 217 343T197 381L191 383Q140 334 117 334Q77 334 50 363T23 436Q23 456 34 471T63 491L192 517L193 526Q193 551 178 565ZM122 460T119 456T116 443Q116 427 125 417T149 406Q157
406 169 409T190 418L191 477L130 462Q122 460 119 456Z" />
<glyph unicode="&#xab;" glyph-name="guillemetleft" horiz-adv-x="458" d="M403 349T392 330T370 295L329 229L417 85L414 69L372 44Q327 95 276 147T208 215V236Q224 252 275 305T372 411L414 386L417 370Q403 349 392 330ZM210 349T199 330T177 295L136 229L224
85L221 69L179 44Q134 95 83 147T15 215V236Q31 252 82 305T179 411L221 386L224 370Q210 349 199 330Z" />
<glyph unicode="&#xac;" glyph-name="logicalnot" horiz-adv-x="506" d="M457 302T454 260T449 171Q449 120 449 83T450 35L360 21L349 28Q349 45 349 99T350 222H252L24 221L17 231L31 322L266 321Q312 321 373 323T453 327L459 314Q457 302 454 260Z" />
<glyph unicode="&#xae;" glyph-name="registered" horiz-adv-x="468" d="M30 563T57 609T131 683T234 711Q290 711 336 684T410 610T438 507Q438 451 411 405T337 331T234 303Q178 303 132 330T58 404T30 507Q30 563 57 609ZM68 462T90 424T151 364T234 341Q279
341 317 363T377 424T399 507Q399 552 377 590T317 650T234 673Q189 673 151 651T91 590T68 507Q68 462 90 424ZM154 438T158 444T162 469V576Q162 587 160 590T152 594H141L139 597L142 618L185 617H196L231 619Q317 619 317 563Q317 524 274 502L299 464Q317
435 335 434L337 431Q336 421 335 417T326 412T298 409Q283 409 274 415T257 439L232 490H211V463Q211 446 214 442T234 438L236 435L233 413Q229 413 218 414T194 415H182L137 412L139 436Q154 438 158 444ZM212 540T212 522Q217 522 224 521T239 520Q263 529
263 556Q263 588 220 588Q216 588 215 587T214 580Q212 540 212 522Z" />
<glyph unicode="&#xaf;" glyph-name="overscore" horiz-adv-x="398" d="M200 581L61 580L50 591L64 667L218 666Q249 666 290 668T345 672L353 658L341 582L200 581Z" />
<glyph unicode="&#xb0;" glyph-name="degree" horiz-adv-x="302" d="M21 559T38 589T86 636T151 654Q187 654 217 637T264 589T282 523Q282 488 265 458T217 411T151 393Q116 393 86 410T39 458T21 523Q21 559 38 589ZM79 492T99 472T151 451Q182 451 203 471T224
523Q224 554 203 575T151 596Q120 596 100 575T79 523Q79 492 99 472Z" />
<glyph unicode="&#xb1;" glyph-name="plusminus" horiz-adv-x="506" d="M304 485T302 429T299 324Q361 325 413 327T483 330L489 317L479 225L299 224L300 61L212 47L201 54L202 224L24 223L17 234L31 325L202 324L203 498L293 509L305 502Q304 485 302 429ZM196
-98Q129 -99 32 -99L24 -85L35 -9H266Q351 -9 391 -8Q473 -6 473 -5L481 -20L470 -97L196 -98Z" />
<glyph unicode="&#xb4;" glyph-name="acute" horiz-adv-x="398" d="M332 642T275 604T160 523L145 527L115 567Q167 616 218 668T283 737L296 736L350 666L349 652Q332 642 275 604Z" />
<glyph unicode="&#xb6;" glyph-name="paragraph" horiz-adv-x="567" d="M330 572T326 574T303 577Q264 577 244 539T223 433Q223 368 238 323T288 229V205Q171 210 98 269T24 434Q24 494 52 542T132 618T251 646Q281 646 335 644Q381 642 395 642Q432 642 476
643T539 645L533 583L531 579Q494 576 482 568T468 533Q463 498 460 373T456 171Q456 92 430 31T351 -65T224 -100Q167 -100 126 -73T85 -3Q85 20 97 52T126 105H143Q146 44 172 10T240 -24Q276 -24 295 -10T322 35T330 121V562Q330 572 326 574Z" />
<glyph unicode="&#xb7;" glyph-name="middot" horiz-adv-x="238" d="M79 161T60 181T41 237Q41 273 63 296T122 319Q157 319 177 298T197 243Q197 207 175 184T115 161Q79 161 60 181Z" />
<glyph unicode="&#xb8;" glyph-name="cedilla" horiz-adv-x="398" d="M204 -44Q248 -70 274 -92T300 -141Q300 -167 281 -189T232 -224T167 -237Q138 -237 114 -225T89 -194Q89 -175 126 -131H135Q136 -158 150 -172T187 -187Q204 -187 215 -179T227 -157Q227
-142 203 -124T141 -86L173 29H225L204 -44Z" />
<glyph unicode="&#xba;" glyph-name="ordmasculine" horiz-adv-x="354" d="M102 331T63 372T23 483Q23 559 67 604T186 650Q255 650 293 610T331 499Q331 423 287 377T169 331Q102 331 63 372ZM203 390T214 408T226 466Q226 529 213 557T173 585Q150 585 139 567T127
509Q127 446 140 418T180 390Q203 390 214 408Z" />
<glyph unicode="&#xbb;" glyph-name="guillemetright" horiz-adv-x="458" d="M267 135T295 181L323 226L289 280Q261 328 234 369L238 385L279 411Q325 360 376 307T443 239V219Q428 203 377 150T279 44L238 69L234 85Q267 135 295 181ZM74 135T102 181L130 226L96
280Q68 328 41 369L45 385L86 411Q132 360 183 307T250 239V219Q235 203 184 150T86 44L45 69L41 85Q74 135 102 181Z" />
<glyph unicode="&#xbc;" glyph-name="onequarter" horiz-adv-x="727" d="M187 548T185 483T183 352Q183 329 189 319T211 309Q222 309 230 310T241 311L244 307L235 258Q225 259 196 260T137 261Q109 261 73 258T26 254L31 300Q61 302 75 313T89 347V544Q89 567
83 574T57 581Q46 581 37 580T24 579L20 584L24 626Q58 629 107 636Q159 642 183 645T208 649L216 626Q205 618 200 607T190 577Q187 548 185 483ZM569 590T479 452T332 227Q263 116 206 27T129 -93L65 -66L60 -52Q80 -22 146 78T267 264L528 678L590 653L598 634Q569
590 479 452ZM576 389L647 381V160H697L704 152L697 90L648 91Q649 60 650 37T652 7L645 0L555 -7L549 -1Q550 8 551 37T553 94L399 96L401 149L571 387L576 389ZM554 264H547L476 160H554V264Z" />
<glyph unicode="&#xbd;" glyph-name="onehalf" horiz-adv-x="757" d="M187 548T185 483T183 352Q183 329 189 319T211 309Q222 309 230 310T241 311L244 307L235 258Q225 259 196 260T137 261Q109 261 73 258T26 254L31 300Q61 302 75 313T89 347V544Q89 567 83
574T57 581Q46 581 37 580T24 579L20 584L24 626Q58 629 107 636Q159 642 183 645T208 649L216 626Q205 618 200 607T190 577Q187 548 185 483ZM569 590T479 452T332 227Q263 116 206 27T129 -93L65 -66L60 -52Q80 -22 146 78T267 264L528 678L590 653L598 634Q569
590 479 452ZM548 176T566 207T585 263Q585 301 543 301Q495 301 457 248H447L433 310Q458 345 496 367T572 389Q626 389 659 363T693 295Q693 253 664 205T559 76L562 71H619Q648 71 660 83T678 130L740 135Q737 122 730 80T721 3L710 -6Q685 -5 607 -3T488 0L433
-6L427 43L508 129Q548 176 566 207Z" />
<glyph unicode="&#xbe;" glyph-name="threequarters" horiz-adv-x="772" d="M61 329T92 329Q127 329 150 343T173 379Q173 402 152 413T84 424L77 432L71 480L114 489Q135 498 147 513T159 545Q159 559 150 568T124 577Q108 577 89 570T52 550H43L26 604Q49 620
87 634T156 649Q202 649 231 628T260 571Q260 543 240 520T186 483V476Q234 462 256 439T279 382Q279 351 251 321T176 272T81 253Q50 253 37 270T22 328L33 340Q61 329 92 329ZM614 590T524 452T377 227Q308 116 251 27T174 -93L110 -66L105 -52Q125 -22 191 78T312
264L573 678L635 653L643 634Q614 590 524 452ZM621 389L692 381V160H742L749 152L742 90L693 91Q694 60 695 37T697 7L690 0L600 -7L594 -1Q595 8 596 37T598 94L444 96L446 149L616 387L621 389ZM599 264H592L521 160H599V264Z" />
<glyph unicode="&#xbf;" glyph-name="questiondown" horiz-adv-x="370" d="M254 474T273 454T293 398Q293 362 271 339T211 316Q176 316 157 336T137 391Q137 428 159 451T218 474Q254 474 273 454ZM182 39Q129 7 129 -33Q129 -80 177 -106T313 -137L321 -151L284
-235L269 -242Q197 -240 138 -217T44 -154T10 -68Q10 -28 26 1T69 52T153 114L175 129L178 136L163 219L169 230L257 248L269 242L293 116L290 102L182 39Z" />
<glyph unicode="&#xc0;" glyph-name="Agrave" horiz-adv-x="625" d="M563 96T580 81T630 63L634 56L627 -3Q614 -2 578 -1T504 0Q451 0 400 -3T335 -8L330 0L335 61Q369 64 384 67T406 77T412 97Q412 109 406 130L386 206Q360 207 295 207Q256 207 200 200L176
125Q170 104 170 94Q170 77 180 71T216 64H258L263 57L256 -6Q242 -5 196 -3T110 0Q68 0 34 -1T-12 -3L-4 64Q20 68 34 82T61 130L239 637L398 653L409 648Q424 591 471 415T552 132Q563 96 580 81ZM326 286T368 290L310 510H296L224 286H294Q326 286 368 290ZM188
857Q208 847 275 815T411 753L398 706L385 697Q313 720 244 738T155 762L150 775L176 852L188 857Z" />
<glyph unicode="&#xc1;" glyph-name="Aacute" horiz-adv-x="625" d="M563 96T580 81T630 63L634 56L627 -3Q614 -2 578 -1T504 0Q451 0 400 -3T335 -8L330 0L335 61Q369 64 384 67T406 77T412 97Q412 109 406 130L386 206Q360 207 295 207Q256 207 200 200L176
125Q170 104 170 94Q170 77 180 71T216 64H258L263 57L256 -6Q242 -5 196 -3T110 0Q68 0 34 -1T-12 -3L-4 64Q20 68 34 82T61 130L239 637L398 653L409 648Q424 591 471 415T552 132Q563 96 580 81ZM326 286T368 290L310 510H296L224 286H294Q326 286 368 290ZM466
757T397 738T256 697L243 706L230 753Q297 782 365 814T453 857L465 852L491 775L486 762Q466 757 397 738Z" />
<glyph unicode="&#xc2;" glyph-name="Acircumflex" horiz-adv-x="625" d="M563 96T580 81T630 63L634 56L627 -3Q614 -2 578 -1T504 0Q451 0 400 -3T335 -8L330 0L335 61Q369 64 384 67T406 77T412 97Q412 109 406 130L386 206Q360 207 295 207Q256 207 200 200L176
125Q170 104 170 94Q170 77 180 71T216 64H258L263 57L256 -6Q242 -5 196 -3T110 0Q68 0 34 -1T-12 -3L-4 64Q20 68 34 82T61 130L239 637L398 653L409 648Q424 591 471 415T552 132Q563 96 580 81ZM326 286T368 290L310 510H296L224 286H294Q326 286 368 290ZM197
786T245 825T308 876H328Q328 878 375 839Q389 828 423 800T484 752L460 711L444 707Q388 735 318 765Q274 747 191 707L176 711L151 752Q197 786 245 825Z" />
<glyph unicode="&#xc3;" glyph-name="Atilde" horiz-adv-x="625" d="M563 96T580 81T630 63L634 56L627 -3Q614 -2 578 -1T504 0Q451 0 400 -3T335 -8L330 0L335 61Q369 64 384 67T406 77T412 97Q412 109 406 130L386 206Q360 207 295 207Q256 207 200 200L176
125Q170 104 170 94Q170 77 180 71T216 64H258L263 57L256 -6Q242 -5 196 -3T110 0Q68 0 34 -1T-12 -3L-4 64Q20 68 34 82T61 130L239 637L398 653L409 648Q424 591 471 415T552 132Q563 96 580 81ZM326 286T368 290L310 510H296L224 286H294Q326 286 368 290ZM139
735L217 831L234 835Q254 835 314 817Q319 816 345 809T384 801Q394 801 408 812T434 836T449 853H459L499 816V806L421 709L404 705Q385 705 323 723Q267 739 255 739Q244 739 230 728T204 704T190 687H179L139 724V735Z" />
<glyph unicode="&#xc4;" glyph-name="Adieresis" horiz-adv-x="625" d="M563 96T580 81T630 63L634 56L627 -3Q614 -2 578 -1T504 0Q451 0 400 -3T335 -8L330 0L335 61Q369 64 384 67T406 77T412 97Q412 109 406 130L386 206Q360 207 295 207Q256 207 200 200L176
125Q170 104 170 94Q170 77 180 71T216 64H258L263 57L256 -6Q242 -5 196 -3T110 0Q68 0 34 -1T-12 -3L-4 64Q20 68 34 82T61 130L239 637L398 653L409 648Q424 591 471 415T552 132Q563 96 580 81ZM326 286T368 290L310 510H296L224 286H294Q326 286 368 290ZM196
706T181 722T165 767Q165 796 183 815T232 834Q260 834 276 818T292 774Q292 744 274 725T224 706Q196 706 181 722ZM374 706T359 722T343 767Q343 796 361 815T410 834Q438 834 454 818T470 774Q470 744 452 725T403 706Q374 706 359 722Z" />
<glyph unicode="&#xc5;" glyph-name="Aring" horiz-adv-x="625" d="M563 96T580 81T630 63L634 56L627 -3Q614 -2 578 -1T504 0Q451 0 400 -3T335 -8L330 0L335 61Q369 64 384 67T406 77T412 97Q412 109 406 130L386 206Q360 207 295 207Q256 207 200 200L176
125Q170 104 170 94Q170 77 180 71T216 64H258L263 57L256 -6Q242 -5 196 -3T110 0Q68 0 34 -1T-12 -3L-4 64Q20 68 34 82T61 130L239 637L398 653L409 648Q424 591 471 415T552 132Q563 96 580 81ZM326 286T368 290L310 510H296L224 286H294Q326 286 368 290ZM271
678T248 703T225 769Q225 810 251 837T321 864Q366 864 388 839T411 777Q411 737 385 708T313 678Q271 678 248 703ZM336 731T348 738T360 767Q360 786 348 797T315 809Q295 809 285 800T275 773Q275 752 289 742T320 731Q336 731 348 738Z" />
<glyph unicode="&#xc6;" glyph-name="AE" horiz-adv-x="871" d="M354 64T371 68T395 82T402 108Q402 121 398 157L386 249L299 238L214 222L170 125Q159 100 159 88Q159 74 170 69T214 64L247 59L241 -6Q223 -4 168 -2T74 0Q49 0 29 -1T1 -3L-4 57Q6 59 23 79T56
130L264 555Q262 567 256 572T238 577Q229 577 220 576T208 575L201 584L209 645Q229 644 293 643T451 642Q688 642 772 654L780 643Q779 636 775 612T765 545T757 461L666 455Q666 459 667 471T668 495Q668 524 659 536T624 553T539 558Q505 558 496 553T486 531L511
349L608 361L704 380L714 370L702 286L611 279L523 269L543 146Q549 110 565 94T613 78Q672 78 698 86T737 117T756 193L840 200L848 190Q845 174 836 119T820 4L810 -7L765 -6Q591 0 516 0H479Q428 0 381 -3T320 -8L315 0L319 61Q354 64 371 68ZM356 510H341L252
317L316 321L378 329L356 510Z" />
<glyph unicode="&#xc7;" glyph-name="Ccedilla" horiz-adv-x="617" d="M404 82T434 114T476 220L575 227Q572 209 565 151T555 40L545 28Q538 25 513 17T444 0T352 -11L343 -44Q387 -70 413 -92T439 -141Q439 -167 420 -189T371 -224T306 -237Q277 -237 253 -225T228
-194Q228 -175 265 -131H274Q275 -158 289 -172T326 -187Q343 -187 354 -179T366 -157Q366 -142 342 -124T280 -86L301 -11Q173 -3 101 80T28 304Q28 410 71 489T193 611T378 654Q415 654 457 649T530 637T569 629L575 616Q573 609 568 584T558 516T549 427L450
420Q450 425 451 439T452 473Q452 516 426 536T343 557Q265 557 225 502T184 338Q184 216 228 149T350 82Q404 82 434 114Z" />
<glyph unicode="&#xc8;" glyph-name="Egrave" horiz-adv-x="597" d="M247 111T251 99T268 83T311 79Q376 79 405 87T447 117T467 193L551 200L559 190Q556 174 547 119T531 4L521 -7Q490 -6 389 -3T210 0Q154 0 103 -4T36 -10L43 58Q85 64 100 82T115 144L116
523Q116 555 110 566T84 577Q74 577 66 576T54 575L47 584L55 645Q73 644 126 643T239 642Q451 642 543 654L551 643Q548 628 540 574T528 461L437 455Q437 459 438 471T439 495Q439 524 431 536T397 553T312 558Q287 558 277 556T264 548T260 525L253 370L346
369Q367 369 408 372T462 377L470 368L456 282Q443 283 405 284T325 285Q303 285 249 279Q247 206 247 139Q247 111 251 99ZM188 857Q208 847 275 815T411 753L398 706L385 697Q313 720 244 738T155 762L150 775L176 852L188 857Z" />
<glyph unicode="&#xc9;" glyph-name="Eacute" horiz-adv-x="597" d="M247 111T251 99T268 83T311 79Q376 79 405 87T447 117T467 193L551 200L559 190Q556 174 547 119T531 4L521 -7Q490 -6 389 -3T210 0Q154 0 103 -4T36 -10L43 58Q85 64 100 82T115 144L116
523Q116 555 110 566T84 577Q74 577 66 576T54 575L47 584L55 645Q73 644 126 643T239 642Q451 642 543 654L551 643Q548 628 540 574T528 461L437 455Q437 459 438 471T439 495Q439 524 431 536T397 553T312 558Q287 558 277 556T264 548T260 525L253 370L346
369Q367 369 408 372T462 377L470 368L456 282Q443 283 405 284T325 285Q303 285 249 279Q247 206 247 139Q247 111 251 99ZM467 757T398 738T257 697L244 706L231 753Q298 782 366 814T454 857L466 852L492 775L487 762Q467 757 398 738Z" />
<glyph unicode="&#xca;" glyph-name="Ecircumflex" horiz-adv-x="597" d="M247 111T251 99T268 83T311 79Q376 79 405 87T447 117T467 193L551 200L559 190Q556 174 547 119T531 4L521 -7Q490 -6 389 -3T210 0Q154 0 103 -4T36 -10L43 58Q85 64 100 82T115 144L116
523Q116 555 110 566T84 577Q74 577 66 576T54 575L47 584L55 645Q73 644 126 643T239 642Q451 642 543 654L551 643Q548 628 540 574T528 461L437 455Q437 459 438 471T439 495Q439 524 431 536T397 553T312 558Q287 558 277 556T264 548T260 525L253 370L346
369Q367 369 408 372T462 377L470 368L456 282Q443 283 405 284T325 285Q303 285 249 279Q247 206 247 139Q247 111 251 99ZM198 786T246 825T309 876H329Q329 878 376 839Q390 828 424 800T485 752L461 711L445 707Q389 735 319 765Q275 747 192 707L177 711L152
752Q198 786 246 825Z" />
<glyph unicode="&#xcb;" glyph-name="Edieresis" horiz-adv-x="597" d="M247 111T251 99T268 83T311 79Q376 79 405 87T447 117T467 193L551 200L559 190Q556 174 547 119T531 4L521 -7Q490 -6 389 -3T210 0Q154 0 103 -4T36 -10L43 58Q85 64 100 82T115 144L116
523Q116 555 110 566T84 577Q74 577 66 576T54 575L47 584L55 645Q73 644 126 643T239 642Q451 642 543 654L551 643Q548 628 540 574T528 461L437 455Q437 459 438 471T439 495Q439 524 431 536T397 553T312 558Q287 558 277 556T264 548T260 525L253 370L346
369Q367 369 408 372T462 377L470 368L456 282Q443 283 405 284T325 285Q303 285 249 279Q247 206 247 139Q247 111 251 99ZM196 706T181 722T165 767Q165 796 183 815T232 834Q260 834 276 818T292 774Q292 744 274 725T224 706Q196 706 181 722ZM374 706T359
722T343 767Q343 796 361 815T410 834Q438 834 454 818T470 774Q470 744 452 725T403 706Q374 706 359 722Z" />
<glyph unicode="&#xcc;" glyph-name="Igrave" horiz-adv-x="365" d="M247 286T247 133Q247 92 255 79T286 65Q302 65 313 66T328 68L333 61L324 -3Q307 -3 263 -2T176 0Q140 0 95 -3T36 -9L43 56Q87 65 101 82T116 140V525Q116 556 109 566T80 577L46 576L41 584L48
643L187 642Q215 642 264 645T330 649L324 582Q286 577 274 567T259 528Q247 286 247 133ZM312 857Q332 847 399 815T535 753L522 706L509 697Q437 720 368 738T279 762L274 775L300 852L312 857Z" />
<glyph unicode="&#xcd;" glyph-name="Iacute" horiz-adv-x="365" d="M247 286T247 133Q247 92 255 79T286 65Q302 65 313 66T328 68L333 61L324 -3Q307 -3 263 -2T176 0Q140 0 95 -3T36 -9L43 56Q87 65 101 82T116 140V525Q116 556 109 566T80 577L46 576L41 584L48
643L187 642Q215 642 264 645T330 649L324 582Q286 577 274 567T259 528Q247 286 247 133ZM335 757T266 738T125 697L112 706L99 753Q166 782 234 814T322 857L334 852L360 775L355 762Q335 757 266 738Z" />
<glyph unicode="&#xce;" glyph-name="Icircumflex" horiz-adv-x="365" d="M247 286T247 133Q247 92 255 79T286 65Q302 65 313 66T328 68L333 61L324 -3Q307 -3 263 -2T176 0Q140 0 95 -3T36 -9L43 56Q87 65 101 82T116 140V525Q116 556 109 566T80 577L46 576L41
584L48 643L187 642Q215 642 264 645T330 649L324 582Q286 577 274 567T259 528Q247 286 247 133ZM321 786T369 825T432 876H452Q452 878 499 839Q513 828 547 800T608 752L584 711L568 707Q512 735 442 765Q398 747 315 707L300 711L275 752Q321 786 369 825Z"
/>
<glyph unicode="&#xcf;" glyph-name="Idieresis" horiz-adv-x="365" d="M247 286T247 133Q247 92 255 79T286 65Q302 65 313 66T328 68L333 61L324 -3Q307 -3 263 -2T176 0Q140 0 95 -3T36 -9L43 56Q87 65 101 82T116 140V525Q116 556 109 566T80 577L46 576L41
584L48 643L187 642Q215 642 264 645T330 649L324 582Q286 577 274 567T259 528Q247 286 247 133ZM320 706T305 722T289 767Q289 796 307 815T356 834Q384 834 400 818T416 774Q416 744 398 725T348 706Q320 706 305 722ZM498 706T483 722T467 767Q467 796 485
815T534 834Q562 834 578 818T594 774Q594 744 576 725T527 706Q498 706 483 722Z" />
<glyph unicode="&#xd0;" glyph-name="Eth" horiz-adv-x="709" d="M317 -10T267 -5T181 0Q149 0 108 -4T53 -10L60 59Q91 64 106 73T126 103T132 162V286H16L8 293L18 353H132V522Q132 554 126 565T101 576Q90 576 81 575T68 574L62 583L70 645Q84 645 122 644T198
642Q240 642 288 644T356 647Q456 647 529 611T641 507T680 347Q680 243 636 161T512 34T333 -12Q317 -10 267 -5ZM397 346L391 286H265L262 146Q262 117 269 102T293 81T345 75Q432 75 477 135T522 316Q522 443 469 501T303 560Q287 560 282 555T275 536L267 353L391
355L397 346Z" />
<glyph unicode="&#xd1;" glyph-name="Ntilde" horiz-adv-x="729" d="M527 557T520 567T495 577L460 576L457 584L464 646Q478 645 516 644T593 642Q624 642 661 644T711 647L706 580Q673 575 659 561T643 517L629 -14L524 -27Q455 83 390 182T284 341T232 417H222L221
109Q222 84 229 74T256 64Q267 64 280 65T299 67L304 60L294 -4Q280 -3 242 -2T165 0Q131 0 93 -3T43 -8L50 59Q80 63 94 77T110 122L123 517Q123 549 107 561T41 579L34 589L41 647Q52 646 89 644T157 642Q184 642 214 643T253 646Q334 513 427 373T520 235H530L528
534Q527 557 520 567ZM199 735L277 831L294 835Q314 835 374 817Q379 816 405 809T444 801Q454 801 468 812T494 836T509 853H519L559 816V806L481 709L464 705Q445 705 383 723Q327 739 315 739Q304 739 290 728T264 704T250 687H239L199 724V735Z" />
<glyph unicode="&#xd2;" glyph-name="Ograve" horiz-adv-x="674" d="M227 -12T162 26T63 136T28 304Q28 409 68 488T183 610T356 654Q492 654 569 571T646 341Q646 236 605 156T489 32T315 -12Q227 -12 162 26ZM411 75T450 131T490 288Q490 420 448 488T329 557Q260
557 222 502T183 344Q183 213 224 144T341 75Q411 75 450 131ZM204 857Q224 847 291 815T427 753L414 706L401 697Q329 720 260 738T171 762L166 775L192 852L204 857Z" />
<glyph unicode="&#xd3;" glyph-name="Oacute" horiz-adv-x="674" d="M227 -12T162 26T63 136T28 304Q28 409 68 488T183 610T356 654Q492 654 569 571T646 341Q646 236 605 156T489 32T315 -12Q227 -12 162 26ZM411 75T450 131T490 288Q490 420 448 488T329 557Q260
557 222 502T183 344Q183 213 224 144T341 75Q411 75 450 131ZM483 757T414 738T273 697L260 706L247 753Q314 782 382 814T470 857L482 852L508 775L503 762Q483 757 414 738Z" />
<glyph unicode="&#xd4;" glyph-name="Ocircumflex" horiz-adv-x="674" d="M227 -12T162 26T63 136T28 304Q28 409 68 488T183 610T356 654Q492 654 569 571T646 341Q646 236 605 156T489 32T315 -12Q227 -12 162 26ZM411 75T450 131T490 288Q490 420 448 488T329
557Q260 557 222 502T183 344Q183 213 224 144T341 75Q411 75 450 131ZM213 786T261 825T324 876H344Q344 878 391 839Q405 828 439 800T500 752L476 711L460 707Q404 735 334 765Q290 747 207 707L192 711L167 752Q213 786 261 825Z" />
<glyph unicode="&#xd5;" glyph-name="Otilde" horiz-adv-x="674" d="M227 -12T162 26T63 136T28 304Q28 409 68 488T183 610T356 654Q492 654 569 571T646 341Q646 236 605 156T489 32T315 -12Q227 -12 162 26ZM411 75T450 131T490 288Q490 420 448 488T329 557Q260
557 222 502T183 344Q183 213 224 144T341 75Q411 75 450 131ZM155 735L233 831L250 835Q270 835 330 817Q335 816 361 809T400 801Q410 801 424 812T450 836T465 853H475L515 816V806L437 709L420 705Q401 705 339 723Q283 739 271 739Q260 739 246 728T220 704T206
687H195L155 724V735Z" />
<glyph unicode="&#xd6;" glyph-name="Odieresis" horiz-adv-x="674" d="M227 -12T162 26T63 136T28 304Q28 409 68 488T183 610T356 654Q492 654 569 571T646 341Q646 236 605 156T489 32T315 -12Q227 -12 162 26ZM411 75T450 131T490 288Q490 420 448 488T329
557Q260 557 222 502T183 344Q183 213 224 144T341 75Q411 75 450 131ZM212 706T197 722T181 767Q181 796 199 815T248 834Q276 834 292 818T308 774Q308 744 290 725T240 706Q212 706 197 722ZM390 706T375 722T359 767Q359 796 377 815T426 834Q454 834 470 818T486
774Q486 744 468 725T419 706Q390 706 375 722Z" />
<glyph unicode="&#xd7;" glyph-name="multiply" horiz-adv-x="506" d="M321 249Q356 215 397 177T452 127L447 114L375 56L251 179Q207 135 173 100T128 54L114 57L62 129L182 247L52 376L54 390L129 443Q140 431 174 396T252 318Q286 353 326 396T378 452L391
447L448 377L321 249Z" />
<glyph unicode="&#xd8;" glyph-name="Oslash" horiz-adv-x="674" d="M593 556T619 491T646 341Q646 236 605 156T489 32T315 -12Q247 -12 196 10L126 -107L66 -78L63 -68L132 47Q81 88 55 153T28 304Q28 409 68 488T183 610T356 654Q423 654 476 633L534 729L596
700L598 687L542 596Q593 556 619 491ZM411 75T450 131T490 288Q490 420 448 488T329 557Q260 557 222 502T183 344Q183 213 224 144T341 75Q411 75 450 131Z" />
<glyph unicode="&#xd9;" glyph-name="Ugrave" horiz-adv-x="655" d="M219 161T251 120T343 79Q465 79 465 209Q465 286 464 384T461 523Q459 556 454 566T429 577Q419 577 410 576T396 575L393 579L402 645Q415 645 450 644T519 642Q551 642 589 644T638 648L632
581Q594 573 584 564T573 531V220Q573 108 507 48T316 -12Q84 -12 84 204V523Q84 556 78 566T52 577Q42 577 33 576T20 575L18 579L26 645Q40 644 81 643T170 642Q196 642 236 644T289 648L282 580Q250 576 239 565T226 527L219 236Q219 161 251 120ZM210 857Q230
847 297 815T433 753L420 706L407 697Q335 720 266 738T177 762L172 775L198 852L210 857Z" />
<glyph unicode="&#xda;" glyph-name="Uacute" horiz-adv-x="655" d="M219 161T251 120T343 79Q465 79 465 209Q465 286 464 384T461 523Q459 556 454 566T429 577Q419 577 410 576T396 575L393 579L402 645Q415 645 450 644T519 642Q551 642 589 644T638 648L632
581Q594 573 584 564T573 531V220Q573 108 507 48T316 -12Q84 -12 84 204V523Q84 556 78 566T52 577Q42 577 33 576T20 575L18 579L26 645Q40 644 81 643T170 642Q196 642 236 644T289 648L282 580Q250 576 239 565T226 527L219 236Q219 161 251 120ZM489 757T420
738T279 697L266 706L253 753Q320 782 388 814T476 857L488 852L514 775L509 762Q489 757 420 738Z" />
<glyph unicode="&#xdb;" glyph-name="Ucircumflex" horiz-adv-x="655" d="M219 161T251 120T343 79Q465 79 465 209Q465 286 464 384T461 523Q459 556 454 566T429 577Q419 577 410 576T396 575L393 579L402 645Q415 645 450 644T519 642Q551 642 589 644T638
648L632 581Q594 573 584 564T573 531V220Q573 108 507 48T316 -12Q84 -12 84 204V523Q84 556 78 566T52 577Q42 577 33 576T20 575L18 579L26 645Q40 644 81 643T170 642Q196 642 236 644T289 648L282 580Q250 576 239 565T226 527L219 236Q219 161 251 120ZM220
786T268 825T331 876H351Q351 878 398 839Q412 828 446 800T507 752L483 711L467 707Q411 735 341 765Q297 747 214 707L199 711L174 752Q220 786 268 825Z" />
<glyph unicode="&#xdc;" glyph-name="Udieresis" horiz-adv-x="655" d="M219 161T251 120T343 79Q465 79 465 209Q465 286 464 384T461 523Q459 556 454 566T429 577Q419 577 410 576T396 575L393 579L402 645Q415 645 450 644T519 642Q551 642 589 644T638 648L632
581Q594 573 584 564T573 531V220Q573 108 507 48T316 -12Q84 -12 84 204V523Q84 556 78 566T52 577Q42 577 33 576T20 575L18 579L26 645Q40 644 81 643T170 642Q196 642 236 644T289 648L282 580Q250 576 239 565T226 527L219 236Q219 161 251 120ZM218 706T203
722T187 767Q187 796 205 815T254 834Q282 834 298 818T314 774Q314 744 296 725T246 706Q218 706 203 722ZM396 706T381 722T365 767Q365 796 383 815T432 834Q460 834 476 818T492 774Q492 744 474 725T425 706Q396 706 381 722Z" />
<glyph unicode="&#xdd;" glyph-name="Yacute" horiz-adv-x="598" d="M228 531T313 346H322L401 511Q415 539 415 559Q415 570 403 575T364 582L362 587L369 645L418 643Q472 641 502 641Q531 641 563 642T605 645L609 638L602 577Q562 564 538 538T480 449L385
270Q371 245 369 220T366 126Q366 93 376 80T413 67Q430 67 444 68T463 70L466 65L457 -4Q438 -3 389 -2T292 0Q256 0 204 -4T136 -11L143 58Q183 63 201 72T226 99T233 152V182Q233 208 227 230T204 284L106 475Q82 523 60 544T-7 575L-10 580L-2 644Q13 644 51
643T127 641Q160 641 215 644T288 649L293 640L287 582Q254 581 241 574T228 552Q228 531 313 346ZM472 757T403 738T262 697L249 706L236 753Q303 782 371 814T459 857L471 852L497 775L492 762Q472 757 403 738Z" />
<glyph unicode="&#xde;" glyph-name="Thorn" horiz-adv-x="573" d="M259 529T258 523T258 512H334Q561 512 561 336Q561 282 529 238T442 169T318 144H247V114Q247 84 255 75T286 65Q304 65 316 66T333 68L338 61L329 -3Q312 -3 266 -2T176 0Q141 0 96 -3T36 -9L43
56Q87 65 101 81T116 140V525Q116 556 109 566T80 577L46 576L41 584L48 643L187 642Q215 642 264 645T330 649L324 582Q285 576 273 568T259 536Q259 529 258 523ZM249 232Q269 226 293 222T333 218Q419 232 419 326Q419 381 386 406T278 431Q264 431 260 428T254
417L249 232Z" />
<glyph unicode="&#xdf;" glyph-name="germandbls" horiz-adv-x="640" d="M303 68T317 103T345 157L365 156Q367 116 390 92T450 68Q475 68 492 85T509 129Q509 156 488 175T422 219Q382 242 358 259T317 304T299 368Q299 400 315 425T361 481Q387 508 400 527T413
568Q413 605 385 628T312 651Q260 651 238 616T215 496L211 113Q211 67 245 67Q260 67 269 67T282 68L285 64L276 -3Q263 -3 230 -2T163 0Q131 0 88 -2T30 -6L37 56Q70 60 81 73T93 120V346Q91 369 78 377T28 386L24 392L31 444L93 454Q93 590 159 666T345 742Q399
742 442 724T509 674T533 601Q533 565 517 539T469 479Q445 454 433 437T421 398Q421 375 441 358T504 316Q546 292 572 274T616 226T635 156Q635 110 609 72T536 11T435 -12Q384 -12 346 5T302 47Q303 68 317 103Z" />
<glyph unicode="&#xe0;" glyph-name="agrave" horiz-adv-x="479" d="M279 332T257 355T194 379Q169 379 136 366T76 332L68 337L49 397Q108 430 161 452T234 474Q313 474 357 438T402 337Q402 316 393 246Q382 149 382 132Q382 113 391 103T417 92Q438 92 465
109L480 88Q460 51 433 23T383 -12Q338 -12 313 7T282 65L275 68Q240 33 210 13T164 -8Q126 -8 95 11T45 63T27 138Q27 170 43 192T85 221L278 266L279 289Q279 332 257 355ZM147 175T147 150Q147 121 162 105T206 89Q220 89 238 96T273 117L275 211L171 182Q147
175 147 150ZM160 737Q174 722 225 670T327 568L297 528L282 524Q224 567 167 604T93 652L92 666L146 736L160 737Z" />
<glyph unicode="&#xe1;" glyph-name="aacute" horiz-adv-x="479" d="M279 332T257 355T194 379Q169 379 136 366T76 332L68 337L49 397Q108 430 161 452T234 474Q313 474 357 438T402 337Q402 316 393 246Q382 149 382 132Q382 113 391 103T417 92Q438 92 465
109L480 88Q460 51 433 23T383 -12Q338 -12 313 7T282 65L275 68Q240 33 210 13T164 -8Q126 -8 95 11T45 63T27 138Q27 170 43 192T85 221L278 266L279 289Q279 332 257 355ZM147 175T147 150Q147 121 162 105T206 89Q220 89 238 96T273 117L275 211L171 182Q147
175 147 150ZM361 643T304 605T189 524L174 528L144 568Q196 617 247 669T312 738L325 737L379 667L378 653Q361 643 304 605Z" />
<glyph unicode="&#xe2;" glyph-name="acircumflex" horiz-adv-x="479" d="M279 332T257 355T194 379Q169 379 136 366T76 332L68 337L49 397Q108 430 161 452T234 474Q313 474 357 438T402 337Q402 316 393 246Q382 149 382 132Q382 113 391 103T417 92Q438 92
465 109L480 88Q460 51 433 23T383 -12Q338 -12 313 7T282 65L275 68Q240 33 210 13T164 -8Q126 -8 95 11T45 63T27 138Q27 170 43 192T85 221L278 266L279 289Q279 332 257 355ZM147 175T147 150Q147 121 162 105T206 89Q220 89 238 96T273 117L275 211L171 182Q147
175 147 150ZM112 618T158 666T219 730H239Q253 715 299 667T391 576L362 535L346 531Q305 563 250 600L229 614Q151 562 112 531L96 535L67 576Q112 618 158 666Z" />
<glyph unicode="&#xe3;" glyph-name="atilde" horiz-adv-x="479" d="M279 332T257 355T194 379Q169 379 136 366T76 332L68 337L49 397Q108 430 161 452T234 474Q313 474 357 438T402 337Q402 316 393 246Q382 149 382 132Q382 113 391 103T417 92Q438 92 465
109L480 88Q460 51 433 23T383 -12Q338 -12 313 7T282 65L275 68Q240 33 210 13T164 -8Q126 -8 95 11T45 63T27 138Q27 170 43 192T85 221L278 266L279 289Q279 332 257 355ZM147 175T147 150Q147 121 162 105T206 89Q220 89 238 96T273 117L275 211L171 182Q147
175 147 150ZM45 587L123 688L140 692Q152 692 174 687T220 675Q225 674 251 667T290 659Q300 659 314 671T340 697T355 715H365L405 678V668L327 566L310 562Q290 562 230 580Q225 581 199 588T160 596Q149 596 135 584T110 558T96 540H85L45 576V587Z" />
<glyph unicode="&#xe4;" glyph-name="adieresis" horiz-adv-x="479" d="M279 332T257 355T194 379Q169 379 136 366T76 332L68 337L49 397Q108 430 161 452T234 474Q313 474 357 438T402 337Q402 316 393 246Q382 149 382 132Q382 113 391 103T417 92Q438 92 465
109L480 88Q460 51 433 23T383 -12Q338 -12 313 7T282 65L275 68Q240 33 210 13T164 -8Q126 -8 95 11T45 63T27 138Q27 170 43 192T85 221L278 266L279 289Q279 332 257 355ZM147 175T147 150Q147 121 162 105T206 89Q220 89 238 96T273 117L275 211L171 182Q147
175 147 150ZM105 564T90 580T74 624Q74 654 92 673T141 692Q169 692 185 675T201 631Q201 602 183 583T133 564Q105 564 90 580ZM283 564T268 580T252 624Q252 654 270 673T319 692Q347 692 363 675T379 631Q379 602 361 583T312 564Q283 564 268 580Z" />
<glyph unicode="&#xe5;" glyph-name="aring" horiz-adv-x="479" d="M279 332T257 355T194 379Q169 379 136 366T76 332L68 337L49 397Q108 430 161 452T234 474Q313 474 357 438T402 337Q402 316 393 246Q382 149 382 132Q382 113 391 103T417 92Q438 92 465 109L480
88Q460 51 433 23T383 -12Q338 -12 313 7T282 65L275 68Q240 33 210 13T164 -8Q126 -8 95 11T45 63T27 138Q27 170 43 192T85 221L278 266L279 289Q279 332 257 355ZM147 175T147 150Q147 121 162 105T206 89Q220 89 238 96T273 117L275 211L171 182Q147 175 147
150ZM182 544T159 569T136 635Q136 676 162 703T232 730Q277 730 299 705T322 644Q322 603 296 574T224 544Q182 544 159 569ZM247 597T259 605T271 634Q271 653 259 664T226 675Q206 675 196 666T186 640Q186 618 200 608T231 597Q247 597 259 605Z" />
<glyph unicode="&#xe6;" glyph-name="ae" horiz-adv-x="670" d="M653 61T622 41T554 5T486 -12Q420 -12 371 13T295 86Q253 45 216 21T155 -8Q96 -8 57 33T18 136Q18 169 35 193T83 223L264 261V292Q264 334 242 357T180 380Q154 380 128 370T84 348T61 332L53
337L35 397Q45 403 80 421T157 457T219 474Q303 474 343 409Q372 441 410 457T493 474Q566 474 607 430T648 306Q648 295 647 287T646 277L635 265L380 221Q387 155 420 120T508 84Q536 84 562 91T606 105T629 116L636 113L653 62Q653 61 622 41ZM522 311T522 321Q522
352 506 371T464 390Q424 390 401 364T377 292V274L504 306Q522 311 522 321ZM137 176T137 147Q137 121 152 104T191 87Q208 87 230 98T277 128Q264 165 264 208L166 182Q137 176 137 147Z" />
<glyph unicode="&#xe7;" glyph-name="ccedilla" horiz-adv-x="432" d="M391 58T370 43T320 12T265 -10L255 -44Q299 -70 325 -92T351 -141Q351 -167 332 -189T283 -224T218 -237Q189 -237 165 -225T140 -194Q140 -175 177 -131H186Q187 -158 201 -172T238 -187Q255
-187 266 -179T278 -157Q278 -142 254 -124T192 -86L213 -10Q125 0 75 60T25 219Q25 293 56 351T142 441T269 474Q302 474 330 470T375 460T396 453L400 444Q399 438 395 417T385 361T378 289L313 285V318Q313 352 297 370T251 389Q205 389 181 355T157 257Q157
175 185 132T267 89Q291 89 315 95T354 109T373 118L381 115L397 63Q391 58 370 43Z" />
<glyph unicode="&#xe8;" glyph-name="egrave" horiz-adv-x="463" d="M158 159T190 123T279 86Q307 86 334 92T378 106T400 116L407 113L424 62Q424 61 393 41T323 5T252 -12Q146 -12 86 50T25 219Q25 291 56 349T141 440T262 474Q431 474 431 302Q431 284 428
267T424 245L412 234H155V225Q158 159 190 123ZM300 299T304 303T308 320Q308 394 245 394Q206 394 183 368T155 290L289 297Q300 299 304 303ZM182 736Q196 721 247 669T349 567L319 527L304 523Q246 566 189 603T115 651L114 665L168 735L182 736Z" />
<glyph unicode="&#xe9;" glyph-name="eacute" horiz-adv-x="463" d="M158 159T190 123T279 86Q307 86 334 92T378 106T400 116L407 113L424 62Q424 61 393 41T323 5T252 -12Q146 -12 86 50T25 219Q25 291 56 349T141 440T262 474Q431 474 431 302Q431 284 428
267T424 245L412 234H155V225Q158 159 190 123ZM300 299T304 303T308 320Q308 394 245 394Q206 394 183 368T155 290L289 297Q300 299 304 303ZM391 642T334 604T219 523L204 527L174 567Q226 616 277 668T342 737L355 736L409 666L408 652Q391 642 334 604Z" />
<glyph unicode="&#xea;" glyph-name="ecircumflex" horiz-adv-x="463" d="M158 159T190 123T279 86Q307 86 334 92T378 106T400 116L407 113L424 62Q424 61 393 41T323 5T252 -12Q146 -12 86 50T25 219Q25 291 56 349T141 440T262 474Q431 474 431 302Q431 284
428 267T424 245L412 234H155V225Q158 159 190 123ZM300 299T304 303T308 320Q308 394 245 394Q206 394 183 368T155 290L289 297Q300 299 304 303ZM134 618T180 666T241 730H261Q275 715 321 667T413 576L384 535L368 531Q327 563 272 600L251 614Q173 562 134
531L118 535L89 576Q134 618 180 666Z" />
<glyph unicode="&#xeb;" glyph-name="edieresis" horiz-adv-x="463" d="M158 159T190 123T279 86Q307 86 334 92T378 106T400 116L407 113L424 62Q424 61 393 41T323 5T252 -12Q146 -12 86 50T25 219Q25 291 56 349T141 440T262 474Q431 474 431 302Q431 284 428
267T424 245L412 234H155V225Q158 159 190 123ZM300 299T304 303T308 320Q308 394 245 394Q206 394 183 368T155 290L289 297Q300 299 304 303ZM127 563T112 579T96 623Q96 653 114 672T163 691Q191 691 207 674T223 630Q223 601 205 582T155 563Q127 563 112 579ZM305
563T290 579T274 623Q274 653 292 672T341 691Q369 691 385 674T401 630Q401 601 383 582T334 563Q305 563 290 579Z" />
<glyph unicode="&#xec;" glyph-name="igrave" horiz-adv-x="293" d="M64 58T77 73T91 115V329Q91 360 82 372T49 385Q41 385 34 384T25 382L31 441Q89 448 147 459T223 474L232 457Q222 435 216 338T209 106Q209 82 216 72T239 62Q248 62 256 63T268 64L271 60L261
-3Q249 -2 217 -1T150 0Q119 0 79 -4T27 -11L34 53Q64 58 77 73ZM335 736Q349 721 400 669T502 567L472 527L457 523Q399 566 342 603T268 651L267 665L321 735L335 736Z" />
<glyph unicode="&#xed;" glyph-name="iacute" horiz-adv-x="293" d="M64 58T77 73T91 115V329Q91 360 82 372T49 385Q41 385 34 384T25 382L31 441Q89 448 147 459T223 474L232 457Q222 435 216 338T209 106Q209 82 216 72T239 62Q248 62 256 63T268 64L271 60L261
-3Q249 -2 217 -1T150 0Q119 0 79 -4T27 -11L34 53Q64 58 77 73ZM540 642T483 604T368 523L353 527L323 567Q375 616 426 668T491 737L504 736L558 666L557 652Q540 642 483 604Z" />
<glyph unicode="&#xee;" glyph-name="icircumflex" horiz-adv-x="293" d="M64 58T77 73T91 115V329Q91 360 82 372T49 385Q41 385 34 384T25 382L31 441Q89 448 147 459T223 474L232 457Q222 435 216 338T209 106Q209 82 216 72T239 62Q248 62 256 63T268 64L271
60L261 -3Q249 -2 217 -1T150 0Q119 0 79 -4T27 -11L34 53Q64 58 77 73ZM293 873T339 921T400 985H420Q434 970 480 922T572 831L543 790L527 786Q486 818 431 855L410 869Q332 817 293 786L277 790L248 831Q293 873 339 921Z" />
<glyph unicode="&#xef;" glyph-name="idieresis" horiz-adv-x="293" d="M64 58T77 73T91 115V329Q91 360 82 372T49 385Q41 385 34 384T25 382L31 441Q89 448 147 459T223 474L232 457Q222 435 216 338T209 106Q209 82 216 72T239 62Q248 62 256 63T268 64L271
60L261 -3Q249 -2 217 -1T150 0Q119 0 79 -4T27 -11L34 53Q64 58 77 73ZM285 563T270 579T254 623Q254 653 272 672T321 691Q349 691 365 674T381 630Q381 601 363 582T313 563Q285 563 270 579ZM463 563T448 579T432 623Q432 653 450 672T499 691Q527 691 543
674T559 630Q559 601 541 582T492 563Q463 563 448 579Z" />
<glyph unicode="&#xf0;" glyph-name="eth" horiz-adv-x="508" d="M312 599Q394 524 437 435T480 250Q480 173 451 114T368 21T244 -12Q145 -12 87 48T29 210Q29 280 56 338T129 429T233 463Q252 460 270 450T290 439L293 444Q263 504 217 550L88 486L78 489L61
550L160 599Q107 643 37 680L69 736L82 741Q178 701 252 646L393 716L401 712L418 652L312 599ZM344 283T329 349Q298 375 252 375Q205 375 184 343T162 233Q162 151 189 108T266 65Q304 65 324 100T344 204Q344 283 329 349Z" />
<glyph unicode="&#xf1;" glyph-name="ntilde" horiz-adv-x="570" d="M342 61T352 73T364 111L367 282Q367 369 303 369Q269 369 217 332Q207 150 207 108Q207 82 213 73T237 63Q244 63 252 64T263 65L265 60L255 -3Q244 -2 213 -1T149 0Q117 0 79 -2T29 -6L38
58Q67 61 78 73T90 113V323Q90 358 80 370T41 383H28L24 388L29 441Q87 450 143 460T216 474L224 464Q222 458 218 437T213 395L217 391Q250 420 289 447T346 474Q417 474 457 440T497 344Q497 328 489 238Q479 138 479 109Q479 83 486 73T510 62L540 63L542 59L533
-3Q521 -2 489 -1T424 0Q400 0 362 -3T312 -8L318 55Q342 61 352 73ZM117 586L195 687L212 691Q224 691 246 686T292 674Q297 673 323 666T362 658Q372 658 386 670T412 696T427 714H437L477 677V667L399 565L382 561Q362 561 302 579Q297 580 271 587T232 595Q221
595 207 583T182 557T168 539H157L117 575V586Z" />
<glyph unicode="&#xf2;" glyph-name="ograve" horiz-adv-x="503" d="M173 -12T125 16T51 97T25 217Q25 293 55 351T141 441T267 474Q364 474 420 413T477 245Q477 169 447 111T362 21T236 -12Q173 -12 125 16ZM342 65T342 199Q342 293 317 340T243 388Q201 388
180 354T158 254Q158 160 183 113T257 65Q342 65 342 199ZM190 736Q204 721 255 669T357 567L327 527L312 523Q254 566 197 603T123 651L122 665L176 735L190 736Z" />
<glyph unicode="&#xf3;" glyph-name="oacute" horiz-adv-x="503" d="M173 -12T125 16T51 97T25 217Q25 293 55 351T141 441T267 474Q364 474 420 413T477 245Q477 169 447 111T362 21T236 -12Q173 -12 125 16ZM342 65T342 199Q342 293 317 340T243 388Q201 388
180 354T158 254Q158 160 183 113T257 65Q342 65 342 199ZM392 642T335 604T220 523L205 527L175 567Q227 616 278 668T343 737L356 736L410 666L409 652Q392 642 335 604Z" />
<glyph unicode="&#xf4;" glyph-name="ocircumflex" horiz-adv-x="503" d="M173 -12T125 16T51 97T25 217Q25 293 55 351T141 441T267 474Q364 474 420 413T477 245Q477 169 447 111T362 21T236 -12Q173 -12 125 16ZM342 65T342 199Q342 293 317 340T243 388Q201
388 180 354T158 254Q158 160 183 113T257 65Q342 65 342 199ZM143 618T189 666T250 730H270Q284 715 330 667T422 576L393 535L377 531Q336 563 281 600L260 614Q182 562 143 531L127 535L98 576Q143 618 189 666Z" />
<glyph unicode="&#xf5;" glyph-name="otilde" horiz-adv-x="503" d="M173 -12T125 16T51 97T25 217Q25 293 55 351T141 441T267 474Q364 474 420 413T477 245Q477 169 447 111T362 21T236 -12Q173 -12 125 16ZM342 65T342 199Q342 293 317 340T243 388Q201 388
180 354T158 254Q158 160 183 113T257 65Q342 65 342 199ZM76 586L154 687L171 691Q183 691 205 686T251 674Q256 673 282 666T321 658Q331 658 345 670T371 696T386 714H396L436 677V667L358 565L341 561Q321 561 261 579Q256 580 230 587T191 595Q180 595 166
583T141 557T127 539H116L76 575V586Z" />
<glyph unicode="&#xf6;" glyph-name="odieresis" horiz-adv-x="503" d="M173 -12T125 16T51 97T25 217Q25 293 55 351T141 441T267 474Q364 474 420 413T477 245Q477 169 447 111T362 21T236 -12Q173 -12 125 16ZM342 65T342 199Q342 293 317 340T243 388Q201
388 180 354T158 254Q158 160 183 113T257 65Q342 65 342 199ZM136 563T121 579T105 623Q105 653 123 672T172 691Q200 691 216 674T232 630Q232 601 214 582T164 563Q136 563 121 579ZM314 563T299 579T283 623Q283 653 301 672T350 691Q378 691 394 674T410 630Q410
601 392 582T343 563Q314 563 299 579Z" />
<glyph unicode="&#xf7;" glyph-name="divide" horiz-adv-x="506" d="M212 362T195 381T177 430Q177 464 197 485T251 506Q283 506 301 487T319 437Q319 404 299 383T245 362Q212 362 195 381ZM252 207L24 206L17 217L31 307L266 306Q316 306 388 308T483 312L489
300L479 208L252 207ZM212 7T195 26T177 75Q177 109 197 130T251 151Q283 151 301 132T319 82Q319 49 299 28T245 7Q212 7 195 26Z" />
<glyph unicode="&#xf8;" glyph-name="oslash" horiz-adv-x="503" d="M477 362T477 245Q477 169 447 111T362 21T236 -12Q193 -12 158 1L87 -117L27 -88L24 -78L95 38Q61 68 43 114T25 217Q25 293 55 351T141 441T267 474Q309 474 344 462L409 572L471 542L473
530L409 424Q477 362 477 245ZM342 65T342 199Q342 293 317 340T243 388Q201 388 180 354T158 254Q158 160 183 113T257 65Q342 65 342 199Z" />
<glyph unicode="&#xf9;" glyph-name="ugrave" horiz-adv-x="547" d="M74 362T66 373T40 385Q31 385 24 384T15 382L21 441Q74 449 130 459T204 474L214 457Q203 433 195 349T187 175Q187 134 202 114T249 94Q268 94 287 103T334 131V335Q334 364 326 373T291 384L274
383L282 441Q336 449 394 459T469 472L479 455Q468 432 460 339T452 133Q452 114 461 103T487 92Q498 92 508 96T525 104T534 109L550 88Q546 81 530 60T490 16T445 -12Q354 -12 343 65L335 69Q297 33 266 11T224 -11Q147 -11 107 21T67 115L74 336Q74 362 66 373ZM197
736Q211 721 262 669T364 567L334 527L319 523Q261 566 204 603T130 651L129 665L183 735L197 736Z" />
<glyph unicode="&#xfa;" glyph-name="uacute" horiz-adv-x="547" d="M74 362T66 373T40 385Q31 385 24 384T15 382L21 441Q74 449 130 459T204 474L214 457Q203 433 195 349T187 175Q187 134 202 114T249 94Q268 94 287 103T334 131V335Q334 364 326 373T291 384L274
383L282 441Q336 449 394 459T469 472L479 455Q468 432 460 339T452 133Q452 114 461 103T487 92Q498 92 508 96T525 104T534 109L550 88Q546 81 530 60T490 16T445 -12Q354 -12 343 65L335 69Q297 33 266 11T224 -11Q147 -11 107 21T67 115L74 336Q74 362 66 373ZM398
642T341 604T226 523L211 527L181 567Q233 616 284 668T349 737L362 736L416 666L415 652Q398 642 341 604Z" />
<glyph unicode="&#xfb;" glyph-name="ucircumflex" horiz-adv-x="547" d="M74 362T66 373T40 385Q31 385 24 384T15 382L21 441Q74 449 130 459T204 474L214 457Q203 433 195 349T187 175Q187 134 202 114T249 94Q268 94 287 103T334 131V335Q334 364 326 373T291
384L274 383L282 441Q336 449 394 459T469 472L479 455Q468 432 460 339T452 133Q452 114 461 103T487 92Q498 92 508 96T525 104T534 109L550 88Q546 81 530 60T490 16T445 -12Q354 -12 343 65L335 69Q297 33 266 11T224 -11Q147 -11 107 21T67 115L74 336Q74
362 66 373ZM149 618T195 666T256 730H276Q290 715 336 667T428 576L399 535L383 531Q342 563 287 600L266 614Q188 562 149 531L133 535L104 576Q149 618 195 666Z" />
<glyph unicode="&#xfc;" glyph-name="udieresis" horiz-adv-x="547" d="M74 362T66 373T40 385Q31 385 24 384T15 382L21 441Q74 449 130 459T204 474L214 457Q203 433 195 349T187 175Q187 134 202 114T249 94Q268 94 287 103T334 131V335Q334 364 326 373T291
384L274 383L282 441Q336 449 394 459T469 472L479 455Q468 432 460 339T452 133Q452 114 461 103T487 92Q498 92 508 96T525 104T534 109L550 88Q546 81 530 60T490 16T445 -12Q354 -12 343 65L335 69Q297 33 266 11T224 -11Q147 -11 107 21T67 115L74 336Q74
362 66 373ZM142 563T127 579T111 623Q111 653 129 672T178 691Q206 691 222 674T238 630Q238 601 220 582T170 563Q142 563 127 579ZM320 563T305 579T289 623Q289 653 307 672T356 691Q384 691 400 674T416 630Q416 601 398 582T349 563Q320 563 305 579Z" />
<glyph unicode="&#xfd;" glyph-name="yacute" horiz-adv-x="465" d="M338 358T338 381Q338 393 332 397T309 402H277L274 407L282 465Q292 464 322 463T388 462H481L473 401Q451 396 441 387T422 352L294 43Q231 -110 175 -176T53 -241Q44 -241 26 -225T-8 -190T-23
-160L-15 -147Q49 -142 101 -106T186 -9Q159 71 116 187T48 357Q36 380 23 389T-12 400L-14 405L-7 462H71Q116 462 170 465T224 469L226 464L217 405Q189 404 179 399T169 381Q169 361 197 264T237 132H248Q338 358 338 381ZM383 642T326 604T211 523L196 527L166
567Q218 616 269 668T334 737L347 736L401 666L400 652Q383 642 326 604Z" />
<glyph unicode="&#xfe;" glyph-name="thorn" horiz-adv-x="513" d="M68 628T59 640T25 653Q16 653 10 652T0 651Q-1 654 -1 657T-1 664L4 710Q62 718 126 728T210 742L217 723Q208 712 201 629T190 406Q265 461 291 468Q305 470 310 470Q317 470 320 469Q398 462
443 404T489 250Q489 175 457 116T367 24T236 -10Q205 -10 185 -7L184 -83Q184 -127 191 -147T221 -168Q235 -168 248 -167T266 -166L268 -170L257 -232Q241 -232 227 -231L148 -230Q107 -230 63 -232T4 -236L12 -174Q35 -172 45 -165T59 -143T64 -97L68 75V597Q68
628 59 640ZM196 83T217 78T259 73Q306 73 332 109T359 212Q359 287 332 331T261 375Q246 375 225 366T188 342L186 89Q196 83 217 78Z" />
<glyph unicode="&#xff;" glyph-name="ydieresis" horiz-adv-x="465" d="M338 358T338 381Q338 393 332 397T309 402H277L274 407L282 465Q292 464 322 463T388 462H481L473 401Q451 396 441 387T422 352L294 43Q231 -110 175 -176T53 -241Q44 -241 26 -225T-8
-190T-23 -160L-15 -147Q49 -142 101 -106T186 -9Q159 71 116 187T48 357Q36 380 23 389T-12 400L-14 405L-7 462H71Q116 462 170 465T224 469L226 464L217 405Q189 404 179 399T169 381Q169 361 197 264T237 132H248Q338 358 338 381ZM127 563T112 579T96 623Q96
653 114 672T163 691Q191 691 207 674T223 630Q223 601 205 582T155 563Q127 563 112 579ZM305 563T290 579T274 623Q274 653 292 672T341 691Q369 691 385 674T401 630Q401 601 383 582T334 563Q305 563 290 579Z" />
<glyph unicode="&#x2013;" glyph-name="endash" horiz-adv-x="453" d="M0 212L-9 225L2 301H243Q330 301 373 302Q455 304 455 305L463 290L452 213L0 212Z" />
<glyph unicode="&#x2014;" glyph-name="emdash" horiz-adv-x="876" d="M0 212L-9 225L2 301H441Q568 301 714 302T877 305L885 290L874 213L0 212Z" />
<glyph unicode="&#x2018;" glyph-name="quoteleft" horiz-adv-x="218" d="M132 387T97 387Q67 387 48 410T28 472Q28 522 69 570T175 654L212 624V607Q182 587 163 559T144 504Q144 484 153 467T179 436L176 422Q132 387 97 387Z" />
<glyph unicode="&#x2019;" glyph-name="quoteright" horiz-adv-x="218" d="M61 634T82 644T121 654Q151 654 170 631T190 568Q190 518 149 470T43 387L6 417V434Q36 454 55 482T74 536Q74 556 65 574T39 605L42 619Q61 634 82 644Z" />
<glyph unicode="&#x201a;" glyph-name="quotesinglbase" horiz-adv-x="238" d="M93 142T127 142Q157 142 175 118T194 53Q194 1 150 -51T41 -140L4 -110V-93Q36 -71 56 -40T76 21Q76 40 67 60T45 94L48 108Q93 142 127 142Z" />
<glyph unicode="&#x201c;" glyph-name="quotedblleft" horiz-adv-x="402" d="M316 387T281 387Q251 387 232 410T212 472Q212 522 253 570T359 654L396 624V607Q366 587 347 559T328 504Q328 484 337 467T363 436L360 422Q316 387 281 387ZM132 387T97 387Q67
387 48 410T28 472Q28 522 69 570T175 654L212 624V607Q182 587 163 559T144 504Q144 484 153 467T179 436L176 422Q132 387 97 387Z" />
<glyph unicode="&#x201d;" glyph-name="quotedblright" horiz-adv-x="402" d="M245 634T266 644T305 654Q335 654 354 631T374 568Q374 518 333 470T227 387L190 417V434Q220 454 239 482T258 536Q258 556 249 574T223 605L226 619Q245 634 266 644ZM61 634T82
644T121 654Q151 654 170 631T190 568Q190 518 149 470T43 387L6 417V434Q36 454 55 482T74 536Q74 556 65 574T39 605L42 619Q61 634 82 644Z" />
<glyph unicode="&#x201e;" glyph-name="quotedblbase" horiz-adv-x="421" d="M93 142T127 142Q157 142 176 119T196 57Q196 7 155 -41T49 -125L12 -95V-78Q42 -58 61 -30T80 25Q80 45 71 63T45 94L48 108Q93 142 127 142ZM274 142T308 142Q338 142 357 119T377
57Q377 7 336 -41T230 -125L193 -95V-78Q223 -58 242 -30T261 25Q261 45 252 63T226 94L229 108Q274 142 308 142Z" />
<glyph unicode="&#x2022;" glyph-name="bullet" horiz-adv-x="340" d="M111 113T81 145T50 230Q50 285 83 320T173 355Q226 355 257 323T289 238Q289 183 256 148T166 113Q111 113 81 145Z" />
<glyph unicode="&#x2039;" glyph-name="guilsinglleft" horiz-adv-x="265" d="M210 349T199 330T177 295L136 229L224 85L221 69L179 44Q134 95 83 147T15 215V236Q31 252 82 305T179 411L221 386L224 370Q210 349 199 330Z" />
<glyph unicode="&#x203a;" glyph-name="guilsinglright" horiz-adv-x="265" d="M74 135T102 181L130 226L96 280Q68 328 41 369L45 385L86 411Q132 360 183 307T250 239V219Q235 203 184 150T86 44L45 69L41 85Q74 135 102 181Z" />
</font>
</defs>
</svg>
