<?xml version="1.0" standalone="no"?>
<!DOCTYPE svg PUBLIC "-//W3C//DTD SVG 1.1//EN" "http://www.w3.org/Graphics/SVG/1.1/DTD/svg11.dtd">
<svg xmlns="http://www.w3.org/2000/svg">
<defs >
<font id="GermaniaOne" horiz-adv-x="392" ><font-face
    font-family="Germania One"
    units-per-em="1000"
    panose-1="2 11 7 0 2 2 0 0 0 0"
    ascent="911"
    descent="-250"
    alphabetic="0" />
<glyph unicode=" " glyph-name="space" horiz-adv-x="250" />
<glyph unicode="!" glyph-name="exclam" horiz-adv-x="297" d="M160 153T201 119T242 72T201 24T149 -12T96 23T55 71T96 118T149 153ZM215 712Q207 411 207 353T222 256L127 189Q96 227 90 352L77 712H215Z" />
<glyph unicode="&quot;" glyph-name="quotedbl" horiz-adv-x="468" d="M119 485Q109 485 82 495T55 510Q55 531 77 621T105 712Q122 712 177 691T233 661Q201 596 162 541T119 485ZM299 485Q289 485 262 495T235 510Q235 531 257 621T285 712Q302 712 357 691T413
661Q381 596 342 541T299 485Z" />
<glyph unicode="#" glyph-name="numbersign" horiz-adv-x="616" d="M55 370V488H183L218 676Q228 676 265 662T318 636L290 488H384L419 676Q429 676 466 662T519 636L491 488H561V370H470L455 290H561V172H433L399 -12Q386 -12 350 2T299 28L325 172H232L198
-12Q185 -12 149 2T98 28L124 172H55V290H146L161 370H55ZM269 370L254 290H347L362 370H269Z" />
<glyph unicode="$" glyph-name="dollar" horiz-adv-x="464" d="M231 203T239 203T266 216T284 237T271 256T208 290T114 341T58 394T45 449T55 499T110 561T193 621V700H283V618Q372 578 413 508L300 430L292 441Q248 497 227 497Q216 497 198 484T180 462T192
443T254 408T348 356T406 306T419 239T405 175T354 128T283 82V0H193V83Q154 96 113 126T51 192L164 270L172 259Q202 221 216 212Z" />
<glyph unicode="%" glyph-name="percent" horiz-adv-x="744" d="M278 390T237 361T174 332T112 361T64 404T55 473V534Q55 587 62 602T111 647T173 676T235 647T283 604T290 534V473Q290 420 285 408Q278 390 237 361ZM166 414T173 414T186 427T193 473V534Q193
563 190 571T182 586T173 593T164 587T155 572T152 534V473Q152 441 159 428ZM677 46T636 17T573 -12T511 17T463 60T454 129V190Q454 243 461 258T510 303T572 332T634 303T682 260T689 190V129Q689 76 684 64Q677 46 636 17ZM578 70T585 83T592 129V190Q592 219
589 227T581 242T572 249T563 243T554 228T551 190V129Q551 97 557 84T571 70ZM608 616L228 -12Q216 -12 184 9T138 48L518 676Q530 676 562 655T608 616Z" />
<glyph unicode="&amp;" glyph-name="ampersand" horiz-adv-x="745" d="M304 415V304H255Q242 300 224 286T200 261T193 220T202 177T238 148T282 131T328 148T363 180Q373 204 373 272T367 366T343 428L455 506Q485 478 500 415H639V304H511V209Q511 186 519 168Q534
131 548 131T591 162L690 93Q653 52 612 20T548 -12Q511 -12 430 75Q331 -12 282 -12Q243 -12 167 49T66 150Q55 167 55 221T66 292Q88 325 154 379Q110 423 98 444T85 520T99 594T183 663T279 712T356 675T436 606L340 537Q332 549 313 564T282 579T253 566T230
540T224 506T230 469T257 435T292 415H304Z" />
<glyph unicode="&apos;" glyph-name="quotesingle" horiz-adv-x="288" d="M119 485Q109 485 82 495T55 510Q55 531 77 621T105 712Q122 712 177 691T233 661Q201 596 162 541T119 485Z" />
<glyph unicode="(" glyph-name="parenleft" horiz-adv-x="370" d="M57 -35T51 42T45 272T58 515T105 657T211 750L315 677Q236 617 216 539T195 250T215 -39T315 -177L211 -250Q157 -219 127 -186T77 -94Z" />
<glyph unicode=")" glyph-name="parenright" horiz-adv-x="370" d="M313 535T319 458T325 228T312 -15T265 -157T159 -250L55 -177Q134 -117 154 -39T175 250T155 539T55 677L159 750Q213 719 243 686T293 594Z" />
<glyph unicode="*" glyph-name="asterisk" horiz-adv-x="486" d="M189 541L150 536Q95 536 50 550Q50 580 61 616T92 680Q144 662 209 605Q175 693 175 740Q205 750 243 750T311 740Q311 690 277 605Q343 663 395 679Q407 662 421 625T438 549Q392 536 340 536Q335
536 318 538T297 541Q373 495 404 453Q389 430 359 407T294 372Q266 412 243 502Q220 412 192 373Q167 380 134 403T81 453Q115 499 189 541Z" />
<glyph unicode="+" glyph-name="plus" horiz-adv-x="494" d="M55 241V359H182V482H312V359H439V241H312V118H182V241H55Z" />
<glyph unicode="," glyph-name="comma" horiz-adv-x="288" d="M234 66Q234 41 156 -38T69 -118Q66 -118 56 -108T45 -93Q45 -77 101 15Q56 52 56 65T95 111T145 145T195 112T234 66Z" />
<glyph unicode="-" glyph-name="hyphen" horiz-adv-x="383" d="M55 260V340H328V260H55Z" />
<glyph unicode="." glyph-name="period" horiz-adv-x="288" d="M155 145T194 112T233 68T194 22T144 -12T94 22T55 67T94 112T144 145Z" />
<glyph unicode="/" glyph-name="slash" horiz-adv-x="620" d="M565 690L165 -250Q152 -250 110 -229T55 -190L455 750Q468 750 510 729T565 690Z" />
<glyph unicode="0" glyph-name="zero" horiz-adv-x="464" d="M266 -12T232 -12T131 46T48 140Q37 161 37 271V393Q37 498 50 529T131 618T232 676T332 618T416 524Q427 501 427 393V271Q427 166 414 135T333 46ZM220 118T232 118T261 133T286 160T293 271V393Q293
476 288 496T264 531T233 546T202 531T177 501T171 393V271Q171 174 178 161T202 133Z" />
<glyph unicode="1" glyph-name="one" horiz-adv-x="481" d="M88 110H223V541Q168 489 141 437L37 497Q67 548 134 612T215 676T288 642T351 596V110H444V0H88V110Z" />
<glyph unicode="2" glyph-name="two" horiz-adv-x="464" d="M232 676Q265 676 328 620T416 525Q427 507 427 444T414 360T304 279T183 187Q175 176 175 146V110H423V0H37V136Q37 195 51 223T112 289T215 364T282 410T293 443T287 487T262 527T230 547T183 510T141
426L33 490Q47 554 112 615T232 676Z" />
<glyph unicode="3" glyph-name="three" horiz-adv-x="464" d="M153 192T188 150T243 108T285 149Q293 165 293 205T280 262Q233 315 178 324V391Q233 411 268 438Q283 449 283 492Q283 511 263 528T230 546T189 509T151 427L43 489Q57 553 119 614T232 676Q265
676 333 624T410 544Q417 525 417 469T406 398Q387 375 357 359Q404 322 415 304T427 214T414 117T333 40T232 -12Q178 -12 113 47T33 169L143 244Q153 192 188 150Z" />
<glyph unicode="4" glyph-name="four" horiz-adv-x="483" d="M406 0H278V142H151L37 208Q58 297 100 410T180 600T228 676Q244 676 321 631T406 570V252H446V142H406V0ZM278 252V536Q231 427 179 252H278Z" />
<glyph unicode="5" glyph-name="five" horiz-adv-x="464" d="M413 664V554H196L191 456Q317 411 411 322Q427 307 427 227T410 118T328 39T232 -12Q178 -12 113 46T33 168L148 248Q158 196 191 152T242 108Q263 108 285 149Q293 165 293 207T281 262Q249 294 186
326T54 375L72 664H413Z" />
<glyph unicode="6" glyph-name="six" horiz-adv-x="464" d="M294 490T348 445T414 376T427 258T414 134T333 46T232 -12T131 46T48 140Q37 162 37 256T49 406T95 510T173 591T298 676L403 602Q310 568 248 512Q294 490 348 445ZM244 118T261 135T286 167T293 252T271
350T182 403L177 383Q171 345 171 262T179 165T203 134T232 118Z" />
<glyph unicode="7" glyph-name="seven" horiz-adv-x="464" d="M37 559V664H408Q427 597 427 559L177 -12Q164 -12 125 6T69 38L296 559H37Z" />
<glyph unicode="8" glyph-name="eight" horiz-adv-x="464" d="M264 -12T232 -12T136 37T48 120Q37 140 37 211T48 302Q65 326 107 349Q75 367 58 388Q47 405 47 466T53 544Q66 575 131 625T230 676T331 624T411 544Q417 529 417 467T406 388Q389 367 357 349Q399
326 416 302Q427 283 427 212T416 120Q392 87 328 38ZM218 98T232 98T266 118T289 150Q293 182 293 210T289 262Q287 273 267 291T232 309T198 291T175 262Q171 239 171 211T175 150Q177 138 197 118ZM220 391T232 391T261 408T280 442Q283 481 283 485T280 520Q278
535 261 550T232 566T203 551T184 520Q181 490 181 486T184 442Q186 426 203 409Z" />
<glyph unicode="9" glyph-name="nine" horiz-adv-x="464" d="M191 187T133 237T56 319T37 420T53 525Q68 561 133 618T232 676T333 619T416 525Q427 503 427 417T417 279T390 190T338 117T266 55T167 -12L61 61Q171 103 234 182Q191 187 133 237ZM220 546T204
529T179 496T171 422T195 332T285 288Q293 304 293 394T285 495Q275 512 259 529T232 546Z" />
<glyph unicode=":" glyph-name="colon" horiz-adv-x="283" d="M166 456T205 423T244 379T205 333T155 299T105 333T66 378T105 423T155 456ZM155 145T194 112T233 68T194 22T144 -12T94 22T55 67T94 112T144 145Z" />
<glyph unicode=";" glyph-name="semicolon" horiz-adv-x="283" d="M245 66Q245 41 167 -38T80 -118Q77 -118 67 -108T56 -93Q56 -77 112 15Q67 52 67 65T106 111T156 145T206 112T245 66ZM166 456T205 423T244 379T205 333T155 299T105 333T66 378T105 423T155 456Z" />
<glyph unicode="&lt;" glyph-name="less" horiz-adv-x="490" d="M435 130Q435 118 395 82T338 46T189 161T55 300T188 438T338 554T395 519T435 470Q435 466 398 437Q267 336 235 300Q267 264 351 199T435 130Z" />
<glyph unicode="=" glyph-name="equal" horiz-adv-x="494" d="M55 340V458H439V340H55ZM55 142V260H439V142H55Z" />
<glyph unicode="&gt;" glyph-name="greater" horiz-adv-x="490" d="M55 470Q55 483 95 518T151 554T301 439T435 300T302 162T152 46T96 82T55 130Q55 134 92 163Q223 264 255 300Q223 336 139 401T55 470Z" />
<glyph unicode="?" glyph-name="question" horiz-adv-x="515" d="M257 153T298 119T339 72T298 24T246 -12T193 23T152 71T193 118T246 153ZM255 712Q290 712 358 656T449 563Q460 545 460 479T449 392T385 322T322 259T312 224V189H180V234Q180 278 192 296T229
341T282 395T318 431T326 487Q326 514 296 545T250 577T208 536T171 441L56 520Q70 584 135 648T255 712Z" />
<glyph unicode="@" glyph-name="at" horiz-adv-x="644" d="M201 503T247 534T320 566T398 524T459 462T468 373T472 284Q476 249 505 222Q519 248 519 331V369Q519 476 501 510T423 591T323 637T220 590T143 510Q125 460 125 369V331Q125 244 143 190Q154 157
218 110T316 63T387 84L446 41Q365 -12 320 -12T183 53T76 160Q55 215 55 331V369Q55 491 74 536T184 646T322 712T461 647T568 540Q589 485 589 369V331Q589 233 578 200Q573 186 545 158T505 129T454 155T403 196Q329 131 300 131Q286 131 235 184T176 258T169
361T182 466Q201 503 247 534ZM365 278L364 404Q364 425 347 445T321 466T300 455T280 434T273 353T285 262Q290 254 301 245T318 235T340 244T359 261L365 278Z" />
<glyph unicode="A" glyph-name="A" horiz-adv-x="514" d="M220 712T257 712T365 647T453 540Q464 511 464 409V0H326V150H188V0H50V409Q50 511 61 540Q78 582 149 647ZM188 409V270H326V409Q326 491 318 509T291 548T257 569T224 549T196 510T188 409Z" />
<glyph unicode="B" glyph-name="B" horiz-adv-x="534" d="M180 657Q248 712 275 712T363 660T439 586T454 515T439 442T384 379Q447 327 473 292Q484 274 484 225T473 160Q455 121 386 61T277 0H70V428Q70 509 59 542T10 620L142 712Q166 692 180 657ZM208 304V121H277Q290
121 309 141T336 177T345 241Q345 274 295 304H208ZM208 486V415H259Q270 415 286 434T309 469T315 505T295 552T258 579T205 566Q208 527 208 486Z" />
<glyph unicode="C" glyph-name="C" horiz-adv-x="479" d="M25 303V397Q25 522 45 557T130 652T228 712Q283 712 354 649T444 509L333 432Q317 486 282 531T233 577Q208 577 176 528Q163 509 163 397V303Q163 188 176 172Q208 123 233 123Q247 123 282 162T333
250L444 172Q425 103 354 46T228 -12Q196 -12 131 48T45 143T25 303Z" />
<glyph unicode="D" glyph-name="D" horiz-adv-x="534" d="M179 660Q245 712 279 712T384 647T473 540Q484 514 484 409V291Q484 186 473 160Q455 121 386 61T277 0H70V428Q70 509 59 542T10 620L142 712Q163 696 179 660ZM277 569Q248 569 205 550Q208 529 208
486V121H277Q291 121 310 141T338 180T346 281V409Q346 491 338 509T311 548T277 569Z" />
<glyph unicode="E" glyph-name="E" horiz-adv-x="452" d="M188 426H367V305H188V121H427V0H50V616L188 712H411V590H225L188 564V426Z" />
<glyph unicode="F" glyph-name="F" horiz-adv-x="477" d="M70 0V399Q70 522 90 557T175 652T273 712Q317 712 382 677T479 598L368 521Q312 577 278 577Q265 577 248 561T220 526T208 432V409H387V288H208V0H70Z" />
<glyph unicode="G" glyph-name="G" horiz-adv-x="480" d="M163 397V291Q163 209 171 191T198 152T233 131T271 152T303 190Q309 207 310 240H241V351H440V0H343L331 68Q262 -12 229 -12T125 53T36 160Q25 186 25 291V397Q25 522 45 557T130 652T228 712Q283 712
354 648T444 508L333 431Q317 485 282 531T233 577Q208 577 176 528Q163 509 163 397Z" />
<glyph unicode="H" glyph-name="H" horiz-adv-x="534" d="M346 0V320H208V0H70V428Q70 513 59 546T10 628L130 712Q162 691 185 635T208 498V440H346V700H484V0H346Z" />
<glyph unicode="I" glyph-name="I" horiz-adv-x="250" d="M56 0V700H194V0H56Z" />
<glyph unicode="J" glyph-name="J" horiz-adv-x="449" d="M261 700H399V303Q399 178 379 143T294 48T192 -12T97 31T10 132L121 210Q122 209 129 199T143 181T158 164Q177 143 190 143T221 159T249 194T261 303V700Z" />
<glyph unicode="K" glyph-name="K" horiz-adv-x="534" d="M208 498V440H238Q255 440 273 458T301 493T321 588T331 700H469Q469 661 458 578T438 476Q423 443 362 387Q433 326 454 284Q464 263 474 158T485 0H347Q347 47 338 147T319 264Q288 320 246 320H208V0H70V438Q70
519 59 550T10 628L130 712Q162 691 185 635T208 498Z" />
<glyph unicode="L" glyph-name="L" horiz-adv-x="390" d="M380 120V0H15V700H153V120H380Z" />
<glyph unicode="M" glyph-name="M" horiz-adv-x="734" d="M310 0V509Q310 526 304 537T282 564T258 579Q238 579 205 539Q208 514 208 486V0H70V428Q70 513 59 547T10 628L130 712Q162 689 176 657Q248 712 278 712T391 635Q474 712 508 712Q533 712 593 660T669
586T684 529V0H546V509Q546 528 539 538T516 564T487 579T447 546Q448 541 448 529V0H310Z" />
<glyph unicode="N" glyph-name="N" horiz-adv-x="520" d="M207 529L208 486V0H70V428Q70 512 59 546T10 628L130 712Q159 693 184 647Q263 712 291 712T379 660T455 586T470 529V0H331V509Q331 518 324 531T301 562T272 579T238 564T207 529Z" />
<glyph unicode="O" glyph-name="O" horiz-adv-x="464" d="M268 -12T232 -12T125 53T36 160Q25 186 25 291V409Q25 514 36 540Q53 581 124 646T232 712T339 647T428 540Q439 514 439 409V291Q439 186 428 160Q411 119 340 54ZM218 131T232 131T265 151T293 190T301
291V409Q301 491 293 509T266 548T232 569T199 549T171 510T163 409V291Q163 209 171 191T198 152Z" />
<glyph unicode="P" glyph-name="P" horiz-adv-x="510" d="M253 339H273Q292 339 317 357T350 398T357 457T350 518T318 561T269 579T205 553Q208 520 208 486V0H70V428Q70 512 59 546T10 627L130 712Q156 694 176 653Q258 712 293 712T390 656T474 562Q485 548
485 465T474 360Q452 322 390 266T293 210H253V339Z" />
<glyph unicode="Q" glyph-name="Q" horiz-adv-x="464" d="M25 261V409Q25 514 36 540Q53 581 124 646T232 712T339 647T428 540Q439 514 439 409V291Q439 186 430 163T382 101T301 41Q346 8 358 8Q382 8 407 36L500 -29Q462 -69 422 -99T358 -129Q322 -129 250
-82T108 37Q132 54 166 77T214 111T247 137Q277 162 293 190Q301 206 301 291V409Q301 491 293 509T266 548T232 569T199 549T171 510T163 409V261Q163 186 169 158L65 86Q45 112 35 134T25 261Z" />
<glyph unicode="R" glyph-name="R" horiz-adv-x="534" d="M180 657Q260 712 289 712T378 660T454 586T469 529Q469 461 458 448Q437 416 393 373Q454 315 469 284Q477 263 486 157T495 0H345Q345 45 337 141T320 257T297 292H208V0H70V438Q70 519 59 550T10 628L130
712Q162 691 180 657ZM208 486V409H247Q261 409 283 431T311 468T318 501T312 531T293 562T273 579Q246 579 205 566Q208 527 208 486Z" />
<glyph unicode="S" glyph-name="S" horiz-adv-x="464" d="M428 282Q439 264 439 211T417 120Q397 91 332 40T236 -12Q181 -12 110 45T20 172L131 248Q147 201 182 162T231 123T262 132T288 152Q301 168 301 202T285 244Q265 261 208 289T101 349T39 413T25 493T47
580Q67 609 132 660T228 712Q283 712 354 655T444 528L333 451Q317 498 282 537T233 577T201 568T174 546T163 500T183 456Q199 442 256 412Q402 332 428 282Z" />
<glyph unicode="T" glyph-name="T" horiz-adv-x="422" d="M410 700V580H280V0H142V580H12V700H410Z" />
<glyph unicode="U" glyph-name="U" horiz-adv-x="534" d="M484 700V291Q484 186 473 160Q456 119 385 54T277 -12T170 53T81 160Q70 186 70 291V436Q70 517 59 550T10 628L130 712Q162 691 185 631T208 486V291Q208 209 216 191T243 152T277 131T310 151T338 190T346
291V700H484Z" />
<glyph unicode="V" glyph-name="V" horiz-adv-x="494" d="M45 700H183V311Q183 255 189 227T219 165T252 131T285 164T314 226T321 311V428Q321 512 310 545T261 626L381 712Q413 691 436 631T459 486V321Q459 243 444 193T359 66T252 -12T146 65T60 193T45 321V700Z" />
<glyph unicode="W" glyph-name="W" horiz-adv-x="738" d="M443 700V321Q443 265 449 236T476 169T503 131T531 168T558 235T565 321V428Q565 512 554 545T505 628L625 712Q657 690 680 630T703 486V321Q703 243 688 193T606 65T504 -12Q483 -12 446 26T374 115Q338
63 302 26T244 -12Q210 -12 143 65T60 192T45 321V700H183V321Q183 256 190 231T217 169T244 131T272 168T298 235T305 321V700H443Z" />
<glyph unicode="X" glyph-name="X" horiz-adv-x="508" d="M334 700H472Q472 665 465 589T451 496Q440 462 365 387Q402 352 431 314T466 256T480 140T488 0H350Q350 36 343 127T332 234Q323 258 295 289T254 320T213 289T178 239T165 129T158 0H20Q20 44 27 139T41
255T77 314T143 387Q106 407 85 443T58 513Q43 602 3 628L123 712Q153 695 170 657T191 580T211 501T254 440Q271 443 289 468T314 512T327 601T334 700Z" />
<glyph unicode="Y" glyph-name="Y" horiz-adv-x="484" d="M173 0V280Q134 312 98 356T48 426T35 531V700H173V531Q173 480 181 460T211 410T242 381T273 410T303 459T311 531V700H449V531Q449 451 436 426T386 357T311 280V0H173Z" />
<glyph unicode="Z" glyph-name="Z" horiz-adv-x="448" d="M423 0H25V100L271 580H37V700H423V600L176 120H423V0Z" />
<glyph unicode="[" glyph-name="bracketleft" horiz-adv-x="393" d="M171 750Q298 750 338 724L295 630Q265 640 195 640V-140Q265 -140 295 -130L338 -224Q298 -250 171 -250Q160 -250 110 -221T55 -183V683Q59 692 109 721T171 750Z" />
<glyph unicode="\" glyph-name="backslash" horiz-adv-x="620" d="M455 -250L55 690Q68 707 110 728T165 750L565 -190Q552 -207 510 -228T455 -250Z" />
<glyph unicode="]" glyph-name="bracketright" horiz-adv-x="393" d="M222 -250Q95 -250 55 -224L98 -130Q128 -140 198 -140V640Q128 640 98 630L55 724Q95 750 222 750Q233 750 283 721T338 683V-183Q334 -192 284 -221T222 -250Z" />
<glyph unicode="^" glyph-name="asciicircum" horiz-adv-x="618" d="M139 165Q127 165 91 192T55 230Q55 246 170 370T309 495T447 371T563 230Q563 220 528 193T479 165Q474 165 444 194T372 265T309 325Q288 307 246 266T174 195T139 165Z" />
<glyph unicode="_" glyph-name="underscore" horiz-adv-x="483" d="M55 -250V-170H428V-250H55Z" />
<glyph unicode="`" glyph-name="grave" horiz-adv-x="298" d="M55 685Q55 695 87 722T129 750T191 686T243 616T228 595T206 580T127 625T55 685Z" />
<glyph unicode="a" glyph-name="a" horiz-adv-x="472" d="M410 539V129Q416 94 457 67L367 -10Q354 -1 335 22T303 69Q220 -12 187 -12Q163 -12 110 41T43 127T30 269T43 412T109 498T187 551Q222 551 300 479L312 539H410ZM264 399T243 412T210 426T187 413T170
389Q157 371 157 270T170 150Q174 140 186 127T210 113T242 126T270 151T278 268Q278 374 271 386Z" />
<glyph unicode="b" glyph-name="b" horiz-adv-x="468" d="M65 0V546Q65 597 53 624T15 673L125 750Q197 693 197 589V498Q257 551 283 551T364 498T427 419Q438 394 438 270T427 120Q419 95 365 42T286 -12Q251 -12 174 61L163 0H65ZM209 140T230 127T263 113T286
126T305 153T311 269T305 385T287 412T264 426T232 413T203 389Q195 372 195 269T202 153Z" />
<glyph unicode="c" glyph-name="c" horiz-adv-x="399" d="M51 110Q30 143 30 269T51 429Q66 454 125 502T216 551T304 513T388 425L285 354Q272 378 250 407T216 436Q196 436 170 394Q157 368 157 270T170 145Q178 132 191 118T217 103T251 126T285 185L388 113Q361
63 306 26T217 -12T125 36T51 110Z" />
<glyph unicode="d" glyph-name="d" horiz-adv-x="435" d="M49 444T103 497T184 551T273 497V546Q273 597 261 624T223 673L333 750Q405 693 405 589V0H303L291 59Q218 -12 182 -12Q158 -12 104 41T41 120Q30 145 30 269T41 419Q49 444 103 497ZM259 399T238 412T205
426T182 413T163 386T157 270T163 154T181 127T204 113T236 126T265 150Q271 164 273 231V268Q273 374 266 386Z" />
<glyph unicode="e" glyph-name="e" horiz-adv-x="444" d="M404 271V235H162Q162 175 177 140Q182 128 195 116T222 103T257 127T290 185L393 112Q366 62 311 25T221 -12T123 41T44 123T30 269T44 415T122 498T217 551T311 498T390 416T404 271ZM258 410T243 423T214
436T183 410T162 330H276Q273 383 266 396Z" />
<glyph unicode="f" glyph-name="f" horiz-adv-x="348" d="M15 395V470L65 482Q65 594 76 619T152 697T247 750T324 722T393 656L295 590Q267 635 247 635Q237 635 224 622T204 595T197 500H339V395H197V0H65V395H15Z" />
<glyph unicode="g" glyph-name="g" horiz-adv-x="438" d="M258 400T237 413T205 426T182 413T165 389Q157 373 157 289T165 190Q169 180 181 167T205 153T237 166T266 191T273 289T266 388ZM403 539V33Q403 -95 392 -119T311 -197T208 -250T121 -216T43 -136L146
-65L156 -78Q193 -125 207 -125T240 -112T265 -85T272 38L275 77Q207 28 183 28T105 81T41 160T30 289T41 418T105 498T186 551T293 487L305 539H403Z" />
<glyph unicode="h" glyph-name="h" horiz-adv-x="503" d="M197 0H65V546Q65 597 53 624T15 673L125 750Q197 693 197 589V496Q259 551 287 551T376 496T438 386V193Q438 142 450 114T488 65L378 -12Q306 45 306 150V372Q306 389 288 407T255 426T197 384V0Z" />
<glyph unicode="i" glyph-name="i" horiz-adv-x="222" d="M40 539H172V193Q172 142 184 114T222 65L112 -12Q40 45 40 150V539ZM119 748T157 716T195 672T157 627T108 594T59 626T21 670T59 715T108 748Z" />
<glyph unicode="j" glyph-name="j" horiz-adv-x="268" d="M218 388Q218 388 217 33Q217 -93 202 -118Q191 -144 126 -197T28 -250T-57 -216T-135 -136L-32 -65L-22 -78Q15 -125 28 -125T57 -112T79 -86T86 8V345Q86 396 74 424T36 473L146 550Q218 493 218 388ZM141
748T179 716T217 672T179 627T130 594T81 626T43 670T81 715T130 748Z" />
<glyph unicode="k" glyph-name="k" horiz-adv-x="503" d="M197 0H65V546Q65 597 53 624T15 673L125 750Q197 693 197 589V475Q275 551 301 551T393 494T461 405Q461 382 430 327T369 243Q442 153 462 76L336 -12Q313 69 288 122T218 223V258Q249 280 284 322T324
388Q296 426 276 426Q265 426 240 405T197 364V0Z" />
<glyph unicode="l" glyph-name="l" horiz-adv-x="232" d="M35 750H167V193Q167 142 179 114T217 65L107 -12Q35 45 35 150V750Z" />
<glyph unicode="m" glyph-name="m" horiz-adv-x="703" d="M418 0H286V372Q286 389 268 407T238 426T197 402V0H65V345Q65 396 53 424T15 473L125 550Q158 522 174 493Q239 551 264 551Q279 551 313 529T375 476Q454 551 484 551T576 496T638 386V193Q638 142 650
114T688 65L578 -12Q506 45 506 150V372Q506 389 488 407T459 426T416 401Q418 391 418 386V0Z" />
<glyph unicode="n" glyph-name="n" horiz-adv-x="503" d="M197 0H65V345Q65 396 53 424T15 473L125 550Q162 520 180 481Q254 551 284 551T376 496T438 386V193Q438 142 450 114T488 65L378 -12Q306 45 306 150V372Q306 389 288 407T255 426T197 384V0Z" />
<glyph unicode="o" glyph-name="o" horiz-adv-x="434" d="M208 103T217 103T241 118T264 145Q277 167 277 269T264 394Q257 406 242 421T217 436T193 421T170 394Q157 372 157 270T170 145Q177 133 192 118ZM246 -12T217 -12T127 37T51 110Q30 147 30 270T51 429Q65
453 126 502T217 551T307 502T383 429Q404 393 404 270T383 110Q369 86 308 37Z" />
<glyph unicode="p" glyph-name="p" horiz-adv-x="475" d="M211 140T232 127T268 113T305 150Q318 173 318 269T305 389Q299 400 288 413T266 426T233 413T204 387T197 270T204 153ZM419 94T366 41T285 -12T197 42V-45Q197 -96 209 -124T247 -173L137 -250Q65 -193
65 -88V337Q65 432 15 474L125 551Q153 528 177 479Q255 551 288 551Q312 551 365 498T432 412T445 270T432 127Z" />
<glyph unicode="q" glyph-name="q" horiz-adv-x="438" d="M182 551Q218 551 293 478L305 539H403V-250H271V40Q210 -12 184 -12T104 41T41 120Q30 145 30 269T41 419Q49 444 103 497T182 551ZM259 399T238 412T205 426T182 413T163 386T157 270T163 154T181 127T204
113T236 126T265 150Q273 167 273 270T266 386Z" />
<glyph unicode="r" glyph-name="r" horiz-adv-x="383" d="M197 0H65V345Q65 396 53 424T15 474L125 551Q161 521 180 481Q254 551 284 551Q304 551 345 514T393 433L286 356Q285 380 275 403T256 426Q239 426 197 384V0Z" />
<glyph unicode="s" glyph-name="s" horiz-adv-x="407" d="M387 162Q387 131 310 60T196 -12T103 25T20 112L123 183Q173 113 196 113Q213 113 238 130T263 162Q263 166 239 179T181 213T112 259T54 322T30 397T98 493T202 551T294 514T377 427L274 356Q224 426
201 426Q189 426 172 413T154 388T190 354T270 307T350 243T387 162Z" />
<glyph unicode="t" glyph-name="t" horiz-adv-x="342" d="M197 434V213Q197 166 229 127T317 65L207 -12Q147 16 106 65T65 170V434H15V509L65 521Q63 570 53 598T15 654L125 731Q197 674 197 569V539H309V434H197Z" />
<glyph unicode="u" glyph-name="u" horiz-adv-x="463" d="M40 539H172V167Q172 150 188 132T218 113T276 154V539H408V0H306L294 59Q219 -12 189 -12T100 43T40 153V539Z" />
<glyph unicode="v" glyph-name="v" horiz-adv-x="454" d="M420 389V303Q420 183 407 154T327 57T227 -12T127 56T47 155T34 303V539H166V303Q166 198 173 180T198 142T227 123T255 142T280 179T288 303V346Q288 397 276 425T238 474L348 551Q420 494 420 389Z" />
<glyph unicode="w" glyph-name="w" horiz-adv-x="668" d="M634 389V303Q634 183 622 154T545 57T451 -12Q415 -12 334 101Q253 -12 217 -12Q187 -12 123 57T46 157T34 303V539H166V303Q166 198 173 179T194 142T217 123T239 141T260 178T268 267V539H400V303Q400
198 407 179T428 142T451 123T473 141T494 178T502 303V346Q502 432 462 474L562 551Q634 494 634 389Z" />
<glyph unicode="x" glyph-name="x" horiz-adv-x="456" d="M167 0H35V51Q35 147 48 182T136 293Q68 371 54 405T40 518V539H172V518Q172 463 180 441T205 388T228 358T251 388T276 440T284 518V539H416V518Q416 439 405 413Q383 365 319 293Q350 262 376 228T412
170T421 51V0H289V51Q289 126 281 147Q274 168 255 195T228 223T201 195T175 147T167 51V0Z" />
<glyph unicode="y" glyph-name="y" horiz-adv-x="488" d="M301 539H433V33Q433 -86 418 -115T340 -197T243 -250T158 -216T80 -136L183 -65L194 -78Q230 -125 243 -125T272 -112T294 -86T301 8V62Q245 8 218 8T128 63T65 173V346Q65 397 53 425T15 474L125 551Q197
494 197 389V187Q197 170 216 152T249 133T301 174V539Z" />
<glyph unicode="z" glyph-name="z" horiz-adv-x="416" d="M30 434V539H382V468L168 113H240Q293 113 338 153L406 72Q380 37 336 19T247 0H20V85L223 434H30Z" />
<glyph unicode="{" glyph-name="braceleft" horiz-adv-x="412" d="M255 88V-25Q255 -82 271 -105T357 -171L246 -250Q165 -186 135 -140T105 -15V100Q105 151 91 172T35 222V278Q77 307 91 328T105 400V515Q105 593 135 639T246 750L357 671Q288 629 272 606T255
525V412Q255 312 157 250Q255 188 255 88Z" />
<glyph unicode="|" glyph-name="bar" horiz-adv-x="200" d="M55 -250V750H145V-250H55Z" />
<glyph unicode="}" glyph-name="braceright" horiz-adv-x="412" d="M157 412V525Q157 582 141 605T55 671L166 750Q247 686 277 640T307 515V400Q307 349 321 328T377 278V222Q335 193 321 172T307 100V-15Q307 -93 277 -139T166 -250L55 -171Q124 -129 140 -106T157
-25V88Q157 188 255 250Q157 312 157 412Z" />
<glyph unicode="~" glyph-name="asciitilde" horiz-adv-x="544" d="M489 312T420 263T339 214T275 242T209 274Q193 270 164 247T127 224T87 247T55 279Q55 296 124 345T209 394Q217 394 268 366T335 334Q351 338 380 361T417 384T457 361T489 329Q489 312 420 263Z" />
<glyph unicode="&#xa0;" glyph-name="nbspace" horiz-adv-x="250" />
<glyph unicode="&#xa1;" glyph-name="exclamdown" horiz-adv-x="297" d="M137 386T96 420T55 467T96 515T148 551T201 516T242 468T201 421T148 386ZM82 -174Q90 127 90 186T75 283L170 350Q201 312 207 187L220 -174H82Z" />
<glyph unicode="&#xa2;" glyph-name="cent" horiz-adv-x="423" d="M271 0H181V114Q141 136 98 174T45 231T35 351T46 470Q54 487 97 525T181 585V700H271V593Q311 578 351 547T413 478L300 400L292 411Q248 467 227 467Q217 467 202 454T179 428T172 350T179 272T201
246T225 233T242 238T260 254Q276 269 292 289L300 300L413 222Q392 185 352 154T271 107V0Z" />
<glyph unicode="&#xa3;" glyph-name="sterling" horiz-adv-x="536" d="M55 220V330H141Q139 346 116 415T93 556Q97 573 166 624T252 676T339 627T442 537L328 471Q304 501 251 531Q251 476 266 432T281 341V330H392V220H281V120H481V0H55V120H143V220H55Z" />
<glyph unicode="&#xa4;" glyph-name="currency" horiz-adv-x="630" d="M513 418Q570 348 570 300T513 181Q520 176 527 170T540 160T551 152T561 144T568 138Q575 133 575 130Q575 118 535 82T483 46T416 88Q356 45 315 45T213 88Q161 46 149 46T96 82T55 130Q55
136 116 181Q60 252 60 299T118 418Q55 467 55 470Q55 483 95 518T147 554T216 509Q276 552 316 552T415 510Q471 554 483 554T535 519T575 470Q575 466 513 418ZM345 162T391 212T438 299T391 386T316 437T240 386T192 299T238 213T315 162Z" />
<glyph unicode="&#xa5;" glyph-name="yen" horiz-adv-x="509" d="M75 222V300H177Q140 332 105 376T58 446T45 551V664H195V551Q195 500 203 479T226 436T252 413T278 436T301 479T309 551V664H459V551Q459 473 447 448T399 377T327 300H429V222H327V182H429V104H327V0H177V104H75V182H177V222H75Z"
/>
<glyph unicode="&#xa6;" glyph-name="brokenbar" horiz-adv-x="200" d="M55 750H145V396L55 333V750ZM145 -250H55V123L145 186V-250Z" />
<glyph unicode="&#xa7;" glyph-name="section" horiz-adv-x="524" d="M411 65T353 27T261 -12T169 25T81 112L194 190L202 179Q246 123 267 123Q278 123 296 136T314 158T300 177T229 217T126 277T67 336T55 392T69 443T115 497Q75 537 75 571T86 629T161 701T261
750T355 713T443 626L330 548L322 559Q278 615 257 615Q246 615 228 605T210 589T223 571T290 530Q430 457 458 410Q469 391 469 347T457 287T414 241Q428 228 438 210T449 154T438 100Q411 65 353 27ZM203 443Q180 411 180 398T190 375Q200 367 309 301Q344 334
344 358Q344 364 336 370Q305 394 203 443Z" />
<glyph unicode="&#xa8;" glyph-name="dieresis" horiz-adv-x="456" d="M203 695T203 685T171 648T129 620T88 647T55 685T88 722T129 750T170 723ZM401 695T401 685T369 648T327 620T286 647T253 685T286 722T327 750T368 723Z" />
<glyph unicode="&#xa9;" glyph-name="copyright" horiz-adv-x="664" d="M295 60T332 60T441 110T526 197T539 353T526 506T441 591T332 642T223 591T138 507T125 354T137 198T222 111ZM365 -12T332 -12T241 20T135 93T76 160Q55 216 55 353T76 541Q94 583 188
647T332 712T476 648T588 541Q609 491 609 354T588 160Q578 134 530 93T423 20ZM361 304H466Q466 249 460 237Q448 212 402 173T332 134T262 173T204 237Q198 250 198 316V386Q198 452 204 465Q216 490 262 529T332 568T401 529T460 465Q466 454 466 398H361Q361
434 350 449T332 465Q319 465 308 437Q303 424 303 386V316Q303 278 308 265Q320 237 332 237Q338 237 346 247Q361 266 361 304Z" />
<glyph unicode="&#xaa;" glyph-name="ordfeminine" horiz-adv-x="396" d="M162 677T184 677T255 645T313 597Q320 579 320 514T323 431T351 396L277 340Q248 350 224 372Q190 340 172 340T111 372T61 418T55 508T61 598T115 645ZM182 424T187 424T201 428T213
436Q218 453 218 502T215 564T202 585T187 593T172 585T159 564T156 506T159 451T172 433Z" />
<glyph unicode="&#xab;" glyph-name="guillemotleft" horiz-adv-x="560" d="M305 110Q305 105 286 91T260 76T203 124T104 227T55 300T103 372T202 476T260 524T286 510T305 490Q305 474 195 300Q305 126 305 110ZM505 110Q505 105 486 91T460 76T403 124T304
227T255 300T303 372T402 476T460 524T486 510T505 490Q505 474 395 300Q505 126 505 110Z" />
<glyph unicode="&#xac;" glyph-name="logicalnot" horiz-adv-x="583" d="M55 241V359H528V169L386 130V241H55Z" />
<glyph unicode="&#xad;" glyph-name="uni00AD" horiz-adv-x="363" d="M55 260V340H308V260H55Z" />
<glyph unicode="&#xae;" glyph-name="registered" horiz-adv-x="833" d="M365 -12T332 -12T241 20T135 93T76 160Q55 216 55 353T76 541Q94 583 188 647T332 712T476 648T588 541Q609 491 609 354T588 160Q578 134 530 93T423 20ZM295 60T332 60T441 110T526 197T539
353T526 506T441 591T332 642T223 591T138 507T125 354T137 198T222 111ZM284 537Q323 570 339 570T395 539T448 491Q454 481 454 452T448 412Q430 390 399 367Q443 333 451 317T466 238T473 143H368Q368 170 362 227T351 294Q346 303 336 315H309V143H204V400Q204
448 199 467T178 515L257 571Q272 561 284 537ZM345 424L349 447Q346 447 345 446Q334 468 327 468T307 451Q309 441 309 434V402H325Q336 402 345 424Z" />
<glyph unicode="&#xaf;" glyph-name="overscore" horiz-adv-x="455" d="M65 608V701H390V608H65Z" />
<glyph unicode="&#xb0;" glyph-name="degree" horiz-adv-x="387" d="M210 481T229 504T249 546T229 589T194 612T159 589T139 546T158 504T194 481ZM352 591T352 547T294 441T193 379T93 440T35 546T93 651T194 712T294 652Z" />
<glyph unicode="&#xb1;" glyph-name="plusminus" horiz-adv-x="494" d="M55 314V432H182V525H312V432H439V314H312V221H182V314H55ZM55 76V194H439V76H55Z" />
<glyph unicode="&#xb2;" glyph-name="twosuperior" horiz-adv-x="265" d="M139 527Q144 532 144 562T133 593Q131 593 128 589Q122 581 122 542H18Q18 595 24 612Q30 626 72 651T134 676T196 650T244 610T251 547T234 484T128 430Q114 422 114 412H248V337H15V410Q15
450 23 462T81 498T139 527Z" />
<glyph unicode="&#xb3;" glyph-name="threesuperior" horiz-adv-x="263" d="M103 538Q146 541 146 566Q146 575 142 584T131 593T117 581Q114 572 114 562H15Q15 603 23 615T71 651T132 676T196 650T245 610Q248 602 248 569T242 532Q235 522 218 512Q240 498
246 489T253 447T247 398T196 358T130 332T68 356T18 392T10 446H109Q109 429 117 422T130 414T141 420Q151 429 151 446T144 470T103 485V538Z" />
<glyph unicode="&#xb4;" glyph-name="acute" horiz-adv-x="298" d="M243 685Q243 671 171 626T92 580T70 594T55 615T107 686T168 750T210 723T243 685Z" />
<glyph unicode="&#xb5;" glyph-name="mu" horiz-adv-x="513" d="M316 539H448V0H346L334 59Q259 -12 233 -12T171 18V-82Q171 -130 211 -172L101 -250Q65 -209 65 -119V346Q65 397 53 425T15 474L125 551Q197 494 197 389V167Q197 150 218 132T256 113T316 154V539Z" />
<glyph unicode="&#xb6;" glyph-name="paragraph" horiz-adv-x="634" d="M267 159V359H241Q194 359 125 419T55 530T124 640T241 700H579V568H514Q517 547 517 525V0H427V491Q427 544 417 568H344Q357 511 357 452V125Q357 74 343 37T310 -12L231 44Q253 71 260
90T267 159Z" />
<glyph unicode="&#xb7;" glyph-name="middot" horiz-adv-x="272" d="M155 355T194 322T233 278T194 232T144 198T94 232T55 277T94 322T144 355Z" />
<glyph unicode="&#xb8;" glyph-name="cedilla" horiz-adv-x="280" d="M55 -86Q55 -75 100 -14T150 48Q157 48 176 38T195 24Q195 14 135 -56Q164 -83 180 -97T206 -120Q225 -139 225 -147T166 -202T100 -250T74 -231T55 -206T115 -146Q55 -92 55 -86Z" />
<glyph unicode="&#xb9;" glyph-name="onesuperior" horiz-adv-x="308" d="M45 412H130V568Q108 541 97 515L20 569Q39 599 84 637T139 676T190 648T234 611V412H263V337H45V412Z" />
<glyph unicode="&#xba;" glyph-name="ordmasculine" horiz-adv-x="368" d="M300 403T254 372T185 340T115 372T62 418T55 508T61 598T115 645T184 677T253 646T306 599T313 509T307 418ZM179 424T184 424T197 432T207 446Q212 468 212 511T209 565T197 585T184
593T171 585T160 564T156 506T159 451T171 432Z" />
<glyph unicode="&#xbb;" glyph-name="guillemotright" horiz-adv-x="560" d="M255 490Q255 495 274 509T300 524T357 476T456 373T505 300T457 228T358 124T300 76T274 90T255 110Q255 126 365 300Q255 474 255 490ZM55 490Q55 495 74 509T100 524T157 476T256
373T305 300T257 228T158 124T100 76T74 90T55 110Q55 126 165 300Q55 474 55 490Z" />
<glyph unicode="&#xbc;" glyph-name="onequarter" horiz-adv-x="730" d="M665 0H561V61H497L420 115Q433 159 461 213T514 303T546 338Q556 338 607 305T665 260V141H685V61H665V0ZM561 141V225Q534 175 521 141H561ZM634 616L254 -12Q242 -12 210 9T164 48L544
676Q556 676 588 655T634 616ZM70 412H155V568Q133 541 122 515L45 569Q64 599 109 637T164 676T215 648T259 611V412H288V337H70V412Z" />
<glyph unicode="&#xbd;" glyph-name="onehalf" horiz-adv-x="750" d="M70 412H155V568Q133 541 122 515L45 569Q64 599 109 637T164 676T215 648T259 611V412H288V337H70V412ZM634 616L254 -12Q242 -12 210 9T164 48L544 676Q556 676 588 655T634 616ZM593 190Q598
195 598 225T587 256Q585 256 582 252Q576 244 576 205H472Q472 258 478 275Q484 289 526 314T588 339T650 313T698 273T705 210T688 147T582 93Q568 85 568 75H702V0H469V73Q469 113 477 125T535 161T593 190Z" />
<glyph unicode="&#xbe;" glyph-name="threequarters" horiz-adv-x="695" d="M630 0H526V61H462L385 115Q398 159 426 213T479 303T511 338Q521 338 572 305T630 260V141H650V61H630V0ZM526 141V225Q499 175 486 141H526ZM138 538Q181 541 181 566Q181 575 177
584T166 593T152 581Q149 572 149 562H50Q50 603 58 615T106 651T167 676T231 650T280 610Q283 602 283 569T277 532Q270 522 253 512Q275 498 281 489T288 447T282 398T231 358T165 332T103 356T53 392T45 446H144Q144 429 152 422T165 414T176 420Q186 429 186
446T179 470T138 485V538ZM599 616L219 -12Q207 -12 175 9T129 48L509 676Q521 676 553 655T599 616Z" />
<glyph unicode="&#xbf;" glyph-name="questiondown" horiz-adv-x="515" d="M258 386T217 420T176 467T217 515T269 551T322 516T363 468T322 421T269 386ZM260 -173Q225 -173 157 -117T66 -24Q55 -6 55 60T66 147T130 217T193 280T203 315V350H335V305Q335 260
323 242T286 198T233 144T197 108T189 52Q189 25 219 -6T265 -38T307 3T344 98L459 19Q445 -45 380 -109T260 -173Z" />
<glyph unicode="&#xc0;" glyph-name="Agrave" horiz-adv-x="514" d="M220 712T257 712T365 647T453 540Q464 511 464 409V0H326V150H188V0H50V409Q50 511 61 540Q78 582 149 647ZM188 409V270H326V409Q326 491 318 509T291 548T257 569T224 549T196 510T188 409ZM295
750T214 766T133 794T153 844T180 882Q190 882 261 841T333 794T325 769T313 750Q295 750 214 766Z" />
<glyph unicode="&#xc1;" glyph-name="Aacute" horiz-adv-x="514" d="M220 712T257 712T365 647T453 540Q464 511 464 409V0H326V150H188V0H50V409Q50 511 61 540Q78 582 149 647ZM188 409V270H326V409Q326 491 318 509T291 548T257 569T224 549T196 510T188 409ZM323
882T343 844T363 794T282 766T183 750Q179 750 171 769T163 793T234 840T316 882Q323 882 343 844Z" />
<glyph unicode="&#xc2;" glyph-name="Acircumflex" horiz-adv-x="514" d="M220 712T257 712T365 647T453 540Q464 511 464 409V0H326V150H188V0H50V409Q50 511 61 540Q78 582 149 647ZM188 409V270H326V409Q326 491 318 509T291 548T257 569T224 549T196 510T188
409ZM409 796T397 773T379 750T266 794Q154 750 153 750Q148 750 136 773T123 804Q123 809 190 845T266 882T342 846T409 804Q409 796 397 773Z" />
<glyph unicode="&#xc3;" glyph-name="Atilde" horiz-adv-x="514" d="M220 712T257 712T365 647T453 540Q464 511 464 409V0H326V150H188V0H50V409Q50 511 61 540Q78 582 149 647ZM188 409V270H326V409Q326 491 318 509T291 548T257 569T224 549T196 510T188 409ZM456
860T395 801T322 741T232 801Q154 741 145 741T117 760T98 785T159 851T232 911T322 851Q400 911 409 911T437 892T456 867Z" />
<glyph unicode="&#xc4;" glyph-name="Adieresis" horiz-adv-x="514" d="M220 712T257 712T365 647T453 540Q464 511 464 409V0H326V150H188V0H50V409Q50 511 61 540Q78 582 149 647ZM188 409V270H326V409Q326 491 318 509T291 548T257 569T224 549T196 510T188
409ZM233 825T233 815T201 778T159 750T118 777T85 815T118 852T159 880T200 853ZM431 825T431 815T399 778T357 750T316 777T283 815T316 852T357 880T398 853Z" />
<glyph unicode="&#xc5;" glyph-name="Aring" horiz-adv-x="514" d="M220 712T257 712T365 647T453 540Q464 511 464 409V0H326V150H188V0H50V409Q50 511 61 540Q78 582 149 647ZM188 409V270H326V409Q326 491 318 509T291 548T257 569T224 549T196 510T188 409ZM299
817T299 827T283 851T258 865T232 851T215 827T231 803T257 789T283 803ZM352 846T352 827T316 775T257 742T199 774T162 826T199 878T257 911T315 879Z" />
<glyph unicode="&#xc6;" glyph-name="AE" horiz-adv-x="728" d="M464 426H643V305H464V121H703V0H326V150H188V0H50V409Q50 511 61 540Q78 582 149 647T258 712T379 634L489 712H687V590H526L464 544V426ZM188 409V270H326V409Q326 491 318 509T291 548T257 569T224
549T196 510T188 409Z" />
<glyph unicode="&#xc7;" glyph-name="Ccedilla" horiz-adv-x="489" d="M159 -86Q159 -74 208 -7Q172 8 117 61T47 140Q25 178 25 303V397Q25 522 45 557T130 652T228 712Q283 712 354 649T444 509L333 432Q317 486 282 531T233 577Q208 577 176 528Q163 509 163
397V303Q163 188 176 172Q208 123 233 123Q247 123 282 162T333 250L444 172Q430 120 384 73T286 3Q261 -30 239 -56Q268 -83 284 -97T310 -120Q329 -139 329 -147T270 -202T204 -250T178 -231T159 -206T219 -146Q159 -92 159 -86Z" />
<glyph unicode="&#xc8;" glyph-name="Egrave" horiz-adv-x="487" d="M208 426H387V305H208V121H447V0H70V616L208 712H431V590H245L208 564V426ZM295 750T214 766T133 794T153 844T180 882Q190 882 261 841T333 794T325 769T313 750Q295 750 214 766Z" />
<glyph unicode="&#xc9;" glyph-name="Eacute" horiz-adv-x="487" d="M208 426H387V305H208V121H447V0H70V616L208 712H431V590H245L208 564V426ZM383 882T403 844T423 794T342 766T243 750Q239 750 231 769T223 793T294 840T376 882Q383 882 403 844Z" />
<glyph unicode="&#xca;" glyph-name="Ecircumflex" horiz-adv-x="487" d="M208 426H387V305H208V121H447V0H70V616L208 712H431V590H245L208 564V426ZM429 796T417 773T399 750T286 794Q174 750 173 750Q168 750 156 773T143 804Q143 809 210 845T286 882T362
846T429 804Q429 796 417 773Z" />
<glyph unicode="&#xcb;" glyph-name="Edieresis" horiz-adv-x="487" d="M208 426H387V305H208V121H447V0H70V616L208 712H431V590H245L208 564V426ZM247 825T247 815T215 778T173 750T132 777T99 815T132 852T173 880T214 853ZM445 825T445 815T413 778T371 750T330
777T297 815T330 852T371 880T412 853Z" />
<glyph unicode="&#xcc;" glyph-name="Igrave" horiz-adv-x="250" d="M56 0V700H194V0H56ZM175 750T94 766T13 794T33 844T60 882Q70 882 141 841T213 794T205 769T193 750Q175 750 94 766Z" />
<glyph unicode="&#xcd;" glyph-name="Iacute" horiz-adv-x="250" d="M56 0V700H194V0H56ZM203 882T223 844T243 794T162 766T63 750Q59 750 51 769T43 793T114 840T196 882Q203 882 223 844Z" />
<glyph unicode="&#xce;" glyph-name="Icircumflex" horiz-adv-x="250" d="M56 0V700H194V0H56ZM268 796T256 773T238 750T125 794Q13 750 12 750Q7 750 -5 773T-18 804Q-18 809 49 845T125 882T201 846T268 804Q268 796 256 773Z" />
<glyph unicode="&#xcf;" glyph-name="Idieresis" horiz-adv-x="250" d="M56 0V700H194V0H56ZM101 825T101 815T69 778T27 750T-14 777T-47 815T-14 852T27 880T68 853ZM299 825T299 815T267 778T225 750T184 777T151 815T184 852T225 880T266 853Z" />
<glyph unicode="&#xd0;" glyph-name="Eth" horiz-adv-x="534" d="M179 660Q245 712 279 712T384 647T473 540Q484 514 484 409V291Q484 186 473 160Q455 121 386 61T277 0H70V290H10V410H70V428Q70 509 59 541T10 619L142 712Q163 696 179 660ZM277 569Q248 569
205 550Q208 529 208 486V410H283V290H208V121H277Q291 121 310 141T338 180T346 281V409Q346 491 338 509T311 548T277 569Z" />
<glyph unicode="&#xd1;" glyph-name="Ntilde" horiz-adv-x="520" d="M207 529L208 486V0H70V428Q70 512 59 546T10 628L130 712Q159 693 184 647Q263 712 291 712T379 660T455 586T470 529V0H331V509Q331 518 324 531T301 562T272 579T238 564T207 529ZM439 860T378
801T305 741T215 801Q137 741 128 741T100 760T81 785T142 851T215 911T305 851Q383 911 392 911T420 892T439 867Z" />
<glyph unicode="&#xd2;" glyph-name="Ograve" horiz-adv-x="464" d="M268 -12T232 -12T125 53T36 160Q25 186 25 291V409Q25 514 36 540Q53 581 124 646T232 712T339 647T428 540Q439 514 439 409V291Q439 186 428 160Q411 119 340 54ZM218 131T232 131T265 151T293
190T301 291V409Q301 491 293 509T266 548T232 569T199 549T171 510T163 409V291Q163 209 171 191T198 152ZM265 750T184 766T103 794T123 844T150 882Q160 882 231 841T303 794T295 769T283 750Q265 750 184 766Z" />
<glyph unicode="&#xd3;" glyph-name="Oacute" horiz-adv-x="464" d="M268 -12T232 -12T125 53T36 160Q25 186 25 291V409Q25 514 36 540Q53 581 124 646T232 712T339 647T428 540Q439 514 439 409V291Q439 186 428 160Q411 119 340 54ZM218 131T232 131T265 151T293
190T301 291V409Q301 491 293 509T266 548T232 569T199 549T171 510T163 409V291Q163 209 171 191T198 152ZM323 882T343 844T363 794T282 766T183 750Q179 750 171 769T163 793T234 840T316 882Q323 882 343 844Z" />
<glyph unicode="&#xd4;" glyph-name="Ocircumflex" horiz-adv-x="464" d="M268 -12T232 -12T125 53T36 160Q25 186 25 291V409Q25 514 36 540Q53 581 124 646T232 712T339 647T428 540Q439 514 439 409V291Q439 186 428 160Q411 119 340 54ZM218 131T232 131T265
151T293 190T301 291V409Q301 491 293 509T266 548T232 569T199 549T171 510T163 409V291Q163 209 171 191T198 152ZM376 796T364 773T346 750T233 794Q121 750 120 750Q115 750 103 773T90 804Q90 809 157 845T233 882T309 846T376 804Q376 796 364 773Z" />
<glyph unicode="&#xd5;" glyph-name="Otilde" horiz-adv-x="464" d="M268 -12T232 -12T125 53T36 160Q25 186 25 291V409Q25 514 36 540Q53 581 124 646T232 712T339 647T428 540Q439 514 439 409V291Q439 186 428 160Q411 119 340 54ZM218 131T232 131T265 151T293
190T301 291V409Q301 491 293 509T266 548T232 569T199 549T171 510T163 409V291Q163 209 171 191T198 152ZM411 860T350 801T277 741T187 801Q109 741 100 741T72 760T53 785T114 851T187 911T277 851Q355 911 364 911T392 892T411 867Z" />
<glyph unicode="&#xd6;" glyph-name="Odieresis" horiz-adv-x="464" d="M268 -12T232 -12T125 53T36 160Q25 186 25 291V409Q25 514 36 540Q53 581 124 646T232 712T339 647T428 540Q439 514 439 409V291Q439 186 428 160Q411 119 340 54ZM218 131T232 131T265
151T293 190T301 291V409Q301 491 293 509T266 548T232 569T199 549T171 510T163 409V291Q163 209 171 191T198 152ZM207 825T207 815T175 778T133 750T92 777T59 815T92 852T133 880T174 853ZM405 825T405 815T373 778T331 750T290 777T257 815T290 852T331 880T372
853Z" />
<glyph unicode="&#xd7;" glyph-name="multiply" horiz-adv-x="518" d="M379 494Q391 494 427 467T463 429Q463 423 429 382T355 299Q463 183 463 171T428 132T379 104Q377 104 356 124Q277 200 259 214Q241 200 191 152T139 104Q127 104 91 131T55 169Q55 184
162 299Q123 341 89 382T55 431T90 466T139 494Q141 494 162 474Q241 398 259 384Q277 398 327 446T379 494Z" />
<glyph unicode="&#xd8;" glyph-name="Oslash" horiz-adv-x="464" d="M411 119T340 54T230 -12T109 68L67 -12Q62 -12 50 -3T38 10Q56 47 81 97Q44 140 35 163T25 291V409Q25 514 36 540Q53 581 124 646T233 712T355 632Q395 712 397 712Q402 712 414 704T426 692T382
603Q417 565 428 540T439 409V291Q439 186 428 160Q411 119 340 54ZM218 127T232 127T267 147T296 187T305 291V409Q305 437 304 450L168 184Q178 166 198 147ZM159 251L296 516Q287 534 267 553T232 573T197 553T168 513T159 409V251Z" />
<glyph unicode="&#xd9;" glyph-name="Ugrave" horiz-adv-x="534" d="M484 700V291Q484 186 473 160Q456 119 385 54T277 -12T170 53T81 160Q70 186 70 291V436Q70 517 59 550T10 628L130 712Q162 691 185 631T208 486V291Q208 209 216 191T243 152T277 131T310
151T338 190T346 291V700H484ZM282 750T201 766T120 794T140 844T167 882Q177 882 248 841T320 794T312 769T300 750Q282 750 201 766Z" />
<glyph unicode="&#xda;" glyph-name="Uacute" horiz-adv-x="534" d="M484 700V291Q484 186 473 160Q456 119 385 54T277 -12T170 53T81 160Q70 186 70 291V436Q70 517 59 550T10 628L130 712Q162 691 185 631T208 486V291Q208 209 216 191T243 152T277 131T310
151T338 190T346 291V700H484ZM343 882T363 844T383 794T302 766T203 750Q199 750 191 769T183 793T254 840T336 882Q343 882 363 844Z" />
<glyph unicode="&#xdb;" glyph-name="Ucircumflex" horiz-adv-x="534" d="M484 700V291Q484 186 473 160Q456 119 385 54T277 -12T170 53T81 160Q70 186 70 291V436Q70 517 59 550T10 628L130 712Q162 691 185 631T208 486V291Q208 209 216 191T243 152T277 131T310
151T338 190T346 291V700H484ZM409 796T397 773T379 750T266 794Q154 750 153 750Q148 750 136 773T123 804Q123 809 190 845T266 882T342 846T409 804Q409 796 397 773Z" />
<glyph unicode="&#xdc;" glyph-name="Udieresis" horiz-adv-x="534" d="M484 700V291Q484 186 473 160Q456 119 385 54T277 -12T170 53T81 160Q70 186 70 291V436Q70 517 59 550T10 628L130 712Q162 691 185 631T208 486V291Q208 209 216 191T243 152T277 131T310
151T338 190T346 291V700H484ZM242 825T242 815T210 778T168 750T127 777T94 815T127 852T168 880T209 853ZM440 825T440 815T408 778T366 750T325 777T292 815T325 852T366 880T407 853Z" />
<glyph unicode="&#xdd;" glyph-name="Yacute" horiz-adv-x="509" d="M183 0V280Q144 312 108 356T58 426T45 531V700H183V531Q183 480 191 460T221 410T252 381T283 410T313 459T321 531V700H459V531Q459 451 446 426T396 357T321 280V0H183ZM343 882T363 844T383
794T302 766T203 750Q199 750 191 769T183 793T254 840T336 882Q343 882 363 844Z" />
<glyph unicode="&#xde;" glyph-name="Thorn" horiz-adv-x="510" d="M207 547Q265 582 296 582T390 528T473 438Q484 419 484 357T473 276Q451 240 389 186T293 132H208V0H70V468Q70 536 59 563T10 628L130 712Q160 695 181 652T207 547ZM283 450Q250 450 208 423V261H283Q296
261 317 278T345 312T352 356T344 399T316 433T283 450Z" />
<glyph unicode="&#xdf;" glyph-name="germandbls" horiz-adv-x="543" d="M326 78T354 104T382 149T360 195T311 251T262 312T240 372T291 465T342 559T315 611T269 635T231 622T204 597T197 500V0H65V395H15V470L65 482Q65 594 77 619T161 697T267 750Q320 750
394 681T469 564Q469 537 422 462T374 373T395 335T443 285T491 222T513 151Q513 97 480 52T402 -13L292 64Q326 78 354 104Z" />
<glyph unicode="&#xe0;" glyph-name="agrave" horiz-adv-x="448" d="M410 539V129Q416 94 457 67L367 -10Q354 -1 335 22T303 69Q220 -12 187 -12Q163 -12 110 41T43 127T30 269T43 412T109 498T187 551Q222 551 300 479L312 539H410ZM264 399T243 412T210 426T187
413T170 389Q157 371 157 270T170 150Q174 140 186 127T210 113T242 126T270 151T278 268Q278 374 271 386ZM92 685Q92 695 124 722T166 750T228 686T280 616T265 595T243 580T164 625T92 685Z" />
<glyph unicode="&#xe1;" glyph-name="aacute" horiz-adv-x="448" d="M410 539V129Q416 94 457 67L367 -10Q354 -1 335 22T303 69Q220 -12 187 -12Q163 -12 110 41T43 127T30 269T43 412T109 498T187 551Q222 551 300 479L312 539H410ZM264 399T243 412T210 426T187
413T170 389Q157 371 157 270T170 150Q174 140 186 127T210 113T242 126T270 151T278 268Q278 374 271 386ZM340 685Q340 671 268 626T189 580T167 594T152 615T204 686T265 750T307 723T340 685Z" />
<glyph unicode="&#xe2;" glyph-name="acircumflex" horiz-adv-x="448" d="M410 539V129Q416 94 457 67L367 -10Q354 -1 335 22T303 69Q220 -12 187 -12Q163 -12 110 41T43 127T30 269T43 412T109 498T187 551Q222 551 300 479L312 539H410ZM264 399T243 412T210
426T187 413T170 389Q157 371 157 270T170 150Q174 140 186 127T210 113T242 126T270 151T278 268Q278 374 271 386ZM226 640Q148 580 139 580T111 599T92 624T153 690T226 750T298 691T360 625T341 599T313 580T226 640Z" />
<glyph unicode="&#xe3;" glyph-name="atilde" horiz-adv-x="448" d="M410 539V129Q416 94 457 67L367 -10Q354 -1 335 22T303 69Q220 -12 187 -12Q163 -12 110 41T43 127T30 269T43 412T109 498T187 551Q222 551 300 479L312 539H410ZM264 399T243 412T210 426T187
413T170 389Q157 371 157 270T170 150Q174 140 186 127T210 113T242 126T270 151T278 268Q278 374 271 386ZM406 699T345 640T272 580T182 640Q104 580 95 580T67 599T48 624T109 690T182 750T272 690Q350 750 359 750T387 731T406 706Z" />
<glyph unicode="&#xe4;" glyph-name="adieresis" horiz-adv-x="448" d="M410 539V129Q416 94 457 67L367 -10Q354 -1 335 22T303 69Q220 -12 187 -12Q163 -12 110 41T43 127T30 269T43 412T109 498T187 551Q222 551 300 479L312 539H410ZM264 399T243 412T210
426T187 413T170 389Q157 371 157 270T170 150Q174 140 186 127T210 113T242 126T270 151T278 268Q278 374 271 386ZM202 695T202 685T170 648T128 620T87 647T54 685T87 722T128 750T169 723ZM400 695T400 685T368 648T326 620T285 647T252 685T285 722T326 750T367
723Z" />
<glyph unicode="&#xe5;" glyph-name="aring" horiz-adv-x="448" d="M410 539V129Q416 94 457 67L367 -10Q354 -1 335 22T303 69Q220 -12 187 -12Q163 -12 110 41T43 127T30 269T43 412T109 498T187 551Q222 551 300 479L312 539H410ZM264 399T243 412T210 426T187
413T170 389Q157 371 157 270T170 150Q174 140 186 127T210 113T242 126T270 151T278 268Q278 374 271 386ZM254 656T254 666T238 690T213 704T187 690T170 666T186 642T212 628T238 642ZM307 685T307 666T271 614T212 581T154 613T117 665T154 717T212 750T270
718Z" />
<glyph unicode="&#xe6;" glyph-name="ae" horiz-adv-x="661" d="M158 -12Q137 -12 74 50T10 149T87 249T248 349Q248 377 229 406T196 436Q171 436 123 354L20 425Q48 474 103 512T195 551T313 475Q395 551 434 551Q464 551 528 498T607 416T621 271V235H379Q379
175 394 140Q399 128 412 116T439 103T474 127T507 185L610 112Q583 62 528 25T434 -12Q412 -12 371 16T295 80Q210 -12 158 -12ZM475 410T460 423T431 436T400 410T379 330H493Q490 383 483 396ZM144 173T144 162T157 132T180 113T212 127Q249 151 249 171Q249
176 250 202T251 233Q217 221 181 197Z" />
<glyph unicode="&#xe7;" glyph-name="ccedilla" horiz-adv-x="408" d="M127 -86Q127 -74 180 -2Q147 15 105 53T51 110Q30 143 30 269T51 429Q66 454 125 502T216 551T304 513T388 425L285 354Q272 378 250 407T216 436Q196 436 170 394Q157 368 157 270T170 145Q178
132 191 118T217 103T251 126T285 185L388 113Q366 73 327 41T248 -4Q231 -27 207 -56Q236 -83 252 -97T278 -120Q297 -139 297 -147T238 -202T172 -250T146 -231T127 -206T187 -146Q127 -92 127 -86Z" />
<glyph unicode="&#xe8;" glyph-name="egrave" horiz-adv-x="444" d="M404 271V235H162Q162 175 177 140Q182 128 195 116T222 103T257 127T290 185L393 112Q366 62 311 25T221 -12T123 41T44 123T30 269T44 415T122 498T217 551T311 498T390 416T404 271ZM258
410T243 423T214 436T183 410T162 330H276Q273 383 266 396ZM93 685Q93 695 125 722T167 750T229 686T281 616T266 595T244 580T165 625T93 685Z" />
<glyph unicode="&#xe9;" glyph-name="eacute" horiz-adv-x="444" d="M404 271V235H162Q162 175 177 140Q182 128 195 116T222 103T257 127T290 185L393 112Q366 62 311 25T221 -12T123 41T44 123T30 269T44 415T122 498T217 551T311 498T390 416T404 271ZM258
410T243 423T214 436T183 410T162 330H276Q273 383 266 396ZM331 685Q331 671 259 626T180 580T158 594T143 615T195 686T256 750T298 723T331 685Z" />
<glyph unicode="&#xea;" glyph-name="ecircumflex" horiz-adv-x="444" d="M404 271V235H162Q162 175 177 140Q182 128 195 116T222 103T257 127T290 185L393 112Q366 62 311 25T221 -12T123 41T44 123T30 269T44 415T122 498T217 551T311 498T390 416T404 271ZM258
410T243 423T214 436T183 410T162 330H276Q273 383 266 396ZM217 640Q139 580 130 580T102 599T83 624T144 690T217 750T289 691T351 625T332 599T304 580T217 640Z" />
<glyph unicode="&#xeb;" glyph-name="edieresis" horiz-adv-x="444" d="M404 271V235H162Q162 175 177 140Q182 128 195 116T222 103T257 127T290 185L393 112Q366 62 311 25T221 -12T123 41T44 123T30 269T44 415T122 498T217 551T311 498T390 416T404 271ZM258
410T243 423T214 436T183 410T162 330H276Q273 383 266 396ZM192 695T192 685T160 648T118 620T77 647T44 685T77 722T118 750T159 723ZM390 695T390 685T358 648T316 620T275 647T242 685T275 722T316 750T357 723Z" />
<glyph unicode="&#xec;" glyph-name="igrave" horiz-adv-x="251" d="M54 539H186V193Q186 142 198 114T236 65L126 -12Q54 45 54 150V539ZM37 685Q37 695 69 722T111 750T173 686T225 616T210 595T188 580T109 625T37 685Z" />
<glyph unicode="&#xed;" glyph-name="iacute" horiz-adv-x="251" d="M54 539H186V193Q186 142 198 114T236 65L126 -12Q54 45 54 150V539ZM225 685Q225 671 153 626T74 580T52 594T37 615T89 686T150 750T192 723T225 685Z" />
<glyph unicode="&#xee;" glyph-name="icircumflex" horiz-adv-x="251" d="M54 539H186V193Q186 142 198 114T236 65L126 -12Q54 45 54 150V539ZM131 640Q53 580 44 580T16 599T-3 624T58 690T131 750T203 691T265 625T246 599T218 580T131 640Z" />
<glyph unicode="&#xef;" glyph-name="idieresis" horiz-adv-x="251" d="M109 695T109 685T77 648T35 620T-6 647T-39 685T-6 722T35 750T76 723ZM307 695T307 685T275 648T233 620T192 647T159 685T192 722T233 750T274 723ZM54 539H186V193Q186 142 198 114T236
65L126 -12Q54 45 54 150V539Z" />
<glyph unicode="&#xf0;" glyph-name="eth" horiz-adv-x="464" d="M252 -12T222 -12T127 41T51 118T40 259T51 400T127 478T222 531Q226 531 228 530Q211 554 188 576Q115 526 105 526T65 550T36 584T103 642Q68 663 33 675L139 750L200 711Q258 750 268 750T306
726T335 694T284 646Q356 594 380 498T404 273T393 119T317 41ZM211 103T222 103T248 116T270 143T277 259T271 375T248 402T222 416T196 403T174 376T167 260T173 143T195 116Z" />
<glyph unicode="&#xf1;" glyph-name="ntilde" horiz-adv-x="503" d="M197 0H65V345Q65 396 53 424T15 473L125 550Q162 520 180 481Q254 551 284 551T376 496T438 386V193Q438 142 450 114T488 65L378 -12Q306 45 306 150V372Q306 389 288 407T255 426T197 384V0ZM430
699T369 640T296 580T206 640Q128 580 119 580T91 599T72 624T133 690T206 750T296 690Q374 750 383 750T411 731T430 706Z" />
<glyph unicode="&#xf2;" glyph-name="ograve" horiz-adv-x="434" d="M208 103T217 103T241 118T264 145Q277 167 277 269T264 394Q257 406 242 421T217 436T193 421T170 394Q157 372 157 270T170 145Q177 133 192 118ZM246 -12T217 -12T127 37T51 110Q30 147 30
270T51 429Q65 453 126 502T217 551T307 502T383 429Q404 393 404 270T383 110Q369 86 308 37ZM123 685Q123 695 155 722T197 750T259 686T311 616T296 595T274 580T195 625T123 685Z" />
<glyph unicode="&#xf3;" glyph-name="oacute" horiz-adv-x="434" d="M208 103T217 103T241 118T264 145Q277 167 277 269T264 394Q257 406 242 421T217 436T193 421T170 394Q157 372 157 270T170 145Q177 133 192 118ZM246 -12T217 -12T127 37T51 110Q30 147 30
270T51 429Q65 453 126 502T217 551T307 502T383 429Q404 393 404 270T383 110Q369 86 308 37ZM311 685Q311 671 239 626T160 580T138 594T123 615T175 686T236 750T278 723T311 685Z" />
<glyph unicode="&#xf4;" glyph-name="ocircumflex" horiz-adv-x="434" d="M208 103T217 103T241 118T264 145Q277 167 277 269T264 394Q257 406 242 421T217 436T193 421T170 394Q157 372 157 270T170 145Q177 133 192 118ZM246 -12T217 -12T127 37T51 110Q30
147 30 270T51 429Q65 453 126 502T217 551T307 502T383 429Q404 393 404 270T383 110Q369 86 308 37ZM217 640Q139 580 130 580T102 599T83 624T144 690T217 750T289 691T351 625T332 599T304 580T217 640Z" />
<glyph unicode="&#xf5;" glyph-name="otilde" horiz-adv-x="434" d="M208 103T217 103T241 118T264 145Q277 167 277 269T264 394Q257 406 242 421T217 436T193 421T170 394Q157 372 157 270T170 145Q177 133 192 118ZM246 -12T217 -12T127 37T51 110Q30 147 30
270T51 429Q65 453 126 502T217 551T307 502T383 429Q404 393 404 270T383 110Q369 86 308 37ZM396 699T335 640T262 580T172 640Q94 580 85 580T57 599T38 624T99 690T172 750T262 690Q340 750 349 750T377 731T396 706Z" />
<glyph unicode="&#xf6;" glyph-name="odieresis" horiz-adv-x="434" d="M208 103T217 103T241 118T264 145Q277 167 277 269T264 394Q257 406 242 421T217 436T193 421T170 394Q157 372 157 270T170 145Q177 133 192 118ZM246 -12T217 -12T127 37T51 110Q30 147
30 270T51 429Q65 453 126 502T217 551T307 502T383 429Q404 393 404 270T383 110Q369 86 308 37ZM192 695T192 685T160 648T118 620T77 647T44 685T77 722T118 750T159 723ZM390 695T390 685T358 648T316 620T275 647T242 685T275 722T316 750T357 723Z" />
<glyph unicode="&#xf7;" glyph-name="divide" horiz-adv-x="494" d="M55 241V359H439V241H55ZM250 528T285 499T320 459T285 418T240 387T195 417T160 458T195 498T240 528ZM250 213T285 184T320 144T285 103T240 72T195 102T160 143T195 183T240 213Z" />
<glyph unicode="&#xf8;" glyph-name="oslash" horiz-adv-x="424" d="M372 94T307 41T211 -12T104 51Q66 -12 64 -12Q60 -12 50 -3T40 9T77 76Q46 107 41 120Q30 145 30 269T41 419T117 498T215 551T322 485Q362 551 364 551Q368 551 378 543T388 531T348 460Q377
433 385 414T394 270T383 120ZM223 440T212 440T184 427T161 400T154 268V206Q182 254 265 391L262 403Q257 414 240 427ZM201 99T212 99T240 112T263 139T270 232T269 327L160 143Q160 130 180 115Z" />
<glyph unicode="&#xf9;" glyph-name="ugrave" horiz-adv-x="513" d="M80 539H212V167Q212 150 228 132T258 113T316 154V539H448V0H346L334 59Q259 -12 229 -12T140 43T80 153V539ZM162 685Q162 695 194 722T236 750T298 686T350 616T335 595T313 580T234 625T162 685Z" />
<glyph unicode="&#xfa;" glyph-name="uacute" horiz-adv-x="513" d="M80 539H212V167Q212 150 228 132T258 113T316 154V539H448V0H346L334 59Q259 -12 229 -12T140 43T80 153V539ZM350 685Q350 671 278 626T199 580T177 594T162 615T214 686T275 750T317 723T350 685Z" />
<glyph unicode="&#xfb;" glyph-name="ucircumflex" horiz-adv-x="513" d="M80 539H212V167Q212 150 228 132T258 113T316 154V539H448V0H346L334 59Q259 -12 229 -12T140 43T80 153V539ZM256 640Q178 580 169 580T141 599T122 624T183 690T256 750T328 691T390
625T371 599T343 580T256 640Z" />
<glyph unicode="&#xfc;" glyph-name="udieresis" horiz-adv-x="513" d="M80 539H212V167Q212 150 228 132T258 113T316 154V539H448V0H346L334 59Q259 -12 229 -12T140 43T80 153V539ZM231 695T231 685T199 648T157 620T116 647T83 685T116 722T157 750T198 723ZM429
695T429 685T397 648T355 620T314 647T281 685T314 722T355 750T396 723Z" />
<glyph unicode="&#xfd;" glyph-name="yacute" horiz-adv-x="513" d="M316 539H448V33Q448 -86 433 -115T355 -197T258 -250T173 -216T95 -136L198 -65L208 -78Q245 -125 258 -125T287 -112T309 -86T316 8V62Q260 8 233 8T143 63T80 173V346Q80 397 68 425T30 474L140
551Q212 494 212 389V187Q212 170 231 152T264 133T316 174V539ZM360 685Q360 671 288 626T209 580T187 594T172 615T224 686T285 750T327 723T360 685Z" />
<glyph unicode="&#xfe;" glyph-name="thorn" horiz-adv-x="468" d="M65 546Q65 597 53 624T15 673L125 750Q197 693 197 589V498Q257 551 283 551T364 498T427 419Q438 394 438 270T427 120Q419 95 365 42T284 -12T197 40V-45Q197 -96 209 -124T247 -173L137 -250Q65
-193 65 -88V546ZM209 140T230 127T263 113T286 126T305 153T311 269T305 385T287 412T264 426T232 413T203 389Q195 372 195 269T202 153Z" />
<glyph unicode="&#xff;" glyph-name="ydieresis" horiz-adv-x="513" d="M316 539H448V33Q448 -86 433 -115T355 -197T258 -250T173 -216T95 -136L198 -65L208 -78Q245 -125 258 -125T287 -112T309 -86T316 8V62Q260 8 233 8T143 63T80 173V346Q80 397 68 425T30
474L140 551Q212 494 212 389V187Q212 170 231 152T264 133T316 174V539ZM231 695T231 685T199 648T157 620T116 647T83 685T116 722T157 750T198 723ZM429 695T429 685T397 648T355 620T314 647T281 685T314 722T355 750T396 723Z" />
<glyph unicode="&#x2013;" glyph-name="endash" horiz-adv-x="483" d="M55 260V340H428V260H55Z" />
<glyph unicode="&#x2014;" glyph-name="emdash" horiz-adv-x="683" d="M55 260V340H628V260H55Z" />
<glyph unicode="&#x2018;" glyph-name="quoteleft" horiz-adv-x="306" d="M139 435T92 476T45 532T132 630T229 712Q232 712 242 702T253 687T206 592Q261 549 261 533T213 476T152 435Z" />
<glyph unicode="&#x2019;" glyph-name="quoteright" horiz-adv-x="306" d="M167 712T214 671T261 615T174 517T77 435Q74 435 64 445T53 460T100 555Q45 598 45 614T93 671T154 712Z" />
<glyph unicode="&#x201a;" glyph-name="quotesinglbase" horiz-adv-x="307" d="M158 265T205 224T252 168T165 70T68 -12Q65 -12 55 -2T44 13T91 108Q36 151 36 167T84 224T145 265Z" />
<glyph unicode="&#x201c;" glyph-name="quotedblleft" horiz-adv-x="542" d="M139 435T92 476T45 532T132 630T229 712Q232 712 242 702T253 687T206 592Q261 549 261 533T213 476T152 435ZM375 435T328 476T281 532T368 630T465 712Q468 712 478 702T489 687T442
592Q497 549 497 533T449 476T388 435Z" />
<glyph unicode="&#x201d;" glyph-name="quotedblright" horiz-adv-x="542" d="M403 712T450 671T497 615T410 517T313 435Q310 435 300 445T289 460T336 555Q281 598 281 614T329 671T390 712ZM167 712T214 671T261 615T174 517T77 435Q74 435 64 445T53 460T100
555Q45 598 45 614T93 671T154 712Z" />
<glyph unicode="&#x201e;" glyph-name="quotedblbase" horiz-adv-x="543" d="M158 265T205 224T252 168T165 70T68 -12Q65 -12 55 -2T44 13T91 108Q36 151 36 167T84 224T145 265ZM394 265T441 224T488 168T401 70T304 -12Q301 -12 291 -2T280 13T327 108Q272
151 272 167T320 224T381 265Z" />
<glyph unicode="&#x2022;" glyph-name="bullet" horiz-adv-x="377" d="M206 394T264 345T322 278T264 210T190 159T114 210T55 278T114 345T190 394Z" />
<glyph unicode="&#x2039;" glyph-name="guilsinglleft" horiz-adv-x="360" d="M305 110Q305 105 286 91T260 76T203 124T104 227T55 300T103 372T202 476T260 524T286 510T305 490Q305 474 195 300Q305 126 305 110Z" />
<glyph unicode="&#x203a;" glyph-name="guilsinglright" horiz-adv-x="360" d="M55 490Q55 495 74 509T100 524T157 476T256 373T305 300T257 228T158 124T100 76T74 90T55 110Q55 126 165 300Q55 474 55 490Z" />
</font>
</defs>
</svg>
