<?xml version="1.0" standalone="no"?>
<!DOCTYPE svg PUBLIC "-//W3C//DTD SVG 1.1//EN" "http://www.w3.org/Graphics/SVG/1.1/DTD/svg11.dtd">
<svg xmlns="http://www.w3.org/2000/svg">
<defs >
<font id="Catamaran" horiz-adv-x="587" ><font-face
    font-family="Catamaran ExtraLight"
    units-per-em="1000"
    panose-1="0 0 3 0 0 0 0 0 0 0"
    ascent="1100"
    descent="-540"
    alphabetic="0" />
<glyph unicode=" " glyph-name="space" horiz-adv-x="238" />
<glyph unicode="!" glyph-name="exclam" horiz-adv-x="146" d="M112 702H48L56 200L99 179L112 702ZM55 84T43 72T30 43Q30 25 42 13T73 0Q91 0 103 12T116 43Q116 60 104 72T73 84Q55 84 43 72Z" />
<glyph unicode="&quot;" glyph-name="quotedbl" horiz-adv-x="289" d="M64 702T52 689T40 659Q40 644 50 631T79 616Q76 570 20 536L37 509Q77 529 101 568T126 653Q126 673 114 687T83 702Q64 702 52 689ZM198 702T186 689T174 659Q174 644 185 631T213 616Q210
569 154 536L171 509Q211 528 235 568T259 653Q259 673 247 687T217 702Q198 702 186 689Z" />
<glyph unicode="#" glyph-name="numbersign" horiz-adv-x="497" d="M212 371L244 502H196L163 371H30L38 327H152L117 184H30L38 140H106L73 5L121 0L155 140H289L256 5L303 0L337 140H467L460 184H348L383 327H467L460 371H394L427 502H378L346 371H212ZM166
184L201 327H335L299 184H166Z" />
<glyph unicode="$" glyph-name="dollar" horiz-adv-x="522" d="M147 -4T110 6T55 29L70 72Q102 56 146 45T236 33Q319 33 366 69T413 160Q413 214 370 251T231 329Q139 368 94 417T48 533Q48 589 85 630T187 688V787L230 797V694Q244 696 256 696Q278 696 297
693V790L341 800V686Q385 676 424 657L402 616Q366 632 335 641T258 650Q187 650 145 617T102 530Q102 476 145 439T286 357Q382 315 425 271T468 158Q468 103 435 62T341 1V-111H297V-8Q267 -13 237 -13H230V-111H187V-9Q147 -4 110 6Z" />
<glyph unicode="%" glyph-name="percent" horiz-adv-x="823" d="M278 -4L587 706L534 710L226 0L278 -4ZM148 702T113 681T58 622T38 532Q38 452 80 408T193 363Q235 363 270 384T325 443T345 532Q345 612 303 657T192 702Q148 702 113 681ZM235 659T263 626T291
532Q291 471 262 439T193 406Q151 406 122 439T92 532Q92 593 122 626T192 659Q235 659 263 626ZM588 338T553 317T498 258T478 168Q478 89 520 44T632 -1Q675 -1 709 20T764 79T785 168Q785 248 743 293T632 338Q588 338 553 317ZM675 294T703 262T731 168Q731
108 702 76T632 43Q590 43 561 76T532 168Q532 230 561 262T632 294Q675 294 703 262Z" />
<glyph unicode="&amp;" glyph-name="ampersand" horiz-adv-x="654" d="M525 119Q575 204 578 325L537 339Q535 289 523 241T487 153L284 344Q226 399 201 437T176 526Q176 558 192 586T238 632T303 650Q341 650 364 643T405 628T428 616L449 657Q377 696 298 696Q246
696 207 673T145 609T123 521Q123 460 158 409Q108 376 78 323T48 203Q48 136 80 87T167 13T292 -13Q358 -13 410 12T499 82L590 0L617 33L525 119ZM432 77T389 55T294 33Q245 33 201 53T129 113T102 205Q102 259 123 302T186 373Q202 353 233 326L463 116Q432
77 389 55Z" />
<glyph unicode="&apos;" glyph-name="quotesingle" horiz-adv-x="156" d="M64 702T52 689T40 659Q40 644 50 631T79 616Q76 570 20 536L37 509Q77 529 101 568T126 653Q126 673 114 687T83 702Q64 702 52 689Z" />
<glyph unicode="(" glyph-name="parenleft" horiz-adv-x="245" d="M187 10T162 72T122 203T107 321Q107 369 122 437T162 566T215 657L169 675Q110 600 80 503T50 320Q50 233 80 136T169 -37L215 -19Q187 10 162 72Z" />
<glyph unicode=")" glyph-name="parenright" horiz-adv-x="245" d="M57 627T82 566T122 436T138 319Q138 271 123 202T82 72T30 -19L76 -37Q134 40 164 137T195 320Q195 404 165 501T76 675L30 657Q57 627 82 566Z" />
<glyph unicode="*" glyph-name="asterisk" horiz-adv-x="325" d="M140 656L22 685L10 650L129 623L46 502L82 481L162 596L245 481L278 502L196 623L315 650L302 685L182 656V774H141L140 656Z" />
<glyph unicode="+" glyph-name="plus" horiz-adv-x="531" d="M291 531L238 534V295H30L38 252H238V8L291 4V252H501L491 295H291V531Z" />
<glyph unicode="," glyph-name="comma" horiz-adv-x="156" d="M65 84T53 72T40 42Q40 27 51 14T79 0Q78 -47 20 -81L37 -108Q77 -89 101 -49T126 37Q126 57 114 70T83 84Q65 84 53 72Z" />
<glyph unicode="-" glyph-name="hyphen" horiz-adv-x="313" d="M38 251H283L275 295H30L38 251Z" />
<glyph unicode="." glyph-name="period" horiz-adv-x="145" d="M90 0T102 12T115 43Q115 59 103 71T73 84Q55 84 43 72T30 43Q30 25 42 13T73 0Q90 0 102 12Z" />
<glyph unicode="/" glyph-name="slash" horiz-adv-x="380" d="M61 -4L370 706L318 710L10 0L61 -4Z" />
<glyph unicode="0" glyph-name="zero" horiz-adv-x="578" d="M38 202T70 133T160 26T290 -13Q362 -13 419 26T508 134T541 289Q541 372 509 438T419 541T290 579Q217 579 160 542T71 438T38 288Q38 202 70 133ZM95 360T120 415T189 501T290 532Q345 532 389 501T458
413T483 286Q483 214 458 157T389 67T290 34Q234 34 190 67T120 158T95 291Q95 360 120 415Z" />
<glyph unicode="1" glyph-name="one" horiz-adv-x="300" d="M184 566L10 485L32 442L166 499V0H222V566H184Z" />
<glyph unicode="2" glyph-name="two" horiz-adv-x="473" d="M162 579T119 564T38 527L60 485Q99 507 134 520T217 533Q283 533 323 501T364 416Q364 368 339 331T244 236L25 50V0H453L445 44H89L273 195Q349 258 385 310T422 418Q422 464 397 501T325 558T219
579Q162 579 119 564Z" />
<glyph unicode="3" glyph-name="three" horiz-adv-x="451" d="M104 579T11 520L42 484Q117 533 202 533Q242 533 273 517T322 473T339 416Q339 358 291 323T160 287H126L136 246H154Q254 246 302 209T351 104Q351 65 329 35T270 -13T193 -30Q142 -30 107 -19T33
15L0 -24Q39 -46 88 -61T190 -76Q256 -76 305 -52T381 13T408 106Q408 166 374 210T282 268Q331 284 363 324T396 417Q396 460 375 497T310 556T205 579Q104 579 11 520Z" />
<glyph unicode="4" glyph-name="four" horiz-adv-x="512" d="M381 571H347L10 125L19 74H326V-69H381V74H484L492 119H381V571ZM68 119L326 464V119H68Z" />
<glyph unicode="5" glyph-name="five" horiz-adv-x="491" d="M145 251T179 267T249 284Q315 284 354 243T394 130Q394 57 349 14T226 -30Q179 -30 142 -19T66 15L38 -25Q134 -76 222 -76Q295 -76 347 -48T426 26T453 130Q452 218 401 274T245 330Q218 330 188
320T131 291L141 521H409L414 566H89L74 230H123Q145 251 179 267Z" />
<glyph unicode="6" glyph-name="six" horiz-adv-x="497" d="M319 387T365 360T435 287T459 190Q459 136 433 90T360 15T256 -13Q192 -13 143 19T66 112T38 260Q38 367 87 448T214 576T377 634L395 590Q334 587 269 553T156 457T96 317Q164 387 255 387Q319 387
365 360ZM300 34T333 55T385 111T403 185Q403 254 363 298T255 342Q208 342 163 317T92 256Q94 147 135 91T254 34Q300 34 333 55Z" />
<glyph unicode="7" glyph-name="seven" horiz-adv-x="429" d="M387 566H10L18 521H351L121 -49L174 -69L409 537L387 566Z" />
<glyph unicode="8" glyph-name="eight" horiz-adv-x="508" d="M194 643T151 621T87 562T66 481Q66 433 96 396T175 339Q138 331 107 304T57 241T38 169Q38 118 62 77T136 11T255 -13Q324 -13 372 12T446 78T471 169Q471 230 431 278T335 339Q380 359 411 396T443
481Q443 523 422 560T359 620T255 643Q194 643 151 621ZM318 598T353 565T388 482Q388 440 352 405T255 360Q193 369 158 403T122 482Q122 530 155 564T252 598Q318 598 353 565ZM331 307T372 265T414 164Q414 126 393 97T335 50T255 33Q210 33 174 50T116 97T95
164Q95 223 136 265T255 316Q331 307 372 265Z" />
<glyph unicode="9" glyph-name="nine" horiz-adv-x="497" d="M304 578T353 547T431 453T459 305Q459 198 410 117T282 -11T119 -69L101 -25Q163 -22 228 12T341 108T402 249Q331 178 241 178Q177 178 131 205T62 278T38 375Q38 430 64 476T136 550T240 578Q304
578 353 547ZM289 224T334 250T405 311Q402 419 361 475T242 532Q196 532 163 511T111 454T93 380Q93 312 133 268T241 224Q289 224 334 250Z" />
<glyph unicode=":" glyph-name="colon" horiz-adv-x="145" d="M90 360T102 373T115 403Q115 420 103 433T72 446Q54 446 42 433T30 403Q30 385 42 373T72 360Q90 360 102 373ZM90 41T102 53T115 84Q115 102 103 114T72 127Q54 127 42 115T30 84Q30 66 42 54T72
41Q90 41 102 53Z" />
<glyph unicode=";" glyph-name="semicolon" horiz-adv-x="156" d="M101 360T113 373T126 403Q126 420 114 433T83 446Q65 446 53 433T40 403Q40 385 52 373T83 360Q101 360 113 373ZM65 127T53 114T40 83Q40 68 51 55T79 41Q78 -6 20 -40L37 -67Q77 -48 101 -8T126
78Q126 99 114 113T83 127Q65 127 53 114Z" />
<glyph unicode="&lt;" glyph-name="less" horiz-adv-x="322" d="M302 431L279 470L30 264V226L279 19L302 59L81 245L302 431Z" />
<glyph unicode="=" glyph-name="equal" horiz-adv-x="497" d="M38 327H467L460 371H30L38 327ZM38 140H467L460 184H30L38 140Z" />
<glyph unicode="&gt;" glyph-name="greater" horiz-adv-x="322" d="M20 431L241 244L20 58L43 19L292 226V263L43 470L20 431Z" />
<glyph unicode="?" glyph-name="question" horiz-adv-x="398" d="M132 702T90 686T10 641L18 594Q63 626 98 640T184 655Q245 655 277 626T309 537Q309 481 262 435T135 363L143 158L182 138L191 332Q273 368 320 424T368 538Q368 613 322 657T186 702Q132 702
90 686ZM139 84T127 72T115 43Q115 25 127 13T157 0Q175 0 187 12T200 43Q200 60 188 72T157 84Q139 84 127 72Z" />
<glyph unicode="@" glyph-name="at" horiz-adv-x="762" d="M443 406Q385 406 335 381T256 312T226 211Q226 146 268 106T385 66Q409 66 435 75T480 99Q494 82 515 73T561 63Q637 63 680 125T724 304Q724 387 686 453T578 556T420 594Q302 594 216 543T84 405T38
213Q38 120 81 49T196 -62T351 -101Q464 -101 539 -62L525 -20Q495 -37 451 -46T362 -55Q287 -55 226 -22T130 72T94 214Q94 314 137 390T253 508T417 550Q495 550 553 518T642 429T673 297Q673 207 643 157T566 107Q540 107 524 122T507 169Q507 178 508 183L532
384L514 406H443ZM335 107T308 136T281 211Q281 258 302 293T360 348T438 367H483L460 190Q458 174 458 166Q458 146 463 132Q450 121 429 114T384 107Q335 107 308 136Z" />
<glyph unicode="A" glyph-name="A" horiz-adv-x="581" d="M64 0L140 209H436L516 -6L571 5L312 680H257L10 0H64ZM285 608L420 253H155L285 608Z" />
<glyph unicode="B" glyph-name="B" horiz-adv-x="571" d="M393 0T463 44T533 188Q533 256 497 299T394 362Q439 384 467 419T495 503Q495 599 431 639T250 680H98V0H277Q393 0 463 44ZM345 635T391 606T438 502Q438 435 385 406T244 375H153V635H257Q345 635 391
606ZM380 330T428 295T476 186Q476 112 424 79T284 45H153V330H295Q380 330 428 295Z" />
<glyph unicode="C" glyph-name="C" horiz-adv-x="553" d="M501 674T450 684T361 694Q266 694 195 647T86 518T48 336Q48 240 82 161T186 34T355 -14Q397 -14 447 -3T526 23L502 65Q470 51 436 43T352 35Q277 35 222 76T137 185T108 337Q108 427 141 497T232 606T361
646Q410 646 439 639T506 616L526 657Q501 674 450 684Z" />
<glyph unicode="D" glyph-name="D" horiz-adv-x="663" d="M416 0T482 45T582 169T615 344Q615 494 544 587T325 680H98V0H320Q416 0 482 45ZM406 635T457 597T534 492T560 343Q560 256 530 189T446 83T321 45H153V635H331Q406 635 457 597Z" />
<glyph unicode="E" glyph-name="E" horiz-adv-x="499" d="M153 44V328H398L393 369H153V638H456L451 680H98V0H479L473 44H153Z" />
<glyph unicode="F" glyph-name="F" horiz-adv-x="467" d="M153 638H447L440 680H98V0H153V324H388L382 365H153V638Z" />
<glyph unicode="G" glyph-name="G" horiz-adv-x="620" d="M506 58Q443 35 384 35Q305 35 243 73T144 179T108 336Q108 428 146 499T250 608T393 647Q441 647 471 640T538 618L557 657Q532 674 480 684T391 694Q294 694 216 649T93 522T48 336Q48 236 89 157T207
32T385 -14Q430 -14 481 -1T561 31V342H359L353 300H506V58Z" />
<glyph unicode="H" glyph-name="H" horiz-adv-x="653" d="M500 680V366H153V685L98 680V0H153V322H500V0H555V680H500Z" />
<glyph unicode="I" glyph-name="I" horiz-adv-x="250" d="M98 680V0H153V680H98Z" />
<glyph unicode="J" glyph-name="J" horiz-adv-x="239" d="M97 14T90 -7T65 -39T10 -65L34 -102Q82 -87 107 -70T142 -26T152 42V680H97V54Q97 14 90 -7Z" />
<glyph unicode="K" glyph-name="K" horiz-adv-x="586" d="M153 263V0H98V680H153V330L493 695L530 660L274 391L576 0H508L237 352L153 263Z" />
<glyph unicode="L" glyph-name="L" horiz-adv-x="494" d="M153 680H98V0H484L479 44H153V680Z" />
<glyph unicode="M" glyph-name="M" horiz-adv-x="740" d="M587 0H642V680H609L369 320L126 680H98V0H153V555L361 238L381 242L587 560V0Z" />
<glyph unicode="N" glyph-name="N" horiz-adv-x="670" d="M167 539L539 0H573V680H517V119L483 178L132 680H98V0H153V568L167 539Z" />
<glyph unicode="O" glyph-name="O" horiz-adv-x="713" d="M271 695T200 649T88 521T48 337Q48 236 87 156T196 31T354 -14Q443 -14 514 32T625 161T666 345Q666 446 627 526T517 651T360 696Q271 695 200 649ZM108 426T140 497T231 608T361 648Q431 648 486 609T573
501T605 344Q605 255 573 184T483 73T352 33Q282 33 227 72T140 181T108 338Q108 426 140 497Z" />
<glyph unicode="P" glyph-name="P" horiz-adv-x="549" d="M256 264Q369 264 440 317T512 475Q512 581 446 630T267 680H98V0H153V264H256ZM456 634T456 474Q455 393 402 351T263 309H153V634H274Q456 634 456 474Z" />
<glyph unicode="Q" glyph-name="Q" horiz-adv-x="713" d="M666 264T640 195T567 76L635 9L601 -19L532 46Q453 -14 354 -14Q266 -14 197 31T88 156T48 337Q48 439 88 520T199 648T360 696Q447 696 517 651T626 526T666 345Q666 264 640 195ZM431 33T494 82L388
181L427 214L528 114Q565 157 585 216T605 344Q605 431 574 500T487 609T361 648Q289 648 231 608T141 497T108 338Q108 251 139 182T226 73T352 33Q431 33 494 82Z" />
<glyph unicode="R" glyph-name="R" horiz-adv-x="576" d="M153 0V286H256Q298 286 341 294L504 0H566L389 309Q446 331 478 375T512 486Q512 588 447 634T267 680H98V0H153ZM456 634T456 484Q455 405 399 368T258 331H153V634H269Q456 634 456 484Z" />
<glyph unicode="S" glyph-name="S" horiz-adv-x="506" d="M79 13T136 0T237 -13Q346 -13 407 34T468 158Q468 226 425 270T286 357Q188 401 145 438T102 530Q102 583 144 616T258 650Q304 650 335 641T402 616L424 657Q390 674 347 685T256 696Q193 696 146 675T74
616T48 533Q48 466 93 417T231 329Q327 288 370 251T413 160Q413 106 366 70T236 33Q190 33 146 44T70 72L55 29Q79 13 136 0Z" />
<glyph unicode="T" glyph-name="T" horiz-adv-x="543" d="M10 636H243V0H299V636H533L528 680H10V636Z" />
<glyph unicode="U" glyph-name="U" horiz-adv-x="665" d="M88 239Q88 166 117 109T202 20T332 -12Q408 -12 463 20T548 109T577 239V680H522V242Q522 184 499 137T433 62T332 35Q276 35 233 62T167 137T143 242V680H88V239Z" />
<glyph unicode="V" glyph-name="V" horiz-adv-x="581" d="M269 -1H324L571 679H518L296 72L65 685L10 674L269 -1Z" />
<glyph unicode="W" glyph-name="W" horiz-adv-x="816" d="M574 -1L409 587L260 -1H205L10 674L65 685L231 82L383 679H437L601 82L753 679H806L629 -1H574Z" />
<glyph unicode="X" glyph-name="X" horiz-adv-x="546" d="M466 0H530L315 334L536 680H476L285 378L86 692L36 668L245 347L10 0H73L274 305L466 0Z" />
<glyph unicode="Y" glyph-name="Y" horiz-adv-x="537" d="M527 680H466L262 328L62 692L10 666L235 272V0H290V278L527 680Z" />
<glyph unicode="Z" glyph-name="Z" horiz-adv-x="548" d="M521 631L516 680H49L59 636H465L28 50L34 0H511L506 44H86L521 631Z" />
<glyph unicode="[" glyph-name="bracketleft" horiz-adv-x="269" d="M251 -47H153V654H251L259 696H100V-88H259L251 -47Z" />
<glyph unicode="\" glyph-name="backslash" horiz-adv-x="380" d="M10 706L318 -4L370 0L62 710L10 706Z" />
<glyph unicode="]" glyph-name="bracketright" horiz-adv-x="268" d="M18 654H116V-47H18L10 -88H168V696H10L18 654Z" />
<glyph unicode="^" glyph-name="asciicircum" horiz-adv-x="414" d="M399 143L230 390H179L10 143H64L205 346L345 143H399Z" />
<glyph unicode="_" glyph-name="underscore" horiz-adv-x="434" d="M38 0H404L396 44H30L38 0Z" />
<glyph unicode="`" glyph-name="grave" horiz-adv-x="141" d="M76 742H10L95 589L131 601L76 742Z" />
<glyph unicode="a" glyph-name="a" horiz-adv-x="479" d="M142 436T170 444T244 452Q301 452 330 421T360 336V281H225Q148 281 100 243T52 136Q52 70 94 29T215 -13Q257 -13 297 5T363 52L371 0H415V340Q415 412 369 455T241 498Q208 498 160 486T86 456L105
418Q142 436 170 444ZM108 182T138 212T226 242H360V113Q334 77 297 55T216 33Q165 33 137 63T108 136Q108 182 138 212Z" />
<glyph unicode="b" glyph-name="b" horiz-adv-x="516" d="M367 498T422 428T478 241Q478 168 453 111T378 20T258 -13Q223 -13 189 2T125 40L112 0H78V696L133 706V449Q192 498 263 498Q367 498 422 428ZM337 33T379 92T421 240Q421 335 382 393T264 452Q222 452
192 436T133 391V86Q161 62 191 48T260 33Q337 33 379 92Z" />
<glyph unicode="c" glyph-name="c" horiz-adv-x="450" d="M386 65T365 54T318 38T260 33Q181 33 138 93T94 246Q95 303 115 350T174 424T265 452Q308 452 334 444T396 418L416 456Q388 474 343 486T267 498Q197 498 145 466T66 376T38 245Q38 129 96 58T260 -13Q293
-13 337 -2T411 28L391 67Q386 65 365 54Z" />
<glyph unicode="d" glyph-name="d" horiz-adv-x="514" d="M436 0H403L388 42Q328 -13 252 -13Q148 -13 93 57T38 244Q38 317 63 374T138 465T258 498Q318 498 381 452V696L436 705V0ZM293 33T323 48T381 93V400Q353 424 324 438T255 452Q178 452 137 394T94 245Q94
151 134 92T252 33Q293 33 323 48Z" />
<glyph unicode="e" glyph-name="e" horiz-adv-x="486" d="M448 356T397 427T253 498Q149 498 94 428T38 245Q38 126 97 57T275 -13Q317 -13 360 -2T437 29L417 70Q381 52 347 42T269 32Q181 32 138 89T94 241H448Q448 356 397 427ZM103 356T141 404T248 452Q316
452 350 405T391 280H96Q103 356 141 404Z" />
<glyph unicode="f" glyph-name="f" horiz-adv-x="269" d="M92 0H147V431H256L235 472H147V572Q147 654 216 654Q225 654 238 651T257 645L269 689Q235 702 203 702Q150 702 121 665T92 563V472H19V431H92V0Z" />
<glyph unicode="g" glyph-name="g" horiz-adv-x="510" d="M436 -62Q436 -136 384 -183T238 -230Q205 -230 153 -218T73 -189L92 -149Q128 -166 160 -174T236 -184Q300 -184 340 -154T381 -67V35Q323 -13 252 -13Q148 -13 93 57T38 244Q38 317 63 374T138 465T258
498Q322 498 390 446L403 485H436V-62ZM293 33T323 48T381 93V400Q353 424 324 438T255 452Q178 452 137 394T94 245Q94 151 134 92T252 33Q293 33 323 48Z" />
<glyph unicode="h" glyph-name="h" horiz-adv-x="517" d="M382 498T418 455T454 337V0H399V331Q399 451 306 451Q266 451 219 424T133 353V0H78V696L133 706V411Q164 448 213 473T307 498Q382 498 418 455Z" />
<glyph unicode="i" glyph-name="i" horiz-adv-x="191" d="M113 596T125 608T138 638Q138 656 126 668T95 680Q76 680 65 668T53 638Q53 620 64 608T95 596Q113 596 125 608ZM68 485V0H123V485H68Z" />
<glyph unicode="j" glyph-name="j" horiz-adv-x="210" d="M84 596T73 608T61 638Q61 656 72 668T103 680Q121 680 133 668T146 638Q146 620 134 608T103 596Q84 596 73 608ZM132 -108T124 -135T92 -183T21 -219L0 -180Q34 -167 50 -153T71 -116T76 -51V485H132V-62Q132
-108 124 -135Z" />
<glyph unicode="k" glyph-name="k" horiz-adv-x="453" d="M206 273L386 0H453L242 309L396 464L358 498L133 265V706L78 696V0H133V199L206 273Z" />
<glyph unicode="l" glyph-name="l" horiz-adv-x="210" d="M78 696V0H133V706L78 696Z" />
<glyph unicode="m" glyph-name="m" horiz-adv-x="784" d="M655 498T688 455T721 337V0H666V331Q666 388 648 419T583 451Q549 451 506 427T425 362Q426 354 426 337V0H371V331Q371 388 354 419T289 451Q253 451 208 424T123 353V0H68V485H112L122 410Q153 446
202 472T290 498Q390 498 416 410Q447 446 496 472T584 498Q655 498 688 455Z" />
<glyph unicode="n" glyph-name="n" horiz-adv-x="507" d="M162 397T209 424T296 451Q389 451 389 331V0H444V337Q444 411 408 454T297 498Q253 498 203 473T122 410L112 485H68V0H123V353Q162 397 209 424Z" />
<glyph unicode="o" glyph-name="o" horiz-adv-x="525" d="M487 168T460 111T381 20T259 -13Q154 -13 96 58T38 245Q38 317 65 374T144 465T266 498Q372 497 429 428T487 240Q487 168 460 111ZM312 33T350 60T409 135T431 239Q431 332 388 392T265 452Q213 452
175 425T116 350T94 246Q94 153 137 93T260 33Q312 33 350 60Z" />
<glyph unicode="p" glyph-name="p" horiz-adv-x="512" d="M363 498T418 428T474 241Q474 168 449 111T374 20T254 -13Q221 -13 189 0T129 34V-208L74 -219V485H108L121 442Q182 498 259 498Q363 498 418 428ZM333 33T375 92T417 240Q417 335 378 393T260 452Q218
452 188 436T129 391V86Q157 62 187 48T256 33Q333 33 375 92Z" />
<glyph unicode="q" glyph-name="q" horiz-adv-x="510" d="M436 -208L381 -219V35Q323 -13 252 -13Q148 -13 93 57T38 244Q38 317 63 374T138 465T258 498Q321 498 389 446L403 485H436V-208ZM293 33T323 48T381 93V400Q353 424 324 438T255 452Q178 452 137 394T94
245Q94 151 134 92T252 33Q293 33 323 48Z" />
<glyph unicode="r" glyph-name="r" horiz-adv-x="306" d="M154 386T203 414T296 442L279 485Q245 485 200 461T120 408L102 485H68V0H123V352Q154 386 203 414Z" />
<glyph unicode="s" glyph-name="s" horiz-adv-x="412" d="M68 8T112 -2T190 -13Q281 -13 327 22T374 123Q374 173 332 208T220 270Q161 292 129 314T97 368Q97 404 129 428T211 453Q250 453 276 444T337 419L357 458Q333 475 291 486T216 498Q135 498 90 462T44
364Q44 279 192 226Q322 178 322 119Q322 78 287 55T192 32Q134 32 60 68L42 25Q68 8 112 -2Z" />
<glyph unicode="t" glyph-name="t" horiz-adv-x="295" d="M146 623L91 601V472H19V431H91V116Q91 54 120 21T201 -13Q220 -13 240 -8Q264 -1 267 -1L255 43Q234 34 214 34Q179 34 163 59T146 123V431H255L234 472H146V623Z" />
<glyph unicode="u" glyph-name="u" horiz-adv-x="507" d="M346 88T299 61T211 34Q161 34 140 66T119 154V485H64V148Q64 74 99 31T210 -13Q254 -13 304 13T386 76L396 0H440V485H385V132Q346 88 299 61Z" />
<glyph unicode="v" glyph-name="v" horiz-adv-x="434" d="M369 485L217 67L59 495L10 473L189 0H245L424 485H369Z" />
<glyph unicode="w" glyph-name="w" horiz-adv-x="642" d="M577 485L464 73L343 485H293L176 73L59 494L10 472L149 0H205L315 402L435 0H492L632 485H577Z" />
<glyph unicode="x" glyph-name="x" horiz-adv-x="416" d="M332 0H393L243 232L406 485H346L214 273L77 494L28 472L172 244L10 0H72L201 203L332 0Z" />
<glyph unicode="y" glyph-name="y" horiz-adv-x="434" d="M149 -129T128 -146T64 -180L74 -219Q122 -209 157 -181T207 -112L424 485H369L217 68L57 494L10 472L193 -3L161 -98Q149 -129 128 -146Z" />
<glyph unicode="z" glyph-name="z" horiz-adv-x="432" d="M71 442H341L26 31L34 0H400L390 42H88L406 453L403 485H55L71 442Z" />
<glyph unicode="{" glyph-name="braceleft" horiz-adv-x="265" d="M161 321T178 348T195 419Q195 447 176 489Q157 531 157 560Q157 583 176 600T229 617H248L255 659H229Q168 659 137 631T105 554Q105 523 123 482Q141 442 141 410Q141 374 118 351T63 327H30V288H63Q94
288 117 265T141 205Q141 175 123 134Q105 94 105 62Q105 12 136 -16T229 -44H255L248 -2H229Q194 -2 176 15T157 56Q157 84 176 126Q195 168 195 197Q195 238 178 267T131 309Q161 321 178 348Z" />
<glyph unicode="|" glyph-name="bar" horiz-adv-x="250" d="M153 -4V706L98 710V0L153 -4Z" />
<glyph unicode="}" glyph-name="braceright" horiz-adv-x="265" d="M105 295T88 267T70 197Q70 168 89 126Q108 84 108 56Q108 32 90 15T36 -2H17L10 -44H36Q98 -44 129 -16T160 62Q160 94 142 134Q124 175 124 205Q124 241 147 265T202 289H235V327H202Q171 327
148 350T124 410Q124 442 142 482Q160 523 160 554Q160 603 129 631T36 659H10L17 617H36Q70 617 89 600T108 560Q108 531 89 489Q70 447 70 419Q70 377 87 349T135 307Q105 295 88 267Z" />
<glyph unicode="~" glyph-name="asciitilde" horiz-adv-x="378" d="M73 230T87 241T120 252Q151 252 188 228Q224 204 258 204Q299 204 323 226T348 289H304Q304 270 291 259T257 247Q230 247 197 271Q163 295 120 295Q79 295 55 273T30 210H72Q73 230 87 241Z" />
<glyph unicode="&#xa0;" glyph-name="uni00A0" horiz-adv-x="233" />
<glyph unicode="&#xa1;" glyph-name="exclamdown" horiz-adv-x="146" d="M92 616T104 628T116 659Q116 677 104 689T74 702Q56 702 44 689T31 659Q31 642 43 629T74 616Q92 616 104 628ZM36 0H99L91 502L48 523L36 0Z" />
<glyph unicode="&#xa2;" glyph-name="cent" horiz-adv-x="450" d="M389 14T356 4T290 -11V-111H243V-12Q146 -6 92 64T38 245Q38 350 93 419T243 497V595L290 605V496Q322 493 357 482T416 456L396 418Q360 435 334 443T265 452Q213 452 175 425T116 350T94 246Q94
153 137 93T260 33Q292 33 314 37T355 50T391 67L411 28Q389 14 356 4Z" />
<glyph unicode="&#xa3;" glyph-name="sterling" horiz-adv-x="428" d="M412 44H152Q170 62 178 87T186 148V332H346L324 373H186V554Q186 637 255 637Q264 637 276 634T296 627L308 671Q274 684 242 684Q189 684 160 647T131 545V373H58L60 332H131V127Q131 45
64 44L68 0H418L412 44Z" />
<glyph unicode="&#xa4;" glyph-name="currency" horiz-adv-x="662" d="M230 -13T325 -13Q375 -13 418 3T493 50L601 -56L632 -20L526 87Q573 151 575 239Q575 284 563 325T528 398L632 503L601 540L497 436Q430 498 335 498Q287 498 244 481T168 434L61 540L30
503L136 398Q88 333 88 246Q88 151 134 84L30 -20L61 -56L166 48Q230 -13 325 -13ZM518 182T494 135T425 61T326 34Q273 34 232 61T167 137T144 246Q144 302 169 349T237 423T336 451Q392 451 433 423T496 346T518 239Q518 182 494 135Z" />
<glyph unicode="&#xa5;" glyph-name="yen" horiz-adv-x="537" d="M527 680H466L262 328L62 692L10 666L235 272V0H290V278L527 680ZM260 280L259 282H277L278 280H260ZM260 105L259 107H277L278 105H260Z" />
<glyph unicode="&#xa6;" glyph-name="brokenbar" horiz-adv-x="250" d="M153 406V706L98 710V410L153 406ZM153 -4V288L98 292V0L153 -4Z" />
<glyph unicode="&#xa7;" glyph-name="section" horiz-adv-x="566" d="M529 203T511 169T458 112Q468 88 468 53Q468 -24 407 -71T237 -119Q194 -119 137 -106T55 -77L70 -33Q102 -49 146 -60T236 -72Q319 -72 366 -36T413 54Q413 108 370 145T231 223Q139 261
94 310T48 427Q48 467 66 499T120 554Q108 583 108 617Q108 663 133 700T206 759T317 780Q364 780 407 769T485 741L463 700Q427 716 396 725T319 734Q248 734 206 701T163 614Q163 560 206 523T347 442Q443 399 486 355T529 243Q529 203 511 169ZM474 192T474
244Q474 298 431 335T291 413Q188 457 145 511Q102 476 102 424Q102 370 145 333T286 252Q339 228 374 206T432 157Q474 192 474 244Z" />
<glyph unicode="&#xa8;" glyph-name="dieresis" horiz-adv-x="258" d="M67 618T78 629T90 658Q90 674 79 685T50 697Q33 697 22 686T10 658Q10 641 21 630T50 618Q67 618 78 629ZM225 618T236 629T248 658Q248 674 237 685T208 697Q190 697 179 686T168 658Q168
641 179 630T208 618Q225 618 236 629Z" />
<glyph unicode="&#xa9;" glyph-name="copyright" horiz-adv-x="789" d="M751 435T707 516T581 643T394 690Q288 690 207 644T82 516T38 336Q38 237 81 157T205 31T394 -16Q500 -16 581 30T706 157T751 336Q751 435 707 516ZM90 425T127 495T234 606T394 647Q485
647 554 607T662 495T700 337Q700 250 662 179T555 68T394 27Q303 27 234 67T128 178T90 337Q90 425 127 495ZM439 114T479 125T543 156L523 192Q494 175 469 167T406 158Q332 158 293 206T253 342Q253 424 294 473T408 523Q446 523 471 514T525 489L545 526Q522
545 482 556T410 568Q347 568 299 540T225 461T198 341Q198 237 255 176T407 114Q439 114 479 125Z" />
<glyph unicode="&#xaa;" glyph-name="ordfeminine" horiz-adv-x="332" d="M78 638T93 644T126 654T164 658Q203 658 223 638T244 582V562H158Q106 562 72 536T38 465Q38 422 70 393T153 363Q179 363 204 376T247 408L258 372H294V580Q294 630 259 666T163 702Q141
702 110 694T60 673L72 636Q78 638 93 644ZM87 492T109 509T167 526H244V456Q227 433 203 418T153 403Q124 403 106 421T87 465Q87 492 109 509Z" />
<glyph unicode="&#xab;" glyph-name="guillemotleft" horiz-adv-x="363" d="M191 120L74 245L191 370L170 406L30 264V226L170 84L191 120ZM343 120L225 245L343 370L322 406L182 264V226L322 84L343 120Z" />
<glyph unicode="&#xac;" glyph-name="logicalnot" horiz-adv-x="509" d="M18 362H426V117L479 112V356L471 406H10L18 362Z" />
<glyph unicode="&#xad;" glyph-name="softhyphen" horiz-adv-x="120" />
<glyph unicode="&#xae;" glyph-name="registered" horiz-adv-x="710" d="M673 575T633 646T521 759T356 800Q261 800 189 759T78 647T38 487Q38 400 78 329T190 217T356 176Q449 176 521 217T633 329T673 487Q673 575 633 646ZM88 565T121 626T214 723T356 758Q436
758 496 723T588 627T621 488Q621 412 589 351T496 254T356 218Q275 218 215 253T121 350T88 488Q88 565 121 626ZM439 485T458 510T478 572Q478 628 442 654T342 680H250V304H295V462H337Q347 462 352 463H366L456 304H508L409 472Q439 485 458 510ZM381 644T406
630T431 571Q431 529 403 513T326 497H295V644H331Q381 644 406 630Z" />
<glyph unicode="&#xaf;" glyph-name="overscore" horiz-adv-x="261" d="M245 683H10V640H251L245 683Z" />
<glyph unicode="&#xb0;" glyph-name="degree" horiz-adv-x="238" d="M72 702T41 672T10 599Q10 555 40 527T116 498Q162 498 192 526T223 599Q223 642 192 672T116 702Q72 702 41 672ZM90 533T72 553T53 600Q53 626 71 645T116 665Q143 665 162 645T181 600Q181
574 164 554T118 533Q90 533 72 553Z" />
<glyph unicode="&#xb1;" glyph-name="plusminus" horiz-adv-x="492" d="M269 531L217 534V347H30L38 305H217V113L269 108V305H458L450 347H269V531ZM38 0H462L454 42H30L38 0Z" />
<glyph unicode="&#xb2;" glyph-name="twosuperior" horiz-adv-x="347" d="M137 771T98 760T29 733L48 696Q72 709 106 720T170 731Q217 731 240 706T263 647Q263 623 247 592Q230 560 181 515L25 376V336H327L321 374H82L207 483Q264 533 288 571T313 650Q313
680 298 707T251 753T172 771Q137 771 98 760Z" />
<glyph unicode="&#xb3;" glyph-name="threesuperior" horiz-adv-x="354" d="M112 771T78 760T9 727L31 693Q90 731 154 731Q199 731 225 708T252 650Q252 606 221 581T128 556H96L103 518H123Q198 518 230 492T262 415Q262 371 229 346T147 320Q107 320 80 328T24
353L0 318Q30 301 67 290T143 278Q220 278 265 317T311 416Q311 463 287 495T220 538Q255 550 278 580T302 651Q302 703 265 737T155 771Q112 771 78 760Z" />
<glyph unicode="&#xb4;" glyph-name="acute" horiz-adv-x="141" d="M65 742L10 601L46 589L131 742H65Z" />
<glyph unicode="&#xb5;" glyph-name="mu" horiz-adv-x="517" d="M450 0H406L396 76Q364 39 314 13T220 -13Q164 -13 129 13V-208L74 -219V485H129V154Q129 98 150 66T221 34Q261 34 308 61T395 132V485H450V0Z" />
<glyph unicode="&#xb6;" glyph-name="paragraph" horiz-adv-x="810" d="M612 636V0H667V636H773V680H283Q170 680 104 629T38 475Q38 372 110 318T294 264H332V0H387V636H612Z" />
<glyph unicode="&#xb7;" glyph-name="middot" horiz-adv-x="145" d="M90 219T102 232T115 262Q115 280 103 292T73 304Q54 304 42 292T30 262Q30 244 42 232T73 219Q90 219 102 232Z" />
<glyph unicode="&#xb8;" glyph-name="cedilla" horiz-adv-x="206" d="M95 -80T121 -97T148 -136Q148 -155 129 -167T84 -180Q59 -180 25 -166L10 -202Q22 -210 44 -215T86 -221Q134 -221 165 -198T196 -134Q196 -107 172 -83T110 -52L136 13H89L54 -79Q95 -80 121 -97Z" />
<glyph unicode="&#xb9;" glyph-name="onesuperior" horiz-adv-x="243" d="M136 765L10 700L33 669L117 711V336H166V765H136Z" />
<glyph unicode="&#xba;" glyph-name="ordmasculine" horiz-adv-x="362" d="M138 702T103 681T48 622T27 532Q27 453 70 408T180 363Q223 363 258 384T314 443T335 532Q335 611 291 656T180 702Q138 702 103 681ZM223 660T252 626T282 532Q282 471 252 438T180
405Q138 405 109 439T79 532Q79 593 109 626T180 660Q223 660 252 626Z" />
<glyph unicode="&#xbb;" glyph-name="guillemotright" horiz-adv-x="363" d="M20 370L138 245L20 120L42 84L182 226V264L42 406L20 370ZM172 370L290 245L172 120L194 84L333 226V264L194 406L172 370Z" />
<glyph unicode="&#xbc;" glyph-name="onequarter" horiz-adv-x="716" d="M136 765L10 700L33 669L117 711V336H166V765H136ZM89 -134L585 700H536L34 -134H89ZM615 321H583L330 -31L334 -70H567V-163H615V-70H692L696 -31H615V321ZM382 -31L567 230V-31H382Z" />
<glyph unicode="&#xbd;" glyph-name="onehalf" horiz-adv-x="750" d="M136 765L10 700L33 669L117 711V336H166V765H136ZM85 -134L581 700H532L30 -134H85ZM541 325T501 314T433 287L452 250Q476 263 510 274T574 285Q621 285 644 260T667 201Q667 177 651 146Q634
114 585 69L429 -70V-110H730L724 -72H486L611 37Q667 87 691 125T716 204Q716 234 701 261T655 307T576 325Q541 325 501 314Z" />
<glyph unicode="&#xbe;" glyph-name="threequarters" horiz-adv-x="767" d="M112 771T78 760T9 727L31 693Q90 731 154 731Q199 731 225 708T252 650Q252 606 221 581T128 556H96L103 518H123Q198 518 230 492T262 415Q262 371 229 346T147 320Q107 320 80 328T24
353L0 318Q30 301 67 290T143 278Q220 278 265 317T311 416Q311 463 287 495T220 538Q255 550 278 580T302 651Q302 703 265 737T155 771Q112 771 78 760ZM169 -134L666 700H616L115 -134H169ZM665 321H633L380 -31L384 -70H617V-163H665V-70H743L747 -31H665V321ZM432
-31L617 230V-31H432Z" />
<glyph unicode="&#xbf;" glyph-name="questiondown" horiz-adv-x="398" d="M258 536T270 548T283 579Q283 597 271 609T240 622Q223 622 210 609T197 579Q197 562 210 549T240 536Q258 536 270 548ZM266 -80T308 -64T388 -20L380 28Q335 -4 300 -18T214 -33Q153
-33 121 -4T89 85Q89 141 136 187T262 259L255 464L216 484L207 290Q125 254 78 198T30 83Q30 8 75 -36T212 -80Q266 -80 308 -64Z" />
<glyph unicode="&#xc0;" glyph-name="Agrave" horiz-adv-x="581" d="M64 0L140 209H436L516 -6L571 5L312 680H257L10 0H64ZM285 608L420 253H155L285 608ZM268 892H202L287 739L323 751L268 892Z" />
<glyph unicode="&#xc1;" glyph-name="Aacute" horiz-adv-x="581" d="M64 0L140 209H436L516 -6L571 5L312 680H257L10 0H64ZM285 608L420 253H155L285 608ZM297 892L242 751L278 739L363 892H297Z" />
<glyph unicode="&#xc2;" glyph-name="Acircumflex" horiz-adv-x="581" d="M64 0L140 209H436L516 -6L571 5L312 680H257L10 0H64ZM285 608L420 253H155L285 608ZM413 752L309 893H260L157 750L204 740L285 853L364 740L413 752Z" />
<glyph unicode="&#xc3;" glyph-name="Atilde" horiz-adv-x="581" d="M64 0L140 209H436L516 -6L571 5L312 680H257L10 0H64ZM285 608L420 253H155L285 608ZM375 826T364 814T335 801Q310 801 287 827Q264 853 222 853Q185 853 162 831T139 762H181Q183 785 194
798T223 811Q247 811 275 785Q301 758 335 758Q372 758 395 780T418 849H377Q375 826 364 814Z" />
<glyph unicode="&#xc4;" glyph-name="Adieresis" horiz-adv-x="581" d="M64 0L140 209H436L516 -6L571 5L312 680H257L10 0H64ZM285 608L420 253H155L285 608ZM220 768T231 779T243 808Q243 824 232 835T203 847Q186 847 175 836T163 808Q163 791 174 780T203
768Q220 768 231 779ZM378 768T389 779T401 808Q401 824 390 835T361 847Q343 847 332 836T321 808Q321 791 332 780T361 768Q378 768 389 779Z" />
<glyph unicode="&#xc5;" glyph-name="Aring" horiz-adv-x="581" d="M64 0L140 209H436L516 -6L571 5L312 680H257L10 0H64ZM285 608L420 253H155L285 608ZM249 909T223 885T196 825Q196 790 222 767T285 744Q322 744 347 767T373 825Q373 861 347 885T285 909Q249
909 223 885ZM265 778T252 791T238 825Q238 846 251 860T285 874Q305 874 318 860T332 825Q332 805 319 792T285 778Q265 778 252 791Z" />
<glyph unicode="&#xc6;" glyph-name="AE" horiz-adv-x="835" d="M810 44H489V328H734L729 369H489V638H793L788 680H426L10 5L63 -5L191 209H434V0H815L810 44ZM219 253L434 604V253H219Z" />
<glyph unicode="&#xc7;" glyph-name="Ccedilla" horiz-adv-x="553" d="M501 9T457 -1T372 -14L357 -52Q395 -59 419 -83T443 -134Q443 -175 412 -198T333 -221Q314 -221 292 -216T257 -202L272 -166Q306 -180 331 -180Q357 -180 376 -168T395 -136Q395 -114 369
-97T301 -79L326 -13Q235 -6 173 43T79 168T48 336Q48 436 86 517T195 646T361 694Q398 694 449 684T526 657L506 616Q468 632 439 639T361 646Q290 646 232 607T141 497T108 337Q108 254 137 186T221 76T352 35Q401 35 435 43T502 65L526 23Q501 9 457 -1Z" />
<glyph unicode="&#xc8;" glyph-name="Egrave" horiz-adv-x="499" d="M153 44V328H398L393 369H153V638H456L451 680H98V0H479L473 44H153ZM260 892H194L279 739L315 751L260 892Z" />
<glyph unicode="&#xc9;" glyph-name="Eacute" horiz-adv-x="499" d="M153 44V328H398L393 369H153V638H456L451 680H98V0H479L473 44H153ZM288 892L233 751L269 739L354 892H288Z" />
<glyph unicode="&#xca;" glyph-name="Ecircumflex" horiz-adv-x="499" d="M153 44V328H398L393 369H153V638H456L451 680H98V0H479L473 44H153ZM405 752L301 893H252L149 750L196 740L277 853L356 740L405 752Z" />
<glyph unicode="&#xcb;" glyph-name="Edieresis" horiz-adv-x="499" d="M153 44V328H398L393 369H153V638H456L451 680H98V0H479L473 44H153ZM211 768T222 779T234 808Q234 824 223 835T194 847Q177 847 166 836T154 808Q154 791 165 780T194 768Q211 768 222
779ZM369 768T380 779T392 808Q392 824 381 835T352 847Q334 847 323 836T312 808Q312 791 323 780T352 768Q369 768 380 779Z" />
<glyph unicode="&#xcc;" glyph-name="Igrave" horiz-adv-x="250" d="M98 680V0H153V680H98ZM109 892H43L128 739L164 751L109 892Z" />
<glyph unicode="&#xcd;" glyph-name="Iacute" horiz-adv-x="250" d="M98 680V0H153V680H98ZM138 892L83 751L119 739L204 892H138Z" />
<glyph unicode="&#xce;" glyph-name="Icircumflex" horiz-adv-x="250" d="M98 680V0H153V680H98ZM510 752L406 893H357L254 750L301 740L382 853L461 740L510 752Z" />
<glyph unicode="&#xcf;" glyph-name="Idieresis" horiz-adv-x="250" d="M98 680V0H153V680H98ZM317 768T328 779T340 808Q340 824 329 835T300 847Q283 847 272 836T260 808Q260 791 271 780T300 768Q317 768 328 779ZM475 768T486 779T498 808Q498 824 487 835T458
847Q440 847 429 836T418 808Q418 791 429 780T458 768Q475 768 486 779Z" />
<glyph unicode="&#xd0;" glyph-name="Eth" horiz-adv-x="663" d="M473 680T544 587T615 344Q615 247 582 169T483 46T320 0H98V312H24L15 356H98V680H325Q473 680 544 587ZM392 45T446 83T530 188T560 343Q560 426 535 492T458 596T331 635H153V356H263L272 312H153V45H321Q392
45 446 83Z" />
<glyph unicode="&#xd1;" glyph-name="Ntilde" horiz-adv-x="670" d="M167 539L539 0H573V680H517V119L483 178L132 680H98V0H153V568L167 539ZM425 826T414 814T385 801Q360 801 337 827Q314 853 272 853Q235 853 212 831T189 762H231Q233 785 244 798T273 811Q297
811 325 785Q351 758 385 758Q422 758 445 780T468 849H427Q425 826 414 814Z" />
<glyph unicode="&#xd2;" glyph-name="Ograve" horiz-adv-x="713" d="M271 695T200 649T88 521T48 337Q48 236 87 156T196 31T354 -14Q443 -14 514 32T625 161T666 345Q666 446 627 526T517 651T360 696Q271 695 200 649ZM108 426T140 497T231 608T361 648Q431
648 486 609T573 501T605 344Q605 255 573 184T483 73T352 33Q282 33 227 72T140 181T108 338Q108 426 140 497ZM343 892H277L362 739L398 751L343 892Z" />
<glyph unicode="&#xd3;" glyph-name="Oacute" horiz-adv-x="713" d="M271 695T200 649T88 521T48 337Q48 236 87 156T196 31T354 -14Q443 -14 514 32T625 161T666 345Q666 446 627 526T517 651T360 696Q271 695 200 649ZM108 426T140 497T231 608T361 648Q431
648 486 609T573 501T605 344Q605 255 573 184T483 73T352 33Q282 33 227 72T140 181T108 338Q108 426 140 497ZM371 892L316 751L352 739L437 892H371Z" />
<glyph unicode="&#xd4;" glyph-name="Ocircumflex" horiz-adv-x="713" d="M271 695T200 649T88 521T48 337Q48 236 87 156T196 31T354 -14Q443 -14 514 32T625 161T666 345Q666 446 627 526T517 651T360 696Q271 695 200 649ZM108 426T140 497T231 608T361 648Q431
648 486 609T573 501T605 344Q605 255 573 184T483 73T352 33Q282 33 227 72T140 181T108 338Q108 426 140 497ZM488 752L384 893H335L232 750L279 740L360 853L439 740L488 752Z" />
<glyph unicode="&#xd5;" glyph-name="Otilde" horiz-adv-x="713" d="M271 695T200 649T88 521T48 337Q48 236 87 156T196 31T354 -14Q443 -14 514 32T625 161T666 345Q666 446 627 526T517 651T360 696Q271 695 200 649ZM108 426T140 497T231 608T361 648Q431
648 486 609T573 501T605 344Q605 255 573 184T483 73T352 33Q282 33 227 72T140 181T108 338Q108 426 140 497ZM450 826T439 814T410 801Q385 801 362 827Q339 853 297 853Q260 853 237 831T214 762H256Q258 785 269 798T298 811Q322 811 350 785Q376 758 410
758Q447 758 470 780T493 849H452Q450 826 439 814Z" />
<glyph unicode="&#xd6;" glyph-name="Odieresis" horiz-adv-x="713" d="M271 695T200 649T88 521T48 337Q48 236 87 156T196 31T354 -14Q443 -14 514 32T625 161T666 345Q666 446 627 526T517 651T360 696Q271 695 200 649ZM108 426T140 497T231 608T361 648Q431
648 486 609T573 501T605 344Q605 255 573 184T483 73T352 33Q282 33 227 72T140 181T108 338Q108 426 140 497ZM295 768T306 779T318 808Q318 824 307 835T278 847Q261 847 250 836T238 808Q238 791 249 780T278 768Q295 768 306 779ZM453 768T464 779T476 808Q476
824 465 835T436 847Q418 847 407 836T396 808Q396 791 407 780T436 768Q453 768 464 779Z" />
<glyph unicode="&#xd7;" glyph-name="multiply" horiz-adv-x="478" d="M376 31L237 205L87 31H30L213 250L47 464H102L240 290L392 464H448L265 245L432 31H376Z" />
<glyph unicode="&#xd8;" glyph-name="Oslash" horiz-adv-x="713" d="M447 696T517 651T626 526T666 345Q666 243 626 161T514 33T354 -14Q266 -14 197 31T88 156T48 337Q48 439 88 520T199 648T360 696Q447 696 517 651ZM108 254T137 187T217 80L453 628Q410 648
361 648Q289 648 231 608T141 497T108 338Q108 254 137 187ZM425 33T482 73T572 184T605 344Q605 427 577 494T498 600L262 52Q306 33 352 33Q425 33 482 73Z" />
<glyph unicode="&#xd9;" glyph-name="Ugrave" horiz-adv-x="665" d="M88 239Q88 166 117 109T202 20T332 -12Q408 -12 463 20T548 109T577 239V680H522V242Q522 184 499 137T433 62T332 35Q276 35 233 62T167 137T143 242V680H88V239ZM315 892H249L334 739L370
751L315 892Z" />
<glyph unicode="&#xda;" glyph-name="Uacute" horiz-adv-x="665" d="M88 239Q88 166 117 109T202 20T332 -12Q408 -12 463 20T548 109T577 239V680H522V242Q522 184 499 137T433 62T332 35Q276 35 233 62T167 137T143 242V680H88V239ZM344 892L289 751L325 739L410
892H344Z" />
<glyph unicode="&#xdb;" glyph-name="Ucircumflex" horiz-adv-x="665" d="M88 239Q88 166 117 109T202 20T332 -12Q408 -12 463 20T548 109T577 239V680H522V242Q522 184 499 137T433 62T332 35Q276 35 233 62T167 137T143 242V680H88V239ZM460 752L356 893H307L204
750L251 740L332 853L411 740L460 752Z" />
<glyph unicode="&#xdc;" glyph-name="Udieresis" horiz-adv-x="665" d="M88 239Q88 166 117 109T202 20T332 -12Q408 -12 463 20T548 109T577 239V680H522V242Q522 184 499 137T433 62T332 35Q276 35 233 62T167 137T143 242V680H88V239ZM267 768T278 779T290
808Q290 824 279 835T250 847Q233 847 222 836T210 808Q210 791 221 780T250 768Q267 768 278 779ZM425 768T436 779T448 808Q448 824 437 835T408 847Q390 847 379 836T368 808Q368 791 379 780T408 768Q425 768 436 779Z" />
<glyph unicode="&#xdd;" glyph-name="Yacute" horiz-adv-x="537" d="M527 680H466L262 328L62 692L10 666L235 272V0H290V278L527 680ZM274 892L219 751L255 739L340 892H274Z" />
<glyph unicode="&#xde;" glyph-name="Thorn" horiz-adv-x="549" d="M380 600T446 551T512 395Q511 290 440 237T256 184H153V0H98V680H153V600H267Q380 600 446 551ZM348 229T401 271T456 394Q456 554 274 554H153V229H263Q348 229 401 271Z" />
<glyph unicode="&#xdf;" glyph-name="germandbls" horiz-adv-x="550" d="M133 473Q133 544 171 588T282 633Q339 633 377 599T416 502Q416 437 378 406T251 375H224V330H269Q354 330 402 295T450 186Q450 112 398 79T259 45H208V0H251Q368 0 437 44T507 188Q507
251 473 294T382 356Q426 376 449 413T473 503Q473 588 419 634T282 680Q188 680 133 626T78 473V0H133V473Z" />
<glyph unicode="&#xe0;" glyph-name="agrave" horiz-adv-x="479" d="M142 436T170 444T244 452Q301 452 330 421T360 336V281H225Q148 281 100 243T52 136Q52 70 94 29T215 -13Q257 -13 297 5T363 52L371 0H415V340Q415 412 369 455T241 498Q208 498 160 486T86
456L105 418Q142 436 170 444ZM108 182T138 212T226 242H360V113Q334 77 297 55T216 33Q165 33 137 63T108 136Q108 182 138 212ZM228 742H162L247 589L283 601L228 742Z" />
<glyph unicode="&#xe1;" glyph-name="aacute" horiz-adv-x="479" d="M142 436T170 444T244 452Q301 452 330 421T360 336V281H225Q148 281 100 243T52 136Q52 70 94 29T215 -13Q257 -13 297 5T363 52L371 0H415V340Q415 412 369 455T241 498Q208 498 160 486T86
456L105 418Q142 436 170 444ZM108 182T138 212T226 242H360V113Q334 77 297 55T216 33Q165 33 137 63T108 136Q108 182 138 212ZM254 742L199 601L235 589L320 742H254Z" />
<glyph unicode="&#xe2;" glyph-name="acircumflex" horiz-adv-x="479" d="M142 436T170 444T244 452Q301 452 330 421T360 336V281H225Q148 281 100 243T52 136Q52 70 94 29T215 -13Q257 -13 297 5T363 52L371 0H415V340Q415 412 369 455T241 498Q208 498 160
486T86 456L105 418Q142 436 170 444ZM108 182T138 212T226 242H360V113Q334 77 297 55T216 33Q165 33 137 63T108 136Q108 182 138 212ZM376 601L272 742H223L120 599L167 589L248 703L327 589L376 601Z" />
<glyph unicode="&#xe3;" glyph-name="atilde" horiz-adv-x="479" d="M142 436T170 444T244 452Q301 452 330 421T360 336V281H225Q148 281 100 243T52 136Q52 70 94 29T215 -13Q257 -13 297 5T363 52L371 0H415V340Q415 412 369 455T241 498Q208 498 160 486T86
456L105 418Q142 436 170 444ZM108 182T138 212T226 242H360V113Q334 77 297 55T216 33Q165 33 137 63T108 136Q108 182 138 212ZM334 676T323 664T294 651Q269 651 246 677Q223 703 181 703Q144 703 121 681T98 612H140Q142 635 153 648T182 661Q206 661 234 635Q260
608 294 608Q331 608 354 630T377 699H336Q334 676 323 664Z" />
<glyph unicode="&#xe4;" glyph-name="adieresis" horiz-adv-x="479" d="M142 436T170 444T244 452Q301 452 330 421T360 336V281H225Q148 281 100 243T52 136Q52 70 94 29T215 -13Q257 -13 297 5T363 52L371 0H415V340Q415 412 369 455T241 498Q208 498 160 486T86
456L105 418Q142 436 170 444ZM108 182T138 212T226 242H360V113Q334 77 297 55T216 33Q165 33 137 63T108 136Q108 182 138 212ZM183 618T194 629T206 658Q206 674 195 685T166 697Q149 697 138 686T126 658Q126 641 137 630T166 618Q183 618 194 629ZM341 618T352
629T364 658Q364 674 353 685T324 697Q306 697 295 686T284 658Q284 641 295 630T324 618Q341 618 352 629Z" />
<glyph unicode="&#xe5;" glyph-name="aring" horiz-adv-x="479" d="M142 436T170 444T244 452Q301 452 330 421T360 336V281H225Q148 281 100 243T52 136Q52 70 94 29T215 -13Q257 -13 297 5T363 52L371 0H415V340Q415 412 369 455T241 498Q208 498 160 486T86
456L105 418Q142 436 170 444ZM108 182T138 212T226 242H360V113Q334 77 297 55T216 33Q165 33 137 63T108 136Q108 182 138 212ZM208 759T182 735T155 675Q155 640 181 617T244 594Q281 594 306 617T332 675Q332 711 306 735T244 759Q208 759 182 735ZM224 628T211
641T197 675Q197 696 210 710T244 724Q264 724 277 710T291 675Q291 655 278 642T244 628Q224 628 211 641Z" />
<glyph unicode="&#xe6;" glyph-name="ae" horiz-adv-x="805" d="M633 33T667 42T736 70L756 29Q723 10 680 -1T594 -13Q460 -13 399 80Q332 -13 215 -13Q136 -13 94 28T52 136Q52 204 100 242T225 281H359L360 294V336Q360 389 331 420T244 452Q199 452 171 444T105
418L86 456Q112 474 160 486T241 498Q300 498 341 475T401 411Q428 453 471 475T573 498Q665 498 716 427T767 241H413Q414 148 457 91T589 33Q633 33 667 42ZM499 452T461 405T415 281H710Q703 359 669 405T567 452Q499 452 461 405ZM277 33T313 57T377 124Q357
178 357 242H226Q169 242 139 212T108 136Q108 93 136 63T216 33Q277 33 313 57Z" />
<glyph unicode="&#xe7;" glyph-name="ccedilla" horiz-adv-x="450" d="M387 13T350 2T279 -12L263 -52Q301 -59 325 -83T349 -134Q349 -175 318 -198T239 -221Q220 -221 198 -216T163 -202L178 -166Q212 -180 237 -180Q263 -180 282 -168T301 -136Q301 -114 275
-97T207 -79L233 -12Q140 -2 89 67T38 245Q38 318 65 375T145 465T267 498Q298 498 343 486T416 456L396 418Q360 435 334 443T265 452Q213 452 175 425T116 350T94 246Q94 153 137 93T260 33Q292 33 314 37T355 50T391 67L411 28Q387 13 350 2Z" />
<glyph unicode="&#xe8;" glyph-name="egrave" horiz-adv-x="486" d="M448 356T397 427T253 498Q149 498 94 428T38 245Q38 126 97 57T275 -13Q317 -13 360 -2T437 29L417 70Q381 52 347 42T269 32Q181 32 138 89T94 241H448Q448 356 397 427ZM103 356T141 404T248
452Q316 452 350 405T391 280H96Q103 356 141 404ZM236 742H170L255 589L291 601L236 742Z" />
<glyph unicode="&#xe9;" glyph-name="eacute" horiz-adv-x="486" d="M448 356T397 427T253 498Q149 498 94 428T38 245Q38 126 97 57T275 -13Q317 -13 360 -2T437 29L417 70Q381 52 347 42T269 32Q181 32 138 89T94 241H448Q448 356 397 427ZM103 356T141 404T248
452Q316 452 350 405T391 280H96Q103 356 141 404ZM262 742L207 601L243 589L328 742H262Z" />
<glyph unicode="&#xea;" glyph-name="ecircumflex" horiz-adv-x="486" d="M448 356T397 427T253 498Q149 498 94 428T38 245Q38 126 97 57T275 -13Q317 -13 360 -2T437 29L417 70Q381 52 347 42T269 32Q181 32 138 89T94 241H448Q448 356 397 427ZM103 356T141
404T248 452Q316 452 350 405T391 280H96Q103 356 141 404ZM384 601L280 742H231L128 599L175 589L256 703L335 589L384 601Z" />
<glyph unicode="&#xeb;" glyph-name="edieresis" horiz-adv-x="486" d="M448 356T397 427T253 498Q149 498 94 428T38 245Q38 126 97 57T275 -13Q317 -13 360 -2T437 29L417 70Q381 52 347 42T269 32Q181 32 138 89T94 241H448Q448 356 397 427ZM103 356T141 404T248
452Q316 452 350 405T391 280H96Q103 356 141 404ZM190 618T201 629T213 658Q213 674 202 685T173 697Q156 697 145 686T133 658Q133 641 144 630T173 618Q190 618 201 629ZM348 618T359 629T371 658Q371 674 360 685T331 697Q313 697 302 686T291 658Q291 641
302 630T331 618Q348 618 359 629Z" />
<glyph unicode="&#xec;" glyph-name="igrave" horiz-adv-x="191" d="M68 485V0H123V485H68ZM81 742H15L100 589L136 601L81 742Z" />
<glyph unicode="&#xed;" glyph-name="iacute" horiz-adv-x="191" d="M68 485V0H123V485H68ZM107 742L52 601L88 589L173 742H107Z" />
<glyph unicode="&#xee;" glyph-name="icircumflex" horiz-adv-x="191" d="M68 485V0H123V485H68ZM485 601L381 742H332L229 599L276 589L357 703L436 589L485 601Z" />
<glyph unicode="&#xef;" glyph-name="idieresis" horiz-adv-x="191" d="M68 485V0H123V485H68ZM291 618T302 629T314 658Q314 674 303 685T274 697Q257 697 246 686T234 658Q234 641 245 630T274 618Q291 618 302 629ZM449 618T460 629T472 658Q472 674 461 685T432
697Q414 697 403 686T392 658Q392 641 403 630T432 618Q449 618 460 629Z" />
<glyph unicode="&#xf0;" glyph-name="eth" horiz-adv-x="525" d="M487 510T487 240Q487 168 460 111T381 20T259 -13Q154 -13 96 58T38 245Q38 317 65 374T144 465T266 498Q336 497 388 459Q341 562 240 635L112 571L90 610L198 663Q149 692 98 713L114 750Q185
724 245 686L358 742L379 706L286 659Q487 510 487 240ZM312 33T350 60T409 135T431 239Q431 318 414 386Q385 418 347 435T265 452Q213 452 175 425T116 350T94 246Q94 153 137 93T260 33Q312 33 350 60Z" />
<glyph unicode="&#xf1;" glyph-name="ntilde" horiz-adv-x="507" d="M162 397T209 424T296 451Q389 451 389 331V0H444V337Q444 411 408 454T297 498Q253 498 203 473T122 410L112 485H68V0H123V353Q162 397 209 424ZM354 676T343 664T314 651Q289 651 266 677Q243
703 201 703Q164 703 141 681T118 612H160Q162 635 173 648T202 661Q226 661 254 635Q280 608 314 608Q351 608 374 630T397 699H356Q354 676 343 664Z" />
<glyph unicode="&#xf2;" glyph-name="ograve" horiz-adv-x="525" d="M487 168T460 111T381 20T259 -13Q154 -13 96 58T38 245Q38 317 65 374T144 465T266 498Q372 497 429 428T487 240Q487 168 460 111ZM312 33T350 60T409 135T431 239Q431 332 388 392T265 452Q213
452 175 425T116 350T94 246Q94 153 137 93T260 33Q312 33 350 60ZM249 742H183L268 589L304 601L249 742Z" />
<glyph unicode="&#xf3;" glyph-name="oacute" horiz-adv-x="525" d="M487 168T460 111T381 20T259 -13Q154 -13 96 58T38 245Q38 317 65 374T144 465T266 498Q372 497 429 428T487 240Q487 168 460 111ZM312 33T350 60T409 135T431 239Q431 332 388 392T265 452Q213
452 175 425T116 350T94 246Q94 153 137 93T260 33Q312 33 350 60ZM275 742L220 601L256 589L341 742H275Z" />
<glyph unicode="&#xf4;" glyph-name="ocircumflex" horiz-adv-x="525" d="M487 168T460 111T381 20T259 -13Q154 -13 96 58T38 245Q38 317 65 374T144 465T266 498Q372 497 429 428T487 240Q487 168 460 111ZM312 33T350 60T409 135T431 239Q431 332 388 392T265
452Q213 452 175 425T116 350T94 246Q94 153 137 93T260 33Q312 33 350 60ZM397 601L293 742H244L141 599L188 589L269 703L348 589L397 601Z" />
<glyph unicode="&#xf5;" glyph-name="otilde" horiz-adv-x="525" d="M487 168T460 111T381 20T259 -13Q154 -13 96 58T38 245Q38 317 65 374T144 465T266 498Q372 497 429 428T487 240Q487 168 460 111ZM312 33T350 60T409 135T431 239Q431 332 388 392T265 452Q213
452 175 425T116 350T94 246Q94 153 137 93T260 33Q312 33 350 60ZM355 676T344 664T315 651Q290 651 267 677Q244 703 202 703Q165 703 142 681T119 612H161Q163 635 174 648T203 661Q227 661 255 635Q281 608 315 608Q352 608 375 630T398 699H357Q355 676 344
664Z" />
<glyph unicode="&#xf6;" glyph-name="odieresis" horiz-adv-x="525" d="M487 168T460 111T381 20T259 -13Q154 -13 96 58T38 245Q38 317 65 374T144 465T266 498Q372 497 429 428T487 240Q487 168 460 111ZM312 33T350 60T409 135T431 239Q431 332 388 392T265
452Q213 452 175 425T116 350T94 246Q94 153 137 93T260 33Q312 33 350 60ZM203 618T214 629T226 658Q226 674 215 685T186 697Q169 697 158 686T146 658Q146 641 157 630T186 618Q203 618 214 629ZM361 618T372 629T384 658Q384 674 373 685T344 697Q326 697 315
686T304 658Q304 641 315 630T344 618Q361 618 372 629Z" />
<glyph unicode="&#xf7;" glyph-name="divide" horiz-adv-x="497" d="M267 369T280 383T294 415Q294 435 281 448T248 462Q227 462 214 449T201 415Q201 396 214 383T248 369Q267 369 280 383ZM38 252H467L458 295H30L38 252ZM270 66T283 80T297 113Q297 132 284
145T251 159Q230 159 217 146T204 113Q204 93 217 80T251 66Q270 66 283 80Z" />
<glyph unicode="&#xf8;" glyph-name="oslash" horiz-adv-x="525" d="M487 168T460 111T381 20T259 -13Q154 -13 96 58T38 245Q38 317 65 374T144 465T266 498Q372 497 429 428T487 240Q487 168 460 111ZM312 33T350 60T409 135T431 239Q431 332 388 392T265 452Q213
452 175 425T116 350T94 246Q94 153 137 93T260 33Q312 33 350 60ZM258 220L275 251L273 247L260 223L258 220Z" />
<glyph unicode="&#xf9;" glyph-name="ugrave" horiz-adv-x="507" d="M346 88T299 61T211 34Q161 34 140 66T119 154V485H64V148Q64 74 99 31T210 -13Q254 -13 304 13T386 76L396 0H440V485H385V132Q346 88 299 61ZM233 742H167L252 589L288 601L233 742Z" />
<glyph unicode="&#xfa;" glyph-name="uacute" horiz-adv-x="507" d="M346 88T299 61T211 34Q161 34 140 66T119 154V485H64V148Q64 74 99 31T210 -13Q254 -13 304 13T386 76L396 0H440V485H385V132Q346 88 299 61ZM259 742L204 601L240 589L325 742H259Z" />
<glyph unicode="&#xfb;" glyph-name="ucircumflex" horiz-adv-x="507" d="M346 88T299 61T211 34Q161 34 140 66T119 154V485H64V148Q64 74 99 31T210 -13Q254 -13 304 13T386 76L396 0H440V485H385V132Q346 88 299 61ZM381 601L277 742H228L125 599L172 589L253
703L332 589L381 601Z" />
<glyph unicode="&#xfc;" glyph-name="udieresis" horiz-adv-x="507" d="M346 88T299 61T211 34Q161 34 140 66T119 154V485H64V148Q64 74 99 31T210 -13Q254 -13 304 13T386 76L396 0H440V485H385V132Q346 88 299 61ZM187 618T198 629T210 658Q210 674 199 685T170
697Q153 697 142 686T130 658Q130 641 141 630T170 618Q187 618 198 629ZM345 618T356 629T368 658Q368 674 357 685T328 697Q310 697 299 686T288 658Q288 641 299 630T328 618Q345 618 356 629Z" />
<glyph unicode="&#xfd;" glyph-name="yacute" horiz-adv-x="434" d="M149 -129T128 -146T64 -180L74 -219Q122 -209 157 -181T207 -112L424 485H369L217 68L57 494L10 472L193 -3L161 -98Q149 -129 128 -146ZM224 742L169 601L205 589L290 742H224Z" />
<glyph unicode="&#xfe;" glyph-name="thorn" horiz-adv-x="512" d="M363 498T418 428T474 241Q474 168 449 111T374 20T254 -13Q221 -13 189 0T129 34V-208L74 -219V696L129 706V448Q187 498 259 498Q363 498 418 428ZM333 33T375 92T417 240Q417 335 378 393T260
452Q218 452 188 436T129 390V87Q157 62 187 48T256 33Q333 33 375 92Z" />
<glyph unicode="&#xff;" glyph-name="ydieresis" horiz-adv-x="434" d="M149 -129T128 -146T64 -180L74 -219Q122 -209 157 -181T207 -112L424 485H369L217 68L57 494L10 472L193 -3L161 -98Q149 -129 128 -146ZM152 618T163 629T175 658Q175 674 164 685T135
697Q118 697 107 686T95 658Q95 641 106 630T135 618Q152 618 163 629ZM310 618T321 629T333 658Q333 674 322 685T293 697Q275 697 264 686T253 658Q253 641 264 630T293 618Q310 618 321 629Z" />
<glyph unicode="&#x2013;" glyph-name="endash" horiz-adv-x="435" d="M38 251H405L397 295H30L38 251Z" />
<glyph unicode="&#x2014;" glyph-name="emdash" horiz-adv-x="529" d="M38 251H499L491 295H30L38 251Z" />
<glyph unicode="&#x2018;" glyph-name="quoteleft" horiz-adv-x="156" d="M92 509T103 521T115 551Q115 567 105 580T76 594Q79 642 136 674L118 702Q79 682 55 642T30 557Q30 537 42 523T73 509Q92 509 103 521Z" />
<glyph unicode="&#x2019;" glyph-name="quoteright" horiz-adv-x="156" d="M64 702T52 689T40 659Q40 644 50 631T79 616Q76 570 20 536L37 509Q77 529 101 568T126 653Q126 673 114 687T83 702Q64 702 52 689Z" />
<glyph unicode="&#x201a;" glyph-name="quotesinglbase" horiz-adv-x="156" d="M64 84T52 72T40 42Q40 27 51 14T79 0Q76 -47 20 -81L37 -108Q77 -88 101 -49T126 37Q126 57 114 70T83 84Q64 84 52 72Z" />
<glyph unicode="&#x201c;" glyph-name="quotedblleft" horiz-adv-x="289" d="M92 509T103 521T115 551Q115 567 105 580T76 594Q79 642 136 674L118 702Q79 682 55 642T30 557Q30 537 42 523T73 509Q92 509 103 521ZM225 509T237 521T249 551Q249 567 239 580T211
594Q212 641 269 674L253 702Q213 683 189 643T164 557Q164 537 176 523T206 509Q225 509 237 521Z" />
<glyph unicode="&#x201d;" glyph-name="quotedblright" horiz-adv-x="289" d="M64 702T52 689T40 659Q40 644 50 631T79 616Q76 570 20 536L37 509Q77 529 101 568T126 653Q126 673 114 687T83 702Q64 702 52 689ZM198 702T186 689T174 659Q174 644 185 631T213
616Q210 569 154 536L171 509Q211 528 235 568T259 653Q259 673 247 687T217 702Q198 702 186 689Z" />
<glyph unicode="&#x201e;" glyph-name="quotedblbase" horiz-adv-x="289" d="M182 71T187 61T193 37Q193 -9 169 -48T105 -107L103 -108L86 -81Q142 -47 145 0Q128 0 117 13T106 42Q106 60 118 72T149 85Q162 85 173 77Q182 71 187 61Z" />
<glyph unicode="&#x2022;" glyph-name="bullet" horiz-adv-x="202" d="M130 256T151 276T172 326Q172 356 151 377T101 398Q72 398 51 377T30 326Q30 297 51 277T101 256Q130 256 151 276Z" />
<glyph unicode="&#x2039;" glyph-name="guilsinglleft" horiz-adv-x="211" d="M191 122L77 245L191 368L170 408L30 264V226L170 83L191 122Z" />
<glyph unicode="&#x203a;" glyph-name="guilsinglright" horiz-adv-x="212" d="M20 369L136 246L20 122L42 83L182 227V264L42 408L20 369Z" />
</font>
</defs>
</svg>
