<?xml version="1.0" standalone="no"?>
<!DOCTYPE svg PUBLIC "-//W3C//DTD SVG 1.1//EN" "http://www.w3.org/Graphics/SVG/1.1/DTD/svg11.dtd">
<svg xmlns="http://www.w3.org/2000/svg">
<defs >
<font id="NothingYouCouldDo" horiz-adv-x="533" ><font-face
    font-family="Nothing You Could Do"
    units-per-em="1024"
    panose-1="2 0 0 0 0 0 0 0 0 0"
    ascent="959"
    descent="-407"
    alphabetic="0" />
<glyph unicode=" " glyph-name="space" horiz-adv-x="538" />
<glyph unicode="!" glyph-name="exclam" horiz-adv-x="266" d="M11 23Q3 35 9 49T28 72T52 82T68 68Q72 53 69 37T57 11T36 2T11 23ZM68 305Q66 311 70 335T82 393T102 470T128 554T157 635T186 703T214 747T239 757Q240 752 236 724T222 654T201 562T175 464T146
375T117 308T90 280T68 305Z" />
<glyph unicode="&quot;" glyph-name="quotedbl" horiz-adv-x="284" d="M185 409Q183 413 179 421T174 431V601Q193 610 203 600T218 570T221 521T216 468T207 423T197 398Q195 398 191 402T185 409ZM72 431Q67 445 65 466T61 509T60 553T61 589Q61 606 68 602T83
585T99 559T106 544Q107 531 107 511T107 470T107 436T106 420L94 409Q91 410 83 418T72 431Z" />
<glyph unicode="#" glyph-name="numbersign" horiz-adv-x="689" d="M322 11Q319 30 323 51T332 94T339 135T334 170Q327 183 315 183T288 181Q260 177 247 166T227 138T218 104T213 68T201 35T175 11Q157 23 154 39T154 74T161 111T164 146Q163 146 153 145T128
142T96 141T64 144T36 153T18 170Q13 179 29 185T73 198T132 214T189 241T228 284T232 350Q217 351 187 345T125 337T69 340T40 373Q65 384 92 391T146 404T200 415T254 430Q259 439 268 456T289 491T311 522T329 535T338 516T334 452Q365 447 384 459T414 490T431
532T442 569T452 589T470 576Q478 563 478 550T477 522T471 494T470 464Q495 461 533 461T605 462T663 462T682 455T636 438T503 407Q473 401 450 380T415 334T404 288T424 260Q427 259 446 262T492 269T548 276T600 279T635 271T639 248Q631 232 611 225T565 216T510
214T457 212T414 204T390 181Q388 170 385 144T375 90T359 36T334 0Q332 1 327 5T322 11ZM266 282Q265 277 265 260T266 238Q303 232 323 241T353 270T367 316T378 373Q371 395 360 398T337 392T312 365T290 331T273 299T266 282Z" />
<glyph unicode="$" glyph-name="dollar" horiz-adv-x="474" d="M85 11Q81 33 85 54T95 95T105 131T104 157T82 171T29 170Q17 178 17 192T29 214Q33 214 44 216T68 220T92 223T107 226Q115 228 128 232T142 238L198 396Q202 408 192 418T165 438T130 460T99 484T84
515T97 554Q107 568 127 575T171 586T216 595T254 610Q260 614 266 629T281 665T297 704T315 735T335 746T356 723Q360 714 359 703T353 679T346 655T345 633H446Q449 633 453 629T458 622V587Q422 585 389 581T331 563T294 523T288 452Q363 425 398 400T440 352T431
307T387 267T323 232T255 202T201 177T175 158L130 23Q130 21 124 15T110 3T95 -2T85 11ZM220 248Q242 244 267 251T316 273T359 305T390 339Q389 356 378 369T350 390T313 396T274 383T241 347T220 282V248ZM164 486Q192 467 207 469T227 485T228 515T214 542T187
549T153 519Q145 509 150 500T164 486Z" />
<glyph unicode="%" glyph-name="percent" horiz-adv-x="328" d="M23 52Q21 54 17 62T11 74Q40 137 73 197T141 316T209 436T271 559Q290 565 297 559T305 540T302 514T294 492Q241 379 178 271T57 52Q46 37 38 39T23 52ZM226 120Q220 139 230 147T252 153T273
140T271 108Q267 107 261 106T247 105T235 109T226 120ZM23 52Q21 54 17 62T11 74Q40 137 73 197T141 316T209 436T271 559Q290 565 297 559T305 540T302 514T294 492Q241 379 178 271T57 52Q46 37 38 39T23 52ZM226 120Q220 139 230 147T252 153T273 140T271 108Q267
107 261 106T247 105T235 109T226 120ZM66 486Q59 505 69 513T91 519T112 505T110 474Q106 473 100 472T86 471T74 475T66 486Q59 505 69 513T91 519T112 505T110 474Q106 473 100 472T86 471T74 475T66 486Z" />
<glyph unicode="&amp;" glyph-name="ampersand" horiz-adv-x="384" d="M108 -58Q99 -49 100 -20T106 43T115 110T119 156Q69 168 46 181T19 208T24 237T52 269T91 302T128 338T153 375T154 416Q130 411 103 418T63 450Q55 465 72 483T113 522T159 564T187 607Q202
676 211 709T226 749T234 743T238 706T240 652T244 597Q259 590 274 598T304 619T336 640T369 642Q374 619 364 605T335 580T296 562T258 544T233 520T233 484Q289 489 317 486T352 474T350 449T322 414T282 373T240 327T208 280T199 234Q205 235 221 235T255 235T289
235T312 234Q341 232 343 226T333 212T295 194T248 177T206 163T187 156Q173 135 172 100T169 29T162 -39T131 -82L108 -58ZM98 246Q96 244 92 235T86 223Q116 218 133 226T142 269Q130 273 117 264T98 246ZM221 404Q230 401 240 406T255 416H221V404Z" />
<glyph unicode="&apos;" glyph-name="quotesingle" horiz-adv-x="211" d="M69 486Q69 487 71 496T77 515T85 537T91 554Q102 584 109 590T121 589T127 560T127 516T121 467T109 425T91 401T69 407Q68 411 68 422T67 446T67 470T69 486Z" />
<glyph unicode="(" glyph-name="parenleft" horiz-adv-x="288" d="M88 26Q53 69 40 128T29 255T48 391T86 524T136 639T188 722T235 758T266 735Q233 705 199 655T137 542T89 410T64 274T72 149T122 49Q127 43 142 33T176 11T211 -15T236 -42T241 -67T213 -87Q211
-88 207 -88T201 -87Q194 -81 178 -66T143 -32T110 2T88 26Z" />
<glyph unicode=")" glyph-name="parenright" horiz-adv-x="248" d="M20 -81Q18 -79 18 -76T20 -70Q103 6 139 106T176 314T145 532T62 735Q59 743 61 753T74 769Q130 724 162 657T208 511T220 348T204 187T168 46T121 -57T69 -106T20 -81Z" />
<glyph unicode="*" glyph-name="asterisk" horiz-adv-x="559" d="M186 79Q183 86 175 77T156 54T136 28T120 16T112 35T118 102Q121 120 114 128T93 139T64 142T36 145T18 155T18 181Q40 185 67 186T118 194T155 215T164 260Q162 275 149 288T123 315T100 343T97
373Q108 378 119 376T141 368T160 354T175 339Q179 348 185 363T199 392T215 418T231 430T245 418T254 373Q256 374 260 378T266 384Q268 387 273 395T283 412T293 430T300 441Q322 448 328 439T331 410T319 366T299 317T282 274T277 248Q310 246 342 248T406 253T471
259T537 260Q543 248 526 240T481 224T420 212T360 200T318 187T311 170L413 57V34H378L243 158Q241 139 243 121T249 85T254 48T254 11H220L186 79V79Z" />
<glyph unicode="+" glyph-name="plus" horiz-adv-x="345" d="M181 11Q171 26 165 45T156 86T151 127T147 164H34L11 192Q13 194 22 198T34 203Q40 204 56 207T90 215T124 222T147 226L170 384Q171 390 176 393T187 397T198 394T203 384V238Q209 238 223 237T254
233T285 229T306 226Q308 226 317 222T328 214Q317 197 300 192T263 185T228 178T203 158Q193 138 195 118T200 77T204 38T193 0Q191 1 187 5T181 11Z" />
<glyph unicode="," glyph-name="comma" horiz-adv-x="181" d="M-12 -146Q-17 -132 -8 -114T16 -77T46 -40T67 -10Q76 8 80 26T85 62T86 98T90 137Q94 165 103 158T121 124T131 62T124 1Q122 -2 116 -17T101 -51T79 -92T53 -130T26 -155T-1 -158Q-3 -157 -7 -153T-12
-146Z" />
<glyph unicode="-" glyph-name="hyphen" horiz-adv-x="498" d="M29 282Q16 295 30 307T76 329T152 346T243 357T334 361T412 354T462 336T470 305Q459 305 434 304T379 300T324 297T288 294Q263 292 227 283T154 267T82 261T29 282Z" />
<glyph unicode="." glyph-name="period" horiz-adv-x="146" d="M34 11Q20 32 26 53T49 86T84 96T113 68Q119 53 112 37T90 10T60 -2T34 11Z" />
<glyph unicode="/" glyph-name="slash" horiz-adv-x="310" d="M23 11Q17 49 26 102T56 216T103 341T158 465T213 577T260 667Q271 674 278 670T289 658T294 639T294 622Q288 609 274 577T243 509T213 441T193 396Q188 386 179 362T158 310T138 259T125 226Q120
212 113 184T97 123T78 60T57 11Q54 8 49 5T39 0T29 0T23 11Z" />
<glyph unicode="0" glyph-name="zero" horiz-adv-x="486" d="M68 11Q38 34 29 76T26 172T55 284T108 398T179 499T260 574T346 608T430 587Q460 567 467 527T464 436T429 327T370 214T296 112T216 35T137 -3T68 11ZM79 45Q94 22 116 25T165 48T220 103T276 179T329
266T373 351T404 424T418 474Q423 530 407 548T362 558T294 515T217 436T145 334T89 226T63 124T79 45Z" />
<glyph unicode="1" glyph-name="one" horiz-adv-x="277" d="M23 11Q8 26 10 52T21 106T41 158T57 192Q60 200 69 223T92 278T119 345T146 411T168 466T181 498Q183 504 186 517T195 545T206 573T220 593T238 597T260 576Q261 575 253 551T230 486T197 394T158
289T119 184T84 92T58 26T45 0Q43 -1 35 3T23 11Z" />
<glyph unicode="2" glyph-name="two" horiz-adv-x="548" d="M34 11Q20 22 22 34T34 57Q72 102 110 143T183 228T249 317T306 418Q319 446 317 460T302 477T270 477T231 465T191 449T161 437T147 435T159 452Q177 473 203 489T257 512T309 518T349 503T366 463T350
396Q329 348 297 307T230 225T164 145T113 57Q129 52 162 61T238 85T325 116T412 141T486 148T532 125Q534 123 534 114T532 102Q502 107 460 98T371 72T274 38T179 7T96 -6T34 11Z" />
<glyph unicode="3" glyph-name="three" horiz-adv-x="519" d="M29 23Q26 27 23 32T19 41T19 50T29 57Q40 60 52 59T78 54T105 47T130 45Q151 47 190 65T274 109T361 168T430 231T458 287T424 328Q406 331 377 325T316 309T252 290T196 278T160 283T153 316Q166
331 188 355T234 406T279 463T311 519Q311 519 296 515T258 506T211 496T167 492T140 498T142 519Q144 522 162 533T208 558T267 583T326 601T372 601T391 575T372 514T300 407V373Q380 379 425 366T486 326T495 264T458 192T385 120T285 58T167 19T40 11Q38 12
34 16T29 23Z" />
<glyph unicode="4" glyph-name="four" horiz-adv-x="542" d="M266 23Q259 57 270 91T295 160T319 227T322 294Q302 297 276 291T223 274T167 254T113 241T66 243T29 271Q16 291 18 316T33 371T65 433T103 496T139 556T164 610Q187 616 197 611T209 593T206 563T192
529T176 497T164 474Q159 466 148 445T125 401T101 357T85 328V305Q109 302 136 306T189 318T241 335T288 350Q337 364 366 392T415 457T449 540T481 633Q504 640 510 627T512 588T497 531T474 468T454 415T446 384Q463 390 479 385T503 362Q497 348 484 343T455
334T426 325T402 305Q381 272 366 236T339 162T318 86T300 11Q293 9 281 10T266 23Z" />
<glyph unicode="5" glyph-name="five" horiz-adv-x="542" d="M74 11Q66 13 57 16T39 25T24 38T18 57Q18 62 36 61T78 55T124 48T153 45Q210 51 261 78T351 146T409 240T424 350Q409 380 382 387T323 389T257 367T194 337T145 312T118 305Q102 316 98 327T96 352T105
378T118 407Q119 410 126 427T144 467T165 511T186 542Q204 560 242 568T325 580T411 587T481 599Q505 607 515 597T517 571T481 539T402 519Q393 519 371 518T323 514T275 511T243 509Q234 502 223 490T203 464T189 435T186 407Q209 402 232 407T279 419T327 431T378
430Q429 419 454 392T484 330T473 253T429 173T360 98T273 40T175 7T74 11Z" />
<glyph unicode="6" glyph-name="six" horiz-adv-x="362" d="M107 11Q98 14 87 18T64 27T44 39T29 57Q22 100 18 142T29 226Q33 237 51 269T94 340T150 419T207 488T256 528T288 519Q290 515 290 502T288 486Q272 471 249 450T201 402T150 346T107 286T79 226T74
170H85Q167 213 219 226T301 233T338 204T338 152T307 93T253 40T184 8T107 11ZM107 57Q129 44 154 48T203 66T247 100T279 139T291 174T277 192Q267 194 245 188T198 171T148 145T108 115T90 84T107 57Z" />
<glyph unicode="7" glyph-name="seven" horiz-adv-x="480" d="M125 23Q124 25 124 28T125 34Q131 46 147 74T181 135T215 197T238 238Q245 250 258 269T287 312T318 359T345 407T362 451T362 486Q316 474 277 465T200 449T122 441T34 441Q16 453 26 464T65 487T136
509T225 527T317 540T397 548T451 550T464 542Q458 528 443 495T406 418T358 322T305 221T250 127T199 54T156 15T125 23Z" />
<glyph unicode="8" glyph-name="eight" horiz-adv-x="498" d="M50 11Q28 23 21 42T15 82T28 123T50 158Q58 167 77 188T118 232T159 276T186 305Q195 328 187 349T165 391T138 435T125 480T142 530T209 587Q265 622 298 627T353 617T392 573T435 509Q438 506 445
503T458 497T469 488T470 474Q445 458 418 439T363 398T311 353T266 305Q257 271 263 243T279 190T296 144T296 101T262 58T175 11Q147 0 113 -1T50 11ZM62 45Q122 34 159 47T217 84T244 140T247 197T232 239T209 248Q199 239 176 219T129 175T86 125T62 79V45ZM198
384Q199 382 202 377T209 367T216 356T220 350Q222 349 226 349T232 350Q238 355 254 368T288 395T322 423T345 441Q350 445 359 453T368 464V554Q368 565 349 569T303 571T248 556T200 522T178 465T198 384Z" />
<glyph unicode="9" glyph-name="nine" horiz-adv-x="390" d="M118 11Q112 46 119 69T142 125Q148 136 162 165T192 226T223 288T243 328V339Q226 345 210 341T177 329T144 312T111 297T77 291T40 305Q13 323 16 354T42 418T105 479T190 518T282 520T368 464Q370
456 355 416T316 321T261 206T203 98T151 24T118 11ZM74 373Q72 371 68 362T62 350Q92 342 126 350T193 376T254 417T300 464Q290 484 272 487T231 484T184 463T138 431T99 398T74 373Z" />
<glyph unicode=":" glyph-name="colon" horiz-adv-x="125" d="M28 23Q21 37 27 45T44 57T67 57T84 45Q93 28 88 17T72 2T48 3T28 23ZM39 294Q28 304 28 315T32 335T49 346T73 339Q86 330 87 317T83 295T65 283T39 294Z" />
<glyph unicode=";" glyph-name="semicolon" horiz-adv-x="175" d="M-16 -165Q-18 -163 -18 -159T-16 -154Q12 -118 31 -90T60 -31T74 34T74 117Q79 120 84 118T95 110T104 100T108 95Q126 71 127 36T119 -37T91 -107T54 -162T15 -186T-16 -165ZM40 343Q38 345
38 354T40 366H85V321Q78 317 71 318T58 323T48 332T40 343Z" />
<glyph unicode="&lt;" glyph-name="less" horiz-adv-x="464" d="M396 11Q315 65 233 118T79 238Q63 252 47 266T21 296T12 327T34 362Q43 370 61 386T103 424T153 469T202 513T243 551T271 576Q276 578 285 576T301 570T311 558T306 542L91 328Q80 317 93 299T127
263T168 231T193 214Q206 205 239 183T311 135T382 88T430 57Q440 44 442 32T439 11T422 2T396 11Z" />
<glyph unicode="=" glyph-name="equal" horiz-adv-x="430" d="M23 23Q17 32 30 39T68 53T123 64T180 72T226 77T249 79Q257 79 278 79T322 80T367 80T396 79Q401 76 405 70T407 57Q370 52 322 44T225 28T135 12T68 0Q50 -3 42 1T23 23ZM79 248Q85 260 108 270T162
286T228 294T295 294T351 283T384 260Q380 255 357 250T302 241T232 233T162 230T106 235T79 248Z" />
<glyph unicode="&gt;" glyph-name="greater" horiz-adv-x="345" d="M39 23Q29 42 43 66T83 117T141 173T200 230T243 286T254 339Q253 341 235 355T192 391T136 436T82 484T42 526T28 554Q29 558 37 566T50 576Q71 560 104 539T173 493T240 441T291 384T311 323T287
260Q279 250 264 232T231 191T193 146T156 103T125 67T107 45Q105 42 99 36T85 22T72 9T62 0Q59 2 50 10T39 23Z" />
<glyph unicode="?" glyph-name="question" horiz-adv-x="548" d="M78 26Q70 37 66 48T66 72Q73 94 80 94T94 83T103 53T105 23T98 8T78 26ZM64 273Q57 299 83 333T152 404T248 481T350 557T436 626T485 683T474 722T380 736H109Q101 752 107 766T132 781H414Q439
781 469 767T520 731T546 680T527 623Q482 570 423 531T303 455T189 376T98 273Q95 269 90 266T80 261T71 262T64 273Z" />
<glyph unicode="@" glyph-name="at" horiz-adv-x="667" d="M170 11Q107 29 73 69T27 162T23 279T55 405T114 527T190 634T276 712T363 748T444 730T509 644Q522 615 530 583T538 518T529 455T498 396Q483 376 463 355T420 316T371 288T317 282Q306 283 288 282T252
280T217 278T193 282Q153 302 148 333T158 395T204 455T264 500T320 515T350 486Q354 469 351 450T341 411T327 373T317 339Q321 331 326 329T338 328T350 332T362 339Q432 386 463 443T486 587Q481 648 456 673T394 696T314 666T229 596T151 497T94 380T70 256T91
136Q112 86 141 64T206 39T280 51T358 89T437 143T513 202T580 256T634 294Q640 257 618 220T555 147T463 83T357 35T254 8T170 11ZM204 373Q202 369 202 356T204 339Q223 328 237 341T260 375T275 420T282 452Q268 460 255 452T232 428T214 397T204 373Z" />
<glyph unicode="A" glyph-name="A" horiz-adv-x="847" d="M-78 -185Q-81 -183 -87 -176T-98 -160T-102 -146T-90 -140Q-69 -169 -31 -162T51 -128T140 -59T222 24T282 98T306 142Q306 145 298 151T280 165T260 178T249 187Q252 197 268 202T304 212T343 221T373
233Q426 310 465 371T540 492T613 615T698 757Q711 779 719 772T731 738T736 670T736 580T733 482T728 390T724 318T723 278Q727 227 728 190T738 121T765 60T825 -5Q792 -16 771 -4T736 34T714 93T698 158T681 213T655 244Q654 244 650 244T640 245T629 245T622
244Q613 242 589 236T535 223T480 209T441 199Q416 192 389 167T331 107T268 29T201 -53T132 -127T62 -182T-8 -205T-78 -185ZM464 255Q466 254 474 254T486 255Q504 258 531 262T585 271T635 284T667 301Q667 301 670 322T677 375T685 447T694 525T700 595T704
646Q693 651 675 621T629 537T560 414T464 267V255Z" />
<glyph unicode="B" glyph-name="B" horiz-adv-x="718" d="M74 3Q44 20 32 36T20 70T29 110T50 161Q53 167 62 185T82 229T107 281T132 334T152 377T164 402Q177 430 176 451T171 492T167 529T186 570Q189 573 199 584T220 607T242 630T254 644Q259 650 282 664T340
694T415 728T498 759T577 780T642 784T681 765T685 716Q670 662 637 621T566 548T496 491T446 444Q566 440 621 415T684 352T660 268T572 176T445 90T304 23T172 -10T74 3ZM153 245Q134 222 118 195T94 141T86 91T101 53T143 35T220 46Q326 70 404 107T534 184T610
265T634 335T605 382T525 392T397 351T220 245Q209 236 200 236T183 240T168 247T153 245ZM175 329Q175 326 175 320T174 308T174 295T175 286Q183 288 208 305T268 349T346 410T430 482T511 557T578 628T620 686T629 726Q585 732 537 721T442 687T355 637T288
581Q282 568 268 535T238 465T207 396T186 350Q186 348 181 340T175 329Z" />
<glyph unicode="C" glyph-name="C" horiz-adv-x="633" d="M107 11Q46 35 23 76T4 167T36 275T104 391T194 504T291 605T381 685T449 735Q485 757 509 757T547 742T567 702T573 648T567 591T553 541T535 510T516 509Q515 517 518 533T525 571T534 614T539 654T539
686T527 701Q492 710 444 685T343 612T239 502T145 373T76 245T46 135T66 62T153 45Q210 53 258 85T352 157T443 235T537 294Q555 301 565 289T571 260Q565 243 536 215T463 157T367 96T266 43T174 11T107 11Z" />
<glyph unicode="D" glyph-name="D" horiz-adv-x="823" d="M23 11Q18 26 25 37T46 57Q108 88 167 109T283 152T398 200T514 269Q645 345 715 411T808 530T814 624T755 690T653 723T527 722T400 683T293 601Q292 599 290 594T287 584T284 573T282 566Q252 494 226
443T176 344T131 243T91 113Q73 107 66 114T57 135T60 169T71 206T83 239T91 260Q99 283 116 319T152 396T188 473T214 533Q205 562 210 584T230 625T264 659T304 690Q361 732 427 755T561 780T698 763T826 698Q874 658 882 611T869 515T801 414T692 314T558 220T413
136T272 68T150 21T62 1T23 11Z" />
<glyph unicode="E" glyph-name="E" horiz-adv-x="746" d="M18 23Q12 28 21 34Q31 70 41 103T64 168T89 234T118 305Q123 314 117 323T102 342T90 362T97 384Q98 385 104 387T119 390T133 393T142 396Q145 398 153 406T164 418Q180 445 194 466T221 508T244 552T262
606Q265 618 257 621T237 628T219 637T218 662Q222 673 256 686T344 711T463 733T595 749T721 756T823 753T883 734T882 696Q873 694 864 695T844 700T823 705T802 707Q754 703 708 704T616 705T524 702T432 685Q400 676 375 654T328 597T283 517T232 418Q243 415
273 422T343 439T427 460T509 475T577 476T616 452Q617 450 617 446T616 441Q563 433 507 427T395 410T286 384T186 339Q148 272 118 201T65 57Q94 67 132 76T206 94T268 107T300 113Q385 126 463 133T627 136Q634 134 637 128T641 115T641 100T639 90Q530 96 423
82T209 45Q192 41 168 31T118 13T69 2T29 10Q25 12 22 15T18 23Z" />
<glyph unicode="F" glyph-name="F" horiz-adv-x="744" d="M18 11Q13 25 15 39T24 69T37 98T50 125Q55 135 66 160T90 214T114 269T130 305Q136 317 129 326T113 345T100 363T107 384Q114 391 125 393T148 396T170 402T186 418L300 634Q293 661 295 679T307 710T332
734T368 759Q471 775 570 786T775 792Q781 791 790 784T805 767T811 748T797 736Q796 736 791 737T780 741T769 745T763 747Q683 747 624 745T522 737T447 717T391 682T345 625T300 542Q289 521 280 502Q272 485 267 469T266 441Q322 431 379 443T495 472T611 502T729
509V486Q729 484 692 478T598 460T472 432T340 393T229 343T164 282Q132 217 103 149T50 11Q44 2 34 0T18 11Z" />
<glyph unicode="G" glyph-name="G" horiz-adv-x="608" d="M74 11Q30 44 14 92T4 196T34 314T93 435T173 547T264 641T356 706T440 733Q458 738 476 732T510 714T535 684T548 651T544 620T518 598Q515 596 509 596T502 598V677Q502 679 497 681T486 685T473 688T462
688Q363 663 293 604T175 464Q108 347 78 269T44 145T60 81T114 64T193 84T284 130T375 191T452 256T502 312T514 350Q498 353 479 349T446 339Q437 336 413 328T361 311T310 294T277 282Q263 277 254 284T241 303T240 325T254 339Q270 342 310 356T402 388T507
423T602 448T664 451T673 418Q664 408 640 384T589 332T538 281T503 248Q499 245 481 229T439 194T392 155T356 125Q343 114 323 97T279 63T227 30T173 5T121 -4T74 11Z" />
<glyph unicode="H" glyph-name="H" horiz-adv-x="709" d="M34 11Q24 26 26 59T39 133T66 220T98 307T127 382T147 430Q154 445 165 472T190 532T219 601T247 670T272 730T291 773Q313 780 320 772T324 743T310 695T285 634T255 567T227 503T208 447T204 407Q222
405 245 407T293 413T342 422T384 430Q475 445 529 473T620 544T684 649T746 791Q755 808 762 806T773 792T780 766T780 746Q779 743 774 733T763 712T752 691T746 678Q744 674 741 665T734 644T727 624T723 610Q728 609 736 601T746 587Q749 570 735 549T701 504T661
459T634 418Q593 318 564 218T520 11Q517 6 511 1T498 0Q496 22 501 60T516 144T536 237T556 323T572 389T577 418Q556 422 523 420T451 411T370 395T289 376T215 356T159 339Q142 301 131 256T109 164T83 76T46 0Q44 1 40 5T34 11Z" />
<glyph unicode="I" glyph-name="I" horiz-adv-x="220" d="M11 34Q9 41 10 53T14 79T20 102T23 113L249 701Q256 719 262 715T271 696T275 663T271 633Q239 557 207 481T145 327T89 171T45 11Q37 6 32 7T22 12T15 23T11 34Z" />
<glyph unicode="J" glyph-name="J" horiz-adv-x="622" d="M85 11Q75 16 62 31T36 65T15 105T3 145T5 176T29 192Q30 178 32 156T41 113T61 76T97 57Q162 52 209 78T292 151T351 256T393 378T427 498T458 599Q468 636 457 648T422 659T366 646T301 623T241 606T198
610Q177 624 184 637T217 663T284 687T373 708T470 726T563 741T638 751T684 757Q701 759 731 762T792 770T847 776T876 779Q895 780 923 781T979 782T1026 781T1046 779L1057 746Q1030 744 984 743T883 738T769 730T659 715T569 691T514 655Q506 632 495 587T468
485T432 363T386 237T329 124T261 38T180 -5T85 11Z" />
<glyph unicode="K" glyph-name="K" horiz-adv-x="795" d="M712 -92Q680 -41 649 1T583 82T512 162T430 247Q367 313 326 345T257 382T211 367T176 307T140 211T91 89Q81 68 69 41T34 -2Q17 -13 19 8T35 70T70 160T113 258T150 339T170 382Q194 439 219 486T268
580T316 674T360 780Q369 786 376 784T388 775T394 761T394 746Q388 734 376 709T350 656T324 603T306 564Q304 559 298 544T294 518Q323 512 366 523T460 555T565 603T669 658T759 708T825 744Q849 756 850 748T840 724T811 691T780 666Q770 660 750 650T708 629T668
609T644 598Q617 586 576 571T491 539T403 503T328 462Q320 456 314 450Q309 445 306 439T306 428Q321 419 352 392T422 328T504 246T589 155T664 65T718 -14T742 -74T723 -103Q721 -102 718 -98T712 -92Z" />
<glyph unicode="L" glyph-name="L" horiz-adv-x="701" d="M29 11Q13 22 16 44T30 89Q41 115 62 146Q94 207 119 255T167 347T209 430T249 514T292 608T341 722Q343 726 347 733T358 745T372 749T386 734Q396 714 388 679T358 599T308 501T247 394T184 287T130
188T94 105T85 45Q156 38 228 46T372 65T516 86T661 90Q674 92 683 81T684 57Q682 57 676 57T662 58T649 58T639 57Q583 52 508 40T353 16T194 -1T50 0Q49 0 41 4T29 11Z" />
<glyph unicode="M" glyph-name="M" horiz-adv-x="1014" d="M756 -67Q755 -66 755 -62T756 -55Q757 -53 760 -43T767 -22T774 -1T778 12Q807 105 829 178T871 322T910 466T954 636V658Q925 668 892 656T823 617T752 553T682 474T616 392T557 318T509 263T474 238Q465
236 452 240T439 250V318Q442 329 447 353T459 407T473 470T487 533T499 586T507 622Q512 645 516 667T518 713Q488 723 454 698T385 623T313 509T243 375T178 239T120 121T75 39T44 12Q30 16 33 45T53 118T94 219T148 336T209 456T268 567T317 656T349 713Q370
705 386 707T416 718T443 737T474 758Q510 780 531 777T561 755T571 704T566 633T553 556T536 483T523 426T518 396Q526 392 531 397T541 407Q544 412 555 426T582 458T614 498T646 537T673 570T688 589Q775 658 835 691T933 729T988 711T1006 649T994 552T959
430Q956 421 948 393T927 326T903 244T878 163T858 96T846 58Q846 57 844 45T838 17T827 -18T812 -52T792 -75T766 -78Q765 -78 761 -74T756 -67Z" />
<glyph unicode="N" glyph-name="N" horiz-adv-x="830" d="M11 23Q18 54 35 92T74 167T115 237T147 294Q153 306 165 330T193 386T226 452T259 517T287 573T306 610Q337 642 357 628T394 571T423 465T451 336T485 210T531 113Q544 107 562 126T603 181T649 267T697
370T745 479T788 580T822 662T845 711Q852 724 859 724T872 716T879 697T879 676Q847 589 819 519T762 384T699 252T622 102Q590 63 560 59T498 102Q465 160 446 212T414 314T389 417T362 531Q353 537 332 510T284 438T226 337T169 229T121 136T91 79Q86 70 79
57T64 31T51 9T45 0H11Q10 2 10 11T11 23Z" />
<glyph unicode="O" glyph-name="O" horiz-adv-x="527" d="M97 11Q47 32 31 69T20 150T44 238T85 316Q92 328 111 357T151 418T192 479T220 519Q232 596 268 641T349 704T443 712T527 669T579 579T577 448T498 280T322 79Q302 60 275 43T217 14T155 1T97 11ZM62
90Q72 45 100 34T166 38T249 89T339 173T425 279T496 392T543 499T554 587T518 644T424 655Q401 635 363 597T282 509T196 404T120 291T70 183T62 90Z" />
<glyph unicode="P" glyph-name="P" horiz-adv-x="608" d="M23 23Q15 39 22 67T42 125T71 183T94 229Q97 235 98 239T101 248T105 259T112 276Q118 289 131 316T162 378T197 451T232 523T262 585T282 626V649Q264 652 247 647T215 633T185 613T158 592Q144 595
142 605T144 626T155 646T169 660Q273 725 392 746T633 750Q707 713 734 672T754 587T710 502T620 422T502 350T374 293T253 256T158 242Q139 212 127 193T108 159T97 132T88 104T76 66T57 11L46 0Q42 2 34 10T23 23ZM192 299Q234 292 281 301T374 329T464 369T542
411Q626 458 667 502T718 585T710 654T658 702T578 726T486 719T397 676T327 592Q317 573 303 546T274 488T244 429T218 376T199 337T192 321V299Z" />
<glyph unicode="Q" glyph-name="Q" horiz-adv-x="593" d="M448 -164Q435 -148 426 -121T408 -66T387 -15T358 16Q352 20 337 15T300 2T254 -12T201 -18T148 -4T98 39Q68 79 67 131T85 239T136 352T205 462T277 556T335 626Q351 645 369 669T409 716T455 757T505
785Q513 788 520 782T533 768T543 751T550 740Q595 685 613 621T628 489T601 356T539 232Q536 226 521 206T488 164T456 121T437 96Q420 72 418 48T422 1T439 -46T459 -91T473 -134T471 -175Q463 -179 458 -174T448 -164ZM155 28Q197 0 230 3T288 29T330 89T358
166T374 242T380 299Q381 300 387 300T401 300T414 296T420 288V175Q454 200 483 237T533 317T568 405T584 491Q590 597 573 645T522 696T445 667T355 578T264 451T187 309T135 172T121 62Q122 60 127 55T137 45T147 34T155 28Z" />
<glyph unicode="R" glyph-name="R" horiz-adv-x="687" d="M18 11Q10 34 27 82T73 192T139 320T206 443T256 541T272 593Q260 597 247 590T220 576T193 568T170 582Q165 589 166 595T172 608T182 618T192 626Q306 701 408 743T592 800T729 806T806 770T809 699T724
601T537 486T234 360Q224 344 239 324T285 281T357 232T441 182T522 132T586 85T618 44T605 11Q604 10 593 18T564 40T528 70T491 100T461 124T446 136Q386 174 326 211T209 294Q190 300 171 274T134 208T99 122T66 43T39 -3T18 11ZM256 428Q278 421 315 429T398
456T493 502T588 558T670 618T729 673T751 717T727 740Q619 742 543 730T413 683T322 590T256 440V428Z" />
<glyph unicode="S" glyph-name="S" horiz-adv-x="614" d="M91 11Q86 13 68 22T33 43T11 68T23 90Q34 80 53 66T91 45Q146 42 198 44T299 57T395 89T486 146Q535 187 550 221T557 285T518 340T448 388T361 430T273 468T197 505T147 542Q143 559 164 582T222 629T307
678T405 723T503 757T587 774T642 769T655 735Q648 734 619 726T549 706T459 678T363 645T276 609T213 574T188 543T214 519Q360 475 443 426T561 326T587 226T544 135T451 61T331 10T204 -9T91 11Z" />
<glyph unicode="T" glyph-name="T" horiz-adv-x="558" d="M175 11Q169 36 175 68T194 134T220 197T243 248Q248 260 258 283T282 335T310 396T338 457T362 508T378 542Q361 545 330 539T260 524T182 504T108 490T49 488T18 509Q25 522 69 539T181 574T334 612T507
648T679 679T829 702T935 714T978 712Q981 704 979 693T966 678Q917 670 860 661T745 641T630 620T526 599Q495 593 466 563T410 489T358 390T311 279T269 171T234 80T206 18T186 0Q184 2 180 6T175 11Z" />
<glyph unicode="U" glyph-name="U" horiz-adv-x="608" d="M91 11Q55 40 42 86T33 188T54 305T94 426T144 540T193 635T231 700T249 723Q257 719 260 713T263 698T263 682T261 667Q260 665 255 656T249 644Q171 473 132 358T84 173T92 77T145 54T230 93T335 180T448
301T556 443T648 592T712 735Q714 737 717 741T723 746Q751 727 744 682T706 575T623 443T511 303T386 173T264 69T161 10T91 11Z" />
<glyph unicode="V" glyph-name="V" horiz-adv-x="560" d="M79 34Q61 62 49 113T31 226T26 354T38 480T66 583T113 644Q119 640 117 608T107 526T92 416T77 297T69 187T75 102T103 60T159 79Q241 144 318 222T464 373Q547 461 622 550T769 735Q778 748 787 749T804
743T814 725T814 701Q807 693 792 677T758 639T718 594T678 549T644 511T622 486Q604 466 575 431T510 352T433 261T350 170T266 90T189 33T125 11T79 34Z" />
<glyph unicode="W" glyph-name="W" horiz-adv-x="702" d="M46 11Q33 30 27 74T19 176T20 302T29 437T44 566T65 674T88 747T113 769Q115 767 119 763T125 757Q126 746 123 716T115 643T103 549T89 446T76 344T67 255T63 189T68 158L79 146Q94 153 110 182T142
254T176 348T211 448T246 542T280 614T313 649T343 635T371 555T396 396Q396 391 401 365T413 304T431 234T452 175T475 147T498 170Q501 178 511 204T536 265T565 339T595 413T619 474T634 509Q638 519 647 545T669 603T700 671T736 733T775 776T817 784Q819 784
823 780T827 773Q765 693 725 613T654 450T596 280T532 102Q517 63 501 57T468 68T437 121T407 199T381 289T360 374T346 441T339 474Q337 482 336 493T332 515Q330 527 328 542H317Q316 542 305 522T280 473T250 413T226 362Q221 352 211 316T185 232T153 136T117
52T80 2T46 11Z" />
<glyph unicode="X" glyph-name="X" horiz-adv-x="537" d="M464 34Q458 42 444 64T411 115T372 175T333 231T301 270T282 282Q220 224 170 162T68 34Q54 16 44 14T29 19T25 40T34 68Q46 88 68 113T117 167T169 225T215 283T245 337T249 384Q245 392 236 411T216
452T195 493T181 519Q179 522 173 533T158 558T144 584T136 599Q134 601 134 610T136 622Q146 630 160 616T189 576T221 519T253 461T282 418T306 407Q307 410 312 416T322 429T332 443T339 452Q346 461 359 486T389 535T429 576T475 587Q493 583 488 566T465 524T422
471T374 415T338 365T328 328Q334 312 351 285T390 224T434 156T475 90T503 35T509 0Q507 -1 503 -1T498 0Q496 1 492 5T482 14T471 25T464 34Z" />
<glyph unicode="Y" glyph-name="Y" horiz-adv-x="402" d="M56 -128Q44 -98 53 -65T82 4T129 80T180 160T220 246T236 335Q232 344 218 365T185 415T144 477T102 541T65 601T40 649T35 675T56 674Q70 661 91 633T134 569T180 496T224 429T259 382T281 369Q291 389
310 432T353 527T400 630T446 718T484 766T507 753Q511 738 498 701T461 611T405 494T337 360T266 222T199 89T145 -28T112 -117Q109 -127 103 -136T88 -150T72 -150T56 -128Z" />
<glyph unicode="Z" glyph-name="Z" horiz-adv-x="842" d="M29 11Q10 25 29 57T90 133T193 231T317 340T444 451T554 556T626 644T642 706Q640 706 619 702T565 692T492 680T411 670T335 663T276 664T247 678T258 706Q280 703 316 709T396 725T486 746T575 764T651
771T702 759T718 721T687 649Q635 567 573 504T443 383T304 270T164 146Q163 146 153 136T132 111T112 81T107 57Q118 54 158 62T255 84T380 114T516 146T645 171T750 181T814 168T819 125Q794 123 748 117T644 101T519 80T386 57T257 35T147 19T67 10T29 11Z"
/>
<glyph unicode="[" glyph-name="bracketleft" horiz-adv-x="474" d="M45 -68Q43 -67 39 -63T34 -56Q33 -44 34 -6T40 87T50 206T65 339T85 469T108 584T135 667T165 705Q167 706 178 707T203 710T228 713T243 716Q253 719 277 726T329 743T380 760T413 773Q420
775 432 773T452 765T460 753T446 738Q370 716 320 697T238 655T188 600T159 523T138 413T113 260Q106 236 101 196T92 112T89 27T90 -39L430 -22Q439 -37 428 -46T400 -60T367 -66T350 -68Q311 -73 280 -76T218 -80T154 -82T78 -79Q75 -78 62 -74T45 -68Z" />
<glyph unicode="\" glyph-name="backslash" horiz-adv-x="328" d="M271 11Q244 38 217 77T165 162T118 257T77 354T44 443T20 516Q30 551 45 540T79 488T123 385T176 257T240 128T316 23Q305 6 294 1T271 11Z" />
<glyph unicode="]" glyph-name="bracketright" horiz-adv-x="446" d="M67 -85Q61 -76 77 -67T123 -49T187 -33T253 -19T305 -10T327 -6Q326 29 328 84T333 205T340 342T348 478T352 599T351 689Q336 690 309 687T247 680T176 673T106 671T48 678T13 701Q7 709
33 719T103 737T198 750T296 752T373 737T408 701Q412 662 411 604T407 478T399 336T391 195T388 68T395 -29Q395 -32 396 -39T397 -53T394 -67T384 -74Q348 -70 301 -80T207 -100T123 -110T67 -85Z" />
<glyph unicode="^" glyph-name="asciicircum" horiz-adv-x="260" d="M213 374Q212 376 209 389T200 422T190 462T178 501T167 527T157 532Q154 527 148 512T134 478T115 439T93 404T69 383T43 385Q38 388 33 394T32 407Q36 416 47 438T72 486T96 534T111 566Q133
613 152 625T186 628T212 589T229 526T238 456T240 396T231 363T213 374Z" />
<glyph unicode="_" glyph-name="underscore" horiz-adv-x="627" d="M29 11Q27 12 23 16T18 23Q19 26 44 31T109 42T201 54T307 65T413 72T506 75T575 71T605 57Q606 55 606 46T605 34Q586 33 547 30T459 24T356 17T253 10T165 4T107 0Q95 -1 85 -1T67 -1T49 3T29 11Z" />
<glyph unicode="`" glyph-name="grave" horiz-adv-x="170" d="M118 428Q104 452 89 462T63 480T46 501T46 544Q68 546 90 531T130 495T160 452T173 416T161 402T118 428Z" />
<glyph unicode="a" glyph-name="a" horiz-adv-x="702" d="M57 23Q33 43 31 82T41 170T81 272T143 374T219 461T301 518T381 532T452 486Q472 461 476 436T475 384T459 330T438 274T421 217T418 158Q423 120 452 113T521 117T607 152T690 200T754 242T780 260Q808
266 811 257T801 229T757 187T691 141T612 101T530 77T455 77T396 113Q385 125 380 137T362 158Q347 144 326 122T281 77T229 34T172 4T114 -3T57 23ZM68 57Q77 25 108 27T180 58T265 134T344 242T397 368T407 498Q383 517 347 500T271 443T191 349T121 239T76
134T68 57Z" />
<glyph unicode="b" glyph-name="b" horiz-adv-x="548" d="M18 34Q16 35 16 39T18 45Q31 71 47 113T81 206T117 311T154 416T191 509T225 576T254 606T277 587Q286 564 282 540T267 490T240 438T211 385T190 333T186 282Q214 289 236 309T280 351T325 393T378 418Q425
427 457 414T504 372T519 305T499 224T442 142T346 71T209 23T29 11Q27 13 23 22T18 34ZM107 90Q106 86 106 74T107 57Q174 48 241 67T362 128T446 230T470 362Q469 364 465 368T458 373Q425 378 389 367T317 335T248 283T186 220T138 153T107 90Z" />
<glyph unicode="c" glyph-name="c" horiz-adv-x="559" d="M102 11Q51 28 35 64T25 145T60 241T124 338T202 421T279 477T342 492T374 452Q377 436 371 417T353 381T327 349T299 327T275 322T261 339Q273 359 288 379T317 418Q311 429 294 423T253 399T203 354T151
294T107 228T78 161T73 102T102 57Q135 54 178 63T266 88T355 120T436 153T498 176T532 181Q551 171 535 152T479 111T387 68T279 31T177 9T102 11Z" />
<glyph unicode="d" glyph-name="d" horiz-adv-x="544" d="M430 23Q392 49 375 87T350 170H339Q258 104 199 71T98 31T34 37T5 77T7 140T38 212T95 282T175 336T276 362T396 350L407 362L542 633Q569 629 574 609T574 565T558 519T542 486Q539 480 531 463T511
423T486 373T462 324T441 283T430 260Q412 223 413 182T418 102Q422 84 434 73T459 52T486 33T509 11Q505 -2 493 -2T468 2T444 14T430 23ZM57 68Q61 51 87 58T150 87T226 142T299 206T350 265T362 305Q331 322 293 322T218 309T146 271T88 214T55 145T57 68Z"
/>
<glyph unicode="e" glyph-name="e" horiz-adv-x="435" d="M85 11Q55 21 40 41T19 87T17 139T29 192Q59 224 96 265T176 347T263 421T356 474Q372 481 381 474T395 450T399 413T395 372T387 336T377 314Q365 300 331 281T254 240T170 193T101 146T69 99T97 57Q131
53 179 60T278 80T376 106T453 128L465 117Q443 88 393 64T285 25T172 5T85 11ZM324 393Q323 394 309 385T275 360T231 326T188 291T155 264T144 252Q160 249 185 256T238 278T291 309T330 344T345 374T324 393Z" />
<glyph unicode="f" glyph-name="f" horiz-adv-x="470" d="M40 23Q38 25 38 34T40 45L124 238H29Q26 238 24 242T20 251T17 262T18 271Q21 272 29 275T46 282T63 289T74 294Q77 295 90 300T119 310T148 321T164 328Q176 336 192 367T230 443T276 537T330 634T391
717T457 769T529 774T605 715Q612 705 615 694T616 670Q607 665 598 668T582 678T568 692T560 704Q493 715 454 699T389 649T344 569T300 474Q293 462 284 443T265 406T250 375T243 362V350Q243 346 268 344T324 338T385 327T424 305L413 294Q356 297 317 296T249
283T198 245T153 170Q145 153 132 127T106 75T84 31T74 11L62 0Q59 2 51 10T40 23Z" />
<glyph unicode="g" glyph-name="g" horiz-adv-x="362" d="M-136 -282Q-167 -271 -186 -249T-216 -202T-229 -150T-229 -104T-217 -74T-197 -68Q-198 -155 -177 -199T-121 -255T-43 -250T45 -198T130 -113T199 -10T239 96T238 192Q148 127 98 110T29 108T16 164T46
252T104 348T176 430T247 472T305 451Q328 420 334 368T331 251T300 117T244 -19T169 -143T77 -238T-26 -289T-136 -282ZM68 214Q67 211 67 203T66 186T66 169T68 158Q100 150 134 173T196 232T244 308T268 375T258 405T203 373Q191 362 171 343T131 302T93 257T68
214Z" />
<glyph unicode="h" glyph-name="h" horiz-adv-x="554" d="M11 23Q10 25 10 28T11 34Q15 42 24 61T44 102T65 143T79 170Q81 173 89 187T110 221T137 267T166 316T193 361T214 396Q234 429 260 474T315 565T370 654T421 725T460 762T482 750V718Q475 707 463 690T439
653T414 615T396 587Q387 573 367 542T322 472T271 391T224 311T191 248T181 214Q205 221 232 239T288 279T344 319T396 350Q420 347 438 332T464 294Q463 285 463 261T462 209T462 158T464 125Q465 114 474 98T493 65T512 36T520 23Q500 16 482 22T451 43T429
76T418 113Q417 122 415 146T412 198T409 249T407 282L384 294Q378 297 364 289T330 267T290 235T251 201T219 173T203 158Q195 150 174 130T130 86T86 41T57 11Q43 8 31 8T11 23Z" />
<glyph unicode="i" glyph-name="i" horiz-adv-x="254" d="M11 11Q52 143 85 220T141 329T172 349T171 293T131 173T45 0Q37 -3 26 -1T11 11ZM186 492Q184 497 184 510T186 526Q209 534 221 528T236 511T236 486T224 467T206 464T186 492Z" />
<glyph unicode="j" glyph-name="j" horiz-adv-x="186" d="M-243 -350Q-268 -339 -293 -320T-333 -278T-346 -230T-311 -180Q-304 -181 -301 -190T-297 -212T-294 -240T-287 -269T-271 -293T-243 -305Q-197 -312 -160 -291T-94 -229T-40 -136T4 -25T40 89T71 192T100
269T130 306Q143 301 143 267T131 181T98 64T49 -65T-13 -189T-85 -289T-163 -349T-243 -350ZM130 475Q116 493 122 503T139 513T160 498T164 452Q159 449 153 452T142 460T134 470T130 475Z" />
<glyph unicode="k" glyph-name="k" horiz-adv-x="729" d="M424 34Q360 122 321 179T257 265T216 292T182 262T136 175T62 34Q56 23 50 21T37 20T26 30T18 45Q15 55 25 83T54 152T100 242T156 344T215 447T270 541T316 618T345 667Q352 672 359 668T372 656T380
638T378 622L288 464V441Q309 436 340 444T408 469T483 506T555 549T617 590T661 622Q674 629 684 626T700 615T705 596T695 576Q667 547 629 527T547 490T460 459T374 427T299 389T243 339Q256 328 277 305T324 252T376 191T422 128T456 73T470 34V11Q462 7 456
8T443 14T433 23T424 34Z" />
<glyph unicode="l" glyph-name="l" horiz-adv-x="328" d="M57 11Q28 32 20 64T17 133T38 211T72 288T108 356T136 407Q139 413 150 436T175 486T199 536T214 566Q217 571 222 585T235 617T250 649T268 672T287 674T306 644Q302 634 287 604T250 532T204 439T154
336T109 235T75 145T59 78T68 45Q82 38 104 39T151 45T198 53T238 57Q242 48 232 40T204 25T163 14T118 7T80 6T57 11Z" />
<glyph unicode="m" glyph-name="m" horiz-adv-x="825" d="M622 23Q611 36 610 52T611 85T621 117T634 146Q638 156 650 182T677 238T705 292T723 328V350Q713 355 682 337T610 286T523 213T437 137T366 72T328 34Q306 27 300 43T296 89T308 155T326 224T343 280T350
305Q330 312 308 300T263 265T217 210T171 147T127 87T87 40T52 19T23 34Q22 35 22 39T23 45Q28 55 38 76T62 125T90 181T118 237T142 285T159 316Q164 326 173 341T191 371T207 396T214 407H238Q245 384 236 364T215 325T194 288T193 248Q279 324 325 360T391
401T409 386T401 332T386 255T384 170H396Q402 174 416 185T446 209T477 233T498 248Q509 257 530 273T572 305T611 334T634 350Q638 353 651 362T681 383T713 403T735 418Q750 428 763 427T784 418T795 395T791 362Q767 317 744 274T701 188T669 98T655 0Q650
-3 645 0T634 8T626 18T622 23Z" />
<glyph unicode="n" glyph-name="n" horiz-adv-x="576" d="M390 11Q387 44 395 76T418 140T449 203T478 265T495 325T491 384Q466 393 434 380T365 341T291 279T216 207T146 137T87 83T42 56T18 68Q17 69 29 93T60 155T101 235T144 315T179 379T198 407Q219 393
219 377T214 343T201 307T198 271Q214 282 242 301T304 342T374 383T443 414T500 427T538 412T546 360T514 260Q511 253 500 227T475 170T450 113T435 79Q434 75 433 65T429 42T423 18T413 0Q407 -6 399 1T390 11Z" />
<glyph unicode="o" glyph-name="o" horiz-adv-x="430" d="M79 11Q37 28 27 62T27 137T65 223T125 305T191 367T249 396Q311 404 346 388T395 340T402 268T376 184T323 103T251 38T167 3T79 11ZM68 68Q76 36 102 33T162 45T235 93T304 162T356 236T377 302T350
344T261 350Q247 337 225 319T180 278T133 231T93 178T69 123T68 68Z" />
<glyph unicode="p" glyph-name="p" horiz-adv-x="542" d="M-90 -350Q-99 -294 -85 -237T-47 -122T1 -9T34 102Q34 104 42 114T61 135T80 157T90 170Q106 205 122 234T148 292T156 347T136 407Q134 409 134 413T136 418Q165 455 203 480T284 520T373 540T464 542Q502
510 512 470T514 386T479 298T420 216T351 148T282 102Q253 88 240 84T213 78T182 76T125 68Q108 65 97 53T78 25T66 -7T57 -34Q39 -78 25 -115T-3 -189T-30 -265T-57 -350Q-59 -355 -64 -358T-74 -362T-84 -361T-90 -350ZM136 113Q182 104 225 118T307 161T375
232T427 320T458 412T464 498Q450 510 431 510T396 509Q342 502 311 482T261 430T227 359T193 271Q189 264 181 247T164 210T147 172T136 147V113Z" />
<glyph unicode="q" glyph-name="q" horiz-adv-x="396" d="M62 -350Q33 -322 29 -282T32 -200T56 -117T85 -45Q106 5 111 34T113 80T97 102T72 110T45 115T23 125T15 152T29 204Q33 215 47 235T83 280T132 331T187 380T244 418T297 437T340 428T368 384Q370 376
368 362T362 333T353 303T345 282Q335 254 305 210T237 111T162 -2T99 -119T67 -227T85 -316Q91 -325 117 -306T180 -255T259 -186T340 -120T407 -81T446 -90Q448 -92 448 -96T446 -102Q431 -113 402 -140T335 -201T257 -267T179 -325T110 -358T62 -350ZM74 181Q73
178 73 172T72 158T72 145T74 136Q100 127 126 140T176 179T224 234T267 290T304 330T334 339Q343 377 329 384T287 379T224 339T157 282T102 224T74 181Z" />
<glyph unicode="r" glyph-name="r" horiz-adv-x="486" d="M29 11Q27 12 29 34T37 91T50 166T67 244T86 310T107 350Q114 357 121 351T135 335T149 318T164 316Q192 355 225 390T300 452Q304 455 322 461T363 474T410 485T452 490T476 481T470 452Q410 451 358
417T262 333T182 225T120 116T76 33T50 0Q49 0 41 4T29 11Z" />
<glyph unicode="s" glyph-name="s" horiz-adv-x="396" d="M29 11Q17 19 28 32T65 61T125 94T190 126T246 152T277 170Q310 198 311 216T295 246T245 264T178 276T112 288T64 304T53 330T97 373Q111 383 138 402T196 441T259 477T311 498Q322 500 333 496T352 485T359
468T345 452Q288 420 236 392T130 328Q127 320 131 314T142 305Q248 294 301 274T369 230T366 179T313 126T231 77T143 38T68 14T29 11Z" />
<glyph unicode="t" glyph-name="t" horiz-adv-x="430" d="M91 11Q90 13 90 22T91 34Q94 45 102 72T119 130T136 188T147 226Q151 240 156 258T158 294Q143 296 121 291T78 282T38 281T11 305Q23 330 47 337T99 348T152 357T193 384Q202 410 214 447T241 526T271
607T306 678Q317 685 324 679T334 662T339 638T339 622Q333 596 319 567T292 507T272 447T271 390H486Q487 390 491 384T498 373Q503 359 487 354T444 348T383 346T317 341T260 326T226 294Q200 227 178 160T136 23Q134 20 128 14T115 3T102 -1T91 11Z" />
<glyph unicode="u" glyph-name="u" horiz-adv-x="576" d="M430 11Q403 22 387 40T362 81T348 129T339 181Q330 187 307 170T254 126T190 73T123 32T65 27T23 79Q18 94 26 122T52 185T91 255T135 323T175 377T204 407Q227 396 225 374T207 322T167 260T121 195T86
132T79 79Q101 70 133 88T203 140T280 215T354 297T414 367T452 407Q473 397 473 375T462 323T434 261T405 194T391 131T407 79L441 39H542Q549 39 545 33T534 20T518 7T509 0Q483 -5 467 -2T430 11Z" />
<glyph unicode="v" glyph-name="v" horiz-adv-x="531" d="M57 23Q36 35 27 61T17 120T21 189T33 259T47 320T57 362Q62 365 67 362T78 354T87 344T91 339Q94 304 92 271T86 204T80 137T79 68Q87 53 112 67T173 114T251 191T335 280T414 362T476 421T512 439T509
396Q485 375 452 333T380 243T299 146T215 64T132 16T57 23Z" />
<glyph unicode="w" glyph-name="w" horiz-adv-x="746" d="M334 11Q314 26 303 50T287 101T279 155T277 203Q275 205 272 205T266 203Q241 185 218 160T173 109T129 58T85 11Q71 6 56 8T31 18T16 38T18 68Q37 129 59 197T107 328Q116 350 126 352T145 344T156 317T153
282Q150 274 142 254T125 210T108 165T97 136V102Q128 130 149 152T188 196T227 244T277 305Q300 332 313 334T332 324T340 285T341 230T338 171T336 120T341 89T356 90Q368 109 391 145T443 224T506 312T577 392T649 448T718 464Q719 460 707 442T674 400T629
347T581 292T539 245T514 214Q511 210 502 197T480 165T453 125T425 85T403 52T390 34Q381 21 375 13T364 2T351 1T334 11Z" />
<glyph unicode="x" glyph-name="x" horiz-adv-x="503" d="M18 23Q9 37 22 55T60 93T116 136T175 180T219 222T232 260Q231 264 226 282T215 322T204 361T198 384V407Q211 417 223 401T247 361T269 312T288 282Q306 294 326 310T367 344T405 378T435 407Q456 418
464 417T473 406T468 384T455 359T442 337T435 328Q382 280 354 247T316 190T308 153T321 130T346 113T370 98T384 77T378 45Q351 38 336 47T311 74T295 111T279 145T254 164T211 155T143 105T40 0Q37 2 29 11T18 23Z" />
<glyph unicode="y" glyph-name="y" horiz-adv-x="441" d="M-170 -384Q-179 -370 -170 -341T-143 -280T-107 -221T-79 -181Q-71 -170 -55 -148T-17 -98T27 -39T72 19T110 69T135 102Q143 111 135 130T111 174T74 230T37 292T12 355T11 413Q22 421 35 404T62 356T93
289T124 223T153 176T181 169Q207 188 232 217T280 279T323 341T362 395Q369 404 375 407T396 406Q407 402 392 371T345 291T269 180T175 50T76 -85T-15 -209T-86 -310T-125 -374Q-129 -383 -133 -392T-146 -407Q-148 -406 -151 -403T-158 -397T-165 -390T-170
-384Z" />
<glyph unicode="z" glyph-name="z" horiz-adv-x="566" d="M40 11Q21 22 26 42T55 87T113 142T190 204T275 268T355 332T420 391T458 441Q456 454 438 455T395 454T342 444T292 438T259 444T254 474Q255 476 275 482T327 496T394 508T461 513T513 503T536 473T515
417T435 328Q432 324 419 312T389 286T357 258T334 238Q327 232 309 219T269 188T222 151T179 115T149 86T142 68Q184 64 226 68T311 79T395 89T481 90Q491 84 500 72T503 45Q477 43 439 37T356 22T264 7T175 -4T97 -5T40 11Z" />
<glyph unicode="{" glyph-name="braceleft" horiz-adv-x="271" d="M155 -47Q122 -35 90 -6T38 61T17 138T42 212Q45 216 56 229T81 258T106 286T121 302Q133 317 133 328T128 347T112 362T94 376T83 393T87 415Q88 418 95 426T110 443T125 461T133 472Q144 498
138 523T120 574T98 625T89 674T113 721T189 766Q201 770 209 760T222 743Q213 732 194 720T158 692T132 659T133 618L189 506Q189 505 188 490T185 454T184 410T189 370Q196 342 192 322T176 287T150 260T120 235T93 206T76 167Q66 117 78 86T115 35T176 2T246
-26Q265 -34 264 -42T247 -54T206 -58T155 -47Z" />
<glyph unicode="|" glyph-name="bar" horiz-adv-x="113" d="M34 11Q32 13 28 22T23 34Q23 47 23 79T22 147T22 215T23 260Q23 268 24 292T26 349T28 418T31 487T33 544T34 576Q34 578 35 588T39 612T45 639T54 661T65 669T79 655Q82 575 80 495T75 334T69 173T68
11Q61 -2 52 -1T34 11Z" />
<glyph unicode="}" glyph-name="braceright" horiz-adv-x="300" d="M66 -57Q63 -49 75 -37T106 -11T149 22T190 61T219 106T224 158Q220 180 206 198T175 234T140 267T110 301T93 339T99 384Q77 430 72 453T71 486T88 501T113 514T135 541T145 598Q145 618 134
637T105 673T69 706T35 739T12 770T10 802H42Q45 802 59 789T92 758T128 721T156 689Q181 657 187 630T188 577T167 526T134 474Q131 469 127 461T122 451L178 394Q191 381 187 373T174 357T158 343T156 327Q168 309 185 291T220 252T252 211T269 168Q273 142 262
109T231 43T186 -18T136 -62T93 -79T66 -57Z" />
<glyph unicode="~" glyph-name="asciitilde" horiz-adv-x="531" d="M249 11Q222 27 210 55T190 111T178 156T161 171T124 134T57 23Q39 17 35 30T35 68T54 121T86 176T126 218T167 234T206 207T238 125Q247 82 263 66T301 51T348 67T400 101T455 139T509 170Q515
161 504 142T470 102T417 59T356 24T297 4T249 11Z" />
<glyph unicode="&#xa0;" glyph-name="space" horiz-adv-x="538" />
<glyph unicode="&#xa1;" glyph-name="exclamdown" horiz-adv-x="266" d="M16 653Q8 643 14 630T33 609T57 600T73 613Q77 626 74 640T62 664T41 672T16 653ZM73 400Q71 395 75 373T86 320T106 252T132 176T161 103T190 42T218 3T243 -6Q244 -2 240 23T226 86T205
169T179 257T150 337T121 397T95 422T73 400Z" />
<glyph unicode="&#xa2;" glyph-name="cent" horiz-adv-x="559" d="M102 11Q51 28 35 64T25 145T60 241T124 338T202 421T279 477T342 492T374 452Q377 436 371 417T353 381T327 349T299 327T275 322T261 339Q273 359 288 379T317 418Q311 429 294 423T253 399T203
354T151 294T107 228T78 161T73 102T102 57Q135 54 178 63T266 88T355 120T436 153T498 176T532 181Q551 171 535 152T479 111T387 68T279 31T177 9T102 11ZM231 -44Q229 -42 225 -34T219 -22Q219 -14 217 6T211 53T203 109T196 164T190 210T189 239Q189 247 191
272T195 332T200 406T205 480T209 540T211 574Q211 576 212 586T216 610T223 637T232 659T243 667T257 653Q246 572 238 484T228 305T235 125T265 -44Q257 -58 248 -57T231 -44Z" />
<glyph unicode="&#xa3;" glyph-name="sterling" horiz-adv-x="332" d="M100 265Q92 266 86 266T72 268Q65 231 62 197T58 133T59 80T68 45Q79 50 111 57T186 66T281 59T384 22Q397 15 380 15T329 16T251 23T167 28T95 26T57 11Q34 59 29 128T32 274Q6 278 -4 282T-12
291T3 298T36 303Q44 356 58 407T92 501T137 578T191 628T253 643T322 615L293 562Q256 598 223 587T163 536T114 434T79 306Q109 307 141 306T202 302T252 292T281 275Q271 275 245 274T191 270T136 267T100 265Z" />
<glyph unicode="&#xa4;" glyph-name="currency" horiz-adv-x="594" d="M130 112Q114 115 113 142T120 204T146 275T186 330Q172 348 152 364T115 399T86 437T79 482Q97 483 117 469T155 433T187 389T206 349Q221 375 247 389T302 408T358 407T403 386Q463 428
499 447T552 468T566 460T546 432T496 396T422 361Q429 343 428 322T420 279T400 234T372 190Q389 181 407 163T439 125T463 85T474 53T466 41T435 57Q426 72 413 85T386 110T362 134T346 162Q337 144 316 131T268 109T216 99T172 101Q163 91 148 78T117 51T85
27T62 14T53 18T70 46L130 112ZM147 149Q148 143 152 139T160 133T167 130T172 128Q190 117 216 122T269 144T323 185T370 236T400 289T406 335T378 366T309 374Q303 375 288 366T253 339T212 299T175 251T151 199T147 149Z" />
<glyph unicode="&#xa5;" glyph-name="yen" horiz-adv-x="402" d="M75 248Q80 258 95 266T132 280T180 290T234 295Q235 305 235 315T236 335Q232 344 218 365T185 415T144 477T102 541T65 601T40 649T35 675T56 674Q70 661 91 633T134 569T180 496T224 429T259
382T281 369Q291 389 310 432T353 527T400 630T446 718T484 766T507 753Q496 735 476 690T429 582T372 444T314 290Q364 284 380 260Q375 255 353 250T297 240Q293 229 290 219T283 198H390Q396 195 400 189T402 174Q375 171 341 166T269 154Q240 60 223 -17T211
-142Q208 -152 202 -161T187 -174T171 -174T155 -152Q143 -124 144 -90T153 -19T175 59T202 142Q159 134 123 128T63 118Q45 115 38 119T18 141Q11 151 32 160T86 176T155 187T216 195Q218 205 220 214T225 233Q198 231 173 231T126 231T92 237T75 248Z" />
<glyph unicode="&#xa6;" glyph-name="brokenbar" horiz-adv-x="113" d="M28 403Q29 429 30 457T32 509T33 552T34 576Q34 578 35 588T39 612T45 639T54 661T65 669T79 655Q81 597 81 532T78 407L28 403ZM80 352Q78 301 76 261T72 182T69 103T68 11Q61 -2 52 -1T34
11Q32 13 28 22T23 34Q23 47 23 79T22 147T22 215T23 260Q23 266 23 270T25 282T26 306T28 349L80 352Z" />
<glyph unicode="&#xa7;" glyph-name="section" horiz-adv-x="604" d="M74 19Q62 27 74 40T111 69T171 102T236 134T292 160T322 177Q345 196 352 211T357 236T339 254T306 267L212 272Q179 277 151 285T108 306T100 337T142 380Q155 389 178 405T230 440T286 474T338
499Q302 505 269 510T217 526T203 553T247 597Q261 607 288 626T347 665T410 701T462 722Q472 724 484 720T503 709T510 693T496 677Q439 645 386 617T281 552Q277 544 282 539T293 530Q389 519 442 502T514 463T524 417T488 369T422 323T342 282Q392 265 408 244T418
201T385 154T322 109T245 69T169 38T107 20T74 19ZM428 394Q460 422 463 438T454 462T423 468T390 459Q334 428 282 400T176 335Q171 324 179 319T200 310T226 306T246 304Q272 318 301 332T357 359T403 380T428 394Z" />
<glyph unicode="&#xa8;" glyph-name="dieresis" horiz-adv-x="478" d="M110 426Q96 447 102 468T125 500T160 510T190 482Q196 467 188 451T166 424T136 412T110 426ZM254 431Q239 452 246 473T269 505T304 515T333 487Q339 472 331 456T309 429T280 417T254 431Z" />
<glyph unicode="&#xa9;" glyph-name="copyright" horiz-adv-x="682" d="M99 22Q48 58 27 116T8 244T36 388T101 529T196 650T313 733T442 762T578 717Q629 686 648 632T661 511T628 372T557 232T459 110T344 22T221 -13T99 22ZM236 186Q199 199 187 225T180 285T205
356T252 428T309 490T366 532T412 544T436 514Q439 496 428 474T402 437T371 417T352 430Q362 445 372 459T394 488Q389 499 369 488T323 453T273 396T231 330T214 266T236 219Q265 217 304 227T382 251T458 281T519 306Q541 345 557 384T581 459T590 526T581 581Q566
650 527 674T437 689T329 641T219 548T126 427T66 294T56 167T114 62Q157 30 206 33T304 65T398 140T482 243Q452 229 417 216T347 195T283 183T236 186Z" />
<glyph unicode="&#xaa;" glyph-name="ordfeminine" horiz-adv-x="429" d="M35 199Q20 211 19 234T25 287T49 349T87 411T133 463T183 498T232 506T275 478Q287 463 289 448T289 416T280 384T267 350T256 316T254 280Q257 257 275 253T317 255T369 276T420 305T459
331T475 342Q492 345 494 340T487 323T461 298T421 270T373 246T323 231T277 231T241 253Q234 260 231 267T220 280Q211 272 199 259T171 232T139 206T105 187T69 183T35 199ZM41 219Q47 200 66 201T109 220T161 266T209 331T242 407T248 485Q233 497 211 487T165
452T116 395T74 329T46 266T41 219Z" />
<glyph unicode="&#xab;" glyph-name="guillemotleft" horiz-adv-x="682" d="M396 11Q315 65 233 118T79 238Q63 252 47 266T21 296T12 327T34 362Q43 370 61 386T103 424T153 469T202 513T243 551T271 576Q276 578 285 576T301 570T311 558T306 542L91 328Q80
317 93 299T127 263T168 231T193 214Q206 205 239 183T311 135T382 88T430 57Q440 44 442 32T439 11T422 2T396 11ZM594 38Q514 92 432 145T278 265Q262 279 246 293T220 323T212 354T234 388Q243 396 261 413T303 451T352 496T401 540T442 578T470 603Q475 605
484 603T500 597T510 585T505 570L290 354Q283 347 287 337T301 314T326 290T354 268T378 251T391 242Q400 236 418 224T460 195T509 162T558 129T600 101T628 83Q638 70 640 58T637 38T621 29T594 38Z" />
<glyph unicode="&#xac;" glyph-name="logicalnot" horiz-adv-x="515" d="M470 165Q459 144 448 153T428 188T415 252T412 327Q397 328 369 325T307 318T236 311T166 309T108 316T73 338Q67 346 93 356T163 375T258 388T356 390T434 375T469 338L470 165Z" />
<glyph unicode="&#xae;" glyph-name="registered" horiz-adv-x="682" d="M99 22Q48 58 27 116T8 244T36 388T101 529T196 650T313 733T442 762T578 717Q629 686 648 632T661 511T628 372T557 232T459 110T344 22T221 -13T99 22ZM114 62Q154 33 197 33T285 55T372
114T452 201T518 303T566 408T589 504T581 581Q566 650 527 674T437 689T329 641T219 548T126 427T66 294T56 167T114 62ZM136 159Q132 169 141 192T167 246T204 310T241 371T269 420T278 445Q272 447 265 444T252 438T239 435T227 440Q222 446 228 451T238 459Q320
512 389 533T503 553T563 529T554 473T458 394T259 305Q255 297 274 285T321 260T381 233T433 205T457 179T432 159Q431 159 417 165T386 179T354 195T338 203Q296 234 268 240T221 239T191 215T172 183T155 160T136 159ZM262 353Q346 375 396 400T471 448T496
489T483 517T442 525T385 505T321 450T262 353Z" />
<glyph unicode="&#xb0;" glyph-name="degree" horiz-adv-x="328" d="M66 425Q41 435 35 452T34 490T56 531T91 570T131 599T166 613Q216 619 238 604T260 563T244 508T200 456T137 423T66 425ZM73 470Q78 451 92 447T126 449T165 468T201 498T226 531T234 560T214
579T159 580Q146 569 129 560T98 538T75 510T73 470Z" />
<glyph unicode="&#xb1;" glyph-name="plusminus" horiz-adv-x="380" d="M45 42Q41 46 50 51T78 62T122 73T174 84Q166 113 164 143T158 199H45L22 227Q24 229 33 233T45 238Q51 239 67 242T101 250T135 257T158 262L180 419Q181 425 186 428T198 432T209 429T214
419V273Q220 273 234 272T265 268T296 265T316 262Q318 261 327 257T338 250Q327 233 310 228T273 220T238 213T214 194Q201 168 206 142T214 90Q247 94 276 95T324 94T345 81T329 56Q275 50 232 40T153 24T91 20T45 42Z" />
<glyph unicode="&#xb2;" glyph-name="twosuperior" horiz-adv-x="309" d="M21 139Q14 144 15 148T21 157Q39 175 58 191T94 224T126 259T155 299Q161 310 160 315T153 322T137 322T118 317T98 311T83 306T76 305T82 312Q91 320 104 326T130 336T156 338T176 332T184
316T176 290Q166 271 150 255T117 223T85 192T60 157Q67 155 83 158T121 168T164 180T207 190T243 193T266 184Q267 183 267 180T266 175Q251 177 231 173T187 163T139 150T92 138T52 133T21 139Z" />
<glyph unicode="&#xb3;" glyph-name="threesuperior" horiz-adv-x="226" d="M13 201Q12 203 11 206T9 211T9 216T13 220Q17 221 22 221T32 218T42 215T52 213Q60 214 75 223T107 247T140 279T166 312T176 343T164 365Q157 366 146 363T123 354T98 344T77 338T63
340T60 358Q65 366 73 379T91 406T108 437T121 467Q121 467 115 465T101 460T83 455T66 453T55 456T56 467Q57 469 64 475T81 488T104 501T126 511T144 511T151 497T144 464T116 407V389Q147 392 164 385T187 364T191 331T177 292T149 253T111 220T66 199T17 195Q16
195 15 197T13 201Z" />
<glyph unicode="&#xb4;" glyph-name="acute" horiz-adv-x="233" d="M85 430Q52 406 39 406T26 420T41 458T75 503T121 540T170 554Q176 524 170 510T150 487T118 466T85 430Z" />
<glyph unicode="&#xb5;" glyph-name="mu" horiz-adv-x="401" d="M197 -192Q181 -102 159 -26T113 114T69 228T36 316T23 377T38 412Q47 402 67 371T115 301T172 218T232 142T287 90T330 80Q335 103 325 133T298 197T262 263T231 326T217 378T233 412Q240 405 254
382T286 328T320 259T351 188T371 124T374 80Q363 35 342 27T296 32T245 72T194 126T152 170T127 182Q124 165 134 133T161 62T195 -18T225 -95T239 -156T228 -189L197 -192Z" />
<glyph unicode="&#xb6;" glyph-name="paragraph" horiz-adv-x="559" d="M191 -38Q190 -37 190 -34T191 -28Q197 -16 213 13T247 74T281 135T304 176Q314 195 323 211T345 252T377 317T429 424Q382 419 359 428Q349 399 327 350T278 245T220 134T163 36T116 -28T86
-38Q83 -21 88 0T103 44T123 88T142 125Q148 136 162 165T192 227T223 292T243 339Q217 348 190 344T139 338T99 344T80 386Q76 444 117 479T224 525T372 526T530 481Q524 467 509 434T472 356T425 260T372 159T317 66T266 -7T222 -46T191 -38Z" />
<glyph unicode="&#xb7;" glyph-name="middot" horiz-adv-x="322" d="M156 218Q143 238 143 259T152 297T175 326T206 340T237 334T261 300Q269 278 259 255T230 216T190 199T156 218Z" />
<glyph unicode="&#xb8;" glyph-name="cedilla" horiz-adv-x="242" d="M52 -158Q47 -144 61 -139T96 -130T137 -123T163 -106Q169 -93 165 -88T151 -79T129 -75T105 -71T87 -62T82 -42Q78 -20 79 -1T84 26T96 27T113 -11Q119 -30 140 -37T181 -49T215 -63T219 -94Q217
-102 200 -119T159 -151T109 -173T63 -169Q61 -168 57 -164T52 -158Z" />
<glyph unicode="&#xb9;" glyph-name="onesuperior" horiz-adv-x="198" d="M13 165Q3 174 4 188T11 219T25 249T37 268Q39 273 45 286T61 318T80 355T99 393T114 424T123 443Q125 446 127 453T133 469T141 485T150 497T163 499T178 487Q179 486 173 473T157 436T134
383T107 324T80 264T55 211T37 174T28 159Q27 158 21 160T13 165Z" />
<glyph unicode="&#xba;" glyph-name="ordmasculine" horiz-adv-x="328" d="M66 425Q41 435 35 452T34 490T56 531T91 570T131 599T166 613Q216 619 238 604T260 563T244 508T200 456T137 423T66 425ZM73 470Q78 451 92 447T126 449T165 468T201 498T226 531T234
560T214 579T159 580Q146 569 129 560T98 538T75 510T73 470Z" />
<glyph unicode="&#xbb;" glyph-name="guillemotright" horiz-adv-x="589" d="M39 23Q29 42 43 66T83 117T141 173T200 230T243 286T254 339Q253 341 235 355T192 391T136 436T82 484T42 526T28 554Q29 558 37 566T50 576Q71 560 104 539T173 493T240 441T291 384T311
323T287 260Q279 250 264 232T231 191T193 146T156 103T125 67T107 45Q105 42 99 36T85 22T72 9T62 0Q59 2 50 10T39 23ZM258 29Q248 48 261 72T301 123T359 178T419 236T462 292T472 345Q471 347 454 361T410 396T355 441T300 489T260 531T246 559Q246 564 255
572T269 582Q290 565 323 544T391 499T458 446T509 389T530 328T506 266Q498 256 483 238T449 198T411 152T374 108T344 72T326 50Q323 47 317 41T303 28T289 15T279 6Q276 8 268 16T258 29Z" />
<glyph unicode="&#xbc;" glyph-name="onequarter" horiz-adv-x="674" d="M40 168Q31 176 32 188T38 215T51 241T61 258Q63 261 69 273T83 300T99 333T116 365T130 392T137 408Q139 411 141 417T146 431T153 445T161 455T172 457T186 447Q187 446 182 434T167 402T147
357T124 305T99 254T78 208T62 176T54 163Q52 163 47 164T40 168ZM128 31Q123 68 131 121T155 233T193 356T239 478T284 589T322 678Q331 684 337 681T346 669T350 650T350 633Q345 620 333 589T308 522T283 455T267 410Q263 401 256 377T239 326T222 276T212 243Q207
229 202 201T189 141T173 79T156 31Q153 28 149 25T141 20T133 20T128 31ZM320 23Q316 39 322 55T337 87T351 118T352 149Q341 151 326 148T295 140T263 131T231 125T204 125T182 139Q174 148 175 160T184 185T203 214T225 243T246 272T260 297Q274 300 280 298T287
289T285 275T277 259T268 244T260 234Q258 230 252 220T238 200T224 179T214 165V155Q228 153 244 155T275 160T305 168T333 176Q361 182 378 195T407 225T426 264T445 308Q458 311 461 305T463 287T454 260T441 231T429 206T425 192Q435 194 444 192T458 181Q454
175 447 173T430 168T413 164T399 155Q387 139 378 123T362 88T350 52T340 17Q336 16 329 17T320 23Z" />
<glyph unicode="&#xbd;" glyph-name="onehalf" horiz-adv-x="569" d="M8 168Q1 175 2 188T7 216T17 243T25 261Q27 266 31 278T42 306T56 340T69 375T81 403T87 420Q88 423 90 430T94 444T100 459T107 469T116 472T127 460Q127 460 123 447T112 413T95 366T76
312T56 257T39 209T26 176T19 162Q18 161 14 163T8 168ZM65 263Q60 302 67 356T90 471T127 598T171 723T214 837T250 928Q259 936 264 932T273 919T277 900T277 883Q272 870 261 838T238 769T214 700T198 654Q194 643 187 619T171 567T155 515T145 481Q141 467
136 438T123 376T108 312T92 263Q89 260 85 257T78 252T70 252T65 263ZM157 46Q149 51 150 57T157 70Q179 93 200 114T241 158T279 205T311 257Q319 272 318 279T309 288T291 288T269 282T246 274T229 267T221 266T228 275Q238 286 253 294T283 306T313 309T336
301T345 281T336 246Q324 221 306 200T269 157T231 115T202 70Q211 67 230 71T273 84T322 100T371 113T413 117T439 105Q440 104 440 99T439 93Q422 96 399 91T348 78T293 60T240 44T193 37T157 46Z" />
<glyph unicode="&#xbe;" glyph-name="threequarters" horiz-adv-x="674" d="M15 197Q13 199 12 202T10 207T10 212T15 217Q19 218 24 218T36 215T47 211T58 210Q67 211 84 221T121 247T158 282T188 319T200 352T185 376Q178 378 166 374T139 365T111 354T87 347T71
349T68 369Q74 378 83 392T103 422T123 456T137 489Q137 489 130 487T114 481T93 476T74 473T63 476T63 489Q64 491 72 497T92 511T117 526T143 537T163 537T171 522T163 486T132 423V403Q166 406 185 398T212 375T216 339T200 296T169 253T125 217T74 194T19 189Q18
190 17 192T15 197ZM139 17Q135 56 141 111T161 228T193 355T231 482T268 597T300 689Q308 696 312 692T320 679T323 660T323 643Q319 629 309 597T289 527T268 458T254 411Q251 401 245 376T231 324T217 272T208 237Q205 223 200 194T189 132T176 67T162 17Q160
14 157 11T150 6T143 6T139 17ZM327 21Q323 41 329 61T342 102T356 141T358 180Q347 182 333 178T303 169T272 157T242 149T215 150T195 167Q188 179 189 193T198 225T215 262T236 299T256 334T270 366Q283 369 288 366T295 356T293 338T286 318T277 300T270 286Q267
281 261 269T248 244T235 218T226 200V187Q239 185 254 187T284 194T313 204T339 213Q366 221 382 237T409 276T428 324T446 379Q459 383 462 375T463 353T455 319T442 283T431 251T426 233Q436 237 445 234T458 220Q455 212 448 209T432 204T415 198T402 187Q390
167 382 146T367 103T355 59T345 14Q342 13 335 14T327 21Z" />
<glyph unicode="&#xbf;" glyph-name="questiondown" horiz-adv-x="406" d="M136 627Q140 617 142 608T142 587Q138 568 135 568T128 578T123 603T121 629T125 642T136 627ZM143 415Q147 392 134 363T98 302T48 237T-4 171T-49 111T-74 62T-69 29T-20 17H120Q124
4 121 -8T108 -21H-38Q-51 -21 -66 -9T-92 22T-105 65T-96 114Q-73 160 -42 193T20 258T79 326T125 415Q127 418 129 421T134 425T139 424T143 415Z" />
<glyph unicode="&#xc0;" glyph-name="Agrave" horiz-adv-x="847" d="M-78 -185Q-81 -183 -87 -176T-98 -160T-102 -146T-90 -140Q-69 -169 -31 -162T51 -128T140 -59T222 24T282 98T306 142Q306 145 298 151T280 165T260 178T249 187Q252 197 268 202T304 212T343
221T373 233Q426 310 465 371T540 492T613 615T698 757Q711 779 719 772T731 738T736 670T736 580T733 482T728 390T724 318T723 278Q727 227 728 190T738 121T765 60T825 -5Q792 -16 771 -4T736 34T714 93T698 158T681 213T655 244Q654 244 650 244T640 245T629
245T622 244Q613 242 589 236T535 223T480 209T441 199Q416 192 389 167T331 107T268 29T201 -53T132 -127T62 -182T-8 -205T-78 -185ZM464 255Q466 254 474 254T486 255Q504 258 531 262T585 271T635 284T667 301Q667 301 670 322T677 375T685 447T694 525T700
595T704 646Q693 651 675 621T629 537T560 414T464 267V255ZM756 781Q742 805 727 815T701 833T684 854T684 897Q706 899 728 884T768 848T798 805T811 769T799 755T756 781Z" />
<glyph unicode="&#xc1;" glyph-name="Aacute" horiz-adv-x="847" d="M-78 -185Q-81 -183 -87 -176T-98 -160T-102 -146T-90 -140Q-69 -169 -31 -162T51 -128T140 -59T222 24T282 98T306 142Q306 145 298 151T280 165T260 178T249 187Q252 197 268 202T304 212T343
221T373 233Q426 310 465 371T540 492T613 615T698 757Q711 779 719 772T731 738T736 670T736 580T733 482T728 390T724 318T723 278Q727 227 728 190T738 121T765 60T825 -5Q792 -16 771 -4T736 34T714 93T698 158T681 213T655 244Q654 244 650 244T640 245T629
245T622 244Q613 242 589 236T535 223T480 209T441 199Q416 192 389 167T331 107T268 29T201 -53T132 -127T62 -182T-8 -205T-78 -185ZM464 255Q466 254 474 254T486 255Q504 258 531 262T585 271T635 284T667 301Q667 301 670 322T677 375T685 447T694 525T700
595T704 646Q693 651 675 621T629 537T560 414T464 267V255ZM665 749Q632 725 619 725T606 739T621 777T655 822T701 859T750 873Q756 843 750 829T730 806T698 785T665 749Z" />
<glyph unicode="&#xc2;" glyph-name="Acircumflex" horiz-adv-x="847" d="M-78 -185Q-81 -183 -87 -176T-98 -160T-102 -146T-90 -140Q-69 -169 -31 -162T51 -128T140 -59T222 24T282 98T306 142Q306 145 298 151T280 165T260 178T249 187Q252 197 268 202T304
212T343 221T373 233Q426 310 465 371T540 492T613 615T698 757Q711 779 719 772T731 738T736 670T736 580T733 482T728 390T724 318T723 278Q727 227 728 190T738 121T765 60T825 -5Q792 -16 771 -4T736 34T714 93T698 158T681 213T655 244Q654 244 650 244T640
245T629 245T622 244Q613 242 589 236T535 223T480 209T441 199Q416 192 389 167T331 107T268 29T201 -53T132 -127T62 -182T-8 -205T-78 -185ZM464 255Q466 254 474 254T486 255Q504 258 531 262T585 271T635 284T667 301Q667 301 670 322T677 375T685 447T694
525T700 595T704 646Q693 651 675 621T629 537T560 414T464 267V255ZM761 756Q759 759 754 774T741 806T727 833T712 836Q708 830 696 809T665 768T627 737T588 737Q583 740 578 745T576 759Q581 768 594 778T621 799T647 820T665 840Q687 887 705 904T738 919T763
897T780 854T788 804T789 761T779 741T761 756Z" />
<glyph unicode="&#xc3;" glyph-name="Atilde" horiz-adv-x="847" d="M-78 -185Q-81 -183 -87 -176T-98 -160T-102 -146T-90 -140Q-69 -169 -31 -162T51 -128T140 -59T222 24T282 98T306 142Q306 145 298 151T280 165T260 178T249 187Q252 197 268 202T304 212T343
221T373 233Q426 310 465 371T540 492T613 615T698 757Q711 779 719 772T731 738T736 670T736 580T733 482T728 390T724 318T723 278Q727 227 728 190T738 121T765 60T825 -5Q792 -16 771 -4T736 34T714 93T698 158T681 213T655 244Q654 244 650 244T640 245T629
245T622 244Q613 242 589 236T535 223T480 209T441 199Q416 192 389 167T331 107T268 29T201 -53T132 -127T62 -182T-8 -205T-78 -185ZM464 255Q466 254 474 254T486 255Q504 258 531 262T585 271T635 284T667 301Q667 301 670 322T677 375T685 447T694 525T700
595T704 646Q693 651 675 621T629 537T560 414T464 267V255ZM798 695Q769 700 755 718T732 757T717 794T700 810T666 787T605 707Q585 695 579 701T575 723T589 763T618 808T656 846T700 867T745 858T787 808Q796 765 812 749T850 734T897 750T949 784T1004 822T1058
853Q1064 843 1052 825T1018 785T966 742T905 707T846 688T798 695Z" />
<glyph unicode="&#xc4;" glyph-name="Adieresis" horiz-adv-x="847" d="M-78 -185Q-81 -183 -87 -176T-98 -160T-102 -146T-90 -140Q-69 -169 -31 -162T51 -128T140 -59T222 24T282 98T306 142Q306 145 298 151T280 165T260 178T249 187Q252 197 268 202T304 212T343
221T373 233Q426 310 465 371T540 492T613 615T698 757Q711 779 719 772T731 738T736 670T736 580T733 482T728 390T724 318T723 278Q727 227 728 190T738 121T765 60T825 -5Q792 -16 771 -4T736 34T714 93T698 158T681 213T655 244Q654 244 650 244T640 245T629
245T622 244Q613 242 589 236T535 223T480 209T441 199Q416 192 389 167T331 107T268 29T201 -53T132 -127T62 -182T-8 -205T-78 -185ZM464 255Q466 254 474 254T486 255Q504 258 531 262T585 271T635 284T667 301Q667 301 670 322T677 375T685 447T694 525T700
595T704 646Q693 651 675 621T629 537T560 414T464 267V255ZM614 800Q600 821 606 842T629 874T664 884T694 856Q700 841 692 825T670 798T640 786T614 800ZM758 805Q743 826 750 847T773 879T808 889T837 861Q843 846 835 830T813 803T784 791T758 805Z" />
<glyph unicode="&#xc5;" glyph-name="Aring" horiz-adv-x="847" d="M-78 -185Q-81 -183 -87 -176T-98 -160T-102 -146T-90 -140Q-69 -169 -31 -162T51 -128T140 -59T222 24T282 98T306 142Q306 145 298 151T280 165T260 178T249 187Q252 197 268 202T304 212T343
221T373 233Q426 310 465 371T540 492T613 615T698 757Q711 779 719 772T731 738T736 670T736 580T733 482T728 390T724 318T723 278Q727 227 728 190T738 121T765 60T825 -5Q792 -16 771 -4T736 34T714 93T698 158T681 213T655 244Q654 244 650 244T640 245T629
245T622 244Q613 242 589 236T535 223T480 209T441 199Q416 192 389 167T331 107T268 29T201 -53T132 -127T62 -182T-8 -205T-78 -185ZM464 255Q466 254 474 254T486 255Q504 258 531 262T585 271T635 284T667 301Q667 301 670 322T677 375T685 447T694 525T700
595T704 646Q693 651 675 621T629 537T560 414T464 267V255ZM643 755Q618 765 612 781T612 817T635 857T671 894T711 922T747 935Q797 941 818 927T840 888T823 834T777 783T714 752T643 755ZM657 815Q662 788 682 786T726 795T771 826T800 862T794 888T736 888Q723
877 711 870T688 855T669 838T657 815Z" />
<glyph unicode="&#xc6;" glyph-name="AE" horiz-adv-x="1593" d="M550 -97Q545 -92 554 -86Q563 -50 574 -18T597 47Q603 71 607 92T612 129T611 157T602 174Q601 174 597 175T587 177T576 179T569 180Q560 180 538 188T491 207T441 225T405 232Q380 230 348 211T279
163T202 99T121 31T39 -29T-41 -69T-115 -78T-179 -45Q-182 -42 -186 -34T-193 -17T-195 -2T-182 2Q-170 -23 -146 -29T-88 -28T-17 -4T59 37T133 86T197 135T242 176T262 203Q262 206 256 213T240 230T223 247T214 258Q219 267 235 269T272 272T313 273T344 278Q389
321 424 354T491 414T552 467T612 521T677 582T755 661Q782 689 796 693T817 685T821 644T812 578Q846 591 893 604T994 630T1104 652T1213 670T1309 679T1382 678T1422 664T1417 633Q1408 631 1399 632T1379 637T1359 642T1338 644Q1290 640 1244 630T1151 608T1059
585T965 565Q890 552 851 528T795 471T773 394T765 298Q776 295 806 302T876 319T959 340T1042 355T1110 356T1149 332Q1150 330 1150 326T1149 321Q1096 313 1040 307T928 290T819 264T719 219Q718 218 716 214Q714 207 713 201T710 189Q699 132 679 70T638 -50Q668
-42 700 -35T761 -21T808 -12T833 -7Q918 6 996 13T1160 16Q1167 14 1170 8T1173 -5T1174 -20T1172 -30Q1062 -24 955 -38T742 -75Q730 -78 715 -83T684 -95T650 -106T616 -115Q596 -172 589 -212T595 -263Q572 -266 561 -255T547 -221T547 -170T558 -107Q551 -104
550 -97ZM438 283Q440 282 448 280T459 279Q477 277 500 266T545 242T582 219T597 209L624 227Q625 228 625 229Q625 232 626 234Q622 241 622 248T630 264Q630 266 638 266Q647 293 659 330T683 407T706 480T721 534Q717 526 707 512T667 471T585 402T440 294L438
283Z" />
<glyph unicode="&#xc7;" glyph-name="Ccedilla" horiz-adv-x="633" d="M107 11Q46 35 23 76T4 167T36 275T104 391T194 504T291 605T381 685T449 735Q485 757 509 757T547 742T567 702T573 648T567 591T553 541T535 510T516 509Q515 517 518 533T525 571T534 614T539
654T539 686T527 701Q492 710 444 685T343 612T239 502T145 373T76 245T46 135T66 62T153 45Q210 53 258 85T352 157T443 235T537 294Q555 301 565 289T571 260Q565 243 536 215T463 157T367 96T266 43T174 11T107 11ZM218 -128Q213 -114 227 -109T262 -100T303
-93T329 -76Q335 -63 331 -58T317 -49T295 -45T271 -41T253 -32T248 -12Q244 10 245 29T250 56T262 57T279 19Q285 0 306 -7T347 -19T381 -33T385 -64Q383 -72 366 -89T325 -121T275 -143T229 -139Q227 -138 223 -134T218 -128Z" />
<glyph unicode="&#xc8;" glyph-name="Egrave" horiz-adv-x="746" d="M18 23Q12 28 21 34Q31 70 41 103T64 168T89 234T118 305Q123 314 117 323T102 342T90 362T97 384Q98 385 104 387T119 390T133 393T142 396Q145 398 153 406T164 418Q180 445 194 466T221 508T244
552T262 606Q265 618 257 621T237 628T219 637T218 662Q222 673 256 686T344 711T463 733T595 749T721 756T823 753T883 734T882 696Q873 694 864 695T844 700T823 705T802 707Q754 703 708 704T616 705T524 702T432 685Q400 676 375 654T328 597T283 517T232 418Q243
415 273 422T343 439T427 460T509 475T577 476T616 452Q617 450 617 446T616 441Q563 433 507 427T395 410T286 384T186 339Q148 272 118 201T65 57Q94 67 132 76T206 94T268 107T300 113Q385 126 463 133T627 136Q634 134 637 128T641 115T641 100T639 90Q530
96 423 82T209 45Q192 41 168 31T118 13T69 2T29 10Q25 12 22 15T18 23ZM415 788Q401 812 386 822T360 840T343 861T343 904Q365 906 387 891T427 855T457 812T470 776T458 762T415 788Z" />
<glyph unicode="&#xc9;" glyph-name="Eacute" horiz-adv-x="746" d="M18 23Q12 28 21 34Q31 70 41 103T64 168T89 234T118 305Q123 314 117 323T102 342T90 362T97 384Q98 385 104 387T119 390T133 393T142 396Q145 398 153 406T164 418Q180 445 194 466T221 508T244
552T262 606Q265 618 257 621T237 628T219 637T218 662Q222 673 256 686T344 711T463 733T595 749T721 756T823 753T883 734T882 696Q873 694 864 695T844 700T823 705T802 707Q754 703 708 704T616 705T524 702T432 685Q400 676 375 654T328 597T283 517T232 418Q243
415 273 422T343 439T427 460T509 475T577 476T616 452Q617 450 617 446T616 441Q563 433 507 427T395 410T286 384T186 339Q148 272 118 201T65 57Q94 67 132 76T206 94T268 107T300 113Q385 126 463 133T627 136Q634 134 637 128T641 115T641 100T639 90Q530
96 423 82T209 45Q192 41 168 31T118 13T69 2T29 10Q25 12 22 15T18 23ZM404 770Q371 746 358 746T345 760T360 798T394 843T440 880T489 894Q495 864 489 850T469 827T437 806T404 770Z" />
<glyph unicode="&#xca;" glyph-name="Ecircumflex" horiz-adv-x="746" d="M18 23Q12 28 21 34Q31 70 41 103T64 168T89 234T118 305Q123 314 117 323T102 342T90 362T97 384Q98 385 104 387T119 390T133 393T142 396Q145 398 153 406T164 418Q180 445 194 466T221
508T244 552T262 606Q265 618 257 621T237 628T219 637T218 662Q222 673 256 686T344 711T463 733T595 749T721 756T823 753T883 734T882 696Q873 694 864 695T844 700T823 705T802 707Q754 703 708 704T616 705T524 702T432 685Q400 676 375 654T328 597T283 517T232
418Q243 415 273 422T343 439T427 460T509 475T577 476T616 452Q617 450 617 446T616 441Q563 433 507 427T395 410T286 384T186 339Q148 272 118 201T65 57Q94 67 132 76T206 94T268 107T300 113Q385 126 463 133T627 136Q634 134 637 128T641 115T641 100T639
90Q530 96 423 82T209 45Q192 41 168 31T118 13T69 2T29 10Q25 12 22 15T18 23ZM472 796Q470 799 465 814T452 846T438 873T423 876Q419 870 407 849T376 808T338 777T299 777Q294 780 289 785T287 799Q292 808 305 818T332 839T358 860T376 880Q398 927 416 944T449
959T474 937T491 894T499 844T500 801T490 781T472 796Z" />
<glyph unicode="&#xcb;" glyph-name="Edieresis" horiz-adv-x="746" d="M18 23Q12 28 21 34Q31 70 41 103T64 168T89 234T118 305Q123 314 117 323T102 342T90 362T97 384Q98 385 104 387T119 390T133 393T142 396Q145 398 153 406T164 418Q180 445 194 466T221
508T244 552T262 606Q265 618 257 621T237 628T219 637T218 662Q222 673 256 686T344 711T463 733T595 749T721 756T823 753T883 734T882 696Q873 694 864 695T844 700T823 705T802 707Q754 703 708 704T616 705T524 702T432 685Q400 676 375 654T328 597T283 517T232
418Q243 415 273 422T343 439T427 460T509 475T577 476T616 452Q617 450 617 446T616 441Q563 433 507 427T395 410T286 384T186 339Q148 272 118 201T65 57Q94 67 132 76T206 94T268 107T300 113Q385 126 463 133T627 136Q634 134 637 128T641 115T641 100T639
90Q530 96 423 82T209 45Q192 41 168 31T118 13T69 2T29 10Q25 12 22 15T18 23ZM368 774Q354 795 360 816T383 848T418 858T448 830Q454 815 446 799T424 772T394 760T368 774ZM512 779Q497 800 504 821T527 853T562 863T591 835Q597 820 589 804T567 777T538 765T512
779Z" />
<glyph unicode="&#xcc;" glyph-name="Igrave" horiz-adv-x="220" d="M11 34Q9 41 10 53T14 79T20 102T23 113L249 701Q256 719 262 715T271 696T275 663T271 633Q239 557 207 481T145 327T89 171T45 11Q37 6 32 7T22 12T15 23T11 34ZM215 772Q201 796 186 806T160
824T143 845T143 888Q165 890 187 875T227 839T257 796T270 760T258 746T215 772Z" />
<glyph unicode="&#xcd;" glyph-name="Iacute" horiz-adv-x="220" d="M11 34Q9 41 10 53T14 79T20 102T23 113L249 701Q256 719 262 715T271 696T275 663T271 633Q239 557 207 481T145 327T89 171T45 11Q37 6 32 7T22 12T15 23T11 34ZM176 744Q143 720 130 720T117
734T132 772T166 817T212 854T261 868Q267 838 261 824T241 801T209 780T176 744Z" />
<glyph unicode="&#xce;" glyph-name="Icircumflex" horiz-adv-x="220" d="M11 34Q9 41 10 53T14 79T20 102T23 113L249 701Q256 719 262 715T271 696T275 663T271 633Q239 557 207 481T145 327T89 171T45 11Q37 6 32 7T22 12T15 23T11 34ZM331 748Q329 751 324
766T311 798T297 825T282 828Q278 822 266 801T235 760T197 729T158 729Q153 732 148 737T146 751Q151 760 164 770T191 791T217 812T235 832Q257 879 275 896T308 911T333 889T350 846T358 796T359 753T349 733T331 748Z" />
<glyph unicode="&#xcf;" glyph-name="Idieresis" horiz-adv-x="220" d="M11 34Q9 41 10 53T14 79T20 102T23 113L249 701Q256 719 262 715T271 696T275 663T271 633Q239 557 207 481T145 327T89 171T45 11Q37 6 32 7T22 12T15 23T11 34ZM144 787Q130 808 136 829T159
861T194 871T224 843Q230 828 222 812T200 785T170 773T144 787ZM288 792Q273 813 280 834T303 866T338 876T367 848Q373 833 365 817T343 790T314 778T288 792Z" />
<glyph unicode="&#xd0;" glyph-name="Eth" horiz-adv-x="823" d="M-23 342Q-35 354 -24 365T14 385T79 402T161 414Q177 449 191 481T214 533Q205 562 210 584T230 625T264 659T304 690Q361 732 427 755T561 780T698 763T826 698Q874 658 882 611T869 515T801
414T692 314T558 220T413 136T272 68T150 21T62 1T23 11Q18 26 25 37T46 57Q108 88 167 109T283 152T398 200T514 269Q645 345 715 411T808 530T814 624T755 690T653 723T527 722T400 683T293 601Q292 599 290 594T287 584T284 573T282 566Q271 521 261 485T240
419Q280 420 315 418T376 410T414 392T418 364Q407 364 382 363T327 359T272 356T236 354Q231 353 225 352T211 350Q196 319 181 293T151 239T121 182T91 113Q73 107 66 114T57 135T60 169T71 206T83 239T91 260Q96 273 103 291T121 329Q100 325 79 322T39 320T4
326T-23 342Z" />
<glyph unicode="&#xd1;" glyph-name="Ntilde" horiz-adv-x="830" d="M11 23Q18 54 35 92T74 167T115 237T147 294Q153 306 165 330T193 386T226 452T259 517T287 573T306 610Q337 642 357 628T394 571T423 465T451 336T485 210T531 113Q544 107 562 126T603 181T649
267T697 370T745 479T788 580T822 662T845 711Q852 724 859 724T872 716T879 697T879 676Q847 589 819 519T762 384T699 252T622 102Q590 63 560 59T498 102Q465 160 446 212T414 314T389 417T362 531Q353 537 332 510T284 438T226 337T169 229T121 136T91 79Q86
70 79 57T64 31T51 9T45 0H11Q10 2 10 11T11 23ZM513 684Q484 689 470 707T447 746T432 783T415 799T381 776T320 696Q300 684 294 690T290 712T304 752T333 797T371 835T415 856T460 847T502 797Q511 754 527 738T565 723T612 739T664 773T719 811T773 842Q779
832 767 814T733 774T681 731T620 696T561 677T513 684Z" />
<glyph unicode="&#xd2;" glyph-name="Ograve" horiz-adv-x="527" d="M97 11Q47 32 31 69T20 150T44 238T85 316Q92 328 111 357T151 418T192 479T220 519Q232 596 268 641T349 704T443 712T527 669T579 579T577 448T498 280T322 79Q302 60 275 43T217 14T155 1T97
11ZM62 90Q72 45 100 34T166 38T249 89T339 173T425 279T496 392T543 499T554 587T518 644T424 655Q401 635 363 597T282 509T196 404T120 291T70 183T62 90ZM397 779Q383 803 368 813T342 831T325 852T325 895Q347 897 369 882T409 846T439 803T452 767T440 753T397
779Z" />
<glyph unicode="&#xd3;" glyph-name="Oacute" horiz-adv-x="527" d="M97 11Q47 32 31 69T20 150T44 238T85 316Q92 328 111 357T151 418T192 479T220 519Q232 596 268 641T349 704T443 712T527 669T579 579T577 448T498 280T322 79Q302 60 275 43T217 14T155 1T97
11ZM62 90Q72 45 100 34T166 38T249 89T339 173T425 279T496 392T543 499T554 587T518 644T424 655Q401 635 363 597T282 509T196 404T120 291T70 183T62 90ZM351 736Q318 712 305 712T292 726T307 764T341 809T387 846T436 860Q442 830 436 816T416 793T384 772T351
736Z" />
<glyph unicode="&#xd4;" glyph-name="Ocircumflex" horiz-adv-x="527" d="M97 11Q47 32 31 69T20 150T44 238T85 316Q92 328 111 357T151 418T192 479T220 519Q232 596 268 641T349 704T443 712T527 669T579 579T577 448T498 280T322 79Q302 60 275 43T217 14T155
1T97 11ZM62 90Q72 45 100 34T166 38T249 89T339 173T425 279T496 392T543 499T554 587T518 644T424 655Q401 635 363 597T282 509T196 404T120 291T70 183T62 90ZM545 765Q543 768 538 783T525 815T511 842T496 845Q492 839 480 818T449 777T411 746T372 746Q367
749 362 754T360 768Q365 777 378 787T405 808T431 829T449 849Q471 896 489 913T522 928T547 906T564 863T572 813T573 770T563 750T545 765Z" />
<glyph unicode="&#xd5;" glyph-name="Otilde" horiz-adv-x="527" d="M97 11Q47 32 31 69T20 150T44 238T85 316Q92 328 111 357T151 418T192 479T220 519Q232 596 268 641T349 704T443 712T527 669T579 579T577 448T498 280T322 79Q302 60 275 43T217 14T155 1T97
11ZM62 90Q72 45 100 34T166 38T249 89T339 173T425 279T496 392T543 499T554 587T518 644T424 655Q401 635 363 597T282 509T196 404T120 291T70 183T62 90ZM504 704Q475 709 461 727T438 766T423 803T406 819T372 796T311 716Q291 704 285 710T281 732T295 772T324
817T362 855T406 876T451 867T493 817Q502 774 518 758T556 743T603 759T655 793T710 831T764 862Q770 852 758 834T724 794T672 751T611 716T552 697T504 704Z" />
<glyph unicode="&#xd6;" glyph-name="Odieresis" horiz-adv-x="527" d="M97 11Q47 32 31 69T20 150T44 238T85 316Q92 328 111 357T151 418T192 479T220 519Q232 596 268 641T349 704T443 712T527 669T579 579T577 448T498 280T322 79Q302 60 275 43T217 14T155
1T97 11ZM62 90Q72 45 100 34T166 38T249 89T339 173T425 279T496 392T543 499T554 587T518 644T424 655Q401 635 363 597T282 509T196 404T120 291T70 183T62 90ZM339 765Q325 786 331 807T354 839T389 849T419 821Q425 806 417 790T395 763T365 751T339 765ZM483
770Q468 791 475 812T498 844T533 854T562 826Q568 811 560 795T538 768T509 756T483 770Z" />
<glyph unicode="&#xd7;" glyph-name="multiply" horiz-adv-x="682" d="M86 90Q77 103 85 116T110 143T150 169T192 197T224 227T232 260Q231 264 226 282T215 322T204 361T198 384V407Q211 417 223 401T247 361T269 312T288 282Q306 294 326 310T367 344T405 378T435
407Q456 418 464 417T473 406T468 384T455 359T442 337T435 328Q376 289 349 268T316 232T319 207T342 177T367 128T378 45Q349 36 334 46T313 77T305 122T300 167T288 199T259 202T202 163T109 67Q106 69 97 78T86 90Z" />
<glyph unicode="&#xd8;" glyph-name="Oslash" horiz-adv-x="527" d="M97 11Q47 32 31 69T20 150T44 238T85 316Q92 328 111 357T151 418T192 479T220 519Q232 596 268 641T349 704T443 712T527 669T579 579T577 448T498 280T322 79Q302 60 275 43T217 14T155 1T97
11ZM62 90Q72 45 100 34T166 38T249 89T339 173T425 279T496 392T543 499T554 587T518 644T424 655Q401 635 363 597T282 509T196 404T120 291T70 183T62 90ZM186 -94Q179 -44 190 25T224 172T279 334T344 495T408 641T462 757Q475 766 483 761T496 745T502 720T502
699Q495 682 478 641T443 552T407 464T384 406Q378 393 367 361T343 294T319 228T305 185Q299 167 291 130T273 51T250 -30T225 -94Q222 -98 216 -102T205 -109T193 -108T186 -94Z" />
<glyph unicode="&#xd9;" glyph-name="Ugrave" horiz-adv-x="608" d="M91 11Q55 40 42 86T33 188T54 305T94 426T144 540T193 635T231 700T249 723Q257 719 260 713T263 698T263 682T261 667Q260 665 255 656T249 644Q171 473 132 358T84 173T92 77T145 54T230
93T335 180T448 301T556 443T648 592T712 735Q714 737 717 741T723 746Q751 727 744 682T706 575T623 443T511 303T386 173T264 69T161 10T91 11ZM400 738Q386 762 371 772T345 790T328 811T328 854Q350 856 372 841T412 805T442 762T455 726T443 712T400 738Z"
/>
<glyph unicode="&#xda;" glyph-name="Uacute" horiz-adv-x="608" d="M91 11Q55 40 42 86T33 188T54 305T94 426T144 540T193 635T231 700T249 723Q257 719 260 713T263 698T263 682T261 667Q260 665 255 656T249 644Q171 473 132 358T84 173T92 77T145 54T230
93T335 180T448 301T556 443T648 592T712 735Q714 737 717 741T723 746Q751 727 744 682T706 575T623 443T511 303T386 173T264 69T161 10T91 11ZM415 736Q382 712 369 712T356 726T371 764T405 809T451 846T500 860Q506 830 500 816T480 793T448 772T415 736Z"
/>
<glyph unicode="&#xdb;" glyph-name="Ucircumflex" horiz-adv-x="608" d="M91 11Q55 40 42 86T33 188T54 305T94 426T144 540T193 635T231 700T249 723Q257 719 260 713T263 698T263 682T261 667Q260 665 255 656T249 644Q171 473 132 358T84 173T92 77T145 54T230
93T335 180T448 301T556 443T648 592T712 735Q714 737 717 741T723 746Q751 727 744 682T706 575T623 443T511 303T386 173T264 69T161 10T91 11ZM540 777Q538 780 533 795T520 827T506 854T491 857Q487 851 475 830T444 789T406 758T367 758Q362 761 357 766T355
780Q360 789 373 799T400 820T426 841T444 861Q466 908 484 925T517 940T542 918T559 875T567 825T568 782T558 762T540 777Z" />
<glyph unicode="&#xdc;" glyph-name="Udieresis" horiz-adv-x="608" d="M91 11Q55 40 42 86T33 188T54 305T94 426T144 540T193 635T231 700T249 723Q257 719 260 713T263 698T263 682T261 667Q260 665 255 656T249 644Q171 473 132 358T84 173T92 77T145 54T230
93T335 180T448 301T556 443T648 592T712 735Q714 737 717 741T723 746Q751 727 744 682T706 575T623 443T511 303T386 173T264 69T161 10T91 11ZM367 807Q353 828 359 849T382 881T417 891T447 863Q453 848 445 832T423 805T393 793T367 807ZM511 812Q496 833
503 854T526 886T561 896T590 868Q596 853 588 837T566 810T537 798T511 812Z" />
<glyph unicode="&#xdd;" glyph-name="Yacute" horiz-adv-x="402" d="M56 -128Q44 -98 53 -65T82 4T129 80T180 160T220 246T236 335Q232 344 218 365T185 415T144 477T102 541T65 601T40 649T35 675T56 674Q70 661 91 633T134 569T180 496T224 429T259 382T281
369Q291 389 310 432T353 527T400 630T446 718T484 766T507 753Q511 738 498 701T461 611T405 494T337 360T266 222T199 89T145 -28T112 -117Q109 -127 103 -136T88 -150T72 -150T56 -128ZM246 757Q213 733 200 733T187 747T202 785T236 830T282 867T331 881Q337
851 331 837T311 814T279 793T246 757Z" />
<glyph unicode="&#xde;" glyph-name="Thorn" horiz-adv-x="601" d="M13 -161Q13 -160 0 -158T-28 -154T-57 -149T-70 -146Q-57 -120 -36 -63T12 69T68 229T128 397T187 552T240 675T282 744T311 740Q326 726 326 709T319 671T295 626T265 572T238 509T221 435Q326
515 400 544T518 566T577 524T581 441T532 340T433 244T286 176T94 159Q93 160 87 137T72 77T53 -1T34 -79T19 -138T13 -161ZM142 242Q140 239 140 226T142 209Q192 207 241 217T335 248T416 297T476 361T508 434T504 514Q503 516 491 515T476 514Q426 521 373
497T274 430T192 338T142 242Z" />
<glyph unicode="&#xdf;" glyph-name="germandbls" horiz-adv-x="664" d="M235 633Q200 556 167 464T110 273T77 74T83 -120Q57 -119 44 -90T26 -19T27 67T45 142Q48 149 53 171T64 225T78 291T91 357T102 411T110 441Q123 471 122 494T117 537T115 577T134 622Q136
625 146 636T167 661T189 686T202 701Q207 708 231 725T289 764T366 810T450 854T531 887T597 901T638 888T642 837Q633 802 613 771T566 709T508 651T447 594T392 537T350 479Q465 475 527 454T612 400T622 329T575 250T488 176T379 117T266 82T167 83L175 114Q271
114 343 136T465 192T539 266T566 341T546 402T476 432T358 415T191 334L211 443Q243 470 285 506T371 581T457 661T530 737T577 802T586 847Q542 854 492 833T394 777T304 702T235 633Z" />
<glyph unicode="&#xe0;" glyph-name="agrave" horiz-adv-x="702" d="M57 23Q33 43 31 82T41 170T81 272T143 374T219 461T301 518T381 532T452 486Q472 461 476 436T475 384T459 330T438 274T421 217T418 158Q423 120 452 113T521 117T607 152T690 200T754 242T780
260Q808 266 811 257T801 229T757 187T691 141T612 101T530 77T455 77T396 113Q385 125 380 137T362 158Q347 144 326 122T281 77T229 34T172 4T114 -3T57 23ZM68 57Q77 25 108 27T180 58T265 134T344 242T397 368T407 498Q383 517 347 500T271 443T191 349T121
239T76 134T68 57ZM404 599Q390 623 375 633T349 651T332 672T332 715Q354 717 376 702T416 666T446 623T459 587T447 573T404 599Z" />
<glyph unicode="&#xe1;" glyph-name="aacute" horiz-adv-x="702" d="M57 23Q33 43 31 82T41 170T81 272T143 374T219 461T301 518T381 532T452 486Q472 461 476 436T475 384T459 330T438 274T421 217T418 158Q423 120 452 113T521 117T607 152T690 200T754 242T780
260Q808 266 811 257T801 229T757 187T691 141T612 101T530 77T455 77T396 113Q385 125 380 137T362 158Q347 144 326 122T281 77T229 34T172 4T114 -3T57 23ZM68 57Q77 25 108 27T180 58T265 134T344 242T397 368T407 498Q383 517 347 500T271 443T191 349T121
239T76 134T68 57ZM266 564Q233 540 220 540T207 554T222 592T256 637T302 674T351 688Q357 658 351 644T331 621T299 600T266 564Z" />
<glyph unicode="&#xe2;" glyph-name="acircumflex" horiz-adv-x="702" d="M57 23Q33 43 31 82T41 170T81 272T143 374T219 461T301 518T381 532T452 486Q472 461 476 436T475 384T459 330T438 274T421 217T418 158Q423 120 452 113T521 117T607 152T690 200T754
242T780 260Q808 266 811 257T801 229T757 187T691 141T612 101T530 77T455 77T396 113Q385 125 380 137T362 158Q347 144 326 122T281 77T229 34T172 4T114 -3T57 23ZM68 57Q77 25 108 27T180 58T265 134T344 242T397 368T407 498Q383 517 347 500T271 443T191
349T121 239T76 134T68 57ZM412 661Q410 664 405 679T392 711T378 738T363 741Q359 735 347 714T316 673T278 642T239 642Q234 645 229 650T227 664Q232 673 245 683T272 704T298 725T316 745Q338 792 356 809T389 824T414 802T431 759T439 709T440 666T430 646T412
661Z" />
<glyph unicode="&#xe3;" glyph-name="atilde" horiz-adv-x="702" d="M57 23Q33 43 31 82T41 170T81 272T143 374T219 461T301 518T381 532T452 486Q472 461 476 436T475 384T459 330T438 274T421 217T418 158Q423 120 452 113T521 117T607 152T690 200T754 242T780
260Q808 266 811 257T801 229T757 187T691 141T612 101T530 77T455 77T396 113Q385 125 380 137T362 158Q347 144 326 122T281 77T229 34T172 4T114 -3T57 23ZM68 57Q77 25 108 27T180 58T265 134T344 242T397 368T407 498Q383 517 347 500T271 443T191 349T121
239T76 134T68 57ZM382 582Q353 587 339 605T316 644T301 681T284 697T250 674T189 594Q169 582 163 588T159 610T173 650T202 695T240 733T284 754T329 745T371 695Q380 652 396 636T434 621T481 637T533 671T588 709T642 740Q648 730 636 712T602 672T550 629T489
594T430 575T382 582Z" />
<glyph unicode="&#xe4;" glyph-name="adieresis" horiz-adv-x="702" d="M57 23Q33 43 31 82T41 170T81 272T143 374T219 461T301 518T381 532T452 486Q472 461 476 436T475 384T459 330T438 274T421 217T418 158Q423 120 452 113T521 117T607 152T690 200T754
242T780 260Q808 266 811 257T801 229T757 187T691 141T612 101T530 77T455 77T396 113Q385 125 380 137T362 158Q347 144 326 122T281 77T229 34T172 4T114 -3T57 23ZM68 57Q77 25 108 27T180 58T265 134T344 242T397 368T407 498Q383 517 347 500T271 443T191
349T121 239T76 134T68 57ZM234 564Q220 585 226 606T249 638T284 648T314 620Q320 605 312 589T290 562T260 550T234 564ZM378 569Q363 590 370 611T393 643T428 653T457 625Q463 610 455 594T433 567T404 555T378 569Z" />
<glyph unicode="&#xe5;" glyph-name="aring" horiz-adv-x="702" d="M57 23Q33 43 31 82T41 170T81 272T143 374T219 461T301 518T381 532T452 486Q472 461 476 436T475 384T459 330T438 274T421 217T418 158Q423 120 452 113T521 117T607 152T690 200T754 242T780
260Q808 266 811 257T801 229T757 187T691 141T612 101T530 77T455 77T396 113Q385 125 380 137T362 158Q347 144 326 122T281 77T229 34T172 4T114 -3T57 23ZM68 57Q77 25 108 27T180 58T265 134T344 242T397 368T407 498Q383 517 347 500T271 443T191 349T121
239T76 134T68 57ZM266 524Q241 534 235 550T235 586T258 626T294 663T334 691T370 704Q420 710 441 696T463 657T446 603T400 552T337 521T266 524ZM280 584Q285 557 305 555T349 564T394 595T423 631T417 657T359 657Q346 646 334 639T311 624T292 607T280 584Z"
/>
<glyph unicode="&#xe6;" glyph-name="ae" horiz-adv-x="1136" d="M57 23Q33 43 31 82T41 170T81 272T143 374T219 461T301 518T381 532T452 486Q472 461 476 436T475 384T459 330T438 274T421 217T418 158Q422 129 441 117T489 103T553 109T624 130Q708 160 814
217Q826 213 807 193T751 149T664 101T564 67T468 65T396 113Q387 126 381 137T362 158Q347 144 326 122T281 77T229 34T172 4T114 -3T57 23ZM68 57Q77 25 108 27T180 58T265 134T344 242T397 368T407 498Q383 517 347 500T271 443T191 349T121 239T76 134T68 57ZM444
94Q414 104 399 124T378 170T376 222T388 275Q418 307 455 348T535 430T622 504T715 557Q731 564 740 557T754 533T758 496T754 455T746 419T736 397Q724 383 690 364T613 323T529 276T460 229T428 182T456 140Q490 136 538 143T637 163T735 189T812 211L824 200Q802
171 752 147T644 108T531 88T444 94ZM683 476Q682 478 668 468T634 443T590 409T547 374T514 347T503 335Q519 332 544 339T597 361T650 392T689 427T704 457T683 476Z" />
<glyph unicode="&#xe7;" glyph-name="ccedilla" horiz-adv-x="559" d="M102 11Q51 28 35 64T25 145T60 241T124 338T202 421T279 477T342 492T374 452Q377 436 371 417T353 381T327 349T299 327T275 322T261 339Q273 359 288 379T317 418Q311 429 294 423T253
399T203 354T151 294T107 228T78 161T73 102T102 57Q135 54 178 63T266 88T355 120T436 153T498 176T532 181Q551 171 535 152T479 111T387 68T279 31T177 9T102 11ZM190 -158Q185 -144 199 -139T234 -130T275 -123T301 -106Q307 -93 303 -88T289 -79T267 -75T243
-71T225 -62T220 -42Q216 -20 217 -1T222 26T234 27T251 -11Q257 -30 278 -37T319 -49T353 -63T357 -94Q355 -102 338 -119T297 -151T247 -173T201 -169Q199 -168 195 -164T190 -158Z" />
<glyph unicode="&#xe8;" glyph-name="egrave" horiz-adv-x="435" d="M85 11Q55 21 40 41T19 87T17 139T29 192Q59 224 96 265T176 347T263 421T356 474Q372 481 381 474T395 450T399 413T395 372T387 336T377 314Q365 300 331 281T254 240T170 193T101 146T69
99T97 57Q131 53 179 60T278 80T376 106T453 128L465 117Q443 88 393 64T285 25T172 5T85 11ZM324 393Q323 394 309 385T275 360T231 326T188 291T155 264T144 252Q160 249 185 256T238 278T291 309T330 344T345 374T324 393ZM209 533Q195 557 180 567T154 585T137
606T137 649Q159 651 181 636T221 600T251 557T264 521T252 507T209 533Z" />
<glyph unicode="&#xe9;" glyph-name="eacute" horiz-adv-x="435" d="M85 11Q55 21 40 41T19 87T17 139T29 192Q59 224 96 265T176 347T263 421T356 474Q372 481 381 474T395 450T399 413T395 372T387 336T377 314Q365 300 331 281T254 240T170 193T101 146T69
99T97 57Q131 53 179 60T278 80T376 106T453 128L465 117Q443 88 393 64T285 25T172 5T85 11ZM324 393Q323 394 309 385T275 360T231 326T188 291T155 264T144 252Q160 249 185 256T238 278T291 309T330 344T345 374T324 393ZM216 430Q183 406 170 406T157 420T172
458T206 503T252 540T301 554Q307 524 301 510T281 487T249 466T216 430Z" />
<glyph unicode="&#xea;" glyph-name="ecircumflex" horiz-adv-x="435" d="M85 11Q55 21 40 41T19 87T17 139T29 192Q59 224 96 265T176 347T263 421T356 474Q372 481 381 474T395 450T399 413T395 372T387 336T377 314Q365 300 331 281T254 240T170 193T101 146T69
99T97 57Q131 53 179 60T278 80T376 106T453 128L465 117Q443 88 393 64T285 25T172 5T85 11ZM324 393Q323 394 309 385T275 360T231 326T188 291T155 264T144 252Q160 249 185 256T238 278T291 309T330 344T345 374T324 393ZM282 606Q280 609 275 624T262 656T248
683T233 686Q229 680 217 659T186 618T148 587T109 587Q104 590 99 595T97 609Q102 618 115 628T142 649T168 670T186 690Q208 737 226 754T259 769T284 747T301 704T309 654T310 611T300 591T282 606Z" />
<glyph unicode="&#xeb;" glyph-name="edieresis" horiz-adv-x="435" d="M85 11Q55 21 40 41T19 87T17 139T29 192Q59 224 96 265T176 347T263 421T356 474Q372 481 381 474T395 450T399 413T395 372T387 336T377 314Q365 300 331 281T254 240T170 193T101 146T69
99T97 57Q131 53 179 60T278 80T376 106T453 128L465 117Q443 88 393 64T285 25T172 5T85 11ZM324 393Q323 394 309 385T275 360T231 326T188 291T155 264T144 252Q160 249 185 256T238 278T291 309T330 344T345 374T324 393ZM124 492Q110 513 116 534T139 566T174
576T204 548Q210 533 202 517T180 490T150 478T124 492ZM268 497Q253 518 260 539T283 571T318 581T347 553Q353 538 345 522T323 495T294 483T268 497Z" />
<glyph unicode="&#xec;" glyph-name="igrave" horiz-adv-x="254" d="M11 11Q52 143 85 220T141 329T172 349T171 293T131 173T45 0Q37 -3 26 -1T11 11ZM127 428Q113 452 98 462T72 480T55 501T55 544Q77 546 99 531T139 495T169 452T182 416T170 402T127 428Z" />
<glyph unicode="&#xed;" glyph-name="iacute" horiz-adv-x="254" d="M11 11Q15 1 26 -1T45 0Q100 97 130 172T170 293T172 349T142 329T86 221T11 11ZM126 430Q93 406 80 406T67 420T82 458T116 503T162 540T211 554Q217 524 211 510T191 487T159 466T126 430Z" />
<glyph unicode="&#xee;" glyph-name="icircumflex" horiz-adv-x="254" d="M11 11Q52 143 85 220T141 329T172 349T171 293T131 173T45 0Q37 -3 26 -1T11 11ZM184 494Q182 497 177 512T164 544T150 571T135 574Q131 568 119 547T88 506T50 475T11 475Q6 478 1 483T-1
497Q4 506 17 516T44 537T70 558T88 578Q110 625 128 642T161 657T186 635T203 592T211 542T212 499T202 479T184 494Z" />
<glyph unicode="&#xef;" glyph-name="idieresis" horiz-adv-x="254" d="M11 11Q52 143 85 220T141 329T172 349T171 293T131 173T45 0Q37 -3 26 -1T11 11ZM27 426Q13 447 19 468T42 500T77 510T107 482Q113 467 105 451T83 424T53 412T27 426ZM171 431Q156 452
163 473T186 505T221 515T250 487Q256 472 248 456T226 429T197 417T171 431Z" />
<glyph unicode="&#xf0;" glyph-name="eth" horiz-adv-x="314" d="M239 423Q252 414 257 410T260 399T243 380T206 342Q231 312 254 271T291 188T308 108T298 45Q273 9 245 -4T187 -15T129 4T78 45T37 100T13 160T8 217T30 262Q54 280 81 276T137 256T195 219T250
182Q254 193 249 209T234 243T210 281T180 318Q169 307 158 300T139 287Q125 280 130 298T153 346Q129 370 114 378Q88 402 85 416T91 434T116 434T146 412Q153 404 164 391T182 369L239 423ZM241 45Q247 62 243 83T226 126T194 167T152 199T102 218T48 217Q43
197 51 170T76 115T115 65T161 30T205 19T241 45Z" />
<glyph unicode="&#xf1;" glyph-name="ntilde" horiz-adv-x="576" d="M390 11Q387 44 395 76T418 140T449 203T478 265T495 325T491 384Q466 393 434 380T365 341T291 279T216 207T146 137T87 83T42 56T18 68Q17 69 29 93T60 155T101 235T144 315T179 379T198 407Q219
393 219 377T214 343T201 307T198 271Q214 282 242 301T304 342T374 383T443 414T500 427T538 412T546 360T514 260Q511 253 500 227T475 170T450 113T435 79Q434 75 433 65T429 42T423 18T413 0Q407 -6 399 1T390 11ZM556 465Q527 470 513 488T490 527T475 564T458
580T424 557T363 477Q343 465 337 471T333 493T347 533T376 578T414 616T458 637T503 628T545 578Q554 535 570 519T608 504T655 520T707 554T762 592T816 623Q822 613 810 595T776 555T724 512T663 477T604 458T556 465Z" />
<glyph unicode="&#xf2;" glyph-name="ograve" horiz-adv-x="430" d="M79 11Q37 28 27 62T27 137T65 223T125 305T191 367T249 396Q311 404 346 388T395 340T402 268T376 184T323 103T251 38T167 3T79 11ZM68 68Q76 36 102 33T162 45T235 93T304 162T356 236T377
302T350 344T261 350Q247 337 225 319T180 278T133 231T93 178T69 123T68 68ZM277 482Q263 506 248 516T222 534T205 555T205 598Q227 600 249 585T289 549T319 506T332 470T320 456T277 482Z" />
<glyph unicode="&#xf3;" glyph-name="oacute" horiz-adv-x="430" d="M79 11Q37 28 27 62T27 137T65 223T125 305T191 367T249 396Q311 404 346 388T395 340T402 268T376 184T323 103T251 38T167 3T79 11ZM68 68Q76 36 102 33T162 45T235 93T304 162T356 236T377
302T350 344T261 350Q247 337 225 319T180 278T133 231T93 178T69 123T68 68ZM214 430Q181 406 168 406T155 420T170 458T204 503T250 540T299 554Q305 524 299 510T279 487T247 466T214 430Z" />
<glyph unicode="&#xf4;" glyph-name="ocircumflex" horiz-adv-x="430" d="M79 11Q37 28 27 62T27 137T65 223T125 305T191 367T249 396Q311 404 346 388T395 340T402 268T376 184T323 103T251 38T167 3T79 11ZM68 68Q76 36 102 33T162 45T235 93T304 162T356 236T377
302T350 344T261 350Q247 337 225 319T180 278T133 231T93 178T69 123T68 68ZM334 549Q332 552 327 567T314 599T300 626T285 629Q281 623 269 602T238 561T200 530T161 530Q156 533 151 538T149 552Q154 561 167 571T194 592T220 613T238 633Q260 680 278 697T311
712T336 690T353 647T361 597T362 554T352 534T334 549Z" />
<glyph unicode="&#xf5;" glyph-name="otilde" horiz-adv-x="430" d="M79 11Q37 28 27 62T27 137T65 223T125 305T191 367T249 396Q311 404 346 388T395 340T402 268T376 184T323 103T251 38T167 3T79 11ZM68 68Q76 36 102 33T162 45T235 93T304 162T356 236T377
302T350 344T261 350Q247 337 225 319T180 278T133 231T93 178T69 123T68 68ZM563 436Q534 441 520 459T497 498T482 535T465 551T431 528T370 448Q350 436 344 442T340 464T354 504T383 549T421 587T465 608T510 599T552 549Q561 506 577 490T615 475T662 491T714
525T769 563T823 594Q829 584 817 566T783 526T731 483T670 448T611 429T563 436Z" />
<glyph unicode="&#xf6;" glyph-name="odieresis" horiz-adv-x="430" d="M79 11Q37 28 27 62T27 137T65 223T125 305T191 367T249 396Q311 404 346 388T395 340T402 268T376 184T323 103T251 38T167 3T79 11ZM68 68Q76 36 102 33T162 45T235 93T304 162T356 236T377
302T350 344T261 350Q247 337 225 319T180 278T133 231T93 178T69 123T68 68ZM160 448Q146 469 152 490T175 522T210 532T240 504Q246 489 238 473T216 446T186 434T160 448ZM304 453Q289 474 296 495T319 527T354 537T383 509Q389 494 381 478T359 451T330 439T304
453Z" />
<glyph unicode="&#xf7;" glyph-name="divide" horiz-adv-x="615" d="M85 206Q53 201 43 208T55 242Q56 246 91 253T179 266T294 277T410 283T501 280T543 262Q545 260 545 251T543 239Q525 238 489 236T408 230T314 223T221 216T140 210T85 206ZM221 91Q214 105
220 113T238 125T261 125T278 113Q287 96 282 85T266 70T242 71T221 91ZM233 362Q222 372 221 383T225 403T242 414T266 407Q279 398 280 385T276 363T259 351T233 362Z" />
<glyph unicode="&#xf8;" glyph-name="oslash" horiz-adv-x="430" d="M79 11Q37 28 27 62T27 137T65 223T125 305T191 367T249 396Q311 404 346 388T395 340T402 268T376 184T323 103T251 38T167 3T79 11ZM68 68Q76 36 102 33T162 45T235 93T304 162T356 236T377
302T350 344T261 350Q247 337 225 319T180 278T133 231T93 178T69 123T68 68ZM93 151Q87 189 96 242T126 356T173 481T228 605T283 717T330 807Q341 814 348 810T359 798T364 779T364 762Q358 749 344 717T313 649T283 581T263 536Q258 526 249 502T228 450T208
399T195 366Q190 352 183 324T167 263T148 200T127 151Q124 148 119 145T109 140T99 140T93 151Z" />
<glyph unicode="&#xf9;" glyph-name="ugrave" horiz-adv-x="576" d="M430 11Q403 22 387 40T362 81T348 129T339 181Q330 187 307 170T254 126T190 73T123 32T65 27T23 79Q18 94 26 122T52 185T91 255T135 323T175 377T204 407Q227 396 225 374T207 322T167 260T121
195T86 132T79 79Q101 70 133 88T203 140T280 215T354 297T414 367T452 407Q473 397 473 375T462 323T434 261T405 194T391 131T407 79L441 39H542Q549 39 545 33T534 20T518 7T509 0Q483 -5 467 -2T430 11ZM288 428Q274 452 259 462T233 480T216 501T216 544Q238
546 260 531T300 495T330 452T343 416T331 402T288 428Z" />
<glyph unicode="&#xfa;" glyph-name="uacute" horiz-adv-x="576" d="M430 11Q403 22 387 40T362 81T348 129T339 181Q330 187 307 170T254 126T190 73T123 32T65 27T23 79Q18 94 26 122T52 185T91 255T135 323T175 377T204 407Q227 396 225 374T207 322T167 260T121
195T86 132T79 79Q101 70 133 88T203 140T280 215T354 297T414 367T452 407Q473 397 473 375T462 323T434 261T405 194T391 131T407 79L441 39H542Q549 39 545 33T534 20T518 7T509 0Q483 -5 467 -2T430 11ZM328 427Q295 403 282 403T269 417T284 455T318 500T364
537T413 551Q419 521 413 507T393 484T361 463T328 427Z" />
<glyph unicode="&#xfb;" glyph-name="ucircumflex" horiz-adv-x="576" d="M430 11Q403 22 387 40T362 81T348 129T339 181Q330 187 307 170T254 126T190 73T123 32T65 27T23 79Q18 94 26 122T52 185T91 255T135 323T175 377T204 407Q227 396 225 374T207 322T167
260T121 195T86 132T79 79Q101 70 133 88T203 140T280 215T354 297T414 367T452 407Q473 397 473 375T462 323T434 261T405 194T391 131T407 79L441 39H542Q549 39 545 33T534 20T518 7T509 0Q483 -5 467 -2T430 11ZM394 552Q392 555 387 570T374 602T360 629T345
632Q341 626 329 605T298 564T260 533T221 533Q216 536 211 541T209 555Q214 564 227 574T254 595T280 616T298 636Q320 683 338 700T371 715T396 693T413 650T421 600T422 557T412 537T394 552Z" />
<glyph unicode="&#xfc;" glyph-name="udieresis" horiz-adv-x="576" d="M430 11Q403 22 387 40T362 81T348 129T339 181Q330 187 307 170T254 126T190 73T123 32T65 27T23 79Q18 94 26 122T52 185T91 255T135 323T175 377T204 407Q227 396 225 374T207 322T167
260T121 195T86 132T79 79Q101 70 133 88T203 140T280 215T354 297T414 367T452 407Q473 397 473 375T462 323T434 261T405 194T391 131T407 79L441 39H542Q549 39 545 33T534 20T518 7T509 0Q483 -5 467 -2T430 11ZM212 468Q198 489 204 510T227 542T262 552T292
524Q298 509 290 493T268 466T238 454T212 468ZM356 473Q341 494 348 515T371 547T406 557T435 529Q441 514 433 498T411 471T382 459T356 473Z" />
<glyph unicode="&#xfd;" glyph-name="yacute" horiz-adv-x="441" d="M-170 -384Q-179 -370 -170 -341T-143 -280T-107 -221T-79 -181Q-71 -170 -55 -148T-17 -98T27 -39T72 19T110 69T135 102Q143 111 135 130T111 174T74 230T37 292T12 355T11 413Q22 421 35
404T62 356T93 289T124 223T153 176T181 169Q207 188 232 217T280 279T323 341T362 395Q369 404 375 407T396 406Q407 402 392 371T345 291T269 180T175 50T76 -85T-15 -209T-86 -310T-125 -374Q-129 -383 -133 -392T-146 -407Q-148 -406 -151 -403T-158 -397T-165
-390T-170 -384ZM219 430Q186 406 173 406T160 420T175 458T209 503T255 540T304 554Q310 524 304 510T284 487T252 466T219 430Z" />
<glyph unicode="&#xfe;" glyph-name="thorn" horiz-adv-x="542" d="M-47 -376Q-42 -288 -22 -189T27 17T89 233T151 451T202 663T231 863Q248 865 262 864T286 851T297 817T293 752T269 651T220 504Q302 532 358 535T450 523T501 476T516 406T499 323T454 237T388
158T305 96T210 62T107 66Q80 -11 67 -63T48 -153T41 -216T38 -267T31 -317T10 -380Q8 -384 0 -387T-19 -390T-37 -388T-47 -376ZM142 113Q187 97 237 115T334 172T415 262T466 361T473 447T418 498Q349 491 306 472T236 424T197 359T177 283T162 199T142 113Z"
/>
<glyph unicode="&#xff;" glyph-name="ydieresis" horiz-adv-x="441" d="M-170 -384Q-179 -370 -170 -341T-143 -280T-107 -221T-79 -181Q-71 -170 -55 -148T-17 -98T27 -39T72 19T110 69T135 102Q143 111 135 130T111 174T74 230T37 292T12 355T11 413Q22 421
35 404T62 356T93 289T124 223T153 176T181 169Q207 188 232 217T280 279T323 341T362 395Q369 404 375 407T396 406Q407 402 392 371T345 291T269 180T175 50T76 -85T-15 -209T-86 -310T-125 -374Q-129 -383 -133 -392T-146 -407Q-148 -406 -151 -403T-158 -397T-165
-390T-170 -384ZM120 426Q106 447 112 468T135 500T170 510T200 482Q206 467 198 451T176 424T146 412T120 426ZM264 431Q249 452 256 473T279 505T314 515T343 487Q349 472 341 456T319 429T290 417T264 431Z" />
<glyph unicode="&#x2013;" glyph-name="endash" horiz-adv-x="506" d="M35 204Q33 205 29 209T24 215Q25 219 57 226T137 240T241 252T345 258T428 256T467 238Q469 236 469 227T467 215Q439 213 391 210T291 204T190 198T114 193Q89 191 73 192T35 204Z" />
<glyph unicode="&#x2014;" glyph-name="emdash" horiz-adv-x="682" d="M43 208Q41 209 37 213T32 219Q33 222 58 227T123 239T215 251T321 261T427 269T521 272T589 267T619 253Q621 251 621 242T619 230Q601 229 562 227T474 221T371 214T268 207T180 201T122
197Q98 195 82 196T43 208Z" />
<glyph unicode="&#x2018;" glyph-name="quoteleft" horiz-adv-x="169" d="M45 486Q45 487 47 496T54 515T61 537T67 554Q78 584 86 590T98 589T104 560T103 516T97 467T85 425T67 401T45 407Q44 411 44 422T43 446T43 470T45 486Z" />
<glyph unicode="&#x2019;" glyph-name="quoteright" horiz-adv-x="180" d="M59 486Q59 487 61 496T67 515T75 537T81 554Q96 594 105 594T117 572T118 516T108 452T88 406T59 407Q59 411 59 422T58 446T58 470T59 486Z" />
<glyph unicode="&#x201a;" glyph-name="quotesinglbase" horiz-adv-x="125" d="M37 -54Q34 -32 34 -15T38 19T46 53T59 94Q70 124 77 130T89 129T95 100T95 55T89 6T77 -36T59 -60T37 -54Z" />
<glyph unicode="&#x201c;" glyph-name="quotedblleft" horiz-adv-x="274" d="M173 409Q171 413 167 421T162 431V601Q181 610 191 600T206 570T209 521T204 468T195 423T184 398Q182 398 178 402T173 409ZM60 431Q55 445 53 466T49 509T47 553T48 589Q48 606 55
602T71 585T87 559T94 544Q95 531 95 511T95 470T95 436T94 420L82 409Q78 410 70 418T60 431Z" />
<glyph unicode="&#x201d;" glyph-name="quotedblright" horiz-adv-x="277" d="M182 409Q180 413 176 421T171 431V601Q190 610 200 600T215 570T219 521T214 468T205 423T194 398Q192 398 188 402T182 409ZM70 431Q65 445 63 466T59 509T57 553T58 589Q58 606
65 602T80 585T96 559T103 544Q104 531 104 511T105 470T105 436T103 420L92 409Q88 410 80 418T70 431Z" />
<glyph unicode="&#x201e;" glyph-name="quotedblbase" horiz-adv-x="220" d="M159 -96Q157 -92 152 -84T147 -74V96Q166 106 177 96T192 65T195 16T190 -37T181 -82T170 -107Q168 -106 164 -102T159 -96ZM46 -74Q41 -60 39 -39T35 4T33 48T34 84Q34 101 41 97T56
81T72 54T79 39Q80 26 80 6T81 -34T81 -68T79 -84L68 -96Q64 -94 56 -86T46 -74Z" />
<glyph unicode="&#x2022;" glyph-name="bullet" horiz-adv-x="322" d="M95 235Q76 262 76 289T89 338T124 376T169 395T215 386T250 342Q262 313 247 283T204 233T145 211T95 235Z" />
<glyph unicode="&#x2039;" glyph-name="guilsinglleft" horiz-adv-x="464" d="M396 11Q315 65 233 118T79 238Q63 252 47 266T21 296T12 327T34 362Q43 370 61 386T103 424T153 469T202 513T243 551T271 576Q276 578 285 576T301 570T311 558T306 542L91 328Q80
317 93 299T127 263T168 231T193 214Q206 205 239 183T311 135T382 88T430 57Q440 44 442 32T439 11T422 2T396 11Z" />
<glyph unicode="&#x203a;" glyph-name="guilsinglright" horiz-adv-x="345" d="M39 23Q29 42 43 66T83 117T141 173T200 230T243 286T254 339Q253 341 235 355T192 391T136 436T82 484T42 526T28 554Q29 558 37 566T50 576Q71 560 104 539T173 493T240 441T291
384T311 323T287 260Q279 250 264 232T231 191T193 146T156 103T125 67T107 45Q105 42 99 36T85 22T72 9T62 0Q59 2 50 10T39 23Z" />
</font>
</defs>
</svg>
