<?xml version="1.0" standalone="no"?>
<!DOCTYPE svg PUBLIC "-//W3C//DTD SVG 1.1//EN" "http://www.w3.org/Graphics/SVG/1.1/DTD/svg11.dtd">
<svg xmlns="http://www.w3.org/2000/svg">
<defs >
<font id="Geostar" horiz-adv-x="779" ><font-face
    font-family="Geostar"
    units-per-em="1000"
    panose-1="2 0 0 0 0 0 0 0 0 0"
    ascent="922"
    descent="-226"
    alphabetic="0" />
<glyph unicode=" " glyph-name="space" horiz-adv-x="251" />
<glyph unicode="!" glyph-name="exclam" horiz-adv-x="342" d="M246 225H95L67 695H274L246 225ZM226 650H115L138 270H203L226 650ZM267 0H75V153H267V0ZM222 108H120V45H222V108Z" />
<glyph unicode="&quot;" glyph-name="quotedbl" horiz-adv-x="571" d="M252 754L222 440H79L49 754H252ZM103 709L123 485H178L198 709H103ZM522 754L492 440H349L319 754H522ZM373 709L393 485H448L468 709H373Z" />
<glyph unicode="#" glyph-name="numbersign" horiz-adv-x="857" d="M686 403V249H805V204H686V56H519V204H337V56H170V204H52V249H170V403H52V448H170V597H337V448H519V597H686V448H805V403H686ZM291 552H215V101H291V552ZM519 249V403H337V249H519ZM640 552H564V101H640V552Z"
/>
<glyph unicode="$" glyph-name="dollar" horiz-adv-x="926" d="M826 510V650H485V370H871V0H485V-122H440V0H55V185H100V45H440V325H55V695H440V817H485V695H871V510H826ZM176 650H100V370H176V650ZM749 45H826V325H749V45ZM485 325V45H704V325H485ZM440 650H222V370H440V650Z"
/>
<glyph unicode="%" glyph-name="percent" horiz-adv-x="924" d="M883 695L251 0H44L676 695H883ZM780 650H696L146 45H230L780 650ZM71 695H344V497H71V695ZM116 542H299V650H116V542ZM584 198H857V0H584V198ZM629 45H812V153H629V45Z" />
<glyph unicode="&amp;" glyph-name="ampersand" horiz-adv-x="683" d="M224 583V371H520V326H224V113H657V68H397V-73H352V68H57V628H352V770H397V628H657V583H224ZM179 583H102V113H179V583Z" />
<glyph unicode="&apos;" glyph-name="quotesingle" horiz-adv-x="375" d="M388 754L232 454H44L200 754H388ZM204 499L313 709H227L118 499H204Z" />
<glyph unicode="(" glyph-name="parenleft" horiz-adv-x="385" d="M215 38L384 -99H312L48 115V554L312 767H384L215 631V38ZM170 75V594L93 532V137L170 75Z" />
<glyph unicode=")" glyph-name="parenright" horiz-adv-x="385" d="M170 631L1 767H73L337 554V115L73 -99H1L170 38V631ZM292 137V532L215 594V75L292 137Z" />
<glyph unicode="*" glyph-name="asterisk" horiz-adv-x="589" d="M539 635V482H427L483 385L350 308L294 405L238 308L106 385L162 482H50V635H162L106 732L238 808L294 711L350 808L483 732L427 635H539ZM494 590H349L421 715L367 747L294 621L222 747L167 715L240
590H95V527H240L167 401L222 370L294 495L367 370L421 401L349 527H494V590Z" />
<glyph unicode="+" glyph-name="plus" horiz-adv-x="567" d="M517 409V256H306V99H261V256H50V409H261V566H306V409H517ZM472 364H95V301H472V364Z" />
<glyph unicode="," glyph-name="comma" horiz-adv-x="362" d="M303 153L147 -147H-41L115 153H303ZM119 -102L228 108H142L33 -102H119Z" />
<glyph unicode="-" glyph-name="hyphen" horiz-adv-x="585" d="M526 256H59V409H526V256ZM481 364H104V301H481V364Z" />
<glyph unicode="." glyph-name="period" horiz-adv-x="310" d="M251 0H59V153H251V0ZM206 108H104V45H206V108Z" />
<glyph unicode="/" glyph-name="slash" horiz-adv-x="714" d="M687 757L215 -147H27L499 757H687ZM187 -102L612 712H526L101 -102H187Z" />
<glyph unicode="0" glyph-name="zero" horiz-adv-x="948" d="M882 695V0H66V695H882ZM188 45V650H111V45H188ZM233 73L813 650H233V73ZM837 611L269 45H837V611Z" />
<glyph unicode="1" glyph-name="one" horiz-adv-x="652" d="M439 45H652V0H34V45H272V650H34V695H439V45ZM394 650H317V45H394V650Z" />
<glyph unicode="2" glyph-name="two" horiz-adv-x="940" d="M878 695V325H229V45H833V185H878V0H62V370H711V650H107V510H62V695H878ZM107 325V45H184V325H107ZM757 370H833V650H757V370Z" />
<glyph unicode="3" glyph-name="three" horiz-adv-x="939" d="M57 510V695H873V0H57V185H102V45H706V325H219V370H706V650H102V510H57ZM751 45H828V650H751V45Z" />
<glyph unicode="4" glyph-name="four" horiz-adv-x="923" d="M857 0H690V325H41V695H86V370H690V695H857V0ZM812 650H736V45H812V650Z" />
<glyph unicode="5" glyph-name="five" horiz-adv-x="940" d="M878 695V510H833V650H229V370H878V0H62V185H107V45H711V325H62V695H878ZM756 325V45H833V325H756ZM183 650H107V370H183V650Z" />
<glyph unicode="6" glyph-name="six" horiz-adv-x="944" d="M837 510V650H233V370H882V0H66V695H882V510H837ZM233 325V45H837V325H233ZM187 650H111V45H187V650Z" />
<glyph unicode="7" glyph-name="seven" horiz-adv-x="843" d="M777 0H610V650H65V510H20V695H777V0ZM731 650H655V45H731V650Z" />
<glyph unicode="8" glyph-name="eight" horiz-adv-x="948" d="M882 0H66V695H882V0ZM836 325H233V45H836V325ZM233 371H836V650H233V371ZM188 650H111V45H188V650Z" />
<glyph unicode="9" glyph-name="nine" horiz-adv-x="944" d="M107 185V45H711V325H62V695H878V0H62V185H107ZM711 370V650H107V370H711ZM757 45H833V650H757V45Z" />
<glyph unicode=":" glyph-name="colon" horiz-adv-x="322" d="M257 0H65V153H257V0ZM212 108H110V45H212V108ZM257 401H65V554H257V401ZM212 509H110V446H212V509Z" />
<glyph unicode=";" glyph-name="semicolon" horiz-adv-x="384" d="M303 401H111V554H303V401ZM258 509H156V446H258V509ZM312 153L156 -147H-32L124 153H312ZM128 -102L237 108H151L42 -102H128Z" />
<glyph unicode="&lt;" glyph-name="less" horiz-adv-x="649" d="M570 563L272 412L570 261V75L37 344L570 613V563ZM222 387L138 345L525 149V234L222 387Z" />
<glyph unicode="=" glyph-name="equal" horiz-adv-x="684" d="M619 396H65V549H619V396ZM574 504H110V441H574V504ZM619 133H65V286H619V133ZM574 241H110V178H574V241Z" />
<glyph unicode="&gt;" glyph-name="greater" horiz-adv-x="649" d="M79 125L377 276L79 427V613L612 344L79 75V125ZM427 301L511 343L124 539V454L427 301Z" />
<glyph unicode="?" glyph-name="question" horiz-adv-x="732" d="M674 695V325H411V212H244V370H507V650H89V510H44V695H674ZM289 325V257H366V325H289ZM553 370H629V650H553V370ZM423 0H231V153H423V0ZM378 108H276V45H378V108Z" />
<glyph unicode="@" glyph-name="at" horiz-adv-x="855" d="M623 314H357V154H190V540H668V199H744V616H114V78H789V33H69V661H789V154H623V314ZM311 495H235V199H311V495ZM623 359V495H357V359H623Z" />
<glyph unicode="A" glyph-name="A" horiz-adv-x="1063" d="M1046 45V0H803V45H902V325H298V45H397V0H31V45H131V650H31V695H947V45H1046ZM252 650H176V45H252V650ZM902 370V650H298V370H902Z" />
<glyph unicode="B" glyph-name="B" horiz-adv-x="1013" d="M908 348Q948 317 948 266V0H32V45H131V650H32V695H948V430Q948 379 908 348ZM253 650H176V45H253V650ZM902 266Q902 291 885 308T844 325H298V45H902V266ZM902 650H298V371H844Q868 371 885 388T902 430V650Z" />
<glyph unicode="C" glyph-name="C" horiz-adv-x="951" d="M855 510V650H298V45H855V185H900V0H32V45H131V650H32V695H900V510H855ZM253 650H177V45H253V650Z" />
<glyph unicode="D" glyph-name="D" horiz-adv-x="1008" d="M804 695Q863 695 905 653T948 550V144Q948 85 906 43T804 0H32V45H131V650H32V695H804ZM253 650H177V45H253V650ZM903 550Q903 591 874 620T804 650H298V45H804Q844 45 873 74T903 144V550Z" />
<glyph unicode="E" glyph-name="E" horiz-adv-x="997" d="M903 510V650H298V370H740V469H786V226H740V325H298V45H903V185H948V0H32V45H131V650H32V695H948V510H903ZM253 650H176V45H253V650Z" />
<glyph unicode="F" glyph-name="F" horiz-adv-x="937" d="M922 695V510H877V650H298V370H714V469H759V226H714V325H298V45H397V0H32V45H131V650H32V695H922ZM253 650H176V45H253V650Z" />
<glyph unicode="G" glyph-name="G" horiz-adv-x="1009" d="M902 510V650H298V45H902V325H519V370H947V0H31V45H131V650H31V695H947V510H902ZM252 650H176V45H252V650Z" />
<glyph unicode="H" glyph-name="H" horiz-adv-x="1078" d="M947 650V45H1046V0H803V45H902V325H297V45H397V0H31V45H131V650H31V695H397V650H297V370H902V650H803V695H1046V650H947ZM252 650H176V45H252V650Z" />
<glyph unicode="I" glyph-name="I" horiz-adv-x="565" d="M366 650V45H546V0H19V45H199V650H19V695H546V650H366ZM321 650H244V45H321V650Z" />
<glyph unicode="J" glyph-name="J" horiz-adv-x="889" d="M758 650V45H857V0H21V185H66V45H591V650H491V695H857V650H758ZM712 650H636V45H712V650Z" />
<glyph unicode="K" glyph-name="K" horiz-adv-x="1001" d="M896 45H1007V0H763V45H840L630 325H298V45H398V0H32V45H131V650H32V695H398V650H298V370H629L803 650H722V695H966V650H857L669 349L896 45ZM253 45V650H176V45H253Z" />
<glyph unicode="L" glyph-name="L" horiz-adv-x="918" d="M897 185V0H31V45H131V650H31V695H397V650H298V45H852V185H897ZM252 650H176V45H252V650Z" />
<glyph unicode="M" glyph-name="M" horiz-adv-x="1281" d="M1150 650V45H1249V0H884V45H983V586L640 -23L298 586V45H397V0H31V45H131V650H31V695H288L640 69L993 695H1249V650H1150ZM252 45V650H176V45H252ZM1105 45V650H1028V45H1105Z" />
<glyph unicode="N" glyph-name="N" horiz-adv-x="1119" d="M988 650V45H1087V0H834L298 612V45H397V0H32V45H131V650H32V695H286L821 83V650H722V695H1087V650H988ZM253 45V650H176V45H253ZM943 650H866V45H943V650Z" />
<glyph unicode="O" glyph-name="O" horiz-adv-x="948" d="M882 695V0H66V695H882ZM188 45V650H111V45H188ZM837 650H233V45H837V650Z" />
<glyph unicode="P" glyph-name="P" horiz-adv-x="956" d="M298 325V45H398V0H32V45H131V650H32V695H917V325H298ZM298 650V370H872V650H298ZM253 45V650H177V45H253Z" />
<glyph unicode="Q" glyph-name="Q" horiz-adv-x="948" d="M882 0H711L832 -80L806 -118L629 0H66V695H882V0ZM187 45V650H111V45H187ZM837 650H232V45H562L441 126L466 163L643 45H837V650Z" />
<glyph unicode="R" glyph-name="R" horiz-adv-x="1064" d="M908 348Q948 317 948 266V45H1047V0H804V45H902V266Q902 291 885 308T844 325H298V45H398V0H32V45H131V650H32V695H948V430Q948 379 908 348ZM253 650H177V45H253V650ZM902 650H298V371H844Q868 371
885 388T902 430V650Z" />
<glyph unicode="S" glyph-name="S" horiz-adv-x="940" d="M878 695V510H833V650H229V370H878V0H62V185H107V45H711V325H62V695H878ZM756 325V45H833V325H756ZM183 650H107V370H183V650Z" />
<glyph unicode="T" glyph-name="T" horiz-adv-x="971" d="M952 695V510H907V650H569V45H669V0H303V45H402V650H64V510H19V695H952ZM524 650H447V45H524V650Z" />
<glyph unicode="U" glyph-name="U" horiz-adv-x="1063" d="M1047 650H948V0H32V45H131V650H32V695H397V650H298V45H903V650H803V695H1047V650ZM253 650H176V45H253V650Z" />
<glyph unicode="V" glyph-name="V" horiz-adv-x="1040" d="M803 695H1047V650H939L695 0H32V45H131V650H32V695H397V650H298V45H662L889 650H803V695ZM253 650H176V45H253V650Z" />
<glyph unicode="W" glyph-name="W" horiz-adv-x="1363" d="M1232 650V45H1331V0H32V45H131V650H32V695H398V650H298V45H659V650H560V695H803V650H704V45H1065V650H966V695H1331V650H1232ZM253 650H177V45H253V650ZM1187 650H1110V45H1187V650Z" />
<glyph unicode="X" glyph-name="X" horiz-adv-x="955" d="M841 45H948V0H542V45H621L404 300L172 45H250V0H7V45H107L374 334L105 650H14V695H420V650H324L538 399L763 650H694V695H938V650H827L567 365L841 45ZM782 45L265 650H164L681 45H782Z" />
<glyph unicode="Y" glyph-name="Y" horiz-adv-x="924" d="M686 695H929V650H818L546 339V45H645V0H280V45H379V339L107 650H-5V695H239V650H167L412 370H513L758 650H686V695ZM501 45V325H424V45H501Z" />
<glyph unicode="Z" glyph-name="Z" horiz-adv-x="901" d="M863 185V0H25L612 650H84V510H39V695H877L291 45H818V185H863ZM776 650H672L127 45H230L776 650Z" />
<glyph unicode="[" glyph-name="bracketleft" horiz-adv-x="438" d="M237 722V-54H417V-99H70V767H417V722H237ZM192 722H115V-54H192V722Z" />
<glyph unicode="\" glyph-name="backslash" horiz-adv-x="714" d="M215 757L687 -147H499L27 757H215ZM613 -102L188 712H102L527 -102H613Z" />
<glyph unicode="]" glyph-name="bracketright" horiz-adv-x="438" d="M21 722V767H368V-99H21V-54H201V722H21ZM246 -54H323V722H246V-54Z" />
<glyph unicode="^" glyph-name="asciicircum" horiz-adv-x="505" d="M464 318H414L324 494L235 318H49L256 729L464 318ZM299 544L257 628L123 363H208L299 544Z" />
<glyph unicode="_" glyph-name="underscore" horiz-adv-x="857" d="M785 -97H72V-52H785V-97Z" />
<glyph unicode="`" glyph-name="grave" horiz-adv-x="423" d="M265 710L389 546H222L66 710H265ZM245 591H299L243 665H172L245 591Z" />
<glyph unicode="a" glyph-name="a" horiz-adv-x="787" d="M679 45H778V0H55V257H512V424H100V347H55V469H679V45ZM512 45V212H100V45H512ZM634 424H557V45H634V424Z" />
<glyph unicode="b" glyph-name="b" horiz-adv-x="758" d="M698 469V0H60V650H-39V695H227V469H698ZM182 650H105V45H182V650ZM653 45V424H227V45H653Z" />
<glyph unicode="c" glyph-name="c" horiz-adv-x="733" d="M639 122H684V0H60V469H684V347H639V424H227V45H639V122ZM182 424H105V45H182V424Z" />
<glyph unicode="d" glyph-name="d" horiz-adv-x="817" d="M531 469V650H432V695H698V45H797V0H60V469H531ZM576 45H653V650H576V45ZM105 45H531V424H105V45Z" />
<glyph unicode="e" glyph-name="e" horiz-adv-x="739" d="M60 469H684V212H227V45H639V122H684V0H60V469ZM227 424V257H639V424H227ZM105 45H182V424H105V45Z" />
<glyph unicode="f" glyph-name="f" horiz-adv-x="530" d="M301 650V469H516V424H301V45H400V0H35V45H134V424H35V469H134V695H552V650H301ZM256 650H179V45H256V650Z" />
<glyph unicode="g" glyph-name="g" horiz-adv-x="758" d="M698 -226H60V-104H105V-181H531V0H60V469H698V-226ZM531 424H105V45H531V424ZM653 424H576V-181H653V424Z" />
<glyph unicode="h" glyph-name="h" horiz-adv-x="866" d="M850 45V0H591V45H698V424H286V45H385V0H20V45H119V650H20V695H286V469H743V45H850ZM241 650H164V45H241V650Z" />
<glyph unicode="i" glyph-name="i" horiz-adv-x="420" d="M301 45H400V0H35V45H134V424H35V469H301V45ZM256 424H179V45H256V424ZM308 542H127V695H308V542ZM263 650H172V587H263V650Z" />
<glyph unicode="j" glyph-name="j" horiz-adv-x="345" d="M286 469V-226H-206V-104H-161V-181H119V424H20V469H286ZM241 424H164V-181H241V424ZM293 542H112V695H293V542ZM248 650H157V587H248V650Z" />
<glyph unicode="k" glyph-name="k" horiz-adv-x="783" d="M757 45V0H513V45H590L471 212H286V45H386V0H20V45H119V650H20V695H286V257H470L581 424H500V469H744V424H635L510 236L646 45H757ZM241 650H164V45H241V650Z" />
<glyph unicode="l" glyph-name="l" horiz-adv-x="405" d="M286 45H385V0H20V45H119V650H20V695H286V45ZM241 650H164V45H241V650Z" />
<glyph unicode="m" glyph-name="m" horiz-adv-x="1196" d="M1180 45V0H921V45H1028V424H683V45H790V0H531V45H638V424H301V45H400V0H35V45H134V424H35V469H1073V45H1180ZM256 424H179V45H256V424Z" />
<glyph unicode="n" glyph-name="n" horiz-adv-x="881" d="M35 469H758V45H865V0H606V45H713V424H301V45H400V0H35V45H134V424H35V469ZM256 45V424H179V45H256Z" />
<glyph unicode="o" glyph-name="o" horiz-adv-x="744" d="M684 0H60V469H684V0ZM639 424H227V45H639V424ZM182 424H105V45H182V424Z" />
<glyph unicode="p" glyph-name="p" horiz-adv-x="817" d="M20 -181H119V424H20V469H757V0H286V-181H385V-226H20V-181ZM712 424H286V45H712V424ZM241 424H164V-181H241V424Z" />
<glyph unicode="q" glyph-name="q" horiz-adv-x="758" d="M797 -226H432V-181H531V0H60V469H698V-181H797V-226ZM105 45H531V424H105V45ZM576 -181H653V424H576V-181Z" />
<glyph unicode="r" glyph-name="r" horiz-adv-x="695" d="M35 469H671V348H626V424H301V45H400V0H35V45H134V424H35V469ZM256 45V424H179V45H256Z" />
<glyph unicode="s" glyph-name="s" horiz-adv-x="734" d="M679 469V347H634V424H222V257H679V0H55V122H100V45H512V212H55V469H679ZM557 212V45H634V212H557ZM177 424H100V257H177V424Z" />
<glyph unicode="t" glyph-name="t" horiz-adv-x="500" d="M479 45V0H119V424H20V469H119V695H286V469H479V424H286V45H479ZM241 650H164V45H241V650Z" />
<glyph unicode="u" glyph-name="u" horiz-adv-x="866" d="M850 45V0H119V424H20V469H286V45H698V424H591V469H743V45H850ZM241 424H164V45H241V424Z" />
<glyph unicode="v" glyph-name="v" horiz-adv-x="894" d="M643 469H887V424H779L622 0H35V45H134V424H35V469H400V424H301V45H589L729 424H643V469ZM256 424H179V45H256V424Z" />
<glyph unicode="w" glyph-name="w" horiz-adv-x="1242" d="M1108 424V45H1207V0H35V45H134V424H35V469H401V424H301V45H599V424H500V469H743V424H644V45H941V424H842V469H1207V424H1108ZM256 424H180V45H256V424ZM1063 424H986V45H1063V424Z" />
<glyph unicode="x" glyph-name="x" horiz-adv-x="829" d="M803 45V0H398V45H488L333 215L168 45H269V0H25V45H106L303 248L142 424H40V469H446V424H355L501 265L655 424H546V469H791V424H718L531 232L702 45H803ZM549 45H641L294 424H203L549 45Z" />
<glyph unicode="y" glyph-name="y" horiz-adv-x="880" d="M860 424H761V-226H123V-104H168V-181H594V0H123V424H16V469H275V424H168V45H594V424H495V469H860V424ZM716 424H639V-181H716V424Z" />
<glyph unicode="z" glyph-name="z" horiz-adv-x="701" d="M614 122H659V0H28L408 424H89V347H44V469H673L294 45H614V122ZM233 45L570 424H467L130 45H233Z" />
<glyph unicode="{" glyph-name="braceleft" horiz-adv-x="465" d="M264 631V38L370 -47H444V-92H353L97 115V312H20V357H97V554L353 761H444V716H369L264 631ZM142 532V137L219 75V594L142 532Z" />
<glyph unicode="|" glyph-name="bar" horiz-adv-x="311" d="M239 -185H72V750H239V-185ZM193 705H117V-140H193V705Z" />
<glyph unicode="}" glyph-name="braceright" horiz-adv-x="465" d="M96 716H21V761H112L368 554V357H445V312H368V115L112 -92H21V-47H95L201 38V631L96 716ZM246 594V75L323 137V532L246 594Z" />
<glyph unicode="~" glyph-name="asciitilde" horiz-adv-x="784" d="M603 289H469L318 392L220 289H53L177 453H317L476 343L560 453H759L603 289ZM653 408H582L526 334H580L653 408ZM270 408H199L143 334H197L270 408Z" />
<glyph unicode="&#xa0;" glyph-name="space" horiz-adv-x="251" />
<glyph unicode="&#xa1;" glyph-name="exclamdown" horiz-adv-x="315" d="M234 275H83L55 -195H262L234 275ZM214 -150H103L126 230H191L214 -150ZM255 500H63V347H255V500ZM210 392H108V455H210V392Z" />
<glyph unicode="&#xa2;" glyph-name="cent" horiz-adv-x="672" d="M569 566V650H318V294H569V378H614V249H420V148H375V249H52V294H151V650H52V695H375V796H420V695H614V566H569ZM273 650H197V294H273V650Z" />
<glyph unicode="&#xa3;" glyph-name="sterling" horiz-adv-x="849" d="M803 695V510H758V650H317V296H507V251H317V45H726V0H50V45H150V251H50V296H150V695H803ZM271 650H195V45H271V650Z" />
<glyph unicode="&#xa4;" glyph-name="currency" horiz-adv-x="670" d="M505 403V256L613 148L581 116L460 237V421L581 542L613 510L505 403ZM210 238L89 116L57 148L165 257V402L57 510L89 542L210 421V238ZM244 454L122 575L154 607L262 499H408L516 607L548
575L426 454H244ZM427 204L548 83L516 51L408 159H262L154 51L122 83L243 204H427Z" />
<glyph unicode="&#xa5;" glyph-name="yen" horiz-adv-x="1002" d="M968 695V650H857L655 419H777V374H616L585 339V285H777V240H585V45H684V0H319V45H418V240H226V285H418V339L388 374H226V419H348L146 650H34V695H278V650H206L451 370H552L797 650H725V695H968ZM540
325H463V45H540V325Z" />
<glyph unicode="&#xa6;" glyph-name="brokenbar" horiz-adv-x="189" d="M117 834V459H72V834H117ZM117 327V-48H72V327H117Z" />
<glyph unicode="&#xa7;" glyph-name="section" horiz-adv-x="764" d="M656 552V650H230V454H701V168H534V409H63V695H701V552H656ZM579 213H656V409H579V213ZM184 650H108V454H184V650ZM108 -20V-118H534V78H63V364H230V123H701V-163H63V-20H108ZM185 319H108V123H185V319ZM580
-118H656V78H580V-118Z" />
<glyph unicode="&#xa8;" glyph-name="dieresis" horiz-adv-x="582" d="M260 546H95V688H260V546ZM215 643H140V591H215V643ZM491 546H326V688H491V546ZM446 643H371V591H446V643Z" />
<glyph unicode="&#xa9;" glyph-name="copyright" horiz-adv-x="824" d="M755 30H69V663H755V30ZM114 75H710V618H114V75ZM652 442V560H172V133H652V250H607V178H339V515H607V442H652ZM294 178H218V515H294V178Z" />
<glyph unicode="&#xaa;" glyph-name="ordfeminine" horiz-adv-x="486" d="M429 461V416H316V461H350V515H212V461H239V416H66V461H95V616H66V661H396V461H429ZM167 461V616H140V461H167ZM350 561V616H212V561H350Z" />
<glyph unicode="&#xab;" glyph-name="guillemotleft" horiz-adv-x="759" d="M691 519V469L515 379L691 290V104L280 311L691 519ZM465 354L381 312L646 178V263L465 354ZM446 468L136 311L446 154V103L35 310L446 518V468Z" />
<glyph unicode="&#xac;" glyph-name="logicalnot" horiz-adv-x="596" d="M54 497H533V252H488V344H54V497ZM99 452V389H488V452H99Z" />
<glyph unicode="&#xae;" glyph-name="registered" horiz-adv-x="824" d="M755 663V30H69V663H755ZM710 618H114V75H710V618ZM612 338Q652 307 652 256V133H606V256Q606 281 589 298T548 315H339V133H172V560H652V420Q652 369 612 338ZM339 515V361H548Q572 361
589 378T606 420V515H339ZM294 515H218V178H294V515Z" />
<glyph unicode="&#xb0;" glyph-name="degree" horiz-adv-x="343" d="M278 459H65V664H278V459ZM233 619H110V504H233V619Z" />
<glyph unicode="&#xb1;" glyph-name="plusminus" horiz-adv-x="581" d="M524 509V356H313V199H268V356H57V509H268V666H313V509H524ZM479 464H102V401H479V464ZM524 0H57V153H524V0ZM479 108H102V45H479V108Z" />
<glyph unicode="&#xb2;" glyph-name="twosuperior" horiz-adv-x="561" d="M195 485V365H450V425H495V320H65V530H364V650H110V590H65V695H495V485H195ZM409 530H450V650H409V530ZM150 485H110V365H150V485Z" />
<glyph unicode="&#xb3;" glyph-name="threesuperior" horiz-adv-x="561" d="M495 695V320H65V425H110V365H364V485H179V530H364V650H110V590H65V695H495ZM450 650H409V365H450V650Z" />
<glyph unicode="&#xb4;" glyph-name="acute" horiz-adv-x="451" d="M389 710L233 546H66L190 710H389ZM283 665H212L156 591H210L283 665Z" />
<glyph unicode="&#xb5;" glyph-name="mu" horiz-adv-x="937" d="M732 695H976V650H877V0H227V-125H326V-170H-39V-125H60V650H-39V695H326V650H227V45H832V650H732V695ZM182 -125V650H105V-125H182Z" />
<glyph unicode="&#xb6;" glyph-name="paragraph" horiz-adv-x="730" d="M589 650V-122H543V650H467V-122H422V325H50V695H688V650H589Z" />
<glyph unicode="&#xb7;" glyph-name="middot" horiz-adv-x="310" d="M251 273H59V426H251V273ZM206 381H104V318H206V381Z" />
<glyph unicode="&#xb8;" glyph-name="cedilla" horiz-adv-x="541" d="M403 45L284 -183H96L215 45H403ZM256 -138L328 0H243L170 -138H256Z" />
<glyph unicode="&#xb9;" glyph-name="onesuperior" horiz-adv-x="437" d="M394 365V320H62V365H174V650H62V695H305V365H394ZM260 365V650H219V365H260Z" />
<glyph unicode="&#xba;" glyph-name="ordmasculine" horiz-adv-x="431" d="M366 661V416H65V661H366ZM137 616H110V461H137V616ZM320 616H182V461H320V616Z" />
<glyph unicode="&#xbb;" glyph-name="guillemotright" horiz-adv-x="764" d="M69 103V153L245 243L69 332V518L480 311L69 103ZM295 268L379 310L114 444V359L295 268ZM314 104V154L624 311L314 468V519L725 312L314 104Z" />
<glyph unicode="&#xbc;" glyph-name="onequarter" horiz-adv-x="1265" d="M1083 375H1214V0H1083V165H784V375H829V210H1083V375ZM1169 45V330H1128V45H1169ZM379 365V320H47V365H159V650H47V695H290V365H379ZM245 365V650H204V365H245ZM963 738L363 -44H193L793
738H963ZM871 693H815L284 1H340L871 693Z" />
<glyph unicode="&#xbd;" glyph-name="onehalf" horiz-adv-x="1264" d="M636 365V320H304V365H416V650H304V695H547V365H636ZM502 365V650H461V365H502ZM964 738L364 -44H194L794 738H964ZM872 693H816L285 1H341L872 693ZM914 166V46H1169V106H1214V1H784V211H1083V331H829V271H784V376H1214V166H914ZM1128
211H1169V331H1128V211ZM869 166H829V46H869V166Z" />
<glyph unicode="&#xbe;" glyph-name="threequarters" horiz-adv-x="1382" d="M1333 375V0H1202V165H903V375H948V210H1202V375H1333ZM1288 330H1247V45H1288V330ZM1088 738L488 -44H318L918 738H1088ZM996 693H940L409 1H465L996 693ZM479 695V320H49V425H94V365H348V485H163V530H348V650H94V590H49V695H479ZM434
650H393V365H434V650Z" />
<glyph unicode="&#xbf;" glyph-name="questiondown" horiz-adv-x="721" d="M52 -195V175H315V288H482V130H219V-150H637V-10H682V-195H52ZM437 175V243H360V175H437ZM173 130H97V-150H173V130ZM303 500H495V347H303V500ZM348 392H450V455H348V392Z" />
<glyph unicode="&#xc0;" glyph-name="Agrave" horiz-adv-x="1063" d="M1046 45V0H803V45H902V325H298V45H397V0H31V45H131V650H31V695H947V45H1046ZM252 650H176V45H252V650ZM902 370V650H298V370H902ZM576 910L700 746H533L377 910H576ZM556 791H610L554 865H483L556
791Z" />
<glyph unicode="&#xc1;" glyph-name="Aacute" horiz-adv-x="1063" d="M1046 45V0H803V45H902V325H298V45H397V0H31V45H131V650H31V695H947V45H1046ZM252 650H176V45H252V650ZM902 370V650H298V370H902ZM750 910L594 746H427L551 910H750ZM644 865H573L517 791H571L644
865Z" />
<glyph unicode="&#xc2;" glyph-name="Acircumflex" horiz-adv-x="1063" d="M1046 45V0H803V45H902V325H298V45H397V0H31V45H131V650H31V695H947V45H1046ZM252 650H176V45H252V650ZM902 370V650H298V370H902ZM729 746H673L606 841L515 746H348L472 910H612L729
746ZM565 865H494L438 791H492L565 865Z" />
<glyph unicode="&#xc3;" glyph-name="Atilde" horiz-adv-x="1063" d="M1046 45V0H803V45H902V325H298V45H397V0H31V45H131V650H31V695H947V45H1046ZM252 650H176V45H252V650ZM902 370V650H298V370H902ZM723 746H589L522 841L431 746H264L388 910H528L601 807L680
910H879L723 746ZM773 865H702L646 791H700L773 865ZM481 865H410L354 791H408L481 865Z" />
<glyph unicode="&#xc4;" glyph-name="Adieresis" horiz-adv-x="1063" d="M1046 45V0H803V45H902V325H298V45H397V0H31V45H131V650H31V695H947V45H1046ZM252 650H176V45H252V650ZM902 370V650H298V370H902ZM506 746H341V888H506V746ZM461 843H386V791H461V843ZM737
746H572V888H737V746ZM692 843H617V791H692V843Z" />
<glyph unicode="&#xc5;" glyph-name="Aring" horiz-adv-x="1063" d="M1046 45V0H803V45H902V325H298V45H397V0H31V45H131V650H31V695H947V45H1046ZM252 650H176V45H252V650ZM902 370V650H298V370H902ZM643 746H430V922H643V746ZM598 877H475V791H598V877Z" />
<glyph unicode="&#xc6;" glyph-name="AE" horiz-adv-x="1701" d="M1607 510V650H1002V370H1444V469H1490V226H1444V325H1002V45H1607V185H1652V0H736V45H835V325H258L153 45H239V0H-5V45H103L347 695H1652V510H1607ZM835 370V650H380L275 370H835ZM957 650H880V45H957V650Z"
/>
<glyph unicode="&#xc7;" glyph-name="Ccedilla" horiz-adv-x="951" d="M855 510V650H298V45H855V185H900V0H640L545 -183H357L452 0H32V45H131V650H32V695H900V510H855ZM253 650H177V45H253V650ZM517 -138L589 0H504L431 -138H517Z" />
<glyph unicode="&#xc8;" glyph-name="Egrave" horiz-adv-x="997" d="M903 510V650H298V370H740V469H786V226H740V325H298V45H903V185H948V0H32V45H131V650H32V695H948V510H903ZM253 650H176V45H253V650ZM535 910L659 746H492L336 910H535ZM515 791H569L513 865H442L515
791Z" />
<glyph unicode="&#xc9;" glyph-name="Eacute" horiz-adv-x="997" d="M903 510V650H298V370H740V469H786V226H740V325H298V45H903V185H948V0H32V45H131V650H32V695H948V510H903ZM253 650H176V45H253V650ZM709 910L553 746H386L510 910H709ZM603 865H532L476 791H530L603
865Z" />
<glyph unicode="&#xca;" glyph-name="Ecircumflex" horiz-adv-x="997" d="M903 510V650H298V370H740V469H786V226H740V325H298V45H903V185H948V0H32V45H131V650H32V695H948V510H903ZM253 650H176V45H253V650ZM688 746H632L565 841L474 746H307L431 910H571L688
746ZM524 865H453L397 791H451L524 865Z" />
<glyph unicode="&#xcb;" glyph-name="Edieresis" horiz-adv-x="997" d="M903 510V650H298V370H740V469H786V226H740V325H298V45H903V185H948V0H32V45H131V650H32V695H948V510H903ZM253 650H176V45H253V650ZM490 746H325V888H490V746ZM445 843H370V791H445V843ZM721
746H556V888H721V746ZM676 843H601V791H676V843Z" />
<glyph unicode="&#xcc;" glyph-name="Igrave" horiz-adv-x="565" d="M366 650V45H546V0H19V45H199V650H19V695H546V650H366ZM321 650H244V45H321V650ZM289 910L413 746H246L90 910H289ZM269 791H323L267 865H196L269 791Z" />
<glyph unicode="&#xcd;" glyph-name="Iacute" horiz-adv-x="565" d="M366 650V45H546V0H19V45H199V650H19V695H546V650H366ZM321 650H244V45H321V650ZM475 910L319 746H152L276 910H475ZM369 865H298L242 791H296L369 865Z" />
<glyph unicode="&#xce;" glyph-name="Icircumflex" horiz-adv-x="565" d="M366 650V45H546V0H19V45H199V650H19V695H546V650H366ZM321 650H244V45H321V650ZM464 746H408L341 841L250 746H83L207 910H347L464 746ZM300 865H229L173 791H227L300 865Z" />
<glyph unicode="&#xcf;" glyph-name="Idieresis" horiz-adv-x="565" d="M366 650V45H546V0H19V45H199V650H19V695H546V650H366ZM321 650H244V45H321V650ZM250 746H85V888H250V746ZM205 843H130V791H205V843ZM481 746H316V888H481V746ZM436 843H361V791H436V843Z" />
<glyph unicode="&#xd0;" glyph-name="Eth" horiz-adv-x="1009" d="M805 695Q864 695 906 653T949 550V144Q949 85 907 43T805 0H33V45H132V325H33V370H132V650H33V695H805ZM254 650H178V45H254V650ZM904 550Q904 591 875 620T805 650H299V370H521V325H299V45H805Q845
45 874 74T904 144V550Z" />
<glyph unicode="&#xd1;" glyph-name="Ntilde" horiz-adv-x="1119" d="M988 650V45H1087V0H834L298 612V45H397V0H32V45H131V650H32V695H286L821 83V650H722V695H1087V650H988ZM253 45V650H176V45H253ZM943 650H866V45H943V650ZM721 746H587L520 841L429 746H262L386
910H526L599 807L678 910H877L721 746ZM771 865H700L644 791H698L771 865ZM479 865H408L352 791H406L479 865Z" />
<glyph unicode="&#xd2;" glyph-name="Ograve" horiz-adv-x="946" d="M882 695V0H66V695H882ZM188 45V650H111V45H188ZM837 650H233V45H837V650ZM509 910L633 746H466L310 910H509ZM489 791H543L487 865H416L489 791Z" />
<glyph unicode="&#xd3;" glyph-name="Oacute" horiz-adv-x="946" d="M882 695V0H66V695H882ZM188 45V650H111V45H188ZM837 650H233V45H837V650ZM677 910L521 746H354L478 910H677ZM571 865H500L444 791H498L571 865Z" />
<glyph unicode="&#xd4;" glyph-name="Ocircumflex" horiz-adv-x="946" d="M882 695V0H66V695H882ZM188 45V650H111V45H188ZM837 650H233V45H837V650ZM679 746H623L556 841L465 746H298L422 910H562L679 746ZM515 865H444L388 791H442L515 865Z" />
<glyph unicode="&#xd5;" glyph-name="Otilde" horiz-adv-x="946" d="M882 695V0H66V695H882ZM188 45V650H111V45H188ZM837 650H233V45H837V650ZM665 746H531L464 841L373 746H206L330 910H470L543 807L622 910H821L665 746ZM715 865H644L588 791H642L715 865ZM423
865H352L296 791H350L423 865Z" />
<glyph unicode="&#xd6;" glyph-name="Odieresis" horiz-adv-x="946" d="M882 695V0H66V695H882ZM188 45V650H111V45H188ZM837 650H233V45H837V650ZM455 746H290V888H455V746ZM410 843H335V791H410V843ZM686 746H521V888H686V746ZM641 843H566V791H641V843Z" />
<glyph unicode="&#xd7;" glyph-name="multiply" horiz-adv-x="810" d="M762 125H512L355 265L173 125H98L321 296L48 539H298L455 400L638 539H713L490 369L762 125ZM645 170L282 494H167L530 170H645Z" />
<glyph unicode="&#xd8;" glyph-name="Oslash" horiz-adv-x="976" d="M882 0H224L94 -129L62 -97L160 0H66V695H858L939 775L970 743L882 655V0ZM111 45H188V650H111V45ZM233 73L813 650H233V73ZM837 45V611L269 45H837Z" />
<glyph unicode="&#xd9;" glyph-name="Ugrave" horiz-adv-x="1063" d="M1047 650H948V0H32V45H131V650H32V695H397V650H298V45H903V650H803V695H1047V650ZM253 650H176V45H253V650ZM577 910L701 746H534L378 910H577ZM557 791H611L555 865H484L557 791Z" />
<glyph unicode="&#xda;" glyph-name="Uacute" horiz-adv-x="1063" d="M1047 650H948V0H32V45H131V650H32V695H397V650H298V45H903V650H803V695H1047V650ZM253 650H176V45H253V650ZM755 910L599 746H432L556 910H755ZM649 865H578L522 791H576L649 865Z" />
<glyph unicode="&#xdb;" glyph-name="Ucircumflex" horiz-adv-x="1063" d="M1047 650H948V0H32V45H131V650H32V695H397V650H298V45H903V650H803V695H1047V650ZM253 650H176V45H253V650ZM744 746H688L621 841L530 746H363L487 910H627L744 746ZM580 865H509L453
791H507L580 865Z" />
<glyph unicode="&#xdc;" glyph-name="Udieresis" horiz-adv-x="1063" d="M1047 650H948V0H32V45H131V650H32V695H397V650H298V45H903V650H803V695H1047V650ZM253 650H176V45H253V650ZM519 746H354V888H519V746ZM474 843H399V791H474V843ZM750 746H585V888H750V746ZM705
843H630V791H705V843Z" />
<glyph unicode="&#xdd;" glyph-name="Yacute" horiz-adv-x="924" d="M686 695H929V650H818L546 339V45H645V0H280V45H379V339L107 650H-5V695H239V650H167L412 370H513L758 650H686V695ZM501 45V325H424V45H501ZM668 910L512 746H345L469 910H668ZM562 865H491L435
791H489L562 865Z" />
<glyph unicode="&#xde;" glyph-name="Thorn" horiz-adv-x="963" d="M298 176V45H398V0H32V45H131V650H32V695H397V650H298V546H917V176H298ZM253 650H177V45H253V650ZM298 221H872V501H298V221Z" />
<glyph unicode="&#xdf;" glyph-name="germandbls" horiz-adv-x="1014" d="M909 348Q949 317 949 266V0H430V45H903V266Q903 291 886 308T845 325H430V371H845Q869 371 886 388T903 430V650H299V-81H33V-36H132V650H33V695H949V430Q949 379 909 348ZM254 650H178V-36H254V650Z"
/>
<glyph unicode="&#xe0;" glyph-name="agrave" horiz-adv-x="787" d="M679 45H778V0H55V257H512V424H100V347H55V469H679V45ZM512 45V212H100V45H512ZM634 424H557V45H634V424ZM388 710L512 546H345L189 710H388ZM368 591H422L366 665H295L368 591Z" />
<glyph unicode="&#xe1;" glyph-name="aacute" horiz-adv-x="787" d="M679 45H778V0H55V257H512V424H100V347H55V469H679V45ZM512 45V212H100V45H512ZM634 424H557V45H634V424ZM542 710L386 546H219L343 710H542ZM436 665H365L309 591H363L436 665Z" />
<glyph unicode="&#xe2;" glyph-name="acircumflex" horiz-adv-x="787" d="M679 45H778V0H55V257H512V424H100V347H55V469H679V45ZM512 45V212H100V45H512ZM634 424H557V45H634V424ZM567 546H511L444 641L353 546H186L310 710H450L567 546ZM403 665H332L276 591H330L403
665Z" />
<glyph unicode="&#xe3;" glyph-name="atilde" horiz-adv-x="787" d="M679 45H778V0H55V257H512V424H100V347H55V469H679V45ZM512 45V212H100V45H512ZM634 424H557V45H634V424ZM553 546H419L352 641L261 546H94L218 710H358L431 607L510 710H709L553 546ZM603 665H532L476
591H530L603 665ZM311 665H240L184 591H238L311 665Z" />
<glyph unicode="&#xe4;" glyph-name="adieresis" horiz-adv-x="787" d="M679 45H778V0H55V257H512V424H100V347H55V469H679V45ZM512 45V212H100V45H512ZM634 424H557V45H634V424ZM340 546H175V688H340V546ZM295 643H220V591H295V643ZM571 546H406V688H571V546ZM526
643H451V591H526V643Z" />
<glyph unicode="&#xe5;" glyph-name="aring" horiz-adv-x="787" d="M679 45H778V0H55V257H512V424H100V347H55V469H679V45ZM512 45V212H100V45H512ZM634 424H557V45H634V424ZM466 546H253V722H466V546ZM421 677H298V591H421V677Z" />
<glyph unicode="&#xe6;" glyph-name="ae" horiz-adv-x="1191" d="M55 257H512V424H100V347H55V469H1136V212H679V45H1091V122H1136V0H55V257ZM679 424V257H1091V424H679ZM512 45V212H100V45H512ZM634 424H557V45H634V424Z" />
<glyph unicode="&#xe7;" glyph-name="ccedilla" horiz-adv-x="733" d="M639 122H684V0H504L409 -183H221L316 0H60V469H684V347H639V424H227V45H639V122ZM182 424H105V45H182V424ZM381 -138L453 0H368L295 -138H381Z" />
<glyph unicode="&#xe8;" glyph-name="egrave" horiz-adv-x="738" d="M60 469H684V212H227V45H639V122H684V0H60V469ZM227 424V257H639V424H227ZM105 45H182V424H105V45ZM394 710L518 546H351L195 710H394ZM374 591H428L372 665H301L374 591Z" />
<glyph unicode="&#xe9;" glyph-name="eacute" horiz-adv-x="738" d="M60 469H684V212H227V45H639V122H684V0H60V469ZM227 424V257H639V424H227ZM105 45H182V424H105V45ZM559 710L403 546H236L360 710H559ZM453 665H382L326 591H380L453 665Z" />
<glyph unicode="&#xea;" glyph-name="ecircumflex" horiz-adv-x="738" d="M60 469H684V212H227V45H639V122H684V0H60V469ZM227 424V257H639V424H227ZM105 45H182V424H105V45ZM561 546H505L438 641L347 546H180L304 710H444L561 546ZM397 665H326L270 591H324L397 665Z" />
<glyph unicode="&#xeb;" glyph-name="edieresis" horiz-adv-x="738" d="M60 469H684V212H227V45H639V122H684V0H60V469ZM227 424V257H639V424H227ZM105 45H182V424H105V45ZM343 546H178V688H343V546ZM298 643H223V591H298V643ZM574 546H409V688H574V546ZM529 643H454V591H529V643Z"
/>
<glyph unicode="&#xec;" glyph-name="igrave" horiz-adv-x="420" d="M301 45H400V0H35V45H134V424H35V469H301V45ZM256 424H179V45H256V424ZM471 710L595 546H428L272 710H471ZM451 591H505L449 665H378L451 591Z" />
<glyph unicode="&#xed;" glyph-name="iacute" horiz-adv-x="420" d="M301 45H400V0H35V45H134V424H35V469H301V45ZM256 424H179V45H256V424ZM406 710L250 546H83L207 710H406ZM300 665H229L173 591H227L300 665Z" />
<glyph unicode="&#xee;" glyph-name="icircumflex" horiz-adv-x="420" d="M301 45H400V0H35V45H134V424H35V469H301V45ZM256 424H179V45H256V424ZM643 546H587L520 641L429 546H262L386 710H526L643 546ZM479 665H408L352 591H406L479 665Z" />
<glyph unicode="&#xef;" glyph-name="idieresis" horiz-adv-x="420" d="M301 45H400V0H35V45H134V424H35V469H301V45ZM256 424H179V45H256V424ZM438 546H273V688H438V546ZM393 643H318V591H393V643ZM669 546H504V688H669V546ZM624 643H549V591H624V643Z" />
<glyph unicode="&#xf0;" glyph-name="eth" horiz-adv-x="744" d="M684 469V0H60V469H613L367 631L307 559L281 581L338 650L230 722L259 757L366 684L441 774L468 752L395 665L684 469ZM182 424H105V45H182V424ZM639 424H227V45H639V424Z" />
<glyph unicode="&#xf1;" glyph-name="ntilde" horiz-adv-x="881" d="M35 469H758V45H865V0H606V45H713V424H301V45H400V0H35V45H134V424H35V469ZM256 45V424H179V45H256ZM608 546H474L407 641L316 546H149L273 710H413L486 607L565 710H764L608 546ZM658 665H587L531
591H585L658 665ZM366 665H295L239 591H293L366 665Z" />
<glyph unicode="&#xf2;" glyph-name="ograve" horiz-adv-x="742" d="M684 0H60V469H684V0ZM639 424H227V45H639V424ZM182 424H105V45H182V424ZM401 710L525 546H358L202 710H401ZM381 591H435L379 665H308L381 591Z" />
<glyph unicode="&#xf3;" glyph-name="oacute" horiz-adv-x="742" d="M684 0H60V469H684V0ZM639 424H227V45H639V424ZM182 424H105V45H182V424ZM568 710L412 546H245L369 710H568ZM462 665H391L335 591H389L462 665Z" />
<glyph unicode="&#xf4;" glyph-name="ocircumflex" horiz-adv-x="742" d="M684 0H60V469H684V0ZM639 424H227V45H639V424ZM182 424H105V45H182V424ZM557 546H501L434 641L343 546H176L300 710H440L557 546ZM393 665H322L266 591H320L393 665Z" />
<glyph unicode="&#xf5;" glyph-name="otilde" horiz-adv-x="742" d="M684 0H60V469H684V0ZM639 424H227V45H639V424ZM182 424H105V45H182V424ZM560 546H426L359 641L268 546H101L225 710H365L438 607L517 710H716L560 546ZM610 665H539L483 591H537L610 665ZM318
665H247L191 591H245L318 665Z" />
<glyph unicode="&#xf6;" glyph-name="odieresis" horiz-adv-x="742" d="M684 0H60V469H684V0ZM639 424H227V45H639V424ZM182 424H105V45H182V424ZM345 546H180V688H345V546ZM300 643H225V591H300V643ZM576 546H411V688H576V546ZM531 643H456V591H531V643Z" />
<glyph unicode="&#xf7;" glyph-name="divide" horiz-adv-x="643" d="M592 409V256H51V409H592ZM547 364H96V301H547V364ZM225 218H417V65H225V218ZM270 110H372V173H270V110ZM417 448H225V601H417V448ZM372 556H270V493H372V556Z" />
<glyph unicode="&#xf8;" glyph-name="oslash" horiz-adv-x="744" d="M760 505L684 435V0H211L96 -106L66 -73L145 0H60V469H655L731 538L760 505ZM182 45V424H105V45H182ZM227 76L606 424H227V76ZM639 393L260 45H639V393Z" />
<glyph unicode="&#xf9;" glyph-name="ugrave" horiz-adv-x="866" d="M850 45V0H119V424H20V469H286V45H698V424H591V469H743V45H850ZM241 424H164V45H241V424ZM439 710L563 546H396L240 710H439ZM419 591H473L417 665H346L419 591Z" />
<glyph unicode="&#xfa;" glyph-name="uacute" horiz-adv-x="866" d="M850 45V0H119V424H20V469H286V45H698V424H591V469H743V45H850ZM241 424H164V45H241V424ZM635 710L479 546H312L436 710H635ZM529 665H458L402 591H456L529 665Z" />
<glyph unicode="&#xfb;" glyph-name="ucircumflex" horiz-adv-x="866" d="M850 45V0H119V424H20V469H286V45H698V424H591V469H743V45H850ZM241 424H164V45H241V424ZM610 546H554L487 641L396 546H229L353 710H493L610 546ZM446 665H375L319 591H373L446 665Z" />
<glyph unicode="&#xfc;" glyph-name="udieresis" horiz-adv-x="866" d="M850 45V0H119V424H20V469H286V45H698V424H591V469H743V45H850ZM241 424H164V45H241V424ZM396 546H231V688H396V546ZM351 643H276V591H351V643ZM627 546H462V688H627V546ZM582 643H507V591H582V643Z" />
<glyph unicode="&#xfd;" glyph-name="yacute" horiz-adv-x="880" d="M860 424H761V-226H123V-104H168V-181H594V0H123V424H16V469H275V424H168V45H594V424H495V469H860V424ZM716 424H639V-181H716V424ZM599 710L443 546H276L400 710H599ZM493 665H422L366 591H420L493
665Z" />
<glyph unicode="&#xfe;" glyph-name="thorn" horiz-adv-x="758" d="M227 0V-181H326V-226H-39V-181H60V650H-39V695H227V469H698V0H227ZM227 45H653V424H227V45ZM182 650H105V-181H182V650Z" />
<glyph unicode="&#xff;" glyph-name="ydieresis" horiz-adv-x="880" d="M860 424H761V-226H123V-104H168V-181H594V0H123V424H16V469H275V424H168V45H594V424H495V469H860V424ZM716 424H639V-181H716V424ZM396 546H231V688H396V546ZM351 643H276V591H351V643ZM627
546H462V688H627V546ZM582 643H507V591H582V643Z" />
<glyph unicode="&#x2013;" glyph-name="endash" horiz-adv-x="640" d="M581 256H59V409H581V256ZM536 364H104V301H536V364Z" />
<glyph unicode="&#x2014;" glyph-name="emdash" horiz-adv-x="789" d="M730 256H59V409H730V256ZM685 364H104V301H685V364Z" />
<glyph unicode="&#x2018;" glyph-name="quoteleft" horiz-adv-x="375" d="M175 754L331 454H143L-13 754H175ZM257 499L148 709H62L171 499H257Z" />
<glyph unicode="&#x2019;" glyph-name="quoteright" horiz-adv-x="375" d="M388 754L232 454H44L200 754H388ZM204 499L313 709H227L118 499H204Z" />
<glyph unicode="&#x201a;" glyph-name="quotesinglbase" horiz-adv-x="362" d="M303 153L147 -147H-41L115 153H303ZM119 -102L228 108H142L33 -102H119Z" />
<glyph unicode="&#x201c;" glyph-name="quotedblleft" horiz-adv-x="652" d="M452 754L608 454H420L264 754H452ZM534 499L425 709H339L448 499H534ZM175 754L331 454H143L-13 754H175ZM257 499L148 709H62L171 499H257Z" />
<glyph unicode="&#x201d;" glyph-name="quotedblright" horiz-adv-x="652" d="M388 754L232 454H44L200 754H388ZM204 499L313 709H227L118 499H204ZM665 754L509 454H321L477 754H665ZM481 499L590 709H504L395 499H481Z" />
<glyph unicode="&#x201e;" glyph-name="quotedblbase" horiz-adv-x="639" d="M303 153L147 -147H-41L115 153H303ZM119 -102L228 108H142L33 -102H119ZM580 153L424 -147H236L392 153H580ZM396 -102L505 108H419L310 -102H396Z" />
<glyph unicode="&#x2022;" glyph-name="bullet" horiz-adv-x="396" d="M317 237H79V428H317V237Z" />
<glyph unicode="&#x2039;" glyph-name="guilsinglleft" horiz-adv-x="514" d="M446 518V468L270 378L446 289V103L35 310L446 518ZM220 353L136 311L401 177V262L220 353Z" />
<glyph unicode="&#x203a;" glyph-name="guilsinglright" horiz-adv-x="517" d="M69 103V153L245 243L69 332V518L480 311L69 103ZM295 268L379 310L114 444V359L295 268Z" />
</font>
</defs>
</svg>
