<?xml version="1.0" standalone="no"?>
<!DOCTYPE svg PUBLIC "-//W3C//DTD SVG 1.1//EN" "http://www.w3.org/Graphics/SVG/1.1/DTD/svg11.dtd">
<svg xmlns="http://www.w3.org/2000/svg">
<defs >
<font id="HennyPenny" horiz-adv-x="931" ><font-face
    font-family="Henny Penny"
    units-per-em="2048"
    panose-1="2 0 5 5 0 0 0 2 0 4"
    ascent="2324"
    descent="-1305"
    alphabetic="0" />
<glyph unicode=" " glyph-name="space" horiz-adv-x="553" />
<glyph unicode="!" glyph-name="exclam" horiz-adv-x="510" d="M244 -74Q219 -74 196 -65T154 -38T124 4T113 61Q113 99 125 124T155 166T196 188T240 195Q264 195 287 186T329 161T359 119T371 63Q371 30 361 5T334 -38T293 -65T244 -74ZM244 408Q235 409 232
425T227 469T225 538T225 627Q224 705 221 780T212 931T198 1084T178 1243Q166 1334 154 1411T131 1554T113 1673T106 1767Q106 1805 113 1836T137 1891T180 1926T242 1939Q291 1939 322 1919T370 1864T394 1779T401 1671Q401 1599 397 1509T385 1320T368 1122T348
931T327 764T309 635Q291 520 277 463T244 408Z" />
<glyph unicode="&quot;" glyph-name="quotedbl" horiz-adv-x="600" d="M172 1679Q204 1679 224 1657T244 1579Q244 1556 244 1502T243 1379T239 1238T233 1104T222 1004T205 965Q199 965 192 987T176 1048T159 1135T142 1238T127 1345T114 1445T105 1526T102 1579Q102
1679 172 1679ZM426 1712Q447 1712 460 1703T481 1678T491 1644T494 1604Q494 1575 492 1534T487 1449T481 1368T475 1307Q473 1282 470 1249T462 1180T452 1111T440 1051T427 1008T412 991Q401 991 393 1025T377 1115T365 1238T357 1372T352 1496T350 1589Q350
1651 367 1681T426 1712Z" />
<glyph unicode="#" glyph-name="numbersign" horiz-adv-x="2111" d="M1180 1653Q1192 1653 1196 1644T1200 1624Q1200 1608 1188 1569T1156 1479T1114 1370T1068 1257T1027 1157T999 1085Q993 1068 990 1057T987 1036Q987 1020 1003 1011T1041 998T1089 994T1133
993Q1178 993 1201 1009T1241 1053Q1256 1077 1275 1115T1314 1196T1352 1278T1382 1348Q1388 1360 1394 1373T1407 1396T1423 1414T1442 1421Q1450 1421 1455 1414T1460 1395Q1460 1374 1449 1340T1421 1266T1385 1185T1348 1106T1320 1041T1309 1001Q1309 984
1321 980T1348 973Q1370 970 1413 969T1510 967T1626 964T1748 962T1863 957T1958 950Q1984 947 1995 941T2007 920Q2007 891 1954 891Q1930 891 1888 894T1800 903T1710 912T1640 920Q1623 921 1596 923T1535 927T1466 930T1397 932Q1363 932 1336 931T1292 924Q1271
917 1260 904T1237 870Q1234 866 1223 842T1196 785T1162 712T1127 638T1098 575T1081 537Q1075 520 1075 512Q1075 506 1080 501T1096 496Q1132 496 1181 502T1284 516T1395 535T1501 554T1590 569T1653 575Q1676 575 1685 569T1694 551Q1694 537 1681 528T1630
510Q1596 504 1519 495T1335 471Q1249 460 1187 450T1075 428Q1046 420 1028 401T993 344Q990 338 975 303T937 213T886 90T827 -51T767 -194T713 -323T672 -423T649 -477Q638 -504 627 -531T602 -579T575 -613T545 -627Q531 -627 523 -617T514 -592Q514 -571 521
-545T538 -494T557 -447T571 -414Q591 -364 617 -302T673 -173T730 -41T783 80T825 175T850 231Q858 251 867 274T885 318T898 357T903 383Q903 399 879 399Q864 399 842 397T798 391T757 382T727 373Q712 365 703 354T684 322Q683 319 669 285T632 201T584 91T535
-21T493 -113T469 -162Q459 -180 449 -199T428 -235T403 -263T373 -274Q359 -274 349 -263T338 -229Q338 -199 355 -149T397 -39T451 82T506 197T548 287T565 336Q565 354 539 354Q506 354 458 348T358 336T258 323T178 317Q158 317 146 320T127 329T118 342T115
356Q115 375 128 384T170 399Q179 401 210 404T284 411T374 420T466 430T543 441T590 451Q616 460 630 474T653 502Q658 511 672 538T704 602T741 682T777 767T804 845T815 903Q815 928 797 943T729 963Q655 969 591 972T461 978T326 983T170 991Q142 993 122 997T102
1022Q102 1037 119 1042T162 1047Q173 1047 213 1046T311 1041T437 1036T572 1030T700 1026T801 1024Q841 1024 870 1031T918 1067Q925 1080 942 1119T981 1211T1026 1323T1070 1434T1105 1525T1124 1575Q1140 1615 1152 1634T1180 1653ZM999 944Q987 942 975 939T951
928T925 906T899 866Q893 856 884 834T862 782T837 718T810 649Q779 568 743 471Q788 471 828 474Q862 476 895 480T944 492Q965 502 979 519T1006 561T1031 614T1059 678Q1078 721 1096 767T1129 850T1151 912T1159 936Q1128 939 1083 941T999 944Z" />
<glyph unicode="$" glyph-name="dollar" horiz-adv-x="1638" d="M1049 1849Q1057 1849 1063 1842T1069 1812Q1069 1788 1060 1732T1038 1606Q1082 1598 1118 1591T1188 1583Q1215 1583 1239 1595T1283 1625T1322 1664T1354 1703T1380 1733T1401 1745Q1409 1745
1412 1740T1415 1729Q1415 1716 1406 1697T1383 1648T1351 1573T1319 1466Q1304 1402 1295 1336T1277 1216T1260 1128T1237 1094Q1228 1094 1226 1114T1221 1171T1214 1256T1194 1364Q1187 1392 1174 1420T1139 1475T1091 1522T1030 1556Q1018 1493 1007 1432T987
1321L930 1014Q991 942 1058 867T1180 711T1271 539T1307 346Q1307 206 1264 108T1149 -53T983 -143T786 -172Q727 -172 678 -160L662 -225Q636 -334 617 -383T580 -432Q561 -432 561 -403Q561 -391 567 -361T581 -294T600 -216T618 -141Q569 -121 531 -95T463
-44T407 -3T356 14Q330 14 306 -7T260 -54T221 -101T193 -123Q184 -123 184 -113Q184 -101 198 -72T232 0T275 100T317 221Q339 297 349 359T365 467T377 536T395 561Q412 561 412 516Q412 485 412 450T414 377T420 303T432 233Q458 121 510 45T637 -70Q665 51
688 153T730 348T768 528T805 705Q748 764 693 824T593 949T521 1084T494 1233Q494 1342 533 1416T633 1535T769 1599T918 1618Q933 1618 948 1617T979 1614Q988 1671 997 1716T1012 1790Q1018 1822 1027 1835T1049 1849ZM1083 197Q1083 264 1065 324T1016 439T944
545T858 647L694 -92Q719 -98 745 -102T799 -106Q865 -106 917 -85T1007 -23T1063 72T1083 197ZM743 1378Q743 1338 753 1300T782 1224T825 1149T879 1073L973 1571Q965 1573 955 1574T936 1575Q893 1575 858 1562T797 1524T757 1463T743 1378Z" />
<glyph unicode="%" glyph-name="percent" horiz-adv-x="1616" d="M459 1888Q539 1888 603 1864T713 1795T782 1684T807 1538Q807 1433 773 1363T685 1251T569 1192T449 1174Q388 1174 328 1194T219 1258T141 1369T111 1532Q111 1623 138 1690T213 1801T324 1866T459
1888ZM446 1839Q409 1839 382 1823T338 1779T312 1711T303 1624Q303 1537 316 1463T355 1335T417 1251T500 1221Q540 1221 567 1244T610 1304T632 1389T639 1485Q639 1539 631 1601T602 1716T543 1804T446 1839ZM1186 846Q1268 846 1337 818T1456 741T1535 625T1563
479Q1563 379 1530 304T1439 178T1305 102T1145 76Q1070 76 1005 97T891 163T814 274T786 432Q786 537 820 615T911 744T1039 821T1186 846ZM1180 795Q1136 795 1098 774T1030 707T984 593T967 430Q967 359 982 304T1025 210T1088 153T1167 133Q1219 133 1256 158T1319
228T1356 339T1368 485Q1368 570 1354 629T1315 725T1256 778T1180 795ZM1398 1903Q1415 1903 1415 1882Q1415 1869 1401 1840T1363 1770T1310 1684T1250 1593T1191 1508T1142 1438Q1107 1388 1057 1318T948 1166T824 995T695 817T569 644T455 490T364 365T305
283Q266 227 229 177T163 84Q131 38 108 10T65 -18Q56 -18 50 -13T43 6Q43 31 73 83T155 207Q212 287 278 379T417 578Q473 659 542 755T686 955T838 1165T990 1373T1131 1566T1251 1733Q1278 1770 1300 1801T1340 1855T1372 1890T1398 1903Z" />
<glyph unicode="&amp;" glyph-name="ampersand" horiz-adv-x="1585" d="M668 1786Q732 1786 778 1768T854 1719T898 1648T913 1565Q913 1480 878 1403T788 1252T667 1105T537 954Q577 870 621 794T705 655T779 547T831 477Q846 457 869 430T921 372T984 307T1055
240Q1098 289 1130 344T1183 456T1214 566T1225 668Q1225 766 1196 807T1122 848Q1090 848 1046 839T957 818T870 798T803 788Q787 788 778 793T768 809Q768 822 786 828T842 844T934 872T1065 926Q1127 956 1170 989T1242 1051T1289 1099T1319 1118Q1330 1118
1338 1104T1353 1067T1362 1012T1366 946Q1366 842 1350 738T1302 537T1222 352T1108 193Q1142 164 1175 140T1241 97T1302 69T1358 59Q1380 59 1399 72T1436 107T1467 151T1494 196T1516 230T1534 244Q1544 244 1544 227Q1544 212 1531 174T1496 89T1446 -10T1390
-105T1335 -175T1288 -203Q1270 -203 1237 -190T1158 -146T1055 -67T930 53Q859 15 777 -7T598 -29Q481 -29 384 2T216 94T107 246T68 457Q68 538 89 611T146 751T230 880T334 999Q279 1176 279 1356Q279 1459 308 1539T390 1674T513 1757T668 1786ZM727 291Q531
548 418 788Q378 717 354 642T330 481Q330 391 353 313T422 177T534 86T684 53Q740 53 790 66T885 100Q850 142 809 188T727 291ZM406 1446Q406 1367 421 1288T465 1128Q529 1189 587 1249T688 1369T756 1488T782 1608Q782 1671 747 1711T643 1751Q599 1751 557
1735T481 1682T427 1588T406 1446Z" />
<glyph unicode="&apos;" glyph-name="quotesingle" horiz-adv-x="358" d="M178 1597Q216 1597 235 1568T254 1475Q254 1450 253 1402T250 1295T244 1175T237 1063T227 980T215 948Q208 948 197 979T174 1060T150 1171T128 1291T112 1402T106 1483Q106 1542 123
1569T178 1597Z" />
<glyph unicode="(" glyph-name="parenleft" horiz-adv-x="883" d="M504 2038Q514 2038 514 2025Q514 2016 499 1988T461 1914T411 1809T360 1677Q339 1612 317 1525T278 1328T249 1085T238 795Q238 631 261 483T320 204T401 -35T487 -229Q565 -388 636 -493T762
-666T850 -769T883 -825Q883 -835 876 -838T862 -842Q842 -842 800 -820T702 -753T580 -641T446 -485Q412 -440 367 -376T275 -230T183 -49T103 167T45 417T23 702Q23 907 54 1085T134 1412T241 1677T353 1874T448 1996T504 2038Z" />
<glyph unicode=")" glyph-name="parenright" horiz-adv-x="909" d="M150 1532Q187 1532 256 1509T408 1438T575 1313T730 1131T844 887T889 575Q889 440 861 324T786 111T676 -67T545 -211T405 -321T271 -398T154 -444T68 -459Q20 -459 20 -438Q20 -425 34 -415T75
-392T136 -363T214 -320T304 -258T401 -168Q481 -83 531 8T609 190T648 370T659 537Q659 585 653 651T630 791T588 941T522 1085Q476 1165 429 1224T337 1326T254 1398T186 1447T140 1482T123 1511Q123 1532 150 1532Z" />
<glyph unicode="*" glyph-name="asterisk" horiz-adv-x="1004" d="M481 1878Q519 1878 541 1852T569 1780Q573 1753 576 1717T582 1641T587 1563T593 1494T599 1444T606 1425Q610 1425 621 1446T648 1498T684 1565T729 1633T781 1685T838 1706Q869 1706 882 1690T895
1647Q895 1618 875 1588T823 1530T757 1477T690 1431T639 1396T618 1374Q618 1364 637 1348T686 1311T750 1265T814 1213T863 1155T883 1092Q883 1058 865 1035T811 1012Q779 1012 754 1029T707 1075Q680 1112 658 1154T619 1231T591 1289T573 1313Q567 1313 551
1296T514 1252T466 1195T412 1138T359 1095T311 1077Q290 1077 274 1089T258 1128Q258 1153 277 1178T326 1228T390 1273T453 1312T502 1341T522 1360Q522 1366 504 1366Q487 1366 457 1365T389 1364Q349 1364 303 1364T211 1370Q163 1375 130 1393T96 1452Q96
1473 103 1487T121 1509T147 1521T176 1524Q204 1524 242 1515T320 1491T399 1462T468 1433T518 1411T537 1405Q537 1412 528 1436T504 1494T473 1568T442 1648T418 1725T408 1788Q408 1813 414 1830T431 1858T455 1873T481 1878Z" />
<glyph unicode="+" glyph-name="plus" horiz-adv-x="903" d="M502 1200Q516 1200 524 1189T532 1143Q532 1131 531 1100T529 1026T527 937T526 844Q526 809 526 779T530 727Q533 702 555 702Q580 702 607 705T660 713T711 721T756 725Q782 725 791 717T801 696Q801
667 754 657Q734 653 709 650T658 643T609 637T569 631Q557 628 549 622T541 590Q541 574 544 542T551 470T561 387T571 304T579 233T582 186Q582 155 572 144T551 133Q537 133 527 144T512 184Q510 198 507 225T499 288T491 362T481 440T472 512T463 571Q458 600
447 609T418 618Q398 618 362 617T285 614T207 611T147 610Q123 610 112 622T100 651Q100 670 114 680T154 692Q185 694 220 695T287 696T348 697T395 700Q432 705 446 720T463 772Q468 819 469 864T471 952Q471 1009 469 1058T467 1139Q467 1200 502 1200Z" />
<glyph unicode="," glyph-name="comma" horiz-adv-x="516" d="M248 330Q293 330 324 314T376 271T405 210T414 139Q414 82 399 25T360 -87T307 -187T249 -269T196 -324T158 -344Q141 -344 141 -328Q141 -319 147 -309T165 -284T189 -250T217 -207Q233 -179 245
-149T258 -88Q258 -62 247 -41T218 -1T180 36T143 76T114 124T102 184Q102 217 112 244T142 290T189 319T248 330Z" />
<glyph unicode="-" glyph-name="hyphen" horiz-adv-x="893" d="M449 397Q417 397 372 399T281 407T194 419T131 434Q102 444 102 469Q102 483 110 490T133 498Q159 498 189 494T256 486T337 477T438 473Q551 473 626 481T745 489Q791 489 791 461Q791 431 750
418Q709 405 631 401T449 397Z" />
<glyph unicode="." glyph-name="period" horiz-adv-x="489" d="M248 260Q286 260 312 247T355 212T379 164T387 111Q387 65 376 31T346 -25T301 -57T246 -68Q215 -68 189 -57T144 -25T113 25T102 92Q102 131 113 162T143 214T189 248T248 260Z" />
<glyph unicode="/" glyph-name="slash" horiz-adv-x="1415" d="M1378 1903Q1395 1903 1395 1882Q1395 1869 1381 1840T1343 1770T1290 1684T1230 1593T1171 1508T1122 1438Q1087 1388 1037 1318T928 1166T804 995T675 817T549 644T435 490T344 365T285 283Q246
227 209 177T143 84Q111 38 88 10T45 -18Q36 -18 30 -13T23 6Q23 31 53 83T135 207Q192 287 258 379T397 578Q453 659 522 755T666 955T818 1165T970 1373T1111 1566T1231 1733Q1258 1770 1280 1801T1320 1855T1352 1890T1378 1903Z" />
<glyph unicode="0" glyph-name="zero" horiz-adv-x="1481" d="M428 1542Q465 1558 505 1570T586 1589T665 1600T737 1604Q853 1604 952 1575T1131 1495T1272 1373T1375 1218T1438 1040T1460 848Q1460 695 1412 564T1273 336T1053 184T762 129Q673 129 584 148T412
209T259 312T136 459T53 653T23 895Q23 997 49 1094T127 1277T254 1430T428 1542ZM702 1542Q588 1542 504 1493T363 1362T280 1171T252 942Q252 776 289 640T396 405T569 253T801 199Q914 199 993 247T1122 377T1194 567T1217 795Q1217 1159 1089 1350T702 1542Z"
/>
<glyph unicode="1" glyph-name="one" horiz-adv-x="1036" d="M18 1098Q0 1098 0 1114Q0 1128 23 1142T86 1184T180 1255T299 1372Q359 1440 394 1507T450 1628T482 1715T504 1749Q512 1749 519 1735T531 1699T540 1652T549 1606Q553 1586 562 1530T583 1393T611
1216T643 1016T677 811T711 619T741 460T766 350Q778 305 791 272T821 214T862 170T918 137Q937 128 957 122T995 110T1023 99T1034 88Q1034 83 1028 80T1004 76Q981 76 943 79T854 82Q772 81 698 66T556 29T431 -19T326 -67T243 -104T184 -119Q176 -119 170 -116T164
-102Q164 -89 186 -73T243 -38T320 3T403 51Q431 69 451 89T484 134T503 192T510 266Q510 297 507 360T498 506T483 682T463 864T438 1030T408 1159Q403 1174 397 1189T380 1216T355 1237T319 1245Q296 1245 269 1234T212 1207T153 1172T97 1136T51 1109T18 1098Z"
/>
<glyph unicode="2" glyph-name="two" horiz-adv-x="1094" d="M504 1665Q612 1665 693 1633T828 1545T910 1417T938 1262Q938 1182 913 1104T845 952T749 811T638 685T525 578T423 493T346 435T307 408Q282 391 262 377T242 354Q242 345 276 324T364 277T486 222T620
170T746 131T842 115Q879 115 908 130T960 167T1002 215T1034 263T1060 300T1081 315Q1089 315 1091 311T1094 301Q1094 286 1082 260T1051 202T1009 134T965 61Q939 20 919 -21T880 -94T845 -147T811 -168Q792 -168 755 -144T665 -83T549 0T412 90Q333 138 266
172T149 231T71 272T43 297Q43 303 55 310T89 330T141 361T207 408Q340 511 429 612T573 811T649 1001T672 1180Q672 1252 654 1311T599 1412T510 1478T389 1501Q326 1501 275 1477T186 1411T121 1313T82 1192Q72 1144 67 1105T59 1038T51 995T37 979Q12 979 12
1077Q12 1198 43 1305T136 1492T290 1618T504 1665Z" />
<glyph unicode="3" glyph-name="three" horiz-adv-x="1047" d="M129 1548Q151 1548 180 1542T249 1527T339 1508T455 1491Q518 1483 583 1480T702 1475T795 1470T844 1460Q852 1455 854 1450T856 1436Q856 1421 841 1393T800 1327T743 1248T678 1163T613 1080T556
1008T516 955T500 928Q500 924 527 918T599 898T701 857T821 786Q876 747 918 703T988 607T1032 494T1047 358Q1047 305 1035 248T998 136T933 33T840 -53T717 -111T561 -133Q442 -133 354 -100T204 -11T102 113T40 253T9 391T0 508Q0 550 4 573T18 596Q24 596
28 585T36 551T47 496T66 424Q118 245 232 151T504 57Q565 57 619 77T715 139T779 242T803 387Q803 472 773 540T698 660T599 751T501 816T425 858T395 879Q395 885 407 900T438 940T484 996T539 1067Q551 1084 567 1107T602 1155T637 1206T667 1254T689 1292T698
1315Q698 1321 675 1326T617 1335T538 1341T453 1343Q383 1343 326 1328T227 1268Q197 1236 179 1197T149 1123T130 1065T113 1042Q103 1042 101 1055T98 1092Q98 1121 100 1172T102 1282Q102 1303 101 1330T98 1386T95 1440T94 1485Q94 1517 101 1532T129 1548Z"
/>
<glyph unicode="4" glyph-name="four" horiz-adv-x="1460" d="M891 1747Q907 1747 907 1722Q907 1713 903 1698T891 1663T877 1622T864 1579Q856 1550 852 1517T848 1450Q848 1399 855 1344T872 1236T892 1136T911 1055Q945 895 976 771T1036 543Q1051 535 1073
528T1121 515T1172 506T1219 502Q1246 502 1269 521T1311 562T1344 604T1370 623Q1378 623 1378 612Q1378 602 1371 585T1354 547T1330 502T1305 453Q1286 415 1273 385T1250 333T1232 301T1217 289Q1203 289 1185 295T1146 309T1105 327T1067 344Q1068 326 1071
305T1079 264T1088 225T1096 197Q1103 166 1111 137T1130 77T1156 15T1192 -51Q1210 -80 1232 -100T1279 -136T1325 -161T1366 -178Q1381 -184 1396 -190T1423 -201T1442 -213T1450 -227Q1450 -232 1446 -236T1432 -240Q1411 -240 1371 -226T1276 -191T1156 -149T1020
-115Q961 -104 899 -102T786 -100T701 -98T668 -84Q668 -76 681 -71T715 -61T760 -52T807 -43Q881 -28 881 41Q881 59 878 89T868 154T855 229T841 304T828 370T817 420Q778 437 734 457T644 499T556 540T477 575Q380 617 295 648T147 704T47 747T10 780Q10 793
33 819T97 883T192 973T309 1090Q376 1159 424 1209T508 1298T570 1366T619 1422T665 1478T717 1544Q765 1604 794 1643T841 1705T869 1738T891 1747ZM641 1350Q634 1350 618 1337T578 1302T529 1253T476 1197T425 1141T383 1092Q376 1083 360 1064T324 1021T283
971T245 920T216 877T205 850Q205 838 229 821T289 785T370 746T453 711Q485 698 533 679T630 640T722 604T788 582Q783 613 776 657T761 755T744 869T723 991Q717 1024 711 1063T698 1142T684 1219T669 1286T655 1332T641 1350Z" />
<glyph unicode="5" glyph-name="five" horiz-adv-x="1552" d="M852 1696Q867 1696 898 1682T971 1645T1058 1597T1149 1549T1232 1512T1296 1497Q1347 1497 1382 1534T1456 1634Q1490 1688 1506 1709T1536 1731Q1542 1731 1547 1727T1552 1710Q1552 1693 1544
1661T1521 1589T1488 1502T1449 1409T1407 1321T1368 1247T1334 1196T1309 1178Q1290 1179 1250 1203T1160 1262T1054 1338T950 1414T864 1472T813 1497Q803 1498 781 1467T730 1390T671 1288T615 1186T574 1105T557 1069Q557 1064 579 1062T640 1055T729 1044T840
1022Q930 999 1006 954T1138 845T1224 701T1255 526Q1255 359 1203 224T1059 -7T845 -155T580 -207Q448 -207 343 -167T163 -54T50 121T10 346Q10 438 26 511T65 636T114 715T158 743Q166 743 168 740T170 731Q170 723 163 708T146 672T124 624T104 567Q93 527
87 477T80 358Q80 251 117 169T219 32T366 -52T541 -80Q635 -80 717 -45T860 60T956 236T991 483Q991 547 977 600T937 696T877 772T803 831Q747 867 685 889T572 926T487 947T453 961Q453 979 496 1064T629 1317Q680 1414 716 1485T777 1603T820 1673T852 1696Z"
/>
<glyph unicode="6" glyph-name="six" horiz-adv-x="1225" d="M702 1610Q781 1610 844 1595T958 1554T1046 1496T1111 1432T1154 1370T1180 1319Q1189 1297 1192 1277T1196 1243Q1196 1229 1191 1224T1176 1219Q1162 1219 1150 1236T1112 1294Q1094 1325 1063 1364T985
1439T875 1499T729 1524Q635 1524 568 1489T455 1399T380 1278T338 1152T318 1045T313 981Q335 1002 370 1029T451 1082T553 1125T676 1143Q812 1143 912 1099T1076 979T1172 805T1204 598Q1204 462 1160 354T1042 171T876 56T684 16Q614 16 538 33T390 89T252
187T137 333T58 532T29 788Q29 977 79 1129T218 1388T431 1552T702 1610ZM635 1081Q573 1081 513 1055T406 971T329 819T299 590Q299 464 329 367T412 204T536 104T692 70Q767 70 827 105T929 204T993 357T1016 553Q1016 614 1010 677T988 798T945 908T876 998T774
1059T635 1081Z" />
<glyph unicode="7" glyph-name="seven" horiz-adv-x="1040" d="M27 1497Q54 1497 93 1492T187 1481T314 1469T479 1464Q614 1464 713 1477T878 1507T982 1536T1032 1550Q1040 1550 1040 1542Q1040 1528 1008 1478T922 1335T802 1108T664 788Q618 669 590 563T546
367T524 205T516 81T513 0T508 -35Q503 -40 489 -41T455 -44T408 -48T350 -57Q298 -70 265 -83T217 -96Q207 -96 207 -82Q207 -64 217 -26T243 62T281 168T324 279Q368 390 417 496T515 699T609 877T688 1022T742 1125T762 1178Q762 1190 737 1204T670 1234T575
1265T467 1291T359 1310T266 1317Q215 1317 186 1290T141 1220T115 1122T96 1014Q88 974 84 947T68 920Q61 920 58 931T55 973Q55 1003 54 1042T50 1124T43 1212T31 1300Q20 1370 10 1411T0 1470Q0 1475 4 1486T27 1497Z" />
<glyph unicode="8" glyph-name="eight" horiz-adv-x="975" d="M496 1606Q585 1606 649 1582T754 1517T816 1423T836 1313Q836 1269 827 1230T801 1157T766 1095T725 1044Q676 990 614 952Q712 891 789 809Q822 774 853 732T910 639T950 532T965 410Q965 305 931
215T834 59T683 -44T485 -82Q399 -82 315 -60T163 13T54 147T12 352Q12 412 25 463T59 558T108 637T165 702Q233 768 319 813Q254 859 203 920Q181 946 161 977T124 1046T98 1125T88 1214Q88 1312 122 1385T214 1508T344 1581T496 1606ZM580 1001Q596 1001 628
1023T692 1087T748 1185T772 1313Q772 1363 759 1405T719 1479T653 1528T563 1546Q520 1546 484 1532T420 1490T378 1419T362 1317Q362 1242 390 1184T455 1085T528 1023T580 1001ZM406 735Q373 735 327 708T239 629T168 503T139 334Q139 253 162 185T231 67T342
-9T492 -37Q566 -37 623 -15T718 50T777 153T797 289Q797 349 781 405T736 510T669 601T587 672T497 718T406 735Z" />
<glyph unicode="9" glyph-name="nine" horiz-adv-x="1231" d="M561 1534Q699 1534 818 1488T1024 1352T1160 1131T1210 831Q1210 614 1151 453T992 184T766 24T502 -29Q397 -29 318 -6T186 50T107 115T80 166Q80 177 85 183T102 190Q114 190 131 181T170 159T222
130T286 101T365 79T461 70Q550 70 616 96T730 165T808 261T856 367T880 467T887 547Q887 559 886 569T879 580Q873 580 849 568T785 542T690 516T565 504Q427 504 325 543T155 653T54 821T20 1032Q20 1150 61 1243T174 1401T345 1500T561 1534ZM539 1485Q396 1485
316 1377T236 1053Q236 931 267 841T353 690T478 601T631 571Q708 571 761 595T848 665T896 777T911 930Q911 994 902 1059T874 1186T825 1302T754 1397T659 1461T539 1485Z" />
<glyph unicode=":" glyph-name="colon" horiz-adv-x="504" d="M252 975Q280 975 305 967T349 941T379 897T391 834Q391 753 350 710T246 666Q217 666 191 674T146 701T114 749T102 821Q102 889 141 932T252 975ZM268 238Q307 238 333 225T374 190T395 143T401
92Q401 56 391 27T361 -23T317 -55T260 -66Q198 -66 164 -25T129 80Q129 114 138 143T165 193T209 226T268 238Z" />
<glyph unicode=";" glyph-name="semicolon" horiz-adv-x="545" d="M293 920Q334 920 362 907T407 874T432 827T440 776Q440 748 433 718T408 663T362 621T293 604Q219 604 179 647T139 762Q139 787 146 815T171 866T218 904T293 920ZM260 184Q301 184 331 172T382
138T413 87T424 25Q424 -26 405 -78T356 -178T290 -268T220 -341T157 -390T115 -408Q102 -408 102 -395Q102 -386 111 -375Q120 -362 141 -341T184 -292T223 -235T240 -172Q240 -141 221 -121T178 -80T135 -32T115 41Q115 69 125 95T154 141T200 172T260 184Z"
/>
<glyph unicode="&lt;" glyph-name="less" horiz-adv-x="1071" d="M909 1104Q930 1104 930 1085Q930 1071 910 1048T858 998T787 943T711 890T643 844T596 813Q510 758 451 722T354 662T300 627T283 606Q283 596 310 577T382 531T487 474T612 410Q636 397 672 379T747
339T826 294T898 250T949 211T969 182Q969 171 963 165T940 158Q916 158 875 173T781 213T669 270T548 336T427 403T315 463Q276 483 238 502T170 537T121 566T102 586Q102 595 117 607T174 645Q195 657 237 682T330 737T435 800T535 862Q623 917 685 962T789 1038T860
1087T909 1104Z" />
<glyph unicode="=" glyph-name="equal" horiz-adv-x="1343" d="M1178 795Q1185 795 1196 794T1217 790T1234 781T1241 762Q1241 750 1234 742T1216 730T1191 724T1165 721Q1127 719 1087 717T999 711T897 704T776 694Q743 691 690 686T575 675T448 661T324 648T219
639T150 635Q128 635 115 641T102 662Q102 670 107 677T128 691T169 703T238 715Q305 724 388 733T563 751T745 768T919 782T1069 791T1178 795ZM1034 461Q1076 456 1090 448T1104 428Q1104 418 1097 412T1079 403T1053 398T1024 397Q1019 397 996 397T937 398T860
399T774 400T690 400T621 401Q551 401 483 401T357 399T255 398T186 397Q141 397 122 409T102 442Q102 451 106 459T122 474T152 485T201 489Q250 489 322 488T478 485T647 480T810 474T945 467T1034 461Z" />
<glyph unicode="&gt;" glyph-name="greater" horiz-adv-x="1092" d="M117 1133Q127 1133 145 1126T186 1107T233 1082T279 1056T316 1033T338 1020Q362 1006 395 986T464 944T539 899T612 854T677 815T727 786Q793 748 838 722T911 676T951 644T963 621Q963 605
944 583T897 535T834 485T770 438Q761 432 738 416T683 378T616 332T544 283T478 238T426 203Q369 166 327 141T266 115Q246 115 246 135Q246 146 254 157T289 190Q299 199 324 218T383 260T454 311T525 361T587 404T627 432Q671 463 708 491T773 544T815 585T831
610Q831 616 821 625T796 645T762 667T729 688Q710 700 678 720T606 766T523 818T442 869T372 914T324 946Q299 963 262 987T189 1037T128 1085T102 1120Q102 1126 106 1129T117 1133Z" />
<glyph unicode="?" glyph-name="question" horiz-adv-x="1157" d="M399 43Q463 43 493 4T524 -92Q524 -127 513 -150T485 -186T450 -204T418 -209Q389 -209 366 -198T325 -167T299 -122T289 -70Q289 -23 316 10T399 43ZM584 1700Q688 1700 781 1674T943 1593T1053
1455T1094 1257Q1094 1177 1075 1113T1021 994T936 893T821 803Q754 758 690 720T567 646T461 576T377 504T321 424T301 330Q301 298 309 276T329 238T358 216T393 209Q414 209 428 217T451 238T464 265T469 291Q471 308 473 317T483 326Q491 326 495 315T500 285Q500
261 493 239T472 201T435 174T381 164Q352 164 324 173T274 204T239 258T225 338Q225 407 251 464T319 574T416 675T527 775T638 881T734 1002T803 1145T829 1319Q829 1381 813 1442T762 1551T669 1629T528 1659Q464 1659 415 1641T333 1591T282 1518T264 1430Q264
1384 277 1348T310 1280T353 1220T396 1162T429 1099T442 1024Q442 994 433 965T402 911T348 873T268 858Q153 858 97 938T41 1165Q41 1217 53 1276T92 1395T161 1510T263 1607T403 1674T584 1700Z" />
<glyph unicode="@" glyph-name="at" horiz-adv-x="1841" d="M788 -539Q909 -539 974 -503T1040 -412Q1040 -392 1030 -377T1006 -350T974 -325T942 -298T917 -263T907 -215Q907 -193 915 -171T941 -130T985 -101T1047 -90Q1081 -90 1110 -103T1161 -140T1195 -198T1208
-276Q1208 -305 1201 -340T1176 -412T1127 -482T1049 -542T936 -584T782 -600Q645 -599 522 -533T306 -342T157 -37T102 375Q102 532 133 672T222 930T362 1142T547 1302T771 1403T1026 1438Q1216 1438 1354 1378T1582 1210T1714 955T1757 633Q1757 463 1728 335T1650
120T1538 -11T1405 -55Q1341 -55 1294 -29T1213 38T1161 131T1133 236Q1130 219 1124 187T1102 116T1063 39T1001 -33T911 -85T786 -106Q718 -106 648 -82T520 -2T425 143T383 360Q385 470 407 555T466 705T548 813T644 885T746 925T844 938Q905 938 950 925T1027
894T1079 858T1112 827Q1112 865 1111 891T1110 948Q1110 970 1118 979T1141 992T1174 994T1217 995Q1249 997 1274 1000T1313 1004Q1327 1004 1330 993T1333 961Q1333 939 1331 897T1325 800T1317 686T1309 569T1303 462T1300 381Q1300 311 1306 252T1328 150T1370
82T1438 57Q1482 57 1526 92T1607 199T1665 377T1688 625Q1688 822 1637 964T1496 1197T1284 1332T1020 1376Q901 1376 792 1344T589 1252T418 1105T287 907T202 663T172 379Q172 201 203 64T286 -176T402 -347T536 -459T670 -520T788 -539ZM862 885Q805 885 758
859T676 782T623 659T604 494Q604 404 620 324T669 183T750 87T864 51Q930 51 977 88T1054 186T1098 328T1112 496Q1112 570 1098 640T1053 764T976 852T862 885Z" />
<glyph unicode="A" glyph-name="A" horiz-adv-x="1606" d="M852 1679Q859 1679 868 1662T885 1623T901 1578T913 1544Q935 1479 962 1397T1019 1222T1083 1029T1150 828T1217 629T1280 443T1336 280T1384 150Q1408 85 1431 46T1480 -16T1537 -50T1610 -70Q1640
-76 1640 -92Q1640 -103 1629 -107T1604 -111Q1582 -111 1548 -110T1470 -109Q1435 -109 1395 -110T1311 -115Q1244 -120 1187 -131T1084 -154T1004 -175T948 -184Q937 -184 931 -179T924 -164Q924 -151 931 -143T958 -129Q966 -127 981 -123T1014 -114T1051 -103T1087
-88Q1107 -77 1123 -59T1139 -4Q1139 4 1138 18T1133 43Q1115 113 1096 185T1058 322T1022 442T991 532Q968 590 938 620T872 668Q862 672 839 681T785 700T717 723T646 746T581 767T530 784Q506 707 483 632T440 493T406 381T385 311Q377 285 374 264T371 227Q371
198 379 179T402 146T434 123T473 104Q490 96 503 87T516 63Q516 54 509 48T485 41Q468 41 442 49T385 69T318 94T248 119Q220 127 190 133T132 144T82 150T47 154Q22 156 11 161T0 180Q0 190 6 196T29 203Q35 203 50 202T86 201Q134 201 166 207T220 226T256 258T283
305Q295 331 312 374T348 469T388 576T425 681T456 769T475 827Q483 853 497 898T530 1000T566 1116T600 1232T625 1333T635 1405Q635 1425 624 1438T588 1452Q566 1452 539 1449T483 1443T429 1437T383 1434Q346 1434 346 1460Q346 1484 381 1487Q405 1488 435
1492T500 1503T568 1520T635 1546Q686 1569 722 1593T783 1636T825 1667T852 1679ZM547 838Q578 827 626 811T725 779T817 752T879 741Q891 741 900 749T909 776Q909 791 900 830T878 920T848 1026T818 1129T795 1207T784 1243Q780 1255 774 1277T760 1322T745
1360T733 1376Q729 1376 723 1365T709 1339T695 1305T684 1272L547 838Z" />
<glyph unicode="B" glyph-name="B" horiz-adv-x="1403" d="M836 1749Q899 1749 964 1734T1083 1682T1170 1582T1204 1423Q1204 1348 1182 1288T1123 1181T1042 1099T952 1038T867 997T799 971Q840 971 898 962T1021 929T1149 867T1262 768T1344 626T1376 434Q1376
338 1355 262T1298 127T1215 25T1116 -47T1011 -92T909 -113Q857 -119 812 -121T729 -123Q667 -123 616 -120T514 -117Q448 -117 390 -130T283 -164T194 -208T121 -252T65 -285T25 -299Q2 -299 2 -274Q2 -255 22 -236T75 -196T145 -152T219 -102Q241 -85 259 -65T292
-20T316 39T332 117Q340 179 343 271T346 477Q346 537 347 621T348 799Q348 896 346 997T338 1189T320 1356T289 1475Q272 1514 249 1541T196 1587T133 1617T63 1634Q37 1639 29 1645T20 1661Q20 1670 27 1673T47 1677Q65 1677 85 1675T131 1669T191 1664T268 1661Q359
1661 429 1674T563 1704T691 1735T836 1749ZM494 1638Q497 1593 500 1540T507 1431T514 1317T522 1206Q530 1081 539 952Q655 960 747 1002Q786 1020 823 1047T890 1113T938 1204T956 1325Q956 1423 932 1488T868 1592T775 1647T664 1663Q616 1663 573 1656T494
1638ZM543 879Q546 823 550 753T560 610T570 465T580 330T589 221T596 150Q601 100 614 58T652 -14T712 -61T799 -78Q869 -78 928 -50T1031 39T1099 190T1124 408Q1124 530 1094 623T1009 780T882 876T721 909Q667 909 618 900T543 879Z" />
<glyph unicode="C" glyph-name="C" horiz-adv-x="1520" d="M1329 1731Q1343 1731 1346 1717T1350 1681Q1350 1669 1348 1633T1346 1544Q1346 1451 1353 1383T1371 1264T1392 1178T1411 1118Q1417 1098 1426 1070T1436 1022Q1436 1006 1423 1006Q1412 1007 1397
1020T1366 1053T1334 1093T1307 1130Q1262 1190 1214 1237T1108 1317T978 1367T815 1384Q711 1384 620 1344T462 1220T355 1012T315 717Q315 561 342 440T416 228T522 75T649 -27T784 -83T913 -100Q1007 -100 1080 -77T1209 -16T1305 73T1372 177T1415 286T1438
389Q1442 419 1444 449T1449 505T1456 545T1470 561Q1499 561 1499 459Q1499 433 1496 391T1481 297T1448 188T1393 74T1309 -34T1190 -124T1031 -186T825 -209Q728 -209 630 -189T441 -128T272 -22T135 132T44 337T10 596Q10 767 46 896T143 1119T283 1274T450
1373T627 1425T797 1440Q857 1440 906 1435T997 1425T1073 1414T1137 1409Q1188 1409 1222 1430T1272 1513Q1282 1555 1286 1594T1295 1663T1307 1712T1329 1731Z" />
<glyph unicode="D" glyph-name="D" horiz-adv-x="1487" d="M883 1368Q987 1368 1070 1344T1217 1278T1326 1179T1400 1054T1442 911T1456 760Q1456 665 1437 574T1376 404T1267 260T1102 154Q1048 130 997 114T896 86T793 61T686 34T570 -4T442 -59Q334 -112 262
-162T143 -253T67 -317T20 -342Q0 -342 0 -322Q0 -309 16 -294T60 -256T120 -201T186 -123Q230 -63 259 11T297 170Q299 192 301 228T305 311T308 412T309 526Q309 618 306 714T297 897T279 1051T252 1157Q238 1189 218 1210T176 1245T133 1267T94 1282T66 1295T55
1311Q55 1327 82 1327Q100 1327 121 1325T171 1319T234 1314T315 1311Q389 1311 464 1320T611 1339T752 1359T883 1368ZM737 1300Q632 1300 571 1277T498 1217Q490 1192 486 1142T481 1026Q481 951 484 863T493 690T505 532T518 412Q524 365 532 329T550 265T572
216T598 178Q613 160 634 147T678 126T726 115T774 111Q851 111 910 139T1014 215T1090 325T1140 457T1167 596T1176 731Q1176 840 1156 924T1101 1072T1023 1179T929 1249T831 1288T737 1300Z" />
<glyph unicode="E" glyph-name="E" horiz-adv-x="1141" d="M1004 1642Q1019 1642 1024 1635T1030 1614Q1030 1596 1028 1573T1022 1516T1017 1433T1014 1315Q1014 1302 1010 1292T995 1282Q979 1282 973 1315Q968 1336 965 1368T954 1448Q949 1486 938 1507T910
1538T874 1550T836 1552Q797 1552 747 1549T648 1541T562 1531T508 1522Q476 1514 469 1496T461 1452Q461 1430 462 1389T465 1294T470 1179T475 1055T480 935T485 831Q507 828 535 826T592 823Q625 823 647 827T685 840T710 859T725 885Q731 900 733 914T739 946Q742
965 748 971T760 977Q774 977 774 952Q774 930 772 898T766 831T761 760T758 694Q758 667 758 640T760 590T761 549T762 522Q762 508 757 496T737 483Q714 483 711 524Q710 534 710 552T708 590T705 630T698 664Q693 681 680 697T639 723Q627 727 610 730T572 735T530
738T489 741Q492 691 496 618T506 463T518 298T529 146T537 30T543 -29Q547 -70 564 -89T618 -113Q658 -119 715 -119Q791 -119 849 -111T950 -83T1023 -30T1073 55Q1084 82 1091 108T1104 156T1115 190T1126 203Q1134 203 1137 185T1141 141Q1141 105 1138 62T1128
-24T1115 -102T1100 -158Q1087 -190 1065 -202T1006 -215Q974 -215 919 -210T793 -197T639 -181T469 -168Q402 -164 342 -162T231 -159T144 -158T86 -158Q58 -158 50 -151T41 -131Q41 -116 52 -110T80 -104Q91 -104 117 -106T182 -109Q195 -109 208 -109T238 -106Q274
-105 293 -94T322 -67T332 -34T334 -4Q332 93 324 203T306 419T287 612T272 752Q269 786 264 833T253 935T239 1045T224 1155T209 1255T195 1333Q187 1372 178 1400T157 1449T134 1485T106 1511Q95 1520 80 1528T52 1545T29 1560T20 1577Q20 1593 47 1593Q61 1593
86 1590T148 1582T237 1575T356 1571Q408 1571 473 1576T606 1589T742 1606T864 1623T956 1636T1004 1642Z" />
<glyph unicode="F" glyph-name="F" horiz-adv-x="1092" d="M1079 1724Q1102 1724 1117 1711T1133 1659Q1133 1632 1126 1589T1110 1501T1093 1421T1081 1370Q1079 1361 1074 1339T1060 1290T1042 1234T1022 1181T1003 1142T985 1126Q980 1126 977 1131T973 1153Q973
1170 976 1200T982 1268T988 1346T991 1423Q991 1478 980 1509T947 1557T895 1578T827 1583Q778 1583 719 1577T606 1556Q562 1545 549 1518T535 1448Q535 1441 536 1392T539 1266T543 1090T549 883Q577 885 606 888T655 901Q676 910 690 924T714 955T728 989T737
1020Q753 1084 762 1110T786 1137Q805 1137 805 1100Q805 1082 801 1057T792 1001T782 931T778 850Q778 811 779 770T783 694T786 632T788 592Q788 558 782 541T764 524Q752 524 744 542T735 614Q734 653 731 685T718 742T691 783T647 809Q630 814 604 815T551
817Q554 710 557 604T564 408T570 249T575 150Q578 102 587 73T611 25T646 -2T692 -18Q701 -21 712 -23T733 -29T751 -38T758 -53Q758 -62 753 -67T739 -74T721 -77T702 -78Q687 -78 660 -75T598 -68T523 -61T442 -57Q405 -57 371 -59T301 -65T226 -71T141 -74Q113
-74 96 -71T70 -64T58 -53T55 -41Q55 -18 92 -12Q101 -11 121 -10T165 -6T216 -1T262 8Q283 14 304 24T341 53T367 102T377 180Q377 260 371 364T354 580T330 806T302 1021T273 1203T248 1331Q239 1369 222 1392T184 1429T137 1449T84 1460Q55 1465 38 1473T20
1499Q20 1516 33 1522T66 1528Q151 1528 279 1540T569 1589Q694 1617 778 1642T920 1685T1013 1713T1079 1724Z" />
<glyph unicode="G" glyph-name="G" horiz-adv-x="1536" d="M788 1335Q868 1335 928 1325T1037 1303T1130 1280T1219 1270Q1314 1270 1399 1358Q1423 1383 1440 1408T1472 1452T1498 1484T1524 1497Q1546 1497 1546 1473Q1546 1458 1525 1425T1475 1350T1416 1263T1366
1180Q1347 1141 1334 1110T1308 1049T1284 986T1257 911Q1245 876 1231 855T1198 834Q1174 834 1174 874Q1174 890 1179 921T1184 991Q1184 1135 1084 1210T799 1286Q748 1286 692 1272T580 1227T475 1145T388 1021T328 849T305 623Q305 548 315 480T343 353T385
246T438 164Q475 120 517 93T601 51T684 31T758 25Q820 25 869 36T957 66T1021 108T1065 156Q1079 175 1089 200T1105 251T1115 304T1118 354Q1118 393 1114 429T1095 492T1054 535T985 551Q928 551 882 543T784 535Q763 535 751 542T739 563Q739 576 749 586T793
596Q848 596 935 603T1145 633Q1212 645 1260 658T1343 681T1402 698T1446 705Q1473 705 1473 688Q1473 679 1467 673T1451 662T1426 650T1397 635Q1366 616 1351 581T1335 477Q1335 441 1338 399T1344 318T1352 244T1360 190Q1365 163 1368 137T1372 96Q1372 85
1368 79T1356 72Q1344 72 1329 81T1294 101T1252 122T1206 131Q1175 131 1146 118T1083 86T1010 43T917 1T794 -32T633 -45Q503 -45 390 -2T192 123T59 318T10 573Q10 705 41 811T126 998T247 1139T389 1237Q445 1267 500 1286T608 1316T705 1331T788 1335Z" />
<glyph unicode="H" glyph-name="H" horiz-adv-x="1522" d="M88 1794Q106 1794 135 1784T205 1760T296 1730T406 1702Q464 1690 528 1683T650 1671T750 1663T809 1659Q823 1657 831 1654T840 1640Q840 1629 831 1626T811 1622Q789 1622 747 1625T657 1628Q622 1628
596 1622T552 1600T524 1561T512 1499Q510 1478 510 1445T509 1370T508 1283T508 1188Q508 1130 508 1075T508 974T508 896T510 852Q511 826 516 810T530 785T551 773T578 770Q606 770 646 772T731 779T823 788T908 798T978 807T1020 813Q1054 819 1074 836T1103
877T1115 931T1118 995Q1118 1040 1115 1087T1106 1178T1096 1256T1087 1309Q1081 1348 1069 1369T1043 1401T1013 1414T985 1417Q951 1417 916 1415T860 1413Q840 1413 830 1421T819 1442Q819 1453 827 1463T868 1475Q898 1476 935 1478T1014 1485T1099 1496T1184
1511Q1222 1520 1265 1532T1350 1556T1428 1576T1487 1585Q1510 1585 1516 1578T1522 1563Q1522 1549 1511 1544T1485 1538Q1478 1538 1466 1537T1441 1534T1415 1527T1393 1516Q1377 1503 1364 1481T1343 1413Q1338 1377 1336 1323T1331 1208T1328 1088T1325 981Q1324
957 1323 911T1320 804T1318 672T1315 527T1314 380T1313 242Q1313 188 1313 143T1315 66Q1316 34 1323 14T1341 -19T1362 -38T1384 -49Q1406 -57 1431 -61T1485 -72Q1499 -75 1503 -79T1507 -90Q1507 -92 1506 -95T1502 -102T1490 -107T1468 -109Q1456 -109 1426
-107T1357 -101T1279 -95T1208 -92Q1167 -92 1127 -95T1051 -103T983 -111T926 -115Q884 -115 872 -105T860 -82Q860 -66 872 -62T903 -57Q960 -55 998 -52T1071 -33Q1096 -21 1111 -5T1134 31T1144 71T1147 111Q1147 126 1145 165T1140 256T1132 368T1122 484T1113
588T1104 662Q1099 692 1092 709T1074 736T1049 747T1018 750Q1000 750 964 747T882 740T787 729T694 717T616 705T569 694Q550 688 539 678T523 657T517 633T514 608Q514 579 514 529T515 419T517 292T518 163T519 49T520 -37Q520 -84 526 -113T542 -159T566 -187T596
-207Q613 -216 628 -223T643 -244Q643 -252 637 -255T621 -258Q600 -258 578 -252T525 -240T454 -227T354 -221Q294 -221 244 -228T153 -243T84 -259T37 -266Q0 -266 0 -240Q0 -224 8 -217T31 -205Q37 -203 51 -200T84 -194T127 -185T174 -174Q206 -166 224 -152T250
-121T261 -83T264 -43Q264 -37 265 -3T268 84T272 204T276 344T279 489T281 627Q281 642 281 676T282 759T282 866T283 989Q283 1074 283 1162T281 1326T277 1461T270 1544Q266 1573 259 1595T240 1636T212 1669T172 1698Q150 1711 130 1721T95 1739T70 1755T61
1774Q61 1783 67 1788T88 1794Z" />
<glyph unicode="I" glyph-name="I" horiz-adv-x="899" d="M918 1733Q952 1733 971 1730T1001 1721T1015 1710T1018 1696Q1018 1679 997 1669T926 1659Q876 1659 833 1656T752 1642Q718 1633 690 1616T640 1569T600 1498T571 1397Q558 1333 545 1232T518 1009T492
750T471 480T457 222T451 0Q451 -56 460 -88T484 -138T515 -161T543 -170Q571 -178 607 -179T668 -180Q717 -180 717 -207Q717 -219 706 -229T655 -240Q635 -240 610 -239T553 -238Q510 -238 456 -241T336 -254Q271 -263 208 -283T90 -323T-8 -358T-76 -373Q-102
-373 -102 -350Q-102 -333 -78 -324Q-70 -321 -37 -310T37 -283T117 -253T176 -225Q206 -208 225 -187T257 -141T274 -85T283 -20Q285 20 287 94T290 264T292 472T293 700Q293 794 293 886T292 1062T290 1216T287 1337Q285 1412 277 1459T255 1536T226 1582T190
1610Q160 1630 110 1639T8 1649Q-15 1649 -25 1657T-35 1677Q-35 1683 -33 1688T-25 1699T-7 1707T27 1710Q54 1710 97 1707T193 1701T303 1695T418 1692Q479 1692 544 1698T674 1712T801 1726T918 1733Z" />
<glyph unicode="J" glyph-name="J" horiz-adv-x="1288" d="M1364 1878Q1378 1878 1384 1873T1391 1860Q1391 1846 1377 1837T1337 1819Q1314 1809 1273 1796T1180 1755Q1157 1742 1136 1725T1097 1683T1067 1621T1049 1534Q1042 1481 1041 1414T1040 1264Q1040
1193 1039 1108T1033 918T1017 688T987 412Q974 309 949 200T884 -14T791 -210T667 -373T508 -483T313 -524Q237 -524 181 -499T86 -431T29 -335T10 -223Q10 -146 34 -94T96 -9T179 38T266 53Q360 53 417 7T475 -123Q475 -200 437 -242T336 -285Q298 -285 267 -275T203
-264Q165 -264 145 -284T125 -342Q125 -375 139 -401T178 -446T236 -475T309 -485Q411 -485 488 -431T623 -285T718 -71T779 186T811 462T821 733Q821 893 814 1031T794 1278T763 1461T723 1569Q704 1598 679 1614T625 1639T568 1649T510 1651Q487 1651 473 1656T459
1679Q459 1692 469 1700T502 1710Q524 1711 565 1712T662 1718T783 1730T922 1753Q1010 1771 1080 1792T1205 1833T1299 1865T1364 1878Z" />
<glyph unicode="K" glyph-name="K" horiz-adv-x="1774" d="M897 1657Q914 1657 931 1649T975 1629T1041 1601T1139 1573Q1172 1566 1207 1562T1276 1557T1342 1555T1401 1554Q1416 1554 1430 1553T1455 1549T1474 1540T1481 1524Q1481 1513 1476 1507T1464 1497T1447
1492T1430 1491Q1408 1491 1383 1493T1329 1495Q1238 1495 1174 1465T1063 1386Q1051 1374 1028 1349T977 1292T920 1227T867 1162T828 1110T813 1079Q813 1064 827 1021T868 915T934 779T1022 629T1129 484T1253 359T1393 271T1544 238Q1589 238 1624 252T1682
290T1717 349T1729 422Q1729 460 1718 497T1683 569Q1666 594 1652 609T1626 635T1609 654T1602 674Q1602 682 1607 690T1626 698Q1651 698 1684 677T1747 616T1796 520T1817 393Q1817 362 1811 325T1790 251T1748 180T1681 120T1586 77T1458 61Q1353 61 1261 96T1090
190T944 324T823 477Q697 660 608 893L498 756Q499 681 499 600T501 439T506 287T516 154Q522 92 541 52T584 -14T632 -53T672 -74Q706 -89 725 -98T745 -119Q745 -124 741 -127T723 -131Q691 -131 651 -118T563 -89T463 -60T354 -47Q314 -47 284 -50T225 -53Q196
-53 183 -48T170 -31Q170 -21 180 -16T205 -6T239 8T276 35Q299 58 303 96T307 180Q307 215 305 281T298 433T287 616T275 814T262 1007T251 1177T241 1307T236 1378Q229 1442 217 1478T172 1534Q163 1540 149 1544T120 1551T90 1555T61 1556Q55 1556 48 1557T34
1560T23 1568T18 1581Q18 1595 28 1601T53 1610Q95 1614 131 1614T203 1616T279 1619T365 1628Q438 1639 486 1653T565 1680T616 1701T653 1710Q674 1710 674 1692Q674 1681 663 1674T641 1661Q626 1653 608 1645T567 1622Q524 1594 509 1552T489 1444Q488 1435
488 1422T487 1395T487 1367T487 1341Q487 1245 491 1129T498 881V844Q515 862 547 898T619 979T705 1075T791 1172T866 1260T920 1327Q954 1372 969 1405T985 1466Q985 1489 977 1508T958 1538Q945 1554 931 1567T904 1593T883 1615T874 1634Q874 1644 879 1650T897
1657Z" />
<glyph unicode="L" glyph-name="L" horiz-adv-x="1352" d="M80 1544Q117 1543 158 1535T250 1516T363 1494T506 1477Q548 1474 579 1472T637 1470Q667 1470 692 1471T741 1475T793 1479T854 1481Q902 1481 916 1472T930 1448Q930 1432 917 1426T879 1417Q860 1415
836 1414T788 1409Q769 1406 751 1401T716 1384T688 1352T670 1298Q661 1248 651 1166T632 988T615 789T601 593T592 424T588 307Q588 242 605 214T657 174Q667 171 686 168T729 163T782 160T840 158Q925 158 982 172T1073 215T1122 287T1137 389Q1137 441 1129
491T1111 585T1093 662T1085 715Q1085 726 1089 733T1102 741Q1114 741 1122 731T1137 705Q1149 670 1158 639T1178 573T1200 500T1229 412Q1266 305 1292 237T1319 137Q1319 122 1299 113T1223 104Q1173 104 1089 104T907 103T707 98T518 90Q448 85 397 79T304
66T223 56T139 51Q108 51 97 57T86 78Q86 90 97 95T125 104Q130 105 147 107T185 113T231 123T274 137Q321 157 339 202T362 315Q366 363 367 433T369 584Q369 674 368 769T365 950T360 1108T354 1225Q351 1270 345 1303T329 1361T307 1400T279 1427Q265 1437 246
1445T207 1458T166 1468T127 1475Q101 1479 84 1483T58 1492T45 1503T41 1516Q41 1534 52 1539T80 1544Z" />
<glyph unicode="M" glyph-name="M" horiz-adv-x="2232" d="M569 1014Q558 1080 528 1118T467 1174Q442 1188 418 1195T375 1208Q356 1215 347 1223T338 1245Q338 1274 377 1274Q395 1274 412 1270T453 1261T510 1250T592 1239Q637 1235 668 1235T720 1234T757
1232T784 1225Q802 1217 831 1186T897 1110T975 1010T1056 899T1135 789T1205 695T1259 629T1290 604Q1307 604 1356 696T1497 973Q1522 1024 1548 1081T1600 1195T1649 1304T1691 1396T1726 1460T1749 1487Q1754 1489 1759 1489T1772 1489Q1790 1489 1822 1488T1905
1487Q1936 1487 1961 1489T2005 1495T2041 1500T2071 1503Q2092 1503 2098 1497T2105 1483Q2105 1465 2075 1456Q2046 1447 1994 1438T1876 1405Q1836 1391 1820 1355T1804 1264Q1804 1225 1810 1165T1828 1031T1856 875T1890 709T1929 546T1971 400T2012 283T2052
207Q2070 183 2088 166T2129 137T2178 116T2238 98Q2270 90 2282 81T2294 59Q2294 45 2278 36T2226 27Q2184 27 2139 30T2038 33Q1949 33 1876 20T1742 -9T1632 -38T1542 -51Q1531 -51 1520 -47T1509 -29Q1509 -14 1527 -5T1573 13T1637 31T1706 55Q1741 71 1756
96T1772 162Q1772 185 1765 234T1745 348T1718 488T1686 638T1653 782T1623 905T1601 990T1589 1022Q1586 1022 1571 995T1532 923T1480 820T1422 701T1363 580T1310 471T1270 388T1249 346Q1239 327 1228 306T1206 268T1184 239T1167 227Q1161 227 1152 236T1132
260T1112 290T1094 319Q1068 364 1033 425T960 554T884 690T814 815T758 914T727 971Q710 1001 698 1021T678 1054T663 1071T651 1077Q643 1077 643 1061Q643 1045 646 1018T651 969Q661 872 664 788T668 625Q668 555 660 474T633 311T582 154T499 21T381 -71T221
-106Q168 -106 127 -89T58 -44T15 21T0 98Q0 126 7 154T32 203T75 238T139 252Q169 252 192 242T234 216T268 181T295 145Q337 88 387 88Q431 88 463 115T518 187T557 292T580 415T592 543T596 664Q596 763 588 853T569 1014Z" />
<glyph unicode="N" glyph-name="N" horiz-adv-x="1638" d="M475 1468Q496 1460 531 1428T612 1345T713 1232T831 1102Q877 1052 922 1001T1010 901T1089 811T1157 738T1211 688T1247 670Q1255 670 1261 687T1271 732T1279 795T1284 866T1287 936T1288 995Q1288
1029 1287 1071T1282 1152T1274 1224T1260 1274Q1248 1298 1233 1314T1196 1340T1143 1357T1067 1368Q1038 1371 1027 1378T1016 1399Q1016 1413 1027 1417T1051 1421Q1061 1421 1081 1420T1130 1417T1190 1414T1257 1413Q1312 1413 1366 1421T1467 1438T1551 1456T1608
1464Q1638 1464 1638 1440Q1638 1424 1626 1417T1599 1407Q1581 1403 1566 1401T1537 1395T1508 1388T1475 1376Q1460 1371 1446 1361T1418 1335T1395 1294T1378 1235Q1372 1199 1368 1135T1359 991T1353 824T1348 655T1344 504T1341 391Q1338 232 1332 156T1311
80Q1303 80 1281 100T1227 155T1158 235T1080 330T1000 431T925 528T862 611T817 672Q621 942 517 1080T387 1219Q382 1219 380 1189T376 1108T374 989T373 844Q373 745 373 640T374 440T374 274T375 168Q375 109 376 47T382 -70T395 -171T416 -242Q434 -277 455
-301T499 -342T549 -370T602 -389Q625 -397 636 -403T647 -420Q647 -438 616 -438Q598 -438 572 -432T516 -418T451 -399T383 -381Q345 -372 307 -367T233 -362Q209 -362 184 -363T136 -366T98 -369T76 -371Q57 -371 39 -368T20 -348Q20 -336 33 -332T68 -328Q97
-328 133 -321T201 -293Q243 -265 265 -219T295 -100Q299 -66 301 -30T305 51T308 153T309 285Q309 317 308 353T307 430Q307 457 307 505T306 616T305 749T302 893T297 1034T289 1162T277 1264T260 1327Q249 1349 230 1361T185 1379T127 1386T57 1389Q33 1389
17 1395T0 1423Q0 1439 11 1446T39 1454H125Q186 1454 279 1460Q322 1463 364 1469T438 1475Q449 1475 459 1474T475 1468Z" />
<glyph unicode="O" glyph-name="O" horiz-adv-x="1530" d="M731 1561Q908 1561 1053 1505T1301 1349T1461 1110T1518 805Q1518 711 1498 618T1438 441T1337 285T1193 160T1006 77T774 47Q585 47 442 104T203 264T59 508T10 817Q10 980 63 1116T211 1352T439 1506T731
1561ZM690 1509Q592 1509 514 1465T380 1340T294 1143T264 883Q264 800 275 710T312 533T378 368T478 231T615 137T795 102Q915 102 997 150T1129 278T1202 457T1225 662Q1225 749 1216 846T1183 1037T1120 1216T1021 1367T880 1470T690 1509Z" />
<glyph unicode="P" glyph-name="P" horiz-adv-x="1276" d="M895 1532Q957 1532 1024 1518T1148 1464T1240 1354T1276 1174Q1276 1072 1253 996T1190 864T1101 772T996 715T888 685T788 676Q722 676 675 682T596 698Q597 647 597 593T598 490T599 404T600 350Q601
315 604 263T613 154T630 45T657 -45Q674 -83 701 -110T759 -155T825 -184T891 -201Q907 -204 923 -206T953 -212T974 -221T983 -236Q983 -248 973 -255T932 -262Q900 -262 851 -253T742 -232T613 -211T477 -201Q403 -201 338 -209T221 -226T133 -244T82 -252Q78
-252 73 -252T62 -249T53 -243T49 -231Q49 -220 62 -213T98 -199T149 -183T207 -158Q264 -127 293 -77T336 39Q342 69 348 126T361 256T372 414T382 583T388 746T391 887Q391 1009 384 1102T354 1247Q336 1288 306 1312T239 1350T162 1367T84 1374Q34 1375 17 1381T0
1407Q0 1436 51 1436Q73 1436 121 1433T236 1430Q285 1430 343 1433T463 1444Q515 1450 555 1459T630 1478T695 1497T756 1515T820 1527T895 1532ZM608 1227Q604 1185 602 1131T599 1014T597 885T596 752Q628 742 668 738T764 733Q839 733 891 769T976 864T1023
999T1038 1153Q1038 1217 1027 1277T989 1382T919 1455T811 1483Q761 1483 725 1465T665 1414T628 1333T608 1227Z" />
<glyph unicode="Q" glyph-name="Q" horiz-adv-x="1647" d="M817 1583Q912 1583 1008 1562T1194 1499T1360 1392T1495 1240T1585 1044T1618 801Q1618 605 1571 457T1444 203Q1490 112 1527 10T1597 -197Q1638 -326 1681 -422T1774 -582T1884 -677T2021 -709Q2097
-709 2164 -658T2273 -496Q2288 -454 2295 -422T2308 -369T2317 -336T2331 -324Q2339 -324 2342 -336T2345 -367Q2345 -394 2340 -444T2317 -553T2268 -673T2186 -784T2060 -865T1882 -897Q1759 -897 1673 -855T1526 -740T1428 -572T1364 -373T1320 -160T1282 47Q1176
-27 1050 -61T791 -96Q690 -96 593 -72T408 -1T248 117T122 281T40 491T10 745Q10 929 69 1083T236 1348T491 1521T817 1583ZM1049 528Q1135 528 1205 488T1333 379Q1349 445 1357 519T1366 678Q1366 781 1348 883T1294 1077T1205 1249T1079 1386T917 1478T719
1511Q621 1511 535 1465T384 1335T283 1131T246 864Q246 767 261 672T305 490T377 324T478 184T607 78T764 14Q761 34 759 63T756 133Q756 199 769 269T815 396T905 491T1049 528ZM895 0Q1017 0 1104 46T1249 180Q1233 238 1212 285T1162 367T1095 421T1008 440Q947
440 910 407T852 325T824 217T817 109Q817 78 818 49T821 4Q840 1 858 1T895 0Z" />
<glyph unicode="R" glyph-name="R" horiz-adv-x="1780" d="M834 1407Q954 1407 1031 1373T1153 1285T1215 1167T1233 1042Q1233 983 1218 923T1174 809T1102 714T1004 649L963 633Q1012 486 1080 381T1226 208T1390 108T1561 76Q1610 76 1650 89T1720 127T1766
189T1782 274Q1782 310 1778 334T1770 373T1761 398T1757 414Q1757 419 1759 422T1767 426Q1776 426 1789 412T1813 373T1833 319T1841 256Q1841 180 1819 115T1752 2T1637 -73T1475 -100Q1345 -100 1243 -62T1061 38T925 174T828 325T764 468T727 578Q698 574
672 573T623 571Q595 571 576 572T545 575Q547 510 550 438T560 298T575 178T596 96Q617 49 650 23T715 -19T770 -44T793 -63Q793 -76 764 -76Q732 -76 692 -67T606 -46T507 -26T399 -16Q345 -16 288 -20T184 -25Q119 -25 91 -16T63 14Q63 27 71 35T102 43Q128
43 148 42T190 41Q239 41 274 48T332 76T364 137T375 240Q375 266 373 326T366 465T354 634T336 810T312 972T281 1096Q263 1145 238 1173T182 1216T114 1236T37 1245Q20 1247 10 1252T0 1272Q0 1284 8 1292T41 1303Q69 1305 91 1305T135 1305Q165 1305 193 1305T252
1306T322 1311T412 1321Q478 1328 532 1342T636 1371T733 1396T834 1407ZM543 627Q659 628 742 660T880 747T959 878T985 1040Q985 1195 928 1273T766 1352Q722 1352 688 1337T629 1294T587 1228T563 1143Q548 1047 545 953T541 770L543 627Z" />
<glyph unicode="S" glyph-name="S" horiz-adv-x="1059" d="M647 1587Q701 1587 742 1577T814 1555T869 1532T911 1522Q924 1522 933 1533T949 1560T961 1595T971 1630Q977 1653 984 1669T1006 1686Q1022 1686 1022 1657Q1022 1641 1019 1621T1010 1574T998 1510T985
1425Q977 1366 975 1321T970 1245T965 1198T952 1182Q945 1182 941 1189T934 1208T929 1230T926 1249Q921 1275 914 1306T893 1370T861 1434T814 1489T746 1527T655 1542Q561 1542 509 1486T457 1321Q457 1266 483 1210T553 1093T652 970T765 840T878 702T976 555T1046
398T1073 229Q1073 109 1034 21T929 -126T776 -213T594 -242Q520 -242 465 -225T365 -187T284 -149T211 -131Q183 -131 160 -148T117 -185T83 -223T59 -240Q51 -240 49 -235T47 -221Q47 -213 50 -195T56 -150T63 -91T66 -20Q66 48 53 119T24 254T-5 365T-18 434Q-18
443 -15 451T0 459Q15 459 28 438T55 381Q64 357 78 322T111 247T150 162T197 76Q240 2 287 -47T383 -125T484 -167T586 -180Q647 -180 691 -157T765 -97T807 -14T821 78Q821 169 797 248T733 400T642 540T538 671T433 798T343 926T279 1061T254 1208Q254 1283
273 1340T323 1439T395 1509T479 1555T566 1579T647 1587Z" />
<glyph unicode="T" glyph-name="T" horiz-adv-x="1350" d="M109 1786Q130 1786 158 1782T217 1771T283 1758T352 1747Q409 1739 464 1733T579 1722T709 1715T862 1712Q968 1712 1041 1719T1167 1734T1259 1750T1339 1757Q1383 1757 1397 1737T1411 1681Q1411 1648
1408 1601T1400 1502T1388 1401T1372 1310T1353 1245T1333 1221Q1321 1221 1317 1262T1307 1384Q1304 1443 1293 1488T1260 1566T1203 1618T1116 1647Q1073 1655 1018 1657T903 1659V369Q903 263 915 197T947 92T990 36T1036 10Q1051 4 1072 0T1116 -7T1161 -11T1202
-14Q1242 -16 1265 -20T1288 -41Q1288 -48 1284 -55T1269 -67T1238 -76T1184 -80Q1133 -80 1084 -78T985 -76Q909 -76 838 -86T698 -118T559 -170T416 -244Q393 -258 370 -269T332 -281Q319 -281 319 -268Q319 -257 334 -243T375 -210T432 -166T500 -109Q550 -62
580 -16T628 80T653 186T664 311L731 1661Q684 1662 653 1662T594 1663T540 1663T475 1663Q406 1663 358 1657T278 1638T227 1608T200 1565T188 1510T186 1444Q186 1405 190 1364T202 1282T217 1207T233 1143Q240 1117 246 1097T252 1063Q252 1058 250 1051T238
1044Q225 1044 211 1063T182 1113T154 1185T128 1267T104 1351T84 1427Q62 1512 52 1584T41 1700Q41 1740 54 1763T109 1786Z" />
<glyph unicode="U" glyph-name="U" horiz-adv-x="1415" d="M848 1614Q874 1614 874 1593Q874 1578 861 1566T813 1538Q795 1530 774 1519T730 1494T685 1460T643 1415Q617 1383 598 1333T566 1220T546 1081T539 924Q539 834 545 746T565 577T604 429T663 311T748
233T862 205Q945 205 1004 249T1102 362T1159 515T1178 680Q1178 701 1178 736T1176 815T1171 904T1160 993T1142 1071T1116 1128Q1101 1149 1081 1166T1033 1197T965 1221T874 1239Q832 1245 810 1253T788 1284Q788 1303 805 1310T854 1317Q883 1317 917 1313T991
1305T1075 1296T1167 1292Q1211 1292 1255 1297T1339 1307T1415 1318T1479 1323Q1514 1323 1526 1317T1538 1300Q1538 1288 1524 1284T1487 1278Q1463 1276 1436 1274T1381 1265T1331 1244T1292 1204Q1272 1171 1264 1114T1252 988T1249 845T1245 702Q1243 662
1236 601T1212 471T1165 334T1087 210T968 121T801 86Q707 86 630 114T492 193T387 314T315 469Q298 520 288 583T271 717T261 861T256 1008Q254 1071 250 1122T237 1212T213 1277T172 1319Q144 1336 115 1343T39 1350Q0 1350 0 1378Q0 1401 33 1407Q77 1414 121
1420T213 1433T310 1448T414 1470Q511 1494 584 1519T709 1566T795 1600T848 1614Z" />
<glyph unicode="V" glyph-name="V" horiz-adv-x="1636" d="M870 1606Q891 1606 891 1593Q891 1585 883 1579T846 1561Q833 1556 813 1549T771 1532T727 1512T688 1491Q670 1480 661 1466T651 1430Q651 1410 660 1376T685 1300T722 1211T765 1116T809 1025T850
946Q872 903 899 853T955 752T1011 654T1062 570T1103 511T1130 489Q1139 489 1152 511T1182 568T1216 645T1249 729Q1261 762 1275 808T1302 903T1323 994T1331 1063Q1331 1086 1322 1099T1295 1119T1255 1128T1204 1130Q1181 1130 1157 1129T1110 1128Q1065 1128
1065 1155Q1065 1169 1076 1175T1110 1184Q1124 1185 1160 1188T1247 1199T1358 1223T1479 1268Q1551 1302 1600 1336T1684 1399T1741 1446T1780 1464Q1800 1464 1800 1444Q1800 1428 1777 1405T1716 1345T1626 1255T1518 1126Q1484 1081 1451 1019T1384 887T1319
740T1253 590Q1187 443 1145 338T1075 164T1033 64T1008 31Q999 31 984 53T949 116T904 212T850 336Q836 368 811 429T754 568T684 734T606 909T527 1075T451 1212Q412 1275 369 1320T256 1391Q216 1405 180 1410T98 1419Q53 1422 31 1430T8 1458Q8 1478 27 1486T88
1495Q110 1495 131 1494T174 1492T220 1490T274 1489Q341 1489 408 1497T538 1519T656 1547T756 1576T829 1597T870 1606Z" />
<glyph unicode="W" glyph-name="W" horiz-adv-x="2294" d="M586 1300Q595 1300 598 1295T602 1284Q602 1272 585 1250T547 1199T509 1135T492 1067Q492 1032 501 989T523 901T553 811T584 731Q589 716 602 686T631 618T665 542T701 471T732 418T754 397Q762 397
776 414T808 463T851 537T905 631Q950 710 984 773T1044 880T1085 947T1110 971Q1119 971 1133 956T1175 902T1247 795T1362 621Q1373 604 1393 572T1439 501T1491 422T1543 348T1587 294T1616 272Q1626 272 1644 298T1683 363T1725 445T1763 522Q1770 537 1787
574T1826 663T1876 778T1929 909T1981 1043T2025 1171T2056 1279T2068 1358Q2068 1384 2051 1405T2003 1442Q1956 1466 1920 1481T1858 1508T1819 1529T1806 1552Q1806 1563 1814 1569T1833 1575Q1848 1575 1872 1567T1935 1546T2034 1518T2181 1491Q2250 1482
2308 1479T2417 1475Q2448 1475 2469 1476T2503 1477Q2531 1477 2541 1470T2552 1450Q2552 1438 2544 1432T2525 1421T2500 1416T2474 1415Q2422 1415 2386 1413T2322 1403T2272 1380T2228 1339Q2205 1313 2175 1260T2111 1135T2040 979T1965 809T1890 638T1819
483Q1798 439 1769 374T1706 235T1640 90T1576 -41T1523 -135T1489 -172Q1472 -172 1435 -101T1335 104Q1297 187 1263 266T1198 416T1142 546T1097 648T1063 715T1042 739Q1035 739 1018 712T977 643T927 550T877 452T834 367T807 313L657 29Q643 4 634 -6T614
-16Q597 -16 582 20Q570 48 556 85T526 164T494 252T461 342Q432 423 409 499T364 644T319 770T268 868T205 933T123 956Q100 956 79 954T38 948T2 943T-27 940Q-61 940 -61 965Q-61 979 -52 985T-29 997Q-11 1003 19 1008T88 1023T177 1050T283 1096Q363 1136
416 1173T503 1238T556 1283T586 1300Z" />
<glyph unicode="X" glyph-name="X" horiz-adv-x="1778" d="M909 1577Q936 1577 936 1559Q936 1544 918 1535T878 1513T838 1480T819 1421Q819 1388 830 1348T856 1269T890 1193T922 1133Q929 1118 944 1092T977 1034T1015 970T1055 912T1091 869T1118 852Q1130
852 1147 867T1184 906T1226 963T1270 1030Q1288 1059 1304 1088T1332 1146T1351 1198T1358 1243Q1358 1269 1340 1287T1298 1323Q1281 1335 1264 1345T1233 1364T1211 1381T1202 1397Q1202 1411 1217 1411Q1229 1411 1247 1402T1293 1377T1357 1344T1446 1309Q1502
1290 1548 1281T1632 1266Q1663 1259 1676 1254T1690 1239Q1690 1223 1663 1223Q1644 1223 1615 1229T1554 1235Q1531 1235 1509 1229T1468 1208Q1447 1193 1418 1158T1357 1077T1292 981T1235 887T1194 809T1178 764Q1178 747 1194 708T1236 617T1294 509T1357
398T1417 300T1462 229Q1485 195 1506 168T1553 118T1609 75T1686 37Q1711 26 1732 19T1770 5T1795 -8T1804 -23Q1804 -31 1795 -37T1753 -43Q1721 -43 1676 -36T1573 -21T1441 -5T1278 2Q1238 2 1199 1T1126 -2T1064 -5T1016 -6Q991 -6 976 -2T961 20Q961 31 970
39T1012 49Q1025 50 1047 50T1097 51T1153 53T1208 59Q1236 64 1253 72T1270 94Q1270 108 1260 133T1231 191T1189 264T1137 348Q1103 402 1070 455T1009 549T960 617T928 643Q921 643 900 621T849 561T784 474T715 371Q675 309 647 250T618 147Q618 118 628 95T657
51Q669 39 684 29T711 10T732 -9T741 -27Q741 -47 717 -47Q699 -47 670 -36T602 -9T516 24T416 55Q345 72 271 76T123 82Q89 82 76 88T63 106Q63 119 76 126T129 133Q149 133 177 134T238 138T305 148T371 164Q416 179 452 199T518 247T576 307T633 379Q648 400
670 429T716 493T764 562T807 630T838 688T850 729Q850 746 835 784T792 874T729 984T650 1102T561 1215T469 1311Q429 1346 382 1370T281 1408T168 1429T47 1436Q0 1436 0 1460Q0 1471 9 1478T43 1485Q78 1485 116 1484T199 1483Q253 1483 324 1485T496 1499Q579
1508 647 1521T767 1546T855 1568T909 1577Z" />
<glyph unicode="Y" glyph-name="Y" horiz-adv-x="1632" d="M733 1739Q733 1729 720 1721T684 1703T634 1682T575 1655Q555 1645 543 1630T530 1591Q530 1566 552 1528T607 1448T675 1365T737 1292Q765 1258 804 1215T883 1133T957 1068T1010 1040Q1020 1039 1036
1051T1073 1084T1115 1129T1158 1182T1200 1234T1235 1278Q1256 1304 1283 1340T1334 1412T1374 1480T1391 1530Q1391 1541 1382 1551T1359 1570T1328 1588T1292 1602Q1274 1608 1262 1616T1249 1636Q1249 1646 1256 1650T1274 1655Q1289 1655 1309 1648T1359 1631T1429
1610T1524 1591Q1569 1585 1605 1582T1671 1577T1724 1575T1769 1575Q1817 1575 1817 1554Q1817 1530 1763 1530Q1752 1530 1730 1531T1679 1532Q1658 1532 1634 1532T1585 1528T1537 1517T1493 1497Q1469 1482 1443 1455T1390 1394T1333 1322T1276 1245Q1247 1207
1221 1171T1172 1103T1131 1043T1100 995Q1078 961 1064 933T1042 877T1030 816T1026 743Q1026 688 1027 624T1032 494T1038 364T1045 242T1052 140T1059 66Q1068 -17 1088 -64T1141 -137Q1155 -149 1174 -159T1210 -179T1239 -199T1251 -221Q1251 -229 1246 -234T1225
-240Q1203 -240 1168 -231T1085 -209T981 -183T860 -162Q804 -156 754 -154T662 -152Q615 -152 582 -153T532 -154Q505 -154 489 -148T473 -127Q473 -110 491 -103T538 -91T604 -81T680 -63Q706 -55 723 -41T752 -8T770 33T782 80Q788 107 795 159T809 279T820
423T825 575Q825 628 823 675T809 768Q802 798 779 843T722 942T645 1055T557 1174T466 1290T380 1392T306 1471T254 1520Q230 1538 209 1550T167 1570T122 1584T68 1595Q20 1601 20 1624Q20 1636 30 1642T72 1649Q124 1649 194 1651T369 1669Q451 1681 508 1696T606
1724T671 1746T713 1755Q733 1755 733 1739Z" />
<glyph unicode="Z" glyph-name="Z" horiz-adv-x="1286" d="M201 -229Q197 -221 197 -211Q197 -176 222 -87T299 156Q315 204 336 277T382 436T432 618T483 806T530 984T568 1137T594 1247T604 1300Q604 1305 591 1309T556 1317T507 1323T449 1325Q419 1325 388
1322T328 1309T273 1282T225 1239Q199 1206 185 1161T162 1071T151 990T145 940Q139 899 121 899Q113 899 108 908T102 944Q102 974 105 1019T112 1112T119 1208T123 1290Q123 1361 119 1405T115 1475Q115 1495 123 1495Q130 1495 154 1478T230 1441T365 1403T575
1386Q653 1386 717 1394T829 1412T911 1430T961 1438Q977 1438 977 1421Q977 1398 959 1348T915 1225Q892 1158 858 1068T782 869T696 638T606 385Q565 264 535 177T486 31T458 -61T449 -106Q449 -117 458 -119T479 -121Q509 -121 563 -114T682 -96T812 -69T930
-35Q1004 -10 1047 29T1113 117T1142 219T1149 326Q1149 352 1147 380T1142 437T1137 489T1135 532Q1135 565 1147 565Q1157 565 1165 545T1183 486T1206 393T1237 268Q1257 194 1275 132T1307 23T1329 -56T1337 -104Q1337 -121 1321 -121Q1307 -121 1281 -117T1219
-108T1140 -98T1051 -94Q989 -94 910 -103T742 -129T562 -165T379 -207Q329 -219 292 -229T231 -240Q220 -240 213 -238T201 -229Z" />
<glyph unicode="[" glyph-name="bracketleft" horiz-adv-x="705" d="M264 1667Q293 1667 333 1662T419 1648T518 1630T623 1610Q647 1605 665 1597T684 1577Q684 1563 651 1563Q627 1563 603 1566T554 1572T509 1578T469 1581Q447 1581 429 1578T397 1563Q374
1543 357 1479T326 1314T303 1083T287 795Q283 712 280 627T274 458T270 294T268 141Q268 68 270 5T276 -108T287 -195T303 -250Q315 -274 335 -288T379 -311T432 -321T489 -324Q499 -324 511 -324T536 -323T560 -323T580 -322Q622 -322 639 -332T657 -360Q657
-374 640 -383T591 -397T517 -404T424 -406Q377 -406 335 -404T266 -399Q229 -395 192 -389T122 -373T67 -345T37 -299Q29 -274 26 -227T23 -115Q23 0 31 153T51 473Q57 555 66 654T86 858T109 1064T132 1253T152 1407T168 1507Q176 1553 185 1584T205 1633T230
1659T264 1667Z" />
<glyph unicode="\" glyph-name="backslash" horiz-adv-x="711" d="M43 1942Q61 1942 77 1913T108 1844T133 1764T152 1700Q156 1684 170 1633T205 1507T249 1344T299 1166T347 993T389 846Q402 802 421 736T464 591T514 425T565 251T612 83T652 -64T680 -178T690
-244Q690 -258 685 -266T668 -274Q648 -274 631 -239T594 -141Q568 -62 535 50T464 290T388 553T315 815Q298 876 278 951T236 1107T192 1270T148 1427T109 1565T78 1673Q53 1757 38 1818T23 1911Q23 1929 29 1935T43 1942Z" />
<glyph unicode="]" glyph-name="bracketright" horiz-adv-x="686" d="M489 1417Q514 1417 522 1401T535 1362Q537 1346 542 1299T554 1185T569 1042T584 888T598 743T608 629Q617 521 627 410T645 200T659 21T664 -102Q664 -123 662 -137T654 -162T639 -181T616
-197Q598 -207 572 -217T513 -242T438 -273T346 -315Q306 -335 261 -359T174 -404T99 -440T49 -455Q34 -455 27 -448T20 -432Q20 -427 22 -420T37 -403Q54 -391 93 -373T176 -330T263 -273T328 -199Q343 -171 352 -134T365 -55T370 36T371 137Q371 185 370 232T368
323T365 402T362 465Q361 497 359 558T354 696T347 857T339 1018T330 1160T322 1260Q318 1284 309 1291T279 1298Q262 1298 240 1295T196 1288T153 1281T119 1278Q106 1278 95 1282T84 1300Q84 1314 101 1323T148 1341T214 1356T293 1374Q340 1386 371 1394T425
1407T461 1414T489 1417Z" />
<glyph unicode="^" glyph-name="asciicircum" horiz-adv-x="1348" d="M631 1612Q645 1612 661 1591T706 1532T778 1444T891 1337Q957 1283 1020 1248T1134 1190T1214 1155T1245 1133Q1245 1120 1229 1112T1174 1104Q1141 1104 1095 1114T998 1141T896 1179T801
1223Q759 1244 725 1263T665 1298T620 1322T592 1331Q584 1331 554 1317T482 1280T390 1232T291 1184T199 1148T127 1133Q116 1133 109 1138T102 1149Q102 1161 120 1172T170 1200T247 1244T348 1315Q423 1373 471 1426T549 1521T598 1587T631 1612Z" />
<glyph unicode="_" glyph-name="underscore" horiz-adv-x="1389" d="M1196 -487Q1208 -487 1223 -488T1253 -493T1276 -507T1286 -532Q1286 -549 1270 -564T1204 -580Q1156 -582 1098 -583T969 -585T814 -590T629 -600Q580 -603 515 -608T384 -619T258 -629T160
-633Q152 -633 142 -633T123 -629T108 -621T102 -606Q102 -592 115 -584T160 -567Q191 -560 247 -553T369 -540T500 -528T618 -518Q664 -515 717 -511T825 -504T934 -497T1038 -492T1127 -489T1196 -487Z" />
<glyph unicode="`" glyph-name="grave" horiz-adv-x="571" d="M172 1935Q191 1935 212 1922T256 1887T302 1835T346 1772Q370 1736 392 1702T430 1637T457 1583T467 1540Q467 1529 462 1521T446 1513Q434 1513 412 1527T361 1565T300 1619T238 1681Q214 1705 190
1730T146 1779T114 1827T102 1870Q102 1904 124 1919T172 1935Z" />
<glyph unicode="a" glyph-name="a" horiz-adv-x="1081" d="M309 721Q272 721 240 735T183 777T145 847T131 946Q131 1008 148 1067T203 1173T297 1248T436 1276Q503 1276 554 1259T645 1212T711 1143T758 1062T789 976T811 893Q816 871 823 831T840 737T859 624T879
501T898 381T916 274T929 191T938 143Q944 112 951 80T970 22T999 -22T1042 -39Q1057 -39 1068 -32T1085 -13T1095 14T1098 45Q1098 64 1097 83T1096 117Q1096 132 1100 143T1116 154Q1127 154 1133 142T1143 113T1148 80T1149 55Q1149 20 1143 -24T1118 -109Q1100
-151 1058 -178T961 -205Q913 -205 879 -191T820 -156T779 -111T752 -66Q724 -12 710 52T686 176Q671 151 641 114T565 43T461 -15T330 -39Q250 -39 194 -17T101 44T48 134T31 244Q31 306 54 369T129 483T266 566T473 598Q501 598 527 596T575 590T612 584T635
580Q629 666 620 752Q616 788 612 828T602 908T591 988T578 1061Q562 1138 516 1183T397 1229Q358 1229 329 1215T279 1179T248 1130T238 1075Q238 1046 252 1027T286 992T331 964T375 933T410 891T424 829Q424 780 391 751T309 721ZM643 518Q636 521 619 525T577
534T526 542T471 545Q418 545 373 530T294 486T242 412T223 309Q223 256 240 222T285 167T346 139T412 131Q463 131 509 147T590 184T647 225T674 252Q667 319 661 374Q658 398 656 421T651 464T646 498T643 518Z" />
<glyph unicode="b" glyph-name="b" horiz-adv-x="1192" d="M311 2238Q312 2221 313 2184T317 2096T321 1987T325 1870T328 1758T332 1663Q333 1637 335 1589T340 1475T348 1332T357 1168T368 994T381 819Q429 878 480 916T581 975T678 1005T764 1014Q853 1014
926 983T1050 897T1130 763T1159 590Q1159 496 1141 424T1093 298T1021 207T934 146T839 109T743 90Q693 84 649 83T559 79T462 72T346 55Q303 47 255 32T160 1T75 -25T12 -37Q0 -37 -8 -32T-16 -14Q-16 7 18 16Q76 33 112 54T168 105T195 174T203 268Q203 291
201 358T196 522T189 734T180 973T170 1215T161 1437T152 1616T143 1729Q138 1785 125 1818T93 1869T47 1892T-10 1898Q-55 1898 -83 1895T-135 1892Q-148 1892 -156 1896T-164 1911Q-164 1922 -157 1928T-127 1937Q-97 1942 -61 1949T11 1968T84 1999T150 2046Q178
2072 197 2101T229 2158T250 2211T264 2255T276 2286T291 2298Q302 2298 305 2282T311 2238ZM649 907Q604 907 566 893T495 856T436 805T389 750Q400 613 411 510T438 334Q447 293 462 257T501 195T560 153T643 137Q727 137 780 171T865 259T908 381T920 514Q920
581 908 650T864 777T781 870T649 907Z" />
<glyph unicode="c" glyph-name="c" horiz-adv-x="897" d="M676 881Q644 881 617 891T569 921T538 973T526 1047Q526 1077 523 1105T508 1155T477 1190T422 1204Q381 1204 341 1179T269 1102T217 975T197 799Q197 677 221 582T292 420T406 318T557 283Q612 283
655 302T728 353T772 428T788 520Q788 571 776 606T749 665T722 706T709 735Q709 750 725 750Q740 750 763 734T809 688T848 613T864 514Q864 424 835 355T753 238T629 166T473 141Q375 141 294 178T155 284T64 453T31 678Q31 738 42 797T72 909T116 1009T170 1090Q213
1142 258 1177T349 1234T445 1265T547 1274Q604 1274 654 1258T740 1213T798 1144T819 1053Q819 1005 806 973T772 920T726 890T676 881Z" />
<glyph unicode="d" glyph-name="d" horiz-adv-x="1073" d="M915 2030Q923 2030 925 2016T928 1976Q928 1898 927 1808T923 1619T919 1417T913 1210Q910 1065 907 927T902 674T899 472T897 344Q897 296 905 265T926 215T956 185T993 168Q1018 159 1041 156T1083
150T1111 144T1122 129Q1122 114 1101 110T1055 106Q1021 106 961 111T823 117Q785 117 747 113T667 105T574 96T459 92Q369 92 290 114T152 183T59 306T25 489Q25 584 59 658T153 784T292 862T461 889Q554 889 616 874T717 844Q717 940 715 1039T711 1233T706
1412T701 1560T696 1664T694 1710Q693 1725 692 1739T687 1765T676 1783T657 1790Q642 1790 623 1784T585 1770T546 1756T512 1749Q503 1749 495 1752T487 1767Q487 1780 496 1788T524 1804Q537 1810 554 1815T595 1831T654 1858T735 1903Q781 1930 812 1953T864
1993T896 2020T915 2030ZM725 375Q725 419 725 470T724 575T722 682T719 782Q688 798 643 808T543 819Q476 819 425 796T339 731T286 630T268 498Q268 420 285 357T335 248T420 179T539 154Q597 154 634 172T692 219Q712 247 718 286T725 375Z" />
<glyph unicode="e" glyph-name="e" horiz-adv-x="889" d="M819 530Q833 507 844 468T856 389Q856 316 832 259T763 162T655 101T512 80Q398 80 309 118T158 226T65 390T33 600Q33 703 55 787T115 937T203 1052T309 1133T423 1180T535 1196Q588 1196 645 1182T749
1134T827 1045T858 905Q858 832 837 777T780 682T701 616T610 575T519 553T440 547Q391 547 345 554T272 569Q276 491 296 419T355 291T449 203T582 170Q635 170 673 188T737 236T774 307T786 391Q786 417 783 445T770 498Q764 513 760 526T756 547Q756 567 774
567Q783 567 795 558T819 530ZM268 635Q294 627 327 622T410 616Q468 616 517 638T601 699T656 795T676 920Q676 981 663 1022T627 1089T577 1124T518 1135Q480 1135 436 1112T355 1032T293 879T268 635Z" />
<glyph unicode="f" glyph-name="f" horiz-adv-x="614" d="M678 2304Q734 2304 786 2287T878 2231T943 2132T967 1987Q967 1911 948 1849T895 1743T814 1675T711 1651Q674 1651 645 1662T596 1693T566 1739T555 1796Q555 1817 560 1839T579 1881T617 1920T680 1954Q754
1983 788 2025T823 2126Q823 2146 816 2171T791 2217T741 2254T659 2269Q597 2269 553 2237T477 2151T427 2029T398 1889T385 1749T381 1626Q381 1587 382 1549T394 1480T425 1430T485 1411Q516 1411 548 1417T610 1429T665 1442T707 1448Q735 1448 735 1427Q735
1413 723 1405T678 1391Q663 1388 645 1386T602 1380T548 1372T479 1358Q453 1352 438 1343T414 1321Q404 1305 402 1282T399 1229Q399 1221 400 1169T404 1037T410 856T416 649T423 440T430 251T435 107T440 29Q445 -31 463 -70T528 -123Q544 -128 557 -130T585
-134T616 -138T655 -143Q681 -146 696 -153T711 -176Q711 -196 688 -205T625 -215Q602 -215 563 -214T479 -213Q385 -214 313 -231T187 -270T93 -308T25 -326Q2 -326 2 -307Q2 -295 13 -287T47 -268Q92 -250 122 -230T171 -183T198 -118T209 -23Q211 24 211 93T211
246Q211 329 211 422T210 609T208 795T206 968T204 1114T201 1223Q200 1248 196 1264T183 1289T159 1301T119 1305Q98 1305 72 1303T21 1299T-26 1294T-61 1292Q-78 1292 -89 1297T-100 1315Q-100 1329 -88 1334T-53 1343Q-16 1348 19 1351T104 1364Q146 1371 170
1392T208 1444T228 1512T240 1591Q252 1681 269 1768T311 1935T370 2082T449 2199T550 2276T678 2304Z" />
<glyph unicode="g" glyph-name="g" horiz-adv-x="1163" d="M995 1214Q1046 1214 1087 1199T1157 1156T1201 1093T1217 1016Q1217 935 1179 891T1075 846Q1048 846 1025 854T985 878T958 917T948 969Q948 1001 956 1026T965 1077Q965 1111 945 1124T899 1137Q865
1137 831 1114T774 1053Q765 1036 759 1018T752 985Q752 977 761 968T784 946T817 919T854 883Q886 848 912 795T938 670Q938 590 920 531T871 428T797 356T707 310T606 286T502 279H463Q398 268 358 238T317 160Q317 129 337 108T390 73T468 50T559 35T654 22T743
8Q812 -6 876 -29T990 -90T1070 -187T1100 -328Q1100 -393 1078 -449T1017 -553T925 -640T811 -707Q731 -744 636 -763T438 -782Q342 -782 258 -761T112 -697T13 -587T-23 -432Q-23 -359 1 -300T62 -195T146 -113T237 -53T320 -12T379 12Q344 16 309 26T245 53T198
96T180 160Q180 209 222 243T342 297Q285 312 236 340T151 411T95 510T74 639Q74 728 105 798T191 916T318 990T475 1016Q500 1016 526 1014T575 1008T617 1002T649 999Q674 999 690 1006T721 1036Q741 1068 765 1100T821 1157T895 1198T995 1214ZM545 956Q507
956 470 939T403 881T355 775T336 616Q336 539 352 485T395 395T455 343T520 326Q548 326 584 339T652 391T706 496T729 670Q729 812 680 884T545 956ZM231 -369Q231 -442 252 -505T316 -616T419 -691T559 -719Q649 -719 714 -691T821 -616T883 -509T903 -383Q903
-320 887 -265T838 -164T753 -86T629 -33Q582 -20 539 -14T461 -4Q426 -25 386 -58T311 -137T254 -241T231 -369Z" />
<glyph unicode="h" glyph-name="h" horiz-adv-x="1161" d="M459 2191Q473 2191 477 2183T481 2167Q481 2153 477 2130T467 2067T454 1971T438 1831Q427 1716 419 1599T404 1371T392 1159T384 972T378 822T375 719Q391 766 418 813T485 898T575 959T688 983Q725
983 766 974T845 939T915 872T965 762Q981 697 985 635T989 500Q989 446 987 380T985 246Q985 201 993 176T1017 137T1054 120T1102 115Q1112 114 1122 113T1141 109T1155 100T1161 84Q1161 73 1150 64T1110 55Q1070 55 1023 64T915 74Q877 74 836 66T756 49T685
31T635 23Q619 23 616 28T612 39Q612 47 618 51T641 61Q661 68 676 74T705 88Q720 97 733 117T754 184Q757 209 759 242T762 313T765 391T766 471Q766 537 764 595T756 692Q743 776 708 825T608 874Q577 874 553 862T509 831T475 788T449 739Q429 696 411 629T380
485T360 327T352 176Q352 143 360 123T383 90T420 70T469 57Q483 54 491 50T500 33Q500 10 465 10Q438 10 400 16T318 31T229 46T141 53Q86 53 43 48T-31 43Q-74 43 -74 70Q-74 81 -66 87T-43 94Q-34 94 -22 93T2 92Q38 92 64 100T108 130T140 186T162 276Q168
311 175 383T192 550T210 758T227 987T244 1217T257 1429T266 1602T270 1718Q270 1777 260 1811T233 1864T198 1887T160 1892Q142 1892 121 1889T79 1881T37 1874T-2 1870Q-18 1870 -24 1876T-31 1894Q-31 1907 -23 1914T2 1927Q26 1935 54 1943T114 1962T184 1990T264
2032Q313 2060 344 2088T396 2139T430 2176T459 2191Z" />
<glyph unicode="i" glyph-name="i" horiz-adv-x="618" d="M317 1604Q376 1604 411 1573T446 1485Q446 1447 434 1422T403 1381T362 1359T317 1352Q298 1352 277 1358T238 1378T209 1416T197 1475Q197 1512 209 1536T239 1576T278 1597T317 1604ZM459 1276Q469
1276 469 1253Q469 1238 466 1204T457 1130Q449 1068 441 993T426 838T412 680T400 536T392 419T389 344Q389 313 393 293T403 260T416 239T432 225Q441 219 454 214T482 205T512 197T541 193Q562 189 575 187T588 174Q588 154 545 154Q515 154 485 158T424 169T358
179T285 184Q249 184 220 182T167 177T122 172T80 170Q63 170 49 174T35 193Q35 207 50 212T82 221Q102 225 121 230T155 245T181 273T195 319Q199 374 201 431T204 543T205 651T205 750Q205 805 205 850T203 928Q201 979 192 1008T165 1051T120 1069T55 1077Q44
1079 38 1084T31 1100Q31 1119 61 1122Q76 1123 99 1125T152 1133T219 1147T295 1174Q339 1192 367 1210T414 1242T442 1266T459 1276Z" />
<glyph unicode="j" glyph-name="j" horiz-adv-x="752" d="M426 1313Q451 1313 473 1305T511 1280T537 1241T547 1188Q547 1165 539 1143T515 1103T476 1074T422 1063Q399 1063 378 1071T340 1094T313 1131T303 1182Q303 1217 314 1242T342 1282T382 1305T426 1313ZM573
940Q585 940 594 932T613 903T630 844T649 750Q664 667 675 579T693 401T705 225T709 57Q709 -146 688 -305T627 -585T535 -790T418 -927T283 -1004T137 -1028Q41 -1028 -28 -997T-142 -913T-208 -793T-229 -653Q-229 -567 -206 -502T-144 -393T-56 -327T45 -305Q90
-305 122 -318T173 -353T202 -402T211 -457Q211 -495 200 -522T170 -568T125 -598T70 -616Q23 -626 -12 -638T-71 -670T-107 -715T-119 -780Q-119 -820 -101 -856T-51 -919T27 -963T129 -979Q240 -979 317 -923T442 -768T511 -531T532 -231Q532 -73 519 63T485
311T439 504T391 637Q365 696 324 742T225 817Q185 837 145 849T76 870Q47 880 47 893Q47 909 70 909Q79 909 99 907T147 902T210 897T285 895Q346 895 392 902T472 917T530 933T573 940Z" />
<glyph unicode="k" glyph-name="k" horiz-adv-x="1163" d="M352 -223Q301 -223 248 -227T147 -236T58 -246T-8 -250Q-28 -250 -35 -243T-43 -225Q-43 -201 -8 -201Q35 -201 64 -195T115 -180Q160 -163 185 -130T221 -56T234 31T236 119Q236 177 236 246T234 390T231
540T229 686T226 818T223 926Q222 984 221 1052T219 1190T216 1331T212 1462T206 1571T199 1649Q193 1690 178 1715T144 1753T101 1771T53 1776Q18 1776 -21 1771T-92 1765Q-118 1765 -129 1771T-141 1792Q-141 1804 -132 1811T-111 1821Q-59 1832 -16 1843T65
1866T134 1894T199 1929Q234 1951 258 1975T300 2018T330 2049T354 2062Q368 2062 372 2049T377 2021Q377 2005 376 1979T374 1921T372 1859T371 1802Q371 1763 372 1695T376 1542T382 1359T388 1165T395 977T402 811T409 685T414 616Q454 658 485 689T542 748T593
806T649 874Q666 897 674 916T682 952Q682 992 639 1014L557 1053Q537 1064 537 1081Q537 1091 542 1098T561 1106Q573 1106 588 1098T627 1079T685 1055T768 1032Q787 1028 813 1025T868 1020T922 1016T967 1014Q988 1014 1000 1009T1012 989Q1012 978 1001 971T963
963Q937 963 912 961T861 953T811 935T760 903Q744 891 723 872T680 830T638 784T604 739Q607 717 618 669T650 560T699 435T767 317T853 230T958 195Q1011 195 1043 233T1075 334Q1075 361 1068 386T1050 435T1024 477T993 512Q981 524 969 533T956 549Q956 557
967 557Q979 557 1000 545T1040 516Q1060 500 1078 478T1111 426T1134 362T1143 283Q1143 252 1134 210T1100 130T1031 64T918 37Q825 37 753 80T625 199T529 374T461 586L420 541Q422 492 425 435T434 321T444 208T453 107T462 28T469 -20Q475 -53 484 -79T510
-123T551 -150T614 -160Q631 -160 650 -159T688 -158Q701 -158 714 -159T737 -165T753 -176T760 -195Q760 -213 742 -226T668 -240Q640 -240 613 -238T550 -232T467 -226T352 -223Z" />
<glyph unicode="l" glyph-name="l" horiz-adv-x="725" d="M442 1870Q442 1859 442 1818T442 1720T443 1598T446 1473Q448 1389 453 1279T463 1051T475 812T488 588T500 402T508 279Q512 220 524 186T557 132T611 101T690 78Q707 73 712 67T717 53Q717 44 710 38T684
31Q675 31 648 33T583 38T503 43T418 45Q385 45 348 42T276 36T211 30T160 27Q146 27 133 32T119 55Q119 82 158 82Q184 82 216 85T270 96Q287 102 297 113T312 137T320 165T322 195Q322 213 320 252T313 345T304 462T292 593T280 728T268 855T258 964T250 1044Q245
1090 240 1139T230 1237T219 1329T207 1409Q201 1444 187 1463T143 1483Q120 1483 90 1472T28 1448T-30 1424T-74 1413Q-85 1413 -93 1418T-102 1438Q-102 1457 -82 1470Q-73 1477 -58 1484T-19 1503T42 1537T129 1593Q183 1630 227 1671T305 1750T363 1821T399
1872Q410 1887 416 1896T430 1905Q438 1905 440 1894T442 1870Z" />
<glyph unicode="m" glyph-name="m" horiz-adv-x="1450" d="M78 303Q78 316 89 322T118 332T157 338T197 346Q222 353 243 376T264 446Q264 495 260 549T248 655T232 750T213 823Q202 857 181 878T113 899Q99 899 87 898T66 897Q47 897 39 903T31 920Q31 934 43
939T79 949T137 962T217 989Q260 1007 287 1024T330 1055T356 1077T371 1085Q379 1085 386 1058T400 989T411 899T420 807Q428 825 447 854T497 912T567 960T659 981Q704 981 738 967T797 930T836 878T858 821Q877 855 902 885T958 936T1026 970T1108 983Q1172
983 1213 960T1277 899T1310 813T1319 715Q1319 674 1316 631T1309 545T1302 465T1298 395Q1298 364 1303 336T1319 285Q1331 258 1348 243T1381 219T1408 201T1419 180Q1419 171 1411 166T1389 160Q1371 160 1344 173T1287 206T1226 244T1169 276Q1128 296 1095
306T1037 324T1000 338T987 358Q987 369 996 374T1022 385Q1044 391 1061 409T1087 459Q1092 474 1097 497T1105 546T1111 601T1114 657Q1114 686 1111 722T1097 789T1063 842T1001 864Q975 864 956 855T922 833T899 804T883 774Q864 731 856 669T848 547Q848 488
868 453T922 401Q930 398 937 393T944 379Q944 358 913 358Q895 358 870 363T815 375T752 387T686 393Q661 393 644 391T598 389Q573 389 559 393T545 408Q545 414 550 417T563 421T582 425T604 432Q626 441 640 463T661 515T671 583T674 662Q674 691 672 727T658
795T625 848T563 870Q540 870 522 861T488 835T463 800T446 760Q440 740 431 685T422 539Q422 469 432 416T473 340Q493 325 515 319T557 309T589 301T602 285Q602 277 592 272T553 266Q537 266 511 269T454 277T392 285T334 289Q307 289 284 288T238 284T191 281T139
279Q118 279 106 281T87 288T80 296T78 303Z" />
<glyph unicode="n" glyph-name="n" horiz-adv-x="1198" d="M344 1288Q352 1288 360 1263T376 1196T392 1102T408 993L444 741Q449 774 461 817T495 906T546 996T615 1075T704 1131T815 1153Q890 1153 945 1125T1036 1046T1089 925T1106 772Q1106 697 1098 622T1080
473T1062 332T1053 205Q1053 170 1059 144T1077 96Q1091 75 1111 60T1150 31T1182 4T1196 -25Q1196 -34 1191 -40T1174 -47Q1156 -47 1135 -34T1082 0T1006 44T899 88Q852 104 805 113T694 125Q659 128 659 145Q659 164 682 164Q696 164 721 164T772 166Q812 169
838 190T877 270Q881 293 885 328T892 404T897 487T899 567Q899 601 898 645T892 738T875 832T841 914T785 972T702 995Q660 995 626 974T564 916T518 827T489 715Q478 653 475 588T471 457Q471 402 475 352T486 259T503 183T526 131Q545 105 567 92T604 74Q624
68 632 64T641 51Q641 45 632 40T600 35Q579 35 554 38T502 46T446 53T389 57Q361 57 332 55T277 51T228 47T193 45Q154 45 154 70Q154 79 160 85T184 94Q198 95 209 96T231 97T255 99T285 102Q317 107 328 125T340 176Q340 231 331 310T305 484T267 685T219 903Q207
960 192 988T147 1016Q132 1016 116 1011T85 999T55 987T29 981Q10 981 10 997Q10 1010 20 1015T43 1026Q71 1037 103 1054T174 1100Q211 1129 240 1162T290 1223T324 1269T344 1288Z" />
<glyph unicode="o" glyph-name="o" horiz-adv-x="1032" d="M43 614Q43 726 78 816T177 971T331 1069T532 1104Q631 1104 714 1071T859 977T954 828T989 631Q989 502 947 410T838 259T689 173T528 145Q433 145 346 176T191 268T84 415T43 614ZM518 1065Q461 1065
420 1037T351 960T312 847T299 711Q299 652 306 592T327 477T363 373T415 288T483 232T569 211Q630 211 671 238T738 310T773 410T784 522Q784 660 764 762T708 931T624 1032T518 1065Z" />
<glyph unicode="p" glyph-name="p" horiz-adv-x="1044" d="M430 1044Q430 1030 429 999T428 926Q428 902 428 888T429 861T429 831T430 784Q462 828 504 863Q522 878 544 892T592 917T648 935T711 942Q783 942 839 916T933 844T992 733T1012 590Q1012 473 981
380T897 222T773 121T621 86Q592 86 567 91T519 104T479 121T446 139Q445 98 445 67T444 5T444 -57T444 -131Q444 -199 445 -281T452 -441T468 -585T496 -682Q513 -713 538 -731T588 -760Q619 -774 642 -788T666 -817Q666 -828 659 -835T635 -842Q608 -842 560
-834T455 -815T342 -797T244 -788Q199 -788 169 -791T106 -795Q62 -795 47 -790T31 -776Q31 -767 41 -764T68 -758T106 -749T150 -727Q174 -710 188 -685T211 -628T222 -564T227 -498Q229 -473 231 -422T235 -302T239 -152T244 15T248 186T251 349T253 490T254
598Q254 662 251 703T239 769T218 803T186 813Q171 813 155 807T122 795T91 782T68 776Q51 776 51 793Q51 799 57 807T88 827Q104 836 126 845T173 867T226 897T281 940Q317 973 339 999T376 1042T399 1069T416 1079Q425 1079 427 1069T430 1044ZM614 844Q571 844
540 824T486 771T451 696T429 610T419 523T416 446Q416 393 423 340T450 244T504 174T590 147Q631 147 668 168T734 235T780 357T797 541Q797 607 787 662T755 758T698 821T614 844Z" />
<glyph unicode="q" glyph-name="q" horiz-adv-x="1036" d="M389 1014Q447 1014 492 1004T570 978T624 948T657 924Q659 938 659 955T661 988T666 1017T676 1036Q682 1042 693 1044T719 1047Q737 1047 760 1045T811 1042Q870 1042 915 1048T983 1055Q1006 1055
1006 1044Q1006 1032 977 1024T909 1004Q886 998 872 986T850 954T838 910T834 852Q833 846 833 812T833 723T832 595T832 438T831 263T831 79T831 -103T831 -274Q831 -341 831 -399T831 -503T832 -580T834 -627Q835 -662 845 -695T889 -754Q920 -777 954 -791T1012
-813Q1024 -818 1031 -822T1038 -838Q1038 -847 1032 -853T1014 -860Q982 -860 939 -847T848 -818T755 -785T672 -760Q644 -754 610 -749T541 -739T474 -733T418 -731Q380 -731 369 -725T358 -709Q358 -684 403 -684Q414 -684 433 -684T472 -685T511 -685T541 -686Q568
-686 584 -677T609 -650T621 -610T625 -559Q626 -532 627 -475T631 -342T634 -181T637 -9T640 155T641 291Q641 333 641 360T639 399Q616 378 585 361T517 332T441 314T365 307Q335 307 299 313T226 334T153 374T91 438T48 530T31 655Q31 737 58 803T134 916T248
988T389 1014ZM481 932Q434 932 394 916T325 868T279 787T262 672Q262 586 283 531T337 443T412 398T494 385Q524 385 551 394T600 420T634 462T649 520Q650 539 651 565T653 621T654 679T655 735Q655 763 655 783T653 813Q650 834 637 855T601 893T549 921T481
932Z" />
<glyph unicode="r" glyph-name="r" horiz-adv-x="848" d="M381 1276Q381 1264 380 1243T379 1198Q379 1169 382 1137T391 1077T402 1031T412 1012Q416 1012 423 1041T445 1114T483 1208T542 1303T628 1376T748 1405Q812 1405 855 1383T925 1328T962 1257T973 1184Q973
1131 959 1092T922 1026T868 987T807 973Q750 973 714 1000T678 1079Q678 1107 685 1127T705 1161T735 1184T774 1200Q817 1213 832 1232T848 1276Q848 1291 843 1305T825 1330T793 1349T745 1356Q688 1356 645 1330T570 1259T517 1156T483 1035T465 907T459 786Q459
735 463 676T473 556T488 439T503 335T517 254T526 207Q537 162 560 145T623 127Q640 127 658 128T686 129Q713 129 713 109Q713 93 698 88Q686 83 656 82T585 80T497 77T406 70Q357 64 311 54T226 34T157 17T109 10Q90 10 83 18T76 35Q76 50 88 56T123 70Q140
75 163 80T219 100Q251 114 263 137T276 209Q276 224 274 259T269 344T261 451T251 571T241 694T230 808T221 904T213 971Q209 1001 201 1018T182 1045T157 1056T125 1059H84Q79 1059 72 1059T57 1062T46 1070T41 1083Q41 1094 50 1099T72 1106Q122 1112 162 1123T242
1163Q266 1182 292 1213T336 1280Q348 1305 362 1305Q375 1305 378 1295T381 1276Z" />
<glyph unicode="s" glyph-name="s" horiz-adv-x="989" d="M598 1282Q639 1282 667 1278T716 1269T752 1259T782 1255Q799 1255 808 1273T827 1317Q840 1352 858 1352Q874 1352 878 1342T883 1323Q883 1311 881 1299T873 1266T862 1216T848 1141Q842 1104 839 1077T834
1029T830 991T825 956Q819 918 799 918Q786 918 782 930T778 958V1036Q778 1095 765 1135T728 1199T672 1233T602 1243Q569 1243 539 1232T485 1200T448 1147T434 1077Q434 1026 458 978T521 884T609 792T711 696T813 594T902 482T965 355T989 211Q989 108 957
29T871 -105T745 -187T592 -215Q536 -215 488 -203T399 -172T326 -129T272 -80Q231 -34 202 -10T139 14Q121 14 100 1T59 -27T20 -55T-10 -68Q-21 -68 -26 -62T-31 -49Q-31 -37 -16 -23Q-10 -17 7 -1T51 41T109 105T178 193Q212 240 234 281T272 353T300 402T328
420Q343 420 347 411T352 391Q352 376 341 352T318 294T294 215T283 113Q283 80 296 36T338 -47T414 -113T530 -141Q584 -141 627 -121T702 -65T749 22T766 135Q766 214 729 287T636 431T515 570T394 705T301 841T264 979Q264 1057 293 1114T369 1209T476 1264T598
1282Z" />
<glyph unicode="t" glyph-name="t" horiz-adv-x="889" d="M45 1083Q68 1091 105 1098T178 1114Q249 1131 296 1160T375 1231T431 1329T477 1456Q497 1518 517 1543T563 1569Q586 1569 595 1552T604 1507Q604 1480 595 1438T575 1348T554 1256T545 1176Q545 1160
551 1148T578 1135Q590 1135 607 1137T643 1141T682 1145T721 1147Q764 1147 764 1120Q764 1106 753 1100T723 1094Q709 1094 689 1093T646 1089T600 1079T557 1063Q529 1049 512 1028T483 985Q466 950 447 889T412 754T386 598T375 440Q375 333 393 257T443 130T519
57T614 33Q654 33 682 44T728 74T754 115T762 160Q762 187 748 205T715 241T683 278T668 330Q668 370 693 397T764 424Q784 424 802 417T835 394T859 354T868 295Q868 236 850 178T793 73T692 -3T541 -33Q441 -33 361 8T233 121Q190 187 170 270T150 440Q150 540
165 633T198 803T231 935T246 1016Q246 1034 236 1038T209 1042Q199 1042 182 1041T143 1039T99 1037T55 1036Q18 1036 18 1057Q18 1074 45 1083Z" />
<glyph unicode="u" glyph-name="u" horiz-adv-x="1524" d="M412 1112Q418 1112 423 1103T434 1057Q448 973 458 905T479 780Q503 649 526 546T582 372T660 264T778 227Q829 227 867 250T931 313T975 404T1001 509T1014 618T1018 719Q1018 762 1016 804T1002 879T965
933T891 954Q862 954 832 949T774 944Q760 944 751 950T741 969Q741 984 752 989T780 997Q798 998 822 1000T874 1006T935 1018T1001 1040Q1029 1052 1054 1068T1100 1098T1136 1123T1161 1133Q1172 1133 1175 1116T1182 1067Q1186 1025 1190 957T1201 807T1216
636T1237 459Q1243 413 1254 385T1280 340T1313 319T1354 313Q1399 313 1436 320T1493 328Q1512 328 1518 321T1524 305Q1524 296 1518 288T1493 274Q1465 268 1416 263T1300 248Q1246 240 1208 231T1147 221Q1125 221 1114 231T1096 270Q1090 299 1084 333T1073
403T1062 473T1051 539Q1043 485 1031 427T1000 314T953 209T886 122T796 63T678 41Q570 41 494 98T377 262Q354 320 340 385T317 512T303 627T291 717Q285 754 276 778T254 817T228 836T197 842Q181 842 163 838T126 828T90 818T59 813Q50 813 41 818T31 840Q31
858 47 864T88 879Q119 888 161 906T252 956Q292 983 318 1010T362 1060T391 1097T412 1112Z" />
<glyph unicode="v" glyph-name="v" horiz-adv-x="1229" d="M569 1182Q569 1171 561 1164T537 1145Q518 1131 504 1114T489 1067Q489 1041 499 995T528 892T569 771T616 642T664 517T708 408T742 327T760 285Q774 252 788 252Q796 252 801 259T809 274Q812 282
822 317T847 402T877 511T906 626T927 729T936 803Q936 819 933 829T923 846T908 856T891 862Q879 865 860 866T822 871T791 879T778 897Q778 911 792 914T821 918Q837 918 877 914T985 909Q1005 909 1032 912T1086 920T1138 928T1178 932Q1193 932 1205 929T1217
915Q1217 907 1208 902T1185 892T1154 884T1118 877Q1096 872 1081 864T1056 844T1039 820T1026 793Q1012 757 1000 720T972 634T938 525T893 379Q887 361 875 323T847 236T814 137T779 44T748 -26T725 -53Q715 -53 694 -19T642 71T577 202T504 357T429 520T359
674T300 804T258 893Q246 919 233 935T207 960T179 972T152 975Q137 975 120 970T88 959T58 947T33 942Q25 942 18 947T10 963Q10 976 25 983Q40 991 72 1002T144 1027T229 1057T313 1092Q362 1114 398 1134T463 1169T511 1193T547 1202Q559 1202 564 1196T569
1182Z" />
<glyph unicode="w" glyph-name="w" horiz-adv-x="1526" d="M553 991Q553 983 545 976T525 961T501 947T479 932Q462 916 457 897T451 858Q451 835 461 786T487 678T521 555T557 440T587 355T604 322Q609 322 623 353T657 433T700 543T747 666T793 781T831 870Q838
884 845 892T860 901Q869 901 876 893T891 870Q908 838 931 793T981 697T1033 598T1081 509T1118 445T1139 420Q1143 420 1153 450T1176 528T1201 632T1226 741T1244 833T1251 889Q1251 907 1245 915T1221 924Q1207 924 1188 921T1149 918Q1137 918 1132 923T1126
934Q1126 942 1130 946T1141 952Q1158 957 1201 958T1313 973Q1384 985 1429 1000T1499 1016Q1522 1016 1522 999Q1522 985 1505 979Q1490 973 1467 967T1415 950Q1394 943 1380 934T1355 913T1336 882T1321 840Q1314 818 1303 776T1278 680T1247 565T1213 442T1177
324T1142 224T1109 155T1081 129Q1068 129 1048 149T1005 203T955 278T903 365Q843 469 776 602Q774 595 764 567T739 499T707 414T675 327T647 254T629 209Q613 167 595 123T558 41T525 -21T500 -45Q490 -45 473 -16T435 61T391 171T343 301T296 435T254 559T221
658T199 717Q186 748 167 759T125 770Q100 770 78 764T37 758Q28 758 19 763T10 780Q10 797 23 804T57 817Q75 821 103 828T166 844T236 866T305 893Q356 916 394 937T459 974T504 1000T535 1010Q543 1010 548 1006T553 991Z" />
<glyph unicode="x" glyph-name="x" horiz-adv-x="1124" d="M14 1141Q28 1141 45 1140T86 1139Q124 1139 182 1141T324 1161Q398 1176 454 1193T550 1227T618 1253T664 1264Q676 1264 680 1260T684 1249Q684 1238 672 1233T645 1225Q626 1219 607 1212T571 1191T545
1158T535 1108Q535 1063 547 1018T571 938Q577 920 590 886T619 817T646 757T664 731Q666 731 676 742T699 771T729 809T759 848T783 880T795 897Q801 908 809 922T817 952Q817 966 809 978T778 999Q758 1006 740 1008T707 1014Q680 1020 680 1040Q680 1051 686
1056T702 1061Q716 1061 737 1058T786 1050T844 1042T907 1036Q932 1034 952 1034T991 1034Q1039 1034 1068 1037T1122 1040Q1136 1040 1145 1036T1155 1020Q1155 994 1104 991Q1069 989 1042 986T993 977Q962 968 926 945T850 872Q803 814 770 770T721 700Q713
686 709 673T705 643Q705 632 707 619T713 592Q718 573 727 546T748 487T772 425T796 367T815 320T827 293Q840 267 857 251T894 224T938 208T985 199Q1039 191 1060 186T1081 166Q1081 150 1059 145T995 139Q977 139 954 140T903 141Q874 141 841 139T770 131Q732
125 694 112T621 85T559 61T514 51Q494 51 487 61T479 80Q479 97 490 105T516 119Q533 124 556 129T601 142T638 159T653 182Q653 198 642 227T617 285T590 339T571 371Q562 389 543 389Q537 389 530 386T514 375Q507 368 493 350T464 312T435 275T416 250Q414
247 410 242T402 230T396 218T393 209Q393 204 399 202T413 199T429 197T442 195Q455 193 463 190T471 178Q471 170 463 166T444 162Q420 162 397 164T342 166Q317 166 286 162T223 154T167 145T129 141Q118 141 112 146T106 160Q106 179 133 182Q148 183 169 187T213
197T259 212T297 231Q322 248 347 270T396 318T441 369T477 418T501 460T510 492Q510 503 509 510T502 528Q493 549 477 582T442 656T401 739T360 821T323 892T295 944Q286 959 274 976T245 1010T211 1042T172 1069Q138 1088 100 1093T25 1098Q-10 1098 -10 1120Q-10
1128 -5 1134T14 1141Z" />
<glyph unicode="y" glyph-name="y" horiz-adv-x="1350" d="M592 1098Q600 1098 606 1094T612 1079Q612 1065 598 1055Q586 1045 560 1030T492 983Q466 964 452 941T430 891T422 832T420 762Q421 687 430 615T453 481T484 368T518 283Q553 211 605 168T731 125Q783
125 821 150T887 215T931 307T958 412T971 515T975 602Q975 701 959 753T911 825Q898 834 881 840T847 850T815 858T791 864Q769 869 761 877T752 899Q752 913 761 921T786 930Q815 930 864 925T979 920Q1015 920 1058 924T1143 935T1218 949T1270 963Q1284 968
1293 969T1307 971Q1319 971 1327 965T1335 948Q1335 937 1331 931T1317 918Q1294 902 1272 889T1239 850Q1230 829 1225 799T1217 726T1210 622T1200 479Q1193 388 1181 284T1150 68T1101 -165T1032 -408Q991 -532 937 -630T816 -798T671 -903T506 -940Q444 -940
393 -921T306 -868T249 -785T229 -678Q229 -615 247 -563T298 -472T375 -412T473 -391Q516 -391 548 -405T603 -442T636 -494T647 -555Q647 -582 639 -605T614 -646T575 -674T522 -684Q488 -684 467 -673T431 -646T408 -611T391 -575T374 -548T350 -537Q334 -537
321 -549T299 -580T284 -624T279 -674Q279 -722 296 -762T343 -830T416 -873T508 -889Q592 -889 655 -851T766 -755T845 -628T898 -495T927 -385T940 -322Q968 -145 976 -16T985 188Q985 213 985 231T983 263Q982 278 981 289Q974 268 964 245Q956 225 945 201T920
152Q902 121 875 92T811 39T730 1T633 -14Q544 -14 479 23T367 122T289 264T236 432T199 606T168 768Q162 799 150 809T121 819Q102 819 82 815T51 811Q42 811 37 816T31 829Q31 846 51 852Q96 864 131 875T196 897T252 919T305 944Q367 974 413 1002T493 1051T550
1085T592 1098Z" />
<glyph unicode="z" glyph-name="z" horiz-adv-x="944" d="M113 1151Q134 1151 167 1144T244 1127T342 1108T459 1094Q521 1089 566 1087T647 1085Q682 1085 712 1086T776 1087Q802 1087 811 1078T821 1055Q821 1044 817 1032T809 1012Q807 1008 790 971T745 876T683
745T612 594T540 443T477 308T430 207T408 158Q406 153 405 148T403 139Q403 125 417 123T446 121Q476 121 521 124T612 134T701 147T768 164Q802 176 824 196T861 241T882 291T895 342Q898 355 901 372T908 404T917 429T930 440Q940 440 942 417T944 367Q944 353
944 324T943 261T941 197T938 150Q935 108 925 87T887 66Q833 66 766 69T627 72Q588 72 546 72T455 68Q375 63 317 56T215 41T140 28T84 23Q62 23 54 29T45 47Q45 64 61 90Q172 268 259 414T412 676T524 881T598 1032Q573 1036 544 1039T483 1045T420 1049T360
1051Q334 1051 312 1050T274 1044Q240 1038 215 1018T170 964T135 886T106 784Q101 760 96 736T86 692T73 660T57 647Q51 647 46 654T41 682Q41 689 42 714T46 772T51 837T55 891L66 1094Q68 1128 79 1139T113 1151Z" />
<glyph unicode="{" glyph-name="braceleft" horiz-adv-x="944" d="M676 1956Q733 1956 776 1942T849 1909T894 1871T909 1839Q909 1825 895 1825Q880 1825 864 1837T824 1863T770 1889T694 1901Q617 1901 582 1850T547 1704Q547 1639 562 1567T595 1418T628 1265T643
1116Q643 1037 618 971Q596 912 558 871T476 801T388 757T307 730T248 716T225 707Q225 701 245 692T296 667T364 630T436 578Q490 530 523 470T574 343T598 202T604 57Q604 17 603 -22T602 -100Q602 -180 607 -252T629 -380T674 -467T752 -500Q790 -500 813 -484T851
-444T871 -391T880 -338T885 -297T895 -281Q909 -281 914 -305T920 -367Q920 -438 904 -488T857 -571T783 -619T688 -635Q602 -635 542 -609T444 -533T389 -410T371 -244Q371 -184 374 -112T382 31T391 164T395 266Q395 311 389 356T368 443T324 524T252 596Q208
629 167 648T93 679T40 701T20 725Q20 734 31 741T59 754T95 764T131 772Q192 787 242 813T328 880T383 977T403 1106Q403 1154 397 1206T383 1315T369 1429T362 1546Q362 1618 378 1691T432 1823T529 1919T676 1956Z" />
<glyph unicode="|" glyph-name="bar" horiz-adv-x="754" d="M346 1786Q354 1786 360 1782T371 1768T378 1739T381 1692Q381 1675 381 1629T383 1514T387 1361T391 1184T396 995T403 807Q405 758 408 684T414 525T420 349T426 178T431 31T436 -72Q437 -98 439 -128T442
-188T445 -246T446 -297Q446 -348 439 -371T418 -395Q411 -395 405 -390T394 -370T385 -325T379 -246L334 801Q333 829 332 880T328 995T324 1133T319 1280T315 1423T312 1546T310 1637T309 1681Q309 1737 317 1761T346 1786Z" />
<glyph unicode="}" glyph-name="braceright" horiz-adv-x="975" d="M43 1366Q31 1366 26 1374T20 1395Q20 1425 40 1469T101 1554T201 1624T338 1653Q432 1653 498 1625T606 1544T667 1421T686 1262Q686 1235 685 1201T683 1133T681 1066T680 1010Q680 968 685
932T704 870T744 828T813 813Q844 813 874 817T924 821Q938 821 946 818T954 805Q954 795 943 787T916 768T880 744T844 710T816 660T805 590Q805 530 825 458T869 306T914 138T934 -41Q934 -147 895 -235T789 -387T632 -486T440 -522Q414 -522 404 -514T393 -494Q393
-478 410 -472T449 -463Q467 -461 496 -455T558 -440T622 -416T676 -381Q700 -360 713 -336T734 -283T743 -225T745 -160Q745 -79 727 9T687 183T647 347T629 489Q629 553 653 598T706 672T760 718T784 739Q784 742 770 744T733 750T680 761T619 784T558 822T504
881Q467 935 451 1003T426 1143T411 1284T389 1406T343 1493T256 1526Q222 1526 197 1514T153 1485T118 1446T91 1408T67 1378T43 1366Z" />
<glyph unicode="~" glyph-name="asciitilde" horiz-adv-x="1503" d="M479 655Q532 655 579 645T670 619T757 585T846 551T942 525T1053 514Q1097 514 1136 530T1208 572T1268 625T1316 679T1354 720T1380 737Q1401 737 1401 709Q1401 694 1392 662T1362 588T1309
503T1231 423T1128 364T995 340Q937 340 882 354T773 389T668 435T568 481T471 516T379 530Q343 530 312 518T254 487T205 446T166 406T135 375T113 362Q110 362 106 364T102 375Q102 390 120 422T186 510Q211 540 242 566T309 612T387 643T479 655Z" />
<glyph unicode="&#xa0;" glyph-name="nbspace" horiz-adv-x="553" />
<glyph unicode="&#xa1;" glyph-name="exclamdown" horiz-adv-x="506" d="M238 1419Q253 1419 264 1406T283 1363T298 1288T315 1180Q321 1138 330 1063T348 891T367 686T384 468T396 257T401 72Q401 8 395 -48T371 -146T325 -212T248 -236Q219 -236 195 -223T153
-183T125 -112T115 -8Q115 86 128 216T158 499T188 821T203 1161Q203 1233 204 1282T209 1361T219 1405T238 1419ZM236 1946Q264 1946 288 1937T331 1911T359 1871T369 1817Q369 1751 331 1712T231 1673Q210 1673 188 1680T146 1702T115 1744T102 1810Q102 1846
114 1871T145 1913T188 1938T236 1946Z" />
<glyph unicode="&#xa2;" glyph-name="cent" horiz-adv-x="1638" d="M653 1348Q666 1348 671 1334T682 1303Q684 1294 689 1274T700 1226T715 1162T731 1087Q768 1100 806 1107T885 1114Q991 1114 1065 1080T1187 994T1255 879T1276 760Q1276 663 1234 615T1128
567Q1098 567 1075 577T1037 605T1014 643T1006 688Q1006 730 1019 760T1049 815T1078 863T1092 913Q1092 946 1079 975T1039 1025T975 1058T889 1071Q847 1071 812 1060T745 1028L977 70Q1044 77 1091 106T1170 171T1217 239T1241 287Q1247 301 1254 315T1274
330Q1282 330 1287 323T1292 299Q1292 285 1285 259T1264 201T1227 132T1173 62T1101 -1T1010 -49Q1026 -105 1045 -162T1080 -270T1107 -358T1118 -410Q1118 -418 1115 -428T1096 -438Q1083 -438 1072 -427T1051 -396T1032 -350T1012 -293Q993 -237 977 -177T948
-68Q928 -71 907 -73T862 -76Q736 -76 638 -34T472 81T369 253T334 465Q334 568 360 662T432 835T543 974T684 1069Q662 1157 650 1224T637 1319Q637 1348 653 1348ZM561 569Q561 465 583 375T649 218T759 111T913 68L709 997Q670 961 642 913T596 809T570 692T561
569Z" />
<glyph unicode="&#xa3;" glyph-name="sterling" horiz-adv-x="1638" d="M1030 854Q1043 854 1049 849T1055 836Q1055 825 1045 819T1022 807Q1010 803 990 798T945 785T893 771T838 756L815 750Q840 695 863 641T904 530T933 414T944 291Q944 213 930 148T889
29Q930 9 970 -10T1051 -45T1133 -70T1217 -80Q1246 -80 1273 -72T1322 -46T1357 -3T1370 59Q1370 101 1356 129T1326 177T1296 208T1282 229Q1282 244 1296 244Q1311 244 1333 230T1375 191T1409 131T1423 53Q1423 7 1409 -38T1365 -119T1288 -177T1174 -199Q1122
-199 1076 -187T990 -153T913 -106T844 -51Q809 -99 767 -135T679 -196T587 -232T498 -244Q462 -244 430 -234T373 -203T334 -153T319 -84Q319 -53 332 -18T377 46T458 95T582 115Q622 115 660 108T735 90V100Q735 174 716 245T666 386T599 529T530 676Q504 668
473 659T410 643T353 630T311 625Q297 625 289 632T281 651Q281 665 289 673T311 684L506 733Q475 812 455 894T434 1069Q434 1213 477 1319T588 1496T741 1600T911 1634Q987 1634 1051 1610T1162 1542T1235 1433T1262 1288Q1262 1221 1244 1171T1197 1088T1132
1039T1059 1022Q1030 1022 1002 1031T953 1060T918 1109T905 1178Q905 1216 916 1245T945 1300T983 1346T1020 1389T1049 1434T1061 1485Q1061 1503 1053 1524T1027 1562T981 1590T911 1602Q852 1602 804 1583T722 1528T670 1438T651 1315Q651 1240 663 1172T695
1041T740 918T793 801Q832 810 870 819T940 836T996 849T1030 854ZM500 -197Q540 -197 577 -184T645 -145T698 -77T729 20Q689 40 644 53T547 66Q508 66 477 55T425 24T391 -22T379 -76Q379 -132 412 -164T500 -197Z" />
<glyph unicode="&#xa4;" glyph-name="currency" horiz-adv-x="1501" d="M1034 1489Q1045 1489 1050 1483T1055 1466Q1055 1447 1042 1416T1012 1353T983 1294T969 1255Q969 1243 984 1228T1023 1193T1074 1146T1125 1081T1164 994T1180 881Q1180 822 1168 773T1138
685T1099 615T1060 563T1030 528T1018 510Q1018 505 1037 487T1083 446T1138 399T1186 360Q1217 335 1250 309T1312 258T1358 215T1376 184Q1376 178 1373 172T1358 166Q1343 166 1319 178T1268 206T1218 240T1178 268Q1166 277 1142 295T1087 338T1018 393T944
455Q920 440 890 423T817 392T715 368T575 358Q551 358 532 359T498 360Q472 360 461 352Q450 343 437 318T408 260T374 192T338 126T299 77T258 57Q244 57 234 67T223 100Q223 125 230 153T249 209T273 264T297 316T315 359T324 389Q324 397 313 410T283 445T243
494T203 561T173 647T160 754Q160 827 176 883T211 982T247 1052T264 1098Q264 1115 242 1140T194 1193T145 1247T123 1294Q123 1304 128 1310T145 1317Q164 1317 192 1296T251 1249T308 1202T352 1180Q367 1180 394 1194T464 1227T566 1259T705 1274Q735 1274
766 1272T815 1270Q835 1270 853 1286T890 1326T926 1379T961 1432T997 1473T1034 1489ZM662 1194Q564 1194 489 1160T362 1067T285 928T258 758Q258 672 287 609T367 506T483 446T625 426Q709 426 792 450T943 527T1052 665T1094 870Q1094 945 1067 1005T985 1107T850
1171T662 1194Z" />
<glyph unicode="&#xa5;" glyph-name="yen" horiz-adv-x="1638" d="M809 1855Q834 1855 834 1833Q834 1822 822 1809T791 1780T753 1747T717 1712Q703 1697 698 1680T692 1645Q692 1618 709 1569T753 1462T812 1341T874 1224T927 1131T961 1079Q975 1059 985 1059Q996
1059 1014 1086T1055 1157T1099 1253T1140 1357T1170 1450T1182 1516Q1182 1537 1168 1550T1116 1563Q1096 1563 1076 1561T1042 1559Q1037 1559 1031 1559T1017 1563T1006 1571T1001 1585Q1001 1601 1014 1608T1047 1618Q1052 1619 1077 1621T1137 1629T1215 1644T1296
1665Q1344 1680 1385 1698T1460 1734T1517 1762T1554 1774Q1571 1774 1571 1759Q1571 1747 1557 1737T1534 1722Q1503 1707 1476 1693T1424 1662T1376 1628T1331 1585Q1296 1549 1260 1487T1190 1353T1130 1213T1087 1092Q1073 1044 1064 997T1049 910T1041 845T1038
811Q1038 797 1040 782T1053 764Q1070 759 1110 759T1202 758H1409Q1463 758 1497 752T1532 729Q1532 719 1519 714T1487 706T1451 703T1421 702Q1394 702 1356 703T1278 706T1198 709T1128 711Q1093 711 1068 709T1038 700Q1034 696 1031 683T1026 652T1023 617T1022
588Q1022 568 1027 563T1047 557Q1062 557 1087 559T1142 563T1203 567T1262 569Q1300 569 1316 561T1333 537Q1333 531 1331 526T1320 515T1298 505T1260 500Q1217 498 1179 497T1109 492T1058 484T1030 469Q1025 463 1022 447T1016 407T1012 356T1010 297Q1010
265 1011 221T1016 133T1024 53T1038 0Q1045 -13 1056 -26T1086 -51T1135 -73T1208 -92Q1240 -98 1256 -104T1272 -125Q1272 -147 1231 -147Q1165 -149 1115 -151T1024 -155T947 -161T874 -170Q804 -181 740 -200T623 -238T530 -271T469 -285Q457 -285 449 -279T440
-260Q440 -246 450 -238T481 -221Q493 -217 519 -209T578 -187T644 -152T702 -102Q719 -81 737 -46T764 39Q773 92 777 156T782 279Q782 316 781 347T776 399Q773 424 765 431T733 438Q711 438 680 436T617 431T557 426T510 424Q485 424 471 433T457 461Q457 479
469 489T504 502Q516 504 539 506T591 509T650 513T706 518T751 524T776 532Q784 539 787 558T791 602Q791 630 789 648T780 678T760 693T723 698Q697 698 666 697T602 695T539 693T483 692Q455 692 440 698T424 721Q424 731 430 736T446 744T468 747T492 748Q510
748 534 748T584 747T637 746T686 745Q726 745 751 750T776 784Q776 798 771 817T752 874Q739 908 716 965T661 1089T592 1230T513 1372T430 1499T346 1593Q298 1635 249 1658T160 1695T94 1719T68 1747Q68 1756 72 1762T92 1769Q113 1769 140 1768T204 1765T289
1762T403 1761Q495 1761 564 1775T683 1808T763 1840T809 1855Z" />
<glyph unicode="&#xa6;" glyph-name="brokenbar" horiz-adv-x="700" d="M346 1837Q362 1837 369 1822T379 1772Q381 1736 381 1674T381 1526Q381 1499 381 1459T382 1372T384 1278T385 1186T386 1107T387 1053Q387 1024 384 1006T375 977T362 962T348 958Q331
958 322 978T313 1055Q313 1098 313 1162T314 1298T314 1440T315 1567V1757Q315 1791 320 1814T346 1837ZM348 729Q365 729 372 712T381 670Q382 652 383 621T386 553T389 473T391 392T392 320T393 264Q393 214 393 152T392 24T391 -107T390 -229T390 -330T389
-399Q389 -472 379 -507T342 -543Q329 -543 322 -532T312 -506T308 -472T307 -440Q307 -431 308 -385T311 -273T315 -127T319 26T322 164T324 262Q324 331 323 398T322 520T320 616T319 672Q319 703 326 716T348 729Z" />
<glyph unicode="&#xa7;" glyph-name="section" horiz-adv-x="1120" d="M637 1706Q728 1706 798 1677T916 1599T987 1492T1012 1372Q1012 1343 1005 1313T981 1258T937 1218T868 1202Q836 1202 813 1213T774 1241T751 1281T743 1325Q743 1358 751 1384T768 1435T785
1481T793 1530Q793 1553 782 1577T750 1620T697 1652T625 1665Q578 1665 536 1651T461 1608T409 1535T389 1430Q389 1354 416 1293T487 1179T588 1080T703 990T818 901T919 805T991 693T1018 559Q1018 491 998 435T948 333T881 255T811 197Q880 123 924 29T969
-190Q969 -301 936 -382T846 -518T716 -598T559 -625Q503 -625 463 -614T394 -584T348 -543T320 -499T307 -459T303 -430Q303 -409 309 -386T330 -343T370 -310T434 -297Q471 -297 496 -313T539 -355T573 -409T608 -464T653 -505T719 -522Q755 -522 785 -505T838
-459T874 -389T887 -301Q887 -210 854 -141T765 -16T639 84T495 173T351 261T225 360T136 482T102 639Q102 712 123 768T176 865T244 934T311 979Q261 1034 230 1106T199 1276Q199 1377 235 1457T331 1592T471 1677T637 1706ZM481 844Q447 864 416 886T356 934Q341
919 326 900T299 857T280 804T272 739Q272 687 295 643T356 559T445 482T552 407T665 326T774 236Q797 254 819 276T858 325T885 386T895 459Q895 505 875 545T820 620T743 687T653 745T562 797T481 844Z" />
<glyph unicode="&#xa8;" glyph-name="dieresis" horiz-adv-x="805" d="M324 1546Q372 1546 398 1515T424 1440Q424 1405 413 1381T385 1340T346 1317T303 1309Q284 1309 266 1316T233 1336T210 1371T201 1419Q201 1447 211 1470T238 1510T278 1536T324 1546ZM582
1524Q598 1524 614 1519T643 1502T664 1472T672 1430Q672 1405 665 1384T644 1348T612 1324T573 1315Q555 1315 539 1320T509 1338T487 1369T479 1417Q479 1442 487 1461T510 1495T543 1516T582 1524Z" />
<glyph unicode="&#xa9;" glyph-name="copyright" horiz-adv-x="2097" d="M1036 1554Q1195 1554 1340 1520T1608 1413Q1694 1362 1764 1292T1885 1135T1963 944T1991 719Q1991 549 1956 407T1856 151T1700 -49T1496 -192T1255 -278T983 -307Q784 -307 622 -244T345
-66T167 208T104 559Q104 746 146 893T261 1150T427 1338T625 1463T835 1532T1036 1554ZM1030 1501Q920 1501 815 1476T617 1401T445 1273T310 1092T222 857T190 567Q190 386 254 244T427 4T680 -145T985 -197Q1082 -197 1186 -179T1389 -118T1578 -5T1735 167T1842
408T1882 725Q1882 915 1815 1060T1633 1303T1362 1451T1030 1501ZM1188 1094Q1188 1029 1194 984T1206 907T1219 855T1225 819Q1225 799 1214 799Q1206 799 1201 808T1189 836T1174 879T1149 936Q1134 964 1116 988T1073 1030T1019 1058T950 1069Q909 1069 871
1051T803 995T755 898T737 758Q737 649 763 574T832 453T930 386T1042 365Q1092 365 1130 386T1196 440T1238 517T1257 604Q1261 641 1265 659T1280 678Q1289 678 1298 665T1307 612Q1307 541 1286 475T1222 359T1117 278T971 248Q886 248 809 277T672 360T578
494T543 674Q543 796 580 881T678 1021T815 1099T969 1124Q1006 1124 1034 1121T1083 1118Q1109 1118 1122 1126Q1137 1136 1145 1161T1159 1211T1169 1256T1182 1276Q1187 1276 1189 1270T1192 1247Q1192 1240 1192 1224T1190 1185T1189 1139T1188 1094Z" />
<glyph unicode="&#xaa;" glyph-name="ordfeminine" horiz-adv-x="1143" d="M408 1671Q482 1671 535 1649T625 1590T684 1504T718 1399T736 1285T743 1171Q747 1072 752 995T772 872Q782 843 795 825T823 797T854 782T885 778Q934 778 956 817T979 922Q979 965
972 990T963 1034Q963 1063 983 1063Q1006 1063 1025 1027T1044 911Q1044 881 1037 838T1007 755T945 687T840 659Q787 659 749 674T683 718T639 783T612 864Q606 830 588 790T536 714T455 655T342 631Q300 631 261 645T191 690T143 765T125 870Q125 927 139 972T177
1053T233 1113T301 1157Q334 1173 367 1182T429 1195T482 1201T518 1202Q540 1202 552 1206T569 1233Q572 1248 573 1270T575 1317Q575 1348 573 1383T562 1455T541 1524T506 1582T454 1623T381 1638Q324 1638 294 1611T264 1536Q264 1506 274 1480T298 1429T321
1379T332 1325Q332 1301 324 1281T302 1245T267 1221T223 1212Q198 1212 176 1219T138 1244T112 1289T102 1356Q102 1422 124 1479T186 1579T283 1646T408 1671ZM289 932Q289 890 299 861T329 814T373 787T428 778Q479 778 511 804T561 869T585 954T592 1040Q592
1073 590 1097T579 1137T556 1161T516 1169Q467 1169 426 1154T354 1109T306 1035T289 932Z" />
<glyph unicode="&#xab;" glyph-name="guillemotleft" horiz-adv-x="1247" d="M772 1098Q780 1098 782 1091T784 1075Q784 1063 779 1035T760 966T724 872T670 762Q625 681 586 622T517 520T470 452T453 412Q453 401 472 371T521 296T588 193T662 68Q679 36 704
-11T756 -111T809 -218T857 -321T892 -408T905 -465Q905 -474 901 -481T885 -489Q865 -489 829 -445T743 -331T631 -176T498 -6Q414 91 342 161T216 281T133 359T102 406Q102 423 135 449T221 511T337 592T461 694Q547 775 600 848T686 977T737 1065T772 1098ZM1083
1298Q1093 1298 1096 1283T1100 1247Q1100 1183 1089 1108T1059 956T1021 807T983 675T954 576T942 524Q942 510 956 484T993 417T1041 319T1089 186T1126 15T1141 -199Q1141 -251 1136 -282T1120 -313Q1111 -313 1096 -275T1056 -174T996 -29T909 143Q869 214
827 263T750 346T693 402T670 440Q670 455 697 483T765 561T853 682T938 858Q976 962 999 1043T1036 1181T1060 1268T1083 1298Z" />
<glyph unicode="&#xac;" glyph-name="logicalnot" horiz-adv-x="1262" d="M170 903Q189 904 232 904T335 905T465 906T610 907T757 908T893 908T1005 909T1081 909Q1127 909 1143 883T1159 809Q1159 782 1158 747T1154 676T1147 607T1139 549Q1134 523 1123 505T1092
487Q1073 487 1063 504T1053 553Q1053 578 1055 617T1057 694Q1057 744 1052 772T1029 815T981 832T899 836Q865 836 823 835T731 831Q684 829 629 828T518 824T407 820T307 817T230 814T184 813Q160 813 144 817T119 827T106 842T102 858Q102 875 115 888T170
903Z" />
<glyph unicode="&#xad;" glyph-name="uni00AD" horiz-adv-x="893" d="M449 397Q417 397 372 399T281 407T194 419T131 434Q102 444 102 469Q102 483 110 490T133 498Q159 498 189 494T256 486T337 477T438 473Q551 473 626 481T745 489Q791 489 791 461Q791 431
750 418Q709 405 631 401T449 397Z" />
<glyph unicode="&#xae;" glyph-name="registered" horiz-adv-x="2148" d="M1079 1438Q1199 1438 1317 1415T1543 1343T1742 1221T1901 1047T2006 818T2044 532Q2044 283 1970 99T1764 -208T1456 -390T1071 -451Q959 -451 844 -429T621 -360T419 -239T254 -63T143
173T102 473Q102 581 118 675T163 850T233 998T324 1122Q403 1210 499 1270T695 1368T895 1422T1079 1438ZM1079 1362Q985 1362 883 1343T684 1282T499 1173T345 1011T240 790T201 504Q201 350 234 223T328 -4T470 -179T651 -302T860 -375T1085 -399Q1313 -399
1483 -330T1766 -140T1936 148T1993 508Q1993 666 1957 790T1858 1010T1709 1172T1520 1281T1306 1342T1079 1362ZM1102 1114Q1169 1114 1226 1098T1324 1050T1389 968T1413 852Q1413 778 1390 721T1329 622T1244 551T1149 506Q1160 471 1176 430T1214 348Q1235
308 1259 272T1313 209T1377 166T1456 150Q1491 150 1515 163T1555 195T1576 238T1583 283Q1583 316 1576 340T1561 381T1545 411T1538 432Q1538 446 1550 446Q1562 446 1578 432T1607 393T1630 338T1640 274Q1640 225 1627 182T1587 108T1518 58T1419 39Q1346
39 1287 61T1180 121T1097 204T1036 298T994 391T971 469L889 461Q890 417 893 368T904 271T924 184T954 119Q973 92 995 74T1039 43T1077 23T1106 12Q1126 4 1132 0T1139 -12Q1139 -18 1133 -22T1112 -27Q1084 -27 1052 -19T982 -2T898 15T797 23Q761 23 720 20T642
12T574 4T526 0Q497 0 487 7T477 25Q477 34 485 40T516 49Q544 53 569 58T615 74T655 99T688 137Q703 160 710 205T721 304T725 411T727 504Q727 524 728 553T729 618Q729 669 729 724T725 828T716 916T698 973Q685 994 658 1004T602 1021T553 1034T532 1053Q532
1067 555 1067Q575 1067 593 1066T631 1063T676 1060T735 1059Q778 1059 823 1067T914 1086T1007 1105T1102 1114ZM887 510Q905 512 925 514T971 522Q1041 537 1085 568T1156 642T1192 736T1202 842Q1202 891 1189 931T1150 1000T1091 1045T1014 1061Q983 1061
962 1057T927 1045T905 1030T893 1014Q885 998 882 952T879 846Q879 803 880 757T882 667T885 586T887 524V510Z" />
<glyph unicode="&#xaf;" glyph-name="overscore" horiz-adv-x="784" d="M590 1696Q618 1696 635 1693T663 1685T678 1672T682 1657Q682 1634 658 1623T573 1612Q547 1612 508 1612T423 1613T328 1615T231 1618Q174 1620 138 1624T102 1649Q102 1659 111 1665T137
1675T177 1681T229 1686Q246 1687 275 1688T338 1690T410 1692T482 1694T545 1695T590 1696Z" />
<glyph unicode="&#xb0;" glyph-name="degree" horiz-adv-x="709" d="M362 1974Q406 1974 449 1959T528 1913T584 1839T606 1735Q606 1672 586 1623T532 1539T449 1486T346 1468Q306 1468 263 1481T184 1524T125 1601T102 1718Q102 1774 122 1821T177 1902T259
1955T362 1974ZM348 1862Q317 1862 289 1852T238 1822T203 1772T190 1702Q190 1663 202 1633T235 1581T287 1549T352 1538Q389 1538 419 1549T470 1582T502 1632T514 1696Q514 1743 498 1774T457 1825T403 1853T348 1862Z" />
<glyph unicode="&#xb1;" glyph-name="plusminus" horiz-adv-x="1188" d="M623 1038Q643 1038 654 1024T666 979Q666 955 665 925T662 867T659 816T657 784Q657 767 663 762T680 754Q708 751 752 748T844 743T934 738T1001 735Q1052 732 1068 723T1085 702Q1085
691 1073 683T1020 674Q999 674 960 676T876 681T785 686T707 688Q675 688 661 681T645 651Q644 642 644 622T643 579T643 536T643 508Q643 496 643 482T639 456T631 436T616 428Q605 428 600 440T592 481Q591 499 591 523T590 571T590 618T588 653Q587 665 583
672T574 682T562 685T551 686Q543 686 521 685T467 681T399 676T326 671T258 668T205 666Q185 666 168 675T150 709Q150 727 163 738T213 750Q222 750 245 750T300 750T365 751T429 752T483 754T514 758Q535 763 548 777T567 812T576 855T578 901Q578 921 577 937T575
963Q575 976 576 989T583 1013T598 1031T623 1038ZM195 387Q211 387 256 386T361 384T490 380T620 376T731 372T801 369Q826 367 852 365T899 359T934 348T948 330Q948 324 945 319T931 309T903 302T854 299Q832 299 794 300T711 302T615 304T518 305Q467 305 418
303T328 298T256 293T211 291Q157 291 130 300T102 338Q102 348 106 357T120 372T149 383T195 387Z" />
<glyph unicode="&#xb2;" glyph-name="twosuperior" horiz-adv-x="748" d="M426 1815Q490 1815 538 1795T618 1739T666 1658T682 1559Q682 1494 661 1438T603 1334T521 1250T424 1186Q392 1168 361 1154T304 1129T264 1108T248 1092Q248 1085 258 1072T285 1042T326
1009T375 979T428 957T483 948Q531 948 566 966T627 1005T670 1045T698 1063Q707 1063 707 1055Q707 1043 693 1024T658 980T612 930T565 877Q550 859 530 833T491 781T457 739T434 721Q428 721 412 740T372 788T318 852T252 918Q197 964 158 991T92 1035T54 1058T41
1071Q41 1077 61 1082T115 1098T196 1129T295 1188Q346 1225 382 1267T441 1354T474 1441T485 1524Q485 1559 478 1592T454 1650T410 1691T342 1706Q300 1706 270 1686T220 1642T186 1597T164 1577Q154 1577 154 1591Q154 1604 162 1625T186 1672T225 1722T278
1768T345 1802T426 1815Z" />
<glyph unicode="&#xb3;" glyph-name="threesuperior" horiz-adv-x="760" d="M506 1784Q526 1784 526 1765Q526 1753 513 1728T479 1672T436 1607T393 1545T360 1496T346 1473Q346 1470 356 1469T384 1467T427 1461T483 1448Q525 1436 567 1413T642 1351T697 1258T719
1130Q719 1040 688 973T604 861T483 794T342 772Q279 772 224 793T129 854T65 951T41 1081Q41 1118 46 1148T59 1201T75 1235T90 1247Q96 1247 96 1237Q96 1225 93 1202T90 1145Q90 1093 103 1044T145 958T216 897T319 874Q368 874 406 892T471 942T510 1019T524
1118Q524 1197 486 1255T385 1341Q363 1351 339 1358T296 1371T263 1380T250 1389Q250 1398 260 1417T293 1473Q305 1491 317 1513T340 1555T358 1590T365 1610Q365 1614 355 1616T331 1619T301 1621T276 1622Q233 1620 205 1613T166 1591Q158 1581 153 1565T144
1534T136 1507T127 1495Q118 1495 117 1535T109 1653Q105 1687 102 1713T98 1755Q98 1771 104 1775T125 1780Q153 1780 204 1774T319 1767Q355 1767 383 1769T434 1775T474 1781T506 1784Z" />
<glyph unicode="&#xb4;" glyph-name="acute" horiz-adv-x="481" d="M340 1952Q360 1952 369 1940T379 1907Q379 1889 368 1862T338 1802T298 1735T252 1669Q210 1612 173 1575T119 1538Q109 1538 107 1543T104 1559Q104 1573 114 1607T141 1685T182 1776T231 1862T285
1926T340 1952Z" />
<glyph unicode="&#xb5;" glyph-name="mu" horiz-adv-x="1300" d="M266 1059Q272 1059 274 1054T276 1042Q276 1021 270 970T264 827Q264 779 267 717T283 582Q293 521 313 455T368 332T450 240T565 203Q627 203 668 229T733 299T768 397T778 512Q778 532 777 552T774
592Q768 656 756 712T731 811T710 885T700 928Q700 932 709 935T733 943T768 952T809 965Q860 982 880 993T909 1004Q918 1004 924 976T936 887T949 735T969 514Q984 348 1025 271T1137 193Q1164 193 1182 203T1212 229T1229 266T1235 307Q1235 356 1220 392T1185
454T1151 496T1135 522Q1135 537 1149 537Q1167 537 1192 520T1241 471T1281 397T1298 301Q1298 248 1287 203T1251 124T1187 72T1094 53Q1037 53 995 74T921 126T870 194T836 262T817 315T807 336Q804 336 799 321T784 284T757 235T715 186T653 148T569 133Q498
133 447 159T362 221T310 289T287 338Q288 304 290 250T297 134T307 13T317 -92Q329 -196 340 -285T361 -444T375 -560T381 -625Q381 -640 373 -645Q367 -648 360 -649T341 -650T311 -651T264 -655Q254 -656 240 -658T212 -664T186 -669T166 -672Q152 -672 145
-664Q140 -656 136 -616T129 -508T122 -352T116 -156T109 70T100 315Q92 521 88 673T84 915Q84 966 84 994T90 1026Q94 1028 97 1029T109 1031T131 1033T172 1040Q200 1046 217 1049T244 1055T258 1058T266 1059Z" />
<glyph unicode="&#xb6;" glyph-name="paragraph" horiz-adv-x="1448" d="M1360 1722Q1372 1722 1377 1716T1382 1698Q1382 1685 1369 1674T1335 1649T1288 1620T1236 1582T1185 1529T1145 1458Q1134 1431 1126 1389T1111 1296T1099 1187T1091 1072T1087 963T1085
868Q1085 781 1087 677T1094 465T1106 250T1124 51T1148 -112T1178 -221Q1195 -260 1223 -282T1282 -315T1344 -331T1395 -340Q1426 -346 1437 -352T1448 -369Q1448 -389 1407 -389Q1361 -389 1312 -382T1200 -375Q1165 -375 1134 -379T1073 -388T1019 -397T971
-401Q957 -401 948 -393T936 -356Q934 -339 933 -308T931 -233T929 -138T928 -27Q928 61 929 158T931 349T934 526T938 672Q939 712 940 765T944 880T947 1007T950 1136T953 1258T954 1364Q954 1413 952 1441T942 1482T918 1499T872 1503Q844 1503 812 1501T750
1496T699 1487T668 1477Q661 1472 655 1412T643 1250T634 1011T631 717Q631 660 633 584T640 419T651 235T662 43T674 -145T684 -317T691 -462T694 -567Q694 -584 690 -592T668 -606Q639 -615 581 -627T444 -664Q400 -678 358 -693T279 -721T213 -743T164 -752Q139
-752 132 -744T125 -725Q125 -705 146 -694T199 -674Q273 -652 321 -628T400 -580T446 -530T471 -479Q483 -447 487 -374T492 -203Q492 -133 490 -57T485 96T476 246T466 380T456 489T446 561Q438 604 413 627T346 666Q276 692 214 725T104 807T28 924T0 1087Q0
1157 19 1221T77 1338T178 1432T324 1497Q376 1512 433 1520T550 1534T671 1544T791 1556Q900 1569 981 1586T1120 1622T1217 1658T1283 1690T1327 1713T1360 1722Z" />
<glyph unicode="&#xb7;" glyph-name="middot" horiz-adv-x="489" d="M248 934Q286 934 312 921T355 886T379 838T387 785Q387 739 376 705T346 649T301 617T246 606Q215 606 189 617T144 649T113 699T102 766Q102 805 113 836T143 888T189 922T248 934Z" />
<glyph unicode="&#xb8;" glyph-name="cedilla" horiz-adv-x="680" d="M346 197Q362 197 362 170Q362 160 358 138T350 92T342 45T338 10Q338 7 347 5T371 -2T406 -14T449 -33Q507 -62 541 -113T575 -244Q575 -283 561 -326T518 -404T441 -463T328 -487Q267 -487
225 -465T155 -411T116 -344T104 -285Q104 -277 106 -267T117 -256Q126 -256 137 -276T167 -321T215 -366T289 -387Q344 -387 375 -354T406 -270Q406 -232 395 -206T365 -164T327 -138T289 -122T260 -112T248 -102Q248 -96 254 -74T269 -24T287 36T303 92Q317 145
324 171T346 197Z" />
<glyph unicode="&#xb9;" glyph-name="onesuperior" horiz-adv-x="690" d="M508 1796Q516 1796 518 1790T520 1774Q520 1764 515 1735T505 1660T494 1552T489 1413Q489 1360 489 1303T494 1190Q496 1146 500 1107T513 1035T540 976T588 932Q598 926 609 922T629
913T643 905T649 895Q649 887 643 884T625 881Q605 881 578 887T516 902T441 922T358 942Q296 955 239 962T138 976T68 989T41 1008Q41 1020 59 1020Q76 1020 108 1015T178 1010Q200 1010 223 1014T262 1030Q294 1051 311 1097T337 1201T346 1321T348 1436Q348
1474 341 1491T315 1509Q295 1509 266 1498T208 1473T154 1448T119 1436Q114 1436 110 1438T106 1446Q106 1458 126 1470T181 1501T260 1550T354 1626Q393 1662 418 1693T460 1747T488 1783T508 1796Z" />
<glyph unicode="&#xba;" glyph-name="ordmasculine" horiz-adv-x="1032" d="M496 1561Q604 1561 691 1526T840 1429T935 1285T969 1108Q969 1007 943 921T862 773T724 676T526 641Q478 641 425 652T321 686T223 747T142 835T87 954T66 1106Q66 1220 100 1305T193
1447T330 1532T496 1561ZM387 1466Q340 1466 301 1448T234 1397T190 1318T174 1214Q174 1110 205 1017T292 854T428 743T602 702Q667 702 709 723T776 780T811 861T821 956Q821 1058 792 1150T708 1313T572 1424T387 1466Z" />
<glyph unicode="&#xbb;" glyph-name="guillemotright" horiz-adv-x="1595" d="M123 1137Q132 1137 141 1117T166 1069Q196 1014 235 967T319 879T412 805T510 745Q605 694 693 665T848 619T955 592T995 567Q995 547 954 518T842 436T677 297T475 80Q408 -3 362
-78T284 -211T235 -302T207 -336Q199 -336 196 -324T193 -293Q193 -265 204 -219T237 -118T288 -3T356 117Q398 183 444 241T527 344T589 419T614 459Q614 468 591 482T527 523T432 588T315 686Q259 738 220 798T157 914T122 1019T111 1096Q111 1111 113 1124T123
1137ZM645 1339Q650 1339 659 1323T676 1294Q720 1220 757 1167T831 1069T909 984T1001 899Q1101 811 1190 754T1347 659T1453 599T1493 557Q1493 540 1466 517T1394 462T1289 388T1166 290T1036 163T915 4Q869 -69 837 -138T783 -270T747 -384T724 -473T707 -532T692
-553Q681 -553 672 -515T662 -410Q662 -334 679 -231T745 -10Q784 82 830 158T925 297T1018 407T1098 489T1155 544T1176 575Q1176 584 1137 613T1036 694T900 824T756 1006Q724 1054 702 1102T665 1193T645 1269T639 1321Q639 1339 645 1339Z" />
<glyph unicode="&#xbc;" glyph-name="onequarter" horiz-adv-x="1796" d="M1503 1903Q1520 1903 1520 1882Q1520 1869 1506 1840T1468 1770T1415 1684T1355 1593T1296 1508T1247 1438Q1212 1388 1162 1318T1053 1166T929 995T800 817T674 644T560 490T469 365T410
283Q371 227 334 177T268 84Q236 38 213 10T170 -18Q161 -18 155 -13T148 6Q148 31 178 83T260 207Q317 287 383 379T522 578Q578 659 647 755T791 955T943 1165T1095 1373T1236 1566T1356 1733Q1383 1770 1405 1801T1445 1855T1477 1890T1503 1903ZM1331 1195Q1340
1195 1344 1176T1351 1119Q1354 1091 1358 1043T1369 934T1382 809T1396 682T1412 568T1427 484Q1485 502 1519 533Q1551 560 1566 592T1589 652T1600 699T1611 718Q1618 718 1620 703T1622 662V595Q1622 562 1625 531T1631 474T1637 427T1640 396Q1640 386 1636
378Q1627 364 1594 359T1501 353H1454Q1481 188 1550 128Q1568 112 1589 102T1634 85T1679 77T1720 74Q1735 74 1745 72T1755 58Q1755 44 1734 41T1681 38Q1663 38 1638 39T1584 41T1524 44T1462 46Q1415 46 1373 39T1292 24T1216 8T1142 1Q1131 1 1124 5T1116
19Q1116 32 1124 36T1144 44Q1186 53 1212 63T1252 91T1272 135T1278 203Q1278 234 1277 270T1271 341Q1250 339 1228 336Q1208 334 1185 332T1136 328Q1117 326 1087 325T1024 322T960 319T905 318Q870 318 870 335Q870 346 882 372T914 431T956 503T999 576Q1057
678 1104 765T1186 922T1246 1041T1282 1117Q1289 1131 1295 1145T1308 1170T1319 1188T1331 1195ZM1251 556Q1245 608 1239 658T1226 749T1214 813T1204 838Q1198 838 1182 810T1143 741T1095 653T1048 568Q1042 556 1031 536T1009 493T989 452T981 423Q981 418
983 415T993 412Q1009 412 1033 414T1085 419T1142 426T1195 433T1238 440T1263 445L1251 556ZM508 1796Q516 1796 518 1790T520 1774Q520 1764 515 1735T505 1660T494 1552T489 1413Q489 1360 489 1303T494 1190Q496 1146 500 1107T513 1035T540 976T588 932Q598
926 609 922T629 913T643 905T649 895Q649 887 643 884T625 881Q605 881 578 887T516 902T441 922T358 942Q296 955 239 962T138 976T68 989T41 1008Q41 1020 59 1020Q76 1020 108 1015T178 1010Q200 1010 223 1014T262 1030Q294 1051 311 1097T337 1201T346 1321T348
1436Q348 1474 341 1491T315 1509Q295 1509 266 1498T208 1473T154 1448T119 1436Q114 1436 110 1438T106 1446Q106 1458 126 1470T181 1501T260 1550T354 1626Q393 1662 418 1693T460 1747T488 1783T508 1796Z" />
<glyph unicode="&#xbd;" glyph-name="onehalf" horiz-adv-x="1561" d="M1503 1903Q1520 1903 1520 1882Q1520 1869 1506 1840T1468 1770T1415 1684T1355 1593T1296 1508T1247 1438Q1212 1388 1162 1318T1053 1166T929 995T800 817T674 644T560 490T469 365T410
283Q371 227 334 177T268 84Q236 38 213 10T170 -18Q161 -18 155 -13T148 6Q148 31 178 83T260 207Q317 287 383 379T522 578Q578 659 647 755T791 955T943 1165T1095 1373T1236 1566T1356 1733Q1383 1770 1405 1801T1445 1855T1477 1890T1503 1903ZM1221 1044Q1285
1044 1333 1024T1413 968T1461 887T1477 788Q1477 723 1456 667T1398 563T1316 479T1219 415Q1187 397 1156 383T1099 358T1059 337T1043 321Q1043 314 1053 301T1080 271T1121 238T1170 208T1223 186T1278 177Q1326 177 1361 195T1422 234T1465 274T1493 292Q1502
292 1502 284Q1502 272 1488 253T1453 209T1407 159T1360 106Q1345 88 1325 62T1286 10T1252 -32T1229 -50Q1223 -50 1207 -31T1167 17T1113 81T1047 147Q992 193 953 220T887 264T849 287T836 300Q836 306 856 311T910 327T991 358T1090 417Q1141 454 1177 496T1236
583T1269 670T1280 753Q1280 788 1273 821T1249 879T1205 920T1137 935Q1095 935 1065 915T1015 871T981 826T959 806Q949 806 949 820Q949 833 957 854T981 901T1020 951T1073 997T1140 1031T1221 1044ZM508 1796Q516 1796 518 1790T520 1774Q520 1764 515 1735T505
1660T494 1552T489 1413Q489 1360 489 1303T494 1190Q496 1146 500 1107T513 1035T540 976T588 932Q598 926 609 922T629 913T643 905T649 895Q649 887 643 884T625 881Q605 881 578 887T516 902T441 922T358 942Q296 955 239 962T138 976T68 989T41 1008Q41 1020
59 1020Q76 1020 108 1015T178 1010Q200 1010 223 1014T262 1030Q294 1051 311 1097T337 1201T346 1321T348 1436Q348 1474 341 1491T315 1509Q295 1509 266 1498T208 1473T154 1448T119 1436Q114 1436 110 1438T106 1446Q106 1458 126 1470T181 1501T260 1550T354
1626Q393 1662 418 1693T460 1747T488 1783T508 1796Z" />
<glyph unicode="&#xbe;" glyph-name="threequarters" horiz-adv-x="1890" d="M1618 1903Q1635 1903 1635 1882Q1635 1869 1621 1840T1583 1770T1530 1684T1470 1593T1411 1508T1362 1438Q1327 1388 1277 1318T1168 1166T1044 995T915 817T789 644T675 490T584
365T525 283Q486 227 449 177T383 84Q351 38 328 10T285 -18Q276 -18 270 -13T263 6Q263 31 293 83T375 207Q432 287 498 379T637 578Q693 659 762 755T906 955T1058 1165T1210 1373T1351 1566T1471 1733Q1498 1770 1520 1801T1560 1855T1592 1890T1618 1903ZM1426
1195Q1435 1195 1439 1176T1446 1119Q1449 1091 1453 1043T1464 934T1477 809T1491 682T1507 568T1522 484Q1580 502 1614 533Q1646 560 1661 592T1684 652T1695 699T1706 718Q1713 718 1715 703T1717 662V595Q1717 562 1720 531T1726 474T1732 427T1735 396Q1735
386 1731 378Q1722 364 1689 359T1596 353H1549Q1576 188 1645 128Q1663 112 1684 102T1729 85T1774 77T1815 74Q1830 74 1840 72T1850 58Q1850 44 1829 41T1776 38Q1758 38 1733 39T1679 41T1619 44T1557 46Q1510 46 1468 39T1387 24T1311 8T1237 1Q1226 1 1219
5T1211 19Q1211 32 1219 36T1239 44Q1281 53 1307 63T1347 91T1367 135T1373 203Q1373 234 1372 270T1366 341Q1345 339 1323 336Q1303 334 1280 332T1231 328Q1212 326 1182 325T1119 322T1055 319T1000 318Q965 318 965 335Q965 346 977 372T1009 431T1051 503T1094
576Q1152 678 1199 765T1281 922T1341 1041T1377 1117Q1384 1131 1390 1145T1403 1170T1414 1188T1426 1195ZM1346 556Q1340 608 1334 658T1321 749T1309 813T1299 838Q1293 838 1277 810T1238 741T1190 653T1143 568Q1137 556 1126 536T1104 493T1084 452T1076
423Q1076 418 1078 415T1088 412Q1104 412 1128 414T1180 419T1237 426T1290 433T1333 440T1358 445L1346 556ZM506 1784Q526 1784 526 1765Q526 1753 513 1728T479 1672T436 1607T393 1545T360 1496T346 1473Q346 1470 356 1469T384 1467T427 1461T483 1448Q525
1436 567 1413T642 1351T697 1258T719 1130Q719 1040 688 973T604 861T483 794T342 772Q279 772 224 793T129 854T65 951T41 1081Q41 1118 46 1148T59 1201T75 1235T90 1247Q96 1247 96 1237Q96 1225 93 1202T90 1145Q90 1093 103 1044T145 958T216 897T319 874Q368
874 406 892T471 942T510 1019T524 1118Q524 1197 486 1255T385 1341Q363 1351 339 1358T296 1371T263 1380T250 1389Q250 1398 260 1417T293 1473Q305 1491 317 1513T340 1555T358 1590T365 1610Q365 1614 355 1616T331 1619T301 1621T276 1622Q233 1620 205 1613T166
1591Q158 1581 153 1565T144 1534T136 1507T127 1495Q118 1495 117 1535T109 1653Q105 1687 102 1713T98 1755Q98 1771 104 1775T125 1780Q153 1780 204 1774T319 1767Q355 1767 383 1769T434 1775T474 1781T506 1784Z" />
<glyph unicode="&#xbf;" glyph-name="questiondown" horiz-adv-x="1171" d="M637 1587Q665 1587 693 1577T743 1546T779 1494T793 1421Q793 1376 778 1344T738 1292T684 1262T627 1253Q555 1253 510 1293T465 1411Q465 1456 479 1489T518 1543T573 1576T637 1587ZM522
1192Q550 1192 585 1174T649 1124Q669 1100 681 1069T694 999Q694 929 671 871T612 760T536 652T459 535T401 397T377 225Q377 113 406 37T480 -85T583 -150T696 -170Q762 -170 810 -150T889 -98T935 -25T950 61Q950 84 943 110T918 163T867 214T782 260Q710 289
678 331T645 436Q645 477 659 511T698 569T759 607T838 621Q907 621 961 598T1054 535T1113 439T1133 317Q1133 261 1123 199T1088 77T1024 -39T926 -137T790 -204T612 -229Q458 -229 351 -195T176 -102T79 35T49 201Q49 283 74 350T140 474T233 577T340 665T447
745T540 824T606 906T631 999Q631 1047 611 1076T567 1124T522 1154T502 1178Q502 1183 506 1187T522 1192Z" />
<glyph unicode="&#xc0;" glyph-name="Agrave" horiz-adv-x="1606" d="M852 1679Q859 1679 868 1662T885 1623T901 1578T913 1544Q935 1479 962 1397T1019 1222T1083 1029T1150 828T1217 629T1280 443T1336 280T1384 150Q1408 85 1431 46T1480 -16T1537 -50T1610
-70Q1640 -76 1640 -92Q1640 -103 1629 -107T1604 -111Q1582 -111 1548 -110T1470 -109Q1435 -109 1395 -110T1311 -115Q1244 -120 1187 -131T1084 -154T1004 -175T948 -184Q937 -184 931 -179T924 -164Q924 -151 931 -143T958 -129Q966 -127 981 -123T1014 -114T1051
-103T1087 -88Q1107 -77 1123 -59T1139 -4Q1139 4 1138 18T1133 43Q1115 113 1096 185T1058 322T1022 442T991 532Q968 590 938 620T872 668Q862 672 839 681T785 700T717 723T646 746T581 767T530 784Q506 707 483 632T440 493T406 381T385 311Q377 285 374 264T371
227Q371 198 379 179T402 146T434 123T473 104Q490 96 503 87T516 63Q516 54 509 48T485 41Q468 41 442 49T385 69T318 94T248 119Q220 127 190 133T132 144T82 150T47 154Q22 156 11 161T0 180Q0 190 6 196T29 203Q35 203 50 202T86 201Q134 201 166 207T220 226T256
258T283 305Q295 331 312 374T348 469T388 576T425 681T456 769T475 827Q483 853 497 898T530 1000T566 1116T600 1232T625 1333T635 1405Q635 1425 624 1438T588 1452Q566 1452 539 1449T483 1443T429 1437T383 1434Q346 1434 346 1460Q346 1484 381 1487Q405
1488 435 1492T500 1503T568 1520T635 1546Q686 1569 722 1593T783 1636T825 1667T852 1679ZM547 838Q578 827 626 811T725 779T817 752T879 741Q891 741 900 749T909 776Q909 791 900 830T878 920T848 1026T818 1129T795 1207T784 1243Q780 1255 774 1277T760
1322T745 1360T733 1376Q729 1376 723 1365T709 1339T695 1305T684 1272L547 838ZM385 2121Q404 2121 425 2108T469 2073T515 2021T559 1958Q583 1922 605 1888T643 1823T670 1769T680 1726Q680 1715 675 1707T659 1699Q647 1699 625 1713T574 1751T513 1805T451
1867Q427 1891 403 1916T359 1965T327 2013T315 2056Q315 2090 337 2105T385 2121Z" />
<glyph unicode="&#xc1;" glyph-name="Aacute" horiz-adv-x="1606" d="M852 1679Q859 1679 868 1662T885 1623T901 1578T913 1544Q935 1479 962 1397T1019 1222T1083 1029T1150 828T1217 629T1280 443T1336 280T1384 150Q1408 85 1431 46T1480 -16T1537 -50T1610
-70Q1640 -76 1640 -92Q1640 -103 1629 -107T1604 -111Q1582 -111 1548 -110T1470 -109Q1435 -109 1395 -110T1311 -115Q1244 -120 1187 -131T1084 -154T1004 -175T948 -184Q937 -184 931 -179T924 -164Q924 -151 931 -143T958 -129Q966 -127 981 -123T1014 -114T1051
-103T1087 -88Q1107 -77 1123 -59T1139 -4Q1139 4 1138 18T1133 43Q1115 113 1096 185T1058 322T1022 442T991 532Q968 590 938 620T872 668Q862 672 839 681T785 700T717 723T646 746T581 767T530 784Q506 707 483 632T440 493T406 381T385 311Q377 285 374 264T371
227Q371 198 379 179T402 146T434 123T473 104Q490 96 503 87T516 63Q516 54 509 48T485 41Q468 41 442 49T385 69T318 94T248 119Q220 127 190 133T132 144T82 150T47 154Q22 156 11 161T0 180Q0 190 6 196T29 203Q35 203 50 202T86 201Q134 201 166 207T220 226T256
258T283 305Q295 331 312 374T348 469T388 576T425 681T456 769T475 827Q483 853 497 898T530 1000T566 1116T600 1232T625 1333T635 1405Q635 1425 624 1438T588 1452Q566 1452 539 1449T483 1443T429 1437T383 1434Q346 1434 346 1460Q346 1484 381 1487Q405
1488 435 1492T500 1503T568 1520T635 1546Q686 1569 722 1593T783 1636T825 1667T852 1679ZM547 838Q578 827 626 811T725 779T817 752T879 741Q891 741 900 749T909 776Q909 791 900 830T878 920T848 1026T818 1129T795 1207T784 1243Q780 1255 774 1277T760
1322T745 1360T733 1376Q729 1376 723 1365T709 1339T695 1305T684 1272L547 838ZM885 2173Q905 2173 914 2161T924 2128Q924 2110 913 2083T883 2023T843 1956T797 1890Q755 1833 718 1796T664 1759Q654 1759 652 1764T649 1780Q649 1794 659 1828T686 1906T727
1997T776 2083T830 2147T885 2173Z" />
<glyph unicode="&#xc2;" glyph-name="Acircumflex" horiz-adv-x="1606" d="M852 1679Q859 1679 868 1662T885 1623T901 1578T913 1544Q935 1479 962 1397T1019 1222T1083 1029T1150 828T1217 629T1280 443T1336 280T1384 150Q1408 85 1431 46T1480 -16T1537 -50T1610
-70Q1640 -76 1640 -92Q1640 -103 1629 -107T1604 -111Q1582 -111 1548 -110T1470 -109Q1435 -109 1395 -110T1311 -115Q1244 -120 1187 -131T1084 -154T1004 -175T948 -184Q937 -184 931 -179T924 -164Q924 -151 931 -143T958 -129Q966 -127 981 -123T1014 -114T1051
-103T1087 -88Q1107 -77 1123 -59T1139 -4Q1139 4 1138 18T1133 43Q1115 113 1096 185T1058 322T1022 442T991 532Q968 590 938 620T872 668Q862 672 839 681T785 700T717 723T646 746T581 767T530 784Q506 707 483 632T440 493T406 381T385 311Q377 285 374 264T371
227Q371 198 379 179T402 146T434 123T473 104Q490 96 503 87T516 63Q516 54 509 48T485 41Q468 41 442 49T385 69T318 94T248 119Q220 127 190 133T132 144T82 150T47 154Q22 156 11 161T0 180Q0 190 6 196T29 203Q35 203 50 202T86 201Q134 201 166 207T220 226T256
258T283 305Q295 331 312 374T348 469T388 576T425 681T456 769T475 827Q483 853 497 898T530 1000T566 1116T600 1232T625 1333T635 1405Q635 1425 624 1438T588 1452Q566 1452 539 1449T483 1443T429 1437T383 1434Q346 1434 346 1460Q346 1484 381 1487Q405
1488 435 1492T500 1503T568 1520T635 1546Q686 1569 722 1593T783 1636T825 1667T852 1679ZM547 838Q578 827 626 811T725 779T817 752T879 741Q891 741 900 749T909 776Q909 791 900 830T878 920T848 1026T818 1129T795 1207T784 1243Q780 1255 774 1277T760
1322T745 1360T733 1376Q729 1376 723 1365T709 1339T695 1305T684 1272L547 838ZM772 2169Q782 2169 791 2156T820 2118Q844 2085 863 2062T899 2019T935 1981T975 1942Q1023 1897 1059 1871T1121 1827T1159 1798T1172 1770Q1172 1759 1163 1753T1141 1747Q1122
1747 1097 1754T1045 1773T989 1801T936 1835Q892 1869 860 1898T807 1950T772 1984T752 1997Q746 1997 732 1983T697 1945T645 1890T578 1825Q549 1799 522 1776T471 1735T429 1707T398 1696Q395 1696 392 1697T389 1704Q389 1713 414 1738T479 1804T570 1903T670
2034Q688 2062 704 2086T732 2129T755 2158T772 2169Z" />
<glyph unicode="&#xc3;" glyph-name="Atilde" horiz-adv-x="1606" d="M852 1679Q859 1679 868 1662T885 1623T901 1578T913 1544Q935 1479 962 1397T1019 1222T1083 1029T1150 828T1217 629T1280 443T1336 280T1384 150Q1408 85 1431 46T1480 -16T1537 -50T1610
-70Q1640 -76 1640 -92Q1640 -103 1629 -107T1604 -111Q1582 -111 1548 -110T1470 -109Q1435 -109 1395 -110T1311 -115Q1244 -120 1187 -131T1084 -154T1004 -175T948 -184Q937 -184 931 -179T924 -164Q924 -151 931 -143T958 -129Q966 -127 981 -123T1014 -114T1051
-103T1087 -88Q1107 -77 1123 -59T1139 -4Q1139 4 1138 18T1133 43Q1115 113 1096 185T1058 322T1022 442T991 532Q968 590 938 620T872 668Q862 672 839 681T785 700T717 723T646 746T581 767T530 784Q506 707 483 632T440 493T406 381T385 311Q377 285 374 264T371
227Q371 198 379 179T402 146T434 123T473 104Q490 96 503 87T516 63Q516 54 509 48T485 41Q468 41 442 49T385 69T318 94T248 119Q220 127 190 133T132 144T82 150T47 154Q22 156 11 161T0 180Q0 190 6 196T29 203Q35 203 50 202T86 201Q134 201 166 207T220 226T256
258T283 305Q295 331 312 374T348 469T388 576T425 681T456 769T475 827Q483 853 497 898T530 1000T566 1116T600 1232T625 1333T635 1405Q635 1425 624 1438T588 1452Q566 1452 539 1449T483 1443T429 1437T383 1434Q346 1434 346 1460Q346 1484 381 1487Q405
1488 435 1492T500 1503T568 1520T635 1546Q686 1569 722 1593T783 1636T825 1667T852 1679ZM547 838Q578 827 626 811T725 779T817 752T879 741Q891 741 900 749T909 776Q909 791 900 830T878 920T848 1026T818 1129T795 1207T784 1243Q780 1255 774 1277T760
1322T745 1360T733 1376Q729 1376 723 1365T709 1339T695 1305T684 1272L547 838ZM574 2083Q605 2083 635 2071T694 2040T753 2000T812 1960T872 1930T934 1917Q960 1917 979 1927T1011 1951T1033 1974T1049 1985Q1055 1985 1060 1977T1065 1948Q1065 1913 1056
1878T1025 1813T971 1766T889 1747Q844 1747 806 1764T733 1806T670 1862T613 1917T562 1960T514 1977Q495 1977 481 1966T456 1938T438 1901T424 1865T412 1837T400 1825Q389 1825 389 1856Q389 1878 398 1916T429 1992T486 2056T574 2083Z" />
<glyph unicode="&#xc4;" glyph-name="Adieresis" horiz-adv-x="1606" d="M852 1679Q859 1679 868 1662T885 1623T901 1578T913 1544Q935 1479 962 1397T1019 1222T1083 1029T1150 828T1217 629T1280 443T1336 280T1384 150Q1408 85 1431 46T1480 -16T1537 -50T1610
-70Q1640 -76 1640 -92Q1640 -103 1629 -107T1604 -111Q1582 -111 1548 -110T1470 -109Q1435 -109 1395 -110T1311 -115Q1244 -120 1187 -131T1084 -154T1004 -175T948 -184Q937 -184 931 -179T924 -164Q924 -151 931 -143T958 -129Q966 -127 981 -123T1014 -114T1051
-103T1087 -88Q1107 -77 1123 -59T1139 -4Q1139 4 1138 18T1133 43Q1115 113 1096 185T1058 322T1022 442T991 532Q968 590 938 620T872 668Q862 672 839 681T785 700T717 723T646 746T581 767T530 784Q506 707 483 632T440 493T406 381T385 311Q377 285 374 264T371
227Q371 198 379 179T402 146T434 123T473 104Q490 96 503 87T516 63Q516 54 509 48T485 41Q468 41 442 49T385 69T318 94T248 119Q220 127 190 133T132 144T82 150T47 154Q22 156 11 161T0 180Q0 190 6 196T29 203Q35 203 50 202T86 201Q134 201 166 207T220 226T256
258T283 305Q295 331 312 374T348 469T388 576T425 681T456 769T475 827Q483 853 497 898T530 1000T566 1116T600 1232T625 1333T635 1405Q635 1425 624 1438T588 1452Q566 1452 539 1449T483 1443T429 1437T383 1434Q346 1434 346 1460Q346 1484 381 1487Q405
1488 435 1492T500 1503T568 1520T635 1546Q686 1569 722 1593T783 1636T825 1667T852 1679ZM547 838Q578 827 626 811T725 779T817 752T879 741Q891 741 900 749T909 776Q909 791 900 830T878 920T848 1026T818 1129T795 1207T784 1243Q780 1255 774 1277T760
1322T745 1360T733 1376Q729 1376 723 1365T709 1339T695 1305T684 1272L547 838ZM604 2085Q631 2085 654 2077T696 2053T724 2012T735 1954Q735 1915 724 1885T695 1835T651 1804T596 1794Q537 1794 500 1831T462 1940Q462 1975 473 2002T503 2047T549 2075T604
2085ZM954 2036Q984 2036 1004 2026T1038 2001T1056 1966T1062 1929Q1062 1874 1034 1837T942 1800Q914 1800 895 1809T863 1833T845 1870T839 1917Q839 1942 847 1963T869 2001T905 2026T954 2036Z" />
<glyph unicode="&#xc5;" glyph-name="Aring" horiz-adv-x="1606" d="M852 1679Q859 1679 868 1662T885 1623T901 1578T913 1544Q935 1479 962 1397T1019 1222T1083 1029T1150 828T1217 629T1280 443T1336 280T1384 150Q1408 85 1431 46T1480 -16T1537 -50T1610
-70Q1640 -76 1640 -92Q1640 -103 1629 -107T1604 -111Q1582 -111 1548 -110T1470 -109Q1435 -109 1395 -110T1311 -115Q1244 -120 1187 -131T1084 -154T1004 -175T948 -184Q937 -184 931 -179T924 -164Q924 -151 931 -143T958 -129Q966 -127 981 -123T1014 -114T1051
-103T1087 -88Q1107 -77 1123 -59T1139 -4Q1139 4 1138 18T1133 43Q1115 113 1096 185T1058 322T1022 442T991 532Q968 590 938 620T872 668Q862 672 839 681T785 700T717 723T646 746T581 767T530 784Q506 707 483 632T440 493T406 381T385 311Q377 285 374 264T371
227Q371 198 379 179T402 146T434 123T473 104Q490 96 503 87T516 63Q516 54 509 48T485 41Q468 41 442 49T385 69T318 94T248 119Q220 127 190 133T132 144T82 150T47 154Q22 156 11 161T0 180Q0 190 6 196T29 203Q35 203 50 202T86 201Q134 201 166 207T220 226T256
258T283 305Q295 331 312 374T348 469T388 576T425 681T456 769T475 827Q483 853 497 898T530 1000T566 1116T600 1232T625 1333T635 1405Q635 1425 624 1438T588 1452Q566 1452 539 1449T483 1443T429 1437T383 1434Q346 1434 346 1460Q346 1484 381 1487Q405
1488 435 1492T500 1503T568 1520T635 1546Q686 1569 722 1593T783 1636T825 1667T852 1679ZM547 838Q578 827 626 811T725 779T817 752T879 741Q891 741 900 749T909 776Q909 791 900 830T878 920T848 1026T818 1129T795 1207T784 1243Q780 1255 774 1277T760
1322T745 1360T733 1376Q729 1376 723 1365T709 1339T695 1305T684 1272L547 838ZM766 2255Q823 2255 867 2237T942 2185T987 2105T1003 2001Q1003 1944 986 1894T938 1808T865 1750T774 1729Q662 1729 597 1796T532 1987Q532 2051 552 2101T606 2185T682 2237T766
2255ZM770 2216Q741 2216 714 2204T666 2169T633 2110T620 2030Q620 1984 634 1952T670 1898T719 1868T774 1858Q815 1858 844 1874T892 1917T919 1975T928 2040Q928 2077 917 2109T886 2165T836 2202T770 2216Z" />
<glyph unicode="&#xc6;" glyph-name="AE" horiz-adv-x="2402" d="M1995 1735Q1999 1735 2004 1734T2013 1728T2020 1713T2023 1683Q2023 1649 2019 1602T2008 1504T1993 1402T1975 1311T1958 1246T1944 1221Q1937 1221 1936 1230T1935 1251Q1935 1270 1935 1284T1937
1314T1938 1349T1939 1399Q1939 1424 1937 1450T1931 1500T1918 1543T1898 1575Q1889 1584 1872 1588T1833 1593Q1811 1593 1786 1590T1737 1582T1691 1573T1655 1565Q1641 1562 1620 1557T1576 1544T1531 1530T1493 1516Q1465 1503 1455 1487T1444 1442Q1444 1427
1446 1397T1453 1327T1462 1244T1473 1157Q1474 1148 1477 1127T1484 1079T1494 1020T1504 958T1513 902T1520 860Q1522 851 1528 847T1550 842Q1569 842 1602 845T1670 856T1739 877T1792 909Q1810 925 1823 948T1845 997T1861 1048T1874 1092T1886 1124T1901
1137Q1909 1137 1913 1128T1917 1098Q1917 1070 1912 1028T1907 926Q1907 863 1914 809T1929 709T1945 624T1952 553Q1952 528 1933 528Q1919 528 1910 549T1892 602T1875 670T1851 735Q1837 764 1814 776T1759 788Q1736 788 1708 786T1653 779T1601 769T1561 758Q1550
753 1546 747T1542 727Q1542 709 1545 680T1554 617T1564 549T1575 485Q1577 473 1583 441T1597 368T1617 280T1640 195T1666 127T1692 94Q1698 91 1706 91T1724 90Q1751 90 1788 97T1867 118T1953 149T2038 190T2113 236T2169 287Q2203 327 2223 379T2254 482T2268
574T2273 633Q2274 674 2282 686T2302 698Q2326 698 2329 655Q2330 641 2331 616T2335 561T2339 497T2345 434Q2350 379 2359 332T2378 248T2393 188T2400 156Q2400 149 2384 144T2340 135T2280 127T2212 117Q2110 99 2020 78T1849 33T1693 -17T1548 -74Q1520 -86
1481 -106T1398 -151T1309 -199T1223 -244T1150 -276T1100 -289Q1092 -289 1086 -285T1079 -270Q1079 -253 1100 -240T1154 -210T1221 -166T1286 -94Q1306 -62 1314 -8T1323 111Q1323 145 1321 193T1314 291T1304 385T1294 457Q1289 486 1272 494T1229 502Q1208
502 1184 501T1135 499T1088 495T1051 492Q999 486 964 482T906 472T868 460T844 442Q829 426 807 388T763 304T720 214T686 141Q677 123 664 96T637 36T609 -31T583 -98T564 -159T557 -205Q557 -240 592 -252T698 -266Q729 -266 740 -273T752 -293Q752 -305 743
-313T702 -322Q687 -322 656 -319T581 -311T488 -303T383 -299Q335 -299 283 -303T183 -313T99 -323T43 -328Q0 -328 0 -305Q0 -294 8 -288T41 -276Q56 -273 98 -268T196 -247T309 -205T414 -133Q474 -73 534 25T655 245T775 501T895 770Q946 884 984 981T1048
1154T1087 1285T1100 1370Q1100 1395 1089 1407T1051 1425Q1030 1430 1003 1434T946 1441T888 1448T836 1454Q817 1456 806 1459T789 1465T782 1471T780 1479Q780 1488 794 1492T846 1497Q877 1497 930 1499T1051 1506T1194 1521T1348 1546Q1484 1572 1595 1605T1790
1667T1925 1715T1995 1735ZM1212 1376Q1207 1376 1194 1344T1159 1252T1102 1106T1020 909Q1014 897 1002 869T976 805T945 730T917 658T896 601T887 571Q887 563 892 561T909 559Q961 559 994 560T1063 563Q1108 565 1148 567T1217 575Q1238 580 1250 588T1268
609T1275 639T1276 680Q1276 714 1274 757T1270 844T1264 926T1260 989Q1254 1070 1248 1140T1236 1263T1224 1346T1212 1376Z" />
<glyph unicode="&#xc7;" glyph-name="Ccedilla" horiz-adv-x="1520" d="M1329 1731Q1343 1731 1346 1717T1350 1681Q1350 1669 1348 1633T1346 1544Q1346 1451 1353 1383T1371 1264T1392 1178T1411 1118Q1417 1098 1426 1070T1436 1022Q1436 1006 1423 1006Q1412
1007 1397 1020T1366 1053T1334 1093T1307 1130Q1262 1190 1214 1237T1108 1317T978 1367T815 1384Q711 1384 620 1344T462 1220T355 1012T315 717Q315 561 342 440T416 228T522 75T649 -27T784 -83T913 -100Q1007 -100 1080 -77T1209 -16T1305 73T1372 177T1415
286T1438 389Q1442 419 1444 449T1449 505T1456 545T1470 561Q1499 561 1499 459Q1499 434 1496 394T1482 303T1452 198T1400 88T1323 -17T1214 -108T1068 -175T879 -207Q876 -222 873 -242T865 -281T859 -318T856 -344Q856 -347 865 -349T889 -356T924 -368T967
-387Q1025 -416 1059 -468T1094 -598Q1094 -637 1080 -680T1036 -759T959 -818T846 -842Q785 -842 743 -820T674 -765T635 -699T623 -639Q623 -631 625 -621T635 -610Q644 -610 655 -630T685 -675T733 -720T807 -741Q863 -741 893 -709T924 -625Q924 -587 913 -561T883
-518T845 -492T807 -476T778 -467T766 -457Q766 -451 772 -429T787 -378T805 -318T821 -262L834 -209H825Q728 -209 630 -189T441 -128T272 -22T135 132T44 337T10 596Q10 767 46 896T143 1119T283 1274T450 1373T627 1425T797 1440Q857 1440 906 1435T997 1425T1073
1414T1137 1409Q1188 1409 1222 1430T1272 1513Q1282 1555 1286 1594T1295 1663T1307 1712T1329 1731Z" />
<glyph unicode="&#xc8;" glyph-name="Egrave" horiz-adv-x="1141" d="M1004 1642Q1019 1642 1024 1635T1030 1614Q1030 1596 1028 1573T1022 1516T1017 1433T1014 1315Q1014 1302 1010 1292T995 1282Q979 1282 973 1315Q968 1336 965 1368T954 1448Q949 1486 938
1507T910 1538T874 1550T836 1552Q797 1552 747 1549T648 1541T562 1531T508 1522Q476 1514 469 1496T461 1452Q461 1430 462 1389T465 1294T470 1179T475 1055T480 935T485 831Q507 828 535 826T592 823Q625 823 647 827T685 840T710 859T725 885Q731 900 733
914T739 946Q742 965 748 971T760 977Q774 977 774 952Q774 930 772 898T766 831T761 760T758 694Q758 667 758 640T760 590T761 549T762 522Q762 508 757 496T737 483Q714 483 711 524Q710 534 710 552T708 590T705 630T698 664Q693 681 680 697T639 723Q627 727
610 730T572 735T530 738T489 741Q492 691 496 618T506 463T518 298T529 146T537 30T543 -29Q547 -70 564 -89T618 -113Q658 -119 715 -119Q791 -119 849 -111T950 -83T1023 -30T1073 55Q1084 82 1091 108T1104 156T1115 190T1126 203Q1134 203 1137 185T1141 141Q1141
105 1138 62T1128 -24T1115 -102T1100 -158Q1087 -190 1065 -202T1006 -215Q974 -215 919 -210T793 -197T639 -181T469 -168Q402 -164 342 -162T231 -159T144 -158T86 -158Q58 -158 50 -151T41 -131Q41 -116 52 -110T80 -104Q91 -104 117 -106T182 -109Q195 -109
208 -109T238 -106Q274 -105 293 -94T322 -67T332 -34T334 -4Q332 93 324 203T306 419T287 612T272 752Q269 786 264 833T253 935T239 1045T224 1155T209 1255T195 1333Q187 1372 178 1400T157 1449T134 1485T106 1511Q95 1520 80 1528T52 1545T29 1560T20 1577Q20
1593 47 1593Q61 1593 86 1590T148 1582T237 1575T356 1571Q408 1571 473 1576T606 1589T742 1606T864 1623T956 1636T1004 1642ZM242 2136Q261 2136 282 2123T326 2088T372 2036T416 1973Q440 1937 462 1903T500 1838T527 1784T537 1741Q537 1730 532 1722T516
1714Q504 1714 482 1728T431 1766T370 1820T308 1882Q284 1906 260 1931T216 1980T184 2028T172 2071Q172 2105 194 2120T242 2136Z" />
<glyph unicode="&#xc9;" glyph-name="Eacute" horiz-adv-x="1141" d="M1004 1642Q1019 1642 1024 1635T1030 1614Q1030 1596 1028 1573T1022 1516T1017 1433T1014 1315Q1014 1302 1010 1292T995 1282Q979 1282 973 1315Q968 1336 965 1368T954 1448Q949 1486 938
1507T910 1538T874 1550T836 1552Q797 1552 747 1549T648 1541T562 1531T508 1522Q476 1514 469 1496T461 1452Q461 1430 462 1389T465 1294T470 1179T475 1055T480 935T485 831Q507 828 535 826T592 823Q625 823 647 827T685 840T710 859T725 885Q731 900 733
914T739 946Q742 965 748 971T760 977Q774 977 774 952Q774 930 772 898T766 831T761 760T758 694Q758 667 758 640T760 590T761 549T762 522Q762 508 757 496T737 483Q714 483 711 524Q710 534 710 552T708 590T705 630T698 664Q693 681 680 697T639 723Q627 727
610 730T572 735T530 738T489 741Q492 691 496 618T506 463T518 298T529 146T537 30T543 -29Q547 -70 564 -89T618 -113Q658 -119 715 -119Q791 -119 849 -111T950 -83T1023 -30T1073 55Q1084 82 1091 108T1104 156T1115 190T1126 203Q1134 203 1137 185T1141 141Q1141
105 1138 62T1128 -24T1115 -102T1100 -158Q1087 -190 1065 -202T1006 -215Q974 -215 919 -210T793 -197T639 -181T469 -168Q402 -164 342 -162T231 -159T144 -158T86 -158Q58 -158 50 -151T41 -131Q41 -116 52 -110T80 -104Q91 -104 117 -106T182 -109Q195 -109
208 -109T238 -106Q274 -105 293 -94T322 -67T332 -34T334 -4Q332 93 324 203T306 419T287 612T272 752Q269 786 264 833T253 935T239 1045T224 1155T209 1255T195 1333Q187 1372 178 1400T157 1449T134 1485T106 1511Q95 1520 80 1528T52 1545T29 1560T20 1577Q20
1593 47 1593Q61 1593 86 1590T148 1582T237 1575T356 1571Q408 1571 473 1576T606 1589T742 1606T864 1623T956 1636T1004 1642ZM772 2151Q792 2151 801 2139T811 2106Q811 2088 800 2061T770 2001T730 1934T684 1868Q642 1811 605 1774T551 1737Q541 1737 539
1742T536 1758Q536 1772 546 1806T573 1884T614 1975T663 2061T717 2125T772 2151Z" />
<glyph unicode="&#xca;" glyph-name="Ecircumflex" horiz-adv-x="1141" d="M1004 1642Q1019 1642 1024 1635T1030 1614Q1030 1596 1028 1573T1022 1516T1017 1433T1014 1315Q1014 1302 1010 1292T995 1282Q979 1282 973 1315Q968 1336 965 1368T954 1448Q949 1486
938 1507T910 1538T874 1550T836 1552Q797 1552 747 1549T648 1541T562 1531T508 1522Q476 1514 469 1496T461 1452Q461 1430 462 1389T465 1294T470 1179T475 1055T480 935T485 831Q507 828 535 826T592 823Q625 823 647 827T685 840T710 859T725 885Q731 900
733 914T739 946Q742 965 748 971T760 977Q774 977 774 952Q774 930 772 898T766 831T761 760T758 694Q758 667 758 640T760 590T761 549T762 522Q762 508 757 496T737 483Q714 483 711 524Q710 534 710 552T708 590T705 630T698 664Q693 681 680 697T639 723Q627
727 610 730T572 735T530 738T489 741Q492 691 496 618T506 463T518 298T529 146T537 30T543 -29Q547 -70 564 -89T618 -113Q658 -119 715 -119Q791 -119 849 -111T950 -83T1023 -30T1073 55Q1084 82 1091 108T1104 156T1115 190T1126 203Q1134 203 1137 185T1141
141Q1141 105 1138 62T1128 -24T1115 -102T1100 -158Q1087 -190 1065 -202T1006 -215Q974 -215 919 -210T793 -197T639 -181T469 -168Q402 -164 342 -162T231 -159T144 -158T86 -158Q58 -158 50 -151T41 -131Q41 -116 52 -110T80 -104Q91 -104 117 -106T182 -109Q195
-109 208 -109T238 -106Q274 -105 293 -94T322 -67T332 -34T334 -4Q332 93 324 203T306 419T287 612T272 752Q269 786 264 833T253 935T239 1045T224 1155T209 1255T195 1333Q187 1372 178 1400T157 1449T134 1485T106 1511Q95 1520 80 1528T52 1545T29 1560T20
1577Q20 1593 47 1593Q61 1593 86 1590T148 1582T237 1575T356 1571Q408 1571 473 1576T606 1589T742 1606T864 1623T956 1636T1004 1642ZM573 2210Q583 2210 592 2197T621 2159Q645 2126 664 2103T700 2060T736 2022T776 1983Q824 1938 860 1912T922 1868T960
1839T973 1811Q973 1800 964 1794T942 1788Q923 1788 898 1795T846 1814T790 1842T737 1876Q693 1910 661 1939T608 1991T573 2025T553 2038Q547 2038 533 2024T498 1986T446 1931T379 1866Q350 1840 323 1817T272 1776T230 1748T199 1737Q196 1737 193 1738T190
1745Q190 1754 215 1779T280 1845T371 1944T471 2075Q489 2103 505 2127T533 2170T556 2199T573 2210Z" />
<glyph unicode="&#xcb;" glyph-name="Edieresis" horiz-adv-x="1141" d="M1004 1642Q1019 1642 1024 1635T1030 1614Q1030 1596 1028 1573T1022 1516T1017 1433T1014 1315Q1014 1302 1010 1292T995 1282Q979 1282 973 1315Q968 1336 965 1368T954 1448Q949 1486
938 1507T910 1538T874 1550T836 1552Q797 1552 747 1549T648 1541T562 1531T508 1522Q476 1514 469 1496T461 1452Q461 1430 462 1389T465 1294T470 1179T475 1055T480 935T485 831Q507 828 535 826T592 823Q625 823 647 827T685 840T710 859T725 885Q731 900
733 914T739 946Q742 965 748 971T760 977Q774 977 774 952Q774 930 772 898T766 831T761 760T758 694Q758 667 758 640T760 590T761 549T762 522Q762 508 757 496T737 483Q714 483 711 524Q710 534 710 552T708 590T705 630T698 664Q693 681 680 697T639 723Q627
727 610 730T572 735T530 738T489 741Q492 691 496 618T506 463T518 298T529 146T537 30T543 -29Q547 -70 564 -89T618 -113Q658 -119 715 -119Q791 -119 849 -111T950 -83T1023 -30T1073 55Q1084 82 1091 108T1104 156T1115 190T1126 203Q1134 203 1137 185T1141
141Q1141 105 1138 62T1128 -24T1115 -102T1100 -158Q1087 -190 1065 -202T1006 -215Q974 -215 919 -210T793 -197T639 -181T469 -168Q402 -164 342 -162T231 -159T144 -158T86 -158Q58 -158 50 -151T41 -131Q41 -116 52 -110T80 -104Q91 -104 117 -106T182 -109Q195
-109 208 -109T238 -106Q274 -105 293 -94T322 -67T332 -34T334 -4Q332 93 324 203T306 419T287 612T272 752Q269 786 264 833T253 935T239 1045T224 1155T209 1255T195 1333Q187 1372 178 1400T157 1449T134 1485T106 1511Q95 1520 80 1528T52 1545T29 1560T20
1577Q20 1593 47 1593Q61 1593 86 1590T148 1582T237 1575T356 1571Q408 1571 473 1576T606 1589T742 1606T864 1623T956 1636T1004 1642ZM398 2028Q425 2028 448 2020T490 1996T518 1955T529 1897Q529 1858 518 1828T489 1778T445 1747T390 1737Q331 1737 294
1774T256 1883Q256 1918 267 1945T297 1990T343 2018T398 2028ZM748 1979Q778 1979 798 1969T832 1944T850 1909T856 1872Q856 1817 828 1780T736 1743Q708 1743 689 1752T657 1776T639 1813T633 1860Q633 1885 641 1906T663 1944T699 1969T748 1979Z" />
<glyph unicode="&#xcc;" glyph-name="Igrave" horiz-adv-x="899" d="M918 1733Q952 1733 971 1730T1001 1721T1015 1710T1018 1696Q1018 1679 997 1669T926 1659Q876 1659 833 1656T752 1642Q718 1633 690 1616T640 1569T600 1498T571 1397Q558 1333 545 1232T518
1009T492 750T471 480T457 222T451 0Q451 -56 460 -88T484 -138T515 -161T543 -170Q571 -178 607 -179T668 -180Q717 -180 717 -207Q717 -219 706 -229T655 -240Q635 -240 610 -239T553 -238Q510 -238 456 -241T336 -254Q271 -263 208 -283T90 -323T-8 -358T-76
-373Q-102 -373 -102 -350Q-102 -333 -78 -324Q-70 -321 -37 -310T37 -283T117 -253T176 -225Q206 -208 225 -187T257 -141T274 -85T283 -20Q285 20 287 94T290 264T292 472T293 700Q293 794 293 886T292 1062T290 1216T287 1337Q285 1412 277 1459T255 1536T226
1582T190 1610Q160 1630 110 1639T8 1649Q-15 1649 -25 1657T-35 1677Q-35 1683 -33 1688T-25 1699T-7 1707T27 1710Q54 1710 97 1707T193 1701T303 1695T418 1692Q479 1692 544 1698T674 1712T801 1726T918 1733ZM248 2234Q267 2234 288 2221T332 2186T378 2134T422
2071Q446 2035 468 2001T506 1936T533 1882T543 1839Q543 1828 538 1820T522 1812Q510 1812 488 1826T437 1864T376 1918T314 1980Q290 2004 266 2029T222 2078T190 2126T178 2169Q178 2203 200 2218T248 2234Z" />
<glyph unicode="&#xcd;" glyph-name="Iacute" horiz-adv-x="899" d="M918 1733Q952 1733 971 1730T1001 1721T1015 1710T1018 1696Q1018 1679 997 1669T926 1659Q876 1659 833 1656T752 1642Q718 1633 690 1616T640 1569T600 1498T571 1397Q558 1333 545 1232T518
1009T492 750T471 480T457 222T451 0Q451 -56 460 -88T484 -138T515 -161T543 -170Q571 -178 607 -179T668 -180Q717 -180 717 -207Q717 -219 706 -229T655 -240Q635 -240 610 -239T553 -238Q510 -238 456 -241T336 -254Q271 -263 208 -283T90 -323T-8 -358T-76
-373Q-102 -373 -102 -350Q-102 -333 -78 -324Q-70 -321 -37 -310T37 -283T117 -253T176 -225Q206 -208 225 -187T257 -141T274 -85T283 -20Q285 20 287 94T290 264T292 472T293 700Q293 794 293 886T292 1062T290 1216T287 1337Q285 1412 277 1459T255 1536T226
1582T190 1610Q160 1630 110 1639T8 1649Q-15 1649 -25 1657T-35 1677Q-35 1683 -33 1688T-25 1699T-7 1707T27 1710Q54 1710 97 1707T193 1701T303 1695T418 1692Q479 1692 544 1698T674 1712T801 1726T918 1733ZM743 2228Q763 2228 772 2216T782 2183Q782 2165
771 2138T741 2078T701 2011T655 1945Q613 1888 576 1851T522 1814Q512 1814 510 1819T507 1835Q507 1849 517 1883T544 1961T585 2052T634 2138T688 2202T743 2228Z" />
<glyph unicode="&#xce;" glyph-name="Icircumflex" horiz-adv-x="899" d="M918 1733Q952 1733 971 1730T1001 1721T1015 1710T1018 1696Q1018 1679 997 1669T926 1659Q876 1659 833 1656T752 1642Q718 1633 690 1616T640 1569T600 1498T571 1397Q558 1333 545
1232T518 1009T492 750T471 480T457 222T451 0Q451 -56 460 -88T484 -138T515 -161T543 -170Q571 -178 607 -179T668 -180Q717 -180 717 -207Q717 -219 706 -229T655 -240Q635 -240 610 -239T553 -238Q510 -238 456 -241T336 -254Q271 -263 208 -283T90 -323T-8
-358T-76 -373Q-102 -373 -102 -350Q-102 -333 -78 -324Q-70 -321 -37 -310T37 -283T117 -253T176 -225Q206 -208 225 -187T257 -141T274 -85T283 -20Q285 20 287 94T290 264T292 472T293 700Q293 794 293 886T292 1062T290 1216T287 1337Q285 1412 277 1459T255
1536T226 1582T190 1610Q160 1630 110 1639T8 1649Q-15 1649 -25 1657T-35 1677Q-35 1683 -33 1688T-25 1699T-7 1707T27 1710Q54 1710 97 1707T193 1701T303 1695T418 1692Q479 1692 544 1698T674 1712T801 1726T918 1733ZM507 2275Q517 2275 526 2262T555 2224Q579
2191 598 2168T634 2125T670 2087T710 2048Q758 2003 794 1977T856 1933T894 1904T907 1876Q907 1865 898 1859T876 1853Q857 1853 832 1860T780 1879T724 1907T671 1941Q627 1975 595 2004T542 2056T507 2090T487 2103Q481 2103 467 2089T432 2051T380 1996T313
1931Q284 1905 257 1882T206 1841T164 1813T133 1802Q130 1802 127 1803T124 1810Q124 1819 149 1844T214 1910T305 2009T405 2140Q423 2168 439 2192T467 2235T490 2264T507 2275Z" />
<glyph unicode="&#xcf;" glyph-name="Idieresis" horiz-adv-x="899" d="M918 1733Q952 1733 971 1730T1001 1721T1015 1710T1018 1696Q1018 1679 997 1669T926 1659Q876 1659 833 1656T752 1642Q718 1633 690 1616T640 1569T600 1498T571 1397Q558 1333 545 1232T518
1009T492 750T471 480T457 222T451 0Q451 -56 460 -88T484 -138T515 -161T543 -170Q571 -178 607 -179T668 -180Q717 -180 717 -207Q717 -219 706 -229T655 -240Q635 -240 610 -239T553 -238Q510 -238 456 -241T336 -254Q271 -263 208 -283T90 -323T-8 -358T-76
-373Q-102 -373 -102 -350Q-102 -333 -78 -324Q-70 -321 -37 -310T37 -283T117 -253T176 -225Q206 -208 225 -187T257 -141T274 -85T283 -20Q285 20 287 94T290 264T292 472T293 700Q293 794 293 886T292 1062T290 1216T287 1337Q285 1412 277 1459T255 1536T226
1582T190 1610Q160 1630 110 1639T8 1649Q-15 1649 -25 1657T-35 1677Q-35 1683 -33 1688T-25 1699T-7 1707T27 1710Q54 1710 97 1707T193 1701T303 1695T418 1692Q479 1692 544 1698T674 1712T801 1726T918 1733ZM314 2136Q341 2136 364 2128T406 2104T434 2063T445
2005Q445 1966 434 1936T405 1886T361 1855T306 1845Q247 1845 210 1882T172 1991Q172 2026 183 2053T213 2098T259 2126T314 2136ZM664 2087Q694 2087 714 2077T748 2052T766 2017T772 1980Q772 1925 744 1888T652 1851Q624 1851 605 1860T573 1884T555 1921T549
1968Q549 1993 557 2014T579 2052T615 2077T664 2087Z" />
<glyph unicode="&#xd0;" glyph-name="Eth" horiz-adv-x="1497" d="M414 1180Q471 1184 520 1191T614 1205T705 1216T801 1221Q885 1221 971 1207T1136 1161T1285 1079T1406 955T1488 784T1518 561Q1518 442 1487 344T1400 168T1270 30T1108 -72Q1000 -123 901
-149T712 -190T540 -216T381 -250Q305 -272 244 -303T136 -363T59 -412T16 -432Q0 -432 0 -418Q0 -403 27 -383T92 -334T173 -269T248 -186Q273 -149 288 -82T310 67T320 239T322 414Q286 408 249 403T178 393T115 386T66 383Q56 383 45 390T33 414Q33 434 45 441T72
451Q178 460 324 481Q326 538 328 614T330 768Q330 831 329 890T322 1001Q320 1032 311 1050T289 1079T257 1093T218 1098T175 1099T129 1102Q104 1105 95 1116T86 1141Q86 1153 97 1165T147 1178Q161 1178 192 1176T272 1174Q330 1174 414 1180ZM719 539Q739 539
748 532T758 516Q758 498 738 489T692 473Q660 465 627 460T547 449Q547 406 548 352T551 241T558 129T567 27Q572 -14 582 -40T609 -83T649 -105T702 -111Q730 -111 766 -102T840 -75T914 -34T981 18Q1018 54 1050 103T1105 218T1142 370T1155 567Q1155 687 1123
792T1029 975T877 1098T670 1143Q636 1143 607 1137T567 1120Q559 1112 555 1094T548 1054T546 1012T545 977V514Q611 525 655 532T719 539Z" />
<glyph unicode="&#xd1;" glyph-name="Ntilde" horiz-adv-x="1638" d="M475 1468Q496 1460 531 1428T612 1345T713 1232T831 1102Q877 1052 922 1001T1010 901T1089 811T1157 738T1211 688T1247 670Q1255 670 1261 687T1271 732T1279 795T1284 866T1287 936T1288
995Q1288 1029 1287 1071T1282 1152T1274 1224T1260 1274Q1248 1298 1233 1314T1196 1340T1143 1357T1067 1368Q1038 1371 1027 1378T1016 1399Q1016 1413 1027 1417T1051 1421Q1061 1421 1081 1420T1130 1417T1190 1414T1257 1413Q1312 1413 1366 1421T1467 1438T1551
1456T1608 1464Q1638 1464 1638 1440Q1638 1424 1626 1417T1599 1407Q1581 1403 1566 1401T1537 1395T1508 1388T1475 1376Q1460 1371 1446 1361T1418 1335T1395 1294T1378 1235Q1372 1199 1368 1135T1359 991T1353 824T1348 655T1344 504T1341 391Q1338 232 1332
156T1311 80Q1303 80 1281 100T1227 155T1158 235T1080 330T1000 431T925 528T862 611T817 672Q621 942 517 1080T387 1219Q382 1219 380 1189T376 1108T374 989T373 844Q373 745 373 640T374 440T374 274T375 168Q375 109 376 47T382 -70T395 -171T416 -242Q434
-277 455 -301T499 -342T549 -370T602 -389Q625 -397 636 -403T647 -420Q647 -438 616 -438Q598 -438 572 -432T516 -418T451 -399T383 -381Q345 -372 307 -367T233 -362Q209 -362 184 -363T136 -366T98 -369T76 -371Q57 -371 39 -368T20 -348Q20 -336 33 -332T68
-328Q97 -328 133 -321T201 -293Q243 -265 265 -219T295 -100Q299 -66 301 -30T305 51T308 153T309 285Q309 317 308 353T307 430Q307 457 307 505T306 616T305 749T302 893T297 1034T289 1162T277 1264T260 1327Q249 1349 230 1361T185 1379T127 1386T57 1389Q33
1389 17 1395T0 1423Q0 1439 11 1446T39 1454H125Q186 1454 279 1460Q322 1463 364 1469T438 1475Q449 1475 459 1474T475 1468ZM838 1966Q869 1966 899 1954T958 1923T1017 1883T1076 1843T1136 1813T1198 1800Q1224 1800 1243 1810T1275 1834T1297 1857T1313
1868Q1319 1868 1324 1860T1329 1831Q1329 1796 1320 1761T1289 1696T1235 1649T1153 1630Q1108 1630 1070 1647T997 1689T934 1745T877 1800T826 1843T778 1860Q759 1860 745 1849T720 1821T702 1784T688 1748T676 1720T664 1708Q653 1708 653 1739Q653 1761 662
1799T693 1875T750 1939T838 1966Z" />
<glyph unicode="&#xd2;" glyph-name="Ograve" horiz-adv-x="1530" d="M731 1561Q908 1561 1053 1505T1301 1349T1461 1110T1518 805Q1518 711 1498 618T1438 441T1337 285T1193 160T1006 77T774 47Q585 47 442 104T203 264T59 508T10 817Q10 980 63 1116T211 1352T439
1506T731 1561ZM690 1509Q592 1509 514 1465T380 1340T294 1143T264 883Q264 800 275 710T312 533T378 368T478 231T615 137T795 102Q915 102 997 150T1129 278T1202 457T1225 662Q1225 749 1216 846T1183 1037T1120 1216T1021 1367T880 1470T690 1509ZM428 2171Q447
2171 468 2158T512 2123T558 2071T602 2008Q626 1972 648 1938T686 1873T713 1819T723 1776Q723 1765 718 1757T702 1749Q690 1749 668 1763T617 1801T556 1855T494 1917Q470 1941 446 1966T402 2015T370 2063T358 2106Q358 2140 380 2155T428 2171Z" />
<glyph unicode="&#xd3;" glyph-name="Oacute" horiz-adv-x="1530" d="M731 1561Q908 1561 1053 1505T1301 1349T1461 1110T1518 805Q1518 711 1498 618T1438 441T1337 285T1193 160T1006 77T774 47Q585 47 442 104T203 264T59 508T10 817Q10 980 63 1116T211 1352T439
1506T731 1561ZM690 1509Q592 1509 514 1465T380 1340T294 1143T264 883Q264 800 275 710T312 533T378 368T478 231T615 137T795 102Q915 102 997 150T1129 278T1202 457T1225 662Q1225 749 1216 846T1183 1037T1120 1216T1021 1367T880 1470T690 1509ZM885 2142Q905
2142 914 2130T924 2097Q924 2079 913 2052T883 1992T843 1925T797 1859Q755 1802 718 1765T664 1728Q654 1728 652 1733T649 1749Q649 1763 659 1797T686 1875T727 1966T776 2052T830 2116T885 2142Z" />
<glyph unicode="&#xd4;" glyph-name="Ocircumflex" horiz-adv-x="1530" d="M731 1561Q908 1561 1053 1505T1301 1349T1461 1110T1518 805Q1518 711 1498 618T1438 441T1337 285T1193 160T1006 77T774 47Q585 47 442 104T203 264T59 508T10 817Q10 980 63 1116T211
1352T439 1506T731 1561ZM690 1509Q592 1509 514 1465T380 1340T294 1143T264 883Q264 800 275 710T312 533T378 368T478 231T615 137T795 102Q915 102 997 150T1129 278T1202 457T1225 662Q1225 749 1216 846T1183 1037T1120 1216T1021 1367T880 1470T690 1509ZM706
2136Q716 2136 725 2123T754 2085Q778 2052 797 2029T833 1986T869 1948T909 1909Q957 1864 993 1838T1055 1794T1093 1765T1106 1737Q1106 1726 1097 1720T1075 1714Q1056 1714 1031 1721T979 1740T923 1768T870 1802Q826 1836 794 1865T741 1917T706 1951T686
1964Q680 1964 666 1950T631 1912T579 1857T512 1792Q483 1766 456 1743T405 1702T363 1674T332 1663Q329 1663 326 1664T323 1671Q323 1680 348 1705T413 1771T504 1870T604 2001Q622 2029 638 2053T666 2096T689 2125T706 2136Z" />
<glyph unicode="&#xd5;" glyph-name="Otilde" horiz-adv-x="1530" d="M731 1561Q908 1561 1053 1505T1301 1349T1461 1110T1518 805Q1518 711 1498 618T1438 441T1337 285T1193 160T1006 77T774 47Q585 47 442 104T203 264T59 508T10 817Q10 980 63 1116T211 1352T439
1506T731 1561ZM690 1509Q592 1509 514 1465T380 1340T294 1143T264 883Q264 800 275 710T312 533T378 368T478 231T615 137T795 102Q915 102 997 150T1129 278T1202 457T1225 662Q1225 749 1216 846T1183 1037T1120 1216T1021 1367T880 1470T690 1509ZM613 2046Q644
2046 674 2034T733 2003T792 1963T851 1923T911 1893T973 1880Q999 1880 1018 1890T1050 1914T1072 1937T1088 1948Q1094 1948 1099 1940T1104 1911Q1104 1876 1095 1841T1064 1776T1010 1729T928 1710Q883 1710 845 1727T772 1769T709 1825T652 1880T601 1923T553
1940Q534 1940 520 1929T495 1901T477 1864T463 1828T451 1800T439 1788Q428 1788 428 1819Q428 1841 437 1879T468 1955T525 2019T613 2046Z" />
<glyph unicode="&#xd6;" glyph-name="Odieresis" horiz-adv-x="1530" d="M731 1561Q908 1561 1053 1505T1301 1349T1461 1110T1518 805Q1518 711 1498 618T1438 441T1337 285T1193 160T1006 77T774 47Q585 47 442 104T203 264T59 508T10 817Q10 980 63 1116T211
1352T439 1506T731 1561ZM690 1509Q592 1509 514 1465T380 1340T294 1143T264 883Q264 800 275 710T312 533T378 368T478 231T615 137T795 102Q915 102 997 150T1129 278T1202 457T1225 662Q1225 749 1216 846T1183 1037T1120 1216T1021 1367T880 1470T690 1509ZM586
2073Q613 2073 636 2065T678 2041T706 2000T717 1942Q717 1903 706 1873T677 1823T633 1792T578 1782Q519 1782 482 1819T444 1928Q444 1963 455 1990T485 2035T531 2063T586 2073ZM936 2024Q966 2024 986 2014T1020 1989T1038 1954T1044 1917Q1044 1862 1016 1825T924
1788Q896 1788 877 1797T845 1821T827 1858T821 1905Q821 1930 829 1951T851 1989T887 2014T936 2024Z" />
<glyph unicode="&#xd7;" glyph-name="multiply" horiz-adv-x="1108" d="M215 956Q228 956 245 947T282 921T327 884T377 840Q402 817 420 801T453 773T480 752T504 733Q510 728 524 719T547 709Q552 709 568 726T607 772T656 834T707 901T752 962T784 1006Q799
1027 825 1061T880 1127T935 1184T977 1208Q992 1208 998 1200T1004 1180Q1004 1152 959 1093T819 924Q774 871 736 825T671 744T628 685T612 655Q612 650 615 646T623 639Q635 627 664 604T729 554T800 502T858 457Q899 425 899 401Q899 393 894 386T872 379Q853
379 825 394T766 431T703 479T643 527T594 564T563 580Q556 580 537 558T491 502T435 425T378 344T331 273T301 229Q292 216 280 197T254 155T223 111T192 71T161 42T133 31Q119 31 111 40T102 66Q102 88 120 122T167 197T227 279T289 358Q295 367 311 387T346
434T387 491T425 548T454 596T465 627Q465 634 451 650T416 687T375 727T342 760Q329 774 305 798T256 848T213 899T195 936Q195 942 199 949T215 956Z" />
<glyph unicode="&#xd8;" glyph-name="Oslash" horiz-adv-x="1530" d="M1456 1800Q1473 1800 1473 1780Q1473 1764 1450 1721T1393 1623T1318 1507T1243 1397Q1373 1297 1445 1146T1518 805Q1518 711 1498 618T1438 441T1337 285T1193 160T1006 77T774 47Q644 47
537 74T342 152Q308 104 278 61T221 -18Q187 -63 165 -92T123 -121Q114 -121 107 -116T100 -96Q100 -71 131 -20T213 104L279 197Q144 299 77 458T10 817Q10 980 63 1116T211 1352T439 1506T731 1561Q859 1561 971 1531T1176 1444L1309 1630Q1363 1706 1398 1753T1456
1800ZM690 1509Q592 1509 514 1465T380 1340T294 1143T264 883Q264 818 271 749T292 611T330 475T387 350L475 475Q533 559 605 660T756 868T915 1086T1071 1300Q1040 1347 1002 1385T917 1451T813 1494T690 1509ZM1225 662Q1225 728 1220 799T1202 943T1169 1085T1118
1219Q1070 1152 1012 1072T891 905T764 732T640 562T527 408T434 281Q495 201 584 152T795 102Q915 102 997 150T1129 278T1202 457T1225 662Z" />
<glyph unicode="&#xd9;" glyph-name="Ugrave" horiz-adv-x="1415" d="M848 1614Q874 1614 874 1593Q874 1578 861 1566T813 1538Q795 1530 774 1519T730 1494T685 1460T643 1415Q617 1383 598 1333T566 1220T546 1081T539 924Q539 834 545 746T565 577T604 429T663
311T748 233T862 205Q945 205 1004 249T1102 362T1159 515T1178 680Q1178 701 1178 736T1176 815T1171 904T1160 993T1142 1071T1116 1128Q1101 1149 1081 1166T1033 1197T965 1221T874 1239Q832 1245 810 1253T788 1284Q788 1303 805 1310T854 1317Q883 1317 917
1313T991 1305T1075 1296T1167 1292Q1211 1292 1255 1297T1339 1307T1415 1318T1479 1323Q1514 1323 1526 1317T1538 1300Q1538 1288 1524 1284T1487 1278Q1463 1276 1436 1274T1381 1265T1331 1244T1292 1204Q1272 1171 1264 1114T1252 988T1249 845T1245 702Q1243
662 1236 601T1212 471T1165 334T1087 210T968 121T801 86Q707 86 630 114T492 193T387 314T315 469Q298 520 288 583T271 717T261 861T256 1008Q254 1071 250 1122T237 1212T213 1277T172 1319Q144 1336 115 1343T39 1350Q0 1350 0 1378Q0 1401 33 1407Q77 1414
121 1420T213 1433T310 1448T414 1470Q511 1494 584 1519T709 1566T795 1600T848 1614ZM618 2211Q637 2211 658 2198T702 2163T748 2111T792 2048Q816 2012 838 1978T876 1913T903 1859T913 1816Q913 1805 908 1797T892 1789Q880 1789 858 1803T807 1841T746 1895T684
1957Q660 1981 636 2006T592 2055T560 2103T548 2146Q548 2180 570 2195T618 2211Z" />
<glyph unicode="&#xda;" glyph-name="Uacute" horiz-adv-x="1415" d="M848 1614Q874 1614 874 1593Q874 1578 861 1566T813 1538Q795 1530 774 1519T730 1494T685 1460T643 1415Q617 1383 598 1333T566 1220T546 1081T539 924Q539 834 545 746T565 577T604 429T663
311T748 233T862 205Q945 205 1004 249T1102 362T1159 515T1178 680Q1178 701 1178 736T1176 815T1171 904T1160 993T1142 1071T1116 1128Q1101 1149 1081 1166T1033 1197T965 1221T874 1239Q832 1245 810 1253T788 1284Q788 1303 805 1310T854 1317Q883 1317 917
1313T991 1305T1075 1296T1167 1292Q1211 1292 1255 1297T1339 1307T1415 1318T1479 1323Q1514 1323 1526 1317T1538 1300Q1538 1288 1524 1284T1487 1278Q1463 1276 1436 1274T1381 1265T1331 1244T1292 1204Q1272 1171 1264 1114T1252 988T1249 845T1245 702Q1243
662 1236 601T1212 471T1165 334T1087 210T968 121T801 86Q707 86 630 114T492 193T387 314T315 469Q298 520 288 583T271 717T261 861T256 1008Q254 1071 250 1122T237 1212T213 1277T172 1319Q144 1336 115 1343T39 1350Q0 1350 0 1378Q0 1401 33 1407Q77 1414
121 1420T213 1433T310 1448T414 1470Q511 1494 584 1519T709 1566T795 1600T848 1614ZM1276 1972Q1296 1972 1305 1960T1315 1927Q1315 1909 1304 1882T1274 1822T1234 1755T1188 1689Q1146 1632 1109 1595T1055 1558Q1045 1558 1043 1563T1040 1579Q1040 1593
1050 1627T1077 1705T1118 1796T1167 1882T1221 1946T1276 1972Z" />
<glyph unicode="&#xdb;" glyph-name="Ucircumflex" horiz-adv-x="1415" d="M848 1614Q874 1614 874 1593Q874 1578 861 1566T813 1538Q795 1530 774 1519T730 1494T685 1460T643 1415Q617 1383 598 1333T566 1220T546 1081T539 924Q539 834 545 746T565 577T604
429T663 311T748 233T862 205Q945 205 1004 249T1102 362T1159 515T1178 680Q1178 701 1178 736T1176 815T1171 904T1160 993T1142 1071T1116 1128Q1101 1149 1081 1166T1033 1197T965 1221T874 1239Q832 1245 810 1253T788 1284Q788 1303 805 1310T854 1317Q883
1317 917 1313T991 1305T1075 1296T1167 1292Q1211 1292 1255 1297T1339 1307T1415 1318T1479 1323Q1514 1323 1526 1317T1538 1300Q1538 1288 1524 1284T1487 1278Q1463 1276 1436 1274T1381 1265T1331 1244T1292 1204Q1272 1171 1264 1114T1252 988T1249 845T1245
702Q1243 662 1236 601T1212 471T1165 334T1087 210T968 121T801 86Q707 86 630 114T492 193T387 314T315 469Q298 520 288 583T271 717T261 861T256 1008Q254 1071 250 1122T237 1212T213 1277T172 1319Q144 1336 115 1343T39 1350Q0 1350 0 1378Q0 1401 33 1407Q77
1414 121 1420T213 1433T310 1448T414 1470Q511 1494 584 1519T709 1566T795 1600T848 1614ZM856 2089Q866 2089 875 2076T904 2038Q928 2005 947 1982T983 1939T1019 1901T1059 1862Q1107 1817 1143 1791T1205 1747T1243 1718T1256 1690Q1256 1679 1247 1673T1225
1667Q1206 1667 1181 1674T1129 1693T1073 1721T1020 1755Q976 1789 944 1818T891 1870T856 1904T836 1917Q830 1917 816 1903T781 1865T729 1810T662 1745Q633 1719 606 1696T555 1655T513 1627T482 1616Q479 1616 476 1617T473 1624Q473 1633 498 1658T563 1724T654
1823T754 1954Q772 1982 788 2006T816 2049T839 2078T856 2089Z" />
<glyph unicode="&#xdc;" glyph-name="Udieresis" horiz-adv-x="1415" d="M848 1614Q874 1614 874 1593Q874 1578 861 1566T813 1538Q795 1530 774 1519T730 1494T685 1460T643 1415Q617 1383 598 1333T566 1220T546 1081T539 924Q539 834 545 746T565 577T604
429T663 311T748 233T862 205Q945 205 1004 249T1102 362T1159 515T1178 680Q1178 701 1178 736T1176 815T1171 904T1160 993T1142 1071T1116 1128Q1101 1149 1081 1166T1033 1197T965 1221T874 1239Q832 1245 810 1253T788 1284Q788 1303 805 1310T854 1317Q883
1317 917 1313T991 1305T1075 1296T1167 1292Q1211 1292 1255 1297T1339 1307T1415 1318T1479 1323Q1514 1323 1526 1317T1538 1300Q1538 1288 1524 1284T1487 1278Q1463 1276 1436 1274T1381 1265T1331 1244T1292 1204Q1272 1171 1264 1114T1252 988T1249 845T1245
702Q1243 662 1236 601T1212 471T1165 334T1087 210T968 121T801 86Q707 86 630 114T492 193T387 314T315 469Q298 520 288 583T271 717T261 861T256 1008Q254 1071 250 1122T237 1212T213 1277T172 1319Q144 1336 115 1343T39 1350Q0 1350 0 1378Q0 1401 33 1407Q77
1414 121 1420T213 1433T310 1448T414 1470Q511 1494 584 1519T709 1566T795 1600T848 1614ZM699 2064Q726 2064 749 2056T791 2032T819 1991T830 1933Q830 1894 819 1864T790 1814T746 1783T691 1773Q632 1773 595 1810T557 1919Q557 1954 568 1981T598 2026T644
2054T699 2064ZM1049 2015Q1079 2015 1099 2005T1133 1980T1151 1945T1157 1908Q1157 1853 1129 1816T1037 1779Q1009 1779 990 1788T958 1812T940 1849T934 1896Q934 1921 942 1942T964 1980T1000 2005T1049 2015Z" />
<glyph unicode="&#xdd;" glyph-name="Yacute" horiz-adv-x="1632" d="M733 1739Q733 1729 720 1721T684 1703T634 1682T575 1655Q555 1645 543 1630T530 1591Q530 1566 552 1528T607 1448T675 1365T737 1292Q765 1258 804 1215T883 1133T957 1068T1010 1040Q1020
1039 1036 1051T1073 1084T1115 1129T1158 1182T1200 1234T1235 1278Q1256 1304 1283 1340T1334 1412T1374 1480T1391 1530Q1391 1541 1382 1551T1359 1570T1328 1588T1292 1602Q1274 1608 1262 1616T1249 1636Q1249 1646 1256 1650T1274 1655Q1289 1655 1309 1648T1359
1631T1429 1610T1524 1591Q1569 1585 1605 1582T1671 1577T1724 1575T1769 1575Q1817 1575 1817 1554Q1817 1530 1763 1530Q1752 1530 1730 1531T1679 1532Q1658 1532 1634 1532T1585 1528T1537 1517T1493 1497Q1469 1482 1443 1455T1390 1394T1333 1322T1276 1245Q1247
1207 1221 1171T1172 1103T1131 1043T1100 995Q1078 961 1064 933T1042 877T1030 816T1026 743Q1026 688 1027 624T1032 494T1038 364T1045 242T1052 140T1059 66Q1068 -17 1088 -64T1141 -137Q1155 -149 1174 -159T1210 -179T1239 -199T1251 -221Q1251 -229 1246
-234T1225 -240Q1203 -240 1168 -231T1085 -209T981 -183T860 -162Q804 -156 754 -154T662 -152Q615 -152 582 -153T532 -154Q505 -154 489 -148T473 -127Q473 -110 491 -103T538 -91T604 -81T680 -63Q706 -55 723 -41T752 -8T770 33T782 80Q788 107 795 159T809
279T820 423T825 575Q825 628 823 675T809 768Q802 798 779 843T722 942T645 1055T557 1174T466 1290T380 1392T306 1471T254 1520Q230 1538 209 1550T167 1570T122 1584T68 1595Q20 1601 20 1624Q20 1636 30 1642T72 1649Q124 1649 194 1651T369 1669Q451 1681
508 1696T606 1724T671 1746T713 1755Q733 1755 733 1739ZM1272 2190Q1292 2190 1301 2178T1311 2145Q1311 2127 1300 2100T1270 2040T1230 1973T1184 1907Q1142 1850 1105 1813T1051 1776Q1041 1776 1039 1781T1036 1797Q1036 1811 1046 1845T1073 1923T1114 2014T1163
2100T1217 2164T1272 2190Z" />
<glyph unicode="&#xde;" glyph-name="Thorn" horiz-adv-x="983" d="M436 1507Q445 1495 462 1489T502 1479T553 1473T614 1468Q647 1464 690 1458T778 1436T868 1396T946 1329T1002 1227T1024 1083Q1024 991 995 920T913 801T791 727T639 702Q600 702 564 706T498
717T445 730T410 741Q410 721 410 677T410 577T410 457T410 337T411 233T412 164Q413 126 416 91T426 25T449 -30T492 -72Q513 -84 537 -90T578 -102Q582 -103 588 -105T601 -111T611 -120T616 -133Q616 -141 610 -145T586 -150Q567 -150 539 -145T476 -134T403
-122T324 -117Q282 -117 241 -120T165 -127T107 -134T76 -137Q57 -137 57 -123Q57 -114 63 -107T78 -94T98 -81T119 -66Q147 -44 170 -11T203 86Q206 107 209 154T216 262T222 392T228 527T233 650T236 745Q238 830 241 937T247 1160T252 1390T254 1604Q254 1693
243 1740T205 1806Q187 1818 163 1822T118 1830T83 1840T68 1862Q68 1871 74 1878T98 1886Q119 1886 141 1885T192 1883T254 1881T332 1880Q380 1880 419 1884T489 1893T544 1903T586 1907Q635 1907 635 1876Q635 1859 621 1852T586 1845Q532 1845 502 1830T455
1776Q449 1763 443 1740T433 1690T427 1634T424 1579Q424 1554 427 1536T436 1507ZM535 776Q599 776 643 801T713 868T750 962T762 1067Q762 1137 750 1201T712 1314T644 1393T545 1423Q490 1423 460 1402T416 1345T398 1261T395 1157Q395 1094 397 1031T401 914Q404
852 408 795Q425 789 445 785Q462 781 485 779T535 776Z" />
<glyph unicode="&#xdf;" glyph-name="germandbls" horiz-adv-x="1212" d="M348 1987Q423 1987 490 1964T607 1893T686 1769T715 1591Q715 1507 691 1439T631 1316T550 1223T467 1156T397 1113T356 1094Q375 1096 408 1099T487 1102Q540 1102 612 1094T761 1062T913
992T1047 873T1143 692T1180 436Q1180 303 1149 206T1062 46T930 -49T762 -80Q708 -80 667 -67T598 -30T556 24T541 90Q541 115 547 138T567 180T599 210T645 221Q681 221 703 205T740 166T766 115T790 64T824 24T879 8Q936 8 968 65T1001 227Q1001 298 984 383T933
556T850 724T737 870Q672 934 609 969T488 1021T385 1041T307 1044Q260 1044 260 1059Q260 1066 270 1076T296 1098T331 1125T367 1157Q398 1186 430 1226T488 1322T530 1449T547 1614Q547 1679 536 1739T498 1844T430 1917T328 1944Q273 1944 234 1921T171 1858T135
1761T123 1638Q123 1555 136 1450T172 1228T223 990T282 754T341 537T393 358Q421 265 441 201T474 96T493 32T500 2Q500 -4 482 -7T429 -17T343 -39T227 -82Q179 -103 138 -127T63 -173T3 -208T-43 -223Q-52 -223 -55 -219T-59 -209Q-59 -194 -33 -174Q-14 -159
12 -137T64 -89T115 -40T154 4Q172 29 184 57T197 131Q197 175 183 259T149 456T104 699T59 969T24 1243T10 1501Q10 1605 30 1694T91 1848T197 1950T348 1987Z" />
<glyph unicode="&#xe0;" glyph-name="agrave" horiz-adv-x="1081" d="M309 721Q272 721 240 735T183 777T145 847T131 946Q131 1008 148 1067T203 1173T297 1248T436 1276Q503 1276 554 1259T645 1212T711 1143T758 1062T789 976T811 893Q816 871 823 831T840
737T859 624T879 501T898 381T916 274T929 191T938 143Q944 112 951 80T970 22T999 -22T1042 -39Q1057 -39 1068 -32T1085 -13T1095 14T1098 45Q1098 64 1097 83T1096 117Q1096 132 1100 143T1116 154Q1127 154 1133 142T1143 113T1148 80T1149 55Q1149 20 1143
-24T1118 -109Q1100 -151 1058 -178T961 -205Q913 -205 879 -191T820 -156T779 -111T752 -66Q724 -12 710 52T686 176Q671 151 641 114T565 43T461 -15T330 -39Q250 -39 194 -17T101 44T48 134T31 244Q31 306 54 369T129 483T266 566T473 598Q501 598 527 596T575
590T612 584T635 580Q629 666 620 752Q616 788 612 828T602 908T591 988T578 1061Q562 1138 516 1183T397 1229Q358 1229 329 1215T279 1179T248 1130T238 1075Q238 1046 252 1027T286 992T331 964T375 933T410 891T424 829Q424 780 391 751T309 721ZM643 518Q636
521 619 525T577 534T526 542T471 545Q418 545 373 530T294 486T242 412T223 309Q223 256 240 222T285 167T346 139T412 131Q463 131 509 147T590 184T647 225T674 252Q667 319 661 374Q658 398 656 421T651 464T646 498T643 518ZM130 1750Q149 1750 170 1737T214
1702T260 1650T304 1587Q328 1551 350 1517T388 1452T415 1398T425 1355Q425 1344 420 1336T404 1328Q392 1328 370 1342T319 1380T258 1434T196 1496Q172 1520 148 1545T104 1594T72 1642T60 1685Q60 1719 82 1734T130 1750Z" />
<glyph unicode="&#xe1;" glyph-name="aacute" horiz-adv-x="1081" d="M309 721Q272 721 240 735T183 777T145 847T131 946Q131 1008 148 1067T203 1173T297 1248T436 1276Q503 1276 554 1259T645 1212T711 1143T758 1062T789 976T811 893Q816 871 823 831T840
737T859 624T879 501T898 381T916 274T929 191T938 143Q944 112 951 80T970 22T999 -22T1042 -39Q1057 -39 1068 -32T1085 -13T1095 14T1098 45Q1098 64 1097 83T1096 117Q1096 132 1100 143T1116 154Q1127 154 1133 142T1143 113T1148 80T1149 55Q1149 20 1143
-24T1118 -109Q1100 -151 1058 -178T961 -205Q913 -205 879 -191T820 -156T779 -111T752 -66Q724 -12 710 52T686 176Q671 151 641 114T565 43T461 -15T330 -39Q250 -39 194 -17T101 44T48 134T31 244Q31 306 54 369T129 483T266 566T473 598Q501 598 527 596T575
590T612 584T635 580Q629 666 620 752Q616 788 612 828T602 908T591 988T578 1061Q562 1138 516 1183T397 1229Q358 1229 329 1215T279 1179T248 1130T238 1075Q238 1046 252 1027T286 992T331 964T375 933T410 891T424 829Q424 780 391 751T309 721ZM643 518Q636
521 619 525T577 534T526 542T471 545Q418 545 373 530T294 486T242 412T223 309Q223 256 240 222T285 167T346 139T412 131Q463 131 509 147T590 184T647 225T674 252Q667 319 661 374Q658 398 656 421T651 464T646 498T643 518ZM692 1767Q712 1767 721 1755T731
1722Q731 1704 720 1677T690 1617T650 1550T604 1484Q562 1427 525 1390T471 1353Q461 1353 459 1358T456 1374Q456 1388 466 1422T493 1500T534 1591T583 1677T637 1741T692 1767Z" />
<glyph unicode="&#xe2;" glyph-name="acircumflex" horiz-adv-x="1081" d="M309 721Q272 721 240 735T183 777T145 847T131 946Q131 1008 148 1067T203 1173T297 1248T436 1276Q503 1276 554 1259T645 1212T711 1143T758 1062T789 976T811 893Q816 871 823 831T840
737T859 624T879 501T898 381T916 274T929 191T938 143Q944 112 951 80T970 22T999 -22T1042 -39Q1057 -39 1068 -32T1085 -13T1095 14T1098 45Q1098 64 1097 83T1096 117Q1096 132 1100 143T1116 154Q1127 154 1133 142T1143 113T1148 80T1149 55Q1149 20 1143
-24T1118 -109Q1100 -151 1058 -178T961 -205Q913 -205 879 -191T820 -156T779 -111T752 -66Q724 -12 710 52T686 176Q671 151 641 114T565 43T461 -15T330 -39Q250 -39 194 -17T101 44T48 134T31 244Q31 306 54 369T129 483T266 566T473 598Q501 598 527 596T575
590T612 584T635 580Q629 666 620 752Q616 788 612 828T602 908T591 988T578 1061Q562 1138 516 1183T397 1229Q358 1229 329 1215T279 1179T248 1130T238 1075Q238 1046 252 1027T286 992T331 964T375 933T410 891T424 829Q424 780 391 751T309 721ZM643 518Q636
521 619 525T577 534T526 542T471 545Q418 545 373 530T294 486T242 412T223 309Q223 256 240 222T285 167T346 139T412 131Q463 131 509 147T590 184T647 225T674 252Q667 319 661 374Q658 398 656 421T651 464T646 498T643 518ZM744 1998Q754 1998 763 1985T792
1947Q816 1914 835 1891T871 1848T907 1810T947 1771Q995 1726 1031 1700T1093 1656T1131 1627T1144 1599Q1144 1588 1135 1582T1113 1576Q1094 1576 1069 1583T1017 1602T961 1630T908 1664Q864 1698 832 1727T779 1779T744 1813T724 1826Q718 1826 704 1812T669
1774T617 1719T550 1654Q521 1628 494 1605T443 1564T401 1536T370 1525Q367 1525 364 1526T361 1533Q361 1542 386 1567T451 1633T542 1732T642 1863Q660 1891 676 1915T704 1958T727 1987T744 1998Z" />
<glyph unicode="&#xe3;" glyph-name="atilde" horiz-adv-x="1081" d="M309 721Q272 721 240 735T183 777T145 847T131 946Q131 1008 148 1067T203 1173T297 1248T436 1276Q503 1276 554 1259T645 1212T711 1143T758 1062T789 976T811 893Q816 871 823 831T840
737T859 624T879 501T898 381T916 274T929 191T938 143Q944 112 951 80T970 22T999 -22T1042 -39Q1057 -39 1068 -32T1085 -13T1095 14T1098 45Q1098 64 1097 83T1096 117Q1096 132 1100 143T1116 154Q1127 154 1133 142T1143 113T1148 80T1149 55Q1149 20 1143
-24T1118 -109Q1100 -151 1058 -178T961 -205Q913 -205 879 -191T820 -156T779 -111T752 -66Q724 -12 710 52T686 176Q671 151 641 114T565 43T461 -15T330 -39Q250 -39 194 -17T101 44T48 134T31 244Q31 306 54 369T129 483T266 566T473 598Q501 598 527 596T575
590T612 584T635 580Q629 666 620 752Q616 788 612 828T602 908T591 988T578 1061Q562 1138 516 1183T397 1229Q358 1229 329 1215T279 1179T248 1130T238 1075Q238 1046 252 1027T286 992T331 964T375 933T410 891T424 829Q424 780 391 751T309 721ZM643 518Q636
521 619 525T577 534T526 542T471 545Q418 545 373 530T294 486T242 412T223 309Q223 256 240 222T285 167T346 139T412 131Q463 131 509 147T590 184T647 225T674 252Q667 319 661 374Q658 398 656 421T651 464T646 498T643 518ZM387 1635Q418 1635 448 1623T507
1592T566 1552T625 1512T685 1482T747 1469Q773 1469 792 1479T824 1503T846 1526T862 1537Q868 1537 873 1529T878 1500Q878 1465 869 1430T838 1365T784 1318T702 1299Q657 1299 619 1316T546 1358T483 1414T426 1469T375 1512T327 1529Q308 1529 294 1518T269
1490T251 1453T237 1417T225 1389T213 1377Q202 1377 202 1408Q202 1430 211 1468T242 1544T299 1608T387 1635Z" />
<glyph unicode="&#xe4;" glyph-name="adieresis" horiz-adv-x="1081" d="M324 1546Q372 1546 398 1515T424 1440Q424 1405 413 1381T385 1340T346 1317T303 1309Q284 1309 266 1316T233 1336T210 1371T201 1419Q201 1447 211 1470T238 1510T278 1536T324 1546ZM582
1524Q598 1524 614 1519T643 1502T664 1472T672 1430Q672 1405 665 1384T644 1348T612 1324T573 1315Q555 1315 539 1320T509 1338T487 1369T479 1417Q479 1442 487 1461T510 1495T543 1516T582 1524ZM309 721Q272 721 240 735T183 777T145 847T131 946Q131 1008
148 1067T203 1173T297 1248T436 1276Q503 1276 554 1259T645 1212T711 1143T758 1062T789 976T811 893Q816 871 823 831T840 737T859 624T879 501T898 381T916 274T929 191T938 143Q944 112 951 80T970 22T999 -22T1042 -39Q1057 -39 1068 -32T1085 -13T1095 14T1098
45Q1098 64 1097 83T1096 117Q1096 132 1100 143T1116 154Q1127 154 1133 142T1143 113T1148 80T1149 55Q1149 20 1143 -24T1118 -109Q1100 -151 1058 -178T961 -205Q913 -205 879 -191T820 -156T779 -111T752 -66Q724 -12 710 52T686 176Q671 151 641 114T565
43T461 -15T330 -39Q250 -39 194 -17T101 44T48 134T31 244Q31 306 54 369T129 483T266 566T473 598Q501 598 527 596T575 590T612 584T635 580Q629 666 620 752Q616 788 612 828T602 908T591 988T578 1061Q562 1138 516 1183T397 1229Q358 1229 329 1215T279 1179T248
1130T238 1075Q238 1046 252 1027T286 992T331 964T375 933T410 891T424 829Q424 780 391 751T309 721ZM643 518Q636 521 619 525T577 534T526 542T471 545Q418 545 373 530T294 486T242 412T223 309Q223 256 240 222T285 167T346 139T412 131Q463 131 509 147T590
184T647 225T674 252Q667 319 661 374Q658 398 656 421T651 464T646 498T643 518Z" />
<glyph unicode="&#xe5;" glyph-name="aring" horiz-adv-x="1081" d="M309 721Q272 721 240 735T183 777T145 847T131 946Q131 1008 148 1067T203 1173T297 1248T436 1276Q503 1276 554 1259T645 1212T711 1143T758 1062T789 976T811 893Q816 871 823 831T840 737T859
624T879 501T898 381T916 274T929 191T938 143Q944 112 951 80T970 22T999 -22T1042 -39Q1057 -39 1068 -32T1085 -13T1095 14T1098 45Q1098 64 1097 83T1096 117Q1096 132 1100 143T1116 154Q1127 154 1133 142T1143 113T1148 80T1149 55Q1149 20 1143 -24T1118
-109Q1100 -151 1058 -178T961 -205Q913 -205 879 -191T820 -156T779 -111T752 -66Q724 -12 710 52T686 176Q671 151 641 114T565 43T461 -15T330 -39Q250 -39 194 -17T101 44T48 134T31 244Q31 306 54 369T129 483T266 566T473 598Q501 598 527 596T575 590T612
584T635 580Q629 666 620 752Q616 788 612 828T602 908T591 988T578 1061Q562 1138 516 1183T397 1229Q358 1229 329 1215T279 1179T248 1130T238 1075Q238 1046 252 1027T286 992T331 964T375 933T410 891T424 829Q424 780 391 751T309 721ZM643 518Q636 521 619
525T577 534T526 542T471 545Q418 545 373 530T294 486T242 412T223 309Q223 256 240 222T285 167T346 139T412 131Q463 131 509 147T590 184T647 225T674 252Q667 319 661 374Q658 398 656 421T651 464T646 498T643 518ZM496 1875Q553 1875 597 1857T672 1805T717
1725T733 1621Q733 1564 716 1514T668 1428T595 1370T504 1349Q392 1349 327 1416T262 1607Q262 1671 282 1721T336 1805T412 1857T496 1875ZM500 1836Q471 1836 444 1824T396 1789T363 1730T350 1650Q350 1604 364 1572T400 1518T449 1488T504 1478Q545 1478 574
1494T622 1537T649 1595T658 1660Q658 1697 647 1729T616 1785T566 1822T500 1836Z" />
<glyph unicode="&#xe6;" glyph-name="ae" horiz-adv-x="1434" d="M315 1057Q376 1057 422 1033T502 968T557 877T590 772Q631 892 697 987Q725 1027 761 1065T841 1134T939 1183T1055 1202Q1114 1202 1167 1184T1260 1130T1324 1041T1348 918Q1348 801 1306 718T1192
581T1027 502T831 477Q780 477 737 482T664 492Q676 388 713 302T807 155T935 59T1085 25Q1149 25 1195 47T1272 107T1318 193T1333 295Q1333 319 1330 337T1323 370T1316 396T1313 418Q1313 427 1318 430T1329 434Q1338 434 1351 421T1375 381T1395 318T1403 233Q1403
192 1394 146T1366 54T1316 -34T1242 -109T1140 -160T1008 -180Q923 -180 857 -158T742 -101T659 -26T602 52T569 118T555 156Q547 95 528 38T475 -63T394 -133T281 -160Q234 -160 189 -141T109 -84T53 11T31 143Q31 222 53 284T110 395T190 479T278 538T363 578T430
602Q458 611 468 628T479 680Q479 726 473 784T449 895T396 982T307 1018Q278 1018 258 1009T224 984T204 951T197 913Q197 878 211 856T244 815T276 775T291 719Q291 676 263 650T190 623Q141 623 108 660T74 772Q74 839 93 891T146 981T223 1037T315 1057ZM659
557Q675 555 696 553T743 551Q865 551 945 583T1074 666T1141 775T1161 889Q1161 902 1160 922T1152 966T1133 1013T1100 1056T1048 1088T973 1100Q905 1100 848 1064T748 961T683 798T659 582V557ZM330 27Q375 27 409 49T467 109T502 193T514 289Q514 329 511
375T501 462T480 530T444 557Q420 557 392 546T336 515T282 465T236 399Q213 357 201 308T188 201Q188 166 197 135T225 79T269 41T330 27Z" />
<glyph unicode="&#xe7;" glyph-name="ccedilla" horiz-adv-x="897" d="M676 881Q644 881 617 891T569 921T538 973T526 1047Q526 1077 523 1105T508 1155T477 1190T422 1204Q381 1204 341 1179T269 1102T217 975T197 799Q197 677 221 582T292 420T406 318T557
283Q612 283 655 302T728 353T772 428T788 520Q788 571 776 606T749 665T722 706T709 735Q709 750 725 750Q740 750 763 734T809 688T848 613T864 514Q864 429 838 362T764 248T651 174T508 141Q502 112 497 84T492 41Q492 38 501 36T525 29T560 17T602 -2Q661
-31 695 -83T729 -213Q729 -252 715 -295T671 -374T594 -433T481 -457Q420 -457 378 -435T309 -380T270 -313T258 -254Q258 -246 260 -236T270 -225Q279 -225 290 -245T321 -290T369 -335T442 -356Q498 -356 528 -324T559 -240Q559 -202 548 -176T518 -133T480
-107T442 -91T413 -82T401 -72Q401 -66 407 -44T423 7T441 67T457 123Q459 128 460 132T461 141Q366 143 287 181T151 288T63 455T31 678Q31 738 42 797T72 909T116 1009T170 1090Q213 1142 258 1177T349 1234T445 1265T547 1274Q604 1274 654 1258T740 1213T798
1144T819 1053Q819 1005 806 973T772 920T726 890T676 881Z" />
<glyph unicode="&#xe8;" glyph-name="egrave" horiz-adv-x="889" d="M819 530Q833 507 844 468T856 389Q856 316 832 259T763 162T655 101T512 80Q398 80 309 118T158 226T65 390T33 600Q33 703 55 787T115 937T203 1052T309 1133T423 1180T535 1196Q588 1196
645 1182T749 1134T827 1045T858 905Q858 832 837 777T780 682T701 616T610 575T519 553T440 547Q391 547 345 554T272 569Q276 491 296 419T355 291T449 203T582 170Q635 170 673 188T737 236T774 307T786 391Q786 417 783 445T770 498Q764 513 760 526T756 547Q756
567 774 567Q783 567 795 558T819 530ZM268 635Q294 627 327 622T410 616Q468 616 517 638T601 699T656 795T676 920Q676 981 663 1022T627 1089T577 1124T518 1135Q480 1135 436 1112T355 1032T293 879T268 635ZM199 1725Q218 1725 239 1712T283 1677T329 1625T373
1562Q397 1526 419 1492T457 1427T484 1373T494 1330Q494 1319 489 1311T473 1303Q461 1303 439 1317T388 1355T327 1409T265 1471Q241 1495 217 1520T173 1569T141 1617T129 1660Q129 1694 151 1709T199 1725Z" />
<glyph unicode="&#xe9;" glyph-name="eacute" horiz-adv-x="889" d="M819 530Q833 507 844 468T856 389Q856 316 832 259T763 162T655 101T512 80Q398 80 309 118T158 226T65 390T33 600Q33 703 55 787T115 937T203 1052T309 1133T423 1180T535 1196Q588 1196
645 1182T749 1134T827 1045T858 905Q858 832 837 777T780 682T701 616T610 575T519 553T440 547Q391 547 345 554T272 569Q276 491 296 419T355 291T449 203T582 170Q635 170 673 188T737 236T774 307T786 391Q786 417 783 445T770 498Q764 513 760 526T756 547Q756
567 774 567Q783 567 795 558T819 530ZM268 635Q294 627 327 622T410 616Q468 616 517 638T601 699T656 795T676 920Q676 981 663 1022T627 1089T577 1124T518 1135Q480 1135 436 1112T355 1032T293 879T268 635ZM682 1689Q702 1689 711 1677T721 1644Q721 1626
710 1599T680 1539T640 1472T594 1406Q552 1349 515 1312T461 1275Q451 1275 449 1280T446 1296Q446 1310 456 1344T483 1422T524 1513T573 1599T627 1663T682 1689Z" />
<glyph unicode="&#xea;" glyph-name="ecircumflex" horiz-adv-x="889" d="M819 530Q833 507 844 468T856 389Q856 316 832 259T763 162T655 101T512 80Q398 80 309 118T158 226T65 390T33 600Q33 703 55 787T115 937T203 1052T309 1133T423 1180T535 1196Q588
1196 645 1182T749 1134T827 1045T858 905Q858 832 837 777T780 682T701 616T610 575T519 553T440 547Q391 547 345 554T272 569Q276 491 296 419T355 291T449 203T582 170Q635 170 673 188T737 236T774 307T786 391Q786 417 783 445T770 498Q764 513 760 526T756
547Q756 567 774 567Q783 567 795 558T819 530ZM268 635Q294 627 327 622T410 616Q468 616 517 638T601 699T656 795T676 920Q676 981 663 1022T627 1089T577 1124T518 1135Q480 1135 436 1112T355 1032T293 879T268 635ZM730 1800Q740 1800 749 1787T778 1749Q802
1716 821 1693T857 1650T893 1612T933 1573Q981 1528 1017 1502T1079 1458T1117 1429T1130 1401Q1130 1390 1121 1384T1099 1378Q1080 1378 1055 1385T1003 1404T947 1432T894 1466Q850 1500 818 1529T765 1581T730 1615T710 1628Q704 1628 690 1614T655 1576T603
1521T536 1456Q507 1430 480 1407T429 1366T387 1338T356 1327Q353 1327 350 1328T347 1335Q347 1344 372 1369T437 1435T528 1534T628 1665Q646 1693 662 1717T690 1760T713 1789T730 1800Z" />
<glyph unicode="&#xeb;" glyph-name="edieresis" horiz-adv-x="889" d="M819 530Q833 507 844 468T856 389Q856 316 832 259T763 162T655 101T512 80Q398 80 309 118T158 226T65 390T33 600Q33 703 55 787T115 937T203 1052T309 1133T423 1180T535 1196Q588 1196
645 1182T749 1134T827 1045T858 905Q858 832 837 777T780 682T701 616T610 575T519 553T440 547Q391 547 345 554T272 569Q276 491 296 419T355 291T449 203T582 170Q635 170 673 188T737 236T774 307T786 391Q786 417 783 445T770 498Q764 513 760 526T756 547Q756
567 774 567Q783 567 795 558T819 530ZM268 635Q294 627 327 622T410 616Q468 616 517 638T601 699T656 795T676 920Q676 981 663 1022T627 1089T577 1124T518 1135Q480 1135 436 1112T355 1032T293 879T268 635ZM381 1573Q429 1573 455 1542T481 1467Q481 1432
470 1408T442 1367T403 1344T360 1336Q341 1336 323 1343T290 1363T267 1398T258 1446Q258 1474 268 1497T295 1537T335 1563T381 1573ZM639 1551Q655 1551 671 1546T700 1529T721 1499T729 1457Q729 1432 722 1411T701 1375T669 1351T630 1342Q612 1342 596 1347T566
1365T544 1396T536 1444Q536 1469 544 1488T567 1522T600 1543T639 1551Z" />
<glyph unicode="&#xec;" glyph-name="igrave" horiz-adv-x="618" d="M459 1276Q469 1276 469 1253Q469 1238 466 1204T457 1130Q449 1068 441 993T426 838T412 680T400 536T392 419T389 344Q389 313 393 293T403 260T416 239T432 225Q441 219 454 214T482 205T512
197T541 193Q562 189 575 187T588 174Q588 154 545 154Q515 154 485 158T424 169T358 179T285 184Q249 184 220 182T167 177T122 172T80 170Q63 170 49 174T35 193Q35 207 50 212T82 221Q102 225 121 230T155 245T181 273T195 319Q199 374 201 431T204 543T205
651T205 750Q205 805 205 850T203 928Q201 979 192 1008T165 1051T120 1069T55 1077Q44 1079 38 1084T31 1100Q31 1119 61 1122Q76 1123 99 1125T152 1133T219 1147T295 1174Q339 1192 367 1210T414 1242T442 1266T459 1276ZM-9 1836Q10 1836 31 1823T75 1788T121
1736T165 1673Q189 1637 211 1603T249 1538T276 1484T286 1441Q286 1430 281 1422T265 1414Q253 1414 231 1428T180 1466T119 1520T57 1582Q33 1606 9 1631T-35 1680T-67 1728T-79 1771Q-79 1805 -57 1820T-9 1836Z" />
<glyph unicode="&#xed;" glyph-name="iacute" horiz-adv-x="618" d="M459 1276Q469 1276 469 1253Q469 1238 466 1204T457 1130Q449 1068 441 993T426 838T412 680T400 536T392 419T389 344Q389 313 393 293T403 260T416 239T432 225Q441 219 454 214T482 205T512
197T541 193Q562 189 575 187T588 174Q588 154 545 154Q515 154 485 158T424 169T358 179T285 184Q249 184 220 182T167 177T122 172T80 170Q63 170 49 174T35 193Q35 207 50 212T82 221Q102 225 121 230T155 245T181 273T195 319Q199 374 201 431T204 543T205
651T205 750Q205 805 205 850T203 928Q201 979 192 1008T165 1051T120 1069T55 1077Q44 1079 38 1084T31 1100Q31 1119 61 1122Q76 1123 99 1125T152 1133T219 1147T295 1174Q339 1192 367 1210T414 1242T442 1266T459 1276ZM473 1789Q493 1789 502 1777T512 1744Q512
1726 501 1699T471 1639T431 1572T385 1506Q343 1449 306 1412T252 1375Q242 1375 240 1380T237 1396Q237 1410 247 1444T274 1522T315 1613T364 1699T418 1763T473 1789Z" />
<glyph unicode="&#xee;" glyph-name="icircumflex" horiz-adv-x="618" d="M459 1276Q469 1276 469 1253Q469 1238 466 1204T457 1130Q449 1068 441 993T426 838T412 680T400 536T392 419T389 344Q389 313 393 293T403 260T416 239T432 225Q441 219 454 214T482
205T512 197T541 193Q562 189 575 187T588 174Q588 154 545 154Q515 154 485 158T424 169T358 179T285 184Q249 184 220 182T167 177T122 172T80 170Q63 170 49 174T35 193Q35 207 50 212T82 221Q102 225 121 230T155 245T181 273T195 319Q199 374 201 431T204
543T205 651T205 750Q205 805 205 850T203 928Q201 979 192 1008T165 1051T120 1069T55 1077Q44 1079 38 1084T31 1100Q31 1119 61 1122Q76 1123 99 1125T152 1133T219 1147T295 1174Q339 1192 367 1210T414 1242T442 1266T459 1276ZM304 1789Q314 1789 323 1776T352
1738Q376 1705 395 1682T431 1639T467 1601T507 1562Q555 1517 591 1491T653 1447T691 1418T704 1390Q704 1379 695 1373T673 1367Q654 1367 629 1374T577 1393T521 1421T468 1455Q424 1489 392 1518T339 1570T304 1604T284 1617Q278 1617 264 1603T229 1565T177
1510T110 1445Q81 1419 54 1396T3 1355T-39 1327T-70 1316Q-73 1316 -76 1317T-79 1324Q-79 1333 -54 1358T11 1424T102 1523T202 1654Q220 1682 236 1706T264 1749T287 1778T304 1789Z" />
<glyph unicode="&#xef;" glyph-name="idieresis" horiz-adv-x="618" d="M459 1276Q469 1276 469 1253Q469 1238 466 1204T457 1130Q449 1068 441 993T426 838T412 680T400 536T392 419T389 344Q389 313 393 293T403 260T416 239T432 225Q441 219 454 214T482 205T512
197T541 193Q562 189 575 187T588 174Q588 154 545 154Q515 154 485 158T424 169T358 179T285 184Q249 184 220 182T167 177T122 172T80 170Q63 170 49 174T35 193Q35 207 50 212T82 221Q102 225 121 230T155 245T181 273T195 319Q199 374 201 431T204 543T205
651T205 750Q205 805 205 850T203 928Q201 979 192 1008T165 1051T120 1069T55 1077Q44 1079 38 1084T31 1100Q31 1119 61 1122Q76 1123 99 1125T152 1133T219 1147T295 1174Q339 1192 367 1210T414 1242T442 1266T459 1276ZM468 1622Q516 1622 542 1591T568 1516Q568
1481 557 1457T529 1416T490 1393T447 1385Q428 1385 410 1392T377 1412T354 1447T345 1495Q345 1523 355 1546T382 1586T422 1612T468 1622ZM726 1600Q742 1600 758 1595T787 1578T808 1548T816 1506Q816 1481 809 1460T788 1424T756 1400T717 1391Q699 1391 683
1396T653 1414T631 1445T623 1493Q623 1518 631 1537T654 1571T687 1592T726 1600Z" />
<glyph unicode="&#xf0;" glyph-name="eth" horiz-adv-x="975" d="M662 1620Q670 1620 670 1610Q670 1598 657 1571T623 1510T580 1440T537 1374Q644 1318 721 1220T847 991T919 707T942 385Q942 312 934 239T907 100T859 -23T787 -121T690 -187T563 -211Q452 -211
367 -173T222 -68T133 88T102 279Q102 372 131 451T210 587T330 677T479 709Q524 709 561 701T628 680T677 657T707 639Q708 653 710 667Q711 679 712 693T713 721Q713 762 709 811T695 912T667 1018T623 1121T561 1213T477 1288L360 1106Q331 1061 315 1036T287
1010Q282 1010 278 1013T274 1024Q274 1037 288 1065T327 1132T381 1217T442 1311Q407 1329 365 1340T272 1352Q195 1352 135 1328T29 1272Q-6 1249 -33 1225T-82 1182T-119 1151T-145 1139Q-155 1139 -159 1144T-164 1157Q-164 1173 -147 1200T-99 1258T-26 1320T67
1378T174 1420T291 1436Q351 1436 398 1425T496 1393Q530 1445 559 1489T610 1565Q629 1591 640 1605T662 1620ZM498 649Q450 649 415 625T356 560T321 467T309 358Q309 262 331 176T391 24T481 -80T596 -119Q646 -119 681 -97T738 -39T771 46T782 145Q782 202
776 262T757 378T721 483T668 569T594 627T498 649Z" />
<glyph unicode="&#xf1;" glyph-name="ntilde" horiz-adv-x="1198" d="M344 1288Q352 1288 360 1263T376 1196T392 1102T408 993L444 741Q449 774 461 817T495 906T546 996T615 1075T704 1131T815 1153Q890 1153 945 1125T1036 1046T1089 925T1106 772Q1106 697
1098 622T1080 473T1062 332T1053 205Q1053 170 1059 144T1077 96Q1091 75 1111 60T1150 31T1182 4T1196 -25Q1196 -34 1191 -40T1174 -47Q1156 -47 1135 -34T1082 0T1006 44T899 88Q852 104 805 113T694 125Q659 128 659 145Q659 164 682 164Q696 164 721 164T772
166Q812 169 838 190T877 270Q881 293 885 328T892 404T897 487T899 567Q899 601 898 645T892 738T875 832T841 914T785 972T702 995Q660 995 626 974T564 916T518 827T489 715Q478 653 475 588T471 457Q471 402 475 352T486 259T503 183T526 131Q545 105 567 92T604
74Q624 68 632 64T641 51Q641 45 632 40T600 35Q579 35 554 38T502 46T446 53T389 57Q361 57 332 55T277 51T228 47T193 45Q154 45 154 70Q154 79 160 85T184 94Q198 95 209 96T231 97T255 99T285 102Q317 107 328 125T340 176Q340 231 331 310T305 484T267 685T219
903Q207 960 192 988T147 1016Q132 1016 116 1011T85 999T55 987T29 981Q10 981 10 997Q10 1010 20 1015T43 1026Q71 1037 103 1054T174 1100Q211 1129 240 1162T290 1223T324 1269T344 1288ZM615 1670Q646 1670 676 1658T735 1627T794 1587T853 1547T913 1517T975
1504Q1001 1504 1020 1514T1052 1538T1074 1561T1090 1572Q1096 1572 1101 1564T1106 1535Q1106 1500 1097 1465T1066 1400T1012 1353T930 1334Q885 1334 847 1351T774 1393T711 1449T654 1504T603 1547T555 1564Q536 1564 522 1553T497 1525T479 1488T465 1452T453
1424T441 1412Q430 1412 430 1443Q430 1465 439 1503T470 1579T527 1643T615 1670Z" />
<glyph unicode="&#xf2;" glyph-name="ograve" horiz-adv-x="821" d="M142 1694Q161 1694 182 1681T226 1646T272 1594T316 1531Q340 1495 362 1461T400 1396T427 1342T437 1299Q437 1288 432 1280T416 1272Q404 1272 382 1286T331 1324T270 1378T208 1440Q184
1464 160 1489T116 1538T84 1586T72 1629Q72 1663 94 1678T142 1694ZM362 1104Q399 1104 399 1083Q399 1072 391 1063T369 1040Q347 1019 322 986T276 908T240 804T225 674Q225 632 232 585T256 499T304 434T383 408Q435 408 469 438T524 516T552 621T561 733Q561
811 540 881T475 1001Q469 1009 461 1016T446 1032T433 1048T428 1067Q428 1082 437 1091T463 1100Q486 1100 512 1097T578 1094Q652 1094 725 1109T864 1150T986 1212T1085 1288Q1127 1328 1159 1373T1215 1463T1250 1551T1262 1632Q1262 1668 1250 1691T1219
1731T1179 1761T1139 1791T1109 1829T1096 1886Q1096 1937 1130 1970T1221 2003Q1248 2003 1275 1994T1324 1961T1360 1900T1374 1806Q1374 1750 1358 1683T1308 1545T1226 1401T1112 1264Q1047 1199 975 1158T834 1092T710 1056T623 1042Q634 1036 662 1015T721
957T774 864T797 735Q797 648 765 577T677 456T549 379T393 352Q319 352 252 374T135 442T55 554T25 713Q25 781 42 836T89 935T154 1010T228 1063T301 1094T362 1104Z" />
<glyph unicode="&#xf3;" glyph-name="oacute" horiz-adv-x="821" d="M680 1689Q700 1689 709 1677T719 1644Q719 1626 708 1599T678 1539T638 1472T592 1406Q550 1349 513 1312T459 1275Q449 1275 447 1280T444 1296Q444 1310 454 1344T481 1422T522 1513T571
1599T625 1663T680 1689ZM362 1104Q399 1104 399 1083Q399 1072 391 1063T369 1040Q347 1019 322 986T276 908T240 804T225 674Q225 632 232 585T256 499T304 434T383 408Q435 408 469 438T524 516T552 621T561 733Q561 811 540 881T475 1001Q469 1009 461 1016T446
1032T433 1048T428 1067Q428 1082 437 1091T463 1100Q486 1100 512 1097T578 1094Q652 1094 725 1109T864 1150T986 1212T1085 1288Q1127 1328 1159 1373T1215 1463T1250 1551T1262 1632Q1262 1668 1250 1691T1219 1731T1179 1761T1139 1791T1109 1829T1096 1886Q1096
1937 1130 1970T1221 2003Q1248 2003 1275 1994T1324 1961T1360 1900T1374 1806Q1374 1750 1358 1683T1308 1545T1226 1401T1112 1264Q1047 1199 975 1158T834 1092T710 1056T623 1042Q634 1036 662 1015T721 957T774 864T797 735Q797 648 765 577T677 456T549
379T393 352Q319 352 252 374T135 442T55 554T25 713Q25 781 42 836T89 935T154 1010T228 1063T301 1094T362 1104Z" />
<glyph unicode="&#xf4;" glyph-name="ocircumflex" horiz-adv-x="821" d="M707 1957Q717 1957 726 1944T755 1906Q779 1873 798 1850T834 1807T870 1769T910 1730Q958 1685 994 1659T1056 1615T1094 1586T1107 1558Q1107 1547 1098 1541T1076 1535Q1057 1535 1032
1542T980 1561T924 1589T871 1623Q827 1657 795 1686T742 1738T707 1772T687 1785Q681 1785 667 1771T632 1733T580 1678T513 1613Q484 1587 457 1564T406 1523T364 1495T333 1484Q330 1484 327 1485T324 1492Q324 1501 349 1526T414 1592T505 1691T605 1822Q623
1850 639 1874T667 1917T690 1946T707 1957ZM362 1104Q399 1104 399 1083Q399 1072 391 1063T369 1040Q347 1019 322 986T276 908T240 804T225 674Q225 632 232 585T256 499T304 434T383 408Q435 408 469 438T524 516T552 621T561 733Q561 811 540 881T475 1001Q469
1009 461 1016T446 1032T433 1048T428 1067Q428 1082 437 1091T463 1100Q486 1100 512 1097T578 1094Q652 1094 725 1109T864 1150T986 1212T1085 1288Q1127 1328 1159 1373T1215 1463T1250 1551T1262 1632Q1262 1668 1250 1691T1219 1731T1179 1761T1139 1791T1109
1829T1096 1886Q1096 1937 1130 1970T1221 2003Q1248 2003 1275 1994T1324 1961T1360 1900T1374 1806Q1374 1750 1358 1683T1308 1545T1226 1401T1112 1264Q1047 1199 975 1158T834 1092T710 1056T623 1042Q634 1036 662 1015T721 957T774 864T797 735Q797 648
765 577T677 456T549 379T393 352Q319 352 252 374T135 442T55 554T25 713Q25 781 42 836T89 935T154 1010T228 1063T301 1094T362 1104Z" />
<glyph unicode="&#xf5;" glyph-name="otilde" horiz-adv-x="821" d="M377 1508Q408 1508 438 1496T497 1465T556 1425T615 1385T675 1355T737 1342Q763 1342 782 1352T814 1376T836 1399T852 1410Q858 1410 863 1402T868 1373Q868 1338 859 1303T828 1238T774
1191T692 1172Q647 1172 609 1189T536 1231T473 1287T416 1342T365 1385T317 1402Q298 1402 284 1391T259 1363T241 1326T227 1290T215 1262T203 1250Q192 1250 192 1281Q192 1303 201 1341T232 1417T289 1481T377 1508ZM362 1104Q399 1104 399 1083Q399 1072 391
1063T369 1040Q347 1019 322 986T276 908T240 804T225 674Q225 632 232 585T256 499T304 434T383 408Q435 408 469 438T524 516T552 621T561 733Q561 811 540 881T475 1001Q469 1009 461 1016T446 1032T433 1048T428 1067Q428 1082 437 1091T463 1100Q486 1100
512 1097T578 1094Q652 1094 725 1109T864 1150T986 1212T1085 1288Q1127 1328 1159 1373T1215 1463T1250 1551T1262 1632Q1262 1668 1250 1691T1219 1731T1179 1761T1139 1791T1109 1829T1096 1886Q1096 1937 1130 1970T1221 2003Q1248 2003 1275 1994T1324 1961T1360
1900T1374 1806Q1374 1750 1358 1683T1308 1545T1226 1401T1112 1264Q1047 1199 975 1158T834 1092T710 1056T623 1042Q634 1036 662 1015T721 957T774 864T797 735Q797 648 765 577T677 456T549 379T393 352Q319 352 252 374T135 442T55 554T25 713Q25 781 42
836T89 935T154 1010T228 1063T301 1094T362 1104Z" />
<glyph unicode="&#xf6;" glyph-name="odieresis" horiz-adv-x="821" d="M362 1104Q399 1104 399 1083Q399 1072 391 1063T369 1040Q347 1019 322 986T276 908T240 804T225 674Q225 632 232 585T256 499T304 434T383 408Q435 408 469 438T524 516T552 621T561 733Q561
811 540 881T475 1001Q469 1009 461 1016T446 1032T433 1048T428 1067Q428 1082 437 1091T463 1100Q486 1100 512 1097T578 1094Q652 1094 725 1109T864 1150T986 1212T1085 1288Q1127 1328 1159 1373T1215 1463T1250 1551T1262 1632Q1262 1668 1250 1691T1219
1731T1179 1761T1139 1791T1109 1829T1096 1886Q1096 1937 1130 1970T1221 2003Q1248 2003 1275 1994T1324 1961T1360 1900T1374 1806Q1374 1750 1358 1683T1308 1545T1226 1401T1112 1264Q1047 1199 975 1158T834 1092T710 1056T623 1042Q634 1036 662 1015T721
957T774 864T797 735Q797 648 765 577T677 456T549 379T393 352Q319 352 252 374T135 442T55 554T25 713Q25 781 42 836T89 935T154 1010T228 1063T301 1094T362 1104ZM355 1735Q403 1735 429 1704T455 1629Q455 1594 444 1570T416 1529T377 1506T334 1498Q315
1498 297 1505T264 1525T241 1560T232 1608Q232 1636 242 1659T269 1699T309 1725T355 1735ZM613 1713Q629 1713 645 1708T674 1691T695 1661T703 1619Q703 1594 696 1573T675 1537T643 1513T604 1504Q586 1504 570 1509T540 1527T518 1558T510 1606Q510 1631 518
1650T541 1684T574 1705T613 1713Z" />
<glyph unicode="&#xf7;" glyph-name="divide" horiz-adv-x="1214" d="M195 621Q229 621 272 621T363 620T457 619T545 618Q572 618 610 619T691 621T780 624T868 627T947 630T1008 631Q1040 631 1061 629T1094 621T1111 608T1116 592Q1116 578 1101 567T1038 555Q987
555 927 556T801 557Q715 557 640 555T492 550T344 545T184 543Q158 543 142 546T116 554T104 565T100 580Q100 588 103 595T117 608T146 617T195 621ZM573 1010Q623 1010 650 980T678 903Q678 881 670 862T645 829T608 807T561 799Q541 799 522 805T486 823T461
855T451 903Q451 928 460 948T486 982T525 1003T573 1010ZM578 436Q627 436 656 409T686 332Q686 306 676 285T649 248T609 224T561 215Q541 215 522 221T488 241T464 273T455 319Q455 375 490 405T578 436Z" />
<glyph unicode="&#xf8;" glyph-name="oslash" horiz-adv-x="813" d="M508 1282Q520 1282 525 1273T530 1247Q530 1226 522 1185T502 1094Q567 1082 618 1051T705 975T759 874T778 754Q778 668 751 595T671 469T544 386T375 356Q358 356 342 357T309 360L260 180Q242
111 226 82T184 53Q158 53 158 86Q158 98 163 126T179 194T202 281T231 383Q186 401 148 430T83 501T41 595T25 711Q25 816 59 890T150 1011T277 1080T420 1102H432Q445 1148 453 1181T467 1229Q476 1260 486 1271T508 1282ZM569 758Q569 789 566 826T553 900T527
970T485 1024L319 406Q332 401 344 398T371 395Q428 395 466 430T527 518T559 636T569 758ZM401 1055Q353 1055 316 1031T254 962T215 852T201 705Q201 635 214 572T256 463Q272 517 288 570T319 673T346 764T367 838L422 1053Q417 1055 412 1055T401 1055Z" />
</font>
</defs>
</svg>
