<?xml version="1.0" standalone="no"?>
<!DOCTYPE svg PUBLIC "-//W3C//DTD SVG 1.1//EN" "http://www.w3.org/Graphics/SVG/1.1/DTD/svg11.dtd">
<svg xmlns="http://www.w3.org/2000/svg">
<defs >
<font id="DonegalOne" horiz-adv-x="1241" ><font-face
    font-family="Donegal One"
    units-per-em="2048"
    panose-1="2 2 6 2 6 3 0 6 7 4"
    ascent="2000"
    descent="-560"
    alphabetic="0" />
<glyph unicode=" " glyph-name="space" horiz-adv-x="684" />
<glyph unicode="!" glyph-name="exclam" horiz-adv-x="683" d="M295 518Q284 710 275 861T252 1134T217 1356T161 1546V1563Q200 1575 238 1583T316 1598T393 1613T471 1636L475 1632Q475 1550 471 1471T460 1311T445 1144T430 962T416 756T407 518H295ZM207 115Q207
144 218 170T249 217T296 250T355 262Q388 262 415 250T461 217T492 170T503 115Q503 86 492 60T462 14T415 -18T355 -30Q323 -30 296 -18T249 14T218 60T207 115Z" />
<glyph unicode="&quot;" glyph-name="quotedbl" horiz-adv-x="1021" d="M284 1010Q263 1202 248 1353T219 1599L223 1635H459L463 1599Q455 1552 448 1490T432 1353T416 1192T397 1010H284V1010ZM680 1010Q659 1202 644 1353T615 1599L619 1635H855L859 1599Q851
1552 844 1490T828 1353T812 1192T793 1010H680V1010Z" />
<glyph unicode="#" glyph-name="numbersign" horiz-adv-x="1364" d="M367 529H50V657H383L427 957H102V1087H441L509 1582H641L572 1087H867L938 1582H1064L996 1087H1314V957H984L938 657H1258V529H923L849 0H721L795 529H496L421 0H291L367 529ZM813 657L854
957H554L509 657H813Z" />
<glyph unicode="$" glyph-name="dollar" horiz-adv-x="1328" d="M193 499L307 497L349 249Q355 227 361 214T373 192T386 180T397 172Q414 163 439 155T497 140T565 126T640 116L644 670Q587 690 530 711T421 760T322 821T243 902T190 1007T170 1143Q170 1239
210 1311T317 1434T470 1514T650 1555V1768H759V1562Q817 1562 862 1558T949 1546T1036 1529T1138 1512L1109 1116H1002L962 1292Q957 1315 951 1330T935 1357T915 1376T890 1391Q836 1412 759 1420L755 874Q810 855 866 835T973 790T1068 733T1144 658T1195 559T1214
431Q1214 324 1179 247T1081 116T933 31T749 -13V-219H640V-22Q626 -23 611 -23T582 -24Q531 -24 475 -14T362 13T251 52T149 100L193 499ZM650 1425Q593 1424 544 1414T461 1383Q450 1369 436 1357T408 1325T386 1279T377 1209Q377 1147 398 1101T455 1021T541
960T646 913L650 1425ZM749 112Q789 113 824 124T888 152T939 188T978 224Q991 241 1001 268T1012 348Q1012 405 992 448T937 525T854 583T753 630L749 112Z" />
<glyph unicode="%" glyph-name="percent" horiz-adv-x="1990" d="M1209 1576H1358L779 -166H636L1209 1576ZM485 579Q384 579 315 614T202 707T140 835T120 980Q120 1057 142 1135T212 1276T331 1378T501 1418Q597 1418 666 1382T780 1288T846 1158T867 1012Q867
935 845 858T776 719T657 618T485 579ZM525 677Q539 677 569 684T626 708Q645 736 657 767T677 832T687 898T690 961Q690 1029 682 1093T650 1208T585 1288T479 1318Q476 1318 460 1317T425 1313T385 1303T353 1286Q333 1258 321 1227T303 1164T294 1099T291 1036Q291
968 302 903T340 788T412 708T525 677ZM1123 381Q1123 458 1145 536T1215 677T1334 779T1504 819Q1600 819 1669 783T1783 689T1849 559T1870 413Q1870 336 1848 259T1779 120T1660 19T1488 -20Q1387 -20 1318 15T1205 108T1143 236T1123 381ZM1294 437Q1294 369
1305 304T1343 189T1415 109T1528 78Q1542 78 1572 85T1629 109Q1667 166 1685 233T1703 362Q1703 430 1693 494T1658 609T1590 689T1482 719Q1479 719 1463 718T1428 714T1388 704T1356 687Q1336 659 1324 628T1306 565T1297 500T1294 437Z" />
<glyph unicode="&amp;" glyph-name="ampersand" horiz-adv-x="1702" d="M130 391Q130 480 162 546T248 662T368 750T507 821Q493 836 483 851Q452 891 427 933T385 1020T358 1113T351 1215Q352 1247 362 1284T393 1358T446 1429T522 1489T625 1531T757 1547Q832
1547 896 1526T1009 1468T1084 1379T1112 1267Q1112 1175 1082 1110T1002 998T890 915T763 847Q763 847 764 846Q807 792 850 740T939 631T1037 514T1149 381L1172 353Q1242 444 1288 547T1346 751Q1350 790 1351 823T1342 880T1305 918T1230 936L1229 1030H1395Q1475
1030 1512 984T1549 861Q1549 800 1529 726T1470 572T1378 412T1256 259Q1297 214 1328 187T1385 146T1437 126T1494 121Q1519 121 1548 123T1618 129L1619 58Q1592 33 1557 14Q1527 -3 1483 -16T1382 -30Q1342 -30 1302 -16T1224 20T1154 67T1096 115Q1000 46
892 4T666 -38Q542 -38 443 -4T275 88T168 224T130 391ZM704 917Q752 946 791 980T859 1054T904 1138T920 1232Q920 1289 904 1330T862 1397T804 1437T739 1450Q686 1450 650 1434T589 1390T554 1327T541 1255Q539 1205 552 1161T589 1075T642 994T704 917ZM354
428Q354 337 393 275T494 176T627 122T766 106Q829 106 893 131T1017 201Q998 224 968 260T902 341T823 435T738 538T653 641T573 738Q534 711 495 678T425 607T374 524T354 428Z" />
<glyph unicode="&apos;" glyph-name="quotesingle" horiz-adv-x="683" d="M284 1010Q263 1202 248 1353T219 1599L223 1635H459L463 1599Q455 1552 448 1490T432 1353T416 1192T397 1010H284V1010Z" />
<glyph unicode="(" glyph-name="parenleft" horiz-adv-x="853" d="M225 689Q225 819 246 939T304 1167T389 1372T489 1548T596 1694T700 1806L773 1745Q738 1690 698 1625T616 1484T537 1321T470 1136T423 928T405 697Q405 506 436 356T517 87T631 -120T758 -276L633
-394Q561 -328 488 -233T357 -7T262 297T225 689Z" />
<glyph unicode=")" glyph-name="parenright" horiz-adv-x="853" d="M628 723Q628 593 607 473T549 245T464 40T364 -136T257 -282T153 -394L80 -333Q115 -278 155 -213T237 -72T316 91T383 276T430 484T448 715Q448 906 417 1056T336 1325T222 1532T95 1688L220
1806Q292 1740 365 1645T496 1419T591 1115T628 723Z" />
<glyph unicode="*" glyph-name="asterisk" horiz-adv-x="1303" d="M194 1214L288 1376L604 1147L564 1536H753L710 1147L1028 1376L1123 1213L764 1055L1122 895L1027 732L710 963L764 1055L710 1147H604L551 1055L194 1214ZM192 896L551 1055L604 963L286 733L192
896ZM604 963H710L751 575H563L604 963Z" />
<glyph unicode="+" glyph-name="plus" horiz-adv-x="1193" d="M515 539H171V702H515V1057H678V702H1021V539H678V173H515V539Z" />
<glyph unicode="," glyph-name="comma" horiz-adv-x="576" d="M148 -26Q143 21 139 59Q137 75 136 90T133 118T132 137T131 146Q132 147 144 157T179 179T231 200T296 210Q332 210 361 197T412 161T444 108T456 41Q456 -14 445 -64T414 -159T372 -242T323 -313Q265
-388 191 -447L110 -380Q129 -356 156 -326T207 -260T249 -185T266 -102Q266 -64 248 -48T207 -26Q181 -21 148 -26Z" />
<glyph unicode="-" glyph-name="hyphen" horiz-adv-x="1023" d="M191 702H832V539H191V702Z" />
<glyph unicode="." glyph-name="period" horiz-adv-x="576" d="M140 115Q140 144 151 170T182 217T229 250T288 262Q321 262 348 250T394 217T425 170T436 115Q436 86 425 60T395 14T348 -18T288 -30Q256 -30 229 -18T182 14T151 60T140 115Z" />
<glyph unicode="/" glyph-name="slash" horiz-adv-x="849" d="M591 1672H730L251 -166H118L591 1672Z" />
<glyph unicode="0" glyph-name="zero" horiz-adv-x="1362" d="M133 650Q133 740 147 829T190 999T264 1150T371 1271T513 1352T692 1381Q789 1381 866 1355T1003 1281T1106 1170T1176 1031T1216 872T1229 703Q1229 613 1215 525T1172 356T1098 207T991 88T848
9T668 -20Q567 -20 488 6T350 78T249 187T182 324T145 482T133 650ZM728 127Q739 127 758 130T800 139T847 155T895 179Q924 227 947 282T988 394T1014 508T1023 617Q1023 695 1015 770T990 914T944 1040T876 1140T782 1206T659 1230Q653 1230 628 1229T571 1222T506
1206T453 1177Q424 1129 401 1075T363 964T339 851T330 743Q330 626 352 515T422 318T545 180T728 127Z" />
<glyph unicode="1" glyph-name="one" horiz-adv-x="883" d="M151 82Q206 99 249 111T321 144T366 199T382 292L384 1023Q384 1076 362 1100T305 1131T224 1137T131 1134V1206Q205 1231 280 1262Q344 1288 418 1323T559 1397L609 1376L593 1092V137L803 82V0H151V82Z" />
<glyph unicode="2" glyph-name="two" horiz-adv-x="1193" d="M135 0Q131 19 127 37Q124 53 122 69T118 98Q171 147 240 209T384 342T529 493T657 655T748 823T783 991Q783 1046 770 1090T736 1166T693 1216T651 1239Q625 1245 593 1248T524 1249T450 1239T373
1215Q362 1210 352 1183T332 1115T311 1026T286 931H166L156 1294Q201 1313 253 1329T360 1357T473 1375T588 1381Q673 1381 751 1363T889 1305T983 1198T1019 1033Q1019 959 1001 894T950 769T872 650T774 533Q723 475 666 419T552 312T446 216T358 132L887 185Q888
187 890 192T902 217T928 275T976 383L1082 385L1065 -24L908 0H135V0Z" />
<glyph unicode="3" glyph-name="three" horiz-adv-x="1046" d="M127 0Q250 0 356 24T540 94T664 209T709 365Q709 443 685 495T618 577T513 621T378 634Q365 634 348 633T312 629T277 624T246 618L267 757Q333 767 403 793T531 864T626 972T663 1119Q663 1158
646 1185T603 1228T547 1252T489 1260Q447 1260 407 1252T326 1222Q315 1216 305 1195T284 1140T261 1064T235 975H135V1301Q168 1319 212 1333T307 1358T413 1375T523 1381Q595 1381 663 1365T784 1314T869 1226T902 1099Q902 1056 886 1018T843 947T782 885T712
833T643 792T583 762V742Q655 744 710 731T805 694T873 638T916 571T940 498T947 429Q947 349 921 277T845 144T727 35T573 -48T390 -101T185 -120Q170 -120 156 -120T127 -118V0V0Z" />
<glyph unicode="4" glyph-name="four" horiz-adv-x="1189" d="M54 445Q138 565 231 688T424 935T625 1180T830 1420L899 1388V472Q962 475 1016 485T1119 517L1104 346H901V-14L689 -61L690 346H54V445ZM689 475V1065Q634 995 577 921T465 772T357 622T261 475H689Z" />
<glyph unicode="5" glyph-name="five" horiz-adv-x="1043" d="M129 0Q190 3 256 16T386 53T508 114T609 200T679 312T705 451Q705 503 687 549T634 632T551 697T440 739Q391 751 341 756T248 764T176 770T139 779Q131 787 128 806T132 857L267 1395Q329 1389 397
1387T533 1387T662 1394T774 1407Q798 1415 815 1428T845 1456T869 1491T894 1530L971 1527L897 1210H378Q364 1168 352 1126T329 1047T312 982T302 941Q298 924 309 916T352 907Q635 907 777 803T920 479Q920 377 873 277T728 95T485 -43T142 -111L129 0V0Z" />
<glyph unicode="6" glyph-name="six" horiz-adv-x="1193" d="M418 201Q454 147 504 115T635 84Q703 85 750 110T828 180T871 287T885 426Q885 460 879 504T862 593T836 676T804 735Q782 755 743 767T654 779Q624 779 593 774T536 763T491 748T462 734V845Q487
855 521 868T594 894T672 914T748 922Q828 922 892 884T1002 785T1071 646T1096 488Q1096 426 1081 363T1036 243T964 135T869 49T752 -9T616 -30Q531 -30 461 -7T336 55T241 147T174 258T134 379T121 500Q121 666 175 817T330 1094T578 1319T911 1478L946 1374Q820
1321 710 1238T518 1048T388 813T340 539Q340 498 344 453T357 362T381 276T418 201Z" />
<glyph unicode="7" glyph-name="seven" horiz-adv-x="1043" d="M325 44Q344 118 374 206T442 392T525 592T621 800T726 1006T835 1204Q820 1195 786 1191T708 1184T611 1182T505 1181T401 1180T309 1174Q284 1174 266 1159T233 1120T206 1070T181 1020L94 1021L152
1371H860Q879 1371 894 1371T924 1372T953 1374T985 1376L1028 1306Q963 1204 905 1086T797 844T705 597T630 363T571 158T531 0H325V44Z" />
<glyph unicode="8" glyph-name="eight" horiz-adv-x="1194" d="M152 302Q152 371 180 425T254 523T356 600T467 659Q410 690 361 725T276 804T220 900T200 1017Q200 1098 239 1165T342 1280T482 1354T634 1381Q712 1381 786 1366T918 1314T1011 1220T1047 1074Q1047
1004 1023 952T957 858T860 783T743 714Q803 689 864 655T974 577T1054 478T1085 355Q1085 265 1044 194T934 73T779 -3T601 -30Q512 -30 431 -10T288 51T189 154T152 302ZM654 773Q702 796 739 829T801 903T840 986T853 1071Q853 1113 839 1150T797 1214T724 1257T619
1273Q593 1273 573 1271T537 1264T506 1254T477 1242Q442 1217 418 1178T393 1080Q393 1023 413 974T469 886T552 818T654 773ZM348 324Q348 260 369 215T430 140T525 96T650 82Q716 82 769 102T855 158Q869 182 880 215T891 279Q891 343 858 391T776 478T668 546T560
600Q528 581 491 559T422 506T369 431T348 324Z" />
<glyph unicode="9" glyph-name="nine" horiz-adv-x="1193" d="M301 -20Q427 33 532 118T714 314T834 556T877 832Q877 872 873 914T860 998T836 1078T799 1150Q763 1204 713 1236T582 1267Q514 1265 467 1244T389 1181T346 1081T332 945Q332 905 338 859T355 770T381
691T413 636Q438 613 479 603T564 592Q595 592 625 598T682 613T727 631T755 648V537Q725 524 690 509T618 481T542 458T469 449Q389 449 325 483T215 577T146 715T121 883Q121 977 155 1066T253 1226T404 1338T601 1381Q686 1381 756 1360T881 1301T976 1214T1043
1108T1083 990T1096 871Q1096 704 1047 551T902 268T664 38T336 -124L301 -20V-20Z" />
<glyph unicode=":" glyph-name="colon" horiz-adv-x="576" d="M140 115Q140 144 151 170T182 217T229 250T288 262Q321 262 348 250T394 217T425 170T436 115Q436 86 425 60T395 14T348 -18T288 -30Q256 -30 229 -18T182 14T151 60T140 115ZM140 819Q140 848 151
874T182 921T229 954T288 966Q321 966 348 954T394 921T425 874T436 819Q436 790 425 764T395 718T348 686T288 674Q256 674 229 686T182 718T151 764T140 819Z" />
<glyph unicode=";" glyph-name="semicolon" horiz-adv-x="576" d="M140 819Q140 848 151 874T182 921T229 954T288 966Q321 966 348 954T394 921T425 874T436 819Q436 790 425 764T395 718T348 686T288 674Q256 674 229 686T182 718T151 764T140 819ZM148 -26Q143
21 139 59Q137 75 136 90T133 118T132 137T131 146Q132 147 144 157T179 179T231 200T296 210Q332 210 361 197T412 161T444 108T456 41Q456 -14 445 -64T414 -159T372 -242T323 -313Q265 -388 191 -447L110 -380Q129 -356 156 -326T207 -260T249 -185T266 -102Q266
-64 248 -48T207 -26Q181 -21 148 -26Z" />
<glyph unicode="&lt;" glyph-name="less" horiz-adv-x="1362" d="M151 634L1196 1098V965L284 568L1196 171V37L151 502V634Z" />
<glyph unicode="=" glyph-name="equal" horiz-adv-x="1195" d="M158 899H1037V777H158V899ZM158 464H1037V341H158V464Z" />
<glyph unicode="&gt;" glyph-name="greater" horiz-adv-x="1362" d="M1211 634L166 1098V965L1078 568L166 171V37L1211 502V634Z" />
<glyph unicode="?" glyph-name="question" horiz-adv-x="1126" d="M622 480Q573 495 531 512T458 554T408 614T390 701Q390 731 402 762T434 826Q458 860 493 902T569 993T648 1091T719 1191T770 1287T790 1373Q790 1417 767 1458T705 1529T613 1569T503 1563Q462
1543 422 1521T344 1477T275 1435T218 1396L156 1490Q178 1508 206 1533T267 1584T332 1636T398 1682Q467 1708 529 1721T640 1735Q710 1735 776 1711T895 1643T980 1536T1012 1394Q1012 1345 986 1291T922 1183T841 1083T761 1002Q731 974 699 939T639 867T594
796T576 737Q576 718 584 699T614 667T677 651T782 660L813 580L622 480ZM449 115Q449 144 460 170T491 217T538 250T597 262Q630 262 657 250T703 217T734 170T745 115Q745 86 734 60T704 14T657 -18T597 -30Q565 -30 538 -18T491 14T460 60T449 115Z" />
<glyph unicode="@" glyph-name="at" horiz-adv-x="1830" d="M123 558Q123 696 157 819T254 1046T405 1234T600 1376T829 1465T1085 1497Q1230 1497 1360 1463T1589 1354T1746 1163T1806 879Q1807 748 1766 633T1652 428T1478 283T1257 215Q1236 213 1220 213T1190
211T1159 210T1121 210Q1086 210 1070 224T1051 258Q1048 280 1049 299T1053 337T1062 375T1074 418Q1054 402 1023 380T954 333T876 285T800 243T735 213T691 201Q650 201 620 225T569 286T539 370T529 461Q530 551 550 636T608 796T696 934T808 1042T939 1113T1084
1138Q1103 1138 1126 1132T1173 1116Q1188 1109 1204 1101T1237 1088L1297 1151L1389 1137Q1366 1036 1343 948T1300 774T1264 600T1236 410Q1234 391 1241 380T1259 362T1283 353T1308 350Q1403 350 1471 395T1583 512T1647 676T1668 859Q1668 988 1622 1089T1495
1260T1309 1366T1083 1403Q967 1403 862 1374T667 1291T505 1163T381 1000T303 810T275 601Q275 427 327 302T472 97T696 -21T983 -59Q1087 -59 1191 -44T1393 6L1399 -76Q1284 -130 1158 -153T904 -176Q796 -176 696 -157T509 -97T351 3T229 145T151 330T123 558ZM707
527Q707 495 712 472T729 434T761 412T813 405Q837 405 874 419T949 455T1021 499T1070 538Q1079 582 1086 614T1100 671T1112 719T1124 768T1136 826T1151 903Q1129 927 1110 945T1067 978Q1015 1016 969 1009T882 965T810 870T755 750T720 627T707 527Z" />
<glyph unicode="A" glyph-name="A" horiz-adv-x="1535" d="M-42 82Q9 96 49 107T119 138L630 1424L543 1456L542 1506Q585 1516 614 1523T672 1537T733 1554T817 1578Q830 1543 841 1516T867 1458T900 1384T947 1276T1014 1117T1110 887T1240 568T1413 141L1402
137L1568 82V0H972V82Q1007 91 1036 99T1087 117T1127 140T1155 174Q1138 219 1107 299T1025 510H425L287 129L490 82V0H-42V82ZM978 631L713 1297Q701 1274 688 1235L469 631H978Z" />
<glyph unicode="B" glyph-name="B" horiz-adv-x="1374" d="M110 78Q160 92 192 103T242 135T268 188T275 279V1397L110 1451V1530H313Q355 1530 404 1532T501 1536T593 1540T670 1542Q730 1542 790 1537T907 1518T1012 1481T1097 1421T1154 1335T1175 1218Q1175
1134 1153 1069T1099 953T1028 867T957 809Q1024 790 1085 759T1193 680T1266 567T1294 415Q1294 332 1271 267T1208 153T1115 69T1004 12T885 -20T768 -30Q735 -30 683 -26T572 -15T453 -5T345 0H110V78ZM491 837Q518 840 562 843T667 846Q706 846 748 844T835
834Q855 853 877 881T917 946T947 1028T959 1130Q959 1220 934 1278T866 1370T763 1417T636 1431Q595 1431 558 1428T491 1420V837ZM491 121Q546 110 579 104T638 95T690 92T758 91Q791 91 824 93T889 101T947 114T993 132Q1010 153 1024 175T1050 225T1067 291T1074
379Q1074 445 1052 507T983 618T867 696T703 725Q616 725 568 723T491 718V121Z" />
<glyph unicode="C" glyph-name="C" horiz-adv-x="1511" d="M100 737Q100 838 122 937T187 1127T294 1295T443 1428T632 1517T862 1549Q968 1549 1063 1534T1233 1502Q1319 1482 1394 1456L1346 1080H1233L1186 1298Q1147 1328 1101 1347T1004 1377T898 1393T786
1398Q699 1398 617 1374T471 1307Q431 1260 402 1203T353 1085T325 962T315 841Q315 694 351 569T466 351T669 206T968 153Q983 153 1028 167T1131 202T1252 247T1364 291L1403 209Q1267 120 1170 73T1008 5T907 -18T858 -21Q730 -21 625 8T435 90T288 214T183
370T121 547T100 737Z" />
<glyph unicode="D" glyph-name="D" horiz-adv-x="1701" d="M102 82Q154 96 188 108T241 141T267 197T275 292V1392L102 1448V1530H380Q440 1530 492 1532T595 1536T698 1540T811 1542Q1002 1542 1147 1490T1390 1346T1537 1130T1587 861Q1587 743 1564 632T1494
423T1379 244T1220 104T1019 14T778 -19Q731 -19 658 -14T507 0H102V82ZM491 177Q507 169 535 160T601 141T685 126T783 120Q823 120 870 125T966 139T1057 161T1133 191Q1168 221 1208 268T1283 383T1341 543T1364 757Q1364 923 1321 1048T1194 1256T990 1381T712
1423Q697 1423 655 1422T559 1415Q541 1408 529 1398T508 1371T495 1329T491 1268V177Z" />
<glyph unicode="E" glyph-name="E" horiz-adv-x="1366" d="M115 80Q165 94 196 105T245 137T269 190T275 281V1396L110 1450V1530H1005L1147 1549V1137L1043 1135L971 1384Q823 1390 731 1393T584 1398Q522 1400 491 1399V834L933 863V673L491 704V119L1072 143L1164
430H1272L1253 -18L1112 0H115V80Z" />
<glyph unicode="F" glyph-name="F" horiz-adv-x="1355" d="M123 82Q175 96 205 108T251 141T271 197T275 292V1396L110 1450V1528L1133 1529L1275 1549L1255 1157L1150 1155L1080 1376L639 1394Q553 1398 491 1399V834L1061 863L1060 673L491 704V137L819 89V0H123V82Z" />
<glyph unicode="G" glyph-name="G" horiz-adv-x="1573" d="M100 736Q100 836 124 935T194 1125T307 1293T462 1428T654 1517T881 1550Q987 1550 1080 1536T1246 1504Q1330 1484 1401 1458L1363 1080H1260L1210 1297Q1169 1330 1119 1350T1014 1381T900 1395T787
1399Q746 1399 702 1391T616 1367T538 1331T477 1286Q444 1243 416 1193T366 1084T333 960T321 822Q321 731 337 644T384 480T464 338T575 225T716 152T889 125Q941 125 979 127T1049 133T1109 146T1170 166V569L983 624V707H1484V624Q1461 618 1442 611T1410 592T1388
566T1380 528V319L1388 119Q1287 62 1191 34T1016 -7T884 -19T817 -20Q699 -20 600 9T422 91T282 214T182 370T121 547T100 736Z" />
<glyph unicode="H" glyph-name="H" horiz-adv-x="1706" d="M102 82Q154 96 188 108T241 141T267 197T275 292V1392L102 1448V1530H675V1448Q623 1434 588 1422T531 1389T500 1333T491 1238V849H1215V1392L1042 1448V1530H1616V1448Q1563 1434 1528 1422T1471 1389T1440
1333T1431 1238V137L1628 82V0H1042V82Q1094 96 1128 108T1181 141T1207 197T1215 292V729H491V137L687 82V0H102V82Z" />
<glyph unicode="I" glyph-name="I" horiz-adv-x="724" d="M104 82Q156 96 186 108T231 141T249 197T253 292V1390L109 1446V1528H626V1446Q573 1432 542 1420T495 1387T474 1331T469 1236V137L626 82V0H104V82Z" />
<glyph unicode="J" glyph-name="J" horiz-adv-x="704" d="M265 1390L103 1446V1530H644V1446Q595 1432 564 1420T514 1387T488 1331T481 1236V464Q481 334 481 236T477 64T469 -62T454 -153T431 -220T397 -272Q346 -335 302 -374T221 -437T153 -475T97 -502L38
-447Q91 -398 133 -344T204 -227T249 -89T265 80V1390Z" />
<glyph unicode="K" glyph-name="K" horiz-adv-x="1500" d="M597 686Q580 712 566 738T546 779L1016 1396L864 1446V1530H1425V1446Q1389 1436 1362 1429T1308 1416T1256 1406T1197 1399L724 823Q735 808 752 784T799 721T878 621T998 473Q1031 433 1070 389T1151
302T1237 218T1322 144T1402 87T1470 54L1469 -22Q1394 -22 1320 -20T1175 6Q1090 51 1017 119T876 274T739 466T597 686ZM103 82Q155 96 188 108T241 141T268 197T275 292V1390L103 1446V1530H664V1446Q611 1432 578 1420T525 1387T499 1331T491 1236V137L664
82V0H103V82Z" />
<glyph unicode="L" glyph-name="L" horiz-adv-x="1357" d="M113 82Q165 96 197 108T246 141T269 197T275 292V1390L103 1446V1530H684V1446Q631 1433 595 1421T535 1388T502 1332T491 1236V112L1072 143L1165 466H1278L1236 -18L1095 0H113V82Z" />
<glyph unicode="M" glyph-name="M" horiz-adv-x="2043" d="M11 82Q63 96 91 109T134 143T158 198T183 292L196 344L329 1323Q324 1353 314 1372T286 1405T239 1427T170 1448V1530H572V1491L1025 355L1452 1504L1449 1530H1854V1446Q1801 1432 1768 1422T1715 1392T1689
1340T1681 1247L1848 138L2031 83V0H1460V83Q1512 97 1544 109T1593 142T1616 198T1622 293L1491 1236Q1491 1238 1491 1240T1490 1245L1047 54Q1047 46 1045 38T1038 25L946 -10L455 1250L344 384L339 137L512 82V0H11V82Z" />
<glyph unicode="N" glyph-name="N" horiz-adv-x="1706" d="M81 82Q133 96 166 108T219 141T249 197T266 292L273 353V1315Q268 1348 257 1368T226 1403T176 1426T104 1448V1530H423L1343 367L1336 866L1327 1390L1155 1446V1530H1637V1446Q1584 1432 1551 1420T1498
1387T1472 1331T1464 1236V0H1348L1347 13L1344 0L413 1200L427 140L429 137L622 82V0H81V82Z" />
<glyph unicode="O" glyph-name="O" horiz-adv-x="1706" d="M100 732Q100 833 122 933T187 1124T295 1293T445 1428T637 1517T870 1550Q994 1550 1097 1521T1282 1440T1425 1317T1526 1162T1587 985T1607 796Q1607 695 1585 595T1520 405T1411 236T1261 102T1069
13T836 -20Q712 -20 609 9T424 89T281 212T180 366T120 543T100 732ZM323 836Q323 748 338 661T385 495T465 348T580 231T731 153T920 125Q1007 125 1084 148T1225 208Q1265 263 1295 323T1344 446T1374 571T1384 692Q1384 780 1369 867T1322 1033T1242 1180T1127
1298T975 1376T786 1404Q699 1404 622 1380T481 1315Q441 1260 411 1201T362 1080T333 956T323 836Z" />
<glyph unicode="P" glyph-name="P" horiz-adv-x="1379" d="M103 82Q155 96 188 108T241 141T268 197T275 292V1390L103 1456V1538Q184 1531 247 1531T362 1530Q435 1530 491 1533T600 1541T712 1550T847 1554Q958 1554 1041 1520T1181 1425T1266 1283T1294 1104Q1294
1025 1273 955T1213 825T1123 718T1008 637T877 585T735 567Q711 567 680 568T614 573T548 582T491 595V137L704 82V0H103V82ZM491 740Q533 724 586 714T699 700T821 702T943 725Q973 753 997 781T1039 846T1066 934T1075 1060Q1075 1140 1054 1210T990 1331T880
1413T724 1443Q667 1443 624 1436T551 1406T506 1344T491 1236V740Z" />
<glyph unicode="Q" glyph-name="Q" horiz-adv-x="1706" d="M100 732Q100 833 122 933T187 1124T295 1293T445 1428T637 1517T870 1550Q994 1550 1097 1521T1282 1440T1425 1317T1526 1162T1587 985T1607 796Q1607 698 1587 601T1525 416T1423 251T1282 116Q1309
88 1338 62T1399 9Q1464 -44 1528 -91T1652 -176T1768 -239T1872 -274L1881 -325Q1846 -329 1804 -334T1726 -342Q1691 -347 1657 -348T1588 -347Q1532 -343 1480 -322T1380 -268T1289 -193T1206 -105Q1178 -72 1154 -40T1106 25Q1045 3 978 -8T836 -20Q712 -20
609 9T424 89T281 212T180 366T120 543T100 732ZM323 836Q323 748 338 661T385 495T465 348T580 231T731 153T920 125Q1007 125 1084 148T1225 208Q1265 263 1295 323T1344 446T1374 571T1384 692Q1384 780 1369 867T1322 1033T1242 1180T1127 1298T975 1376T786
1404Q699 1404 622 1380T481 1315Q441 1260 411 1201T362 1080T333 956T323 836Z" />
<glyph unicode="R" glyph-name="R" horiz-adv-x="1462" d="M110 80Q160 93 192 104T242 136T268 189T275 280V1396L110 1449V1530H386Q420 1530 448 1531T503 1535T558 1540T624 1545T708 1548T821 1550Q914 1550 992 1527T1127 1456T1216 1338T1248 1170Q1248
1093 1221 1016T1147 874T1035 763T896 700Q908 672 926 634T969 553T1022 466T1086 379Q1134 319 1185 265T1286 166T1385 90T1480 44L1479 -7Q1444 -7 1401 -7T1323 -6Q1288 -6 1253 -4T1185 6Q1131 16 1089 44T1011 112T944 200T878 301Q851 344 828 388T782
479T738 574T692 673Q656 674 608 678T491 691V132L679 80V1H110V80ZM491 796Q544 786 602 783T716 783T824 800T916 834Q939 856 960 883T997 945T1022 1024T1032 1126Q1032 1202 1006 1262T932 1363T820 1427T678 1449Q612 1449 575 1440T519 1405T496 1337T491
1226V796Z" />
<glyph unicode="S" glyph-name="S" horiz-adv-x="1334" d="M203 499L317 497L359 267Q365 245 371 232T383 210T396 198T407 190Q429 179 468 166T555 140T655 120T757 112Q800 112 835 122T898 147T947 180T986 216Q991 225 997 239T1008 271T1018 309T1022 348Q1022
426 986 478T891 568T756 632T601 688T447 750T312 836T216 959T180 1138Q180 1212 204 1271T270 1376T368 1455T490 1509T627 1540T769 1550Q827 1550 872 1546T959 1534T1046 1517T1148 1500L1119 1104H1012L972 1271Q967 1294 961 1309T945 1336T925 1355T900
1370Q858 1387 800 1400T669 1413Q609 1413 560 1406T475 1378Q464 1364 449 1350T420 1316T397 1268T387 1197Q387 1115 423 1061T518 969T652 905T805 853T959 796T1093 717T1188 601T1224 431Q1224 303 1173 216T1035 75T834 -1T592 -24Q541 -24 485 -14T372
13T261 52T159 100L203 499Z" />
<glyph unicode="T" glyph-name="T" horiz-adv-x="1364" d="M354 82Q410 92 452 103T523 137T565 195T579 292V1398Q529 1396 444 1393T223 1384L131 1136H37L57 1549L189 1530H1181L1313 1549L1287 1136H1193L1147 1384Q1026 1389 945 1392T812 1397Q802 1383
799 1358T795 1289V137L1028 82V0H354V82Z" />
<glyph unicode="U" glyph-name="U" horiz-adv-x="1665" d="M218 1390L67 1446V1530H458Q451 1504 447 1476T439 1410T435 1322T434 1202T433 1039T433 823V570Q433 464 445 389T490 265T578 194T724 171Q791 171 851 181T965 213T1071 267T1173 344V1390L1060
1446V1530H1542V1446Q1516 1435 1489 1428T1439 1405T1403 1358T1389 1266V752Q1390 654 1391 581T1392 453T1394 355T1397 277T1402 208T1409 137L1555 82V0H1195Q1193 38 1192 77Q1190 110 1190 147T1188 217Q1170 197 1141 172T1073 120T988 69T890 24T783 -8T673
-20Q624 -20 572 -16T469 3T373 48T293 129T238 257T218 443V1390Z" />
<glyph unicode="V" glyph-name="V" horiz-adv-x="1535" d="M188 1237L186 1238L122 1400L-41 1448V1530H553V1448Q514 1437 487 1429T440 1408T407 1380T386 1337L803 219L1201 1403L1016 1448V1530H1565V1448Q1513 1434 1468 1425T1385 1399L885 30L692 -24L188 1237Z" />
<glyph unicode="W" glyph-name="W" horiz-adv-x="2214" d="M154 1393L-10 1448V1530H565V1448Q523 1436 495 1427T447 1403T418 1369T400 1316L763 219L1059 1156L1026 1251L970 1393L817 1448V1530H1429V1448Q1378 1434 1339 1424T1273 1401T1233 1367T1219 1313L1573
233L1915 1368V1393L1742 1448V1530H2267V1448Q2219 1435 2174 1427T2091 1404L1647 20L1468 -34L1129 952L829 20L658 -34L154 1393Z" />
<glyph unicode="X" glyph-name="X" horiz-adv-x="1532" d="M42 82L187 137L273 228L653 742L207 1382L198 1393L44 1448V1530H625V1448Q532 1448 501 1419T491 1338L790 893L1137 1396L988 1448V1530H1490V1448Q1442 1443 1405 1432T1335 1399T1272 1346T1210
1269L1205 1265L865 784L1326 139Q1363 128 1404 112T1497 82V0H1006V82L1085 104L729 631L459 248Q438 211 433 184T443 136T501 103T615 82V0H42V82Z" />
<glyph unicode="Y" glyph-name="Y" horiz-adv-x="1474" d="M407 83Q471 93 516 104T591 138T635 196T649 293V597L164 1370L143 1393L12 1448V1530H577V1448Q481 1437 443 1414T417 1339L782 710L1160 1401L995 1448V1530H1463V1448Q1424 1437 1392 1428T1333
1408L865 597V138L1108 83V1H407V83Z" />
<glyph unicode="Z" glyph-name="Z" horiz-adv-x="1366" d="M78 87L992 1421Q913 1414 840 1408T688 1396T524 1385T333 1375L261 1135L167 1137V1549L299 1530H1254L1274 1444L358 118Q461 125 567 132T770 145T946 156T1076 163L1188 420H1286L1257 -18L1126
0H100L78 87Z" />
<glyph unicode="[" glyph-name="bracketleft" horiz-adv-x="683" d="M170 1798H515V1678L325 1640V-228L515 -242V-355H170V1798Z" />
<glyph unicode="\" glyph-name="backslash" horiz-adv-x="849" d="M258 1672H119L598 -166H731L258 1672Z" />
<glyph unicode="]" glyph-name="bracketright" horiz-adv-x="683" d="M515 1798H170V1678L360 1640V-228L170 -242V-355H515V1798Z" />
<glyph unicode="^" glyph-name="asciicircum" horiz-adv-x="1193" d="M502 1530H695L1057 510H907L596 1311L296 510H136L502 1530Z" />
<glyph unicode="_" glyph-name="underscore" horiz-adv-x="1327" d="M1337 -177V-340H-10V-177H1337Z" />
<glyph unicode="`" glyph-name="grave" horiz-adv-x="723" d="M114 1519Q132 1538 156 1558T207 1597T259 1628T306 1645Q383 1539 456 1434T609 1229L519 1164L114 1519Z" />
<glyph unicode="a" glyph-name="a" horiz-adv-x="1098" d="M103 254Q103 296 110 331T140 396T204 454T313 509T478 564T710 624V777Q710 805 707 830T685 875T630 907T525 921Q477 921 445 908T391 866T352 797T318 700H158L179 906Q212 920 251 936T330 967T411
995T485 1019T547 1036T589 1042Q679 1042 741 1028T844 981T902 892T920 754V179Q920 152 944 140T996 124T1049 120T1073 118V35Q1053 27 1027 18T970 0T910 -14T851 -20Q780 -20 750 17T720 130Q672 90 636 62T565 15T491 -11T400 -20Q348 -20 295 -4T200 45T130
131T103 254ZM323 279Q323 239 337 211T377 164T436 137T510 128Q564 128 616 156T710 225V522Q674 509 631 499T545 477T462 450T391 413T342 358T323 279Z" />
<glyph unicode="b" glyph-name="b" horiz-adv-x="1219" d="M181 1303Q181 1357 167 1386T130 1432T77 1455T13 1471V1543Q58 1554 93 1562T157 1578T210 1593T259 1610T310 1632T371 1662L408 1641Q407 1630 406 1596T404 1510T401 1397T399 1271T398 1144T396
1030T395 941T393 891Q421 909 460 935T543 985T632 1025T718 1042Q736 1042 775 1038T861 1015T957 960T1047 862Q1079 808 1104 733T1129 553Q1129 427 1100 336T1025 180T922 77T808 17T703 -12T623 -20Q565 -20 493 -14T355 1T241 16T181 23H179L181 1303ZM393
168Q453 137 518 120T657 102Q728 102 777 132T857 214T901 334T915 479Q915 560 899 633T853 761T783 848T694 881Q658 881 614 870T527 843T449 811T393 784V168Z" />
<glyph unicode="c" glyph-name="c" horiz-adv-x="1026" d="M90 461Q90 600 136 708T259 891T438 1003T650 1042Q720 1042 797 1028T944 986Q943 979 940 955T933 897T925 826T916 758T910 706T906 685H812Q799 739 791 774T776 830T766 860T755 871Q706 882 658
888T558 895Q525 895 488 890T416 874Q396 861 379 837T348 784T324 723T306 661T295 604T291 562Q291 482 309 408T368 277T474 186T633 152Q648 152 682 158T757 174T841 195T915 218L948 134Q892 100 835 72T728 24T645 -8T602 -20Q494 -20 401 10T238 101T130
252T90 461Z" />
<glyph unicode="d" glyph-name="d" horiz-adv-x="1183" d="M90 464Q90 579 118 671T199 833Q237 885 286 924T390 989T503 1028T616 1042Q673 1042 727 1034T826 1017V1219Q826 1254 826 1284T819 1341T796 1388T745 1427Q725 1438 704 1443T652 1454V1527Q718
1542 766 1554T855 1580T933 1609T1015 1645L1053 1624Q1048 1570 1045 1531T1041 1457T1038 1383T1036 1290V182Q1036 174 1039 162T1047 142Q1053 135 1066 127T1096 110T1132 95T1168 82V0H841Q838 21 836 46Q834 66 833 92T832 147Q723 59 639 20T501 -19Q428
-19 369 2T264 58T185 142T131 243T100 353T90 464ZM525 142Q553 142 592 152T674 177T756 212T826 249V850Q780 876 711 894T562 915Q512 916 466 897T383 833T326 716T304 538Q304 451 322 378T370 253T440 171T525 142Z" />
<glyph unicode="e" glyph-name="e" horiz-adv-x="1039" d="M91 496Q93 606 129 705T232 879T393 998T605 1042Q701 1042 768 1013T879 929T941 798T958 627Q957 613 957 595T955 559Q954 540 952 519H299Q297 433 312 372T354 267T416 198T487 158T560 140T626
135Q670 146 718 159Q760 170 811 186T915 222L949 136Q894 105 846 80T754 34T668 -2T584 -29Q456 -29 363 7T208 110T117 275T91 496ZM299 623Q398 624 468 627T584 633T658 638T697 643Q714 645 723 669T733 719Q733 787 710 834T647 906T554 932T440 912Q428
908 406 891T360 840T319 753T299 623Z" />
<glyph unicode="f" glyph-name="f" horiz-adv-x="809" d="M94 82Q157 96 193 108T248 141T272 197T277 292L279 885H119V1000L279 1020V1210Q279 1310 319 1390T429 1525T592 1610T791 1640Q808 1640 831 1637T874 1631Q898 1627 921 1622L885 1342H798L768 1459Q763
1473 744 1481T699 1492T642 1494T584 1489T535 1479T506 1465Q502 1453 499 1422T494 1347T491 1256T490 1162T489 1078T489 1020H770V885H489Q489 796 489 727T489 598T488 485T488 372Q488 313 490 256T496 137L709 82V0H94V82Z" />
<glyph unicode="g" glyph-name="g" horiz-adv-x="1173" d="M148 156Q146 168 149 185T161 214Q202 259 242 306T332 403Q242 440 188 511T133 687Q133 772 167 838T259 949T396 1018T564 1042Q664 1042 744 1023T883 963Q950 973 1010 992T1135 1039Q1153 1022
1160 1001T1168 963Q1168 931 1163 906T1148 866Q1104 854 1062 852T978 851Q1004 794 1004 723Q1004 637 970 569T878 455T741 384T574 359Q539 359 506 362T440 371Q427 357 413 342T386 311T367 279T362 250Q365 224 389 209T446 186T518 174T589 169Q647 166
709 163T832 151T946 127T1041 86T1109 22T1139 -71Q1143 -137 1110 -212T999 -351T799 -458T501 -501Q396 -501 324 -484T205 -436T135 -367T105 -284Q101 -252 104 -232Q107 -210 133 -171T207 -88Q233 -65 261 -46T316 2Q324 10 322 15T311 23Q300 26 292 29T278
36T263 42T244 51Q230 57 214 67T183 91T159 121T148 156ZM610 461Q664 464 698 484T751 536T778 605T786 680Q786 734 773 782T729 865T646 920T517 936Q471 934 439 914T388 864T359 796T350 721Q350 667 361 619T402 534T482 477T610 461ZM448 -37Q366 -93 341
-152T335 -259T413 -339T556 -370Q649 -370 722 -360T845 -323T919 -253T941 -140Q939 -106 925 -82T869 -41T749 -17T540 -4Q521 -3 507 -6T483 -14T464 -25T448 -37Z" />
<glyph unicode="h" glyph-name="h" horiz-adv-x="1336" d="M60 82Q112 96 144 108T194 141T217 197T223 292V1287Q223 1341 209 1370T172 1416T118 1439T54 1454V1527Q100 1536 134 1543T195 1557T245 1571T293 1589T346 1612T411 1645L448 1624Q441 1554 438
1479T434 1315T433 1120T433 881Q467 901 505 922Q537 940 576 962T655 1007Q664 1009 684 1015T731 1027T789 1037T853 1042Q926 1042 975 1028T1056 987T1104 923T1128 842T1135 749T1137 646L1139 137Q1173 122 1204 111Q1230 101 1257 92T1300 80V0H756V82Q810
96 843 108T895 141T921 197T928 294V747Q928 787 911 812T866 850T804 869T735 874Q688 874 643 866T559 846T488 819T433 790V137L609 82V0H60V82Z" />
<glyph unicode="i" glyph-name="i" horiz-adv-x="675" d="M86 82Q139 96 172 108T225 141T252 197T260 292V705Q260 758 246 791T209 845T156 877T94 896V968Q162 981 214 990T308 1009T385 1031T457 1062L494 1043Q487 1002 483 963T475 884T471 800T470 707V137L652
82V0H86V82ZM354 1267Q322 1267 296 1278T252 1307T224 1350T214 1403Q214 1428 224 1453T255 1499T307 1532T381 1545Q409 1545 434 1536T478 1509T508 1468T519 1413Q519 1380 506 1354T469 1308T416 1278T354 1267Z" />
<glyph unicode="j" glyph-name="j" horiz-adv-x="666" d="M336 1267Q304 1267 278 1278T234 1307T206 1350T196 1403Q196 1428 206 1453T237 1499T289 1532T363 1545Q391 1545 416 1536T460 1509T490 1468T501 1413Q501 1380 488 1354T451 1308T398 1278T336 1267ZM262
705Q262 758 248 791T211 845T157 877T94 896V968Q163 981 213 990T304 1009T378 1031T448 1062L485 1043Q474 901 473 814T472 703L471 -24Q473 -77 465 -115T438 -186T389 -248T315 -314T214 -398T85 -511L5 -439Q77 -378 133 -305Q157 -274 180 -237T221 -158T251
-70T262 25V705Z" />
<glyph unicode="k" glyph-name="k" horiz-adv-x="1203" d="M61 82Q113 96 145 108T194 141T217 197T223 292V1287Q223 1341 209 1370T172 1416T118 1439T55 1454V1527Q100 1536 134 1543T195 1557T246 1571T293 1589T346 1612T411 1645L448 1624Q441 1554 438
1467T433 1284T432 1090T433 900V137L593 82V0H61V82ZM490 527Q513 542 544 569T608 631T674 701T732 771T774 830T790 868Q790 883 779 894T750 914T712 928T673 938V1020H1194V938Q1141 929 1107 922T1051 906T1015 887T987 863Q956 832 922 791T851 707T777
623T703 549Q782 458 859 377Q891 342 926 307T994 238T1059 177T1116 131Q1136 117 1167 104T1223 82V0L942 -22L813 123L490 527Z" />
<glyph unicode="l" glyph-name="l" horiz-adv-x="676" d="M96 82Q148 96 180 108T229 141T251 197T257 292V1287Q257 1341 243 1370T206 1416T153 1439T90 1454V1527Q135 1536 169 1543T230 1557T280 1571T327 1589T379 1612T444 1645L481 1624Q474 1554 471 1467T467
1284T466 1090T467 900V137L639 82V0H96V82Z" />
<glyph unicode="m" glyph-name="m" horiz-adv-x="2007" d="M97 82Q152 99 184 111T234 144T256 199T261 292V673Q261 726 247 758T208 809T154 838T91 856V928Q160 941 203 953T281 980T354 1014T447 1062L487 1041L474 881Q508 900 544 921Q575 939 613 961T691
1005Q701 1008 718 1014T758 1026T808 1037T863 1042Q928 1042 973 1031T1049 997T1097 945T1124 875Q1130 878 1154 891T1212 922T1285 963T1360 1005Q1370 1008 1388 1014T1429 1026T1478 1037T1534 1042Q1607 1042 1656 1027T1735 986T1781 922T1803 842T1809
751T1810 652L1811 137Q1851 123 1886 112Q1916 102 1945 94T1991 82V0H1446V82Q1484 95 1510 103T1554 119T1580 139T1594 169T1599 218T1600 294V763Q1600 783 1595 802T1581 830Q1570 841 1557 849T1525 862T1480 869T1416 872Q1376 872 1336 864T1260 844T1192
817T1137 789Q1139 754 1139 717T1140 642L1141 137Q1181 123 1216 112Q1246 102 1275 94T1321 82V0H775V82Q814 95 840 103T884 119T910 139T924 169T929 218T930 294V763Q930 783 925 802T911 830Q900 841 888 849T857 862T814 869T751 872Q709 872 669 864T592
844T524 816T471 787V137L644 82V0H97V82Z" />
<glyph unicode="n" glyph-name="n" horiz-adv-x="1353" d="M99 82Q154 99 186 111T235 144T256 199T261 292V693Q261 746 247 778T209 829T155 858T93 876V948Q139 957 172 963T233 976T283 990T330 1007T382 1030T447 1062L487 1041L474 881Q508 900 545 921Q577
939 615 961T693 1005Q703 1008 722 1014T765 1026T818 1037T875 1042Q951 1042 1001 1027T1083 986T1129 922T1150 842T1156 751T1156 652L1157 137Q1195 123 1228 112Q1257 102 1285 94T1328 82V0H787V82Q828 94 856 101T901 117T928 137T941 168T945 218T946
294V765Q946 785 941 804T927 832Q915 843 902 851T868 864T820 871T753 874Q711 874 670 866T592 845T524 817T471 787V137L644 82V0H99V82Z" />
<glyph unicode="o" glyph-name="o" horiz-adv-x="1183" d="M90 476Q90 606 133 710T248 888T416 1002T615 1042Q728 1042 817 1013T967 924T1061 774T1093 560Q1093 427 1053 320T944 136T783 19T586 -22Q482 -22 392 8T234 100T129 255T90 476ZM324 525Q324 432
338 350T389 207T486 113T641 86Q706 90 748 127T815 223T849 352T859 494Q859 587 845 669T794 810T697 902T543 930Q477 926 435 891T368 800T334 673T324 525Z" />
<glyph unicode="p" glyph-name="p" horiz-adv-x="1253" d="M212 711Q212 765 201 795T170 841T123 864T63 879V951Q112 959 154 969T235 993T313 1024T392 1062L430 1042Q427 1004 426 965T422 881Q450 900 490 928T574 981T665 1024T752 1042Q770 1042 809 1038T895
1015T991 959T1081 855Q1113 801 1138 727T1163 548Q1163 420 1133 328T1054 171T946 69T828 9T718 -18T637 -25Q594 -25 537 -18T422 0V-348L646 -404V-486H90V-404Q129 -393 153 -382T190 -351T207 -299T212 -214V711ZM422 172Q479 143 548 123T691 102Q762 102
811 130T891 209T935 328T949 474Q949 557 933 631T887 760T817 848T728 881Q692 881 647 869T559 839T479 804T422 775V172Z" />
<glyph unicode="q" glyph-name="q" horiz-adv-x="1207" d="M90 477Q90 589 118 678T199 836Q237 888 286 927T390 992T503 1031T616 1045Q673 1045 727 1034T826 1012Q862 1008 889 1004T951 997T1035 992T1162 988V916L1036 870V-346Q1057 -358 1077 -369Q1094
-379 1114 -388T1150 -403V-485H630V-403Q685 -389 722 -379T783 -351T816 -306T826 -229V147Q717 59 636 20T501 -19Q428 -19 369 2T264 61T185 147T131 251T100 364T90 477ZM525 142Q553 142 592 152T674 177T756 212T826 249V848Q780 875 711 895T562 918Q512
919 466 900T383 838T326 724T304 551Q304 462 322 387T370 258T440 173T525 142Z" />
<glyph unicode="r" glyph-name="r" horiz-adv-x="967" d="M96 82Q151 99 183 111T233 144T256 199T261 292V681Q261 734 246 766T207 817T153 846T91 864V936Q159 949 202 960T281 984T354 1016T447 1062L487 1041L474 869Q504 894 536 920Q563 942 596 967T664
1013Q706 1034 753 1040T840 1046Q887 1045 931 1036L905 680H793L772 824Q770 827 767 834T759 847T746 859T728 865Q692 864 655 855T583 833T520 804T471 775V137L707 82V0H96V82Z" />
<glyph unicode="s" glyph-name="s" horiz-adv-x="1000" d="M174 325L278 323L316 214Q327 184 336 175T353 161Q386 146 418 137T483 123T551 116T624 114Q647 114 666 123T698 149T718 186T725 230Q725 282 701 316T636 373T545 412T440 443T336 477T244 524T180
595T155 702Q155 780 180 842T255 949T377 1016T544 1040Q627 1040 704 1033T863 1014L837 745H739L709 820Q698 849 687 865T655 891Q613 909 557 920T444 932Q420 932 400 919T367 886T346 841T338 792Q338 743 362 711T427 658T518 622T622 592T726 559T817
511T881 438T906 329Q906 235 874 170T785 63T654 2T493 -17Q455 -17 408 -10T313 8T220 35T140 68L174 325Z" />
<glyph unicode="t" glyph-name="t" horiz-adv-x="823" d="M226 885H68V986L166 1023Q195 1034 215 1053T242 1088L319 1280H443L436 1020H755V885H436V240Q436 192 462 172T537 151Q564 151 597 157T663 172T727 193T781 216L819 120Q783 97 736 71T637 23T535
-13T438 -27Q362 -27 320 -8T256 51T231 151T226 292V885Z" />
<glyph unicode="u" glyph-name="u" horiz-adv-x="1329" d="M237 795Q236 845 221 873T184 914T138 932T94 941V1017L461 1042Q458 1014 456 988T452 932T450 865T448 782T447 673T447 533V268Q447 226 455 202T483 165T535 149T616 146Q656 146 697 153T776 171T846
197T901 225V783Q901 824 887 852T848 899T789 927T713 941V1017L1117 1042Q1115 989 1114 925T1112 794T1111 659T1111 533V265Q1111 212 1122 185T1154 146T1201 131T1260 124V52Q1207 41 1171 34T1104 18T1043 -3T970 -34L930 -13L905 129Q873 107 837 85Q806
66 768 46T689 11Q680 8 662 1T621 -13T571 -25T515 -30Q442 -30 393 -15T312 29T266 95T244 177T237 271T237 370V795Z" />
<glyph unicode="v" glyph-name="v" horiz-adv-x="1163" d="M145 871L128 884L3 938V1020H505L499 939Q451 924 421 913T373 885L602 315Q613 289 623 277T644 263L905 898L775 938V1020H1194V939Q1147 924 1120 915T1076 892T1045 857T1013 798L684 50H683L647
-44L548 -27L489 131L145 871Z" />
<glyph unicode="w" glyph-name="w" horiz-adv-x="1710" d="M463 145Q428 220 388 313T305 504T223 700T147 883L16 937L13 1020H525L519 938Q461 920 429 907T380 871L579 337Q586 317 594 309T611 301L814 794Q803 820 793 846T772 896L649 937L646 1020H1136L1130
938Q1083 924 1051 912T997 883L1205 328Q1215 301 1229 296L1447 889L1285 937L1282 1020H1734L1728 938Q1692 930 1668 923T1625 904T1594 874T1566 826L1268 61L1239 -30L1145 -13L1084 145Q1064 197 1040 256T990 378T936 507T881 638L670 135Q658 103 643
65T606 -30L512 -13L463 145V145Z" />
<glyph unicode="x" glyph-name="x" horiz-adv-x="1164" d="M38 82L190 136L282 220L492 496L198 886L36 938L33 1020H546V939Q508 932 478 926T426 909L635 630L827 903L718 938L717 1020H1147L1141 939Q1110 929 1087 923T1044 912T1010 906T979 901L713 540L1027
126L1156 81V0H673V82L791 131L571 407L368 140Q377 130 391 123T425 110T471 97T531 81L532 0H35L38 82ZM887 884L879 886L867 884H887Z" />
<glyph unicode="y" glyph-name="y" horiz-adv-x="1177" d="M202 -412Q268 -405 322 -375T420 -302T495 -210T550 -118T585 -42T601 0L606 12L538 0Q485 132 430 257T322 497T221 713T136 899L7 938L4 1020H561L555 939Q514 926 487 916T441 894T414 866T399 824L599
325Q612 289 624 269T647 239T669 229T693 235L900 885L721 938L718 1020H1220L1214 939Q1154 925 1113 908T1054 856Q981 658 925 508T827 245T752 48T695 -98T650 -210T611 -305T570 -401T522 -513H226L202 -412V-412Z" />
<glyph unicode="z" glyph-name="z" horiz-adv-x="1044" d="M95 99L654 850L718 922Q657 919 595 915T480 907T391 898T345 889Q334 884 324 877T302 850T272 797T230 705H140L151 1020H925L959 925L401 170L341 104Q403 106 467 109T588 117T687 128T749 144Q753
146 760 150T781 175T819 240T881 367H977L952 0H132L95 99Z" />
<glyph unicode="{" glyph-name="braceleft" horiz-adv-x="853" d="M340 118Q340 193 342 261T342 387T326 494T280 578T194 636T53 667V784Q139 791 193 819T280 889T325 984T342 1096T343 1215T340 1333Q340 1452 364 1536T441 1676T577 1761T778 1801V1704Q724
1692 673 1668T568 1601Q554 1545 547 1500T538 1412T535 1324T535 1225Q535 1196 535 1174T535 1133T533 1097T531 1059Q528 1017 522 985T501 930Q487 904 468 875T416 818T334 767T212 731V726Q285 712 334 689T415 637T467 578T501 521Q515 498 521 466T531
392Q534 352 534 303T535 196Q535 142 535 102T537 25T547 -53T568 -150Q622 -192 673 -216T778 -253V-350Q660 -340 577 -311T442 -226T365 -86T340 118Z" />
<glyph unicode="|" glyph-name="bar" horiz-adv-x="513" d="M183 1734L329 1742V-360H183V1734Z" />
<glyph unicode="}" glyph-name="braceright" horiz-adv-x="853" d="M513 118Q513 193 511 261T511 387T527 494T573 578T659 636T800 667V784Q714 791 660 819T573 889T528 984T511 1096T510 1215T513 1333Q513 1452 489 1536T412 1676T276 1761T75 1801V1704Q129
1692 180 1668T285 1601Q299 1545 306 1500T315 1412T318 1324T318 1225Q318 1196 318 1174T318 1133T320 1097T322 1059Q325 1017 331 985T352 930Q366 904 385 875T437 818T519 767T641 731V726Q568 712 519 689T438 637T386 578T352 521Q338 498 332 466T322
392Q319 352 319 303T318 196Q318 142 318 102T316 25T306 -53T285 -150Q231 -192 180 -216T75 -253V-350Q193 -340 276 -311T411 -226T488 -86T513 118Z" />
<glyph unicode="~" glyph-name="asciitilde" horiz-adv-x="1193" d="M175 480Q187 529 211 578T269 666T347 729T441 753Q496 753 545 731T638 681T719 632T788 609Q812 609 833 624T871 660T902 705T924 745L1017 711Q1005 664 983 617T928 533T855 471T765 447Q726
447 693 457T630 482T574 515T522 548T473 573T425 585Q387 586 363 571T323 534T295 488T272 446L175 480V480Z" />
<glyph unicode="&#xa0;" glyph-name="nbspace" horiz-adv-x="684" />
<glyph unicode="&#xa1;" glyph-name="exclamdown" horiz-adv-x="683" d="M379 860Q390 668 399 517T422 244T457 22T513 -168V-185Q474 -197 436 -205T358 -220T281 -235T203 -258L199 -254Q199 -172 203 -93T214 67T229 234T244 416T258 622T267 860H379ZM467
1263Q467 1234 456 1208T425 1161T378 1128T319 1116Q286 1116 259 1128T213 1161T182 1208T171 1263Q171 1292 182 1318T212 1364T259 1396T319 1408Q351 1408 378 1396T425 1364T456 1318T467 1263Z" />
<glyph unicode="&#xa2;" glyph-name="cent" horiz-adv-x="1051" d="M463 -5Q382 13 314 52T197 152T121 294T93 476Q93 602 131 700T234 869T386 982T570 1036L596 1284H710L685 1041Q748 1038 811 1025T937 986Q936 979 933 955T926 897T918 826T909 758T903
706T899 685H815Q802 739 794 774T779 830T769 860T758 871Q735 876 714 880T669 888L593 154Q604 152 614 152T636 152Q651 152 685 158T760 174T844 195T918 218L951 134Q895 100 838 72T731 24T648 -8T605 -20Q597 -20 590 -20T575 -19L552 -247H438L463 -5ZM556
895Q523 895 486 890T415 874Q385 854 363 813T325 725T302 634T294 565Q294 503 304 445T337 336T395 247T482 183L556 895Z" />
<glyph unicode="&#xa3;" glyph-name="sterling" horiz-adv-x="1362" d="M158 123Q213 147 271 197T379 311T459 445T491 580Q491 610 486 637T470 691H204L234 811H407Q381 850 355 889T306 971T269 1059T255 1160Q255 1228 277 1287T339 1394T431 1479T545 1541T672
1579T805 1592Q908 1592 976 1578T1086 1543T1149 1497T1180 1450Q1175 1433 1171 1410T1161 1362T1150 1309T1141 1257Q1130 1197 1121 1133H1007Q1010 1163 1010 1190Q1010 1260 1003 1310T964 1392T871 1438T701 1453Q659 1453 623 1447T557 1431T507 1410T475
1390Q462 1364 459 1339T456 1291Q456 1232 479 1179T533 1070T599 952T655 811H1045L1015 691H678Q681 658 681 624Q681 548 663 486T618 374T560 288T502 229T459 194T443 182Q532 210 618 213T780 209T919 190T1025 179Q1064 179 1085 193T1107 238Q1107 246
1104 262T1096 295T1084 330T1069 358L1183 389Q1202 369 1218 340T1247 277T1265 212T1272 152Q1272 116 1266 83T1243 25T1196 -15T1116 -30Q1071 -30 1014 -14T881 21T708 57T488 73Q429 73 362 54T231 -7L158 123V123Z" />
<glyph unicode="&#xa4;" glyph-name="currency" horiz-adv-x="1327" d="M105 248L280 431Q235 493 211 566T187 721Q187 802 211 875T281 1012L106 1196L211 1307L390 1121Q448 1163 516 1186T662 1210Q740 1210 809 1186T936 1120L1118 1307L1222 1196L1045 1010Q1090
948 1114 875T1139 721Q1139 640 1115 568T1047 433L1222 248L1118 138L938 323Q879 280 810 256T662 232Q584 232 515 256T387 322L207 138L105 248ZM662 377Q732 377 793 404T899 479T970 588T996 721Q996 791 970 853T899 962T793 1036T662 1064Q592 1064 531
1037T425 962T354 853T328 721Q328 651 354 589T425 479T531 405T662 377Z" />
<glyph unicode="&#xa5;" glyph-name="yen" horiz-adv-x="1532" d="M250 466H670V679H250V781H656L234 1326L171 1393L40 1448V1530H605V1448Q519 1438 480 1420T442 1360L789 867L1157 1408L1003 1448V1530H1491V1448Q1443 1434 1406 1424T1339 1396L886 781H1333V679H886V466H1333V364H886V138L1109
83V1H448V83Q512 93 554 104T622 138T659 196T670 293V364H250V466Z" />
<glyph unicode="&#xa6;" glyph-name="brokenbar" horiz-adv-x="513" d="M183 1732L329 1740V851H183V1732ZM183 503L329 511V-360H183V503Z" />
<glyph unicode="&#xa7;" glyph-name="section" horiz-adv-x="1051" d="M195 324L299 322L337 190Q348 160 357 151T374 137Q440 107 504 97T645 86Q668 86 687 100T719 135T739 181T746 229Q746 281 722 315T657 372T566 410T461 441T357 476T265 525T201 600T176
711Q176 809 216 882T334 997Q300 1012 271 1032T220 1079T186 1141T173 1223Q173 1301 198 1363T273 1470T395 1537T562 1561Q645 1561 722 1554T881 1535L855 1260L757 1272L727 1349Q716 1378 705 1394T673 1420Q631 1438 575 1451T462 1465Q438 1465 418 1451T385
1415T364 1368T356 1318Q356 1269 380 1238T445 1185T536 1150T640 1121T744 1087T835 1037T899 960T924 843Q924 740 886 670T782 558Q813 542 839 522T885 474T916 412T927 331Q927 237 895 170T806 61T675 -2T514 -22Q476 -22 429 -15T334 3T241 30T161 63L195
324ZM349 806Q349 753 377 721T451 667T554 632T670 600Q688 610 703 621T730 649T747 688T753 741Q753 796 726 830T653 888T552 927T439 960Q391 935 370 901T349 806Z" />
<glyph unicode="&#xa8;" glyph-name="dieresis" horiz-adv-x="938" d="M720 1253Q689 1244 662 1247T614 1264T578 1299T557 1346Q551 1373 554 1400T569 1450T603 1492T657 1519Q718 1536 762 1510T820 1426Q826 1401 823 1374T807 1323T773 1281T720 1253ZM282
1253Q251 1244 224 1247T176 1264T140 1299T119 1346Q113 1373 116 1400T131 1450T165 1492T219 1519Q280 1536 324 1510T382 1426Q388 1401 385 1374T369 1323T335 1281T282 1253Z" />
<glyph unicode="&#xa9;" glyph-name="copyright" horiz-adv-x="1809" d="M115 776Q115 887 143 990T223 1183T347 1347T508 1475T698 1557T910 1587Q1020 1587 1122 1559T1312 1480T1472 1356T1596 1193T1676 998T1705 778Q1705 667 1677 564T1597 371T1473 207T1312
79T1122 -3T910 -33Q800 -33 698 -5T508 74T348 198T224 361T144 555T115 776ZM253 776Q253 678 275 588T338 417T437 272T569 159T728 86T910 60Q1006 60 1092 87T1251 163T1382 279T1482 426T1545 595T1567 778Q1567 875 1545 966T1482 1136T1383 1282T1251 1395T1092
1467T910 1493Q814 1493 728 1466T569 1390T438 1274T338 1128T275 959T253 776ZM456 755Q456 849 485 939T573 1099T719 1211T921 1254Q987 1254 1046 1245T1151 1225Q1205 1212 1251 1196L1224 929H1153L1120 1096Q1084 1112 1040 1122T947 1137T846 1137T741
1118Q681 1060 653 985T624 820Q624 729 652 658T730 538T847 464T993 438Q1002 438 1023 445T1071 464T1130 489T1192 515L1230 440Q1147 384 1094 355T1009 312T962 297T939 295Q819 295 729 333T578 436T487 583T456 755Z" />
<glyph unicode="&#xaa;" glyph-name="ordfeminine" horiz-adv-x="1023" d="M393 622Q355 622 315 634T241 672T187 737T165 831Q165 862 170 888T192 936T237 979T315 1020T434 1060T602 1105V1158Q602 1192 598 1218T579 1263T540 1292T471 1303Q437 1303 415
1296T376 1273T349 1231T325 1167H186L201 1309Q237 1324 280 1340T364 1370T438 1393T489 1402Q555 1402 609 1393T701 1360T760 1299T781 1204V759Q781 741 798 733T836 721T874 718T891 717V660Q876 655 856 649T813 636T767 626T723 622Q673 622 642 647T610
726Q576 698 552 679T505 647T456 628T393 622ZM471 744Q510 744 541 762T602 808V1035Q598 1032 577 1027T527 1012T464 989T403 956T357 913T338 857Q338 823 346 801T370 767T412 749T471 744Z" />
<glyph unicode="&#xab;" glyph-name="guillemotleft" horiz-adv-x="1362" d="M499 23Q459 78 419 141T337 268T254 394T170 511Q212 564 255 624T341 745T426 868T507 985L637 921Q615 883 583 830T521 719Q505 690 491 661T465 605T447 554T440 511Q440 491 446
466T464 413T490 355T521 296Q536 267 552 239T583 185T611 135T634 93L499 23V23ZM1008 23Q968 78 928 141T846 268T763 394T679 511Q721 564 764 624T850 745T935 868T1016 985L1146 921Q1124 883 1092 830T1030 719Q1014 690 1000 661T974 605T956 554T949 511Q949
491 955 466T973 413T999 355T1030 296Q1045 267 1061 239T1092 185T1120 135T1143 93L1008 23V23Z" />
<glyph unicode="&#xac;" glyph-name="logicalnot" horiz-adv-x="1366" d="M198 702H1167L1166 700H1167V196H1010V539H198V702Z" />
<glyph unicode="&#xad;" glyph-name="uni00AD" horiz-adv-x="1707" />
<glyph unicode="&#xae;" glyph-name="registered" horiz-adv-x="1818" d="M115 776Q115 887 143 990T223 1183T347 1347T508 1475T698 1557T910 1587Q1020 1587 1122 1559T1312 1480T1472 1356T1596 1193T1676 998T1705 778Q1705 667 1677 564T1597 371T1473 207T1312
79T1122 -3T910 -33Q800 -33 698 -5T508 74T348 198T224 361T144 555T115 776ZM513 409Q549 416 572 423T608 441T626 471T631 524V1110L513 1140V1216H710Q747 1216 774 1218T833 1222T908 1226T1021 1228Q1068 1228 1113 1215T1193 1174T1249 1107T1271 1011Q1271
967 1255 923T1209 842T1137 779T1041 743Q1071 704 1118 652T1221 550T1340 457T1465 395Q1514 480 1540 577T1567 778Q1567 875 1545 966T1482 1136T1383 1282T1251 1395T1092 1467T910 1493Q814 1493 728 1466T569 1390T438 1274T338 1128T275 959T253 776Q253
678 275 588T338 417T437 272T569 159T728 86T910 60Q992 60 1067 80T1209 137T1330 225T1430 340Q1416 340 1403 340T1378 341Q1327 341 1279 347Q1240 353 1211 369T1156 407T1108 458T1061 515Q1022 565 977 617T896 728Q884 728 874 729T853 731T825 733T784
738V439L919 409V344H513V409ZM784 823Q850 816 910 816T1016 830T1089 882T1117 986Q1117 1029 1102 1059T1059 1107T996 1133T918 1141Q871 1141 844 1136T804 1116T787 1078T784 1015V823Z" />
<glyph unicode="&#xaf;" glyph-name="overscore" horiz-adv-x="826" d="M114 1412H712V1267H114V1412Z" />
<glyph unicode="&#xb0;" glyph-name="degree" horiz-adv-x="1023" d="M511 836Q429 836 362 865T246 945T171 1061T144 1202Q144 1276 170 1342T245 1459T361 1539T511 1569Q593 1569 660 1540T776 1460T851 1344T878 1203Q878 1129 852 1063T777 946T661 866T511
836ZM511 968Q563 968 603 988T671 1041T713 1116T727 1203Q727 1248 713 1290T672 1365T604 1418T511 1438Q459 1438 419 1418T351 1365T309 1290T295 1202Q295 1157 309 1115T350 1041T418 988T511 968Z" />
<glyph unicode="&#xb1;" glyph-name="plusminus" horiz-adv-x="1303" d="M171 702H515V1057H678V702H1021V539H678V243H515V539H171V702ZM171 132H1021V-31H171V132Z" />
<glyph unicode="&#xb2;" glyph-name="twosuperior" horiz-adv-x="849" d="M107 678Q101 694 97 708Q93 720 90 732T86 753Q123 785 171 826T272 913T374 1010T463 1112T527 1214T552 1313Q552 1358 539 1384T510 1425Q492 1441 469 1446Q441 1449 412 1448Q387
1447 358 1444T301 1429Q294 1426 285 1411T266 1372T246 1321T227 1263H128L122 1504Q178 1526 246 1540T385 1559T520 1553T637 1515T718 1440T749 1320Q749 1261 724 1205T659 1097T569 998T469 912T374 841T299 790L641 801Q642 802 646 805T661 822T685 860T720
932L829 933L818 662L675 678H107V678Z" />
<glyph unicode="&#xb3;" glyph-name="threesuperior" horiz-adv-x="853" d="M169 683Q277 679 353 692T478 731T549 792T572 867Q572 918 559 952T520 1008T457 1039T372 1049Q354 1049 327 1046T279 1039L293 1139Q336 1146 380 1164T459 1210T517 1276T540 1363Q540
1387 530 1403T503 1429T467 1444T428 1449Q408 1449 392 1448T361 1444T330 1437T294 1425Q278 1418 264 1391T230 1307H139V1505Q166 1515 201 1524T278 1539T363 1549T452 1553Q502 1553 552 1542T641 1509T705 1453T730 1375Q730 1332 713 1293T670 1222T612
1167T554 1132V1119Q615 1110 658 1086T728 1029T767 962T780 896Q780 823 736 761T615 655T434 592T210 583Q199 584 189 586T169 589V683Z" />
<glyph unicode="&#xb4;" glyph-name="acute" horiz-adv-x="723" d="M114 1229Q193 1329 266 1434T417 1645Q438 1641 464 1628T516 1597T566 1559T609 1519L204 1164L114 1229Z" />
<glyph unicode="&#xb5;" glyph-name="mu" horiz-adv-x="1196" d="M175 -292Q175 -220 175 -107T174 151T174 468T174 828Q174 900 179 946T206 1017T272 1046T395 1041Q391 1006 389 949T386 817T385 652T384 462V237Q391 218 406 201T447 170T508 148T589 140Q624
140 652 142T707 149T762 163T824 184V828Q824 900 831 946T860 1017T925 1046T1039 1041Q1038 1011 1037 965T1036 863T1035 747T1034 630T1034 524T1034 442V227Q1034 183 1047 165T1079 145T1121 156T1161 187L1219 146Q1203 104 1176 70T1115 14T1044 -17T971
-17T906 21T857 103Q831 75 800 51T733 9T660 -19T584 -30Q558 -30 526 -27T460 -11T393 22T334 80Q334 45 334 -3T336 -97T341 -182T350 -235Q367 -283 395 -306T452 -338Q484 -348 519 -344Q522 -367 519 -392T501 -439T457 -475T377 -490Q338 -490 302 -479T237
-443T192 -382T175 -292Z" />
<glyph unicode="&#xb6;" glyph-name="paragraph" horiz-adv-x="1323" d="M505 -51Q569 -51 608 -47T668 -22T695 40T702 158V508Q621 483 550 483Q448 483 374 525T252 635T181 788T158 960Q158 1050 197 1138T318 1298T521 1413T809 1457H1322L1307 1340Q1263
1340 1236 1333T1192 1304T1169 1241T1163 1131V-153H1025L1024 1225Q1025 1263 1034 1291T1059 1340H854V88Q854 21 840 -25T798 -100T728 -141T630 -153V-152L505 -153V-51V-51Z" />
<glyph unicode="&#xb7;" glyph-name="middot" horiz-adv-x="616" d="M308 633Q276 633 249 645T202 677T171 723T160 778Q160 807 171 833T202 880T249 913T308 925Q341 925 368 913T414 880T445 833T456 778Q456 749 445 723T415 677T368 645T308 633Z" />
<glyph unicode="&#xb8;" glyph-name="cedilla" horiz-adv-x="735" d="M453 0Q450 -9 446 -18Q439 -35 431 -53Q423 -72 433 -86T465 -114T514 -140T564 -169T604 -207T621 -256Q621 -312 596 -356T524 -431T415 -479T277 -496Q223 -496 191 -491T142 -479Q122
-472 114 -462L166 -311Q193 -323 221 -333Q245 -341 274 -348T333 -355Q395 -355 419 -334T439 -285Q436 -275 422 -264T386 -240T341 -214T297 -185T264 -154T250 -118Q250 -103 263 -85T292 -50T325 -20T348 0L397 20L453 0Z" />
<glyph unicode="&#xb9;" glyph-name="onesuperior" horiz-adv-x="683" d="M133 751Q180 758 209 772T254 810T277 865T283 941L285 1273Q285 1296 279 1310T256 1332T206 1342T119 1345V1428Q157 1436 205 1454Q247 1468 304 1493T431 1558L493 1523Q483 1483
472 1419T462 1273L465 806L595 751V679H133V751Z" />
<glyph unicode="&#xba;" glyph-name="ordmasculine" horiz-adv-x="1023" d="M494 665Q415 665 348 688T231 757T155 867T127 1017Q127 1107 159 1180T246 1304T371 1384T516 1411Q595 1411 664 1388T784 1320T865 1210T895 1061Q895 971 862 898T774 774T646 694T494
665ZM549 764Q599 767 632 788T684 845T710 927T718 1027Q718 1084 707 1138T667 1235T592 1301T473 1321Q423 1318 390 1296T338 1236T312 1151T304 1051Q304 994 315 941T355 847T430 783T549 764Z" />
<glyph unicode="&#xbb;" glyph-name="guillemotright" horiz-adv-x="1362" d="M354 23Q394 78 434 141T516 268T599 394T683 511Q641 564 598 624T512 745T427 868T346 985L216 921Q238 883 270 830T332 719Q348 690 362 661T388 605T406 554T413 511Q413 491
407 466T389 413T363 355T332 296Q317 267 301 239T270 185T242 135T219 93L354 23V23ZM863 985Q903 930 943 867T1025 740T1108 614T1192 497Q1150 444 1107 384T1021 263T936 140T855 23L725 87Q747 125 779 178T841 289Q857 318 871 347T897 403T915 454T922
497Q922 517 916 542T898 595T872 653T841 712Q826 741 810 769T779 823T751 873T728 915L863 985V985Z" />
<glyph unicode="&#xbc;" glyph-name="onequarter" horiz-adv-x="1872" d="M924 267Q985 343 1053 428T1193 601T1335 772T1472 931L1559 891V297Q1582 298 1609 300T1665 305T1718 313T1760 325L1749 198H1559V-51L1366 -81L1367 198L984 195L924 267ZM1366 298V662Q1336
633 1298 590T1221 497T1145 396T1077 298H1366ZM138 751Q185 758 214 772T259 810T282 865T288 941L290 1273Q290 1296 284 1310T261 1332T211 1342T124 1345V1428Q162 1436 210 1454Q252 1468 309 1493T436 1558L498 1523Q488 1483 477 1419T467 1273L470 806L600
751V679H138V751ZM1272 1466L1376 1410L495 -80L383 -32L1272 1466Z" />
<glyph unicode="&#xbd;" glyph-name="onehalf" horiz-adv-x="1979" d="M138 751Q185 758 214 772T259 810T282 865T288 941L290 1273Q290 1296 284 1310T261 1332T211 1342T124 1345V1428Q162 1436 210 1454Q252 1468 309 1493T436 1558L498 1523Q488 1483 477
1419T467 1273L470 806L600 751V679H138V751ZM1155 -18Q1149 -2 1145 12Q1141 24 1138 36T1134 57Q1171 89 1219 130T1320 217T1422 314T1511 416T1575 518T1600 617Q1600 662 1587 688T1558 729Q1540 745 1517 750Q1489 753 1460 752Q1435 751 1406 748T1349 733Q1342
730 1333 715T1314 676T1294 625T1275 567H1176L1170 808Q1226 830 1294 844T1433 863T1568 857T1685 819T1766 744T1797 624Q1797 565 1772 509T1707 401T1617 302T1517 216T1422 145T1347 94L1689 105Q1690 106 1694 109T1709 126T1733 164T1768 236L1877 237L1866
-34L1723 -18H1155V-18ZM1272 1466L1376 1410L495 -80L383 -32L1272 1466Z" />
<glyph unicode="&#xbe;" glyph-name="threequarters" horiz-adv-x="1872" d="M924 267Q985 343 1053 428T1193 601T1335 772T1472 931L1559 891V297Q1582 298 1609 300T1665 305T1718 313T1760 325L1749 198H1559V-51L1366 -81L1367 198L984 195L924 267ZM1366
298V662Q1336 633 1298 590T1221 497T1145 396T1077 298H1366ZM134 683Q242 679 318 692T443 731T514 792T537 867Q537 918 524 952T485 1008T422 1039T337 1049Q319 1049 292 1046T244 1039L258 1139Q301 1146 345 1164T424 1210T482 1276T505 1363Q505 1387 495
1403T468 1429T432 1444T393 1449Q373 1449 357 1448T326 1444T295 1437T259 1425Q243 1418 229 1391T195 1307H104V1505Q131 1515 166 1524T243 1539T328 1549T417 1553Q467 1553 517 1542T606 1509T670 1453T695 1375Q695 1332 678 1293T635 1222T577 1167T519
1132V1119Q580 1110 623 1086T693 1029T732 962T745 896Q745 823 701 761T580 655T399 592T175 583Q164 584 154 586T134 589V683ZM1272 1466L1376 1410L495 -80L383 -32L1272 1466Z" />
<glyph unicode="&#xbf;" glyph-name="questiondown" horiz-adv-x="1126" d="M504 895Q553 880 595 863T668 821T718 761T736 674Q736 644 724 613T692 549Q668 515 633 473T557 382T478 284T407 184T356 88T336 2Q336 -42 359 -83T421 -154T513 -194T623 -188Q664
-168 704 -146T782 -102T851 -60T908 -21L970 -115Q948 -133 920 -158T859 -209T794 -261T728 -307Q659 -333 597 -346T486 -360Q416 -360 350 -336T231 -268T146 -161T114 -19Q114 30 140 84T204 192T285 292T365 373Q395 401 427 436T487 508T532 579T550 638Q550
657 542 676T512 708T449 724T344 715L313 795L504 895ZM677 1260Q677 1231 666 1205T635 1158T588 1125T529 1113Q496 1113 469 1125T423 1158T392 1205T381 1260Q381 1289 392 1315T422 1361T469 1393T529 1405Q561 1405 588 1393T635 1361T666 1315T677 1260Z"
/>
<glyph unicode="&#xc0;" glyph-name="Agrave" horiz-adv-x="1535" d="M-42 82Q9 96 49 107T119 138L630 1424L543 1456L542 1506Q585 1516 614 1523T672 1537T733 1554T817 1578Q830 1543 841 1516T867 1458T900 1384T947 1276T1014 1117T1110 887T1240 568T1413
141L1402 137L1568 82V0H972V82Q1007 91 1036 99T1087 117T1127 140T1155 174Q1138 219 1107 299T1025 510H425L287 129L490 82V0H-42V82ZM978 631L713 1297Q701 1274 688 1235L469 631H978ZM450 1854Q468 1873 489 1897T532 1942T578 1980T622 2000Q660 1960 697
1924T772 1854T848 1786T925 1714L835 1639L450 1854Z" />
<glyph unicode="&#xc1;" glyph-name="Aacute" horiz-adv-x="1535" d="M-42 82Q9 96 49 107T119 138L630 1424L543 1456L542 1506Q585 1516 614 1523T672 1537T733 1554T817 1578Q830 1543 841 1516T867 1458T900 1384T947 1276T1014 1117T1110 887T1240 568T1413
141L1402 137L1568 82V0H972V82Q1007 91 1036 99T1087 117T1127 140T1155 174Q1138 219 1107 299T1025 510H425L287 129L490 82V0H-42V82ZM978 631L713 1297Q701 1274 688 1235L469 631H978ZM565 1714Q604 1751 642 1785T717 1854T792 1924T868 2000Q889 1996 911
1980T956 1943T1000 1897T1040 1854L655 1639L565 1714Z" />
<glyph unicode="&#xc2;" glyph-name="Acircumflex" horiz-adv-x="1535" d="M-42 82Q9 96 49 107T119 138L630 1424L543 1456L542 1506Q585 1516 614 1523T672 1537T733 1554T817 1578Q830 1543 841 1516T867 1458T900 1384T947 1276T1014 1117T1110 887T1240 568T1413
141L1402 137L1568 82V0H972V82Q1007 91 1036 99T1087 117T1127 140T1155 174Q1138 219 1107 299T1025 510H425L287 129L490 82V0H-42V82ZM978 631L713 1297Q701 1274 688 1235L469 631H978ZM376 1733L691 2000H803L1094 1733L1026 1668L747 1805L444 1668L376
1733Z" />
<glyph unicode="&#xc3;" glyph-name="Atilde" horiz-adv-x="1535" d="M-42 82Q9 96 49 107T119 138L630 1424L543 1456L542 1506Q585 1516 614 1523T672 1537T733 1554T817 1578Q830 1543 841 1516T867 1458T900 1384T947 1276T1014 1117T1110 887T1240 568T1413
141L1402 137L1568 82V0H972V82Q1007 91 1036 99T1087 117T1127 140T1155 174Q1138 219 1107 299T1025 510H425L287 129L490 82V0H-42V82ZM978 631L713 1297Q701 1274 688 1235L469 631H978ZM882 1676Q831 1676 791 1694T714 1733T645 1772T575 1790Q552 1790 534
1780T499 1755T468 1722T440 1686L343 1745Q357 1775 379 1813T431 1884T493 1941T563 1964Q609 1964 652 1945T734 1903T806 1861T865 1842Q886 1842 906 1853T943 1882T973 1918T997 1954L1097 1896Q1083 1869 1063 1831T1015 1759T955 1700T882 1676Z" />
<glyph unicode="&#xc4;" glyph-name="Adieresis" horiz-adv-x="1535" d="M-42 82Q9 96 49 107T119 138L630 1424L543 1456L542 1506Q585 1516 614 1523T672 1537T733 1554T817 1578Q830 1543 841 1516T867 1458T900 1384T947 1276T1014 1117T1110 887T1240 568T1413
141L1402 137L1568 82V0H972V82Q1007 91 1036 99T1087 117T1127 140T1155 174Q1138 219 1107 299T1025 510H425L287 129L490 82V0H-42V82ZM978 631L713 1297Q701 1274 688 1235L469 631H978ZM943 1722Q915 1722 892 1732T853 1761T827 1804T818 1857Q818 1882 827
1908T854 1954T900 1987T966 2000Q991 2000 1013 1991T1052 1965T1079 1923T1089 1868Q1089 1838 1078 1812T1048 1765T1001 1734T943 1722ZM505 1722Q477 1722 454 1732T415 1761T389 1804T380 1857Q380 1882 389 1908T416 1954T462 1987T528 2000Q553 2000 575
1991T614 1965T641 1923T651 1868Q651 1838 640 1812T610 1765T563 1734T505 1722Z" />
<glyph unicode="&#xc5;" glyph-name="Aring" horiz-adv-x="1535" d="M-42 82Q9 96 49 107T119 138L630 1424L543 1456L542 1506L575 1514Q533 1546 508 1594T482 1702Q482 1756 502 1801T558 1878T639 1929T735 1947Q786 1947 831 1929T911 1879T966 1801T987
1702Q987 1631 950 1575T853 1489Q867 1457 884 1419T928 1320T994 1166T1090 934T1227 600T1413 141L1402 137L1568 82V0H972V82Q1007 91 1036 99T1087 117T1127 140T1155 174Q1138 219 1107 299T1025 510H425L287 129L490 82V0H-42V82ZM732 1552Q760 1552 786
1562T833 1592T866 1640T878 1702Q878 1729 869 1756T843 1806T798 1843T735 1858Q700 1858 673 1844T628 1807T601 1757T591 1702Q591 1669 603 1641T634 1594T679 1563T732 1552ZM978 631L713 1297Q701 1274 688 1235L469 631H978Z" />
<glyph unicode="&#xc6;" glyph-name="AE" horiz-adv-x="2023" d="M-60 82Q-32 90 -4 96T52 110T103 126T147 147L693 1411L394 1431V1530H969L1651 1529L1804 1549V1137L1700 1135L1627 1384Q1480 1390 1387 1393T1241 1398Q1179 1400 1149 1399L1148 831L1590
860V680L1148 715V122L1729 143L1821 430H1929L1910 -18L1769 0H772V79Q822 93 853 104T902 136T926 190T932 281V561H497L325 123L522 82V0H-60V82ZM932 675V1396Q918 1396 900 1396T861 1386T820 1354T783 1288L542 675H932Z" />
<glyph unicode="&#xc7;" glyph-name="Ccedilla" horiz-adv-x="1511" d="M650 -311Q677 -323 705 -333Q729 -341 758 -348T817 -355Q879 -355 903 -334T923 -285Q920 -275 906 -264T870 -240T825 -214T781 -185T748 -154T734 -118Q734 -107 741 -94T760 -67T784
-42T808 -19Q629 -10 496 56T275 228T144 465T100 737Q100 838 122 937T187 1127T294 1295T443 1428T632 1517T862 1549Q968 1549 1063 1534T1233 1502Q1319 1482 1394 1456L1346 1080H1233L1186 1298Q1147 1328 1101 1347T1004 1377T898 1393T786 1398Q699 1398
617 1374T471 1307Q431 1260 402 1203T353 1085T325 962T315 841Q315 694 351 569T466 351T669 206T968 153Q983 153 1028 167T1131 202T1252 247T1364 291L1403 209Q1311 149 1237 109T1105 43T1004 4T931 -14L915 -53Q907 -72 917 -86T949 -114T998 -140T1048
-169T1088 -207T1105 -256Q1105 -312 1080 -356T1008 -431T899 -479T761 -496Q707 -496 675 -491T626 -479Q606 -472 598 -462L650 -311V-311Z" />
<glyph unicode="&#xc8;" glyph-name="Egrave" horiz-adv-x="1366" d="M115 80Q165 94 196 105T245 137T269 190T275 281V1396L110 1450V1530H1005L1147 1549V1137L1043 1135L971 1384Q823 1390 731 1393T584 1398Q522 1400 491 1399V834L933 863V673L491 704V119L1072
143L1164 430H1272L1253 -18L1112 0H115V80ZM406 1854Q424 1873 445 1897T488 1942T534 1980T578 2000Q616 1960 653 1924T728 1854T804 1786T881 1714L791 1639L406 1854Z" />
<glyph unicode="&#xc9;" glyph-name="Eacute" horiz-adv-x="1366" d="M115 80Q165 94 196 105T245 137T269 190T275 281V1396L110 1450V1530H1005L1147 1549V1137L1043 1135L971 1384Q823 1390 731 1393T584 1398Q522 1400 491 1399V834L933 863V673L491 704V119L1072
143L1164 430H1272L1253 -18L1112 0H115V80ZM521 1714Q560 1751 598 1785T673 1854T748 1924T824 2000Q845 1996 867 1980T912 1943T956 1897T996 1854L611 1639L521 1714Z" />
<glyph unicode="&#xca;" glyph-name="Ecircumflex" horiz-adv-x="1366" d="M115 80Q165 94 196 105T245 137T269 190T275 281V1396L110 1450V1530H1005L1147 1549V1137L1043 1135L971 1384Q823 1390 731 1393T584 1398Q522 1400 491 1399V834L933 863V673L491
704V119L1072 143L1164 430H1272L1253 -18L1112 0H115V80ZM332 1733L647 2000H759L1050 1733L982 1668L703 1805L400 1668L332 1733Z" />
<glyph unicode="&#xcb;" glyph-name="Edieresis" horiz-adv-x="1366" d="M115 80Q165 94 196 105T245 137T269 190T275 281V1396L110 1450V1530H1005L1147 1549V1137L1043 1135L971 1384Q823 1390 731 1393T584 1398Q522 1400 491 1399V834L933 863V673L491 704V119L1072
143L1164 430H1272L1253 -18L1112 0H115V80ZM899 1722Q871 1722 848 1732T809 1761T783 1804T774 1857Q774 1882 783 1908T810 1954T856 1987T922 2000Q947 2000 969 1991T1008 1965T1035 1923T1045 1868Q1045 1838 1034 1812T1004 1765T957 1734T899 1722ZM461
1722Q433 1722 410 1732T371 1761T345 1804T336 1857Q336 1882 345 1908T372 1954T418 1987T484 2000Q509 2000 531 1991T570 1965T597 1923T607 1868Q607 1838 596 1812T566 1765T519 1734T461 1722Z" />
<glyph unicode="&#xcc;" glyph-name="Igrave" horiz-adv-x="724" d="M104 82Q156 96 186 108T231 141T249 197T253 292V1390L109 1446V1528H626V1446Q573 1432 542 1420T495 1387T474 1331T469 1236V137L626 82V0H104V82ZM333 1854Q351 1873 372 1897T415 1942T461
1980T505 2000Q543 1960 580 1924T655 1854T731 1786T808 1714L718 1639L333 1854Z" />
<glyph unicode="&#xcd;" glyph-name="Iacute" horiz-adv-x="724" d="M104 82Q156 96 186 108T231 141T249 197T253 292V1390L109 1446V1528H626V1446Q573 1432 542 1420T495 1387T474 1331T469 1236V137L626 82V0H104V82ZM191 1714Q230 1751 268 1785T343 1854T418
1924T494 2000Q515 1996 537 1980T582 1943T626 1897T666 1854L281 1639L191 1714Z" />
<glyph unicode="&#xce;" glyph-name="Icircumflex" horiz-adv-x="724" d="M104 82Q156 96 186 108T231 141T249 197T253 292V1390L109 1446V1528H626V1446Q573 1432 542 1420T495 1387T474 1331T469 1236V137L626 82V0H104V82ZM259 1733L574 2000H686L977 1733L909
1668L630 1805L327 1668L259 1733Z" />
<glyph unicode="&#xcf;" glyph-name="Idieresis" horiz-adv-x="724" d="M104 82Q156 96 186 108T231 141T249 197T253 292V1390L109 1446V1528H626V1446Q573 1432 542 1420T495 1387T474 1331T469 1236V137L626 82V0H104V82ZM826 1722Q798 1722 775 1732T736 1761T710
1804T701 1857Q701 1882 710 1908T737 1954T783 1987T849 2000Q874 2000 896 1991T935 1965T962 1923T972 1868Q972 1838 961 1812T931 1765T884 1734T826 1722ZM388 1722Q360 1722 337 1732T298 1761T272 1804T263 1857Q263 1882 272 1908T299 1954T345 1987T411
2000Q436 2000 458 1991T497 1965T524 1923T534 1868Q534 1838 523 1812T493 1765T446 1734T388 1722Z" />
<glyph unicode="&#xd0;" glyph-name="Eth" horiz-adv-x="1706" d="M107 82Q159 96 193 108T246 141T272 197T280 292V745H69L89 850H280V1392L107 1448V1530H385Q445 1530 497 1532T600 1536T703 1540T816 1542Q1007 1542 1152 1490T1395 1346T1542 1130T1592
861Q1592 743 1569 632T1499 423T1384 244T1225 104T1024 14T783 -19Q736 -19 663 -14T512 0H107V82ZM496 177Q512 169 540 160T606 141T690 126T788 120Q828 120 875 125T971 139T1062 161T1138 191Q1173 221 1213 268T1288 383T1346 543T1369 757Q1369 923 1326
1048T1199 1256T995 1381T717 1423Q702 1423 660 1422T564 1415Q546 1408 534 1398T513 1371T500 1329T496 1268V850H1000L980 745H496V177Z" />
<glyph unicode="&#xd1;" glyph-name="Ntilde" horiz-adv-x="1706" d="M81 82Q133 96 166 108T219 141T249 197T266 292L273 353V1315Q268 1348 257 1368T226 1403T176 1426T104 1448V1530H423L1343 367L1336 866L1327 1390L1155 1446V1530H1637V1446Q1584 1432
1551 1420T1498 1387T1472 1331T1464 1236V0H1348L1347 13L1344 0L413 1200L427 140L429 137L622 82V0H81V82ZM1019 1676Q968 1676 928 1694T851 1733T782 1772T712 1790Q689 1790 671 1780T636 1755T605 1722T577 1686L480 1745Q494 1775 516 1813T568 1884T630
1941T700 1964Q746 1964 789 1945T871 1903T943 1861T1002 1842Q1023 1842 1043 1853T1080 1882T1110 1918T1134 1954L1234 1896Q1220 1869 1200 1831T1152 1759T1092 1700T1019 1676Z" />
<glyph unicode="&#xd2;" glyph-name="Ograve" horiz-adv-x="1706" d="M100 732Q100 833 122 933T187 1124T295 1293T445 1428T637 1517T870 1550Q994 1550 1097 1521T1282 1440T1425 1317T1526 1162T1587 985T1607 796Q1607 695 1585 595T1520 405T1411 236T1261
102T1069 13T836 -20Q712 -20 609 9T424 89T281 212T180 366T120 543T100 732ZM323 836Q323 748 338 661T385 495T465 348T580 231T731 153T920 125Q1007 125 1084 148T1225 208Q1265 263 1295 323T1344 446T1374 571T1384 692Q1384 780 1369 867T1322 1033T1242
1180T1127 1298T975 1376T786 1404Q699 1404 622 1380T481 1315Q441 1260 411 1201T362 1080T333 956T323 836ZM568 1854Q586 1873 607 1897T650 1942T696 1980T740 2000Q778 1960 815 1924T890 1854T966 1786T1043 1714L953 1639L568 1854Z" />
<glyph unicode="&#xd3;" glyph-name="Oacute" horiz-adv-x="1706" d="M100 732Q100 833 122 933T187 1124T295 1293T445 1428T637 1517T870 1550Q994 1550 1097 1521T1282 1440T1425 1317T1526 1162T1587 985T1607 796Q1607 695 1585 595T1520 405T1411 236T1261
102T1069 13T836 -20Q712 -20 609 9T424 89T281 212T180 366T120 543T100 732ZM323 836Q323 748 338 661T385 495T465 348T580 231T731 153T920 125Q1007 125 1084 148T1225 208Q1265 263 1295 323T1344 446T1374 571T1384 692Q1384 780 1369 867T1322 1033T1242
1180T1127 1298T975 1376T786 1404Q699 1404 622 1380T481 1315Q441 1260 411 1201T362 1080T333 956T323 836ZM683 1714Q722 1751 760 1785T835 1854T910 1924T986 2000Q1007 1996 1029 1980T1074 1943T1118 1897T1158 1854L773 1639L683 1714Z" />
<glyph unicode="&#xd4;" glyph-name="Ocircumflex" horiz-adv-x="1706" d="M100 732Q100 833 122 933T187 1124T295 1293T445 1428T637 1517T870 1550Q994 1550 1097 1521T1282 1440T1425 1317T1526 1162T1587 985T1607 796Q1607 695 1585 595T1520 405T1411 236T1261
102T1069 13T836 -20Q712 -20 609 9T424 89T281 212T180 366T120 543T100 732ZM323 836Q323 748 338 661T385 495T465 348T580 231T731 153T920 125Q1007 125 1084 148T1225 208Q1265 263 1295 323T1344 446T1374 571T1384 692Q1384 780 1369 867T1322 1033T1242
1180T1127 1298T975 1376T786 1404Q699 1404 622 1380T481 1315Q441 1260 411 1201T362 1080T333 956T323 836ZM494 1733L809 2000H921L1212 1733L1144 1668L865 1805L562 1668L494 1733Z" />
<glyph unicode="&#xd5;" glyph-name="Otilde" horiz-adv-x="1706" d="M100 732Q100 833 122 933T187 1124T295 1293T445 1428T637 1517T870 1550Q994 1550 1097 1521T1282 1440T1425 1317T1526 1162T1587 985T1607 796Q1607 695 1585 595T1520 405T1411 236T1261
102T1069 13T836 -20Q712 -20 609 9T424 89T281 212T180 366T120 543T100 732ZM323 836Q323 748 338 661T385 495T465 348T580 231T731 153T920 125Q1007 125 1084 148T1225 208Q1265 263 1295 323T1344 446T1374 571T1384 692Q1384 780 1369 867T1322 1033T1242
1180T1127 1298T975 1376T786 1404Q699 1404 622 1380T481 1315Q441 1260 411 1201T362 1080T333 956T323 836ZM1000 1676Q949 1676 909 1694T832 1733T763 1772T693 1790Q670 1790 652 1780T617 1755T586 1722T558 1686L461 1745Q475 1775 497 1813T549 1884T611
1941T681 1964Q727 1964 770 1945T852 1903T924 1861T983 1842Q1004 1842 1024 1853T1061 1882T1091 1918T1115 1954L1215 1896Q1201 1869 1181 1831T1133 1759T1073 1700T1000 1676Z" />
<glyph unicode="&#xd6;" glyph-name="Odieresis" horiz-adv-x="1706" d="M100 732Q100 833 122 933T187 1124T295 1293T445 1428T637 1517T870 1550Q994 1550 1097 1521T1282 1440T1425 1317T1526 1162T1587 985T1607 796Q1607 695 1585 595T1520 405T1411 236T1261
102T1069 13T836 -20Q712 -20 609 9T424 89T281 212T180 366T120 543T100 732ZM323 836Q323 748 338 661T385 495T465 348T580 231T731 153T920 125Q1007 125 1084 148T1225 208Q1265 263 1295 323T1344 446T1374 571T1384 692Q1384 780 1369 867T1322 1033T1242
1180T1127 1298T975 1376T786 1404Q699 1404 622 1380T481 1315Q441 1260 411 1201T362 1080T333 956T323 836ZM1061 1722Q1033 1722 1010 1732T971 1761T945 1804T936 1857Q936 1882 945 1908T972 1954T1018 1987T1084 2000Q1109 2000 1131 1991T1170 1965T1197
1923T1207 1868Q1207 1838 1196 1812T1166 1765T1119 1734T1061 1722ZM623 1722Q595 1722 572 1732T533 1761T507 1804T498 1857Q498 1882 507 1908T534 1954T580 1987T646 2000Q671 2000 693 1991T732 1965T759 1923T769 1868Q769 1838 758 1812T728 1765T681
1734T623 1722Z" />
<glyph unicode="&#xd7;" glyph-name="multiply" horiz-adv-x="1196" d="M212 344L467 599L212 854L328 969L582 714L837 969L953 854L698 599L953 344L837 229L582 483L328 229L212 344Z" />
<glyph unicode="&#xd8;" glyph-name="Oslash" horiz-adv-x="1706" d="M574 19Q454 58 365 131T217 299T129 505T100 732Q100 833 122 933T187 1124T295 1293T445 1428T637 1517T870 1550Q895 1550 919 1549T967 1545L1000 1672H1139L1099 1520Q1227 1484 1322
1412T1481 1242T1575 1031T1607 796Q1607 695 1585 595T1520 405T1411 236T1261 102T1069 13T836 -20Q800 -20 766 -18T700 -10L660 -166H527L574 19ZM927 1389Q861 1404 786 1404Q699 1404 622 1380T481 1315Q441 1260 411 1201T362 1080T333 956T323 836Q323
741 340 648T394 471T487 319T621 203L927 1389ZM742 150Q783 138 827 132T920 125Q1007 125 1084 148T1225 208Q1265 263 1295 323T1344 446T1374 571T1384 692Q1384 791 1365 889T1304 1073T1201 1229T1053 1343L742 150Z" />
<glyph unicode="&#xd9;" glyph-name="Ugrave" horiz-adv-x="1665" d="M218 1390L67 1446V1530H458Q451 1504 447 1476T439 1410T435 1322T434 1202T433 1039T433 823V570Q433 464 445 389T490 265T578 194T724 171Q791 171 851 181T965 213T1071 267T1173 344V1390L1060
1446V1530H1542V1446Q1516 1435 1489 1428T1439 1405T1403 1358T1389 1266V752Q1390 654 1391 581T1392 453T1394 355T1397 277T1402 208T1409 137L1555 82V0H1195Q1193 38 1192 77Q1190 110 1190 147T1188 217Q1170 197 1141 172T1073 120T988 69T890 24T783 -8T673
-20Q624 -20 572 -16T469 3T373 48T293 129T238 257T218 443V1390ZM486 1854Q504 1873 525 1897T568 1942T614 1980T658 2000Q696 1960 733 1924T808 1854T884 1786T961 1714L871 1639L486 1854Z" />
<glyph unicode="&#xda;" glyph-name="Uacute" horiz-adv-x="1665" d="M218 1390L67 1446V1530H458Q451 1504 447 1476T439 1410T435 1322T434 1202T433 1039T433 823V570Q433 464 445 389T490 265T578 194T724 171Q791 171 851 181T965 213T1071 267T1173 344V1390L1060
1446V1530H1542V1446Q1516 1435 1489 1428T1439 1405T1403 1358T1389 1266V752Q1390 654 1391 581T1392 453T1394 355T1397 277T1402 208T1409 137L1555 82V0H1195Q1193 38 1192 77Q1190 110 1190 147T1188 217Q1170 197 1141 172T1073 120T988 69T890 24T783 -8T673
-20Q624 -20 572 -16T469 3T373 48T293 129T238 257T218 443V1390ZM601 1714Q640 1751 678 1785T753 1854T828 1924T904 2000Q925 1996 947 1980T992 1943T1036 1897T1076 1854L691 1639L601 1714Z" />
<glyph unicode="&#xdb;" glyph-name="Ucircumflex" horiz-adv-x="1665" d="M218 1390L67 1446V1530H458Q451 1504 447 1476T439 1410T435 1322T434 1202T433 1039T433 823V570Q433 464 445 389T490 265T578 194T724 171Q791 171 851 181T965 213T1071 267T1173
344V1390L1060 1446V1530H1542V1446Q1516 1435 1489 1428T1439 1405T1403 1358T1389 1266V752Q1390 654 1391 581T1392 453T1394 355T1397 277T1402 208T1409 137L1555 82V0H1195Q1193 38 1192 77Q1190 110 1190 147T1188 217Q1170 197 1141 172T1073 120T988 69T890
24T783 -8T673 -20Q624 -20 572 -16T469 3T373 48T293 129T238 257T218 443V1390ZM412 1733L727 2000H839L1130 1733L1062 1668L783 1805L480 1668L412 1733Z" />
<glyph unicode="&#xdc;" glyph-name="Udieresis" horiz-adv-x="1665" d="M218 1390L67 1446V1530H458Q451 1504 447 1476T439 1410T435 1322T434 1202T433 1039T433 823V570Q433 464 445 389T490 265T578 194T724 171Q791 171 851 181T965 213T1071 267T1173 344V1390L1060
1446V1530H1542V1446Q1516 1435 1489 1428T1439 1405T1403 1358T1389 1266V752Q1390 654 1391 581T1392 453T1394 355T1397 277T1402 208T1409 137L1555 82V0H1195Q1193 38 1192 77Q1190 110 1190 147T1188 217Q1170 197 1141 172T1073 120T988 69T890 24T783 -8T673
-20Q624 -20 572 -16T469 3T373 48T293 129T238 257T218 443V1390ZM979 1722Q951 1722 928 1732T889 1761T863 1804T854 1857Q854 1882 863 1908T890 1954T936 1987T1002 2000Q1027 2000 1049 1991T1088 1965T1115 1923T1125 1868Q1125 1838 1114 1812T1084 1765T1037
1734T979 1722ZM541 1722Q513 1722 490 1732T451 1761T425 1804T416 1857Q416 1882 425 1908T452 1954T498 1987T564 2000Q589 2000 611 1991T650 1965T677 1923T687 1868Q687 1838 676 1812T646 1765T599 1734T541 1722Z" />
<glyph unicode="&#xdd;" glyph-name="Yacute" horiz-adv-x="1474" d="M407 83Q471 93 516 104T591 138T635 196T649 293V597L164 1370L143 1393L12 1448V1530H577V1448Q481 1437 443 1414T417 1339L782 710L1160 1401L995 1448V1530H1463V1448Q1424 1437 1392
1428T1333 1408L865 597V138L1108 83V1H407V83ZM603 1714Q642 1751 680 1785T755 1854T830 1924T906 2000Q927 1996 949 1980T994 1943T1038 1897T1078 1854L693 1639L603 1714Z" />
<glyph unicode="&#xde;" glyph-name="Thorn" horiz-adv-x="1347" d="M103 82Q155 96 188 103T241 126T268 171T275 262V1120L274 1390L130 1446V1528H647V1446Q598 1437 567 1425T519 1391T496 1334T490 1246V1209Q533 1215 572 1220T653 1229T742 1235T847 1238Q958
1238 1041 1206T1181 1118T1266 984T1294 818Q1294 711 1248 622T1123 468T944 367T735 331Q711 331 680 332T614 337T548 346T491 359V137L704 82V0H103V82ZM491 504Q533 488 586 478T699 464T821 466T943 489Q973 513 997 537T1039 592T1066 667T1075 774Q1075
847 1054 911T990 1024T880 1099T724 1127Q667 1127 624 1116T551 1084T506 1037T491 980V504Z" />
<glyph unicode="&#xdf;" glyph-name="germandbls" horiz-adv-x="1359" d="M53 82Q95 91 125 99T175 117T207 140T225 174T234 223T236 292L238 885H78V1000L238 1020V1071Q245 1184 277 1282T373 1453T536 1568T777 1610Q882 1610 956 1587T1076 1523T1144 1426T1166
1301Q1166 1220 1143 1164T1085 1069T1007 1005T927 960T859 923T820 881Q820 835 842 803T901 747T984 703T1079 662T1174 614T1257 552T1316 466T1339 346Q1339 242 1307 172T1221 60T1093 1T936 -17Q898 -17 860 -10T788 8T724 35T674 68L700 327H812L861 156Q871
142 894 134T945 122T1003 116T1058 114Q1079 114 1097 126T1129 157T1151 202T1159 254Q1159 306 1138 343T1081 409T1000 460T908 503T815 549T735 604T678 677T656 777Q656 838 678 880T732 956T803 1019T874 1085T929 1170T951 1290Q951 1454 703 1484Q664
1484 629 1470T564 1436T509 1391T465 1345Q460 1336 457 1289T453 1169T451 1003T450 810T451 608T453 416T456 253T459 137L566 82V0H53V82Z" />
<glyph unicode="&#xe0;" glyph-name="agrave" horiz-adv-x="1098" d="M103 254Q103 296 110 331T140 396T204 454T313 509T478 564T710 624V777Q710 805 707 830T685 875T630 907T525 921Q477 921 445 908T391 866T352 797T318 700H158L179 906Q212 920 251 936T330
967T411 995T485 1019T547 1036T589 1042Q679 1042 741 1028T844 981T902 892T920 754V179Q920 152 944 140T996 124T1049 120T1073 118V35Q1053 27 1027 18T970 0T910 -14T851 -20Q780 -20 750 17T720 130Q672 90 636 62T565 15T491 -11T400 -20Q348 -20 295 -4T200
45T130 131T103 254ZM323 279Q323 239 337 211T377 164T436 137T510 128Q564 128 616 156T710 225V522Q674 509 631 499T545 477T462 450T391 413T342 358T323 279ZM133 1519Q151 1538 175 1558T226 1597T278 1628T325 1645Q402 1539 475 1434T628 1229L538 1164L133
1519Z" />
<glyph unicode="&#xe1;" glyph-name="aacute" horiz-adv-x="1098" d="M103 254Q103 296 110 331T140 396T204 454T313 509T478 564T710 624V777Q710 805 707 830T685 875T630 907T525 921Q477 921 445 908T391 866T352 797T318 700H158L179 906Q212 920 251 936T330
967T411 995T485 1019T547 1036T589 1042Q679 1042 741 1028T844 981T902 892T920 754V179Q920 152 944 140T996 124T1049 120T1073 118V35Q1053 27 1027 18T970 0T910 -14T851 -20Q780 -20 750 17T720 130Q672 90 636 62T565 15T491 -11T400 -20Q348 -20 295 -4T200
45T130 131T103 254ZM323 279Q323 239 337 211T377 164T436 137T510 128Q564 128 616 156T710 225V522Q674 509 631 499T545 477T462 450T391 413T342 358T323 279ZM410 1229Q489 1329 562 1434T713 1645Q734 1641 760 1628T812 1597T862 1559T905 1519L500 1164L410
1229Z" />
<glyph unicode="&#xe2;" glyph-name="acircumflex" horiz-adv-x="1098" d="M103 254Q103 296 110 331T140 396T204 454T313 509T478 564T710 624V777Q710 805 707 830T685 875T630 907T525 921Q477 921 445 908T391 866T352 797T318 700H158L179 906Q212 920 251
936T330 967T411 995T485 1019T547 1036T589 1042Q679 1042 741 1028T844 981T902 892T920 754V179Q920 152 944 140T996 124T1049 120T1073 118V35Q1053 27 1027 18T970 0T910 -14T851 -20Q780 -20 750 17T720 130Q672 90 636 62T565 15T491 -11T400 -20Q348 -20
295 -4T200 45T130 131T103 254ZM323 279Q323 239 337 211T377 164T436 137T510 128Q564 128 616 156T710 225V522Q674 509 631 499T545 477T462 450T391 413T342 358T323 279ZM160 1294Q199 1342 237 1383T312 1464T387 1548T463 1645H575Q613 1592 650 1549T725
1465T801 1383T878 1294L790 1229L519 1435L248 1229L160 1294Z" />
<glyph unicode="&#xe3;" glyph-name="atilde" horiz-adv-x="1098" d="M103 254Q103 296 110 331T140 396T204 454T313 509T478 564T710 624V777Q710 805 707 830T685 875T630 907T525 921Q477 921 445 908T391 866T352 797T318 700H158L179 906Q212 920 251 936T330
967T411 995T485 1019T547 1036T589 1042Q679 1042 741 1028T844 981T902 892T920 754V179Q920 152 944 140T996 124T1049 120T1073 118V35Q1053 27 1027 18T970 0T910 -14T851 -20Q780 -20 750 17T720 130Q672 90 636 62T565 15T491 -11T400 -20Q348 -20 295 -4T200
45T130 131T103 254ZM323 279Q323 239 337 211T377 164T436 137T510 128Q564 128 616 156T710 225V522Q674 509 631 499T545 477T462 450T391 413T342 358T323 279ZM684 1276Q633 1276 593 1294T516 1333T447 1372T377 1390Q354 1390 336 1380T301 1355T270 1322T242
1286L145 1345Q159 1375 181 1413T233 1484T295 1541T365 1564Q411 1564 454 1545T536 1503T608 1461T667 1442Q688 1442 708 1453T745 1482T775 1518T799 1554L899 1496Q885 1469 865 1431T817 1359T757 1300T684 1276Z" />
<glyph unicode="&#xe4;" glyph-name="adieresis" horiz-adv-x="1098" d="M103 254Q103 296 110 331T140 396T204 454T313 509T478 564T710 624V777Q710 805 707 830T685 875T630 907T525 921Q477 921 445 908T391 866T352 797T318 700H158L179 906Q212 920 251
936T330 967T411 995T485 1019T547 1036T589 1042Q679 1042 741 1028T844 981T902 892T920 754V179Q920 152 944 140T996 124T1049 120T1073 118V35Q1053 27 1027 18T970 0T910 -14T851 -20Q780 -20 750 17T720 130Q672 90 636 62T565 15T491 -11T400 -20Q348 -20
295 -4T200 45T130 131T103 254ZM323 279Q323 239 337 211T377 164T436 137T510 128Q564 128 616 156T710 225V522Q674 509 631 499T545 477T462 450T391 413T342 358T323 279ZM769 1273Q738 1264 711 1267T663 1284T627 1319T606 1366Q600 1393 603 1420T618 1470T652
1512T706 1539Q767 1556 811 1530T869 1446Q875 1421 872 1394T856 1343T822 1301T769 1273ZM331 1273Q300 1264 273 1267T225 1284T189 1319T168 1366Q162 1393 165 1420T180 1470T214 1512T268 1539Q329 1556 373 1530T431 1446Q437 1421 434 1394T418 1343T384
1301T331 1273Z" />
<glyph unicode="&#xe5;" glyph-name="aring" horiz-adv-x="1098" d="M103 254Q103 296 110 331T140 396T204 454T313 509T478 564T710 624V777Q710 805 707 830T685 875T630 907T525 921Q477 921 445 908T391 866T352 797T318 700H158L179 906Q212 920 251 936T330
967T411 995T485 1019T547 1036T589 1042Q679 1042 741 1028T844 981T902 892T920 754V179Q920 152 944 140T996 124T1049 120T1073 118V35Q1053 27 1027 18T970 0T910 -14T851 -20Q780 -20 750 17T720 130Q672 90 636 62T565 15T491 -11T400 -20Q348 -20 295 -4T200
45T130 131T103 254ZM323 279Q323 239 337 211T377 164T436 137T510 128Q564 128 616 156T710 225V522Q674 509 631 499T545 477T462 450T391 413T342 358T323 279ZM520 1168Q470 1168 424 1186T343 1236T288 1313T267 1410Q267 1464 287 1509T343 1586T424 1637T520
1655Q571 1655 616 1637T696 1587T751 1509T772 1410Q772 1358 751 1314T696 1238T615 1187T520 1168ZM517 1260Q545 1260 571 1270T618 1300T651 1348T663 1410Q663 1437 654 1464T628 1514T583 1551T520 1566Q485 1566 458 1552T413 1515T386 1465T376 1410Q376
1377 388 1349T419 1302T464 1271T517 1260Z" />
<glyph unicode="&#xe6;" glyph-name="ae" horiz-adv-x="1667" d="M103 254Q103 301 112 338T146 406T214 463T325 514T487 566T710 624V777Q710 800 707 825T689 871T641 906T548 921Q490 921 453 908T392 866T351 797T317 700H158L179 906Q212 920 251 936T330
967T411 995T485 1019T547 1036T589 1042Q714 1042 787 1013T893 913Q958 973 1043 1007T1233 1042Q1329 1042 1396 1013T1507 929T1569 798T1586 627Q1585 613 1585 595T1583 559Q1582 540 1580 519H927Q926 431 941 369T982 266T1044 200T1115 164T1188 149T1254
145Q1298 153 1346 164Q1388 174 1439 188T1543 222L1577 136Q1522 105 1474 80T1382 34T1296 -2T1212 -29Q1062 -29 960 21T798 166L751 121Q723 94 689 68T610 22T508 -10T379 -20Q331 -19 282 -2T193 50T128 135T103 254ZM927 623Q1026 625 1096 627T1212 633T1286
638T1325 643Q1333 644 1340 651T1351 669T1358 693T1361 719Q1361 787 1338 834T1275 906T1182 932T1068 912Q1056 908 1034 891T988 840T947 753T927 623ZM323 279Q323 199 374 164T510 128Q542 128 575 140T641 171T702 212T754 256Q734 311 726 375T719 511V523Q698
518 665 509T593 489T512 464T429 435Q383 412 353 375T323 279Z" />
<glyph unicode="&#xe7;" glyph-name="ccedilla" horiz-adv-x="1026" d="M375 -118Q375 -105 385 -89T410 -57T440 -28T465 -6Q382 10 314 48T195 144T118 282T90 461Q90 600 136 708T259 891T438 1003T650 1042Q720 1042 797 1028T944 986Q943 979 940 955T933
897T925 826T916 758T910 706T906 685H812Q799 739 791 774T776 830T766 860T755 871Q706 882 658 888T558 895Q525 895 488 890T416 874Q396 861 379 837T348 784T324 723T306 661T295 604T291 562Q291 482 309 408T368 277T474 186T633 152Q648 152 682 158T757
174T841 195T915 218L948 134Q892 100 835 72T728 24T645 -8T602 -20Q594 -20 586 -20T570 -19L556 -53Q548 -72 558 -86T590 -114T639 -140T689 -169T729 -207T746 -256Q746 -312 721 -356T649 -431T540 -479T402 -496Q348 -496 316 -491T267 -479Q247 -472 239
-462L291 -311Q318 -323 346 -333Q370 -341 399 -348T458 -355Q520 -355 544 -334T564 -285Q562 -275 547 -264T511 -240T466 -214T422 -185T389 -154T375 -118Z" />
<glyph unicode="&#xe8;" glyph-name="egrave" horiz-adv-x="1039" d="M91 496Q93 606 129 705T232 879T393 998T605 1042Q701 1042 768 1013T879 929T941 798T958 627Q957 613 957 595T955 559Q954 540 952 519H299Q297 433 312 372T354 267T416 198T487 158T560
140T626 135Q670 146 718 159Q760 170 811 186T915 222L949 136Q894 105 846 80T754 34T668 -2T584 -29Q456 -29 363 7T208 110T117 275T91 496ZM299 623Q398 624 468 627T584 633T658 638T697 643Q714 645 723 669T733 719Q733 787 710 834T647 906T554 932T440
912Q428 908 406 891T360 840T319 753T299 623ZM184 1519Q202 1538 226 1558T277 1597T329 1628T376 1645Q453 1539 526 1434T679 1229L589 1164L184 1519Z" />
<glyph unicode="&#xe9;" glyph-name="eacute" horiz-adv-x="1039" d="M91 496Q93 606 129 705T232 879T393 998T605 1042Q701 1042 768 1013T879 929T941 798T958 627Q957 613 957 595T955 559Q954 540 952 519H299Q297 433 312 372T354 267T416 198T487 158T560
140T626 135Q670 146 718 159Q760 170 811 186T915 222L949 136Q894 105 846 80T754 34T668 -2T584 -29Q456 -29 363 7T208 110T117 275T91 496ZM299 623Q398 624 468 627T584 633T658 638T697 643Q714 645 723 669T733 719Q733 787 710 834T647 906T554 932T440
912Q428 908 406 891T360 840T319 753T299 623ZM461 1229Q540 1329 613 1434T764 1645Q785 1641 811 1628T863 1597T913 1559T956 1519L551 1164L461 1229Z" />
<glyph unicode="&#xea;" glyph-name="ecircumflex" horiz-adv-x="1039" d="M91 496Q93 606 129 705T232 879T393 998T605 1042Q701 1042 768 1013T879 929T941 798T958 627Q957 613 957 595T955 559Q954 540 952 519H299Q297 433 312 372T354 267T416 198T487
158T560 140T626 135Q670 146 718 159Q760 170 811 186T915 222L949 136Q894 105 846 80T754 34T668 -2T584 -29Q456 -29 363 7T208 110T117 275T91 496ZM299 623Q398 624 468 627T584 633T658 638T697 643Q714 645 723 669T733 719Q733 787 710 834T647 906T554
932T440 912Q428 908 406 891T360 840T319 753T299 623ZM211 1294Q250 1342 288 1383T363 1464T438 1548T514 1645H626Q664 1592 701 1549T776 1465T852 1383T929 1294L841 1229L570 1435L299 1229L211 1294Z" />
<glyph unicode="&#xeb;" glyph-name="edieresis" horiz-adv-x="1039" d="M91 496Q93 606 129 705T232 879T393 998T605 1042Q701 1042 768 1013T879 929T941 798T958 627Q957 613 957 595T955 559Q954 540 952 519H299Q297 433 312 372T354 267T416 198T487 158T560
140T626 135Q670 146 718 159Q760 170 811 186T915 222L949 136Q894 105 846 80T754 34T668 -2T584 -29Q456 -29 363 7T208 110T117 275T91 496ZM299 623Q398 624 468 627T584 633T658 638T697 643Q714 645 723 669T733 719Q733 787 710 834T647 906T554 932T440
912Q428 908 406 891T360 840T319 753T299 623ZM820 1273Q789 1264 762 1267T714 1284T678 1319T657 1366Q651 1393 654 1420T669 1470T703 1512T757 1539Q818 1556 862 1530T920 1446Q926 1421 923 1394T907 1343T873 1301T820 1273ZM382 1273Q351 1264 324 1267T276
1284T240 1319T219 1366Q213 1393 216 1420T231 1470T265 1512T319 1539Q380 1556 424 1530T482 1446Q488 1421 485 1394T469 1343T435 1301T382 1273Z" />
<glyph unicode="&#xec;" glyph-name="igrave" horiz-adv-x="675" d="M86 82Q139 96 172 108T225 141T252 197T260 292V705Q260 758 246 791T209 845T156 877T94 896V968Q162 981 214 990T308 1009T385 1031T457 1062L494 1043Q487 1002 483 963T475 884T471 800T470
707V137L652 82V0H86V82ZM-58 1519Q-40 1538 -16 1558T35 1597T87 1628T134 1645Q211 1539 284 1434T437 1229L347 1164L-58 1519Z" />
<glyph unicode="&#xed;" glyph-name="iacute" horiz-adv-x="675" d="M86 82Q139 96 172 108T225 141T252 197T260 292V705Q260 758 246 791T209 845T156 877T94 896V968Q162 981 214 990T308 1009T385 1031T457 1062L494 1043Q487 1002 483 963T475 884T471 800T470
707V137L652 82V0H86V82ZM218 1229Q297 1329 370 1434T521 1645Q542 1641 568 1628T620 1597T670 1559T713 1519L308 1164L218 1229Z" />
<glyph unicode="&#xee;" glyph-name="icircumflex" horiz-adv-x="675" d="M86 82Q139 96 172 108T225 141T252 197T260 292V705Q260 758 246 791T209 845T156 877T94 896V968Q162 981 214 990T308 1009T385 1031T457 1062L494 1043Q487 1002 483 963T475 884T471
800T470 707V137L652 82V0H86V82ZM-31 1294Q8 1342 46 1383T121 1464T196 1548T272 1645H384Q422 1592 459 1549T534 1465T610 1383T687 1294L599 1229L328 1435L57 1229L-31 1294Z" />
<glyph unicode="&#xef;" glyph-name="idieresis" horiz-adv-x="675" d="M86 82Q139 96 172 108T225 141T252 197T260 292V705Q260 758 246 791T209 845T156 877T94 896V968Q162 981 214 990T308 1009T385 1031T457 1062L494 1043Q487 1002 483 963T475 884T471
800T470 707V137L652 82V0H86V82ZM578 1273Q547 1264 520 1267T472 1284T436 1319T415 1366Q409 1393 412 1420T427 1470T461 1512T515 1539Q576 1556 620 1530T678 1446Q684 1421 681 1394T665 1343T631 1301T578 1273ZM140 1273Q109 1264 82 1267T34 1284T-2
1319T-23 1366Q-29 1393 -26 1420T-11 1470T23 1512T77 1539Q138 1556 182 1530T240 1446Q246 1421 243 1394T227 1343T193 1301T140 1273Z" />
<glyph unicode="&#xf0;" glyph-name="eth" horiz-adv-x="1181" d="M90 484Q90 614 133 717T248 893T416 1003T615 1042Q664 1042 708 1032T793 1004Q769 1054 742 1099T686 1176Q652 1213 616 1246T543 1309L366 1181L288 1276L438 1386Q391 1418 351 1441T280
1482Q244 1501 214 1516Q222 1543 229 1564Q235 1582 240 1597T247 1612Q323 1588 399 1556T554 1479L758 1630L834 1535L665 1407Q705 1378 744 1345T824 1272Q883 1214 925 1151T997 1025T1045 900T1073 785T1086 685T1090 607Q1093 586 1093 568Q1093 435 1053
327T944 141T783 21T586 -22Q482 -22 392 9T234 104T129 262T90 484ZM321 533Q321 478 327 423T348 316T387 222T446 147T530 99T641 86Q706 90 750 129T822 227T860 358T872 502Q872 622 856 706T801 841T699 914T543 930Q477 926 435 892T367 804T331 679T321
533Z" />
<glyph unicode="&#xf1;" glyph-name="ntilde" horiz-adv-x="1353" d="M99 82Q154 99 186 111T235 144T256 199T261 292V693Q261 746 247 778T209 829T155 858T93 876V948Q139 957 172 963T233 976T283 990T330 1007T382 1030T447 1062L487 1041L474 881Q508 900
545 921Q577 939 615 961T693 1005Q703 1008 722 1014T765 1026T818 1037T875 1042Q951 1042 1001 1027T1083 986T1129 922T1150 842T1156 751T1156 652L1157 137Q1195 123 1228 112Q1257 102 1285 94T1328 82V0H787V82Q828 94 856 101T901 117T928 137T941 168T945
218T946 294V765Q946 785 941 804T927 832Q915 843 902 851T868 864T820 871T753 874Q711 874 670 866T592 845T524 817T471 787V137L644 82V0H99V82ZM904 1276Q853 1276 813 1294T736 1333T667 1372T597 1390Q574 1390 556 1380T521 1355T490 1322T462 1286L365
1345Q379 1375 401 1413T453 1484T515 1541T585 1564Q631 1564 674 1545T756 1503T828 1461T887 1442Q908 1442 928 1453T965 1482T995 1518T1019 1554L1119 1496Q1105 1469 1085 1431T1037 1359T977 1300T904 1276Z" />
<glyph unicode="&#xf2;" glyph-name="ograve" horiz-adv-x="1183" d="M90 476Q90 606 133 710T248 888T416 1002T615 1042Q728 1042 817 1013T967 924T1061 774T1093 560Q1093 427 1053 320T944 136T783 19T586 -22Q482 -22 392 8T234 100T129 255T90 476ZM324
525Q324 432 338 350T389 207T486 113T641 86Q706 90 748 127T815 223T849 352T859 494Q859 587 845 669T794 810T697 902T543 930Q477 926 435 891T368 800T334 673T324 525ZM215 1519Q233 1538 257 1558T308 1597T360 1628T407 1645Q484 1539 557 1434T710 1229L620
1164L215 1519Z" />
<glyph unicode="&#xf3;" glyph-name="oacute" horiz-adv-x="1183" d="M90 476Q90 606 133 710T248 888T416 1002T615 1042Q728 1042 817 1013T967 924T1061 774T1093 560Q1093 427 1053 320T944 136T783 19T586 -22Q482 -22 392 8T234 100T129 255T90 476ZM324
525Q324 432 338 350T389 207T486 113T641 86Q706 90 748 127T815 223T849 352T859 494Q859 587 845 669T794 810T697 902T543 930Q477 926 435 891T368 800T334 673T324 525ZM492 1229Q571 1329 644 1434T795 1645Q816 1641 842 1628T894 1597T944 1559T987 1519L582
1164L492 1229Z" />
<glyph unicode="&#xf4;" glyph-name="ocircumflex" horiz-adv-x="1183" d="M90 476Q90 606 133 710T248 888T416 1002T615 1042Q728 1042 817 1013T967 924T1061 774T1093 560Q1093 427 1053 320T944 136T783 19T586 -22Q482 -22 392 8T234 100T129 255T90 476ZM324
525Q324 432 338 350T389 207T486 113T641 86Q706 90 748 127T815 223T849 352T859 494Q859 587 845 669T794 810T697 902T543 930Q477 926 435 891T368 800T334 673T324 525ZM242 1294Q281 1342 319 1383T394 1464T469 1548T545 1645H657Q695 1592 732 1549T807
1465T883 1383T960 1294L872 1229L601 1435L330 1229L242 1294Z" />
<glyph unicode="&#xf5;" glyph-name="otilde" horiz-adv-x="1183" d="M90 476Q90 606 133 710T248 888T416 1002T615 1042Q728 1042 817 1013T967 924T1061 774T1093 560Q1093 427 1053 320T944 136T783 19T586 -22Q482 -22 392 8T234 100T129 255T90 476ZM324
525Q324 432 338 350T389 207T486 113T641 86Q706 90 748 127T815 223T849 352T859 494Q859 587 845 669T794 810T697 902T543 930Q477 926 435 891T368 800T334 673T324 525ZM766 1256Q715 1256 675 1274T598 1313T529 1352T459 1370Q436 1370 418 1360T383 1335T352
1302T324 1266L227 1325Q241 1355 263 1393T315 1464T377 1521T447 1544Q493 1544 536 1525T618 1483T690 1441T749 1422Q770 1422 790 1433T827 1462T857 1498T881 1534L981 1476Q967 1449 947 1411T899 1339T839 1280T766 1256Z" />
<glyph unicode="&#xf6;" glyph-name="odieresis" horiz-adv-x="1183" d="M90 476Q90 606 133 710T248 888T416 1002T615 1042Q728 1042 817 1013T967 924T1061 774T1093 560Q1093 427 1053 320T944 136T783 19T586 -22Q482 -22 392 8T234 100T129 255T90 476ZM324
525Q324 432 338 350T389 207T486 113T641 86Q706 90 748 127T815 223T849 352T859 494Q859 587 845 669T794 810T697 902T543 930Q477 926 435 891T368 800T334 673T324 525ZM851 1253Q820 1244 793 1247T745 1264T709 1299T688 1346Q682 1373 685 1400T700 1450T734
1492T788 1519Q849 1536 893 1510T951 1426Q957 1401 954 1374T938 1323T904 1281T851 1253ZM413 1253Q382 1244 355 1247T307 1264T271 1299T250 1346Q244 1373 247 1400T262 1450T296 1492T350 1519Q411 1536 455 1510T513 1426Q519 1401 516 1374T500 1323T466
1281T413 1253Z" />
<glyph unicode="&#xf7;" glyph-name="divide" horiz-adv-x="1168" d="M581 874Q555 874 533 886T494 918T468 963T459 1015Q459 1042 468 1067T493 1111T531 1143T581 1155Q608 1155 631 1143T672 1112T699 1067T709 1015Q709 988 699 963T672 918T632 886T581
874ZM169 702H999V539H169V702ZM459 223Q459 250 468 276T493 322T532 355T581 367Q609 367 632 355T673 323T699 276T709 223Q709 196 700 171T673 126T633 94T581 82Q554 82 532 94T493 125T468 170T459 223Z" />
<glyph unicode="&#xf8;" glyph-name="oslash" horiz-adv-x="1183" d="M366 17Q304 42 253 83T166 181T110 311T90 476Q90 606 133 710T248 888T416 1002T615 1042Q639 1042 661 1041T706 1037L766 1215H889L821 1011Q952 966 1022 855T1093 560Q1093 427 1053
320T944 136T783 19T586 -22Q530 -22 479 -13L419 -193H296L366 17ZM666 915Q613 933 543 930Q477 926 435 891T368 800T334 673T324 525Q324 415 344 322T416 167L666 915ZM517 100Q571 82 641 86Q706 90 748 127T815 223T849 352T859 494Q859 604 839 696T766
848L517 100Z" />
<glyph unicode="&#xf9;" glyph-name="ugrave" horiz-adv-x="1329" d="M237 795Q236 845 221 873T184 914T138 932T94 941V1017L461 1042Q458 1014 456 988T452 932T450 865T448 782T447 673T447 533V268Q447 226 455 202T483 165T535 149T616 146Q656 146 697
153T776 171T846 197T901 225V783Q901 824 887 852T848 899T789 927T713 941V1017L1117 1042Q1115 989 1114 925T1112 794T1111 659T1111 533V265Q1111 212 1122 185T1154 146T1201 131T1260 124V52Q1207 41 1171 34T1104 18T1043 -3T970 -34L930 -13L905 129Q873
107 837 85Q806 66 768 46T689 11Q680 8 662 1T621 -13T571 -25T515 -30Q442 -30 393 -15T312 29T266 95T244 177T237 271T237 370V795ZM264 1519Q282 1538 306 1558T357 1597T409 1628T456 1645Q533 1539 606 1434T759 1229L669 1164L264 1519Z" />
<glyph unicode="&#xfa;" glyph-name="uacute" horiz-adv-x="1329" d="M237 795Q236 845 221 873T184 914T138 932T94 941V1017L461 1042Q458 1014 456 988T452 932T450 865T448 782T447 673T447 533V268Q447 226 455 202T483 165T535 149T616 146Q656 146 697
153T776 171T846 197T901 225V783Q901 824 887 852T848 899T789 927T713 941V1017L1117 1042Q1115 989 1114 925T1112 794T1111 659T1111 533V265Q1111 212 1122 185T1154 146T1201 131T1260 124V52Q1207 41 1171 34T1104 18T1043 -3T970 -34L930 -13L905 129Q873
107 837 85Q806 66 768 46T689 11Q680 8 662 1T621 -13T571 -25T515 -30Q442 -30 393 -15T312 29T266 95T244 177T237 271T237 370V795ZM541 1229Q620 1329 693 1434T844 1645Q865 1641 891 1628T943 1597T993 1559T1036 1519L631 1164L541 1229Z" />
<glyph unicode="&#xfb;" glyph-name="ucircumflex" horiz-adv-x="1329" d="M237 795Q236 845 221 873T184 914T138 932T94 941V1017L461 1042Q458 1014 456 988T452 932T450 865T448 782T447 673T447 533V268Q447 226 455 202T483 165T535 149T616 146Q656 146
697 153T776 171T846 197T901 225V783Q901 824 887 852T848 899T789 927T713 941V1017L1117 1042Q1115 989 1114 925T1112 794T1111 659T1111 533V265Q1111 212 1122 185T1154 146T1201 131T1260 124V52Q1207 41 1171 34T1104 18T1043 -3T970 -34L930 -13L905 129Q873
107 837 85Q806 66 768 46T689 11Q680 8 662 1T621 -13T571 -25T515 -30Q442 -30 393 -15T312 29T266 95T244 177T237 271T237 370V795ZM291 1294Q330 1342 368 1383T443 1464T518 1548T594 1645H706Q744 1592 781 1549T856 1465T932 1383T1009 1294L921 1229L650
1435L379 1229L291 1294Z" />
<glyph unicode="&#xfc;" glyph-name="udieresis" horiz-adv-x="1329" d="M237 795Q236 845 221 873T184 914T138 932T94 941V1017L461 1042Q458 1014 456 988T452 932T450 865T448 782T447 673T447 533V268Q447 226 455 202T483 165T535 149T616 146Q656 146 697
153T776 171T846 197T901 225V783Q901 824 887 852T848 899T789 927T713 941V1017L1117 1042Q1115 989 1114 925T1112 794T1111 659T1111 533V265Q1111 212 1122 185T1154 146T1201 131T1260 124V52Q1207 41 1171 34T1104 18T1043 -3T970 -34L930 -13L905 129Q873
107 837 85Q806 66 768 46T689 11Q680 8 662 1T621 -13T571 -25T515 -30Q442 -30 393 -15T312 29T266 95T244 177T237 271T237 370V795ZM900 1273Q869 1264 842 1267T794 1284T758 1319T737 1366Q731 1393 734 1420T749 1470T783 1512T837 1539Q898 1556 942 1530T1000
1446Q1006 1421 1003 1394T987 1343T953 1301T900 1273ZM462 1273Q431 1264 404 1267T356 1284T320 1319T299 1366Q293 1393 296 1420T311 1470T345 1512T399 1539Q460 1556 504 1530T562 1446Q568 1421 565 1394T549 1343T515 1301T462 1273Z" />
<glyph unicode="&#xfd;" glyph-name="yacute" horiz-adv-x="1177" d="M202 -412Q268 -405 322 -375T420 -302T495 -210T550 -118T585 -42T601 0L606 12L538 0Q485 132 430 257T322 497T221 713T136 899L7 938L4 1020H561L555 939Q514 926 487 916T441 894T414
866T399 824L599 325Q612 289 624 269T647 239T669 229T693 235L900 885L721 938L718 1020H1220L1214 939Q1154 925 1113 908T1054 856Q981 658 925 508T827 245T752 48T695 -98T650 -210T611 -305T570 -401T522 -513H226L202 -412V-412ZM501 1229Q580 1329 653
1434T804 1645Q825 1641 851 1628T903 1597T953 1559T996 1519L591 1164L501 1229Z" />
<glyph unicode="&#xfe;" glyph-name="thorn" horiz-adv-x="1219" d="M181 1286Q181 1340 167 1369T130 1415T77 1438T13 1454V1526Q58 1537 93 1545T157 1561T210 1576T259 1593T310 1615T371 1645L408 1624Q407 1613 406 1579T404 1495T401 1385T399 1261T398
1137T396 1024T395 937T393 888Q421 907 460 933T543 984T632 1025T718 1042Q736 1042 775 1038T861 1015T957 959T1047 856Q1063 830 1078 800T1104 734T1122 656T1129 563Q1129 435 1100 342T1025 184T922 79T808 17T703 -12T623 -20Q572 -20 512 -15T391 -3V-348L616
-404V-486H30V-404Q75 -393 103 -382T148 -351T170 -299T179 -214V23L181 1286ZM393 168Q453 137 518 120T657 102Q728 102 777 133T857 217T901 340T915 489Q915 570 899 641T853 766T783 850T694 881Q658 881 614 870T527 843T449 810T393 781V168Z" />
<glyph unicode="&#xff;" glyph-name="ydieresis" horiz-adv-x="1177" d="M202 -412Q268 -405 322 -375T420 -302T495 -210T550 -118T585 -42T601 0L606 12L538 0Q485 132 430 257T322 497T221 713T136 899L7 938L4 1020H561L555 939Q514 926 487 916T441 894T414
866T399 824L599 325Q612 289 624 269T647 239T669 229T693 235L900 885L721 938L718 1020H1220L1214 939Q1154 925 1113 908T1054 856Q981 658 925 508T827 245T752 48T695 -98T650 -210T611 -305T570 -401T522 -513H226L202 -412V-412ZM860 1273Q829 1264 802
1267T754 1284T718 1319T697 1366Q691 1393 694 1420T709 1470T743 1512T797 1539Q858 1556 902 1530T960 1446Q966 1421 963 1394T947 1343T913 1301T860 1273ZM422 1273Q391 1264 364 1267T316 1284T280 1319T259 1366Q253 1393 256 1420T271 1470T305 1512T359
1539Q420 1556 464 1530T522 1446Q528 1421 525 1394T509 1343T475 1301T422 1273Z" />
<glyph unicode="&#x2013;" glyph-name="endash" horiz-adv-x="1366" d="M191 702H1175V539H191V702Z" />
<glyph unicode="&#x2014;" glyph-name="emdash" horiz-adv-x="2042" d="M191 702H1851V539H191V702Z" />
<glyph unicode="&#x2018;" glyph-name="quoteleft" horiz-adv-x="683" d="M345 1079Q271 1079 227 1125T183 1258Q183 1318 198 1367T238 1456T290 1526T345 1579T392 1615T421 1635L483 1558Q445 1539 415 1510Q389 1485 369 1446T348 1351Q348 1313 368 1298T412
1280Q440 1276 476 1285Q481 1246 485 1215Q488 1189 491 1167T493 1143Q492 1142 483 1132T455 1110T410 1089T345 1079Z" />
<glyph unicode="&#x2019;" glyph-name="quoteright" horiz-adv-x="683" d="M338 1635Q412 1635 456 1589T500 1456Q500 1396 485 1347T445 1258T393 1188T338 1135T291 1099T262 1079L200 1156Q238 1175 268 1204Q294 1229 314 1268T335 1363Q335 1401 315 1416T271
1434Q243 1438 207 1429Q202 1468 198 1499Q195 1525 192 1547T190 1571Q191 1572 200 1582T228 1604T273 1625T338 1635Z" />
<glyph unicode="&#x201a;" glyph-name="quotesinglbase" horiz-adv-x="683" d="M338 155Q412 155 456 109T500 -24Q500 -84 485 -133T445 -222T393 -292T338 -345T291 -381T262 -401L200 -324Q238 -305 268 -276Q294 -251 314 -212T335 -117Q335 -79 315 -64T271
-46Q243 -42 207 -51Q202 -12 198 19Q195 45 192 67T190 91Q191 92 200 102T228 124T273 145T338 155Z" />
<glyph unicode="&#x201c;" glyph-name="quotedblleft" horiz-adv-x="1148" d="M345 1079Q271 1079 227 1125T183 1258Q183 1318 198 1367T238 1456T290 1526T345 1579T392 1615T421 1635L483 1558Q445 1539 415 1510Q389 1485 369 1446T348 1351Q348 1313 368
1298T412 1280Q440 1276 476 1285Q481 1246 485 1215Q488 1189 491 1167T493 1143Q492 1142 483 1132T455 1110T410 1089T345 1079ZM810 1079Q736 1079 692 1125T648 1258Q648 1318 663 1367T703 1456T755 1526T810 1579T857 1615T886 1635L948 1558Q910 1539 880
1510Q854 1485 834 1446T813 1351Q813 1313 833 1298T877 1280Q905 1276 941 1285Q946 1246 950 1215Q953 1189 956 1167T958 1143Q957 1142 948 1132T920 1110T875 1089T810 1079Z" />
<glyph unicode="&#x201d;" glyph-name="quotedblright" horiz-adv-x="1148" d="M338 1635Q412 1635 456 1589T500 1456Q500 1396 485 1347T445 1258T393 1188T338 1135T291 1099T262 1079L200 1156Q238 1175 268 1204Q294 1229 314 1268T335 1363Q335 1401 315
1416T271 1434Q243 1438 207 1429Q202 1468 198 1499Q195 1525 192 1547T190 1571Q191 1572 200 1582T228 1604T273 1625T338 1635ZM803 1635Q877 1635 921 1589T965 1456Q965 1396 950 1347T910 1258T858 1188T803 1135T756 1099T727 1079L665 1156Q703 1175 733
1204Q759 1229 779 1268T800 1363Q800 1401 780 1416T736 1434Q708 1438 672 1429Q667 1468 663 1499Q660 1525 657 1547T655 1571Q656 1572 665 1582T693 1604T738 1625T803 1635Z" />
<glyph unicode="&#x201e;" glyph-name="quotedblbase" horiz-adv-x="1148" d="M338 156Q412 156 456 110T500 -23Q500 -83 485 -132T445 -221T393 -291T338 -344T291 -380T262 -400L200 -323Q238 -304 268 -275Q294 -250 314 -211T335 -116Q335 -78 315 -63T271
-45Q243 -41 207 -50Q202 -11 198 20Q195 46 192 68T190 92Q191 93 200 103T228 125T273 146T338 156ZM803 156Q877 156 921 110T965 -23Q965 -83 950 -132T910 -221T858 -291T803 -344T756 -380T727 -400L665 -323Q703 -304 733 -275Q759 -250 779 -211T800 -116Q800
-78 780 -63T736 -45Q708 -41 672 -50Q667 -11 663 20Q660 46 657 68T655 92Q656 93 665 103T693 125T738 146T803 156Z" />
<glyph unicode="&#x2022;" glyph-name="bullet" horiz-adv-x="1023" d="M510 526Q460 526 418 545T343 597T293 673T275 763Q275 810 293 853T343 930T417 982T510 1002Q560 1002 603 983T679 930T729 854T747 763Q747 716 729 673T679 598T604 546T510 526Z" />
<glyph unicode="&#x2039;" glyph-name="guilsinglleft" horiz-adv-x="853" d="M499 23Q459 78 419 141T337 268T254 394T170 511Q212 564 255 624T341 745T426 868T507 985L637 921Q615 883 583 830T521 719Q505 690 491 661T465 605T447 554T440 511Q440 491
446 466T464 413T490 355T521 296Q536 267 552 239T583 185T611 135T634 93L499 23V23Z" />
<glyph unicode="&#x203a;" glyph-name="guilsinglright" horiz-adv-x="853" d="M354 23Q394 78 434 141T516 268T599 394T683 511Q641 564 598 624T512 745T427 868T346 985L216 921Q238 883 270 830T332 719Q348 690 362 661T388 605T406 554T413 511Q413 491
407 466T389 413T363 355T332 296Q317 267 301 239T270 185T242 135T219 93L354 23V23Z" />
</font>
</defs>
</svg>
