<?xml version="1.0" standalone="no"?>
<!DOCTYPE svg PUBLIC "-//W3C//DTD SVG 1.1//EN" "http://www.w3.org/Graphics/SVG/1.1/DTD/svg11.dtd">
<svg xmlns="http://www.w3.org/2000/svg">
<defs >
<font id="ZillaSlab" horiz-adv-x="538" ><font-face
    font-family="Zilla Slab"
    units-per-em="1000"
    panose-1="0 0 0 0 0 0 0 0 0 0"
    ascent="944"
    descent="-256"
    alphabetic="0" />
<glyph unicode=" " glyph-name="uni0020" horiz-adv-x="227" />
<glyph unicode="!" glyph-name="uni0021" horiz-adv-x="240" d="M161 650L146 192H92L78 650H161ZM77 0V97H167V0H77Z" />
<glyph unicode="&quot;" glyph-name="uni0022" horiz-adv-x="371" d="M126 377H65L60 650H131L126 377ZM306 377H245L240 650H311L306 377Z" />
<glyph unicode="#" glyph-name="uni0023" horiz-adv-x="591" d="M493 521L470 403H550V346H459L428 182H520V125H417L393 0H330L354 125H178L154 0H91L115 125H38V182H126L157 346H68V403H168L191 521H254L231 403H407L430 521H493ZM189 182H365L396 346H220L189 182Z" />
<glyph unicode="$" glyph-name="uni0024" horiz-adv-x="470" d="M426 148Q426 78 380 38T259 -7V-65H217V-7Q162 -4 118 11T48 42L65 156L125 151L117 78Q166 55 217 50V246Q158 259 106 283T53 384Q53 456 102 490T217 528V593H259V528Q306 525 341 512T402 481L408
366L349 362L338 446Q304 467 259 472V301Q292 294 331 280T398 235T426 148ZM128 392Q128 352 154 336T217 310V472Q128 464 128 392ZM351 141Q351 184 325 204T259 236V51Q300 56 325 77T351 141Z" />
<glyph unicode="%" glyph-name="uni0025" horiz-adv-x="687" d="M175 244Q115 244 76 278T36 383Q36 456 77 493T183 531Q245 531 283 497T322 392Q322 324 284 284T175 244ZM581 521L379 267L177 0H102L332 287L506 521H581ZM176 294Q262 294 262 391Q262 481
181 481Q96 481 96 384Q96 294 176 294ZM506 -10Q445 -10 406 24T367 129Q367 202 408 239T514 277Q576 277 614 243T653 138Q653 70 615 30T506 -10ZM506 40Q593 40 593 137Q593 227 512 227Q427 227 427 130Q427 40 506 40Z" />
<glyph unicode="&amp;" glyph-name="uni0026" horiz-adv-x="730" d="M427 362H707V299H602Q583 252 549 198T468 98Q538 58 601 58Q643 58 682 79L699 18Q649 -10 591 -10Q545 -10 500 6T410 50Q371 23 328 7T237 -10Q164 -10 106 31T47 154Q47 219 86 257T176
324Q138 410 138 479Q138 557 185 608T318 660Q388 660 433 623T478 525Q478 449 410 405T258 319Q320 204 423 127Q459 162 485 206T525 299H427V362ZM405 522Q405 551 384 576T316 602Q265 602 238 569T210 485Q210 426 240 357Q304 391 354 429T405 522ZM195
285Q160 264 140 235T119 165Q119 106 159 79T255 52Q311 52 365 82Q260 165 195 285Z" />
<glyph unicode="&apos;" glyph-name="uni0027" horiz-adv-x="191" d="M126 377H65L60 650H131L126 377Z" />
<glyph unicode="(" glyph-name="uni0028" horiz-adv-x="274" d="M200 718H267Q101 507 101 270Q101 154 142 37T267 -183H198Q115 -73 77 41T39 270Q39 386 78 499T200 718Z" />
<glyph unicode=")" glyph-name="uni0029" horiz-adv-x="275" d="M74 -183H7Q173 28 173 265Q173 381 132 497T7 718H76Q159 608 197 494T235 265Q235 150 196 37T74 -183Z" />
<glyph unicode="*" glyph-name="uni002A" horiz-adv-x="415" d="M369 556L251 489L369 424L340 379L230 450L235 333H180L185 449L76 379L47 424L165 489L47 556L76 601L185 528L180 650H235L229 528L340 601L369 556Z" />
<glyph unicode="+" glyph-name="uni002B" horiz-adv-x="421" d="M37 254V308H187V455H240V308H384V254H240V108H187V254H37Z" />
<glyph unicode="," glyph-name="uni002C" horiz-adv-x="201" d="M24 -102L76 114H146L93 -102H24Z" />
<glyph unicode="-" glyph-name="uni002D" horiz-adv-x="348" d="M58 261H289V200H58V261Z" />
<glyph unicode="." glyph-name="uni002E" horiz-adv-x="211" d="M57 0V108H154V0H57Z" />
<glyph unicode="/" glyph-name="uni002F" horiz-adv-x="339" d="M316 688L101 0H32L247 688H316Z" />
<glyph unicode="0" glyph-name="uni0030" horiz-adv-x="576" d="M529 259Q529 135 466 63T286 -10Q168 -10 108 62T47 256Q47 374 108 452T290 531Q413 531 471 453T529 259ZM452 262Q452 356 413 411T289 466Q206 466 166 413T125 261Q125 163 166 109T288 55Q452
55 452 262Z" />
<glyph unicode="1" glyph-name="uni0031" horiz-adv-x="385" d="M365 0H52V64H174V457H52V521H248V64H365V0Z" />
<glyph unicode="2" glyph-name="uni0032" horiz-adv-x="515" d="M76 487Q112 508 161 519T255 531Q353 531 394 481T436 376Q436 307 386 249T267 144T143 64H403L412 144L473 139L462 0H56L48 57Q190 153 274 223T358 368Q358 468 239 468Q218 468 188 462T133
445L117 370L59 377L76 487Z" />
<glyph unicode="3" glyph-name="uni0033" horiz-adv-x="489" d="M66 479Q94 498 139 514T235 531Q314 531 365 490T417 372Q417 323 390 282T292 218V214Q381 199 413 153T445 50Q445 -37 389 -89T234 -141Q142 -141 94 -100T34 0L91 20Q105 -20 137 -49T232 -78Q312
-78 339 -37T367 54Q367 113 325 146T178 182V236Q272 240 306 280T340 363Q340 412 309 440T221 468Q172 468 125 443L107 362L49 369L66 479Z" />
<glyph unicode="4" glyph-name="uni0034" horiz-adv-x="539" d="M408 -131H336V34H27L19 96L252 521H408V96H513L505 34H408V-131ZM336 96V458H287L90 96H336Z" />
<glyph unicode="5" glyph-name="uni0035" horiz-adv-x="512" d="M470 64Q470 -33 414 -86T257 -140Q168 -140 119 -100T57 0L114 20Q128 -24 162 -51T251 -78Q323 -78 357 -41T392 61Q392 155 330 180T187 206Q144 206 103 203L78 227V521H440L449 383L388 377L378
458H146V267Q158 268 171 268T196 268Q266 268 328 253T430 193T470 64Z" />
<glyph unicode="6" glyph-name="uni0036" horiz-adv-x="531" d="M483 205Q483 116 434 53T273 -10Q142 -10 95 80T48 307Q48 457 101 558T286 660Q348 660 392 638T472 572L429 528Q374 597 285 597Q192 597 159 524T125 314Q124 312 124 303T124 293Q139 334
180 368T300 403Q399 403 441 344T483 205ZM409 202Q409 268 380 304T282 340Q200 340 167 293T129 200Q138 136 170 96T275 56Q347 56 378 95T409 202Z" />
<glyph unicode="7" glyph-name="uni0037" horiz-adv-x="471" d="M455 479L208 -130H135L377 458H100V347H34V521H445L455 479Z" />
<glyph unicode="8" glyph-name="uni0038" d="M495 163Q495 83 429 37T264 -10Q168 -10 107 33T45 160Q45 234 91 271T197 333Q143 359 103 395T62 494Q62 567 119 613T268 660Q356 660 415 616T474 498Q474 435 432 402T336 345Q398 316 446 276T495 163ZM400
493Q400 547 361 572T268 598Q212 598 176 573T139 502Q139 452 181 423T280 369Q336 394 368 420T400 493ZM418 160Q418 218 366 249T250 309Q194 285 156 256T118 170Q118 113 159 83T266 52Q330 52 374 80T418 160Z" />
<glyph unicode="9" glyph-name="uni0039" horiz-adv-x="531" d="M48 316Q48 404 98 467T258 531Q388 531 435 441T483 214Q483 64 430 -37T245 -139Q183 -139 139 -117T59 -51L102 -7Q157 -76 246 -76Q339 -76 371 -3T406 207Q407 208 407 217T407 228Q392 188
351 153T231 118Q132 118 90 177T48 316ZM122 319Q122 253 152 217T249 181Q331 181 364 228T402 321Q393 385 362 425T256 465Q184 465 153 426T122 319Z" />
<glyph unicode=":" glyph-name="uni003A" horiz-adv-x="224" d="M65 337V445H159V337H65ZM65 0V108H159V0H65Z" />
<glyph unicode=";" glyph-name="uni003B" horiz-adv-x="234" d="M79 337V445H173V337H79ZM154 114L101 -102H32L85 114H154Z" />
<glyph unicode="&lt;" glyph-name="uni003C" horiz-adv-x="407" d="M349 14L30 269V289L348 549V480L107 280L349 83V14Z" />
<glyph unicode="=" glyph-name="uni003D" horiz-adv-x="578" d="M61 364V418H518V364H61ZM61 144V196H518V144H61Z" />
<glyph unicode="&gt;" glyph-name="uni003E" horiz-adv-x="407" d="M377 269L58 14V83L300 280L59 480V549L377 289V269Z" />
<glyph unicode="?" glyph-name="uni003F" horiz-adv-x="446" d="M106 460L48 465L56 585Q86 616 133 638T232 660Q308 660 362 624T416 525Q416 474 385 440T314 381T243 330T212 272Q212 231 265 231V181Q197 177 167 202T137 266Q137 311 167 341T237 395T307
446T338 515Q338 549 310 572T227 595Q166 595 119 556L106 460ZM167 0V97H256V0H167Z" />
<glyph unicode="@" glyph-name="uni0040" horiz-adv-x="906" d="M298 405Q330 427 367 440T461 454Q617 454 617 305V112Q617 40 690 40Q733 40 757 73T791 155T801 252Q801 386 750 461T621 568T465 599Q304 599 202 495T100 224Q100 104 152 21T287 -104T467
-147Q524 -147 581 -132T684 -85L708 -130Q658 -163 594 -182T458 -202Q342 -202 247 -149T96 0T40 219Q40 339 94 437T243 595T462 654Q550 654 642 618T798 498T861 272Q861 208 844 143T787 34T675 -10Q622 -10 590 17T549 87Q529 50 490 20T396 -10Q350 -10
304 17T258 115Q258 171 289 200T369 239T468 249Q488 249 508 248T546 246V288Q546 339 525 369T451 400Q396 400 352 372L333 295L280 301L298 405ZM546 204Q528 206 507 207T466 209Q415 209 374 193T333 123Q333 80 359 63T417 45Q464 45 504 80T546 173V204Z"
/>
<glyph unicode="A" glyph-name="uni0041" horiz-adv-x="648" d="M655 0H424V64H511L464 189H186L136 64H230V0H1V64H62L275 586H171V650H356L589 64H655V0ZM443 246L331 544H325L208 246H443Z" />
<glyph unicode="B" glyph-name="uni0042" horiz-adv-x="604" d="M564 184Q564 107 509 54T346 0H42V64H124V586H42V650H341Q440 650 488 607T537 494Q537 442 506 403T425 354V350Q496 339 530 293T564 184ZM459 477Q459 538 425 562T329 586H197V366H326Q384
366 421 394T459 477ZM486 188Q486 243 454 274T357 306H197V64H333Q403 64 444 93T486 188Z" />
<glyph unicode="C" glyph-name="uni0043" horiz-adv-x="646" d="M575 50Q497 -10 358 -10Q216 -10 128 84T40 321Q40 411 78 488T185 613T349 660Q430 660 484 639T579 584L597 459L534 453L516 548Q484 569 447 581T355 594Q248 594 183 518T117 324Q117 203
184 130T368 56Q453 56 511 85L530 181L592 175L575 50Z" />
<glyph unicode="D" glyph-name="uni0044" horiz-adv-x="705" d="M665 326Q665 183 578 92T336 0H42V63H124V587H42V650H333Q492 650 578 559T665 326ZM587 325Q587 443 522 515T332 587H197V63H332Q456 63 521 133T587 325Z" />
<glyph unicode="E" glyph-name="uni0045" horiz-adv-x="588" d="M526 0H42V64H124V586H42V650H517L537 466L473 459L453 586H197V362H504V298H197V64H462L482 191L545 184L526 0Z" />
<glyph unicode="F" glyph-name="uni0046" horiz-adv-x="558" d="M535 463L469 456L449 586H197V333H496V269H197V64H312V0H42V64H124V586H42V650H514L535 463Z" />
<glyph unicode="G" glyph-name="uni0047" horiz-adv-x="691" d="M664 270H613V0H557L548 90Q519 47 466 19T340 -10Q206 -10 123 86T40 322Q40 416 80 492T192 614T357 660Q435 660 493 639T589 584L607 462L545 455L525 547Q498 565 460 579T361 594Q252 594
185 519T118 325Q118 204 182 130T353 56Q442 56 491 104T540 212V270H385V335H664V270Z" />
<glyph unicode="H" glyph-name="uni0048" horiz-adv-x="755" d="M713 0H476V64H558V300H197V64H279V0H42V64H124V586H42V650H279V586H197V362H558V586H476V650H713V586H631V64H713V0Z" />
<glyph unicode="I" glyph-name="uni0049" horiz-adv-x="322" d="M279 0H42V64H124V586H42V650H279V586H198V64H279V0Z" />
<glyph unicode="J" glyph-name="uni004A" horiz-adv-x="456" d="M418 586H346V166Q346 78 302 34T179 -10Q115 -10 77 17T17 89L70 129Q91 88 115 74T173 59Q226 59 249 88T273 166V586H144V650H418V586Z" />
<glyph unicode="K" glyph-name="uni004B" horiz-adv-x="642" d="M635 0H401V64H478L306 299H198V64H273V0H42V64H124V586H42V650H274V586H198V362H304L471 587H394V651H623V587H549L362 338L562 64H635V0Z" />
<glyph unicode="L" glyph-name="uni004C" horiz-adv-x="545" d="M511 0H42V64H124V586H42V650H306V586H197V64H446L466 213L531 208L511 0Z" />
<glyph unicode="M" glyph-name="uni004D" horiz-adv-x="882" d="M842 586H757V64H838V0H607V64H683V478H679L461 33H422L199 481H195V64H273V0H43V64H125V586H40V650H189L442 141H446L692 650H842V586Z" />
<glyph unicode="N" glyph-name="uni004E" horiz-adv-x="738" d="M703 586H622V0H575L198 512H194V64H297V0H49V64H124V586H38V650H178L548 149H552V586H454V650H703V586Z" />
<glyph unicode="O" glyph-name="uni004F" horiz-adv-x="729" d="M690 325Q690 233 649 157T534 36T362 -10Q215 -10 127 88T39 325Q39 465 129 562T364 660Q510 660 600 562T690 325ZM611 324Q611 441 544 517T364 594Q248 594 183 516T118 326Q118 216 183 136T366
56Q481 56 546 133T611 324Z" />
<glyph unicode="P" glyph-name="uni0050" horiz-adv-x="574" d="M544 451Q544 349 482 296T324 242H197V64H309V0H42V64H124V586H42V650H318Q439 650 491 591T544 451ZM466 449Q466 512 429 549T312 586H197V306H315Q466 306 466 449Z" />
<glyph unicode="Q" glyph-name="uni0051" horiz-adv-x="736" d="M690 325Q690 256 666 196T600 89L675 13L629 -33L550 47Q469 -10 362 -10Q215 -10 127 88T39 325Q39 465 129 562T364 660Q510 660 600 562T690 325ZM611 324Q611 441 544 517T364 594Q248 594
183 516T118 326Q118 216 183 136T366 56Q445 56 502 96L381 218L428 264L550 140Q611 212 611 324Z" />
<glyph unicode="R" glyph-name="uni0052" horiz-adv-x="617" d="M607 0H477L337 272H198V64H285V0H42V64H124V586H42V650H323Q444 650 496 598T548 466Q548 403 513 354T409 286L525 64H607V0ZM471 463Q471 527 434 556T314 586H198V333H316Q399 333 435 367T471 463Z" />
<glyph unicode="S" glyph-name="uni0053" horiz-adv-x="533" d="M490 182Q490 88 424 39T258 -10Q122 -10 49 43L63 171L123 165L119 83Q152 66 185 60T254 54Q318 54 364 81T411 175Q411 249 360 271T249 308Q203 318 158 333T83 382T53 480Q53 572 114 616T260
660Q314 660 369 645T455 606L461 477L401 471L391 568Q360 584 328 589T267 595Q206 595 169 568T131 488Q131 427 176 406T276 372Q320 362 369 347T454 294T490 182Z" />
<glyph unicode="T" glyph-name="uni0054" horiz-adv-x="620" d="M599 452L534 447L514 586H346V64H461V0H161V64H273V586H105L85 447L21 452L40 650H579L599 452Z" />
<glyph unicode="U" glyph-name="uni0055" horiz-adv-x="718" d="M680 586H617V267Q617 198 594 135T514 31T357 -10Q212 -10 158 70T103 256V586H36V650H267V586H177V258Q177 162 222 109T361 56Q548 56 548 267V586H455V650H680V586Z" />
<glyph unicode="V" glyph-name="uni0056" horiz-adv-x="648" d="M649 586H588L353 0H295L60 586H-4V650H231V586H140L326 108H331L513 586H421V650H649V586Z" />
<glyph unicode="W" glyph-name="uni0057" horiz-adv-x="934" d="M929 586H874L700 0H641L470 520H466L300 0H241L55 586H0V650H225V586H133L270 119H274L424 586H359V650H583V586H518L670 116H674L800 586H706V650H929V586Z" />
<glyph unicode="X" glyph-name="uni0058" horiz-adv-x="632" d="M625 0H398V64H478L312 286L153 64H230V0H6V64H73L275 336L82 586H17V650H239V586H166L317 386L461 586H395V650H615V586H543L354 337L563 64H625V0Z" />
<glyph unicode="Y" glyph-name="uni0059" horiz-adv-x="613" d="M610 586H546L344 248V64H458V0H159V64H271V249L60 586H-4V650H233V586H144L308 316H313L472 586H382V650H610V586Z" />
<glyph unicode="Z" glyph-name="uni005A" horiz-adv-x="577" d="M514 0H34L32 44L416 583V586H136L108 453L46 462L71 650H519L521 610L135 67V64H449L477 202L540 193L514 0Z" />
<glyph unicode="[" glyph-name="uni005B" horiz-adv-x="282" d="M84 -213V750H261V698H147V-161H261V-213H84Z" />
<glyph unicode="\" glyph-name="uni005C" horiz-adv-x="387" d="M92 688H161L376 0H307L92 688Z" />
<glyph unicode="]" glyph-name="uni005D" horiz-adv-x="282" d="M197 -213H20V-161H134V698H20V750H197V-213Z" />
<glyph unicode="^" glyph-name="uni005E" horiz-adv-x="452" d="M202 656H247L413 373H347L224 587L107 373H41L202 656Z" />
<glyph unicode="_" glyph-name="uni005F" horiz-adv-x="534" d="M52 -74H484V-125H52V-74Z" />
<glyph unicode="`" glyph-name="uni0060" horiz-adv-x="440" d="M352 551L331 520L158 624L198 683L352 551Z" />
<glyph unicode="a" glyph-name="uni0061" horiz-adv-x="483" d="M81 411Q116 434 155 444T238 454Q397 454 397 305V93Q397 45 435 45Q452 45 465 51L466 5Q439 -10 408 -10Q329 -10 327 80V82Q306 46 268 18T175 -10Q131 -10 86 17T40 115Q40 199 106 225T248
252Q268 252 288 251T327 248V288Q327 336 307 366T226 396Q177 396 140 378L123 301L65 308L81 411ZM327 167V201Q308 202 287 204T244 206Q194 206 154 191T113 123Q113 80 140 64T196 48Q242 48 282 80T327 167Z" />
<glyph unicode="b" glyph-name="uni0062" horiz-adv-x="534" d="M496 234Q496 175 476 119T412 27T298 -10Q186 -10 142 74L132 0H62Q66 29 71 63T76 130V631H-1V688H146V353Q166 394 203 424T305 454Q388 454 442 397T496 234ZM422 227Q422 310 383 352T288 394Q224
394 186 347T146 251V184Q146 128 185 89T283 50Q356 50 389 104T422 227Z" />
<glyph unicode="c" glyph-name="uni0063" horiz-adv-x="462" d="M428 150Q419 92 376 41T240 -10Q148 -10 93 49T38 216Q38 308 90 381T246 454Q290 454 327 444T398 408L415 301L357 294L340 369Q300 394 245 394Q174 394 143 343T112 220Q112 140 147 95T248
50Q348 50 368 163L428 150Z" />
<glyph unicode="d" glyph-name="uni0064" horiz-adv-x="549" d="M535 0H388V90Q366 50 328 20T229 -10Q143 -10 91 48T38 211Q38 300 84 377T239 454Q343 454 388 373V631H280V688H458V57H535V0ZM388 197V268Q386 324 347 359T255 394Q181 394 147 340T112 216Q112
134 150 92T247 50Q307 50 346 98T388 197Z" />
<glyph unicode="e" glyph-name="uni0065" horiz-adv-x="470" d="M435 128Q426 71 378 31T248 -10Q154 -10 96 49T38 216Q38 320 93 387T242 454Q334 454 382 396T431 259Q431 233 425 206H112Q118 50 253 50Q306 50 336 75T376 141L435 128ZM357 258Q362 308 334
352T240 396Q178 396 149 355T113 258H357Z" />
<glyph unicode="f" glyph-name="uni0066" horiz-adv-x="319" d="M260 698Q291 698 315 692T363 666L380 563L323 556L304 632Q284 640 253 640Q174 640 174 534V445H289V389H174V57H275V0H26V57H103V389H39V445H103V528Q103 606 149 652T260 698Z" />
<glyph unicode="g" glyph-name="uni0067" horiz-adv-x="548" d="M531 388H459V6Q459 -99 402 -161T240 -223Q170 -223 115 -191T41 -92L97 -64Q114 -116 156 -139T243 -163Q307 -163 347 -119T388 9V91Q368 52 330 23T229 -6Q150 -6 94 50T38 211Q38 300 86 377T237
454Q343 454 388 375V445H531V388ZM388 192V269Q388 325 350 359T256 394Q181 394 148 340T114 216Q114 134 151 94T244 54Q308 54 347 98T388 192Z" />
<glyph unicode="h" glyph-name="uni0068" horiz-adv-x="560" d="M551 0H325V57H403V264Q403 336 374 365T298 395Q240 395 204 356T165 267V57H242V0H17V57H94V631H17V688H165V365Q214 454 321 454Q386 454 430 414T474 285V57H551V0Z" />
<glyph unicode="i" glyph-name="uni0069" horiz-adv-x="280" d="M105 560V651H181V560H105ZM260 0H34V57H112V388H32V445H182V57H260V0Z" />
<glyph unicode="j" glyph-name="uni006A" horiz-adv-x="252" d="M101 560V651H177V560H101ZM177 -13Q177 -140 123 -185T-14 -224L-16 -170Q12 -170 40 -161T87 -119T106 -13V388H7V445H177V-13Z" />
<glyph unicode="k" glyph-name="uni006B" horiz-adv-x="520" d="M509 0H299V57H366L244 208H165V57H229V0H17V57H94V631H15V688H165V262H245L347 388H278V445H486V388H418L299 241L446 57H509V0Z" />
<glyph unicode="l" glyph-name="uni006C" horiz-adv-x="266" d="M246 0H20V57H98V631H19V688H168V57H246V0Z" />
<glyph unicode="m" glyph-name="uni006D" horiz-adv-x="863" d="M854 0H641V57H706V264Q706 336 678 365T605 395Q544 395 511 349T477 261V57H554V0H342V57H406V264Q406 337 378 366T307 395Q245 395 213 351T178 263V57H260V0H30V57H108V388H29V445H178V362Q200
402 237 428T327 454Q379 454 417 428T470 347Q490 394 529 424T627 454Q691 454 733 414T776 285V57H854V0Z" />
<glyph unicode="n" glyph-name="uni006E" horiz-adv-x="573" d="M564 0H339V57H416V264Q416 336 387 365T313 395Q253 395 217 356T178 265V57H256V0H30V57H108V388H28V445H178V366Q226 454 334 454Q399 454 443 414T487 285V57H564V0Z" />
<glyph unicode="o" glyph-name="uni006F" horiz-adv-x="513" d="M476 223Q476 122 416 56T253 -10Q152 -10 95 54T37 219Q37 316 93 385T257 455Q366 455 421 387T476 223ZM402 224Q402 300 364 347T255 395Q185 395 148 346T110 223Q110 150 147 100T255 50Q326
50 364 99T402 224Z" />
<glyph unicode="p" glyph-name="uni0070" horiz-adv-x="550" d="M512 235Q512 176 492 120T427 27T309 -10Q208 -10 162 65V-156H265V-213H13V-156H92V388H12V445H162V352Q182 392 220 423T320 454Q406 454 459 396T512 235ZM438 229Q438 309 399 351T302 394Q242
394 203 347T162 248V182Q162 126 201 88T295 50Q370 50 404 104T438 229Z" />
<glyph unicode="q" glyph-name="uni0071" horiz-adv-x="534" d="M527 -213H284V-156H388V91Q368 50 330 20T229 -10Q146 -10 92 47T38 210Q38 268 58 324T122 417T236 454Q288 454 330 432T394 368Q396 387 398 406T404 445H474Q467 410 463 376T459 307V-156H527V-213ZM388
197V264Q388 320 348 357T251 394Q178 394 145 340T112 217Q112 134 151 92T246 50Q309 50 347 98T388 197Z" />
<glyph unicode="r" glyph-name="uni0072" horiz-adv-x="420" d="M284 453Q332 453 360 430L377 318L320 311L303 387Q286 393 269 393Q230 393 204 361T178 276V57H281V0H30V57H108V388H28V445H174V365Q187 402 216 427T284 453Z" />
<glyph unicode="s" glyph-name="uni0073" horiz-adv-x="438" d="M399 129Q399 64 345 27T210 -10Q163 -10 117 2T41 34L55 135L111 129L108 70Q154 48 207 48Q254 48 290 66T327 123Q327 160 299 175T230 197T146 214T76 248T48 325Q48 396 100 425T213 454Q259
454 299 442T368 413L379 309L321 302L310 374Q268 396 219 396Q177 396 150 380T123 330Q123 295 151 281T220 260T302 243T371 208T399 129Z" />
<glyph unicode="t" glyph-name="uni0074" horiz-adv-x="371" d="M366 120Q348 -10 225 -10Q158 -10 123 28T87 131V389H15V445H87V588H157V445H331V389H157V140Q157 100 174 76T232 51Q258 51 280 67T313 137L366 120Z" />
<glyph unicode="u" glyph-name="uni0075" horiz-adv-x="561" d="M546 0H396V84Q375 42 335 16T241 -10Q176 -10 132 30T87 160V388H9V445H157V180Q157 108 187 79T264 50Q321 50 357 93T396 184V388H303V445H466V57H546V0Z" />
<glyph unicode="v" glyph-name="uni0076" horiz-adv-x="509" d="M500 388H446L283 0H229L59 388H7V445H212V388H135L259 95H265L376 388H305V445H500V388Z" />
<glyph unicode="w" glyph-name="uni0077" horiz-adv-x="766" d="M756 388H705L574 0H520L384 340H379L246 0H194L58 388H9V445H219V388H134L227 107H232L364 445H411L550 107H555L637 388H556V445H756V388Z" />
<glyph unicode="x" glyph-name="uni0078" horiz-adv-x="514" d="M498 0H302V57H360L256 185L151 57H204V0H19V57H80L220 222L79 388H19V445H222V388H162L262 262L365 388H312V445H490V388H438L299 226L442 57H498V0Z" />
<glyph unicode="y" glyph-name="uni0079" horiz-adv-x="511" d="M502 388H449L292 0L232 -156H308V-213H82V-156H165L223 1L61 388H8V445H214V388H136L261 89H267L378 388H306V445H502V388Z" />
<glyph unicode="z" glyph-name="uni007A" horiz-adv-x="464" d="M413 0H39L36 43L316 388H106L93 299L37 306L49 445H407L410 403L128 57H357L380 147L437 138L413 0Z" />
<glyph unicode="{" glyph-name="uni007B" horiz-adv-x="280" d="M110 267Q163 258 185 235T208 183Q208 150 187 102T144 1T122 -96Q122 -160 185 -160H249V-212H185Q124 -212 93 -180T62 -96Q62 -46 83 7T125 108T147 185Q147 224 110 235T49 247H30V287H49Q72
287 109 298T147 348Q147 378 126 426T83 529T62 634Q62 750 185 750H249V698H185Q122 698 122 634Q122 590 143 536T186 433T208 351Q208 323 186 299T110 267Z" />
<glyph unicode="|" glyph-name="uni007C" horiz-adv-x="233" d="M148 730V-80H85V730H148Z" />
<glyph unicode="}" glyph-name="uni007D" horiz-adv-x="280" d="M170 271Q117 280 95 303T72 355Q72 388 93 436T136 537T158 634Q158 698 95 698H31V750H95Q156 750 187 718T218 634Q218 584 197 531T155 430T133 353Q133 314 170 303T231 291H250V251H231Q208
251 171 240T133 190Q133 160 154 112T197 9T218 -96Q218 -212 95 -212H31V-160H95Q158 -160 158 -96Q158 -52 137 2T94 105T72 187Q72 215 94 239T170 271Z" />
<glyph unicode="~" glyph-name="uni007E" horiz-adv-x="611" d="M417 200Q370 200 335 218T265 253T188 271Q164 271 140 260T89 207L47 234Q76 288 114 312T192 336Q235 336 269 318T339 283T417 265Q448 265 471 281T521 342L567 312Q506 200 417 200Z" />
<glyph unicode="&#xa0;" glyph-name="uni00A0" horiz-adv-x="227" />
<glyph unicode="&#xa1;" glyph-name="uni00A1" horiz-adv-x="223" d="M64 349V446H154V349H64ZM153 -210H70L85 248H139L153 -210Z" />
<glyph unicode="&#xa2;" glyph-name="uni00A2" horiz-adv-x="475" d="M430 150Q422 96 385 48T271 -8V-84H225V-9Q140 -4 90 55T40 216Q40 303 86 373T225 452V529H271V453Q346 448 400 408L417 301L359 294L342 368Q310 388 271 392V52Q351 62 371 163L430 150ZM116
220Q116 70 225 53V391Q166 382 141 334T116 220Z" />
<glyph unicode="&#xa3;" glyph-name="uni00A3" horiz-adv-x="509" d="M460 83Q450 63 417 32T327 0H43V54Q89 76 102 119T116 235H48V281H116V334Q116 438 166 483T279 529Q332 529 363 519T421 490L438 373L379 366L361 455Q331 472 288 472Q244 472 215 443T186
335V281H365V235H186Q186 170 174 126T122 56H312Q357 56 382 74T424 116L460 83Z" />
<glyph unicode="&#xa4;" glyph-name="uni00A4" horiz-adv-x="514" d="M106 270Q106 318 133 356L39 451L69 481L163 388Q206 421 257 421Q309 421 350 388L443 481L474 451L380 357Q408 316 408 270Q408 221 379 181L474 87L443 56L348 150Q309 119 257 119Q206
119 164 151L69 56L39 87L134 182Q106 221 106 270ZM167 270Q167 228 193 202T258 176Q295 176 320 202T346 270Q346 312 321 338T258 364Q221 364 194 339T167 270Z" />
<glyph unicode="&#xa5;" glyph-name="uni00A5" horiz-adv-x="587" d="M237 465H166L298 259H303L430 465H357V521H553V465H502L364 249H467V206H336L332 199V152H467V110H332V56H428V0H169V56H262V110H125V152H262V200L258 206H125V249H229L86 465H34V521H237V465Z" />
<glyph unicode="&#xa6;" glyph-name="uni00A6" horiz-adv-x="228" d="M146 730V426H82V730H146ZM146 224V-80H82V224H146Z" />
<glyph unicode="&#xa7;" glyph-name="uni00A7" horiz-adv-x="589" d="M503 137Q503 67 448 29T301 -10Q246 -10 184 5T79 47L91 157L149 151L145 75Q180 58 221 51T302 44Q353 44 392 64T432 132Q432 181 388 196T269 222Q216 228 163 240T74 277T39 346Q39 381
61 405T119 443Q85 474 85 522Q85 589 140 624T279 660Q389 660 475 620L483 493L425 487L414 580Q352 607 283 607Q228 607 192 588T156 527Q156 483 196 465T295 437Q352 428 412 416T513 379T554 303Q554 268 534 243T480 202Q503 177 503 137ZM486 293Q486
326 452 342T367 368T269 385Q241 390 213 396T160 414Q106 394 106 354Q106 316 155 303T295 274Q335 268 372 260T438 239Q486 258 486 293Z" />
<glyph unicode="&#xa8;" glyph-name="uni00A8" horiz-adv-x="395" d="M62 555V640H143V555H62ZM233 555V640H314V555H233Z" />
<glyph unicode="&#xa9;" glyph-name="uni00A9" horiz-adv-x="624" d="M580 260Q580 148 502 71T312 -7Q201 -7 123 70T44 260Q44 372 122 450T313 529Q426 529 503 451T580 260ZM537 260Q537 354 475 420T313 487Q213 487 150 421T87 260Q87 166 150 100T312 34Q408
34 472 100T537 260ZM429 122Q389 91 316 91Q244 91 199 138T153 261Q153 334 197 384T311 434Q353 434 382 424T431 396L440 331L404 327L395 377Q378 388 361 393T316 399Q261 399 230 362T198 262Q198 200 230 164T322 127Q366 127 392 140L402 191L438 187L429
122Z" />
<glyph unicode="&#xaa;" glyph-name="uni00AA" horiz-adv-x="377" d="M177 662Q150 662 120 647L107 595L64 599L74 669Q119 701 184 701Q296 701 296 603V467Q296 437 319 437Q330 437 337 440L338 409Q319 398 295 398Q240 398 238 459Q224 435 199 417T137
398Q106 398 75 416T44 480Q44 535 89 551T182 568Q198 568 212 567T238 565V589Q238 617 226 639T177 662ZM238 516V535Q226 536 212 537T185 539Q156 539 131 529T106 487Q106 461 122 450T158 439Q187 439 211 459T238 516Z" />
<glyph unicode="&#xab;" glyph-name="uni00AB" horiz-adv-x="451" d="M239 25H179L41 271L179 511H239L110 271L239 25ZM404 25H343L205 271L343 511H404L275 271L404 25Z" />
<glyph unicode="&#xac;" glyph-name="uni00AC" horiz-adv-x="605" d="M491 99V256H62V308H543V99H491Z" />
<glyph unicode="&#xae;" glyph-name="uni00AE" horiz-adv-x="591" d="M296 159Q192 159 119 231T46 409Q46 513 119 586T297 660Q402 660 474 587T547 409Q547 305 474 232T296 159ZM297 200Q386 200 445 261T504 409Q504 496 446 557T297 619Q206 619 147 558T88
409Q88 322 147 261T297 200ZM177 308H213V528H177V559H306Q360 559 385 537T410 479Q410 419 347 400L398 308H434V277H371L309 393H252V308H290V277H177V308ZM299 423Q367 423 367 478Q367 528 299 528H252V423H299Z" />
<glyph unicode="&#xaf;" glyph-name="uni00AF" horiz-adv-x="335" d="M286 564H42V621H286V564Z" />
<glyph unicode="&#xb0;" glyph-name="uni00B0" horiz-adv-x="396" d="M198 342Q125 342 82 387T39 500Q39 568 83 614T200 660Q274 660 316 614T358 501Q358 434 315 388T198 342ZM198 395Q242 395 270 422T298 500Q298 552 270 579T199 607Q156 607 127 580T98
501Q98 451 126 423T198 395Z" />
<glyph unicode="&#xb1;" glyph-name="uni00B1" horiz-adv-x="451" d="M53 259V313H202V460H255V313H400V259H255V113H202V259H53ZM53 0V53H400V0H53Z" />
<glyph unicode="&#xb2;" glyph-name="uni00B2" horiz-adv-x="347" d="M87 667L42 672L53 748Q75 767 107 776T172 785Q236 785 264 755T292 688Q292 640 257 596T178 517T108 460H264L274 514L321 509L311 415H39L34 456Q76 491 121 529T197 606T228 683Q228 707
212 723T157 740Q126 740 100 723L87 667Z" />
<glyph unicode="&#xb3;" glyph-name="uni00B3" horiz-adv-x="342" d="M93 673L48 678L57 747Q80 766 114 775T178 784Q228 784 258 760T289 695Q289 668 273 645T215 609V607Q266 600 285 574T305 516Q305 462 263 435T161 408Q110 408 77 434T37 505L79 517Q85
493 104 474T163 454Q200 454 221 473T242 522Q242 550 219 567T138 585V623Q227 627 227 687Q227 739 164 739Q132 739 104 723L93 673Z" />
<glyph unicode="&#xb4;" glyph-name="uni00B4" horiz-adv-x="440" d="M364 624L192 520L170 551L324 683L364 624Z" />
<glyph unicode="&#xb5;" glyph-name="uni00B5" horiz-adv-x="572" d="M96 -213V388H19V445H167V173Q168 105 197 76T273 47Q331 47 367 87T405 175V388H313V445H475V57H555V0H405V84Q384 41 344 16T250 -10Q202 -10 167 10V-213H96Z" />
<glyph unicode="&#xb6;" glyph-name="uni00B6" horiz-adv-x="618" d="M578 650V588H502V0H435V588H372V0H304V310H247Q155 310 93 349T30 484Q30 552 85 601T253 650H578Z" />
<glyph unicode="&#xb7;" glyph-name="uni00B7" horiz-adv-x="219" d="M59 256V358H156V256H59Z" />
<glyph unicode="&#xb8;" glyph-name="uni00B8" horiz-adv-x="256" d="M259 -125Q259 -170 227 -189T151 -209Q91 -209 55 -179L72 -138Q102 -161 147 -161Q198 -161 198 -120Q198 -95 181 -88T140 -80H110V6H162V-47H170Q216 -47 237 -69T259 -125Z" />
<glyph unicode="&#xb9;" glyph-name="uni00B9" horiz-adv-x="260" d="M35 460H110V734H35V779H168V460H240V415H35V460Z" />
<glyph unicode="&#xba;" glyph-name="uni00BA" horiz-adv-x="379" d="M38 547Q38 611 76 656T190 701Q265 701 302 657T340 550Q340 483 298 441T186 398Q118 398 78 439T38 547ZM100 551Q100 506 122 475T188 444Q231 444 254 474T278 551Q278 654 189 654Q146
654 123 626T100 551Z" />
<glyph unicode="&#xbb;" glyph-name="uni00BB" horiz-adv-x="451" d="M272 25H212L341 271L212 511H272L410 271L272 25ZM108 25H48L176 271L48 511H108L246 271L108 25Z" />
<glyph unicode="&#xbc;" glyph-name="uni00BC" horiz-adv-x="708" d="M567 650L377 325L195 0H142L339 337L514 650H567ZM44 331H119V605H44V650H177V331H249V286H44V331ZM557 -1V89H377L371 132L501 364H615V133H676L672 89H615V-1H557ZM530 319L424 133H557V319H530Z" />
<glyph unicode="&#xbd;" glyph-name="uni00BD" horiz-adv-x="746" d="M561 650L371 325L189 0H136L333 337L508 650H561ZM41 331H116V605H41V650H174V331H246V286H41V331ZM489 252L444 257L455 333Q477 352 509 361T574 370Q638 370 666 340T694 273Q694 225 659
181T580 101T510 45H666L676 99L723 94L713 0H441L436 41Q478 76 523 114T599 191T630 268Q630 292 614 308T559 325Q528 325 502 308L489 252Z" />
<glyph unicode="&#xbe;" glyph-name="uni00BE" horiz-adv-x="734" d="M97 549L52 554L61 623Q84 642 118 651T182 660Q232 660 262 636T293 571Q293 544 277 521T219 485V483Q270 476 289 450T309 392Q309 338 267 311T165 284Q114 284 81 310T41 381L83 393Q89
369 108 350T167 330Q204 330 225 349T246 398Q246 426 223 443T142 461V499Q231 503 231 563Q231 615 168 615Q136 615 108 599L97 549ZM595 650L405 325L223 0H170L367 337L542 650H595ZM583 -1V89H403L397 132L527 364H641V133H702L698 89H641V-1H583ZM556 319L450
133H583V319H556Z" />
<glyph unicode="&#xbf;" glyph-name="uni00BF" horiz-adv-x="440" d="M277 446V349H188V446H277ZM338 -14L396 -19L388 -139Q358 -170 311 -192T212 -214Q136 -214 82 -178T28 -79Q28 -28 59 6T130 65T201 116T232 174Q232 215 179 215V265Q247 269 277 244T307
180Q307 135 277 105T207 51T137 0T106 -69Q106 -103 134 -126T217 -149Q278 -149 325 -110L338 -14Z" />
<glyph unicode="&#xc0;" glyph-name="uni00C0" horiz-adv-x="648" d="M372 740L362 703L164 745L181 813L372 740ZM655 0H424V64H511L464 189H186L136 64H230V0H1V64H62L275 586H171V650H356L589 64H655V0ZM443 246L331 544H325L208 246H443Z" />
<glyph unicode="&#xc1;" glyph-name="uni00C1" horiz-adv-x="648" d="M482 745L285 703L274 740L465 813L482 745ZM655 0H424V64H511L464 189H186L136 64H230V0H1V64H62L275 586H171V650H356L589 64H655V0ZM443 246L331 544H325L208 246H443Z" />
<glyph unicode="&#xc2;" glyph-name="uni00C2" horiz-adv-x="648" d="M460 737L441 702L321 764L205 701L186 734L313 827H334L460 737ZM655 0H424V64H511L464 189H186L136 64H230V0H1V64H62L275 586H171V650H356L589 64H655V0ZM443 246L331 544H325L208 246H443Z" />
<glyph unicode="&#xc3;" glyph-name="uni00C3" horiz-adv-x="648" d="M454 798Q446 758 429 734T376 709Q338 709 310 726T253 744Q239 744 225 737T203 705L170 718Q174 744 194 772T252 800Q285 800 310 783T371 765Q384 765 397 772T418 807L454 798ZM655 0H424V64H511L464
189H186L136 64H230V0H1V64H62L275 586H171V650H356L589 64H655V0ZM443 246L331 544H325L208 246H443Z" />
<glyph unicode="&#xc4;" glyph-name="uni00C4" horiz-adv-x="648" d="M197 718V803H278V718H197ZM369 718V803H449V718H369ZM655 0H424V64H511L464 189H186L136 64H230V0H1V64H62L275 586H171V650H356L589 64H655V0ZM443 246L331 544H325L208 246H443Z" />
<glyph unicode="&#xc5;" glyph-name="uni00C5" horiz-adv-x="648" d="M421 784Q421 743 397 717T322 690Q224 690 224 782Q224 823 250 848T323 874Q374 874 397 849T421 784ZM372 784Q372 804 361 819T322 834Q273 834 273 782Q273 730 322 730Q372 730 372 784ZM655
0H424V64H511L464 189H186L136 64H230V0H1V64H62L275 586H171V650H356L589 64H655V0ZM443 246L331 544H325L208 246H443Z" />
<glyph unicode="&#xc6;" glyph-name="uni00C6" horiz-adv-x="919" d="M855 0H372V64H453V189H194L132 64H222V0H-7V64H59L317 586H220V650H846L865 467L801 459L781 586H527V362H833V298H527V64H790L810 191L874 184L855 0ZM453 246V586H387L221 246H453Z" />
<glyph unicode="&#xc7;" glyph-name="uni00C7" horiz-adv-x="646" d="M463 -125Q463 -170 431 -189T355 -209Q295 -209 259 -179L276 -138Q306 -161 351 -161Q402 -161 402 -120Q402 -95 385 -88T344 -80H314V-7Q190 7 115 98T39 321Q39 411 77 488T184 613T348
660Q429 660 483 639T578 584L596 459L533 453L515 548Q484 569 447 581T354 594Q248 594 182 518T116 324Q116 203 183 130T367 56Q452 56 510 85L529 181L591 175L574 50Q500 -7 366 -10V-47H374Q420 -47 441 -69T463 -125Z" />
<glyph unicode="&#xc8;" glyph-name="uni00C8" horiz-adv-x="589" d="M397 740L387 703L189 745L206 813L397 740ZM526 0H42V64H124V586H42V650H517L537 466L473 459L453 586H197V362H504V298H197V64H462L482 191L545 184L526 0Z" />
<glyph unicode="&#xc9;" glyph-name="uni00C9" horiz-adv-x="589" d="M465 745L268 703L257 740L448 813L465 745ZM526 0H42V64H124V586H42V650H517L537 466L473 459L453 586H197V362H504V298H197V64H462L482 191L545 184L526 0Z" />
<glyph unicode="&#xca;" glyph-name="uni00CA" horiz-adv-x="589" d="M468 737L449 702L329 764L213 701L194 734L321 827H342L468 737ZM526 0H42V64H124V586H42V650H517L537 466L473 459L453 586H197V362H504V298H197V64H462L482 191L545 184L526 0Z" />
<glyph unicode="&#xcb;" glyph-name="uni00CB" horiz-adv-x="589" d="M196 718V803H277V718H196ZM368 718V803H448V718H368ZM526 0H42V64H124V586H42V650H517L537 466L473 459L453 586H197V362H504V298H197V64H462L482 191L545 184L526 0Z" />
<glyph unicode="&#xcc;" glyph-name="uni00CC" horiz-adv-x="322" d="M246 740L236 703L38 745L55 813L246 740ZM279 0H42V64H124V586H42V650H279V586H198V64H279V0Z" />
<glyph unicode="&#xcd;" glyph-name="uni00CD" horiz-adv-x="322" d="M283 745L86 703L75 740L266 813L283 745ZM279 0H42V64H124V586H42V650H279V586H198V64H279V0Z" />
<glyph unicode="&#xce;" glyph-name="uni00CE" horiz-adv-x="322" d="M299 737L280 702L160 764L44 701L25 734L152 827H173L299 737ZM279 0H42V64H124V586H42V650H279V586H198V64H279V0Z" />
<glyph unicode="&#xcf;" glyph-name="uni00CF" horiz-adv-x="322" d="M38 718V803H119V718H38ZM210 718V803H290V718H210ZM279 0H42V64H124V586H42V650H279V586H198V64H279V0Z" />
<glyph unicode="&#xd0;" glyph-name="uni00D0" horiz-adv-x="706" d="M665 326Q665 183 578 92T336 0H42V63H124V308H46V370H124V587H42V650H333Q492 650 578 559T665 326ZM587 325Q587 443 522 515T332 587H197V370H332V308H197V63H332Q456 63 521 133T587 325Z" />
<glyph unicode="&#xd1;" glyph-name="uni00D1" horiz-adv-x="738" d="M506 798Q498 758 481 734T428 709Q390 709 362 726T305 744Q291 744 277 737T255 705L222 718Q226 744 246 772T304 800Q337 800 362 783T423 765Q436 765 449 772T470 807L506 798ZM703 586H622V0H575L198
512H194V64H297V0H49V64H124V586H38V650H178L548 149H552V586H454V650H703V586Z" />
<glyph unicode="&#xd2;" glyph-name="uni00D2" horiz-adv-x="728" d="M433 740L423 703L225 745L242 813L433 740ZM690 325Q690 233 649 157T534 36T362 -10Q215 -10 127 88T39 325Q39 465 129 562T364 660Q510 660 600 562T690 325ZM611 324Q611 441 544 517T364
594Q248 594 183 516T118 326Q118 216 183 136T366 56Q481 56 546 133T611 324Z" />
<glyph unicode="&#xd3;" glyph-name="uni00D3" horiz-adv-x="728" d="M518 745L321 703L310 740L501 813L518 745ZM690 325Q690 233 649 157T534 36T362 -10Q215 -10 127 88T39 325Q39 465 129 562T364 660Q510 660 600 562T690 325ZM611 324Q611 441 544 517T364
594Q248 594 183 516T118 326Q118 216 183 136T366 56Q481 56 546 133T611 324Z" />
<glyph unicode="&#xd4;" glyph-name="uni00D4" horiz-adv-x="728" d="M504 737L485 702L365 764L249 701L230 734L357 827H378L504 737ZM690 325Q690 233 649 157T534 36T362 -10Q215 -10 127 88T39 325Q39 465 129 562T364 660Q510 660 600 562T690 325ZM611
324Q611 441 544 517T364 594Q248 594 183 516T118 326Q118 216 183 136T366 56Q481 56 546 133T611 324Z" />
<glyph unicode="&#xd5;" glyph-name="uni00D5" horiz-adv-x="728" d="M511 798Q504 758 487 734T433 709Q395 709 367 726T310 744Q296 744 282 737T260 705L227 718Q231 744 251 772T309 800Q342 800 367 783T428 765Q442 765 454 772T475 807L511 798ZM690 325Q690
233 649 157T534 36T362 -10Q215 -10 127 88T39 325Q39 465 129 562T364 660Q510 660 600 562T690 325ZM611 324Q611 441 544 517T364 594Q248 594 183 516T118 326Q118 216 183 136T366 56Q481 56 546 133T611 324Z" />
<glyph unicode="&#xd6;" glyph-name="uni00D6" horiz-adv-x="728" d="M241 718V803H322V718H241ZM413 718V803H493V718H413ZM690 325Q690 233 649 157T534 36T362 -10Q215 -10 127 88T39 325Q39 465 129 562T364 660Q510 660 600 562T690 325ZM611 324Q611 441
544 517T364 594Q248 594 183 516T118 326Q118 216 183 136T366 56Q481 56 546 133T611 324Z" />
<glyph unicode="&#xd7;" glyph-name="uni00D7" horiz-adv-x="388" d="M89 131L52 169L157 274L53 379L90 417L194 312L297 415L334 377L232 275L335 172L298 133L194 237L89 131Z" />
<glyph unicode="&#xd8;" glyph-name="uni00D8" horiz-adv-x="735" d="M693 325Q693 233 652 157T537 36T365 -10Q248 -10 165 56L116 0H43L125 93Q42 189 42 325Q42 465 132 562T367 660Q482 660 566 595L615 650H694L609 555Q693 460 693 325ZM121 326Q121 222
174 149L520 542Q457 594 367 594Q252 594 187 516T121 326ZM614 324Q614 428 561 500L213 109Q275 56 369 56Q484 56 549 133T614 324Z" />
<glyph unicode="&#xd9;" glyph-name="uni00D9" horiz-adv-x="717" d="M447 740L437 703L239 745L256 813L447 740ZM680 586H617V267Q617 198 594 135T514 31T357 -10Q212 -10 158 70T103 256V586H36V650H267V586H177V258Q177 162 222 109T361 56Q548 56 548 267V586H455V650H680V586Z"
/>
<glyph unicode="&#xda;" glyph-name="uni00DA" horiz-adv-x="717" d="M510 745L313 703L302 740L493 813L510 745ZM680 586H617V267Q617 198 594 135T514 31T357 -10Q212 -10 158 70T103 256V586H36V650H267V586H177V258Q177 162 222 109T361 56Q548 56 548 267V586H455V650H680V586Z"
/>
<glyph unicode="&#xdb;" glyph-name="uni00DB" horiz-adv-x="717" d="M497 737L478 702L358 764L242 701L223 734L350 827H371L497 737ZM680 586H617V267Q617 198 594 135T514 31T357 -10Q212 -10 158 70T103 256V586H36V650H267V586H177V258Q177 162 222 109T361
56Q548 56 548 267V586H455V650H680V586Z" />
<glyph unicode="&#xdc;" glyph-name="uni00DC" horiz-adv-x="717" d="M237 718V803H318V718H237ZM409 718V803H489V718H409ZM680 586H617V267Q617 198 594 135T514 31T357 -10Q212 -10 158 70T103 256V586H36V650H267V586H177V258Q177 162 222 109T361 56Q548
56 548 267V586H455V650H680V586Z" />
<glyph unicode="&#xdd;" glyph-name="uni00DD" horiz-adv-x="613" d="M441 745L244 703L233 740L424 813L441 745ZM610 586H546L344 248V64H458V0H159V64H271V249L60 586H-4V650H233V586H144L308 316H313L472 586H382V650H610V586Z" />
<glyph unicode="&#xde;" glyph-name="uni00DE" horiz-adv-x="572" d="M279 0H42V64H124V586H42V650H279V586H198V525H323Q443 525 496 472T549 340Q549 242 487 191T329 139H198V64H279V0ZM317 471H198V194H319Q471 194 471 338Q471 400 434 435T317 471Z" />
<glyph unicode="&#xdf;" glyph-name="uni00DF" horiz-adv-x="652" d="M633 128Q633 63 581 27T453 -10Q404 -10 354 1T274 34L287 135L344 129L341 73Q362 58 391 53T448 48Q494 48 527 66T561 122Q561 159 533 175T463 198T380 215T310 248T281 320Q281 374 314
401T389 447T465 486T498 550Q498 592 458 615T346 639Q247 639 211 595T174 486V0H26V57H103V388H39V445H103V491Q103 587 168 642T351 698Q457 698 513 657T569 554Q569 503 537 475T463 429T389 388T357 328Q357 296 385 283T454 262T536 245T605 208T633 128Z"
/>
<glyph unicode="&#xe0;" glyph-name="uni00E0" horiz-adv-x="483" d="M295 551L274 520L101 624L141 683L295 551ZM81 411Q116 434 155 444T238 454Q397 454 397 305V93Q397 45 435 45Q452 45 465 51L466 5Q439 -10 408 -10Q329 -10 327 80V82Q306 46 268 18T175
-10Q131 -10 86 17T40 115Q40 199 106 225T248 252Q268 252 288 251T327 248V288Q327 336 307 366T226 396Q177 396 140 378L123 301L65 308L81 411ZM327 167V201Q308 202 287 204T244 206Q194 206 154 191T113 123Q113 80 140 64T196 48Q242 48 282 80T327 167Z"
/>
<glyph unicode="&#xe1;" glyph-name="uni00E1" horiz-adv-x="483" d="M377 624L205 520L183 551L337 683L377 624ZM81 411Q116 434 155 444T238 454Q397 454 397 305V93Q397 45 435 45Q452 45 465 51L466 5Q439 -10 408 -10Q329 -10 327 80V82Q306 46 268 18T175
-10Q131 -10 86 17T40 115Q40 199 106 225T248 252Q268 252 288 251T327 248V288Q327 336 307 366T226 396Q177 396 140 378L123 301L65 308L81 411ZM327 167V201Q308 202 287 204T244 206Q194 206 154 191T113 123Q113 80 140 64T196 48Q242 48 282 80T327 167Z"
/>
<glyph unicode="&#xe2;" glyph-name="uni00E2" horiz-adv-x="483" d="M367 553L340 519L229 603L128 519L103 551L224 671H246L367 553ZM81 411Q116 434 155 444T238 454Q397 454 397 305V93Q397 45 435 45Q452 45 465 51L466 5Q439 -10 408 -10Q329 -10 327 80V82Q306
46 268 18T175 -10Q131 -10 86 17T40 115Q40 199 106 225T248 252Q268 252 288 251T327 248V288Q327 336 307 366T226 396Q177 396 140 378L123 301L65 308L81 411ZM327 167V201Q308 202 287 204T244 206Q194 206 154 191T113 123Q113 80 140 64T196 48Q242 48
282 80T327 167Z" />
<glyph unicode="&#xe3;" glyph-name="uni00E3" horiz-adv-x="483" d="M370 646Q363 606 346 580T293 553Q254 553 226 572T170 592Q156 592 141 583T119 549L86 561Q90 587 109 618T167 649Q201 649 226 631T287 612Q300 612 313 620T334 655L370 646ZM81 411Q116
434 155 444T238 454Q397 454 397 305V93Q397 45 435 45Q452 45 465 51L466 5Q439 -10 408 -10Q329 -10 327 80V82Q306 46 268 18T175 -10Q131 -10 86 17T40 115Q40 199 106 225T248 252Q268 252 288 251T327 248V288Q327 336 307 366T226 396Q177 396 140 378L123
301L65 308L81 411ZM327 167V201Q308 202 287 204T244 206Q194 206 154 191T113 123Q113 80 140 64T196 48Q242 48 282 80T327 167Z" />
<glyph unicode="&#xe4;" glyph-name="uni00E4" horiz-adv-x="483" d="M108 555V640H189V555H108ZM279 555V640H360V555H279ZM81 411Q116 434 155 444T238 454Q397 454 397 305V93Q397 45 435 45Q452 45 465 51L466 5Q439 -10 408 -10Q329 -10 327 80V82Q306 46
268 18T175 -10Q131 -10 86 17T40 115Q40 199 106 225T248 252Q268 252 288 251T327 248V288Q327 336 307 366T226 396Q177 396 140 378L123 301L65 308L81 411ZM327 167V201Q308 202 287 204T244 206Q194 206 154 191T113 123Q113 80 140 64T196 48Q242 48 282
80T327 167Z" />
<glyph unicode="&#xe5;" glyph-name="uni00E5" horiz-adv-x="483" d="M334 607Q334 566 309 540T235 514Q137 514 137 606Q137 646 163 672T236 698Q287 698 310 673T334 607ZM285 608Q285 628 274 643T235 658Q210 658 198 643T186 606Q186 554 235 554Q261 554
273 570T285 608ZM81 411Q116 434 155 444T238 454Q397 454 397 305V93Q397 45 435 45Q452 45 465 51L466 5Q439 -10 408 -10Q329 -10 327 80V82Q306 46 268 18T175 -10Q131 -10 86 17T40 115Q40 199 106 225T248 252Q268 252 288 251T327 248V288Q327 336 307
366T226 396Q177 396 140 378L123 301L65 308L81 411ZM327 167V201Q308 202 287 204T244 206Q194 206 154 191T113 123Q113 80 140 64T196 48Q242 48 282 80T327 167Z" />
<glyph unicode="&#xe6;" glyph-name="uni00E6" horiz-adv-x="759" d="M724 128Q715 71 668 31T537 -10Q405 -10 354 95Q331 58 289 24T179 -10Q132 -10 86 17T39 115Q39 199 106 225T250 252Q269 252 289 251T328 248V288Q328 334 308 365T231 396Q178 396 141
378L123 301L65 308L82 411Q146 454 247 454Q345 454 379 382Q437 454 531 454Q623 454 671 396T720 259Q720 233 714 206H402Q408 51 543 51Q596 51 625 75T665 141L724 128ZM646 257Q651 306 623 350T529 395Q468 395 439 355T403 257H646ZM114 123Q114 80 141
64T197 48Q244 48 284 80T328 168V201Q309 202 288 204T247 206Q196 206 155 191T114 123Z" />
<glyph unicode="&#xe7;" glyph-name="uni00E7" horiz-adv-x="462" d="M360 -126Q360 -171 328 -190T252 -210Q192 -210 156 -180L173 -139Q203 -162 248 -162Q299 -162 299 -121Q299 -96 282 -89T241 -81H211V-8Q131 0 85 58T38 216Q38 308 90 381T246 454Q290
454 327 444T398 408L415 301L357 294L340 369Q300 394 245 394Q174 394 143 343T112 220Q112 140 147 95T248 50Q348 50 368 163L428 150Q420 95 381 47T263 -9V-48H271Q318 -48 339 -70T360 -126Z" />
<glyph unicode="&#xe8;" glyph-name="uni00E8" horiz-adv-x="470" d="M303 551L282 520L109 624L149 683L303 551ZM435 128Q426 71 378 31T248 -10Q154 -10 96 49T38 216Q38 320 93 387T242 454Q334 454 382 396T431 259Q431 233 425 206H112Q118 50 253 50Q306
50 336 75T376 141L435 128ZM357 258Q362 308 334 352T240 396Q178 396 149 355T113 258H357Z" />
<glyph unicode="&#xe9;" glyph-name="uni00E9" horiz-adv-x="470" d="M397 624L225 520L203 551L357 683L397 624ZM435 128Q426 71 378 31T248 -10Q154 -10 96 49T38 216Q38 320 93 387T242 454Q334 454 382 396T431 259Q431 233 425 206H112Q118 50 253 50Q306
50 336 75T376 141L435 128ZM357 258Q362 308 334 352T240 396Q178 396 149 355T113 258H357Z" />
<glyph unicode="&#xea;" glyph-name="uni00EA" horiz-adv-x="470" d="M380 553L353 519L242 603L141 519L116 551L237 671H259L380 553ZM435 128Q426 71 378 31T248 -10Q154 -10 96 49T38 216Q38 320 93 387T242 454Q334 454 382 396T431 259Q431 233 425 206H112Q118
50 253 50Q306 50 336 75T376 141L435 128ZM357 258Q362 308 334 352T240 396Q178 396 149 355T113 258H357Z" />
<glyph unicode="&#xeb;" glyph-name="uni00EB" horiz-adv-x="470" d="M121 555V640H202V555H121ZM292 555V640H373V555H292ZM435 128Q426 71 378 31T248 -10Q154 -10 96 49T38 216Q38 320 93 387T242 454Q334 454 382 396T431 259Q431 233 425 206H112Q118 50
253 50Q306 50 336 75T376 141L435 128ZM357 258Q362 308 334 352T240 396Q178 396 149 355T113 258H357Z" />
<glyph unicode="&#xec;" glyph-name="uni00EC" horiz-adv-x="280" d="M186 551L165 520L-8 624L32 683L186 551ZM34 57H112V388H32V445H182V57H260V0H34V57Z" />
<glyph unicode="&#xed;" glyph-name="uni00ED" horiz-adv-x="280" d="M241 624L69 520L47 551L201 683L241 624ZM34 57H112V388H32V445H182V57H260V0H34V57Z" />
<glyph unicode="&#xee;" glyph-name="uni00EE" horiz-adv-x="279" d="M265 553L238 519L127 603L26 519L1 551L122 671H144L265 553ZM34 57H112V388H32V445H182V57H260V0H34V57Z" />
<glyph unicode="&#xef;" glyph-name="uni00EF" horiz-adv-x="280" d="M173 555V640H254V555H173ZM2 555V640H83V555H2ZM34 57H112V388H32V445H182V57H260V0H34V57Z" />
<glyph unicode="&#xf0;" glyph-name="uni00F0" horiz-adv-x="524" d="M157 526L215 596Q174 624 134 646L163 698Q186 685 209 672T253 643L301 701L340 674L291 614Q373 548 424 459T475 257V223Q475 121 416 56T253 -10Q152 -10 95 54T37 219Q37 320 95 387T248
454Q290 454 321 440T375 406Q340 497 253 567L197 498L157 526ZM252 393Q184 393 148 345T112 223Q112 151 148 101T256 51Q326 51 363 99T400 220V263Q398 304 359 348T252 393Z" />
<glyph unicode="&#xf1;" glyph-name="uni00F1" horiz-adv-x="573" d="M434 646Q427 606 410 580T357 553Q318 553 290 572T234 592Q220 592 205 583T183 549L150 561Q154 587 173 618T231 649Q265 649 290 631T351 612Q364 612 377 620T398 655L434 646ZM564 0H339V57H416V264Q416
336 387 365T313 395Q253 395 217 356T178 265V57H256V0H30V57H108V388H28V445H178V366Q226 454 334 454Q399 454 443 414T487 285V57H564V0Z" />
<glyph unicode="&#xf2;" glyph-name="uni00F2" horiz-adv-x="513" d="M317 551L296 520L123 624L163 683L317 551ZM476 223Q476 122 416 56T253 -10Q152 -10 95 54T37 219Q37 316 93 385T257 455Q366 455 421 387T476 223ZM402 224Q402 300 364 347T255 395Q185
395 148 346T110 223Q110 150 147 100T255 50Q326 50 364 99T402 224Z" />
<glyph unicode="&#xf3;" glyph-name="uni00F3" horiz-adv-x="513" d="M411 624L239 520L217 551L371 683L411 624ZM476 223Q476 122 416 56T253 -10Q152 -10 95 54T37 219Q37 316 93 385T257 455Q366 455 421 387T476 223ZM402 224Q402 300 364 347T255 395Q185
395 148 346T110 223Q110 150 147 100T255 50Q326 50 364 99T402 224Z" />
<glyph unicode="&#xf4;" glyph-name="uni00F4" horiz-adv-x="513" d="M392 553L365 519L254 603L153 519L128 551L249 671H271L392 553ZM476 223Q476 122 416 56T253 -10Q152 -10 95 54T37 219Q37 316 93 385T257 455Q366 455 421 387T476 223ZM402 224Q402 300
364 347T255 395Q185 395 148 346T110 223Q110 150 147 100T255 50Q326 50 364 99T402 224Z" />
<glyph unicode="&#xf5;" glyph-name="uni00F5" horiz-adv-x="513" d="M396 646Q389 606 372 580T319 553Q280 553 252 572T196 592Q182 592 167 583T145 549L112 561Q116 587 135 618T193 649Q227 649 252 631T313 612Q326 612 339 620T360 655L396 646ZM476 223Q476
122 416 56T253 -10Q152 -10 95 54T37 219Q37 316 93 385T257 455Q366 455 421 387T476 223ZM402 224Q402 300 364 347T255 395Q185 395 148 346T110 223Q110 150 147 100T255 50Q326 50 364 99T402 224Z" />
<glyph unicode="&#xf6;" glyph-name="uni00F6" horiz-adv-x="513" d="M131 555V640H212V555H131ZM302 555V640H383V555H302ZM476 223Q476 122 416 56T253 -10Q152 -10 95 54T37 219Q37 316 93 385T257 455Q366 455 421 387T476 223ZM402 224Q402 300 364 347T255
395Q185 395 148 346T110 223Q110 150 147 100T255 50Q326 50 364 99T402 224Z" />
<glyph unicode="&#xf7;" glyph-name="uni00F7" horiz-adv-x="448" d="M173 374V477H270V374H173ZM397 254H50V308H397V254ZM173 86V189H270V86H173Z" />
<glyph unicode="&#xf8;" glyph-name="uni00F8" horiz-adv-x="516" d="M478 223Q478 121 418 56T254 -10Q178 -10 123 29L99 0H38L89 61Q38 123 38 219Q38 316 94 385T259 454Q335 454 390 415L416 445H478L425 383Q478 319 478 223ZM113 223Q113 161 138 118L346
363Q310 393 257 393Q187 393 150 345T113 223ZM402 224Q402 283 377 327L168 81Q203 51 257 51Q328 51 365 100T402 224Z" />
<glyph unicode="&#xf9;" glyph-name="uni00F9" horiz-adv-x="562" d="M310 551L289 520L116 624L156 683L310 551ZM546 0H396V84Q375 42 335 16T241 -10Q176 -10 132 30T87 160V388H9V445H157V180Q157 108 187 79T264 50Q321 50 357 93T396 184V388H303V445H466V57H546V0Z"
/>
<glyph unicode="&#xfa;" glyph-name="uni00FA" horiz-adv-x="562" d="M421 624L249 520L227 551L381 683L421 624ZM546 0H396V84Q375 42 335 16T241 -10Q176 -10 132 30T87 160V388H9V445H157V180Q157 108 187 79T264 50Q321 50 357 93T396 184V388H303V445H466V57H546V0Z"
/>
<glyph unicode="&#xfb;" glyph-name="uni00FB" horiz-adv-x="562" d="M401 553L374 519L263 603L162 519L137 551L258 671H280L401 553ZM546 0H396V84Q375 42 335 16T241 -10Q176 -10 132 30T87 160V388H9V445H157V180Q157 108 187 79T264 50Q321 50 357 93T396
184V388H303V445H466V57H546V0Z" />
<glyph unicode="&#xfc;" glyph-name="uni00FC" horiz-adv-x="562" d="M133 555V640H214V555H133ZM304 555V640H385V555H304ZM546 0H396V84Q375 42 335 16T241 -10Q176 -10 132 30T87 160V388H9V445H157V180Q157 108 187 79T264 50Q321 50 357 93T396 184V388H303V445H466V57H546V0Z"
/>
<glyph unicode="&#xfd;" glyph-name="uni00FD" horiz-adv-x="511" d="M405 624L233 520L211 551L365 683L405 624ZM502 388H449L292 0L232 -156H308V-213H82V-156H165L223 1L61 388H8V445H214V388H136L261 89H267L378 388H306V445H502V388Z" />
<glyph unicode="&#xfe;" glyph-name="uni00FE" horiz-adv-x="524" d="M-11 -156H66V631H-14V688H137V351Q157 392 195 423T297 454Q380 454 433 396T487 235Q487 176 467 120T401 27T284 -10Q181 -10 137 65V-156H241V-213H-11V-156ZM272 51Q343 51 377 104T412
229Q412 309 374 351T281 393Q218 393 179 345T137 246V183Q137 127 175 89T272 51Z" />
<glyph unicode="&#xff;" glyph-name="uni00FF" horiz-adv-x="511" d="M143 555V640H224V555H143ZM314 555V640H395V555H314ZM502 388H449L292 0L232 -156H308V-213H82V-156H165L223 1L61 388H8V445H214V388H136L261 89H267L378 388H306V445H502V388Z" />
<glyph unicode="&#x2013;" glyph-name="uni2013" horiz-adv-x="623" d="M61 257H563V206H61V257Z" />
<glyph unicode="&#x2014;" glyph-name="uni2014" horiz-adv-x="1079" d="M74 257H1014V206H74V257Z" />
<glyph unicode="&#x2018;" glyph-name="uni2018" horiz-adv-x="203" d="M167 656L115 440H45L98 656H167Z" />
<glyph unicode="&#x2019;" glyph-name="uni2019" horiz-adv-x="201" d="M44 479L96 695H166L113 479H44Z" />
<glyph unicode="&#x201a;" glyph-name="uni201A" horiz-adv-x="201" d="M24 -102L76 114H146L93 -102H24Z" />
<glyph unicode="&#x201c;" glyph-name="uni201C" horiz-adv-x="365" d="M167 668L115 452H45L98 668H167ZM331 668L279 452H209L262 668H331Z" />
<glyph unicode="&#x201d;" glyph-name="uni201D" horiz-adv-x="363" d="M40 454L92 670H162L109 454H40ZM204 454L256 670H326L273 454H204Z" />
<glyph unicode="&#x201e;" glyph-name="uni201E" horiz-adv-x="367" d="M24 -102L76 114H146L93 -102H24ZM190 -102L242 114H312L259 -102H190Z" />
<glyph unicode="&#x2022;" glyph-name="uni2022" horiz-adv-x="357" d="M69 244Q69 290 100 322T177 355Q224 355 256 323T289 244Q289 198 257 166T177 134Q131 134 100 166T69 244Z" />
<glyph unicode="&#x2039;" glyph-name="uni2039" horiz-adv-x="287" d="M239 25H179L41 271L179 511H239L110 271L239 25Z" />
<glyph unicode="&#x203a;" glyph-name="uni203A" horiz-adv-x="287" d="M108 25H48L176 271L48 511H108L246 271L108 25Z" />
</font>
</defs>
</svg>
