<?xml version="1.0" standalone="no"?>
<!DOCTYPE svg PUBLIC "-//W3C//DTD SVG 1.1//EN" "http://www.w3.org/Graphics/SVG/1.1/DTD/svg11.dtd">
<svg xmlns="http://www.w3.org/2000/svg">
<defs >
<font id="Wallpoet" horiz-adv-x="639" ><font-face
    font-family="Wallpoet"
    units-per-em="1000"
    panose-1="0 0 0 0 0 0 0 0 0 0"
    ascent="806"
    descent="-196"
    alphabetic="0" />
<glyph unicode=" " glyph-name="space" horiz-adv-x="300" />
<glyph unicode="!" glyph-name="exclam" horiz-adv-x="238" d="M50 138H188V0H50V138ZM50 575H188V198H50V575Z" />
<glyph unicode="&quot;" glyph-name="quotedbl" horiz-adv-x="265" d="M151 711H235V554L151 553V711ZM30 711H114V554L30 552V711Z" />
<glyph unicode="#" glyph-name="numbersign" horiz-adv-x="434" d="M384 264H318L291 184H384V136H275L245 47V47V47H199L228 136H149L119 47V47V47H73L103 136H50V184H118L144 264H50V312H160L186 390H234L208 312H286L312 390H360L334 312H384V264ZM244 184L270
264H192L165 184H244Z" />
<glyph unicode="$" glyph-name="dollar" horiz-adv-x="828" d="M389 230H185L70 298V506L185 574H343V710H392V460V460H194V345H389V230ZM438 345H645L758 276V69L645 1H485V-195H438V115H439V115H633V230H438V345ZM392 115V115V115V-195H344V1H186L73 69V184H197V115H392ZM633
460H438V460V710H485V574H645L758 506V391H633V460Z" />
<glyph unicode="%" glyph-name="percent" horiz-adv-x="634" d="M532 664L162 1H92L455 663L532 664ZM213 513L271 539V633L213 658V713L317 668V504L213 457V513ZM60 504V668L165 713V658L106 633V539L165 513V457L60 504ZM470 12L528 38V132L470 158V212L574
167V3L470 -44V12ZM317 3V167L422 212V158L363 132V38L422 12V-44L317 3Z" />
<glyph unicode="&amp;" glyph-name="ampersand" horiz-adv-x="798" d="M667 116L748 58L633 1L598 24L576 1H404V103H480L404 154V355L496 391V439H404V572H461L611 518V321L457 260L576 173L633 253L748 219L667 116ZM356 1H175L60 59V219L215 280L152 321V518L298
572H356V439H268V391L356 321V186L325 207L184 150V103H356V1Z" />
<glyph unicode="&apos;" glyph-name="quotesingle" horiz-adv-x="244" d="M80 712H164V554L80 552V712Z" />
<glyph unicode="(" glyph-name="parenleft" horiz-adv-x="332" d="M90 626L232 711H332L147 597V-19L332 -132H232L90 -47V626Z" />
<glyph unicode=")" glyph-name="parenright" horiz-adv-x="332" d="M242 -48L99 -134H0L185 -20V597L0 711H99L242 625V-48Z" />
<glyph unicode="*" glyph-name="asterisk" horiz-adv-x="347" d="M317 547H215L266 459L225 435L174 523L123 435L81 459L132 547H30V595H132L81 683L123 707L174 619L225 707L266 683L215 595H317V547Z" />
<glyph unicode="+" glyph-name="plus" horiz-adv-x="395" d="M365 295V246H221V103H174V246H30V295H174V438H221V295H365V295Z" />
<glyph unicode="," glyph-name="quotesinglbase" horiz-adv-x="274" d="M80 138H194V0L80 -69V138Z" />
<glyph unicode="-" glyph-name="hyphen" horiz-adv-x="396" d="M316 296V247H80V296H316V296Z" />
<glyph unicode="." glyph-name="period" horiz-adv-x="298" d="M80 138H218V0H80V138Z" />
<glyph unicode="/" glyph-name="slash" horiz-adv-x="416" d="M416 648L55 1H0L355 647L416 648Z" />
<glyph unicode="0" glyph-name="zero" horiz-adv-x="853" d="M773 506V69L659 0H447V114H647V428L447 216V391L508 461H451V575H647L773 506ZM206 147L402 355V183L345 114H402V0V0V0H263V0H194L80 69V506L206 575V575H402V461H206V147Z" />
<glyph unicode="1" glyph-name="one" horiz-adv-x="421" d="M341 577V0L227 1V440L20 354V484L227 577V577H341V577Z" />
<glyph unicode="2" glyph-name="two" horiz-adv-x="871" d="M90 276L204 345H411V232H212V118H407V0H90V276ZM90 394V508L204 577H411V463H216V394H90ZM781 0H460V118H781V0ZM651 232H456V345H651V463H456V577H663L781 508V301L651 232Z" />
<glyph unicode="3" glyph-name="three" horiz-adv-x="855" d="M661 -1H454V117H649V231H454V344H649V462H454V576H661L775 507V336L681 288L775 243V68L661 -1ZM210 186V117H405V-1H198L80 68V186H210ZM84 393V507L198 576H405V462H210V393H84ZM405 231H279V344H405V231Z" />
<glyph unicode="4" glyph-name="four" horiz-adv-x="791" d="M721 1H604V228H397V345H604V576H721V1ZM227 345H348V228H20L227 572H364L227 345Z" />
<glyph unicode="5" glyph-name="five" horiz-adv-x="875" d="M90 577H413V463H217V348H413V230H90V577ZM217 185V115H413V1H204L90 70V185H217ZM785 463H462V577H785V463ZM785 279V70L671 1H462V115H658V230H462V348H658L785 279Z" />
<glyph unicode="6" glyph-name="six" horiz-adv-x="848" d="M768 70L655 1H448V118H647V231H448V345H655L768 276V70ZM643 393V463H448V576H655L768 507V393H643ZM80 507L193 576H400V463H205V345H400V231H205V118H400V1H205L80 70V507Z" />
<glyph unicode="7" glyph-name="seven" horiz-adv-x="756" d="M726 576L406 1H244L506 462H394V576H726ZM346 576V462H30V576H346Z" />
<glyph unicode="8" glyph-name="eight" horiz-adv-x="854" d="M660 1H452V115H647V230H452V348H647V462H452V577H660L774 508V336L680 287L774 242V70L660 1ZM80 70V242L174 287L80 336V508L194 577H402V462H207V348H402V230H207V115H402V1H194L80 70Z" />
<glyph unicode="9" glyph-name="nine" horiz-adv-x="846" d="M80 505L193 574H399V461H205V344H399V231H193L80 300V505ZM205 187V118H399V1H193L80 70V187H205ZM766 70L653 1H447V118H641V231H447V344H641V461H447V574H641L766 505V70Z" />
<glyph unicode=":" glyph-name="colon" horiz-adv-x="273" d="M80 436H193V298H80V436ZM80 139H193V1H80V139Z" />
<glyph unicode=";" glyph-name="semicolon" horiz-adv-x="274" d="M80 138H194V0L80 -69V138ZM80 436H193V298H80V436Z" />
<glyph unicode="&lt;" glyph-name="less" horiz-adv-x="442" d="M362 334L103 228L362 114V56L30 206V252V252V252L362 391V334Z" />
<glyph unicode="=" glyph-name="equal" horiz-adv-x="493" d="M413 311V264H80V311H413V311ZM413 184V136H80V184H413V184Z" />
<glyph unicode="&gt;" glyph-name="greater" horiz-adv-x="442" d="M412 206L80 56V114L339 228L80 334V391L412 252V206Z" />
<glyph unicode="?" glyph-name="question" horiz-adv-x="789" d="M289 141H427V0H289V141ZM739 300L626 230H427V194H302V275L419 344H613V462H419V575H626L739 506V300ZM50 392V506L164 575H370V462H164V392H50Z" />
<glyph unicode="@" glyph-name="at" horiz-adv-x="862" d="M80 508L195 578H402V497H170V103H402V1H195L80 71V508ZM691 103H449V1H656H772V103H691ZM216 358L334 428H402V347H320V255H402V174H334L216 243V358ZM772 508L656 578H449V497H679V255H608V428H518H521H449V347H504V255H449V174H772V508Z"
/>
<glyph unicode="A" glyph-name="A" horiz-adv-x="849" d="M80 506L194 575H400V462H206V344H400V230H206V0H80V506V506ZM769 506L651 575H445V462H643V344H445V230H643V0H769V506V506Z" />
<glyph unicode="B" glyph-name="B" horiz-adv-x="869" d="M100 575H420V462H226V344H420V230H226V117H420V0H100V575ZM789 68V243L695 287L789 332V506L676 575H469V462H663V344H469V230H663V117H469V0H676L789 68Z" />
<glyph unicode="C" glyph-name="C" horiz-adv-x="853" d="M80 506L197 575H404V462H210V117H400V0H197L80 68V506ZM643 186V117H453V0H656L773 68V186H643ZM773 392V506L656 575H449V462H643V392H773Z" />
<glyph unicode="D" glyph-name="D" horiz-adv-x="869" d="M100 575H420V462H226V117H420V0H100V575ZM789 506L676 575H469V462H663V117H469V0H676L789 68V506Z" />
<glyph unicode="E" glyph-name="E" horiz-adv-x="819" d="M100 575H420V457H226V344H420V230H226V113H416V0H100V575V575ZM469 113V0H789V113H469V113ZM789 457V575H465V457H789V457ZM627 230V344H465V230H627V230Z" />
<glyph unicode="F" glyph-name="F" horiz-adv-x="799" d="M100 575H420V457H226V344H420V227H226V0H100V575V575ZM789 457V575H469V457H789V457ZM631 227V344H469V227H631V227Z" />
<glyph unicode="G" glyph-name="G" horiz-adv-x="853" d="M80 506L197 575H404V457H210V113H400V0H197L80 68V506ZM773 389V506L656 575H449V457H643V389H773ZM773 344H449V230H643V113H453V0H656L773 68V344Z" />
<glyph unicode="H" glyph-name="H" horiz-adv-x="889" d="M100 575H226V344H420V230H226V0H100V575V575ZM789 575H663V344H469V230H663V0H789V575V575Z" />
<glyph unicode="I" glyph-name="I" horiz-adv-x="286" d="M80 575H206V0H80V575V575Z" />
<glyph unicode="J" glyph-name="J" horiz-adv-x="789" d="M699 68L586 0H379V113H573V575H699V68ZM140 182V113H330V0H127L10 68V182H140Z" />
<glyph unicode="K" glyph-name="K" horiz-adv-x="799" d="M100 575H226V344H282V230H226V0H100V575ZM420 287L789 518L671 575L319 344V230L671 0L789 57L420 287Z" />
<glyph unicode="L" glyph-name="L" horiz-adv-x="799" d="M100 575H226V117H416V0H100V575V575ZM469 117V0H789V117H469V117Z" />
<glyph unicode="M" glyph-name="M" horiz-adv-x="889" d="M100 575H214L420 381V230L226 413V0H100V575V575ZM789 575H676L469 381V230L663 413V0H789V575V575Z" />
<glyph unicode="N" glyph-name="N" horiz-adv-x="889" d="M100 575H214L420 381V230L226 417V0H100V575ZM663 162V575H789V0H671L465 198V344L663 162Z" />
<glyph unicode="O" glyph-name="O" horiz-adv-x="849" d="M80 506L197 575H404V462H206V117H400V0H197L80 68V506V506ZM769 506L656 575H449V462H643V117H449V0H656L769 68V506V506Z" />
<glyph unicode="P" glyph-name="P" horiz-adv-x="823" d="M100 575H424V462H230V344H424V227H230V0H100V575V575ZM793 295V506L676 575H469V462H663V344H469V227H676L793 295V295Z" />
<glyph unicode="Q" glyph-name="Q" horiz-adv-x="849" d="M80 506L197 575H404V462H206V117H400V0H197L80 68V506ZM769 506V68L656 0V0V0V0H449V117H534L449 198L530 275L643 162V462H449V575H656L769 506Z" />
<glyph unicode="R" glyph-name="R" horiz-adv-x="859" d="M100 575H420V457H226V344H420V227H226V0H100V575V575ZM789 0V238L695 287L789 332V506L671 575H465V457H663V344H465V227H663V0H789V0Z" />
<glyph unicode="S" glyph-name="S" horiz-adv-x="829" d="M70 506L184 575H390V457H192V344H390V227H184L70 295V506ZM759 275L641 344H435V227H633V113H439V0H641L759 68V275ZM196 182V113H390V0H187L70 68V182H196ZM759 389V506L641 575H435V457H633V389H759Z" />
<glyph unicode="T" glyph-name="T" horiz-adv-x="749" d="M719 462H431V0H293V462H30V575H719V462Z" />
<glyph unicode="U" glyph-name="U" horiz-adv-x="849" d="M80 575H206V117H400V0H194L80 68V575V575ZM769 575H643V117H449V0H656L769 68V575V575Z" />
<glyph unicode="V" glyph-name="V" horiz-adv-x="709" d="M124 575L330 230V0L10 538L124 575V575ZM586 575L379 230V0L699 538L586 575V575Z" />
<glyph unicode="W" glyph-name="W" horiz-adv-x="729" d="M137 0L20 538L137 575L227 138L344 275V105L251 0H137ZM596 0H482L389 105V275L502 138L596 575L709 538L596 0V0Z" />
<glyph unicode="X" glyph-name="X" horiz-adv-x="749" d="M350 194L143 0L30 36L294 287L30 538L143 575L350 381V194ZM451 287L719 36L602 0L395 194V381L602 575L719 538L451 287Z" />
<glyph unicode="Y" glyph-name="Y" horiz-adv-x="749" d="M431 263V0H318V263L30 538L144 575L374 356V356L606 575L719 538L431 263Z" />
<glyph unicode="Z" glyph-name="Z" horiz-adv-x="753" d="M743 575L411 219V392L468 462H411V575H743ZM30 0L362 356V186L306 117H362V0H30ZM362 575V462H46V575H362ZM730 117V0H411V117H730Z" />
<glyph unicode="[" glyph-name="bracketleft" horiz-adv-x="303" d="M100 -121V711H273V666H156V-72H273V-121H100V-121Z" />
<glyph unicode="\" glyph-name="backslash" horiz-adv-x="482" d="M91 648L452 1H397L30 647L91 648Z" />
<glyph unicode="]" glyph-name="bracketright" horiz-adv-x="304" d="M204 -121H30V-74H146V667H30V711H204V-121Z" />
<glyph unicode="^" glyph-name="asciicircum" horiz-adv-x="438" d="M348 437L226 652L90 437H30L204 711H250V711V711L408 437H348Z" />
<glyph unicode="_" glyph-name="underscore" horiz-adv-x="399" d="M319 59V0H80V59H319Z" />
<glyph unicode="`" glyph-name="grave" horiz-adv-x="770" d="M329 586L100 587V662L329 586Z" />
<glyph unicode="a" glyph-name="a" horiz-adv-x="770" d="M80 195L194 264H358V187H207V105H358V-1H194L80 68V195ZM80 301V370L194 440H358V346H207V301H80ZM680 370L566 440H402V346H553V264H402V187H553V105H406V-1H680V370Z" />
<glyph unicode="b" glyph-name="b" horiz-adv-x="776" d="M100 576H226V438H376V345H226V105H372V0H100V576ZM696 369L582 438H420V345H574V105H424V0H582L696 69V369Z" />
<glyph unicode="c" glyph-name="c" horiz-adv-x="760" d="M80 372L194 441H358V347H207V106H354V0H194L80 69V372ZM680 302V372L566 441H403V347H554V302H680ZM680 139V69L566 0H403V106H554V139H680Z" />
<glyph unicode="d" glyph-name="d" horiz-adv-x="776" d="M676 0H404V105H550V345H400V438H550V576H676V0ZM80 369L194 438H356V345H202V105H352V0H194L80 69V369Z" />
<glyph unicode="e" glyph-name="e" horiz-adv-x="764" d="M684 257L566 188H406V265H557V347H406V441H566L684 371V257ZM684 139V69L566 0H406V106H553V139H684ZM80 69L198 0H357V106H206V188H357V265H206V347H357V441H198L80 371V69Z" />
<glyph unicode="f" glyph-name="f" horiz-adv-x="521" d="M295 344H446V264H295V344ZM251 0H126V264H30V344H126V507L251 576V0ZM446 437V483H295V576H458L571 507V437H446Z" />
<glyph unicode="g" glyph-name="g" horiz-adv-x="771" d="M80 -45V-126L197 -195H355V-90H209V-45H80ZM80 371L197 440H355V344H207V137H355V56H197L80 126V371ZM681 440H405V344H554V137H405V56H554V-90H405V-195H564L681 -126V440Z" />
<glyph unicode="h" glyph-name="h" horiz-adv-x="785" d="M100 575H223V440H375V344H223V-1H100V575ZM695 371L582 440H419V344H569V-1H695V371Z" />
<glyph unicode="i" glyph-name="i" horiz-adv-x="286" d="M206 440V-1H80V440H206ZM204 481H80V574H204V481Z" />
<glyph unicode="j" glyph-name="j" horiz-adv-x="335" d="M-210 -39V-126L-94 -195H65V-90H-84V-39H-210ZM234 440H111V-90V-195L234 -126V440ZM235 480L111 481V574H235V480Z" />
<glyph unicode="k" glyph-name="k" horiz-adv-x="727" d="M100 575H226V262H282V189H226V-1H100V575ZM446 230L675 381L592 440L332 262V189L584 -1L697 68L446 230Z" />
<glyph unicode="l" glyph-name="l" horiz-adv-x="328" d="M100 575H228V-1H100V575Z" />
<glyph unicode="m" glyph-name="m" horiz-adv-x="925" d="M100 440H225V397L379 440V346H225V1H100V440ZM721 440H678L550 385L419 440V346V1H550V346H710V1H835V371L721 440Z" />
<glyph unicode="n" glyph-name="n" horiz-adv-x="789" d="M100 440H227V397L375 440V346H227V1H100V440ZM699 371L581 440H423V346H574V1H699V371Z" />
<glyph unicode="o" glyph-name="o" horiz-adv-x="747" d="M80 371L197 440H355V346H205V108H355V1H197L80 70V371ZM667 371L550 440H391V346H542V108H391V1H550L667 70V371Z" />
<glyph unicode="p" glyph-name="p" horiz-adv-x="777" d="M697 128L585 60H427V140H572V346H421V440H585L697 371V128ZM100 440H377V346H227V140H372V60H227V-193H100V440Z" />
<glyph unicode="q" glyph-name="q" horiz-adv-x="781" d="M80 371L198 440H357V346H207V140H357V60H198L80 128V371ZM681 440H406V346H556V140H406V60H556V-193H681V440Z" />
<glyph unicode="r" glyph-name="r" horiz-adv-x="560" d="M100 437H225V394L375 437V344H225V0H100V437ZM550 382L420 437V301H550V382Z" />
<glyph unicode="s" glyph-name="s" horiz-adv-x="756" d="M676 69L562 0H401V105H555V186H404V264H562L676 194V69ZM80 368L194 437H356V344H206V264H356V186H194L80 255V368ZM206 139V105H356V0H194L80 69V139H206ZM551 301V344H401V437H562L676 368V301H551Z" />
<glyph unicode="t" glyph-name="t" horiz-adv-x="576" d="M270 437H420V344H270V437ZM546 150V69L432 0H270V105H420V150H546ZM225 506V105V0L100 69V344L10 343V387L225 506Z" />
<glyph unicode="u" glyph-name="u" horiz-adv-x="786" d="M686 0H561V45L411 0V105H561V437H686V0ZM90 69L203 0H365V105H216V437H90V69Z" />
<glyph unicode="v" glyph-name="v" horiz-adv-x="640" d="M136 437L301 186V0H262L10 401L136 437ZM509 437L351 186V0H387L630 401L509 437Z" />
<glyph unicode="w" glyph-name="w" horiz-adv-x="734" d="M30 406L145 441L226 150L344 265V106L238 0H145L30 406ZM599 0H496L389 106V265L504 150L575 441L704 406L599 0Z" />
<glyph unicode="x" glyph-name="x" horiz-adv-x="661" d="M356 314L491 441L631 406L414 233L631 37L491 0L356 138V314ZM308 314L167 441L30 406L247 233L30 37L167 0L308 138V314Z" />
<glyph unicode="y" glyph-name="y" horiz-adv-x="778" d="M90 438H216V138H366V58H205L90 127V438ZM216 -45V-91H366V-195H205L90 -126V-45H216ZM688 438V-126L562 -195H412V-91H562V58H412V138H562V438H688Z" />
<glyph unicode="z" glyph-name="z" horiz-adv-x="661" d="M631 441L353 175V326L378 349H353V441H631ZM309 0H30L309 278V127L283 102H309V0ZM309 441V349H30V441H309ZM631 106V0H353V106H631Z" />
<glyph unicode="{" glyph-name="braceleft" horiz-adv-x="383" d="M123 235L30 322L123 408V623L264 709H363L179 595V398L95 322L179 247V-19L363 -133H264L123 -47V235Z" />
<glyph unicode="|" glyph-name="bar" horiz-adv-x="258" d="M158 -121H100V712H158V-121Z" />
<glyph unicode="}" glyph-name="braceright" horiz-adv-x="382" d="M261 -47L118 -133H20L203 -19V247L288 322L203 398V595L20 709H118L261 623V408L352 322L261 235V-47Z" />
<glyph unicode="~" glyph-name="asciitilde" horiz-adv-x="536" d="M456 273L376 227H308L217 284H171L80 227V283L160 331H228L319 275H365L456 328V273Z" />
<glyph unicode="&#xa1;" glyph-name="exclamdown" horiz-adv-x="338" d="M100 437H238V575H100V437ZM100 0H238V377H100V0Z" />
<glyph unicode="&#xa2;" glyph-name="cent" horiz-adv-x="757" d="M402 345V564H449V438H563L677 369V300H552V345H402ZM552 139H677V71L563 0H449V-90H402V105H552V139ZM308 564H356V345H205V105H353V-90H305V0H195L80 71V369L195 438H308V564Z" />
<glyph unicode="&#xa3;" glyph-name="sterling" horiz-adv-x="682" d="M652 437H526V482H444V574H537L652 505V437ZM444 103H650V-1H444V103ZM400 482H280V344H400V263H280V103H396V-1H95V103H153V263H50V344H153V436V505L269 574H400V482Z" />
<glyph unicode="&#xa4;" glyph-name="currency" horiz-adv-x="772" d="M625 136L742 85L705 1L549 68L408 3V115L501 158V299L408 339V438L409 439L558 375L705 438L742 354L625 303V136ZM147 303L30 354L67 438L214 375L363 439V438V339L271 299V158L363 115V3L223
68L67 1L30 85L147 136V303Z" />
<glyph unicode="&#xa5;" glyph-name="yen" horiz-adv-x="755" d="M725 543L435 265H609V230H435V184H609V150H435V-1H319V150H149V184H319V230H149V265H319V265L30 543L146 578L377 358V358L609 578L725 543V543Z" />
<glyph unicode="&#xa6;" glyph-name="brokenbar" horiz-adv-x="258" d="M158 344H100V712H158V344ZM158 -121H100V230H158V-121Z" />
<glyph unicode="&#xa7;" glyph-name="section" horiz-adv-x="666" d="M208 -45V-91H313V-194H199L84 -125V-45H208ZM462 471V517H357V620H472L586 551V471H462ZM586 -125V1L494 47L586 93V368L472 437H357V345H460V104H357V1H460V-91H359V-194H472L586 -125ZM80
58V334L171 379L80 425V551L194 620H311V520H206V437H311V345H206V104H309V1H194L80 58Z" />
<glyph unicode="&#xa8;" glyph-name="dieresis" horiz-adv-x="516" d="M197 513L80 514V574H197V513ZM323 513L436 514V574H323V513ZM197 513L80 514V574H197V513ZM323 513L436 514V574H323V513Z" />
<glyph unicode="&#xa9;" glyph-name="copyright" horiz-adv-x="701" d="M375 141L576 231L579 482L375 571V624L621 518V197L375 86V141ZM80 199V513L329 624V571L124 482V229L329 141V86L80 199ZM233 433L273 457H343V418H277V301H342V261H273L233 284V433ZM469
324V284L429 261H360V301H425V324H469ZM425 395V418H359V457H429L469 433V395H425Z" />
<glyph unicode="&#xaa;" glyph-name="ordfeminine" horiz-adv-x="354" d="M80 510V555L122 577H161V532H124V510H80ZM80 464L115 487H161V441H124V384H161V338H122L80 362V464ZM274 555L228 577H183V532H228V487H183V441H228V384H183V338H274V555Z" />
<glyph unicode="&#xab;" glyph-name="guillemotleft" horiz-adv-x="407" d="M40 254L220 391V334L84 231L220 118V60L40 208V254ZM187 254L367 391V334L230 231L367 118V60L187 208V254Z" />
<glyph unicode="&#xac;" glyph-name="logicalnot" horiz-adv-x="414" d="M30 324H364V316V137H308V266H30V324V324Z" />
<glyph unicode="&#xad;" glyph-name="uni00AD" horiz-adv-x="496" d="M416 306V247H80V306H416Z" />
<glyph unicode="&#xae;" glyph-name="registered" horiz-adv-x="701" d="M124 230L327 143V88L80 201V512L327 623V571L124 482V230ZM579 482L374 571V623L621 512V201L374 88V143L579 230V482ZM235 456H342V416H277V378H342V339H277V262H235V456V456ZM467 262H424V339H357V378H424V416H357V456H427L467
433V374L435 359L467 342V262Z" />
<glyph unicode="&#xaf;" glyph-name="overscore" horiz-adv-x="468" d="M388 575V524H80V575H388Z" />
<glyph unicode="&#xb0;" glyph-name="degree" horiz-adv-x="411" d="M229 446V501L286 526V618L229 643V696L331 652V492L229 446ZM183 446L80 492V652L183 696V643L125 618V526L183 501V446Z" />
<glyph unicode="&#xb1;" glyph-name="plusminus" horiz-adv-x="492" d="M80 58V116H410V58H80ZM275 296H412V238H275V136H217V238H80V296H217V390H275V296Z" />
<glyph unicode="&#xb2;" glyph-name="twosuperior" horiz-adv-x="353" d="M80 464L125 487H160V441H125V384H160V339H80V464ZM80 510V548L137 577H160V532H125V510H80ZM273 339H182V384H273V339ZM230 441H182V487H228V532H182V577H228L273 548V464L230 441Z" />
<glyph unicode="&#xb3;" glyph-name="threesuperior" horiz-adv-x="354" d="M228 338H181V384H228V441H180V486H228V532H180V577H228L274 548V486L235 464L274 441V362L228 338ZM119 411V384H160V338H126L80 362V411H119ZM80 509V548L126 577H161V532H126V509H80ZM161
441H149V486H161V441Z" />
<glyph unicode="&#xb4;" glyph-name="acute" horiz-adv-x="770" d="M670 648V573L441 572L670 648Z" />
<glyph unicode="&#xb5;" glyph-name="mu" horiz-adv-x="795" d="M695 438V2H569V48L421 2V105H569V438H695ZM227 105H375V2H227V-194H100V438H226H227V105Z" />
<glyph unicode="&#xb6;" glyph-name="paragraph" horiz-adv-x="649" d="M360 620V-193H302V264H145L30 332V552L145 620H360ZM508 493V-193H451V620H599V506H508V493Z" />
<glyph unicode="&#xb7;" glyph-name="middot" horiz-adv-x="272" d="M192 343V228H80V343H192V343Z" />
<glyph unicode="&#xb8;" glyph-name="cedilla" horiz-adv-x="411" d="M228 -140L286 -114V-79L228 -54V-1L331 -45V-148L228 -194V-140ZM80 -148L125 -114L183 -140V-194L80 -148Z" />
<glyph unicode="&#xb9;" glyph-name="onesuperior" horiz-adv-x="235" d="M155 338H109V532L30 487V532L107 577V577H155V338Z" />
<glyph unicode="&#xba;" glyph-name="ordmasculine" horiz-adv-x="354" d="M80 543L126 577H165V533H126V383H165V338H126L80 374V543ZM274 539L229 577H187V532H229V383H187V338H229L274 374V539Z" />
<glyph unicode="&#xbb;" glyph-name="guillemotright" horiz-adv-x="407" d="M367 208L187 60V118L323 231L187 334V391L367 254V208ZM220 208L40 60V118L177 231L40 334V391L220 254V208Z" />
<glyph unicode="&#xbc;" glyph-name="onequarter" horiz-adv-x="623" d="M496 672L122 0H61L426 672H496ZM180 463H130V653L40 618V672L130 714H180V463ZM543 -41H493V59H448V108H493V211H543V-41ZM380 108H429V59H331V208H380V108Z" />
<glyph unicode="&#xbd;" glyph-name="onehalf" horiz-adv-x="620" d="M495 672L121 1H61L427 672H495ZM331 79L382 109H425V59H386V10H424V-40H331V79ZM331 129V179L382 208H425V159H386V129H331ZM540 -40H447V10H540V-40ZM484 59H446V109H484V159H446V208H490L540
179V90L484 59ZM180 463H130V652L40 617V672L130 714V714H180V463Z" />
<glyph unicode="&#xbe;" glyph-name="threequarters" horiz-adv-x="625" d="M497 674L121 0H62L430 674H497ZM545 -41H496V58H451V109H496V211H545V-41ZM382 109H429V58H333V210H382V109ZM204 466H159V516H199V566H158V616H199V666H158V716H204L253 686V611L214
592L253 571V496L204 466ZM95 547V516H137V466H90L40 496V547H95ZM41 637V686L90 716H138V666H95V637H41ZM138 566H126V616H138V566Z" />
<glyph unicode="&#xbf;" glyph-name="questiondown" horiz-adv-x="789" d="M510 296H372V437H510V296ZM60 -69L173 -138H380V-25H186V93H380L497 162V243H372V207H173L60 137V-69ZM749 45V-69L635 -138H429V-25H635V45H749Z" />
<glyph unicode="&#xc0;" glyph-name="Agrave" horiz-adv-x="869" d="M90 506L204 575H410V462H216V344H410V230H216V0H90V506V506ZM779 506L661 575H455V462H653V344H455V230H653V0H779V506V506ZM438 636L209 637V712L438 636Z" />
<glyph unicode="&#xc1;" glyph-name="Aacute" horiz-adv-x="869" d="M90 506L204 575H410V462H216V344H410V230H216V0H90V506V506ZM779 506L661 575H455V462H653V344H455V230H653V0H779V506V506ZM916 698V623L687 622L916 698Z" />
<glyph unicode="&#xc2;" glyph-name="Acircumflex" horiz-adv-x="869" d="M90 506L204 575H410V462H216V344H410V230H216V0H90V506V506ZM779 506L661 575H455V462H653V344H455V230H653V0H779V506V506ZM588 614H511L436 670L357 614H280L414 711H460V711V711L588 614V614Z" />
<glyph unicode="&#xc3;" glyph-name="Atilde" horiz-adv-x="869" d="M90 506L204 575H410V462H216V344H410V230H216V0H90V506V506ZM779 506L661 575H455V462H653V344H455V230H653V0H779V506V506ZM621 719V664L541 618H473L382 675H336L245 618V674L325 722H393L484
666H530L621 719V719Z" />
<glyph unicode="&#xc4;" glyph-name="Adieresis" horiz-adv-x="869" d="M90 506L204 575H410V462H216V344H410V230H216V0H90V506V506ZM779 506L661 575H455V462H653V344H455V230H653V0H779V506V506ZM373 649L256 650V710H373V649ZM499 649L612 650V710H499V649ZM373
649L256 650V710H373V649ZM499 649L612 650V710H499V649Z" />
<glyph unicode="&#xc5;" glyph-name="Aring" horiz-adv-x="869" d="M653 0V230H459V344H653V462H459V462V514L528 543V632L459 660V713L572 668V575H666L779 506V0H653ZM414 514V462V462H216V344H414V230H216V0H90V506L207 575H297V668L414 713V660L342 632V543L414 514Z" />
<glyph unicode="&#xc6;" glyph-name="AE" horiz-adv-x="848" d="M457 574H778V460H583V345H654V230H583V115H776V1H457V574V574ZM90 505L205 574H412V437H216V345H412V230H216V1H90V505V505Z" />
<glyph unicode="&#xc7;" glyph-name="Ccedilla" horiz-adv-x="873" d="M90 506L207 575H414V462H220V117H410V0H207L90 68V506ZM653 186V117H463V0H666L783 68V186H653ZM783 392V506L666 575H459V462H653V392H783ZM463 -140L521 -114V-79L463 -54V-1L566 -45V-148L463
-194V-140ZM315 -148L360 -114L418 -140V-194L315 -148Z" />
<glyph unicode="&#xc8;" glyph-name="Egrave" horiz-adv-x="820" d="M101 575H421V457H227V344H421V230H227V113H417V0H101V575V575ZM470 113V0H790V113H470V113ZM790 457V575H466V457H790V457ZM628 230V344H466V230H628V230ZM329 638L100 639V714L329 638Z" />
<glyph unicode="&#xc9;" glyph-name="Eacute" horiz-adv-x="824" d="M100 575H420V457H226V344H420V230H226V113H416V0H100V575V575ZM469 113V0H789V113H469V113ZM789 457V575H465V457H789V457ZM627 230V344H465V230H627V230ZM794 698V623L565 622L794 698Z" />
<glyph unicode="&#xca;" glyph-name="Ecircumflex" horiz-adv-x="819" d="M100 575H420V457H226V344H420V230H226V113H416V0H100V575V575ZM469 113V0H789V113H469V113ZM789 457V575H465V457H789V457ZM627 230V344H465V230H627V230ZM597 614H520L445 670L366 614H289L423
711H469V711V711L597 614V614Z" />
<glyph unicode="&#xcb;" glyph-name="Edieresis" horiz-adv-x="819" d="M100 575H420V457H226V344H420V230H226V113H416V0H100V575V575ZM469 113V0H789V113H469V113ZM789 457V575H465V457H789V457ZM627 230V344H465V230H627V230ZM383 650L266 651V711H383V650ZM509
650L622 651V711H509V650ZM383 650L266 651V711H383V650ZM509 650L622 651V711H509V650Z" />
<glyph unicode="&#xcc;" glyph-name="Igrave" horiz-adv-x="319" d="M95 575H221V0H95V575V575ZM531 635L302 636V711L531 635Z" />
<glyph unicode="&#xcd;" glyph-name="Iacute" horiz-adv-x="319" d="M97 575H223V0H97V575V575ZM275 709V634L46 633L275 709Z" />
<glyph unicode="&#xce;" glyph-name="Icircumflex" horiz-adv-x="398" d="M132 575H258V0H132V575V575ZM610 614H533L458 670L379 614H302L436 711H482V711V711L610 614V614Z" />
<glyph unicode="&#xcf;" glyph-name="Idieresis" horiz-adv-x="317" d="M96 575H222V0H96V575V575ZM379 644L304 645V716H379V644ZM459 644L531 645V716H459V644ZM379 644L304 645V716H379V644ZM459 644L531 645V716H459V644Z" />
<glyph unicode="&#xd0;" glyph-name="Eth" horiz-adv-x="865" d="M223 265H421V184H223V116H417V1H97V184H40V265H97V575H419V460H223V265ZM785 506V70L670 1H466V116H659V460H464V575H670L785 506Z" />
<glyph unicode="&#xd1;" glyph-name="Ntilde" horiz-adv-x="889" d="M100 575H214L420 381V230L226 417V0H100V575ZM663 162V575H789V0H671L465 198V344L663 162ZM637 720V665L557 619H489L398 676H352L261 619V675L341 723H409L500 667H546L637 720V720Z" />
<glyph unicode="&#xd2;" glyph-name="Ograve" horiz-adv-x="849" d="M80 506L197 575H404V462H206V117H400V0H197L80 68V506V506ZM769 506L656 575H449V462H643V117H449V0H656L769 68V506V506ZM426 636L197 637V712L426 636Z" />
<glyph unicode="&#xd3;" glyph-name="Oacute" horiz-adv-x="849" d="M80 506L197 575H404V462H206V117H400V0H197L80 68V506V506ZM769 506L656 575H449V462H643V117H449V0H656L769 68V506V506ZM910 698V623L681 622L910 698Z" />
<glyph unicode="&#xd4;" glyph-name="Ocircumflex" horiz-adv-x="849" d="M80 506L197 575H404V462H206V117H400V0H197L80 68V506V506ZM769 506L656 575H449V462H643V117H449V0H656L769 68V506V506ZM582 614H505L430 670L351 614H274L408 711H454V711V711L582 614V614Z" />
<glyph unicode="&#xd5;" glyph-name="Otilde" horiz-adv-x="849" d="M80 506L197 575H404V462H206V117H400V0H197L80 68V506V506ZM769 506L656 575H449V462H643V117H449V0H656L769 68V506V506ZM613 720V665L533 619H465L374 676H328L237 619V675L317 723H385L476
667H522L613 720V720Z" />
<glyph unicode="&#xd6;" glyph-name="Odieresis" horiz-adv-x="849" d="M365 650L248 651V711H365V650ZM491 650L604 651V711H491V650ZM365 650L248 651V711H365V650ZM491 650L604 651V711H491V650ZM80 506L197 575H404V462H206V117H400V0H197L80 68V506V506ZM769
506L656 575H449V462H643V117H449V0H656L769 68V506V506Z" />
<glyph unicode="&#xd7;" glyph-name="multiply" horiz-adv-x="518" d="M438 353L313 218L438 93L385 39L259 164L134 39L80 93L206 218L80 343L134 397L259 272L385 397L438 353Z" />
<glyph unicode="&#xd8;" glyph-name="Oslash" horiz-adv-x="847" d="M80 507L194 575H401V460H206V119L401 300V236L271 116H401V3H194L166 20L148 4L80 3L125 43L80 72V507ZM767 575L722 534L767 507V72L652 3H446V116H641V458L446 278V343L574 460H446V575H652L680
559L698 575H767Z" />
<glyph unicode="&#xd9;" glyph-name="Ugrave" horiz-adv-x="870" d="M91 575H217V117H411V0H205L91 68V575V575ZM780 575H654V117H460V0H667L780 68V575V575ZM576 636L347 637V712L576 636Z" />
<glyph unicode="&#xda;" glyph-name="Uacute" horiz-adv-x="869" d="M90 575H216V117H410V0H204L90 68V575V575ZM779 575H653V117H459V0H666L779 68V575V575ZM775 698V623L546 622L775 698Z" />
<glyph unicode="&#xdb;" glyph-name="Ucircumflex" horiz-adv-x="869" d="M90 575H216V117H410V0H204L90 68V575V575ZM779 575H653V117H459V0H666L779 68V575V575ZM589 614H512L437 670L358 614H281L415 711H461V711V711L589 614V614Z" />
<glyph unicode="&#xdc;" glyph-name="Udieresis" horiz-adv-x="869" d="M90 575H216V117H410V0H204L90 68V575V575ZM779 575H653V117H459V0H666L779 68V575V575ZM373 650L256 651V711H373V650ZM499 650L612 651V711H499V650ZM373 650L256 651V711H373V650ZM499
650L612 651V711H499V650Z" />
<glyph unicode="&#xdd;" glyph-name="Yacute" horiz-adv-x="749" d="M431 263V0H318V263L30 538L144 575L374 356V356L606 575L719 538L431 263ZM864 709V634L635 633L864 709Z" />
<glyph unicode="&#xde;" glyph-name="Thorn" horiz-adv-x="820" d="M790 505V299L675 231H467V344H663V459H467V575H675L790 505ZM226 575H422V459H226V344H422V231H226V1H100V712H226V575Z" />
<glyph unicode="&#xdf;" glyph-name="germandbls" horiz-adv-x="863" d="M100 577H423V462H227V0H100V577V577ZM793 70V243L700 289L793 335V508L677 577H470V462H666V347H470V231H666V116H472V0H677L793 70V70Z" />
<glyph unicode="&#xe0;" glyph-name="agrave" horiz-adv-x="760" d="M80 195L194 264H358V187H207V105H358V-1H194L80 68V195ZM80 301V370L194 440H358V346H207V301H80ZM680 370L566 440H402V346H553V264H402V187H553V105H406V-1H680V370ZM418 833L189 834V909L418 833Z" />
<glyph unicode="&#xe1;" glyph-name="aacute" horiz-adv-x="760" d="M80 195L194 264H358V187H207V105H358V-1H194L80 68V195ZM80 301V370L194 440H358V346H207V301H80ZM680 370L566 440H402V346H553V264H402V187H553V105H406V-1H680V370ZM820 648V573L591 572L820 648Z" />
<glyph unicode="&#xe2;" glyph-name="acircumflex" horiz-adv-x="760" d="M80 195L194 264H358V187H207V105H358V-1H194L80 68V195ZM80 301V370L194 440H358V346H207V301H80ZM680 370L566 440H402V346H553V264H402V187H553V105H406V-1H680V370ZM533 577H456L381
633L302 577H225L359 674H405V674V674L533 577V577Z" />
<glyph unicode="&#xe3;" glyph-name="atilde" horiz-adv-x="760" d="M80 195L194 264H358V187H207V105H358V-1H194L80 68V195ZM80 301V370L194 440H358V346H207V301H80ZM680 370L566 440H402V346H553V264H402V187H553V105H406V-1H680V370ZM567 616V561L487 515H419L328
572H282L191 515V571L271 619H339L430 563H476L567 616V616Z" />
<glyph unicode="&#xe4;" glyph-name="adieresis" horiz-adv-x="760" d="M80 195L194 264H358V187H207V105H358V-1H194L80 68V195ZM80 301V370L194 440H358V346H207V301H80ZM680 370L566 440H402V346H553V264H402V187H553V105H406V-1H680V370ZM314 513L197 514V574H314V513ZM440
513L553 514V574H440V513ZM314 513L197 514V574H314V513ZM440 513L553 514V574H440V513Z" />
<glyph unicode="&#xe5;" glyph-name="aring" horiz-adv-x="760" d="M80 195L194 264H358V187H207V105H358V-1H194L80 68V195ZM80 301V370L194 440H358V346H207V301H80ZM680 370L566 440H402V346H553V264H402V187H553V105H406V-1H680V370ZM410 514L479 539V632L410
656V713L524 668V506L410 458V514ZM248 506V668L362 709V656L293 632V539L362 514V458L248 506Z" />
<glyph unicode="&#xe6;" glyph-name="ae" horiz-adv-x="843" d="M80 197L196 266H313V186H205V105H313V1H196L80 70V197ZM763 255L648 186H535V266H638V347H537V439H648L763 370V255ZM636 140V105H486V439H475L423 408L371 439H198L83 370V301H209V347H360V1H648L763
70V140H636Z" />
<glyph unicode="&#xe7;" glyph-name="ccedilla" horiz-adv-x="760" d="M80 372L194 441H358V347H207V106H354V0H194L80 69V372ZM680 302V372L566 441H403V347H554V302H680ZM680 139V69L566 0H403V106H554V139H680ZM442 -140L500 -114V-79L442 -54V-1L545 -45V-148L442
-194V-140ZM294 -148L339 -114L397 -140V-194L294 -148Z" />
<glyph unicode="&#xe8;" glyph-name="egrave" horiz-adv-x="764" d="M684 257L566 188H406V265H557V347H406V441H566L684 371V257ZM684 139V69L566 0H406V106H553V139H684ZM80 69L198 0H357V106H206V188H357V265H206V347H357V441H198L80 371V69ZM433 833L204 834V909L433
833Z" />
<glyph unicode="&#xe9;" glyph-name="eacute" horiz-adv-x="764" d="M684 257L566 188H406V265H557V347H406V441H566L684 371V257ZM684 139V69L566 0H406V106H553V139H684ZM80 69L198 0H357V106H206V188H357V265H206V347H357V441H198L80 371V69ZM824 648V573L595
572L824 648Z" />
<glyph unicode="&#xea;" glyph-name="ecircumflex" horiz-adv-x="764" d="M684 257L566 188H406V265H557V347H406V441H566L684 371V257ZM684 139V69L566 0H406V106H553V139H684ZM80 69L198 0H357V106H206V188H357V265H206V347H357V441H198L80 371V69ZM534 577H457L382
633L303 577H226L360 674H406V674V674L534 577V577Z" />
<glyph unicode="&#xeb;" glyph-name="edieresis" horiz-adv-x="764" d="M684 257L566 188H406V265H557V347H406V441H566L684 371V257ZM684 139V69L566 0H406V106H553V139H684ZM80 69L198 0H357V106H206V188H357V265H206V347H357V441H198L80 371V69ZM318 515L201
516V576H318V515ZM444 515L557 516V576H444V515ZM318 515L201 516V576H318V515ZM444 515L557 516V576H444V515Z" />
<glyph unicode="&#xec;" glyph-name="igrave" horiz-adv-x="319" d="M96 437H219V0H96V437V437ZM531 833L302 834V909L531 833Z" />
<glyph unicode="&#xed;" glyph-name="iacute" horiz-adv-x="319" d="M95 440H220V0H95V440V440ZM275 649V574L46 573L275 649Z" />
<glyph unicode="&#xee;" glyph-name="icircumflex" horiz-adv-x="398" d="M136 437H261V0H136V437V437ZM610 832H533L458 888L379 832H302L436 929H482V929V929L610 832V832Z" />
<glyph unicode="&#xef;" glyph-name="idieresis" horiz-adv-x="317" d="M96 437H221V0H96V437V437ZM379 771L304 772V833H379V771ZM459 771L531 772V833H459V771ZM379 771L304 772V833H379V771ZM459 771L531 772V833H459V771Z" />
<glyph unicode="&#xf0;" glyph-name="eth" horiz-adv-x="745" d="M195 437H355V345H204V105H355V1H195L80 70V369L195 437ZM665 369V70L550 1H401V105H540V345H401V437H530L470 496L432 458L400 491L437 529L401 565L433 597L469 561L506 596L538 564L503 529L665 369Z" />
<glyph unicode="&#xf1;" glyph-name="ntilde" horiz-adv-x="789" d="M100 440H227V397L375 440V346H227V1H100V440ZM699 371L581 440H423V346H574V1H699V371ZM588 616V561L508 515H440L349 572H303L212 515V571L292 619H360L451 563H497L588 616V616Z" />
<glyph unicode="&#xf2;" glyph-name="ograve" horiz-adv-x="747" d="M80 371L197 440H355V346H205V108H355V1H197L80 70V371ZM667 371L550 440H391V346H542V108H391V1H550L667 70V371ZM429 833L200 834V909L429 833Z" />
<glyph unicode="&#xf3;" glyph-name="oacute" horiz-adv-x="747" d="M80 371L197 440H355V346H205V108H355V1H197L80 70V371ZM667 371L550 440H391V346H542V108H391V1H550L667 70V371ZM808 648V573L579 572L808 648Z" />
<glyph unicode="&#xf4;" glyph-name="ocircumflex" horiz-adv-x="747" d="M80 371L197 440H355V346H205V108H355V1H197L80 70V371ZM667 371L550 440H391V346H542V108H391V1H550L667 70V371ZM507 575H435L365 632L291 575H219L344 673H387V673V673L507 575V575Z" />
<glyph unicode="&#xf5;" glyph-name="otilde" horiz-adv-x="747" d="M80 371L197 440H355V346H205V108H355V1H197L80 70V371ZM667 371L550 440H391V346H542V108H391V1H550L667 70V371ZM561 616V561L481 515H413L322 572H276L185 515V571L265 619H333L424 563H470L561
616V616Z" />
<glyph unicode="&#xf6;" glyph-name="odieresis" horiz-adv-x="747" d="M80 371L197 440H355V346H205V108H355V1H197L80 70V371ZM667 371L550 440H391V346H542V108H391V1H550L667 70V371ZM309 515L192 516V576H309V515ZM435 515L548 516V576H435V515ZM309 515L192
516V576H309V515ZM435 515L548 516V576H435V515Z" />
<glyph unicode="&#xf7;" glyph-name="divide" horiz-adv-x="492" d="M412 264V206H80V264H412ZM248 66L212 81V123L248 138L280 123V81L248 66ZM248 315L212 331V373L248 388L280 373V331L248 315Z" />
<glyph unicode="&#xf8;" glyph-name="oslash" horiz-adv-x="749" d="M356 2H195L169 18L149 2L80 1L128 43L80 71V371L195 440H356V347H203V106L356 234V178L272 106H356V2ZM619 399Q628 394 636 389T653 380Q661 376 669 371V71L552 2H401V106H542V336L401 215V274L489
347H401V440H552Q555 438 559 435Q563 433 567 430T579 423L598 439L669 440L619 399Z" />
<glyph unicode="&#xf9;" glyph-name="ugrave" horiz-adv-x="789" d="M689 0H564V45L414 0V105H564V437H689V0ZM93 69L206 0H368V105H219V437H93V69ZM576 833L347 834V909L576 833Z" />
<glyph unicode="&#xfa;" glyph-name="uacute" horiz-adv-x="786" d="M686 0H561V45L411 0V105H561V437H686V0ZM90 69L203 0H365V105H216V437H90V69ZM686 648V573L457 572L686 648Z" />
<glyph unicode="&#xfb;" glyph-name="ucircumflex" horiz-adv-x="786" d="M686 0H561V45L411 0V105H561V437H686V0ZM90 69L203 0H365V105H216V437H90V69ZM520 575H448L378 632L304 575H232L357 673H400V673V673L520 575V575Z" />
<glyph unicode="&#xfc;" glyph-name="udieresis" horiz-adv-x="786" d="M686 0H561V45L411 0V105H561V437H686V0ZM90 69L203 0H365V105H216V437H90V69ZM327 515L210 516V576H327V515ZM453 515L566 516V576H453V515ZM327 515L210 516V576H327V515ZM453 515L566
516V576H453V515Z" />
<glyph unicode="&#xfd;" glyph-name="yacute" horiz-adv-x="793" d="M90 441H215V138H368V57H205L90 127V441ZM215 -46V-91H368V-196H205L90 -127V-46H215ZM691 441V-127L563 -196H416V-91H563V57H413V138H563V441H691ZM693 648V573L464 572L693 648Z" />
<glyph unicode="&#xfe;" glyph-name="thorn" horiz-adv-x="777" d="M697 368V126L582 58H423V138H574V344H421V436H582L697 368ZM225 436H375V344H225V138H372V58H225V-195H100V575H225V436Z" />
<glyph unicode="&#xff;" glyph-name="y.001" horiz-adv-x="791" d="M90 441H215V138H368V57H205L90 127V441ZM215 -46V-91H368V-196H205L90 -127V-46H215ZM691 441V-127L563 -196H416V-91H563V57H413V138H563V441H691Z" />
<glyph unicode="&#x2013;" glyph-name="endash" horiz-adv-x="759" d="M679 306V247H80V306H679Z" />
<glyph unicode="&#x2014;" glyph-name="emdash" horiz-adv-x="893" d="M813 306V247H80V306H813Z" />
<glyph unicode="&#x2018;" glyph-name="quoteleft" horiz-adv-x="250" d="M151 525H67V663L151 712V525Z" />
<glyph unicode="&#x2019;" glyph-name="quoteright" horiz-adv-x="144" d="M30 711H114V574L30 525V711Z" />
<glyph unicode="&#x201c;" glyph-name="quotedblleft" horiz-adv-x="365" d="M164 527H80V665L164 714V527ZM285 527H201V665L285 714V527Z" />
<glyph unicode="&#x201d;" glyph-name="quotedblright" horiz-adv-x="365" d="M201 712H285V574L201 525V712ZM80 712H164V574L80 525V712Z" />
<glyph unicode="&#x201e;" glyph-name="quotedblbase" horiz-adv-x="365" d="M201 139H285V1L201 -48V139ZM80 139H164V1L80 -48V139Z" />
<glyph unicode="&#x2022;" glyph-name="bullet" horiz-adv-x="355" d="M178 174L80 208V323L178 357L275 323V208L178 174V174Z" />
<glyph unicode="&#x2039;" glyph-name="guilsinglleft" horiz-adv-x="280" d="M50 254L230 391V334L94 231L230 118V60L50 208V254Z" />
<glyph unicode="&#x203a;" glyph-name="guilsinglright" horiz-adv-x="280" d="M230 208L50 60V118L186 231L50 334V391L230 254V208Z" />
</font>
</defs>
</svg>
