<?xml version="1.0" standalone="no"?>
<!DOCTYPE svg PUBLIC "-//W3C//DTD SVG 1.1//EN" "http://www.w3.org/Graphics/SVG/1.1/DTD/svg11.dtd">
<svg xmlns="http://www.w3.org/2000/svg">
<defs >
<font id="Enriqueta" horiz-adv-x="456" ><font-face
    font-family="Enriqueta"
    units-per-em="1000"
    panose-1="2 0 0 0 0 0 0 0 0 0"
    ascent="1077"
    descent="-261"
    alphabetic="0" />
<glyph unicode=" " glyph-name="space" horiz-adv-x="255" />
<glyph unicode="!" glyph-name="exclam" horiz-adv-x="325" d="M100 23T100 57T118 105T168 120T215 104T230 57Q230 -10 156 -10Q122 -10 111 6ZM132 174L117 558L113 720H212L209 558L193 174H132Z" />
<glyph unicode="&quot;" glyph-name="quotedbl" horiz-adv-x="366" d="M109 790Q147 790 147 754Q147 750 147 746L132 537H72L57 746Q57 750 57 761T67 781T109 790ZM271 790Q309 790 309 754Q309 750 309 746L294 537H234L219 746Q219 750 219 761T229 781T271 790Z" />
<glyph unicode="#" glyph-name="numbersign" horiz-adv-x="592" d="M381 10H313L336 140H211L188 10H120L143 140H40V202H154L180 352H67V413H191L219 569H287L259 413H384L412 569H480L452 413H552V352H441L415 202H525V140H404L381 10ZM248 352L222 202H347L373
352H248Z" />
<glyph unicode="$" glyph-name="dollar" horiz-adv-x="554" d="M481 647L469 505H398L384 589Q333 615 272 615T184 594T157 531T180 468T263 413L373 360Q439 328 471 294T503 186T449 63T301 5L305 -119H230L234 4Q164 6 125 17T45 42L60 188L132 184L141 96Q199
72 267 72T373 99T411 169T393 233T307 289L185 353Q126 384 96 418T66 515T110 622T233 676L229 795H303L298 677Q380 674 481 647Z" />
<glyph unicode="%" glyph-name="percent" horiz-adv-x="672" d="M258 579T291 541T324 445T285 353T190 317T101 353T67 444T102 539T197 579ZM232 370T247 393T263 452T243 507T190 528T143 506T128 449T148 392T200 370ZM171 -23L119 13L498 595L549 559L171
-23ZM540 250T573 212T606 116T567 24T472 -12T383 24T349 115T384 210T479 250ZM514 38T529 62T545 121T525 176T472 197T425 175T410 118T430 60T482 38Z" />
<glyph unicode="&amp;" glyph-name="ampersand" horiz-adv-x="706" d="M591 256L616 203L535 144L545 132Q603 58 656 58Q677 58 696 66L691 10Q656 -10 621 -10T558 5T515 36T464 93Q459 90 425 68T365 31T296 3T206 -11T123 7T66 54Q31 111 31 171T50 266T108
335L205 418Q193 437 165 474T125 536T113 589T121 639T150 682Q193 730 292 730T482 680L464 544H389V640Q351 669 287 669Q253 669 233 648T212 593Q212 554 252 504Q274 475 294 452T319 424L496 195L591 256ZM421 145L255 367L194 307Q155 269 143 247T131
180T161 100T251 65Q289 65 340 93T421 145Z" />
<glyph unicode="&apos;" glyph-name="quotesingle" horiz-adv-x="204" d="M132 537H72Q52 744 52 753Q52 790 102 790T152 753Q152 730 132 537Z" />
<glyph unicode="(" glyph-name="parenleft" horiz-adv-x="313" d="M289 -169L242 -210Q170 -131 115 3T60 288T115 572T243 785L290 740Q215 638 182 513T148 286T181 58T289 -169Z" />
<glyph unicode=")" glyph-name="parenright" horiz-adv-x="313" d="M71 -210L24 -169Q99 -67 132 58T165 285T132 513T23 740L70 785Q142 706 197 572T253 288T198 4T71 -210Z" />
<glyph unicode="*" glyph-name="asterisk" horiz-adv-x="352" d="M180 717L202 716L191 589Q272 645 287 645T309 638T327 608L211 553L288 515Q314 502 314 480Q314 471 298 445L191 518Q197 456 197 433T187 400T164 390T140 392L150 518Q101 484 83 473T52
462T33 470T15 499L130 553Q63 584 46 597T28 623T44 662L150 589Q145 639 145 668Q145 717 180 717Z" />
<glyph unicode="+" glyph-name="plus" horiz-adv-x="516" d="M289 10H221V201H40V269H221V466H289V269H476V201H289V10Z" />
<glyph unicode="," glyph-name="comma" horiz-adv-x="230" d="M180 36Q180 -12 150 -60T72 -137L43 -107Q111 -64 118 -5Q106 -7 93 -7T65 7T50 47Q50 113 111 113Q180 113 180 36Z" />
<glyph unicode="-" glyph-name="hyphen" horiz-adv-x="396" d="M60 214V289H336V214H60Z" />
<glyph unicode="." glyph-name="period" horiz-adv-x="228" d="M178 90T178 54T162 6T105 -6Q50 -6 50 50Q50 89 65 105T118 122T167 106Z" />
<glyph unicode="/" glyph-name="slash" horiz-adv-x="413" d="M324 720H400L96 -144H20L324 720Z" />
<glyph unicode="0" glyph-name="zero" horiz-adv-x="582" d="M418 512T482 442T547 261T476 70T284 -10T100 60T35 241T106 432T298 512ZM378 56T417 111T457 254T409 394T283 446T165 391T125 248T172 108T299 56Z" />
<glyph unicode="1" glyph-name="one" horiz-adv-x="360" d="M231 505V105Q231 83 235 75T255 66L330 59V0H48V59L128 66Q143 68 147 75T152 105V413L52 368V440L179 505H231Z" />
<glyph unicode="2" glyph-name="two" horiz-adv-x="449" d="M411 75V0H33V16Q33 75 53 107T101 160T162 201T217 236T264 270Q311 308 311 354T286 424T221 449T133 433L118 356H58L51 477Q148 508 230 508T355 469T398 361Q398 287 336 235Q304 209 284 196T243
172T204 151T177 137T156 122Q133 104 131 75H411Z" />
<glyph unicode="3" glyph-name="three" horiz-adv-x="461" d="M119 150L114 214Q165 222 230 252Q265 269 287 298T310 365T285 426T222 451T162 447T131 441L120 369H58L51 485Q164 508 239 508T355 467T396 363Q396 255 265 201Q334 184 376 148T419 30T361
-112T209 -172T25 -127L40 -75Q60 -82 115 -92T196 -103Q262 -103 297 -61T333 30Q333 131 214 142L119 150Z" />
<glyph unicode="4" glyph-name="four" horiz-adv-x="505" d="M475 75V0H399V-164H320V0H66L25 74L322 515L370 465L122 75H320V250H399V75H475Z" />
<glyph unicode="5" glyph-name="five" horiz-adv-x="459" d="M396 504V430H165L150 250L255 234Q356 220 390 162Q416 117 416 57Q416 -45 354 -106T201 -168T20 -123L35 -71Q58 -78 109 -88T184 -99Q255 -99 292 -53T330 47T301 128T202 167L72 186L98 504H396Z" />
<glyph unicode="6" glyph-name="six" horiz-adv-x="528" d="M385 429T435 371T486 211T424 50T256 -10Q199 -10 157 12T90 74Q44 150 44 261T76 462T183 624Q292 730 439 730V668Q322 663 238 570T135 360Q167 400 203 414T290 429Q385 429 435 371ZM400 213Q400
360 271 360Q235 360 207 347T165 317Q136 278 136 210T173 100T274 58T369 102T400 213Z" />
<glyph unicode="7" glyph-name="seven" horiz-adv-x="448" d="M118 -177L50 -135Q127 -1 224 184T336 427H136Q116 427 108 422T98 400L92 333H29L20 504H425V482Q425 443 413 411T355 286Q133 -150 118 -177Z" />
<glyph unicode="8" glyph-name="eight" horiz-adv-x="502" d="M65 545Q65 639 119 684T257 730T389 687T437 567Q437 524 417 477Q411 463 390 441T361 414T323 382Q377 348 404 324Q462 271 462 181T401 41T245 -10T95 35T40 175Q40 244 83 290Q118 326 178 369Q121
409 93 450T65 545ZM171 303T148 270T124 180T163 87T261 50T348 82T377 168T347 253T240 330L222 340Q171 303 148 270ZM337 471T348 501T360 575T325 645T242 672Q145 672 145 565Q145 521 175 489T279 409Q308 437 322 454Z" />
<glyph unicode="9" glyph-name="nine" horiz-adv-x="517" d="M135 70T82 129T28 291T87 452T248 511T410 441T469 254Q469 -17 304 -161Q202 -250 82 -250L67 -185Q174 -185 268 -88T378 144Q327 70 231 70ZM114 277Q114 141 244 141Q283 141 314 157T361 197T377
287T342 398T235 442Q114 442 114 277Z" />
<glyph unicode=":" glyph-name="colon" horiz-adv-x="228" d="M178 90T178 54T162 6T105 -6Q50 -6 50 50Q50 89 65 105T118 122T167 106ZM178 458T178 422T162 374T105 362Q50 362 50 418Q50 457 65 473T118 490T167 474Z" />
<glyph unicode=";" glyph-name="semicolon" horiz-adv-x="230" d="M180 36Q180 -12 150 -60T72 -137L43 -107Q111 -64 118 -5Q106 -7 93 -7T65 7T50 47Q50 113 111 113Q180 113 180 36ZM181 458T181 422T165 374T108 362Q53 362 53 418Q53 457 68 473T121 490T170 474Z" />
<glyph unicode="&lt;" glyph-name="less" horiz-adv-x="545" d="M455 -20L45 240L455 500L492 450L167 240L490 30L455 -20Z" />
<glyph unicode="=" glyph-name="equal" horiz-adv-x="544" d="M60 288V354H484V288H60ZM60 115V181H484V115H60Z" />
<glyph unicode="&gt;" glyph-name="greater" horiz-adv-x="545" d="M90 500L500 240L90 -20L53 30L378 240L55 450L90 500Z" />
<glyph unicode="?" glyph-name="question" horiz-adv-x="450" d="M360 577Q360 670 254 670Q204 670 153 649L143 570H79L68 697Q164 729 256 729T395 687T441 577Q441 527 426 489T387 428T336 386T284 352Q229 320 225 269L220 182L160 175L155 223Q150 271
150 303T165 357T204 394T255 427T305 464T344 511T360 577ZM154 -11T144 3T134 53T148 101T199 113T246 101T258 54T244 4T192 -11Z" />
<glyph unicode="@" glyph-name="at" horiz-adv-x="768" d="M499 444L563 456L530 247Q528 239 528 227T538 203T565 191Q603 191 631 246T659 378Q659 477 593 532T428 587Q383 587 331 576T247 545Q200 516 158 427T116 240Q116 119 187 56T359 -7Q494 -7 654
68L688 17Q512 -81 334 -81Q212 -81 122 2T31 218Q31 332 66 415T145 545Q254 660 438 660Q578 660 655 580T733 387T678 199T551 123Q504 123 469 175Q381 108 322 108Q277 108 242 146T207 233T226 331T270 407Q325 466 403 466Q455 466 499 444ZM464 232L483
379Q450 408 402 408T329 382Q280 333 280 250Q280 177 348 177Q368 177 404 195T464 232Z" />
<glyph unicode="A" glyph-name="A" horiz-adv-x="663" d="M70 112L285 720H378L592 112Q601 87 610 79T640 66L679 59V0H422V57L477 66Q503 70 503 90Q503 99 499 110L455 237H190L148 113Q144 102 144 92Q144 70 171 66L225 57V0H-15V59L23 66Q43 70 52 78T70
112ZM333 589L322 634L311 589L214 307H430L333 589Z" />
<glyph unicode="B" glyph-name="B" horiz-adv-x="618" d="M140 106V614Q140 634 135 641T111 652L58 661V720H314Q429 720 486 686T544 558Q544 491 508 444T431 387Q505 380 549 339T594 217Q594 116 528 58T348 0H58V59L111 68Q129 71 134 78T140 106ZM226 650V408H304Q382
408 416 433T450 541Q450 605 409 627T291 650H226ZM226 340V70H334Q411 70 449 92Q500 123 500 215Q500 340 334 340H226Z" />
<glyph unicode="C" glyph-name="C" horiz-adv-x="636" d="M568 115L588 50Q585 47 561 39T518 23T479 11T436 0Q392 -10 342 -10Q42 -10 42 352Q42 520 123 625T368 730Q427 730 476 720T592 673L576 510H504L483 620Q444 639 415 647T335 655T253 641T196 602T155
500T139 359Q139 224 196 146T360 68Q443 68 568 115Z" />
<glyph unicode="D" glyph-name="D" horiz-adv-x="718" d="M462 73T518 142T575 368T520 586T342 647H226V73H342Q462 73 518 142ZM58 720H357Q672 720 672 371Q672 199 596 100T357 0H58V60L111 69Q129 72 134 80T140 109V618Q140 638 135 647T111 658L58 664V720Z" />
<glyph unicode="E" glyph-name="E" horiz-adv-x="620" d="M576 0H58V60L111 69Q129 72 134 79T140 107V618Q140 638 135 647T111 658L58 664V720H572L566 548H502L496 618Q495 636 486 641T458 647H226V412H460V339H226V73H459Q478 73 487 78T497 102L503 177H570L576 0Z" />
<glyph unicode="F" glyph-name="F" horiz-adv-x="580" d="M58 720H562L556 548H492L486 618Q485 636 476 641T448 647H226V406H440V333H226V106Q226 86 232 78T256 68L327 60V0H58V59L111 68Q129 71 134 78T140 106V622Q140 640 134 648T111 658L58 664V720Z" />
<glyph unicode="G" glyph-name="G" horiz-adv-x="687" d="M142 359Q142 227 196 147T361 66Q429 66 509 91V224Q509 243 504 251T480 262L423 271V330H659V271L620 264Q602 260 598 253T593 226V51Q455 -10 346 -10Q45 -10 45 352Q45 520 126 625T371 730Q433
730 486 720T607 673L591 510H519L498 620Q457 639 424 647T339 655T256 641T199 602T158 500T142 359Z" />
<glyph unicode="H" glyph-name="H" horiz-adv-x="790" d="M650 614V106Q650 86 655 79T679 68L732 59V0H477V59L535 68Q553 71 558 78T564 106V341H226V106Q226 86 231 79T255 68L313 59V0H58V59L111 68Q129 71 134 78T140 106V614Q140 634 135 641T111 652L58
661V720H313V661L255 652Q237 649 232 642T226 614V413H564V614Q564 634 559 641T535 652L477 661V720H732V661L679 652Q661 649 656 642T650 614Z" />
<glyph unicode="I" glyph-name="I" horiz-adv-x="366" d="M308 59V0H58V59L111 68Q129 71 134 78T140 106V614Q140 634 135 641T111 652L58 661V720H308V661L255 652Q237 649 232 642T226 614V106Q226 86 231 79T255 68L308 59Z" />
<glyph unicode="J" glyph-name="J" horiz-adv-x="341" d="M14 -154L-25 -100Q84 -33 112 15T140 179V614Q140 634 135 641T111 652L58 661V720H308V661L255 652Q237 649 232 642T226 614V148Q226 53 212 18T186 -36T146 -75Q101 -109 14 -154Z" />
<glyph unicode="K" glyph-name="K" horiz-adv-x="646" d="M226 384V106Q226 86 231 79T255 68L312 59V0H58V59L111 68Q129 71 134 78T140 106V614Q140 634 135 641T111 652L58 661V720H312V661L255 652Q237 649 232 642T226 614V403L481 677Q521 720 574 720H623V658Q590
658 571 651T526 617L324 398L504 153Q544 98 567 79T616 60T661 67L655 9Q619 -10 574 -10T499 15T431 97L226 384Z" />
<glyph unicode="L" glyph-name="L" horiz-adv-x="556" d="M542 0H58V59L111 68Q129 71 134 78T140 106V614Q140 634 135 641T111 652L58 661V720H314V661L255 652Q237 649 232 642T226 614V73H425Q444 73 453 78T463 102L469 177H536L542 0Z" />
<glyph unicode="M" glyph-name="M" horiz-adv-x="893" d="M257 0H19V59L72 68Q90 71 94 78T101 105L136 625Q136 651 106 655L54 661V720H254L452 134L629 720H841V661L785 655Q767 653 761 646T754 623L794 105Q796 85 800 78T823 68L882 59V0H626V59L680 65Q709
69 709 97L672 611L481 0H410L198 611L174 99Q175 83 181 75T204 65L257 59V0Z" />
<glyph unicode="N" glyph-name="N" horiz-adv-x="787" d="M226 562V106Q226 86 231 79T255 68L308 59V0H58V59L111 68Q129 71 134 78T140 106V615Q140 635 135 644T111 655L59 661V720H227L586 158V615Q586 635 581 644T558 655L506 661V720H753V661L701 655Q683
653 678 644T672 615V0H584L226 562Z" />
<glyph unicode="O" glyph-name="O" horiz-adv-x="717" d="M619 632T647 552T675 379T656 222T598 104T491 21T328 -10T165 39T70 168T42 341T61 498T119 616T226 699T389 730T552 681ZM578 502T518 579T351 656T196 601Q171 572 155 499T139 354Q139 218 199 141T366
64T521 119Q546 148 562 221T578 366Q578 502 518 579Z" />
<glyph unicode="P" glyph-name="P" horiz-adv-x="569" d="M226 650V349H295Q376 349 405 372T445 430T457 524Q457 650 312 650H226ZM140 106V614Q140 634 135 641T111 652L58 661V720H321Q435 720 494 680T554 529T477 349T298 279H226V106Q226 86 232 78T256
68L327 60V0H58V59L111 68Q129 71 134 78T140 106Z" />
<glyph unicode="Q" glyph-name="Q" horiz-adv-x="717" d="M388 -49T480 -79T609 -109T686 -89L701 -142Q691 -153 661 -170T583 -187T443 -154T311 -121T226 -134L206 -82Q269 -49 328 -49ZM619 632T647 552T675 379T656 222T598 104T491 21T328 -10T165 39T70
168T42 341T61 498T119 616T226 699T389 730T552 681ZM578 502T518 579T351 656T196 601Q171 572 155 499T139 354Q139 218 199 141T366 64T521 119Q546 148 562 221T578 366Q578 502 518 579Z" />
<glyph unicode="R" glyph-name="R" horiz-adv-x="638" d="M226 650V397H315Q383 397 413 422Q453 455 453 530Q453 650 301 650H226ZM226 327V106Q226 86 232 78T256 68L321 60V0H58V59L111 68Q129 71 134 78T140 106V614Q140 634 135 641T111 652L58 661V720H321Q432
720 491 679T550 540Q550 429 460 378Q415 352 369 346Q399 339 434 284L544 112Q578 59 623 59Q637 59 658 66L653 11Q625 -10 574 -10Q512 -10 457 74L323 287Q297 327 262 327H226Z" />
<glyph unicode="S" glyph-name="S" horiz-adv-x="537" d="M131 197L146 95Q204 60 272 60T383 92T425 176T400 256T302 311L180 357Q119 380 83 426T46 539Q46 626 103 677T262 729T476 702L462 547H390L375 637Q321 662 258 662Q138 662 138 551Q138 506 164
478T255 426L340 396Q416 369 451 341T500 279T514 202Q514 106 447 48T254 -10Q169 -10 109 12Q88 19 46 36L58 197H131Z" />
<glyph unicode="T" glyph-name="T" horiz-adv-x="606" d="M485 650H346V106Q346 86 351 79T375 68L432 59V0H174V59L231 68Q249 71 254 78T260 106V650H120Q101 650 93 645T83 621L77 548H13L7 720H599L593 548H529L523 621Q522 639 513 644T485 650Z" />
<glyph unicode="U" glyph-name="U" horiz-adv-x="721" d="M613 614V232Q613 148 572 92Q500 -10 351 -10Q232 -10 171 52T110 232V614Q110 634 105 641T81 652L28 661V720H278V661L225 652Q207 649 202 642T196 614V248Q196 70 382 70Q454 70 492 106T531 256V614Q531
634 526 641T502 652L449 661V720H695V661L642 652Q624 649 619 642T613 614Z" />
<glyph unicode="V" glyph-name="V" horiz-adv-x="662" d="M583 615L383 1H310L88 615Q80 639 66 647T29 658L-6 662V721H263V663L210 657Q194 655 188 652T181 639T186 615L352 129L499 615Q503 631 503 636Q503 654 472 657L419 663V721H668V662L631 658Q611
656 602 648T583 615Z" />
<glyph unicode="W" glyph-name="W" horiz-adv-x="941" d="M861 614L729 0H608L479 523L353 0H231L91 614Q86 638 73 646T36 657L-3 661V720H267V662L210 656Q194 655 188 650T182 638T184 614L299 96L431 646H541L675 96L783 614Q784 620 784 631Q784 652 751
656L698 662V720H941V661L906 657Q892 655 884 652Q868 647 861 614Z" />
<glyph unicode="X" glyph-name="X" horiz-adv-x="683" d="M288 371L115 614Q99 638 89 645T56 656L18 661V720H286V662L230 656Q211 655 211 642Q211 632 223 614L348 436L462 614Q475 634 475 643Q475 655 457 656L406 662V720H660V661L622 656Q574 650 551 614L393
372L581 106Q596 85 607 76T636 64L674 59V0H399V58L460 64Q487 66 487 84Q487 92 478 106L332 309L203 106Q192 89 192 79Q192 65 212 64L273 58V0H6V59L44 64Q87 68 112 106L288 371Z" />
<glyph unicode="Y" glyph-name="Y" horiz-adv-x="670" d="M292 254L94 614Q81 636 69 644T34 656L-4 661V720H265V662L215 656Q183 651 183 637Q183 630 191 614L348 331L498 614Q505 627 505 635Q505 650 470 655L420 661V720H668V661L630 656Q610 653 602 646T580
614L378 256V106Q378 86 383 79T407 68L464 59V0H206V59L263 68Q281 71 286 78T292 106V254Z" />
<glyph unicode="Z" glyph-name="Z" horiz-adv-x="624" d="M469 650H189Q170 650 161 645T151 621L145 551H79L73 720H571V650L160 73H474Q493 73 502 78T512 102L518 177H585L591 0H58V73L469 650Z" />
<glyph unicode="[" glyph-name="bracketleft" horiz-adv-x="363" d="M325 780V719H175V-179H325V-240H100V780H325Z" />
<glyph unicode="\" glyph-name="backslash" horiz-adv-x="413" d="M20 692L85 720L389 -144L324 -172L20 692Z" />
<glyph unicode="]" glyph-name="bracketright" horiz-adv-x="363" d="M38 719V780H263V-240H38V-179H188V719H38Z" />
<glyph unicode="^" glyph-name="asciicircum" horiz-adv-x="575" d="M249 720H322L515 371L459 339L283 646L112 339L62 363L249 720Z" />
<glyph unicode="_" glyph-name="underscore" horiz-adv-x="500" d="M0 -172V-118H500V-172H0Z" />
<glyph unicode="`" glyph-name="grave" horiz-adv-x="293" d="M45 702L103 762L259 586Q233 564 215 564T182 578L45 702Z" />
<glyph unicode="a" glyph-name="a" horiz-adv-x="527" d="M414 352V98Q414 76 418 69T437 60L493 54V0H347L339 78Q256 -10 163 -10Q106 -10 72 25T37 119T72 215T173 261L335 283V350Q335 430 227 430Q181 430 139 411L125 338H67L60 453Q163 490 236 490T361
456T414 352ZM335 229L196 206Q160 201 140 180T120 127T140 78T193 61Q247 61 335 140V229Z" />
<glyph unicode="b" glyph-name="b" horiz-adv-x="564" d="M184 780V421Q242 490 339 490Q420 490 472 428T525 253T464 65T286 -10Q189 -10 105 35V684Q105 705 100 713T80 722L25 728V780H184ZM184 356V97Q232 56 304 56T403 89Q439 141 439 237T402 379T305
424Q265 424 233 402T184 356Z" />
<glyph unicode="c" glyph-name="c" horiz-adv-x="475" d="M423 83L435 32Q433 31 420 26T397 17T369 8T334 -2Q295 -10 255 -10Q149 -10 95 50T40 226T102 416T268 490Q314 490 357 479T422 453L415 330H357L343 405Q309 424 243 424Q219 424 194 415T160 391Q126
343 126 231Q126 153 162 105T266 56Q315 56 423 83Z" />
<glyph unicode="d" glyph-name="d" horiz-adv-x="569" d="M380 133V385Q341 424 270 424T167 397Q147 380 136 330T125 239Q125 56 254 56Q300 56 336 84T380 133ZM459 780V98Q459 76 463 69T482 60L540 54V0H392L384 68Q374 53 359 39T307 7T227 -10Q140 -10
90 52T39 223T103 411T276 490Q326 490 380 472V684Q380 705 375 713T355 722L295 728V780H459Z" />
<glyph unicode="e" glyph-name="e" horiz-adv-x="484" d="M445 242L123 219Q128 56 270 56Q340 56 427 85L441 36Q412 21 370 10Q301 -10 242 -10Q137 -10 87 55T36 234T95 419T260 490T406 429T445 242ZM122 279L366 300Q366 356 343 390T249 424T155 397T122 279Z" />
<glyph unicode="f" glyph-name="f" horiz-adv-x="334" d="M37 476L118 485H120V590Q120 688 171 739T310 790Q360 790 411 771L381 697Q377 698 359 704Q316 720 277 720T219 700T199 646V485L327 495V428H199V98Q199 76 203 69T222 60L300 53V0H40V54L97 60Q112
61 116 68T120 98V428H37V476Z" />
<glyph unicode="g" glyph-name="g" horiz-adv-x="499" d="M477 512V458Q440 434 399 431Q436 385 436 308T377 178T226 125Q206 125 196 126L174 67Q174 51 205 46Q292 35 372 22Q468 7 468 -81Q468 -151 403 -200T232 -250Q166 -250 110 -234T24 -191L45 -68H100V-143Q153
-178 253 -178Q320 -178 354 -161T389 -98Q389 -76 372 -67T287 -50T161 -31Q90 -17 90 58L141 138Q35 178 35 307Q35 380 88 435T250 491H254Q336 491 376 493T477 512ZM333 223Q353 250 353 312Q353 435 229 435Q162 435 140 404T118 312T148 217T241 183T333
223Z" />
<glyph unicode="h" glyph-name="h" horiz-adv-x="627" d="M595 0H438V324Q438 368 410 392T335 416T252 393T199 339V98Q199 76 203 69T222 60L282 53V0H42V54L97 60Q112 61 116 68T120 98V683Q120 705 116 713T97 722L40 728V780H199V408Q221 431 236 444T287
474T365 490Q444 490 480 449T517 344V98Q517 76 521 69T540 60L595 54V0Z" />
<glyph unicode="i" glyph-name="i" horiz-adv-x="309" d="M199 480V98Q199 76 203 69T222 60L277 54V0H42V54L97 60Q112 62 116 69T120 98V384Q120 406 116 413T97 422L42 428V480H199ZM186 714T196 700T207 652T193 608T146 596T101 609T89 653T103 699T151 714Z" />
<glyph unicode="j" glyph-name="j" horiz-adv-x="289" d="M177 714T187 700T198 652T184 608T137 596T92 609T80 653T94 699T142 714ZM110 25V384Q110 406 106 413T87 422L32 428V480H189V-3Q189 -78 178 -116T134 -183T26 -250L-23 -210Q40 -171 64 -147T99 -85T110 25Z" />
<glyph unicode="k" glyph-name="k" horiz-adv-x="542" d="M120 98V684Q120 706 116 713T97 722L42 728V780H199V289L340 432Q369 461 389 470T436 480H481V422H465Q442 422 415 407T370 376T325 330L285 288V281L406 126Q460 55 515 55Q523 55 536 57T552 60L542
5Q502 -10 474 -10Q417 -10 371 51L199 273V98Q199 76 203 69T222 60L269 52V0H42V54L97 60Q112 62 116 69T120 98Z" />
<glyph unicode="l" glyph-name="l" horiz-adv-x="309" d="M42 780H199V98Q199 76 203 69T222 60L277 54V0H42V54L97 60Q112 62 116 69T120 98V686Q120 707 116 714T97 722L42 728V780Z" />
<glyph unicode="m" glyph-name="m" horiz-adv-x="914" d="M502 357L503 346V98Q503 76 507 69T526 60L586 53V0H424V322Q424 416 330 416Q290 416 253 394T199 340V98Q199 76 203 69T222 60L282 53V0H42V54L97 60Q112 61 116 68T120 98V384Q120 406 116 413T97
422L42 428V480H189L198 407Q220 430 234 443T285 473T363 490Q457 490 491 410Q557 490 657 490Q732 490 768 448T804 346V98Q804 76 808 69T827 60L882 54V0H725V322Q725 367 699 391T624 416Q557 416 502 357Z" />
<glyph unicode="n" glyph-name="n" horiz-adv-x="627" d="M595 0H438V323Q438 368 410 392T335 416T252 393T199 340V98Q199 76 203 69T222 60L282 53V0H42V54L97 60Q112 61 116 68T120 98V384Q120 406 116 413T97 422L42 428V480H189L198 408Q221 432 236 445T287
474T365 490Q445 490 481 449T517 347V98Q517 76 521 69T540 60L595 54V0Z" />
<glyph unicode="o" glyph-name="o" horiz-adv-x="543" d="M447 72Q419 35 370 13T255 -10Q144 -10 92 57T40 240Q40 334 96 408Q124 445 173 467T288 490Q399 490 451 423T503 251T447 72ZM417 328T377 376T267 424T172 400T137 329T126 236Q126 152 166 104T276
56T371 80T406 151T417 244Q417 328 377 376Z" />
<glyph unicode="p" glyph-name="p" horiz-adv-x="569" d="M189 355V94Q234 56 302 56T403 87Q422 108 433 152T444 247Q444 333 409 378T309 424Q273 424 236 399T189 355ZM110 -142V384Q110 406 106 413T87 422L32 428V480H179L187 416Q250 490 342 490T482 425T530
248T461 63T288 -10Q228 -10 189 11V-142Q189 -164 193 -171T212 -180L285 -187V-240H30V-186L87 -180Q102 -179 106 -172T110 -142Z" />
<glyph unicode="q" glyph-name="q" horiz-adv-x="560" d="M381 119V400Q365 410 330 417T263 424Q205 424 178 403T138 335T125 239Q125 147 160 102T261 56Q306 56 339 77T381 119ZM381 -142V56Q324 -10 222 -10Q141 -10 90 52T39 228T100 416T272 490Q314 490
344 480T381 468L460 480V-142Q460 -164 464 -171T483 -180L538 -186V-240H285V-187L358 -180Q373 -179 377 -172T381 -142Z" />
<glyph unicode="r" glyph-name="r" horiz-adv-x="440" d="M120 98V384Q120 406 116 413T97 422L42 428V480H185L195 380Q210 419 253 454T347 490T430 471L422 345H364L353 409Q339 416 316 416Q273 416 241 379T199 303V98Q199 76 203 69T222 60L295 53V0H40V54L97
60Q112 61 116 68T120 98Z" />
<glyph unicode="s" glyph-name="s" horiz-adv-x="440" d="M50 426T100 458T221 490T381 462L374 345H316L302 418Q262 433 219 433Q128 433 128 370Q128 339 156 321T258 279T367 224T403 140Q403 71 349 31T212 -10T43 25L50 146H110L119 73Q171 52 211 52Q322
52 322 125Q322 154 292 174T189 216T83 271T50 365Z" />
<glyph unicode="t" glyph-name="t" horiz-adv-x="354" d="M20 423V471L95 480V569L174 587V480L307 490V423H174V196Q174 116 191 85T270 53Q296 53 341 60L332 9Q318 2 281 -4T213 -10T158 -1T123 22T104 64Q95 101 95 181V423H20Z" />
<glyph unicode="u" glyph-name="u" horiz-adv-x="606" d="M417 139V384Q417 406 413 413T394 422L339 428V480H496V98Q496 76 500 69T519 60L575 54V0H431L423 76Q350 -10 259 -10Q185 -10 145 27T105 133V384Q105 406 101 413T82 422L27 428V480H184V160Q184
64 282 64Q328 64 367 91T417 139Z" />
<glyph unicode="v" glyph-name="v" horiz-adv-x="515" d="M301 0H212L61 384Q57 392 56 396T54 403T51 408T48 412T44 416T40 418Q34 422 27 422L-17 428V480H215V429L164 423Q141 420 141 406Q141 404 147 384L242 134L262 65L282 134L377 384Q382 399 382 405Q382
420 358 423L307 429V480H526V428L482 422Q463 420 456 402L301 0Z" />
<glyph unicode="w" glyph-name="w" horiz-adv-x="761" d="M164 384L233 132L243 76L254 132L342 429H420L511 132L523 71L533 132L602 384Q607 399 607 405Q607 420 583 423L532 429V480H751V428L707 422Q684 419 673 384L556 0H474L382 289L374 329L366 289L277
0H195L79 384Q75 392 74 396T72 403T69 408T66 412T62 416T58 418Q52 422 45 422L1 428V480H232V429L181 423Q158 420 158 406Q158 404 164 384Z" />
<glyph unicode="x" glyph-name="x" horiz-adv-x="532" d="M223 243L96 394Q82 411 75 416T51 424L18 430V480H231V431L188 425Q176 424 176 417Q176 411 184 403Q184 403 193 394L278 293L361 394Q363 397 368 402Q378 412 378 418T365 425L322 431V480H521V430L488
424Q469 421 459 416T436 394L317 247L446 95Q474 62 495 58L528 52V0H310V51L355 57Q367 59 367 65Q367 74 348 96L262 197L178 95Q158 69 158 64T169 57L214 51V0H11V52L44 58Q75 64 101 95L223 243Z" />
<glyph unicode="y" glyph-name="y" horiz-adv-x="523" d="M482 422Q463 420 453 396Q448 384 254 -130Q211 -250 105 -250Q49 -250 15 -238L5 -179Q56 -187 77 -187Q116 -187 147 -161T197 -85L220 -22L64 384Q60 392 59 396T57 403T54 408T51 412T47 416T42 418Q37
422 30 422L-14 428V480H218V429L167 423Q144 420 144 406Q144 399 150 384L265 76L377 384Q382 399 382 405Q382 420 358 423L307 429V480H526V428L482 422Z" />
<glyph unicode="z" glyph-name="z" horiz-adv-x="503" d="M351 419H156Q134 419 126 415T117 396L110 331H56L49 480H451V422L143 63H356Q378 63 386 67T395 86L402 159H457L463 0H43V60L351 419Z" />
<glyph unicode="{" glyph-name="braceleft" horiz-adv-x="337" d="M42 248V290Q115 290 115 446V668Q115 715 140 747T210 780H288V732H251Q217 732 205 711T193 643V430Q193 371 168 322T109 269Q143 266 168 217T193 108V-105Q193 -151 205 -172T251 -194H288V-242H210Q165
-242 140 -210T115 -130V92Q115 248 42 248Z" />
<glyph unicode="|" glyph-name="bar" horiz-adv-x="299" d="M115 790H184V-240H115V790Z" />
<glyph unicode="}" glyph-name="braceright" horiz-adv-x="337" d="M288 290V248Q215 248 215 92V-130Q215 -177 190 -209T120 -242H42V-194H79Q113 -194 125 -173T137 -105V108Q137 168 161 217T220 269Q186 272 162 321T137 430V643Q137 689 125 710T79 732H42V780H120Q165
780 190 748T215 668V446Q215 290 288 290Z" />
<glyph unicode="~" glyph-name="asciitilde" horiz-adv-x="570" d="M340 190T281 218T202 246T166 241T138 230Q105 214 84 200L72 247Q159 318 208 318Q242 318 299 290T386 262T486 301L498 254Q432 190 371 190Q340 190 281 218Z" />
<glyph unicode="&#xa0;" glyph-name="space" horiz-adv-x="255" />
<glyph unicode="&#xa1;" glyph-name="exclamdown" horiz-adv-x="323" d="M100 389T100 423T111 473T159 490T213 472T230 423T215 376T168 360T118 374ZM117 -78L132 306H193L209 -78L212 -240H113L117 -78Z" />
<glyph unicode="&#xa2;" glyph-name="cent" horiz-adv-x="480" d="M428 183L440 132Q394 109 350 101T284 91L289 -38H218L223 92Q45 112 45 316Q45 417 91 486T220 574L215 708H286L281 580Q374 577 427 543L420 420H362L348 495Q314 514 248 514Q224 514 199
505T165 481Q131 433 131 321Q131 248 167 202T271 156Q320 156 428 183Z" />
<glyph unicode="&#xa3;" glyph-name="sterling" horiz-adv-x="594" d="M62 282V342H144Q138 408 138 460T155 558T195 628T252 668Q304 692 358 692Q447 692 501 653L458 565Q394 613 324 613Q275 613 251 587T226 516T234 342H394L376 282H236Q238 230 238 205Q238
124 185 71Q231 82 262 82T347 73T424 63Q469 63 469 105V159H529L541 4Q519 -10 461 -10T324 -1T200 9T84 -14L54 49Q81 53 118 75T155 168Q155 192 149 282H62Z" />
<glyph unicode="&#xa4;" glyph-name="currency" horiz-adv-x="516" d="M405 441Q445 389 445 323T399 203L481 112L424 64L349 161Q304 136 252 136T164 153L89 56L33 103L113 191Q64 243 64 316T112 442L30 534L86 583L163 483Q206 507 261 507T357 482L430 577L486
530L405 441ZM310 204T339 238T369 323T336 405T251 436T169 403T138 317T172 235T258 204Z" />
<glyph unicode="&#xa5;" glyph-name="yen" horiz-adv-x="684" d="M567 574L387 272V230H504L494 170H387V106Q387 86 392 79T416 68L473 59V0H215V59L272 68Q290 71 295 78T301 106V170H184L194 230H301V254L115 574Q102 596 90 604T55 616L17 621V680H286V622L236
616Q204 611 204 597Q204 590 212 574L351 340L485 574Q492 587 492 595Q492 610 457 615L407 621V680H655V621L617 616Q597 613 589 606T567 574Z" />
<glyph unicode="&#xa6;" glyph-name="brokenbar" horiz-adv-x="304" d="M115 790H189V410H115V790ZM115 140H189V-240H115V140Z" />
<glyph unicode="&#xa7;" glyph-name="section" horiz-adv-x="510" d="M117 26L126 -62Q185 -96 240 -96T328 -70T362 -6T342 54T267 99L165 142Q109 165 82 198T55 282T70 355T138 425Q62 475 62 569Q62 642 112 686T251 730T432 707L421 570H359L347 647Q299
668 247 668Q148 668 148 579Q148 543 169 520T245 478L330 446Q398 415 421 396Q470 354 470 287Q470 241 452 211T385 142Q448 97 448 6Q448 -69 388 -115T228 -162T40 -116L55 26H117ZM141 302Q141 272 160 253T231 213L303 184L326 174Q360 200 372 220T384
272T361 324T285 365L197 398Q141 349 141 302Z" />
<glyph unicode="&#xa8;" glyph-name="dieresis" horiz-adv-x="547" d="M207 702T217 689T227 644T214 601T169 590T127 602T115 644T128 688T174 702ZM412 702T422 689T432 644T419 601T374 590T332 602T320 644T333 688T379 702Z" />
<glyph unicode="&#xa9;" glyph-name="copyright" horiz-adv-x="824" d="M264 -10T156 98T47 360T155 621T417 730T678 622T787 360T679 99T417 -10ZM285 680T191 586T97 360T191 134T417 40T642 134T737 359T643 585T417 680ZM548 236L558 187Q556 186 543 181T519
172T490 162Q452 152 417 152Q327 152 280 204T233 354T285 512T428 572Q494 572 551 541L545 433H492L481 496Q453 512 405 512T337 484Q308 439 308 364T339 251T422 212T548 236Z" />
<glyph unicode="&#xaa;" glyph-name="ordfeminine" horiz-adv-x="328" d="M258 648V496Q258 484 260 480T272 474L304 470V433H213L208 480Q161 427 105 427Q69 427 47 449T25 509T47 569T111 599L205 613V642Q205 691 143 691Q122 691 88 678L80 635H43L39 709Q99
730 147 730T226 710T258 648ZM205 570L125 558Q83 551 83 513Q83 477 120 477T205 525V570ZM32 325V381H299V325H32Z" />
<glyph unicode="&#xab;" glyph-name="guillemotleft" horiz-adv-x="489" d="M205 44L56 237L205 430Q209 426 215 420T225 409Q235 399 235 387T227 360L150 237L227 114Q235 99 235 90T232 74T226 64T215 53T205 44ZM382 44L233 237L382 430Q386 426 392 420T402
409Q412 399 412 387T404 360L327 237L404 114Q412 99 412 90T409 74T403 64T392 53T382 44Z" />
<glyph unicode="&#xac;" glyph-name="logicalnot" horiz-adv-x="527" d="M487 127H422V281H40V349H487V127Z" />
<glyph unicode="&#xae;" glyph-name="registered" horiz-adv-x="520" d="M170 364T112 422T54 564T112 707T254 765T397 707T455 565T397 422T255 364ZM91 632T91 564T138 449T254 401T370 448T418 564T370 680T254 728T139 680ZM253 575Q293 575 293 620Q293
639 282 646T246 653H227V575H253ZM227 543V488Q227 475 234 474L255 471V451H169V471L186 474Q194 477 194 488V641Q194 653 186 656L169 658V681H254Q328 681 328 618Q328 571 269 553Q281 550 294 531L322 493Q336 474 344 474T358 476L356 452Q341 449 331
449Q312 449 293 479L256 532Q250 543 233 543H227Z" />
<glyph unicode="&#xaf;" glyph-name="overscore" horiz-adv-x="376" d="M58 618L68 688H335L325 618H58Z" />
<glyph unicode="&#xb0;" glyph-name="degree" horiz-adv-x="318" d="M306 649T306 586T265 483T159 442T54 482T12 586T53 689T159 730T264 690ZM248 544T248 586T225 652T159 677T94 653T70 586T93 520T159 495T224 519Z" />
<glyph unicode="&#xb1;" glyph-name="plusminus" horiz-adv-x="516" d="M289 138H221V309H40V377H221V554H289V377H476V309H289V138ZM40 14V82H476V14H40Z" />
<glyph unicode="&#xb2;" glyph-name="twosuperior" horiz-adv-x="359" d="M329 339V279H30V293Q30 361 64 399Q82 419 96 429T142 461T194 497T234 540T254 600Q254 673 178 673Q139 673 107 659L93 589H42L36 698Q120 726 190 726T294 694T329 607Q329 541 286
498Q263 475 246 462T209 436T178 416T163 407T151 398T139 388T129 378T121 366Q115 351 115 339H329Z" />
<glyph unicode="&#xb3;" glyph-name="threesuperior" horiz-adv-x="357" d="M110 484L106 531Q247 557 247 628Q247 649 228 662T174 676T111 668L101 613H54L48 706Q130 726 193 726T286 700T317 636Q317 555 215 520Q269 507 300 487Q332 463 332 406T287 307T170
266T25 298L39 344Q114 319 160 319T232 345T257 403Q257 470 171 478L110 484Z" />
<glyph unicode="&#xb4;" glyph-name="acute" horiz-adv-x="285" d="M191 762L249 702L112 578Q97 564 79 564T35 586L191 762Z" />
<glyph unicode="&#xb5;" glyph-name="mu" horiz-adv-x="605" d="M101 12L100 177V480H179V160Q179 64 277 64Q323 64 362 91T412 139V480H491V100Q491 55 538 55Q564 55 577 61L567 5Q531 -10 504 -10T449 11T418 76Q345 -10 254 -10Q199 -10 159 22Q163 -74 205
-227L120 -250Q101 -165 101 12Z" />
<glyph unicode="&#xb6;" glyph-name="paragraph" horiz-adv-x="566" d="M253 -164V310Q133 310 84 354T35 503T82 664T253 720H330V-164H253ZM399 -164V720H476V-164H399Z" />
<glyph unicode="&#xb7;" glyph-name="middot" horiz-adv-x="218" d="M148 345T158 331T168 283T154 239T102 227Q50 227 50 280Q50 315 63 330T112 345Z" />
<glyph unicode="&#xb8;" glyph-name="cedilla" horiz-adv-x="322" d="M136 13L181 1V-62L208 -71Q240 -81 251 -95T262 -134Q262 -180 230 -205T154 -230T66 -209L78 -170Q113 -184 150 -184Q199 -184 199 -136Q199 -121 188 -113T154 -100L117 -92L136 13Z" />
<glyph unicode="&#xb9;" glyph-name="onesuperior" horiz-adv-x="305" d="M204 719V364Q204 344 207 337T225 329L285 323V275H61V323L119 329Q133 330 137 337T141 364V639L45 598V661L164 719H204Z" />
<glyph unicode="&#xba;" glyph-name="ordmasculine" horiz-adv-x="331" d="M32 325V381H299V325H32ZM243 730T274 689T306 583T269 473T155 427Q25 427 25 578Q25 639 62 684T171 730ZM248 630T226 657T163 685T106 669Q83 646 83 586Q83 472 171 472Q208 472
228 490T248 569Z" />
<glyph unicode="&#xbb;" glyph-name="guillemotright" horiz-adv-x="489" d="M433 237L284 44Q283 45 275 53T264 64Q254 75 254 87T262 114L339 237L262 360Q254 375 254 384T258 400T271 416T284 430L433 237ZM256 237L107 44Q106 45 98 53T86 64Q77 75 77 87T85
114L162 237L85 360Q77 375 77 384T81 400T94 416T107 430L256 237Z" />
<glyph unicode="&#xbc;" glyph-name="onequarter" horiz-adv-x="774" d="M204 719V364Q204 344 207 337T225 329L285 323V275H61V323L119 329Q133 330 137 337T141 364V639L45 598V661L164 719H204ZM624 730H684L234 0H175L624 730ZM774 154V100H703V0H640V100H439L412
154L640 451L681 416L490 154H640V285H703V154H774Z" />
<glyph unicode="&#xbd;" glyph-name="onehalf" horiz-adv-x="871" d="M204 719V364Q204 344 207 337T225 329L285 323V275H61V323L119 329Q133 330 137 337T141 364V639L45 598V661L164 719H204ZM841 60V0H542V14Q542 82 576 120Q594 140 608 150T654 182T706
218T746 261T766 321Q766 394 690 394Q651 394 619 380L605 310H554L548 419Q632 447 702 447T806 415T841 328Q841 262 798 219Q775 196 758 183T721 157T690 137T675 128T663 119T651 109T641 99T633 87Q627 72 627 60H841ZM624 730H684L234 0H175L624 730Z"
/>
<glyph unicode="&#xbe;" glyph-name="threequarters" horiz-adv-x="795" d="M645 730H705L255 0H196L645 730ZM795 154V100H724V0H661V100H460L433 154L661 451L702 416L511 154H661V285H724V154H795ZM110 484L106 531Q247 557 247 628Q247 649 228 662T174 676T111
668L101 613H54L48 706Q130 726 193 726T286 700T317 636Q317 555 215 520Q269 507 300 487Q332 463 332 406T287 307T170 266T25 298L39 344Q114 319 160 319T232 345T257 403Q257 470 171 478L110 484Z" />
<glyph unicode="&#xbf;" glyph-name="questiondown" horiz-adv-x="439" d="M119 -97Q119 -190 225 -190Q275 -190 326 -169L336 -90H400L411 -217Q315 -249 223 -249T84 -207T38 -97Q38 -47 53 -9T92 52T143 94T195 128Q250 160 254 211L259 298L319 305L324 257Q329
209 329 177T314 123T275 86T224 53T174 16T135 -31T119 -97ZM325 491T335 477T345 427T331 379T280 367T233 379T221 426T235 476T287 491Z" />
<glyph unicode="&#xc0;" glyph-name="Agrave" horiz-adv-x="663" d="M156 868L205 935L384 783Q359 754 336 754Q325 754 309 764L156 868ZM70 112L285 720H378L592 112Q601 87 610 79T640 66L679 59V0H422V57L477 66Q503 70 503 90Q503 99 499 110L455 237H190L148
113Q144 102 144 92Q144 70 171 66L225 57V0H-15V59L23 66Q43 70 52 78T70 112ZM333 589L322 634L311 589L214 307H430L333 589Z" />
<glyph unicode="&#xc1;" glyph-name="Aacute" horiz-adv-x="663" d="M461 935L510 868L357 764Q341 754 330 754Q307 754 282 783L461 935ZM70 112L285 720H378L592 112Q601 87 610 79T640 66L679 59V0H422V57L477 66Q503 70 503 90Q503 99 499 110L455 237H190L148
113Q144 102 144 92Q144 70 171 66L225 57V0H-15V59L23 66Q43 70 52 78T70 112ZM333 589L322 634L311 589L214 307H430L333 589Z" />
<glyph unicode="&#xc2;" glyph-name="Acircumflex" horiz-adv-x="663" d="M294 913H369L483 778L445 746L331 852L218 746L179 778L294 913ZM70 112L285 720H378L592 112Q601 87 610 79T640 66L679 59V0H422V57L477 66Q503 70 503 90Q503 99 499 110L455 237H190L148
113Q144 102 144 92Q144 70 171 66L225 57V0H-15V59L23 66Q43 70 52 78T70 112ZM333 589L322 634L311 589L214 307H430L333 589Z" />
<glyph unicode="&#xc3;" glyph-name="Atilde" horiz-adv-x="663" d="M70 112L285 720H378L592 112Q601 87 610 79T640 66L679 59V0H422V57L477 66Q503 70 503 90Q503 99 499 110L455 237H190L148 113Q144 102 144 92Q144 70 171 66L225 57V0H-15V59L23 66Q43 70
52 78T70 112ZM333 589L322 634L311 589L214 307H430L333 589ZM368 774T324 792T253 811T189 780L174 822Q215 880 264 880Q294 880 338 863T409 845T468 872L484 832Q444 774 395 774Q368 774 324 792Z" />
<glyph unicode="&#xc4;" glyph-name="Adieresis" horiz-adv-x="663" d="M70 112L285 720H378L592 112Q601 87 610 79T640 66L679 59V0H422V57L477 66Q503 70 503 90Q503 99 499 110L455 237H190L148 113Q144 102 144 92Q144 70 171 66L225 57V0H-15V59L23 66Q43
70 52 78T70 112ZM333 589L322 634L311 589L214 307H430L333 589ZM262 892T272 879T282 834T269 791T224 780T182 792T170 834T183 878T229 892ZM467 892T477 879T487 834T474 791T429 780T387 792T375 834T388 878T434 892Z" />
<glyph unicode="&#xc5;" glyph-name="Aring" horiz-adv-x="663" d="M70 112L285 720H378L592 112Q601 87 610 79T640 66L679 59V0H422V57L477 66Q503 70 503 90Q503 99 499 110L455 237H190L148 113Q144 102 144 92Q144 70 171 66L225 57V0H-15V59L23 66Q43 70
52 78T70 112ZM333 589L322 634L311 589L214 307H430L333 589ZM424 887T424 850T397 784T326 755T258 782T233 847T260 913T331 942T399 915ZM374 852Q374 870 361 882T328 894Q283 894 283 844Q283 826 296 814T329 802Q374 802 374 852Z" />
<glyph unicode="&#xc6;" glyph-name="AE" horiz-adv-x="929" d="M259 664V720H877L871 548H807L801 618Q800 636 791 641T763 647H550V374H769V304H550V73H773Q792 73 801 78T811 102L817 177H884L890 0H385V60L438 69Q456 72 461 79T467 107V303H261L190 113Q185
100 185 92Q185 71 213 66L267 57V0H23V59L65 66Q85 70 94 78T112 112L322 656Q321 657 312 659L259 664ZM467 373V607Q467 627 462 636T438 647L391 650L287 373H467Z" />
<glyph unicode="&#xc7;" glyph-name="Ccedilla" horiz-adv-x="636" d="M568 115L588 50Q531 21 441 1Q393 -10 348 -10V-62L375 -71Q407 -81 418 -95T429 -134Q429 -180 397 -205T321 -230T233 -209L245 -170Q280 -184 317 -184Q366 -184 366 -136Q366 -121 355
-113T321 -100L284 -92L299 -8Q42 16 42 352Q42 520 123 625T368 730Q427 730 476 720T592 673L576 510H504L483 620Q444 639 415 647T335 655T253 641T196 602T155 500T139 359Q139 224 196 146T360 68Q443 68 568 115Z" />
<glyph unicode="&#xc8;" glyph-name="Egrave" horiz-adv-x="620" d="M154 868L203 935L382 783Q357 754 334 754Q323 754 307 764L154 868ZM576 0H58V60L111 69Q129 72 134 79T140 107V618Q140 638 135 647T111 658L58 664V720H572L566 548H502L496 618Q495 636
486 641T458 647H226V412H460V339H226V73H459Q478 73 487 78T497 102L503 177H570L576 0Z" />
<glyph unicode="&#xc9;" glyph-name="Eacute" horiz-adv-x="620" d="M446 935L495 868L342 764Q326 754 315 754Q292 754 267 783L446 935ZM576 0H58V60L111 69Q129 72 134 79T140 107V618Q140 638 135 647T111 658L58 664V720H572L566 548H502L496 618Q495 636
486 641T458 647H226V412H460V339H226V73H459Q478 73 487 78T497 102L503 177H570L576 0Z" />
<glyph unicode="&#xca;" glyph-name="Ecircumflex" horiz-adv-x="620" d="M295 913H370L484 778L446 746L332 852L219 746L180 778L295 913ZM576 0H58V60L111 69Q129 72 134 79T140 107V618Q140 638 135 647T111 658L58 664V720H572L566 548H502L496 618Q495 636
486 641T458 647H226V412H460V339H226V73H459Q478 73 487 78T497 102L503 177H570L576 0Z" />
<glyph unicode="&#xcb;" glyph-name="Edieresis" horiz-adv-x="620" d="M576 0H58V60L111 69Q129 72 134 79T140 107V618Q140 638 135 647T111 658L58 664V720H572L566 548H502L496 618Q495 636 486 641T458 647H226V412H460V339H226V73H459Q478 73 487 78T497
102L503 177H570L576 0ZM272 892T282 879T292 834T279 791T234 780T192 792T180 834T193 878T239 892ZM477 892T487 879T497 834T484 791T439 780T397 792T385 834T398 878T444 892Z" />
<glyph unicode="&#xcc;" glyph-name="Igrave" horiz-adv-x="366" d="M12 868L61 935L240 783Q215 754 192 754Q181 754 165 764L12 868ZM308 59V0H58V59L111 68Q129 71 134 78T140 106V614Q140 634 135 641T111 652L58 661V720H308V661L255 652Q237 649 232 642T226
614V106Q226 86 231 79T255 68L308 59Z" />
<glyph unicode="&#xcd;" glyph-name="Iacute" horiz-adv-x="366" d="M305 935L354 868L201 764Q185 754 174 754Q151 754 126 783L305 935ZM308 59V0H58V59L111 68Q129 71 134 78T140 106V614Q140 634 135 641T111 652L58 661V720H308V661L255 652Q237 649 232
642T226 614V106Q226 86 231 79T255 68L308 59Z" />
<glyph unicode="&#xce;" glyph-name="Icircumflex" horiz-adv-x="366" d="M147 913H222L321 778L283 746L184 852L86 746L47 778L147 913ZM308 59V0H58V59L111 68Q129 71 134 78T140 106V614Q140 634 135 641T111 652L58 661V720H308V661L255 652Q237 649 232
642T226 614V106Q226 86 231 79T255 68L308 59Z" />
<glyph unicode="&#xcf;" glyph-name="Idieresis" horiz-adv-x="366" d="M126 892T136 879T146 834T133 791T88 780T46 792T34 834T47 878T93 892ZM311 892T321 879T331 834T318 791T273 780T231 792T219 834T232 878T278 892ZM308 59V0H58V59L111 68Q129 71 134
78T140 106V614Q140 634 135 641T111 652L58 661V720H308V661L255 652Q237 649 232 642T226 614V106Q226 86 231 79T255 68L308 59Z" />
<glyph unicode="&#xd0;" glyph-name="Eth" horiz-adv-x="718" d="M58 319V392H140V618Q140 638 135 647T111 658L58 664V720H357Q672 720 672 371Q672 199 596 100T357 0H58V60L111 69Q129 72 134 80T140 109V319H58ZM462 73T518 142T575 368T520 586T342 647H226V392H409V319H226V73H342Q462
73 518 142Z" />
<glyph unicode="&#xd1;" glyph-name="Ntilde" horiz-adv-x="787" d="M226 562V106Q226 86 231 79T255 68L308 59V0H58V59L111 68Q129 71 134 78T140 106V615Q140 635 135 644T111 655L59 661V720H227L586 158V615Q586 635 581 644T558 655L506 661V720H753V661L701
655Q683 653 678 644T672 615V0H584L226 562ZM445 773T401 791T330 810T266 779L251 821Q292 879 341 879Q371 879 415 862T486 844T545 871L561 831Q521 773 472 773Q445 773 401 791Z" />
<glyph unicode="&#xd2;" glyph-name="Ograve" horiz-adv-x="717" d="M199 868L248 935L427 783Q402 754 379 754Q368 754 352 764L199 868ZM619 632T647 552T675 379T656 222T598 104T491 21T328 -10T165 39T70 168T42 341T61 498T119 616T226 699T389 730T552
681ZM578 502T518 579T351 656T196 601Q171 572 155 499T139 354Q139 218 199 141T366 64T521 119Q546 148 562 221T578 366Q578 502 518 579Z" />
<glyph unicode="&#xd3;" glyph-name="Oacute" horiz-adv-x="717" d="M502 935L551 868L398 764Q382 754 371 754Q348 754 323 783L502 935ZM619 632T647 552T675 379T656 222T598 104T491 21T328 -10T165 39T70 168T42 341T61 498T119 616T226 699T389 730T552
681ZM578 502T518 579T351 656T196 601Q171 572 155 499T139 354Q139 218 199 141T366 64T521 119Q546 148 562 221T578 366Q578 502 518 579Z" />
<glyph unicode="&#xd4;" glyph-name="Ocircumflex" horiz-adv-x="717" d="M323 913H398L512 778L474 746L360 852L247 746L208 778L323 913ZM619 632T647 552T675 379T656 222T598 104T491 21T328 -10T165 39T70 168T42 341T61 498T119 616T226 699T389 730T552
681ZM578 502T518 579T351 656T196 601Q171 572 155 499T139 354Q139 218 199 141T366 64T521 119Q546 148 562 221T578 366Q578 502 518 579Z" />
<glyph unicode="&#xd5;" glyph-name="Otilde" horiz-adv-x="717" d="M619 632T647 552T675 379T656 222T598 104T491 21T328 -10T165 39T70 168T42 341T61 498T119 616T226 699T389 730T552 681ZM578 502T518 579T351 656T196 601Q171 572 155 499T139 354Q139
218 199 141T366 64T521 119Q546 148 562 221T578 366Q578 502 518 579ZM398 774T354 792T283 811T219 780L204 822Q245 880 294 880Q324 880 368 863T439 845T498 872L514 832Q474 774 425 774Q398 774 354 792Z" />
<glyph unicode="&#xd6;" glyph-name="Odieresis" horiz-adv-x="717" d="M619 632T647 552T675 379T656 222T598 104T491 21T328 -10T165 39T70 168T42 341T61 498T119 616T226 699T389 730T552 681ZM578 502T518 579T351 656T196 601Q171 572 155 499T139 354Q139
218 199 141T366 64T521 119Q546 148 562 221T578 366Q578 502 518 579ZM292 892T302 879T312 834T299 791T254 780T212 792T200 834T213 878T259 892ZM497 892T507 879T517 834T504 791T459 780T417 792T405 834T418 878T464 892Z" />
<glyph unicode="&#xd7;" glyph-name="multiply" horiz-adv-x="478" d="M88 36L43 88L192 234L44 385L90 431L238 280L389 428L435 383L285 233L430 85L385 39L239 187L88 36Z" />
<glyph unicode="&#xd8;" glyph-name="Oslash" horiz-adv-x="717" d="M194 -53L139 -27L168 36Q42 122 42 360Q42 512 120 616Q159 669 226 699T366 730T485 715L511 770L566 744L540 689Q675 606 675 360Q675 208 598 104Q558 51 491 21T350 -10T222 8L194 -53ZM578
366Q578 524 499 600L260 89Q308 64 371 64Q473 64 521 119Q546 148 562 221T578 366ZM346 656Q244 656 196 601Q171 572 155 499T139 354Q139 202 211 127L448 635Q403 656 346 656Z" />
<glyph unicode="&#xd9;" glyph-name="Ugrave" horiz-adv-x="721" d="M186 868L235 935L414 783Q389 754 366 754Q355 754 339 764L186 868ZM613 614V232Q613 148 572 92Q500 -10 351 -10Q232 -10 171 52T110 232V614Q110 634 105 641T81 652L28 661V720H278V661L225
652Q207 649 202 642T196 614V248Q196 70 382 70Q454 70 492 106T531 256V614Q531 634 526 641T502 652L449 661V720H695V661L642 652Q624 649 619 642T613 614Z" />
<glyph unicode="&#xda;" glyph-name="Uacute" horiz-adv-x="721" d="M498 935L547 868L394 764Q378 754 367 754Q344 754 319 783L498 935ZM613 614V232Q613 148 572 92Q500 -10 351 -10Q232 -10 171 52T110 232V614Q110 634 105 641T81 652L28 661V720H278V661L225
652Q207 649 202 642T196 614V248Q196 70 382 70Q454 70 492 106T531 256V614Q531 634 526 641T502 652L449 661V720H695V661L642 652Q624 649 619 642T613 614Z" />
<glyph unicode="&#xdb;" glyph-name="Ucircumflex" horiz-adv-x="721" d="M327 913H402L516 778L478 746L364 852L251 746L212 778L327 913ZM613 614V232Q613 148 572 92Q500 -10 351 -10Q232 -10 171 52T110 232V614Q110 634 105 641T81 652L28 661V720H278V661L225
652Q207 649 202 642T196 614V248Q196 70 382 70Q454 70 492 106T531 256V614Q531 634 526 641T502 652L449 661V720H695V661L642 652Q624 649 619 642T613 614Z" />
<glyph unicode="&#xdc;" glyph-name="Udieresis" horiz-adv-x="722" d="M613 614V232Q613 148 572 92Q500 -10 351 -10Q232 -10 171 52T110 232V614Q110 634 105 641T81 652L28 661V720H278V661L225 652Q207 649 202 642T196 614V248Q196 70 382 70Q454 70 492
106T531 256V614Q531 634 526 641T502 652L449 661V720H695V661L642 652Q624 649 619 642T613 614ZM295 892T305 879T315 834T302 791T257 780T215 792T203 834T216 878T262 892ZM500 892T510 879T520 834T507 791T462 780T420 792T408 834T421 878T467 892Z" />
<glyph unicode="&#xdd;" glyph-name="Yacute" horiz-adv-x="670" d="M474 935L523 868L370 764Q354 754 343 754Q320 754 295 783L474 935ZM292 254L94 614Q81 636 69 644T34 656L-4 661V720H265V662L215 656Q183 651 183 637Q183 630 191 614L348 331L498 614Q505
627 505 635Q505 650 470 655L420 661V720H668V661L630 656Q610 653 602 646T580 614L378 256V106Q378 86 383 79T407 68L464 59V0H206V59L263 68Q281 71 286 78T292 106V254Z" />
<glyph unicode="&#xde;" glyph-name="Thorn" horiz-adv-x="564" d="M306 59V0H56V59L111 68Q129 71 134 78T140 106V614Q140 634 135 641T111 652L56 661V720H306V661L253 652Q235 649 230 642T224 614V594H321Q427 594 484 555T541 413T469 244T300 178H224V106Q224
86 229 79T253 68L306 59ZM224 241H297Q370 241 401 265Q448 302 448 412Q448 533 312 533H224V241Z" />
<glyph unicode="&#xdf;" glyph-name="germandbls" horiz-adv-x="598" d="M46 471L118 480H120V550Q120 669 176 729T336 790Q414 790 461 750T508 626Q508 583 495 551T462 501T420 469T377 443Q331 420 331 381Q331 346 346 332Q354 326 356 323T371 313T388
305Q406 296 457 274T539 224T570 145Q570 76 521 36T398 -5T249 30L255 151H311L319 78Q363 57 397 57Q491 57 491 130Q491 159 465 179T377 222T286 277T256 358T273 431T315 469T365 496T407 540T425 619Q425 720 308 720Q241 720 217 688Q199 664 199 606V0H40V54L97
60Q112 61 116 68T120 98V418H36L46 471Z" />
<glyph unicode="&#xe0;" glyph-name="agrave" horiz-adv-x="525" d="M412 352V98Q412 76 416 69T435 60L491 54V0H345L337 78Q254 -10 161 -10Q104 -10 70 25T35 119T70 215T171 261L333 283V350Q333 430 225 430Q179 430 137 411L123 338H65L58 453Q161 490 234
490T359 456T412 352ZM333 229L194 206Q158 201 138 180T118 127T138 78T191 61Q245 61 333 140V229ZM73 692L131 752L287 576Q261 554 243 554T210 568L73 692Z" />
<glyph unicode="&#xe1;" glyph-name="aacute" horiz-adv-x="525" d="M412 352V98Q412 76 416 69T435 60L491 54V0H345L337 78Q254 -10 161 -10Q104 -10 70 25T35 119T70 215T171 261L333 283V350Q333 430 225 430Q179 430 137 411L123 338H65L58 453Q161 490 234
490T359 456T412 352ZM333 229L194 206Q158 201 138 180T118 127T138 78T191 61Q245 61 333 140V229ZM345 752L403 692L266 568Q251 554 233 554T189 576L345 752Z" />
<glyph unicode="&#xe2;" glyph-name="acircumflex" horiz-adv-x="525" d="M412 352V98Q412 76 416 69T435 60L491 54V0H345L337 78Q254 -10 161 -10Q104 -10 70 25T35 119T70 215T171 261L333 283V350Q333 430 225 430Q179 430 137 411L123 338H65L58 453Q161
490 234 490T359 456T412 352ZM333 229L194 206Q158 201 138 180T118 127T138 78T191 61Q245 61 333 140V229ZM200 728H275L383 578L345 546L237 667L129 546L90 578L200 728Z" />
<glyph unicode="&#xe3;" glyph-name="atilde" horiz-adv-x="525" d="M412 352V98Q412 76 416 69T435 60L491 54V0H345L337 78Q254 -10 161 -10Q104 -10 70 25T35 119T70 215T171 261L333 283V350Q333 430 225 430Q179 430 137 411L123 338H65L58 453Q161 490 234
490T359 456T412 352ZM333 229L194 206Q158 201 138 180T118 127T138 78T191 61Q245 61 333 140V229ZM259 574T215 592T144 611T80 580L65 622Q106 680 155 680Q185 680 229 663T300 645T359 672L375 632Q335 574 286 574Q259 574 215 592Z" />
<glyph unicode="&#xe4;" glyph-name="adieresis" horiz-adv-x="525" d="M412 352V98Q412 76 416 69T435 60L491 54V0H345L337 78Q254 -10 161 -10Q104 -10 70 25T35 119T70 215T171 261L333 283V350Q333 430 225 430Q179 430 137 411L123 338H65L58 453Q161 490
234 490T359 456T412 352ZM333 229L194 206Q158 201 138 180T118 127T138 78T191 61Q245 61 333 140V229ZM168 692T178 679T188 634T175 591T130 580T88 592T76 634T89 678T135 692ZM373 692T383 679T393 634T380 591T335 580T293 592T281 634T294 678T340 692Z"
/>
<glyph unicode="&#xe5;" glyph-name="aring" horiz-adv-x="525" d="M412 352V98Q412 76 416 69T435 60L491 54V0H345L337 78Q254 -10 161 -10Q104 -10 70 25T35 119T70 215T171 261L333 283V350Q333 430 225 430Q179 430 137 411L123 338H65L58 453Q161 490 234
490T359 456T412 352ZM333 229L194 206Q158 201 138 180T118 127T138 78T191 61Q245 61 333 140V229ZM318 687T318 650T291 584T220 555T152 582T127 647T154 713T225 742T293 715ZM268 652Q268 670 255 682T222 694Q177 694 177 644Q177 626 190 614T223 602Q268
602 268 652Z" />
<glyph unicode="&#xe6;" glyph-name="ae" horiz-adv-x="768" d="M729 242L409 219Q411 56 554 56Q624 56 711 85L725 36Q696 21 654 10Q585 -10 526 -10Q399 -10 354 76Q329 52 307 36T245 5T155 -10T70 25T35 118T66 210T144 254T261 273T333 283V350Q333 430
225 430Q179 430 137 411L123 338H65L58 453Q161 490 228 490Q342 490 387 425Q443 490 547 490T690 429T729 242ZM408 279L650 300Q650 356 627 390T540 424Q498 424 475 419T438 394T418 351T408 279ZM183 202Q118 189 118 126Q118 96 138 79T192 61T267 81T333
128V227Q330 226 306 222Q217 209 183 202Z" />
<glyph unicode="&#xe7;" glyph-name="ccedilla" horiz-adv-x="475" d="M423 83L435 32Q380 4 302 -7Q282 -10 262 -10V-62L289 -71Q321 -81 332 -95T343 -134Q343 -180 311 -205T235 -230T147 -209L159 -170Q194 -184 231 -184Q280 -184 280 -136Q280 -121 269
-113T235 -100L198 -92L213 -7Q40 14 40 226Q40 343 102 416T268 490Q314 490 357 479T422 453L415 330H357L343 405Q309 424 243 424Q219 424 194 415T160 391Q126 343 126 231Q126 153 162 105T266 56Q315 56 423 83Z" />
<glyph unicode="&#xe8;" glyph-name="egrave" horiz-adv-x="484" d="M445 242L123 219Q128 56 270 56Q340 56 427 85L441 36Q412 21 370 10Q301 -10 242 -10Q137 -10 87 55T36 234T95 419T260 490T406 429T445 242ZM122 279L366 300Q366 356 343 390T249 424T155
397T122 279ZM77 692L135 752L291 576Q265 554 247 554T214 568L77 692Z" />
<glyph unicode="&#xe9;" glyph-name="eacute" horiz-adv-x="484" d="M445 242L123 219Q128 56 270 56Q340 56 427 85L441 36Q412 21 370 10Q301 -10 242 -10Q137 -10 87 55T36 234T95 419T260 490T406 429T445 242ZM122 279L366 300Q366 356 343 390T249 424T155
397T122 279ZM355 752L413 692L276 568Q261 554 243 554T199 576L355 752Z" />
<glyph unicode="&#xea;" glyph-name="ecircumflex" horiz-adv-x="484" d="M445 242L123 219Q128 56 270 56Q340 56 427 85L441 36Q412 21 370 10Q301 -10 242 -10Q137 -10 87 55T36 234T95 419T260 490T406 429T445 242ZM122 279L366 300Q366 356 343 390T249
424T155 397T122 279ZM204 728H279L387 578L349 546L241 667L133 546L94 578L204 728Z" />
<glyph unicode="&#xeb;" glyph-name="edieresis" horiz-adv-x="484" d="M445 242L123 219Q128 56 270 56Q340 56 427 85L441 36Q412 21 370 10Q301 -10 242 -10Q137 -10 87 55T36 234T95 419T260 490T406 429T445 242ZM122 279L366 300Q366 356 343 390T249 424T155
397T122 279ZM172 692T182 679T192 634T179 591T134 580T92 592T80 634T93 678T139 692ZM377 692T387 679T397 634T384 591T339 580T297 592T285 634T298 678T344 692Z" />
<glyph unicode="&#xec;" glyph-name="igrave" horiz-adv-x="309" d="M199 480V98Q199 76 203 69T222 60L277 54V0H42V54L97 60Q112 62 116 69T120 98V384Q120 406 116 413T97 422L42 428V480H199ZM-13 692L45 752L201 576Q175 554 157 554T124 568L-13 692Z" />
<glyph unicode="&#xed;" glyph-name="iacute" horiz-adv-x="309" d="M199 480V98Q199 76 203 69T222 60L277 54V0H42V54L97 60Q112 62 116 69T120 98V384Q120 406 116 413T97 422L42 428V480H199ZM235 752L293 692L156 568Q141 554 123 554T79 576L235 752Z" />
<glyph unicode="&#xee;" glyph-name="icircumflex" horiz-adv-x="309" d="M98 728H164L262 578L224 546L130 663L36 546L-3 578L98 728ZM199 480V98Q199 76 203 69T222 60L277 54V0H42V54L97 60Q112 62 116 69T120 98V384Q120 406 116 413T97 422L42 428V480H199Z" />
<glyph unicode="&#xef;" glyph-name="idieresis" horiz-adv-x="309" d="M84 692T94 679T104 634T91 591T46 580T4 592T-8 634T5 678T51 692ZM249 692T259 679T269 634T256 591T211 580T169 592T157 634T170 678T216 692ZM199 480V98Q199 76 203 69T222 60L277
54V0H42V54L97 60Q112 62 116 69T120 98V384Q120 406 116 413T97 422L42 428V480H199Z" />
<glyph unicode="&#xf0;" glyph-name="eth" horiz-adv-x="517" d="M467 281Q467 151 406 71T221 -10Q121 -10 73 57T25 240Q25 335 89 412T259 490Q290 490 320 478T361 451Q332 560 243 648L134 580L104 626L200 686Q156 720 120 741L153 792Q211 763 262 724L356
783L385 738L304 687Q467 531 467 281ZM239 424Q183 424 149 392Q131 375 121 328T111 236Q111 151 145 104T246 56T342 87Q381 129 381 237T354 384T239 424Z" />
<glyph unicode="&#xf1;" glyph-name="ntilde" horiz-adv-x="627" d="M595 0H438V323Q438 368 410 392T335 416T252 393T199 340V98Q199 76 203 69T222 60L282 53V0H42V54L97 60Q112 61 116 68T120 98V384Q120 406 116 413T97 422L42 428V480H189L198 408Q221 432
236 445T287 474T365 490Q445 490 481 449T517 347V98Q517 76 521 69T540 60L595 54V0ZM355 584T311 602T240 621T176 590L161 632Q202 690 251 690Q281 690 325 673T396 655T455 682L471 642Q431 584 382 584Q355 584 311 602Z" />
<glyph unicode="&#xf2;" glyph-name="ograve" horiz-adv-x="543" d="M447 72Q419 35 370 13T255 -10Q144 -10 92 57T40 240Q40 334 96 408Q124 445 173 467T288 490Q399 490 451 423T503 251T447 72ZM417 328T377 376T267 424T172 400T137 329T126 236Q126 152
166 104T276 56T371 80T406 151T417 244Q417 328 377 376ZM109 692L167 752L323 576Q297 554 279 554T246 568L109 692Z" />
<glyph unicode="&#xf3;" glyph-name="oacute" horiz-adv-x="543" d="M447 72Q419 35 370 13T255 -10Q144 -10 92 57T40 240Q40 334 96 408Q124 445 173 467T288 490Q399 490 451 423T503 251T447 72ZM417 328T377 376T267 424T172 400T137 329T126 236Q126 152
166 104T276 56T371 80T406 151T417 244Q417 328 377 376ZM387 752L445 692L308 568Q293 554 275 554T231 576L387 752Z" />
<glyph unicode="&#xf4;" glyph-name="ocircumflex" horiz-adv-x="543" d="M447 72Q419 35 370 13T255 -10Q144 -10 92 57T40 240Q40 334 96 408Q124 445 173 467T288 490Q399 490 451 423T503 251T447 72ZM417 328T377 376T267 424T172 400T137 329T126 236Q126
152 166 104T276 56T371 80T406 151T417 244Q417 328 377 376ZM236 728H311L419 578L381 546L273 667L165 546L126 578L236 728Z" />
<glyph unicode="&#xf5;" glyph-name="otilde" horiz-adv-x="543" d="M447 72Q419 35 370 13T255 -10Q144 -10 92 57T40 240Q40 334 96 408Q124 445 173 467T288 490Q399 490 451 423T503 251T447 72ZM417 328T377 376T267 424T172 400T137 329T126 236Q126 152
166 104T276 56T371 80T406 151T417 244Q417 328 377 376ZM310 574T266 592T195 611T131 580L116 622Q157 680 206 680Q236 680 280 663T351 645T410 672L426 632Q386 574 337 574Q310 574 266 592Z" />
<glyph unicode="&#xf6;" glyph-name="odieresis" horiz-adv-x="543" d="M447 72Q419 35 370 13T255 -10Q144 -10 92 57T40 240Q40 334 96 408Q124 445 173 467T288 490Q399 490 451 423T503 251T447 72ZM417 328T377 376T267 424T172 400T137 329T126 236Q126
152 166 104T276 56T371 80T406 151T417 244Q417 328 377 376ZM204 692T214 679T224 634T211 591T166 580T124 592T112 634T125 678T171 692ZM409 692T419 679T429 634T416 591T371 580T329 592T317 634T330 678T376 692Z" />
<glyph unicode="&#xf7;" glyph-name="divide" horiz-adv-x="516" d="M293 119T302 106T312 60T298 16T248 5Q198 5 198 56Q198 89 211 104T259 119ZM293 476T302 463T312 417T298 373T248 362Q198 362 198 413Q198 446 211 461T259 476ZM40 203V268H476V203H40Z" />
<glyph unicode="&#xf8;" glyph-name="oslash" horiz-adv-x="543" d="M150 -54L100 -31L126 25Q40 86 40 240Q40 334 96 408Q124 445 173 467T288 490Q313 490 341 485L363 532L413 509L394 468Q503 414 503 240Q503 146 447 72Q419 35 370 13T266 -10T176 1L150
-54ZM417 244Q417 347 359 393L208 71Q240 56 280 56Q347 56 371 80T406 151T417 244ZM263 424Q196 424 172 400T137 329T126 236Q126 153 164 106L310 418Q288 424 263 424Z" />
<glyph unicode="&#xf9;" glyph-name="ugrave" horiz-adv-x="606" d="M417 139V384Q417 406 413 413T394 422L339 428V480H496V98Q496 76 500 69T519 60L575 54V0H431L423 76Q350 -10 259 -10Q185 -10 145 27T105 133V384Q105 406 101 413T82 422L27 428V480H184V160Q184
64 282 64Q328 64 367 91T417 139ZM108 692L166 752L322 576Q296 554 278 554T245 568L108 692Z" />
<glyph unicode="&#xfa;" glyph-name="uacute" horiz-adv-x="606" d="M417 139V384Q417 406 413 413T394 422L339 428V480H496V98Q496 76 500 69T519 60L575 54V0H431L423 76Q350 -10 259 -10Q185 -10 145 27T105 133V384Q105 406 101 413T82 422L27 428V480H184V160Q184
64 282 64Q328 64 367 91T417 139ZM386 752L444 692L307 568Q292 554 274 554T230 576L386 752Z" />
<glyph unicode="&#xfb;" glyph-name="ucircumflex" horiz-adv-x="606" d="M417 139V384Q417 406 413 413T394 422L339 428V480H496V98Q496 76 500 69T519 60L575 54V0H431L423 76Q350 -10 259 -10Q185 -10 145 27T105 133V384Q105 406 101 413T82 422L27 428V480H184V160Q184
64 282 64Q328 64 367 91T417 139ZM255 728H330L438 578L400 546L292 667L184 546L145 578L255 728Z" />
<glyph unicode="&#xfc;" glyph-name="udieresis" horiz-adv-x="606" d="M417 139V384Q417 406 413 413T394 422L339 428V480H496V98Q496 76 500 69T519 60L575 54V0H431L423 76Q350 -10 259 -10Q185 -10 145 27T105 133V384Q105 406 101 413T82 422L27 428V480H184V160Q184
64 282 64Q328 64 367 91T417 139ZM223 692T233 679T243 634T230 591T185 580T143 592T131 634T144 678T190 692ZM428 692T438 679T448 634T435 591T390 580T348 592T336 634T349 678T395 692Z" />
<glyph unicode="&#xfd;" glyph-name="yacute" horiz-adv-x="523" d="M482 422Q463 420 453 396Q448 384 254 -130Q211 -250 105 -250Q49 -250 15 -238L5 -179Q56 -187 77 -187Q116 -187 147 -161T197 -85L220 -22L64 384Q60 392 59 396T57 403T54 408T51 412T47
416T42 418Q37 422 30 422L-14 428V480H218V429L167 423Q144 420 144 406Q144 399 150 384L265 76L377 384Q382 399 382 405Q382 420 358 423L307 429V480H526V428L482 422ZM372 752L430 692L293 568Q278 554 260 554T216 576L372 752Z" />
<glyph unicode="&#xfe;" glyph-name="thorn" horiz-adv-x="569" d="M110 -142V684Q110 705 105 713T85 722L30 728V780H189V418Q248 490 341 490T482 425T530 248T461 63T288 -10Q228 -10 189 11V-142Q189 -164 193 -171T212 -180L285 -187V-240H30V-186L87 -180Q102
-179 106 -172T110 -142ZM189 355V94Q234 56 302 56T403 87Q422 108 433 152T444 247Q444 333 409 378T309 424Q273 424 236 399T189 355Z" />
<glyph unicode="&#xff;" glyph-name="ydieresis" horiz-adv-x="523" d="M482 422Q463 420 453 396Q448 384 254 -130Q211 -250 105 -250Q49 -250 15 -238L5 -179Q56 -187 77 -187Q116 -187 147 -161T197 -85L220 -22L64 384Q60 392 59 396T57 403T54 408T51 412T47
416T42 418Q37 422 30 422L-14 428V480H218V429L167 423Q144 420 144 406Q144 399 150 384L265 76L377 384Q382 399 382 405Q382 420 358 423L307 429V480H526V428L482 422ZM193 692T203 679T213 634T200 591T155 580T113 592T101 634T114 678T160 692ZM398 692T408
679T418 634T405 591T360 580T318 592T306 634T319 678T365 692Z" />
<glyph unicode="&#x2013;" glyph-name="endash" horiz-adv-x="448" d="M0 221V285H448V221H0Z" />
<glyph unicode="&#x2014;" glyph-name="emdash" horiz-adv-x="896" d="M0 221V285H896V221H0Z" />
<glyph unicode="&#x2018;" glyph-name="quoteleft" horiz-adv-x="230" d="M49 616Q49 672 83 720T161 790L193 756Q165 739 140 710T115 653Q149 649 164 634T180 589Q180 529 118 529Q49 529 49 616Z" />
<glyph unicode="&#x2019;" glyph-name="quoteright" horiz-adv-x="229" d="M181 703Q181 647 147 599T69 529L37 563Q65 580 90 609T115 666Q81 670 66 685T50 730Q50 790 112 790Q181 790 181 703Z" />
<glyph unicode="&#x201a;" glyph-name="quotesinglbase" horiz-adv-x="225" d="M176 26Q176 -28 146 -70T72 -135L40 -104Q112 -59 112 -11Q78 -7 64 7T50 53Q50 113 109 113Q176 113 176 26Z" />
<glyph unicode="&#x201c;" glyph-name="quotedblleft" horiz-adv-x="420" d="M49 616Q49 672 83 720T161 790L193 756Q165 739 140 710T115 653Q149 649 164 634T180 589Q180 529 118 529Q49 529 49 616ZM239 616Q239 672 273 720T351 790L383 756Q355 739 330
710T305 653Q339 649 354 634T370 589Q370 529 308 529Q239 529 239 616Z" />
<glyph unicode="&#x201d;" glyph-name="quotedblright" horiz-adv-x="419" d="M371 703Q371 647 337 599T259 529L227 563Q255 580 280 609T305 666Q271 670 256 685T240 730Q240 790 302 790Q371 790 371 703ZM181 703Q181 647 147 599T69 529L37 563Q65 580
90 609T115 666Q81 670 66 685T50 730Q50 790 112 790Q181 790 181 703Z" />
<glyph unicode="&#x201e;" glyph-name="quotedblbase" horiz-adv-x="416" d="M176 26Q176 -28 146 -70T72 -135L40 -104Q112 -59 112 -11Q78 -7 64 7T50 53Q50 113 109 113Q176 113 176 26ZM367 26Q367 -28 337 -70T263 -135L231 -104Q303 -59 303 -11Q269 -7
255 7T241 53Q241 113 300 113Q367 113 367 26Z" />
<glyph unicode="&#x2022;" glyph-name="bullet" horiz-adv-x="382" d="M262 461T281 434T300 346T273 264T176 243Q82 243 82 339Q82 404 107 432T197 461Z" />
<glyph unicode="&#x2039;" glyph-name="guilsinglleft" horiz-adv-x="312" d="M205 44L56 237L205 430Q209 426 215 420T225 409Q235 399 235 387T227 360L150 237L227 114Q235 99 235 90T232 74T226 64T215 53T205 44Z" />
<glyph unicode="&#x203a;" glyph-name="guilsinglright" horiz-adv-x="312" d="M235 237L86 44Q85 45 77 53T66 64Q56 75 56 87T64 114L141 237L64 360Q56 375 56 384T60 400T73 416T86 430L235 237Z" />
</font>
</defs>
</svg>
