<?xml version="1.0" standalone="no"?>
<!DOCTYPE svg PUBLIC "-//W3C//DTD SVG 1.1//EN" "http://www.w3.org/Graphics/SVG/1.1/DTD/svg11.dtd">
<svg xmlns="http://www.w3.org/2000/svg">
<defs >
<font id="Acme" horiz-adv-x="389" ><font-face
    font-family="Acme"
    units-per-em="1000"
    panose-1="2 0 7 6 5 0 0 2 0 4"
    ascent="959"
    descent="-307"
    alphabetic="0" />
<glyph unicode=" " glyph-name="space" horiz-adv-x="154" />
<glyph unicode="!" glyph-name="exclam" horiz-adv-x="247" d="M40 99T64 123T120 148T168 131T185 79T162 20T108 -6T58 13T40 65ZM227 700L171 257L76 243V675L227 700Z" />
<glyph unicode="&quot;" glyph-name="quotedbl" horiz-adv-x="348" d="M57 624L166 634Q144 500 103 390L46 393Q57 519 57 624ZM212 624L321 634Q299 500 258 390L201 393Q212 519 212 624Z" />
<glyph unicode="#" glyph-name="numbersign" horiz-adv-x="425" d="M28 301L34 368H117L134 472L209 479L191 368H268L285 472L359 479L341 368H425L419 301H330L319 227H397L391 159H308L291 50L216 43L234 159H158L141 50L66 43L84 159H0L6 227H95L107 301H28ZM180
301L169 227H245L257 301H180Z" />
<glyph unicode="$" glyph-name="dollar" horiz-adv-x="372" d="M33 351Q33 418 88 466T220 515H231L259 630L306 624L279 509Q322 500 351 486L300 378Q281 392 254 404L229 297Q284 274 307 254Q350 218 350 156T295 41T165 -11H156L127 -133L80 -126L109 -3Q80
5 55 22T18 52L7 64L64 144Q92 113 132 94L160 213Q65 252 44 299Q33 322 33 351ZM154 422T138 409T121 376T137 342T184 315L209 419Q194 422 174 422ZM262 137Q262 168 205 195L178 81H190Q223 81 242 96T262 137Z" />
<glyph unicode="%" glyph-name="percent" horiz-adv-x="975" d="M231 695Q304 695 349 639T395 491Q395 376 341 310T191 243Q119 243 73 300T27 456T84 625T231 695ZM257 319T273 349T289 462T273 576T213 608T151 579T133 472T152 357T214 319ZM784 449Q857
449 902 393T948 245Q948 130 894 64T744 -3Q672 -3 626 54T580 210T637 379T784 449ZM810 73T826 103T842 216T826 330T766 362T704 333T686 226T705 111T767 73ZM306 -119L227 -87L648 758L727 726L306 -119Z" />
<glyph unicode="&amp;" glyph-name="ampersand" horiz-adv-x="636" d="M467 326Q480 245 480 217T477 173L590 62L508 -11Q474 26 428 74Q395 35 348 12T250 -11Q159 -11 99 38T39 163Q39 264 157 333Q77 416 77 483T137 600T282 650Q334 650 378 639T442 618L460
607L398 489Q372 511 334 528T261 546T207 530T187 489Q187 454 211 425T326 316L395 252Q390 304 369 404L382 417H592L584 326H467ZM202 289Q155 244 155 198T187 121T280 90T372 131Q307 197 250 248Q226 266 202 289Z" />
<glyph unicode="&apos;" glyph-name="quotesingle" horiz-adv-x="193" d="M57 624L166 634Q144 500 103 390L46 393Q57 519 57 624Z" />
<glyph unicode="(" glyph-name="parenleft" horiz-adv-x="278" d="M147 -101T107 -8T67 289T107 591T253 741L283 693Q213 648 188 566T162 301T187 33T283 -96L253 -144Q147 -101 107 -8Z" />
<glyph unicode=")" glyph-name="parenright" horiz-adv-x="278" d="M131 698T171 605T211 308T171 6T25 -144L-5 -96Q65 -51 90 31T116 296T91 564T-5 693L25 741Q131 698 171 605Z" />
<glyph unicode="*" glyph-name="asterisk" horiz-adv-x="302" d="M11 537L26 610L125 553L130 649L203 657L180 544L272 570L302 503L189 490L242 411L187 361L139 465L80 390L17 426L101 504L11 537Z" />
<glyph unicode="+" glyph-name="plus" horiz-adv-x="425" d="M162 306V453L262 462V306H408L400 215H262V69L162 60V215H17L25 306H162Z" />
<glyph unicode="," glyph-name="comma" horiz-adv-x="205" d="M165 67Q165 -18 41 -113L0 -83Q59 -14 59 36Q59 67 33 115L131 154Q165 111 165 67Z" />
<glyph unicode="-" glyph-name="hyphen" horiz-adv-x="270" d="M21 194L13 285L249 327L257 236L21 194Z" />
<glyph unicode="." glyph-name="period" horiz-adv-x="205" d="M30 99T53 123T110 148Q175 148 175 82Q175 44 152 19T97 -6T48 14T30 67Z" />
<glyph unicode="/" glyph-name="slash" horiz-adv-x="302" d="M99 -133L9 -117L226 758L316 742L99 -133Z" />
<glyph unicode="0" glyph-name="zero" horiz-adv-x="571" d="M313 649Q416 649 478 568T541 352Q541 183 466 86T258 -11Q157 -11 94 71T30 287Q30 446 109 547T313 649ZM354 87T379 136T405 310T379 485T288 536T195 489T166 324T196 147T290 87Z" />
<glyph unicode="1" glyph-name="one" d="M285 650L270 260L282 0H142L154 243L146 492L6 491V556L285 650Z" />
<glyph unicode="2" glyph-name="two" horiz-adv-x="509" d="M311 467Q311 523 243 523Q201 523 151 506T70 470L41 453L68 596Q107 617 162 633T259 650Q344 650 395 607T447 491Q447 394 345 289L171 109L483 127L466 -6L258 3L22 -4L38 101L248 343Q311 414 311 467Z" />
<glyph unicode="3" glyph-name="three" horiz-adv-x="488" d="M61 620Q145 650 228 650T364 608T417 502Q417 452 391 415T317 358Q387 332 418 294T449 196Q449 106 380 48T203 -11Q152 -11 104 2T32 30L9 44L51 165Q60 157 75 145T132 113T218 92T293 115T325
182T288 253T184 281H98L116 378H171Q226 378 257 403T288 467T262 527T200 549T125 537T40 499L61 620Z" />
<glyph unicode="4" glyph-name="four" horiz-adv-x="536" d="M10 248L248 623L413 643L399 256L495 260L485 159L405 161L411 0H271L281 163L2 162L10 248ZM278 514L119 257L283 258L278 514Z" />
<glyph unicode="5" glyph-name="five" horiz-adv-x="487" d="M457 214Q457 121 383 55T201 -11Q151 -11 105 1T38 26L17 39L59 156Q90 132 136 112T223 92T296 117T328 180Q328 271 206 291L73 313V644L245 632L448 643L426 505L169 528V411L278 392Q362 377 409
329T457 214Z" />
<glyph unicode="6" glyph-name="six" horiz-adv-x="499" d="M176 357Q238 405 310 405T430 351T479 208T410 54T245 -11T90 53T32 221T91 426T279 650L418 591Q228 468 176 357ZM266 302Q202 302 151 267Q149 245 149 233Q149 169 180 131T257 92T331 120T358
193T332 270T266 302Z" />
<glyph unicode="7" glyph-name="seven" horiz-adv-x="444" d="M55 34L306 528L5 505L27 643L238 632L438 644L423 537L261 202L197 -11L55 34Z" />
<glyph unicode="8" glyph-name="eight" horiz-adv-x="531" d="M40 155Q40 208 77 246T159 308Q63 365 63 451T125 594T272 650T410 609T464 507Q464 428 370 352Q430 324 464 287T499 194Q499 110 428 50T262 -11T104 38T40 155ZM315 240T273 256T216 280Q151
237 151 193T186 122T273 95T357 114T389 165T352 218ZM173 457T189 443T214 423T244 406Q281 389 310 378Q356 436 356 470T330 525T263 546T198 528T173 484Z" />
<glyph unicode="9" glyph-name="nine" horiz-adv-x="499" d="M323 282Q263 234 190 234T69 288T20 431T89 585T254 650T409 586T467 418T408 213T220 -11L81 48Q270 171 323 282ZM233 337Q298 337 348 372Q350 394 350 406Q350 470 319 508T242 547T168 519T141
446T167 369T233 337Z" />
<glyph unicode=":" glyph-name="colon" horiz-adv-x="205" d="M30 99T53 123T110 148Q175 148 175 82Q175 44 152 19T97 -6T48 14T30 67ZM30 362T53 386T110 411Q175 411 175 345Q175 307 152 282T97 257T48 277T30 330Z" />
<glyph unicode=";" glyph-name="semicolon" horiz-adv-x="205" d="M30 362T53 386T110 411Q175 411 175 345Q175 307 152 282T97 257T48 277T30 330ZM165 67Q165 -18 41 -113L0 -83Q59 -14 59 36Q59 67 33 115L131 154Q165 111 165 67Z" />
<glyph unicode="&lt;" glyph-name="less" horiz-adv-x="395" d="M21 252L268 475L327 408L163 256L335 107L271 36L21 252Z" />
<glyph unicode="=" glyph-name="equal" horiz-adv-x="425" d="M17 299L25 390H408L400 299H17ZM17 129L25 220H408L400 129H17Z" />
<glyph unicode="&gt;" glyph-name="greater" horiz-adv-x="395" d="M374 259L127 36L68 103L232 255L60 404L124 475L374 259Z" />
<glyph unicode="?" glyph-name="question" horiz-adv-x="354" d="M78 99T102 123T158 148T206 131T223 79T200 20T146 -6T96 13T78 65ZM220 478Q220 583 0 588L50 700Q198 687 276 637T354 504Q354 389 165 247L88 316Q220 401 220 478Z" />
<glyph unicode="@" glyph-name="at" horiz-adv-x="713" d="M298 100T261 137T223 238T281 348T422 395H490V413Q490 463 464 486T380 510Q260 510 191 440T122 251T200 52T400 -28Q465 -28 534 -8T640 32L677 53L693 -49Q678 -58 650 -71T540 -107T377 -130Q221
-130 126 -29T30 237T139 511T417 620Q506 620 555 574T604 445V267Q604 197 639 142L533 97Q508 145 496 183Q441 100 357 100Q298 100 261 137ZM399 202Q439 202 490 243V310Q437 322 404 322Q341 322 341 266Q341 237 357 220T399 202Z" />
<glyph unicode="A" glyph-name="A" horiz-adv-x="643" d="M484 -5L435 190H196L143 0L15 10L103 253L237 683L416 696L545 268L628 17L484 -5ZM326 566H313L227 296H405L326 566Z" />
<glyph unicode="B" glyph-name="B" horiz-adv-x="580" d="M297 690Q393 690 449 647T505 530Q505 413 409 367Q539 322 539 201Q539 110 461 50T265 -11Q203 -11 80 0L92 243L80 690H297ZM284 297H203L202 260L209 97Q267 92 298 92Q351 92 380 118T410 196T380
272T284 297ZM261 589H212L206 394H271Q322 394 349 421T376 500Q376 589 261 589Z" />
<glyph unicode="C" glyph-name="C" horiz-adv-x="551" d="M293 -11Q182 -11 106 82T30 310Q30 475 121 588T346 701Q398 701 442 691T506 669L524 658L456 519Q433 539 391 556T315 574Q246 574 205 517T163 355T206 182T323 114Q371 114 410 144T465 224L548
176Q515 88 447 39T293 -11Z" />
<glyph unicode="D" glyph-name="D" horiz-adv-x="664" d="M285 -11Q214 -11 80 0L92 243L80 690H347Q482 690 558 609T634 384Q634 202 540 96T285 -11ZM311 582Q245 582 218 581L208 260L215 98Q299 92 328 92Q407 92 452 156T498 342T454 523T311 582Z" />
<glyph unicode="E" glyph-name="E" horiz-adv-x="492" d="M80 0L92 243L80 690H455L444 583H219L213 406H413L402 300H209L208 260L215 106H457L446 0H80Z" />
<glyph unicode="F" glyph-name="F" horiz-adv-x="442" d="M431 583H218L212 399H403L392 293H209L208 260L220 0H80L92 243L80 690H442L431 583Z" />
<glyph unicode="G" glyph-name="G" horiz-adv-x="636" d="M321 -11Q190 -11 110 77T30 310Q30 475 130 588T376 701Q434 701 483 691T554 669L574 658L516 519Q486 539 435 556T345 574Q264 574 215 517T166 366Q166 239 212 168T342 97Q396 97 444 112V267H315L325
368H565L556 205L563 32Q416 -11 321 -11Z" />
<glyph unicode="H" glyph-name="H" horiz-adv-x="690" d="M610 695L596 260L608 0H468L480 243L478 296H209L208 260L220 0H80L92 243L80 670L222 695L212 402H475L468 670L610 695Z" />
<glyph unicode="I" glyph-name="I" horiz-adv-x="302" d="M222 695L208 260L220 0H80L92 243L80 670L222 695Z" />
<glyph unicode="J" glyph-name="J" horiz-adv-x="353" d="M82 -10Q41 -10 0 -1L32 119Q65 108 96 108Q157 108 157 209L143 670L285 695L271 244Q271 135 218 63T82 -10Z" />
<glyph unicode="K" glyph-name="K" horiz-adv-x="578" d="M222 695L211 369L466 693L568 625L338 358L582 69L454 -11L210 334L208 260L220 0H80L92 243L80 670L222 695Z" />
<glyph unicode="L" glyph-name="L" horiz-adv-x="426" d="M80 0L92 243L80 670L222 695L208 260L215 98L420 114L409 0H80Z" />
<glyph unicode="M" glyph-name="M" horiz-adv-x="747" d="M370 312H380L526 692L664 688L668 258L687 0H552L557 260L546 523L426 192L303 186L191 523L182 260L189 0H65L79 243L85 672L244 697L370 312Z" />
<glyph unicode="N" glyph-name="N" horiz-adv-x="689" d="M609 692L596 260L607 22L489 -3L191 479V260L205 0H80L92 243L80 687L200 693L497 204L487 677L609 692Z" />
<glyph unicode="O" glyph-name="O" horiz-adv-x="661" d="M360 700Q478 700 554 610T631 381Q631 205 540 97T301 -11Q186 -11 108 81T30 310Q30 480 123 590T360 700ZM495 325Q495 578 329 578Q253 578 210 522T166 353T212 168T335 95T453 156T495 325Z" />
<glyph unicode="P" glyph-name="P" horiz-adv-x="509" d="M297 690Q393 690 450 636T507 486T435 324T259 256H202L214 0H80L92 243L80 690H297ZM261 589H212L205 353H273Q323 353 350 386T378 480Q378 589 261 589Z" />
<glyph unicode="Q" glyph-name="Q" horiz-adv-x="680" d="M360 700Q478 700 554 610T631 381Q631 219 531 101L663 -56L564 -129L449 31Q379 -11 301 -11Q186 -11 108 81T30 310Q30 480 123 590T360 700ZM495 325Q495 578 329 578Q253 578 210 522T166 353T212
168T340 95Q370 95 396 107L277 274L346 322L466 179Q495 240 495 325Z" />
<glyph unicode="R" glyph-name="R" horiz-adv-x="579" d="M259 266H202V260L214 0H80L92 243L80 690H297Q393 690 450 638T507 500Q507 435 474 382T383 297L557 51L436 -11L280 267Q273 266 259 266ZM261 589H212L205 363H273Q323 363 350 396T378 490Q378 589 261 589Z" />
<glyph unicode="S" glyph-name="S" horiz-adv-x="503" d="M91 199Q176 114 261 114Q305 114 331 134T358 187T326 242T249 282T158 320T81 382T49 479Q49 569 124 634T302 700Q349 700 393 690T478 661L410 515Q382 537 334 555T249 574T190 557T167 510T199 459T276
419T367 382T445 321T477 224Q477 130 402 60T227 -11Q152 -11 94 25Q43 56 22 80L13 91L91 199Z" />
<glyph unicode="T" glyph-name="T" horiz-adv-x="486" d="M0 575L11 690H486L475 575L301 590L297 260L309 0H169L181 243L177 589L0 575Z" />
<glyph unicode="U" glyph-name="U" horiz-adv-x="651" d="M291 -11Q201 -11 140 44T78 180L68 670L212 695L196 257Q196 187 228 148T329 109T427 147T457 278L445 670L585 695L574 255Q574 137 495 63T291 -11Z" />
<glyph unicode="V" glyph-name="V" horiz-adv-x="599" d="M296 125H308L358 297L463 696L584 678L465 281L387 8L202 -5L131 262L15 671L157 696L248 310L296 125Z" />
<glyph unicode="W" glyph-name="W" horiz-adv-x="925" d="M641 125H652L699 297L795 696L908 678L799 281L732 8L549 -5L492 262L458 394L428 281L361 8L181 -5L121 262L17 671L147 696L228 310L273 125H284L337 310L410 580L387 671L519 696L598 310L641 125Z" />
<glyph unicode="X" glyph-name="X" horiz-adv-x="598" d="M463 -9L296 250L135 -10L27 43L224 343L12 615L136 696L297 446L452 700L557 638L374 353L586 69L463 -9Z" />
<glyph unicode="Y" glyph-name="Y" horiz-adv-x="569" d="M283 395H295L369 531L444 696L566 678L474 511L344 257L355 0H215L225 240L99 496L3 671L144 696L209 544L283 395Z" />
<glyph unicode="Z" glyph-name="Z" horiz-adv-x="542" d="M39 102L361 578L35 556L59 694L287 683L516 695L501 588L178 110L529 132L509 -6L268 5L22 -6L39 102Z" />
<glyph unicode="[" glyph-name="bracketleft" horiz-adv-x="278" d="M278 -132L69 -144L78 224L69 741L277 729V672L165 658V-61L278 -75V-132Z" />
<glyph unicode="\" glyph-name="backslash" horiz-adv-x="302" d="M293 -117L203 -133L-14 742L76 758L293 -117Z" />
<glyph unicode="]" glyph-name="bracketright" horiz-adv-x="278" d="M209 -144L0 -132V-75L113 -61V658L1 672V729L209 741L200 224L209 -144Z" />
<glyph unicode="^" glyph-name="asciicircum" horiz-adv-x="425" d="M17 299L25 390H408L400 299H17ZM17 129L25 220H408L400 129H17Z" />
<glyph unicode="_" glyph-name="underscore" horiz-adv-x="425" d="M-8 -220L0 -131H433L425 -220H-8Z" />
<glyph unicode="`" glyph-name="grave" horiz-adv-x="244" d="M39 623L50 725Q178 677 279 647L274 575L39 623Z" />
<glyph unicode="a" glyph-name="a" horiz-adv-x="469" d="M99 0T62 37T24 138T82 248T223 295H291V312Q291 361 271 379T196 397Q173 397 142 388T71 358L42 437Q85 467 146 491T248 515Q405 515 405 363V167Q405 111 440 42L334 -3Q309 45 297 83Q242 0 158 0Q99
0 62 37ZM200 102Q240 102 291 143V210Q238 222 205 222Q142 222 142 166Q142 137 158 120T200 102Z" />
<glyph unicode="b" glyph-name="b" horiz-adv-x="499" d="M323 505Q390 505 432 447T474 298Q474 167 406 84T228 0Q178 0 60 16L70 243L58 749L195 774L182 516V408Q193 424 209 442T259 482T323 505ZM284 375Q238 375 182 347V260L188 113Q230 108 267 108Q363
108 363 241T284 375Z" />
<glyph unicode="c" glyph-name="c" horiz-adv-x="385" d="M186 385T162 354T138 257T162 153T234 113Q258 113 281 128T316 158L327 174L377 122Q374 117 370 108T348 76T311 36T260 4T195 -11Q120 -11 73 50T26 209Q26 331 97 423T263 515Q292 515 321 507T380
480L310 357Q274 385 230 385Z" />
<glyph unicode="d" glyph-name="d" horiz-adv-x="502" d="M322 98Q244 0 187 0Q116 0 71 58T25 207Q25 332 94 418T265 504L321 496V515L309 749L446 774L433 260V172Q433 112 463 34L355 -11Q326 49 322 98ZM137 195T160 159T228 123T321 159V375Q261 387 232
387Q187 387 162 355T137 259Z" />
<glyph unicode="e" glyph-name="e" horiz-adv-x="446" d="M238 102Q267 102 299 117T349 147L367 162L413 106Q403 89 382 67T340 30T283 2T209 -11Q128 -11 77 50T26 209Q26 331 97 423T263 515Q336 515 376 474T417 359Q417 315 402 259L382 238L132 215Q149
102 238 102ZM238 412Q194 412 164 377T129 286L299 307Q302 330 302 345Q302 412 238 412Z" />
<glyph unicode="f" glyph-name="f" horiz-adv-x="303" d="M325 651Q288 660 258 660T215 642T201 579L200 484H308L297 402H200L199 260L210 25L75 0L87 243L83 402H17L28 484H81L80 560Q80 649 135 711T269 774Q311 774 356 765L325 651Z" />
<glyph unicode="g" glyph-name="g" horiz-adv-x="508" d="M23 -99Q23 -11 187 39Q148 59 148 91Q148 104 158 117T187 144V152Q115 152 73 192T30 299Q30 386 101 450T269 515Q294 515 342 505T436 495H513L503 408L428 417Q438 388 438 351T421 278T379 219T330
181T288 152T270 129Q270 110 310 96Q416 53 453 23T491 -51Q491 -125 417 -172T239 -220T80 -187T23 -99ZM325 321Q325 370 303 393T234 416Q143 416 143 327T240 237Q325 237 325 321ZM361 -66Q361 -48 342 -33T274 4Q201 -16 174 -33T146 -75T173 -115T250 -131T330
-113T361 -66Z" />
<glyph unicode="h" glyph-name="h" horiz-adv-x="525" d="M350 322T338 345T282 368T182 333V260L193 25L58 0L70 243L58 749L195 774L182 515V398Q197 418 216 437T275 480T360 504T437 469T468 372L462 260L473 20L338 -5L350 253Q350 322 338 345Z" />
<glyph unicode="i" glyph-name="i" horiz-adv-x="244" d="M192 509L180 260L191 25L57 0L69 243L58 484L192 509ZM51 689T77 715T137 742T189 724T207 668T182 605T123 578T70 600T51 655Z" />
<glyph unicode="j" glyph-name="j" horiz-adv-x="247" d="M3 -220Q-38 -220 -79 -211L-48 -97Q-14 -106 15 -106T58 -84T71 -5L70 243L59 484L193 509L181 260L192 34Q192 -70 136 -145T3 -220ZM52 689T78 715T138 742T190 724T208 669T183 605T125 578T72 599T52 654Z" />
<glyph unicode="k" glyph-name="k" horiz-adv-x="482" d="M370 -10L182 267V260L193 25L58 0L70 243L58 749L195 774L182 291L382 510L476 446L301 282L484 66L370 -10Z" />
<glyph unicode="l" glyph-name="l" horiz-adv-x="253" d="M195 774L182 260L193 25L58 0L70 243L58 749L195 774Z" />
<glyph unicode="m" glyph-name="m" horiz-adv-x="803" d="M348 322T336 345T280 368T180 333V260L191 25L57 0L69 243Q65 377 47 483L168 509Q175 451 178 396Q193 416 212 435T272 479T355 504T426 477T463 403Q546 504 631 504Q684 504 715 469T746 372L740
260L751 20L616 -5L628 253Q628 322 616 345T561 368T464 335L460 260L471 20L336 -5L348 253Q348 322 336 345Z" />
<glyph unicode="n" glyph-name="n" horiz-adv-x="523" d="M348 322T336 345T280 368T180 333V260L191 25L57 0L69 243Q65 377 47 483L168 509Q175 451 178 396Q193 416 212 435T272 479T358 504T435 469T466 372L460 260L471 20L336 -5L348 253Q348 322 336 345Z" />
<glyph unicode="o" glyph-name="o" horiz-adv-x="482" d="M28 337T97 426T258 515T402 455T454 296Q454 164 388 77T220 -11Q137 -11 83 51T28 209Q28 337 97 426ZM342 244Q342 389 243 389Q140 389 140 253Q140 182 169 142T245 102T317 138T342 244Z" />
<glyph unicode="p" glyph-name="p" horiz-adv-x="501" d="M325 505Q389 505 432 449T476 298Q476 165 408 83T237 0Q216 0 190 3L195 -188L58 -213L71 243H72Q68 377 50 483L171 509Q177 456 181 404Q183 409 201 431T256 479T325 505ZM286 375Q233 375 183 346V260L187
117Q241 108 269 108Q365 108 365 241T286 375Z" />
<glyph unicode="q" glyph-name="q" horiz-adv-x="503" d="M321 96Q247 0 183 0T72 56T25 207Q25 332 94 418T265 504L360 491L445 515L433 260L445 -188L308 -213L321 -11V96ZM137 263Q137 123 228 123Q273 123 321 159V243L314 377Q252 387 232 387Q188 387 163
357T137 263Z" />
<glyph unicode="r" glyph-name="r" horiz-adv-x="356" d="M47 483L168 509Q177 432 180 363Q271 504 351 504L340 348Q282 348 249 338T180 296V260L191 25L57 0L69 243Q65 377 47 483Z" />
<glyph unicode="s" glyph-name="s" horiz-adv-x="394" d="M209 93Q261 93 261 139Q261 155 239 169T184 197T119 228T64 277T41 348Q41 415 100 465T236 515Q272 515 306 507T373 480L306 358Q299 364 288 373T247 396T193 411T157 401T144 372T178 335T254 301T329
250T364 165Q364 95 307 42T174 -11Q126 -11 85 10T25 52L7 73L86 165Q92 157 103 145T146 113T209 93Z" />
<glyph unicode="t" glyph-name="t" horiz-adv-x="355" d="M97 484V593L232 619L219 484H340L329 402H215L210 193Q210 146 219 131T252 115T316 126L322 55Q256 0 206 0T124 36T92 132L98 244L97 402H28L39 484H97Z" />
<glyph unicode="u" glyph-name="u" horiz-adv-x="510" d="M178 0Q124 0 91 35T57 129L63 244L52 484L186 509L173 205Q173 162 188 142T238 122T332 156V216L321 479L456 504L444 254L445 172Q445 108 478 43L374 -3Q341 62 334 101Q244 0 178 0Z" />
<glyph unicode="v" glyph-name="v" horiz-adv-x="460" d="M228 125H241L274 262L328 509L452 494L377 246L314 12L143 -3L84 240L12 483L148 508L191 288L228 125Z" />
<glyph unicode="w" glyph-name="w" horiz-adv-x="731" d="M504 125H517L549 262L601 509L723 494L650 246L589 12L425 -3L370 240L365 256L298 12L139 -3L81 240L12 483L143 508L184 288L220 125H233L319 410L298 483L427 508L469 288L504 125Z" />
<glyph unicode="x" glyph-name="x" horiz-adv-x="473" d="M353 -10L234 167L111 -10L12 45L169 248L20 432L131 508L240 339L358 510L455 450L306 256L464 66L353 -10Z" />
<glyph unicode="y" glyph-name="y" horiz-adv-x="465" d="M72 -193L175 38L101 240L0 483L133 508L197 295L230 194H243L267 267L339 509L462 494L285 29L201 -220L72 -193Z" />
<glyph unicode="z" glyph-name="z" horiz-adv-x="417" d="M41 99L252 400L31 385L54 511L225 500L392 512L375 408L163 106L406 120L384 -6L214 5L24 -6L41 99Z" />
<glyph unicode="{" glyph-name="braceleft" horiz-adv-x="278" d="M69 336T83 350T97 389T76 487T54 583Q54 662 105 700T263 738L253 664Q195 664 175 650T155 596T172 504T190 415T174 346T131 297Q157 281 173 248T190 180T173 91T155 -2T177 -55T263 -70L253
-144Q152 -144 103 -106T54 11Q54 35 75 107T97 204Q97 259 25 266L35 328Q69 336 83 350Z" />
<glyph unicode="|" glyph-name="bar" horiz-adv-x="251" d="M80 753L171 761V-136L80 -144V753Z" />
<glyph unicode="}" glyph-name="braceright" horiz-adv-x="278" d="M181 229T181 204T202 107T224 11Q224 -68 173 -106T15 -144L25 -70Q83 -70 103 -56T123 -2T106 90T88 179T104 247T147 297Q121 313 105 345T88 414T105 503T123 596T101 649T15 664L25 738Q126
738 175 700T224 583Q224 559 203 487T181 390Q181 335 253 328L243 266Q209 257 195 243Z" />
<glyph unicode="~" glyph-name="asciitilde" horiz-adv-x="425" d="M131 324L304 282L380 326L408 281Q377 248 344 222T293 195L120 237L44 193L16 238Q47 271 80 297T131 324Z" />
<glyph unicode="&#xa0;" glyph-name="nbspace" horiz-adv-x="154" />
<glyph unicode="&#xa1;" glyph-name="exclamdown" horiz-adv-x="247" d="M207 410T183 386T127 361T79 378T62 430T85 489T139 515T189 496T207 444ZM20 -191L76 252L171 266V-166L20 -191Z" />
<glyph unicode="&#xa2;" glyph-name="cent" horiz-adv-x="369" d="M28 225Q28 332 87 416T230 513L249 644L296 642L277 513Q324 507 364 482L297 365Q281 377 258 385L222 133H225Q248 133 270 147T304 176L314 191L361 142Q357 131 339 107T304 66Q258 22 205
17L184 -126L137 -123L158 19Q99 31 64 86T28 225ZM134 280Q134 182 177 148L212 391Q175 388 155 359T134 280Z" />
<glyph unicode="&#xa3;" glyph-name="sterling" horiz-adv-x="469" d="M157 109L180 110Q217 110 264 98T330 86T377 96T436 128L469 53Q419 3 367 -15Q344 -23 316 -23T234 -2T152 19Q104 19 16 -11L31 84Q67 108 83 131Q117 181 117 233L110 279H44L55 361H99L90
426Q90 520 153 585T309 650Q359 650 436 635L405 521Q344 536 298 536T232 515T211 445L219 361H383L372 279H226L229 250Q229 169 157 109Z" />
<glyph unicode="&#xa4;" glyph-name="currency" horiz-adv-x="468" d="M93 186Q75 219 75 259T95 334L9 418L90 476L160 400Q194 418 232 418T307 400L387 489L448 405L372 335Q393 299 393 259T374 186L462 104L378 44L308 120Q274 100 234 100T156 121L76 32L16
118L93 186ZM153 292T153 259T176 202T233 178T290 202T315 259T291 316T233 340T177 316Z" />
<glyph unicode="&#xa5;" glyph-name="yen" horiz-adv-x="569" d="M525 198L521 151H348L355 0H215L222 151H42L47 198H224L225 218L197 275H42L47 322H173L112 446L15 621L156 646L222 494L283 373H295L352 481L430 646L552 628L457 461L387 322H525L521 275H364L344
235L345 198H525Z" />
<glyph unicode="&#xa6;" glyph-name="brokenbar" horiz-adv-x="251" d="M80 753L171 761V428L80 420V753ZM80 187L171 195V-136L80 -144V187Z" />
<glyph unicode="&#xa7;" glyph-name="section" horiz-adv-x="426" d="M115 6T149 -14T209 -34T248 -24T262 5T238 41T178 75T107 110T47 162T22 236Q22 323 112 385Q60 428 60 492T113 603T246 650Q279 650 312 642T381 615L324 493Q260 546 206 546Q185 546 173
537T161 511T185 478T245 445T315 410T375 358T400 283Q400 200 314 131Q363 89 363 25T311 -88T185 -138Q139 -138 96 -117T33 -75L13 -54L84 38Q91 30 103 18ZM124 266Q124 242 152 223Q178 206 210 192T255 170Q299 217 299 252Q299 277 271 296Q251 310 217
326T171 348Q124 304 124 266Z" />
<glyph unicode="&#xa8;" glyph-name="dieresis" horiz-adv-x="244" d="M-23 684T-2 706T47 728T90 713T105 667T84 614T36 592T-7 610T-23 656ZM139 684T160 706T210 728Q267 728 267 670Q267 636 247 614T199 592T155 610T139 656Z" />
<glyph unicode="&#xa9;" glyph-name="copyright" horiz-adv-x="761" d="M231 700T380 700T634 596T740 345T635 94T380 -11T126 93T20 345T125 596ZM502 49T588 135T674 344T588 553T380 640T172 554T86 345T172 136T380 49ZM375 147Q312 147 269 199T226 336T277
485T404 549Q433 549 458 543T504 525L467 446Q430 477 390 477T326 445T303 354T326 257T391 219Q417 219 439 235T471 279L518 252Q498 202 461 175T375 147Z" />
<glyph unicode="&#xaa;" glyph-name="ordfeminine" horiz-adv-x="349" d="M72 316T44 342T16 414T59 493T166 526H213V535Q213 568 199 579T157 591Q113 591 51 563L28 624Q116 678 185 678Q304 678 304 570V435Q304 395 331 346L247 313Q230 344 220 371Q179
316 118 316Q72 316 44 342ZM109 416T120 404T154 392T213 420V462Q173 469 153 469Q109 469 109 434Q109 416 120 404Z" />
<glyph unicode="&#xab;" glyph-name="guillemotleft" horiz-adv-x="437" d="M127 265L232 129L174 81L7 258L174 445L232 397L127 265ZM317 265L422 129L364 81L197 258L364 445L422 397L317 265Z" />
<glyph unicode="&#xac;" glyph-name="logicalnot" horiz-adv-x="425" d="M371 336V89L271 80V245H0L8 336H371Z" />
<glyph unicode="&#xae;" glyph-name="registered" horiz-adv-x="426" d="M20 585T76 641T212 697T349 641T406 507T349 372T213 315T77 371T20 506ZM271 364T313 405T355 506T313 607T213 649T113 608T71 507T112 406T212 364ZM216 620Q246 620 265 603T284 560Q284
520 249 499L301 428L256 405L209 487H193L197 410H147L150 485L147 620H216ZM206 581H197L194 525H210Q235 525 235 556Q235 581 206 581Z" />
<glyph unicode="&#xaf;" glyph-name="overscore" horiz-adv-x="244" d="M0 603L8 688H244L236 603H0Z" />
<glyph unicode="&#xb0;" glyph-name="degree" horiz-adv-x="291" d="M20 627T57 663T145 700T234 664T271 576T234 489T146 452T57 488T20 576ZM171 510T191 529T211 575T192 621T146 641T100 622T80 576T99 530T145 510Z" />
<glyph unicode="&#xb1;" glyph-name="plusminus" horiz-adv-x="425" d="M162 306V453L262 462V306H408L400 215H262V69L162 60V215H17L25 306H162ZM17 -91L25 0H408L400 -91H17Z" />
<glyph unicode="&#xb2;" glyph-name="twosuperior" horiz-adv-x="379" d="M219 643Q219 659 211 665T178 671T119 660T45 626H39L30 632L49 732L52 736Q128 774 191 774T294 743T333 659Q333 592 260 517L155 414L360 425L346 317L191 323L15 318L29 402L178 566Q219
610 219 643Z" />
<glyph unicode="&#xb3;" glyph-name="threesuperior" horiz-adv-x="364" d="M50 754Q111 774 171 774T272 744T313 666Q313 604 256 571Q334 535 334 466T283 356T153 314Q116 314 81 324T12 353L8 361L39 445L49 448L53 447Q106 401 159 401Q191 401 210 414T230
447Q230 509 140 509H69L85 592H131Q204 592 204 646Q204 666 189 677T150 689Q105 689 58 665L43 657H38L30 663L44 748L48 753L50 754Z" />
<glyph unicode="&#xb4;" glyph-name="acute" horiz-adv-x="244" d="M198 725L209 623Q78 593 -26 575L-31 647Q55 672 198 725Z" />
<glyph unicode="&#xb5;" glyph-name="mu" horiz-adv-x="521" d="M184 156T200 139T249 122T343 156V216L332 479L467 504L455 254L456 172Q456 108 489 43L385 -3Q352 62 345 101Q330 84 311 66T251 24T178 0L188 -189L66 -213L74 244L63 484L197 509L184 205Q184
156 200 139Z" />
<glyph unicode="&#xb6;" glyph-name="paragraph" horiz-adv-x="514" d="M151 256T79 323T7 486T64 635T217 690H242L255 256Q151 256 79 323ZM243 -10Q202 -10 161 -1L193 119Q226 108 256 108Q318 108 318 209L304 670L446 695L432 244Q432 135 379 63T243 -10Z" />
<glyph unicode="&#xb7;" glyph-name="middot" horiz-adv-x="205" d="M30 287T53 311T110 336Q175 336 175 270Q175 232 152 207T97 182T48 202T30 255Z" />
<glyph unicode="&#xb8;" glyph-name="cedilla" horiz-adv-x="244" d="M134 -125Q134 -94 65 -85L86 20H148L137 -40Q177 -50 198 -69T220 -115Q220 -152 179 -182T76 -220L44 -176Q134 -160 134 -125Z" />
<glyph unicode="&#xb9;" glyph-name="onesuperior" horiz-adv-x="295" d="M220 778L210 504L218 321H102L110 493L104 650L6 649V709L220 778Z" />
<glyph unicode="&#xba;" glyph-name="ordmasculine" horiz-adv-x="361" d="M19 553T71 615T193 678T301 637T340 524Q340 431 290 370T171 308T60 352T19 463Q19 553 71 615ZM181 585Q108 585 108 494Q108 447 128 420T183 392Q251 392 251 488T181 585Z" />
<glyph unicode="&#xbb;" glyph-name="guillemotright" horiz-adv-x="437" d="M120 261L15 397L73 445L240 268L73 81L15 129L120 261ZM310 261L205 397L263 445L430 268L263 81L205 129L310 261Z" />
<glyph unicode="&#xbc;" glyph-name="onequarter" horiz-adv-x="855" d="M223 703L213 429L221 246H105L113 418L107 575L9 574V634L223 703ZM464 178L635 435L765 451L754 189L823 192L815 106L759 108L763 0H647L654 109L457 108L464 178ZM652 324L566 190L655
191L652 324ZM225 -119L146 -87L567 758L646 726L225 -119Z" />
<glyph unicode="&#xbd;" glyph-name="onehalf" horiz-adv-x="867" d="M223 703L213 429L221 246H105L113 418L107 575L9 574V634L223 703ZM704 322Q704 338 696 344T663 350T604 339T530 305H524L515 311L534 411L537 415Q613 453 676 453T779 422T818 338Q818
271 745 196L640 93L845 104L831 -4L676 2L500 -3L514 81L663 245Q704 289 704 322ZM225 -119L146 -87L567 758L646 726L225 -119Z" />
<glyph unicode="&#xbe;" glyph-name="threequarters" horiz-adv-x="884" d="M493 178L664 435L794 451L783 189L852 192L844 106L788 108L792 0H676L683 109L486 108L493 178ZM53 679Q114 699 174 699T275 669T316 591Q316 529 259 496Q337 460 337 391T286 281T156
239Q119 239 84 248T15 278L11 286L42 370L52 373L56 372Q109 326 162 326Q194 326 213 339T233 372Q233 434 143 434H72L88 517H134Q207 517 207 571Q207 591 192 602T153 614Q108 614 62 590L46 582H41L33 588L47 673L51 678L53 679ZM254 -119L175 -87L596 758L675
726L254 -119ZM681 324L595 190L684 191L681 324Z" />
<glyph unicode="&#xbf;" glyph-name="questiondown" horiz-adv-x="354" d="M276 410T252 386T196 361T148 378T131 430T154 489T208 515T258 496T276 444ZM134 31Q134 -74 354 -79L304 -191Q156 -178 78 -128T0 5Q0 119 189 262L266 193Q134 108 134 31Z" />
<glyph unicode="&#xc0;" glyph-name="Agrave" horiz-adv-x="643" d="M484 -5L435 190H196L143 0L15 10L103 253L237 683L416 696L545 268L628 17L484 -5ZM326 566H313L227 296H405L326 566ZM204 808L215 910Q343 862 444 832L439 760L204 808Z" />
<glyph unicode="&#xc1;" glyph-name="Aacute" horiz-adv-x="643" d="M484 -5L435 190H196L143 0L15 10L103 253L237 683L416 696L545 268L628 17L484 -5ZM326 566H313L227 296H405L326 566ZM433 910L444 808Q313 778 209 760L204 832Q290 857 433 910Z" />
<glyph unicode="&#xc2;" glyph-name="Acircumflex" horiz-adv-x="643" d="M484 -5L435 190H196L143 0L15 10L103 253L237 683L416 696L545 268L628 17L484 -5ZM326 566H313L227 296H405L326 566ZM322 751L178 836L193 898L322 851L453 898L468 836L322 751Z" />
<glyph unicode="&#xc3;" glyph-name="Atilde" horiz-adv-x="643" d="M484 -5L435 190H196L143 0L15 10L103 253L237 683L416 696L545 268L628 17L484 -5ZM460 888L488 845Q460 811 430 785T383 759Q368 761 317 780T250 801L184 759L156 802Q184 836 214 862T261
888Q276 886 327 867T394 846L460 888ZM326 566H313L227 296H405L326 566Z" />
<glyph unicode="&#xc4;" glyph-name="Adieresis" horiz-adv-x="643" d="M484 -5L435 190H196L143 0L15 10L103 253L237 683L416 696L545 268L628 17L484 -5ZM326 566H313L227 296H405L326 566ZM339 869T360 891T410 913Q467 913 467 855Q467 821 447 799T399 777T355
795T339 841ZM177 869T198 891T247 913T290 898T305 852T284 799T236 777T193 795T177 841Z" />
<glyph unicode="&#xc5;" glyph-name="Aring" horiz-adv-x="643" d="M484 -5L435 190H196L143 0L15 10L103 253L237 683L416 696L545 268L628 17L484 -5ZM210 891T243 925T325 959T404 931T434 852T401 766T320 731T241 762T210 842ZM326 566H313L227 296H405L326
566ZM375 874T361 888T324 903T285 887T269 845T283 804T320 787T359 805T375 848Z" />
<glyph unicode="&#xc6;" glyph-name="AE" horiz-adv-x="853" d="M462 0L427 190H188L122 0L-5 10L100 253L267 690H767L756 583H460L501 406H745L734 300H525L575 106H810L799 0H462ZM345 566H332L228 296H405L345 566Z" />
<glyph unicode="&#xc7;" glyph-name="Ccedilla" horiz-adv-x="551" d="M321 -125Q321 -94 252 -85L267 -9Q165 2 98 92T30 310Q30 475 121 588T346 701Q398 701 442 691T506 669L524 658L456 519Q433 539 391 556T315 574Q246 574 205 517T163 355T206 182T323
114Q371 114 410 144T465 224L548 176Q518 97 461 49T329 -8L324 -40Q364 -50 385 -69T407 -115Q407 -152 366 -182T263 -220L231 -176Q321 -160 321 -125Z" />
<glyph unicode="&#xc8;" glyph-name="Egrave" horiz-adv-x="492" d="M80 0L92 243L80 690H455L444 583H219L213 406H413L402 300H209L208 260L215 106H457L446 0H80ZM161 808L172 910Q300 862 401 832L396 760L161 808Z" />
<glyph unicode="&#xc9;" glyph-name="Eacute" horiz-adv-x="492" d="M80 0L92 243L80 690H455L444 583H219L213 406H413L402 300H209L208 260L215 106H457L446 0H80ZM390 910L401 808Q270 778 166 760L161 832Q246 857 390 910Z" />
<glyph unicode="&#xca;" glyph-name="Ecircumflex" horiz-adv-x="492" d="M279 751L135 836L150 898L279 851L410 898L425 836L279 751ZM80 0L92 243L80 690H455L444 583H219L213 406H413L402 300H209L208 260L215 106H457L446 0H80Z" />
<glyph unicode="&#xcb;" glyph-name="Edieresis" horiz-adv-x="492" d="M80 0L92 243L80 690H455L444 583H219L213 406H413L402 300H209L208 260L215 106H457L446 0H80ZM134 869T155 891T204 913T247 898T262 852T241 799T193 777T150 795T134 841ZM296 869T317
891T366 913Q424 913 424 855Q424 821 404 799T356 777T312 795T296 841Z" />
<glyph unicode="&#xcc;" glyph-name="Igrave" horiz-adv-x="302" d="M222 695L208 260L220 0H80L92 243L80 670L222 695ZM34 808L45 910Q173 862 274 832L269 760L34 808Z" />
<glyph unicode="&#xcd;" glyph-name="Iacute" horiz-adv-x="302" d="M222 695L208 260L220 0H80L92 243L80 670L222 695ZM263 910L274 808Q143 778 39 760L34 832Q120 857 263 910Z" />
<glyph unicode="&#xce;" glyph-name="Icircumflex" horiz-adv-x="302" d="M152 751L8 836L23 898L152 851L283 898L298 836L152 751ZM222 695L208 260L220 0H80L92 243L80 670L222 695Z" />
<glyph unicode="&#xcf;" glyph-name="Idieresis" horiz-adv-x="302" d="M222 695L208 260L220 0H80L92 243L80 670L222 695ZM7 869T28 891T77 913T120 898T135 852T114 799T66 777T23 795T7 841ZM169 869T190 891T240 913Q297 913 297 855Q297 821 277 799T229
777T185 795T169 841Z" />
<glyph unicode="&#xd0;" glyph-name="Eth" horiz-adv-x="679" d="M362 690Q497 690 573 609T649 384Q649 202 555 96T300 -11Q229 -11 95 0L107 243L105 319H4L9 366H103L95 690H362ZM343 92Q422 92 467 156T513 342T469 523T326 582Q260 582 233 581L226 366H367L363
319H225L223 260L230 98Q314 92 343 92Z" />
<glyph unicode="&#xd1;" glyph-name="Ntilde" horiz-adv-x="689" d="M609 692L596 260L607 22L489 -3L191 479V260L205 0H80L92 243L80 687L200 693L497 204L487 677L609 692ZM483 888L511 845Q483 811 453 785T406 759Q391 761 340 780T273 801L207 759L179 802Q207
836 237 862T284 888Q299 886 350 867T417 846L483 888Z" />
<glyph unicode="&#xd2;" glyph-name="Ograve" horiz-adv-x="661" d="M360 700Q478 700 554 610T631 381Q631 205 540 97T301 -11Q186 -11 108 81T30 310Q30 480 123 590T360 700ZM495 325Q495 578 329 578Q253 578 210 522T166 353T212 168T335 95T453 156T495
325ZM211 808L222 910Q350 862 451 832L446 760L211 808Z" />
<glyph unicode="&#xd3;" glyph-name="Oacute" horiz-adv-x="661" d="M360 700Q478 700 554 610T631 381Q631 205 540 97T301 -11Q186 -11 108 81T30 310Q30 480 123 590T360 700ZM495 325Q495 578 329 578Q253 578 210 522T166 353T212 168T335 95T453 156T495
325ZM440 910L451 808Q320 778 216 760L211 832Q297 857 440 910Z" />
<glyph unicode="&#xd4;" glyph-name="Ocircumflex" horiz-adv-x="661" d="M329 751L185 836L200 898L329 851L460 898L475 836L329 751ZM360 700Q478 700 554 610T631 381Q631 205 540 97T301 -11Q186 -11 108 81T30 310Q30 480 123 590T360 700ZM495 325Q495
578 329 578Q253 578 210 522T166 353T212 168T335 95T453 156T495 325Z" />
<glyph unicode="&#xd5;" glyph-name="Otilde" horiz-adv-x="661" d="M360 700Q478 700 554 610T631 381Q631 205 540 97T301 -11Q186 -11 108 81T30 310Q30 480 123 590T360 700ZM495 325Q495 578 329 578Q253 578 210 522T166 353T212 168T335 95T453 156T495
325ZM467 888L495 845Q467 811 437 785T390 759Q375 761 324 780T257 801L191 759L163 802Q191 836 221 862T268 888Q283 886 334 867T401 846L467 888Z" />
<glyph unicode="&#xd6;" glyph-name="Odieresis" horiz-adv-x="661" d="M360 700Q478 700 554 610T631 381Q631 205 540 97T301 -11Q186 -11 108 81T30 310Q30 480 123 590T360 700ZM495 325Q495 578 329 578Q253 578 210 522T166 353T212 168T335 95T453 156T495
325ZM184 869T205 891T254 913T297 898T312 852T291 799T243 777T200 795T184 841ZM346 869T367 891T416 913Q474 913 474 855Q474 821 454 799T406 777T362 795T346 841Z" />
<glyph unicode="&#xd7;" glyph-name="multiply" horiz-adv-x="425" d="M107 90L48 160L145 257L41 361L105 438L215 327L319 431L378 361L280 263L383 160L319 83L209 192L107 90Z" />
<glyph unicode="&#xd8;" glyph-name="Oslash" horiz-adv-x="667" d="M363 700Q427 700 484 670L545 780L589 762L523 643Q575 600 604 532T634 381Q634 205 543 97T304 -11Q238 -11 180 22L113 -99L70 -80L142 50Q91 94 62 162T33 310Q33 480 126 590T363 700ZM415
95T456 156T498 336T454 518L242 134Q284 95 349 95ZM256 578T213 522T169 356T211 175L420 553Q385 578 332 578Q256 578 213 522Z" />
<glyph unicode="&#xd9;" glyph-name="Ugrave" horiz-adv-x="651" d="M291 -11Q201 -11 140 44T78 180L68 670L212 695L196 257Q196 187 228 148T329 109T427 147T457 278L445 670L585 695L574 255Q574 137 495 63T291 -11ZM206 808L217 910Q345 862 446 832L441
760L206 808Z" />
<glyph unicode="&#xda;" glyph-name="Uacute" horiz-adv-x="651" d="M291 -11Q201 -11 140 44T78 180L68 670L212 695L196 257Q196 187 228 148T329 109T427 147T457 278L445 670L585 695L574 255Q574 137 495 63T291 -11ZM435 910L446 808Q315 778 211 760L206
832Q291 857 435 910Z" />
<glyph unicode="&#xdb;" glyph-name="Ucircumflex" horiz-adv-x="651" d="M324 751L180 836L195 898L324 851L455 898L470 836L324 751ZM291 -11Q201 -11 140 44T78 180L68 670L212 695L196 257Q196 187 228 148T329 109T427 147T457 278L445 670L585 695L574
255Q574 137 495 63T291 -11Z" />
<glyph unicode="&#xdc;" glyph-name="Udieresis" horiz-adv-x="651" d="M291 -11Q201 -11 140 44T78 180L68 670L212 695L196 257Q196 187 228 148T329 109T427 147T457 278L445 670L585 695L574 255Q574 137 495 63T291 -11ZM179 869T200 891T249 913T292 898T307
852T286 799T238 777T195 795T179 841ZM341 869T362 891T412 913Q469 913 469 855Q469 821 449 799T401 777T357 795T341 841Z" />
<glyph unicode="&#xdd;" glyph-name="Yacute" horiz-adv-x="569" d="M283 395H295L369 531L444 696L566 678L474 511L344 257L355 0H215L225 240L99 496L3 671L144 696L209 544L283 395ZM398 910L409 808Q278 778 174 760L169 832Q255 857 398 910Z" />
<glyph unicode="&#xde;" glyph-name="Thorn" horiz-adv-x="509" d="M292 568Q388 568 445 514T502 364T430 202T254 134H203L209 0H75L87 243L75 690H211L207 568H292ZM256 467H203L197 260L198 231H268Q318 231 345 264T373 358Q373 467 256 467Z" />
<glyph unicode="&#xdf;" glyph-name="germandbls" horiz-adv-x="607" d="M80 650T147 712T307 774T453 731T506 612Q506 575 488 542T448 489Q390 436 390 396Q390 375 412 358T466 325T530 290T584 239T607 165Q607 95 550 42T417 -11Q369 -11 328 10T268 52L250
73L329 165Q335 157 346 145T389 113T452 93Q504 93 504 139Q504 157 482 172T428 203T364 239T310 293T287 368T305 442T345 495Q403 548 403 584T372 640T293 660T223 642T201 579L199 260L210 25L75 0L87 243L83 402H17L28 484H81L80 560Q80 650 147 712Z" />
<glyph unicode="&#xe0;" glyph-name="agrave" horiz-adv-x="469" d="M99 0T62 37T24 138T82 248T223 295H291V312Q291 361 271 379T196 397Q173 397 142 388T71 358L42 437Q85 467 146 491T248 515Q405 515 405 363V167Q405 111 440 42L334 -3Q309 45 297 83Q242
0 158 0Q99 0 62 37ZM119 623L130 725Q258 677 359 647L354 575L119 623ZM200 102Q240 102 291 143V210Q238 222 205 222Q142 222 142 166Q142 137 158 120T200 102Z" />
<glyph unicode="&#xe1;" glyph-name="aacute" horiz-adv-x="469" d="M99 0T62 37T24 138T82 248T223 295H291V312Q291 361 271 379T196 397Q173 397 142 388T71 358L42 437Q85 467 146 491T248 515Q405 515 405 363V167Q405 111 440 42L334 -3Q309 45 297 83Q242
0 158 0Q99 0 62 37ZM348 725L359 623Q228 593 124 575L119 647Q204 672 348 725ZM200 102Q240 102 291 143V210Q238 222 205 222Q142 222 142 166Q142 137 158 120T200 102Z" />
<glyph unicode="&#xe2;" glyph-name="acircumflex" horiz-adv-x="469" d="M99 0T62 37T24 138T82 248T223 295H291V312Q291 361 271 379T196 397Q173 397 142 388T71 358L42 437Q85 467 146 491T248 515Q405 515 405 363V167Q405 111 440 42L334 -3Q309 45 297
83Q242 0 158 0Q99 0 62 37ZM237 566L93 651L108 713L237 666L368 713L383 651L237 566ZM200 102Q240 102 291 143V210Q238 222 205 222Q142 222 142 166Q142 137 158 120T200 102Z" />
<glyph unicode="&#xe3;" glyph-name="atilde" horiz-adv-x="469" d="M99 0T62 37T24 138T82 248T223 295H291V312Q291 361 271 379T196 397Q173 397 142 388T71 358L42 437Q85 467 146 491T248 515Q405 515 405 363V167Q405 111 440 42L334 -3Q309 45 297 83Q242
0 158 0Q99 0 62 37ZM375 703L403 660Q375 626 345 600T298 574Q283 576 232 595T165 616L99 574L71 617Q99 651 129 677T176 703Q191 701 242 682T309 661L375 703ZM200 102Q240 102 291 143V210Q238 222 205 222Q142 222 142 166Q142 137 158 120T200 102Z" />
<glyph unicode="&#xe4;" glyph-name="adieresis" horiz-adv-x="469" d="M99 0T62 37T24 138T82 248T223 295H291V312Q291 361 271 379T196 397Q173 397 142 388T71 358L42 437Q85 467 146 491T248 515Q405 515 405 363V167Q405 111 440 42L334 -3Q309 45 297 83Q242
0 158 0Q99 0 62 37ZM200 102Q240 102 291 143V210Q238 222 205 222Q142 222 142 166Q142 137 158 120T200 102ZM254 684T275 706T324 728Q382 728 382 670Q382 636 362 614T314 592T270 610T254 656ZM92 684T113 706T162 728T205 713T220 667T199 614T151 592T108
610T92 656Z" />
<glyph unicode="&#xe5;" glyph-name="aring" horiz-adv-x="469" d="M99 0T62 37T24 138T82 248T223 295H291V312Q291 361 271 379T196 397Q173 397 142 388T71 358L42 437Q85 467 146 491T248 515Q405 515 405 363V167Q405 111 440 42L334 -3Q309 45 297 83Q242
0 158 0Q99 0 62 37ZM125 706T158 740T240 774T319 746T349 667T316 581T235 546T156 577T125 657ZM200 102Q240 102 291 143V210Q238 222 205 222Q142 222 142 166Q142 137 158 120T200 102ZM290 689T276 703T239 718T200 702T184 660T198 619T235 602T274 620T290
663Z" />
<glyph unicode="&#xe6;" glyph-name="ae" horiz-adv-x="699" d="M491 102Q520 102 552 117T602 147L620 162L666 106Q656 89 635 67T593 30T536 2T462 -11Q363 -11 312 77Q254 -11 168 -11Q104 -11 64 26T24 127T72 232T208 279L281 285V312Q281 361 263 379T196
397Q173 397 142 388T71 358L42 437Q55 446 76 459T151 493T245 515Q341 515 368 444Q434 515 511 515T629 474T670 359Q670 323 655 261L635 240L384 222Q399 102 491 102ZM491 412Q450 412 421 379T384 294L552 309Q555 330 555 345Q555 412 491 412ZM281 209V215L206
210Q170 208 156 196T142 155T160 109T213 91T291 129Q281 163 281 209Z" />
<glyph unicode="&#xe7;" glyph-name="ccedilla" horiz-adv-x="385" d="M222 -125Q222 -94 153 -85L168 -9Q104 2 65 61T26 209Q26 331 97 423T263 515Q292 515 321 507T380 480L310 357Q274 385 230 385T162 354T138 257T162 153T234 113Q258 113 281 128T316
158L327 174L377 122Q344 56 283 16Q258 -1 231 -7L225 -40Q265 -50 286 -69T308 -115Q308 -152 267 -182T164 -220L132 -176Q222 -160 222 -125Z" />
<glyph unicode="&#xe8;" glyph-name="egrave" horiz-adv-x="446" d="M238 102Q267 102 299 117T349 147L367 162L413 106Q403 89 382 67T340 30T283 2T209 -11Q128 -11 77 50T26 209Q26 331 97 423T263 515Q336 515 376 474T417 359Q417 315 402 259L382 238L132
215Q149 102 238 102ZM128 623L139 725Q267 677 368 647L363 575L128 623ZM238 412Q194 412 164 377T129 286L299 307Q302 330 302 345Q302 412 238 412Z" />
<glyph unicode="&#xe9;" glyph-name="eacute" horiz-adv-x="446" d="M238 102Q267 102 299 117T349 147L367 162L413 106Q403 89 382 67T340 30T283 2T209 -11Q128 -11 77 50T26 209Q26 331 97 423T263 515Q336 515 376 474T417 359Q417 315 402 259L382 238L132
215Q149 102 238 102ZM357 725L368 623Q237 593 133 575L128 647Q214 672 357 725ZM238 412Q194 412 164 377T129 286L299 307Q302 330 302 345Q302 412 238 412Z" />
<glyph unicode="&#xea;" glyph-name="ecircumflex" horiz-adv-x="446" d="M238 102Q267 102 299 117T349 147L367 162L413 106Q403 89 382 67T340 30T283 2T209 -11Q128 -11 77 50T26 209Q26 331 97 423T263 515Q336 515 376 474T417 359Q417 315 402 259L382
238L132 215Q149 102 238 102ZM246 566L102 651L117 713L246 666L377 713L392 651L246 566ZM238 412Q194 412 164 377T129 286L299 307Q302 330 302 345Q302 412 238 412Z" />
<glyph unicode="&#xeb;" glyph-name="edieresis" horiz-adv-x="446" d="M238 102Q267 102 299 117T349 147L367 162L413 106Q403 89 382 67T340 30T283 2T209 -11Q128 -11 77 50T26 209Q26 331 97 423T263 515Q336 515 376 474T417 359Q417 315 402 259L382 238L132
215Q149 102 238 102ZM238 412Q194 412 164 377T129 286L299 307Q302 330 302 345Q302 412 238 412ZM263 684T284 706T334 728Q391 728 391 670Q391 636 371 614T323 592T279 610T263 656ZM101 684T122 706T171 728T214 713T229 667T208 614T160 592T117 610T101
656Z" />
<glyph unicode="&#xec;" glyph-name="igrave" horiz-adv-x="244" d="M192 509L180 260L191 25L57 0L69 243L58 484L192 509ZM5 623L16 725Q144 677 245 647L240 575L5 623Z" />
<glyph unicode="&#xed;" glyph-name="iacute" horiz-adv-x="244" d="M192 509L180 260L191 25L57 0L69 243L58 484L192 509ZM234 725L245 623Q114 593 10 575L5 647Q90 672 234 725Z" />
<glyph unicode="&#xee;" glyph-name="icircumflex" horiz-adv-x="244" d="M123 566L-21 651L-6 713L123 666L254 713L269 651L123 566ZM192 509L180 260L191 25L57 0L69 243L58 484L192 509Z" />
<glyph unicode="&#xef;" glyph-name="idieresis" horiz-adv-x="244" d="M192 509L180 260L191 25L57 0L69 243L58 484L192 509ZM-22 684T-1 706T48 728T91 713T106 667T85 614T37 592T-6 610T-22 656ZM140 684T161 706T210 728Q268 728 268 670Q268 636 248 614T200
592T156 610T140 656Z" />
<glyph unicode="&#xf0;" glyph-name="eth" horiz-adv-x="514" d="M485 261Q485 145 415 67T239 -11Q152 -11 90 54T28 211Q28 326 86 396T236 467Q279 467 316 445Q278 517 210 587L67 512L58 557L177 619Q118 673 55 721L183 780Q222 741 282 675L417 746L428
700L312 640Q403 531 444 441T485 261ZM312 94T340 127T369 223T354 347Q304 371 257 371Q149 371 149 232Q149 170 179 132T260 94Z" />
<glyph unicode="&#xf1;" glyph-name="ntilde" horiz-adv-x="523" d="M348 322T336 345T280 368T180 333V260L191 25L57 0L69 243Q65 377 47 483L168 509Q175 451 178 396Q193 416 212 435T272 479T358 504T435 469T466 372L460 260L471 20L336 -5L348 253Q348
322 336 345ZM414 703L442 660Q414 626 384 600T337 574Q322 576 271 595T204 616L138 574L110 617Q138 651 168 677T215 703Q230 701 281 682T348 661L414 703Z" />
<glyph unicode="&#xf2;" glyph-name="ograve" horiz-adv-x="482" d="M28 337T97 426T258 515T402 455T454 296Q454 164 388 77T220 -11Q137 -11 83 51T28 209Q28 337 97 426ZM342 244Q342 389 243 389Q140 389 140 253Q140 182 169 142T245 102T317 138T342 244ZM126
623L137 725Q265 677 366 647L361 575L126 623Z" />
<glyph unicode="&#xf3;" glyph-name="oacute" horiz-adv-x="482" d="M28 337T97 426T258 515T402 455T454 296Q454 164 388 77T220 -11Q137 -11 83 51T28 209Q28 337 97 426ZM342 244Q342 389 243 389Q140 389 140 253Q140 182 169 142T245 102T317 138T342 244ZM355
725L366 623Q235 593 131 575L126 647Q212 672 355 725Z" />
<glyph unicode="&#xf4;" glyph-name="ocircumflex" horiz-adv-x="482" d="M244 566L100 651L115 713L244 666L375 713L390 651L244 566ZM28 337T97 426T258 515T402 455T454 296Q454 164 388 77T220 -11Q137 -11 83 51T28 209Q28 337 97 426ZM342 244Q342 389
243 389Q140 389 140 253Q140 182 169 142T245 102T317 138T342 244Z" />
<glyph unicode="&#xf5;" glyph-name="otilde" horiz-adv-x="482" d="M28 337T97 426T258 515T402 455T454 296Q454 164 388 77T220 -11Q137 -11 83 51T28 209Q28 337 97 426ZM342 244Q342 389 243 389Q140 389 140 253Q140 182 169 142T245 102T317 138T342 244ZM382
703L410 660Q382 626 352 600T305 574Q290 576 239 595T172 616L106 574L78 617Q106 651 136 677T183 703Q198 701 249 682T316 661L382 703Z" />
<glyph unicode="&#xf6;" glyph-name="odieresis" horiz-adv-x="482" d="M28 337T97 426T258 515T402 455T454 296Q454 164 388 77T220 -11Q137 -11 83 51T28 209Q28 337 97 426ZM342 244Q342 389 243 389Q140 389 140 253Q140 182 169 142T245 102T317 138T342
244ZM99 684T120 706T169 728T212 713T227 667T206 614T158 592T115 610T99 656ZM261 684T282 706T332 728Q389 728 389 670Q389 636 369 614T321 592T277 610T261 656Z" />
<glyph unicode="&#xf7;" glyph-name="divide" horiz-adv-x="425" d="M17 215L25 306H408L400 215H17ZM139 454T162 478T218 503Q284 503 284 437Q284 399 261 374T206 349T157 369T139 422ZM139 122T162 146T218 171Q284 171 284 105Q284 67 261 42T206 17T157
37T139 90Z" />
<glyph unicode="&#xf8;" glyph-name="oslash" horiz-adv-x="482" d="M265 515Q311 515 349 496L413 611L457 593L388 469Q454 409 454 287T388 77T220 -11Q176 -11 134 10L74 -99L31 -80L96 37Q28 102 28 209Q28 337 97 426T265 515ZM293 102T317 138T342 243T321
348L194 117Q216 102 254 102ZM140 253Q140 192 161 155L286 381Q267 389 243 389Q140 389 140 253Z" />
<glyph unicode="&#xf9;" glyph-name="ugrave" horiz-adv-x="510" d="M178 0Q124 0 91 35T57 129L63 244L52 484L186 509L173 205Q173 162 188 142T238 122T332 156V216L321 479L456 504L444 254L445 172Q445 108 478 43L374 -3Q341 62 334 101Q244 0 178 0ZM140
623L151 725Q279 677 380 647L375 575L140 623Z" />
<glyph unicode="&#xfa;" glyph-name="uacute" horiz-adv-x="510" d="M178 0Q124 0 91 35T57 129L63 244L52 484L186 509L173 205Q173 162 188 142T238 122T332 156V216L321 479L456 504L444 254L445 172Q445 108 478 43L374 -3Q341 62 334 101Q244 0 178 0ZM369
725L380 623Q249 593 145 575L140 647Q225 672 369 725Z" />
<glyph unicode="&#xfb;" glyph-name="ucircumflex" horiz-adv-x="510" d="M178 0Q124 0 91 35T57 129L63 244L52 484L186 509L173 205Q173 162 188 142T238 122T332 156V216L321 479L456 504L444 254L445 172Q445 108 478 43L374 -3Q341 62 334 101Q244 0 178
0ZM258 566L114 651L129 713L258 666L389 713L404 651L258 566Z" />
<glyph unicode="&#xfc;" glyph-name="udieresis" horiz-adv-x="510" d="M178 0Q124 0 91 35T57 129L63 244L52 484L186 509L173 205Q173 162 188 142T238 122T332 156V216L321 479L456 504L444 254L445 172Q445 108 478 43L374 -3Q341 62 334 101Q244 0 178 0ZM275
684T296 706T346 728Q403 728 403 670Q403 636 383 614T335 592T291 610T275 656ZM113 684T134 706T183 728T226 713T241 667T220 614T172 592T129 610T113 656Z" />
<glyph unicode="&#xfd;" glyph-name="yacute" horiz-adv-x="465" d="M72 -193L175 38L101 240L0 483L133 508L197 295L230 194H243L267 267L339 509L462 494L285 29L201 -220L72 -193ZM344 725L355 623Q224 593 120 575L115 647Q200 672 344 725Z" />
<glyph unicode="&#xfe;" glyph-name="thorn" horiz-adv-x="499" d="M323 505Q387 505 430 449T474 298Q474 165 406 83T235 0Q214 0 188 3L193 -188L56 -213L69 243L57 749L194 774L181 516V407Q191 421 207 439T257 481T323 505ZM284 375Q231 375 181 346V260L185
117Q239 108 267 108Q363 108 363 241T284 375ZM181 260L70 243L181 260Z" />
<glyph unicode="&#xff;" glyph-name="ydieresis" horiz-adv-x="465" d="M72 -193L175 38L101 240L0 483L133 508L197 295L230 194H243L267 267L339 509L462 494L285 29L201 -220L72 -193ZM88 684T109 706T158 728T201 713T216 667T195 614T147 592T104 610T88
656ZM250 684T271 706T320 728Q378 728 378 670Q378 636 358 614T310 592T266 610T250 656Z" />
<glyph unicode="&#x2013;" glyph-name="endash" horiz-adv-x="425" d="M-8 215L0 306H433L425 215H-8Z" />
<glyph unicode="&#x2014;" glyph-name="emdash" horiz-adv-x="551" d="M-8 215L0 306H559L551 215H-8Z" />
<glyph unicode="&#x2018;" glyph-name="quoteleft" horiz-adv-x="193" d="M18 464Q18 549 142 644L183 614Q124 545 124 495Q124 464 150 416L52 377Q18 420 18 464Z" />
<glyph unicode="&#x2019;" glyph-name="quoteright" horiz-adv-x="193" d="M175 557Q175 472 51 377L10 407Q69 476 69 526Q69 557 43 605L141 644Q175 601 175 557Z" />
<glyph unicode="&#x201a;" glyph-name="quotesinglbase" horiz-adv-x="205" d="M165 67Q165 -18 41 -113L0 -83Q59 -14 59 36Q59 67 33 115L131 154Q165 111 165 67Z" />
<glyph unicode="&#x201c;" glyph-name="quotedblleft" horiz-adv-x="363" d="M18 464Q18 549 142 644L183 614Q124 545 124 495Q124 464 150 416L52 377Q18 420 18 464ZM188 464Q188 549 312 644L353 614Q294 545 294 495Q294 464 320 416L222 377Q188 420 188 464Z" />
<glyph unicode="&#x201d;" glyph-name="quotedblright" horiz-adv-x="363" d="M175 557Q175 472 51 377L10 407Q69 476 69 526Q69 557 43 605L141 644Q175 601 175 557ZM345 557Q345 472 221 377L180 407Q239 476 239 526Q239 557 213 605L311 644Q345 601 345 557Z" />
<glyph unicode="&#x201e;" glyph-name="quotedblbase" horiz-adv-x="375" d="M165 67Q165 -18 41 -113L0 -83Q59 -14 59 36Q59 67 33 115L131 154Q165 111 165 67ZM335 67Q335 -18 211 -113L170 -83Q229 -14 229 36Q229 67 203 115L301 154Q335 111 335 67Z" />
<glyph unicode="&#x2022;" glyph-name="bullet" horiz-adv-x="298" d="M40 303T75 340T159 377T232 351T257 273T222 184T140 146T66 176T40 255Z" />
<glyph unicode="&#x2039;" glyph-name="guilsinglleft" horiz-adv-x="247" d="M127 265L232 129L174 81L7 258L174 445L232 397L127 265Z" />
<glyph unicode="&#x203a;" glyph-name="guilsinglright" horiz-adv-x="247" d="M120 261L15 397L73 445L240 268L73 81L15 129L120 261Z" />
</font>
</defs>
</svg>
