<?xml version="1.0" standalone="no"?>
<!DOCTYPE svg PUBLIC "-//W3C//DTD SVG 1.1//EN" "http://www.w3.org/Graphics/SVG/1.1/DTD/svg11.dtd">
<svg xmlns="http://www.w3.org/2000/svg">
<defs >
<font id="PinyonScript" horiz-adv-x="1099" ><font-face
    font-family="Pinyon Script"
    units-per-em="2048"
    panose-1="2 1 5 1 8 1 1 13 0 2"
    ascent="1768"
    descent="-787"
    alphabetic="0" />
<glyph unicode=" " glyph-name="space" horiz-adv-x="703" />
<glyph unicode="!" glyph-name="exclam" horiz-adv-x="807" d="M886 1279Q929 1272 963 1273T1005 1275T1024 1276Q1045 1277 1060 1279Q973 1182 902 1094Q732 878 671 789L346 331Q335 315 325 315T314 323Q314 339 338 383L500 662L784 1126L886 1279ZM154
-2T137 16T120 56T128 95T150 125Q181 154 216 154Q282 154 282 91Q282 34 218 6Q200 -2 177 -2Z" />
<glyph unicode="&quot;" glyph-name="quotedbl" horiz-adv-x="1430" d="M1150 1175Q1150 1184 1176 1231L1294 1446Q1300 1458 1305 1468L1318 1495Q1366 1585 1393 1609Q1433 1643 1470 1644T1518 1635T1529 1607T1524 1578T1500 1541T1448 1478L1255 1255L1197
1192Q1169 1164 1160 1164T1150 1175ZM793 1175Q793 1181 798 1192L936 1446Q943 1458 948 1468L961 1495Q1009 1585 1036 1609Q1076 1643 1113 1644T1161 1635T1171 1607T1166 1578T1142 1541T1090 1478L898 1255Q817 1164 805 1164T793 1175Z" />
<glyph unicode="#" glyph-name="numbersign" horiz-adv-x="1270" d="M409 22Q399 24 386 24Q367 24 337 22L700 531H479L116 22Q106 24 94 24Q74 24 46 22L409 531H218L241 558Q250 569 258 584H447L617 823H398L421 851Q430 862 439 876H655L1009 1373Q1026 1368
1039 1368Q1069 1368 1078 1371L725 876H946L1301 1373Q1318 1368 1335 1368Q1361 1368 1370 1371L1017 876H1197Q1172 842 1168 823H979L809 584H1017Q993 550 988 531H771L409 22ZM738 584L908 823H687L517 584H738Z" />
<glyph unicode="$" glyph-name="dollar" horiz-adv-x="975" d="M168 22L154 24Q134 24 130 22L330 291Q247 322 247 396Q247 434 268 464T316 498Q374 508 374 461Q374 439 360 423T325 404T287 416V401Q287 344 350 318L641 709Q638 718 628 740Q602 799 602
858T622 963T680 1048Q762 1134 883 1153Q927 1159 971 1152L1140 1379Q1149 1376 1158 1376Q1169 1376 1179 1378L1004 1144Q1099 1113 1099 1037Q1099 977 1054 947Q1016 922 994 936T972 972T985 1010T1020 1030T1059 1018Q1060 1022 1060 1040T1040 1081T985
1119L760 817Q800 730 800 666T771 535T693 415Q591 303 454 280Q404 273 361 282L168 22ZM953 1128Q922 1134 887 1129T823 1107T770 1064Q718 1010 718 960Q718 910 746 848L953 1128ZM381 309Q414 302 453 308T532 333T606 384Q684 456 684 552Q684 600 654
676L381 309Z" />
<glyph unicode="%" glyph-name="percent" horiz-adv-x="1594" d="M612 868T560 849T462 830T388 842T342 874Q308 910 308 955T326 1047T378 1140T455 1231T552 1309Q665 1384 772 1384Q831 1384 862 1352T893 1271T875 1170T826 1069T752 977T661 901ZM1236 1373Q1254
1368 1263 1368Q1289 1368 1298 1371L318 -5Q307 -2 294 -2Q274 -2 253 -5L1236 1373ZM416 928Q416 862 484 862Q558 862 650 928Q790 1028 846 1174Q863 1221 863 1265Q863 1347 799 1347Q686 1347 524 1159Q470 1096 443 1033T416 928ZM702 84Q693 108 693 138T712
215T764 307T841 398T938 477Q1053 552 1158 552Q1217 552 1248 520T1279 438T1261 337T1212 237T1138 145T1046 68Q941 -2 841 -2Q733 -2 702 84ZM1248 432Q1248 514 1186 514Q1082 514 910 315Q801 188 801 93Q801 28 871 28Q944 28 1036 94Q1175 196 1230 342Q1248
389 1248 432Z" />
<glyph unicode="&amp;" glyph-name="ampersand" horiz-adv-x="1452" d="M471 18Q441 24 405 24Q350 24 310 19L394 159Q270 257 232 410Q220 460 220 515T234 618T275 703Q330 779 412 779Q475 779 520 724Q570 663 570 564Q570 481 505 322Q485 273 460 224Q699
593 958 853L1093 984Q1111 1000 1122 1000T1133 992Q1133 983 1079 931T945 784T790 582Q630 354 517 119Q580 93 645 93Q776 93 872 174Q962 255 962 353Q962 358 960 368Q920 370 920 404Q920 415 928 424T954 433T984 416T997 352T968 249T888 152Q783 66 644
66Q575 66 505 94L471 18ZM409 188Q540 431 540 575Q540 689 466 728Q445 739 421 739T370 720T322 670Q277 600 277 506Q277 311 409 188Z" />
<glyph unicode="&apos;" glyph-name="quotesingle" horiz-adv-x="1072" d="M793 1175Q793 1181 798 1192L936 1446Q943 1458 948 1468L961 1495Q1009 1585 1036 1609Q1076 1643 1113 1644T1161 1635T1171 1607T1166 1578T1142 1541T1090 1478L898 1255Q817 1164
805 1164T793 1175Z" />
<glyph unicode="(" glyph-name="parenleft" horiz-adv-x="1412" d="M579 -165Q404 117 483 484Q561 844 862 1120Q1057 1298 1304 1406Q1333 1419 1343 1419T1353 1412T1351 1403T1335 1393Q938 1181 732 840Q539 520 549 147Q554 14 604 -146Q615 -184 601 -187Q595
-187 579 -165Z" />
<glyph unicode=")" glyph-name="parenright" horiz-adv-x="1412" d="M880 -48Q768 -120 692 -153T605 -187T595 -180T597 -171T613 -161Q1011 53 1216 392Q1409 711 1399 1085Q1394 1218 1344 1378Q1333 1416 1347 1419Q1353 1419 1369 1397Q1482 1215 1487 994Q1499
623 1258 302Q1108 101 880 -48Z" />
<glyph unicode="*" glyph-name="asterisk" horiz-adv-x="1060" d="M853 1352Q890 1287 905 1270Q881 1258 856 1246Q737 1191 654 1143Q777 1078 838 1065Q824 1048 804 1026T765 978L702 1054Q671 1089 633 1125Q622 1103 610 1074L586 1016Q563 955 548 901Q540
902 528 904T501 909Q466 914 445 914Q559 1054 610 1131Q568 1122 515 1108L430 1084Q397 1075 372 1066L382 1113Q389 1142 390 1168L489 1161Q545 1157 619 1159Q602 1254 563 1342Q615 1365 667 1393L662 1352Q651 1276 644 1164Q739 1236 785 1283L853 1352Z"
/>
<glyph unicode="+" glyph-name="plus" horiz-adv-x="937" d="M329 172Q309 176 299 176Q280 176 264 172L444 465H172Q203 500 213 520H478L648 797Q668 793 677 793Q691 793 717 797L545 520H821Q807 506 800 494L781 465H511L329 172Z" />
<glyph unicode="," glyph-name="comma" horiz-adv-x="726" d="M-46 -213Q-60 -213 -60 -201Q-60 -190 -36 -183T17 -156T72 -110Q130 -54 130 -29Q130 8 122 30Q111 65 111 85T118 121T138 150Q167 182 207 182Q271 182 271 105Q271 -14 105 -143Q13 -213 -46 -213Z" />
<glyph unicode="-" glyph-name="hyphen" horiz-adv-x="1068" d="M326 461Q339 474 344 492T355 518H736Q712 487 708 461H326Z" />
<glyph unicode="." glyph-name="period" horiz-adv-x="726" d="M119 -2T99 18T79 66T88 112T114 148Q150 182 191 182Q270 182 270 108Q270 66 242 41Q195 -2 157 -2Z" />
<glyph unicode="/" glyph-name="slash" horiz-adv-x="832" d="M76 -106Q66 -104 54 -104Q32 -104 6 -106L1066 1382Q1080 1376 1099 1376Q1107 1376 1119 1377T1137 1378L76 -106Z" />
<glyph unicode="0" glyph-name="zero" horiz-adv-x="1273" d="M296 -5T238 78T179 295T219 556T329 806T489 1037T684 1228Q907 1408 1100 1408Q1216 1408 1276 1318Q1332 1235 1332 1084Q1332 821 1152 532Q976 246 732 98Q561 -5 405 -5Q296 -5 238 78ZM288
225Q288 22 430 22Q588 22 818 227Q1055 439 1183 724Q1277 932 1277 1129Q1277 1331 1172 1372Q1140 1384 1094 1384T984 1350T853 1256T718 1117T587 946T470 757T374 564Q288 363 288 225Z" />
<glyph unicode="1" glyph-name="one" horiz-adv-x="987" d="M1119 1405T1128 1414T1149 1424T1161 1409T1128 1351T1047 1232L940 1056L810 830L667 572L520 296L377 18Q368 18 354 19L292 23Q277 24 257 24Q205 24 172 13L493 484L813 972Q595 748 515 682T400
591Q325 537 302 537T279 557Q279 577 313 588L334 598Q425 641 608 816L757 964L900 1119Q1046 1284 1099 1373Q1119 1405 1128 1414Z" />
<glyph unicode="2" glyph-name="two" horiz-adv-x="1444" d="M1195 336Q1210 336 1210 314T1201 266T1175 212Q1050 -2 847 -2Q751 -2 660 72Q541 169 412 169Q314 169 204 109Q94 49 54 -23Q52 -27 51 -33T47 -46Q42 -58 22 -58Q11 -58 11 -34T37 34T124 133Q266
262 565 409Q889 570 1068 790Q1232 992 1232 1186Q1232 1348 1144 1374Q1116 1383 1062 1383T937 1351T800 1265T676 1146T575 1013Q482 868 482 779Q482 737 506 710T573 682T658 698T742 745Q832 808 903 911Q914 929 924 929T935 921T924 894T892 850Q847 794
787 746Q675 655 578 655Q481 655 439 710Q410 747 410 809T436 940T509 1075T619 1202T758 1310Q920 1410 1085 1410Q1219 1410 1294 1330Q1363 1258 1363 1148T1316 937T1178 742Q993 549 653 399Q348 263 292 227Q208 172 157 123Q324 216 460 230Q506 234 566
234Q690 234 795 165Q882 108 931 108T1016 120T1083 156Q1151 207 1181 294Q1187 308 1187 322T1195 336Z" />
<glyph unicode="3" glyph-name="three" horiz-adv-x="1338" d="M1035 1410Q1329 1410 1329 1159Q1329 1038 1204 898Q1063 738 832 643Q953 667 1032 611Q1113 553 1113 435Q1113 306 993 150Q868 -14 683 -119Q474 -238 258 -238Q120 -238 5 -174Q-105 -114 -105
-49Q-105 -20 -88 -1T-43 18T2 -1T19 -50T14 -110Q58 -181 184 -208Q220 -215 281 -215T429 -187T596 -108T742 11T859 161Q964 335 964 515Q964 611 866 611Q781 611 715 578Q600 519 556 453Q549 442 547 434T539 410T516 394T498 415Q498 443 524 470T576 519T634
562Q691 600 806 658T994 783T1113 921Q1196 1052 1196 1203Q1196 1348 1100 1374Q1070 1383 1023 1383T913 1354T790 1276T675 1166T578 1039Q488 897 488 804T561 710Q630 710 722 784Q856 892 922 1056Q943 1106 947 1139T961 1172T970 1133T950 1038T895 931T817
834T726 754Q627 683 552 683Q450 683 417 770Q406 798 406 845T432 958T505 1087T613 1209T745 1312Q898 1410 1035 1410Z" />
<glyph unicode="4" glyph-name="four" horiz-adv-x="1577" d="M1127 446Q1073 446 1025 453Q834 181 768 64T673 -115L537 -43Q571 12 614 75Q740 250 803 330L921 477Q735 533 668 556T547 595Q410 502 299 494Q267 491 217 491T124 511T80 560T101 607T157 638Q221
659 317 659T505 640Q558 686 614 744Q766 907 831 988L948 1136Q998 1204 1042 1268L1119 1386Q1161 1391 1195 1396L1258 1405Q1323 1414 1362 1414T1402 1402Q1402 1394 1371 1382T1322 1358T1285 1330T1244 1292L1190 1239Q1172 1221 1136 1181L950 974Q789
803 726 743T612 643L584 621Q727 583 800 562L955 518L1094 676Q1323 923 1455 991L1478 1002Q1492 1008 1501 1008T1510 1001Q1510 992 1481 972T1403 904T1297 794T1178 654L1055 494Q1116 480 1171 480T1264 484T1337 496Q1437 519 1491 563Q1508 577 1518
577T1528 571T1519 556L1496 536Q1384 446 1127 446ZM144 557Q144 516 251 516Q347 516 448 594L475 615Q388 635 310 635T188 613T144 557Z" />
<glyph unicode="5" glyph-name="five" horiz-adv-x="1231" d="M498 789Q579 836 670 836T822 815T923 752Q1008 666 1002 507Q994 312 850 118Q710 -72 496 -192Q269 -317 42 -317Q-123 -317 -225 -258Q-296 -213 -296 -165Q-296 -151 -288 -143T-268 -135Q-250
-135 -243 -152Q-230 -183 -215 -204Q-158 -288 48 -288Q253 -288 450 -140Q629 -7 748 200Q865 403 865 581Q865 747 746 784Q708 795 657 795T551 778T446 730Q342 667 285 575Q267 547 259 549Q243 553 246 564T262 595T296 640Q341 692 390 730Q665 1221 748
1396L831 1400Q829 1397 824 1387L814 1363Q807 1349 798 1332L780 1297Q902 1410 1026 1410Q1068 1410 1129 1390T1223 1370T1280 1373T1325 1386Q1381 1411 1421 1476Q1425 1483 1428 1491T1441 1500Q1450 1500 1450 1493Q1450 1478 1435 1449T1387 1382T1310
1315Q1216 1255 1099 1255Q1049 1255 1005 1268Q918 1295 885 1295T813 1278T747 1231L524 832Q505 800 498 789Z" />
<glyph unicode="6" glyph-name="six" horiz-adv-x="1400" d="M588 461T588 496T606 584T654 684T724 775T812 850Q913 917 1010 917T1155 863T1201 711T1166 521T1078 350T953 205T806 92Q645 -5 508 -5Q379 -5 315 93Q256 184 260 341Q266 582 456 866Q576 1047
737 1184Q1000 1410 1245 1410Q1352 1410 1413 1364Q1467 1322 1465 1270Q1465 1220 1443 1193Q1405 1147 1369 1147T1315 1166T1298 1218T1346 1279Q1379 1296 1380 1320T1347 1364T1240 1383T1085 1348T925 1253T778 1111T648 937T538 747T453 555Q379 356 377
243T405 77T490 24T592 40T692 97Q802 180 933 366Q1045 528 1084 684Q1097 733 1098 776Q1099 891 1007 891Q953 891 889 847T785 764T709 680Q631 580 616 488Q611 461 600 461Z" />
<glyph unicode="7" glyph-name="seven" horiz-adv-x="1187" d="M675 -520Q686 -531 686 -538T678 -545Q671 -545 642 -528T576 -471T508 -372Q439 -241 439 -97T485 191T621 491Q805 810 1154 1147L1264 1251Q1168 1192 1065 1192Q1000 1192 965 1213T908 1248L871
1272Q821 1305 783 1305T718 1304T662 1292Q592 1268 545 1202Q423 1000 342 926Q319 905 308 905T296 912Q296 920 321 946T381 1016T448 1115Q527 1247 543 1366Q545 1386 548 1395T563 1404Q581 1404 581 1382Q581 1337 561 1267Q679 1410 846 1410Q931 1410
1009 1360L1061 1325Q1126 1281 1205 1281Q1265 1281 1297 1301T1352 1342L1404 1389Q1426 1406 1445 1406T1465 1390Q1465 1381 1458 1375T1436 1358T1399 1329L1272 1216L1186 1134Q711 665 592 197Q555 49 555 -54T563 -220T586 -334Q619 -464 675 -520Z" />
<glyph unicode="8" glyph-name="eight" horiz-adv-x="1310" d="M677 791Q585 953 585 1059Q585 1190 703 1296Q829 1410 1004 1410Q1140 1410 1211 1342Q1273 1283 1273 1203T1241 1057T1152 935Q1035 817 865 770L868 767L922 682Q1024 518 1024 393Q1024 229
876 110Q733 -5 555 -5Q379 -5 289 85Q207 167 207 301Q207 455 345 592Q475 720 677 791ZM850 793Q989 830 1094 948Q1203 1070 1203 1198Q1203 1323 1100 1367Q1062 1383 1014 1383T915 1366T822 1313Q723 1231 723 1108Q723 984 850 793ZM307 326Q307 253 327
196T383 100Q455 23 576 23Q690 23 782 111Q880 206 880 337Q880 410 861 459Q829 542 783 616L692 765Q521 707 414 588Q307 468 307 326Z" />
<glyph unicode="9" glyph-name="nine" horiz-adv-x="1361" d="M1141 830Q914 569 719 569Q591 569 516 645Q437 725 453 856Q467 995 552 1128Q676 1321 882 1387Q948 1408 1024 1408T1161 1382T1260 1306Q1374 1158 1287 844Q1204 545 996 308Q852 142 678 56Q560
-2 427 -2Q303 -2 222 58Q146 114 146 185Q148 222 170 246T219 270T258 265T278 250Q293 233 293 216Q293 195 280 175T266 134T279 94T318 60Q371 24 453 24T636 81T828 243Q1016 458 1141 830ZM772 593T829 618T942 687T1046 788T1132 910Q1213 1052 1215 1173Q1221
1340 1118 1368Q1083 1378 1033 1378T927 1348T816 1267T714 1152T630 1018Q488 745 589 639Q633 593 702 593Z" />
<glyph unicode=":" glyph-name="colon" horiz-adv-x="726" d="M128 486T107 477T59 468T12 488T-8 536T1 582T27 618Q63 652 104 652Q183 652 183 578Q183 536 156 511ZM-69 206T-50 186T-31 138T-41 91T-69 56Q-106 22 -144 22T-202 42T-222 90T-213 136T-187
172Q-151 206 -110 206Z" />
<glyph unicode=";" glyph-name="semicolon" horiz-adv-x="726" d="M128 486T107 477T59 468T12 488T-8 536T1 582T27 618Q63 652 104 652Q183 652 183 578Q183 536 156 511ZM-94 206Q-30 206 -30 129Q-30 10 -196 -119Q-256 -165 -294 -177T-347 -189T-361 -177Q-361
-166 -337 -159T-284 -132T-229 -86Q-171 -30 -171 -5Q-171 32 -178 54Q-190 89 -190 109T-183 145T-164 174Q-134 206 -94 206Z" />
<glyph unicode="&lt;" glyph-name="less" horiz-adv-x="902" d="M699 752Q705 729 725 702L262 492L653 290L630 270Q618 258 610 250L145 494L699 752Z" />
<glyph unicode="=" glyph-name="equal" horiz-adv-x="1015" d="M919 660Q895 629 890 603H285Q301 620 307 633T321 660H919ZM172 401Q181 411 207 457H804Q784 426 775 401H172Z" />
<glyph unicode="&gt;" glyph-name="greater" horiz-adv-x="943" d="M523 154Q517 177 497 204L959 414L569 616L592 636Q604 648 612 656L1077 412L523 154Z" />
<glyph unicode="?" glyph-name="question" horiz-adv-x="872" d="M417 337T407 322T383 307T369 322T381 353T426 410Q528 535 568 580Q669 691 734 755T840 867T906 958Q955 1038 955 1114T920 1225T840 1260T768 1252T716 1231Q673 1207 648 1169Q617 1122 615
1075Q610 985 543 985Q520 985 506 1001T492 1045T521 1114T600 1194Q719 1285 850 1285Q937 1285 1006 1235Q1080 1181 1080 1099Q1080 1027 1042 973Q973 875 783 724Q627 602 495 448Q426 368 422 353ZM198 -2T181 16T163 56T171 95T193 125Q224 154 259 154Q327
154 327 91Q327 35 262 6Q244 -2 221 -2Z" />
<glyph unicode="@" glyph-name="at" horiz-adv-x="1439" d="M1115 193L1116 176Q1116 72 1018 -38Q862 -210 608 -270Q523 -290 427 -290T255 -260T130 -182Q36 -87 36 54Q36 219 150 394Q338 679 672 778Q787 812 890 812T1056 789T1164 727Q1256 646 1256 531Q1256
352 1115 193ZM1103 239Q1199 373 1199 516Q1199 708 1032 770Q976 790 880 790T679 755T484 660T324 525T202 366Q99 199 99 54Q99 -77 182 -164Q277 -263 442 -263Q680 -263 880 -126Q1003 -41 1056 61Q1083 112 1085 162Q917 -2 738 -2Q681 -2 654 16T626 56T628
88T640 116Q658 149 710 210L705 213Q605 98 526 48T400 -2T327 26T301 105Q301 223 396 329Q574 534 777 534Q819 534 842 516T865 475T858 431L898 476Q916 496 931 515Q947 511 976 511Q1029 511 1051 513L791 202Q720 117 712 93T703 59Q703 27 751 27T840
40T923 77Q1011 128 1081 211Q1063 270 1007 298Q996 304 996 313T1008 323Q1026 323 1058 298Q1089 269 1103 239ZM840 470Q840 508 791 508Q719 508 582 381Q534 337 480 272Q373 146 373 65Q373 22 408 22T480 44T562 106Q642 175 723 275L784 347Q840 424 840
470Z" />
<glyph unicode="A" glyph-name="A" horiz-adv-x="1516" d="M750 199Q608 199 486 237Q346 121 276 76Q146 -5 11 -5Q-143 -5 -188 84Q-201 111 -201 137T-192 179T-170 204Q-143 223 -107 223Q-57 223 -57 178Q-57 158 -73 144T-118 129T-161 139V132Q-161 22
19 22Q144 22 302 132L451 249Q309 302 224 399Q142 491 136 602Q130 711 208 788Q290 869 430 869Q625 869 758 702Q798 651 826 593Q1147 901 1246 989L1410 1131Q1742 1404 1899 1404Q1917 1404 1917 1398Q1917 1391 1901 1385T1864 1359T1806 1292L1708 1167L1031
267Q1310 350 1466 564Q1516 632 1533 678Q1556 739 1561 739Q1564 739 1570 731T1576 695T1561 630T1528 558Q1495 501 1419 429Q1266 280 999 225L828 -1L764 3Q732 5 714 5T682 3L654 -1L802 182Q805 187 808 191T813 201Q781 199 750 199ZM840 562Q881 457
881 382T869 264L1240 713Q1607 1140 1695 1233T1825 1366L1758 1338Q1623 1279 1372 1062L1162 872L840 562ZM475 269Q670 443 803 572Q720 761 550 820Q493 839 439 839T342 820T267 768Q198 699 198 604Q198 437 354 329Q406 293 475 269ZM510 258Q620 227 756
227Q791 227 826 230Q849 289 849 344Q849 446 816 539Q591 327 510 258Z" />
<glyph unicode="B" glyph-name="B" horiz-adv-x="1599" d="M1059 687T1088 692T1168 698T1272 671Q1499 782 1582 994Q1612 1069 1612 1146T1570 1277Q1547 1264 1524 1248L1476 1214Q1346 1116 1256 1020Q1104 859 934 630T587 249T250 32Q163 -2 30 -2Q-57 -2
-120 40Q-182 82 -182 142Q-182 205 -120 222Q-104 226 -88 226T-56 216T-39 183T-55 146T-100 131T-143 141V135Q-143 86 -95 55T17 24T119 33T206 70T311 146T450 274L635 468L882 738Q1233 1136 1548 1303Q1433 1418 1168 1418Q859 1418 558 1191Q413 1081 318
958Q222 831 222 738Q222 653 306 629Q330 622 373 622T482 645T616 710T748 810T864 940Q979 1093 1002 1260Q1008 1292 1017 1292T1027 1270Q1027 1086 921 924Q825 778 664 688Q507 600 349 600Q245 600 206 678Q192 704 192 763T231 905T338 1066T501 1212T704
1331Q939 1440 1194 1440T1596 1328Q1746 1400 1846 1400Q1879 1400 1879 1390Q1879 1385 1861 1383T1809 1372Q1710 1351 1622 1305Q1716 1215 1716 1083Q1716 955 1596 826Q1485 707 1320 640Q1400 569 1400 439Q1400 328 1317 224Q1193 68 976 15Q906 -2 846
-2T754 8T703 35Q668 64 668 103T689 183T746 264T833 341T940 406Q1067 469 1186 469Q1207 469 1207 456T1166 443T1069 428T960 387T860 327T778 256Q701 176 701 108Q701 26 838 26Q934 26 1040 98Q1210 212 1272 416Q1292 484 1292 541T1277 623Q1174 588 1104
588T1010 603T986 632T999 657T1036 678ZM1241 657Q1210 675 1169 675T1107 672T1070 664Q1037 655 1037 644Q1037 620 1095 620T1241 657Z" />
<glyph unicode="C" glyph-name="C" horiz-adv-x="1350" d="M1468 1401Q1561 1401 1561 1327Q1561 1217 1391 1080Q1229 951 993 856Q745 758 536 748Q227 407 227 213Q227 59 373 29Q373 299 559 518Q674 653 820 706Q892 733 971 733T1095 695T1139 596T1114
470T1042 337T931 210T785 101Q610 -2 420 -2H411Q407 -2 402 -1Q408 -175 461 -244Q465 -249 465 -252V-257Q465 -262 456 -262Q418 -262 385 -104Q375 -56 373 1Q226 21 176 152Q160 195 160 251Q160 485 373 759Q205 797 159 932Q145 974 145 1022T171 1122T243
1224T354 1318T496 1395Q664 1467 838 1467Q919 1467 919 1450Q919 1442 906 1442L833 1446Q622 1446 411 1304Q275 1213 218 1099Q188 1040 188 994T201 917T240 860Q294 804 391 782Q601 1042 900 1218Q1212 1401 1468 1401ZM1537 1324Q1537 1377 1459 1377Q1315
1377 1046 1192Q784 1014 561 775Q838 805 1187 1002Q1394 1119 1490 1229Q1537 1283 1537 1324ZM402 25Q409 24 416 24H431Q558 24 710 138Q845 240 947 388Q1047 534 1047 628Q1047 670 1025 688T951 706T835 682T711 614T593 508T494 370Q402 206 402 26V25Z"
/>
<glyph unicode="D" glyph-name="D" horiz-adv-x="1733" d="M504 49Q341 -6 146 -6Q12 -6 -24 41Q-34 54 -34 68T-21 98T19 126Q78 154 138 154T225 151T284 142Q340 130 396 114T455 97T462 95Q564 150 663 246T842 431L1015 634L1183 836L1273 935Q1320 985 1380
1042T1523 1154Q1389 1360 1054 1360Q867 1360 680 1256Q511 1161 400 1017Q291 875 291 757Q291 685 340 641T461 597T598 621T734 686T872 784T994 904Q1113 1045 1122 1173Q1125 1196 1133 1196Q1145 1196 1145 1175Q1145 1032 1048 890Q900 671 646 594Q564
569 498 569T388 584T310 627Q233 689 233 771T262 928T344 1069T471 1193T636 1294Q829 1384 1048 1384Q1396 1384 1560 1178Q1788 1322 1969 1330Q1984 1330 1984 1322T1979 1312T1951 1305Q1775 1284 1594 1128Q1668 1005 1668 861T1635 607T1544 404T1406 235T1230
108Q1030 -2 811 -2Q675 -2 504 49ZM551 67Q678 28 796 28T1010 55T1194 133T1357 256T1487 418Q1604 609 1604 836Q1604 987 1555 1094Q1443 990 1345 849L1162 592Q869 192 551 67ZM417 73Q269 111 174 111T37 98T-6 68Q-6 26 163 26Q311 26 417 73Z" />
<glyph unicode="E" glyph-name="E" horiz-adv-x="1127" d="M343 -272T343 -278T331 -285Q290 -285 264 -162Q249 -98 247 -28V1Q113 15 30 88Q-50 158 -52 262Q-56 388 25 504Q145 677 385 734Q463 752 549 752H555Q528 789 516 837Q359 871 261 943T119 1113Q113
1124 113 1137T122 1150T142 1126Q233 922 511 864Q510 869 510 875T510 887Q508 1036 604 1159Q738 1330 977 1384Q1049 1401 1119 1401Q1281 1401 1371 1344T1461 1183Q1461 1106 1405 1039T1254 921Q1047 813 764 813Q676 813 600 823Q610 784 633 748Q731 737
781 709T833 649Q833 617 784 617Q677 617 584 716Q390 695 219 540Q114 443 72 336Q51 281 52 215T103 96T249 27Q265 211 395 356Q528 505 689 505Q752 505 798 464T845 356T804 222T691 104Q536 -2 313 -2L277 -1Q276 -9 276 -16V-31Q276 -133 310 -219Q322
-251 332 -261ZM596 850Q652 842 736 842T900 853T1054 887T1197 941T1314 1014Q1424 1104 1424 1213Q1424 1284 1352 1329Q1277 1376 1182 1376T1018 1352T888 1288T772 1196T680 1087Q596 967 596 864V850ZM655 718Q724 640 796 640Q812 640 812 650T800 670T766
691Q717 714 655 718ZM278 24Q298 22 335 22T428 40T537 87T638 155T722 236Q799 326 799 394Q799 436 768 458T683 480T561 448T432 355Q297 218 278 24Z" />
<glyph unicode="F" glyph-name="F" horiz-adv-x="1293" d="M398 961Q398 852 504 852Q639 852 788 980Q875 1055 908 1115T944 1198Q948 1231 954 1231Q964 1231 964 1196T946 1112T897 1019T824 938T734 872Q633 814 546 814T414 849T369 949T406 1078T514 1200Q664
1325 902 1382Q1043 1414 1263 1414Q1335 1414 1435 1402Q1628 1379 1697 1379T1825 1392T1928 1429Q2015 1475 2063 1557Q2074 1574 2084 1574T2094 1568Q2094 1557 2085 1547Q1924 1290 1571 1290Q1486 1290 1355 1306Q1101 1337 1021 1337T866 1322T721 1279T593
1216T490 1137Q398 1048 398 961ZM1 162T-16 147T-59 132T-103 142V137Q-103 89 -45 57Q11 26 76 26T188 35T287 68T393 134T510 244Q639 384 784 628Q787 634 789 636Q451 561 302 426Q258 387 244 362Q224 328 217 328T210 333Q210 345 217 353Q255 444 418 536Q585
629 809 676Q812 676 814 677Q979 935 1200 1090Q1384 1219 1507 1219Q1530 1219 1530 1212T1522 1204T1472 1190T1365 1136T1234 1034Q1098 909 971 715Q1112 751 1182 776Q1203 790 1216 816Q1256 816 1307 810T1368 801Q1252 748 1156 606Q1125 561 1114 532T1099
500T1090 497Q1078 497 1078 511Q1078 533 1113 609T1173 724Q1133 711 1070 697L942 669Q847 502 729 359T510 140Q323 -1 89 -1Q-1 -1 -70 42Q-143 87 -143 145Q-143 207 -82 224Q-65 228 -49 228T-16 217T1 184Z" />
<glyph unicode="G" glyph-name="G" horiz-adv-x="1133" d="M1200 961Q1224 961 1224 950Q1224 941 1202 931T1148 894T1079 822T994 710L885 548Q532 -3 99 -3Q1 -3 -71 39T-143 141Q-143 204 -82 220Q-65 225 -49 225T-16 215T1 182T-16 145T-60 130T-103 139V133Q-103
58 20 32Q59 23 113 23T230 45T360 118Q497 223 677 462Q744 547 782 591Q879 702 910 736Q621 529 446 529Q372 529 346 548Q299 581 299 645Q299 663 304 698Q266 695 216 695Q108 695 22 743Q-5 756 -5 765T2 774T26 764T68 745T120 728Q169 715 222 715T308
718Q345 874 510 1048Q664 1212 868 1324Q1076 1440 1233 1440Q1299 1440 1326 1419T1354 1347T1309 1228T1180 1089Q1009 941 730 812Q572 742 413 712Q381 650 381 625T385 590T398 572Q419 555 462 555T561 571T686 625Q833 702 1047 868Q1162 961 1200 961ZM1330
1363Q1330 1417 1252 1417Q1078 1417 799 1174Q621 1018 493 841Q454 787 427 739Q565 772 717 850T978 1004T1164 1150Q1330 1297 1330 1363Z" />
<glyph unicode="H" glyph-name="H" horiz-adv-x="1586" d="M-186 150T-203 136T-247 121T-290 130V124Q-290 80 -248 52T-147 24Q-14 24 112 118Q205 187 303 299L490 523Q461 515 434 506L383 490Q101 392 9 250Q4 241 -2 241T-8 246T-6 255T3 276T39 320T100
372Q210 452 312 489T515 555Q576 639 634 712Q782 890 831 943Q831 943 912 1029Q736 920 628 920Q577 920 544 944T510 1006T516 1068T538 1118Q569 1169 648 1231Q699 1271 703 1282T707 1298Q707 1328 676 1347T572 1366Q413 1366 294 1257Q278 1243 268 1243T258
1250Q258 1260 276 1278Q400 1387 576 1387Q660 1387 705 1357T751 1273Q751 1212 726 1174Q683 1106 597 1051Q565 1031 556 1021T547 1000T551 981T567 964Q593 947 632 947T713 959T800 994Q899 1044 979 1115Q1208 1314 1253 1343T1318 1383L1348 1397Q1356
1401 1365 1401T1375 1397T1371 1390T1358 1382T1345 1374T1331 1366L1281 1330Q1186 1252 1096 1139L939 936L798 741L688 602L1075 698L1126 759Q1345 1016 1615 1216Q1879 1410 2004 1410Q2049 1410 2071 1390T2094 1338T2067 1259T1987 1158T1858 1044T1686
927Q1470 797 1226 718Q968 405 879 212Q850 150 850 108T869 45T938 23T1049 55T1166 148Q1290 281 1350 480Q1359 510 1374 510Q1382 510 1385 478T1373 395T1325 292T1250 186T1153 91Q1038 -2 926 -2Q836 -2 806 81Q797 104 797 139T809 230T850 352Q914 493
1050 667Q959 641 858 617L660 568L512 397Q370 241 281 172T128 67Q6 -2 -139 -2Q-218 -2 -274 37Q-329 76 -329 132Q-329 194 -268 210Q-251 215 -236 215Q-186 215 -186 170Q-186 150 -203 136ZM1256 753Q1576 876 1826 1078Q1974 1198 2031 1285Q2059 1328
2059 1355Q2059 1389 2016 1389T1920 1364T1807 1296T1677 1192T1537 1061T1394 912L1256 753Z" />
<glyph unicode="I" glyph-name="I" horiz-adv-x="1110" d="M1177 771T1207 857T1237 1004T1248 1066T1260 994T1230 834T1149 671T1029 534T882 428Q716 337 556 337H533Q284 94 52 22Q-24 -2 -83 -2T-184 9T-254 40Q-311 80 -317 142Q-322 205 -264 227Q-207
249 -184 214Q-165 185 -185 164T-224 140Q-258 136 -276 145V139Q-271 91 -224 58T-106 24T22 41T141 98Q262 175 421 363Q288 425 288 608Q288 794 442 978Q596 1161 844 1272Q1109 1392 1402 1392L1577 1378L1679 1385Q1716 1385 1716 1371Q1716 1354 1681 1352T1616
1350T1560 1351Q1531 1344 1510 1336L1466 1320Q1169 1189 813 673Q691 498 560 365H568Q710 365 866 456Q1025 549 1126 696Q1177 771 1207 857ZM1509 1358Q1457 1366 1392 1366T1240 1346T1063 1289T885 1202T715 1093T565 970T445 838Q336 696 336 583Q336 429
439 384Q543 515 598 592Q863 957 1114 1156Q1323 1322 1509 1358Z" />
<glyph unicode="J" glyph-name="J" horiz-adv-x="1082" d="M743 222T751 226T765 229T772 222Q770 209 739 196Q661 164 632 153L574 132Q544 121 505 109L296 49Q-164 -521 -446 -671Q-578 -741 -697 -741Q-742 -741 -760 -719Q-789 -685 -789 -639T-757 -529T-664
-401T-518 -272T-328 -150Q-110 -27 155 46L376 347Q315 380 275 440T235 594T277 790T396 984T576 1151T804 1284Q1066 1401 1346 1401L1530 1387L1632 1394Q1670 1394 1670 1381Q1670 1359 1578 1359L1513 1360Q1340 1318 1148 1140T756 658L522 340Q658 340
819 456Q972 567 1080 728Q1191 895 1191 1035Q1191 1066 1202 1066T1213 1002T1185 854T1106 691T988 544T842 424Q675 313 511 313H501Q377 149 330 92L450 124Q589 161 666 191ZM1463 1367Q1411 1375 1346 1375T1195 1355T1019 1297T840 1210T670 1100T520 973T399
837Q290 690 290 565Q290 433 394 373L515 545Q770 910 1051 1138Q1281 1325 1463 1367ZM121 1Q-50 -57 -268 -190Q-594 -387 -717 -560Q-757 -616 -757 -649T-740 -699T-694 -716Q-424 -716 121 1Z" />
<glyph unicode="K" glyph-name="K" horiz-adv-x="1693" d="M985 1321Q985 1383 876 1383Q700 1383 555 1244Q473 1164 440 1095T400 1000Q390 962 384 962Q373 962 373 974V988Q373 1004 396 1056T449 1154T521 1246T617 1328Q739 1411 883 1411Q991 1411 1030
1350Q1042 1332 1042 1296T1009 1205T894 1099L850 1070Q834 1060 834 1044Q834 1011 889 1011Q1089 1011 1377 1255Q1617 1446 1679 1446Q1693 1446 1693 1438T1678 1425T1631 1404T1555 1354T1451 1265T1316 1125T1145 924L933 651Q688 325 437 152Q212 -2 25
-2Q-116 -2 -160 80Q-174 104 -174 129T-165 171T-142 196Q-116 215 -91 215Q-31 215 -31 170Q-31 150 -48 136T-92 121T-135 130V124Q-135 80 -93 52T15 24T149 50T300 139Q475 270 689 560Q769 668 877 778L1066 962L1229 1115Q1030 983 889 983Q789 983 789
1064Q789 1160 938 1267Q985 1299 985 1321ZM1518 521Q1530 521 1530 479T1508 381T1448 270T1361 163T1257 72Q1139 -14 1043 -14Q907 -14 907 90Q907 164 951 237Q1034 374 1203 540Q1253 587 1269 656Q1273 673 1273 684T1270 704Q1210 685 1159 684T1077 698T1047
733T1072 766T1144 782Q1239 785 1283 741Q1390 794 1556 983Q1751 1195 1960 1308Q2150 1412 2294 1412Q2369 1412 2406 1375T2433 1281Q2421 1212 2366 1188Q2350 1181 2328 1181T2293 1199T2284 1238T2308 1275T2354 1292T2397 1277Q2408 1326 2388 1348Q2349
1389 2299 1389T2207 1376T2112 1331Q2025 1277 1837 1102Q1529 798 1303 715Q1321 679 1321 638T1311 550T1272 450Q1209 332 1053 193Q960 110 960 67Q960 41 980 28T1043 14T1127 29T1212 73T1300 143T1384 238Q1470 354 1504 490Q1512 521 1518 521ZM1128 759T1112
751T1096 735T1113 719T1161 712Q1215 714 1254 729Q1216 765 1151 760Q1128 759 1112 751Z" />
<glyph unicode="L" glyph-name="L" horiz-adv-x="1347" d="M286 67Q128 -2 -60 -2Q-220 -2 -267 50Q-280 65 -280 84T-264 122T-218 154Q-158 182 -43 182T271 112Q413 205 619 486Q415 492 286 576Q160 659 160 790Q160 921 280 1032Q402 1145 553 1145Q575 1145
575 1133Q575 1124 520 1119T408 1083T312 1010Q235 923 235 830T263 681T345 588Q449 517 640 515L776 712Q1024 1082 1232 1244Q1435 1401 1653 1401Q1769 1401 1807 1330Q1819 1307 1819 1267T1793 1169T1719 1049T1606 927T1464 809T1301 701T1124 608Q935
521 769 496Q549 202 332 89Q514 24 767 24Q991 24 1094 127Q1109 142 1113 133Q1120 117 1098 95Q961 -25 777 -25T286 67ZM793 528Q1003 564 1238 700Q1454 824 1601 988Q1752 1155 1752 1286Q1752 1344 1688 1370Q1669 1378 1647 1378Q1329 1378 1026 880L906
692Q849 604 793 528ZM-48 131Q-252 131 -252 81Q-252 47 -149 28Q-116 22 -52 22Q110 22 226 85Q52 131 -48 131Z" />
<glyph unicode="M" glyph-name="M" horiz-adv-x="1750" d="M1140 67Q1140 25 1198 25Q1285 25 1405 96Q1444 119 1474 148Q1479 145 1479 135Q1479 117 1474 112Q1378 33 1242 6Q1206 -2 1163 -2T1090 25T1060 80T1065 130T1086 185Q1154 334 1334 564L1491 756L1656
943L1818 1118L1971 1274L2104 1407Q2074 1386 2040 1359L1965 1296L1746 1097L1387 757Q1107 491 769 96Q692 7 667 7Q660 7 653 16T645 65T671 185T747 365T867 578T1026 817Q1211 1076 1441 1335L1362 1259L1236 1130L1058 941L825 687Q393 213 93 59Q-25 -1
-119 -1T-260 34T-307 127Q-307 169 -284 188Q-249 218 -224 218Q-163 218 -163 172Q-163 152 -180 137T-224 122T-268 133L-269 121Q-269 77 -232 52T-133 26T-13 44T118 105T278 217T475 386T714 620L1003 926Q1260 1207 1441 1368Q1572 1484 1595 1484Q1622
1484 1622 1474Q1622 1468 1610 1457L1582 1433Q1535 1391 1485 1321L1377 1164L1114 758Q748 163 701 65L868 256L1013 418L1151 566L1295 712L1458 872L1655 1060Q2110 1487 2228 1487Q2238 1487 2238 1479Q2238 1471 2212 1454T2138 1394T2016 1271T1864 1094L1706
891L1546 674Q1186 168 1166 132Q1140 85 1140 67Z" />
<glyph unicode="N" glyph-name="N" horiz-adv-x="1432" d="M687 -19T687 -8T693 8Q741 45 780 150Q795 193 813 250L855 388Q974 776 1228 1209L960 878L768 655L649 522Q287 126 84 32Q10 -2 -46 -2T-141 8T-204 38Q-253 75 -253 133Q-253 173 -230 190Q-196
217 -170 217Q-109 217 -109 171Q-109 151 -126 136T-169 121T-213 131V125Q-213 81 -175 53T-72 25T57 53T209 146Q396 284 658 578L935 896Q1276 1304 1319 1368Q1337 1390 1345 1390T1353 1383T1349 1368L1335 1342Q1298 1281 1279 1212T1249 1102T1224 1014L1192
908Q1121 684 1020 491Q1020 491 846 178L1149 538L1282 690L1420 842L1555 986Q1937 1382 2197 1466Q2285 1495 2380 1495T2529 1450T2584 1318Q2586 1223 2488 1106Q2386 986 2232 912Q2196 895 2181 895T2165 902T2203 925T2302 982T2412 1074Q2521 1191 2521
1301Q2521 1380 2479 1423T2356 1467T2181 1432T1976 1320Q1757 1169 1447 830L1214 569L1020 341L757 28Q718 -19 703 -19ZM512 1150Q494 1129 474 1129T439 1141T424 1172T436 1205T470 1219T508 1210T540 1182Q570 1143 570 1084T543 975T472 890Q378 815 255
815Q130 815 49 884Q-41 959 -41 1091Q-41 1233 84 1328Q210 1424 409 1424Q528 1424 589 1406T696 1369T786 1328L888 1281Q966 1249 1015 1249Q1110 1249 1184 1315Q1189 1319 1195 1319T1202 1312Q1202 1304 1188 1288Q1129 1229 1010 1204Q978 1198 951 1198T887
1204T812 1220Q735 1242 673 1278T566 1334T486 1366Q428 1385 356 1385T218 1363T100 1300Q-9 1212 -9 1085Q-9 978 62 909Q134 839 251 839Q362 839 446 904Q539 974 539 1081Q539 1121 512 1150Z" />
<glyph unicode="O" glyph-name="O" horiz-adv-x="1269" d="M1228 925Q1228 1093 1058 1093Q931 1093 793 994Q576 839 498 576Q472 489 472 433T474 353T482 306Q495 248 507 230T522 207T518 197Q503 191 476 248Q442 322 442 412T467 593T536 762T640 907T770
1020Q917 1121 1068 1121Q1155 1121 1212 1068Q1277 1009 1277 907T1238 701T1131 497T971 307T773 148Q542 -2 323 -2Q130 -2 64 167Q41 224 41 309T69 491T149 683T272 868T430 1038T613 1184T814 1299Q1033 1401 1233 1401Q1435 1401 1488 1274Q1504 1236 1504
1204T1500 1148T1490 1101Q1471 1036 1455 1020T1432 1003T1425 1010Q1425 1018 1435 1031Q1459 1063 1467 1114T1476 1197T1462 1263T1416 1322Q1351 1373 1246 1373T1050 1341T866 1253T681 1121T506 958T351 775T226 586Q114 385 114 237Q114 87 238 39Q279
23 352 23T526 63T726 171T916 329T1076 519Q1228 737 1228 925Z" />
<glyph unicode="P" glyph-name="P" horiz-adv-x="1276" d="M744 582Q309 -2 -14 -2Q-171 -2 -214 82Q-226 106 -226 131T-217 173T-194 199Q-169 218 -132 218Q-117 218 -100 207T-82 174T-99 137T-142 122T-186 132V127Q-186 82 -144 54T-43 26T55 34T135 66T224
132T330 240T462 402L629 626Q573 663 573 714Q573 757 612 788Q648 817 683 817T719 807Q719 802 707 799Q660 791 637 763T613 703T646 650L660 669Q824 890 930 998Q1101 1174 1264 1286L1305 1313Q1189 1384 948 1384Q706 1384 478 1290Q270 1205 139 1065Q10
928 14 795Q16 720 62 681Q100 649 155 649T271 681T390 763T497 876T586 1001Q668 1133 677 1207Q680 1241 689 1241T700 1234T702 1189T687 1086T639 955T558 829T447 723Q311 622 147 622Q86 622 38 668Q-15 719 -17 795T18 948T124 1093T286 1219T488 1318Q716
1406 952 1406T1339 1333Q1460 1400 1520 1400Q1539 1400 1539 1392T1536 1380T1506 1372Q1447 1361 1375 1314Q1536 1219 1536 1054Q1536 932 1442 817Q1351 707 1203 638Q1051 568 890 568Q811 568 744 582ZM763 607Q826 594 882 594T999 609T1118 653T1231 727T1326
830Q1416 958 1416 1119Q1416 1225 1339 1289Q1229 1209 1110 1068T912 815L763 607Z" />
<glyph unicode="Q" glyph-name="Q" horiz-adv-x="1412" d="M1610 -93Q1622 -93 1622 -105Q1622 -126 1537 -174Q1512 -188 1478 -200Q1393 -230 1316 -230T1169 -222T1020 -194Q862 -154 651 -52L455 39Q305 1 188 1T11 10T-86 34Q-157 63 -157 104Q-157 136 -96
164Q-32 193 55 193Q251 193 514 104Q556 122 596 144L678 188Q933 336 1149 608Q1291 786 1351 957Q1381 1043 1381 1121Q1381 1240 1312 1308T1096 1377Q838 1377 561 1088Q384 902 320 742Q300 691 300 659T307 600T334 550Q379 500 471 500Q569 500 704 606Q833
707 936 852Q1043 1003 1069 1135Q1075 1165 1080 1165Q1096 1165 1096 1134Q1096 985 997 828Q902 677 758 580Q607 477 466 477Q360 477 300 541Q242 602 242 684T268 838T348 986Q464 1151 673 1280Q813 1367 1000 1393Q1056 1401 1114 1401T1232 1383T1337
1326Q1434 1240 1434 1073Q1434 755 1182 474Q940 205 585 78Q646 53 721 18T904 -63T1095 -137Q1252 -190 1334 -190Q1478 -190 1560 -130L1597 -99Q1601 -97 1603 -95T1610 -93ZM401 63Q170 165 44 165Q-27 165 -59 150T-91 113Q-91 50 53 32Q97 26 158 26Q280
26 401 63Z" />
<glyph unicode="R" glyph-name="R" horiz-adv-x="1506" d="M809 648T829 659T906 671T1008 646Q1146 704 1256 854Q1365 1003 1361 1126Q1358 1206 1298 1263Q1052 1097 790 716Q384 148 83 34Q-10 -2 -77 -2T-185 8T-252 38Q-303 75 -303 135Q-303 197 -242 214Q-225
218 -209 218T-177 207T-160 174T-176 137T-220 122T-263 133V127Q-263 82 -221 54T-120 26T-20 35T63 68T154 136T262 249T398 416L571 648Q785 948 1055 1152Q1199 1261 1261 1292Q1140 1373 904 1373Q684 1373 474 1276Q283 1187 164 1048Q46 909 50 784Q52
711 106 670Q148 638 207 638T327 670T446 753T553 868T643 995Q724 1126 733 1203Q736 1237 746 1237T757 1230T759 1184T744 1079T696 946T615 820T504 714Q369 612 204 612Q135 612 78 658Q18 707 16 784T50 940T152 1087T307 1214T497 1314Q710 1401 930 1401T1292
1309Q1440 1384 1509 1384Q1528 1384 1528 1376T1523 1364T1489 1355Q1427 1344 1328 1283Q1444 1189 1450 1042Q1456 914 1343 797Q1228 677 1040 622Q1069 592 1070 551T1066 477T1039 404Q998 326 869 197Q810 148 812 99Q812 26 917 26Q1039 26 1170 155Q1303
288 1368 480Q1377 510 1382 510Q1400 510 1400 467T1378 365T1317 253T1229 153T1124 72Q1008 -2 920 -2T787 32T741 121T754 223T794 310T852 386L914 453Q985 511 994 556Q996 569 996 583Q996 597 990 609Q944 598 900 598T834 609T811 634ZM967 632Q939 648
893 648T847 640Q847 621 888 621T967 632Z" />
<glyph unicode="S" glyph-name="S" horiz-adv-x="1162" d="M27 152T10 137T-33 122T-76 132V127Q-76 84 -26 52Q24 22 96 22T230 47T346 115T448 218T542 344T630 484L739 660Q496 668 346 756Q189 848 199 988Q204 1077 264 1152T420 1284Q625 1401 905 1401Q1020
1401 1075 1374Q1090 1366 1090 1361T1081 1355T1065 1356T1038 1362Q969 1378 898 1378T751 1365T604 1326T474 1265T368 1184Q272 1086 266 969Q259 867 380 786Q519 692 755 685Q1102 1233 1390 1360Q1484 1401 1559 1401Q1707 1401 1701 1277Q1695 1171 1586
1040Q1405 823 1114 718Q1013 681 905 667L790 496Q521 106 272 23Q197 -2 128 -2T17 8T-56 38Q-116 77 -116 135Q-116 197 -54 214Q-38 218 -22 218T10 207T27 174ZM924 695Q1204 742 1426 937Q1559 1054 1616 1172Q1679 1303 1626 1356Q1606 1376 1559 1375T1446
1336T1310 1226Q1175 1091 995 805Q937 716 924 695Z" />
<glyph unicode="T" glyph-name="T" horiz-adv-x="1145" d="M979 1246Q990 1246 990 1206T971 1111T918 1007T841 915T748 841Q642 775 556 775T428 817T385 919T417 1038T508 1152Q639 1275 823 1337Q964 1384 1189 1384Q1332 1384 1465 1355Q1577 1335 1654 1335T1786
1349T1890 1388Q1992 1440 2036 1509Q2046 1526 2056 1526T2066 1514T2031 1459T1937 1378T1806 1312Q1654 1254 1488 1254Q1384 1254 1261 1280Q1070 1319 982 1319T830 1302T707 1255T594 1186T500 1103Q413 1007 413 923Q413 845 483 816Q506 807 541 807T620
828T710 885T798 965T876 1056Q952 1157 967 1221Q973 1246 979 1246ZM-107 183T-123 168T-167 153T-211 163V157Q-211 61 -74 34Q-32 26 29 26T171 53T330 136Q498 253 637 472Q681 541 737 612L860 763Q1016 943 1172 1074Q1307 1187 1344 1187Q1358 1187 1358
1178Q1358 1168 1330 1150T1275 1112T1223 1069T1174 1018T1121 949T1056 854L972 726Q500 -2 8 -2Q-99 -2 -172 42Q-251 90 -251 165Q-251 205 -228 222Q-194 249 -168 249Q-107 249 -107 203Q-107 183 -123 168Z" />
<glyph unicode="U" glyph-name="U" horiz-adv-x="1225" d="M112 -2Q17 -2 13 90Q6 248 282 563Q380 674 502 790T691 977T796 1098Q864 1188 861 1251Q855 1371 660 1371Q434 1371 221 1208Q95 1111 44 1006Q19 955 21 908T51 835T120 809T211 830T313 888T419
974T520 1077Q622 1193 668 1298Q682 1328 688 1328T696 1310Q699 1262 658 1173T558 1012T430 887Q290 779 148 779Q75 779 35 810T-8 897T16 1009T91 1123T207 1229T352 1318Q522 1401 685 1401Q776 1401 832 1364Q1074 1203 384 488Q156 251 119 204T69 135Q27
68 64 36Q79 23 119 23T234 52T398 142Q608 281 788 505Q807 530 842 572L1281 1090L1420 1249H1565Q1560 1242 1536 1213L1093 699Q978 570 894 481T733 279T659 90Q663 24 741 24Q832 24 962 124Q999 152 1027 181Q1039 174 1035 161T1029 145Q920 49 812 12Q770
-2 730 -2T655 22T618 105Q614 203 688 322Q395 72 202 14Q148 -2 112 -2Z" />
<glyph unicode="V" glyph-name="V" horiz-adv-x="1048" d="M1632 1453Q1632 1287 1266 968Q1297 873 1376 844Q1398 836 1418 836T1450 840Q1468 847 1478 847T1488 839T1474 824Q1449 813 1402 813T1306 848T1233 940Q813 579 -98 -6Q-157 -43 -173 -43T-190
-34T-180 -20T-160 -11T-127 9T-61 74T32 194T141 358Q334 664 375 727L466 856Q562 987 647 1081Q452 942 329 942Q254 942 224 995Q196 1046 236 1112Q259 1151 291 1184L341 1238Q412 1315 411 1341T399 1380T372 1400Q341 1415 276 1415Q152 1415 26 1311Q8
1295 -1 1295T-10 1305Q-11 1320 14 1339T73 1377T142 1408Q221 1436 277 1436T366 1429T424 1408Q541 1339 411 1162Q390 1134 366 1110L327 1069Q283 1022 283 1003Q283 968 322 968T407 980T516 1026Q656 1102 844 1277L870 1300Q938 1357 954 1357T971 1347Q972
1339 964 1335T946 1324Q881 1282 854 1243T810 1176Q478 563 157 234L22 102L194 220L390 362L601 520L815 686Q1103 920 1213 1018Q1212 1025 1212 1031V1044Q1212 1219 1327 1378Q1396 1474 1478 1514Q1518 1534 1553 1534Q1632 1534 1632 1453ZM1252 1053L1392
1184Q1597 1387 1597 1465Q1597 1486 1583 1497T1556 1509Q1505 1509 1451 1472T1353 1373Q1252 1231 1252 1064V1053Z" />
<glyph unicode="W" glyph-name="W" horiz-adv-x="1244" d="M1075 1436T1099 1436T1124 1428T1116 1415T1096 1404L1069 1386Q1052 1374 1029 1350Q974 1291 949 1261Q876 1170 832 1110L609 803Q355 449 84 198L-91 43L-14 88Q72 140 146 200L288 318L440 458L872
876Q1121 1105 1206 1176Q1366 1307 1409 1338Q1555 1446 1571 1446T1588 1432Q1588 1423 1568 1413L1531 1393Q1442 1348 1379 1252T1261 1061L1146 864L1023 662Q960 562 922 510L676 190L911 433L1127 646L1451 955Q1812 1297 2044 1380Q2128 1410 2216 1410T2363
1375T2422 1271Q2422 1187 2346 1130Q2275 1076 2169 1076Q2110 1076 2068 1096Q1992 1134 1992 1166T2017 1198Q2031 1198 2035 1192T2043 1166T2062 1133T2096 1112Q2131 1096 2164 1096T2232 1107T2298 1140Q2368 1190 2368 1269Q2368 1327 2314 1356Q2270 1379
2211 1379T2105 1369T2005 1335T1886 1270T1744 1170Q1583 1048 1440 909L1082 562L910 392L697 171Q549 17 432 -31Q403 -43 391 -43Q372 -43 372 -27Q372 -15 399 -6T444 11T480 33T514 67T553 120T602 201Q753 465 805 548Q923 729 954 772L1326 1236L1205 1144Q1139
1093 1080 1036L604 571L356 341Q86 97 -106 9L-144 -8Q-217 -43 -240 -43T-263 -28Q-263 -16 -218 -3Q-167 3 -126 42Q-55 109 22 221L212 494L294 603Q420 764 477 829Q613 980 687 1054Q1016 1379 1045 1407ZM-567 881Q-581 881 -581 897Q-581 951 -524 1040Q-463
1134 -354 1208Q-178 1328 13 1328Q149 1328 325 1267L408 1238Q508 1204 564 1204T656 1211T732 1234Q822 1267 873 1309T931 1352T938 1346Q938 1337 902 1305T814 1239T709 1184Q614 1147 539 1147T426 1151T350 1162Q287 1175 217 1198T119 1228T66 1240Q17
1249 -41 1249T-162 1235T-284 1193Q-457 1113 -527 976Q-546 938 -546 916Q-546 881 -567 881Z" />
<glyph unicode="X" glyph-name="X" horiz-adv-x="1586" d="M920 -2Q589 -2 708 382Q737 474 778 548Q568 292 327 138Q107 -2 -42 -2Q-136 -2 -200 42Q-268 90 -266 165Q-264 206 -242 223Q-207 249 -181 249Q-120 249 -122 203Q-122 183 -139 168T-184 153T-226
163V157Q-229 61 -111 34Q-76 26 -30 26T84 49T229 115T388 218T550 353Q718 510 837 691Q964 934 1020 1123Q1071 1295 994 1366Q947 1410 869 1410T719 1383T581 1311T454 1208T349 1090Q251 958 249 862Q245 772 339 772Q470 772 618 920Q774 1076 873 1319Q881
1335 888 1335Q901 1335 902 1295T880 1196T815 1075T718 955T598 850Q458 748 337 748T218 862Q220 966 326 1104Q492 1322 715 1408Q788 1436 851 1436T962 1423T1045 1376Q1163 1262 1084 960Q1060 870 1020 784Q1438 1256 1762 1382Q1868 1424 1938 1424Q2067
1424 2065 1342Q2063 1311 2047 1296T2010 1280T1978 1298T1967 1342T1996 1387Q1972 1393 1963 1393Q1648 1393 1149 885L1059 786Q1039 763 1020 738L979 683Q857 481 800 274Q755 112 828 52Q894 -4 1032 40Q1149 77 1259 171Q1375 270 1426 402Q1453 469 1455
549T1424 670T1346 711T1271 695T1214 650Q1161 590 1159 514Q1157 454 1196 427Q1214 413 1207 401T1192 389T1168 395T1135 430T1117 508T1137 599T1188 670Q1256 736 1333 736T1452 689T1492 562T1464 414T1393 284T1292 170T1172 79Q1038 -2 920 -2Z" />
<glyph unicode="Y" glyph-name="Y" horiz-adv-x="1195" d="M90 734Q-28 734 -28 852Q-28 961 87 1093Q263 1296 530 1376Q616 1401 683 1401T794 1393T873 1367Q946 1328 946 1253Q946 1166 900 1091Q815 952 644 795L535 684Q381 523 381 445Q381 416 397 395T441
374T503 385T583 423T693 498T836 617Q1007 770 1235 1024Q1383 1191 1507 1240Q1540 1253 1558 1253T1577 1241Q1577 1232 1561 1229L1532 1219Q1407 1170 1275 1005T1015 600T765 208T512 -49Q246 -264 7 -264Q-176 -264 -242 -163Q-263 -131 -263 -100T-255
-51T-233 -20Q-206 5 -173 5Q-158 5 -141 -6T-123 -39T-140 -76T-181 -91T-220 -85Q-223 -96 -223 -114T-205 -157T-156 -199Q-87 -238 -2 -238T166 -202T342 -94Q539 60 728 336L883 562L1034 768Q632 350 445 350Q367 350 346 418Q340 437 340 470T365 564T433
695Q519 832 628 943L784 1104Q875 1199 885 1224T895 1264Q895 1373 699 1373Q551 1373 380 1283Q223 1200 113 1079Q1 956 1 861Q1 776 92 776Q186 776 319 888Q420 973 494 1069Q615 1226 627 1270Q635 1284 637 1284Q645 1284 649 1252T628 1163T558 1046T453
930T330 830Q189 734 90 734Z" />
<glyph unicode="Z" glyph-name="Z" horiz-adv-x="1623" d="M501 90Q336 -2 177 -2Q67 -2 12 26T-42 83T-24 131T25 164Q97 197 209 197T487 156Q634 282 880 619Q1030 825 1142 943Q1342 1155 1542 1299Q1403 1232 1308 1232T1152 1246T1032 1278Q772 1354 627
1285Q496 1223 429 1098Q358 966 421 888Q452 849 498 849T586 869T664 923T732 997T786 1080Q834 1164 841 1224Q843 1239 852 1239Q855 1239 862 1226T872 1180T863 1100T826 1012T766 937T690 878Q602 825 513 825Q442 825 400 876Q326 967 411 1127Q497 1288
684 1364Q776 1401 861 1401T999 1394T1095 1375T1179 1351T1259 1327Q1354 1301 1410 1301T1498 1308T1559 1328Q1617 1352 1643 1377Q1677 1409 1693 1409T1709 1399T1695 1378T1673 1364T1659 1356Q1636 1341 1613 1326T1535 1254T1416 1123Q1281 963 1142 753Q858
323 571 133L759 80Q941 30 1119 52Q1298 73 1372 172Q1409 221 1409 292Q1409 372 1344 414Q1321 429 1290 435Q1288 412 1271 397T1232 378T1190 381T1165 404T1163 429T1174 446Q1200 472 1241 472T1318 459T1382 421Q1438 370 1438 292T1404 150T1312 42Q1191
-47 1005 -47Q895 -47 791 -14T624 43L501 90ZM435 114Q288 163 186 163Q61 163 8 123Q-27 96 -2 66Q35 22 180 22Q310 22 435 114Z" />
<glyph unicode="[" glyph-name="bracketleft" horiz-adv-x="1412" d="M602 -179Q598 -184 589 -206H184L1112 1144L1282 1401H1675Q1664 1387 1659 1374H1411L1256 1163L1006 804L535 106L355 -179H602Z" />
<glyph unicode="\" glyph-name="backslash" horiz-adv-x="869" d="M708 -106Q680 -104 668 -104T646 -106L-316 1378L-278 1376Q-268 1376 -254 1382L708 -106Z" />
<glyph unicode="]" glyph-name="bracketright" horiz-adv-x="1412" d="M451 -203Q462 -189 467 -176H714L868 35L1120 394L1590 1092L1771 1377H1524Q1528 1382 1537 1404H1942L1014 54L844 -203H451Z" />
<glyph unicode="^" glyph-name="asciicircum" horiz-adv-x="1101" d="M356 950Q347 957 339 962L637 1384L935 962Q918 950 903 935L637 1308L373 935L356 950Z" />
<glyph unicode="_" glyph-name="underscore" horiz-adv-x="1106" d="M1151 -106V-149H-314L-317 -105L1151 -106Z" />
<glyph unicode="`" glyph-name="grave" horiz-adv-x="612" d="M6 1149T49 1149T102 1086Q118 976 143 936Q187 866 268 820Q280 811 286 808T292 796T282 788T261 794L231 811Q138 867 71 954Q6 1038 6 1093Z" />
<glyph unicode="a" glyph-name="a" horiz-adv-x="899" d="M399 -2Q299 -2 299 60Q299 111 357 188L420 268L410 272Q242 65 93 12Q52 -2 22 -2Q-101 -2 -101 129Q-101 283 22 423Q204 635 388 674Q443 685 482 685T543 680T583 664Q619 641 619 608T607 544L705
665Q732 657 755 657Q814 657 840 661L503 255Q383 115 383 58Q383 26 421 26T508 49T607 108T702 188T788 274T858 352L906 406L927 389L876 331Q588 -2 399 -2ZM122 358Q-19 187 -19 78Q-19 28 26 28Q172 28 447 351L531 452Q591 543 591 584Q591 654 521 654Q426
654 248 492Q187 436 122 358Z" />
<glyph unicode="b" glyph-name="b" horiz-adv-x="797" d="M473 256Q447 222 409 185Q277 36 113 0Q68 -10 34 -10T-25 0T-65 28Q-96 62 -96 114T-79 220T-30 336T48 471L149 628L242 760Q296 832 360 910L493 1067Q825 1447 1040 1551Q1097 1579 1142 1579Q1215
1579 1215 1525T1188 1405T1109 1269T982 1123T812 977Q610 826 358 727Q135 454 66 343T-22 182T-41 100Q-41 15 34 15Q196 15 334 160Q381 208 418 274Q469 337 484 461Q487 486 487 492L475 579Q481 655 537 655Q606 655 592 536Q586 483 558 411T501 294Q499
287 499 280T500 264Q500 214 556 211Q611 211 700 292Q759 346 804 406L825 389Q808 371 779 337T712 270Q622 186 551 186T473 256ZM1181 1520Q1181 1558 1142 1558Q1059 1558 868 1342L748 1200L391 767Q587 843 784 1000Q955 1138 1070 1292Q1181 1441 1181
1520Z" />
<glyph unicode="c" glyph-name="c" horiz-adv-x="665" d="M516 601Q514 659 443 659Q298 659 68 357Q-27 231 -27 129Q-27 85 -3 62Q39 23 104 23T243 50T380 118T495 207T585 298T645 371T671 406L693 389L666 353Q478 106 246 22Q168 -6 99 -6T-9 8T-74 46Q-124
95 -124 168Q-124 311 0 459Q97 575 230 637Q338 687 440 685Q530 682 554 624Q578 565 528 516Q495 482 464 482Q392 482 390 541Q389 569 411 587T456 608Q488 610 516 597V601Z" />
<glyph unicode="d" glyph-name="d" horiz-adv-x="872" d="M382 272Q137 -2 -8 -2Q-135 -2 -135 129Q-135 281 -10 423Q215 685 465 685Q540 685 576 639Q587 624 587 611T587 595T586 586L1082 1298L1292 1595Q1329 1579 1361 1579T1419 1582L469 250Q411 172
382 127T352 55T377 28Q474 28 597 118Q710 200 844 364Q869 396 879 406L901 389Q890 378 863 345T795 269T704 178T596 90Q467 -2 369 -2T271 62T390 268L382 272ZM92 356Q-51 182 -51 78Q-51 28 -1 28Q88 28 247 173L329 252Q400 322 445 386L534 513Q557 559
557 592T533 639T483 654T418 637T328 582Q219 504 92 356Z" />
<glyph unicode="e" glyph-name="e" horiz-adv-x="674" d="M323 46T250 20T110 -6T10 7T-47 45Q-141 147 -46 346Q-5 434 78 506T224 615Q346 685 453 685Q559 685 564 619Q571 512 304 386Q206 340 57 291Q-2 195 -2 135T29 49T121 23T252 49T384 115T496 202T584
292T647 366T681 406L702 389Q689 378 663 344T596 267T503 175T387 87ZM80 326Q382 432 469 537Q498 572 498 605Q498 661 446 661Q354 661 216 500Q120 388 80 326Z" />
<glyph unicode="f" glyph-name="f" horiz-adv-x="554" d="M-45 144Q-73 -216 -212 -496Q-302 -678 -414 -750Q-471 -787 -521 -787T-598 -760T-627 -698T-623 -632T-599 -559T-548 -457T-463 -313L-338 -116L-74 284Q-104 331 -115 378T-122 455T-100 505T-59
526T-19 510T-3 474T-8 440T-23 412Q-44 380 -68 368Q-64 346 -51 319L440 1080Q504 1179 589 1286T735 1453Q861 1579 935 1579Q978 1579 999 1554T1022 1476T984 1328T874 1127T711 909T512 692Q290 474 82 342L11 232Q59 191 136 186T284 202T407 258Q479 305
560 405L583 389Q572 379 553 356T506 306T440 250T354 199Q247 149 121 162Q49 170 -4 208L-45 144ZM118 398Q407 595 688 945Q894 1201 957 1388Q996 1504 962 1542Q949 1556 932 1556T892 1543T838 1494Q775 1424 683 1280L118 398ZM-78 94L-415 -422L-495 -554Q-567
-679 -567 -720Q-567 -737 -555 -749T-518 -762T-453 -734T-367 -654T-275 -527T-188 -356Q-100 -144 -78 94Z" />
<glyph unicode="g" glyph-name="g" horiz-adv-x="918" d="M204 -168Q624 44 925 406L945 389Q626 3 166 -214L-12 -427Q-237 -683 -378 -748Q-465 -787 -579 -787Q-642 -787 -670 -744Q-689 -715 -671 -674T-622 -598T-537 -525T-405 -441Q-243 -349 31 -233L434
268L426 272Q243 64 98 13Q55 -2 24 -2Q-97 -2 -101 129Q-101 284 18 423Q233 685 486 685Q552 685 590 663Q652 628 618 544L712 665Q741 657 765 657Q823 657 849 661L204 -168ZM602 594Q600 654 512 654Q418 654 244 490Q185 433 117 348Q-20 178 -18 80Q-16
51 -5 40T32 28T101 44T197 100Q322 189 461 351L539 446Q602 538 602 594ZM-4 -276Q-515 -500 -611 -630Q-645 -677 -645 -720Q-645 -731 -627 -745T-575 -760T-509 -752T-440 -723T-362 -667T-268 -578T-150 -450L-4 -276Z" />
<glyph unicode="h" glyph-name="h" horiz-adv-x="907" d="M-114 19Q-141 24 -174 24Q-231 24 -268 14L839 1595Q906 1585 978 1595L-14 218L-9 207Q67 295 132 363L251 483Q353 582 416 623Q511 685 596 685Q685 685 708 621Q753 497 427 147L388 104Q356 68 356
49Q356 39 378 33T440 26T534 51T639 116T736 202T818 291T880 365T914 406L936 389Q926 378 900 345T835 269T748 177T644 90Q518 -2 415 -2Q333 -2 294 43Q282 57 282 76T287 119T315 182Q366 268 450 362T561 491T604 550Q634 598 634 624Q634 660 587 660Q524
660 442 604Q243 471 -22 141L-114 19Z" />
<glyph unicode="i" glyph-name="i" horiz-adv-x="453" d="M515 891T497 884T456 876T417 893T400 933T408 972T430 1002Q459 1032 493 1032T544 1014T561 973T553 934T530 904ZM-106 26T-47 26T64 53T170 120T274 209L364 299Q404 341 430 371T461 407L481 389Q471
379 444 347T375 271T283 179T176 91Q47 -2 -50 -2Q-112 -2 -149 20T-186 72T-180 124T-158 179T-114 254T-40 357T71 496L225 678Q237 675 274 675H321Q347 675 363 677Q32 282 -9 228T-71 142Q-106 89 -106 58Z" />
<glyph unicode="j" glyph-name="j" horiz-adv-x="382" d="M460 891T442 884T402 876T362 893T345 933T353 972T375 1002Q406 1032 440 1032T490 1014T506 973T498 934T475 904ZM171 677Q181 675 209 675Q244 675 269 675Q313 675 327 677L-179 24L-328 -160Q-71
-36 68 72Q175 155 253 243T390 406L410 389Q228 161 64 38Q-51 -47 -162 -105L-365 -205Q-573 -455 -677 -550T-840 -685T-954 -748Q-1048 -787 -1170 -787Q-1233 -787 -1254 -744Q-1259 -732 -1259 -706T-1225 -632T-1107 -526Q-937 -408 -523 -236L-138 250Q100
563 135 614T171 677ZM-557 -277Q-924 -434 -1072 -532Q-1226 -634 -1226 -720Q-1226 -731 -1213 -745T-1165 -760T-1096 -753T-1023 -728T-939 -676T-838 -589T-713 -458L-557 -277Z" />
<glyph unicode="k" glyph-name="k" horiz-adv-x="861" d="M839 1595Q905 1584 977 1595L154 450Q-80 110 -139 19Q-166 24 -184 24T-213 23T-233 21T-253 17T-268 14L839 1595ZM323 57Q323 26 372 26T477 53T587 122T691 211T780 302Q839 366 869 407L889 389Q885
385 860 355T794 282T701 189T590 96Q457 -2 359 -2Q259 -2 259 105Q259 194 381 313Q430 364 430 382Q430 422 371 442Q312 409 267 409Q192 409 192 440Q192 458 220 472T290 486T370 475Q402 491 420 510Q464 556 501 601T572 676Q649 744 727 744Q775 744 804
719T833 659T811 608T765 592T722 609T704 648Q707 690 745 702Q730 714 707 714T661 706T612 676Q559 635 480 534Q443 492 403 462Q498 418 498 332Q498 262 434 186Q407 154 376 125Q323 77 323 57Z" />
<glyph unicode="l" glyph-name="l" horiz-adv-x="456" d="M-97 59Q-97 26 -49 26T53 51T161 116T265 201T356 290L425 364Q453 396 463 406L483 389Q472 378 443 345T371 269T276 178T166 90Q33 -2 -67 -2Q-109 -2 -136 21T-164 70T-162 113T-151 149T-128 197T-88
264L65 490L838 1595Q910 1585 977 1595Q23 269 -11 219T-61 143T-85 101Q-97 77 -97 59Z" />
<glyph unicode="m" glyph-name="m" horiz-adv-x="1435" d="M35 19Q12 24 -23 24Q-84 24 -117 14L230 510Q295 601 297 618Q301 651 276 651Q239 651 92 468L28 389Q20 385 12 393T7 406Q36 437 72 484T149 576Q247 685 312 685Q422 685 382 572Q374 548 347 510L137
218L142 207Q411 518 537 609Q637 685 722 685Q780 685 814 653Q841 626 840 596T836 551T828 519Q816 486 786 439Q1000 657 1110 680Q1132 685 1158 685T1207 676T1244 653Q1270 627 1270 591T1256 516T1210 426Q1143 319 984 147Q918 78 915 67T912 49L905 48Q905
24 962 24T1066 49T1163 114T1258 201T1343 290L1407 364Q1433 396 1442 406L1463 389Q1453 379 1426 346T1359 268T1270 176T1169 88Q1048 -5 966 -5Q879 -5 843 41Q832 55 832 74T838 118T868 181Q914 259 1002 358T1116 491T1160 550Q1191 599 1191 624Q1191
660 1140 660Q1040 660 794 410Q689 304 560 141L467 19Q444 24 409 24Q352 24 315 14Q463 195 478 214Q703 511 727 550Q760 607 760 629Q760 660 711 660Q646 660 559 590Q376 444 128 141L35 19Z" />
<glyph unicode="n" glyph-name="n" horiz-adv-x="1042" d="M36 19Q9 24 -24 24Q-77 24 -117 14L230 510Q295 601 297 618Q301 651 276 651Q239 651 92 468L28 389Q20 385 12 393T7 406Q36 437 72 484T149 576Q247 685 312 685Q422 685 382 572Q374 548 347 510L137
218L142 207Q394 483 500 572Q601 656 650 670T731 685T785 676T822 653Q848 627 848 591T834 516T788 426Q721 319 562 147Q496 78 493 67T490 49Q490 26 551 26T666 51T771 116T869 201T953 290T1015 364T1049 406L1070 389Q1060 378 1034 345T970 269T883 178T780
90Q654 -2 552 -2Q462 -2 427 43Q416 57 416 76T421 119T448 182Q495 263 581 360T695 491T738 550Q768 598 768 624Q768 660 720 660Q621 660 393 436Q278 324 129 141L36 19Z" />
<glyph unicode="o" glyph-name="o" horiz-adv-x="734" d="M450 161Q413 161 396 191Q277 56 139 12Q93 -2 50 -2T-25 8T-76 36Q-157 106 -92 277Q-67 344 -28 402T61 509T168 598Q297 685 420 685Q473 685 511 658T553 579T547 482T520 392Q484 300 418 218Q425
189 456 189T516 203T573 239T629 287T680 338L718 380Q734 399 741 406L763 389Q750 377 730 355T685 308Q685 308 632 256Q529 161 450 161ZM35 36Q51 28 80 28Q145 28 247 101Q325 157 386 230V234Q386 319 450 362Q467 374 482 379Q530 481 527 546Q521 649
451 649Q333 649 120 383Q-17 211 -9 115Q-9 60 35 36Z" />
<glyph unicode="p" glyph-name="p" horiz-adv-x="858" d="M367 -2Q251 -2 251 97Q251 247 580 488Q694 571 706 608Q709 619 709 629T699 650T654 660Q497 660 167 353Q13 205 -47 139L-153 19Q-195 -36 -246 -109L-450 -414L-602 -654Q-628 -694 -632 -701Q-661
-709 -696 -709T-741 -709T-762 -707Q-781 -705 -799 -700L-288 -6L36 450L430 977Q484 971 511 971Q561 971 581 978L259 584L21 266L28 258Q339 557 487 634Q563 674 600 679T668 685Q763 685 763 602Q763 438 462 227Q327 130 308 94Q302 82 302 71Q302 26 373
26Q545 26 812 344L865 406L887 389L835 329Q556 -2 367 -2Z" />
<glyph unicode="q" glyph-name="q" horiz-adv-x="876" d="M-277 -787Q-344 -787 -344 -715Q-344 -540 -18 -146Q89 -18 229 126Q143 58 72 28T-41 -2Q-163 -2 -163 127Q-163 275 -41 414Q138 621 322 658Q377 670 431 670Q554 670 554 571Q554 535 543 502Q583
551 608 585L658 650Q674 643 702 643Q764 643 790 645Q525 316 469 251L350 115Q357 97 359 69Q364 49 385 37T440 24T520 49T613 114T706 201T788 290L882 406L904 389L870 345Q683 104 532 24Q482 -2 432 -2T351 31Q281 -286 80 -540Q-42 -695 -164 -756Q-225
-787 -277 -787ZM59 347Q-81 176 -81 77Q-81 28 -36 28Q88 28 272 196Q339 256 385 311Q466 407 482 429Q529 493 529 580Q529 623 482 637Q468 641 450 641T391 624T298 570Q177 488 59 347ZM-312 -732Q-312 -765 -277 -765T-188 -732T-74 -640T48 -503T166 -332Q289
-130 329 57Q333 79 329 91L58 -226Q-219 -565 -265 -639T-312 -732Z" />
<glyph unicode="r" glyph-name="r" horiz-adv-x="684" d="M173 32T212 32T299 56T396 117T494 199L581 286Q621 327 650 360L691 406L711 389Q692 372 660 336L588 256Q344 -2 168 -2Q111 -2 77 26T42 101Q42 250 476 541Q264 576 183 612Q117 476 -20 335Q-52
302 -59 299T-69 295T-72 300T-72 310T-68 318Q-21 371 19 420Q112 536 156 626Q120 649 115 675T115 723T133 764Q159 803 193 803Q256 803 256 757Q256 734 247 718L229 687Q211 664 211 634Q211 616 287 600T396 578Q466 565 507 563Q535 562 535 548Q535 539
503 513T431 450T355 373T285 290T227 209Q173 125 173 79Z" />
<glyph unicode="s" glyph-name="s" horiz-adv-x="596" d="M308 184Q320 182 338 182T383 196T436 232T491 280T540 331T580 376L603 406L625 389Q613 377 594 356L552 308Q413 158 332 158H315Q307 158 299 160Q215 -23 -58 -23Q-177 -23 -231 34Q-254 59 -254
98T-236 164T-192 210Q-141 247 -101 247T-60 209Q-63 183 -104 170Q-117 166 -129 166T-153 174T-172 187Q-178 181 -187 173T-206 154Q-228 127 -228 99T-209 53T-164 27Q-125 13 -83 13T5 31T95 91Q216 206 226 432Q232 584 263 670Q264 673 264 679L28 389Q8
365 -1 358T-11 351Q-23 350 -27 357Q-29 362 -18 376Q240 684 272 726Q288 804 324 804Q341 804 352 795T364 772Q363 753 334 719T298 675T289 659T287 646V634Q286 607 292 570L317 404Q339 268 308 184Z" />
<glyph unicode="t" glyph-name="t" horiz-adv-x="433" d="M-100 58Q-100 28 -52 27T44 48T141 104T234 180T318 265T388 344L440 406L462 389L410 329Q131 -2 -59 -2Q-114 -2 -141 20T-169 68T-167 111T-156 148T-133 197T-91 265L65 490L323 853H244Q214 853
214 867T252 882H343L528 1142Q598 1131 667 1142L474 882H732Q760 882 760 868T735 853H452L38 290Q-69 139 -84 104T-100 58Z" />
<glyph unicode="u" glyph-name="u" horiz-adv-x="887" d="M-81 59Q-81 23 -33 23Q34 23 111 74Q277 185 457 406Q457 406 684 679Q732 673 771 673T836 676L738 563L384 132Q349 89 349 62Q349 26 397 26T496 51T599 116T700 201T789 290L894 406L914 389L875
345Q846 312 804 269L711 178Q520 -2 394 -2Q353 -2 327 20T298 81Q296 154 349 246Q119 -2 -41 -2Q-131 -2 -156 62Q-163 80 -164 108T-151 175T-107 259T-36 358L144 576Q186 628 233 679Q272 673 296 673H330Q373 673 385 676Q268 548 221 491L22 252Q-83 130
-81 59Z" />
<glyph unicode="v" glyph-name="v" horiz-adv-x="796" d="M249 679Q297 673 338 673T406 676Q317 596 273 546L139 398Q123 380 97 354L-16 234Q-123 117 -123 77T-108 31T-53 24T51 47T179 109Q297 178 390 260T517 385T567 466Q595 530 595 625Q595 662 618
685T674 709Q730 709 730 654Q730 540 531 347L504 322Q442 238 472 204Q483 193 513 193T587 218T671 277T748 348L803 406L824 389Q619 168 502 168Q453 168 441 197T450 274Q233 92 46 24Q-23 -2 -80 -2T-165 20T-193 75T-186 134T-158 198Q-120 266 -38 369T109
538L249 679Z" />
<glyph unicode="w" glyph-name="w" horiz-adv-x="1162" d="M48 288Q-132 92 -132 46Q-132 26 -110 26T-59 34T6 60Q84 99 176 166Q336 284 438 401L465 434V433Q561 546 700 679Q748 673 776 673Q832 673 853 676L497 296L392 178Q311 81 311 49Q311 26 340 26T427
48T552 110Q750 224 904 410Q968 486 978 534T988 622T1007 690T1058 719Q1124 719 1124 654Q1124 546 925 347Q908 330 887 311L843 273Q811 193 883 193Q984 193 1168 406L1190 389L1127 324Q975 168 874 168Q834 168 817 188T808 244Q604 85 426 20Q367 -2 325
-2Q262 -2 262 63Q262 141 330 253L266 198Q25 -2 -112 -2Q-177 -2 -177 62Q-177 208 76 492Q157 583 261 679Q300 673 324 673H359Q399 673 414 676L160 410L48 288Z" />
<glyph unicode="x" glyph-name="x" horiz-adv-x="905" d="M-108 -2Q-193 -2 -193 51Q-193 68 -175 83T-138 98Q-112 98 -95 86Q-68 66 -36 66T49 92T154 168Q261 267 350 435Q417 532 417 593T370 654Q312 654 262 618Q173 552 28 389Q20 387 13 394T7 406Q167
584 226 625T317 675T393 685T471 649T504 563T486 452Q600 607 739 666Q785 685 820 685T873 678T902 660Q922 641 922 612T903 568T858 553T813 575T792 635Q787 636 782 636H775Q712 636 612 546Q513 456 433 318L399 254Q349 145 349 82Q349 26 407 26T521
53T631 122T735 211T824 302Q883 366 913 407L934 389Q930 385 905 355T838 282T745 189T634 96Q500 -2 402 -2Q304 -2 270 79Q258 108 258 149T282 268Q143 76 -28 14Q-74 -2 -108 -2Z" />
<glyph unicode="y" glyph-name="y" horiz-adv-x="909" d="M-91 70Q-91 24 -32 24T98 54T239 134Q372 227 484 366Q660 567 695 609Q695 609 749 676Q788 669 806 669Q857 669 883 673L535 244L358 7L206 -191Q464 -67 602 56Q692 136 771 232L915 406L936 389L810
240Q698 108 623 43T486 -64Q368 -142 171 -235Q-15 -468 -109 -559T-259 -688T-366 -749Q-454 -787 -575 -787Q-636 -787 -656 -744Q-662 -732 -662 -706T-629 -634T-514 -530Q-352 -416 46 -248L453 268L442 272Q347 170 248 110Q63 -2 -48 -2Q-104 -2 -132 20T-160
75T-154 134T-130 198Q-93 269 11 415Q57 472 122 538L261 679L308 674Q324 673 357 673T418 676Q329 596 285 546L214 466Q-7 221 -35 180Q-91 100 -91 70ZM11 -291Q-492 -506 -594 -633Q-630 -678 -630 -720Q-630 -731 -617 -745T-559 -760T-462 -741T-342 -670Q-221
-574 11 -291Z" />
<glyph unicode="z" glyph-name="z" horiz-adv-x="697" d="M76 8Q170 -2 191 -83Q412 51 602 282L703 406L724 389L615 256Q489 107 387 25T196 -109Q199 -126 199 -169T167 -285T79 -429T-49 -565T-200 -679Q-373 -787 -510 -787Q-557 -787 -577 -763T-597 -696T-548
-590T-408 -454Q-240 -319 96 -131Q99 -110 99 -79T84 -27T50 -7H48Q17 -24 -11 -37T-58 -62T-83 -78T-92 -86Q-98 -92 -104 -92T-121 -86T-132 -75Q-132 -62 -84 -41Q6 -2 56 60Q99 113 143 192L228 345Q266 414 313 477Q204 497 150 571Q56 398 -44 316Q-62 301
-68 301T-75 306L7 406Q74 485 98 530L133 597Q111 641 111 676T118 732T138 768Q165 803 198 803Q260 803 260 764Q260 740 249 726T224 700Q187 666 187 639T196 592T224 552Q265 510 327 495Q414 605 500 656T646 708Q750 708 750 650Q750 599 662 544Q568 484
450 473Q337 194 168 68Q121 33 76 8ZM458 493Q561 507 640 558Q716 606 716 651Q716 666 701 676T660 687T609 677T558 642Q499 591 458 493ZM90 -161L-170 -317Q-420 -473 -516 -592Q-567 -654 -567 -710Q-567 -730 -555 -746T-507 -762T-417 -736T-301 -666T-177
-562T-60 -436Q60 -287 90 -161Z" />
<glyph unicode="{" glyph-name="braceleft" horiz-adv-x="1412" d="M673 656Q712 621 712 574Q712 504 641 360L587 245Q513 82 513 -28Q513 -125 563 -168Q572 -174 572 -185T563 -196Q543 -196 530 -177Q471 -107 453 -63Q423 11 423 65T431 156T453 228T485
301L567 476Q608 568 608 598Q608 649 571 667Q557 672 557 682Q557 692 583 692T631 697T672 716Q706 739 772 837L896 1015Q1009 1171 1070 1230T1172 1319T1248 1366T1322 1396Q1398 1419 1468 1419Q1488 1419 1488 1410T1481 1400T1445 1395T1385 1386T1330
1368Q1246 1331 1184 1243Q1169 1221 1151 1192L1026 992Q977 917 904 823Q859 768 797 722T673 656Z" />
<glyph unicode="|" glyph-name="bar" horiz-adv-x="909" d="M1263 1583Q1267 1579 1282 1579Q1308 1579 1327 1582L2 -423Q-6 -421 -18 -421H-38Q-45 -421 -60 -423L1263 1583Z" />
<glyph unicode="}" glyph-name="braceright" horiz-adv-x="1412" d="M691 -185T654 -191T589 -197T562 -188T569 -178T605 -173T665 -164T720 -146Q804 -109 866 -21Q881 1 899 30Q899 30 1024 230Q1152 427 1252 500Q1315 546 1377 566Q1338 599 1338 646T1356
742T1406 858L1463 977Q1537 1140 1537 1250Q1537 1347 1487 1390Q1478 1396 1478 1407T1487 1418Q1507 1418 1528 1391T1569 1334T1602 1272Q1627 1211 1627 1157T1619 1066T1597 994T1565 921L1483 746Q1442 655 1442 624Q1442 573 1479 555Q1493 550 1493 540Q1493
530 1467 530T1419 525T1378 506Q1347 484 1279 386L1154 207Q1041 51 980 -8T878 -98T802 -145T729 -173Z" />
<glyph unicode="~" glyph-name="asciitilde" horiz-adv-x="1387" d="M807 331Q917 331 982 475L1027 461Q982 339 876 296Q843 283 814 283T763 286T716 297Q668 313 613 346L534 394Q461 438 422 438T358 428T312 399Q268 363 243 300L198 319Q244 434 342 474Q375
488 404 488T454 484T498 469T552 441L621 400Q713 344 749 338T807 331Z" />
<glyph unicode="&#xa0;" glyph-name="nbspace" horiz-adv-x="725" />
<glyph unicode="&#xa1;" glyph-name="exclamdown" horiz-adv-x="807" d="M904 991T886 983T843 975T802 992T786 1032T794 1073T818 1102Q851 1131 882 1131T931 1113T948 1073T940 1034T918 1004ZM182 -150Q139 -143 105 -144T63 -146T44 -146Q23 -148 8 -150Q95
-53 166 34Q332 248 395 338L722 798Q733 814 743 814T754 806Q754 790 730 746L568 466L284 3Q246 -57 223 -90L182 -150Z" />
<glyph unicode="&#xa2;" glyph-name="cent" horiz-adv-x="943" d="M187 22Q171 24 164 24Q155 24 149 22L397 365Q311 405 311 498Q311 631 423 767Q621 999 811 1007Q836 1007 856 1000L1129 1379Q1136 1376 1146 1376Q1159 1376 1167 1378L885 988Q934 958 944
901Q944 820 900 802Q888 797 875 797T849 810T836 841T849 876T879 893T905 891Q910 908 910 922Q910 952 871 969L451 387Q470 376 494 376Q583 376 677 466Q710 497 729 525T751 556T760 560Q771 560 771 552Q771 542 747 506T688 439T617 388Q545 348 498 348T427
355L187 22ZM840 978Q830 980 812 980T752 952T665 879T574 778T493 664Q412 536 412 470Q412 432 428 409L840 978Z" />
<glyph unicode="&#xa3;" glyph-name="sterling" horiz-adv-x="1720" d="M514 85Q350 -2 163 -2Q79 -2 42 20Q-19 58 -19 96Q-19 137 40 168Q106 204 212 204Q310 204 380 185T513 144Q636 250 828 526H641Q646 530 667 555H848L943 694Q979 748 1016 798Q1016
798 1088 893Q867 905 739 973Q618 1038 618 1137Q618 1270 805 1371Q928 1435 1036 1435Q1058 1435 1058 1427Q1058 1419 1010 1414T900 1386T790 1330Q682 1255 682 1153Q682 1055 787 992Q898 925 1106 915Q1305 1158 1513 1290Q1700 1409 1851 1409Q1925 1409
1961 1383T1997 1308T1971 1210T1897 1115T1780 1031T1625 962Q1447 900 1223 892L1098 696L1001 555H1373Q1364 544 1361 526H980Q775 249 575 121Q848 19 1078 19Q1207 19 1269 38Q1373 69 1458 139Q1468 139 1468 131Q1468 118 1455 102T1404 59T1316 7Q1197
-50 1073 -50Q817 -50 518 84L514 85ZM1238 915Q1536 929 1736 1048Q1827 1102 1877 1170T1927 1310Q1927 1359 1881 1379Q1865 1386 1817 1386T1691 1353T1536 1258Q1381 1134 1238 915ZM17 98Q17 54 109 34Q142 27 205 27Q352 27 466 107Q348 160 289 164T168
169T61 148T17 98Z" />
<glyph unicode="&#xa4;" glyph-name="currency" horiz-adv-x="1108" d="M590 138Q495 80 400 80T251 133L85 8Q83 16 75 21T62 31L232 156Q206 194 206 241T220 329T259 406Q312 483 389 531L312 649Q322 653 326 658T339 669L416 546Q504 593 591 593T731 543L904
673Q906 665 914 659T927 648L750 518Q773 481 773 437T762 354T729 279Q687 207 614 155L695 34Q694 33 668 15L590 138ZM314 421T287 367T259 250T298 150T400 112T521 136T626 202Q728 295 728 410Q728 482 688 521T583 560T461 534T359 464Z" />
<glyph unicode="&#xa5;" glyph-name="yen" horiz-adv-x="1418" d="M135 263Q177 263 177 220Q177 204 161 189T114 170Q113 166 113 162V156Q113 64 244 30Q286 19 335 19T435 33T538 80Q654 149 758 285H554Q575 301 578 312H778L806 354Q821 375 835 398H611Q632
416 636 426H853Q927 542 1008 643L1160 829Q934 605 788 562Q741 548 705 548T644 557T603 584Q571 616 571 659T582 738T612 806Q648 866 721 937T845 1067T925 1168Q976 1242 976 1279T950 1336T881 1355T780 1322T660 1230Q520 1093 458 922Q450 910 440 910T430
919Q430 930 452 982T527 1111T642 1248Q778 1379 886 1379Q950 1379 988 1348T1027 1269T1016 1174T978 1074Q920 957 804 852L702 756Q630 686 624 665T617 627T637 590T690 571T752 576T818 598T904 645T1012 726Q1136 827 1252 952T1419 1122T1512 1196Q1594
1253 1639 1253Q1656 1253 1656 1241Q1656 1232 1642 1229L1612 1219Q1458 1161 1299 926Q1195 772 1127 646Q1042 488 1001 426H1212Q1202 413 1202 398H982L949 354Q933 332 916 312H1156Q1149 304 1143 285H893Q640 -2 331 -2Q216 -2 142 50Q67 103 67 184Q67
219 87 241T135 263Z" />
<glyph unicode="&#xa6;" glyph-name="brokenbar" horiz-adv-x="909" d="M1263 1583Q1267 1579 1282 1579Q1308 1579 1327 1582L811 804H746L1263 1583ZM2 -423Q-6 -421 -18 -421Q-18 -421 -38 -421Q-45 -421 -60 -423L473 388H537L2 -423Z" />
<glyph unicode="&#xa7;" glyph-name="section" horiz-adv-x="1272" d="M125 -15Q113 -34 113 -64T124 -120T160 -165Q210 -206 276 -206T393 -189T482 -138Q561 -70 565 47Q565 118 514 220Q381 476 384 572Q388 695 473 778Q554 856 681 875Q613 1080 766 1254Q879
1384 1056 1384Q1143 1384 1201 1336Q1282 1268 1248 1172Q1231 1125 1205 1108T1158 1091Q1138 1091 1125 1102T1112 1135T1129 1172T1168 1188T1205 1167Q1218 1188 1219 1218T1209 1274T1176 1320Q1129 1362 1069 1362Q973 1362 905 1324Q769 1249 765 1106Q763
1041 816 932L853 856Q947 680 945 599T920 465T856 374Q775 295 648 278Q693 143 638 8Q579 -134 437 -199Q367 -231 304 -231T202 -217T134 -179Q71 -127 73 -58Q73 -13 94 14Q132 60 171 60Q191 60 204 49T217 16T201 -19T162 -34T125 -15ZM639 301Q763 321
806 424Q855 541 742 748Q709 807 690 853Q569 831 524 725Q475 610 589 406Q622 346 639 301Z" />
<glyph unicode="&#xa8;" glyph-name="dieresis" horiz-adv-x="754" d="M297 891T279 884T238 876T198 893T181 933T189 972T211 1002Q242 1032 276 1032T326 1014T343 973T334 934T311 904ZM-3 891T-21 884T-61 876T-100 893T-117 933T-109 972T-88 1002Q-58 1032
-24 1032T26 1014T42 973T34 934T11 904Z" />
<glyph unicode="&#xa9;" glyph-name="copyright" horiz-adv-x="1270" d="M97 204Q97 270 119 345T184 490T286 622T424 730Q588 829 783 829Q921 829 1021 757Q1133 676 1133 539Q1133 410 1071 291Q1020 194 962 150Q887 46 757 -26Q610 -107 453 -107Q282 -107
186 -16Q97 68 97 204ZM1009 247Q1089 346 1089 528Q1089 663 987 736Q899 798 782 798T581 774T430 706T307 606T216 484Q140 350 140 212Q140 27 308 -46Q367 -72 448 -72T598 -56T724 -11Q839 45 911 131Q909 131 907 135T909 143T915 152L949 183L968 218Q983
251 995 255T1009 247ZM830 487Q799 487 799 512Q799 557 782 578T714 600T612 575T517 507Q423 411 417 282Q413 203 450 162T538 121Q641 121 735 211Q746 222 752 222Q758 222 761 218T765 207T746 183T700 147T642 116Q579 88 531 88T445 100T380 136Q317 188
321 268T361 413T454 525Q574 624 733 624Q799 624 828 602Q874 566 874 542T861 503T830 487Z" />
<glyph unicode="&#xaa;" glyph-name="ordfeminine" horiz-adv-x="1221" d="M906 1074Q731 869 617 869Q568 869 541 894T514 969Q514 1068 617 1188Q786 1384 977 1384Q1015 1384 1038 1368T1061 1327T1054 1282L1094 1329Q1112 1349 1127 1368Q1151 1362 1171
1362Q1220 1362 1237 1365L985 1062Q896 957 896 917Q896 898 918 898Q977 898 1057 967Q1073 982 1081 982T1089 973T1059 936T981 889T894 869Q822 869 822 920Q822 961 913 1070L906 1074ZM702 1135Q593 1005 593 934Q593 895 620 895Q729 895 927 1133L1008
1230Q1036 1284 1036 1318T994 1352Q923 1352 795 1235Q750 1194 702 1135Z" />
<glyph unicode="&#xab;" glyph-name="guillemotleft" horiz-adv-x="1581" d="M1006 570Q1044 599 1070 625T1106 652T1116 644Q1116 632 1098 611Q1033 535 1003 502L938 434Q903 399 865 366Q886 312 902 267L928 188Q935 161 935 154Q935 141 928 141Q914 141
904 160T876 209Q800 325 781 348Q752 384 752 392Q752 404 783 421T853 462T930 514L1006 570ZM506 320Q489 346 474 364T458 392Q458 404 489 421L558 462Q597 486 636 514L712 570Q750 599 772 620Q803 652 812 652T822 644Q822 632 804 611L710 502Q638 424
571 367Q592 313 608 268L634 188Q640 164 640 153T630 141T610 160T582 209L506 320Z" />
<glyph unicode="&#xac;" glyph-name="logicalnot" horiz-adv-x="1031" d="M172 462Q207 508 210 518H883L707 213Q695 217 680 217Q655 217 643 214L786 462H172Z" />
<glyph unicode="&#xad;" glyph-name="uni00AD" horiz-adv-x="1261" />
<glyph unicode="&#xae;" glyph-name="registered" horiz-adv-x="1270" d="M621 491Q534 491 467 516T356 583Q268 667 268 798Q268 944 355 1089Q496 1324 762 1402Q852 1428 934 1428T1078 1410T1191 1356Q1304 1275 1304 1138Q1304 1011 1242 890Q1193 795 1133
750Q1057 646 928 573Q782 491 621 491ZM1179 845Q1259 950 1259 1126Q1259 1263 1157 1334Q1068 1396 952 1396T752 1372T600 1305T477 1205T386 1083Q310 949 310 811Q310 697 380 620Q465 528 625 528Q837 528 1000 652Q1048 688 1082 729Q1069 733 1086 750L1121
783Q1126 791 1140 821T1166 854T1179 845ZM966 1150Q966 1241 856 1241H846Q842 1241 837 1240L543 689H443L733 1235Q721 1233 709 1232T684 1228Q661 1224 648 1219Q651 1227 653 1237T657 1254Q1069 1317 1069 1155Q1069 1073 968 1012Q883 959 774 943Q795
937 804 920T819 884T844 825Q890 725 927 725Q945 725 962 730T983 740Q985 734 982 726T985 711Q966 692 921 684T854 675T814 689T783 728Q766 762 755 813T741 879T734 904Q728 920 720 932Q710 946 710 956T715 970T749 982T818 1002T890 1034Q966 1078 966
1150Z" />
<glyph unicode="&#xaf;" glyph-name="overscore" horiz-adv-x="870" d="M-138 788Q-91 818 -65 842H406Q365 816 345 788H-138Z" />
<glyph unicode="&#xb0;" glyph-name="degree" horiz-adv-x="1064" d="M724 1090T695 1079T631 1067T568 1078T518 1110Q473 1154 473 1203T486 1283T522 1336Q570 1384 642 1384Q710 1384 754 1339Q796 1295 796 1243T783 1162T747 1111ZM567 1121T589 1113T635
1104T681 1112T720 1136Q755 1170 755 1224T722 1313T650 1347T588 1337T549 1309Q515 1273 515 1234T524 1174T550 1137Z" />
<glyph unicode="&#xb1;" glyph-name="plusminus" horiz-adv-x="1206" d="M424 423Q404 427 394 427Q375 427 359 423L539 716H267Q298 751 308 771H573L743 1048Q763 1044 772 1044Q786 1044 812 1048L640 771H916Q902 757 894 745L876 716H606L424 423ZM172 130L196
157Q206 167 214 182H793L776 156Q768 144 765 130H172Z" />
<glyph unicode="&#xb2;" glyph-name="twosuperior" horiz-adv-x="1183" d="M386 647Q506 709 605 709Q691 709 751 667Q807 632 838 632T893 642T937 670Q979 708 983 738T996 769Q1010 769 1010 743T990 682T938 618Q864 551 784 551Q718 551 668 592Q591 655
516 655Q419 655 312 564Q295 551 285 551T275 564T292 599T350 654Q441 726 580 798T791 918T912 1018Q1011 1126 1011 1264Q1011 1318 985 1350T919 1382T839 1363T762 1312T688 1240T626 1160Q568 1070 568 1016T617 961Q710 961 813 1097Q825 1109 833 1109T842
1099T819 1058T757 996Q680 935 614 935Q532 935 512 1004Q507 1021 507 1047T523 1115T569 1199T637 1279T722 1347Q821 1410 917 1410Q1054 1410 1096 1304Q1109 1272 1109 1223T1079 1116T991 1002Q879 893 665 798L560 750Q447 697 386 647Z" />
<glyph unicode="&#xb3;" glyph-name="threesuperior" horiz-adv-x="1065" d="M353 660Q353 645 349 631Q403 577 491 577T639 601T742 665Q830 747 830 866Q830 932 774 962Q757 972 735 972T694 967T658 951T623 927L587 897Q577 886 562 894Q551 902 561 915T584
940T615 963T656 986L711 1012Q952 1122 952 1262Q952 1315 922 1349T840 1383T744 1360T660 1301Q573 1219 573 1132Q573 1088 617 1088Q693 1088 742 1184Q757 1213 762 1235T769 1261T779 1264T787 1239T774 1181T736 1121Q682 1062 612 1062Q574 1062 547 1085T520
1153T548 1243T622 1325Q726 1410 837 1410T999 1368T1050 1259T985 1123T781 999Q844 988 876 956Q934 896 934 837T898 725T802 634Q672 551 504 551Q410 551 340 592Q275 629 275 669Q275 684 285 696T315 709Q353 709 353 660Z" />
<glyph unicode="&#xb4;" glyph-name="acute" horiz-adv-x="612" d="M-103 820Q-18 870 23 937Q48 979 62 1086Q71 1149 114 1149T158 1094Q158 1037 94 954Q16 853 -96 794Q-108 788 -118 788T-128 796T-122 807T-103 820Z" />
<glyph unicode="&#xb5;" glyph-name="mu" horiz-adv-x="1028" d="M511 51Q511 26 552 26Q619 26 710 88Q741 109 771 139Q776 136 776 126Q776 108 771 103Q653 -2 534 -2Q501 -2 483 18T464 74Q464 150 518 249Q315 70 168 14Q124 -2 85 -2T22 22Q-182 -271 -233
-348Q-370 -563 -383 -585Q-431 -593 -458 -593T-495 -593T-516 -590L-538 -588Q-548 -586 -554 -584L224 428L414 670Q435 663 476 663H528Q568 663 583 666L460 536Q209 256 163 200Q82 103 82 65T109 26Q157 26 300 120Q492 246 615 390L654 438L653 436Q697
487 752 544L877 670Q933 663 957 663Q989 663 1031 666L806 426L587 178Q522 102 517 80T511 51Z" />
<glyph unicode="&#xb6;" glyph-name="paragraph" horiz-adv-x="1748" d="M591 -69Q420 -220 288 -220Q131 -220 83 -131Q41 -53 92 -8Q140 35 186 10Q204 -1 206 -22T193 -59T160 -78Q124 -82 106 -72Q106 -157 208 -185Q241 -194 284 -194T392 -162T547 -50Q748
126 1008 480Q953 457 900 457T806 470T737 506Q679 552 667 625T682 771T769 912T909 1037T1086 1138Q1292 1229 1488 1229Q1589 1229 1679 1210Q1845 1401 1964 1420Q1995 1425 2032 1425T2095 1403T2126 1351T2118 1306T2085 1290Q2065 1290 2051 1305T2033
1339Q2027 1376 2055 1389Q2037 1399 2016 1399T1973 1389T1926 1352Q1873 1302 1787 1181Q1803 1175 1817 1171T1840 1163T1853 1154T1859 1147T1862 1143Q1863 1126 1850 1126T1827 1133T1797 1148L1771 1158Q1699 1057 1596 900L1345 516Q1129 184 945 32Q797
-90 673 -90Q625 -90 591 -69ZM1504 1205L1472 1206Q1327 1206 1154 1102Q984 1001 880 858Q768 702 791 569Q806 483 895 483Q968 483 1040 523Q1149 675 1181 724L1354 990L1504 1205ZM1662 1190Q1610 1200 1544 1204L1088 538L921 304Q751 79 614 -48Q636 -64
666 -64T723 -53T789 -11T878 74T994 214T1142 421L1325 706Q1512 1011 1662 1190Z" />
<glyph unicode="&#xb7;" glyph-name="middot" horiz-adv-x="726" d="M118 389T97 380T49 371T2 391T-18 439T-9 485T17 520Q53 555 94 555Q173 555 173 481Q173 439 146 414Z" />
<glyph unicode="&#xb8;" glyph-name="cedilla" horiz-adv-x="614" d="M60 -169Q60 -125 -8 -125Q-30 -125 -51 -132L47 18L75 10L25 -65Q42 -60 72 -60T127 -83T152 -134T144 -180T122 -217Q68 -285 -51 -338Q-100 -359 -119 -359T-138 -345Q-138 -336 -117 -328Q-30
-300 15 -262T60 -169Z" />
<glyph unicode="&#xb9;" glyph-name="onesuperior" horiz-adv-x="1118" d="M1062 1398T1031 1355T952 1233T848 1052Q685 744 606 575Q601 575 592 576T572 578H552Q542 579 530 579Q486 579 465 572L867 1174Q751 1054 674 990Q557 895 540 895Q514 895 514 911T528
933L550 944Q560 948 577 958T632 997T712 1062L796 1140Q932 1270 1015 1391Q1038 1422 1050 1422T1062 1410Z" />
<glyph unicode="&#xba;" glyph-name="ordmasculine" horiz-adv-x="1085" d="M622 869Q572 869 543 897T514 960T521 1022T542 1078Q608 1226 754 1319Q854 1383 927 1383Q1053 1383 1053 1297Q1053 1169 936 1034Q789 869 622 869ZM969 1347Q888 1347 709 1143Q612
1033 612 944Q612 901 655 901Q762 901 880 1018Q965 1101 1007 1200Q1027 1246 1027 1292Q1027 1347 969 1347Z" />
<glyph unicode="&#xbb;" glyph-name="guillemotright" horiz-adv-x="1709" d="M1012 427Q944 602 944 627T952 653Q964 653 971 635Q983 613 1002 584L1077 472Q1095 447 1110 429T1125 402Q1125 388 1094 372T1024 332T947 280Q860 219 826 185Q781 141 772 141T762
150Q762 160 780 182Q840 253 872 288L939 358Q974 394 1012 427ZM718 426Q650 601 650 627T658 653Q670 653 680 633T708 584Q783 470 807 440T832 400T801 372T731 332T654 280Q567 219 533 185Q488 141 479 141T469 150Q469 160 486 182Q547 253 579 288L646
358Q680 393 718 426Z" />
<glyph unicode="&#xbc;" glyph-name="onequarter" horiz-adv-x="2441" d="M676 22Q666 24 654 24Q633 24 605 22L1570 1373Q1585 1368 1598 1368Q1629 1368 1638 1371L676 22ZM956 1218T925 1174T846 1052T742 871Q579 563 500 394Q495 394 486 395T466 396L446
398Q436 398 424 398Q380 398 359 391L761 993Q645 873 568 810Q451 714 434 714Q408 714 408 730T422 752L444 762Q454 767 471 777T526 816T606 882L690 959Q826 1089 909 1210Q932 1241 944 1241T956 1230ZM1468 382Q1342 274 1262 274Q1225 274 1209 291T1192
331T1204 371T1238 403Q1288 435 1341 435T1444 423Q1487 465 1537 520L1636 632Q1737 751 1806 857Q1833 860 1858 862L1932 868Q1944 869 1957 869T1970 863T1965 855T1943 842Q1897 813 1846 758Q1659 561 1607 511L1499 408L1624 370Q1639 365 1654 361L1685
353Q1865 551 2006 635Q2022 645 2033 645T2045 638Q2045 627 2025 614T1974 572T1910 508Q1809 396 1761 336Q1828 323 1872 323Q1965 323 2020 356Q2042 366 2048 369T2059 372Q2069 372 2069 366Q2069 352 2043 336Q1976 293 1856 293Q1803 293 1736 305Q1621
159 1534 19Q1517 21 1498 22L1468 24Q1457 24 1450 24Q1426 24 1408 19Q1587 244 1657 322L1601 338Q1572 347 1540 358L1468 382ZM1417 397Q1371 409 1349 409T1307 401T1270 379Q1232 349 1232 324T1260 299Q1299 299 1381 366L1417 397Z" />
<glyph unicode="&#xbd;" glyph-name="onehalf" horiz-adv-x="2440" d="M676 22Q666 24 654 24Q633 24 605 22L1570 1373Q1585 1368 1598 1368Q1629 1368 1638 1371L676 22ZM956 1218T925 1174T846 1052T742 871Q579 563 500 394Q495 394 486 395T466 396L446 398Q436
398 424 398Q380 398 359 391L761 993Q645 873 568 810Q451 714 434 714Q408 714 408 730T422 752L444 762Q454 767 471 777T526 816T606 882L690 959Q826 1089 909 1210Q932 1241 944 1241T956 1230ZM1315 151Q1432 213 1532 213Q1617 213 1679 171Q1732 135 1764
135T1820 145T1864 173Q1906 209 1910 241T1926 274T1938 247T1918 185T1866 121Q1792 54 1712 54Q1648 54 1597 95Q1516 160 1444 160Q1348 160 1240 68Q1224 54 1213 54Q1202 54 1202 67Q1202 117 1386 231Q1453 273 1550 323T1719 421T1840 522Q1939 629 1939
767Q1939 821 1912 853T1845 885T1767 866T1690 815T1616 743T1554 662Q1496 573 1496 521Q1496 464 1545 464Q1637 464 1741 601Q1752 613 1760 613T1769 603T1746 561T1677 492Q1608 439 1541 439Q1486 439 1457 475Q1435 502 1435 539T1451 619T1497 703T1565
783T1650 850Q1749 913 1845 913Q1982 913 2024 807Q2036 775 2036 726T2006 619T1918 504Q1805 395 1591 301Q1423 227 1380 198T1315 151Z" />
<glyph unicode="&#xbe;" glyph-name="threequarters" horiz-adv-x="2469" d="M676 22Q666 24 654 24Q633 24 605 22L1570 1373Q1585 1368 1598 1368Q1629 1368 1638 1371L676 22ZM257 479Q257 464 253 450Q307 396 395 396T543 420T646 484Q734 566 734 685Q734
751 678 782Q661 791 639 791T598 786T562 770T527 746L491 716Q481 705 466 713Q455 721 465 734T488 759T519 782T560 804L615 831Q856 941 856 1081Q856 1134 826 1168T744 1202T648 1179T564 1120Q477 1038 477 951Q477 907 521 907Q597 907 646 1002Q661 1032
666 1054T673 1080T683 1083T691 1058T678 1000T640 940Q586 881 516 881Q478 881 451 904T424 972T452 1062T526 1144Q630 1229 741 1229T903 1187T954 1078T889 942T685 818Q748 807 780 775Q838 715 838 656T802 544T706 454Q576 370 408 370Q314 370 244 410Q179
448 179 488Q179 503 189 515T219 528Q257 528 257 479ZM1455 382Q1329 274 1248 274Q1212 274 1197 291T1181 331T1192 371T1225 403Q1273 435 1327 435T1431 423Q1583 572 1717 750Q1761 808 1792 857Q1820 860 1844 862L1920 868Q1932 869 1944 869T1956 863Q1956
856 1934 844Q1883 813 1832 758Q1647 563 1595 512L1496 417L1486 408Q1511 401 1542 392L1612 370Q1626 365 1641 361L1672 353Q1852 551 1993 635Q2009 645 2021 645T2033 637T2013 614T1962 572T1897 508T1824 428L1748 336Q1815 323 1859 323Q1953 323 2006
356L2035 369Q2042 372 2045 372Q2057 372 2057 366Q2057 353 2041 342Q1962 293 1843 293Q1790 293 1723 305Q1608 159 1521 19Q1507 21 1487 22L1456 24Q1445 24 1438 24Q1415 24 1395 19Q1574 244 1644 322L1587 338Q1558 347 1526 358L1455 382ZM1404 397Q1360
409 1338 409T1295 401T1258 379Q1219 349 1219 325Q1219 299 1246 299Q1286 299 1368 366L1404 397Z" />
<glyph unicode="&#xbf;" glyph-name="questiondown" horiz-adv-x="1212" d="M1051 973T1035 990T1018 1030T1027 1071T1050 1100Q1084 1129 1115 1129T1164 1111T1182 1071T1174 1032T1152 1002Q1121 973 1086 973ZM928 790T938 805T962 820T976 805T964 774T919
716Q822 598 780 550Q676 437 611 373T505 260T438 170Q390 90 390 14T425 -98T505 -133T577 -125T628 -104Q720 -53 729 46Q730 57 731 78T752 120T798 142T839 126T853 82T824 13T744 -67Q626 -158 495 -158Q408 -158 339 -108Q265 -54 265 28Q265 100 303 154Q372
252 562 403Q718 525 850 679Q919 759 923 774Z" />
<glyph unicode="&#xc0;" glyph-name="Agrave" horiz-adv-x="1516" d="M1938 1471Q1938 1459 1928 1459Q1916 1459 1874 1482T1794 1536T1726 1598Q1662 1666 1662 1717T1705 1768T1760 1697Q1773 1632 1797 1597Q1838 1536 1913 1495L1932 1480Q1938 1476 1938
1471ZM750 199Q608 199 486 237Q346 121 276 76Q146 -5 11 -5Q-143 -5 -188 84Q-201 111 -201 137T-192 179T-170 204Q-143 223 -107 223Q-57 223 -57 178Q-57 158 -73 144T-118 129T-161 139V132Q-161 22 19 22Q144 22 302 132L451 249Q309 302 224 399Q142 491
136 602Q130 711 208 788Q290 869 430 869Q625 869 758 702Q798 651 826 593Q1147 901 1246 989L1410 1131Q1742 1404 1899 1404Q1917 1404 1917 1398Q1917 1391 1901 1385T1864 1359T1806 1292L1708 1167L1031 267Q1310 350 1466 564Q1516 632 1533 678Q1556 739
1561 739Q1564 739 1570 731T1576 695T1561 630T1528 558Q1495 501 1419 429Q1266 280 999 225L828 -1L764 3Q732 5 714 5T682 3L654 -1L802 182Q805 187 808 191T813 201Q781 199 750 199ZM840 562Q881 457 881 382T869 264L1240 713Q1607 1140 1695 1233T1825
1366L1758 1338Q1623 1279 1372 1062L1162 872L840 562ZM475 269Q670 443 803 572Q720 761 550 820Q493 839 439 839T342 820T267 768Q198 699 198 604Q198 437 354 329Q406 293 475 269ZM510 258Q620 227 756 227Q791 227 826 230Q849 289 849 344Q849 446 816
539Q591 327 510 258Z" />
<glyph unicode="&#xc1;" glyph-name="Aacute" horiz-adv-x="1516" d="M1926 1459T1914 1459T1901 1471Q1901 1476 1907 1480T1934 1498Q2028 1557 2062 1636Q2072 1657 2080 1697Q2089 1768 2133 1768T2177 1713Q2177 1668 2113 1598Q2054 1534 1990 1497ZM750
199Q608 199 486 237Q346 121 276 76Q146 -5 11 -5Q-143 -5 -188 84Q-201 111 -201 137T-192 179T-170 204Q-143 223 -107 223Q-57 223 -57 178Q-57 158 -73 144T-118 129T-161 139V132Q-161 22 19 22Q144 22 302 132L451 249Q309 302 224 399Q142 491 136 602Q130
711 208 788Q290 869 430 869Q625 869 758 702Q798 651 826 593Q1147 901 1246 989L1410 1131Q1742 1404 1899 1404Q1917 1404 1917 1398Q1917 1391 1901 1385T1864 1359T1806 1292L1708 1167L1031 267Q1310 350 1466 564Q1516 632 1533 678Q1556 739 1561 739Q1564
739 1570 731T1576 695T1561 630T1528 558Q1495 501 1419 429Q1266 280 999 225L828 -1L764 3Q732 5 714 5T682 3L654 -1L802 182Q805 187 808 191T813 201Q781 199 750 199ZM840 562Q881 457 881 382T869 264L1240 713Q1607 1140 1695 1233T1825 1366L1758 1338Q1623
1279 1372 1062L1162 872L840 562ZM475 269Q670 443 803 572Q720 761 550 820Q493 839 439 839T342 820T267 768Q198 699 198 604Q198 437 354 329Q406 293 475 269ZM510 258Q620 227 756 227Q791 227 826 230Q849 289 849 344Q849 446 816 539Q591 327 510 258Z"
/>
<glyph unicode="&#xc2;" glyph-name="Acircumflex" horiz-adv-x="1516" d="M1821 1528L1723 1463Q1683 1438 1673 1438T1663 1442Q1663 1455 1724 1500L1851 1600Q1918 1654 1987 1719Q2031 1768 2046 1768Q2054 1768 2054 1761Q2054 1748 2047 1731Q2023 1673
2023 1609Q2023 1498 2066 1459Q2071 1455 2071 1451T2067 1442T2054 1436Q2020 1436 1980 1508Q1957 1549 1953 1577L1947 1619Q1880 1567 1821 1528ZM750 199Q608 199 486 237Q346 121 276 76Q146 -5 11 -5Q-143 -5 -188 84Q-201 111 -201 137T-192 179T-170
204Q-143 223 -107 223Q-57 223 -57 178Q-57 158 -73 144T-118 129T-161 139V132Q-161 22 19 22Q144 22 302 132L451 249Q309 302 224 399Q142 491 136 602Q130 711 208 788Q290 869 430 869Q625 869 758 702Q798 651 826 593Q1147 901 1246 989L1410 1131Q1742
1404 1899 1404Q1917 1404 1917 1398Q1917 1391 1901 1385T1864 1359T1806 1292L1708 1167L1031 267Q1310 350 1466 564Q1516 632 1533 678Q1556 739 1561 739Q1564 739 1570 731T1576 695T1561 630T1528 558Q1495 501 1419 429Q1266 280 999 225L828 -1L764 3Q732
5 714 5T682 3L654 -1L802 182Q805 187 808 191T813 201Q781 199 750 199ZM840 562Q881 457 881 382T869 264L1240 713Q1607 1140 1695 1233T1825 1366L1758 1338Q1623 1279 1372 1062L1162 872L840 562ZM475 269Q670 443 803 572Q720 761 550 820Q493 839 439
839T342 820T267 768Q198 699 198 604Q198 437 354 329Q406 293 475 269ZM510 258Q620 227 756 227Q791 227 826 230Q849 289 849 344Q849 446 816 539Q591 327 510 258Z" />
<glyph unicode="&#xc3;" glyph-name="Atilde" horiz-adv-x="1516" d="M1736 1492Q1726 1492 1726 1506Q1726 1545 1766 1587Q1836 1660 1889 1660Q1933 1660 1980 1627Q2055 1575 2097 1575Q2158 1575 2189 1651Q2199 1669 2206 1669Q2220 1669 2220 1655Q2220
1620 2180 1576Q2111 1500 2055 1500Q2012 1500 1960 1535T1889 1578T1849 1586Q1785 1586 1755 1508Q1746 1492 1736 1492ZM750 199Q608 199 486 237Q346 121 276 76Q146 -5 11 -5Q-143 -5 -188 84Q-201 111 -201 137T-192 179T-170 204Q-143 223 -107 223Q-57
223 -57 178Q-57 158 -73 144T-118 129T-161 139V132Q-161 22 19 22Q144 22 302 132L451 249Q309 302 224 399Q142 491 136 602Q130 711 208 788Q290 869 430 869Q625 869 758 702Q798 651 826 593Q1147 901 1246 989L1410 1131Q1742 1404 1899 1404Q1917 1404
1917 1398Q1917 1391 1901 1385T1864 1359T1806 1292L1708 1167L1031 267Q1310 350 1466 564Q1516 632 1533 678Q1556 739 1561 739Q1564 739 1570 731T1576 695T1561 630T1528 558Q1495 501 1419 429Q1266 280 999 225L828 -1L764 3Q732 5 714 5T682 3L654 -1L802
182Q805 187 808 191T813 201Q781 199 750 199ZM840 562Q881 457 881 382T869 264L1240 713Q1607 1140 1695 1233T1825 1366L1758 1338Q1623 1279 1372 1062L1162 872L840 562ZM475 269Q670 443 803 572Q720 761 550 820Q493 839 439 839T342 820T267 768Q198 699
198 604Q198 437 354 329Q406 293 475 269ZM510 258Q620 227 756 227Q791 227 826 230Q849 289 849 344Q849 446 816 539Q591 327 510 258Z" />
<glyph unicode="&#xc4;" glyph-name="Adieresis" horiz-adv-x="1516" d="M2028 1468T2012 1486T1995 1527T2003 1565T2024 1595Q2055 1624 2089 1624T2140 1607T2157 1567T2148 1527T2125 1497Q2094 1468 2061 1468ZM1729 1468T1713 1486T1696 1527T1704 1565T1726
1595Q1756 1624 1790 1624T1840 1607T1856 1567T1848 1527T1825 1497Q1794 1468 1762 1468ZM750 199Q608 199 486 237Q346 121 276 76Q146 -5 11 -5Q-143 -5 -188 84Q-201 111 -201 137T-192 179T-170 204Q-143 223 -107 223Q-57 223 -57 178Q-57 158 -73 144T-118
129T-161 139V132Q-161 22 19 22Q144 22 302 132L451 249Q309 302 224 399Q142 491 136 602Q130 711 208 788Q290 869 430 869Q625 869 758 702Q798 651 826 593Q1147 901 1246 989L1410 1131Q1742 1404 1899 1404Q1917 1404 1917 1398Q1917 1391 1901 1385T1864
1359T1806 1292L1708 1167L1031 267Q1310 350 1466 564Q1516 632 1533 678Q1556 739 1561 739Q1564 739 1570 731T1576 695T1561 630T1528 558Q1495 501 1419 429Q1266 280 999 225L828 -1L764 3Q732 5 714 5T682 3L654 -1L802 182Q805 187 808 191T813 201Q781
199 750 199ZM840 562Q881 457 881 382T869 264L1240 713Q1607 1140 1695 1233T1825 1366L1758 1338Q1623 1279 1372 1062L1162 872L840 562ZM475 269Q670 443 803 572Q720 761 550 820Q493 839 439 839T342 820T267 768Q198 699 198 604Q198 437 354 329Q406 293
475 269ZM510 258Q620 227 756 227Q791 227 826 230Q849 289 849 344Q849 446 816 539Q591 327 510 258Z" />
<glyph unicode="&#xc5;" glyph-name="Aring" horiz-adv-x="1516" d="M2092 1729Q2131 1729 2151 1708T2171 1653T2149 1584T2092 1521Q2013 1457 1931 1457T1849 1530T1932 1666T2092 1729ZM2073 1701Q2014 1701 1959 1646Q1906 1593 1906 1539T1951 1484Q2009
1484 2060 1537Q2113 1592 2113 1646T2073 1701ZM750 199Q608 199 486 237Q346 121 276 76Q146 -5 11 -5Q-143 -5 -188 84Q-201 111 -201 137T-192 179T-170 204Q-143 223 -107 223Q-57 223 -57 178Q-57 158 -73 144T-118 129T-161 139V132Q-161 22 19 22Q144 22
302 132L451 249Q309 302 224 399Q142 491 136 602Q130 711 208 788Q290 869 430 869Q625 869 758 702Q798 651 826 593Q1147 901 1246 989L1410 1131Q1742 1404 1899 1404Q1917 1404 1917 1398Q1917 1391 1901 1385T1864 1359T1806 1292L1708 1167L1031 267Q1310
350 1466 564Q1516 632 1533 678Q1556 739 1561 739Q1564 739 1570 731T1576 695T1561 630T1528 558Q1495 501 1419 429Q1266 280 999 225L828 -1L764 3Q732 5 714 5T682 3L654 -1L802 182Q805 187 808 191T813 201Q781 199 750 199ZM840 562Q881 457 881 382T869
264L1240 713Q1607 1140 1695 1233T1825 1366L1758 1338Q1623 1279 1372 1062L1162 872L840 562ZM475 269Q670 443 803 572Q720 761 550 820Q493 839 439 839T342 820T267 768Q198 699 198 604Q198 437 354 329Q406 293 475 269ZM510 258Q620 227 756 227Q791 227
826 230Q849 289 849 344Q849 446 816 539Q591 327 510 258Z" />
<glyph unicode="&#xc6;" glyph-name="AE" horiz-adv-x="2095" d="M734 132Q563 132 418 181Q334 113 269 73Q146 -5 11 -5Q-94 -5 -160 54Q-220 108 -220 172Q-220 202 -202 222T-156 242T-112 226T-95 189Q-95 168 -109 155T-139 142Q-162 142 -172 147Q-155
66 -53 36Q-19 26 35 26Q150 26 302 132L342 162Q363 177 383 194Q164 282 100 452Q79 505 79 553T96 643T146 720Q220 797 341 797Q538 797 678 630Q721 580 751 522Q1150 904 1248 990L1410 1131Q1742 1404 1899 1404Q1917 1404 1917 1398Q1917 1391 1902 1386T1869
1366T1823 1321T1750 1239L1644 1111L1498 927L1305 677Q1445 749 1599 749Q1629 749 1655 747Q1644 786 1644 840T1671 960T1744 1086T1852 1200T1986 1292Q2138 1378 2281 1378Q2442 1378 2480 1284Q2490 1257 2490 1219T2471 1129T2416 1026T2332 931T2225 852Q2098
779 1965 779Q1909 779 1879 805T1849 868T1866 942T1913 1020T1987 1095T2082 1160Q2196 1222 2312 1222Q2335 1222 2335 1210T2293 1197T2200 1182T2101 1140T2014 1080T1944 1010Q1881 934 1881 871T1968 807Q2107 807 2276 948Q2378 1032 2425 1134Q2448 1184
2448 1235T2412 1318T2302 1350Q2129 1350 1936 1161Q1798 1026 1743 883Q1717 815 1717 760V740Q1795 726 1833 700T1871 643T1822 613Q1716 613 1668 714H1661Q1549 714 1408 624Q1279 542 1185 426Q1089 307 1089 226T1136 92T1275 24Q1299 182 1396 314Q1536
505 1725 505Q1794 505 1827 472T1860 373T1818 238T1705 113Q1548 -9 1344 -9Q1320 -9 1298 -7Q1295 -31 1295 -81T1316 -184T1361 -255T1384 -279Q1384 -290 1371 -290Q1363 -290 1337 -266T1289 -191T1268 -83T1271 -3Q1154 15 1083 88Q1015 160 1015 254Q1015
278 1018 302L787 -1Q694 5 679 5T651 3L624 -1L734 132ZM766 491Q814 382 814 275Q814 248 810 222L1198 678Q1577 1108 1675 1210L1815 1355L1753 1332Q1721 1320 1668 1289T1541 1200T1372 1062L1162 872L766 491ZM420 223Q610 387 728 499Q671 616 566 690Q462
763 352 763Q203 763 162 635Q149 596 149 546T168 448T222 358Q294 273 420 223ZM1722 709Q1741 642 1817 642Q1830 642 1830 655T1802 684T1722 709ZM1303 21Q1314 19 1325 19T1365 19T1449 40T1556 94T1658 170T1744 256Q1826 349 1826 395T1805 457T1738 474T1644
453T1544 393Q1428 304 1362 178Q1320 97 1303 21ZM760 163Q761 163 771 190T781 272Q781 377 742 469Q529 272 454 210Q589 163 760 163Z" />
<glyph unicode="&#xc7;" glyph-name="Ccedilla" horiz-adv-x="1350" d="M474 -169Q474 -125 406 -125Q384 -125 363 -132L448 -1Q440 -2 434 -2H420Q243 -2 180 141Q160 188 160 251Q160 485 373 759Q205 797 159 932Q145 974 145 1022T171 1122T243 1224T354
1318T496 1395Q664 1467 838 1467Q919 1467 919 1450Q919 1442 906 1442L833 1446Q622 1446 411 1304Q275 1213 218 1099Q188 1040 188 994T201 917T240 860Q294 804 391 782Q601 1042 900 1218Q1212 1401 1461 1401Q1561 1401 1561 1327Q1561 1217 1391 1080Q1229
951 993 856Q745 758 536 748Q227 407 227 213Q227 118 283 71T418 24T570 55T710 138T840 255T947 388Q1047 534 1047 628Q1047 670 1025 688T946 706T815 673T670 582Q517 454 446 262Q444 256 440 256T432 260Q423 269 431 288Q504 480 652 605Q802 733 966
733Q1051 733 1095 695T1139 598T1116 477T1051 351T950 229T818 122Q660 18 483 1L439 -65Q456 -60 486 -60T540 -83T565 -134T557 -180T536 -217Q481 -286 363 -338Q314 -359 295 -359T276 -345Q276 -336 296 -328Q384 -300 429 -262T474 -169ZM1537 1324Q1537
1377 1459 1377Q1315 1377 1046 1192Q784 1014 561 775Q838 805 1187 1002Q1394 1119 1490 1229Q1537 1283 1537 1324Z" />
<glyph unicode="&#xc8;" glyph-name="Egrave" horiz-adv-x="1127" d="M1376 1471Q1376 1459 1366 1459Q1354 1459 1312 1482T1232 1536T1164 1598Q1100 1666 1100 1717T1143 1768T1198 1697Q1211 1632 1235 1597Q1276 1536 1351 1495L1370 1480Q1376 1476 1376
1471ZM343 -272T343 -278T331 -285Q290 -285 264 -162Q249 -98 247 -28V1Q113 15 30 88Q-50 158 -52 262Q-56 388 25 504Q145 677 385 734Q463 752 549 752H555Q528 789 516 837Q359 871 261 943T119 1113Q113 1124 113 1137T122 1150T142 1126Q233 922 511 864Q510
869 510 875T510 887Q508 1036 604 1159Q738 1330 977 1384Q1049 1401 1119 1401Q1281 1401 1371 1344T1461 1183Q1461 1106 1405 1039T1254 921Q1047 813 764 813Q676 813 600 823Q610 784 633 748Q731 737 781 709T833 649Q833 617 784 617Q677 617 584 716Q390
695 219 540Q114 443 72 336Q51 281 52 215T103 96T249 27Q265 211 395 356Q528 505 689 505Q752 505 798 464T845 356T804 222T691 104Q536 -2 313 -2L277 -1Q276 -9 276 -16V-31Q276 -133 310 -219Q322 -251 332 -261ZM596 850Q652 842 736 842T900 853T1054
887T1197 941T1314 1014Q1424 1104 1424 1213Q1424 1284 1352 1329Q1277 1376 1182 1376T1018 1352T888 1288T772 1196T680 1087Q596 967 596 864V850ZM655 718Q724 640 796 640Q812 640 812 650T800 670T766 691Q717 714 655 718ZM278 24Q298 22 335 22T428 40T537
87T638 155T722 236Q799 326 799 394Q799 436 768 458T683 480T561 448T432 355Q297 218 278 24Z" />
<glyph unicode="&#xc9;" glyph-name="Eacute" horiz-adv-x="1127" d="M1518 1697Q1527 1768 1571 1768T1615 1713Q1615 1668 1551 1598Q1490 1532 1427 1496T1352 1459T1339 1471Q1339 1476 1345 1480T1372 1498Q1466 1557 1500 1636Q1510 1657 1518 1697ZM343
-272T343 -278T331 -285Q290 -285 264 -162Q249 -98 247 -28V1Q113 15 30 88Q-50 158 -52 262Q-56 388 25 504Q145 677 385 734Q463 752 549 752H555Q528 789 516 837Q359 871 261 943T119 1113Q113 1124 113 1137T122 1150T142 1126Q233 922 511 864Q510 869 510
875T510 887Q508 1036 604 1159Q738 1330 977 1384Q1049 1401 1119 1401Q1281 1401 1371 1344T1461 1183Q1461 1106 1405 1039T1254 921Q1047 813 764 813Q676 813 600 823Q610 784 633 748Q731 737 781 709T833 649Q833 617 784 617Q677 617 584 716Q390 695 219
540Q114 443 72 336Q51 281 52 215T103 96T249 27Q265 211 395 356Q528 505 689 505Q752 505 798 464T845 356T804 222T691 104Q536 -2 313 -2L277 -1Q276 -9 276 -16V-31Q276 -133 310 -219Q322 -251 332 -261ZM596 850Q652 842 736 842T900 853T1054 887T1197
941T1314 1014Q1424 1104 1424 1213Q1424 1284 1352 1329Q1277 1376 1182 1376T1018 1352T888 1288T772 1196T680 1087Q596 967 596 864V850ZM655 718Q724 640 796 640Q812 640 812 650T800 670T766 691Q717 714 655 718ZM278 24Q298 22 335 22T428 40T537 87T638
155T722 236Q799 326 799 394Q799 436 768 458T683 480T561 448T432 355Q297 218 278 24Z" />
<glyph unicode="&#xca;" glyph-name="Ecircumflex" horiz-adv-x="1127" d="M1259 1528L1161 1463Q1121 1438 1111 1438T1101 1442Q1101 1455 1162 1500L1289 1600Q1356 1654 1425 1719Q1469 1768 1484 1768Q1492 1768 1492 1761Q1492 1748 1485 1731Q1461 1673
1461 1609Q1461 1498 1504 1459Q1509 1455 1509 1451T1505 1442T1492 1436Q1458 1436 1418 1508Q1395 1549 1391 1577L1385 1619Q1318 1567 1259 1528ZM343 -272T343 -278T331 -285Q290 -285 264 -162Q249 -98 247 -28V1Q113 15 30 88Q-50 158 -52 262Q-56 388
25 504Q145 677 385 734Q463 752 549 752H555Q528 789 516 837Q359 871 261 943T119 1113Q113 1124 113 1137T122 1150T142 1126Q233 922 511 864Q510 869 510 875T510 887Q508 1036 604 1159Q738 1330 977 1384Q1049 1401 1119 1401Q1281 1401 1371 1344T1461
1183Q1461 1106 1405 1039T1254 921Q1047 813 764 813Q676 813 600 823Q610 784 633 748Q731 737 781 709T833 649Q833 617 784 617Q677 617 584 716Q390 695 219 540Q114 443 72 336Q51 281 52 215T103 96T249 27Q265 211 395 356Q528 505 689 505Q752 505 798
464T845 356T804 222T691 104Q536 -2 313 -2L277 -1Q276 -9 276 -16V-31Q276 -133 310 -219Q322 -251 332 -261ZM596 850Q652 842 736 842T900 853T1054 887T1197 941T1314 1014Q1424 1104 1424 1213Q1424 1284 1352 1329Q1277 1376 1182 1376T1018 1352T888 1288T772
1196T680 1087Q596 967 596 864V850ZM655 718Q724 640 796 640Q812 640 812 650T800 670T766 691Q717 714 655 718ZM278 24Q298 22 335 22T428 40T537 87T638 155T722 236Q799 326 799 394Q799 436 768 458T683 480T561 448T432 355Q297 218 278 24Z" />
<glyph unicode="&#xcb;" glyph-name="Edieresis" horiz-adv-x="1127" d="M1549 1484T1531 1476T1489 1468T1450 1486T1433 1527T1441 1565T1462 1595Q1493 1624 1527 1624T1578 1607T1595 1567T1586 1527T1563 1497ZM1249 1484T1231 1476T1190 1468T1151 1486T1134
1527T1142 1565T1164 1595Q1194 1624 1228 1624T1278 1607T1294 1567T1286 1527T1263 1497ZM343 -272T343 -278T331 -285Q290 -285 264 -162Q249 -98 247 -28V1Q113 15 30 88Q-50 158 -52 262Q-56 388 25 504Q145 677 385 734Q463 752 549 752H555Q528 789 516
837Q359 871 261 943T119 1113Q113 1124 113 1137T122 1150T142 1126Q233 922 511 864Q510 869 510 875T510 887Q508 1036 604 1159Q738 1330 977 1384Q1049 1401 1119 1401Q1281 1401 1371 1344T1461 1183Q1461 1106 1405 1039T1254 921Q1047 813 764 813Q676
813 600 823Q610 784 633 748Q731 737 781 709T833 649Q833 617 784 617Q677 617 584 716Q390 695 219 540Q114 443 72 336Q51 281 52 215T103 96T249 27Q265 211 395 356Q528 505 689 505Q752 505 798 464T845 356T804 222T691 104Q536 -2 313 -2L277 -1Q276 -9
276 -16V-31Q276 -133 310 -219Q322 -251 332 -261ZM596 850Q652 842 736 842T900 853T1054 887T1197 941T1314 1014Q1424 1104 1424 1213Q1424 1284 1352 1329Q1277 1376 1182 1376T1018 1352T888 1288T772 1196T680 1087Q596 967 596 864V850ZM655 718Q724 640
796 640Q812 640 812 650T800 670T766 691Q717 714 655 718ZM278 24Q298 22 335 22T428 40T537 87T638 155T722 236Q799 326 799 394Q799 436 768 458T683 480T561 448T432 355Q297 218 278 24Z" />
<glyph unicode="&#xcc;" glyph-name="Igrave" horiz-adv-x="1110" d="M1530 1471Q1530 1459 1520 1459Q1508 1459 1466 1482T1386 1536T1318 1598Q1254 1666 1254 1717T1297 1768T1352 1697Q1365 1632 1389 1597Q1430 1536 1505 1495L1524 1480Q1530 1476 1530
1471ZM1177 771T1207 857T1237 1004T1248 1066T1260 994T1230 834T1149 671T1029 534T882 428Q716 337 556 337H533Q284 94 52 22Q-24 -2 -83 -2T-184 9T-254 40Q-311 80 -317 142Q-322 205 -264 227Q-207 249 -184 214Q-165 185 -185 164T-224 140Q-258 136 -276
145V139Q-271 91 -224 58T-106 24T22 41T141 98Q262 175 421 363Q288 425 288 608Q288 794 442 978Q596 1161 844 1272Q1109 1392 1402 1392L1577 1378L1679 1385Q1716 1385 1716 1371Q1716 1354 1681 1352T1616 1350T1560 1351Q1531 1344 1510 1336L1466 1320Q1169
1189 813 673Q691 498 560 365H568Q710 365 866 456Q1025 549 1126 696Q1177 771 1207 857ZM1509 1358Q1457 1366 1392 1366T1240 1346T1063 1289T885 1202T715 1093T565 970T445 838Q336 696 336 583Q336 429 439 384Q543 515 598 592Q863 957 1114 1156Q1323
1322 1509 1358Z" />
<glyph unicode="&#xcd;" glyph-name="Iacute" horiz-adv-x="1110" d="M1672 1697Q1681 1768 1725 1768T1769 1713Q1769 1668 1705 1598Q1644 1532 1581 1496T1506 1459T1493 1471Q1493 1476 1499 1480T1526 1498Q1620 1557 1654 1636Q1664 1657 1672 1697ZM1177
771T1207 857T1237 1004T1248 1066T1260 994T1230 834T1149 671T1029 534T882 428Q716 337 556 337H533Q284 94 52 22Q-24 -2 -83 -2T-184 9T-254 40Q-311 80 -317 142Q-322 205 -264 227Q-207 249 -184 214Q-165 185 -185 164T-224 140Q-258 136 -276 145V139Q-271
91 -224 58T-106 24T22 41T141 98Q262 175 421 363Q288 425 288 608Q288 794 442 978Q596 1161 844 1272Q1109 1392 1402 1392L1577 1378L1679 1385Q1716 1385 1716 1371Q1716 1354 1681 1352T1616 1350T1560 1351Q1531 1344 1510 1336L1466 1320Q1169 1189 813
673Q691 498 560 365H568Q710 365 866 456Q1025 549 1126 696Q1177 771 1207 857ZM1509 1358Q1457 1366 1392 1366T1240 1346T1063 1289T885 1202T715 1093T565 970T445 838Q336 696 336 583Q336 429 439 384Q543 515 598 592Q863 957 1114 1156Q1323 1322 1509
1358Z" />
<glyph unicode="&#xce;" glyph-name="Icircumflex" horiz-adv-x="1110" d="M1413 1528L1315 1463Q1275 1438 1265 1438T1255 1442Q1255 1455 1316 1500L1443 1600Q1510 1654 1579 1719Q1623 1768 1638 1768Q1646 1768 1646 1761Q1646 1748 1639 1731Q1615 1673
1615 1609Q1615 1498 1658 1459Q1663 1455 1663 1451T1659 1442T1646 1436Q1612 1436 1572 1508Q1549 1549 1545 1577L1539 1619Q1472 1567 1413 1528ZM1177 771T1207 857T1237 1004T1248 1066T1260 994T1230 834T1149 671T1029 534T882 428Q716 337 556 337H533Q284
94 52 22Q-24 -2 -83 -2T-184 9T-254 40Q-311 80 -317 142Q-322 205 -264 227Q-207 249 -184 214Q-165 185 -185 164T-224 140Q-258 136 -276 145V139Q-271 91 -224 58T-106 24T22 41T141 98Q262 175 421 363Q288 425 288 608Q288 794 442 978Q596 1161 844 1272Q1109
1392 1402 1392L1577 1378L1679 1385Q1716 1385 1716 1371Q1716 1354 1681 1352T1616 1350T1560 1351Q1531 1344 1510 1336L1466 1320Q1169 1189 813 673Q691 498 560 365H568Q710 365 866 456Q1025 549 1126 696Q1177 771 1207 857ZM1509 1358Q1457 1366 1392
1366T1240 1346T1063 1289T885 1202T715 1093T565 970T445 838Q336 696 336 583Q336 429 439 384Q543 515 598 592Q863 957 1114 1156Q1323 1322 1509 1358Z" />
<glyph unicode="&#xcf;" glyph-name="Idieresis" horiz-adv-x="1110" d="M1620 1468T1604 1486T1587 1527T1595 1565T1616 1595Q1647 1624 1681 1624T1732 1607T1749 1567T1740 1527T1717 1497Q1686 1468 1653 1468ZM1403 1484T1385 1476T1344 1468T1305 1486T1288
1527T1296 1565T1318 1595Q1348 1624 1382 1624T1432 1607T1448 1567T1440 1527T1417 1497ZM1177 771T1207 857T1237 1004T1248 1066T1260 994T1230 834T1149 671T1029 534T882 428Q716 337 556 337H533Q284 94 52 22Q-24 -2 -83 -2T-184 9T-254 40Q-311 80 -317
142Q-322 205 -264 227Q-207 249 -184 214Q-165 185 -185 164T-224 140Q-258 136 -276 145V139Q-271 91 -224 58T-106 24T22 41T141 98Q262 175 421 363Q288 425 288 608Q288 794 442 978Q596 1161 844 1272Q1109 1392 1402 1392L1577 1378L1679 1385Q1716 1385
1716 1371Q1716 1354 1681 1352T1616 1350T1560 1351Q1531 1344 1510 1336L1466 1320Q1169 1189 813 673Q691 498 560 365H568Q710 365 866 456Q1025 549 1126 696Q1177 771 1207 857ZM1509 1358Q1457 1366 1392 1366T1240 1346T1063 1289T885 1202T715 1093T565
970T445 838Q336 696 336 583Q336 429 439 384Q543 515 598 592Q863 957 1114 1156Q1323 1322 1509 1358Z" />
<glyph unicode="&#xd0;" glyph-name="Eth" horiz-adv-x="1707" d="M503 49Q334 -6 146 -6Q12 -6 -24 41Q-34 54 -34 68T-21 98T19 126Q78 154 138 154T225 151T284 142Q340 130 396 114T455 97T462 95Q585 163 750 332L872 466H754Q776 483 782 500H902Q902 500
1183 836L1273 935Q1320 985 1380 1042T1523 1154Q1389 1360 1054 1360Q867 1360 680 1256Q511 1161 400 1017Q291 875 291 757Q291 685 340 641T461 597T598 621T734 686T872 784T994 904Q1113 1045 1122 1173Q1125 1196 1133 1196Q1145 1196 1145 1175Q1145 1032
1048 890Q900 671 646 594Q564 569 498 569T388 584T310 627Q233 689 233 771T262 928T344 1069T471 1193T636 1294Q829 1384 1048 1384Q1396 1384 1560 1178Q1788 1322 1969 1330Q1984 1330 1984 1322T1979 1312T1951 1305Q1775 1284 1594 1128Q1668 1005 1668
861T1635 607T1544 404T1406 235T1230 108Q1030 -2 811 -2Q674 -2 503 49ZM1343 500Q1336 493 1327 466H1062Q943 323 855 252Q696 124 551 67Q678 28 796 28T1010 55T1194 133T1357 256T1487 418Q1604 609 1604 836Q1604 987 1555 1094Q1443 990 1358 867L1213
662Q1153 578 1090 500H1343ZM417 73Q269 111 174 111T37 98T-6 68Q-6 26 163 26Q311 26 417 73Z" />
<glyph unicode="&#xd1;" glyph-name="Ntilde" horiz-adv-x="1432" d="M1534 1492Q1524 1492 1524 1506Q1524 1545 1564 1587Q1634 1660 1687 1660Q1731 1660 1778 1627Q1853 1575 1895 1575Q1956 1575 1987 1651Q1997 1669 2004 1669Q2018 1669 2018 1655Q2018
1620 1978 1576Q1909 1500 1853 1500Q1810 1500 1758 1535T1687 1578T1647 1586Q1583 1586 1553 1508Q1544 1492 1534 1492ZM687 -19T687 -8T693 8Q741 45 780 150Q795 193 813 250L855 388Q974 776 1228 1209L960 878L768 655L649 522Q287 126 84 32Q10 -2 -46
-2T-141 8T-204 38Q-253 75 -253 133Q-253 173 -230 190Q-196 217 -170 217Q-109 217 -109 171Q-109 151 -126 136T-169 121T-213 131V125Q-213 81 -175 53T-72 25T57 53T209 146Q396 284 658 578L935 896Q1276 1304 1319 1368Q1337 1390 1345 1390T1353 1383T1349
1368L1335 1342Q1298 1281 1279 1212T1249 1102T1224 1014L1192 908Q1121 684 1020 491L846 178L1149 538L1282 690L1420 842L1555 986Q1937 1382 2197 1466Q2285 1495 2380 1495T2529 1450T2584 1318Q2586 1223 2488 1106Q2386 986 2232 912Q2196 895 2181 895T2165
902T2203 925T2302 982T2412 1074Q2521 1191 2521 1301Q2521 1380 2479 1423T2356 1467T2181 1432T1976 1320Q1757 1169 1447 830L1214 569L1020 341L757 28Q718 -19 703 -19ZM512 1150Q494 1129 474 1129T439 1141T424 1172T436 1205T470 1219T508 1210T540 1182Q570
1143 570 1084T543 975T472 890Q378 815 255 815Q130 815 49 884Q-41 959 -41 1091Q-41 1233 84 1328Q210 1424 409 1424Q528 1424 589 1406T696 1369T786 1328L888 1281Q966 1249 1015 1249Q1110 1249 1184 1315Q1189 1319 1195 1319T1202 1312Q1202 1304 1188
1288Q1129 1229 1010 1204Q978 1198 951 1198T887 1204T812 1220Q735 1242 673 1278T566 1334T486 1366Q428 1385 356 1385T218 1363T100 1300Q-9 1212 -9 1085Q-9 978 62 909Q134 839 251 839Q362 839 446 904Q539 974 539 1081Q539 1121 512 1150Z" />
<glyph unicode="&#xd2;" glyph-name="Ograve" horiz-adv-x="1269" d="M1181 1471Q1181 1459 1171 1459Q1159 1459 1117 1482T1037 1536T968 1598Q905 1666 905 1717T948 1768T1003 1697Q1016 1632 1040 1597Q1081 1536 1156 1495L1175 1480Q1181 1476 1181 1471ZM1228
925Q1228 1093 1058 1093Q931 1093 793 994Q576 839 498 576Q472 489 472 433T474 353T482 306Q495 248 507 230T522 207T518 197Q503 191 476 248Q442 322 442 412T467 593T536 762T640 907T770 1020Q917 1121 1068 1121Q1155 1121 1212 1068Q1277 1009 1277 907T1238
701T1131 497T971 307T773 148Q542 -2 323 -2Q130 -2 64 167Q41 224 41 309T69 491T149 683T272 868T430 1038T613 1184T814 1299Q1033 1401 1233 1401Q1435 1401 1488 1274Q1504 1236 1504 1204T1500 1148T1490 1101Q1471 1036 1455 1020T1432 1003T1425 1010Q1425
1018 1435 1031Q1459 1063 1467 1114T1476 1197T1462 1263T1416 1322Q1351 1373 1246 1373T1050 1341T866 1253T681 1121T506 958T351 775T226 586Q114 385 114 237Q114 87 238 39Q279 23 352 23T526 63T726 171T916 329T1076 519Q1228 737 1228 925Z" />
<glyph unicode="&#xd3;" glyph-name="Oacute" horiz-adv-x="1269" d="M1323 1697Q1332 1768 1376 1768T1420 1713Q1420 1668 1356 1598Q1295 1532 1232 1496T1157 1459T1144 1471Q1144 1476 1150 1480T1178 1498Q1271 1557 1306 1636Q1315 1657 1323 1697ZM1228
925Q1228 1093 1058 1093Q931 1093 793 994Q576 839 498 576Q472 489 472 433T474 353T482 306Q495 248 507 230T522 207T518 197Q503 191 476 248Q442 322 442 412T467 593T536 762T640 907T770 1020Q917 1121 1068 1121Q1155 1121 1212 1068Q1277 1009 1277 907T1238
701T1131 497T971 307T773 148Q542 -2 323 -2Q130 -2 64 167Q41 224 41 309T69 491T149 683T272 868T430 1038T613 1184T814 1299Q1033 1401 1233 1401Q1435 1401 1488 1274Q1504 1236 1504 1204T1500 1148T1490 1101Q1471 1036 1455 1020T1432 1003T1425 1010Q1425
1018 1435 1031Q1459 1063 1467 1114T1476 1197T1462 1263T1416 1322Q1351 1373 1246 1373T1050 1341T866 1253T681 1121T506 958T351 775T226 586Q114 385 114 237Q114 87 238 39Q279 23 352 23T526 63T726 171T916 329T1076 519Q1228 737 1228 925Z" />
<glyph unicode="&#xd4;" glyph-name="Ocircumflex" horiz-adv-x="1269" d="M1064 1528L966 1463Q926 1438 916 1438T906 1442Q906 1455 966 1500L1094 1600Q1161 1654 1230 1719Q1274 1768 1289 1768Q1297 1768 1297 1761Q1297 1748 1290 1731Q1266 1673 1266
1609Q1266 1498 1310 1459Q1314 1455 1314 1451T1310 1442T1297 1436Q1263 1436 1223 1508Q1200 1549 1196 1577L1190 1619Q1123 1567 1064 1528ZM1228 925Q1228 1093 1058 1093Q931 1093 793 994Q576 839 498 576Q472 489 472 433T474 353T482 306Q495 248 507
230T522 207T518 197Q503 191 476 248Q442 322 442 412T467 593T536 762T640 907T770 1020Q917 1121 1068 1121Q1155 1121 1212 1068Q1277 1009 1277 907T1238 701T1131 497T971 307T773 148Q542 -2 323 -2Q130 -2 64 167Q41 224 41 309T69 491T149 683T272 868T430
1038T613 1184T814 1299Q1033 1401 1233 1401Q1435 1401 1488 1274Q1504 1236 1504 1204T1500 1148T1490 1101Q1471 1036 1455 1020T1432 1003T1425 1010Q1425 1018 1435 1031Q1459 1063 1467 1114T1476 1197T1462 1263T1416 1322Q1351 1373 1246 1373T1050 1341T866
1253T681 1121T506 958T351 775T226 586Q114 385 114 237Q114 87 238 39Q279 23 352 23T526 63T726 171T916 329T1076 519Q1228 737 1228 925Z" />
<glyph unicode="&#xd5;" glyph-name="Otilde" horiz-adv-x="1269" d="M979 1492Q969 1492 969 1506Q969 1545 1009 1587Q1079 1660 1132 1660Q1176 1660 1223 1627Q1298 1575 1340 1575Q1401 1575 1432 1651Q1442 1669 1449 1669Q1463 1669 1463 1655Q1463 1620
1422 1576Q1354 1500 1298 1500Q1255 1500 1203 1535T1132 1578T1092 1586Q1028 1586 998 1508Q989 1492 979 1492ZM1228 925Q1228 1093 1058 1093Q931 1093 793 994Q576 839 498 576Q472 489 472 433T474 353T482 306Q495 248 507 230T522 207T518 197Q503 191
476 248Q442 322 442 412T467 593T536 762T640 907T770 1020Q917 1121 1068 1121Q1155 1121 1212 1068Q1277 1009 1277 907T1238 701T1131 497T971 307T773 148Q542 -2 323 -2Q130 -2 64 167Q41 224 41 309T69 491T149 683T272 868T430 1038T613 1184T814 1299Q1033
1401 1233 1401Q1435 1401 1488 1274Q1504 1236 1504 1204T1500 1148T1490 1101Q1471 1036 1455 1020T1432 1003T1425 1010Q1425 1018 1435 1031Q1459 1063 1467 1114T1476 1197T1462 1263T1416 1322Q1351 1373 1246 1373T1050 1341T866 1253T681 1121T506 958T351
775T226 586Q114 385 114 237Q114 87 238 39Q279 23 352 23T526 63T726 171T916 329T1076 519Q1228 737 1228 925Z" />
<glyph unicode="&#xd6;" glyph-name="Odieresis" horiz-adv-x="1269" d="M1354 1484T1336 1476T1294 1468T1255 1486T1238 1527T1246 1565T1268 1595Q1298 1624 1332 1624T1383 1607T1400 1567T1391 1527T1368 1497ZM1054 1484T1036 1476T995 1468T956 1486T939
1527T947 1565T968 1595Q999 1624 1033 1624T1083 1607T1099 1567T1091 1527T1068 1497ZM1228 925Q1228 1093 1058 1093Q931 1093 793 994Q576 839 498 576Q472 489 472 433T474 353T482 306Q495 248 507 230T522 207T518 197Q503 191 476 248Q442 322 442 412T467
593T536 762T640 907T770 1020Q917 1121 1068 1121Q1155 1121 1212 1068Q1277 1009 1277 907T1238 701T1131 497T971 307T773 148Q542 -2 323 -2Q130 -2 64 167Q41 224 41 309T69 491T149 683T272 868T430 1038T613 1184T814 1299Q1033 1401 1233 1401Q1435 1401
1488 1274Q1504 1236 1504 1204T1500 1148T1490 1101Q1471 1036 1455 1020T1432 1003T1425 1010Q1425 1018 1435 1031Q1459 1063 1467 1114T1476 1197T1462 1263T1416 1322Q1351 1373 1246 1373T1050 1341T866 1253T681 1121T506 958T351 775T226 586Q114 385 114
237Q114 87 238 39Q279 23 352 23T526 63T726 171T916 329T1076 519Q1228 737 1228 925Z" />
<glyph unicode="&#xd7;" glyph-name="multiply" horiz-adv-x="915" d="M169 272Q169 303 152 324L449 525L360 716Q386 729 404 752L496 557L798 762Q805 724 815 710L518 509L616 303Q595 295 568 272L471 477L169 272Z" />
<glyph unicode="&#xd8;" glyph-name="Oslash" horiz-adv-x="1269" d="M162 -177Q156 -176 147 -176H124Q113 -176 111 -177L247 6Q102 39 56 186Q41 236 41 314T69 489T149 680T272 865T430 1035T613 1183T814 1298Q1032 1401 1233 1401Q1259 1401 1285 1398L1427
1589Q1434 1586 1451 1586T1479 1588L1331 1390Q1416 1370 1460 1317T1504 1190Q1504 1136 1486 1096T1459 1044Q1440 1020 1433 1020T1425 1031Q1425 1035 1433 1045T1448 1070T1462 1105Q1476 1149 1476 1201T1437 1301T1312 1365L1125 1114Q1231 1087 1265 982Q1277
946 1277 875T1238 701T1131 497T971 307T773 148Q542 -2 323 -2H308Q301 -2 293 -1L162 -177ZM1265 1371Q1243 1373 1192 1373T1050 1341T866 1252T681 1120T506 957T351 774T226 584Q114 382 114 237Q114 159 151 104T265 30L1057 1093Q946 1093 812 1010Q684
930 586 798Q482 660 453 507Q447 486 432 486Q421 486 430 536T473 663T555 807T663 933T790 1032Q933 1121 1068 1121H1078L1265 1371ZM335 23Q510 23 726 171Q932 312 1076 519Q1228 737 1228 925Q1228 1064 1106 1088L312 23H335Z" />
<glyph unicode="&#xd9;" glyph-name="Ugrave" horiz-adv-x="1225" d="M1336 1471Q1336 1459 1326 1459Q1314 1459 1272 1482T1192 1536T1124 1598Q1060 1666 1060 1717T1103 1768T1158 1697Q1171 1632 1195 1597Q1236 1536 1311 1495L1330 1480Q1336 1476 1336
1471ZM112 -2Q17 -2 13 90Q6 248 282 563Q380 674 502 790T691 977T796 1098Q864 1188 861 1251Q855 1371 660 1371Q434 1371 221 1208Q95 1111 44 1006Q19 955 21 908T51 835T120 809T211 830T313 888T419 974T520 1077Q622 1193 668 1298Q682 1328 688 1328T696
1310Q699 1262 658 1173T558 1012T430 887Q290 779 148 779Q75 779 35 810T-8 897T16 1009T91 1123T207 1229T352 1318Q522 1401 685 1401Q776 1401 832 1364Q1074 1203 384 488Q156 251 119 204T69 135Q27 68 64 36Q79 23 119 23T234 52T398 142Q608 281 788 505Q807
530 842 572L1281 1090L1420 1249H1565Q1560 1242 1536 1213L1093 699Q978 570 894 481T733 279T659 90Q663 24 741 24Q832 24 962 124Q999 152 1027 181Q1039 174 1035 161T1029 145Q920 49 812 12Q770 -2 730 -2T655 22T618 105Q614 203 688 322Q395 72 202 14Q148
-2 112 -2Z" />
<glyph unicode="&#xda;" glyph-name="Uacute" horiz-adv-x="1225" d="M1478 1697Q1487 1768 1531 1768T1575 1713Q1575 1668 1511 1598Q1450 1532 1387 1496T1312 1459T1299 1471Q1299 1476 1305 1480T1332 1498Q1426 1557 1460 1636Q1470 1657 1478 1697ZM112
-2Q17 -2 13 90Q6 248 282 563Q380 674 502 790T691 977T796 1098Q864 1188 861 1251Q855 1371 660 1371Q434 1371 221 1208Q95 1111 44 1006Q19 955 21 908T51 835T120 809T211 830T313 888T419 974T520 1077Q622 1193 668 1298Q682 1328 688 1328T696 1310Q699
1262 658 1173T558 1012T430 887Q290 779 148 779Q75 779 35 810T-8 897T16 1009T91 1123T207 1229T352 1318Q522 1401 685 1401Q776 1401 832 1364Q1074 1203 384 488Q156 251 119 204T69 135Q27 68 64 36Q79 23 119 23T234 52T398 142Q608 281 788 505Q807 530
842 572L1281 1090L1420 1249H1565Q1560 1242 1536 1213L1093 699Q978 570 894 481T733 279T659 90Q663 24 741 24Q832 24 962 124Q999 152 1027 181Q1039 174 1035 161T1029 145Q920 49 812 12Q770 -2 730 -2T655 22T618 105Q614 203 688 322Q395 72 202 14Q148
-2 112 -2Z" />
<glyph unicode="&#xdb;" glyph-name="Ucircumflex" horiz-adv-x="1225" d="M1219 1528L1121 1463Q1081 1438 1071 1438T1061 1442Q1061 1455 1122 1500L1249 1600Q1316 1654 1385 1719Q1429 1768 1444 1768Q1452 1768 1452 1761Q1452 1748 1445 1731Q1421 1673
1421 1609Q1421 1498 1464 1459Q1469 1455 1469 1451T1465 1442T1452 1436Q1418 1436 1378 1508Q1355 1549 1351 1577L1345 1619Q1278 1567 1219 1528ZM112 -2Q17 -2 13 90Q6 248 282 563Q380 674 502 790T691 977T796 1098Q864 1188 861 1251Q855 1371 660 1371Q434
1371 221 1208Q95 1111 44 1006Q19 955 21 908T51 835T120 809T211 830T313 888T419 974T520 1077Q622 1193 668 1298Q682 1328 688 1328T696 1310Q699 1262 658 1173T558 1012T430 887Q290 779 148 779Q75 779 35 810T-8 897T16 1009T91 1123T207 1229T352 1318Q522
1401 685 1401Q776 1401 832 1364Q1074 1203 384 488Q156 251 119 204T69 135Q27 68 64 36Q79 23 119 23T234 52T398 142Q608 281 788 505Q807 530 842 572L1281 1090L1420 1249H1565Q1560 1242 1536 1213L1093 699Q978 570 894 481T733 279T659 90Q663 24 741
24Q832 24 962 124Q999 152 1027 181Q1039 174 1035 161T1029 145Q920 49 812 12Q770 -2 730 -2T655 22T618 105Q614 203 688 322Q395 72 202 14Q148 -2 112 -2Z" />
<glyph unicode="&#xdc;" glyph-name="Udieresis" horiz-adv-x="1225" d="M1509 1484T1491 1476T1449 1468T1410 1486T1393 1527T1401 1565T1422 1595Q1453 1624 1487 1624T1538 1607T1555 1567T1546 1527T1523 1497ZM1209 1484T1191 1476T1150 1468T1111 1486T1094
1527T1102 1565T1124 1595Q1154 1624 1188 1624T1238 1607T1254 1567T1246 1527T1223 1497ZM112 -2Q17 -2 13 90Q6 248 282 563Q380 674 502 790T691 977T796 1098Q864 1188 861 1251Q855 1371 660 1371Q434 1371 221 1208Q95 1111 44 1006Q19 955 21 908T51 835T120
809T211 830T313 888T419 974T520 1077Q622 1193 668 1298Q682 1328 688 1328T696 1310Q699 1262 658 1173T558 1012T430 887Q290 779 148 779Q75 779 35 810T-8 897T16 1009T91 1123T207 1229T352 1318Q522 1401 685 1401Q776 1401 832 1364Q1074 1203 384 488Q156
251 119 204T69 135Q27 68 64 36Q79 23 119 23T234 52T398 142Q608 281 788 505Q807 530 842 572L1281 1090L1420 1249H1565Q1560 1242 1536 1213L1093 699Q978 570 894 481T733 279T659 90Q663 24 741 24Q832 24 962 124Q999 152 1027 181Q1039 174 1035 161T1029
145Q920 49 812 12Q770 -2 730 -2T655 22T618 105Q614 203 688 322Q395 72 202 14Q148 -2 112 -2Z" />
<glyph unicode="&#xdd;" glyph-name="Yacute" horiz-adv-x="1195" d="M1504 1697Q1513 1768 1557 1768T1601 1713Q1601 1668 1537 1598Q1476 1532 1413 1496T1338 1459T1325 1471Q1325 1476 1331 1480T1358 1498Q1452 1557 1486 1636Q1496 1657 1504 1697ZM90
734Q-28 734 -28 852Q-28 961 87 1093Q263 1296 530 1376Q616 1401 683 1401T794 1393T873 1367Q946 1328 946 1253Q946 1166 900 1091Q815 952 644 795L535 684Q381 523 381 445Q381 416 397 395T441 374T503 385T583 423T693 498T836 617Q1007 770 1235 1024Q1383
1191 1507 1240Q1540 1253 1558 1253T1577 1241Q1577 1232 1561 1229L1532 1219Q1407 1170 1275 1005T1015 600T765 208T512 -49Q246 -264 7 -264Q-176 -264 -242 -163Q-263 -131 -263 -100T-255 -51T-233 -20Q-206 5 -173 5Q-158 5 -141 -6T-123 -39T-140 -76T-181
-91T-220 -85Q-223 -96 -223 -114T-205 -157T-156 -199Q-87 -238 -2 -238T166 -202T342 -94Q539 60 728 336L883 562L1034 768Q632 350 445 350Q367 350 346 418Q340 437 340 470T365 564T433 695Q519 832 628 943L784 1104Q875 1199 885 1224T895 1264Q895 1373
699 1373Q551 1373 380 1283Q223 1200 113 1079Q1 956 1 861Q1 776 92 776Q186 776 319 888Q420 973 494 1069Q615 1226 627 1270Q635 1284 637 1284Q645 1284 649 1252T628 1163T558 1046T453 930T330 830Q189 734 90 734Z" />
<glyph unicode="&#xde;" glyph-name="Thorn" horiz-adv-x="1377" d="M1080 469Q1101 469 1101 456T1059 442T962 426T855 384T757 323T676 250Q600 168 600 108Q600 55 661 34Q684 26 728 26T836 49T961 114T1080 212T1181 333Q1277 475 1277 611Q1277 702 1209
734Q1186 744 1144 744T1033 720T887 652Q720 558 574 416Q-81 -463 -438 -691Q-588 -787 -716 -787Q-760 -787 -779 -765T-798 -697T-754 -577T-604 -412Q-370 -212 116 -2L376 340Q652 691 763 820Q657 800 557 800T379 819T248 874Q138 948 138 1077Q138 1188
242 1280Q394 1413 673 1454Q761 1467 847 1467T933 1450Q933 1442 920 1442L848 1446Q639 1446 414 1318Q274 1239 212 1136Q181 1085 181 1036T210 949T290 884Q398 825 551 825Q665 825 799 862Q1167 1289 1333 1362Q1383 1384 1418 1384T1473 1367T1492 1324Q1492
1193 1316 1056Q1145 923 901 852L810 735L659 531Q937 773 1165 773Q1270 773 1322 702Q1363 645 1363 567T1338 418T1268 285T1162 170T1029 79Q876 -2 716 -2Q641 -2 600 34Q568 62 568 100T588 178T645 258T729 337T835 404Q960 469 1080 469ZM1460 1335Q1460
1362 1429 1362T1352 1332T1246 1244Q1125 1129 949 912Q1158 995 1306 1114Q1460 1239 1460 1335ZM-767 -672T-767 -717T-715 -762Q-497 -762 -129 -314L87 -39Q-298 -254 -431 -350T-628 -504T-729 -617Z" />
<glyph unicode="&#xdf;" glyph-name="germandbls" horiz-adv-x="1012" d="M487 32Q406 -2 338 -2T235 7T176 36Q123 75 119 141Q113 236 182 273Q200 283 223 283Q270 283 272 244Q275 205 230 190Q218 186 199 186T162 195Q145 170 147 142T163 92T198 56Q244
24 309 24T434 61T532 184Q616 367 584 748Q578 820 605 859Q643 913 746 988Q971 1171 1050 1276Q1128 1377 1122 1471Q1120 1513 1098 1531T1032 1549T938 1507T826 1394T693 1226L547 1024L115 382Q51 288 -36 172L-214 -72Q-486 -454 -506 -494Q-512 -495 -517
-496T-532 -499Q-557 -502 -573 -502T-600 -502T-622 -500Q-648 -496 -660 -492L-505 -290L-356 -90L-51 337L316 868Q652 1346 844 1497Q948 1579 1032 1579T1162 1544T1211 1458T1198 1362T1144 1268Q1070 1175 935 1085T749 955T672 885Q633 838 635 800Q638
740 659 684Q696 584 702 471T698 299T665 196Q624 113 545 62Q730 87 936 308Q969 344 990 370L1019 406L1041 389Q1032 379 1008 349T946 279T859 196T750 116Q614 32 487 32Z" />
<glyph unicode="&#xe0;" glyph-name="agrave" horiz-adv-x="899" d="M469 1222T512 1222T565 1158Q581 1049 606 1009Q650 939 731 893Q743 884 749 881T755 869T745 861T724 867L694 884Q601 940 534 1027Q469 1112 469 1167ZM399 -2Q299 -2 299 60Q299 111 357
188L420 268L410 272Q242 65 93 12Q52 -2 22 -2Q-101 -2 -101 129Q-101 283 22 423Q204 635 388 674Q443 685 482 685T543 680T583 664Q619 641 619 608T607 544L705 665Q732 657 755 657Q814 657 840 661L503 255Q383 115 383 58Q383 26 421 26T508 49T607 108T702
188T788 274T858 352L906 406L927 389L876 331Q588 -2 399 -2ZM122 358Q-19 187 -19 78Q-19 28 26 28Q172 28 447 351L531 452Q591 543 591 584Q591 654 521 654Q426 654 248 492Q187 436 122 358Z" />
<glyph unicode="&#xe1;" glyph-name="aacute" horiz-adv-x="899" d="M725 893Q810 943 851 1010Q876 1052 890 1158Q899 1222 942 1222T986 1167Q986 1110 922 1027Q844 926 732 867Q720 861 710 861T700 869T706 880T725 893ZM399 -2Q299 -2 299 60Q299 111 357
188L420 268L410 272Q242 65 93 12Q52 -2 22 -2Q-101 -2 -101 129Q-101 283 22 423Q204 635 388 674Q443 685 482 685T543 680T583 664Q619 641 619 608T607 544L705 665Q732 657 755 657Q814 657 840 661L503 255Q383 115 383 58Q383 26 421 26T508 49T607 108T702
188T788 274T858 352L906 406L927 389L876 331Q588 -2 399 -2ZM122 358Q-19 187 -19 78Q-19 28 26 28Q172 28 447 351L531 452Q591 543 591 584Q591 654 521 654Q426 654 248 492Q187 436 122 358Z" />
<glyph unicode="&#xe2;" glyph-name="acircumflex" horiz-adv-x="899" d="M912 873Q912 861 896 861Q863 861 827 930Q815 953 806 978Q794 1016 789 1071Q715 1002 657 958L549 879Q521 861 511 861Q505 861 505 864T506 870T511 877T525 890Q746 1086 802 1145T869
1213T888 1222Q896 1222 896 1215Q896 1209 889 1189Q866 1123 866 1055Q866 936 899 895Q912 878 912 873ZM399 -2Q299 -2 299 60Q299 111 357 188L420 268L410 272Q242 65 93 12Q52 -2 22 -2Q-101 -2 -101 129Q-101 283 22 423Q204 635 388 674Q443 685 482 685T543
680T583 664Q619 641 619 608T607 544L705 665Q732 657 755 657Q814 657 840 661L503 255Q383 115 383 58Q383 26 421 26T508 49T607 108T702 188T788 274T858 352L906 406L927 389L876 331Q588 -2 399 -2ZM122 358Q-19 187 -19 78Q-19 28 26 28Q172 28 447 351L531
452Q591 543 591 584Q591 654 521 654Q426 654 248 492Q187 436 122 358Z" />
<glyph unicode="&#xe3;" glyph-name="atilde" horiz-adv-x="899" d="M518 902Q510 885 496 885Q488 885 488 899Q488 936 528 979Q598 1053 651 1053Q693 1053 742 1020Q817 968 853 968Q920 968 952 1044Q962 1061 972 1061T982 1047Q982 1011 942 967Q875 893
817 893Q783 893 755 909T699 944Q646 978 611 978Q548 978 518 902ZM399 -2Q299 -2 299 60Q299 111 357 188L420 268L410 272Q242 65 93 12Q52 -2 22 -2Q-101 -2 -101 129Q-101 283 22 423Q204 635 388 674Q443 685 482 685T543 680T583 664Q619 641 619 608T607
544L705 665Q732 657 755 657Q814 657 840 661L503 255Q383 115 383 58Q383 26 421 26T508 49T607 108T702 188T788 274T858 352L906 406L927 389L876 331Q588 -2 399 -2ZM122 358Q-19 187 -19 78Q-19 28 26 28Q172 28 447 351L531 452Q591 543 591 584Q591 654
521 654Q426 654 248 492Q187 436 122 358Z" />
<glyph unicode="&#xe4;" glyph-name="adieresis" horiz-adv-x="899" d="M934 964T916 957T875 949T835 966T818 1006T826 1045T848 1076Q879 1105 913 1105T963 1087T980 1046T971 1007T948 977ZM634 964T616 957T576 949T537 966T520 1006T528 1045T550 1076Q579
1105 613 1105T663 1087T679 1046T671 1007T648 977ZM399 -2Q299 -2 299 60Q299 111 357 188L420 268L410 272Q242 65 93 12Q52 -2 22 -2Q-101 -2 -101 129Q-101 283 22 423Q204 635 388 674Q443 685 482 685T543 680T583 664Q619 641 619 608T607 544L705 665Q732
657 755 657Q814 657 840 661L503 255Q383 115 383 58Q383 26 421 26T508 49T607 108T702 188T788 274T858 352L906 406L927 389L876 331Q588 -2 399 -2ZM122 358Q-19 187 -19 78Q-19 28 26 28Q172 28 447 351L531 452Q591 543 591 584Q591 654 521 654Q426 654
248 492Q187 436 122 358Z" />
<glyph unicode="&#xe5;" glyph-name="aring" horiz-adv-x="899" d="M822 1132Q861 1132 882 1111T903 1056T881 987T823 924Q744 861 662 861T580 934T662 1070T822 1132ZM805 1104Q746 1104 691 1049Q637 995 637 941T683 887Q738 887 791 940T845 1049T805 1104ZM399
-2Q299 -2 299 60Q299 111 357 188L420 268L410 272Q242 65 93 12Q52 -2 22 -2Q-101 -2 -101 129Q-101 283 22 423Q204 635 388 674Q443 685 482 685T543 680T583 664Q619 641 619 608T607 544L705 665Q732 657 755 657Q814 657 840 661L503 255Q383 115 383 58Q383
26 421 26T508 49T607 108T702 188T788 274T858 352L906 406L927 389L876 331Q588 -2 399 -2ZM122 358Q-19 187 -19 78Q-19 28 26 28Q172 28 447 351L531 452Q591 543 591 584Q591 654 521 654Q426 654 248 492Q187 436 122 358Z" />
<glyph unicode="&#xe6;" glyph-name="ae" horiz-adv-x="1254" d="M130 -2Q7 -2 7 129Q7 283 130 423Q355 685 612 685Q665 685 696 663T727 603Q727 593 725 583Q771 650 782 665Q811 657 828 657Q870 657 896 661L821 554Q987 685 1140 685Q1201 685 1225 665T1252
618T1231 554T1150 475Q1018 380 744 291Q685 195 685 122Q685 77 708 56Q747 23 808 23T940 49T1072 115T1184 202T1272 292T1335 366T1369 406L1391 389Q1378 378 1352 344T1285 267T1192 175T1076 86Q930 -6 781 -6Q645 -6 608 101Q572 207 646 356Q523 209
375 105Q222 -2 130 -2ZM1187 605Q1187 661 1127 661T989 589T807 380L767 327Q1069 430 1158 537Q1187 572 1187 605ZM699 594Q699 654 638 654Q542 654 360 490Q298 433 228 349Q89 184 89 80Q89 28 135 28Q279 28 545 341Q583 386 610 422L661 489Q699 556 699
594Z" />
<glyph unicode="&#xe7;" glyph-name="ccedilla" horiz-adv-x="665" d="M85 -169Q85 -125 17 -125Q-5 -125 -26 -132L57 -5Q-76 3 -113 108Q-124 139 -124 189T-94 312T-5 453T113 566T230 637Q338 687 440 685Q530 682 554 624Q578 565 528 516Q495 482 464 482Q392
482 390 541Q389 569 411 587T456 608Q488 610 516 597V601Q514 659 443 659Q298 659 68 357Q-27 231 -27 129Q-27 85 -3 62Q39 23 104 23T243 50T380 118T495 207T585 298T645 371T671 406L693 389L666 354Q483 110 250 24Q173 -5 89 -6L50 -65Q67 -60 97 -60T152
-83T177 -134T169 -180T148 -217Q93 -285 -26 -338Q-75 -359 -94 -359T-113 -345Q-113 -336 -92 -328Q-5 -300 40 -262T85 -169Z" />
<glyph unicode="&#xe8;" glyph-name="egrave" horiz-adv-x="674" d="M339 1222T382 1222T435 1158Q451 1049 476 1009Q520 939 601 893Q613 884 619 881T625 869T615 861T594 867L564 884Q471 940 404 1027Q339 1112 339 1167ZM323 46T250 20T110 -6T10 7T-47
45Q-141 147 -46 346Q-5 434 78 506T224 615Q346 685 453 685Q559 685 564 619Q571 512 304 386Q206 340 57 291Q-2 195 -2 135T29 49T121 23T252 49T384 115T496 202T584 292T647 366T681 406L702 389Q689 378 663 344T596 267T503 175T387 87ZM80 326Q382 432
469 537Q498 572 498 605Q498 661 446 661Q354 661 216 500Q120 388 80 326Z" />
<glyph unicode="&#xe9;" glyph-name="eacute" horiz-adv-x="674" d="M595 893Q680 943 721 1010Q746 1052 760 1158Q769 1222 812 1222T856 1167Q856 1110 792 1027Q714 926 602 867Q590 861 580 861T570 869T576 880T595 893ZM323 46T250 20T110 -6T10 7T-47
45Q-141 147 -46 346Q-5 434 78 506T224 615Q346 685 453 685Q559 685 564 619Q571 512 304 386Q206 340 57 291Q-2 195 -2 135T29 49T121 23T252 49T384 115T496 202T584 292T647 366T681 406L702 389Q689 378 663 344T596 267T503 175T387 87ZM80 326Q382 432
469 537Q498 572 498 605Q498 661 446 661Q354 661 216 500Q120 388 80 326Z" />
<glyph unicode="&#xea;" glyph-name="ecircumflex" horiz-adv-x="674" d="M782 873Q782 861 766 861Q733 861 697 930Q685 953 676 978Q664 1016 659 1071Q585 1002 527 958L419 879Q391 861 381 861Q375 861 375 864T376 870T381 877T395 890Q616 1086 672 1145T739
1213T758 1222Q766 1222 766 1215Q766 1209 759 1189Q736 1123 736 1055Q736 936 769 895Q782 878 782 873ZM323 46T250 20T110 -6T10 7T-47 45Q-141 147 -46 346Q-5 434 78 506T224 615Q346 685 453 685Q559 685 564 619Q571 512 304 386Q206 340 57 291Q-2 195
-2 135T29 49T121 23T252 49T384 115T496 202T584 292T647 366T681 406L702 389Q689 378 663 344T596 267T503 175T387 87ZM80 326Q382 432 469 537Q498 572 498 605Q498 661 446 661Q354 661 216 500Q120 388 80 326Z" />
<glyph unicode="&#xeb;" glyph-name="edieresis" horiz-adv-x="674" d="M804 964T786 957T745 949T705 966T688 1006T696 1045T718 1076Q749 1105 783 1105T833 1087T850 1046T841 1007T818 977ZM504 964T486 957T446 949T407 966T390 1006T398 1045T420 1076Q449
1105 483 1105T533 1087T549 1046T541 1007T518 977ZM323 46T250 20T110 -6T10 7T-47 45Q-141 147 -46 346Q-5 434 78 506T224 615Q346 685 453 685Q559 685 564 619Q571 512 304 386Q206 340 57 291Q-2 195 -2 135T29 49T121 23T252 49T384 115T496 202T584 292T647
366T681 406L702 389Q689 378 663 344T596 267T503 175T387 87ZM80 326Q382 432 469 537Q498 572 498 605Q498 661 446 661Q354 661 216 500Q120 388 80 326Z" />
<glyph unicode="&#xec;" glyph-name="igrave" horiz-adv-x="453" d="M207 1222T250 1222T303 1158Q319 1049 344 1009Q388 939 469 893Q481 884 487 881T493 869T483 861T462 867L432 884Q339 940 272 1027Q207 1112 207 1167ZM-106 26T-47 26T64 53T170 120T274
209L364 299Q404 341 430 371T461 407L481 389Q471 379 444 347T375 271T283 179T176 91Q47 -2 -50 -2Q-112 -2 -149 20T-186 72T-180 124T-158 179T-114 254T-40 357T71 496L225 678Q237 675 274 675H321Q347 675 363 677Q32 282 -9 228T-71 142Q-106 89 -106
58Z" />
<glyph unicode="&#xed;" glyph-name="iacute" horiz-adv-x="453" d="M464 893Q549 943 590 1010Q615 1052 630 1158Q638 1222 681 1222T725 1167Q725 1110 661 1027Q583 926 470 867Q459 861 449 861T439 869T445 880T464 893ZM-106 26T-47 26T64 53T170 120T274
209L364 299Q404 341 430 371T461 407L481 389Q471 379 444 347T375 271T283 179T176 91Q47 -2 -50 -2Q-112 -2 -149 20T-186 72T-180 124T-158 179T-114 254T-40 357T71 496L225 678Q237 675 274 675H321Q347 675 363 677Q32 282 -9 228T-71 142Q-106 89 -106
58Z" />
<glyph unicode="&#xee;" glyph-name="icircumflex" horiz-adv-x="453" d="M651 873Q651 861 635 861Q602 861 566 930Q554 953 546 978Q533 1016 528 1071Q454 1002 396 958L288 879Q260 861 250 861Q244 861 244 864T245 870T250 877T264 890Q485 1086 541 1145T608
1213T627 1222Q635 1222 635 1215Q635 1209 628 1189Q605 1123 605 1055Q605 936 638 895Q651 878 651 873ZM-106 26T-47 26T64 53T170 120T274 209L364 299Q404 341 430 371T461 407L481 389Q471 379 444 347T375 271T283 179T176 91Q47 -2 -50 -2Q-112 -2 -149
20T-186 72T-180 124T-158 179T-114 254T-40 357T71 496L225 678Q237 675 274 675H321Q347 675 363 677Q32 282 -9 228T-71 142Q-106 89 -106 58Z" />
<glyph unicode="&#xef;" glyph-name="idieresis" horiz-adv-x="453" d="M672 964T654 957T613 949T573 966T556 1006T564 1045T586 1076Q617 1105 651 1105T701 1087T718 1046T709 1007T686 977ZM372 964T354 957T314 949T275 966T258 1006T266 1045T288 1076Q317
1105 351 1105T401 1087T417 1046T409 1007T386 977ZM-106 26T-47 26T64 53T170 120T274 209L364 299Q404 341 430 371T461 407L481 389Q471 379 444 347T375 271T283 179T176 91Q47 -2 -50 -2Q-112 -2 -149 20T-186 72T-180 124T-158 179T-114 254T-40 357T71
496L225 678Q237 675 274 675H321Q347 675 363 677Q32 282 -9 228T-71 142Q-106 89 -106 58Z" />
<glyph unicode="&#xf0;" glyph-name="eth" horiz-adv-x="907" d="M399 147Q231 -2 66 -2Q-47 -2 -79 92Q-89 121 -89 161T-74 252T-32 353T34 452T118 542Q275 685 449 685Q564 685 590 593Q726 832 770 1033L561 953Q561 968 557 983L777 1068Q787 1126 788 1196T774
1308Q756 1360 756 1372T765 1384T779 1381T799 1344Q841 1256 841 1110V1092L1057 1176Q1056 1162 1060 1145L839 1060Q826 853 716 609Q606 367 462 209Q415 123 415 70Q415 24 472 24Q586 24 813 284L914 406L935 389Q925 378 899 345T834 269L750 178Q578 -2
469 -2Q383 -2 383 71Q383 110 399 147ZM569 556Q559 644 470 644Q407 644 349 598Q244 515 135 376Q20 236 0 155Q-7 127 -7 96T12 45T65 26T132 36T202 74Q305 151 479 413Q527 485 569 556Z" />
<glyph unicode="&#xf1;" glyph-name="ntilde" horiz-adv-x="1042" d="M547 829Q538 812 525 812Q517 812 517 826Q517 863 558 906Q627 980 680 980Q722 980 771 946Q846 895 882 895Q949 895 981 971Q991 988 1001 988T1011 974Q1011 938 971 894Q904 820 846
820Q812 820 784 836T728 871Q675 905 640 905Q577 905 547 829ZM36 19Q9 24 -24 24Q-77 24 -117 14L230 510Q295 601 297 618Q301 651 276 651Q239 651 92 468L28 389Q20 385 12 393T7 406Q36 437 72 484T149 576Q247 685 312 685Q422 685 382 572Q374 548 347
510L137 218L142 207Q394 483 500 572Q601 656 650 670T731 685T785 676T822 653Q848 627 848 591T834 516T788 426Q721 319 562 147Q496 78 493 67T490 49Q490 26 551 26T666 51T771 116T869 201T953 290T1015 364T1049 406L1070 389Q1060 378 1034 345T970 269T883
178T780 90Q654 -2 552 -2Q462 -2 427 43Q416 57 416 76T421 119T448 182Q495 263 581 360T695 491T738 550Q768 598 768 624Q768 660 720 660Q621 660 393 436Q278 324 129 141L36 19Z" />
<glyph unicode="&#xf2;" glyph-name="ograve" horiz-adv-x="734" d="M331 1219T374 1219T427 1156Q443 1046 468 1006Q512 936 593 890Q605 881 611 878T617 866T607 858T586 864L556 881Q463 937 396 1024Q331 1108 331 1163ZM450 161Q413 161 396 191Q277 56
139 12Q93 -2 50 -2T-25 8T-76 36Q-157 106 -92 277Q-67 344 -28 402T61 509T168 598Q297 685 420 685Q473 685 511 658T553 579T547 482T520 392Q484 300 418 218Q425 189 456 189T516 203T573 239T629 287T680 338L718 380Q734 399 741 406L763 389Q750 377 730
355T685 308L632 256Q529 161 450 161ZM35 36Q51 28 80 28Q145 28 247 101Q325 157 386 230V234Q386 319 450 362Q467 374 482 379Q530 481 527 546Q521 649 451 649Q333 649 120 383Q-17 211 -9 115Q-9 60 35 36Z" />
<glyph unicode="&#xf3;" glyph-name="oacute" horiz-adv-x="734" d="M588 890Q673 940 714 1007Q739 1049 754 1156Q762 1219 805 1219T849 1164Q849 1107 785 1024Q707 923 594 864Q583 858 573 858T563 866T569 877T588 890ZM450 161Q413 161 396 191Q277 56
139 12Q93 -2 50 -2T-25 8T-76 36Q-157 106 -92 277Q-67 344 -28 402T61 509T168 598Q297 685 420 685Q473 685 511 658T553 579T547 482T520 392Q484 300 418 218Q425 189 456 189T516 203T573 239T629 287T680 338L718 380Q734 399 741 406L763 389Q750 377 730
355T685 308L632 256Q529 161 450 161ZM35 36Q51 28 80 28Q145 28 247 101Q325 157 386 230V234Q386 319 450 362Q467 374 482 379Q530 481 527 546Q521 649 451 649Q333 649 120 383Q-17 211 -9 115Q-9 60 35 36Z" />
<glyph unicode="&#xf4;" glyph-name="ocircumflex" horiz-adv-x="734" d="M775 870Q775 858 759 858Q726 858 690 927Q678 950 670 976Q657 1013 652 1068Q578 999 520 956L412 876Q384 858 374 858Q368 858 368 861T369 867T374 874T388 887Q609 1083 665 1142T732
1210T751 1219Q759 1219 759 1212Q759 1206 752 1186Q729 1120 729 1052Q729 933 762 892Q775 875 775 870ZM450 161Q413 161 396 191Q277 56 139 12Q93 -2 50 -2T-25 8T-76 36Q-157 106 -92 277Q-67 344 -28 402T61 509T168 598Q297 685 420 685Q473 685 511 658T553
579T547 482T520 392Q484 300 418 218Q425 189 456 189T516 203T573 239T629 287T680 338L718 380Q734 399 741 406L763 389Q750 377 730 355T685 308L632 256Q529 161 450 161ZM35 36Q51 28 80 28Q145 28 247 101Q325 157 386 230V234Q386 319 450 362Q467 374
482 379Q530 481 527 546Q521 649 451 649Q333 649 120 383Q-17 211 -9 115Q-9 60 35 36Z" />
<glyph unicode="&#xf5;" glyph-name="otilde" horiz-adv-x="734" d="M380 899Q372 882 358 882Q350 882 350 896Q350 933 390 976Q460 1050 513 1050Q555 1050 604 1016Q679 965 715 965Q782 965 814 1041Q824 1058 834 1058T844 1044Q844 1008 804 964Q737 890
679 890Q645 890 617 906T561 941Q508 975 473 975Q410 975 380 899ZM450 161Q413 161 396 191Q277 56 139 12Q93 -2 50 -2T-25 8T-76 36Q-157 106 -92 277Q-67 344 -28 402T61 509T168 598Q297 685 420 685Q473 685 511 658T553 579T547 482T520 392Q484 300 418
218Q425 189 456 189T516 203T573 239T629 287T680 338L718 380Q734 399 741 406L763 389Q750 377 730 355T685 308L632 256Q529 161 450 161ZM35 36Q51 28 80 28Q145 28 247 101Q325 157 386 230V234Q386 319 450 362Q467 374 482 379Q530 481 527 546Q521 649
451 649Q333 649 120 383Q-17 211 -9 115Q-9 60 35 36Z" />
<glyph unicode="&#xf6;" glyph-name="odieresis" horiz-adv-x="734" d="M796 961T778 954T737 946T697 963T680 1003T688 1042T710 1072Q741 1102 775 1102T825 1084T842 1043T833 1004T810 974ZM496 961T478 954T438 946T399 963T382 1003T390 1042T412 1072Q441
1102 475 1102T525 1084T541 1043T533 1004T510 974ZM450 161Q413 161 396 191Q277 56 139 12Q93 -2 50 -2T-25 8T-76 36Q-157 106 -92 277Q-67 344 -28 402T61 509T168 598Q297 685 420 685Q473 685 511 658T553 579T547 482T520 392Q484 300 418 218Q425 189
456 189T516 203T573 239T629 287T680 338L718 380Q734 399 741 406L763 389Q750 377 730 355T685 308L632 256Q529 161 450 161ZM35 36Q51 28 80 28Q145 28 247 101Q325 157 386 230V234Q386 319 450 362Q467 374 482 379Q530 481 527 546Q521 649 451 649Q333
649 120 383Q-17 211 -9 115Q-9 60 35 36Z" />
<glyph unicode="&#xf7;" glyph-name="divide" horiz-adv-x="963" d="M697 674T677 666T633 657T591 676T572 719T580 762T604 794Q637 826 675 826Q749 826 749 757Q749 720 723 697ZM816 518Q792 483 788 462H210Q224 477 230 490T244 518H816ZM342 152T323 172T304
216T313 258T338 290Q372 323 409 323Q480 323 480 254Q480 215 455 193Q410 152 376 152Z" />
<glyph unicode="&#xf8;" glyph-name="oslash" horiz-adv-x="734" d="M48 -2L34 -1L-92 -169Q-99 -168 -104 -168T-117 -168T-130 -169L-2 2Q-112 23 -121 131Q-128 252 -24 408Q54 520 168 598Q297 685 420 685Q463 685 495 668L654 880Q659 878 666 878H697L523
647Q550 618 553 573T547 482T520 392Q484 300 418 218Q425 189 456 189T516 203T573 239T629 287T680 338L718 380Q734 399 741 406L763 389Q750 377 730 355T685 308L632 256Q529 161 471 161T396 191Q277 56 139 12Q93 -2 48 -2ZM478 644Q463 649 451 649Q333
649 120 383Q-17 211 -9 115Q-9 66 27 41L478 644ZM57 29Q61 28 65 28H74Q177 28 321 162Q356 194 386 230V234Q386 319 450 362Q467 374 482 379Q561 547 505 624L57 29Z" />
<glyph unicode="&#xf9;" glyph-name="ugrave" horiz-adv-x="887" d="M412 1222T455 1222T508 1158Q524 1049 549 1009Q593 939 674 893Q686 884 692 881T698 869T688 861T667 867L637 884Q544 940 477 1027Q412 1112 412 1167ZM-81 59Q-81 23 -33 23Q34 23 111
74Q277 185 457 406L684 679Q732 673 771 673T836 676L738 563L384 132Q349 89 349 62Q349 26 397 26T496 51T599 116T700 201T789 290L894 406L914 389L875 345Q846 312 804 269L711 178Q520 -2 394 -2Q353 -2 327 20T298 81Q296 154 349 246Q119 -2 -41 -2Q-131
-2 -156 62Q-163 80 -164 108T-151 175T-107 259T-36 358L144 576Q186 628 233 679Q272 673 296 673H330Q373 673 385 676Q268 548 221 491L22 252Q-83 130 -81 59Z" />
<glyph unicode="&#xfa;" glyph-name="uacute" horiz-adv-x="887" d="M668 893Q753 943 794 1010Q819 1052 834 1158Q842 1222 885 1222T929 1167Q929 1110 865 1027Q787 926 674 867Q663 861 653 861T643 869T649 880T668 893ZM-81 59Q-81 23 -33 23Q34 23 111
74Q277 185 457 406L684 679Q732 673 771 673T836 676L738 563L384 132Q349 89 349 62Q349 26 397 26T496 51T599 116T700 201T789 290L894 406L914 389L875 345Q846 312 804 269L711 178Q520 -2 394 -2Q353 -2 327 20T298 81Q296 154 349 246Q119 -2 -41 -2Q-131
-2 -156 62Q-163 80 -164 108T-151 175T-107 259T-36 358L144 576Q186 628 233 679Q272 673 296 673H330Q373 673 385 676Q268 548 221 491L22 252Q-83 130 -81 59Z" />
<glyph unicode="&#xfb;" glyph-name="ucircumflex" horiz-adv-x="887" d="M855 873Q855 861 839 861Q806 861 770 930Q758 953 750 978Q737 1016 732 1071Q658 1002 600 958L492 879Q464 861 454 861Q448 861 448 864T449 870T454 877T468 890Q689 1086 745 1145T812
1213T831 1222Q839 1222 839 1215Q839 1209 832 1189Q809 1123 809 1055Q809 936 842 895Q855 878 855 873ZM-81 59Q-81 23 -33 23Q34 23 111 74Q277 185 457 406L684 679Q732 673 771 673T836 676L738 563L384 132Q349 89 349 62Q349 26 397 26T496 51T599 116T700
201T789 290L894 406L914 389L875 345Q846 312 804 269L711 178Q520 -2 394 -2Q353 -2 327 20T298 81Q296 154 349 246Q119 -2 -41 -2Q-131 -2 -156 62Q-163 80 -164 108T-151 175T-107 259T-36 358L144 576Q186 628 233 679Q272 673 296 673H330Q373 673 385 676Q268
548 221 491L22 252Q-83 130 -81 59Z" />
<glyph unicode="&#xfc;" glyph-name="udieresis" horiz-adv-x="887" d="M877 964T859 957T818 949T778 966T761 1006T769 1045T791 1076Q822 1105 856 1105T906 1087T923 1046T914 1007T891 977ZM577 964T559 957T519 949T480 966T463 1006T471 1045T492 1076Q522
1105 556 1105T606 1087T622 1046T614 1007T591 977ZM-81 59Q-81 23 -33 23Q34 23 111 74Q277 185 457 406L684 679Q732 673 771 673T836 676L738 563L384 132Q349 89 349 62Q349 26 397 26T496 51T599 116T700 201T789 290L894 406L914 389L875 345Q846 312 804
269L711 178Q520 -2 394 -2Q353 -2 327 20T298 81Q296 154 349 246Q119 -2 -41 -2Q-131 -2 -156 62Q-163 80 -164 108T-151 175T-107 259T-36 358L144 576Q186 628 233 679Q272 673 296 673H330Q373 673 385 676Q268 548 221 491L22 252Q-83 130 -81 59Z" />
<glyph unicode="&#xfd;" glyph-name="yacute" horiz-adv-x="909" d="M671 893Q756 943 797 1010Q822 1052 836 1158Q845 1222 888 1222T932 1167Q932 1110 868 1027Q790 926 678 867Q666 861 656 861T646 869T652 880T671 893ZM-91 70Q-91 24 -32 24T98 54T239
134Q372 227 484 366Q660 567 695 609L749 676Q788 669 806 669Q857 669 883 673L535 244L358 7L206 -191Q464 -67 602 56Q692 136 771 232L915 406L936 389L810 240Q698 108 623 43T486 -64Q368 -142 171 -235Q-15 -468 -109 -559T-259 -688T-366 -749Q-454 -787
-575 -787Q-636 -787 -656 -744Q-662 -732 -662 -706T-629 -634T-514 -530Q-352 -416 46 -248L453 268L442 272Q347 170 248 110Q63 -2 -48 -2Q-104 -2 -132 20T-160 75T-154 134T-130 198Q-93 269 11 415Q57 472 122 538L261 679L308 674Q324 673 357 673T418
676Q329 596 285 546L214 466Q-7 221 -35 180Q-91 100 -91 70ZM11 -291Q-492 -506 -594 -633Q-630 -678 -630 -720Q-630 -731 -617 -745T-559 -760T-462 -741T-342 -670Q-221 -574 11 -291Z" />
<glyph unicode="&#xfe;" glyph-name="thorn" horiz-adv-x="855" d="M363 -2Q247 -2 247 97Q247 247 576 488Q706 583 706 628Q706 640 695 650T650 660Q521 660 274 452Q122 318 58 253Q-95 93 -149 28L-260 -109L-492 -414L-666 -654Q-694 -694 -697 -701Q-726
-709 -765 -709Q-839 -709 -864 -700L-313 -6L72 495L778 1372L938 1579Q992 1573 1027 1573T1090 1580L704 1122L325 656L16 266L24 258Q335 557 483 634Q559 674 597 679T665 685Q759 685 759 602Q759 439 457 227Q322 130 305 94Q299 82 299 71Q299 26 369 26Q516
26 738 264L862 406L883 389L831 329Q552 -2 363 -2Z" />
<glyph unicode="&#xff;" glyph-name="ydieresis" horiz-adv-x="909" d="M881 964T863 957T822 949T782 966T765 1006T773 1045T795 1076Q826 1105 860 1105T910 1087T927 1046T918 1007T895 977ZM581 964T563 957T523 949T484 966T467 1006T475 1045T496 1076Q526
1105 560 1105T610 1087T626 1046T618 1007T595 977ZM-91 70Q-91 24 -32 24T98 54T239 134Q372 227 484 366Q660 567 695 609L749 676Q788 669 806 669Q857 669 883 673L535 244L358 7L206 -191Q464 -67 602 56Q692 136 771 232L915 406L936 389L810 240Q698 108
623 43T486 -64Q368 -142 171 -235Q-15 -468 -109 -559T-259 -688T-366 -749Q-454 -787 -575 -787Q-636 -787 -656 -744Q-662 -732 -662 -706T-629 -634T-514 -530Q-352 -416 46 -248L453 268L442 272Q347 170 248 110Q63 -2 -48 -2Q-104 -2 -132 20T-160 75T-154
134T-130 198Q-93 269 11 415Q57 472 122 538L261 679L308 674Q324 673 357 673T418 676Q329 596 285 546L214 466Q-7 221 -35 180Q-91 100 -91 70ZM11 -291Q-492 -506 -594 -633Q-630 -678 -630 -720Q-630 -731 -617 -745T-559 -760T-462 -741T-342 -670Q-221
-574 11 -291Z" />
<glyph unicode="&#x2013;" glyph-name="endash" horiz-adv-x="1358" d="M326 430Q356 464 368 487H1026Q1003 457 996 430H326Z" />
<glyph unicode="&#x2014;" glyph-name="emdash" horiz-adv-x="1729" d="M326 430Q353 461 367 487H1398Q1377 456 1369 430H326Z" />
<glyph unicode="&#x2018;" glyph-name="quoteleft" horiz-adv-x="980" d="M899 1430L910 1355Q910 1324 889 1302Q852 1262 825 1262T782 1282T766 1332T773 1389T798 1446Q840 1515 931 1586Q994 1634 1031 1646T1078 1659Q1097 1659 1097 1645Q1097 1636 1069
1627T1009 1593T952 1540Q899 1478 899 1430Z" />
<glyph unicode="&#x2019;" glyph-name="quoteright" horiz-adv-x="844" d="M1015 1477L1004 1552Q1004 1583 1025 1605Q1062 1645 1089 1645Q1148 1645 1148 1567Q1148 1450 983 1321Q923 1275 884 1262T831 1249T817 1262Q817 1270 845 1280T905 1314T962 1366Q1015
1429 1015 1477Z" />
<glyph unicode="&#x201a;" glyph-name="quotesinglbase" horiz-adv-x="544" d="M-49 -192L-60 -117Q-60 -86 -39 -64Q-2 -24 25 -24T68 -44T84 -94T77 -151T52 -208Q10 -277 -81 -348Q-144 -396 -181 -408T-228 -421Q-247 -421 -247 -407Q-247 -398 -219 -389T-159
-356T-102 -304Q-49 -241 -49 -192Z" />
<glyph unicode="&#x201c;" glyph-name="quotedblleft" horiz-adv-x="1422" d="M1183 1416L1194 1342Q1194 1312 1173 1290Q1135 1249 1109 1249T1066 1269T1050 1319T1057 1375T1082 1432Q1124 1501 1215 1572Q1277 1619 1315 1632T1363 1645Q1381 1645 1381 1631Q1381
1622 1353 1613T1293 1580T1236 1528Q1183 1466 1183 1416ZM858 1416L869 1342Q869 1312 848 1290Q810 1249 784 1249T741 1269T725 1319T732 1375T758 1432Q799 1501 890 1572Q953 1620 990 1632T1037 1645Q1056 1645 1056 1631Q1056 1622 1028 1613T968 1580T912
1528Q858 1466 858 1416Z" />
<glyph unicode="&#x201d;" glyph-name="quotedblright" horiz-adv-x="848" d="M1159 1249T1146 1249T1132 1262Q1132 1270 1160 1280T1219 1314T1276 1366Q1329 1429 1329 1477Q1329 1477 1319 1552Q1319 1583 1340 1605Q1377 1645 1404 1645Q1463 1645 1463 1567Q1463
1450 1297 1321Q1241 1276 1200 1263ZM1015 1477L1004 1552Q1004 1583 1025 1605Q1062 1645 1089 1645Q1148 1645 1148 1567Q1148 1450 983 1321Q923 1275 884 1262T831 1249T817 1262Q817 1270 845 1280T905 1314T962 1366Q1015 1429 1015 1477Z" />
<glyph unicode="&#x201e;" glyph-name="quotedblbase" horiz-adv-x="838" d="M246 -192L235 -117Q235 -86 256 -64Q322 7 363 -44Q379 -64 379 -94T372 -151T346 -208Q305 -277 214 -348Q151 -396 114 -408T67 -421Q48 -421 48 -407Q48 -398 76 -389T136 -356T192
-304Q246 -241 246 -192ZM-49 -192L-60 -117Q-60 -86 -39 -64Q-2 -24 25 -24T68 -44T84 -94T77 -151T52 -208Q10 -277 -81 -348Q-144 -396 -181 -408T-228 -421Q-247 -421 -247 -407Q-247 -398 -219 -389T-159 -356T-102 -304Q-49 -241 -49 -192Z" />
<glyph unicode="&#x2022;" glyph-name="bullet" horiz-adv-x="726" d="M426 339T396 326T329 313T263 342T234 409T247 474T283 524Q335 572 392 572T476 543T503 476T489 410T450 361Z" />
<glyph unicode="&#x2039;" glyph-name="guilsinglleft" horiz-adv-x="1287" d="M506 320Q489 346 474 364T458 392Q458 404 489 421Q489 421 558 462Q597 486 636 514L712 570Q750 599 772 620Q803 652 812 652T822 644Q822 632 804 611L710 502Q638 424 571 367Q592
313 608 268L634 188Q640 164 640 153T630 141T610 160T582 209L506 320Z" />
<glyph unicode="&#x203a;" glyph-name="guilsinglright" horiz-adv-x="1416" d="M718 426Q650 601 650 627T658 653Q670 653 680 633T708 584Q783 470 807 440T832 400T801 372T731 332T654 280Q567 219 533 185Q488 141 479 141T469 150Q469 160 486 182Q547
253 579 288L646 358Q680 393 718 426Z" />
</font>
</defs>
</svg>
