<?xml version="1.0" standalone="no"?>
<!DOCTYPE svg PUBLIC "-//W3C//DTD SVG 1.1//EN" "http://www.w3.org/Graphics/SVG/1.1/DTD/svg11.dtd">
<svg xmlns="http://www.w3.org/2000/svg">
<defs >
<font id="Saira" horiz-adv-x="572" ><font-face
    font-family="Saira"
    units-per-em="1000"
    panose-1="0 0 5 0 0 0 0 0 0 0"
    ascent="1135"
    descent="-439"
    alphabetic="0" />
<glyph unicode=" " glyph-name="space" horiz-adv-x="235" />
<glyph unicode="!" glyph-name="exclam" horiz-adv-x="248" d="M92 290Q80 528 80 592V688H174V592Q174 519 164 333Q163 294 161 260T159 201H96L92 290ZM80 0V102H174V0H80Z" />
<glyph unicode="&quot;" glyph-name="quotedbl" horiz-adv-x="348" d="M76 442L65 614V688H144V614L132 442H76ZM215 442L204 614V688H282V614L271 442H215Z" />
<glyph unicode="#" glyph-name="numbersign" horiz-adv-x="794" d="M356 0L400 190H227L183 0H121L165 190H67V254H179L220 427H104V492H234L280 688H342L296 492H469L515 688H577L530 492H632V427H516L475 254H595V190H461L417 0H356ZM455 427H282L241 254H414L455 427Z" />
<glyph unicode="$" glyph-name="dollar" horiz-adv-x="538" d="M468 167T453 134T402 87T303 68V-8H240V68Q153 71 86 81V155Q156 146 240 145V309L184 316Q117 324 93 357T69 462Q69 546 110 579T240 617V696H303V618Q372 617 440 604V531Q374 539 303 542V383L363
377Q404 372 426 359T458 315T468 226Q468 167 453 134ZM240 390V542Q192 540 171 525T150 466Q150 434 155 421T172 402T213 393L240 390ZM339 147T357 155T381 179T387 224Q387 258 382 272T365 291T324 299L303 302V145Q339 147 357 155Z" />
<glyph unicode="%" glyph-name="percent" horiz-adv-x="827" d="M131 311T102 326T65 379T56 503Q56 588 64 626T102 680T198 696Q265 696 293 680T330 627T338 503Q338 416 330 379T294 327T198 311Q131 311 102 326ZM156 0L606 688H670L221 0H156ZM241 364T256
370T276 403T281 503Q281 578 277 603T258 636T198 643Q155 643 140 636T119 603T114 503Q114 430 119 404T139 371T198 364Q241 364 256 370ZM563 -8T534 7T497 60T488 184Q488 269 496 307T534 361T630 377Q697 377 726 361T763 308T771 184Q771 98 763 61T726
8T630 -8Q563 -8 534 7ZM673 45T688 51T708 84T713 184Q713 259 709 284T690 317T630 324Q587 324 572 317T552 284T547 184Q547 111 551 85T571 52T630 45Q673 45 688 51Z" />
<glyph unicode="&amp;" glyph-name="ampersand" horiz-adv-x="736" d="M698 386V310H583V11Q549 4 486 -2T363 -8Q240 -8 176 15T90 79T68 184Q68 239 82 271T122 321T193 349V353Q131 368 103 405T74 515Q74 572 97 611T183 673T362 696Q410 696 471 691T579
677V606Q533 612 479 616T387 620Q286 620 238 609T173 574T157 501Q157 465 166 441T205 402T298 386H394V310H298Q233 310 202 297T161 259T151 188Q151 136 172 111T238 76T363 67Q439 67 502 74V386H698Z" />
<glyph unicode="&apos;" glyph-name="quotesingle" horiz-adv-x="209" d="M76 442L65 614V688H144V614L132 442H76Z" />
<glyph unicode="(" glyph-name="parenleft" horiz-adv-x="308" d="M164 -75T136 -27T94 95T80 297Q80 426 93 499T136 622T227 743H288Q235 674 211 631T173 511T159 297Q159 159 173 82T210 -38T288 -150H227Q164 -75 136 -27Z" />
<glyph unicode=")" glyph-name="parenright" horiz-adv-x="308" d="M74 -81T97 -38T135 82T149 297Q149 434 135 510T97 630T20 743H81Q143 671 172 622T214 500T228 297Q228 168 215 95T173 -26T81 -150H20Q74 -81 97 -38Z" />
<glyph unicode="*" glyph-name="asterisk" horiz-adv-x="442" d="M242 465L249 319H194L201 465L75 384L48 436L180 503L48 570L75 622L201 541L194 688H249L241 542L367 622L394 570L262 503L394 436L367 384L242 465Z" />
<glyph unicode="+" glyph-name="plus" horiz-adv-x="540" d="M236 51V217H70V288H236V453H302V288H470V217H302V51H236Z" />
<glyph unicode="," glyph-name="comma" horiz-adv-x="223" d="M68 -81T80 -76T96 -58T101 -17V0H64V102H159V19Q159 -41 151 -70T118 -111T43 -123V-81Q68 -81 80 -76Z" />
<glyph unicode="-" glyph-name="hyphen" horiz-adv-x="362" d="M59 246V325H303V246H59Z" />
<glyph unicode="." glyph-name="period" horiz-adv-x="223" d="M64 0V102H159V0H64Z" />
<glyph unicode="/" glyph-name="slash" horiz-adv-x="359" d="M-4 -55L287 743H362L70 -55H-4Z" />
<glyph unicode="0" glyph-name="zero" horiz-adv-x="672" d="M209 -8T157 18T91 112T77 344Q77 509 90 576T156 669T336 696Q463 696 515 670T581 576T595 344Q595 179 582 112T516 19T336 -8Q209 -8 157 18ZM428 72T459 85T500 149T509 344Q509 489 500 539T460
602T336 616Q244 616 212 603T171 539T162 344Q162 199 171 149T212 86T336 72Q428 72 459 85Z" />
<glyph unicode="1" glyph-name="one" horiz-adv-x="377" d="M180 0V582L38 514V597L205 688H266V0H180Z" />
<glyph unicode="2" glyph-name="two" horiz-adv-x="610" d="M153 81H539V0H70V82Q70 168 76 207T107 272T187 322Q295 367 369 397Q406 412 423 425T447 458T454 510Q454 557 440 579T391 608T284 616Q205 616 84 603V678Q126 686 190 691T310 696Q385 696 433
685T510 635T539 519Q539 460 527 424T489 367T415 325L208 240Q173 227 163 205Q157 191 155 173T153 125V81Z" />
<glyph unicode="3" glyph-name="three" horiz-adv-x="602" d="M218 -8T160 -3T60 10V84Q178 72 258 72Q326 72 363 79T420 112T440 188Q440 255 411 281T308 308H179V388H308Q367 388 400 412T433 501Q433 553 415 577T360 608T248 616Q208 616 157 612T64 603V678Q104
686 161 691T265 696Q362 696 417 677T496 618T520 515Q520 443 491 405T402 353V349Q464 338 495 301T527 184Q527 120 506 79T428 15T264 -8Q218 -8 160 -3Z" />
<glyph unicode="4" glyph-name="four" horiz-adv-x="643" d="M410 0V159H46V230L315 688H410L142 239H410L428 476H496V239H597V159H496V0H410Z" />
<glyph unicode="5" glyph-name="five" horiz-adv-x="620" d="M204 72T281 72Q357 72 395 83T448 123T463 204Q463 262 448 288T393 322T268 331Q196 331 90 318V688H499V607H169V402Q241 411 322 411Q417 411 466 390T532 327T550 214Q550 129 529 82T451 14T288
-8Q240 -8 182 -3T82 10V84Q204 72 281 72Z" />
<glyph unicode="6" glyph-name="six" horiz-adv-x="657" d="M271 -8T225 -1T148 27T101 91Q87 125 82 183T77 337Q77 426 82 484T102 580Q127 647 184 671T354 696Q392 696 449 691T559 678V603Q440 616 372 616Q275 616 233 598T177 529T163 363H169Q189 385
232 399T363 413Q454 413 502 399T574 343T597 219Q597 127 578 80T506 12T347 -8Q271 -8 225 -1ZM415 72T449 80T498 114T512 200Q512 263 499 290T452 325T339 333Q261 333 225 323T177 291T166 226Q166 155 181 123T230 82T339 72Q415 72 449 80Z" />
<glyph unicode="7" glyph-name="seven" horiz-adv-x="564" d="M139 0L420 607H41V688H515V615L235 0H139Z" />
<glyph unicode="8" glyph-name="eight" horiz-adv-x="683" d="M232 -8T174 13T95 76T74 184Q74 241 88 274T128 323T199 349V353Q137 365 109 403T80 515Q80 579 103 618T183 676T341 696Q443 696 499 677T579 618T602 515Q602 441 574 403T483 353V349Q528 339
554 323T594 274T608 184Q608 117 587 76T508 14T341 -8Q232 -8 174 13ZM414 387T450 396T501 430T516 501Q516 550 503 573T453 606T341 616Q267 616 231 607T182 574T168 501Q168 453 182 430T232 397T341 387Q414 387 450 396ZM415 72T452 80T506 113T522 188Q522
242 507 267T455 300T341 309Q264 309 228 301T177 267T162 188Q162 137 177 113T230 81T341 72Q415 72 452 80Z" />
<glyph unicode="9" glyph-name="nine" horiz-adv-x="657" d="M264 -8T207 -3T99 10V85Q214 72 285 72Q382 72 424 90T480 159T494 325H488Q469 303 426 289T295 275Q204 275 156 289T84 345T61 469Q61 562 80 609T151 676T310 696Q390 696 437 689T514 658T559
589Q572 552 576 497T581 351Q581 256 575 196T551 96Q526 36 469 14T303 -8Q264 -8 207 -3ZM396 355T432 365T480 397T491 462Q491 533 476 565T427 606T318 616Q242 616 208 608T159 574T145 488Q145 425 158 398T205 363T318 355Q396 355 432 365Z" />
<glyph unicode=":" glyph-name="colon" horiz-adv-x="223" d="M64 408V510H159V408H64ZM64 0V102H159V0H64Z" />
<glyph unicode=";" glyph-name="semicolon" horiz-adv-x="223" d="M64 408V510H159V408H64ZM68 -81T80 -76T96 -58T101 -17V0H64V102H159V19Q159 -41 151 -70T118 -111T43 -123V-81Q68 -81 80 -76Z" />
<glyph unicode="&lt;" glyph-name="less" horiz-adv-x="541" d="M471 44L71 211V294L471 462V387L137 253L471 118V44Z" />
<glyph unicode="=" glyph-name="equal" horiz-adv-x="540" d="M70 318V389H470V318H70ZM70 117V188H470V117H70Z" />
<glyph unicode="&gt;" glyph-name="greater" horiz-adv-x="541" d="M70 44V118L404 253L70 387V462L470 294V211L70 44Z" />
<glyph unicode="?" glyph-name="question" horiz-adv-x="504" d="M154 279Q154 316 161 336T184 368T228 389L264 402Q302 415 318 426T341 456T347 517Q347 563 334 583T291 610T202 616Q131 616 38 604V680Q82 687 135 691T230 696Q304 696 348 679T412 624T433
519Q433 449 416 411T349 357L314 344Q269 329 255 322T236 302T231 260V200H154V279ZM145 0V102H240V0H145Z" />
<glyph unicode="@" glyph-name="at" horiz-adv-x="931" d="M272 -108T197 -80T103 22T84 294Q84 491 102 566T196 668T465 696Q658 696 733 669T828 567T847 294Q847 189 835 143T798 86T718 75H583L579 136H574Q555 95 517 82T426 68Q349 68 315 96T280 197Q280
248 291 275T331 315T412 327Q470 327 576 323V349Q576 399 567 419T533 445T444 451Q415 451 371 449T309 443V506Q390 518 470 518Q548 518 586 502T637 451T650 349V119H729Q759 119 772 128T792 173T799 294Q799 437 792 501T755 597T657 640Q599 650 464 650Q346
650 287 642Q211 633 179 602T139 506T130 294Q130 137 140 72T189 -22T322 -58Q365 -62 465 -62Q518 -62 576 -61T650 -58V-105Q587 -108 465 -108Q272 -108 197 -80ZM501 131T527 141T565 175T576 245V273H431Q397 273 381 268T359 249T353 202Q353 171 360 157T388
137T451 131Q501 131 527 141Z" />
<glyph unicode="A" glyph-name="A" horiz-adv-x="684" d="M567 0L496 183H186L115 0H28L288 688H396L656 0H567ZM343 595H338L212 264H469L343 595Z" />
<glyph unicode="B" glyph-name="B" horiz-adv-x="682" d="M100 688H420Q518 688 560 644T603 515Q603 446 575 406T485 353V349Q556 336 583 294T610 181Q610 97 569 49T417 0H100V688ZM456 388T486 415T517 498Q517 540 506 563T469 597T392 608H186V388H392Q456
388 486 415ZM446 80T473 91T512 126T524 194Q524 256 495 282T396 308H186V80H396Q446 80 473 91Z" />
<glyph unicode="C" glyph-name="C" horiz-adv-x="575" d="M487 -1T441 -4T354 -8Q230 -8 173 19T97 117T77 344Q77 498 96 570T173 669T354 696Q395 696 440 692T514 681V606Q439 616 376 616Q271 616 230 600T175 531T162 344Q162 210 175 157T229 88T376 72Q453
72 518 82V5Q487 -1 441 -4Z" />
<glyph unicode="D" glyph-name="D" horiz-adv-x="689" d="M100 688H319Q462 688 521 663T596 571T612 344Q612 183 596 117T521 26T319 0H100V688ZM305 80Q422 80 462 92T515 154T527 344Q527 483 515 533T462 595T305 608H186V80H305Z" />
<glyph unicode="E" glyph-name="E" horiz-adv-x="604" d="M100 0V688H548V608H186V387H500V307H186V80H548V0H100Z" />
<glyph unicode="F" glyph-name="F" horiz-adv-x="566" d="M100 0V688H528V608H186V372H490V291H186V0H100Z" />
<glyph unicode="G" glyph-name="G" horiz-adv-x="677" d="M350 294V373H588V12Q539 3 478 -2T369 -8Q243 -8 183 19T100 119T77 344Q77 495 100 568T183 668T369 696Q418 696 478 690T585 676V600Q471 616 411 616Q292 616 246 603T181 535T162 344Q162 218 176
163T232 89T370 70Q400 70 440 72T505 78V294H350Z" />
<glyph unicode="H" glyph-name="H" horiz-adv-x="732" d="M547 0V305H186V0H100V688H186V388H547V688H632V0H547Z" />
<glyph unicode="I" glyph-name="I" horiz-adv-x="286" d="M100 0V688H186V0H100Z" />
<glyph unicode="J" glyph-name="J" horiz-adv-x="355" d="M110 78T136 87T170 129T177 254V688H263V284Q263 136 251 83T197 16T34 0V76Q110 78 136 87Z" />
<glyph unicode="K" glyph-name="K" horiz-adv-x="671" d="M544 0L310 310H186V0H100V688H186V390H310L545 688H641L379 355L644 0H544Z" />
<glyph unicode="L" glyph-name="L" horiz-adv-x="538" d="M100 0V688H186V83H507V0H100Z" />
<glyph unicode="M" glyph-name="M" horiz-adv-x="907" d="M723 0V541H719L483 0H420L185 541H181V0H100V688H216L451 153H456L691 688H807V0H723Z" />
<glyph unicode="N" glyph-name="N" horiz-adv-x="732" d="M550 0L187 526H183V0H100V688H188L546 174H550V688H632V0H550Z" />
<glyph unicode="O" glyph-name="O" horiz-adv-x="718" d="M222 -8T165 19T93 113T77 344Q77 507 92 574T165 669T359 696Q495 696 552 669T625 575T641 344Q641 181 626 114T553 19T359 -8Q222 -8 165 19ZM461 72T497 85T544 150T555 344Q555 486 544 538T497
603T359 616Q257 616 221 603T173 538T162 344Q162 202 173 150T220 85T359 72Q461 72 497 85Z" />
<glyph unicode="P" glyph-name="P" horiz-adv-x="652" d="M100 688H402Q485 688 528 661T585 588T599 469Q599 399 585 353T528 278T400 250H186V0H100V688ZM371 330Q436 330 466 343T505 385T514 469Q514 525 506 553T468 594T373 608H186V330H371Z" />
<glyph unicode="Q" glyph-name="Q" horiz-adv-x="718" d="M659 -113V-115H561L479 -1Q433 -8 359 -8Q222 -8 165 19T93 113T77 344Q77 507 92 574T165 669T359 696Q495 696 552 669T625 575T641 344Q641 237 636 178T614 81T559 22L659 -113ZM426 72L321 218H413L509
88Q529 101 539 129T552 205T555 344Q555 486 544 538T497 603T359 616Q257 616 221 603T173 538T162 344Q162 202 173 150T220 85T359 72H426Z" />
<glyph unicode="R" glyph-name="R" horiz-adv-x="682" d="M526 0L419 270H402H186V0H100V688H416Q498 688 540 662T595 592T608 479Q608 408 587 356T501 284L618 0H526ZM444 350T474 363T513 403T522 479Q522 530 514 556T478 595T387 608H186V350H380Q444 350 474 363Z" />
<glyph unicode="S" glyph-name="S" horiz-adv-x="629" d="M274 -8T207 -4T87 6V85Q217 72 304 72Q358 72 389 76T443 93Q463 105 469 128T475 191Q475 238 470 257T447 286T383 299L213 318Q151 325 120 347T78 406T67 502Q67 584 95 626T175 682T314 696Q372
696 432 691T527 679V603Q489 609 433 612T329 616Q273 616 239 611T186 594Q165 582 159 562T153 505Q153 464 159 446T182 419T238 406L406 387Q466 381 499 366T547 312Q561 276 561 197Q561 106 533 62T458 5T329 -8Q274 -8 207 -4Z" />
<glyph unicode="T" glyph-name="T" horiz-adv-x="582" d="M248 0V605H30V688H551V605H334V0H248Z" />
<glyph unicode="U" glyph-name="U" horiz-adv-x="709" d="M617 688V301Q617 167 600 105T529 17T355 -8Q235 -8 181 17T110 105T92 301V688H177V268Q177 178 187 140T233 87T355 72Q441 72 476 87T521 139T531 268V688H617Z" />
<glyph unicode="V" glyph-name="V" horiz-adv-x="664" d="M278 0L29 688H119L330 106H335L547 688H634L386 0H278Z" />
<glyph unicode="W" glyph-name="W" horiz-adv-x="988" d="M663 0L496 547H492L326 0H224L36 688H124L278 118H283L451 688H541L711 118H717L866 688H952L765 0H663Z" />
<glyph unicode="X" glyph-name="X" horiz-adv-x="675" d="M545 0L340 271H332L127 0H29L286 345L33 688H135L335 423H343L544 688H643L390 348L646 0H545Z" />
<glyph unicode="Y" glyph-name="Y" horiz-adv-x="610" d="M261 0V260L12 688H104L303 353H310L508 688H598L347 260V0H261Z" />
<glyph unicode="Z" glyph-name="Z" horiz-adv-x="607" d="M54 0V76L442 608H65V688H551V614L161 80H556V0H54Z" />
<glyph unicode="[" glyph-name="bracketleft" horiz-adv-x="336" d="M100 -150V743H295V679L176 675V-82L295 -86V-150H100Z" />
<glyph unicode="\" glyph-name="backslash" horiz-adv-x="359" d="M288 -55L-4 743H71L362 -55H288Z" />
<glyph unicode="]" glyph-name="bracketright" horiz-adv-x="336" d="M42 -150V-86L161 -82V675L42 679V743H236V-150H42Z" />
<glyph unicode="^" glyph-name="asciicircum" horiz-adv-x="457" d="M340 443L229 688L117 443H50L190 749H267L406 443H340Z" />
<glyph unicode="_" glyph-name="underscore" horiz-adv-x="359" d="M0 -172V-101H359V-172H0Z" />
<glyph unicode="`" glyph-name="grave" horiz-adv-x="229" d="M149 602L20 738V743H108L209 607V602H149Z" />
<glyph unicode="a" glyph-name="a" horiz-adv-x="570" d="M135 -8T95 24T55 140Q55 199 69 232T116 280T211 295Q240 295 402 290V320Q402 380 391 405T349 437T245 444Q213 444 165 441T89 433V504Q168 518 274 518Q364 518 408 500T468 440T483 319V0H410L406
71H400Q379 23 333 8T223 -8Q135 -8 95 24ZM304 65T335 74T381 109Q402 145 402 209V232H232Q190 232 171 226T143 203T135 148Q135 112 144 95T177 72T254 65Q304 65 335 74Z" />
<glyph unicode="b" glyph-name="b" horiz-adv-x="591" d="M275 -8T232 8T169 71H163L159 0H87V743H168V446H173Q193 486 233 502T339 518Q414 518 453 495T509 417T526 255Q526 149 510 94T453 15T337 -8Q275 -8 232 8ZM370 70T397 82T434 131T444 255Q444 341
435 377T398 426T305 439Q256 439 227 427T186 390Q175 368 172 337T168 255Q168 202 171 172T185 120Q198 94 227 82T305 70Q370 70 397 82Z" />
<glyph unicode="c" glyph-name="c" horiz-adv-x="460" d="M384 0T346 -4T272 -8Q178 -8 134 19T78 99T65 255Q65 356 80 411T139 492T269 518Q303 518 341 514T407 505V433Q347 444 289 444Q225 444 196 429T156 376T146 255Q146 171 156 133T196 80T292 66Q341
66 411 76V5Q384 0 346 -4Z" />
<glyph unicode="d" glyph-name="d" horiz-adv-x="591" d="M178 -8T138 15T82 93T65 254Q65 360 81 416T136 495T251 518Q317 518 357 502T417 446H423V743H504V0H431L428 71H422Q401 25 358 9T254 -8Q178 -8 138 15ZM337 70T367 83T408 126Q418 149 420 178T423
260Q423 303 420 331T409 379Q397 410 367 424T283 439Q220 439 193 427T156 377T146 255Q146 168 155 131T192 82T285 70Q337 70 367 83Z" />
<glyph unicode="e" glyph-name="e" horiz-adv-x="560" d="M495 226H146Q146 153 156 122T199 79T312 66Q389 66 475 77V6Q443 0 392 -4T295 -8Q192 -8 144 16T80 93T65 254Q65 360 78 413T139 492T290 518Q386 518 429 493T483 416T495 255V226ZM223 444T195 433T157
390T146 288H417V296Q417 362 406 393T368 434T288 444Q223 444 195 433Z" />
<glyph unicode="f" glyph-name="f" horiz-adv-x="372" d="M130 436H26V510H130V586Q130 658 150 691T212 733T343 742V675Q285 675 258 670T221 649T211 601V510H343V436H211V0H130V436Z" />
<glyph unicode="g" glyph-name="g" horiz-adv-x="591" d="M167 -206T93 -197V-126Q189 -132 256 -132Q333 -132 367 -118T412 -69T423 45V67H418Q399 28 359 12T254 -5Q177 -5 137 17T81 95T65 255Q65 361 81 416T138 495T254 518Q315 518 358 501T422 438H428L431
510H504V65Q504 -43 489 -98T424 -179T273 -206Q167 -206 93 -197ZM335 73T364 85T406 124Q416 146 419 176T423 256Q423 307 421 335T408 384Q395 414 365 427T285 440Q221 440 193 428T156 379T146 256Q146 171 155 135T193 86T285 73Q335 73 364 85Z" />
<glyph unicode="h" glyph-name="h" horiz-adv-x="599" d="M432 287Q432 358 423 388T389 429T305 439Q242 439 213 419T176 364T168 263V0H87V743H168V443H173Q189 479 227 498T338 517Q412 517 449 497T500 435T513 319V0H432V287Z" />
<glyph unicode="i" glyph-name="i" horiz-adv-x="254" d="M84 650V743H170V650H84ZM87 0V510H168V0H87Z" />
<glyph unicode="j" glyph-name="j" horiz-adv-x="254" d="M84 650V743H170V650H84ZM-9 -132Q35 -132 55 -127T81 -111T87 -77V510H168V-57Q168 -123 152 -153T101 -191T-9 -200V-132Z" />
<glyph unicode="k" glyph-name="k" horiz-adv-x="537" d="M412 0L232 220H168V0H87V743H168V295H232L413 510H504L297 263L507 0H412Z" />
<glyph unicode="l" glyph-name="l" horiz-adv-x="254" d="M87 0V743H168V0H87Z" />
<glyph unicode="m" glyph-name="m" horiz-adv-x="883" d="M715 287Q715 359 708 389T678 429T604 439Q548 439 522 420T489 366T482 263V0H401V287Q401 359 394 389T364 429T290 439Q234 439 208 420T175 365T168 263V0H87V510H159L163 438H169Q184 477 220 497T324
518Q390 518 424 499T471 438H478Q510 518 637 518Q704 518 738 497T784 435T796 319V0H715V287Z" />
<glyph unicode="n" glyph-name="n" horiz-adv-x="599" d="M432 287Q432 358 423 388T389 429T305 439Q242 439 213 419T176 364T168 263V0H87V510H159L163 438H169Q186 477 225 497T338 518Q412 518 449 497T500 435T513 319V0H432V287Z" />
<glyph unicode="o" glyph-name="o" horiz-adv-x="577" d="M182 -8T136 13T78 86T65 255Q65 372 77 423T136 496T289 518Q395 518 441 497T499 424T512 255Q512 138 500 87T441 14T289 -8Q182 -8 136 13ZM362 66T390 79T424 126T431 255Q431 349 425 383T390 431T289
444Q216 444 188 431T153 384T146 255Q146 161 152 127T187 79T289 66Q362 66 390 79Z" />
<glyph unicode="p" glyph-name="p" horiz-adv-x="591" d="M87 510H159L163 438H169Q189 484 232 501T337 518Q413 518 453 495T509 417T526 256Q526 150 510 94T454 15T339 -8Q274 -8 234 8T173 64H168V-200H87V510ZM370 71T397 83T434 132T444 255Q444 341 435
378T398 427T305 440Q254 440 224 426T182 383Q173 361 171 332T168 255Q168 206 170 178T180 131Q193 99 223 85T305 71Q370 71 397 83Z" />
<glyph unicode="q" glyph-name="q" horiz-adv-x="591" d="M423 64H418Q398 24 358 8T251 -8Q176 -8 137 14T81 92T65 254Q65 360 81 416T138 495T254 518Q315 518 358 502T422 438H428L431 510H504V-200H423V64ZM338 71T367 85T410 131Q418 151 420 180T423 255Q423
307 420 337T405 390Q393 416 364 428T285 440Q221 440 193 428T156 378T146 255Q146 169 155 132T192 83T285 71Q338 71 367 85Z" />
<glyph unicode="r" glyph-name="r" horiz-adv-x="367" d="M87 510H159L163 413H169Q187 473 229 495T339 518V431Q270 431 233 410T182 346T168 228V0H87V510Z" />
<glyph unicode="s" glyph-name="s" horiz-adv-x="499" d="M215 -8T163 -4T71 5V77Q170 66 252 66Q303 66 327 73T358 95T366 142Q366 173 361 186T343 205T301 213L168 228Q122 233 98 249T64 293T55 368Q55 433 78 465T143 508T255 518Q294 518 339 514T415 504V432Q337
444 254 444Q208 444 184 440T147 420T134 371Q134 342 139 329T156 311T196 303L334 287Q378 282 400 271T433 230T444 144Q444 81 424 48T364 4T256 -8Q215 -8 163 -4Z" />
<glyph unicode="t" glyph-name="t" horiz-adv-x="359" d="M129 0V436H26V510H129V658H210V510H332V436H210V0H129Z" />
<glyph unicode="u" glyph-name="u" horiz-adv-x="599" d="M436 72H430Q413 33 374 13T261 -8Q188 -8 151 13T100 75T87 191V510H168V223Q168 151 176 121T210 81T294 71Q357 71 386 91T424 146T432 247V510H513V0H440L436 72Z" />
<glyph unicode="v" glyph-name="v" horiz-adv-x="530" d="M215 0L27 510H112L263 90H270L420 510H503L316 0H215Z" />
<glyph unicode="w" glyph-name="w" horiz-adv-x="817" d="M529 0L411 365H404L288 0H194L31 510H115L240 105H247L371 510H448L573 105H580L704 510H786L623 0H529Z" />
<glyph unicode="x" glyph-name="x" horiz-adv-x="547" d="M423 0L274 194H268L120 0H30L223 259L37 510H130L272 325H277L419 510H509L323 260L516 0H423Z" />
<glyph unicode="y" glyph-name="y" horiz-adv-x="599" d="M176 -206T111 -197V-127Q221 -132 265 -132Q342 -132 377 -117T422 -68T432 38V68H426Q411 34 373 15T261 -5Q188 -5 151 15T100 77T87 192V510H168V225Q168 153 176 123T210 83T294 73Q357 73 386 93T424
148T432 248V510H513V62Q513 -44 497 -99T432 -180T283 -206Q176 -206 111 -197Z" />
<glyph unicode="z" glyph-name="z" horiz-adv-x="508" d="M52 0V69L349 436H64V510H454V441L158 74H456V0H52Z" />
<glyph unicode="{" glyph-name="braceleft" horiz-adv-x="325" d="M224 -142T197 -118T149 -54T128 32V148Q128 200 106 236T27 273V320Q84 320 106 356T128 445V560Q128 608 149 647T197 710T242 743H305Q289 735 265 709T222 645T204 568V446Q204 322 106 300V293Q204
271 204 146V25Q204 -14 222 -51T264 -115T305 -150H242Q224 -142 197 -118Z" />
<glyph unicode="|" glyph-name="bar" horiz-adv-x="277" d="M102 -161V743H176V-161H102Z" />
<glyph unicode="}" glyph-name="braceright" horiz-adv-x="325" d="M36 -142T60 -116T102 -52T120 25V146Q120 271 218 293V300Q120 322 120 446V568Q120 608 102 645T60 708T19 743H82Q100 735 127 711T175 647T196 560V445Q196 393 218 357T297 320V273Q240
273 218 237T196 148V32Q196 -15 175 -54T127 -117T82 -150H19Q36 -142 60 -116Z" />
<glyph unicode="~" glyph-name="asciitilde" horiz-adv-x="497" d="M429 322T424 298T404 262T355 249Q331 249 308 254T264 265T236 273Q213 280 189 286T146 292Q125 292 120 281T115 238H67Q67 282 72 306T93 343T141 355Q167 355 192 350T260 332Q321 313
351 313Q372 313 377 323T382 366H429Q429 322 424 298Z" />
<glyph unicode="&#xa0;" glyph-name="uni00A0" horiz-adv-x="235" />
<glyph unicode="&#xa1;" glyph-name="exclamdown" horiz-adv-x="242" d="M74 408V510H169V408H74ZM74 -82Q74 -45 78 47T84 175Q90 295 90 309H153Q153 285 155 251T158 177Q168 -9 168 -82V-178H74V-82Z" />
<glyph unicode="&#xa2;" glyph-name="cent" horiz-adv-x="468" d="M416 81Q366 69 304 68V-8H241V68Q167 73 129 103T78 190T65 342Q65 438 81 495T135 583T241 617V696H304V617Q364 615 411 604V531Q366 539 304 541V145Q372 147 416 156V81ZM151 268T158 229T184
172T241 148V538Q203 532 184 514T158 456T151 343Q151 268 158 229Z" />
<glyph unicode="&#xa3;" glyph-name="sterling" horiz-adv-x="590" d="M543 80V0H54V80H128V316H54V395H128Q128 518 148 581T222 670T383 696Q423 696 465 692T531 681V606Q451 616 409 616Q354 616 320 612T265 594Q234 575 224 528T214 395H456V316H214V80H543Z" />
<glyph unicode="&#xa4;" glyph-name="currency" horiz-adv-x="718" d="M65 42L162 136Q145 164 140 211T135 344Q135 428 140 475T161 552L65 645L112 695L211 598Q256 619 359 619Q412 619 447 614T506 597L607 696L653 646L557 552Q572 523 577 476T582 344Q582
260 577 213T556 136L653 41L607 -9L505 90Q482 78 447 74T359 69Q305 69 270 73T212 90L111 -8L65 42ZM432 143T460 157T494 207T501 344Q501 444 495 480T460 531T359 545Q285 545 257 531T223 481T216 344Q216 244 222 208T257 157T359 143Q432 143 460 157Z"
/>
<glyph unicode="&#xa5;" glyph-name="yen" horiz-adv-x="624" d="M268 0V236H65V294H249L187 396H65V455H158L32 688H123L309 342H316L503 688H591L465 455H557V396H435L373 294H557V236H354V0H268Z" />
<glyph unicode="&#xa6;" glyph-name="brokenbar" horiz-adv-x="277" d="M102 390V743H176V390H102ZM102 -161V192H176V-161H102Z" />
<glyph unicode="&#xa7;" glyph-name="section" horiz-adv-x="696" d="M252 -171T204 -165T150 -158V-84Q227 -91 293 -91Q365 -91 398 -87T448 -68T465 -17Q465 13 460 28T443 51T403 67L208 123Q150 138 119 154T74 199T59 278Q59 351 80 396T164 449Q153 466
151 487T148 543Q148 631 202 663T369 696Q444 696 492 690T546 683V609Q469 616 403 616Q332 616 298 612T248 592T231 542Q231 510 236 495T256 472T304 455L495 399Q550 384 579 368T622 324T637 245Q637 173 616 127T531 75Q542 58 545 36T548 -18Q548 -79
523 -112T450 -158T327 -171Q252 -171 204 -165ZM557 131T557 227Q557 271 546 287T502 313L262 378L239 384Q213 392 201 392Q170 392 155 369T139 297Q139 266 144 250T162 225T201 209L436 144L457 138Q485 131 495 131Q557 131 557 227Z" />
<glyph unicode="&#xa8;" glyph-name="dieresis" horiz-adv-x="305" d="M20 647V730H97V647H20ZM209 647V730H285V647H209Z" />
<glyph unicode="&#xa9;" glyph-name="copyright" horiz-adv-x="733" d="M225 -8T169 16T99 107T85 344Q85 515 99 580T169 671T366 696Q507 696 563 671T634 580T648 344Q648 173 634 107T564 17T366 -8Q225 -8 169 16ZM492 34T537 51T594 125T606 344Q606 506
594 563T537 636T366 653Q240 653 196 637T139 563T127 344Q127 182 139 125T196 51T366 34Q492 34 537 51ZM322 153T291 168T250 222T239 343Q239 424 249 462T291 516T389 532Q450 532 477 524V477Q440 482 400 482Q348 482 328 474T301 439T294 343Q294 274
300 247T327 212T400 203Q446 203 479 208V160Q442 153 389 153Q322 153 291 168Z" />
<glyph unicode="&#xaa;" glyph-name="ordfeminine" horiz-adv-x="408" d="M98 314T70 338T42 424Q42 467 51 490T85 524T154 535Q198 535 288 531V552Q288 593 281 610T252 632T176 637Q116 637 65 629V686Q123 696 199 696Q265 696 298 682T342 638T353 551V318H294L289
361H285Q266 332 235 323T162 314Q98 314 70 338ZM223 368T245 374T277 400Q288 425 288 469V487H170Q129 487 116 476T103 429Q103 403 109 391T133 373T185 368Q223 368 245 374Z" />
<glyph unicode="&#xab;" glyph-name="guillemotleft" horiz-adv-x="474" d="M179 99L47 304L179 510H237L123 304L237 99H179ZM347 99L214 304L347 510H405L291 304L405 99H347Z" />
<glyph unicode="&#xac;" glyph-name="logicalnot" horiz-adv-x="539" d="M403 52V218H70V291H469V52H403Z" />
<glyph unicode="&#xad;" glyph-name="uni00AD" horiz-adv-x="362" d="M59 246V325H303V246H59Z" />
<glyph unicode="&#xae;" glyph-name="registered" horiz-adv-x="733" d="M507 696T563 671T634 580T648 344Q648 173 634 107T564 17T366 -8Q225 -8 169 16T99 107T85 344Q85 515 99 580T169 671T366 696Q507 696 563 671ZM492 34T537 51T594 125T606 344Q606
506 594 563T537 636T366 653Q240 653 196 637T139 563T127 344Q127 182 139 125T196 51T366 34Q492 34 537 51ZM509 376T498 349T454 310L517 158H457L402 302Q394 300 378 300H287V158H233V528H400Q448 528 471 514T502 476T509 415Q509 376 498 349ZM413 350T429
357T450 377T455 414Q455 439 451 452T432 471T386 478H287V350H379Q413 350 429 357Z" />
<glyph unicode="&#xaf;" glyph-name="overscore" horiz-adv-x="362" d="M59 662V742H303V662H59Z" />
<glyph unicode="&#xb0;" glyph-name="degree" horiz-adv-x="390" d="M133 397T106 410T71 452T63 546Q63 610 70 639T105 682T195 696Q257 696 284 683T319 640T327 546Q327 482 320 453T285 410T195 397Q133 397 106 410ZM233 445T247 452T265 478T269 546Q269
595 266 613T248 639T195 647Q157 647 142 640T124 614T120 546Q120 497 123 479T142 453T195 445Q233 445 247 452Z" />
<glyph unicode="&#xb1;" glyph-name="plusminus" horiz-adv-x="540" d="M236 184V349H70V420H236V585H302V420H470V349H302V184H236ZM70 -1V70H470V-1H70Z" />
<glyph unicode="&#xb2;" glyph-name="uni00B2" horiz-adv-x="362" d="M108 377H312V318H49V366Q49 410 52 431T66 465T102 490L211 536Q235 546 243 556T251 591Q251 612 244 621T221 634T170 638Q141 638 56 629V686Q121 696 184 696Q226 696 252 690T295 662T312
596Q312 550 297 526T245 487L215 475Q202 470 184 463T140 445Q120 437 114 427T108 394V377Z" />
<glyph unicode="&#xb3;" glyph-name="uni00B3" horiz-adv-x="354" d="M98 309T40 319V374Q126 367 152 367Q201 367 220 377T240 421Q240 453 227 465T179 478H104V531H179Q205 531 220 542T236 585Q236 618 217 628T147 638Q101 638 42 630V685Q106 696 157 696Q235
696 266 672T298 593Q298 529 249 508V504Q302 485 302 418Q302 381 291 358T247 322T156 309Q98 309 40 319Z" />
<glyph unicode="&#xb4;" glyph-name="acute" horiz-adv-x="229" d="M20 602V607L121 743H209V738L80 602H20Z" />
<glyph unicode="&#xb5;" glyph-name="uni00B5" horiz-adv-x="599" d="M513 510V0H440L436 72H430Q413 33 374 13T261 -8Q204 -8 168 15V-189H87V510H168V223Q168 151 176 121T210 81T294 71Q357 71 386 91T424 146T432 247V510H513Z" />
<glyph unicode="&#xb6;" glyph-name="paragraph" horiz-adv-x="588" d="M309 222Q188 222 140 238T78 298T65 454Q65 566 78 610T140 671T309 688H371V-144H309V222ZM437 -144V688H498V-144H437Z" />
<glyph unicode="&#xb7;" glyph-name="middot" horiz-adv-x="223" d="M64 248V351H159V248H64Z" />
<glyph unicode="&#xb8;" glyph-name="cedilla" horiz-adv-x="161" d="M20 -190V-185L85 8H141V3L101 -190H20Z" />
<glyph unicode="&#xb9;" glyph-name="uni00B9" horiz-adv-x="241" d="M111 318V612L35 577V637L129 688H171V318H111Z" />
<glyph unicode="&#xba;" glyph-name="ordmasculine" horiz-adv-x="422" d="M134 314T100 331T57 385T47 504Q47 586 56 623T100 678T211 696Q288 696 322 679T365 624T375 504Q375 422 366 385T322 331T211 314Q134 314 100 331ZM262 371T281 380T305 414T310
504Q310 570 306 594T281 628T211 638Q161 638 141 629T117 595T112 504Q112 438 116 414T140 381T211 371Q262 371 281 380Z" />
<glyph unicode="&#xbb;" glyph-name="guillemotright" horiz-adv-x="474" d="M69 99L183 304L69 510H127L259 304L127 99H69ZM237 99L351 304L237 510H295L427 304L295 99H237Z" />
<glyph unicode="&#xbc;" glyph-name="onequarter" horiz-adv-x="706" d="M111 318V612L35 577V637L129 688H171V318H111ZM71 0L520 688H585L135 0H71ZM542 0V79H349V126L490 372H557L417 136H543L556 260H603V136H656V79H603V0H542Z" />
<glyph unicode="&#xbd;" glyph-name="onehalf" horiz-adv-x="785" d="M111 318V612L35 577V637L129 688H171V318H111ZM520 688H585L135 0H71L520 688ZM515 59H719V0H456V48Q456 93 459 114T473 148T509 172Q549 190 618 218Q642 228 649 239T657 273Q657 294 650
304T627 317T577 320Q548 320 463 311V368Q528 378 591 378Q633 378 659 372T702 344T719 278Q719 233 703 209T651 169L616 155Q568 137 545 127Q527 119 521 109T515 77V59Z" />
<glyph unicode="&#xbe;" glyph-name="threequarters" horiz-adv-x="798" d="M136 367T163 367Q211 367 230 377T250 421Q250 452 237 465T190 478H114V531H190Q216 531 231 542T246 585Q246 618 227 628T157 638Q111 638 52 630V685Q116 696 167 696Q245 696 276
672T308 593Q308 529 259 508V504Q313 485 313 418Q313 363 283 336T166 309Q108 309 50 319V374Q136 367 163 367ZM165 0L615 688H680L230 0H165ZM633 0V79H440V126L582 372H648L508 136H635L648 260H695V136H747V79H695V0H633Z" />
<glyph unicode="&#xbf;" glyph-name="questiondown" horiz-adv-x="438" d="M256 408V510H351V408H256ZM192 -186T148 -169T84 -114T63 -9Q63 61 80 99T147 154L195 170Q233 183 245 189T261 208T265 250V310H342V231Q342 194 335 174T312 142T268 121L237 110Q196
97 179 86T155 55T149 -7Q149 -53 162 -73T204 -100T294 -106Q364 -106 457 -94V-170Q414 -177 360 -181T266 -186Q192 -186 148 -169Z" />
<glyph unicode="&#xc0;" glyph-name="Agrave" horiz-adv-x="684" d="M567 0L496 183H186L115 0H28L288 688H396L656 0H567ZM343 595H338L212 264H469L343 595ZM332 750L203 886V891H291L392 755V750H332Z" />
<glyph unicode="&#xc1;" glyph-name="Aacute" horiz-adv-x="684" d="M567 0L496 183H186L115 0H28L288 688H396L656 0H567ZM343 595H338L212 264H469L343 595ZM290 750V755L391 891H479V886L350 750H290Z" />
<glyph unicode="&#xc2;" glyph-name="Acircumflex" horiz-adv-x="684" d="M567 0L496 183H186L115 0H28L288 688H396L656 0H567ZM343 595H338L212 264H469L343 595ZM197 750V757L299 892H384L486 757V750H430L341 846L253 750H197Z" />
<glyph unicode="&#xc3;" glyph-name="Atilde" horiz-adv-x="684" d="M567 0L496 183H186L115 0H28L288 688H396L656 0H567ZM343 595H338L212 264H469L343 595ZM523 834T518 810T498 774T450 762Q424 762 399 767T331 785Q270 804 240 804Q219 804 214 794T209
751H162Q162 795 167 819T187 855T235 868Q261 868 285 863T354 844Q359 843 379 837T416 828T445 825Q466 825 471 836T476 879H523Q523 834 518 810Z" />
<glyph unicode="&#xc4;" glyph-name="Adieresis" horiz-adv-x="684" d="M567 0L496 183H186L115 0H28L288 688H396L656 0H567ZM343 595H338L212 264H469L343 595ZM209 775V858H286V775H209ZM398 775V858H474V775H398Z" />
<glyph unicode="&#xc5;" glyph-name="Aring" horiz-adv-x="684" d="M656 0H567L496 183H186L115 0H28L280 675Q250 680 237 692T219 723T215 777Q215 821 222 842T255 874T341 885Q401 885 428 874T462 842T470 777Q470 742 466 724T448 693T404 675L656 0ZM268
749T271 738T290 721T341 716Q378 716 394 721T413 737T417 777Q417 805 414 816T394 833T341 839Q305 839 290 834T272 817T268 777Q268 749 271 738ZM212 264H469L343 595H338L212 264Z" />
<glyph unicode="&#xc6;" glyph-name="AE" horiz-adv-x="956" d="M531 0L481 183H171L80 0H-7L328 688H899V608H456L519 387H852V307H537L602 80H899V0H531ZM374 595H369L205 264H463L374 595Z" />
<glyph unicode="&#xc7;" glyph-name="Ccedilla" horiz-adv-x="575" d="M453 72T518 82V5Q487 -1 441 -4T354 -8Q327 -8 315 -7L277 -190H196V-185L257 -3Q180 6 142 39T91 142T77 344Q77 498 96 570T173 669T354 696Q395 696 440 692T514 681V606Q439 616 376
616Q271 616 230 600T175 531T162 344Q162 210 175 157T229 88T376 72Q453 72 518 82Z" />
<glyph unicode="&#xc8;" glyph-name="Egrave" horiz-adv-x="604" d="M100 0V688H548V608H186V387H500V307H186V80H548V0H100ZM313 750L184 886V891H272L373 755V750H313Z" />
<glyph unicode="&#xc9;" glyph-name="Eacute" horiz-adv-x="604" d="M100 0V688H548V608H186V387H500V307H186V80H548V0H100ZM289 750V755L390 891H478V886L349 750H289Z" />
<glyph unicode="&#xca;" glyph-name="Ecircumflex" horiz-adv-x="604" d="M100 0V688H548V608H186V387H500V307H186V80H548V0H100ZM180 750V757L282 892H367L469 757V750H413L324 846L236 750H180Z" />
<glyph unicode="&#xcb;" glyph-name="Edieresis" horiz-adv-x="604" d="M100 0V688H548V608H186V387H500V307H186V80H548V0H100ZM197 775V858H274V775H197ZM386 775V858H462V775H386Z" />
<glyph unicode="&#xcc;" glyph-name="Igrave" horiz-adv-x="286" d="M100 0V688H186V0H100ZM132 750L3 886V891H91L192 755V750H132Z" />
<glyph unicode="&#xcd;" glyph-name="Iacute" horiz-adv-x="286" d="M100 0V688H186V0H100ZM98 750V755L199 891H287V886L158 750H98Z" />
<glyph unicode="&#xce;" glyph-name="Icircumflex" horiz-adv-x="286" d="M100 0V688H186V0H100ZM-2 750V757L100 892H185L287 757V750H231L142 846L54 750H-2Z" />
<glyph unicode="&#xcf;" glyph-name="Idieresis" horiz-adv-x="286" d="M100 0V688H186V0H100ZM10 775V858H87V775H10ZM199 775V858H275V775H199Z" />
<glyph unicode="&#xd0;" glyph-name="Eth" horiz-adv-x="689" d="M100 311H32V386H100V688H319Q462 688 521 663T596 571T612 344Q612 183 596 117T521 26T319 0H100V311ZM422 80T462 92T515 154T527 344Q527 483 515 533T462 595T305 608H186V386H296V311H186V80H305Q422
80 462 92Z" />
<glyph unicode="&#xd1;" glyph-name="Ntilde" horiz-adv-x="732" d="M550 0L187 526H183V0H100V688H188L546 174H550V688H632V0H550ZM548 834T543 810T523 774T475 762Q449 762 424 767T356 785Q295 804 265 804Q244 804 239 794T234 751H187Q187 795 192 819T212
855T260 868Q286 868 310 863T379 844Q384 843 404 837T441 828T470 825Q491 825 496 836T501 879H548Q548 834 543 810Z" />
<glyph unicode="&#xd2;" glyph-name="Ograve" horiz-adv-x="718" d="M222 -8T165 19T93 113T77 344Q77 507 92 574T165 669T359 696Q495 696 552 669T625 575T641 344Q641 181 626 114T553 19T359 -8Q222 -8 165 19ZM461 72T497 85T544 150T555 344Q555 486 544
538T497 603T359 616Q257 616 221 603T173 538T162 344Q162 202 173 150T220 85T359 72Q461 72 497 85ZM334 750L205 886V891H293L394 755V750H334Z" />
<glyph unicode="&#xd3;" glyph-name="Oacute" horiz-adv-x="718" d="M222 -8T165 19T93 113T77 344Q77 507 92 574T165 669T359 696Q495 696 552 669T625 575T641 344Q641 181 626 114T553 19T359 -8Q222 -8 165 19ZM461 72T497 85T544 150T555 344Q555 486 544
538T497 603T359 616Q257 616 221 603T173 538T162 344Q162 202 173 150T220 85T359 72Q461 72 497 85ZM317 750V755L418 891H506V886L377 750H317Z" />
<glyph unicode="&#xd4;" glyph-name="Ocircumflex" horiz-adv-x="718" d="M222 -8T165 19T93 113T77 344Q77 507 92 574T165 669T359 696Q495 696 552 669T625 575T641 344Q641 181 626 114T553 19T359 -8Q222 -8 165 19ZM461 72T497 85T544 150T555 344Q555 486
544 538T497 603T359 616Q257 616 221 603T173 538T162 344Q162 202 173 150T220 85T359 72Q461 72 497 85ZM214 750V757L316 892H401L503 757V750H447L358 846L270 750H214Z" />
<glyph unicode="&#xd5;" glyph-name="Otilde" horiz-adv-x="718" d="M222 -8T165 19T93 113T77 344Q77 507 92 574T165 669T359 696Q495 696 552 669T625 575T641 344Q641 181 626 114T553 19T359 -8Q222 -8 165 19ZM461 72T497 85T544 150T555 344Q555 486 544
538T497 603T359 616Q257 616 221 603T173 538T162 344Q162 202 173 150T220 85T359 72Q461 72 497 85ZM539 834T534 810T514 774T466 762Q440 762 415 767T347 785Q286 804 256 804Q235 804 230 794T225 751H178Q178 795 183 819T203 855T251 868Q277 868 301
863T370 844Q375 843 395 837T432 828T461 825Q482 825 487 836T492 879H539Q539 834 534 810Z" />
<glyph unicode="&#xd6;" glyph-name="Odieresis" horiz-adv-x="718" d="M222 -8T165 19T93 113T77 344Q77 507 92 574T165 669T359 696Q495 696 552 669T625 575T641 344Q641 181 626 114T553 19T359 -8Q222 -8 165 19ZM461 72T497 85T544 150T555 344Q555 486
544 538T497 603T359 616Q257 616 221 603T173 538T162 344Q162 202 173 150T220 85T359 72Q461 72 497 85ZM226 775V858H303V775H226ZM415 775V858H491V775H415Z" />
<glyph unicode="&#xd7;" glyph-name="multiply" horiz-adv-x="482" d="M241 202L115 78L69 128L194 252L68 376L115 427L241 302L368 427L414 377L287 252L414 128L367 77L241 202Z" />
<glyph unicode="&#xd8;" glyph-name="Oslash" horiz-adv-x="718" d="M620 616T630 550T641 344Q641 181 626 114T553 19T359 -8Q244 -8 190 9L151 -55H77L134 39Q97 72 87 137T77 344Q77 507 92 574T165 669T359 696Q475 696 527 679L566 743H641L583 649Q620
616 630 550ZM162 247T166 197T184 120L483 607Q463 613 437 614T359 616Q257 616 221 603T173 538T162 344Q162 247 166 197ZM461 72T497 85T544 150T555 344Q555 441 551 491T533 568L234 81Q254 75 282 74T359 72Q461 72 497 85Z" />
<glyph unicode="&#xd9;" glyph-name="Ugrave" horiz-adv-x="709" d="M617 688V301Q617 167 600 105T529 17T355 -8Q235 -8 181 17T110 105T92 301V688H177V268Q177 178 187 140T233 87T355 72Q441 72 476 87T521 139T531 268V688H617ZM349 750L220 886V891H308L409
755V750H349Z" />
<glyph unicode="&#xda;" glyph-name="Uacute" horiz-adv-x="709" d="M617 688V301Q617 167 600 105T529 17T355 -8Q235 -8 181 17T110 105T92 301V688H177V268Q177 178 187 140T233 87T355 72Q441 72 476 87T521 139T531 268V688H617ZM317 750V755L418 891H506V886L377
750H317Z" />
<glyph unicode="&#xdb;" glyph-name="Ucircumflex" horiz-adv-x="709" d="M617 688V301Q617 167 600 105T529 17T355 -8Q235 -8 181 17T110 105T92 301V688H177V268Q177 178 187 140T233 87T355 72Q441 72 476 87T521 139T531 268V688H617ZM212 750V757L314 892H399L501
757V750H445L356 846L268 750H212Z" />
<glyph unicode="&#xdc;" glyph-name="Udieresis" horiz-adv-x="709" d="M617 688V301Q617 167 600 105T529 17T355 -8Q235 -8 181 17T110 105T92 301V688H177V268Q177 178 187 140T233 87T355 72Q441 72 476 87T521 139T531 268V688H617ZM222 775V858H299V775H222ZM411
775V858H487V775H411Z" />
<glyph unicode="&#xdd;" glyph-name="Yacute" horiz-adv-x="610" d="M261 0V260L12 688H104L303 353H310L508 688H598L347 260V0H261ZM276 750V755L377 891H465V886L336 750H276Z" />
<glyph unicode="&#xde;" glyph-name="Thorn" horiz-adv-x="652" d="M100 688H186V569H402Q485 569 528 542T585 469T599 351Q599 281 585 235T528 160T400 132H186V0H100V688ZM371 212Q436 212 466 225T505 267T514 351Q514 407 506 434T468 475T373 489H186V212H371Z" />
<glyph unicode="&#xdf;" glyph-name="germandbls" horiz-adv-x="608" d="M261 0V74H315Q386 74 414 83T451 125T461 239Q461 306 449 339T407 384T319 396H288V471H319Q370 471 398 480T439 509T452 566Q452 611 440 634T398 666T310 676Q256 676 227 666T182
623T167 528V0H87V541Q87 614 108 659T179 727T316 750Q401 750 448 731T515 673T534 574Q534 513 506 481T418 439V435Q482 424 512 380T543 241Q543 148 528 98T468 24T335 0H261Z" />
<glyph unicode="&#xe0;" glyph-name="agrave" horiz-adv-x="570" d="M135 -8T95 24T55 140Q55 199 69 232T116 280T211 295Q240 295 402 290V320Q402 380 391 405T349 437T245 444Q213 444 165 441T89 433V504Q168 518 274 518Q364 518 408 500T468 440T483 319V0H410L406
71H400Q379 23 333 8T223 -8Q135 -8 95 24ZM304 65T335 74T381 109Q402 145 402 209V232H232Q190 232 171 226T143 203T135 148Q135 112 144 95T177 72T254 65Q304 65 335 74ZM273 602L144 738V743H232L333 607V602H273Z" />
<glyph unicode="&#xe1;" glyph-name="aacute" horiz-adv-x="570" d="M135 -8T95 24T55 140Q55 199 69 232T116 280T211 295Q240 295 402 290V320Q402 380 391 405T349 437T245 444Q213 444 165 441T89 433V504Q168 518 274 518Q364 518 408 500T468 440T483 319V0H410L406
71H400Q379 23 333 8T223 -8Q135 -8 95 24ZM304 65T335 74T381 109Q402 145 402 209V232H232Q190 232 171 226T143 203T135 148Q135 112 144 95T177 72T254 65Q304 65 335 74ZM241 602V607L342 743H430V738L301 602H241Z" />
<glyph unicode="&#xe2;" glyph-name="acircumflex" horiz-adv-x="570" d="M135 -8T95 24T55 140Q55 199 69 232T116 280T211 295Q240 295 402 290V320Q402 380 391 405T349 437T245 444Q213 444 165 441T89 433V504Q168 518 274 518Q364 518 408 500T468 440T483
319V0H410L406 71H400Q379 23 333 8T223 -8Q135 -8 95 24ZM304 65T335 74T381 109Q402 145 402 209V232H232Q190 232 171 226T143 203T135 148Q135 112 144 95T177 72T254 65Q304 65 335 74ZM142 601V608L244 743H329L431 608V601H375L286 697L198 601H142Z" />
<glyph unicode="&#xe3;" glyph-name="atilde" horiz-adv-x="570" d="M135 -8T95 24T55 140Q55 199 69 232T116 280T211 295Q240 295 402 290V320Q402 380 391 405T349 437T245 444Q213 444 165 441T89 433V504Q168 518 274 518Q364 518 408 500T468 440T483 319V0H410L406
71H400Q379 23 333 8T223 -8Q135 -8 95 24ZM304 65T335 74T381 109Q402 145 402 209V232H232Q190 232 171 226T143 203T135 148Q135 112 144 95T177 72T254 65Q304 65 335 74ZM465 954T460 930T440 894T392 882Q366 882 341 887T273 905Q212 924 182 924Q161 924
156 914T151 871H104Q104 915 109 939T129 975T177 988Q203 988 227 983T296 964Q301 963 321 957T358 948T387 945Q408 945 413 956T418 999H465Q465 954 460 930Z" />
<glyph unicode="&#xe4;" glyph-name="adieresis" horiz-adv-x="570" d="M135 -8T95 24T55 140Q55 199 69 232T116 280T211 295Q240 295 402 290V320Q402 380 391 405T349 437T245 444Q213 444 165 441T89 433V504Q168 518 274 518Q364 518 408 500T468 440T483
319V0H410L406 71H400Q379 23 333 8T223 -8Q135 -8 95 24ZM304 65T335 74T381 109Q402 145 402 209V232H232Q190 232 171 226T143 203T135 148Q135 112 144 95T177 72T254 65Q304 65 335 74ZM154 647V730H231V647H154ZM343 647V730H419V647H343Z" />
<glyph unicode="&#xe5;" glyph-name="aring" horiz-adv-x="570" d="M135 -8T95 24T55 140Q55 199 69 232T116 280T211 295Q240 295 402 290V320Q402 380 391 405T349 437T245 444Q213 444 165 441T89 433V504Q168 518 274 518Q364 518 408 500T468 440T483 319V0H410L406
71H400Q379 23 333 8T223 -8Q135 -8 95 24ZM304 65T335 74T381 109Q402 145 402 209V232H232Q190 232 171 226T143 203T135 148Q135 112 144 95T177 72T254 65Q304 65 335 74ZM225 592T199 602T165 633T158 698Q158 741 165 762T198 794T284 805Q343 805 370 795T405
763T412 698Q412 654 405 634T371 603T284 592Q225 592 199 602ZM321 637T336 642T355 658T359 698Q359 726 356 737T337 754T284 760Q248 760 233 755T214 738T210 698Q210 670 213 659T232 642T284 637Q321 637 336 642Z" />
<glyph unicode="&#xe6;" glyph-name="ae" horiz-adv-x="898" d="M832 228H484Q484 154 493 123T537 79T649 66Q728 66 812 77V6Q780 0 730 -4T632 -8Q544 -8 499 9T432 68Q404 22 354 7T234 -8Q140 -8 98 24T55 140Q55 199 69 231T116 278T211 293L326 292Q358
291 402 291V320Q402 380 391 405T349 437T245 444Q212 444 162 441T89 433V504Q173 518 274 518Q346 518 387 506T447 463Q470 492 513 505T628 518Q724 518 766 493T820 416T832 256V228ZM560 444T532 433T494 390T484 290H754V296Q754 362 743 393T705 434T625
444Q560 444 532 433ZM402 229H232Q190 229 171 224T143 202T135 148Q135 112 144 95T177 72T254 65Q305 65 337 75T384 116Q402 151 402 209V229Z" />
<glyph unicode="&#xe7;" glyph-name="ccedilla" horiz-adv-x="460" d="M341 66T411 76V5Q384 0 346 -4T272 -8H257L219 -190H138V-185L199 -3Q139 7 111 37T74 117T65 255Q65 356 80 411T139 492T269 518Q303 518 341 514T407 505V433Q347 444 289 444Q225 444
196 429T156 376T146 255Q146 171 156 133T196 80T292 66Q341 66 411 76Z" />
<glyph unicode="&#xe8;" glyph-name="egrave" horiz-adv-x="560" d="M495 226H146Q146 153 156 122T199 79T312 66Q389 66 475 77V6Q443 0 392 -4T295 -8Q192 -8 144 16T80 93T65 254Q65 360 78 413T139 492T290 518Q386 518 429 493T483 416T495 255V226ZM223
444T195 433T157 390T146 288H417V296Q417 362 406 393T368 434T288 444Q223 444 195 433ZM269 602L140 738V743H228L329 607V602H269Z" />
<glyph unicode="&#xe9;" glyph-name="eacute" horiz-adv-x="560" d="M495 226H146Q146 153 156 122T199 79T312 66Q389 66 475 77V6Q443 0 392 -4T295 -8Q192 -8 144 16T80 93T65 254Q65 360 78 413T139 492T290 518Q386 518 429 493T483 416T495 255V226ZM223
444T195 433T157 390T146 288H417V296Q417 362 406 393T368 434T288 444Q223 444 195 433ZM244 602V607L345 743H433V738L304 602H244Z" />
<glyph unicode="&#xea;" glyph-name="ecircumflex" horiz-adv-x="560" d="M495 226H146Q146 153 156 122T199 79T312 66Q389 66 475 77V6Q443 0 392 -4T295 -8Q192 -8 144 16T80 93T65 254Q65 360 78 413T139 492T290 518Q386 518 429 493T483 416T495 255V226ZM223
444T195 433T157 390T146 288H417V296Q417 362 406 393T368 434T288 444Q223 444 195 433ZM138 601V608L240 743H325L427 608V601H371L282 697L194 601H138Z" />
<glyph unicode="&#xeb;" glyph-name="edieresis" horiz-adv-x="560" d="M495 226H146Q146 153 156 122T199 79T312 66Q389 66 475 77V6Q443 0 392 -4T295 -8Q192 -8 144 16T80 93T65 254Q65 360 78 413T139 492T290 518Q386 518 429 493T483 416T495 255V226ZM223
444T195 433T157 390T146 288H417V296Q417 362 406 393T368 434T288 444Q223 444 195 433ZM151 647V730H228V647H151ZM340 647V730H416V647H340Z" />
<glyph unicode="&#xec;" glyph-name="igrave" horiz-adv-x="254" d="M87 0V510H168V0H87ZM365 602L236 738V743H324L425 607V602H365Z" />
<glyph unicode="&#xed;" glyph-name="iacute" horiz-adv-x="254" d="M87 0V510H168V0H87ZM86 602V607L187 743H275V738L146 602H86Z" />
<glyph unicode="&#xee;" glyph-name="icircumflex" horiz-adv-x="254" d="M87 0V510H168V0H87ZM239 601V608L341 743H426L528 608V601H472L383 697L295 601H239Z" />
<glyph unicode="&#xef;" glyph-name="idieresis" horiz-adv-x="254" d="M87 0V510H168V0H87ZM251 647V730H328V647H251ZM440 647V730H516V647H440Z" />
<glyph unicode="&#xf0;" glyph-name="eth" horiz-adv-x="579" d="M183 -8T137 14T78 88T65 254Q65 363 77 415T132 492T270 517Q353 517 399 493L403 495Q379 562 340 616L222 597V656L303 669Q274 701 231 739V743H321Q326 738 345 722T383 683L491 701V642L419
630Q478 544 498 438Q512 362 512 271Q512 145 500 92T443 15T289 -8Q183 -8 137 14ZM362 66T390 78T424 125T431 254Q431 338 425 373T389 426T289 444Q216 444 188 431T153 383T146 254Q146 160 152 126T187 79T289 66Q362 66 390 78Z" />
<glyph unicode="&#xf1;" glyph-name="ntilde" horiz-adv-x="599" d="M432 287Q432 358 423 388T389 429T305 439Q242 439 213 419T176 364T168 263V0H87V510H159L163 438H169Q186 477 225 497T338 518Q412 518 449 497T500 435T513 319V0H432V287ZM481 954T476
930T456 894T408 882Q382 882 357 887T289 905Q228 924 198 924Q177 924 172 914T167 871H120Q120 915 125 939T145 975T193 988Q219 988 243 983T312 964Q317 963 337 957T374 948T403 945Q424 945 429 956T434 999H481Q481 954 476 930Z" />
<glyph unicode="&#xf2;" glyph-name="ograve" horiz-adv-x="577" d="M182 -8T136 13T78 86T65 255Q65 372 77 423T136 496T289 518Q395 518 441 497T499 424T512 255Q512 138 500 87T441 14T289 -8Q182 -8 136 13ZM362 66T390 79T424 126T431 255Q431 349 425
383T390 431T289 444Q216 444 188 431T153 384T146 255Q146 161 152 127T187 79T289 66Q362 66 390 79ZM275 602L146 738V743H234L335 607V602H275Z" />
<glyph unicode="&#xf3;" glyph-name="oacute" horiz-adv-x="577" d="M182 -8T136 13T78 86T65 255Q65 372 77 423T136 496T289 518Q395 518 441 497T499 424T512 255Q512 138 500 87T441 14T289 -8Q182 -8 136 13ZM362 66T390 79T424 126T431 255Q431 349 425
383T390 431T289 444Q216 444 188 431T153 384T146 255Q146 161 152 127T187 79T289 66Q362 66 390 79ZM249 602V607L350 743H438V738L309 602H249Z" />
<glyph unicode="&#xf4;" glyph-name="ocircumflex" horiz-adv-x="577" d="M182 -8T136 13T78 86T65 255Q65 372 77 423T136 496T289 518Q395 518 441 497T499 424T512 255Q512 138 500 87T441 14T289 -8Q182 -8 136 13ZM362 66T390 79T424 126T431 255Q431 349
425 383T390 431T289 444Q216 444 188 431T153 384T146 255Q146 161 152 127T187 79T289 66Q362 66 390 79ZM144 601V608L246 743H331L433 608V601H377L288 697L200 601H144Z" />
<glyph unicode="&#xf5;" glyph-name="otilde" horiz-adv-x="577" d="M182 -8T136 13T78 86T65 255Q65 372 77 423T136 496T289 518Q395 518 441 497T499 424T512 255Q512 138 500 87T441 14T289 -8Q182 -8 136 13ZM362 66T390 79T424 126T431 255Q431 349 425
383T390 431T289 444Q216 444 188 431T153 384T146 255Q146 161 152 127T187 79T289 66Q362 66 390 79ZM469 954T464 930T444 894T396 882Q370 882 345 887T277 905Q216 924 186 924Q165 924 160 914T155 871H108Q108 915 113 939T133 975T181 988Q207 988 231
983T300 964Q305 963 325 957T362 948T391 945Q412 945 417 956T422 999H469Q469 954 464 930Z" />
<glyph unicode="&#xf6;" glyph-name="odieresis" horiz-adv-x="577" d="M182 -8T136 13T78 86T65 255Q65 372 77 423T136 496T289 518Q395 518 441 497T499 424T512 255Q512 138 500 87T441 14T289 -8Q182 -8 136 13ZM362 66T390 79T424 126T431 255Q431 349 425
383T390 431T289 444Q216 444 188 431T153 384T146 255Q146 161 152 127T187 79T289 66Q362 66 390 79ZM156 647V730H233V647H156ZM345 647V730H421V647H345Z" />
<glyph unicode="&#xf7;" glyph-name="divide" horiz-adv-x="540" d="M234 401V481H306V401H234ZM70 217V288H470V217H70ZM234 24V105H306V24H234Z" />
<glyph unicode="&#xf8;" glyph-name="oslash" horiz-adv-x="577" d="M494 458T503 409T512 255Q512 138 500 87T441 14T289 -8Q208 -8 167 3L131 -55H65L115 27Q83 52 74 101T65 255Q65 372 77 423T136 496T289 518Q367 518 410 507L445 565H512L462 483Q494 458
503 409ZM146 185T148 153T162 103L367 438Q344 444 289 444Q216 444 188 431T153 384T146 255Q146 185 148 153ZM362 66T390 79T424 126T431 255Q431 326 429 357T415 408L209 72Q233 66 289 66Q362 66 390 79Z" />
<glyph unicode="&#xf9;" glyph-name="ugrave" horiz-adv-x="599" d="M436 72H430Q413 33 374 13T261 -8Q188 -8 151 13T100 75T87 191V510H168V223Q168 151 176 121T210 81T294 71Q357 71 386 91T424 146T432 247V510H513V0H440L436 72ZM283 602L154 738V743H242L343
607V602H283Z" />
<glyph unicode="&#xfa;" glyph-name="uacute" horiz-adv-x="599" d="M436 72H430Q413 33 374 13T261 -8Q188 -8 151 13T100 75T87 191V510H168V223Q168 151 176 121T210 81T294 71Q357 71 386 91T424 146T432 247V510H513V0H440L436 72ZM268 602V607L369 743H457V738L328
602H268Z" />
<glyph unicode="&#xfb;" glyph-name="ucircumflex" horiz-adv-x="599" d="M436 72H430Q413 33 374 13T261 -8Q188 -8 151 13T100 75T87 191V510H168V223Q168 151 176 121T210 81T294 71Q357 71 386 91T424 146T432 247V510H513V0H440L436 72ZM155 601V608L257
743H342L444 608V601H388L299 697L211 601H155Z" />
<glyph unicode="&#xfc;" glyph-name="udieresis" horiz-adv-x="599" d="M436 72H430Q413 33 374 13T261 -8Q188 -8 151 13T100 75T87 191V510H168V223Q168 151 176 121T210 81T294 71Q357 71 386 91T424 146T432 247V510H513V0H440L436 72ZM166 647V730H243V647H166ZM355
647V730H431V647H355Z" />
<glyph unicode="&#xfd;" glyph-name="yacute" horiz-adv-x="599" d="M176 -206T111 -197V-127Q221 -132 265 -132Q342 -132 377 -117T422 -68T432 38V68H426Q411 34 373 15T261 -5Q188 -5 151 15T100 77T87 192V510H168V225Q168 153 176 123T210 83T294 73Q357
73 386 93T424 148T432 248V510H513V62Q513 -44 497 -99T432 -180T283 -206Q176 -206 111 -197ZM266 602V607L367 743H455V738L326 602H266Z" />
<glyph unicode="&#xfe;" glyph-name="thorn" horiz-adv-x="591" d="M87 743H168V443H173Q193 485 233 501T337 518Q413 518 453 495T509 417T526 256Q526 150 510 94T454 15T339 -8Q274 -8 234 8T173 64H168V-189H87V743ZM370 71T397 83T434 132T444 255Q444 341
435 378T398 427T305 440Q256 440 226 427T183 385Q173 364 171 335T168 255Q168 207 170 180T179 135Q192 101 222 86T305 71Q370 71 397 83Z" />
<glyph unicode="&#xff;" glyph-name="ydieresis" horiz-adv-x="599" d="M176 -206T111 -197V-127Q221 -132 265 -132Q342 -132 377 -117T422 -68T432 38V68H426Q411 34 373 15T261 -5Q188 -5 151 15T100 77T87 192V510H168V225Q168 153 176 123T210 83T294 73Q357
73 386 93T424 148T432 248V510H513V62Q513 -44 497 -99T432 -180T283 -206Q176 -206 111 -197ZM168 647V730H245V647H168ZM357 647V730H433V647H357Z" />
<glyph unicode="&#x2013;" glyph-name="endash" horiz-adv-x="472" d="M57 268V340H415V268H57Z" />
<glyph unicode="&#x2014;" glyph-name="emdash" horiz-adv-x="873" d="M57 268V340H816V268H57Z" />
<glyph unicode="&#x2018;" glyph-name="quoteleft" horiz-adv-x="219" d="M64 551Q64 609 72 637T103 677T176 688V648Q140 648 129 636T118 586V569H155V470H64V551Z" />
<glyph unicode="&#x2019;" glyph-name="quoteright" horiz-adv-x="219" d="M79 510T90 522T101 572V589H64V688H155V607Q155 548 147 520T116 481T43 470V510Q79 510 90 522Z" />
<glyph unicode="&#x201a;" glyph-name="quotesinglbase" horiz-adv-x="219" d="M79 -79T90 -67T101 -17V0H64V99H155V18Q155 -41 147 -69T116 -108T43 -119V-79Q79 -79 90 -67Z" />
<glyph unicode="&#x201c;" glyph-name="quotedblleft" horiz-adv-x="382" d="M64 551Q64 609 72 637T103 677T176 688V648Q140 648 129 636T118 586V569H155V470H64V551ZM226 551Q226 610 234 638T266 677T339 688V648Q302 648 291 636T280 586V569H318V470H226V551Z" />
<glyph unicode="&#x201d;" glyph-name="quotedblright" horiz-adv-x="382" d="M79 510T90 522T101 572V589H64V688H155V607Q155 548 147 520T116 481T43 470V510Q79 510 90 522ZM242 510T253 522T264 572V589H226V688H318V607Q318 549 310 521T279 481T206 470V510Q242
510 253 522Z" />
<glyph unicode="&#x201e;" glyph-name="quotedblbase" horiz-adv-x="382" d="M79 -79T90 -67T101 -17V0H64V99H155V18Q155 -41 147 -69T116 -108T43 -119V-79Q79 -79 90 -67ZM242 -79T253 -67T264 -17V0H226V99H318V18Q318 -40 310 -68T279 -108T206 -119V-79Q242
-79 253 -67Z" />
<glyph unicode="&#x2022;" glyph-name="bullet" horiz-adv-x="369" d="M294 289T288 268T260 239T183 231Q129 231 108 239T81 268T75 342Q75 397 80 418T108 448T183 456Q238 456 260 448T288 419T294 342Q294 289 288 268Z" />
<glyph unicode="&#x2039;" glyph-name="guilsinglleft" horiz-adv-x="306" d="M178 99L46 304L178 510H236L123 304L236 99H178Z" />
<glyph unicode="&#x203a;" glyph-name="guilsinglright" horiz-adv-x="306" d="M69 99L183 304L69 510H128L260 304L128 99H69Z" />
</font>
</defs>
</svg>
