<?xml version="1.0" standalone="no"?>
<!DOCTYPE svg PUBLIC "-//W3C//DTD SVG 1.1//EN" "http://www.w3.org/Graphics/SVG/1.1/DTD/svg11.dtd">
<svg xmlns="http://www.w3.org/2000/svg">
<defs >
<font id="SuezOne" horiz-adv-x="575" ><font-face
    font-family="Suez One"
    units-per-em="1000"
    panose-1="0 0 5 0 0 0 0 0 0 0"
    ascent="987"
    descent="-319"
    alphabetic="0" />
<glyph unicode=" " glyph-name="space" horiz-adv-x="206" />
<glyph unicode="!" glyph-name="exclam" horiz-adv-x="330" d="M70 682L202 698H249L215 217H111L70 682ZM75 107L225 146L262 8L113 -32L75 107Z" />
<glyph unicode="&quot;" glyph-name="quotedbl" horiz-adv-x="454" d="M50 674H208V615L122 370H65L50 674ZM256 674H414V615L327 370H271L256 674Z" />
<glyph unicode="#" glyph-name="numbersign" horiz-adv-x="622" d="M148 172H45L69 232H174L209 315H106L134 375H235L277 473H371L321 375H393L435 473H527L477 375H577L549 315H445L404 232H512L487 172H375L322 74H265L306 172H221L166 74H106L148 172ZM333
232L367 315H290L247 232H333Z" />
<glyph unicode="$" glyph-name="dollar" horiz-adv-x="545" d="M490 88T439 42T295 -15L303 -156H233L241 -18Q155 -18 55 10Q61 121 67 163L127 174L192 103Q230 93 271 93Q294 93 309 96Q312 104 312 118Q312 132 306 141T280 163T212 200Q150 232 117 256T71
307T57 371Q57 446 105 492T239 550L233 674H303L297 553Q341 552 386 542T467 517Q467 453 459 365L404 357L333 434Q307 441 254 441Q245 441 221 439Q218 435 218 418Q218 397 239 379T324 329Q395 294 429 271T476 224T490 164Q490 88 439 42Z" />
<glyph unicode="%" glyph-name="percent" horiz-adv-x="637" d="M55 68L582 564V458L55 -37V68ZM121 309T92 340T63 430Q63 482 100 515T193 548Q248 548 277 517T307 427Q307 376 270 343T176 309Q121 309 92 340ZM204 375T213 379Q219 397 219 424Q219 481 180
481Q169 481 155 478Q151 464 151 437Q151 375 189 375Q204 375 213 379ZM389 -22T360 9T330 100Q330 151 367 183T462 216Q517 216 546 186T575 97Q575 45 538 12T445 -22Q389 -22 360 9ZM468 46T483 49Q486 58 486 90Q486 151 449 151Q433 151 424 147Q419 129
419 103Q419 46 458 46Q468 46 483 49Z" />
<glyph unicode="&amp;" glyph-name="ampersand" horiz-adv-x="797" d="M641 113T683 125T762 151L756 14Q708 -12 642 -12Q579 -12 515 12Q489 22 465 33Q373 -16 268 -16Q196 -16 141 7T55 72T24 171Q24 227 54 275T140 358Q109 431 109 494Q109 584 170 637T337
690Q429 690 481 649T534 534Q534 466 487 418T349 344Q383 298 431 251Q458 224 508 186L516 203Q531 233 531 251Q531 268 514 282L486 309V353Q568 382 663 382Q664 375 664 351Q664 288 646 238T584 135Q607 121 627 113Q641 113 683 125ZM269 567T269 548Q269
492 301 426Q342 443 360 465T379 517Q379 580 303 580Q281 580 273 578Q269 567 269 548ZM181 155T221 126T320 96Q340 96 356 99Q302 138 259 183Q222 222 193 264Q181 237 181 209Q181 155 221 126Z" />
<glyph unicode="&apos;" glyph-name="quotesingle" horiz-adv-x="243" d="M45 674H203V615L117 370H60L45 674Z" />
<glyph unicode="(" glyph-name="parenleft" horiz-adv-x="324" d="M237 -166T179 -96T78 78T35 302Q35 423 78 522T179 686T289 786V688Q238 617 203 519T167 302Q167 182 203 79T289 -99V-204Q237 -166 179 -96Z" />
<glyph unicode=")" glyph-name="parenright" horiz-adv-x="324" d="M35 -99Q85 -24 121 79T157 302Q157 421 122 519T35 688V786Q87 752 145 687T246 522T289 302Q289 181 246 78T145 -95T35 -204V-99Z" />
<glyph unicode="*" glyph-name="asterisk" horiz-adv-x="466" d="M183 485L100 457L65 516L131 573L65 630L99 691L183 662L198 748H268L284 662L366 691L401 631L336 574L401 517L367 457L284 485L268 400H198L183 485Z" />
<glyph unicode="+" glyph-name="plus" horiz-adv-x="613" d="M533 210H364V39H249V210H80V321H249V493H364V321H533V210Z" />
<glyph unicode="," glyph-name="comma" horiz-adv-x="274" d="M97 -102T105 -80T113 -45Q113 -34 109 -26T93 -7L40 46Q83 121 146 165Q176 143 201 114Q235 77 235 38Q235 19 230 3T210 -49Q185 -103 145 -172H68Q97 -102 105 -80Z" />
<glyph unicode="-" glyph-name="hyphen" horiz-adv-x="472" d="M88 339L332 372H384V240H88V339Z" />
<glyph unicode="." glyph-name="period" horiz-adv-x="303" d="M55 117L217 160L258 11L97 -32L55 117Z" />
<glyph unicode="/" glyph-name="slash" horiz-adv-x="307" d="M237 754H304L71 -61H3L237 754Z" />
<glyph unicode="0" glyph-name="zero" horiz-adv-x="655" d="M172 -20T104 53T36 267Q36 348 76 412T187 513T349 549Q482 549 550 476T619 260Q619 179 579 116T468 16T305 -20Q172 -20 104 53ZM381 104T419 119Q427 141 432 177T437 252Q437 335 406 378T315
421Q284 421 234 412Q218 387 218 283Q218 197 249 151T339 104Q381 104 419 119Z" />
<glyph unicode="1" glyph-name="one" horiz-adv-x="392" d="M20 102L128 122V347Q128 367 125 372T102 389L20 434L29 500L215 554L297 547V154Q297 131 299 125T316 112L387 76L384 0H25L20 102Z" />
<glyph unicode="2" glyph-name="two" horiz-adv-x="433" d="M19 117Q35 131 68 156T122 198Q216 270 240 291Q245 313 245 333Q245 368 226 384T164 400Q111 400 40 390L35 429L47 530Q122 549 199 549Q290 549 343 509T397 399Q397 327 360 272T238 150L196 119L363
157H404L393 0H22L19 117Z" />
<glyph unicode="3" glyph-name="three" horiz-adv-x="473" d="M94 -156T54 -146T-17 -117L41 23H85Q141 -4 219 -4Q284 -4 307 18Q308 72 283 99T205 132L138 138Q102 140 84 142Q92 216 105 261Q173 269 195 273T232 284Q240 314 241 341Q240 374 221 387T152
400Q94 400 28 385L29 431L49 527Q121 549 201 549Q291 549 346 512T402 411Q402 376 386 341T337 266Q393 250 419 215T445 119Q445 42 405 -21T294 -120T138 -156Q94 -156 54 -146Z" />
<glyph unicode="4" glyph-name="four" horiz-adv-x="595" d="M313 35H41L15 141L284 554L467 534L475 186H570V147L545 35H478L482 -125L361 -143H313V35ZM313 186V399L178 186H313Z" />
<glyph unicode="5" glyph-name="five" horiz-adv-x="502" d="M85 -156T28 -116L81 20H121Q174 -8 256 -8Q315 -8 340 15Q341 68 318 96T245 129Q269 127 129 137L73 140L51 399Q50 428 56 465T72 538H294Q317 538 324 540T343 557L362 581L440 560Q433 478 419
379H181V295L210 293Q278 289 323 282T401 254Q473 211 473 115Q473 39 435 -23T329 -120T179 -156Q85 -156 28 -116Z" />
<glyph unicode="6" glyph-name="six" horiz-adv-x="564" d="M204 -20T150 9T67 92T38 217Q38 278 53 330T112 461Q130 496 158 536T259 675L431 687L440 647L244 422L333 442Q422 431 474 377T527 242Q527 169 494 109T404 15T276 -20Q204 -20 150 9ZM339 113T363
120Q364 128 364 153Q364 237 338 277T255 317Q224 317 200 313Q199 303 199 276Q199 197 226 155T304 113Q339 113 363 120Z" />
<glyph unicode="7" glyph-name="seven" horiz-adv-x="499" d="M60 -99L340 387L170 383L94 308L28 316L50 538H474L487 441L246 -143H60V-99Z" />
<glyph unicode="8" glyph-name="eight" horiz-adv-x="591" d="M165 -20T102 28T36 168Q36 226 61 270T135 344Q96 374 81 407T65 489Q65 547 94 592T178 662T302 687Q407 687 465 640T524 506Q524 459 508 419T460 353Q510 324 532 285T554 188Q554 126 521 79T428
6T288 -20Q165 -20 102 28ZM367 455T367 493Q367 533 343 552T269 572Q261 572 239 570Q234 562 230 544T226 514Q226 492 235 477T268 447T345 408Q367 455 367 493ZM332 95T365 100Q384 133 384 168Q383 191 368 207T327 237T246 274L228 282Q216 263 209 238T201
189Q201 95 315 95Q332 95 365 100Z" />
<glyph unicode="9" glyph-name="nine" horiz-adv-x="564" d="M125 -118L321 109L232 89Q144 100 91 154T38 289Q38 362 71 421T161 515T288 549Q360 549 414 520T497 438T527 314Q527 253 511 201T453 70Q434 34 404 -10T307 -145L134 -156L125 -118ZM341 214T364
218Q365 228 365 254Q365 332 338 375T262 418Q227 418 202 412Q201 403 201 377Q201 293 227 254T310 214Q341 214 364 218Z" />
<glyph unicode=":" glyph-name="colon" horiz-adv-x="344" d="M75 456L230 496L270 355L116 314L75 456ZM77 111L232 151L272 10L118 -31L77 111Z" />
<glyph unicode=";" glyph-name="semicolon" horiz-adv-x="277" d="M42 456L197 496L237 355L83 314L42 456ZM97 -102T105 -80T113 -45Q113 -34 109 -26T93 -7L40 46Q83 121 146 165Q176 143 201 114Q235 77 235 38Q235 19 230 3T210 -49Q185 -103 145 -172H68Q97
-102 105 -80Z" />
<glyph unicode="&lt;" glyph-name="less" horiz-adv-x="669" d="M100 231V300L569 507V372L241 265L569 159V22L100 231Z" />
<glyph unicode="=" glyph-name="equal" horiz-adv-x="611" d="M80 424H531V312H80V424ZM80 220H531V110H80V220Z" />
<glyph unicode="&gt;" glyph-name="greater" horiz-adv-x="669" d="M100 159L428 265L100 372V507L569 300V231L100 22V159Z" />
<glyph unicode="?" glyph-name="question" horiz-adv-x="377" d="M99 246T99 286Q99 332 142 388L178 434Q179 468 167 485T131 511T51 533L15 542L17 572Q55 646 98 702Q219 682 281 649T343 551Q343 514 325 485T271 418L253 398Q235 378 227 365T219 338Q219
325 226 311T254 267Q199 227 128 190Q99 246 99 286ZM79 107L228 146L265 8L117 -32L79 107Z" />
<glyph unicode="@" glyph-name="at" horiz-adv-x="877" d="M577 631T650 599T767 501T812 335Q812 259 786 203T715 116T614 86Q542 86 486 126Q444 91 389 91Q333 91 307 126T280 226Q280 321 333 379T489 437Q546 437 602 417L560 178Q589 163 622 163Q672 163
695 206T718 315Q718 437 652 497T482 557Q391 557 321 512T213 392T174 227Q174 107 246 42T455 -24L445 -99Q341 -99 256 -69T118 31T65 210Q65 323 120 419T272 573T490 631Q577 631 650 599ZM384 174T421 174Q438 174 466 188L494 353Q473 360 449 360Q431
360 407 354Q399 333 392 293T384 228Q384 174 421 174Z" />
<glyph unicode="A" glyph-name="A" horiz-adv-x="712" d="M16 89L47 108L281 675L451 690L651 150Q661 124 665 116T680 94L698 71L692 0H411L401 95L472 113L440 214L237 211L215 148Q212 139 212 133Q212 126 214 123T223 117L292 88L282 0H20L16 89ZM343 519L277
327L406 321L343 519Z" />
<glyph unicode="B" glyph-name="B" horiz-adv-x="648" d="M150 -4T42 4L37 102L110 122V503Q110 529 106 537T85 553L33 582L39 665Q201 686 317 686Q459 686 525 644T591 511Q591 466 577 432T534 369Q634 324 634 223Q634 133 584 78T437 6Q401 -4 258 -4Q150
-4 42 4ZM415 427T415 488Q415 530 396 550T336 572Q310 572 284 570V403Q301 404 328 404Q369 404 405 401Q415 427 415 488ZM420 120T444 130Q454 170 454 201Q454 251 428 272T340 293Q327 293 307 291L284 290V127Q319 120 363 120Q420 120 444 130Z" />
<glyph unicode="C" glyph-name="C" horiz-adv-x="643" d="M189 -15T107 78T25 341Q25 449 64 527T179 647T357 689Q474 689 598 636Q589 546 569 437L493 432L424 533Q380 546 327 546Q287 546 251 539Q235 508 225 457T215 354Q215 243 255 190T384 134Q419 134
472 144T577 172L608 62Q556 28 483 7T341 -15Q189 -15 107 78Z" />
<glyph unicode="D" glyph-name="D" horiz-adv-x="735" d="M133 -3T42 6L37 102L110 122V503Q110 529 106 537T85 553L33 582L39 665Q143 673 214 677T328 682Q466 682 549 650T671 549T710 366Q710 222 644 133Q585 56 488 27T241 -3Q133 -3 42 6ZM451 140T500
160Q509 185 516 238T524 337Q524 450 478 504T336 558Q323 558 312 557T291 555V145Q331 140 367 140Q451 140 500 160Z" />
<glyph unicode="E" glyph-name="E" horiz-adv-x="623" d="M27 102L100 122V505Q100 531 96 539T75 555L25 584L28 674H571Q578 569 578 469L504 464L433 552L282 556V393L495 411V257L282 280V119L448 122L525 210L599 205Q595 100 584 0H32L27 102Z" />
<glyph unicode="F" glyph-name="F" horiz-adv-x="608" d="M27 102L100 122V505Q100 531 96 539T75 555L25 584L28 674H571Q578 569 578 469L504 464L433 552L282 556V378L495 397V243L282 266V162Q282 138 285 131T304 117L364 81L361 0H32L27 102Z" />
<glyph unicode="G" glyph-name="G" horiz-adv-x="676" d="M195 -12T110 77T25 341Q25 448 66 525T185 644T370 685Q500 685 623 633Q613 537 595 441L519 436L456 528Q406 546 332 546Q297 546 248 539Q230 509 220 459T210 351Q210 236 256 180T399 122Q423 122
460 126V199Q460 219 457 225T440 239L402 258L406 326L429 330Q440 332 507 342T619 355Q629 336 634 312V50Q576 21 505 5T364 -12Q195 -12 110 77Z" />
<glyph unicode="H" glyph-name="H" horiz-adv-x="765" d="M27 105L90 122V505Q90 531 87 539T67 555L25 579L28 674H340L345 572L271 552V406L499 412V505Q499 531 495 539T474 555L425 583L430 674H737L741 569L680 552V162Q680 138 683 131T701 117L742 93L738
0H434L429 103L499 122V271L271 281V162Q271 138 274 131T293 117L346 86L342 0H32L27 105Z" />
<glyph unicode="I" glyph-name="I" horiz-adv-x="388" d="M32 102L105 122V505Q105 531 101 539T80 555L28 585L33 674H354L358 572L286 552V162Q286 138 289 131T308 117L359 86L356 0H37L32 102Z" />
<glyph unicode="J" glyph-name="J" horiz-adv-x="378" d="M116 -90T87 -69T20 -7L101 91V505Q101 531 97 539T76 555L25 585L29 674H350L355 572L282 552V232Q282 126 265 59T204 -77L173 -121Q116 -90 87 -69Z" />
<glyph unicode="K" glyph-name="K" horiz-adv-x="703" d="M27 105L90 122V505Q90 531 87 539T67 555L25 579L28 674H340L345 572L271 552V364L446 553Q450 557 450 564Q450 569 447 573L418 608L429 674H661L673 606L444 361L689 45V0H498L271 301V162Q271 140
274 132T293 116L346 86L342 0H32L27 105Z" />
<glyph unicode="L" glyph-name="L" horiz-adv-x="584" d="M27 105L90 122V505Q90 531 87 539T67 555L25 579L28 674H340L345 572L271 552V120L397 123L482 220L559 216Q557 132 545 0H32L27 105Z" />
<glyph unicode="M" glyph-name="M" horiz-adv-x="952" d="M228 442L206 146V142Q206 123 220 117L282 91L272 0H23L13 89L59 117L116 503Q117 510 117 520Q117 532 112 538T91 553L45 579L51 674H338L481 208L623 674H891L895 569L831 553L885 161Q888 141 893
130T919 94L940 67L934 0H636L627 92L709 113L675 448L547 -4L376 -19L228 442Z" />
<glyph unicode="N" glyph-name="N" horiz-adv-x="748" d="M205 426L222 164Q223 141 227 134T245 119L297 84L293 0H33L28 109L82 122L86 516Q86 535 83 542T69 558L32 586L39 674H246L548 287L534 510Q533 534 529 541T511 556L459 590L462 674H720L724 572L673
550L669 9L554 -29L205 426Z" />
<glyph unicode="O" glyph-name="O" horiz-adv-x="722" d="M188 -14T107 70T25 325Q25 436 66 517T183 643T364 687Q698 687 698 346Q698 234 657 153T539 29T354 -14Q188 -14 107 70ZM432 124T484 153Q495 184 501 230T507 322Q507 433 466 490T344 547Q287 547
234 526Q223 507 217 464T211 364Q211 248 253 186T375 124Q432 124 484 153Z" />
<glyph unicode="P" glyph-name="P" horiz-adv-x="647" d="M37 102L110 122V503Q110 529 106 537T85 553L33 582L39 663Q115 675 183 680T329 686Q437 686 502 663T598 591T629 461Q629 356 554 296T347 236L292 238V162Q292 138 295 131T313 117L374 81L370 0H42L37
102ZM410 347T435 358Q446 407 446 461Q446 520 424 545T351 570Q334 570 292 566V353Q319 347 356 347Q410 347 435 358Z" />
<glyph unicode="Q" glyph-name="Q" horiz-adv-x="740" d="M421 -9Q386 -14 354 -14Q188 -14 107 70T25 325Q25 436 66 517T183 643T364 687Q698 687 698 346Q698 188 620 95L731 100V-36H666L421 -9ZM405 124T430 131T484 153Q495 184 501 230T507 322Q507 433
466 490T344 547Q288 547 234 526Q223 507 218 464T212 364Q212 248 253 186T375 124Q405 124 430 131Z" />
<glyph unicode="R" glyph-name="R" horiz-adv-x="674" d="M37 102L110 122V503Q110 529 106 537T85 553L33 582L39 664Q189 686 328 686Q436 686 502 665T598 598T629 477Q629 415 597 369T506 297L666 39L665 0H483L335 267L291 268V156Q291 132 294 126T312
111L355 86L351 0H42L37 102ZM408 380T433 390Q443 426 443 476Q443 526 422 547T350 568Q322 568 293 565V386Q319 380 355 380Q408 380 433 390Z" />
<glyph unicode="S" glyph-name="S" horiz-adv-x="571" d="M141 -12T28 22Q33 121 44 206L121 221L171 136Q231 115 277 115Q293 115 345 124Q347 144 347 151Q347 175 339 187T304 215T207 262Q121 304 83 352T45 467Q45 570 115 628T307 686Q366 686 424 675T527
643Q525 587 518 504L515 461L442 450L366 547Q330 558 276 558Q242 558 225 552Q220 532 220 521Q220 499 231 483T270 449T353 405Q433 367 474 338T531 278T548 201Q548 102 469 45T251 -12Q141 -12 28 22Z" />
<glyph unicode="T" glyph-name="T" horiz-adv-x="699" d="M172 98L259 122V555L175 548L101 459L28 465Q28 548 36 674H662Q670 548 670 465L598 459L523 548L441 555V162Q441 138 444 131T461 117L523 80L519 0H177L172 98Z" />
<glyph unicode="U" glyph-name="U" horiz-adv-x="753" d="M217 -13T149 64T80 308V505Q80 531 77 539T57 555L25 574L28 674H340L345 575L262 552V347Q262 243 292 183T395 123Q419 123 441 130T480 149Q490 172 494 210T498 314V505Q498 531 494 539T473 555L424
583L429 674H726L731 566L679 552V326Q679 165 597 76T364 -13Q217 -13 149 64Z" />
<glyph unicode="V" glyph-name="V" horiz-adv-x="723" d="M58 557L25 604L29 674H317L327 579L256 561L389 182L508 527Q511 535 511 541Q511 554 499 558L430 586L437 674H698L704 589L660 533L442 -3L270 -18L58 557Z" />
<glyph unicode="W" glyph-name="W" horiz-adv-x="1092" d="M59 557L25 604L29 674H316L322 579L250 560L374 173L473 481L429 610L433 674H699L705 579L639 560L762 173L877 527Q880 535 880 541Q880 554 867 558L799 586L805 674H1067L1072 589L1031 533L821
-4L646 -21L541 285L433 -4L248 -21L59 557Z" />
<glyph unicode="X" glyph-name="X" horiz-adv-x="700" d="M356 90L408 103L306 240L232 134Q228 129 228 123Q228 116 239 107L274 79L267 3H25L20 89L44 112L233 337L72 554L22 614L25 674H335L346 584L293 571L390 441L461 544Q464 549 464 553Q464 561 454
570L418 597L425 674H668L674 588L649 565L463 343L630 120L680 60L676 0H362L356 90Z" />
<glyph unicode="Y" glyph-name="Y" horiz-adv-x="673" d="M160 98L246 122V254L63 547L17 604L21 674H314L324 579L259 561L364 383L451 530Q455 537 455 544Q455 555 443 560L385 586L392 674H644L651 580L611 556L427 286V162Q427 138 430 131T448 117L510 80L506
0H165L160 98Z" />
<glyph unicode="Z" glyph-name="Z" horiz-adv-x="625" d="M28 124L341 541L200 531L121 445L42 460L69 674H571L581 560L259 133L452 145L522 234L606 215Q589 67 579 0H35L28 124Z" />
<glyph unicode="[" glyph-name="bracketleft" horiz-adv-x="320" d="M70 789H280V698H192V-120H280V-211H70V789Z" />
<glyph unicode="\" glyph-name="backslash" horiz-adv-x="307" d="M3 754H70L304 -61H236L3 754Z" />
<glyph unicode="]" glyph-name="bracketright" horiz-adv-x="319" d="M39 -120H127V698H39V789H249V-211H39V-120Z" />
<glyph unicode="^" glyph-name="asciicircum" horiz-adv-x="616" d="M254 674H371L561 275H425L312 567L188 275H55L254 674Z" />
<glyph unicode="_" glyph-name="underscore" horiz-adv-x="490" d="M0 -66H490V-160H0V-66Z" />
<glyph unicode="`" glyph-name="grave" horiz-adv-x="570" d="M124 715V756H304L399 583H313L124 715Z" />
<glyph unicode="a" glyph-name="a" horiz-adv-x="554" d="M102 -13T61 24T20 121Q20 200 99 245T331 296Q331 343 324 365T297 396T237 405Q196 405 179 402L138 321L64 326Q47 406 40 492Q96 511 162 522T287 533Q393 533 439 492T485 354V145Q485 127 488 120T504
106L544 83L540 21Q424 -6 357 -9Q355 -3 351 12T344 42Q305 17 259 2T170 -13Q102 -13 61 24ZM277 100T334 127L330 203Q306 205 298 205Q271 205 235 200T178 187Q175 174 175 163Q175 133 191 117T237 100Q277 100 334 127Z" />
<glyph unicode="b" glyph-name="b" horiz-adv-x="565" d="M198 -12T143 -1T41 30V592Q41 614 38 620T22 635L-25 658L-20 734Q73 750 121 757T196 765Q206 744 210 713V513Q267 533 323 533Q428 533 487 467T547 276Q547 139 472 64T253 -12Q198 -12 143 -1ZM335
117T358 127Q366 154 371 190T376 260Q376 414 273 414Q247 414 210 405V130Q236 117 288 117Q335 117 358 127Z" />
<glyph unicode="c" glyph-name="c" horiz-adv-x="504" d="M143 -13T79 58T15 256Q15 387 83 460T271 533Q361 533 464 492Q462 463 455 416T440 328L373 322L311 401Q286 406 255 406Q230 406 209 403Q186 359 186 279Q186 197 215 158T303 118Q331 118 371 126T453
151L477 51Q437 23 378 5T259 -13Q143 -13 79 58Z" />
<glyph unicode="d" glyph-name="d" horiz-adv-x="589" d="M123 -13T69 59T15 252Q15 391 88 462T298 533Q306 533 350 531V591Q350 613 347 620T330 635L285 658L290 734Q386 751 432 757T505 765Q514 742 518 713V144Q518 126 521 119T538 105L576 82L572 20Q474
-5 380 -10Q373 9 366 36Q298 -13 219 -13Q123 -13 69 59ZM310 115T351 137V396Q321 409 274 409Q236 409 201 399Q193 380 189 347T184 274Q184 192 206 154T277 115Q310 115 351 137Z" />
<glyph unicode="e" glyph-name="e" horiz-adv-x="521" d="M142 -12T79 59T15 255Q15 342 46 404T134 500T267 533Q380 533 440 461T498 256L194 200Q208 158 233 139T301 119Q330 119 370 127T451 151L474 52Q437 24 378 6T259 -12Q142 -12 79 59ZM334 340Q332
378 313 395T258 413Q229 413 203 405Q182 356 184 299L334 340Z" />
<glyph unicode="f" glyph-name="f" horiz-adv-x="405" d="M25 92L95 113V406L25 407V505L95 509V574Q95 665 148 715T302 765Q354 765 428 752L405 616Q361 628 329 632T263 636V518L377 525V402L263 404V146Q263 125 266 118T283 103L345 69L342 0H28L25 92Z" />
<glyph unicode="g" glyph-name="g" horiz-adv-x="572" d="M117 -228T59 -192T0 -86Q0 -12 68 44Q47 65 47 90Q47 126 94 192Q12 235 12 340Q12 432 74 482T255 533Q338 533 391 508L511 545H558V400H480Q485 375 485 351Q485 259 423 211T241 163Q200 163 167
169V155Q167 139 180 133T239 120L329 107Q435 92 475 55T516 -40Q516 -130 442 -179T232 -228Q117 -228 59 -192ZM277 261T304 267Q308 279 311 303T315 347Q315 392 296 414T235 436Q215 436 191 430Q186 418 183 395T179 351Q179 305 198 283T256 261Q277 261
304 267ZM324 -115T348 -107Q354 -95 354 -75Q354 -51 337 -39T276 -20L244 -15Q200 -10 155 -1Q149 -28 149 -44Q149 -80 181 -97T278 -115Q324 -115 348 -107Z" />
<glyph unicode="h" glyph-name="h" horiz-adv-x="660" d="M26 95L88 113V592Q88 614 85 620T69 635L25 658L28 734L59 739Q191 763 244 765Q253 741 257 713V485Q312 510 350 521T427 533Q583 533 583 343V146Q583 125 586 118T603 103L651 75L647 0H371L366 95L415
109V299Q415 343 413 361T396 390T349 400Q317 400 257 389V146Q257 125 260 118T276 103L325 75L321 0H31L26 95Z" />
<glyph unicode="i" glyph-name="i" horiz-adv-x="347" d="M67 740L237 785L278 633L109 587L67 740ZM25 92L95 113V356Q95 378 92 384T74 399L30 423L35 498Q118 514 163 521T247 530Q260 487 263 466V146Q263 125 266 118T283 103L332 75L328 0H28L25 92Z" />
<glyph unicode="j" glyph-name="j" horiz-adv-x="286" d="M36 740L206 785L248 633L77 587L36 740ZM82 -200T55 -180T-15 -116L65 -23V356Q65 378 62 384T45 399L0 423L5 498Q19 500 25 502Q36 504 103 516T216 530Q226 497 233 466V113Q233 11 218 -57T161 -186L133
-227Q82 -200 55 -180Z" />
<glyph unicode="k" glyph-name="k" horiz-adv-x="619" d="M26 95L88 113V592Q88 614 85 620T69 635L25 658L28 734L59 739Q191 763 244 765Q253 741 257 713V306L368 414Q373 419 373 425Q373 430 370 433L342 468L353 523H575Q584 490 587 452L421 310L614 44V0H438L257
260V146Q257 125 260 118T276 103L325 75L321 0H31L26 95Z" />
<glyph unicode="l" glyph-name="l" horiz-adv-x="342" d="M25 92L95 113V592Q95 614 92 620T74 635L30 658L35 734Q55 738 66 739Q198 763 250 765Q260 742 263 713V146Q263 125 266 118T283 103L332 75L328 0H28L25 92Z" />
<glyph unicode="m" glyph-name="m" horiz-adv-x="964" d="M26 95L88 113V356Q88 378 85 384T69 399L25 423L28 498L55 503Q178 528 237 530Q245 509 250 487Q304 512 342 522T413 533Q452 533 486 519T537 480Q594 508 639 520T726 533Q808 533 847 486T886 343V146Q886
125 889 118T906 103L954 75L950 0H678L673 95L721 109V298Q721 341 719 359T702 388T655 399Q629 399 568 390Q570 374 570 343V146Q570 125 573 118T591 103L640 75L636 0H362L357 95L405 109V298Q405 342 403 360T386 389T340 399Q305 399 255 390V146Q255 125
258 118T274 103L323 75L319 0H31L26 95Z" />
<glyph unicode="n" glyph-name="n" horiz-adv-x="660" d="M26 96L88 114V356Q88 378 85 384T69 399L25 423L28 498L50 502Q181 528 239 530Q247 509 252 484Q313 512 351 522T424 533Q583 533 583 343V147Q583 126 586 119T603 104L651 76L647 1H371L366 96L415
110V299Q415 344 412 362T396 390T348 400Q312 400 257 389V147Q257 126 260 119T276 104L325 76L321 1H31L26 96Z" />
<glyph unicode="o" glyph-name="o" horiz-adv-x="553" d="M140 -13T78 52T15 251Q15 337 46 401T137 499T276 533Q535 533 535 265Q535 134 465 61T267 -13Q140 -13 78 52ZM303 104T318 107T350 119Q356 142 360 178T364 247Q364 328 339 370T263 412Q230 412
196 403Q189 388 185 355T181 278Q181 194 207 149T283 104Q303 104 318 107Z" />
<glyph unicode="p" glyph-name="p" horiz-adv-x="583" d="M-2 -120L60 -103V356Q60 378 57 384T40 399L-5 423L0 498Q5 499 10 500T21 502Q68 511 120 519T207 530Q216 509 219 482Q250 507 285 520T356 533Q456 533 509 463T563 262Q563 127 489 56T275 -16Q260
-16 228 -14V-69Q228 -91 231 -98T248 -112L307 -145L303 -215H3L-2 -120ZM348 108T377 121Q385 146 390 181T396 248Q396 325 370 367T296 409Q267 409 228 392V120Q257 108 301 108Q348 108 377 121Z" />
<glyph unicode="q" glyph-name="q" d="M265 -126L352 -103V3Q294 -13 247 -13Q130 -13 73 56T15 255Q15 390 89 461T303 533Q362 533 420 521T520 490V-69Q520 -91 523 -98T541 -112L572 -130L568 -215H268L265 -126ZM293 111T309 115T351 131V391Q318 406 269
406Q229 406 202 396Q194 378 189 345T184 273Q184 194 208 153T276 111Q293 111 309 115Z" />
<glyph unicode="r" glyph-name="r" horiz-adv-x="426" d="M27 95L88 113V356Q88 378 85 384T69 399L25 423L28 498Q45 502 57 503Q178 528 236 530Q245 504 253 465Q313 512 355 530H412Q411 492 407 448T397 376Q361 378 344 378Q302 378 257 373V146Q257 125
260 118T276 103L336 71L332 0H32L27 95Z" />
<glyph unicode="s" glyph-name="s" horiz-adv-x="461" d="M132 -17T28 11Q34 109 41 156L98 167L161 100Q194 90 235 90Q258 90 271 93Q274 101 274 115Q274 127 269 135T244 154T178 188Q119 219 88 243T44 294T30 356Q30 436 89 483T251 530Q293 530 339 521T423
495Q423 430 414 350L362 342L295 414Q269 422 219 422Q211 422 187 420Q184 414 184 401Q184 387 192 377T220 354T286 318Q352 286 385 263T432 215T446 157Q446 75 384 29T211 -17Q132 -17 28 11Z" />
<glyph unicode="t" glyph-name="t" horiz-adv-x="416" d="M134 -13T92 30T50 163V406H-20V479L160 643L218 636V523H386V405H218V199Q218 151 231 135T284 119Q317 119 376 128L388 26Q352 9 308 -2T222 -13Q134 -13 92 30Z" />
<glyph unicode="u" glyph-name="u" horiz-adv-x="612" d="M126 -14T87 33T48 177V356Q48 378 45 384T27 399L-18 423L-13 498Q1 500 7 502Q18 504 85 516T198 530Q209 505 215 472V220Q215 176 217 158T233 131T280 121Q328 121 373 138V356Q373 378 370 384T354
399L310 423L314 498Q395 513 440 521T524 530Q535 505 541 472V144Q541 126 544 119T558 105L598 82L595 20Q552 9 496 1T392 -10Q388 2 383 20Q382 28 378 39H375Q334 15 289 1T206 -14Q126 -14 87 33Z" />
<glyph unicode="v" glyph-name="v" horiz-adv-x="533" d="M14 386Q3 413 -1 421T-16 443L-33 465L-28 523H224L234 438L176 424L267 166L355 403Q357 409 357 412Q357 421 348 424L301 444L310 523H500L510 442L312 -2L168 -13L14 386Z" />
<glyph unicode="w" glyph-name="w" horiz-adv-x="812" d="M20 386Q9 413 5 421T-10 443L-27 465L-22 523H231L241 438L186 425L254 182L353 515L456 529L570 173L634 403Q636 409 636 412Q636 421 627 424L579 444L589 523H779L789 445L617 -5L473 -16L390 262L299
-5L155 -16L20 386Z" />
<glyph unicode="x" glyph-name="x" horiz-adv-x="580" d="M25 75L190 265L58 437Q48 450 40 457T29 467L34 523H302L307 446L267 437L336 348L385 418Q389 423 389 429Q389 436 383 439L349 456L354 523H550L555 447L401 263L535 89Q557 61 565 53L560 0H284L279
73L328 85L255 180L199 105Q195 100 195 94Q195 87 201 84L235 67L230 0H28L25 75Z" />
<glyph unicode="y" glyph-name="y" horiz-adv-x="537" d="M107 -181T51 -105L162 4L17 386Q6 413 2 421T-13 443L-30 465L-25 523H231L241 438L183 424L265 173L357 403Q359 409 359 412Q359 421 351 424L304 444L313 523H503L512 442L384 163Q315 12 270 -74T179
-229Q107 -181 51 -105Z" />
<glyph unicode="z" glyph-name="z" horiz-adv-x="512" d="M25 103L284 408L163 399L112 331L45 342Q53 458 61 523H464L478 405L238 115L364 124L423 194L492 180Q487 104 473 0H34L25 103Z" />
<glyph unicode="{" glyph-name="braceleft" horiz-adv-x="369" d="M227 -209T192 -188T143 -125T125 -16Q121 89 115 132T88 198T16 224Q23 296 35 358Q75 366 92 388T115 452T125 595Q129 697 165 742T289 787H329L313 653Q278 653 265 646T248 614T242 522Q240
438 234 401T209 339T142 290Q189 265 209 240T234 178T242 57Q244 -12 248 -35T265 -66T313 -74H329L311 -209H289Q227 -209 192 -188Z" />
<glyph unicode="|" glyph-name="bar" horiz-adv-x="324" d="M120 768H204V-227H120V768Z" />
<glyph unicode="}" glyph-name="braceright" horiz-adv-x="368" d="M56 -75Q91 -75 103 -68T120 -37T126 56Q129 141 135 178T160 239T226 288Q179 313 160 338T135 400T126 521Q124 590 120 613T104 644T56 652H40L58 787H80Q142 787 177 766T226 703T244 594Q248
489 254 446T281 380T353 354Q347 283 334 220Q294 212 277 190T254 126T244 -17Q240 -119 204 -164T80 -209H40L56 -75Z" />
<glyph unicode="&#xa0;" glyph-name="uni00A0" horiz-adv-x="206" />
<glyph unicode="&#xa1;" glyph-name="exclamdown" horiz-adv-x="330" d="M68 526L217 566L255 427L105 388L68 526ZM115 317H219L260 -148L128 -164H81L115 317Z" />
<glyph unicode="&#xa2;" glyph-name="cent" horiz-adv-x="573" d="M495 26T446 9T345 -15L352 -156H283L289 -17Q171 -13 108 61T45 271Q45 394 110 469T288 552L283 687H352L346 552Q430 546 516 509Q512 462 489 340L422 334L356 417Q322 423 295 423Q268 423
247 419Q235 398 229 364T222 293Q222 115 346 115Q373 115 415 125T503 152L528 50Q495 26 446 9Z" />
<glyph unicode="&#xa3;" glyph-name="sterling" horiz-adv-x="568" d="M35 87L110 108L121 247L50 248L54 305L126 308L133 372Q142 459 198 507T358 556Q419 556 501 539L468 405Q417 421 381 426T308 431L297 317L413 324L406 243L291 244L279 116H380L441 192L526
173L511 110Q497 49 463 25T367 0H33L35 87Z" />
<glyph unicode="&#xa4;" glyph-name="currency" horiz-adv-x="646" d="M441 89Q386 54 323 54Q257 54 204 91L126 4L60 67L150 146Q114 196 114 264Q114 330 150 382L61 462L124 529L205 437Q257 473 323 473Q391 473 443 437L521 527L586 461L497 382Q533 328
533 264Q533 199 497 145L585 64L519 0L441 89ZM367 157T398 188T430 264Q430 308 399 339T323 371Q280 371 249 340T217 264Q217 220 248 189T323 157Q367 157 398 188Z" />
<glyph unicode="&#xa5;" glyph-name="yen" horiz-adv-x="701" d="M499 317L631 318V257L455 259L431 228V212L631 214V153L431 155V133Q431 118 434 113T450 98L506 60L502 0H196L192 74L269 103V158L70 160V208L259 210L225 262L70 263V311L192 313L112 436L70
479L76 535H338L347 459L293 437L377 307L438 405Q442 412 442 417Q442 424 433 433L391 465L397 535H624L631 460L595 442L499 317Z" />
<glyph unicode="&#xa6;" glyph-name="brokenbar" horiz-adv-x="324" d="M120 768H204V422H120V768ZM120 119H204V-227H120V119Z" />
<glyph unicode="&#xa7;" glyph-name="section" horiz-adv-x="563" d="M403 215T319 250L320 267Q320 280 313 289T288 309T223 344Q164 375 133 399T89 450T75 512Q75 593 134 639T296 686Q338 686 384 676T468 651Q468 585 459 506L406 498L340 570Q314 578 263
578Q254 578 232 576Q229 570 229 557Q229 544 237 534T266 510T331 474Q397 442 430 419T477 372T490 313Q490 281 482 251T457 200Q403 215 319 250ZM174 -154T73 -127Q79 -33 85 18L143 29L206 -38Q239 -48 279 -48Q303 -48 316 -45Q319 -38 319 -23Q319 -11
313 -3T289 15T223 50Q164 81 133 105T89 156T75 218Q75 284 99 323Q175 300 227 277Q226 274 226 266Q226 249 235 238T264 215T331 180Q397 148 430 125T477 77T490 19Q490 -63 428 -108T255 -154Q174 -154 73 -127Z" />
<glyph unicode="&#xa8;" glyph-name="dieresis" horiz-adv-x="570" d="M80 713L221 751L255 626L114 588L80 713ZM317 713L457 751L491 626L351 588L317 713Z" />
<glyph unicode="&#xa9;" glyph-name="copyright" horiz-adv-x="736" d="M282 -39T211 3T97 117T55 274Q55 359 97 430T210 544T367 586Q453 586 525 544T639 431T681 274Q681 189 639 117T525 3T367 -39Q282 -39 211 3ZM416 36T461 48T541 81Q593 155 593 252Q593
323 565 382T484 477T363 513Q320 513 275 500T194 467Q141 391 141 295Q141 225 169 166T250 71T372 36Q416 36 461 48ZM297 118T261 159T224 273Q224 348 263 389T372 430Q431 430 480 407L467 319L432 317L402 361Q382 368 359 368Q339 368 325 363Q317 350
313 328T308 281Q308 185 384 185Q401 185 424 189T470 200L485 152Q461 137 428 128T364 118Q297 118 261 159Z" />
<glyph unicode="&#xaa;" glyph-name="ordfeminine" horiz-adv-x="397" d="M94 369T70 391T46 449Q46 494 93 520T227 548Q227 576 223 589T208 606T171 611Q149 611 140 610L115 564L72 566Q61 625 58 662Q90 674 129 680T205 687Q264 687 290 663T316 583V461Q316
451 318 448T328 439L351 425L348 389Q286 374 243 370L234 403Q213 387 186 378T134 369Q94 369 70 391ZM194 435T228 451L227 495H209Q191 495 170 492T140 485Q137 479 137 471Q137 454 146 445T171 435Q194 435 228 451ZM43 312H354V264H43V312Z" />
<glyph unicode="&#xab;" glyph-name="guillemotleft" horiz-adv-x="499" d="M20 277L167 492L243 479L152 277L235 72L155 59L20 277ZM236 277L383 492L460 479L368 277L452 72L371 59L236 277Z" />
<glyph unicode="&#xac;" glyph-name="logicalnot" horiz-adv-x="637" d="M446 277H80V384H557L555 140H446V277Z" />
<glyph unicode="&#xad;" glyph-name="uni00AD" horiz-adv-x="462" d="M88 339L332 372H384V240H88V339Z" />
<glyph unicode="&#xae;" glyph-name="registered" horiz-adv-x="524" d="M203 262T154 290T77 368T48 476Q48 535 76 584T154 662T262 691Q321 691 370 663T447 585T476 476Q476 417 448 368T370 291T262 262Q203 262 154 290ZM295 312T326 321T381 344Q398 370
407 400T417 461Q417 510 398 551T343 616T259 641Q229 641 198 632T143 609Q107 558 107 493Q107 444 126 403T182 337T265 312Q295 312 326 321ZM175 410L196 417V530Q196 537 195 539T188 544L173 552L175 577Q229 584 261 584Q308 584 329 570T350 522Q350
504 341 490T313 469L361 393L360 380H304L258 460H250V427Q250 421 250 418T255 412L269 406L266 380H176L175 410ZM285 494T291 497Q294 506 294 522Q294 537 288 543T266 549Q254 549 251 548V495Q257 494 269 494Q285 494 291 497Z" />
<glyph unicode="&#xaf;" glyph-name="overscore" horiz-adv-x="570" d="M131 721L437 709V619L131 610V721Z" />
<glyph unicode="&#xb0;" glyph-name="degree" horiz-adv-x="399" d="M117 407T79 442T40 539Q40 609 88 647T210 686Q281 686 319 650T358 552Q358 482 310 445T188 407Q117 407 79 442ZM232 470T248 478Q258 506 258 541Q258 621 191 621Q174 621 149 615Q142
592 142 556Q142 470 211 470Q232 470 248 478Z" />
<glyph unicode="&#xb1;" glyph-name="plusminus" horiz-adv-x="562" d="M229 318H80V413H229V549H334V413H482V318H334V183H229V318ZM80 101L482 102V0H80V101Z" />
<glyph unicode="&#xb2;" glyph-name="uni00B2" horiz-adv-x="380" d="M60 486L129 540Q182 580 209 602Q212 611 212 632Q212 655 199 665T157 675Q124 675 76 668L73 695L83 761Q135 775 182 775Q243 775 278 748T313 672Q313 625 284 589T181 494L294 513H320L314
408H62L60 486Z" />
<glyph unicode="&#xb3;" glyph-name="uni00B3" horiz-adv-x="399" d="M100 397T60 420L98 501H125Q164 488 202 488Q233 488 251 498Q251 525 238 538T195 553L165 555Q158 555 147 555T120 558Q125 581 140 625L166 628Q206 634 209 635Q210 642 210 653Q210
671 202 677T173 684Q133 684 94 677L90 698L97 760Q151 778 193 778Q246 778 279 756T313 699Q313 666 276 625Q309 614 324 595T339 544Q339 503 315 470T248 417T155 397Q100 397 60 420Z" />
<glyph unicode="&#xb4;" glyph-name="acute" horiz-adv-x="570" d="M274 756H454V715L266 583H179L274 756Z" />
<glyph unicode="&#xb5;" glyph-name="uni00B5" horiz-adv-x="664" d="M89 356Q89 378 86 384T69 399L25 423L29 498Q43 500 73 506Q116 514 162 521T239 530Q251 503 255 472V205Q255 171 259 154T277 129T321 120Q365 120 414 138V356Q414 379 412 385T395 399L350
423L355 498L398 506Q442 514 489 521T565 530Q574 509 581 472V144Q581 125 584 118T601 105L640 82L636 19Q591 8 536 0T433 -10Q430 -2 426 14T419 39H416Q378 16 335 2T255 -14V-202L123 -227H89V356Z" />
<glyph unicode="&#xb6;" glyph-name="paragraph" horiz-adv-x="591" d="M275 259H266Q164 259 110 311T55 469Q55 573 109 623T266 674H501V-145H429V602H347V-145H275V259Z" />
<glyph unicode="&#xb7;" glyph-name="middot" horiz-adv-x="268" d="M49 371L184 408L219 284L84 248L49 371Z" />
<glyph unicode="&#xb8;" glyph-name="cedilla" horiz-adv-x="570" d="M176 -190Q212 -190 242 -184T286 -168Q288 -156 288 -149Q288 -132 273 -125T209 -112V-92L242 21H320L281 -35Q305 -40 337 -49Q367 -60 382 -75T397 -117Q397 -170 341 -198T186 -227L176 -190Z" />
<glyph unicode="&#xb9;" glyph-name="uni00B9" horiz-adv-x="365" d="M60 477L131 491V641Q131 654 129 657T115 668L60 697L66 742L189 779L244 774V511Q244 497 246 493T257 483L305 460L303 408H62L60 477Z" />
<glyph unicode="&#xba;" glyph-name="ordmasculine" horiz-adv-x="398" d="M120 369T84 407T48 523Q48 599 89 643T201 687Q350 687 350 532Q350 455 309 412T195 369Q120 369 84 407ZM221 438T243 446Q251 475 251 520Q251 617 192 617Q177 617 153 610Q150 602
148 582T145 540Q145 438 205 438Q221 438 243 446ZM44 312H355V264H44V312Z" />
<glyph unicode="&#xbb;" glyph-name="guillemotright" horiz-adv-x="499" d="M47 72L130 277L39 479L116 492L263 277L127 59L47 72ZM264 72L347 277L256 479L332 492L479 277L344 59L264 72Z" />
<glyph unicode="&#xbc;" glyph-name="onequarter" horiz-adv-x="869" d="M585 702H643L277 -87H219L585 702ZM60 358L131 372V522Q131 535 129 538T115 549L60 579L66 624L189 660L244 655V393Q244 378 246 374T257 364L305 341L303 290H62L60 358ZM653 63H492L476
133L626 362L748 351L752 156H809L795 63H752V0L675 -16H653V63ZM653 156V276L583 156H653Z" />
<glyph unicode="&#xbd;" glyph-name="onehalf" horiz-adv-x="859" d="M585 702H643L277 -87H219L585 702ZM60 358L131 372V522Q131 535 129 538T115 549L60 579L66 624L189 660L244 655V393Q244 378 246 374T257 364L305 341L303 290H62L60 358ZM536 77Q538 79
606 131Q653 165 688 194Q692 206 692 223Q692 246 679 256T639 266Q607 266 556 260L554 286L562 353Q617 366 664 366Q724 366 759 340T794 267Q794 217 764 178T658 84L772 105H799L790 0H539L536 77Z" />
<glyph unicode="&#xbe;" glyph-name="threequarters" horiz-adv-x="872" d="M588 702H646L280 -87H222L588 702ZM102 278T60 303L96 383H125Q158 370 201 370Q232 370 251 379Q251 406 237 420T193 436Q184 436 163 437T120 440Q126 469 138 506Q186 512 208 517Q209
524 209 535Q209 553 201 559T172 566Q133 566 93 559L89 581L95 642Q149 660 191 660Q245 660 279 639T313 582Q313 550 275 506Q308 497 322 478T337 426Q337 385 313 351T247 298T155 278Q102 278 60 303ZM655 63H495L479 133L629 362L750 351L755 156H812L797
63H755V0L677 -16H655V63ZM655 156V276L586 156H655Z" />
<glyph unicode="&#xbf;" glyph-name="questiondown" horiz-adv-x="377" d="M113 525L261 565L299 426L150 387L113 525ZM159 -149T97 -116T35 -18Q35 19 53 48T107 115L125 135Q143 155 151 168T159 195Q159 208 152 222T124 266Q179 306 250 343Q279 287 279
247Q279 201 236 145L200 99Q199 65 211 48T247 22T327 0L363 -9L361 -39Q323 -113 280 -169Q159 -149 97 -116Z" />
<glyph unicode="&#xc0;" glyph-name="Agrave" horiz-adv-x="712" d="M16 89L47 108L281 675L451 690L651 150Q661 124 665 116T680 94L698 71L692 0H411L401 95L472 113L440 214L237 211L215 148Q212 139 212 133Q212 126 214 123T223 117L292 88L282 0H20L16
89ZM343 519L277 327L406 321L343 519ZM172 880V921H352L447 748H361L172 880Z" />
<glyph unicode="&#xc1;" glyph-name="Aacute" horiz-adv-x="712" d="M16 89L47 108L281 675L451 690L651 150Q661 124 665 116T680 94L698 71L692 0H411L401 95L472 113L440 214L237 211L215 148Q212 139 212 133Q212 126 214 123T223 117L292 88L282 0H20L16
89ZM343 519L277 327L406 321L343 519ZM404 921H584V880L396 748H309L404 921Z" />
<glyph unicode="&#xc2;" glyph-name="Acircumflex" horiz-adv-x="712" d="M16 89L47 108L281 675L451 690L651 150Q661 124 665 116T680 94L698 71L692 0H411L401 95L472 113L440 214L237 211L215 148Q212 139 212 133Q212 126 214 123T223 117L292 88L282 0H20L16
89ZM343 519L277 327L406 321L343 519ZM303 921H452L577 748H494L377 821L261 748H178L303 921Z" />
<glyph unicode="&#xc3;" glyph-name="Atilde" horiz-adv-x="712" d="M16 89L47 108L281 675L451 690L651 150Q661 124 665 116T680 94L698 71L692 0H411L401 95L472 113L440 214L237 211L215 148Q212 139 212 133Q212 126 214 123T223 117L292 88L282 0H20L16
89ZM343 519L277 327L406 321L343 519ZM420 762T358 784Q338 791 318 796T285 802Q279 799 272 792T255 771H200Q216 842 242 875T310 908Q330 908 351 903T403 886Q408 884 433 876T477 868Q482 871 489 879T506 899H561Q545 828 519 795T451 762Q420 762 358
784Z" />
<glyph unicode="&#xc4;" glyph-name="Adieresis" horiz-adv-x="712" d="M16 89L47 108L281 675L451 690L651 150Q661 124 665 116T680 94L698 71L692 0H411L401 95L472 113L440 214L237 211L215 148Q212 139 212 133Q212 126 214 123T223 117L292 88L282 0H20L16
89ZM343 519L277 327L406 321L343 519ZM171 895L312 933L346 808L205 770L171 895ZM408 895L548 933L582 808L442 770L408 895Z" />
<glyph unicode="&#xc5;" glyph-name="Aring" horiz-adv-x="712" d="M16 89L47 108L281 675L451 690L651 150Q661 124 665 116T680 94L698 71L692 0H411L401 95L472 113L440 214L237 211L215 148Q212 139 212 133Q212 126 214 123T223 117L292 88L282 0H20L16 89ZM343
519L277 327L406 321L343 519ZM312 749T283 772T254 845Q254 891 288 919T378 947Q499 947 499 850Q499 802 467 776T375 749Q312 749 283 772ZM399 803T409 807Q415 833 415 844Q415 890 373 890Q352 890 344 888Q338 874 338 853Q338 829 348 816T379 803Q399
803 409 807Z" />
<glyph unicode="&#xc6;" glyph-name="AE" horiz-adv-x="927" d="M-10 89L21 108L386 674H875Q882 569 882 469L807 464L736 552L598 556L612 393L798 411V257L622 280L636 119L751 122L829 210L903 205Q899 115 887 0H405L395 95L457 113L450 214L245 212L209
149Q205 141 205 135Q205 123 217 117L286 88L276 0H-6L-10 89ZM428 538L310 324L443 317L428 538Z" />
<glyph unicode="&#xc7;" glyph-name="Ccedilla" horiz-adv-x="643" d="M441 -60T456 -75T471 -117Q471 -170 415 -198T260 -227L250 -190Q286 -190 316 -184T360 -168Q362 -156 362 -149Q362 -132 347 -125T283 -112V-92L306 -14Q170 -3 98 89T25 341Q25 449 64
527T179 647T357 689Q474 689 598 636Q589 546 569 437L493 432L424 533Q380 546 327 546Q287 546 251 539Q235 508 225 457T215 354Q215 243 255 190T384 134Q419 134 472 144T577 172L608 62Q562 32 498 11T370 -14L355 -35Q379 -40 411 -49Q441 -60 456 -75Z"
/>
<glyph unicode="&#xc8;" glyph-name="Egrave" horiz-adv-x="623" d="M27 102L100 122V505Q100 531 96 539T75 555L25 584L28 674H571Q578 569 578 469L504 464L433 552L282 556V393L495 411V257L282 280V119L448 122L525 210L599 205Q595 100 584 0H32L27 102ZM109
867V908H289L384 735H298L109 867Z" />
<glyph unicode="&#xc9;" glyph-name="Eacute" horiz-adv-x="623" d="M27 102L100 122V505Q100 531 96 539T75 555L25 584L28 674H571Q578 569 578 469L504 464L433 552L282 556V393L495 411V257L282 280V119L448 122L525 210L599 205Q595 100 584 0H32L27 102ZM341
908H521V867L333 735H246L341 908Z" />
<glyph unicode="&#xca;" glyph-name="Ecircumflex" horiz-adv-x="623" d="M27 102L100 122V505Q100 531 96 539T75 555L25 584L28 674H571Q578 569 578 469L504 464L433 552L282 556V393L495 411V257L282 280V119L448 122L525 210L599 205Q595 100 584 0H32L27
102ZM240 908H389L514 735H431L314 808L198 735H115L240 908Z" />
<glyph unicode="&#xcb;" glyph-name="Edieresis" horiz-adv-x="623" d="M27 102L100 122V505Q100 531 96 539T75 555L25 584L28 674H571Q578 569 578 469L504 464L433 552L282 556V393L495 411V257L282 280V119L448 122L525 210L599 205Q595 100 584 0H32L27 102ZM108
882L249 920L283 795L142 757L108 882ZM345 882L485 920L519 795L379 757L345 882Z" />
<glyph unicode="&#xcc;" glyph-name="Igrave" horiz-adv-x="388" d="M32 102L105 122V505Q105 531 101 539T80 555L28 585L33 674H354L358 572L286 552V162Q286 138 289 131T308 117L359 86L356 0H37L32 102ZM-10 867V908H170L265 735H179L-10 867Z" />
<glyph unicode="&#xcd;" glyph-name="Iacute" horiz-adv-x="388" d="M32 102L105 122V505Q105 531 101 539T80 555L28 585L33 674H354L358 572L286 552V162Q286 138 289 131T308 117L359 86L356 0H37L32 102ZM222 908H402V867L214 735H127L222 908Z" />
<glyph unicode="&#xce;" glyph-name="Icircumflex" horiz-adv-x="388" d="M32 102L105 122V505Q105 531 101 539T80 555L28 585L33 674H354L358 572L286 552V162Q286 138 289 131T308 117L359 86L356 0H37L32 102ZM121 908H270L395 735H312L195 808L79 735H-4L121 908Z" />
<glyph unicode="&#xcf;" glyph-name="Idieresis" horiz-adv-x="388" d="M32 102L105 122V505Q105 531 101 539T80 555L28 585L33 674H354L358 572L286 552V162Q286 138 289 131T308 117L359 86L356 0H37L32 102ZM-11 882L130 920L164 795L23 757L-11 882ZM226
882L366 920L400 795L260 757L226 882Z" />
<glyph unicode="&#xd0;" glyph-name="Eth" horiz-adv-x="736" d="M466 682T549 650T671 549T710 366Q710 222 644 133Q585 56 488 27T241 -3Q133 -3 42 6L37 102L110 122V297L37 300V368L110 375V503Q110 529 106 537T85 553L33 582L39 665Q143 673 214 677T328
682Q466 682 549 650ZM509 185T516 238T524 337Q524 450 478 504T336 558Q323 558 312 557T291 555V392L378 400V286L291 290V145Q331 140 367 140Q451 140 500 160Q509 185 516 238Z" />
<glyph unicode="&#xd1;" glyph-name="Ntilde" horiz-adv-x="748" d="M205 426L222 164Q223 141 227 134T245 119L297 84L293 0H33L28 109L82 122L86 516Q86 535 83 542T69 558L32 586L39 674H246L548 287L534 510Q533 534 529 541T511 556L459 590L462 674H720L724
572L673 550L669 9L554 -29L205 426ZM419 749T357 771Q337 778 317 783T284 789Q278 786 271 779T254 758H199Q215 829 241 862T309 895Q329 895 350 890T402 873Q407 871 432 863T476 855Q481 858 488 866T505 886H560Q544 815 518 782T450 749Q419 749 357 771Z"
/>
<glyph unicode="&#xd2;" glyph-name="Ograve" horiz-adv-x="722" d="M188 -14T107 70T25 325Q25 436 66 517T183 643T364 687Q698 687 698 346Q698 234 657 153T539 29T354 -14Q188 -14 107 70ZM432 124T484 153Q495 184 501 230T507 322Q507 433 466 490T344
547Q287 547 234 526Q223 507 217 464T211 364Q211 248 253 186T375 124Q432 124 484 153ZM160 867V908H340L435 735H349L160 867Z" />
<glyph unicode="&#xd3;" glyph-name="Oacute" horiz-adv-x="722" d="M188 -14T107 70T25 325Q25 436 66 517T183 643T364 687Q698 687 698 346Q698 234 657 153T539 29T354 -14Q188 -14 107 70ZM432 124T484 153Q495 184 501 230T507 322Q507 433 466 490T344
547Q287 547 234 526Q223 507 217 464T211 364Q211 248 253 186T375 124Q432 124 484 153ZM392 908H572V867L384 735H297L392 908Z" />
<glyph unicode="&#xd4;" glyph-name="Ocircumflex" horiz-adv-x="722" d="M188 -14T107 70T25 325Q25 436 66 517T183 643T364 687Q698 687 698 346Q698 234 657 153T539 29T354 -14Q188 -14 107 70ZM432 124T484 153Q495 184 501 230T507 322Q507 433 466 490T344
547Q287 547 234 526Q223 507 217 464T211 364Q211 248 253 186T375 124Q432 124 484 153ZM291 908H440L565 735H482L365 808L249 735H166L291 908Z" />
<glyph unicode="&#xd5;" glyph-name="Otilde" horiz-adv-x="722" d="M188 -14T107 70T25 325Q25 436 66 517T183 643T364 687Q698 687 698 346Q698 234 657 153T539 29T354 -14Q188 -14 107 70ZM432 124T484 153Q495 184 501 230T507 322Q507 433 466 490T344
547Q287 547 234 526Q223 507 217 464T211 364Q211 248 253 186T375 124Q432 124 484 153ZM408 749T346 771Q326 778 306 783T273 789Q267 786 260 779T243 758H188Q204 829 230 862T298 895Q318 895 339 890T391 873Q396 871 421 863T465 855Q470 858 477 866T494
886H549Q533 815 507 782T439 749Q408 749 346 771Z" />
<glyph unicode="&#xd6;" glyph-name="Odieresis" horiz-adv-x="722" d="M188 -14T107 70T25 325Q25 436 66 517T183 643T364 687Q698 687 698 346Q698 234 657 153T539 29T354 -14Q188 -14 107 70ZM432 124T484 153Q495 184 501 230T507 322Q507 433 466 490T344
547Q287 547 234 526Q223 507 217 464T211 364Q211 248 253 186T375 124Q432 124 484 153ZM159 882L300 920L334 795L193 757L159 882ZM396 882L536 920L570 795L430 757L396 882Z" />
<glyph unicode="&#xd7;" glyph-name="multiply" horiz-adv-x="540" d="M349 266L470 145L390 66L270 186L149 66L70 145L190 266L70 386L149 466L270 345L390 466L470 386L349 266Z" />
<glyph unicode="&#xd8;" glyph-name="Oslash" horiz-adv-x="722" d="M698 521T698 346Q698 234 657 153T539 29T354 -14Q254 -14 185 16L151 -31H38L109 67Q25 153 25 325Q25 436 66 517T183 643T364 687Q466 687 534 656L571 707H684L611 606Q698 521 698 346ZM211
288T229 234L436 520Q399 547 344 547Q287 547 234 526Q223 507 217 464T211 364Q211 288 229 234ZM495 184T501 230T507 322Q507 392 491 440L284 153Q321 124 375 124Q432 124 484 153Q495 184 501 230Z" />
<glyph unicode="&#xd9;" glyph-name="Ugrave" horiz-adv-x="753" d="M217 -13T149 64T80 308V505Q80 531 77 539T57 555L25 574L28 674H340L345 575L262 552V347Q262 243 292 183T395 123Q419 123 441 130T480 149Q490 172 494 210T498 314V505Q498 531 494 539T473
555L424 583L429 674H726L731 566L679 552V326Q679 165 597 76T364 -13Q217 -13 149 64ZM182 867V908H362L457 735H371L182 867Z" />
<glyph unicode="&#xda;" glyph-name="Uacute" horiz-adv-x="753" d="M217 -13T149 64T80 308V505Q80 531 77 539T57 555L25 574L28 674H340L345 575L262 552V347Q262 243 292 183T395 123Q419 123 441 130T480 149Q490 172 494 210T498 314V505Q498 531 494 539T473
555L424 583L429 674H726L731 566L679 552V326Q679 165 597 76T364 -13Q217 -13 149 64ZM414 908H594V867L406 735H319L414 908Z" />
<glyph unicode="&#xdb;" glyph-name="Ucircumflex" horiz-adv-x="753" d="M217 -13T149 64T80 308V505Q80 531 77 539T57 555L25 574L28 674H340L345 575L262 552V347Q262 243 292 183T395 123Q419 123 441 130T480 149Q490 172 494 210T498 314V505Q498 531 494
539T473 555L424 583L429 674H726L731 566L679 552V326Q679 165 597 76T364 -13Q217 -13 149 64ZM313 908H462L587 735H504L387 808L271 735H188L313 908Z" />
<glyph unicode="&#xdc;" glyph-name="Udieresis" horiz-adv-x="753" d="M217 -13T149 64T80 308V505Q80 531 77 539T57 555L25 574L28 674H340L345 575L262 552V347Q262 243 292 183T395 123Q419 123 441 130T480 149Q490 172 494 210T498 314V505Q498 531 494
539T473 555L424 583L429 674H726L731 566L679 552V326Q679 165 597 76T364 -13Q217 -13 149 64ZM181 882L322 920L356 795L215 757L181 882ZM418 882L558 920L592 795L452 757L418 882Z" />
<glyph unicode="&#xdd;" glyph-name="Yacute" horiz-adv-x="673" d="M160 98L246 122V254L63 547L17 604L21 674H314L324 579L259 561L364 383L451 530Q455 537 455 544Q455 555 443 560L385 586L392 674H644L651 580L611 556L427 286V162Q427 138 430 131T448
117L510 80L506 0H165L160 98ZM386 908H566V867L378 735H291L386 908Z" />
<glyph unicode="&#xde;" glyph-name="Thorn" horiz-adv-x="624" d="M32 92L105 113V510Q105 537 101 546T80 564L28 595L33 674H354L358 582L286 561V522L324 523Q614 530 614 347Q614 252 541 201T343 153L287 155V152Q287 129 290 122T309 107L369 72L365 0H37L32
92ZM399 248T420 258Q431 296 431 339Q431 393 411 411T340 430Q305 430 287 428V253Q312 248 347 248Q399 248 420 258Z" />
<glyph unicode="&#xdf;" glyph-name="germandbls" horiz-adv-x="648" d="M388 -16T303 15Q304 46 314 127L317 151H335L403 122Q450 102 480 102Q495 102 504 107Q505 110 505 116Q505 133 493 147T437 200Q373 256 349 290T324 371Q324 409 338 433T385 493Q390
500 396 506T409 520Q411 531 411 546Q411 632 317 632Q287 632 263 625V0H28L25 91L95 112V403L25 404V502L95 506V555Q95 654 159 709T334 765Q411 765 465 738T546 665T573 559Q573 548 573 542T572 533L517 484Q488 457 479 445T469 416Q469 392 485 372T534
323Q566 295 585 273T619 219T634 146Q634 69 583 27T455 -16Q388 -16 303 15Z" />
<glyph unicode="&#xe0;" glyph-name="agrave" horiz-adv-x="554" d="M102 -13T61 24T20 121Q20 200 99 245T331 296Q331 343 324 365T297 396T237 405Q196 405 179 402L138 321L64 326Q47 406 40 492Q96 511 162 522T287 533Q393 533 439 492T485 354V145Q485
127 488 120T504 106L544 83L540 21Q424 -6 357 -9Q355 -3 351 12T344 42Q305 17 259 2T170 -13Q102 -13 61 24ZM277 100T334 127L330 203Q306 205 298 205Q271 205 235 200T178 187Q175 174 175 163Q175 133 191 117T237 100Q277 100 334 127ZM70 714V755H250L345
582H259L70 714Z" />
<glyph unicode="&#xe1;" glyph-name="aacute" horiz-adv-x="554" d="M102 -13T61 24T20 121Q20 200 99 245T331 296Q331 343 324 365T297 396T237 405Q196 405 179 402L138 321L64 326Q47 406 40 492Q96 511 162 522T287 533Q393 533 439 492T485 354V145Q485
127 488 120T504 106L544 83L540 21Q424 -6 357 -9Q355 -3 351 12T344 42Q305 17 259 2T170 -13Q102 -13 61 24ZM277 100T334 127L330 203Q306 205 298 205Q271 205 235 200T178 187Q175 174 175 163Q175 133 191 117T237 100Q277 100 334 127ZM302 755H482V714L294
582H207L302 755Z" />
<glyph unicode="&#xe2;" glyph-name="acircumflex" horiz-adv-x="554" d="M102 -13T61 24T20 121Q20 200 99 245T331 296Q331 343 324 365T297 396T237 405Q196 405 179 402L138 321L64 326Q47 406 40 492Q96 511 162 522T287 533Q393 533 439 492T485 354V145Q485
127 488 120T504 106L544 83L540 21Q424 -6 357 -9Q355 -3 351 12T344 42Q305 17 259 2T170 -13Q102 -13 61 24ZM277 100T334 127L330 203Q306 205 298 205Q271 205 235 200T178 187Q175 174 175 163Q175 133 191 117T237 100Q277 100 334 127ZM201 755H350L475
582H392L275 655L159 582H76L201 755Z" />
<glyph unicode="&#xe3;" glyph-name="atilde" horiz-adv-x="554" d="M102 -13T61 24T20 121Q20 200 99 245T331 296Q331 343 324 365T297 396T237 405Q196 405 179 402L138 321L64 326Q47 406 40 492Q96 511 162 522T287 533Q393 533 439 492T485 354V145Q485
127 488 120T504 106L544 83L540 21Q424 -6 357 -9Q355 -3 351 12T344 42Q305 17 259 2T170 -13Q102 -13 61 24ZM277 100T334 127L330 203Q306 205 298 205Q271 205 235 200T178 187Q175 174 175 163Q175 133 191 117T237 100Q277 100 334 127ZM318 596T256 618Q236
625 216 630T183 636Q177 633 170 626T153 605H98Q114 676 140 709T208 742Q228 742 249 737T301 720Q306 718 331 710T375 702Q380 705 387 713T404 733H459Q443 662 417 629T349 596Q318 596 256 618Z" />
<glyph unicode="&#xe4;" glyph-name="adieresis" horiz-adv-x="554" d="M102 -13T61 24T20 121Q20 200 99 245T331 296Q331 343 324 365T297 396T237 405Q196 405 179 402L138 321L64 326Q47 406 40 492Q96 511 162 522T287 533Q393 533 439 492T485 354V145Q485
127 488 120T504 106L544 83L540 21Q424 -6 357 -9Q355 -3 351 12T344 42Q305 17 259 2T170 -13Q102 -13 61 24ZM277 100T334 127L330 203Q306 205 298 205Q271 205 235 200T178 187Q175 174 175 163Q175 133 191 117T237 100Q277 100 334 127ZM69 729L210 767L244
642L103 604L69 729ZM306 729L446 767L480 642L340 604L306 729Z" />
<glyph unicode="&#xe5;" glyph-name="aring" horiz-adv-x="554" d="M102 -13T61 24T20 121Q20 200 99 245T331 296Q331 343 324 365T297 396T237 405Q196 405 179 402L138 321L64 326Q47 406 40 492Q96 511 162 522T287 533Q393 533 439 492T485 354V145Q485 127
488 120T504 106L544 83L540 21Q424 -6 357 -9Q355 -3 351 12T344 42Q305 17 259 2T170 -13Q102 -13 61 24ZM277 100T334 127L330 203Q306 205 298 205Q271 205 235 200T178 187Q175 174 175 163Q175 133 191 117T237 100Q277 100 334 127ZM210 583T181 606T152
679Q152 725 186 753T276 781Q397 781 397 684Q397 636 365 610T273 583Q210 583 181 606ZM297 637T307 641Q313 667 313 678Q313 724 271 724Q250 724 242 722Q236 708 236 687Q236 663 246 650T277 637Q297 637 307 641Z" />
<glyph unicode="&#xe6;" glyph-name="ae" horiz-adv-x="836" d="M102 -14T60 22T18 120Q18 201 98 245T329 296Q329 343 322 365T295 396T233 405Q191 405 177 402L136 321L62 326Q44 421 38 492Q92 510 158 521T279 533Q383 533 434 490Q495 533 582 533Q696
533 756 461T812 256L508 203Q520 159 546 139T615 119Q644 119 684 127T765 151L789 52Q753 24 693 6T573 -12Q454 -12 391 62Q347 28 288 7T174 -14Q102 -14 60 22ZM648 340Q643 414 570 414Q541 414 517 405Q498 359 500 299L648 340ZM258 100T288 109T348 136Q337
177 333 203Q305 205 296 205Q266 205 231 200T176 187Q173 174 173 162Q173 132 189 116T236 100Q258 100 288 109Z" />
<glyph unicode="&#xe7;" glyph-name="ccedilla" horiz-adv-x="504" d="M360 -60T375 -75T390 -117Q390 -170 334 -198T179 -227L169 -190Q205 -190 235 -184T279 -168Q281 -156 281 -149Q281 -132 266 -125T202 -112V-92L226 -11Q125 -1 70 69T15 256Q15 387 83
460T271 533Q361 533 464 492Q462 463 455 416T440 328L373 322L311 401Q286 406 255 406Q230 406 209 403Q186 359 186 279Q186 197 215 158T303 118Q331 118 371 126T453 151L477 51Q443 27 393 10T290 -12L274 -35Q298 -40 330 -49Q360 -60 375 -75Z" />
<glyph unicode="&#xe8;" glyph-name="egrave" horiz-adv-x="521" d="M142 -12T79 59T15 255Q15 342 46 404T134 500T267 533Q380 533 440 461T498 256L194 200Q208 158 233 139T301 119Q330 119 370 127T451 151L474 52Q437 24 378 6T259 -12Q142 -12 79 59ZM334
340Q332 378 313 395T258 413Q229 413 203 405Q182 356 184 299L334 340ZM61 714V755H241L336 582H250L61 714Z" />
<glyph unicode="&#xe9;" glyph-name="eacute" horiz-adv-x="521" d="M142 -12T79 59T15 255Q15 342 46 404T134 500T267 533Q380 533 440 461T498 256L194 200Q208 158 233 139T301 119Q330 119 370 127T451 151L474 52Q437 24 378 6T259 -12Q142 -12 79 59ZM334
340Q332 378 313 395T258 413Q229 413 203 405Q182 356 184 299L334 340ZM293 755H473V714L285 582H198L293 755Z" />
<glyph unicode="&#xea;" glyph-name="ecircumflex" horiz-adv-x="521" d="M142 -12T79 59T15 255Q15 342 46 404T134 500T267 533Q380 533 440 461T498 256L194 200Q208 158 233 139T301 119Q330 119 370 127T451 151L474 52Q437 24 378 6T259 -12Q142 -12 79
59ZM334 340Q332 378 313 395T258 413Q229 413 203 405Q182 356 184 299L334 340ZM192 755H341L466 582H383L266 655L150 582H67L192 755Z" />
<glyph unicode="&#xeb;" glyph-name="edieresis" horiz-adv-x="521" d="M142 -12T79 59T15 255Q15 342 46 404T134 500T267 533Q380 533 440 461T498 256L194 200Q208 158 233 139T301 119Q330 119 370 127T451 151L474 52Q437 24 378 6T259 -12Q142 -12 79 59ZM334
340Q332 378 313 395T258 413Q229 413 203 405Q182 356 184 299L334 340ZM60 729L201 767L235 642L94 604L60 729ZM297 729L437 767L471 642L331 604L297 729Z" />
<glyph unicode="&#xec;" glyph-name="igrave" horiz-adv-x="347" d="M25 92L95 113V356Q95 378 92 384T74 399L30 423L35 498Q118 514 163 521T247 530Q260 487 263 466V146Q263 125 266 118T283 103L332 75L328 0H28L25 92ZM-36 715V756H144L239 583H153L-36 715Z" />
<glyph unicode="&#xed;" glyph-name="iacute" horiz-adv-x="347" d="M25 92L95 113V356Q95 378 92 384T74 399L30 423L35 498Q118 514 163 521T247 530Q260 487 263 466V146Q263 125 266 118T283 103L332 75L328 0H28L25 92ZM196 756H376V715L188 583H101L196 756Z" />
<glyph unicode="&#xee;" glyph-name="icircumflex" horiz-adv-x="347" d="M25 92L95 113V356Q95 378 92 384T74 399L30 423L35 498Q118 514 163 521T247 530Q260 487 263 466V146Q263 125 266 118T283 103L332 75L328 0H28L25 92ZM95 756H244L369 583H286L169
656L53 583H-30L95 756Z" />
<glyph unicode="&#xef;" glyph-name="idieresis" horiz-adv-x="347" d="M25 92L95 113V356Q95 378 92 384T74 399L30 423L35 498Q118 514 163 521T247 530Q260 487 263 466V146Q263 125 266 118T283 103L332 75L328 0H28L25 92ZM-37 730L104 768L138 643L-3 605L-37
730ZM200 730L340 768L374 643L234 605L200 730Z" />
<glyph unicode="&#xf0;" glyph-name="eth" horiz-adv-x="562" d="M535 301T535 267Q535 133 465 60T264 -13Q140 -13 78 53T15 246Q15 382 84 457T276 533H286L242 585L127 531L122 601L198 637L122 727L130 769L309 756L344 706L459 760L463 690L382 652Q449
553 484 479T531 325Q535 301 535 267ZM357 142T360 178T364 248Q364 331 338 371T257 412Q230 412 196 403Q189 388 185 355T181 284Q181 104 288 104Q319 104 350 119Q357 142 360 178Z" />
<glyph unicode="&#xf1;" glyph-name="ntilde" horiz-adv-x="660" d="M26 96L88 114V356Q88 378 85 384T69 399L25 423L28 498L50 502Q181 528 239 530Q247 509 252 484Q313 512 351 522T424 533Q583 533 583 343V147Q583 126 586 119T603 104L651 76L647 1H371L366
96L415 110V299Q415 344 412 362T396 390T348 400Q312 400 257 389V147Q257 126 260 119T276 104L325 76L321 1H31L26 96ZM369 596T307 618Q287 625 267 630T234 636Q228 633 221 626T204 605H149Q165 676 191 709T259 742Q279 742 300 737T352 720Q357 718 382
710T426 702Q431 705 438 713T455 733H510Q494 662 468 629T400 596Q369 596 307 618Z" />
<glyph unicode="&#xf2;" glyph-name="ograve" horiz-adv-x="553" d="M140 -13T78 52T15 251Q15 337 46 401T137 499T276 533Q535 533 535 265Q535 134 465 61T267 -13Q140 -13 78 52ZM303 104T318 107T350 119Q356 142 360 178T364 247Q364 328 339 370T263 412Q230
412 196 403Q189 388 185 355T181 278Q181 194 207 149T283 104Q303 104 318 107ZM73 715V756H253L348 583H262L73 715Z" />
<glyph unicode="&#xf3;" glyph-name="oacute" horiz-adv-x="553" d="M140 -13T78 52T15 251Q15 337 46 401T137 499T276 533Q535 533 535 265Q535 134 465 61T267 -13Q140 -13 78 52ZM303 104T318 107T350 119Q356 142 360 178T364 247Q364 328 339 370T263 412Q230
412 196 403Q189 388 185 355T181 278Q181 194 207 149T283 104Q303 104 318 107ZM305 756H485V715L297 583H210L305 756Z" />
<glyph unicode="&#xf4;" glyph-name="ocircumflex" horiz-adv-x="553" d="M140 -13T78 52T15 251Q15 337 46 401T137 499T276 533Q535 533 535 265Q535 134 465 61T267 -13Q140 -13 78 52ZM303 104T318 107T350 119Q356 142 360 178T364 247Q364 328 339 370T263
412Q230 412 196 403Q189 388 185 355T181 278Q181 194 207 149T283 104Q303 104 318 107ZM204 756H353L478 583H395L278 656L162 583H79L204 756Z" />
<glyph unicode="&#xf5;" glyph-name="otilde" horiz-adv-x="553" d="M140 -13T78 52T15 251Q15 337 46 401T137 499T276 533Q535 533 535 265Q535 134 465 61T267 -13Q140 -13 78 52ZM303 104T318 107T350 119Q356 142 360 178T364 247Q364 328 339 370T263 412Q230
412 196 403Q189 388 185 355T181 278Q181 194 207 149T283 104Q303 104 318 107ZM321 597T259 619Q239 626 219 631T186 637Q180 634 173 627T156 606H101Q117 677 143 710T211 743Q231 743 252 738T304 721Q309 719 334 711T378 703Q383 706 390 714T407 734H462Q446
663 420 630T352 597Q321 597 259 619Z" />
<glyph unicode="&#xf6;" glyph-name="odieresis" horiz-adv-x="553" d="M140 -13T78 52T15 251Q15 337 46 401T137 499T276 533Q535 533 535 265Q535 134 465 61T267 -13Q140 -13 78 52ZM303 104T318 107T350 119Q356 142 360 178T364 247Q364 328 339 370T263
412Q230 412 196 403Q189 388 185 355T181 278Q181 194 207 149T283 104Q303 104 318 107ZM72 730L213 768L247 643L106 605L72 730ZM309 730L449 768L483 643L343 605L309 730Z" />
<glyph unicode="&#xf7;" glyph-name="divide" horiz-adv-x="729" d="M279 525L414 561L450 440L316 404L279 525ZM80 321H649V210H80V321ZM279 90L414 126L450 6L316 -30L279 90Z" />
<glyph unicode="&#xf8;" glyph-name="oslash" horiz-adv-x="553" d="M535 417T535 265Q535 134 465 61T267 -13Q202 -13 155 3L107 -75H22L92 38Q15 102 15 251Q15 337 46 401T137 499T276 533Q340 533 389 516L440 599H523L451 483Q535 417 535 265ZM181 231T190
195L315 397Q293 412 263 412Q230 412 196 403Q189 388 185 355T181 278Q181 231 190 195ZM356 142T360 178T364 247Q364 291 356 328L229 123Q251 104 283 104Q303 104 318 107T350 119Q356 142 360 178Z" />
<glyph unicode="&#xf9;" glyph-name="ugrave" horiz-adv-x="612" d="M126 -14T87 33T48 177V356Q48 378 45 384T27 399L-18 423L-13 498Q1 500 7 502Q18 504 85 516T198 530Q209 505 215 472V220Q215 176 217 158T233 131T280 121Q328 121 373 138V356Q373 378
370 384T354 399L310 423L314 498Q395 513 440 521T524 530Q535 505 541 472V144Q541 126 544 119T558 105L598 82L595 20Q552 9 496 1T392 -10Q388 2 383 20Q382 28 378 39H375Q334 15 289 1T206 -14Q126 -14 87 33ZM78 714V755H258L353 582H267L78 714Z" />
<glyph unicode="&#xfa;" glyph-name="uacute" horiz-adv-x="612" d="M126 -14T87 33T48 177V356Q48 378 45 384T27 399L-18 423L-13 498Q1 500 7 502Q18 504 85 516T198 530Q209 505 215 472V220Q215 176 217 158T233 131T280 121Q328 121 373 138V356Q373 378
370 384T354 399L310 423L314 498Q395 513 440 521T524 530Q535 505 541 472V144Q541 126 544 119T558 105L598 82L595 20Q552 9 496 1T392 -10Q388 2 383 20Q382 28 378 39H375Q334 15 289 1T206 -14Q126 -14 87 33ZM310 755H490V714L302 582H215L310 755Z" />
<glyph unicode="&#xfb;" glyph-name="ucircumflex" horiz-adv-x="612" d="M126 -14T87 33T48 177V356Q48 378 45 384T27 399L-18 423L-13 498Q1 500 7 502Q18 504 85 516T198 530Q209 505 215 472V220Q215 176 217 158T233 131T280 121Q328 121 373 138V356Q373
378 370 384T354 399L310 423L314 498Q395 513 440 521T524 530Q535 505 541 472V144Q541 126 544 119T558 105L598 82L595 20Q552 9 496 1T392 -10Q388 2 383 20Q382 28 378 39H375Q334 15 289 1T206 -14Q126 -14 87 33ZM209 755H358L483 582H400L283 655L167
582H84L209 755Z" />
<glyph unicode="&#xfc;" glyph-name="udieresis" horiz-adv-x="612" d="M126 -14T87 33T48 177V356Q48 378 45 384T27 399L-18 423L-13 498Q1 500 7 502Q18 504 85 516T198 530Q209 505 215 472V220Q215 176 217 158T233 131T280 121Q328 121 373 138V356Q373
378 370 384T354 399L310 423L314 498Q395 513 440 521T524 530Q535 505 541 472V144Q541 126 544 119T558 105L598 82L595 20Q552 9 496 1T392 -10Q388 2 383 20Q382 28 378 39H375Q334 15 289 1T206 -14Q126 -14 87 33ZM77 729L218 767L252 642L111 604L77 729ZM314
729L454 767L488 642L348 604L314 729Z" />
<glyph unicode="&#xfd;" glyph-name="yacute" horiz-adv-x="537" d="M107 -181T51 -105L162 4L17 386Q6 413 2 421T-13 443L-30 465L-25 523H231L241 438L183 424L265 173L357 403Q359 409 359 412Q359 421 351 424L304 444L313 523H503L512 442L384 163Q315 12
270 -74T179 -229Q107 -181 51 -105ZM298 756H478V715L290 583H203L298 756Z" />
<glyph unicode="&#xfe;" glyph-name="thorn" horiz-adv-x="583" d="M-2 -120L60 -103V591Q60 613 57 620T40 635L-5 658L0 734Q96 751 142 757T215 765Q224 742 228 713V489Q289 533 359 533Q455 533 509 462T563 267Q563 128 490 56T276 -16Q260 -16 228 -14V-69Q228
-91 231 -98T248 -112L307 -145L303 -215H3L-2 -120ZM348 108T377 121Q385 146 390 182T396 251Q396 325 370 367T296 409Q267 409 228 392V120Q257 108 301 108Q348 108 377 121Z" />
<glyph unicode="&#xff;" glyph-name="ydieresis" horiz-adv-x="537" d="M107 -181T51 -105L162 4L17 386Q6 413 2 421T-13 443L-30 465L-25 523H231L241 438L183 424L265 173L357 403Q359 409 359 412Q359 421 351 424L304 444L313 523H503L512 442L384 163Q315
12 270 -74T179 -229Q107 -181 51 -105ZM65 730L206 768L240 643L99 605L65 730ZM302 730L442 768L476 643L336 605L302 730Z" />
<glyph unicode="&#x2013;" glyph-name="endash" horiz-adv-x="774" d="M78 344H696V240H78V344Z" />
<glyph unicode="&#x2014;" glyph-name="emdash" horiz-adv-x="1098" d="M108 344H990V240H108V344Z" />
<glyph unicode="&#x2018;" glyph-name="quoteleft" horiz-adv-x="280" d="M104 386T86 401Q59 426 47 444T35 483Q35 532 147 691L226 698Q189 620 181 600T172 567Q172 557 176 549T193 530L245 484Q195 409 142 358Q104 386 86 401Z" />
<glyph unicode="&#x2019;" glyph-name="quoteright" horiz-adv-x="280" d="M92 436T100 456T109 489Q109 498 104 506T87 526L35 572Q83 641 138 698Q180 667 194 654Q221 631 233 613T245 573Q245 524 133 365L55 358Q92 436 100 456Z" />
<glyph unicode="&#x201a;" glyph-name="quotesinglbase" horiz-adv-x="280" d="M92 -95T100 -75T109 -42Q109 -32 105 -24T87 -5L35 41Q86 115 138 167Q180 136 194 123Q221 100 233 82T245 42Q245 -7 133 -166L55 -173Q92 -95 100 -75Z" />
<glyph unicode="&#x201c;" glyph-name="quotedblleft" horiz-adv-x="475" d="M115 376T86 401Q58 425 47 443T35 483Q35 532 147 691L225 698Q188 620 180 600T171 567Q171 557 175 549T192 530L231 495Q243 552 342 691L421 698Q384 620 376 600T367 567Q367
557 371 549T388 530L440 484Q385 405 337 358Q299 386 281 401Q258 422 247 436T232 467Q189 405 142 358Q115 376 86 401Z" />
<glyph unicode="&#x201d;" glyph-name="quotedblright" horiz-adv-x="476" d="M92 436T100 456T109 489Q109 498 104 506T87 526L35 572Q83 641 138 698Q173 674 194 654Q216 635 227 620T243 589Q289 653 334 698Q372 670 389 654Q417 631 429 613T441 573Q441
524 329 365L250 358Q287 436 295 456T304 489Q304 498 300 506T283 526L244 560Q232 504 133 365L55 358Q92 436 100 456Z" />
<glyph unicode="&#x201e;" glyph-name="quotedblbase" horiz-adv-x="475" d="M91 -96T99 -76T108 -43Q108 -33 104 -25T86 -6L35 40Q84 113 137 166Q171 143 194 122Q216 103 227 88T242 57Q288 121 333 166Q371 138 388 122Q416 99 428 81T440 41Q440 -8 328
-167L250 -174Q287 -96 295 -76T304 -43Q304 -33 299 -26T282 -6L243 29Q231 -28 132 -167L54 -174Q91 -96 99 -76Z" />
<glyph unicode="&#x2022;" glyph-name="bullet" horiz-adv-x="382" d="M154 196T123 214T73 264T54 333Q54 370 72 401T122 451T191 470Q228 470 259 452T309 402T328 333Q328 296 310 265T260 215T191 196Q154 196 123 214Z" />
<glyph unicode="&#x2039;" glyph-name="guilsinglleft" horiz-adv-x="282" d="M20 277L167 492L243 479L152 277L235 72L155 59L20 277Z" />
<glyph unicode="&#x203a;" glyph-name="guilsinglright" horiz-adv-x="282" d="M47 72L130 277L39 479L116 492L263 277L127 59L47 72Z" />
</font>
</defs>
</svg>
