<?xml version="1.0" standalone="no"?>
<!DOCTYPE svg PUBLIC "-//W3C//DTD SVG 1.1//EN" "http://www.w3.org/Graphics/SVG/1.1/DTD/svg11.dtd">
<svg xmlns="http://www.w3.org/2000/svg">
<defs >
<font id="Exo" horiz-adv-x="534" ><font-face
    font-family="Exo ExtraLight"
    units-per-em="1000"
    panose-1="0 0 3 0 0 0 0 0 0 0"
    ascent="1002"
    descent="-327"
    alphabetic="0" />
<glyph unicode=" " glyph-name="space" horiz-adv-x="236" />
<glyph unicode="!" glyph-name="exclam" horiz-adv-x="262" d="M225 732H266L174 197H146L225 732ZM106 0T106 11V13L117 80Q119 94 132 94H154Q165 94 165 84V80L154 13Q153 0 138 0H117Q106 0 106 11Z" />
<glyph unicode="&quot;" glyph-name="quotedbl" horiz-adv-x="221" d="M150 675L160 742H201L191 675L159 513H132L150 675ZM244 675L254 742H295L285 675L253 513H226L244 675Z" />
<glyph unicode="#" glyph-name="numbersign" horiz-adv-x="664" d="M238 243H64L72 267H247L309 461H133L141 485H317L396 732H420L341 485H517L596 732H620L541 485H718L710 461H532L471 267H648L640 243H462L385 0H361L438 243H262L185 0H161L238 243ZM447 267L508
461H333L271 267H447Z" />
<glyph unicode="$" glyph-name="dollar" horiz-adv-x="609" d="M193 504Q190 485 190 469Q190 424 215 407T296 389H403Q551 389 551 267Q551 248 548 227L538 160Q524 68 466 32T309 -6L296 -88H269L281 -6Q227 -5 170 -2T77 8L81 38Q157 31 302 31Q389 31 438
59T498 164L508 224Q510 250 510 259Q510 306 483 327T394 349H290Q220 349 185 376T150 463Q150 480 153 501L163 566Q178 666 232 702T383 739H405L401 742L424 824L438 813L417 738Q457 737 510 732T594 722L590 692Q462 700 382 700Q326 700 291 689T233 649T202
564L193 504Z" />
<glyph unicode="%" glyph-name="percent" horiz-adv-x="955" d="M178 349T152 370T126 436Q126 454 129 475L150 606Q161 673 194 702T300 732H401Q460 732 486 711T513 646Q513 634 509 606L488 475Q478 409 445 379T338 349H237Q178 349 152 370ZM793 732H824L269
0H237L793 732ZM340 376Q397 376 424 397T461 478L481 603Q484 623 484 638Q484 674 464 689T394 705H298Q240 705 213 685T176 603L156 478Q153 460 153 444Q153 406 174 391T244 376H340ZM612 3T587 24T561 90Q561 108 564 129L585 260Q595 326 628 356T735 386H836Q895
386 921 365T948 300Q948 279 944 260L923 129Q913 63 880 33T773 3H672Q612 3 587 24ZM775 30Q832 30 860 51T897 132L916 257Q920 283 920 292Q920 328 899 343T829 359H733Q675 359 648 338T611 257L591 132Q588 114 588 98Q588 60 609 45T679 30H775Z" />
<glyph unicode="&amp;" glyph-name="ampersand" horiz-adv-x="659" d="M148 -6T105 37T61 154Q61 236 94 290T210 394L280 436L263 467Q228 530 228 591Q228 660 277 696T414 733Q474 733 508 729T550 724L545 696H413Q344 696 307 672T269 590Q269 536 302 478L484
161L662 309L675 292L592 204L504 131L581 0H535L472 108L436 80Q377 32 326 13T220 -6Q148 -6 105 37ZM276 33T318 48T411 105L452 138L296 406L238 373Q184 343 155 312T114 245T103 160Q103 101 136 67T230 33Q276 33 318 48Z" />
<glyph unicode="&apos;" glyph-name="quotesingle" horiz-adv-x="127" d="M150 675L160 742H201L191 675L159 513H132L150 675Z" />
<glyph unicode="(" glyph-name="parenleft" horiz-adv-x="325" d="M135 -45T135 182Q135 359 201 540T393 860H435Q311 720 244 542T177 190Q177 -32 266 -210H224Q135 -45 135 182Z" />
<glyph unicode=")" glyph-name="parenright" horiz-adv-x="324" d="M122 -51T186 122T251 470Q251 574 230 668T161 860H203Q251 766 272 674T293 476Q293 297 229 122T34 -210H-8Q122 -51 186 122Z" />
<glyph unicode="*" glyph-name="asterisk" horiz-adv-x="476" d="M295 723L315 729L361 605L330 592L295 723ZM345 554L471 637L480 620L363 530L345 554ZM140 609L283 615L279 584L137 589L140 609ZM186 410L239 544L271 538L203 404L186 410ZM290 491L311 520L416
436L402 421L290 491Z" />
<glyph unicode="+" glyph-name="plus" horiz-adv-x="609" d="M582 338H376L344 132H307L339 338H134L140 375H345L377 580H414L382 375H588L582 338Z" />
<glyph unicode="," glyph-name="comma" horiz-adv-x="181" d="M65 -72T62 -71T58 -70L60 -58Q70 -58 74 -55T80 -43L87 1H80Q76 1 73 4T69 12L70 18L80 79Q82 94 95 94H116Q127 94 127 84L126 77L108 -34Q102 -72 70 -72Q65 -72 62 -71Z" />
<glyph unicode="-" glyph-name="hyphen" horiz-adv-x="333" d="M73 309H360L354 272H67L73 309Z" />
<glyph unicode="." glyph-name="period" horiz-adv-x="181" d="M69 0T69 11V13L80 80Q82 94 95 94H117Q128 94 128 84V80L117 13Q116 0 101 0H80Q69 0 69 11Z" />
<glyph unicode="/" glyph-name="slash" horiz-adv-x="369" d="M428 770H465L51 -72H14L428 770Z" />
<glyph unicode="0" glyph-name="zero" horiz-adv-x="660" d="M196 -1T154 30T112 128Q112 146 115 165L179 572Q192 652 248 695T381 739H518Q593 739 629 705T665 611Q665 593 662 572L598 165Q584 79 533 39T400 -1H264Q196 -1 154 30ZM401 37Q536 37 557 168L620
570Q623 588 623 602Q623 702 507 702H379Q315 702 273 667T220 570L157 169Q154 153 154 140Q154 90 186 64T274 37H401Z" />
<glyph unicode="1" glyph-name="one" horiz-adv-x="357" d="M324 691L152 636L156 662L332 733H371L255 0H214L324 691Z" />
<glyph unicode="2" glyph-name="two" horiz-adv-x="596" d="M64 35L375 305Q562 465 562 590Q562 643 525 672T396 701H200L206 731L238 733Q344 739 411 739Q603 739 603 596Q603 460 403 283L124 39H549L542 0H59L64 35Z" />
<glyph unicode="3" glyph-name="three" horiz-adv-x="589" d="M143 -6T47 2L52 31H301Q375 31 425 61T489 167Q501 226 501 247Q501 299 463 323T370 350L181 357L186 384L378 390Q441 392 481 419T531 504Q543 577 543 594Q543 645 506 673T398 702H187L192 731Q277
739 416 739Q501 739 543 704T585 605Q585 583 572 505Q564 459 540 430T487 387T437 370Q473 363 507 334T542 249Q542 235 530 163Q517 81 459 38T304 -6Q143 -6 47 2Z" />
<glyph unicode="4" glyph-name="four" horiz-adv-x="581" d="M433 205H73L65 234L442 733H485L112 241H438L474 466L494 525H524L479 241H593L589 213L474 205L441 2H400L433 205Z" />
<glyph unicode="5" glyph-name="five" horiz-adv-x="643" d="M205 -4T124 3L129 33H356Q433 33 489 70T556 174L571 272Q574 289 574 304Q574 354 542 381T445 408H355Q300 408 265 384T212 309H174L261 733H663L657 696H293L229 383Q244 408 280 426T367 445H458Q533
445 574 409T615 312Q615 301 613 277L595 168Q583 86 515 41T350 -4Q205 -4 124 3Z" />
<glyph unicode="6" glyph-name="six" horiz-adv-x="632" d="M203 -2T165 44T127 205Q127 347 161 468T267 664T450 739Q508 739 629 732L624 702H438Q380 702 329 668T240 563T186 391Q234 395 299 397T410 399Q502 399 551 374T600 285Q600 270 597 253L580 151Q568
71 517 35T393 -2H275Q203 -2 165 44ZM394 36Q453 36 492 61T541 153L556 249Q559 264 559 275Q559 326 520 344T399 362H181Q167 264 167 205Q167 111 196 74T285 36H394Z" />
<glyph unicode="7" glyph-name="seven" horiz-adv-x="538" d="M558 692H156L163 733H596L610 705L217 0H169L558 692Z" />
<glyph unicode="8" glyph-name="eight" horiz-adv-x="651" d="M190 -1T152 27T114 109Q114 122 117 137L134 245Q143 299 180 330T254 370Q219 386 203 413T186 473Q186 482 188 500L201 585Q215 664 262 701T381 738H519Q579 738 609 712T639 630Q639 608 635
585L622 500Q617 460 590 426T523 379Q560 372 579 345T599 280Q599 271 597 253L579 137Q568 68 522 34T401 -1H264Q190 -1 152 27ZM451 392Q507 392 541 424T581 496L594 578Q598 598 598 618Q598 663 576 682T507 702H380Q316 702 284 672T241 578L228 496Q227
490 227 477Q227 439 253 416T330 392H451ZM401 36Q522 36 538 138L555 247Q558 265 558 278Q558 320 532 338T445 356H324Q297 356 265 345T207 310T175 247L158 138Q156 124 156 119Q156 76 188 56T274 36H401Z" />
<glyph unicode="9" glyph-name="nine" horiz-adv-x="632" d="M545 737T583 691T621 530Q621 388 587 267T481 71T298 -4Q240 -4 119 3L124 33H310Q368 33 419 67T508 172T562 344Q514 340 449 338T338 336Q246 336 197 361T148 450Q148 466 151 482L168 584Q180
664 231 700T355 737H473Q545 737 583 691ZM354 699Q295 699 256 674T207 582L192 486Q189 471 189 460Q189 409 228 391T349 373H567Q581 471 581 530Q581 624 552 661T463 699H354Z" />
<glyph unicode=":" glyph-name="colon" horiz-adv-x="181" d="M69 0T69 11V13L80 80Q82 94 95 94H117Q128 94 128 84V80L117 13Q116 0 101 0H80Q69 0 69 11ZM139 438T139 449V451L150 518Q152 532 165 532H187Q198 532 198 522V518L187 451Q186 438 171 438H150Q139
438 139 449Z" />
<glyph unicode=";" glyph-name="semicolon" horiz-adv-x="181" d="M139 438T139 449V451L150 518Q152 532 165 532H187Q198 532 198 522V518L187 451Q186 438 171 438H150Q139 438 139 449ZM65 -72T62 -71T58 -70L60 -58Q70 -58 74 -55T80 -43L87 1H80Q76 1 73
4T69 12L70 18L80 79Q82 94 95 94H116Q127 94 127 84L126 77L108 -34Q102 -72 70 -72Q65 -72 62 -71Z" />
<glyph unicode="&lt;" glyph-name="less" horiz-adv-x="609" d="M134 329L140 368L576 503L571 468L174 348L533 228L528 193L134 329Z" />
<glyph unicode="=" glyph-name="equal" horiz-adv-x="609" d="M377 511H825L819 474H371L377 511ZM159 495H607L601 458H153L159 495Z" />
<glyph unicode="&gt;" glyph-name="greater" horiz-adv-x="609" d="M148 228L545 349L186 468L191 503L585 368L579 329L143 193L148 228Z" />
<glyph unicode="?" glyph-name="question" horiz-adv-x="532" d="M234 332H274Q341 332 381 344T444 385T475 465L487 540Q491 560 491 593Q491 651 461 676T363 702Q308 702 259 693T151 661L155 688Q264 739 381 739Q462 739 498 705T534 604Q534 576 528 543L516
465Q502 378 443 337T263 296L247 196H213L234 332ZM181 0T181 11V13L192 80Q194 94 207 94H229Q240 94 240 84V80L229 13Q228 0 213 0H192Q181 0 181 11Z" />
<glyph unicode="@" glyph-name="at" horiz-adv-x="905" d="M143 -181T101 -137T59 -24Q59 -3 63 14L144 521Q173 703 357 703H748Q822 703 859 666T897 562Q897 539 894 515L842 170Q837 139 818 100T757 31T652 0H614L613 62Q589 34 523 14T405 -6Q246 -6 246
177Q246 289 281 372T377 500T509 544Q570 544 623 528T709 481L643 33Q698 33 746 60T806 172L858 517Q862 549 862 560Q862 619 831 643T743 668H354Q272 668 231 627T180 517L99 12Q96 -6 96 -22Q96 -81 130 -113T223 -146H608L604 -169Q529 -181 314 -181H217Q143
-181 101 -137ZM466 30T517 42T615 89L672 470Q628 493 591 501T510 510Q448 510 396 471T313 357T282 182Q282 30 409 30Q466 30 517 42Z" />
<glyph unicode="A" glyph-name="A" horiz-adv-x="665" d="M427 733H482L623 0H581L534 240H212L84 0H42L427 733ZM528 278L448 693L230 278H528Z" />
<glyph unicode="B" glyph-name="B" horiz-adv-x="602" d="M194 733H434Q603 733 603 596Q603 570 599 546Q589 479 552 438T463 384Q503 373 536 335T570 234Q570 207 564 179Q528 0 336 0H78L194 733ZM399 400Q528 400 558 540Q564 569 564 590Q564 696 426 696H228L182
400H399ZM342 37Q426 37 467 76T525 191Q530 211 530 236Q530 295 493 330T396 365H177L124 37H342Z" />
<glyph unicode="C" glyph-name="C" horiz-adv-x="589" d="M205 -6T158 49T111 215Q111 282 127 378Q155 558 223 648T418 739Q483 739 533 732T636 714L630 685Q516 702 420 702Q347 702 299 667T220 558T168 366Q153 278 153 216Q153 117 190 74T316 31Q389 31
436 34T527 45L522 15Q426 -6 307 -6Q205 -6 158 49Z" />
<glyph unicode="D" glyph-name="D" horiz-adv-x="666" d="M194 733H450Q569 733 618 671T668 479Q668 432 656 354Q631 192 554 96T339 0H78L194 733ZM340 37Q460 37 526 127T616 365Q627 433 627 480Q627 591 586 643T440 696H228L124 37H340Z" />
<glyph unicode="E" glyph-name="E" horiz-adv-x="569" d="M95 -8T95 99Q95 115 98 133L173 602Q184 672 225 702T323 733Q382 733 457 731T562 728L624 726L618 695H326Q278 695 250 672T212 593L179 384L527 377L522 347L173 345L140 134Q138 123 138 105Q138
63 161 48T231 32H515L510 1Q414 -2 220 -6Q95 -8 95 99Z" />
<glyph unicode="F" glyph-name="F" horiz-adv-x="547" d="M172 595Q184 674 223 703T321 733Q384 733 460 731T566 728L623 726L618 695H323Q275 695 248 671T212 593L178 380L526 374L521 344L173 342L119 0H78L172 595Z" />
<glyph unicode="G" glyph-name="G" horiz-adv-x="639" d="M200 -6T156 47T112 218Q112 282 127 380Q154 554 224 647T428 741Q498 741 551 733T656 710L651 681Q540 704 426 704Q311 704 253 621T168 368Q153 277 153 213Q153 118 190 75T312 32Q360 32 429 48T535
80L576 340H373L378 370Q402 374 447 375T548 376Q574 376 622 374L563 0H534V53Q498 35 427 15T301 -6Q200 -6 156 47Z" />
<glyph unicode="H" glyph-name="H" horiz-adv-x="652" d="M194 733H235L178 374H594L651 733H692L576 0H535L588 337H172L119 0H78L194 733Z" />
<glyph unicode="I" glyph-name="I" horiz-adv-x="196" d="M194 733H235L119 0H78L194 733Z" />
<glyph unicode="J" glyph-name="J" horiz-adv-x="329" d="M102 -6T76 1T31 19L37 49Q78 32 130 32Q241 32 264 172L354 733H395L305 167Q290 78 248 36T133 -6Q102 -6 76 1Z" />
<glyph unicode="K" glyph-name="K" horiz-adv-x="572" d="M194 733H235L180 386H327L600 733H645L359 367L541 0H497L324 349H173L119 0H78L194 733Z" />
<glyph unicode="L" glyph-name="L" horiz-adv-x="519" d="M156 0T126 21T96 97Q96 115 99 133L194 733H235L140 136Q137 120 137 103Q137 65 159 51T221 37H500L495 0H214Q156 0 126 21Z" />
<glyph unicode="M" glyph-name="M" horiz-adv-x="784" d="M265 733H303L416 67L741 733H779L747 0H707L737 654L426 0H388L282 653L109 0H67L265 733Z" />
<glyph unicode="N" glyph-name="N" horiz-adv-x="655" d="M194 733H229L548 70L654 733H695L579 0H543L224 664L119 0H78L194 733Z" />
<glyph unicode="O" glyph-name="O" horiz-adv-x="681" d="M259 -6T210 11T135 73T109 203Q109 274 125 371Q149 520 190 599T294 708T458 739Q533 739 582 720T659 653T686 521Q686 449 670 352Q647 205 605 128T500 22T337 -6Q259 -6 210 11ZM434 31T486 56T572
152T629 361Q644 448 644 522Q644 595 622 634T559 687T451 702Q365 702 312 676T224 576T166 362Q150 260 150 204Q150 133 170 96T232 45T346 31Q434 31 486 56Z" />
<glyph unicode="P" glyph-name="P" horiz-adv-x="594" d="M194 733H464Q619 733 619 581Q619 551 612 514Q578 293 389 293Q304 293 166 301L119 0H78L194 733ZM388 330Q542 330 572 516Q577 549 577 578Q577 641 547 668T456 696H228L170 330H388Z" />
<glyph unicode="Q" glyph-name="Q" horiz-adv-x="681" d="M259 -6T210 11T135 73T109 203Q109 274 125 371Q149 520 190 599T294 708T458 739Q533 739 582 720T659 653T686 521Q686 449 670 352Q647 205 605 128T500 22T337 -6Q259 -6 210 11ZM434 31T486 56T572
152T629 361Q644 448 644 522Q644 595 622 634T559 687T451 702Q365 702 312 676T224 576T166 362Q150 260 150 204Q150 133 170 96T232 45T346 31Q434 31 486 56ZM423 -157T387 -127T347 -34H375Q384 -82 411 -103T485 -124Q521 -124 552 -113L547 -147Q514 -157
484 -157Q423 -157 387 -127Z" />
<glyph unicode="R" glyph-name="R" horiz-adv-x="608" d="M194 733H453Q522 733 570 698T618 572Q618 550 613 515Q596 408 547 368T437 322L543 0H502L397 318H374Q337 319 269 320T169 324L119 0H78L194 733ZM400 353Q467 353 511 387T571 519Q575 543 575 568Q575
696 446 696H228L175 353H400Z" />
<glyph unicode="S" glyph-name="S" horiz-adv-x="566" d="M243 -6T180 -2T77 8L81 38Q157 31 302 31Q389 31 438 59T498 164L508 224Q510 250 510 259Q510 306 483 327T394 349H290Q220 349 185 376T150 463Q150 480 153 501L163 566Q178 666 232 702T383 739Q418
739 488 734T594 722L590 692Q462 700 382 700Q326 700 291 689T233 649T202 564L193 504Q190 485 190 469Q190 424 215 407T296 389H403Q551 389 551 267Q551 248 548 227L538 160Q523 66 462 30T298 -6Q243 -6 180 -2Z" />
<glyph unicode="T" glyph-name="T" horiz-adv-x="603" d="M386 696H139L145 733H680L674 696H427L317 0H276L386 696Z" />
<glyph unicode="U" glyph-name="U" horiz-adv-x="670" d="M225 -6T171 39T117 190Q117 251 129 323L194 733H235L170 320Q157 244 157 191Q157 103 201 67T336 31Q414 31 463 52T548 135T602 320L668 733H709L643 317Q622 182 581 112T481 18T335 -6Q225 -6 171 39Z" />
<glyph unicode="V" glyph-name="V" horiz-adv-x="665" d="M158 733H201L334 45L697 733H739L355 0H300L158 733Z" />
<glyph unicode="W" glyph-name="W" horiz-adv-x="987" d="M158 733H201L303 52L583 733H631L685 53L1014 733H1057L705 0H655L599 677L318 0H268L158 733Z" />
<glyph unicode="X" glyph-name="X" horiz-adv-x="595" d="M378 359L550 0H504L348 330L93 0H44L329 370L157 733H203L360 398L622 733H672L378 359Z" />
<glyph unicode="Y" glyph-name="Y" horiz-adv-x="597" d="M309 254L144 733H190L335 304L637 733H685L350 254L309 0H268L309 254Z" />
<glyph unicode="Z" glyph-name="Z" horiz-adv-x="555" d="M49 36L564 696H153L160 733H618L612 697L97 37H517L512 0H44L49 36Z" />
<glyph unicode="[" glyph-name="bracketleft" horiz-adv-x="329" d="M151 -210T125 -174T99 -83Q99 -63 103 -33L214 667Q225 736 263 789T383 842H437L432 807H384Q334 807 300 772T254 664L144 -32Q140 -62 140 -74Q140 -121 161 -148T228 -175H276L271 -210H217Q151
-210 125 -174Z" />
<glyph unicode="\" glyph-name="backslash" horiz-adv-x="369" d="M147 770H184L332 -72H295L147 770Z" />
<glyph unicode="]" glyph-name="bracketright" horiz-adv-x="329" d="M-3 -175H46Q101 -175 133 -136T175 -32L286 664Q289 688 289 708Q289 807 201 807H153L158 842H212Q278 842 304 807T331 716Q331 697 327 667L216 -33Q205 -102 167 -156T46 -210H-8L-3 -175Z" />
<glyph unicode="^" glyph-name="asciicircum" horiz-adv-x="404" d="M298 662H329L425 531H398L309 640L175 531H148L298 662Z" />
<glyph unicode="_" glyph-name="underscore" horiz-adv-x="609" d="M-18 -111H591L586 -148H-23L-18 -111Z" />
<glyph unicode="`" glyph-name="grave" horiz-adv-x="205" d="M147 765H185L280 631H256L147 765Z" />
<glyph unicode="a" glyph-name="a" horiz-adv-x="561" d="M179 -6T134 38T89 172Q89 205 100 271Q121 411 183 474T369 538Q422 538 475 524T560 481L484 0H453V58Q423 38 363 16T253 -6Q179 -6 134 38ZM313 29T355 43T457 85L517 467Q494 481 454 492T366 503Q292
503 247 478T178 402T139 261Q130 206 130 177Q130 103 165 66T262 29Q313 29 355 43Z" />
<glyph unicode="b" glyph-name="b" horiz-adv-x="564" d="M265 -6T214 12T126 56L108 0H76L197 763H238L193 476Q242 505 299 521T397 538Q469 538 513 493T557 364Q557 317 546 251Q527 133 467 64T312 -6Q265 -6 214 12ZM391 29T439 88T506 262Q516 324 516
359Q516 433 481 468T388 503Q305 503 188 448L131 83Q176 58 216 44T306 29Q391 29 439 88Z" />
<glyph unicode="c" glyph-name="c" horiz-adv-x="484" d="M185 -6T138 34T91 182Q91 214 101 276Q122 413 184 475T347 538Q403 538 516 529L511 503H350Q266 503 214 450T140 263Q132 212 132 184Q132 122 149 88T199 41T285 28H449L446 3Q370 -6 275 -6Q185 -6 138 34Z" />
<glyph unicode="d" glyph-name="d" horiz-adv-x="562" d="M179 -6T135 38T91 167Q91 223 101 274Q118 363 144 419T224 506T366 538Q413 538 451 530T524 502L566 763H607L486 0H454V58Q410 32 357 13T249 -6Q179 -6 135 38ZM308 29T355 43T458 85L518 467Q484
486 449 494T366 503Q291 503 247 478T180 402T141 264Q131 207 131 176Q131 100 166 65T257 29Q308 29 355 43Z" />
<glyph unicode="e" glyph-name="e" horiz-adv-x="548" d="M198 -6T145 38T92 174Q92 226 103 292Q121 413 184 477T369 541Q459 541 506 509T553 403Q553 231 294 231Q246 231 204 236T138 248Q133 218 133 174Q133 97 176 63T321 28H478L473 2Q374 -6 311 -6Q198
-6 145 38ZM389 262T451 291T513 399Q513 457 477 482T366 507Q259 507 209 450T141 273Q193 262 273 262Q389 262 451 291Z" />
<glyph unicode="f" glyph-name="f" horiz-adv-x="364" d="M194 495H109L113 522L200 532L214 616Q222 662 232 692T273 745T361 769Q428 769 477 763L473 735H363Q325 735 303 720T271 679T254 610L241 532H421L415 495H235L157 0H116L194 495Z" />
<glyph unicode="g" glyph-name="g" horiz-adv-x="561" d="M59 -231L64 -203H222Q304 -203 363 -168T434 -62L454 58Q403 26 347 10T240 -6Q200 -6 166 14T112 73T91 166Q91 208 102 279Q116 368 146 424T232 509T376 538Q488 538 568 522L475 -67Q459 -163 382
-202T211 -237L59 -231ZM303 29T349 42T458 85L522 496L461 499Q391 503 357 503Q260 503 211 448T142 273Q132 206 132 171Q132 101 166 65T253 29Q303 29 349 42Z" />
<glyph unicode="h" glyph-name="h" horiz-adv-x="568" d="M197 763H238L192 471Q301 541 417 541Q484 541 518 508T553 412Q553 391 550 367L491 0H450L507 359Q510 374 510 401Q510 455 482 479T399 503Q341 503 294 489T188 441L117 0H76L197 763Z" />
<glyph unicode="i" glyph-name="i" horiz-adv-x="194" d="M180 637T177 640T174 650L185 717Q187 730 201 730H226Q232 730 234 727T236 717L225 650Q224 637 211 637H185Q180 637 177 640ZM161 532H202L118 0H77L161 532Z" />
<glyph unicode="j" glyph-name="j" horiz-adv-x="194" d="M180 637T177 640T174 650L185 717Q187 730 201 730H226Q232 730 234 727T236 717L225 650Q224 637 211 637H185Q180 637 177 640ZM161 532H202L117 -4Q94 -138 67 -237H39L161 532Z" />
<glyph unicode="k" glyph-name="k" horiz-adv-x="506" d="M197 763H238L166 304Q273 306 347 358T457 532H498Q446 354 308 296L472 0H427L270 284Q245 278 214 274T161 270L117 0H76L197 763Z" />
<glyph unicode="l" glyph-name="l" horiz-adv-x="276" d="M150 0T123 25T96 99Q96 128 105 180L197 763H238L147 187Q146 182 142 157T138 106Q138 70 154 54T203 34L262 29L257 0H201Q150 0 123 25Z" />
<glyph unicode="m" glyph-name="m" horiz-adv-x="941" d="M161 532H191L192 471Q309 541 414 541Q472 541 502 520T548 459Q600 496 662 518T786 541Q927 541 927 410Q927 389 923 365L865 0H824L882 365Q885 379 885 401Q885 453 857 478T772 503Q711 503 661
485T551 431Q552 424 552 406Q552 382 548 355L491 0H450L507 355Q511 380 511 402Q511 503 399 503Q342 503 297 489T188 441L117 0H76L161 532Z" />
<glyph unicode="n" glyph-name="n" horiz-adv-x="568" d="M161 532H191L192 471Q241 503 299 522T414 541Q487 541 520 506T553 413Q553 390 544 329L491 0H450L502 328Q511 390 511 402Q511 503 399 503Q341 503 294 489T188 441L117 0H76L161 532Z" />
<glyph unicode="o" glyph-name="o" horiz-adv-x="562" d="M190 -6T141 35T91 172Q91 213 99 267Q116 373 147 431T231 514T366 538Q466 538 510 493T555 355Q555 327 545 249Q529 151 499 96T416 18T280 -6Q190 -6 141 35ZM353 29T394 47T462 114T504 258Q513
315 513 356Q513 436 478 469T359 503Q290 503 249 483T182 411T140 258Q132 205 132 172Q132 90 171 60T287 29Q353 29 394 47Z" />
<glyph unicode="p" glyph-name="p" horiz-adv-x="562" d="M160 527Q242 538 388 538Q555 538 555 360Q555 317 545 259Q525 131 467 63T297 -6Q246 -6 205 2T122 31L79 -237H38L160 527ZM392 30T438 88T505 269Q515 329 515 355Q515 503 381 503L196 501L126 61Q182
43 214 37T296 30Q392 30 438 88Z" />
<glyph unicode="q" glyph-name="q" horiz-adv-x="561" d="M453 58Q401 26 343 10T239 -6Q171 -6 131 41T91 167Q91 210 101 277Q116 367 146 423T234 509T384 538Q428 538 480 533T568 522L447 -237H406L453 58ZM302 29T350 43T458 85L522 496L465 499Q401 503
368 503Q262 503 212 448T142 270Q132 208 132 171Q132 104 165 67T253 29Q302 29 350 43Z" />
<glyph unicode="r" glyph-name="r" horiz-adv-x="382" d="M161 532H192V469Q276 538 364 538Q412 538 437 530L430 489Q401 496 357 496Q312 496 271 481T187 439L118 0H77L161 532Z" />
<glyph unicode="s" glyph-name="s" horiz-adv-x="503" d="M229 -6T159 -4T65 3L69 28H284Q346 28 381 48T425 117L433 163Q434 169 434 179Q434 213 413 229T350 246H242Q175 246 144 265T112 327Q112 348 116 368L124 413Q134 474 174 506T298 538Q338 538 400
536T496 529L491 504H291Q230 504 200 482T162 412L155 370Q151 345 151 332Q151 305 173 294T247 283H356Q409 283 441 257T474 184Q474 177 472 159L464 110Q454 49 406 22T276 -6Q229 -6 159 -4Z" />
<glyph unicode="t" glyph-name="t" horiz-adv-x="372" d="M202 0T172 28T141 109Q141 138 151 192L201 497H116L119 523L205 532L239 681H269L245 532H413L408 497H240L191 192Q190 183 187 158T183 115Q183 77 201 58T260 35L326 29L321 0H261Q202 0 172 28Z" />
<glyph unicode="u" glyph-name="u" horiz-adv-x="568" d="M170 -6T135 26T99 117Q99 143 103 169L160 532H201L144 168Q140 144 140 129Q140 81 167 56T253 31Q310 31 356 45T464 91L534 532H575L491 0H459L460 61Q405 28 354 11T238 -6Q170 -6 135 26Z" />
<glyph unicode="v" glyph-name="v" horiz-adv-x="532" d="M101 532H143L259 44L474 422Q503 475 515 540H547Q547 476 505 402L275 0H231L101 532Z" />
<glyph unicode="w" glyph-name="w" horiz-adv-x="805" d="M101 532H143L240 47L446 532H482L568 45L756 438Q765 457 774 487T788 540H821Q821 513 812 480T789 417L585 0H540L457 471L254 0H210L101 532Z" />
<glyph unicode="x" glyph-name="x" horiz-adv-x="513" d="M322 262L473 0H431L293 237L85 0H40L275 268L123 532H165L304 293L510 532H556L322 262Z" />
<glyph unicode="y" glyph-name="y" horiz-adv-x="547" d="M97 -204Q145 -192 196 -143T291 0Q262 4 242 12T205 45T180 115L102 532H144L218 124Q227 75 249 58T308 38L501 448Q526 508 529 540H562Q562 482 536 427L333 2Q275 -118 220 -172T97 -237V-204Z" />
<glyph unicode="z" glyph-name="z" horiz-adv-x="498" d="M67 34L463 497H126L131 532H515L510 498L113 36H455Q455 30 453 18T449 1H62L67 34Z" />
<glyph unicode="{" glyph-name="braceleft" horiz-adv-x="306" d="M187 -210T155 -179T123 -93Q123 -58 153 104Q157 128 166 183T175 249Q175 282 157 297T97 313L104 355Q193 363 202 426L238 656Q248 719 269 759T330 821T436 842L430 807Q384 807 356 796T309
751T279 652L243 422Q237 385 210 362T146 334Q181 330 199 309T218 258Q218 239 194 108Q165 -62 165 -81Q165 -133 191 -154T274 -176L269 -210Q187 -210 155 -179Z" />
<glyph unicode="|" glyph-name="bar" horiz-adv-x="254" d="M230 770H267L134 -72H97L230 770Z" />
<glyph unicode="}" glyph-name="braceright" horiz-adv-x="306" d="M0 -176Q67 -176 102 -145T151 -35L193 229Q198 263 222 286T288 314Q257 318 238 337T218 387Q218 412 242 556Q263 682 263 705Q263 760 236 783T156 807L162 842Q240 842 272 808T305 712Q305
698 284 564Q260 410 260 394Q260 343 336 335L330 293Q293 293 266 276T232 222L191 -38Q183 -89 166 -125T107 -186T-5 -210L0 -176Z" />
<glyph unicode="~" glyph-name="asciitilde" horiz-adv-x="466" d="M367 540T352 550T318 578Q299 594 289 601T268 609Q243 609 220 598T159 561L155 575Q191 604 218 619T272 634Q285 634 299 625T335 597Q353 581 364 573T386 565Q411 565 437 580T493 617L499
603Q463 571 437 556T382 540Q367 540 352 550Z" />
<glyph unicode="&#xa0;" glyph-name="uni00A0" horiz-adv-x="236" />
<glyph unicode="&#xa1;" glyph-name="exclamdown" horiz-adv-x="262" d="M240 532T240 521V519L229 452Q227 438 214 438H192Q181 438 181 448V452L192 519Q193 532 208 532H229Q240 532 240 521ZM121 -200H80L172 335H200L121 -200Z" />
<glyph unicode="&#xa2;" glyph-name="cent" horiz-adv-x="488" d="M247 -5Q170 -4 127 33T84 168Q84 265 116 349T205 485T333 536L347 620H374L360 535Q436 530 511 509L507 485Q424 502 338 502Q276 502 227 456T152 334T125 168Q125 88 158 59T258 29Q310 29
348 34T445 51L441 25Q393 11 358 5T274 -4L262 -83H235L247 -5Z" />
<glyph unicode="&#xa3;" glyph-name="sterling" horiz-adv-x="609" d="M72 29L190 37L239 344L122 348L125 372L245 377L269 530Q281 611 312 655T388 717T496 734Q524 734 604 729L635 727L630 697H492Q437 697 402 684T344 636T310 532L286 377L517 373L513
348L280 344L231 37H541L536 0H67L72 29Z" />
<glyph unicode="&#xa4;" glyph-name="currency" horiz-adv-x="609" d="M521 304T472 252L550 159L524 136L445 230Q399 198 339 198Q283 198 244 235L130 136L110 159L225 258Q202 292 202 335Q202 409 251 460L173 553L199 576L278 483Q323 514 383 514Q439 514
478 477L593 576L613 553L498 454Q521 420 521 377Q521 304 472 252ZM234 292T264 261T341 229Q405 229 447 268T490 375Q490 421 459 452T381 483Q341 483 307 465T254 413T234 337Q234 292 264 261Z" />
<glyph unicode="&#xa5;" glyph-name="yen" horiz-adv-x="609" d="M364 291H547L542 260H342L338 254L325 172H529L524 141H320L297 0H256L279 141H74L79 172H284L297 254L295 260H93L98 291H284L132 733H178L323 304L625 733H673L364 291Z" />
<glyph unicode="&#xa6;" glyph-name="brokenbar" horiz-adv-x="254" d="M230 770H267L213 429H176L230 770ZM149 256H186L134 -72H97L149 256Z" />
<glyph unicode="&#xa7;" glyph-name="section" horiz-adv-x="556" d="M269 -6T201 -4T107 1L112 29H318Q395 29 426 51T464 116L472 164Q478 202 478 210Q478 233 459 241T385 250H243Q176 250 145 268T114 325Q114 338 118 363L126 409Q133 455 152 475T206 501Q182
510 173 526T163 566Q163 576 166 598L175 658Q187 728 228 756T349 784Q399 784 474 782T573 777L569 749H347Q287 749 256 730T215 655Q203 586 203 573Q203 543 224 534T292 524H452Q515 524 540 508T565 453Q565 437 562 419L553 360Q545 316 529 296T477 272Q500
265 509 252T519 217Q519 201 513 167L504 115Q494 49 448 22T316 -6Q269 -6 201 -4ZM391 284Q444 284 466 288T497 306T512 356L522 415Q524 435 524 440Q524 469 507 479T442 489H287Q244 489 220 483T184 461T167 413L157 355Q155 343 155 337Q155 310 177 297T254
284H391Z" />
<glyph unicode="&#xa8;" glyph-name="dieresis" horiz-adv-x="421" d="M176 662T176 673L187 742Q188 755 203 755H222Q233 755 233 745Q233 749 221 675Q220 669 216 666T206 662H187Q176 662 176 673ZM383 662T383 673L394 742Q395 755 410 755H429Q440 755
440 745Q440 749 428 675Q427 669 423 666T413 662H394Q383 662 383 673Z" />
<glyph unicode="&#xa9;" glyph-name="copyright" horiz-adv-x="857" d="M247 0T203 40T139 142T119 277Q119 390 163 495T280 666T430 732H678Q771 732 814 666T858 496Q858 369 817 255T708 70T565 0H317Q247 0 203 40ZM567 23Q635 23 696 89T795 264T833 492Q833
592 796 650T677 709H427Q361 709 295 650T187 491T144 279Q144 168 185 96T318 23H567ZM360 147T329 178T297 286Q297 368 323 436T392 544T484 583Q516 583 568 578T659 565L655 548Q615 554 566 557T484 560Q440 560 403 522T345 421T323 290Q323 230 346 200T422
170Q534 170 604 186L602 169Q556 156 514 152T415 147Q360 147 329 178Z" />
<glyph unicode="&#xaa;" glyph-name="ordfeminine" horiz-adv-x="407" d="M178 356T144 388T110 487Q110 518 118 560Q134 663 180 709T319 756Q360 756 401 746T466 714L410 360H381V402Q359 388 315 372T233 356Q178 356 144 388ZM279 386T311 396T384 427L428
701Q375 726 318 726Q263 726 231 708T181 653T153 553Q146 515 146 491Q146 439 172 413T242 386Q279 386 311 396ZM100 296H418L414 269H96L100 296Z" />
<glyph unicode="&#xab;" glyph-name="guillemotleft" horiz-adv-x="606" d="M97 279L338 484L358 460L144 277L302 92L276 69L97 279ZM347 279L588 484L608 460L394 277L552 92L526 69L347 279Z" />
<glyph unicode="&#xac;" glyph-name="logicalnot" horiz-adv-x="609" d="M606 486L563 218H526L565 458H153L159 495H607L606 486Z" />
<glyph unicode="&#xad;" glyph-name="uni00AD" horiz-adv-x="333" d="M73 309H360L354 272H67L73 309Z" />
<glyph unicode="&#xae;" glyph-name="registered" horiz-adv-x="857" d="M247 0T203 40T139 142T119 277Q119 390 163 495T280 666T430 732H678Q771 732 814 666T858 496Q858 369 817 255T708 70T565 0H317Q247 0 203 40ZM567 23Q635 23 696 89T795 264T833 492Q833
592 796 650T677 709H427Q361 709 295 650T187 491T144 279Q144 168 185 96T318 23H567ZM372 580H550Q600 580 629 561T658 489Q658 431 622 389T531 343L609 153H586L509 342L359 347L328 153H304L372 580ZM520 363Q552 363 578 380T619 424T634 483Q634 523 613
540T552 557H393L362 363H520Z" />
<glyph unicode="&#xaf;" glyph-name="overscore" horiz-adv-x="383" d="M177 710H433L428 685H172L177 710Z" />
<glyph unicode="&#xb0;" glyph-name="degree" horiz-adv-x="335" d="M201 506T171 534T141 609Q141 674 182 715T289 757Q337 757 365 729T394 653Q394 587 354 547T249 506Q201 506 171 534ZM304 527T338 562T372 650Q372 688 349 712T285 736Q232 736 198 701T163
613Q163 575 187 551T252 527Q304 527 338 562Z" />
<glyph unicode="&#xb1;" glyph-name="plusminus" horiz-adv-x="609" d="M108 175H556L550 138H102L108 175ZM606 488H400L368 282H331L363 488H158L164 525H369L401 730H438L406 525H612L606 488Z" />
<glyph unicode="&#xb2;" glyph-name="uni00B2" horiz-adv-x="420" d="M110 384L329 561Q388 610 413 654T439 744Q439 778 415 796T331 814H199L203 839Q296 846 345 846Q476 846 476 752Q476 699 448 648T354 543L163 387H439L434 355H107L110 384Z" />
<glyph unicode="&#xb3;" glyph-name="uni00B3" horiz-adv-x="420" d="M173 351T99 358L103 383H270Q321 383 353 401T392 468L399 505L400 520Q399 553 375 568T317 584L187 589L192 613L321 617Q409 620 421 689L427 729Q428 735 428 746Q428 778 404 796T333
814H190L194 839Q262 846 351 846Q407 846 435 822T465 756Q465 751 463 733L456 690Q449 647 421 626T366 601Q391 596 413 577T436 521Q436 516 434 502L428 464Q419 409 380 380T274 351Q173 351 99 358Z" />
<glyph unicode="&#xb4;" glyph-name="acute" horiz-adv-x="205" d="M261 765H301L150 631H125L261 765Z" />
<glyph unicode="&#xb5;" glyph-name="uni00B5" horiz-adv-x="584" />
<glyph unicode="&#xb6;" glyph-name="paragraph" horiz-adv-x="572" d="M339 324Q323 314 255 314Q185 314 149 348T113 438Q113 453 116 469L136 593Q147 660 201 696T323 733H665L660 697H574L464 0H430L540 699H432L279 -270H245L339 324ZM343 348L398 699H318Q256
699 217 668T169 588L151 472Q148 457 148 446Q148 388 180 368T263 348H343Z" />
<glyph unicode="&#xb7;" glyph-name="middot" horiz-adv-x="279" d="M140 358T137 362T135 371L139 394Q141 407 154 407H176Q189 407 186 394L183 371Q182 358 168 358H146Q140 358 137 362Z" />
<glyph unicode="&#xb8;" glyph-name="cedilla" horiz-adv-x="264" d="M129 -58T145 -70T161 -106Q161 -123 149 -141T114 -172T59 -185H35L38 -168L63 -166Q96 -163 115 -143T135 -106Q135 -88 120 -78T64 -67L129 11H151L93 -57Q129 -58 145 -70Z" />
<glyph unicode="&#xb9;" glyph-name="uni00B9" horiz-adv-x="420" d="M424 387L419 355H126L131 387H260L328 813L200 778L205 801L336 847H369L296 387H424Z" />
<glyph unicode="&#xba;" glyph-name="ordmasculine" horiz-adv-x="434" d="M187 356T150 386T112 487Q112 519 118 558Q131 636 154 678T216 738T318 756Q394 756 427 723T461 621Q461 592 454 543Q442 471 419 431T357 373T255 356Q187 356 150 386ZM308 386T338
399T387 447T418 550Q424 592 424 621Q424 678 399 702T312 726Q262 726 232 712T183 660T153 551Q148 520 148 488Q148 429 176 408T260 386Q308 386 338 399ZM100 296H418L414 269H96L100 296Z" />
<glyph unicode="&#xbb;" glyph-name="guillemotright" horiz-adv-x="606" d="M66 93L280 275L121 462L148 484L326 274L85 69L66 93ZM316 93L530 275L371 462L398 484L576 274L335 69L316 93Z" />
<glyph unicode="&#xbc;" glyph-name="onequarter" horiz-adv-x="1147" d="M847 770H878L372 0H341L847 770ZM1020 124H779L773 147L1023 479H1061L816 155H1024L1047 299L1062 340H1089L1059 155H1134L1130 131L1055 124L1033 -7H998L1020 124ZM433 387L428 355H135L140
387H269L337 813L209 778L214 801L345 847H378L305 387H433Z" />
<glyph unicode="&#xbd;" glyph-name="onehalf" horiz-adv-x="1146" d="M847 770H878L372 0H341L847 770ZM757 21L976 198Q1035 247 1060 291T1086 381Q1086 415 1062 433T978 451H846L850 476Q943 483 992 483Q1123 483 1123 389Q1123 336 1095 285T1001 180L810
24H1086L1081 -8H754L757 21ZM433 387L428 355H135L140 387H269L337 813L209 778L214 801L345 847H378L305 387H433Z" />
<glyph unicode="&#xbe;" glyph-name="threequarters" horiz-adv-x="1146" d="M847 770H878L372 0H341L847 770ZM1020 125H779L773 148L1023 480H1061L816 156H1024L1047 300L1062 341H1089L1059 156H1134L1130 132L1055 125L1033 -6H998L1020 125ZM183 351T109
358L113 383H280Q331 383 363 401T402 468L409 505L410 520Q409 553 385 568T327 584L197 589L202 613L331 617Q419 620 431 689L437 729Q438 735 438 746Q438 778 414 796T343 814H200L204 839Q272 846 361 846Q417 846 445 822T475 756Q475 751 473 733L466 690Q459
647 431 626T376 601Q401 596 423 577T446 521Q446 516 444 502L438 464Q429 409 390 380T284 351Q183 351 109 358Z" />
<glyph unicode="&#xbf;" glyph-name="questiondown" horiz-adv-x="532" d="M419 532T419 521V519L408 452Q406 438 393 438H371Q360 438 360 448V452L371 519Q372 532 387 532H408Q419 532 419 521ZM366 200H326Q259 200 219 188T156 147T125 67L113 -8Q109 -28
109 -61Q109 -119 139 -144T237 -170Q292 -170 341 -161T449 -129L445 -156Q336 -207 219 -207Q138 -207 102 -173T66 -72Q66 -44 72 -11L84 67Q98 154 157 195T337 236L353 336H387L366 200Z" />
<glyph unicode="&#xc0;" glyph-name="Agrave" horiz-adv-x="665" d="M427 733H482L623 0H581L534 240H212L84 0H42L427 733ZM528 278L448 693L230 278H528ZM356 925H394L489 791H465L356 925Z" />
<glyph unicode="&#xc1;" glyph-name="Aacute" horiz-adv-x="665" d="M427 733H482L623 0H581L534 240H212L84 0H42L427 733ZM528 278L448 693L230 278H528ZM568 925H608L457 791H432L568 925Z" />
<glyph unicode="&#xc2;" glyph-name="Acircumflex" horiz-adv-x="665" d="M427 733H482L623 0H581L534 240H212L84 0H42L427 733ZM528 278L448 693L230 278H528ZM458 923H489L585 791H558L469 901L335 791H308L458 923Z" />
<glyph unicode="&#xc3;" glyph-name="Atilde" horiz-adv-x="665" d="M427 733H482L623 0H581L534 240H212L84 0H42L427 733ZM528 278L448 693L230 278H528ZM320 866T349 888T417 911Q437 911 454 903T498 876Q520 859 536 851T570 843Q600 843 621 861T648 912H670Q662
868 636 843T566 818Q547 818 530 826T490 852Q466 869 449 877T412 886Q383 886 361 869T334 817H312Q320 866 349 888Z" />
<glyph unicode="&#xc4;" glyph-name="Adieresis" horiz-adv-x="665" d="M427 733H482L623 0H581L534 240H212L84 0H42L427 733ZM528 278L448 693L230 278H528ZM318 822T318 833L329 902Q330 915 345 915H364Q375 915 375 905Q375 909 363 835Q362 829 358 826T348
822H329Q318 822 318 833ZM525 822T525 833L536 902Q537 915 552 915H571Q582 915 582 905Q582 909 570 835Q569 829 565 826T555 822H536Q525 822 525 833Z" />
<glyph unicode="&#xc5;" glyph-name="Aring" horiz-adv-x="665" d="M427 733H482L623 0H581L534 240H212L84 0H42L427 733ZM528 278L448 693L230 278H528ZM416 778T391 798T365 863Q365 914 398 950T489 986Q528 986 553 966T578 902Q578 849 547 814T458 778Q416
778 391 798ZM506 799T530 828T555 900Q555 935 536 950T487 965Q439 965 414 936T388 863Q388 829 408 814T459 799Q506 799 530 828Z" />
<glyph unicode="&#xc6;" glyph-name="AE" horiz-adv-x="908" d="M560 -3T527 17T494 90Q494 108 496 119L515 239H261L74 0H28L487 586Q532 644 562 674T629 718T719 733Q811 733 933 728L995 726L989 695H723Q676 695 654 685T624 657T611 603L608 582L576 382L899
379L894 349L571 345L536 134Q534 124 534 108Q534 64 560 50T629 35H885L880 4L838 3Q682 -3 613 -3Q560 -3 527 17ZM520 275L579 648L289 275H520Z" />
<glyph unicode="&#xc7;" glyph-name="Ccedilla" horiz-adv-x="589" d="M347 702T299 667T220 558T168 366Q153 278 153 216Q153 117 190 74T316 31Q389 31 436 34T527 45L522 15Q436 -4 328 -6L277 -66Q313 -67 329 -79T345 -115Q345 -132 333 -150T298 -181T243
-194H219L222 -177L247 -175Q280 -172 299 -152T319 -115Q319 -97 304 -87T248 -76L306 -6Q204 -6 158 49T111 215Q111 282 127 378Q155 558 223 648T418 739Q483 739 533 732T636 714L630 685Q516 702 420 702Q347 702 299 667Z" />
<glyph unicode="&#xc8;" glyph-name="Egrave" horiz-adv-x="569" d="M95 -8T95 99Q95 115 98 133L173 602Q184 672 225 702T323 733Q382 733 457 731T562 728L624 726L618 695H326Q278 695 250 672T212 593L179 384L527 377L522 347L173 345L140 134Q138 123 138
105Q138 63 161 48T231 32H515L510 1Q414 -2 220 -6Q95 -8 95 99ZM324 925H362L457 791H433L324 925Z" />
<glyph unicode="&#xc9;" glyph-name="Eacute" horiz-adv-x="569" d="M95 -8T95 99Q95 115 98 133L173 602Q184 672 225 702T323 733Q382 733 457 731T562 728L624 726L618 695H326Q278 695 250 672T212 593L179 384L527 377L522 347L173 345L140 134Q138 123 138
105Q138 63 161 48T231 32H515L510 1Q414 -2 220 -6Q95 -8 95 99ZM536 925H576L425 791H400L536 925Z" />
<glyph unicode="&#xca;" glyph-name="Ecircumflex" horiz-adv-x="569" d="M95 -8T95 99Q95 115 98 133L173 602Q184 672 225 702T323 733Q382 733 457 731T562 728L624 726L618 695H326Q278 695 250 672T212 593L179 384L527 377L522 347L173 345L140 134Q138
123 138 105Q138 63 161 48T231 32H515L510 1Q414 -2 220 -6Q95 -8 95 99ZM426 923H457L553 791H526L437 901L303 791H276L426 923Z" />
<glyph unicode="&#xcb;" glyph-name="Edieresis" horiz-adv-x="569" d="M95 -8T95 99Q95 115 98 133L173 602Q184 672 225 702T323 733Q382 733 457 731T562 728L624 726L618 695H326Q278 695 250 672T212 593L179 384L527 377L522 347L173 345L140 134Q138 123
138 105Q138 63 161 48T231 32H515L510 1Q414 -2 220 -6Q95 -8 95 99ZM286 822T286 833L297 902Q298 915 313 915H332Q343 915 343 905Q343 909 331 835Q330 829 326 826T316 822H297Q286 822 286 833ZM493 822T493 833L504 902Q505 915 520 915H539Q550 915 550
905Q550 909 538 835Q537 829 533 826T523 822H504Q493 822 493 833Z" />
<glyph unicode="&#xcc;" glyph-name="Igrave" horiz-adv-x="196" d="M194 733H235L119 0H78L194 733ZM121 925H159L254 791H230L121 925Z" />
<glyph unicode="&#xcd;" glyph-name="Iacute" horiz-adv-x="196" d="M194 733H235L119 0H78L194 733ZM333 925H373L222 791H197L333 925Z" />
<glyph unicode="&#xce;" glyph-name="Icircumflex" horiz-adv-x="196" d="M194 733H235L119 0H78L194 733ZM223 923H254L350 791H323L234 901L100 791H73L223 923Z" />
<glyph unicode="&#xcf;" glyph-name="Idieresis" horiz-adv-x="196" d="M194 733H235L119 0H78L194 733ZM83 822T83 833L94 902Q95 915 110 915H129Q140 915 140 905Q140 909 128 835Q127 829 123 826T113 822H94Q83 822 83 833ZM290 822T290 833L301 902Q302
915 317 915H336Q347 915 347 905Q347 909 335 835Q334 829 330 826T320 822H301Q290 822 290 833Z" />
<glyph unicode="&#xd0;" glyph-name="Eth" horiz-adv-x="666" d="M569 733T618 671T668 479Q668 432 656 354Q631 192 554 96T339 0H78L134 357H61L67 389H140L194 733H450Q569 733 618 671ZM627 433T627 480Q627 591 586 643T440 696H228L180 389H391L385 357H175L124
37H340Q460 37 526 127T616 365Q627 433 627 480Z" />
<glyph unicode="&#xd1;" glyph-name="Ntilde" horiz-adv-x="655" d="M194 733H229L548 70L654 733H695L579 0H543L224 664L119 0H78L194 733ZM309 866T338 888T406 911Q426 911 443 903T487 876Q509 859 525 851T559 843Q589 843 610 861T637 912H659Q651 868
625 843T555 818Q536 818 519 826T479 852Q455 869 438 877T401 886Q372 886 350 869T323 817H301Q309 866 338 888Z" />
<glyph unicode="&#xd2;" glyph-name="Ograve" horiz-adv-x="681" d="M259 -6T210 11T135 73T109 203Q109 274 125 371Q149 520 190 599T294 708T458 739Q533 739 582 720T659 653T686 521Q686 449 670 352Q647 205 605 128T500 22T337 -6Q259 -6 210 11ZM434 31T486
56T572 152T629 361Q644 448 644 522Q644 595 622 634T559 687T451 702Q365 702 312 676T224 576T166 362Q150 260 150 204Q150 133 170 96T232 45T346 31Q434 31 486 56ZM367 925H405L500 791H476L367 925Z" />
<glyph unicode="&#xd3;" glyph-name="Oacute" horiz-adv-x="681" d="M259 -6T210 11T135 73T109 203Q109 274 125 371Q149 520 190 599T294 708T458 739Q533 739 582 720T659 653T686 521Q686 449 670 352Q647 205 605 128T500 22T337 -6Q259 -6 210 11ZM434 31T486
56T572 152T629 361Q644 448 644 522Q644 595 622 634T559 687T451 702Q365 702 312 676T224 576T166 362Q150 260 150 204Q150 133 170 96T232 45T346 31Q434 31 486 56ZM579 925H619L468 791H443L579 925Z" />
<glyph unicode="&#xd4;" glyph-name="Ocircumflex" horiz-adv-x="681" d="M259 -6T210 11T135 73T109 203Q109 274 125 371Q149 520 190 599T294 708T458 739Q533 739 582 720T659 653T686 521Q686 449 670 352Q647 205 605 128T500 22T337 -6Q259 -6 210 11ZM434
31T486 56T572 152T629 361Q644 448 644 522Q644 595 622 634T559 687T451 702Q365 702 312 676T224 576T166 362Q150 260 150 204Q150 133 170 96T232 45T346 31Q434 31 486 56ZM469 923H500L596 791H569L480 901L346 791H319L469 923Z" />
<glyph unicode="&#xd5;" glyph-name="Otilde" horiz-adv-x="681" d="M259 -6T210 11T135 73T109 203Q109 274 125 371Q149 520 190 599T294 708T458 739Q533 739 582 720T659 653T686 521Q686 449 670 352Q647 205 605 128T500 22T337 -6Q259 -6 210 11ZM434 31T486
56T572 152T629 361Q644 448 644 522Q644 595 622 634T559 687T451 702Q365 702 312 676T224 576T166 362Q150 260 150 204Q150 133 170 96T232 45T346 31Q434 31 486 56ZM331 866T360 888T428 911Q448 911 465 903T509 876Q531 859 547 851T581 843Q611 843 632
861T659 912H681Q673 868 647 843T577 818Q558 818 541 826T501 852Q477 869 460 877T423 886Q394 886 372 869T345 817H323Q331 866 360 888Z" />
<glyph unicode="&#xd6;" glyph-name="Odieresis" horiz-adv-x="681" d="M259 -6T210 11T135 73T109 203Q109 274 125 371Q149 520 190 599T294 708T458 739Q533 739 582 720T659 653T686 521Q686 449 670 352Q647 205 605 128T500 22T337 -6Q259 -6 210 11ZM434
31T486 56T572 152T629 361Q644 448 644 522Q644 595 622 634T559 687T451 702Q365 702 312 676T224 576T166 362Q150 260 150 204Q150 133 170 96T232 45T346 31Q434 31 486 56ZM329 822T329 833L340 902Q341 915 356 915H375Q386 915 386 905Q386 909 374 835Q373
829 369 826T359 822H340Q329 822 329 833ZM536 822T536 833L547 902Q548 915 563 915H582Q593 915 593 905Q593 909 581 835Q580 829 576 826T566 822H547Q536 822 536 833Z" />
<glyph unicode="&#xd7;" glyph-name="multiply" horiz-adv-x="609" d="M388 356L510 211L480 184L357 330L189 184L167 211L335 356L213 501L243 528L366 383L534 528L556 501L388 356Z" />
<glyph unicode="&#xd8;" glyph-name="Oslash" horiz-adv-x="681" d="M661 649Q686 599 686 521Q686 449 670 352Q647 205 605 128T500 22T337 -6Q266 -6 219 8T145 58L95 0H62L132 80Q109 126 109 203Q109 274 125 371Q149 520 190 599T294 708T458 739Q527 739
573 724T648 671L702 733H735L661 649ZM150 150T162 115L619 639Q598 675 557 688T451 702Q365 702 312 676T224 576T166 362Q150 260 150 204Q150 150 162 115ZM644 579T631 614L174 90Q195 56 235 44T346 31Q434 31 486 56T572 152T629 361Q644 448 644 522Q644
579 631 614Z" />
<glyph unicode="&#xd9;" glyph-name="Ugrave" horiz-adv-x="670" d="M225 -6T171 39T117 190Q117 251 129 323L194 733H235L170 320Q157 244 157 191Q157 103 201 67T336 31Q414 31 463 52T548 135T602 320L668 733H709L643 317Q622 182 581 112T481 18T335 -6Q225
-6 171 39ZM346 925H384L479 791H455L346 925Z" />
<glyph unicode="&#xda;" glyph-name="Uacute" horiz-adv-x="670" d="M225 -6T171 39T117 190Q117 251 129 323L194 733H235L170 320Q157 244 157 191Q157 103 201 67T336 31Q414 31 463 52T548 135T602 320L668 733H709L643 317Q622 182 581 112T481 18T335 -6Q225
-6 171 39ZM558 925H598L447 791H422L558 925Z" />
<glyph unicode="&#xdb;" glyph-name="Ucircumflex" horiz-adv-x="670" d="M225 -6T171 39T117 190Q117 251 129 323L194 733H235L170 320Q157 244 157 191Q157 103 201 67T336 31Q414 31 463 52T548 135T602 320L668 733H709L643 317Q622 182 581 112T481 18T335
-6Q225 -6 171 39ZM448 923H479L575 791H548L459 901L325 791H298L448 923Z" />
<glyph unicode="&#xdc;" glyph-name="Udieresis" horiz-adv-x="670" d="M225 -6T171 39T117 190Q117 251 129 323L194 733H235L170 320Q157 244 157 191Q157 103 201 67T336 31Q414 31 463 52T548 135T602 320L668 733H709L643 317Q622 182 581 112T481 18T335
-6Q225 -6 171 39ZM308 822T308 833L319 902Q320 915 335 915H354Q365 915 365 905Q365 909 353 835Q352 829 348 826T338 822H319Q308 822 308 833ZM515 822T515 833L526 902Q527 915 542 915H561Q572 915 572 905Q572 909 560 835Q559 829 555 826T545 822H526Q515
822 515 833Z" />
<glyph unicode="&#xdd;" glyph-name="Yacute" horiz-adv-x="597" d="M309 254L144 733H190L335 304L637 733H685L350 254L309 0H268L309 254ZM519 925H559L408 791H383L519 925Z" />
<glyph unicode="&#xde;" glyph-name="Thorn" horiz-adv-x="540" d="M542 587T542 436Q542 406 535 369Q506 177 312 177Q277 177 251 178T207 180L148 183L119 0H78L194 733H233L210 587H377Q542 587 542 436ZM500 404T500 433Q500 495 467 522T369 549H204L152
214H311Q469 214 495 371Q500 404 500 433Z" />
<glyph unicode="&#xdf;" glyph-name="germandbls" horiz-adv-x="571" d="M337 -6T291 -2T217 7L221 33Q316 28 386 28Q450 28 479 58T515 125Q521 160 521 173Q521 202 501 217T439 251Q392 270 368 290T343 350Q343 384 365 413T430 481Q475 523 498 554T521
623Q521 674 488 703T396 732Q314 732 268 691T206 556L117 0H76L166 565Q183 669 240 719T399 769Q479 769 519 729T560 627Q560 581 534 546T459 465Q420 428 402 405T384 356Q384 328 404 313T463 282Q496 268 515 257T547 227T561 178Q561 160 555 124Q543
60 498 27T385 -6Q337 -6 291 -2Z" />
<glyph unicode="&#xe0;" glyph-name="agrave" horiz-adv-x="561" d="M179 -6T134 38T89 172Q89 205 100 271Q121 411 183 474T369 538Q422 538 475 524T560 481L484 0H453V58Q423 38 363 16T253 -6Q179 -6 134 38ZM313 29T355 43T457 85L517 467Q494 481 454 492T366
503Q292 503 247 478T178 402T139 261Q130 206 130 177Q130 103 165 66T262 29Q313 29 355 43ZM287 765H325L420 631H396L287 765Z" />
<glyph unicode="&#xe1;" glyph-name="aacute" horiz-adv-x="561" d="M179 -6T134 38T89 172Q89 205 100 271Q121 411 183 474T369 538Q422 538 475 524T560 481L484 0H453V58Q423 38 363 16T253 -6Q179 -6 134 38ZM313 29T355 43T457 85L517 467Q494 481 454 492T366
503Q292 503 247 478T178 402T139 261Q130 206 130 177Q130 103 165 66T262 29Q313 29 355 43ZM500 765H540L389 631H364L500 765Z" />
<glyph unicode="&#xe2;" glyph-name="acircumflex" horiz-adv-x="561" d="M179 -6T134 38T89 172Q89 205 100 271Q121 411 183 474T369 538Q422 538 475 524T560 481L484 0H453V58Q423 38 363 16T253 -6Q179 -6 134 38ZM313 29T355 43T457 85L517 467Q494 481
454 492T366 503Q292 503 247 478T178 402T139 261Q130 206 130 177Q130 103 165 66T262 29Q313 29 355 43ZM399 763H430L526 631H499L410 741L276 631H249L399 763Z" />
<glyph unicode="&#xe3;" glyph-name="atilde" horiz-adv-x="561" d="M179 -6T134 38T89 172Q89 205 100 271Q121 411 183 474T369 538Q422 538 475 524T560 481L484 0H453V58Q423 38 363 16T253 -6Q179 -6 134 38ZM313 29T355 43T457 85L517 467Q494 481 454 492T366
503Q292 503 247 478T178 402T139 261Q130 206 130 177Q130 103 165 66T262 29Q313 29 355 43ZM242 706T271 728T339 751Q360 751 377 743T420 716Q442 699 458 691T492 683Q522 683 543 701T570 752H592Q584 708 558 683T488 658Q469 658 452 666T412 692Q388
709 371 717T334 726Q305 726 283 709T256 657H234Q242 706 271 728Z" />
<glyph unicode="&#xe4;" glyph-name="adieresis" horiz-adv-x="561" d="M179 -6T134 38T89 172Q89 205 100 271Q121 411 183 474T369 538Q422 538 475 524T560 481L484 0H453V58Q423 38 363 16T253 -6Q179 -6 134 38ZM313 29T355 43T457 85L517 467Q494 481 454
492T366 503Q292 503 247 478T178 402T139 261Q130 206 130 177Q130 103 165 66T262 29Q313 29 355 43ZM250 662T250 673L261 742Q262 755 277 755H296Q307 755 307 745Q307 749 295 675Q294 669 290 666T280 662H261Q250 662 250 673ZM457 662T457 673L468 742Q469
755 484 755H503Q514 755 514 745Q514 749 502 675Q501 669 497 666T487 662H468Q457 662 457 673Z" />
<glyph unicode="&#xe5;" glyph-name="aring" horiz-adv-x="561" d="M179 -6T134 38T89 172Q89 205 100 271Q121 411 183 474T369 538Q422 538 475 524T560 481L484 0H453V58Q423 38 363 16T253 -6Q179 -6 134 38ZM313 29T355 43T457 85L517 467Q494 481 454 492T366
503Q292 503 247 478T178 402T139 261Q130 206 130 177Q130 103 165 66T262 29Q313 29 355 43ZM348 598T323 618T297 683Q297 734 330 770T421 806Q460 806 485 786T510 722Q510 669 479 634T390 598Q348 598 323 618ZM438 619T462 648T487 720Q487 755 468 770T419
785Q371 785 346 756T320 683Q320 649 340 634T391 619Q438 619 462 648Z" />
<glyph unicode="&#xe6;" glyph-name="ae" horiz-adv-x="910" d="M175 -6T134 37T92 172Q92 330 156 434T369 538Q415 538 467 523T552 484Q583 512 630 526T731 541Q821 541 867 504T914 393Q914 345 885 309T802 252T674 231Q620 231 567 237T498 249Q494 214
494 177Q494 101 524 65T632 28H841L836 2Q753 -6 626 -6Q562 -6 522 19T466 89Q426 54 366 24T248 -6Q175 -6 134 37ZM757 262T815 293T874 388Q874 444 839 475T738 507Q654 507 607 481T538 405T501 272Q502 272 542 267T654 262Q757 262 815 293ZM305 30T362
57T459 120Q454 139 454 172Q454 249 472 327T531 460Q448 503 370 503Q239 503 186 408T133 178Q133 30 250 30Q305 30 362 57Z" />
<glyph unicode="&#xe7;" glyph-name="ccedilla" horiz-adv-x="484" d="M266 503T214 450T140 263Q132 212 132 184Q132 122 149 88T199 41T285 28H449L446 3Q370 -6 275 -6H260L209 -66Q245 -67 261 -79T277 -115Q277 -132 265 -150T230 -181T175 -194H151L154
-177L179 -175Q212 -172 231 -152T251 -115Q251 -97 236 -87T180 -76L240 -5Q167 2 129 44T91 182Q91 214 101 276Q122 413 184 475T347 538Q403 538 516 529L511 503H350Q266 503 214 450Z" />
<glyph unicode="&#xe8;" glyph-name="egrave" horiz-adv-x="548" d="M198 -6T145 38T92 174Q92 226 103 292Q121 413 184 477T369 541Q459 541 506 509T553 403Q553 231 294 231Q246 231 204 236T138 248Q133 218 133 174Q133 97 176 63T321 28H478L473 2Q374
-6 311 -6Q198 -6 145 38ZM389 262T451 291T513 399Q513 457 477 482T366 507Q259 507 209 450T141 273Q193 262 273 262Q389 262 451 291ZM285 765H323L418 631H394L285 765Z" />
<glyph unicode="&#xe9;" glyph-name="eacute" horiz-adv-x="548" d="M198 -6T145 38T92 174Q92 226 103 292Q121 413 184 477T369 541Q459 541 506 509T553 403Q553 231 294 231Q246 231 204 236T138 248Q133 218 133 174Q133 97 176 63T321 28H478L473 2Q374
-6 311 -6Q198 -6 145 38ZM389 262T451 291T513 399Q513 457 477 482T366 507Q259 507 209 450T141 273Q193 262 273 262Q389 262 451 291ZM498 765H538L387 631H362L498 765Z" />
<glyph unicode="&#xea;" glyph-name="ecircumflex" horiz-adv-x="548" d="M198 -6T145 38T92 174Q92 226 103 292Q121 413 184 477T369 541Q459 541 506 509T553 403Q553 231 294 231Q246 231 204 236T138 248Q133 218 133 174Q133 97 176 63T321 28H478L473 2Q374
-6 311 -6Q198 -6 145 38ZM389 262T451 291T513 399Q513 457 477 482T366 507Q259 507 209 450T141 273Q193 262 273 262Q389 262 451 291ZM397 763H428L524 631H497L408 741L274 631H247L397 763Z" />
<glyph unicode="&#xeb;" glyph-name="edieresis" horiz-adv-x="548" d="M198 -6T145 38T92 174Q92 226 103 292Q121 413 184 477T369 541Q459 541 506 509T553 403Q553 231 294 231Q246 231 204 236T138 248Q133 218 133 174Q133 97 176 63T321 28H478L473 2Q374
-6 311 -6Q198 -6 145 38ZM389 262T451 291T513 399Q513 457 477 482T366 507Q259 507 209 450T141 273Q193 262 273 262Q389 262 451 291ZM248 662T248 673L259 742Q260 755 275 755H294Q305 755 305 745Q305 749 293 675Q292 669 288 666T278 662H259Q248 662
248 673ZM455 662T455 673L466 742Q467 755 482 755H501Q512 755 512 745Q512 749 500 675Q499 669 495 666T485 662H466Q455 662 455 673Z" />
<glyph unicode="&#xec;" glyph-name="igrave" horiz-adv-x="194" d="M161 532H202L118 0H77L161 532ZM360 765H398L493 631H469L360 765Z" />
<glyph unicode="&#xed;" glyph-name="iacute" horiz-adv-x="194" d="M161 532H202L118 0H77L161 532ZM317 765H357L206 631H181L317 765Z" />
<glyph unicode="&#xee;" glyph-name="icircumflex" horiz-adv-x="194" d="M161 532H202L118 0H77L161 532ZM472 763H503L599 631H572L483 741L349 631H322L472 763Z" />
<glyph unicode="&#xef;" glyph-name="idieresis" horiz-adv-x="194" d="M161 532H202L118 0H77L161 532ZM67 662T67 673L78 742Q79 755 94 755H113Q124 755 124 745Q124 749 112 675Q111 669 107 666T97 662H78Q67 662 67 673ZM274 662T274 673L285 742Q286 755
301 755H320Q331 755 331 745Q331 749 319 675Q318 669 314 666T304 662H285Q274 662 274 673Z" />
<glyph unicode="&#xf0;" glyph-name="eth" horiz-adv-x="562" d="M561 602T561 441Q561 354 546 263Q530 158 499 100T416 18T280 -6Q190 -6 141 35T91 172Q91 211 99 265Q116 371 147 429T229 512T361 536Q493 536 527 435V438Q527 599 444 671L288 612L283 631L426
685Q360 729 250 731L255 763Q387 761 463 698L616 756L621 737L479 684Q561 602 561 441ZM513 315T513 355Q513 433 477 467T359 501Q290 501 249 481T182 409T140 256Q132 205 132 172Q132 90 171 60T287 29Q353 29 394 47T462 116T505 264Q513 315 513 355Z"
/>
<glyph unicode="&#xf1;" glyph-name="ntilde" horiz-adv-x="568" d="M161 532H191L192 471Q241 503 299 522T414 541Q487 541 520 506T553 413Q553 390 544 329L491 0H450L502 328Q511 390 511 402Q511 503 399 503Q341 503 294 489T188 441L117 0H76L161 532ZM245
706T274 728T342 751Q363 751 380 743T423 716Q445 699 461 691T495 683Q525 683 546 701T573 752H595Q587 708 561 683T491 658Q472 658 455 666T415 692Q391 709 374 717T337 726Q308 726 286 709T259 657H237Q245 706 274 728Z" />
<glyph unicode="&#xf2;" glyph-name="ograve" horiz-adv-x="562" d="M190 -6T141 35T91 172Q91 213 99 267Q116 373 147 431T231 514T366 538Q466 538 510 493T555 355Q555 327 545 249Q529 151 499 96T416 18T280 -6Q190 -6 141 35ZM353 29T394 47T462 114T504
258Q513 315 513 356Q513 436 478 469T359 503Q290 503 249 483T182 411T140 258Q132 205 132 172Q132 90 171 60T287 29Q353 29 394 47ZM281 765H319L414 631H390L281 765Z" />
<glyph unicode="&#xf3;" glyph-name="oacute" horiz-adv-x="562" d="M190 -6T141 35T91 172Q91 213 99 267Q116 373 147 431T231 514T366 538Q466 538 510 493T555 355Q555 327 545 249Q529 151 499 96T416 18T280 -6Q190 -6 141 35ZM353 29T394 47T462 114T504
258Q513 315 513 356Q513 436 478 469T359 503Q290 503 249 483T182 411T140 258Q132 205 132 172Q132 90 171 60T287 29Q353 29 394 47ZM494 765H534L383 631H358L494 765Z" />
<glyph unicode="&#xf4;" glyph-name="ocircumflex" horiz-adv-x="562" d="M190 -6T141 35T91 172Q91 213 99 267Q116 373 147 431T231 514T366 538Q466 538 510 493T555 355Q555 327 545 249Q529 151 499 96T416 18T280 -6Q190 -6 141 35ZM353 29T394 47T462 114T504
258Q513 315 513 356Q513 436 478 469T359 503Q290 503 249 483T182 411T140 258Q132 205 132 172Q132 90 171 60T287 29Q353 29 394 47ZM393 763H424L520 631H493L404 741L270 631H243L393 763Z" />
<glyph unicode="&#xf5;" glyph-name="otilde" horiz-adv-x="562" d="M190 -6T141 35T91 172Q91 213 99 267Q116 373 147 431T231 514T366 538Q466 538 510 493T555 355Q555 327 545 249Q529 151 499 96T416 18T280 -6Q190 -6 141 35ZM353 29T394 47T462 114T504
258Q513 315 513 356Q513 436 478 469T359 503Q290 503 249 483T182 411T140 258Q132 205 132 172Q132 90 171 60T287 29Q353 29 394 47ZM236 706T265 728T333 751Q354 751 371 743T414 716Q436 699 452 691T486 683Q516 683 537 701T564 752H586Q578 708 552 683T482
658Q463 658 446 666T406 692Q382 709 365 717T328 726Q299 726 277 709T250 657H228Q236 706 265 728Z" />
<glyph unicode="&#xf6;" glyph-name="odieresis" horiz-adv-x="562" d="M190 -6T141 35T91 172Q91 213 99 267Q116 373 147 431T231 514T366 538Q466 538 510 493T555 355Q555 327 545 249Q529 151 499 96T416 18T280 -6Q190 -6 141 35ZM353 29T394 47T462 114T504
258Q513 315 513 356Q513 436 478 469T359 503Q290 503 249 483T182 411T140 258Q132 205 132 172Q132 90 171 60T287 29Q353 29 394 47ZM244 662T244 673L255 742Q256 755 271 755H290Q301 755 301 745Q301 749 289 675Q288 669 284 666T274 662H255Q244 662 244
673ZM451 662T451 673L462 742Q463 755 478 755H497Q508 755 508 745Q508 749 496 675Q495 669 491 666T481 662H462Q451 662 451 673Z" />
<glyph unicode="&#xf7;" glyph-name="divide" horiz-adv-x="609" d="M363 511T358 517T354 534L359 568Q361 579 368 586T387 593H409Q433 593 430 568L425 534Q421 511 396 511H374Q363 511 358 517ZM140 375H588L582 338H134L140 375ZM301 119T296 125T292 142L297
176Q302 201 325 201H347Q373 201 368 176L363 142Q359 119 334 119H312Q301 119 296 125Z" />
<glyph unicode="&#xf8;" glyph-name="oslash" horiz-adv-x="561" d="M527 473Q555 429 555 355Q555 327 545 249Q529 151 499 96T416 18T280 -6Q179 -6 133 43L93 0H65L120 60Q91 101 91 172Q91 213 99 267Q116 373 147 431T231 514T366 538Q469 538 514 489L553
532H581L527 473ZM132 124T148 90L487 460Q469 482 438 492T359 503Q290 503 249 483T182 411T140 258Q132 205 132 172Q132 124 148 90ZM513 410T498 441L159 72Q179 48 210 39T287 29Q353 29 394 47T462 114T504 258Q513 315 513 356Q513 410 498 441Z" />
<glyph unicode="&#xf9;" glyph-name="ugrave" horiz-adv-x="568" d="M170 -6T135 26T99 117Q99 143 103 169L160 532H201L144 168Q140 144 140 129Q140 81 167 56T253 31Q310 31 356 45T464 91L534 532H575L491 0H459L460 61Q405 28 354 11T238 -6Q170 -6 135
26ZM289 765H327L422 631H398L289 765Z" />
<glyph unicode="&#xfa;" glyph-name="uacute" horiz-adv-x="568" d="M170 -6T135 26T99 117Q99 143 103 169L160 532H201L144 168Q140 144 140 129Q140 81 167 56T253 31Q310 31 356 45T464 91L534 532H575L491 0H459L460 61Q405 28 354 11T238 -6Q170 -6 135
26ZM502 765H542L391 631H366L502 765Z" />
<glyph unicode="&#xfb;" glyph-name="ucircumflex" horiz-adv-x="568" d="M170 -6T135 26T99 117Q99 143 103 169L160 532H201L144 168Q140 144 140 129Q140 81 167 56T253 31Q310 31 356 45T464 91L534 532H575L491 0H459L460 61Q405 28 354 11T238 -6Q170 -6
135 26ZM401 763H432L528 631H501L412 741L278 631H251L401 763Z" />
<glyph unicode="&#xfc;" glyph-name="udieresis" horiz-adv-x="568" d="M170 -6T135 26T99 117Q99 143 103 169L160 532H201L144 168Q140 144 140 129Q140 81 167 56T253 31Q310 31 356 45T464 91L534 532H575L491 0H459L460 61Q405 28 354 11T238 -6Q170 -6 135
26ZM252 662T252 673L263 742Q264 755 279 755H298Q309 755 309 745Q309 749 297 675Q296 669 292 666T282 662H263Q252 662 252 673ZM459 662T459 673L470 742Q471 755 486 755H505Q516 755 516 745Q516 749 504 675Q503 669 499 666T489 662H470Q459 662 459
673Z" />
<glyph unicode="&#xfd;" glyph-name="yacute" horiz-adv-x="547" d="M97 -204Q145 -192 196 -143T291 0Q262 4 242 12T205 45T180 115L102 532H144L218 124Q227 75 249 58T308 38L501 448Q526 508 529 540H562Q562 482 536 427L333 2Q275 -118 220 -172T97 -237V-204ZM464
765H504L353 631H328L464 765Z" />
<glyph unicode="&#xfe;" glyph-name="thorn" horiz-adv-x="562" d="M197 763H238L202 532Q268 538 388 538Q555 538 555 360Q555 317 545 259Q525 131 467 63T297 -6Q245 -6 204 2T122 31L79 -237H38L197 763ZM392 30T438 88T505 269Q515 329 515 355Q515 503
381 503L196 501L127 61Q182 43 214 37T295 30Q392 30 438 88Z" />
<glyph unicode="&#xff;" glyph-name="ydieresis" horiz-adv-x="547" d="M97 -204Q145 -192 196 -143T291 0Q262 4 242 12T205 45T180 115L102 532H144L218 124Q227 75 249 58T308 38L501 448Q526 508 529 540H562Q562 482 536 427L333 2Q275 -118 220 -172T97
-237V-204ZM214 662T214 673L225 742Q226 755 241 755H260Q271 755 271 745Q271 749 259 675Q258 669 254 666T244 662H225Q214 662 214 673ZM421 662T421 673L432 742Q433 755 448 755H467Q478 755 478 745Q478 749 466 675Q465 669 461 666T451 662H432Q421 662
421 673Z" />
<glyph unicode="&#x2013;" glyph-name="endash" horiz-adv-x="526" d="M75 309H548L542 271H69L75 309Z" />
<glyph unicode="&#x2014;" glyph-name="emdash" horiz-adv-x="749" d="M75 309H771L765 271H69L75 309Z" />
<glyph unicode="&#x2018;" glyph-name="quoteleft" horiz-adv-x="165" d="M146 543T146 554Q146 558 147 560L168 697Q172 723 184 732T210 742Q217 742 221 741L219 727Q208 727 203 723T196 707L186 645H193Q198 645 202 642T206 632V628L195 560Q192 543 177
543H154Q146 543 146 554Z" />
<glyph unicode="&#x2019;" glyph-name="quoteright" horiz-adv-x="165" d="M150 543T146 544L149 558Q167 558 172 578L181 640H174Q161 640 161 653Q161 656 162 657L173 725Q174 742 190 742H213Q221 742 221 731V725L199 588Q195 562 183 553T157 543Q150 543
146 544Z" />
<glyph unicode="&#x201a;" glyph-name="quotesinglbase" horiz-adv-x="165" d="M43 -102L46 -88Q66 -88 69 -68L79 -6H72Q59 -6 59 7Q59 10 60 11L70 79Q72 88 76 92T88 96H111Q119 96 119 85V79L97 -58Q93 -84 81 -93T55 -103L43 -102Z" />
<glyph unicode="&#x201c;" glyph-name="quotedblleft" horiz-adv-x="257" d="M146 543T146 554Q146 558 147 560L168 697Q172 723 184 732T210 742Q217 742 221 741L219 727Q208 727 203 723T196 707L186 645H193Q198 645 202 642T206 632V628L195 560Q192 543
177 543H154Q146 543 146 554ZM238 543T238 554Q238 558 239 560L260 697Q264 723 276 732T302 742Q309 742 313 741L311 727Q300 727 295 723T288 707L278 645H285Q290 645 294 642T298 632V628L287 560Q284 543 269 543H246Q238 543 238 554Z" />
<glyph unicode="&#x201d;" glyph-name="quotedblright" horiz-adv-x="257" d="M150 543T146 544L149 558Q167 558 172 578L181 640H174Q161 640 161 653Q161 656 162 657L173 725Q174 742 190 742H213Q221 742 221 731V725L199 588Q195 562 183 553T157 543Q150
543 146 544ZM242 543T238 544L241 558Q259 558 264 578L273 640H266Q253 640 253 653Q253 656 254 657L265 725Q266 742 282 742H305Q313 742 313 731V725L291 588Q287 562 275 553T249 543Q242 543 238 544Z" />
<glyph unicode="&#x201e;" glyph-name="quotedblbase" horiz-adv-x="257" d="M43 -102L46 -88Q66 -88 69 -68L79 -6H72Q59 -6 59 7Q59 10 60 11L70 79Q72 88 76 92T88 96H111Q119 96 119 85V79L97 -58Q93 -84 81 -93T55 -103L43 -102ZM135 -102L138 -88Q158 -88
161 -68L171 -6H164Q151 -6 151 7Q151 10 152 11L162 79Q164 88 168 92T180 96H203Q211 96 211 85V79L189 -58Q185 -84 173 -93T147 -103L135 -102Z" />
<glyph unicode="&#x2022;" glyph-name="bullet" horiz-adv-x="334" d="M147 328T140 336T135 360L142 402Q144 418 154 427T181 437H217Q247 437 247 412Q247 406 246 402L239 360Q234 328 198 328H162Q147 328 140 336Z" />
<glyph unicode="&#x2039;" glyph-name="guilsinglleft" horiz-adv-x="356" d="M97 279L338 484L358 460L144 277L302 92L276 69L97 279Z" />
<glyph unicode="&#x203a;" glyph-name="guilsinglright" horiz-adv-x="356" d="M66 93L280 275L121 462L148 484L326 274L85 69L66 93Z" />
</font>
</defs>
</svg>
