<?xml version="1.0" standalone="no"?>
<!DOCTYPE svg PUBLIC "-//W3C//DTD SVG 1.1//EN" "http://www.w3.org/Graphics/SVG/1.1/DTD/svg11.dtd">
<svg xmlns="http://www.w3.org/2000/svg">
<defs >
<font id="Yantramanav" horiz-adv-x="1051" ><font-face
    font-family="Yantramanav Medium"
    units-per-em="2048"
    panose-1="2 0 0 0 0 0 0 0 0 0"
    ascent="1923"
    descent="-733"
    alphabetic="0" />
<glyph unicode=" " horiz-adv-x="520" />
<glyph unicode="!" horiz-adv-x="697" d="M445 205V0H228V205H445ZM444 1310V440H228V1310H444Z" />
<glyph unicode="&quot;" horiz-adv-x="909" d="M403 1404V1133L298 914H200L188 1122V1404H403ZM715 1404V1133L610 914H512L500 1131V1404H715Z" />
<glyph unicode="#" horiz-adv-x="1125" d="M54 369V511H289L341 793H122V936H368L438 1310H589L518 936H720L790 1310H941L871 936H1058V793H844L792 511H991V369H765L697 0H546L615 369H412L344 0H194L262 369H54ZM491 793L439 511H642L694 793H491Z" />
<glyph unicode="$" horiz-adv-x="1048" d="M628 138T683 186T738 315T689 446T521 538Q323 605 232 697T141 942T231 1190T479 1304V1500H623V1302Q779 1278 865 1170T951 882H733Q733 995 683 1060T543 1126T407 1078T360 949T408 819T582 727Q780 655 868 565T957
321T864 74T604 -36V-212H461V-37Q290 -19 191 84T95 373L96 378H309Q309 255 368 198T527 140L528 138Q628 138 683 186Z" />
<glyph unicode="%" horiz-adv-x="1354" d="M872 319V249Q872 189 906 150T1000 110T1091 148T1123 249V319Q1123 380 1090 419T998 458T906 419T872 319ZM720 249V319Q720 437 795 513T997 589T1200 513T1275 319V249Q1275 130 1201 55T999 -21T796 55T720 249ZM1054
1120L414 96L302 161L941 1185L1054 1120ZM242 1056V987Q242 926 275 888T368 849T459 888T492 987V1056Q492 1117 459 1156T367 1196T276 1157T242 1056ZM90 987V1056Q90 1175 165 1251T367 1327T570 1251T645 1056V987Q645 869 571 794T369 718T166 793T90 987Z"
/>
<glyph unicode="&amp;" horiz-adv-x="1178" d="M483 -21V-22Q288 -22 172 80T56 351Q56 456 114 535T301 700Q233 789 202 857T170 996Q170 1150 262 1238T505 1327T745 1243T835 1034Q835 948 791 880T658 746L568 681L842 355Q919 477 919 623H1096Q1096 371
964 211L1140 2L1139 -2H892L819 83Q668 -21 483 -21ZM383 546Q275 463 275 365T332 210T497 154T705 218L410 566L383 546ZM652 1077T613 1114T511 1152T412 1110T375 994T463 808L565 876Q615 909 633 944T652 1028Z" />
<glyph unicode="&apos;" horiz-adv-x="597" d="M403 1404V1188L298 931H200L188 1169V1404H403Z" />
<glyph unicode="(" horiz-adv-x="849" d="M197 519V535Q197 706 235 864T336 1139T478 1340T641 1465L647 1464L687 1349Q557 1249 475 1040T393 536V519Q393 225 474 16T687 -300L647 -411H641Q557 -370 479 -286T337 -85T235 190T197 519Z" />
<glyph unicode=")" horiz-adv-x="849" d="M659 532V520Q659 384 634 254T564 20T462 -172Q347 -344 208 -411H203L162 -300Q291 -201 373 11T456 518V535Q456 824 372 1036T162 1352L203 1463H208Q292 1423 372 1338T516 1135T620 859T659 532Z" />
<glyph unicode="*" horiz-adv-x="806" d="M111 690L293 934L24 1014L72 1166L338 1061L327 1370H483L470 1055L732 1158L779 1004L507 925L682 686L555 591L396 849L239 598L111 690Z" />
<glyph unicode="+" horiz-adv-x="1027" d="M617 1100V736H959V536H617V146H405V536H61V736H405V1100H617Z" />
<glyph unicode="," horiz-adv-x="416" d="M327 186V0L187 -281H49L112 8V186H327Z" />
<glyph unicode="-" horiz-adv-x="605" d="M536 697V521H64V697H536Z" />
<glyph unicode="." horiz-adv-x="515" d="M356 210V0H138V210H356Z" />
<glyph unicode="/" horiz-adv-x="755" d="M718 1298L203 -125H2L518 1298H718Z" />
<glyph unicode="0" horiz-adv-x="1048" d="M734 471V836Q734 1152 523 1152T312 836V471Q312 154 525 154Q734 154 734 471ZM953 803V503Q953 249 840 114T525 -21T208 114T94 503V803Q94 1055 207 1191T522 1327T838 1191T953 803Z" />
<glyph unicode="1" horiz-adv-x="1048" d="M646 0H428V1103H161V1264L646 1310V0Z" />
<glyph unicode="2" horiz-adv-x="1048" d="M968 175V-1H98V149L525 615Q628 728 668 801T708 955T657 1094T518 1153Q405 1153 349 1090T292 910H80L78 915Q74 1095 194 1212T510 1329T816 1226T927 952Q927 845 869 746T667 488L375 180L378 175H968Z" />
<glyph unicode="3" horiz-adv-x="1048" d="M351 580V752H503Q607 752 655 803T703 951T652 1100T508 1152T358 1101T302 967H92L90 973Q85 1124 202 1225T507 1327T809 1230T922 954Q922 867 870 790T725 669Q834 631 887 552T941 365Q941 187 820 83T506 -21T193
78T77 344L79 349H290Q290 261 348 208T507 154T665 208T723 369T670 528T503 580H351Z" />
<glyph unicode="4" horiz-adv-x="1048" d="M618 467V999L613 1001L595 962L266 467H618ZM836 1310V467H1002V291H836V0H618V291H56L50 425L611 1310H836Z" />
<glyph unicode="5" horiz-adv-x="1048" d="M907 1306V1117H397L357 789Q445 855 562 856Q747 858 851 741T955 420T843 98T527 -22Q348 -22 233 75T122 344L123 348L328 355Q328 261 382 208T533 154T683 224T737 415T681 609T532 682T394 654T329 569L139 582L215
1306H907Z" />
<glyph unicode="6" horiz-adv-x="1048" d="M653 155T709 235T765 436T707 631T550 704Q389 704 321 595V501Q321 338 386 247T560 155Q653 155 709 235ZM611 1328Q752 1328 862 1273L821 1104Q713 1150 613 1150Q481 1150 402 1049T322 776V769Q434 873 606 873T881
752T985 433T868 107T554 -21T230 121T104 512V762L103 763Q103 1017 245 1172T611 1328Z" />
<glyph unicode="7" horiz-adv-x="1048" d="M968 1310V1134Q855 1001 782 888T662 654T591 419T547 139L534 0H315L329 139Q364 435 468 676T756 1135H62V1310H968Z" />
<glyph unicode="8" horiz-adv-x="1048" d="M306 267T365 211T523 154T682 211T742 365T681 522T523 583T366 524T306 366ZM340 865T390 812T524 758T657 812T707 954T656 1097T522 1152T389 1099T340 956ZM121 1135T229 1231T522 1327T816 1231T926 963Q926 864
873 788T725 670Q835 628 897 546T959 355Q959 175 841 77T524 -21T206 77T87 355Q87 463 149 546T321 671Q226 712 174 787T121 963Q121 1135 229 1231Z" />
<glyph unicode="9" horiz-adv-x="1048" d="M463 154Q584 154 654 241T724 494V554Q632 432 477 432Q288 432 181 550T73 869T193 1199T495 1327Q702 1327 821 1192T941 809V502Q941 257 810 118T463 -21Q312 -21 192 33L221 200L220 201Q320 154 463 154ZM411
1152T352 1073T293 872T347 676T499 602Q579 602 636 633T725 718V835Q725 991 667 1071T500 1152Q411 1152 352 1073Z" />
<glyph unicode=":" horiz-adv-x="494" d="M320 189V0H124V189H320ZM320 977V788H124V977H320Z" />
<glyph unicode=";" horiz-adv-x="490" d="M340 139V-28L214 -281H90L147 -21V139H340ZM321 949V760H125V949H321Z" />
<glyph unicode="&lt;" horiz-adv-x="937" d="M810 712L290 512L273 509V504L290 501L810 305V86L57 421V595L810 929V712Z" />
<glyph unicode="=" horiz-adv-x="1049" d="M906 547V366H131V547H906ZM906 929V748H131V929H906Z" />
<glyph unicode="&gt;" horiz-adv-x="959" d="M660 515L115 714V929L893 595V421L115 86V301L660 505L676 506L677 512L660 515Z" />
<glyph unicode="?" horiz-adv-x="1159" d="M671 204V0H451V204H671ZM667 371H451Q452 460 464 508T507 594T608 691Q697 784 730 839T763 975T715 1106T583 1156T449 1113T398 989H191L188 994Q185 1150 293 1240T584 1330T873 1235T978 970Q978 861 918 767T745
577Q694 532 681 493T667 371Z" />
<glyph unicode="@" horiz-adv-x="1643" d="M884 700V701Q779 701 723 610T649 330Q631 86 756 86Q872 86 934 187Q934 195 977 682Q931 700 884 700ZM860 1236Q1205 1236 1388 1017T1557 411Q1549 209 1446 76Q1396 11 1317 -26T1136 -64Q1067 -64 1019 -27T949
81Q863 -62 699 -62Q579 -62 515 45T467 329Q489 561 593 700T848 839Q942 839 1002 818T1140 743L1138 740H1142L1096 218Q1084 59 1174 59Q1281 59 1345 156T1417 411Q1432 747 1291 928T856 1110Q581 1110 416 914T237 385Q220 54 368 -134T797 -322Q876 -322
957 -304T1095 -256L1129 -373Q1070 -410 979 -431T795 -453Q445 -453 256 -230T82 385Q92 640 190 832T461 1130T860 1236Z" />
<glyph unicode="A" horiz-adv-x="1188" d="M957 0L853 306H340L236 0H14L496 1310H703L1179 0H957ZM596 1049L403 489H791L601 1049H596Z" />
<glyph unicode="B" horiz-adv-x="1181" d="M662 596H362V175H637Q752 175 812 226T873 376Q873 596 662 596ZM362 1135V759H603Q707 759 765 807T823 943Q823 1135 579 1135H362ZM637 0H143V1310H579Q801 1310 921 1220T1041 953Q1041 864 990 794T848 689Q964
663 1027 579T1091 376Q1091 193 972 97T637 0Z" />
<glyph unicode="C" horiz-adv-x="1172" d="M888 433H1099L1101 427Q1104 225 971 102T610 -21T239 132T95 528V777Q95 1019 237 1173T609 1327T972 1206T1102 877L1100 872H888Q888 1006 816 1079T609 1152T394 1047T314 779V528Q314 363 395 259T612 154T818
225T888 433Z" />
<glyph unicode="D" horiz-adv-x="1211" d="M562 1135H362V175H562Q723 175 817 279T911 555V756Q911 926 817 1030T562 1135ZM568 0H143V1310H568Q818 1310 974 1155T1130 754V555Q1130 309 974 155T568 0Z" />
<glyph unicode="E" horiz-adv-x="1068" d="M935 765V590H362V175H1027V0H143V1310H1021V1135H362V765H935Z" />
<glyph unicode="F" horiz-adv-x="1069" d="M936 734V559H362V0H143V1310H1028V1135H362V734H936Z" />
<glyph unicode="G" horiz-adv-x="1245" d="M641 -21Q402 -21 250 128T98 516V790Q98 1029 242 1178T615 1327T974 1216T1106 917L1104 911H897Q890 1023 820 1087T617 1152T401 1051T317 792V516Q317 356 407 255T642 154Q830 154 901 234V500H641V664H1120L1119
175Q1059 91 938 35T641 -21Z" />
<glyph unicode="H" horiz-adv-x="1310" d="M1166 1310V0H949V559H362V0H143V1310H362V734H949V1310H1166Z" />
<glyph unicode="I" horiz-adv-x="530" d="M374 1310V0H156V1310H374Z" />
<glyph unicode="J" horiz-adv-x="1033" d="M680 377V1308H898V377Q898 194 783 87T473 -21T166 78T58 364L59 370H271Q271 154 481 154Q569 154 624 214T680 377Z" />
<glyph unicode="K" horiz-adv-x="1188" d="M362 567V0H143V1310H362V755H487L898 1310H1157L680 685L1194 0H927L513 567H362Z" />
<glyph unicode="L" horiz-adv-x="997" d="M362 1310V175H964V0H143V1310H362Z" />
<glyph unicode="M" horiz-adv-x="1615" d="M143 1310H427L804 302H809L1187 1310H1471V0H1252V446L1274 1014L1268 1015L879 0H733L346 1013L340 1012L362 446V0H143V1310Z" />
<glyph unicode="N" horiz-adv-x="1310" d="M1166 1310V0H949L367 957L362 955V0H143V1310H362L943 355L949 356V1310H1166Z" />
<glyph unicode="O" horiz-adv-x="1258" d="M947 535V773Q947 940 859 1043T625 1147T395 1044T311 773V535Q311 367 395 263T625 158T859 262T947 535ZM1165 771V535Q1165 292 1014 136T626 -21T241 135T93 535V771Q93 1013 240 1170T622 1327Q780 1327 904 1255T1097
1057T1165 771Z" />
<glyph unicode="P" horiz-adv-x="1191" d="M362 1135V672H655Q774 672 836 735T899 902T836 1071T655 1135H362ZM655 497H362V0H143V1310H655Q871 1310 994 1200T1118 903T995 607T655 497Z" />
<glyph unicode="Q" horiz-adv-x="1273" d="M947 514V752Q947 918 859 1022T625 1126T395 1022T311 752V514Q311 345 395 241T625 137T859 240T947 514ZM1165 750V514Q1165 267 1006 108L1224 -104L1078 -234L837 -4Q737 -42 623 -42Q388 -42 241 114T93 514V750Q93
992 240 1149T622 1306Q780 1306 904 1234T1097 1036T1165 750Z" />
<glyph unicode="R" horiz-adv-x="1220" d="M653 544H362V0H143V1310H627Q848 1310 967 1212T1086 929Q1086 726 880 636Q1088 570 1088 326V217Q1088 74 1151 21V0H926Q869 48 869 219V324Q869 426 812 485T653 544ZM362 1135V719H616Q747 719 807 769T868 922T808
1080T627 1135H362Z" />
<glyph unicode="S" horiz-adv-x="1159" d="M719 152T786 200T854 333T793 469T579 562Q350 623 236 718T122 968T253 1225T594 1327T936 1213T1065 932L1063 927H853Q853 1030 784 1091T594 1153T407 1102T341 971T410 842T642 748Q858 690 965 590T1073 331T943
76T598 -21Q495 -21 402 7T237 87T125 215T86 385L88 390H299Q299 274 379 214T597 153L598 152Q719 152 786 200Z" />
<glyph unicode="T" horiz-adv-x="1067" d="M1039 1310V1135H643V0H424V1135H28V1310H1039Z" />
<glyph unicode="U" horiz-adv-x="1256" d="M920 1308H1140V430Q1140 215 1001 97T628 -21T258 97T121 430V1308H339V430Q339 294 414 224T627 154T842 224T920 430V1308Z" />
<glyph unicode="V" horiz-adv-x="1170" d="M247 1310L559 343L582 252H588L610 341L923 1310H1157L689 0H481L14 1310H247Z" />
<glyph unicode="W" horiz-adv-x="1631" d="M251 1310L461 349L724 1310H898L1164 343L1372 1310H1587L1275 0H1076L815 941H809L546 0H347L36 1310H251Z" />
<glyph unicode="X" horiz-adv-x="1170" d="M311 1310L585 826L861 1310H1121L717 661L1136 0H873L589 492L304 0H45L457 661L54 1310H311Z" />
<glyph unicode="Y" horiz-adv-x="1143" d="M677 0H459V472L12 1310H256L571 673L887 1310H1131L677 460V0Z" />
<glyph unicode="Z" horiz-adv-x="1094" d="M1023 175V0H79V137L737 1135H85V1310H1001V1179L339 175H1023Z" />
<glyph unicode="[" horiz-adv-x="722" d="M567 1509V1345H416V-127H567V-291H201V1509H567Z" />
<glyph unicode="\" horiz-adv-x="770" d="M566 -125L19 1298H231L779 -125H566Z" />
<glyph unicode="]" horiz-adv-x="723" d="M156 1345V1509H522V-291H156V-127H307V1345H156Z" />
<glyph unicode="^" horiz-adv-x="788" d="M379 1101L233 729H48L317 1383H471L739 729H554L406 1101L395 1149H390L379 1101Z" />
<glyph unicode="_" horiz-adv-x="832" d="M828 -19V-191H3V-19H828Z" />
<glyph unicode="`" horiz-adv-x="594" d="M315 1451L482 1212H305L72 1446L74 1451H315Z" />
<glyph unicode="a" horiz-adv-x="1003" d="M390 -21Q239 -21 157 56T75 274T186 493T501 571H671V657Q671 734 626 777T502 820T378 785T333 691H122L121 696Q115 815 226 902T511 990T787 903T889 655V222Q889 102 924 -2L702 -3Q678 73 672 140Q624 68 551 24T390
-21ZM293 276H294Q294 219 330 187T441 155T581 195T670 290V434H496Q404 434 349 389T293 276Z" />
<glyph unicode="b" horiz-adv-x="1044" d="M533 811Q394 811 333 688V280Q392 157 536 157Q646 157 699 234T752 452L751 471Q751 630 697 720T533 811ZM970 471V452Q970 235 870 107T591 -21T320 124L299 -2H115V1402H334V861Q427 990 589 990Q770 990 870 850T970 471Z" />
<glyph unicode="c" horiz-adv-x="968" d="M292 469H291Q291 154 517 154Q598 154 652 201T706 319H904L906 314Q911 177 796 78T517 -21Q306 -21 189 114T72 469V500Q72 719 189 854T517 990Q693 990 802 888T908 628L906 623H707Q707 705 655 759T518 814Q400
814 346 730T292 500V469Z" />
<glyph unicode="d" horiz-adv-x="1044" d="M75 452V471Q75 708 175 849T455 990Q610 990 706 866V1402H924V-2H741L719 119Q623 -21 450 -21T176 107T75 452ZM293 471V452Q293 312 346 235T509 157Q642 157 707 272V696Q640 811 511 811Q402 811 348 720T293 471Z" />
<glyph unicode="e" horiz-adv-x="976" d="M699 605Q699 700 651 757T516 814T376 752T311 587L312 582H699V605ZM890 94Q757 -21 542 -21T204 113T80 462V498Q80 712 201 851T513 991T808 873T914 551V422H307L305 417Q311 298 374 226T546 154Q632 154 694 174T819
237L889 94H890Z" />
<glyph unicode="f" horiz-adv-x="647" d="M405 0H185V812H37V974H185V1087Q185 1248 272 1335T519 1423Q572 1423 657 1404L635 1235Q581 1244 547 1244Q405 1244 405 1087V974H603V812H405V0Z" />
<glyph unicode="g" horiz-adv-x="1044" d="M77 666T179 807T457 948T726 803L748 930H930V-44Q930 -233 815 -335T484 -437Q412 -437 331 -417T182 -363L229 -191Q343 -251 472 -251T656 -201T711 -44V56Q616 -63 458 -63Q280 -63 178 66T76 411L77 430Q77 666
179 807ZM294 430V411Q294 272 349 194T514 116Q649 116 710 229V656Q646 769 516 769Q406 769 350 678T294 430Z" />
<glyph unicode="h" horiz-adv-x="1044" d="M332 848Q436 992 600 992T848 893T933 593V0H715V595Q715 709 670 761T531 813Q404 813 331 713V0H113V1404H331L332 848Z" />
<glyph unicode="i" horiz-adv-x="478" d="M348 974V0H130V974H348ZM348 1404V1212H130V1404H348Z" />
<glyph unicode="j" horiz-adv-x="483" d="M140 930H359V-100Q359 -262 276 -349T42 -437Q-18 -437 -71 -422L-58 -247Q-27 -258 20 -258Q140 -258 140 -100V930ZM353 1360V1169H134V1360H353Z" />
<glyph unicode="k" horiz-adv-x="965" d="M334 426V0H116V1404H334V601H425L671 974H928L607 531L976 0H722L432 426H334Z" />
<glyph unicode="l" horiz-adv-x="478" d="M348 1404V0H130V1404H348Z" />
<glyph unicode="m" horiz-adv-x="1603" d="M908 673L910 631V0H691V588Q691 705 649 759T519 813Q391 813 334 715V0H115V974H314L326 847Q425 992 617 992T878 819Q973 992 1170 992Q1321 992 1404 890T1487 587V0H1268V588Q1268 710 1227 761T1097 813Q1028
813 979 776T908 673Z" />
<glyph unicode="n" horiz-adv-x="1044" d="M609 992Q765 992 848 898T932 612V0H713V610Q713 719 669 766T529 813Q403 813 332 707V0H113V974L313 973L326 832Q427 992 609 992Z" />
<glyph unicode="o" horiz-adv-x="1044" d="M293 473Q293 329 349 241T521 152T693 241Q751 330 751 473V492Q751 632 693 721Q637 812 521 812T349 723T292 493L293 473ZM74 709T193 849T520 989T848 849Q967 712 967 494V475Q967 255 848 118T520 -20T194 119Q75
256 75 475L74 493Q74 709 193 849Z" />
<glyph unicode="p" horiz-adv-x="1044" d="M968 432V413Q968 197 868 69T598 -60T334 57V-416H115V932H300L321 810Q418 950 592 950T867 810T968 432ZM751 413V432Q751 587 694 679T527 771Q395 771 334 660V220Q395 114 528 114Q638 114 694 194T751 413Z" />
<glyph unicode="q" horiz-adv-x="1044" d="M293 432V413Q293 272 346 193T509 114Q638 114 699 218V671Q636 775 511 775Q403 775 348 683T293 432ZM75 413V432Q75 669 175 809T448 950T716 814L741 932H918V-416H699V50Q610 -60 454 -60Q276 -60 176 68T75 413Z" />
<glyph unicode="r" horiz-adv-x="638" d="M333 0H114V974H314L328 833Q408 992 558 992Q596 992 626 981L599 777L506 780Q381 780 333 677V0Z" />
<glyph unicode="s" horiz-adv-x="959" d="M572 141T617 173T663 259T619 346T459 404Q279 443 192 511T105 700T209 905T486 990T764 904T865 685L863 679H654Q654 742 607 784T483 826T363 792T320 704T360 621T518 569Q705 530 792 461T879 274Q879 142 771
61T481 -21T187 73T80 299L82 305H285Q289 223 343 183T486 143L487 141Q572 141 617 173Z" />
<glyph unicode="t" horiz-adv-x="641" d="M169 1208H388V972H563V810H388V272Q388 160 483 160Q521 160 551 172L574 11Q513 -21 427 -21Q169 -21 169 272V810H21V972H169V1208Z" />
<glyph unicode="u" horiz-adv-x="1044" d="M443 -21Q282 -21 196 80T110 389V972H328V388Q328 262 367 210T494 157Q647 157 712 268V972H931V-2H740L721 140Q624 -21 443 -21Z" />
<glyph unicode="v" horiz-adv-x="934" d="M255 974L454 329L470 250H475L492 329L686 974H912L566 0H376L29 974H255Z" />
<glyph unicode="w" horiz-adv-x="1377" d="M766 974L972 281L977 282L1130 974H1339L1073 0H894L685 674L684 665L479 0H300L33 974H243L399 292L404 291L607 974H766Z" />
<glyph unicode="x" horiz-adv-x="934" d="M287 974L464 640L644 974H896L590 492L905 0H656L468 342L280 0H30L345 492L39 974H287Z" />
<glyph unicode="y" horiz-adv-x="934" d="M208 -437Q168 -437 90 -419L114 -250Q178 -254 180 -254Q277 -254 332 -120L368 -32L14 930H253L439 347L461 250H466L680 930H919L516 -191Q472 -307 400 -372T208 -437Z" />
<glyph unicode="z" horiz-adv-x="934" d="M868 175V0H77V143L568 797H86V974H844V835L347 175H868Z" />
<glyph unicode="{" horiz-adv-x="841" d="M307 91V275Q307 373 263 425T132 478V631Q219 631 263 683T307 833V1018Q307 1179 383 1283T630 1436L672 1315Q586 1286 548 1212T510 1018V833Q510 635 353 554Q510 473 510 275V91Q510 -149 672 -204L630 -328Q459
-279 383 -174T307 91Z" />
<glyph unicode="|" horiz-adv-x="623" d="M387 1310V-243H237V1310H387Z" />
<glyph unicode="}" horiz-adv-x="842" d="M333 92V276Q333 479 498 555Q333 629 333 834V1019Q333 1260 169 1316L212 1437Q381 1389 458 1284T535 1019V834Q535 632 711 632V479Q535 479 535 276V92Q535 -68 458 -173T212 -327L169 -203Q333 -147 333 92Z" />
<glyph unicode="~" horiz-adv-x="1225" d="M844 387Q767 387 702 415T559 509Q464 590 389 590Q335 590 297 544T259 433L106 453Q106 590 184 681T383 772Q459 772 526 743T655 661T755 589T840 570T927 619T966 734L1122 714Q1122 577 1043 482T844 387Z" />
<glyph unicode="&#xa0;" horiz-adv-x="520" />
<glyph unicode="&#xa1;" horiz-adv-x="488" d="M131 -364L153 559H341L363 -364H131ZM121 889T154 922T244 955T335 922T368 838T335 753T244 720T154 753T121 837Z" />
<glyph unicode="&#xa2;" horiz-adv-x="1034" d="M532 135Q612 135 666 182T725 301H931Q927 178 840 86T618 -32V-243H438V-32Q273 -2 182 126T90 454V479Q90 672 182 801T438 960V1163H618V961Q761 936 844 840T931 600H725Q719 688 667 740T531 792Q323 792
310 511L309 446Q310 135 532 135Z" />
<glyph unicode="&#xa3;" horiz-adv-x="1085" d="M732 538H458L464 380Q464 257 407 182H1033L1032 0H88V182H162Q197 190 216 240T236 372L230 538H85V717H224L217 935Q217 1117 328 1222T623 1328T911 1231T1016 966H796Q796 1051 749 1098T619 1146T490 1089T444
935L452 717H732V538Z" />
<glyph unicode="&#xa4;" horiz-adv-x="1293" d="M377 835T329 744T280 544T329 344T464 198T649 145T833 199T968 344T1017 544T969 743T834 888T649 941T463 888ZM975 94Q833 -21 651 -21T325 93L209 -26L82 104L203 227Q113 368 113 547T211 873L82 1005L209
1135L336 1004Q476 1108 650 1108T965 1003L1095 1136L1223 1005L1090 869Q1186 726 1186 549T1098 230L1223 104L1095 -27L975 94Z" />
<glyph unicode="&#xa5;" horiz-adv-x="1123" d="M983 668V531H669V407H983V271H669V0H442V271H123V407H442V531H123V668H376L23 1310H275L559 738L842 1310H1094L741 668H983Z" />
<glyph unicode="&#xa6;" horiz-adv-x="457" d="M329 -270H122V446H329V-270ZM329 1283V601H122V1283H329Z" />
<glyph unicode="&#xa7;" horiz-adv-x="1145" d="M1049 363Q1049 198 895 117Q1016 26 1016 -134T895 -383T556 -472T210 -374T82 -90L300 -89Q300 -188 369 -242T555 -297T735 -255T798 -142T739 -31T510 61Q342 107 256 156T127 275Q86 346 86 442Q86 609 238
689Q177 735 148 796T118 946Q118 1100 241 1191T577 1283T910 1183T1030 897H811Q811 993 746 1050T572 1108T400 1066T337 948Q337 896 359 864T441 806T645 740T878 651T1008 529V530Q1049 460 1049 363ZM302 456Q302 383 346 345T526 262L687 215L728 200Q832
242 832 348L833 349Q833 422 773 465T542 559Q481 575 400 603Q302 567 302 456Z" />
<glyph unicode="&#xa8;" horiz-adv-x="811" d="M723 1307T692 1277T609 1247T525 1277T494 1353T525 1429T608 1459T692 1429T723 1353ZM249 1248T197 1248T115 1278T84 1354T114 1430T197 1460T280 1430T311 1354T280 1278Z" />
<glyph unicode="&#xa9;" horiz-adv-x="1444" d="M866 534H999L1001 529Q1004 394 927 323T705 252T476 347T391 600V707Q391 865 476 960T704 1055T926 984T1002 778L1000 773H867Q867 857 828 895T705 934T575 873T529 708V600Q529 495 575 434T704 373T827 411T866
534ZM863 1214T717 1214T450 1141T258 939T188 654Q188 416 341 254T717 92T1092 254T1246 654Q1246 810 1176 939T984 1141ZM717 -21Q586 -21 468 31T264 173T128 388T78 654Q78 841 163 995T394 1238T717 1326T1039 1238T1270 996T1355 654T1270 312T1039 68T717
-21Z" />
<glyph unicode="&#xaa;" horiz-adv-x="822" d="M532 765Q462 691 354 691T186 746T127 896Q127 1104 434 1104H526V1150Q526 1264 421 1264Q362 1264 330 1241T297 1175L141 1188Q141 1281 219 1339T422 1398T614 1333T683 1148V864Q683 776 707 704H547L532 765ZM284
900Q284 821 390 821Q425 821 462 836T526 876V999H430Q362 998 323 972T284 900Z" />
<glyph unicode="&#xab;" horiz-adv-x="895" d="M478 857L255 497L478 138H327L68 489V506L327 857H478ZM837 857L614 497L837 138H686L427 489V506L686 857H837Z" />
<glyph unicode="&#xac;" horiz-adv-x="1020" d="M866 762V374H686V608H114V762H866Z" />
<glyph unicode="&#xad;" horiz-adv-x="605" d="M530 697V521H58V697H530Z" />
<glyph unicode="&#xae;" horiz-adv-x="1444" d="M587 283H451V1048H704Q843 1048 919 988T996 819T888 652Q945 627 969 579T994 453Q994 333 1009 298V283H869Q858 312 858 457Q858 525 828 555T729 586L587 587V283ZM587 927V706H715Q779 706 820 734T861 811Q861
875 829 900T714 927H587ZM1176 373Q1245 503 1245 654T1178 932T986 1136T717 1213T450 1140T257 936T186 654T257 371T450 166T716 91T984 167T1176 373ZM162 315Q77 474 77 655T161 992T395 1238Q545 1327 717 1327T1039 1238Q1187 1147 1271 992T1355 654T1272
317T1040 70Q892 -20 718 -20T396 69T163 316L162 315Z" />
<glyph unicode="&#xaf;" horiz-adv-x="888" d="M776 1440V1298H122V1440H776Z" />
<glyph unicode="&#xb0;" horiz-adv-x="700" d="M239 1229T239 1182T272 1103T352 1070T431 1102T462 1181T431 1263T352 1297T272 1263ZM254 943T184 1012T114 1181T184 1352T351 1423T517 1352T586 1182T518 1013T352 943Z" />
<glyph unicode="&#xb1;" horiz-adv-x="988" d="M877 177V1H113V177H877ZM601 1149V809H910V630H601V281H407V630H86V809H407V1149H601Z" />
<glyph unicode="&#xb4;" horiz-adv-x="600" d="M101 1233L276 1506H526L276 1233H101Z" />
<glyph unicode="&#xb5;" horiz-adv-x="1090" d="M527 115Q678 115 731 224V931H950V-43H749L743 35Q659 -61 527 -61Q418 -61 349 -11V-416H131V932L348 931V359Q350 229 391 172T527 115Z" />
<glyph unicode="&#xb6;" horiz-adv-x="905" d="M769 0H580V468H508Q301 468 182 581T62 888T182 1196T509 1310H769V0Z" />
<glyph unicode="&#xb7;" horiz-adv-x="520" d="M383 648T348 615T254 581T162 614T128 701T161 789T254 823T348 789T383 702Z" />
<glyph unicode="&#xb8;" horiz-adv-x="475" d="M411 -246Q411 -342 335 -394T117 -447L111 -324Q170 -324 202 -303T234 -243T204 -188T98 -167L127 -42H286L276 -91Q411 -115 411 -246Z" />
<glyph unicode="&#xba;" horiz-adv-x="842" d="M265 1074V1009Q265 920 306 871T419 821T531 869T573 1006V1078Q573 1165 532 1214T419 1264T306 1215T265 1074ZM107 1013V1078Q107 1223 192 1310T419 1397T645 1310T731 1073V1009Q731 864 647 777T420 690T192
777T107 1013Z" />
<glyph unicode="&#xbb;" horiz-adv-x="895" d="M76 857H226L485 506V489L226 138H76L298 497L76 857ZM449 857H599L858 506V489L599 138H449L671 497L449 857Z" />
<glyph unicode="&#xbc;" horiz-adv-x="1339" d="M1043 1141L403 117L291 182L930 1206L1043 1141Z" />
<glyph unicode="&#xbd;" horiz-adv-x="1421" d="M1005 1141L365 117L253 182L892 1206L1005 1141Z" />
<glyph unicode="&#xbe;" horiz-adv-x="1461" d="M1170 1141L530 117L418 182L1057 1206L1170 1141Z" />
<glyph unicode="&#xbf;" horiz-adv-x="896" d="M279 -35Q279 -203 447 -203Q527 -203 574 -158T622 -39H841Q839 -198 732 -291T444 -385T161 -295T59 -39Q59 110 199 257L282 340Q351 404 361 509L363 556H568Q566 443 543 379T453 243L360 148Q279 60 279 -35ZM404
953T462 953T552 921T585 836T553 751T462 718T371 751T338 836T371 920Z" />
<glyph unicode="&#xc0;" horiz-adv-x="1227" d="M955 0L851 306H338L234 0H12L494 1310H701L1177 0H955ZM594 1049L401 489H789L599 1049H594ZM604 1761L771 1522H594L361 1756L363 1761H604Z" />
<glyph unicode="&#xc1;" horiz-adv-x="1227" d="M955 0L851 306H338L234 0H12L494 1310H701L1177 0H955ZM594 1049L401 489H789L599 1049H594ZM549 1543L724 1816H974L724 1543H549Z" />
<glyph unicode="&#xc2;" horiz-adv-x="1227" d="M955 0L851 306H338L234 0H12L494 1310H701L1177 0H955ZM594 1049L401 489H789L599 1049H594ZM945 1558H769L634 1698L500 1558H326V1570L570 1818H699L945 1568V1558Z" />
<glyph unicode="&#xc3;" horiz-adv-x="1227" d="M955 0L851 306H338L234 0H12L494 1310H701L1177 0H955ZM594 1049L401 489H789L599 1049H594ZM764 1567Q728 1567 702 1575T631 1608T566 1640T516 1647T463 1621T439 1554L305 1561Q305 1661 362 1728T505 1795Q540
1795 628 1755T750 1714T806 1740T830 1808L965 1797Q965 1697 908 1632T764 1567Z" />
<glyph unicode="&#xc4;" horiz-adv-x="1227" d="M955 0L851 306H338L234 0H12L494 1310H701L1177 0H955ZM594 1049L401 489H789L599 1049H594ZM959 1617T928 1587T845 1557T761 1587T730 1663T761 1739T844 1769T928 1739T959 1663ZM485 1558T433 1558T351 1588T320
1664T350 1740T433 1770T516 1740T547 1664T516 1588Z" />
<glyph unicode="&#xc5;" horiz-adv-x="1227" d="M955 0L851 306H338L234 0H12L494 1310H701L1177 0H955ZM594 1049L401 489H789L599 1049H594ZM694 1813T650 1813T578 1784T549 1712T578 1640T650 1611T722 1639T751 1711T723 1783ZM563 1527T507 1580T450 1711T507
1844T649 1899T791 1844T849 1712T793 1581T650 1527Z" />
<glyph unicode="&#xc6;" horiz-adv-x="1733" d="M1691 176V0H883L869 306H418L252 0H-9L743 1310H1635V1133H1054L1069 766H1562V589H1076L1094 176H1691ZM837 1083L522 500H861L837 1083Z" />
<glyph unicode="&#xc7;" horiz-adv-x="1203" d="M858 -251Q858 -347 782 -399T564 -452L558 -329Q617 -329 649 -308T681 -248T651 -193T545 -172L574 -47H733L723 -96Q858 -120 858 -251ZM878 433H1089L1091 427Q1094 225 961 102T600 -21T229 132T85 528V777Q85
1019 227 1173T599 1327T962 1206T1092 877L1090 872H878Q878 1006 806 1079T599 1152T384 1047T304 779V528Q304 363 385 259T602 154T808 225T878 433Z" />
<glyph unicode="&#xc8;" horiz-adv-x="1042" d="M922 765V590H349V175H1014V0H130V1310H1008V1135H349V765H922ZM534 1768L701 1529H524L291 1763L293 1768H534Z" />
<glyph unicode="&#xc9;" horiz-adv-x="1042" d="M922 765V590H349V175H1014V0H130V1310H1008V1135H349V765H922ZM479 1550L654 1823H904L654 1550H479Z" />
<glyph unicode="&#xca;" horiz-adv-x="1042" d="M922 765V590H349V175H1014V0H130V1310H1008V1135H349V765H922ZM875 1565H699L564 1705L430 1565H256V1577L500 1825H629L875 1575V1565Z" />
<glyph unicode="&#xcb;" horiz-adv-x="1042" d="M922 765V590H349V175H1014V0H130V1310H1008V1135H349V765H922ZM889 1624T858 1594T775 1564T691 1594T660 1670T691 1746T774 1776T858 1746T889 1670ZM415 1565T363 1565T281 1595T250 1671T280 1747T363 1777T446
1747T477 1671T446 1595Z" />
<glyph unicode="&#xcc;" horiz-adv-x="520" d="M380 1310V0H162V1310H380ZM216 1768L383 1529H206L-27 1763L-25 1768H216Z" />
<glyph unicode="&#xcd;" horiz-adv-x="520" d="M359 1310V0H141V1310H359ZM139 1550L314 1823H564L314 1550H139Z" />
<glyph unicode="&#xce;" horiz-adv-x="520" d="M379 1310V0H161V1310H379ZM556 1565H380L245 1705L111 1565H-63V1577L181 1825H310L556 1575V1565Z" />
<glyph unicode="&#xcf;" horiz-adv-x="520" d="M381 1310V0H163V1310H381ZM571 1624T540 1594T457 1564T373 1594T342 1670T373 1746T456 1776T540 1746T571 1670ZM97 1565T45 1565T-37 1595T-68 1671T-38 1747T45 1777T128 1747T159 1671T128 1595Z" />
<glyph unicode="&#xd0;" horiz-adv-x="1231" d="M593 740V587H387V182H534Q717 182 812 295T908 626V689Q908 903 816 1015T546 1127H387V740H593ZM537 0H159V587H-9V740H159V1310H546Q721 1310 855 1234T1063 1015T1137 688V622Q1137 435 1063 295T852 77T537 0Z" />
<glyph unicode="&#xd1;" horiz-adv-x="1309" d="M1151 1310V0H934L352 957L347 955V0H128V1310H347L928 355L934 356V1310H1151ZM792 1567Q756 1567 730 1575T659 1608T594 1640T544 1647T491 1621T467 1554L333 1561Q333 1661 390 1728T533 1795Q568 1795 656
1755T778 1714T834 1740T858 1808L993 1797Q993 1697 936 1632T792 1567Z" />
<glyph unicode="&#xd2;" horiz-adv-x="1273" d="M938 535V773Q938 940 850 1043T616 1147T386 1044T302 773V535Q302 367 386 263T616 158T850 262T938 535ZM1156 771V535Q1156 292 1005 136T617 -21T232 135T84 535V771Q84 1013 231 1170T613 1327Q771 1327 895
1255T1088 1057T1156 771ZM620 1761L787 1522H610L377 1756L379 1761H620Z" />
<glyph unicode="&#xd3;" horiz-adv-x="1273" d="M937 535V773Q937 940 849 1043T615 1147T385 1044T301 773V535Q301 367 385 263T615 158T849 262T937 535ZM1155 771V535Q1155 292 1004 136T616 -21T231 135T83 535V771Q83 1013 230 1170T612 1327Q770 1327 894
1255T1087 1057T1155 771ZM564 1543L739 1816H989L739 1543H564Z" />
<glyph unicode="&#xd4;" horiz-adv-x="1273" d="M937 535V773Q937 940 849 1043T615 1147T385 1044T301 773V535Q301 367 385 263T615 158T849 262T937 535ZM1155 771V535Q1155 292 1004 136T616 -21T231 135T83 535V771Q83 1013 230 1170T612 1327Q770 1327 894
1255T1087 1057T1155 771ZM960 1558H784L649 1698L515 1558H341V1570L585 1818H714L960 1568V1558Z" />
<glyph unicode="&#xd5;" horiz-adv-x="1273" d="M937 535V773Q937 940 849 1043T615 1147T385 1044T301 773V535Q301 367 385 263T615 158T849 262T937 535ZM1155 771V535Q1155 292 1004 136T616 -21T231 135T83 535V771Q83 1013 230 1170T612 1327Q770 1327 894
1255T1087 1057T1155 771ZM779 1567Q743 1567 717 1575T646 1608T581 1640T531 1647T478 1621T454 1554L320 1561Q320 1661 377 1728T520 1795Q555 1795 643 1755T765 1714T821 1740T845 1808L980 1797Q980 1697 923 1632T779 1567Z" />
<glyph unicode="&#xd6;" horiz-adv-x="1273" d="M937 535V773Q937 940 849 1043T615 1147T385 1044T301 773V535Q301 367 385 263T615 158T849 262T937 535ZM1155 771V535Q1155 292 1004 136T616 -21T231 135T83 535V771Q83 1013 230 1170T612 1327Q770 1327 894
1255T1087 1057T1155 771ZM974 1617T943 1587T860 1557T776 1587T745 1663T776 1739T859 1769T943 1739T974 1663ZM500 1558T448 1558T366 1588T335 1664T365 1740T448 1770T531 1740T562 1664T531 1588Z" />
<glyph unicode="&#xd7;" horiz-adv-x="983" d="M203 214L69 349L354 639L69 929L203 1064L486 774L770 1064L904 929L619 639L904 349L770 214L486 503L203 214Z" />
<glyph unicode="&#xd8;" horiz-adv-x="1271" d="M1183 614Q1183 420 1117 275T926 52T647 -27T374 41L292 -94H140L270 120Q95 295 95 619V679Q95 871 162 1016T354 1241Q475 1320 644 1320T944 1229L1022 1358H1173L1040 1139Q1182 965 1183 679V614ZM955 612V680Q955
831 915 932L475 208Q546 160 640 160Q794 160 874 275T955 612ZM322 612Q322 426 386 310L838 1053Q761 1130 638 1130Q490 1130 407 1015T322 687V612Z" />
<glyph unicode="&#xd9;" horiz-adv-x="1202" d="M909 1308H1129V430Q1129 215 990 97T617 -21T247 97T110 430V1308H328V430Q328 294 403 224T616 154T831 224T909 430V1308ZM577 1761L744 1522H567L334 1756L336 1761H577Z" />
<glyph unicode="&#xda;" horiz-adv-x="1202" d="M907 1308H1127V430Q1127 215 988 97T615 -21T245 97T108 430V1308H326V430Q326 294 401 224T614 154T829 224T907 430V1308ZM521 1543L696 1816H946L696 1543H521Z" />
<glyph unicode="&#xdb;" horiz-adv-x="1202" d="M907 1308H1127V430Q1127 215 988 97T615 -21T245 97T108 430V1308H326V430Q326 294 401 224T614 154T829 224T907 430V1308ZM917 1558H741L606 1698L472 1558H298V1570L542 1818H671L917 1568V1558Z" />
<glyph unicode="&#xdc;" horiz-adv-x="1202" d="M907 1308H1127V430Q1127 215 988 97T615 -21T245 97T108 430V1308H326V430Q326 294 401 224T614 154T829 224T907 430V1308ZM931 1617T900 1587T817 1557T733 1587T702 1663T733 1739T816 1769T900 1739T931 1663ZM457
1558T405 1558T323 1588T292 1664T322 1740T405 1770T488 1740T519 1664T488 1588Z" />
<glyph unicode="&#xdd;" horiz-adv-x="1123" d="M676 0H458V472L11 1310H255L570 673L886 1310H1130L676 460V0ZM491 1543L666 1816H916L666 1543H491Z" />
<glyph unicode="&#xde;" horiz-adv-x="1103" d="M352 883V446H573Q686 446 751 504T816 662T753 822T581 883H352ZM133 1310H352V1058H569Q787 1058 911 952T1035 665T911 377T570 270H352V0H133V1310Z" />
<glyph unicode="&#xdf;" horiz-adv-x="1130" d="M121 -1V994Q121 1187 224 1293T505 1400T779 1316T875 1080Q875 1023 863 979T819 886T779 807T769 740T797 663T907 559Q987 491 1023 430T1060 301Q1060 147 963 64T687 -19Q616 -19 539 -2T427 39L471 214Q512
188 569 172T675 155Q759 155 801 192T843 292Q843 336 812 376T702 479T587 602T551 735Q551 780 579 842T636 965T664 1065Q664 1138 622 1181T509 1225Q344 1225 340 1002L339 -1H121Z" />
<glyph unicode="&#xe0;" horiz-adv-x="997" d="M382 -21Q231 -21 149 56T67 274T178 493T493 571H663V657Q663 734 618 777T494 820T370 785T325 691H114L113 696Q107 815 218 902T503 990T779 903T881 655V222Q881 102 916 -2L694 -3Q670 73 664 140Q616 68 543
24T382 -21ZM285 276H286Q286 219 322 187T433 155T573 195T662 290V434H488Q396 434 341 389T285 276ZM480 1451L647 1212H470L237 1446L239 1451H480Z" />
<glyph unicode="&#xe1;" horiz-adv-x="997" d="M382 -21Q231 -21 149 56T67 274T178 493T493 571H663V657Q663 734 618 777T494 820T370 785T325 691H114L113 696Q107 815 218 902T503 990T779 903T881 655V222Q881 102 916 -2L694 -3Q670 73 664 140Q616 68 543
24T382 -21ZM285 276H286Q286 219 322 187T433 155T573 195T662 290V434H488Q396 434 341 389T285 276ZM425 1233L600 1506H850L600 1233H425Z" />
<glyph unicode="&#xe2;" horiz-adv-x="997" d="M382 -21Q231 -21 149 56T67 274T178 493T493 571H663V657Q663 734 618 777T494 820T370 785T325 691H114L113 696Q107 815 218 902T503 990T779 903T881 655V222Q881 102 916 -2L694 -3Q670 73 664 140Q616 68 543
24T382 -21ZM285 276H286Q286 219 322 187T433 155T573 195T662 290V434H488Q396 434 341 389T285 276ZM821 1248H645L510 1388L376 1248H202V1260L446 1508H575L821 1258V1248Z" />
<glyph unicode="&#xe3;" horiz-adv-x="997" d="M382 -21Q231 -21 149 56T67 274T178 493T493 571H663V657Q663 734 618 777T494 820T370 785T325 691H114L113 696Q107 815 218 902T503 990T779 903T881 655V222Q881 102 916 -2L694 -3Q670 73 664 140Q616 68 543
24T382 -21ZM285 276H286Q286 219 322 187T433 155T573 195T662 290V434H488Q396 434 341 389T285 276ZM640 1257Q604 1257 578 1265T507 1298T442 1330T392 1337T339 1311T315 1244L181 1251Q181 1351 238 1418T381 1485Q416 1485 504 1445T626 1404T682 1430T706
1498L841 1487Q841 1387 784 1322T640 1257Z" />
<glyph unicode="&#xe4;" horiz-adv-x="997" d="M382 -21Q231 -21 149 56T67 274T178 493T493 571H663V657Q663 734 618 777T494 820T370 785T325 691H114L113 696Q107 815 218 902T503 990T779 903T881 655V222Q881 102 916 -2L694 -3Q670 73 664 140Q616 68 543
24T382 -21ZM285 276H286Q286 219 322 187T433 155T573 195T662 290V434H488Q396 434 341 389T285 276ZM835 1307T804 1277T721 1247T637 1277T606 1353T637 1429T720 1459T804 1429T835 1353ZM361 1248T309 1248T227 1278T196 1354T226 1430T309 1460T392 1430T423
1354T392 1278Z" />
<glyph unicode="&#xe5;" horiz-adv-x="997" d="M381 -21Q230 -21 148 56T66 274T177 493T492 571H662V657Q662 734 617 777T493 820T369 785T324 691H113L112 696Q106 815 217 902T502 990T778 903T880 655V222Q880 102 915 -2L693 -3Q669 73 663 140Q615 68 542
24T381 -21ZM284 276H285Q285 219 321 187T432 155T572 195T661 290V434H487Q395 434 340 389T284 276ZM569 1503T525 1503T453 1474T424 1402T453 1330T525 1301T597 1329T626 1401T598 1473ZM438 1217T382 1270T325 1401T382 1534T524 1589T666 1534T724 1402T668
1271T525 1217Z" />
<glyph unicode="&#xe6;" horiz-adv-x="1556" d="M391 424T337 382T282 277T324 181T445 146Q497 146 557 172T660 237V426H483Q391 424 337 382ZM1284 603Q1284 706 1236 760T1097 814T949 752T877 576H1284V603ZM1129 -20Q899 -20 775 125Q715 55 620 18T403
-20Q244 -20 155 59T65 280T172 499T489 576H661V640Q661 723 618 768T495 814T363 775T311 675L93 692Q93 824 206 907T498 990Q698 990 798 870Q916 992 1102 992T1394 875T1501 546V423H876Q884 296 952 226T1143 155T1361 207L1416 237L1481 88H1480Q1417 38
1324 9T1129 -20Z" />
<glyph unicode="&#xe7;" horiz-adv-x="965" d="M719 -251Q719 -347 643 -399T425 -452L419 -329Q478 -329 510 -308T542 -248T512 -193T406 -172L435 -47H594L584 -96Q719 -120 719 -251ZM284 469H283Q283 154 509 154Q590 154 644 201T698 319H896L898 314Q903
177 788 78T509 -21Q298 -21 181 114T64 469V500Q64 719 181 854T509 990Q685 990 794 888T900 628L898 623H699Q699 705 647 759T510 814Q392 814 338 730T284 500V469Z" />
<glyph unicode="&#xe8;" horiz-adv-x="989" d="M691 605Q691 700 643 757T508 814T368 752T303 587L304 582H691V605ZM882 94Q749 -21 534 -21T196 113T72 462V498Q72 712 193 851T505 991T800 873T906 551V422H299L297 417Q303 298 366 226T538 154Q624 154 686
174T811 237L881 94H882ZM468 1451L635 1212H458L225 1446L227 1451H468Z" />
<glyph unicode="&#xe9;" horiz-adv-x="989" d="M691 605Q691 700 643 757T508 814T368 752T303 587L304 582H691V605ZM882 94Q749 -21 534 -21T196 113T72 462V498Q72 712 193 851T505 991T800 873T906 551V422H299L297 417Q303 298 366 226T538 154Q624 154 686
174T811 237L881 94H882ZM413 1233L588 1506H838L588 1233H413Z" />
<glyph unicode="&#xea;" horiz-adv-x="989" d="M691 605Q691 700 643 757T508 814T368 752T303 587L304 582H691V605ZM882 94Q749 -21 534 -21T196 113T72 462V498Q72 712 193 851T505 991T800 873T906 551V422H299L297 417Q303 298 366 226T538 154Q624 154 686
174T811 237L881 94H882ZM809 1248H633L498 1388L364 1248H190V1260L434 1508H563L809 1258V1248Z" />
<glyph unicode="&#xeb;" horiz-adv-x="989" d="M691 605Q691 700 643 757T508 814T368 752T303 587L304 582H691V605ZM882 94Q749 -21 534 -21T196 113T72 462V498Q72 712 193 851T505 991T800 873T906 551V422H299L297 417Q303 298 366 226T538 154Q624 154 686
174T811 237L881 94H882ZM823 1307T792 1277T709 1247T625 1277T594 1353T625 1429T708 1459T792 1429T823 1353ZM349 1248T297 1248T215 1278T184 1354T214 1430T297 1460T380 1430T411 1354T380 1278Z" />
<glyph unicode="&#xec;" horiz-adv-x="484" d="M355 974V0H137V974H355ZM198 1444L365 1205H188L-45 1439L-43 1444H198Z" />
<glyph unicode="&#xed;" horiz-adv-x="484" d="M334 974V0H116V974H334ZM121 1226L296 1499H546L296 1226H121Z" />
<glyph unicode="&#xee;" horiz-adv-x="484" d="M356 974V0H138V974H356ZM540 1241H364L229 1381L95 1241H-79V1253L165 1501H294L540 1251V1241Z" />
<glyph unicode="&#xef;" horiz-adv-x="484" d="M356 974V0H138V974H356ZM553 1300T522 1270T439 1240T355 1270T324 1346T355 1422T438 1452T522 1422T553 1346ZM79 1241T27 1241T-55 1271T-86 1347T-56 1423T27 1453T110 1423T141 1347T110 1271Z" />
<glyph unicode="&#xf0;" horiz-adv-x="1072" d="M760 490V595L759 611Q729 655 674 680T549 705Q436 705 373 630T310 430T373 230T537 155T698 245T760 490ZM978 570V497Q978 346 922 228T761 45T533 -21T307 35T150 193T93 423T143 656T287 816Q378 873 504
873T732 791Q689 942 575 1053L392 931L321 1029L476 1132Q364 1206 217 1244L285 1419Q493 1377 657 1254L819 1362L889 1263L750 1171Q978 931 978 570Z" />
<glyph unicode="&#xf1;" horiz-adv-x="1025" d="M597 992Q753 992 836 898T920 612V0H701V610Q701 719 657 766T517 813Q391 813 320 707V0H101V974L301 973L314 832Q415 992 597 992ZM642 1257Q606 1257 580 1265T509 1298T444 1330T394 1337T341 1311T317 1244L183
1251Q183 1351 240 1418T383 1485Q418 1485 506 1445T628 1404T684 1430T708 1498L843 1487Q843 1387 786 1322T642 1257Z" />
<glyph unicode="&#xf2;" horiz-adv-x="1049" d="M286 473Q286 329 342 241T514 152T686 241Q744 330 744 473V492Q744 632 686 721Q630 812 514 812T342 723T285 493L286 473ZM67 709T186 849T513 989T841 849Q960 712 960 494V475Q960 255 841 118T513 -20T187
119Q68 256 68 475L67 493Q67 709 186 849ZM490 1451L657 1212H480L247 1446L249 1451H490Z" />
<glyph unicode="&#xf3;" horiz-adv-x="1049" d="M286 473Q286 329 342 241T514 152T686 241Q744 330 744 473V492Q744 632 686 721Q630 812 514 812T342 723T285 493L286 473ZM67 709T186 849T513 989T841 849Q960 712 960 494V475Q960 255 841 118T513 -20T187
119Q68 256 68 475L67 493Q67 709 186 849ZM435 1233L610 1506H860L610 1233H435Z" />
<glyph unicode="&#xf4;" horiz-adv-x="1049" d="M285 473Q285 329 341 241T513 152T685 241Q743 330 743 473V492Q743 632 685 721Q629 812 513 812T341 723T284 493L285 473ZM66 709T185 849T512 989T840 849Q959 712 959 494V475Q959 255 840 118T512 -20T186
119Q67 256 67 475L66 493Q66 709 185 849ZM830 1248H654L519 1388L385 1248H211V1260L455 1508H584L830 1258V1248Z" />
<glyph unicode="&#xf5;" horiz-adv-x="1049" d="M286 473Q286 329 342 241T514 152T686 241Q744 330 744 473V492Q744 632 686 721Q630 812 514 812T342 723T285 493L286 473ZM67 709T186 849T513 989T841 849Q960 712 960 494V475Q960 255 841 118T513 -20T187
119Q68 256 68 475L67 493Q67 709 186 849ZM650 1257Q614 1257 588 1265T517 1298T452 1330T402 1337T349 1311T325 1244L191 1251Q191 1351 248 1418T391 1485Q426 1485 514 1445T636 1404T692 1430T716 1498L851 1487Q851 1387 794 1322T650 1257Z" />
<glyph unicode="&#xf6;" horiz-adv-x="1049" d="M286 473Q286 329 342 241T514 152T686 241Q744 330 744 473V492Q744 632 686 721Q630 812 514 812T342 723T285 493L286 473ZM67 709T186 849T513 989T841 849Q960 712 960 494V475Q960 255 841 118T513 -20T187
119Q68 256 68 475L67 493Q67 709 186 849ZM845 1307T814 1277T731 1247T647 1277T616 1353T647 1429T730 1459T814 1429T845 1353ZM371 1248T319 1248T237 1278T206 1354T236 1430T319 1460T402 1430T433 1354T402 1278Z" />
<glyph unicode="&#xf7;" horiz-adv-x="1052" d="M626 369V170H408V369H626ZM971 732V541H60V732H971ZM626 1102V904H408V1102H626Z" />
<glyph unicode="&#xf8;" horiz-adv-x="1044" d="M525 143Q636 143 697 230T759 482Q759 616 707 699L440 158Q482 143 525 143ZM523 803Q413 803 352 717T290 478T347 235L617 783Q572 803 523 803ZM524 978Q618 978 699 948L762 1076H893L801 889Q978 751 978
463Q978 318 923 206T764 31T525 -32Q447 -32 360 -5L295 -137H165L257 49Q72 184 72 481Q72 625 128 740T288 916Q388 978 524 978Z" />
<glyph unicode="&#xf9;" horiz-adv-x="1024" d="M431 -21Q270 -21 184 80T98 389V972H316V388Q316 262 355 210T482 157Q635 157 700 268V972H919V-2H728L709 140Q612 -21 431 -21ZM478 1451L645 1212H468L235 1446L237 1451H478Z" />
<glyph unicode="&#xfa;" horiz-adv-x="1024" d="M431 -21Q270 -21 184 80T98 389V972H316V388Q316 262 355 210T482 157Q635 157 700 268V972H919V-2H728L709 140Q612 -21 431 -21ZM423 1233L598 1506H848L598 1233H423Z" />
<glyph unicode="&#xfb;" horiz-adv-x="1024" d="M431 -21Q270 -21 184 80T98 389V972H316V388Q316 262 355 210T482 157Q635 157 700 268V972H919V-2H728L709 140Q612 -21 431 -21ZM819 1248H643L508 1388L374 1248H200V1260L444 1508H573L819 1258V1248Z" />
<glyph unicode="&#xfc;" horiz-adv-x="1024" d="M431 -21Q270 -21 184 80T98 389V972H316V388Q316 262 355 210T482 157Q635 157 700 268V972H919V-2H728L709 140Q612 -21 431 -21ZM833 1307T802 1277T719 1247T635 1277T604 1353T635 1429T718 1459T802 1429T833
1353ZM359 1248T307 1248T225 1278T194 1354T224 1430T307 1460T390 1430T421 1354T390 1278Z" />
<glyph unicode="&#xfd;" horiz-adv-x="897" d="M207 -437Q167 -437 89 -419L113 -250Q177 -254 179 -254Q276 -254 331 -120L367 -32L13 930H252L438 347L460 250H465L679 930H918L515 -191Q471 -307 399 -372T207 -437ZM378 1233L553 1506H803L553 1233H378Z" />
<glyph unicode="&#xfe;" horiz-adv-x="1058" d="M971 450V435Q971 211 869 76T591 -60Q432 -60 336 46V-416H117V1341H336V843Q430 950 590 950Q768 950 869 818T971 450ZM530 115Q637 115 694 200T752 445T694 688T528 771Q394 771 336 660V228Q395 115 530 115Z" />
<glyph unicode="&#xff;" horiz-adv-x="897" d="M207 -437Q167 -437 89 -419L113 -250Q177 -254 179 -254Q276 -254 331 -120L367 -32L13 930H252L438 347L460 250H465L679 930H918L515 -191Q471 -307 399 -372T207 -437ZM788 1307T757 1277T674 1247T590 1277T559
1353T590 1429T673 1459T757 1429T788 1353ZM314 1248T262 1248T180 1278T149 1354T179 1430T262 1460T345 1430T376 1354T345 1278Z" />
<glyph unicode="&#x2013;" horiz-adv-x="1274" d="M1012 779V621H132V779H1012Z" />
<glyph unicode="&#x2014;" horiz-adv-x="1499" d="M1215 779V621H132V779H1215Z" />
<glyph unicode="&#x2018;" horiz-adv-x="595" d="M172 917V1086L317 1404H423L369 1083V917H172Z" />
<glyph unicode="&#x2019;" horiz-adv-x="595" d="M426 1404V1230L281 918H175L229 1229V1404H426Z" />
<glyph unicode="&#x201a;" horiz-adv-x="416" d="M320 32Q320 -52 274 -145T156 -298L45 -228Q123 -112 124 20V152H320V32Z" />
<glyph unicode="&#x201c;" horiz-adv-x="894" d="M172 917V1086L317 1404H423L369 1083V917H172ZM471 917V1086L616 1404H722L668 1083V917H471Z" />
<glyph unicode="&#x201d;" horiz-adv-x="901" d="M424 1404V1230L279 918H173L227 1229V1404H424ZM729 1404V1230L584 918H478L532 1229V1404H729Z" />
<glyph unicode="&#x201e;" horiz-adv-x="698" d="M125 198H321V30Q321 -65 270 -170H271Q227 -261 160 -318L46 -248Q124 -122 125 17V198ZM614 34Q614 -56 568 -155T449 -318L335 -248Q414 -118 418 15V198H614V34Z" />
<glyph unicode="&#x2022;" horiz-adv-x="644" d="M122 703V772Q122 858 176 912T321 966T467 913T522 772V703Q522 615 468 563T323 511T177 563T122 703Z" />
<glyph unicode="&#x2039;" horiz-adv-x="563" d="M507 857L284 497L507 138H356L97 489V506L356 857H507Z" />
<glyph unicode="&#x203a;" horiz-adv-x="555" d="M76 857H226L485 506V489L226 138H76L298 497L76 857Z" />
</font>
</defs>
</svg>
