<?xml version="1.0" standalone="no"?>
<!DOCTYPE svg PUBLIC "-//W3C//DTD SVG 1.1//EN" "http://www.w3.org/Graphics/SVG/1.1/DTD/svg11.dtd">
<svg xmlns="http://www.w3.org/2000/svg">
<defs >
<font id="Overpass" horiz-adv-x="538" ><font-face
    font-family="Overpass ExtraLight"
    units-per-em="1000"
    panose-1="0 0 3 0 0 0 0 0 0 0"
    ascent="982"
    descent="-284"
    alphabetic="0" />
<glyph unicode=" " glyph-name="space" horiz-adv-x="226" />
<glyph unicode="!" glyph-name="exclam" horiz-adv-x="263" d="M159 193L182 478L224 712H278L236 478L169 193H159ZM131 -14Q114 -14 104 -2T93 26Q93 46 109 62T146 79Q163 79 173 67T184 39Q184 19 168 3T131 -14Z" />
<glyph unicode="&quot;" glyph-name="quotedbl" horiz-adv-x="367" d="M142 433L181 700H242L186 433H142ZM311 433L350 700H412L356 433H311Z" />
<glyph unicode="#" glyph-name="numbersign" horiz-adv-x="670" d="M148 0L214 211H94L111 261H229L290 451H173L188 500H303L371 700H418L355 500H516L579 700H633L570 500H689L674 451H556L495 261H611L596 211H481L415 0H361L427 211H266L200 0H148ZM280 261H441L502
451H341L280 261Z" />
<glyph unicode="$" glyph-name="dollar" horiz-adv-x="579" d="M240 -98L255 -10Q188 -3 145 37T90 133L142 151Q172 39 295 39Q375 39 424 81T474 199Q474 248 444 282T370 337T284 379T211 438T180 528Q180 602 235 653T382 711L396 789H448L434 710Q490 703
525 674T568 599L517 582Q497 662 395 662Q322 662 279 628T235 537Q235 496 265 467T339 417T425 374T499 310T530 210Q530 114 468 55T307 -11L292 -98H240Z" />
<glyph unicode="%" glyph-name="percent" horiz-adv-x="870" d="M274 356Q210 356 179 397T147 498Q147 575 196 643T333 712Q397 712 427 670T458 570Q458 534 448 498T416 430T358 377T274 356ZM222 -12H166L762 712H818L222 -12ZM280 403Q340 403 374 452T408
565Q408 607 388 636T326 665Q265 665 232 616T199 503Q199 460 219 432T280 403ZM651 -12Q586 -12 555 29T524 129Q524 177 542 224T604 307T710 344Q774 344 804 302T834 202Q834 166 824 130T792 62T735 9T651 -12ZM657 35Q717 35 750 84T784 196Q784 239 764
268T703 297Q642 297 609 248T575 135Q575 92 595 64T657 35Z" />
<glyph unicode="&amp;" glyph-name="ampersand" horiz-adv-x="637" d="M538 0L474 99Q363 -12 233 -12Q160 -12 117 29T74 140Q74 224 127 281T284 393Q223 491 223 547Q223 621 274 666T401 712Q458 712 494 677T531 588Q531 526 489 479T357 383L485 186Q528
247 550 319H601Q575 224 513 144L606 0H538ZM275 556Q275 511 334 418Q408 458 443 495T478 579Q478 617 454 640T392 663Q340 663 308 633T275 556ZM248 38Q354 38 448 140L307 356Q213 305 170 260T126 153Q126 100 159 69T248 38Z" />
<glyph unicode="&apos;" glyph-name="quotesingle" horiz-adv-x="197" d="M181 700H242L186 433H142L181 700Z" />
<glyph unicode="(" glyph-name="parenleft" horiz-adv-x="332" d="M185 -130Q124 -21 124 156Q124 341 187 480T344 712H394Q367 684 338 644T269 533T204 365T178 166Q178 66 197 -12T235 -130H185Z" />
<glyph unicode=")" glyph-name="parenright" horiz-adv-x="332" d="M41 -130Q244 105 244 401Q244 504 222 590T179 712H229Q298 599 298 411Q298 89 91 -130H41Z" />
<glyph unicode="*" glyph-name="asterisk" horiz-adv-x="520" d="M360 393L334 478L279 393L202 306L165 339L240 425L317 489L234 503L142 536L169 586L258 554L327 507L329 595L348 704H401L382 595L351 507L437 555L539 587L548 535L444 502L355 489L409 425L457
338L408 305L360 393Z" />
<glyph unicode="+" glyph-name="plus" horiz-adv-x="646" d="M403 316V108H348V316H142V368H348V578H403V368H612V316H403Z" />
<glyph unicode="," glyph-name="comma" horiz-adv-x="210" d="M61 -141L48 -137Q68 -118 87 -84T110 -17Q90 -17 78 -6T66 23Q66 47 81 62T118 78Q136 78 148 65T160 28Q160 -20 131 -67T61 -141Z" />
<glyph unicode="-" glyph-name="hyphen" horiz-adv-x="394" d="M130 272L139 324H358L349 272H130Z" />
<glyph unicode="." glyph-name="period" horiz-adv-x="210" d="M102 -14Q86 -14 76 -2T65 26Q66 47 82 63T119 79Q136 79 146 67T157 39Q156 18 140 2T102 -14Z" />
<glyph unicode="/" glyph-name="slash" horiz-adv-x="475" d="M-21 -130L512 712H564L31 -130H-21Z" />
<glyph unicode="0" glyph-name="zero" horiz-adv-x="596" d="M296 -12Q246 -12 210 10T154 70T125 150T116 242Q116 298 124 357T154 482T208 597T292 679T408 712T514 674T572 581T588 458Q588 384 573 308T525 157T434 35T296 -12ZM301 38Q354 38 396 70T463
150T504 257T527 365T533 454Q533 511 523 555T482 631T403 663Q350 663 308 631T240 550T199 443T176 335T170 246Q170 157 200 98T301 38Z" />
<glyph unicode="1" glyph-name="one" horiz-adv-x="316" d="M152 0L254 578H140L145 610Q205 610 238 628T295 700H329L205 0H152Z" />
<glyph unicode="2" glyph-name="two" horiz-adv-x="577" d="M66 0Q71 35 82 66T105 120T138 167T175 206T219 241T264 272T314 303Q349 324 361 331T403 358T445 389T478 420T507 458T522 498T530 545Q530 597 496 630T399 663Q336 663 291 631T221 541L177 563Q203
628 263 670T401 712Q486 712 535 666T584 546Q584 516 576 488T556 438T522 393T483 355T434 319T386 288T333 257Q244 204 198 160T135 52H504L494 0H66Z" />
<glyph unicode="3" glyph-name="three" horiz-adv-x="567" d="M283 -12Q191 -12 139 35T72 146L121 163Q153 38 283 38Q364 38 417 84T470 213Q470 273 435 306T331 340H290L298 389H330Q404 389 453 433T502 550Q502 602 469 632T382 663Q268 663 213 555L166
573Q195 632 251 672T385 712Q463 712 510 669T557 556Q557 494 523 443T421 365Q468 351 495 311T523 216Q523 111 455 50T283 -12Z" />
<glyph unicode="4" glyph-name="four" horiz-adv-x="564" d="M359 0L394 197H63L69 226L506 700H536L456 244H557L548 197H447L413 0H359ZM403 244L463 591L147 244H403Z" />
<glyph unicode="5" glyph-name="five" horiz-adv-x="604" d="M291 -12Q218 -12 162 18T81 85L119 123Q185 38 295 38Q395 38 453 99T512 249Q512 317 474 360T364 403Q266 403 195 328L153 341L271 700H599L590 650H306L222 398Q286 452 375 452Q460 452 513 398T566
255Q566 142 494 65T291 -12Z" />
<glyph unicode="6" glyph-name="six" horiz-adv-x="563" d="M274 -12Q183 -12 135 46T87 188Q87 362 211 511T517 714L507 664Q393 629 303 542T171 349Q238 430 346 430Q428 430 476 378T525 245Q525 135 454 62T274 -12ZM277 38Q360 38 415 96T471 240Q471 304
435 342T335 380Q254 380 197 322T140 179Q140 116 176 77T277 38Z" />
<glyph unicode="7" glyph-name="seven" horiz-adv-x="478" d="M155 0Q189 185 263 343T483 652H147L156 700H551L545 662Q279 402 210 0H155Z" />
<glyph unicode="8" glyph-name="eight" horiz-adv-x="575" d="M292 -12Q201 -12 149 38T97 169Q97 247 143 309T269 393Q237 405 214 439T190 515Q190 596 248 654T398 712Q471 712 515 668T560 555Q560 496 526 449T429 383Q479 365 506 323T534 227Q534 124
465 56T292 -12ZM357 407Q422 407 465 448T508 554Q508 604 477 633T394 663Q330 663 286 622T242 516Q242 469 272 438T357 407ZM294 38Q371 38 425 89T479 224Q479 284 442 323T340 363Q260 363 206 308T152 172Q152 110 190 74T294 38Z" />
<glyph unicode="9" glyph-name="nine" horiz-adv-x="563" d="M163 -12L171 37Q280 69 369 161T490 359Q421 277 312 277Q232 277 184 328T135 459Q135 567 208 639T390 712Q478 712 525 656T573 514Q573 401 519 291T371 100T163 -12ZM321 324Q404 324 461 381T519
520Q519 583 484 623T386 663Q303 663 247 606T190 464Q190 402 225 363T321 324Z" />
<glyph unicode=":" glyph-name="colon" horiz-adv-x="210" d="M169 390Q153 390 143 402T132 430Q132 450 148 466T186 483Q203 483 213 471T223 443Q223 422 207 406T169 390ZM98 -14Q81 -14 71 -2T61 26Q61 46 77 62T115 79Q132 79 142 67T152 39Q152 19 136 3T98 -14Z" />
<glyph unicode=";" glyph-name="semicolon" horiz-adv-x="210" d="M169 390Q153 390 143 402T132 430Q132 450 148 466T186 483Q203 483 213 471T223 443Q223 422 207 406T169 390ZM56 -141L43 -137Q62 -118 80 -84T102 -16Q84 -16 73 -6T61 23Q61 47 76 62T112
78Q130 78 142 65T154 28Q154 -20 125 -67T56 -141Z" />
<glyph unicode="&lt;" glyph-name="less" horiz-adv-x="646" d="M614 120L144 317V369L614 566V512L206 343L614 175V120Z" />
<glyph unicode="=" glyph-name="equal" horiz-adv-x="646" d="M142 404V455H612V404H142ZM142 229V281H612V229H142Z" />
<glyph unicode="&gt;" glyph-name="greater" horiz-adv-x="646" d="M610 317L140 120V174L548 343L140 512V566L610 369V317Z" />
<glyph unicode="?" glyph-name="question" horiz-adv-x="514" d="M244 173L248 195Q258 248 287 290T351 358T417 411T471 472T493 552Q493 600 461 631T369 662Q301 662 254 626T185 522L135 529Q161 613 227 662T377 712Q458 712 503 669T548 558Q548 513 532
477T492 417T437 369T380 323T331 268T302 195L298 173H244ZM237 -14Q220 -14 210 -2T199 26Q200 47 216 63T254 79Q270 79 280 67T291 39Q290 18 274 2T237 -14Z" />
<glyph unicode="@" glyph-name="at" horiz-adv-x="782" d="M391 -12Q263 -12 183 67T103 280Q103 402 164 503T321 658T520 712Q646 712 721 642T797 458Q797 337 736 249T597 160Q561 160 542 179T523 233Q495 194 458 173T383 151Q329 151 297 189T265 291Q265
385 325 457T476 529Q522 529 548 501T577 430L605 516H653L582 298Q572 268 572 245Q572 203 609 203Q663 203 705 281T748 455T684 607T516 663Q364 663 260 554T155 286Q155 178 219 108T398 37Q473 37 534 53L514 2Q464 -12 391 -12ZM400 199Q462 199 506 255T551
382Q551 428 530 454T472 481Q405 481 362 425T319 296Q319 252 341 226T400 199Z" />
<glyph unicode="A" glyph-name="A" horiz-adv-x="638" d="M56 0L412 700H453L566 0H513L482 189H209L113 0H56ZM231 235H476L431 526Q421 577 418 613Q413 600 397 566T378 526L231 235Z" />
<glyph unicode="B" glyph-name="B" horiz-adv-x="615" d="M217 700H429Q521 700 562 658T604 548Q604 473 557 425T446 364Q503 357 537 315T571 211Q571 173 559 138T520 70T445 19T329 0H94L217 700ZM355 387Q447 387 499 431T552 544Q552 653 425 653H262L215
387H355ZM334 48Q433 48 476 98T519 213Q519 340 360 340H207L155 48H334Z" />
<glyph unicode="C" glyph-name="C" horiz-adv-x="620" d="M342 -12Q266 -12 214 30T140 134T118 272Q118 355 141 433T207 574T315 674T460 712Q592 712 643 599L598 574Q575 617 544 640T455 663Q368 663 302 604T205 459T173 277Q173 175 216 107T346 38Q454
38 524 136L569 115Q488 -12 342 -12Z" />
<glyph unicode="D" glyph-name="D" horiz-adv-x="649" d="M217 700H380Q449 700 500 676T580 609T623 519T637 415Q637 338 616 267T551 135T431 37T255 0H94L217 700ZM266 50Q345 50 407 81T506 166T562 282T581 415Q581 515 532 583T378 651H261L156 50H266Z" />
<glyph unicode="E" glyph-name="E" horiz-adv-x="568" d="M94 0L217 700H587L580 652H262L215 387H428L419 339H207L156 48H495L486 0H94Z" />
<glyph unicode="F" glyph-name="F" horiz-adv-x="537" d="M94 0L217 700H597L590 652H262L215 387H435L426 339H207L147 0H94Z" />
<glyph unicode="G" glyph-name="G" horiz-adv-x="660" d="M342 -12Q266 -12 214 28T140 129T118 265Q118 349 140 428T203 571T311 673T460 712Q589 712 642 608L593 581Q552 663 451 663Q384 663 329 627T241 532T191 406T173 271Q173 171 215 105T344 38Q423
38 477 92T550 247L554 274H423L431 323H619L608 261Q583 123 513 56T342 -12Z" />
<glyph unicode="H" glyph-name="H" horiz-adv-x="657" d="M94 0L217 700H270L216 389H562L616 700H670L547 0H493L553 339H207L148 0H94Z" />
<glyph unicode="I" glyph-name="I" horiz-adv-x="253" d="M94 0L217 700H270L147 0H94Z" />
<glyph unicode="J" glyph-name="J" horiz-adv-x="514" d="M215 -12Q151 -12 108 21T49 108L94 128Q124 37 215 37Q358 37 391 223L474 700H528L444 221Q403 -12 215 -12Z" />
<glyph unicode="K" glyph-name="K" horiz-adv-x="609" d="M488 0L342 417L192 258L147 0H94L217 700H270L207 339L548 700H610L382 459L543 0H488Z" />
<glyph unicode="L" glyph-name="L" horiz-adv-x="526" d="M94 0L217 700H270L156 50H491L482 0H94Z" />
<glyph unicode="M" glyph-name="M" horiz-adv-x="775" d="M373 -12L256 502Q253 513 244 557Q240 531 235 501L147 0H93L216 700H265L380 188Q381 182 386 158T394 121Q413 157 432 187L735 700H786L663 0H609L698 502L708 559Q704 551 699 542T687 521T677 504L373 -12Z" />
<glyph unicode="N" glyph-name="N" horiz-adv-x="669" d="M93 0L216 700H266L491 168Q495 159 506 131T522 94Q523 99 528 127T535 168L629 700H682L559 0H506L290 511Q286 522 252 602L236 510L147 0H93Z" />
<glyph unicode="O" glyph-name="O" horiz-adv-x="694" d="M343 -12Q266 -12 214 29T140 131T118 267Q118 343 139 419T199 562T307 670T459 712Q518 712 562 689T631 626T669 539T681 436Q681 375 669 314T630 193T565 89T469 16T343 -12ZM345 38Q416 38 472 75T560
173T610 300T627 436Q627 533 586 598T456 663Q385 663 329 626T239 528T189 401T172 265Q172 166 214 102T345 38Z" />
<glyph unicode="P" glyph-name="P" horiz-adv-x="589" d="M94 0L217 700H438Q537 700 583 650T629 527Q629 485 614 445T570 369T491 312T376 290H198L147 0H94ZM381 338Q476 338 525 395T575 525Q575 579 543 616T436 653H261L207 338H381Z" />
<glyph unicode="Q" glyph-name="Q" horiz-adv-x="694" d="M525 -61L484 24Q421 -12 343 -12Q266 -12 214 29T140 131T118 267Q118 343 139 419T199 562T307 670T459 712Q518 712 562 689T631 626T669 539T681 436Q681 326 641 220T524 51L567 -38L525 -61ZM345
38Q409 38 462 69L421 154L464 177L502 98Q563 154 595 247T627 436Q627 533 586 598T456 663Q385 663 329 626T239 528T189 401T172 265Q172 166 214 102T345 38Z" />
<glyph unicode="R" glyph-name="R" horiz-adv-x="629" d="M628 531Q628 448 572 392T419 325L526 0H470L364 322H204L147 0H94L217 700H439Q537 700 582 650T628 531ZM382 370Q472 370 523 414T575 530Q575 580 544 616T440 652H262L213 370H382Z" />
<glyph unicode="S" glyph-name="S" horiz-adv-x="571" d="M509 582Q481 663 383 663Q312 663 271 629T230 537Q230 506 246 482T288 442T345 411T407 378T464 339T506 283T522 205Q522 104 456 46T287 -12Q209 -12 157 29T88 133L138 151Q175 37 292 37Q370 37
418 80T466 199Q466 248 436 282T364 339T278 383T205 443T175 534Q175 610 233 661T386 712Q454 712 500 681T558 601L509 582Z" />
<glyph unicode="T" glyph-name="T" horiz-adv-x="545" d="M408 652L293 0H240L355 652H170L178 700H602L594 652H408Z" />
<glyph unicode="U" glyph-name="U" horiz-adv-x="646" d="M322 -12Q234 -12 181 37T127 184Q127 219 135 265L211 700H265L189 265Q182 226 182 189Q182 37 323 37Q493 37 532 256L609 700H663L585 255Q561 115 496 52T322 -12Z" />
<glyph unicode="V" glyph-name="V" horiz-adv-x="614" d="M279 0L169 700H224L302 182Q308 149 314 100Q326 125 353 179L611 700H670L317 0H279Z" />
<glyph unicode="W" glyph-name="W" horiz-adv-x="804" d="M191 0L168 700H222L239 178Q239 144 241 120L265 177L490 700H531L576 174L580 119Q583 126 591 146T601 172L804 700H861L589 0H542L496 520Q493 551 491 577Q479 547 467 520L238 0H191Z" />
<glyph unicode="X" glyph-name="X" horiz-adv-x="534" d="M36 0L295 369L175 700H228L328 417L526 700H585L348 363L479 0H426L314 314L96 0H36Z" />
<glyph unicode="Y" glyph-name="Y" horiz-adv-x="587" d="M258 0L307 279L161 700H215L340 328L597 700H654L358 275L310 0H258Z" />
<glyph unicode="Z" glyph-name="Z" horiz-adv-x="594" d="M56 0L63 34L568 653H194L202 700H644L637 664L135 48H528L521 0H56Z" />
<glyph unicode="[" glyph-name="bracketleft" horiz-adv-x="370" d="M93 -130L241 712H429L420 664H284L153 -82H289L281 -130H93Z" />
<glyph unicode="\" glyph-name="backslash" horiz-adv-x="475" d="M364 -130L127 712H179L416 -130H364Z" />
<glyph unicode="]" glyph-name="bracketright" horiz-adv-x="370" d="M34 -130L42 -82H178L309 664H173L182 712H370L222 -130H34Z" />
<glyph unicode="^" glyph-name="asciicircum" horiz-adv-x="646" d="M543 362L403 644L217 362H163L383 712H438L597 362H543Z" />
<glyph unicode="_" glyph-name="underscore" horiz-adv-x="518" d="M-18 -166L-8 -111H492L482 -166H-18Z" />
<glyph unicode="`" glyph-name="grave" horiz-adv-x="327" d="M276 576L133 732H212L328 576H276Z" />
<glyph unicode="a" glyph-name="a" horiz-adv-x="505" d="M370 0L380 59Q307 -12 220 -12Q155 -12 118 27T80 133Q80 223 140 273T284 324Q360 324 419 279L429 334Q435 368 435 387Q435 476 345 476Q272 476 183 423L175 469Q272 523 348 523Q407 523 446 492T486
392Q486 376 480 339L421 0H370ZM227 35Q312 35 392 123L410 229Q350 276 283 276Q220 276 177 239T133 136Q133 91 158 63T227 35Z" />
<glyph unicode="b" glyph-name="b" horiz-adv-x="537" d="M286 -12Q195 -12 149 61L138 0H85L207 698L265 722L217 453Q280 523 366 523Q438 523 482 468T526 321Q526 170 460 79T286 -12ZM284 38Q371 38 421 117T471 319Q471 393 442 433T356 474Q311 474 272
448T206 385L160 126Q176 87 208 63T284 38Z" />
<glyph unicode="c" glyph-name="c" horiz-adv-x="459" d="M249 -12Q176 -12 133 42T89 192Q89 338 155 430T327 523Q384 523 422 493T469 416L420 397Q403 474 323 474Q240 474 192 392T144 192Q144 119 171 79T252 38Q337 38 379 124L424 105Q367 -12 249 -12Z" />
<glyph unicode="d" glyph-name="d" d="M256 -12Q179 -12 136 47T93 206Q93 349 163 436T344 523Q392 523 424 503T471 453L515 698L572 722L445 0H392L402 58Q339 -12 256 -12ZM263 38Q307 38 347 64T415 130L459 386Q446 421 417 447T342 474Q253 474 201 400T149
205Q149 132 178 85T263 38Z" />
<glyph unicode="e" glyph-name="e" horiz-adv-x="505" d="M259 -12Q179 -12 134 45T89 197Q89 340 160 431T339 523Q413 523 457 479T502 342Q502 305 486 236H146Q144 214 144 202Q144 39 267 39Q326 39 387 81L412 42Q341 -12 259 -12ZM153 284H442Q449 316
449 345Q449 415 417 445T339 475Q263 475 217 421T153 284Z" />
<glyph unicode="f" glyph-name="f" horiz-adv-x="305" d="M237 463L155 0H102L183 463H101L109 511H192L208 603Q228 712 325 712Q363 712 394 692L386 646Q352 663 325 663Q294 663 280 646T260 593L245 511H363L354 463H237Z" />
<glyph unicode="g" glyph-name="g" horiz-adv-x="539" d="M163 -170Q273 -164 324 -126T387 -19L402 67Q348 -12 251 -12Q178 -12 134 44T90 197Q90 342 159 432T337 523Q425 523 470 450L481 511H533L440 -16Q430 -74 406 -113T344 -172T268 -201T180 -213L163
-170ZM264 38Q310 38 349 65T415 136L458 386Q444 426 412 450T337 474Q248 474 197 397T145 203Q145 126 178 82T264 38Z" />
<glyph unicode="h" glyph-name="h" horiz-adv-x="536" d="M85 0L208 698L265 722L214 436Q270 523 365 523Q503 523 503 379Q503 344 495 298L443 0H391L446 314Q451 351 451 372Q451 425 425 450T354 475Q222 475 191 305L138 0H85Z" />
<glyph unicode="i" glyph-name="i" horiz-adv-x="235" d="M221 620Q207 620 199 629T190 652Q190 670 202 683T233 697Q248 697 256 688T265 664Q265 646 252 633T221 620ZM86 0L176 511H229L139 0H86Z" />
<glyph unicode="j" glyph-name="j" horiz-adv-x="242" d="M223 620Q209 620 200 629T191 652Q191 670 204 683T234 697Q249 697 257 688T266 664Q266 646 254 633T223 620ZM-44 -215L-62 -170Q6 -163 36 -137T78 -50L177 511H230L131 -54Q115 -141 71 -175T-44 -215Z" />
<glyph unicode="k" glyph-name="k" horiz-adv-x="486" d="M332 370L454 0H396L291 331L178 226L138 0H85L208 698L265 722L190 296L421 511H484L332 370Z" />
<glyph unicode="l" glyph-name="l" horiz-adv-x="237" d="M87 0L210 698L267 722L141 0H87Z" />
<glyph unicode="m" glyph-name="m" horiz-adv-x="816" d="M85 0L175 511H227L214 440Q241 480 281 501T362 523Q410 523 440 498T479 422Q539 523 645 523Q708 523 744 485T780 379Q780 350 775 329L717 0H664L720 319Q724 342 724 371Q724 475 634 475Q577 475
537 432T485 322L428 0H375L430 319Q435 347 435 371Q435 475 347 475Q289 475 248 431T193 315L138 0H85Z" />
<glyph unicode="n" glyph-name="n" horiz-adv-x="536" d="M85 0L175 511H227L214 437Q270 523 366 523Q431 523 467 485T503 374Q503 335 496 294L444 0H391L444 307Q450 337 450 371Q450 423 425 449T355 475Q294 475 250 432T191 304L138 0H85Z" />
<glyph unicode="o" glyph-name="o" horiz-adv-x="524" d="M261 -12Q178 -12 134 44T90 195Q90 332 158 427T342 523Q426 523 470 466T514 318Q514 180 447 84T261 -12ZM264 38Q356 38 408 119T460 315Q460 386 430 430T341 474Q248 474 197 392T145 194Q145 123
175 81T264 38Z" />
<glyph unicode="p" glyph-name="p" horiz-adv-x="542" d="M289 -12Q239 -12 203 11T149 70L106 -179L48 -203L174 511H227L216 451Q279 523 369 523Q443 523 486 466T529 315Q529 167 459 78T289 -12ZM288 38Q370 38 422 114T474 310Q474 386 444 430T357 474Q312
474 273 450T205 385L160 131Q198 38 288 38Z" />
<glyph unicode="q" glyph-name="q" horiz-adv-x="541" d="M253 -12Q177 -12 135 40T92 190Q92 337 160 430T336 523Q434 523 471 451L481 511H535L414 -176L357 -200L403 67Q339 -12 253 -12ZM262 38Q345 38 415 133L459 385Q445 427 413 450T336 474Q254 474
201 395T147 193Q147 38 262 38Z" />
<glyph unicode="r" glyph-name="r" horiz-adv-x="367" d="M85 0L175 511H227L211 421Q244 472 285 497T365 523Q406 523 429 502L412 453Q385 470 350 470Q302 470 253 424T188 286L138 0H85Z" />
<glyph unicode="s" glyph-name="s" horiz-adv-x="439" d="M227 -12Q123 -12 67 71L108 104Q154 36 229 36Q282 36 314 62T347 136Q347 170 324 193T267 232T201 264T144 311T120 384Q120 445 166 484T286 523Q387 523 434 453L396 423Q352 475 283 475Q234 475
203 450T171 385Q171 355 194 334T252 297T319 265T376 215T400 137Q400 70 354 29T227 -12Z" />
<glyph unicode="t" glyph-name="t" horiz-adv-x="348" d="M208 -12Q168 -12 148 11T127 72Q127 88 132 116L193 463H109L117 511H201L234 698L291 722L254 511H380L371 463H246L187 125Q182 102 182 84Q182 39 228 39Q265 39 305 64L289 9Q251 -12 208 -12Z" />
<glyph unicode="u" glyph-name="u" horiz-adv-x="536" d="M386 0L398 69Q347 -12 253 -12Q182 -12 146 26T109 138Q109 164 116 208L169 511H222L167 195Q162 163 162 142Q162 36 261 36Q320 36 363 76T422 206L475 511H529L439 0H386Z" />
<glyph unicode="v" glyph-name="v" horiz-adv-x="480" d="M215 0L125 511H178L239 149Q242 132 249 88Q252 94 263 116T280 149L468 511H523L255 0H215Z" />
<glyph unicode="w" glyph-name="w" horiz-adv-x="678" d="M163 0L125 511H176L198 132Q199 120 200 99T202 76Q204 82 208 91T218 113T227 132L401 511H439L483 132Q484 122 486 103T490 77Q491 79 499 99T512 132L664 511H717L506 0H459L410 366L404 413Q402
408 394 390T382 365L210 0H163Z" />
<glyph unicode="x" glyph-name="x" horiz-adv-x="476" d="M36 0L249 266L140 511H197L286 312L446 511H504L306 265L425 0H368L270 220L94 0H36Z" />
<glyph unicode="y" glyph-name="y" horiz-adv-x="489" d="M100 -194L211 15L119 511H173L234 151Q236 136 241 109T246 80Q253 95 283 151L473 511H531L155 -194H100Z" />
<glyph unicode="z" glyph-name="z" horiz-adv-x="478" d="M59 0L65 33L409 463H160L168 511H491L486 480L139 48H409L401 0H59Z" />
<glyph unicode="{" glyph-name="braceleft" horiz-adv-x="369" d="M288 -130Q154 -121 154 24Q154 56 162 101L170 146Q175 173 175 187Q175 225 157 246T108 268H104L112 315H116Q154 315 182 345T219 427L235 516Q251 608 303 660T437 712L428 667Q313 662 288
513L274 433Q261 357 229 326T141 292L140 288Q225 281 225 184Q225 159 219 123L209 70Q204 38 204 19Q204 -82 296 -85L288 -130Z" />
<glyph unicode="|" glyph-name="bar" horiz-adv-x="263" d="M155 -378V1062H208V-378H155Z" />
<glyph unicode="}" glyph-name="braceright" horiz-adv-x="369" d="M29 -130L37 -85Q153 -80 178 69L191 144Q205 223 237 255T325 290L326 294Q241 307 241 396Q241 422 247 458L257 513Q262 545 262 564Q262 664 169 667L178 712Q311 705 311 558Q311 520 302
473L296 439Q290 403 290 389Q290 353 308 334T358 314H362L353 267H349Q311 267 284 238T247 156L232 71Q197 -130 29 -130Z" />
<glyph unicode="~" glyph-name="asciitilde" horiz-adv-x="646" d="M482 277Q437 277 368 316T264 356Q230 356 209 335T182 277H144Q149 332 181 369T274 407Q320 407 389 368T492 329T547 350T575 407H612Q607 352 574 315T482 277Z" />
<glyph unicode="&#xa0;" glyph-name="uni00A0" horiz-adv-x="226" />
<glyph unicode="&#xa1;" glyph-name="exclamdown" horiz-adv-x="263" d="M193 430Q177 430 167 442T156 471Q156 491 172 507T209 523Q225 523 236 512T247 483Q247 462 231 446T193 430ZM63 -200L103 33L170 318H181L157 33L117 -200H63Z" />
<glyph unicode="&#xa2;" glyph-name="cent" horiz-adv-x="500" d="M225 -12L242 85Q184 97 153 148T121 282Q121 417 179 508T334 614L352 712H403L386 615Q436 610 466 582T502 508L450 489Q444 524 421 544T360 564Q274 564 225 486T176 286Q176 214 204 174T286
134Q325 134 357 156T407 220L455 201Q402 88 293 82L276 -12H225Z" />
<glyph unicode="&#xa3;" glyph-name="sterling" horiz-adv-x="591" d="M88 0L98 60Q230 142 233 306H139L147 351H229Q227 362 220 390T210 440T206 484Q206 582 271 647T455 712Q563 712 627 653L599 605Q541 661 446 661Q358 661 311 612T263 491Q263 459 274
410T287 351H449L442 306H290Q284 160 147 49H536L527 0H88Z" />
<glyph unicode="&#xa4;" glyph-name="currency" horiz-adv-x="621" d="M325 94Q233 94 185 145L105 75L73 116L156 187Q135 229 135 289Q135 400 204 482L149 551L194 591L249 523Q317 573 402 573Q491 573 542 522L621 591L654 549L573 479Q593 436 593 379Q593
268 522 183L578 114L533 75L478 143Q412 94 325 94ZM331 146Q420 146 478 209T537 369Q537 437 500 479T397 521Q309 521 250 457T190 298Q190 230 228 188T331 146Z" />
<glyph unicode="&#xa5;" glyph-name="yen" horiz-adv-x="546" d="M353 309H504L497 263H339L323 170H480L472 123H315L293 0H241L263 123H93L101 170H271L287 263H118L125 309H288L147 700H203L326 347L577 700H632L353 309Z" />
<glyph unicode="&#xa6;" glyph-name="brokenbar" horiz-adv-x="263" d="M160 366V825H213V366H160ZM160 -225V234H213V-225H160Z" />
<glyph unicode="&#xa7;" glyph-name="section" horiz-adv-x="525" d="M234 -120Q168 -120 122 -97T54 -40L100 -4Q148 -68 239 -68Q312 -68 355 -39T398 52Q398 74 389 91T359 123T324 145T278 166T236 184Q208 197 192 206T158 230T132 262T124 304Q124 352 154
385T234 432Q167 466 167 546Q167 623 226 667T370 712Q483 712 535 642L489 608Q448 659 363 659Q300 659 262 632T223 556Q223 535 232 519T264 487T308 463T372 435Q432 410 464 382T496 303Q496 208 404 170Q454 135 454 65Q454 -24 394 -72T234 -120ZM360
195Q440 223 440 289Q440 306 432 321T412 346T377 368T338 386T289 405Q240 398 211 373T181 313Q181 301 185 291T199 272T220 256T248 241T280 227T319 211T360 195Z" />
<glyph unicode="&#xa8;" glyph-name="dieresis" horiz-adv-x="327" d="M201 620Q188 620 179 629T170 653Q171 671 184 684T215 697Q229 697 237 688T246 664Q246 646 233 633T201 620ZM364 620Q351 620 342 629T333 653Q333 671 347 684T378 697Q392 697 400
688T409 664Q409 646 396 633T364 620Z" />
<glyph unicode="&#xa9;" glyph-name="copyright" horiz-adv-x="855" d="M633 -12T479 -12T221 92T117 350T221 608T479 712T737 608T841 350T737 92ZM343 32T479 32T704 123T794 350T705 577T479 668T254 577T164 350T253 123ZM485 138Q402 138 357 194T311 355Q311
456 357 514T489 573Q593 573 631 474L583 454Q556 523 484 523Q364 523 364 355Q364 270 393 229T486 187Q572 187 592 266L636 248Q620 195 580 167T485 138Z" />
<glyph unicode="&#xaa;" glyph-name="ordfeminine" horiz-adv-x="447" d="M362 283L370 327Q310 273 241 273Q189 273 155 305T121 390Q121 468 176 510T299 552Q358 552 404 520L409 548Q415 580 415 596Q415 665 335 665Q273 665 206 624L200 670Q266 712 345
712Q398 712 432 687T467 605Q467 585 460 549L413 283H362ZM250 319Q315 319 380 380L396 472Q349 505 296 505Q249 505 213 477T176 395Q176 360 196 340T250 319Z" />
<glyph unicode="&#xab;" glyph-name="guillemotleft" horiz-adv-x="474" d="M190 0L86 256L280 511H338L145 255L249 0H190ZM376 0L272 256L465 511H525L331 255L435 0H376Z" />
<glyph unicode="&#xac;" glyph-name="logicalnot" horiz-adv-x="646" d="M557 176V412H141V463H611V176H557Z" />
<glyph unicode="&#xad;" glyph-name="uni00AD" horiz-adv-x="394" d="M130 272L139 324H358L349 272H130Z" />
<glyph unicode="&#xae;" glyph-name="registered" horiz-adv-x="855" d="M633 -12T479 -12T221 92T117 350T221 608T479 712T737 608T841 350T737 92ZM479 32Q614 32 703 123T793 350T704 577T479 668Q343 668 253 577T163 350T253 123T479 32ZM334 137V560H527Q585
560 614 522T644 438T615 357T536 316L639 137H582L484 314H385V137H334ZM385 360H523Q558 360 575 382T593 437Q593 467 576 489T523 512H385V360Z" />
<glyph unicode="&#xaf;" glyph-name="overscore" horiz-adv-x="327" d="M118 616L127 663H450L442 616H118Z" />
<glyph unicode="&#xb0;" glyph-name="degree" horiz-adv-x="399" d="M272 466Q217 466 182 502T147 593Q147 667 199 717T324 767Q379 767 414 731T449 641Q449 567 397 517T272 466ZM281 517Q327 517 361 551T395 634Q395 670 374 693T316 717Q269 717 235 684T200
601Q200 564 222 541T281 517Z" />
<glyph unicode="&#xb1;" glyph-name="plusminus" horiz-adv-x="646" d="M404 381V205H350V381H143V432H350V608H404V432H613V381H404ZM143 0V52H613V0H143Z" />
<glyph unicode="&#xb2;" glyph-name="uni00B2" horiz-adv-x="361" d="M110 444Q123 514 163 554T282 641Q334 672 356 698T378 764Q378 790 361 810T308 830Q238 830 208 757L168 775Q209 873 310 873Q363 873 395 843T427 765Q427 708 397 673T289 595Q201 548
174 491H378L370 444H110Z" />
<glyph unicode="&#xb3;" glyph-name="uni00B3" horiz-adv-x="359" d="M165 549Q185 477 252 477Q297 477 325 502T354 570Q354 599 337 619T289 639H257L266 682H287Q326 682 349 709T373 772Q373 797 358 814T312 831Q253 831 213 767L174 783Q198 824 236 849T320
874Q366 874 395 848T424 779Q424 743 403 712T346 666Q405 648 405 577Q405 513 360 474T248 434Q143 434 119 532L165 549Z" />
<glyph unicode="&#xb4;" glyph-name="acute" horiz-adv-x="327" d="M258 576H205L376 732H455L258 576Z" />
<glyph unicode="&#xb5;" glyph-name="uni00B5" horiz-adv-x="536" d="M387 0L400 73Q344 -12 253 -12Q170 -12 143 50L103 -177L45 -202L171 511H224L169 196Q163 164 163 137Q163 87 189 62T263 36Q320 36 364 77T423 206L476 511H529L439 0H387Z" />
<glyph unicode="&#xb6;" glyph-name="paragraph" horiz-adv-x="604" d="M254 -187L337 287Q222 287 169 339T116 464Q116 505 129 543T171 616T251 671T370 692H615L476 -97L419 -122L553 639H452L311 -163L254 -187Z" />
<glyph unicode="&#xb7;" glyph-name="middot" horiz-adv-x="210" d="M152 303Q136 303 126 315T115 343Q116 364 132 380T169 396Q186 396 196 384T206 356Q206 336 190 320T152 303Z" />
<glyph unicode="&#xb8;" glyph-name="cedilla" horiz-adv-x="327" d="M145 -234T94 -234T20 -202L56 -180Q72 -196 96 -196Q124 -196 143 -178T162 -134Q162 -112 148 -99T109 -86Q84 -86 72 -92L63 -79L143 10H175L125 -57Q168 -57 189 -78T211 -129Q211 -175 178 -204Z" />
<glyph unicode="&#xb9;" glyph-name="uni00B9" horiz-adv-x="195" d="M142 444L200 773H150L156 806Q210 807 233 866H265L190 444H142Z" />
<glyph unicode="&#xba;" glyph-name="ordmasculine" horiz-adv-x="458" d="M275 272Q209 272 171 317T133 441Q133 564 193 638T348 712Q416 712 453 667T491 543Q491 420 432 346T275 272ZM283 323Q356 323 397 382T438 540Q438 598 413 630T340 662Q270 662
228 604T186 446Q186 388 212 356T283 323Z" />
<glyph unicode="&#xbb;" glyph-name="guillemotright" horiz-adv-x="474" d="M30 0L224 256L120 511H178L283 256L89 0H30ZM216 0L410 256L305 511H365L469 256L275 0H216Z" />
<glyph unicode="&#xbc;" glyph-name="onequarter" horiz-adv-x="672" d="M14 -12L610 712H665L69 -12H14ZM126 283L184 612H134L140 645Q170 646 187 660T216 705H249L175 283H126ZM515 0L535 113H328L332 138L600 423H638L591 158H644L636 113H583L564 0H515ZM543
158L576 347L403 158H543Z" />
<glyph unicode="&#xbd;" glyph-name="onehalf" horiz-adv-x="722" d="M14 -12L610 712H665L69 -12H14ZM126 283L184 612H134L140 645Q170 646 187 660T216 705H249L175 283H126ZM452 330Q471 374 507 401T594 429Q647 429 678 400T710 323Q710 265 680 230T572
151Q485 104 458 47H661L653 0H393Q400 37 414 66T455 120T503 159T565 198Q617 228 639 254T661 320Q661 347 644 366T592 386Q523 386 491 313L452 330Z" />
<glyph unicode="&#xbe;" glyph-name="threequarters" horiz-adv-x="816" d="M222 271Q170 271 137 297T93 369L138 387Q162 314 227 314Q272 314 300 340T329 408Q329 437 312 457T264 477H232L240 520H261Q300 520 324 547T348 610Q348 636 333 652T287 669Q229
669 187 605L148 622Q172 662 211 687T294 712Q342 712 370 687T399 617Q399 580 378 549T321 504Q379 486 379 416Q379 351 334 311T222 271ZM157 -12L753 712H808L212 -12H157ZM659 0L678 113H471L476 138L743 423H782L735 158H788L780 113H727L707 0H659ZM686
158L720 347L546 158H686Z" />
<glyph unicode="&#xbf;" glyph-name="questiondown" horiz-adv-x="514" d="M345 430Q329 430 319 442T308 471Q309 491 325 507T362 523Q379 523 389 512T400 483Q399 462 383 446T345 430ZM222 -200Q141 -200 96 -157T51 -46Q51 -1 67 36T107 96T162 144T219
190T268 244T297 317L301 339H355L351 317Q341 264 312 222T248 154T182 101T128 40T106 -40Q106 -88 138 -119T230 -150Q298 -150 345 -114T414 -10L464 -17Q438 -101 372 -150T222 -200Z" />
<glyph unicode="&#xc0;" glyph-name="Agrave" horiz-adv-x="638" d="M424 735L281 891H360L476 735H424ZM56 0L412 700H453L566 0H513L482 189H209L113 0H56ZM231 235H476L431 526Q421 577 418 613Q413 600 397 566T378 526L231 235Z" />
<glyph unicode="&#xc1;" glyph-name="Aacute" horiz-adv-x="638" d="M448 735H395L566 891H645L448 735ZM56 0L412 700H453L566 0H513L482 189H209L113 0H56ZM231 235H476L431 526Q421 577 418 613Q413 600 397 566T378 526L231 235Z" />
<glyph unicode="&#xc2;" glyph-name="Acircumflex" horiz-adv-x="638" d="M559 735L458 846L318 735H267L438 891H492L608 735H559ZM56 0L412 700H453L566 0H513L482 189H209L113 0H56ZM231 235H476L431 526Q421 577 418 613Q413 600 397 566T378 526L231 235Z" />
<glyph unicode="&#xc3;" glyph-name="Atilde" horiz-adv-x="638" d="M525 761Q489 761 443 794T372 827Q351 827 336 811T313 765H281Q289 817 316 846T385 875Q422 875 468 842T538 809Q582 809 598 871H630Q610 761 525 761ZM56 0L412 700H453L566 0H513L482
189H209L113 0H56ZM231 235H476L431 526Q421 577 418 613Q413 600 397 566T378 526L231 235Z" />
<glyph unicode="&#xc4;" glyph-name="Adieresis" horiz-adv-x="638" d="M365 779Q352 779 343 788T334 812Q335 830 348 843T379 856Q393 856 401 847T410 823Q410 805 397 792T365 779ZM528 779Q515 779 506 788T497 812Q497 830 511 843T542 856Q556 856 564
847T573 823Q573 805 560 792T528 779ZM56 0L412 700H453L566 0H513L482 189H209L113 0H56ZM231 235H476L431 526Q421 577 418 613Q413 600 397 566T378 526L231 235Z" />
<glyph unicode="&#xc5;" glyph-name="Aring" horiz-adv-x="638" d="M463 641L566 0H513L482 189H209L113 0H56L382 643Q356 654 340 678T324 733Q324 786 362 822T454 859Q497 859 524 831T552 762T527 688T463 641ZM450 818Q417 818 393 795T369 736Q369 710
385 693T426 676Q460 676 483 699T507 759Q507 785 491 801T450 818ZM231 235H476L431 526Q421 577 418 613Q413 600 397 566T378 526L231 235Z" />
<glyph unicode="&#xc6;" glyph-name="AE" horiz-adv-x="835" d="M-14 0L507 700H859L851 652H572L525 387H705L696 339H517L466 48H766L758 0H404L437 189H190L51 0H-14ZM224 235H445L515 635Q496 606 476 580L224 235Z" />
<glyph unicode="&#xc7;" glyph-name="Ccedilla" horiz-adv-x="620" d="M291 -234Q243 -234 218 -206L257 -182Q266 -196 294 -196T342 -178T362 -133Q362 -113 347 -100T309 -86Q284 -86 272 -92L263 -79L324 -12Q270 -10 229 14T165 77T130 164T118 265Q118 349
140 428T205 571T313 673T461 712Q540 712 580 682T644 599L593 572Q572 616 542 639T455 663Q366 663 300 602T204 453T173 270Q173 170 215 104T343 38Q455 38 523 136L567 116Q491 -1 359 -11L325 -57Q368 -57 389 -77T411 -127Q411 -172 377 -203T291 -234Z"
/>
<glyph unicode="&#xc8;" glyph-name="Egrave" horiz-adv-x="568" d="M393 735L250 891H329L445 735H393ZM94 0L217 700H587L580 652H262L215 387H428L419 339H207L156 48H495L486 0H94Z" />
<glyph unicode="&#xc9;" glyph-name="Eacute" horiz-adv-x="568" d="M417 735H364L535 891H614L417 735ZM94 0L217 700H587L580 652H262L215 387H428L419 339H207L156 48H495L486 0H94Z" />
<glyph unicode="&#xca;" glyph-name="Ecircumflex" horiz-adv-x="568" d="M528 735L427 846L287 735H236L407 891H461L577 735H528ZM94 0L217 700H587L580 652H262L215 387H428L419 339H207L156 48H495L486 0H94Z" />
<glyph unicode="&#xcb;" glyph-name="Edieresis" horiz-adv-x="568" d="M334 779Q321 779 312 788T303 812Q304 830 317 843T348 856Q362 856 370 847T379 823Q379 805 366 792T334 779ZM497 779Q484 779 475 788T466 812Q466 830 480 843T511 856Q525 856 533
847T542 823Q542 805 529 792T497 779ZM94 0L217 700H587L580 652H262L215 387H428L419 339H207L156 48H495L486 0H94Z" />
<glyph unicode="&#xcc;" glyph-name="Igrave" horiz-adv-x="253" d="M236 735L93 891H172L288 735H236ZM94 0L217 700H270L147 0H94Z" />
<glyph unicode="&#xcd;" glyph-name="Iacute" horiz-adv-x="253" d="M260 735H207L378 891H457L260 735ZM94 0L217 700H270L147 0H94Z" />
<glyph unicode="&#xce;" glyph-name="Icircumflex" horiz-adv-x="253" d="M371 735L270 846L130 735H79L250 891H304L420 735H371ZM94 0L217 700H270L147 0H94Z" />
<glyph unicode="&#xcf;" glyph-name="Idieresis" horiz-adv-x="253" d="M177 779Q164 779 155 788T146 812Q147 830 160 843T191 856Q205 856 213 847T222 823Q222 805 209 792T177 779ZM340 779Q327 779 318 788T309 812Q309 830 323 843T354 856Q368 856 376
847T385 823Q385 805 372 792T340 779ZM94 0L217 700H270L147 0H94Z" />
<glyph unicode="&#xd0;" glyph-name="Eth" horiz-adv-x="649" d="M94 0L151 325H84L92 374H159L217 700H380Q448 700 499 677T579 612T622 522T637 415Q637 356 625 300T583 188T511 92T402 26T255 0H94ZM156 50H266Q345 50 407 81T506 166T562 283T581 415Q581
516 532 583T378 651H261L213 374H374L366 325H204L156 50Z" />
<glyph unicode="&#xd1;" glyph-name="Ntilde" horiz-adv-x="669" d="M540 761Q504 761 458 794T387 827Q366 827 351 811T328 765H296Q304 817 331 846T400 875Q436 875 482 842T553 809Q574 809 590 825T613 871H645Q625 761 540 761ZM93 0L216 700H266L491 168Q495
159 506 131T522 94Q523 99 528 127T535 168L629 700H682L559 0H506L290 511Q286 522 252 602L236 510L147 0H93Z" />
<glyph unicode="&#xd2;" glyph-name="Ograve" horiz-adv-x="694" d="M449 735L306 891H385L501 735H449ZM343 -12Q266 -12 214 29T140 131T118 267Q118 343 139 419T199 562T307 670T459 712Q518 712 562 689T631 626T669 539T681 436Q681 375 669 314T630 193T565
89T469 16T343 -12ZM345 38Q416 38 472 75T560 173T610 300T627 436Q627 533 586 598T456 663Q385 663 329 626T239 528T189 401T172 265Q172 166 214 102T345 38Z" />
<glyph unicode="&#xd3;" glyph-name="Oacute" horiz-adv-x="694" d="M473 735H420L591 891H670L473 735ZM343 -12Q266 -12 214 29T140 131T118 267Q118 343 139 419T199 562T307 670T459 712Q518 712 562 689T631 626T669 539T681 436Q681 375 669 314T630 193T565
89T469 16T343 -12ZM345 38Q416 38 472 75T560 173T610 300T627 436Q627 533 586 598T456 663Q385 663 329 626T239 528T189 401T172 265Q172 166 214 102T345 38Z" />
<glyph unicode="&#xd4;" glyph-name="Ocircumflex" horiz-adv-x="694" d="M584 735L483 846L343 735H292L463 891H517L633 735H584ZM343 -12Q266 -12 214 29T140 131T118 267Q118 343 139 419T199 562T307 670T459 712Q518 712 562 689T631 626T669 539T681 436Q681
375 669 314T630 193T565 89T469 16T343 -12ZM345 38Q416 38 472 75T560 173T610 300T627 436Q627 533 586 598T456 663Q385 663 329 626T239 528T189 401T172 265Q172 166 214 102T345 38Z" />
<glyph unicode="&#xd5;" glyph-name="Otilde" horiz-adv-x="694" d="M550 761Q514 761 468 794T397 827Q376 827 361 811T338 765H306Q314 817 341 846T410 875Q446 875 492 842T563 809Q584 809 600 825T623 871H655Q635 761 550 761ZM343 -12Q266 -12 214 29T140
131T118 267Q118 343 139 419T199 562T307 670T459 712Q518 712 562 689T631 626T669 539T681 436Q681 375 669 314T630 193T565 89T469 16T343 -12ZM345 38Q416 38 472 75T560 173T610 300T627 436Q627 533 586 598T456 663Q385 663 329 626T239 528T189 401T172
265Q172 166 214 102T345 38Z" />
<glyph unicode="&#xd6;" glyph-name="Odieresis" horiz-adv-x="694" d="M390 779Q377 779 368 788T359 812Q360 830 373 843T404 856Q418 856 426 847T435 823Q435 805 422 792T390 779ZM553 779Q540 779 531 788T522 812Q522 830 536 843T567 856Q581 856 589
847T598 823Q598 805 585 792T553 779ZM343 -12Q266 -12 214 29T140 131T118 267Q118 343 139 419T199 562T307 670T459 712Q518 712 562 689T631 626T669 539T681 436Q681 375 669 314T630 193T565 89T469 16T343 -12ZM345 38Q416 38 472 75T560 173T610 300T627
436Q627 533 586 598T456 663Q385 663 329 626T239 528T189 401T172 265Q172 166 214 102T345 38Z" />
<glyph unicode="&#xd7;" glyph-name="multiply" horiz-adv-x="646" d="M379 305L199 124L160 161L342 343L161 523L198 559L378 379L558 559L595 522L414 342L595 160L559 125L379 305Z" />
<glyph unicode="&#xd8;" glyph-name="Oslash" horiz-adv-x="694" d="M72 -12L156 89Q118 157 118 267Q118 327 130 387T169 507T235 611T333 684T462 712Q563 712 618 647L673 712H729L645 611Q681 543 681 435Q681 358 661 283T602 140T495 30T339 -12Q240 -12
182 53L128 -12H72ZM194 136L583 604Q537 663 454 663Q383 663 327 626T239 529T189 402T172 267Q172 187 194 136ZM347 38Q418 38 474 75T562 172T610 299T627 433Q627 512 605 563L217 96Q260 38 347 38Z" />
<glyph unicode="&#xd9;" glyph-name="Ugrave" horiz-adv-x="646" d="M428 735L285 891H364L480 735H428ZM322 -12Q234 -12 181 37T127 184Q127 219 135 265L211 700H265L189 265Q182 226 182 189Q182 37 323 37Q493 37 532 256L609 700H663L585 255Q561 115 496
52T322 -12Z" />
<glyph unicode="&#xda;" glyph-name="Uacute" horiz-adv-x="646" d="M452 735H399L570 891H649L452 735ZM322 -12Q234 -12 181 37T127 184Q127 219 135 265L211 700H265L189 265Q182 226 182 189Q182 37 323 37Q493 37 532 256L609 700H663L585 255Q561 115 496
52T322 -12Z" />
<glyph unicode="&#xdb;" glyph-name="Ucircumflex" horiz-adv-x="646" d="M563 735L462 846L322 735H271L442 891H496L612 735H563ZM322 -12Q234 -12 181 37T127 184Q127 219 135 265L211 700H265L189 265Q182 226 182 189Q182 37 323 37Q493 37 532 256L609 700H663L585
255Q561 115 496 52T322 -12Z" />
<glyph unicode="&#xdc;" glyph-name="Udieresis" horiz-adv-x="646" d="M369 779Q356 779 347 788T338 812Q339 830 352 843T383 856Q397 856 405 847T414 823Q414 805 401 792T369 779ZM532 779Q519 779 510 788T501 812Q501 830 515 843T546 856Q560 856 568
847T577 823Q577 805 564 792T532 779ZM322 -12Q234 -12 181 37T127 184Q127 219 135 265L211 700H265L189 265Q182 226 182 189Q182 37 323 37Q493 37 532 256L609 700H663L585 255Q561 115 496 52T322 -12Z" />
<glyph unicode="&#xdd;" glyph-name="Yacute" horiz-adv-x="587" d="M423 735H370L541 891H620L423 735ZM258 0L307 279L161 700H215L340 328L597 700H654L358 275L310 0H258Z" />
<glyph unicode="&#xde;" glyph-name="Thorn" horiz-adv-x="589" d="M94 0L217 700H269L246 561H425Q521 561 565 513T610 392Q610 349 595 308T551 231T470 172T353 150H173L147 0H94ZM364 200Q414 200 452 217T512 262T545 321T556 384Q556 437 524 474T420 512H237L182
200H364Z" />
<glyph unicode="&#xdf;" glyph-name="germandbls" horiz-adv-x="544" d="M41 -199L161 482Q182 600 246 656T388 712Q459 712 501 672T544 564Q544 503 511 451T410 382Q465 368 493 328T521 234Q521 127 452 58T287 -12Q242 -12 219 1L250 43Q270 38 293 38Q359
38 412 88T466 230Q466 284 432 320T322 356H318L326 404H330Q403 404 446 442T489 559Q489 608 462 635T382 663Q321 663 276 619T214 484L99 -172L41 -199Z" />
<glyph unicode="&#xe0;" glyph-name="agrave" horiz-adv-x="505" d="M339 575L196 731H275L391 575H339ZM370 0L380 59Q307 -12 220 -12Q155 -12 118 27T80 133Q80 223 140 273T284 324Q360 324 419 279L429 334Q435 368 435 387Q435 476 345 476Q272 476 183
423L175 469Q272 523 348 523Q407 523 446 492T486 392Q486 376 480 339L421 0H370ZM227 35Q312 35 392 123L410 229Q350 276 283 276Q220 276 177 239T133 136Q133 91 158 63T227 35Z" />
<glyph unicode="&#xe1;" glyph-name="aacute" horiz-adv-x="505" d="M363 575H310L481 731H560L363 575ZM370 0L380 59Q307 -12 220 -12Q155 -12 118 27T80 133Q80 223 140 273T284 324Q360 324 419 279L429 334Q435 368 435 387Q435 476 345 476Q272 476 183
423L175 469Q272 523 348 523Q407 523 446 492T486 392Q486 376 480 339L421 0H370ZM227 35Q312 35 392 123L410 229Q350 276 283 276Q220 276 177 239T133 136Q133 91 158 63T227 35Z" />
<glyph unicode="&#xe2;" glyph-name="acircumflex" horiz-adv-x="505" d="M474 575L373 686L233 575H182L353 731H407L523 575H474ZM370 0L380 59Q307 -12 220 -12Q155 -12 118 27T80 133Q80 223 140 273T284 324Q360 324 419 279L429 334Q435 368 435 387Q435
476 345 476Q272 476 183 423L175 469Q272 523 348 523Q407 523 446 492T486 392Q486 376 480 339L421 0H370ZM227 35Q312 35 392 123L410 229Q350 276 283 276Q220 276 177 239T133 136Q133 91 158 63T227 35Z" />
<glyph unicode="&#xe3;" glyph-name="atilde" horiz-adv-x="505" d="M440 601Q404 601 358 634T287 667Q266 667 251 651T228 605H196Q204 657 231 686T300 715Q336 715 382 682T453 649Q474 649 490 665T513 711H545Q525 601 440 601ZM370 0L380 59Q307 -12 220
-12Q155 -12 118 27T80 133Q80 223 140 273T284 324Q360 324 419 279L429 334Q435 368 435 387Q435 476 345 476Q272 476 183 423L175 469Q272 523 348 523Q407 523 446 492T486 392Q486 376 480 339L421 0H370ZM227 35Q312 35 392 123L410 229Q350 276 283 276Q220
276 177 239T133 136Q133 91 158 63T227 35Z" />
<glyph unicode="&#xe4;" glyph-name="adieresis" horiz-adv-x="505" d="M280 619Q267 619 258 628T249 652Q250 670 263 683T294 696Q308 696 316 687T325 663Q325 645 312 632T280 619ZM443 619Q430 619 421 628T412 652Q412 670 426 683T457 696Q471 696 479
687T488 663Q488 645 475 632T443 619ZM370 0L380 59Q307 -12 220 -12Q155 -12 118 27T80 133Q80 223 140 273T284 324Q360 324 419 279L429 334Q435 368 435 387Q435 476 345 476Q272 476 183 423L175 469Q272 523 348 523Q407 523 446 492T486 392Q486 376 480
339L421 0H370ZM227 35Q312 35 392 123L410 229Q350 276 283 276Q220 276 177 239T133 136Q133 91 158 63T227 35Z" />
<glyph unicode="&#xe5;" glyph-name="aring" horiz-adv-x="505" d="M353 574Q311 574 283 603T255 673Q255 726 294 762T386 799Q428 799 456 771T484 702Q484 649 445 612T353 574ZM358 616Q392 616 415 640T439 699Q439 725 423 741T381 758Q348 758 325 735T301
676Q301 649 317 633T358 616ZM370 0L380 59Q307 -12 220 -12Q155 -12 118 27T80 133Q80 223 140 273T284 324Q360 324 419 279L429 334Q435 368 435 387Q435 476 345 476Q272 476 183 423L175 469Q272 523 348 523Q407 523 446 492T486 392Q486 376 480 339L421
0H370ZM227 35Q312 35 392 123L410 229Q350 276 283 276Q220 276 177 239T133 136Q133 91 158 63T227 35Z" />
<glyph unicode="&#xe6;" glyph-name="ae" horiz-adv-x="827" d="M222 -12Q155 -12 118 27T80 133Q80 224 140 274T286 324Q360 324 419 279L430 340Q435 368 435 386Q435 476 345 476Q272 476 183 423L175 469Q272 523 348 523Q400 523 436 499T480 423Q549 523
662 523Q739 523 782 478T825 343Q825 310 809 236H469Q467 210 467 200Q467 39 590 39Q651 39 710 81L735 42Q663 -12 582 -12Q523 -12 483 20T426 110Q337 -12 222 -12ZM476 284H765Q772 318 772 349Q772 414 741 444T662 475Q591 475 543 423T476 284ZM229 35Q326
35 415 153L412 191Q412 221 413 227Q352 276 283 276Q222 276 178 240T133 136Q133 91 158 63T229 35Z" />
<glyph unicode="&#xe7;" glyph-name="ccedilla" horiz-adv-x="458" d="M200 -234Q152 -234 127 -206L166 -182Q177 -196 203 -196Q232 -196 252 -178T272 -133Q272 -113 257 -100T218 -86Q194 -86 181 -92L172 -79L233 -12Q165 -7 127 45T89 187Q89 335 157 429T333
523Q389 523 425 493T468 416L419 397Q404 474 325 474Q238 474 191 393T143 189Q143 118 170 78T251 38Q335 38 378 124L423 105Q372 3 269 -11L234 -57Q277 -57 298 -77T319 -127Q319 -172 285 -203T200 -234Z" />
<glyph unicode="&#xe8;" glyph-name="egrave" horiz-adv-x="505" d="M335 575L192 731H271L387 575H335ZM259 -12Q179 -12 134 45T89 197Q89 340 160 431T339 523Q413 523 457 479T502 342Q502 305 486 236H146Q144 214 144 202Q144 39 267 39Q326 39 387 81L412
42Q341 -12 259 -12ZM153 284H442Q449 316 449 345Q449 415 417 445T339 475Q263 475 217 421T153 284Z" />
<glyph unicode="&#xe9;" glyph-name="eacute" horiz-adv-x="505" d="M359 575H306L477 731H556L359 575ZM259 -12Q179 -12 134 45T89 197Q89 340 160 431T339 523Q413 523 457 479T502 342Q502 305 486 236H146Q144 214 144 202Q144 39 267 39Q326 39 387 81L412
42Q341 -12 259 -12ZM153 284H442Q449 316 449 345Q449 415 417 445T339 475Q263 475 217 421T153 284Z" />
<glyph unicode="&#xea;" glyph-name="ecircumflex" horiz-adv-x="505" d="M470 575L369 686L229 575H178L349 731H403L519 575H470ZM259 -12Q179 -12 134 45T89 197Q89 340 160 431T339 523Q413 523 457 479T502 342Q502 305 486 236H146Q144 214 144 202Q144
39 267 39Q326 39 387 81L412 42Q341 -12 259 -12ZM153 284H442Q449 316 449 345Q449 415 417 445T339 475Q263 475 217 421T153 284Z" />
<glyph unicode="&#xeb;" glyph-name="edieresis" horiz-adv-x="505" d="M276 619Q263 619 254 628T245 652Q246 670 259 683T290 696Q304 696 312 687T321 663Q321 645 308 632T276 619ZM439 619Q426 619 417 628T408 652Q408 670 422 683T453 696Q467 696 475
687T484 663Q484 645 471 632T439 619ZM259 -12Q179 -12 134 45T89 197Q89 340 160 431T339 523Q413 523 457 479T502 342Q502 305 486 236H146Q144 214 144 202Q144 39 267 39Q326 39 387 81L412 42Q341 -12 259 -12ZM153 284H442Q449 316 449 345Q449 415 417
445T339 475Q263 475 217 421T153 284Z" />
<glyph unicode="&#xec;" glyph-name="igrave" horiz-adv-x="235" d="M199 575L56 731H135L251 575H199ZM86 0L176 511H227L137 0H86Z" />
<glyph unicode="&#xed;" glyph-name="iacute" horiz-adv-x="235" d="M223 575H170L341 731H420L223 575ZM86 0L176 511H227L137 0H86Z" />
<glyph unicode="&#xee;" glyph-name="icircumflex" horiz-adv-x="235" d="M334 575L233 686L93 575H42L213 731H267L383 575H334ZM86 0L176 511H227L137 0H86Z" />
<glyph unicode="&#xef;" glyph-name="idieresis" horiz-adv-x="235" d="M140 619Q127 619 118 628T109 652Q110 670 123 683T154 696Q168 696 176 687T185 663Q185 645 172 632T140 619ZM303 619Q290 619 281 628T272 652Q272 670 286 683T317 696Q331 696 339
687T348 663Q348 645 335 632T303 619ZM86 0L176 511H227L137 0H86Z" />
<glyph unicode="&#xf0;" glyph-name="eth" horiz-adv-x="524" d="M260 -12Q181 -12 136 43T90 185Q90 303 161 379T333 456Q442 456 470 357Q470 529 385 606L305 532L283 560L356 628Q306 661 235 670L243 712Q329 701 391 661L461 727L484 699L420 639Q516 547
516 360Q516 185 447 87T260 -12ZM269 38Q343 38 395 100T447 252Q447 321 415 364T325 407Q252 407 199 344T145 188Q145 119 177 79T269 38Z" />
<glyph unicode="&#xf1;" glyph-name="ntilde" horiz-adv-x="536" d="M452 601Q416 601 370 634T299 667Q278 667 263 651T240 605H208Q216 657 243 686T312 715Q348 715 394 682T465 649Q486 649 502 665T525 711H557Q537 601 452 601ZM85 0L175 511H227L214 437Q270
523 366 523Q431 523 467 485T503 374Q503 335 496 294L444 0H391L444 307Q450 337 450 371Q450 423 425 449T355 475Q294 475 250 432T191 304L138 0H85Z" />
<glyph unicode="&#xf2;" glyph-name="ograve" horiz-adv-x="524" d="M341 575L198 731H277L393 575H341ZM261 -12Q178 -12 134 44T90 195Q90 332 158 427T342 523Q426 523 470 466T514 318Q514 180 447 84T261 -12ZM264 38Q356 38 408 119T460 315Q460 386 430
430T341 474Q248 474 197 392T145 194Q145 123 175 81T264 38Z" />
<glyph unicode="&#xf3;" glyph-name="oacute" horiz-adv-x="524" d="M365 575H312L483 731H562L365 575ZM261 -12Q178 -12 134 44T90 195Q90 332 158 427T342 523Q426 523 470 466T514 318Q514 180 447 84T261 -12ZM264 38Q356 38 408 119T460 315Q460 386 430
430T341 474Q248 474 197 392T145 194Q145 123 175 81T264 38Z" />
<glyph unicode="&#xf4;" glyph-name="ocircumflex" horiz-adv-x="524" d="M476 575L375 686L235 575H184L355 731H409L525 575H476ZM261 -12Q178 -12 134 44T90 195Q90 332 158 427T342 523Q426 523 470 466T514 318Q514 180 447 84T261 -12ZM264 38Q356 38 408
119T460 315Q460 386 430 430T341 474Q248 474 197 392T145 194Q145 123 175 81T264 38Z" />
<glyph unicode="&#xf5;" glyph-name="otilde" horiz-adv-x="524" d="M442 601Q406 601 360 634T289 667Q268 667 253 651T230 605H198Q206 657 233 686T302 715Q338 715 384 682T455 649Q476 649 492 665T515 711H547Q527 601 442 601ZM261 -12Q178 -12 134 44T90
195Q90 332 158 427T342 523Q426 523 470 466T514 318Q514 180 447 84T261 -12ZM264 38Q356 38 408 119T460 315Q460 386 430 430T341 474Q248 474 197 392T145 194Q145 123 175 81T264 38Z" />
<glyph unicode="&#xf6;" glyph-name="odieresis" horiz-adv-x="524" d="M282 619Q269 619 260 628T251 652Q252 670 265 683T296 696Q310 696 318 687T327 663Q327 645 314 632T282 619ZM445 619Q432 619 423 628T414 652Q414 670 428 683T459 696Q473 696 481
687T490 663Q490 645 477 632T445 619ZM261 -12Q178 -12 134 44T90 195Q90 332 158 427T342 523Q426 523 470 466T514 318Q514 180 447 84T261 -12ZM264 38Q356 38 408 119T460 315Q460 386 430 430T341 474Q248 474 197 392T145 194Q145 123 175 81T264 38Z" />
<glyph unicode="&#xf7;" glyph-name="divide" horiz-adv-x="646" d="M373 511Q357 511 346 522T335 549T346 577T373 589Q390 589 401 577T413 549T402 522T373 511ZM141 317V368H611V317H141ZM373 97Q357 97 346 107T335 134Q335 151 346 162T373 174Q390 174
401 163T413 134Q413 118 402 108T373 97Z" />
<glyph unicode="&#xf8;" glyph-name="oslash" horiz-adv-x="524" d="M46 -12L117 70Q90 121 90 195Q90 332 158 427T342 523Q418 523 462 474L505 523H558L487 440Q514 389 514 318Q514 180 447 84T261 -12Q184 -12 141 37L99 -12H46ZM156 117L427 432Q396 474
341 474Q248 474 197 392T145 194Q145 147 156 117ZM264 38Q356 38 408 119T460 315Q460 361 447 394L177 78Q206 38 264 38Z" />
<glyph unicode="&#xf9;" glyph-name="ugrave" horiz-adv-x="536" d="M342 575L199 731H278L394 575H342ZM386 0L398 69Q347 -12 253 -12Q182 -12 146 26T109 138Q109 164 116 208L169 511H222L167 195Q162 163 162 142Q162 36 261 36Q320 36 363 76T422 206L475
511H529L439 0H386Z" />
<glyph unicode="&#xfa;" glyph-name="uacute" horiz-adv-x="536" d="M366 575H313L484 731H563L366 575ZM386 0L398 69Q347 -12 253 -12Q182 -12 146 26T109 138Q109 164 116 208L169 511H222L167 195Q162 163 162 142Q162 36 261 36Q320 36 363 76T422 206L475
511H529L439 0H386Z" />
<glyph unicode="&#xfb;" glyph-name="ucircumflex" horiz-adv-x="536" d="M477 575L376 686L236 575H185L356 731H410L526 575H477ZM386 0L398 69Q347 -12 253 -12Q182 -12 146 26T109 138Q109 164 116 208L169 511H222L167 195Q162 163 162 142Q162 36 261 36Q320
36 363 76T422 206L475 511H529L439 0H386Z" />
<glyph unicode="&#xfc;" glyph-name="udieresis" horiz-adv-x="536" d="M283 619Q270 619 261 628T252 652Q253 670 266 683T297 696Q311 696 319 687T328 663Q328 645 315 632T283 619ZM446 619Q433 619 424 628T415 652Q415 670 429 683T460 696Q474 696 482
687T491 663Q491 645 478 632T446 619ZM386 0L398 69Q347 -12 253 -12Q182 -12 146 26T109 138Q109 164 116 208L169 511H222L167 195Q162 163 162 142Q162 36 261 36Q320 36 363 76T422 206L475 511H529L439 0H386Z" />
<glyph unicode="&#xfd;" glyph-name="yacute" horiz-adv-x="489" d="M343 575H290L461 731H540L343 575ZM100 -194L211 15L119 511H173L234 151Q236 136 241 109T246 80Q253 95 283 151L473 511H531L155 -194H100Z" />
<glyph unicode="&#xfe;" glyph-name="thorn" horiz-adv-x="542" d="M279 -12Q186 -12 150 69L107 -177L50 -203L207 691L264 717L217 451Q286 523 370 523Q444 523 486 468T529 320Q529 169 459 79T279 -12ZM280 38Q370 38 422 113T474 312Q474 386 444 430T356
474Q314 474 274 450T205 385L161 131Q199 38 280 38Z" />
<glyph unicode="&#xff;" glyph-name="ydieresis" horiz-adv-x="489" d="M260 619Q247 619 238 628T229 652Q230 670 243 683T274 696Q288 696 296 687T305 663Q305 645 292 632T260 619ZM423 619Q410 619 401 628T392 652Q392 670 406 683T437 696Q451 696 459
687T468 663Q468 645 455 632T423 619ZM100 -194L211 15L119 511H173L234 151Q236 136 241 109T246 80Q253 95 283 151L473 511H531L155 -194H100Z" />
<glyph unicode="&#x2013;" glyph-name="endash" horiz-adv-x="513" d="M108 263L116 311H496L488 263H108Z" />
<glyph unicode="&#x2014;" glyph-name="emdash" horiz-adv-x="592" d="M50 263L59 311H632L624 263H50Z" />
<glyph unicode="&#x2018;" glyph-name="quoteleft" horiz-adv-x="210" d="M182 494Q164 494 152 507T140 544Q140 591 169 638T239 712L252 708Q232 688 213 655T191 588Q211 588 223 577T235 548Q235 525 220 510T182 494Z" />
<glyph unicode="&#x2019;" glyph-name="quoteright" horiz-adv-x="210" d="M161 494L148 498Q168 518 187 551T209 618Q190 618 178 629T166 658Q166 682 181 697T218 712Q236 712 248 699T260 662Q260 615 231 568T161 494Z" />
<glyph unicode="&#x201a;" glyph-name="quotesinglbase" horiz-adv-x="210" d="M61 -141L48 -137Q68 -118 87 -84T110 -17Q90 -17 78 -6T66 23Q66 47 81 62T118 78Q136 78 148 65T160 28Q160 -20 131 -67T61 -141Z" />
<glyph unicode="&#x201c;" glyph-name="quotedblleft" horiz-adv-x="392" d="M182 494Q164 494 152 507T140 544Q140 591 169 638T239 712L252 708Q232 688 213 655T191 588Q211 588 223 577T235 548Q235 525 220 510T182 494ZM364 494Q346 494 334 507T322 544Q322
591 351 638T421 712L435 708Q415 689 396 655T373 588Q393 588 405 577T417 548Q417 525 402 510T364 494Z" />
<glyph unicode="&#x201d;" glyph-name="quotedblright" horiz-adv-x="392" d="M161 494L148 498Q168 518 187 551T209 618Q190 618 178 629T166 658Q166 682 181 697T218 712Q236 712 248 699T260 662Q260 615 231 568T161 494ZM343 494L330 498Q350 518 369 551T391
618Q372 618 360 629T348 658Q348 682 363 697T400 712Q418 712 430 699T442 662Q442 615 413 568T343 494Z" />
<glyph unicode="&#x201e;" glyph-name="quotedblbase" horiz-adv-x="392" d="M60 -141L47 -137Q67 -118 86 -85T109 -17Q89 -17 77 -6T65 23Q65 47 80 62T117 78Q135 78 147 65T159 28Q159 -20 130 -67T60 -141ZM242 -141L229 -137Q249 -118 268 -85T291 -17Q271
-17 259 -6T247 23Q247 47 262 62T299 78Q317 78 329 65T341 28Q341 -20 312 -67T242 -141Z" />
<glyph unicode="&#x2022;" glyph-name="bullet" horiz-adv-x="407" d="M237 244Q197 244 173 270T148 334Q148 385 186 422T275 459Q315 459 341 432T367 367Q367 317 328 281T237 244Z" />
<glyph unicode="&#x2039;" glyph-name="guilsinglleft" horiz-adv-x="288" d="M190 0L86 256L280 511H338L145 256L249 0H190Z" />
<glyph unicode="&#x203a;" glyph-name="guilsinglright" horiz-adv-x="288" d="M30 0L224 256L120 511H178L283 256L89 0H30Z" />
</font>
</defs>
</svg>
