<?xml version="1.0" standalone="no"?>
<!DOCTYPE svg PUBLIC "-//W3C//DTD SVG 1.1//EN" "http://www.w3.org/Graphics/SVG/1.1/DTD/svg11.dtd">
<svg xmlns="http://www.w3.org/2000/svg">
<defs >
<font id="Rokkitt" horiz-adv-x="555" ><font-face
    font-family="Rokkitt"
    units-per-em="1000"
    panose-1="0 0 8 0 0 0 0 0 0 0"
    ascent="817"
    descent="-320"
    alphabetic="0" />
<glyph unicode=" " glyph-name="space" horiz-adv-x="312" />
<glyph unicode="!" glyph-name="exclam" horiz-adv-x="203" d="M60 165L39 417V595H150V417L128 165H60ZM67 -8T49 9T30 53Q30 80 48 97T96 115Q126 115 144 98T163 53Q163 27 145 10T96 -8Q67 -8 49 9Z" />
<glyph unicode="&quot;" glyph-name="quotedbl" horiz-adv-x="351" d="M67 425L47 644H155L138 425H67ZM215 425L195 644H303L286 425H215Z" />
<glyph unicode="#" glyph-name="numbersign" horiz-adv-x="605" d="M101 -2L128 155H34L43 223H143L167 361H66L75 430H182L208 574H294L268 430H392L417 574H504L477 430H578L569 361H463L439 223H545L536 155H424L396 -2H310L338 155H214L186 -2H101ZM229 223H352L376
361H253L229 223Z" />
<glyph unicode="$" glyph-name="dollar" horiz-adv-x="578" d="M425 329T471 288T517 166Q517 87 465 39T324 -10H313V-87H258V-2Q185 18 149 64V0H53V194H139Q152 150 183 119T258 78V234L231 239Q141 257 95 300T49 417Q49 493 100 538T236 583Q251 583 258
582V661H313V572Q365 557 399 520V572H489V407H406Q382 477 313 495V350L325 348Q425 329 471 288ZM183 408T201 391T258 362V501Q222 500 203 483T183 436Q183 408 201 391ZM349 74T369 92T390 143Q390 177 373 194T313 222V72Q349 74 369 92Z" />
<glyph unicode="%" glyph-name="percent" horiz-adv-x="800" d="M132 291T91 332T49 438Q49 502 90 542T197 583Q263 583 305 543T347 438Q347 373 305 332T197 291Q132 291 91 332ZM180 -1L557 575H620L246 -1H180ZM228 353T247 376T266 438Q266 476 248 499T199
523Q168 523 149 500T129 438Q129 400 148 376T197 352Q228 353 247 376ZM537 -11T496 30T454 137Q454 201 495 241T602 281Q668 281 709 241T751 137Q751 72 710 31T602 -11Q537 -11 496 30ZM634 51T652 74T671 137Q671 175 653 198T604 221Q573 221 554 199T534
137Q534 98 553 74T602 50Q634 51 652 74Z" />
<glyph unicode="&amp;" glyph-name="ampersand" horiz-adv-x="709" d="M201 -10T153 14T80 79T55 169Q55 225 93 264T201 333Q175 365 162 393T149 457Q149 510 194 545T316 581Q363 581 398 565T451 521T470 462Q470 416 442 381T351 316L457 196Q487 237 508
328H652V252L583 251Q560 181 518 127L563 78H652V0H487L444 55Q373 -10 266 -10Q201 -10 153 14ZM337 394T353 414T370 461Q370 486 355 499T315 513Q288 513 274 500T259 464Q259 444 269 425T300 378Q337 394 353 414ZM314 75T339 85T385 120L253 273Q177 240
177 173Q177 150 189 128T226 90T282 75Q314 75 339 85Z" />
<glyph unicode="&apos;" glyph-name="quotesingle" horiz-adv-x="203" d="M67 425L47 644H155L138 425H67Z" />
<glyph unicode="(" glyph-name="parenleft" horiz-adv-x="329" d="M179 -47T116 45T53 253Q53 369 116 461T290 592L293 527Q235 490 206 419T176 254Q176 161 205 89T293 -20L290 -85Q179 -47 116 45Z" />
<glyph unicode=")" glyph-name="parenright" horiz-adv-x="329" d="M48 -20Q106 17 135 89T165 254Q165 347 136 418T48 527L51 592Q162 554 225 462T289 253Q289 137 226 45T51 -85L48 -20Z" />
<glyph unicode="*" glyph-name="asterisk" horiz-adv-x="451" d="M156 202L70 263L196 379L32 399L58 491L213 412L175 581H281L242 412L398 491L424 399L261 379L385 263L299 202L228 362L156 202Z" />
<glyph unicode="+" glyph-name="plus" horiz-adv-x="585" d="M253 60V246H75V318H253V503H332V318H510V246H332V60H253Z" />
<glyph unicode="," glyph-name="comma" horiz-adv-x="263" d="M61 -81Q91 -78 104 -60T118 0H62V114H183V21Q183 -54 155 -90T61 -126V-81Z" />
<glyph unicode="-" glyph-name="hyphen" horiz-adv-x="370" d="M52 197V275H318V197H52Z" />
<glyph unicode="." glyph-name="period" horiz-adv-x="259" d="M60 0V113H179V0H60Z" />
<glyph unicode="/" glyph-name="slash" horiz-adv-x="370" d="M10 -140L295 602H396L111 -140H10Z" />
<glyph unicode="0" glyph-name="zero" horiz-adv-x="562" d="M167 -11T106 67T45 288Q45 427 106 504T281 582Q394 582 455 505T516 288Q516 145 456 67T281 -11Q167 -11 106 67ZM391 81T391 288Q391 491 281 491Q171 491 171 288Q171 81 281 81Q391 81 391 288Z" />
<glyph unicode="1" glyph-name="one" horiz-adv-x="375" d="M39 0V80H133V483L41 470L37 544L263 572V80H354V0H39Z" />
<glyph unicode="2" glyph-name="two" horiz-adv-x="505" d="M454 178V0H42L43 77L214 242Q278 304 302 339T327 414Q327 450 307 472T246 495Q204 495 180 469T155 398Q155 377 162 340H55Q45 375 45 406Q45 484 100 533T256 582Q346 582 397 540T449 428Q449
370 413 319T286 184L181 83H369V178H454Z" />
<glyph unicode="3" glyph-name="three" horiz-adv-x="524" d="M416 285T447 248T479 156Q479 79 420 35T261 -10Q173 -10 116 26T30 131L128 174Q146 129 179 105T256 81Q300 81 326 103T353 163Q353 210 319 233T215 257V331Q278 331 312 353T346 419Q346 453
324 473T259 493Q216 493 187 469T147 401L45 438Q65 508 124 545T268 582Q361 582 413 541T466 431Q466 383 438 349T363 299Q416 285 447 248Z" />
<glyph unicode="4" glyph-name="four" horiz-adv-x="525" d="M191 0V79H288V165H29L19 226L291 572H406V236H491V165H406V79H475V0H191ZM118 236H288V457L118 236Z" />
<glyph unicode="5" glyph-name="five" horiz-adv-x="538" d="M390 373T439 323T489 187Q489 125 461 81T382 13T267 -11Q144 -11 47 76L100 154Q137 120 174 102T257 84Q311 84 341 111T371 186Q371 230 344 256T269 283Q208 283 160 237L74 269L81 572H460V424H373V491H171L167
336Q223 373 301 373Q390 373 439 323Z" />
<glyph unicode="6" glyph-name="six" horiz-adv-x="513" d="M340 379T383 356T451 289T476 189Q476 130 449 85T372 15T258 -10Q160 -10 101 43T42 187Q42 247 62 297T139 431L270 624L359 565L225 369Q253 379 283 379Q340 379 383 356ZM306 78T332 108T358 190Q358
240 333 269T263 298Q219 298 191 269T162 188Q162 139 187 109T260 78Q306 78 332 108Z" />
<glyph unicode="7" glyph-name="seven" horiz-adv-x="483" d="M128 0L316 492H115V402H20V572H443V497L254 0H128Z" />
<glyph unicode="8" glyph-name="eight" horiz-adv-x="519" d="M156 -11T97 34T38 152Q38 202 65 238T143 294Q56 337 56 424Q56 496 112 539T263 582Q353 582 408 542T463 432Q463 385 440 351T371 296Q481 259 481 158Q481 108 454 70T376 11T258 -11Q156 -11
97 34ZM317 339T333 365T349 428Q349 466 328 488T266 510Q226 510 205 487T183 424Q183 383 211 360T295 324Q317 339 333 365ZM302 58T327 84T353 154Q353 199 322 223T221 263Q195 253 176 224T157 155Q157 111 184 85T257 58Q302 58 327 84Z" />
<glyph unicode="9" glyph-name="nine" horiz-adv-x="513" d="M353 583T412 529T471 385Q471 326 450 276T373 142L243 -51L154 8L288 204Q258 194 229 194Q143 194 90 246T37 383Q37 443 64 488T141 558T255 583Q353 583 412 529ZM293 275T321 304T350 384Q350
433 325 463T252 494Q206 494 181 464T155 383Q155 333 180 304T250 275Q293 275 321 304Z" />
<glyph unicode=":" glyph-name="colon" horiz-adv-x="259" d="M60 0V113H179V0H60ZM60 284V397H179V284H60Z" />
<glyph unicode=";" glyph-name="semicolon" horiz-adv-x="263" d="M61 -81Q91 -78 104 -60T118 0H62V114H183V21Q183 -54 155 -90T61 -126V-81ZM60 284V397H179V284H60Z" />
<glyph unicode="&lt;" glyph-name="less" horiz-adv-x="527" d="M472 59L75 249V317L472 507V424L163 283L472 142V59Z" />
<glyph unicode="=" glyph-name="equal" horiz-adv-x="574" d="M75 340V411H499V340H75ZM75 158V229H499V158H75Z" />
<glyph unicode="&gt;" glyph-name="greater" horiz-adv-x="527" d="M55 59V142L364 283L55 424V507L452 317V249L55 59Z" />
<glyph unicode="?" glyph-name="question" horiz-adv-x="467" d="M161 177Q161 227 179 257T241 327Q276 358 289 380T303 434Q303 470 282 489T225 509Q183 509 161 487T137 420H24Q26 511 84 556T233 602Q324 602 376 561T428 450Q428 406 407 374T340 302Q296
265 282 242T268 177V165H161V177ZM185 -8T167 9T148 53Q148 80 166 97T214 115Q243 115 262 98T281 53Q281 27 262 10T214 -8Q185 -8 167 9Z" />
<glyph unicode="@" glyph-name="at" horiz-adv-x="714" d="M277 -29T202 13T89 123T52 271Q52 354 91 428T205 549T382 596Q476 596 538 560T630 465T660 340Q660 281 637 228T573 142T486 109Q458 109 443 124T430 179Q411 145 384 126T320 107Q286 107 256 125T208
177T190 259Q190 310 210 357T270 435T365 465Q401 465 427 445T462 392L474 457H534L485 231Q479 198 479 181Q479 157 489 156Q509 151 537 174T586 241T607 340Q607 395 581 442T503 517T379 546Q303 546 243 511T148 412T113 270Q113 156 185 89T386 21Q497
21 566 75L598 37Q512 -29 386 -29Q277 -29 202 13ZM362 156T387 179T428 242T443 325Q443 367 421 390T359 414Q326 414 302 391T264 332T251 258Q251 214 271 185T331 156Q362 156 387 179Z" />
<glyph unicode="A" glyph-name="A" horiz-adv-x="710" d="M24 0V84H88L237 488H178V572H531V488H472L624 84H685V0H415V84H483L441 209H254L212 84H275V0H24ZM279 289H417L352 487H347L279 289Z" />
<glyph unicode="B" glyph-name="B" horiz-adv-x="629" d="M44 84H109V488H44V572H358Q461 572 512 536T564 432Q564 334 462 310Q529 297 561 258T594 162Q594 87 539 44T370 0H44V84ZM334 342Q425 342 425 417Q425 454 401 471T324 488H246V342H334ZM343 85Q452
85 452 174Q452 216 425 238T341 261H246V85H343Z" />
<glyph unicode="C" glyph-name="C" horiz-adv-x="697" d="M643 177Q616 86 542 38T357 -11Q265 -11 194 26T82 130T41 286Q41 374 79 441T187 545T345 582Q408 582 457 562T536 505V572H629V380L549 379Q520 434 478 460T374 487Q286 487 234 432T182 288Q182
227 205 181T270 110T365 85Q429 85 473 118T537 218L643 177Z" />
<glyph unicode="D" glyph-name="D" horiz-adv-x="715" d="M45 84H110V488H45V572H374Q471 572 538 534T640 432T674 290Q674 158 597 79T375 0H45V84ZM353 84Q444 84 487 138T531 289Q531 379 487 433T354 488H247V84H353Z" />
<glyph unicode="E" glyph-name="E" horiz-adv-x="626" d="M44 0V84H109V488H44V572H570V385H481V488H247V335H367V395H436V192H368V254H247V85H485V195H575V0H44Z" />
<glyph unicode="F" glyph-name="F" horiz-adv-x="585" d="M44 0V84H109V488H44V572H565V381H475V488H246V336H364V394H434V193H365V254H246V84H316V0H44Z" />
<glyph unicode="G" glyph-name="G" horiz-adv-x="715" d="M664 304V267Q664 134 583 62T363 -10Q266 -10 193 27T80 131T40 286Q40 373 79 440T188 545T350 582Q414 582 462 563T542 507V572H638V378H555Q502 487 377 487Q289 487 237 434T185 289Q185 195 235
141T369 86Q438 87 482 119T531 218H424V304H664Z" />
<glyph unicode="H" glyph-name="H" horiz-adv-x="729" d="M44 0V84H109V488H44V572H311V488H246V333H483V488H418V572H685V488H620V84H685V0H418V84H483V251H246V84H311V0H44Z" />
<glyph unicode="I" glyph-name="I" horiz-adv-x="368" d="M50 0V84H115V488H50V572H318V488H252V84H318V0H50Z" />
<glyph unicode="J" glyph-name="J" horiz-adv-x="365" d="M21 -28H66Q105 -28 120 -7T135 59V493H66V572H334V493H272V66Q272 -36 230 -83T92 -131H21V-28Z" />
<glyph unicode="K" glyph-name="K" horiz-adv-x="674" d="M44 0V84H109V488H44V572H312V488H247V303L439 488H384V572H637V488H581L378 293L590 84H646V0H382V84H434L247 272V84H312V0H44Z" />
<glyph unicode="L" glyph-name="L" horiz-adv-x="552" d="M44 0V84H109V493H44V572H311V493H246V84H432V244H528V0H44Z" />
<glyph unicode="M" glyph-name="M" horiz-adv-x="874" d="M45 0V84H108V488H45V572H295L443 231L586 572H830V488H766V84H830V0H573V84H635V452L455 25H399L216 452V84H278V0H45Z" />
<glyph unicode="N" glyph-name="N" horiz-adv-x="733" d="M45 0V84H111V488H45V572H270L541 174V488H471V572H701V488H636V0H498L204 433V84H274V0H45Z" />
<glyph unicode="O" glyph-name="O" horiz-adv-x="722" d="M266 -11T193 27T81 132T41 284Q41 369 80 437T193 543T361 582Q456 582 528 544T640 437T680 285Q680 200 641 133T529 27T361 -11Q266 -11 193 27ZM441 85T488 142T536 287Q536 375 490 431T363 487Q281
487 233 432T185 286Q185 198 232 142T361 85Q441 85 488 142Z" />
<glyph unicode="P" glyph-name="P" horiz-adv-x="606" d="M44 84H109V488H44V572H345Q461 572 520 531T579 404Q579 228 352 228H285V312H336Q385 312 411 335T437 402Q437 444 413 466T345 488H246V84H316V0H44V84Z" />
<glyph unicode="Q" glyph-name="Q" horiz-adv-x="720" d="M380 -163T304 -6Q224 4 165 44T73 146T41 284Q41 369 80 437T193 543T361 582Q456 582 528 544T640 437T680 285Q680 210 649 148T560 46T423 -6Q441 -40 473 -58T549 -76Q584 -76 628 -62V-148Q589 -163
543 -163Q380 -163 304 -6ZM441 85T488 142T536 287Q536 375 490 431T363 487Q281 487 233 432T185 286Q185 198 232 142T361 85Q441 85 488 142Z" />
<glyph unicode="R" glyph-name="R" horiz-adv-x="674" d="M44 84H109V488H44V572H374Q477 572 536 532T596 410Q596 288 468 259L575 85H643V0H476L336 243H284V329H361Q411 329 433 351T456 412Q456 446 434 467T369 488H246V84H309V0H44V84Z" />
<glyph unicode="S" glyph-name="S" horiz-adv-x="566" d="M433 329T479 288T525 166Q525 87 473 39T332 -10Q280 -10 232 10T157 64V0H61V194H147Q163 139 207 106T313 72Q353 72 375 90T398 143Q398 182 375 199T290 229L239 239Q149 257 103 300T57 417Q57 493
108 538T244 583Q297 583 338 567T407 520V572H497V407H414Q400 447 367 474T273 501Q234 501 213 484T191 436Q191 402 217 384T302 354L333 348Q433 329 479 288Z" />
<glyph unicode="T" glyph-name="T" horiz-adv-x="612" d="M169 0V84H238V490H117V365H25V572H586V365H495V490H375V84H445V0H169Z" />
<glyph unicode="U" glyph-name="U" horiz-adv-x="685" d="M221 -10T158 47T94 208V488H30V572H297V488H230V204Q230 144 263 111T356 78Q419 78 453 111T488 204V488H431V572H658V488H595V206Q595 100 530 45T347 -10Q221 -10 158 47Z" />
<glyph unicode="V" glyph-name="V" horiz-adv-x="666" d="M289 0L74 488H15V572H287V488H217L348 150L476 488H407V572H650V488H592L390 0H289Z" />
<glyph unicode="W" glyph-name="W" horiz-adv-x="916" d="M239 0L77 488H19V572H261V488H200L293 181L422 558H509L637 181L732 488H666V572H898V488H839L683 0H590L461 366L333 0H239Z" />
<glyph unicode="X" glyph-name="X" horiz-adv-x="667" d="M29 0V83H88L247 289L95 489H37V572H296V489H243L339 354L437 489H383V572H626V489H568L417 295L579 83H638V0H377V83H431L326 231L220 83H275V0H29Z" />
<glyph unicode="Y" glyph-name="Y" horiz-adv-x="658" d="M192 0V84H263V225L75 488H12V572H291V488H225L347 309L465 488H399V572H646V488H581L401 226V84H473V0H192Z" />
<glyph unicode="Z" glyph-name="Z" horiz-adv-x="586" d="M48 0V73L354 490H149V370H58V572H535V503L227 83H450V213H543V0H48Z" />
<glyph unicode="[" glyph-name="bracketleft" horiz-adv-x="379" d="M124 -103V609H316V542H232V-34H316V-103H124Z" />
<glyph unicode="\" glyph-name="backslash" horiz-adv-x="336" d="M250 -140L16 602H116L350 -140H250Z" />
<glyph unicode="]" glyph-name="bracketright" horiz-adv-x="379" d="M63 -103V-34H148V542H63V609H254V-103H63Z" />
<glyph unicode="^" glyph-name="asciicircum" horiz-adv-x="536" d="M40 224L221 584H314L495 224H395L268 495L141 224H40Z" />
<glyph unicode="_" glyph-name="underscore" horiz-adv-x="483" d="M6 -95V-41H477V-95H6Z" />
<glyph unicode="`" glyph-name="grave" horiz-adv-x="365" d="M194 469L100 631H218L265 469H194Z" />
<glyph unicode="a" glyph-name="a" horiz-adv-x="473" d="M460 75V0H306L297 36Q239 -11 167 -11Q107 -11 71 21T34 106Q34 170 78 200T192 230Q242 230 288 217V245Q288 285 267 305T206 326Q146 326 73 291L44 362Q86 385 134 396T229 408Q313 408 360 367T407
253V75H460ZM143 88T159 73T204 57Q249 57 288 88V163Q255 174 216 174Q185 174 164 160T143 114Q143 88 159 73Z" />
<glyph unicode="b" glyph-name="b" horiz-adv-x="530" d="M408 408T458 353T509 204Q509 139 484 91T415 16T316 -10Q245 -10 193 30L192 0H18V75H77V508H19V582H199V363Q225 384 257 396T325 408Q408 408 458 353ZM324 80T353 111T383 198Q383 254 355 285T279
316Q234 316 199 287V106Q234 80 277 80Q324 80 353 111Z" />
<glyph unicode="c" glyph-name="c" horiz-adv-x="461" d="M430 64Q358 -10 243 -10Q178 -10 128 17T49 92T21 203Q21 263 47 310T119 382T222 408Q299 408 339 363V399H424V242H346Q340 281 315 303T248 325Q198 325 168 293T137 208Q137 151 171 116T261 81Q301
81 332 95T392 136L430 64Z" />
<glyph unicode="d" glyph-name="d" horiz-adv-x="524" d="M508 75V0H340L339 29Q283 -11 213 -11Q158 -11 115 15T47 88T22 200Q22 263 46 310T113 382T209 408Q281 408 333 366V508H268V582H454V75H508ZM148 143T177 112T254 80Q296 80 333 104V288Q295 317 250
317Q204 317 176 286T148 196Q148 143 177 112Z" />
<glyph unicode="e" glyph-name="e" horiz-adv-x="458" d="M433 178H138Q146 131 178 106T260 80Q334 80 393 131L428 58Q395 26 349 8T248 -11Q146 -11 84 45T21 199Q21 260 48 307T125 381T235 408Q327 408 380 352T433 203V178ZM319 235Q319 279 296 303T233
327Q194 327 169 303T138 235H319Z" />
<glyph unicode="f" glyph-name="f" horiz-adv-x="317" d="M26 75H88V323H27V398H88V461Q88 528 128 568T249 609Q314 609 351 581T394 496L301 477Q299 505 289 519T256 534Q210 534 210 462V398H316V323H210V75H292V0H26V75Z" />
<glyph unicode="g" glyph-name="g" horiz-adv-x="527" d="M515 398V323H460V10Q460 -90 403 -141T246 -192Q168 -192 79 -163L99 -84Q171 -107 228 -107Q282 -107 310 -81T339 -5V33Q288 -6 219 -6Q132 -6 79 49T25 200Q25 295 78 351T218 407Q253 407 286 395T343
361L344 398H515ZM150 144T179 113T256 82Q301 82 339 107L338 290Q295 320 252 320Q206 320 178 289T150 198Q150 144 179 113Z" />
<glyph unicode="h" glyph-name="h" horiz-adv-x="533" d="M522 75V0H291V75H342V251Q342 285 326 304T281 323Q241 323 192 294V75H242V0H11V75H70V508H12V582H192V362Q263 408 329 408Q390 408 426 371T463 271V75H522Z" />
<glyph unicode="i" glyph-name="i" horiz-adv-x="275" d="M96 476T75 496T54 547Q54 579 75 599T129 619Q162 619 182 599T203 547Q204 516 183 496T129 476Q96 476 75 496ZM18 0V75H79V323H19V398H200V75H258V0H18Z" />
<glyph unicode="j" glyph-name="j" horiz-adv-x="280" d="M122 476T101 496T80 548Q80 579 101 599T155 619Q189 619 209 600T230 548Q230 516 210 496T155 476Q122 476 101 496ZM-2 -69H38Q79 -69 94 -51T110 11V318H33V398H232V29Q232 -68 189 -114T47 -160H-2V-69Z" />
<glyph unicode="k" glyph-name="k" horiz-adv-x="522" d="M19 0V75H79V508H20V582H199V212L344 323H284V398H505V323H457L319 214L452 75H508V0H377L199 195V75H254V0H19Z" />
<glyph unicode="l" glyph-name="l" horiz-adv-x="270" d="M20 0V75H79V508H21V582H199V75H254V0H20Z" />
<glyph unicode="m" glyph-name="m" horiz-adv-x="805" d="M799 75V0H568V75H619V251Q619 285 603 304T558 323Q512 323 466 291Q467 284 467 270V75H526V0H295V75H346V251Q346 285 330 304T284 323Q247 323 200 297V75H254V0H18V75H79V323H19V398H193L195 361Q266
408 333 408Q372 408 401 392T448 347Q488 377 526 392T607 408Q667 408 703 371T740 271V75H799Z" />
<glyph unicode="n" glyph-name="n" horiz-adv-x="533" d="M527 75V0H296V75H347V251Q347 285 331 304T286 323Q246 323 200 296V75H254V0H18V75H79V323H18V398H193L194 361Q267 408 334 408Q395 408 431 371T468 271V75H527Z" />
<glyph unicode="o" glyph-name="o" horiz-adv-x="480" d="M174 -11T125 15T48 89T21 199Q21 261 48 308T124 382T239 408Q304 408 354 382T431 309T459 200Q459 137 432 89T354 15T239 -11Q174 -11 125 15ZM287 80T315 112T344 200Q344 253 316 284T239 316Q192
316 164 285T136 199Q136 145 164 113T239 81Q287 80 315 112Z" />
<glyph unicode="p" glyph-name="p" horiz-adv-x="524" d="M401 408T451 353T502 203Q502 138 477 90T408 16T310 -10Q275 -10 245 0T195 26L194 -88H263V-163H15V-88H73V323H16V398H185L187 364Q247 408 317 408Q401 408 451 353ZM318 80T347 111T377 199Q377
253 349 284T274 316Q255 316 234 309T194 288L195 104Q230 80 270 80Q318 80 347 111Z" />
<glyph unicode="q" glyph-name="q" horiz-adv-x="534" d="M518 -89V-166H270V-89H339V29Q315 10 284 0T217 -11Q162 -11 118 15T48 88T22 198Q22 262 47 309T116 382T217 408Q287 408 344 365L346 398H517V323H460V-89H518ZM147 141T177 111T254 80Q298 80 339
107V287Q297 317 249 317Q203 317 175 285T147 196Q147 141 177 111Z" />
<glyph unicode="r" glyph-name="r" horiz-adv-x="402" d="M353 405T391 386L365 286Q327 307 288 307Q255 307 232 285T208 221L207 75H269V0H25V75H86V323H25V398H207V322Q244 405 314 405Q353 405 391 386Z" />
<glyph unicode="s" glyph-name="s" horiz-adv-x="447" d="M338 228T372 200T407 112Q407 54 365 22T259 -10Q220 -10 187 0T131 30V0H51V133H125L128 93Q147 77 174 68T229 58Q259 58 277 69T295 101Q295 124 279 134T219 155L176 164Q109 179 80 206T50 287Q50
343 90 375T198 408Q229 408 258 399T308 376V399H389V269H315L309 315Q294 327 270 334T224 341Q198 341 181 330T163 299Q163 281 176 272T222 255L267 245Q338 228 372 200Z" />
<glyph unicode="t" glyph-name="t" horiz-adv-x="318" d="M73 0T73 118V323H17V398H72V529L194 555V398H289V323H194V136Q194 104 205 91T243 77H294V0H196Q73 0 73 118Z" />
<glyph unicode="u" glyph-name="u" horiz-adv-x="529" d="M517 75V0H345L342 42Q273 -10 201 -10Q135 -10 101 28T66 127V323H11V398H188V144Q188 112 203 94T249 75Q294 75 337 107V323H283V398H457V75H517Z" />
<glyph unicode="v" glyph-name="v" horiz-adv-x="512" d="M204 0L53 323H4V398H234V323H184L273 114L361 323H312V398H508V323H461L310 0H204Z" />
<glyph unicode="w" glyph-name="w" horiz-adv-x="712" d="M162 0L46 323H5V398H200V323H157L231 104L304 323H261V398H455V323H410L487 103L555 323H512V398H706V323H663L547 0H437L355 230L273 0H162Z" />
<glyph unicode="x" glyph-name="x" horiz-adv-x="511" d="M17 0V75H62L180 202L70 323H22V398H231V323H190L257 246L324 323H283V398H491V323H440L331 204L451 75H496V0H284V75H331L254 158L180 75H223V0H17Z" />
<glyph unicode="y" glyph-name="y" horiz-adv-x="522" d="M93 -75H133Q171 -75 189 -64T223 -17L241 26H205L57 323H4V398H232V323H181L276 112L364 323H308V398H520V323H472L313 -26Q287 -83 269 -110T222 -151T141 -165H93V-75Z" />
<glyph unicode="z" glyph-name="z" horiz-adv-x="449" d="M38 0V65L267 326H118V249H41V398H408V331L177 70H338V157H415V0H38Z" />
<glyph unicode="{" glyph-name="braceleft" horiz-adv-x="402" d="M228 -90T194 -70T151 -15T143 88Q143 160 125 190T53 221V290Q106 290 124 321T143 428Q143 493 151 527T194 581T305 602H352V532Q311 532 291 526T264 505T257 461Q257 378 251 340T222 282T150
255Q199 246 221 228T249 174T256 59Q256 25 262 9T289 -14T352 -21V-90H305Q228 -90 194 -70Z" />
<glyph unicode="|" glyph-name="bar" horiz-adv-x="197" d="M49 -140V602H148V-140H49Z" />
<glyph unicode="}" glyph-name="braceright" horiz-adv-x="402" d="M67 -21Q110 -21 129 -14T155 8T162 58Q162 137 168 173T197 228T269 255Q218 263 196 282T168 339T161 461Q161 490 155 505T128 526T67 532V602H113Q189 602 224 582T267 527T275 428Q275 354
293 322T365 290V221Q312 221 294 190T275 84Q275 18 267 -15T224 -69T113 -90H67V-21Z" />
<glyph unicode="~" glyph-name="asciitilde" d="M345 216T324 223T270 245Q242 257 226 263T192 269Q173 269 161 258T147 226H75Q79 284 109 313T184 343Q208 343 231 336T281 315Q311 302 327 297T363 291Q404 291 408 334H480Q476 275 446 246T370 216Q345
216 324 223Z" />
<glyph unicode="&#xa0;" glyph-name="uni00A0" horiz-adv-x="312" />
<glyph unicode="&#xa1;" glyph-name="exclamdown" horiz-adv-x="190" d="M133 449T151 432T170 388Q170 361 152 344T103 326Q74 326 56 343T37 388Q37 414 55 431T103 449Q133 449 151 432ZM67 276H135L157 24V-154H46V24L67 276Z" />
<glyph unicode="&#xa2;" glyph-name="cent" horiz-adv-x="461" d="M369 1T273 -9V-87H217V-9Q129 -1 75 57T21 203Q21 262 46 308T116 381T217 408V484H273V402Q315 390 339 363V399H424V242H346Q341 275 322 296T273 323V81Q309 83 337 97T392 136L430 64Q369
1 273 -9ZM137 163T158 132T217 88V321Q180 312 159 282T137 208Q137 163 158 132Z" />
<glyph unicode="&#xa3;" glyph-name="sterling" horiz-adv-x="549" d="M519 156V147Q519 74 486 33T389 -9Q328 -9 272 38Q221 -10 148 -10Q95 -10 64 17T32 88Q32 130 61 159T140 188Q163 188 184 181T227 161Q224 188 213 212T182 266H66V326H143Q115 377 115
423Q115 499 165 541T304 583Q401 583 448 541T495 421H393Q393 461 375 483T318 506Q281 506 261 484T241 422Q241 380 268 326H450V266H299Q311 238 318 215T325 165Q325 132 314 102Q347 83 377 83Q442 83 442 156H519ZM170 42T188 54T217 89Q196 108 180 118T145
128Q123 128 110 117T97 86Q97 66 111 54T146 42Q170 42 188 54Z" />
<glyph unicode="&#xa4;" glyph-name="currency" horiz-adv-x="628" d="M563 205T512 140L583 74L533 24L468 96Q402 46 314 46Q226 46 160 95L94 24L45 74L115 139Q64 206 64 294Q64 381 115 448L45 513L94 563L160 491Q226 541 314 541Q402 541 468 491L533 563L583
513L512 448Q563 381 563 294Q563 205 512 140ZM356 140T390 160T445 215T465 294Q465 337 445 372T391 427T314 447Q272 447 238 427T183 372T163 294Q163 251 183 216T237 160T314 140Q356 140 390 160Z" />
<glyph unicode="&#xa5;" glyph-name="yen" horiz-adv-x="658" d="M398 572H645V488H580L408 238H536V179H400V84H472V0H191V84H262V179H120V238H253L74 488H11V572H290V488H224L346 309L464 488H398V572Z" />
<glyph unicode="&#xa6;" glyph-name="brokenbar" horiz-adv-x="197" d="M49 302V602H148V302H49ZM49 -140V160H148V-140H49Z" />
<glyph unicode="&#xa7;" glyph-name="section" horiz-adv-x="452" d="M146 -86T110 -58T73 12Q73 40 90 54T135 68Q136 15 161 -16T234 -48Q275 -48 298 -26T321 33Q321 57 311 73T273 107T183 156Q116 189 88 222T59 303Q59 330 75 352T116 386Q77 421 77 482Q77
540 119 573T231 607Q298 607 334 582T370 516Q370 493 353 479T304 465Q303 509 286 538T227 568Q190 568 169 548T147 491Q147 465 158 449T187 422T248 391Q334 348 369 315T405 233Q405 204 391 178T353 137Q381 103 381 53Q381 -11 341 -48T225 -86Q146 -86
110 -58ZM336 183T336 209Q336 238 314 261T232 315Q225 319 194 334T144 362Q123 347 123 320Q123 297 133 281T166 250T236 212Q290 187 320 165Q336 183 336 209Z" />
<glyph unicode="&#xa8;" glyph-name="dieresis" horiz-adv-x="560" d="M138 470T119 487T100 534Q100 563 119 580T167 598Q195 598 214 581T233 534Q233 504 214 487T167 470Q138 470 119 487ZM365 470T346 487T327 534Q327 563 346 580T393 598Q422 598 441
581T460 534Q460 504 441 487T393 470Q365 470 346 487Z" />
<glyph unicode="&#xa9;" glyph-name="copyright" horiz-adv-x="749" d="M284 -13T212 26T100 135T59 292Q59 380 99 450T212 559T374 598Q464 598 536 559T648 450T689 292Q689 205 649 136T536 27T374 -13Q284 -13 212 26ZM445 41T501 73T588 162T620 291Q620
364 589 422T501 512T374 545Q303 545 247 513T160 422T128 291Q128 219 159 162T247 73T374 41Q445 41 501 73ZM332 125T294 146T234 206T212 292Q212 341 233 379T292 437T375 458Q404 458 429 448T467 419V451H520V339H469Q462 371 439 389T382 408Q338 408
308 377T278 293Q278 241 307 208T381 175Q412 175 440 189T485 228L525 198Q504 166 464 146T380 125Q332 125 294 146Z" />
<glyph unicode="&#xaa;" glyph-name="ordfeminine" horiz-adv-x="400" d="M84 246T53 272T21 341Q21 392 59 417T156 443Q190 443 229 436V456Q229 513 162 513Q109 513 54 483L27 543Q92 582 177 582Q246 582 287 551T329 462V321H377V254H248L240 280Q195 246
133 246Q84 246 53 272ZM199 303T229 327V388Q203 395 175 395Q114 395 114 347Q114 327 127 315T162 303Q199 303 229 327Z" />
<glyph unicode="&#xab;" glyph-name="guillemotleft" horiz-adv-x="552" d="M196 71L52 281L196 494H288L177 282L288 71H196ZM410 71L266 281L410 494H501L391 282L501 71H410Z" />
<glyph unicode="&#xac;" glyph-name="logicalnot" horiz-adv-x="548" d="M404 125V246H75V318H474V125H404Z" />
<glyph unicode="&#xad;" glyph-name="uni00AD" horiz-adv-x="370" d="M52 197V275H318V197H52Z" />
<glyph unicode="&#xae;" glyph-name="registered" horiz-adv-x="749" d="M280 -11T210 28T100 137T61 292Q61 378 99 447T209 556T372 596Q464 596 535 556T645 447T684 292Q684 206 645 137T535 29T372 -11Q280 -11 210 28ZM443 43T498 75T584 164T615 291Q615
362 585 419T499 509T372 542Q300 542 245 509T160 419T129 291Q129 221 159 165T244 76T372 43Q443 43 498 75ZM234 176H277V426H233V459H389Q438 459 466 436T495 375Q495 345 476 323T422 294L487 176H532V143H454L375 289H326V176H368V143H234V176ZM388 323Q414
323 430 337T446 375Q446 398 431 412T390 426H326V323H388Z" />
<glyph unicode="&#xaf;" glyph-name="overscore" horiz-adv-x="443" d="M100 470V537H342V470H100Z" />
<glyph unicode="&#xb0;" glyph-name="degree" horiz-adv-x="244" d="M69 379T36 413T3 497Q3 545 36 579T122 613Q175 613 208 579T241 497Q241 448 208 414T122 379Q69 379 36 413ZM156 419T176 441T196 497Q196 528 176 550T122 572Q89 572 69 550T48 497Q48
464 68 442T123 419Q156 419 176 441Z" />
<glyph unicode="&#xb1;" glyph-name="plusminus" horiz-adv-x="584" d="M254 158V325H75V395H254V558H331V395H509V325H331V158H254ZM75 42V112H509V42H75Z" />
<glyph unicode="&#xb2;" glyph-name="uni00B2" horiz-adv-x="330" d="M302 411V298H26L27 351L126 437Q171 477 190 502T209 555Q209 578 197 592T158 606Q130 606 115 587T99 537Q99 522 104 497H30Q23 525 23 545Q23 600 60 636T164 672Q225 672 260 642T295
563Q295 519 269 485T180 398L136 361H242V411H302Z" />
<glyph unicode="&#xb3;" glyph-name="uni00B3" horiz-adv-x="342" d="M284 475T303 451T322 392Q322 342 282 314T175 285Q113 285 73 310T20 384L90 416Q100 385 122 369T174 353Q200 353 215 366T231 403Q231 430 211 442T147 455V509Q223 509 223 558Q223 580
209 593T169 607Q142 607 124 592T97 549L24 577Q37 623 76 647T172 672Q237 672 273 644T310 568Q310 540 294 519T249 486Q284 475 303 451Z" />
<glyph unicode="&#xb4;" glyph-name="acute" horiz-adv-x="365" d="M100 469L147 631H265L171 469H100Z" />
<glyph unicode="&#xb5;" glyph-name="uni00B5" horiz-adv-x="535" d="M74 323H18V398H196V144Q196 112 211 94T258 75Q301 75 345 109V323H291V398H465V75H525V0H353L351 35Q298 -10 246 -10Q218 -10 196 3V-134H74V323Z" />
<glyph unicode="&#xb6;" glyph-name="paragraph" horiz-adv-x="567" d="M223 78H344V232H221Q137 232 91 277T44 397Q44 472 96 517T247 563H539V484H458V78H538V-2H223V78ZM248 308L344 309V484H248V308Z" />
<glyph unicode="&#xb7;" glyph-name="middot" horiz-adv-x="245" d="M96 211T78 228T60 270Q60 295 78 311T122 328Q149 328 167 312T185 270Q185 245 167 228T122 211Q96 211 78 228Z" />
<glyph unicode="&#xb8;" glyph-name="cedilla" horiz-adv-x="373" d="M143 -193T100 -170V-135Q138 -147 156 -147Q173 -147 183 -140T193 -118Q193 -88 135 -85L169 0H215L199 -57Q235 -62 253 -81T272 -126Q272 -159 248 -176T188 -193Q143 -193 100 -170Z" />
<glyph unicode="&#xb9;" glyph-name="uni00B9" horiz-adv-x="249" d="M20 298V356H78V597L23 588L21 642L171 661V356H229V298H20Z" />
<glyph unicode="&#xba;" glyph-name="ordmasculine" horiz-adv-x="428" d="M132 246T81 292T30 415Q30 491 81 536T214 582Q296 582 347 537T398 415Q398 339 347 293T214 246Q132 246 81 292ZM250 315T272 342T295 415Q295 460 273 487T214 514Q178 514 156 487T133
415Q133 369 155 343T214 315Q250 315 272 342Z" />
<glyph unicode="&#xbb;" glyph-name="guillemotright" horiz-adv-x="534" d="M59 71L170 284L59 494H150L294 284L150 71H59ZM272 71L383 284L272 494H364L508 284L364 71H272Z" />
<glyph unicode="&#xbc;" glyph-name="onequarter" horiz-adv-x="777" d="M49 476V534H107V775L52 766L50 820L200 839V534H258V476H49ZM164 -1L541 575H604L230 -1H164ZM527 0V57H582V100H411L404 143L584 363H667V151H728V100H667V57H720V0H527ZM479 151H582V278L479
151Z" />
<glyph unicode="&#xbd;" glyph-name="onehalf" horiz-adv-x="801" d="M49 475V533H107V774L52 765L50 819L200 838V533H258V475H49ZM160 -1L537 575H600L226 -1H160ZM752 113V0H476L477 53L576 139Q621 179 640 204T659 257Q659 280 647 294T608 308Q580 308 565
289T549 239Q549 224 554 199H480Q473 227 473 247Q473 302 510 338T614 374Q675 374 710 344T745 265Q745 221 719 187T630 100L586 63H692V113H752Z" />
<glyph unicode="&#xbe;" glyph-name="threequarters" horiz-adv-x="839" d="M313 651T332 627T351 568Q351 518 311 490T204 461Q142 461 102 486T49 560L119 592Q129 561 151 545T203 529Q229 529 244 542T260 579Q260 606 240 618T176 631V685Q252 685 252 734Q252
756 238 769T198 783Q171 783 153 768T126 725L53 753Q66 799 105 823T201 848Q266 848 302 820T339 744Q339 716 323 695T278 662Q313 651 332 627ZM232 -1L609 575H672L298 -1H232ZM589 0V57H644V100H473L466 143L646 363H729V151H790V100H729V57H782V0H589ZM541
151H644V278L541 151Z" />
<glyph unicode="&#xbf;" glyph-name="questiondown" horiz-adv-x="458" d="M292 447T310 430T329 386Q329 359 311 342T263 324Q234 324 215 341T196 386Q196 412 215 429T263 447Q292 447 310 430ZM316 262Q316 212 298 182T236 112Q201 81 188 59T174 5Q174
-31 195 -50T252 -70Q294 -70 316 -48T340 19H453Q451 -72 393 -117T244 -163Q153 -163 101 -122T49 -11Q49 33 70 65T137 137Q181 174 195 197T209 262V274H316V262Z" />
<glyph unicode="&#xc0;" glyph-name="Agrave" horiz-adv-x="710" d="M24 0V84H88L237 488H178V572H531V488H472L624 84H685V0H415V84H483L441 209H254L212 84H275V0H24ZM279 289H417L352 487H347L279 289ZM318 643L224 805H342L389 643H318Z" />
<glyph unicode="&#xc1;" glyph-name="Aacute" horiz-adv-x="710" d="M24 0V84H88L237 488H178V572H531V488H472L624 84H685V0H415V84H483L441 209H254L212 84H275V0H24ZM279 289H417L352 487H347L279 289ZM320 643L367 805H485L391 643H320Z" />
<glyph unicode="&#xc2;" glyph-name="Acircumflex" horiz-adv-x="710" d="M24 0V84H88L237 488H178V572H531V488H472L624 84H685V0H415V84H483L441 209H254L212 84H275V0H24ZM279 289H417L352 487H347L279 289ZM208 631L293 799H418L502 631H422L355 749L288 631H208Z" />
<glyph unicode="&#xc3;" glyph-name="Atilde" horiz-adv-x="710" d="M24 0V84H88L237 488H178V572H531V488H472L624 84H685V0H415V84H483L441 209H254L212 84H275V0H24ZM279 289H417L352 487H347L279 289ZM405 644T385 650T338 669Q333 671 314 679T281 687Q248
687 244 649H188Q193 713 220 743T288 773Q306 773 323 767T370 749Q412 730 428 730Q461 730 468 769H522Q518 708 492 676T424 644Q405 644 385 650Z" />
<glyph unicode="&#xc4;" glyph-name="Adieresis" horiz-adv-x="710" d="M24 0V84H88L237 488H178V572H531V488H472L624 84H685V0H415V84H483L441 209H254L212 84H275V0H24ZM279 289H417L352 487H347L279 289ZM213 644T194 661T175 708Q175 737 194 754T242 772Q270
772 289 755T308 708Q308 678 289 661T242 644Q213 644 194 661ZM440 644T421 661T402 708Q402 737 421 754T468 772Q497 772 516 755T535 708Q535 678 516 661T468 644Q440 644 421 661Z" />
<glyph unicode="&#xc5;" glyph-name="Aring" horiz-adv-x="710" d="M24 0V84H88L237 488H178V572H531V488H472L624 84H685V0H415V84H483L441 209H254L212 84H275V0H24ZM279 289H417L352 487H347L279 289ZM315 619T291 642T267 703Q267 742 290 764T355 787Q396
787 419 765T443 703Q443 666 420 643T357 619Q315 619 291 642ZM376 659T387 671T399 703Q399 724 388 736T355 748Q334 748 322 736T310 703Q310 683 322 671T355 659Q376 659 387 671Z" />
<glyph unicode="&#xc6;" glyph-name="AE" horiz-adv-x="980" d="M16 0V84H82L316 488H259V572H895L907 379H817L808 488H572L582 332H706L702 393H770L785 189H716L711 251H585L595 85H840L832 200H921L934 0H394V84H458L451 203H275L212 84H271V0H16ZM313 281H448L436
488H428L313 281Z" />
<glyph unicode="&#xc7;" glyph-name="Ccedilla" horiz-adv-x="697" d="M617 90T548 42T374 -11L361 -57Q397 -62 415 -81T434 -126Q434 -159 410 -176T350 -193Q305 -193 262 -170V-135Q300 -147 318 -147Q335 -147 345 -140T355 -118Q355 -88 297 -85L327 -10Q243
-4 178 34T77 137T41 286Q41 374 79 441T187 545T345 582Q408 582 457 562T536 505V572H629V380L549 379Q520 434 478 460T374 487Q286 487 234 432T182 288Q182 227 205 181T270 110T365 85Q429 85 473 118T537 218L643 177Q617 90 548 42Z" />
<glyph unicode="&#xc8;" glyph-name="Egrave" horiz-adv-x="626" d="M44 0V84H109V488H44V572H570V385H481V488H247V335H367V395H436V192H368V254H247V85H485V195H575V0H44ZM295 643L201 805H319L366 643H295Z" />
<glyph unicode="&#xc9;" glyph-name="Eacute" horiz-adv-x="626" d="M44 0V84H109V488H44V572H570V385H481V488H247V335H367V395H436V192H368V254H247V85H485V195H575V0H44ZM297 643L344 805H462L368 643H297Z" />
<glyph unicode="&#xca;" glyph-name="Ecircumflex" horiz-adv-x="626" d="M44 0V84H109V488H44V572H570V385H481V488H247V335H367V395H436V192H368V254H247V85H485V195H575V0H44ZM185 631L270 799H395L479 631H399L332 749L265 631H185Z" />
<glyph unicode="&#xcb;" glyph-name="Edieresis" horiz-adv-x="626" d="M44 0V84H109V488H44V572H570V385H481V488H247V335H367V395H436V192H368V254H247V85H485V195H575V0H44ZM190 644T171 661T152 708Q152 737 171 754T219 772Q247 772 266 755T285 708Q285
678 266 661T219 644Q190 644 171 661ZM417 644T398 661T379 708Q379 737 398 754T445 772Q474 772 493 755T512 708Q512 678 493 661T445 644Q417 644 398 661Z" />
<glyph unicode="&#xcc;" glyph-name="Igrave" horiz-adv-x="368" d="M50 0V84H115V488H50V572H318V488H252V84H318V0H50ZM147 643L53 805H171L218 643H147Z" />
<glyph unicode="&#xcd;" glyph-name="Iacute" horiz-adv-x="368" d="M50 0V84H115V488H50V572H318V488H252V84H318V0H50ZM149 643L196 805H314L220 643H149Z" />
<glyph unicode="&#xce;" glyph-name="Icircumflex" horiz-adv-x="368" d="M50 0V84H115V488H50V572H318V488H252V84H318V0H50ZM37 631L122 799H247L331 631H251L184 749L117 631H37Z" />
<glyph unicode="&#xcf;" glyph-name="Idieresis" horiz-adv-x="368" d="M50 0V84H115V488H50V572H318V488H252V84H318V0H50ZM42 644T23 661T4 708Q4 737 23 754T71 772Q99 772 118 755T137 708Q137 678 118 661T71 644Q42 644 23 661ZM269 644T250 661T231 708Q231
737 250 754T297 772Q326 772 345 755T364 708Q364 678 345 661T297 644Q269 644 250 661Z" />
<glyph unicode="&#xd0;" glyph-name="Eth" horiz-adv-x="725" d="M471 572T538 534T640 432T674 290Q674 158 597 79T375 0H45V84H110V252H45V330H110V488H45V572H374Q471 572 538 534ZM444 84T487 138T531 289Q531 379 487 433T354 488H247V330H311V252H247V84H353Q444
84 487 138Z" />
<glyph unicode="&#xd1;" glyph-name="Ntilde" horiz-adv-x="733" d="M45 0V84H111V488H45V572H270L541 174V488H471V572H701V488H636V0H498L204 433V84H274V0H45ZM426 644T406 650T359 669Q354 671 335 679T302 687Q269 687 265 649H209Q214 713 241 743T309 773Q327
773 344 767T391 749Q433 730 449 730Q482 730 489 769H543Q539 708 513 676T445 644Q426 644 406 650Z" />
<glyph unicode="&#xd2;" glyph-name="Ograve" horiz-adv-x="722" d="M266 -11T193 27T81 132T41 284Q41 369 80 437T193 543T361 582Q456 582 528 544T640 437T680 285Q680 200 641 133T529 27T361 -11Q266 -11 193 27ZM441 85T488 142T536 287Q536 375 490 431T363
487Q281 487 233 432T185 286Q185 198 232 142T361 85Q441 85 488 142ZM323 643L229 805H347L394 643H323Z" />
<glyph unicode="&#xd3;" glyph-name="Oacute" horiz-adv-x="722" d="M266 -11T193 27T81 132T41 284Q41 369 80 437T193 543T361 582Q456 582 528 544T640 437T680 285Q680 200 641 133T529 27T361 -11Q266 -11 193 27ZM441 85T488 142T536 287Q536 375 490 431T363
487Q281 487 233 432T185 286Q185 198 232 142T361 85Q441 85 488 142ZM325 643L372 805H490L396 643H325Z" />
<glyph unicode="&#xd4;" glyph-name="Ocircumflex" horiz-adv-x="722" d="M266 -11T193 27T81 132T41 284Q41 369 80 437T193 543T361 582Q456 582 528 544T640 437T680 285Q680 200 641 133T529 27T361 -11Q266 -11 193 27ZM441 85T488 142T536 287Q536 375 490
431T363 487Q281 487 233 432T185 286Q185 198 232 142T361 85Q441 85 488 142ZM213 631L298 799H423L507 631H427L360 749L293 631H213Z" />
<glyph unicode="&#xd5;" glyph-name="Otilde" horiz-adv-x="722" d="M266 -11T193 27T81 132T41 284Q41 369 80 437T193 543T361 582Q456 582 528 544T640 437T680 285Q680 200 641 133T529 27T361 -11Q266 -11 193 27ZM441 85T488 142T536 287Q536 375 490 431T363
487Q281 487 233 432T185 286Q185 198 232 142T361 85Q441 85 488 142ZM410 644T390 650T343 669Q338 671 319 679T286 687Q253 687 249 649H193Q198 713 225 743T293 773Q311 773 328 767T375 749Q417 730 433 730Q466 730 473 769H527Q523 708 497 676T429 644Q410
644 390 650Z" />
<glyph unicode="&#xd6;" glyph-name="Odieresis" horiz-adv-x="722" d="M266 -11T193 27T81 132T41 284Q41 369 80 437T193 543T361 582Q456 582 528 544T640 437T680 285Q680 200 641 133T529 27T361 -11Q266 -11 193 27ZM441 85T488 142T536 287Q536 375 490
431T363 487Q281 487 233 432T185 286Q185 198 232 142T361 85Q441 85 488 142ZM218 644T199 661T180 708Q180 737 199 754T247 772Q275 772 294 755T313 708Q313 678 294 661T247 644Q218 644 199 661ZM445 644T426 661T407 708Q407 737 426 754T473 772Q502 772
521 755T540 708Q540 678 521 661T473 644Q445 644 426 661Z" />
<glyph unicode="&#xd7;" glyph-name="multiply" horiz-adv-x="508" d="M85 61L34 112L203 281L37 447L88 498L254 333L422 500L474 449L306 281L471 115L420 65L255 230L85 61Z" />
<glyph unicode="&#xd8;" glyph-name="Oslash" horiz-adv-x="681" d="M608 467T634 410T660 284Q660 199 621 132T509 26T341 -12Q257 -12 185 20L135 -45L80 -7L128 55Q77 95 49 154T21 283Q21 368 60 436T173 542T341 581Q433 581 504 544L552 606L607 568L560
507Q608 467 634 410ZM165 206T203 153L438 458Q398 486 341 486Q260 486 213 430T165 285Q165 206 203 153ZM421 84T468 141T516 286Q516 358 485 409L252 107Q290 84 341 84Q421 84 468 141Z" />
<glyph unicode="&#xd9;" glyph-name="Ugrave" horiz-adv-x="685" d="M221 -10T158 47T94 208V488H30V572H297V488H230V204Q230 144 263 111T356 78Q419 78 453 111T488 204V488H431V572H658V488H595V206Q595 100 530 45T347 -10Q221 -10 158 47ZM318 643L224 805H342L389
643H318Z" />
<glyph unicode="&#xda;" glyph-name="Uacute" horiz-adv-x="685" d="M221 -10T158 47T94 208V488H30V572H297V488H230V204Q230 144 263 111T356 78Q419 78 453 111T488 204V488H431V572H658V488H595V206Q595 100 530 45T347 -10Q221 -10 158 47ZM320 643L367 805H485L391
643H320Z" />
<glyph unicode="&#xdb;" glyph-name="Ucircumflex" horiz-adv-x="685" d="M221 -10T158 47T94 208V488H30V572H297V488H230V204Q230 144 263 111T356 78Q419 78 453 111T488 204V488H431V572H658V488H595V206Q595 100 530 45T347 -10Q221 -10 158 47ZM208 631L293
799H418L502 631H422L355 749L288 631H208Z" />
<glyph unicode="&#xdc;" glyph-name="Udieresis" horiz-adv-x="685" d="M221 -10T158 47T94 208V488H30V572H297V488H230V204Q230 144 263 111T356 78Q419 78 453 111T488 204V488H431V572H658V488H595V206Q595 100 530 45T347 -10Q221 -10 158 47ZM213 644T194
661T175 708Q175 737 194 754T242 772Q270 772 289 755T308 708Q308 678 289 661T242 644Q213 644 194 661ZM440 644T421 661T402 708Q402 737 421 754T468 772Q497 772 516 755T535 708Q535 678 516 661T468 644Q440 644 421 661Z" />
<glyph unicode="&#xdd;" glyph-name="Yacute" horiz-adv-x="658" d="M192 0V84H263V225L75 488H12V572H291V488H225L347 309L465 488H399V572H646V488H581L401 226V84H473V0H192ZM310 643L357 805H475L381 643H310Z" />
<glyph unicode="&#xde;" glyph-name="Thorn" horiz-adv-x="599" d="M468 434T520 400T572 296Q572 224 521 191T364 157H287V215H343Q387 215 410 235T434 296Q434 333 410 352T342 372H252V84H322V0H50V84H115V488H50V572H322V488H252V434H362Q468 434 520 400Z" />
<glyph unicode="&#xdf;" glyph-name="germandbls" horiz-adv-x="564" d="M458 307T501 270T544 165Q544 82 481 41T302 0V76Q417 76 417 172Q417 219 387 242T300 266H280V337H300Q338 338 359 361T381 423Q381 460 360 481T299 503Q253 503 228 473T203 391V76H254V0H15V76H80V383Q80
483 136 537T296 592Q388 592 438 552T488 443Q488 396 462 362T387 315Q458 307 501 270Z" />
<glyph unicode="&#xe0;" glyph-name="agrave" horiz-adv-x="473" d="M460 75V0H306L297 36Q239 -11 167 -11Q107 -11 71 21T34 106Q34 170 78 200T192 230Q242 230 288 217V245Q288 285 267 305T206 326Q146 326 73 291L44 362Q86 385 134 396T229 408Q313 408
360 367T407 253V75H460ZM143 88T159 73T204 57Q249 57 288 88V163Q255 174 216 174Q185 174 164 160T143 114Q143 88 159 73ZM194 469L100 631H218L265 469H194Z" />
<glyph unicode="&#xe1;" glyph-name="aacute" horiz-adv-x="473" d="M460 75V0H306L297 36Q239 -11 167 -11Q107 -11 71 21T34 106Q34 170 78 200T192 230Q242 230 288 217V245Q288 285 267 305T206 326Q146 326 73 291L44 362Q86 385 134 396T229 408Q313 408
360 367T407 253V75H460ZM143 88T159 73T204 57Q249 57 288 88V163Q255 174 216 174Q185 174 164 160T143 114Q143 88 159 73ZM196 469L243 631H361L267 469H196Z" />
<glyph unicode="&#xe2;" glyph-name="acircumflex" horiz-adv-x="473" d="M460 75V0H306L297 36Q239 -11 167 -11Q107 -11 71 21T34 106Q34 170 78 200T192 230Q242 230 288 217V245Q288 285 267 305T206 326Q146 326 73 291L44 362Q86 385 134 396T229 408Q313
408 360 367T407 253V75H460ZM143 88T159 73T204 57Q249 57 288 88V163Q255 174 216 174Q185 174 164 160T143 114Q143 88 159 73ZM84 457L169 625H294L378 457H298L231 575L164 457H84Z" />
<glyph unicode="&#xe3;" glyph-name="atilde" horiz-adv-x="473" d="M460 75V0H306L297 36Q239 -11 167 -11Q107 -11 71 21T34 106Q34 170 78 200T192 230Q242 230 288 217V245Q288 285 267 305T206 326Q146 326 73 291L44 362Q86 385 134 396T229 408Q313 408
360 367T407 253V75H460ZM143 88T159 73T204 57Q249 57 288 88V163Q255 174 216 174Q185 174 164 160T143 114Q143 88 159 73ZM281 470T261 476T214 495Q209 497 190 505T157 513Q124 513 120 475H64Q69 539 96 569T164 599Q182 599 199 593T246 575Q288 556 304
556Q337 556 344 595H398Q394 534 368 502T300 470Q281 470 261 476Z" />
<glyph unicode="&#xe4;" glyph-name="adieresis" horiz-adv-x="473" d="M460 75V0H306L297 36Q239 -11 167 -11Q107 -11 71 21T34 106Q34 170 78 200T192 230Q242 230 288 217V245Q288 285 267 305T206 326Q146 326 73 291L44 362Q86 385 134 396T229 408Q313
408 360 367T407 253V75H460ZM143 88T159 73T204 57Q249 57 288 88V163Q255 174 216 174Q185 174 164 160T143 114Q143 88 159 73ZM89 470T70 487T51 534Q51 563 70 580T118 598Q146 598 165 581T184 534Q184 504 165 487T118 470Q89 470 70 487ZM316 470T297 487T278
534Q278 563 297 580T344 598Q373 598 392 581T411 534Q411 504 392 487T344 470Q316 470 297 487Z" />
<glyph unicode="&#xe5;" glyph-name="aring" horiz-adv-x="473" d="M460 75V0H306L297 36Q239 -11 167 -11Q107 -11 71 21T34 106Q34 170 78 200T192 230Q242 230 288 217V245Q288 285 267 305T206 326Q146 326 73 291L44 362Q86 385 134 396T229 408Q313 408
360 367T407 253V75H460ZM143 88T159 73T204 57Q249 57 288 88V163Q255 174 216 174Q185 174 164 160T143 114Q143 88 159 73ZM191 445T167 468T143 529Q143 568 166 590T231 613Q272 613 295 591T319 529Q319 492 296 469T233 445Q191 445 167 468ZM252 485T263
497T275 529Q275 550 264 562T231 574Q210 574 198 562T186 529Q186 509 198 497T231 485Q252 485 263 497Z" />
<glyph unicode="&#xe6;" glyph-name="ae" horiz-adv-x="726" d="M112 -11T73 20T34 106Q34 170 82 199T206 229H288V247Q288 286 267 306T206 326Q146 326 73 291L44 362Q87 385 134 396T226 408Q317 408 364 359Q421 408 507 408Q597 408 649 352T701 203V178H408Q416
132 448 106T528 80Q566 80 600 93T661 131L697 58Q664 26 618 8T517 -11Q407 -11 344 55Q269 -11 178 -11Q112 -11 73 20ZM587 235Q587 279 564 303T501 327Q463 327 438 303T407 235H587ZM237 57T261 67T312 99Q294 136 291 172H226Q190 172 167 158T143 114Q143
88 161 73T210 57Q237 57 261 67Z" />
<glyph unicode="&#xe7;" glyph-name="ccedilla" horiz-adv-x="461" d="M367 0T269 -9L256 -57Q292 -62 310 -81T329 -126Q329 -159 305 -176T245 -193Q200 -193 157 -170V-135Q195 -147 213 -147Q230 -147 240 -140T250 -118Q250 -88 192 -85L222 -9Q163 -5 118
23T47 97T21 203Q21 263 47 310T119 382T222 408Q299 408 339 363V399H424V242H346Q340 281 315 303T248 325Q198 325 168 293T137 208Q137 151 171 116T261 81Q301 81 332 95T392 136L430 64Q367 0 269 -9Z" />
<glyph unicode="&#xe8;" glyph-name="egrave" horiz-adv-x="458" d="M433 178H138Q146 131 178 106T260 80Q334 80 393 131L428 58Q395 26 349 8T248 -11Q146 -11 84 45T21 199Q21 260 48 307T125 381T235 408Q327 408 380 352T433 203V178ZM319 235Q319 279 296
303T233 327Q194 327 169 303T138 235H319ZM207 469L113 631H231L278 469H207Z" />
<glyph unicode="&#xe9;" glyph-name="eacute" horiz-adv-x="458" d="M433 178H138Q146 131 178 106T260 80Q334 80 393 131L428 58Q395 26 349 8T248 -11Q146 -11 84 45T21 199Q21 260 48 307T125 381T235 408Q327 408 380 352T433 203V178ZM319 235Q319 279 296
303T233 327Q194 327 169 303T138 235H319ZM209 469L256 631H374L280 469H209Z" />
<glyph unicode="&#xea;" glyph-name="ecircumflex" horiz-adv-x="458" d="M433 178H138Q146 131 178 106T260 80Q334 80 393 131L428 58Q395 26 349 8T248 -11Q146 -11 84 45T21 199Q21 260 48 307T125 381T235 408Q327 408 380 352T433 203V178ZM319 235Q319
279 296 303T233 327Q194 327 169 303T138 235H319ZM97 457L182 625H307L391 457H311L244 575L177 457H97Z" />
<glyph unicode="&#xeb;" glyph-name="edieresis" horiz-adv-x="458" d="M433 178H138Q146 131 178 106T260 80Q334 80 393 131L428 58Q395 26 349 8T248 -11Q146 -11 84 45T21 199Q21 260 48 307T125 381T235 408Q327 408 380 352T433 203V178ZM319 235Q319 279
296 303T233 327Q194 327 169 303T138 235H319ZM102 470T83 487T64 534Q64 563 83 580T131 598Q159 598 178 581T197 534Q197 504 178 487T131 470Q102 470 83 487ZM329 470T310 487T291 534Q291 563 310 580T357 598Q386 598 405 581T424 534Q424 504 405 487T357
470Q329 470 310 487Z" />
<glyph unicode="&#xec;" glyph-name="igrave" horiz-adv-x="281" d="M18 0V79H85V318H22V398H204V79H264V0H18ZM103 468L9 630H127L174 468H103Z" />
<glyph unicode="&#xed;" glyph-name="iacute" horiz-adv-x="281" d="M18 0V79H85V318H22V398H204V79H264V0H18ZM105 468L152 630H270L176 468H105Z" />
<glyph unicode="&#xee;" glyph-name="icircumflex" horiz-adv-x="281" d="M18 0V79H85V318H22V398H204V79H264V0H18ZM-7 456L78 624H203L287 456H207L140 574L73 456H-7Z" />
<glyph unicode="&#xef;" glyph-name="idieresis" horiz-adv-x="281" d="M18 0V79H85V318H22V398H204V79H264V0H18ZM-2 469T-21 486T-40 533Q-40 562 -21 579T27 597Q55 597 74 580T93 533Q93 503 74 486T27 469Q-2 469 -21 486ZM225 469T206 486T187 533Q187 562
206 579T253 597Q282 597 301 580T320 533Q320 503 301 486T253 469Q225 469 206 486Z" />
<glyph unicode="&#xf0;" glyph-name="eth" horiz-adv-x="487" d="M458 363T458 203Q458 138 431 90T355 16T242 -10Q143 -10 87 44T30 187Q30 274 82 329T226 385Q272 385 311 363Q284 412 219 477L98 423L68 484L164 527Q110 572 64 605L120 674Q196 618 254
567L372 619L403 559L307 516Q458 363 458 203ZM291 82T317 113T343 192Q343 240 316 267T242 295Q195 295 169 266T143 187Q143 142 169 112T242 82Q291 82 317 113Z" />
<glyph unicode="&#xf1;" glyph-name="ntilde" horiz-adv-x="533" d="M527 75V0H296V75H347V251Q347 285 331 304T286 323Q246 323 200 296V75H254V0H18V75H79V323H18V398H193L194 361Q267 408 334 408Q395 408 431 371T468 271V75H527ZM323 470T303 476T256 495Q251
497 232 505T199 513Q166 513 162 475H106Q111 539 138 569T206 599Q224 599 241 593T288 575Q330 556 346 556Q379 556 386 595H440Q436 534 410 502T342 470Q323 470 303 476Z" />
<glyph unicode="&#xf2;" glyph-name="ograve" horiz-adv-x="480" d="M174 -11T125 15T48 89T21 199Q21 261 48 308T124 382T239 408Q304 408 354 382T431 309T459 200Q459 137 432 89T354 15T239 -11Q174 -11 125 15ZM287 80T315 112T344 200Q344 253 316 284T239
316Q192 316 164 285T136 199Q136 145 164 113T239 81Q287 80 315 112ZM202 469L108 631H226L273 469H202Z" />
<glyph unicode="&#xf3;" glyph-name="oacute" horiz-adv-x="480" d="M174 -11T125 15T48 89T21 199Q21 261 48 308T124 382T239 408Q304 408 354 382T431 309T459 200Q459 137 432 89T354 15T239 -11Q174 -11 125 15ZM287 80T315 112T344 200Q344 253 316 284T239
316Q192 316 164 285T136 199Q136 145 164 113T239 81Q287 80 315 112ZM204 469L251 631H369L275 469H204Z" />
<glyph unicode="&#xf4;" glyph-name="ocircumflex" horiz-adv-x="480" d="M174 -11T125 15T48 89T21 199Q21 261 48 308T124 382T239 408Q304 408 354 382T431 309T459 200Q459 137 432 89T354 15T239 -11Q174 -11 125 15ZM287 80T315 112T344 200Q344 253 316
284T239 316Q192 316 164 285T136 199Q136 145 164 113T239 81Q287 80 315 112ZM92 457L177 625H302L386 457H306L239 575L172 457H92Z" />
<glyph unicode="&#xf5;" glyph-name="otilde" horiz-adv-x="480" d="M174 -11T125 15T48 89T21 199Q21 261 48 308T124 382T239 408Q304 408 354 382T431 309T459 200Q459 137 432 89T354 15T239 -11Q174 -11 125 15ZM287 80T315 112T344 200Q344 253 316 284T239
316Q192 316 164 285T136 199Q136 145 164 113T239 81Q287 80 315 112ZM289 470T269 476T222 495Q217 497 198 505T165 513Q132 513 128 475H72Q77 539 104 569T172 599Q190 599 207 593T254 575Q296 556 312 556Q345 556 352 595H406Q402 534 376 502T308 470Q289
470 269 476Z" />
<glyph unicode="&#xf6;" glyph-name="odieresis" horiz-adv-x="480" d="M174 -11T125 15T48 89T21 199Q21 261 48 308T124 382T239 408Q304 408 354 382T431 309T459 200Q459 137 432 89T354 15T239 -11Q174 -11 125 15ZM287 80T315 112T344 200Q344 253 316 284T239
316Q192 316 164 285T136 199Q136 145 164 113T239 81Q287 80 315 112ZM97 470T78 487T59 534Q59 563 78 580T126 598Q154 598 173 581T192 534Q192 504 173 487T126 470Q97 470 78 487ZM324 470T305 487T286 534Q286 563 305 580T352 598Q381 598 400 581T419
534Q419 504 400 487T352 470Q324 470 305 487Z" />
<glyph unicode="&#xf7;" glyph-name="divide" horiz-adv-x="594" d="M245 415V519H349V415H245ZM75 246V318H519V246H75ZM245 45V149H349V45H245Z" />
<glyph unicode="&#xf8;" glyph-name="oslash" horiz-adv-x="503" d="M409 350T434 305T459 200Q459 137 432 89T354 15T239 -11Q199 -11 163 0L131 -61L91 -41L122 17Q74 43 48 90T21 199Q21 261 48 308T124 382T239 408Q287 408 323 395L354 454L394 436L363
377Q409 350 434 305ZM136 138T169 107L277 310Q261 316 239 316Q192 316 164 285T136 199Q136 138 169 107ZM288 81T316 113T344 200Q344 254 314 286L208 85Q223 81 241 81Q288 81 316 113Z" />
<glyph unicode="&#xf9;" glyph-name="ugrave" horiz-adv-x="529" d="M517 75V0H345L342 42Q273 -10 201 -10Q135 -10 101 28T66 127V323H11V398H188V144Q188 112 203 94T249 75Q294 75 337 107V323H283V398H457V75H517ZM212 469L118 631H236L283 469H212Z" />
<glyph unicode="&#xfa;" glyph-name="uacute" horiz-adv-x="529" d="M517 75V0H345L342 42Q273 -10 201 -10Q135 -10 101 28T66 127V323H11V398H188V144Q188 112 203 94T249 75Q294 75 337 107V323H283V398H457V75H517ZM214 469L261 631H379L285 469H214Z" />
<glyph unicode="&#xfb;" glyph-name="ucircumflex" horiz-adv-x="529" d="M517 75V0H345L342 42Q273 -10 201 -10Q135 -10 101 28T66 127V323H11V398H188V144Q188 112 203 94T249 75Q294 75 337 107V323H283V398H457V75H517ZM102 457L187 625H312L396 457H316L249
575L182 457H102Z" />
<glyph unicode="&#xfc;" glyph-name="udieresis" horiz-adv-x="529" d="M517 75V0H345L342 42Q273 -10 201 -10Q135 -10 101 28T66 127V323H11V398H188V144Q188 112 203 94T249 75Q294 75 337 107V323H283V398H457V75H517ZM107 470T88 487T69 534Q69 563 88 580T136
598Q164 598 183 581T202 534Q202 504 183 487T136 470Q107 470 88 487ZM334 470T315 487T296 534Q296 563 315 580T362 598Q391 598 410 581T429 534Q429 504 410 487T362 470Q334 470 315 487Z" />
<glyph unicode="&#xfd;" glyph-name="yacute" horiz-adv-x="522" d="M93 -75H133Q171 -75 189 -64T223 -17L241 26H205L57 323H4V398H232V323H181L276 112L364 323H308V398H520V323H472L313 -26Q287 -83 269 -110T222 -151T141 -165H93V-75ZM236 469L283 631H401L307
469H236Z" />
<glyph unicode="&#xfe;" glyph-name="thorn" horiz-adv-x="536" d="M15 -101H72V486H13V562H193V366Q252 411 326 411Q409 411 460 356T511 207Q511 142 486 94T417 20T319 -6Q282 -6 250 5T193 38V-101H258V-177H15V-101ZM327 84T356 115T386 203Q386 257 358
289T283 321Q234 321 193 283V117Q211 101 233 93T279 84Q327 84 356 115Z" />
<glyph unicode="&#xff;" glyph-name="ydieresis" horiz-adv-x="522" d="M93 -75H133Q171 -75 189 -64T223 -17L241 26H205L57 323H4V398H232V323H181L276 112L364 323H308V398H520V323H472L313 -26Q287 -83 269 -110T222 -151T141 -165H93V-75ZM129 470T110 487T91
534Q91 563 110 580T158 598Q186 598 205 581T224 534Q224 504 205 487T158 470Q129 470 110 487ZM356 470T337 487T318 534Q318 563 337 580T384 598Q413 598 432 581T451 534Q451 504 432 487T384 470Q356 470 337 487Z" />
<glyph unicode="&#x2013;" glyph-name="endash" horiz-adv-x="655" d="M0 197V275H655V197H0Z" />
<glyph unicode="&#x2014;" glyph-name="emdash" horiz-adv-x="785" d="M0 197V275H785V197H0Z" />
<glyph unicode="&#x2018;" glyph-name="quoteleft" horiz-adv-x="219" d="M182 556Q152 553 139 535T125 475H181V361H60V454Q60 529 88 565T182 601V556Z" />
<glyph unicode="&#x2019;" glyph-name="quoteright" horiz-adv-x="219" d="M36 407Q66 410 79 428T93 488H37V602H158V509Q158 434 130 398T36 362V407Z" />
<glyph unicode="&#x201a;" glyph-name="quotesinglbase" horiz-adv-x="219" d="M292 -81Q322 -78 335 -60T349 0H293V114H414V21Q414 -54 386 -90T292 -126V-81Z" />
<glyph unicode="&#x201c;" glyph-name="quotedblleft" horiz-adv-x="382" d="M182 556Q152 553 139 535T125 475H181V361H60V454Q60 529 88 565T182 601V556ZM345 556Q315 553 302 535T288 475H344V361H223V454Q223 529 251 565T345 601V556Z" />
<glyph unicode="&#x201d;" glyph-name="quotedblright" horiz-adv-x="382" d="M36 407Q66 410 79 428T93 488H37V602H158V509Q158 434 130 398T36 362V407ZM200 407Q230 410 243 428T257 488H201V602H322V509Q322 434 294 398T200 362V407Z" />
<glyph unicode="&#x201e;" glyph-name="quotedblbase" horiz-adv-x="382" d="M292 -81Q322 -78 335 -60T349 0H293V114H414V21Q414 -54 386 -90T292 -126V-81ZM200 -81Q230 -78 243 -60T257 0H201V114H322V21Q322 -54 294 -90T200 -126V-81Z" />
<glyph unicode="&#x2022;" glyph-name="bullet" horiz-adv-x="281" d="M97 150T68 180T38 249Q38 289 67 318T141 347Q186 347 214 320T243 249Q243 207 215 179T141 150Q97 150 68 180Z" />
<glyph unicode="&#x2039;" glyph-name="guilsinglleft" horiz-adv-x="372" d="M205 71L50 281L205 494H296L186 282L296 71H205Z" />
<glyph unicode="&#x203a;" glyph-name="guilsinglright" horiz-adv-x="372" d="M84 71L195 284L84 494H175L331 285L175 71H84Z" />
</font>
</defs>
</svg>
