<?xml version="1.0" standalone="no"?>
<!DOCTYPE svg PUBLIC "-//W3C//DTD SVG 1.1//EN" "http://www.w3.org/Graphics/SVG/1.1/DTD/svg11.dtd">
<svg xmlns="http://www.w3.org/2000/svg">
<defs >
<font id="Taviraj" horiz-adv-x="565" ><font-face
    font-family="Taviraj"
    units-per-em="1000"
    panose-1="0 0 5 0 0 0 0 0 0 0"
    ascent="1172"
    descent="-534"
    alphabetic="0" />
<glyph unicode=" " glyph-name="space" horiz-adv-x="248" />
<glyph unicode="!" glyph-name="exclam" horiz-adv-x="276" d="M179 630Q179 629 181 647Q188 679 201 694T245 710Q267 710 276 701T286 674Q286 667 282 647L277 630L149 134H107L179 630ZM77 -10T66 0T54 30Q54 60 72 79T120 98Q140 98 151 88T163 59Q163 28
145 9T98 -10Q77 -10 66 0Z" />
<glyph unicode="&quot;" glyph-name="quotedbl" horiz-adv-x="386" d="M159 646Q167 684 180 702T221 721Q240 721 248 712T256 683Q256 675 252 649L179 432H142L159 646ZM321 646Q328 684 341 702T382 721Q401 721 409 712T417 684Q417 675 413 649L340 432H303L321
646Z" />
<glyph unicode="#" glyph-name="numbersign" horiz-adv-x="806" d="M660 468L557 227H718L709 187H540L455 -10H389L474 187H259L174 -10H108L193 187H30L38 227H210L313 468H149L157 509H331L409 691H475L397 509H612L690 691H756L678 509H836L828 468H660ZM594
468H379L276 227H491L594 468Z" />
<glyph unicode="$" glyph-name="dollar" horiz-adv-x="559" d="M598 706L559 515H531Q532 521 532 534Q532 597 493 632T389 668Q320 668 275 638T219 555Q217 548 217 534Q217 505 235 483T279 446T352 409Q409 382 442 362T500 308T524 226Q524 209 519 184Q501
94 428 43T255 -10L238 -91H198L215 -8Q171 -3 142 10T79 46Q76 48 67 54T54 60Q45 60 42 43L34 0H-1L37 190H65Q61 143 83 107T143 51T228 31Q302 31 354 67T421 170Q424 184 424 195Q424 228 405 253T358 295T281 336Q228 362 196 382T141 434T118 507Q118 526
122 543Q138 621 202 663T361 710L377 789H418L401 709Q441 705 469 693T525 662Q542 652 545 652Q551 652 553 661L563 706H598Z" />
<glyph unicode="%" glyph-name="percent" horiz-adv-x="863" d="M97 4L801 720L827 691L123 -24L97 4ZM164 322T127 356T90 455Q90 482 96 512Q114 601 170 651T315 702Q388 702 424 668T461 569Q461 542 455 512Q437 422 382 372T237 322Q164 322 127 356ZM298
364T331 409T376 512Q382 536 382 563Q382 606 364 633T306 660Q254 660 221 615T176 512Q171 485 171 462Q171 419 188 392T246 364Q298 364 331 409ZM539 -11T501 24T463 124Q463 150 469 180Q487 269 543 319T689 370Q762 370 799 335T836 236Q836 210 830 180Q812
91 756 40T612 -11Q539 -11 501 24ZM672 32T704 76T750 180Q755 207 755 230Q755 272 738 300T681 328Q629 328 596 283T550 180Q545 153 545 130Q545 87 562 60T620 32Q672 32 704 76Z" />
<glyph unicode="&amp;" glyph-name="ampersand" horiz-adv-x="702" d="M138 -10T85 27T32 132Q32 153 36 170Q51 242 104 289T248 385Q221 424 207 464T192 540Q192 555 195 567Q209 635 261 671T390 708Q450 708 486 684T523 609Q523 600 519 576Q507 518 461
477T339 394Q379 333 467 216L516 151Q587 227 621 327H665Q626 209 537 122L627 0H519L466 70Q357 -10 228 -10Q138 -10 85 27ZM387 459T424 493T471 576Q474 590 474 602Q474 635 454 652T396 669Q354 669 323 645T283 575Q280 562 280 547Q280 491 324 423Q387
459 424 493ZM301 30T351 48T444 100Q374 191 337 244T273 342Q213 303 175 264T127 173Q124 155 124 140Q124 87 159 59T249 30Q301 30 351 48Z" />
<glyph unicode="&apos;" glyph-name="quotesingle" horiz-adv-x="225" d="M159 646Q167 684 180 702T221 721Q240 721 248 712T256 683Q256 675 252 649L179 432H142L159 646Z" />
<glyph unicode="(" glyph-name="parenleft" horiz-adv-x="261" d="M40 -25T40 147Q40 212 56 292Q81 421 147 534T316 732L342 722Q253 626 202 519T127 293Q108 203 108 122Q108 -18 166 -134L137 -143Q40 -25 40 147Z" />
<glyph unicode=")" glyph-name="parenright" horiz-adv-x="261" d="M-38 -134Q125 45 177 293Q195 386 195 464Q195 608 136 722L165 732Q262 615 262 433Q262 367 248 292Q221 163 156 52T-13 -143L-38 -134Z" />
<glyph unicode="*" glyph-name="asterisk" horiz-adv-x="504" d="M261 311T253 320T244 345Q244 353 245 358Q248 376 255 388T265 404Q277 421 285 439T300 488Q271 473 253 458T215 423Q198 406 187 398T158 390Q146 390 137 399T128 423Q128 441 141 456T174
476Q184 478 203 480T244 490T293 511Q264 528 243 535T199 542Q183 542 172 554T160 583Q160 602 176 617T209 632Q227 632 235 625T251 601Q261 581 273 566T309 534Q314 560 314 583Q314 602 308 620Q304 636 304 645Q304 649 306 663Q311 685 325 698T358 711Q373
711 382 702T391 677Q391 673 389 663Q385 645 378 633T369 619Q357 602 349 584T334 534Q364 550 382 565T418 600Q434 618 444 625T474 632Q487 632 497 623T507 599Q507 578 488 560T448 542Q426 542 402 535T342 511Q365 496 383 490T422 481L446 476Q459 474
466 464T474 441Q474 421 458 406T425 390Q407 390 399 397T381 424Q372 444 360 459T324 488Q319 462 319 440Q319 420 325 402Q329 386 329 378Q329 366 327 358Q323 337 309 324T276 311Q261 311 253 320Z" />
<glyph unicode="+" glyph-name="plus" horiz-adv-x="559" d="M258 308H76L86 359H269L309 557H399L359 359H540L530 308H348L308 111H218L258 308Z" />
<glyph unicode="," glyph-name="comma" horiz-adv-x="234" d="M2 -119Q29 -94 44 -70T65 -16Q66 -9 64 -6T53 4Q43 11 38 18T32 38Q32 46 33 51Q38 74 55 89T98 104Q122 104 135 90T148 50Q148 38 145 24Q137 -15 102 -61T25 -138L2 -119Z" />
<glyph unicode="-" glyph-name="hyphen" horiz-adv-x="367" d="M63 305H349L338 249H52L63 305Z" />
<glyph unicode="." glyph-name="period" horiz-adv-x="234" d="M54 -10T42 2T29 34Q29 66 49 86T100 107Q121 107 133 95T146 63Q146 32 126 11T76 -10Q54 -10 42 2Z" />
<glyph unicode="/" glyph-name="slash" horiz-adv-x="353" d="M383 706H431L36 0H-12L383 706Z" />
<glyph unicode="0" glyph-name="zero" horiz-adv-x="558" d="M55 -10T55 199Q55 263 72 350Q145 710 384 710Q567 710 567 499Q567 435 550 350Q477 -10 237 -10Q55 -10 55 199ZM323 30T374 113T456 350Q476 450 476 520Q476 593 452 631T376 670Q230 670 166
350Q145 245 145 179Q145 30 246 30Q323 30 374 113Z" />
<glyph unicode="1" glyph-name="one" horiz-adv-x="558" d="M108 26H148Q202 26 211 62L329 641L193 584L203 632L440 724L305 62Q304 59 304 54Q304 26 353 26H392L387 0H104L108 26Z" />
<glyph unicode="2" glyph-name="two" horiz-adv-x="558" d="M14 53Q36 104 73 146T151 220T253 294Q346 357 402 413T472 538Q476 555 476 576Q476 619 450 644T365 670Q309 670 272 644T226 572Q223 557 209 546T176 535Q159 535 149 543T138 567Q138 574 139
578Q146 613 180 643T266 692T379 710Q463 710 514 677T565 573Q565 556 560 529Q549 474 513 429T431 351T312 271Q231 221 179 178T101 80L97 64H392Q417 64 435 88T470 154H493L451 0H4L14 53Z" />
<glyph unicode="3" glyph-name="three" horiz-adv-x="558" d="M166 -10T124 4T58 45T34 102Q34 132 50 147T90 163Q109 163 118 153T125 128Q123 120 123 106Q123 70 150 50T227 30Q294 30 343 75T408 199Q411 217 411 234Q411 287 379 319T290 351H211L220 392H299Q345
392 381 415T439 474T468 545Q472 561 472 579Q472 621 446 645T367 670Q311 670 274 644T228 572Q225 557 211 546T178 535Q161 535 151 543T140 568L142 580Q149 616 182 646T267 693T381 710Q459 710 509 677T559 576Q559 555 555 535Q544 478 499 433T395 375L394
371Q440 360 472 327T504 239Q504 218 500 201Q478 93 400 42T221 -10Q166 -10 124 4Z" />
<glyph unicode="4" glyph-name="four" horiz-adv-x="558" d="M208 26H248Q302 26 311 62L332 168H25L36 222L441 703H536L437 221H539L516 168H426L405 62Q404 59 404 53Q404 26 454 26H492L487 0H204L208 26ZM343 221L426 628L87 221H343Z" />
<glyph unicode="5" glyph-name="five" horiz-adv-x="558" d="M161 -10T119 5T57 44T36 93Q36 100 37 104Q42 128 54 140T84 152Q111 152 111 119Q109 73 139 52T220 30Q290 30 340 82T406 216Q412 246 412 276Q412 330 387 363T306 397Q216 397 134 321L104 333L219
700H503Q534 700 550 737H575L547 638H244L166 386Q238 438 331 438Q423 438 464 395T506 279Q506 255 499 216Q479 117 407 54T221 -10Q161 -10 119 5Z" />
<glyph unicode="6" glyph-name="six" horiz-adv-x="558" d="M57 -10T57 183Q57 235 71 305Q112 503 197 606T402 710Q479 710 522 678T566 599Q566 568 551 552T513 535Q481 535 481 562Q481 566 483 576Q485 592 485 598Q485 633 462 651T393 670Q322 670 263
588T170 339Q202 392 254 418T358 445Q435 445 479 403T523 284Q523 261 516 224Q494 116 423 53T238 -10Q57 -10 57 183ZM314 30T359 80T421 213Q429 251 429 282Q429 339 404 372T328 405Q270 405 222 353T156 219Q149 182 149 158Q149 101 174 66T249 30Q314
30 359 80Z" />
<glyph unicode="7" glyph-name="seven" horiz-adv-x="558" d="M144 -4T135 4T125 29Q125 36 126 40Q156 187 262 347T507 638H217Q195 638 178 613T154 559H127L156 700H607L600 666Q456 523 360 362T226 48Q219 22 205 9T160 -4Q144 -4 135 4Z" />
<glyph unicode="8" glyph-name="eight" horiz-adv-x="558" d="M546 487T505 442T405 374Q457 348 486 316T515 231Q515 215 510 188Q492 98 420 44T234 -10Q138 -10 89 29T39 138Q39 157 44 182Q57 246 102 294T209 370Q173 393 154 423T134 495Q134 516 138 536Q155
618 221 664T385 710Q467 710 515 676T563 580Q563 561 559 544Q546 487 505 442ZM417 414T453 454T498 544Q501 561 501 574Q501 621 469 645T384 670Q323 670 279 640T223 551Q220 536 220 523Q220 489 239 466T285 429T361 393Q417 414 453 454ZM425 188T425
199Q425 230 408 252T364 290T293 326L250 347Q199 324 161 278T111 179Q107 162 107 143Q107 89 143 60T234 30Q300 30 354 68T422 174Q425 188 425 199Z" />
<glyph unicode="9" glyph-name="nine" horiz-adv-x="558" d="M141 -10T99 21T56 99Q56 130 70 147T108 164Q139 164 139 137Q139 132 137 122Q135 106 135 100Q135 66 158 48T228 30Q299 30 357 111T451 360Q419 307 364 279T256 250Q180 250 139 293T98 411Q98
444 105 476Q126 583 197 646T382 710Q563 710 563 515Q563 463 549 393Q509 196 424 93T218 -10Q141 -10 99 21ZM329 292T365 316T428 384T466 480Q472 510 472 539Q472 597 447 633T372 669Q307 669 262 619T200 486Q192 446 192 414Q192 357 216 325T290 292Q329
292 365 316Z" />
<glyph unicode=":" glyph-name="colon" horiz-adv-x="234" d="M134 383T122 395T109 429Q109 458 129 479T180 500Q202 500 214 488T226 455Q226 424 206 404T156 383Q134 383 122 395ZM54 -10T42 2T29 34Q29 66 49 86T100 107Q121 107 133 95T146 63Q146 32 126
11T76 -10Q54 -10 42 2Z" />
<glyph unicode=";" glyph-name="semicolon" horiz-adv-x="234" d="M134 383T122 395T109 429Q109 458 129 479T180 500Q202 500 214 488T226 455Q226 424 206 404T156 383Q134 383 122 395ZM2 -119Q29 -94 44 -70T65 -16Q66 -6 52 3Q42 11 37 18T32 38Q32 46 33
51Q38 74 55 89T98 104Q122 104 135 90T148 50Q148 38 145 24Q137 -15 102 -61T25 -138L2 -119Z" />
<glyph unicode="&lt;" glyph-name="less" horiz-adv-x="559" d="M69 315L76 347L589 593L577 534L158 331L493 127L482 69L69 315Z" />
<glyph unicode="=" glyph-name="equal" horiz-adv-x="559" d="M98 432H558L547 381H87L98 432ZM60 240H519L509 189H49L60 240Z" />
<glyph unicode="&gt;" glyph-name="greater" horiz-adv-x="559" d="M35 127L454 331L118 534L131 593L544 347L538 315L23 69L35 127Z" />
<glyph unicode="?" glyph-name="question" horiz-adv-x="448" d="M163 183T168 204Q181 265 213 307T300 399Q347 442 371 473T405 545Q410 568 410 585Q410 670 312 670Q262 670 228 644T183 572Q181 557 169 546T137 535Q103 535 103 566Q103 574 104 578Q111
613 141 643T219 691T325 710Q401 710 448 680T496 582Q496 560 492 540Q481 487 449 451T356 369Q296 323 263 286T218 195Q215 182 215 165H164Q163 183 168 204ZM130 -10T119 0T108 30Q108 39 109 44Q114 69 131 84T174 99Q194 99 205 89T217 59Q217 28 198
9T151 -10Q130 -10 119 0Z" />
<glyph unicode="@" glyph-name="at" horiz-adv-x="770" d="M187 -56T115 13T43 199Q43 235 53 287Q74 392 136 479T293 618T499 669Q581 669 642 640T736 555T770 425Q770 384 762 348Q750 288 721 237T650 155T565 125Q532 125 510 146T491 204Q465 165 422 145T340
125Q283 125 252 154T220 238Q220 257 225 284Q236 340 268 387T349 464T460 493Q496 493 531 485T592 459L526 226Q523 214 523 206Q523 185 537 175T575 164Q603 164 632 187T684 253T718 349Q725 383 725 417Q725 515 663 572T495 630Q397 630 316 587T179 466T104
291Q94 239 94 202Q94 100 154 42T338 -16Q382 -16 436 -7T541 25L532 -19Q429 -56 323 -56Q187 -56 115 13ZM397 165T429 195T476 273L522 433Q492 448 453 448Q399 448 355 402T296 282Q291 255 291 239Q291 203 308 184T358 165Q397 165 429 195Z" />
<glyph unicode="A" glyph-name="A" horiz-adv-x="704" d="M665 26L660 0H418L422 26H439Q466 26 480 38T491 73L471 210H202L125 73Q120 64 120 55Q120 41 132 34T161 26H179L174 0H-34L-29 26H-14Q5 26 27 36T59 62L413 684L489 714L595 61Q599 45 614 36T648
26H665ZM465 250L416 591L224 250H465Z" />
<glyph unicode="B" glyph-name="B" horiz-adv-x="585" d="M-16 26H12Q40 26 55 34T75 62L192 637Q193 640 193 645Q193 673 144 673H116L121 700H416Q503 700 548 669T593 576Q593 559 588 534Q576 476 535 431T431 370V367Q502 356 532 320T562 233Q562 212 557
189Q538 98 474 49T303 0H-21L-16 26ZM330 386Q392 386 436 426T493 531Q498 554 498 570Q498 659 375 659H291L235 386H330ZM272 40Q353 40 402 79T467 193Q472 220 472 238Q472 293 435 319T322 346H227L164 40H272Z" />
<glyph unicode="C" glyph-name="C" horiz-adv-x="644" d="M190 -10T126 54T61 237Q61 289 73 350Q108 519 212 614T468 710Q530 710 573 692T643 650Q647 646 651 646Q659 646 662 661L671 705H706L667 513H639Q640 519 640 531Q640 596 595 632T478 668Q360 668
279 582T168 350Q155 283 155 235Q155 138 200 85T338 31Q405 31 470 65T573 171H611Q576 87 497 39T315 -10Q190 -10 126 54Z" />
<glyph unicode="D" glyph-name="D" horiz-adv-x="661" d="M-17 26H12Q66 26 75 62L192 637Q193 640 193 645Q193 673 144 673H115L120 700H423Q546 700 607 641T668 468Q668 412 655 350Q619 177 526 89T280 0H-22L-17 26ZM286 39Q390 39 459 120T560 350Q574
420 574 472Q574 563 535 611T415 660H291L164 39H286Z" />
<glyph unicode="E" glyph-name="E" horiz-adv-x="583" d="M636 700L602 527H576Q580 551 580 574Q580 610 567 634T519 659H289L233 388H404Q433 388 446 412T474 485H497L449 251H426Q430 287 430 302Q430 324 423 336T396 348H225L162 40H407Q448 40 475 81T520
179H546L493 0H-23L-18 26H9Q64 26 73 62L190 637Q191 640 191 645Q191 673 141 673H114L119 700H636Z" />
<glyph unicode="F" glyph-name="F" horiz-adv-x="557" d="M636 700L602 527H576Q580 551 580 574Q580 659 520 659H289L228 360H384Q413 360 427 384T455 457H478L430 223H407Q411 259 411 273Q411 295 404 307T376 320H220L167 62Q166 59 166 53Q166 26 216 26H243L238
0H-23L-18 26H10Q64 26 73 62L190 637Q191 640 191 645Q191 673 142 673H114L119 700H636Z" />
<glyph unicode="G" glyph-name="G" horiz-adv-x="684" d="M190 -10T126 54T61 237Q61 289 73 350Q108 519 212 614T470 710Q523 710 571 693T644 651Q649 646 654 646Q663 646 666 661L675 705H709L671 513H643L644 529Q644 596 598 632T479 668Q362 668 280 582T168
350Q155 283 155 235Q155 138 200 85T338 31Q379 31 424 41T505 78L545 277Q547 287 547 291Q547 310 532 318T483 327H466L470 350H709L706 330H694Q665 330 653 314T630 249L593 69Q533 29 468 10T315 -10Q190 -10 126 54Z" />
<glyph unicode="H" glyph-name="H" horiz-adv-x="742" d="M825 700L820 673H792Q735 673 729 637L612 62Q611 59 611 53Q611 26 660 26H687L683 0H421L426 26H453Q510 26 517 62L576 348H231L173 62Q172 59 172 53Q172 26 221 26H250L245 0H-17L-12 26H15Q44 26
59 34T79 62L196 637Q197 640 197 645Q197 673 148 673H120L125 700H387L382 673H353Q297 673 290 637L240 389H584L635 637Q638 656 626 664T586 673H559L564 700H825Z" />
<glyph unicode="I" glyph-name="I" horiz-adv-x="311" d="M-9 26H19Q74 26 83 62L200 637Q206 673 152 673H124L129 700H390L385 673H358Q301 673 294 637L177 62Q176 59 176 53Q176 26 226 26H252L248 0H-13L-9 26Z" />
<glyph unicode="J" glyph-name="J" horiz-adv-x="355" d="M-25 -93Q37 -80 76 -33T132 90L243 637Q244 640 244 645Q244 673 195 673H167L172 700H434L429 673H400Q344 673 337 637L225 89Q205 -9 138 -61T-26 -114L-25 -93Z" />
<glyph unicode="K" glyph-name="K" horiz-adv-x="673" d="M728 700L723 673H704Q686 673 672 667T642 649L300 381L527 72Q542 51 557 39T596 26H624L619 0H466L227 324H226L173 62Q172 59 172 53Q172 26 221 26H250L245 0H-17L-12 26H15Q44 26 59 34T79 62L196
637Q197 640 197 645Q197 673 148 673H120L125 700H387L382 673H353Q297 673 290 637L239 386L568 640Q575 646 578 654Q581 673 545 673H531L536 700H728Z" />
<glyph unicode="L" glyph-name="L" horiz-adv-x="573" d="M-11 26H17Q73 26 82 62L199 637Q200 640 200 645Q200 673 150 673H122L127 700H389L384 673H356Q300 673 293 637L180 81Q179 77 179 71Q179 40 228 40H410Q449 40 480 88T526 186H553L499 0H-15L-11 26Z" />
<glyph unicode="M" glyph-name="M" horiz-adv-x="867" d="M-12 26H15Q44 26 59 34T79 62L196 637Q197 640 197 645Q197 673 148 673H120L125 700H308L423 165L757 700H949L945 673H917Q860 673 853 637L736 62Q735 59 735 54Q735 26 784 26H812L807 0H545L550
26H578Q633 26 642 62L755 614L414 76H358L239 612L127 62Q126 59 126 53Q126 26 175 26H204L199 0H-17L-12 26Z" />
<glyph unicode="N" glyph-name="N" horiz-adv-x="725" d="M-12 26H15Q44 26 59 34T79 62L196 637Q197 640 197 645Q197 673 148 673H120L125 700H312L558 126L662 637Q663 640 663 646Q663 660 651 666T614 673H587L591 700H807L803 673H774Q717 673 710 637L581
0H525L245 642L127 62Q126 59 126 53Q126 26 175 26H204L199 0H-17L-12 26Z" />
<glyph unicode="O" glyph-name="O" horiz-adv-x="725" d="M191 -10T123 54T55 240Q55 292 67 350Q102 520 205 615T468 710Q599 710 667 645T735 459Q735 409 723 350Q688 179 585 85T322 -10Q191 -10 123 54ZM444 32T520 116T628 350Q640 410 640 462Q640 560
595 614T459 668Q345 668 269 583T162 350Q149 283 149 237Q149 139 194 86T329 32Q444 32 520 116Z" />
<glyph unicode="P" glyph-name="P" horiz-adv-x="575" d="M-12 26H15Q44 26 59 34T79 62L196 637Q197 640 197 645Q197 673 148 673H120L125 700H453Q625 700 625 555Q625 525 617 487Q574 274 367 274H216L173 62Q172 59 172 53Q172 26 221 26H250L245 0H-17L-12
26ZM357 314Q426 314 467 359T525 487Q532 519 532 551Q532 659 428 659H295L224 314H357Z" />
<glyph unicode="Q" glyph-name="Q" horiz-adv-x="725" d="M307 -10T300 -9Q269 -25 254 -35H266Q294 -35 318 -43T380 -70Q415 -87 440 -96T492 -105Q525 -105 549 -87T591 -29H610Q610 -35 608 -47Q597 -97 553 -133T457 -169Q419 -169 390 -154T320 -110Q289
-87 270 -77T228 -66Q182 -66 132 -95L127 -81Q190 -32 254 -5Q156 11 106 73T55 240Q55 292 67 350Q102 520 205 615T468 710Q599 710 667 645T735 459Q735 409 723 350Q688 179 585 85T322 -10Q307 -10 300 -9ZM149 139T194 86T329 32Q444 32 520 116T628 350Q640
410 640 462Q640 560 595 614T459 668Q345 668 269 583T162 350Q149 283 149 237Q149 139 194 86Z" />
<glyph unicode="R" glyph-name="R" horiz-adv-x="640" d="M600 417T560 368T450 300Q475 283 482 254T493 175Q496 126 501 97T524 48T574 26L569 0H492Q446 0 425 25T399 102Q397 136 397 155Q397 206 392 238T369 290H366H219L173 62Q172 59 172 53Q172 26 221
26H250L245 0H-17L-12 26H15Q44 26 59 34T79 62L196 637Q197 640 197 645Q197 673 148 673H120L125 700H449Q540 700 582 664T624 559Q624 527 617 495Q600 417 560 368ZM532 534T532 554Q532 659 423 659H295L228 331H356Q492 331 525 495Q532 534 532 554Z" />
<glyph unicode="S" glyph-name="S" horiz-adv-x="559" d="M191 -10T153 6T80 46Q59 60 54 60Q45 60 42 43L34 0H-1L37 190H65Q61 143 83 107T143 51T228 31Q302 31 354 67T421 170Q424 184 424 195Q424 228 405 253T358 295T281 336Q228 362 196 382T141 434T118
507Q118 526 122 543Q139 624 208 667T377 710Q426 710 461 696T525 662Q542 652 545 652Q551 652 553 661L563 706H598L559 515H531Q532 521 532 534Q532 597 493 632T389 668Q320 668 275 638T219 555Q217 548 217 534Q217 505 235 483T279 446T352 409Q409 382
442 362T500 308T524 226Q524 209 519 184Q500 92 425 41T246 -10Q191 -10 153 6Z" />
<glyph unicode="T" glyph-name="T" horiz-adv-x="626" d="M149 26H176Q231 26 240 62L362 659H228Q190 659 165 609T127 508H101L140 700H693L654 508H628Q634 538 634 575Q634 659 589 659H456L334 62Q333 59 333 53Q333 26 382 26H410L405 0H144L149 26Z" />
<glyph unicode="U" glyph-name="U" horiz-adv-x="712" d="M211 -10T154 26T97 143Q97 173 104 204L192 637Q196 655 184 664T148 673H126L131 700H372L368 673H346Q322 673 306 664T286 637L196 197Q191 175 191 148Q191 83 232 57T348 31Q426 31 485 68T564 197L654
637Q658 655 646 664T610 673H588L593 700H788L783 673H761Q738 673 722 664T702 637L613 204Q590 93 516 42T319 -10Q211 -10 154 26Z" />
<glyph unicode="V" glyph-name="V" horiz-adv-x="695" d="M177 638Q175 654 163 663T134 673H108L113 700H355L350 673H322Q303 673 290 663T278 637L347 105L633 634Q638 644 638 651Q638 662 630 667T609 673H576L581 700H789L784 673H754Q736 673 721 663T696
636L343 -4H273L177 638Z" />
<glyph unicode="W" glyph-name="W" horiz-adv-x="971" d="M1065 700L1060 673H1033Q1014 673 997 664T972 637L665 -4H607L553 477L294 -4H225L177 638Q176 654 163 663T131 673H108L113 700H355L350 673H328Q305 673 291 663T278 636L299 108L543 563L535 638Q533
654 518 663T484 673H467L471 700H703L698 673H675Q656 673 640 663T625 639L671 108L910 636Q913 644 913 649Q913 660 903 666T879 673H852L856 700H1065Z" />
<glyph unicode="X" glyph-name="X" horiz-adv-x="679" d="M745 700L740 673H709Q695 673 685 666T665 649T652 636L417 381L567 62Q584 27 610 27H636L631 0H389L394 27H422Q442 27 457 38T466 63L351 308L128 66Q120 58 120 50Q120 41 130 34T152 27H184L180
0H-29L-24 27H7Q21 27 31 34T51 51T64 64L329 353L195 638Q187 655 178 664T153 673H127L132 700H373L369 673H340Q323 673 309 665T295 645Q295 643 297 637L396 425L588 634Q597 643 597 651Q597 660 587 666T564 673H532L537 700H745Z" />
<glyph unicode="Y" glyph-name="Y" horiz-adv-x="661" d="M159 26H186Q242 26 251 62L298 292L177 638Q172 654 160 663T132 673H108L113 700H349L345 673H320Q299 673 284 662T273 637L370 338L600 634Q606 643 606 649Q606 660 595 666T569 673H543L548 700H756L751
673H730Q712 673 694 663T663 637L391 291L345 62Q344 59 344 53Q344 26 393 26H420L416 0H155L159 26Z" />
<glyph unicode="Z" glyph-name="Z" horiz-adv-x="548" d="M-12 25L511 659H263Q216 659 191 618T153 527H128L162 700H620L616 680L93 40H373Q443 40 488 178H513L461 0H-16L-12 25Z" />
<glyph unicode="[" glyph-name="bracketleft" horiz-adv-x="282" d="M155 702H349L341 663H218L66 -84H189L180 -124H-14L155 702Z" />
<glyph unicode="\" glyph-name="backslash" horiz-adv-x="353" d="M132 706H179L286 0H239L132 706Z" />
<glyph unicode="]" glyph-name="bracketright" horiz-adv-x="282" d="M-20 -84H103L254 663H132L140 702H335L166 -124H-29L-20 -84Z" />
<glyph unicode="^" glyph-name="asciicircum" horiz-adv-x="531" d="M338 720H409L515 311H447L364 673L132 311H65L338 720Z" />
<glyph unicode="_" glyph-name="underscore" horiz-adv-x="438" d="M-57 -73H388L379 -114H-65L-57 -73Z" />
<glyph unicode="`" glyph-name="grave" horiz-adv-x="472" d="M271 663Q248 678 248 698Q248 711 257 723T284 735Q297 735 308 727T325 711L413 605L391 580L271 663Z" />
<glyph unicode="a" glyph-name="a" horiz-adv-x="547" d="M98 -10T69 30T39 139Q39 181 48 224Q65 306 107 364T205 451T318 480Q360 480 389 471T432 435L439 470H529L445 58Q444 53 444 45Q444 35 448 31T461 27Q475 27 497 35L493 17Q476 5 451 -2T403 -9Q379
-9 365 1T350 32Q350 38 351 42L370 130Q312 59 257 25T162 -10Q98 -10 69 30ZM223 40T261 69T334 138T385 206L419 368Q409 437 324 437Q294 437 256 416T183 343T131 211Q125 180 125 155Q125 102 147 71T197 40Q223 40 261 69Z" />
<glyph unicode="b" glyph-name="b" horiz-adv-x="560" d="M209 -10T171 11T120 70L83 0H39L169 636Q170 638 170 643Q170 651 165 654T153 658Q147 658 137 655T124 650L121 672L251 717H276L211 400Q241 440 288 460T380 480Q459 480 503 438T547 314Q547 285
539 243Q511 108 443 49T270 -10Q209 -10 171 11ZM405 29T448 238Q457 282 457 317Q457 378 430 409T346 441Q312 441 279 422T222 368T188 289L164 173Q161 157 161 141Q161 94 188 62T267 29Q405 29 448 238Z" />
<glyph unicode="c" glyph-name="c" horiz-adv-x="490" d="M127 -10T78 34T28 164Q28 193 36 235Q59 348 135 414T321 480Q403 480 443 453T484 380Q484 365 482 357Q480 344 469 332T443 320Q429 320 422 327T415 345Q415 350 416 353Q416 358 420 368T425 384Q425
396 415 409T385 432T334 442Q254 442 201 385T127 235Q120 201 120 169Q120 103 151 65T238 27Q370 27 422 168H451Q427 88 368 39T219 -10Q127 -10 78 34Z" />
<glyph unicode="d" glyph-name="d" horiz-adv-x="563" d="M98 -10T69 30T39 139Q39 181 48 224Q65 306 107 364T205 451T318 480Q416 480 440 435L481 636Q482 639 482 643Q482 658 465 658Q460 658 436 650L433 672L564 717H588L453 58Q451 48 451 44Q451 27
468 27Q483 27 505 35L501 17Q484 5 459 -2T411 -9Q387 -9 373 0T358 31Q358 38 359 42L377 130Q320 60 261 25T162 -10Q98 -10 69 30ZM223 40T263 69T340 139T393 206L426 368Q422 403 394 420T324 437Q294 437 256 416T183 343T131 211Q125 180 125 155Q125 102
147 71T197 40Q223 40 263 69Z" />
<glyph unicode="e" glyph-name="e" horiz-adv-x="494" d="M477 247T366 207T120 161Q122 98 154 63T240 27Q304 27 352 61T427 168H456Q432 88 372 39T221 -10Q128 -10 78 35T28 165Q28 195 36 235Q59 349 134 414T319 480Q411 480 455 451T499 371Q499 357 496
342Q477 247 366 207ZM422 349T422 363Q422 398 397 419T317 442Q243 442 194 383T127 235Q122 216 121 196Q233 204 319 238T420 341Q422 349 422 363Z" />
<glyph unicode="f" glyph-name="f" horiz-adv-x="384" d="M429 723T459 702T490 642Q490 608 476 593T440 578Q410 578 410 600Q410 606 411 609Q413 617 420 627T428 643Q432 661 415 672T373 684Q298 684 278 585L255 470H392L384 432H247L130 -144L37 -151L156
432H71L79 470H164L186 576Q200 646 248 684T368 723Q429 723 459 702Z" />
<glyph unicode="g" glyph-name="g" horiz-adv-x="487" d="M534 480T548 469T560 439Q556 423 546 414T520 405Q510 405 506 409T499 421Q495 430 490 434T470 439Q457 439 431 427Q452 399 452 358Q452 339 448 322Q433 248 374 207T222 166Q161 166 122 184Q83
157 83 130Q83 114 98 105T141 95H296Q347 95 379 74T412 12Q412 -3 410 -11Q396 -82 327 -119T151 -156Q70 -156 25 -131T-21 -59Q-21 11 60 49Q40 57 31 71T21 104Q21 157 95 200Q55 231 55 286Q55 305 59 322Q74 397 134 438T286 480Q369 480 412 446Q458 480
507 480Q534 480 548 469ZM363 346T363 356Q363 395 342 418T277 442Q225 442 192 409T148 322Q144 306 144 286Q144 248 165 225T228 202Q280 202 314 236T359 322Q363 346 363 356ZM86 24T68 4T46 -37Q44 -47 44 -52Q44 -85 75 -102T162 -119Q231 -119 275 -96T328
-27Q330 -17 330 -13Q330 10 310 21T245 33H123Q86 24 68 4Z" />
<glyph unicode="h" glyph-name="h" horiz-adv-x="599" d="M482 58Q480 48 480 44Q480 27 497 27Q509 27 535 35L531 17Q513 4 490 -3T444 -10Q418 -10 405 3T391 43Q391 55 394 70L443 307Q450 346 450 363Q450 403 430 421T371 439Q329 439 281 394T199 281L142
0L50 -10L182 636Q183 639 183 643Q183 658 166 658Q161 658 152 655T136 650L134 672L264 717H288L211 341Q242 402 292 441T404 480Q473 480 507 456T541 374Q541 349 535 319L482 58Z" />
<glyph unicode="i" glyph-name="i" horiz-adv-x="281" d="M188 562T176 573T163 603Q163 632 182 651T230 671Q251 671 263 659T276 627Q276 621 275 617Q270 592 251 577T208 562Q188 562 176 573ZM98 -10T81 0T64 32Q64 38 65 42L137 395Q138 398 138 402Q138
416 122 416Q115 416 91 408L90 431L225 476H244L158 58Q157 53 157 45Q157 27 175 27Q189 27 211 35L207 17Q190 4 167 -3T122 -10Q98 -10 81 0Z" />
<glyph unicode="j" glyph-name="j" horiz-adv-x="286" d="M214 562T202 573T189 603Q189 632 208 651T256 671Q277 671 289 660T301 629Q301 600 282 581T234 562Q214 562 202 573ZM-36 -109Q11 -90 36 -61T74 4T99 103L158 393Q159 396 159 400Q159 415 143 415Q138
415 129 412T113 407L111 429L240 474H265L190 108Q169 5 118 -54T-36 -132V-109Z" />
<glyph unicode="k" glyph-name="k" horiz-adv-x="567" d="M563 470L558 444H537Q524 444 506 437T473 418L259 258L428 56Q440 41 459 33T494 25H520L516 0H367L192 207L183 201L142 0L49 -10L181 636Q182 639 182 643Q182 658 165 658Q160 658 150 655T136 650L133
672L263 717H288L194 258L482 470H563Z" />
<glyph unicode="l" glyph-name="l" horiz-adv-x="290" d="M103 -10T86 0T69 31Q69 38 70 42L192 636Q193 639 193 643Q193 658 177 658Q171 658 147 650L144 672L275 717H299L164 58L162 45Q162 27 180 27Q193 27 217 35L213 17Q196 4 173 -3T128 -10Q103 -10 86 0Z" />
<glyph unicode="m" glyph-name="m" horiz-adv-x="861" d="M746 58Q744 48 744 44Q744 27 761 27Q774 27 798 35L794 17Q777 4 754 -3T708 -10Q685 -10 668 0T651 31Q651 38 652 42L711 331Q716 358 716 374Q716 439 651 439Q621 439 587 411T525 337T485 242L436
0L347 -10L417 331Q421 350 421 369Q421 439 353 439Q323 439 291 411T231 338T191 244L142 0L50 -10L132 393Q133 396 133 400Q133 415 117 415Q112 415 102 412T86 407L85 429L214 474H238L213 351Q242 404 289 442T389 480Q451 480 480 453T509 379Q509 370
507 350Q537 403 585 441T685 480Q748 480 778 453T808 378Q808 357 804 340L746 58Z" />
<glyph unicode="n" glyph-name="n" horiz-adv-x="599" d="M481 58Q479 48 479 44Q479 26 496 26Q504 26 516 29T533 34L529 17Q512 4 489 -3T444 -10Q420 -10 403 0T386 30Q386 37 387 41L447 337Q451 353 451 371Q451 439 374 439Q339 439 302 412T235 340T192
247L142 0L50 -10L132 393Q133 396 133 400Q133 415 117 415Q112 415 102 412T86 407L85 429L214 474H238L213 348Q246 402 299 441T410 480Q479 480 511 454T544 380Q544 369 540 345L481 58Z" />
<glyph unicode="o" glyph-name="o" horiz-adv-x="541" d="M133 -10T81 36T29 167Q29 201 36 235Q60 351 137 415T330 480Q427 480 479 435T531 305Q531 275 523 235Q500 118 423 54T229 -10Q133 -10 81 36ZM309 29T361 83T433 235Q441 277 441 306Q441 371 410
406T322 441Q251 441 199 388T126 235Q118 193 118 165Q118 99 149 64T238 29Q309 29 361 83Z" />
<glyph unicode="p" glyph-name="p" horiz-adv-x="569" d="M133 393Q134 396 134 400Q134 415 118 415Q113 415 104 412T88 407L86 429L215 474H240L217 359Q248 409 298 444T403 480Q481 480 522 441T563 324Q563 289 554 247Q526 112 457 51T277 -10Q232 -10
198 10T156 60L98 -225L6 -232L133 393ZM420 29T464 242Q475 295 475 331Q475 386 452 413T378 441Q345 441 308 413T241 343T197 259L177 161Q174 145 174 129Q174 85 201 57T281 29Q420 29 464 242Z" />
<glyph unicode="q" glyph-name="q" horiz-adv-x="571" d="M344 -224T330 -215T315 -186Q315 -178 316 -173L370 91Q339 45 291 18T192 -10Q31 -10 31 154Q31 197 41 247Q64 360 132 420T291 480Q348 480 387 461T443 405L477 474H538L409 -157L407 -170Q407 -188
425 -188Q437 -188 461 -180L457 -198Q440 -210 415 -217T367 -224Q344 -224 330 -215ZM269 29T305 59T364 133T396 220L414 308Q417 323 417 337Q417 386 384 413T308 441Q246 441 198 390T130 242Q120 190 120 157Q120 29 226 29Q269 29 305 59Z" />
<glyph unicode="r" glyph-name="r" horiz-adv-x="389" d="M399 480T416 472T433 446Q433 440 432 437Q428 419 417 409T390 398Q379 398 374 401T364 413Q359 421 354 424T339 428Q301 428 265 389T210 284L152 0L59 -10L141 393Q142 396 142 400Q142 415 126
415Q121 415 112 412T96 407L94 429L224 474H248L231 388Q254 429 293 454T373 480Q399 480 416 472Z" />
<glyph unicode="s" glyph-name="s" horiz-adv-x="438" d="M96 -10T57 16T17 85Q17 91 19 103Q23 119 34 129T60 139Q72 139 79 133T86 115Q86 108 82 99T78 82Q78 63 100 46T167 29Q223 29 258 50T301 111Q302 115 302 122Q302 147 279 163T210 197Q168 214 142
228T97 267T78 328Q78 343 81 359Q92 417 143 448T276 480Q355 480 392 455T430 388Q430 374 428 366Q425 351 414 341T388 331Q376 331 368 337T360 355Q360 363 365 372T371 388Q371 408 351 424T287 441Q237 441 204 418T171 356Q171 326 195 310T270 273Q311
257 336 244T378 207T396 151Q396 137 393 122Q379 56 319 23T178 -10Q96 -10 57 16Z" />
<glyph unicode="t" glyph-name="t" horiz-adv-x="381" d="M168 126Q164 106 164 86Q164 56 177 42T220 27Q250 27 275 42T311 91H343Q328 39 288 15T196 -10Q136 -10 104 11T72 83Q72 100 77 125L139 432H65L73 470H147L159 531L247 603H266L239 470H372L365 432H231L168
126Z" />
<glyph unicode="u" glyph-name="u" horiz-adv-x="580" d="M465 27T482 27Q496 27 518 35L515 17Q479 -10 431 -10Q405 -10 392 5T378 48Q378 61 381 74Q352 39 303 15T200 -10Q131 -10 96 17T60 94Q60 109 63 125L118 393Q119 396 119 400Q119 415 103 415Q98
415 88 412T72 407L70 429L200 474H224L156 137Q152 121 152 103Q152 67 173 49T233 31Q266 31 300 48T362 98T401 178L445 393Q446 396 446 400Q446 415 430 415Q425 415 415 412T399 407L397 429L527 474H551L467 58Q465 48 465 44Q465 27 482 27Z" />
<glyph unicode="v" glyph-name="v" horiz-adv-x="523" d="M111 -10T85 15T58 83Q58 99 61 115L118 393Q119 396 119 400Q119 415 103 415Q98 415 88 412T72 407L70 429L200 474H224L153 123Q149 99 149 90Q149 60 164 43T209 25Q249 25 297 72T384 191T436 327Q444
370 444 394Q444 436 425 463Q451 480 477 480Q507 480 521 458T536 399Q536 379 531 352Q515 275 463 190T332 48T166 -10Q111 -10 85 15Z" />
<glyph unicode="w" glyph-name="w" horiz-adv-x="728" d="M735 480T735 399Q735 371 729 339Q713 263 671 182T561 46T408 -10Q319 -10 317 72Q285 35 247 13T168 -10Q111 -10 84 15T57 82Q57 97 60 112L118 393Q119 396 119 400Q119 415 103 415Q98 415 88 412T72
407L70 429L200 474H224L150 109Q147 93 147 80Q147 26 205 26Q256 26 321 113L323 123L393 467H473L401 116Q395 88 395 69Q395 45 405 34T438 23Q469 23 510 62T587 163T635 285Q647 345 647 387Q647 436 632 463Q656 480 684 480Q735 480 735 399Z" />
<glyph unicode="x" glyph-name="x" horiz-adv-x="527" d="M560 470L555 444H544Q524 444 509 434T482 412T465 394L318 249L396 94Q415 59 427 43T455 27Q464 27 485 35L481 17Q466 5 440 -2T390 -10Q360 -10 342 5T312 45L246 178L66 0H-28L-23 25H-9Q12 25 27
36T71 75L224 224L132 411Q127 418 115 418Q100 418 74 405L70 428L180 470H206L295 294L476 470H560Z" />
<glyph unicode="y" glyph-name="y" horiz-adv-x="539" d="M512 478T531 461T550 410Q550 399 547 385Q543 365 526 335T487 277L157 -155Q125 -197 88 -224T16 -252Q-3 -252 -19 -241T-32 -206Q-29 -193 -18 -181T9 -168Q20 -168 25 -173T35 -189Q38 -196 41 -199T49
-203Q73 -203 131 -127L232 10L124 410Q121 418 108 418Q95 418 66 405L62 428L182 470H207L295 97L394 231Q422 271 437 300T460 366Q463 384 463 398Q463 438 437 461Q458 478 487 478Q512 478 531 461Z" />
<glyph unicode="z" glyph-name="z" horiz-adv-x="433" d="M263 -10T243 -4T192 14Q161 26 142 31T100 37Q53 37 12 -3L-24 20L358 432H159Q143 432 129 404T106 346H83L108 470H469L464 442L134 81Q146 84 156 84Q171 84 185 80T221 66Q245 56 260 52T293 47Q346
47 381 132L398 126Q380 56 354 23T286 -10Q263 -10 243 -4Z" />
<glyph unicode="{" glyph-name="braceleft" horiz-adv-x="347" d="M155 -133T120 -112T85 -39Q85 -17 91 15L126 186Q129 201 129 215Q129 250 108 271T40 298L46 326Q107 335 137 361T178 438L210 601Q222 659 243 692T306 740T420 755L415 728Q354 722 323 695T278
601L248 451Q235 388 201 355T100 312L99 310Q149 305 173 282T197 217Q197 198 193 179L160 22Q154 -7 154 -27Q154 -66 175 -83T246 -107L240 -133Q155 -133 120 -112Z" />
<glyph unicode="|" glyph-name="bar" horiz-adv-x="422" d="M134 753H211V-193H134V753Z" />
<glyph unicode="}" glyph-name="braceright" horiz-adv-x="347" d="M-21 -107Q40 -100 71 -76T115 10L152 189Q174 298 296 310L297 312Q198 323 198 402Q198 417 203 440L238 612Q242 631 242 650Q242 689 220 706T151 728L156 755Q240 755 275 733T310 661Q310
633 303 601L271 438Q266 416 266 402Q266 370 287 352T356 326L350 298Q239 286 219 186L184 15Q173 -41 150 -72T86 -118T-27 -133L-21 -107Z" />
<glyph unicode="~" glyph-name="asciitilde" horiz-adv-x="560" d="M382 254T352 263T285 291Q253 306 231 313T187 321Q131 321 88 280L76 315Q99 339 131 354T198 369Q223 369 247 361T308 335Q347 318 371 310T423 301Q479 301 521 343L534 308Q512 284 481
269T415 254Q382 254 352 263Z" />
<glyph unicode="&#xa0;" glyph-name="uni00A0" horiz-adv-x="248" />
<glyph unicode="&#xa1;" glyph-name="exclamdown" horiz-adv-x="276" d="M153 370T142 381T131 412Q131 442 150 461T197 480Q217 480 228 469T240 440Q240 410 221 390T174 370Q153 370 142 381ZM27 -239T18 -230T9 -203Q9 -191 12 -176L17 -159L146 335H188L116
-159Q115 -162 115 -166T113 -176Q107 -207 94 -223T50 -239Q27 -239 18 -230Z" />
<glyph unicode="&#xa2;" glyph-name="cent" horiz-adv-x="489" d="M417 475T450 449T484 380Q484 365 482 357Q480 344 469 332T443 320Q429 320 422 327T415 345Q415 350 416 353Q416 358 420 368T425 384Q425 396 415 409T385 432T334 442Q254 442 201 385T127
235Q120 201 120 169Q120 103 151 65T238 27Q370 27 422 168H451Q429 94 378 47T248 -9L232 -88H192L207 -10Q121 -7 75 37T28 164Q28 193 36 235Q58 344 130 410T307 480L324 561H365L348 479Q417 475 450 449Z" />
<glyph unicode="&#xa3;" glyph-name="sterling" horiz-adv-x="555" d="M-3 38H67Q87 56 98 78T116 132L157 337H63L71 374H165L190 495Q211 598 267 652T427 707Q481 707 516 693T568 654Q570 648 577 648Q584 648 587 663L595 704H631L593 520H565Q566 529 566
545Q566 605 535 635T444 666Q380 666 340 630T283 514L254 374H457L449 337H247L206 140Q196 80 148 39H359Q391 39 410 49T443 82T472 147H497L454 0H-11L-3 38Z" />
<glyph unicode="&#xa4;" glyph-name="currency" horiz-adv-x="560" d="M56 111L132 175Q111 214 111 257Q111 278 115 295Q130 362 179 414L130 478L168 512L219 447Q274 488 340 488Q406 488 445 446L522 512L546 478L469 414Q490 377 490 333Q490 312 486 295Q471
227 421 175L469 112L432 79L383 143Q328 102 261 102Q196 102 156 142L81 79L56 111ZM309 146T345 165T408 219T443 294Q446 311 446 326Q446 378 414 411T331 445Q292 445 256 425T195 371T160 294Q157 278 157 262Q157 211 188 179T271 146Q309 146 345 165Z"
/>
<glyph unicode="&#xa5;" glyph-name="yen" horiz-adv-x="661" d="M756 700L751 673H730Q712 673 694 663T663 637L478 402H617L610 364H448L391 291L372 195H575L567 158H364L345 62Q344 59 344 53Q344 26 393 26H420L416 0H155L159 26H186Q242 26 251 62L271
158H84L92 195H278L298 292L273 364H127L134 402H260L177 638Q172 654 160 663T132 673H108L113 700H349L345 673H320Q299 673 284 662T273 637L349 402H420L600 634Q606 643 606 649Q606 660 595 666T569 673H543L548 700H756ZM390 364H362L370 338L390 364Z"
/>
<glyph unicode="&#xa6;" glyph-name="brokenbar" horiz-adv-x="422" d="M134 753H211V339H134V753ZM134 240H211V-193H134V240Z" />
<glyph unicode="&#xa7;" glyph-name="section" horiz-adv-x="559" d="M608 758L568 568H540Q541 575 541 589Q541 652 502 686T399 721Q330 721 285 691T229 608Q227 600 227 586Q227 555 245 532T291 492T365 453Q419 428 453 407T510 354T533 276Q533 256 529
237Q510 146 434 95Q476 51 476 -6Q476 -26 472 -45Q453 -137 377 -188T199 -240Q141 -240 99 -222T33 -186T7 -169Q4 -169 0 -174T-5 -187L-13 -230H-47L-10 -38H18Q15 -85 36 -121T97 -178T181 -198Q255 -198 308 -162T374 -60Q377 -47 377 -35Q377 -1 358 24T310
66T233 108Q180 134 148 154T94 206T71 279Q71 298 75 314Q85 361 113 395T185 451Q128 496 128 561Q128 579 132 596Q150 677 218 719T388 762Q436 762 470 748T527 720T553 705Q563 705 564 718L573 758H608ZM435 280T416 305T368 347T290 389Q273 397 239 415Q184
386 173 326Q171 318 171 304Q171 273 189 250T235 211T309 172Q364 146 383 134Q420 168 432 222Q435 236 435 246Q435 280 416 305Z" />
<glyph unicode="&#xa8;" glyph-name="dieresis" horiz-adv-x="472" d="M195 579T186 588T176 614Q176 639 191 656T230 674Q248 674 258 664T268 638Q268 612 252 596T211 579Q195 579 186 588ZM403 579T393 588T383 614Q383 639 399 656T439 674Q456 674 465
665T475 638Q475 613 459 596T420 579Q403 579 393 588Z" />
<glyph unicode="&#xa9;" glyph-name="copyright" horiz-adv-x="786" d="M255 -10T176 37T51 167T6 356Q6 461 51 544T175 675T355 722Q454 722 533 675T658 545T703 356Q703 251 658 168T534 37T355 -10Q255 -10 176 37ZM442 31T511 73T620 190T659 356Q659 448
620 521T512 637T355 680Q268 680 199 638T90 521T50 356Q50 264 89 190T198 74T355 31Q442 31 511 73ZM265 129T213 187T161 353Q161 455 212 515T357 576Q399 576 432 564T482 534L488 574H512V445H489Q478 540 377 540Q305 540 270 488T234 352Q234 270 267
218T373 165Q419 165 453 189T497 263H522Q515 203 473 166T361 129Q265 129 213 187Z" />
<glyph unicode="&#xaa;" glyph-name="ordfeminine" horiz-adv-x="396" d="M127 339T100 368T72 451Q72 475 78 503Q102 619 160 663T290 707Q315 707 336 697T368 668L374 700H449L389 403Q388 398 388 390Q388 373 402 373Q411 373 435 380L432 365Q398 339 355
339Q335 339 322 347T308 371Q308 377 309 380L324 456Q295 407 254 373T175 339Q127 339 100 368ZM224 371T262 413T335 508L356 608Q354 643 335 659T292 675Q239 675 205 625T158 509Q151 472 151 446Q151 412 163 392T201 371Q224 371 262 413Z" />
<glyph unicode="&#xab;" glyph-name="guillemotleft" horiz-adv-x="473" d="M48 254L52 271L279 486L295 454L133 262L216 70L188 39L48 254ZM236 254L240 271L468 486L483 454L322 262L404 70L376 39L236 254Z" />
<glyph unicode="&#xac;" glyph-name="logicalnot" horiz-adv-x="462" d="M328 333H-1V371H374V180H328V333Z" />
<glyph unicode="&#xad;" glyph-name="uni00AD" horiz-adv-x="367" d="M62 305H350L339 249H51L62 305Z" />
<glyph unicode="&#xae;" glyph-name="registered" horiz-adv-x="786" d="M454 722T533 675T658 545T703 356Q703 251 658 168T534 37T355 -10Q255 -10 176 37T51 167T6 356Q6 461 51 544T175 675T355 722Q454 722 533 675ZM442 31T511 73T620 190T659 356Q659
448 620 521T512 637T355 680Q268 680 199 638T90 521T50 356Q50 264 89 190T198 74T355 31Q442 31 511 73ZM506 161T543 159V138H449L355 324H300V189Q300 172 307 166T335 159H354V138H180V159H200Q220 159 228 166T236 189V521Q236 549 205 549H186V571H385Q517
571 517 450Q517 398 493 366T419 326L494 182Q506 161 543 159ZM300 356H370Q414 356 434 379T454 450Q454 496 434 518T370 540H300V356Z" />
<glyph unicode="&#xaf;" glyph-name="overscore" horiz-adv-x="472" d="M169 770H540L530 724H159L169 770Z" />
<glyph unicode="&#xb0;" glyph-name="degree" horiz-adv-x="305" d="M160 460T133 487T105 560Q105 575 108 591Q119 647 162 683T261 720Q309 720 336 693T364 621Q364 606 361 591Q350 535 307 498T207 460Q160 460 133 487ZM252 500T281 526T318 591Q320 605
320 611Q320 642 302 662T252 682Q225 682 201 666T163 624T148 570Q148 539 166 520T216 500Q252 500 281 526Z" />
<glyph unicode="&#xb1;" glyph-name="plusminus" horiz-adv-x="559" d="M265 331H83L93 382H276L314 572H404L366 382H547L537 331H355L316 141H226L265 331ZM22 58H482L471 7H12L22 58Z" />
<glyph unicode="&#xb2;" glyph-name="uni00B2" horiz-adv-x="372" d="M62 311Q82 352 114 381T199 450Q257 492 286 522T325 596Q328 607 328 617Q328 642 313 656T268 671Q228 671 212 655T182 607Q176 593 168 585T144 577Q121 577 121 599Q121 606 122 610Q130
652 177 680T285 708Q341 708 375 686T409 617Q409 578 390 547T344 493T269 439Q221 408 192 384T146 329H307Q332 329 351 382H369L339 275H55L62 311Z" />
<glyph unicode="&#xb3;" glyph-name="uni00B3" horiz-adv-x="372" d="M130 268T99 288T67 344Q67 369 77 382T106 395Q121 395 127 387T132 367Q130 361 130 349Q130 307 189 307Q231 307 257 329T292 394Q294 406 294 412Q294 440 276 459T228 478H177L184 516H233Q272
516 296 541T326 599Q328 606 328 620Q328 644 314 657T272 671Q232 671 212 655T185 607Q182 595 172 587T148 578Q125 578 125 601Q125 609 126 613Q134 656 177 682T282 708Q336 708 371 687T407 622Q407 583 382 547T318 497Q344 489 359 470T374 421Q374 409
371 395Q358 331 307 300T189 268Q130 268 99 288Z" />
<glyph unicode="&#xb4;" glyph-name="acute" horiz-adv-x="472" d="M239 605L371 711Q379 719 393 727T421 735Q445 735 445 714Q445 708 444 705Q441 682 404 663L252 580L239 605Z" />
<glyph unicode="&#xb6;" glyph-name="paragraph" horiz-adv-x="478" d="M108 25H126Q174 25 174 57V310Q88 314 41 368T-6 513Q-6 700 184 700H407V674H389Q367 674 354 666T341 642V57Q341 25 389 25H407V0H286V663H228V0H108V25ZM174 663Q107 662 73 624T38
514Q38 435 77 393T174 349V663Z" />
<glyph unicode="&#xb7;" glyph-name="middot" horiz-adv-x="270" d="M128 279T115 292T101 330Q101 370 123 395T181 421Q207 421 220 407T234 370Q234 331 211 305T153 279Q128 279 115 292Z" />
<glyph unicode="&#xb8;" glyph-name="cedilla" horiz-adv-x="472" d="M100 -214T77 -209L88 -180Q97 -182 118 -182Q201 -182 213 -128Q218 -105 194 -97T142 -88L133 -72L198 13H239L191 -55Q224 -55 250 -68T276 -112Q276 -121 275 -126Q265 -174 223 -194T123
-214Q100 -214 77 -209Z" />
<glyph unicode="&#xb9;" glyph-name="uni00B9" horiz-adv-x="372" d="M81 301H118Q172 301 179 335L241 644L158 612L166 650L342 712L265 335Q264 332 264 327Q264 301 311 301H348L343 275H76L81 301Z" />
<glyph unicode="&#xba;" glyph-name="ordmasculine" horiz-adv-x="349" d="M142 341T110 374T77 469Q77 494 83 524Q100 610 152 659T279 708Q343 708 376 675T409 579Q409 554 403 524Q386 439 334 390T204 341Q142 341 110 374ZM255 387T286 424T330 524Q336
553 336 575Q336 616 319 639T271 662Q231 662 200 625T155 524Q149 496 149 473Q149 432 166 410T215 387Q255 387 286 424Z" />
<glyph unicode="&#xbb;" glyph-name="guillemotright" horiz-adv-x="473" d="M18 70L180 262L97 454L125 486L265 271L261 254L34 39L18 70ZM206 70L369 262L285 454L313 486L453 271L449 254L222 39L206 70Z" />
<glyph unicode="&#xbc;" glyph-name="onequarter" horiz-adv-x="860" d="M73 301H109Q164 301 171 335L233 644L150 612L157 650L333 712L256 335Q253 317 264 309T302 301H339L334 275H68L73 301ZM736 706H780L225 0H180L736 706ZM541 26H570Q597 26 612 34T631
60L640 104H454L460 132L703 428H791L733 142H799L786 104H726L716 60Q709 26 764 26H793L788 0H537L541 26ZM648 142L692 362L511 142H648Z" />
<glyph unicode="&#xbd;" glyph-name="onehalf" horiz-adv-x="860" d="M73 301H109Q164 301 171 335L233 644L150 612L157 650L333 712L256 335Q253 317 264 309T302 301H339L334 275H68L73 301ZM730 706H774L217 0H174L730 706ZM500 36Q520 77 552 107T637 174Q694
215 724 246T764 321Q766 335 766 341Q766 366 751 381T707 396Q667 396 650 379T620 332Q614 318 607 310T583 302Q560 302 560 323Q560 331 561 335Q569 378 615 405T724 433Q780 433 813 412T847 344Q847 304 828 273T782 219T707 165Q656 130 629 107T585 54H746Q770
54 789 107H806L778 0H493L500 36Z" />
<glyph unicode="&#xbe;" glyph-name="threequarters" horiz-adv-x="860" d="M140 268T107 288T74 344Q74 368 84 381T111 395Q127 395 133 387T138 367Q136 355 136 350Q136 307 196 307Q238 307 264 329T298 394Q300 406 300 413Q300 441 283 459T233 478H182L190
516H240Q271 516 293 533T325 574T336 619Q336 644 322 657T278 671Q239 671 219 655T192 607Q189 595 179 587T155 578Q131 578 131 602Q131 609 132 613Q141 655 186 681T292 708Q346 708 379 687T412 622Q412 583 387 547T324 497Q350 489 365 471T380 423Q380
410 377 395Q364 330 315 299T199 268Q140 268 107 288ZM730 706H774L217 0H174L730 706ZM537 26H565Q592 26 607 34T626 60L636 104H448L454 132L698 428H786L729 142H794L780 104H721L711 60Q708 42 719 34T758 26H787L782 0H532L537 26ZM643 142L687 362L506
142H643Z" />
<glyph unicode="&#xbf;" glyph-name="questiondown" horiz-adv-x="448" d="M272 370T261 380T250 410Q250 441 268 460T316 480Q336 480 347 469T359 440Q359 410 340 390T293 370Q272 370 261 380ZM64 -240T18 -211T-28 -116Q-28 -93 -24 -73Q-17 -37 2 -8T46
43T110 96Q170 142 204 180T249 274Q250 281 252 305H302Q303 295 300 266Q287 202 253 158T160 59Q115 18 91 -11T60 -76Q56 -93 56 -114Q56 -200 155 -200Q204 -200 239 -173T283 -102Q286 -87 298 -77T328 -66Q363 -66 363 -96Q363 -99 361 -109Q354 -143 324
-173T246 -222T139 -240Q64 -240 18 -211Z" />
<glyph unicode="&#xc0;" glyph-name="Agrave" horiz-adv-x="704" d="M407 880T407 900Q407 915 417 926T444 937Q464 937 483 913L571 807L549 782L428 865Q407 880 407 900ZM665 26L660 0H418L422 26H439Q466 26 480 38T491 73L471 210H202L125 73Q120 64 120
55Q120 41 132 34T161 26H179L174 0H-34L-29 26H-14Q5 26 27 36T59 62L413 684L489 714L595 61Q599 45 614 36T648 26H665ZM465 250L416 591L224 250H465Z" />
<glyph unicode="&#xc1;" glyph-name="Aacute" horiz-adv-x="704" d="M397 782L386 807L518 914Q532 925 542 931T565 937Q581 937 587 928T591 907Q587 883 550 865L397 782ZM665 26L660 0H418L422 26H439Q466 26 480 38T491 73L471 210H202L125 73Q120 64 120
55Q120 41 132 34T161 26H179L174 0H-34L-29 26H-14Q5 26 27 36T59 62L413 684L489 714L595 61Q599 45 614 36T648 26H665ZM465 250L416 591L224 250H465Z" />
<glyph unicode="&#xc2;" glyph-name="Acircumflex" horiz-adv-x="704" d="M347 782L332 803L477 932H528L620 803L598 782L512 868Q497 879 492 879Q482 879 467 868L347 782ZM665 26L660 0H418L422 26H439Q466 26 480 38T491 73L471 210H202L125 73Q120 64 120
55Q120 41 132 34T161 26H179L174 0H-34L-29 26H-14Q5 26 27 36T59 62L413 684L489 714L595 61Q599 45 614 36T648 26H665ZM465 250L416 591L224 250H465Z" />
<glyph unicode="&#xc3;" glyph-name="Atilde" horiz-adv-x="704" d="M386 839T368 825T334 780L316 791Q334 833 363 860T430 887Q446 887 460 881T499 860Q519 847 534 841T565 834Q589 834 605 849T640 896L659 885Q640 841 611 813T542 785Q526 785 513 791T476
812Q456 825 441 832T409 839Q386 839 368 825ZM665 26L660 0H418L422 26H439Q466 26 480 38T491 73L471 210H202L125 73Q120 64 120 55Q120 41 132 34T161 26H179L174 0H-34L-29 26H-14Q5 26 27 36T59 62L413 684L489 714L595 61Q599 45 614 36T648 26H665ZM465
250L416 591L224 250H465Z" />
<glyph unicode="&#xc4;" glyph-name="Adieresis" horiz-adv-x="704" d="M343 781T334 791T324 818L325 827Q330 848 344 861T379 875Q397 875 406 866T415 840Q415 814 400 798T360 781Q343 781 334 791ZM550 781T540 790T530 817Q530 823 531 827Q536 848 551
861T587 875Q604 875 613 866T622 840Q622 814 607 798T567 781Q550 781 540 790ZM665 26L660 0H418L422 26H439Q466 26 480 38T491 73L471 210H202L125 73Q120 64 120 55Q120 41 132 34T161 26H179L174 0H-34L-29 26H-14Q5 26 27 36T59 62L413 684L489 714L595
61Q599 45 614 36T648 26H665ZM465 250L416 591L224 250H465Z" />
<glyph unicode="&#xc5;" glyph-name="Aring" horiz-adv-x="704" d="M431 753T411 771T390 820Q390 868 422 899T501 931Q535 931 555 913T575 863Q575 849 573 842Q565 802 535 778T466 753Q431 753 411 771ZM431 832T431 828Q431 810 442 800T472 789Q498 789
517 807T536 854Q536 873 525 884T494 896Q472 896 455 882T433 842Q431 832 431 828ZM665 26L660 0H418L422 26H439Q466 26 480 38T491 73L471 210H202L125 73Q120 64 120 55Q120 41 132 34T161 26H179L174 0H-34L-29 26H-14Q5 26 27 36T59 62L413 684L489 714L595
61Q599 45 614 36T648 26H665ZM465 250L416 591L224 250H465Z" />
<glyph unicode="&#xc6;" glyph-name="AE" horiz-adv-x="939" d="M-23 26H-9Q20 26 40 42T84 88L522 647Q527 652 527 662Q527 673 517 673H488L492 700H993L958 527H932Q936 553 936 576Q936 659 876 659H663L608 388H763Q791 388 805 412T833 485H856L808 251H785Q789
285 789 301Q789 323 782 335T755 348H599L537 40H763Q804 40 832 81T877 179H902L850 0H361L366 26H388Q412 26 427 35T447 62L477 210H238L127 65Q122 58 122 53Q122 42 136 34T167 26H184L180 0H-28L-23 26ZM486 250L562 622L270 250H486Z" />
<glyph unicode="&#xc7;" glyph-name="Ccedilla" horiz-adv-x="644" d="M706 705L667 513H639Q640 519 640 531Q640 596 595 632T478 668Q360 668 279 582T168 350Q155 283 155 235Q155 138 200 85T338 31Q405 31 470 65T573 171H611Q578 92 506 44T339 -9L305
-58Q338 -58 363 -71T389 -115Q389 -124 388 -129Q378 -177 336 -197T237 -217Q214 -217 191 -212L203 -183Q211 -185 232 -185Q316 -185 326 -131Q331 -108 308 -100T256 -91L248 -75L297 -10Q180 -5 121 59T61 237Q61 289 73 350Q108 519 212 614T468 710Q530
710 573 692T643 650Q647 646 651 646Q659 646 662 661L671 705H706Z" />
<glyph unicode="&#xc8;" glyph-name="Egrave" horiz-adv-x="583" d="M370 880T370 899Q370 905 371 908Q373 920 383 928T407 937Q429 937 445 913L534 807L512 782L391 865Q370 880 370 899ZM636 700L602 527H576Q580 551 580 574Q580 610 567 634T519 659H289L233
388H404Q433 388 446 412T474 485H497L449 251H426Q430 287 430 302Q430 324 423 336T396 348H225L162 40H407Q448 40 475 81T520 179H546L493 0H-23L-18 26H9Q64 26 73 62L190 637Q191 640 191 645Q191 673 141 673H114L119 700H636Z" />
<glyph unicode="&#xc9;" glyph-name="Eacute" horiz-adv-x="583" d="M367 782L355 807L488 914Q514 937 535 937Q548 937 555 930T562 913Q562 886 519 865L367 782ZM636 700L602 527H576Q580 551 580 574Q580 610 567 634T519 659H289L233 388H404Q433 388 446
412T474 485H497L449 251H426Q430 287 430 302Q430 324 423 336T396 348H225L162 40H407Q448 40 475 81T520 179H546L493 0H-23L-18 26H9Q64 26 73 62L190 637Q191 640 191 645Q191 673 141 673H114L119 700H636Z" />
<glyph unicode="&#xca;" glyph-name="Ecircumflex" horiz-adv-x="583" d="M309 782L295 803L440 932H491L583 803L561 782L474 868Q461 879 454 879Q446 879 429 868L309 782ZM636 700L602 527H576Q580 551 580 574Q580 610 567 634T519 659H289L233 388H404Q433
388 446 412T474 485H497L449 251H426Q430 287 430 302Q430 324 423 336T396 348H225L162 40H407Q448 40 475 81T520 179H546L493 0H-23L-18 26H9Q64 26 73 62L190 637Q191 640 191 645Q191 673 141 673H114L119 700H636Z" />
<glyph unicode="&#xcb;" glyph-name="Edieresis" horiz-adv-x="583" d="M319 781T310 791T300 818L301 827Q306 848 320 861T355 875Q373 875 382 866T391 840Q391 814 376 798T336 781Q319 781 310 791ZM526 781T516 790T506 817Q506 823 507 827Q512 848 527
861T563 875Q580 875 589 866T598 840Q598 814 583 798T543 781Q526 781 516 790ZM636 700L602 527H576Q580 551 580 574Q580 610 567 634T519 659H289L233 388H404Q433 388 446 412T474 485H497L449 251H426Q430 287 430 302Q430 324 423 336T396 348H225L162
40H407Q448 40 475 81T520 179H546L493 0H-23L-18 26H9Q64 26 73 62L190 637Q191 640 191 645Q191 673 141 673H114L119 700H636Z" />
<glyph unicode="&#xcc;" glyph-name="Igrave" horiz-adv-x="311" d="M230 865Q209 880 209 900Q209 915 220 926T247 937Q266 937 285 913L373 807L351 782L230 865ZM-9 26H19Q74 26 83 62L200 637Q206 673 152 673H124L129 700H390L385 673H358Q301 673 294 637L177
62Q176 59 176 53Q176 26 226 26H252L248 0H-13L-9 26Z" />
<glyph unicode="&#xcd;" glyph-name="Iacute" horiz-adv-x="311" d="M188 807L321 914Q347 937 368 937Q381 937 388 930T395 913Q395 886 352 865L200 782L188 807ZM-9 26H19Q74 26 83 62L200 637Q206 673 152 673H124L129 700H390L385 673H358Q301 673 294 637L177
62Q176 59 176 53Q176 26 226 26H252L248 0H-13L-9 26Z" />
<glyph unicode="&#xce;" glyph-name="Icircumflex" horiz-adv-x="311" d="M135 803L280 932H331L423 803L401 782L315 868Q300 879 295 879Q285 879 270 868L150 782L135 803ZM-9 26H19Q74 26 83 62L200 637Q206 673 152 673H124L129 700H390L385 673H358Q301
673 294 637L177 62Q176 59 176 53Q176 26 226 26H252L248 0H-13L-9 26Z" />
<glyph unicode="&#xcf;" glyph-name="Idieresis" horiz-adv-x="311" d="M154 781T145 791T135 818L136 827Q141 848 155 861T190 875Q207 875 216 865T226 839Q226 814 211 798T171 781Q154 781 145 791ZM360 781T351 790T341 816Q341 841 357 858T397 875Q415
875 424 866T433 840Q433 814 418 798T378 781Q360 781 351 790ZM-9 26H19Q74 26 83 62L200 637Q206 673 152 673H124L129 700H390L385 673H358Q301 673 294 637L177 62Q176 59 176 53Q176 26 226 26H252L248 0H-13L-9 26Z" />
<glyph unicode="&#xd0;" glyph-name="Eth" horiz-adv-x="661" d="M546 700T607 641T668 468Q668 412 655 350Q619 177 526 89T280 0H-22L-17 26H12Q66 26 75 62L129 326H54L63 372H138L192 637Q193 640 193 645Q193 673 144 673H115L120 700H423Q546 700 607 641ZM574
420T574 472Q574 563 535 611T415 660H291L232 372H434L424 326H223L164 39H286Q390 39 459 120T560 350Q574 420 574 472Z" />
<glyph unicode="&#xd1;" glyph-name="Ntilde" horiz-adv-x="725" d="M332 791Q350 833 380 860T446 887Q462 887 476 881T515 860Q537 847 552 841T582 834Q605 834 622 849T657 896L675 885Q657 841 627 813T559 785Q543 785 529 791T492 812Q472 825 457 832T425
839Q403 839 385 825T350 780L332 791ZM-12 26H15Q44 26 59 34T79 62L196 637Q197 640 197 645Q197 673 148 673H120L125 700H312L558 126L662 637Q663 640 663 646Q663 660 651 666T614 673H587L591 700H807L803 673H774Q717 673 710 637L581 0H525L245 642L127
62Q126 59 126 53Q126 26 175 26H204L199 0H-17L-12 26Z" />
<glyph unicode="&#xd2;" glyph-name="Ograve" horiz-adv-x="725" d="M423 865Q402 880 402 900Q402 915 412 926T440 937Q459 937 478 913L566 807L544 782L423 865ZM191 -10T123 54T55 240Q55 292 67 350Q102 520 205 615T468 710Q599 710 667 645T735 459Q735
409 723 350Q688 179 585 85T322 -10Q191 -10 123 54ZM444 32T520 116T628 350Q640 410 640 462Q640 560 595 614T459 668Q345 668 269 583T162 350Q149 283 149 237Q149 139 194 86T329 32Q444 32 520 116Z" />
<glyph unicode="&#xd3;" glyph-name="Oacute" horiz-adv-x="725" d="M396 807L528 914Q542 925 552 931T575 937Q590 937 597 928T601 907Q597 883 560 865L407 782L396 807ZM191 -10T123 54T55 240Q55 292 67 350Q102 520 205 615T468 710Q599 710 667 645T735
459Q735 409 723 350Q688 179 585 85T322 -10Q191 -10 123 54ZM444 32T520 116T628 350Q640 410 640 462Q640 560 595 614T459 668Q345 668 269 583T162 350Q149 283 149 237Q149 139 194 86T329 32Q444 32 520 116Z" />
<glyph unicode="&#xd4;" glyph-name="Ocircumflex" horiz-adv-x="725" d="M343 803L488 932H539L631 803L609 782L522 868Q509 879 502 879Q494 879 477 868L357 782L343 803ZM191 -10T123 54T55 240Q55 292 67 350Q102 520 205 615T468 710Q599 710 667 645T735
459Q735 409 723 350Q688 179 585 85T322 -10Q191 -10 123 54ZM444 32T520 116T628 350Q640 410 640 462Q640 560 595 614T459 668Q345 668 269 583T162 350Q149 283 149 237Q149 139 194 86T329 32Q444 32 520 116Z" />
<glyph unicode="&#xd5;" glyph-name="Otilde" horiz-adv-x="725" d="M320 791Q338 833 367 860T434 887Q450 887 464 881T503 860Q523 847 538 841T569 834Q593 834 609 849T644 896L662 885Q643 841 614 813T546 785Q530 785 517 791T480 812Q460 825 445 832T413
839Q390 839 372 825T338 780L320 791ZM191 -10T123 54T55 240Q55 292 67 350Q102 520 205 615T468 710Q599 710 667 645T735 459Q735 409 723 350Q688 179 585 85T322 -10Q191 -10 123 54ZM444 32T520 116T628 350Q640 410 640 462Q640 560 595 614T459 668Q345
668 269 583T162 350Q149 283 149 237Q149 139 194 86T329 32Q444 32 520 116Z" />
<glyph unicode="&#xd6;" glyph-name="Odieresis" horiz-adv-x="725" d="M362 781T353 790T343 816Q343 841 359 858T397 875Q415 875 424 866T433 840Q433 814 418 798T378 781Q362 781 353 790ZM568 781T558 790T548 817Q548 823 549 827Q554 848 569 861T605
875Q622 875 631 866T641 840Q641 815 625 798T586 781Q568 781 558 790ZM191 -10T123 54T55 240Q55 292 67 350Q102 520 205 615T468 710Q599 710 667 645T735 459Q735 409 723 350Q688 179 585 85T322 -10Q191 -10 123 54ZM444 32T520 116T628 350Q640 410 640
462Q640 560 595 614T459 668Q345 668 269 583T162 350Q149 283 149 237Q149 139 194 86T329 32Q444 32 520 116Z" />
<glyph unicode="&#xd7;" glyph-name="multiply" horiz-adv-x="559" d="M60 160L259 332L130 504L185 553L318 377L521 553L557 504L356 332L487 160L431 111L300 288L95 111L60 160Z" />
<glyph unicode="&#xd8;" glyph-name="Oslash" horiz-adv-x="725" d="M681 630Q735 567 735 459Q735 409 723 350Q688 179 585 85T322 -10Q191 -10 124 54L50 -22L18 4L97 85Q55 145 55 240Q55 292 67 350Q102 520 205 615T468 710Q584 710 651 658L716 725L748
699L681 630ZM149 190T160 151L601 606Q555 668 459 668Q345 668 269 583T162 350Q149 283 149 237Q149 190 160 151ZM640 524T622 569L177 110Q222 32 329 32Q444 32 520 116T628 350Q640 410 640 462Q640 524 622 569Z" />
<glyph unicode="&#xd9;" glyph-name="Ugrave" horiz-adv-x="712" d="M444 865Q422 879 422 901Q422 916 433 926T460 937Q482 937 498 913L587 807L564 782L444 865ZM211 -10T154 26T97 143Q97 173 104 204L192 637Q196 655 184 664T148 673H126L131 700H372L368
673H346Q322 673 306 664T286 637L196 197Q191 175 191 148Q191 83 232 57T348 31Q426 31 485 68T564 197L654 637Q658 655 646 664T610 673H588L593 700H788L783 673H761Q738 673 722 664T702 637L613 204Q590 93 516 42T319 -10Q211 -10 154 26Z" />
<glyph unicode="&#xda;" glyph-name="Uacute" horiz-adv-x="712" d="M402 807L535 914Q561 937 582 937Q597 937 604 928T608 907Q604 884 566 865L414 782L402 807ZM211 -10T154 26T97 143Q97 173 104 204L192 637Q196 655 184 664T148 673H126L131 700H372L368
673H346Q322 673 306 664T286 637L196 197Q191 175 191 148Q191 83 232 57T348 31Q426 31 485 68T564 197L654 637Q658 655 646 664T610 673H588L593 700H788L783 673H761Q738 673 722 664T702 637L613 204Q590 93 516 42T319 -10Q211 -10 154 26Z" />
<glyph unicode="&#xdb;" glyph-name="Ucircumflex" horiz-adv-x="712" d="M348 803L493 932H544L636 803L614 782L528 868Q522 872 517 875T508 879Q500 879 483 868L363 782L348 803ZM211 -10T154 26T97 143Q97 173 104 204L192 637Q196 655 184 664T148 673H126L131
700H372L368 673H346Q322 673 306 664T286 637L196 197Q191 175 191 148Q191 83 232 57T348 31Q426 31 485 68T564 197L654 637Q658 655 646 664T610 673H588L593 700H788L783 673H761Q738 673 722 664T702 637L613 204Q590 93 516 42T319 -10Q211 -10 154 26Z"
/>
<glyph unicode="&#xdc;" glyph-name="Udieresis" horiz-adv-x="712" d="M367 781T358 791T348 818L349 827Q354 848 368 861T403 875Q421 875 430 866T439 840Q439 814 424 798T384 781Q367 781 358 791ZM574 781T564 790T554 817Q554 823 555 827Q560 848 575
861T611 875Q628 875 637 866T646 840Q646 814 631 798T591 781Q574 781 564 790ZM211 -10T154 26T97 143Q97 173 104 204L192 637Q196 655 184 664T148 673H126L131 700H372L368 673H346Q322 673 306 664T286 637L196 197Q191 175 191 148Q191 83 232 57T348 31Q426
31 485 68T564 197L654 637Q658 655 646 664T610 673H588L593 700H788L783 673H761Q738 673 722 664T702 637L613 204Q590 93 516 42T319 -10Q211 -10 154 26Z" />
<glyph unicode="&#xdd;" glyph-name="Yacute" horiz-adv-x="661" d="M388 824L520 931Q534 942 544 948T567 954Q582 954 589 945T593 924Q589 900 552 882L399 799L388 824ZM159 26H186Q242 26 251 62L298 292L177 638Q172 654 160 663T132 673H108L113 700H349L345
673H320Q299 673 284 662T273 637L370 338L600 634Q606 643 606 649Q606 660 595 666T569 673H543L548 700H756L751 673H730Q712 673 694 663T663 637L391 291L345 62Q344 59 344 53Q344 26 393 26H420L416 0H155L159 26Z" />
<glyph unicode="&#xde;" glyph-name="Thorn" horiz-adv-x="575" d="M-12 26H15Q44 26 59 34T79 62L196 637Q197 640 197 645Q197 673 148 673H120L125 700H302L279 588H430Q602 588 602 444Q602 415 594 375Q551 162 344 162H193L173 62Q172 59 172 53Q172 26
221 26H250L245 0H-17L-12 26ZM335 203Q467 203 502 375Q510 413 510 440Q510 548 405 548H272L202 203H335Z" />
<glyph unicode="&#xdf;" glyph-name="germandbls" horiz-adv-x="675" d="M439 324T462 306T532 267Q569 250 590 237T627 203T643 151Q643 139 640 124Q613 -10 429 -10Q348 -10 309 16T269 84Q269 91 271 103Q275 119 286 129T311 139Q323 139 330 132T338 114Q338
107 334 99T329 83Q329 71 339 59T371 37T424 28Q477 28 509 50T548 110Q549 114 549 122Q549 147 529 162T464 197Q425 214 402 228T361 267T344 326Q344 335 348 359Q360 417 409 447T519 483Q529 533 529 562Q529 682 413 682Q365 682 328 654T279 568L134 -144L42
-151L161 431H94L102 470H169L186 551Q202 633 268 677T418 722Q527 722 568 672T610 551Q610 520 603 485L595 451Q519 451 479 426T439 355Q439 324 462 306Z" />
<glyph unicode="&#xe0;" glyph-name="agrave" horiz-adv-x="547" d="M303 630Q282 645 282 665Q282 680 292 691T320 702Q339 702 358 678L446 572L424 547L303 630ZM98 -10T69 30T39 139Q39 181 48 224Q65 306 107 364T205 451T318 480Q360 480 389 471T432 435L439
470H529L445 58Q444 53 444 45Q444 35 448 31T461 27Q475 27 497 35L493 17Q476 5 451 -2T403 -9Q379 -9 365 1T350 32Q350 38 351 42L370 130Q312 59 257 25T162 -10Q98 -10 69 30ZM223 40T261 69T334 138T385 206L419 368Q409 437 324 437Q294 437 256 416T183
343T131 211Q125 180 125 155Q125 102 147 71T197 40Q223 40 261 69Z" />
<glyph unicode="&#xe1;" glyph-name="aacute" horiz-adv-x="547" d="M276 572L409 679Q423 690 433 696T456 702Q471 702 478 693T482 672Q478 648 441 630L288 547L276 572ZM98 -10T69 30T39 139Q39 181 48 224Q65 306 107 364T205 451T318 480Q360 480 389 471T432
435L439 470H529L445 58Q444 53 444 45Q444 35 448 31T461 27Q475 27 497 35L493 17Q476 5 451 -2T403 -9Q379 -9 365 1T350 32Q350 38 351 42L370 130Q312 59 257 25T162 -10Q98 -10 69 30ZM223 40T261 69T334 138T385 206L419 368Q409 437 324 437Q294 437 256
416T183 343T131 211Q125 180 125 155Q125 102 147 71T197 40Q223 40 261 69Z" />
<glyph unicode="&#xe2;" glyph-name="acircumflex" horiz-adv-x="547" d="M210 568L355 697H406L498 568L476 547L390 633Q375 644 370 644Q360 644 345 633L225 547L210 568ZM98 -10T69 30T39 139Q39 181 48 224Q65 306 107 364T205 451T318 480Q360 480 389
471T432 435L439 470H529L445 58Q444 53 444 45Q444 35 448 31T461 27Q475 27 497 35L493 17Q476 5 451 -2T403 -9Q379 -9 365 1T350 32Q350 38 351 42L370 130Q312 59 257 25T162 -10Q98 -10 69 30ZM223 40T261 69T334 138T385 206L419 368Q409 437 324 437Q294
437 256 416T183 343T131 211Q125 180 125 155Q125 102 147 71T197 40Q223 40 261 69Z" />
<glyph unicode="&#xe3;" glyph-name="atilde" horiz-adv-x="547" d="M186 559Q204 601 234 628T300 655Q316 655 330 649T369 628Q391 615 406 609T436 602Q459 602 476 617T511 664L529 653Q511 609 481 581T413 553Q397 553 383 559T346 580Q326 593 311 600T279
607Q257 607 239 593T204 548L186 559ZM98 -10T69 30T39 139Q39 181 48 224Q65 306 107 364T205 451T318 480Q360 480 389 471T432 435L439 470H529L445 58Q444 53 444 45Q444 35 448 31T461 27Q475 27 497 35L493 17Q476 5 451 -2T403 -9Q379 -9 365 1T350 32Q350
38 351 42L370 130Q312 59 257 25T162 -10Q98 -10 69 30ZM223 40T261 69T334 138T385 206L419 368Q409 437 324 437Q294 437 256 416T183 343T131 211Q125 180 125 155Q125 102 147 71T197 40Q223 40 261 69Z" />
<glyph unicode="&#xe4;" glyph-name="adieresis" horiz-adv-x="547" d="M226 546T217 556T207 583L208 592Q213 613 227 626T262 640Q279 640 288 630T298 604Q298 579 283 563T243 546Q226 546 217 556ZM432 546T423 555T413 581Q413 606 429 623T469 640Q487
640 496 631T505 605Q505 579 490 563T450 546Q432 546 423 555ZM98 -10T69 30T39 139Q39 181 48 224Q65 306 107 364T205 451T318 480Q360 480 389 471T432 435L439 470H529L445 58Q444 53 444 45Q444 35 448 31T461 27Q475 27 497 35L493 17Q476 5 451 -2T403
-9Q379 -9 365 1T350 32Q350 38 351 42L370 130Q312 59 257 25T162 -10Q98 -10 69 30ZM223 40T261 69T334 138T385 206L419 368Q409 437 324 437Q294 437 256 416T183 343T131 211Q125 180 125 155Q125 102 147 71T197 40Q223 40 261 69Z" />
<glyph unicode="&#xe5;" glyph-name="aring" horiz-adv-x="547" d="M319 529T299 547T278 597Q278 604 280 618Q288 658 318 682T389 707Q423 707 443 689T463 638Q463 632 461 618Q452 578 423 554T353 529Q319 529 299 547ZM386 565T405 584T424 632Q424 651
413 661T382 672Q356 672 338 653T319 604Q319 586 330 576T360 565Q386 565 405 584ZM98 -10T69 30T39 139Q39 181 48 224Q65 306 107 364T205 451T318 480Q360 480 389 471T432 435L439 470H529L445 58Q444 53 444 45Q444 35 448 31T461 27Q475 27 497 35L493
17Q476 5 451 -2T403 -9Q379 -9 365 1T350 32Q350 38 351 42L370 130Q312 59 257 25T162 -10Q98 -10 69 30ZM223 40T261 69T334 138T385 206L419 368Q409 437 324 437Q294 437 256 416T183 343T131 211Q125 180 125 155Q125 102 147 71T197 40Q223 40 261 69Z"
/>
<glyph unicode="&#xe6;" glyph-name="ae" horiz-adv-x="775" d="M64 -10T35 11T6 70Q6 83 9 96Q23 166 101 212T327 282Q340 319 359 350Q360 355 360 363Q360 401 335 420T266 440Q230 440 196 425T158 393Q157 389 157 379Q157 369 156 364Q154 351 143 340T111
329Q98 329 90 337T82 360Q82 365 84 375Q94 425 154 452T294 480Q341 480 374 465T423 423Q458 451 503 465T598 480Q691 480 735 450T779 370Q779 357 776 342Q757 246 645 206T399 161Q401 98 432 63T519 27Q583 27 631 61T707 168H735Q712 88 652 39T500 -10Q437
-10 394 11T327 73Q281 30 227 10T121 -10Q64 -10 35 11ZM513 204T599 238T699 341Q701 349 701 363Q701 398 676 419T596 442Q523 442 474 383T406 235Q403 222 402 213T400 196Q513 204 599 238ZM201 30T244 51T316 101Q307 129 307 165Q307 195 315 235L318
246Q211 221 154 179T97 84Q97 58 115 44T164 30Q201 30 244 51Z" />
<glyph unicode="&#xe7;" glyph-name="ccedilla" horiz-adv-x="490" d="M403 480T443 453T484 380Q484 365 482 357Q480 344 469 332T443 320Q429 320 422 327T415 345Q415 350 416 353Q416 358 420 368T425 384Q425 396 415 409T385 432T334 442Q254 442 201 385T127
235Q120 201 120 169Q120 103 151 65T238 27Q370 27 422 168H451Q427 89 369 40T223 -10L188 -61Q221 -61 246 -74T272 -118Q272 -127 271 -132Q261 -180 219 -200T120 -220Q97 -220 74 -215L85 -186Q94 -188 115 -188Q199 -188 209 -134Q214 -111 191 -103T139
-94L131 -78L184 -8Q108 0 68 44T28 164Q28 193 36 235Q59 348 135 414T321 480Q403 480 443 453Z" />
<glyph unicode="&#xe8;" glyph-name="egrave" horiz-adv-x="494" d="M262 645T262 665Q262 680 272 691T300 702Q319 702 338 678L426 572L404 547L283 630Q262 645 262 665ZM477 247T366 207T120 161Q122 98 154 63T240 27Q304 27 352 61T427 168H456Q432 88
372 39T221 -10Q128 -10 78 35T28 165Q28 195 36 235Q59 349 134 414T319 480Q411 480 455 451T499 371Q499 357 496 342Q477 247 366 207ZM422 349T422 363Q422 398 397 419T317 442Q243 442 194 383T127 235Q122 216 121 196Q233 204 319 238T420 341Q422 349
422 363Z" />
<glyph unicode="&#xe9;" glyph-name="eacute" horiz-adv-x="494" d="M264 547L252 572L385 679Q399 690 409 696T432 702Q447 702 454 693T458 672Q454 648 417 630L264 547ZM477 247T366 207T120 161Q122 98 154 63T240 27Q304 27 352 61T427 168H456Q432 88
372 39T221 -10Q128 -10 78 35T28 165Q28 195 36 235Q59 349 134 414T319 480Q411 480 455 451T499 371Q499 357 496 342Q477 247 366 207ZM422 349T422 363Q422 398 397 419T317 442Q243 442 194 383T127 235Q122 216 121 196Q233 204 319 238T420 341Q422 349
422 363Z" />
<glyph unicode="&#xea;" glyph-name="ecircumflex" horiz-adv-x="494" d="M203 547L188 568L333 697H384L476 568L454 547L368 633Q353 644 348 644Q338 644 323 633L203 547ZM477 247T366 207T120 161Q122 98 154 63T240 27Q304 27 352 61T427 168H456Q432 88
372 39T221 -10Q128 -10 78 35T28 165Q28 195 36 235Q59 349 134 414T319 480Q411 480 455 451T499 371Q499 357 496 342Q477 247 366 207ZM422 349T422 363Q422 398 397 419T317 442Q243 442 194 383T127 235Q122 216 121 196Q233 204 319 238T420 341Q422 349
422 363Z" />
<glyph unicode="&#xeb;" glyph-name="edieresis" horiz-adv-x="494" d="M210 546T200 556T190 582Q190 588 191 592Q196 613 210 626T245 640Q262 640 271 631T281 605Q281 580 265 563T226 546Q210 546 200 556ZM415 546T405 556T395 583L396 592Q401 613 416
626T452 640Q469 640 478 630T488 604Q488 579 473 563T433 546Q415 546 405 556ZM477 247T366 207T120 161Q122 98 154 63T240 27Q304 27 352 61T427 168H456Q432 88 372 39T221 -10Q128 -10 78 35T28 165Q28 195 36 235Q59 349 134 414T319 480Q411 480 455 451T499
371Q499 357 496 342Q477 247 366 207ZM422 349T422 363Q422 398 397 419T317 442Q243 442 194 383T127 235Q122 216 121 196Q233 204 319 238T420 341Q422 349 422 363Z" />
<glyph unicode="&#xec;" glyph-name="igrave" horiz-adv-x="296" d="M175 630Q154 645 154 664Q154 670 155 673Q157 685 167 693T191 702Q213 702 229 678L318 572L296 547L175 630ZM104 -10T88 0T71 31Q71 38 72 42L144 395Q145 398 145 402Q145 416 129 416Q120
416 98 408L97 431L231 476H251L165 58L163 45Q163 27 181 27Q196 27 218 35L214 17Q197 4 174 -3T129 -10Q104 -10 88 0Z" />
<glyph unicode="&#xed;" glyph-name="iacute" horiz-adv-x="296" d="M132 572L265 679Q279 690 289 696T312 702Q327 702 334 693T338 672Q334 648 297 630L144 547L132 572ZM104 -10T88 0T71 31Q71 38 72 42L144 395Q145 398 145 402Q145 416 129 416Q120 416
98 408L97 431L231 476H251L165 58L163 45Q163 27 181 27Q196 27 218 35L214 17Q197 4 174 -3T129 -10Q104 -10 88 0Z" />
<glyph unicode="&#xee;" glyph-name="icircumflex" horiz-adv-x="296" d="M79 568L224 697H275L367 568L345 547L258 633Q245 644 238 644Q230 644 213 633L93 547L79 568ZM104 -10T88 0T71 31Q71 38 72 42L144 395Q145 398 145 402Q145 416 129 416Q120 416 98
408L97 431L231 476H251L165 58L163 45Q163 27 181 27Q196 27 218 35L214 17Q197 4 174 -3T129 -10Q104 -10 88 0Z" />
<glyph unicode="&#xef;" glyph-name="idieresis" horiz-adv-x="296" d="M98 546T89 555T79 581Q79 606 95 623T133 640Q151 640 160 631T169 605Q169 579 154 563T114 546Q98 546 89 555ZM304 546T294 555T284 582Q284 588 285 592Q290 613 305 626T341 640Q358
640 367 631T377 605Q377 580 361 563T322 546Q304 546 294 555ZM104 -10T88 0T71 31Q71 38 72 42L144 395Q145 398 145 402Q145 416 129 416Q120 416 98 408L97 431L231 476H251L165 58L163 45Q163 27 181 27Q196 27 218 35L214 17Q197 4 174 -3T129 -10Q104 -10
88 0Z" />
<glyph unicode="&#xf0;" glyph-name="eth" horiz-adv-x="566" d="M445 668Q497 607 525 531T553 376Q553 329 545 292Q516 149 437 70T230 -10Q139 -10 92 43T45 181Q45 216 52 248Q65 310 102 368T201 464T341 502Q382 502 417 485T471 434Q466 486 446 539T390
639L215 546L208 591L237 607Q306 643 360 673Q321 714 270 740L303 776Q366 745 413 701L522 761L552 778L572 735L445 668ZM453 297T453 318Q453 380 422 421T337 462Q294 462 254 435T185 359T142 248Q134 208 134 175Q134 110 161 69T240 28Q315 28 371 97T448
270Q453 297 453 318Z" />
<glyph unicode="&#xf1;" glyph-name="ntilde" horiz-adv-x="598" d="M282 604T264 590T229 545L211 556Q229 598 259 625T325 652Q341 652 355 646T394 625Q416 612 431 606T461 599Q484 599 501 614T536 661L554 650Q536 606 506 578T438 550Q422 550 408 556T371
577Q351 590 336 597T304 604Q282 604 264 590ZM479 480T511 454T544 380Q544 369 540 345L481 58Q479 48 479 44Q479 26 496 26Q504 26 516 29T533 34L529 17Q512 4 489 -3T444 -10Q420 -10 403 0T386 30Q386 37 387 41L447 337Q451 353 451 371Q451 439 374 439Q339
439 302 412T235 340T192 247L142 0L50 -10L132 393Q133 396 133 400Q133 415 117 415Q112 415 102 412T86 407L85 429L214 474H238L213 348Q246 402 299 441T410 480Q479 480 511 454Z" />
<glyph unicode="&#xf2;" glyph-name="ograve" horiz-adv-x="540" d="M297 630Q275 644 275 666Q275 681 286 691T313 702Q335 702 351 678L440 572L418 547L297 630ZM133 -10T81 36T29 167Q29 201 36 235Q60 351 137 415T330 480Q427 480 479 435T531 305Q531
275 523 235Q500 118 423 54T229 -10Q133 -10 81 36ZM309 29T361 83T433 235Q441 277 441 306Q441 371 410 406T322 441Q251 441 199 388T126 235Q118 193 118 165Q118 99 149 64T238 29Q309 29 361 83Z" />
<glyph unicode="&#xf3;" glyph-name="oacute" horiz-adv-x="540" d="M254 572L387 679Q401 690 411 696T434 702Q449 702 456 693T460 672Q456 648 419 630L266 547L254 572ZM133 -10T81 36T29 167Q29 201 36 235Q60 351 137 415T330 480Q427 480 479 435T531
305Q531 275 523 235Q500 118 423 54T229 -10Q133 -10 81 36ZM309 29T361 83T433 235Q441 277 441 306Q441 371 410 406T322 441Q251 441 199 388T126 235Q118 193 118 165Q118 99 149 64T238 29Q309 29 361 83Z" />
<glyph unicode="&#xf4;" glyph-name="ocircumflex" horiz-adv-x="540" d="M202 568L347 697H397L490 568L468 547L381 633Q375 637 370 640T361 644Q353 644 336 633L216 547L202 568ZM133 -10T81 36T29 167Q29 201 36 235Q60 351 137 415T330 480Q427 480 479
435T531 305Q531 275 523 235Q500 118 423 54T229 -10Q133 -10 81 36ZM309 29T361 83T433 235Q441 277 441 306Q441 371 410 406T322 441Q251 441 199 388T126 235Q118 193 118 165Q118 99 149 64T238 29Q309 29 361 83Z" />
<glyph unicode="&#xf5;" glyph-name="otilde" horiz-adv-x="540" d="M181 556Q200 598 229 625T296 652Q312 652 326 646T365 625Q385 612 400 606T431 599Q455 599 471 614T506 661L524 650Q505 606 476 578T408 550Q392 550 379 556T342 577Q322 590 307 597T275
604Q252 604 234 590T200 545L181 556ZM133 -10T81 36T29 167Q29 201 36 235Q60 351 137 415T330 480Q427 480 479 435T531 305Q531 275 523 235Q500 118 423 54T229 -10Q133 -10 81 36ZM309 29T361 83T433 235Q441 277 441 306Q441 371 410 406T322 441Q251 441
199 388T126 235Q118 193 118 165Q118 99 149 64T238 29Q309 29 361 83Z" />
<glyph unicode="&#xf6;" glyph-name="odieresis" horiz-adv-x="540" d="M221 546T212 555T202 581Q202 606 217 623T256 640Q274 640 283 631T292 605Q292 579 277 563T237 546Q221 546 212 555ZM427 546T417 555T407 582Q407 588 408 592Q413 613 428 626T464
640Q481 640 490 631T500 605Q500 580 484 563T444 546Q427 546 417 555ZM133 -10T81 36T29 167Q29 201 36 235Q60 351 137 415T330 480Q427 480 479 435T531 305Q531 275 523 235Q500 118 423 54T229 -10Q133 -10 81 36ZM309 29T361 83T433 235Q441 277 441 306Q441
371 410 406T322 441Q251 441 199 388T126 235Q118 193 118 165Q118 99 149 64T238 29Q309 29 361 83Z" />
<glyph unicode="&#xf7;" glyph-name="divide" horiz-adv-x="559" d="M307 442T295 453T283 483Q283 513 302 533T350 553Q371 553 382 542T394 511Q394 482 375 462T327 442Q307 442 295 453ZM86 359H541L531 308H76L86 359ZM239 114T228 125T216 155Q216 185
235 205T282 225Q303 225 314 214T326 183Q326 153 308 134T260 114Q239 114 228 125Z" />
<glyph unicode="&#xf8;" glyph-name="oslash" horiz-adv-x="540" d="M530 386T530 305Q530 275 522 235Q499 118 422 54T229 -10Q153 -10 104 19L55 -34L27 -8L73 43Q29 87 29 166Q29 200 36 235Q60 352 137 416T330 480Q402 480 451 454L505 513L535 487L483
430Q530 386 530 305ZM117 126T127 100L408 407Q378 440 322 440Q250 440 198 387T125 235Q117 193 117 163Q117 126 127 100ZM441 277T441 306Q441 343 430 373L146 65Q178 28 237 28Q308 28 360 82T433 235Q441 277 441 306Z" />
<glyph unicode="&#xf9;" glyph-name="ugrave" horiz-adv-x="580" d="M292 645T292 665Q292 680 302 691T329 702Q349 702 368 678L456 572L434 547L313 630Q292 645 292 665ZM465 27T482 27Q496 27 518 35L515 17Q479 -10 431 -10Q405 -10 392 5T378 48Q378 61
381 74Q352 39 303 15T200 -10Q131 -10 96 17T60 94Q60 109 63 125L118 393Q119 396 119 400Q119 415 103 415Q98 415 88 412T72 407L70 429L200 474H224L156 137Q152 121 152 103Q152 67 173 49T233 31Q266 31 300 48T362 98T401 178L445 393Q446 396 446 400Q446
415 430 415Q425 415 415 412T399 407L397 429L527 474H551L467 58Q465 48 465 44Q465 27 482 27Z" />
<glyph unicode="&#xfa;" glyph-name="uacute" horiz-adv-x="580" d="M300 547L289 572L421 679Q435 690 445 696T468 702Q484 702 490 693T494 672Q491 649 453 630L300 547ZM465 27T482 27Q496 27 518 35L515 17Q479 -10 431 -10Q405 -10 392 5T378 48Q378 61
381 74Q352 39 303 15T200 -10Q131 -10 96 17T60 94Q60 109 63 125L118 393Q119 396 119 400Q119 415 103 415Q98 415 88 412T72 407L70 429L200 474H224L156 137Q152 121 152 103Q152 67 173 49T233 31Q266 31 300 48T362 98T401 178L445 393Q446 396 446 400Q446
415 430 415Q425 415 415 412T399 407L397 429L527 474H551L467 58Q465 48 465 44Q465 27 482 27Z" />
<glyph unicode="&#xfb;" glyph-name="ucircumflex" horiz-adv-x="580" d="M231 547L217 568L362 697H413L505 568L483 547L396 633Q383 644 376 644Q368 644 351 633L231 547ZM465 27T482 27Q496 27 518 35L515 17Q479 -10 431 -10Q405 -10 392 5T378 48Q378 61
381 74Q352 39 303 15T200 -10Q131 -10 96 17T60 94Q60 109 63 125L118 393Q119 396 119 400Q119 415 103 415Q98 415 88 412T72 407L70 429L200 474H224L156 137Q152 121 152 103Q152 67 173 49T233 31Q266 31 300 48T362 98T401 178L445 393Q446 396 446 400Q446
415 430 415Q425 415 415 412T399 407L397 429L527 474H551L467 58Q465 48 465 44Q465 27 482 27Z" />
<glyph unicode="&#xfc;" glyph-name="udieresis" horiz-adv-x="580" d="M236 546T227 555T217 581Q217 588 218 592Q223 613 237 626T272 640Q289 640 298 631T308 605Q308 580 292 563T252 546Q236 546 227 555ZM442 546T432 556T422 583L423 592Q428 613 443
626T479 640Q496 640 505 630T515 604Q515 579 500 563T460 546Q442 546 432 556ZM465 27T482 27Q496 27 518 35L515 17Q479 -10 431 -10Q405 -10 392 5T378 48Q378 61 381 74Q352 39 303 15T200 -10Q131 -10 96 17T60 94Q60 109 63 125L118 393Q119 396 119 400Q119
415 103 415Q98 415 88 412T72 407L70 429L200 474H224L156 137Q152 121 152 103Q152 67 173 49T233 31Q266 31 300 48T362 98T401 178L445 393Q446 396 446 400Q446 415 430 415Q425 415 415 412T399 407L397 429L527 474H551L467 58Q465 48 465 44Q465 27 482
27Z" />
<glyph unicode="&#xfd;" glyph-name="yacute" horiz-adv-x="538" d="M282 547L271 572L403 679Q417 690 427 696T450 702Q465 702 472 693T476 672Q472 648 435 630L282 547ZM512 478T531 461T550 410Q550 399 547 385Q543 365 526 335T487 277L157 -155Q125 -197
88 -224T16 -252Q-3 -252 -19 -241T-32 -206Q-29 -193 -18 -181T9 -168Q20 -168 25 -173T35 -189Q38 -196 41 -199T49 -203Q73 -203 131 -127L232 10L124 410Q121 418 108 418Q95 418 66 405L62 428L182 470H207L295 97L394 231Q422 271 437 300T460 366Q463 384
463 398Q463 438 437 461Q458 478 487 478Q512 478 531 461Z" />
<glyph unicode="&#xfe;" glyph-name="thorn" horiz-adv-x="569" d="M180 625Q181 628 181 632Q181 647 165 647Q160 647 151 644T135 639L133 661L263 706H288L217 359Q248 409 298 444T403 480Q481 480 522 441T563 324Q563 289 554 247Q526 112 457 51T277 -10Q232
-10 198 10T156 60L98 -225L6 -232L180 625ZM420 29T464 242Q475 295 475 331Q475 386 452 413T378 441Q345 441 308 413T241 343T197 259L177 161Q174 145 174 129Q174 85 201 57T281 29Q420 29 464 242Z" />
<glyph unicode="&#xff;" glyph-name="ydieresis" horiz-adv-x="538" d="M237 546T228 555T218 581Q218 588 219 592Q224 613 238 626T273 640Q290 640 299 631T308 605Q308 579 293 563T253 546Q237 546 228 555ZM443 546T433 556T423 583L424 592Q429 613 444
626T480 640Q497 640 506 630T516 604Q516 579 501 563T461 546Q443 546 433 556ZM512 478T531 461T550 410Q550 399 547 385Q543 365 526 335T487 277L157 -155Q125 -197 88 -224T16 -252Q-3 -252 -19 -241T-32 -206Q-29 -193 -18 -181T9 -168Q20 -168 25 -173T35
-189Q38 -196 41 -199T49 -203Q73 -203 131 -127L232 10L124 410Q121 418 108 418Q95 418 66 405L62 428L182 470H207L295 97L394 231Q422 271 437 300T460 366Q463 384 463 398Q463 438 437 461Q458 478 487 478Q512 478 531 461Z" />
<glyph unicode="&#x2013;" glyph-name="endash" horiz-adv-x="604" d="M63 305H587L575 249H52L63 305Z" />
<glyph unicode="&#x2014;" glyph-name="emdash" horiz-adv-x="911" d="M63 305H894L882 249H52L63 305Z" />
<glyph unicode="&#x2018;" glyph-name="quoteleft" horiz-adv-x="231" d="M153 482T142 493T130 529Q130 534 132 550Q142 595 177 637T262 713L276 697Q220 650 209 601Q208 598 208 592Q208 584 211 577T218 563Q228 547 228 534Q228 512 212 497T172 482Q153
482 142 493Z" />
<glyph unicode="&#x2019;" glyph-name="quoteright" horiz-adv-x="231" d="M119 495Q175 542 184 590Q185 594 185 600Q185 608 182 615T175 629Q174 631 170 638T166 656Q166 678 182 694T222 710Q240 710 252 699T264 664Q264 653 261 641Q252 596 217 554T132
478L119 495Z" />
<glyph unicode="&#x201a;" glyph-name="quotesinglbase" horiz-adv-x="231" d="M13 -23Q68 23 79 72Q80 75 80 81Q80 90 77 97T70 111Q60 127 60 140Q60 161 76 176T116 192Q135 192 146 180T158 144Q158 139 156 123Q146 78 111 36T26 -40L13 -23Z" />
<glyph unicode="&#x201c;" glyph-name="quotedblleft" horiz-adv-x="377" d="M153 482T142 493T130 529Q130 534 132 550Q142 595 177 637T262 713L276 697Q220 650 209 601Q208 598 208 592Q208 584 211 577T218 563Q228 547 228 534Q228 512 212 497T172 482Q153
482 142 493ZM299 482T288 493T276 529Q276 534 278 550Q288 595 323 637T408 713L421 697Q366 649 355 601Q354 598 354 591Q354 579 364 563Q365 562 369 554T373 535Q373 513 357 498T318 482Q299 482 288 493Z" />
<glyph unicode="&#x201d;" glyph-name="quotedblright" horiz-adv-x="377" d="M119 495Q175 542 184 590Q185 594 185 600Q185 608 182 615T175 629Q174 631 170 638T166 656Q166 678 182 694T222 710Q240 710 252 699T264 664Q264 653 261 641Q252 596 217 554T132
478L119 495ZM265 495Q321 542 330 590Q331 594 331 600Q331 608 328 615T321 629Q320 631 316 638T312 656Q312 678 328 694T368 710Q386 710 398 699T410 664Q410 653 407 641Q398 596 363 554T277 478L265 495Z" />
<glyph unicode="&#x201e;" glyph-name="quotedblbase" horiz-adv-x="377" d="M13 -23Q68 23 79 72Q80 75 80 81Q80 90 77 97T70 111Q60 127 60 140Q60 161 76 176T116 192Q135 192 146 180T158 144Q158 139 156 123Q146 78 111 36T26 -40L13 -23ZM159 -23Q214
23 225 72Q226 75 226 81Q226 90 223 97T216 111Q206 127 206 140Q206 161 222 176T262 192Q280 192 292 181T304 146Q304 135 301 123Q292 78 257 36T172 -40L159 -23Z" />
<glyph unicode="&#x2022;" glyph-name="bullet" horiz-adv-x="257" d="M118 270T103 285T88 328Q88 333 90 347Q98 382 121 402T177 423Q202 423 216 409T231 368Q231 326 206 298T146 270Q118 270 103 285Z" />
<glyph unicode="&#x2039;" glyph-name="guilsinglleft" horiz-adv-x="289" d="M51 254L55 271L283 486L299 454L137 262L220 70L192 39L51 254Z" />
<glyph unicode="&#x203a;" glyph-name="guilsinglright" horiz-adv-x="289" d="M18 70L180 262L97 454L125 486L265 271L261 254L34 39L18 70Z" />
</font>
</defs>
</svg>
