<?xml version="1.0" standalone="no"?>
<!DOCTYPE svg PUBLIC "-//W3C//DTD SVG 1.1//EN" "http://www.w3.org/Graphics/SVG/1.1/DTD/svg11.dtd">
<svg xmlns="http://www.w3.org/2000/svg">
<defs >
<font id="SairaCondensed" horiz-adv-x="447" ><font-face
    font-family="Saira Condensed ExtraBold"
    units-per-em="1000"
    panose-1="0 0 9 6 0 0 0 0 0 0"
    ascent="1135"
    descent="-439"
    alphabetic="0" />
<glyph unicode=" " glyph-name="space" horiz-adv-x="178" />
<glyph unicode="!" glyph-name="exclam" horiz-adv-x="277" d="M77 350T64 482T51 646V688H231V646Q231 613 218 478T190 226H92Q77 350 64 482ZM61 0V143H221V0H61Z" />
<glyph unicode="&quot;" glyph-name="quotedbl" horiz-adv-x="412" d="M63 423L48 640V688H185V640L170 423H63ZM242 423L227 640V688H364V640L349 423H242Z" />
<glyph unicode="#" glyph-name="numbersign" horiz-adv-x="576" d="M283 0L306 177H214L191 0H88L111 177H44V278H124L142 411H65V512H155L179 688H281L258 512H350L374 688H476L452 512H526V411H439L421 278H505V177H408L385 0H283ZM337 411H244L227 278H319L337 411Z" />
<glyph unicode="$" glyph-name="dollar" horiz-adv-x="408" d="M154 72Q87 78 47 88V202Q105 195 157 195Q188 195 202 197T222 209T228 237Q228 256 226 264T218 275T195 281L140 291Q97 299 75 317T44 368T35 456Q35 530 65 567T154 615V696H263V617Q319 612
348 602V487Q287 495 244 495Q205 495 194 488T182 458Q182 438 183 431T191 420T212 414L272 405Q306 399 327 387T360 341T373 247Q373 164 345 125T263 75V-8H154V72Z" />
<glyph unicode="%" glyph-name="percent" horiz-adv-x="754" d="M115 312T87 328T51 383T42 503Q42 585 50 623T87 679T176 696Q237 696 265 679T301 624T310 503Q310 421 302 383T265 329T176 312Q115 312 87 328ZM148 0L518 688H607L236 0H148ZM194 388T200
393T208 421T210 503Q210 564 208 585T200 613T176 619Q158 619 152 613T144 586T142 503Q142 443 144 421T152 394T176 388Q194 388 200 393ZM518 -8T490 8T454 63T445 183Q445 266 453 304T490 359T579 376Q640 376 668 360T704 305T713 183Q713 101 705 63T668
9T579 -8Q518 -8 490 8ZM597 69T603 74T611 101T613 183Q613 244 611 266T603 294T579 300Q561 300 555 294T547 266T545 183Q545 123 547 102T555 75T579 69Q597 69 603 74Z" />
<glyph unicode="&amp;" glyph-name="ampersand" horiz-adv-x="552" d="M537 409V286H463V11Q422 3 366 -2T266 -8Q178 -8 128 11T56 72T35 181Q35 263 59 299T135 349V353Q87 366 64 405T41 518Q41 584 64 623T138 679T273 696Q314 696 367 691T462 677V564Q396
572 314 572Q256 572 233 567T201 546T193 490Q193 453 197 437T213 415T252 409H270V286H252Q224 286 211 281T192 257T186 200Q186 160 194 143T221 121T287 116Q305 116 314 117V409H537Z" />
<glyph unicode="&apos;" glyph-name="quotesingle" horiz-adv-x="233" d="M63 423L48 640V688H185V640L170 423H63Z" />
<glyph unicode="(" glyph-name="parenleft" horiz-adv-x="302" d="M113 -67T91 -21T57 96T46 297Q46 426 57 499T92 622T166 743H281Q244 679 228 638T202 519T192 297Q192 153 201 75T227 -45T281 -150H166Q113 -67 91 -21Z" />
<glyph unicode=")" glyph-name="parenright" horiz-adv-x="302" d="M59 -85T75 -44T101 75T111 297Q111 441 102 519T76 637T21 743H136Q187 670 210 622T245 500T257 297Q257 169 246 97T212 -21T136 -150H21Q59 -85 75 -44Z" />
<glyph unicode="*" glyph-name="asterisk" horiz-adv-x="410" d="M236 471L247 362H163L174 471L82 405L41 479L141 524L41 571L82 644L174 579L163 688H247L236 579L327 644L369 571L267 524L369 479L327 405L236 471Z" />
<glyph unicode="+" glyph-name="plus" horiz-adv-x="472" d="M175 73V192H56V314H175V433H297V314H416V192H297V73H175Z" />
<glyph unicode="," glyph-name="comma" horiz-adv-x="260" d="M86 -92T96 -77T106 -15V0H51V143H210V43Q210 -42 200 -82T156 -140T50 -158V-92Q86 -92 96 -77Z" />
<glyph unicode="-" glyph-name="hyphen" horiz-adv-x="298" d="M45 220V349H253V220H45Z" />
<glyph unicode="." glyph-name="period" horiz-adv-x="260" d="M51 0V143H210V0H51Z" />
<glyph unicode="/" glyph-name="slash" horiz-adv-x="340" d="M10 -55L201 743H330L139 -55H10Z" />
<glyph unicode="0" glyph-name="zero" horiz-adv-x="479" d="M141 -8T99 22T45 120T34 344Q34 500 45 568T98 666T239 696Q338 696 380 666T434 568T445 344Q445 188 434 120T381 22T239 -8Q141 -8 99 22ZM265 128T274 138T285 187T288 344Q288 461 286 500T274
550T239 560Q213 560 205 550T194 501T191 344Q191 227 193 188T204 138T239 128Q265 128 274 138Z" />
<glyph unicode="1" glyph-name="one" horiz-adv-x="319" d="M112 0V513L12 473V614L154 688H272V0H112Z" />
<glyph unicode="2" glyph-name="two" horiz-adv-x="456" d="M191 137H422V0H33V90Q33 188 37 233T56 306T109 354L214 409Q236 420 245 427T258 448T262 490Q262 524 256 538T234 556T180 560Q127 560 42 552V678Q77 686 128 691T223 696Q287 696 328 684T396
628T422 499Q422 408 400 368T337 307Q302 288 224 249Q215 244 208 239T197 226Q193 216 192 195T191 144V137Z" />
<glyph unicode="3" glyph-name="three" horiz-adv-x="443" d="M160 -8T111 -3T24 11V135Q111 128 165 128Q204 128 220 132T244 151T251 200Q251 237 246 254T227 276T185 281H92V415H185Q212 415 224 420T241 440T246 490Q246 524 240 538T218 556T160 560Q94
560 25 552V678Q63 686 113 691T201 696Q274 696 318 680T384 624T406 518Q406 444 384 405T314 353V349Q365 335 388 299T412 181Q412 112 392 71T325 11T200 -8Q160 -8 111 -3Z" />
<glyph unicode="4" glyph-name="four" horiz-adv-x="473" d="M248 0V130H18V249L146 688H312L174 266H250L295 421H406V266H460V130H406V0H248Z" />
<glyph unicode="5" glyph-name="five" horiz-adv-x="459" d="M127 128T178 128Q222 128 240 133T264 155T271 216Q271 259 265 277T240 300T178 306Q115 306 49 299V688H402V551H194V435Q219 441 266 441Q360 441 395 389T431 231Q431 141 414 90T351 16T221 -8Q182
-8 133 -3T45 11V135Q127 128 178 128Z" />
<glyph unicode="6" glyph-name="six" horiz-adv-x="475" d="M185 -8T149 1T88 38T50 119Q34 183 34 344Q34 509 57 574Q81 642 128 669T264 696Q297 696 341 690T423 675V550Q345 560 293 560Q244 560 224 549T197 506T191 394H200Q209 412 233 426T301 441Q353
441 383 427T430 368T447 235Q447 140 431 89T371 15T245 -8Q185 -8 149 1ZM266 126T276 131T290 154T294 216Q294 260 290 278T276 301T242 306Q218 306 208 301T195 279T192 221Q192 175 196 156T210 131T242 126Q266 126 276 131Z" />
<glyph unicode="7" glyph-name="seven" horiz-adv-x="427" d="M57 0L246 551H21V688H412V567L226 0H57Z" />
<glyph unicode="8" glyph-name="eight" horiz-adv-x="489" d="M165 -8T119 11T52 71T31 181Q31 263 54 299T129 349V353Q82 366 60 405T37 518Q37 586 58 624T125 679T245 696Q319 696 364 680T430 625T452 518Q452 444 430 405T360 353V349Q411 336 434 300T458
181Q458 112 438 71T371 11T245 -8Q165 -8 119 11ZM269 409T279 413T292 433T295 487Q295 526 292 541T279 561T245 566Q220 566 210 562T197 542T194 487Q194 449 197 434T210 414T245 409Q269 409 279 413ZM269 122T279 127T293 148T297 203Q297 243 294 259T280
281T245 287Q220 287 210 282T196 260T192 203Q192 165 196 149T210 127T245 122Q269 122 279 127Z" />
<glyph unicode="9" glyph-name="nine" horiz-adv-x="475" d="M178 -8T134 -2T52 13V138Q129 128 182 128Q232 128 252 139T278 182T284 294H276Q267 274 241 261T175 247Q123 247 93 261T46 320T29 453Q29 548 45 599T105 673T230 696Q291 696 327 687T387 653T423
579Q442 507 442 344Q442 179 415 105Q392 43 345 18T212 -8Q178 -8 134 -2ZM257 382T267 387T280 409T283 467Q283 513 279 532T265 557T233 562Q210 562 200 557T186 534T182 472Q182 428 186 410T199 387T233 382Q257 382 267 387Z" />
<glyph unicode=":" glyph-name="colon" horiz-adv-x="260" d="M51 367V510H210V367H51ZM51 0V143H210V0H51Z" />
<glyph unicode=";" glyph-name="semicolon" horiz-adv-x="260" d="M51 367V510H210V367H51ZM86 -92T96 -77T106 -15V0H51V143H210V43Q210 -42 200 -82T156 -140T50 -158V-92Q86 -92 96 -77Z" />
<glyph unicode="&lt;" glyph-name="less" horiz-adv-x="473" d="M417 66L56 192V314L417 441V318L206 253L417 188V66Z" />
<glyph unicode="=" glyph-name="equal" horiz-adv-x="472" d="M56 284V406H416V284H56ZM56 100V222H416V100H56Z" />
<glyph unicode="&gt;" glyph-name="greater" horiz-adv-x="473" d="M56 66V188L266 253L56 318V441L417 314V192L56 66Z" />
<glyph unicode="?" glyph-name="question" horiz-adv-x="402" d="M96 311Q96 360 106 382T145 420L162 430Q191 448 199 461T207 506Q207 532 199 543T177 557T130 560Q87 560 33 553V679Q65 686 109 691T189 696Q271 696 318 661T366 532Q366 479 358 449T335
400T289 361L273 351Q250 335 242 327T232 308T230 265V225H96V311ZM83 0V143H243V0H83Z" />
<glyph unicode="@" glyph-name="at" horiz-adv-x="715" d="M206 -108T146 -82T69 20T53 294Q53 492 69 568T145 670T360 696Q514 696 574 670T649 569T665 294Q665 187 654 142T621 86T548 75H394L390 125H383Q372 95 350 82T299 68Q247 68 226 101T204 202Q204
253 214 282T248 323T315 336Q327 336 389 332V351Q389 382 385 394T367 410T317 414Q279 414 224 410V506Q291 518 356 518Q423 518 456 501T502 446T514 340V138H553Q576 138 584 145T596 183T599 294Q599 442 594 502T567 591T492 629Q455 634 359 634Q279 634
236 630Q178 623 155 596T125 508T119 294Q119 132 126 71T163 -16T270 -45Q291 -46 360 -46Q482 -46 514 -42V-106Q485 -108 360 -108Q206 -108 146 -82ZM376 173T382 184T389 235V258H352Q334 258 328 250T322 213Q322 190 327 182T353 173Q376 173 382 184Z"
/>
<glyph unicode="A" glyph-name="A" horiz-adv-x="509" d="M343 0L322 128H184L163 0H5L138 688H371L504 0H343ZM256 542H249L205 261H300L256 542Z" />
<glyph unicode="B" glyph-name="B" horiz-adv-x="490" d="M46 688H293Q458 688 458 515Q458 441 436 404T366 353V349Q416 336 439 301T463 184Q463 91 423 46T293 0H46V688ZM272 413T282 417T297 436T301 482Q301 516 298 529T284 547T249 552H203V413H249Q272
413 282 417ZM275 136T285 140T299 159T303 209Q303 243 299 258T285 277T250 282H203V136H250Q275 136 285 140Z" />
<glyph unicode="C" glyph-name="C" horiz-adv-x="400" d="M351 2T316 -3T251 -8Q154 -8 109 24T49 128T34 344Q34 487 49 559T110 663T251 696Q285 696 318 691T371 679V553Q316 559 283 559Q237 559 221 547T200 495T195 344Q195 233 199 194T220 142T283 129Q337
129 373 135V10Q351 2 316 -3Z" />
<glyph unicode="D" glyph-name="D" horiz-adv-x="498" d="M46 688H240Q349 688 395 658T453 562T464 344Q464 192 453 127T396 31T240 0H46V688ZM239 137Q275 137 286 146T301 194T305 344Q305 455 302 493T286 541T239 551H205V137H239Z" />
<glyph unicode="E" glyph-name="E" horiz-adv-x="424" d="M46 0V688H389V551H206V416H364V279H206V137H389V0H46Z" />
<glyph unicode="F" glyph-name="F" horiz-adv-x="395" d="M46 0V688H374V551H206V399H353V262H206V0H46Z" />
<glyph unicode="G" glyph-name="G" horiz-adv-x="490" d="M253 276V407H449V14Q413 4 361 -2T263 -8Q166 -8 119 21T53 123T34 344Q34 490 53 563T123 666T274 696Q317 696 367 690T447 675V549Q415 553 378 556T321 559Q255 559 232 549T201 498T193 344Q193
239 197 196T217 139T268 124Q285 124 305 126V276H253Z" />
<glyph unicode="H" glyph-name="H" horiz-adv-x="519" d="M313 0V274H205V0H45V688H205V419H313V688H473V0H313Z" />
<glyph unicode="I" glyph-name="I" horiz-adv-x="251" d="M46 0V688H206V0H46Z" />
<glyph unicode="J" glyph-name="J" horiz-adv-x="311" d="M61 128T80 135T104 164T109 247V688H269V320Q269 154 256 94T193 17T10 0V128Q61 128 80 135Z" />
<glyph unicode="K" glyph-name="K" horiz-adv-x="500" d="M325 0L230 279H206V0H46V688H206V419H230L328 688H494L356 359L496 0H325Z" />
<glyph unicode="L" glyph-name="L" horiz-adv-x="382" d="M46 0V688H206V141H369V0H46Z" />
<glyph unicode="M" glyph-name="M" horiz-adv-x="714" d="M515 0V487H507L426 0H284L204 487H196V0H45V688H285L355 242H363L433 688H668V0H515Z" />
<glyph unicode="N" glyph-name="N" horiz-adv-x="523" d="M336 0L202 339H198V0H45V688H199L320 385H326V688H478V0H336Z" />
<glyph unicode="O" glyph-name="O" horiz-adv-x="507" d="M146 -8T101 23T45 121T34 344Q34 500 45 567T101 665T253 696Q360 696 405 665T462 567T473 344Q473 188 462 122T406 24T253 -8Q146 -8 101 23ZM285 129T295 139T309 188T312 344Q312 461 309 500T296
549T253 559Q222 559 212 549T198 500T195 344Q195 227 198 188T211 139T253 129Q285 129 295 139Z" />
<glyph unicode="P" glyph-name="P" horiz-adv-x="480" d="M46 688H283Q358 688 396 662T448 586T462 450Q462 369 450 319T399 241T283 212H206V0H46V688ZM242 348Q271 348 282 354T297 380T301 450Q301 500 298 520T283 546T243 552H206V348H242Z" />
<glyph unicode="Q" glyph-name="Q" horiz-adv-x="506" d="M285 -7Q275 -8 253 -8Q146 -8 101 23T45 121T34 344Q34 500 45 567T101 665T253 696Q360 696 405 665T461 567T472 344Q472 208 463 142T421 41L513 -109V-115H348L285 -7ZM285 128T295 138T309 188T312
344Q312 460 309 500T296 550T253 560Q221 560 211 550T197 500T194 344Q194 228 197 188T210 138T253 128Q285 128 295 138Z" />
<glyph unicode="R" glyph-name="R" horiz-adv-x="499" d="M318 0L257 232H206V0H46V688H288Q363 688 402 663T454 590T467 460Q467 384 455 336T404 262L483 0H318ZM277 365T288 370T303 394T307 459Q307 505 304 523T289 546T248 552H206V365H248Q277 365 288 370Z" />
<glyph unicode="S" glyph-name="S" horiz-adv-x="446" d="M176 -8T126 -3T39 10V136Q130 129 178 129Q211 129 227 131T250 143Q257 150 259 162T261 197Q261 230 258 244T242 264T201 276L114 292Q64 300 45 348T26 485Q26 573 52 619T122 680T234 696Q310 696
396 678V552Q345 559 274 559Q240 559 224 557T200 548Q192 542 189 529T186 491Q186 464 188 452T199 435T228 425L310 410Q344 403 367 389T405 337Q421 295 421 220Q421 121 397 72T331 7T223 -8Q176 -8 126 -3Z" />
<glyph unicode="T" glyph-name="T" horiz-adv-x="425" d="M133 0V547H8V688H417V547H293V0H133Z" />
<glyph unicode="U" glyph-name="U" horiz-adv-x="505" d="M463 688V307Q463 170 452 109T397 20T252 -8Q151 -8 108 20T53 108T42 307V688H202V260Q202 191 204 167T216 135T252 128Q279 128 288 135T300 166T303 260V688H463Z" />
<glyph unicode="V" glyph-name="V" horiz-adv-x="492" d="M130 0L8 688H170L244 164H254L325 688H484L362 0H130Z" />
<glyph unicode="W" glyph-name="W" horiz-adv-x="768" d="M448 0L389 449H382L324 0H105L14 688H175L221 168H229L296 688H481L550 168H558L600 688H758L666 0H448Z" />
<glyph unicode="X" glyph-name="X" horiz-adv-x="510" d="M329 0L257 233H248L175 0H9L144 346L11 688H183L253 465H261L333 688H499L367 350L502 0H329Z" />
<glyph unicode="Y" glyph-name="Y" horiz-adv-x="476" d="M158 0V233L-1 688H161L237 400H247L319 688H477L318 233V0H158Z" />
<glyph unicode="Z" glyph-name="Z" horiz-adv-x="446" d="M30 0V129L235 551H37V688H415V561L209 136H416V0H30Z" />
<glyph unicode="[" glyph-name="bracketleft" horiz-adv-x="316" d="M48 -150V743H281V651L190 647V-53L281 -57V-150H48Z" />
<glyph unicode="\" glyph-name="backslash" horiz-adv-x="340" d="M201 -55L10 743H140L330 -55H201Z" />
<glyph unicode="]" glyph-name="bracketright" horiz-adv-x="316" d="M35 -150V-57L126 -53V647L35 651V743H268V-150H35Z" />
<glyph unicode="^" glyph-name="asciicircum" horiz-adv-x="385" d="M258 475L192 640L126 475H4L132 750H253L380 475H258Z" />
<glyph unicode="_" glyph-name="underscore" horiz-adv-x="372" d="M0 -191V-70H372V-191H0Z" />
<glyph unicode="`" glyph-name="grave" horiz-adv-x="209" d="M86 596L6 738V743H150L203 601V596H86Z" />
<glyph unicode="a" glyph-name="a" horiz-adv-x="431" d="M74 -8T48 30T22 148Q22 207 34 241T75 290T156 305Q193 305 243 301V323Q243 360 238 374T216 393T157 397Q116 397 46 392V504Q135 518 204 518Q283 518 323 498T377 434T392 310V0H249L245 58H236Q223
24 197 8T136 -8Q74 -8 48 30ZM215 116T223 119T237 133Q243 147 243 189V215H200Q178 215 171 205T164 162Q164 134 170 125T201 116Q215 116 223 119Z" />
<glyph unicode="b" glyph-name="b" horiz-adv-x="450" d="M261 -8T234 7T196 58H187L183 0H40V743H189V457H197Q210 489 235 503T297 518Q345 518 371 494T409 413T420 255Q420 150 408 94T370 15T296 -8Q261 -8 234 7ZM252 122T259 128T269 160T272 255Q272 324
270 349T260 381T230 388Q214 388 207 384T195 365Q189 345 189 255Q189 218 190 190T194 148Q198 132 205 127T230 122Q252 122 259 128Z" />
<glyph unicode="c" glyph-name="c" horiz-adv-x="343" d="M262 -8T203 -8Q127 -8 90 20T41 103T29 255Q29 354 41 408T91 490T203 518Q267 518 317 504V392Q282 397 247 397Q214 397 201 389T184 352T179 255Q179 185 183 157T201 121T247 113Q281 113 319 118V7Q262
-8 203 -8Z" />
<glyph unicode="d" glyph-name="d" horiz-adv-x="450" d="M106 -8T80 14T41 93T29 254Q29 356 40 412T78 493T153 518Q228 518 252 457H261V743H410V0H267L263 58H254Q242 22 215 7T154 -8Q106 -8 80 14ZM237 122T244 127T256 152Q261 182 261 255Q261 326 257
351Q254 374 246 381T219 388Q198 388 191 382T181 350T178 255Q178 186 180 161T190 129T219 122Q237 122 244 127Z" />
<glyph unicode="e" glyph-name="e" horiz-adv-x="427" d="M397 214H177Q177 162 181 143T202 119T263 113Q318 113 385 118V7Q359 0 315 -4T228 -8Q135 -8 93 19T40 98T29 254Q29 357 40 410T92 490T218 518Q305 518 342 493T388 417T397 254V214ZM199 400T191
395T180 370T177 304H258Q258 351 256 370T246 394T218 400Q199 400 191 395Z" />
<glyph unicode="f" glyph-name="f" horiz-adv-x="324" d="M74 389H13V510H74V528Q74 633 90 676T152 731T306 743V636Q265 636 249 632T228 612T223 560V510H306V389H223V0H74V389Z" />
<glyph unicode="g" glyph-name="g" horiz-adv-x="449" d="M172 -205T131 -202T63 -194V-84L173 -85Q218 -85 234 -79T255 -53T260 20V65H252Q240 33 216 19T153 5Q105 5 79 28T41 107T29 262Q29 364 41 419T79 496T154 518Q188 518 215 503T254 452H263L267 510H409V58Q409
-45 398 -97T345 -177T210 -205Q172 -205 131 -202ZM237 134T244 139T256 161Q259 173 259 199T260 261Q260 336 257 354Q253 375 245 381T219 388Q198 388 190 382T180 352T178 261Q178 195 180 171T190 141T219 134Q237 134 244 139Z" />
<glyph unicode="h" glyph-name="h" horiz-adv-x="453" d="M266 274Q266 333 264 354T255 382T228 388Q208 388 201 380T191 347T189 258V0H40V743H189V452H197Q223 518 304 518Q351 518 375 500T407 443T415 338V0H266V274Z" />
<glyph unicode="i" glyph-name="i" horiz-adv-x="230" d="M40 612V743H190V612H40ZM40 0V510H190V0H40Z" />
<glyph unicode="j" glyph-name="j" horiz-adv-x="230" d="M40 612V743H190V612H40ZM-17 -88Q10 -88 22 -83T37 -68T40 -37V510H190V23Q190 -80 174 -125T116 -184T-17 -198V-88Z" />
<glyph unicode="k" glyph-name="k" horiz-adv-x="442" d="M280 0L208 192H189V0H40V743H189V313H208L284 510H435L332 268L437 0H280Z" />
<glyph unicode="l" glyph-name="l" horiz-adv-x="230" d="M40 0V743H190V0H40Z" />
<glyph unicode="m" glyph-name="m" horiz-adv-x="670" d="M483 274Q483 333 481 354T473 382T447 388Q428 388 421 380T412 348T410 258V0H261V274Q261 333 259 354T251 382T226 388Q207 388 200 380T191 348T189 258V0H40V510H183L187 451H195Q211 488 238 503T304
518Q347 518 370 502T403 451H412Q428 488 455 503T522 518Q567 518 590 500T623 444T632 343V0H483V274Z" />
<glyph unicode="n" glyph-name="n" horiz-adv-x="453" d="M266 274Q266 333 264 354T255 382T228 388Q208 388 201 380T191 347T189 258V0H40V510H183L187 451H195Q221 518 304 518Q351 518 375 499T407 442T415 337V0H266V274Z" />
<glyph unicode="o" glyph-name="o" horiz-adv-x="439" d="M131 -8T92 14T41 88T29 255Q29 370 40 422T91 496T220 518Q309 518 348 496T398 422T410 255Q410 140 399 88T348 14T220 -8Q131 -8 92 14ZM242 113T249 120T259 155T262 255Q262 328 260 355T250 389T220
397Q198 397 190 390T180 356T178 255Q178 181 180 155T190 121T220 113Q242 113 249 120Z" />
<glyph unicode="p" glyph-name="p" horiz-adv-x="450" d="M40 510H183L187 452H196Q207 488 234 503T296 518Q343 518 369 496T408 417T420 256Q420 154 409 98T372 17T297 -8Q260 -8 235 6T197 53H189V-198H40V510ZM252 122T259 128T269 160T272 255Q272 324
270 349T260 381T230 388Q213 388 205 383T193 359Q190 347 190 320T189 255Q189 170 192 155Q196 135 204 129T230 122Q252 122 259 128Z" />
<glyph unicode="q" glyph-name="q" horiz-adv-x="450" d="M261 53H252Q228 -8 153 -8Q105 -8 79 16T41 96T29 255Q29 360 41 416T79 495T154 518Q188 518 215 503T254 452H263L267 510H410V-198H261V53ZM236 122T244 127T256 149Q261 168 261 255Q261 339 255
363Q251 379 244 383T219 388Q198 388 191 382T181 350T178 255Q178 186 180 161T190 129T219 122Q236 122 244 127Z" />
<glyph unicode="r" glyph-name="r" horiz-adv-x="324" d="M40 510H183L187 428H195Q211 478 238 498T311 518V367Q267 367 241 356T202 315T189 227V0H40V510Z" />
<glyph unicode="s" glyph-name="s" horiz-adv-x="372" d="M152 -8T108 -4T32 8V118Q100 112 140 112Q171 112 184 114T204 125T210 151Q210 170 208 177T198 188T173 195L91 209Q52 215 36 250T20 362Q20 448 64 483T192 518Q227 518 265 514T328 502V391Q267
398 226 398Q200 398 188 395T171 385T166 362Q166 337 170 331T196 321L266 310Q293 305 311 294T341 251T353 161Q353 94 334 57T279 6T189 -8Q152 -8 108 -4Z" />
<glyph unicode="t" glyph-name="t" horiz-adv-x="315" d="M73 0V389H13V510H73V658H223V510H302V389H223V0H73Z" />
<glyph unicode="u" glyph-name="u" horiz-adv-x="453" d="M267 59H258Q232 -8 150 -8Q103 -8 79 11T46 67T38 173V510H187V236Q187 178 189 156T199 128T225 122Q245 122 252 130T262 162T264 252V510H413V0H271L267 59Z" />
<glyph unicode="v" glyph-name="v" horiz-adv-x="424" d="M109 0L5 510H155L210 152H219L271 510H419L315 0H109Z" />
<glyph unicode="w" glyph-name="w" horiz-adv-x="657" d="M377 0L334 252H325L282 0H96L8 510H155L193 173H202L260 510H403L462 173H471L508 510H649L561 0H377Z" />
<glyph unicode="x" glyph-name="x" horiz-adv-x="435" d="M274 0L219 156H210L156 0H6L118 257L9 510H166L218 364H226L276 510H426L317 259L430 0H274Z" />
<glyph unicode="y" glyph-name="y" horiz-adv-x="453" d="M176 -205T135 -202T69 -194V-83Q107 -84 179 -84Q223 -84 239 -78T260 -53T264 19V70H256Q230 4 150 4Q102 4 78 23T46 81T38 190V510H187V248Q187 189 189 167T199 140T225 134Q245 134 252 142T262
174T264 264V510H413V57Q413 -46 402 -97T349 -177T215 -205Q176 -205 135 -202Z" />
<glyph unicode="z" glyph-name="z" horiz-adv-x="402" d="M30 0V113L196 389H37V510H370V398L205 121H372V0H30Z" />
<glyph unicode="{" glyph-name="braceleft" horiz-adv-x="330" d="M164 -126T130 -76T96 29V153Q96 200 81 228T21 265V328Q64 335 80 363T96 439V564Q96 618 130 668T212 743H306Q268 696 253 657T237 556V445Q237 323 130 300V293Q185 281 211 244T237 148V37Q237
-25 252 -64T306 -150H212Q164 -126 130 -76Z" />
<glyph unicode="|" glyph-name="bar" horiz-adv-x="241" d="M53 -161V743H188V-161H53Z" />
<glyph unicode="}" glyph-name="braceright" horiz-adv-x="330" d="M62 -104T77 -65T92 37V148Q92 206 118 243T200 293V300Q92 322 92 445V556Q92 618 77 657T24 743H118Q166 719 200 669T234 564V439Q234 392 249 364T309 328V265Q265 257 250 229T234 153V29Q234
-25 200 -75T118 -150H24Q62 -104 77 -65Z" />
<glyph unicode="~" glyph-name="asciitilde" horiz-adv-x="464" d="M414 326T410 299T386 257T325 241Q289 241 216 256Q166 266 154 266Q140 266 137 259T134 230H50Q50 283 54 309T78 351T139 367Q163 367 192 363T247 353Q254 352 276 348T310 343Q324 343
327 349T330 378H414Q414 326 410 299Z" />
<glyph unicode="&#xa0;" glyph-name="uni00A0" horiz-adv-x="178" />
<glyph unicode="&#xa1;" glyph-name="exclamdown" horiz-adv-x="272" d="M56 367V510H215V367H56ZM45 -136Q45 -103 58 30T87 284H184Q199 164 212 31T226 -136V-178H45V-136Z" />
<glyph unicode="&#xa2;" glyph-name="cent" horiz-adv-x="354" d="M151 73Q102 84 77 116T43 202T34 342Q34 429 43 482T77 568T151 610V696H260V614Q300 608 321 602V486Q273 491 252 491Q220 491 207 482T189 444T184 342Q184 270 188 241T206 203T252 194Q288
194 324 198V84Q301 76 260 71V-8H151V73Z" />
<glyph unicode="&#xa3;" glyph-name="sterling" horiz-adv-x="440" d="M408 136V0H30V136H87V287H30V421H88V435Q88 533 102 587T158 669T282 696Q313 696 346 692T401 682V553Q359 560 323 560Q280 560 268 550Q255 539 252 516T248 435V421H358V287H248V136H408Z" />
<glyph unicode="&#xa4;" glyph-name="currency" horiz-adv-x="549" d="M29 93L98 163Q89 191 86 233T83 345Q83 414 86 456T98 527L29 596L116 682L190 607Q222 614 273 614Q318 614 358 607L434 682L519 596L449 525Q458 497 461 455T464 345Q464 276 461 235T450
164L519 93L433 7L358 82Q326 75 273 75Q221 75 190 82L116 7L29 93ZM295 196T303 204T313 239T315 345Q315 423 313 450T303 485T273 493Q251 493 244 485T234 451T232 345Q232 265 234 239T243 204T273 196Q295 196 303 204Z" />
<glyph unicode="&#xa5;" glyph-name="yen" horiz-adv-x="515" d="M177 0V201H44V280H165L138 354H44V432H111L26 688H186L256 401H266L333 688H489L403 432H470V354H376L349 280H470V201H337V0H177Z" />
<glyph unicode="&#xa6;" glyph-name="brokenbar" horiz-adv-x="241" d="M53 390V743H188V390H53ZM53 -161V192H188V-161H53Z" />
<glyph unicode="&#xa7;" glyph-name="section" horiz-adv-x="505" d="M193 -170T151 -165T87 -152V-29Q155 -36 209 -36Q247 -36 258 -28T269 4Q269 27 265 33T238 49L151 86Q112 102 87 118T44 167T26 255Q26 330 45 368T108 420Q95 439 90 463T84 523Q84 617
131 656T270 696Q316 696 357 690T418 677V555Q355 562 296 562Q258 562 247 555T236 523Q236 500 241 493T266 477L351 442Q392 425 416 409T459 360T478 270Q478 195 459 157T397 105Q421 69 421 4Q421 -90 374 -130T235 -170Q193 -170 151 -165ZM328 180T328
247Q328 289 307 298L216 338Q200 346 193 346Q177 346 177 279Q177 258 182 245T202 226L291 187Q306 180 312 180Q328 180 328 247Z" />
<glyph unicode="&#xa8;" glyph-name="dieresis" horiz-adv-x="314" d="M6 620V730H131V620H6ZM183 620V730H308V620H183Z" />
<glyph unicode="&#xa9;" glyph-name="copyright" horiz-adv-x="588" d="M173 -8T126 15T67 105T54 344Q54 517 66 583T126 672T294 696Q415 696 462 673T521 583T534 344Q534 171 522 105T462 16T294 -8Q173 -8 126 15ZM394 46T427 60T469 128T478 344Q478 506
470 560T428 628T294 642Q194 642 161 628T119 560T110 344Q110 182 118 128T160 60T294 46Q394 46 427 60ZM260 156T236 173T204 229T196 344Q196 420 204 458T236 514T310 531Q353 531 374 523V455Q335 458 328 458Q304 458 296 452T285 425T283 344Q283 284
285 263T295 236T328 229Q343 229 376 232V165Q345 156 310 156Q260 156 236 173Z" />
<glyph unicode="&#xaa;" glyph-name="ordfeminine" horiz-adv-x="332" d="M63 306T44 334T25 422Q25 487 46 512T123 538Q159 538 187 535V552Q187 579 183 589T167 603T124 606Q114 606 68 604L43 602V685Q100 696 159 696Q217 696 246 681T287 634T298 542V312H191L188
355H181Q172 330 153 318T109 306Q63 306 44 334ZM169 398T175 401T184 414Q187 421 187 451V471H156Q140 471 135 464T130 432Q130 412 134 405T157 398Q169 398 175 401Z" />
<glyph unicode="&#xab;" glyph-name="guillemotleft" horiz-adv-x="429" d="M117 123L31 316L117 510H220L155 316L220 123H117ZM287 123L201 316L287 510H390L325 316L390 123H287Z" />
<glyph unicode="&#xac;" glyph-name="logicalnot" horiz-adv-x="472" d="M294 65V184H56V307H416V65H294Z" />
<glyph unicode="&#xad;" glyph-name="uni00AD" horiz-adv-x="298" d="M45 220V349H253V220H45Z" />
<glyph unicode="&#xae;" glyph-name="registered" horiz-adv-x="588" d="M415 696T462 673T521 583T534 344Q534 171 522 105T462 15T294 -8Q173 -8 126 15T67 104T54 344Q54 517 66 583T126 672T294 696Q415 696 462 673ZM394 46T427 60T469 128T478 344Q478
505 469 559T427 628T294 642Q194 642 161 628T119 560T110 344Q110 182 118 128T160 60T294 46Q394 46 427 60ZM407 364T401 339T374 300L416 160H328L296 284H269V160H185V528H312Q352 528 372 515T400 477T407 406Q407 364 401 339ZM307 355T313 358T321 371T323
405Q323 429 321 438T313 451T292 454H269V355H292Q307 355 313 358Z" />
<glyph unicode="&#xaf;" glyph-name="overscore" horiz-adv-x="299" d="M45 614V743H254V614H45Z" />
<glyph unicode="&#xb0;" glyph-name="degree" horiz-adv-x="323" d="M101 397T74 411T41 454T34 547Q34 611 40 639T74 682T162 696Q223 696 250 682T283 640T290 547Q290 483 284 454T250 411T162 397Q101 397 74 411ZM181 469T188 474T196 494T198 547Q198 585
197 599T188 618T162 624Q144 624 137 619T128 599T126 547Q126 509 128 495T137 475T162 469Q181 469 188 474Z" />
<glyph unicode="&#xb1;" glyph-name="plusminus" horiz-adv-x="472" d="M175 196V316H56V438H175V557H297V438H416V316H297V196H175ZM56 29V151H416V29H56Z" />
<glyph unicode="&#xb2;" glyph-name="uni00B2" horiz-adv-x="301" d="M136 399H262V314H39V368Q39 418 41 443T51 483T77 508L141 542Q155 549 159 556T164 580Q164 602 157 606T123 611Q103 611 43 606V685Q64 690 93 693T148 696Q185 696 208 689T247 658T262
585Q262 535 250 513T212 478L153 448Q141 442 139 435T136 404V399Z" />
<glyph unicode="&#xb3;" glyph-name="uni00B3" horiz-adv-x="300" d="M91 306T39 317V396Q91 391 121 391Q146 391 153 396T160 425Q160 450 155 456T132 463H75V542H132Q148 542 152 548T157 580Q157 596 155 602T145 610T117 612Q80 612 41 606V686Q88 696 140
696Q202 696 229 674T257 595Q257 558 246 537T210 506V502Q235 493 247 473T260 413Q260 355 233 331T139 306Q91 306 39 317Z" />
<glyph unicode="&#xb4;" glyph-name="acute" horiz-adv-x="209" d="M6 596V601L59 743H203V738L123 596H6Z" />
<glyph unicode="&#xb5;" glyph-name="uni00B5" horiz-adv-x="455" d="M415 510V0H272L268 59H260Q249 32 232 18T189 -1V-189H40V510H189V236Q189 177 191 156T200 128T226 122Q246 122 254 130T264 163T266 252V510H415Z" />
<glyph unicode="&#xb6;" glyph-name="paragraph" horiz-adv-x="501" d="M169 222Q102 222 74 238T37 299T28 454Q28 563 37 609T74 671T169 688H280V-144H169V222ZM334 -144V688H445V-144H334Z" />
<glyph unicode="&#xb7;" glyph-name="middot" horiz-adv-x="260" d="M51 227V370H210V227H51Z" />
<glyph unicode="&#xb8;" glyph-name="cedilla" horiz-adv-x="172" d="M5 -189V-184L72 8H167V3L133 -189H5Z" />
<glyph unicode="&#xb9;" glyph-name="uni00B9" horiz-adv-x="229" d="M90 314V579L36 556V645L118 688H188V314H90Z" />
<glyph unicode="&#xba;" glyph-name="ordmasculine" horiz-adv-x="341" d="M107 307T78 323T39 378T30 501Q30 585 39 624T77 680T171 696Q235 696 264 680T303 625T312 501Q312 417 303 378T265 323T171 307Q107 307 78 323ZM187 397T192 402T199 427T201 501Q201
556 200 575T193 600T171 606Q155 606 150 601T143 576T141 501Q141 445 142 427T149 403T171 397Q187 397 192 402Z" />
<glyph unicode="&#xbb;" glyph-name="guillemotright" horiz-adv-x="429" d="M39 123L104 316L39 510H142L228 316L142 123H39ZM208 123L273 316L208 510H311L397 316L311 123H208Z" />
<glyph unicode="&#xbc;" glyph-name="onequarter" horiz-adv-x="645" d="M89 314V579L35 556V645L116 688H187V314H89ZM80 0L431 688H522L172 0H80ZM481 0V69H355V139L427 374H529L449 154H485L517 238H579V154H608V69H579V0H481Z" />
<glyph unicode="&#xbd;" glyph-name="onehalf" horiz-adv-x="668" d="M89 314V579L35 556V645L116 688H187V314H89ZM431 688H522L172 0H80L431 688ZM502 85H628V0H406V54Q406 104 408 129T418 169T443 194L507 227Q521 235 526 242T531 266Q531 287 524 292T490
297Q470 297 410 292V371Q431 376 460 379T514 382Q551 382 574 375T613 344T628 271Q628 221 616 199T579 164L522 135Q509 128 506 119T502 90V85Z" />
<glyph unicode="&#xbe;" glyph-name="threequarters" horiz-adv-x="691" d="M91 391T121 391Q146 391 153 396T160 425Q160 450 155 456T132 463H75V542H132Q148 542 152 548T157 580Q157 596 155 602T145 610T117 612Q80 612 41 606V686Q88 696 140 696Q202 696
229 674T257 595Q257 558 246 537T210 506V502Q235 493 247 473T260 413Q260 355 233 331T140 306Q91 306 39 317V396Q91 391 121 391ZM127 0L478 688H569L218 0H127ZM526 0V69H400V139L472 374H574L494 154H530L562 238H623V154H653V69H623V0H526Z" />
<glyph unicode="&#xbf;" glyph-name="questiondown" horiz-adv-x="373" d="M159 367V510H319V367H159ZM128 -186T82 -150T36 -22Q36 30 42 60T64 108T107 146L141 168Q157 179 163 185T170 203T172 245V285H306V199Q306 150 296 128T257 90L242 81Q212 62 204
49T195 4Q195 -21 202 -32T225 -47T272 -50Q311 -50 369 -43V-169Q338 -176 294 -181T213 -186Q128 -186 82 -150Z" />
<glyph unicode="&#xc0;" glyph-name="Agrave" horiz-adv-x="508" d="M343 0L322 128H184L163 0H5L138 688H371L504 0H343ZM256 542H249L205 261H300L256 542ZM204 749L124 891V896H268L321 754V749H204Z" />
<glyph unicode="&#xc1;" glyph-name="Aacute" horiz-adv-x="508" d="M343 0L322 128H184L163 0H5L138 688H371L504 0H343ZM256 542H249L205 261H300L256 542ZM181 750V755L234 897H378V892L298 750H181Z" />
<glyph unicode="&#xc2;" glyph-name="Acircumflex" horiz-adv-x="508" d="M343 0L322 128H184L163 0H5L138 688H371L504 0H343ZM256 542H249L205 261H300L256 542ZM107 750V759L181 881H325L401 759V750H301L253 815L207 750H107Z" />
<glyph unicode="&#xc3;" glyph-name="Atilde" horiz-adv-x="508" d="M343 0L322 128H184L163 0H5L138 688H371L504 0H343ZM256 542H249L205 261H300L256 542ZM414 845T410 819T389 777T335 761Q302 761 246 776Q240 777 223 781T195 786Q183 786 180 779T177 750H94Q94
803 98 829T119 870T174 886Q207 886 263 871Q301 862 314 862Q326 862 328 869T331 898H414Q414 845 410 819Z" />
<glyph unicode="&#xc4;" glyph-name="Adieresis" horiz-adv-x="508" d="M343 0L322 128H184L163 0H5L138 688H371L504 0H343ZM256 542H249L205 261H300L256 542ZM103 777V887H228V777H103ZM280 777V887H405V777H280Z" />
<glyph unicode="&#xc5;" glyph-name="Aring" horiz-adv-x="509" d="M504 0H343L322 128H184L163 0H5L137 687Q125 700 122 719T119 772Q119 818 126 841T162 876T254 888Q317 888 346 876T382 841T390 772Q390 739 387 720T372 687L504 0ZM233 816T224 813T213
801T211 772Q211 752 213 744T224 732T254 728Q276 728 285 731T297 743T299 772Q299 792 297 800T286 812T254 816Q233 816 224 813ZM205 261H300L256 542H249L205 261Z" />
<glyph unicode="&#xc6;" glyph-name="AE" horiz-adv-x="687" d="M326 0L313 128H173L143 0H-15L168 688H652V551H423L438 415H626V279H452L469 136H652V0H326ZM274 545H268L203 262H301L274 545Z" />
<glyph unicode="&#xc7;" glyph-name="Ccedilla" horiz-adv-x="400" d="M337 129T373 135V10Q351 2 316 -3T251 -8H248L216 -189H88V-184L153 3Q102 18 77 57T43 162T34 344Q34 487 49 559T110 663T251 696Q285 696 318 691T371 679V553Q316 559 283 559Q237 559
221 547T200 495T195 344Q195 233 199 194T220 142T283 129Q337 129 373 135Z" />
<glyph unicode="&#xc8;" glyph-name="Egrave" horiz-adv-x="422" d="M46 0V688H389V551H206V416H364V279H206V137H389V0H46ZM173 750L93 892V897H237L290 755V750H173Z" />
<glyph unicode="&#xc9;" glyph-name="Eacute" horiz-adv-x="422" d="M46 0V688H389V551H206V416H364V279H206V137H389V0H46ZM157 750V755L210 897H354V892L274 750H157Z" />
<glyph unicode="&#xca;" glyph-name="Ecircumflex" horiz-adv-x="422" d="M46 0V688H389V551H206V416H364V279H206V137H389V0H46ZM69 750V759L143 881H287L363 759V750H263L215 815L169 750H69Z" />
<glyph unicode="&#xcb;" glyph-name="Edieresis" horiz-adv-x="422" d="M46 0V688H389V551H206V416H364V279H206V137H389V0H46ZM67 773V883H192V773H67ZM244 773V883H369V773H244Z" />
<glyph unicode="&#xcc;" glyph-name="Igrave" horiz-adv-x="251" d="M46 0V688H206V0H46ZM89 750L9 892V897H153L206 755V750H89Z" />
<glyph unicode="&#xcd;" glyph-name="Iacute" horiz-adv-x="251" d="M46 0V688H206V0H46ZM48 750V755L101 897H245V892L165 750H48Z" />
<glyph unicode="&#xce;" glyph-name="Icircumflex" horiz-adv-x="251" d="M46 0V688H206V0H46ZM-22 750V759L52 881H196L272 759V750H172L124 815L78 750H-22Z" />
<glyph unicode="&#xcf;" glyph-name="Idieresis" horiz-adv-x="251" d="M46 0V688H206V0H46ZM-25 777V887H100V777H-25ZM152 777V887H277V777H152Z" />
<glyph unicode="&#xd0;" glyph-name="Eth" horiz-adv-x="499" d="M46 283H1V413H46V688H240Q349 688 395 658T453 562T464 344Q464 192 453 127T396 31T240 0H46V283ZM275 137T286 146T301 194T305 344Q305 455 302 493T286 541T239 551H205V413H256V283H205V137H239Q275
137 286 146Z" />
<glyph unicode="&#xd1;" glyph-name="Ntilde" horiz-adv-x="523" d="M336 0L202 339H198V0H45V688H199L320 385H326V688H478V0H336ZM421 846T417 820T396 778T342 762Q309 762 253 777Q247 778 230 782T202 787Q190 787 187 780T184 751H101Q101 804 105 830T126
871T181 887Q214 887 270 872Q308 863 321 863Q333 863 335 870T338 899H421Q421 846 417 820Z" />
<glyph unicode="&#xd2;" glyph-name="Ograve" horiz-adv-x="506" d="M146 -8T101 23T45 121T34 344Q34 500 45 567T101 665T253 696Q360 696 405 665T462 567T473 344Q473 188 462 122T406 24T253 -8Q146 -8 101 23ZM285 129T295 139T309 188T312 344Q312 461
309 500T296 549T253 559Q222 559 212 549T198 500T195 344Q195 227 198 188T211 139T253 129Q285 129 295 139ZM198 750L118 892V897H262L315 755V750H198Z" />
<glyph unicode="&#xd3;" glyph-name="Oacute" horiz-adv-x="506" d="M146 -8T101 23T45 121T34 344Q34 500 45 567T101 665T253 696Q360 696 405 665T462 567T473 344Q473 188 462 122T406 24T253 -8Q146 -8 101 23ZM285 129T295 139T309 188T312 344Q312 461
309 500T296 549T253 559Q222 559 212 549T198 500T195 344Q195 227 198 188T211 139T253 129Q285 129 295 139ZM186 750V755L239 897H383V892L303 750H186Z" />
<glyph unicode="&#xd4;" glyph-name="Ocircumflex" horiz-adv-x="506" d="M146 -8T101 23T45 121T34 344Q34 500 45 567T101 665T253 696Q360 696 405 665T462 567T473 344Q473 188 462 122T406 24T253 -8Q146 -8 101 23ZM285 129T295 139T309 188T312 344Q312
461 309 500T296 549T253 559Q222 559 212 549T198 500T195 344Q195 227 198 188T211 139T253 129Q285 129 295 139ZM105 750V759L179 881H323L399 759V750H299L251 815L205 750H105Z" />
<glyph unicode="&#xd5;" glyph-name="Otilde" horiz-adv-x="506" d="M146 -8T101 23T45 121T34 344Q34 500 45 567T101 665T253 696Q360 696 405 665T462 567T473 344Q473 188 462 122T406 24T253 -8Q146 -8 101 23ZM285 129T295 139T309 188T312 344Q312 461
309 500T296 549T253 559Q222 559 212 549T198 500T195 344Q195 227 198 188T211 139T253 129Q285 129 295 139ZM414 845T410 819T389 777T335 761Q302 761 246 776Q240 777 223 781T195 786Q183 786 180 779T177 750H94Q94 803 98 829T119 870T174 886Q207 886
263 871Q301 862 314 862Q326 862 328 869T331 898H414Q414 845 410 819Z" />
<glyph unicode="&#xd6;" glyph-name="Odieresis" horiz-adv-x="506" d="M146 -8T101 23T45 121T34 344Q34 500 45 567T101 665T253 696Q360 696 405 665T462 567T473 344Q473 188 462 122T406 24T253 -8Q146 -8 101 23ZM285 129T295 139T309 188T312 344Q312 461
309 500T296 549T253 559Q222 559 212 549T198 500T195 344Q195 227 198 188T211 139T253 129Q285 129 295 139ZM102 777V887H227V777H102ZM279 777V887H404V777H279Z" />
<glyph unicode="&#xd7;" glyph-name="multiply" horiz-adv-x="455" d="M227 167L142 81L56 167L141 253L55 339L142 426L228 340L314 426L400 339L314 254L400 167L314 81L227 167Z" />
<glyph unicode="&#xd8;" glyph-name="Oslash" horiz-adv-x="506" d="M459 605T466 542T473 344Q473 188 462 122T406 24T253 -8Q210 -8 183 -4L163 -55H34L74 49Q47 85 41 148T34 344Q34 500 45 567T101 665T253 696Q294 696 322 692L342 743H472L431 641Q459
605 466 542ZM285 129T295 139T309 188T312 344Q312 461 309 500T296 549T253 559Q222 559 212 549T198 500T195 344Q195 227 198 188T211 139T253 129Q285 129 295 139Z" />
<glyph unicode="&#xd9;" glyph-name="Ugrave" horiz-adv-x="505" d="M463 688V307Q463 170 452 109T397 20T252 -8Q151 -8 108 20T53 108T42 307V688H202V260Q202 191 204 167T216 135T252 128Q279 128 288 135T300 166T303 260V688H463ZM200 750L120 892V897H264L317
755V750H200Z" />
<glyph unicode="&#xda;" glyph-name="Uacute" horiz-adv-x="505" d="M463 688V307Q463 170 452 109T397 20T252 -8Q151 -8 108 20T53 108T42 307V688H202V260Q202 191 204 167T216 135T252 128Q279 128 288 135T300 166T303 260V688H463ZM190 750V755L243 897H387V892L307
750H190Z" />
<glyph unicode="&#xdb;" glyph-name="Ucircumflex" horiz-adv-x="505" d="M463 688V307Q463 170 452 109T397 20T252 -8Q151 -8 108 20T53 108T42 307V688H202V260Q202 191 204 167T216 135T252 128Q279 128 288 135T300 166T303 260V688H463ZM106 750V759L180
881H324L400 759V750H300L252 815L206 750H106Z" />
<glyph unicode="&#xdc;" glyph-name="Udieresis" horiz-adv-x="505" d="M463 688V307Q463 170 452 109T397 20T252 -8Q151 -8 108 20T53 108T42 307V688H202V260Q202 191 204 167T216 135T252 128Q279 128 288 135T300 166T303 260V688H463ZM101 777V887H226V777H101ZM278
777V887H403V777H278Z" />
<glyph unicode="&#xdd;" glyph-name="Yacute" horiz-adv-x="476" d="M158 0V233L-1 688H161L237 400H247L319 688H477L318 233V0H158ZM181 750V755L234 897H378V892L298 750H181Z" />
<glyph unicode="&#xde;" glyph-name="Thorn" horiz-adv-x="480" d="M46 688H206V590H283Q358 590 396 564T448 488T462 352Q462 271 450 221T399 143T283 114H206V0H46V688ZM242 250Q271 250 282 256T297 282T301 352Q301 402 298 422T283 448T243 454H206V250H242Z" />
<glyph unicode="&#xdf;" glyph-name="germandbls" horiz-adv-x="459" d="M228 0V121H236Q258 121 266 127T277 160T280 256Q280 315 277 340T265 371T234 378H228V499H234Q253 499 261 503T271 520T274 564Q274 593 271 607T259 625T233 629Q214 629 205 624T193
600T189 540V0H40V544Q40 617 57 661T116 728T232 750Q337 750 381 711T425 586Q425 524 403 490T331 445V441Q383 429 406 385T430 245Q430 155 416 104T363 26T247 0H228Z" />
<glyph unicode="&#xe0;" glyph-name="agrave" horiz-adv-x="431" d="M74 -8T48 30T22 148Q22 207 34 241T75 290T156 305Q193 305 243 301V323Q243 360 238 374T216 393T157 397Q116 397 46 392V504Q135 518 204 518Q283 518 323 498T377 434T392 310V0H249L245
58H236Q223 24 197 8T136 -8Q74 -8 48 30ZM215 116T223 119T237 133Q243 147 243 189V215H200Q178 215 171 205T164 162Q164 134 170 125T201 116Q215 116 223 119ZM166 596L86 738V743H230L283 601V596H166Z" />
<glyph unicode="&#xe1;" glyph-name="aacute" horiz-adv-x="431" d="M74 -8T48 30T22 148Q22 207 34 241T75 290T156 305Q193 305 243 301V323Q243 360 238 374T216 393T157 397Q116 397 46 392V504Q135 518 204 518Q283 518 323 498T377 434T392 310V0H249L245
58H236Q223 24 197 8T136 -8Q74 -8 48 30ZM215 116T223 119T237 133Q243 147 243 189V215H200Q178 215 171 205T164 162Q164 134 170 125T201 116Q215 116 223 119ZM155 596V601L208 743H352V738L272 596H155Z" />
<glyph unicode="&#xe2;" glyph-name="acircumflex" horiz-adv-x="431" d="M74 -8T48 30T22 148Q22 207 34 241T75 290T156 305Q193 305 243 301V323Q243 360 238 374T216 393T157 397Q116 397 46 392V504Q135 518 204 518Q283 518 323 498T377 434T392 310V0H249L245
58H236Q223 24 197 8T136 -8Q74 -8 48 30ZM215 116T223 119T237 133Q243 147 243 189V215H200Q178 215 171 205T164 162Q164 134 170 125T201 116Q215 116 223 119ZM70 612V621L144 743H288L364 621V612H264L216 677L170 612H70Z" />
<glyph unicode="&#xe3;" glyph-name="atilde" horiz-adv-x="431" d="M74 -8T48 30T22 148Q22 207 34 241T75 290T156 305Q193 305 243 301V323Q243 360 238 374T216 393T157 397Q116 397 46 392V504Q135 518 204 518Q283 518 323 498T377 434T392 310V0H249L245
58H236Q223 24 197 8T136 -8Q74 -8 48 30ZM215 116T223 119T237 133Q243 147 243 189V215H200Q178 215 171 205T164 162Q164 134 170 125T201 116Q215 116 223 119ZM376 690T372 664T351 622T297 606Q264 606 208 621Q202 622 185 626T157 631Q145 631 142 624T139
595H56Q56 648 60 674T81 715T136 731Q169 731 225 716Q263 707 276 707Q288 707 290 714T293 743H376Q376 690 372 664Z" />
<glyph unicode="&#xe4;" glyph-name="adieresis" horiz-adv-x="431" d="M74 -8T48 30T22 148Q22 207 34 241T75 290T156 305Q193 305 243 301V323Q243 360 238 374T216 393T157 397Q116 397 46 392V504Q135 518 204 518Q283 518 323 498T377 434T392 310V0H249L245
58H236Q223 24 197 8T136 -8Q74 -8 48 30ZM215 116T223 119T237 133Q243 147 243 189V215H200Q178 215 171 205T164 162Q164 134 170 125T201 116Q215 116 223 119ZM67 875V985H192V875H67ZM244 875V985H369V875H244Z" />
<glyph unicode="&#xe5;" glyph-name="aring" horiz-adv-x="431" d="M74 -8T48 30T22 148Q22 207 34 241T75 290T156 305Q193 305 243 301V323Q243 360 238 374T216 393T157 397Q116 397 46 392V504Q135 518 204 518Q283 518 323 498T377 434T392 310V0H249L245
58H236Q223 24 197 8T136 -8Q74 -8 48 30ZM215 116T223 119T237 133Q243 147 243 189V215H200Q178 215 171 205T164 162Q164 134 170 125T201 116Q215 116 223 119ZM155 839T127 850T92 884T84 951Q84 996 91 1018T127 1052T217 1064Q278 1064 306 1053T341 1019T349
951Q349 906 342 884T306 851T217 839Q155 839 127 850ZM238 908T247 911T258 923T260 951Q260 971 258 979T247 990T217 994Q196 994 187 991T176 979T174 951Q174 931 176 923T187 912T217 908Q238 908 247 911Z" />
<glyph unicode="&#xe6;" glyph-name="ae" horiz-adv-x="642" d="M612 214H392Q392 163 396 144T417 119T478 113Q538 113 600 118V7Q573 0 529 -4T443 -8Q394 -8 361 1T307 29Q257 -8 168 -8Q85 -8 54 29T22 148Q22 207 34 241T75 290T156 305Q183 305 243 302V323Q243
360 238 374T216 393T157 397Q109 397 46 392V504Q135 518 200 518Q278 518 320 485Q361 518 437 518Q522 518 558 493T603 417T612 254V214ZM414 400T406 395T396 370T392 304H474Q474 351 471 370T461 394T433 400Q414 400 406 395ZM243 214H200Q177 214 170
204T163 162Q163 132 169 121T201 110Q218 110 226 115T239 136Q243 152 243 186V214Z" />
<glyph unicode="&#xe7;" glyph-name="ccedilla" horiz-adv-x="343" d="M319 7Q278 -4 220 -8L188 -189H60V-184L125 2Q84 16 63 48T36 128T29 255Q29 354 41 408T91 490T203 518Q267 518 317 504V392Q282 397 247 397Q214 397 201 389T184 352T179 255Q179 185
183 157T201 121T247 113Q281 113 319 118V7Z" />
<glyph unicode="&#xe8;" glyph-name="egrave" horiz-adv-x="427" d="M397 214H177Q177 162 181 143T202 119T263 113Q318 113 385 118V7Q359 0 315 -4T228 -8Q135 -8 93 19T40 98T29 254Q29 357 40 410T92 490T218 518Q305 518 342 493T388 417T397 254V214ZM199
400T191 395T180 370T177 304H258Q258 351 256 370T246 394T218 400Q199 400 191 395ZM168 596L88 738V743H232L285 601V596H168Z" />
<glyph unicode="&#xe9;" glyph-name="eacute" horiz-adv-x="427" d="M397 214H177Q177 162 181 143T202 119T263 113Q318 113 385 118V7Q359 0 315 -4T228 -8Q135 -8 93 19T40 98T29 254Q29 357 40 410T92 490T218 518Q305 518 342 493T388 417T397 254V214ZM199
400T191 395T180 370T177 304H258Q258 351 256 370T246 394T218 400Q199 400 191 395ZM160 596V601L213 743H357V738L277 596H160Z" />
<glyph unicode="&#xea;" glyph-name="ecircumflex" horiz-adv-x="427" d="M397 214H177Q177 162 181 143T202 119T263 113Q318 113 385 118V7Q359 0 315 -4T228 -8Q135 -8 93 19T40 98T29 254Q29 357 40 410T92 490T218 518Q305 518 342 493T388 417T397 254V214ZM199
400T191 395T180 370T177 304H258Q258 351 256 370T246 394T218 400Q199 400 191 395ZM75 612V621L149 743H293L369 621V612H269L221 677L175 612H75Z" />
<glyph unicode="&#xeb;" glyph-name="edieresis" horiz-adv-x="427" d="M397 214H177Q177 162 181 143T202 119T263 113Q318 113 385 118V7Q359 0 315 -4T228 -8Q135 -8 93 19T40 98T29 254Q29 357 40 410T92 490T218 518Q305 518 342 493T388 417T397 254V214ZM199
400T191 395T180 370T177 304H258Q258 351 256 370T246 394T218 400Q199 400 191 395ZM70 875V985H195V875H70ZM247 875V985H372V875H247Z" />
<glyph unicode="&#xec;" glyph-name="igrave" horiz-adv-x="230" d="M40 0V510H190V0H40ZM328 596L248 738V743H392L445 601V596H328Z" />
<glyph unicode="&#xed;" glyph-name="iacute" horiz-adv-x="230" d="M40 0V510H190V0H40ZM40 596V601L93 743H237V738L157 596H40Z" />
<glyph unicode="&#xee;" glyph-name="icircumflex" horiz-adv-x="230" d="M40 0V510H190V0H40ZM224 612V621L298 743H442L518 621V612H418L370 677L324 612H224Z" />
<glyph unicode="&#xef;" glyph-name="idieresis" horiz-adv-x="230" d="M40 0V510H190V0H40ZM220 875V985H345V875H220ZM397 875V985H522V875H397Z" />
<glyph unicode="&#xf0;" glyph-name="eth" horiz-adv-x="440" d="M131 -8T91 15T40 89T29 254Q29 352 38 406T78 489T169 518Q205 518 232 509L236 513Q227 551 210 593L118 580V664L169 671Q145 708 119 739V743H272Q289 722 309 692L402 706V621L352 613Q379
553 397 454Q410 381 410 255Q410 141 399 90T349 15T220 -8Q131 -8 91 15ZM242 113T250 120T260 154T262 255Q262 328 260 354T250 389T220 397Q198 397 190 390T180 356T178 255Q178 181 180 155T190 121T220 113Q242 113 250 120Z" />
<glyph unicode="&#xf1;" glyph-name="ntilde" horiz-adv-x="453" d="M266 274Q266 333 264 354T255 382T228 388Q208 388 201 380T191 347T189 258V0H40V510H183L187 451H195Q221 518 304 518Q351 518 375 499T407 442T415 337V0H266V274ZM389 690T385 664T364
622T310 606Q277 606 221 621Q215 622 198 626T170 631Q158 631 155 624T152 595H69Q69 648 73 674T94 715T149 731Q182 731 238 716Q276 707 289 707Q301 707 303 714T306 743H389Q389 690 385 664Z" />
<glyph unicode="&#xf2;" glyph-name="ograve" horiz-adv-x="439" d="M131 -8T92 14T41 88T29 255Q29 370 40 422T91 496T220 518Q309 518 348 496T398 422T410 255Q410 140 399 88T348 14T220 -8Q131 -8 92 14ZM242 113T249 120T259 155T262 255Q262 328 260 355T250
389T220 397Q198 397 190 390T180 356T178 255Q178 181 180 155T190 121T220 113Q242 113 249 120ZM165 596L85 738V743H229L282 601V596H165Z" />
<glyph unicode="&#xf3;" glyph-name="oacute" horiz-adv-x="439" d="M131 -8T92 14T41 88T29 255Q29 370 40 422T91 496T220 518Q309 518 348 496T398 422T410 255Q410 140 399 88T348 14T220 -8Q131 -8 92 14ZM242 113T249 120T259 155T262 255Q262 328 260 355T250
389T220 397Q198 397 190 390T180 356T178 255Q178 181 180 155T190 121T220 113Q242 113 249 120ZM154 596V601L207 743H351V738L271 596H154Z" />
<glyph unicode="&#xf4;" glyph-name="ocircumflex" horiz-adv-x="439" d="M131 -8T92 14T41 88T29 255Q29 370 40 422T91 496T220 518Q309 518 348 496T398 422T410 255Q410 140 399 88T348 14T220 -8Q131 -8 92 14ZM242 113T249 120T259 155T262 255Q262 328
260 355T250 389T220 397Q198 397 190 390T180 356T178 255Q178 181 180 155T190 121T220 113Q242 113 249 120ZM74 612V621L148 743H292L368 621V612H268L220 677L174 612H74Z" />
<glyph unicode="&#xf5;" glyph-name="otilde" horiz-adv-x="439" d="M131 -8T92 14T41 88T29 255Q29 370 40 422T91 496T220 518Q309 518 348 496T398 422T410 255Q410 140 399 88T348 14T220 -8Q131 -8 92 14ZM242 113T249 120T259 155T262 255Q262 328 260 355T250
389T220 397Q198 397 190 390T180 356T178 255Q178 181 180 155T190 121T220 113Q242 113 249 120ZM381 690T377 664T356 622T302 606Q269 606 213 621Q207 622 190 626T162 631Q150 631 147 624T144 595H61Q61 648 65 674T86 715T141 731Q174 731 230 716Q268
707 281 707Q293 707 295 714T298 743H381Q381 690 377 664Z" />
<glyph unicode="&#xf6;" glyph-name="odieresis" horiz-adv-x="439" d="M131 -8T92 14T41 88T29 255Q29 370 40 422T91 496T220 518Q309 518 348 496T398 422T410 255Q410 140 399 88T348 14T220 -8Q131 -8 92 14ZM242 113T249 120T259 155T262 255Q262 328 260
355T250 389T220 397Q198 397 190 390T180 356T178 255Q178 181 180 155T190 121T220 113Q242 113 249 120ZM70 875V985H195V875H70ZM247 875V985H372V875H247Z" />
<glyph unicode="&#xf7;" glyph-name="divide" horiz-adv-x="472" d="M175 369V469H297V369H175ZM56 192V314H416V192H56ZM175 38V137H297V38H175Z" />
<glyph unicode="&#xf8;" glyph-name="oslash" horiz-adv-x="439" d="M66 35Q43 62 36 111T29 255Q29 370 40 422T91 496T220 518Q249 518 262 516L282 565H410L374 474Q396 447 403 399T410 255Q410 140 399 88T348 14T220 -8Q189 -8 177 -6L157 -55H29L66 35ZM242
113T249 120T259 155T262 255Q262 328 260 355T250 389T220 397Q198 397 190 390T180 356T178 255Q178 181 180 155T190 121T220 113Q242 113 249 120Z" />
<glyph unicode="&#xf9;" glyph-name="ugrave" horiz-adv-x="453" d="M267 59H258Q232 -8 150 -8Q103 -8 79 11T46 67T38 173V510H187V236Q187 178 189 156T199 128T225 122Q245 122 252 130T262 162T264 252V510H413V0H271L267 59ZM173 596L93 738V743H237L290
601V596H173Z" />
<glyph unicode="&#xfa;" glyph-name="uacute" horiz-adv-x="453" d="M267 59H258Q232 -8 150 -8Q103 -8 79 11T46 67T38 173V510H187V236Q187 178 189 156T199 128T225 122Q245 122 252 130T262 162T264 252V510H413V0H271L267 59ZM165 596V601L218 743H362V738L282
596H165Z" />
<glyph unicode="&#xfb;" glyph-name="ucircumflex" horiz-adv-x="453" d="M267 59H258Q232 -8 150 -8Q103 -8 79 11T46 67T38 173V510H187V236Q187 178 189 156T199 128T225 122Q245 122 252 130T262 162T264 252V510H413V0H271L267 59ZM79 612V621L153 743H297L373
621V612H273L225 677L179 612H79Z" />
<glyph unicode="&#xfc;" glyph-name="udieresis" horiz-adv-x="453" d="M267 59H258Q232 -8 150 -8Q103 -8 79 11T46 67T38 173V510H187V236Q187 178 189 156T199 128T225 122Q245 122 252 130T262 162T264 252V510H413V0H271L267 59ZM75 875V985H200V875H75ZM252
875V985H377V875H252Z" />
<glyph unicode="&#xfd;" glyph-name="yacute" horiz-adv-x="453" d="M176 -205T135 -202T69 -194V-83Q107 -84 179 -84Q223 -84 239 -78T260 -53T264 19V70H256Q230 4 150 4Q102 4 78 23T46 81T38 190V510H187V248Q187 189 189 167T199 140T225 134Q245 134 252
142T262 174T264 264V510H413V57Q413 -46 402 -97T349 -177T215 -205Q176 -205 135 -202ZM163 596V601L216 743H360V738L280 596H163Z" />
<glyph unicode="&#xfe;" glyph-name="thorn" horiz-adv-x="450" d="M40 743H189V452H198Q218 518 296 518Q343 518 369 496T408 417T420 256Q420 154 409 98T372 17T297 -8Q260 -8 235 6T197 53H189V-189H40V743ZM252 122T259 128T269 160T272 255Q272 324 270
349T260 381T230 388Q211 388 204 382T193 352Q189 333 189 255Q189 179 191 163Q195 137 203 130T230 122Q252 122 259 128Z" />
<glyph unicode="&#xff;" glyph-name="ydieresis" horiz-adv-x="453" d="M176 -205T135 -202T69 -194V-83Q107 -84 179 -84Q223 -84 239 -78T260 -53T264 19V70H256Q230 4 150 4Q102 4 78 23T46 81T38 190V510H187V248Q187 189 189 167T199 140T225 134Q245 134
252 142T262 174T264 264V510H413V57Q413 -46 402 -97T349 -177T215 -205Q176 -205 135 -202ZM76 875V985H201V875H76ZM253 875V985H378V875H253Z" />
<glyph unicode="&#x2013;" glyph-name="endash" horiz-adv-x="451" d="M40 245V365H411V245H40Z" />
<glyph unicode="&#x2014;" glyph-name="emdash" horiz-adv-x="817" d="M40 245V365H778V245H40Z" />
<glyph unicode="&#x2018;" glyph-name="quoteleft" horiz-adv-x="254" d="M52 500Q52 579 62 617T103 672T202 688V626Q168 626 158 611T147 554V540H202V406H52V500Z" />
<glyph unicode="&#x2019;" glyph-name="quoteright" horiz-adv-x="254" d="M85 468T95 483T106 540V554H51V688H201V594Q201 515 191 477T150 423T51 406V468Q85 468 95 483Z" />
<glyph unicode="&#x201a;" glyph-name="quotesinglbase" horiz-adv-x="251" d="M85 -86T95 -71T106 -14V0H51V134H201V40Q201 -39 191 -77T150 -131T51 -148V-86Q85 -86 95 -71Z" />
<glyph unicode="&#x201c;" glyph-name="quotedblleft" horiz-adv-x="455" d="M52 500Q52 579 62 617T103 672T202 688V626Q168 626 158 611T147 554V540H202V406H52V500ZM253 500Q253 579 263 617T304 672T403 688V626Q369 626 359 611T348 554V540H403V406H253V500Z" />
<glyph unicode="&#x201d;" glyph-name="quotedblright" horiz-adv-x="455" d="M85 468T95 483T106 540V554H51V688H201V594Q201 515 191 477T150 423T51 406V468Q85 468 95 483ZM286 468T296 483T307 540V554H252V688H402V594Q402 515 392 477T351 423T252 406V468Q286
468 296 483Z" />
<glyph unicode="&#x201e;" glyph-name="quotedblbase" horiz-adv-x="453" d="M85 -86T95 -71T106 -14V0H51V134H201V40Q201 -39 191 -77T150 -131T51 -148V-86Q85 -86 95 -71ZM286 -86T296 -71T307 -14V0H252V134H402V40Q402 -39 392 -77T351 -131T252 -148V-86Q286
-86 296 -71Z" />
<glyph unicode="&#x2022;" glyph-name="bullet" horiz-adv-x="294" d="M252 293T247 273T220 246T146 239Q95 239 75 246T49 273T43 342Q43 393 48 413T74 440T146 448Q199 448 220 441T246 413T252 342Q252 293 247 273Z" />
<glyph unicode="&#x2039;" glyph-name="guilsinglleft" horiz-adv-x="259" d="M117 123L31 316L117 510H220L155 316L220 123H117Z" />
<glyph unicode="&#x203a;" glyph-name="guilsinglright" horiz-adv-x="259" d="M39 123L104 316L39 510H142L228 316L142 123H39Z" />
</font>
</defs>
</svg>
