<?xml version="1.0" standalone="no"?>
<!DOCTYPE svg PUBLIC "-//W3C//DTD SVG 1.1//EN" "http://www.w3.org/Graphics/SVG/1.1/DTD/svg11.dtd">
<svg xmlns="http://www.w3.org/2000/svg">
<defs >
<font id="SairaSemiCondensed" horiz-adv-x="519" ><font-face
    font-family="Saira SemiCondensed ExtraBold"
    units-per-em="1000"
    panose-1="0 0 9 6 0 0 0 0 0 0"
    ascent="1135"
    descent="-439"
    alphabetic="0" />
<glyph unicode=" " glyph-name="space" horiz-adv-x="223" />
<glyph unicode="!" glyph-name="exclam" horiz-adv-x="319" d="M93 342T80 480T67 653V688H264V653Q264 619 251 481T225 234H106Q93 342 80 480ZM77 0V150H254V0H77Z" />
<glyph unicode="&quot;" glyph-name="quotedbl" horiz-adv-x="465" d="M74 425L57 637V688H207V637L190 425H74ZM275 425L257 637V688H408V637L391 425H275Z" />
<glyph unicode="#" glyph-name="numbersign" horiz-adv-x="638" d="M303 0L335 174H233L201 0H89L121 174H45V279H141L164 408H75V513H184L217 688H330L297 513H398L431 688H544L511 513H590V408H491L467 279H560V174H447L416 0H303ZM378 408H277L253 279H355L378 408Z" />
<glyph unicode="$" glyph-name="dollar" horiz-adv-x="478" d="M180 70Q101 76 56 84V206Q138 198 188 198Q230 198 247 200T269 211T275 237Q275 253 273 260T263 269T237 275L169 285Q114 293 87 313T50 367T41 456Q41 535 77 571T180 615V696H304V617Q358 614
410 603V481Q332 489 284 489Q247 489 231 487T209 477T203 454Q203 438 205 432T214 422T240 416L316 406Q359 400 384 387T422 341T436 244Q436 155 403 117T304 71V-8H180V70Z" />
<glyph unicode="%" glyph-name="percent" horiz-adv-x="824" d="M122 311T93 326T55 379T45 503Q45 589 54 627T93 681T188 696Q254 696 283 681T322 627T332 503Q332 418 323 380T284 326T188 311Q122 311 93 326ZM157 0L567 688H667L257 0H157ZM209 389T216
394T226 421T228 503Q228 564 226 585T217 612T188 618Q167 618 160 613T150 586T148 503Q148 442 150 421T159 395T188 389Q209 389 216 394ZM569 -8T540 6T502 59T492 184Q492 269 501 308T540 362T635 377Q701 377 730 362T769 308T779 184Q779 99 770 60T731
7T635 -8Q569 -8 540 6ZM657 70T664 75T673 101T675 184Q675 246 673 266T664 293T635 299Q614 299 607 293T598 266T596 184Q596 123 598 102T607 76T635 70Q657 70 664 75Z" />
<glyph unicode="&amp;" glyph-name="ampersand" horiz-adv-x="648" d="M633 412V283H544V13Q494 4 430 -2T315 -8Q203 -8 143 14T60 77T37 183Q37 264 63 299T149 349V353Q94 367 68 405T42 516Q42 577 67 616T153 676T318 696Q368 696 431 690T541 674V553Q442
564 352 564Q288 564 262 559T226 539T217 487Q217 453 222 438T241 418T287 412H318V283H287Q254 283 239 278T217 255T210 202Q210 166 219 150T252 128T324 123Q356 123 373 124V412H633Z" />
<glyph unicode="&apos;" glyph-name="quotesingle" horiz-adv-x="264" d="M74 425L57 637V688H207V637L190 425H74Z" />
<glyph unicode="(" glyph-name="parenleft" horiz-adv-x="337" d="M135 -69T108 -22T67 96T53 297Q53 426 66 499T109 622T200 743H316Q272 679 253 638T223 518T211 297Q211 154 222 76T253 -44T316 -150H200Q135 -69 108 -22Z" />
<glyph unicode=")" glyph-name="parenright" horiz-adv-x="337" d="M64 -86T83 -45T113 75T125 297Q125 440 114 518T84 637T20 743H136Q198 671 227 622T270 500T284 297Q284 168 270 97T229 -22T136 -150H20Q64 -86 83 -45Z" />
<glyph unicode="*" glyph-name="asterisk" horiz-adv-x="433" d="M248 458L260 339H173L184 458L85 388L42 464L151 513L42 564L85 639L184 570L173 688H260L248 570L347 639L391 564L281 513L391 464L347 388L248 458Z" />
<glyph unicode="+" glyph-name="plus" horiz-adv-x="509" d="M191 62V190H64V315H191V444H317V315H445V190H317V62H191Z" />
<glyph unicode="," glyph-name="comma" horiz-adv-x="293" d="M84 -87T97 -81T115 -60T120 -15V0H58V150H236V38Q236 -43 224 -82T174 -138T55 -155V-87Q84 -87 97 -81Z" />
<glyph unicode="-" glyph-name="hyphen" horiz-adv-x="341" d="M47 217V352H294V217H47Z" />
<glyph unicode="." glyph-name="period" horiz-adv-x="293" d="M58 0V150H236V0H58Z" />
<glyph unicode="/" glyph-name="slash" horiz-adv-x="385" d="M-1 -55L243 743H385L141 -55H-1Z" />
<glyph unicode="0" glyph-name="zero" horiz-adv-x="575" d="M170 -8T121 19T57 114T42 344Q42 505 56 573T120 669T287 696Q404 696 454 669T518 574T533 344Q533 183 519 115T454 19T287 -8Q170 -8 121 19ZM321 134T333 144T348 193T351 344Q351 456 348 495T333
544T287 554Q253 554 242 544T227 495T224 344Q224 232 227 193T241 144T287 134Q321 134 333 144Z" />
<glyph unicode="1" glyph-name="one" horiz-adv-x="361" d="M123 0V502L12 458V604L177 688H306V0H123Z" />
<glyph unicode="2" glyph-name="two" horiz-adv-x="538" d="M218 144H496V0H41V95Q41 187 46 231T70 305T134 355L186 378Q240 402 262 413Q286 424 296 432T309 452T313 491Q313 520 306 533T281 550T224 554Q164 554 53 542V675Q96 684 157 690T270 696Q342
696 389 683T466 627T496 501Q496 410 472 367T398 302L257 240Q247 235 238 230T225 217Q221 208 220 194T218 153V144Z" />
<glyph unicode="3" glyph-name="three" horiz-adv-x="530" d="M194 -8T137 -2T36 13V144Q139 134 213 134Q254 134 272 138T298 156T306 202Q306 236 300 251T279 272T234 278H132V418H234Q263 418 276 422T295 441T300 487Q300 519 294 532T268 550T205 554Q129
554 39 543V675Q81 684 138 690T240 696Q330 696 383 678T459 620T483 516Q483 443 458 405T377 353V349Q436 335 462 300T489 183Q489 117 467 76T391 13T239 -8Q194 -8 137 -2Z" />
<glyph unicode="4" glyph-name="four" horiz-adv-x="569" d="M301 0V132H25V257L203 688H396L210 274H306L359 426H481V274H548V132H481V0H301Z" />
<glyph unicode="5" glyph-name="five" horiz-adv-x="547" d="M149 134T227 134Q272 134 291 139T318 161T325 216Q325 254 318 270T291 292T226 298Q150 298 62 289V688H467V544H222V432Q267 439 320 439Q427 439 467 387T508 229Q508 142 488 92T413 17T259 -8Q213
-8 157 -3T56 12V144Q149 134 227 134Z" />
<glyph unicode="6" glyph-name="six" horiz-adv-x="576" d="M226 -8T183 1T110 36T63 115Q42 174 42 344Q42 500 66 567Q91 638 147 667T310 696Q348 696 403 690T505 674V542Q397 554 343 554Q287 554 263 543T231 499T223 391H230Q242 410 270 424T352 439Q417
439 456 424T517 363T538 233Q538 141 519 90T448 16T298 -8Q226 -8 183 1ZM325 132T339 136T359 158T365 214Q365 254 360 271T340 293T292 298Q261 298 247 292T229 271T225 222Q225 178 231 160T250 137T292 132Q325 132 339 136Z" />
<glyph unicode="7" glyph-name="seven" horiz-adv-x="505" d="M74 0L291 544H26V688H481V558L271 0H74Z" />
<glyph unicode="8" glyph-name="eight" horiz-adv-x="590" d="M196 -8T141 13T63 75T40 183Q40 264 66 299T152 349V353Q97 367 72 404T46 516Q46 580 70 619T148 677T295 696Q387 696 441 678T520 620T544 516Q544 443 519 405T438 353V349Q497 335 523 300T550
183Q550 116 528 75T450 13T295 -8Q196 -8 141 13ZM327 410T340 414T359 434T364 484Q364 520 360 535T341 555T295 560Q263 560 250 555T232 535T227 484Q227 449 231 434T249 415T295 410Q327 410 340 414ZM327 128T342 133T362 154T368 206Q368 243 363 259T343
280T295 285Q262 285 248 280T228 259T222 206Q222 170 227 154T248 133T295 128Q327 128 342 133Z" />
<glyph unicode="9" glyph-name="nine" horiz-adv-x="576" d="M225 -8T171 -2T71 14V146Q181 134 233 134Q289 134 313 145T345 189T353 297H347Q335 278 306 264T224 249Q159 249 120 264T59 325T38 455Q38 547 57 598T128 672T278 696Q354 696 399 687T472 651T514
574Q534 501 534 344Q534 259 527 201T503 105Q476 43 421 18T266 -8Q225 -8 171 -2ZM315 390T329 396T347 417T351 466Q351 510 345 528T326 551T284 556Q251 556 237 552T217 530T211 474Q211 434 216 417T236 395T284 390Q315 390 329 396Z" />
<glyph unicode=":" glyph-name="colon" horiz-adv-x="293" d="M58 359V510H236V359H58ZM58 0V150H236V0H58Z" />
<glyph unicode=";" glyph-name="semicolon" horiz-adv-x="293" d="M58 359V510H236V359H58ZM84 -87T97 -81T115 -60T120 -15V0H58V150H236V38Q236 -43 224 -82T174 -138T55 -155V-87Q84 -87 97 -81Z" />
<glyph unicode="&lt;" glyph-name="less" horiz-adv-x="509" d="M446 55L64 191V315L446 451V327L217 253L446 179V55Z" />
<glyph unicode="=" glyph-name="equal" horiz-adv-x="509" d="M64 290V415H445V290H64ZM64 91V216H445V91H64Z" />
<glyph unicode="&gt;" glyph-name="greater" horiz-adv-x="509" d="M64 55V179L291 253L64 327V451L445 315V191L64 55Z" />
<glyph unicode="?" glyph-name="question" horiz-adv-x="463" d="M114 307Q114 362 128 385T178 423L199 433Q224 445 231 456T239 499Q239 525 232 536T211 551T164 554Q138 554 98 552T33 545V678Q68 686 120 691T217 696Q280 696 323 683T392 631T418 519Q418
462 407 430T376 382T321 348L303 340Q282 329 275 323T266 306T264 265V234H114V307ZM101 0V150H278V0H101Z" />
<glyph unicode="@" glyph-name="at" horiz-adv-x="834" d="M241 -108T171 -82T82 22T62 294Q62 489 81 566T171 669T418 696Q595 696 664 670T753 567T773 294Q773 187 761 142T725 86T646 75H462L458 126H451Q432 92 407 80T346 68Q289 68 263 100T237 201Q237
254 248 282T285 322T363 334Q393 334 457 330V347Q457 378 452 390T430 405T371 408Q332 408 259 403V504Q337 518 416 518Q498 518 537 500T589 445T602 338V139H653Q678 139 687 146T699 184T703 294Q703 437 697 497T666 587T580 626Q556 629 513 630T418 631Q295
631 261 627Q198 618 172 589T140 500T133 294Q133 135 141 74T184 -13T307 -43Q332 -44 419 -44Q554 -44 601 -40V-106Q565 -108 418 -108Q241 -108 171 -82ZM441 173T449 185T457 236V260H410Q385 260 379 252T372 214Q372 189 379 181T412 173Q441 173 449 185Z"
/>
<glyph unicode="A" glyph-name="A" horiz-adv-x="607" d="M421 0L393 124H209L183 0H3L175 688H432L604 0H421ZM304 531H297L240 263H362L304 531Z" />
<glyph unicode="B" glyph-name="B" horiz-adv-x="583" d="M54 688H359Q543 688 543 515Q543 442 517 405T435 353V349Q494 335 520 300T547 184Q547 92 503 46T358 0H54V688ZM325 412T338 417T356 436T361 480Q361 511 357 524T339 543T297 548H235V412H297Q325
412 338 417ZM328 140T341 145T359 164T364 211Q364 243 359 258T341 278T299 283H235V140H299Q328 140 341 145Z" />
<glyph unicode="C" glyph-name="C" horiz-adv-x="490" d="M429 2T385 -3T301 -8Q186 -8 132 23T60 126T42 344Q42 489 60 561T132 664T301 696Q341 696 383 691T454 678V545Q363 553 342 553Q282 553 260 541T232 489T226 344Q226 237 232 199T260 148T342 135Q406
135 457 143V9Q429 2 385 -3Z" />
<glyph unicode="D" glyph-name="D" horiz-adv-x="592" d="M54 688H276Q410 688 466 659T536 564T550 344Q550 189 537 124T467 30T276 0H54V688ZM276 143Q324 143 341 152T362 199T367 344Q367 452 363 489T342 535T276 545H237V143H276Z" />
<glyph unicode="E" glyph-name="E" horiz-adv-x="522" d="M54 0V688H479V545H237V418H441V277H237V143H479V0H54Z" />
<glyph unicode="F" glyph-name="F" horiz-adv-x="489" d="M54 0V688H461V545H237V396H431V253H237V0H54Z" />
<glyph unicode="G" glyph-name="G" horiz-adv-x="583" d="M301 273V406H533V14Q488 4 427 -2T315 -8Q200 -8 143 21T64 123T42 344Q42 489 64 562T145 666T319 696Q369 696 428 690T531 674V541Q425 553 377 553Q298 553 270 543T232 493T223 344Q223 245 229
203T255 146T321 131L369 133V273H301Z" />
<glyph unicode="H" glyph-name="H" horiz-adv-x="617" d="M380 0V268H237V0H54V688H237V423H380V688H563V0H380Z" />
<glyph unicode="I" glyph-name="I" horiz-adv-x="291" d="M54 0V688H237V0H54Z" />
<glyph unicode="J" glyph-name="J" horiz-adv-x="369" d="M78 135T100 141T128 171T134 258V688H317V317Q317 152 302 93T230 17T16 0V134Q78 135 100 141Z" />
<glyph unicode="K" glyph-name="K" horiz-adv-x="601" d="M398 0L263 278H237V0H54V688H237V421H263L401 688H595L411 362L597 0H398Z" />
<glyph unicode="L" glyph-name="L" horiz-adv-x="464" d="M54 0V688H237V149H447V0H54Z" />
<glyph unicode="M" glyph-name="M" horiz-adv-x="811" d="M582 0V449H573L472 0H334L233 449H224V0H54V688H313L403 285H411L499 688H757V0H582Z" />
<glyph unicode="N" glyph-name="N" horiz-adv-x="622" d="M401 0L233 355H228V0H54V688H237L388 373H394V688H569V0H401Z" />
<glyph unicode="O" glyph-name="O" horiz-adv-x="610" d="M177 -8T123 22T55 120T42 344Q42 501 55 568T122 665T305 696Q433 696 487 666T555 568T568 344Q568 187 555 120T488 23T305 -8Q177 -8 123 22ZM347 135T361 145T380 193T384 344Q384 456 380 494T362
543T305 553Q263 553 249 543T230 495T226 344Q226 232 230 194T248 145T305 135Q347 135 361 145Z" />
<glyph unicode="P" glyph-name="P" horiz-adv-x="564" d="M54 688H346Q428 688 470 662T526 587T541 452Q541 371 528 322T473 244T346 215H237V0H54V688ZM284 357Q320 357 334 363T353 387T358 452Q358 498 354 516T335 541T285 547H237V357H284Z" />
<glyph unicode="Q" glyph-name="Q" horiz-adv-x="608" d="M350 -6Q322 -8 304 -8Q176 -8 122 22T55 119T42 344Q42 502 55 568T122 665T304 696Q432 696 486 666T553 568T566 344Q566 210 555 144T507 43L607 -108V-115H418L350 -6ZM346 134T360 144T379 193T383
344Q383 456 379 495T361 544T304 554Q262 554 248 544T229 496T225 344Q225 231 229 193T247 144T304 134Q346 134 360 144Z" />
<glyph unicode="R" glyph-name="R" horiz-adv-x="589" d="M376 0L306 235H237V0H54V688H352Q436 688 478 663T535 591T550 462Q550 386 535 337T475 262L565 0H376ZM328 372T342 377T362 400T367 460Q367 502 363 518T344 541T293 547H237V372H293Q328 372 342 377Z" />
<glyph unicode="S" glyph-name="S" horiz-adv-x="535" d="M219 -8T158 -4T50 9V144Q162 135 220 135Q260 135 279 138T307 149Q315 156 317 167T319 200Q319 228 315 240T296 257T245 268L139 284Q78 292 56 342T33 486Q33 572 63 618T144 680T272 696Q327 696
380 690T471 676V543Q387 553 309 553Q276 553 259 551T232 542Q222 536 219 525T216 493Q216 468 219 457T232 441T267 432L370 417Q411 411 438 396T482 344Q502 302 502 219Q502 121 474 72T399 8T275 -8Q219 -8 158 -4Z" />
<glyph unicode="T" glyph-name="T" horiz-adv-x="514" d="M165 0V539H12V688H502V539H348V0H165Z" />
<glyph unicode="U" glyph-name="U" horiz-adv-x="599" d="M547 688V310Q547 171 534 110T470 20T299 -8Q180 -8 129 20T65 109T51 310V688H234V269Q234 201 237 176T253 144T299 136Q333 136 345 143T360 176T364 269V688H547Z" />
<glyph unicode="V" glyph-name="V" horiz-adv-x="581" d="M165 0L5 688H191L288 192H297L393 688H576L415 0H165Z" />
<glyph unicode="W" glyph-name="W" horiz-adv-x="878" d="M517 0L445 416H437L366 0H128L10 688H192L256 200H265L345 688H543L625 200H633L691 688H873L755 0H517Z" />
<glyph unicode="X" glyph-name="X" horiz-adv-x="608" d="M397 0L305 213H296L204 0H9L185 346L12 688H214L302 482H311L401 688H596L424 350L599 0H397Z" />
<glyph unicode="Y" glyph-name="Y" horiz-adv-x="568" d="M192 0V231L-1 688H186L283 409H291L386 688H568L375 231V0H192Z" />
<glyph unicode="Z" glyph-name="Z" horiz-adv-x="537" d="M35 0V136L284 545H45V688H501V555L250 143H501V0H35Z" />
<glyph unicode="[" glyph-name="bracketleft" horiz-adv-x="356" d="M58 -150V743H316V642L210 638V-45L316 -49V-150H58Z" />
<glyph unicode="\" glyph-name="backslash" horiz-adv-x="385" d="M243 -55L-1 743H142L385 -55H243Z" />
<glyph unicode="]" glyph-name="bracketright" horiz-adv-x="356" d="M40 -150V-49L146 -45V638L40 642V743H298V-150H40Z" />
<glyph unicode="^" glyph-name="asciicircum" horiz-adv-x="408" d="M276 459L204 638L132 459H7L142 749H266L401 459H276Z" />
<glyph unicode="_" glyph-name="underscore" horiz-adv-x="383" d="M0 -189V-66H383V-189H0Z" />
<glyph unicode="`" glyph-name="grave" horiz-adv-x="259" d="M122 596L14 738V743H175L246 601V596H122Z" />
<glyph unicode="a" glyph-name="a" horiz-adv-x="502" d="M90 -8T59 29T28 147Q28 207 41 240T86 288T177 303Q217 303 287 299V319Q287 354 280 368T254 386T186 390Q128 390 54 384V502Q146 518 238 518Q334 518 380 497T441 432T456 307V0H293L289 58H280Q259
20 228 6T157 -8Q90 -8 59 29ZM252 115T262 119T279 135Q287 150 287 191V216H232Q212 216 203 213T190 198T187 163Q187 134 195 125T234 115Q252 115 262 119Z" />
<glyph unicode="b" glyph-name="b" horiz-adv-x="521" d="M251 -8T222 59H213L209 0H47V743H216V457H224Q242 491 271 504T343 518Q397 518 428 494T473 413T487 254Q487 150 473 94T428 15T343 -8Q251 -8 222 59ZM293 131T302 137T315 167T318 255Q318 319 315
342T303 372T267 379Q246 379 237 375T222 355Q216 332 216 255Q216 222 217 197T222 158Q226 141 236 136T267 131Q293 131 302 137Z" />
<glyph unicode="c" glyph-name="c" horiz-adv-x="408" d="M309 -8T236 -8Q144 -8 101 21T45 104T33 255Q33 352 45 405T101 488T236 518Q310 518 374 502V384Q326 390 283 390Q245 390 230 381T209 346T204 255Q204 190 209 164T229 129T284 120Q334 120 377 126V9Q309
-8 236 -8Z" />
<glyph unicode="d" glyph-name="d" horiz-adv-x="521" d="M123 -8T93 14T48 93T33 254Q33 356 47 413T92 494T177 518Q219 518 248 505T296 457H305V743H474V0H312L308 59H298Q281 21 250 7T177 -8Q123 -8 93 14ZM276 131T285 136T299 161Q305 187 305 255Q305
317 301 342Q297 365 287 372T254 379Q227 379 218 373T205 343T202 255Q202 191 205 168T217 138T254 131Q276 131 285 136Z" />
<glyph unicode="e" glyph-name="e" horiz-adv-x="496" d="M460 215H200Q200 166 206 148T232 125T307 120Q346 120 444 126V9Q416 2 366 -3T267 -8Q158 -8 109 18T46 95T33 254Q33 360 46 412T105 491T252 518Q353 518 396 494T450 419T460 254V215ZM228 398T218
392T204 367T200 301H303Q303 348 300 367T286 392T252 398Q228 398 218 392Z" />
<glyph unicode="f" glyph-name="f" horiz-adv-x="385" d="M92 382H16V510H92V533Q92 636 112 678T183 731T363 742V627Q313 627 294 623T269 606T263 559V510H363V382H263V0H92V382Z" />
<glyph unicode="g" glyph-name="g" horiz-adv-x="520" d="M196 -205T149 -201T72 -192V-76L195 -77Q251 -77 272 -71T298 -46T304 24V65H296Q278 31 249 18T178 5Q123 5 92 28T47 106T33 262Q33 364 47 419T92 496T177 518Q219 518 250 504T298 451H308L312 510H473V58Q473
-45 460 -97T397 -177T239 -205Q196 -205 149 -201ZM276 143T285 148T299 172Q302 185 303 208T304 261Q304 326 300 344Q296 365 286 372T254 379Q227 379 218 373T205 345T202 261Q202 200 205 178T217 149T254 143Q276 143 285 148Z" />
<glyph unicode="h" glyph-name="h" horiz-adv-x="525" d="M310 272Q310 327 308 347T297 372T264 378Q240 378 231 371T219 342T216 265V0H47V743H216V452H224Q260 518 347 518Q403 518 431 497T469 437T479 327V0H310V272Z" />
<glyph unicode="i" glyph-name="i" horiz-adv-x="265" d="M46 608V743H218V608H46ZM47 0V510H218V0H47Z" />
<glyph unicode="j" glyph-name="j" horiz-adv-x="265" d="M46 608V743H218V608H46ZM-21 -81Q11 -81 25 -76T43 -61T47 -29V510H218V19Q218 -83 200 -127T134 -184T-21 -198V-81Z" />
<glyph unicode="k" glyph-name="k" d="M330 0L236 189H216V0H47V743H216V317H236L335 510H511L376 268L513 0H330Z" />
<glyph unicode="l" glyph-name="l" horiz-adv-x="265" d="M47 0V743H218V0H47Z" />
<glyph unicode="m" glyph-name="m" horiz-adv-x="775" d="M560 272Q560 325 557 346T546 372T517 378Q494 378 486 371T475 342T472 265V0H303V272Q303 326 301 346T290 372T261 378Q238 378 230 371T219 342T216 265V0H47V510H209L213 451H221Q257 518 346 518Q397
518 425 502T464 451H473Q509 518 598 518Q652 518 680 498T719 437T729 329V0H560V272Z" />
<glyph unicode="n" glyph-name="n" horiz-adv-x="525" d="M310 272Q310 327 308 347T297 372T264 378Q240 378 231 371T219 342T216 265V0H47V510H209L213 451H221Q256 518 347 518Q403 518 431 497T469 437T479 327V0H310V272Z" />
<glyph unicode="o" glyph-name="o" horiz-adv-x="509" d="M150 -8T104 14T46 88T33 255Q33 370 45 421T104 495T254 518Q359 518 404 496T463 422T476 255Q476 140 463 89T405 15T254 -8Q150 -8 104 14ZM282 120T292 127T304 160T307 255Q307 325 305 350T292
382T254 390Q227 390 217 383T205 350T202 255Q202 185 204 160T217 128T254 120Q282 120 292 127Z" />
<glyph unicode="p" glyph-name="p" horiz-adv-x="521" d="M47 510H209L213 451H222Q251 518 343 518Q397 518 427 496T472 417T487 256Q487 154 473 97T428 16T343 -8Q301 -8 272 5T225 53H216V-198H47V510ZM293 131T302 137T315 167T318 255Q318 319 315 342T303
372T267 379Q245 379 235 373T221 349Q218 336 217 311T216 255Q216 224 216 200T220 166Q224 145 234 138T267 131Q293 131 302 137Z" />
<glyph unicode="q" glyph-name="q" horiz-adv-x="521" d="M305 53H296Q278 19 249 6T177 -8Q123 -8 92 16T47 97T33 256Q33 360 47 416T92 495T177 518Q219 518 250 504T298 451H308L312 510H474V-198H305V53ZM275 131T284 136T299 159Q305 177 305 255Q305 332
298 354Q294 369 284 374T254 379Q227 379 218 373T205 343T202 255Q202 191 205 168T217 138T254 131Q275 131 284 136Z" />
<glyph unicode="r" glyph-name="r" horiz-adv-x="377" d="M47 510H209L213 425H222Q240 477 272 497T359 518V360Q304 360 274 347T230 300T216 202V0H47V510Z" />
<glyph unicode="s" glyph-name="s" horiz-adv-x="441" d="M183 -8T131 -4T41 7V124Q110 116 171 116Q211 116 228 118T251 128T256 153Q256 169 254 175T242 185T211 191L109 205Q61 211 44 248T27 362Q27 425 51 459T117 505T223 518Q265 518 312 514T388 503V386Q300
394 266 394Q229 394 213 392T192 383T186 360Q186 345 188 339T197 330T225 324L315 312Q348 307 369 295T402 252T415 160Q415 89 392 53T330 4T228 -8Q183 -8 131 -4Z" />
<glyph unicode="t" glyph-name="t" horiz-adv-x="372" d="M91 0V382H16V510H91V658H262V510H356V382H262V0H91Z" />
<glyph unicode="u" glyph-name="u" horiz-adv-x="525" d="M312 59H303Q269 -8 178 -8Q122 -8 94 13T56 73T46 183V510H215V238Q215 183 217 163T228 138T261 132Q285 132 294 139T306 169T309 245V510H478V0H316L312 59Z" />
<glyph unicode="v" glyph-name="v" horiz-adv-x="495" d="M132 0L8 510H178L245 156H255L319 510H487L363 0H132Z" />
<glyph unicode="w" glyph-name="w" horiz-adv-x="759" d="M436 0L385 246H375L325 0H114L12 510H177L225 173H234L303 510H460L531 173H541L586 510H747L645 0H436Z" />
<glyph unicode="x" glyph-name="x" horiz-adv-x="510" d="M323 0L254 150H246L178 0H6L146 259L11 510H192L257 370H264L327 510H499L364 260L505 0H323Z" />
<glyph unicode="y" glyph-name="y" horiz-adv-x="525" d="M202 -205T156 -202T81 -192V-76L204 -77Q258 -77 278 -71T304 -47T309 23V70H300Q267 4 178 4Q121 4 93 25T55 88T46 202V510H215V249Q215 194 217 174T228 149T261 143Q285 143 294 150T306 179T309
257V510H478V58Q478 -45 465 -97T403 -177T246 -205Q202 -205 156 -202Z" />
<glyph unicode="z" glyph-name="z" horiz-adv-x="470" d="M35 0V120L227 382H44V510H433V390L241 128H435V0H35Z" />
<glyph unicode="{" glyph-name="braceleft" horiz-adv-x="353" d="M173 -126T136 -73T99 40V154Q99 200 83 227T21 262V331Q66 338 82 365T99 438V553Q99 611 136 664T224 743H331Q251 654 251 563V445Q251 322 135 300V293Q251 271 251 147V30Q251 -61 331 -150H224Q173
-126 136 -73Z" />
<glyph unicode="|" glyph-name="bar" horiz-adv-x="274" d="M63 -161V743H210V-161H63Z" />
<glyph unicode="}" glyph-name="braceright" horiz-adv-x="353" d="M101 -63T101 30V147Q101 270 217 293V300Q101 323 101 445V563Q101 612 80 656T21 743H128Q179 719 216 666T253 553V438Q253 392 269 365T331 331V262Q286 254 270 227T253 154V40Q253 -19
216 -72T128 -150H21Q101 -63 101 30Z" />
<glyph unicode="~" glyph-name="asciitilde" horiz-adv-x="480" d="M431 327T426 299T401 255T337 238Q296 238 224 255L202 259Q171 266 158 266Q143 266 139 258T135 227H49Q49 282 53 309T78 353T143 370Q168 370 198 365T256 354Q304 343 322 343Q337 343
340 350T344 381H431Q431 327 426 299Z" />
<glyph unicode="&#xa0;" glyph-name="uni00A0" horiz-adv-x="223" />
<glyph unicode="&#xa1;" glyph-name="exclamdown" horiz-adv-x="305" d="M63 360V510H241V360H63ZM53 -143Q53 -111 66 25T92 276H211Q224 168 237 30T250 -143V-178H53V-143Z" />
<glyph unicode="&#xa2;" glyph-name="cent" horiz-adv-x="416" d="M175 73Q118 84 89 116T51 202T41 342Q41 429 51 482T90 567T175 611V696H299V614Q332 611 375 601V478Q336 484 287 484Q251 484 236 475T215 437T210 342Q210 275 215 247T235 210T288 200Q327
200 378 207V85Q342 74 299 71V-8H175V73Z" />
<glyph unicode="&#xa3;" glyph-name="sterling" horiz-adv-x="530" d="M493 142V0H36V142H102V285H36V421H103V426Q103 528 122 585T193 669T341 696Q377 696 417 692T485 680V546Q417 554 385 554Q355 554 338 552T311 541Q295 529 290 504T285 426V421H423V285H285V142H493Z"
/>
<glyph unicode="&#xa4;" glyph-name="currency" horiz-adv-x="616" d="M34 91L103 160Q93 188 90 230T86 345Q86 415 89 457T103 528L33 597L123 686L202 606Q239 614 307 614Q372 614 414 605L494 686L582 598L512 527Q522 499 525 457T528 345Q528 275 525 233T512
162L582 91L493 2L413 83Q376 75 307 75Q239 75 202 83L123 3L34 91ZM335 202T345 210T357 244T360 345Q360 419 358 444T345 478T307 486Q279 486 270 478T258 445T255 345Q255 270 257 244T269 210T307 202Q335 202 345 210Z" />
<glyph unicode="&#xa5;" glyph-name="yen" horiz-adv-x="575" d="M196 0V204H43V289H181L150 357H43V441H117L21 688H201L286 412H294L377 688H554L457 441H531V357H423L394 289H531V204H379V0H196Z" />
<glyph unicode="&#xa6;" glyph-name="brokenbar" horiz-adv-x="274" d="M63 390V743H210V390H63ZM63 -161V192H210V-161H63Z" />
<glyph unicode="&#xa7;" glyph-name="section" horiz-adv-x="602" d="M231 -171T182 -166T108 -153V-25Q185 -32 268 -32Q306 -32 317 -25T329 4Q329 23 323 29T287 46L169 86Q117 104 90 120T47 170T31 265Q31 345 50 383T122 435Q106 464 106 525Q106 623 160
659T317 696Q372 696 421 691T494 678V550Q422 557 333 557Q296 557 285 550T273 522Q273 508 276 502T287 491T318 479L437 438Q486 420 512 405T554 355T570 260Q570 180 550 142T479 90Q496 57 496 1Q496 -98 442 -134T285 -171Q231 -171 182 -166ZM399 174T403
189T408 237Q408 264 402 276T378 294L244 341Q220 351 213 351Q203 351 198 336T193 288Q193 261 200 249T230 229L361 182Q384 174 389 174Q399 174 403 189Z" />
<glyph unicode="&#xa8;" glyph-name="dieresis" horiz-adv-x="358" d="M13 617V730H149V617H13ZM209 617V730H346V617H209Z" />
<glyph unicode="&#xa9;" glyph-name="copyright" horiz-adv-x="675" d="M203 -8T150 15T81 106T66 344Q66 514 81 581T149 672T337 696Q472 696 525 673T594 582T609 344Q609 174 594 107T526 16T337 -8Q203 -8 150 15ZM449 52T487 66T535 133T545 344Q545 502
535 555T487 622T337 636Q225 636 188 622T140 555T130 344Q130 186 140 133T187 66T337 52Q449 52 487 66ZM295 155T267 172T229 228T219 344Q219 421 228 459T267 515T356 532Q404 532 438 523V451Q411 454 379 454Q348 454 337 448T322 421T319 344Q319 287
322 267T336 240T379 233Q420 233 439 236V163Q405 155 356 155Q295 155 267 172Z" />
<glyph unicode="&#xaa;" glyph-name="ordfeminine" horiz-adv-x="379" d="M74 310T52 338T29 425Q29 468 38 492T71 527T137 538L194 536L217 535V550Q217 576 212 586T193 598T142 601Q125 601 48 596V683Q113 696 182 696Q252 696 285 680T329 633T340 541V315H220L217
359H211Q196 330 174 320T122 310Q74 310 52 338ZM193 400T200 403T212 416Q217 425 217 455V475H177Q157 475 151 468T145 436Q145 414 151 407T179 400Q193 400 200 403Z" />
<glyph unicode="&#xab;" glyph-name="guillemotleft" horiz-adv-x="471" d="M133 109L22 309L133 510H243L158 309L243 109H133ZM318 109L207 309L318 510H428L343 309L428 109H318Z" />
<glyph unicode="&#xac;" glyph-name="logicalnot" horiz-adv-x="509" d="M319 59V188H64V313H444V59H319Z" />
<glyph unicode="&#xad;" glyph-name="uni00AD" horiz-adv-x="341" d="M47 217V352H294V217H47Z" />
<glyph unicode="&#xae;" glyph-name="registered" horiz-adv-x="675" d="M472 696T525 673T594 582T609 344Q609 173 594 106T526 16T337 -8Q203 -8 149 15T80 106T65 344Q65 514 80 581T149 672T337 696Q472 696 525 673ZM449 52T487 66T535 133T545 344Q545
502 535 555T487 622T337 636Q225 636 188 622T140 555T130 344Q130 186 140 133T187 66T337 52Q449 52 487 66ZM471 365T463 339T431 300L479 159H380L343 285H342H303V159H208V528H364Q410 528 433 515T463 476T471 407Q471 365 463 339ZM303 359H336Q354 359
362 362T372 374T375 405Q375 427 373 436T363 448T337 451H303V359Z" />
<glyph unicode="&#xaf;" glyph-name="overscore" horiz-adv-x="343" d="M46 607V743H297V607H46Z" />
<glyph unicode="&#xb0;" glyph-name="degree" horiz-adv-x="362" d="M117 397T88 410T50 452T41 546Q41 610 49 639T87 682T182 696Q247 696 276 683T313 640T322 546Q322 482 314 453T277 410T182 397Q117 397 88 410ZM202 470T210 475T220 495T222 546Q222 583
220 597T210 617T182 623Q161 623 153 618T143 598T141 546Q141 509 143 495T153 476T182 470Q202 470 210 475Z" />
<glyph unicode="&#xb1;" glyph-name="plusminus" horiz-adv-x="509" d="M191 193V321H64V446H191V575H317V446H445V321H317V193H191ZM64 14V138H445V14H64Z" />
<glyph unicode="&#xb2;" glyph-name="uni00B2" horiz-adv-x="337" d="M149 405H298V314H40V372Q40 419 42 443T54 482T85 508L160 543Q177 552 181 558T186 580Q186 597 179 601T144 606Q111 606 46 599V684Q71 689 106 692T170 696Q211 696 238 689T281 657T298
585Q298 536 284 512T240 474L171 445Q157 439 153 433T149 412V405Z" />
<glyph unicode="&#xb3;" glyph-name="uni00B3" horiz-adv-x="335" d="M129 306T97 309T39 318V402Q116 395 140 395Q166 395 174 400T182 428Q182 451 177 457T152 463H90V542H152Q169 542 174 548T179 575Q179 590 176 596T165 605T135 607Q98 607 40 599V684Q64
689 96 692T154 696Q229 696 260 672T292 593Q292 558 279 537T241 506V502Q268 493 281 473T295 414Q295 357 265 332T154 306Q129 306 97 309Z" />
<glyph unicode="&#xb4;" glyph-name="acute" horiz-adv-x="259" d="M14 596V601L85 743H246V738L137 596H14Z" />
<glyph unicode="&#xb5;" glyph-name="uni00B5" horiz-adv-x="526" d="M479 510V0H317L313 59H304Q289 32 269 18T216 -1V-189H47V510H216V238Q216 183 218 163T229 138T261 132Q285 132 294 139T307 169T310 245V510H479Z" />
<glyph unicode="&#xb6;" glyph-name="paragraph" horiz-adv-x="580" d="M233 222Q137 222 98 238T47 298T36 454Q36 565 47 610T98 671T233 688H346V-144H233V222ZM405 -144V688H519V-144H405Z" />
<glyph unicode="&#xb7;" glyph-name="middot" horiz-adv-x="293" d="M58 224V374H236V224H58Z" />
<glyph unicode="&#xb8;" glyph-name="cedilla" horiz-adv-x="210" d="M14 -189V-184L87 8H197V3L162 -189H14Z" />
<glyph unicode="&#xb9;" glyph-name="uni00B9" horiz-adv-x="249" d="M94 314V572L34 547V640L128 688H205V314H94Z" />
<glyph unicode="&#xba;" glyph-name="ordmasculine" horiz-adv-x="395" d="M125 310T92 325T48 379T36 503Q36 587 47 626T92 681T197 696Q269 696 302 681T347 627T358 503Q358 419 347 380T303 325T197 310Q125 310 92 325ZM217 405T224 410T233 434T235 503Q235
554 233 572T224 596T197 602Q177 602 170 597T162 573T160 503Q160 451 161 434T170 411T197 405Q217 405 224 410Z" />
<glyph unicode="&#xbb;" glyph-name="guillemotright" horiz-adv-x="471" d="M43 109L128 309L43 510H152L263 309L152 109H43ZM228 109L313 309L228 510H337L448 309L337 109H228Z" />
<glyph unicode="&#xbc;" glyph-name="onequarter" horiz-adv-x="708" d="M93 314V572L34 547V640L128 688H205V314H93ZM80 0L483 688H585L183 0H80ZM524 0V66H375V142L472 375H591L486 156H532L566 238H634V156H670V66H634V0H524Z" />
<glyph unicode="&#xbd;" glyph-name="onehalf" horiz-adv-x="743" d="M93 314V572L34 547V640L128 688H205V314H93ZM483 688H585L183 0H80L483 688ZM553 91H702V0H445V58Q445 126 452 153T489 194L564 229Q581 237 585 243T590 266Q590 284 583 288T548 293Q525
293 451 285V370Q475 375 510 378T574 382Q615 382 642 375T685 343T702 271Q702 221 688 197T644 161Q630 154 578 133Q563 126 558 119T553 98V91Z" />
<glyph unicode="&#xbe;" glyph-name="threequarters" horiz-adv-x="765" d="M116 395T140 395Q166 395 174 400T182 428Q182 451 177 457T152 463H90V542H152Q169 542 174 548T179 575Q179 590 176 596T165 605T135 607Q99 607 41 599V684Q64 689 96 692T154 696Q229
696 260 672T292 593Q292 558 280 537T242 506V502Q268 493 281 473T295 414Q295 357 265 332T154 306Q129 306 97 309T39 318V402Q116 395 140 395ZM137 0L539 688H642L239 0H137ZM580 0V66H431V142L528 375H647L542 156H588L622 238H690V156H726V66H690V0H580Z"
/>
<glyph unicode="&#xbf;" glyph-name="questiondown" horiz-adv-x="420" d="M184 360V510H361V360H184ZM176 -186T133 -171T67 -117T44 -9Q44 43 52 74T77 123T127 157L166 175Q183 183 188 188T196 205T198 245V276H348V203Q348 148 334 125T285 87L265 78Q238
64 231 53T223 11Q223 -15 230 -26T251 -41T298 -44Q355 -44 429 -35V-168Q394 -176 342 -181T245 -186Q176 -186 133 -171Z" />
<glyph unicode="&#xc0;" glyph-name="Agrave" horiz-adv-x="606" d="M421 0L393 124H209L183 0H3L175 688H432L604 0H421ZM304 531H297L240 263H362L304 531ZM253 749L145 891V896H306L377 754V749H253Z" />
<glyph unicode="&#xc1;" glyph-name="Aacute" horiz-adv-x="606" d="M421 0L393 124H209L183 0H3L175 688H432L604 0H421ZM304 531H297L240 263H362L304 531ZM217 750V755L288 897H449V892L340 750H217Z" />
<glyph unicode="&#xc2;" glyph-name="Acircumflex" horiz-adv-x="606" d="M421 0L393 124H209L183 0H3L175 688H432L604 0H421ZM304 531H297L240 263H362L304 531ZM141 750V758L223 890H380L465 758V750H355L302 822L250 750H141Z" />
<glyph unicode="&#xc3;" glyph-name="Atilde" horiz-adv-x="606" d="M421 0L393 124H209L183 0H3L175 688H432L604 0H421ZM304 531H297L240 263H362L304 531ZM484 850T480 822T456 778T395 762Q357 762 291 779L271 783Q243 790 229 790Q215 790 212 783T209 750H122Q122
805 126 833T150 877T212 893Q235 893 263 888T316 877Q362 866 377 866Q392 866 395 873T398 905H484Q484 850 480 822Z" />
<glyph unicode="&#xc4;" glyph-name="Adieresis" horiz-adv-x="606" d="M421 0L393 124H209L183 0H3L175 688H432L604 0H421ZM304 531H297L240 263H362L304 531ZM136 778V891H272V778H136ZM332 778V891H469V778H332Z" />
<glyph unicode="&#xc5;" glyph-name="Aring" horiz-adv-x="607" d="M604 0H421L393 124H209L183 0H3L174 687Q159 701 155 722T150 781Q150 832 159 857T201 895T303 908Q373 908 405 896T446 858T456 781Q456 744 452 722T433 687L604 0ZM277 832T266 828T253
814T250 781Q250 759 252 750T266 736T303 732Q330 732 341 736T354 749T357 781Q357 804 355 813T341 827T303 832Q277 832 266 828ZM240 263H362L304 531H297L240 263Z" />
<glyph unicode="&#xc6;" glyph-name="AE" horiz-adv-x="842" d="M402 0L388 125H202L161 0H-18L238 688H799V545H508L524 418H761V277H541L558 143H799V0H402ZM344 540H337L248 264H374L344 540Z" />
<glyph unicode="&#xc7;" glyph-name="Ccedilla" horiz-adv-x="490" d="M406 135T457 143V9Q429 2 385 -3T301 -8H300L267 -189H119V-184L190 2Q127 16 95 54T53 159T42 344Q42 489 60 561T132 664T301 696Q341 696 383 691T454 678V545Q363 553 342 553Q282 553
260 541T232 489T226 344Q226 237 232 199T260 148T342 135Q406 135 457 143Z" />
<glyph unicode="&#xc8;" glyph-name="Egrave" d="M54 0V688H479V545H237V418H441V277H237V143H479V0H54ZM225 750L117 892V897H278L349 755V750H225Z" />
<glyph unicode="&#xc9;" glyph-name="Eacute" d="M54 0V688H479V545H237V418H441V277H237V143H479V0H54ZM201 750V755L272 897H433V892L324 750H201Z" />
<glyph unicode="&#xca;" glyph-name="Ecircumflex" d="M54 0V688H479V545H237V418H441V277H237V143H479V0H54ZM102 750V758L184 890H341L426 758V750H316L263 822L211 750H102Z" />
<glyph unicode="&#xcb;" glyph-name="Edieresis" d="M54 0V688H479V545H237V418H441V277H237V143H479V0H54ZM99 764V877H235V764H99ZM295 764V877H432V764H295Z" />
<glyph unicode="&#xcc;" glyph-name="Igrave" horiz-adv-x="291" d="M54 0V688H237V0H54ZM113 750L5 892V897H166L237 755V750H113Z" />
<glyph unicode="&#xcd;" glyph-name="Iacute" horiz-adv-x="291" d="M54 0V688H237V0H54ZM57 749V754L128 896H289V891L180 749H57Z" />
<glyph unicode="&#xce;" glyph-name="Icircumflex" horiz-adv-x="291" d="M54 0V688H237V0H54ZM-16 749V757L66 889H223L308 757V749H198L145 821L93 749H-16Z" />
<glyph unicode="&#xcf;" glyph-name="Idieresis" horiz-adv-x="291" d="M54 0V688H237V0H54ZM-21 778V891H115V778H-21ZM175 778V891H312V778H175Z" />
<glyph unicode="&#xd0;" glyph-name="Eth" horiz-adv-x="593" d="M54 285H-1V411H54V688H276Q410 688 466 659T536 564T550 344Q550 189 537 124T467 30T276 0H54V285ZM324 143T341 152T362 199T367 344Q367 452 363 489T342 535T276 545H237V411H301V285H237V143H276Q324
143 341 152Z" />
<glyph unicode="&#xd1;" glyph-name="Ntilde" horiz-adv-x="622" d="M401 0L233 355H228V0H54V688H237L388 373H394V688H569V0H401ZM492 851T488 823T464 779T403 763Q365 763 299 780L279 784Q251 791 237 791Q223 791 220 784T217 751H130Q130 806 134 834T158
878T220 894Q243 894 271 889T324 878Q370 867 385 867Q400 867 403 874T406 906H492Q492 851 488 823Z" />
<glyph unicode="&#xd2;" glyph-name="Ograve" horiz-adv-x="608" d="M177 -8T123 22T55 120T42 344Q42 501 55 568T122 665T305 696Q433 696 487 666T555 568T568 344Q568 187 555 120T488 23T305 -8Q177 -8 123 22ZM347 135T361 145T380 193T384 344Q384 456
380 494T362 543T305 553Q263 553 249 543T230 495T226 344Q226 232 230 194T248 145T305 135Q347 135 361 145ZM251 750L143 892V897H304L375 755V750H251Z" />
<glyph unicode="&#xd3;" glyph-name="Oacute" horiz-adv-x="608" d="M177 -8T123 22T55 120T42 344Q42 501 55 568T122 665T305 696Q433 696 487 666T555 568T568 344Q568 187 555 120T488 23T305 -8Q177 -8 123 22ZM347 135T361 145T380 193T384 344Q384 456
380 494T362 543T305 553Q263 553 249 543T230 495T226 344Q226 232 230 194T248 145T305 135Q347 135 361 145ZM233 750V755L304 897H465V892L356 750H233Z" />
<glyph unicode="&#xd4;" glyph-name="Ocircumflex" horiz-adv-x="608" d="M177 -8T123 22T55 120T42 344Q42 501 55 568T122 665T305 696Q433 696 487 666T555 568T568 344Q568 187 555 120T488 23T305 -8Q177 -8 123 22ZM347 135T361 145T380 193T384 344Q384
456 380 494T362 543T305 553Q263 553 249 543T230 495T226 344Q226 232 230 194T248 145T305 135Q347 135 361 145ZM142 750V758L224 890H381L466 758V750H356L303 822L251 750H142Z" />
<glyph unicode="&#xd5;" glyph-name="Otilde" horiz-adv-x="608" d="M177 -8T123 22T55 120T42 344Q42 501 55 568T122 665T305 696Q433 696 487 666T555 568T568 344Q568 187 555 120T488 23T305 -8Q177 -8 123 22ZM347 135T361 145T380 193T384 344Q384 456
380 494T362 543T305 553Q263 553 249 543T230 495T226 344Q226 232 230 194T248 145T305 135Q347 135 361 145ZM486 850T482 822T458 778T397 762Q359 762 293 779L273 783Q245 790 231 790Q217 790 214 783T211 750H124Q124 805 128 833T152 877T214 893Q237
893 265 888T318 877Q364 866 379 866Q394 866 397 873T400 905H486Q486 850 482 822Z" />
<glyph unicode="&#xd6;" glyph-name="Odieresis" horiz-adv-x="608" d="M177 -8T123 22T55 120T42 344Q42 501 55 568T122 665T305 696Q433 696 487 666T555 568T568 344Q568 187 555 120T488 23T305 -8Q177 -8 123 22ZM347 135T361 145T380 193T384 344Q384 456
380 494T362 543T305 553Q263 553 249 543T230 495T226 344Q226 232 230 194T248 145T305 135Q347 135 361 145ZM138 778V891H274V778H138ZM334 778V891H471V778H334Z" />
<glyph unicode="&#xd7;" glyph-name="multiply" horiz-adv-x="493" d="M246 165L152 71L64 159L158 253L63 348L152 437L247 342L342 436L430 348L335 254L430 159L341 70L246 165Z" />
<glyph unicode="&#xd8;" glyph-name="Oslash" horiz-adv-x="608" d="M551 607T559 543T568 344Q568 187 555 120T488 23T305 -8Q254 -8 209 -3L184 -55H42L91 47Q68 71 58 110T45 200T42 344Q42 501 55 568T122 665T305 696Q355 696 398 691L424 743H566L518 642Q551
607 559 543ZM347 135T361 145T380 193T384 344Q384 456 380 494T362 543T305 553Q263 553 249 543T230 495T226 344Q226 232 230 194T248 145T305 135Q347 135 361 145Z" />
<glyph unicode="&#xd9;" glyph-name="Ugrave" horiz-adv-x="599" d="M547 688V310Q547 171 534 110T470 20T299 -8Q180 -8 129 20T65 109T51 310V688H234V269Q234 201 237 176T253 144T299 136Q333 136 345 143T360 176T364 269V688H547ZM245 750L137 892V897H298L369
755V750H245Z" />
<glyph unicode="&#xda;" glyph-name="Uacute" horiz-adv-x="599" d="M547 688V310Q547 171 534 110T470 20T299 -8Q180 -8 129 20T65 109T51 310V688H234V269Q234 201 237 176T253 144T299 136Q333 136 345 143T360 176T364 269V688H547ZM233 750V755L304 897H465V892L356
750H233Z" />
<glyph unicode="&#xdb;" glyph-name="Ucircumflex" horiz-adv-x="599" d="M547 688V310Q547 171 534 110T470 20T299 -8Q180 -8 129 20T65 109T51 310V688H234V269Q234 201 237 176T253 144T299 136Q333 136 345 143T360 176T364 269V688H547ZM138 750V758L220
890H377L462 758V750H352L299 822L247 750H138Z" />
<glyph unicode="&#xdc;" glyph-name="Udieresis" horiz-adv-x="599" d="M547 688V310Q547 171 534 110T470 20T299 -8Q180 -8 129 20T65 109T51 310V688H234V269Q234 201 237 176T253 144T299 136Q333 136 345 143T360 176T364 269V688H547ZM133 778V891H269V778H133ZM329
778V891H466V778H329Z" />
<glyph unicode="&#xdd;" glyph-name="Yacute" horiz-adv-x="568" d="M192 0V231L-1 688H186L283 409H291L386 688H568L375 231V0H192ZM224 750V755L295 897H456V892L347 750H224Z" />
<glyph unicode="&#xde;" glyph-name="Thorn" horiz-adv-x="564" d="M55 688H237V588H346Q428 588 470 562T527 487T541 352Q541 271 528 222T473 145T346 116H237V0H55V688ZM284 257Q319 257 334 263T353 288T358 352Q358 398 354 416T335 441T285 447H237V257H284Z" />
<glyph unicode="&#xdf;" glyph-name="germandbls" horiz-adv-x="537" d="M262 0V128H273Q303 128 314 134T329 164T333 250Q333 307 329 330T312 359T272 366H263V494H272Q297 494 308 498T322 515T325 558Q325 586 320 600T305 618T272 623Q248 623 237 618T221
595T216 541V0H47V552Q47 622 68 665T137 729T271 750Q357 750 406 731T476 675T496 580Q496 515 471 481T391 437V433Q450 421 477 378T504 240Q504 149 487 99T424 24T289 0H262Z" />
<glyph unicode="&#xe0;" glyph-name="agrave" horiz-adv-x="502" d="M90 -8T59 29T28 147Q28 207 41 240T86 288T177 303Q217 303 287 299V319Q287 354 280 368T254 386T186 390Q128 390 54 384V502Q146 518 238 518Q334 518 380 497T441 432T456 307V0H293L289
58H280Q259 20 228 6T157 -8Q90 -8 59 29ZM252 115T262 119T279 135Q287 150 287 191V216H232Q212 216 203 213T190 198T187 163Q187 134 195 125T234 115Q252 115 262 119ZM198 596L90 738V743H251L322 601V596H198Z" />
<glyph unicode="&#xe1;" glyph-name="aacute" horiz-adv-x="502" d="M90 -8T59 29T28 147Q28 207 41 240T86 288T177 303Q217 303 287 299V319Q287 354 280 368T254 386T186 390Q128 390 54 384V502Q146 518 238 518Q334 518 380 497T441 432T456 307V0H293L289
58H280Q259 20 228 6T157 -8Q90 -8 59 29ZM252 115T262 119T279 135Q287 150 287 191V216H232Q212 216 203 213T190 198T187 163Q187 134 195 125T234 115Q252 115 262 119ZM185 596V601L256 743H417V738L308 596H185Z" />
<glyph unicode="&#xe2;" glyph-name="acircumflex" horiz-adv-x="502" d="M90 -8T59 29T28 147Q28 207 41 240T86 288T177 303Q217 303 287 299V319Q287 354 280 368T254 386T186 390Q128 390 54 384V502Q146 518 238 518Q334 518 380 497T441 432T456 307V0H293L289
58H280Q259 20 228 6T157 -8Q90 -8 59 29ZM252 115T262 119T279 135Q287 150 287 191V216H232Q212 216 203 213T190 198T187 163Q187 134 195 125T234 115Q252 115 262 119ZM92 603V611L174 743H331L416 611V603H306L253 675L201 603H92Z" />
<glyph unicode="&#xe3;" glyph-name="atilde" horiz-adv-x="502" d="M90 -8T59 29T28 147Q28 207 41 240T86 288T177 303Q217 303 287 299V319Q287 354 280 368T254 386T186 390Q128 390 54 384V502Q146 518 238 518Q334 518 380 497T441 432T456 307V0H293L289
58H280Q259 20 228 6T157 -8Q90 -8 59 29ZM252 115T262 119T279 135Q287 150 287 191V216H232Q212 216 203 213T190 198T187 163Q187 134 195 125T234 115Q252 115 262 119ZM432 688T428 660T404 616T343 600Q305 600 239 617L219 621Q191 628 177 628Q163 628
160 621T157 588H70Q70 643 74 671T98 715T160 731Q183 731 211 726T264 715Q310 704 325 704Q340 704 343 711T346 743H432Q432 688 428 660Z" />
<glyph unicode="&#xe4;" glyph-name="adieresis" horiz-adv-x="502" d="M90 -8T59 29T28 147Q28 207 41 240T86 288T177 303Q217 303 287 299V319Q287 354 280 368T254 386T186 390Q128 390 54 384V502Q146 518 238 518Q334 518 380 497T441 432T456 307V0H293L289
58H280Q259 20 228 6T157 -8Q90 -8 59 29ZM252 115T262 119T279 135Q287 150 287 191V216H232Q212 216 203 213T190 198T187 163Q187 134 195 125T234 115Q252 115 262 119ZM87 871V984H223V871H87ZM283 871V984H420V871H283Z" />
<glyph unicode="&#xe5;" glyph-name="aring" horiz-adv-x="502" d="M90 -8T59 29T28 147Q28 207 41 240T86 288T177 303Q217 303 287 299V319Q287 354 280 368T254 386T186 390Q128 390 54 384V502Q146 518 238 518Q334 518 380 497T441 432T456 307V0H293L289
58H280Q259 20 228 6T157 -8Q90 -8 59 29ZM252 115T262 119T279 135Q287 150 287 191V216H232Q212 216 203 213T190 198T187 163Q187 134 195 125T234 115Q252 115 262 119ZM190 837T161 848T123 882T114 952Q114 999 122 1022T160 1057T254 1069Q318 1069 348
1058T387 1023T396 952Q396 906 387 883T348 848T254 837Q190 837 161 848ZM279 906T289 910T301 922T304 952Q304 974 302 983T289 996T254 1000Q230 1000 220 996T208 983T205 952Q205 931 207 923T220 910T254 906Q279 906 289 910Z" />
<glyph unicode="&#xe6;" glyph-name="ae" horiz-adv-x="752" d="M716 215H456Q456 167 462 149T488 126T562 120Q604 120 700 126V9Q671 2 621 -3T523 -8Q460 -8 420 2T356 33Q324 9 285 1T194 -8Q128 -8 92 8T42 57T28 147Q28 207 41 240T86 288T177 303Q232
303 286 299V319Q286 355 280 368T254 386T185 390Q122 390 54 384V502Q144 518 228 518Q325 518 374 481Q423 518 518 518Q614 518 655 493T706 418T716 254V215ZM483 398T473 392T460 367T456 301H558Q558 348 555 367T541 392T507 398Q483 398 473 392ZM286
215H231Q211 215 202 212T190 197T186 162Q186 132 194 123T234 113Q256 113 267 120T282 143Q286 159 286 190V215Z" />
<glyph unicode="&#xe7;" glyph-name="ccedilla" horiz-adv-x="408" d="M377 9Q320 -5 259 -8L226 -189H78V-184L148 1Q97 14 72 47T40 127T33 255Q33 352 45 405T101 488T236 518Q310 518 374 502V384Q326 390 283 390Q245 390 230 381T209 346T204 255Q204 190
209 164T229 129T284 120Q334 120 377 126V9Z" />
<glyph unicode="&#xe8;" glyph-name="egrave" horiz-adv-x="496" d="M460 215H200Q200 166 206 148T232 125T307 120Q346 120 444 126V9Q416 2 366 -3T267 -8Q158 -8 109 18T46 95T33 254Q33 360 46 412T105 491T252 518Q353 518 396 494T450 419T460 254V215ZM228
398T218 392T204 367T200 301H303Q303 348 300 367T286 392T252 398Q228 398 218 392ZM200 596L92 738V743H253L324 601V596H200Z" />
<glyph unicode="&#xe9;" glyph-name="eacute" horiz-adv-x="496" d="M460 215H200Q200 166 206 148T232 125T307 120Q346 120 444 126V9Q416 2 366 -3T267 -8Q158 -8 109 18T46 95T33 254Q33 360 46 412T105 491T252 518Q353 518 396 494T450 419T460 254V215ZM228
398T218 392T204 367T200 301H303Q303 348 300 367T286 392T252 398Q228 398 218 392ZM190 596V601L261 743H422V738L313 596H190Z" />
<glyph unicode="&#xea;" glyph-name="ecircumflex" horiz-adv-x="496" d="M460 215H200Q200 166 206 148T232 125T307 120Q346 120 444 126V9Q416 2 366 -3T267 -8Q158 -8 109 18T46 95T33 254Q33 360 46 412T105 491T252 518Q353 518 396 494T450 419T460 254V215ZM228
398T218 392T204 367T200 301H303Q303 348 300 367T286 392T252 398Q228 398 218 392ZM95 603V611L177 743H334L419 611V603H309L256 675L204 603H95Z" />
<glyph unicode="&#xeb;" glyph-name="edieresis" horiz-adv-x="496" d="M460 215H200Q200 166 206 148T232 125T307 120Q346 120 444 126V9Q416 2 366 -3T267 -8Q158 -8 109 18T46 95T33 254Q33 360 46 412T105 491T252 518Q353 518 396 494T450 419T460 254V215ZM228
398T218 392T204 367T200 301H303Q303 348 300 367T286 392T252 398Q228 398 218 392ZM90 871V984H226V871H90ZM286 871V984H423V871H286Z" />
<glyph unicode="&#xec;" glyph-name="igrave" horiz-adv-x="265" d="M47 0V510H218V0H47ZM350 596L242 738V743H403L474 601V596H350Z" />
<glyph unicode="&#xed;" glyph-name="iacute" horiz-adv-x="265" d="M47 0V510H218V0H47ZM48 596V601L119 743H280V738L171 596H48Z" />
<glyph unicode="&#xee;" glyph-name="icircumflex" horiz-adv-x="265" d="M47 0V510H218V0H47ZM227 603V611L309 743H466L551 611V603H441L388 675L336 603H227Z" />
<glyph unicode="&#xef;" glyph-name="idieresis" horiz-adv-x="265" d="M47 0V510H218V0H47ZM222 871V984H358V871H222ZM418 871V984H555V871H418Z" />
<glyph unicode="&#xf0;" glyph-name="eth" horiz-adv-x="510" d="M150 -8T104 14T46 88T33 254Q33 356 44 410T89 491T196 518Q235 518 273 507L278 511Q267 549 249 587L136 572V664L196 672Q172 702 135 739V743H313Q329 728 355 694L467 710V618L412 609Q446
541 463 440Q475 371 475 257Q475 141 463 90T405 15T255 -8Q150 -8 104 14ZM282 120T292 127T304 160T307 255Q307 324 305 348T292 381T254 390Q226 390 217 383T205 351T202 255Q202 184 204 160T216 128T254 120Q282 120 292 127Z" />
<glyph unicode="&#xf1;" glyph-name="ntilde" horiz-adv-x="525" d="M310 272Q310 327 308 347T297 372T264 378Q240 378 231 371T219 342T216 265V0H47V510H209L213 451H221Q256 518 347 518Q403 518 431 497T469 437T479 327V0H310V272ZM447 688T443 660T419
616T358 600Q320 600 254 617L234 621Q206 628 192 628Q178 628 175 621T172 588H85Q85 643 89 671T113 715T175 731Q198 731 226 726T279 715Q325 704 340 704Q355 704 358 711T361 743H447Q447 688 443 660Z" />
<glyph unicode="&#xf2;" glyph-name="ograve" horiz-adv-x="509" d="M150 -8T104 14T46 88T33 255Q33 370 45 421T104 495T254 518Q359 518 404 496T463 422T476 255Q476 140 463 89T405 15T254 -8Q150 -8 104 14ZM282 120T292 127T304 160T307 255Q307 325 305
350T292 382T254 390Q227 390 217 383T205 350T202 255Q202 185 204 160T217 128T254 120Q282 120 292 127ZM198 596L90 738V743H251L322 601V596H198Z" />
<glyph unicode="&#xf3;" glyph-name="oacute" horiz-adv-x="509" d="M150 -8T104 14T46 88T33 255Q33 370 45 421T104 495T254 518Q359 518 404 496T463 422T476 255Q476 140 463 89T405 15T254 -8Q150 -8 104 14ZM282 120T292 127T304 160T307 255Q307 325 305
350T292 382T254 390Q227 390 217 383T205 350T202 255Q202 185 204 160T217 128T254 120Q282 120 292 127ZM185 596V601L256 743H417V738L308 596H185Z" />
<glyph unicode="&#xf4;" glyph-name="ocircumflex" horiz-adv-x="509" d="M150 -8T104 14T46 88T33 255Q33 370 45 421T104 495T254 518Q359 518 404 496T463 422T476 255Q476 140 463 89T405 15T254 -8Q150 -8 104 14ZM282 120T292 127T304 160T307 255Q307 325
305 350T292 382T254 390Q227 390 217 383T205 350T202 255Q202 185 204 160T217 128T254 120Q282 120 292 127ZM94 603V611L176 743H333L418 611V603H308L255 675L203 603H94Z" />
<glyph unicode="&#xf5;" glyph-name="otilde" horiz-adv-x="509" d="M150 -8T104 14T46 88T33 255Q33 370 45 421T104 495T254 518Q359 518 404 496T463 422T476 255Q476 140 463 89T405 15T254 -8Q150 -8 104 14ZM282 120T292 127T304 160T307 255Q307 325 305
350T292 382T254 390Q227 390 217 383T205 350T202 255Q202 185 204 160T217 128T254 120Q282 120 292 127ZM437 688T433 660T409 616T348 600Q310 600 244 617L224 621Q196 628 182 628Q168 628 165 621T162 588H75Q75 643 79 671T103 715T165 731Q188 731 216
726T269 715Q315 704 330 704Q345 704 348 711T351 743H437Q437 688 433 660Z" />
<glyph unicode="&#xf6;" glyph-name="odieresis" horiz-adv-x="509" d="M150 -8T104 14T46 88T33 255Q33 370 45 421T104 495T254 518Q359 518 404 496T463 422T476 255Q476 140 463 89T405 15T254 -8Q150 -8 104 14ZM282 120T292 127T304 160T307 255Q307 325
305 350T292 382T254 390Q227 390 217 383T205 350T202 255Q202 185 204 160T217 128T254 120Q282 120 292 127ZM90 871V984H226V871H90ZM286 871V984H423V871H286Z" />
<glyph unicode="&#xf7;" glyph-name="divide" horiz-adv-x="509" d="M191 379V482H317V379H191ZM64 190V315H445V190H64ZM191 24V127H317V24H191Z" />
<glyph unicode="&#xf8;" glyph-name="oslash" horiz-adv-x="509" d="M77 33Q49 59 41 108T33 255Q33 370 45 421T104 495T254 518Q286 518 311 515L335 565H476L432 476Q460 450 468 401T476 255Q476 140 463 89T405 15T254 -8Q214 -8 198 -6L174 -55H34L77 33ZM282
120T292 127T304 160T307 255Q307 325 305 350T292 382T254 390Q227 390 217 383T205 350T202 255Q202 185 204 160T217 128T254 120Q282 120 292 127Z" />
<glyph unicode="&#xf9;" glyph-name="ugrave" horiz-adv-x="525" d="M312 59H303Q269 -8 178 -8Q122 -8 94 13T56 73T46 183V510H215V238Q215 183 217 163T228 138T261 132Q285 132 294 139T306 169T309 245V510H478V0H316L312 59ZM204 596L96 738V743H257L328
601V596H204Z" />
<glyph unicode="&#xfa;" glyph-name="uacute" horiz-adv-x="525" d="M312 59H303Q269 -8 178 -8Q122 -8 94 13T56 73T46 183V510H215V238Q215 183 217 163T228 138T261 132Q285 132 294 139T306 169T309 245V510H478V0H316L312 59ZM202 596V601L273 743H434V738L325
596H202Z" />
<glyph unicode="&#xfb;" glyph-name="ucircumflex" horiz-adv-x="525" d="M312 59H303Q269 -8 178 -8Q122 -8 94 13T56 73T46 183V510H215V238Q215 183 217 163T228 138T261 132Q285 132 294 139T306 169T309 245V510H478V0H316L312 59ZM101 603V611L183 743H340L425
611V603H315L262 675L210 603H101Z" />
<glyph unicode="&#xfc;" glyph-name="udieresis" horiz-adv-x="525" d="M312 59H303Q269 -8 178 -8Q122 -8 94 13T56 73T46 183V510H215V238Q215 183 217 163T228 138T261 132Q285 132 294 139T306 169T309 245V510H478V0H316L312 59ZM96 871V984H232V871H96ZM292
871V984H429V871H292Z" />
<glyph unicode="&#xfd;" glyph-name="yacute" horiz-adv-x="525" d="M202 -205T156 -202T81 -192V-76L204 -77Q258 -77 278 -71T304 -47T309 23V70H300Q267 4 178 4Q121 4 93 25T55 88T46 202V510H215V249Q215 194 217 174T228 149T261 143Q285 143 294 150T306
179T309 257V510H478V58Q478 -45 465 -97T403 -177T246 -205Q202 -205 156 -202ZM196 596V601L267 743H428V738L319 596H196Z" />
<glyph unicode="&#xfe;" glyph-name="thorn" horiz-adv-x="521" d="M47 743H216V452H225Q242 489 272 503T343 518Q397 518 427 496T472 417T487 256Q487 154 473 97T428 16T343 -8Q302 -8 272 5T224 53H216V-190H47V743ZM293 131T302 137T315 167T318 255Q318
319 315 342T303 372T267 379Q244 379 234 372T220 343Q216 324 216 255Q216 186 219 171Q223 146 233 139T267 131Q293 131 302 137Z" />
<glyph unicode="&#xff;" glyph-name="ydieresis" horiz-adv-x="525" d="M202 -205T156 -202T81 -192V-76L204 -77Q258 -77 278 -71T304 -47T309 23V70H300Q267 4 178 4Q121 4 93 25T55 88T46 202V510H215V249Q215 194 217 174T228 149T261 143Q285 143 294 150T306
179T309 257V510H478V58Q478 -45 465 -97T403 -177T246 -205Q202 -205 156 -202ZM96 871V984H232V871H96ZM292 871V984H429V871H292Z" />
<glyph unicode="&#x2013;" glyph-name="endash" horiz-adv-x="465" d="M41 243V366H424V243H41Z" />
<glyph unicode="&#x2014;" glyph-name="emdash" horiz-adv-x="851" d="M41 243V366H810V243H41Z" />
<glyph unicode="&#x2018;" glyph-name="quoteleft" horiz-adv-x="284" d="M58 507Q58 583 69 620T116 672T228 688V625Q201 625 188 619T171 599T166 557V542H225V401H58V507Z" />
<glyph unicode="&#x2019;" glyph-name="quoteright" horiz-adv-x="284" d="M83 465T96 471T113 491T118 533V548H58V688H225V583Q225 506 214 469T167 417T56 401V465Q83 465 96 471Z" />
<glyph unicode="&#x201a;" glyph-name="quotesinglbase" horiz-adv-x="284" d="M83 -82T96 -76T113 -57T118 -15V0H58V141H226V36Q226 -41 215 -78T168 -130T56 -146V-82Q83 -82 96 -76Z" />
<glyph unicode="&#x201c;" glyph-name="quotedblleft" horiz-adv-x="505" d="M58 507Q58 583 69 620T116 672T228 688V625Q201 625 188 619T171 599T166 557V542H225V401H58V507ZM279 507Q279 584 290 620T337 672T449 688V625Q410 625 398 611T386 557V542H446V401H279V507Z"
/>
<glyph unicode="&#x201d;" glyph-name="quotedblright" horiz-adv-x="505" d="M83 465T96 471T113 491T118 533V548H58V688H225V583Q225 506 214 469T167 417T56 401V465Q83 465 96 471ZM316 465T327 479T339 533V548H279V688H446V583Q446 506 435 469T388 417T277
401V465Q316 465 327 479Z" />
<glyph unicode="&#x201e;" glyph-name="quotedblbase" horiz-adv-x="505" d="M83 -82T96 -76T113 -57T118 -15V0H58V141H226V36Q226 -41 215 -78T168 -130T56 -146V-82Q83 -82 96 -76ZM304 -82T317 -76T334 -57T339 -15V0H279V141H446V36Q446 -41 435 -78T388
-130T277 -146V-82Q304 -82 317 -76Z" />
<glyph unicode="&#x2022;" glyph-name="bullet" horiz-adv-x="352" d="M291 287T285 266T256 236T174 228Q118 228 96 236T67 265T61 342Q61 398 67 420T95 451T174 459Q232 459 255 451T285 421T291 342Q291 287 285 266Z" />
<glyph unicode="&#x2039;" glyph-name="guilsinglleft" horiz-adv-x="286" d="M133 109L22 309L133 510H242L158 309L242 109H133Z" />
<glyph unicode="&#x203a;" glyph-name="guilsinglright" horiz-adv-x="286" d="M43 109L128 309L43 510H152L263 309L152 109H43Z" />
</font>
</defs>
</svg>
