<?xml version="1.0" standalone="no"?>
<!DOCTYPE svg PUBLIC "-//W3C//DTD SVG 1.1//EN" "http://www.w3.org/Graphics/SVG/1.1/DTD/svg11.dtd">
<svg xmlns="http://www.w3.org/2000/svg">
<defs >
<font id="StardosStencil" horiz-adv-x="901" ><font-face
    font-family="Stardos Stencil"
    units-per-em="2048"
    panose-1="2 0 5 6 7 0 0 2 0 3"
    ascent="1994"
    descent="-831"
    alphabetic="0" />
<glyph unicode=" " glyph-name="space" horiz-adv-x="528" />
<glyph unicode="!" glyph-name="exclam" horiz-adv-x="593" d="M247 397Q237 552 215 744T186 1016Q168 1199 168 1269T177 1370T202 1419Q233 1452 297 1452Q361 1452 385 1426Q425 1382 425 1309T420 1165T407 1015T390 854T371 692Q348 488 344 397H247ZM376
212Q427 161 427 121T417 58T389 16Q351 -20 309 -20T243 -11T200 16Q163 52 163 109T200 203T292 240T376 212Z" />
<glyph unicode="&quot;" glyph-name="quotedbl" horiz-adv-x="790" d="M55 1348Q55 1452 143 1452T232 1348Q232 1323 229 1292T221 1223L191 911Q184 854 144 854Q104 854 98 911L66 1223Q55 1307 55 1348ZM329 1452T417 1452T505 1348Q505 1323 502 1292T494
1223L462 911Q456 854 417 854Q376 854 369 911L339 1223Q329 1318 329 1348Q329 1452 417 1452Z" />
<glyph unicode="#" glyph-name="numbersign" horiz-adv-x="1053" d="M956 442H752L686 0H550L616 442H378L313 0H176L242 442H36V563H259L303 858H97V979H318L385 1421H520L456 979H693L757 1421H895L829 979H1019V858H814L770 563H956V442ZM439 858L394 563H632L677
858H439Z" />
<glyph unicode="$" glyph-name="dollar" horiz-adv-x="1054" d="M425 1309Q326 1246 326 1116Q326 1000 436 927Q470 905 508 887V1571H610V844Q814 756 896 678Q1000 578 1000 424Q1000 296 914 182Q827 65 694 26V117Q759 150 790 211T822 331T806 428T760 498Q707
556 610 600V-164H508V645Q231 765 177 926Q159 980 159 1041T178 1158T232 1258Q303 1351 424 1396L425 1309ZM310 317Q266 268 261 240Q272 164 366 116Q394 102 424 94V15Q288 37 198 124Q104 213 104 336Q104 452 187 490Q212 502 254 502T328 473T360 381T310
317ZM772 1255Q759 1311 694 1336V1412Q804 1390 873 1318Q940 1248 940 1163Q940 1024 814 1024Q760 1024 729 1054T698 1122T711 1176T741 1192Q763 1214 772 1255Z" />
<glyph unicode="%" glyph-name="percent" horiz-adv-x="1496" d="M1148 29Q1244 70 1244 359T1148 690V748Q1261 731 1334 632Q1414 525 1414 360Q1414 195 1335 86Q1263 -13 1148 -28V29ZM1065 690Q973 651 973 360T1065 29V-28Q953 -11 880 88Q802 194 802 360Q802
527 880 633Q952 731 1065 748V690ZM176 -31L1211 1452H1330L295 -31H176ZM441 730Q537 771 537 1060T441 1391V1449Q554 1432 628 1333Q707 1226 707 1061Q707 896 628 788Q556 688 441 673V730ZM358 1391Q266 1352 266 1061T358 730V673Q246 690 173 789Q95 895
95 1061Q95 1228 173 1334Q245 1432 358 1449V1391Z" />
<glyph unicode="&amp;" glyph-name="ampersand" horiz-adv-x="1539" d="M633 879Q805 992 805 1159Q805 1242 773 1299T677 1371V1451Q813 1441 898 1362Q979 1286 979 1199T953 1055T885 950Q813 871 682 803L633 879ZM368 653Q292 577 292 434Q292 306 376 206Q458
107 584 83V-31H569Q355 -31 218 77Q73 190 73 383Q73 551 218 666Q262 701 314 733L368 653ZM1219 -25Q1057 -25 932 86Q814 -5 667 -25V77Q785 86 861 150Q721 279 636 386Q254 860 254 1098Q254 1242 350 1340Q441 1434 594 1450V1373Q481 1354 481 1206Q481
1036 582 858Q736 619 940 398Q981 353 1018 319Q1069 398 1087 517Q1092 550 1092 585T1076 643T1035 676T984 692T937 709V774H1441V711Q1414 703 1388 698T1336 682Q1279 659 1250 606Q1233 567 1217 523T1181 434Q1135 322 1081 246Q1152 165 1181 143Q1238
100 1290 100Q1396 100 1421 242L1493 213Q1458 47 1330 -6Q1283 -25 1219 -25Z" />
<glyph unicode="&apos;" glyph-name="quotesingle" horiz-adv-x="528" d="M176 1348Q176 1452 263 1452T351 1348Q351 1318 341 1223L308 911Q302 854 264 854Q222 854 216 911L186 1223Q176 1318 176 1348Z" />
<glyph unicode="(" glyph-name="parenleft" horiz-adv-x="924" d="M864 -408Q562 -384 370 -121Q181 139 181 535Q181 906 372 1176Q496 1353 680 1432Q772 1471 877 1479V1397Q683 1377 554 1179Q406 952 406 535Q406 -20 648 -230Q742 -313 864 -326V-408Z" />
<glyph unicode=")" glyph-name="parenright" horiz-adv-x="924" d="M59 1479Q211 1467 337 1392T553 1191Q743 927 743 535Q743 164 552 -106Q429 -281 244 -360Q151 -400 47 -408V-326Q243 -306 370 -108Q517 121 517 535Q517 965 371 1190Q251 1376 59 1397V1479Z" />
<glyph unicode="*" glyph-name="asterisk" horiz-adv-x="921" d="M892 1237L540 1055L892 870L824 752L510 969L522 588H400L411 969L98 752L30 870L382 1053L30 1237L98 1356L411 1139L400 1520H522L510 1139L824 1356L892 1237Z" />
<glyph unicode="+" glyph-name="plus" horiz-adv-x="1425" d="M632 981H791V559H1280V422H791V0H632V422H143V559H632V981Z" />
<glyph unicode="," glyph-name="comma" horiz-adv-x="528" d="M147 -338Q188 -291 217 -240T246 -144Q246 -67 222 -4Q183 7 156 37T129 122T163 212T245 248T320 237T370 200Q417 144 417 38Q417 -182 230 -381L147 -338Z" />
<glyph unicode="-" glyph-name="hyphen" horiz-adv-x="637" d="M560 557V424H77V557H560Z" />
<glyph unicode="." glyph-name="period" horiz-adv-x="528" d="M210 238Q235 248 263 248T317 238T360 209Q399 170 399 113Q399 23 317 -10Q292 -20 264 -20T210 -10T166 18Q127 55 127 113Q127 203 210 238Z" />
<glyph unicode="/" glyph-name="slash" horiz-adv-x="594" d="M-113 -31L537 1452H705L55 -31H-113Z" />
<glyph unicode="0" glyph-name="zero" horiz-adv-x="1054" d="M485 -28Q314 -6 206 171Q84 370 84 711Q84 1051 206 1250Q314 1427 485 1449V1372Q401 1353 362 1222Q316 1066 316 711Q316 202 415 93Q446 59 485 50V-28ZM568 49Q651 67 690 198Q736 353 736 711Q736
1218 636 1328Q605 1362 568 1371V1450Q739 1428 846 1252Q969 1051 969 711Q969 371 846 170Q739 -6 568 -28V49Z" />
<glyph unicode="1" glyph-name="one" horiz-adv-x="1054" d="M428 1382Q497 1413 553 1452H653V270Q653 202 659 167T687 118T740 95T805 81T867 61V0H210V61Q239 75 273 81T339 95Q412 114 420 162Q428 208 428 270V1382ZM345 1232Q308 1249 202 1251V1312Q284
1329 345 1354V1232Z" />
<glyph unicode="2" glyph-name="two" horiz-adv-x="1054" d="M419 1373Q329 1367 271 1313Q214 1260 214 1194Q231 1179 253 1166T296 1138Q345 1101 345 1050Q345 967 273 944Q252 938 229 938Q160 938 123 984T86 1103T108 1232T174 1333Q267 1432 419 1449V1373ZM318
170H489Q685 170 751 252Q784 293 805 348T845 438H893V0H197L318 170ZM106 0H52L72 189Q288 447 406 574T570 768Q670 911 670 1053Q670 1321 502 1366V1452Q699 1446 814 1330Q919 1222 919 1065Q919 793 502 424Q442 372 390 326Q265 217 232 172L106 0Z" />
<glyph unicode="3" glyph-name="three" horiz-adv-x="1054" d="M423 1379Q354 1373 306 1337T247 1231Q297 1212 316 1196Q358 1160 358 1102T325 1011T232 977T136 1017T98 1130T122 1254T190 1346Q283 1433 423 1449V1379ZM69 262Q69 454 231 454Q280 454 314
410Q344 368 344 329T334 269T307 232Q278 207 220 188Q222 128 279 88Q337 47 423 45V-30Q257 -22 161 61Q69 141 69 262ZM591 762Q938 701 938 397Q938 226 820 107Q699 -15 506 -29V53Q696 95 696 381Q696 559 622 642Q562 709 462 709L416 708Q402 707 388
707Q331 707 331 750T388 793Q470 797 496 805T552 827T608 874Q670 947 670 1080Q670 1332 506 1373V1451Q685 1443 794 1343Q902 1245 902 1100Q902 829 591 766V762Z" />
<glyph unicode="4" glyph-name="four" horiz-adv-x="1054" d="M794 211Q794 120 832 101Q849 92 873 87T927 63V0H400V57Q429 81 463 88T514 100T542 118Q568 145 568 219V1315L658 1452H794V211ZM486 1017Q401 883 317 752T149 487H485V381H32V492L485 1187L486
1017ZM878 486H987V380H878V486Z" />
<glyph unicode="5" glyph-name="five" horiz-adv-x="1054" d="M420 -31Q261 -25 160 60Q64 142 64 248Q64 434 211 434Q265 434 299 402T333 327T322 265T294 232Q273 216 216 195Q218 132 279 90T420 45V-31ZM842 1280T803 1253T708 1219T583 1211T285 1233L252
827L249 730Q239 720 233 707T220 683Q204 656 189 656Q141 656 141 723Q141 796 151 899T168 1072Q180 1210 198 1438Q376 1411 493 1411Q759 1411 804 1434Q819 1441 830 1448Q857 1468 874 1468T897 1463T904 1439T896 1384T865 1314ZM335 872Q407 909 506 909T691
875T836 782Q959 660 959 473Q959 278 842 139Q717 -9 503 -28V53Q710 90 710 451Q710 628 641 722T449 817Q391 817 335 790V872Z" />
<glyph unicode="6" glyph-name="six" horiz-adv-x="1054" d="M741 1309Q725 1372 607 1376H606V1452Q742 1452 826 1387Q907 1325 907 1242T872 1123T785 1087T700 1115T667 1204Q667 1256 717 1291Q730 1300 741 1309ZM523 1363Q332 1287 332 772V505Q332 185
428 89Q460 57 502 46V-28Q308 -8 202 159Q95 328 95 621Q95 1000 222 1220Q334 1413 523 1446V1363ZM553 803Q475 803 415 756V836Q498 889 577 889T722 865T844 788Q974 666 974 453Q974 248 867 114Q760 -20 585 -30V45Q702 68 730 256Q741 327 741 432T727
608T688 724Q644 803 553 803Z" />
<glyph unicode="7" glyph-name="seven" horiz-adv-x="1054" d="M129 1436Q267 1421 361 1421H859L749 1257H465Q379 1257 326 1231Q254 1196 223 1100Q216 1079 210 1058Q192 1002 178 979H111L129 1436ZM487 -31Q342 -31 342 154Q342 442 618 906Q681 1012 838
1257L951 1421H972V1296Q903 1191 836 1083T715 856Q596 587 596 303Q596 238 604 189T612 98Q612 -31 487 -31Z" />
<glyph unicode="8" glyph-name="eight" horiz-adv-x="1054" d="M635 881Q692 924 717 976T743 1122T694 1287T560 1375V1451Q721 1439 822 1343Q917 1252 917 1128Q917 989 806 893Q771 862 726 832L635 881ZM395 610Q245 505 245 338Q245 212 305 135T477 44V-31Q286
-25 174 78Q64 181 64 342Q64 526 304 662L395 610ZM365 711Q245 778 187 851Q114 943 114 1067Q114 1210 213 1320Q314 1431 477 1449V1378Q391 1368 336 1308Q283 1248 283 1180T302 1070T360 988Q422 925 596 827L677 782Q964 636 964 393Q964 228 864 114Q754
-11 560 -28V43Q660 55 721 133Q779 208 779 311Q779 473 585 589Q525 625 454 662L365 711Z" />
<glyph unicode="9" glyph-name="nine" horiz-adv-x="1053" d="M441 -30Q234 -20 164 112Q140 156 140 219T171 317T240 352T297 342T328 316Q353 285 353 256T347 211T334 183T318 159T305 137Q305 103 340 77T441 46V-30ZM430 624Q466 606 524 606T640 653V571Q562
520 475 520T321 550T203 638Q86 765 86 954Q86 1165 188 1300Q292 1439 473 1451V1376Q318 1342 318 977Q318 683 430 624ZM723 794Q723 976 709 1083T671 1252Q633 1355 556 1375V1449Q734 1428 840 1273Q956 1103 956 809Q956 424 837 206Q723 -3 524 -28V54Q625
92 672 253Q723 431 723 794Z" />
<glyph unicode=":" glyph-name="colon" horiz-adv-x="528" d="M210 950Q235 961 263 961T317 951T360 922Q399 883 399 825Q399 735 317 702Q292 692 264 692T210 702T166 730Q127 767 127 825Q127 916 210 950ZM210 238Q235 248 263 248T317 238T360 209Q399
170 399 113Q399 23 317 -10Q292 -20 264 -20T210 -10T166 18Q127 55 127 113Q127 203 210 238Z" />
<glyph unicode=";" glyph-name="semicolon" horiz-adv-x="528" d="M147 -338Q188 -291 217 -240T247 -143Q247 -66 223 -5Q183 6 156 36T129 122T164 212T245 248T320 237T370 200Q417 144 417 38Q417 -183 231 -381L147 -338ZM210 950Q235 961 263 961T317 951T360
922Q399 883 399 825Q399 735 317 702Q292 692 264 692T210 702T166 730Q127 767 127 825Q127 916 210 950Z" />
<glyph unicode="&lt;" glyph-name="less" horiz-adv-x="1425" d="M143 416V559L1280 989V848L143 416ZM432 451L1280 133V-8L247 380L432 451Z" />
<glyph unicode="=" glyph-name="equal" horiz-adv-x="1425" d="M1280 596H143V733H1280V596ZM1280 248H143V385H1280V248Z" />
<glyph unicode="&gt;" glyph-name="greater" horiz-adv-x="1425" d="M1280 565V422L143 -8V133L1280 565ZM991 530L143 848V989L1176 601L991 530Z" />
<glyph unicode="?" glyph-name="question" horiz-adv-x="924" d="M398 1365Q324 1365 276 1326Q231 1291 229 1239Q291 1226 326 1191T361 1106T329 1025T236 993T135 1033T95 1141T116 1260T176 1350Q259 1433 398 1449V1365ZM608 1118Q608 1300 481 1351V1452Q650
1446 754 1344Q850 1249 850 1118Q850 988 750 888Q707 845 657 807T563 725Q463 623 463 489V403H368V510Q368 630 430 726Q457 766 488 802T546 882Q608 985 608 1118ZM508 212Q558 161 558 121T548 58T520 16Q484 -20 441 -20T374 -11T332 16Q295 51 295 108T331
203T423 240T508 212Z" />
<glyph unicode="@" glyph-name="at" horiz-adv-x="1899" d="M556 61Q767 64 930 124Q982 143 1035 166L1065 92Q848 8 740 -9T556 -30V61ZM473 -30Q92 -18 -155 204Q-388 413 -388 678Q-388 1013 -146 1227Q95 1439 473 1451V1369Q195 1354 18 1176Q-175 984 -175
668Q-175 437 4 264Q188 85 473 63V-30ZM818 467Q818 389 911 389Q1045 389 1138 533Q1221 663 1221 817Q1221 1028 1034 1190Q841 1357 556 1369V1451Q887 1441 1111 1262Q1216 1178 1276 1065T1336 819Q1336 637 1216 481Q1081 307 872 307Q781 307 724 346T655
446H650Q579 377 534 353Q448 307 380 307T266 323T188 372Q120 441 120 575Q120 692 183 812Q245 932 352 1010Q466 1092 598 1092Q685 1092 739 1044L716 955Q684 995 629 995T518 963T414 874Q303 742 303 573Q303 490 339 447T431 403T533 439T620 532Q698
644 737 787L813 1067H987L833 551Q818 502 818 467Z" />
<glyph unicode="A" glyph-name="A" horiz-adv-x="1254" d="M711 451H407L432 543H681L711 451ZM513 1003L278 301Q247 212 248 168T262 109T296 89T344 79T399 61V0H-36V61Q-15 73 8 80T52 96Q101 118 115 162L453 1165L513 1003ZM488 1267Q434 1286 415 1305Q417
1326 420 1344T427 1381T435 1412Q625 1452 655 1452Q676 1435 694 1389L1133 178Q1155 118 1199 96Q1219 86 1241 80T1289 61V0H748V61Q771 72 796 76T842 86Q888 97 888 131Q888 161 840 293T755 528Q652 817 553 1106L488 1267Z" />
<glyph unicode="B" glyph-name="B" horiz-adv-x="1341" d="M628 1339Q580 1339 556 1332V1421H660Q923 1421 1056 1322Q1178 1232 1178 1071Q1178 943 1084 857Q991 772 832 754V750Q1129 710 1218 536Q1251 474 1251 391T1222 236T1132 112Q1001 0 751 0H556V88Q578
82 646 82Q819 82 900 152T981 377Q981 532 894 615T628 698H556V786H594Q907 786 907 1069Q907 1339 628 1339ZM473 0H84V59Q111 71 136 78T182 96Q224 120 224 184V1237Q224 1301 182 1325Q162 1336 137 1343T84 1362V1421H473V0Z" />
<glyph unicode="C" glyph-name="C" horiz-adv-x="1321" d="M1047 1352Q1083 1352 1106 1405H1194V905H1126Q1086 943 1055 1029T1004 1166T954 1258Q888 1351 771 1367V1449Q897 1437 1013 1365Q1034 1352 1047 1352ZM771 65Q991 65 1084 285Q1116 361 1130 467L1225
444Q1194 211 1082 96T771 -30V65ZM688 -30Q417 -16 252 183Q86 384 86 711Q86 1029 258 1238Q427 1444 688 1452V1368Q467 1347 394 1013Q367 889 367 716T394 427T466 237Q548 98 688 71V-30Z" />
<glyph unicode="D" glyph-name="D" horiz-adv-x="1451" d="M826 1316Q748 1346 674 1346T572 1341V1421H670Q990 1421 1173 1223Q1351 1031 1351 711Q1351 390 1173 198Q990 0 670 0H572V81Q612 76 680 76T826 106T959 210Q1069 360 1069 711Q1069 1221 826 1316ZM489
0H84V59Q111 71 136 78T182 96Q224 120 224 184V1237Q224 1301 182 1325Q162 1336 137 1343T84 1362V1421H489V0Z" />
<glyph unicode="E" glyph-name="E" horiz-adv-x="1253" d="M84 0V59Q108 74 138 82T182 97T204 119Q224 150 224 233V1186Q224 1270 210 1293T183 1322T154 1334Q104 1348 84 1362V1421H473V0H84ZM556 82L575 81Q800 81 894 128Q993 178 1034 326Q1043 357 1049
382T1064 429Q1079 473 1106 500H1171V0H556V82ZM926 1421Q988 1421 1126 1436V946H1056Q1021 991 1002 1047T963 1156T923 1241T873 1295Q813 1339 711 1339T556 1324V1421H926ZM556 846H848V658H556V846Z" />
<glyph unicode="F" glyph-name="F" horiz-adv-x="1142" d="M839 1307T792 1320T671 1333T556 1325V1421H893Q960 1421 1104 1436V946H1038Q1002 984 985 1044T956 1143T924 1219T871 1281ZM473 227Q473 148 488 126T517 97T549 86T588 76T635 59V0H84V59Q108 74
138 82T182 97T204 119Q224 150 224 233V1186Q224 1270 210 1293T183 1322T154 1334Q104 1348 84 1362V1421H473V227ZM556 834H848V646H556V834Z" />
<glyph unicode="G" glyph-name="G" horiz-adv-x="1363" d="M1024 1356Q1059 1356 1076 1409H1161V911H1094Q1052 964 1022 1054T974 1191T925 1276Q858 1359 735 1366V1451Q825 1445 892 1414T985 1370T1024 1356ZM1190 242Q1190 150 1223 78L1185 55Q1081 25
895 25Q885 25 850 12Q783 -11 735 -20V52Q848 58 896 142Q941 221 941 391Q941 484 935 521T912 572T872 595T821 609T770 623V690H1294Q1289 654 1273 633T1238 592Q1190 539 1190 467V242ZM652 1361Q370 1305 370 705Q370 215 542 100Q593 66 652 56V-25Q394
-25 240 176Q88 377 88 711Q88 1010 244 1218Q404 1430 652 1450V1361Z" />
<glyph unicode="H" glyph-name="H" horiz-adv-x="1450" d="M983 1200Q983 1274 968 1295T940 1323T912 1334Q863 1348 843 1362V1421H1368V1362Q1341 1350 1317 1343T1273 1325Q1232 1301 1232 1237V184Q1232 120 1273 96Q1292 85 1316 78T1368 59V0H843V59Q959
75 977 166Q983 196 983 236V1200ZM465 227Q465 118 507 96Q521 90 553 81T605 59V0H81V59Q108 71 132 78T175 96Q216 120 216 184V1237Q216 1301 175 1325Q156 1336 132 1343T81 1362V1421H605V1362Q582 1347 550 1338T506 1323T484 1301Q465 1269 465 1190V227ZM900
694H548V786H900V694Z" />
<glyph unicode="I" glyph-name="I" horiz-adv-x="725" d="M630 1421V1362Q601 1350 575 1343T530 1325Q487 1301 487 1237V184Q487 120 530 96Q550 85 576 78T632 59V0H93V59Q122 71 148 78T194 96Q238 120 238 184V1237Q238 1301 194 1325Q174 1336 148 1343T93
1362V1421H630Z" />
<glyph unicode="J" glyph-name="J" horiz-adv-x="966" d="M323 -30Q179 -24 96 48Q21 114 21 207T60 341T161 383T256 350T290 272T281 208T258 176Q243 162 195 143Q197 105 231 78T323 46V-30ZM499 1243Q499 1303 447 1326Q424 1336 395 1343T337 1362V1421H888V1362Q862
1350 838 1343T794 1326Q750 1304 750 1243V350Q750 166 664 75T406 -29V52Q458 66 479 110T500 238L499 1243Z" />
<glyph unicode="K" glyph-name="K" horiz-adv-x="1341" d="M556 808L869 1184Q882 1199 896 1214T922 1243Q950 1276 950 1293T937 1319T904 1333T859 1343T812 1360V1421H1303V1360Q1288 1348 1266 1342T1214 1326Q1140 1302 1085 1249L760 864L1204 172Q1236
116 1289 94Q1311 85 1332 79T1375 61V0H814V61Q831 73 853 78T895 90Q943 104 943 133Q943 153 930 175T895 236L556 757V808ZM473 223Q473 143 496 117Q533 73 612 59V0H84V59Q111 71 136 78T182 96Q224 120 224 184V1194Q224 1273 210 1295T182 1323T154 1334Q103
1348 84 1362V1421H612V1362Q530 1346 508 1319Q473 1276 473 1196V223Z" />
<glyph unicode="L" glyph-name="L" horiz-adv-x="1142" d="M90 0V59Q108 71 129 76T170 88Q217 103 223 143Q230 183 230 246V1176Q230 1293 204 1314Q183 1331 146 1340T90 1362V1421H627V1362Q605 1350 582 1345T539 1332Q492 1315 487 1278Q480 1238 480 1178V0H90ZM563
83Q578 82 594 82H627Q815 82 898 200Q935 254 956 323T986 418Q1005 472 1033 508H1096V0H563V83Z" />
<glyph unicode="M" glyph-name="M" horiz-adv-x="1715" d="M904 512L1173 1421H1622V1362Q1598 1350 1574 1344T1531 1328Q1489 1306 1489 1253V184Q1489 122 1532 98Q1551 87 1576 79T1629 59V0H1106V59Q1130 71 1153 79T1196 98Q1239 123 1239 184V1278H1235L957
337L904 512ZM338 1181V213Q338 135 384 103Q405 89 431 81T485 59V0H84V59Q108 71 133 78T178 100Q224 131 224 211V1224L338 1181ZM342 1257Q131 1338 84 1362V1421H535L918 206L857 0H739L342 1257Z" />
<glyph unicode="N" glyph-name="N" horiz-adv-x="1429" d="M1101 532V1237Q1101 1291 1051 1320Q1029 1332 1002 1342T947 1364V1423H1365V1364Q1340 1352 1314 1342T1266 1320Q1216 1291 1216 1237V352L1101 532ZM326 1062V186Q326 131 378 104Q401 91 431 81T494
59V0H54V59Q82 71 110 81T160 104Q211 132 211 186V1212L326 1062ZM330 1186Q223 1312 116 1344Q88 1353 61 1362V1421H451L1216 211V-8H1069L330 1186Z" />
<glyph unicode="O" glyph-name="O" horiz-adv-x="1429" d="M671 -30Q415 -12 248 202Q86 410 86 711Q86 1010 248 1218Q415 1432 671 1450V1368Q524 1353 450 1212Q367 1050 367 711Q367 213 546 96Q602 60 671 53V-30ZM754 53Q978 76 1036 410Q1058 533 1058
711Q1058 1207 879 1324Q823 1360 754 1368V1451Q1012 1433 1178 1220Q1341 1011 1341 711T1178 202Q1012 -11 754 -29V53Z" />
<glyph unicode="P" glyph-name="P" horiz-adv-x="1230" d="M917 1049Q917 1346 641 1346Q597 1346 563 1340V1421H650Q1042 1421 1158 1217Q1199 1146 1199 1057T1167 898T1069 778Q929 668 679 668H563V743Q745 743 828 808Q917 880 917 1049ZM480 238Q480 169
485 145T508 108T549 89T601 77T655 59V0H90V59Q107 71 128 76T170 88Q218 103 224 144T230 240V1182Q230 1293 204 1314Q183 1331 146 1340T90 1362V1421H480V238Z" />
<glyph unicode="Q" glyph-name="Q" horiz-adv-x="1429" d="M754 53Q978 76 1036 410Q1058 533 1058 711Q1058 1207 879 1324Q823 1360 754 1368V1451Q1012 1433 1178 1220Q1341 1011 1341 711Q1341 456 1220 262Q1098 66 896 0Q966 -39 1021 -74T1120 -137Q1214
-195 1250 -195T1303 -191T1331 -178T1353 -160T1378 -138L1449 -203Q1390 -298 1280 -331Q1239 -343 1173 -343T1041 -312T924 -233T831 -131T754 -29V53ZM671 -30Q415 -12 248 202Q86 410 86 711Q86 1010 248 1218Q415 1432 671 1450V1368Q524 1353 450 1212Q367
1050 367 711Q367 213 546 96Q602 60 671 53V-30Z" />
<glyph unicode="R" glyph-name="R" horiz-adv-x="1341" d="M600 1421Q1187 1421 1187 1067Q1187 923 1081 827Q970 727 779 719V715Q883 690 940 610Q970 568 1006 477T1063 332T1105 235Q1152 138 1188 138Q1203 138 1214 151T1236 182Q1267 225 1292 225Q1295
225 1306 220T1317 198T1310 164Q1253 73 1224 45Q1162 -16 1087 -16T967 8T892 72T844 166T811 277T782 394T747 506Q699 625 614 667Q593 678 563 690V772Q846 772 906 931Q926 986 926 1061Q926 1196 847 1271T605 1346Q576 1346 563 1343V1421H600ZM480 238Q480
172 484 145T502 106T537 88T579 76T620 59V0H90V59Q105 71 126 76T168 88Q218 103 224 144T230 240V1182Q230 1293 204 1314Q183 1331 146 1340T90 1362V1421H480V238Z" />
<glyph unicode="S" glyph-name="S" horiz-adv-x="1164" d="M592 1449Q666 1442 718 1415T790 1377T823 1366T846 1372T862 1386T874 1403T884 1421H976V952H904Q882 975 854 1052T807 1176T758 1262Q694 1351 592 1367V1449ZM330 32T306 43T257 55T200 0H107V494H176Q198
471 215 431T252 345T295 249T351 158Q425 65 539 53V-29Q449 -21 390 5ZM622 54Q730 67 789 142Q841 209 841 295T810 434T729 527T613 601T481 666T349 734T234 816Q121 920 121 1069Q121 1220 224 1327Q334 1439 509 1451V1368Q385 1352 342 1241Q328 1205 328
1151T360 1050T444 966T562 898T698 835T834 766T953 680Q1069 569 1069 412Q1069 242 946 116Q817 -18 622 -30V54Z" />
<glyph unicode="T" glyph-name="T" horiz-adv-x="1187" d="M717 1421V229Q717 150 734 128T765 99T798 88Q849 75 875 59V0H313V59Q335 73 370 82T420 98T446 118Q467 148 467 229V1421H717ZM1014 1421Q1055 1421 1151 1436V963H1083Q1069 1001 1059 1043T1035
1127T1005 1207T961 1275Q901 1339 800 1339V1421H1014ZM36 1436Q84 1421 109 1421H384V1339Q240 1339 180 1206Q151 1143 134 1072T104 963H34V1434L36 1436Z" />
<glyph unicode="U" glyph-name="U" horiz-adv-x="1405" d="M793 52Q1003 61 1068 216Q1090 267 1090 334V1225Q1090 1308 992 1341Q965 1350 938 1362V1421H1358V1362Q1331 1350 1304 1341T1254 1318Q1204 1288 1204 1225V365Q1204 1 793 -28V52ZM710 -31Q336
-31 234 202Q200 279 200 379V1237Q200 1301 161 1325Q143 1336 118 1343T64 1362V1421H587V1362Q557 1350 532 1343T488 1325Q449 1302 449 1237V332Q449 215 520 140Q588 68 710 54V-31Z" />
<glyph unicode="V" glyph-name="V" horiz-adv-x="1187" d="M701 427Q701 435 731 520T784 672T832 810T880 952T922 1084Q964 1221 964 1256T952 1306T920 1327T879 1338T838 1358V1421H1232V1358Q1216 1348 1197 1341T1158 1324Q1112 1299 1092 1243L750 257L701
427ZM715 156L653 -23H530L101 1270Q84 1318 14 1340Q-6 1347 -27 1358V1421H489V1358Q464 1348 440 1342T398 1328Q356 1312 356 1283T367 1222T392 1151L715 156Z" />
<glyph unicode="W" glyph-name="W" horiz-adv-x="1715" d="M1294 470Q1335 605 1386 786T1458 1038T1494 1164T1511 1256T1500 1306T1470 1329T1428 1343T1382 1358V1421H1765V1358Q1751 1348 1734 1342T1699 1328Q1657 1310 1644 1282Q1627 1243 1608 1178L1346
292L1294 470ZM1309 168L1253 -23H1128L857 897H852L676 277L625 462L767 954Q778 993 788 1022T802 1077Q785 1176 760 1238T721 1312T690 1331T658 1343T630 1358V1421H1106V1358Q1087 1349 1066 1344T1027 1332Q985 1316 985 1287T994 1228T1018 1153L1309 168ZM641
153L591 -23H460L102 1214Q72 1311 47 1324Q35 1331 22 1336Q-15 1348 -23 1358V1421H444V1358Q426 1348 406 1343T368 1330Q326 1313 326 1284T336 1225T356 1161L641 153Z" />
<glyph unicode="X" glyph-name="X" horiz-adv-x="1230" d="M699 961Q749 1034 785 1087T846 1178Q893 1254 893 1281T882 1318T854 1334T815 1344T772 1358V1421H1216V1358Q1196 1346 1155 1336Q1085 1320 1060 1294Q973 1199 829 975Q793 919 754 862L699 961ZM535
555Q480 472 440 413T373 313T330 246T304 203Q289 175 289 147T301 107T331 89T373 81T420 61V0H-23V61Q-6 75 28 85Q94 102 113 123Q151 165 169 192L472 654L535 555ZM194 1231Q183 1250 171 1266T147 1298Q129 1321 97 1329T44 1343T7 1358V1421H539V1364Q519
1353 500 1347T465 1335Q430 1322 430 1294Q430 1275 456 1232L1027 278Q1053 233 1093 178T1153 109T1190 89T1224 77T1253 61V0H707V61Q728 72 751 76T795 87Q841 101 841 137Q841 159 801 223L194 1231Z" />
<glyph unicode="Y" glyph-name="Y" horiz-adv-x="1187" d="M709 792Q903 1170 917 1206Q934 1251 934 1273T921 1309T889 1330T845 1343T800 1358V1421H1230V1358Q1214 1346 1174 1334T1116 1312T1070 1262T1003 1149T924 999T847 842T769 685L709 792ZM727 603L717
588V231Q717 118 771 96Q787 90 805 86Q860 72 879 59V0H306V59Q328 73 363 81T415 95T442 118Q467 151 467 236V592L120 1257Q91 1313 8 1341Q-12 1348 -31 1358V1421H528V1358Q504 1348 480 1343T436 1332Q392 1317 392 1282Q392 1256 423 1196T484 1076T560
928T670 715L727 603Z" />
<glyph unicode="Z" glyph-name="Z" horiz-adv-x="1164" d="M434 88Q570 88 668 102T811 142T885 201T931 276T962 358Q1000 476 1024 510H1094V0H384L434 88ZM123 1436Q190 1421 283 1421H753L703 1333Q481 1333 400 1296Q313 1256 276 1176Q253 1129 231 1062T190
967H123V1436ZM844 1421H1076V1346L284 0H59V92L844 1421Z" />
<glyph unicode="[" glyph-name="bracketleft" horiz-adv-x="988" d="M335 1438H732V1368Q732 1357 718 1354T677 1343Q579 1335 558 1319T531 1282T525 1229V-160Q525 -225 547 -241Q581 -266 677 -274Q703 -279 717 -283T732 -299V-367H335V1438Z" />
<glyph unicode="\" glyph-name="backslash" horiz-adv-x="594" d="M55 1452L705 -31H537L-113 1452H55Z" />
<glyph unicode="]" glyph-name="bracketright" horiz-adv-x="988" d="M653 -367H256V-299Q256 -287 270 -283T321 -275T388 -264T434 -245Q462 -225 462 -160V1229Q462 1294 440 1310Q408 1335 310 1343Q284 1350 270 1353T256 1368V1438H653V-367Z" />
<glyph unicode="^" glyph-name="asciicircum" horiz-adv-x="1425" d="M211 680L639 1421H786L1214 680H1035L712 1247L388 680H211Z" />
<glyph unicode="_" glyph-name="underscore" horiz-adv-x="1187" d="M0 -256V-154H1187V-256H0Z" />
<glyph unicode="`" glyph-name="grave" horiz-adv-x="637" d="M394 1096L55 1296Q-9 1333 -9 1376Q-9 1419 36 1440Q51 1446 78 1446Q121 1446 202 1370L489 1096H394Z" />
<glyph unicode="a" glyph-name="a" horiz-adv-x="1054" d="M572 510Q304 413 304 227Q304 152 340 107T447 61T572 114V19Q495 -27 398 -27T243 -8T144 44Q61 111 61 221Q61 448 464 564Q521 581 572 594V510ZM335 868Q390 847 390 772Q390 724 356 695T265 666T174
697T140 777T163 865T228 934Q315 997 447 1007V931Q366 923 335 868ZM930 99Q985 99 1000 199L1051 172Q1041 75 998 24T859 -27Q785 -27 749 0Q691 44 655 133V756Q655 818 623 863T530 925V1007Q869 989 869 649V176Q869 99 930 99Z" />
<glyph unicode="b" glyph-name="b" horiz-adv-x="1097" d="M821 41T741 7T585 -27T453 -12V87Q494 59 546 59Q779 59 779 483Q779 821 654 888Q614 909 572 909T504 891T453 849V966Q524 1008 600 1008T751 977T884 882Q1019 739 1019 489Q1019 252 883 107Q821
41 741 7ZM143 -8Q157 90 157 219V1247Q157 1307 118 1330Q100 1341 79 1347T38 1366V1427H370V13Q319 34 296 60Q268 47 249 23T224 -8H143Z" />
<glyph unicode="c" glyph-name="c" horiz-adv-x="967" d="M727 846Q699 915 602 925V1006Q735 999 814 918Q883 849 883 759Q883 667 812 634Q788 623 747 623T674 653T641 724T650 783T672 814T700 833T727 846ZM602 64Q724 82 782 218Q799 256 812 295L895 270Q839
77 712 12Q665 -13 602 -22V64ZM310 492Q310 100 519 64V-27Q330 -23 204 108Q71 249 71 481Q71 686 195 837Q323 993 519 1007V919Q369 884 325 665Q310 590 310 492Z" />
<glyph unicode="d" glyph-name="d" horiz-adv-x="1097" d="M727 1262Q727 1316 687 1334Q669 1343 646 1348T600 1366V1427H940V182Q940 102 1020 76Q1040 70 1058 59V0H727V1262ZM532 909Q318 909 318 484T520 59Q580 59 644 133V14Q578 -27 488 -27T325 7T198
106Q79 249 79 481Q79 713 196 860Q314 1008 493 1008Q572 1008 644 970V875Q596 909 532 909Z" />
<glyph unicode="e" glyph-name="e" horiz-adv-x="1050" d="M720 596Q720 884 576 920V1006Q763 989 864 849Q959 718 959 508H393V596H720ZM580 61Q754 69 827 225Q848 270 863 317L949 285Q893 76 720 4Q659 -21 580 -26V61ZM309 553Q309 123 497 69V-23Q301
-1 186 140Q71 279 71 489Q71 710 186 852Q302 995 493 1007V924Q309 902 309 553Z" />
<glyph unicode="f" glyph-name="f" horiz-adv-x="660" d="M415 221Q415 111 460 88Q482 78 511 74T575 53V0H55V53Q75 66 108 74T156 88T180 107Q202 134 202 203V893H41V950Q55 965 98 970Q180 981 200 1001Q211 1204 244 1278T317 1386T415 1437V221ZM660 1320Q639
1376 530 1376Q515 1376 498 1371V1450Q520 1452 559 1452T642 1440T720 1404Q789 1353 789 1270Q789 1216 754 1184Q724 1157 691 1157T641 1162T610 1178Q580 1201 580 1241Q580 1299 660 1320ZM498 981H628V893H498V981Z" />
<glyph unicode="g" glyph-name="g" horiz-adv-x="1033" d="M356 320Q329 268 329 211Q329 207 357 207T432 208T538 205T660 194T781 168T888 122Q991 57 991 -55Q991 -183 876 -272Q757 -364 566 -372V-306Q686 -298 761 -238Q830 -182 830 -103T753 21T548 66T343
57Q275 32 265 -54Q262 -80 262 -113T278 -180T324 -240Q384 -295 473 -305V-372Q300 -362 196 -280Q101 -205 101 -102Q101 14 200 80Q227 97 253 106V111Q202 124 176 195Q167 220 167 244T175 284T196 314Q220 337 260 363L356 320ZM342 680Q342 455 464 427V358Q377
364 294 412Q122 510 122 688Q122 815 217 902Q311 988 464 1002V933Q342 905 342 680ZM860 913T838 933T816 974T831 1036Q770 1033 759 942Q831 885 854 843Q892 775 892 698T867 562T796 461Q701 372 547 358V426Q674 454 674 680T547 934V1003Q619 998 688
975Q715 1114 861 1114Q917 1114 945 1092Q992 1054 992 1012T970 942T904 913Z" />
<glyph unicode="h" glyph-name="h" horiz-adv-x="1188" d="M411 158Q411 111 452 90Q471 80 493 73T537 53V0H71V53Q93 65 115 72T156 90Q197 111 197 158V1262Q197 1316 157 1334Q139 1343 116 1348T69 1366V1427H411V158ZM644 901Q562 901 494 839V948Q582 1008
698 1008Q832 1008 918 936Q1011 858 1011 725V158Q1011 112 1053 90Q1071 80 1093 73T1135 53V0H748V72Q748 90 756 99T773 118Q798 145 798 176V729Q798 901 644 901Z" />
<glyph unicode="i" glyph-name="i" horiz-adv-x="636" d="M437 993V158Q437 111 478 90Q497 80 519 73T562 53V0H97V53Q118 65 140 72T182 90Q224 111 224 158V827Q224 880 184 900Q166 909 143 914T97 932V987L437 993ZM187 1361T224 1396T304 1432T372 1423T415
1396Q453 1360 453 1303Q453 1247 415 1211Q378 1176 320 1176T224 1211T187 1303Z" />
<glyph unicode="j" glyph-name="j" horiz-adv-x="548" d="M100 -416Q91 -417 82 -417H65Q-96 -417 -150 -316Q-166 -284 -166 -239T-135 -163T-63 -133T-2 -143T32 -170Q54 -200 54 -233Q54 -301 29 -301Q39 -324 86 -324H100V-416ZM183 819Q183 867 138 892Q118
902 95 910T50 932V993H397V10Q397 -251 287 -348Q246 -385 183 -402V819ZM270 1432Q328 1432 365 1397T403 1304T366 1211T270 1176Q212 1176 175 1211T138 1303T175 1396T270 1432Z" />
<glyph unicode="k" glyph-name="k" horiz-adv-x="1076" d="M392 201Q392 109 432 90Q444 85 458 80Q499 67 517 53V0H52V53Q74 71 97 76T138 90Q179 112 179 201V1217Q179 1317 140 1333Q128 1338 114 1342Q70 1352 52 1366V1427H392V201ZM475 598L653 764Q722
828 722 858Q722 888 642 904Q620 909 601 918V981H1045V922Q1022 911 995 900T934 868Q854 822 764 735L650 625L950 139Q976 95 1006 85T1055 71T1092 55V0H653V53Q702 76 704 123Q704 136 698 147L475 538V598Z" />
<glyph unicode="l" glyph-name="l" horiz-adv-x="570" d="M397 1427V158Q397 111 438 90Q456 80 478 73T523 53V0H57V53Q78 65 100 72T141 90Q183 112 183 158V1260Q183 1307 140 1330Q121 1340 98 1347T54 1366V1427H397Z" />
<glyph unicode="m" glyph-name="m" horiz-adv-x="1714" d="M480 949Q566 1008 677 1008Q855 1008 936 886Q960 850 971 809V158Q971 109 1010 88Q1028 78 1049 72T1090 53V0H707V68Q707 87 724 103T749 130T757 164V741Q757 901 617 901Q535 901 480 848V949ZM1190
901Q1114 901 1054 852V950Q1144 1006 1231 1006T1372 989T1464 937Q1545 864 1545 721V158Q1545 109 1586 88Q1603 78 1624 72T1667 53V0H1282V68Q1282 87 1299 104Q1332 137 1332 166V750Q1332 901 1190 901ZM397 158Q397 111 438 90Q456 80 478 73T523 53V0H57V53Q78
65 100 72T141 90Q183 112 183 158V778Q183 877 144 893Q132 898 118 902Q74 912 54 926V987H397V158Z" />
<glyph unicode="n" glyph-name="n" horiz-adv-x="1188" d="M646 901Q563 901 494 836V945Q582 1008 701 1008Q839 1008 924 936Q1011 861 1011 725V199Q1011 104 1050 88Q1062 83 1076 80Q1114 70 1135 53V0H748V68Q748 87 765 103T790 130T798 164V735Q798 901
646 901ZM411 203Q411 109 451 90Q463 85 477 80Q518 67 537 53V0H71V53Q89 67 116 76T156 90T178 108Q197 134 197 201V778Q197 877 158 893Q146 898 132 902Q88 912 69 926V987H411V203Z" />
<glyph unicode="o" glyph-name="o" horiz-adv-x="1053" d="M483 -25Q312 -8 202 120Q79 263 79 489Q79 717 202 860Q313 989 483 1006V928Q395 911 354 813Q310 705 310 489Q310 172 408 88Q441 61 483 53V-25ZM566 52Q743 82 743 489Q743 812 639 896Q606 922
566 929V1007Q736 994 850 864Q976 719 976 489Q976 260 852 117Q738 -13 566 -26V52Z" />
<glyph unicode="p" glyph-name="p" horiz-adv-x="1097" d="M370 868V-233Q372 -281 414 -302Q434 -311 458 -318T508 -338V-391H31V-338Q52 -326 74 -319T115 -302Q156 -280 156 -233V827Q156 880 116 900Q99 909 77 914T31 932V993H363L370 868ZM605 -27Q519
-27 453 3L454 92Q503 59 557 59T652 84T721 162Q779 271 779 483Q779 815 655 888Q618 909 585 909T532 900T497 876Q479 859 453 817V958Q527 1008 617 1008T781 968T907 856Q1019 708 1019 489Q1019 251 902 110Q787 -27 605 -27Z" />
<glyph unicode="q" glyph-name="q" horiz-adv-x="1097" d="M954 987Q940 858 940 760V-233Q940 -280 982 -302Q1000 -311 1022 -318T1067 -338V-391H589V-338Q615 -326 639 -319T684 -302Q727 -280 727 -233V935Q740 929 761 923T794 913L869 987H954ZM534 59Q602
59 644 120V2Q582 -27 498 -27T335 8T200 109Q79 249 79 487Q79 716 213 865Q341 1008 520 1008Q583 1008 644 980V886Q607 909 551 909T453 884T380 807Q318 700 318 481Q318 59 534 59Z" />
<glyph unicode="r" glyph-name="r" horiz-adv-x="812" d="M406 750V197Q406 107 450 90Q464 84 480 80Q533 65 555 53V0H73V53Q92 65 113 72T152 90Q193 111 193 158V737Q193 852 175 870T139 896T102 909T69 926V987H394L406 750ZM668 718T643 739T618 791T644
852Q635 858 621 858Q553 857 489 762V916Q563 1008 657 1008Q765 1008 802 914Q814 885 814 836T785 753T712 718Z" />
<glyph unicode="s" glyph-name="s" horiz-adv-x="900" d="M473 53Q548 64 593 108T639 212T616 303T554 359T466 401T366 438T266 480T178 535Q93 606 93 721Q93 824 171 904Q259 996 401 1007V928Q343 917 309 880T274 793T298 714T361 663T451 624T555 587T658
544T748 485Q836 407 836 283Q836 174 754 88Q656 -15 473 -26V53ZM541 772Q541 847 596 868Q565 923 484 931V1007Q616 997 704 934Q791 871 791 782Q791 728 758 697T667 666T575 695T541 772ZM333 209Q333 134 278 113Q309 58 390 50V-26Q261 -18 170 47Q83
110 83 199Q83 253 116 284T207 315T299 286T333 209Z" />
<glyph unicode="t" glyph-name="t" horiz-adv-x="703" d="M473 969H637V881H473V969ZM390 -26Q217 -18 186 128Q176 174 176 231V881H41V942Q56 955 73 963T108 980Q152 1002 172 1033T205 1101T228 1174T246 1246T268 1315L390 1321V-26ZM473 65Q548 65 590 172Q603
205 615 244L679 229Q652 50 556 0Q521 -18 473 -24V65Z" />
<glyph unicode="u" glyph-name="u" horiz-adv-x="1164" d="M539 80Q621 80 687 144V29Q597 -27 465 -27Q247 -27 194 126Q176 179 176 254V821Q176 873 137 894Q120 903 99 908T59 926V987H390V236Q390 80 539 80ZM770 821Q770 874 730 894Q712 903 690 908T646
926V987H983V164Q983 112 1024 92Q1042 83 1063 77T1103 59V0H784L770 106V821Z" />
<glyph unicode="v" glyph-name="v" horiz-adv-x="924" d="M552 339L685 702Q727 817 727 843T714 881T681 897T640 906T601 918V981H969V918Q957 909 941 905T906 894Q855 873 836 810Q833 800 829 791L605 203L552 339ZM570 108L521 -20H406L74 840Q61 875 18
893Q-31 913 -47 930V981H420V920Q403 911 382 907T342 898Q299 885 299 854Q299 834 307 814T329 755T362 664T405 549T455 414T515 254L570 108Z" />
<glyph unicode="w" glyph-name="w" horiz-adv-x="1450" d="M491 -20H385L83 844Q66 892 -2 909Q-19 913 -34 924V981H427V926Q412 915 391 911T350 900Q303 887 303 852Q303 833 313 802T358 671T440 424T540 132L491 -20ZM1104 379L1210 707Q1226 756 1237 787T1249
843T1236 879T1203 896T1161 906T1121 918V981H1488V928Q1479 910 1455 904T1418 892T1385 853T1334 748T1274 594Q1226 462 1154 236L1104 379ZM1123 140Q1102 73 1069 -20H969L722 678H716L572 231L521 379L659 805Q652 845 635 875Q604 931 604 949V972Q604
976 605 981H921L936 905Q877 905 877 877Q894 800 960 613T1071 293L1123 140Z" />
<glyph unicode="x" glyph-name="x" horiz-adv-x="1033" d="M595 667Q625 707 649 736T690 788Q725 836 725 855T715 882T690 896T656 907T623 918V981H1026V926Q1012 916 996 911T960 900Q913 885 893 864T861 831T839 807L659 587L595 667ZM448 335Q382 251 343
199T304 128T315 99T341 83T374 71T406 57V0H-9V57Q12 70 35 76T85 96Q151 128 214 205L386 416L448 335ZM623 207Q573 272 525 336T425 465L159 821Q109 890 47 906Q30 911 12 920V981H487V918Q473 911 456 908T423 900Q388 891 388 868T443 770T524 662Q589 578
620 539L904 158Q937 113 972 97T1025 75T1061 57V0H563V55Q580 64 599 70T634 82Q670 96 670 119T622 207H623Z" />
<glyph unicode="y" glyph-name="y" horiz-adv-x="924" d="M561 365Q594 459 622 537T673 677Q720 807 720 839T709 881T682 896T645 906T607 920V981H961V920Q945 910 929 905T897 894Q861 878 847 840L618 235L561 365ZM189 -153T197 -170T205 -217T170 -283Q185
-303 209 -303Q269 -303 323 -226T420 -6L77 850Q60 894 -8 910Q-24 914 -38 920V981H420V922Q399 914 378 909T340 896Q301 882 301 858Q301 844 342 737L343 736Q403 585 461 436T580 136L463 -168Q366 -412 174 -412Q44 -412 0 -310Q-14 -277 -14 -227T19 -145T89
-113T143 -120T175 -140Z" />
<glyph unicode="z" glyph-name="z" horiz-adv-x="924" d="M393 82Q425 84 456 85T529 89T609 108T671 148T711 200T738 259Q772 345 793 371H859V0H339L393 82ZM847 898L236 1H60V95Q214 318 364 539T671 981H847V898ZM517 900Q479 898 414 892T317 870T265 834T232
787T210 736Q185 666 168 646H102V982H577L517 900Z" />
<glyph unicode="{" glyph-name="braceleft" horiz-adv-x="987" d="M349 281Q349 395 322 436T260 498T170 535Q276 564 315 624Q349 677 349 791V1167Q349 1355 445 1424Q523 1479 716 1479V1425Q571 1400 547 1262Q539 1217 539 1159V821Q539 694 511 647T445
575T349 537V532Q461 505 503 435Q539 375 539 248V-90Q539 -212 567 -258T630 -324T716 -354V-408Q524 -408 445 -352Q349 -283 349 -96V281Z" />
<glyph unicode="|" glyph-name="bar" horiz-adv-x="527" d="M183 1421H342V0H183V1421Z" />
<glyph unicode="}" glyph-name="braceright" horiz-adv-x="988" d="M639 791Q639 677 666 635T727 572T818 535Q713 507 673 446Q639 395 639 281V-96Q639 -283 543 -352Q464 -408 270 -408V-354Q372 -336 412 -271Q449 -210 449 -90V248Q449 375 477 422T543
494T639 532V537Q527 564 485 634Q449 694 449 821V1159Q449 1340 357 1395Q322 1416 270 1425V1479Q465 1479 543 1424Q639 1355 639 1167V791Z" />
<glyph unicode="~" glyph-name="asciitilde" horiz-adv-x="1425" d="M166 455Q274 631 463 631Q555 631 730 562Q796 537 855 516T956 494T1027 506T1081 538Q1118 569 1171 637L1256 524Q1185 440 1143 410Q1057 350 973 350T829 371T713 418T593 465T451 487Q329
487 252 344L166 455Z" />
<glyph unicode="&#xa0;" glyph-name="uni00A0" horiz-adv-x="528" />
<glyph unicode="&#xa1;" glyph-name="exclamdown" horiz-adv-x="593" d="M344 604Q349 494 374 279T407 -16Q425 -192 425 -265T417 -369T392 -418Q361 -451 297 -451Q233 -451 209 -426Q168 -380 168 -308T173 -164T185 -15T202 146T220 308Q240 497 247 604H344ZM427
834T392 798T314 762T246 772T204 800Q163 838 163 878T173 943T202 985Q243 1022 300 1022T392 985T427 891Q427 834 392 798Z" />
<glyph unicode="&#xa2;" glyph-name="cent" horiz-adv-x="1054" d="M441 1058Q335 952 335 722T442 393L441 252Q289 293 200 414Q108 538 108 717Q108 881 200 1010Q292 1138 441 1188V1058ZM620 0H517V1423H620V0ZM797 1042Q785 1100 684 1128V1210Q881 1185
942 1068Q962 1030 962 981T932 896T848 860T765 887T735 968T797 1042ZM684 334Q794 365 853 475Q870 507 885 541L961 514Q892 295 684 248V334Z" />
<glyph unicode="&#xa3;" glyph-name="sterling" horiz-adv-x="1053" d="M677 1313Q652 1364 556 1373V1451Q689 1443 767 1372Q840 1307 840 1226Q840 1083 712 1083Q664 1083 634 1110T604 1172T614 1227T638 1261T663 1288T677 1313ZM748 688H1028V600H813L748
688ZM395 600H100V688H305L395 600ZM586 232Q614 288 614 351T576 474T471 600L383 688Q328 743 281 790T200 886Q127 989 127 1104Q127 1229 211 1325Q308 1435 472 1450V1367Q407 1352 366 1306T324 1200T339 1097T383 1015T450 934T536 843Q752 615 786 514Q800
471 800 408Q800 285 700 165L586 232ZM804 72Q937 72 1028 233L1106 174Q1039 75 995 39Q909 -31 818 -31T670 -11T562 45L465 109Q349 186 297 201T204 217T137 197T111 141T146 80T268 55T403 73L501 10Q408 -31 293 -31T119 -16T20 25Q-61 79 -61 158Q-61 281
79 321Q124 334 185 334T301 317T402 275T486 224T553 180L657 117Q740 72 804 72Z" />
<glyph unicode="&#xa4;" glyph-name="currency" horiz-adv-x="1054" d="M527 295Q357 295 240 381L133 283L36 369L145 463Q45 565 45 712T145 956L36 1053L133 1139L242 1042Q360 1126 525 1126T812 1042L921 1139L1017 1053L909 956Q1009 862 1009 714T909 463L1017
369L921 283L814 381Q697 295 527 295ZM527 1008Q389 1008 292 920Q195 833 195 711Q195 585 292 500Q389 414 527 414Q665 414 762 500Q859 585 859 711Q859 833 762 920Q665 1008 527 1008Z" />
<glyph unicode="&#xa5;" glyph-name="yen" horiz-adv-x="1053" d="M254 731H56V819H208L254 731ZM71 1257Q42 1313 -40 1341Q-61 1348 -80 1358V1421H445V1358Q421 1348 397 1343T352 1332Q309 1317 309 1282Q309 1256 340 1196T402 1076T478 928T587 715L634
622V231Q634 118 688 96Q704 90 722 86Q777 72 796 59V0H243V59Q265 73 300 81T352 95T380 118Q404 151 404 236V603L71 1257ZM697 685L637 792Q831 1170 845 1206Q862 1251 862 1273T849 1309T817 1330T773 1343T728 1358V1421H1158V1358Q1143 1347 1123 1341T1082
1328Q1033 1312 1013 1284Q940 1176 867 1028T757 807T697 685ZM842 819H1004V731H800L842 819ZM717 559H1004V471H717V559ZM321 471H56V559H321V471Z" />
<glyph unicode="&#xa6;" glyph-name="brokenbar" horiz-adv-x="527" d="M183 537H342V0H183V537ZM183 1421H342V883H183V1421Z" />
<glyph unicode="&#xa7;" glyph-name="section" horiz-adv-x="1188" d="M627 1451Q740 1445 820 1388Q898 1333 898 1253Q898 1201 866 1171T779 1141Q725 1141 695 1167T664 1224T677 1273T706 1302T735 1324T748 1351T714 1385T627 1408V1451ZM544 -237Q403 -229
320 -164Q247 -106 247 -31Q247 19 281 49T357 80T420 72T459 52Q492 26 492 -6T480 -54T452 -81T424 -101T411 -124T421 -148T449 -168Q487 -187 544 -193V-237ZM494 899Q372 990 337 1030Q264 1113 264 1204Q264 1308 344 1374Q419 1437 544 1449V1405Q473 1394
433 1356T392 1269T411 1190T464 1128T548 1063T667 980T804 881T916 782Q1014 679 1014 573Q1014 437 888 366Q850 345 804 338L734 387Q801 387 834 412Q891 455 891 505T852 608T717 733L494 899ZM465 843Q453 845 433 845T386 836T339 810Q292 774 292 717Q292
658 323 616Q378 542 473 477L703 319Q816 240 853 193Q922 106 922 23Q922 -78 842 -150Q759 -224 627 -236V-192Q697 -182 741 -142T786 -49T760 43T690 119T591 192T477 265T364 342T264 429Q168 531 168 647Q168 749 238 814Q303 876 410 886L465 843Z" />
<glyph unicode="&#xa8;" glyph-name="dieresis" horiz-adv-x="637" d="M-9 1278T25 1306T96 1335T156 1328T194 1306Q229 1277 229 1244T220 1191T194 1158Q160 1130 110 1130T25 1158T-9 1232ZM411 1278T445 1306T529 1335T614 1307T648 1232T614 1158T530 1130T445
1158T411 1232Z" />
<glyph unicode="&#xa9;" glyph-name="copyright" horiz-adv-x="1899" d="M1049 1142Q1227 1136 1294 1096Q1315 1084 1316 1071L1323 903H1275Q1256 1018 1146 1067Q1106 1085 1049 1090V1142ZM1049 357Q1240 367 1321 543H1366L1310 375Q1291 317 1049 306V357ZM966
306Q617 319 511 546Q475 623 475 716T508 883T604 1012Q736 1130 966 1142V1090Q827 1075 754 972Q687 877 687 731Q687 495 839 402Q892 369 966 360V306ZM907 -30Q569 -15 340 198Q111 411 111 711Q111 907 218 1076Q378 1328 692 1417Q795 1446 907 1451V1347Q731
1337 578 1246Q353 1112 282 871Q259 793 259 711T281 550T345 403T445 276T576 174Q729 83 907 75V-30ZM990 75Q1262 90 1452 277Q1641 463 1641 711Q1641 960 1452 1146Q1263 1331 990 1347V1451Q1325 1439 1558 1224Q1703 1089 1760 903Q1788 811 1788 711Q1788
413 1557 198Q1411 63 1204 4Q1102 -25 990 -30V75Z" />
<glyph unicode="&#xaa;" glyph-name="ordfeminine" horiz-adv-x="632" d="M380 1300Q380 1365 328 1389V1451Q532 1436 532 1233V948Q532 910 565 910Q578 910 591 923T612 965L653 952Q644 886 626 866Q594 831 516 831T380 881V1300ZM297 1139Q170 1085 170
981Q170 946 192 925T244 903T297 913V841Q263 831 218 831Q121 831 65 871T9 971T37 1068T108 1130Q173 1170 297 1203V1139ZM143 1243Q54 1243 54 1317Q54 1370 105 1406T245 1450V1397Q196 1390 190 1366Q224 1353 224 1317T201 1262T143 1243Z" />
<glyph unicode="&#xab;" glyph-name="guillemotleft" horiz-adv-x="1127" d="M955 1059V944L688 600L955 256V141L533 559V641L955 1059ZM564 1059V944L297 600L564 256V141L142 559V641L564 1059Z" />
<glyph unicode="&#xac;" glyph-name="logicalnot" horiz-adv-x="1425" d="M1121 596H143V733H1280V248H1121V596Z" />
<glyph unicode="&#xad;" glyph-name="uni00AD" horiz-adv-x="637" d="M560 557V424H77V557H560Z" />
<glyph unicode="&#xae;" glyph-name="registered" horiz-adv-x="1899" d="M919 725Q1004 725 1049 771T1095 905Q1095 1024 988 1057Q956 1067 919 1067V1118H990Q1184 1118 1254 1008Q1278 971 1278 926T1263 845T1221 780Q1166 723 1078 698L1221 532Q1325 410
1405 354V326H1242Q1204 326 1172 356T1103 435T1023 546T919 674V725ZM836 446Q836 400 854 387Q882 369 955 367V326H542V367Q615 369 631 381Q658 400 658 446V997Q658 1043 640 1055Q616 1073 542 1077V1118H836V446ZM905 -30Q567 -15 338 198Q109 411 109
711Q109 907 216 1076Q376 1328 690 1417Q793 1446 905 1451V1347Q729 1337 576 1246Q351 1112 280 871Q257 793 257 711T279 550T343 403T443 276T574 174Q727 83 905 75V-30ZM988 75Q1260 90 1450 277Q1639 463 1639 711Q1639 960 1450 1146Q1261 1331 988 1347V1451Q1323
1439 1556 1224Q1701 1089 1758 903Q1786 811 1786 711Q1786 413 1555 198Q1409 63 1202 4Q1100 -25 988 -30V75Z" />
<glyph unicode="&#xaf;" glyph-name="overscore" horiz-adv-x="637" d="M644 1286V1178H-5V1286H644Z" />
<glyph unicode="&#xb0;" glyph-name="degree" horiz-adv-x="950" d="M475 1366Q379 1366 313 1304Q250 1244 250 1159Q250 1075 313 1016Q379 954 475 954Q571 954 637 1016Q701 1076 701 1159Q701 1243 637 1304Q571 1366 475 1366ZM475 1452Q617 1452 714 1368T812
1159Q812 1036 714 952Q616 868 475 868Q334 868 236 952Q138 1036 138 1159Q138 1283 235 1367T475 1452Z" />
<glyph unicode="&#xb1;" glyph-name="plusminus" horiz-adv-x="1425" d="M632 981H791V664H1280V526H791V209H632V526H143V664H632V981ZM143 137H1280V0H143V137Z" />
<glyph unicode="&#xb2;" glyph-name="twosuperior" horiz-adv-x="632" d="M142 1143Q56 1143 56 1251Q56 1368 172 1426Q209 1445 257 1450V1405Q172 1399 142 1335Q133 1316 133 1297Q143 1288 157 1280T183 1262Q212 1240 212 1210Q212 1143 142 1143ZM196 681H299Q414
681 456 730Q476 753 486 782T513 842H542V579H123L196 681ZM408 1219Q408 1373 307 1400V1452Q424 1448 494 1378Q557 1313 557 1219Q557 1073 378 900Q329 854 283 814Q164 709 144 682L68 579H36L48 693Q73 722 97 750T149 810T211 881T282 960T348 1040Q408
1126 408 1219Z" />
<glyph unicode="&#xb3;" glyph-name="threesuperior" horiz-adv-x="632" d="M275 1408Q181 1399 169 1319Q216 1300 226 1281T236 1234T216 1186T158 1166T95 1190T69 1258T84 1332T127 1388Q185 1440 275 1450V1408ZM52 735Q52 851 159 851Q204 851 223 799Q228
785 228 769T222 740T206 717Q189 703 153 691Q155 656 188 631T275 605V560Q167 565 110 614T52 735ZM376 1036Q585 999 585 817Q585 713 514 642Q440 568 325 560V610Q439 635 439 807Q439 963 350 995Q325 1004 299 1004L271 1003H254Q220 1003 220 1029T254
1055Q257 1059 271 1059T304 1059T344 1068T383 1095Q424 1138 424 1223Q424 1380 325 1404V1451Q434 1445 499 1386Q563 1327 563 1240Q563 1078 376 1039V1036Z" />
<glyph unicode="&#xb4;" glyph-name="acute" horiz-adv-x="637" d="M147 1096L434 1370Q466 1400 497 1423T556 1446T599 1440T625 1422Q646 1400 646 1375Q646 1334 582 1296L242 1096H147Z" />
<glyph unicode="&#xb5;" glyph-name="mu" horiz-adv-x="1164" d="M47 -391V-338Q68 -326 91 -319T133 -302Q176 -280 176 -233V821Q176 873 137 894Q120 903 99 908T59 926V987H390V-391H47ZM474 91Q507 80 545 80T622 98T692 147Q752 207 770 293V774Q770 849
757 868T732 892T706 902Q664 913 646 926V987H983V164Q983 112 1024 92Q1042 83 1063 77T1103 59V0H784V123H781Q692 -24 474 -27V91Z" />
<glyph unicode="&#xb6;" glyph-name="paragraph" horiz-adv-x="1425" d="M140 1010Q140 1421 573 1421H705V-240H560V586Q355 586 244 706Q140 817 140 1010ZM845 1421H1166V1374Q1069 1370 1039 1351Q990 1319 990 1255V-240H845V1421Z" />
<glyph unicode="&#xb7;" glyph-name="middot" horiz-adv-x="528" d="M398 489Q398 437 358 401Q319 365 278 365T211 374T168 401Q128 437 128 489Q128 542 168 578Q207 614 249 614Q319 614 358 578T398 489Z" />
<glyph unicode="&#xb8;" glyph-name="cedilla" horiz-adv-x="637" d="M274 -203Q230 -203 202 -217L166 -205L270 0H349L281 -137Q315 -127 360 -127T440 -137T499 -166Q553 -205 553 -270Q553 -348 479 -395Q402 -444 274 -444Q157 -444 61 -410L97 -348Q161
-375 238 -375T351 -350T387 -287Q387 -203 274 -203Z" />
<glyph unicode="&#xb9;" glyph-name="onesuperior" horiz-adv-x="632" d="M260 1410Q303 1429 335 1452H395V742Q395 660 431 643Q448 635 471 633T524 616V579H129V616Q158 630 182 632T224 643Q260 660 260 742V1410ZM210 1320Q188 1331 124 1331V1368Q178 1379
210 1393V1320Z" />
<glyph unicode="&#xba;" glyph-name="ordmasculine" horiz-adv-x="632" d="M354 905Q446 944 446 1141T354 1378V1450Q460 1437 530 1360Q607 1276 607 1143Q607 1009 530 924Q459 847 354 834V905ZM271 1378Q183 1341 183 1142T271 906V834Q102 858 42 1018Q21
1073 21 1142T41 1266T96 1358Q164 1434 271 1449V1378Z" />
<glyph unicode="&#xbb;" glyph-name="guillemotright" horiz-adv-x="1127" d="M564 1059L986 641V559L564 141V256L832 600L564 944V1059ZM174 1059L596 641V559L174 141V256L440 600L174 944V1059Z" />
<glyph unicode="&#xbc;" glyph-name="onequarter" horiz-adv-x="1581" d="M410 -31H261L1298 1452H1451L410 -31ZM1422 145Q1422 81 1446 68Q1457 61 1472 59T1507 45V0H1164V41Q1187 58 1207 60T1242 67Q1275 78 1275 150V797L1328 870H1422V145ZM1192 229H926V303L1192
678V559L1017 305V301H1192V229ZM1505 301H1559V229H1505V301ZM260 1410Q303 1429 335 1452H395V742Q395 660 431 643Q448 635 471 633T524 616V579H129V616Q158 630 182 632T224 643Q260 660 260 742V1410ZM210 1320Q188 1331 124 1331V1368Q178 1379 210 1393V1320Z"
/>
<glyph unicode="&#xbd;" glyph-name="onehalf" horiz-adv-x="1582" d="M354 -31H204L1242 1452H1394L354 -31ZM260 1410Q303 1429 335 1452H395V742Q395 660 431 643Q448 635 471 633T524 616V579H129V616Q158 630 182 632T224 643Q260 660 260 742V1410ZM210
1320Q188 1331 124 1331V1368Q178 1379 210 1393V1320ZM1124 564Q1038 564 1038 672Q1038 790 1154 848Q1191 866 1239 871V826Q1154 820 1124 756Q1115 737 1115 718Q1125 709 1139 701T1165 684Q1194 661 1194 631Q1194 564 1124 564ZM1178 102H1281Q1396 102
1438 152Q1458 174 1468 203T1495 263H1524V0H1105L1178 102ZM1390 640Q1390 794 1289 821V873Q1406 869 1476 799Q1539 734 1539 640Q1539 494 1360 322Q1311 275 1265 234Q1146 130 1126 103L1050 0H1018L1030 114Q1055 143 1079 171T1131 231T1193 302T1264
381T1330 461Q1390 547 1390 640Z" />
<glyph unicode="&#xbe;" glyph-name="threequarters" horiz-adv-x="1581" d="M410 -31H261L1298 1452H1450L410 -31ZM1422 145Q1422 81 1446 68Q1457 61 1472 59T1507 45V0H1164V41Q1187 58 1207 60T1242 67Q1275 78 1275 150V797L1328 870H1422V145ZM1192 229H926V303L1192
678V559L1017 305V301H1192V229ZM1505 301H1559V229H1505V301ZM275 1408Q181 1399 169 1319Q216 1300 226 1281T236 1234T216 1186T158 1166T95 1190T69 1258T84 1332T127 1388Q185 1440 275 1450V1408ZM52 735Q52 851 159 851Q204 851 223 799Q228 785 228 769T222
740T206 717Q189 703 153 691Q155 656 188 631T275 605V560Q167 565 110 614T52 735ZM376 1036Q585 999 585 817Q585 713 514 642Q440 568 325 560V610Q439 635 439 807Q439 963 350 995Q325 1004 299 1004L271 1003H254Q220 1003 220 1029T254 1055Q257 1059 271
1059T304 1059T344 1068T383 1095Q424 1138 424 1223Q424 1380 325 1404V1451Q434 1445 499 1386Q563 1327 563 1240Q563 1078 376 1039V1036Z" />
<glyph unicode="&#xbf;" glyph-name="questiondown" horiz-adv-x="924" d="M525 -364Q599 -364 647 -326Q692 -290 694 -238Q632 -225 597 -190T562 -105T594 -24T687 8T788 -32T828 -140T807 -259T747 -348Q664 -432 525 -448V-364ZM315 -117Q315 -299 442 -350V-451Q273
-445 169 -342Q73 -248 73 -117Q73 13 173 113Q216 156 266 194T360 276Q460 378 460 512V598H555V491Q555 371 492 276Q466 235 435 199T378 118Q315 16 315 -117ZM628 835T592 798T512 761T446 771T404 800Q365 839 365 879T375 943T402 984Q441 1021 483 1021T549
1012T592 985Q628 950 628 893Z" />
<glyph unicode="&#xc0;" glyph-name="Agrave" horiz-adv-x="1254" d="M711 451H407L432 543H681L711 451ZM513 1003L278 301Q247 212 248 168T262 109T296 89T344 79T399 61V0H-36V61Q-15 73 8 80T52 96Q101 118 115 162L453 1165L513 1003ZM488 1267Q434 1286
415 1305Q417 1326 420 1344T427 1381T435 1412Q625 1452 655 1452Q676 1435 694 1389L1133 178Q1155 118 1199 96Q1219 86 1241 80T1289 61V0H748V61Q771 72 796 76T842 86Q888 97 888 131Q888 161 840 293T755 528Q652 817 553 1106L488 1267ZM781 1542L442 1742Q378
1779 378 1822Q378 1865 424 1886Q438 1892 466 1892Q508 1892 589 1816L876 1542H781Z" />
<glyph unicode="&#xc1;" glyph-name="Aacute" horiz-adv-x="1254" d="M711 451H407L432 543H681L711 451ZM513 1003L278 301Q247 212 248 168T262 109T296 89T344 79T399 61V0H-36V61Q-15 73 8 80T52 96Q101 118 115 162L453 1165L513 1003ZM488 1267Q434 1286
415 1305Q417 1326 420 1344T427 1381T435 1412Q625 1452 655 1452Q676 1435 694 1389L1133 178Q1155 118 1199 96Q1219 86 1241 80T1289 61V0H748V61Q771 72 796 76T842 86Q888 97 888 131Q888 161 840 293T755 528Q652 817 553 1106L488 1267ZM377 1542L664 1816Q696
1846 727 1869T786 1892T829 1886T855 1868Q876 1846 876 1821Q876 1780 812 1742L472 1542H377Z" />
<glyph unicode="&#xc2;" glyph-name="Acircumflex" horiz-adv-x="1254" d="M711 451H407L432 543H681L711 451ZM513 1003L278 301Q247 212 248 168T262 109T296 89T344 79T399 61V0H-36V61Q-15 73 8 80T52 96Q101 118 115 162L453 1165L513 1003ZM488 1267Q434
1286 415 1305Q417 1326 420 1344T427 1381T435 1412Q625 1452 655 1452Q676 1435 694 1389L1133 178Q1155 118 1199 96Q1219 86 1241 80T1289 61V0H748V61Q771 72 796 76T842 86Q888 97 888 131Q888 161 840 293T755 528Q652 817 553 1106L488 1267ZM700 1886L966
1542H879L626 1769L372 1542H287L550 1886H700Z" />
<glyph unicode="&#xc3;" glyph-name="Atilde" horiz-adv-x="1254" d="M711 451H407L432 543H681L711 451ZM513 1003L278 301Q247 212 248 168T262 109T296 89T344 79T399 61V0H-36V61Q-15 73 8 80T52 96Q101 118 115 162L453 1165L513 1003ZM488 1267Q434 1286
415 1305Q417 1326 420 1344T427 1381T435 1412Q625 1452 655 1452Q676 1435 694 1389L1133 178Q1155 118 1199 96Q1219 86 1241 80T1289 61V0H748V61Q771 72 796 76T842 86Q888 97 888 131Q888 161 840 293T755 528Q652 817 553 1106L488 1267ZM982 1812Q921 1595
756 1595Q698 1595 628 1628T523 1677T456 1693T406 1684T372 1660Q352 1638 336 1591H271Q294 1697 353 1749T495 1802Q552 1802 623 1768T728 1719T791 1703T839 1711T872 1734Q888 1751 917 1812H982Z" />
<glyph unicode="&#xc4;" glyph-name="Adieresis" horiz-adv-x="1254" d="M711 451H407L432 543H681L711 451ZM513 1003L278 301Q247 212 248 168T262 109T296 89T344 79T399 61V0H-36V61Q-15 73 8 80T52 96Q101 118 115 162L453 1165L513 1003ZM488 1267Q434 1286
415 1305Q417 1326 420 1344T427 1381T435 1412Q625 1452 655 1452Q676 1435 694 1389L1133 178Q1155 118 1199 96Q1219 86 1241 80T1289 61V0H748V61Q771 72 796 76T842 86Q888 97 888 131Q888 161 840 293T755 528Q652 817 553 1106L488 1267ZM298 1724T332 1752T403
1781T463 1774T501 1752Q536 1723 536 1690T527 1637T501 1604Q467 1576 417 1576T332 1604T298 1678ZM718 1724T752 1752T836 1781T921 1753T955 1678T921 1604T837 1576T752 1604T718 1678Z" />
<glyph unicode="&#xc5;" glyph-name="Aring" horiz-adv-x="1254" d="M711 451H407L432 543H681L711 451ZM513 1003L278 301Q247 212 248 168T262 109T296 89T344 79T399 61V0H-36V61Q-15 73 8 80T52 96Q101 118 115 162L453 1165L513 1003ZM488 1267Q434 1286
415 1305Q417 1326 420 1344T427 1381T435 1412Q625 1452 655 1452Q676 1435 694 1389L1133 178Q1155 118 1199 96Q1219 86 1241 80T1289 61V0H748V61Q771 72 796 76T842 86Q888 97 888 131Q888 161 840 293T755 528Q652 817 553 1106L488 1267ZM386 1763Q386 1850
456 1911Q525 1970 627 1970Q728 1970 796 1911Q867 1850 867 1763Q867 1675 796 1614Q727 1554 627 1554Q526 1554 456 1614Q386 1675 386 1763ZM473 1762Q473 1734 485 1710T518 1666Q561 1626 627 1626Q729 1626 768 1710Q780 1734 780 1762T769 1816T736 1859Q692
1898 627 1898Q562 1898 518 1859T473 1762Z" />
<glyph unicode="&#xc6;" glyph-name="AE" horiz-adv-x="1935" d="M886 1317Q864 1329 836 1329Q818 1318 793 1268L473 659Q282 322 251 247T220 147T233 109T268 91T315 79T367 61V0H-64V61Q-42 76 -22 83T19 102Q63 126 102 197L636 1182Q677 1256 677 1282Q677
1314 630 1330Q609 1336 584 1342T534 1358V1421H1135V168Q1135 91 1236 84Q1267 82 1331 82T1462 94T1575 136Q1663 189 1703 326Q1712 357 1718 382T1732 429Q1749 474 1776 500H1840V0H736V59Q757 71 776 76T811 85T842 96T866 118Q886 149 886 227V1317ZM1327
1339Q1248 1339 1219 1335V1421H1590Q1644 1421 1794 1436V946H1726Q1694 975 1680 1021T1649 1124Q1613 1243 1552 1288Q1482 1339 1327 1339ZM1216 795H1372V659H1216V795ZM803 659H562L610 795L803 748V659Z" />
<glyph unicode="&#xc7;" glyph-name="Ccedilla" horiz-adv-x="1321" d="M1047 1352Q1083 1352 1106 1405H1194V905H1126Q1086 943 1055 1029T1004 1166T954 1258Q888 1351 771 1367V1449Q897 1437 1013 1365Q1034 1352 1047 1352ZM771 65Q991 65 1084 285Q1116
361 1130 467L1225 444Q1194 211 1082 96T771 -30V65ZM688 -30Q417 -16 252 183Q86 384 86 711Q86 1029 258 1238Q427 1444 688 1452V1368Q467 1347 394 1013Q367 889 367 716T394 427T466 237Q548 98 688 71V-30ZM627 -203Q583 -203 555 -217L519 -205L623 0H702L634
-137Q714 -114 793 -137Q862 -157 892 -210Q906 -237 906 -272T887 -340T832 -395Q755 -444 627 -444Q510 -444 414 -410L450 -348Q514 -375 591 -375T704 -350T740 -287Q740 -203 627 -203Z" />
<glyph unicode="&#xc8;" glyph-name="Egrave" horiz-adv-x="1253" d="M84 0V59Q108 74 138 82T182 97T204 119Q224 150 224 233V1186Q224 1270 210 1293T183 1322T154 1334Q104 1348 84 1362V1421H473V0H84ZM556 82L575 81Q800 81 894 128Q993 178 1034 326Q1043
357 1049 382T1064 429Q1079 473 1106 500H1171V0H556V82ZM926 1421Q988 1421 1126 1436V946H1056Q1021 991 1002 1047T963 1156T923 1241T873 1295Q813 1339 711 1339T556 1324V1421H926ZM556 846H848V658H556V846ZM780 1542L441 1742Q377 1779 377 1822Q377 1865
422 1886Q437 1892 456 1892T491 1886T520 1868Q548 1847 556 1816L875 1542H780Z" />
<glyph unicode="&#xc9;" glyph-name="Eacute" horiz-adv-x="1253" d="M84 0V59Q108 74 138 82T182 97T204 119Q224 150 224 233V1186Q224 1270 210 1293T183 1322T154 1334Q104 1348 84 1362V1421H473V0H84ZM556 82L575 81Q800 81 894 128Q993 178 1034 326Q1043
357 1049 382T1064 429Q1079 473 1106 500H1171V0H556V82ZM926 1421Q988 1421 1126 1436V946H1056Q1021 991 1002 1047T963 1156T923 1241T873 1295Q813 1339 711 1339T556 1324V1421H926ZM556 846H848V658H556V846ZM377 1542L664 1816Q696 1846 727 1869T786 1892T829
1886T855 1868Q876 1846 876 1821Q876 1780 812 1742L472 1542H377Z" />
<glyph unicode="&#xca;" glyph-name="Ecircumflex" horiz-adv-x="1253" d="M84 0V59Q108 74 138 82T182 97T204 119Q224 150 224 233V1186Q224 1270 210 1293T183 1322T154 1334Q104 1348 84 1362V1421H473V0H84ZM556 82L575 81Q800 81 894 128Q993 178 1034 326Q1043
357 1049 382T1064 429Q1079 473 1106 500H1171V0H556V82ZM926 1421Q988 1421 1126 1436V946H1056Q1021 991 1002 1047T963 1156T923 1241T873 1295Q813 1339 711 1339T556 1324V1421H926ZM556 846H848V658H556V846ZM700 1886L966 1542H879L626 1769L372 1542H287L550
1886H700Z" />
<glyph unicode="&#xcb;" glyph-name="Edieresis" horiz-adv-x="1253" d="M84 0V59Q108 74 138 82T182 97T204 119Q224 150 224 233V1186Q224 1270 210 1293T183 1322T154 1334Q104 1348 84 1362V1421H473V0H84ZM556 82L575 81Q800 81 894 128Q993 178 1034 326Q1043
357 1049 382T1064 429Q1079 473 1106 500H1171V0H556V82ZM926 1421Q988 1421 1126 1436V946H1056Q1021 991 1002 1047T963 1156T923 1241T873 1295Q813 1339 711 1339T556 1324V1421H926ZM556 846H848V658H556V846ZM298 1724T332 1752T403 1781T463 1774T501 1752Q536
1723 536 1690T527 1637T501 1604Q467 1576 417 1576T332 1604T298 1678ZM718 1724T752 1752T836 1781T921 1753T955 1678T921 1604T837 1576T752 1604T718 1678Z" />
<glyph unicode="&#xcc;" glyph-name="Igrave" horiz-adv-x="725" d="M630 1421V1362Q601 1350 575 1343T530 1325Q487 1301 487 1237V184Q487 120 530 96Q550 85 576 78T632 59V0H93V59Q122 71 148 78T194 96Q238 120 238 184V1237Q238 1301 194 1325Q174 1336
148 1343T93 1362V1421H630ZM516 1542L177 1742Q113 1779 113 1822Q113 1865 158 1886Q173 1892 200 1892Q243 1892 324 1816L611 1542H516Z" />
<glyph unicode="&#xcd;" glyph-name="Iacute" horiz-adv-x="725" d="M630 1421V1362Q601 1350 575 1343T530 1325Q487 1301 487 1237V184Q487 120 530 96Q550 85 576 78T632 59V0H93V59Q122 71 148 78T194 96Q238 120 238 184V1237Q238 1301 194 1325Q174 1336
148 1343T93 1362V1421H630ZM113 1542L400 1816Q432 1846 463 1869T522 1892T565 1886T591 1868Q612 1846 612 1821Q612 1780 548 1742L208 1542H113Z" />
<glyph unicode="&#xce;" glyph-name="Icircumflex" horiz-adv-x="725" d="M630 1421V1362Q601 1350 575 1343T530 1325Q487 1301 487 1237V184Q487 120 530 96Q550 85 576 78T632 59V0H93V59Q122 71 148 78T194 96Q238 120 238 184V1237Q238 1301 194 1325Q174
1336 148 1343T93 1362V1421H630ZM436 1886L702 1542H615L362 1769L108 1542H23L286 1886H436Z" />
<glyph unicode="&#xcf;" glyph-name="Idieresis" horiz-adv-x="725" d="M630 1421V1362Q601 1350 575 1343T530 1325Q487 1301 487 1237V184Q487 120 530 96Q550 85 576 78T632 59V0H93V59Q122 71 148 78T194 96Q238 120 238 184V1237Q238 1301 194 1325Q174 1336
148 1343T93 1362V1421H630ZM34 1724T68 1752T139 1781T199 1774T237 1752Q272 1723 272 1690T263 1637T237 1604Q203 1576 153 1576T68 1604T34 1678ZM454 1724T488 1752T572 1781T657 1753T691 1678T657 1604T573 1576T488 1604T454 1678Z" />
<glyph unicode="&#xd0;" glyph-name="Eth" horiz-adv-x="1451" d="M71 811H224V1237Q224 1301 182 1325Q162 1336 137 1343T84 1362V1421H489V811H804V715H489V0H84V59Q111 71 136 78T182 96Q224 120 224 184V715H71V811ZM826 1316Q748 1346 674 1346T572 1341V1421H670Q990
1421 1173 1223Q1351 1031 1351 711Q1351 390 1173 198Q990 0 670 0H572V81Q612 76 680 76T826 106T959 210Q1069 360 1069 711Q1069 1221 826 1316Z" />
<glyph unicode="&#xd1;" glyph-name="Ntilde" horiz-adv-x="1429" d="M1101 532V1237Q1101 1291 1051 1320Q1029 1332 1002 1342T947 1364V1423H1365V1364Q1340 1352 1314 1342T1266 1320Q1216 1291 1216 1237V352L1101 532ZM326 1062V186Q326 131 378 104Q401
91 431 81T494 59V0H54V59Q82 71 110 81T160 104Q211 132 211 186V1212L326 1062ZM330 1186Q223 1312 116 1344Q88 1353 61 1362V1421H451L1216 211V-8H1069L330 1186ZM1070 1812Q1009 1595 844 1595Q786 1595 716 1628T611 1677T544 1693T494 1684T460 1660Q440
1638 424 1591H359Q382 1697 441 1749T583 1802Q640 1802 711 1768T816 1719T879 1703T927 1711T960 1734Q976 1751 1005 1812H1070Z" />
<glyph unicode="&#xd2;" glyph-name="Ograve" horiz-adv-x="1429" d="M671 -30Q415 -12 248 202Q86 410 86 711Q86 1010 248 1218Q415 1432 671 1450V1368Q524 1353 450 1212Q367 1050 367 711Q367 213 546 96Q602 60 671 53V-30ZM754 53Q978 76 1036 410Q1058
533 1058 711Q1058 1207 879 1324Q823 1360 754 1368V1451Q1012 1433 1178 1220Q1341 1011 1341 711T1178 202Q1012 -11 754 -29V53ZM868 1542L529 1742Q465 1779 465 1822Q465 1865 510 1886Q525 1892 552 1892Q595 1892 676 1816L963 1542H868Z" />
<glyph unicode="&#xd3;" glyph-name="Oacute" horiz-adv-x="1429" d="M671 -30Q415 -12 248 202Q86 410 86 711Q86 1010 248 1218Q415 1432 671 1450V1368Q524 1353 450 1212Q367 1050 367 711Q367 213 546 96Q602 60 671 53V-30ZM754 53Q978 76 1036 410Q1058
533 1058 711Q1058 1207 879 1324Q823 1360 754 1368V1451Q1012 1433 1178 1220Q1341 1011 1341 711T1178 202Q1012 -11 754 -29V53ZM465 1542L752 1816Q784 1846 815 1869T874 1892T917 1886T943 1868Q964 1846 964 1821Q964 1780 900 1742L560 1542H465Z" />
<glyph unicode="&#xd4;" glyph-name="Ocircumflex" horiz-adv-x="1429" d="M671 -30Q415 -12 248 202Q86 410 86 711Q86 1010 248 1218Q415 1432 671 1450V1368Q524 1353 450 1212Q367 1050 367 711Q367 213 546 96Q602 60 671 53V-30ZM754 53Q978 76 1036 410Q1058
533 1058 711Q1058 1207 879 1324Q823 1360 754 1368V1451Q1012 1433 1178 1220Q1341 1011 1341 711T1178 202Q1012 -11 754 -29V53ZM788 1886L1054 1542H967L714 1769L460 1542H375L638 1886H788Z" />
<glyph unicode="&#xd5;" glyph-name="Otilde" horiz-adv-x="1429" d="M671 -30Q415 -12 248 202Q86 410 86 711Q86 1010 248 1218Q415 1432 671 1450V1368Q524 1353 450 1212Q367 1050 367 711Q367 213 546 96Q602 60 671 53V-30ZM754 53Q978 76 1036 410Q1058
533 1058 711Q1058 1207 879 1324Q823 1360 754 1368V1451Q1012 1433 1178 1220Q1341 1011 1341 711T1178 202Q1012 -11 754 -29V53ZM1070 1812Q1009 1595 844 1595Q786 1595 716 1628T611 1677T544 1693T494 1684T460 1660Q440 1638 424 1591H359Q382 1697 441
1749T583 1802Q640 1802 711 1768T816 1719T879 1703T927 1711T960 1734Q976 1751 1005 1812H1070Z" />
<glyph unicode="&#xd6;" glyph-name="Odieresis" horiz-adv-x="1429" d="M671 -30Q415 -12 248 202Q86 410 86 711Q86 1010 248 1218Q415 1432 671 1450V1368Q524 1353 450 1212Q367 1050 367 711Q367 213 546 96Q602 60 671 53V-30ZM754 53Q978 76 1036 410Q1058
533 1058 711Q1058 1207 879 1324Q823 1360 754 1368V1451Q1012 1433 1178 1220Q1341 1011 1341 711T1178 202Q1012 -11 754 -29V53ZM386 1724T420 1752T491 1781T551 1774T589 1752Q624 1723 624 1690T615 1637T589 1604Q555 1576 505 1576T420 1604T386 1678ZM806
1724T840 1752T924 1781T1009 1753T1043 1678T1009 1604T925 1576T840 1604T806 1678Z" />
<glyph unicode="&#xd7;" glyph-name="multiply" horiz-adv-x="1425" d="M256 981L712 588L1169 981L1280 883L824 489L1280 96L1169 0L712 393L256 0L143 96L598 489L143 883L256 981Z" />
<glyph unicode="&#xd8;" glyph-name="Oslash" horiz-adv-x="1429" d="M455 202Q530 68 671 53V-30Q507 -18 377 75L247 -139H131L301 141Q199 244 143 390T86 697T128 988T248 1218Q415 1432 671 1450V1368Q524 1353 450 1212Q367 1050 367 711Q367 471 409 318L963
1229Q892 1351 754 1368V1451Q909 1439 1038 1352L1156 1546H1273L1116 1289Q1222 1186 1281 1037T1341 725T1299 433T1178 202Q1012 -11 754 -29V53Q978 76 1036 410Q1058 533 1058 688Q1058 964 1011 1117L455 202Z" />
<glyph unicode="&#xd9;" glyph-name="Ugrave" horiz-adv-x="1405" d="M793 52Q1003 61 1068 216Q1090 267 1090 334V1225Q1090 1308 992 1341Q965 1350 938 1362V1421H1358V1362Q1331 1350 1304 1341T1254 1318Q1204 1288 1204 1225V365Q1204 1 793 -28V52ZM710
-31Q336 -31 234 202Q200 279 200 379V1237Q200 1301 161 1325Q143 1336 118 1343T64 1362V1421H587V1362Q557 1350 532 1343T488 1325Q449 1302 449 1237V332Q449 215 520 140Q588 68 710 54V-31ZM856 1542L517 1742Q453 1779 453 1822Q453 1865 498 1886Q513
1892 540 1892Q583 1892 664 1816L951 1542H856Z" />
<glyph unicode="&#xda;" glyph-name="Uacute" horiz-adv-x="1405" d="M793 52Q1003 61 1068 216Q1090 267 1090 334V1225Q1090 1308 992 1341Q965 1350 938 1362V1421H1358V1362Q1331 1350 1304 1341T1254 1318Q1204 1288 1204 1225V365Q1204 1 793 -28V52ZM710
-31Q336 -31 234 202Q200 279 200 379V1237Q200 1301 161 1325Q143 1336 118 1343T64 1362V1421H587V1362Q557 1350 532 1343T488 1325Q449 1302 449 1237V332Q449 215 520 140Q588 68 710 54V-31ZM453 1542L740 1816Q772 1846 803 1869T862 1892T905 1886T931
1868Q952 1846 952 1821Q952 1780 888 1742L548 1542H453Z" />
<glyph unicode="&#xdb;" glyph-name="Ucircumflex" horiz-adv-x="1405" d="M793 52Q1003 61 1068 216Q1090 267 1090 334V1225Q1090 1308 992 1341Q965 1350 938 1362V1421H1358V1362Q1331 1350 1304 1341T1254 1318Q1204 1288 1204 1225V365Q1204 1 793 -28V52ZM710
-31Q336 -31 234 202Q200 279 200 379V1237Q200 1301 161 1325Q143 1336 118 1343T64 1362V1421H587V1362Q557 1350 532 1343T488 1325Q449 1302 449 1237V332Q449 215 520 140Q588 68 710 54V-31ZM776 1886L1042 1542H955L702 1769L448 1542H363L626 1886H776Z"
/>
<glyph unicode="&#xdc;" glyph-name="Udieresis" horiz-adv-x="1405" d="M793 52Q1003 61 1068 216Q1090 267 1090 334V1225Q1090 1308 992 1341Q965 1350 938 1362V1421H1358V1362Q1331 1350 1304 1341T1254 1318Q1204 1288 1204 1225V365Q1204 1 793 -28V52ZM710
-31Q336 -31 234 202Q200 279 200 379V1237Q200 1301 161 1325Q143 1336 118 1343T64 1362V1421H587V1362Q557 1350 532 1343T488 1325Q449 1302 449 1237V332Q449 215 520 140Q588 68 710 54V-31ZM374 1724T408 1752T479 1781T539 1774T577 1752Q612 1723 612
1690T603 1637T577 1604Q543 1576 493 1576T408 1604T374 1678ZM794 1724T828 1752T912 1781T997 1753T1031 1678T997 1604T913 1576T828 1604T794 1678Z" />
<glyph unicode="&#xdd;" glyph-name="Yacute" horiz-adv-x="1187" d="M709 792Q903 1170 917 1206Q934 1251 934 1273T921 1309T889 1330T845 1343T800 1358V1421H1230V1358Q1214 1346 1174 1334T1116 1312T1070 1262T1003 1149T924 999T847 842T769 685L709 792ZM727
603L717 588V231Q717 118 771 96Q787 90 805 86Q860 72 879 59V0H306V59Q328 73 363 81T415 95T442 118Q467 151 467 236V592L120 1257Q91 1313 8 1341Q-12 1348 -31 1358V1421H528V1358Q504 1348 480 1343T436 1332Q392 1317 392 1282Q392 1256 423 1196T484 1076T560
928T670 715L727 603ZM344 1542L631 1816Q663 1846 694 1869T753 1892T796 1886T822 1868Q843 1846 843 1828T838 1798T820 1778Q794 1760 727 1742L439 1542H344Z" />
<glyph unicode="&#xde;" glyph-name="Thorn" horiz-adv-x="1230" d="M481 219Q481 169 516 119Q533 96 566 88Q634 72 649 59V0H91V59Q118 71 143 78T188 96Q231 120 231 184V1194Q231 1253 227 1277T208 1313T174 1332T132 1344T91 1362V1421H621V1362Q597 1346
567 1338T523 1324T500 1304Q481 1277 481 1200V219ZM644 1038Q600 1038 564 1032V1113H662Q1066 1113 1168 894Q1200 825 1200 742T1168 590T1071 470Q931 360 680 360H564V436H574Q749 436 830 501Q918 572 918 741Q918 1038 644 1038Z" />
<glyph unicode="&#xdf;" glyph-name="germandbls" horiz-adv-x="1352" d="M815 -26Q610 -17 546 130Q526 177 526 222T545 284T589 300Q649 300 664 233Q702 64 815 43V-26ZM423 127Q423 103 448 95T473 74V0H69V53Q91 65 115 72T161 90Q209 114 209 160V1022Q209
1295 424 1400L423 127ZM507 1431Q582 1452 670 1452T837 1430T974 1366Q1101 1277 1101 1133Q1101 955 905 844Q819 794 709 765Q725 739 770 716T875 665T998 605T1116 527Q1239 423 1239 283Q1239 164 1148 77Q1054 -14 899 -26V42Q975 53 1015 106Q1049 150
1049 207T1028 303T971 373T890 429T799 477T707 523T626 574Q548 635 548 713Q548 809 650 852Q738 889 767 907T818 954Q869 1018 869 1133Q869 1320 739 1366Q698 1380 628 1380T507 1341V1431Z" />
<glyph unicode="&#xe0;" glyph-name="agrave" horiz-adv-x="1054" d="M572 510Q304 413 304 227Q304 152 340 107T447 61T572 114V19Q495 -27 398 -27T243 -8T144 44Q61 111 61 221Q61 448 464 564Q521 581 572 594V510ZM335 868Q390 847 390 772Q390 724 356
695T265 666T174 697T140 777T163 865T228 934Q315 997 447 1007V931Q366 923 335 868ZM930 99Q985 99 1000 199L1051 172Q1041 75 998 24T859 -27Q785 -27 749 0Q691 44 655 133V756Q655 818 623 863T530 925V1007Q869 989 869 649V176Q869 99 930 99ZM681 1096L342
1296Q278 1333 278 1376Q278 1419 324 1440Q338 1446 366 1446Q408 1446 489 1370L776 1096H681Z" />
<glyph unicode="&#xe1;" glyph-name="aacute" horiz-adv-x="1054" d="M572 510Q304 413 304 227Q304 152 340 107T447 61T572 114V19Q495 -27 398 -27T243 -8T144 44Q61 111 61 221Q61 448 464 564Q521 581 572 594V510ZM335 868Q390 847 390 772Q390 724 356
695T265 666T174 697T140 777T163 865T228 934Q315 997 447 1007V931Q366 923 335 868ZM930 99Q985 99 1000 199L1051 172Q1041 75 998 24T859 -27Q785 -27 749 0Q691 44 655 133V756Q655 818 623 863T530 925V1007Q869 989 869 649V176Q869 99 930 99ZM277 1096L564
1370Q596 1400 627 1423T686 1446T729 1440T755 1422Q776 1400 776 1375Q776 1334 712 1296L372 1096H277Z" />
<glyph unicode="&#xe2;" glyph-name="acircumflex" horiz-adv-x="1054" d="M572 510Q304 413 304 227Q304 152 340 107T447 61T572 114V19Q495 -27 398 -27T243 -8T144 44Q61 111 61 221Q61 448 464 564Q521 581 572 594V510ZM335 868Q390 847 390 772Q390 724
356 695T265 666T174 697T140 777T163 865T228 934Q315 997 447 1007V931Q366 923 335 868ZM930 99Q985 99 1000 199L1051 172Q1041 75 998 24T859 -27Q785 -27 749 0Q691 44 655 133V756Q655 818 623 863T530 925V1007Q869 989 869 649V176Q869 99 930 99ZM600
1440L866 1096H779L526 1323L272 1096H187L450 1440H600Z" />
<glyph unicode="&#xe3;" glyph-name="atilde" horiz-adv-x="1054" d="M572 510Q304 413 304 227Q304 152 340 107T447 61T572 114V19Q495 -27 398 -27T243 -8T144 44Q61 111 61 221Q61 448 464 564Q521 581 572 594V510ZM335 868Q390 847 390 772Q390 724 356
695T265 666T174 697T140 777T163 865T228 934Q315 997 447 1007V931Q366 923 335 868ZM930 99Q985 99 1000 199L1051 172Q1041 75 998 24T859 -27Q785 -27 749 0Q691 44 655 133V756Q655 818 623 863T530 925V1007Q869 989 869 649V176Q869 99 930 99ZM882 1366Q821
1149 656 1149Q598 1149 528 1182T423 1231T356 1247T306 1238T272 1214Q252 1192 236 1145H171Q194 1251 253 1303T395 1356Q452 1356 523 1322T628 1273T691 1257T739 1265T772 1288Q788 1305 817 1366H882Z" />
<glyph unicode="&#xe4;" glyph-name="adieresis" horiz-adv-x="1054" d="M572 510Q304 413 304 227Q304 152 340 107T447 61T572 114V19Q495 -27 398 -27T243 -8T144 44Q61 111 61 221Q61 448 464 564Q521 581 572 594V510ZM335 868Q390 847 390 772Q390 724 356
695T265 666T174 697T140 777T163 865T228 934Q315 997 447 1007V931Q366 923 335 868ZM930 99Q985 99 1000 199L1051 172Q1041 75 998 24T859 -27Q785 -27 749 0Q691 44 655 133V756Q655 818 623 863T530 925V1007Q869 989 869 649V176Q869 99 930 99ZM198 1278T232
1306T303 1335T363 1328T401 1306Q436 1277 436 1244T427 1191T401 1158Q367 1130 317 1130T232 1158T198 1232ZM618 1278T652 1306T736 1335T821 1307T855 1232T821 1158T737 1130T652 1158T618 1232Z" />
<glyph unicode="&#xe5;" glyph-name="aring" horiz-adv-x="1054" d="M572 510Q304 413 304 227Q304 152 340 107T447 61T572 114V19Q495 -27 398 -27T243 -8T144 44Q61 111 61 221Q61 448 464 564Q521 581 572 594V510ZM335 868Q390 847 390 772Q390 724 356 695T265
666T174 697T140 777T163 865T228 934Q315 997 447 1007V931Q366 923 335 868ZM930 99Q985 99 1000 199L1051 172Q1041 75 998 24T859 -27Q785 -27 749 0Q691 44 655 133V756Q655 818 623 863T530 925V1007Q869 989 869 649V176Q869 99 930 99ZM286 1317Q286 1404
356 1465Q425 1524 527 1524Q628 1524 696 1465Q767 1404 767 1317Q767 1229 696 1168Q627 1108 527 1108Q426 1108 356 1168Q286 1229 286 1317ZM373 1316Q373 1288 385 1264T418 1220Q461 1180 527 1180Q629 1180 668 1264Q680 1288 680 1316T669 1370T636 1413Q592
1452 527 1452Q462 1452 418 1413T373 1316Z" />
<glyph unicode="&#xe6;" glyph-name="ae" horiz-adv-x="1604" d="M1114 -27Q890 -17 784 172Q730 113 670 71V745Q670 857 598 907Q573 925 536 932V1007Q703 998 806 891Q905 992 1055 1006V921Q902 880 902 553Q902 107 1114 65V-27ZM451 61Q533 61 587 121V17Q503
-27 411 -27T260 -8T160 46Q79 116 79 227Q79 492 587 592V509Q387 457 328 322Q310 279 310 233Q310 61 451 61ZM1287 596Q1287 891 1138 922V1007Q1329 994 1433 849Q1527 718 1527 508H985V596H1287ZM276 674Q156 674 156 788Q156 875 240 937Q322 997 453 1007V934Q369
925 340 872Q396 855 396 780Q396 732 363 703T276 674ZM1197 63Q1351 79 1417 229Q1436 272 1450 317L1536 285Q1457 4 1197 -24V63Z" />
<glyph unicode="&#xe7;" glyph-name="ccedilla" horiz-adv-x="967" d="M727 846Q699 915 602 925V1006Q735 999 814 918Q883 849 883 759Q883 667 812 634Q788 623 747 623T674 653T641 724T650 783T672 814T700 833T727 846ZM602 64Q724 82 782 218Q799 256 812
295L895 270Q839 77 712 12Q665 -13 602 -22V64ZM310 492Q310 100 519 64V-27Q330 -23 204 108Q71 249 71 481Q71 686 195 837Q323 993 519 1007V919Q369 884 325 665Q310 590 310 492ZM450 -203Q406 -203 378 -217L342 -205L446 0H525L457 -137Q536 -114 616 -137Q685
-157 714 -210Q729 -237 729 -272T710 -340T655 -395Q578 -444 450 -444Q333 -444 237 -410L273 -348Q337 -375 414 -375T527 -350T563 -287Q563 -203 450 -203Z" />
<glyph unicode="&#xe8;" glyph-name="egrave" horiz-adv-x="1050" d="M720 596Q720 884 576 920V1006Q763 989 864 849Q959 718 959 508H393V596H720ZM580 61Q754 69 827 225Q848 270 863 317L949 285Q893 76 720 4Q659 -21 580 -26V61ZM309 553Q309 123 497 69V-23Q301
-1 186 140Q71 279 71 489Q71 710 186 852Q302 995 493 1007V924Q309 902 309 553ZM679 1096L340 1296Q276 1333 276 1376Q276 1419 322 1440Q336 1446 364 1446Q406 1446 487 1370L774 1096H679Z" />
<glyph unicode="&#xe9;" glyph-name="eacute" horiz-adv-x="1050" d="M720 596Q720 884 576 920V1006Q763 989 864 849Q959 718 959 508H393V596H720ZM580 61Q754 69 827 225Q848 270 863 317L949 285Q893 76 720 4Q659 -21 580 -26V61ZM309 553Q309 123 497 69V-23Q301
-1 186 140Q71 279 71 489Q71 710 186 852Q302 995 493 1007V924Q309 902 309 553ZM275 1096L562 1370Q594 1400 625 1423T684 1446T727 1440T753 1422Q774 1400 774 1375Q774 1334 710 1296L370 1096H275Z" />
<glyph unicode="&#xea;" glyph-name="ecircumflex" horiz-adv-x="1050" d="M720 596Q720 884 576 920V1006Q763 989 864 849Q959 718 959 508H393V596H720ZM580 61Q754 69 827 225Q848 270 863 317L949 285Q893 76 720 4Q659 -21 580 -26V61ZM309 553Q309 123
497 69V-23Q301 -1 186 140Q71 279 71 489Q71 710 186 852Q302 995 493 1007V924Q309 902 309 553ZM598 1440L864 1096H777L524 1323L270 1096H185L448 1440H598Z" />
<glyph unicode="&#xeb;" glyph-name="edieresis" horiz-adv-x="1050" d="M720 596Q720 884 576 920V1006Q763 989 864 849Q959 718 959 508H393V596H720ZM580 61Q754 69 827 225Q848 270 863 317L949 285Q893 76 720 4Q659 -21 580 -26V61ZM309 553Q309 123 497
69V-23Q301 -1 186 140Q71 279 71 489Q71 710 186 852Q302 995 493 1007V924Q309 902 309 553ZM196 1278T230 1306T301 1335T361 1328T399 1306Q434 1277 434 1244T425 1191T399 1158Q365 1130 315 1130T230 1158T196 1232ZM616 1278T650 1306T734 1335T819 1307T853
1232T819 1158T735 1130T650 1158T616 1232Z" />
<glyph unicode="&#xec;" glyph-name="igrave" horiz-adv-x="636" d="M437 993V158Q437 111 478 90Q497 80 519 73T562 53V0H97V53Q118 65 140 72T182 90Q224 111 224 158V827Q224 880 184 900Q166 909 143 914T97 932V993H437ZM472 1096L133 1296Q69 1333 69 1376Q69
1419 114 1440Q129 1446 156 1446Q199 1446 280 1370L567 1096H472Z" />
<glyph unicode="&#xed;" glyph-name="iacute" horiz-adv-x="636" d="M437 993V158Q437 111 478 90Q497 80 519 73T562 53V0H97V53Q118 65 140 72T182 90Q224 111 224 158V827Q224 880 184 900Q166 909 143 914T97 932V993H437ZM69 1096L356 1370Q388 1400 419
1423T478 1446T521 1440T547 1422Q568 1400 568 1375Q568 1334 504 1296L164 1096H69Z" />
<glyph unicode="&#xee;" glyph-name="icircumflex" horiz-adv-x="636" d="M437 993V158Q437 111 478 90Q497 80 519 73T562 53V0H97V53Q118 65 140 72T182 90Q224 111 224 158V827Q224 880 184 900Q166 909 143 914T97 932V993H437ZM392 1440L658 1096H571L318
1323L64 1096H-21L242 1440H392Z" />
<glyph unicode="&#xef;" glyph-name="idieresis" horiz-adv-x="636" d="M437 993V158Q437 111 478 90Q497 80 519 73T562 53V0H97V53Q118 65 140 72T182 90Q224 111 224 158V827Q224 880 184 900Q166 909 143 914T97 932V993H437ZM-10 1278T24 1306T95 1335T155
1328T193 1306Q228 1277 228 1244T219 1191T193 1158Q159 1130 109 1130T24 1158T-10 1232ZM410 1278T444 1306T528 1335T613 1307T647 1232T613 1158T529 1130T444 1158T410 1232Z" />
<glyph unicode="&#xf0;" glyph-name="eth" horiz-adv-x="1053" d="M478 896Q310 856 310 476T478 55V-25Q302 -7 192 128Q79 267 79 475Q79 682 192 820Q304 956 478 974V896ZM561 51Q743 78 743 472T561 898V975Q633 968 686 942Q644 1096 546 1208L306 1073L256
1141L482 1270Q428 1320 376 1344T308 1380T285 1405L313 1462Q468 1420 591 1329L827 1462L876 1395L659 1272Q891 1067 956 732Q976 625 976 506T944 289T856 123Q745 -13 561 -26V51Z" />
<glyph unicode="&#xf1;" glyph-name="ntilde" horiz-adv-x="1188" d="M646 901Q563 901 494 836V945Q582 1008 701 1008Q839 1008 924 936Q1011 861 1011 725V199Q1011 104 1050 88Q1062 83 1076 80Q1114 70 1135 53V0H748V68Q748 87 765 103T790 130T798 164V735Q798
901 646 901ZM411 203Q411 109 451 90Q463 85 477 80Q518 67 537 53V0H71V53Q89 67 116 76T156 90T178 108Q197 134 197 201V778Q197 877 158 893Q146 898 132 902Q88 912 69 926V987H411V203ZM949 1366Q888 1149 723 1149Q665 1149 595 1182T490 1231T423 1247T373
1238T340 1214Q319 1192 303 1145H238Q261 1251 320 1303T462 1356Q519 1356 590 1322T695 1273T758 1257T806 1265T839 1288Q855 1305 884 1366H949Z" />
<glyph unicode="&#xf2;" glyph-name="ograve" horiz-adv-x="1053" d="M483 -25Q312 -8 202 120Q79 263 79 489Q79 717 202 860Q313 989 483 1006V928Q395 911 354 813Q310 705 310 489Q310 172 408 88Q441 61 483 53V-25ZM566 52Q743 82 743 489Q743 812 639 896Q606
922 566 929V1007Q736 994 850 864Q976 719 976 489Q976 260 852 117Q738 -13 566 -26V52ZM680 1096L341 1296Q277 1333 277 1376Q277 1419 322 1440Q337 1446 364 1446Q407 1446 488 1370L775 1096H680Z" />
<glyph unicode="&#xf3;" glyph-name="oacute" horiz-adv-x="1053" d="M483 -25Q312 -8 202 120Q79 263 79 489Q79 717 202 860Q313 989 483 1006V928Q395 911 354 813Q310 705 310 489Q310 172 408 88Q441 61 483 53V-25ZM566 52Q743 82 743 489Q743 812 639 896Q606
922 566 929V1007Q736 994 850 864Q976 719 976 489Q976 260 852 117Q738 -13 566 -26V52ZM277 1096L564 1370Q596 1400 627 1423T686 1446T729 1440T755 1422Q776 1400 776 1375Q776 1334 712 1296L372 1096H277Z" />
<glyph unicode="&#xf4;" glyph-name="ocircumflex" horiz-adv-x="1053" d="M483 -25Q312 -8 202 120Q79 263 79 489Q79 717 202 860Q313 989 483 1006V928Q395 911 354 813Q310 705 310 489Q310 172 408 88Q441 61 483 53V-25ZM566 52Q743 82 743 489Q743 812
639 896Q606 922 566 929V1007Q736 994 850 864Q976 719 976 489Q976 260 852 117Q738 -13 566 -26V52ZM600 1440L866 1096H779L526 1323L272 1096H187L450 1440H600Z" />
<glyph unicode="&#xf5;" glyph-name="otilde" horiz-adv-x="1053" d="M483 -25Q312 -8 202 120Q79 263 79 489Q79 717 202 860Q313 989 483 1006V928Q395 911 354 813Q310 705 310 489Q310 172 408 88Q441 61 483 53V-25ZM566 52Q743 82 743 489Q743 812 639 896Q606
922 566 929V1007Q736 994 850 864Q976 719 976 489Q976 260 852 117Q738 -13 566 -26V52ZM882 1366Q821 1149 656 1149Q598 1149 528 1182T423 1231T356 1247T306 1238T272 1214Q252 1192 236 1145H171Q194 1251 253 1303T395 1356Q452 1356 523 1322T628 1273T691
1257T739 1265T772 1288Q788 1305 817 1366H882Z" />
<glyph unicode="&#xf6;" glyph-name="odieresis" horiz-adv-x="1053" d="M483 -25Q312 -8 202 120Q79 263 79 489Q79 717 202 860Q313 989 483 1006V928Q395 911 354 813Q310 705 310 489Q310 172 408 88Q441 61 483 53V-25ZM566 52Q743 82 743 489Q743 812 639
896Q606 922 566 929V1007Q736 994 850 864Q976 719 976 489Q976 260 852 117Q738 -13 566 -26V52ZM198 1278T232 1306T303 1335T363 1328T401 1306Q436 1277 436 1244T427 1191T401 1158Q367 1130 317 1130T232 1158T198 1232ZM618 1278T652 1306T736 1335T821
1307T855 1232T821 1158T737 1130T652 1158T618 1232Z" />
<glyph unicode="&#xf7;" glyph-name="divide" horiz-adv-x="1425" d="M143 422V559H1280V422H143ZM626 1000T653 1010T711 1020T770 1010T816 982Q859 944 859 905T848 842T816 801Q774 764 727 764T653 774T606 801Q563 838 563 878T574 941T606 982ZM625 197T652
207T710 217T769 207T816 180Q859 142 859 102T848 39T816 -2Q772 -39 726 -39T652 -29T606 -2Q563 35 563 75T574 138T605 179Z" />
<glyph unicode="&#xf8;" glyph-name="oslash" horiz-adv-x="1053" d="M367 141Q407 67 483 53V-25Q383 -15 305 33L195 -158H97L236 84Q79 228 79 489Q79 717 202 860Q313 989 483 1006V928Q395 911 354 813Q310 705 310 489Q310 334 330 247L677 852Q637 916
566 929V1007Q655 999 736 955L833 1124H933L807 905Q976 759 976 489Q976 260 852 117Q738 -13 566 -26V52Q743 82 743 489Q743 652 717 750L367 141Z" />
<glyph unicode="&#xf9;" glyph-name="ugrave" horiz-adv-x="1164" d="M539 80Q621 80 687 144V29Q597 -27 465 -27Q247 -27 194 126Q176 179 176 254V821Q176 873 137 894Q120 903 99 908T59 926V987H390V236Q390 80 539 80ZM770 821Q770 874 730 894Q712 903
690 908T646 926V987H983V164Q983 112 1024 92Q1042 83 1063 77T1103 59V0H784L770 106V821ZM736 1096L397 1296Q333 1333 333 1376Q333 1419 378 1440Q393 1446 420 1446Q463 1446 544 1370L831 1096H736Z" />
<glyph unicode="&#xfa;" glyph-name="uacute" horiz-adv-x="1164" d="M539 80Q621 80 687 144V29Q597 -27 465 -27Q247 -27 194 126Q176 179 176 254V821Q176 873 137 894Q120 903 99 908T59 926V987H390V236Q390 80 539 80ZM770 821Q770 874 730 894Q712 903
690 908T646 926V987H983V164Q983 112 1024 92Q1042 83 1063 77T1103 59V0H784L770 106V821ZM332 1096L619 1370Q651 1400 682 1423T741 1446T784 1440T810 1422Q831 1400 831 1375Q831 1334 767 1296L427 1096H332Z" />
<glyph unicode="&#xfb;" glyph-name="ucircumflex" horiz-adv-x="1164" d="M539 80Q621 80 687 144V29Q597 -27 465 -27Q247 -27 194 126Q176 179 176 254V821Q176 873 137 894Q120 903 99 908T59 926V987H390V236Q390 80 539 80ZM770 821Q770 874 730 894Q712
903 690 908T646 926V987H983V164Q983 112 1024 92Q1042 83 1063 77T1103 59V0H784L770 106V821ZM655 1440L921 1096H834L581 1323L327 1096H242L505 1440H655Z" />
<glyph unicode="&#xfc;" glyph-name="udieresis" horiz-adv-x="1164" d="M539 80Q621 80 687 144V29Q597 -27 465 -27Q247 -27 194 126Q176 179 176 254V821Q176 873 137 894Q120 903 99 908T59 926V987H390V236Q390 80 539 80ZM770 821Q770 874 730 894Q712 903
690 908T646 926V987H983V164Q983 112 1024 92Q1042 83 1063 77T1103 59V0H784L770 106V821ZM253 1278T287 1306T358 1335T418 1328T456 1306Q491 1277 491 1244T482 1191T456 1158Q422 1130 372 1130T287 1158T253 1232ZM673 1278T707 1306T791 1335T876 1307T910
1232T876 1158T792 1130T707 1158T673 1232Z" />
<glyph unicode="&#xfd;" glyph-name="yacute" horiz-adv-x="924" d="M561 365Q594 459 622 537T673 677Q720 807 720 839T709 881T682 896T645 906T607 920V981H961V920Q945 910 929 905T897 894Q861 878 847 840L618 235L561 365ZM189 -153T197 -170T205 -217T170
-283Q185 -303 209 -303Q269 -303 323 -226T420 -6L77 850Q60 894 -8 910Q-24 914 -38 920V981H420V922Q399 914 378 909T340 896Q301 882 301 858Q301 844 342 737L343 736Q403 585 461 436T580 136L463 -168Q366 -412 174 -412Q44 -412 0 -310Q-14 -277 -14 -227T19
-145T89 -113T143 -120T175 -140ZM213 1095L500 1369Q532 1399 563 1422T622 1445T665 1439T691 1422Q712 1399 712 1374Q712 1333 648 1295L308 1095H213Z" />
<glyph unicode="&#xfe;" glyph-name="thorn" horiz-adv-x="1097" d="M370 -233Q370 -280 414 -302Q433 -311 457 -318T508 -338V-391H32V-338Q53 -326 75 -319T116 -302Q157 -280 157 -233V1260Q157 1321 73 1347Q50 1354 29 1366V1427H370V-233ZM578 909Q504
909 453 832V945Q541 1008 624 1008T781 968T908 856Q1019 707 1019 489Q1019 249 902 110Q786 -27 596 -27Q519 -27 453 3V94Q494 59 563 59Q663 59 721 163T779 483Q779 815 656 888Q619 909 578 909Z" />
<glyph unicode="&#xff;" glyph-name="ydieresis" horiz-adv-x="924" d="M561 365Q594 459 622 537T673 677Q720 807 720 839T709 881T682 896T645 906T607 920V981H961V920Q945 910 929 905T897 894Q861 878 847 840L618 235L561 365ZM189 -153T197 -170T205 -217T170
-283Q185 -303 209 -303Q269 -303 323 -226T420 -6L77 850Q60 894 -8 910Q-24 914 -38 920V981H420V922Q399 914 378 909T340 896Q301 882 301 858Q301 844 342 737L343 736Q403 585 461 436T580 136L463 -168Q366 -412 174 -412Q44 -412 0 -310Q-14 -277 -14 -227T19
-145T89 -113T143 -120T175 -140ZM134 1277T168 1305T239 1334T299 1327T337 1306Q372 1276 372 1243T363 1190T337 1158Q303 1129 253 1129T168 1157T134 1231ZM554 1277T588 1305T672 1334T757 1306T791 1231T757 1157T673 1129T588 1157T554 1231Z" />
<glyph unicode="&#x2013;" glyph-name="endash" horiz-adv-x="1187" d="M1187 549V432H0V549H1187Z" />
<glyph unicode="&#x2014;" glyph-name="emdash" horiz-adv-x="2374" d="M2374 549V432H0V549H2374Z" />
<glyph unicode="&#x2018;" glyph-name="quoteleft" horiz-adv-x="506" d="M200 1155Q378 1155 378 1018Q378 931 304 900Q280 889 247 889Q177 889 133 939T88 1065T100 1193T136 1296Q180 1394 261 1475L328 1421Q245 1347 212 1229Q201 1192 200 1155Z" />
<glyph unicode="&#x2019;" glyph-name="quoteright" horiz-adv-x="506" d="M178 920Q232 969 267 1039T306 1186Q300 1185 294 1185T269 1185T222 1193T174 1219Q129 1256 129 1323Q129 1410 202 1442Q226 1452 259 1452Q328 1452 372 1401T417 1275T405 1148T369
1046Q324 948 244 866L178 920Z" />
<glyph unicode="&#x201a;" glyph-name="quotesinglbase" horiz-adv-x="506" d="M185 -299Q305 -188 313 -33Q307 -34 301 -34T276 -34T229 -26T180 0Q136 38 136 104Q136 191 208 222Q233 233 266 233Q335 233 380 183T425 57T412 -70T376 -173Q329 -275 252 -352L185
-299Z" />
<glyph unicode="&#x201c;" glyph-name="quotedblleft" horiz-adv-x="879" d="M596 1155Q774 1155 774 1018Q774 931 700 900Q676 889 643 889Q573 889 529 939T484 1065T496 1193T532 1296Q576 1394 657 1475L724 1421Q641 1347 608 1229Q597 1192 596 1155ZM178
1155Q356 1155 356 1018Q356 931 283 900Q259 889 226 889Q156 889 111 939T66 1065T78 1193T114 1296Q160 1395 240 1475L306 1421Q252 1372 217 1301T178 1155Z" />
<glyph unicode="&#x201d;" glyph-name="quotedblright" horiz-adv-x="879" d="M154 920Q208 969 243 1039T283 1186Q276 1185 270 1185T245 1185T198 1194T149 1220Q104 1256 104 1323Q104 1410 178 1442Q202 1452 235 1452Q305 1452 349 1401T394 1275T382 1148T346
1046Q301 945 220 866L154 920ZM573 920Q656 994 688 1111Q698 1148 700 1186Q694 1185 688 1185T663 1185T616 1194T568 1220Q523 1257 523 1323Q523 1410 596 1442Q620 1452 653 1452Q722 1452 767 1401T812 1275T800 1148T764 1046Q720 946 639 866L573 920Z"
/>
<glyph unicode="&#x201e;" glyph-name="quotedblbase" horiz-adv-x="879" d="M154 -299Q208 -249 243 -179T283 -33Q276 -34 270 -34T245 -34T198 -25T149 2Q104 39 104 104Q104 191 178 222Q202 233 235 233Q305 233 349 183T394 57T382 -70T346 -173Q300 -276
220 -352L154 -299ZM573 -299Q692 -189 700 -33Q694 -34 688 -34T663 -34T616 -25T568 2Q523 39 523 104Q523 191 596 222Q620 233 653 233Q722 233 767 183T812 57T800 -70T764 -173Q719 -274 639 -352L573 -299Z" />
<glyph unicode="&#x2022;" glyph-name="bullet" horiz-adv-x="1187" d="M181 710Q181 784 213 848T302 961Q423 1065 594 1065Q764 1065 884 961Q1004 858 1004 711Q1004 563 885 459T594 354Q423 354 302 458Q181 563 181 710Z" />
<glyph unicode="&#x2039;" glyph-name="guilsinglleft" horiz-adv-x="737" d="M564 1059V944L297 600L564 256V141L142 559V641L564 1059Z" />
<glyph unicode="&#x203a;" glyph-name="guilsinglright" horiz-adv-x="737" d="M174 1059L596 641V559L174 141V256L440 600L174 944V1059Z" />
</font>
</defs>
</svg>
