<?xml version="1.0" standalone="no"?>
<!DOCTYPE svg PUBLIC "-//W3C//DTD SVG 1.1//EN" "http://www.w3.org/Graphics/SVG/1.1/DTD/svg11.dtd">
<svg xmlns="http://www.w3.org/2000/svg">
<defs >
<font id="Domine" horiz-adv-x="483" ><font-face
    font-family="Domine"
    units-per-em="1000"
    panose-1="2 4 5 3 4 4 3 6 2 4"
    ascent="900"
    descent="-240"
    alphabetic="0" />
<glyph unicode=" " glyph-name="space" horiz-adv-x="254" />
<glyph unicode="!" glyph-name="exclam" horiz-adv-x="285" d="M114 205Q114 244 112 288T108 373T102 448T98 500Q95 537 90 572T85 650Q85 685 99 707T144 730Q175 730 187 707T199 651Q199 609 194 573T186 500Q184 482 182 448T177 373T172 288T170 205H114ZM204
52Q204 22 188 6T143 -10Q114 -10 97 6T80 52Q80 81 96 98T142 115Q171 115 187 98T204 52Z" />
<glyph unicode="&quot;" glyph-name="quotedbl" horiz-adv-x="377" d="M81 485Q81 518 77 551T68 613T59 666T55 704Q55 729 65 744T105 760Q133 760 143 745T154 704Q154 690 150 667T141 614T132 551T128 485H81ZM249 485Q249 518 245 551T236 613T227 666T223
704Q223 729 233 744T273 760Q301 760 311 745T322 704Q322 690 318 667T309 614T300 551T296 485H249Z" />
<glyph unicode="#" glyph-name="numbersign" horiz-adv-x="736" d="M440 202H237L195 -10H138L180 202H35V255H190L231 461H84V514H241L284 730H341L298 514H501L544 730H601L558 514H701V461H548L507 255H652V202H497L455 -10H398L440 202ZM247 255H450L491 461H288L247
255Z" />
<glyph unicode="$" glyph-name="dollar" horiz-adv-x="568" d="M263 -10Q211 -6 170 9T100 49T56 102T41 162Q41 194 57 213T105 233Q132 233 147 218T163 179Q163 156 150 140T121 115Q142 86 176 67T263 44V311Q258 313 255 314T247 318Q211 333 176 350T114
392T70 450T53 532Q53 576 68 612T110 674T176 714T263 731V851H310V729Q355 724 391 709T452 671T491 620T505 564Q505 532 489 513T445 493Q420 493 404 508T388 548Q388 568 398 583T424 606Q387 668 310 675V410Q365 385 406 364T475 319T517 266T531 193Q531
99 471 47T310 -10V-130H263V-10ZM423 155Q423 180 415 200T391 237T355 266T310 290V45Q364 52 393 80T423 155ZM154 557Q154 532 160 515T180 483T214 456T263 431V675Q207 670 181 640T154 557Z" />
<glyph unicode="%" glyph-name="percent" horiz-adv-x="679" d="M506 730H560L174 -10H120L506 730ZM36 564Q36 649 73 694Q89 713 109 721T162 729Q194 729 214 721T251 694Q288 649 288 564Q288 520 279 486T251 431Q222 396 162 396Q102 396 73 431Q55 452
46 486T36 564ZM230 563Q230 634 209 670Q199 685 189 691T162 697Q145 697 134 691T115 670Q94 634 94 563Q94 492 115 456Q123 441 134 435T162 429Q179 429 189 435T209 456Q230 492 230 563ZM390 158Q390 243 427 288Q443 307 463 315T516 323Q548 323 568
315T605 288Q642 243 642 158Q642 114 633 80T605 25Q576 -10 516 -10Q456 -10 427 25Q409 46 400 80T390 158ZM584 157Q584 228 563 264Q553 279 543 285T516 291Q499 291 488 285T469 264Q448 228 448 157Q448 86 469 50Q477 35 488 29T516 23Q533 23 543 29T563
50Q584 86 584 157Z" />
<glyph unicode="&amp;" glyph-name="ampersand" horiz-adv-x="767" d="M629 325Q629 264 611 203T561 93Q571 72 595 58T646 44Q670 44 694 56T734 88L760 51Q717 -10 635 -10Q564 -10 505 40Q468 14 426 2T326 -10Q203 -10 135 42T66 188Q66 219 74 245T101 295T148
341T219 386Q164 474 164 553Q164 592 176 624T212 679T267 715T338 728Q373 728 403 718T454 688T488 644T501 587Q501 472 328 384L519 141Q545 179 559 226T573 325L496 344V385H705V344L629 325ZM338 48Q376 48 405 56T460 82L256 343Q214 320 190 280T166
189Q166 120 210 84T338 48ZM249 576Q249 541 260 506T298 430Q370 469 401 504T432 582Q432 624 406 649T334 675Q249 675 249 576Z" />
<glyph unicode="&apos;" glyph-name="quotesingle" horiz-adv-x="209" d="M81 485Q81 518 77 551T68 613T59 666T55 704Q55 729 65 744T105 760Q133 760 143 745T154 704Q154 690 150 667T141 614T132 551T128 485H81Z" />
<glyph unicode="(" glyph-name="parenleft" horiz-adv-x="371" d="M44 353Q44 452 65 538T125 691T218 803T339 865L360 816Q312 805 272 766T204 666T161 525T145 351Q145 256 160 177T202 39T269 -57T355 -104L329 -159Q266 -146 214 -104T124 5T65 160T44 353Z" />
<glyph unicode=")" glyph-name="parenright" horiz-adv-x="371" d="M327 353Q327 249 306 161T247 6T157 -103T42 -159L16 -104Q63 -94 102 -58T168 38T211 177T226 351Q226 444 211 524T167 666T99 766T11 816L32 865Q98 848 152 803T246 691T306 538T327 353Z" />
<glyph unicode="*" glyph-name="asterisk" horiz-adv-x="470" d="M274 743Q274 719 266 686T252 624Q269 633 287 643T321 663T353 679T380 685Q393 685 406 676T419 644Q419 623 404 614T366 602T315 599T262 594Q278 578 296 562T329 531T355 501T365 473Q365
460 353 448T325 436Q308 436 296 449T274 483T255 528T235 574Q224 551 215 527T196 482T175 449T146 435Q131 435 119 446T106 472Q106 484 115 498T140 529T172 561T207 594Q182 598 155 598T104 602T66 613T51 642Q51 665 63 674T89 684Q99 684 114 678T146
663T181 644T216 625Q211 656 203 687T194 743Q194 764 204 777T234 790Q254 790 264 778T274 743Z" />
<glyph unicode="+" glyph-name="plus" horiz-adv-x="488" d="M45 396H210V561H278V396H443V328H278V163H210V328H45V396Z" />
<glyph unicode="," glyph-name="comma" horiz-adv-x="247" d="M121 118Q153 118 171 96T190 35Q190 -19 160 -63T66 -149L44 -124Q87 -89 111 -58T137 -3L133 0Q131 -4 124 -6T108 -9Q85 -9 71 8T56 53Q56 82 74 100T121 118Z" />
<glyph unicode="-" glyph-name="hyphen" horiz-adv-x="389" d="M69 311H320V244H69V311Z" />
<glyph unicode="." glyph-name="period" horiz-adv-x="240" d="M57 53Q57 83 74 100T120 118Q149 118 166 100T184 53Q184 24 167 7T120 -10Q90 -10 74 6T57 53Z" />
<glyph unicode="/" glyph-name="slash" horiz-adv-x="310" d="M200 730H257L111 -10H54L200 730Z" />
<glyph unicode="0" glyph-name="zero" horiz-adv-x="674" d="M57 360Q57 457 78 530T140 652Q176 696 222 713T337 730Q405 730 451 713T534 652Q575 603 596 530T617 360Q617 263 596 190T534 68Q498 24 452 7T337 -10Q269 -10 223 7T140 68Q99 117 78 190T57
360ZM505 360Q505 448 494 511T460 613Q441 645 413 660T337 676Q289 676 261 661T214 613Q191 574 180 511T169 360Q169 272 180 209T214 107Q233 75 261 60T337 44Q385 44 413 59T460 107Q483 146 494 209T505 360Z" />
<glyph unicode="1" glyph-name="one" horiz-adv-x="400" d="M172 633H45V684Q63 684 86 687T132 696T173 710T201 730H269V60L376 41V0H45V41L172 60V633Z" />
<glyph unicode="2" glyph-name="two" horiz-adv-x="589" d="M447 95L471 223H526V0H51V66Q51 118 78 161T145 243T233 318T321 391T389 470T416 562Q416 618 379 647T272 677Q151 677 130 580Q162 580 179 564T196 519Q196 490 179 474T131 458Q64 458 64 541Q64
584 80 619T127 679T199 717T292 731Q343 731 384 718T455 679T501 617T517 537Q517 476 489 429T417 345T325 278T232 220T161 161T132 95H447Z" />
<glyph unicode="3" glyph-name="three" horiz-adv-x="580" d="M511 543Q511 477 473 432T369 376V372Q522 339 522 195Q522 149 505 112T455 47T378 5T278 -10Q228 -10 187 4T116 42T70 101T53 178Q53 263 123 263Q152 263 168 247T185 201Q185 174 167 158T119
141Q137 44 266 44Q340 44 377 79T414 182Q414 259 366 304T232 349V397Q272 397 305 408T361 441T398 491T411 557Q411 615 377 646T277 677Q149 677 133 590Q164 590 181 575T199 530Q199 501 182 485T135 468Q100 468 81 491T61 557Q61 596 77 628T124 683T196
718T288 731Q337 731 378 718T449 679T494 620T511 543Z" />
<glyph unicode="4" glyph-name="four" horiz-adv-x="559" d="M321 213H29L18 257L339 730H418V270H527L517 213H418V60L495 41V0H224V41L321 60V213ZM87 270H321V618L87 270Z" />
<glyph unicode="5" glyph-name="five" horiz-adv-x="550" d="M441 625H166L133 407Q162 429 196 440T274 451Q326 451 368 436T441 391T488 320T505 227Q505 174 487 130T437 55T359 7T258 -10Q210 -10 171 3T104 38T61 90T45 153Q45 198 67 223T119 249Q149 249
164 231T179 189Q179 165 162 146T112 127Q120 90 160 66T258 42Q298 42 324 55T367 91T390 148T397 222Q397 262 391 294T368 348T326 383T260 396Q220 396 182 384T124 346L76 366L133 720H421L439 752H481L441 625Z" />
<glyph unicode="6" glyph-name="six" horiz-adv-x="603" d="M158 351Q186 388 233 409T335 430Q383 430 422 414T489 370T532 300T548 210Q548 107 484 49T309 -10Q181 -10 120 75T59 340Q59 532 124 631T316 731Q362 731 400 719T465 685T507 631T522 563Q522
479 454 479Q425 479 408 495T390 540Q390 568 407 584T456 601Q448 638 415 657T325 676Q234 676 193 610T152 398Q152 384 152 374T154 351H158ZM441 210Q441 373 308 373Q175 373 175 210Q175 45 308 45Q441 45 441 210Z" />
<glyph unicode="7" glyph-name="seven" horiz-adv-x="513" d="M262 54Q262 25 250 8T211 -10Q182 -10 171 6T159 55Q159 90 168 135T193 231T233 335T283 440T342 539T406 625H111L92 508H40V720H499V659Q449 600 406 526T330 372T280 210T262 54Z" />
<glyph unicode="8" glyph-name="eight" horiz-adv-x="572" d="M486 571Q486 514 458 467T377 389Q452 348 485 303T519 198Q519 151 501 113T450 47T371 5T269 -10Q166 -10 110 39T53 178Q53 242 85 290T188 378Q160 398 141 417T109 456T92 498T86 546Q86 633
141 682T294 731Q385 731 435 689T486 571ZM229 352Q174 320 149 278T123 179Q123 44 270 44Q421 44 421 167Q421 191 412 211T381 253T321 298T229 352ZM334 415Q377 436 401 477T426 567Q426 677 296 677Q171 677 171 574Q171 550 179 530T207 491T258 454T334
415Z" />
<glyph unicode="9" glyph-name="nine" horiz-adv-x="603" d="M445 370Q417 333 370 312T268 291Q220 291 181 307T114 351T71 420T55 511Q55 614 119 672T294 731Q422 731 483 646T544 380Q544 187 477 89T276 -10Q186 -10 133 34T79 154Q79 239 147 239Q176 239
193 223T211 178Q211 150 194 134T145 117Q156 45 264 45Q314 45 349 60T407 109T440 195T451 323Q451 341 451 350T449 370H445ZM162 511Q162 348 295 348Q428 348 428 511Q428 676 295 676Q162 676 162 511Z" />
<glyph unicode=":" glyph-name="colon" horiz-adv-x="265" d="M69 53Q69 83 86 100T132 118Q161 118 178 100T196 53Q196 24 179 7T132 -10Q102 -10 86 6T69 53ZM69 404Q69 434 86 451T132 469Q161 469 178 451T196 404Q196 375 179 358T132 341Q102 341 86 357T69 404Z" />
<glyph unicode=";" glyph-name="semicolon" horiz-adv-x="287" d="M144 118Q176 118 194 96T213 35Q213 -19 183 -63T89 -149L67 -124Q110 -89 134 -58T160 -3L156 0Q154 -4 147 -6T131 -9Q108 -9 94 8T79 53Q79 82 97 100T144 118ZM81 404Q81 434 98 451T144
469Q173 469 190 451T208 404Q208 375 191 358T144 341Q114 341 98 357T81 404Z" />
<glyph unicode="&lt;" glyph-name="less" horiz-adv-x="471" d="M35 331V389L404 584V509L106 360L404 211V135L35 331Z" />
<glyph unicode="=" glyph-name="equal" horiz-adv-x="576" d="M74 481H502V423H74V481ZM74 294H502V235H74V294Z" />
<glyph unicode="&gt;" glyph-name="greater" horiz-adv-x="471" d="M67 135V211L365 360L67 509V584L436 389V331L67 135Z" />
<glyph unicode="?" glyph-name="question" horiz-adv-x="481" d="M182 205Q182 235 187 260T203 309T235 357T285 412Q320 447 335 479T350 551Q350 611 320 643T233 676Q213 676 194 672T161 661T139 646T130 627Q150 616 161 597T173 555Q173 527 155 509T107
491Q75 491 55 515T34 578Q34 610 50 638T94 686T160 719T242 731Q288 731 326 718T392 682T435 627T451 557Q451 512 430 473T356 387Q321 355 298 331T262 286T243 246T238 205H182ZM272 52Q272 23 256 7T211 -10Q182 -10 165 6T148 52Q148 81 164 98T210 115Q239
115 255 98T272 52Z" />
<glyph unicode="@" glyph-name="at" horiz-adv-x="808" d="M409 449Q486 449 510 394L542 431H582L545 185Q541 162 541 140Q541 76 591 76Q616 76 638 92T676 135T701 200T711 281Q711 344 691 395T633 482T542 538T423 558Q352 558 291 531T184 455T114 341T88
199Q88 57 169 -21T397 -99Q536 -99 643 -30L662 -61Q607 -98 539 -117T395 -136Q314 -136 250 -113T140 -47T70 58T46 198Q46 282 75 354T156 479T276 563T426 594Q500 594 560 572T664 509T731 411T755 284Q755 231 742 187T705 109T649 58T578 39Q536 39 511
57T479 107Q456 72 419 53T336 34Q267 34 231 76T194 196Q194 250 210 296T256 376T324 429T409 449ZM408 410Q377 410 352 394T309 349T282 279T272 186Q272 126 290 100T351 73Q415 73 451 131T487 296Q487 357 469 383T408 410Z" />
<glyph unicode="A" glyph-name="A" horiz-adv-x="721" d="M473 242H205L144 64L227 43V0H-7V43L75 64L315 730H408L645 64L725 43V0H450V43L532 64L473 242ZM225 300H454L346 641H342L225 300Z" />
<glyph unicode="B" glyph-name="B" horiz-adv-x="684" d="M601 547Q601 518 591 492T563 446T521 412T467 394V390Q545 373 590 324T635 201Q635 144 606 97T531 27Q517 20 501 15T462 7T412 2T347 0H48V43L132 64V656L48 677V720H384Q489 720 546 669Q572 645
586 613T601 547ZM232 347V60H342Q388 60 416 65T463 81Q490 97 507 129T524 206Q524 244 511 272T478 318Q460 333 432 340T360 347H232ZM232 405H357Q427 405 460 440Q475 456 486 480T497 537Q497 568 486 592T460 632Q430 662 361 662H232V405Z" />
<glyph unicode="C" glyph-name="C" horiz-adv-x="684" d="M371 676Q276 676 229 614Q199 575 182 512T165 372Q165 300 180 239T222 135Q249 93 287 74T384 54Q473 54 526 96T593 223H648Q625 105 558 48T374 -10Q236 -10 154 70Q105 118 79 190T53 353Q53 454
86 535T179 667Q255 730 380 730Q411 730 435 727T481 715T520 692T558 657L578 720H633V499H572Q543 676 371 676Z" />
<glyph unicode="D" glyph-name="D" horiz-adv-x="766" d="M387 60Q493 60 543 126Q598 196 598 354Q598 510 543 586Q491 660 377 660H232V60H387ZM384 720Q533 720 616 636Q663 588 688 518T713 368Q713 283 687 210T613 87Q571 42 513 21T375 0H48V43L132 64V656L48
677V720H384Z" />
<glyph unicode="E" glyph-name="E" horiz-adv-x="685" d="M421 238L403 340H237V60H539L570 223H628V0H43V43L137 64V656L43 677V720H606V508H554L522 662H237V400H403L421 502H472V238H421Z" />
<glyph unicode="F" glyph-name="F" horiz-adv-x="636" d="M421 227L404 329H237V67L354 48V0H43V43L137 67V656L43 677V720H606V506H552L520 662H237V389H404L421 491H472V227H421Z" />
<glyph unicode="G" glyph-name="G" horiz-adv-x="753" d="M375 55Q545 55 545 223V293L461 314V359H729V314L645 293V0H593L568 79Q524 31 478 11T369 -10Q232 -10 150 74Q103 122 78 193T53 352Q53 441 79 517T154 644Q235 730 373 730Q433 730 475 712T556 651L578
720H633V499H572Q543 676 369 676Q318 676 284 660T225 608Q196 566 180 502T164 366Q164 291 181 229T231 122Q257 87 290 71T375 55Z" />
<glyph unicode="H" glyph-name="H" horiz-adv-x="803" d="M671 64L755 43V0H487V43L571 64V341H232V64L316 43V0H48V43L132 64V656L48 677V720H316V677L232 656V399H571V656L487 677V720H755V677L671 656V64Z" />
<glyph unicode="I" glyph-name="I" horiz-adv-x="374" d="M237 64L331 43V0H43V43L137 64V656L43 677V720H331V677L237 656V64Z" />
<glyph unicode="J" glyph-name="J" horiz-adv-x="583" d="M365 656L266 677V720H544V677L465 656V218Q465 166 448 124T400 52T326 6T229 -11Q182 -11 143 2T77 40T34 99T18 175Q18 259 84 259Q113 259 130 243T147 201Q147 178 134 155T104 123Q104 91 138 69T228
47Q299 47 332 86T365 207V656Z" />
<glyph unicode="K" glyph-name="K" horiz-adv-x="741" d="M237 366L517 656L426 677V720H689V677L601 656L367 424L666 62L750 43V0H471V43L537 63L300 356L237 296V64L321 43V0H43V43L137 64V656L43 677V720H321V677L237 656V366Z" />
<glyph unicode="L" glyph-name="L" horiz-adv-x="629" d="M237 60H509L543 233H598V0H43V43L137 64V656L43 677V720H341V677L237 656V60Z" />
<glyph unicode="M" glyph-name="M" horiz-adv-x="961" d="M679 720H913V677L829 656V64L913 43V0H656V43L729 64V655L523 0H405L197 655V64L270 43V0H48V43L132 64V656L48 677V720H286L482 91H486L679 720Z" />
<glyph unicode="N" glyph-name="N" horiz-adv-x="801" d="M132 656L48 677V720H239L613 167V656L529 677V720H762V677L678 656V0H607L197 599V64L281 43V0H48V43L132 64V656Z" />
<glyph unicode="O" glyph-name="O" horiz-adv-x="764" d="M711 368Q711 280 685 204T611 77Q530 -10 380 -10Q227 -10 149 74Q103 122 78 194T53 352Q53 440 79 516T153 643Q195 688 250 709T382 730Q533 730 614 646Q661 598 686 526T711 368ZM168 372Q168 288
182 224T222 119Q272 45 385 45Q491 45 541 111Q596 186 596 354Q596 437 582 500T541 602Q489 676 379 676Q274 676 223 610Q168 537 168 372Z" />
<glyph unicode="P" glyph-name="P" horiz-adv-x="631" d="M356 341Q384 341 408 349T447 372Q467 393 481 427T495 500Q495 538 482 569T447 626Q430 643 406 652T352 662H232V341H356ZM232 283V64L327 43V0H48V43L132 64V656L48 677V720H379Q426 720 464 708T529
672Q564 640 584 597T605 506Q605 456 584 410T527 332Q501 309 462 296T378 283H232Z" />
<glyph unicode="Q" glyph-name="Q" horiz-adv-x="764" d="M711 368Q711 280 685 204T611 77Q574 37 525 17T413 -9V-13L540 -94Q578 -118 621 -118Q637 -118 648 -114T675 -99L691 -126Q671 -158 640 -171T564 -185Q508 -185 466 -166T401 -109L341 -8Q219 1 149
74Q103 122 78 194T53 352Q53 440 79 516T153 643Q195 688 250 709T382 730Q533 730 614 646Q661 598 686 526T711 368ZM168 374Q168 289 182 224T222 119Q271 45 384 45Q491 45 541 111Q596 186 596 354Q596 437 582 500T541 602Q489 676 379 676Q274 676 223
610Q168 539 168 374Z" />
<glyph unicode="R" glyph-name="R" horiz-adv-x="706" d="M543 382Q525 368 501 358T442 341Q460 323 482 287L615 62L704 43V0H498V43L354 323H232V64L327 43V0H48V43L132 64V656L48 677V720H392Q440 720 476 711T541 682Q578 658 598 616T619 532Q619 490 599
450T543 382ZM375 381Q430 381 466 412Q486 430 497 460T509 526Q509 561 498 589T465 636Q448 650 426 656T371 662H232V381H375Z" />
<glyph unicode="S" glyph-name="S" horiz-adv-x="599" d="M321 -11Q261 -11 213 7T133 58L122 0H66V227H127Q133 131 174 88T302 44Q445 44 445 153Q445 185 433 209T397 252T341 288T265 322Q217 341 181 359T120 401T82 455T69 530Q69 625 128 678T288 731Q387
731 449 675L457 720H513V493H456Q456 590 421 633T307 677Q170 677 170 552Q170 527 176 510T198 477T243 448T315 415Q377 388 421 364T492 312T533 254T546 184Q546 138 530 102T484 40T413 2T321 -11Z" />
<glyph unicode="T" glyph-name="T" horiz-adv-x="658" d="M627 720V510H575L543 660H379V67L485 43V0H173V43L279 67V660H114L83 510H31V720H627Z" />
<glyph unicode="U" glyph-name="U" horiz-adv-x="772" d="M592 656L508 677V720H739V677L655 656V243Q655 118 589 54T392 -11Q258 -11 187 55T116 244V656L32 677V720H300V677L216 656V261Q216 44 414 44Q508 44 550 94T592 259V656Z" />
<glyph unicode="V" glyph-name="V" horiz-adv-x="716" d="M377 83H381L567 656L484 677V720H718V677L636 656L412 0H314L71 656L-9 677V720H261V677L179 656L377 83Z" />
<glyph unicode="W" glyph-name="W" horiz-adv-x="1041" d="M892 657L813 677V720H1042V677L959 656L769 0H665L518 481L385 0H281L73 656L-5 677V720H279V677L183 656L348 94H352L488 596L475 656L397 677V720H661V677L569 656L733 94H737L892 657Z" />
<glyph unicode="X" glyph-name="X" horiz-adv-x="740" d="M237 656L378 432L546 656L455 677V720H718V677L620 656L414 386L628 64L734 43V0H407L405 43L508 64L351 315L174 64L283 43V0H11V43L104 64L315 358L120 656L14 677V720H331V677L237 656Z" />
<glyph unicode="Y" glyph-name="Y" horiz-adv-x="678" d="M533 656L452 677V720H679V677L597 656L393 282V64L487 43V0H199V43L293 64V266L78 656L-5 677V720H271V677L187 656L359 336L533 656Z" />
<glyph unicode="Z" glyph-name="Z" horiz-adv-x="647" d="M543 223H600V0H37V61L463 660H152L120 508H68V720H577V659L151 60H511L543 223Z" />
<glyph unicode="[" glyph-name="bracketleft" horiz-adv-x="368" d="M93 855H344V795H182V-89H344V-149H93V855Z" />
<glyph unicode="\" glyph-name="backslash" horiz-adv-x="310" d="M256 -10H199L53 730H110L256 -10Z" />
<glyph unicode="]" glyph-name="bracketright" horiz-adv-x="368" d="M275 -149H24V-89H186V795H24V855H275V-149Z" />
<glyph unicode="^" glyph-name="asciicircum" horiz-adv-x="382" d="M327 639H274L191 730L108 639H55L143 790H238L327 639Z" />
<glyph unicode="_" glyph-name="underscore" horiz-adv-x="632" d="M69 0H563V-58H69V0Z" />
<glyph unicode="`" glyph-name="grave" horiz-adv-x="259" d="M219 639H166L128 667Q80 702 60 723T40 760Q40 778 52 786T85 795Q106 795 123 778T170 715L219 639Z" />
<glyph unicode="a" glyph-name="a" horiz-adv-x="537" d="M38 117Q38 156 55 186T111 239T209 280T353 310Q348 369 342 402T324 455Q310 481 285 493T231 506Q203 506 181 496T150 469Q164 458 170 443T177 413Q177 388 161 374T120 359Q96 359 81 375T65 420Q65
451 82 475T126 516T188 541T257 550Q342 550 391 501Q453 439 453 281V136Q453 86 459 68T488 49H533V19Q461 -10 421 -10Q406 -10 396 -5T380 12T372 46T369 99H365Q334 48 283 19T173 -10Q110 -10 74 23T38 117ZM215 48Q243 48 273 62T325 103Q356 141 356 215Q356
232 355 248T352 280Q291 268 251 255T186 226T151 188T141 138Q141 95 160 72T215 48Z" />
<glyph unicode="b" glyph-name="b" horiz-adv-x="601" d="M555 275Q555 209 536 152T483 55Q427 -10 322 -10Q271 -10 231 13T160 101L130 0H83V720L6 739V780H180V482Q210 520 247 535T330 550Q381 550 422 535T490 487Q521 449 538 394T555 275ZM180 274Q180
151 215 95Q231 69 254 56T315 42Q383 42 416 89Q434 115 442 161T450 267Q450 387 415 445Q398 471 375 484T314 498Q279 498 254 487T215 452Q198 424 189 380T180 274Z" />
<glyph unicode="c" glyph-name="c" horiz-adv-x="536" d="M302 550Q389 550 440 508T492 394Q492 317 430 317Q401 317 385 333T369 376Q369 401 382 419T419 444Q390 499 308 499Q226 499 189 446T151 279Q151 184 177 134Q217 57 308 57Q354 57 396 77T468 134L498
110Q458 48 406 19T284 -10Q214 -10 163 18T82 102Q65 134 56 175T46 264Q46 329 64 381T115 471T196 529T302 550Z" />
<glyph unicode="d" glyph-name="d" horiz-adv-x="620" d="M46 265Q46 331 63 389T114 485Q143 517 182 533T275 550Q320 550 356 533T421 472V720L344 739V780H518V60L595 41V0L440 -10L432 72Q401 25 362 8T275 -10Q224 -10 183 5T115 53Q83 92 65 146T46 265ZM421
266Q421 389 386 445Q370 471 347 484T286 498Q218 498 185 451Q167 425 159 379T151 273Q151 153 186 95Q203 69 226 56T287 42Q322 42 347 53T386 88Q403 116 412 160T421 266Z" />
<glyph unicode="e" glyph-name="e" horiz-adv-x="544" d="M148 264Q148 191 168 143Q188 96 224 77T305 57Q353 57 391 76T461 130L493 106Q475 82 455 61T408 24T350 -1T279 -10Q210 -10 157 19T76 106Q61 137 54 174T47 256Q47 397 111 473T287 550Q390 550
445 487T500 311Q500 301 500 293T497 264H148ZM281 496Q161 496 149 313H399V346Q399 418 369 457T281 496Z" />
<glyph unicode="f" glyph-name="f" horiz-adv-x="363" d="M18 526L115 540V550Q115 665 165 727T300 790Q360 790 395 762T430 689Q430 661 416 647T378 632Q355 632 341 645T327 682Q327 708 343 734Q326 752 297 752Q274 752 257 742Q240 732 231 716T218 680T213
637T212 590V540H340V490H212V60L320 41V0H38V41L115 60V490H18V526Z" />
<glyph unicode="g" glyph-name="g" horiz-adv-x="560" d="M507 -10Q507 -48 491 -80T443 -135T366 -171T263 -184Q148 -184 89 -152T30 -59Q30 -12 58 13T135 46V50Q69 69 69 128Q69 159 91 185T162 229Q112 247 86 285T59 378Q59 418 73 449T114 503T178 538T263
550Q356 550 410 504L444 516L536 560H553V472H536L466 480H432Q461 440 461 384Q461 305 407 260T256 214Q245 214 236 214T216 216Q137 204 137 157Q137 134 155 126T225 117H341Q423 117 465 87T507 -10ZM232 40Q165 40 135 17T105 -43Q105 -134 261 -134Q346
-134 390 -109T435 -32Q435 8 405 24T297 40H232ZM147 382Q147 322 174 291T260 260Q319 260 346 291T373 382Q373 442 346 473T260 504Q201 504 174 473T147 382Z" />
<glyph unicode="h" glyph-name="h" horiz-adv-x="644" d="M448 283Q448 347 445 379T432 430Q407 479 344 479Q316 479 290 469T244 442Q222 422 212 396T199 331V60L266 41V0H25V41L102 60V720L25 739V780H199V446Q229 494 278 522T385 550Q425 550 457 536T508
496Q528 468 536 418T545 281V60L622 41V0H381V41L448 60V283Z" />
<glyph unicode="i" glyph-name="i" horiz-adv-x="312" d="M36 499V540H210V60L287 41V0H36V41L113 60V480L36 499ZM99 701Q99 730 115 747T161 764Q190 764 207 747T224 701Q224 672 207 656T161 639Q132 639 116 655T99 701Z" />
<glyph unicode="j" glyph-name="j" horiz-adv-x="284" d="M201 85Q201 11 196 -31T179 -101Q160 -144 124 -167T40 -190Q-14 -190 -48 -164T-83 -95Q-83 -69 -69 -54T-30 -38Q19 -38 19 -93Q19 -122 3 -138Q5 -145 15 -149T42 -153Q77 -153 90 -125T104 -24V480L27
499V540H201V85ZM90 701Q90 730 106 747T152 764Q181 764 198 747T215 701Q215 672 198 656T152 639Q123 639 107 655T90 701Z" />
<glyph unicode="k" glyph-name="k" horiz-adv-x="596" d="M429 60L275 268L199 204V60L276 41V0H25V41L102 60V720L25 739V780H199V251L412 480L346 499V540H561V499L488 480L337 325L536 58L589 41V0H370V41L429 60Z" />
<glyph unicode="l" glyph-name="l" horiz-adv-x="308" d="M105 720L28 739V780H202V60L279 41V0H28V41L105 60V720Z" />
<glyph unicode="m" glyph-name="m" horiz-adv-x="975" d="M113 480L36 499V540H180L202 440H206Q235 491 283 520T387 550Q429 550 460 535T507 496Q523 471 533 430Q565 487 616 518T725 550Q765 550 797 535T846 492Q855 478 861 458T871 409T876 339T878 245V60L955
41V0H714V41L781 60V283Q781 347 778 379T765 430Q740 479 681 479Q655 479 632 469T589 442Q567 422 557 396T544 327V60L611 41V0H380V41L447 60V283Q447 347 444 379T431 430Q406 479 347 479Q321 479 298 469T255 442Q233 422 223 396T210 327V60L277 41V0H36V41L113
60V480Z" />
<glyph unicode="n" glyph-name="n" horiz-adv-x="655" d="M113 480L36 499V540H180L202 440H206Q236 491 286 520T396 550Q436 550 468 536T519 496Q539 468 547 418T556 281V60L633 41V0H392V41L459 60V283Q459 347 456 379T443 430Q418 479 355 479Q327 479
301 469T255 442Q233 422 223 396T210 327V60L277 41V0H36V41L113 60V480Z" />
<glyph unicode="o" glyph-name="o" horiz-adv-x="582" d="M536 275Q536 209 517 151T462 55Q403 -10 288 -10Q176 -10 117 53Q83 90 65 144T46 263Q46 329 65 388T120 485Q152 519 194 534T292 550Q347 550 391 535T465 487Q500 450 518 395T536 275ZM153 274Q153
154 189 95Q206 69 229 56T291 42Q360 42 394 89Q412 115 420 161T429 267Q429 386 393 445Q376 471 352 484T290 498Q220 498 189 452Q153 396 153 274Z" />
<glyph unicode="p" glyph-name="p" horiz-adv-x="619" d="M296 -139V-180H25V-139L102 -120V480L25 499V540H169L184 463Q216 513 256 531T348 550Q399 550 440 535T508 487Q538 449 555 396T573 280Q573 216 554 160T501 65Q445 0 340 0Q297 0 263 16T199 74V-120L296
-139ZM198 279Q198 160 233 105Q249 79 272 66T333 52Q401 52 434 99Q452 124 460 168T468 272Q468 389 433 445Q416 471 393 484T332 498Q297 498 272 487T233 452Q216 425 207 382T198 279Z" />
<glyph unicode="q" glyph-name="q" horiz-adv-x="601" d="M421 67Q392 29 356 15T275 0Q224 0 183 15T115 63Q83 101 65 154T46 270Q46 334 64 390T114 485Q140 517 181 533T275 550Q328 550 368 526T441 437L471 540H518V-120L595 -139V-180H324V-139L421 -120V67ZM421
271Q421 390 386 445Q370 471 347 484T286 498Q218 498 185 451Q167 426 159 382T151 278Q151 161 186 105Q203 79 226 66T287 52Q322 52 347 63T386 98Q403 125 412 168T421 271Z" />
<glyph unicode="r" glyph-name="r" horiz-adv-x="458" d="M337 482Q328 488 317 488Q298 488 277 465T240 405Q226 371 218 331T210 247V60L318 41V0H36V41L113 60V480L36 499V540H180L202 408H206Q229 476 267 513T354 550Q393 550 419 526T445 460Q445 430 430
413T388 395Q362 395 347 411T332 455Q332 461 333 466T337 482Z" />
<glyph unicode="s" glyph-name="s" horiz-adv-x="503" d="M244 36Q301 36 336 58T371 123Q371 148 358 165T325 194T279 214T229 230Q198 239 169 251T116 281T78 326T64 391Q64 463 116 506T263 550Q343 550 389 517T436 425Q436 393 422 375T382 357Q359 357
344 371T329 407Q329 426 339 441T365 464Q350 485 327 494T266 504Q146 504 146 419Q146 396 154 381T178 355T217 336T272 317Q306 306 339 294T398 264T441 219T458 152Q458 113 442 83T397 33T328 1T240 -10Q151 -10 98 25T44 123Q44 155 58 173T100 192Q124
192 140 178T157 141Q157 122 147 105T121 80Q134 60 167 48T244 36Z" />
<glyph unicode="t" glyph-name="t" horiz-adv-x="341" d="M9 526L106 540L119 666L203 678V540H331V490H203V133Q203 99 204 87T208 66Q211 58 219 56T245 54H315V25Q267 7 231 -1T172 -10Q127 -10 114 27Q109 39 108 57T106 114V490H9V526Z" />
<glyph unicode="u" glyph-name="u" horiz-adv-x="633" d="M193 257Q193 225 194 201T196 160T201 131T209 110Q232 61 293 61Q320 61 345 71T389 98Q411 118 421 144T434 213V480L347 499V540H531V60L608 41V0L453 -10L442 100H438Q409 49 359 20T252 -10Q214
-10 183 4T133 44Q113 72 105 122T96 259V480L29 499V540H193V257Z" />
<glyph unicode="v" glyph-name="v" horiz-adv-x="593" d="M245 -10L67 480L11 499V540H235V499L169 480L310 61H314L455 480L393 499V540H583V499L525 480L348 -10H245Z" />
<glyph unicode="w" glyph-name="w" horiz-adv-x="877" d="M271 120L283 61H288L300 120L417 550H489L610 120L622 61H626L638 120L738 480L673 499V540H863V499L809 480L660 -10H557L438 380L322 -10H219L66 480L13 499V540H237V499L168 480L271 120Z" />
<glyph unicode="x" glyph-name="x" horiz-adv-x="573" d="M303 321L420 480L360 499V540H548V499L491 480L329 287L506 59L561 41V0H342V41L399 60L270 226L146 60L206 41V0H18V41L74 60L244 260L74 480L18 499V540H225V499L181 480L303 321Z" />
<glyph unicode="y" glyph-name="y" horiz-adv-x="590" d="M348 24Q327 -34 310 -75T273 -141T231 -178T174 -190Q150 -190 130 -184T94 -165T69 -137T60 -102Q60 -74 76 -56T118 -37Q141 -37 154 -49T168 -84Q168 -98 163 -111T148 -134Q150 -145 159 -148T177
-151Q187 -151 196 -148T215 -134T235 -101T258 -44L270 -7L63 480L3 499V540H227L235 499L164 480L313 88H317L443 480L385 499V540H575V499L514 480L348 24Z" />
<glyph unicode="z" glyph-name="z" horiz-adv-x="538" d="M430 192H487V0H44V56L372 484H138L114 353H57V540H483V484L155 56H410L430 192Z" />
<glyph unicode="{" glyph-name="braceleft" horiz-adv-x="404" d="M6 386H40Q95 386 120 412T145 498Q145 512 144 535T142 582T139 630T138 667Q138 758 196 803T380 855V795Q299 790 266 764T232 679Q232 670 232 650T234 608T235 563T236 529Q236 460 211 421T127
362V357Q185 343 210 304T236 185Q236 171 236 148T234 101T233 56T232 26Q232 -33 266 -59T380 -90V-150Q254 -144 196 -99T138 39Q138 53 139 77T141 126T144 176T145 214Q145 274 121 300T40 327H6V386Z" />
<glyph unicode="|" glyph-name="bar" horiz-adv-x="245" d="M94 770H151V-170H94V770Z" />
<glyph unicode="}" glyph-name="braceright" horiz-adv-x="404" d="M398 327H364Q308 327 284 301T259 214Q259 200 260 176T262 127T265 77T266 39Q266 -54 208 -99T24 -150V-90Q104 -86 138 -60T172 26Q172 35 172 56T170 101T169 148T168 185Q168 225 174 254T193
304T227 337T277 357V362Q219 382 194 421T168 529Q168 541 168 563T170 607T171 650T172 679Q172 737 139 763T24 795V855Q150 849 208 804T266 667Q266 653 265 630T263 583T260 535T259 498Q259 439 284 413T364 386H398V327Z" />
<glyph unicode="~" glyph-name="asciitilde" horiz-adv-x="485" d="M76 304Q91 419 173 419Q198 419 217 411T251 392T282 373T315 364Q358 364 369 414H414Q398 293 317 293Q292 293 274 301T239 320T208 340T175 349Q154 349 140 337T121 304H76Z" />
<glyph unicode="&#xa0;" glyph-name="uni00A0" horiz-adv-x="254" />
<glyph unicode="&#xa1;" glyph-name="exclamdown" horiz-adv-x="265" d="M160 335Q160 296 162 252T166 167T171 92T176 40Q179 3 184 -33T189 -111Q189 -143 177 -166T134 -190Q104 -190 90 -168T75 -110Q75 -68 80 -33T88 40Q89 58 92 92T97 167T102 252T104
335H160ZM194 488Q194 459 178 442T132 425Q103 425 87 442T70 488Q70 517 87 533T133 550Q162 550 178 534T194 488Z" />
<glyph unicode="&#xa2;" glyph-name="cent" horiz-adv-x="551" d="M266 -9Q204 -4 159 23T87 102Q70 134 61 175T51 264Q51 322 65 371T108 457T176 517T266 547V652H313V550Q356 550 392 539T453 507T493 457T507 393Q507 317 445 317Q416 317 400 333T384 376Q384
401 397 419T434 444Q402 499 313 499V57Q359 57 401 77T473 134L503 110Q466 53 420 25T313 -9V-108H266V-9ZM182 134Q208 80 266 63V493Q208 479 182 427T156 279Q156 184 182 134Z" />
<glyph unicode="&#xa3;" glyph-name="sterling" horiz-adv-x="606" d="M75 389H199Q178 433 169 466T159 532Q159 611 213 656T361 701Q442 701 489 668T536 576Q536 544 522 526T482 508Q459 508 444 522T429 558Q429 575 439 591T465 615Q449 636 426 645T364
655Q303 655 275 631T246 555Q246 523 256 483T288 389H461V326H307Q312 296 314 278T316 245Q316 190 294 126Q321 111 341 102T378 86T408 78T435 75Q470 75 489 91T517 145H562Q551 63 523 27T442 -10Q427 -10 412 -7T378 6T332 33T267 76Q236 31 204 11T133
-10Q88 -10 62 14T35 79Q35 123 64 149T143 175Q164 175 191 171T240 158Q243 170 244 187T246 225Q246 254 242 277T227 326H75V389ZM138 41Q189 41 215 107Q198 115 177 120T141 125Q118 125 106 113T93 81Q93 41 138 41Z" />
<glyph unicode="&#xa5;" glyph-name="yen" horiz-adv-x="744" d="M157 341H286L113 656L30 677V720H306V677L222 656L391 341H396L568 656L487 677V720H714V677L632 656L460 341H585V283H428V204H585V145H428V64L522 43V0H234V43L328 64V145H157V204H328V266L318
283H157V341Z" />
<glyph unicode="&#xa6;" glyph-name="brokenbar" horiz-adv-x="249" d="M96 248H153V-170H96V248ZM96 770H153V368H96V770Z" />
<glyph unicode="&#xa7;" glyph-name="section" horiz-adv-x="530" d="M482 250Q482 198 457 159T387 96Q416 70 429 41T442 -25Q442 -103 390 -146T246 -190Q164 -190 117 -157T70 -65Q70 -33 84 -15T124 3Q147 3 162 -11T177 -47Q177 -66 167 -81T141 -104Q156
-125 179 -134T242 -144Q303 -144 331 -122T360 -51Q360 -25 353 -7T329 25T290 53T234 82Q199 99 166 118T107 161T64 217T48 290Q48 342 73 381T142 444Q113 469 101 498T88 564Q88 643 139 686T284 730Q366 730 413 697T460 605Q460 573 446 555T406 537Q383
537 368 551T353 587Q353 605 363 620T389 644Q373 665 350 674T287 684Q227 684 199 662T170 592Q170 565 178 547T203 513T243 486T296 458Q331 441 364 422T424 379T466 323T482 250ZM253 377Q242 382 223 392T179 417Q159 405 147 377T135 318Q135 269 169
234T277 162Q287 157 305 148T355 121Q375 136 385 164T395 221Q395 246 387 266T362 305T317 341T253 377Z" />
<glyph unicode="&#xa8;" glyph-name="dieresis" horiz-adv-x="407" d="M30 705Q30 733 45 748T88 764Q115 764 131 748T147 705Q147 678 132 663T88 647Q61 647 46 662T30 705ZM260 705Q260 733 275 748T318 764Q345 764 361 748T377 705Q377 678 362 663T318
647Q291 647 276 662T260 705Z" />
<glyph unicode="&#xa9;" glyph-name="copyright" horiz-adv-x="842" d="M422 -10Q344 -10 277 18T159 97T81 215T52 361Q52 439 80 506T158 623T276 701T422 730Q500 730 567 702T683 624T761 507T790 361Q790 283 762 215T684 97T567 19T422 -10ZM422 30Q491
30 550 55T652 125T720 229T745 361Q745 431 721 491T653 595T550 665T422 690Q353 690 294 665T192 596T124 492T99 361Q99 290 123 230T191 125T294 55T422 30ZM419 525Q367 525 344 493Q327 472 319 440T310 369Q310 334 318 303T340 250Q367 207 426 207Q519
207 536 297H565Q541 169 420 169Q348 169 305 211Q276 238 261 276T246 360Q246 410 265 454T318 526Q358 559 424 559Q456 559 476 551T518 520L528 553H557V432H525Q510 525 419 525Z" />
<glyph unicode="&#xaa;" glyph-name="ordfeminine" horiz-adv-x="371" d="M54 492Q54 535 93 559T223 598Q220 628 217 645T207 673Q191 701 161 701Q145 701 133 696T116 680Q124 675 127 668T131 655Q131 641 121 633T94 625Q81 625 73 633T64 658Q64 675 74
688T100 711T135 725T175 730Q222 730 249 703Q283 669 283 582V502Q283 475 286 465T302 454H327V438Q289 422 265 422Q245 422 239 434T233 482H229Q213 454 187 438T129 422Q94 422 74 440T54 492ZM157 459Q169 459 183 465T207 484Q224 504 224 541Q224 550
224 559T222 576Q192 570 172 563T139 548T121 529T116 503Q116 459 157 459Z" />
<glyph unicode="&#xab;" glyph-name="guillemotleft" horiz-adv-x="535" d="M274 54L240 21L41 236V270L240 485L273 458L141 255L274 54ZM485 54L451 21L252 236V270L451 485L484 458L352 255L485 54Z" />
<glyph unicode="&#xac;" glyph-name="logicalnot" horiz-adv-x="576" d="M74 398H498V189H438V328H74V398Z" />
<glyph unicode="&#xae;" glyph-name="registered" horiz-adv-x="628" d="M314 230Q261 230 215 249T136 302T83 381T64 481Q64 535 83 580T135 659T215 711T314 730Q367 730 413 712T492 660T545 581T564 481Q564 427 545 382T493 302T413 249T314 230ZM314 267Q412
267 467 325T522 481Q522 578 467 635T314 693Q266 693 228 678T162 636T121 569T106 481Q106 432 120 393T162 325T227 282T314 267ZM386 492Q379 487 371 484T350 478L364 458L411 378L443 371V356H364V371L313 471H275V379L318 371V356H204V371L234 379V590L204
598V613H332Q370 613 391 594T413 546Q413 531 406 517T386 492ZM321 497Q341 497 354 509T368 544Q368 564 357 575T319 587H275V497H321Z" />
<glyph unicode="&#xaf;" glyph-name="overscore" horiz-adv-x="329" d="M25 730H304V665H25V730Z" />
<glyph unicode="&#xb0;" glyph-name="degree" horiz-adv-x="361" d="M181 458Q121 458 84 495T47 593Q47 622 57 647T85 690T127 719T181 730Q211 730 235 720T277 693T305 650T315 595Q315 566 305 541T276 498T234 469T181 458ZM183 494Q220 494 242 521T265
593Q265 638 241 665T179 693Q143 693 120 666T97 594Q97 550 121 522T183 494Z" />
<glyph unicode="&#xb1;" glyph-name="plusminus" horiz-adv-x="522" d="M72 425H232V580H290V425H450V367H290V212H232V367H72V425ZM72 125H450V67H72V125Z" />
<glyph unicode="&#xb2;" glyph-name="twosuperior" horiz-adv-x="318" d="M226 449L237 501H265V401H48V431Q48 454 60 473T89 510T128 544T166 577T196 612T208 654Q208 698 147 698Q92 698 83 662Q113 662 113 635Q113 607 84 607Q53 607 53 644Q53 683 81 706T156
730Q204 730 232 707T261 643Q261 616 249 596T219 559T179 529T140 504T109 478T97 449H226Z" />
<glyph unicode="&#xb3;" glyph-name="threesuperior" horiz-adv-x="316" d="M258 646Q258 616 240 597T190 572V568Q263 554 263 491Q263 449 233 423T151 397Q104 397 76 420T48 481Q48 520 79 520Q107 520 107 492Q107 465 82 465Q90 429 143 429Q206 429 206
484Q206 516 186 535T129 554V584Q163 584 184 602T205 651Q205 700 146 700Q120 700 104 691T84 667Q98 667 106 660T114 640Q114 627 106 620T85 612Q52 612 52 652Q52 687 80 708T154 730Q201 730 229 707T258 646Z" />
<glyph unicode="&#xb4;" glyph-name="acute" horiz-adv-x="259" d="M89 715Q118 760 135 777T174 795Q195 795 207 787T219 760Q219 745 199 724T131 667L93 639H40L89 715Z" />
<glyph unicode="&#xb5;" glyph-name="mu" horiz-adv-x="668" d="M113 480L46 499V540H210V257Q210 225 211 201T213 160T218 131T226 110Q249 61 310 61Q336 61 361 71T406 98Q427 118 437 144T451 213V480L364 499V540H548V60L625 41V0L470 -10L459 100H455Q423
47 381 19T292 -10Q220 -10 204 59H200L210 -179H113V480Z" />
<glyph unicode="&#xb6;" glyph-name="paragraph" horiz-adv-x="678" d="M484 606H414V-96H344V203H278Q156 203 94 261T31 432Q31 547 94 608T277 670H638V627L554 606V-96H484V606Z" />
<glyph unicode="&#xb7;" glyph-name="middot" horiz-adv-x="260" d="M67 298Q67 328 84 345T130 363Q159 363 176 345T194 298Q194 269 177 252T130 235Q100 235 84 251T67 298Z" />
<glyph unicode="&#xb8;" glyph-name="cedilla" horiz-adv-x="254" d="M116 -210Q63 -210 25 -182L52 -145Q81 -165 111 -165Q132 -165 145 -155T158 -129Q158 -99 104 -99Q83 -99 62 -105L49 -83L126 17H170L124 -59L125 -62Q181 -62 205 -78T229 -126Q229 -167
196 -188T116 -210Z" />
<glyph unicode="&#xb9;" glyph-name="onesuperior" horiz-adv-x="297" d="M128 669H68V700Q76 700 87 701T108 705T128 711T141 720H180V427L228 418V392H68V418L128 427V669Z" />
<glyph unicode="&#xba;" glyph-name="ordmasculine" horiz-adv-x="369" d="M320 579Q320 544 310 512T279 458Q246 422 183 422Q121 422 89 457Q70 477 60 507T50 572Q50 608 60 640T91 694Q124 730 186 730Q248 730 281 695Q300 675 310 645T320 579ZM114 578Q114
519 134 485Q150 456 185 456Q218 456 237 481Q256 506 256 574Q256 633 236 667Q219 696 184 696Q150 696 134 671Q114 639 114 578Z" />
<glyph unicode="&#xbb;" glyph-name="guillemotright" horiz-adv-x="535" d="M394 255L262 458L295 485L494 270V236L295 21L261 54L394 255ZM183 255L51 458L84 485L283 270V236L84 21L50 54L183 255Z" />
<glyph unicode="&#xbc;" glyph-name="onequarter" horiz-adv-x="611" d="M478 730H532L146 -10H92L478 730ZM108 669H48V700Q56 700 67 701T88 705T108 711T121 720H160V427L208 418V392H48V418L108 427V669ZM475 92H344L339 123L475 328H527V125H576L572 92H527V34L562
25V0H425V25L475 34V92ZM379 125H475V272L379 125Z" />
<glyph unicode="&#xbd;" glyph-name="onehalf" horiz-adv-x="641" d="M478 730H532L146 -10H92L478 730ZM108 669H48V700Q56 700 67 701T88 705T108 711T121 720H160V427L208 418V392H48V418L108 427V669ZM557 48L568 100H596V0H379V30Q379 53 391 72T420 109T459
143T497 176T527 211T539 253Q539 297 478 297Q423 297 414 261Q444 261 444 234Q444 206 415 206Q384 206 384 243Q384 282 412 305T487 329Q535 329 563 306T592 242Q592 215 580 195T550 158T510 128T471 103T440 77T428 48H557Z" />
<glyph unicode="&#xbe;" glyph-name="threequarters" horiz-adv-x="623" d="M490 730H544L158 -10H104L490 730ZM487 92H356L351 123L487 328H539V125H588L584 92H539V34L574 25V0H437V25L487 34V92ZM391 125H487V272L391 125ZM252 646Q252 616 234 597T184 572V568Q257
554 257 491Q257 449 227 423T145 397Q98 397 70 420T42 481Q42 520 73 520Q101 520 101 492Q101 465 76 465Q84 429 137 429Q200 429 200 484Q200 516 180 535T123 554V584Q157 584 178 602T199 651Q199 700 140 700Q114 700 98 691T78 667Q92 667 100 660T108
640Q108 627 100 620T79 612Q46 612 46 652Q46 687 74 708T148 730Q195 730 223 707T252 646Z" />
<glyph unicode="&#xbf;" glyph-name="questiondown" horiz-adv-x="476" d="M297 336Q297 306 292 281T276 232T244 184T194 129Q159 94 144 62T129 -10Q129 -70 159 -102T246 -135Q266 -135 284 -131T317 -121T340 -105T349 -86Q329 -75 318 -56T306 -14Q306 14
324 32T372 50Q404 50 424 26T445 -37Q445 -69 429 -97T385 -145T319 -178T237 -190Q191 -190 153 -177T87 -141T44 -86T28 -16Q28 29 49 68T123 154Q158 186 181 210T217 255T236 295T241 336H297ZM207 489Q207 518 223 534T268 551Q297 551 314 535T331 489Q331
460 315 443T269 426Q240 426 224 443T207 489Z" />
<glyph unicode="&#xc0;" glyph-name="Agrave" horiz-adv-x="721" d="M473 242H205L144 64L227 43V0H-7V43L75 64L315 730H408L645 64L725 43V0H450V43L532 64L473 242ZM225 300H454L346 641H342L225 300ZM408 770H355L308 799Q270 822 253 835T235 865Q235 895
272 895Q291 895 308 885T347 847L408 770Z" />
<glyph unicode="&#xc1;" glyph-name="Aacute" horiz-adv-x="721" d="M473 242H205L144 64L227 43V0H-7V43L75 64L315 730H408L645 64L725 43V0H450V43L532 64L473 242ZM225 300H454L346 641H342L225 300ZM396 847Q417 874 434 884T471 895Q508 895 508 865Q508
849 491 836T435 799L388 770H335L396 847Z" />
<glyph unicode="&#xc2;" glyph-name="Acircumflex" horiz-adv-x="721" d="M473 242H205L144 64L227 43V0H-7V43L75 64L315 730H408L645 64L725 43V0H450V43L532 64L473 242ZM225 300H454L346 641H342L225 300ZM528 769H475L362 830L249 769H196L314 890H409L528 769Z" />
<glyph unicode="&#xc3;" glyph-name="Atilde" horiz-adv-x="721" d="M473 242H205L144 64L227 43V0H-7V43L75 64L315 730H408L645 64L725 43V0H450V43L532 64L473 242ZM225 300H454L346 641H342L225 300ZM178 770Q194 885 290 885Q315 885 334 877T369 858T400
839T436 830Q466 830 481 843T501 880H546Q528 759 434 759Q409 759 391 767T356 786T323 806T288 815Q258 815 243 803T223 770H178Z" />
<glyph unicode="&#xc4;" glyph-name="Adieresis" horiz-adv-x="721" d="M473 242H205L144 64L227 43V0H-7V43L75 64L315 730H408L645 64L725 43V0H450V43L532 64L473 242ZM225 300H454L346 641H342L225 300ZM189 831Q189 859 204 874T247 890Q274 890 290 874T306
831Q306 804 291 789T247 773Q220 773 205 788T189 831ZM419 831Q419 859 434 874T477 890Q504 890 520 874T536 831Q536 804 521 789T477 773Q450 773 435 788T419 831Z" />
<glyph unicode="&#xc5;" glyph-name="Aring" horiz-adv-x="721" d="M473 242H205L144 64L227 43V0H-7V43L75 64L315 730H408L645 64L725 43V0H450V43L532 64L473 242ZM225 300H454L346 641H342L225 300ZM287 824Q287 856 309 878T362 900Q394 900 416 878T438
824Q438 793 416 772T362 750Q331 750 309 771T287 824ZM341 824Q341 815 347 809T362 803Q372 803 378 809T385 824Q385 834 379 840T362 847Q353 847 347 841T341 824Z" />
<glyph unicode="&#xc6;" glyph-name="AE" horiz-adv-x="1057" d="M793 238L775 340H609V60H911L942 223H1000V0H415V43L509 64V242H257L159 64L238 43V0H-9V43L85 64L422 666L338 677V720H978V508H926L894 662H609V400H775L793 502H844V238H793ZM486 659L289 300H509V656L486
659Z" />
<glyph unicode="&#xc7;" glyph-name="Ccedilla" horiz-adv-x="684" d="M354 -210Q301 -210 263 -182L290 -145Q319 -165 349 -165Q370 -165 383 -155T396 -129Q396 -99 342 -99Q321 -99 300 -105L287 -83L344 -9Q225 0 154 70Q105 118 79 190T53 353Q53 454 86
535T179 667Q255 730 380 730Q411 730 435 727T481 715T520 692T558 657L578 720H633V499H572Q543 676 371 676Q276 676 229 614Q199 575 182 512T165 372Q165 300 180 239T222 135Q249 93 287 74T384 54Q473 54 526 96T593 223H648Q626 109 564 52T392 -9L362
-59L363 -62Q419 -62 443 -78T467 -126Q467 -167 434 -188T354 -210Z" />
<glyph unicode="&#xc8;" glyph-name="Egrave" horiz-adv-x="685" d="M421 238L403 340H237V60H539L570 223H628V0H43V43L137 64V656L43 677V720H606V508H554L522 662H237V400H403L421 502H472V238H421ZM415 770H362L315 799Q277 822 260 835T242 865Q242 895 279
895Q298 895 315 885T354 847L415 770Z" />
<glyph unicode="&#xc9;" glyph-name="Eacute" horiz-adv-x="685" d="M421 238L403 340H237V60H539L570 223H628V0H43V43L137 64V656L43 677V720H606V508H554L522 662H237V400H403L421 502H472V238H421ZM380 847Q401 874 418 884T455 895Q492 895 492 865Q492 849
475 836T419 799L372 770H319L380 847Z" />
<glyph unicode="&#xca;" glyph-name="Ecircumflex" horiz-adv-x="685" d="M421 238L403 340H237V60H539L570 223H628V0H43V43L137 64V656L43 677V720H606V508H554L522 662H237V400H403L421 502H472V238H421ZM512 769H459L346 830L233 769H180L298 890H393L512 769Z" />
<glyph unicode="&#xcb;" glyph-name="Edieresis" horiz-adv-x="685" d="M421 238L403 340H237V60H539L570 223H628V0H43V43L137 64V656L43 677V720H606V508H554L522 662H237V400H403L421 502H472V238H421ZM173 831Q173 859 188 874T231 890Q258 890 274 874T290
831Q290 804 275 789T231 773Q204 773 189 788T173 831ZM403 831Q403 859 418 874T461 890Q488 890 504 874T520 831Q520 804 505 789T461 773Q434 773 419 788T403 831Z" />
<glyph unicode="&#xcc;" glyph-name="Igrave" horiz-adv-x="374" d="M237 64L331 43V0H43V43L137 64V656L43 677V720H331V677L237 656V64ZM255 770H202L155 799Q117 822 100 835T82 865Q82 895 119 895Q138 895 155 885T194 847L255 770Z" />
<glyph unicode="&#xcd;" glyph-name="Iacute" horiz-adv-x="374" d="M237 64L331 43V0H43V43L137 64V656L43 677V720H331V677L237 656V64ZM221 847Q242 874 259 884T296 895Q333 895 333 865Q333 849 316 836T260 799L213 770H160L221 847Z" />
<glyph unicode="&#xce;" glyph-name="Icircumflex" horiz-adv-x="374" d="M237 64L331 43V0H43V43L137 64V656L43 677V720H331V677L237 656V64ZM353 769H300L187 830L74 769H21L139 890H234L353 769Z" />
<glyph unicode="&#xcf;" glyph-name="Idieresis" horiz-adv-x="374" d="M237 64L331 43V0H43V43L137 64V656L43 677V720H331V677L237 656V64ZM14 831Q14 859 29 874T72 890Q99 890 115 874T131 831Q131 804 116 789T72 773Q45 773 30 788T14 831ZM244 831Q244
859 259 874T302 890Q329 890 345 874T361 831Q361 804 346 789T302 773Q275 773 260 788T244 831Z" />
<glyph unicode="&#xd0;" glyph-name="Eth" horiz-adv-x="771" d="M53 397H137V656L53 677V720H389Q538 720 621 636Q668 588 693 518T718 368Q718 283 692 210T618 87Q576 42 518 21T380 0H53V43L137 64V330H53V397ZM392 60Q498 60 548 126Q603 196 603 354Q603
510 548 586Q496 660 382 660H237V397H364V330H237V60H392Z" />
<glyph unicode="&#xd1;" glyph-name="Ntilde" horiz-adv-x="801" d="M132 656L48 677V720H239L613 167V656L529 677V720H762V677L678 656V0H607L197 599V64L281 43V0H48V43L132 64V656ZM216 770Q232 885 328 885Q353 885 372 877T407 858T438 839T474 830Q504
830 519 843T539 880H584Q566 759 472 759Q447 759 429 767T394 786T361 806T326 815Q296 815 281 803T261 770H216Z" />
<glyph unicode="&#xd2;" glyph-name="Ograve" horiz-adv-x="764" d="M711 368Q711 280 685 204T611 77Q530 -10 380 -10Q227 -10 149 74Q103 122 78 194T53 352Q53 440 79 516T153 643Q195 688 250 709T382 730Q533 730 614 646Q661 598 686 526T711 368ZM168
372Q168 288 182 224T222 119Q272 45 385 45Q491 45 541 111Q596 186 596 354Q596 437 582 500T541 602Q489 676 379 676Q274 676 223 610Q168 537 168 372ZM453 770H400L353 799Q315 822 298 835T280 865Q280 895 317 895Q336 895 353 885T392 847L453 770Z" />
<glyph unicode="&#xd3;" glyph-name="Oacute" horiz-adv-x="764" d="M711 368Q711 280 685 204T611 77Q530 -10 380 -10Q227 -10 149 74Q103 122 78 194T53 352Q53 440 79 516T153 643Q195 688 250 709T382 730Q533 730 614 646Q661 598 686 526T711 368ZM168
372Q168 288 182 224T222 119Q272 45 385 45Q491 45 541 111Q596 186 596 354Q596 437 582 500T541 602Q489 676 379 676Q274 676 223 610Q168 537 168 372ZM416 847Q437 874 454 884T491 895Q528 895 528 865Q528 849 511 836T455 799L408 770H355L416 847Z" />
<glyph unicode="&#xd4;" glyph-name="Ocircumflex" horiz-adv-x="764" d="M711 368Q711 280 685 204T611 77Q530 -10 380 -10Q227 -10 149 74Q103 122 78 194T53 352Q53 440 79 516T153 643Q195 688 250 709T382 730Q533 730 614 646Q661 598 686 526T711 368ZM168
372Q168 288 182 224T222 119Q272 45 385 45Q491 45 541 111Q596 186 596 354Q596 437 582 500T541 602Q489 676 379 676Q274 676 223 610Q168 537 168 372ZM548 769H495L382 830L269 769H216L334 890H429L548 769Z" />
<glyph unicode="&#xd5;" glyph-name="Otilde" horiz-adv-x="764" d="M711 368Q711 280 685 204T611 77Q530 -10 380 -10Q227 -10 149 74Q103 122 78 194T53 352Q53 440 79 516T153 643Q195 688 250 709T382 730Q533 730 614 646Q661 598 686 526T711 368ZM168
372Q168 288 182 224T222 119Q272 45 385 45Q491 45 541 111Q596 186 596 354Q596 437 582 500T541 602Q489 676 379 676Q274 676 223 610Q168 537 168 372ZM198 770Q214 885 310 885Q335 885 354 877T389 858T420 839T456 830Q486 830 501 843T521 880H566Q548
759 454 759Q429 759 411 767T376 786T343 806T308 815Q278 815 263 803T243 770H198Z" />
<glyph unicode="&#xd6;" glyph-name="Odieresis" horiz-adv-x="764" d="M711 368Q711 280 685 204T611 77Q530 -10 380 -10Q227 -10 149 74Q103 122 78 194T53 352Q53 440 79 516T153 643Q195 688 250 709T382 730Q533 730 614 646Q661 598 686 526T711 368ZM168
372Q168 288 182 224T222 119Q272 45 385 45Q491 45 541 111Q596 186 596 354Q596 437 582 500T541 602Q489 676 379 676Q274 676 223 610Q168 537 168 372ZM209 831Q209 859 224 874T267 890Q294 890 310 874T326 831Q326 804 311 789T267 773Q240 773 225 788T209
831ZM439 831Q439 859 454 874T497 890Q524 890 540 874T556 831Q556 804 541 789T497 773Q470 773 455 788T439 831Z" />
<glyph unicode="&#xd7;" glyph-name="multiply" horiz-adv-x="506" d="M108 545L253 400L398 545L446 497L301 352L446 207L398 159L253 304L108 159L60 207L205 352L60 497L108 545Z" />
<glyph unicode="&#xd8;" glyph-name="Oslash" horiz-adv-x="761" d="M709 368Q709 280 683 204T609 77Q528 -10 378 -10Q255 -10 180 44L142 -10H71L138 84Q96 132 74 201T51 352Q51 440 77 516T151 643Q193 688 248 709T380 730Q492 730 565 684L597 730H668L610
648Q610 646 612 646Q659 598 684 526T709 368ZM594 354Q594 493 556 572L227 109Q253 77 291 61T383 45Q489 45 539 111Q594 186 594 354ZM166 372Q166 245 196 166L521 623Q471 676 377 676Q272 676 221 610Q166 537 166 372Z" />
<glyph unicode="&#xd9;" glyph-name="Ugrave" horiz-adv-x="772" d="M592 656L508 677V720H739V677L655 656V243Q655 118 589 54T392 -11Q258 -11 187 55T116 244V656L32 677V720H300V677L216 656V261Q216 44 414 44Q508 44 550 94T592 259V656ZM475 770H422L375
799Q337 822 320 835T302 865Q302 895 339 895Q358 895 375 885T414 847L475 770Z" />
<glyph unicode="&#xda;" glyph-name="Uacute" horiz-adv-x="772" d="M592 656L508 677V720H739V677L655 656V243Q655 118 589 54T392 -11Q258 -11 187 55T116 244V656L32 677V720H300V677L216 656V261Q216 44 414 44Q508 44 550 94T592 259V656ZM439 847Q460 874
477 884T514 895Q551 895 551 865Q551 849 534 836T478 799L431 770H378L439 847Z" />
<glyph unicode="&#xdb;" glyph-name="Ucircumflex" horiz-adv-x="772" d="M592 656L508 677V720H739V677L655 656V243Q655 118 589 54T392 -11Q258 -11 187 55T116 244V656L32 677V720H300V677L216 656V261Q216 44 414 44Q508 44 550 94T592 259V656ZM571 769H518L405
830L292 769H239L357 890H452L571 769Z" />
<glyph unicode="&#xdc;" glyph-name="Udieresis" horiz-adv-x="772" d="M592 656L508 677V720H739V677L655 656V243Q655 118 589 54T392 -11Q258 -11 187 55T116 244V656L32 677V720H300V677L216 656V261Q216 44 414 44Q508 44 550 94T592 259V656ZM232 831Q232
859 247 874T290 890Q317 890 333 874T349 831Q349 804 334 789T290 773Q263 773 248 788T232 831ZM462 831Q462 859 477 874T520 890Q547 890 563 874T579 831Q579 804 564 789T520 773Q493 773 478 788T462 831Z" />
<glyph unicode="&#xdd;" glyph-name="Yacute" horiz-adv-x="678" d="M533 656L452 677V720H679V677L597 656L393 282V64L487 43V0H199V43L293 64V266L78 656L-5 677V720H271V677L187 656L359 336L533 656ZM393 848Q414 875 431 885T468 896Q505 896 505 866Q505
850 488 837T432 800L385 771H332L393 848Z" />
<glyph unicode="&#xde;" glyph-name="Thorn" horiz-adv-x="643" d="M235 148V64L330 43V0H51V43L135 64V656L40 677V720H319V677L235 656V575H387Q442 575 483 558T552 512T594 445T608 366Q608 322 594 283T551 213T481 166T386 148H235ZM364 206Q399 206 424
217T465 249T490 298T498 360Q498 391 489 419T463 470T420 504T360 517H235V206H364Z" />
<glyph unicode="&#xdf;" glyph-name="germandbls" horiz-adv-x="630" d="M353 424Q353 412 357 403T371 384T400 363T449 337Q496 313 526 294T574 255T598 214T605 167Q605 128 592 96T554 40T495 3T420 -10Q385 -10 356 -1T306 25T273 65T261 116Q261 147 276
164T317 182Q342 182 358 168T374 131Q374 113 364 96T338 70Q347 55 370 46T422 36Q467 36 492 60T518 129Q518 146 514 159T498 185T464 213T406 250Q365 274 339 292T297 328T277 362T271 401Q271 419 274 433T288 461T316 490T363 527Q396 552 410 577T424
639Q424 693 396 721T317 750Q199 750 199 590V0H25V41L102 60V550Q102 606 117 650T162 726T232 773T327 790Q412 790 460 749T509 638Q509 598 492 571T432 517Q388 488 371 468T353 424Z" />
<glyph unicode="&#xe0;" glyph-name="agrave" horiz-adv-x="537" d="M38 117Q38 156 55 186T111 239T209 280T353 310Q348 369 342 402T324 455Q310 481 285 493T231 506Q203 506 181 496T150 469Q164 458 170 443T177 413Q177 388 161 374T120 359Q96 359 81
375T65 420Q65 451 82 475T126 516T188 541T257 550Q342 550 391 501Q453 439 453 281V136Q453 86 459 68T488 49H533V19Q461 -10 421 -10Q406 -10 396 -5T380 12T372 46T369 99H365Q334 48 283 19T173 -10Q110 -10 74 23T38 117ZM215 48Q243 48 273 62T325 103Q356
141 356 215Q356 232 355 248T352 280Q291 268 251 255T186 226T151 188T141 138Q141 95 160 72T215 48ZM304 639H251L213 667Q165 702 145 723T125 760Q125 778 137 786T170 795Q191 795 208 778T255 715L304 639Z" />
<glyph unicode="&#xe1;" glyph-name="aacute" horiz-adv-x="537" d="M38 117Q38 156 55 186T111 239T209 280T353 310Q348 369 342 402T324 455Q310 481 285 493T231 506Q203 506 181 496T150 469Q164 458 170 443T177 413Q177 388 161 374T120 359Q96 359 81
375T65 420Q65 451 82 475T126 516T188 541T257 550Q342 550 391 501Q453 439 453 281V136Q453 86 459 68T488 49H533V19Q461 -10 421 -10Q406 -10 396 -5T380 12T372 46T369 99H365Q334 48 283 19T173 -10Q110 -10 74 23T38 117ZM215 48Q243 48 273 62T325 103Q356
141 356 215Q356 232 355 248T352 280Q291 268 251 255T186 226T151 188T141 138Q141 95 160 72T215 48ZM266 715Q295 760 312 777T351 795Q372 795 384 787T396 760Q396 745 376 724T308 667L270 639H217L266 715Z" />
<glyph unicode="&#xe2;" glyph-name="acircumflex" horiz-adv-x="537" d="M38 117Q38 156 55 186T111 239T209 280T353 310Q348 369 342 402T324 455Q310 481 285 493T231 506Q203 506 181 496T150 469Q164 458 170 443T177 413Q177 388 161 374T120 359Q96 359
81 375T65 420Q65 451 82 475T126 516T188 541T257 550Q342 550 391 501Q453 439 453 281V136Q453 86 459 68T488 49H533V19Q461 -10 421 -10Q406 -10 396 -5T380 12T372 46T369 99H365Q334 48 283 19T173 -10Q110 -10 74 23T38 117ZM215 48Q243 48 273 62T325
103Q356 141 356 215Q356 232 355 248T352 280Q291 268 251 255T186 226T151 188T141 138Q141 95 160 72T215 48ZM390 639H337L254 730L171 639H118L206 790H301L390 639Z" />
<glyph unicode="&#xe3;" glyph-name="atilde" horiz-adv-x="537" d="M38 117Q38 156 55 186T111 239T209 280T353 310Q348 369 342 402T324 455Q310 481 285 493T231 506Q203 506 181 496T150 469Q164 458 170 443T177 413Q177 388 161 374T120 359Q96 359 81
375T65 420Q65 451 82 475T126 516T188 541T257 550Q342 550 391 501Q453 439 453 281V136Q453 86 459 68T488 49H533V19Q461 -10 421 -10Q406 -10 396 -5T380 12T372 46T369 99H365Q334 48 283 19T173 -10Q110 -10 74 23T38 117ZM215 48Q243 48 273 62T325 103Q356
141 356 215Q356 232 355 248T352 280Q291 268 251 255T186 226T151 188T141 138Q141 95 160 72T215 48ZM60 639Q76 754 172 754Q197 754 216 746T251 727T282 708T318 699Q348 699 363 712T383 749H428Q410 628 316 628Q291 628 273 636T238 655T205 675T170 684Q140
684 125 672T105 639H60Z" />
<glyph unicode="&#xe4;" glyph-name="adieresis" horiz-adv-x="537" d="M38 117Q38 156 55 186T111 239T209 280T353 310Q348 369 342 402T324 455Q310 481 285 493T231 506Q203 506 181 496T150 469Q164 458 170 443T177 413Q177 388 161 374T120 359Q96 359
81 375T65 420Q65 451 82 475T126 516T188 541T257 550Q342 550 391 501Q453 439 453 281V136Q453 86 459 68T488 49H533V19Q461 -10 421 -10Q406 -10 396 -5T380 12T372 46T369 99H365Q334 48 283 19T173 -10Q110 -10 74 23T38 117ZM215 48Q243 48 273 62T325
103Q356 141 356 215Q356 232 355 248T352 280Q291 268 251 255T186 226T151 188T141 138Q141 95 160 72T215 48ZM91 705Q91 733 106 748T149 764Q176 764 192 748T208 705Q208 678 193 663T149 647Q122 647 107 662T91 705ZM321 705Q321 733 336 748T379 764Q406
764 422 748T438 705Q438 678 423 663T379 647Q352 647 337 662T321 705Z" />
<glyph unicode="&#xe5;" glyph-name="aring" horiz-adv-x="537" d="M38 117Q38 156 55 186T111 239T209 280T353 310Q348 369 342 402T324 455Q310 481 285 493T231 506Q203 506 181 496T150 469Q164 458 170 443T177 413Q177 388 161 374T120 359Q96 359 81 375T65
420Q65 451 82 475T126 516T188 541T257 550Q342 550 391 501Q453 439 453 281V136Q453 86 459 68T488 49H533V19Q461 -10 421 -10Q406 -10 396 -5T380 12T372 46T369 99H365Q334 48 283 19T173 -10Q110 -10 74 23T38 117ZM215 48Q243 48 273 62T325 103Q356 141
356 215Q356 232 355 248T352 280Q291 268 251 255T186 226T151 188T141 138Q141 95 160 72T215 48ZM181 713Q181 749 205 774T265 799Q301 799 326 774T351 713Q351 678 326 654T265 629Q230 629 206 653T181 713ZM223 713Q223 695 235 683T265 671Q284 671 296
683T309 713Q309 732 297 744T265 757Q247 757 235 745T223 713Z" />
<glyph unicode="&#xe6;" glyph-name="ae" horiz-adv-x="836" d="M38 117Q38 156 55 186T111 239T209 280T353 310Q348 369 342 402T324 455Q310 481 285 493T231 506Q203 506 181 496T150 469Q164 458 170 443T177 413Q177 388 161 374T120 359Q96 359 81 375T65
420Q65 451 82 475T126 516T188 541T257 550Q282 550 305 544T348 525T383 493T405 447H410Q430 498 476 524T579 550Q682 550 737 487T792 311Q792 301 792 293T789 264H440Q440 191 460 143Q480 96 516 77T597 57Q645 57 683 76T753 130L785 106Q767 82 747 61T700
24T642 -1T571 -10Q504 -10 453 17T372 99H365Q334 48 283 19T173 -10Q110 -10 74 23T38 117ZM573 496Q453 496 441 313H691V346Q691 418 661 457T573 496ZM215 48Q243 48 273 62T325 103Q356 141 356 215Q356 232 355 248T352 280Q291 268 251 255T186 226T151
188T141 138Q141 95 160 72T215 48Z" />
<glyph unicode="&#xe7;" glyph-name="ccedilla" horiz-adv-x="536" d="M261 -210Q208 -210 170 -182L197 -145Q226 -165 256 -165Q277 -165 290 -155T303 -129Q303 -99 249 -99Q228 -99 207 -105L194 -83L251 -8Q134 4 82 102Q65 134 56 175T46 264Q46 329 64
381T115 471T196 529T302 550Q389 550 440 508T492 394Q492 317 430 317Q401 317 385 333T369 376Q369 401 382 419T419 444Q390 499 308 499Q226 499 189 446T151 279Q151 184 177 134Q217 57 308 57Q354 57 396 77T468 134L498 110Q460 51 412 23T299 -9L269
-59L270 -62Q326 -62 350 -78T374 -126Q374 -167 341 -188T261 -210Z" />
<glyph unicode="&#xe8;" glyph-name="egrave" horiz-adv-x="544" d="M148 264Q148 191 168 143Q188 96 224 77T305 57Q353 57 391 76T461 130L493 106Q475 82 455 61T408 24T350 -1T279 -10Q210 -10 157 19T76 106Q61 137 54 174T47 256Q47 397 111 473T287 550Q390
550 445 487T500 311Q500 301 500 293T497 264H148ZM281 496Q161 496 149 313H399V346Q399 418 369 457T281 496ZM340 639H287L249 667Q201 702 181 723T161 760Q161 778 173 786T206 795Q227 795 244 778T291 715L340 639Z" />
<glyph unicode="&#xe9;" glyph-name="eacute" horiz-adv-x="544" d="M148 264Q148 191 168 143Q188 96 224 77T305 57Q353 57 391 76T461 130L493 106Q475 82 455 61T408 24T350 -1T279 -10Q210 -10 157 19T76 106Q61 137 54 174T47 256Q47 397 111 473T287 550Q390
550 445 487T500 311Q500 301 500 293T497 264H148ZM281 496Q161 496 149 313H399V346Q399 418 369 457T281 496ZM307 715Q336 760 353 777T392 795Q413 795 425 787T437 760Q437 745 417 724T349 667L311 639H258L307 715Z" />
<glyph unicode="&#xea;" glyph-name="ecircumflex" horiz-adv-x="544" d="M148 264Q148 191 168 143Q188 96 224 77T305 57Q353 57 391 76T461 130L493 106Q475 82 455 61T408 24T350 -1T279 -10Q210 -10 157 19T76 106Q61 137 54 174T47 256Q47 397 111 473T287
550Q390 550 445 487T500 311Q500 301 500 293T497 264H148ZM281 496Q161 496 149 313H399V346Q399 418 369 457T281 496ZM430 639H377L294 730L211 639H158L246 790H341L430 639Z" />
<glyph unicode="&#xeb;" glyph-name="edieresis" horiz-adv-x="544" d="M148 264Q148 191 168 143Q188 96 224 77T305 57Q353 57 391 76T461 130L493 106Q475 82 455 61T408 24T350 -1T279 -10Q210 -10 157 19T76 106Q61 137 54 174T47 256Q47 397 111 473T287
550Q390 550 445 487T500 311Q500 301 500 293T497 264H148ZM281 496Q161 496 149 313H399V346Q399 418 369 457T281 496ZM114 705Q114 733 129 748T172 764Q199 764 215 748T231 705Q231 678 216 663T172 647Q145 647 130 662T114 705ZM344 705Q344 733 359 748T402
764Q429 764 445 748T461 705Q461 678 446 663T402 647Q375 647 360 662T344 705Z" />
<glyph unicode="&#xec;" glyph-name="igrave" horiz-adv-x="312" d="M36 499V540H210V60L287 41V0H36V41L113 60V480L36 499ZM189 639H136L98 667Q50 702 30 723T10 760Q10 778 22 786T55 795Q76 795 93 778T140 715L189 639Z" />
<glyph unicode="&#xed;" glyph-name="iacute" horiz-adv-x="312" d="M36 499V540H210V60L287 41V0H36V41L113 60V480L36 499ZM183 715Q212 760 229 777T268 795Q289 795 301 787T313 760Q313 745 293 724T225 667L187 639H134L183 715Z" />
<glyph unicode="&#xee;" glyph-name="icircumflex" horiz-adv-x="312" d="M36 499V540H210V60L287 41V0H36V41L113 60V480L36 499ZM297 639H244L161 730L78 639H25L113 790H208L297 639Z" />
<glyph unicode="&#xef;" glyph-name="idieresis" horiz-adv-x="312" d="M36 499V540H210V60L287 41V0H36V41L113 60V480L36 499ZM-12 705Q-12 733 3 748T46 764Q73 764 89 748T105 705Q105 678 90 663T46 647Q19 647 4 662T-12 705ZM218 705Q218 733 233 748T276
764Q303 764 319 748T335 705Q335 678 320 663T276 647Q249 647 234 662T218 705Z" />
<glyph unicode="&#xf0;" glyph-name="eth" horiz-adv-x="569" d="M139 210Q139 45 272 45Q405 45 405 210Q405 373 272 373Q139 373 139 210ZM426 351Q422 420 397 482T332 593L199 535L176 586L297 639Q283 656 266 675T230 711L282 730Q295 721 311 706T353
663L442 702L467 654L392 621Q427 578 451 539T491 460T514 380T521 294Q521 147 456 69T268 -10Q214 -10 170 5T96 50T49 119T32 211Q32 260 47 300T91 369T158 414T245 430Q300 430 347 409T422 351H426Z" />
<glyph unicode="&#xf1;" glyph-name="ntilde" horiz-adv-x="655" d="M113 480L36 499V540H180L202 440H206Q236 491 286 520T396 550Q436 550 468 536T519 496Q539 468 547 418T556 281V60L633 41V0H392V41L459 60V283Q459 347 456 379T443 430Q418 479 355 479Q327
479 301 469T255 442Q233 422 223 396T210 327V60L277 41V0H36V41L113 60V480ZM163 639Q179 754 275 754Q300 754 319 746T354 727T385 708T421 699Q451 699 466 712T486 749H531Q513 628 419 628Q394 628 376 636T341 655T308 675T273 684Q243 684 228 672T208
639H163Z" />
<glyph unicode="&#xf2;" glyph-name="ograve" horiz-adv-x="582" d="M536 275Q536 209 517 151T462 55Q403 -10 288 -10Q176 -10 117 53Q83 90 65 144T46 263Q46 329 65 388T120 485Q152 519 194 534T292 550Q347 550 391 535T465 487Q500 450 518 395T536 275ZM153
274Q153 154 189 95Q206 69 229 56T291 42Q360 42 394 89Q412 115 420 161T429 267Q429 386 393 445Q376 471 352 484T290 498Q220 498 189 452Q153 396 153 274ZM319 639H266L228 667Q180 702 160 723T140 760Q140 778 152 786T185 795Q206 795 223 778T270 715L319
639Z" />
<glyph unicode="&#xf3;" glyph-name="oacute" horiz-adv-x="582" d="M536 275Q536 209 517 151T462 55Q403 -10 288 -10Q176 -10 117 53Q83 90 65 144T46 263Q46 329 65 388T120 485Q152 519 194 534T292 550Q347 550 391 535T465 487Q500 450 518 395T536 275ZM153
274Q153 154 189 95Q206 69 229 56T291 42Q360 42 394 89Q412 115 420 161T429 267Q429 386 393 445Q376 471 352 484T290 498Q220 498 189 452Q153 396 153 274ZM313 715Q342 760 359 777T398 795Q419 795 431 787T443 760Q443 745 423 724T355 667L317 639H264L313
715Z" />
<glyph unicode="&#xf4;" glyph-name="ocircumflex" horiz-adv-x="582" d="M536 275Q536 209 517 151T462 55Q403 -10 288 -10Q176 -10 117 53Q83 90 65 144T46 263Q46 329 65 388T120 485Q152 519 194 534T292 550Q347 550 391 535T465 487Q500 450 518 395T536
275ZM153 274Q153 154 189 95Q206 69 229 56T291 42Q360 42 394 89Q412 115 420 161T429 267Q429 386 393 445Q376 471 352 484T290 498Q220 498 189 452Q153 396 153 274ZM427 639H374L291 730L208 639H155L243 790H338L427 639Z" />
<glyph unicode="&#xf5;" glyph-name="otilde" horiz-adv-x="582" d="M536 275Q536 209 517 151T462 55Q403 -10 288 -10Q176 -10 117 53Q83 90 65 144T46 263Q46 329 65 388T120 485Q152 519 194 534T292 550Q347 550 391 535T465 487Q500 450 518 395T536 275ZM153
274Q153 154 189 95Q206 69 229 56T291 42Q360 42 394 89Q412 115 420 161T429 267Q429 386 393 445Q376 471 352 484T290 498Q220 498 189 452Q153 396 153 274ZM107 639Q123 754 219 754Q244 754 263 746T298 727T329 708T365 699Q395 699 410 712T430 749H475Q457
628 363 628Q338 628 320 636T285 655T252 675T217 684Q187 684 172 672T152 639H107Z" />
<glyph unicode="&#xf6;" glyph-name="odieresis" horiz-adv-x="582" d="M536 275Q536 209 517 151T462 55Q403 -10 288 -10Q176 -10 117 53Q83 90 65 144T46 263Q46 329 65 388T120 485Q152 519 194 534T292 550Q347 550 391 535T465 487Q500 450 518 395T536
275ZM153 274Q153 154 189 95Q206 69 229 56T291 42Q360 42 394 89Q412 115 420 161T429 267Q429 386 393 445Q376 471 352 484T290 498Q220 498 189 452Q153 396 153 274ZM118 705Q118 733 133 748T176 764Q203 764 219 748T235 705Q235 678 220 663T176 647Q149
647 134 662T118 705ZM348 705Q348 733 363 748T406 764Q433 764 449 748T465 705Q465 678 450 663T406 647Q379 647 364 662T348 705Z" />
<glyph unicode="&#xf7;" glyph-name="divide" horiz-adv-x="555" d="M59 379H497V325H59V379ZM222 174Q222 203 237 219T281 235Q309 235 325 219T341 174Q341 146 325 131T281 115Q222 115 222 174ZM222 528Q222 557 237 573T281 589Q309 589 325 573T341 528Q341
500 325 485T281 469Q222 469 222 528Z" />
<glyph unicode="&#xf8;" glyph-name="oslash" horiz-adv-x="582" d="M536 275Q536 209 517 151T462 55Q403 -10 288 -10Q237 -10 193 4L160 -60H96L143 30Q128 40 117 53Q83 90 65 144T46 263Q46 329 65 388T120 485Q152 519 194 534T292 550Q355 550 403 529L430
582H494L451 500L465 487Q500 450 518 395T536 275ZM153 274Q153 218 161 177T183 106L372 470Q357 484 337 491T290 498Q220 498 189 452Q153 396 153 274ZM429 267Q429 357 407 415L222 59Q248 42 291 42Q360 42 394 89Q412 115 420 161T429 267Z" />
<glyph unicode="&#xf9;" glyph-name="ugrave" horiz-adv-x="633" d="M193 257Q193 225 194 201T196 160T201 131T209 110Q232 61 293 61Q320 61 345 71T389 98Q411 118 421 144T434 213V480L347 499V540H531V60L608 41V0L453 -10L442 100H438Q409 49 359 20T252
-10Q214 -10 183 4T133 44Q113 72 105 122T96 259V480L29 499V540H193V257ZM339 639H286L248 667Q200 702 180 723T160 760Q160 778 172 786T205 795Q226 795 243 778T290 715L339 639Z" />
<glyph unicode="&#xfa;" glyph-name="uacute" horiz-adv-x="633" d="M193 257Q193 225 194 201T196 160T201 131T209 110Q232 61 293 61Q320 61 345 71T389 98Q411 118 421 144T434 213V480L347 499V540H531V60L608 41V0L453 -10L442 100H438Q409 49 359 20T252
-10Q214 -10 183 4T133 44Q113 72 105 122T96 259V480L29 499V540H193V257ZM333 715Q362 760 379 777T418 795Q439 795 451 787T463 760Q463 745 443 724T375 667L337 639H284L333 715Z" />
<glyph unicode="&#xfb;" glyph-name="ucircumflex" horiz-adv-x="633" d="M193 257Q193 225 194 201T196 160T201 131T209 110Q232 61 293 61Q320 61 345 71T389 98Q411 118 421 144T434 213V480L347 499V540H531V60L608 41V0L453 -10L442 100H438Q409 49 359
20T252 -10Q214 -10 183 4T133 44Q113 72 105 122T96 259V480L29 499V540H193V257ZM447 639H394L311 730L228 639H175L263 790H358L447 639Z" />
<glyph unicode="&#xfc;" glyph-name="udieresis" horiz-adv-x="633" d="M193 257Q193 225 194 201T196 160T201 131T209 110Q232 61 293 61Q320 61 345 71T389 98Q411 118 421 144T434 213V480L347 499V540H531V60L608 41V0L453 -10L442 100H438Q409 49 359 20T252
-10Q214 -10 183 4T133 44Q113 72 105 122T96 259V480L29 499V540H193V257ZM138 705Q138 733 153 748T196 764Q223 764 239 748T255 705Q255 678 240 663T196 647Q169 647 154 662T138 705ZM368 705Q368 733 383 748T426 764Q453 764 469 748T485 705Q485 678 470
663T426 647Q399 647 384 662T368 705Z" />
<glyph unicode="&#xfd;" glyph-name="yacute" horiz-adv-x="590" d="M348 24Q327 -34 310 -75T273 -141T231 -178T174 -190Q150 -190 130 -184T94 -165T69 -137T60 -102Q60 -74 76 -56T118 -37Q141 -37 154 -49T168 -84Q168 -98 163 -111T148 -134Q150 -145 159
-148T177 -151Q187 -151 196 -148T215 -134T235 -101T258 -44L270 -7L63 480L3 499V540H227L235 499L164 480L313 88H317L443 480L385 499V540H575V499L514 480L348 24ZM307 715Q336 760 353 777T392 795Q413 795 425 787T437 760Q437 745 417 724T349 667L311
639H258L307 715Z" />
<glyph unicode="&#xfe;" glyph-name="thorn" horiz-adv-x="600" d="M554 275Q554 215 535 159T483 65Q427 0 322 0Q274 0 240 18T180 75V-120L277 -139V-180H6V-139L83 -120V720L6 739V780H180V482Q208 517 243 533T330 550Q439 550 490 487Q521 449 537 394T554
275ZM180 274Q180 215 188 175T215 105Q247 52 315 52Q348 52 374 64T416 99Q432 122 440 165T449 267Q449 327 441 371T415 445Q398 473 374 485T314 498Q241 498 215 452Q180 393 180 274Z" />
<glyph unicode="&#xff;" glyph-name="ydieresis" horiz-adv-x="590" d="M348 24Q327 -34 310 -75T273 -141T231 -178T174 -190Q150 -190 130 -184T94 -165T69 -137T60 -102Q60 -74 76 -56T118 -37Q141 -37 154 -49T168 -84Q168 -98 163 -111T148 -134Q150 -145
159 -148T177 -151Q187 -151 196 -148T215 -134T235 -101T258 -44L270 -7L63 480L3 499V540H227L235 499L164 480L313 88H317L443 480L385 499V540H575V499L514 480L348 24ZM140 705Q140 733 155 748T198 764Q225 764 241 748T257 705Q257 678 242 663T198 647Q171
647 156 662T140 705ZM370 705Q370 733 385 748T428 764Q455 764 471 748T487 705Q487 678 472 663T428 647Q401 647 386 662T370 705Z" />
<glyph unicode="&#x2013;" glyph-name="endash" horiz-adv-x="618" d="M62 307H556V249H62V307Z" />
<glyph unicode="&#x2014;" glyph-name="emdash" horiz-adv-x="927" d="M63 307H864V249H63V307Z" />
<glyph unicode="&#x2018;" glyph-name="quoteleft" horiz-adv-x="242" d="M117 493Q85 493 67 515T48 576Q48 630 78 674T172 760L194 735Q151 700 127 669T101 614L105 611Q107 615 114 617T130 620Q153 620 167 603T182 558Q182 529 164 511T117 493Z" />
<glyph unicode="&#x2019;" glyph-name="quoteright" horiz-adv-x="240" d="M129 760Q161 760 179 738T198 677Q198 623 168 579T74 493L52 518Q95 553 119 584T145 639L141 642Q139 638 132 636T116 633Q93 633 79 650T64 695Q64 724 82 742T129 760Z" />
<glyph unicode="&#x201a;" glyph-name="quotesinglbase" horiz-adv-x="247" d="M121 118Q153 118 171 96T190 35Q190 -19 160 -63T66 -149L44 -124Q87 -89 111 -58T137 -3L133 0Q131 -4 124 -6T108 -9Q85 -9 71 8T56 53Q56 82 74 100T121 118Z" />
<glyph unicode="&#x201c;" glyph-name="quotedblleft" horiz-adv-x="442" d="M317 493Q285 493 267 515T248 576Q248 630 278 674T372 760L394 735Q351 700 327 669T301 614L305 611Q307 615 314 617T330 620Q353 620 367 603T382 558Q382 529 364 511T317 493ZM117
493Q85 493 67 515T48 576Q48 630 78 674T172 760L194 735Q151 700 127 669T101 614L105 611Q107 615 114 617T130 620Q153 620 167 603T182 558Q182 529 164 511T117 493Z" />
<glyph unicode="&#x201d;" glyph-name="quotedblright" horiz-adv-x="440" d="M129 760Q161 760 179 738T198 677Q198 623 168 579T74 493L52 518Q95 553 119 584T145 639L141 642Q139 638 132 636T116 633Q93 633 79 650T64 695Q64 724 82 742T129 760ZM329 760Q361
760 379 738T398 677Q398 623 368 579T274 493L252 518Q295 553 319 584T345 639L341 642Q339 638 332 636T316 633Q293 633 279 650T264 695Q264 724 282 742T329 760Z" />
<glyph unicode="&#x201e;" glyph-name="quotedblbase" horiz-adv-x="447" d="M121 118Q153 118 171 96T190 35Q190 -19 160 -63T66 -149L44 -124Q87 -89 111 -58T137 -3L133 0Q131 -4 124 -6T108 -9Q85 -9 71 8T56 53Q56 82 74 100T121 118ZM321 118Q353 118 371
96T390 35Q390 -19 360 -63T266 -149L244 -124Q287 -89 311 -58T337 -3L333 0Q331 -4 324 -6T308 -9Q285 -9 271 8T256 53Q256 82 274 100T321 118Z" />
<glyph unicode="&#x2022;" glyph-name="bullet" horiz-adv-x="400" d="M82 343Q82 400 113 432T200 464Q255 464 287 431T319 343Q319 288 287 257T200 226Q143 226 113 256T82 343Z" />
<glyph unicode="&#x2039;" glyph-name="guilsinglleft" horiz-adv-x="324" d="M274 54L240 21L41 236V270L240 485L273 458L141 255L274 54Z" />
<glyph unicode="&#x203a;" glyph-name="guilsinglright" horiz-adv-x="324" d="M183 255L51 458L84 485L283 270V236L84 21L50 54L183 255Z" />
</font>
</defs>
</svg>
