<?xml version="1.0" standalone="no"?>
<!DOCTYPE svg PUBLIC "-//W3C//DTD SVG 1.1//EN" "http://www.w3.org/Graphics/SVG/1.1/DTD/svg11.dtd">
<svg xmlns="http://www.w3.org/2000/svg">
<defs >
<font id="AlegreyaSans" horiz-adv-x="557" ><font-face
    font-family="Alegreya Sans Black"
    units-per-em="1000"
    panose-1="0 0 10 0 0 0 0 0 0 0"
    ascent="900"
    descent="-300"
    alphabetic="0" />
<glyph unicode=" " glyph-name="space" horiz-adv-x="135" />
<glyph unicode="!" glyph-name="exclam" horiz-adv-x="274" d="M248 649L196 259L87 243L68 261L51 639L68 661L225 672L248 649ZM173 190T197 165T222 95Q222 47 195 19T121 -9Q75 -9 51 15T27 86Q27 134 54 162T129 190Q173 190 197 165Z" />
<glyph unicode="&quot;" glyph-name="quotedbl" horiz-adv-x="443" d="M214 634L166 372L78 358L63 369L53 637L204 646L214 634ZM407 634L359 372L271 358L256 369L246 637L397 646L407 634Z" />
<glyph unicode="#" glyph-name="numbersign" horiz-adv-x="587" d="M468 346L454 256H526L537 244L529 147H436L418 31H307L298 43L315 147H223L205 31H94L85 43L102 147H31L20 159L28 256H119L133 346H61L50 358L58 455H150L169 572H277L289 559L272 455H363L382
572H490L502 559L485 455H556L567 443L559 346H468ZM346 346H255L241 256H332L346 346Z" />
<glyph unicode="$" glyph-name="dollar" horiz-adv-x="469" d="M436 110T399 62T286 -4L278 -142H163L149 -127L156 -10Q89 -3 24 16L51 177L68 190Q107 159 153 139T229 119Q253 119 253 135Q253 147 240 154T192 175Q147 191 116 208T62 257T39 340Q39 402 77
448T184 513L191 647H303L320 632L314 521Q370 516 427 496L400 342L374 335Q339 358 302 372T243 386Q222 386 222 373Q222 360 236 352T285 331Q330 315 360 299T413 251T436 170Q436 110 399 62Z" />
<glyph unicode="%" glyph-name="percent" horiz-adv-x="889" d="M693 647L703 623L241 -94L159 -44L153 -27L617 694L693 647ZM274 655T314 609T355 476Q355 382 310 332T179 281Q102 281 61 327T20 458Q20 553 66 604T198 655Q274 655 314 609ZM158 535T147 520T135
467Q135 426 146 409T187 391Q217 391 229 407T241 461Q241 501 229 518T186 535Q158 535 147 520ZM787 367T827 321T868 188Q868 94 823 44T692 -7Q615 -7 574 39T533 170Q533 265 579 316T711 367Q787 367 827 321ZM671 247T660 232T648 179Q648 138 659 121T700
103Q730 103 742 119T754 173Q754 213 742 230T699 247Q671 247 660 232Z" />
<glyph unicode="&amp;" glyph-name="ampersand" horiz-adv-x="730" d="M600 300T600 263Q600 197 576 146L705 28V16Q659 -36 601 -71H589L474 34Q394 -12 280 -12Q159 -12 90 38T21 177Q21 284 133 336L134 348Q74 416 74 487Q74 564 134 609T305 655Q395 655
475 631L431 488H408Q350 521 298 521Q244 521 244 476Q244 460 253 446T290 406L469 243Q474 266 474 288Q474 313 471 331H420L412 342L424 467H717L728 454L716 331H603L598 320Q600 300 600 263ZM338 121T367 131L212 272Q188 244 188 209Q188 121 299 121Q338
121 367 131Z" />
<glyph unicode="&apos;" glyph-name="quotesingle" horiz-adv-x="250" d="M214 634L166 372L78 358L63 369L53 637L204 646L214 634Z" />
<glyph unicode="(" glyph-name="parenleft" horiz-adv-x="302" d="M300 602V587Q255 537 234 456T212 251Q212 138 233 62T300 -65V-80L231 -137H214Q133 -77 95 17T56 250Q56 400 94 499T214 659H231L300 602Z" />
<glyph unicode=")" glyph-name="parenright" horiz-adv-x="294" d="M-9 -80V-65Q36 -15 57 66T79 271Q79 384 58 460T-9 587V602L60 659H77Q158 599 196 505T235 272Q235 122 197 23T77 -137H60L-9 -80Z" />
<glyph unicode="*" glyph-name="asterisk" horiz-adv-x="394" d="M258 741L222 614L171 608L162 616L156 734Q199 749 253 751L258 741ZM150 605L141 554L130 549L16 579Q15 623 29 676L41 679L150 605ZM375 609T393 561L386 553L254 549L231 595L236 606L348
648Q375 609 393 561ZM250 533L325 440Q301 407 256 370L246 374L201 499L238 534L250 533ZM182 509L184 498L120 398Q82 409 31 440L32 452L136 533L182 509Z" />
<glyph unicode="+" glyph-name="plus" horiz-adv-x="480" d="M306 469V320H454L466 307L457 190H306V38L189 29L176 41V190H27L15 203L24 320H176V472L293 481L306 469Z" />
<glyph unicode="," glyph-name="comma" horiz-adv-x="228" d="M186 160T197 134T209 77Q209 19 172 -34T57 -142L-4 -89L-6 -75Q23 -50 36 -24T50 34Q50 76 17 109L18 125Q90 165 161 183Q186 160 197 134Z" />
<glyph unicode="-" glyph-name="hyphen" horiz-adv-x="299" d="M273 326L274 206L39 168L25 182V302L259 340L273 326Z" />
<glyph unicode="." glyph-name="period" horiz-adv-x="228" d="M162 190T186 165T211 95Q211 47 184 19T110 -9Q64 -9 40 15T16 86Q16 134 43 162T118 190Q162 190 186 165Z" />
<glyph unicode="/" glyph-name="slash" horiz-adv-x="280" d="M326 667L118 -118H-17L-28 -103L180 683H311L326 667Z" />
<glyph unicode="0" glyph-name="zero" horiz-adv-x="513" d="M371 524T427 458T484 270Q484 136 421 62T245 -12Q143 -12 86 55T29 243Q29 375 92 449T270 524Q371 524 427 458ZM214 342T197 323T180 256Q180 204 197 182T256 159Q298 159 316 179T334 247Q334
299 316 320T255 342Q214 342 197 323Z" />
<glyph unicode="1" glyph-name="one" horiz-adv-x="379" d="M303 502L293 210L301 0H103L111 190V299L17 279L5 288V446L275 522L303 502Z" />
<glyph unicode="2" glyph-name="two" horiz-adv-x="490" d="M334 522T385 487T436 387Q436 346 412 301T329 197L285 153L288 148H365L462 158L472 146L450 -8L306 0H76L40 -3L31 4V122L159 232Q200 269 220 293T241 334Q241 357 206 357Q179 357 145 344T80 307H59L26
459Q150 522 254 522Q334 522 385 487Z" />
<glyph unicode="3" glyph-name="three" horiz-adv-x="453" d="M309 524T364 483T419 375Q419 338 399 301T330 235V229Q378 212 401 179T424 94Q424 39 389 -3T291 -69T145 -93Q84 -93 27 -82L17 62L30 74Q99 54 151 54Q194 54 215 65T236 101Q236 134 190 134H106L98
146L103 280L148 282Q179 284 199 297T219 333Q219 350 208 358T173 366Q150 366 124 358T63 334H43L15 469Q62 495 115 509T219 524Q309 524 364 483Z" />
<glyph unicode="4" glyph-name="four" horiz-adv-x="529" d="M499 28L431 30L437 -73L427 -86L274 -95L264 -83L268 32H139L27 28L15 44V167L251 514H431L427 181H496L507 164L499 28ZM180 181H272L271 300H260L180 181Z" />
<glyph unicode="5" glyph-name="five" horiz-adv-x="448" d="M428 510L407 362L394 348L283 363H204L202 302L262 289Q342 272 379 233T417 126Q417 60 383 10T286 -67T142 -95Q79 -95 13 -81L4 59L17 72Q81 53 145 53Q186 53 208 66T231 104Q231 124 217 135T172
152L63 170L52 184L57 498L76 518L139 514H300L417 522L428 510Z" />
<glyph unicode="6" glyph-name="six" horiz-adv-x="498" d="M358 376T397 351T456 284T477 195Q477 143 452 96T374 18T245 -12Q139 -12 79 50T18 220Q18 335 92 433T303 598H312L436 512V493Q351 459 304 432T232 371L236 366Q271 376 303 376Q358 376 397 351ZM301
113T301 176Q301 209 288 225T244 241Q222 241 195 232V223Q195 164 205 139T250 113Q301 113 301 176Z" />
<glyph unicode="7" glyph-name="seven" horiz-adv-x="450" d="M159 514H369L426 516V374L295 89L225 -97L69 -54L57 -24L237 353H128L17 341L8 356L20 519L159 514Z" />
<glyph unicode="8" glyph-name="eight" horiz-adv-x="515" d="M363 598T414 557T465 445Q465 369 385 317V309Q429 286 454 254T479 174Q479 87 415 38T242 -12Q141 -12 87 30T33 141Q33 188 58 219T136 272V280Q48 328 48 419Q48 502 109 550T273 598Q363 598
414 557ZM232 466T219 456T206 426Q206 404 224 389T278 360Q313 390 313 422Q313 442 299 454T259 466Q232 466 219 456ZM216 215T205 203T193 169Q193 144 209 130T258 116Q289 116 305 128T321 159Q321 181 302 195T243 225Q216 215 205 203Z" />
<glyph unicode="9" glyph-name="nine" horiz-adv-x="498" d="M359 525T419 463T480 293Q480 178 406 80T195 -85H186L62 1V20Q147 54 194 81T266 142L262 147Q227 137 195 137Q140 137 101 162T42 229T21 318Q21 370 46 417T124 495T253 525Q359 525 419 463ZM276
272T303 281V290Q303 349 293 374T248 400Q197 400 197 337Q197 304 210 288T254 272Q276 272 303 281Z" />
<glyph unicode=":" glyph-name="colon" horiz-adv-x="228" d="M413 190T437 165T462 95Q462 47 435 19T361 -9Q315 -9 291 15T267 86Q267 134 294 162T369 190Q413 190 437 165ZM157 445T181 420T206 350Q206 302 179 274T105 246Q59 246 35 270T11 341Q11 389
38 417T113 445Q157 445 181 420Z" />
<glyph unicode=";" glyph-name="semicolon" horiz-adv-x="228" d="M437 160T448 134T460 77Q460 19 423 -34T308 -142L247 -89L245 -75Q274 -50 287 -24T301 34Q301 76 268 109L269 125Q341 165 412 183Q437 160 448 134ZM157 445T181 420T206 350Q206 302 179
274T105 246Q59 246 35 270T11 341Q11 389 38 417T113 445Q157 445 181 420Z" />
<glyph unicode="&lt;" glyph-name="less" horiz-adv-x="480" d="M448 369L441 356L164 264V255L440 164L414 56L398 43L31 177V333L43 350L408 480L448 369Z" />
<glyph unicode="=" glyph-name="equal" horiz-adv-x="480" d="M466 413L457 296H27L15 309L24 426H454L466 413ZM466 456L457 339H27L15 352L24 469H454L466 456Z" />
<glyph unicode="&gt;" glyph-name="greater" horiz-adv-x="480" d="M437 350L449 333V177L82 43L66 56L40 164L316 255V264L39 356L32 369L72 480L437 350Z" />
<glyph unicode="?" glyph-name="question" horiz-adv-x="351" d="M228 671T306 628T384 510Q384 467 359 430T285 367L227 337L224 331L231 260L95 240L82 252L69 378L75 389L159 422Q207 442 207 480Q207 508 172 522T45 542L31 560L66 668L83 677Q228 671 306
628ZM215 190T239 165T264 95Q264 47 237 19T163 -9Q117 -9 93 15T69 86Q69 134 96 162T171 190Q215 190 239 165Z" />
<glyph unicode="@" glyph-name="at" horiz-adv-x="866" d="M856 170T747 86T436 2L450 105H435Q401 39 365 -5H343Q269 13 241 52T213 154Q213 214 237 273T313 382T440 456H446L538 441L641 462L652 454L609 133Q665 147 698 198T731 321Q731 422 665 481T485
540Q384 540 307 497T188 377T146 204Q146 103 193 30T325 -81T524 -119L531 -136L481 -225Q341 -225 237 -178T76 -39T19 183Q19 316 78 425T244 596T491 659Q600 659 682 620T810 505T856 327Q856 170 747 86ZM403 150T423 185T475 296L478 317L414 333Q369 333
369 224Q369 150 389 150Q403 150 423 185Z" />
<glyph unicode="A" glyph-name="A" horiz-adv-x="627" d="M617 0H414L396 107L395 110L297 112L215 108L198 0H2L198 647H440L617 0ZM365 256L321 468H309L253 256L309 255L365 256Z" />
<glyph unicode="B" glyph-name="B" horiz-adv-x="629" d="M547 315T575 280T604 187Q604 86 522 40T275 -7Q184 -7 60 0L70 190L60 647L349 648Q459 648 521 606T583 482Q583 432 558 394T484 333Q547 315 575 280ZM379 488T355 501T263 515H254L250 383L325 380Q353
389 366 406T379 453Q379 488 355 501ZM354 125T377 143T401 195Q401 218 388 232T344 256L247 254L246 210L249 129Q299 125 313 125Q354 125 377 143Z" />
<glyph unicode="C" glyph-name="C" horiz-adv-x="514" d="M438 658T514 631L480 472L467 464Q441 478 407 486T344 495Q283 495 256 460T229 341Q229 244 260 200T357 155Q385 155 419 160T480 176L496 166L480 8Q420 -11 341 -11Q180 -11 99 73T17 318Q17 480
104 569T352 658Q438 658 514 631Z" />
<glyph unicode="D" glyph-name="D" horiz-adv-x="665" d="M495 651T571 574T648 350Q648 177 559 84T304 -9Q200 -9 60 0L70 190L60 647L352 651Q495 651 571 574ZM389 140T413 177T438 301Q438 374 428 416T396 476T335 495Q297 495 260 491L253 210L255 148Q315
140 342 140Q389 140 413 177Z" />
<glyph unicode="E" glyph-name="E" horiz-adv-x="541" d="M517 160L528 146L516 0H60L70 190L60 647H524L535 633L522 487L363 493H260L258 402H357L461 405L472 391L460 245L344 248H254L253 210L255 154H351L517 160Z" />
<glyph unicode="F" glyph-name="F" horiz-adv-x="481" d="M260 493L257 377H325L441 380L452 366L440 220L311 223H253V210L261 0H60L70 190L60 647H492L503 633L490 487L330 493H260Z" />
<glyph unicode="G" glyph-name="G" horiz-adv-x="596" d="M490 658T569 628L526 451H510Q460 476 424 487T344 498Q298 498 274 483T238 430T227 320Q227 247 238 209T275 155T352 139Q366 139 388 143V175L385 284L568 297L565 209V32Q449 -12 334 -12Q177 -12
97 71T17 310Q17 480 111 569T382 658Q490 658 569 628Z" />
<glyph unicode="H" glyph-name="H" horiz-adv-x="711" d="M648 210L656 0H455L465 190L464 240L356 242L263 239L262 210L270 0H69L79 190L69 647H273L267 402L368 400L460 402L455 647H659L648 210Z" />
<glyph unicode="I" glyph-name="I" horiz-adv-x="327" d="M253 210L261 0H60L70 190L60 647H264L253 210Z" />
<glyph unicode="J" glyph-name="J" horiz-adv-x="362" d="M293 213L295 124Q295 61 274 18T205 -56T70 -112L18 -9V7Q69 32 89 59T110 130V193L103 506L18 503L7 516L15 647H304L293 213Z" />
<glyph unicode="K" glyph-name="K" horiz-adv-x="628" d="M529 197T647 42L644 20Q539 -3 444 -12L422 0Q320 175 255 297L253 210L261 0H60L70 190L60 647H264L257 377L381 577L415 647H627L437 341Q529 197 647 42Z" />
<glyph unicode="L" glyph-name="L" horiz-adv-x="452" d="M452 150L440 0H55L65 190L55 647H259L248 210L250 164H441L452 150Z" />
<glyph unicode="M" glyph-name="M" horiz-adv-x="806" d="M774 0H598L593 196L582 359H570L466 61H315L229 359H217L203 215L193 0H26L89 647H320L339 555L396 320H408L471 548L494 647H722L774 0Z" />
<glyph unicode="N" glyph-name="N" horiz-adv-x="710" d="M639 211L647 0H429L247 346H235L234 234L242 0H60L70 190L60 647H278L460 301H472L466 640L650 651L639 211Z" />
<glyph unicode="O" glyph-name="O" horiz-adv-x="653" d="M482 659T559 576T636 340Q636 172 552 80T312 -12Q171 -12 94 72T17 312Q17 478 101 568T341 659Q482 659 559 576ZM284 499T264 486T236 438T227 339Q227 256 236 213T266 153T330 136Q369 136 389 149T417
197T426 297Q426 379 417 422T387 482T323 499Q284 499 264 486Z" />
<glyph unicode="P" glyph-name="P" horiz-adv-x="593" d="M476 648T534 595T593 442Q593 365 557 307T455 216T303 183H254L261 0H60L70 190L60 647L367 648Q476 648 534 595ZM358 338T370 361T383 422Q383 466 362 486T296 509L260 506L256 327L331 323Q358 338
370 361Z" />
<glyph unicode="Q" glyph-name="Q" horiz-adv-x="661" d="M741 -78Q702 -155 645 -205L631 -212Q459 -125 328 -12H312Q171 -12 94 72T17 312Q17 478 101 568T341 659Q482 659 559 576T636 340Q636 235 602 159T503 39Q620 -22 733 -60L741 -78ZM227 256T236 213T266
153T330 136Q369 136 389 149T417 197T426 297Q426 379 417 422T387 482T323 499Q284 499 264 486T236 438T227 339Q227 256 236 213Z" />
<glyph unicode="R" glyph-name="R" horiz-adv-x="631" d="M558 143T630 47L627 25Q525 -6 426 -12L407 4L395 29Q387 45 363 96T321 193H254L261 0H60L70 190L60 647L367 648Q476 648 535 597T594 448Q594 391 566 341T486 255Q558 143 630 47ZM383 468T363 487T296
509L260 506L256 339L329 335Q357 348 370 370T383 428Q383 468 363 487Z" />
<glyph unicode="S" glyph-name="S" horiz-adv-x="528" d="M400 659T493 624L461 461L433 449Q391 475 350 490T284 505Q261 505 248 496T234 472Q234 453 254 440T323 404Q379 379 415 358T478 299T505 206Q505 145 472 96T376 17T232 -12Q130 -12 18 26L47 200L67
212Q113 177 165 157T253 136Q281 136 293 145T306 169Q306 190 285 204T215 240Q160 264 125 285T63 344T37 437Q37 500 71 550T166 630T305 659Q400 659 493 624Z" />
<glyph unicode="T" glyph-name="T" horiz-adv-x="519" d="M513 633L502 487L370 493H358L353 210L361 0H161L171 190L166 493H153L20 487L8 501L19 647H502L513 633Z" />
<glyph unicode="U" glyph-name="U" horiz-adv-x="653" d="M600 319L599 216Q598 106 525 47T316 -12Q185 -12 116 47T49 216L52 319L46 647H247L238 243Q237 192 257 169T324 146Q371 146 392 169T412 243L403 647H607L600 319Z" />
<glyph unicode="V" glyph-name="V" horiz-adv-x="615" d="M423 0H181L4 647H207L225 540L300 179H312L404 528L423 647H619L423 0Z" />
<glyph unicode="W" glyph-name="W" horiz-adv-x="914" d="M723 0H511L450 234H438L382 0H169L17 647H211L221 547L284 201H296L371 496L337 647H539L553 527L621 201H633L712 535L730 647H914L723 0Z" />
<glyph unicode="X" glyph-name="X" horiz-adv-x="659" d="M458 342L653 0H414L380 79L322 184L248 69L216 0H13L205 311L7 647H247L282 566L339 464L404 577L434 647H643L458 342Z" />
<glyph unicode="Y" glyph-name="Y" horiz-adv-x="594" d="M382 170L390 0H190L200 170L199 201L-8 647H202L218 593L291 398H303L387 586L410 647H614L384 208L382 170Z" />
<glyph unicode="Z" glyph-name="Z" horiz-adv-x="570" d="M538 504L263 148H424L547 157L553 148L537 -5L359 0H129L28 -6V137L308 499H151L31 489L24 497L38 650L188 647H462L538 648V504Z" />
<glyph unicode="[" glyph-name="bracketleft" horiz-adv-x="302" d="M311 640V554L217 539V-13L311 -28V-114L304 -123L59 -113L70 263L59 639L304 649L311 640Z" />
<glyph unicode="\" glyph-name="backslash" horiz-adv-x="280" d="M-28 667L-13 683H118L326 -103L315 -118H180L-28 667Z" />
<glyph unicode="]" glyph-name="bracketright" horiz-adv-x="302" d="M-9 -114V-28L85 -13V539L-9 554V640L-2 649L243 639L232 263L243 -113L-2 -123L-9 -114Z" />
<glyph unicode="^" glyph-name="asciicircum" horiz-adv-x="460" d="M449 161L436 145L328 119L237 370H228L136 118L123 111L12 151L142 491L159 502H315L449 161Z" />
<glyph unicode="_" glyph-name="underscore" horiz-adv-x="438" d="M453 -104L444 -211H-3L-15 -198L-6 -91H441L453 -104Z" />
<glyph unicode="`" glyph-name="grave" horiz-adv-x="388" d="M236 670T338 594L294 522L277 521Q196 558 54 630L51 647L120 754L137 755Q236 670 338 594Z" />
<glyph unicode="a" glyph-name="a" horiz-adv-x="503" d="M350 484T400 447T450 339Q450 319 446 233Q442 157 442 148Q442 137 445 132T456 127Q463 127 473 130L485 120L468 20Q431 -6 375 -10Q346 -8 324 10T289 61H282Q238 10 182 -11Q106 -10 61 31T15 145Q15
256 130 272L272 291V303Q272 329 262 340T225 351Q169 351 80 303L68 311L47 434Q93 458 148 471T258 484Q350 484 400 447ZM215 198Q201 196 195 188T188 162Q188 122 225 122Q249 122 272 138V206L215 198Z" />
<glyph unicode="b" glyph-name="b" horiz-adv-x="534" d="M421 479T470 418T520 248Q520 122 455 55T277 -12Q214 -12 142 13L60 -12L43 7L51 190L44 689L238 702L232 404H237Q279 454 333 479Q421 479 470 418ZM301 108T319 132T337 217Q337 272 321 298T269
325Q249 325 231 314L229 215L230 114Q250 108 266 108Q301 108 319 132Z" />
<glyph unicode="c" glyph-name="c" horiz-adv-x="384" d="M328 484T382 460L351 312L337 305Q310 316 293 321T261 326Q230 326 215 308T200 249Q200 192 217 166T273 140Q304 140 358 155L371 144L351 1Q299 -12 226 -12Q125 -12 70 50T14 228Q14 350 78 417T260
484Q328 484 382 460Z" />
<glyph unicode="d" glyph-name="d" horiz-adv-x="535" d="M480 210L481 149Q481 137 484 132T494 127Q501 127 511 130L523 120L506 20Q469 -6 413 -10Q381 -8 357 10T318 60H311Q271 17 217 -9Q122 -9 68 55T14 229Q14 352 80 416T261 481Q276 481 298 478L295
689L489 702L480 210ZM222 352T209 334T196 265Q196 196 210 166T254 135Q279 135 301 155L302 191L300 342Q277 352 255 352Q222 352 209 334Z" />
<glyph unicode="e" glyph-name="e" horiz-adv-x="485" d="M442 196L194 194Q203 159 228 143T297 126Q346 126 440 151L454 141L424 9Q345 -12 277 -12Q153 -12 84 54T14 236Q14 351 80 417T261 483Q360 483 414 431T469 286Q469 256 463 221L442 196ZM304 306Q304
359 259 359Q204 359 192 288L302 292L304 306Z" />
<glyph unicode="f" glyph-name="f" horiz-adv-x="360" d="M386 704T436 695L425 554L412 545Q351 569 319 569Q299 569 289 560T277 527L276 467H382L387 457L379 354H274L271 210L279 0H84L93 190L91 354H20L15 364L23 467H89V492Q89 594 154 649T340 704Q386
704 436 695Z" />
<glyph unicode="g" glyph-name="g" horiz-adv-x="516" d="M509 378T473 376L471 372Q480 350 480 324Q480 246 419 200T253 154Q226 154 200 157Q197 150 197 145Q197 130 217 125T286 115Q347 110 389 101T462 63T493 -20Q493 -73 463 -113T378 -175T248 -197Q145
-197 90 -161T35 -60Q70 -24 113 3V9Q44 37 44 112Q79 146 120 173V179Q80 198 59 231T38 311Q38 391 98 436T265 482Q327 482 376 462Q448 478 522 510L535 499V382Q509 378 473 376ZM287 264T301 276T315 317Q315 345 303 356T262 367Q229 367 217 357T204 320Q204
289 216 277T257 264Q287 264 301 276ZM333 -34T310 -27T233 -14L202 -11Q186 -27 186 -47Q186 -95 265 -95Q300 -95 316 -86T333 -54Q333 -34 310 -27Z" />
<glyph unicode="h" glyph-name="h" horiz-adv-x="549" d="M316 0L326 264Q326 325 279 325Q256 325 232 311L230 210L238 0H43L52 190L45 689L239 702L234 404H239Q292 457 356 478Q431 478 470 444T508 346L504 210L511 0H316Z" />
<glyph unicode="i" glyph-name="i" horiz-adv-x="284" d="M52 190L45 461L239 474L230 210L238 0H43L52 190ZM189 728T213 703T238 633Q238 585 211 557T137 529Q91 529 67 553T43 624Q43 672 70 700T145 728Q189 728 213 703Z" />
<glyph unicode="j" glyph-name="j" horiz-adv-x="306" d="M263 472L254 210L261 35Q261 -45 215 -101T72 -197L7 -111V-95Q42 -76 59 -46T76 31V190L72 354H8L-2 365L6 467H77L258 476L263 472ZM203 728T227 703T252 633Q252 585 225 557T151 529Q105 529 81 553T57
624Q57 672 84 700T159 728Q203 728 227 703Z" />
<glyph unicode="k" glyph-name="k" horiz-adv-x="540" d="M454 167T534 32L533 12Q468 -1 350 -12L330 -2Q271 106 230 221V210L238 0H43L52 190L45 689L239 702L231 274L307 416L328 472H527L407 263Q454 167 534 32Z" />
<glyph unicode="l" glyph-name="l" horiz-adv-x="282" d="M230 210L238 0H43L52 190L45 689L239 702L230 210Z" />
<glyph unicode="m" glyph-name="m" horiz-adv-x="814" d="M583 0L593 265Q593 326 546 326Q524 326 499 313L496 210L504 0H311L321 265Q321 326 273 326Q250 326 225 312V210L233 0H40L49 190L42 461L225 474V404H232Q285 457 349 478Q404 478 440 459T491 404H496Q548
455 622 478Q696 478 735 444T773 346L769 210L776 0H583Z" />
<glyph unicode="n" glyph-name="n" horiz-adv-x="544" d="M311 0L321 264Q321 325 274 325Q251 325 227 311V210L235 0H40L49 190L42 461L227 474V404H234Q286 456 351 478Q426 478 465 444T503 346L499 210L506 0H311Z" />
<glyph unicode="o" glyph-name="o" horiz-adv-x="497" d="M369 484T426 424T483 247Q483 119 422 54T240 -12Q128 -12 71 47T14 223Q14 352 75 418T257 484Q369 484 426 424ZM223 353T213 346T200 318T196 257Q196 196 200 167T217 126T254 114Q274 114 283 121T296
149T300 211Q300 271 296 300T279 341T243 353Q223 353 213 346Z" />
<glyph unicode="p" glyph-name="p" horiz-adv-x="529" d="M417 479T466 418T515 248Q515 124 452 56T273 -12Q253 -12 230 -9L234 -185H40L48 190L41 461L226 474V404H233Q275 454 329 479Q417 479 466 418ZM299 108T315 134T332 217Q332 273 316 299T265 325Q243
325 226 313V210L228 113Q248 108 262 108Q299 108 315 134Z" />
<glyph unicode="q" glyph-name="q" horiz-adv-x="529" d="M473 484L489 475L480 210L487 -185H293L302 13V46H295Q259 10 217 -9Q121 -9 68 55T14 228Q14 310 44 367T128 452T249 481Q283 481 308 475T370 454L473 484ZM220 352T208 333T196 259Q196 195 210 165T254
135Q279 135 301 155L302 188L299 342Q276 352 253 352Q220 352 208 333Z" />
<glyph unicode="r" glyph-name="r" horiz-adv-x="376" d="M364 473T374 471V296L355 290Q342 298 319 298Q297 298 273 288T227 260V210L235 0H40L49 190L42 461L227 474V386H236Q279 473 351 473Q364 473 374 471Z" />
<glyph unicode="s" glyph-name="s" horiz-adv-x="402" d="M305 483T380 458L355 323L333 316Q299 337 264 349T209 362Q183 362 183 344Q183 331 198 322T247 301Q290 285 318 270T367 227T388 154Q388 110 366 73T296 12T175 -12Q93 -12 7 14L30 157L46 169Q83
140 126 123T199 106Q227 106 227 125Q227 138 212 147T163 168Q120 184 92 199T42 242T21 316Q21 363 46 401T118 461T232 483Q305 483 380 458Z" />
<glyph unicode="t" glyph-name="t" horiz-adv-x="361" d="M306 142T340 154L352 139L334 31Q313 18 284 8T228 -7Q149 -7 104 29T59 125L65 229L64 354H2L-3 364L5 467H64L63 552L244 600L256 589L251 467H349L354 457L346 354H247L241 185Q241 161 249 152T280
142Q306 142 340 154Z" />
<glyph unicode="u" glyph-name="u" horiz-adv-x="536" d="M524 120L507 20Q459 -11 407 -10Q349 2 323 74H311Q283 43 256 24T196 -6Q122 -6 82 28T41 126L44 229L38 461L223 474V203Q223 173 233 161T264 148Q277 148 286 151T307 163V461L492 474L481 148Q481
137 484 132T495 127Q502 127 512 130L524 120Z" />
<glyph unicode="v" glyph-name="v" horiz-adv-x="468" d="M195 381L230 179H240L285 369L303 472H471L331 0H119L0 469L182 476L195 381Z" />
<glyph unicode="w" glyph-name="w" horiz-adv-x="725" d="M191 387L218 191H228L266 376L283 472H471L480 387L511 192H521L556 376L574 472H734L597 0H414L371 234H359L309 0H118L5 469L181 476L191 387Z" />
<glyph unicode="x" glyph-name="x" horiz-adv-x="490" d="M231 407L260 344L296 416L323 471H490L365 238L490 5L285 -8L260 64L232 128L194 55L170 0H2L125 234L0 468L209 475L231 407Z" />
<glyph unicode="y" glyph-name="y" horiz-adv-x="471" d="M190 386L241 189H251L298 368L317 472H481L343 49Q320 -20 288 -64T207 -139T80 -194L67 -192Q17 -145 -18 -76L-11 -59Q81 -45 159 0L-12 469L174 476L190 386Z" />
<glyph unicode="z" glyph-name="z" horiz-adv-x="438" d="M148 472H347L413 473V359L224 120H320L415 127L425 115L413 -3L271 0H105L20 -5V109L212 352H122L27 345L17 357L29 475L148 472Z" />
<glyph unicode="{" glyph-name="braceleft" horiz-adv-x="302" d="M259 659T298 647L305 634L290 538Q272 543 257 543Q235 543 223 531T211 495Q211 475 224 442Q229 428 233 412T237 384Q237 351 219 324T167 281V274Q201 258 219 231T237 173Q237 150 223 112Q218
99 215 85T211 60Q211 37 223 25T257 12Q272 12 290 17L305 -79L298 -92Q259 -104 218 -104Q141 -104 100 -72T59 20Q59 41 63 63T72 106Q81 144 81 164Q81 211 26 234V321Q81 344 81 391Q81 411 72 449Q67 469 63 491T59 535Q59 594 100 626T218 659Q259 659 298
647Z" />
<glyph unicode="|" glyph-name="bar" horiz-adv-x="300" d="M226 797L221 294L222 -245L90 -256L75 -240L76 279L77 799L212 810L226 797Z" />
<glyph unicode="}" glyph-name="braceright" horiz-adv-x="302" d="M43 -104T4 -92L-3 -79L12 17Q30 12 45 12Q67 12 79 24T91 60Q91 80 78 113Q73 127 69 143T65 171Q65 204 83 231T135 274V281Q101 297 83 324T65 382Q65 405 79 443Q84 456 87 470T91 495Q91
518 79 530T45 543Q30 543 12 538L-3 634L4 647Q43 659 84 659Q161 659 202 627T243 535Q243 514 239 492T230 449Q221 411 221 391Q221 344 276 321V234Q221 211 221 164Q221 144 230 106Q235 86 239 64T243 20Q243 -39 202 -71T84 -104Q43 -104 4 -92Z" />
<glyph unicode="~" glyph-name="asciitilde" horiz-adv-x="480" d="M135 212T120 200T92 172T73 151H57L6 214V230L98 345L114 352Q146 346 221 323Q230 320 272 308T331 295Q346 295 360 307T389 334T408 356H424L474 293V277L383 162L367 156Q337 160 252 187Q220
197 191 204T151 212Q135 212 120 200Z" />
<glyph unicode="&#xa0;" glyph-name="uni00A0" horiz-adv-x="135" />
<glyph unicode="&#xa1;" glyph-name="exclamdown" horiz-adv-x="274" d="M112 285T88 310T63 380Q63 428 90 456T164 484Q210 484 234 460T258 389Q258 341 231 313T156 285Q112 285 88 310ZM37 -174L89 216L198 232L217 214L234 -164L217 -186L60 -197L37 -174Z" />
<glyph unicode="&#xa2;" glyph-name="cent" horiz-adv-x="382" d="M304 179T358 194L371 183L351 40Q315 32 296 30L288 -129H153L139 -114L147 39Q82 61 48 119T14 267Q14 363 54 425T170 511L177 662H308L327 646L320 518Q358 510 382 499L351 351L337 344Q310
355 293 360T261 365Q230 365 215 347T200 288Q200 231 217 205T273 179Q304 179 358 194Z" />
<glyph unicode="&#xa3;" glyph-name="sterling" horiz-adv-x="481" d="M461 127L448 -5L291 0H17L11 9L19 117Q59 127 75 148T92 208V249H17L11 258L19 353H90V392Q89 490 153 543T338 597Q401 597 460 584L449 449L437 441Q366 473 320 473Q290 473 276 461T262
423L261 353H398L403 344L396 249H259V247Q259 206 251 183T218 132V127H345L456 135L461 127Z" />
<glyph unicode="&#xa4;" glyph-name="currency" horiz-adv-x="434" d="M458 490V474L386 413Q403 377 403 339Q403 307 390 274L462 219L465 202L381 113H365L306 184Q272 166 230 166Q196 166 163 180L109 110L92 107L3 191L4 207L74 266Q57 300 57 339Q57 374
71 407L1 462L-2 479L82 568L98 567L158 496Q193 512 230 512Q263 512 295 499L352 571L369 574L458 490ZM196 411T177 392T158 339Q158 305 177 286T230 267Q264 267 283 286T302 339Q302 373 283 392T230 411Q196 411 177 392Z" />
<glyph unicode="&#xa5;" glyph-name="yen" horiz-adv-x="579" d="M417 240L385 185H547L555 178L549 99H366L371 0H201L207 99H41L35 108L40 185H188L161 240H41L35 249L40 326H117L23 511H201L216 466L287 322H297L378 460L398 511H572L466 326H547L555 319L549
240H417Z" />
<glyph unicode="&#xa6;" glyph-name="brokenbar" horiz-adv-x="300" d="M226 797L222 382L89 365L76 376L77 799L212 810L226 797ZM221 145L222 -245L90 -256L75 -240L76 146L206 161L221 145Z" />
<glyph unicode="&#xa7;" glyph-name="section" horiz-adv-x="446" d="M366 155T380 132T394 75Q394 29 367 -10T290 -72T179 -95Q143 -95 95 -88T8 -68L32 77L48 88Q86 59 127 42T199 25Q229 25 229 41Q229 52 214 59T166 77Q119 93 87 108T31 154T7 231Q7 277
30 319T94 390Q45 425 45 485Q45 532 73 572T151 635T262 659Q296 659 336 652T406 634L383 496L361 488Q326 510 293 522T237 535Q223 535 216 530T209 518Q209 507 224 499T273 480Q319 465 351 450T408 405T432 330Q432 285 408 243T341 173Q366 155 380 132ZM171
263T187 250T234 223Q267 248 267 277Q267 298 250 311T200 339Q171 312 171 283Q171 263 187 250Z" />
<glyph unicode="&#xa8;" glyph-name="dieresis" horiz-adv-x="388" d="M140 717T161 696T183 635Q183 593 160 569T95 544Q55 544 34 565T13 627Q13 669 37 693T102 717Q140 717 161 696ZM333 717T354 696T376 635Q376 593 353 569T288 544Q248 544 227 565T206
627Q206 669 230 693T295 717Q333 717 354 696Z" />
<glyph unicode="&#xa9;" glyph-name="copyright" horiz-adv-x="689" d="M435 598T504 560T611 453T649 293Q649 202 611 133T504 26T344 -12Q254 -12 185 26T78 133T40 293Q40 384 78 453T185 560T344 598Q435 598 504 560ZM273 537T218 507T133 421T102 293Q102
221 132 166T218 80T344 49Q416 49 471 79T556 165T587 293Q587 365 557 420T471 506T344 537Q273 537 218 507ZM411 464T458 455L436 355L429 350Q417 355 400 358T369 361Q343 361 333 350T323 307Q323 267 335 250T378 232Q402 232 436 236L446 230L436 131Q424
129 401 129H368Q189 129 189 292Q189 373 237 418T374 464Q411 464 458 455Z" />
<glyph unicode="&#xaa;" glyph-name="ordfeminine" horiz-adv-x="364" d="M253 655T288 629T323 555Q323 527 320 485L318 429Q318 420 320 417T327 413Q335 413 339 415L348 407L335 336Q320 325 307 321T276 316Q246 316 232 326T208 364H203Q174 330 133 315Q79
315 47 344T15 423Q15 500 96 512L195 524L196 529Q196 546 189 553T164 560Q124 560 61 528L53 533L38 622Q71 638 110 646T187 655Q253 655 288 629ZM158 459Q148 457 144 452T139 436Q139 409 164 409Q180 409 195 418V463L158 459Z" />
<glyph unicode="&#xab;" glyph-name="guillemotleft" horiz-adv-x="466" d="M254 214V241L379 425L470 378L474 361L394 230L474 100L470 83L379 36L254 214ZM48 214V241L173 425L264 378L268 361L188 230L268 100L264 83L173 36L48 214Z" />
<glyph unicode="&#xac;" glyph-name="logicalnot" horiz-adv-x="480" d="M440 311V38L323 29L310 41V190H27L15 203L24 320H434L440 311Z" />
<glyph unicode="&#xad;" glyph-name="uni00AD" horiz-adv-x="299" d="M273 326L274 206L39 168L25 182V302L259 340L273 326Z" />
<glyph unicode="&#xae;" glyph-name="registered" horiz-adv-x="454" d="M313 703T366 650T419 511Q419 425 366 372T227 319Q141 319 88 372T35 511Q35 597 88 650T227 703Q313 703 366 650ZM295 361T336 402T377 511Q377 579 336 620T227 661Q160 661 119 620T77
511Q77 444 118 403T227 361Q295 361 336 402ZM320 536T311 521T284 495Q309 460 332 433L331 426Q312 419 269 415L261 420Q244 450 232 476H207L210 419H146L149 475L146 615L246 616Q281 616 300 600T320 553Q320 536 311 521ZM253 559T246 564T223 570L210
569L208 521L235 519Q245 525 249 531T253 548Q253 559 246 564Z" />
<glyph unicode="&#xaf;" glyph-name="overscore" horiz-adv-x="388" d="M343 678L334 571H58L46 584L55 691H331L343 678Z" />
<glyph unicode="&#xb0;" glyph-name="degree" horiz-adv-x="292" d="M183 659T214 641T263 592T281 524Q281 487 263 456T214 407T146 389Q109 389 78 407T29 456T11 524Q11 561 29 592T78 641T146 659Q183 659 214 641ZM121 580T106 565T90 524Q90 499 105 484T146
468Q171 468 186 483T202 524Q202 549 187 564T146 580Q121 580 106 565Z" />
<glyph unicode="&#xb1;" glyph-name="plusminus" horiz-adv-x="480" d="M306 469V320H454L466 307L457 190H306V38L189 29L176 41V190H27L15 203L24 320H176V472L293 481L306 469ZM466 -28L457 -145H27L15 -132L24 -15H454L466 -28Z" />
<glyph unicode="&#xb2;" glyph-name="uni00B2" horiz-adv-x="375" d="M251 707T289 680T328 604Q328 575 310 541T251 459L216 419L218 416H274L346 423L353 414L337 301L229 307H59L33 305L26 310V394L116 483Q150 517 165 535T180 569Q180 589 154 589Q135 589
110 578T63 549H47L22 657Q114 707 192 707Q251 707 289 680Z" />
<glyph unicode="&#xb3;" glyph-name="uni00B3" horiz-adv-x="337" d="M228 708T268 680T309 607Q309 549 248 516V512Q283 501 299 479T316 422Q316 366 261 333T114 299Q70 299 28 307L19 409L29 418Q75 404 117 404Q147 404 160 409T174 428Q174 445 146 445H84L77
453L79 548L112 550Q134 551 146 558T159 578Q159 588 152 592T128 596Q102 596 50 577H35L12 672Q46 689 84 698T161 708Q228 708 268 680Z" />
<glyph unicode="&#xb4;" glyph-name="acute" horiz-adv-x="388" d="M269 754L338 647L335 630Q193 558 112 521L95 522L51 594Q153 670 252 755L269 754Z" />
<glyph unicode="&#xb5;" glyph-name="uni00B5" horiz-adv-x="552" d="M534 120L517 20Q469 -11 417 -10Q359 2 333 74H321Q295 28 258 -6Q237 -6 219 -3L233 -185H49L53 190L48 461L233 474V210L232 202L233 203Q233 173 243 161T274 148Q287 148 296 151T317
163V461L502 474L491 148Q491 137 494 132T505 127Q512 127 522 130L534 120Z" />
<glyph unicode="&#xb6;" glyph-name="paragraph" horiz-adv-x="564" d="M556 634L544 499H484L477 213L479 144Q479 85 458 43T387 -33T248 -95L198 -6V10Q251 36 272 64T294 137V193L287 500H256Q239 492 230 469T220 412Q220 381 232 349T267 287L198 190Q107
215 59 274T10 418Q10 528 81 587T284 647H545L556 634Z" />
<glyph unicode="&#xb7;" glyph-name="middot" horiz-adv-x="228" d="M162 360T186 335T211 265Q211 217 184 189T110 161Q64 161 40 185T16 256Q16 304 43 332T118 360Q162 360 186 335Z" />
<glyph unicode="&#xb8;" glyph-name="cedilla" horiz-adv-x="388" d="M222 -43L256 -62Q280 -75 290 -90T300 -125Q300 -162 271 -185T190 -209Q141 -209 98 -185L109 -110L117 -107Q132 -120 149 -127T177 -135Q193 -135 193 -121Q193 -112 181 -106L131 -79L153
33H236L222 -43Z" />
<glyph unicode="&#xb9;" glyph-name="uni00B9" horiz-adv-x="296" d="M238 692L231 448L237 307H87L93 434V547L13 535L4 541V654L217 706L238 692Z" />
<glyph unicode="&#xba;" glyph-name="ordmasculine" horiz-adv-x="356" d="M342 655T342 492Q342 314 171 314Q14 314 14 477Q14 655 185 655Q342 655 342 492ZM156 562T150 549T144 494Q144 455 147 437T157 411T180 403Q200 403 206 417T213 475Q213 512 210
530T199 555T176 562Q156 562 150 549Z" />
<glyph unicode="&#xbb;" glyph-name="guillemotright" horiz-adv-x="466" d="M418 250V223L293 39L202 86L198 103L278 234L198 364L202 381L293 428L418 250ZM468 250V223L343 39L252 86L248 103L328 234L248 364L252 381L343 428L468 250Z" />
<glyph unicode="&#xbc;" glyph-name="onequarter" horiz-adv-x="818" d="M238 639L231 395L237 254H87L93 381V494L13 482L4 488V601L217 653L238 639ZM613 647L623 623L161 -94L79 -44L73 -27L537 694L613 647ZM794 69L748 70L753 9L745 0L630 -6L622 2L625 72H538L455
69L446 80V168L612 393H748L745 178H792L800 166L794 69ZM570 178H628L627 242H619L570 178Z" />
<glyph unicode="&#xbd;" glyph-name="onehalf" horiz-adv-x="808" d="M238 639L231 395L237 254H87L93 381V494L13 482L4 488V601L217 653L238 639ZM613 647L623 623L161 -94L79 -44L73 -27L537 694L613 647ZM684 400T722 373T761 297Q761 268 743 234T684 152L649
112L651 109H707L779 116L786 107L770 -6L662 0H492L466 -2L459 3V87L549 176Q584 211 598 229T613 262Q613 282 587 282Q568 282 543 271T496 242H480L455 350Q547 400 625 400Q684 400 722 373Z" />
<glyph unicode="&#xbe;" glyph-name="threequarters" horiz-adv-x="859" d="M228 655T268 627T309 554Q309 496 248 463V459Q283 448 299 426T316 369Q316 313 261 280T114 246Q70 246 28 254L19 356L29 365Q75 351 117 351Q147 351 160 356T174 375Q174 392 146
392H84L77 400L79 495L112 497Q134 498 146 505T159 525Q159 535 152 539T128 543Q102 543 50 524H35L12 619Q46 636 84 645T161 655Q228 655 268 627ZM654 647L664 623L202 -94L120 -44L114 -27L578 694L654 647ZM835 69L789 70L794 9L786 0L671 -6L663 2L666
72H579L496 69L487 80V168L653 393H789L786 178H833L841 166L835 69ZM611 178H669L668 242H660L611 178Z" />
<glyph unicode="&#xbf;" glyph-name="questiondown" horiz-adv-x="351" d="M141 285T117 310T92 380Q92 428 119 456T193 484Q239 484 263 460T287 389Q287 341 260 313T185 285Q141 285 117 310ZM128 -196T50 -153T-28 -35Q-28 8 -3 45T71 108L129 138L132 144L125
215L261 235L274 223L287 97L281 86L197 53Q149 33 149 -5Q149 -33 184 -47T311 -67L325 -85L290 -193L273 -202Q128 -196 50 -153Z" />
<glyph unicode="&#xc0;" glyph-name="Agrave" horiz-adv-x="627" d="M617 0H414L396 107L395 110L297 112L215 108L198 0H2L198 647H440L617 0ZM365 256L321 468H309L253 256L309 255L365 256ZM344 855T462 795L432 716L415 712Q309 739 177 781L171 797L220 914L237
918Q344 855 462 795Z" />
<glyph unicode="&#xc1;" glyph-name="Aacute" horiz-adv-x="627" d="M617 0H414L396 107L395 110L297 112L215 108L198 0H2L198 647H440L617 0ZM365 256L321 468H309L253 256L309 255L365 256ZM428 914L477 797L471 781Q339 739 233 712L216 716L186 795Q304 855
411 918L428 914Z" />
<glyph unicode="&#xc2;" glyph-name="Acircumflex" horiz-adv-x="627" d="M617 0H414L396 107L395 110L297 112L215 108L198 0H2L198 647H440L617 0ZM365 256L321 468H309L253 256L309 255L365 256ZM147 797Q237 859 300 916H334Q397 859 487 797L453 721H435L317
781L199 721H181L147 797Z" />
<glyph unicode="&#xc3;" glyph-name="Atilde" horiz-adv-x="627" d="M617 0H414L396 107L395 110L297 112L215 108L198 0H2L198 647H440L617 0ZM365 256L321 468H309L253 256L309 255L365 256ZM510 861V845L429 732L413 726Q386 729 327 746Q319 748 295 754T260
760Q243 760 230 747T191 702H175L118 757V773L199 886L215 892Q242 889 301 872Q309 870 333 864T368 858Q385 858 398 871T437 916H453L510 861Z" />
<glyph unicode="&#xc4;" glyph-name="Adieresis" horiz-adv-x="627" d="M617 0H414L396 107L395 110L297 112L215 108L198 0H2L198 647H440L617 0ZM365 256L321 468H309L253 256L309 255L365 256ZM260 892T281 871T303 810Q303 768 280 744T215 719Q175 719 154
740T133 802Q133 844 157 868T222 892Q260 892 281 871ZM453 892T474 871T496 810Q496 768 473 744T408 719Q368 719 347 740T326 802Q326 844 350 868T415 892Q453 892 474 871Z" />
<glyph unicode="&#xc5;" glyph-name="Aring" horiz-adv-x="627" d="M617 0H414L396 107L395 110L297 112L215 108L198 0H2L198 647H440L617 0ZM365 256L321 468H309L253 256L309 255L365 256ZM425 931T425 827Q425 772 396 743T311 713Q205 713 205 820Q205 875
234 903T319 931Q425 931 425 827ZM295 853T288 847T280 823Q280 804 288 797T316 789Q335 789 342 796T350 820Q350 838 342 845T314 853Q295 853 288 847Z" />
<glyph unicode="&#xc6;" glyph-name="AE" horiz-adv-x="840" d="M840 146L828 0H392L387 107L382 173L211 121L210 119L176 0H-20L256 647H776L787 633L774 487L625 493H549L557 379L726 433L740 422L758 284L568 229L573 154H664L829 160L840 146ZM369 322L357
468H345L278 294L369 322Z" />
<glyph unicode="&#xc7;" glyph-name="Ccedilla" horiz-adv-x="514" d="M385 155T419 160T480 176L496 166L480 8Q426 -9 357 -11L351 -42L385 -61Q409 -74 419 -89T429 -124Q429 -161 400 -184T319 -208Q270 -208 227 -184L238 -109L246 -106Q261 -119 278 -126T306
-134Q322 -134 322 -120Q322 -111 310 -105L260 -78L274 -7Q146 9 82 91T17 318Q17 480 104 569T352 658Q438 658 514 631L480 472L467 464Q441 478 407 486T344 495Q283 495 256 460T229 341Q229 244 260 200T357 155Q385 155 419 160Z" />
<glyph unicode="&#xc8;" glyph-name="Egrave" horiz-adv-x="541" d="M517 160L528 146L516 0H60L70 190L60 647H524L535 633L522 487L363 493H260L258 402H357L461 405L472 391L460 245L344 248H254L253 210L255 154H351L517 160ZM321 855T439 795L409 716L392
712Q286 739 154 781L148 797L197 914L214 918Q321 855 439 795Z" />
<glyph unicode="&#xc9;" glyph-name="Eacute" horiz-adv-x="541" d="M517 160L528 146L516 0H60L70 190L60 647H524L535 633L522 487L363 493H260L258 402H357L461 405L472 391L460 245L344 248H254L253 210L255 154H351L517 160ZM405 914L454 797L448 781Q316
739 210 712L193 716L163 795Q281 855 388 918L405 914Z" />
<glyph unicode="&#xca;" glyph-name="Ecircumflex" horiz-adv-x="541" d="M517 160L528 146L516 0H60L70 190L60 647H524L535 633L522 487L363 493H260L258 402H357L461 405L472 391L460 245L344 248H254L253 210L255 154H351L517 160ZM124 797Q214 859 277 916H311Q374
859 464 797L430 721H412L294 781L176 721H158L124 797Z" />
<glyph unicode="&#xcb;" glyph-name="Edieresis" horiz-adv-x="541" d="M517 160L528 146L516 0H60L70 190L60 647H524L535 633L522 487L363 493H260L258 402H357L461 405L472 391L460 245L344 248H254L253 210L255 154H351L517 160ZM237 892T258 871T280 810Q280
768 257 744T192 719Q152 719 131 740T110 802Q110 844 134 868T199 892Q237 892 258 871ZM430 892T451 871T473 810Q473 768 450 744T385 719Q345 719 324 740T303 802Q303 844 327 868T392 892Q430 892 451 871Z" />
<glyph unicode="&#xcc;" glyph-name="Igrave" horiz-adv-x="327" d="M253 210L261 0H60L70 190L60 647H264L253 210ZM191 855T309 795L279 716L262 712Q156 739 24 781L18 797L67 914L84 918Q191 855 309 795Z" />
<glyph unicode="&#xcd;" glyph-name="Iacute" horiz-adv-x="327" d="M253 210L261 0H60L70 190L60 647H264L253 210ZM275 914L324 797L318 781Q186 739 80 712L63 716L33 795Q151 855 258 918L275 914Z" />
<glyph unicode="&#xce;" glyph-name="Icircumflex" horiz-adv-x="327" d="M253 210L261 0H60L70 190L60 647H264L253 210ZM-6 797Q84 859 147 916H181Q244 859 334 797L300 721H282L164 781L46 721H28L-6 797Z" />
<glyph unicode="&#xcf;" glyph-name="Idieresis" horiz-adv-x="327" d="M253 210L261 0H60L70 190L60 647H264L253 210ZM118 884T137 865T156 809Q156 771 135 749T76 727Q40 727 21 746T2 802Q2 840 23 862T83 884Q118 884 137 865ZM284 884T303 865T323 809Q323
771 302 749T243 727Q206 727 187 746T168 802Q168 840 189 862T249 884Q284 884 303 865Z" />
<glyph unicode="&#xd0;" glyph-name="Eth" horiz-adv-x="695" d="M525 651T601 574T678 350Q678 177 589 84T334 -9Q230 -9 90 0L100 190L99 250H25L16 263L23 380H96L90 647L382 651Q525 651 601 574ZM419 140T443 177T468 301Q468 374 458 416T426 476T365 495Q327
495 290 491L287 380H368L377 367L370 250H284L283 210L285 148Q345 140 372 140Q419 140 443 177Z" />
<glyph unicode="&#xd1;" glyph-name="Ntilde" horiz-adv-x="710" d="M639 211L647 0H429L247 346H235L234 234L242 0H60L70 190L60 647H278L460 301H472L466 640L650 651L639 211ZM550 861V845L469 732L453 726Q426 729 367 746Q359 748 335 754T300 760Q283 760
270 747T231 702H215L158 757V773L239 886L255 892Q282 889 341 872Q349 870 373 864T408 858Q425 858 438 871T477 916H493L550 861Z" />
<glyph unicode="&#xd2;" glyph-name="Ograve" horiz-adv-x="653" d="M482 659T559 576T636 340Q636 172 552 80T312 -12Q171 -12 94 72T17 312Q17 478 101 568T341 659Q482 659 559 576ZM284 499T264 486T236 438T227 339Q227 256 236 213T266 153T330 136Q369
136 389 149T417 197T426 297Q426 379 417 422T387 482T323 499Q284 499 264 486ZM356 855T474 795L444 716L427 712Q321 739 189 781L183 797L232 914L249 918Q356 855 474 795Z" />
<glyph unicode="&#xd3;" glyph-name="Oacute" horiz-adv-x="653" d="M482 659T559 576T636 340Q636 172 552 80T312 -12Q171 -12 94 72T17 312Q17 478 101 568T341 659Q482 659 559 576ZM284 499T264 486T236 438T227 339Q227 256 236 213T266 153T330 136Q369
136 389 149T417 197T426 297Q426 379 417 422T387 482T323 499Q284 499 264 486ZM440 914L489 797L483 781Q351 739 245 712L228 716L198 795Q316 855 423 918L440 914Z" />
<glyph unicode="&#xd4;" glyph-name="Ocircumflex" horiz-adv-x="653" d="M482 659T559 576T636 340Q636 172 552 80T312 -12Q171 -12 94 72T17 312Q17 478 101 568T341 659Q482 659 559 576ZM284 499T264 486T236 438T227 339Q227 256 236 213T266 153T330 136Q369
136 389 149T417 197T426 297Q426 379 417 422T387 482T323 499Q284 499 264 486ZM159 797Q249 859 312 916H346Q409 859 499 797L465 721H447L329 781L211 721H193L159 797Z" />
<glyph unicode="&#xd5;" glyph-name="Otilde" horiz-adv-x="653" d="M482 659T559 576T636 340Q636 172 552 80T312 -12Q171 -12 94 72T17 312Q17 478 101 568T341 659Q482 659 559 576ZM284 499T264 486T236 438T227 339Q227 256 236 213T266 153T330 136Q369
136 389 149T417 197T426 297Q426 379 417 422T387 482T323 499Q284 499 264 486ZM522 861V845L441 732L425 726Q398 729 339 746Q331 748 307 754T272 760Q255 760 242 747T203 702H187L130 757V773L211 886L227 892Q254 889 313 872Q321 870 345 864T380 858Q397
858 410 871T449 916H465L522 861Z" />
<glyph unicode="&#xd6;" glyph-name="Odieresis" horiz-adv-x="653" d="M482 659T559 576T636 340Q636 172 552 80T312 -12Q171 -12 94 72T17 312Q17 478 101 568T341 659Q482 659 559 576ZM284 499T264 486T236 438T227 339Q227 256 236 213T266 153T330 136Q369
136 389 149T417 197T426 297Q426 379 417 422T387 482T323 499Q284 499 264 486ZM272 892T293 871T315 810Q315 768 292 744T227 719Q187 719 166 740T145 802Q145 844 169 868T234 892Q272 892 293 871ZM465 892T486 871T508 810Q508 768 485 744T420 719Q380
719 359 740T338 802Q338 844 362 868T427 892Q465 892 486 871Z" />
<glyph unicode="&#xd7;" glyph-name="multiply" horiz-adv-x="480" d="M437 378L438 360L333 255L437 150V132L348 56L241 163L133 55L44 132V149L149 255L44 360V378L133 454L241 347L348 454L437 378Z" />
<glyph unicode="&#xd8;" glyph-name="Oslash" horiz-adv-x="653" d="M636 505T636 340Q636 172 552 80T312 -12Q283 -12 251 -7L187 -139L63 -92L55 -75L117 51Q68 92 43 158T17 312Q17 478 101 568T341 659Q379 659 413 653L475 779L595 733L607 714L545 590Q636
505 636 340ZM369 136T389 149T417 197T426 297Q426 379 417 422T387 482T323 499Q284 499 264 486T236 438T227 339Q227 256 236 213T266 153T330 136Q369 136 389 149Z" />
<glyph unicode="&#xd9;" glyph-name="Ugrave" horiz-adv-x="653" d="M600 319L599 216Q598 106 525 47T316 -12Q185 -12 116 47T49 216L52 319L46 647H247L238 243Q237 192 257 169T324 146Q371 146 392 169T412 243L403 647H607L600 319ZM356 855T474 795L444
716L427 712Q321 739 189 781L183 797L232 914L249 918Q356 855 474 795Z" />
<glyph unicode="&#xda;" glyph-name="Uacute" horiz-adv-x="653" d="M600 319L599 216Q598 106 525 47T316 -12Q185 -12 116 47T49 216L52 319L46 647H247L238 243Q237 192 257 169T324 146Q371 146 392 169T412 243L403 647H607L600 319ZM440 914L489 797L483
781Q351 739 245 712L228 716L198 795Q316 855 423 918L440 914Z" />
<glyph unicode="&#xdb;" glyph-name="Ucircumflex" horiz-adv-x="653" d="M600 319L599 216Q598 106 525 47T316 -12Q185 -12 116 47T49 216L52 319L46 647H247L238 243Q237 192 257 169T324 146Q371 146 392 169T412 243L403 647H607L600 319ZM159 797Q249 859
312 916H346Q409 859 499 797L465 721H447L329 781L211 721H193L159 797Z" />
<glyph unicode="&#xdc;" glyph-name="Udieresis" horiz-adv-x="653" d="M600 319L599 216Q598 106 525 47T316 -12Q185 -12 116 47T49 216L52 319L46 647H247L238 243Q237 192 257 169T324 146Q371 146 392 169T412 243L403 647H607L600 319ZM272 892T293 871T315
810Q315 768 292 744T227 719Q187 719 166 740T145 802Q145 844 169 868T234 892Q272 892 293 871ZM465 892T486 871T508 810Q508 768 485 744T420 719Q380 719 359 740T338 802Q338 844 362 868T427 892Q465 892 486 871Z" />
<glyph unicode="&#xdd;" glyph-name="Yacute" horiz-adv-x="594" d="M382 170L390 0H190L200 170L199 201L-8 647H202L218 593L291 398H303L387 586L410 647H614L384 208L382 170ZM410 914L459 797L453 781Q321 739 215 712L198 716L168 795Q286 855 393 918L410 914Z" />
<glyph unicode="&#xde;" glyph-name="Thorn" horiz-adv-x="602" d="M485 558T543 506T602 350Q602 231 526 166T308 100L259 99L263 0H60L70 190L62 554L60 557H62L60 647H266L264 558H373Q485 558 543 506ZM363 255T376 276T389 334Q389 378 369 397T301 418L260
415L256 244L336 240Q363 255 376 276Z" />
<glyph unicode="&#xdf;" glyph-name="germandbls" horiz-adv-x="659" d="M488 358T503 344T554 309Q589 289 611 272T649 227T665 157Q665 86 614 37T459 -12Q382 -12 303 14L326 157L342 169Q375 140 414 123T479 106Q503 106 503 122Q503 135 490 145T449 172Q411
194 387 213T345 265T326 342Q326 380 338 402T373 450Q390 468 398 482T407 517Q407 569 345 569Q312 569 293 553T273 497L268 210L276 0H81L90 190L87 354H20L15 364L23 467H85V472Q85 545 119 597T215 677T357 704Q462 704 515 660T569 549Q569 513 556 489T519
437Q503 418 496 406T488 379Q488 358 503 344Z" />
<glyph unicode="&#xe0;" glyph-name="agrave" horiz-adv-x="503" d="M350 484T400 447T450 339Q450 319 446 233Q442 157 442 148Q442 137 445 132T456 127Q463 127 473 130L485 120L468 20Q431 -6 375 -10Q346 -8 324 10T289 61H282Q238 10 182 -11Q106 -10 61
31T15 145Q15 256 130 272L272 291V303Q272 329 262 340T225 351Q169 351 80 303L68 311L47 434Q93 458 148 471T258 484Q350 484 400 447ZM215 198Q201 196 195 188T188 162Q188 122 225 122Q249 122 272 138V206L215 198ZM288 670T390 594L346 522L329 521Q248
558 106 630L103 647L172 754L189 755Q288 670 390 594Z" />
<glyph unicode="&#xe1;" glyph-name="aacute" horiz-adv-x="503" d="M350 484T400 447T450 339Q450 319 446 233Q442 157 442 148Q442 137 445 132T456 127Q463 127 473 130L485 120L468 20Q431 -6 375 -10Q346 -8 324 10T289 61H282Q238 10 182 -11Q106 -10 61
31T15 145Q15 256 130 272L272 291V303Q272 329 262 340T225 351Q169 351 80 303L68 311L47 434Q93 458 148 471T258 484Q350 484 400 447ZM215 198Q201 196 195 188T188 162Q188 122 225 122Q249 122 272 138V206L215 198ZM340 754L409 647L406 630Q264 558 183
521L166 522L122 594Q224 670 323 755L340 754Z" />
<glyph unicode="&#xe2;" glyph-name="acircumflex" horiz-adv-x="503" d="M350 484T400 447T450 339Q450 319 446 233Q442 157 442 148Q442 137 445 132T456 127Q463 127 473 130L485 120L468 20Q431 -6 375 -10Q346 -8 324 10T289 61H282Q238 10 182 -11Q106
-10 61 31T15 145Q15 256 130 272L272 291V303Q272 329 262 340T225 351Q169 351 80 303L68 311L47 434Q93 458 148 471T258 484Q350 484 400 447ZM215 198Q201 196 195 188T188 162Q188 122 225 122Q249 122 272 138V206L215 198ZM66 602Q135 660 229 752H263Q333
682 426 602L379 530H361Q285 578 246 608Q207 578 131 530H113L66 602Z" />
<glyph unicode="&#xe3;" glyph-name="atilde" horiz-adv-x="503" d="M350 484T400 447T450 339Q450 319 446 233Q442 157 442 148Q442 137 445 132T456 127Q463 127 473 130L485 120L468 20Q431 -6 375 -10Q346 -8 324 10T289 61H282Q238 10 182 -11Q106 -10 61
31T15 145Q15 256 130 272L272 291V303Q272 329 262 340T225 351Q169 351 80 303L68 311L47 434Q93 458 148 471T258 484Q350 484 400 447ZM215 198Q201 196 195 188T188 162Q188 122 225 122Q249 122 272 138V206L215 198ZM441 686V670L360 557L344 551Q317 554
258 571Q250 573 226 579T191 585Q174 585 161 572T122 527H106L49 582V598L130 711L146 717Q173 714 232 697Q240 695 264 689T299 683Q316 683 329 696T368 741H384L441 686Z" />
<glyph unicode="&#xe4;" glyph-name="adieresis" horiz-adv-x="503" d="M350 484T400 447T450 339Q450 319 446 233Q442 157 442 148Q442 137 445 132T456 127Q463 127 473 130L485 120L468 20Q431 -6 375 -10Q346 -8 324 10T289 61H282Q238 10 182 -11Q106 -10
61 31T15 145Q15 256 130 272L272 291V303Q272 329 262 340T225 351Q169 351 80 303L68 311L47 434Q93 458 148 471T258 484Q350 484 400 447ZM215 198Q201 196 195 188T188 162Q188 122 225 122Q249 122 272 138V206L215 198ZM191 717T212 696T234 635Q234 593
211 569T146 544Q106 544 85 565T64 627Q64 669 88 693T153 717Q191 717 212 696ZM384 717T405 696T427 635Q427 593 404 569T339 544Q299 544 278 565T257 627Q257 669 281 693T346 717Q384 717 405 696Z" />
<glyph unicode="&#xe5;" glyph-name="aring" horiz-adv-x="503" d="M350 484T400 447T450 339Q450 319 446 233Q442 157 442 148Q442 137 445 132T456 127Q463 127 473 130L485 120L468 20Q431 -6 375 -10Q346 -8 324 10T289 61H282Q238 10 182 -11Q106 -10 61
31T15 145Q15 256 130 272L272 291V303Q272 329 262 340T225 351Q169 351 80 303L68 311L47 434Q93 458 148 471T258 484Q350 484 400 447ZM215 198Q201 196 195 188T188 162Q188 122 225 122Q249 122 272 138V206L215 198ZM356 756T356 652Q356 597 327 568T242
538Q136 538 136 645Q136 700 165 728T250 756Q356 756 356 652ZM226 678T219 672T211 648Q211 629 219 622T247 614Q266 614 273 621T281 645Q281 663 273 670T245 678Q226 678 219 672Z" />
<glyph unicode="&#xe6;" glyph-name="ae" horiz-adv-x="712" d="M671 219L426 205Q431 164 453 147T524 129Q586 129 658 153L672 143L642 9Q611 -1 574 -6T506 -12Q381 -12 321 60Q268 14 209 -11Q121 -10 68 29T15 139Q15 192 44 228T130 269L267 277V303Q267
329 257 339T221 350Q166 350 77 302L65 310L44 435Q88 458 141 471T246 484Q328 484 370 449Q424 483 496 483Q588 483 639 430T690 279Q690 267 688 241L671 219ZM459 357T442 338T423 288L520 297Q521 304 521 315Q521 337 513 347T485 357Q459 357 442 338ZM246
123T278 144Q272 167 269 193L216 188Q202 186 196 179T190 158Q190 123 224 123Q246 123 278 144Z" />
<glyph unicode="&#xe7;" glyph-name="ccedilla" horiz-adv-x="384" d="M304 140T358 155L371 144L351 1Q309 -9 264 -11L258 -42L292 -61Q316 -74 326 -89T336 -124Q336 -161 307 -184T226 -208Q177 -208 134 -184L145 -109L153 -106Q168 -119 185 -126T213 -134Q229
-134 229 -120Q229 -111 217 -105L167 -78L181 -8Q101 5 58 66T14 228Q14 350 78 417T260 484Q328 484 382 460L351 312L337 305Q310 316 293 321T261 326Q230 326 215 308T200 249Q200 192 217 166T273 140Q304 140 358 155Z" />
<glyph unicode="&#xe8;" glyph-name="egrave" horiz-adv-x="485" d="M442 196L194 194Q203 159 228 143T297 126Q346 126 440 151L454 141L424 9Q345 -12 277 -12Q153 -12 84 54T14 236Q14 351 80 417T261 483Q360 483 414 431T469 286Q469 256 463 221L442 196ZM304
306Q304 359 259 359Q204 359 192 288L302 292L304 306ZM294 669T396 593L352 521L335 520Q254 557 112 629L109 646L178 753L195 754Q294 669 396 593Z" />
<glyph unicode="&#xe9;" glyph-name="eacute" horiz-adv-x="485" d="M442 196L194 194Q203 159 228 143T297 126Q346 126 440 151L454 141L424 9Q345 -12 277 -12Q153 -12 84 54T14 236Q14 351 80 417T261 483Q360 483 414 431T469 286Q469 256 463 221L442 196ZM304
306Q304 359 259 359Q204 359 192 288L302 292L304 306ZM346 753L415 646L412 629Q270 557 189 520L172 521L128 593Q230 669 329 754L346 753Z" />
<glyph unicode="&#xea;" glyph-name="ecircumflex" horiz-adv-x="485" d="M442 196L194 194Q203 159 228 143T297 126Q346 126 440 151L454 141L424 9Q345 -12 277 -12Q153 -12 84 54T14 236Q14 351 80 417T261 483Q360 483 414 431T469 286Q469 256 463 221L442
196ZM304 306Q304 359 259 359Q204 359 192 288L302 292L304 306ZM72 601Q141 659 235 751H269Q339 681 432 601L385 529H367Q291 577 252 607Q213 577 137 529H119L72 601Z" />
<glyph unicode="&#xeb;" glyph-name="edieresis" horiz-adv-x="485" d="M442 196L194 194Q203 159 228 143T297 126Q346 126 440 151L454 141L424 9Q345 -12 277 -12Q153 -12 84 54T14 236Q14 351 80 417T261 483Q360 483 414 431T469 286Q469 256 463 221L442
196ZM304 306Q304 359 259 359Q204 359 192 288L302 292L304 306ZM197 716T218 695T240 634Q240 592 217 568T152 543Q112 543 91 564T70 626Q70 668 94 692T159 716Q197 716 218 695ZM390 716T411 695T433 634Q433 592 410 568T345 543Q305 543 284 564T263 626Q263
668 287 692T352 716Q390 716 411 695Z" />
<glyph unicode="&#xec;" glyph-name="igrave" horiz-adv-x="284" d="M52 190L45 461L239 474L230 210L238 0H43L52 190ZM182 670T284 594L240 522L223 521Q142 558 0 630L-3 647L66 754L83 755Q182 670 284 594Z" />
<glyph unicode="&#xed;" glyph-name="iacute" horiz-adv-x="284" d="M52 190L45 461L239 474L230 210L238 0H43L52 190ZM235 754L304 647L301 630Q159 558 78 521L61 522L17 594Q119 670 218 755L235 754Z" />
<glyph unicode="&#xee;" glyph-name="icircumflex" horiz-adv-x="284" d="M52 190L45 461L239 474L230 210L238 0H43L52 190ZM-39 602Q30 660 124 752H158Q228 682 321 602L274 530H256Q180 578 141 608Q102 578 26 530H8L-39 602Z" />
<glyph unicode="&#xef;" glyph-name="idieresis" horiz-adv-x="284" d="M52 190L45 461L239 474L230 210L238 0H43L52 190ZM97 709T116 690T135 634Q135 596 114 574T55 552Q19 552 0 571T-19 627Q-19 665 2 687T62 709Q97 709 116 690ZM263 709T282 690T302 634Q302
596 281 574T222 552Q185 552 166 571T147 627Q147 665 168 687T228 709Q263 709 282 690Z" />
<glyph unicode="&#xf0;" glyph-name="eth" horiz-adv-x="507" d="M484 452T484 250Q484 123 422 56T243 -12Q136 -12 79 47T21 223Q21 339 77 399T243 459H245Q222 487 189 511L78 439L63 444L24 514L102 564Q82 575 33 598V620L160 712H171Q215 688 252 661L352
725L368 721L406 650L327 599Q484 452 484 250ZM277 112T287 121T301 154T305 227Q305 280 301 315Q282 326 255 326Q232 326 221 319T205 290T200 225Q200 179 205 155T222 121T256 112Q277 112 287 121Z" />
<glyph unicode="&#xf1;" glyph-name="ntilde" horiz-adv-x="544" d="M311 0L321 264Q321 325 274 325Q251 325 227 311V210L235 0H40L49 190L42 461L227 474V404H234Q286 456 351 478Q426 478 465 444T503 346L499 210L506 0H311ZM487 686V670L406 557L390 551Q363
554 304 571Q296 573 272 579T237 585Q220 585 207 572T168 527H152L95 582V598L176 711L192 717Q219 714 278 697Q286 695 310 689T345 683Q362 683 375 696T414 741H430L487 686Z" />
<glyph unicode="&#xf2;" glyph-name="ograve" horiz-adv-x="497" d="M369 484T426 424T483 247Q483 119 422 54T240 -12Q128 -12 71 47T14 223Q14 352 75 418T257 484Q369 484 426 424ZM223 353T213 346T200 318T196 257Q196 196 200 167T217 126T254 114Q274
114 283 121T296 149T300 211Q300 271 296 300T279 341T243 353Q223 353 213 346ZM293 670T395 594L351 522L334 521Q253 558 111 630L108 647L177 754L194 755Q293 670 395 594Z" />
<glyph unicode="&#xf3;" glyph-name="oacute" horiz-adv-x="497" d="M369 484T426 424T483 247Q483 119 422 54T240 -12Q128 -12 71 47T14 223Q14 352 75 418T257 484Q369 484 426 424ZM223 353T213 346T200 318T196 257Q196 196 200 167T217 126T254 114Q274
114 283 121T296 149T300 211Q300 271 296 300T279 341T243 353Q223 353 213 346ZM345 754L414 647L411 630Q269 558 188 521L171 522L127 594Q229 670 328 755L345 754Z" />
<glyph unicode="&#xf4;" glyph-name="ocircumflex" horiz-adv-x="497" d="M369 484T426 424T483 247Q483 119 422 54T240 -12Q128 -12 71 47T14 223Q14 352 75 418T257 484Q369 484 426 424ZM223 353T213 346T200 318T196 257Q196 196 200 167T217 126T254 114Q274
114 283 121T296 149T300 211Q300 271 296 300T279 341T243 353Q223 353 213 346ZM71 602Q140 660 234 752H268Q338 682 431 602L384 530H366Q290 578 251 608Q212 578 136 530H118L71 602Z" />
<glyph unicode="&#xf5;" glyph-name="otilde" horiz-adv-x="497" d="M369 484T426 424T483 247Q483 119 422 54T240 -12Q128 -12 71 47T14 223Q14 352 75 418T257 484Q369 484 426 424ZM223 353T213 346T200 318T196 257Q196 196 200 167T217 126T254 114Q274
114 283 121T296 149T300 211Q300 271 296 300T279 341T243 353Q223 353 213 346ZM446 686V670L365 557L349 551Q322 554 263 571Q255 573 231 579T196 585Q179 585 166 572T127 527H111L54 582V598L135 711L151 717Q178 714 237 697Q245 695 269 689T304 683Q321
683 334 696T373 741H389L446 686Z" />
<glyph unicode="&#xf6;" glyph-name="odieresis" horiz-adv-x="497" d="M369 484T426 424T483 247Q483 119 422 54T240 -12Q128 -12 71 47T14 223Q14 352 75 418T257 484Q369 484 426 424ZM223 353T213 346T200 318T196 257Q196 196 200 167T217 126T254 114Q274
114 283 121T296 149T300 211Q300 271 296 300T279 341T243 353Q223 353 213 346ZM196 717T217 696T239 635Q239 593 216 569T151 544Q111 544 90 565T69 627Q69 669 93 693T158 717Q196 717 217 696ZM389 717T410 696T432 635Q432 593 409 569T344 544Q304 544
283 565T262 627Q262 669 286 693T351 717Q389 717 410 696Z" />
<glyph unicode="&#xf7;" glyph-name="divide" horiz-adv-x="480" d="M290 497T310 477T330 420Q330 380 308 358T247 335Q210 335 190 355T170 412Q170 452 192 474T254 497Q290 497 310 477ZM466 307L457 190H27L15 203L24 320H454L466 307ZM290 172T310 152T330
95Q330 55 308 33T247 10Q210 10 190 30T170 87Q170 127 192 149T254 172Q290 172 310 152Z" />
<glyph unicode="&#xf8;" glyph-name="oslash" horiz-adv-x="497" d="M435 413Q483 355 483 247Q483 119 422 54T240 -12Q211 -12 179 -7L101 -135L-9 -79L-13 -63L61 59Q14 118 14 223Q14 352 75 418T257 484Q287 484 317 479L388 594L493 539L502 522L435 413ZM274
114T283 121T296 149T300 211Q300 271 296 300T279 341T243 353Q223 353 213 346T200 318T196 257Q196 196 200 167T217 126T254 114Q274 114 283 121Z" />
<glyph unicode="&#xf9;" glyph-name="ugrave" horiz-adv-x="536" d="M524 120L507 20Q459 -11 407 -10Q349 2 323 74H311Q283 43 256 24T196 -6Q122 -6 82 28T41 126L44 229L38 461L223 474V203Q223 173 233 161T264 148Q277 148 286 151T307 163V461L492 474L481
148Q481 137 484 132T495 127Q502 127 512 130L524 120ZM305 670T407 594L363 522L346 521Q265 558 123 630L120 647L189 754L206 755Q305 670 407 594Z" />
<glyph unicode="&#xfa;" glyph-name="uacute" horiz-adv-x="536" d="M524 120L507 20Q459 -11 407 -10Q349 2 323 74H311Q283 43 256 24T196 -6Q122 -6 82 28T41 126L44 229L38 461L223 474V203Q223 173 233 161T264 148Q277 148 286 151T307 163V461L492 474L481
148Q481 137 484 132T495 127Q502 127 512 130L524 120ZM357 754L426 647L423 630Q281 558 200 521L183 522L139 594Q241 670 340 755L357 754Z" />
<glyph unicode="&#xfb;" glyph-name="ucircumflex" horiz-adv-x="536" d="M524 120L507 20Q459 -11 407 -10Q349 2 323 74H311Q283 43 256 24T196 -6Q122 -6 82 28T41 126L44 229L38 461L223 474V203Q223 173 233 161T264 148Q277 148 286 151T307 163V461L492
474L481 148Q481 137 484 132T495 127Q502 127 512 130L524 120ZM83 602Q152 660 246 752H280Q350 682 443 602L396 530H378Q302 578 263 608Q224 578 148 530H130L83 602Z" />
<glyph unicode="&#xfc;" glyph-name="udieresis" horiz-adv-x="536" d="M524 120L507 20Q459 -11 407 -10Q349 2 323 74H311Q283 43 256 24T196 -6Q122 -6 82 28T41 126L44 229L38 461L223 474V203Q223 173 233 161T264 148Q277 148 286 151T307 163V461L492 474L481
148Q481 137 484 132T495 127Q502 127 512 130L524 120ZM208 717T229 696T251 635Q251 593 228 569T163 544Q123 544 102 565T81 627Q81 669 105 693T170 717Q208 717 229 696ZM401 717T422 696T444 635Q444 593 421 569T356 544Q316 544 295 565T274 627Q274 669
298 693T363 717Q401 717 422 696Z" />
<glyph unicode="&#xfd;" glyph-name="yacute" horiz-adv-x="471" d="M190 386L241 189H251L298 368L317 472H481L343 49Q320 -20 288 -64T207 -139T80 -194L67 -192Q17 -145 -18 -76L-11 -59Q81 -45 159 0L-12 469L174 476L190 386ZM336 754L405 647L402 630Q260
558 179 521L162 522L118 594Q220 670 319 755L336 754Z" />
<glyph unicode="&#xfe;" glyph-name="thorn" horiz-adv-x="533" d="M420 479T469 418T519 248Q519 122 454 55T276 -12Q255 -12 231 -9L234 -185H44L50 190L43 689L237 702L231 404H236Q278 453 332 479Q420 479 469 418ZM299 108T317 133T336 222Q336 275 321
300T270 325Q251 325 230 313L228 215L230 113Q250 108 263 108Q299 108 317 133Z" />
<glyph unicode="&#xff;" glyph-name="ydieresis" horiz-adv-x="471" d="M190 386L241 189H251L298 368L317 472H481L343 49Q320 -20 288 -64T207 -139T80 -194L67 -192Q17 -145 -18 -76L-11 -59Q81 -45 159 0L-12 469L174 476L190 386ZM187 717T208 696T230 635Q230
593 207 569T142 544Q102 544 81 565T60 627Q60 669 84 693T149 717Q187 717 208 696ZM380 717T401 696T423 635Q423 593 400 569T335 544Q295 544 274 565T253 627Q253 669 277 693T342 717Q380 717 401 696Z" />
<glyph unicode="&#x2013;" glyph-name="endash" horiz-adv-x="443" d="M462 312L453 195H-7L-19 208L-10 325H450L462 312Z" />
<glyph unicode="&#x2014;" glyph-name="emdash" horiz-adv-x="841" d="M860 312L851 195H-7L-19 208L-10 325H848L860 312Z" />
<glyph unicode="&#x2018;" glyph-name="quoteleft" horiz-adv-x="253" d="M64 363T50 391T35 458Q35 507 63 555T149 658L214 616L217 604Q178 561 178 516Q178 486 187 466T220 428V413Q154 364 95 342Q64 363 50 391Z" />
<glyph unicode="&#x2019;" glyph-name="quoteright" horiz-adv-x="253" d="M190 638T204 610T219 543Q219 494 191 446T105 343L40 385L37 397Q76 441 76 485Q76 515 67 535T34 573V588Q100 637 159 659Q190 638 204 610Z" />
<glyph unicode="&#x201a;" glyph-name="quotesinglbase" horiz-adv-x="228" d="M186 160T197 134T209 77Q209 19 172 -34T57 -142L-4 -89L-6 -75Q23 -50 36 -24T50 34Q50 76 17 109L18 125Q90 165 161 183Q186 160 197 134Z" />
<glyph unicode="&#x201c;" glyph-name="quotedblleft" horiz-adv-x="458" d="M269 363T255 391T240 458Q240 507 268 555T354 658L419 616L422 604Q383 561 383 516Q383 486 392 466T425 428V413Q359 364 300 342Q269 363 255 391ZM64 363T50 391T35 458Q35 507
63 555T149 658L214 616L217 604Q178 561 178 516Q178 486 187 466T220 428V413Q154 364 95 342Q64 363 50 391Z" />
<glyph unicode="&#x201d;" glyph-name="quotedblright" horiz-adv-x="448" d="M385 638T399 610T414 543Q414 494 386 446T300 343L235 385L232 397Q271 441 271 485Q271 515 262 535T229 573V588Q295 637 354 659Q385 638 399 610ZM190 638T204 610T219 543Q219
494 191 446T105 343L40 385L37 397Q76 441 76 485Q76 515 67 535T34 573V588Q100 637 159 659Q190 638 204 610Z" />
<glyph unicode="&#x201e;" glyph-name="quotedblbase" horiz-adv-x="433" d="M391 160T402 134T414 77Q414 19 377 -34T262 -142L201 -89L199 -75Q228 -50 241 -24T255 34Q255 76 222 109L223 125Q295 165 366 183Q391 160 402 134ZM186 160T197 134T209 77Q209
19 172 -34T57 -142L-4 -89L-6 -75Q23 -50 36 -24T50 34Q50 76 17 109L18 125Q90 165 161 183Q186 160 197 134Z" />
<glyph unicode="&#x2022;" glyph-name="bullet" horiz-adv-x="302" d="M218 397T251 363T285 266Q285 200 248 162T146 123Q83 123 50 156T16 254Q16 320 54 358T157 397Q218 397 251 363Z" />
<glyph unicode="&#x2039;" glyph-name="guilsinglleft" horiz-adv-x="260" d="M48 214V241L173 425L264 378L268 361L188 230L268 100L264 83L173 36L48 214Z" />
<glyph unicode="&#x203a;" glyph-name="guilsinglright" horiz-adv-x="260" d="M217 250V223L92 39L1 86L-3 103L77 234L-3 364L1 381L92 428L217 250Z" />
</font>
</defs>
</svg>
