<?xml version="1.0" standalone="no"?>
<!DOCTYPE svg PUBLIC "-//W3C//DTD SVG 1.1//EN" "http://www.w3.org/Graphics/SVG/1.1/DTD/svg11.dtd">
<svg xmlns="http://www.w3.org/2000/svg">
<defs >
<font id="PragatiNarrow" horiz-adv-x="423" ><font-face
    font-family="Pragati Narrow"
    units-per-em="1000"
    panose-1="2 11 5 6 2 2 2 2 11 4"
    ascent="1158"
    descent="-534"
    alphabetic="0" />
<glyph unicode=" " glyph-name="space" horiz-adv-x="210" />
<glyph unicode="!" glyph-name="exclam" horiz-adv-x="210" d="M158 620T148 410L135 157H78Q64 480 55 630H159Q158 620 148 410ZM61 0V99H154V0H61Z" />
<glyph unicode="&quot;" glyph-name="quotedbl" horiz-adv-x="267" d="M90 374H54L34 495V630H109V495L90 374ZM211 374H176L156 495V630H232V495L211 374Z" />
<glyph unicode="#" glyph-name="numbersign" horiz-adv-x="419" d="M408 376H337L305 234H370V164H289L253 0H183L219 164H137L100 0H30L68 164H8V234H83L114 376H44V447H130L173 640H242L200 447H282L326 640H395L353 447H408V376ZM235 234L266 376H184L153 234H235Z" />
<glyph unicode="$" glyph-name="dollar" horiz-adv-x="419" d="M291 563T325 526T359 436L358 418H283V426Q283 454 271 475T231 502V357Q274 343 301 329T348 286T368 211Q368 142 331 106T231 63V-45H186V63Q116 69 83 109T49 204Q49 215 49 219T50 225H125V215Q125
143 186 129V293Q146 306 120 320T77 362T59 431Q59 487 92 523T186 567V665H231V567Q291 563 325 526ZM158 497T147 478T135 436Q135 414 148 400T186 374V502Q158 497 147 478ZM258 132T275 150T292 201Q292 229 276 246T231 277V128Q258 132 275 150Z" />
<glyph unicode="%" glyph-name="percent" horiz-adv-x="670" d="M218 642T247 605T277 475Q277 383 248 347T159 310Q100 310 71 347T42 475Q42 567 71 604T159 642Q218 642 247 605ZM114 0L499 630H565L179 0H114ZM128 588T117 561T105 483V469Q105 418 116 391T159
364Q190 364 201 391T213 469V483Q213 534 202 561T159 588Q128 588 117 561ZM578 321T608 284T638 155Q638 63 608 26T519 -11Q461 -11 431 26T401 155Q401 246 431 283T519 321Q578 321 608 284ZM488 266T477 240T465 162V148Q465 97 476 71T519 44Q551 44 562
70T574 148V162Q574 213 563 239T519 266Q488 266 477 240Z" />
<glyph unicode="&amp;" glyph-name="ampersand" horiz-adv-x="503" d="M320 642T373 595T426 469V452H352V461Q352 517 320 545T234 573Q186 573 155 547T124 464Q124 411 152 383T220 354H267V287H223Q113 287 113 175Q113 115 145 87T234 58Q352 58 352 176V354H491V286H426V178Q426
90 375 40T228 -11Q140 -11 86 37T32 170Q32 230 57 269T125 323V328Q86 349 65 382T44 469Q44 551 96 596T235 642Q320 642 373 595Z" />
<glyph unicode="&apos;" glyph-name="quotesingle" horiz-adv-x="145" d="M88 374H52L32 495V630H107V495L88 374Z" />
<glyph unicode="(" glyph-name="parenleft" horiz-adv-x="251" d="M182 587T148 478T114 266Q114 163 148 54T237 -145H187Q115 -58 76 47T36 265Q36 377 75 483T187 676H237Q182 587 148 478Z" />
<glyph unicode=")" glyph-name="parenright" horiz-adv-x="251" d="M136 591T175 485T214 265Q214 152 175 47T63 -145H14Q68 -56 102 53T136 266Q136 370 102 479T14 676H63Q136 591 175 485Z" />
<glyph unicode="*" glyph-name="asterisk" horiz-adv-x="293" d="M268 543L193 509L268 473L237 419L170 467L178 385H114L123 467L55 419L24 473L99 509L24 543L55 597L123 549L114 630H178L170 550L237 597L268 543Z" />
<glyph unicode="+" glyph-name="plus" horiz-adv-x="440" d="M400 196H258V0H181V196H40V274H181V470H258V274H400V196Z" />
<glyph unicode="," glyph-name="comma" horiz-adv-x="210" d="M59 -114L96 0H59V99H151V8L107 -114H59Z" />
<glyph unicode="-" glyph-name="hyphen" horiz-adv-x="251" d="M9 293H241V203H9V293Z" />
<glyph unicode="." glyph-name="period" horiz-adv-x="210" d="M59 99H151V0H59V99Z" />
<glyph unicode="/" glyph-name="slash" horiz-adv-x="210" d="M146 676H210L67 -45H1L146 676Z" />
<glyph unicode="0" glyph-name="zero" horiz-adv-x="419" d="M267 642T304 613T362 512T383 315Q383 191 363 119T305 18T210 -11Q152 -11 115 18T57 119T36 315Q36 440 56 512T114 613T210 642Q267 642 304 613ZM157 574T136 515T114 347V283Q114 175 135 116T210
56Q263 56 284 115T305 283V347Q305 456 284 515T210 574Q157 574 136 515Z" />
<glyph unicode="1" glyph-name="one" horiz-adv-x="419" d="M409 0H46V68H196V516H45V564Q85 568 142 586T241 630H271V68H409V0Z" />
<glyph unicode="2" glyph-name="two" horiz-adv-x="419" d="M285 642T330 602T376 478Q376 427 356 382T307 299T231 211Q170 146 146 109Q134 94 129 77H379V0H35V11Q35 82 80 149Q107 188 166 251Q209 297 235 329T278 400T296 479Q296 517 276 544T210 572Q165
572 144 539T123 451V414H44Q44 417 43 426T42 450Q42 546 90 594T211 642Q285 642 330 602Z" />
<glyph unicode="3" glyph-name="three" horiz-adv-x="419" d="M282 642T326 597T371 469Q371 416 350 383T289 328V323Q332 308 357 269T383 170Q383 87 335 38T210 -11Q125 -11 79 39T32 178V186H109V176Q109 117 133 87T204 56Q251 56 278 85T305 175Q305 287
202 287H149V354H203Q242 354 268 382T294 464Q294 520 270 547T208 574Q168 574 145 546T121 461V452H44V469Q44 547 89 594T207 642Q282 642 326 597Z" />
<glyph unicode="4" glyph-name="four" horiz-adv-x="419" d="M242 564T210 478T144 323T89 223H262V421Q275 451 282 477T301 548H337V223H401V155H337V0H262V155H19V224Q69 316 112 426T182 642H258Q242 564 210 478Z" />
<glyph unicode="5" glyph-name="five" horiz-adv-x="419" d="M129 361Q176 410 240 410Q305 410 347 358T389 206Q389 103 342 46T213 -11Q133 -11 85 45T36 196H114Q114 132 142 94T213 55Q257 55 284 93T311 206Q311 270 286 306T219 342Q190 342 166 323T126
269L54 282L75 630H362V553H140L129 361Z" />
<glyph unicode="6" glyph-name="six" horiz-adv-x="419" d="M290 642T328 586T366 437H289Q289 503 269 538T210 574Q155 574 135 515T114 337Q134 365 163 380T226 396Q302 396 342 339T383 193Q383 132 362 86T303 14T218 -11Q128 -11 82 59T36 297Q36 486 80
564T213 642Q290 642 328 586ZM168 330T145 292T121 193Q121 133 144 95T213 56Q259 56 282 94T305 193Q305 253 282 291T213 330Q168 330 145 292Z" />
<glyph unicode="7" glyph-name="seven" horiz-adv-x="419" d="M194 285T194 47V0H109Q109 146 163 287T294 553H30V630H389V582Q194 285 194 47Z" />
<glyph unicode="8" glyph-name="eight" horiz-adv-x="419" d="M286 642T327 592T369 466Q369 421 352 384T301 323Q383 283 383 173Q383 92 340 41T210 -11Q122 -11 79 40T36 173Q36 283 118 323Q85 346 68 383T50 466Q50 542 92 592T210 642Q286 642 327 592ZM171
574T148 545T125 465Q125 414 148 385T210 356Q249 356 272 385T295 465Q295 516 272 545T210 574Q171 574 148 545ZM164 289T139 258T114 173Q114 118 138 87T210 56Q256 56 280 87T305 173Q305 227 281 258T210 289Q164 289 139 258Z" />
<glyph unicode="9" glyph-name="nine" horiz-adv-x="419" d="M291 642T337 572T383 334Q383 145 340 67T210 -11Q130 -11 92 45T53 194H130Q130 128 151 92T213 56Q265 56 284 115T305 293Q284 265 256 250T194 234Q117 234 77 291T36 438Q36 500 57 546T116 617T202
642Q291 642 337 572ZM160 574T137 536T114 438Q114 377 137 339T206 301Q251 301 274 339T298 438Q298 498 275 536T206 574Q160 574 137 536Z" />
<glyph unicode=":" glyph-name="colon" horiz-adv-x="210" d="M59 484H151V385H59V484ZM59 99H151V0H59V99Z" />
<glyph unicode=";" glyph-name="semicolon" horiz-adv-x="210" d="M59 484H151V385H59V484ZM59 -114L96 0H59V99H151V8L107 -114H59Z" />
<glyph unicode="&lt;" glyph-name="less" horiz-adv-x="440" d="M400 86V4L41 184V282L400 464V381L114 234L400 86Z" />
<glyph unicode="=" glyph-name="equal" horiz-adv-x="440" d="M40 369H400V292H40V369ZM40 174H400V98H40V174Z" />
<glyph unicode="&gt;" glyph-name="greater" horiz-adv-x="440" d="M41 4V86L327 234L41 381V464L400 282V184L41 4Z" />
<glyph unicode="?" glyph-name="question" horiz-adv-x="419" d="M262 642T298 621T355 563T376 478Q376 432 366 400T342 348T306 304Q281 277 269 256T257 203V165H177V217Q177 258 191 284T235 344Q264 377 278 402T292 468Q292 503 275 537T210 571Q159 571
141 533T123 447Q123 437 123 431T124 422H43Q42 425 41 434T40 454Q40 535 86 588T217 642Q262 642 298 621ZM171 99H262V0H171V99Z" />
<glyph unicode="@" glyph-name="at" horiz-adv-x="764" d="M543 642T633 557T723 295Q723 197 696 136T630 47T549 20Q512 20 493 35T467 77H464Q446 50 418 35T356 20Q311 20 276 46T241 142Q241 227 298 258T464 289V346Q464 381 449 399T393 418Q358 418 343
398T327 348V338H258V357Q258 416 296 447T399 479Q465 479 498 447T531 356V114Q531 80 563 80Q606 80 638 130T670 296Q670 446 596 518T392 591Q251 591 173 503T95 240Q95 74 161 -8T363 -90Q393 -90 436 -81T501 -60V-115Q477 -126 435 -133T363 -140Q209
-140 126 -47T42 241Q42 382 88 471T213 601T392 642Q543 642 633 557ZM389 229T351 212T313 147Q313 111 327 96T372 80Q408 80 436 108T464 188V229Q389 229 351 212Z" />
<glyph unicode="A" glyph-name="A" horiz-adv-x="503" d="M416 0L373 140H123L80 0H-1L200 630H304L503 0H416ZM245 557T241 533T232 495L146 214H350L265 495Q261 508 256 532T250 565H246Q245 557 241 533Z" />
<glyph unicode="B" glyph-name="B" horiz-adv-x="503" d="M369 630T415 588T462 476Q462 424 435 385T365 331V328Q413 312 444 269T476 167Q476 116 452 78T388 20T298 0H59V630H298Q369 630 415 588ZM275 360Q320 360 348 389T376 459Q376 507 351 532T281 557H140V360H275ZM288
74Q334 74 363 101T392 178Q392 222 362 254T282 286H140V74H288Z" />
<glyph unicode="C" glyph-name="C" horiz-adv-x="544" d="M387 642T446 581T506 402H424Q424 483 387 525T287 567Q204 567 164 510T123 338V292Q123 177 163 120T287 63Q352 63 389 104T426 226H506Q506 108 447 49T287 -11Q164 -11 101 70T38 315Q38 642 287
642Q387 642 446 581Z" />
<glyph unicode="D" glyph-name="D" horiz-adv-x="544" d="M260 630Q374 630 436 552T499 324Q499 165 437 83T260 0H64V630H260ZM253 74Q330 74 372 131T415 302V347Q415 451 373 504T253 557H146V74H253Z" />
<glyph unicode="E" glyph-name="E" horiz-adv-x="503" d="M453 630V557H146V360H413V286H146V74H459V0H64V630H453Z" />
<glyph unicode="F" glyph-name="F" horiz-adv-x="461" d="M428 630V557H146V353H395V280H146V0H64V630H428Z" />
<glyph unicode="G" glyph-name="G" horiz-adv-x="587" d="M281 329H527V0H473L456 70Q402 -11 293 -11Q172 -11 109 71T45 315Q45 477 111 559T297 642Q401 642 464 584T527 416H444Q444 492 405 529T297 567Q218 567 174 509T130 338V292Q130 177 171 120T293
63Q371 63 407 107T444 242V258H281V329Z" />
<glyph unicode="H" glyph-name="H" horiz-adv-x="544" d="M399 0V286H146V0H64V630H146V360H399V630H479V0H399Z" />
<glyph unicode="I" glyph-name="I" horiz-adv-x="210" d="M64 630H146V0H64V630Z" />
<glyph unicode="J" glyph-name="J" horiz-adv-x="376" d="M317 72T277 31T164 -11Q91 -11 51 30T11 150V191H93V146Q93 106 111 85T164 63Q199 63 217 84T236 146V630H317V150Q317 72 277 31Z" />
<glyph unicode="K" glyph-name="K" horiz-adv-x="503" d="M486 630L296 376L492 0H400L246 308L146 196V0H64V630H146V297L395 630H486Z" />
<glyph unicode="L" glyph-name="L" horiz-adv-x="419" d="M402 74V0H64V630H146V74H402Z" />
<glyph unicode="M" glyph-name="M" horiz-adv-x="628" d="M490 0V458Q491 482 493 512T496 555H493L487 529Q485 520 481 498T471 458L345 0H274L147 458Q141 480 133 526L128 555H124Q125 542 127 512T130 458V0H57V630H180L291 217Q299 188 305 140T313 75H316Q317
91 323 140T337 217L448 630H571V0H490Z" />
<glyph unicode="N" glyph-name="N" horiz-adv-x="544" d="M413 0L177 401Q167 418 154 447T136 487L133 486Q134 476 135 451T137 401V0H64V630H134L368 234Q377 219 390 190T408 150L410 151L408 234V630H479V0H413Z" />
<glyph unicode="O" glyph-name="O" horiz-adv-x="587" d="M412 642T477 560T542 315Q542 154 477 72T293 -11Q175 -11 110 71T45 315Q45 477 110 559T293 642Q412 642 477 560ZM216 567T173 509T130 338V292Q130 179 173 121T293 63Q370 63 413 121T457 292V338Q457
451 414 509T293 567Q216 567 173 509Z" />
<glyph unicode="P" glyph-name="P" horiz-adv-x="503" d="M64 0V630H289Q381 630 429 581T478 447Q478 363 427 312T289 260H146V0H64ZM287 334Q336 334 364 365T393 447Q393 499 366 528T287 557H146V334H287Z" />
<glyph unicode="Q" glyph-name="Q" horiz-adv-x="587" d="M45 477T110 559T293 642Q412 642 477 560T542 315Q542 192 503 114T392 6L522 -114H414L305 -11H293Q175 -11 110 71T45 315Q45 477 110 559ZM130 179T173 121T293 63Q370 63 413 121T457 292V338Q457
451 414 509T293 567Q216 567 173 509T130 338V292Q130 179 173 121Z" />
<glyph unicode="R" glyph-name="R" horiz-adv-x="544" d="M409 630T457 583T506 456Q506 397 477 354T394 293L521 0H432L314 279H146V0H64V630H318Q409 630 457 583ZM146 353H315Q364 353 393 381T422 456Q422 504 395 530T315 557H146V353Z" />
<glyph unicode="S" glyph-name="S" horiz-adv-x="503" d="M339 642T393 598T448 464V453H365V467Q365 514 334 540T253 567Q200 567 168 545T136 479Q136 447 154 427T200 394T276 365Q337 345 374 327T437 274T464 182Q464 82 406 36T250 -11Q156 -11 97 35T37
178L38 197H123L122 178Q122 122 156 93T246 63Q310 63 344 90T379 168Q379 202 361 224T314 258T237 287Q177 307 140 325T77 378T51 472Q51 556 107 599T251 642Q339 642 393 598Z" />
<glyph unicode="T" glyph-name="T" horiz-adv-x="461" d="M270 557V0H189V557H18V630H442V557H270Z" />
<glyph unicode="U" glyph-name="U" horiz-adv-x="544" d="M479 100T425 45T272 -11Q173 -11 119 44T64 205V630H146V201Q146 134 179 99T272 63Q333 63 366 98T399 201V630H479V205Q479 100 425 45Z" />
<glyph unicode="V" glyph-name="V" horiz-adv-x="503" d="M7 630H97L253 89H257L417 630H495L304 0H200L7 630Z" />
<glyph unicode="W" glyph-name="W" horiz-adv-x="711" d="M374 427Q368 465 364 502T357 554H353Q351 540 347 503T336 427L260 0H155L9 630H95L191 194Q197 172 202 134T210 83H214Q215 93 219 126T230 194L303 630H415L493 194Q499 158 504 126T510 83H513Q515
95 520 132T532 194L629 630H702L556 0H451L374 427Z" />
<glyph unicode="X" glyph-name="X" horiz-adv-x="503" d="M404 0L248 257L90 0H4L205 328L22 630H118L254 405L392 630H479L296 335L499 0H404Z" />
<glyph unicode="Y" glyph-name="Y" horiz-adv-x="503" d="M211 0V261L7 630H97L257 338H260L417 630H495L292 261V0H211Z" />
<glyph unicode="Z" glyph-name="Z" horiz-adv-x="461" d="M133 74H440V0H19V35L318 557H37V630H434V596L133 74Z" />
<glyph unicode="[" glyph-name="bracketleft" horiz-adv-x="210" d="M114 -88H191V-148H45V676H191V616H114V-88Z" />
<glyph unicode="\" glyph-name="backslash" horiz-adv-x="210" d="M1 676H66L210 -45H145L1 676Z" />
<glyph unicode="]" glyph-name="bracketright" horiz-adv-x="210" d="M19 -88H95V616H19V676H164V-148H19V-88Z" />
<glyph unicode="^" glyph-name="asciicircum" horiz-adv-x="354" d="M178 560L86 270H4L129 630H227L353 270H270L178 560Z" />
<glyph unicode="_" glyph-name="underscore" horiz-adv-x="419" d="M0 -66H418V-114H0V-66Z" />
<glyph unicode="`" glyph-name="grave" horiz-adv-x="251" d="M25 661L26 665H108L187 543H124L25 661Z" />
<glyph unicode="a" glyph-name="a" horiz-adv-x="419" d="M278 495T315 460T352 360V88Q352 73 359 65T376 56H407V4Q387 -7 357 -7Q328 -7 308 9T281 52H276Q257 22 227 6T158 -11Q109 -11 70 18T31 125Q31 218 94 252T276 287V349Q276 387 260 407T200 427Q160
427 143 405T125 352V340H51Q50 345 50 361Q50 425 92 460T205 495Q278 495 315 460ZM193 219T152 201T110 130Q110 90 126 73T176 56Q215 56 245 88T276 176V219Q193 219 152 201Z" />
<glyph unicode="b" glyph-name="b" horiz-adv-x="419" d="M135 438Q148 464 175 479T238 495Q302 495 342 432T383 242Q383 114 344 52T233 -11Q199 -11 172 6T127 56H123L112 0H55V665H131V438H135ZM131 427T131 256V225Q131 56 217 56Q261 56 282 96T304 225V259Q304
348 283 387T217 427Q131 427 131 256Z" />
<glyph unicode="c" glyph-name="c" horiz-adv-x="376" d="M276 495T311 447T346 305H268Q268 370 253 398T199 427Q154 427 133 386T112 259V225Q112 140 133 98T199 56Q238 56 255 86T272 179H346Q346 96 310 43T199 -11Q113 -11 73 50T33 241Q33 372 73 433T199
495Q276 495 311 447Z" />
<glyph unicode="d" glyph-name="d" horiz-adv-x="419" d="M297 56H292Q275 23 248 6T186 -11Q115 -11 76 51T36 242Q36 368 76 431T181 495Q216 495 243 480T284 438H289V665H364V0H307L297 56ZM158 427T137 388T115 259V225Q115 136 136 96T202 56Q289 56 289
225V256Q289 427 202 427Q158 427 137 388Z" />
<glyph unicode="e" glyph-name="e" horiz-adv-x="419" d="M302 495T341 441T380 267V219H118Q119 135 144 96T224 56Q260 56 282 85T305 164H380Q380 84 337 37T222 -11Q129 -11 84 49T38 241Q38 371 83 433T220 495Q302 495 341 441ZM171 427T148 393T119 287H301Q301
427 220 427Q171 427 148 393Z" />
<glyph unicode="f" glyph-name="f" horiz-adv-x="210" d="M181 672T210 661V608H170Q126 608 126 565V484H210V416H126V0H51V416H8V484H51V561Q51 608 73 640T147 672Q181 672 210 661Z" />
<glyph unicode="g" glyph-name="g" horiz-adv-x="419" d="M400 518T379 487T320 446Q363 400 363 332Q363 257 322 214T209 170H158Q139 170 127 157T114 126Q114 108 127 96T158 83H296Q347 83 378 50T410 -30Q410 -90 373 -128T268 -167H131Q74 -167 43 -135T11
-52Q11 -17 28 11T75 51Q56 63 46 82T35 123Q35 152 53 173T103 207Q76 228 62 260T47 332Q47 408 89 451T205 495Q242 495 275 477Q305 493 318 514T335 562H400Q400 518 379 487ZM165 432T144 406T123 332Q123 283 143 258T204 232Q244 232 265 258T287 332Q287
380 266 406T204 432Q165 432 144 406ZM116 11T102 -4T87 -45Q87 -70 102 -86T144 -102H277Q301 -102 317 -85T334 -45Q334 -21 319 -5T277 11H144Q116 11 102 -4Z" />
<glyph unicode="h" glyph-name="h" horiz-adv-x="419" d="M172 495T244 495Q302 495 333 461T364 348V0H289V343Q289 390 272 408T220 427Q183 427 157 392T131 295V0H55V665H131V433H136Q172 495 244 495Z" />
<glyph unicode="i" glyph-name="i" horiz-adv-x="167" d="M46 665H122V574H46V665ZM46 484H122V0H46V484Z" />
<glyph unicode="j" glyph-name="j" horiz-adv-x="167" d="M46 665H122V574H46V665ZM122 -103T100 -135T26 -167Q10 -167 -7 -164T-37 -156V-104H3Q24 -104 35 -93T46 -59V484H122V-56Q122 -103 100 -135Z" />
<glyph unicode="k" glyph-name="k" horiz-adv-x="376" d="M370 484L228 285L378 0H292L182 220L131 164V0H55V665H131V259L287 484H370Z" />
<glyph unicode="l" glyph-name="l" horiz-adv-x="167" d="M46 665H122V0H46V665Z" />
<glyph unicode="m" glyph-name="m" horiz-adv-x="628" d="M573 495T573 348V0H497V343Q497 390 481 408T435 427Q400 427 377 392T353 295V0H277V343Q277 390 261 408T214 427Q179 427 155 392T131 295V0H55V484H112L123 427H128Q165 495 238 495Q315 495 341
424Q360 458 391 476T459 495Q573 495 573 348Z" />
<glyph unicode="n" glyph-name="n" horiz-adv-x="419" d="M302 495T333 461T364 348V0H289V343Q289 390 272 408T220 427Q183 427 157 392T131 295V0H55V484H112L123 427H128Q166 495 244 495Q302 495 333 461Z" />
<glyph unicode="o" glyph-name="o" horiz-adv-x="419" d="M383 495T383 241Q383 -11 210 -11Q36 -11 36 241Q36 495 210 495Q383 495 383 241ZM115 427T115 259V225Q115 56 210 56Q304 56 304 225V259Q304 342 281 384T210 427Q115 427 115 259Z" />
<glyph unicode="p" glyph-name="p" horiz-adv-x="419" d="M304 495T343 433T383 241Q383 116 343 53T238 -11Q203 -11 176 3T135 43H131V-159H55V484H112L123 427H127Q144 460 171 477T233 495Q304 495 343 433ZM131 427T131 259V225Q131 56 217 56Q261 56 282
96T304 225V259Q304 348 283 387T217 427Q131 427 131 259Z" />
<glyph unicode="q" glyph-name="q" horiz-adv-x="419" d="M220 495T247 478T292 427H297L307 484H364V-159H289V43H284Q271 18 244 4T181 -11Q117 -11 77 52T36 241Q36 370 75 432T186 495Q220 495 247 478ZM158 427T137 388T115 259V225Q115 136 136 96T202 56Q289
56 289 225V259Q289 427 202 427Q158 427 137 388Z" />
<glyph unicode="r" glyph-name="r" horiz-adv-x="251" d="M222 495T232 492T245 488V409H220Q181 409 156 382T131 295V0H55V484H112L123 420H128Q138 452 158 473T210 495Q222 495 232 492Z" />
<glyph unicode="s" glyph-name="s" horiz-adv-x="376" d="M257 495T294 457T331 362L330 344H252V353Q252 385 236 406T185 428Q149 428 135 408T120 362Q120 332 141 317T208 286Q249 272 275 258T321 214T340 138Q340 63 298 26T186 -11Q108 -11 69 30T30 131Q30
142 30 146T31 151H110V141Q110 98 132 77T189 55Q220 55 241 74T262 127Q262 153 250 169T219 195T167 217Q126 232 102 245T60 286T42 357Q42 421 82 458T192 495Q257 495 294 457Z" />
<glyph unicode="t" glyph-name="t" horiz-adv-x="210" d="M194 416H130V100Q130 79 141 68T173 56H194V4Q185 -2 170 -5T140 -9Q95 -9 75 23T54 102V416H12V484H54L71 618H130V484H194V416Z" />
<glyph unicode="u" glyph-name="u" horiz-adv-x="419" d="M297 56H291Q255 -11 175 -11Q55 -11 55 135V484H131V140Q131 93 148 75T199 56Q236 56 262 92T289 188V484H364V0H307L297 56Z" />
<glyph unicode="v" glyph-name="v" horiz-adv-x="376" d="M148 0L9 484H92L158 236Q165 214 178 160L190 115H194Q200 139 220 213L226 234L292 484H368L230 0H148Z" />
<glyph unicode="w" glyph-name="w" horiz-adv-x="544" d="M288 276Q282 307 279 342T274 387H269Q268 377 265 343T255 276L205 0H122L1 484H83L145 211Q151 187 156 148T163 97H167Q168 108 172 140T182 211L231 484H318L368 211Q374 173 378 141T383 97H386Q387
107 392 142T406 211L466 484H543L422 0H338L288 276Z" />
<glyph unicode="x" glyph-name="x" horiz-adv-x="376" d="M281 0L186 178L88 0H5L147 244L11 484H103L190 318L281 484H365L230 251L371 0H281Z" />
<glyph unicode="y" glyph-name="y" horiz-adv-x="376" d="M221 -65T185 -116T89 -167Q57 -167 35 -160V-107H61Q134 -107 157 0L9 484H92L162 235L182 167L199 108H202Q207 131 219 177L233 234L292 484H368L245 25Q221 -65 185 -116Z" />
<glyph unicode="z" glyph-name="z" horiz-adv-x="376" d="M353 68V0H24V35L236 416H38V484H340V448L127 68H353Z" />
<glyph unicode="{" glyph-name="braceleft" horiz-adv-x="252" d="M161 623T161 558Q161 517 160 486T158 434L155 368Q153 319 135 294T74 269V260Q116 260 134 235T155 161Q157 117 157 96Q161 14 161 -28Q161 -65 182 -79T234 -94V-147Q166 -147 128 -119T89
-10V171Q89 199 69 212T19 226V304Q48 304 68 317T89 359V540Q89 619 127 647T234 676V623Q161 623 161 558Z" />
<glyph unicode="|" glyph-name="bar" horiz-adv-x="196" d="M61 665H134V-159H61V665Z" />
<glyph unicode="}" glyph-name="braceright" horiz-adv-x="252" d="M86 676T124 648T162 540V359Q162 330 183 317T234 304V226Q205 226 184 213T162 171V-10Q162 -90 124 -118T19 -147V-94Q50 -94 71 -80T92 -28Q92 33 98 161Q99 210 117 235T178 260V269Q136
269 118 294T98 368Q92 498 92 558Q92 623 19 623V676Q86 676 124 648Z" />
<glyph unicode="~" glyph-name="asciitilde" horiz-adv-x="440" d="M408 270T394 253T356 220T300 205Q281 205 264 212T221 233Q197 247 179 254T140 261Q112 261 88 246T48 214T32 194V279Q32 281 46 298T84 330T140 345Q159 345 176 338T219 317Q246 303 263
296T300 289Q328 289 352 304T392 337T408 357V272Q408 270 394 253Z" />
<glyph unicode="&#xa0;" glyph-name="uni00A0" horiz-adv-x="210" />
<glyph unicode="&#xa1;" glyph-name="exclamdown" horiz-adv-x="251" d="M99 385V484H190V385H99ZM178 195Q193 -118 196 -147H92Q99 -32 109 202Q110 242 114 327H172L178 195Z" />
<glyph unicode="&#xa2;" glyph-name="cent" horiz-adv-x="419" d="M309 560T341 513T374 378H296Q296 435 283 463T238 499V131Q271 138 285 168T300 253H374Q374 176 341 124T238 63V-45H193V63Q117 72 81 133T44 315Q44 436 80 497T193 567V665H238V567Q309
560 341 513ZM123 480T123 333V297Q123 225 140 184T193 132V497Q123 480 123 333Z" />
<glyph unicode="&#xa3;" glyph-name="sterling" horiz-adv-x="419" d="M380 642T380 464V451H305V466Q305 574 232 574Q160 574 160 473V345H282V280H159L151 73H380V0H28V73H83V280H18V345H83V459Q83 549 122 595T232 642Q380 642 380 464Z" />
<glyph unicode="&#xa4;" glyph-name="currency" horiz-adv-x="419" d="M245 542T278 528T338 488L378 527L422 483L376 438Q409 380 409 314Q409 246 376 191L422 147L378 102L338 141Q312 116 279 102T210 88Q173 88 140 102T81 141L42 102L-3 147L43 191Q10
246 10 314Q10 380 43 438L-3 483L42 527L80 488Q106 513 139 527T210 542Q245 542 278 528ZM172 478T141 456T91 397T73 314Q73 270 91 233T140 174T210 152Q247 152 278 174T327 233T345 314Q345 359 327 396T278 456T210 478Q172 478 141 456Z" />
<glyph unicode="&#xa5;" glyph-name="yen" horiz-adv-x="419" d="M396 280H250V215H396V155H250V0H170V155H23V215H170V280H23V339H140L2 630H89L214 361H218L340 630H416L279 339H396V280Z" />
<glyph unicode="&#xa6;" glyph-name="brokenbar" horiz-adv-x="196" d="M61 665H134V315H61V665ZM61 190H134V-159H61V190Z" />
<glyph unicode="&#xa7;" glyph-name="section" horiz-adv-x="419" d="M288 642T324 604T361 510V492H282V500Q282 532 266 553T215 575Q179 575 165 555T150 510Q150 480 163 459T195 423T248 390Q288 366 312 348T353 298T370 219Q370 178 352 147T306 96Q332
73 346 43T361 -29Q361 -94 322 -130T210 -167Q146 -167 109 -129T72 -35L73 -18H151V-26Q151 -58 166 -79T218 -101Q253 -101 268 -81T283 -35Q283 -5 270 16T238 51T185 84Q145 107 121 126T79 176T62 255Q62 296 81 327T127 378Q101 401 87 431T72 503Q72 569
111 605T223 642Q288 642 324 604ZM152 337T144 318T136 274Q136 240 150 216T184 176T240 140L265 125Q297 150 297 201Q297 235 283 259T248 298T190 335L167 348Q152 337 144 318Z" />
<glyph unicode="&#xa8;" glyph-name="dieresis" horiz-adv-x="251" d="M17 665H97V577H17V665ZM155 665H234V577H155V665Z" />
<glyph unicode="&#xa9;" glyph-name="copyright" horiz-adv-x="555" d="M358 642T416 602T505 488T536 315Q536 216 505 143T416 29T278 -11Q198 -11 140 29T51 142T20 315Q20 414 51 488T140 602T278 642Q358 642 416 602ZM212 598T163 564T88 465T61 315Q61
230 87 166T163 67T278 32Q344 32 393 67T468 166T494 315Q494 401 468 465T393 563T278 598Q212 598 163 564ZM338 513T373 477T409 372H356Q356 418 336 441T280 465Q233 465 210 433T187 335V307Q187 241 210 209T280 176Q316 176 337 199T358 267H409Q409 198
374 163T280 128Q133 128 133 320Q133 513 280 513Q338 513 373 477Z" />
<glyph unicode="&#xaa;" glyph-name="ordfeminine" horiz-adv-x="279" d="M274 382V344Q263 336 239 336Q219 336 205 347T186 376Q173 355 152 344T106 333Q72 333 46 352T19 425Q19 490 61 513T183 537V576Q183 601 172 614T134 628Q109 628 97 613T85 577V568H31V583Q31
628 60 652T137 676Q187 676 212 652T237 583V401Q237 391 241 387T253 382H274ZM183 488Q130 488 103 476T75 428Q75 403 85 393T118 382Q143 382 163 403T183 460V488Z" />
<glyph unicode="&#xab;" glyph-name="guillemotleft" horiz-adv-x="419" d="M179 115L50 300L179 484H244L140 300L244 115H179ZM319 115L188 300L319 484H384L281 300L384 115H319Z" />
<glyph unicode="&#xac;" glyph-name="logicalnot" horiz-adv-x="440" d="M322 331H35V416H400V181H322V331Z" />
<glyph unicode="&#xad;" glyph-name="uni00AD" horiz-adv-x="251" d="M9 293H241V203H9V293Z" />
<glyph unicode="&#xae;" glyph-name="registered" horiz-adv-x="555" d="M358 642T416 602T505 488T536 315Q536 216 505 143T416 29T278 -11Q198 -11 140 29T51 142T20 315Q20 414 51 488T140 602T278 642Q358 642 416 602ZM212 598T163 564T88 465T61 315Q61
230 87 166T163 67T278 32Q344 32 393 67T468 166T494 315Q494 401 468 465T393 563T278 598Q212 598 163 564ZM349 505T375 480T402 413Q402 381 386 358T344 327V322Q362 316 381 293T400 225Q400 188 406 174T425 154V138Q415 133 399 133Q346 133 346 203Q346
254 329 275T287 297H212V136H160V505H308Q349 505 375 480ZM289 345Q316 345 332 361T348 402Q348 429 333 443T291 457H212V345H289Z" />
<glyph unicode="&#xaf;" glyph-name="overscore" horiz-adv-x="251" d="M11 617H241V551H11V617Z" />
<glyph unicode="&#xb0;" glyph-name="degree" horiz-adv-x="368" d="M234 642T270 606T306 518Q306 466 270 430T182 393Q130 393 94 429T58 518Q58 570 94 606T182 642Q234 642 270 606ZM151 592T129 570T107 518Q107 486 129 464T182 442Q213 442 235 464T257
518Q257 548 235 570T182 592Q151 592 129 570Z" />
<glyph unicode="&#xb1;" glyph-name="plusminus" horiz-adv-x="504" d="M432 285H289V116H213V285H72V362H213V531H289V362H432V285ZM72 76H432V0H72V76Z" />
<glyph unicode="&#xb2;" glyph-name="uni00B2" horiz-adv-x="251" d="M175 676T203 651T231 575Q231 535 209 500T145 418Q140 412 128 400T107 377T93 354H232V296H22V311Q22 344 37 372T80 432L100 453Q136 491 153 517T171 575Q171 594 161 608T129 622Q107
622 96 605T85 561V532H28Q28 535 27 543T26 560Q26 618 55 647T130 676Q175 676 203 651Z" />
<glyph unicode="&#xb3;" glyph-name="uni00B3" horiz-adv-x="251" d="M174 676T201 648T229 570Q229 540 218 521T185 488Q207 476 220 454T234 400Q234 349 206 320T130 290Q78 290 50 321T21 406V416H80V404Q80 343 126 343Q150 343 163 357T177 402Q177 460
125 460H93V512H126Q145 512 158 526T171 567Q171 595 159 609T129 623Q110 623 98 609T85 566V553H28V570Q28 618 56 647T128 676Q174 676 201 648Z" />
<glyph unicode="&#xb4;" glyph-name="acute" horiz-adv-x="251" d="M62 543L141 665H225L226 661L126 543H62Z" />
<glyph unicode="&#xb5;" glyph-name="uni00B5" horiz-adv-x="419" d="M297 56H291Q255 -11 175 -11Q149 -11 131 -4V-159H55V484H131V131Q131 90 149 73T199 56Q236 56 262 92T289 188V484H364V0H307L297 56Z" />
<glyph unicode="&#xb6;" glyph-name="paragraph" horiz-adv-x="405" d="M341 -159H281V574H232V-159H172V230Q128 235 93 263T37 335T17 430Q17 485 40 530T104 603T193 630H385V574H341V-159Z" />
<glyph unicode="&#xb7;" glyph-name="middot" horiz-adv-x="210" d="M58 367H151V265H58V367Z" />
<glyph unicode="&#xb8;" glyph-name="cedilla" horiz-adv-x="251" d="M164 -35T185 -49T206 -93Q206 -134 177 -150T110 -167Q72 -167 33 -160V-115H103Q136 -115 136 -93Q136 -81 129 -76T105 -71H75L87 10H138L131 -33Q164 -35 185 -49Z" />
<glyph unicode="&#xb9;" glyph-name="uni00B9" horiz-adv-x="251" d="M234 296H36V349H109V587H35V626Q58 629 88 640T139 666H166V349H234V296Z" />
<glyph unicode="&#xba;" glyph-name="ordmasculine" horiz-adv-x="275" d="M255 676T255 503Q255 332 137 332Q20 332 20 503Q20 591 49 633T137 676Q255 676 255 503ZM76 627T76 516V492Q76 381 137 381Q199 381 199 492V516Q199 627 137 627Q76 627 76 516Z" />
<glyph unicode="&#xbb;" glyph-name="guillemotright" horiz-adv-x="419" d="M35 115L138 300L35 484H100L231 300L100 115H35ZM175 115L279 300L175 484H240L369 300L240 115H175Z" />
<glyph unicode="&#xbc;" glyph-name="onequarter" horiz-adv-x="629" d="M488 642H545L163 -11H106L488 642ZM226 261H29V314H102V551H28V591Q50 594 80 605T132 630H159V314H226V261ZM497 316T469 247T418 140H496V225Q521 291 528 327H553V140H591V88H553V0H496V88H358V136Q387
189 412 253T453 380H511Q497 316 469 247Z" />
<glyph unicode="&#xbd;" glyph-name="onehalf" horiz-adv-x="629" d="M478 642H535L154 -11H96L478 642ZM226 261H29V314H102V551H28V591Q50 594 80 605T132 630H159V314H226V261ZM533 380T561 356T589 280Q589 239 566 202T502 123L487 106Q461 80 450 58H590V0H380V15Q380
50 396 79T443 141Q450 148 475 176T514 229T527 280Q527 299 518 312T487 326Q465 326 454 309T443 265V236H385L384 264Q384 322 413 351T488 380Q533 380 561 356Z" />
<glyph unicode="&#xbe;" glyph-name="threequarters" horiz-adv-x="629" d="M178 642T205 614T233 536Q233 507 222 487T188 454Q211 443 224 420T238 366Q238 315 209 286T133 257Q81 257 53 287T25 371V382H83V369Q83 309 130 309Q153 309 166 324T180 368Q180
425 129 425H97V478H130Q149 478 162 492T175 534Q175 562 163 576T132 590Q113 590 101 575T89 531V519H31V536Q31 584 59 613T131 642Q178 642 205 614ZM480 642H538L156 -11H99L480 642ZM497 316T469 247T418 140H496V225Q521 291 528 327H553V140H591V88H553V0H496V88H358V136Q387
189 412 253T453 380H511Q497 316 469 247Z" />
<glyph unicode="&#xbf;" glyph-name="questiondown" horiz-adv-x="461" d="M178 484H270V385H178V484ZM264 224T250 197T206 137Q177 105 163 79T148 11Q148 -21 166 -54T234 -87Q283 -87 300 -49T317 36Q317 47 317 53T316 61H398Q398 58 399 49T400 29Q400 -55
356 -106T228 -158Q157 -158 111 -114T64 2Q64 46 74 77T97 129T134 174Q160 204 172 226T184 281V318H264V266Q264 224 250 197Z" />
<glyph unicode="&#xc0;" glyph-name="Agrave" horiz-adv-x="503" d="M242 691L144 809L145 812H227L306 691H242ZM416 0L373 140H123L80 0H-1L200 630H304L503 0H416ZM245 557T241 533T232 495L146 214H350L265 495Q261 508 256 532T250 565H246Q245 557 241 533Z" />
<glyph unicode="&#xc1;" glyph-name="Aacute" horiz-adv-x="503" d="M260 691H197L276 812H359L360 809L260 691ZM416 0L373 140H123L80 0H-1L200 630H304L503 0H416ZM245 557T241 533T232 495L146 214H350L265 495Q261 508 256 532T250 565H246Q245 557 241 533Z" />
<glyph unicode="&#xc2;" glyph-name="Acircumflex" horiz-adv-x="503" d="M292 686L252 759L210 686H137L216 811H288L366 686H292ZM416 0L373 140H123L80 0H-1L200 630H304L503 0H416ZM245 557T241 533T232 495L146 214H350L265 495Q261 508 256 532T250 565H246Q245
557 241 533Z" />
<glyph unicode="&#xc3;" glyph-name="Atilde" horiz-adv-x="503" d="M385 775T366 746T307 717Q283 717 251 732Q248 733 233 739T202 745Q174 745 171 717H116Q116 753 136 782T194 812Q218 812 250 797Q254 796 270 790T301 784Q328 784 332 812H385Q385 775
366 746ZM416 0L373 140H123L80 0H-1L200 630H304L503 0H416ZM245 557T241 533T232 495L146 214H350L265 495Q261 508 256 532T250 565H246Q245 557 241 533Z" />
<glyph unicode="&#xc4;" glyph-name="Adieresis" horiz-adv-x="503" d="M142 725V812H223V725H142ZM281 725V812H361V725H281ZM416 0L373 140H123L80 0H-1L200 630H304L503 0H416ZM245 557T241 533T232 495L146 214H350L265 495Q261 508 256 532T250 565H246Q245
557 241 533Z" />
<glyph unicode="&#xc5;" glyph-name="Aring" horiz-adv-x="503" d="M289 841T314 816T339 753Q339 716 314 691T251 665Q215 665 189 690T162 753Q162 790 188 815T251 841Q289 841 314 816ZM232 800T218 786T204 753Q204 734 218 720T251 706Q270 706 283 720T297
753Q297 772 284 786T251 800Q232 800 218 786ZM416 0L373 140H123L80 0H-1L200 630H304L503 0H416ZM245 557T241 533T232 495L146 214H350L265 495Q261 508 256 532T250 565H246Q245 557 241 533Z" />
<glyph unicode="&#xc6;" glyph-name="AE" horiz-adv-x="754" d="M376 557L422 360H674V286H439L487 74H720V0H416L385 140H134L80 0H-1L257 630H714V557H376ZM279 511T274 499L162 214H369L307 499L302 527Q301 536 297 556H293Q279 511 274 499Z" />
<glyph unicode="&#xc7;" glyph-name="Ccedilla" horiz-adv-x="544" d="M387 642T446 581T506 402H424Q424 483 387 525T287 567Q204 567 164 510T123 338V292Q123 177 163 120T287 63Q352 63 389 104T426 226H506Q506 108 447 49T287 -11L284 -33Q317 -35 338
-49T359 -93Q359 -134 330 -150T263 -167Q224 -167 186 -160V-115H256Q289 -115 289 -93Q289 -81 282 -76T258 -71H227L237 -7Q138 7 88 88T38 315Q38 642 287 642Q387 642 446 581Z" />
<glyph unicode="&#xc8;" glyph-name="Egrave" horiz-adv-x="503" d="M242 691L144 809L145 812H227L306 691H242ZM146 557V360H413V286H146V74H459V0H64V630H453V557H146Z" />
<glyph unicode="&#xc9;" glyph-name="Eacute" horiz-adv-x="503" d="M260 691H197L276 812H359L360 809L260 691ZM146 557V360H413V286H146V74H459V0H64V630H453V557H146Z" />
<glyph unicode="&#xca;" glyph-name="Ecircumflex" horiz-adv-x="503" d="M252 759L210 686H137L216 811H288L366 686H292L252 759ZM453 630V557H146V360H413V286H146V74H459V0H64V630H453Z" />
<glyph unicode="&#xcb;" glyph-name="Edieresis" horiz-adv-x="503" d="M142 725V812H223V725H142ZM281 725V812H361V725H281ZM146 557V360H413V286H146V74H459V0H64V630H453V557H146Z" />
<glyph unicode="&#xcc;" glyph-name="Igrave" horiz-adv-x="210" d="M97 691L-3 809L-2 812H81L160 691H97ZM64 0V630H146V0H64Z" />
<glyph unicode="&#xcd;" glyph-name="Iacute" horiz-adv-x="210" d="M114 691H51L130 812H211L212 809L114 691ZM64 0V630H146V0H64Z" />
<glyph unicode="&#xce;" glyph-name="Icircumflex" horiz-adv-x="210" d="M106 759L64 686H-10L70 811H141L219 686H147L106 759ZM64 630H146V0H64V630Z" />
<glyph unicode="&#xcf;" glyph-name="Idieresis" horiz-adv-x="210" d="M-4 725V812H76V725H-4ZM134 725V812H214V725H134ZM64 0V630H146V0H64Z" />
<glyph unicode="&#xd0;" glyph-name="Eth" horiz-adv-x="544" d="M64 630H260Q374 630 436 552T499 324Q499 165 437 83T260 0H64V297H4V356H64V630ZM289 356V297H146V74H253Q330 74 372 131T415 302V347Q415 451 373 504T253 557H146V356H289Z" />
<glyph unicode="&#xd1;" glyph-name="Ntilde" horiz-adv-x="544" d="M407 776T387 747T329 717Q315 717 303 721T272 732Q240 745 223 745Q195 745 191 717H138Q138 753 158 782T216 812Q240 812 272 797Q275 796 290 790T321 784Q335 784 343 790T353 812H407Q407
776 387 747ZM413 0L177 401Q167 418 154 447T136 487L133 486Q134 476 135 451T137 401V0H64V630H134L368 234Q377 219 390 190T408 150L410 151L408 234V630H479V0H413Z" />
<glyph unicode="&#xd2;" glyph-name="Ograve" horiz-adv-x="587" d="M285 691L186 809V812H269L348 691H285ZM412 642T477 560T542 315Q542 154 477 72T293 -11Q175 -11 110 71T45 315Q45 477 110 559T293 642Q412 642 477 560ZM216 567T173 509T130 338V292Q130
179 173 121T293 63Q370 63 413 121T457 292V338Q457 451 414 509T293 567Q216 567 173 509Z" />
<glyph unicode="&#xd3;" glyph-name="Oacute" horiz-adv-x="587" d="M303 691H239L318 812H400L401 809L303 691ZM412 642T477 560T542 315Q542 154 477 72T293 -11Q175 -11 110 71T45 315Q45 477 110 559T293 642Q412 642 477 560ZM216 567T173 509T130 338V292Q130
179 173 121T293 63Q370 63 413 121T457 292V338Q457 451 414 509T293 567Q216 567 173 509Z" />
<glyph unicode="&#xd4;" glyph-name="Ocircumflex" horiz-adv-x="587" d="M294 759L253 686H179L258 811H330L408 686H335L294 759ZM412 642T477 560T542 315Q542 154 477 72T293 -11Q175 -11 110 71T45 315Q45 477 110 559T293 642Q412 642 477 560ZM216 567T173
509T130 338V292Q130 179 173 121T293 63Q370 63 413 121T457 292V338Q457 451 414 509T293 567Q216 567 173 509Z" />
<glyph unicode="&#xd5;" glyph-name="Otilde" horiz-adv-x="587" d="M427 775T408 746T349 717Q336 717 324 720T295 731Q261 745 243 745Q216 745 212 717H159Q159 753 179 782T237 812Q251 812 263 808T293 797Q296 796 311 790T343 784Q357 784 364 790T374
812H427Q427 775 408 746ZM412 642T477 560T542 315Q542 154 477 72T293 -11Q175 -11 110 71T45 315Q45 477 110 559T293 642Q412 642 477 560ZM216 567T173 509T130 338V292Q130 179 173 121T293 63Q370 63 413 121T457 292V338Q457 451 414 509T293 567Q216 567
173 509Z" />
<glyph unicode="&#xd6;" glyph-name="Odieresis" horiz-adv-x="587" d="M185 725V812H265V725H185ZM322 725V812H402V725H322ZM412 642T477 560T542 315Q542 154 477 72T293 -11Q175 -11 110 71T45 315Q45 477 110 559T293 642Q412 642 477 560ZM216 567T173 509T130
338V292Q130 179 173 121T293 63Q370 63 413 121T457 292V338Q457 451 414 509T293 567Q216 567 173 509Z" />
<glyph unicode="&#xd7;" glyph-name="multiply" horiz-adv-x="440" d="M278 234L418 96L368 42L227 179L85 42L35 96L176 234L35 374L85 428L227 289L368 428L418 374L278 234Z" />
<glyph unicode="&#xd8;" glyph-name="Oslash" horiz-adv-x="587" d="M542 474T542 315Q542 154 477 72T293 -11Q206 -11 147 34L105 -34H46L111 70Q45 153 45 315Q45 477 110 559T293 642Q379 642 440 596L483 665H542L475 560Q542 474 542 315ZM216 567T173 509T130
338V292Q130 199 158 146L397 527Q356 567 293 567Q216 567 173 509ZM230 63T293 63Q370 63 413 121T457 292V338Q457 429 428 485L189 102Q230 63 293 63Z" />
<glyph unicode="&#xd9;" glyph-name="Ugrave" horiz-adv-x="544" d="M264 691L163 809L164 812H249L327 691H264ZM479 100T425 45T272 -11Q173 -11 119 44T64 205V630H146V201Q146 134 179 99T272 63Q333 63 366 98T399 201V630H479V205Q479 100 425 45Z" />
<glyph unicode="&#xda;" glyph-name="Uacute" horiz-adv-x="544" d="M282 691H217L296 812H379L380 809L282 691ZM479 100T425 45T272 -11Q173 -11 119 44T64 205V630H146V201Q146 134 179 99T272 63Q333 63 366 98T399 201V630H479V205Q479 100 425 45Z" />
<glyph unicode="&#xdb;" glyph-name="Ucircumflex" horiz-adv-x="544" d="M313 686L274 759L231 686H157L236 811H308L387 686H313ZM479 100T425 45T272 -11Q173 -11 119 44T64 205V630H146V201Q146 134 179 99T272 63Q333 63 366 98T399 201V630H479V205Q479
100 425 45Z" />
<glyph unicode="&#xdc;" glyph-name="Udieresis" horiz-adv-x="544" d="M162 725V812H242V725H162ZM301 725V812H382V725H301ZM479 100T425 45T272 -11Q173 -11 119 44T64 205V630H146V201Q146 134 179 99T272 63Q333 63 366 98T399 201V630H479V205Q479 100 425 45Z" />
<glyph unicode="&#xdd;" glyph-name="Yacute" horiz-adv-x="503" d="M260 691H197L276 812H359L360 809L260 691ZM292 0H211V261L7 630H97L257 338H260L417 630H495L292 261V0Z" />
<glyph unicode="&#xde;" glyph-name="Thorn" horiz-adv-x="503" d="M289 505Q381 505 429 456T478 321Q478 237 428 186T289 135H146V0H64V630H146V505H289ZM146 209H287Q335 209 364 239T393 321Q393 373 366 402T287 432H146V209Z" />
<glyph unicode="&#xdf;" glyph-name="germandbls" horiz-adv-x="461" d="M310 676T358 630T407 503Q407 458 382 419T319 363V360Q366 343 395 297T425 197Q425 139 401 94T334 25T241 0H173V68H234Q265 68 291 85T332 133T348 198Q348 248 315 284T234 321H173V389H227Q269
389 299 422T329 501Q329 551 303 579T229 608Q179 608 151 575T122 476V0H46V474Q46 577 98 626T234 676Q310 676 358 630Z" />
<glyph unicode="&#xe0;" glyph-name="agrave" horiz-adv-x="419" d="M197 543L98 661L99 665H181L260 543H197ZM278 495T315 460T352 360V88Q352 73 359 65T376 56H407V4Q387 -7 357 -7Q328 -7 308 9T281 52H276Q257 22 227 6T158 -11Q109 -11 70 18T31 125Q31
218 94 252T276 287V349Q276 387 260 407T200 427Q160 427 143 405T125 352V340H51Q50 345 50 361Q50 425 92 460T205 495Q278 495 315 460ZM193 219T152 201T110 130Q110 90 126 73T176 56Q215 56 245 88T276 176V219Q193 219 152 201Z" />
<glyph unicode="&#xe1;" glyph-name="aacute" horiz-adv-x="419" d="M214 543H151L230 665H313V661L214 543ZM278 495T315 460T352 360V88Q352 73 359 65T376 56H407V4Q387 -7 357 -7Q328 -7 308 9T281 52H276Q257 22 227 6T158 -11Q109 -11 70 18T31 125Q31 218
94 252T276 287V349Q276 387 260 407T200 427Q160 427 143 405T125 352V340H51Q50 345 50 361Q50 425 92 460T205 495Q278 495 315 460ZM193 219T152 201T110 130Q110 90 126 73T176 56Q215 56 245 88T276 176V219Q193 219 152 201Z" />
<glyph unicode="&#xe2;" glyph-name="acircumflex" horiz-adv-x="419" d="M210 613L170 540H96L174 664H246L324 540H251L210 613ZM278 495T315 460T352 360V88Q352 73 359 65T376 56H407V4Q387 -7 357 -7Q328 -7 308 9T281 52H276Q257 22 227 6T158 -11Q109 -11
70 18T31 125Q31 218 94 252T276 287V349Q276 387 260 407T200 427Q160 427 143 405T125 352V340H51Q50 345 50 361Q50 425 92 460T205 495Q278 495 315 460ZM193 219T152 201T110 130Q110 90 126 73T176 56Q215 56 245 88T276 176V219Q193 219 152 201Z" />
<glyph unicode="&#xe3;" glyph-name="atilde" horiz-adv-x="419" d="M344 628T324 599T265 569Q248 569 231 576T210 584Q194 591 183 594T160 598Q132 598 129 569H75Q75 606 95 635T154 665Q167 665 181 661T209 650Q221 645 234 641T259 636Q287 636 290 665H344Q344
628 324 599ZM278 495T315 460T352 360V88Q352 73 359 65T376 56H407V4Q387 -7 357 -7Q328 -7 308 9T281 52H276Q257 22 227 6T158 -11Q109 -11 70 18T31 125Q31 218 94 252T276 287V349Q276 387 260 407T200 427Q160 427 143 405T125 352V340H51Q50 345 50 361Q50
425 92 460T205 495Q278 495 315 460ZM193 219T152 201T110 130Q110 90 126 73T176 56Q215 56 245 88T276 176V219Q193 219 152 201Z" />
<glyph unicode="&#xe4;" glyph-name="adieresis" horiz-adv-x="419" d="M100 577V665H180V577H100ZM238 577V665H319V577H238ZM278 495T315 460T352 360V88Q352 73 359 65T376 56H407V4Q387 -7 357 -7Q328 -7 308 9T281 52H276Q257 22 227 6T158 -11Q109 -11 70
18T31 125Q31 218 94 252T276 287V349Q276 387 260 407T200 427Q160 427 143 405T125 352V340H51Q50 345 50 361Q50 425 92 460T205 495Q278 495 315 460ZM193 219T152 201T110 130Q110 90 126 73T176 56Q215 56 245 88T276 176V219Q193 219 152 201Z" />
<glyph unicode="&#xe5;" glyph-name="aring" horiz-adv-x="419" d="M246 694T271 668T297 606Q297 569 272 543T210 517Q174 517 148 542T122 606Q122 642 147 668T210 694Q246 694 271 668ZM190 652T176 639T162 606Q162 587 176 573T210 558Q228 558 242 572T257
606Q257 624 243 638T210 652Q190 652 176 639ZM278 495T315 460T352 360V88Q352 73 359 65T376 56H407V4Q387 -7 357 -7Q328 -7 308 9T281 52H276Q257 22 227 6T158 -11Q109 -11 70 18T31 125Q31 218 94 252T276 287V349Q276 387 260 407T200 427Q160 427 143
405T125 352V340H51Q50 345 50 361Q50 425 92 460T205 495Q278 495 315 460ZM193 219T152 201T110 130Q110 90 126 73T176 56Q215 56 245 88T276 176V219Q193 219 152 201Z" />
<glyph unicode="&#xe6;" glyph-name="ae" horiz-adv-x="670" d="M544 495T583 441T622 267V219H361Q361 135 386 96T466 56Q502 56 525 85T548 164H622Q622 84 579 37T464 -11Q360 -11 317 62Q291 28 255 9T178 -11Q119 -11 78 18T36 125Q36 218 99 252T282 287V349Q282
387 265 407T205 427Q166 427 149 405T131 352V340H56Q55 345 55 361Q55 425 98 460T210 495Q254 495 286 481T335 440Q380 495 464 495Q544 495 583 441ZM414 427T390 393T361 287H543Q543 356 523 391T464 427Q414 427 390 393ZM199 219T157 201T115 130Q115
90 131 73T181 56Q221 56 251 85T282 168V219Q199 219 157 201Z" />
<glyph unicode="&#xe7;" glyph-name="ccedilla" horiz-adv-x="376" d="M276 495T311 447T346 305H268Q268 370 253 398T199 427Q154 427 133 386T112 259V225Q112 140 133 98T199 56Q238 56 255 86T272 179H346Q346 98 311 45T203 -11L201 -33Q234 -35 254 -49T275
-93Q275 -134 246 -150T179 -167Q141 -167 102 -160V-115H172Q205 -115 205 -93Q205 -81 198 -76T174 -71H144L154 -5Q92 9 63 69T33 241Q33 372 73 433T199 495Q276 495 311 447Z" />
<glyph unicode="&#xe8;" glyph-name="egrave" horiz-adv-x="419" d="M211 543L112 661L113 665H196L275 543H211ZM302 495T341 441T380 267V219H118Q119 135 144 96T224 56Q260 56 282 85T305 164H380Q380 84 337 37T222 -11Q129 -11 84 49T38 241Q38 371 83 433T220
495Q302 495 341 441ZM171 427T148 393T119 287H301Q301 427 220 427Q171 427 148 393Z" />
<glyph unicode="&#xe9;" glyph-name="eacute" horiz-adv-x="419" d="M230 543H165L244 665H328L329 661L230 543ZM302 495T341 441T380 267V219H118Q119 135 144 96T224 56Q260 56 282 85T305 164H380Q380 84 337 37T222 -11Q129 -11 84 49T38 241Q38 371 83 433T220
495Q302 495 341 441ZM171 427T148 393T119 287H301Q301 427 220 427Q171 427 148 393Z" />
<glyph unicode="&#xea;" glyph-name="ecircumflex" horiz-adv-x="419" d="M210 613L170 540H96L174 664H246L324 540H251L210 613ZM302 495T341 441T380 267V219H118Q119 135 144 96T224 56Q260 56 282 85T305 164H380Q380 84 337 37T222 -11Q129 -11 84 49T38
241Q38 371 83 433T220 495Q302 495 341 441ZM171 427T148 393T119 287H301Q301 427 220 427Q171 427 148 393Z" />
<glyph unicode="&#xeb;" glyph-name="edieresis" horiz-adv-x="419" d="M100 577V665H180V577H100ZM238 577V665H319V577H238ZM302 495T341 441T380 267V219H118Q119 135 144 96T224 56Q260 56 282 85T305 164H380Q380 84 337 37T222 -11Q129 -11 84 49T38 241Q38
371 83 433T220 495Q302 495 341 441ZM171 427T148 393T119 287H301Q301 427 220 427Q171 427 148 393Z" />
<glyph unicode="&#xec;" glyph-name="igrave" horiz-adv-x="210" d="M97 543L-3 661L-2 665H81L160 543H97ZM68 0V484H142V0H68Z" />
<glyph unicode="&#xed;" glyph-name="iacute" horiz-adv-x="210" d="M114 543H51L130 665H211L212 661L114 543ZM68 0V484H142V0H68Z" />
<glyph unicode="&#xee;" glyph-name="icircumflex" horiz-adv-x="210" d="M106 613L64 540H-10L70 664H141L219 540H147L106 613ZM68 484H142V0H68V484Z" />
<glyph unicode="&#xef;" glyph-name="idieresis" horiz-adv-x="210" d="M-4 577V665H76V577H-4ZM134 577V665H214V577H134ZM68 0V484H142V0H68Z" />
<glyph unicode="&#xf0;" glyph-name="eth" horiz-adv-x="419" d="M326 497T354 417T383 241Q383 -11 210 -11Q36 -11 36 241Q36 370 80 432T200 495Q219 495 245 484Q229 515 194 561L85 551V606L151 613L135 631L107 661L109 665H190L232 620L339 630V574L274
568Q326 497 354 417ZM304 259Q304 342 280 384T210 427Q115 427 115 259V225Q115 56 210 56Q304 56 304 225V259Z" />
<glyph unicode="&#xf1;" glyph-name="ntilde" horiz-adv-x="419" d="M344 628T324 599T265 569Q248 569 231 576T210 584Q194 591 183 594T160 598Q132 598 129 569H75Q75 606 95 635T154 665Q167 665 181 661T209 650Q221 645 234 641T259 636Q287 636 290 665H344Q344
628 324 599ZM302 495T333 461T364 348V0H289V343Q289 390 272 408T220 427Q183 427 157 392T131 295V0H55V484H112L123 427H128Q166 495 244 495Q302 495 333 461Z" />
<glyph unicode="&#xf2;" glyph-name="ograve" horiz-adv-x="419" d="M202 543L101 661L102 665H186L265 543H202ZM383 495T383 241Q383 -11 210 -11Q36 -11 36 241Q36 495 210 495Q383 495 383 241ZM115 427T115 259V225Q115 56 210 56Q304 56 304 225V259Q304
342 281 384T210 427Q115 427 115 259Z" />
<glyph unicode="&#xf3;" glyph-name="oacute" horiz-adv-x="419" d="M218 543H155L234 665H316L317 661L218 543ZM383 495T383 241Q383 -11 210 -11Q36 -11 36 241Q36 495 210 495Q383 495 383 241ZM115 427T115 259V225Q115 56 210 56Q304 56 304 225V259Q304
342 281 384T210 427Q115 427 115 259Z" />
<glyph unicode="&#xf4;" glyph-name="ocircumflex" horiz-adv-x="419" d="M210 613L170 540H96L174 664H246L324 540H251L210 613ZM383 495T383 241Q383 -11 210 -11Q36 -11 36 241Q36 495 210 495Q383 495 383 241ZM115 427T115 259V225Q115 56 210 56Q304 56
304 225V259Q304 342 281 384T210 427Q115 427 115 259Z" />
<glyph unicode="&#xf5;" glyph-name="otilde" horiz-adv-x="419" d="M344 628T324 599T265 569Q248 569 231 576T210 584Q194 591 183 594T160 598Q132 598 129 569H75Q75 606 95 635T154 665Q167 665 181 661T209 650Q221 645 234 641T259 636Q287 636 290 665H344Q344
628 324 599ZM383 495T383 241Q383 -11 210 -11Q36 -11 36 241Q36 495 210 495Q383 495 383 241ZM115 427T115 259V225Q115 56 210 56Q304 56 304 225V259Q304 342 281 384T210 427Q115 427 115 259Z" />
<glyph unicode="&#xf6;" glyph-name="odieresis" horiz-adv-x="419" d="M100 577V665H180V577H100ZM238 577V665H319V577H238ZM383 495T383 241Q383 -11 210 -11Q36 -11 36 241Q36 495 210 495Q383 495 383 241ZM115 427T115 259V225Q115 56 210 56Q304 56 304
225V259Q304 342 281 384T210 427Q115 427 115 259Z" />
<glyph unicode="&#xf7;" glyph-name="divide" horiz-adv-x="504" d="M213 423H290V339H213V423ZM40 274H464V196H40V274ZM213 130H290V47H213V130Z" />
<glyph unicode="&#xf8;" glyph-name="oslash" horiz-adv-x="461" d="M402 372T402 241Q402 113 359 51T230 -11Q170 -11 132 18L107 -29H57L100 51Q57 114 57 241Q57 371 100 433T230 495Q289 495 327 466L353 513H402L359 433Q402 372 402 241ZM136 427T136 259V225Q136
164 146 133L290 400Q268 427 230 427Q136 427 136 259ZM192 56T230 56Q323 56 323 225V259Q323 316 313 349L170 83Q192 56 230 56Z" />
<glyph unicode="&#xf9;" glyph-name="ugrave" horiz-adv-x="419" d="M202 543L101 661L102 665H186L265 543H202ZM307 0L297 56H291Q255 -11 175 -11Q55 -11 55 135V484H131V140Q131 93 148 75T199 56Q236 56 262 92T289 188V484H364V0H307Z" />
<glyph unicode="&#xfa;" glyph-name="uacute" horiz-adv-x="419" d="M218 543H155L234 665H316L317 661L218 543ZM307 0L297 56H291Q255 -11 175 -11Q55 -11 55 135V484H131V140Q131 93 148 75T199 56Q236 56 262 92T289 188V484H364V0H307Z" />
<glyph unicode="&#xfb;" glyph-name="ucircumflex" horiz-adv-x="419" d="M210 613L170 540H96L174 664H246L324 540H251L210 613ZM297 56H291Q255 -11 175 -11Q55 -11 55 135V484H131V140Q131 93 148 75T199 56Q236 56 262 92T289 188V484H364V0H307L297 56Z" />
<glyph unicode="&#xfc;" glyph-name="udieresis" horiz-adv-x="419" d="M100 577V665H180V577H100ZM238 577V665H319V577H238ZM307 0L297 56H291Q255 -11 175 -11Q55 -11 55 135V484H131V140Q131 93 148 75T199 56Q236 56 262 92T289 188V484H364V0H307Z" />
<glyph unicode="&#xfd;" glyph-name="yacute" horiz-adv-x="376" d="M198 543H134L212 665H295L296 661L198 543ZM221 -65T185 -116T89 -167Q57 -167 35 -160V-107H61Q134 -107 157 0L9 484H92L162 235L182 167L199 108H202Q207 131 219 177L233 234L292 484H368L245
25Q221 -65 185 -116Z" />
<glyph unicode="&#xfe;" glyph-name="thorn" horiz-adv-x="419" d="M134 440Q149 465 175 480T233 495Q304 495 343 433T383 241Q383 116 343 53T238 -11Q203 -11 176 3T135 43H131V-159H55V665H131V441L134 440ZM131 427T131 259V225Q131 56 217 56Q261 56 282
96T304 225V259Q304 348 283 387T217 427Q131 427 131 259Z" />
<glyph unicode="&#xff;" glyph-name="ydieresis" horiz-adv-x="376" d="M79 577V665H159V577H79ZM217 577V665H297V577H217ZM221 -65T185 -116T89 -167Q57 -167 35 -160V-107H61Q134 -107 157 0L9 484H92L162 235L182 167L199 108H202Q207 131 219 177L233 234L292
484H368L245 25Q221 -65 185 -116Z" />
<glyph unicode="&#x2013;" glyph-name="endash" horiz-adv-x="419" d="M0 283H418V214H0V283Z" />
<glyph unicode="&#x2014;" glyph-name="emdash" horiz-adv-x="754" d="M0 283H754V214H0V283Z" />
<glyph unicode="&#x2018;" glyph-name="quoteleft" horiz-adv-x="167" d="M130 417H37V509L82 630H130L93 517H130V417Z" />
<glyph unicode="&#x2019;" glyph-name="quoteright" horiz-adv-x="167" d="M37 417L75 531H37V630H130V540L85 417H37Z" />
<glyph unicode="&#x201a;" glyph-name="quotesinglbase" horiz-adv-x="167" d="M34 -114L71 0H34V99H126V8L82 -114H34Z" />
<glyph unicode="&#x201c;" glyph-name="quotedblleft" horiz-adv-x="251" d="M112 517V417H20V509L64 630H112L75 517H112ZM229 517V417H137V509L181 630H229L192 517H229Z" />
<glyph unicode="&#x201d;" glyph-name="quotedblright" horiz-adv-x="251" d="M22 417L59 531H22V630H114V540L70 417H22ZM138 417L176 531H138V630H231V540L186 417H138Z" />
<glyph unicode="&#x201e;" glyph-name="quotedblbase" horiz-adv-x="251" d="M22 -114L59 0H22V99H114V8L70 -114H22ZM138 -114L176 0H138V99H231V8L186 -114H138Z" />
<glyph unicode="&#x2022;" glyph-name="bullet" horiz-adv-x="264" d="M173 418T203 388T233 316Q233 274 203 244T131 213Q90 213 61 243T31 316Q31 358 60 388T131 418Q173 418 203 388Z" />
<glyph unicode="&#x2039;" glyph-name="guilsinglleft" horiz-adv-x="251" d="M156 115L27 300L156 484H222L118 300L222 115H156Z" />
<glyph unicode="&#x203a;" glyph-name="guilsinglright" horiz-adv-x="251" d="M29 115L133 300L29 484H95L225 300L95 115H29Z" />
</font>
</defs>
</svg>
