<?xml version="1.0" standalone="no"?>
<!DOCTYPE svg PUBLIC "-//W3C//DTD SVG 1.1//EN" "http://www.w3.org/Graphics/SVG/1.1/DTD/svg11.dtd">
<svg xmlns="http://www.w3.org/2000/svg">
<defs >
<font id="Kanit" horiz-adv-x="585" ><font-face
    font-family="Kanit ExtraBold"
    units-per-em="1000"
    panose-1="0 0 9 0 0 0 0 0 0 0"
    ascent="1100"
    descent="-395"
    alphabetic="0" />
<glyph unicode=" " glyph-name="space" horiz-adv-x="320" />
<glyph unicode="!" glyph-name="exclam" horiz-adv-x="263" d="M67 467L104 644H319L282 467L216 191H14L67 467ZM-5 150H218L187 0H-36L-5 150Z" />
<glyph unicode="&quot;" glyph-name="quotedbl" horiz-adv-x="426" d="M100 644H274L207 407H50L100 644ZM312 644H486L420 407H262L312 644Z" />
<glyph unicode="#" glyph-name="numbersign" horiz-adv-x="716" d="M50 143H-6L23 280H122L166 365H80L109 503H239L313 644H497L422 503H514L588 644H771L697 503H746L717 365H624L580 280H661L632 143H508L433 0H250L325 143H233L158 0H-25L50 143ZM397 280L441
365H350L305 280H397Z" />
<glyph unicode="$" glyph-name="dollar" horiz-adv-x="557" d="M138 -8Q37 0 -23 32L13 198Q54 175 108 162T209 148Q250 148 272 157T299 188Q303 206 288 215T229 241L187 257Q118 284 87 318T55 406Q55 429 61 457Q93 617 277 646L295 730H477L459 648Q520
641 578 624L543 457Q461 494 380 494Q279 494 279 452Q279 438 296 430T377 403Q459 378 493 340T527 247Q527 225 520 188Q488 40 322 2L303 -86H121L138 -8Z" />
<glyph unicode="%" glyph-name="percent" horiz-adv-x="790" d="M132 339T98 370T63 454Q63 473 67 489Q83 567 132 610T259 654Q319 654 351 623T384 536Q384 510 379 489Q365 422 315 381T192 339Q132 339 98 370ZM541 644H744L272 0H70L541 644ZM239 447T251
458T270 494Q273 506 273 514Q273 531 264 538T236 546Q210 546 198 534T180 494L178 478Q178 462 187 455T215 447Q239 447 251 458ZM496 -10T462 21T427 105Q427 124 431 140Q447 218 496 261T623 305Q683 305 715 274T748 187Q748 161 743 140Q729 73 679 32T556
-10Q496 -10 462 21ZM603 98T615 109T634 145Q637 157 637 165Q637 182 628 189T600 197Q574 197 562 185T544 145L542 129Q542 113 551 106T579 98Q603 98 615 109Z" />
<glyph unicode="&amp;" glyph-name="ampersand" horiz-adv-x="692" d="M434 41Q396 16 342 3T228 -10Q119 -10 59 30T-2 142Q-2 158 1 176Q14 244 53 287T164 364Q129 409 129 454Q129 471 133 486Q151 564 213 609T378 654Q433 654 474 635T536 584T558 514Q558
500 555 486Q545 441 520 407T448 340L511 257Q523 271 528 295L531 310H689L685 287Q679 249 657 210T606 143L640 98L482 -21L434 41ZM354 439T366 451T382 482Q383 486 383 493Q383 521 351 521Q327 521 314 507T301 473Q301 450 329 427Q354 439 366 451ZM302
134T328 154L266 236Q241 230 224 213T207 172Q207 154 220 144T259 134Q302 134 328 154Z" />
<glyph unicode="&apos;" glyph-name="quotesingle" horiz-adv-x="214" d="M100 644H274L207 407H50L100 644Z" />
<glyph unicode="(" glyph-name="parenleft" horiz-adv-x="388" d="M10 13T10 150Q10 222 28 303Q53 420 105 516T232 678H476Q298 541 247 303Q232 234 232 169Q232 25 316 -72H72Q10 13 10 150Z" />
<glyph unicode=")" glyph-name="parenright" horiz-adv-x="388" d="M106 67T156 303Q171 372 171 435Q171 581 88 678H332Q393 591 393 454Q393 386 376 303Q351 185 299 89T172 -72H-71Q106 67 156 303Z" />
<glyph unicode="*" glyph-name="asterisk" horiz-adv-x="451" d="M64 370L153 442L65 483L154 605L216 564L227 644H384L361 564L440 605L476 478L369 437L429 365L294 277L251 364L170 277L64 370Z" />
<glyph unicode="+" glyph-name="plus" horiz-adv-x="454" d="M144 212H14L44 356H174L200 477H345L319 356H449L419 212H289L263 92H118L144 212Z" />
<glyph unicode="," glyph-name="comma" horiz-adv-x="253" d="M23 117H201L90 -120H-61L23 117Z" />
<glyph unicode="-" glyph-name="hyphen" horiz-adv-x="444" d="M43 372H447L412 208H8L43 372Z" />
<glyph unicode="." glyph-name="period" horiz-adv-x="207" d="M-4 152H163L131 0H-36L-4 152Z" />
<glyph unicode="/" glyph-name="slash" horiz-adv-x="494" d="M338 662H558L184 0H-36L338 662Z" />
<glyph unicode="0" glyph-name="zero" horiz-adv-x="673" d="M152 -10T86 49T20 221Q20 267 32 322Q67 489 157 571T419 654Q545 654 611 595T677 424Q677 378 665 322Q629 154 540 72T277 -10Q152 -10 86 49ZM369 173T399 209T445 322Q456 372 456 401Q456 438
439 454T380 471Q327 471 297 435T251 322Q241 272 241 246Q241 208 258 191T316 173Q369 173 399 209Z" />
<glyph unicode="1" glyph-name="one" horiz-adv-x="383" d="M166 444L54 428L93 607L426 654L287 0H72L166 444Z" />
<glyph unicode="2" glyph-name="two" horiz-adv-x="528" d="M-16 96Q20 142 64 181T173 270L190 283Q259 335 283 358T314 412Q316 422 316 427Q316 471 246 471Q165 471 76 435L114 616Q160 634 220 644T341 654Q438 654 492 610T546 491Q546 472 541 445Q527
382 498 343T404 255L385 241Q358 222 331 201T290 164H486L452 0H-36L-16 96Z" />
<glyph unicode="3" glyph-name="three" horiz-adv-x="542" d="M135 -10T70 0T-31 27L5 193Q42 174 89 165T181 155Q232 155 257 167T290 209Q291 212 291 218Q291 254 226 254H113L156 393H250Q286 393 304 404T328 441Q329 444 329 450Q329 488 246 488Q201 488
153 478T68 450L103 616Q208 654 324 654Q395 654 447 634T527 577T555 495Q555 481 552 464Q543 420 520 383T462 323Q485 310 497 286T510 229Q510 209 506 192Q485 88 404 39T181 -10Q135 -10 70 0Z" />
<glyph unicode="4" glyph-name="four" horiz-adv-x="554" d="M251 114H-32L-3 252L393 644H578L503 287H559L522 114H466L442 0H227L251 114ZM325 278L353 412L210 278H325Z" />
<glyph unicode="5" glyph-name="five" horiz-adv-x="529" d="M125 -10T67 -1T-28 26L8 193Q37 178 89 168T176 157Q229 157 251 170T279 215Q281 227 281 232Q281 252 267 260T218 269H21L40 359L117 644H551L503 480H267L248 413H309Q400 413 450 370T501 254Q501
234 496 207Q475 100 396 45T175 -10Q125 -10 67 -1Z" />
<glyph unicode="6" glyph-name="six" horiz-adv-x="596" d="M132 -10T71 42T10 187Q10 217 18 255L43 372Q74 514 166 584T417 654Q467 654 512 647T588 625L554 465Q522 480 487 487T405 494Q339 494 299 474T252 417L250 405Q274 418 312 426T382 435Q473 435
522 393T572 275Q572 250 566 220Q543 110 469 50T241 -10Q132 -10 71 42ZM321 139T343 156T374 212Q377 224 377 235Q377 286 307 286Q261 286 219 262L211 222Q207 196 207 188Q207 161 222 150T274 139Q321 139 343 156Z" />
<glyph unicode="7" glyph-name="seven" horiz-adv-x="501" d="M294 480H56L90 644H571L546 523L213 0H-11L294 480Z" />
<glyph unicode="8" glyph-name="eight" horiz-adv-x="619" d="M127 -10T63 32T-1 149Q-1 168 4 191Q13 234 41 273T108 333Q91 350 82 374T72 425Q72 440 75 453Q96 550 171 602T391 654Q504 654 566 611T628 494Q628 476 623 453Q615 417 593 384T537 329Q561
312 573 285T586 224Q586 208 583 191Q561 88 484 39T249 -10Q127 -10 63 32ZM385 396T399 410T418 448Q420 460 420 464Q420 484 406 493T358 503Q321 503 303 490T278 448Q276 438 276 434Q276 419 284 409T309 396L358 386Q385 396 399 410ZM328 140T351 154T380
196Q382 206 382 209Q382 241 335 252L275 265Q244 258 226 237T208 184Q208 162 225 151T281 140Q328 140 351 154Z" />
<glyph unicode="9" glyph-name="nine" horiz-adv-x="596" d="M108 -10T32 16L66 176Q123 149 215 149Q285 149 323 170T368 226L370 238Q313 208 238 208Q150 208 99 252T48 373Q48 402 53 423Q75 530 154 592T379 654Q494 654 552 604T610 462Q610 431 602 389L577
272Q546 129 453 60T203 -10Q108 -10 32 16ZM351 357T401 382L409 421Q413 436 413 452Q413 479 397 491T345 504Q301 504 278 486T246 431Q243 416 243 404Q243 379 259 368T311 357Q351 357 401 382Z" />
<glyph unicode=":" glyph-name="colon" horiz-adv-x="206" d="M63 468H229L196 314H30L63 468ZM0 170H166L133 16H-33L0 170Z" />
<glyph unicode=";" glyph-name="semicolon" horiz-adv-x="253" d="M106 468H272L239 314H73L106 468ZM23 117H201L90 -120H-61L23 117Z" />
<glyph unicode="&lt;" glyph-name="less" horiz-adv-x="538" d="M12 227L49 404L594 622L551 416L259 309L506 201L463 9L12 227Z" />
<glyph unicode="=" glyph-name="equal" horiz-adv-x="440" d="M61 460H461L430 313H30L61 460ZM19 263H419L388 116H-12L19 263Z" />
<glyph unicode="&gt;" glyph-name="greater" horiz-adv-x="538" d="M8 215L301 323L53 430L96 622L547 404L510 227L-35 9L8 215Z" />
<glyph unicode="?" glyph-name="question" horiz-adv-x="505" d="M105 208Q114 250 134 275T201 336Q210 343 219 349T237 362Q269 383 283 397T301 432Q303 442 303 445Q303 467 282 477T216 487Q174 487 132 476T59 448L93 610Q138 631 195 642T314 654Q415
654 472 612T530 498Q530 478 526 461Q514 407 489 372T409 298Q395 288 377 277Q340 252 324 237T302 201L300 191H101L105 208ZM80 150H303L272 0H49L80 150Z" />
<glyph unicode="@" glyph-name="at" horiz-adv-x="754" d="M157 -132T76 -73T-6 104Q-6 143 3 188Q40 358 155 441T450 525Q534 525 599 498T700 421T736 302Q736 281 731 253Q712 153 654 102T488 50H415Q387 36 357 29T285 21Q239 21 211 42T183 104Q183 112
187 134Q210 243 347 243H427L429 252Q432 268 420 276T369 284Q316 284 252 266L269 347Q297 358 337 364T417 371Q480 371 514 345T548 270Q548 251 544 234L526 149Q549 149 562 170T586 242Q593 279 593 300Q593 355 555 381T425 408Q314 408 242 353T146 186Q136
136 136 107Q136 42 179 13T326 -16Q436 -16 503 3L478 -114Q399 -132 303 -132Q157 -132 76 -73ZM379 102T402 125L411 168H365Q342 168 331 160T316 133L314 121Q314 102 345 102Q379 102 402 125Z" />
<glyph unicode="A" glyph-name="A" horiz-adv-x="760" d="M347 644H572L684 0H469L446 128H271L195 0H-36L347 644ZM450 278L422 434L329 278H450Z" />
<glyph unicode="B" glyph-name="B" horiz-adv-x="654" d="M120 644H488Q568 644 613 606T658 502Q658 490 654 464Q645 417 621 383T561 327Q592 312 607 290T623 232Q623 212 619 193Q600 99 537 50T358 0H-16L120 644ZM377 392Q409 392 425 404T446 444Q448
454 448 459Q448 496 396 496H293L271 392H377ZM329 147Q362 147 378 160T402 203Q404 213 404 217Q404 255 350 255H242L219 147H329Z" />
<glyph unicode="C" glyph-name="C" horiz-adv-x="612" d="M191 -10T107 55T23 239Q23 277 32 320Q67 487 173 570T473 654Q579 654 665 619L625 432Q584 453 545 462T449 472Q366 472 317 436T251 320Q244 283 244 264Q244 214 277 193T387 172Q485 172 580 211L540
23Q441 -10 333 -10Q191 -10 107 55Z" />
<glyph unicode="D" glyph-name="D" horiz-adv-x="680" d="M120 644H417Q539 644 609 583T680 405Q680 365 671 318Q639 152 546 76T291 0H-16L120 644ZM289 164Q338 164 368 176T418 222T452 318Q461 362 461 390Q461 437 436 455T355 473H299L233 164H289Z" />
<glyph unicode="E" glyph-name="E" horiz-adv-x="551" d="M120 644H621L588 485H302L284 403H533L499 240H250L232 159H518L485 0H-16L120 644Z" />
<glyph unicode="F" glyph-name="F" horiz-adv-x="539" d="M120 644H619L586 487H302L284 402H530L496 241H250L199 0H-16L120 644Z" />
<glyph unicode="G" glyph-name="G" horiz-adv-x="657" d="M183 -10T103 53T22 236Q22 274 31 319Q66 483 179 568T481 654Q597 654 678 625L639 442Q569 472 457 472Q369 472 318 436T250 319Q242 279 242 254Q242 208 269 190T362 172Q406 172 440 182L454 248H337L365
379H661L591 51Q544 23 477 7T324 -10Q183 -10 103 53Z" />
<glyph unicode="H" glyph-name="H" horiz-adv-x="701" d="M120 644H335L288 419H479L526 644H741L605 0H390L437 225H246L199 0H-16L120 644Z" />
<glyph unicode="I" glyph-name="I" horiz-adv-x="295" d="M120 644H335L199 0H-16L120 644Z" />
<glyph unicode="J" glyph-name="J" horiz-adv-x="454" d="M22 -10T-54 13L-16 191Q26 172 93 172Q147 172 169 191T203 259L284 644H499L408 215Q384 100 306 45T98 -10Q22 -10 -54 13Z" />
<glyph unicode="K" glyph-name="K" horiz-adv-x="704" d="M120 644H335L292 440L503 644H746L467 378L628 0H400L306 242L236 177L199 0H-16L120 644Z" />
<glyph unicode="L" glyph-name="L" horiz-adv-x="531" d="M120 644H335L233 164H509L475 0H-16L120 644Z" />
<glyph unicode="M" glyph-name="M" horiz-adv-x="782" d="M120 644H319L402 347L609 644H822L686 0H471L529 274L414 110H302L257 274L199 0H-16L120 644Z" />
<glyph unicode="N" glyph-name="N" horiz-adv-x="688" d="M120 644H301L450 347L513 644H728L592 0H409L261 296L199 0H-16L120 644Z" />
<glyph unicode="O" glyph-name="O" horiz-adv-x="714" d="M168 -10T95 47T21 223Q21 272 32 321Q58 441 109 514T241 620T440 654Q571 654 644 596T717 419Q717 371 706 321Q680 202 630 130T498 24T298 -10Q168 -10 95 47ZM399 172T434 207T486 321Q495 363 495
391Q495 434 473 452T401 471Q337 471 303 437T251 321Q242 281 242 253Q242 210 264 191T337 172Q399 172 434 207Z" />
<glyph unicode="P" glyph-name="P" horiz-adv-x="625" d="M120 644H455Q554 644 607 592T660 455Q660 429 654 400Q632 285 558 222T360 158H232L199 0H-16L120 644ZM346 325Q386 325 406 344T435 400Q438 415 438 428Q438 477 382 477H300L268 325H346Z" />
<glyph unicode="Q" glyph-name="Q" horiz-adv-x="714" d="M290 -172T250 -138T209 -42Q209 -31 213 -3Q121 13 71 69T20 222Q20 267 32 321Q58 441 109 514T241 620T440 654Q571 654 644 596T717 419Q717 371 706 321Q672 166 595 89T382 -5Q381 -10 381 -18Q381
-34 391 -39T427 -45Q461 -45 496 -34L470 -159Q450 -165 421 -168T365 -172Q290 -172 250 -138ZM399 172T434 207T486 321Q495 363 495 391Q495 434 473 452T401 471Q337 471 303 437T251 321Q242 281 242 253Q242 210 264 191T337 172Q399 172 434 207Z" />
<glyph unicode="R" glyph-name="R" horiz-adv-x="645" d="M120 644H468Q559 644 610 596T661 466Q661 439 655 409Q642 344 601 295T498 216Q514 201 521 172L560 0H336L301 149Q298 164 291 170T267 176H236L199 0H-16L120 644ZM350 342Q389 342 409 358T436
409Q439 424 439 436Q439 457 427 467T384 477H300L271 342H350Z" />
<glyph unicode="S" glyph-name="S" horiz-adv-x="557" d="M132 -10T74 1T-23 32L13 200Q56 178 109 164T209 150Q251 150 273 158T300 188Q304 207 288 217T222 245Q209 249 187 257Q120 282 87 317T54 408Q54 431 60 456Q82 559 158 606T378 654Q427 654 483
645T578 624L542 455Q457 492 379 492Q333 492 306 484T279 452Q279 438 297 430T377 404Q458 380 492 340T527 242Q527 216 521 189Q501 95 421 43T198 -10Q132 -10 74 1Z" />
<glyph unicode="T" glyph-name="T" horiz-adv-x="560" d="M219 487H47L80 644H640L607 487H434L331 0H116L219 487Z" />
<glyph unicode="U" glyph-name="U" horiz-adv-x="696" d="M212 -10T153 18T62 96T30 214Q30 238 37 275L115 644H330L252 276Q247 249 247 234Q247 201 266 187T328 172Q380 172 408 196T448 276L526 644H741L658 251Q631 124 535 57T289 -10Q212 -10 153 18Z" />
<glyph unicode="V" glyph-name="V" horiz-adv-x="760" d="M100 644H318L370 252L589 644H820L436 0H211L100 644Z" />
<glyph unicode="W" glyph-name="W" horiz-adv-x="901" d="M100 644H310L309 350L403 541L425 644H600L623 349L751 644H961L676 0H491L466 293L310 0H114L100 644Z" />
<glyph unicode="X" glyph-name="X" horiz-adv-x="781" d="M276 326L114 644H338L420 475L575 644H799L503 326L672 0H445L357 175L196 0H-31L276 326Z" />
<glyph unicode="Y" glyph-name="Y" horiz-adv-x="720" d="M245 235L100 644H318L387 420L550 644H780L460 235L411 0H196L245 235Z" />
<glyph unicode="Z" glyph-name="Z" horiz-adv-x="582" d="M-14 106L322 473H78L114 644H641L616 526L284 164H545L511 0H-36L-14 106Z" />
<glyph unicode="[" glyph-name="bracketleft" horiz-adv-x="385" d="M114 706H463L433 542H294L192 65H332L292 -99H-57L114 706Z" />
<glyph unicode="\" glyph-name="backslash" horiz-adv-x="516" d="M104 662H328L428 -54H205L104 662Z" />
<glyph unicode="]" glyph-name="bracketright" horiz-adv-x="385" d="M-33 65H107L209 542H70L110 706H459L287 -99H-62L-33 65Z" />
<glyph unicode="^" glyph-name="asciicircum" horiz-adv-x="546" d="M272 624H416L548 367H351L316 469L240 367H42L272 624Z" />
<glyph unicode="_" glyph-name="underscore" horiz-adv-x="513" d="M-36 0H437L406 -142H-66L-36 0Z" />
<glyph unicode="`" glyph-name="grave" horiz-adv-x="308" d="M125 738H291L337 522H179L125 738Z" />
<glyph unicode="a" glyph-name="a" horiz-adv-x="617" d="M96 -10T50 33T3 155Q3 187 10 218Q36 347 112 415T295 484Q366 484 401 449L406 474H621L521 0H335L332 34Q298 12 261 1T177 -10Q96 -10 50 33ZM319 144T341 166L371 309Q356 329 323 329Q286 329 264
301T229 218Q225 194 225 188Q225 164 238 154T278 144Q319 144 341 166Z" />
<glyph unicode="b" glyph-name="b" horiz-adv-x="617" d="M236 -10T187 34L170 0H-16L127 674H342L296 461Q319 471 351 477T413 484Q502 484 551 443T601 317Q601 283 592 241Q564 114 497 52T321 -10Q236 -10 187 34ZM320 144T340 165T372 238Q377 259 377 280Q377
306 365 317T326 329Q291 329 264 309L234 166Q254 144 287 144Q320 144 340 165Z" />
<glyph unicode="c" glyph-name="c" horiz-adv-x="513" d="M144 -10T76 38T8 179Q8 207 14 237Q41 361 127 422T353 484Q409 484 451 476T530 450L498 300Q443 329 368 329Q309 329 276 308T233 237Q229 221 229 205Q229 173 252 159T330 145Q400 145 475 180L441
23Q360 -10 249 -10Q144 -10 76 38Z" />
<glyph unicode="d" glyph-name="d" horiz-adv-x="617" d="M102 -10T54 34T5 164Q5 193 13 235Q40 364 110 424T296 484Q324 484 355 478T403 461L449 674H664L521 0H335L332 34Q264 -10 183 -10Q102 -10 54 34ZM311 144T341 166L371 309Q352 329 317 329Q281 329
262 307T232 233Q226 206 226 189Q226 164 238 154T278 144Q311 144 341 166Z" />
<glyph unicode="e" glyph-name="e" horiz-adv-x="559" d="M141 -10T74 39T7 179Q7 205 13 235Q40 356 113 420T328 484Q426 484 484 435T542 305Q542 285 537 258L520 176H198Q203 147 234 134T332 121Q373 121 416 128T489 146L463 24Q385 -10 249 -10Q141 -10
74 39ZM370 288L372 301Q375 323 359 337T307 352Q225 352 212 288H370Z" />
<glyph unicode="f" glyph-name="f" horiz-adv-x="368" d="M69 317H11L44 474H102L107 497Q128 591 182 640T341 690Q417 690 473 665L444 529Q417 539 386 539Q355 539 341 528T321 492L317 474H425L383 317H284L217 0H2L69 317Z" />
<glyph unicode="g" glyph-name="g" horiz-adv-x="617" d="M122 -176T74 -173T7 -166L38 -21Q57 -26 89 -30T146 -34Q228 -34 264 -23T308 14L310 22Q287 11 255 4T193 -3Q107 -3 56 38T5 163Q5 194 12 228Q37 353 108 418T294 484Q372 484 418 440L435 474H621L536
74Q518 -9 476 -64T354 -147T149 -176Q122 -176 74 -173ZM314 146T341 166L371 307Q361 319 350 324T321 329Q283 329 263 306T231 229Q226 202 226 189Q226 164 238 155T279 146Q314 146 341 166Z" />
<glyph unicode="h" glyph-name="h" horiz-adv-x="615" d="M127 674H342L294 450Q321 465 358 474T434 484Q512 484 552 449T592 349Q592 324 586 295L524 0H308L367 278Q369 292 369 296Q369 312 361 318T332 325Q314 325 295 318T262 298L199 0H-16L127 674Z" />
<glyph unicode="i" glyph-name="i" horiz-adv-x="362" d="M178 676H409L377 525H146L178 676ZM118 318H51L102 474H366L266 0H51L118 318Z" />
<glyph unicode="j" glyph-name="j" horiz-adv-x="361" d="M178 676H409L377 525H146L178 676ZM-55 -234T-108 -210L-79 -72Q-50 -82 -21 -82Q11 -82 24 -72T43 -37L118 318H51L102 474H366L254 -52Q235 -143 181 -188T24 -234Q-55 -234 -108 -210Z" />
<glyph unicode="k" glyph-name="k" horiz-adv-x="637" d="M127 674H342L275 360L408 474H651L420 271L561 0H333L262 159L225 127L199 0H-16L127 674Z" />
<glyph unicode="l" glyph-name="l" horiz-adv-x="343" d="M11 -10T11 105Q11 131 16 152L127 674H342L237 179Q235 167 235 162Q235 151 242 147T265 142Q294 142 315 150L286 13Q254 0 226 -5T156 -10Q11 -10 11 105Z" />
<glyph unicode="m" glyph-name="m" horiz-adv-x="865" d="M84 474H283L281 440Q355 484 440 484Q484 484 506 473T539 436Q620 484 715 484Q778 484 811 451T845 359Q845 335 839 306L774 0H563L622 281Q624 288 624 299Q624 313 616 319T590 325Q577 325 562
320T536 305Q536 285 529 250L476 0H277L337 285Q339 299 339 303Q339 314 333 319T311 325Q297 325 282 318T254 299L191 0H-16L84 474Z" />
<glyph unicode="n" glyph-name="n" horiz-adv-x="615" d="M84 474H285L283 442Q315 460 363 472T459 484Q527 484 561 453T595 362Q595 341 588 304L524 0H309L368 279Q370 293 370 296Q370 312 361 318T332 325Q314 325 295 318T262 298L199 0H-16L84 474Z" />
<glyph unicode="o" glyph-name="o" horiz-adv-x="616" d="M130 -10T69 36T7 172Q7 205 14 237Q41 361 122 422T353 484Q473 484 535 437T597 300Q597 276 590 237Q565 113 482 52T248 -10Q130 -10 69 36ZM318 145T339 166T371 237Q377 263 377 280Q377 306 364
317T320 329Q284 329 264 308T233 237Q227 210 227 192Q227 167 239 156T281 145Q318 145 339 166Z" />
<glyph unicode="p" glyph-name="p" horiz-adv-x="617" d="M84 474H270L273 439Q342 484 421 484Q504 484 552 440T600 311Q600 277 591 236Q564 110 497 50T315 -10Q285 -10 253 -4T201 12L154 -208H-60L84 474ZM321 145T341 167T373 240Q378 267 378 281Q378
307 366 318T326 329Q288 329 264 307L233 164Q250 145 286 145Q321 145 341 167Z" />
<glyph unicode="q" glyph-name="q" horiz-adv-x="670" d="M360 -242T323 -209T285 -118Q285 -97 289 -78L308 12Q285 2 253 -4T192 -10Q110 -10 58 35T6 166Q6 196 14 236Q41 364 110 424T291 484Q334 484 366 472T417 439L435 474H621L510 -51Q508 -58 508 -68Q508
-91 536 -91Q562 -91 586 -82L557 -219Q525 -232 497 -237T427 -242Q360 -242 323 -209ZM314 145T340 164L371 307Q355 329 320 329Q286 329 265 309T234 240Q228 212 228 193Q228 167 240 156T279 145Q314 145 340 164Z" />
<glyph unicode="r" glyph-name="r" horiz-adv-x="415" d="M84 474H293L291 441Q324 458 370 470T461 484L428 325Q387 323 339 316T262 297L199 0H-16L84 474Z" />
<glyph unicode="s" glyph-name="s" horiz-adv-x="497" d="M112 -10T57 -1T-27 22L4 166Q34 149 81 139T165 129Q203 129 217 131T231 146Q231 154 219 159T180 173Q152 181 130 189Q81 208 56 234T30 300Q30 310 34 332Q50 408 115 446T310 484Q356 484 408 477T488
460L458 318Q431 331 397 338T332 345Q296 345 276 343T252 329Q251 321 263 316T305 302Q325 297 346 290Q405 272 430 248T456 183Q456 167 451 144Q435 69 369 30T175 -10Q112 -10 57 -1Z" />
<glyph unicode="t" glyph-name="t" horiz-adv-x="388" d="M115 -10T75 26T34 127Q34 150 40 177L70 317H11L44 474H103L123 569L348 616L318 474H421L382 317H285L258 190Q256 176 256 172Q256 156 267 149T302 142Q331 142 364 152L334 14Q271 -10 192 -10Q115
-10 75 26Z" />
<glyph unicode="u" glyph-name="u" horiz-adv-x="615" d="M85 -10T48 26T10 125Q10 153 15 174L79 474H294L235 195L233 179Q233 162 243 155T273 148Q293 148 311 155T341 175L404 474H619L519 0H317L318 31Q286 12 243 1T151 -10Q85 -10 48 26Z" />
<glyph unicode="v" glyph-name="v" horiz-adv-x="639" d="M64 474H282L305 226L433 474H663L376 0H151L64 474Z" />
<glyph unicode="w" glyph-name="w" horiz-adv-x="798" d="M64 474H270L276 275L345 403L360 474H516L528 275L616 474H822L597 0H412L389 184L288 0H89L64 474Z" />
<glyph unicode="x" glyph-name="x" horiz-adv-x="641" d="M203 241L76 474H280L333 374L429 474H632L408 241L540 0H334L276 106L174 0H-31L203 241Z" />
<glyph unicode="y" glyph-name="y" horiz-adv-x="615" d="M119 -176T73 -173T7 -166L38 -21Q57 -26 89 -30T146 -34Q304 -34 314 24L317 41Q247 0 154 0Q87 0 50 35T12 133Q12 157 18 184L79 474H294L237 205Q235 198 235 186Q235 171 244 165T275 158Q291 158
310 166T343 185L404 474H619L534 74Q508 -48 419 -112T145 -176Q119 -176 73 -173Z" />
<glyph unicode="z" glyph-name="z" horiz-adv-x="500" d="M-12 115L208 309H35L70 474H517L491 351L278 159H457L424 0H-36L-12 115Z" />
<glyph unicode="{" glyph-name="braceleft" horiz-adv-x="338" d="M65 -104T34 -77T3 1Q3 25 8 45L37 175Q41 190 41 204Q41 225 31 235T-2 250L24 372Q53 370 68 381T90 425L119 563Q131 621 150 650T199 690T282 701H421L385 530H356Q335 530 327 522T313 491L291
386Q278 325 226 291Q254 265 254 225Q254 217 250 195L228 91Q226 79 226 75Q226 63 233 58T254 53H283L249 -104H118Q65 -104 34 -77Z" />
<glyph unicode="|" glyph-name="bar" horiz-adv-x="255" d="M120 735H335L153 -120H-61L120 735Z" />
<glyph unicode="}" glyph-name="braceright" horiz-adv-x="338" d="M-31 67H-2Q19 67 27 75T41 106L63 211Q76 272 128 306Q100 332 100 372Q100 380 104 402L126 506Q128 518 128 522Q128 534 121 539T100 544H71L105 701H236Q289 701 320 674T351 596Q351 572
346 552L317 422Q313 407 313 393Q313 372 323 362T356 347L330 225Q301 227 286 216T264 172L235 34Q219 -43 183 -73T72 -104H-67L-31 67Z" />
<glyph unicode="~" glyph-name="asciitilde" horiz-adv-x="524" d="M338 181T313 189T251 213Q215 229 190 237T136 245Q97 245 65 232T3 188L43 374Q65 397 100 410T173 423Q204 423 230 415T295 389Q332 373 355 366T405 358Q444 358 475 371T536 415L496 229Q474
206 440 194T367 181Q338 181 313 189Z" />
<glyph unicode="&#xa0;" glyph-name="uni00A0" horiz-adv-x="320" />
<glyph unicode="&#xa1;" glyph-name="exclamdown" horiz-adv-x="263" d="M96 560H319L288 410H65L96 560ZM1 93L67 369H269L216 93L179 -84H-36L1 93Z" />
<glyph unicode="&#xa2;" glyph-name="cent" horiz-adv-x="513" d="M145 4Q82 24 45 68T8 180Q8 207 14 237Q35 335 93 394T245 473L264 560H446L429 480Q483 473 530 450L498 300Q443 329 368 329Q309 329 276 308T233 237Q229 221 229 205Q229 173 252 159T330
145Q400 145 475 180L441 23Q389 2 325 -6L308 -86H126L145 4Z" />
<glyph unicode="&#xa3;" glyph-name="sterling" horiz-adv-x="483" d="M-3 156H20Q58 156 66 195L78 251H19L52 408H111L122 460Q163 654 360 654Q441 654 495 628L466 492Q441 503 403 503Q372 503 357 492T336 453L326 408H445L403 251H293L284 208Q280 189
274 178T253 156H440L407 0H-36L-3 156Z" />
<glyph unicode="&#xa4;" glyph-name="currency" horiz-adv-x="572" d="M-6 142L80 197Q77 212 77 228Q77 246 82 269Q90 307 111 340L49 396L164 508L230 445Q277 467 328 467Q379 467 417 444L511 507L580 396L491 340Q495 325 495 305Q495 285 491 269Q482 232
461 198L523 140L410 30L341 92Q292 69 244 69Q198 69 156 91L63 29L-6 142ZM300 213T319 229T343 269Q344 273 344 282Q344 301 332 313T298 326Q271 326 253 310T230 269Q228 259 228 255Q228 236 240 225T274 213Q300 213 319 229Z" />
<glyph unicode="&#xa5;" glyph-name="yen" horiz-adv-x="720" d="M208 60H80L103 169H231L240 212H113L136 322H224L100 644H317L386 420L549 644H780L518 322H606L583 212H455L446 169H573L550 60H423L411 0H196L208 60Z" />
<glyph unicode="&#xa6;" glyph-name="brokenbar" horiz-adv-x="255" d="M120 735H335L258 373H43L120 735ZM15 241H230L153 -120H-61L15 241Z" />
<glyph unicode="&#xa7;" glyph-name="section" horiz-adv-x="557" d="M131 -10T73 1T-23 32L13 198Q54 175 108 162T209 148Q250 148 272 157T299 188Q303 206 286 217T220 245L187 257Q113 284 82 314T51 393Q51 415 57 440Q61 460 71 479T95 512Q86 534 86 558Q86
572 89 587Q108 674 188 719T401 765Q448 765 506 756T602 735L566 568Q484 605 401 605Q363 605 336 598T303 569Q301 556 309 548T337 534T401 514Q487 490 522 459T557 379Q557 358 551 332Q546 310 535 287T511 252Q521 235 521 206Q521 189 519 181Q479 -10
198 -10Q131 -10 73 1ZM394 334T396 342Q400 359 379 371T310 398Q279 407 260 414T234 431Q228 421 228 412Q228 398 246 389T310 365Q344 354 364 346T390 328Q394 334 396 342Z" />
<glyph unicode="&#xa8;" glyph-name="dieresis" horiz-adv-x="423" d="M110 689H268L237 544H79L110 689ZM335 689H493L462 544H304L335 689Z" />
<glyph unicode="&#xa9;" glyph-name="copyright" horiz-adv-x="704" d="M214 -10T153 24T59 119T25 254Q25 290 32 322Q51 417 107 492T249 611T435 654Q513 654 574 620T669 525T703 391Q703 356 696 322Q676 228 623 153T486 34T293 -10Q214 -10 153 24ZM420
96T491 157T584 322Q592 360 592 390Q592 464 548 505T412 547Q305 547 236 486T144 322Q136 282 136 251Q136 178 180 137T316 96Q420 96 491 157ZM258 132T217 170T175 275Q175 301 180 322Q199 412 259 462T408 513Q447 513 474 503T526 472L506 380Q468 407
421 407Q380 407 354 388T318 322Q314 305 314 287Q314 260 330 249T383 238Q408 238 434 246T484 270L463 172Q397 132 327 132Q258 132 217 170Z" />
<glyph unicode="&#xaa;" glyph-name="ordfeminine" horiz-adv-x="332" d="M104 380T83 397T61 447Q61 452 63 466Q80 555 193 555H257L258 558Q262 569 252 574T213 580Q165 580 117 566L131 634Q155 643 187 648T252 654Q310 654 341 631T373 567Q373 553 371
545L338 386H231L230 405Q194 380 137 380Q104 380 83 397ZM221 448T238 465L244 492H211Q194 492 186 487T174 470Q173 467 173 463Q173 448 196 448Q221 448 238 465Z" />
<glyph unicode="&#xab;" glyph-name="guillemotleft" horiz-adv-x="697" d="M16 246L32 321L349 523L404 399L213 277L352 155L247 44L16 246ZM318 246L334 321L651 523L707 399L515 277L655 155L549 44L318 246Z" />
<glyph unicode="&#xac;" glyph-name="logicalnot" horiz-adv-x="498" d="M304 221H10L45 385H503L445 110H281L304 221Z" />
<glyph unicode="&#xad;" glyph-name="uni00AD" horiz-adv-x="444" d="M43 372H447L412 208H8L43 372Z" />
<glyph unicode="&#xae;" glyph-name="registered" horiz-adv-x="704" d="M214 -10T153 24T59 119T25 254Q25 290 32 322Q51 417 107 492T249 611T435 654Q513 654 574 620T669 525T703 391Q703 356 696 322Q676 228 623 153T486 34T293 -10Q214 -10 153 24ZM420
96T491 157T584 322Q592 360 592 390Q592 464 548 505T412 547Q305 547 236 486T144 322Q136 282 136 251Q136 178 180 137T316 96Q420 96 491 157ZM261 491H448Q493 491 520 465T547 397Q547 384 544 372Q537 336 514 310T456 269Q464 257 465 246L477 158H369L360
239Q358 247 355 250T341 253H323L303 158H190L261 491ZM377 337Q400 337 413 344T431 372Q432 376 432 382Q432 396 423 401T396 407H356L341 337H377Z" />
<glyph unicode="&#xaf;" glyph-name="overscore" horiz-adv-x="337" d="M88 681H426L399 555H61L88 681Z" />
<glyph unicode="&#xb0;" glyph-name="degree" horiz-adv-x="296" d="M150 488T121 514T91 584Q91 597 94 612Q106 669 148 702T247 736Q293 736 323 710T353 639Q353 627 350 612Q337 555 295 522T194 488Q150 488 121 514ZM228 576T240 586T257 612Q258 615 258
620Q258 632 250 639T228 647Q213 647 201 637T186 612Q185 608 185 601Q185 590 192 583T213 576Q228 576 240 586Z" />
<glyph unicode="&#xb1;" glyph-name="plusminus" horiz-adv-x="454" d="M163 303H33L64 447H194L219 568H364L339 447H469L438 303H308L282 183H137L163 303ZM-1 144H404L374 0H-31L-1 144Z" />
<glyph unicode="&#xb2;" glyph-name="uni00B2" horiz-adv-x="310" d="M54 426Q71 443 85 453T129 482Q163 503 172 511T184 530Q187 541 179 546T152 551Q125 551 81 533L102 632Q127 641 165 647T238 654Q292 654 322 634T353 580Q353 571 352 566Q347 542 335
526T300 493Q297 490 264 467H333L312 370H42L54 426Z" />
<glyph unicode="&#xb3;" glyph-name="uni00B3" horiz-adv-x="314" d="M138 362T98 366T44 378L61 457Q77 449 98 445T138 440Q160 440 171 444T184 458Q186 467 179 471T155 475H113L133 542H168Q184 542 191 545T200 558Q201 566 193 569T163 573Q123 573 86
557L103 637Q122 644 159 649T226 654Q290 654 322 634T354 581Q354 572 353 568Q346 530 314 508Q336 497 336 471Q336 463 333 451Q315 362 163 362Q138 362 98 366Z" />
<glyph unicode="&#xb4;" glyph-name="acute" horiz-adv-x="308" d="M217 738H383L236 522H79L217 738Z" />
<glyph unicode="&#xb6;" glyph-name="paragraph" horiz-adv-x="673" d="M226 253Q149 253 103 292T57 409Q57 437 65 477Q89 593 170 651T365 710H747L580 -77H395L529 553H473L339 -77H156L226 253Z" />
<glyph unicode="&#xb7;" glyph-name="middot" horiz-adv-x="207" d="M41 363H208L175 211H8L41 363Z" />
<glyph unicode="&#xb8;" glyph-name="cedilla" horiz-adv-x="260" d="M-33 -240T-59 -238T-96 -232L-80 -157Q-53 -165 -24 -165Q15 -165 34 -155T54 -122Q54 -110 44 -106T14 -101H-55L-4 0H108L85 -39Q131 -39 154 -58T177 -112Q177 -126 175 -134Q164 -185
118 -212T-14 -240Q-33 -240 -59 -238Z" />
<glyph unicode="&#xb9;" glyph-name="uni00B9" horiz-adv-x="227" d="M124 510L70 500L94 613L310 654L249 370H94L124 510Z" />
<glyph unicode="&#xba;" glyph-name="ordmasculine" horiz-adv-x="360" d="M140 380T105 406T69 483Q69 501 73 517Q89 587 132 620T262 654Q326 654 361 628T397 553Q397 534 393 517Q378 447 334 414T203 380Q140 380 105 406ZM242 467T253 478T269 517Q273
537 273 542Q273 555 266 560T243 566Q224 566 213 555T196 517Q193 502 193 493Q193 479 199 473T222 467Q242 467 253 478Z" />
<glyph unicode="&#xbb;" glyph-name="guillemotright" horiz-adv-x="697" d="M-2 167L189 289L50 411L155 523L386 321L370 246L53 44L-2 167ZM300 167L492 289L352 411L458 523L689 321L673 246L356 44L300 167Z" />
<glyph unicode="&#xbc;" glyph-name="onequarter" horiz-adv-x="697" d="M124 510L70 500L94 613L310 654L249 370H94L124 510ZM490 644H693L221 0H19L490 644ZM456 38H333L351 126L511 284H652L620 132H649L629 38H600L592 0H448L456 38ZM517 128L530 191L466 128H517Z" />
<glyph unicode="&#xbd;" glyph-name="onehalf" horiz-adv-x="720" d="M124 510L70 500L94 613L310 654L249 370H94L124 510ZM490 644H693L221 0H19L490 644ZM385 56Q403 73 417 83T461 112Q494 132 503 140T516 160Q518 172 510 176T483 181Q456 181 412 163L433
262Q455 271 492 277T569 284Q624 284 654 265T685 212Q685 206 683 196Q678 172 667 156T633 123Q594 96 596 97H664L644 0H374L385 56Z" />
<glyph unicode="&#xbe;" glyph-name="threequarters" horiz-adv-x="715" d="M138 362T98 366T44 378L61 457Q77 449 98 445T138 440Q160 440 171 444T184 458Q186 467 179 471T155 475H106L126 542H168Q184 542 191 545T200 558Q201 566 193 569T163 573Q123 573
86 557L103 637Q122 644 159 649T226 654Q289 654 322 634T355 582Q355 578 353 568Q346 530 314 508Q336 497 336 471Q336 463 333 451Q315 362 163 362Q138 362 98 366ZM508 644H711L239 0H37L508 644ZM474 38H351L369 126L529 284H670L638 132H667L647 38H618L610
0H466L474 38ZM535 128L547 187L488 128H535Z" />
<glyph unicode="&#xbf;" glyph-name="questiondown" horiz-adv-x="505" d="M240 560H463L432 410H209L240 560ZM97 -94T40 -52T-18 62Q-18 82 -14 99Q-2 153 23 188T103 262Q117 272 135 283Q172 308 188 323T210 359L212 369H411L407 352Q398 310 378 285T311
224Q302 217 293 211T275 198Q243 177 229 163T211 128Q209 118 209 115Q209 93 230 83T296 73Q338 73 380 84T453 112L419 -50Q374 -71 317 -82T198 -94Q97 -94 40 -52Z" />
<glyph unicode="&#xc0;" glyph-name="Agrave" horiz-adv-x="760" d="M333 904H500L546 688H388L333 904ZM347 644H572L684 0H469L446 128H271L195 0H-36L347 644ZM450 278L422 434L329 278H450Z" />
<glyph unicode="&#xc1;" glyph-name="Aacute" horiz-adv-x="760" d="M525 904H691L544 688H387L525 904ZM347 644H572L684 0H469L446 128H271L195 0H-36L347 644ZM450 278L422 434L329 278H450Z" />
<glyph unicode="&#xc2;" glyph-name="Acircumflex" horiz-adv-x="760" d="M449 896H576L697 688H551L498 796L403 688H241L449 896ZM347 644H572L684 0H469L446 128H271L195 0H-36L347 644ZM450 278L422 434L329 278H450Z" />
<glyph unicode="&#xc3;" glyph-name="Atilde" horiz-adv-x="760" d="M547 692T526 697T472 715Q443 725 426 730T389 735Q329 735 279 695L307 824Q325 838 354 848T412 858Q436 858 456 853T506 836Q533 826 552 821T594 815Q626 815 653 826T697 856L669 726Q656
712 629 702T571 692Q547 692 526 697ZM347 644H572L684 0H469L446 128H271L195 0H-36L347 644ZM450 278L422 434L329 278H450Z" />
<glyph unicode="&#xc4;" glyph-name="Adieresis" horiz-adv-x="760" d="M318 846H461L434 715H291L318 846ZM543 846H686L659 715H516L543 846ZM347 644H572L684 0H469L446 128H271L195 0H-36L347 644ZM450 278L422 434L329 278H450Z" />
<glyph unicode="&#xc5;" glyph-name="Aring" horiz-adv-x="760" d="M343 637Q328 661 328 695Q328 710 331 726Q344 788 389 826T506 864Q564 864 595 835T627 759Q627 748 623 726Q610 668 573 634L684 0H469L446 128H271L195 0H-36L343 637ZM496 674T514 694T533
741Q533 779 488 779Q458 779 439 759T419 712Q419 674 465 674Q496 674 514 694ZM450 278L422 434L329 278H450Z" />
<glyph unicode="&#xc6;" glyph-name="AE" horiz-adv-x="866" d="M347 644H926L893 485H658L640 403H838L804 240H606L588 159H823L790 0H347L374 129H266L189 0H-36L347 644ZM407 284L450 485H444L330 284H407Z" />
<glyph unicode="&#xc7;" glyph-name="Ccedilla" horiz-adv-x="612" d="M243 -240T216 -238T179 -232L195 -157Q222 -165 252 -165Q291 -165 310 -155T330 -122Q330 -110 320 -106T290 -101H221L268 -6Q153 8 88 71T23 239Q23 277 32 320Q67 487 173 570T473 654Q579
654 665 619L625 432Q584 453 545 462T449 472Q366 472 317 436T251 320Q244 283 244 264Q244 214 277 193T387 172Q485 172 580 211L540 23Q461 -4 378 -9L360 -39Q406 -39 429 -58T452 -112Q452 -126 450 -134Q439 -184 391 -212T262 -240Q243 -240 216 -238Z"
/>
<glyph unicode="&#xc8;" glyph-name="Egrave" horiz-adv-x="556" d="M264 904H431L477 688H319L264 904ZM120 644H621L588 485H302L284 403H533L499 240H250L232 159H518L485 0H-16L120 644Z" />
<glyph unicode="&#xc9;" glyph-name="Eacute" horiz-adv-x="551" d="M417 904H583L436 688H279L417 904ZM120 644H621L588 485H302L284 403H533L499 240H250L232 159H518L485 0H-16L120 644Z" />
<glyph unicode="&#xca;" glyph-name="Ecircumflex" horiz-adv-x="557" d="M362 896H489L610 688H464L411 796L316 688H154L362 896ZM121 644H622L589 485H303L285 403H534L500 240H251L233 159H519L486 0H-15L121 644Z" />
<glyph unicode="&#xcb;" glyph-name="Edieresis" horiz-adv-x="556" d="M234 847H377L350 716H207L234 847ZM459 847H602L575 716H432L459 847ZM120 644H621L588 485H302L284 403H533L499 240H250L232 159H518L485 0H-16L120 644Z" />
<glyph unicode="&#xcc;" glyph-name="Igrave" horiz-adv-x="295" d="M104 904H271L317 688H159L104 904ZM120 644H335L199 0H-16L120 644Z" />
<glyph unicode="&#xcd;" glyph-name="Iacute" horiz-adv-x="295" d="M292 904H458L311 688H154L292 904ZM120 644H335L199 0H-16L120 644Z" />
<glyph unicode="&#xce;" glyph-name="Icircumflex" horiz-adv-x="295" d="M217 896H344L465 688H319L266 796L171 688H9L217 896ZM120 644H335L199 0H-16L120 644Z" />
<glyph unicode="&#xcf;" glyph-name="Idieresis" horiz-adv-x="295" d="M88 855H231L204 724H61L88 855ZM313 855H456L429 724H286L313 855ZM120 644H335L199 0H-16L120 644Z" />
<glyph unicode="&#xd0;" glyph-name="Eth" horiz-adv-x="722" d="M76 244H15L46 386H106L161 644H458Q580 644 650 583T721 405Q721 365 712 318Q680 152 587 76T332 0H25L76 244ZM330 164Q379 164 409 176T459 222T493 318Q502 362 502 390Q502 437 477 455T396
473H340L321 386H424L393 244H291L274 164H330Z" />
<glyph unicode="&#xd1;" glyph-name="Ntilde" horiz-adv-x="688" d="M520 694T499 699T445 717Q416 727 399 732T362 737Q302 737 252 697L280 826Q298 840 327 850T385 860Q409 860 429 855T479 838Q506 828 525 823T567 817Q599 817 626 828T670 858L642 728Q629
714 602 704T544 694Q520 694 499 699ZM120 644H301L450 347L513 644H728L592 0H409L261 296L199 0H-16L120 644Z" />
<glyph unicode="&#xd2;" glyph-name="Ograve" horiz-adv-x="714" d="M318 904H485L531 688H373L318 904ZM168 -10T95 47T21 223Q21 272 32 321Q58 441 109 514T241 620T440 654Q571 654 644 596T717 419Q717 371 706 321Q680 202 630 130T498 24T298 -10Q168 -10
95 47ZM399 172T434 207T486 321Q495 363 495 391Q495 434 473 452T401 471Q337 471 303 437T251 321Q242 281 242 253Q242 210 264 191T337 172Q399 172 434 207Z" />
<glyph unicode="&#xd3;" glyph-name="Oacute" horiz-adv-x="714" d="M490 904H656L509 688H352L490 904ZM168 -10T95 47T21 223Q21 272 32 321Q58 441 109 514T241 620T440 654Q571 654 644 596T717 419Q717 371 706 321Q680 202 630 130T498 24T298 -10Q168 -10
95 47ZM399 172T434 207T486 321Q495 363 495 391Q495 434 473 452T401 471Q337 471 303 437T251 321Q242 281 242 253Q242 210 264 191T337 172Q399 172 434 207Z" />
<glyph unicode="&#xd4;" glyph-name="Ocircumflex" horiz-adv-x="714" d="M427 896H554L675 688H529L476 796L381 688H219L427 896ZM168 -10T95 47T21 223Q21 272 32 321Q58 441 109 514T241 620T440 654Q571 654 644 596T717 419Q717 371 706 321Q680 202 630
130T498 24T298 -10Q168 -10 95 47ZM399 172T434 207T486 321Q495 363 495 391Q495 434 473 452T401 471Q337 471 303 437T251 321Q242 281 242 253Q242 210 264 191T337 172Q399 172 434 207Z" />
<glyph unicode="&#xd5;" glyph-name="Otilde" horiz-adv-x="714" d="M529 712T508 717T454 735Q425 745 408 750T371 755Q311 755 261 715L289 844Q307 858 336 868T394 878Q418 878 438 873T488 856Q515 846 534 841T576 835Q608 835 635 846T679 876L651 746Q638
732 611 722T553 712Q529 712 508 717ZM168 -10T95 47T21 223Q21 272 32 321Q58 441 109 514T241 620T440 654Q571 654 644 596T717 419Q717 371 706 321Q680 202 630 130T498 24T298 -10Q168 -10 95 47ZM399 172T434 207T486 321Q495 363 495 391Q495 434 473
452T401 471Q337 471 303 437T251 321Q242 281 242 253Q242 210 264 191T337 172Q399 172 434 207Z" />
<glyph unicode="&#xd6;" glyph-name="Odieresis" horiz-adv-x="714" d="M296 847H439L412 716H269L296 847ZM521 847H664L637 716H494L521 847ZM168 -10T95 47T21 223Q21 272 32 321Q58 441 109 514T241 620T440 654Q571 654 644 596T717 419Q717 371 706 321Q680
202 630 130T498 24T298 -10Q168 -10 95 47ZM399 172T434 207T486 321Q495 363 495 391Q495 434 473 452T401 471Q337 471 303 437T251 321Q242 281 242 253Q242 210 264 191T337 172Q399 172 434 207Z" />
<glyph unicode="&#xd7;" glyph-name="multiply" horiz-adv-x="432" d="M192 149L83 59L1 162L110 252L37 346L162 449L233 355L348 448L429 345L315 251L389 157L265 55L192 149Z" />
<glyph unicode="&#xd8;" glyph-name="Oslash" horiz-adv-x="714" d="M136 21Q21 76 21 222Q21 272 32 321Q58 441 109 514T241 620T440 654Q486 654 521 647L549 693H639L597 624Q717 569 717 419Q717 371 706 321Q680 202 630 130T498 24T298 -10Q248 -10 212
-3L181 -53H91L136 21ZM412 471H401Q337 471 303 437T251 321Q242 281 242 253Q242 226 251 208L412 471ZM337 172Q399 172 434 207T486 321Q495 362 495 391Q495 421 484 440L319 172H337Z" />
<glyph unicode="&#xd9;" glyph-name="Ugrave" horiz-adv-x="696" d="M307 904H474L520 688H362L307 904ZM212 -10T153 18T62 96T30 214Q30 238 37 275L115 644H330L252 276Q247 249 247 234Q247 201 266 187T328 172Q380 172 408 196T448 276L526 644H741L658
251Q631 124 535 57T289 -10Q212 -10 153 18Z" />
<glyph unicode="&#xda;" glyph-name="Uacute" horiz-adv-x="696" d="M497 904H663L516 688H359L497 904ZM212 -10T153 18T62 96T30 214Q30 238 37 275L115 644H330L252 276Q247 249 247 234Q247 201 266 187T328 172Q380 172 408 196T448 276L526 644H741L658
251Q631 124 535 57T289 -10Q212 -10 153 18Z" />
<glyph unicode="&#xdb;" glyph-name="Ucircumflex" horiz-adv-x="696" d="M418 896H545L666 688H520L467 796L372 688H210L418 896ZM212 -10T153 18T62 96T30 214Q30 238 37 275L115 644H330L252 276Q247 249 247 234Q247 201 266 187T328 172Q380 172 408 196T448
276L526 644H741L658 251Q631 124 535 57T289 -10Q212 -10 153 18Z" />
<glyph unicode="&#xdc;" glyph-name="Udieresis" horiz-adv-x="696" d="M287 847H430L403 716H260L287 847ZM512 847H655L628 716H485L512 847ZM212 -10T153 18T62 96T30 214Q30 238 37 275L115 644H330L252 276Q247 249 247 234Q247 201 266 187T328 172Q380
172 408 196T448 276L526 644H741L658 251Q631 124 535 57T289 -10Q212 -10 153 18Z" />
<glyph unicode="&#xdd;" glyph-name="Yacute" horiz-adv-x="720" d="M507 904H673L526 688H369L507 904ZM245 235L100 644H318L387 420L550 644H780L460 235L411 0H196L245 235Z" />
<glyph unicode="&#xde;" glyph-name="Thorn" horiz-adv-x="645" d="M120 644H335L318 562H450Q544 562 594 515T644 384Q644 360 637 321Q615 212 540 147T344 81H216L199 0H-16L120 644ZM329 247Q369 247 389 266T418 321Q421 336 421 348Q421 396 365 396H283L251
247H329Z" />
<glyph unicode="&#xdf;" glyph-name="germandbls" horiz-adv-x="652" d="M312 -10T278 -4T223 12L255 160Q268 154 288 151T327 148Q386 148 399 205Q401 217 401 220Q401 239 387 247T343 256H284L314 397H362Q398 397 416 411T442 458Q444 468 444 472Q444 493
428 505T379 518Q333 518 309 499T275 434L183 0H-21L74 448Q98 566 181 633T408 700Q491 700 547 675T630 607T657 512Q657 494 652 469Q642 421 618 386T559 330Q620 300 620 225Q620 210 617 193Q602 93 534 42T351 -10Q312 -10 278 -4Z" />
<glyph unicode="&#xe0;" glyph-name="agrave" horiz-adv-x="617" d="M221 738H388L434 522H276L221 738ZM96 -10T50 33T3 155Q3 187 10 218Q36 347 112 415T295 484Q366 484 401 449L406 474H621L521 0H335L332 34Q298 12 261 1T177 -10Q96 -10 50 33ZM319 144T341
166L371 309Q356 329 323 329Q286 329 264 301T229 218Q225 194 225 188Q225 164 238 154T278 144Q319 144 341 166Z" />
<glyph unicode="&#xe1;" glyph-name="aacute" horiz-adv-x="617" d="M404 738H570L423 522H266L404 738ZM96 -10T50 33T3 155Q3 187 10 218Q36 347 112 415T295 484Q366 484 401 449L406 474H621L521 0H335L332 34Q298 12 261 1T177 -10Q96 -10 50 33ZM319 144T341
166L371 309Q356 329 323 329Q286 329 264 301T229 218Q225 194 225 188Q225 164 238 154T278 144Q319 144 341 166Z" />
<glyph unicode="&#xe2;" glyph-name="acircumflex" horiz-adv-x="617" d="M332 730H459L580 522H434L381 630L286 522H124L332 730ZM96 -10T50 33T3 155Q3 187 10 218Q36 347 112 415T295 484Q366 484 401 449L406 474H621L521 0H335L332 34Q298 12 261 1T177
-10Q96 -10 50 33ZM319 144T341 166L371 309Q356 329 323 329Q286 329 264 301T229 218Q225 194 225 188Q225 164 238 154T278 144Q319 144 341 166Z" />
<glyph unicode="&#xe3;" glyph-name="atilde" horiz-adv-x="617" d="M442 528T421 533T367 551Q338 561 321 566T284 571Q224 571 174 531L202 660Q220 674 249 684T307 694Q331 694 351 689T401 672Q428 662 447 657T489 651Q521 651 548 662T592 692L564 562Q551
548 524 538T466 528Q442 528 421 533ZM96 -10T50 33T3 155Q3 187 10 218Q36 347 112 415T295 484Q366 484 401 449L406 474H621L521 0H335L332 34Q298 12 261 1T177 -10Q96 -10 50 33ZM319 144T341 166L371 309Q356 329 323 329Q286 329 264 301T229 218Q225 194
225 188Q225 164 238 154T278 144Q319 144 341 166Z" />
<glyph unicode="&#xe4;" glyph-name="adieresis" horiz-adv-x="617" d="M212 681H355L328 550H185L212 681ZM437 681H580L553 550H410L437 681ZM96 -10T50 33T3 155Q3 187 10 218Q36 347 112 415T295 484Q366 484 401 449L406 474H621L521 0H335L332 34Q298 12
261 1T177 -10Q96 -10 50 33ZM319 144T341 166L371 309Q356 329 323 329Q286 329 264 301T229 218Q225 194 225 188Q225 164 238 154T278 144Q319 144 341 166Z" />
<glyph unicode="&#xe5;" glyph-name="aring" horiz-adv-x="617" d="M308 522T277 551T245 628Q245 643 248 659Q261 721 306 759T423 797Q481 797 512 768T544 692Q544 681 540 659Q527 598 482 560T364 522Q308 522 277 551ZM413 607T431 627T450 674Q450 712
405 712Q375 712 356 692T336 645Q336 607 382 607Q413 607 431 627ZM96 -10T50 33T3 155Q3 187 10 218Q36 347 112 415T295 484Q366 484 401 449L406 474H621L521 0H335L332 34Q298 12 261 1T177 -10Q96 -10 50 33ZM319 144T341 166L371 309Q356 329 323 329Q286
329 264 301T229 218Q225 194 225 188Q225 164 238 154T278 144Q319 144 341 166Z" />
<glyph unicode="&#xe6;" glyph-name="ae" horiz-adv-x="885" d="M83 -10T37 20T-10 110Q-10 129 -6 145Q11 224 68 264T231 305H346L348 312Q349 315 349 321Q349 337 329 345T262 353Q179 353 92 328L118 449Q158 465 217 474T332 484Q426 484 478 440Q512 460
559 472T654 484Q756 484 812 440T869 314Q869 288 863 258L846 176H524Q532 147 562 134T658 121Q699 121 742 128T815 146L789 24Q749 6 701 -2T587 -10Q532 -10 483 9T407 61Q361 25 303 8T155 -10Q83 -10 37 20ZM686 288L688 301Q689 305 689 311Q689 352 633
352Q561 352 548 288H686ZM278 111T311 139L322 192H266Q231 192 215 184T193 151Q192 147 192 140Q192 111 232 111Q278 111 311 139Z" />
<glyph unicode="&#xe7;" glyph-name="ccedilla" horiz-adv-x="513" d="M160 -240T133 -238T96 -232L112 -157Q139 -165 169 -165Q208 -165 227 -155T247 -122Q247 -110 237 -106T207 -101H138L185 -5Q105 8 56 55T7 179Q7 200 14 237Q41 361 127 422T353 484Q409
484 451 476T530 450L498 300Q443 329 368 329Q309 329 276 308T233 237Q229 221 229 205Q229 173 252 159T330 145Q400 145 475 180L441 23Q377 -3 295 -8L277 -39Q323 -39 346 -58T369 -112Q369 -126 367 -134Q356 -184 308 -212T179 -240Q160 -240 133 -238Z"
/>
<glyph unicode="&#xe8;" glyph-name="egrave" horiz-adv-x="559" d="M207 738H374L420 522H262L207 738ZM141 -10T74 39T7 179Q7 205 13 235Q40 356 113 420T328 484Q426 484 484 435T542 305Q542 285 537 258L520 176H198Q203 147 234 134T332 121Q373 121 416
128T489 146L463 24Q385 -10 249 -10Q141 -10 74 39ZM370 288L372 301Q375 323 359 337T307 352Q225 352 212 288H370Z" />
<glyph unicode="&#xe9;" glyph-name="eacute" horiz-adv-x="559" d="M404 738H570L423 522H266L404 738ZM141 -10T74 39T7 179Q7 205 13 235Q40 356 113 420T328 484Q426 484 484 435T542 305Q542 285 537 258L520 176H198Q203 147 234 134T332 121Q373 121 416
128T489 146L463 24Q385 -10 249 -10Q141 -10 74 39ZM370 288L372 301Q375 323 359 337T307 352Q225 352 212 288H370Z" />
<glyph unicode="&#xea;" glyph-name="ecircumflex" horiz-adv-x="559" d="M320 730H447L568 522H422L369 630L274 522H112L320 730ZM141 -10T74 39T7 179Q7 205 13 235Q40 356 113 420T328 484Q426 484 484 435T542 305Q542 285 537 258L520 176H198Q203 147 234
134T332 121Q373 121 416 128T489 146L463 24Q385 -10 249 -10Q141 -10 74 39ZM370 288L372 301Q375 323 359 337T307 352Q225 352 212 288H370Z" />
<glyph unicode="&#xeb;" glyph-name="edieresis" horiz-adv-x="559" d="M189 681H332L305 550H162L189 681ZM414 681H557L530 550H387L414 681ZM141 -10T74 39T7 179Q7 205 13 235Q40 356 113 420T328 484Q426 484 484 435T542 305Q542 285 537 258L520 176H198Q203
147 234 134T332 121Q373 121 416 128T489 146L463 24Q385 -10 249 -10Q141 -10 74 39ZM370 288L372 301Q375 323 359 337T307 352Q225 352 212 288H370Z" />
<glyph unicode="&#xec;" glyph-name="igrave" horiz-adv-x="362" d="M129 738H296L342 522H184L129 738ZM118 318H51L102 474H366L266 0H51L118 318Z" />
<glyph unicode="&#xed;" glyph-name="iacute" horiz-adv-x="362" d="M308 738H474L327 522H170L308 738ZM118 318H51L102 474H366L266 0H51L118 318Z" />
<glyph unicode="&#xee;" glyph-name="icircumflex" horiz-adv-x="362" d="M224 730H351L472 522H326L273 630L178 522H16L224 730ZM118 318H51L102 474H366L266 0H51L118 318Z" />
<glyph unicode="&#xef;" glyph-name="idieresis" horiz-adv-x="362" d="M89 681H232L205 550H62L89 681ZM314 681H457L430 550H287L314 681ZM118 318H51L102 474H366L266 0H51L118 318Z" />
<glyph unicode="&#xf0;" glyph-name="eth" horiz-adv-x="608" d="M121 -10T62 36T2 158Q2 178 7 203Q29 308 96 358T281 408Q313 408 347 400T400 378L404 396Q412 430 412 452Q412 466 410 472L301 429L313 485L376 510Q351 520 310 520Q233 520 152 488L181
624Q225 640 270 647T372 654Q434 654 480 635T555 581L653 620L641 563L582 539Q603 493 603 433Q603 396 596 362L574 255Q546 118 466 54T237 -10Q121 -10 62 36ZM307 129T331 149T365 214L373 254Q332 278 296 278Q252 278 229 259T198 203Q195 191 195 181Q195
129 265 129Q307 129 331 149Z" />
<glyph unicode="&#xf1;" glyph-name="ntilde" horiz-adv-x="615" d="M439 528T418 533T364 551Q335 561 318 566T281 571Q221 571 171 531L199 660Q217 674 246 684T304 694Q328 694 348 689T398 672Q425 662 444 657T486 651Q518 651 545 662T589 692L561 562Q548
548 521 538T463 528Q439 528 418 533ZM84 474H285L283 442Q315 460 363 472T459 484Q527 484 561 453T595 362Q595 341 588 304L524 0H309L368 279Q370 293 370 296Q370 312 361 318T332 325Q314 325 295 318T262 298L199 0H-16L84 474Z" />
<glyph unicode="&#xf2;" glyph-name="ograve" horiz-adv-x="616" d="M227 738H394L440 522H282L227 738ZM130 -10T69 36T7 172Q7 205 14 237Q41 361 122 422T353 484Q473 484 535 437T597 300Q597 276 590 237Q565 113 482 52T248 -10Q130 -10 69 36ZM318 145T339
166T371 237Q377 263 377 280Q377 306 364 317T320 329Q284 329 264 308T233 237Q227 210 227 192Q227 167 239 156T281 145Q318 145 339 166Z" />
<glyph unicode="&#xf3;" glyph-name="oacute" horiz-adv-x="616" d="M404 738H570L423 522H266L404 738ZM130 -10T69 36T7 172Q7 205 14 237Q41 361 122 422T353 484Q473 484 535 437T597 300Q597 276 590 237Q565 113 482 52T248 -10Q130 -10 69 36ZM318 145T339
166T371 237Q377 263 377 280Q377 306 364 317T320 329Q284 329 264 308T233 237Q227 210 227 192Q227 167 239 156T281 145Q318 145 339 166Z" />
<glyph unicode="&#xf4;" glyph-name="ocircumflex" horiz-adv-x="616" d="M342 730H469L590 522H444L391 630L296 522H134L342 730ZM130 -10T69 36T7 172Q7 205 14 237Q41 361 122 422T353 484Q473 484 535 437T597 300Q597 276 590 237Q565 113 482 52T248 -10Q130
-10 69 36ZM318 145T339 166T371 237Q377 263 377 280Q377 306 364 317T320 329Q284 329 264 308T233 237Q227 210 227 192Q227 167 239 156T281 145Q318 145 339 166Z" />
<glyph unicode="&#xf5;" glyph-name="otilde" horiz-adv-x="616" d="M444 546T423 551T369 569Q340 579 323 584T286 589Q226 589 176 549L204 678Q222 692 251 702T309 712Q333 712 353 707T403 690Q430 680 449 675T491 669Q523 669 550 680T594 710L566 580Q553
566 526 556T468 546Q444 546 423 551ZM130 -10T69 36T7 172Q7 205 14 237Q41 361 122 422T353 484Q473 484 535 437T597 300Q597 276 590 237Q565 113 482 52T248 -10Q130 -10 69 36ZM318 145T339 166T371 237Q377 263 377 280Q377 306 364 317T320 329Q284 329
264 308T233 237Q227 210 227 192Q227 167 239 156T281 145Q318 145 339 166Z" />
<glyph unicode="&#xf6;" glyph-name="odieresis" horiz-adv-x="616" d="M211 681H354L327 550H184L211 681ZM436 681H579L552 550H409L436 681ZM130 -10T69 36T7 172Q7 205 14 237Q41 361 122 422T353 484Q473 484 535 437T597 300Q597 276 590 237Q565 113 482
52T248 -10Q130 -10 69 36ZM318 145T339 166T371 237Q377 263 377 280Q377 306 364 317T320 329Q284 329 264 308T233 237Q227 210 227 192Q227 167 239 156T281 145Q318 145 339 166Z" />
<glyph unicode="&#xf7;" glyph-name="divide" horiz-adv-x="444" d="M212 547H352L324 418H184L212 547ZM43 372H447L412 208H8L43 372ZM130 164H270L243 35H103L130 164Z" />
<glyph unicode="&#xf8;" glyph-name="oslash" horiz-adv-x="616" d="M119 9Q64 29 35 70T6 172Q6 200 14 237Q41 361 122 422T353 484Q381 484 407 481L436 528H523L484 464Q540 443 568 402T597 299Q597 276 590 237Q565 113 482 52T248 -10Q220 -10 194 -7L166
-54H80L119 9ZM322 342Q239 342 217 237Q211 212 211 192Q211 177 215 166L322 342ZM365 132T387 237Q392 265 392 281Q392 297 388 308L280 132Q365 132 387 237Z" />
<glyph unicode="&#xf9;" glyph-name="ugrave" horiz-adv-x="615" d="M246 738H413L459 522H301L246 738ZM85 -10T48 26T10 125Q10 153 15 174L79 474H294L235 195L233 179Q233 162 243 155T273 148Q293 148 311 155T341 175L404 474H619L519 0H317L318 31Q286
12 243 1T151 -10Q85 -10 48 26Z" />
<glyph unicode="&#xfa;" glyph-name="uacute" horiz-adv-x="615" d="M398 738H564L417 522H260L398 738ZM85 -10T48 26T10 125Q10 153 15 174L79 474H294L235 195L233 179Q233 162 243 155T273 148Q293 148 311 155T341 175L404 474H619L519 0H317L318 31Q286
12 243 1T151 -10Q85 -10 48 26Z" />
<glyph unicode="&#xfb;" glyph-name="ucircumflex" horiz-adv-x="615" d="M338 730H465L586 522H440L387 630L292 522H130L338 730ZM85 -10T48 26T10 125Q10 153 15 174L79 474H294L235 195L233 179Q233 162 243 155T273 148Q293 148 311 155T341 175L404 474H619L519
0H317L318 31Q286 12 243 1T151 -10Q85 -10 48 26Z" />
<glyph unicode="&#xfc;" glyph-name="udieresis" horiz-adv-x="615" d="M209 681H352L325 550H182L209 681ZM434 681H577L550 550H407L434 681ZM85 -10T48 26T10 125Q10 153 15 174L79 474H294L235 195L233 179Q233 162 243 155T273 148Q293 148 311 155T341 175L404
474H619L519 0H317L318 31Q286 12 243 1T151 -10Q85 -10 48 26Z" />
<glyph unicode="&#xfd;" glyph-name="yacute" horiz-adv-x="615" d="M412 738H578L431 522H274L412 738ZM119 -176T73 -173T7 -166L38 -21Q57 -26 89 -30T146 -34Q304 -34 314 24L317 41Q247 0 154 0Q87 0 50 35T12 133Q12 157 18 184L79 474H294L237 205Q235
198 235 186Q235 171 244 165T275 158Q291 158 310 166T343 185L404 474H619L534 74Q508 -48 419 -112T145 -176Q119 -176 73 -173Z" />
<glyph unicode="&#xfe;" glyph-name="thorn" horiz-adv-x="617" d="M132 700H347L296 461Q319 471 353 477T417 484Q502 484 550 439T599 309Q599 271 591 236Q565 110 496 50T307 -10Q278 -10 250 -4T201 12L153 -216H-61L132 700ZM319 145T340 167T373 240Q378
267 378 281Q378 307 366 318T326 329Q293 329 264 307L233 164Q245 154 256 150T286 145Q319 145 340 167Z" />
<glyph unicode="&#xff;" glyph-name="ydieresis" horiz-adv-x="615" d="M210 705H353L326 574H183L210 705ZM435 705H578L551 574H408L435 705ZM119 -176T73 -173T7 -166L38 -21Q57 -26 89 -30T146 -34Q304 -34 314 24L317 41Q247 0 154 0Q87 0 50 35T12 133Q12
157 18 184L79 474H294L237 205Q235 198 235 186Q235 171 244 165T275 158Q291 158 310 166T343 185L404 474H619L534 74Q508 -48 419 -112T145 -176Q119 -176 73 -173Z" />
<glyph unicode="&#x2013;" glyph-name="endash" horiz-adv-x="542" d="M43 372H545L510 208H8L43 372Z" />
<glyph unicode="&#x2014;" glyph-name="emdash" horiz-adv-x="786" d="M43 372H789L754 208H8L43 372Z" />
<glyph unicode="&#x2018;" glyph-name="quoteleft" horiz-adv-x="283" d="M185 654H346L229 412H51L185 654Z" />
<glyph unicode="&#x2019;" glyph-name="quoteright" horiz-adv-x="283" d="M168 654H346L212 412H51L168 654Z" />
<glyph unicode="&#x201a;" glyph-name="quotesinglbase" horiz-adv-x="283" d="M36 33H214L80 -209H-80L36 33Z" />
<glyph unicode="&#x201c;" glyph-name="quotedblleft" horiz-adv-x="452" d="M185 654H328L211 412H51L185 654ZM372 654H515L398 412H238L372 654Z" />
<glyph unicode="&#x201d;" glyph-name="quotedblright" horiz-adv-x="452" d="M168 654H328L194 412H51L168 654ZM354 654H515L381 412H238L354 654Z" />
<glyph unicode="&#x201e;" glyph-name="quotedblbase" horiz-adv-x="452" d="M59 143H219L86 -98H-56L59 143ZM245 143H406L273 -98H130L245 143Z" />
<glyph unicode="&#x2022;" glyph-name="bullet" horiz-adv-x="319" d="M84 148T53 178T22 256Q22 271 25 287Q33 325 58 357T119 408T193 427Q243 427 275 395T307 315Q307 302 304 287Q296 249 270 217T208 167T134 148Q84 148 53 178Z" />
<glyph unicode="&#x2039;" glyph-name="guilsinglleft" horiz-adv-x="394" d="M16 246L32 321L349 523L404 400L213 278L352 156L247 44L16 246Z" />
<glyph unicode="&#x203a;" glyph-name="guilsinglright" horiz-adv-x="394" d="M-2 166L189 288L50 410L155 523L386 321L370 246L53 44L-2 166Z" />
</font>
</defs>
</svg>
