<?xml version="1.0" standalone="no"?>
<!DOCTYPE svg PUBLIC "-//W3C//DTD SVG 1.1//EN" "http://www.w3.org/Graphics/SVG/1.1/DTD/svg11.dtd">
<svg xmlns="http://www.w3.org/2000/svg">
<defs >
<font id="Ranchers" horiz-adv-x="378" ><font-face
    font-family="Ranchers"
    units-per-em="1000"
    panose-1="2 11 9 3 3 2 2 5 0 4"
    ascent="1045"
    descent="-205"
    alphabetic="0" />
<glyph unicode=" " glyph-name="space" horiz-adv-x="124" />
<glyph unicode="!" glyph-name="exclam" horiz-adv-x="256" d="M239 824L190 303H69V841L239 824ZM120 204Q145 204 164 194T197 169T218 135T225 99Q225 77 217 57T194 22T160 -2T119 -11Q92 -11 72 -3T39 20T20 53T13 90Q13 110 20 130T40 167T74 194T120 204Z" />
<glyph unicode="&quot;" glyph-name="quotedbl" horiz-adv-x="348" d="M14 841H152L130 541H36L14 841ZM196 841H334L312 541H218L196 841Z" />
<glyph unicode="#" glyph-name="numbersign" horiz-adv-x="671" d="M205 586L251 818H357L309 586H424L470 818H577L529 586H654V480H507L481 352H624V246H459L408 0H309L357 246H239L188 0H90L138 246H17V352H159L184 480H47V586H205ZM261 352H378L403 480H287L261 352Z" />
<glyph unicode="$" glyph-name="dollar" horiz-adv-x="371" d="M86 654Q104 668 128 679L110 818H251L235 697Q258 696 280 692T324 681Q325 652 325 623T326 564Q326 543 326 522T324 478Q319 479 298 483T254 488Q238 488 227 484T216 468Q216 454 226 444T251
424T284 403T317 377T343 340T353 287Q353 257 343 234T317 194T278 165T231 147L251 0H110L128 140Q105 142 82 147T39 161Q31 193 31 228Q31 237 31 248T33 272T35 295T39 315Q59 307 89 297T145 286Q182 286 182 313Q182 331 170 342T140 362T102 382T63 409T33
450T21 512Q21 550 36 587T86 654Z" />
<glyph unicode="%" glyph-name="percent" horiz-adv-x="661" d="M93 0L479 818H571L185 0H93ZM158 830Q227 830 261 777T296 625Q296 525 261 471T155 417Q85 417 51 470T16 620Q16 723 53 776T158 830ZM156 532Q186 532 201 560T217 628Q217 668 202 693T157
719Q128 719 112 694T96 627Q96 588 111 560T156 532ZM506 402Q575 402 609 349T644 197Q644 97 609 43T503 -11Q433 -11 399 42T364 192Q364 295 401 348T506 402ZM504 104Q534 104 549 132T565 200Q565 240 550 265T505 291Q476 291 460 266T444 199Q444 160
459 132T504 104Z" />
<glyph unicode="&amp;" glyph-name="ampersand" horiz-adv-x="749" d="M500 661Q500 599 464 548T350 448Q372 428 398 404T456 354Q501 411 552 494Q574 482 602 462T658 419T710 373T746 334Q724 304 696 270T639 204Q665 183 692 161T750 116L629 -32L506 81Q440
33 375 11T238 -11Q184 -11 141 4T68 49T22 119T5 213Q5 249 12 279T36 338T80 394T148 450Q109 503 94 542T78 617Q78 661 96 699T145 767T220 813T313 830Q353 830 387 818T446 784T485 730T500 661ZM226 628Q226 607 236 584T273 528Q320 556 339 582T359 641Q359
670 342 685T296 701Q265 701 246 681T226 628ZM254 207Q294 207 341 239Q305 274 275 305T219 364Q177 323 177 283Q177 249 198 228T254 207Z" />
<glyph unicode="&apos;" glyph-name="quotesingle" horiz-adv-x="166" d="M14 841H152L130 541H36L14 841Z" />
<glyph unicode="(" glyph-name="parenleft" horiz-adv-x="242" d="M244 861Q188 758 161 639T133 399Q133 278 161 154T244 -80L132 -114Q76 -5 46 124T15 385Q15 517 45 648T132 895L244 861Z" />
<glyph unicode=")" glyph-name="parenright" horiz-adv-x="242" d="M110 895Q166 780 196 649T227 385Q227 253 197 124T110 -114L-2 -80Q53 29 81 153T109 399Q109 520 82 639T-2 861L110 895Z" />
<glyph unicode="*" glyph-name="asterisk" horiz-adv-x="450" d="M181 702L168 841H279L266 699L392 765L434 660L297 619L400 509L312 440L225 573L141 440L51 509L155 618L16 660L59 765L181 702Z" />
<glyph unicode="+" glyph-name="plus" horiz-adv-x="487" d="M183 284H17V404H183V590H303V404H470V284H303V97H183V284Z" />
<glyph unicode="," glyph-name="comma" horiz-adv-x="229" d="M4 112Q15 154 45 178T115 203Q161 203 188 174T216 96Q216 64 203 29T166 -43T110 -113T40 -175L-17 -119Q22 -84 41 -49T61 18Q61 69 4 112Z" />
<glyph unicode="-" glyph-name="hyphen" horiz-adv-x="351" d="M323 422Q323 401 323 381T324 341Q324 321 324 302T323 262H27Q25 282 25 302T25 342Q25 362 25 382T27 422H323Z" />
<glyph unicode="." glyph-name="period" horiz-adv-x="233" d="M118 204Q143 204 162 194T195 169T216 135T223 99Q223 77 215 57T192 22T158 -2T117 -11Q90 -11 70 -3T37 20T18 53T11 90Q11 110 18 130T38 167T72 194T118 204Z" />
<glyph unicode="/" glyph-name="slash" horiz-adv-x="448" d="M437 818L129 -44H13L321 818H437Z" />
<glyph unicode="0" glyph-name="zero" horiz-adv-x="579" d="M294 830Q360 830 409 802T492 721T541 590T558 413Q558 208 490 99T287 -11Q220 -11 170 17T87 98T38 228T21 403Q21 613 92 721T294 830ZM290 247Q316 247 335 262T368 305T388 369T395 448Q395 489
389 524T369 585T337 626T292 641Q266 641 246 626T212 585T191 523T184 445Q184 404 191 368T211 305T244 263T290 247Z" />
<glyph unicode="1" glyph-name="one" horiz-adv-x="390" d="M297 828Q294 764 293 703T290 574T289 427T288 247H372Q375 185 375 123Q375 61 372 0H48Q46 31 45 61T44 123Q44 155 45 185T48 247H131Q131 289 131 335T131 427T130 517T130 599L24 586Q21 629 21
673Q21 684 21 700T21 733T22 767T24 794L297 828Z" />
<glyph unicode="2" glyph-name="two" horiz-adv-x="485" d="M467 615Q467 560 448 521T398 451T333 396T268 348T217 300T193 242L454 252Q456 221 458 189T461 124Q461 61 458 0H18V188Q18 243 35 283T78 352T133 404T189 448T232 493T249 547Q249 567 241 581T221
605T193 618T165 623Q130 623 98 603T47 553Q45 577 44 607T43 666Q43 695 44 717T47 766Q61 786 83 798T130 818T178 827T219 830Q256 830 299 821T380 787T442 721T467 615Z" />
<glyph unicode="3" glyph-name="three" horiz-adv-x="493" d="M110 368Q107 399 107 432Q107 460 110 490Q122 488 133 487T153 486Q210 486 236 511T262 568Q262 584 256 599T238 626T209 645T169 653Q151 653 133 648T98 634T67 613T43 587Q41 611 40 635T39
689Q39 703 39 712T40 728T41 744T43 766Q56 785 78 797T125 817T174 827T219 830Q264 830 306 818T382 782T435 721T455 635Q455 597 443 563T412 502T369 456T321 427Q346 424 373 412T423 378T460 320T475 236Q475 170 451 123T389 46T302 3T207 -11Q183 -11
157 -8T106 3T59 22T20 49Q18 75 18 100T17 155Q17 184 17 213T20 267Q39 237 78 219T157 200Q197 200 226 222T256 293Q256 307 252 320T236 345T202 362T143 369Q135 369 127 369T110 368Z" />
<glyph unicode="4" glyph-name="four" horiz-adv-x="517" d="M442 818Q439 758 438 704T435 597T434 492T433 386H491Q493 363 494 339T495 290Q495 258 494 227T491 165H433V0H271Q273 39 273 80T275 165H13Q12 197 12 228T11 292Q11 316 11 340T13 386Q24 411
42 448T81 528T125 614T166 698T200 769T221 818H442ZM131 386H276V400Q276 459 276 498T276 567T275 621T275 673L131 386Z" />
<glyph unicode="5" glyph-name="five" horiz-adv-x="506" d="M171 627Q169 612 169 591T168 556Q168 525 171 497Q193 502 214 505T257 508Q309 508 353 489T429 437T478 360T496 265Q496 213 477 164T420 75T330 13T208 -11Q190 -11 166 -9T116 0T69 19T32 52Q30
79 30 101T29 152Q29 182 29 202T32 245Q55 221 90 207T165 193Q221 193 254 218T287 286Q287 328 254 351T161 374Q121 374 88 364T34 333Q37 454 37 575Q37 634 37 697T34 818H465Q467 793 468 769T469 720Q469 694 468 669T465 618L171 627Z" />
<glyph unicode="6" glyph-name="six" horiz-adv-x="580" d="M455 818Q380 740 328 669T243 522Q264 530 293 533T342 537Q390 537 429 521T493 483Q539 444 557 392T575 290Q575 216 550 160T483 66T389 9T284 -11Q234 -11 186 6T101 60T41 151T18 283Q18 344
33 415T78 558T148 697T242 818H455ZM297 390Q257 390 234 364T211 293Q211 255 231 227T295 198Q318 198 334 206T360 229T376 260T381 295Q381 313 376 330T361 360T335 382T297 390Z" />
<glyph unicode="7" glyph-name="seven" horiz-adv-x="487" d="M35 0L305 617L17 607Q14 627 12 652T10 707Q10 735 12 764T17 818H475Q478 800 479 777T481 732Q481 715 480 689T475 627Q458 591 438 543T397 439T354 324T315 207T281 96T257 0H35Z" />
<glyph unicode="8" glyph-name="eight" horiz-adv-x="574" d="M289 -11Q155 -11 87 54T18 240Q18 295 32 333T66 397T111 437T157 456Q136 462 117 475T82 510T58 560T49 627Q49 677 68 715T120 778T196 817T287 830Q334 830 377 817T453 779T506 715T526 626Q526
591 518 562T494 511T459 475T417 456Q442 446 466 430T511 387T543 324T556 236Q556 116 488 53T289 -11ZM287 381Q244 381 221 356T198 293Q198 255 221 229T285 202Q308 202 325 210T353 232T371 261T377 293Q377 308 372 323T356 351T328 372T287 381ZM285
664Q250 664 230 640T209 585Q209 553 229 532T284 510Q322 510 343 534T364 585Q364 597 359 611T345 637T320 656T285 664Z" />
<glyph unicode="9" glyph-name="nine" horiz-adv-x="579" d="M123 0Q199 78 252 150T336 297Q315 288 286 285T237 281Q171 281 127 305T55 367T16 447T4 528Q4 602 29 658T96 753T190 810T295 830Q345 830 393 813T478 759T538 667T561 535Q561 474 546 403T501
260T431 121T337 0H123ZM284 460Q324 460 347 486T370 557Q370 595 350 623T286 652Q263 652 247 644T221 621T205 590T200 555Q200 537 205 520T220 490T246 468T284 460Z" />
<glyph unicode=":" glyph-name="colon" horiz-adv-x="262" d="M132 204Q157 204 176 194T209 169T230 135T237 99Q237 77 229 57T206 22T172 -2T131 -11Q104 -11 84 -3T51 20T32 53T25 90Q25 110 32 130T52 167T86 194T132 204ZM132 609Q157 609 176 599T209 574T230
540T237 504Q237 482 229 462T206 427T172 403T131 394Q104 394 84 402T51 425T32 458T25 495Q25 515 32 535T52 572T86 599T132 609Z" />
<glyph unicode=";" glyph-name="semicolon" horiz-adv-x="261" d="M23 112Q34 154 64 178T134 203Q180 203 207 174T235 96Q235 64 222 29T185 -43T129 -113T59 -175L2 -119Q41 -84 60 -49T80 18Q80 69 23 112ZM130 609Q155 609 174 599T207 574T228 540T235 504Q235
482 227 462T204 427T170 403T129 394Q102 394 82 402T49 425T30 458T23 495Q23 515 30 535T50 572T84 599T130 609Z" />
<glyph unicode="&lt;" glyph-name="less" horiz-adv-x="425" d="M16 394L396 613V485L132 343L396 201V73L16 292V394Z" />
<glyph unicode="=" glyph-name="equal" horiz-adv-x="506" d="M471 294Q472 275 473 257T474 221Q474 202 473 185T471 148H36Q34 167 33 184T32 221Q32 239 33 257T36 294H471ZM471 542Q472 523 473 505T474 469Q474 450 473 433T471 396H36Q34 415 33 432T32
469Q32 487 33 505T36 542H471Z" />
<glyph unicode="&gt;" glyph-name="greater" horiz-adv-x="425" d="M409 292L29 73V201L293 343L29 485V613L409 394V292Z" />
<glyph unicode="?" glyph-name="question" horiz-adv-x="462" d="M113 299Q113 336 123 362T147 410T178 448T209 482T233 519T243 566Q243 594 233 610T208 636T177 647T149 650Q104 650 74 628T24 576Q22 598 22 624T21 680Q21 707 21 729T24 777Q52 807 101
824T212 841Q247 841 288 834T364 804T422 741T446 634Q446 585 433 551T401 492T358 446T315 405T282 359T267 299H113ZM197 204Q222 204 241 194T274 169T295 135T302 99Q302 77 294 57T271 22T237 -2T196 -11Q169 -11 149 -3T116 20T97 53T90 90Q90 110 97 130T117
167T151 194T197 204Z" />
<glyph unicode="@" glyph-name="at" horiz-adv-x="928" d="M539 126Q495 42 406 42Q328 42 284 100T240 263Q240 319 253 364T290 442T347 493T422 511Q453 511 481 501T529 474V514H652V203Q652 152 685 152Q704 152 722 167T755 209T778 272T787 352Q787 419
765 472T702 564T604 622T476 643Q401 643 339 619T233 549T165 436T141 280Q141 119 221 34T451 -51Q471 -51 494 -50T541 -44L561 -161Q516 -173 455 -173Q356 -173 276 -141T138 -50T50 92T19 278Q19 385 52 473T147 623T294 720T484 755Q580 755 658 727T793
646T881 520T912 359Q912 289 893 228T841 122T762 51T664 25Q611 25 580 51T544 126H539ZM393 324Q393 292 410 272T456 251Q487 251 508 273T529 328Q529 359 509 380T460 401Q431 401 412 380T393 324Z" />
<glyph unicode="A" glyph-name="A" horiz-adv-x="534" d="M-4 0L144 818H391L538 0H369L344 164H190L166 0H-4ZM217 343H317L267 673L217 343Z" />
<glyph unicode="B" glyph-name="B" horiz-adv-x="584" d="M185 553Q199 551 208 551T227 551Q281 551 313 571T345 624Q345 654 318 670T237 686Q220 686 207 685T185 680V553ZM28 0Q29 46 29 89T30 175T31 261T31 350Q31 481 30 601T24 815Q80 823 139 826T245
830Q523 830 523 669Q523 606 487 562T390 507Q487 489 532 433T577 273Q577 128 487 59T207 -11Q170 -11 125 -9T28 0ZM185 269Q195 266 215 264T254 262Q317 262 349 282T382 339Q382 377 348 397T252 417Q239 417 224 416T185 413V269Z" />
<glyph unicode="C" glyph-name="C" horiz-adv-x="516" d="M387 830Q423 830 449 826T499 813Q499 796 499 777T500 736Q500 714 500 690T499 644Q461 668 408 668Q358 668 325 650T271 602T242 539T233 473Q233 431 246 394T282 330T337 286T406 270Q423 270 449
275T499 294Q499 259 499 221T500 147Q500 109 500 73T499 1Q443 -11 385 -11Q297 -11 228 18T110 101T36 233T10 407Q10 499 34 576T105 710T223 798T387 830Z" />
<glyph unicode="D" glyph-name="D" horiz-adv-x="625" d="M24 815Q81 823 133 826T222 830Q310 830 384 806T514 720Q565 662 590 580T615 402Q615 309 591 233T518 103T393 19T216 -11Q193 -11 142 -9T28 0Q29 46 29 89T30 175T31 261T31 350Q31 481 30 601T24
815ZM218 664Q208 664 200 663T183 661Q182 614 182 568T182 474Q182 451 182 425T183 372T185 317T186 265Q195 263 204 263T220 262Q257 262 288 278T343 321T380 386T393 465Q393 496 385 531T356 596T302 644T218 664Z" />
<glyph unicode="E" glyph-name="E" horiz-adv-x="415" d="M398 -3Q370 -2 324 -2T226 -1T121 0T28 0Q29 21 29 56T30 136T30 233T30 342Q30 418 30 494T29 635T29 749T28 817Q67 817 114 817T210 817T306 819T394 821Q394 808 394 799T395 772Q395 760 395 744T394
710T393 675T391 642H190V526H365V377H190V265H394Q395 242 396 218T397 164T398 94T398 -3Z" />
<glyph unicode="F" glyph-name="F" horiz-adv-x="404" d="M28 0Q29 16 29 54T30 145T30 261T30 390Q30 456 30 521T30 644T30 746T28 817Q67 817 114 817T210 818T306 820T394 822Q395 807 395 793T395 765Q395 736 394 705T391 643H190V493H357V323H190Q190 273
190 224T191 132T193 55T195 0H28Z" />
<glyph unicode="G" glyph-name="G" horiz-adv-x="584" d="M565 455V1Q511 -6 470 -8T401 -11Q309 -11 236 18T113 101T37 233T10 407Q10 499 35 576T109 710T233 798T406 830Q448 830 478 825T538 810Q538 794 538 775T539 734Q539 712 539 687T538 642Q489 668
426 668Q371 668 334 650T275 602T243 538T233 469Q233 431 244 395T279 331T336 286T418 269Q423 269 427 269T437 270V455H565Z" />
<glyph unicode="H" glyph-name="H" horiz-adv-x="529" d="M506 818Q503 755 502 699T499 589T498 479T497 360Q497 286 497 199T499 0H333Q335 60 336 125T338 275H190Q190 216 190 149T192 0H26Q27 44 28 90T30 189T31 305T31 445Q31 513 31 562T31 653T30 732T30
818H199Q195 735 193 665T190 522H338Q338 568 338 605T338 677T337 745T337 818H506Z" />
<glyph unicode="I" glyph-name="I" horiz-adv-x="355" d="M99 283V445Q99 509 99 554T98 637H24Q23 660 22 682T21 727Q21 750 22 773T24 818H332Q333 795 333 773T333 727Q333 704 333 682T332 637H259Q257 570 257 505T256 360V283H332Q333 247 333 212T333
141Q333 106 333 71T332 0H24Q23 35 22 70T21 141Q21 177 22 212T24 283H99Z" />
<glyph unicode="J" glyph-name="J" d="M352 428Q352 357 352 310T350 233T347 186T343 156Q330 81 279 35T133 -11Q109 -11 75 -8T7 5Q5 39 4 74T3 145Q3 181 4 217T7 289Q32 278 52 273T94 268Q125 268 144 278T175 311T191 368T195 451V647H56V818H352V428Z" />
<glyph unicode="K" glyph-name="K" horiz-adv-x="557" d="M209 818Q206 758 205 712T202 624T201 538T200 436H204L382 819H568L372 420L580 0H393L204 396H200Q200 359 200 312T200 214T201 108T202 0H26Q27 44 28 91T30 194T31 314T31 457Q31 525 31 572T31
659T30 734T30 818H209Z" />
<glyph unicode="L" glyph-name="L" horiz-adv-x="366" d="M200 818Q197 681 196 592T193 443T192 341T192 258L349 264Q351 231 352 199T353 135Q353 102 352 69T349 0H26Q29 140 30 287T32 574Q32 639 32 700T31 818H200Z" />
<glyph unicode="M" glyph-name="M" horiz-adv-x="696" d="M518 501L389 35H296L175 488Q176 366 179 242T185 0H27Q29 103 30 204T31 409Q31 512 30 613T27 818H241L347 349L466 818H668Q665 614 665 409Q665 204 668 0H508L518 501Z" />
<glyph unicode="N" glyph-name="N" horiz-adv-x="597" d="M426 818H569Q566 614 566 409Q566 204 569 0H376L164 489V0H27Q29 103 30 204T31 409Q31 512 30 613T27 818H229L426 330V818Z" />
<glyph unicode="O" glyph-name="O" horiz-adv-x="608" d="M304 830Q453 830 524 724T595 416Q595 211 526 100T304 -11Q229 -11 174 17T83 100T30 234T13 416Q13 621 84 725T304 830ZM304 247Q336 247 360 261T401 301T425 362T433 441Q433 484 425 520T401 584T361
626T304 641Q272 641 249 626T209 583T184 520T176 441Q176 398 184 363T208 302T248 262T304 247Z" />
<glyph unicode="P" glyph-name="P" horiz-adv-x="558" d="M198 460Q216 455 232 454T261 452Q280 452 297 456T328 472T349 501T357 549Q357 579 349 598T326 629T294 644T255 648Q226 648 198 642V460ZM27 0Q30 95 31 189T32 369Q32 490 31 599T27 818Q76 823
125 826T223 830Q292 830 352 819T456 779T527 697T553 562Q553 486 531 433T470 346T375 297T253 282Q236 282 224 283T196 286Q196 214 197 143T203 0H27Z" />
<glyph unicode="Q" glyph-name="Q" horiz-adv-x="608" d="M304 830Q453 830 524 724T595 416Q595 242 554 152T434 43Q464 32 497 26T577 20L520 -160Q482 -159 450 -147T391 -114T345 -67T309 -11H304Q229 -11 174 17T83 100T30 234T13 416Q13 621 84 725T304
830ZM304 247Q336 247 360 261T401 301T425 362T433 441Q433 484 425 520T401 584T361 626T304 641Q272 641 249 626T209 583T184 520T176 441Q176 398 184 363T208 302T248 262T304 247Z" />
<glyph unicode="R" glyph-name="R" horiz-adv-x="589" d="M27 0Q30 95 31 189T32 369Q32 490 31 599T27 818Q76 823 125 826T226 830Q299 830 363 820T474 781T548 702T576 573Q576 475 536 419T426 335L589 0H411L278 305Q237 302 193 302Q193 225 194 151T200
0H27ZM193 454Q224 451 250 451Q318 451 346 476T375 553Q375 584 367 603T344 633T310 648T268 652Q252 652 233 651T193 646V454Z" />
<glyph unicode="S" glyph-name="S" horiz-adv-x="460" d="M17 615Q17 679 41 720T103 786T186 820T274 830Q286 830 304 829T343 826T385 821T426 811Q428 785 429 763T430 711Q430 682 429 656T426 605Q418 606 406 608T380 611T353 613T327 614Q279 614 257
599T235 558Q235 543 242 530T260 504T286 481T316 460Q340 443 364 423T409 374T442 308T455 221Q455 157 433 113T377 42T300 2T215 -11Q196 -11 169 -9T113 -2T60 9T20 25Q16 43 14 62T11 104Q11 120 12 143T16 190T20 236T25 273Q36 267 57 260T102 245T152
233T196 228Q228 228 244 241T260 278Q260 303 242 322T197 361T139 401T80 452T35 520T17 615Z" />
<glyph unicode="T" glyph-name="T" horiz-adv-x="419" d="M408 633H293Q291 544 290 453T289 255Q289 187 289 146T289 78T289 35T290 0H122Q123 44 124 91T125 194T126 314T127 457Q127 514 127 556T126 633H11V818H408V633Z" />
<glyph unicode="U" glyph-name="U" horiz-adv-x="597" d="M566 819Q568 673 572 567T576 385Q576 336 573 288T560 195T532 114T483 48T407 5T300 -11Q236 -11 191 5T114 50T65 116T36 199T23 290T20 384Q20 421 21 463T24 557T28 673T34 818H210Q207 728 205
666T202 561T200 495T199 457T198 439T198 430Q198 333 220 284T299 235Q357 235 377 288T398 449Q398 454 398 460T398 481T397 518T395 581T391 678T386 818L566 819Z" />
<glyph unicode="V" glyph-name="V" horiz-adv-x="562" d="M397 818H567L405 0H157L-5 818H166L281 196L397 818Z" />
<glyph unicode="W" glyph-name="W" horiz-adv-x="812" d="M644 818H810L688 0H491L404 438L317 0H125L-1 818H165L228 259L342 811L470 817L583 259L644 818Z" />
<glyph unicode="X" glyph-name="X" horiz-adv-x="530" d="M366 818H543L383 432L545 1H370L265 326L161 1H-15L147 432L-13 818H164L265 531L366 818Z" />
<glyph unicode="Y" glyph-name="Y" horiz-adv-x="537" d="M382 818H547L352 300V255Q352 187 352 146T352 78T352 35T353 0H180Q182 65 183 136T185 300L-9 818H157L269 477L382 818Z" />
<glyph unicode="Z" glyph-name="Z" horiz-adv-x="506" d="M12 0Q4 43 4 93Q4 124 7 151T15 205L294 639H34Q31 656 30 676T28 717Q28 744 30 770T36 818H482Q484 800 485 781T487 740Q487 723 486 702T482 645L203 213H488Q492 190 493 163T495 106Q495 76 494
49T488 0H12Z" />
<glyph unicode="[" glyph-name="bracketleft" horiz-adv-x="281" d="M273 28V-72H36Q37 -9 37 47T38 158T39 270T39 390Q39 453 39 511T39 626T38 742T36 863H273V763H157Q157 720 157 673T156 577T155 481T155 390Q155 304 155 208T157 28H273Z" />
<glyph unicode="\" glyph-name="backslash" horiz-adv-x="448" d="M127 818L435 -44H319L11 818H127Z" />
<glyph unicode="]" glyph-name="bracketright" horiz-adv-x="281" d="M124 28Q125 111 125 207T126 390Q126 433 126 480T126 576T125 672T124 763H8V863H245Q244 800 244 742T243 627T242 511T242 390Q242 327 242 271T242 159T243 47T245 -72H8V28H124Z" />
<glyph unicode="^" glyph-name="asciicircum" horiz-adv-x="518" d="M290 506L504 126H401L259 390L117 126H14L228 506H290Z" />
<glyph unicode="_" glyph-name="underscore" horiz-adv-x="700" d="M668 -56Q670 -73 671 -90T672 -125Q672 -141 671 -157T668 -192H31Q29 -176 29 -159T28 -124Q28 -107 28 -90T31 -56H668Z" />
<glyph unicode="`" glyph-name="grave" horiz-adv-x="267" d="M247 650H156L28 841H174L247 650Z" />
<glyph unicode="a" glyph-name="a" horiz-adv-x="537" d="M509 0H372V49Q336 20 296 5T218 -11Q173 -11 135 11T70 72T26 167T10 287Q10 355 27 414T73 516T143 584T231 609Q272 609 309 592T372 548V598H514L509 0ZM201 361Q201 320 223 295T281 270Q319 270
345 297T372 366Q372 385 366 402T347 431T319 451T285 458Q249 458 225 431T201 361Z" />
<glyph unicode="b" glyph-name="b" horiz-adv-x="537" d="M23 841H165V548Q192 574 228 591T306 609Q353 609 393 585T463 517T510 414T527 287Q527 222 511 167T468 73T402 11T319 -11Q281 -11 241 4T165 49V0H28L23 841ZM165 361Q165 320 187 295T245 270Q283
270 309 297T336 366Q336 385 330 402T311 431T284 451T250 458Q213 458 189 431T165 361Z" />
<glyph unicode="c" glyph-name="c" horiz-adv-x="430" d="M301 609Q360 609 408 592Q408 575 408 556T409 516Q409 495 409 474T408 435Q375 463 327 463Q297 463 277 454T245 429T227 397T222 363Q222 341 230 322T252 287T284 264T324 255Q344 255 366 263T408
285Q408 252 408 217T409 145Q409 110 409 74T408 1Q352 -11 297 -11Q229 -11 176 10T86 72T30 169T10 298Q10 365 28 422T82 521T173 585T301 609Z" />
<glyph unicode="d" glyph-name="d" horiz-adv-x="537" d="M509 0H372V49Q336 20 296 5T218 -11Q173 -11 135 11T70 72T26 167T10 287Q10 355 27 414T73 516T143 584T231 609Q272 609 309 592T372 548V841H514L509 0ZM201 361Q201 320 223 295T281 270Q319 270
345 297T372 366Q372 385 366 402T347 431T319 451T285 458Q249 458 225 431T201 361Z" />
<glyph unicode="e" glyph-name="e" horiz-adv-x="522" d="M230 315Q243 272 273 245T356 218Q372 218 390 220T427 227T461 237T489 248Q491 219 491 187T492 122Q492 69 489 27Q411 -11 314 -11Q269 -11 223 -1T134 37Q96 62 72 95T33 164T14 234T9 295Q9 335
18 378T48 461T99 534T172 586Q223 609 280 609Q340 609 388 585T466 519Q495 479 502 430T510 315H230ZM287 501Q266 501 247 484T222 422H353Q349 462 330 481T287 501Z" />
<glyph unicode="f" glyph-name="f" horiz-adv-x="291" d="M60 320H14V530H59V602Q59 668 65 707T85 772Q104 805 139 823T221 841Q236 841 255 840T284 835Q287 820 288 794T290 726Q290 642 283 615Q278 617 264 618T236 619Q223 619 215 617T202 607T196 586T194
551V530H275V320H196V0H60V320Z" />
<glyph unicode="g" glyph-name="g" horiz-adv-x="538" d="M372 70Q334 40 303 27T234 14Q184 14 143 34T73 91T27 179T10 291Q10 357 28 414T79 515T155 584T247 609Q320 609 372 548V598H514V276Q514 187 512 125T504 27Q489 -79 424 -135T251 -192Q206 -192
166 -182T91 -153V-30Q164 -67 237 -67Q303 -67 337 -39T372 41V70ZM201 361Q201 320 223 295T281 270Q300 270 316 277T345 298T365 328T372 366Q372 385 366 402T347 431T319 451T285 458Q249 458 225 431T201 361Z" />
<glyph unicode="h" glyph-name="h" horiz-adv-x="459" d="M181 841Q178 785 176 744T173 668T172 604T171 544Q195 574 229 591T298 609Q320 609 340 603T378 585T407 559T426 525Q430 511 432 485T435 427V0H288V300Q288 330 274 347T235 365Q210 365 191 349T171
310V0H24Q26 133 26 284T26 610Q26 664 26 700T26 762T26 805T25 841H181Z" />
<glyph unicode="i" glyph-name="i" horiz-adv-x="199" d="M26 582H173V0H26V582ZM103 830Q127 830 146 821T179 796T199 763T206 727Q206 704 198 685T175 651T142 628T102 619Q76 619 56 627T23 649T3 681T-4 718Q-4 737 3 757T24 793T58 820T103 830Z" />
<glyph unicode="j" glyph-name="j" horiz-adv-x="188" d="M162 -3Q162 -41 160 -71T149 -126Q124 -192 35 -192Q27 -192 15 -192T-9 -190T-33 -188T-52 -184Q-56 -170 -57 -155T-58 -128Q-58 -107 -56 -86T-50 -49Q-44 -51 -33 -52T-14 -53Q11 -53 18 -40T26 15V582H162V-3ZM97
830Q121 830 140 821T173 796T193 763T200 727Q200 704 192 685T169 651T136 628T96 619Q70 619 50 627T17 649T-3 681T-10 718Q-10 737 -3 757T18 793T52 820T97 830Z" />
<glyph unicode="k" glyph-name="k" horiz-adv-x="482" d="M488 598L328 315L499 0H328L189 250H182Q182 221 182 193T182 134T184 71T186 0H21Q26 123 27 275T28 610Q28 671 28 709T28 771T28 810T26 841H196Q193 749 191 676T188 543T185 436T183 348H190L328 598H488Z" />
<glyph unicode="l" glyph-name="l" horiz-adv-x="198" d="M181 841Q176 702 174 559T171 255Q171 187 171 146T171 78T171 35T172 0H22Q25 88 26 206T27 480Q27 548 27 595T27 682T26 757T26 841H181Z" />
<glyph unicode="m" glyph-name="m" horiz-adv-x="698" d="M170 598V545Q190 577 223 593T295 609Q331 609 361 594T407 544Q425 576 461 592T541 609Q606 609 640 568T675 428V0H528V307Q528 344 513 360T477 377Q457 377 440 361T423 315V0H276V295Q276 334 259
352T221 370Q201 370 186 353T170 306V0H25Q25 30 25 67T25 142T26 214T26 275Q26 300 26 339T26 424T25 514T25 598H170Z" />
<glyph unicode="n" glyph-name="n" horiz-adv-x="457" d="M170 598V544Q194 574 228 591T299 609Q343 609 377 585T422 528Q427 513 430 487T434 427V0H287V290Q287 335 271 350T232 366Q203 366 187 348T170 300V0H25Q25 33 25 69T26 142T26 215T26 283Q26 302
26 340T26 423T25 515T25 598H170Z" />
<glyph unicode="o" glyph-name="o" horiz-adv-x="479" d="M240 609Q362 609 414 529T467 299Q467 148 415 69T240 -11Q117 -11 65 68T12 299Q12 449 64 529T240 609ZM240 224Q260 224 275 232T301 253T316 282T321 317Q321 335 316 352T301 382T276 403T240 411Q199
411 179 382T158 317Q158 299 163 283T178 253T204 232T240 224Z" />
<glyph unicode="p" glyph-name="p" horiz-adv-x="537" d="M28 597H165V548Q201 576 240 592T319 609Q364 609 402 587T467 524T511 429T527 308Q527 240 510 182T463 80T393 13T305 -11Q265 -11 229 6T165 49V-181H23L28 597ZM165 361Q165 320 187 295T245 270Q283
270 309 297T336 366Q336 385 330 402T311 431T284 451T250 458Q213 458 189 431T165 361Z" />
<glyph unicode="q" glyph-name="q" horiz-adv-x="538" d="M509 -181H372V49Q336 20 296 5T218 -11Q173 -11 135 11T70 72T26 167T10 287Q10 355 27 414T73 516T143 584T231 609Q272 609 309 592T372 548V598H514L509 -181ZM201 361Q201 320 223 295T281 270Q319
270 345 297T372 366Q372 385 366 402T347 431T319 451T285 458Q249 458 225 431T201 361Z" />
<glyph unicode="r" glyph-name="r" horiz-adv-x="314" d="M152 598L159 522Q171 541 188 557T223 584T260 602T295 609Q297 583 298 550T300 481Q300 441 299 402T295 330Q286 334 270 336T243 338Q206 338 189 321T171 277V0H24Q25 162 25 307T26 598H152Z" />
<glyph unicode="s" glyph-name="s" horiz-adv-x="383" d="M82 561Q116 588 155 598T234 609Q263 609 291 604T346 591Q348 530 348 492T349 432Q349 402 348 390T346 366Q344 366 336 368T317 372T294 375T269 377Q251 377 239 373T226 355Q226 344 234 335T253
316T278 298T304 282Q331 264 354 234T378 153Q378 109 359 78T309 27T242 -2T168 -11Q154 -11 136 -10T100 -6T63 1T30 13Q25 30 23 49T21 88Q21 97 21 110T23 136T26 163T30 185Q41 180 55 175T86 164T117 156T147 152Q167 152 178 160T189 182Q189 194 182 203T165
221T143 236T121 248Q102 258 82 270T46 299T20 342T10 403Q10 445 26 487T82 561Z" />
<glyph unicode="t" glyph-name="t" horiz-adv-x="303" d="M75 714H212V598H289V332H210V192Q210 151 217 138T249 124Q256 124 268 125T286 128Q288 121 288 100T288 56Q288 37 288 22T287 0Q275 -2 261 -3T233 -6T208 -7T189 -8Q153 -8 130 6T94 43T76 96T71
157Q71 169 71 192T72 242T74 292T75 332H15V598H75V714Z" />
<glyph unicode="u" glyph-name="u" horiz-adv-x="459" d="M288 0V53Q264 24 230 7T161 -11Q139 -11 119 -5T81 13T52 39T33 73Q29 87 27 113T24 170V598H171V298Q171 268 185 251T223 233Q235 233 247 238T269 251T285 270T291 293V598H438Q437 565 436 529T434
456T433 383T432 315Q432 296 432 258T432 175T433 83T433 0H288Z" />
<glyph unicode="v" glyph-name="v" horiz-adv-x="456" d="M458 598L323 0H134L-3 598H146L204 280Q207 262 213 250T230 238Q247 238 255 280L309 598H458Z" />
<glyph unicode="w" glyph-name="w" horiz-adv-x="697" d="M698 598L584 0H399L349 302L300 0H116L0 598H150L191 280Q194 259 198 249T213 238Q221 238 225 248T232 280L281 598H417L469 280Q472 259 476 249T490 238Q505 238 509 280L548 598H698Z" />
<glyph unicode="x" glyph-name="x" horiz-adv-x="448" d="M224 195Q221 195 217 188T207 168T195 139T183 107L143 0H-10L121 300L-8 598H143L181 493Q187 476 193 460T204 430T215 410T224 402Q228 402 233 409T243 430T255 459T267 493L304 598H456L327 300L458
0H305L265 107Q259 123 253 139T242 167T232 187T224 195Z" />
<glyph unicode="y" glyph-name="y" horiz-adv-x="452" d="M458 598L252 -181H101L148 17L-6 598H152L207 307Q212 284 215 272T227 260Q240 260 249 307L306 598H458Z" />
<glyph unicode="z" glyph-name="z" horiz-adv-x="440" d="M17 0Q12 20 11 44T9 93Q9 124 11 151T19 205L230 397H37Q34 417 32 442T30 497Q30 525 32 551T37 598H415Q417 580 418 561T420 519Q420 503 419 481T415 425L175 213H418Q421 190 423 163T425 106Q425
76 423 49T418 0H17Z" />
<glyph unicode="{" glyph-name="braceleft" horiz-adv-x="284" d="M274 768H251Q220 768 207 750T193 696V509Q193 463 172 434T119 403V399Q150 395 171 369T193 283V96Q193 60 206 42T251 24H274V-82H225Q198 -82 173 -73T130 -45T100 2T88 69V249Q88 300 62
328T-4 356V446Q36 446 62 472T88 543V723Q88 761 99 789T129 836T173 864T225 874H274V768Z" />
<glyph unicode="|" glyph-name="bar" horiz-adv-x="181" d="M144 841V-192H37V841H144Z" />
<glyph unicode="}" glyph-name="braceright" horiz-adv-x="284" d="M10 874H59Q86 874 111 865T154 837T184 790T196 723V543Q196 498 222 472T288 446V356Q248 356 222 328T196 249V69Q196 31 185 3T155 -44T111 -72T59 -82H10V24H33Q64 24 77 42T91 96V283Q91
343 112 369T165 399V403Q134 405 113 434T91 509V696Q91 732 78 750T33 768H10V874Z" />
<glyph unicode="~" glyph-name="asciitilde" horiz-adv-x="496" d="M28 397Q58 414 88 420T148 426Q173 426 198 420T248 407T298 393T348 387Q378 387 408 393T468 416V290Q438 273 408 267T348 261Q323 261 298 267T248 280T198 294T148 300Q118 300 88 294T28
271V397Z" />
<glyph unicode="&#xa0;" glyph-name="uni00A0" horiz-adv-x="124" />
<glyph unicode="&#xa1;" glyph-name="exclamdown" horiz-adv-x="247" d="M12 -175L61 346H182V-192L12 -175ZM131 445Q106 445 87 455T54 480T33 514T26 550Q26 572 34 592T57 627T91 651T132 660Q159 660 179 651T212 628T231 596T238 559Q238 539 231 519T211
482T177 455T131 445Z" />
<glyph unicode="&#xa2;" glyph-name="cent" horiz-adv-x="405" d="M16 304Q16 403 58 474T187 571L169 713H310L293 584Q316 583 336 579T374 569Q374 554 374 537T375 500Q375 481 375 463T374 427Q345 453 301 453Q274 453 256 444T227 422T212 393T207 363Q207
343 214 326T234 295T263 273T299 265Q316 265 336 272T374 292Q374 263 374 231T375 166Q375 134 375 102T374 37Q331 27 293 26L310 -105H169L187 37Q105 61 61 130T16 304Z" />
<glyph unicode="&#xa3;" glyph-name="sterling" horiz-adv-x="435" d="M73 466V590Q73 650 77 689T99 757Q123 797 163 813T258 830Q271 830 288 829T322 825T357 815T389 800Q392 785 393 758T395 699Q395 667 394 635T387 580Q372 589 346 596T292 603Q276 603
261 600T234 589T215 569T208 539V466H319V358H208V250Q233 238 257 227T309 216Q330 216 354 226T408 263Q412 240 414 207T416 138Q416 106 415 77T410 27Q381 6 356 -2T308 -11Q281 -11 258 -2T213 18T168 38T122 47Q101 47 79 38T31 8Q29 28 28 56T26 115Q26
151 27 185T31 245Q42 251 52 256T73 264V358H28V466H73Z" />
<glyph unicode="&#xa4;" glyph-name="currency" horiz-adv-x="589" d="M300 66Q240 66 193 91L110 8L17 100L103 186Q81 236 81 293Q81 349 102 394L16 479L109 572L193 486Q240 508 298 508Q354 508 397 488L481 572L573 479L489 395Q510 350 510 292Q510 231
488 183L573 99L481 7L399 88Q355 66 300 66ZM298 165Q326 165 347 175T384 202T406 241T414 290Q414 342 385 378T298 414Q241 414 209 379T177 290Q177 264 185 242T209 202T247 175T298 165Z" />
<glyph unicode="&#xa5;" glyph-name="yen" horiz-adv-x="587" d="M538 450V342H49V450H153L15 818H181L293 462L406 818H571L432 450H538ZM538 270V161H376Q376 101 376 64T377 0H204Q206 38 206 77T208 161H49V270H538Z" />
<glyph unicode="&#xa6;" glyph-name="brokenbar" horiz-adv-x="185" d="M146 256V-118H39V256H146ZM146 760V386H39V760H146Z" />
<glyph unicode="&#xa7;" glyph-name="section" horiz-adv-x="427" d="M407 369Q407 308 377 260T292 187Q348 153 372 118T396 38Q396 2 381 -27T339 -77T273 -109T190 -121Q153 -121 115 -115T53 -97Q41 -60 41 -7Q41 15 42 39T47 75Q80 60 112 51T166 42Q206
42 206 74Q206 93 192 105T158 127T113 150T68 181T33 228T19 301Q19 362 50 410T135 480Q77 515 54 549T31 627Q31 664 46 694T88 745T153 777T237 789Q273 789 311 783T374 765Q386 727 386 675Q386 653 384 629T380 593Q345 608 314 617T261 626Q221 626 221
594Q221 575 235 563T269 540T314 517T358 487T393 440T407 369ZM210 253Q239 253 257 274T276 327Q276 360 258 381T211 402Q182 402 164 381T145 327Q145 294 163 274T210 253Z" />
<glyph unicode="&#xa8;" glyph-name="dieresis" horiz-adv-x="372" d="M20 740Q20 779 43 796T94 813Q126 813 144 792T163 740Q163 708 144 688T95 667Q83 667 70 671T46 683T27 706T20 740ZM209 741Q209 760 215 773T232 796T256 809T282 813Q314 813 333 792T352
740Q352 708 333 688T284 667Q272 667 259 671T235 683T216 706T209 741Z" />
<glyph unicode="&#xa9;" glyph-name="copyright" horiz-adv-x="751" d="M218 417Q218 460 230 496T265 558T321 598T399 613Q420 613 440 610T482 599L478 499Q462 505 447 507T415 509Q395 509 378 506T348 493T327 467T319 426Q319 379 346 359T409 338Q442
338 481 352V229Q461 225 443 223T406 221Q318 221 268 273T218 417ZM386 132Q454 132 502 155T582 217T627 307T642 416Q642 474 627 524T580 611T499 669T383 691Q318 691 267 671T181 616T128 530T110 420Q110 361 127 309T178 218T265 155T386 132ZM378 47Q291
47 225 76T113 156T44 274T20 418Q20 496 44 561T115 672T229 745T382 771Q467 771 532 745T641 673T708 562T731 421Q731 343 708 275T641 157T530 77T378 47Z" />
<glyph unicode="&#xaa;" glyph-name="ordfeminine" horiz-adv-x="370" d="M343 495H238V525Q192 488 145 488Q117 488 93 502T50 540T21 597T10 668Q10 707 21 742T52 804T98 845T154 861Q177 861 199 851T238 824V854H346L343 495ZM115 701Q115 671 130 654T175
637Q204 637 221 655T239 706Q239 736 224 753T180 771Q151 771 133 752T115 701Z" />
<glyph unicode="&#xab;" glyph-name="guillemotleft" horiz-adv-x="760" d="M199 299L435 57L316 -13L10 299L316 610L435 541L199 299ZM506 299L742 57L623 -13L317 299L623 610L742 541L506 299Z" />
<glyph unicode="&#xac;" glyph-name="logicalnot" horiz-adv-x="633" d="M600 474V184H478V353H20V474H600Z" />
<glyph unicode="&#xad;" glyph-name="uni00AD" horiz-adv-x="464" d="M436 422Q436 401 437 381T438 341Q438 321 437 302T436 262H27Q25 282 25 302T25 342Q25 362 25 382T27 422H436Z" />
<glyph unicode="&#xae;" glyph-name="registered" horiz-adv-x="651" d="M328 225Q254 225 197 250T101 317T42 417T22 540Q22 607 43 662T103 757T200 819T330 841Q403 841 459 819T552 757T609 662T629 542Q629 476 610 419T552 318T458 250T328 225ZM334 301Q391
301 431 320T498 372T536 448T548 538Q548 586 536 628T497 701T429 750T331 768Q277 768 235 752T164 705T120 634T105 542Q105 493 119 450T162 373T234 321T334 301ZM229 382Q230 419 230 456T230 527Q230 575 230 617T229 704Q249 706 267 707T307 708Q335
708 360 704T405 689T435 658T446 606Q446 568 433 547T395 515L451 382H377L329 502H305Q305 440 308 382H229ZM303 556H313Q322 556 331 557T347 563T359 575T364 596Q364 616 352 623T322 630H303V556Z" />
<glyph unicode="&#xaf;" glyph-name="overscore" horiz-adv-x="370" d="M350 796V702H20V796H350Z" />
<glyph unicode="&#xb0;" glyph-name="degree" horiz-adv-x="340" d="M170 591Q213 591 236 616T259 682Q259 718 236 745T170 772Q128 772 104 745T80 681Q80 642 104 617T170 591ZM170 516Q134 516 104 529T53 565T20 618T8 682Q8 716 19 745T51 796T102 829T169
841Q209 841 239 829T289 796T320 746T331 683Q331 649 321 619T291 566T240 530T170 516Z" />
<glyph unicode="&#xb1;" glyph-name="plusminus" horiz-adv-x="467" d="M173 383H27V503H173V629H293V503H440V383H293V256H173V383ZM440 193V73H27V193H440Z" />
<glyph unicode="&#xb2;" glyph-name="twosuperior" horiz-adv-x="308" d="M288 772Q288 738 277 713T249 669T212 635T175 604T145 574T131 538L280 544Q282 526 283 507T284 468Q284 449 284 432T282 396H18V505Q18 540 28 564T54 608T87 641T121 669T146 697T157
731Q157 756 140 766T106 777Q86 777 66 765T35 735Q34 749 34 767T33 803Q33 820 33 833T35 863Q44 875 57 882T86 894T115 899T139 901Q161 901 187 896T235 876T273 836T288 772Z" />
<glyph unicode="&#xb3;" glyph-name="threesuperior" horiz-adv-x="301" d="M69 618Q68 629 68 638T68 659Q68 668 68 677T70 696Q77 695 83 695T96 694Q131 694 146 709T161 744Q161 763 146 779T105 795Q84 795 63 784T29 755Q28 770 28 784T28 816Q28 825 28
830T28 839T28 849T29 862Q38 874 51 881T79 893T108 899T135 901Q162 901 188 894T233 872T265 835T277 784Q277 761 270 741T251 704T225 676T196 659Q211 657 227 649T257 627T279 590T288 535Q288 495 274 468T236 423T185 397T128 389Q99 389 68 397T16 423Q14
439 14 454T14 486Q14 504 14 522T16 554Q27 537 50 526T97 514Q122 514 140 527T158 569Q158 578 156 587T146 603T125 614T89 619Q85 619 80 619T69 618Z" />
<glyph unicode="&#xb4;" glyph-name="acute" horiz-adv-x="267" d="M93 841H239L111 650H20L93 841Z" />
<glyph unicode="&#xb5;" glyph-name="mu" horiz-adv-x="468" d="M32 598H179V292Q179 265 195 249T237 232Q263 232 279 248T296 290L306 598H446Q445 565 444 529T442 456T441 383T440 315Q440 296 440 258T440 175T441 83T441 0H301V65Q289 35 261 12T197 -11Q181
-11 164 -5T131 13L179 -166V-193H32V598Z" />
<glyph unicode="&#xb6;" glyph-name="paragraph" horiz-adv-x="527" d="M265 -73V346Q197 346 150 367T72 422T29 501T15 592Q15 634 28 675T72 747T149 798T265 818H485V-73H405V747H345V-73H265Z" />
<glyph unicode="&#xb7;" glyph-name="middot" horiz-adv-x="235" d="M119 454Q144 454 163 444T196 419T217 385T224 349Q224 327 216 307T193 272T159 248T118 239Q91 239 71 247T38 270T19 303T12 340Q12 360 19 380T39 417T73 444T119 454Z" />
<glyph unicode="&#xb8;" glyph-name="cedilla" horiz-adv-x="256" d="M206 -54L146 -205H50L74 -55L206 -54Z" />
<glyph unicode="&#xb9;" glyph-name="onesuperior" horiz-adv-x="252" d="M187 895Q185 856 185 820T183 742T182 653T182 544H236Q238 526 239 508T240 470Q240 453 239 435T236 396H24Q23 413 23 429T22 462Q22 482 22 502T24 544H74Q74 596 74 653T73 758L23
750Q21 763 21 776T20 802Q20 816 20 839T23 875L187 895Z" />
<glyph unicode="&#xba;" glyph-name="ordmasculine" horiz-adv-x="320" d="M160 861Q231 861 269 814T308 675Q308 590 271 540T160 489Q88 489 50 539T12 675Q12 766 50 813T160 861ZM160 608Q175 608 186 615T205 634T216 660T220 690Q220 704 217 718T206 744T187
763T160 771Q145 771 134 764T115 745T104 719T100 690Q100 675 103 661T114 635T133 616T160 608Z" />
<glyph unicode="&#xbb;" glyph-name="guillemotright" horiz-adv-x="760" d="M18 541L138 610L443 299L138 -13L18 57L255 299L18 541ZM325 541L445 610L750 299L445 -13L325 57L562 299L325 541Z" />
<glyph unicode="&#xbc;" glyph-name="onequarter" horiz-adv-x="743" d="M560 817L213 -42L151 -4L491 855L560 817ZM188 895Q186 856 186 820T184 742T183 653T183 544H237Q239 526 240 508T241 470Q241 453 240 435T237 396H25Q24 413 24 429T23 462Q23 482
23 502T25 544H75Q75 596 75 653T74 758L24 750Q22 763 22 776T21 802Q21 816 21 839T24 875L188 895ZM690 491V232H726V99H690V0H579V99H422V232L546 491H690ZM503 232H579V400L503 232Z" />
<glyph unicode="&#xbd;" glyph-name="onehalf" horiz-adv-x="743" d="M549 817L202 -42L140 -4L480 855L549 817ZM187 895Q185 856 185 820T183 742T182 653T182 544H236Q238 526 239 508T240 470Q240 453 239 435T236 396H24Q23 413 23 429T22 462Q22 482 22
502T24 544H74Q74 596 74 653T73 758L23 750Q21 763 21 776T20 802Q20 816 20 839T23 875L187 895ZM725 376Q725 342 714 317T686 273T649 239T612 208T582 178T568 142L717 148Q719 130 720 111T721 72Q721 53 721 36T719 0H455V109Q455 143 465 168T491 212T524
245T558 273T583 301T594 335Q594 360 577 370T543 381Q523 381 503 369T472 339Q471 353 471 371T470 407Q470 424 470 437T472 467Q481 479 494 486T523 498T552 503T576 505Q598 505 624 500T672 480T710 440T725 376Z" />
<glyph unicode="&#xbe;" glyph-name="threequarters" horiz-adv-x="740" d="M567 817L220 -42L158 -4L498 855L567 817ZM72 618Q71 629 71 638T71 659Q71 668 71 677T73 696Q80 695 86 695T99 694Q134 694 149 709T164 744Q164 763 149 779T108 795Q87 795 66
784T32 755Q31 770 31 784T31 816Q31 825 31 830T31 839T31 849T32 862Q41 874 54 881T82 893T111 899T138 901Q165 901 191 894T236 872T268 835T280 784Q280 761 273 741T254 704T228 676T199 659Q214 657 230 649T260 627T282 590T291 535Q291 495 277 468T239
423T188 397T131 389Q102 389 71 397T19 423Q17 439 17 454T17 486Q17 504 17 522T19 554Q30 537 53 526T100 514Q125 514 143 527T161 569Q161 578 159 587T149 603T128 614T92 619Q88 619 83 619T72 618ZM686 491V232H722V99H686V0H575V99H418V232L542 491H686ZM499
232H575V400L499 232Z" />
<glyph unicode="&#xbf;" glyph-name="questiondown" horiz-adv-x="459" d="M348 350Q348 313 338 287T314 239T283 201T252 167T228 130T218 83Q218 55 228 39T253 13T284 2T312 -1Q357 -1 387 21T437 73Q439 51 439 25T440 -31Q440 -58 440 -80T437 -128Q409
-158 360 -175T249 -192Q214 -192 173 -185T97 -155T39 -92T15 15Q15 64 28 98T60 157T103 203T146 244T179 290T194 350H348ZM264 445Q239 445 220 455T187 480T166 514T159 550Q159 572 167 592T190 627T224 651T265 660Q292 660 312 651T345 628T364 596T371
559Q371 539 364 519T344 482T310 455T264 445Z" />
<glyph unicode="&#xc0;" glyph-name="Agrave" horiz-adv-x="534" d="M-4 0L144 818H391L538 0H369L344 164H190L166 0H-4ZM217 343H317L267 673L217 343ZM330 849H239L111 1040H257L330 849Z" />
<glyph unicode="&#xc1;" glyph-name="Aacute" horiz-adv-x="534" d="M-4 0L144 818H391L538 0H369L344 164H190L166 0H-4ZM217 343H317L267 673L217 343ZM277 1040H423L295 849H204L277 1040Z" />
<glyph unicode="&#xc2;" glyph-name="Acircumflex" horiz-adv-x="534" d="M-4 0L144 818H391L538 0H369L344 164H190L166 0H-4ZM217 343H317L267 673L217 343ZM267 1045L438 932L408 864L267 932L126 864L96 932L267 1045Z" />
<glyph unicode="&#xc3;" glyph-name="Atilde" horiz-adv-x="534" d="M-4 0L144 818H391L538 0H369L344 164H190L166 0H-4ZM217 343H317L267 673L217 343ZM85 989Q111 1004 133 1010T177 1017Q205 1017 228 1008T274 989T317 969T363 960Q384 960 409 970T464 1007V899Q435
877 410 869T362 860Q335 860 312 869T267 889T222 909T176 918Q155 918 133 910T85 879V989Z" />
<glyph unicode="&#xc4;" glyph-name="Adieresis" horiz-adv-x="534" d="M-4 0L144 818H391L538 0H369L344 164H190L166 0H-4ZM217 343H317L267 673L217 343ZM101 939Q101 978 124 995T175 1012Q207 1012 225 991T244 939Q244 907 225 887T176 866Q164 866 151
870T127 882T108 905T101 939ZM290 940Q290 959 296 972T313 995T337 1008T363 1012Q395 1012 414 991T433 939Q433 907 414 887T365 866Q353 866 340 870T316 882T297 905T290 940Z" />
<glyph unicode="&#xc5;" glyph-name="Aring" horiz-adv-x="534" d="M-4 0L144 818H391L538 0H369L344 164H190L166 0H-4ZM217 343H317L267 673L217 343ZM267 897Q290 897 303 911T317 948Q317 971 304 984T267 998Q244 998 230 985T215 948Q215 925 229 911T267
897ZM267 849Q216 849 190 878T164 948Q164 988 190 1016T267 1044Q318 1044 343 1016T368 948Q368 908 343 879T267 849Z" />
<glyph unicode="&#xc6;" glyph-name="AE" horiz-adv-x="713" d="M697 -3Q669 -2 625 -2T531 -1T430 0T339 1Q340 24 340 67T341 164H194L157 0H-13L201 818H692V659H501V533H664V384H501V265H693Q694 242 695 218T696 164T697 94T697 -3ZM234 343H341Q341 428
341 512T340 665H308L234 343Z" />
<glyph unicode="&#xc7;" glyph-name="Ccedilla" horiz-adv-x="516" d="M387 830Q423 830 449 826T499 813Q499 796 499 777T500 736Q500 714 500 690T499 644Q461 668 408 668Q358 668 325 650T271 602T242 539T233 473Q233 431 246 394T282 330T337 286T406 270Q423
270 449 275T499 294Q499 259 499 221T500 147Q500 109 500 73T499 1Q443 -11 385 -11Q297 -11 228 18T110 101T36 233T10 407Q10 499 34 576T105 710T223 798T387 830ZM428 -54L368 -205H272L296 -55L428 -54Z" />
<glyph unicode="&#xc8;" glyph-name="Egrave" horiz-adv-x="415" d="M398 -3Q370 -2 324 -2T226 -1T121 0T28 0Q29 21 29 56T30 136T30 233T30 342Q30 418 30 494T29 635T29 749T28 817Q67 817 114 817T210 817T306 819T394 821Q394 808 394 799T395 772Q395 760
395 744T394 710T393 675T391 642H190V526H365V377H190V265H394Q395 242 396 218T397 164T398 94T398 -3ZM287 849H196L68 1040H214L287 849Z" />
<glyph unicode="&#xc9;" glyph-name="Eacute" horiz-adv-x="415" d="M398 -3Q370 -2 324 -2T226 -1T121 0T28 0Q29 21 29 56T30 136T30 233T30 342Q30 418 30 494T29 635T29 749T28 817Q67 817 114 817T210 817T306 819T394 821Q394 808 394 799T395 772Q395 760
395 744T394 710T393 675T391 642H190V526H365V377H190V265H394Q395 242 396 218T397 164T398 94T398 -3ZM234 1040H380L252 849H161L234 1040Z" />
<glyph unicode="&#xca;" glyph-name="Ecircumflex" horiz-adv-x="415" d="M398 -3Q370 -2 324 -2T226 -1T121 0T28 0Q29 21 29 56T30 136T30 233T30 342Q30 418 30 494T29 635T29 749T28 817Q67 817 114 817T210 817T306 819T394 821Q394 808 394 799T395 772Q395
760 395 744T394 710T393 675T391 642H190V526H365V377H190V265H394Q395 242 396 218T397 164T398 94T398 -3ZM224 1045L395 932L365 864L224 932L83 864L53 932L224 1045Z" />
<glyph unicode="&#xcb;" glyph-name="Edieresis" horiz-adv-x="415" d="M398 -3Q370 -2 324 -2T226 -1T121 0T28 0Q29 21 29 56T30 136T30 233T30 342Q30 418 30 494T29 635T29 749T28 817Q67 817 114 817T210 817T306 819T394 821Q394 808 394 799T395 772Q395
760 395 744T394 710T393 675T391 642H190V526H365V377H190V265H394Q395 242 396 218T397 164T398 94T398 -3ZM58 939Q58 978 81 995T132 1012Q164 1012 182 991T201 939Q201 907 182 887T133 866Q121 866 108 870T84 882T65 905T58 939ZM247 940Q247 959 253 972T270
995T294 1008T320 1012Q352 1012 371 991T390 939Q390 907 371 887T322 866Q310 866 297 870T273 882T254 905T247 940Z" />
<glyph unicode="&#xcc;" glyph-name="Igrave" horiz-adv-x="355" d="M99 283V445Q99 509 99 554T98 637H24Q23 660 22 682T21 727Q21 750 22 773T24 818H332Q333 795 333 773T333 727Q333 704 333 682T332 637H259Q257 570 257 505T256 360V283H332Q333 247 333
212T333 141Q333 106 333 71T332 0H24Q23 35 22 70T21 141Q21 177 22 212T24 283H99ZM242 849H151L23 1040H169L242 849Z" />
<glyph unicode="&#xcd;" glyph-name="Iacute" horiz-adv-x="355" d="M99 283V445Q99 509 99 554T98 637H24Q23 660 22 682T21 727Q21 750 22 773T24 818H332Q333 795 333 773T333 727Q333 704 333 682T332 637H259Q257 570 257 505T256 360V283H332Q333 247 333
212T333 141Q333 106 333 71T332 0H24Q23 35 22 70T21 141Q21 177 22 212T24 283H99ZM189 1040H335L207 849H116L189 1040Z" />
<glyph unicode="&#xce;" glyph-name="Icircumflex" horiz-adv-x="355" d="M99 283V445Q99 509 99 554T98 637H24Q23 660 22 682T21 727Q21 750 22 773T24 818H332Q333 795 333 773T333 727Q333 704 333 682T332 637H259Q257 570 257 505T256 360V283H332Q333 247
333 212T333 141Q333 106 333 71T332 0H24Q23 35 22 70T21 141Q21 177 22 212T24 283H99ZM179 1045L350 932L320 864L179 932L38 864L8 932L179 1045Z" />
<glyph unicode="&#xcf;" glyph-name="Idieresis" horiz-adv-x="355" d="M99 283V445Q99 509 99 554T98 637H24Q23 660 22 682T21 727Q21 750 22 773T24 818H332Q333 795 333 773T333 727Q333 704 333 682T332 637H259Q257 570 257 505T256 360V283H332Q333 247
333 212T333 141Q333 106 333 71T332 0H24Q23 35 22 70T21 141Q21 177 22 212T24 283H99ZM13 939Q13 978 36 995T87 1012Q119 1012 137 991T156 939Q156 907 137 887T88 866Q76 866 63 870T39 882T20 905T13 939ZM202 940Q202 959 208 972T225 995T249 1008T275
1012Q307 1012 326 991T345 939Q345 907 326 887T277 866Q265 866 252 870T228 882T209 905T202 940Z" />
<glyph unicode="&#xd0;" glyph-name="Eth" horiz-adv-x="652" d="M51 815Q108 823 160 826T249 830Q337 830 411 806T541 720Q592 662 617 580T642 402Q642 309 618 233T545 103T420 19T243 -11Q220 -11 169 -9T55 0Q56 46 56 90T57 178T58 270T58 371H7Q6 394
5 416T4 462Q4 485 5 508T7 553H57Q56 626 55 692T51 815ZM245 664Q235 664 226 663T209 661V553H279Q280 530 280 508T280 462Q280 439 280 417T279 371H209V265Q218 263 229 263T247 262Q284 262 315 278T370 321T407 386T420 465Q420 496 412 531T383 596T329
644T245 664Z" />
<glyph unicode="&#xd1;" glyph-name="Ntilde" horiz-adv-x="597" d="M426 818H569Q566 614 566 409Q566 204 569 0H376L164 489V0H27Q29 103 30 204T31 409Q31 512 30 613T27 818H229L426 330V818ZM118 989Q144 1004 166 1010T210 1017Q238 1017 261 1008T307
989T350 969T396 960Q417 960 442 970T497 1007V899Q468 877 443 869T395 860Q368 860 345 869T300 889T255 909T209 918Q188 918 166 910T118 879V989Z" />
<glyph unicode="&#xd2;" glyph-name="Ograve" horiz-adv-x="608" d="M304 830Q453 830 524 724T595 416Q595 211 526 100T304 -11Q229 -11 174 17T83 100T30 234T13 416Q13 621 84 725T304 830ZM304 247Q336 247 360 261T401 301T425 362T433 441Q433 484 425
520T401 584T361 626T304 641Q272 641 249 626T209 583T184 520T176 441Q176 398 184 363T208 302T248 262T304 247ZM367 849H276L148 1040H294L367 849Z" />
<glyph unicode="&#xd3;" glyph-name="Oacute" horiz-adv-x="608" d="M304 830Q453 830 524 724T595 416Q595 211 526 100T304 -11Q229 -11 174 17T83 100T30 234T13 416Q13 621 84 725T304 830ZM304 247Q336 247 360 261T401 301T425 362T433 441Q433 484 425
520T401 584T361 626T304 641Q272 641 249 626T209 583T184 520T176 441Q176 398 184 363T208 302T248 262T304 247ZM314 1040H460L332 849H241L314 1040Z" />
<glyph unicode="&#xd4;" glyph-name="Ocircumflex" horiz-adv-x="608" d="M304 830Q453 830 524 724T595 416Q595 211 526 100T304 -11Q229 -11 174 17T83 100T30 234T13 416Q13 621 84 725T304 830ZM304 247Q336 247 360 261T401 301T425 362T433 441Q433 484
425 520T401 584T361 626T304 641Q272 641 249 626T209 583T184 520T176 441Q176 398 184 363T208 302T248 262T304 247ZM304 1045L475 932L445 864L304 932L163 864L133 932L304 1045Z" />
<glyph unicode="&#xd5;" glyph-name="Otilde" horiz-adv-x="608" d="M304 830Q453 830 524 724T595 416Q595 211 526 100T304 -11Q229 -11 174 17T83 100T30 234T13 416Q13 621 84 725T304 830ZM304 247Q336 247 360 261T401 301T425 362T433 441Q433 484 425
520T401 584T361 626T304 641Q272 641 249 626T209 583T184 520T176 441Q176 398 184 363T208 302T248 262T304 247ZM122 989Q148 1004 170 1010T214 1017Q242 1017 265 1008T311 989T354 969T400 960Q421 960 446 970T501 1007V899Q472 877 447 869T399 860Q372
860 349 869T304 889T259 909T213 918Q192 918 170 910T122 879V989Z" />
<glyph unicode="&#xd6;" glyph-name="Odieresis" horiz-adv-x="608" d="M304 830Q453 830 524 724T595 416Q595 211 526 100T304 -11Q229 -11 174 17T83 100T30 234T13 416Q13 621 84 725T304 830ZM304 247Q336 247 360 261T401 301T425 362T433 441Q433 484 425
520T401 584T361 626T304 641Q272 641 249 626T209 583T184 520T176 441Q176 398 184 363T208 302T248 262T304 247ZM138 939Q138 978 161 995T212 1012Q244 1012 262 991T281 939Q281 907 262 887T213 866Q201 866 188 870T164 882T145 905T138 939ZM327 940Q327
959 333 972T350 995T374 1008T400 1012Q432 1012 451 991T470 939Q470 907 451 887T402 866Q390 866 377 870T353 882T334 905T327 940Z" />
<glyph unicode="&#xd7;" glyph-name="multiply" horiz-adv-x="468" d="M233 258L102 127L17 212L148 343L17 475L102 560L233 428L366 561L451 476L318 343L451 211L366 126L233 258Z" />
<glyph unicode="&#xd8;" glyph-name="Oslash" horiz-adv-x="617" d="M309 830Q369 830 416 813T498 761L536 818H632L547 692Q600 592 600 416Q600 211 531 100T309 -11Q249 -11 203 6T121 58L82 0H-14L72 128Q44 182 31 253T18 416Q18 621 89 725T309 830ZM181
441Q181 370 202 322L391 603Q359 641 309 641Q277 641 254 626T214 583T189 520T181 441ZM309 247Q341 247 365 261T406 301T430 362T438 441Q438 481 430 518L256 259Q280 247 309 247Z" />
<glyph unicode="&#xd9;" glyph-name="Ugrave" horiz-adv-x="597" d="M566 819Q568 673 572 567T576 385Q576 336 573 288T560 195T532 114T483 48T407 5T300 -11Q236 -11 191 5T114 50T65 116T36 199T23 290T20 384Q20 421 21 463T24 557T28 673T34 818H210Q207
728 205 666T202 561T200 495T199 457T198 439T198 430Q198 333 220 284T299 235Q357 235 377 288T398 449Q398 454 398 460T398 481T397 518T395 581T391 678T386 818L566 819ZM362 849H271L143 1040H289L362 849Z" />
<glyph unicode="&#xda;" glyph-name="Uacute" horiz-adv-x="597" d="M566 819Q568 673 572 567T576 385Q576 336 573 288T560 195T532 114T483 48T407 5T300 -11Q236 -11 191 5T114 50T65 116T36 199T23 290T20 384Q20 421 21 463T24 557T28 673T34 818H210Q207
728 205 666T202 561T200 495T199 457T198 439T198 430Q198 333 220 284T299 235Q357 235 377 288T398 449Q398 454 398 460T398 481T397 518T395 581T391 678T386 818L566 819ZM309 1040H455L327 849H236L309 1040Z" />
<glyph unicode="&#xdb;" glyph-name="Ucircumflex" horiz-adv-x="597" d="M566 819Q568 673 572 567T576 385Q576 336 573 288T560 195T532 114T483 48T407 5T300 -11Q236 -11 191 5T114 50T65 116T36 199T23 290T20 384Q20 421 21 463T24 557T28 673T34 818H210Q207
728 205 666T202 561T200 495T199 457T198 439T198 430Q198 333 220 284T299 235Q357 235 377 288T398 449Q398 454 398 460T398 481T397 518T395 581T391 678T386 818L566 819ZM299 1045L470 932L440 864L299 932L158 864L128 932L299 1045Z" />
<glyph unicode="&#xdc;" glyph-name="Udieresis" horiz-adv-x="597" d="M566 819Q568 673 572 567T576 385Q576 336 573 288T560 195T532 114T483 48T407 5T300 -11Q236 -11 191 5T114 50T65 116T36 199T23 290T20 384Q20 421 21 463T24 557T28 673T34 818H210Q207
728 205 666T202 561T200 495T199 457T198 439T198 430Q198 333 220 284T299 235Q357 235 377 288T398 449Q398 454 398 460T398 481T397 518T395 581T391 678T386 818L566 819ZM133 939Q133 978 156 995T207 1012Q239 1012 257 991T276 939Q276 907 257 887T208
866Q196 866 183 870T159 882T140 905T133 939ZM322 940Q322 959 328 972T345 995T369 1008T395 1012Q427 1012 446 991T465 939Q465 907 446 887T397 866Q385 866 372 870T348 882T329 905T322 940Z" />
<glyph unicode="&#xdd;" glyph-name="Yacute" horiz-adv-x="537" d="M382 818H547L352 300V255Q352 187 352 146T352 78T352 35T353 0H180Q182 65 183 136T185 300L-9 818H157L269 477L382 818ZM278 1040H424L296 849H205L278 1040Z" />
<glyph unicode="&#xde;" glyph-name="Thorn" horiz-adv-x="562" d="M186 307Q204 302 221 301T250 299Q269 299 286 303T317 319T337 349T345 397Q345 427 337 446T314 476T282 491T243 495Q229 495 215 494T186 490V307ZM197 818Q195 801 194 781T192 741T191
705T190 681Q259 681 324 673T441 636T523 552T554 400Q554 317 524 265T444 184T327 145T190 135Q190 112 190 100T190 81T191 69T192 57T194 36T197 0H28Q28 109 28 177T30 290T31 363T32 423Q32 453 32 483T32 557T30 663T28 818H197Z" />
<glyph unicode="&#xdf;" glyph-name="germandbls" horiz-adv-x="563" d="M480 660Q480 617 468 592T442 547T415 511T403 467Q403 442 415 426T445 396T483 368T522 332T552 280T564 202Q564 155 551 116T515 49T458 5T383 -11Q368 -11 351 -9T316 -4T283 3T256
13Q242 66 242 145Q242 185 245 223T255 293Q279 278 302 270T345 261Q365 261 376 271T387 297Q387 318 370 331T333 360T296 395T279 449Q279 477 291 500T317 545T344 589T356 637Q356 669 337 686T282 704Q235 704 216 666T196 538V-80H60V320H14V530H59V586Q59
709 116 775T282 841Q376 841 428 793T480 660Z" />
<glyph unicode="&#xe0;" glyph-name="agrave" horiz-adv-x="537" d="M509 0H372V49Q336 20 296 5T218 -11Q173 -11 135 11T70 72T26 167T10 287Q10 355 27 414T73 516T143 584T231 609Q272 609 309 592T372 548V598H514L509 0ZM201 361Q201 320 223 295T281 270Q319
270 345 297T372 366Q372 385 366 402T347 431T319 451T285 458Q249 458 225 431T201 361ZM359 650H268L140 841H286L359 650Z" />
<glyph unicode="&#xe1;" glyph-name="aacute" horiz-adv-x="537" d="M509 0H372V49Q336 20 296 5T218 -11Q173 -11 135 11T70 72T26 167T10 287Q10 355 27 414T73 516T143 584T231 609Q272 609 309 592T372 548V598H514L509 0ZM201 361Q201 320 223 295T281 270Q319
270 345 297T372 366Q372 385 366 402T347 431T319 451T285 458Q249 458 225 431T201 361ZM306 841H452L324 650H233L306 841Z" />
<glyph unicode="&#xe2;" glyph-name="acircumflex" horiz-adv-x="537" d="M509 0H372V49Q336 20 296 5T218 -11Q173 -11 135 11T70 72T26 167T10 287Q10 355 27 414T73 516T143 584T231 609Q272 609 309 592T372 548V598H514L509 0ZM201 361Q201 320 223 295T281
270Q319 270 345 297T372 366Q372 385 366 402T347 431T319 451T285 458Q249 458 225 431T201 361ZM296 846L467 733L437 665L296 733L155 665L125 733L296 846Z" />
<glyph unicode="&#xe3;" glyph-name="atilde" horiz-adv-x="537" d="M509 0H372V49Q336 20 296 5T218 -11Q173 -11 135 11T70 72T26 167T10 287Q10 355 27 414T73 516T143 584T231 609Q272 609 309 592T372 548V598H514L509 0ZM201 361Q201 320 223 295T281 270Q319
270 345 297T372 366Q372 385 366 402T347 431T319 451T285 458Q249 458 225 431T201 361ZM114 790Q140 805 162 811T206 818Q234 818 257 809T303 790T346 770T392 761Q413 761 438 771T493 808V700Q464 678 439 670T391 661Q364 661 341 670T296 690T251 710T205
719Q184 719 162 711T114 680V790Z" />
<glyph unicode="&#xe4;" glyph-name="adieresis" horiz-adv-x="537" d="M509 0H372V49Q336 20 296 5T218 -11Q173 -11 135 11T70 72T26 167T10 287Q10 355 27 414T73 516T143 584T231 609Q272 609 309 592T372 548V598H514L509 0ZM201 361Q201 320 223 295T281
270Q319 270 345 297T372 366Q372 385 366 402T347 431T319 451T285 458Q249 458 225 431T201 361ZM130 740Q130 779 153 796T204 813Q236 813 254 792T273 740Q273 708 254 688T205 667Q193 667 180 671T156 683T137 706T130 740ZM319 741Q319 760 325 773T342
796T366 809T392 813Q424 813 443 792T462 740Q462 708 443 688T394 667Q382 667 369 671T345 683T326 706T319 741Z" />
<glyph unicode="&#xe5;" glyph-name="aring" horiz-adv-x="537" d="M509 0H372V49Q336 20 296 5T218 -11Q173 -11 135 11T70 72T26 167T10 287Q10 355 27 414T73 516T143 584T231 609Q272 609 309 592T372 548V598H514L509 0ZM201 361Q201 320 223 295T281 270Q319
270 345 297T372 366Q372 385 366 402T347 431T319 451T285 458Q249 458 225 431T201 361ZM296 698Q319 698 332 712T346 749Q346 772 333 785T296 799Q273 799 259 786T244 749Q244 726 258 712T296 698ZM296 650Q245 650 219 679T193 749Q193 789 219 817T296
845Q347 845 372 817T397 749Q397 709 372 680T296 650Z" />
<glyph unicode="&#xe6;" glyph-name="ae" horiz-adv-x="776" d="M363 68Q333 32 284 11T178 -11Q95 -11 50 37T4 176Q4 223 18 257T64 314T147 352T273 375Q273 417 252 434T198 451Q168 451 132 440T62 413L19 562Q37 572 60 581T109 596T161 605T213 609Q277
609 317 587T379 525H383Q400 562 444 585T548 609Q599 609 639 591T707 539T750 457T765 348Q765 336 765 329T764 315H484Q497 268 529 243T608 218Q636 218 674 226T743 248Q745 224 745 193T746 130Q746 69 743 27Q665 -11 574 -11Q508 -11 455 9T367 68H363ZM541
501Q515 501 498 480T476 422H607Q603 457 585 479T541 501ZM273 289Q225 289 197 272T168 222Q168 199 181 185T215 170Q230 170 249 178T282 201L273 289Z" />
<glyph unicode="&#xe7;" glyph-name="ccedilla" horiz-adv-x="430" d="M301 609Q360 609 408 592Q408 575 408 556T409 516Q409 495 409 474T408 435Q375 463 327 463Q297 463 277 454T245 429T227 397T222 363Q222 341 230 322T252 287T284 264T324 255Q344 255
366 263T408 285Q408 252 408 217T409 145Q409 110 409 74T408 1Q352 -11 297 -11Q229 -11 176 10T86 72T30 169T10 298Q10 365 28 422T82 521T173 585T301 609ZM352 -54L292 -205H196L220 -55L352 -54Z" />
<glyph unicode="&#xe8;" glyph-name="egrave" horiz-adv-x="522" d="M230 315Q243 272 273 245T356 218Q372 218 390 220T427 227T461 237T489 248Q491 219 491 187T492 122Q492 69 489 27Q411 -11 314 -11Q269 -11 223 -1T134 37Q96 62 72 95T33 164T14 234T9
295Q9 335 18 378T48 461T99 534T172 586Q223 609 280 609Q340 609 388 585T466 519Q495 479 502 430T510 315H230ZM287 501Q266 501 247 484T222 422H353Q349 462 330 481T287 501ZM343 650H252L124 841H270L343 650Z" />
<glyph unicode="&#xe9;" glyph-name="eacute" horiz-adv-x="522" d="M230 315Q243 272 273 245T356 218Q372 218 390 220T427 227T461 237T489 248Q491 219 491 187T492 122Q492 69 489 27Q411 -11 314 -11Q269 -11 223 -1T134 37Q96 62 72 95T33 164T14 234T9
295Q9 335 18 378T48 461T99 534T172 586Q223 609 280 609Q340 609 388 585T466 519Q495 479 502 430T510 315H230ZM287 501Q266 501 247 484T222 422H353Q349 462 330 481T287 501ZM290 841H436L308 650H217L290 841Z" />
<glyph unicode="&#xea;" glyph-name="ecircumflex" horiz-adv-x="522" d="M230 315Q243 272 273 245T356 218Q372 218 390 220T427 227T461 237T489 248Q491 219 491 187T492 122Q492 69 489 27Q411 -11 314 -11Q269 -11 223 -1T134 37Q96 62 72 95T33 164T14
234T9 295Q9 335 18 378T48 461T99 534T172 586Q223 609 280 609Q340 609 388 585T466 519Q495 479 502 430T510 315H230ZM287 501Q266 501 247 484T222 422H353Q349 462 330 481T287 501ZM280 846L451 733L421 665L280 733L139 665L109 733L280 846Z" />
<glyph unicode="&#xeb;" glyph-name="edieresis" horiz-adv-x="522" d="M230 315Q243 272 273 245T356 218Q372 218 390 220T427 227T461 237T489 248Q491 219 491 187T492 122Q492 69 489 27Q411 -11 314 -11Q269 -11 223 -1T134 37Q96 62 72 95T33 164T14 234T9
295Q9 335 18 378T48 461T99 534T172 586Q223 609 280 609Q340 609 388 585T466 519Q495 479 502 430T510 315H230ZM287 501Q266 501 247 484T222 422H353Q349 462 330 481T287 501ZM114 740Q114 779 137 796T188 813Q220 813 238 792T257 740Q257 708 238 688T189
667Q177 667 164 671T140 683T121 706T114 740ZM303 741Q303 760 309 773T326 796T350 809T376 813Q408 813 427 792T446 740Q446 708 427 688T378 667Q366 667 353 671T329 683T310 706T303 741Z" />
<glyph unicode="&#xec;" glyph-name="igrave" horiz-adv-x="199" d="M26 582H173V0H26V582ZM155 650H64L-64 841H82L155 650Z" />
<glyph unicode="&#xed;" glyph-name="iacute" horiz-adv-x="199" d="M26 582H173V0H26V582ZM112 841H258L130 650H39L112 841Z" />
<glyph unicode="&#xee;" glyph-name="icircumflex" horiz-adv-x="199" d="M102 846L253 733L223 665L102 733L-19 665L-49 733L102 846ZM26 582H173V0H26V582Z" />
<glyph unicode="&#xef;" glyph-name="idieresis" horiz-adv-x="199" d="M-54 740Q-54 779 -34 796T10 813Q42 813 60 792T79 740Q79 708 60 688T11 667Q0 667 -11 671T-32 683T-48 706T-54 740ZM125 741Q125 779 145 796T188 813Q220 813 239 792T258 740Q258
708 239 688T190 667Q179 667 168 671T147 683T131 706T125 741ZM26 582H173V0H26V582Z" />
<glyph unicode="&#xf0;" glyph-name="eth" horiz-adv-x="532" d="M187 703Q149 745 110 776T39 818H253Q294 793 336 748L490 794V724L383 692Q413 650 438 601T482 501T511 398T521 298Q521 232 502 177T449 83T367 22T261 0Q205 0 159 20T80 75T29 159T11 266Q11
321 27 368T72 449T142 503T231 522Q268 522 310 510Q299 542 279 577T233 647L91 605V675L187 703ZM270 369Q231 369 208 343T185 275Q185 231 209 204T272 177Q310 177 333 203T356 274Q356 318 333 343T270 369Z" />
<glyph unicode="&#xf1;" glyph-name="ntilde" horiz-adv-x="457" d="M170 598V544Q194 574 228 591T299 609Q343 609 377 585T422 528Q427 513 430 487T434 427V0H287V290Q287 335 271 350T232 366Q203 366 187 348T170 300V0H25Q25 33 25 69T26 142T26 215T26
283Q26 302 26 340T26 423T25 515T25 598H170ZM46 790Q72 805 94 811T138 818Q166 818 189 809T235 790T278 770T324 761Q345 761 370 771T425 808V700Q396 678 371 670T323 661Q296 661 273 670T228 690T183 710T137 719Q116 719 94 711T46 680V790Z" />
<glyph unicode="&#xf2;" glyph-name="ograve" horiz-adv-x="479" d="M240 609Q362 609 414 529T467 299Q467 148 415 69T240 -11Q117 -11 65 68T12 299Q12 449 64 529T240 609ZM240 224Q260 224 275 232T301 253T316 282T321 317Q321 335 316 352T301 382T276
403T240 411Q199 411 179 382T158 317Q158 299 163 283T178 253T204 232T240 224ZM303 650H212L84 841H230L303 650Z" />
<glyph unicode="&#xf3;" glyph-name="oacute" horiz-adv-x="479" d="M240 609Q362 609 414 529T467 299Q467 148 415 69T240 -11Q117 -11 65 68T12 299Q12 449 64 529T240 609ZM240 224Q260 224 275 232T301 253T316 282T321 317Q321 335 316 352T301 382T276
403T240 411Q199 411 179 382T158 317Q158 299 163 283T178 253T204 232T240 224ZM250 841H396L268 650H177L250 841Z" />
<glyph unicode="&#xf4;" glyph-name="ocircumflex" horiz-adv-x="479" d="M240 609Q362 609 414 529T467 299Q467 148 415 69T240 -11Q117 -11 65 68T12 299Q12 449 64 529T240 609ZM240 224Q260 224 275 232T301 253T316 282T321 317Q321 335 316 352T301 382T276
403T240 411Q199 411 179 382T158 317Q158 299 163 283T178 253T204 232T240 224ZM240 846L411 733L381 665L240 733L99 665L69 733L240 846Z" />
<glyph unicode="&#xf5;" glyph-name="otilde" horiz-adv-x="479" d="M240 609Q362 609 414 529T467 299Q467 148 415 69T240 -11Q117 -11 65 68T12 299Q12 449 64 529T240 609ZM240 224Q260 224 275 232T301 253T316 282T321 317Q321 335 316 352T301 382T276
403T240 411Q199 411 179 382T158 317Q158 299 163 283T178 253T204 232T240 224ZM58 790Q84 805 106 811T150 818Q178 818 201 809T247 790T290 770T336 761Q357 761 382 771T437 808V700Q408 678 383 670T335 661Q308 661 285 670T240 690T195 710T149 719Q128
719 106 711T58 680V790Z" />
<glyph unicode="&#xf6;" glyph-name="odieresis" horiz-adv-x="479" d="M240 609Q362 609 414 529T467 299Q467 148 415 69T240 -11Q117 -11 65 68T12 299Q12 449 64 529T240 609ZM240 224Q260 224 275 232T301 253T316 282T321 317Q321 335 316 352T301 382T276
403T240 411Q199 411 179 382T158 317Q158 299 163 283T178 253T204 232T240 224ZM74 740Q74 779 97 796T148 813Q180 813 198 792T217 740Q217 708 198 688T149 667Q137 667 124 671T100 683T81 706T74 740ZM263 741Q263 760 269 773T286 796T310 809T336 813Q368
813 387 792T406 740Q406 708 387 688T338 667Q326 667 313 671T289 683T270 706T263 741Z" />
<glyph unicode="&#xf7;" glyph-name="divide" horiz-adv-x="487" d="M244 630Q264 630 279 622T306 602T322 575T328 546Q328 528 321 512T303 484T276 465T243 458Q199 458 179 483T158 539Q158 555 163 571T180 601T207 622T244 630ZM244 228Q264 228 279 220T306
200T322 173T328 144Q328 126 321 110T303 82T276 63T243 56Q199 56 179 81T158 137Q158 153 163 169T180 199T207 220T244 228ZM470 393V294H17V393H470Z" />
<glyph unicode="&#xf8;" glyph-name="oslash" horiz-adv-x="497" d="M251 609Q355 609 411 547L450 598H512L440 504Q478 429 478 299Q478 148 426 69T251 -11Q145 -11 90 50L51 0H-11L61 93Q23 168 23 299Q23 449 75 529T251 609ZM169 317Q169 300 173 285T187
256L295 397Q276 411 251 411Q210 411 190 382T169 317ZM251 224Q271 224 286 232T312 253T327 282T332 317Q332 338 325 356L226 227Q238 224 251 224Z" />
<glyph unicode="&#xf9;" glyph-name="ugrave" horiz-adv-x="459" d="M288 0V53Q264 24 230 7T161 -11Q139 -11 119 -5T81 13T52 39T33 73Q29 87 27 113T24 170V598H171V298Q171 268 185 251T223 233Q235 233 247 238T269 251T285 270T291 293V598H438Q437 565
436 529T434 456T433 383T432 315Q432 296 432 258T432 175T433 83T433 0H288ZM294 650H203L75 841H221L294 650Z" />
<glyph unicode="&#xfa;" glyph-name="uacute" horiz-adv-x="459" d="M288 0V53Q264 24 230 7T161 -11Q139 -11 119 -5T81 13T52 39T33 73Q29 87 27 113T24 170V598H171V298Q171 268 185 251T223 233Q235 233 247 238T269 251T285 270T291 293V598H438Q437 565
436 529T434 456T433 383T432 315Q432 296 432 258T432 175T433 83T433 0H288ZM241 841H387L259 650H168L241 841Z" />
<glyph unicode="&#xfb;" glyph-name="ucircumflex" horiz-adv-x="459" d="M288 0V53Q264 24 230 7T161 -11Q139 -11 119 -5T81 13T52 39T33 73Q29 87 27 113T24 170V598H171V298Q171 268 185 251T223 233Q235 233 247 238T269 251T285 270T291 293V598H438Q437
565 436 529T434 456T433 383T432 315Q432 296 432 258T432 175T433 83T433 0H288ZM231 846L402 733L372 665L231 733L90 665L60 733L231 846Z" />
<glyph unicode="&#xfc;" glyph-name="udieresis" horiz-adv-x="459" d="M288 0V53Q264 24 230 7T161 -11Q139 -11 119 -5T81 13T52 39T33 73Q29 87 27 113T24 170V598H171V298Q171 268 185 251T223 233Q235 233 247 238T269 251T285 270T291 293V598H438Q437 565
436 529T434 456T433 383T432 315Q432 296 432 258T432 175T433 83T433 0H288ZM65 740Q65 779 88 796T139 813Q171 813 189 792T208 740Q208 708 189 688T140 667Q128 667 115 671T91 683T72 706T65 740ZM254 741Q254 760 260 773T277 796T301 809T327 813Q359
813 378 792T397 740Q397 708 378 688T329 667Q317 667 304 671T280 683T261 706T254 741Z" />
<glyph unicode="&#xfd;" glyph-name="yacute" horiz-adv-x="452" d="M458 598L252 -181H101L148 17L-6 598H152L207 307Q212 284 215 272T227 260Q240 260 249 307L306 598H458ZM237 841H383L255 650H164L237 841Z" />
<glyph unicode="&#xfe;" glyph-name="thorn" horiz-adv-x="538" d="M29 841H166V548Q202 576 241 592T320 609Q365 609 403 587T468 524T512 429T528 308Q528 240 511 182T464 80T394 13T306 -11Q266 -11 230 6T166 49V-181H24L29 841ZM166 361Q166 320 188 295T246
270Q284 270 310 297T337 366Q337 385 331 402T312 431T285 451T251 458Q214 458 190 431T166 361Z" />
<glyph unicode="&#xff;" glyph-name="ydieresis" horiz-adv-x="452" d="M458 598L252 -181H101L148 17L-6 598H152L207 307Q212 284 215 272T227 260Q240 260 249 307L306 598H458ZM61 740Q61 779 84 796T135 813Q167 813 185 792T204 740Q204 708 185 688T136
667Q124 667 111 671T87 683T68 706T61 740ZM250 741Q250 760 256 773T273 796T297 809T323 813Q355 813 374 792T393 740Q393 708 374 688T325 667Q313 667 300 671T276 683T257 706T250 741Z" />
<glyph unicode="&#x2013;" glyph-name="endash" horiz-adv-x="464" d="M436 422Q436 401 437 381T438 341Q438 321 437 302T436 262H27Q25 282 25 302T25 342Q25 362 25 382T27 422H436Z" />
<glyph unicode="&#x2014;" glyph-name="emdash" horiz-adv-x="646" d="M618 422Q618 401 618 381T619 341Q619 321 619 302T618 262H27Q25 282 25 302T25 342Q25 362 25 382T27 422H618Z" />
<glyph unicode="&#x2018;" glyph-name="quoteleft" horiz-adv-x="214" d="M204 626Q205 618 205 613T205 599Q205 557 180 531T112 505Q63 505 36 539T9 627Q9 660 19 692T47 752T93 803T153 841L195 803Q167 783 152 757T136 705Q136 677 153 656T204 626Z" />
<glyph unicode="&#x2019;" glyph-name="quoteright" horiz-adv-x="215" d="M12 719Q11 727 11 733T11 747Q11 788 36 814T104 841Q153 841 180 807T207 718Q207 685 197 653T169 593T123 542T63 505L21 542Q49 562 64 588T80 641Q80 668 63 689T12 719Z" />
<glyph unicode="&#x201a;" glyph-name="quotesinglbase" horiz-adv-x="228" d="M3 113Q14 155 44 179T114 204Q160 204 187 175T215 97Q215 65 202 30T165 -42T109 -112T39 -174L-18 -118Q21 -83 40 -48T60 19Q60 70 3 113Z" />
<glyph unicode="&#x201c;" glyph-name="quotedblleft" horiz-adv-x="456" d="M204 625Q205 617 205 612T205 598Q205 556 180 530T112 504Q63 504 36 538T9 626Q9 659 19 691T47 751T93 802T153 840L195 802Q167 782 152 756T136 704Q136 676 153 655T204 625ZM446
625Q447 617 447 612T447 598Q447 556 422 530T354 504Q305 504 278 538T251 626Q251 659 261 691T289 751T335 802T395 840L437 802Q409 782 394 756T378 704Q378 676 395 655T446 625Z" />
<glyph unicode="&#x201d;" glyph-name="quotedblright" horiz-adv-x="457" d="M12 718Q11 726 11 732T11 746Q11 787 36 813T104 840Q153 840 180 806T207 717Q207 684 197 652T169 592T123 541T63 504L21 541Q49 561 64 587T80 640Q80 667 63 688T12 718ZM254
718Q253 726 253 732T253 746Q253 787 278 813T346 840Q395 840 422 806T449 717Q449 684 439 652T411 592T365 541T305 504L263 541Q291 561 306 587T322 640Q322 667 305 688T254 718Z" />
<glyph unicode="&#x201e;" glyph-name="quotedblbase" horiz-adv-x="463" d="M12 58Q11 66 11 72T11 86Q11 127 36 153T104 180Q153 180 180 146T207 57Q207 24 197 -8T169 -68T123 -119T63 -156L21 -119Q49 -99 64 -73T80 -20Q80 7 63 28T12 58ZM254 58Q253 66
253 72T253 86Q253 127 278 153T346 180Q395 180 422 146T449 57Q449 24 439 -8T411 -68T365 -119T305 -156L263 -119Q291 -99 306 -73T322 -20Q322 7 305 28T254 58Z" />
<glyph unicode="&#x2022;" glyph-name="bullet" horiz-adv-x="389" d="M37 400Q37 440 51 471T89 523T141 555T199 566Q233 566 261 552T309 514T341 461T352 399Q352 366 340 338T307 290T259 259T200 248Q175 248 147 255T94 281T53 328T37 400Z" />
<glyph unicode="&#x2039;" glyph-name="guilsinglleft" horiz-adv-x="453" d="M199 299L435 57L316 -13L10 299L316 610L435 541L199 299Z" />
<glyph unicode="&#x203a;" glyph-name="guilsinglright" horiz-adv-x="453" d="M18 541L138 610L443 299L138 -13L18 57L255 299L18 541Z" />
</font>
</defs>
</svg>
