<?xml version="1.0" standalone="no"?>
<!DOCTYPE svg PUBLIC "-//W3C//DTD SVG 1.1//EN" "http://www.w3.org/Graphics/SVG/1.1/DTD/svg11.dtd">
<svg xmlns="http://www.w3.org/2000/svg">
<defs >
<font id="Arimo" horiz-adv-x="1169" ><font-face
    font-family="Arimo"
    units-per-em="2048"
    panose-1="2 11 6 4 2 2 2 9 2 4"
    ascent="1854"
    descent="-434"
    alphabetic="0" />
<glyph unicode=" " glyph-name="space" horiz-adv-x="569" />
<glyph unicode="!" glyph-name="exclam" horiz-adv-x="569" d="M329 397H181L353 1409H549L329 397ZM77 0L117 201H311L271 0H77Z" />
<glyph unicode="&quot;" glyph-name="quotedbl" horiz-adv-x="727" d="M697 966H555L619 1409H803L697 966ZM328 966H187L250 1409H434L328 966Z" />
<glyph unicode="#" glyph-name="numbersign" horiz-adv-x="1139" d="M926 885L848 516H1108V408H825L737 0H627L713 408H350L266 0H156L240 408H39V516H264L342 885H90V993H364L453 1401H563L475 993H838L926 1401H1036L948 993H1159V885H926ZM455 885L375 516H737L815
885H455Z" />
<glyph unicode="$" glyph-name="dollar" horiz-adv-x="1139" d="M1072 425Q1072 240 935 135T540 21L509 -140H395L427 23Q226 37 121 127T-12 376L151 413Q176 298 248 239T455 170L551 663Q402 704 330 749T219 859T181 1018Q181 1130 246 1212T427 1339T691
1385L716 1516H830L803 1379Q959 1360 1051 1285T1170 1087L1014 1042Q969 1209 776 1236L690 795Q886 742 979 650T1072 425ZM887 413Q887 491 837 541T659 632L569 169Q887 186 887 413ZM363 1018Q363 951 408 908T582 825L663 1240Q518 1235 441 1178T363 1018Z"
/>
<glyph unicode="%" glyph-name="percent" horiz-adv-x="1821" d="M425 0H260L1446 1409H1613L425 0ZM545 1421Q670 1421 737 1342T804 1113Q804 1007 777 892T695 693T568 567T406 524Q282 524 214 606T146 841Q146 988 192 1130T327 1347T545 1421ZM544 1313Q477
1313 434 1282T359 1185T306 1011T284 827Q284 637 410 637Q495 637 550 704T635 903T665 1131Q665 1313 544 1313ZM1474 885Q1599 885 1666 806T1733 577Q1733 471 1706 356T1624 157T1497 31T1335 -12Q1211 -12 1143 70T1075 305Q1075 452 1121 594T1256 811T1474
885ZM1473 777Q1406 777 1363 746T1288 649T1235 475T1213 291Q1213 101 1339 101Q1424 101 1479 168T1564 367T1594 595Q1594 777 1473 777Z" />
<glyph unicode="&amp;" glyph-name="ampersand" horiz-adv-x="1366" d="M1248 684Q1109 369 957 208Q997 170 1047 150T1144 129Q1204 129 1256 145L1243 10Q1183 -12 1118 -12Q969 -12 847 110Q669 -20 440 -20Q251 -20 142 80T33 351Q33 508 126 610T462 806Q434
925 434 1036Q434 1209 542 1313T833 1417Q971 1417 1057 1345T1144 1155Q1144 1039 1063 953T771 784L646 734Q722 510 864 315Q924 383 981 477T1116 739L1248 684ZM452 111Q615 111 753 212Q680 302 613 424T502 675Q334 609 269 537T203 354Q203 243 271 177T452
111ZM592 1041Q592 963 611 863Q690 892 759 918T879 976T960 1049T990 1148Q990 1213 945 1254T826 1296Q714 1296 653 1229T592 1041Z" />
<glyph unicode="&apos;" glyph-name="quotesingle" horiz-adv-x="391" d="M343 966H202L265 1409H449L343 966Z" />
<glyph unicode="(" glyph-name="parenleft" horiz-adv-x="682" d="M855 1484Q277 975 277 262Q277 -127 484 -424H310Q96 -128 96 278Q96 650 246 957T681 1484H855Z" />
<glyph unicode=")" glyph-name="parenright" horiz-adv-x="682" d="M-199 -424Q379 85 379 798Q379 1187 172 1484H346Q560 1188 560 782Q560 410 410 103T-25 -424H-199Z" />
<glyph unicode="*" glyph-name="asterisk" horiz-adv-x="797" d="M543 1114L807 1217L852 1085L570 1012L755 762L636 690L486 948L330 692L211 764L400 1012L120 1085L165 1219L432 1112L420 1409H556L543 1114Z" />
<glyph unicode="+" glyph-name="plus" horiz-adv-x="1196" d="M701 608V180H554V608H130V754H554V1182H701V754H1125V608H701Z" />
<glyph unicode="," glyph-name="comma" horiz-adv-x="569" d="M160 -262H37Q157 -125 182 0H94L136 219H331L299 51Q281 -44 248 -119T160 -262Z" />
<glyph unicode="-" glyph-name="hyphen" horiz-adv-x="682" d="M105 464L136 624H636L605 464H105Z" />
<glyph unicode="." glyph-name="period" horiz-adv-x="569" d="M80 0L123 219H318L275 0H80Z" />
<glyph unicode="/" glyph-name="slash" horiz-adv-x="569" d="M-116 -20L587 1484H745L45 -20H-116Z" />
<glyph unicode="0" glyph-name="zero" horiz-adv-x="1139" d="M732 1430Q915 1430 1018 1307T1122 964Q1122 708 1044 469T823 105T476 -20Q295 -20 192 109T89 465Q89 645 133 831T257 1153T454 1359T732 1430ZM491 127Q642 127 737 233T890 562T947 973Q947
1128 888 1206T720 1284Q569 1284 474 1178T321 849T264 438Q264 283 323 205T491 127Z" />
<glyph unicode="1" glyph-name="one" horiz-adv-x="1139" d="M53 0L83 153H442L650 1223L289 1000L324 1180L701 1409H867L623 153H966L936 0H53Z" />
<glyph unicode="2" glyph-name="two" horiz-adv-x="1139" d="M-12 0L12 127Q67 220 135 293T277 425T427 534T575 628T709 719T819 815T893 926T920 1063Q920 1161 858 1221T689 1282Q580 1282 499 1223T381 1044L211 1081Q265 1251 389 1340T700 1430Q882 1430
995 1332T1109 1078Q1109 972 1058 875T905 689T596 470Q449 377 359 301T222 153H949L920 0H-12Z" />
<glyph unicode="3" glyph-name="three" horiz-adv-x="1139" d="M566 795Q749 795 839 868T930 1081Q930 1174 870 1228T708 1282Q589 1282 504 1221T384 1049L206 1063Q264 1249 397 1339T718 1430Q905 1430 1013 1338T1121 1086Q1121 933 1025 837T753 717L752
713Q883 687 956 609T1029 407Q1029 282 969 185T794 34T526 -20Q398 -20 300 24T138 148T48 338L212 386Q242 270 330 200T541 129Q682 129 761 203T841 404Q841 516 766 577T562 639H438L468 795H566Z" />
<glyph unicode="4" glyph-name="four" horiz-adv-x="1139" d="M846 319L784 0H604L666 319H13L40 459L859 1409H1058L874 461H1062L1034 319H846ZM826 1157L227 461H694L826 1157Z" />
<glyph unicode="5" glyph-name="five" horiz-adv-x="1139" d="M343 1409H1144L1115 1256H478L364 809Q414 851 486 875T641 899Q825 899 938 793T1051 506Q1051 260 907 120T505 -20Q134 -20 46 309L209 352Q240 238 319 183T515 127Q681 127 771 220T861 486Q861
608 792 680T607 752Q444 752 325 651H149L343 1409Z" />
<glyph unicode="6" glyph-name="six" horiz-adv-x="1139" d="M534 -20Q341 -20 228 114T115 464Q115 705 198 940T427 1303T761 1430Q911 1430 1007 1359T1139 1151L973 1115Q948 1196 891 1240T753 1284Q589 1284 474 1138T307 726Q367 816 458 863T663 911Q835
911 941 806T1047 533Q1047 381 981 253T797 52T534 -20ZM288 421Q288 290 356 208T538 125Q677 125 769 237T861 522Q861 637 802 704T630 772Q537 772 459 730T334 609T288 421Z" />
<glyph unicode="7" glyph-name="seven" horiz-adv-x="1139" d="M435 0H247Q288 204 371 388T579 753T986 1256H212L241 1409H1202L1174 1263Q951 1001 866 891T713 677T592 467T500 244T435 0Z" />
<glyph unicode="8" glyph-name="eight" horiz-adv-x="1139" d="M704 1429Q895 1429 1011 1338T1127 1091Q1127 951 1041 853T807 733L806 729Q916 696 974 619T1033 432Q1033 224 891 102T500 -20Q287 -20 171 81T54 360Q54 510 145 613T411 756V760Q320 798 270
873T220 1052Q220 1229 350 1329T704 1429ZM658 811Q792 811 866 882T941 1087Q941 1185 876 1239T683 1294Q550 1294 475 1227T400 1033Q400 930 468 871T658 811ZM566 672Q410 672 325 589T239 356Q239 244 313 181T519 117Q667 117 758 203T850 436Q850 547
774 609T566 672Z" />
<glyph unicode="9" glyph-name="nine" horiz-adv-x="1139" d="M898 684Q764 481 559 481Q441 481 351 532T212 676T163 881Q163 1033 229 1159T414 1358T682 1430Q878 1430 987 1303T1097 957Q1097 802 1060 634T959 340T816 135T643 17T453 -20Q145 -20 70 257L228
302Q252 217 311 171T461 125Q619 125 730 269T898 684ZM925 1017Q925 1138 856 1211T678 1284Q530 1284 438 1176T346 879Q346 757 409 690T580 623Q674 623 756 674T882 810T925 1017Z" />
<glyph unicode=":" glyph-name="colon" horiz-adv-x="569" d="M251 875L292 1082H487L446 875H251ZM81 0L122 207H317L276 0H81Z" />
<glyph unicode=";" glyph-name="semicolon" horiz-adv-x="569" d="M161 -262H38Q158 -125 183 0H95L135 207H330L300 51Q282 -44 249 -119T161 -262ZM265 875L305 1082H500L460 875H265Z" />
<glyph unicode="&lt;" glyph-name="less" horiz-adv-x="1196" d="M131 571V776L1126 1194V1040L268 674L1126 307V154L131 571Z" />
<glyph unicode="=" glyph-name="equal" horiz-adv-x="1196" d="M130 856V1004H1125V856H130ZM130 344V492H1125V344H130Z" />
<glyph unicode="&gt;" glyph-name="greater" horiz-adv-x="1196" d="M131 154V307L989 674L131 1040V1194L1126 776V571L131 154Z" />
<glyph unicode="?" glyph-name="question" horiz-adv-x="1139" d="M701 1430Q898 1430 1015 1330T1133 1073Q1133 976 1103 908T1024 789T915 701T794 629Q667 557 618 501T555 377H380Q393 457 428 516T515 623T702 746Q808 806 854 847T923 939T946 1052Q946
1150 873 1210T684 1270Q544 1270 453 1200T324 1008L159 1048Q222 1243 358 1336T701 1430ZM299 0L338 201H533L494 0H299Z" />
<glyph unicode="@" glyph-name="at" horiz-adv-x="2079" d="M1935 755Q1935 569 1878 419T1718 186T1488 104Q1387 104 1334 149T1281 280L1284 350H1278Q1212 227 1115 166T904 104Q747 104 661 206T574 489Q574 653 638 794T819 1018T1076 1101Q1295 1101 1377
919H1383L1422 1079H1578L1462 573Q1425 409 1425 320Q1425 226 1506 226Q1586 226 1653 295T1760 485T1799 753Q1799 932 1722 1070T1500 1283T1161 1358Q919 1358 733 1251T441 943T335 491Q335 298 413 151T640 -76T987 -155Q1300 -155 1590 7L1645 -105Q1500
-192 1331 -237T987 -283Q747 -283 568 -188T291 84T194 491Q194 771 318 1000T664 1356T1159 1484Q1400 1484 1575 1394T1842 1138T1935 755ZM1329 747Q1329 849 1263 911T1087 974Q986 974 908 911T784 733T739 491Q739 371 786 303T933 235Q1013 235 1086 279T1214
400T1299 576T1329 747Z" />
<glyph unicode="A" glyph-name="A" horiz-adv-x="1366" d="M1061 0L986 412H347L107 0H-101L747 1409H964L1256 0H1061ZM830 1265Q817 1239 793 1196T431 561H958L856 1114L830 1265Z" />
<glyph unicode="B" glyph-name="B" horiz-adv-x="1366" d="M336 1409H846Q1055 1409 1175 1323T1296 1087Q1296 802 957 743Q1095 720 1171 639T1247 439Q1247 226 1091 113T658 0H63L336 1409ZM411 810H742Q1097 810 1097 1068Q1097 1256 829 1256H498L411 810ZM283
153H651Q861 153 958 226T1056 442Q1056 549 977 605T748 661H382L283 153Z" />
<glyph unicode="C" glyph-name="C" horiz-adv-x="1479" d="M1358 337Q1232 149 1072 65T700 -20Q519 -20 386 52T183 259T113 569Q113 815 218 1014T509 1321T926 1430Q1143 1430 1292 1340T1490 1085L1310 1030Q1274 1142 1171 1208T916 1274Q732 1274 592 1186T377
937T302 566Q302 366 411 251T713 135Q861 135 989 208T1215 426L1358 337Z" />
<glyph unicode="D" glyph-name="D" horiz-adv-x="1479" d="M744 1409Q1056 1409 1234 1245T1413 791Q1413 555 1310 378T1014 101T575 0H63L336 1409H744ZM283 153H567Q762 153 911 230T1139 453T1219 793Q1219 1012 1093 1134T740 1256H498L283 153Z" />
<glyph unicode="E" glyph-name="E" horiz-adv-x="1366" d="M63 0L336 1409H1385L1355 1253H497L409 801H1207L1177 647H379L284 156H1183L1153 0H63Z" />
<glyph unicode="F" glyph-name="F" horiz-adv-x="1251" d="M497 1253L395 729H1191L1160 571H364L254 0H63L336 1409H1347L1317 1253H497Z" />
<glyph unicode="G" glyph-name="G" horiz-adv-x="1593" d="M742 -20Q437 -20 269 136T101 573Q101 822 206 1018T503 1322T944 1430Q1166 1430 1308 1346T1505 1098L1312 1044Q1275 1159 1178 1216T932 1274Q740 1274 596 1188T374 944T297 577Q297 366 415 251T748
135Q886 135 1012 174T1231 291L1282 545H861L893 705H1490L1390 210Q1250 90 1092 35T742 -20Z" />
<glyph unicode="H" glyph-name="H" horiz-adv-x="1479" d="M1021 0L1148 653H381L254 0H63L337 1409H528L412 813H1179L1295 1409H1481L1207 0H1021Z" />
<glyph unicode="I" glyph-name="I" horiz-adv-x="569" d="M81 0L355 1409H546L272 0H81Z" />
<glyph unicode="J" glyph-name="J" horiz-adv-x="1024" d="M381 -20Q222 -20 122 73T-5 343L163 376Q186 259 242 197T398 135Q503 135 568 207T663 440L820 1253H529L559 1409H1040L847 423Q804 199 690 90T381 -20Z" />
<glyph unicode="K" glyph-name="K" horiz-adv-x="1366" d="M1022 0L550 674L360 545L254 0H63L336 1409H527L391 718L531 847L1196 1409H1441L691 779L1248 0H1022Z" />
<glyph unicode="L" glyph-name="L" horiz-adv-x="1139" d="M63 0L336 1409H527L284 156H996L966 0H63Z" />
<glyph unicode="M" glyph-name="M" horiz-adv-x="1706" d="M1261 0L1441 928Q1477 1113 1506 1228Q1415 1039 1361 948L813 0H689L504 948Q498 977 463 1228Q454 1168 433 1041T233 0H63L336 1409H572L761 432Q769 393 793 227L897 440L1450 1409H1706L1433 0H1261Z" />
<glyph unicode="N" glyph-name="N" horiz-adv-x="1479" d="M987 0L456 1210Q434 1039 414 943L233 0H63L336 1409H548L1082 194Q1108 383 1127 478L1308 1409H1480L1207 0H987Z" />
<glyph unicode="O" glyph-name="O" horiz-adv-x="1593" d="M938 1430Q1215 1430 1375 1273T1536 851Q1531 583 1424 388T1131 86T709 -20Q425 -20 268 137T111 573Q111 812 216 1012T511 1321T938 1430ZM929 1276Q729 1276 590 1187T376 921T302 563Q302 354 408
245T718 135Q915 135 1053 221T1268 481T1345 847Q1345 1054 1237 1165T929 1276Z" />
<glyph unicode="P" glyph-name="P" horiz-adv-x="1366" d="M852 1409Q1083 1409 1218 1305T1353 1020Q1353 800 1201 675T784 549H360L254 0H63L336 1409H852ZM390 700H777Q1159 700 1159 1011Q1159 1130 1080 1193T847 1256H498L390 700Z" />
<glyph unicode="Q" glyph-name="Q" horiz-adv-x="1593" d="M928 1430Q1205 1430 1365 1273T1526 851Q1521 607 1432 423T1186 127T822 -12Q839 -133 889 -188T1038 -244Q1096 -244 1161 -231L1143 -365Q1067 -387 974 -387Q823 -387 742 -301T638 -17Q385 0 243
155T101 573Q101 812 206 1012T501 1321T928 1430ZM919 1276Q719 1276 580 1187T366 921T292 563Q292 354 398 245T708 135Q905 135 1043 221T1258 481T1335 847Q1335 1054 1227 1165T919 1276Z" />
<glyph unicode="R" glyph-name="R" horiz-adv-x="1479" d="M1051 0L808 585H367L254 0H63L336 1409H948Q1162 1409 1289 1307T1416 1039Q1416 851 1308 741T989 602L1257 0H1051ZM857 736Q1038 736 1130 811T1222 1024Q1222 1136 1148 1196T925 1256H498L397 736H857Z" />
<glyph unicode="S" glyph-name="S" horiz-adv-x="1366" d="M616 -20Q367 -20 230 68T58 338L235 375Q262 246 355 188T630 130Q849 130 950 195T1051 396Q1051 463 1022 503T923 576T682 657Q511 704 427 753T299 873T255 1041Q255 1223 408 1326T824 1430Q1044
1430 1177 1354T1344 1132L1171 1081Q1138 1186 1053 1236T823 1286Q447 1286 447 1050Q447 990 472 952T556 886T789 810Q984 756 1069 706T1200 585T1246 408Q1246 202 1091 91T616 -20Z" />
<glyph unicode="T" glyph-name="T" horiz-adv-x="1251" d="M858 1253L614 0H424L668 1253H184L214 1409H1372L1342 1253H858Z" />
<glyph unicode="U" glyph-name="U" horiz-adv-x="1479" d="M654 -20Q421 -20 287 100T153 431Q153 475 160 536T176 635L326 1409H517L355 566Q338 479 338 423Q338 287 425 211T670 135Q1054 135 1131 541L1299 1409H1489L1319 530Q1265 257 1097 119T654 -20Z" />
<glyph unicode="V" glyph-name="V" horiz-adv-x="1366" d="M677 0H479L177 1409H371L569 417L604 168L737 417L1317 1409H1525L677 0Z" />
<glyph unicode="W" glyph-name="W" horiz-adv-x="1933" d="M1406 0H1183L1112 895Q1098 1170 1096 1219Q1020 1020 961 895L542 0H319L177 1409H374L453 514Q465 359 469 168Q548 356 599 470T1043 1409H1226L1301 532Q1315 378 1318 168L1334 203Q1382 318 1412
387T1893 1409H2094L1406 0Z" />
<glyph unicode="X" glyph-name="X" horiz-adv-x="1366" d="M999 0L696 606L172 0H-39L615 746L275 1409H474L744 858L1219 1409H1430L830 733L1198 0H999Z" />
<glyph unicode="Y" glyph-name="Y" horiz-adv-x="1366" d="M672 0H482L597 584L213 1409H409L715 735L1275 1409H1489L785 584L672 0Z" />
<glyph unicode="Z" glyph-name="Z" horiz-adv-x="1251" d="M1082 0H-40L-13 143L1041 1253H276L306 1409H1308L1281 1270L227 156H1112L1082 0Z" />
<glyph unicode="[" glyph-name="bracketleft" horiz-adv-x="569" d="M-39 -425L331 1484H738L713 1355H480L159 -296H392L367 -425H-39Z" />
<glyph unicode="\" glyph-name="backslash" horiz-adv-x="569" d="M320 -20L146 1484H294L472 -20H320Z" />
<glyph unicode="]" glyph-name="bracketright" horiz-adv-x="569" d="M-169 -425L-144 -296H88L409 1355H176L201 1484H608L237 -425H-169Z" />
<glyph unicode="^" glyph-name="asciicircum" horiz-adv-x="961" d="M817 673L508 1306L202 673H40L408 1409H611L981 673H817Z" />
<glyph unicode="_" glyph-name="underscore" horiz-adv-x="1139" d="M-160 -250V-174H1018V-250H-160Z" />
<glyph unicode="`" glyph-name="grave" horiz-adv-x="682" d="M412 1201L130 1479L135 1508H342L503 1221L500 1201H412Z" />
<glyph unicode="a" glyph-name="a" horiz-adv-x="1139" d="M927 -10Q834 -10 792 28T749 143L754 207H748Q665 81 576 31T361 -20Q221 -20 134 64T46 278Q46 463 178 558T601 657L833 660Q852 758 852 787Q852 878 799 921T652 965Q533 965 472 923T384 793L206
822Q251 969 362 1035T662 1102Q833 1102 932 1022T1032 807Q1032 743 1013 650L939 272Q928 224 928 184Q928 111 1009 111Q1036 111 1069 118L1055 6Q989 -10 927 -10ZM809 536L610 532Q491 529 423 511T318 464T259 392T237 286Q237 211 285 164T411 117Q508
117 586 158T715 267T782 411L809 536Z" />
<glyph unicode="b" glyph-name="b" horiz-adv-x="1139" d="M744 1102Q901 1102 988 1008T1076 748Q1076 545 1015 355T842 72T557 -20Q434 -20 357 32T248 178H245Q238 141 221 72T202 0H29Q34 15 48 82T78 223L323 1484H503L420 1061Q412 1015 386 921H390Q463
1016 544 1059T744 1102ZM692 963Q593 963 523 923T403 801T326 597T298 377Q298 252 361 183T538 113Q662 113 734 188T847 428T888 716Q888 839 841 901T692 963Z" />
<glyph unicode="c" glyph-name="c" horiz-adv-x="1024" d="M469 122Q674 122 758 352L914 303Q793 -20 465 -20Q273 -20 170 89T67 395Q67 595 139 767T331 1020T625 1102Q794 1102 892 1017T1001 784L824 759Q818 856 764 908T619 961Q493 961 415 894T294 679T251
389Q251 122 469 122Z" />
<glyph unicode="d" glyph-name="d" horiz-adv-x="1139" d="M401 -21Q244 -21 157 73T69 333Q69 536 130 726T303 1009T588 1101Q711 1101 788 1049T898 903H903L931 1065L1013 1484H1193L948 223Q919 82 910 0H738Q738 51 759 160H754Q681 65 600 22T401 -21ZM453
118Q552 118 622 158T742 280T819 484T847 704Q847 829 784 898T607 968Q485 968 414 896T300 659T257 365Q257 242 304 180T453 118Z" />
<glyph unicode="e" glyph-name="e" horiz-adv-x="1139" d="M256 503Q250 468 247 390Q247 257 313 186T514 115Q611 115 690 163T813 294L951 231Q878 100 766 40T493 -20Q292 -20 181 91T69 405Q69 606 140 765T340 1013T630 1102Q835 1102 949 999T1063 708Q1063
603 1039 503H256ZM880 641L884 713Q884 837 820 903T634 969Q500 969 409 884T280 641H880Z" />
<glyph unicode="f" glyph-name="f" horiz-adv-x="569" d="M434 951L249 0H69L254 951H102L128 1082H280L303 1204Q326 1316 363 1371T463 1455T622 1484Q696 1484 746 1472L720 1335L675 1341L629 1343Q566 1343 533 1311T479 1179L460 1082H671L645 951H434Z" />
<glyph unicode="g" glyph-name="g" horiz-adv-x="1139" d="M397 -425Q58 -425 4 -173L167 -131Q202 -288 401 -288Q543 -288 621 -215T731 27L765 201H763Q701 112 654 73T547 13T410 -8Q257 -8 164 92T70 359Q70 492 107 646T210 902T368 1052T588 1101Q709 1101
792 1044T900 897H902Q909 934 927 1003T950 1082H1121L1102 1000L1072 858L911 31Q863 -211 739 -318T397 -425ZM259 373Q259 252 311 189T466 125Q574 125 662 203T798 419T847 704Q847 829 783 898T607 968Q517 968 457 931T356 815T287 605T259 373Z" />
<glyph unicode="h" glyph-name="h" horiz-adv-x="1139" d="M383 897Q466 1012 549 1056T748 1101Q896 1101 970 1028T1045 817Q1045 753 1024 653L897 0H716L842 645Q860 733 860 795Q860 962 681 962Q555 962 459 866T331 606L213 0H34L322 1484H502L427 1098Q409
998 380 897H383Z" />
<glyph unicode="i" glyph-name="i" horiz-adv-x="455" d="M287 1312L321 1484H501L467 1312H287ZM33 0L243 1082H423L212 0H33Z" />
<glyph unicode="j" glyph-name="j" horiz-adv-x="455" d="M289 1312L322 1484H502L469 1312H289ZM-100 -425Q-156 -425 -229 -411L-206 -275Q-154 -283 -123 -283Q-64 -283 -34 -241T13 -107L244 1082H424L187 -134Q156 -292 86 -358T-100 -425Z" />
<glyph unicode="k" glyph-name="k" horiz-adv-x="1024" d="M721 0L453 502L285 378L213 0H34L322 1484H502L323 567L527 757L888 1082H1110L580 617L916 0H721Z" />
<glyph unicode="l" glyph-name="l" horiz-adv-x="455" d="M33 0L321 1484H501L212 0H33Z" />
<glyph unicode="m" glyph-name="m" horiz-adv-x="1706" d="M660 0L784 634Q809 759 809 808Q809 883 771 922T647 962Q531 962 445 863T331 604L213 0H34L200 851Q220 946 239 1082H409Q409 1071 399 1005T381 897H384Q457 1011 530 1056T706 1101Q827 1101 898
1042T983 869Q1066 999 1146 1050T1331 1101Q1466 1101 1538 1028T1611 817Q1611 753 1590 653L1463 0H1285L1409 634Q1434 759 1434 808Q1434 883 1396 922T1272 962Q1156 962 1070 865T956 607L838 0H660Z" />
<glyph unicode="n" glyph-name="n" horiz-adv-x="1139" d="M717 0L843 645Q861 733 861 795Q861 962 682 962Q556 962 460 866T332 606L214 0H34L200 851Q220 946 239 1082H409Q409 1071 399 1005T381 897H384Q467 1012 550 1056T749 1101Q897 1101 971 1028T1046
817Q1046 753 1025 653L898 0H717Z" />
<glyph unicode="o" glyph-name="o" horiz-adv-x="1139" d="M1074 683Q1074 553 1034 413T920 175T737 29T491 -20Q295 -20 181 98T67 419Q71 623 141 781T335 1020T642 1101Q852 1101 963 992T1074 683ZM888 683Q888 969 640 969Q505 969 424 900T297 689T252
416Q252 268 316 191T502 113Q605 113 667 147T777 255T853 443T888 683Z" />
<glyph unicode="p" glyph-name="p" horiz-adv-x="1139" d="M554 -20Q431 -20 354 32T244 178H239Q239 167 231 113T128 -425H-51L198 861Q221 972 233 1082H400Q400 1055 394 1000T383 921H387Q460 1016 541 1059T741 1102Q898 1102 985 1008T1073 748Q1073 545
1012 355T839 72T554 -20ZM689 963Q590 963 520 923T400 801T323 597T295 377Q295 252 358 183T535 113Q659 113 731 188T844 428T885 716Q885 839 838 901T689 963Z" />
<glyph unicode="q" glyph-name="q" horiz-adv-x="1139" d="M401 -21Q244 -21 157 73T69 333Q69 536 130 726T303 1009T588 1101Q711 1101 788 1049T898 903H903Q914 957 930 1021T952 1096H1125Q1102 1018 1060 801L822 -425H642L727 14L759 160H755Q682 65 601
22T401 -21ZM453 118Q552 118 622 158T742 280T819 484T847 704Q847 829 784 898T607 968Q485 968 414 896T300 659T257 365Q257 242 304 180T453 118Z" />
<glyph unicode="r" glyph-name="r" horiz-adv-x="682" d="M718 938Q674 951 628 951Q523 951 439 841T324 564L214 0H34L196 830L221 968L239 1082H409L374 861H378Q444 994 508 1048T656 1102Q702 1102 751 1088L718 938Z" />
<glyph unicode="s" glyph-name="s" horiz-adv-x="1024" d="M907 317Q907 155 783 68T425 -20Q251 -20 149 38T5 223L152 279Q185 191 254 151T441 111Q584 111 658 159T732 301Q732 363 681 404T465 497Q337 539 273 579T175 672T141 797Q141 942 257 1020T584
1099Q938 1099 982 844L819 819Q797 898 736 933T572 968Q448 968 382 929T315 817Q315 775 336 746T396 695T579 627Q706 587 770 546T871 449T907 317Z" />
<glyph unicode="t" glyph-name="t" horiz-adv-x="569" d="M275 -20Q190 -20 142 31T93 166Q93 221 108 296L234 951H109L135 1082H262L367 1324H487L440 1082H640L614 951H414L289 306Q277 246 277 211Q277 123 367 123Q409 123 467 137L448 4Q349 -20 275 -20Z" />
<glyph unicode="u" glyph-name="u" horiz-adv-x="1139" d="M415 1082L289 437Q271 349 271 287Q271 120 450 120Q576 120 672 216T800 476L918 1082H1098L932 231Q912 136 893 0H723Q723 11 733 77T751 185H748Q665 70 582 26T383 -19Q235 -19 161 54T86 265Q86
329 107 429L234 1082H415Z" />
<glyph unicode="v" glyph-name="v" horiz-adv-x="1024" d="M507 0H294L112 1082H299L400 378Q409 310 419 194L423 141L449 194Q494 288 542 376L926 1082H1122L507 0Z" />
<glyph unicode="w" glyph-name="w" horiz-adv-x="1479" d="M1068 0H859L822 698L816 934Q786 859 762 803T402 0H194L102 1082H280L320 347L327 149L408 339L749 1082H942L986 339Q992 231 992 149Q1025 228 1413 1082H1589L1068 0Z" />
<glyph unicode="x" glyph-name="x" horiz-adv-x="1024" d="M706 0L497 444L117 0H-82L410 556L146 1082H335L528 661L878 1082H1084L615 558L896 0H706Z" />
<glyph unicode="y" glyph-name="y" horiz-adv-x="1024" d="M16 -425Q-56 -425 -116 -411L-85 -277Q-40 -285 -8 -285Q87 -285 159 -221T302 -35L329 12L112 1082H295L407 484Q422 404 435 314T449 196Q459 218 475 250T928 1082H1127L501 0Q390 -193 323 -270T182
-386T16 -425Z" />
<glyph unicode="z" glyph-name="z" horiz-adv-x="1024" d="M-12 0L11 137L753 943H187L212 1082H996L972 945L230 139H851L826 0H-12Z" />
<glyph unicode="{" glyph-name="braceleft" horiz-adv-x="684" d="M366 -425Q255 -425 190 -359T124 -175Q124 -113 134 -58L190 229Q199 273 199 306Q199 389 153 425T21 466L46 593Q156 597 220 654T307 829L377 1191Q405 1334 480 1409T698 1484H833L808 1355H745Q656
1355 608 1308T535 1140L466 784Q447 689 382 622T223 532V530Q292 513 332 463T373 335Q373 308 367 276L306 -43Q301 -67 298 -107T293 -165V-171Q293 -227 327 -261T439 -296H487L462 -425H366Z" />
<glyph unicode="|" glyph-name="bar" horiz-adv-x="532" d="M213 -454V1484H379V-454H213Z" />
<glyph unicode="}" glyph-name="braceright" horiz-adv-x="684" d="M308 1484Q419 1484 484 1418T550 1234Q550 1172 540 1117L484 830Q475 787 475 753Q475 670 521 634T653 593L628 466Q518 462 454 405T367 230L297 -132Q269 -275 194 -350T-24 -425H-159L-134
-296H-71Q18 -296 66 -249T139 -81L208 275Q227 370 292 437T451 527V529Q382 546 342 596T301 724Q301 752 307 783L368 1102Q373 1126 376 1166T381 1224V1230Q381 1286 347 1320T235 1355H187L212 1484H308Z" />
<glyph unicode="~" glyph-name="asciitilde" horiz-adv-x="1196" d="M874 553Q805 553 733 575T587 623Q458 668 370 668Q303 668 245 648T122 580V723Q233 807 385 807Q487 807 620 761Q767 710 810 700T890 690Q1020 690 1134 782V633Q1074 591 1017 572T874 553Z" />
<glyph unicode="&#xa0;" glyph-name="space" horiz-adv-x="569" />
<glyph unicode="&#xa1;" glyph-name="exclamdown" horiz-adv-x="682" d="M284 686H432L260 -326H64L284 686ZM536 1083L496 882H302L342 1083H536Z" />
<glyph unicode="&#xa2;" glyph-name="cent" horiz-adv-x="1139" d="M560 278Q765 278 849 508L1005 459Q889 151 588 136L556 -31H432L466 142Q317 164 238 270T158 551Q158 687 196 823T299 1054T457 1199T683 1257L711 1409H835L806 1251Q937 1232 1010 1150T1092
940L915 915Q909 1012 855 1064T710 1117Q584 1117 506 1050T385 835T342 545Q342 278 560 278Z" />
<glyph unicode="&#xa3;" glyph-name="sterling" horiz-adv-x="1139" d="M1075 310Q1038 158 938 79T688 0H-12L17 154Q114 200 172 278T255 481L283 625H97L122 754H308L363 1034Q403 1239 515 1334T816 1430Q964 1430 1059 1368T1178 1200L1014 1150Q994 1214
938 1248T809 1282Q695 1282 632 1225T544 1042L488 754H896L871 625H463L436 478Q416 367 354 281T202 153H666Q769 153 833 195T924 334L1075 310Z" />
<glyph unicode="&#xa4;" glyph-name="currency" horiz-adv-x="1139" d="M165 684Q165 822 243 936L143 1036L247 1139L346 1038Q460 1120 600 1120Q737 1120 851 1040L948 1137L1052 1032L956 936Q1036 819 1036 684Q1036 546 954 432L1054 332L952 227L851 328Q737
250 600 250Q457 250 348 330L243 225L141 330L243 432Q165 546 165 684ZM319 686Q319 572 401 489T600 406Q714 406 797 487T880 686Q880 802 798 884T600 967Q483 967 401 884T319 686Z" />
<glyph unicode="&#xa5;" glyph-name="yen" horiz-adv-x="1139" d="M745 709H1066L1042 584H659L629 430H1012L987 303H604L545 0H367L426 303H45L70 430H451L483 584H100L124 709H444L159 1409H352L598 762L1098 1409H1303L745 709Z" />
<glyph unicode="&#xa6;" glyph-name="brokenbar" horiz-adv-x="532" d="M213 707V1485H379V707H213ZM213 -455V324H379V-455H213Z" />
<glyph unicode="&#xa7;" glyph-name="section" horiz-adv-x="1139" d="M1010 673Q1010 449 736 388Q868 305 868 165Q868 3 744 -84T383 -172Q212 -172 109 -114T-34 71L113 127Q146 39 215 -1T402 -41Q545 -41 619 7T693 149Q693 212 640 255T427 348Q102 448
102 673Q102 783 172 855T378 957Q244 1042 244 1182Q244 1327 361 1405T695 1484Q1041 1484 1085 1229L922 1204Q881 1353 688 1353Q418 1353 418 1190Q418 1135 471 1092T680 999Q862 942 936 863T1010 673ZM276 688Q276 619 337 567T550 468Q682 473 758 523T835
662Q835 713 807 750T724 817T533 886Q416 880 346 826T276 688Z" />
<glyph unicode="&#xa8;" glyph-name="dieresis" horiz-adv-x="682" d="M521 1219L556 1403H729L694 1219H521ZM137 1219L172 1403H347L312 1219H137Z" />
<glyph unicode="&#xa9;" glyph-name="copyright" horiz-adv-x="1509" d="M1509 707Q1509 514 1413 346T1148 81T786 -16Q589 -16 420 84T157 351T63 707Q63 900 160 1068T425 1333T786 1430Q980 1430 1148 1333T1413 1068T1509 707ZM1417 707Q1417 875 1333 1020T1102
1250T786 1335Q618 1335 472 1251T242 1020T158 707Q158 538 242 392T472 162T786 78Q956 78 1102 162T1333 392T1417 707ZM797 279Q609 279 505 392T401 709Q401 912 501 1022T790 1133Q1034 1133 1130 924L1016 891Q984 960 926 994T792 1028Q665 1028 598 948T530
709Q530 554 601 469T797 383Q875 383 932 420T1030 539L1145 504Q1083 383 999 331T797 279Z" />
<glyph unicode="&#xaa;" glyph-name="ordfeminine" horiz-adv-x="758" d="M723 657Q657 657 622 686T586 765L590 805H586Q520 720 455 686T311 651Q210 651 150 707T89 858Q89 1107 453 1112L632 1116Q650 1206 650 1229Q650 1331 523 1331Q371 1331 339 1196L207
1213Q265 1432 525 1432Q652 1432 721 1379T791 1233Q791 1194 781 1149L728 874Q722 843 722 821Q722 766 770 766Q790 766 814 774L799 670Q762 657 723 657ZM614 1024L475 1020Q352 1017 298 979T243 865Q243 818 272 790T352 762Q441 762 514 824T604 972L614
1024Z" />
<glyph unicode="&#xab;" glyph-name="guillemotleft" horiz-adv-x="1139" d="M818 141L551 506L563 569L973 940H1131L1125 903L715 531L983 164L978 141H818ZM341 141L76 506L88 569L496 940H653L647 902L240 530L505 163L500 141H341Z" />
<glyph unicode="&#xac;" glyph-name="logicalnot" horiz-adv-x="1196" d="M950 180V608H100V754H1095V180H950Z" />
<glyph unicode="&#xad;" glyph-name="hyphen" horiz-adv-x="682" d="M105 464L136 624H636L605 464H105Z" />
<glyph unicode="&#xae;" glyph-name="registered" horiz-adv-x="1509" d="M1509 707Q1509 514 1413 346T1148 81T786 -16Q589 -16 420 84T157 351T63 707Q63 900 160 1068T425 1333T786 1430Q980 1430 1148 1333T1413 1068T1509 707ZM1417 707Q1417 875 1333 1020T1102
1250T786 1335Q618 1335 472 1251T242 1020T158 707Q158 538 242 392T472 162T786 78Q956 78 1102 162T1333 392T1417 707ZM987 289L788 625H627V289H500V1120H807Q949 1120 1024 1057T1100 883Q1100 781 1048 720T911 639L1132 289H987ZM973 881Q973 950 926 986T797
1022H627V721H809Q889 721 931 763T973 881Z" />
<glyph unicode="&#xaf;" glyph-name="overscore" horiz-adv-x="1131" d="M1148 1503H-17V1620H1148V1503Z" />
<glyph unicode="&#xb0;" glyph-name="degree" horiz-adv-x="819" d="M770 1145Q770 1026 686 943T483 860Q365 860 281 944T196 1145Q196 1262 279 1346T483 1430Q603 1430 686 1347T770 1145ZM661 1145Q661 1221 610 1273T483 1325Q408 1325 357 1272T305 1145Q305
1071 357 1018T483 965Q557 965 609 1017T661 1145Z" />
<glyph unicode="&#xb1;" glyph-name="plusminus" horiz-adv-x="1124" d="M636 680V285H489V680H65V825H489V1219H636V825H1060V680H636ZM65 0V145H1060V0H65Z" />
<glyph unicode="&#xb2;" glyph-name="twosuperior" horiz-adv-x="682" d="M30 563L48 666Q78 714 116 753T201 828T351 925Q482 1002 522 1036T584 1107T606 1192Q606 1243 572 1279T473 1315Q403 1315 353 1276T289 1174L164 1189Q193 1303 273 1362T480 1421Q599
1421 670 1361T742 1206Q742 1138 712 1083T628 981T427 848Q330 792 280 754T203 676H651L631 563H30Z" />
<glyph unicode="&#xb3;" glyph-name="threesuperior" horiz-adv-x="682" d="M332 1049H389Q486 1049 538 1090T590 1204Q590 1252 557 1283T467 1315Q399 1315 351 1280T283 1180L158 1205Q225 1421 477 1421Q588 1421 658 1365T728 1218Q728 1039 510 995V993Q583
980 628 933T673 817Q673 696 584 624T350 551Q89 551 53 785L182 801Q191 729 236 692T356 655Q442 655 489 699T537 820Q537 874 493 907T372 940H311L332 1049Z" />
<glyph unicode="&#xb4;" glyph-name="acute" horiz-adv-x="682" d="M175 1201L178 1221L431 1508H648L643 1479L269 1201H175Z" />
<glyph unicode="&#xb5;" glyph-name="mu1" horiz-adv-x="1180" d="M-1 -425L292 1082H473L339 396Q328 332 328 295Q328 119 490 119Q602 119 684 214T795 472L913 1082H1093L936 275Q927 234 927 193Q927 121 984 121Q996 121 1040 129L1018 0Q946 -20 895 -20Q821
-20 790 28T759 169H757Q628 -20 448 -20Q386 -20 341 1T273 59L179 -425H-1Z" />
<glyph unicode="&#xb6;" glyph-name="paragraph" horiz-adv-x="1100" d="M948 1307V-264H836V1307H619V-264H506V694Q338 694 241 786T144 1049Q144 1218 242 1313T514 1409H1077V1307H948Z" />
<glyph unicode="&#xb7;" glyph-name="middot" horiz-adv-x="682" d="M221 446L264 666H459L416 446H221Z" />
<glyph unicode="&#xb8;" glyph-name="cedilla" horiz-adv-x="682" d="M318 -96Q399 -101 439 -137T480 -232Q480 -425 177 -425Q127 -425 71 -418L92 -327Q140 -333 180 -333Q271 -333 308 -311T346 -244Q346 -172 227 -172Q183 -172 169 -174L270 0H377L318 -96Z" />
<glyph unicode="&#xb9;" glyph-name="onesuperior" horiz-adv-x="682" d="M61 563L81 670H292L410 1279L181 1141L207 1272L444 1409H567L423 670H638L617 563H61Z" />
<glyph unicode="&#xba;" glyph-name="ordmasculine" horiz-adv-x="748" d="M403 651Q258 651 180 729T101 950Q101 1009 114 1078Q182 1432 520 1432Q665 1432 743 1354T822 1133Q822 1074 809 1005Q741 651 403 651ZM513 1325Q418 1325 364 1278T279 1127T248
938Q248 758 408 758Q505 758 560 807T646 964T678 1154Q678 1248 635 1286T513 1325Z" />
<glyph unicode="&#xbb;" glyph-name="guillemotright" horiz-adv-x="1139" d="M640 141H482L489 180L899 547L635 919L639 940H795L1061 569L1049 506L640 141ZM165 141H5L12 180L422 547L158 919L162 940H320L583 569L571 506L165 141Z" />
<glyph unicode="&#xbc;" glyph-name="onequarter" horiz-adv-x="1708" d="M96 563L116 670H327L445 1279L216 1141L242 1272L479 1409H602L458 670H673L652 563H96ZM427 0H274L1424 1409H1578L427 0ZM1437 179L1402 1H1271L1306 179H901L922 290L1406 847H1567L1459
292H1584L1562 179H1437ZM1412 714L1304 579L1059 292H1328L1391 614L1412 714Z" />
<glyph unicode="&#xbd;" glyph-name="onehalf" horiz-adv-x="1708" d="M303 563L323 670H534L652 1279L423 1141L449 1272L686 1409H809L665 670H880L859 563H303ZM377 0H224L1374 1409H1528L377 0ZM937 1L955 104Q985 152 1023 191T1108 266T1258 363Q1389 440
1429 474T1491 545T1513 630Q1513 681 1479 717T1380 753Q1310 753 1260 714T1196 612L1071 627Q1100 741 1180 800T1387 859Q1506 859 1577 799T1649 644Q1649 576 1619 521T1535 419T1334 286Q1237 230 1187 192T1110 114H1558L1538 1H937Z" />
<glyph unicode="&#xbe;" glyph-name="threequarters" horiz-adv-x="1708" d="M415 1049H472Q569 1049 621 1090T673 1204Q673 1252 640 1283T550 1315Q482 1315 434 1280T366 1180L241 1205Q308 1421 560 1421Q671 1421 741 1365T811 1218Q811 1039 593 995V993Q666
980 711 933T756 817Q756 696 667 624T433 551Q172 551 136 785L265 801Q274 729 319 692T439 655Q525 655 572 699T620 820Q620 874 576 907T455 940H394L415 1049ZM427 0H274L1424 1409H1578L427 0ZM1437 179L1402 1H1271L1306 179H901L922 290L1406 847H1567L1459
292H1584L1562 179H1437ZM1412 714L1304 579L1059 292H1328L1391 614L1412 714Z" />
<glyph unicode="&#xbf;" glyph-name="questiondown" horiz-adv-x="1251" d="M497 -347Q300 -347 183 -247T65 10Q65 107 95 175T174 294T283 382T404 454Q531 526 580 582T643 706H818Q805 626 770 567T683 460T496 337Q391 278 345 237T276 146T252 31Q252 -67
325 -127T514 -187Q654 -187 745 -117T874 75L1039 35Q976 -160 841 -253T497 -347ZM899 1083L860 882H665L704 1083H899Z" />
<glyph unicode="&#xc0;" glyph-name="Agrave" horiz-adv-x="1366" d="M1079 0L1004 412H365L125 0H-83L765 1409H982L1274 0H1079ZM848 1265Q835 1239 811 1196T449 561H976L874 1114L848 1265ZM943 1530L650 1747L655 1776H862L1035 1550L1032 1530H943Z" />
<glyph unicode="&#xc1;" glyph-name="Aacute" horiz-adv-x="1366" d="M1079 0L1004 412H365L125 0H-83L765 1409H982L1274 0H1079ZM848 1265Q835 1239 811 1196T449 561H976L874 1114L848 1265ZM743 1530L746 1550L1007 1776H1214L1209 1747L857 1530H743Z" />
<glyph unicode="&#xc2;" glyph-name="Acircumflex" horiz-adv-x="1366" d="M1079 0L1004 412H365L125 0H-83L765 1409H982L1274 0H1079ZM848 1265Q835 1239 811 1196T449 561H976L874 1114L848 1265ZM1197 1550L1193 1530H1098L906 1669H904L645 1530H532L536
1550L816 1790H1020L1197 1550Z" />
<glyph unicode="&#xc3;" glyph-name="Atilde" horiz-adv-x="1366" d="M1079 0L1004 412H365L125 0H-83L765 1409H982L1274 0H1079ZM848 1265Q835 1239 811 1196T449 561H976L874 1114L848 1265ZM1037 1530Q995 1530 957 1550T885 1594T819 1639T756 1659Q710 1659
679 1630T623 1530H523Q570 1682 630 1740T774 1798Q818 1798 856 1778T928 1734T993 1689T1054 1669Q1145 1669 1186 1798H1288Q1253 1689 1221 1639T1144 1559T1037 1530Z" />
<glyph unicode="&#xc4;" glyph-name="Adieresis" horiz-adv-x="1366" d="M1079 0L1004 412H365L125 0H-83L765 1409H982L1274 0H1079ZM848 1265Q835 1239 811 1196T449 561H976L874 1114L848 1265ZM990 1530L1025 1714H1198L1163 1530H990ZM606 1530L641 1714H816L781
1530H606Z" />
<glyph unicode="&#xc5;" glyph-name="Aring" horiz-adv-x="1366" d="M1061 0L986 412H347L107 0H-101L747 1409H964L1256 0H1061ZM830 1265Q817 1239 793 1196T431 561H958L856 1114L830 1265ZM1100 1546Q1100 1446 1029 1375T858 1304Q758 1304 687 1375T616
1546Q616 1647 687 1717T858 1787Q957 1787 1028 1717T1100 1546ZM992 1546Q992 1604 954 1642T858 1680Q799 1680 761 1641T723 1546Q723 1491 761 1450T858 1409Q916 1409 954 1449T992 1546Z" />
<glyph unicode="&#xc6;" glyph-name="AE" horiz-adv-x="2048" d="M863 0L944 412H401L122 0H-81L878 1409H2067L2037 1253H1298L1210 801H1889L1859 647H1180L1085 156H1865L1834 0H863ZM1109 1262H958L822 1046L500 561H973L1109 1262Z" />
<glyph unicode="&#xc7;" glyph-name="Ccedilla" horiz-adv-x="1479" d="M1358 337Q1232 149 1072 65T700 -20Q519 -20 386 52T183 259T113 569Q113 815 218 1014T509 1321T926 1430Q1143 1430 1292 1340T1490 1085L1310 1030Q1274 1142 1171 1208T916 1274Q732
1274 592 1186T377 937T302 566Q302 366 411 251T713 135Q861 135 989 208T1215 426L1358 337ZM708 -96Q789 -101 829 -137T870 -232Q870 -425 567 -425Q517 -425 461 -418L482 -327Q530 -333 570 -333Q661 -333 698 -311T736 -244Q736 -172 617 -172Q573 -172
559 -174L660 0H767L708 -96Z" />
<glyph unicode="&#xc8;" glyph-name="Egrave" horiz-adv-x="1366" d="M63 0L336 1409H1385L1355 1253H497L409 801H1207L1177 647H379L284 156H1183L1153 0H63ZM937 1530L644 1747L649 1776H856L1029 1550L1026 1530H937Z" />
<glyph unicode="&#xc9;" glyph-name="Eacute" horiz-adv-x="1366" d="M63 0L336 1409H1385L1355 1253H497L409 801H1207L1177 647H379L284 156H1183L1153 0H63ZM727 1530L730 1550L991 1776H1198L1193 1747L841 1530H727Z" />
<glyph unicode="&#xca;" glyph-name="Ecircumflex" horiz-adv-x="1366" d="M63 0L336 1409H1385L1355 1253H497L409 801H1207L1177 647H379L284 156H1183L1153 0H63ZM1206 1550L1202 1530H1107L915 1669H913L654 1530H541L545 1550L825 1790H1029L1206 1550Z" />
<glyph unicode="&#xcb;" glyph-name="Edieresis" horiz-adv-x="1366" d="M63 0L336 1409H1385L1355 1253H497L409 801H1207L1177 647H379L284 156H1183L1153 0H63ZM977 1530L1012 1714H1185L1150 1530H977ZM593 1530L628 1714H803L768 1530H593Z" />
<glyph unicode="&#xcc;" glyph-name="Igrave" horiz-adv-x="569" d="M81 0L355 1409H546L272 0H81ZM504 1530L211 1747L216 1776H423L596 1550L593 1530H504Z" />
<glyph unicode="&#xcd;" glyph-name="Iacute" horiz-adv-x="569" d="M81 0L355 1409H546L272 0H81ZM365 1530L368 1550L629 1776H836L831 1747L479 1530H365Z" />
<glyph unicode="&#xce;" glyph-name="Icircumflex" horiz-adv-x="569" d="M81 0L355 1409H546L272 0H81ZM1050 1550L1046 1530H951L759 1669H757L498 1530H385L389 1550L669 1790H873L1050 1550Z" />
<glyph unicode="&#xcf;" glyph-name="Idieresis" horiz-adv-x="569" d="M81 0L355 1409H546L272 0H81ZM827 1530L862 1714H1035L1000 1530H827ZM443 1530L478 1714H653L618 1530H443Z" />
<glyph unicode="&#xd0;" glyph-name="Eth" horiz-adv-x="1479" d="M764 1409Q1076 1409 1254 1245T1433 791Q1433 557 1335 379T1046 100T612 0H63L188 647H34L64 801H218L336 1409H764ZM409 801H815L785 647H379L283 153H587Q782 153 931 230T1159 453T1239 793Q1239
1012 1113 1134T760 1256H498L409 801Z" />
<glyph unicode="&#xd1;" glyph-name="Ntilde" horiz-adv-x="1479" d="M987 0L456 1210Q434 1039 414 943L233 0H63L336 1409H548L1082 194Q1108 383 1127 478L1308 1409H1480L1207 0H987ZM1085 1530Q1043 1530 1005 1550T933 1594T867 1639T804 1659Q758 1659
727 1630T671 1530H571Q618 1682 678 1740T822 1798Q866 1798 904 1778T976 1734T1041 1689T1102 1669Q1193 1669 1234 1798H1336Q1301 1689 1269 1639T1192 1559T1085 1530Z" />
<glyph unicode="&#xd2;" glyph-name="Ograve" horiz-adv-x="1593" d="M938 1430Q1215 1430 1375 1273T1536 851Q1531 583 1424 388T1131 86T709 -20Q425 -20 268 137T111 573Q111 812 216 1012T511 1321T938 1430ZM929 1276Q729 1276 590 1187T376 921T302 563Q302
354 408 245T718 135Q915 135 1053 221T1268 481T1345 847Q1345 1054 1237 1165T929 1276ZM970 1530L677 1747L682 1776H889L1062 1550L1059 1530H970Z" />
<glyph unicode="&#xd3;" glyph-name="Oacute" horiz-adv-x="1593" d="M938 1430Q1215 1430 1375 1273T1536 851Q1531 583 1424 388T1131 86T709 -20Q425 -20 268 137T111 573Q111 812 216 1012T511 1321T938 1430ZM929 1276Q729 1276 590 1187T376 921T302 563Q302
354 408 245T718 135Q915 135 1053 221T1268 481T1345 847Q1345 1054 1237 1165T929 1276ZM817 1530L820 1550L1081 1776H1288L1283 1747L931 1530H817Z" />
<glyph unicode="&#xd4;" glyph-name="Ocircumflex" horiz-adv-x="1593" d="M938 1430Q1215 1430 1375 1273T1536 851Q1531 583 1424 388T1131 86T709 -20Q425 -20 268 137T111 573Q111 812 216 1012T511 1321T938 1430ZM929 1276Q729 1276 590 1187T376 921T302
563Q302 354 408 245T718 135Q915 135 1053 221T1268 481T1345 847Q1345 1054 1237 1165T929 1276ZM1265 1550L1261 1530H1166L974 1669H972L713 1530H600L604 1550L884 1790H1088L1265 1550Z" />
<glyph unicode="&#xd5;" glyph-name="Otilde" horiz-adv-x="1593" d="M938 1430Q1215 1430 1375 1273T1536 851Q1531 583 1424 388T1131 86T709 -20Q425 -20 268 137T111 573Q111 812 216 1012T511 1321T938 1430ZM929 1276Q729 1276 590 1187T376 921T302 563Q302
354 408 245T718 135Q915 135 1053 221T1268 481T1345 847Q1345 1054 1237 1165T929 1276ZM1136 1530Q1094 1530 1056 1550T984 1594T918 1639T855 1659Q809 1659 778 1630T722 1530H622Q669 1682 729 1740T873 1798Q917 1798 955 1778T1027 1734T1092 1689T1153
1669Q1244 1669 1285 1798H1387Q1352 1689 1320 1639T1243 1559T1136 1530Z" />
<glyph unicode="&#xd6;" glyph-name="Odieresis" horiz-adv-x="1593" d="M938 1430Q1215 1430 1375 1273T1536 851Q1531 583 1424 388T1131 86T709 -20Q425 -20 268 137T111 573Q111 812 216 1012T511 1321T938 1430ZM929 1276Q729 1276 590 1187T376 921T302
563Q302 354 408 245T718 135Q915 135 1053 221T1268 481T1345 847Q1345 1054 1237 1165T929 1276ZM1048 1530L1083 1714H1256L1221 1530H1048ZM664 1530L699 1714H874L839 1530H664Z" />
<glyph unicode="&#xd7;" glyph-name="multiply" horiz-adv-x="1196" d="M172 330L526 684L174 1036L278 1139L628 786L978 1137L1083 1032L733 684L1085 332L983 227L630 580L274 225L172 330Z" />
<glyph unicode="&#xd8;" glyph-name="Oslash" horiz-adv-x="1593" d="M1423 1205Q1526 1060 1526 851Q1521 583 1414 388T1121 86T699 -20Q447 -20 294 104L133 -53H-56L204 201Q101 350 101 573Q101 812 206 1012T501 1321T928 1430Q1176 1430 1332 1303L1499
1466H1691L1423 1205ZM919 1276Q719 1276 580 1187T366 921T292 563Q292 427 338 332L1208 1182Q1099 1276 919 1276ZM1335 847Q1335 980 1289 1074L419 226Q524 135 708 135Q905 135 1043 221T1258 481T1335 847Z" />
<glyph unicode="&#xd9;" glyph-name="Ugrave" horiz-adv-x="1479" d="M654 -20Q421 -20 287 100T153 431Q153 475 160 536T176 635L326 1409H517L355 566Q338 479 338 423Q338 287 425 211T670 135Q1054 135 1131 541L1299 1409H1489L1319 530Q1265 257 1097 119T654
-20ZM982 1530L689 1747L694 1776H901L1074 1550L1071 1530H982Z" />
<glyph unicode="&#xda;" glyph-name="Uacute" horiz-adv-x="1479" d="M654 -20Q421 -20 287 100T153 431Q153 475 160 536T176 635L326 1409H517L355 566Q338 479 338 423Q338 287 425 211T670 135Q1054 135 1131 541L1299 1409H1489L1319 530Q1265 257 1097 119T654
-20ZM776 1530L779 1550L1040 1776H1247L1242 1747L890 1530H776Z" />
<glyph unicode="&#xdb;" glyph-name="Ucircumflex" horiz-adv-x="1479" d="M654 -20Q421 -20 287 100T153 431Q153 475 160 536T176 635L326 1409H517L355 566Q338 479 338 423Q338 287 425 211T670 135Q1054 135 1131 541L1299 1409H1489L1319 530Q1265 257 1097
119T654 -20ZM1249 1550L1245 1530H1150L958 1669H956L697 1530H584L588 1550L868 1790H1072L1249 1550Z" />
<glyph unicode="&#xdc;" glyph-name="Udieresis" horiz-adv-x="1479" d="M654 -20Q421 -20 287 100T153 431Q153 475 160 536T176 635L326 1409H517L355 566Q338 479 338 423Q338 287 425 211T670 135Q1054 135 1131 541L1299 1409H1489L1319 530Q1265 257 1097
119T654 -20ZM1018 1530L1053 1714H1226L1191 1530H1018ZM634 1530L669 1714H844L809 1530H634Z" />
<glyph unicode="&#xdd;" glyph-name="Yacute" horiz-adv-x="1366" d="M672 0H482L597 584L213 1409H409L715 735L1275 1409H1489L785 584L672 0ZM702 1530L705 1550L966 1776H1173L1168 1747L816 1530H702Z" />
<glyph unicode="&#xde;" glyph-name="Thorn" horiz-adv-x="1366" d="M254 0H63L337 1409H528L479 1157H806Q1043 1157 1175 1055T1307 768Q1307 548 1155 423T738 297H314L254 0ZM344 448H731Q1113 448 1113 759Q1113 878 1034 941T801 1004H452L344 448Z" />
<glyph unicode="&#xdf;" glyph-name="germandbls" horiz-adv-x="1251" d="M34 0L234 1027Q281 1264 411 1374T762 1484Q939 1484 1045 1403T1152 1196Q1152 1045 997 940Q901 875 872 844T842 777Q842 737 873 695T983 579Q1123 448 1123 308Q1123 149 1015 60T714
-29Q628 -29 547 -13T417 26L473 169Q589 115 719 115Q829 115 888 164T947 305Q947 361 915 412T809 529Q736 592 703 645T670 756Q670 832 708 889T823 991Q905 1039 940 1083T975 1186Q975 1255 915 1299T753 1343Q608 1343 526 1264T412 1021L214 0H34Z" />
<glyph unicode="&#xe0;" glyph-name="agrave" horiz-adv-x="1139" d="M933 -10Q840 -10 798 28T755 143L760 207H754Q671 81 582 31T367 -20Q227 -20 140 64T52 278Q52 463 184 558T607 657L839 660Q858 758 858 787Q858 878 805 921T658 965Q539 965 478 923T390
793L212 822Q257 969 368 1035T668 1102Q839 1102 938 1022T1038 807Q1038 743 1019 650L945 272Q934 224 934 184Q934 111 1015 111Q1042 111 1075 118L1061 6Q995 -10 933 -10ZM815 536L616 532Q497 529 429 511T324 464T265 392T243 286Q243 211 291 164T417
117Q514 117 592 158T721 267T788 411L815 536ZM753 1201L471 1479L476 1508H683L844 1221L841 1201H753Z" />
<glyph unicode="&#xe1;" glyph-name="aacute" horiz-adv-x="1139" d="M933 -10Q840 -10 798 28T755 143L760 207H754Q671 81 582 31T367 -20Q227 -20 140 64T52 278Q52 463 184 558T607 657L839 660Q858 758 858 787Q858 878 805 921T658 965Q539 965 478 923T390
793L212 822Q257 969 368 1035T668 1102Q839 1102 938 1022T1038 807Q1038 743 1019 650L945 272Q934 224 934 184Q934 111 1015 111Q1042 111 1075 118L1061 6Q995 -10 933 -10ZM815 536L616 532Q497 529 429 511T324 464T265 392T243 286Q243 211 291 164T417
117Q514 117 592 158T721 267T788 411L815 536ZM540 1201L543 1221L796 1508H1013L1008 1479L634 1201H540Z" />
<glyph unicode="&#xe2;" glyph-name="acircumflex" horiz-adv-x="1139" d="M933 -10Q840 -10 798 28T755 143L760 207H754Q671 81 582 31T367 -20Q227 -20 140 64T52 278Q52 463 184 558T607 657L839 660Q858 758 858 787Q858 878 805 921T658 965Q539 965 478
923T390 793L212 822Q257 969 368 1035T668 1102Q839 1102 938 1022T1038 807Q1038 743 1019 650L945 272Q934 224 934 184Q934 111 1015 111Q1042 111 1075 118L1061 6Q995 -10 933 -10ZM815 536L616 532Q497 529 429 511T324 464T265 392T243 286Q243 211 291
164T417 117Q514 117 592 158T721 267T788 411L815 536ZM1007 1221L1003 1201H911L725 1370H723L458 1201H342L346 1221L632 1491H836L1007 1221Z" />
<glyph unicode="&#xe3;" glyph-name="atilde" horiz-adv-x="1139" d="M933 -10Q840 -10 798 28T755 143L760 207H754Q671 81 582 31T367 -20Q227 -20 140 64T52 278Q52 463 184 558T607 657L839 660Q858 758 858 787Q858 878 805 921T658 965Q539 965 478 923T390
793L212 822Q257 969 368 1035T668 1102Q839 1102 938 1022T1038 807Q1038 743 1019 650L945 272Q934 224 934 184Q934 111 1015 111Q1042 111 1075 118L1061 6Q995 -10 933 -10ZM815 536L616 532Q497 529 429 511T324 464T265 392T243 286Q243 211 291 164T417
117Q514 117 592 158T721 267T788 411L815 536ZM843 1201Q801 1201 763 1219T691 1260T624 1301T561 1320Q461 1320 419 1201H329Q376 1353 436 1411T580 1469Q624 1469 662 1451T734 1410T800 1369T861 1350Q962 1350 1002 1469H1094Q1059 1360 1027 1310T950
1230T843 1201Z" />
<glyph unicode="&#xe4;" glyph-name="adieresis" horiz-adv-x="1139" d="M933 -10Q840 -10 798 28T755 143L760 207H754Q671 81 582 31T367 -20Q227 -20 140 64T52 278Q52 463 184 558T607 657L839 660Q858 758 858 787Q858 878 805 921T658 965Q539 965 478 923T390
793L212 822Q257 969 368 1035T668 1102Q839 1102 938 1022T1038 807Q1038 743 1019 650L945 272Q934 224 934 184Q934 111 1015 111Q1042 111 1075 118L1061 6Q995 -10 933 -10ZM815 536L616 532Q497 529 429 511T324 464T265 392T243 286Q243 211 291 164T417
117Q514 117 592 158T721 267T788 411L815 536ZM787 1219L822 1403H995L960 1219H787ZM403 1219L438 1403H613L578 1219H403Z" />
<glyph unicode="&#xe5;" glyph-name="aring" horiz-adv-x="1139" d="M933 -10Q840 -10 798 28T755 143L760 207H754Q671 81 582 31T367 -20Q227 -20 140 64T52 278Q52 463 184 558T607 657L839 660Q858 758 858 787Q858 878 805 921T658 965Q539 965 478 923T390
793L212 822Q257 969 368 1035T668 1102Q839 1102 938 1022T1038 807Q1038 743 1019 650L945 272Q934 224 934 184Q934 111 1015 111Q1042 111 1075 118L1061 6Q995 -10 933 -10ZM815 536L616 532Q497 529 429 511T324 464T265 392T243 286Q243 211 291 164T417
117Q514 117 592 158T721 267T788 411L815 536ZM975 1410Q975 1310 904 1239T733 1168Q633 1168 562 1239T491 1410Q491 1511 562 1581T733 1651Q832 1651 903 1581T975 1410ZM867 1410Q867 1468 829 1506T733 1544Q674 1544 636 1505T598 1410Q598 1355 636 1314T733
1273Q791 1273 829 1313T867 1410Z" />
<glyph unicode="&#xe6;" glyph-name="ae" horiz-adv-x="1821" d="M989 503Q983 468 980 390Q980 257 1041 186T1224 115Q1311 115 1381 160T1496 294L1634 231Q1563 99 1457 40T1202 -20Q1051 -20 956 50T826 248Q729 109 609 45T347 -20Q252 -20 181 18T71 124T32
278Q32 463 167 557T601 657L839 660Q858 758 858 787Q858 965 650 965Q526 965 463 923T370 793L192 822Q239 969 354 1035T665 1102Q887 1102 990 944Q1114 1102 1335 1102Q1530 1102 1638 998T1746 708Q1746 660 1739 599T1723 503H989ZM814 534L608 530Q461
526 381 499T262 419T223 286Q223 209 269 163T394 117Q495 117 580 161T723 282T797 445L814 534ZM1563 641L1567 713Q1567 837 1508 903T1338 969Q1215 969 1131 884T1013 641H1563Z" />
<glyph unicode="&#xe7;" glyph-name="ccedilla" horiz-adv-x="1024" d="M469 122Q674 122 758 352L914 303Q793 -20 465 -20Q273 -20 170 89T67 395Q67 595 139 767T331 1020T625 1102Q794 1102 892 1017T1001 784L824 759Q818 856 764 908T619 961Q493 961 415
894T294 679T251 389Q251 122 469 122ZM452 -96Q533 -101 573 -137T614 -232Q614 -425 311 -425Q261 -425 205 -418L226 -327Q274 -333 314 -333Q405 -333 442 -311T480 -244Q480 -172 361 -172Q317 -172 303 -174L404 0H511L452 -96Z" />
<glyph unicode="&#xe8;" glyph-name="egrave" horiz-adv-x="1139" d="M256 503Q250 468 247 390Q247 257 313 186T514 115Q611 115 690 163T813 294L951 231Q878 100 766 40T493 -20Q292 -20 181 91T69 405Q69 606 140 765T340 1013T630 1102Q835 1102 949 999T1063
708Q1063 603 1039 503H256ZM880 641L884 713Q884 837 820 903T634 969Q500 969 409 884T280 641H880ZM710 1201L428 1479L433 1508H640L801 1221L798 1201H710Z" />
<glyph unicode="&#xe9;" glyph-name="eacute" horiz-adv-x="1139" d="M256 503Q250 468 247 390Q247 257 313 186T514 115Q611 115 690 163T813 294L951 231Q878 100 766 40T493 -20Q292 -20 181 91T69 405Q69 606 140 765T340 1013T630 1102Q835 1102 949 999T1063
708Q1063 603 1039 503H256ZM880 641L884 713Q884 837 820 903T634 969Q500 969 409 884T280 641H880ZM533 1201L536 1221L789 1508H1006L1001 1479L627 1201H533Z" />
<glyph unicode="&#xea;" glyph-name="ecircumflex" horiz-adv-x="1139" d="M256 503Q250 468 247 390Q247 257 313 186T514 115Q611 115 690 163T813 294L951 231Q878 100 766 40T493 -20Q292 -20 181 91T69 405Q69 606 140 765T340 1013T630 1102Q835 1102 949
999T1063 708Q1063 603 1039 503H256ZM880 641L884 713Q884 837 820 903T634 969Q500 969 409 884T280 641H880ZM1000 1221L996 1201H904L718 1370H716L451 1201H335L339 1221L625 1491H829L1000 1221Z" />
<glyph unicode="&#xeb;" glyph-name="edieresis" horiz-adv-x="1139" d="M256 503Q250 468 247 390Q247 257 313 186T514 115Q611 115 690 163T813 294L951 231Q878 100 766 40T493 -20Q292 -20 181 91T69 405Q69 606 140 765T340 1013T630 1102Q835 1102 949
999T1063 708Q1063 603 1039 503H256ZM880 641L884 713Q884 837 820 903T634 969Q500 969 409 884T280 641H880ZM762 1219L797 1403H970L935 1219H762ZM378 1219L413 1403H588L553 1219H378Z" />
<glyph unicode="&#xec;" glyph-name="igrave" horiz-adv-x="569" d="M89 0L299 1082H479L268 0H89ZM664 1201L382 1479L387 1508H594L755 1221L752 1201H664Z" />
<glyph unicode="&#xed;" glyph-name="iacute" horiz-adv-x="569" d="M89 0L299 1082H479L268 0H89ZM262 1201L265 1221L518 1508H735L730 1479L356 1201H262Z" />
<glyph unicode="&#xee;" glyph-name="icircumflex" horiz-adv-x="569" d="M89 0L299 1082H479L268 0H89ZM979 1221L975 1201H883L697 1370H695L430 1201H314L318 1221L604 1491H808L979 1221Z" />
<glyph unicode="&#xef;" glyph-name="idieresis" horiz-adv-x="569" d="M89 0L299 1082H479L268 0H89ZM770 1219L805 1403H978L943 1219H770ZM386 1219L421 1403H596L561 1219H386Z" />
<glyph unicode="&#xf0;" glyph-name="eth" horiz-adv-x="1139" d="M625 1328Q529 1418 430 1484H606Q683 1445 762 1382L1025 1484L1006 1376L837 1309Q954 1170 1004 1031T1054 728Q1054 518 990 337T805 71T491 -15Q292 -15 180 98T67 403Q67 563 131 700T314
908T605 979Q684 979 756 950T864 874Q845 987 801 1085T698 1249L425 1136L446 1256L625 1328ZM603 846Q483 846 407 790T291 617T251 388Q251 258 314 188T494 118Q588 118 653 152T762 256T833 440T859 635Q859 690 827 739T735 817T603 846Z" />
<glyph unicode="&#xf1;" glyph-name="ntilde" horiz-adv-x="1139" d="M717 0L843 645Q861 733 861 795Q861 962 682 962Q556 962 460 866T332 606L214 0H34L200 851Q220 946 239 1082H409Q409 1071 399 1005T381 897H384Q467 1012 550 1056T749 1101Q897 1101
971 1028T1046 817Q1046 753 1025 653L898 0H717ZM844 1201Q802 1201 764 1219T692 1260T625 1301T562 1320Q462 1320 420 1201H330Q377 1353 437 1411T581 1469Q625 1469 663 1451T735 1410T801 1369T862 1350Q963 1350 1003 1469H1095Q1060 1360 1028 1310T951
1230T844 1201Z" />
<glyph unicode="&#xf2;" glyph-name="ograve" horiz-adv-x="1139" d="M1080 683Q1080 553 1040 413T926 175T743 29T497 -20Q301 -20 187 98T73 419Q77 623 147 781T341 1020T648 1101Q858 1101 969 992T1080 683ZM894 683Q894 969 646 969Q511 969 430 900T303
689T258 416Q258 268 322 191T508 113Q611 113 673 147T783 255T859 443T894 683ZM720 1201L438 1479L443 1508H650L811 1221L808 1201H720Z" />
<glyph unicode="&#xf3;" glyph-name="oacute" horiz-adv-x="1139" d="M1080 683Q1080 553 1040 413T926 175T743 29T497 -20Q301 -20 187 98T73 419Q77 623 147 781T341 1020T648 1101Q858 1101 969 992T1080 683ZM894 683Q894 969 646 969Q511 969 430 900T303
689T258 416Q258 268 322 191T508 113Q611 113 673 147T783 255T859 443T894 683ZM533 1201L536 1221L789 1508H1006L1001 1479L627 1201H533Z" />
<glyph unicode="&#xf4;" glyph-name="ocircumflex" horiz-adv-x="1139" d="M1080 683Q1080 553 1040 413T926 175T743 29T497 -20Q301 -20 187 98T73 419Q77 623 147 781T341 1020T648 1101Q858 1101 969 992T1080 683ZM894 683Q894 969 646 969Q511 969 430 900T303
689T258 416Q258 268 322 191T508 113Q611 113 673 147T783 255T859 443T894 683ZM1009 1221L1005 1201H913L727 1370H725L460 1201H344L348 1221L634 1491H838L1009 1221Z" />
<glyph unicode="&#xf5;" glyph-name="otilde" horiz-adv-x="1139" d="M1080 683Q1080 553 1040 413T926 175T743 29T497 -20Q301 -20 187 98T73 419Q77 623 147 781T341 1020T648 1101Q858 1101 969 992T1080 683ZM894 683Q894 969 646 969Q511 969 430 900T303
689T258 416Q258 268 322 191T508 113Q611 113 673 147T783 255T859 443T894 683ZM814 1201Q772 1201 734 1219T662 1260T595 1301T532 1320Q432 1320 390 1201H300Q347 1353 407 1411T551 1469Q595 1469 633 1451T705 1410T771 1369T832 1350Q933 1350 973 1469H1065Q1030
1360 998 1310T921 1230T814 1201Z" />
<glyph unicode="&#xf6;" glyph-name="odieresis" horiz-adv-x="1139" d="M1080 683Q1080 553 1040 413T926 175T743 29T497 -20Q301 -20 187 98T73 419Q77 623 147 781T341 1020T648 1101Q858 1101 969 992T1080 683ZM894 683Q894 969 646 969Q511 969 430 900T303
689T258 416Q258 268 322 191T508 113Q611 113 673 147T783 255T859 443T894 683ZM774 1219L809 1403H982L947 1219H774ZM390 1219L425 1403H600L565 1219H390Z" />
<glyph unicode="&#xf7;" glyph-name="divide" horiz-adv-x="1124" d="M495 958V1141H663V958H495ZM82 608V754H1077V608H82ZM495 223V406H663V223H495Z" />
<glyph unicode="&#xf8;" glyph-name="oslash" horiz-adv-x="1251" d="M201 145Q125 254 125 419Q129 623 199 781T393 1020T700 1101Q862 1101 967 1034L1037 1116H1204L1058 947Q1132 844 1132 683Q1132 577 1106 467Q996 -15 549 -15Q395 -15 291 56L211 -38H44L201
145ZM310 416Q310 343 325 289L865 916Q802 969 698 969Q563 969 482 900T355 689T310 416ZM946 683Q946 749 932 800L392 173Q455 118 560 118Q696 118 773 184T895 386T946 683Z" />
<glyph unicode="&#xf9;" glyph-name="ugrave" horiz-adv-x="1139" d="M415 1082L289 437Q271 349 271 287Q271 120 450 120Q576 120 672 216T800 476L918 1082H1098L932 231Q912 136 893 0H723Q723 11 733 77T751 185H748Q665 70 582 26T383 -19Q235 -19 161 54T86
265Q86 329 107 429L234 1082H415ZM734 1201L452 1479L457 1508H664L825 1221L822 1201H734Z" />
<glyph unicode="&#xfa;" glyph-name="uacute" horiz-adv-x="1139" d="M415 1082L289 437Q271 349 271 287Q271 120 450 120Q576 120 672 216T800 476L918 1082H1098L932 231Q912 136 893 0H723Q723 11 733 77T751 185H748Q665 70 582 26T383 -19Q235 -19 161 54T86
265Q86 329 107 429L234 1082H415ZM541 1201L544 1221L797 1508H1014L1009 1479L635 1201H541Z" />
<glyph unicode="&#xfb;" glyph-name="ucircumflex" horiz-adv-x="1139" d="M415 1082L289 437Q271 349 271 287Q271 120 450 120Q576 120 672 216T800 476L918 1082H1098L932 231Q912 136 893 0H723Q723 11 733 77T751 185H748Q665 70 582 26T383 -19Q235 -19
161 54T86 265Q86 329 107 429L234 1082H415ZM1021 1221L1017 1201H925L739 1370H737L472 1201H356L360 1221L646 1491H850L1021 1221Z" />
<glyph unicode="&#xfc;" glyph-name="udieresis" horiz-adv-x="1139" d="M415 1082L289 437Q271 349 271 287Q271 120 450 120Q576 120 672 216T800 476L918 1082H1098L932 231Q912 136 893 0H723Q723 11 733 77T751 185H748Q665 70 582 26T383 -19Q235 -19 161
54T86 265Q86 329 107 429L234 1082H415ZM794 1219L829 1403H1002L967 1219H794ZM410 1219L445 1403H620L585 1219H410Z" />
<glyph unicode="&#xfd;" glyph-name="yacute" horiz-adv-x="1024" d="M16 -425Q-56 -425 -116 -411L-85 -277Q-40 -285 -8 -285Q87 -285 159 -221T302 -35L329 12L112 1082H295L407 484Q422 404 435 314T449 196Q459 218 475 250T928 1082H1127L501 0Q390 -193
323 -270T182 -386T16 -425ZM503 1201L506 1221L759 1508H976L971 1479L597 1201H503Z" />
<glyph unicode="&#xfe;" glyph-name="thorn" horiz-adv-x="1139" d="M554 -20Q431 -20 354 32T244 178H239Q229 92 210 -2L128 -425H-51L320 1484H500L417 1061Q409 1015 383 921H387Q460 1016 541 1059T741 1102Q898 1102 985 1008T1073 748Q1073 545 1012 355T839
72T554 -20ZM689 963Q590 963 520 923T400 801T323 597T295 377Q295 252 358 183T535 113Q659 113 731 188T844 428T885 716Q885 839 838 901T689 963Z" />
<glyph unicode="&#xff;" glyph-name="ydieresis" horiz-adv-x="1024" d="M16 -425Q-56 -425 -116 -411L-85 -277Q-40 -285 -8 -285Q87 -285 159 -221T302 -35L329 12L112 1082H295L407 484Q422 404 435 314T449 196Q459 218 475 250T928 1082H1127L501 0Q390 -193
323 -270T182 -386T16 -425ZM738 1219L773 1403H946L911 1219H738ZM354 1219L389 1403H564L529 1219H354Z" />
<glyph unicode="&#x2013;" glyph-name="endash" horiz-adv-x="1139" d="M-13 451L13 588H1151L1124 451H-13Z" />
<glyph unicode="&#x2014;" glyph-name="emdash" horiz-adv-x="2048" d="M-13 451L13 588H2061L2034 451H-13Z" />
<glyph unicode="&#x2018;" glyph-name="quoteleft" horiz-adv-x="455" d="M199 952L227 1098Q245 1194 278 1267T368 1409H489Q368 1274 343 1147H432L394 952H199Z" />
<glyph unicode="&#x2019;" glyph-name="quoteright" horiz-adv-x="455" d="M315 952H192Q311 1088 337 1212H249L287 1409H482L454 1264Q436 1169 403 1095T315 952Z" />
<glyph unicode="&#x201a;" glyph-name="quotesinglbase" horiz-adv-x="455" d="M117 -260H-6Q113 -124 139 0H51L89 197H284L256 52Q238 -41 206 -116T117 -260Z" />
<glyph unicode="&#x201c;" glyph-name="quotedblleft" horiz-adv-x="682" d="M480 952L508 1098Q526 1191 558 1266T647 1409H769Q649 1272 624 1147H712L674 952H480ZM148 952L176 1098Q194 1194 227 1267T317 1409H438Q317 1274 292 1147H381L343 952H148Z" />
<glyph unicode="&#x201d;" glyph-name="quotedblright" horiz-adv-x="682" d="M590 952H469Q589 1089 614 1214H526L564 1409H758L730 1264Q712 1171 681 1098T590 952ZM260 952H137Q257 1089 282 1214H194L232 1409H427L399 1264Q381 1169 348 1095T260 952Z" />
<glyph unicode="&#x201e;" glyph-name="quotedblbase" horiz-adv-x="682" d="M382 -262H261Q381 -125 406 0H318L356 195H550L522 50Q505 -41 474 -114T382 -262ZM52 -262H-71Q49 -125 74 0H-14L24 195H219L191 50Q173 -43 141 -118T52 -262Z" />
<glyph unicode="&#x2022;" glyph-name="bullet" horiz-adv-x="717" d="M652 682Q652 565 569 483T371 401Q260 401 179 483T97 682Q97 797 178 876T371 956Q486 956 569 877T652 682Z" />
<glyph unicode="&#x2039;" glyph-name="guilsinglleft" horiz-adv-x="682" d="M351 141L86 506L98 569L506 940H663L654 900L247 528L512 161L510 141H351Z" />
<glyph unicode="&#x203a;" glyph-name="guilsinglright" horiz-adv-x="682" d="M174 141H16L24 180L434 547L170 919L173 940H329L594 569L582 506L174 141Z" />
</font>
</defs>
</svg>
