<?xml version="1.0" standalone="no"?>
<!DOCTYPE svg PUBLIC "-//W3C//DTD SVG 1.1//EN" "http://www.w3.org/Graphics/SVG/1.1/DTD/svg11.dtd">
<svg xmlns="http://www.w3.org/2000/svg">
<defs >
<font id="MedulaOne" horiz-adv-x="256" ><font-face
    font-family="Medula One"
    units-per-em="1000"
    panose-1="2 0 0 0 0 0 0 0 0 0"
    ascent="846"
    descent="-162"
    alphabetic="0" />
<glyph unicode=" " glyph-name="space" horiz-adv-x="120" />
<glyph unicode="!" glyph-name="exclam" horiz-adv-x="148" d="M98 655Q114 655 114 638L104 250L108 156Q94 151 61 151Q45 151 45 168L35 556L31 650Q65 655 98 655ZM34 -10T34 41T76 92T118 41T76 -10Z" />
<glyph unicode="&quot;" glyph-name="quotedbl" horiz-adv-x="251" d="M119 642Q119 604 97 565T48 525Q32 525 20 529Q33 563 33 645Q33 697 76 697T119 642ZM236 642Q236 604 214 565T165 525Q149 525 137 529Q150 563 150 645Q150 697 193 697T236 642Z" />
<glyph unicode="#" glyph-name="numbersign" horiz-adv-x="446" d="M116 391Q91 391 66 386Q59 412 59 431T72 451H146L182 583L194 644Q230 660 250 660T266 645L213 451H293L329 583L341 644Q377 660 392 660Q417 660 413 645L360 451H375L427 456Q432 430 432
411T419 391H344L317 290H332L384 295Q389 269 389 250T376 230H301L258 67L247 6Q209 -10 196 -10Q170 -10 174 5L234 230H154L111 67L100 6Q62 -10 48 -10Q23 -10 27 5L87 230H73Q40 230 23 225Q16 251 16 270T29 290H103L130 391H116ZM197 391L170 290H250L277
391H197Z" />
<glyph unicode="$" glyph-name="dollar" horiz-adv-x="304" d="M187 -54Q187 -77 196 -115Q166 -131 142 -131T118 -116V-7Q75 -1 50 23T24 82V206Q24 224 50 231Q64 235 78 235T106 232Q103 208 103 181V96Q103 78 117 67T152 56T186 67T200 96V209Q200 248 173
265L67 334Q26 360 26 419V554Q26 596 50 622T118 657V704Q118 734 109 765Q139 781 163 781T187 766V657Q229 649 253 626T277 568V444Q277 426 251 419Q237 415 223 415T195 418Q198 442 198 469V554Q198 573 185 583T151 594T118 584T105 554V437Q105 402 128
388L234 320Q279 292 279 234V96Q279 54 255 28T187 -6V-54Z" />
<glyph unicode="%" glyph-name="percent" horiz-adv-x="473" d="M28 426V578Q28 617 52 638T117 660T180 640T203 581V429Q203 390 179 369T114 347T51 367T28 426ZM86 581V426Q86 412 94 404T115 395T136 404T145 426V581Q145 594 137 603T115 612T94 604T86
581ZM270 69V221Q270 260 294 281T359 303T422 283T445 224V72Q445 34 421 12T356 -10T293 10T270 69ZM328 224V69Q328 55 336 47T357 38T378 47T387 69V224Q387 237 379 246T357 255T336 247T328 224ZM442 650Q455 650 455 642Q455 639 453 635L132 77Q117 50
106 16Q64 0 41 0T18 7Q18 10 21 15L342 573Q360 604 369 634Q409 650 442 650Z" />
<glyph unicode="&amp;" glyph-name="ampersand" horiz-adv-x="375" d="M360 5Q360 -10 341 -10Q261 -10 234 13Q202 -10 152 -10T68 18T34 96V224Q34 269 63 293Q34 317 34 362V554Q34 604 68 632T158 660T248 635T281 568V494Q281 476 255 469Q241 465 227 465T199
468Q202 492 202 519V554Q202 594 158 594Q137 594 125 584T113 554V366Q113 348 124 337T155 326H208L218 381Q220 395 235 401T261 408T281 407V326H298L350 331Q355 305 355 286T342 266H281V96Q281 72 298 63T330 53T355 55Q360 29 360 5ZM206 92V260H159Q138
260 126 249T113 220V96Q113 77 125 67T158 56T192 65T206 92Z" />
<glyph unicode="&apos;" glyph-name="quotesingle" horiz-adv-x="135" d="M119 642Q119 604 97 565T48 525Q32 525 20 529Q33 563 33 645Q33 697 76 697T119 642Z" />
<glyph unicode="(" glyph-name="parenleft" horiz-adv-x="181" d="M168 650Q168 635 153 635T124 624T111 595V-50Q111 -67 126 -78T161 -90Q168 -112 168 -132T155 -152Q105 -152 71 -125T36 -50V591Q36 641 70 669T161 697Q168 675 168 650Z" />
<glyph unicode=")" glyph-name="parenright" horiz-adv-x="181" d="M13 -137Q13 -111 20 -90Q40 -90 55 -79T70 -50V595Q70 612 57 623T29 635T13 650Q13 676 20 697Q76 697 110 669T145 591V-50Q145 -98 111 -125T26 -152Q13 -152 13 -137Z" />
<glyph unicode="*" glyph-name="asterisk" horiz-adv-x="361" d="M143 646Q166 660 188 660T210 647L208 532L260 565Q287 584 301 598Q324 584 337 562Q341 555 341 549T335 540L233 485L288 456Q310 444 338 438Q336 407 326 390T304 379L207 438L210 378L217
326Q191 312 171 312T151 325L154 440L101 406L59 374Q35 390 27 403T19 421T26 431L126 485L71 514L22 534Q24 562 36 585Q45 599 55 592L154 531L151 595L143 646Z" />
<glyph unicode="+" glyph-name="plus" horiz-adv-x="278" d="M76 276Q43 276 26 271Q19 295 19 314T32 334H107V376L102 428Q132 433 151 433T171 420V334H202L254 339Q259 315 259 296T246 276H171V234Q171 209 176 184Q146 177 127 177T107 190V276H76Z" />
<glyph unicode="," glyph-name="comma" horiz-adv-x="137" d="M115 44Q115 0 95 -33T48 -66Q-8 -66 -6 -24Q29 -24 29 47Q29 104 72 104T115 44Z" />
<glyph unicode="-" glyph-name="hyphen" horiz-adv-x="268" d="M87 274Q54 274 37 269Q30 295 30 314T43 334H181L233 339Q238 313 238 294T225 274H87Z" />
<glyph unicode="." glyph-name="period" horiz-adv-x="132" d="M23 -10T23 47T66 104T109 47T66 -10Z" />
<glyph unicode="/" glyph-name="slash" horiz-adv-x="456" d="M432 697Q447 697 447 689Q447 686 445 682L112 -75Q98 -107 95 -136Q57 -152 33 -152T9 -143Q9 -140 10 -137L343 620Q355 649 361 681Q397 697 432 697Z" />
<glyph unicode="0" glyph-name="zero" horiz-adv-x="299" d="M36 92V554Q36 604 67 632T151 660T233 634T263 558V96Q263 46 232 18T147 -10T65 16T36 92ZM111 558V92Q111 75 122 64T149 52T177 63T188 92V558Q188 575 177 586T150 598T122 587T111 558Z" />
<glyph unicode="1" glyph-name="one" horiz-adv-x="259" d="M163 653Q193 653 193 632V60H194L246 65Q251 39 251 20T238 0H78L26 -5Q21 21 21 40T34 60H118V580L90 575Q55 569 33 554Q19 570 14 601Q14 604 14 606Q14 617 26 620L153 652Q158 653 163 653Z" />
<glyph unicode="2" glyph-name="two" horiz-adv-x="287" d="M108 60H212L264 65Q269 39 269 20T256 0H55Q42 0 32 10T22 59T39 150T80 247T128 338Q186 447 186 555Q186 596 144 596Q124 596 113 586T102 556V509L105 458Q92 455 79 455T52 459Q27 466 27 484V566Q27
609 58 634T142 660Q262 660 262 572Q262 443 208 334Q185 289 162 248Q108 147 108 60Z" />
<glyph unicode="3" glyph-name="three" horiz-adv-x="287" d="M137 279H87Q74 279 74 293Q74 314 81 347Q97 342 130 342H143Q160 342 170 353T180 382V555Q180 596 141 596T101 556V509L104 458Q91 455 78 455T51 459Q26 466 26 484V566Q26 610 54 635T135 660Q253
660 253 572V380Q253 335 226 311Q253 287 253 242V96Q253 46 222 18T140 -10T57 16T26 84V146Q26 164 50 171Q64 175 77 175T103 172Q101 148 101 121V92Q101 74 112 63T139 52T167 63T178 92V239Q178 258 167 268T137 279Z" />
<glyph unicode="4" glyph-name="four" horiz-adv-x="318" d="M196 568Q196 606 189 650Q219 654 254 654Q271 654 271 639V83Q271 62 278 53T307 44Q308 18 294 4T251 -10T210 7T196 63V242H44V567Q44 588 37 597T8 606Q7 631 22 645T66 660T106 644T119 591V302H196V568Z"
/>
<glyph unicode="5" glyph-name="five" horiz-adv-x="280" d="M112 384H141Q194 384 223 358T253 282V96Q253 46 222 18T140 -10T57 16T26 84V146Q26 164 50 171Q64 175 77 175T103 172Q101 148 101 121V92Q101 74 112 63T139 52T167 63T178 92V279Q178 298 167
308T137 319H96L37 316V585Q32 611 32 630T45 650H190L242 655Q247 629 247 610T234 590H112V384Z" />
<glyph unicode="6" glyph-name="six" horiz-adv-x="294" d="M111 75T122 64T150 52T177 63T188 92V305Q188 339 158 339T111 308V92Q111 75 122 64ZM111 554V382Q142 408 175 408Q263 408 263 306V96Q263 46 232 18T148 -10T66 16T36 92V561Q36 660 148 660Q200
660 231 638T263 575V493Q263 476 239 470Q227 466 214 466T187 469Q190 491 190 516V549Q190 596 151 596T111 554Z" />
<glyph unicode="7" glyph-name="seven" horiz-adv-x="272" d="M83 590Q45 590 21 584Q12 602 12 634Q12 650 28 650H256Q261 621 261 582T245 475T200 348Q117 180 117 84Q117 62 123 55T151 47Q151 -10 84 -10Q59 -10 45 8T31 59Q31 122 54 195T105 324T156 454T180
590H83Z" />
<glyph unicode="8" glyph-name="eight" horiz-adv-x="294" d="M35 379V554Q35 604 65 632T149 660T231 634T260 558V383Q260 338 229 310Q261 285 261 237V96Q261 46 230 18T145 -10T63 16T34 92V233Q34 282 64 306Q35 333 35 379ZM110 558V378Q110 361 121 350T148
338T174 349T185 378V558Q185 575 174 586T147 598T121 587T110 558ZM109 238V92Q109 75 120 64T147 52T175 63T186 92V238Q186 255 175 266T148 278T120 267T109 238Z" />
<glyph unicode="9" glyph-name="nine" horiz-adv-x="294" d="M183 575T172 586T144 598T117 587T106 558V345Q106 311 135 311Q166 311 183 342V558Q183 575 172 586ZM183 96V268Q155 242 117 242Q31 242 31 344V554Q31 604 62 632T146 660T228 634T258 558V89Q258
-10 146 -10Q94 -10 63 12T31 75V157Q31 174 55 180Q67 184 80 184T107 181Q104 159 104 134V101Q104 54 143 54T183 96Z" />
<glyph unicode=":" glyph-name="colon" horiz-adv-x="152" d="M33 300T33 357T76 414T119 357T76 300ZM33 75T33 132T76 189T119 132T76 75Z" />
<glyph unicode=";" glyph-name="semicolon" horiz-adv-x="170" d="M53 300T53 357T96 414T139 357T96 300ZM139 129Q139 85 119 52T72 19Q16 19 18 61Q53 61 53 132Q53 189 96 189T139 129Z" />
<glyph unicode="&lt;" glyph-name="less" horiz-adv-x="384" d="M363 50Q353 18 339 4T318 -10T308 -6L11 282L264 525Q281 542 301 575Q333 565 350 548T357 520L105 281L313 87Q336 66 363 50Z" />
<glyph unicode="=" glyph-name="equal" horiz-adv-x="264" d="M90 220Q57 220 40 215Q33 241 33 260T46 280H174L226 285Q231 259 231 240T218 220H90ZM90 330Q57 330 40 325Q33 351 33 370T46 390H174L226 395Q231 369 231 350T218 330H90Z" />
<glyph unicode="&gt;" glyph-name="greater" horiz-adv-x="383" d="M21 512Q31 544 45 558T66 572T76 568L373 280L120 37Q102 20 83 -13Q51 -3 34 14T27 42L279 281L71 475Q48 496 21 512Z" />
<glyph unicode="?" glyph-name="question" horiz-adv-x="260" d="M62 -149T62 -92T105 -35T148 -92T105 -149ZM65 14V120Q65 178 108 202L144 222Q166 234 166 269V394Q166 436 126 436Q88 436 88 389V374L91 327Q78 324 65 324T39 328Q15 334 15 351V414Q15 454
44 477T128 500T212 473T241 401V252Q241 195 202 171L166 149Q140 133 140 96L144 2Q114 -3 81 -3Q65 -3 65 14Z" />
<glyph unicode="@" glyph-name="at" horiz-adv-x="525" d="M276 422Q261 422 251 413T239 389L221 102Q220 72 246 72Q259 72 271 82T288 103L309 422H276ZM125 -82H367L415 -77L417 -123Q415 -137 404 -137H119Q70 -137 46 -117T22 -61Q22 -56 22 -52L61 562Q64
604 94 627T172 650H408Q456 650 481 628T507 568Q507 565 507 562L478 89Q474 4 380 4Q323 4 302 44Q273 12 233 12T175 33T156 90Q156 95 156 101L174 386Q177 430 205 454T280 478H378L353 93Q353 90 353 87Q353 59 381 59T412 92L442 562Q443 578 433 586T405
595H167Q128 595 126 562L88 -49Q87 -65 97 -73T125 -82Z" />
<glyph unicode="A" glyph-name="A" horiz-adv-x="327" d="M36 12V554Q36 604 70 632T163 660T254 634T287 558V85Q287 64 295 56T325 47Q325 -10 261 -10Q208 -10 208 59V250H115V94L119 0Q85 -5 52 -5Q36 -5 36 12ZM115 554V316H208V554Q208 573 195 583T161
594T128 584T115 554Z" />
<glyph unicode="B" glyph-name="B" horiz-adv-x="329" d="M43 0V553Q43 575 35 584T6 594Q5 620 20 635T68 650T115 617Q154 650 195 650Q294 650 294 552V377Q294 331 265 307Q299 284 299 231V106Q299 56 265 28T171 0H43ZM176 584Q149 584 122 557V337H171Q191
337 203 348T215 377V546Q215 584 176 584ZM122 271V66H173Q194 66 207 76T220 106V231Q220 250 207 260T173 271H122Z" />
<glyph unicode="C" glyph-name="C" horiz-adv-x="311" d="M284 46T249 18T156 -10T66 16T33 92V554Q33 604 67 632T158 660T250 635T284 568V444Q284 426 258 419Q244 415 230 415T202 418Q205 442 205 469V554Q205 573 192 583T158 594T125 584T112 554V96Q112
78 124 67T158 56T192 66T205 96V118L202 169Q216 172 230 172T258 168Q284 161 284 143V88Q284 46 249 18Z" />
<glyph unicode="D" glyph-name="D" horiz-adv-x="327" d="M176 584Q149 584 122 557V66H168Q189 66 202 76T215 106V546Q215 584 176 584ZM195 650Q294 650 294 552V106Q294 56 260 28T166 0H43V553Q43 575 35 584T6 594Q5 620 20 635T68 650T115 617Q154 650 195 650Z" />
<glyph unicode="E" glyph-name="E" horiz-adv-x="306" d="M168 338Q204 338 222 343Q230 315 230 288Q230 272 216 272H157Q136 272 124 261T111 232V96Q111 77 123 67T157 56T191 66T204 96V121L201 172Q215 175 229 175T257 171Q283 164 283 146V82Q283 41 249
16T158 -10T66 18T32 96V236Q32 281 61 305Q32 329 32 374V554Q32 604 66 632T156 660T246 635T279 568V484Q279 466 253 459Q239 455 225 455T197 458Q200 482 200 509V554Q200 594 156 594Q135 594 123 584T111 554V378Q111 360 122 349T153 338H168Z" />
<glyph unicode="F" glyph-name="F" horiz-adv-x="260" d="M171 348Q207 348 225 353Q233 325 233 298Q233 282 219 282H121V85Q121 64 129 56T159 47Q159 -10 95 -10Q42 -10 42 59V553Q42 575 34 584T5 594Q4 620 19 635T62 650H189L239 655Q247 627 247 600Q247
584 233 584H121V348H171Z" />
<glyph unicode="G" glyph-name="G" horiz-adv-x="327" d="M207 241Q180 241 153 236Q145 264 145 291Q145 307 159 307H286V85Q286 64 294 55T323 46Q324 20 310 5T268 -10Q226 -10 214 21Q186 -10 137 -10Q35 -10 35 86V554Q35 604 69 632T160 660T252 635T286
568V454Q286 436 260 429Q246 425 232 425T204 428Q207 452 207 479V554Q207 573 194 583T160 594T127 584T114 554V92Q114 56 150 56T207 91V241Z" />
<glyph unicode="H" glyph-name="H" horiz-adv-x="337" d="M43 12V564Q43 585 35 593T5 602Q5 659 69 659Q122 659 122 590V329H215V556L211 650Q245 655 278 655Q294 655 294 638V85Q294 64 302 56T332 47Q332 -10 268 -10Q215 -10 215 59V263H122V94L126 0Q92
-5 59 -5Q43 -5 43 12Z" />
<glyph unicode="I" glyph-name="I" horiz-adv-x="153" d="M37 12V556L33 650Q67 655 100 655Q116 655 116 638V94L120 0Q86 -5 53 -5Q37 -5 37 12Z" />
<glyph unicode="J" glyph-name="J" horiz-adv-x="317" d="M102 584Q66 584 48 579Q40 607 40 634Q40 650 54 650H281V96Q281 46 247 18T156 -10T64 15T30 82V206Q30 224 56 231Q70 235 84 235T112 232Q109 208 109 181V96Q109 77 122 67T156 56T189 66T202 96V584H102Z" />
<glyph unicode="K" glyph-name="K" horiz-adv-x="338" d="M215 568Q215 617 208 650Q242 654 277 654Q294 654 294 639V380Q294 335 262 309Q294 284 294 238V85Q294 64 302 56T332 47Q332 -10 268 -10Q215 -10 215 59V234Q215 252 202 263T167 274H122V82Q122
44 129 0Q95 -4 60 -4Q43 -4 43 11V565Q43 586 35 594T5 603Q5 660 69 660Q122 660 122 591V340H167Q187 340 201 351T215 380V568Z" />
<glyph unicode="L" glyph-name="L" horiz-adv-x="252" d="M186 66Q222 66 240 71Q248 43 248 16Q248 0 234 0H37V556L33 650Q67 655 100 655Q116 655 116 638V66H186Z" />
<glyph unicode="M" glyph-name="M" horiz-adv-x="504" d="M175 584Q148 584 121 557V94L125 0Q91 -5 58 -5Q42 -5 42 12V553Q42 575 34 584T5 594Q4 620 19 635T67 650T114 617Q153 650 194 650Q255 650 278 612Q319 650 364 650Q463 650 463 552V85Q463 64 471
56T501 47Q501 -10 437 -10Q384 -10 384 59V546Q384 584 345 584Q314 584 293 559V94L297 0Q263 -5 230 -5Q214 -5 214 12V546Q214 584 175 584Z" />
<glyph unicode="N" glyph-name="N" horiz-adv-x="334" d="M175 584Q148 584 121 557V94L125 0Q91 -5 58 -5Q42 -5 42 12V553Q42 575 34 584T5 594Q4 620 19 635T67 650T114 617Q153 650 194 650Q293 650 293 552V85Q293 64 301 56T331 47Q331 -10 267 -10Q214
-10 214 59V546Q214 584 175 584Z" />
<glyph unicode="O" glyph-name="O" horiz-adv-x="317" d="M33 92V554Q33 604 67 632T160 660T251 634T284 558V96Q284 46 250 18T156 -10T65 16T33 92ZM112 554V96Q112 78 124 67T158 56T192 66T205 96V554Q205 573 192 583T158 594T125 584T112 554Z" />
<glyph unicode="P" glyph-name="P" horiz-adv-x="318" d="M42 12V553Q42 575 34 584T5 594Q4 620 19 635T67 650T114 617Q153 650 194 650Q293 650 293 552V306Q293 256 259 228T165 200H121V94L125 0Q91 -5 58 -5Q42 -5 42 12ZM175 584Q148 584 121 557V266H167Q188
266 201 276T214 306V546Q214 584 175 584Z" />
<glyph unicode="Q" glyph-name="Q" horiz-adv-x="317" d="M33 92V554Q33 604 67 632T160 660T251 634T284 558V96Q284 13 198 -5L206 -52Q211 -84 237 -84Q245 -84 256 -80Q260 -92 260 -108T244 -141T202 -158Q142 -158 134 -107L117 -7Q33 9 33 92ZM112 554V96Q112
78 124 67T158 56T192 66T205 96V554Q205 573 192 583T158 594T125 584T112 554Z" />
<glyph unicode="R" glyph-name="R" horiz-adv-x="331" d="M42 12V553Q42 575 34 584T5 594Q4 620 19 635T67 650T114 617Q153 650 194 650Q293 650 293 552V320Q293 257 240 230L261 96Q266 64 292 64Q300 64 311 68Q315 56 315 40T299 7T256 -10Q197 -10 189
41L160 214H121V94L125 0Q91 -5 58 -5Q42 -5 42 12ZM175 584Q148 584 121 557V280H167Q188 280 201 290T214 320V546Q214 584 175 584Z" />
<glyph unicode="S" glyph-name="S" horiz-adv-x="314" d="M31 419V554Q31 604 65 632T156 660T248 635T282 568V444Q282 426 256 419Q242 415 228 415T200 418Q203 442 203 469V554Q203 573 190 583T156 594T123 584T110 554V437Q110 402 133 388L239 320Q284
292 284 234V96Q284 46 249 18T157 -10T64 15T29 82V206Q29 224 55 231Q69 235 83 235T111 232Q108 208 108 181V96Q108 78 122 67T157 56T191 67T205 96V209Q205 248 178 265L72 334Q31 360 31 419Z" />
<glyph unicode="T" glyph-name="T" horiz-adv-x="279" d="M209 650Q245 650 263 655Q271 627 271 600Q271 584 257 584H179V94L183 0Q149 -5 116 -5Q100 -5 100 12V584H70Q34 584 16 579Q8 607 8 634Q8 650 22 650H209Z" />
<glyph unicode="U" glyph-name="U" horiz-adv-x="334" d="M213 568Q213 617 206 650Q240 654 275 654Q292 654 292 639V85Q292 64 300 55T329 46Q330 20 316 5T274 -10Q232 -10 220 21Q192 -10 143 -10Q41 -10 41 86V565Q41 586 33 594T3 603Q3 660 67 660Q120
660 120 591V92Q120 56 156 56T213 91V568Z" />
<glyph unicode="V" glyph-name="V" horiz-adv-x="326" d="M186 159T203 314T221 543T214 650Q251 654 284 654Q303 654 303 634Q303 507 282 328T233 48Q219 0 191 0H132Q101 0 90 48Q36 280 36 565Q36 586 28 594T-2 603Q-2 660 64 660Q117 660 117 591Q117 458
129 304T164 60Q186 159 203 314Z" />
<glyph unicode="W" glyph-name="W" horiz-adv-x="496" d="M381 568Q381 617 374 650Q408 654 443 654Q460 654 460 639V96Q460 46 426 18T334 -10T247 18Q219 -10 162 -10T73 16T41 92V565Q41 586 33 594T3 603Q3 660 67 660Q120 660 120 591V96Q120 77 132 67T165
56T198 65T211 92V568Q211 617 204 650Q238 654 273 654Q290 654 290 639V96Q290 77 302 67T335 56T368 66T381 96V568Z" />
<glyph unicode="X" glyph-name="X" horiz-adv-x="339" d="M216 568Q216 606 209 650Q243 654 278 654Q295 654 295 639V379Q295 334 263 308Q295 283 295 237V85Q295 64 303 56T333 47Q333 -10 269 -10Q216 -10 216 59V233Q216 251 203 262T169 273T136 262T123
233V82Q123 33 130 0Q96 -4 61 -4Q44 -4 44 11V233Q44 279 74 304Q44 327 44 375V565Q44 586 36 594T6 603Q6 660 70 660Q123 660 123 591V379Q123 361 136 350T168 339T202 350T216 379V568Z" />
<glyph unicode="Y" glyph-name="Y" horiz-adv-x="330" d="M215 568Q215 617 208 650Q242 654 277 654Q294 654 294 639V96Q294 46 260 18T169 -10T77 15T43 82V150Q43 168 69 175Q83 179 97 179T125 176Q122 152 122 125V96Q122 77 135 67T169 56T202 66T215 96V252Q189
226 145 226Q43 226 43 322V565Q43 586 35 594T5 603Q5 660 69 660Q122 660 122 591V328Q122 292 158 292T215 327V568Z" />
<glyph unicode="Z" glyph-name="Z" horiz-adv-x="285" d="M197 66Q235 66 261 72Q267 52 267 20Q267 0 251 0H22Q17 28 17 59T26 139T61 245T114 358Q181 496 181 584H93Q55 584 31 578Q22 598 22 630Q22 650 38 650H262Q266 624 266 585T248 475T196 342Q105
167 102 66H197Z" />
<glyph unicode="[" glyph-name="bracketleft" horiz-adv-x="221" d="M147 697Q173 697 201 702Q209 678 209 651Q209 635 195 635H113V-90H147Q183 -90 201 -85Q209 -109 209 -136Q209 -152 195 -152H38V697H147Z" />
<glyph unicode="\" glyph-name="backslash" horiz-adv-x="468" d="M8 681Q32 697 58 697T92 682L425 -75Q434 -95 454 -128L460 -136Q438 -152 411 -152T377 -137L44 620Q33 645 14 672L8 681Z" />
<glyph unicode="]" glyph-name="bracketright" horiz-adv-x="221" d="M108 -90V635H26Q12 635 12 649Q12 674 20 702Q37 697 74 697H183V-152H26Q12 -152 12 -138Q12 -111 20 -85Q37 -90 74 -90H108Z" />
<glyph unicode="^" glyph-name="asciicircum" horiz-adv-x="259" d="M62 513Q20 528 20 539Q20 542 22 545L75 642L90 676Q100 684 127 684T168 677Q173 662 184 642L237 545Q239 542 239 538T234 531L197 513Q192 526 180 543L129 618L79 543L62 513Z" />
<glyph unicode="_" glyph-name="underscore" horiz-adv-x="270" d="M80 -9Q47 -9 30 -14Q23 8 23 27T36 47H190L242 52Q247 30 247 11T234 -9H80Z" />
<glyph unicode="`" glyph-name="grave" horiz-adv-x="287" d="M233 560Q235 557 235 553T230 546L194 528Q187 541 176 558L118 643Q115 648 115 652Q115 659 140 669T176 683L186 686Q190 663 199 642L233 560Z" />
<glyph unicode="a" glyph-name="a" horiz-adv-x="296" d="M133 183Q100 161 100 110T131 58T181 94V215L133 183ZM144 500Q256 500 256 401V83Q256 62 263 53T292 44Q293 18 279 4T237 -10Q195 -10 186 21Q155 -10 113 -10T46 22T21 108Q21 190 90 232L181 286V394Q181
436 142 436T102 389V356L105 309Q92 306 79 306T53 310Q29 316 29 333V415Q29 455 60 477T144 500Z" />
<glyph unicode="b" glyph-name="b" horiz-adv-x="295" d="M36 620Q36 650 27 681Q57 697 91 697Q111 697 111 682V474Q142 500 175 500Q263 500 263 398V106Q263 56 232 28T148 0H36V620ZM111 64H150Q167 64 177 74T188 102V397Q188 431 158 431T111 400V64Z" />
<glyph unicode="c" glyph-name="c" horiz-adv-x="280" d="M224 101Q264 83 264 49Q264 38 255 31Q215 -10 134 -10Q32 -10 32 102V402Q32 500 148 500Q199 500 228 477T257 415V333Q257 316 233 310Q221 306 208 306T181 309Q184 331 184 356V389Q184 414 175
425T144 436Q107 436 107 405V114Q107 83 117 69T150 55T196 70T224 101Z" />
<glyph unicode="d" glyph-name="d" horiz-adv-x="302" d="M184 426H145Q128 426 118 416T107 388V93Q107 58 136 58Q151 58 164 69T184 94V426ZM184 620Q184 650 175 681Q205 697 239 697Q259 697 259 682V83Q259 62 266 53T295 44Q296 18 282 4T240 -10Q200 -10
189 21Q158 -10 119 -10T56 16T32 92V384Q32 434 63 462T147 490H184V620Z" />
<glyph unicode="e" glyph-name="e" horiz-adv-x="285" d="M186 393Q186 413 174 424T144 436Q107 436 107 405V262L155 298Q186 321 186 393ZM32 89V402Q32 500 147 500T263 390Q263 346 247 309T203 253L107 187V96Q107 54 146 54T186 101V124L183 171Q196 174
209 174T235 170Q259 164 259 147V75Q259 35 228 13T144 -10Q32 -10 32 89Z" />
<glyph unicode="f" glyph-name="f" horiz-adv-x="248" d="M124 82Q124 44 131 2Q101 -4 66 -4Q49 -4 49 11V410L18 405Q11 431 11 450T24 470H49V601Q49 646 76 673T155 700T237 678T268 615V564Q268 547 244 540Q232 537 219 537T192 540Q195 562 195 587V593Q195
615 187 625T159 636T131 625T124 591V470H174L226 475Q231 449 231 430T218 410H124V82Z" />
<glyph unicode="g" glyph-name="g" horiz-adv-x="287" d="M150 67H170Q220 67 246 38T272 -44Q272 -152 174 -152H124Q74 -152 48 -123T22 -40Q22 33 75 57V127Q28 152 28 216V384Q28 434 59 462T143 490H194L255 494V220Q255 172 227 145T150 114V67ZM103 388V216Q103
199 114 188T141 176T169 187T180 216V426H141Q124 426 114 416T103 388ZM173 4H121Q94 4 94 -42T121 -89H173Q200 -89 200 -43T173 4Z" />
<glyph unicode="h" glyph-name="h" horiz-adv-x="304" d="M36 620Q36 650 27 681Q57 697 91 697Q111 697 111 682V474Q142 500 179 500T239 475T263 404V83Q263 62 270 53T299 44Q300 18 286 4T243 -10T202 7T188 63V398Q188 431 154 431Q126 431 111 400V82Q111
34 118 2Q88 -4 53 -4Q36 -4 36 11V620Z" />
<glyph unicode="i" glyph-name="i" horiz-adv-x="163" d="M38 581T38 638T81 695T124 638T81 581ZM19 490H119V83Q119 62 126 53T155 44Q156 18 142 4T99 -10T58 7T44 63V430L13 425Q6 451 6 470T19 490Z" />
<glyph unicode="j" glyph-name="j" horiz-adv-x="229" d="M112 586T112 643T155 700T198 643T155 586ZM87 -162Q-18 -162 -18 -86V-44Q-18 -27 6 -20Q18 -17 31 -17T58 -20Q55 -42 55 -67V-72Q55 -98 86 -98T118 -63V430L11 425Q4 451 4 470T17 490H193V-71Q193
-116 164 -139T87 -162Z" />
<glyph unicode="k" glyph-name="k" horiz-adv-x="306" d="M188 408Q188 446 181 490Q211 494 246 494Q263 494 263 479V297Q263 251 233 224Q263 199 263 151V83Q263 62 270 53T299 44Q300 19 285 5T241 -10T201 6T188 59V152Q188 170 177 181T148 192H111V82Q111
34 118 2Q88 -4 53 -4Q36 -4 36 11V620Q36 650 27 681Q57 697 91 697Q111 697 111 682V252H150Q165 252 176 263T188 292V408Z" />
<glyph unicode="l" glyph-name="l" horiz-adv-x="156" d="M37 620Q37 643 28 681Q58 697 92 697Q112 697 112 682V83Q112 62 119 53T148 44Q149 18 135 4T92 -10T51 7T37 63V620Z" />
<glyph unicode="m" glyph-name="m" horiz-adv-x="456" d="M119 82Q119 33 126 0Q96 -4 61 -4Q44 -4 44 11V407Q44 428 37 437T8 446Q7 472 21 486T68 500T114 469Q145 500 188 500T254 461Q288 500 329 500T393 475T415 404V83Q415 62 422 53T451 44Q452 18 438
4T395 -10T354 7T340 63V398Q340 431 309 431Q282 431 267 400V82Q267 33 274 0Q244 -4 209 -4Q192 -4 192 11V398Q192 431 161 431Q134 431 119 400V82Z" />
<glyph unicode="n" glyph-name="n" horiz-adv-x="312" d="M119 82Q119 33 126 0Q96 -4 61 -4Q44 -4 44 11V407Q44 428 37 437T8 446Q7 472 21 486T68 500T114 469Q147 500 185 500T247 475T271 404V83Q271 62 278 53T307 44Q308 18 294 4T251 -10T210 7T196 63V398Q196
431 162 431Q134 431 119 400V82Z" />
<glyph unicode="o" glyph-name="o" horiz-adv-x="291" d="M32 92V394Q32 444 63 472T147 500T229 474T259 398V96Q259 46 228 18T143 -10T61 16T32 92ZM107 398V92Q107 75 118 64T145 52T173 63T184 92V398Q184 415 173 426T146 438T118 427T107 398Z" />
<glyph unicode="p" glyph-name="p" horiz-adv-x="303" d="M119 64H158Q175 64 185 74T196 102V397Q196 432 167 432Q152 432 139 421T119 396V64ZM119 0V-80L126 -146Q99 -157 64 -157Q44 -157 44 -142V407Q44 428 37 437T8 446Q7 472 21 486T68 500T114 469Q145
500 184 500T247 474T271 398V106Q271 56 240 28T156 0H119Z" />
<glyph unicode="q" glyph-name="q" horiz-adv-x="295" d="M184 426H145Q128 426 118 416T107 388V93Q107 59 137 59T184 90V426ZM259 490V-80L266 -146Q239 -157 204 -157Q184 -157 184 -142V16Q153 -10 120 -10Q32 -10 32 92V384Q32 434 63 462T147 490H259Z" />
<glyph unicode="r" glyph-name="r" horiz-adv-x="280" d="M119 82Q119 34 126 2Q96 -4 61 -4Q44 -4 44 11V407Q44 428 37 437T8 446Q7 472 21 486T63 500Q103 500 113 460Q138 500 184 500Q266 500 266 421V321Q266 304 242 298Q230 294 217 294T190 297Q193 319
193 344V395Q193 428 163 428Q149 428 137 415T119 386V82Z" />
<glyph unicode="s" glyph-name="s" horiz-adv-x="279" d="M98 99Q98 54 138 54T179 103V144Q179 181 153 197L65 250Q26 274 26 331V401Q26 445 54 472T138 500T223 477T252 414V351Q252 334 228 328Q216 324 203 324T176 327Q179 349 179 374V389Q179 436 141
436Q101 436 101 394V348Q101 313 123 301L211 250Q254 226 254 168V93Q254 45 226 18T142 -10T56 12T25 75V141Q25 158 49 164Q61 168 74 168T101 165Q98 143 98 118V99Z" />
<glyph unicode="t" glyph-name="t" horiz-adv-x="283" d="M269 35T237 13T156 -10T77 15T47 84V430L16 425Q9 451 9 470T22 490H49L63 584Q67 606 100 606Q110 606 122 604V490H209L261 495Q266 469 266 450T253 430H122V96Q122 75 132 64T159 52Q196 52 196 101V174L193
221Q206 224 219 224T245 220Q269 214 269 197V77Q269 35 237 13Z" />
<glyph unicode="u" glyph-name="u" horiz-adv-x="311" d="M192 408Q192 446 185 490Q215 494 250 494Q267 494 267 479V83Q267 62 274 53T303 44Q304 18 290 4T248 -10Q208 -10 197 21Q166 -10 127 -10T64 16T40 92V407Q40 428 33 437T4 446Q3 471 18 485T62 500T102
484T115 431V93Q115 58 144 58Q159 58 172 69T192 94V408Z" />
<glyph unicode="v" glyph-name="v" horiz-adv-x="301" d="M83 500T95 484T108 413T122 246T153 64Q199 269 199 427L197 492Q216 496 233 496T265 492T280 472Q280 387 260 252T215 36Q204 0 179 0H120Q95 0 84 36Q62 112 48 222T33 407Q33 428 26 437T-3 446Q-4
471 11 485T55 500Z" />
<glyph unicode="w" glyph-name="w" horiz-adv-x="453" d="M344 408Q344 446 337 490Q367 494 402 494Q419 494 419 479V96Q419 46 388 18T305 -10T226 17Q199 -10 149 -10T69 16T40 92V407Q40 428 33 437T4 446Q3 471 18 485T62 500T102 484T115 431V92Q115 75
126 64T153 52T180 61T192 86V408Q192 446 185 490Q215 494 250 494Q267 494 267 479V86Q267 71 277 62T305 52T333 63T344 92V408Z" />
<glyph unicode="x" glyph-name="x" horiz-adv-x="313" d="M195 408Q195 457 188 490Q218 494 253 494Q270 494 270 479V297Q270 251 240 224Q270 199 270 151V83Q270 62 277 53T306 44Q307 19 292 5T248 -10T208 6T195 59V152Q195 170 184 181T156 192T129 181T118
152V82Q118 44 125 0Q95 -4 60 -4Q43 -4 43 11V147Q43 195 73 220Q43 247 43 293V407Q43 428 36 437T7 446Q6 471 21 485T65 500T105 484T118 431V292Q118 274 129 263T156 252T184 264T195 292V408Z" />
<glyph unicode="y" glyph-name="y" horiz-adv-x="304" d="M193 408Q193 457 186 490Q216 494 251 494Q268 494 268 479V-71Q268 -116 237 -139T152 -162T70 -142T41 -87V-50Q41 -33 65 -26Q77 -23 90 -23T117 -26Q114 -50 114 -68V-73Q114 -98 153 -98T193 -63V36Q168
11 129 11T65 36T41 111V407Q41 428 34 437T5 446Q4 471 19 485T63 500T103 484T116 431V112Q116 79 142 79Q156 79 171 88T193 110V408Z" />
<glyph unicode="z" glyph-name="z" horiz-adv-x="254" d="M77 430Q44 430 27 425Q20 451 20 470T33 490H232Q237 470 237 443T223 366T180 267Q100 131 97 60H179L231 65Q236 39 236 20T223 0H20Q15 19 15 46T30 122T74 221Q154 356 154 430H77Z" />
<glyph unicode="{" glyph-name="braceleft" horiz-adv-x="241" d="M231 651Q231 635 214 635T184 625T171 595V319Q171 274 144 250Q171 226 171 181V-50Q171 -69 183 -79T217 -90Q224 -112 224 -132T211 -152Q158 -152 127 -124T96 -46V178Q96 197 85 207T55
218H18Q5 218 5 232Q5 262 12 286Q28 281 62 281T96 321V591Q96 697 222 697Q231 678 231 651Z" />
<glyph unicode="|" glyph-name="bar" horiz-adv-x="145" d="M107 -75Q107 -98 116 -136Q86 -152 62 -152T38 -137V620Q38 650 29 681Q59 697 83 697T107 682V-75Z" />
<glyph unicode="}" glyph-name="braceright" horiz-adv-x="240" d="M24 635Q10 635 10 656T19 697Q145 697 145 591V321Q145 281 180 281L229 286Q236 261 236 240T223 218H186Q167 218 156 208T145 178V-46Q145 -96 114 -124T30 -152Q17 -152 17 -137Q17 -111
24 -90Q45 -90 57 -80T70 -50V181Q70 226 97 250Q70 274 70 319V595Q70 614 58 624T24 635Z" />
<glyph unicode="~" glyph-name="asciitilde" horiz-adv-x="339" d="M64 255Q26 259 26 294Q26 298 27 303Q32 340 73 340Q79 340 87 339L245 318Q248 318 251 318Q272 318 276 343Q295 342 304 330T313 308Q313 258 266 258Q260 258 252 259L95 281Q92 281 89
281Q69 281 64 255Z" />
<glyph unicode="&#xa0;" glyph-name="uni00A0" horiz-adv-x="120" />
<glyph unicode="&#xa1;" glyph-name="exclamdown" horiz-adv-x="147" d="M49 -5Q33 -5 33 12L43 400L39 494Q53 499 86 499Q102 499 102 482L112 94L116 0Q82 -5 49 -5ZM113 660T113 609T71 558T29 609T71 660Z" />
<glyph unicode="&#xa2;" glyph-name="cent" horiz-adv-x="273" d="M180 -55Q180 -85 189 -116Q159 -132 135 -132T111 -117V-9Q25 -1 25 102V402Q25 487 111 498V550Q111 573 102 611Q132 627 156 627T180 612V495Q213 488 231 467T250 415V333Q250 316 226 310Q214
306 201 306T174 309Q177 331 177 356V389Q177 414 168 425T137 436Q100 436 100 405V114Q100 83 110 69T143 55T189 70T217 101Q257 83 257 49Q257 38 248 31Q221 4 180 -5V-55Z" />
<glyph unicode="&#xa3;" glyph-name="sterling" horiz-adv-x="311" d="M75 294Q42 294 25 289Q18 315 18 334T31 354H75V561Q75 606 102 633T181 660T263 638T294 575V524Q294 507 270 500Q258 497 245 497T218 500Q221 522 221 547V553Q221 575 213 585T185 596T157
585T150 551V354H177L229 359Q234 333 234 314T221 294H150V66H220Q256 66 274 71Q282 43 282 16Q282 0 268 0H75Q42 0 25 -5Q18 21 18 40T31 60H75V294Z" />
<glyph unicode="&#xa4;" glyph-name="currency" horiz-adv-x="350" d="M281 206Q300 189 328 173Q318 141 301 124T273 117L239 151Q213 135 174 135T109 149L84 112Q49 123 31 141Q18 156 28 166L68 206Q66 222 66 233V369Q66 384 69 398Q53 414 22 434Q33 469
51 487Q66 500 76 490L111 455Q140 471 177 471T240 457L267 496Q299 486 316 469T323 441L282 400Q285 386 285 373V237Q285 219 281 206ZM131 377V229Q131 210 143 198T175 186T206 198T219 229V377Q219 396 207 408T175 420T144 408T131 377Z" />
<glyph unicode="&#xa5;" glyph-name="yen" horiz-adv-x="327" d="M130 69Q105 69 80 64Q73 90 73 109T86 129H132V163H130Q105 163 80 158Q73 184 73 203T86 223H132V257Q115 262 104 292Q81 351 65 427T49 545T42 595T13 604Q12 629 30 643T76 658T117 642T130
589Q130 449 175 322Q221 478 221 585L219 650Q234 654 258 654T295 650T308 630Q308 549 288 455T239 292Q226 261 211 257V223H213L265 228Q270 202 270 183T257 163H211V129H213L265 134Q270 108 270 89T257 69H211L215 0Q181 -5 148 -5Q132 -5 132 12V69H130Z"
/>
<glyph unicode="&#xa6;" glyph-name="brokenbar" horiz-adv-x="147" d="M108 419Q108 389 117 358Q87 342 63 342T39 357V620Q39 643 30 681Q60 697 84 697T108 682V419ZM108 -75Q108 -105 117 -136Q87 -152 63 -152T39 -137V126Q39 149 30 187Q60 203 84 203T108
188V-75Z" />
<glyph unicode="&#xa7;" glyph-name="section" horiz-adv-x="290" d="M103 -43Q103 -88 143 -88T184 -39V2Q184 39 158 55L70 108Q31 132 31 189V259Q31 291 47 317T88 353L71 364Q32 389 32 445V515Q32 559 60 586T144 614T229 591T258 528V465Q258 448 234 442Q222
438 209 438T182 441Q185 463 185 488V503Q185 550 147 550Q107 550 107 508V462Q107 427 129 415L217 364Q260 340 260 282V207Q260 140 208 112L216 108Q259 86 259 26V-49Q259 -97 231 -124T147 -152T61 -130T30 -67V-1Q30 16 54 22Q66 26 79 26T106 23Q103
1 103 -24V-43ZM185 167T185 221V267Q185 303 138 322Q106 302 106 252V192Q106 164 157 138Q185 167 185 221Z" />
<glyph unicode="&#xa8;" glyph-name="dieresis" horiz-adv-x="265" d="M33 541T33 598T76 655T119 598T76 541ZM146 541T146 598T189 655T232 598T189 541Z" />
<glyph unicode="&#xa9;" glyph-name="copyright" horiz-adv-x="481" d="M330 433Q330 413 285 413Q277 413 268 414Q270 432 270 450V505Q270 531 241 531T211 505V192Q211 166 240 166T270 192V205L268 240Q278 242 288 242Q330 242 330 223V184Q330 154 305
135T239 115T175 133T151 187V507Q151 543 175 562T241 582T306 564T330 517V433ZM343 0H138Q36 0 36 85V609Q36 651 64 674T141 697H340Q389 697 417 674T445 609V85Q445 0 343 0ZM140 55H341Q359 55 369 64T380 88V609Q380 642 341 642H140Q101 642 101 609V88Q101
73 111 64T140 55Z" />
<glyph unicode="&#xaa;" glyph-name="ordfeminine" horiz-adv-x="251" d="M111 416Q85 399 85 360T109 320T148 348V440L111 416ZM70 511Q31 511 31 531V595Q31 626 55 643T120 660Q206 660 206 584V339Q206 323 211 316T233 309Q234 289 223 278T186 267T151
292Q128 267 96 267T44 291T24 358Q24 420 78 454L148 495V578Q148 611 118 611T87 575V549L89 513Q79 511 70 511Z" />
<glyph unicode="&#xab;" glyph-name="guillemotleft" horiz-adv-x="404" d="M173 -5Q165 -9 159 -9T148 -2L8 242L123 441Q135 462 146 499Q180 497 200 485T214 460L86 241L177 86Q191 62 216 37Q196 8 173 -5ZM316 499Q350 497 368 487T386 470T384 460L256
241L347 86Q361 62 386 37Q366 8 343 -5Q335 -9 329 -9T318 -2L178 242L293 441Q305 462 316 499Z" />
<glyph unicode="&#xac;" glyph-name="logicalnot" horiz-adv-x="405" d="M73 430Q40 430 23 425Q16 451 16 470T29 490H306Q332 495 351 495T371 482Q374 469 374 454T371 433V324Q371 299 376 274Q350 267 331 267T311 280V430H73Z" />
<glyph unicode="&#xad;" glyph-name="uni00AD" horiz-adv-x="268" d="M87 274Q54 274 37 269Q30 295 30 314T43 334H181L233 339Q238 313 238 294T225 274H87Z" />
<glyph unicode="&#xae;" glyph-name="registered" horiz-adv-x="481" d="M343 0H138Q36 0 36 85V609Q36 651 64 674T141 697H340Q389 697 417 674T445 609V85Q445 0 343 0ZM140 55H341Q359 55 369 64T380 88V609Q380 642 341 642H140Q101 642 101 609V88Q101 73
111 64T140 55ZM151 130V515Q151 531 146 538T125 545Q124 563 135 573T171 584T207 561Q234 584 260 584Q330 584 330 514V349Q330 306 291 286L307 191Q310 168 327 168Q334 168 342 171Q345 160 345 150T332 127T299 115Q260 115 253 151L232 274H211V188L214
122Q186 118 162 118Q151 118 151 130ZM245 535Q224 535 211 516V323H236Q251 323 260 330T270 351V509Q270 535 245 535Z" />
<glyph unicode="&#xaf;" glyph-name="overscore" horiz-adv-x="272" d="M96 586Q63 586 46 581Q39 603 39 622T52 642H176L228 647Q233 625 233 606T220 586H96Z" />
<glyph unicode="&#xb0;" glyph-name="degree" horiz-adv-x="250" d="M22 577V634Q22 707 125 707T228 636V579Q228 548 204 527T123 506Q22 506 22 577ZM79 631V582Q79 552 125 552Q145 552 158 560T171 582V631Q171 645 158 653T125 661Q79 661 79 631Z" />
<glyph unicode="&#xb1;" glyph-name="plusminus" horiz-adv-x="280" d="M87 154Q54 154 37 149Q30 175 30 194T43 214H193L245 219Q250 193 250 174T237 154H87ZM87 345Q62 345 37 340Q30 364 30 383T43 403H108V435L103 487Q133 492 152 492T172 479V403H193L245
408Q250 384 250 365T237 345H172V313Q172 280 177 263Q147 256 128 256T108 269V345H87Z" />
<glyph unicode="&#xb2;" glyph-name="twosuperior" horiz-adv-x="242" d="M93 313H172L212 318Q217 297 217 282T207 267H52Q42 267 34 275T26 308T39 361T70 415T108 465Q152 525 152 579Q152 611 121 611Q106 611 97 603T88 580V559L91 520Q81 518 71 518T50
520Q30 526 30 540V587Q30 621 54 640T119 660Q211 660 211 592Q211 544 193 502T152 435Q93 368 93 313Z" />
<glyph unicode="&#xb3;" glyph-name="threesuperior" horiz-adv-x="233" d="M114 424H75Q65 424 65 437L70 477Q83 473 109 473H118Q147 473 147 504V579Q147 611 117 611T86 580V559L89 520Q79 518 69 518T48 520Q28 526 28 540V587Q28 621 50 640T112 660Q203
660 203 592V502Q203 466 182 449Q203 433 203 396V341Q203 303 179 282T116 260T52 280T28 332V370Q28 384 48 390Q58 393 68 393L88 390Q86 372 86 351V338Q86 324 94 316T115 308T136 316T145 338V394Q145 424 114 424Z" />
<glyph unicode="&#xb4;" glyph-name="acute" horiz-adv-x="287" d="M165 686Q236 664 236 651Q236 648 233 643L175 558L157 528Q116 543 116 554Q116 557 118 560L152 642L165 686Z" />
<glyph unicode="&#xb5;" glyph-name="mu" horiz-adv-x="337" d="M213 408Q213 457 206 490Q236 494 271 494Q288 494 288 479V83Q288 62 295 53T324 44Q325 18 311 4T269 -10Q229 -10 218 21Q187 -10 149 -10Q142 -10 130 -8L126 -89Q124 -126 113 -142T73 -158T30
-144T15 -104Q38 -104 47 -99T61 -74L80 22Q61 49 61 92V407Q61 428 54 437T25 446Q24 471 39 485T83 500T123 484T136 431V93Q136 58 165 58Q180 58 193 69T213 94V408Z" />
<glyph unicode="&#xb6;" glyph-name="paragraph" horiz-adv-x="381" d="M207 -154L193 -151Q192 -151 191 -150Q195 -111 195 -56V190H151Q92 190 58 218T23 296V552Q23 650 122 650H310Q338 650 353 635T367 594Q346 594 338 585T330 553V-138Q330 -155 314 -155L292
-154L278 -151Q277 -151 276 -150Q280 -111 280 -56V594H245V-138Q245 -155 229 -155L207 -154Z" />
<glyph unicode="&#xb7;" glyph-name="middot" horiz-adv-x="138" d="M26 259T26 316T69 373T112 316T69 259Z" />
<glyph unicode="&#xb8;" glyph-name="cedilla" horiz-adv-x="347" d="M188 -152H142L109 -155Q105 -138 105 -126T114 -113H181Q202 -113 202 -91T181 -69H118V7H170V-29H184Q251 -29 251 -91Q251 -123 236 -137T188 -152Z" />
<glyph unicode="&#xb9;" glyph-name="onesuperior" horiz-adv-x="221" d="M139 655Q160 655 160 638V317H161L201 321Q205 301 205 286T195 271H72L32 267Q28 287 28 302T38 317H103V598L81 595Q53 589 38 578Q27 591 22 615Q22 626 32 629L130 654Q134 655 139 655Z" />
<glyph unicode="&#xba;" glyph-name="ordmasculine" horiz-adv-x="235" d="M30 346V578Q30 617 54 638T119 660T182 640T205 581V349Q205 310 181 289T116 267T53 287T30 346ZM88 581V346Q88 332 96 324T117 315T138 324T147 346V581Q147 594 139 603T117 612T96
604T88 581Z" />
<glyph unicode="&#xbb;" glyph-name="guillemotright" horiz-adv-x="405" d="M231 493Q239 497 245 497T256 490L396 246L281 47Q269 26 258 -11Q224 -9 204 3T190 28L318 247L227 402Q213 426 188 451Q208 480 231 493ZM88 -11Q54 -9 36 1T18 18T20 28L148 247L57
402Q43 426 18 451Q38 480 61 493Q69 497 75 497T86 490L226 246L111 47Q99 26 88 -11Z" />
<glyph unicode="&#xbc;" glyph-name="onequarter" horiz-adv-x="620" d="M607 31Q609 -10 565 -10Q542 -10 532 3T522 46V142H405V318Q405 335 399 341T378 348Q377 368 388 379T422 390T453 378T463 336V189H522V319Q522 353 516 383Q540 385 560 385T580 374V61Q580
45 586 38T607 31ZM426 737Q462 753 483 753T504 745Q504 742 502 738L207 68Q193 36 190 7Q152 -9 127 -9Q107 -9 113 6L408 676Q420 705 426 737ZM135 655Q156 655 156 638V317H157L197 321Q201 301 201 286T191 271H68L28 267Q24 287 24 302T34 317H99V598L77
595Q49 589 34 578Q23 591 18 615Q18 626 28 629L126 654Q130 655 135 655Z" />
<glyph unicode="&#xbd;" glyph-name="onehalf" horiz-adv-x="564" d="M488 753Q508 753 501 738L206 68Q192 36 189 7Q151 -9 126 -9Q106 -9 112 6L407 676Q419 705 425 737Q461 753 488 753ZM132 655Q153 655 153 638V317H154L194 321Q198 301 198 286T188 271H65L25
267Q21 287 21 302T31 317H96V598L74 595Q46 589 31 578Q20 591 15 615Q15 626 25 629L123 654Q127 655 132 655ZM425 46H504L544 51Q549 30 549 15T539 0H384Q374 0 366 8T358 41T371 94T402 148T440 198Q484 258 484 312Q484 344 453 344Q438 344 429 336T420
313V292L423 253Q413 251 403 251T382 254Q362 259 362 273V320Q362 354 386 373T451 393Q543 393 543 325Q543 277 525 235T484 168Q425 101 425 46Z" />
<glyph unicode="&#xbe;" glyph-name="threequarters" horiz-adv-x="612" d="M599 31Q601 -10 557 -10Q534 -10 524 3T514 46V142H397V318Q397 335 391 341T370 348Q369 368 380 379T414 390T445 378T455 336V189H514V319Q514 353 508 383Q532 385 552 385T572
374V61Q572 45 578 38T599 31ZM417 737Q453 753 474 753T495 745Q495 742 493 738L198 68Q184 36 181 7Q143 -9 118 -9Q98 -9 104 6L399 676Q411 705 417 737ZM108 424H69Q59 424 59 437L64 477Q77 473 103 473H112Q141 473 141 504V579Q141 611 111 611T80 580V559L83
520Q73 518 63 518T42 520Q22 526 22 540V587Q22 621 44 640T106 660Q197 660 197 592V502Q197 466 176 449Q197 433 197 396V341Q197 303 173 282T110 260T46 280T22 332V370Q22 384 42 390Q52 393 62 393L82 390Q80 372 80 351V338Q80 324 88 316T109 308T130
316T139 338V394Q139 424 108 424Z" />
<glyph unicode="&#xbf;" glyph-name="questiondown" horiz-adv-x="262" d="M199 639T199 582T156 525T113 582T156 639ZM196 476V370Q196 312 153 288L117 268Q95 256 95 221V96Q95 54 135 54Q173 54 173 101V116L170 163Q183 166 196 166T222 162Q246 156 246
139V76Q246 36 217 13T133 -10T49 17T20 89V238Q20 295 59 319L95 341Q121 357 121 394L117 488Q147 493 180 493Q196 493 196 476Z" />
<glyph unicode="&#xc0;" glyph-name="Agrave" horiz-adv-x="327" d="M36 12V554Q36 604 70 632T163 660T254 634T287 558V85Q287 64 295 56T325 47Q325 -10 261 -10Q208 -10 208 59V250H115V94L119 0Q85 -5 52 -5Q36 -5 36 12ZM115 554V316H208V554Q208 573 195
583T161 594T128 584T115 554ZM198 720Q200 717 200 713T195 706L159 688Q152 701 141 718L83 803Q80 808 80 812Q80 819 105 829T141 843L151 846Q155 823 164 802L198 720Z" />
<glyph unicode="&#xc1;" glyph-name="Aacute" horiz-adv-x="327" d="M36 12V554Q36 604 70 632T163 660T254 634T287 558V85Q287 64 295 56T325 47Q325 -10 261 -10Q208 -10 208 59V250H115V94L119 0Q85 -5 52 -5Q36 -5 36 12ZM115 554V316H208V554Q208 573 195
583T161 594T128 584T115 554ZM182 846Q253 824 253 811Q253 808 250 803L192 718L174 688Q133 703 133 714Q133 717 135 720L169 802L182 846Z" />
<glyph unicode="&#xc2;" glyph-name="Acircumflex" horiz-adv-x="327" d="M36 12V554Q36 604 70 632T163 660T254 634T287 558V85Q287 64 295 56T325 47Q325 -10 261 -10Q208 -10 208 59V250H115V94L119 0Q85 -5 52 -5Q36 -5 36 12ZM115 554V316H208V554Q208 573
195 583T161 594T128 584T115 554ZM105 688Q63 703 63 714Q63 717 65 720L109 802L124 836Q134 844 161 844T202 837Q207 822 218 802L262 720Q264 717 264 713T259 706L222 688Q217 701 205 718L163 778L122 718L105 688Z" />
<glyph unicode="&#xc3;" glyph-name="Atilde" horiz-adv-x="327" d="M36 12V554Q36 604 70 632T163 660T254 634T287 558V85Q287 64 295 56T325 47Q325 -10 261 -10Q208 -10 208 59V250H115V94L119 0Q85 -5 52 -5Q36 -5 36 12ZM115 554V316H208V554Q208 573 195
583T161 594T128 584T115 554ZM88 712Q50 716 50 751Q50 755 51 760Q56 797 98 797Q104 797 111 796L202 783Q217 782 223 787T233 808Q252 807 261 795T270 773Q270 723 222 723Q216 723 209 724L119 738Q104 738 98 733T88 712Z" />
<glyph unicode="&#xc4;" glyph-name="Adieresis" horiz-adv-x="327" d="M36 12V554Q36 604 70 632T163 660T254 634T287 558V85Q287 64 295 56T325 47Q325 -10 261 -10Q208 -10 208 59V250H115V94L119 0Q85 -5 52 -5Q36 -5 36 12ZM115 554V316H208V554Q208 573
195 583T161 594T128 584T115 554ZM63 701T63 758T106 815T149 758T106 701ZM176 701T176 758T219 815T262 758T219 701Z" />
<glyph unicode="&#xc5;" glyph-name="Aring" horiz-adv-x="327" d="M36 12V554Q36 604 70 632T163 660T254 634T287 558V85Q287 64 295 56T325 47Q325 -10 261 -10Q208 -10 208 59V250H115V94L119 0Q85 -5 52 -5Q36 -5 36 12ZM115 554V316H208V554Q208 573 195
583T161 594T128 584T115 554ZM78 738V772Q78 831 161 831T244 774V740Q244 681 161 681T78 738ZM124 770V742Q124 718 161 718T198 742V770Q198 794 161 794T124 770Z" />
<glyph unicode="&#xc6;" glyph-name="AE" horiz-adv-x="482" d="M345 328Q381 328 399 333Q407 305 407 278Q407 262 393 262H288L287 96Q287 77 299 67T333 56T367 66T380 96V121L377 172Q391 175 405 175T433 171Q459 164 459 146V82Q459 41 425 16T334 -10T242
18T208 96L209 262H116L115 94L119 0Q85 -5 52 -5Q36 -5 36 12V554Q36 604 70 632T161 660T249 638Q284 660 336 660T422 635T455 568V484Q455 466 429 459Q415 455 401 455T373 458Q376 482 376 509V554Q376 594 332 594Q311 594 299 584T287 554L288 328H345ZM182
594T161 594T128 584T115 554L116 328H209L208 554Q208 573 195 583Z" />
<glyph unicode="&#xc7;" glyph-name="Ccedilla" horiz-adv-x="311" d="M216 -152H170L137 -155Q133 -138 133 -126T142 -113H209Q230 -113 230 -91T209 -69H146V-9Q33 -4 33 92V554Q33 604 67 632T158 660T250 635T284 568V444Q284 426 258 419Q244 415 230 415T202
418Q205 442 205 469V554Q205 573 192 583T158 594T125 584T112 554V96Q112 78 124 67T158 56T192 66T205 96V118L202 169Q216 172 230 172T258 168Q284 161 284 143V88Q284 54 261 29T198 -5V-29H212Q279 -29 279 -91Q279 -123 264 -137T216 -152Z" />
<glyph unicode="&#xc8;" glyph-name="Egrave" horiz-adv-x="306" d="M168 338Q204 338 222 343Q230 315 230 288Q230 272 216 272H157Q136 272 124 261T111 232V96Q111 77 123 67T157 56T191 66T204 96V121L201 172Q215 175 229 175T257 171Q283 164 283 146V82Q283
41 249 16T158 -10T66 18T32 96V236Q32 281 61 305Q32 329 32 374V554Q32 604 66 632T156 660T246 635T279 568V484Q279 466 253 459Q239 455 225 455T197 458Q200 482 200 509V554Q200 594 156 594Q135 594 123 584T111 554V378Q111 360 122 349T153 338H168ZM199
720Q201 717 201 713T196 706L160 688Q153 701 142 718L84 803Q81 808 81 812Q81 819 106 829T142 843L152 846Q156 823 165 802L199 720Z" />
<glyph unicode="&#xc9;" glyph-name="Eacute" horiz-adv-x="306" d="M168 338Q204 338 222 343Q230 315 230 288Q230 272 216 272H157Q136 272 124 261T111 232V96Q111 77 123 67T157 56T191 66T204 96V121L201 172Q215 175 229 175T257 171Q283 164 283 146V82Q283
41 249 16T158 -10T66 18T32 96V236Q32 281 61 305Q32 329 32 374V554Q32 604 66 632T156 660T246 635T279 568V484Q279 466 253 459Q239 455 225 455T197 458Q200 482 200 509V554Q200 594 156 594Q135 594 123 584T111 554V378Q111 360 122 349T153 338H168ZM175
846Q246 824 246 811Q246 808 243 803L185 718L167 688Q126 703 126 714Q126 717 128 720L162 802L175 846Z" />
<glyph unicode="&#xca;" glyph-name="Ecircumflex" horiz-adv-x="306" d="M168 338Q204 338 222 343Q230 315 230 288Q230 272 216 272H157Q136 272 124 261T111 232V96Q111 77 123 67T157 56T191 66T204 96V121L201 172Q215 175 229 175T257 171Q283 164 283
146V82Q283 41 249 16T158 -10T66 18T32 96V236Q32 281 61 305Q32 329 32 374V554Q32 604 66 632T156 660T246 635T279 568V484Q279 466 253 459Q239 455 225 455T197 458Q200 482 200 509V554Q200 594 156 594Q135 594 123 584T111 554V378Q111 360 122 349T153
338H168ZM96 688Q54 703 54 714Q54 717 56 720L100 802L115 836Q125 844 152 844T193 837Q198 822 209 802L253 720Q255 717 255 713T250 706L213 688Q208 701 196 718L154 778L113 718L96 688Z" />
<glyph unicode="&#xcb;" glyph-name="Edieresis" horiz-adv-x="306" d="M168 338Q204 338 222 343Q230 315 230 288Q230 272 216 272H157Q136 272 124 261T111 232V96Q111 77 123 67T157 56T191 66T204 96V121L201 172Q215 175 229 175T257 171Q283 164 283 146V82Q283
41 249 16T158 -10T66 18T32 96V236Q32 281 61 305Q32 329 32 374V554Q32 604 66 632T156 660T246 635T279 568V484Q279 466 253 459Q239 455 225 455T197 458Q200 482 200 509V554Q200 594 156 594Q135 594 123 584T111 554V378Q111 360 122 349T153 338H168ZM56
701T56 758T99 815T142 758T99 701ZM169 701T169 758T212 815T255 758T212 701Z" />
<glyph unicode="&#xcc;" glyph-name="Igrave" horiz-adv-x="153" d="M36 12V556L32 650Q66 655 99 655Q115 655 115 638V94L119 0Q85 -5 52 -5Q36 -5 36 12ZM113 720Q115 717 115 713T110 706L74 688Q67 701 56 718L-2 803Q-5 808 -5 812Q-5 819 20 829T56 843L66
846Q70 823 79 802L113 720Z" />
<glyph unicode="&#xcd;" glyph-name="Iacute" horiz-adv-x="153" d="M37 12V556L33 650Q67 655 100 655Q116 655 116 638V94L120 0Q86 -5 53 -5Q37 -5 37 12ZM86 846Q157 824 157 811Q157 808 154 803L96 718L78 688Q37 703 37 714Q37 717 39 720L73 802L86 846Z" />
<glyph unicode="&#xce;" glyph-name="Icircumflex" horiz-adv-x="153" d="M37 12V556L33 650Q67 655 100 655Q116 655 116 638V94L120 0Q86 -5 53 -5Q37 -5 37 12ZM18 688Q-24 703 -24 714Q-24 717 -22 720L22 802L37 836Q47 844 74 844T115 837Q120 822 131 802L175
720Q177 717 177 713T172 706L135 688Q130 701 118 718L76 778L35 718L18 688Z" />
<glyph unicode="&#xcf;" glyph-name="Idieresis" horiz-adv-x="153" d="M37 12V556L33 650Q67 655 100 655Q116 655 116 638V94L120 0Q86 -5 53 -5Q37 -5 37 12ZM-23 701T-23 758T20 815T63 758T20 701ZM90 701T90 758T133 815T176 758T133 701Z" />
<glyph unicode="&#xd0;" glyph-name="Eth" horiz-adv-x="329" d="M21 332H45V553Q45 575 37 584T8 594Q7 620 22 635T70 650T117 617Q156 650 197 650Q296 650 296 552V106Q296 56 262 28T168 0H45V271L13 267Q8 293 8 312T21 332ZM178 584Q151 584 124 557V332H133L185
337Q190 311 190 292T177 272H124V66H170Q191 66 204 76T217 106V546Q217 584 178 584Z" />
<glyph unicode="&#xd1;" glyph-name="Ntilde" horiz-adv-x="334" d="M175 584Q148 584 121 557V94L125 0Q91 -5 58 -5Q42 -5 42 12V553Q42 575 34 584T5 594Q4 620 19 635T67 650T114 617Q153 650 194 650Q293 650 293 552V85Q293 64 301 56T331 47Q331 -10 267
-10Q214 -10 214 59V546Q214 584 175 584ZM93 712Q55 716 55 751Q55 755 56 760Q61 797 103 797Q109 797 116 796L207 783Q222 782 228 787T238 808Q257 807 266 795T275 773Q275 723 227 723Q221 723 214 724L124 738Q109 738 103 733T93 712Z" />
<glyph unicode="&#xd2;" glyph-name="Ograve" horiz-adv-x="317" d="M33 92V554Q33 604 67 632T160 660T251 634T284 558V96Q284 46 250 18T156 -10T65 16T33 92ZM112 554V96Q112 78 124 67T158 56T192 66T205 96V554Q205 573 192 583T158 594T125 584T112 554ZM194
720Q196 717 196 713T191 706L155 688Q148 701 137 718L79 803Q76 808 76 812Q76 819 101 829T137 843L147 846Q151 823 160 802L194 720Z" />
<glyph unicode="&#xd3;" glyph-name="Oacute" horiz-adv-x="317" d="M33 92V554Q33 604 67 632T160 660T251 634T284 558V96Q284 46 250 18T156 -10T65 16T33 92ZM112 554V96Q112 78 124 67T158 56T192 66T205 96V554Q205 573 192 583T158 594T125 584T112 554ZM173
846Q244 824 244 811Q244 808 241 803L183 718L165 688Q124 703 124 714Q124 717 126 720L160 802L173 846Z" />
<glyph unicode="&#xd4;" glyph-name="Ocircumflex" horiz-adv-x="317" d="M33 92V554Q33 604 67 632T160 660T251 634T284 558V96Q284 46 250 18T156 -10T65 16T33 92ZM112 554V96Q112 78 124 67T158 56T192 66T205 96V554Q205 573 192 583T158 594T125 584T112
554ZM100 688Q58 703 58 714Q58 717 60 720L104 802L119 836Q129 844 156 844T197 837Q202 822 213 802L257 720Q259 717 259 713T254 706L217 688Q212 701 200 718L158 778L117 718L100 688Z" />
<glyph unicode="&#xd5;" glyph-name="Otilde" horiz-adv-x="317" d="M33 92V554Q33 604 67 632T160 660T251 634T284 558V96Q284 46 250 18T156 -10T65 16T33 92ZM112 554V96Q112 78 124 67T158 56T192 66T205 96V554Q205 573 192 583T158 594T125 584T112 554ZM87
712Q49 716 49 751Q49 755 50 760Q55 797 97 797Q103 797 110 796L201 783Q216 782 222 787T232 808Q251 807 260 795T269 773Q269 723 221 723Q215 723 208 724L118 738Q103 738 97 733T87 712Z" />
<glyph unicode="&#xd6;" glyph-name="Odieresis" horiz-adv-x="317" d="M33 92V554Q33 604 67 632T160 660T251 634T284 558V96Q284 46 250 18T156 -10T65 16T33 92ZM112 554V96Q112 78 124 67T158 56T192 66T205 96V554Q205 573 192 583T158 594T125 584T112
554ZM59 701T59 758T102 815T145 758T102 701ZM172 701T172 758T215 815T258 758T215 701Z" />
<glyph unicode="&#xd7;" glyph-name="multiply" horiz-adv-x="357" d="M80 434L179 335L234 390Q252 408 271 440Q303 430 320 413T327 385L228 286L282 232Q300 214 332 195Q322 163 305 146T277 139L179 237L125 183Q106 164 88 134Q53 145 35 163Q22 178 32
188L130 286L75 341Q56 360 26 378Q37 413 55 431Q70 444 80 434Z" />
<glyph unicode="&#xd8;" glyph-name="Oslash" horiz-adv-x="333" d="M28 -41Q-7 -41 -7 -24Q-7 -20 -5 -16L42 96V554Q42 604 76 632T171 660T266 629Q277 651 284 690Q296 692 308 692T331 688T341 675Q341 671 339 667L293 557V96Q293 46 259 18T162 -10T68
21V20Q59 -3 50 -39Q38 -41 28 -41ZM146 56T167 56T201 66T214 96V369L121 147V96Q121 78 133 67ZM121 554V283L214 504V554Q214 573 201 583T167 594T134 584T121 554Z" />
<glyph unicode="&#xd9;" glyph-name="Ugrave" horiz-adv-x="334" d="M213 568Q213 617 206 650Q240 654 275 654Q292 654 292 639V85Q292 64 300 55T329 46Q330 20 316 5T274 -10Q232 -10 220 21Q192 -10 143 -10Q41 -10 41 86V565Q41 586 33 594T3 603Q3 660
67 660Q120 660 120 591V92Q120 56 156 56T213 91V568ZM195 720Q197 717 197 713T192 706L156 688Q149 701 138 718L80 803Q77 808 77 812Q77 819 102 829T138 843L148 846Q152 823 161 802L195 720Z" />
<glyph unicode="&#xda;" glyph-name="Uacute" horiz-adv-x="334" d="M213 568Q213 617 206 650Q240 654 275 654Q292 654 292 639V85Q292 64 300 55T329 46Q330 20 316 5T274 -10Q232 -10 220 21Q192 -10 143 -10Q41 -10 41 86V565Q41 586 33 594T3 603Q3 660
67 660Q120 660 120 591V92Q120 56 156 56T213 91V568ZM171 846Q242 824 242 811Q242 808 239 803L181 718L163 688Q122 703 122 714Q122 717 124 720L158 802L171 846Z" />
<glyph unicode="&#xdb;" glyph-name="Ucircumflex" horiz-adv-x="334" d="M213 568Q213 617 206 650Q240 654 275 654Q292 654 292 639V85Q292 64 300 55T329 46Q330 20 316 5T274 -10Q232 -10 220 21Q192 -10 143 -10Q41 -10 41 86V565Q41 586 33 594T3 603Q3
660 67 660Q120 660 120 591V92Q120 56 156 56T213 91V568ZM108 688Q66 703 66 714Q66 717 68 720L112 802L127 836Q137 844 164 844T205 837Q210 822 221 802L265 720Q267 717 267 713T262 706L225 688Q220 701 208 718L166 778L125 718L108 688Z" />
<glyph unicode="&#xdc;" glyph-name="Udieresis" horiz-adv-x="334" d="M213 568Q213 617 206 650Q240 654 275 654Q292 654 292 639V85Q292 64 300 55T329 46Q330 20 316 5T274 -10Q232 -10 220 21Q192 -10 143 -10Q41 -10 41 86V565Q41 586 33 594T3 603Q3 660
67 660Q120 660 120 591V92Q120 56 156 56T213 91V568ZM68 701T68 758T111 815T154 758T111 701ZM181 701T181 758T224 815T267 758T224 701Z" />
<glyph unicode="&#xdd;" glyph-name="Yacute" horiz-adv-x="330" d="M215 568Q215 617 208 650Q242 654 277 654Q294 654 294 639V96Q294 46 260 18T169 -10T77 15T43 82V150Q43 168 69 175Q83 179 97 179T125 176Q122 152 122 125V96Q122 77 135 67T169 56T202
66T215 96V252Q189 226 145 226Q43 226 43 322V565Q43 586 35 594T5 603Q5 660 69 660Q122 660 122 591V328Q122 292 158 292T215 327V568ZM180 846Q251 824 251 811Q251 808 248 803L190 718L172 688Q131 703 131 714Q131 717 133 720L167 802L180 846Z" />
<glyph unicode="&#xde;" glyph-name="Thorn" horiz-adv-x="319" d="M176 418Q149 418 122 391V196H168Q189 196 202 206T215 236V380Q215 418 176 418ZM122 594V457Q154 484 195 484Q294 484 294 386V236Q294 186 260 158T166 130H122V94L126 0Q92 -5 59 -5Q43
-5 43 12V562Q43 584 35 593T5 602Q4 628 19 643T66 659T109 642T122 594Z" />
<glyph unicode="&#xdf;" glyph-name="germandbls" horiz-adv-x="392" d="M124 -27Q124 -65 131 -107Q101 -113 66 -113Q49 -113 49 -98V410L18 405Q11 431 11 450T24 470H49V601Q49 645 85 672T181 700T280 677T320 615V521Q320 496 287 445T253 368V357Q253 326
281 310L332 280Q375 255 375 198V93Q375 45 347 18T267 -10H216L168 -15Q161 13 161 33T175 54H259Q300 54 300 103V174Q300 211 274 227L223 259Q178 286 178 340V375Q178 402 212 454T247 544V593Q247 636 186 636T124 591V-27Z" />
<glyph unicode="&#xe0;" glyph-name="agrave" horiz-adv-x="296" d="M133 183Q100 161 100 110T131 58T181 94V215L133 183ZM144 500Q256 500 256 401V83Q256 62 263 53T292 44Q293 18 279 4T237 -10Q195 -10 186 21Q155 -10 113 -10T46 22T21 108Q21 190 90 232L181
286V394Q181 436 142 436T102 389V356L105 309Q92 306 79 306T53 310Q29 316 29 333V415Q29 455 60 477T144 500ZM180 560Q182 557 182 553T177 546L141 528Q134 541 123 558L65 643Q62 648 62 652Q62 659 87 669T123 683L133 686Q137 663 146 642L180 560Z" />
<glyph unicode="&#xe1;" glyph-name="aacute" horiz-adv-x="296" d="M181 94V215L133 183Q100 161 100 110T131 58T181 94ZM144 500Q256 500 256 401V83Q256 62 263 53T292 44Q293 18 279 4T237 -10Q195 -10 186 21Q155 -10 113 -10T46 22T21 108Q21 190 90 232L181
286V394Q181 436 142 436T102 389V356Q102 331 105 309Q92 306 79 306T53 310Q29 316 29 333V415Q29 455 60 477T144 500ZM164 686Q235 664 235 651Q235 648 232 643L174 558L156 528Q115 543 115 554Q115 557 117 560L151 642L164 686Z" />
<glyph unicode="&#xe2;" glyph-name="acircumflex" horiz-adv-x="296" d="M181 94V215L133 183Q100 161 100 110T131 58T181 94ZM144 500Q256 500 256 401V83Q256 62 263 53T292 44Q293 18 279 4T237 -10Q195 -10 186 21Q155 -10 113 -10T46 22T21 108Q21 190
90 232L181 286V394Q181 436 142 436T102 389V356Q102 331 105 309Q92 306 79 306T53 310Q29 316 29 333V415Q29 455 60 477T144 500ZM86 528Q44 543 44 554Q44 557 46 560L90 642L105 676Q115 684 142 684T183 677Q188 662 199 642L243 560Q245 557 245 553T240
546L203 528Q198 541 186 558L144 618L103 558L86 528Z" />
<glyph unicode="&#xe3;" glyph-name="atilde" horiz-adv-x="296" d="M133 183Q100 161 100 110T131 58T181 94V215L133 183ZM144 500Q256 500 256 401V83Q256 62 263 53T292 44Q293 18 279 4T237 -10Q195 -10 186 21Q155 -10 113 -10T46 22T21 108Q21 190 90 232L181
286V394Q181 436 142 436T102 389V356L105 309Q92 306 79 306T53 310Q29 316 29 333V415Q29 455 60 477T144 500ZM68 552Q30 556 30 591Q30 595 31 600Q36 637 78 637Q84 637 91 636L182 623Q197 622 203 627T213 648Q232 647 241 635T250 613Q250 563 202 563Q196
563 189 564L99 578Q84 578 78 573T68 552Z" />
<glyph unicode="&#xe4;" glyph-name="adieresis" horiz-adv-x="296" d="M133 183Q100 161 100 110T131 58T181 94V215L133 183ZM144 500Q256 500 256 401V83Q256 62 263 53T292 44Q293 18 279 4T237 -10Q195 -10 186 21Q155 -10 113 -10T46 22T21 108Q21 190 90
232L181 286V394Q181 436 142 436T102 389V356L105 309Q92 306 79 306T53 310Q29 316 29 333V415Q29 455 60 477T144 500ZM42 541T42 598T85 655T128 598T85 541ZM155 541T155 598T198 655T241 598T198 541Z" />
<glyph unicode="&#xe5;" glyph-name="aring" horiz-adv-x="296" d="M181 94V215L133 183Q100 161 100 110T131 58T181 94ZM144 500Q256 500 256 401V83Q256 62 263 53T292 44Q293 18 279 4T237 -10Q195 -10 186 21Q155 -10 113 -10T46 22T21 108Q21 190 90 232L181
286V394Q181 436 142 436T102 389V356Q102 331 105 309Q92 306 79 306T53 310Q29 316 29 333V415Q29 455 60 477T144 500ZM58 614V648Q58 707 141 707T224 650V616Q224 557 141 557T58 614ZM104 646V618Q104 594 141 594T178 618V646Q178 670 141 670T104 646Z"
/>
<glyph unicode="&#xe6;" glyph-name="ae" horiz-adv-x="435" d="M29 455T60 477T142 500T218 475Q243 500 297 500Q412 500 412 390Q412 332 396 299T343 251L256 217V91Q256 54 295 54T335 101V124L332 171Q345 174 358 174T384 170Q408 164 408 147V75Q408 35
377 13T287 -10T201 26Q172 -10 124 -10T49 22T21 108Q21 202 93 228L181 260V400Q181 436 142 436T102 389V356L105 309Q92 306 79 306T53 310Q29 316 29 333V415Q29 455 60 477ZM335 393Q335 413 323 424T293 436Q256 436 256 403V284L304 304Q335 316 335 393ZM100
114Q100 88 110 73T137 58Q163 58 181 94V194L133 175Q100 162 100 114Z" />
<glyph unicode="&#xe7;" glyph-name="ccedilla" horiz-adv-x="280" d="M224 101Q264 83 264 49Q264 38 255 31Q228 3 184 -6V-29H198Q265 -29 265 -91Q265 -123 250 -137T202 -152H156L123 -155Q119 -138 119 -126T128 -113H195Q216 -113 216 -91T195 -69H132V-10Q32
-9 32 102V402Q32 500 148 500Q199 500 228 477T257 415V333Q257 316 233 310Q221 306 208 306T181 309Q184 331 184 356V389Q184 414 175 425T144 436Q107 436 107 405V114Q107 83 117 69T150 55T196 70T224 101Z" />
<glyph unicode="&#xe8;" glyph-name="egrave" horiz-adv-x="285" d="M186 393Q186 413 174 424T144 436Q107 436 107 405V262L155 298Q186 321 186 393ZM32 89V402Q32 500 147 500T263 390Q263 346 247 309T203 253L107 187V96Q107 54 146 54T186 101V124L183
171Q196 174 209 174T235 170Q259 164 259 147V75Q259 35 228 13T144 -10Q32 -10 32 89ZM174 560Q176 557 176 553T171 546L135 528Q128 541 117 558L59 643Q56 648 56 652Q56 659 81 669T117 683L127 686Q131 663 140 642L174 560Z" />
<glyph unicode="&#xe9;" glyph-name="eacute" horiz-adv-x="285" d="M107 405V262L155 298Q186 321 186 393Q186 413 174 424T144 436Q107 436 107 405ZM32 402Q32 500 147 500T263 390Q263 346 247 309T203 253L107 187V96Q107 54 146 54T186 101V124Q186 149
183 171Q196 174 209 174T235 170Q259 164 259 147V75Q259 35 228 13T144 -10Q32 -10 32 89V402ZM160 686Q231 664 231 651Q231 648 228 643L170 558L152 528Q111 543 111 554Q111 557 113 560L147 642L160 686Z" />
<glyph unicode="&#xea;" glyph-name="ecircumflex" horiz-adv-x="285" d="M107 405V262L155 298Q186 321 186 393Q186 413 174 424T144 436Q107 436 107 405ZM32 402Q32 500 147 500T263 390Q263 346 247 309T203 253L107 187V96Q107 54 146 54T186 101V124Q186
149 183 171Q196 174 209 174T235 170Q259 164 259 147V75Q259 35 228 13T144 -10Q32 -10 32 89V402ZM88 528Q46 543 46 554Q46 557 48 560L92 642L107 676Q117 684 144 684T185 677Q190 662 201 642L245 560Q247 557 247 553T242 546L205 528Q200 541 188 558L146
618L105 558L88 528Z" />
<glyph unicode="&#xeb;" glyph-name="edieresis" horiz-adv-x="285" d="M186 393Q186 413 174 424T144 436Q107 436 107 405V262L155 298Q186 321 186 393ZM32 89V402Q32 500 147 500T263 390Q263 346 247 309T203 253L107 187V96Q107 54 146 54T186 101V124L183
171Q196 174 209 174T235 170Q259 164 259 147V75Q259 35 228 13T144 -10Q32 -10 32 89ZM45 541T45 598T88 655T131 598T88 541ZM158 541T158 598T201 655T244 598T201 541Z" />
<glyph unicode="&#xec;" glyph-name="igrave" horiz-adv-x="163" d="M18 490H118V83Q118 62 125 53T154 44Q155 18 141 4T98 -10T57 7T43 63V430L12 425Q5 451 5 470T18 490ZM114 560Q116 557 116 553T111 546L75 528Q68 541 57 558L-1 643Q-4 648 -4 652Q-4 659
21 669T57 683L67 686Q71 663 80 642L114 560Z" />
<glyph unicode="&#xed;" glyph-name="iacute" horiz-adv-x="163" d="M119 490V83Q119 62 126 53T155 44Q156 18 142 4T99 -10T58 7T44 63V430Q29 430 13 425L6 475Q6 490 19 490H119ZM83 686Q154 664 154 651Q154 648 151 643L93 558L75 528Q34 543 34 554Q34
557 36 560L70 642L83 686Z" />
<glyph unicode="&#xee;" glyph-name="icircumflex" horiz-adv-x="163" d="M119 490V83Q119 62 126 53T155 44Q156 18 142 4T99 -10T58 7T44 63V430Q29 430 13 425L6 475Q6 490 19 490H119ZM23 528Q-19 543 -19 554Q-19 557 -17 560L27 642L42 676Q52 684 79 684T120
677Q125 662 136 642L180 560Q182 557 182 553T177 546L140 528Q135 541 123 558L81 618L40 558L23 528Z" />
<glyph unicode="&#xef;" glyph-name="idieresis" horiz-adv-x="163" d="M19 490H119V83Q119 62 126 53T155 44Q156 18 142 4T99 -10T58 7T44 63V430L13 425Q6 451 6 470T19 490ZM-17 601T-17 658T26 715T69 658T26 601ZM90 601T90 658T133 715T176 658T133 601Z" />
<glyph unicode="&#xf0;" glyph-name="eth" horiz-adv-x="294" d="M184 554Q155 532 143 518Q129 527 118 543T117 567L164 600Q154 605 140 605T109 600L95 649Q115 660 153 660T220 642L260 678Q273 668 282 656T291 638T284 628L252 606Q259 583 259 561V92Q259
42 230 16T147 -10T63 18T32 96V398Q32 500 118 500Q156 500 184 474V554ZM107 74T117 63T145 52T173 63T184 92V400Q167 431 136 431Q107 431 107 397V92Q107 74 117 63Z" />
<glyph unicode="&#xf1;" glyph-name="ntilde" horiz-adv-x="312" d="M119 82Q119 33 126 0Q96 -4 61 -4Q44 -4 44 11V407Q44 428 37 437T8 446Q7 472 21 486T68 500T114 469Q147 500 185 500T247 475T271 404V83Q271 62 278 53T307 44Q308 18 294 4T251 -10T210
7T196 63V398Q196 431 162 431Q134 431 119 400V82ZM75 552Q37 556 37 591Q37 595 38 600Q43 637 85 637Q91 637 98 636L189 623Q204 622 210 627T220 648Q239 647 248 635T257 613Q257 563 209 563Q203 563 196 564L106 578Q91 578 85 573T75 552Z" />
<glyph unicode="&#xf2;" glyph-name="ograve" horiz-adv-x="291" d="M32 92V394Q32 444 63 472T147 500T229 474T259 398V96Q259 46 228 18T143 -10T61 16T32 92ZM107 398V92Q107 75 118 64T145 52T173 63T184 92V398Q184 415 173 426T146 438T118 427T107 398ZM186
560Q188 557 188 553T183 546L147 528Q140 541 129 558L71 643Q68 648 68 652Q68 659 93 669T129 683L139 686Q143 663 152 642L186 560Z" />
<glyph unicode="&#xf3;" glyph-name="oacute" horiz-adv-x="291" d="M32 92V394Q32 444 63 472T147 500T229 474T259 398V96Q259 46 228 18T143 -10T61 16T32 92ZM107 398V92Q107 75 118 64T145 52T173 63T184 92V398Q184 415 173 426T146 438T118 427T107 398ZM169
686Q240 664 240 651Q240 648 237 643L179 558L161 528Q120 543 120 554Q120 557 122 560L156 642L169 686Z" />
<glyph unicode="&#xf4;" glyph-name="ocircumflex" horiz-adv-x="291" d="M32 92V394Q32 444 63 472T147 500T229 474T259 398V96Q259 46 228 18T143 -10T61 16T32 92ZM107 398V92Q107 75 118 64T145 52T173 63T184 92V398Q184 415 173 426T146 438T118 427T107
398ZM87 528Q45 543 45 554Q45 557 47 560L91 642L106 676Q116 684 143 684T184 677Q189 662 200 642L244 560Q246 557 246 553T241 546L204 528Q199 541 187 558L145 618L104 558L87 528Z" />
<glyph unicode="&#xf5;" glyph-name="otilde" horiz-adv-x="291" d="M32 92V394Q32 444 63 472T147 500T229 474T259 398V96Q259 46 228 18T143 -10T61 16T32 92ZM107 398V92Q107 75 118 64T145 52T173 63T184 92V398Q184 415 173 426T146 438T118 427T107 398ZM73
552Q35 556 35 591Q35 595 36 600Q41 637 83 637Q89 637 96 636L187 623Q202 622 208 627T218 648Q237 647 246 635T255 613Q255 563 207 563Q201 563 194 564L104 578Q89 578 83 573T73 552Z" />
<glyph unicode="&#xf6;" glyph-name="odieresis" horiz-adv-x="291" d="M32 92V394Q32 444 63 472T147 500T229 474T259 398V96Q259 46 228 18T143 -10T61 16T32 92ZM107 398V92Q107 75 118 64T145 52T173 63T184 92V398Q184 415 173 426T146 438T118 427T107
398ZM46 541T46 598T89 655T132 598T89 541ZM159 541T159 598T202 655T245 598T202 541Z" />
<glyph unicode="&#xf7;" glyph-name="divide" horiz-adv-x="263" d="M75 274Q42 274 25 269Q18 295 18 314T31 334H189L241 339Q246 313 246 294T233 274H75ZM89 384T89 441T132 498T175 441T132 384ZM89 110T89 167T132 224T175 167T132 110Z" />
<glyph unicode="&#xf8;" glyph-name="oslash" horiz-adv-x="298" d="M279 530Q310 530 310 514Q310 511 308 507L261 413Q262 408 262 398V96Q262 46 231 18T146 -10T64 16Q55 -7 46 -43Q35 -44 23 -44T0 -39T-11 -29T-9 -20L36 71Q35 77 35 92V394Q35 444 66
472T151 500T236 470V471Q247 499 253 528Q269 530 279 530ZM110 398V217L187 372V398Q187 415 176 426T149 438T121 427T110 398ZM110 75T121 64T148 52T176 63T187 92V264L110 109V92Q110 75 121 64Z" />
<glyph unicode="&#xf9;" glyph-name="ugrave" horiz-adv-x="312" d="M193 408Q193 457 186 490Q216 494 251 494Q268 494 268 479V83Q268 62 275 53T304 44Q305 18 291 4T249 -10Q209 -10 198 21Q167 -10 128 -10T65 16T41 92V407Q41 428 34 437T5 446Q4 471 19
485T63 500T103 484T116 431V93Q116 58 145 58Q160 58 173 69T193 94V408ZM190 560Q192 557 192 553T187 546L151 528Q144 541 133 558L75 643Q72 648 72 652Q72 659 97 669T133 683L143 686Q147 663 156 642L190 560Z" />
<glyph unicode="&#xfa;" glyph-name="uacute" horiz-adv-x="312" d="M116 93Q116 58 145 58Q160 58 173 69T193 94V408Q193 458 186 490L251 494Q268 494 268 479V83Q268 62 275 53T304 44Q305 18 291 4T249 -10Q209 -10 198 21Q167 -10 128 -10T65 16T41 92V407Q41
428 34 437T5 446Q4 471 19 485T63 500T103 484T116 431V93ZM172 686Q243 664 243 651Q243 648 240 643L182 558L164 528Q123 543 123 554Q123 557 125 560L159 642L172 686Z" />
<glyph unicode="&#xfb;" glyph-name="ucircumflex" horiz-adv-x="311" d="M115 93Q115 58 144 58Q159 58 172 69T192 94V408Q192 458 185 490L250 494Q267 494 267 479V83Q267 62 274 53T303 44Q304 18 290 4T248 -10Q208 -10 197 21Q166 -10 127 -10T64 16T40
92V407Q40 428 33 437T4 446Q3 471 18 485T62 500T102 484T115 431V93ZM95 528Q53 543 53 554Q53 557 55 560L99 642L114 676Q124 684 151 684T192 677Q197 662 208 642L252 560Q254 557 254 553T249 546L212 528Q207 541 195 558L153 618L112 558L95 528Z" />
<glyph unicode="&#xfc;" glyph-name="udieresis" horiz-adv-x="312" d="M193 408Q193 457 186 490Q216 494 251 494Q268 494 268 479V83Q268 62 275 53T304 44Q305 18 291 4T249 -10Q209 -10 198 21Q167 -10 128 -10T65 16T41 92V407Q41 428 34 437T5 446Q4 471
19 485T63 500T103 484T116 431V93Q116 58 145 58Q160 58 173 69T193 94V408ZM54 541T54 598T97 655T140 598T97 541ZM167 541T167 598T210 655T253 598T210 541Z" />
<glyph unicode="&#xfd;" glyph-name="yacute" horiz-adv-x="304" d="M193 -63V36Q168 11 129 11T65 36T41 111V407Q41 428 34 437T5 446Q4 471 19 485T63 500T103 484T116 431V112Q116 79 142 79Q156 79 171 88T193 110V408Q193 458 186 490L251 494Q268 494 268
479V-71Q268 -116 237 -139T152 -162T70 -142T41 -87V-50Q41 -33 65 -26Q77 -23 90 -23T117 -26L114 -68V-73Q114 -98 153 -98T193 -63ZM162 686Q233 664 233 651Q233 648 230 643L172 558L154 528Q113 543 113 554Q113 557 115 560L149 642L162 686Z" />
<glyph unicode="&#xfe;" glyph-name="thorn" horiz-adv-x="295" d="M36 620Q36 650 27 681Q57 697 91 697Q111 697 111 682V474Q142 500 175 500Q263 500 263 398V106Q263 56 232 28T148 0H111V-80L118 -146Q91 -157 56 -157Q36 -157 36 -142V620ZM111 64H150Q167
64 177 74T188 102V397Q188 431 158 431T111 400V64Z" />
<glyph unicode="&#xff;" glyph-name="ydieresis" horiz-adv-x="304" d="M193 408Q193 457 186 490Q216 494 251 494Q268 494 268 479V-71Q268 -116 237 -139T152 -162T70 -142T41 -87V-50Q41 -33 65 -26Q77 -23 90 -23T117 -26Q114 -50 114 -68V-73Q114 -98 153
-98T193 -63V36Q168 11 129 11T65 36T41 111V407Q41 428 34 437T5 446Q4 471 19 485T63 500T103 484T116 431V112Q116 79 142 79Q156 79 171 88T193 110V408ZM44 541T44 598T87 655T130 598T87 541ZM157 541T157 598T200 655T243 598T200 541Z" />
<glyph unicode="&#x2013;" glyph-name="endash" horiz-adv-x="288" d="M87 274Q54 274 37 269Q30 295 30 314T43 334H201L253 339Q258 313 258 294T245 274H87Z" />
<glyph unicode="&#x2014;" glyph-name="emdash" horiz-adv-x="468" d="M87 274Q54 274 37 269Q30 295 30 314T43 334H381L433 339Q438 313 438 294T425 274H87Z" />
<glyph unicode="&#x2018;" glyph-name="quoteleft" horiz-adv-x="155" d="M17 637Q17 697 60 697T103 640Q103 569 138 569Q139 548 127 538T90 527T41 561T17 637Z" />
<glyph unicode="&#x2019;" glyph-name="quoteright" horiz-adv-x="155" d="M138 637Q138 594 115 561T67 527Q15 527 17 569Q52 569 52 640Q52 697 95 697T138 637Z" />
<glyph unicode="&#x201a;" glyph-name="quotesinglbase" horiz-adv-x="137" d="M115 44Q115 0 95 -33T48 -66Q-8 -66 -6 -24Q29 -24 29 47Q29 104 72 104T115 44Z" />
<glyph unicode="&#x201c;" glyph-name="quotedblleft" horiz-adv-x="284" d="M17 637Q17 697 60 697T103 640Q103 569 138 569Q139 548 127 538T90 527T41 561T17 637ZM146 637Q146 697 189 697T232 640Q232 569 267 569Q268 548 256 538T219 527T170 561T146 637Z" />
<glyph unicode="&#x201d;" glyph-name="quotedblright" horiz-adv-x="283" d="M138 637Q138 595 114 561T66 527Q15 527 17 569Q52 569 52 640Q52 697 95 697T138 637ZM267 637Q267 595 243 561T194 527Q144 527 146 569Q181 569 181 640Q181 697 224 697T267 637Z" />
<glyph unicode="&#x201e;" glyph-name="quotedblbase" horiz-adv-x="277" d="M255 44Q255 0 235 -33T188 -66Q132 -66 134 -24Q169 -24 169 47Q169 104 212 104T255 44ZM115 44Q115 0 95 -33T48 -66Q-8 -66 -6 -24Q29 -24 29 47Q29 104 72 104T115 44Z" />
<glyph unicode="&#x2022;" glyph-name="bullet" horiz-adv-x="215" d="M44 255T44 333T107 412T171 334T108 255Z" />
<glyph unicode="&#x2039;" glyph-name="guilsinglleft" horiz-adv-x="234" d="M146 499Q180 497 198 487T216 470T214 460L86 241L177 86Q191 62 216 37Q196 8 173 -5Q165 -9 159 -9T148 -2L8 242L123 441Q135 462 146 499Z" />
<glyph unicode="&#x203a;" glyph-name="guilsinglright" horiz-adv-x="235" d="M88 -11Q54 -9 36 1T18 18T20 28L148 247L57 402Q43 426 18 451Q38 480 61 493Q69 497 75 497T86 490L226 246L111 47Q99 26 88 -11Z" />
</font>
</defs>
</svg>
