<?xml version="1.0" standalone="no"?>
<!DOCTYPE svg PUBLIC "-//W3C//DTD SVG 1.1//EN" "http://www.w3.org/Graphics/SVG/1.1/DTD/svg11.dtd">
<svg xmlns="http://www.w3.org/2000/svg">
<defs >
<font id="Amiko" horiz-adv-x="611" ><font-face
    font-family="Amiko"
    units-per-em="1000"
    panose-1="0 0 8 0 0 0 0 0 0 0"
    ascent="928"
    descent="-406"
    alphabetic="0" />
<glyph unicode=" " glyph-name="space" horiz-adv-x="280" />
<glyph unicode="!" glyph-name="exclam" horiz-adv-x="308" d="M88 754H220V254H88V754ZM117 -12T92 12T66 77Q66 117 91 141T154 166Q191 166 216 142T242 77Q242 37 217 13T154 -12Q117 -12 92 12Z" />
<glyph unicode="&quot;" glyph-name="quotedbl" horiz-adv-x="400" d="M224 696H356L344 434H236L224 696ZM44 696H176L164 434H56L44 696Z" />
<glyph unicode="#" glyph-name="numbersign" horiz-adv-x="726" d="M583 433L561 263H687L673 154H547L528 0H402L421 154H255L236 0H110L129 154H0L15 263H143L165 433H38L54 542H179L198 696H324L305 542H471L490 696H616L597 542H726L711 433H583ZM457 433H291L269
263H435L457 433Z" />
<glyph unicode="$" glyph-name="dollar" horiz-adv-x="594" d="M550 114T498 60T354 -8V-116H272V-12Q215 -9 156 5T44 44V172Q172 105 272 102V309Q203 335 163 355T94 414T65 511Q65 591 120 642T272 705V812H354V707Q451 702 528 663V538Q440 589 354 593V405Q414
383 454 360T522 296T550 196Q550 114 498 60ZM200 492T218 473T272 438V588Q238 581 219 564T200 519Q200 492 218 473ZM414 133T414 188Q414 216 399 236T354 273V112Q414 133 414 188Z" />
<glyph unicode="%" glyph-name="percent" horiz-adv-x="900" d="M115 291T69 348T22 500Q22 594 68 651T212 709Q309 709 355 652T402 500Q402 406 356 349T212 291Q115 291 69 348ZM775 696L224 0H125L676 696H775ZM253 377T273 411T293 500Q293 553 273 588T212
623Q172 623 152 588T131 500Q131 446 151 412T212 377Q253 377 273 411ZM591 -13T545 44T498 196Q498 290 544 347T688 405Q785 405 831 348T878 196Q878 102 832 45T688 -13Q591 -13 545 44ZM729 73T749 107T769 196Q769 249 749 284T688 319Q648 319 628 284T607
196Q607 142 627 108T688 73Q729 73 749 107Z" />
<glyph unicode="&amp;" glyph-name="ampersand" horiz-adv-x="682" d="M513 0L455 59Q368 -12 260 -12Q192 -12 138 14T53 87T22 194Q22 310 146 396Q116 456 116 517Q116 605 176 656T335 708Q385 708 423 694T502 648V527Q467 560 427 577T346 594Q301 594 276
573T251 513Q251 473 277 429T355 332L461 224Q494 269 535 346H539L616 276Q579 201 538 147L682 0H513ZM325 97T378 137L211 306L208 309Q160 263 160 202Q160 152 189 125T267 97Q325 97 378 137Z" />
<glyph unicode="&apos;" glyph-name="quotesingle" horiz-adv-x="220" d="M44 696H176L164 434H56L44 696Z" />
<glyph unicode="(" glyph-name="parenleft" horiz-adv-x="352" d="M145 -42T95 79T44 345Q44 644 252 822L315 754Q244 675 214 574T183 343Q183 219 212 118T316 -58L252 -126Q145 -42 95 79Z" />
<glyph unicode=")" glyph-name="parenright" horiz-adv-x="352" d="M37 -58Q108 21 138 122T169 353Q169 477 140 578T36 754L100 822Q207 738 257 617T308 351Q308 52 100 -126L37 -58Z" />
<glyph unicode="*" glyph-name="asterisk" horiz-adv-x="374" d="M118 457L49 509L148 602L147 605L22 616L45 706L161 647L164 649L141 774H235L210 648L213 646L330 705L352 615L228 604L227 601L325 508L256 456L189 575H185L118 457Z" />
<glyph unicode="+" glyph-name="plus" horiz-adv-x="594" d="M528 293H355V100H239V293H66V399H239V592H355V399H528V293Z" />
<glyph unicode="," glyph-name="comma" horiz-adv-x="260" d="M202 150Q202 83 184 12T120 -150H-12Q21 -90 36 -38T54 55T58 150H202Z" />
<glyph unicode="-" glyph-name="hyphen" horiz-adv-x="400" d="M330 323V217H70V323H330Z" />
<glyph unicode="." glyph-name="period" horiz-adv-x="260" d="M92 -12T66 13T40 79Q40 120 66 145T130 170Q168 170 194 145T220 79Q220 38 194 13T130 -12Q92 -12 66 13Z" />
<glyph unicode="/" glyph-name="slash" horiz-adv-x="352" d="M352 754L123 -232H0L228 754H352Z" />
<glyph unicode="0" glyph-name="zero" horiz-adv-x="620" d="M169 -12T102 86T35 348Q35 511 102 609T310 708Q451 708 518 610T585 348Q585 185 518 87T310 -12Q169 -12 102 86ZM382 101T414 169T446 348Q446 459 414 527T310 595Q238 595 206 527T174 348Q174
237 206 169T310 101Q382 101 414 169Z" />
<glyph unicode="1" glyph-name="one" horiz-adv-x="620" d="M553 116V0H67V116H262V542L134 486H130L102 571V575L301 696H394V116H553Z" />
<glyph unicode="2" glyph-name="two" horiz-adv-x="620" d="M547 117V0H73V100L296 334Q351 391 372 429T393 502Q393 594 279 594Q232 594 185 580T94 538V659Q182 708 285 708Q396 708 461 656T527 513Q527 409 433 305L262 117H547Z" />
<glyph unicode="3" glyph-name="three" horiz-adv-x="620" d="M496 337T524 292T553 191Q553 130 519 84T423 13T282 -12Q224 -12 172 2T67 45V174H71Q175 102 277 102Q341 102 379 127T417 198Q417 247 374 277T258 308H216V418H258Q326 418 365 443T404 512Q404
551 372 572T281 593Q236 593 191 579T91 535H87V659Q182 708 287 708Q401 708 469 659T538 524Q538 474 514 433T445 364Q496 337 524 292Z" />
<glyph unicode="4" glyph-name="four" horiz-adv-x="620" d="M579 152H483V0H351V152H39V255L351 696H483V265H579V152ZM351 265V510L193 265H351Z" />
<glyph unicode="5" glyph-name="five" horiz-adv-x="620" d="M401 437T453 408T534 328T563 214Q563 146 529 95T433 17T289 -11Q226 -11 165 5T57 53V181H61Q106 146 169 124T286 102Q350 102 389 133T428 216Q428 264 395 294T307 324Q235 324 170 271H166L79
298V303L124 696H530V581H234L215 411Q272 437 334 437Q401 437 453 408Z" />
<glyph unicode="6" glyph-name="six" horiz-adv-x="620" d="M402 447T457 419T542 339T572 221Q572 152 540 99T449 17T318 -12Q188 -12 118 78T48 330Q48 447 84 532T187 662T346 708Q451 708 541 652V531H537Q495 563 446 579T355 596Q286 596 245 548T192 407Q223
428 256 437T330 447Q402 447 457 419ZM367 100T400 133T434 219Q434 269 404 301T318 334Q257 334 188 294Q193 199 225 150T316 100Q367 100 400 133Z" />
<glyph unicode="7" glyph-name="seven" horiz-adv-x="620" d="M553 696V629L284 0H163L139 4L399 581H90V696H553Z" />
<glyph unicode="8" glyph-name="eight" horiz-adv-x="620" d="M233 -12T172 14T77 87T43 193Q43 250 74 295T154 358Q109 373 83 418T56 516Q56 573 88 617T179 684T310 708Q384 708 441 685T531 618T564 517Q564 464 537 419T465 358Q518 339 547 294T577 193Q577
133 543 87T449 14T311 -12Q233 -12 172 14ZM367 415T398 438T430 506Q430 550 399 574T310 598Q252 598 221 574T190 506Q190 462 221 439T310 415Q367 415 398 438ZM373 99T407 126T441 201Q441 250 407 276T310 303Q248 303 214 277T179 201Q179 152 213 126T310
99Q373 99 407 126Z" />
<glyph unicode="9" glyph-name="nine" horiz-adv-x="620" d="M437 708T503 621T570 364Q570 179 493 84T267 -12Q215 -12 171 0T81 42V165H85Q127 135 176 119T271 103Q343 103 381 149T428 293Q369 254 287 254Q177 254 114 314T50 476Q50 547 81 599T171 680T305
708Q437 708 503 621ZM188 428T219 398T304 367Q366 367 430 408Q425 505 395 549T304 594Q251 594 220 564T188 480Q188 428 219 398Z" />
<glyph unicode=":" glyph-name="colon" horiz-adv-x="260" d="M92 304T66 329T40 395Q40 436 66 461T130 486Q168 486 194 461T220 395Q220 354 194 329T130 304Q92 304 66 329ZM92 -12T66 13T40 79Q40 120 66 145T130 170Q168 170 194 145T220 79Q220 38 194
13T130 -12Q92 -12 66 13Z" />
<glyph unicode=";" glyph-name="semicolon" horiz-adv-x="260" d="M92 304T66 329T40 395Q40 436 66 461T130 486Q168 486 194 461T220 395Q220 354 194 329T130 304Q92 304 66 329ZM202 150Q202 83 184 12T120 -150H-12Q21 -90 36 -38T54 55T58 150H202Z" />
<glyph unicode="&lt;" glyph-name="less" horiz-adv-x="594" d="M528 586V475L204 346L528 217V106L66 298V394L528 586Z" />
<glyph unicode="=" glyph-name="equal" horiz-adv-x="594" d="M528 492V396H88V492H528ZM528 284V188H88V284H528Z" />
<glyph unicode="&gt;" glyph-name="greater" horiz-adv-x="594" d="M66 106V217L390 346L66 475V586L528 394V298L66 106Z" />
<glyph unicode="?" glyph-name="question" horiz-adv-x="550" d="M154 261Q154 318 173 355T219 414T287 459Q331 484 351 503T372 557Q372 601 334 625T232 650Q137 650 48 593H44V711Q131 766 240 766Q315 766 375 742T470 671T506 557Q506 509 488 477T444
425T377 383Q331 358 309 337T286 281V254H154V261ZM182 -12T157 12T131 77Q131 117 156 141T219 166Q256 166 281 142T307 77Q307 37 282 13T219 -12Q182 -12 157 12Z" />
<glyph unicode="@" glyph-name="at" horiz-adv-x="858" d="M570 254Q566 231 566 210Q566 177 582 156T630 135Q668 135 695 167T722 268Q722 346 685 408T581 505T431 541Q343 541 276 502T173 394T136 235Q136 148 171 84T272 -14T422 -48Q522 -48 626 5H630V-82Q538
-135 424 -135Q312 -135 226 -88T92 43T44 238Q44 350 92 439T229 578T432 629Q546 629 633 580T767 449T814 274Q814 205 789 155T721 79T629 53Q587 53 551 71T494 125Q462 92 427 75T357 58Q303 58 275 98T247 209Q247 268 266 323T326 413T427 448Q476 448
521 422H595L570 254ZM433 143T477 177Q475 193 475 202Q475 220 478 239L495 354Q459 366 435 366Q384 366 364 323T343 217Q343 177 353 160T390 143Q433 143 477 177Z" />
<glyph unicode="A" glyph-name="A" horiz-adv-x="740" d="M516 158H219L161 0H29L293 696H447L711 0H574L516 158ZM475 270L368 566L260 270H475Z" />
<glyph unicode="B" glyph-name="B" horiz-adv-x="700" d="M573 339T601 297T629 195Q629 100 560 50T360 0H103V696H372Q485 696 546 649T607 513Q607 408 519 362Q573 339 601 297ZM235 580V414H360Q414 414 441 436T468 500Q468 546 445 563T361 580H235ZM431
117T460 137T490 208Q490 255 459 277T361 299H235V117H360Q431 117 460 137Z" />
<glyph unicode="C" glyph-name="C" horiz-adv-x="720" d="M331 -12T249 32T123 157T79 348Q79 457 123 538T251 664T452 708Q501 708 548 699T634 670V548H630Q592 570 548 581T463 592Q349 592 284 529T218 348Q218 231 282 168T457 105Q500 105 544 118T630
157H634V34Q554 -12 446 -12Q331 -12 249 32Z" />
<glyph unicode="D" glyph-name="D" horiz-adv-x="780" d="M467 696T544 654T661 533T701 348Q701 242 661 164T544 43T360 0H103V696H360Q467 696 544 654ZM455 117T508 176T562 348Q562 461 509 520T360 579H235V117H360Q455 117 508 176Z" />
<glyph unicode="E" glyph-name="E" horiz-adv-x="640" d="M235 580V406H535V297H235V116H557V0H103V696H557V580H235Z" />
<glyph unicode="F" glyph-name="F" horiz-adv-x="600" d="M235 580V395H494V285H235V0H103V696H560V580H235Z" />
<glyph unicode="G" glyph-name="G" horiz-adv-x="780" d="M79 456T121 538T244 664T435 708Q498 708 548 695T646 659V536H642Q607 557 556 571T445 586Q218 586 218 347Q218 230 272 170T430 110Q514 110 555 145V250H423V360H687V75Q607 26 549 7T426 -12Q316
-12 238 32T120 156T79 345Q79 456 121 538Z" />
<glyph unicode="H" glyph-name="H" horiz-adv-x="800" d="M697 696V0H565V306H235V0H103V696H235V423H565V696H697Z" />
<glyph unicode="I" glyph-name="I" horiz-adv-x="320" d="M94 696H226V0H94V696Z" />
<glyph unicode="J" glyph-name="J" horiz-adv-x="440" d="M97 -12T37 25V143Q93 107 148 107Q182 107 196 122T213 163T216 251V696H348V214Q348 94 301 41T167 -12Q97 -12 37 25Z" />
<glyph unicode="K" glyph-name="K" horiz-adv-x="700" d="M311 288L235 200V0H103V696H235V380L502 696H664L401 392L680 0H517L311 288Z" />
<glyph unicode="L" glyph-name="L" horiz-adv-x="580" d="M103 696H235V116H528V0H103V696Z" />
<glyph unicode="M" glyph-name="M" horiz-adv-x="980" d="M877 0H745V529L561 0H423L235 528V0H103V696H310L494 180L673 696H877V0Z" />
<glyph unicode="N" glyph-name="N" horiz-adv-x="800" d="M697 696V0H565L235 460V0H103V696H235L565 237V696H697Z" />
<glyph unicode="O" glyph-name="O" horiz-adv-x="840" d="M313 -12T236 32T119 157T79 348Q79 458 119 539T236 664T420 708Q527 708 604 664T721 539T761 348Q761 238 721 157T604 32T420 -12Q313 -12 236 32ZM514 110T568 171T622 348Q622 463 568 524T420 586Q326
586 272 525T218 348Q218 233 272 172T420 110Q514 110 568 171Z" />
<glyph unicode="P" glyph-name="P" horiz-adv-x="660" d="M103 696H333Q477 696 548 638T619 468Q619 356 549 294T345 232H235V0H103V696ZM334 347Q409 347 444 374T480 465Q480 527 445 553T333 579H235V347H334Z" />
<glyph unicode="Q" glyph-name="Q" horiz-adv-x="840" d="M761 231T716 147T584 22L688 -170H553L466 -10Q436 -12 420 -12Q313 -12 236 32T119 157T79 348Q79 458 119 539T236 664T420 708Q527 708 604 664T721 539T761 348Q761 231 716 147ZM218 228T271 165T420
101Q515 101 568 164T622 348Q622 468 569 531T420 595Q325 595 272 532T218 348Q218 228 271 165Z" />
<glyph unicode="R" glyph-name="R" horiz-adv-x="700" d="M501 0L359 265H235V0H103V696H354Q489 696 556 642T623 485Q623 412 590 361T492 285L646 0H501ZM235 381H355Q421 381 452 404T484 482Q484 535 453 557T354 579H235V381Z" />
<glyph unicode="S" glyph-name="S" horiz-adv-x="640" d="M263 -12T200 3T81 44V172Q211 102 313 102Q364 102 395 124T427 186Q427 214 410 233T366 265T292 296Q227 320 186 342T116 404T87 509Q87 603 152 655T330 708Q383 708 434 697T528 663V538Q427 594
333 594Q281 594 252 576T222 523Q222 489 252 470T347 427Q414 402 457 379T531 313T565 200Q565 101 498 45T319 -12Q263 -12 200 3Z" />
<glyph unicode="T" glyph-name="T" horiz-adv-x="640" d="M254 575H56V696H584V575H386V0H254V575Z" />
<glyph unicode="U" glyph-name="U" horiz-adv-x="780" d="M251 -12T172 68T93 288V696H225V291Q225 195 268 150T390 104Q470 104 512 150T555 291V696H687V288Q687 148 608 68T390 -12Q251 -12 172 68Z" />
<glyph unicode="V" glyph-name="V" horiz-adv-x="700" d="M681 696L427 0H273L19 696H162L353 140L543 696H681Z" />
<glyph unicode="W" glyph-name="W" horiz-adv-x="1060" d="M1051 696L832 0H678L530 500L382 0H228L9 696H152L307 161L460 696H605L758 161L913 696H1051Z" />
<glyph unicode="X" glyph-name="X" horiz-adv-x="700" d="M524 0L347 255L173 0H31L278 355L43 696H188L353 458L515 696H657L422 358L669 0H524Z" />
<glyph unicode="Y" glyph-name="Y" horiz-adv-x="660" d="M649 696L396 240V0H264V240L11 696H152L331 358L513 696H649Z" />
<glyph unicode="Z" glyph-name="Z" horiz-adv-x="660" d="M607 109V0H53V98L419 587H75V696H585V598L221 109H607Z" />
<glyph unicode="[" glyph-name="bracketleft" horiz-adv-x="396" d="M352 812V703H220V-7H352V-116H88V812H352Z" />
<glyph unicode="\" glyph-name="backslash" horiz-adv-x="352" d="M0 754H124L352 -232H229L0 754Z" />
<glyph unicode="]" glyph-name="bracketright" horiz-adv-x="396" d="M44 -116V-7H176V703H44V812H308V-116H44Z" />
<glyph unicode="^" glyph-name="asciicircum" horiz-adv-x="484" d="M392 196L242 367L92 196L22 247L202 515H282L462 247L392 196Z" />
<glyph unicode="_" glyph-name="underscore" horiz-adv-x="600" d="M553 -20V-126H47V-20H553Z" />
<glyph unicode="`" glyph-name="grave" horiz-adv-x="352" d="M-37 782H115L229 625H103L-37 782Z" />
<glyph unicode="a" glyph-name="a" horiz-adv-x="580" d="M408 0L395 63Q324 -12 224 -12Q145 -12 96 29T46 137Q46 224 110 272T297 321Q341 321 385 317V336Q385 380 360 401T281 423Q228 423 183 406T84 349V467Q130 502 180 518T290 534Q401 534 459 487T518
348V116L540 0H408ZM178 89T244 89Q282 89 316 104T385 154V225H289Q231 225 205 208T178 147Q178 89 244 89Z" />
<glyph unicode="b" glyph-name="b" horiz-adv-x="640" d="M429 534T478 500T556 404T584 259Q584 132 519 61T340 -11Q307 -11 278 -4T212 21V0H80V754H212V471Q275 534 364 534Q429 534 478 500ZM389 100T417 138T445 261Q445 342 422 381T350 420Q280 420 212
356V112Q239 104 265 102T327 100Q389 100 417 138Z" />
<glyph unicode="c" glyph-name="c" horiz-adv-x="540" d="M246 -12T185 21T90 116T57 259Q57 341 91 403T186 500T328 534Q418 534 480 497V381H476Q443 401 405 411T333 421Q264 421 229 380T194 259Q194 101 331 101Q367 101 404 112T476 145H480V27Q416 -12
328 -12Q246 -12 185 21Z" />
<glyph unicode="d" glyph-name="d" horiz-adv-x="640" d="M458 0L438 70Q402 31 355 10T255 -11Q163 -11 110 61T56 257Q56 388 117 461T291 534Q363 534 425 503V754H557V116L579 0H458ZM195 181T219 139T290 97Q356 97 425 163V410Q367 425 319 425Q255 425
225 385T195 259Q195 181 219 139Z" />
<glyph unicode="e" glyph-name="e" horiz-adv-x="600" d="M550 221H187Q195 161 231 129T329 97Q374 97 426 113T524 159H528V52Q488 21 437 5T328 -12Q246 -12 185 21T91 116T58 261Q58 342 89 404T178 500T310 534Q383 534 437 501T521 406T550 261V221ZM263
428T232 397T189 311H414Q406 368 380 398T310 428Q263 428 232 397Z" />
<glyph unicode="f" glyph-name="f" horiz-adv-x="360" d="M101 424H23V522H101V582Q101 675 144 720T269 766Q300 766 322 760T365 742V633Q321 656 286 656Q257 656 245 640T233 582V522H355V424H233V0H101V424Z" />
<glyph unicode="g" glyph-name="g" horiz-adv-x="620" d="M572 522L550 407V0Q550 -119 480 -181T289 -244Q225 -244 174 -227T76 -181V-57Q170 -129 278 -129Q418 -129 418 0V41Q356 7 282 7Q177 7 117 76T56 268Q56 392 119 463T292 534Q327 534 359 527T435
501L440 522H572ZM350 121T418 161V411Q392 419 367 421T305 423Q247 423 221 386T195 268Q195 191 217 156T287 121Q350 121 418 161Z" />
<glyph unicode="h" glyph-name="h" horiz-adv-x="640" d="M454 534T502 488T551 365V0H419V290Q419 358 399 387T331 417Q278 417 221 358V0H89V754H221V468Q260 503 296 518T375 534Q454 534 502 488Z" />
<glyph unicode="i" glyph-name="i" horiz-adv-x="280" d="M106 600T82 623T58 683Q58 720 82 743T140 766Q174 766 198 743T222 683Q222 646 198 623T140 600Q106 600 82 623ZM206 522V0H74V521L206 522Z" />
<glyph unicode="j" glyph-name="j" horiz-adv-x="280" d="M112 600T88 623T64 683Q64 720 88 743T146 766Q180 766 204 743T228 683Q228 646 204 623T146 600Q112 600 88 623ZM-5 -244T-29 -238T-74 -216V-107Q-51 -122 -29 -128T19 -134Q51 -134 65 -117T80 -60V522H212V-60Q212
-244 31 -244Q-5 -244 -29 -238Z" />
<glyph unicode="k" glyph-name="k" horiz-adv-x="580" d="M280 219L220 153V0H88V754H220V312L402 522H552L362 311L564 0H413L280 219Z" />
<glyph unicode="l" glyph-name="l" horiz-adv-x="280" d="M74 754H206V0H74V754Z" />
<glyph unicode="m" glyph-name="m" horiz-adv-x="940" d="M760 534T805 488T851 365V0H719V290Q719 358 701 387T641 417Q590 417 536 360V0H404V290Q404 358 386 387T326 417Q275 417 221 360V0H89V406L67 522H188L207 455Q247 497 286 515T370 534Q420 534 458
512T517 450Q559 495 598 514T685 534Q760 534 805 488Z" />
<glyph unicode="n" glyph-name="n" horiz-adv-x="640" d="M454 534T502 488T551 365V0H419V290Q419 358 399 387T331 417Q279 417 221 359V0H89V406L67 522H188L207 455Q250 497 290 515T375 534Q454 534 502 488Z" />
<glyph unicode="o" glyph-name="o" horiz-adv-x="640" d="M241 -12T181 21T89 117T56 261Q56 343 88 405T181 500T320 534Q399 534 459 501T551 405T584 261Q584 179 552 117T459 22T320 -12Q241 -12 181 21ZM379 97T412 139T445 261Q445 341 412 383T320 425Q261
425 228 383T195 261Q195 182 228 140T320 97Q379 97 412 139Z" />
<glyph unicode="p" glyph-name="p" horiz-adv-x="640" d="M442 533T487 500T558 406T584 266Q584 188 554 125T472 25T353 -12Q273 -12 211 21V-232H79V406L57 522H178L199 448Q235 489 283 511T383 533Q442 533 487 500ZM445 97T445 264Q445 341 422 383T353
425Q281 425 211 355V113Q275 97 326 97Q445 97 445 264Z" />
<glyph unicode="q" glyph-name="q" horiz-adv-x="640" d="M587 523L565 407V-231H433V32Q372 -11 299 -11Q181 -11 119 62T56 275Q56 353 86 411T173 502T305 534Q338 534 371 526T449 496L455 523H587ZM363 103T433 146V409Q390 423 314 423Q253 423 224 387T195
275Q195 184 219 144T299 103Q363 103 433 146Z" />
<glyph unicode="r" glyph-name="r" horiz-adv-x="420" d="M367 534V404H350Q272 404 223 361V0H91V406L69 522H201L214 453Q247 498 274 516T334 534H367Z" />
<glyph unicode="s" glyph-name="s" horiz-adv-x="500" d="M189 -12T139 2T45 44V169Q93 133 136 116T229 99Q280 99 304 112T329 152Q329 178 306 190T231 215Q175 229 140 243T80 291T54 380Q54 450 111 492T266 534Q313 534 353 524T435 489V367Q392 397 355
410T276 423Q230 423 205 412T180 378Q180 356 201 346T270 324Q326 312 363 297T428 247T455 151Q455 104 428 67T352 9T241 -12Q189 -12 139 2Z" />
<glyph unicode="t" glyph-name="t" horiz-adv-x="400" d="M235 522H355V424H235V172Q235 96 293 96Q320 96 356 115V6Q331 -3 310 -7T261 -12Q103 -12 103 172V424H27V522H103V662L235 708V522Z" />
<glyph unicode="u" glyph-name="u" horiz-adv-x="640" d="M448 0L429 68Q378 23 340 6T252 -12Q205 -12 167 10T107 70T85 157V522H217V232Q217 169 237 137T295 105Q327 105 355 119T415 164V522H547V116L569 0H448Z" />
<glyph unicode="v" glyph-name="v" horiz-adv-x="560" d="M555 522L362 0H198L5 522H139L282 110L425 522H555Z" />
<glyph unicode="w" glyph-name="w" horiz-adv-x="860" d="M847 522L688 0H530L429 350L330 0H172L12 522H146L256 135L364 522H498L608 134L717 522H847Z" />
<glyph unicode="x" glyph-name="x" horiz-adv-x="560" d="M420 0L274 188L133 0H-6L206 276L16 522H162L286 362L405 522H544L354 274L566 0H420Z" />
<glyph unicode="y" glyph-name="y" horiz-adv-x="560" d="M555 522L256 -232H131L216 -17L5 522H139L284 140L423 522H555Z" />
<glyph unicode="z" glyph-name="z" horiz-adv-x="520" d="M483 102V0H37V92L289 420H59V522H462V430L210 102H483Z" />
<glyph unicode="{" glyph-name="braceleft" horiz-adv-x="418" d="M270 439T247 402T180 347Q222 331 246 293T270 207V100Q270 56 289 25T342 -7H374V-116H289Q246 -116 213 -91T161 -25T143 64V197Q143 248 118 274T44 300V395Q93 395 118 421T143 498V632Q143
680 161 721T213 787T290 812H374V703H342Q308 703 289 672T270 596V488Q270 439 247 402Z" />
<glyph unicode="|" glyph-name="bar" horiz-adv-x="308" d="M220 812V-116H88V812H220Z" />
<glyph unicode="}" glyph-name="braceright" horiz-adv-x="418" d="M44 -7H76Q110 -7 129 24T148 100V208Q148 257 171 294T238 349Q196 365 172 403T148 489V596Q148 640 129 671T76 703H44V812H129Q172 812 205 787T257 721T275 632V499Q275 448 300 422T374
396V301Q325 301 300 275T275 198V64Q275 16 257 -25T205 -91T128 -116H44V-7Z" />
<glyph unicode="~" glyph-name="asciitilde" horiz-adv-x="528" d="M330 239T308 245T258 264Q225 276 208 281T168 287Q102 287 44 239V347Q107 400 173 400Q197 400 218 394T269 376Q299 364 318 358T360 352Q426 352 484 389V281Q424 239 355 239Q330 239 308 245Z" />
<glyph unicode="&#xa0;" glyph-name="uni00A0" horiz-adv-x="280" />
<glyph unicode="&#xa1;" glyph-name="exclamdown" horiz-adv-x="308" d="M117 356T92 380T66 445Q66 485 91 509T154 534Q191 534 216 510T242 445Q242 405 217 381T154 356Q117 356 92 380ZM88 268H220V-232H88V268Z" />
<glyph unicode="&#xa2;" glyph-name="cent" horiz-adv-x="594" d="M528 52Q495 23 459 8T377 -11V-116H295V-10Q217 -1 161 35T74 129T44 259Q44 332 74 390T160 486T295 531V638H377V533Q419 530 452 519T517 483V365H513Q450 412 377 419V103Q419 108 454 124T524
170H528V52ZM181 200T210 159T295 106V416Q240 403 211 361T181 258Q181 200 210 159Z" />
<glyph unicode="&#xa3;" glyph-name="sterling" horiz-adv-x="594" d="M550 117V0H44V117H118V303H44V406H118V480Q118 587 175 647T338 708Q441 708 514 647V526H510Q432 598 350 598Q297 598 274 568T250 477V406H418V303H250V117H550Z" />
<glyph unicode="&#xa4;" glyph-name="currency" horiz-adv-x="594" d="M527 257T495 204L578 122L507 51L425 134Q368 101 298 101Q226 101 171 134L88 51L17 122L99 204Q67 260 67 329Q67 402 101 458L17 541L88 612L171 528Q225 562 298 562Q369 562 424 529L507
612L578 541L494 457Q527 400 527 329Q527 257 495 204ZM176 275T210 239T298 203Q351 203 384 238T417 332Q417 389 384 422T298 456Q245 456 211 423T176 332Q176 275 210 239Z" />
<glyph unicode="&#xa5;" glyph-name="yen" horiz-adv-x="594" d="M403 318H506V226H363V174H506V82H363V0H231V82H88V174H231V226H88V318H191L0 696H147L297 367L452 696H594L403 318Z" />
<glyph unicode="&#xa6;" glyph-name="brokenbar" horiz-adv-x="308" d="M220 812V406H88V812H220ZM220 291V-116H88V291H220Z" />
<glyph unicode="&#xa7;" glyph-name="section" horiz-adv-x="550" d="M240 594T210 577T179 531Q179 500 208 482T303 439Q366 416 406 395T476 335T506 240Q506 168 469 117Q506 74 506 7Q506 -81 443 -127T263 -174Q205 -174 149 -163T44 -129V-4Q153 -60 261
-60Q371 -60 371 -2Q371 20 355 36T316 64T246 93Q183 116 143 137T73 197T44 294Q44 366 80 415Q44 461 44 525Q44 615 108 661T288 708Q405 708 507 663V538Q452 567 397 580T294 594Q240 594 210 577ZM370 235T353 254T311 286T239 318L184 341Q180 330 180
316Q180 289 197 270T240 239T313 208Q346 196 367 187Q370 196 370 208Q370 235 353 254Z" />
<glyph unicode="&#xa8;" glyph-name="dieresis" horiz-adv-x="484" d="M113 610T92 631T70 684Q70 716 91 737T143 758Q173 758 194 737T216 684Q216 652 195 631T143 610Q113 610 92 631ZM311 610T290 631T268 684Q268 716 289 737T341 758Q371 758 392 737T414
684Q414 652 393 631T341 610Q311 610 290 631Z" />
<glyph unicode="&#xa9;" glyph-name="copyright" horiz-adv-x="858" d="M66 450T113 532T243 661T433 708Q537 708 618 662T746 533T792 344Q792 240 746 159T619 33T433 -12Q327 -12 244 33T113 159T66 344Q66 450 113 532ZM164 265T198 204T294 110T433 76Q508
76 567 109T660 204T694 344Q694 425 661 487T568 585T433 620Q355 620 294 585T199 488T164 344Q164 265 198 204ZM401 453T380 423T359 346Q359 301 380 272T439 243Q476 243 505 256T561 296H565V187Q537 160 504 149T429 138Q343 138 293 196T243 347Q243 408
265 456T330 531T430 558Q470 558 500 550T557 519V410H553Q527 433 501 443T440 453Q401 453 380 423Z" />
<glyph unicode="&#xaa;" glyph-name="ordfeminine" horiz-adv-x="330" d="M235 427L224 456Q186 420 137 420Q89 420 61 443T33 507Q33 594 181 594Q200 594 212 593V603Q212 619 200 629T162 639Q112 639 56 605V678Q103 708 169 708Q229 708 263 681T297 609V488L308
427H235ZM122 486T151 486Q181 486 212 504V537H171Q150 537 136 529T122 506Q122 486 151 486Z" />
<glyph unicode="&#xab;" glyph-name="guillemotleft" horiz-adv-x="572" d="M310 58H157L0 263V267L167 464H310L149 267V263L310 58ZM572 58H419L262 263V267L429 464H572L411 267V263L572 58Z" />
<glyph unicode="&#xac;" glyph-name="logicalnot" horiz-adv-x="550" d="M506 384V138H374V275H66V384H506Z" />
<glyph unicode="&#xad;" glyph-name="uni00AD" horiz-adv-x="400" d="M330 323V217H70V323H330Z" />
<glyph unicode="&#xae;" glyph-name="registered" horiz-adv-x="682" d="M423 708T485 673T581 576T616 433Q616 353 582 292T485 196T343 162Q263 162 200 196T102 292T66 433Q66 512 101 575T200 673T343 708Q423 708 485 673ZM434 229T489 284T545 433Q545
495 520 542T448 616T343 642Q283 642 237 616T164 543T138 433Q138 372 164 326T236 254T343 229Q434 229 489 284ZM473 456T458 431T415 394L472 287H394L343 383H308V287H238V587H353Q473 587 473 490Q473 456 458 431ZM308 450H353Q378 450 389 458T401 486Q401
505 390 512T353 519H308V450Z" />
<glyph unicode="&#xaf;" glyph-name="overscore" horiz-adv-x="462" d="M382 734V634H80V734H382Z" />
<glyph unicode="&#xb0;" glyph-name="degree" horiz-adv-x="374" d="M44 626T84 666T188 707Q251 707 290 667T330 562Q330 499 291 460T188 420Q124 420 84 459T44 562Q44 626 84 666ZM127 536T144 518T188 500Q214 500 230 518T246 564Q246 592 230 609T188
626Q161 626 144 609T127 564Q127 536 144 518Z" />
<glyph unicode="&#xb1;" glyph-name="plusminus" horiz-adv-x="594" d="M528 164V58H66V164H528ZM528 397H355V204H239V397H66V503H239V696H355V503H528V397Z" />
<glyph unicode="&#xb2;" glyph-name="uni00B2" horiz-adv-x="409" d="M363 486V398H46V477L182 592Q246 647 246 687Q246 706 231 714T184 722Q119 722 59 689V780Q122 809 189 809Q264 809 307 779T351 692Q351 634 290 575L196 486H363Z" />
<glyph unicode="&#xb3;" glyph-name="uni00B3" horiz-adv-x="410" d="M339 593T354 567T370 511Q370 455 320 423T187 391Q109 391 40 424V522H43Q113 478 182 478Q263 478 263 515Q263 537 238 552T172 567H145V650H172Q210 650 232 662T255 694Q255 721 186
721Q126 721 55 685H53V780Q118 809 190 809Q268 809 314 780T360 700Q360 673 347 650T310 610Q339 593 354 567Z" />
<glyph unicode="&#xb4;" glyph-name="acute" horiz-adv-x="352" d="M237 782H381L241 586H123L237 782Z" />
<glyph unicode="&#xb5;" glyph-name="uni00B5" horiz-adv-x="616" d="M66 522H198V205Q198 152 217 126T281 100Q350 100 396 166V522H528V116L550 0H440L420 68Q388 26 353 7T277 -12Q241 -12 218 1T178 39L198 -174H66V522Z" />
<glyph unicode="&#xb6;" glyph-name="paragraph" horiz-adv-x="682" d="M308 -116V232H275Q151 232 87 292T22 468Q22 696 282 696H440V-116H308ZM638 696V-116H506V696H638Z" />
<glyph unicode="&#xb7;" glyph-name="middot" horiz-adv-x="200" d="M62 170T36 195T10 261Q10 302 36 327T100 352Q138 352 164 327T190 261Q190 220 164 195T100 170Q62 170 36 195Z" />
<glyph unicode="&#xb8;" glyph-name="cedilla" horiz-adv-x="310" d="M91 -244T40 -218V-133H44Q91 -158 131 -158Q155 -158 168 -147T181 -116Q181 -90 160 -60T102 0L208 26Q278 -60 278 -131Q278 -186 239 -215T143 -244Q91 -244 40 -218Z" />
<glyph unicode="&#xb9;" glyph-name="uni00B9" horiz-adv-x="410" d="M370 486V398H40V486H164V688L85 664H82L60 731V733L197 802H268V486H370Z" />
<glyph unicode="&#xba;" glyph-name="ordmasculine" horiz-adv-x="352" d="M108 420T71 459T33 564Q33 629 70 668T176 708Q244 708 281 669T319 564Q319 499 282 460T176 420Q108 420 71 459ZM204 488T217 509T230 564Q230 598 217 619T177 640Q149 640 136 619T122
564Q122 530 135 509T177 488Q204 488 217 509Z" />
<glyph unicode="&#xbb;" glyph-name="guillemotright" horiz-adv-x="572" d="M0 464H153L310 259V255L143 58H0L161 255V259L0 464ZM262 464H415L572 259V255L405 58H262L423 255V259L262 464Z" />
<glyph unicode="&#xbc;" glyph-name="onequarter" horiz-adv-x="1099" d="M370 386V298H40V386H164V588L85 564H82L60 631V633L197 702H268V386H370ZM817 696L403 0H283L697 696H817ZM1070 75H1012V-6H908V75H709V157H710L908 398H1012V161H1070V75ZM908 161V268L831
161H908Z" />
<glyph unicode="&#xbd;" glyph-name="onehalf" horiz-adv-x="1099" d="M370 386V298H40V386H164V588L85 564H82L60 631V633L197 702H268V386H370ZM817 696L403 0H283L697 696H817ZM1053 82V-6H736V73L872 188Q936 243 936 283Q936 302 921 310T874 318Q809 318
749 285V376Q812 405 879 405Q954 405 997 375T1041 288Q1041 230 980 171L886 82H1053Z" />
<glyph unicode="&#xbe;" glyph-name="threequarters" horiz-adv-x="1099" d="M339 493T354 467T370 411Q370 355 320 323T187 291Q109 291 40 324V422H43Q113 378 182 378Q263 378 263 415Q263 437 238 452T172 467H145V550H172Q210 550 232 562T255 594Q255 621
186 621Q126 621 55 585H53V680Q118 709 190 709Q268 709 314 680T360 600Q360 573 347 550T310 510Q339 493 354 467ZM817 696L403 0H283L697 696H817ZM1070 75H1012V-6H908V75H709V157H710L908 398H1012V161H1070V75ZM908 161V268L831 161H908Z" />
<glyph unicode="&#xbf;" glyph-name="questiondown" horiz-adv-x="550" d="M368 533T393 509T419 444Q419 404 394 380T331 355Q294 355 269 379T243 444Q243 484 268 508T331 533Q368 533 393 509ZM396 260Q396 203 377 166T331 107T263 62Q219 37 199 18T178
-36Q178 -80 216 -104T318 -129Q413 -129 502 -72H506V-190Q419 -245 310 -245Q235 -245 175 -221T80 -150T44 -36Q44 12 62 44T106 96T173 138Q219 163 241 184T264 240V267H396V260Z" />
<glyph unicode="&#xc0;" glyph-name="Agrave" horiz-adv-x="740" d="M516 158H219L161 0H29L293 696H447L711 0H574L516 158ZM475 270L368 566L260 270H475ZM309 782L168 928H320L424 782H309Z" />
<glyph unicode="&#xc1;" glyph-name="Aacute" horiz-adv-x="740" d="M516 158H219L161 0H29L293 696H447L711 0H574L516 158ZM475 270L368 566L260 270H475ZM416 928H568L427 782H312L416 928Z" />
<glyph unicode="&#xc2;" glyph-name="Acircumflex" horiz-adv-x="740" d="M516 158H219L161 0H29L293 696H447L711 0H574L516 158ZM475 270L368 566L260 270H475ZM306 928H434L528 732H429L369 842L311 732H212L306 928Z" />
<glyph unicode="&#xc3;" glyph-name="Atilde" horiz-adv-x="740" d="M516 158H219L161 0H29L293 696H447L711 0H574L516 158ZM475 270L368 566L260 270H475ZM420 773T404 779T365 798Q340 811 327 816T296 821Q249 821 205 773V867Q251 920 301 920Q320 920 336
914T375 895Q400 882 413 877T444 872Q491 872 535 909V815Q489 773 439 773Q420 773 404 779Z" />
<glyph unicode="&#xc4;" glyph-name="Adieresis" horiz-adv-x="740" d="M516 158H219L161 0H29L293 696H447L711 0H574L516 158ZM475 270L368 566L260 270H475ZM241 770T220 791T198 844Q198 876 219 897T271 918Q301 918 322 897T344 844Q344 812 323 791T271
770Q241 770 220 791ZM439 770T418 791T396 844Q396 876 417 897T469 918Q499 918 520 897T542 844Q542 812 521 791T469 770Q439 770 418 791Z" />
<glyph unicode="&#xc5;" glyph-name="Aring" horiz-adv-x="740" d="M516 158H219L161 0H29L293 696H447L711 0H574L516 158ZM475 270L368 566L260 270H475ZM260 864T292 896T370 928Q416 928 448 896T480 818Q480 772 448 740T370 708Q324 708 292 740T260 818Q260
864 292 896ZM327 800T339 787T370 774Q388 774 400 787T412 818Q412 837 400 849T370 861Q351 861 339 849T327 818Q327 800 339 787Z" />
<glyph unicode="&#xc6;" glyph-name="AE" horiz-adv-x="980" d="M254 161L169 0H29L390 696H897V580H612V407H875V297H612V116H897V0H480V161H254ZM480 595L309 269H480V595Z" />
<glyph unicode="&#xc7;" glyph-name="Ccedilla" horiz-adv-x="720" d="M349 592T284 529T218 348Q218 231 282 168T457 105Q500 105 544 118T630 157H634V34Q567 -5 475 -11Q518 -76 518 -131Q518 -186 479 -215T383 -244Q331 -244 280 -218V-133H284Q331 -158
371 -158Q395 -158 408 -147T421 -116Q421 -91 401 -61T344 -2Q218 25 149 117T79 348Q79 457 123 538T251 664T452 708Q501 708 548 699T634 670V548H630Q592 570 548 581T463 592Q349 592 284 529Z" />
<glyph unicode="&#xc8;" glyph-name="Egrave" horiz-adv-x="640" d="M235 580V406H535V297H235V116H557V0H103V696H557V580H235ZM278 782L137 928H289L393 782H278Z" />
<glyph unicode="&#xc9;" glyph-name="Eacute" horiz-adv-x="640" d="M235 580V406H535V297H235V116H557V0H103V696H557V580H235ZM385 928H537L396 782H281L385 928Z" />
<glyph unicode="&#xca;" glyph-name="Ecircumflex" horiz-adv-x="640" d="M235 580V406H535V297H235V116H557V0H103V696H557V580H235ZM275 928H403L497 732H398L338 842L280 732H181L275 928Z" />
<glyph unicode="&#xcb;" glyph-name="Edieresis" horiz-adv-x="640" d="M235 580V406H535V297H235V116H557V0H103V696H557V580H235ZM210 770T189 791T167 844Q167 876 188 897T240 918Q270 918 291 897T313 844Q313 812 292 791T240 770Q210 770 189 791ZM408
770T387 791T365 844Q365 876 386 897T438 918Q468 918 489 897T511 844Q511 812 490 791T438 770Q408 770 387 791Z" />
<glyph unicode="&#xcc;" glyph-name="Igrave" horiz-adv-x="320" d="M94 696H226V0H94V696ZM99 782L-42 928H110L214 782H99Z" />
<glyph unicode="&#xcd;" glyph-name="Iacute" horiz-adv-x="320" d="M94 696H226V0H94V696ZM206 928H358L217 782H102L206 928Z" />
<glyph unicode="&#xce;" glyph-name="Icircumflex" horiz-adv-x="320" d="M94 696H226V0H94V696ZM96 928H224L318 732H219L159 842L101 732H2L96 928Z" />
<glyph unicode="&#xcf;" glyph-name="Idieresis" horiz-adv-x="320" d="M94 696H226V0H94V696ZM31 770T10 791T-12 844Q-12 876 9 897T61 918Q91 918 112 897T134 844Q134 812 113 791T61 770Q31 770 10 791ZM229 770T208 791T186 844Q186 876 207 897T259 918Q289
918 310 897T332 844Q332 812 311 791T259 770Q229 770 208 791Z" />
<glyph unicode="&#xd0;" glyph-name="Eth" horiz-adv-x="780" d="M467 696T544 654T661 533T701 348Q701 242 661 164T544 43T360 0H103V295H29V401H103V696H360Q467 696 544 654ZM455 117T508 176T562 348Q562 461 509 520T360 579H235V401H309V295H235V117H360Q455
117 508 176Z" />
<glyph unicode="&#xd1;" glyph-name="Ntilde" horiz-adv-x="800" d="M697 696V0H565L235 460V0H103V696H235L565 237V696H697ZM450 773T434 779T395 798Q370 811 357 816T326 821Q279 821 235 773V867Q281 920 331 920Q350 920 366 914T405 895Q430 882 443 877T474
872Q521 872 565 909V815Q519 773 469 773Q450 773 434 779Z" />
<glyph unicode="&#xd2;" glyph-name="Ograve" horiz-adv-x="840" d="M313 -12T236 32T119 157T79 348Q79 458 119 539T236 664T420 708Q527 708 604 664T721 539T761 348Q761 238 721 157T604 32T420 -12Q313 -12 236 32ZM514 110T568 171T622 348Q622 463 568
524T420 586Q326 586 272 525T218 348Q218 233 272 172T420 110Q514 110 568 171ZM359 782L218 928H370L474 782H359Z" />
<glyph unicode="&#xd3;" glyph-name="Oacute" horiz-adv-x="840" d="M313 -12T236 32T119 157T79 348Q79 458 119 539T236 664T420 708Q527 708 604 664T721 539T761 348Q761 238 721 157T604 32T420 -12Q313 -12 236 32ZM514 110T568 171T622 348Q622 463 568
524T420 586Q326 586 272 525T218 348Q218 233 272 172T420 110Q514 110 568 171ZM466 928H618L477 782H362L466 928Z" />
<glyph unicode="&#xd4;" glyph-name="Ocircumflex" horiz-adv-x="840" d="M313 -12T236 32T119 157T79 348Q79 458 119 539T236 664T420 708Q527 708 604 664T721 539T761 348Q761 238 721 157T604 32T420 -12Q313 -12 236 32ZM514 110T568 171T622 348Q622 463
568 524T420 586Q326 586 272 525T218 348Q218 233 272 172T420 110Q514 110 568 171ZM356 928H484L578 732H479L419 842L361 732H262L356 928Z" />
<glyph unicode="&#xd5;" glyph-name="Otilde" horiz-adv-x="840" d="M313 -12T236 32T119 157T79 348Q79 458 119 539T236 664T420 708Q527 708 604 664T721 539T761 348Q761 238 721 157T604 32T420 -12Q313 -12 236 32ZM514 110T568 171T622 348Q622 463 568
524T420 586Q326 586 272 525T218 348Q218 233 272 172T420 110Q514 110 568 171ZM470 773T454 779T415 798Q390 811 377 816T346 821Q299 821 255 773V867Q301 920 351 920Q370 920 386 914T425 895Q450 882 463 877T494 872Q541 872 585 909V815Q539 773 489
773Q470 773 454 779Z" />
<glyph unicode="&#xd6;" glyph-name="Odieresis" horiz-adv-x="840" d="M313 -12T236 32T119 157T79 348Q79 458 119 539T236 664T420 708Q527 708 604 664T721 539T761 348Q761 238 721 157T604 32T420 -12Q313 -12 236 32ZM514 110T568 171T622 348Q622 463
568 524T420 586Q326 586 272 525T218 348Q218 233 272 172T420 110Q514 110 568 171ZM291 770T270 791T248 844Q248 876 269 897T321 918Q351 918 372 897T394 844Q394 812 373 791T321 770Q291 770 270 791ZM489 770T468 791T446 844Q446 876 467 897T519 918Q549
918 570 897T592 844Q592 812 571 791T519 770Q489 770 468 791Z" />
<glyph unicode="&#xd7;" glyph-name="multiply" horiz-adv-x="594" d="M378 352L535 186L452 103L297 267L142 103L59 186L216 352L59 518L142 601L297 437L452 601L535 518L378 352Z" />
<glyph unicode="&#xd8;" glyph-name="Oslash" horiz-adv-x="840" d="M693 585Q761 491 761 348Q761 238 721 157T604 32T420 -12Q313 -12 236 32L210 0H56L147 111Q79 205 79 348Q79 458 119 539T236 664T420 708Q527 708 604 664L630 696H784L693 585ZM218 278T240
223L520 563Q477 586 420 586Q326 586 272 525T218 348Q218 278 240 223ZM622 418T600 473L320 133Q363 110 420 110Q514 110 568 171T622 348Q622 418 600 473Z" />
<glyph unicode="&#xd9;" glyph-name="Ugrave" horiz-adv-x="780" d="M251 -12T172 68T93 288V696H225V291Q225 195 268 150T390 104Q470 104 512 150T555 291V696H687V288Q687 148 608 68T390 -12Q251 -12 172 68ZM329 782L188 928H340L444 782H329Z" />
<glyph unicode="&#xda;" glyph-name="Uacute" horiz-adv-x="780" d="M251 -12T172 68T93 288V696H225V291Q225 195 268 150T390 104Q470 104 512 150T555 291V696H687V288Q687 148 608 68T390 -12Q251 -12 172 68ZM436 928H588L447 782H332L436 928Z" />
<glyph unicode="&#xdb;" glyph-name="Ucircumflex" horiz-adv-x="780" d="M251 -12T172 68T93 288V696H225V291Q225 195 268 150T390 104Q470 104 512 150T555 291V696H687V288Q687 148 608 68T390 -12Q251 -12 172 68ZM326 928H454L548 732H449L389 842L331 732H232L326
928Z" />
<glyph unicode="&#xdc;" glyph-name="Udieresis" horiz-adv-x="780" d="M251 -12T172 68T93 288V696H225V291Q225 195 268 150T390 104Q470 104 512 150T555 291V696H687V288Q687 148 608 68T390 -12Q251 -12 172 68ZM261 770T240 791T218 844Q218 876 239 897T291
918Q321 918 342 897T364 844Q364 812 343 791T291 770Q261 770 240 791ZM459 770T438 791T416 844Q416 876 437 897T489 918Q519 918 540 897T562 844Q562 812 541 791T489 770Q459 770 438 791Z" />
<glyph unicode="&#xdd;" glyph-name="Yacute" horiz-adv-x="660" d="M649 696L396 240V0H264V240L11 696H152L331 358L513 696H649ZM376 928H528L387 782H272L376 928Z" />
<glyph unicode="&#xde;" glyph-name="Thorn" horiz-adv-x="660" d="M235 696V579H359Q619 579 619 351Q619 236 555 176T366 115H235V0H103V696H235ZM415 230T447 257T480 347Q480 409 448 435T337 462H235V230H341Q415 230 447 257Z" />
<glyph unicode="&#xdf;" glyph-name="germandbls" horiz-adv-x="669" d="M392 433T402 446T434 482Q467 515 485 543T503 612Q503 655 479 690T406 747T289 768Q184 768 129 719T74 582V0H206V559Q206 603 228 630T298 657Q332 657 351 643T371 602Q371 581 360
566T325 530Q293 500 277 475T260 408Q260 353 292 320T388 255Q437 230 456 219T484 196T492 167Q492 131 469 115T408 99Q371 99 333 115T250 169V44Q292 14 332 1T415 -12Q468 -12 515 5T593 63T624 167Q624 211 608 240T561 291T470 346Q427 370 410 385T392
418Q392 433 402 446Z" />
<glyph unicode="&#xe0;" glyph-name="agrave" horiz-adv-x="580" d="M408 0L395 63Q324 -12 224 -12Q145 -12 96 29T46 137Q46 224 110 272T297 321Q341 321 385 317V336Q385 380 360 401T281 423Q228 423 183 406T84 349V467Q130 502 180 518T290 534Q401 534
459 487T518 348V116L540 0H408ZM178 89T244 89Q282 89 316 104T385 154V225H289Q231 225 205 208T178 147Q178 89 244 89ZM77 782H229L343 625H217L77 782Z" />
<glyph unicode="&#xe1;" glyph-name="aacute" horiz-adv-x="580" d="M408 0L395 63Q324 -12 224 -12Q145 -12 96 29T46 137Q46 224 110 272T297 321Q341 321 385 317V336Q385 380 360 401T281 423Q228 423 183 406T84 349V467Q130 502 180 518T290 534Q401 534
459 487T518 348V116L540 0H408ZM178 89T244 89Q282 89 316 104T385 154V225H289Q231 225 205 208T178 147Q178 89 244 89ZM351 782H495L355 586H237L351 782Z" />
<glyph unicode="&#xe2;" glyph-name="acircumflex" horiz-adv-x="580" d="M408 0L395 63Q324 -12 224 -12Q145 -12 96 29T46 137Q46 224 110 272T297 321Q341 321 385 317V336Q385 380 360 401T281 423Q228 423 183 406T84 349V467Q130 502 180 518T290 534Q401
534 459 487T518 348V116L540 0H408ZM178 89T244 89Q282 89 316 104T385 154V225H289Q231 225 205 208T178 147Q178 89 244 89ZM226 782H354L448 586H349L289 696L231 586H132L226 782Z" />
<glyph unicode="&#xe3;" glyph-name="atilde" horiz-adv-x="580" d="M408 0L395 63Q324 -12 224 -12Q145 -12 96 29T46 137Q46 224 110 272T297 321Q341 321 385 317V336Q385 380 360 401T281 423Q228 423 183 406T84 349V467Q130 502 180 518T290 534Q401 534
459 487T518 348V116L540 0H408ZM178 89T244 89Q282 89 316 104T385 154V225H289Q231 225 205 208T178 147Q178 89 244 89ZM340 606T324 612T285 631Q260 644 247 649T216 654Q169 654 125 606V708Q171 761 221 761Q240 761 256 755T295 736Q320 723 333 718T364
713Q411 713 455 750V648Q409 606 359 606Q340 606 324 612Z" />
<glyph unicode="&#xe4;" glyph-name="adieresis" horiz-adv-x="580" d="M408 0L395 63Q324 -12 224 -12Q145 -12 96 29T46 137Q46 224 110 272T297 321Q341 321 385 317V336Q385 380 360 401T281 423Q228 423 183 406T84 349V467Q130 502 180 518T290 534Q401
534 459 487T518 348V116L540 0H408ZM178 89T244 89Q282 89 316 104T385 154V225H289Q231 225 205 208T178 147Q178 89 244 89ZM161 610T140 631T118 684Q118 716 139 737T191 758Q221 758 242 737T264 684Q264 652 243 631T191 610Q161 610 140 631ZM359 610T338
631T316 684Q316 716 337 737T389 758Q419 758 440 737T462 684Q462 652 441 631T389 610Q359 610 338 631Z" />
<glyph unicode="&#xe5;" glyph-name="aring" horiz-adv-x="580" d="M408 0L395 63Q324 -12 224 -12Q145 -12 96 29T46 137Q46 224 110 272T297 321Q341 321 385 317V336Q385 380 360 401T281 423Q228 423 183 406T84 349V467Q130 502 180 518T290 534Q401 534
459 487T518 348V116L540 0H408ZM178 89T244 89Q282 89 316 104T385 154V225H289Q231 225 205 208T178 147Q178 89 244 89ZM180 730T212 762T290 794Q336 794 368 762T400 684Q400 638 368 606T290 574Q244 574 212 606T180 684Q180 730 212 762ZM247 666T259 653T290
640Q308 640 320 653T332 684Q332 703 320 715T290 727Q271 727 259 715T247 684Q247 666 259 653Z" />
<glyph unicode="&#xe6;" glyph-name="ae" horiz-adv-x="954" d="M613 -12T560 10T472 74Q380 -12 247 -12Q153 -12 100 31T46 150Q46 241 121 284T313 328Q354 328 398 322V336Q398 377 371 400T290 424Q240 424 189 404T90 349V467Q178 534 304 534Q365 534 407
518T479 463Q510 497 554 515T655 534Q733 534 789 499T874 401T904 261V209H533Q540 158 578 128T683 97Q733 97 780 115T878 170H882V49Q833 17 785 3T682 -12Q613 -12 560 10ZM602 428T571 395T534 310H769Q763 363 735 395T655 428Q602 428 571 395ZM337 95T412
156Q401 186 398 228H308Q254 228 220 211T185 155Q185 126 205 111T264 95Q337 95 412 156Z" />
<glyph unicode="&#xe7;" glyph-name="ccedilla" horiz-adv-x="540" d="M264 421T229 380T194 259Q194 101 331 101Q367 101 404 112T476 145H480V27Q437 1 383 -8Q428 -73 428 -131Q428 -186 389 -215T293 -244Q241 -244 190 -218V-133H194Q241 -158 281 -158Q305
-158 318 -147T331 -116Q331 -91 312 -63T258 -5Q164 15 111 84T57 259Q57 341 91 403T186 500T328 534Q418 534 480 497V381H476Q443 401 405 411T333 421Q264 421 229 380Z" />
<glyph unicode="&#xe8;" glyph-name="egrave" horiz-adv-x="600" d="M550 221H187Q195 161 231 129T329 97Q374 97 426 113T524 159H528V52Q488 21 437 5T328 -12Q246 -12 185 21T91 116T58 261Q58 342 89 404T178 500T310 534Q383 534 437 501T521 406T550 261V221ZM263
428T232 397T189 311H414Q406 368 380 398T310 428Q263 428 232 397ZM91 782H243L357 625H231L91 782Z" />
<glyph unicode="&#xe9;" glyph-name="eacute" horiz-adv-x="600" d="M550 221H187Q195 161 231 129T329 97Q374 97 426 113T524 159H528V52Q488 21 437 5T328 -12Q246 -12 185 21T91 116T58 261Q58 342 89 404T178 500T310 534Q383 534 437 501T521 406T550 261V221ZM263
428T232 397T189 311H414Q406 368 380 398T310 428Q263 428 232 397ZM365 782H509L369 586H251L365 782Z" />
<glyph unicode="&#xea;" glyph-name="ecircumflex" horiz-adv-x="600" d="M550 221H187Q195 161 231 129T329 97Q374 97 426 113T524 159H528V52Q488 21 437 5T328 -12Q246 -12 185 21T91 116T58 261Q58 342 89 404T178 500T310 534Q383 534 437 501T521 406T550
261V221ZM263 428T232 397T189 311H414Q406 368 380 398T310 428Q263 428 232 397ZM240 782H368L462 586H363L303 696L245 586H146L240 782Z" />
<glyph unicode="&#xeb;" glyph-name="edieresis" horiz-adv-x="600" d="M550 221H187Q195 161 231 129T329 97Q374 97 426 113T524 159H528V52Q488 21 437 5T328 -12Q246 -12 185 21T91 116T58 261Q58 342 89 404T178 500T310 534Q383 534 437 501T521 406T550
261V221ZM263 428T232 397T189 311H414Q406 368 380 398T310 428Q263 428 232 397ZM175 610T154 631T132 684Q132 716 153 737T205 758Q235 758 256 737T278 684Q278 652 257 631T205 610Q175 610 154 631ZM373 610T352 631T330 684Q330 716 351 737T403 758Q433
758 454 737T476 684Q476 652 455 631T403 610Q373 610 352 631Z" />
<glyph unicode="&#xec;" glyph-name="igrave" horiz-adv-x="280" d="M206 522V0H74V521L206 522ZM-73 782H79L193 625H67L-73 782Z" />
<glyph unicode="&#xed;" glyph-name="iacute" horiz-adv-x="280" d="M206 522V0H74V521L206 522ZM201 782H345L205 586H87L201 782Z" />
<glyph unicode="&#xee;" glyph-name="icircumflex" horiz-adv-x="280" d="M206 522V0H74V521L206 522ZM76 782H204L298 586H199L139 696L81 586H-18L76 782Z" />
<glyph unicode="&#xef;" glyph-name="idieresis" horiz-adv-x="280" d="M206 522V0H74V521L206 522ZM11 610T-10 631T-32 684Q-32 716 -11 737T41 758Q71 758 92 737T114 684Q114 652 93 631T41 610Q11 610 -10 631ZM209 610T188 631T166 684Q166 716 187 737T239
758Q269 758 290 737T312 684Q312 652 291 631T239 610Q209 610 188 631Z" />
<glyph unicode="&#xf0;" glyph-name="eth" horiz-adv-x="600" d="M575 601L510 590Q575 474 575 319Q575 162 504 75T301 -12Q182 -12 115 56T47 241Q47 362 119 428T315 495Q374 495 419 474Q403 529 378 569L223 544V642L306 655Q259 699 191 739V743L332 765Q398
728 445 678L575 699V601ZM436 102T436 326V350Q375 382 314 382Q252 382 219 346T185 240Q185 175 215 139T302 102Q436 102 436 326Z" />
<glyph unicode="&#xf1;" glyph-name="ntilde" horiz-adv-x="640" d="M454 534T502 488T551 365V0H419V290Q419 358 399 387T331 417Q279 417 221 359V0H89V406L67 522H188L207 455Q250 497 290 515T375 534Q454 534 502 488ZM370 606T354 612T315 631Q290 644
277 649T246 654Q199 654 155 606V708Q201 761 251 761Q270 761 286 755T325 736Q350 723 363 718T394 713Q441 713 485 750V648Q439 606 389 606Q370 606 354 612Z" />
<glyph unicode="&#xf2;" glyph-name="ograve" horiz-adv-x="640" d="M241 -12T181 21T89 117T56 261Q56 343 88 405T181 500T320 534Q399 534 459 501T551 405T584 261Q584 179 552 117T459 22T320 -12Q241 -12 181 21ZM379 97T412 139T445 261Q445 341 412 383T320
425Q261 425 228 383T195 261Q195 182 228 140T320 97Q379 97 412 139ZM107 782H259L373 625H247L107 782Z" />
<glyph unicode="&#xf3;" glyph-name="oacute" horiz-adv-x="640" d="M241 -12T181 21T89 117T56 261Q56 343 88 405T181 500T320 534Q399 534 459 501T551 405T584 261Q584 179 552 117T459 22T320 -12Q241 -12 181 21ZM379 97T412 139T445 261Q445 341 412 383T320
425Q261 425 228 383T195 261Q195 182 228 140T320 97Q379 97 412 139ZM381 782H525L385 586H267L381 782Z" />
<glyph unicode="&#xf4;" glyph-name="ocircumflex" horiz-adv-x="640" d="M241 -12T181 21T89 117T56 261Q56 343 88 405T181 500T320 534Q399 534 459 501T551 405T584 261Q584 179 552 117T459 22T320 -12Q241 -12 181 21ZM379 97T412 139T445 261Q445 341 412
383T320 425Q261 425 228 383T195 261Q195 182 228 140T320 97Q379 97 412 139ZM256 782H384L478 586H379L319 696L261 586H162L256 782Z" />
<glyph unicode="&#xf5;" glyph-name="otilde" horiz-adv-x="640" d="M241 -12T181 21T89 117T56 261Q56 343 88 405T181 500T320 534Q399 534 459 501T551 405T584 261Q584 179 552 117T459 22T320 -12Q241 -12 181 21ZM379 97T412 139T445 261Q445 341 412 383T320
425Q261 425 228 383T195 261Q195 182 228 140T320 97Q379 97 412 139ZM370 606T354 612T315 631Q290 644 277 649T246 654Q199 654 155 606V708Q201 761 251 761Q270 761 286 755T325 736Q350 723 363 718T394 713Q441 713 485 750V648Q439 606 389 606Q370 606
354 612Z" />
<glyph unicode="&#xf6;" glyph-name="odieresis" horiz-adv-x="640" d="M241 -12T181 21T89 117T56 261Q56 343 88 405T181 500T320 534Q399 534 459 501T551 405T584 261Q584 179 552 117T459 22T320 -12Q241 -12 181 21ZM379 97T412 139T445 261Q445 341 412
383T320 425Q261 425 228 383T195 261Q195 182 228 140T320 97Q379 97 412 139ZM191 610T170 631T148 684Q148 716 169 737T221 758Q251 758 272 737T294 684Q294 652 273 631T221 610Q191 610 170 631ZM389 610T368 631T346 684Q346 716 367 737T419 758Q449 758
470 737T492 684Q492 652 471 631T419 610Q389 610 368 631Z" />
<glyph unicode="&#xf7;" glyph-name="divide" horiz-adv-x="594" d="M259 459T233 484T207 550Q207 591 233 616T297 641Q335 641 361 616T387 550Q387 509 361 484T297 459Q259 459 233 484ZM528 399V293H66V399H528ZM259 51T233 76T207 142Q207 183 233 208T297
233Q335 233 361 208T387 142Q387 101 361 76T297 51Q259 51 233 76Z" />
<glyph unicode="&#xf8;" glyph-name="oslash" horiz-adv-x="640" d="M530 438Q584 369 584 261Q584 179 552 117T459 22T320 -12Q231 -12 163 32L134 0H9L99 99Q56 167 56 261Q56 343 88 405T181 500T320 534Q400 534 461 499L481 522H606L530 438ZM195 231T199
210L380 410Q354 425 320 425Q261 425 228 383T195 261Q195 231 199 210ZM445 303T436 334L245 122Q276 97 320 97Q379 97 412 139T445 261Q445 303 436 334Z" />
<glyph unicode="&#xf9;" glyph-name="ugrave" horiz-adv-x="640" d="M448 0L429 68Q378 23 340 6T252 -12Q205 -12 167 10T107 70T85 157V522H217V232Q217 169 237 137T295 105Q327 105 355 119T415 164V522H547V116L569 0H448ZM103 782H255L369 625H243L103 782Z" />
<glyph unicode="&#xfa;" glyph-name="uacute" horiz-adv-x="640" d="M448 0L429 68Q378 23 340 6T252 -12Q205 -12 167 10T107 70T85 157V522H217V232Q217 169 237 137T295 105Q327 105 355 119T415 164V522H547V116L569 0H448ZM377 782H521L381 586H263L377 782Z" />
<glyph unicode="&#xfb;" glyph-name="ucircumflex" horiz-adv-x="640" d="M448 0L429 68Q378 23 340 6T252 -12Q205 -12 167 10T107 70T85 157V522H217V232Q217 169 237 137T295 105Q327 105 355 119T415 164V522H547V116L569 0H448ZM252 782H380L474 586H375L315
696L257 586H158L252 782Z" />
<glyph unicode="&#xfc;" glyph-name="udieresis" horiz-adv-x="640" d="M448 0L429 68Q378 23 340 6T252 -12Q205 -12 167 10T107 70T85 157V522H217V232Q217 169 237 137T295 105Q327 105 355 119T415 164V522H547V116L569 0H448ZM187 610T166 631T144 684Q144
716 165 737T217 758Q247 758 268 737T290 684Q290 652 269 631T217 610Q187 610 166 631ZM385 610T364 631T342 684Q342 716 363 737T415 758Q445 758 466 737T488 684Q488 652 467 631T415 610Q385 610 364 631Z" />
<glyph unicode="&#xfd;" glyph-name="yacute" horiz-adv-x="560" d="M555 522L256 -232H131L216 -17L5 522H139L284 140L423 522H555ZM342 782H486L346 586H228L342 782Z" />
<glyph unicode="&#xfe;" glyph-name="thorn" horiz-adv-x="640" d="M79 754H211V480Q272 534 354 534Q422 534 474 500T555 404T584 259Q584 132 516 61T330 -11Q299 -11 272 -5T211 17V-232H79V754ZM385 100T415 137T445 261Q445 342 420 381T340 420Q275 420
211 365V110Q236 103 260 102T317 100Q385 100 415 137Z" />
<glyph unicode="&#xff;" glyph-name="ydieresis" horiz-adv-x="560" d="M555 522L256 -232H131L216 -17L5 522H139L284 140L423 522H555ZM152 610T131 631T109 684Q109 716 130 737T182 758Q212 758 233 737T255 684Q255 652 234 631T182 610Q152 610 131 631ZM350
610T329 631T307 684Q307 716 328 737T380 758Q410 758 431 737T453 684Q453 652 432 631T380 610Q350 610 329 631Z" />
<glyph unicode="&#x2013;" glyph-name="endash" horiz-adv-x="640" d="M570 323V217H70V323H570Z" />
<glyph unicode="&#x2014;" glyph-name="emdash" horiz-adv-x="1000" d="M930 323V217H70V323H930Z" />
<glyph unicode="&#x2018;" glyph-name="quoteleft" horiz-adv-x="220" d="M11 434Q11 492 29 554T93 696H213Q180 643 165 598T147 517T143 434H11Z" />
<glyph unicode="&#x2019;" glyph-name="quoteright" horiz-adv-x="220" d="M209 696Q209 638 191 576T127 434H7Q40 487 55 532T73 613T77 696H209Z" />
<glyph unicode="&#x201a;" glyph-name="quotesinglbase" horiz-adv-x="260" d="M202 150Q202 83 184 12T120 -150H-12Q21 -90 36 -38T54 55T58 150H202Z" />
<glyph unicode="&#x201c;" glyph-name="quotedblleft" horiz-adv-x="400" d="M11 434Q11 492 29 554T93 696H213Q180 643 165 598T147 517T143 434H11ZM191 434Q191 492 209 554T273 696H393Q360 643 345 598T327 517T323 434H191Z" />
<glyph unicode="&#x201d;" glyph-name="quotedblright" horiz-adv-x="400" d="M209 696Q209 638 191 576T127 434H7Q40 487 55 532T73 613T77 696H209ZM389 696Q389 638 371 576T307 434H187Q220 487 235 532T253 613T257 696H389Z" />
<glyph unicode="&#x201e;" glyph-name="quotedblbase" horiz-adv-x="460" d="M402 150Q402 83 384 12T320 -150H188Q221 -90 236 -38T254 55T258 150H402ZM202 150Q202 83 184 12T120 -150H-12Q21 -90 36 -38T54 55T58 150H202Z" />
<glyph unicode="&#x2022;" glyph-name="bullet" horiz-adv-x="352" d="M121 174T83 211T44 308Q44 367 82 404T176 442Q231 442 269 405T308 308Q308 249 270 212T176 174Q121 174 83 211Z" />
<glyph unicode="&#x2039;" glyph-name="guilsinglleft" horiz-adv-x="352" d="M330 58H177L0 263V267L187 464H330L149 267V263L330 58Z" />
<glyph unicode="&#x203a;" glyph-name="guilsinglright" horiz-adv-x="352" d="M22 464H175L352 259V255L165 58H22L203 255V259L22 464Z" />
</font>
</defs>
</svg>
