<?xml version="1.0" standalone="no"?>
<!DOCTYPE svg PUBLIC "-//W3C//DTD SVG 1.1//EN" "http://www.w3.org/Graphics/SVG/1.1/DTD/svg11.dtd">
<svg xmlns="http://www.w3.org/2000/svg">
<defs >
<font id="Dekko" horiz-adv-x="1223" ><font-face
    font-family="Dekko"
    units-per-em="2048"
    panose-1="0 0 5 0 0 0 0 0 0 0"
    ascent="2231"
    descent="-1112"
    alphabetic="0" />
<glyph unicode=" " glyph-name="space" horiz-adv-x="413" />
<glyph unicode="!" glyph-name="exclam" horiz-adv-x="471" d="M212 495T198 522T184 592L205 885Q213 992 213 1087L195 1335Q197 1396 219 1433T279 1471Q319 1471 336 1444T354 1357Q354 1305 333 1016L311 702Q306 626 291 561T243 495Q212 495 198 522ZM293
52T274 12T208 -29Q173 -29 157 -14T136 27T132 105Q132 169 159 206T228 243Q258 243 272 223T289 173T293 94Q293 52 274 12Z" />
<glyph unicode="&quot;" glyph-name="quotedbl" horiz-adv-x="933" d="M369 757T359 733T332 697T299 684Q262 684 241 706T209 783Q200 828 200 990Q200 1147 220 1278T314 1410Q345 1410 354 1384T363 1309Q362 1291 360 1263T355 1217Q343 1101 343 1031Q343
999 349 957T356 907Q369 829 369 790Q369 757 359 733ZM733 757T723 733T696 697T663 684Q626 684 605 706T573 783Q564 828 564 990Q564 1147 584 1278T678 1410Q709 1410 718 1384T727 1309Q726 1291 724 1263T719 1217Q707 1101 707 1031Q707 999 713 957T720
907Q733 829 733 790Q733 757 723 733Z" />
<glyph unicode="#" glyph-name="numbersign" horiz-adv-x="1248" d="M874 777V600Q904 602 944 602Q1008 602 1039 594T1082 566T1094 502Q1094 447 1072 419T1009 391Q985 391 955 398Q915 406 881 406Q883 396 883 370T884 301Q884 293 886 275Q889 256 889
238Q886 202 867 176T825 150Q780 150 765 194T750 315L751 406L532 382Q532 366 534 328Q537 288 537 247Q537 232 544 207Q555 165 555 139Q555 87 540 62T489 36Q446 36 427 68T404 143T400 266V349Q319 344 244 344Q199 344 169 363T139 441Q139 460 149 486T176
531T213 550Q251 550 268 540L397 547L398 647Q398 683 397 702H200Q187 702 160 711T109 742T85 800Q85 847 111 872T169 897H394Q394 900 393 916T392 1003Q392 1075 407 1118T471 1162Q508 1162 520 1113T532 978V913Q579 913 609 917T646 922Q689 930 726 932H740L736
1188Q736 1259 747 1293T796 1328Q835 1328 849 1286T863 1162L866 949Q901 952 956 965Q961 966 982 970T1021 975Q1052 975 1069 946T1087 871Q1087 826 1063 793T999 760Q993 762 969 769T920 777H874ZM734 757Q654 755 526 734L525 580V553L751 580Q751 605
749 669Q747 731 747 757H734Z" />
<glyph unicode="%" glyph-name="percent" horiz-adv-x="1525" d="M318 720T256 800T193 1021Q193 1081 223 1157T307 1287T429 1341Q478 1341 537 1324T645 1254T694 1102Q694 1017 662 928T571 779T439 720Q318 720 256 800ZM1225 1330T1236 1310T1248 1248Q1246
1223 1243 1203T1226 1168Q1061 962 923 762T672 380T416 -45Q414 -49 400 -77T365 -122T322 -139Q283 -139 269 -101T254 -20Q254 -27 292 35T383 188Q564 491 708 721T993 1141T1196 1330Q1225 1330 1236 1310ZM472 901T496 933T536 1011T552 1089Q552 1113 529
1132T475 1162T423 1173Q406 1173 386 1148T351 1087T337 1021Q337 963 367 932T450 901Q472 901 496 933ZM984 0T922 80T860 301Q860 361 889 437T971 567T1094 621Q1143 621 1203 604T1312 534T1361 382Q1361 297 1329 208T1239 60T1107 0Q984 0 922 80ZM1138
181T1161 213T1201 291T1217 368Q1217 392 1194 411T1141 440T1089 450Q1072 450 1052 426T1017 366T1003 301Q1003 243 1033 212T1117 181Q1138 181 1161 213Z" />
<glyph unicode="&amp;" glyph-name="ampersand" horiz-adv-x="958" d="M214 -5T179 61T144 237Q144 390 225 578Q231 590 243 610Q256 630 262 644T268 674Q268 688 265 704T261 725Q253 757 253 775Q253 826 269 875T318 956T392 988Q436 988 453 955T471 853Q471
826 464 799T440 726Q431 701 418 661Q423 623 450 550T510 406T563 305L661 411Q677 424 687 448T708 513Q723 565 736 590T777 616Q820 616 834 587T849 507Q849 457 828 410T778 325T704 237Q670 199 666 193Q670 187 675 181T684 169Q711 135 725 108T740 43Q740
8 719 -9T666 -26Q658 -26 643 -17T615 5L540 88Q538 87 501 64T408 18T315 -5Q214 -5 179 61ZM312 451Q294 386 286 345T277 263Q277 230 294 209T337 187Q347 187 389 200T458 225Q442 251 401 339Q349 449 322 489L312 451Z" />
<glyph unicode="&apos;" glyph-name="quotesingle" horiz-adv-x="569" d="M369 757T359 733T332 697T299 684Q262 684 241 706T209 783Q200 828 200 990Q200 1147 220 1278T314 1410Q345 1410 354 1384T363 1309Q362 1291 360 1263T355 1217Q343 1101 343 1031Q343
999 349 957T356 907Q369 829 369 790Q369 757 359 733Z" />
<glyph unicode="(" glyph-name="parenleft" horiz-adv-x="533" d="M297 1235T311 1249T343 1275T373 1288Q406 1288 427 1271T448 1216Q448 1173 428 1136T372 1053Q350 1025 346 1018Q309 961 280 861T235 656T218 486Q218 416 240 337T300 189T382 85Q413 61
428 27T443 -60Q443 -112 415 -135T346 -158Q327 -158 311 -138T277 -86L266 -66L240 -25Q169 86 113 221T57 473Q57 611 86 755T170 1024T293 1231Q297 1235 311 1249Z" />
<glyph unicode=")" glyph-name="parenright" horiz-adv-x="555" d="M274 -59L255 -82Q228 -115 212 -130T181 -146Q148 -146 121 -119T94 -53Q94 -15 114 18T167 84Q209 125 248 198T312 354T337 502Q337 573 325 673T289 868T228 1018Q180 1088 156 1127T132
1194Q132 1248 151 1268T208 1288Q219 1288 233 1280T259 1264T274 1252Q376 1126 424 932T473 521Q473 418 449 312T382 113T289 -39L274 -59Z" />
<glyph unicode="*" glyph-name="asterisk" horiz-adv-x="1117" d="M864 1128T920 1128Q931 1128 947 1119T977 1087T990 1028Q990 957 913 928L760 859Q771 853 798 844T836 834Q841 834 856 837T879 841Q908 841 923 802T938 722Q938 676 919 639T866 602Q854
602 833 612T773 643Q672 699 612 716Q609 716 605 718T596 720Q567 582 527 449T458 315Q419 315 391 346T363 433Q363 454 395 542T450 686L258 574Q245 565 229 565Q206 565 185 581T152 623T139 671Q139 712 154 733T195 765Q258 789 289 801T334 818Q353 824
381 836L200 920Q178 927 169 950T159 1005Q159 1061 185 1086T243 1111Q270 1111 297 1095T371 1042Q416 1006 450 985T523 955Q536 1005 544 1032Q585 1195 623 1301T702 1408Q715 1408 732 1399T761 1372T773 1330Q773 1308 757 1258T708 1116Q672 1016 661
977Q864 1128 920 1128Z" />
<glyph unicode="+" glyph-name="plus" horiz-adv-x="977" d="M411 251T419 325Q427 397 427 436H195Q170 436 156 461T142 523Q142 591 174 618T254 645L431 631Q431 661 430 677L429 732Q429 827 448 882T528 938Q552 938 562 928T575 901T578 849Q577 832 574
785T567 689L571 643Q637 643 669 644T719 652Q754 676 773 676Q808 676 822 645T836 570V553Q836 487 806 465T726 443L697 445Q647 450 626 450Q565 450 563 427L570 247Q570 188 560 161T532 126T486 119Q449 119 430 139T411 218Q411 251 419 325Z" />
<glyph unicode="," glyph-name="comma" horiz-adv-x="413" d="M60 85T68 108T79 141Q94 188 107 218T142 270T198 292Q225 292 249 276T288 235T303 181Q303 135 289 104T244 30L222 -2Q197 -40 154 -120Q103 -211 75 -255T29 -299Q-8 -299 -26 -262T-45 -181Q-49
-123 53 71Q60 85 68 108Z" />
<glyph unicode="-" glyph-name="hyphen" horiz-adv-x="745" d="M601 694T620 666T639 590Q639 557 622 537T584 508T547 499Q509 499 451 508Q443 509 410 513T346 517Q316 517 270 510Q214 502 179 502Q144 502 122 523T99 605Q99 646 118 670T169 694Q175 694
189 690T215 686Q274 686 390 690Q510 694 570 694Q601 694 620 666Z" />
<glyph unicode="." glyph-name="period" horiz-adv-x="363" d="M199 253T220 232T254 178T268 116Q268 83 254 52T217 2T173 -18Q123 -18 102 14T81 116Q81 176 105 214T177 253Q199 253 220 232Z" />
<glyph unicode="/" glyph-name="slash" horiz-adv-x="621" d="M440 1377T463 1413T507 1449Q537 1449 554 1424T571 1350Q571 1335 563 1315Q490 1112 414 830T187 -71Q187 -97 178 -123T156 -166T129 -183Q109 -183 87 -173T48 -140T31 -81Q131 313 237 699T429
1343Q440 1377 463 1413Z" />
<glyph unicode="0" glyph-name="zero" horiz-adv-x="1318" d="M503 -11T388 73T206 301T140 617Q140 855 212 1012T404 1244T672 1318Q833 1318 942 1239T1107 1011T1163 650Q1163 454 1095 304T909 72T645 -11Q503 -11 388 73ZM1028 793T985 892T866 1044T692
1097Q581 1097 487 1048T337 898T280 653Q280 540 330 435T462 264T638 199Q747 199 835 251T976 406T1028 658Q1028 793 985 892Z" />
<glyph unicode="1" glyph-name="one" horiz-adv-x="529" d="M85 1210T123 1255T208 1336T274 1373Q288 1373 312 1360T355 1320T374 1253Q371 1129 356 898Q344 688 338 542T332 250Q343 176 343 99Q343 56 323 26T274 -5Q215 -5 195 54T175 228Q175 306 180 407T197
685Q217 984 220 1121Q216 1131 202 1134T162 1139Q124 1142 105 1150T85 1183Q85 1210 123 1255Z" />
<glyph unicode="2" glyph-name="two" horiz-adv-x="1058" d="M891 66T864 41T810 9T771 2Q759 2 749 3T730 5Q696 9 680 9Q618 9 488 -1Q358 -11 296 -11Q281 -11 265 0T237 32T226 75Q226 133 243 170T297 256Q334 303 348 335Q359 358 414 476Q510 676 566 813T622
1027Q622 1088 576 1118T464 1148Q410 1148 375 1131T321 1091T282 1032Q263 999 250 985T215 971Q193 971 180 995T160 1048T154 1094Q157 1191 210 1252T336 1341T475 1368Q547 1368 616 1331T729 1225T773 1067Q773 962 736 842T649 613T520 351Q472 260 447
208Q459 202 489 202Q542 202 631 217T775 247Q781 247 791 250T807 258Q825 256 844 230T877 171T891 115Q891 66 864 41Z" />
<glyph unicode="3" glyph-name="three" horiz-adv-x="1075" d="M746 210T746 443Q746 478 718 511T645 564T552 585Q532 585 516 580T472 564Q450 554 433 549T396 543Q353 543 331 568T308 642Q308 715 373 761T529 839Q618 904 688 988T762 1150L714 1151L661
1153Q602 1153 527 1127T405 1067Q398 1064 388 1058T369 1051Q354 1051 336 1062T305 1092T292 1133Q292 1212 365 1264T535 1342T696 1368Q810 1368 866 1312T923 1135Q923 1101 888 1057T777 937Q688 846 660 814Q747 793 801 737T877 612T900 479Q900 264 817
160T585 25T172 -6Q104 -6 104 95Q104 121 111 156T131 218T162 244Q190 244 204 241T235 230Q254 220 278 215T358 210Q746 210 746 443Z" />
<glyph unicode="4" glyph-name="four" horiz-adv-x="1004" d="M124 1120T143 1149T199 1178Q234 1178 250 1130T267 1006L258 822Q258 740 294 700T394 647T568 635H653Q667 870 667 1246Q668 1305 690 1336T749 1368Q768 1368 784 1348T811 1300T821 1248Q821
1247 819 1205T807 592Q826 558 826 515Q826 492 800 453Q794 414 794 355Q794 306 798 228Q802 154 802 110Q802 45 771 4T692 -37Q678 -37 665 -23T642 15T633 65V423L386 430Q252 438 181 536T109 800V816L121 1076Q124 1120 143 1149Z" />
<glyph unicode="5" glyph-name="five" horiz-adv-x="1120" d="M383 818T401 825T446 845Q475 859 493 866T529 873Q730 873 816 749T902 419Q902 270 844 170T683 20T448 -29Q333 -29 235 9T136 149Q136 177 148 204T180 249T220 267Q236 267 249 261T281 241Q311
220 339 209T414 197Q574 197 664 242T755 405Q755 435 729 489T651 585T524 628Q489 628 457 618T405 598T339 561Q285 561 251 579T217 651Q217 669 220 680Q230 743 234 910Q238 1042 244 1123T267 1270T316 1352Q385 1359 523 1359Q601 1359 718 1368Q846 1376
909 1376Q954 1376 974 1336T995 1238Q995 1188 973 1157T917 1126Q893 1126 859 1142Q847 1147 835 1151T813 1156Q770 1162 673 1165T486 1169L428 1168Q418 1167 403 1167L368 818Q383 818 401 825Z" />
<glyph unicode="6" glyph-name="six" horiz-adv-x="1185" d="M508 1370T524 1339T540 1255Q540 1192 508 1115T412 920Q346 795 313 715T279 565Q279 419 326 330T498 222Q492 244 492 298Q495 418 537 522T657 691T844 755Q917 755 968 724T1044 639T1070 520Q1070
377 1000 257T817 66T581 -5Q419 -5 322 49T178 227T132 563Q132 664 196 860T342 1213T468 1370Q508 1370 524 1339ZM923 515T898 529T841 543Q768 543 714 492T632 368T603 233Q693 233 766 269T881 364T923 490Q923 515 898 529Z" />
<glyph unicode="7" glyph-name="seven" horiz-adv-x="927" d="M263 1148Q197 1148 145 1173T93 1275Q93 1312 112 1342T167 1373Q201 1373 223 1372Q317 1370 538 1370H738Q768 1381 775 1381Q807 1381 823 1345T839 1259Q839 1143 565 481Q533 417 497 318T453
149Q446 98 436 65T403 11T341 -11Q303 -11 290 21T276 109Q276 127 281 162Q284 192 438 602T656 1160L263 1148Z" />
<glyph unicode="8" glyph-name="eight" horiz-adv-x="971" d="M147 320T167 418T229 607T330 749Q288 803 258 887T228 1046Q228 1238 367 1309T683 1381Q739 1381 783 1337T852 1227T876 1094Q876 977 789 937Q781 928 738 867Q685 792 650 747T583 679Q639 576
681 473T723 300Q723 204 686 129T580 13T425 -29Q343 -29 283 -9T185 70T147 237Q147 320 167 418ZM521 827T555 870T644 1001Q679 1056 700 1086T740 1135Q728 1160 647 1160Q600 1160 539 1143T434 1091T388 1008Q388 998 410 953T457 867T491 827Q521 827 555
870ZM469 203T516 228T564 315Q564 384 535 457T466 581T404 631Q375 631 352 566T314 419T300 300Q300 243 324 223T409 203Q469 203 516 228Z" />
<glyph unicode="9" glyph-name="nine" horiz-adv-x="1109" d="M617 615T554 615Q447 615 344 657T173 792T104 1027Q104 1130 178 1209T354 1331T526 1374Q615 1374 687 1331T802 1204T844 1006Q844 1000 848 995T861 981Q884 961 898 934T913 852Q913 765 904
661Q902 633 895 468Q889 302 882 196T856 13T805 -63Q793 -63 767 -45T721 4T701 73Q702 133 708 190T726 327Q741 433 748 506T755 667Q617 615 554 615ZM615 830T677 843T740 887V895Q740 966 716 1028T643 1128T526 1167Q473 1167 412 1148T307 1089T263 995Q263
947 312 910T432 851T558 830Q615 830 677 843Z" />
<glyph unicode=":" glyph-name="colon" horiz-adv-x="363" d="M141 619T115 651T88 769Q88 802 109 832T160 882T215 901Q223 901 237 882T263 831T274 757Q274 690 253 655T198 619Q141 619 115 651ZM199 253T220 232T254 178T268 116Q268 83 254 52T217 2T173
-18Q123 -18 102 14T81 116Q81 176 105 214T177 253Q199 253 220 232Z" />
<glyph unicode=";" glyph-name="semicolon" horiz-adv-x="346" d="M141 619T115 651T88 769Q88 802 109 832T160 882T215 901Q223 901 237 882T263 831T274 757Q274 690 253 655T198 619Q141 619 115 651ZM60 85T68 108T79 141Q94 188 107 218T142 270T198 292Q225
292 249 276T288 235T303 181Q303 135 289 104T244 30L222 -2Q197 -40 154 -120Q103 -211 75 -255T29 -299Q-8 -299 -26 -262T-45 -181Q-49 -123 53 71Q60 85 68 108Z" />
<glyph unicode="&lt;" glyph-name="less" horiz-adv-x="850" d="M382 444T440 413T572 338Q660 288 706 263Q719 251 727 212T736 155Q736 121 715 100T661 79Q651 79 642 83T631 89Q595 122 512 170T333 260T167 322Q134 335 117 358T99 431Q99 466 117 498T163
555Q181 569 243 618T388 728T533 829Q573 850 592 866T630 901Q632 903 635 907T641 912T647 914Q690 914 709 886T729 802Q730 757 711 728T645 666T479 564Q402 519 322 471Q382 444 440 413Z" />
<glyph unicode="=" glyph-name="equal" horiz-adv-x="820" d="M641 897T660 869T679 793Q679 760 662 740T624 711T587 702Q549 702 491 711Q483 712 450 716T386 720Q356 720 310 713Q254 705 219 705Q184 705 162 726T139 808Q139 849 158 873T209 897Q215 897
229 893T255 889Q314 889 430 893Q550 897 610 897Q641 897 660 869ZM641 476T660 448T679 372Q679 339 662 319T624 290T587 281Q549 281 491 290Q483 291 450 295T386 299Q356 299 310 292Q254 284 219 284Q184 284 162 305T139 387Q139 428 158 452T209 476Q215
476 229 472T255 468Q314 468 430 472Q550 476 610 476Q641 476 660 448Z" />
<glyph unicode="&gt;" glyph-name="greater" horiz-adv-x="850" d="M454 549T396 580T264 655Q176 705 130 730Q117 742 109 781T100 838Q100 872 121 893T175 914Q185 914 194 910T205 904Q241 871 324 823T503 733T669 671Q702 658 719 635T737 562Q737 527
719 495T673 438Q655 424 593 375T448 265T303 164Q263 143 244 127T206 92Q204 90 201 86T195 81T189 79Q146 79 127 107T107 191Q106 236 125 265T191 327T357 429Q434 474 514 522Q454 549 396 580Z" />
<glyph unicode="@" glyph-name="at" horiz-adv-x="1744" d="M1396 -198T1414 -203T1448 -225T1464 -273Q1464 -323 1370 -360T1150 -417T938 -437Q729 -437 564 -385T287 -170T175 299Q175 561 288 775T587 1111T983 1233Q1145 1233 1278 1155T1490 919T1569 537Q1569
394 1542 270T1449 66T1278 -14Q1216 -14 1152 20T1028 132Q995 82 958 48T887 -2T833 -18Q719 -18 660 68T600 297Q600 408 643 527T760 725T916 804Q1002 804 1063 736T1154 556T1184 317L1162 149Q1176 136 1197 133T1254 129H1310Q1375 129 1408 188T1451 335T1461
537Q1461 687 1398 803T1222 983T968 1047Q788 1047 629 954T374 688T277 292Q277 78 351 -48T574 -229T963 -284Q1042 -284 1111 -269T1264 -227Q1311 -212 1338 -205T1386 -198Q1396 -198 1414 -203ZM923 173T975 235T1051 376T1074 502Q1074 536 1051 563T992
604T924 619Q860 619 816 566T750 435T726 282Q726 238 751 206T841 173Q923 173 975 235Z" />
<glyph unicode="A" glyph-name="A" horiz-adv-x="1188" d="M363 406T353 400T335 377T311 315L244 122Q241 71 225 41T189 0T159 -12Q123 -12 106 5T88 67Q88 140 122 200L145 267Q182 378 208 448Q205 458 205 476Q205 523 216 551T260 600L450 1047Q452 1051
454 1056T460 1069Q497 1144 527 1187T590 1231Q664 1231 726 1126T833 880T934 523Q973 371 995 298T1038 200Q1042 195 1046 190T1056 179Q1073 159 1080 148T1090 121T1094 74Q1094 -23 1002 -23Q962 -23 929 50T877 205L869 233Q846 315 834 346T804 392T751
406H384Q363 406 353 400ZM492 605Q565 602 635 602Q709 602 751 605Q721 694 661 822L582 994Q563 983 508 849T416 607L492 605Z" />
<glyph unicode="B" glyph-name="B" horiz-adv-x="1031" d="M312 0T294 -9Q286 -13 277 -16T258 -20Q237 -20 210 -8T164 28T144 85Q144 93 147 178T157 802Q157 935 176 1046T244 1174Q316 1197 398 1209T550 1221Q593 1221 641 1198T722 1131T755 1030Q755 922
691 829Q805 785 870 697T936 476Q936 316 857 208T647 48T359 -5Q354 -5 343 -3T322 0Q312 0 294 -9ZM641 1015T598 1024T492 1033Q462 1033 413 1028T324 1009T283 975L277 818Q300 818 341 828T518 881Q641 957 641 999Q641 1015 598 1024ZM275 554L273 505V459Q273
293 283 195L348 200Q489 210 585 230T752 311T824 491Q824 548 778 590T662 655T525 678Q505 678 484 671T426 648Q384 630 350 619T277 602L275 554Z" />
<glyph unicode="C" glyph-name="C" horiz-adv-x="1076" d="M218 937T280 1023T425 1167T595 1226Q680 1226 757 1187T882 1070T930 885Q930 857 921 823T891 765T843 740Q820 740 809 753T795 786T788 842Q784 902 773 941T720 1009T596 1038Q483 1038 403 933T281
690T240 461Q240 373 287 308T408 209T563 175Q635 175 722 186T863 222Q899 256 916 269T942 283Q974 283 993 255T1013 183Q1013 113 944 69T775 5T580 -14Q376 -14 241 90T105 458Q105 552 127 646T189 856Q218 937 280 1023Z" />
<glyph unicode="D" glyph-name="D" horiz-adv-x="1123" d="M158 1147T200 1183T303 1219H448Q577 1219 722 1136T965 904T1064 567Q1064 383 965 254T722 60T448 -5Q332 -5 284 4Q273 0 252 -9Q232 -18 228 -18Q195 -18 175 21T148 117T142 225L157 1050Q158 1147
200 1183ZM581 189T685 226T862 343T934 540Q934 672 864 787T684 970T468 1038Q432 1038 377 1036T293 1030Q277 940 277 833V661Q277 325 299 195Q302 193 319 191T357 189H483Q581 189 685 226Z" />
<glyph unicode="E" glyph-name="E" horiz-adv-x="988" d="M897 1176T919 1172T952 1148T963 1087Q963 1050 943 1014T895 978Q440 980 293 985Q293 953 291 863Q289 769 289 732L664 736Q698 736 718 712T739 635Q739 621 732 597T710 555T674 537Q486 537 378
539Q355 540 326 540Q299 540 292 537L299 215Q365 215 447 212T557 208Q741 200 843 200Q909 200 909 84Q909 27 880 2T804 -23Q762 -23 682 -15Q625 -9 573 -6T437 -2Q399 -2 347 -7Q265 -12 243 -12Q204 -12 180 23T157 116L163 560Q163 574 158 592Q157 596
155 608T153 633Q153 658 165 689Q160 842 160 1012Q160 1064 164 1099T185 1161T240 1188Q257 1188 275 1185T300 1181Q342 1173 367 1173L606 1174Q782 1176 846 1176Q897 1176 919 1172Z" />
<glyph unicode="F" glyph-name="F" horiz-adv-x="970" d="M765 1191Q820 1202 850 1202Q872 1202 896 1182T936 1132T952 1074Q952 1023 935 997T879 970Q864 970 753 999Q746 999 682 993T371 987Q313 987 303 993Q293 898 292 710Q293 705 337 705Q371 705 416
708T476 715L664 743Q693 753 724 753Q783 753 783 655Q783 608 771 586T736 556T665 543L641 540L434 515Q416 513 368 508T293 502L297 132Q297 -8 228 -8Q179 -8 159 29T139 134Q139 167 146 218Q150 250 150 263L160 970Q160 1056 177 1133T244 1211Q268 1211
320 1201Q372 1191 397 1191H765Z" />
<glyph unicode="G" glyph-name="G" horiz-adv-x="1099" d="M960 664T982 632T1005 565Q1005 492 968 471Q968 435 966 369Q963 318 963 266Q963 199 968 119Q968 64 961 36T943 -1T913 -10Q893 -10 880 3T856 33T839 57Q790 33 723 11T592 -12Q363 -12 248 138T132
570Q132 684 195 842T370 1115T626 1231Q713 1231 787 1199T907 1107T952 967Q952 906 940 876T904 846Q898 846 888 860T868 890Q848 924 839 932Q736 1040 616 1040Q535 1040 453 961T317 765T263 544Q263 420 308 338T432 215T615 175Q705 175 752 191T816 239T833
329V450Q779 443 689 443Q666 443 643 456T604 495T588 553Q588 609 614 630T684 652Q715 652 775 647Q802 647 852 655Q901 664 934 664Q960 664 982 632Z" />
<glyph unicode="H" glyph-name="H" horiz-adv-x="1114" d="M310 49T296 31T262 1T228 -10Q187 -10 174 30T160 146Q160 170 163 350Q165 448 165 483Q165 565 163 703L162 871Q162 1048 177 1132T238 1216Q253 1216 269 1197T296 1148T307 1092L306 893Q305 826
305 696H814Q810 999 810 1074Q812 1146 824 1183T875 1221Q920 1221 936 1174T952 1025Q952 1007 951 993Q951 970 950 893T949 688Q956 674 961 653T968 610L955 544Q963 305 963 94Q963 49 943 19T889 -12Q847 -12 829 20T812 136L818 501H615Q482 501 419 499T305
492Q310 104 310 108L311 69Q310 49 296 31Z" />
<glyph unicode="I" glyph-name="I" horiz-adv-x="676" d="M421 1003Q400 785 400 450Q400 307 411 198L485 199Q499 200 526 200Q547 184 558 156T570 91Q570 65 558 44T526 12T489 0H238Q215 0 184 9T129 40T105 98Q105 141 126 175T177 210L260 203V248Q260
391 268 620T287 987H232Q203 987 184 991T150 1015T136 1076V1080Q136 1140 162 1165T254 1191L478 1192Q491 1192 529 1200Q563 1206 570 1206Q585 1206 602 1188T632 1147T645 1107Q645 1068 627 1041T584 999T537 985Q530 985 518 994T492 1003H421Z" />
<glyph unicode="J" glyph-name="J" horiz-adv-x="792" d="M342 181T400 210T497 287T535 391Q535 465 536 562T538 714Q542 940 542 1074Q542 1133 562 1176T626 1219Q664 1219 678 1155T692 970Q692 930 690 838Q688 744 688 696Q688 591 674 435T645 248Q508
-18 258 -18Q220 -18 176 -5T99 45T66 142Q66 167 75 194T103 239T146 258Q160 258 172 250T200 225Q221 204 239 193T284 181Q342 181 400 210Z" />
<glyph unicode="K" glyph-name="K" horiz-adv-x="1005" d="M838 303Q886 201 914 131T942 18Q942 -104 860 -104Q834 -104 809 -49T750 105Q732 157 680 280T575 516T495 669Q454 628 399 558T309 436V399Q309 352 314 249L317 193L322 66Q323 39 312 18T282 -14T248
-25Q192 -25 175 30T157 192L165 518Q173 906 181 1112Q183 1154 200 1187T253 1221Q277 1221 296 1197T315 1126L303 792V729Q303 681 305 676Q326 710 364 755Q410 811 427 839Q450 886 467 906T515 930L568 1004Q604 1056 626 1083Q638 1097 663 1134Q691 1176
713 1195T775 1216Q785 1216 797 1207T819 1177T829 1126Q829 1081 816 1048T783 991T723 929Q717 923 692 898T644 847T602 792Q643 722 696 608L705 590L812 359L838 303Z" />
<glyph unicode="L" glyph-name="L" horiz-adv-x="891" d="M438 0T400 -5Q391 -6 366 -8T317 -10Q287 -10 181 0Q169 0 162 4T150 22T146 66Q146 109 149 158T159 266L165 329Q165 410 162 508T158 637Q150 841 150 944Q150 1054 154 1109T173 1191T218 1217Q236
1217 254 1201T285 1158T297 1102Q297 1056 291 999L287 952Q287 760 289 664L301 213Q338 212 408 208Q578 200 671 200Q678 200 709 204Q720 206 788 215Q816 214 836 180T856 101Q856 78 843 52T811 8T775 -10Q717 -10 637 -5Q619 -4 566 -2T466 0Q438 0 400
-5Z" />
<glyph unicode="M" glyph-name="M" horiz-adv-x="1276" d="M998 836Q984 818 965 760Q962 753 952 725T930 679L894 612L839 511Q780 401 742 338T664 232T586 189Q552 189 497 290T382 523L263 781Q261 758 261 699Q261 637 267 475Q273 301 273 222Q281 171
284 159T287 146Q287 -5 222 -5Q187 -5 170 11T147 53T142 119Q142 142 146 186Q147 197 148 211T149 243Q152 387 152 507Q156 805 162 940T191 1146T263 1217Q291 1217 310 1184T329 1112V1102Q341 1009 439 781Q474 701 537 571T620 417Q635 417 652 435T700
503Q726 547 878 873Q970 1071 990 1112Q997 1148 1020 1178T1064 1209Q1103 1209 1124 1178T1146 1094Q1146 1002 1137 863Q1131 757 1129 696L1112 60Q1112 34 1101 16T1076 -11T1054 -20Q1046 -20 1022 -10T977 26T955 94Q955 117 959 139T973 191Q974 197 981
221T988 266L998 836Z" />
<glyph unicode="N" glyph-name="N" horiz-adv-x="1076" d="M293 664T293 456Q293 372 293 326T292 254Q291 228 291 181Q291 86 275 41T220 -5Q179 -5 165 18T151 89Q151 107 153 153L157 491Q164 635 165 709T167 868Q167 893 166 910Q163 1009 163 1089Q163
1111 170 1141T192 1194T225 1216Q278 1216 306 1165T352 1021Q381 879 471 701T656 383T767 243Q772 243 776 279T786 484T804 1028Q806 1113 812 1156T834 1220T881 1241Q910 1241 925 1234T947 1203T955 1126Q955 923 942 733T900 245L897 213V187Q895 122 887
77T854 2T781 -29Q763 -29 743 -11T716 23Q599 169 487 360T297 734Q293 664 293 456Z" />
<glyph unicode="O" glyph-name="O" horiz-adv-x="1248" d="M803 1221T909 1147T1069 933T1123 598Q1123 419 1054 277T868 56T619 -23Q486 -23 370 69T184 305T115 590Q118 808 193 949T388 1156T651 1221Q803 1221 909 1147ZM714 169T803 218T947 363T1002 592Q1002
725 959 825T840 979T666 1033Q556 1033 459 987T303 847T243 619Q243 512 295 407T432 236T610 169Q714 169 803 218Z" />
<glyph unicode="P" glyph-name="P" horiz-adv-x="988" d="M167 752Q167 871 173 950T200 1081T262 1134Q273 1134 290 1111Q293 1108 301 1099T317 1090Q343 1116 387 1142T482 1184T581 1198Q764 1198 839 1117T914 875Q914 708 842 597T640 432T332 378Q317
378 297 384Q298 374 296 347Q293 301 293 243T302 63Q302 19 281 5T236 -10Q200 -10 181 -2T149 52T147 203L167 413Q161 424 156 445T150 478Q150 506 158 554Q167 601 167 639V752ZM498 582T589 610T735 692T791 822Q791 910 729 962T542 1015Q487 1015 409
995T312 952Q312 949 308 901T295 600Q325 591 346 587T396 582Q498 582 589 610Z" />
<glyph unicode="Q" glyph-name="Q" horiz-adv-x="1270" d="M1098 105T1146 18T1194 -105Q1194 -146 1179 -169T1132 -192Q1107 -192 1080 -182T1038 -144Q1026 -122 988 -60T903 73Q834 25 754 1T590 -23Q440 -23 331 53T163 272T105 610Q105 786 177 925T370
1143T625 1221Q759 1221 878 1129T1068 895T1139 610Q1139 363 1031 203Q1098 105 1146 18ZM701 169T798 222Q723 319 660 377V426Q660 471 674 498T712 526Q760 526 801 488T890 386Q907 363 916 352L930 337Q999 435 999 574Q999 686 948 794T811 970T633 1038Q528
1038 439 986T297 833T244 595Q244 464 286 368T404 221T578 169Q701 169 798 222Z" />
<glyph unicode="R" glyph-name="R" horiz-adv-x="1060" d="M334 41T311 14T248 -14Q219 -14 197 22T175 101Q175 115 179 149Q183 181 183 195Q183 220 175 289Q164 391 157 495T150 730Q150 827 161 906T208 1023Q382 1194 570 1194Q641 1194 703 1164T805 1070T844
914Q844 830 808 772T715 678Q818 643 871 574T942 409T960 173Q960 96 956 50T937 -28T887 -60Q849 -60 836 -29T822 60V85Q822 133 823 158L824 237Q824 281 822 313T812 387Q788 438 733 470T612 518T483 533Q455 533 393 517T293 481Q295 391 306 274T334 88Q334
41 311 14ZM274 742T282 694Q364 710 467 742T645 815T719 891Q719 957 676 985T572 1013Q518 1013 449 992T329 935T277 856L276 825Q274 805 274 794Q274 742 282 694Z" />
<glyph unicode="S" glyph-name="S" horiz-adv-x="960" d="M321 -12T239 31T157 203Q157 223 166 255T191 312T223 337Q225 337 233 327T248 303Q278 244 302 219T355 187T441 181Q500 181 567 205T679 266T725 334Q725 365 696 388T622 427T499 465Q379 499 302
530T170 619T114 767Q114 903 178 1005T344 1162T550 1217Q616 1217 668 1186T748 1102T777 990Q777 914 764 863T709 812Q681 812 674 835T666 905Q666 971 630 998T523 1025Q473 1025 405 990T287 900T238 786Q238 748 268 723T345 682T474 645Q593 615 667 587T796
499T850 344Q850 225 773 145T594 27T421 -12Q321 -12 239 31Z" />
<glyph unicode="T" glyph-name="T" horiz-adv-x="871" d="M554 42T549 24T530 -3T483 -12Q444 -12 425 5T399 52T392 134L393 164Q394 174 394 193L367 998Q344 996 308 990Q201 975 150 975Q103 975 80 994T57 1054Q57 1131 91 1161T177 1192L598 1196L757 1206Q794
1206 816 1176T839 1102Q839 1081 827 1051T795 999T755 977Q740 977 709 998Q694 1009 683 1014T660 1020Q557 1020 508 1013L537 198Q551 116 555 81Q554 42 549 24Z" />
<glyph unicode="U" glyph-name="U" horiz-adv-x="1050" d="M904 31T881 10T818 -12Q783 -12 766 21T747 132Q711 81 660 46T555 -8T458 -26Q283 -26 214 156T144 598V629Q144 846 168 1031T268 1216Q322 1216 322 1128Q322 1070 313 982T303 878Q284 705 284 635Q284
432 323 298T481 163Q593 163 663 223T740 391L771 894Q776 1019 789 1092T826 1198T884 1231Q907 1231 922 1197T938 1111Q938 1105 937 1101T936 1094L932 1052Q912 959 898 776T884 413Q884 352 889 288T895 213Q904 116 904 67Q904 31 881 10Z" />
<glyph unicode="V" glyph-name="V" horiz-adv-x="1048" d="M150 1216T172 1194T203 1139Q245 891 433 244Q442 265 527 439L697 790Q714 822 761 919Q836 1073 886 1158T977 1243Q986 1243 997 1232T1017 1199T1025 1146Q1025 1113 1003 1062Q910 899 726 539T497
71Q481 39 471 26T440 4T378 -5Q364 -5 288 246T143 767T74 1109Q74 1153 84 1184T129 1216Q150 1216 172 1194Z" />
<glyph unicode="W" glyph-name="W" horiz-adv-x="1248" d="M265 801T296 696Q322 611 334 553T346 423Q346 372 364 324L406 450L439 554Q520 809 573 948T661 1087Q686 1087 705 1031T738 895T771 676Q782 590 807 474Q828 363 834 322L894 537Q949 754 1062
1062L1076 1100Q1102 1169 1124 1208T1174 1247Q1195 1247 1213 1230T1241 1185T1252 1133Q1252 1109 1245 1093T1226 1062T1209 1038Q1150 941 1098 789T977 334Q948 199 909 97T814 -5Q787 -5 770 18T744 78T724 178L719 205Q691 351 679 432T655 596Q642 690
629 764Q608 705 578 594T540 458Q533 433 508 339T462 181Q444 130 407 54T347 -23Q276 -23 258 81Q236 238 205 398T124 800Q113 850 105 892T89 968Q81 1005 75 1042T69 1102Q69 1122 78 1150T103 1198T139 1219Q165 1219 182 1186T209 1107T230 985Q244 900
247 885Q265 801 296 696Z" />
<glyph unicode="X" glyph-name="X" horiz-adv-x="769" d="M439 582T483 489T591 271L607 240Q619 218 648 189Q676 162 689 136T702 60Q702 16 691 -6T651 -29Q592 -29 548 15T468 132T375 348Q371 357 366 368T356 394Q349 372 330 332T306 282Q275 220 260 184T244
129Q244 60 230 20T173 -20Q129 -20 107 21T84 126Q84 152 115 226T206 427Q216 450 232 485T256 537L292 621Q285 635 276 648Q273 653 254 686T210 775Q203 789 197 799Q145 897 110 978T74 1117Q74 1148 91 1183T129 1219Q167 1214 210 1136T313 916Q360 809
374 783Q407 845 437 910T478 997Q520 1088 543 1133T593 1204T652 1231Q672 1231 684 1214T697 1171Q697 1149 691 1133Q666 1063 631 990T542 818Q535 805 498 735T439 610Q439 582 483 489Z" />
<glyph unicode="Y" glyph-name="Y" horiz-adv-x="798" d="M310 381T320 400T334 427Q334 433 331 445T322 463Q291 510 213 651T70 932T5 1129Q5 1163 23 1189T63 1216Q80 1216 92 1206T122 1164Q141 1132 227 964Q283 855 341 743T427 590L515 769L575 897Q626
1009 660 1075T730 1186T802 1231Q824 1231 836 1207T849 1147Q849 1140 845 1129T832 1103Q806 1053 788 1013Q751 923 606 624Q492 386 436 266T347 58Q342 36 324 4T292 -29Q280 -29 259 -13T222 26T205 74Q207 128 234 210T301 364Q310 381 320 400Z" />
<glyph unicode="Z" glyph-name="Z" horiz-adv-x="960" d="M739 -5T593 -11Q572 -12 492 -15T342 -18Q277 -18 175 -8Q144 -6 134 15T124 84Q124 146 145 206T208 334Q264 428 338 542Q434 693 490 787T590 980H550Q497 980 431 976T347 971Q219 963 169 963Q131
963 105 996T79 1080Q79 1128 101 1154T157 1181Q181 1181 241 1177Q301 1173 326 1173Q366 1173 454 1175Q520 1178 590 1178Q671 1178 751 1171Q770 1168 778 1138T786 1070Q786 1028 714 894T550 611T403 381Q378 343 340 279T287 181H525H567Q624 181 652 182L739
183Q757 183 773 188T814 205Q838 216 850 220T877 225Q916 225 934 198T952 126Q952 74 933 30T877 -14Q859 -14 839 -9Q815 -5 802 -5Q739 -5 593 -11Z" />
<glyph unicode="\" glyph-name="backslash" horiz-adv-x="621" d="M459 -183T445 -166T422 -123T413 -71Q266 532 188 820T36 1315Q29 1338 29 1350Q29 1397 46 1423T94 1449Q113 1449 136 1414T173 1343Q323 889 570 -81Q570 -117 554 -140T515 -173T472 -183Q459
-183 445 -166Z" />
<glyph unicode="^" glyph-name="asciicircum" horiz-adv-x="884" d="M612 418L572 522Q518 665 479 758T411 881Q365 735 297 551T150 200Q137 173 109 161T63 149Q46 149 35 183T23 263Q23 284 30 301T53 346Q96 426 148 563T244 838T305 1050Q317 1102 333 1125T387
1149Q407 1149 430 1133T473 1092Q490 1058 546 941T670 680T773 443Q778 429 788 414T809 385Q829 357 839 339T849 299Q849 236 827 205T760 173Q736 173 716 189T689 220L612 418Z" />
<glyph unicode="_" glyph-name="underscore" horiz-adv-x="985" d="M-68 -307T-68 -248V-232Q-68 -201 -50 -172T-5 -142H1005Q1036 -142 1053 -162T1070 -230Q1070 -264 1063 -281T1042 -302T1005 -307H-12Q-68 -307 -68 -248Z" />
<glyph unicode="`" glyph-name="grave" horiz-adv-x="408" d="M-142 1394T-122 1418T-69 1443Q-33 1443 0 1406T83 1295Q110 1255 126 1233T159 1194Q187 1169 201 1148T215 1093V1064Q215 1029 206 1014T167 999Q128 999 56 1074T-79 1238T-142 1350Q-142 1394
-122 1418Z" />
<glyph unicode="a" glyph-name="a" horiz-adv-x="1021" d="M1021 218T1034 198T1048 134Q1048 100 1029 66T977 10T904 -12Q865 -12 826 16T761 91T736 187Q661 92 581 35T409 -23Q326 -23 241 31T100 176T45 374Q45 517 110 654T284 877T521 963Q617 963 699
905T830 756T879 570Q879 530 873 490T866 440Q858 393 854 357T850 279Q850 220 867 195T920 169Q929 169 938 176T961 196Q963 198 972 206T990 218Q1021 218 1034 198ZM558 169T622 234T709 382T753 600Q753 631 716 671T628 740T535 769Q432 769 351 712T226
564T181 381Q181 320 219 272T317 196T441 169Q558 169 622 234Z" />
<glyph unicode="b" glyph-name="b" horiz-adv-x="942" d="M327 -10T256 12Q244 12 234 7T221 1Q201 -12 181 -12Q134 -12 120 38T105 198V284L122 1372Q122 1417 137 1442T193 1467Q206 1467 222 1457T249 1430T260 1390Q260 1301 257 1200Q253 1028 253 881Q314
918 371 939T486 960Q671 960 765 842T859 492Q859 319 783 206T598 42T394 -10Q327 -10 256 12ZM250 314T253 263T266 195Q296 179 394 179Q440 179 496 198T602 251T676 324Q694 357 705 424T716 553Q716 614 674 663T572 741T461 769Q408 769 345 739T253 668Q250
585 250 458Q250 314 253 263Z" />
<glyph unicode="c" glyph-name="c" horiz-adv-x="875" d="M728 225T746 213T778 174T792 105Q792 83 778 58T745 15T710 -2H651Q617 -2 553 -6Q489 -10 454 -10Q280 -10 177 75T74 364Q74 528 127 663T284 878T528 958Q598 958 657 924T752 829T788 694Q788 659
777 623T743 586Q726 586 714 599T683 640Q661 674 641 697T584 738T495 755Q413 755 347 708T245 584T208 423Q208 325 245 273T357 201T563 181Q591 181 611 186T657 204Q690 220 715 225Q728 225 746 213Z" />
<glyph unicode="d" glyph-name="d" horiz-adv-x="1021" d="M588 963T641 940T729 875T769 779L771 1066L773 1351Q773 1456 849 1456Q878 1456 891 1428T904 1361L903 1213L901 1062L889 427L885 254Q884 121 868 54T800 -14Q780 -14 766 12T734 88Q701 56 647
34T536 0T437 -12Q258 -12 166 106T74 427Q74 567 128 690T286 888T528 963Q588 963 641 940ZM540 165T600 186T696 238T740 293Q748 319 750 349T753 419V454V511Q753 579 722 640T640 738T532 775Q435 775 363 731T252 610T213 433Q213 352 245 291T335 198T462
165Q540 165 600 186Z" />
<glyph unicode="e" glyph-name="e" horiz-adv-x="958" d="M837 229T855 206T874 134Q874 40 739 10T471 -20Q372 -20 280 37T131 194T74 411Q74 580 129 710T289 912T540 985Q617 985 692 947T817 836T866 664Q866 613 851 579T810 535L205 319Q236 220 331 190T542
160Q580 160 618 171T708 202Q741 215 762 222T800 229Q837 229 855 206ZM270 492T366 530T612 630Q713 672 750 686Q723 744 659 771T511 798Q464 798 395 763T268 653T195 471Q270 492 366 530Z" />
<glyph unicode="f" glyph-name="f" horiz-adv-x="767" d="M626 1501T677 1480T768 1424T808 1345Q808 1311 800 1280T769 1248Q749 1248 731 1255T689 1277Q659 1294 640 1302T596 1310Q492 1310 446 1191T390 907H626Q635 908 653 910T684 913Q710 913 727 893T745
820Q745 754 718 735T652 716Q476 726 409 726H386Q385 668 381 538Q375 393 374 305Q374 294 381 250Q382 242 389 188T397 74Q397 -10 342 -10Q293 -10 270 6T238 70T229 218Q229 276 231 350T234 457Q239 561 240 671Q240 687 242 721Q162 716 101 716Q75 716
56 747T36 814Q36 849 57 881T103 913L247 907H256Q285 1162 367 1331T596 1501Q626 1501 677 1480Z" />
<glyph unicode="g" glyph-name="g" horiz-adv-x="955" d="M614 -284T639 -241T673 -136T689 26Q693 96 697 129Q686 84 644 49T545 -4T441 -23Q261 -23 168 87T74 416Q74 558 116 682T243 882T454 958Q552 958 645 893T795 731T853 547L834 74L833 60Q828 33 817
-63Q801 -198 781 -281T708 -424T555 -483Q516 -483 454 -470T343 -424T293 -339Q293 -289 306 -263T356 -237Q365 -237 372 -240T387 -248Q412 -264 449 -274T567 -284Q614 -284 639 -241ZM525 163T577 208T664 318T715 448Q704 535 682 603T610 718T476 765Q339
765 277 671T213 429Q213 282 278 223T463 163Q525 163 577 208Z" />
<glyph unicode="h" glyph-name="h" horiz-adv-x="998" d="M760 462Q760 542 743 605T665 712T489 757Q431 757 375 731T284 665T248 590V120Q247 80 244 56T227 13T183 -5Q154 -5 130 15T105 99Q105 321 114 730Q122 1180 122 1355Q122 1379 133 1409T163 1462T205
1484Q230 1484 248 1458T266 1398V1394Q266 1316 260 1142Q253 988 253 881L248 760Q257 814 296 857T389 925T491 949Q722 949 811 809T901 476L891 150Q891 144 890 94T869 10T814 -25Q778 -25 757 6T736 85Q736 150 748 266Q760 378 760 439V462Z" />
<glyph unicode="i" glyph-name="i" horiz-adv-x="399" d="M349 1174T256 1174Q215 1174 180 1198T144 1282Q144 1312 160 1343T201 1394T248 1414Q289 1414 319 1388T349 1299Q349 1174 256 1174ZM293 35T272 6T225 -23Q188 -23 167 0T134 79Q126 127 126 284Q126
544 146 755T240 967Q270 967 279 941T289 864L281 724Q276 653 272 575T268 436Q268 371 281 254Q293 132 293 85Q293 35 272 6Z" />
<glyph unicode="j" glyph-name="j" horiz-adv-x="570" d="M437 1217T344 1217Q303 1217 266 1242T229 1327Q229 1357 246 1388T288 1439T337 1459Q377 1459 407 1432T437 1341Q437 1217 344 1217ZM401 390Q403 314 403 270V234Q403 -27 382 -171T270 -405T-14
-495Q-68 -495 -110 -477T-153 -392Q-153 -340 -133 -322T-71 -303H-41Q98 -303 165 -231T251 -52T270 222L273 796Q275 968 349 968Q383 968 401 938T423 866Q423 799 412 683Q400 549 400 481L401 390Z" />
<glyph unicode="k" glyph-name="k" horiz-adv-x="894" d="M175 1375Q176 1403 187 1426T216 1462T250 1475Q263 1475 279 1463T306 1427T317 1372Q317 1212 300 940Q291 793 287 689T282 476V462L671 970Q686 993 704 1008T740 1023Q782 1023 798 1002T814 932V922Q814
883 767 831T632 699L580 651Q594 619 609 579T629 524Q661 432 688 373Q712 317 738 272Q760 236 783 184Q785 179 792 160T807 119T814 85Q814 37 787 4T724 -29Q701 -29 686 -10T660 49Q660 45 621 144T473 532L282 301Q282 239 283 205L284 98Q284 58 262 22T205
-14Q179 -14 162 4T137 46T129 91L130 175Q131 227 140 295Q145 327 146 359L175 1375Z" />
<glyph unicode="l" glyph-name="l" horiz-adv-x="518" d="M460 228T474 200T489 134Q489 95 466 63T408 13T347 -5Q249 -5 204 58T160 243L173 1340Q173 1406 191 1446T247 1487Q272 1487 288 1458T305 1394L292 433V399Q292 305 305 243T349 181Q362 181 371
187T392 205Q404 217 412 222T433 228Q460 228 474 200Z" />
<glyph unicode="m" glyph-name="m" horiz-adv-x="1496" d="M1238 492Q1238 548 1210 604T1129 697T1005 734Q968 734 921 715T834 660T777 582L767 175L771 145L775 114Q775 64 756 28T709 -8Q665 -8 638 15T610 101L613 122Q621 191 621 203L625 502Q626 561
603 620T538 718T441 757Q367 757 325 738T266 678T248 567V528Q248 473 254 367Q254 349 256 319L274 89Q274 60 260 37T228 1T198 -12Q154 -12 133 17T112 124V134L113 158Q114 165 114 181L113 342Q112 378 112 436V596Q112 716 116 784T136 889T181 926Q240
926 240 820V802Q254 840 286 873T359 928T443 949Q496 949 562 922T676 838T724 694Q738 762 786 813T898 892T1013 920Q1188 920 1284 795T1381 406Q1381 227 1358 102T1288 -23Q1263 -23 1242 -4T1207 45T1194 99Q1194 133 1199 158T1215 215Q1226 248 1231
274T1237 337L1238 492Z" />
<glyph unicode="n" glyph-name="n" horiz-adv-x="1005" d="M775 543T725 659T532 775Q490 775 436 750T330 682T247 586Q247 552 245 472Q243 396 243 367Q243 336 247 307T259 234Q265 202 269 168T274 103Q274 46 261 17T205 -12Q162 -12 136 12T112 109L116
501Q105 643 105 696V726Q105 814 122 887T177 960Q253 960 253 829Q253 808 247 746L244 720Q266 798 324 854T449 938T563 967Q751 967 830 813T909 439Q909 235 890 103T812 -29Q786 -29 770 -23T744 8T734 84Q734 117 739 149T754 229Q765 284 770 316T775
384Q775 543 725 659Z" />
<glyph unicode="o" glyph-name="o" horiz-adv-x="968" d="M373 -23T280 51T132 238T76 462Q76 636 136 749T293 913T502 965Q621 965 707 904T838 729T884 462Q884 323 827 212T676 39T478 -23Q373 -23 280 51ZM753 560T724 629T642 736T526 775Q447 775 373 742T252
642T205 483Q205 405 243 331T342 210T468 163Q542 163 607 200T713 306T753 471Q753 560 724 629Z" />
<glyph unicode="p" glyph-name="p" horiz-adv-x="1003" d="M105 -155T124 777Q154 845 208 887T324 948T441 967Q588 967 693 914T852 769T907 562Q907 390 850 261T688 61T441 -10Q392 -10 353 -5T250 14V-68Q250 -141 260 -251Q270 -359 270 -428Q270 -466 244
-488T189 -511Q148 -511 131 -489T109 -428T105 -303Q105 -155 124 777ZM245 408T248 317T254 193Q253 185 297 182T381 179Q486 179 573 217T714 335T767 532Q767 653 680 716T439 779Q405 779 361 768T285 737T253 689L247 436Q245 408 248 317Z" />
<glyph unicode="q" glyph-name="q" horiz-adv-x="968" d="M719 159Q708 118 664 80T564 19T461 -5Q346 -5 261 60T130 229T85 443Q85 591 137 713T279 905T483 975Q564 975 654 927T805 788T866 574Q866 504 860 306Q850 34 850 -203V-408Q850 -437 838 -455T808
-482T775 -491Q736 -491 716 -473T696 -411V-399L716 -14L719 159ZM571 189T626 257T702 423T724 621Q695 699 634 743T507 788Q430 788 365 748T260 635T220 468Q220 401 248 337T334 231T476 189Q571 189 626 257Z" />
<glyph unicode="r" glyph-name="r" horiz-adv-x="808" d="M405 783T340 699T274 441V406L284 98Q284 81 277 57T253 14T210 -5Q162 -5 144 24T126 119Q126 163 128 211Q129 227 129 253V313V347Q129 403 134 501T159 844Q162 894 181 923T237 952Q257 952 274
926T292 841Q292 752 289 732Q309 796 366 851T492 940T610 973Q692 973 755 941T818 814Q818 784 805 759T772 720T729 706Q710 706 701 713T684 735Q672 758 652 770T580 783H557Q405 783 340 699Z" />
<glyph unicode="s" glyph-name="s" horiz-adv-x="916" d="M312 -31T231 7T150 153Q150 170 160 195T185 239T215 258Q220 258 240 240Q266 207 290 191T346 169T429 163Q481 163 541 176T644 208T686 237Q686 264 660 281T596 309T484 334Q367 356 292 380T161
459T105 607Q105 722 168 808T328 941T525 988Q590 988 641 962T721 894T750 802Q750 723 738 673T681 623Q659 623 652 644T645 709Q645 756 609 774T501 792Q451 792 390 767T286 702T243 619Q243 575 276 548T358 506T493 474Q599 453 664 432T774 367T820 247Q820
152 747 90T577 -2T408 -31Q312 -31 231 7Z" />
<glyph unicode="t" glyph-name="t" horiz-adv-x="804" d="M223 757T191 755Q155 753 130 753Q116 753 96 765T60 799T45 849Q45 877 57 901T89 940T130 955Q162 955 248 949Q251 1073 270 1185T346 1297Q359 1297 373 1285T396 1251T406 1204Q406 1098 394 1012L391
987L382 946Q418 946 467 947T542 949Q622 952 702 952Q731 952 744 918T757 844Q757 802 736 778T689 753L381 757L380 665Q377 581 377 483Q377 344 400 264T491 184Q548 184 632 245Q650 256 651 256Q676 256 685 242T694 193Q694 151 660 104T579 23T497 -10Q384
-10 330 69T262 260T246 548Q246 687 238 757Q223 757 191 755Z" />
<glyph unicode="u" glyph-name="u" horiz-adv-x="938" d="M270 848T250 746Q236 671 229 620T222 518Q222 445 237 365T294 224T411 163Q504 163 565 213T681 352Q683 378 692 546L694 596L697 875Q697 918 721 939T771 960Q794 960 812 939T831 881L815 85Q814
29 800 10T751 -10Q721 -10 706 0T683 44T676 149Q676 200 678 232Q661 159 620 99T525 5T421 -29Q224 -29 156 130T88 495Q88 599 100 705T140 886T215 960Q270 960 270 889Q270 848 250 746Z" />
<glyph unicode="v" glyph-name="v" horiz-adv-x="907" d="M238 705Q281 558 318 449T411 213Q428 231 482 341T666 751Q730 878 763 930T818 983Q844 983 859 952T874 874Q874 854 865 829T829 747T759 611L722 540Q483 -29 382 -29Q325 -29 250 174T81 719Q49
792 49 849Q49 894 59 923T101 952Q142 952 160 929T195 846L238 705Z" />
<glyph unicode="w" glyph-name="w" horiz-adv-x="1402" d="M789 -31T733 37T649 222Q626 142 581 75T482 -30T377 -69Q255 -69 194 73T118 369T103 647Q103 760 119 830T156 930T198 960Q227 960 238 939T250 875V863Q250 839 249 808T247 761Q244 716 244 678Q244
518 276 362T381 139Q435 144 487 199T574 339T610 508L607 558Q606 578 602 647T598 760Q598 784 608 813T638 864T688 885Q717 885 731 854T749 773T753 641V540Q753 425 759 353T789 232T864 183Q935 183 1009 224T1133 342T1183 525Q1183 691 1154 773Q1151
781 1143 800T1129 838T1123 874Q1123 926 1142 958T1201 990Q1225 990 1248 965T1276 881Q1276 849 1280 818T1292 735Q1301 683 1305 646T1310 571Q1310 412 1246 273T1077 52T859 -31Q789 -31 733 37Z" />
<glyph unicode="x" glyph-name="x" horiz-adv-x="808" d="M510 775T583 874T706 973Q739 973 755 950T771 889Q771 871 761 854T726 804Q590 671 468 466Q487 420 529 352T620 231T712 179Q742 179 757 159T773 101Q773 34 751 5T696 -25Q565 -25 368 301Q366
295 360 285T341 258Q318 227 243 120Q238 74 217 28T165 -18Q123 -18 99 4T74 84Q74 123 86 147T122 203Q142 232 201 313Q283 429 305 461Q278 504 234 598Q215 637 194 679T150 757Q133 777 125 814T116 884Q116 918 134 943T183 968Q207 968 246 902T334 729L399
590Q510 775 583 874Z" />
<glyph unicode="y" glyph-name="y" horiz-adv-x="881" d="M888 968T900 944T913 891Q913 868 902 846T850 757Q846 752 844 748T839 740Q821 712 804 687Q761 622 729 567T660 437Q652 420 580 279Q457 42 384 -123T311 -383Q311 -426 292 -463T243 -501Q227 -501
203 -483T160 -439T142 -392Q143 -339 184 -226T270 -36L351 122Q298 240 153 599L85 767Q75 791 69 817T63 859Q65 908 87 938T142 968Q164 968 175 950T203 885Q249 754 324 565T438 290L736 868Q760 915 795 941T868 968Q888 968 900 944Z" />
<glyph unicode="z" glyph-name="z" horiz-adv-x="829" d="M151 736T134 739T104 761T91 825Q91 863 104 901T144 940H448Q474 940 502 944T537 949Q591 958 625 958Q660 958 674 915T689 822Q675 754 649 689T585 557T472 358Q457 332 432 290T371 183Q399 175
446 175Q516 175 593 192T719 238Q722 240 726 241T734 243Q755 243 770 218T792 159T800 98Q800 73 788 48T753 5T705 -12Q685 -12 660 -7Q654 -6 640 -4T612 -2Q553 -2 488 -5Q467 -5 424 -6T347 -8Q296 -8 263 -3T206 27T181 101Q181 126 218 194T335 397Q411
524 459 609T528 753Q525 755 497 755Q444 755 342 745Q331 744 282 740T189 736Q151 736 134 739Z" />
<glyph unicode="&#xa0;" glyph-name="uni00A0" horiz-adv-x="413" />
<glyph unicode="&#xa8;" glyph-name="dieresis" horiz-adv-x="879" d="M303 1457T322 1424T342 1330Q342 1277 328 1240T294 1185T256 1167Q206 1167 183 1204T160 1314Q160 1350 180 1383T229 1436T277 1457Q303 1457 322 1424ZM702 1274T687 1242T650 1189T607
1167Q567 1167 542 1203T516 1295Q516 1333 530 1370T568 1431T622 1455Q664 1455 683 1407T702 1305Q702 1274 687 1242Z" />
<glyph unicode="&#xaa;" glyph-name="ordfeminine" horiz-adv-x="1109" d="M865 841T879 820T894 750Q894 715 876 686T830 639T771 621Q732 621 696 645T633 706Q587 655 538 631T421 607Q349 607 296 639T213 728T184 859Q184 995 248 1063T458 1132Q556 1132
628 1090L629 1133Q629 1194 600 1223T531 1259T431 1266Q389 1266 365 1263T322 1247Q322 1247 304 1235Q290 1224 280 1219T256 1213Q216 1213 200 1235T183 1317Q183 1392 273 1420T468 1449Q552 1449 617 1415T718 1312T755 1146L754 842Q756 822 763 814T790
805Q792 815 805 828T834 841Q865 841 879 820ZM513 777T556 814T619 891Q604 921 563 936T468 952Q397 952 359 933T319 868Q319 848 333 827T375 791T436 777Q513 777 556 814ZM537 421T567 407T619 365T641 301Q641 279 624 251T580 202T528 181Q406 181 406
283Q406 351 436 386T517 421Q537 421 567 407Z" />
<glyph unicode="&#xac;" glyph-name="logicalnot" horiz-adv-x="1398" d="M1069 751T1131 762Q1138 763 1173 768T1241 773Q1262 773 1272 748T1283 696L1295 270Q1295 244 1281 217T1247 173T1211 155Q1180 155 1157 184T1133 256Q1133 270 1136 294Q1146 392
1146 544Q1146 553 1106 556T880 561T383 565H352H309Q273 565 249 599T225 678Q225 723 245 741T304 764T436 769Q503 769 602 765T733 760Q924 751 1028 751Q1069 751 1131 762Z" />
<glyph unicode="&#xaf;" glyph-name="overscore" horiz-adv-x="899" d="M715 1272T727 1266T746 1240T753 1184Q753 1134 743 1117T710 1100Q705 1100 698 1101T684 1103H189Q154 1103 137 1124T119 1177Q119 1214 138 1246T181 1278Q298 1278 421 1275Q462 1275
545 1274T694 1272Q715 1272 727 1266Z" />
<glyph unicode="&#xb1;" glyph-name="plusminus" horiz-adv-x="977" d="M411 629T419 703Q427 775 427 814H195Q170 814 156 839T142 901Q142 969 174 996T254 1023L431 1009Q431 1039 430 1055L429 1110Q429 1205 448 1260T528 1316Q552 1316 562 1306T575 1279T578
1227Q577 1210 574 1163T567 1067L571 1021Q637 1021 669 1022T719 1030Q754 1054 773 1054Q808 1054 822 1023T836 948V931Q836 865 806 843T726 821L697 823Q647 828 626 828Q565 828 563 805L570 625Q570 566 560 539T532 504T486 497Q449 497 430 517T411 596Q411
629 419 703ZM733 347T752 319T771 243Q771 210 754 190T716 161T679 152Q641 152 583 161Q575 162 542 166T478 170Q448 170 402 163Q346 155 311 155Q276 155 254 176T231 258Q231 299 250 323T301 347Q307 347 321 343T347 339Q406 339 522 343Q642 347 702
347Q733 347 752 319Z" />
<glyph unicode="&#xb4;" glyph-name="acute" horiz-adv-x="547" d="M115 1163Q115 1197 129 1218T172 1264Q188 1280 208 1308T248 1364Q296 1437 330 1475T402 1513Q433 1513 454 1488T475 1420Q475 1397 413 1308T277 1144T165 1069Q135 1069 125 1084T115 1134V1163Z" />
<glyph unicode="&#xb6;" glyph-name="paragraph" horiz-adv-x="1144" d="M84 1136T217 1239T578 1343H639V464H600Q447 464 331 511T150 658T84 907Q84 1136 217 1239ZM948 1343V-164H778V1343H948Z" />
<glyph unicode="&#xb8;" glyph-name="cedilla" horiz-adv-x="552" d="M297 -315T310 -310T324 -289Q324 -283 315 -271T303 -254Q266 -202 243 -154T220 -41Q220 7 234 52T289 98Q320 98 331 75T342 29Q342 25 341 21T339 12L332 -26Q335 -47 346 -66T380 -115Q414
-160 432 -197T450 -282Q450 -403 401 -449T260 -495Q228 -495 180 -480T93 -431T55 -342Q55 -315 63 -294T82 -260T105 -248Q115 -252 127 -259T146 -271Q181 -293 208 -304T270 -315Q297 -315 310 -310Z" />
<glyph unicode="&#xba;" glyph-name="ordmasculine" horiz-adv-x="965" d="M392 602T318 668T199 832T153 1020Q153 1158 202 1255T329 1400T492 1449Q584 1449 650 1394T752 1242T788 1020Q788 908 744 812T628 659T473 602Q392 602 318 668ZM661 1090T641 1145T586
1233T508 1266Q455 1266 403 1235T317 1150T283 1035Q283 983 309 924T377 824T463 783Q514 783 560 816T633 906T661 1028Q661 1090 641 1145ZM615 299T598 271T554 221T502 200Q382 200 382 305Q382 373 411 406T492 439Q510 439 540 425T592 383T615 319Q615
299 598 271Z" />
<glyph unicode="&#xbc;" glyph-name="onequarter" horiz-adv-x="1642" d="M93 1462T132 1510T218 1597T285 1636Q300 1636 329 1623T381 1582T405 1516Q403 1435 398 1376T384 1243Q373 1141 368 1059T363 843Q374 769 374 692Q374 664 360 640T324 602T285 588Q226
588 206 647T186 821Q186 896 191 952T206 1080Q216 1162 222 1227T231 1384Q226 1394 213 1396T184 1398T162 1398Q129 1398 111 1405T93 1435Q93 1462 132 1510ZM1112 1322T1144 1351T1195 1375Q1239 1364 1239 1308Q1239 1289 1233 1263Q1230 1250 1217 1231Q1098
1052 957 798T517 -22Q511 -47 496 -70T463 -107T433 -117Q406 -110 383 -86T359 -24Q359 -9 363 6Q552 359 750 710T1093 1291Q1112 1322 1144 1351ZM1019 544T1035 569T1083 594Q1113 594 1127 553T1141 446L1134 288Q1134 224 1159 194T1230 156T1358 148H1399H1472Q1484
321 1484 652Q1485 702 1504 729T1555 756Q1571 756 1585 739T1607 698T1616 654Q1616 653 1615 614T1604 91Q1621 61 1621 25Q1621 5 1598 -28Q1593 -61 1593 -112Q1593 -156 1597 -220Q1597 -235 1598 -265T1600 -322Q1600 -378 1574 -413T1506 -448Q1487 -448
1471 -422T1455 -361V-54L1243 -48Q1128 -41 1067 43T1006 270V283L1016 506Q1019 544 1035 569Z" />
<glyph unicode="&#xbd;" glyph-name="onehalf" horiz-adv-x="1543" d="M23 1462T62 1510T148 1597T215 1636Q230 1636 259 1623T311 1582T335 1516Q333 1435 328 1376T314 1243Q303 1141 298 1059T293 843Q304 769 304 692Q304 664 290 640T254 602T215 588Q156
588 136 647T116 821Q116 896 121 952T136 1080Q146 1162 152 1227T161 1384Q156 1394 143 1396T114 1398T92 1398Q59 1398 41 1405T23 1435Q23 1462 62 1510ZM924 1279T956 1308T1007 1332Q1051 1321 1051 1265Q1051 1246 1045 1220Q1042 1207 1029 1188Q910 1009
769 755T329 -65Q323 -90 308 -113T275 -150T245 -160Q218 -153 195 -129T171 -67Q171 -52 175 -37Q364 316 562 667T905 1248Q924 1279 956 1308ZM949 -239T932 -220T914 -173Q914 -117 931 -82T983 -4L1008 28Q1020 44 1080 123Q1184 257 1240 345T1296 493Q1296
573 1259 604T1167 635Q1125 635 1100 624T1063 598T1040 559Q1030 538 1021 529T995 519Q978 519 960 538T930 580T918 614Q920 688 968 735T1080 804T1196 825Q1252 825 1310 796T1407 714T1446 593Q1446 510 1406 417T1310 239T1169 41Q1116 -29 1102 -50Q1120
-58 1179 -58Q1235 -58 1303 -52T1397 -40Q1402 -40 1410 -38T1422 -32Q1436 -33 1451 -54T1477 -105T1487 -162Q1487 -202 1457 -216T1389 -231Q1379 -231 1372 -230T1364 -229Q1356 -229 1332 -227Q1313 -224 1294 -224Q1247 -224 1131 -232Q1111 -233 1058 -236T968
-239Q949 -239 932 -220Z" />
<glyph unicode="&#xbe;" glyph-name="threequarters" horiz-adv-x="1917" d="M657 695T657 865Q657 890 635 914T576 953T500 968Q484 968 468 964T436 953Q400 938 375 938Q304 938 304 1010Q304 1099 482 1153Q553 1201 609 1262T669 1379L631 1380L588 1382Q541
1382 481 1363T382 1319Q376 1317 368 1312T353 1307Q333 1307 312 1325T291 1367Q291 1424 350 1462T487 1519T616 1538Q708 1538 753 1497T799 1368Q799 1324 760 1250T650 1103Q684 1087 714 1052T762 974T780 891Q780 735 714 659T527 561T195 538Q140 538
140 612Q140 644 153 682T187 720Q210 720 221 718T245 710Q262 703 281 699T344 695Q657 695 657 865ZM1308 1322T1340 1351T1391 1375Q1435 1364 1435 1308Q1435 1289 1429 1263Q1426 1250 1413 1231Q1294 1052 1153 798T713 -22Q707 -47 692 -70T659 -107T629
-117Q602 -110 579 -86T555 -24Q555 -9 559 6Q748 359 946 710T1289 1291Q1308 1322 1340 1351ZM1218 544T1234 569T1282 594Q1312 594 1326 553T1340 446L1333 288Q1333 224 1358 194T1429 156T1557 148H1598H1671Q1683 321 1683 652Q1684 702 1703 729T1754 756Q1770
756 1784 739T1806 698T1815 654Q1815 653 1814 614T1803 91Q1820 61 1820 25Q1820 5 1797 -28Q1792 -61 1792 -112Q1792 -156 1796 -220Q1796 -235 1797 -265T1799 -322Q1799 -378 1773 -413T1705 -448Q1686 -448 1670 -422T1654 -361V-54L1442 -48Q1327 -41 1266
43T1205 270V283L1215 506Q1218 544 1234 569Z" />
<glyph unicode="&#xc0;" glyph-name="Agrave" horiz-adv-x="1188" d="M363 406T353 400T335 377T311 315L244 122Q241 71 225 41T189 0T159 -12Q123 -12 106 5T88 67Q88 140 122 200L145 267Q182 378 208 448Q205 458 205 476Q205 523 216 551T260 600L450 1047Q452
1051 454 1056T460 1069Q497 1144 527 1187T590 1231Q664 1231 726 1126T833 880T934 523Q973 371 995 298T1038 200Q1042 195 1046 190T1056 179Q1073 159 1080 148T1090 121T1094 74Q1094 -23 1002 -23Q962 -23 929 50T877 205L869 233Q846 315 834 346T804 392T751
406H384Q363 406 353 400ZM492 605Q565 602 635 602Q709 602 751 605Q721 694 661 822L582 994Q563 983 508 849T416 607L492 605ZM401 1674T421 1694T477 1714Q505 1714 547 1689T655 1617Q721 1571 751 1553Q783 1532 802 1508T821 1451Q821 1423 812 1409T790
1389T778 1385Q741 1385 647 1422T477 1516T401 1630Q401 1674 421 1694Z" />
<glyph unicode="&#xc1;" glyph-name="Aacute" horiz-adv-x="1188" d="M363 406T353 400T335 377T311 315L244 122Q241 71 225 41T189 0T159 -12Q123 -12 106 5T88 67Q88 140 122 200L145 267Q182 378 208 448Q205 458 205 476Q205 523 216 551T260 600L450 1047Q452
1051 454 1056T460 1069Q497 1144 527 1187T590 1231Q664 1231 726 1126T833 880T934 523Q973 371 995 298T1038 200Q1042 195 1046 190T1056 179Q1073 159 1080 148T1090 121T1094 74Q1094 -23 1002 -23Q962 -23 929 50T877 205L869 233Q846 315 834 346T804 392T751
406H384Q363 406 353 400ZM492 605Q565 602 635 602Q709 602 751 605Q721 694 661 822L582 994Q563 983 508 849T416 607L492 605ZM477 1484T495 1508T545 1553Q592 1582 639 1616Q709 1665 751 1689T821 1714Q854 1714 873 1694T893 1630Q893 1572 818 1516T649
1423T517 1385Q517 1383 506 1388T486 1408T477 1451Q477 1484 495 1508Z" />
<glyph unicode="&#xc2;" glyph-name="Acircumflex" horiz-adv-x="1188" d="M363 406T353 400T335 377T311 315L244 122Q241 71 225 41T189 0T159 -12Q123 -12 106 5T88 67Q88 140 122 200L145 267Q182 378 208 448Q205 458 205 476Q205 523 216 551T260 600L450
1047Q452 1051 454 1056T460 1069Q497 1144 527 1187T590 1231Q664 1231 726 1126T833 880T934 523Q973 371 995 298T1038 200Q1042 195 1046 190T1056 179Q1073 159 1080 148T1090 121T1094 74Q1094 -23 1002 -23Q962 -23 929 50T877 205L869 233Q846 315 834
346T804 392T751 406H384Q363 406 353 400ZM492 605Q565 602 635 602Q709 602 751 605Q721 694 661 822L582 994Q563 983 508 849T416 607L492 605ZM557 1556T502 1514T390 1448T289 1423Q266 1423 246 1449T225 1511Q225 1551 245 1582T289 1616Q324 1621 364
1642T466 1701Q521 1734 551 1749T602 1765Q635 1763 661 1742Q736 1666 841 1635Q869 1623 883 1615T908 1593T919 1556Q919 1520 909 1492T883 1449T852 1433Q803 1433 728 1488T599 1608Q557 1556 502 1514Z" />
<glyph unicode="&#xc3;" glyph-name="Atilde" horiz-adv-x="1188" d="M363 406T353 400T335 377T311 315L244 122Q241 71 225 41T189 0T159 -12Q123 -12 106 5T88 67Q88 140 122 200L145 267Q182 378 208 448Q205 458 205 476Q205 523 216 551T260 600L450 1047Q452
1051 454 1056T460 1069Q497 1144 527 1187T590 1231Q664 1231 726 1126T833 880T934 523Q973 371 995 298T1038 200Q1042 195 1046 190T1056 179Q1073 159 1080 148T1090 121T1094 74Q1094 -23 1002 -23Q962 -23 929 50T877 205L869 233Q846 315 834 346T804 392T751
406H384Q363 406 353 400ZM492 605Q565 602 635 602Q709 602 751 605Q721 694 661 822L582 994Q563 983 508 849T416 607L492 605ZM319 1403T301 1426T283 1486Q283 1541 310 1586T379 1658T468 1684Q522 1684 559 1662T639 1600Q667 1574 685 1562T722 1550Q749
1550 764 1562T797 1599Q811 1619 821 1628T847 1637Q870 1637 881 1618T893 1571Q893 1523 873 1476T814 1399T722 1368Q690 1368 658 1388T581 1445Q540 1479 515 1495T466 1511Q437 1511 420 1494T383 1444Q370 1423 362 1413T343 1403Q319 1403 301 1426Z"
/>
<glyph unicode="&#xc4;" glyph-name="Adieresis" horiz-adv-x="1188" d="M363 406T353 400T335 377T311 315L244 122Q241 71 225 41T189 0T159 -12Q123 -12 106 5T88 67Q88 140 122 200L145 267Q182 378 208 448Q205 458 205 476Q205 523 216 551T260 600L450
1047Q452 1051 454 1056T460 1069Q497 1144 527 1187T590 1231Q664 1231 726 1126T833 880T934 523Q973 371 995 298T1038 200Q1042 195 1046 190T1056 179Q1073 159 1080 148T1090 121T1094 74Q1094 -23 1002 -23Q962 -23 929 50T877 205L869 233Q846 315 834
346T804 392T751 406H384Q363 406 353 400ZM492 605Q565 602 635 602Q709 602 751 605Q721 694 661 822L582 994Q563 983 508 849T416 607L492 605ZM480 1673T499 1640T519 1546Q519 1493 505 1456T471 1401T433 1383Q383 1383 360 1420T337 1530Q337 1566 357
1599T406 1652T454 1673Q480 1673 499 1640ZM879 1490T864 1458T827 1405T784 1383Q744 1383 719 1419T693 1511Q693 1549 707 1586T745 1647T799 1671Q841 1671 860 1623T879 1521Q879 1490 864 1458Z" />
<glyph unicode="&#xc5;" glyph-name="Aring" horiz-adv-x="1188" d="M363 406T353 400T335 377T311 315L244 122Q241 71 225 41T189 0T159 -12Q123 -12 106 5T88 67Q88 140 122 200L145 267Q182 378 208 448Q205 458 205 476Q205 523 216 551T260 600L450 1047Q452
1051 454 1056T460 1069Q497 1144 527 1187T590 1231Q664 1231 726 1126T833 880T934 523Q973 371 995 298T1038 200Q1042 195 1046 190T1056 179Q1073 159 1080 148T1090 121T1094 74Q1094 -23 1002 -23Q962 -23 929 50T877 205L869 233Q846 315 834 346T804 392T751
406H384Q363 406 353 400ZM492 605Q565 602 635 602Q709 602 751 605Q721 694 661 822L582 994Q563 983 508 849T416 607L492 605ZM823 1502T788 1439T699 1333T594 1290Q537 1290 485 1323T402 1412T370 1530Q370 1569 408 1643T501 1773T604 1830Q626 1830 637
1826T656 1806T670 1756Q675 1750 685 1747T699 1742Q730 1737 758 1715T805 1653T823 1561Q823 1502 788 1439ZM653 1449T672 1465T706 1506T720 1556Q720 1577 681 1602T594 1646T529 1665Q519 1665 508 1643T489 1594T480 1553Q480 1535 507 1511T571 1468T638
1449Q653 1449 672 1465Z" />
<glyph unicode="&#xc6;" glyph-name="AE" horiz-adv-x="1662" d="M899 995T898 990T897 980Q896 971 896 935L897 827Q899 763 899 726L900 653Q981 652 1133 652Q1157 652 1202 658T1262 666Q1281 666 1296 648T1321 605T1330 560Q1330 518 1313 486T1276 454Q1267
453 1238 453Q1218 453 1134 455Q957 458 930 458H901V200H994Q1053 200 1195 204Q1337 208 1394 208Q1462 208 1483 173T1504 84Q1504 28 1479 3T1421 -23Q1395 -23 1375 -20T1325 -9Q1291 0 1266 4T1204 8Q1155 8 1062 1Q914 -8 839 -8Q802 -8 779 27T757 119L763
458Q693 458 575 460L419 462Q327 268 244 126L198 39Q177 5 156 -15T103 -36Q91 -36 73 -22T40 16T26 67Q26 101 36 124Q149 285 214 408T360 708Q412 820 444 889T522 1042Q465 1047 454 1047Q441 1047 422 1055T387 1082T371 1133Q371 1174 399 1189T466 1204Q536
1204 778 1194Q794 1231 829 1231Q844 1231 872 1215Q895 1203 913 1197T952 1191Q967 1191 973 1192L1417 1201Q1477 1201 1504 1196T1544 1169T1557 1099Q1557 1061 1537 1028T1491 994L899 999Q899 995 898 990ZM766 653L767 688V716Q767 745 766 767T764 806Q760
878 760 920Q760 968 765 988V1043Q754 1031 729 1031H703Q662 965 618 877T510 655L766 653Z" />
<glyph unicode="&#xc7;" glyph-name="Ccedilla" horiz-adv-x="1076" d="M1013 95T908 48T659 -11L653 -44Q656 -65 667 -84T701 -133Q735 -178 753 -215T771 -300Q771 -421 722 -467T581 -513Q549 -513 501 -498T414 -449T376 -360Q376 -333 384 -312T403 -278T426
-266Q436 -270 448 -277T467 -289Q502 -311 529 -322T591 -333Q618 -333 631 -328T645 -307Q645 -301 636 -289T624 -272Q587 -220 564 -172T541 -59Q541 -40 544 -13Q353 -5 229 101T105 458Q105 552 127 646T189 856Q218 937 280 1023T425 1167T595 1226Q680
1226 757 1187T882 1070T930 885Q930 857 921 823T891 765T843 740Q820 740 809 753T795 786T788 842Q784 902 773 941T720 1009T596 1038Q483 1038 403 933T281 690T240 461Q240 373 287 308T408 209T563 175Q635 175 722 186T863 222Q899 256 916 269T942 283Q974
283 993 255T1013 183Q1013 95 908 48Z" />
<glyph unicode="&#xc8;" glyph-name="Egrave" horiz-adv-x="988" d="M897 1176T919 1172T952 1148T963 1087Q963 1050 943 1014T895 978Q440 980 293 985Q293 953 291 863Q289 769 289 732L664 736Q698 736 718 712T739 635Q739 621 732 597T710 555T674 537Q486
537 378 539Q355 540 326 540Q299 540 292 537L299 215Q365 215 447 212T557 208Q741 200 843 200Q909 200 909 84Q909 27 880 2T804 -23Q762 -23 682 -15Q625 -9 573 -6T437 -2Q399 -2 347 -7Q265 -12 243 -12Q204 -12 180 23T157 116L163 560Q163 574 158 592Q157
596 155 608T153 633Q153 658 165 689Q160 842 160 1012Q160 1064 164 1099T185 1161T240 1188Q257 1188 275 1185T300 1181Q342 1173 367 1173L606 1174Q782 1176 846 1176Q897 1176 919 1172ZM350 1656T370 1676T426 1696Q454 1696 496 1671T604 1599Q670 1553
700 1535Q732 1514 751 1490T770 1433Q770 1405 761 1391T739 1371T727 1367Q690 1367 596 1404T426 1498T350 1612Q350 1656 370 1676Z" />
<glyph unicode="&#xc9;" glyph-name="Eacute" horiz-adv-x="988" d="M897 1176T919 1172T952 1148T963 1087Q963 1050 943 1014T895 978Q440 980 293 985Q293 953 291 863Q289 769 289 732L664 736Q698 736 718 712T739 635Q739 621 732 597T710 555T674 537Q486
537 378 539Q355 540 326 540Q299 540 292 537L299 215Q365 215 447 212T557 208Q741 200 843 200Q909 200 909 84Q909 27 880 2T804 -23Q762 -23 682 -15Q625 -9 573 -6T437 -2Q399 -2 347 -7Q265 -12 243 -12Q204 -12 180 23T157 116L163 560Q163 574 158 592Q157
596 155 608T153 633Q153 658 165 689Q160 842 160 1012Q160 1064 164 1099T185 1161T240 1188Q257 1188 275 1185T300 1181Q342 1173 367 1173L606 1174Q782 1176 846 1176Q897 1176 919 1172ZM426 1466T444 1490T494 1535Q541 1564 588 1598Q658 1647 700 1671T770
1696Q803 1696 822 1676T842 1612Q842 1554 767 1498T598 1405T466 1367Q466 1365 455 1370T435 1390T426 1433Q426 1466 444 1490Z" />
<glyph unicode="&#xca;" glyph-name="Ecircumflex" horiz-adv-x="988" d="M897 1176T919 1172T952 1148T963 1087Q963 1050 943 1014T895 978Q440 980 293 985Q293 953 291 863Q289 769 289 732L664 736Q698 736 718 712T739 635Q739 621 732 597T710 555T674
537Q486 537 378 539Q355 540 326 540Q299 540 292 537L299 215Q365 215 447 212T557 208Q741 200 843 200Q909 200 909 84Q909 27 880 2T804 -23Q762 -23 682 -15Q625 -9 573 -6T437 -2Q399 -2 347 -7Q265 -12 243 -12Q204 -12 180 23T157 116L163 560Q163 574
158 592Q157 596 155 608T153 633Q153 658 165 689Q160 842 160 1012Q160 1064 164 1099T185 1161T240 1188Q257 1188 275 1185T300 1181Q342 1173 367 1173L606 1174Q782 1176 846 1176Q897 1176 919 1172ZM506 1538T451 1496T339 1430T238 1405Q215 1405 195
1431T174 1493Q174 1533 194 1564T238 1598Q273 1603 313 1624T415 1683Q470 1716 500 1731T551 1747Q584 1745 610 1724Q685 1648 790 1617Q818 1605 832 1597T857 1575T868 1538Q868 1502 858 1474T832 1431T801 1415Q752 1415 677 1470T548 1590Q506 1538 451
1496Z" />
<glyph unicode="&#xcb;" glyph-name="Edieresis" horiz-adv-x="988" d="M897 1176T919 1172T952 1148T963 1087Q963 1050 943 1014T895 978Q440 980 293 985Q293 953 291 863Q289 769 289 732L664 736Q698 736 718 712T739 635Q739 621 732 597T710 555T674 537Q486
537 378 539Q355 540 326 540Q299 540 292 537L299 215Q365 215 447 212T557 208Q741 200 843 200Q909 200 909 84Q909 27 880 2T804 -23Q762 -23 682 -15Q625 -9 573 -6T437 -2Q399 -2 347 -7Q265 -12 243 -12Q204 -12 180 23T157 116L163 560Q163 574 158 592Q157
596 155 608T153 633Q153 658 165 689Q160 842 160 1012Q160 1064 164 1099T185 1161T240 1188Q257 1188 275 1185T300 1181Q342 1173 367 1173L606 1174Q782 1176 846 1176Q897 1176 919 1172ZM429 1655T448 1622T468 1528Q468 1475 454 1438T420 1383T382 1365Q332
1365 309 1402T286 1512Q286 1548 306 1581T355 1634T403 1655Q429 1655 448 1622ZM828 1472T813 1440T776 1387T733 1365Q693 1365 668 1401T642 1493Q642 1531 656 1568T694 1629T748 1653Q790 1653 809 1605T828 1503Q828 1472 813 1440Z" />
<glyph unicode="&#xcc;" glyph-name="Igrave" horiz-adv-x="676" d="M421 1003Q400 785 400 450Q400 307 411 198L485 199Q499 200 526 200Q547 184 558 156T570 91Q570 65 558 44T526 12T489 0H238Q215 0 184 9T129 40T105 98Q105 141 126 175T177 210L260 203V248Q260
391 268 620T287 987H232Q203 987 184 991T150 1015T136 1076V1080Q136 1140 162 1165T254 1191L478 1192Q491 1192 529 1200Q563 1206 570 1206Q585 1206 602 1188T632 1147T645 1107Q645 1068 627 1041T584 999T537 985Q530 985 518 994T492 1003H421ZM180 1674T200
1694T256 1714Q284 1714 326 1689T434 1617Q500 1571 530 1553Q562 1532 581 1508T600 1451Q600 1423 591 1409T569 1389T557 1385Q520 1385 426 1422T256 1516T180 1630Q180 1674 200 1694Z" />
<glyph unicode="&#xcd;" glyph-name="Iacute" horiz-adv-x="676" d="M421 1003Q400 785 400 450Q400 307 411 198L485 199Q499 200 526 200Q547 184 558 156T570 91Q570 65 558 44T526 12T489 0H238Q215 0 184 9T129 40T105 98Q105 141 126 175T177 210L260 203V248Q260
391 268 620T287 987H232Q203 987 184 991T150 1015T136 1076V1080Q136 1140 162 1165T254 1191L478 1192Q491 1192 529 1200Q563 1206 570 1206Q585 1206 602 1188T632 1147T645 1107Q645 1068 627 1041T584 999T537 985Q530 985 518 994T492 1003H421ZM256 1484T274
1508T324 1553Q371 1582 418 1616Q488 1665 530 1689T600 1714Q633 1714 652 1694T672 1630Q672 1572 597 1516T428 1423T296 1385Q296 1383 285 1388T265 1408T256 1451Q256 1484 274 1508Z" />
<glyph unicode="&#xce;" glyph-name="Icircumflex" horiz-adv-x="676" d="M421 1003Q400 785 400 450Q400 307 411 198L485 199Q499 200 526 200Q547 184 558 156T570 91Q570 65 558 44T526 12T489 0H238Q215 0 184 9T129 40T105 98Q105 141 126 175T177 210L260
203V248Q260 391 268 620T287 987H232Q203 987 184 991T150 1015T136 1076V1080Q136 1140 162 1165T254 1191L478 1192Q491 1192 529 1200Q563 1206 570 1206Q585 1206 602 1188T632 1147T645 1107Q645 1068 627 1041T584 999T537 985Q530 985 518 994T492 1003H421ZM592
1556T537 1514T425 1448T324 1423Q301 1423 281 1449T260 1511Q260 1551 280 1582T324 1616Q359 1621 399 1642T501 1701Q556 1734 586 1749T637 1765Q670 1763 696 1742Q771 1666 876 1635Q904 1623 918 1615T943 1593T954 1556Q954 1520 944 1492T918 1449T887
1433Q838 1433 763 1488T634 1608Q592 1556 537 1514Z" />
<glyph unicode="&#xcf;" glyph-name="Idieresis" horiz-adv-x="676" d="M421 1003Q400 785 400 450Q400 307 411 198L485 199Q499 200 526 200Q547 184 558 156T570 91Q570 65 558 44T526 12T489 0H238Q215 0 184 9T129 40T105 98Q105 141 126 175T177 210L260
203V248Q260 391 268 620T287 987H232Q203 987 184 991T150 1015T136 1076V1080Q136 1140 162 1165T254 1191L478 1192Q491 1192 529 1200Q563 1206 570 1206Q585 1206 602 1188T632 1147T645 1107Q645 1068 627 1041T584 999T537 985Q530 985 518 994T492 1003H421ZM515
1673T534 1640T554 1546Q554 1493 540 1456T506 1401T468 1383Q418 1383 395 1420T372 1530Q372 1566 392 1599T441 1652T489 1673Q515 1673 534 1640ZM914 1490T899 1458T862 1405T819 1383Q779 1383 754 1419T728 1511Q728 1549 742 1586T780 1647T834 1671Q876
1671 895 1623T914 1521Q914 1490 899 1458Z" />
<glyph unicode="&#xd0;" glyph-name="Eth" horiz-adv-x="1178" d="M577 1219T722 1136T965 904T1064 567Q1064 383 965 254T722 60T448 -5Q332 -5 284 4Q273 0 252 -9Q232 -18 228 -18Q195 -18 175 21T148 117T142 225L147 490Q137 489 116 489Q80 489 58 509T36
590Q36 633 56 663T105 694Q116 694 123 690T150 686L157 1050Q158 1147 200 1183T303 1219H448Q577 1219 722 1136ZM581 189T685 226T862 343T934 540Q934 672 864 787T684 970T468 1038Q432 1038 377 1036T293 1030Q277 940 277 833V688Q429 694 507 694Q539
694 556 666T574 590Q574 557 558 533T519 496T483 483Q446 483 387 492Q381 493 348 497T283 501H278Q282 301 299 195Q302 193 319 191T357 189H483Q581 189 685 226Z" />
<glyph unicode="&#xd1;" glyph-name="Ntilde" horiz-adv-x="1076" d="M293 664T293 456Q293 372 293 326T292 254Q291 228 291 181Q291 86 275 41T220 -5Q179 -5 165 18T151 89Q151 107 153 153L157 491Q164 635 165 709T167 868Q167 893 166 910Q163 1009 163
1089Q163 1111 170 1141T192 1194T225 1216Q278 1216 306 1165T352 1021Q381 879 471 701T656 383T767 243Q772 243 776 279T786 484T804 1028Q806 1113 812 1156T834 1220T881 1241Q910 1241 925 1234T947 1203T955 1126Q955 923 942 733T900 245L897 213V187Q895
122 887 77T854 2T781 -29Q763 -29 743 -11T716 23Q599 169 487 360T297 734Q293 664 293 456ZM274 1403T256 1426T238 1486Q238 1541 265 1586T334 1658T423 1684Q477 1684 514 1662T594 1600Q622 1574 640 1562T677 1550Q704 1550 719 1562T752 1599Q766 1619
776 1628T802 1637Q825 1637 836 1618T848 1571Q848 1523 828 1476T769 1399T677 1368Q645 1368 613 1388T536 1445Q495 1479 470 1495T421 1511Q392 1511 375 1494T338 1444Q325 1423 317 1413T298 1403Q274 1403 256 1426Z" />
<glyph unicode="&#xd2;" glyph-name="Ograve" horiz-adv-x="1248" d="M803 1221T909 1147T1069 933T1123 598Q1123 419 1054 277T868 56T619 -23Q486 -23 370 69T184 305T115 590Q118 808 193 949T388 1156T651 1221Q803 1221 909 1147ZM714 169T803 218T947 363T1002
592Q1002 725 959 825T840 979T666 1033Q556 1033 459 987T303 847T243 619Q243 512 295 407T432 236T610 169Q714 169 803 218ZM454 1674T474 1694T530 1714Q558 1714 600 1689T708 1617Q774 1571 804 1553Q836 1532 855 1508T874 1451Q874 1423 865 1409T843
1389T831 1385Q794 1385 700 1422T530 1516T454 1630Q454 1674 474 1694Z" />
<glyph unicode="&#xd3;" glyph-name="Oacute" horiz-adv-x="1248" d="M803 1221T909 1147T1069 933T1123 598Q1123 419 1054 277T868 56T619 -23Q486 -23 370 69T184 305T115 590Q118 808 193 949T388 1156T651 1221Q803 1221 909 1147ZM714 169T803 218T947 363T1002
592Q1002 725 959 825T840 979T666 1033Q556 1033 459 987T303 847T243 619Q243 512 295 407T432 236T610 169Q714 169 803 218ZM530 1484T548 1508T598 1553Q645 1582 692 1616Q762 1665 804 1689T874 1714Q907 1714 926 1694T946 1630Q946 1572 871 1516T702
1423T570 1385Q570 1383 559 1388T539 1408T530 1451Q530 1484 548 1508Z" />
<glyph unicode="&#xd4;" glyph-name="Ocircumflex" horiz-adv-x="1248" d="M803 1221T909 1147T1069 933T1123 598Q1123 419 1054 277T868 56T619 -23Q486 -23 370 69T184 305T115 590Q118 808 193 949T388 1156T651 1221Q803 1221 909 1147ZM714 169T803 218T947
363T1002 592Q1002 725 959 825T840 979T666 1033Q556 1033 459 987T303 847T243 619Q243 512 295 407T432 236T610 169Q714 169 803 218ZM610 1556T555 1514T443 1448T342 1423Q319 1423 299 1449T278 1511Q278 1551 298 1582T342 1616Q377 1621 417 1642T519
1701Q574 1734 604 1749T655 1765Q688 1763 714 1742Q789 1666 894 1635Q922 1623 936 1615T961 1593T972 1556Q972 1520 962 1492T936 1449T905 1433Q856 1433 781 1488T652 1608Q610 1556 555 1514Z" />
<glyph unicode="&#xd5;" glyph-name="Otilde" horiz-adv-x="1248" d="M803 1221T909 1147T1069 933T1123 598Q1123 419 1054 277T868 56T619 -23Q486 -23 370 69T184 305T115 590Q118 808 193 949T388 1156T651 1221Q803 1221 909 1147ZM714 169T803 218T947 363T1002
592Q1002 725 959 825T840 979T666 1033Q556 1033 459 987T303 847T243 619Q243 512 295 407T432 236T610 169Q714 169 803 218ZM372 1403T354 1426T336 1486Q336 1541 363 1586T432 1658T521 1684Q575 1684 612 1662T692 1600Q720 1574 738 1562T775 1550Q802
1550 817 1562T850 1599Q864 1619 874 1628T900 1637Q923 1637 934 1618T946 1571Q946 1523 926 1476T867 1399T775 1368Q743 1368 711 1388T634 1445Q593 1479 568 1495T519 1511Q490 1511 473 1494T436 1444Q423 1423 415 1413T396 1403Q372 1403 354 1426Z"
/>
<glyph unicode="&#xd6;" glyph-name="Odieresis" horiz-adv-x="1248" d="M803 1221T909 1147T1069 933T1123 598Q1123 419 1054 277T868 56T619 -23Q486 -23 370 69T184 305T115 590Q118 808 193 949T388 1156T651 1221Q803 1221 909 1147ZM714 169T803 218T947
363T1002 592Q1002 725 959 825T840 979T666 1033Q556 1033 459 987T303 847T243 619Q243 512 295 407T432 236T610 169Q714 169 803 218ZM533 1673T552 1640T572 1546Q572 1493 558 1456T524 1401T486 1383Q436 1383 413 1420T390 1530Q390 1566 410 1599T459
1652T507 1673Q533 1673 552 1640ZM932 1490T917 1458T880 1405T837 1383Q797 1383 772 1419T746 1511Q746 1549 760 1586T798 1647T852 1671Q894 1671 913 1623T932 1521Q932 1490 917 1458Z" />
<glyph unicode="&#xd8;" glyph-name="Oslash" horiz-adv-x="1184" d="M532 -23T465 -2T337 50Q315 3 289 -31T238 -66Q225 -66 204 -48T166 -3T150 49Q150 56 155 71T163 91L218 183Q159 266 118 381T76 595Q76 811 153 951T354 1156T619 1221Q732 1221 860 1157Q863
1157 865 1156T871 1154L899 1183Q906 1189 923 1205T954 1232T977 1243Q1002 1243 1024 1221T1047 1159Q1047 1133 1041 1113T1025 1083L987 1035Q1040 952 1071 839T1102 595Q1102 418 1031 277T840 56T586 -23Q532 -23 465 -2ZM420 497Q637 840 750 998Q724
1013 697 1019T633 1025Q524 1025 429 979T276 841T218 616Q218 546 245 472T319 339L420 497ZM681 175T769 225T910 371T963 602Q963 684 938 765T874 899Q800 814 681 621L523 364Q492 313 462 261L437 218Q463 197 501 186T578 175Q681 175 769 225Z" />
<glyph unicode="&#xd9;" glyph-name="Ugrave" horiz-adv-x="1050" d="M904 31T881 10T818 -12Q783 -12 766 21T747 132Q711 81 660 46T555 -8T458 -26Q283 -26 214 156T144 598V629Q144 846 168 1031T268 1216Q322 1216 322 1128Q322 1070 313 982T303 878Q284
705 284 635Q284 432 323 298T481 163Q593 163 663 223T740 391L771 894Q776 1019 789 1092T826 1198T884 1231Q907 1231 922 1197T938 1111Q938 1105 937 1101T936 1094L932 1052Q912 959 898 776T884 413Q884 352 889 288T895 213Q904 116 904 67Q904 31 881
10ZM350 1674T370 1694T426 1714Q454 1714 496 1689T604 1617Q670 1571 700 1553Q732 1532 751 1508T770 1451Q770 1423 761 1409T739 1389T727 1385Q690 1385 596 1422T426 1516T350 1630Q350 1674 370 1694Z" />
<glyph unicode="&#xda;" glyph-name="Uacute" horiz-adv-x="1050" d="M904 31T881 10T818 -12Q783 -12 766 21T747 132Q711 81 660 46T555 -8T458 -26Q283 -26 214 156T144 598V629Q144 846 168 1031T268 1216Q322 1216 322 1128Q322 1070 313 982T303 878Q284
705 284 635Q284 432 323 298T481 163Q593 163 663 223T740 391L771 894Q776 1019 789 1092T826 1198T884 1231Q907 1231 922 1197T938 1111Q938 1105 937 1101T936 1094L932 1052Q912 959 898 776T884 413Q884 352 889 288T895 213Q904 116 904 67Q904 31 881
10ZM426 1484T444 1508T494 1553Q541 1582 588 1616Q658 1665 700 1689T770 1714Q803 1714 822 1694T842 1630Q842 1572 767 1516T598 1423T466 1385Q466 1383 455 1388T435 1408T426 1451Q426 1484 444 1508Z" />
<glyph unicode="&#xdb;" glyph-name="Ucircumflex" horiz-adv-x="1050" d="M904 31T881 10T818 -12Q783 -12 766 21T747 132Q711 81 660 46T555 -8T458 -26Q283 -26 214 156T144 598V629Q144 846 168 1031T268 1216Q322 1216 322 1128Q322 1070 313 982T303 878Q284
705 284 635Q284 432 323 298T481 163Q593 163 663 223T740 391L771 894Q776 1019 789 1092T826 1198T884 1231Q907 1231 922 1197T938 1111Q938 1105 937 1101T936 1094L932 1052Q912 959 898 776T884 413Q884 352 889 288T895 213Q904 116 904 67Q904 31 881
10ZM506 1556T451 1514T339 1448T238 1423Q215 1423 195 1449T174 1511Q174 1551 194 1582T238 1616Q273 1621 313 1642T415 1701Q470 1734 500 1749T551 1765Q584 1763 610 1742Q685 1666 790 1635Q818 1623 832 1615T857 1593T868 1556Q868 1520 858 1492T832
1449T801 1433Q752 1433 677 1488T548 1608Q506 1556 451 1514Z" />
<glyph unicode="&#xdc;" glyph-name="Udieresis" horiz-adv-x="1050" d="M904 31T881 10T818 -12Q783 -12 766 21T747 132Q711 81 660 46T555 -8T458 -26Q283 -26 214 156T144 598V629Q144 846 168 1031T268 1216Q322 1216 322 1128Q322 1070 313 982T303 878Q284
705 284 635Q284 432 323 298T481 163Q593 163 663 223T740 391L771 894Q776 1019 789 1092T826 1198T884 1231Q907 1231 922 1197T938 1111Q938 1105 937 1101T936 1094L932 1052Q912 959 898 776T884 413Q884 352 889 288T895 213Q904 116 904 67Q904 31 881
10ZM429 1673T448 1640T468 1546Q468 1493 454 1456T420 1401T382 1383Q332 1383 309 1420T286 1530Q286 1566 306 1599T355 1652T403 1673Q429 1673 448 1640ZM828 1490T813 1458T776 1405T733 1383Q693 1383 668 1419T642 1511Q642 1549 656 1586T694 1647T748
1671Q790 1671 809 1623T828 1521Q828 1490 813 1458Z" />
<glyph unicode="&#xdd;" glyph-name="Yacute" horiz-adv-x="798" d="M310 381T320 400T334 427Q334 433 331 445T322 463Q291 510 213 651T70 932T5 1129Q5 1163 23 1189T63 1216Q80 1216 92 1206T122 1164Q141 1132 227 964Q283 855 341 743T427 590L515 769L575
897Q626 1009 660 1075T730 1186T802 1231Q824 1231 836 1207T849 1147Q849 1140 845 1129T832 1103Q806 1053 788 1013Q751 923 606 624Q492 386 436 266T347 58Q342 36 324 4T292 -29Q280 -29 259 -13T222 26T205 74Q207 128 234 210T301 364Q310 381 320 400ZM329
1466T347 1490T397 1535Q444 1564 491 1598Q561 1647 603 1671T673 1696Q706 1696 725 1676T745 1612Q745 1554 670 1498T501 1405T369 1367Q369 1365 358 1370T338 1390T329 1433Q329 1466 347 1490Z" />
<glyph unicode="&#xde;" glyph-name="Thorn" horiz-adv-x="968" d="M289 202T295 142Q301 76 301 45Q301 2 276 -13T223 -29Q178 -29 161 0T144 99L159 1114Q159 1182 178 1215T238 1248Q268 1248 286 1240T305 1216L303 955Q332 960 348 965Q410 978 443 983T515
988Q703 988 798 910T894 679Q894 559 865 488T802 384Q767 348 691 311T524 248T356 223L289 225Q289 202 295 142ZM299 448Q348 423 399 423Q555 423 654 469T753 625Q753 711 698 754T521 798Q454 798 386 789T299 760V448Z" />
<glyph unicode="&#xdf;" glyph-name="germandbls" horiz-adv-x="1033" d="M290 45T285 20T266 -15T225 -25Q169 -25 150 8T132 119L139 448Q134 521 134 689Q138 880 184 1021T318 1239T535 1317Q605 1317 664 1284T757 1193T792 1068Q792 953 726 871T578 739T495
696Q495 688 515 683T584 669Q692 652 774 626T922 537T988 364Q988 239 935 153T797 23T619 -20Q542 -20 482 7T389 82T356 184Q356 235 376 274T427 313Q455 313 476 291T497 212Q497 175 645 175Q686 175 735 194T818 252T853 344Q853 374 829 393T768 422T663
445Q564 464 502 484T394 552T349 681Q349 751 373 795T433 862T526 911Q573 932 600 948T646 993T664 1064Q664 1095 626 1111T532 1128Q375 1128 323 990T270 679Q285 210 288 154T292 95Q290 45 285 20Z" />
<glyph unicode="&#xe0;" glyph-name="agrave" horiz-adv-x="1021" d="M1021 218T1034 198T1048 134Q1048 100 1029 66T977 10T904 -12Q865 -12 826 16T761 91T736 187Q661 92 581 35T409 -23Q326 -23 241 31T100 176T45 374Q45 517 110 654T284 877T521 963Q617
963 699 905T830 756T879 570Q879 530 873 490T866 440Q858 393 854 357T850 279Q850 220 867 195T920 169Q929 169 938 176T961 196Q963 198 972 206T990 218Q1021 218 1034 198ZM558 169T622 234T709 382T753 600Q753 631 716 671T628 740T535 769Q432 769 351
712T226 564T181 381Q181 320 219 272T317 196T441 169Q558 169 622 234ZM239 1393T259 1417T312 1442Q348 1442 381 1405T464 1294Q491 1254 507 1232T540 1193Q568 1168 582 1147T596 1092V1063Q596 1028 587 1013T548 998Q509 998 437 1073T302 1237T239 1349Q239
1393 259 1417Z" />
<glyph unicode="&#xe1;" glyph-name="aacute" horiz-adv-x="1021" d="M1021 218T1034 198T1048 134Q1048 100 1029 66T977 10T904 -12Q865 -12 826 16T761 91T736 187Q661 92 581 35T409 -23Q326 -23 241 31T100 176T45 374Q45 517 110 654T284 877T521 963Q617
963 699 905T830 756T879 570Q879 530 873 490T866 440Q858 393 854 357T850 279Q850 220 867 195T920 169Q929 169 938 176T961 196Q963 198 972 206T990 218Q1021 218 1034 198ZM558 169T622 234T709 382T753 600Q753 631 716 671T628 740T535 769Q432 769 351
712T226 564T181 381Q181 320 219 272T317 196T441 169Q558 169 622 234ZM496 1162Q496 1196 510 1217T553 1263Q569 1279 589 1307T629 1363Q677 1436 711 1474T783 1512Q814 1512 835 1487T856 1419Q856 1396 794 1307T658 1143T546 1068Q516 1068 506 1083T496
1133V1162Z" />
<glyph unicode="&#xe2;" glyph-name="acircumflex" horiz-adv-x="1021" d="M1021 218T1034 198T1048 134Q1048 100 1029 66T977 10T904 -12Q865 -12 826 16T761 91T736 187Q661 92 581 35T409 -23Q326 -23 241 31T100 176T45 374Q45 517 110 654T284 877T521 963Q617
963 699 905T830 756T879 570Q879 530 873 490T866 440Q858 393 854 357T850 279Q850 220 867 195T920 169Q929 169 938 176T961 196Q963 198 972 206T990 218Q1021 218 1034 198ZM558 169T622 234T709 382T753 600Q753 631 716 671T628 740T535 769Q432 769 351
712T226 564T181 381Q181 320 219 272T317 196T441 169Q558 169 622 234ZM171 1121T152 1138T132 1205Q132 1231 147 1250T181 1280L266 1351Q364 1434 419 1473T515 1512Q545 1512 575 1487T649 1414L672 1388Q685 1373 734 1332Q791 1283 821 1251T852 1195Q852
1159 823 1132T752 1105Q733 1105 708 1134T638 1224Q592 1287 562 1323T501 1377Q482 1364 455 1336T400 1278Q329 1200 284 1161T202 1121Q171 1121 152 1138Z" />
<glyph unicode="&#xe3;" glyph-name="atilde" horiz-adv-x="1021" d="M1021 218T1034 198T1048 134Q1048 100 1029 66T977 10T904 -12Q865 -12 826 16T761 91T736 187Q661 92 581 35T409 -23Q326 -23 241 31T100 176T45 374Q45 517 110 654T284 877T521 963Q617
963 699 905T830 756T879 570Q879 530 873 490T866 440Q858 393 854 357T850 279Q850 220 867 195T920 169Q929 169 938 176T961 196Q963 198 972 206T990 218Q1021 218 1034 198ZM558 169T622 234T709 382T753 600Q753 631 716 671T628 740T535 769Q432 769 351
712T226 564T181 381Q181 320 219 272T317 196T441 169Q558 169 622 234ZM244 1232T226 1254T208 1313Q208 1368 235 1413T304 1485T393 1512Q447 1512 485 1490T564 1427Q592 1401 610 1389T647 1377Q674 1377 689 1389T722 1426Q736 1446 746 1454T772 1463Q795
1463 806 1445T818 1398Q818 1350 798 1304T739 1227T647 1197Q615 1197 583 1216T506 1273Q464 1307 440 1322T391 1338Q362 1338 345 1321T308 1272Q295 1251 287 1242T268 1232Q244 1232 226 1254Z" />
<glyph unicode="&#xe4;" glyph-name="adieresis" horiz-adv-x="1021" d="M1021 218T1034 198T1048 134Q1048 100 1029 66T977 10T904 -12Q865 -12 826 16T761 91T736 187Q661 92 581 35T409 -23Q326 -23 241 31T100 176T45 374Q45 517 110 654T284 877T521 963Q617
963 699 905T830 756T879 570Q879 530 873 490T866 440Q858 393 854 357T850 279Q850 220 867 195T920 169Q929 169 938 176T961 196Q963 198 972 206T990 218Q1021 218 1034 198ZM558 169T622 234T709 382T753 600Q753 631 716 671T628 740T535 769Q432 769 351
712T226 564T181 381Q181 320 219 272T317 196T441 169Q558 169 622 234ZM401 1543T420 1510T440 1416Q440 1363 426 1326T392 1271T354 1253Q304 1253 281 1290T258 1400Q258 1436 278 1469T327 1522T375 1543Q401 1543 420 1510ZM800 1360T785 1328T748 1275T705
1253Q665 1253 640 1289T614 1381Q614 1419 628 1456T666 1517T720 1541Q762 1541 781 1493T800 1391Q800 1360 785 1328Z" />
<glyph unicode="&#xe5;" glyph-name="aring" horiz-adv-x="1021" d="M1021 218T1034 198T1048 134Q1048 100 1029 66T977 10T904 -12Q865 -12 826 16T761 91T736 187Q661 92 581 35T409 -23Q326 -23 241 31T100 176T45 374Q45 517 110 654T284 877T521 963Q617
963 699 905T830 756T879 570Q879 530 873 490T866 440Q858 393 854 357T850 279Q850 220 867 195T920 169Q929 169 938 176T961 196Q963 198 972 206T990 218Q1021 218 1034 198ZM558 169T622 234T709 382T753 600Q753 631 716 671T628 740T535 769Q432 769 351
712T226 564T181 381Q181 320 219 272T317 196T441 169Q558 169 622 234ZM757 1390T722 1326T633 1220T528 1178Q471 1178 419 1211T336 1300T304 1418Q304 1456 342 1529T435 1659T538 1716Q560 1716 571 1712T590 1692T604 1643Q612 1636 633 1630Q682 1620 719
1573T757 1449Q757 1390 722 1326ZM587 1334T606 1350T640 1392T654 1443Q654 1464 615 1488T528 1532T463 1551Q453 1551 442 1530T423 1481T414 1441Q414 1422 441 1397T505 1353T572 1334Q587 1334 606 1350Z" />
<glyph unicode="&#xe6;" glyph-name="ae" horiz-adv-x="1646" d="M1504 258T1521 237T1538 165Q1538 72 1403 41T1138 10Q1042 10 957 63T819 206Q761 110 659 45T400 -20Q302 -20 229 21T118 132T79 289Q79 455 166 540T450 625Q639 625 736 539Q732 645 686
698T579 766T441 781Q393 781 353 774T287 753L258 740Q251 737 230 727T195 716Q150 716 133 737T116 818Q116 875 178 907T324 952T481 965Q596 965 681 912T812 756Q865 871 963 932T1202 994Q1279 994 1356 956T1482 845T1532 676Q1532 624 1519 601T1471 570Q1464
567 1429 556Q1220 488 884 368Q917 265 1010 229T1209 192Q1246 192 1282 202T1372 232Q1407 245 1428 251T1465 258Q1504 258 1521 237ZM934 753T875 511Q961 554 1056 593T1311 693Q1342 704 1394 724Q1375 762 1334 790T1236 818Q1214 818 1178 812Q934 753
875 511ZM498 160T559 184T664 244T732 317Q723 382 639 411T450 441Q333 441 268 406T200 297Q200 262 226 231T304 180T427 160Q498 160 559 184Z" />
<glyph unicode="&#xe7;" glyph-name="ccedilla" horiz-adv-x="875" d="M728 225T746 213T778 174T792 105Q792 83 778 58T745 15T710 -2H651Q616 -2 552 -6L495 -9L492 -26Q495 -47 506 -66T540 -115Q574 -160 592 -197T610 -282Q610 -403 561 -449T420 -495Q388
-495 340 -480T253 -431T215 -342Q215 -315 223 -294T242 -260T265 -248Q275 -252 287 -259T306 -271Q341 -293 368 -304T430 -315Q457 -315 470 -310T484 -289Q484 -283 475 -271T463 -254Q426 -202 403 -154T380 -41Q380 -20 382 -6Q74 26 74 364Q74 528 127
663T284 878T528 958Q598 958 657 924T752 829T788 694Q788 659 777 623T743 586Q726 586 714 599T683 640Q661 674 641 697T584 738T495 755Q413 755 347 708T245 584T208 423Q208 325 245 273T357 201T563 181Q591 181 611 186T657 204Q690 220 715 225Q728 225
746 213Z" />
<glyph unicode="&#xe8;" glyph-name="egrave" horiz-adv-x="958" d="M837 229T855 206T874 134Q874 40 739 10T471 -20Q372 -20 280 37T131 194T74 411Q74 577 127 705T283 908T526 985Q481 1004 414 1078T294 1231T241 1330Q241 1374 261 1398T314 1423Q350 1423
383 1386T466 1275Q493 1235 509 1213T542 1174Q570 1149 584 1128T598 1073V1044Q598 1018 594 1004T575 983Q648 975 715 935T824 826T866 664Q866 613 851 579T810 535L205 319Q236 220 331 190T542 160Q580 160 618 171T708 202Q741 215 762 222T800 229Q837
229 855 206ZM270 492T366 530T612 630Q713 672 750 686Q723 744 659 771T511 798Q464 798 395 763T268 653T195 471Q270 492 366 530Z" />
<glyph unicode="&#xe9;" glyph-name="eacute" horiz-adv-x="958" d="M837 229T855 206T874 134Q874 40 739 10T471 -20Q372 -20 280 37T131 194T74 411Q74 580 129 710T289 912T540 985Q617 985 692 947T817 836T866 664Q866 613 851 579T810 535L205 319Q236
220 331 190T542 160Q580 160 618 171T708 202Q741 215 762 222T800 229Q837 229 855 206ZM270 492T366 530T612 630Q713 672 750 686Q723 744 659 771T511 798Q464 798 395 763T268 653T195 471Q270 492 366 530ZM401 1122Q401 1156 415 1177T458 1223Q474 1239
494 1267T534 1323Q582 1396 616 1434T688 1472Q719 1472 740 1447T761 1379Q761 1356 699 1267T563 1103T451 1028Q421 1028 411 1043T401 1093V1122Z" />
<glyph unicode="&#xea;" glyph-name="ecircumflex" horiz-adv-x="958" d="M837 229T855 206T874 134Q874 40 739 10T471 -20Q372 -20 280 37T131 194T74 411Q74 580 129 710T289 912T540 985Q617 985 692 947T817 836T866 664Q866 613 851 579T810 535L205 319Q236
220 331 190T542 160Q580 160 618 171T708 202Q741 215 762 222T800 229Q837 229 855 206ZM270 492T366 530T612 630Q713 672 750 686Q723 744 659 771T511 798Q464 798 395 763T268 653T195 471Q270 492 366 530ZM142 1170T123 1187T103 1254Q103 1280 118 1299T152
1329L237 1400Q335 1483 390 1522T486 1561Q516 1561 546 1536T620 1463L643 1437Q656 1422 705 1381Q762 1332 792 1300T823 1244Q823 1208 794 1181T723 1154Q704 1154 679 1183T609 1273Q563 1336 533 1372T472 1426Q453 1413 426 1385T371 1327Q300 1249 255
1210T173 1170Q142 1170 123 1187Z" />
<glyph unicode="&#xeb;" glyph-name="edieresis" horiz-adv-x="958" d="M837 229T855 206T874 134Q874 40 739 10T471 -20Q372 -20 280 37T131 194T74 411Q74 580 129 710T289 912T540 985Q617 985 692 947T817 836T866 664Q866 613 851 579T810 535L205 319Q236
220 331 190T542 160Q580 160 618 171T708 202Q741 215 762 222T800 229Q837 229 855 206ZM270 492T366 530T612 630Q713 672 750 686Q723 744 659 771T511 798Q464 798 395 763T268 653T195 471Q270 492 366 530ZM372 1592T391 1559T411 1465Q411 1412 397 1375T363
1320T325 1302Q275 1302 252 1339T229 1449Q229 1485 249 1518T298 1571T346 1592Q372 1592 391 1559ZM771 1409T756 1377T719 1324T676 1302Q636 1302 611 1338T585 1430Q585 1468 599 1505T637 1566T691 1590Q733 1590 752 1542T771 1440Q771 1409 756 1377Z"
/>
<glyph unicode="&#xec;" glyph-name="igrave" horiz-adv-x="400" d="M293 35T272 6T225 -23Q188 -23 167 0T134 79Q126 127 126 284Q126 544 146 755T240 967Q270 967 279 941T289 864L281 724Q276 653 272 575T268 436Q268 371 281 254Q293 132 293 85Q293 35
272 6ZM-64 1649T-44 1673T9 1698Q45 1698 78 1661T161 1550Q188 1510 204 1488T237 1449Q265 1424 279 1403T293 1348V1319Q293 1284 284 1269T245 1254Q206 1254 134 1329T-1 1493T-64 1605Q-64 1649 -44 1673Z" />
<glyph unicode="&#xed;" glyph-name="iacute" horiz-adv-x="400" d="M293 35T272 6T225 -23Q188 -23 167 0T134 79Q126 127 126 284Q126 544 146 755T240 967Q270 967 279 941T289 864L281 724Q276 653 272 575T268 436Q268 371 281 254Q293 132 293 85Q293 35
272 6ZM193 1418Q193 1452 207 1473T250 1519Q266 1535 286 1563T326 1619Q374 1692 408 1730T480 1768Q511 1768 532 1743T553 1675Q553 1652 491 1563T355 1399T243 1324Q213 1324 203 1339T193 1389V1418Z" />
<glyph unicode="&#xee;" glyph-name="icircumflex" horiz-adv-x="400" d="M293 35T272 6T225 -23Q188 -23 167 0T134 79Q126 127 126 284Q126 544 146 755T240 967Q270 967 279 941T289 864L281 724Q276 653 272 575T268 436Q268 371 281 254Q293 132 293 85Q293
35 272 6ZM-132 1121T-151 1138T-171 1205Q-171 1231 -156 1250T-122 1280L-37 1351Q61 1434 116 1473T212 1512Q242 1512 272 1487T346 1414L369 1388Q382 1373 431 1332Q488 1283 518 1251T549 1195Q549 1159 520 1132T449 1105Q430 1105 405 1134T335 1224Q289
1287 259 1323T198 1377Q179 1364 152 1336T97 1278Q26 1200 -19 1161T-101 1121Q-132 1121 -151 1138Z" />
<glyph unicode="&#xef;" glyph-name="idieresis" horiz-adv-x="400" d="M293 35T272 6T225 -23Q188 -23 167 0T134 79Q126 127 126 284Q126 544 146 755T240 967Q270 967 279 941T289 864L281 724Q276 653 272 575T268 436Q268 371 281 254Q293 132 293 85Q293
35 272 6ZM98 1543T117 1510T137 1416Q137 1363 123 1326T89 1271T51 1253Q1 1253 -22 1290T-45 1400Q-45 1436 -25 1469T24 1522T72 1543Q98 1543 117 1510ZM497 1360T482 1328T445 1275T402 1253Q362 1253 337 1289T311 1381Q311 1419 325 1456T363 1517T417
1541Q459 1541 478 1493T497 1391Q497 1360 482 1328Z" />
<glyph unicode="&#xf0;" glyph-name="eth" horiz-adv-x="1005" d="M752 1064T803 951T880 728T907 532Q907 247 794 109T478 -29Q374 -29 282 23T133 172T76 400Q76 532 122 634T251 792T441 849Q500 849 563 818T679 730T757 600Q757 688 700 817T555 1056L499
1004Q454 963 434 946T396 922T359 914Q330 914 317 940T303 998Q303 1036 310 1063T332 1097L465 1152Q347 1257 238 1257Q191 1257 168 1267T137 1295T130 1340Q130 1389 153 1412T232 1436Q425 1436 593 1266Q662 1343 712 1386T804 1429Q822 1429 840 1412T859
1357Q859 1313 845 1285T805 1238T730 1189L683 1160Q752 1064 803 951ZM563 169T614 193T702 258T753 344Q739 429 687 500T566 613T437 655Q353 655 300 615T222 517T198 403Q198 322 245 269T364 193T508 169Q563 169 614 193Z" />
<glyph unicode="&#xf1;" glyph-name="ntilde" horiz-adv-x="1005" d="M775 543T725 659T532 775Q490 775 436 750T330 682T247 586Q247 552 245 472Q243 396 243 367Q243 336 247 307T259 234Q265 202 269 168T274 103Q274 46 261 17T205 -12Q162 -12 136 12T112
109L116 501Q105 643 105 696V726Q105 814 122 887T177 960Q253 960 253 829Q253 808 247 746L244 720Q266 798 324 854T449 938T563 967Q751 967 830 813T909 439Q909 235 890 103T812 -29Q786 -29 770 -23T744 8T734 84Q734 117 739 149T754 229Q765 284 770
316T775 384Q775 543 725 659ZM230 1264T212 1286T194 1345Q194 1400 221 1445T290 1517T379 1544Q433 1544 471 1522T550 1459Q578 1433 596 1421T633 1409Q660 1409 675 1421T708 1458Q722 1478 732 1486T758 1495Q781 1495 792 1477T804 1430Q804 1382 784 1336T725
1259T633 1229Q601 1229 569 1248T492 1305Q450 1339 426 1354T377 1370Q348 1370 331 1353T294 1304Q281 1283 273 1274T254 1264Q230 1264 212 1286Z" />
<glyph unicode="&#xf2;" glyph-name="ograve" horiz-adv-x="968" d="M373 -23T280 51T132 238T76 462Q76 636 136 749T293 913T502 965Q621 965 707 904T838 729T884 462Q884 323 827 212T676 39T478 -23Q373 -23 280 51ZM753 560T724 629T642 736T526 775Q447
775 373 742T252 642T205 483Q205 405 243 331T342 210T468 163Q542 163 607 200T713 306T753 471Q753 560 724 629ZM197 1393T217 1417T270 1442Q306 1442 339 1405T422 1294Q449 1254 465 1232T498 1193Q526 1168 540 1147T554 1092V1063Q554 1028 545 1013T506
998Q467 998 395 1073T260 1237T197 1349Q197 1393 217 1417Z" />
<glyph unicode="&#xf3;" glyph-name="oacute" horiz-adv-x="968" d="M373 -23T280 51T132 238T76 462Q76 636 136 749T293 913T502 965Q621 965 707 904T838 729T884 462Q884 323 827 212T676 39T478 -23Q373 -23 280 51ZM753 560T724 629T642 736T526 775Q447
775 373 742T252 642T205 483Q205 405 243 331T342 210T468 163Q542 163 607 200T713 306T753 471Q753 560 724 629ZM454 1162Q454 1196 468 1217T511 1263Q527 1279 547 1307T587 1363Q635 1436 669 1474T741 1512Q772 1512 793 1487T814 1419Q814 1396 752 1307T616
1143T504 1068Q474 1068 464 1083T454 1133V1162Z" />
<glyph unicode="&#xf4;" glyph-name="ocircumflex" horiz-adv-x="968" d="M373 -23T280 51T132 238T76 462Q76 636 136 749T293 913T502 965Q621 965 707 904T838 729T884 462Q884 323 827 212T676 39T478 -23Q373 -23 280 51ZM753 560T724 629T642 736T526 775Q447
775 373 742T252 642T205 483Q205 405 243 331T342 210T468 163Q542 163 607 200T713 306T753 471Q753 560 724 629ZM129 1121T110 1138T90 1205Q90 1231 105 1250T139 1280L224 1351Q322 1434 377 1473T473 1512Q503 1512 533 1487T607 1414L630 1388Q643 1373
692 1332Q749 1283 779 1251T810 1195Q810 1159 781 1132T710 1105Q691 1105 666 1134T596 1224Q550 1287 520 1323T459 1377Q440 1364 413 1336T358 1278Q287 1200 242 1161T160 1121Q129 1121 110 1138Z" />
<glyph unicode="&#xf5;" glyph-name="otilde" horiz-adv-x="968" d="M373 -23T280 51T132 238T76 462Q76 636 136 749T293 913T502 965Q621 965 707 904T838 729T884 462Q884 323 827 212T676 39T478 -23Q373 -23 280 51ZM753 560T724 629T642 736T526 775Q447
775 373 742T252 642T205 483Q205 405 243 331T342 210T468 163Q542 163 607 200T713 306T753 471Q753 560 724 629ZM202 1232T184 1254T166 1313Q166 1368 193 1413T262 1485T351 1512Q405 1512 443 1490T522 1427Q550 1401 568 1389T605 1377Q632 1377 647 1389T680
1426Q694 1446 704 1454T730 1463Q753 1463 764 1445T776 1398Q776 1350 756 1304T697 1227T605 1197Q573 1197 541 1216T464 1273Q422 1307 398 1322T349 1338Q320 1338 303 1321T266 1272Q253 1251 245 1242T226 1232Q202 1232 184 1254Z" />
<glyph unicode="&#xf6;" glyph-name="odieresis" horiz-adv-x="968" d="M373 -23T280 51T132 238T76 462Q76 636 136 749T293 913T502 965Q621 965 707 904T838 729T884 462Q884 323 827 212T676 39T478 -23Q373 -23 280 51ZM753 560T724 629T642 736T526 775Q447
775 373 742T252 642T205 483Q205 405 243 331T342 210T468 163Q542 163 607 200T713 306T753 471Q753 560 724 629ZM359 1543T378 1510T398 1416Q398 1363 384 1326T350 1271T312 1253Q262 1253 239 1290T216 1400Q216 1436 236 1469T285 1522T333 1543Q359 1543
378 1510ZM758 1360T743 1328T706 1275T663 1253Q623 1253 598 1289T572 1381Q572 1419 586 1456T624 1517T678 1541Q720 1541 739 1493T758 1391Q758 1360 743 1328Z" />
<glyph unicode="&#xf8;" glyph-name="oslash" horiz-adv-x="968" d="M134 226T107 310T79 462Q79 636 139 748T295 912T501 963Q618 963 709 901Q732 931 768 959T831 988Q889 988 889 909Q889 884 882 868T859 836T808 792Q843 728 863 643T884 462Q884 323 827
212T675 39T476 -23Q444 -23 388 -3T289 39Q284 27 267 2T230 -45T193 -66Q151 -66 128 -40T105 29Q105 62 118 86T157 141Q158 142 173 160Q134 226 107 310ZM344 408Q376 462 483 612L517 660L592 767Q582 773 570 774T525 775Q443 775 370 742T251 643T205 481Q205
429 226 375T266 293L344 408ZM638 588T501 379Q390 212 373 187Q425 163 468 163Q541 163 606 199T711 303T753 463Q753 522 739 581T696 666Q638 588 501 379Z" />
<glyph unicode="&#xf9;" glyph-name="ugrave" horiz-adv-x="938" d="M270 848T250 746Q236 671 229 620T222 518Q222 445 237 365T294 224T411 163Q504 163 565 213T681 352Q683 378 692 546L694 596L697 875Q697 918 721 939T771 960Q794 960 812 939T831 881L815
85Q814 29 800 10T751 -10Q721 -10 706 0T683 44T676 149Q676 200 678 232Q661 159 620 99T525 5T421 -29Q224 -29 156 130T88 495Q88 599 100 705T140 886T215 960Q270 960 270 889Q270 848 250 746ZM176 1393T196 1417T249 1442Q285 1442 318 1405T401 1294Q428
1254 444 1232T477 1193Q505 1168 519 1147T533 1092V1063Q533 1028 524 1013T485 998Q446 998 374 1073T239 1237T176 1349Q176 1393 196 1417Z" />
<glyph unicode="&#xfa;" glyph-name="uacute" horiz-adv-x="938" d="M270 848T250 746Q236 671 229 620T222 518Q222 445 237 365T294 224T411 163Q504 163 565 213T681 352Q683 378 692 546L694 596L697 875Q697 918 721 939T771 960Q794 960 812 939T831 881L815
85Q814 29 800 10T751 -10Q721 -10 706 0T683 44T676 149Q676 200 678 232Q661 159 620 99T525 5T421 -29Q224 -29 156 130T88 495Q88 599 100 705T140 886T215 960Q270 960 270 889Q270 848 250 746ZM433 1162Q433 1196 447 1217T490 1263Q506 1279 526 1307T566
1363Q614 1436 648 1474T720 1512Q751 1512 772 1487T793 1419Q793 1396 731 1307T595 1143T483 1068Q453 1068 443 1083T433 1133V1162Z" />
<glyph unicode="&#xfb;" glyph-name="ucircumflex" horiz-adv-x="938" d="M270 848T250 746Q236 671 229 620T222 518Q222 445 237 365T294 224T411 163Q504 163 565 213T681 352Q683 378 692 546L694 596L697 875Q697 918 721 939T771 960Q794 960 812 939T831
881L815 85Q814 29 800 10T751 -10Q721 -10 706 0T683 44T676 149Q676 200 678 232Q661 159 620 99T525 5T421 -29Q224 -29 156 130T88 495Q88 599 100 705T140 886T215 960Q270 960 270 889Q270 848 250 746ZM364 1121T345 1138T325 1205Q325 1231 340 1250T374
1280L459 1351Q557 1434 612 1473T708 1512Q738 1512 768 1487T842 1414L865 1388Q878 1373 927 1332Q984 1283 1014 1251T1045 1195Q1045 1159 1016 1132T945 1105Q926 1105 901 1134T831 1224Q785 1287 755 1323T694 1377Q675 1364 648 1336T593 1278Q522 1200
477 1161T395 1121Q364 1121 345 1138Z" />
<glyph unicode="&#xfc;" glyph-name="udieresis" horiz-adv-x="938" d="M270 848T250 746Q236 671 229 620T222 518Q222 445 237 365T294 224T411 163Q504 163 565 213T681 352Q683 378 692 546L694 596L697 875Q697 918 721 939T771 960Q794 960 812 939T831
881L815 85Q814 29 800 10T751 -10Q721 -10 706 0T683 44T676 149Q676 200 678 232Q661 159 620 99T525 5T421 -29Q224 -29 156 130T88 495Q88 599 100 705T140 886T215 960Q270 960 270 889Q270 848 250 746ZM338 1543T357 1510T377 1416Q377 1363 363 1326T329
1271T291 1253Q241 1253 218 1290T195 1400Q195 1436 215 1469T264 1522T312 1543Q338 1543 357 1510ZM737 1360T722 1328T685 1275T642 1253Q602 1253 577 1289T551 1381Q551 1419 565 1456T603 1517T657 1541Q699 1541 718 1493T737 1391Q737 1360 722 1328Z"
/>
<glyph unicode="&#xfd;" glyph-name="yacute" horiz-adv-x="881" d="M888 968T900 944T913 891Q913 868 902 846T850 757Q846 752 844 748T839 740Q821 712 804 687Q761 622 729 567T660 437Q652 420 580 279Q457 42 384 -123T311 -383Q311 -426 292 -463T243
-501Q227 -501 203 -483T160 -439T142 -392Q143 -339 184 -226T270 -36L351 122Q298 240 153 599L85 767Q75 791 69 817T63 859Q65 908 87 938T142 968Q164 968 175 950T203 885Q249 754 324 565T438 290L736 868Q760 915 795 941T868 968Q888 968 900 944ZM423
1162Q423 1196 437 1217T480 1263Q496 1279 516 1307T556 1363Q604 1436 638 1474T710 1512Q741 1512 762 1487T783 1419Q783 1396 721 1307T585 1143T473 1068Q443 1068 433 1083T423 1133V1162Z" />
<glyph unicode="&#xfe;" glyph-name="thorn" horiz-adv-x="970" d="M298 -10T243 33Q253 -142 253 -273Q253 -325 233 -353T187 -381Q143 -381 122 -353T99 -258L126 1328Q128 1378 132 1404T151 1446T195 1461Q210 1461 226 1451T254 1421T266 1372Q266 1276
259 1022Q258 971 257 931T256 866Q295 912 355 936T472 960Q670 960 764 844T859 492Q859 318 782 205T592 41T368 -10Q298 -10 243 33ZM252 359Q252 340 253 332Q253 263 258 232T277 190T317 179Q333 179 342 180L382 181Q473 181 549 224T671 347T716 528Q716
651 645 710T462 769Q409 769 346 738T253 668V429L252 359Z" />
<glyph unicode="&#xff;" glyph-name="ydieresis" horiz-adv-x="881" d="M888 968T900 944T913 891Q913 868 902 846T850 757Q846 752 844 748T839 740Q821 712 804 687Q761 622 729 567T660 437Q652 420 580 279Q457 42 384 -123T311 -383Q311 -426 292 -463T243
-501Q227 -501 203 -483T160 -439T142 -392Q143 -339 184 -226T270 -36L351 122Q298 240 153 599L85 767Q75 791 69 817T63 859Q65 908 87 938T142 968Q164 968 175 950T203 885Q249 754 324 565T438 290L736 868Q760 915 795 941T868 968Q888 968 900 944ZM328
1543T347 1510T367 1416Q367 1363 353 1326T319 1271T281 1253Q231 1253 208 1290T185 1400Q185 1436 205 1469T254 1522T302 1543Q328 1543 347 1510ZM727 1360T712 1328T675 1275T632 1253Q592 1253 567 1289T541 1381Q541 1419 555 1456T593 1517T647 1541Q689
1541 708 1493T727 1391Q727 1360 712 1328Z" />
</font>
</defs>
</svg>
