<?xml version="1.0" standalone="no"?>
<!DOCTYPE svg PUBLIC "-//W3C//DTD SVG 1.1//EN" "http://www.w3.org/Graphics/SVG/1.1/DTD/svg11.dtd">
<svg xmlns="http://www.w3.org/2000/svg">
<defs >
<font id="Chivo" horiz-adv-x="576" ><font-face
    font-family="Chivo Black"
    units-per-em="1000"
    panose-1="0 0 10 0 0 0 0 0 0 0"
    ascent="940"
    descent="-250"
    alphabetic="0" />
<glyph unicode=" " glyph-name="space" horiz-adv-x="192" />
<glyph unicode="!" glyph-name="exclam" horiz-adv-x="315" d="M336 686L215 231H88V686H336ZM242 183L216 0H25L51 183H242Z" />
<glyph unicode="&quot;" glyph-name="quotedbl" horiz-adv-x="433" d="M247 686L226 539L159 396H98L71 539L92 686H247ZM450 686L429 539L361 396H301L274 539L295 686H450Z" />
<glyph unicode="#" glyph-name="numbersign" horiz-adv-x="661" d="M642 696L570 502H661L646 394H536L493 273H597L582 166H451L392 0H276L335 166H223L165 0H48L106 166H9L24 273H146L191 394H85L100 502H227L297 696H416L345 502H455L525 696H642ZM420 393H306L262
272H375L420 393Z" />
<glyph unicode="$" glyph-name="dollar" horiz-adv-x="608" d="M393 674Q478 668 530 626T583 511Q583 496 580 469H407V475L408 483Q408 505 392 519T341 534Q301 534 281 522T260 490Q260 469 284 457T361 431Q423 413 463 396T532 344T562 252Q562 21 301 21L304
-66H176L203 22Q120 31 68 75T16 194Q16 196 16 214T22 246H197L195 238L193 223Q193 169 269 169Q360 169 360 213Q360 233 338 244T266 269Q205 287 164 305T93 361T63 461Q63 516 91 561T172 636T294 671L291 757H419L393 674Z" />
<glyph unicode="%" glyph-name="percent" horiz-adv-x="715" d="M669 686L155 0H60L576 686H669ZM276 685T306 655T336 580V571Q336 565 335 562L321 460Q312 407 275 372T180 337H158Q111 337 81 367T51 442V451Q51 457 52 460L66 562Q73 615 111 650T207 685H229Q276
685 306 655ZM193 614T180 603T165 575Q146 447 146 442Q146 428 155 419T179 409Q195 409 207 420T221 448L230 510Q234 533 236 555T239 581Q239 595 231 604T208 614Q193 614 180 603ZM619 347T649 317T679 242V233Q679 227 678 224L664 122Q655 69 618 34T523
-1H501Q454 -1 424 29T394 104V113Q394 119 395 122L409 224Q416 277 454 312T550 347H572Q619 347 649 317ZM536 276T523 265T508 237Q489 109 489 104Q489 90 498 81T522 71Q538 71 550 82T564 110L573 172Q577 195 579 217T582 243Q582 257 574 266T551 276Q536
276 523 265Z" />
<glyph unicode="&amp;" glyph-name="ampersand" horiz-adv-x="709" d="M377 696T401 693L380 543Q365 548 352 548Q312 548 291 529T269 475Q269 454 282 438T325 421H446L516 540H653L637 421H717L697 279H617L578 0H259Q149 0 81 38T12 166Q12 243 50 292T160
358Q119 372 98 404T77 479Q77 549 114 598T213 671T351 696Q377 696 401 693ZM305 279Q252 279 233 254T214 199Q214 168 235 153T290 138H399L419 279H305Z" />
<glyph unicode="&apos;" glyph-name="quotesingle" horiz-adv-x="230" d="M247 686L226 539L159 396H98L71 539L92 686H247Z" />
<glyph unicode="(" glyph-name="parenleft" horiz-adv-x="311" d="M268 565T222 429T175 158Q175 72 190 -11T233 -158H125Q73 -88 46 -4T19 174Q19 312 78 447T244 686H352Q268 565 222 429Z" />
<glyph unicode=")" glyph-name="parenright" horiz-adv-x="312" d="M285 544T285 351Q285 213 226 80T60 -158H-48Q35 -41 82 97T129 368Q129 452 114 536T71 686H179Q285 544 285 351Z" />
<glyph unicode="*" glyph-name="asterisk" horiz-adv-x="506" d="M367 686L331 533L487 593L507 483L352 448L436 335L326 265L265 396L169 265L79 335L195 448L53 483L107 593L247 533V686H367Z" />
<glyph unicode="+" glyph-name="plus" horiz-adv-x="615" d="M402 512L375 320H567L550 192H358L331 0H203L230 192H38L55 320H247L274 512H402Z" />
<glyph unicode="," glyph-name="comma" horiz-adv-x="286" d="M224 183L201 22L125 -165H31L91 0H7L33 183H224Z" />
<glyph unicode="-" glyph-name="hyphen" horiz-adv-x="351" d="M311 354L288 196H35L57 354H311Z" />
<glyph unicode="." glyph-name="period" horiz-adv-x="287" d="M224 183L199 0H8L33 183H224Z" />
<glyph unicode="/" glyph-name="slash" horiz-adv-x="541" d="M577 686L88 -171H-44L446 686H577Z" />
<glyph unicode="0" glyph-name="zero" horiz-adv-x="615" d="M449 696T498 668T576 591T604 480Q603 473 603 464T602 446L573 240Q563 170 525 113T426 23T288 -10H243Q182 -10 132 18T54 96T25 205Q25 222 28 240L57 446Q67 520 108 577T210 665T342 696H387Q449
696 498 668ZM311 552T288 533T259 472L223 215Q222 212 222 202Q222 173 239 154T285 135Q322 135 344 157T372 215L409 484Q409 513 391 532T345 552Q311 552 288 533Z" />
<glyph unicode="1" glyph-name="one" horiz-adv-x="615" d="M402 153H548L527 0H33L54 153H206L251 473H99L115 588Q179 592 263 623T411 696H478L402 153Z" />
<glyph unicode="2" glyph-name="two" horiz-adv-x="615" d="M481 696T539 645T597 508Q597 437 563 383T481 292T350 205Q310 181 290 168H553L530 0H-4L1 36Q9 94 32 134T104 209Q155 245 152 243Q270 327 314 362T376 421T393 479Q393 505 376 522T332 540H319Q290
540 267 520T240 470L236 442H60Q65 519 103 576T205 665T350 696H381Q481 696 539 645Z" />
<glyph unicode="3" glyph-name="three" horiz-adv-x="615" d="M446 696T494 675T569 616T596 532Q596 475 563 427T479 359Q524 342 548 307T572 221Q572 149 533 97T428 17T282 -10H240Q128 -10 68 37T7 161Q7 170 9 192L12 209H187Q186 206 186 196Q186 170
203 155T257 139H284Q327 139 351 164T376 231Q376 259 359 274T315 289H211L228 412H316Q348 412 372 433T396 492Q396 516 379 531T335 547H317Q288 547 265 529T238 484H71Q71 545 109 593T211 668T351 696H381Q446 696 494 675Z" />
<glyph unicode="4" glyph-name="four" horiz-adv-x="615" d="M398 646T353 569T251 416T152 298H302L317 400Q348 437 393 512T454 630H537L490 298H588L568 151H470L449 0H261L282 151H3L23 300Q73 374 142 501T234 696H411Q398 646 353 569Z" />
<glyph unicode="5" glyph-name="five" horiz-adv-x="615" d="M560 516H269L246 414Q309 459 380 459Q470 459 521 409T573 269Q573 189 534 125T427 26T277 -10H247Q175 -10 123 16T44 87T17 191V208Q17 214 19 224H195Q194 221 194 213Q194 184 214 164T264 144H281Q317
144 346 171T375 246Q375 275 355 295T305 315H291Q269 315 255 308T231 293T215 281L61 303L143 686H583L560 516Z" />
<glyph unicode="6" glyph-name="six" horiz-adv-x="615" d="M474 696T534 646T594 505Q594 486 591 466H413L414 487Q413 513 396 529T353 546H347Q316 546 290 524T259 471L247 385Q276 411 312 424T380 437Q468 437 522 393T577 265Q577 182 537 120T429 24T283
-10H255Q189 -10 138 18T57 95T28 208Q28 234 59 446Q68 516 111 573T218 663T354 696H382Q474 696 534 646ZM313 321Q283 321 258 299T228 246L222 205Q221 203 221 199V194Q221 167 239 149T287 130H293Q324 130 350 152T378 205L385 256Q385 286 367 303T319
321H313Z" />
<glyph unicode="7" glyph-name="seven" horiz-adv-x="615" d="M612 595Q491 454 415 326T318 59L309 0H87Q105 130 184 255T384 514H92L116 686H625L612 595Z" />
<glyph unicode="8" glyph-name="eight" horiz-adv-x="615" d="M460 696T522 651T584 524Q584 460 558 422T484 351L483 347Q524 320 544 291T564 218Q564 162 535 111T439 25T264 -10Q152 -10 87 34T21 161Q21 230 53 272T146 347L147 351Q117 376 102 400T87
464Q87 535 125 588T226 668T363 696Q460 696 522 651ZM316 566T293 546T265 496L262 473Q261 470 261 462Q261 436 278 420T323 403Q352 403 376 423T403 473L406 505Q406 532 389 549T345 566Q316 566 293 546ZM278 295T255 275T227 225L222 192Q221 190 221
182Q221 156 238 139T283 122Q313 122 335 142T363 192L368 234Q368 261 351 278T307 295Q278 295 255 275Z" />
<glyph unicode="9" glyph-name="nine" horiz-adv-x="615" d="M439 696T490 668T571 591T600 480Q600 452 569 240Q559 168 519 111T416 22T274 -10H246Q153 -10 94 39T34 181Q34 199 37 220H215Q214 217 214 212V200Q214 176 231 158T275 140H281Q318 140 340
161T369 215L381 301Q352 275 316 262T248 249Q160 249 105 293T50 421Q50 500 91 563T200 661T345 696H373Q439 696 490 668ZM335 556Q305 556 280 534T250 481L245 447Q245 446 244 441T243 429Q243 402 261 384T309 365H315Q345 365 370 387T400 440L407 491Q407
519 388 537T341 556H335Z" />
<glyph unicode=":" glyph-name="colon" horiz-adv-x="308" d="M280 511L255 328H64L89 511H280ZM234 183L209 0H18L43 183H234Z" />
<glyph unicode=";" glyph-name="semicolon" horiz-adv-x="307" d="M280 511L254 328H63L89 511H280ZM234 183L211 22L135 -165H41L101 0H17L43 183H234Z" />
<glyph unicode="&lt;" glyph-name="less" horiz-adv-x="615" d="M586 521L566 382L200 254L531 127L511 -11L30 185L49 324L586 521Z" />
<glyph unicode="=" glyph-name="equal" horiz-adv-x="615" d="M583 429L565 301H53L71 429H583ZM552 209L534 81H22L40 209H552Z" />
<glyph unicode="&gt;" glyph-name="greater" horiz-adv-x="615" d="M94 521L575 324L556 185L19 -11L39 127L404 254L74 382L94 521Z" />
<glyph unicode="?" glyph-name="question" horiz-adv-x="583" d="M428 696T476 673T553 607T582 509Q582 455 560 415T508 349T435 297Q404 277 390 265T375 240L372 218H201L210 277Q214 302 232 323T286 376Q327 411 348 437T370 498Q370 523 355 540T313 558Q282
558 265 542T242 504T233 447H49Q49 466 52 485Q62 549 101 597T201 670T332 696H370Q428 696 476 673ZM382 183L357 0H166L191 183H382Z" />
<glyph unicode="@" glyph-name="at" horiz-adv-x="907" d="M693 697T790 623T888 395Q888 260 846 176T743 57T622 22Q525 22 504 99Q469 64 430 44T339 23Q274 23 231 53T187 149Q187 253 273 291T527 329L529 343Q531 359 531 366Q531 388 516 400T477 412Q455
412 434 400T411 368L410 364H232Q232 406 263 442T351 499T478 521H509Q610 521 661 485T713 389V379Q713 372 712 369L684 171Q684 153 692 145T712 136Q737 136 761 168T800 257T815 386Q815 513 736 574T517 636Q394 636 299 585T150 429T96 172Q96 39 165
-26T380 -92Q417 -92 470 -83T550 -60L541 -126Q509 -137 458 -145T372 -153Q204 -153 114 -74T23 167Q23 213 30 262Q52 414 123 511T298 652T526 697Q693 697 790 623ZM448 243T417 224T385 172Q385 136 435 136Q461 136 483 155T509 202L514 243Q448 243 417
224Z" />
<glyph unicode="A" glyph-name="A" horiz-adv-x="709" d="M542 686L674 0H456L432 122H214L157 0H-44L281 686H542ZM376 475H371L283 267H405L376 475Z" />
<glyph unicode="B" glyph-name="B" horiz-adv-x="656" d="M534 686T570 667T626 614T646 540Q646 461 607 418T508 358L507 354Q616 327 616 218Q616 163 589 113T513 31T398 0H16L113 686H489Q534 686 570 667ZM285 540L269 423H384Q404 423 422 438T441 473L443
497Q443 516 431 528T400 540H285ZM248 277L232 159H359Q379 159 397 174T416 209L418 234Q418 253 406 265T375 277H248Z" />
<glyph unicode="C" glyph-name="C" horiz-adv-x="684" d="M540 696T609 635T679 460Q679 430 675 405H478L483 440Q484 443 484 448V457Q484 495 460 517T397 540H392Q343 540 314 512T278 440L251 247Q250 245 250 240V233Q250 196 274 172T337 147H351Q449 147
465 247L470 280H658Q638 144 554 67T335 -10H307Q226 -10 163 20T63 106T27 242Q27 253 31 289T46 396Q58 485 107 553T232 658T398 696H426Q540 696 609 635Z" />
<glyph unicode="D" glyph-name="D" horiz-adv-x="697" d="M497 686T556 652T649 559T683 428Q683 407 680 386L667 300Q654 215 610 147T492 40T325 0H16L113 686H422Q497 686 556 652ZM303 530L251 159H328Q377 159 406 187T442 259L467 443Q467 480 443 505T380
530H303Z" />
<glyph unicode="E" glyph-name="E" horiz-adv-x="600" d="M628 686L586 528H297L282 428H560L539 275H261L245 164H531V0H16L113 686H628Z" />
<glyph unicode="F" glyph-name="F" horiz-adv-x="563" d="M609 686L566 523H295L279 411H531L509 257H257L221 0H16L113 686H609Z" />
<glyph unicode="G" glyph-name="G" horiz-adv-x="699" d="M504 696T559 669T647 592T680 479Q680 468 678 446L677 439H483Q484 442 484 449V459Q484 500 460 520T397 540H392Q345 540 315 512T278 440L251 247Q250 244 250 240V233Q250 196 274 172T337 147H355Q397
147 423 173T456 248H340L359 384H669L636 144Q622 62 622 0H510L493 73Q451 33 403 12T285 -10H275Q202 -10 146 23T59 114T28 244Q28 266 31 290L46 396Q58 480 104 548T228 656T407 696H435Q504 696 559 669Z" />
<glyph unicode="H" glyph-name="H" horiz-adv-x="697" d="M696 686L599 0H389L427 267H265L227 0H16L113 686H323L287 433H449L485 686H696Z" />
<glyph unicode="I" glyph-name="I" horiz-adv-x="446" d="M466 686L445 539H364L309 148H390L369 0H-5L16 148H97L152 539H71L92 686H466Z" />
<glyph unicode="J" glyph-name="J" horiz-adv-x="543" d="M473 180Q459 89 390 40T217 -10H186Q93 -10 42 31T-9 147V158Q-9 177 3 248H195L190 216Q185 188 185 178Q185 161 195 151T221 140Q239 140 252 152T269 186L339 686H544L473 180Z" />
<glyph unicode="K" glyph-name="K" horiz-adv-x="684" d="M745 686L497 411L654 0H419L335 248L242 152L220 0H16L113 686H317L279 415L513 686H745Z" />
<glyph unicode="L" glyph-name="L" horiz-adv-x="540" d="M325 686L252 168H497V0H16L113 686H325Z" />
<glyph unicode="M" glyph-name="M" horiz-adv-x="1004" d="M1003 686L906 0H696L758 440H754L572 0H331L274 440H269L207 0H16L113 686H457L504 320H508L657 686H1003Z" />
<glyph unicode="N" glyph-name="N" horiz-adv-x="696" d="M598 0H418L282 246Q276 254 265 278L252 304L209 0H16L113 686H289L429 431L457 375L501 686H695L598 0Z" />
<glyph unicode="O" glyph-name="O" horiz-adv-x="719" d="M519 694T578 660T671 567T705 436Q705 422 704 410T699 377L687 290Q675 206 629 138T510 30T345 -10H289Q214 -10 155 24T62 117T28 248Q28 261 29 275T33 306T37 334Q40 348 42 363T46 394Q58 477 104
545T223 654T388 694H444Q519 694 578 660ZM392 540Q343 540 314 512T278 440L251 247Q250 245 250 240V233Q250 196 274 172T337 147H342Q391 147 420 175T456 247L483 440Q484 443 484 454Q484 490 460 515T397 540H392Z" />
<glyph unicode="P" glyph-name="P" horiz-adv-x="645" d="M530 686T571 662T636 597T660 505Q660 435 631 376T546 280T416 244H261L226 0H16L113 686H478Q530 686 571 662ZM301 529L282 397H374Q404 397 422 415T443 457L445 478Q445 499 432 514T393 529H301Z" />
<glyph unicode="Q" glyph-name="Q" horiz-adv-x="718" d="M518 694T577 661T670 569T704 437Q704 419 703 406T699 374Q699 374 687 290Q672 188 610 113T444 6Q457 -39 516 -39Q540 -39 573 -33T632 -19L645 -15L630 -120Q546 -162 443 -162Q372 -162 326 -138T257
-78T232 -4Q140 14 84 82T28 247Q28 267 45 394Q55 477 102 545T224 654T388 694H444Q518 694 577 661ZM392 540Q343 540 314 512T278 440L251 247Q250 244 250 240V233Q250 196 274 172T337 147H342Q391 147 420 175T456 247L483 440Q484 443 484 454Q484 490
460 515T397 540H392Z" />
<glyph unicode="R" glyph-name="R" horiz-adv-x="682" d="M543 686T581 668T642 616T665 538Q665 490 645 451T592 386T518 354L517 349Q562 335 583 300T605 213Q605 200 604 190T602 173Q598 141 598 122Q598 60 636 50L630 9Q581 -10 508 -10Q446 -10 414 13T382
88Q382 100 386 130Q390 162 390 179Q390 219 374 242T316 266H258L221 0H16L112 686H497Q543 686 581 668ZM295 529L280 419H386Q410 419 425 433T443 469L444 488Q445 505 432 517T401 529H295Z" />
<glyph unicode="S" glyph-name="S" horiz-adv-x="651" d="M500 696T570 651T640 517Q640 494 636 474H444L445 493Q446 514 427 529T371 544Q327 544 304 531T281 497Q281 474 307 463T396 436Q463 422 507 406T584 354T616 261Q616 147 538 69T276 -10Q162 -10
87 37T12 177Q12 196 18 234H212Q208 225 208 212Q208 185 228 168T293 151Q394 151 394 199Q394 221 369 232T286 256Q219 270 174 287T96 342T63 443Q63 565 152 630T388 696Q500 696 570 651Z" />
<glyph unicode="T" glyph-name="T" horiz-adv-x="585" d="M626 686L603 521H429L355 0H147L221 521H47L70 686H626Z" />
<glyph unicode="U" glyph-name="U" horiz-adv-x="687" d="M625 218Q609 111 532 51T323 -10H280Q169 -10 104 42T39 182Q39 200 42 218L107 686H318L253 221Q252 218 252 210Q252 181 272 164T324 146Q364 146 387 166T415 221L480 686H690L625 218Z" />
<glyph unicode="V" glyph-name="V" horiz-adv-x="655" d="M714 686L409 0H159L51 686H269L329 260H333L512 686H714Z" />
<glyph unicode="W" glyph-name="W" horiz-adv-x="1022" d="M1078 686L795 0H557L521 329H515L385 0H143L53 686H270L313 305H317L469 686H684L726 305H730L881 686H1078Z" />
<glyph unicode="X" glyph-name="X" horiz-adv-x="672" d="M724 686L484 362L648 0H404L318 213H314L169 0H-56L209 363L62 686H305L375 511H379L499 686H724Z" />
<glyph unicode="Y" glyph-name="Y" horiz-adv-x="644" d="M708 686L421 262L384 0H175L212 262L44 686H280L351 461H356L493 686H708Z" />
<glyph unicode="Z" glyph-name="Z" horiz-adv-x="607" d="M632 686L623 625L294 161H566L543 0H-27L-18 61L315 526H70L93 686H632Z" />
<glyph unicode="[" glyph-name="bracketleft" horiz-adv-x="318" d="M349 686L337 603H249L154 -78H242L230 -161H-7L112 686H349Z" />
<glyph unicode="\" glyph-name="backslash" horiz-adv-x="648" d="M199 686L568 -171H436L68 686H199Z" />
<glyph unicode="]" glyph-name="bracketright" horiz-adv-x="317" d="M316 686L197 -161H-40L-28 -78H60L155 603H67L79 686H316Z" />
<glyph unicode="^" glyph-name="asciicircum" horiz-adv-x="600" d="M404 511L530 0H392L314 350L137 0H-2L265 511H404Z" />
<glyph unicode="_" glyph-name="underscore" horiz-adv-x="662" d="M530 -65L521 -127H22L30 -65H530Z" />
<glyph unicode="`" glyph-name="grave" horiz-adv-x="333" d="M205 720L275 575H157L51 717L54 720H205Z" />
<glyph unicode="a" glyph-name="a" horiz-adv-x="628" d="M298 521T335 503T393 450H398L432 511H581Q560 384 544 273T528 137Q528 110 554 110Q571 110 591 123L576 13Q555 2 527 -4T473 -10Q419 -10 384 6T337 68Q310 34 270 12T188 -10Q100 -10 59 46T17 193Q17
271 42 346T122 471T257 521Q298 521 335 503ZM279 396T259 376T234 326Q213 178 213 170Q213 144 228 128T266 111Q297 111 315 130T338 181L348 253L352 285Q359 329 359 338Q359 366 345 381T306 396Q279 396 259 376Z" />
<glyph unicode="b" glyph-name="b" horiz-adv-x="599" d="M270 458Q333 521 411 521Q484 521 528 471T572 326Q572 239 544 163T458 38T312 -10Q258 -10 219 11T156 75L78 0H9L109 720H307L270 458ZM296 396T276 376T251 326Q230 178 230 170Q230 144 245 128T283
111Q314 111 332 130T355 181L365 253L369 285Q376 329 376 338Q376 366 362 381T323 396Q296 396 276 376Z" />
<glyph unicode="c" glyph-name="c" horiz-adv-x="568" d="M451 521T500 466T549 340Q549 322 546 304H378Q378 312 379 323T381 339Q381 365 365 382T322 400Q288 400 268 381T243 330Q234 281 228 233T221 171Q221 144 238 128T288 111Q326 111 346 132T371 181L375
207H533Q517 104 446 47T264 -10Q182 -10 127 18T44 94T16 198Q16 288 52 361T158 478T326 521Q451 521 500 466Z" />
<glyph unicode="d" glyph-name="d" horiz-adv-x="639" d="M571 442L564 391Q530 159 531 146Q531 128 535 119T556 110Q573 110 593 123L578 13Q557 2 529 -4T475 -10Q423 -10 389 4T342 59Q312 27 280 9T197 -10Q114 -10 66 41T18 193Q18 298 51 372T139 483T253
521Q347 521 376 458L413 720H611L571 442ZM278 396T258 376T233 326Q212 178 212 170Q212 144 227 128T265 111Q296 111 314 130T337 181L347 253L351 285Q358 329 358 338Q358 366 344 381T305 396Q278 396 258 376Z" />
<glyph unicode="e" glyph-name="e" horiz-adv-x="600" d="M462 521T518 469T574 330L572 303Q571 288 563 229H230L226 204Q221 173 222 170Q222 142 241 127T290 111Q325 111 347 132T374 192H557Q549 135 513 89T416 17T279 -10H264Q192 -10 136 15T48 87T16
200Q16 299 56 371T168 482T332 521H357Q462 521 518 469ZM293 400T271 380T244 330L242 316H380Q380 319 381 325T382 339Q382 365 366 382T323 400Q293 400 271 380Z" />
<glyph unicode="f" glyph-name="f" horiz-adv-x="418" d="M365 728T404 723T464 706L449 596Q415 606 388 606Q350 606 338 587T323 544T318 511H438L418 369H298L243 -26Q232 -105 176 -146T37 -187Q5 -187 -33 -182T-94 -165L-78 -53Q-66 -58 -49 -61T-18 -65Q13
-65 28 -47T49 4L100 369H36L56 511H120L129 577Q140 656 194 692T334 728Q365 728 404 723Z" />
<glyph unicode="g" glyph-name="g" horiz-adv-x="600" d="M326 521T366 500T430 436L509 511H579L513 40Q497 -72 425 -129T245 -186Q139 -186 68 -147T-3 -19H196Q196 -35 210 -49T252 -63Q282 -63 294 -44T312 7L321 82Q293 52 257 36T179 19Q98 19 58 75T18
216Q18 291 45 361T131 476T275 521Q326 521 366 500ZM276 400T256 381T231 330L222 270Q218 247 216 229T214 203Q214 177 229 161T267 144Q298 144 316 163T339 214L345 256Q356 328 356 342Q356 370 342 385T303 400Q276 400 256 381Z" />
<glyph unicode="h" glyph-name="h" horiz-adv-x="597" d="M269 451Q288 478 325 499T420 521Q503 521 533 479T563 392V380Q563 367 553 303Q540 218 510 0H312Q345 242 353 289Q358 321 358 333Q358 353 346 366T312 380Q287 380 271 363T251 320L206 0H9L109
720H307L269 451Z" />
<glyph unicode="i" glyph-name="i" horiz-adv-x="296" d="M306 720L286 577H89L109 720H306ZM277 511L205 0H9L80 511H277Z" />
<glyph unicode="j" glyph-name="j" horiz-adv-x="298" d="M308 720L288 577H89L109 720H308ZM203 -26Q192 -105 137 -146T-2 -187Q-30 -187 -69 -181T-132 -165L-116 -53Q-105 -58 -87 -61T-56 -65Q-31 -65 -14 -51T9 4L80 511H279L203 -26Z" />
<glyph unicode="k" glyph-name="k" horiz-adv-x="601" d="M307 720L251 321L408 511H634L422 280L565 0H332L262 145L222 114L206 0H9L109 720H307Z" />
<glyph unicode="l" glyph-name="l" horiz-adv-x="297" d="M307 720L206 0H9L109 720H307Z" />
<glyph unicode="m" glyph-name="m" horiz-adv-x="869" d="M761 521T798 485T835 392Q835 370 818 254L808 184L799 121Q787 31 782 0H588Q597 70 617 202Q634 318 634 334Q634 354 623 366T593 379Q571 379 556 364T537 324L492 0H298Q307 70 327 202Q344 318
344 334Q344 354 333 366T303 379Q281 379 266 364T247 324L202 0H8L80 511H228L238 437Q258 466 301 493T402 521Q456 521 488 501T535 443Q562 480 599 500T692 521Q761 521 798 485Z" />
<glyph unicode="n" glyph-name="n" horiz-adv-x="597" d="M488 521T525 485T563 392Q563 372 546 255L536 185L527 120Q514 25 510 0H312Q326 109 340 195Q358 321 358 330Q358 352 346 366T312 380Q287 380 271 363T251 320L206 0H8L80 511H229L238 437Q302 521
419 521Q488 521 525 485Z" />
<glyph unicode="o" glyph-name="o" horiz-adv-x="613" d="M458 521T522 463T587 305Q587 215 548 143T439 31T280 -10H265Q145 -10 81 48T16 205Q16 284 50 356T153 475T323 521H340Q458 521 522 463ZM292 400T270 380T243 330Q234 275 228 233T221 171Q221 145
238 128T281 111Q312 111 333 131T360 181L371 254L382 339Q382 363 366 381T322 400Q292 400 270 380Z" />
<glyph unicode="p" glyph-name="p" horiz-adv-x="599" d="M471 521T521 470T572 319Q572 242 548 167T470 41T337 -10Q293 -10 260 8T214 53L181 -181H-16L80 511H238L248 452Q278 483 311 502T387 521Q471 521 521 470ZM298 400T278 380T253 330Q232 182 232
174Q232 148 247 132T285 115Q316 115 334 134T357 185L367 257L371 289Q378 333 378 342Q378 370 364 385T325 400Q298 400 278 380Z" />
<glyph unicode="q" glyph-name="q" horiz-adv-x="599" d="M328 520T365 502T425 443L510 511H580L483 -180H285L318 52Q255 -11 177 -11Q104 -11 60 39T16 184Q16 267 42 344T127 470T276 520Q328 520 365 502ZM277 399T257 379T232 329Q211 181 211 173Q211 147
226 131T264 114Q295 114 313 133T336 184L346 256L350 288Q357 332 357 341Q357 369 343 384T304 399Q277 399 257 379Z" />
<glyph unicode="r" glyph-name="r" horiz-adv-x="504" d="M445 521T476 492T508 410Q508 392 496 332Q495 321 491 304H329Q329 314 330 322T332 336Q332 378 297 378Q277 378 264 364T247 328L201 0H8L80 511H228L239 437Q245 448 265 468T317 504T386 521Q445
521 476 492Z" />
<glyph unicode="s" glyph-name="s" horiz-adv-x="559" d="M408 521T471 489T535 397Q535 380 532 370T528 358H364V363Q364 385 345 394T300 403Q222 403 222 371Q222 355 244 349T314 336Q374 330 415 320T486 281T516 199Q516 105 449 48T240 -10H230Q120 -10
61 23T1 127Q1 151 5 167H167Q166 166 166 163V156Q166 132 190 122T245 111Q276 111 305 117T335 145Q335 162 313 169T241 184Q182 192 142 203T73 242T44 322Q44 389 84 434T186 500T313 521H321Q408 521 471 489Z" />
<glyph unicode="t" glyph-name="t" horiz-adv-x="419" d="M308 511H428L408 369H288Q259 173 259 161Q259 131 271 121T309 111Q321 111 340 114T372 123L356 11Q332 2 290 -4T219 -11Q139 -11 97 15T54 102Q54 114 56 132T65 194L90 369H34L54 511H110L133 674H342L308
511Z" />
<glyph unicode="u" glyph-name="u" horiz-adv-x="627" d="M527 161T527 140Q527 126 535 119T554 111Q569 111 590 120L575 13Q538 -10 471 -10Q407 -10 376 10T335 71Q312 42 271 16T168 -10Q99 -10 62 26T24 119Q24 146 40 262T77 511H275L252 352Q243 299 237
249T229 181Q229 159 241 145T275 131Q300 131 316 148T336 191L381 511H579Q527 161 527 140Z" />
<glyph unicode="v" glyph-name="v" horiz-adv-x="558" d="M588 511L350 0H121L27 511H238L272 219H279L395 511H588Z" />
<glyph unicode="w" glyph-name="w" horiz-adv-x="855" d="M881 511L664 0H440L421 213H413L335 0H107L33 511H239L260 253H267L364 511H564L588 253H596L689 511H881Z" />
<glyph unicode="x" glyph-name="x" horiz-adv-x="583" d="M608 511L418 265L548 0H321L265 143H261L164 0H-48L159 270L40 511H267L313 393H317L395 511H608Z" />
<glyph unicode="y" glyph-name="y" horiz-adv-x="552" d="M347 36Q296 -65 222 -126T61 -187Q-8 -187 -34 -172L-17 -43Q-7 -48 14 -52T56 -57Q121 -57 144 15L26 511H237L278 246H286L391 511H586L347 36Z" />
<glyph unicode="z" glyph-name="z" horiz-adv-x="497" d="M496 511L488 451L253 124H450L433 0H-18L-10 63L223 387H46L63 511H496Z" />
<glyph unicode="{" glyph-name="braceleft" horiz-adv-x="342" d="M365 618Q292 618 284 577L245 371Q226 268 129 268L128 259Q215 259 215 175Q215 157 204 45Q196 -43 196 -54Q196 -91 266 -91L256 -159H175Q123 -159 86 -135T49 -63Q49 -49 56 0T66 66Q81
160 81 178Q81 201 61 212T11 224L22 303Q51 303 77 317T107 360L137 574Q145 628 191 657T294 686H375L365 618Z" />
<glyph unicode="|" glyph-name="bar" horiz-adv-x="291" d="M201 720V-199H81V720H201Z" />
<glyph unicode="}" glyph-name="braceright" horiz-adv-x="341" d="M210 686T247 662T284 590Q284 586 282 566T276 522L260 418Q256 395 255 376T252 352Q252 328 272 316T322 303L310 224Q279 224 254 211T226 169L196 -47Q188 -101 142 -130T39 -159H-41L-31
-91Q42 -91 50 -49L88 156Q107 259 204 259L205 268Q118 268 118 351Q118 374 130 486Q138 576 138 580Q138 618 67 618L77 686H158Q210 686 247 662Z" />
<glyph unicode="~" glyph-name="asciitilde" horiz-adv-x="649" d="M606 280Q575 249 529 226T432 202Q403 202 378 210T319 235Q281 252 257 260T203 268Q151 268 107 245T29 190L47 316Q81 348 125 371T221 394Q250 394 275 386T334 361Q372 344 396 336T450
328Q501 328 547 351T624 406L606 280Z" />
<glyph unicode="&#xa0;" glyph-name="uni00A0" horiz-adv-x="192" />
<glyph unicode="&#xa1;" glyph-name="exclamdown" horiz-adv-x="303" d="M274 511L248 328H57L83 511H274ZM210 278V-177H-37L83 278H210Z" />
<glyph unicode="&#xa2;" glyph-name="cent" horiz-adv-x="580" d="M395 604Q491 591 529 540T568 426Q568 408 565 390H397Q397 398 398 409T400 425Q400 451 384 468T341 486Q307 486 287 467T262 416Q253 367 247 319T240 257Q240 230 257 214T307 197Q345 197
365 218T390 267L394 293H552Q538 199 477 144T322 78V-10H191L218 81Q129 96 82 153T35 284Q35 365 64 433T150 546T290 603V694H419L395 604Z" />
<glyph unicode="&#xa3;" glyph-name="sterling" horiz-adv-x="668" d="M507 700T559 676T642 610T672 517Q672 506 671 498T669 484L666 466H467L469 478Q471 492 471 501Q471 523 457 537T421 552Q392 552 376 536T355 494L343 413H439L419 266H322L285 147H567L546
0H24L44 147H108L125 266H32L51 413H145L157 493Q166 551 203 598T302 673T442 700Q507 700 559 676Z" />
<glyph unicode="&#xa4;" glyph-name="currency" horiz-adv-x="607" d="M600 535L536 479Q548 463 554 438T561 381Q561 329 544 279T494 197L542 141L474 81L424 139Q398 116 359 104T275 91Q233 91 197 103T140 137L75 80L22 141L88 199Q59 237 59 302Q59 351
78 401T128 479L78 537L150 600L199 543Q223 563 264 575T345 587Q386 587 421 575T475 545L541 603L600 535ZM290 477T256 455T201 396T180 317Q180 266 210 234T291 201Q332 201 366 223T420 283T440 362Q440 411 410 444T330 477Q290 477 256 455Z" />
<glyph unicode="&#xa5;" glyph-name="yen" horiz-adv-x="712" d="M741 686L586 457H670L656 364H523L491 317H650L637 224H449L417 0H208L240 224H58L71 317H224L204 364H77L91 457H168L77 686H313L384 461H389L526 686H741Z" />
<glyph unicode="&#xa6;" glyph-name="brokenbar" horiz-adv-x="270" d="M266 686L227 412H77L116 686H266ZM208 274L169 0H19L58 274H208Z" />
<glyph unicode="&#xa7;" glyph-name="section" horiz-adv-x="568" d="M422 696T487 665T553 563V552L551 533H387Q387 555 369 566T322 578Q296 578 275 570T254 537Q254 515 277 500T356 459Q411 435 447 414T509 360T535 280Q535 219 504 175T433 109Q456 94
468 65T481 4Q481 -62 441 -104T342 -166T222 -185Q136 -185 71 -154T6 -51V-41L8 -25H172Q172 -47 191 -57T242 -67Q304 -67 304 -26Q304 -4 280 12T203 51Q146 77 111 97T50 151T24 232Q24 293 50 332T126 402Q103 417 90 446T77 507Q77 573 117 615T217 677T337
696Q422 696 487 665ZM204 336T194 320T183 286Q183 252 219 228T314 177L343 164Q357 170 368 184T380 220Q380 254 346 278T255 327Q224 341 221 343Q204 336 194 320Z" />
<glyph unicode="&#xa8;" glyph-name="dieresis" horiz-adv-x="440" d="M199 750L178 603H26L47 750H199ZM419 750L398 603H246L267 750H419Z" />
<glyph unicode="&#xa9;" glyph-name="copyright" horiz-adv-x="775" d="M491 696T572 649T701 521T749 344Q749 247 702 166T573 38T395 -10Q298 -10 217 37T89 166T41 344Q41 440 88 521T217 649T395 696Q491 696 572 649ZM310 632T248 597T151 496T117 344Q117
257 151 192T247 91T395 55Q478 55 541 90T638 191T673 344Q673 430 639 495T541 596T395 632Q310 632 248 597ZM481 555T529 510T578 380H460V401Q460 428 443 444T397 461Q372 461 355 444T337 401V285Q337 260 354 243T397 225H406Q432 225 449 241T466 285V305H578Q578
226 531 179T409 131H392Q339 131 296 152T227 214T202 311V375Q202 428 227 469T295 532T388 555H404Q481 555 529 510Z" />
<glyph unicode="&#xaa;" glyph-name="ordfeminine" horiz-adv-x="418" d="M232 696T253 685T289 653H293L313 690H403L381 543Q371 478 371 465Q371 448 387 448Q395 448 409 456L400 390Q370 376 338 376Q305 376 285 385T256 423Q240 402 216 389T166 376Q113
376 88 409T63 498Q63 546 78 591T126 666T208 696Q232 696 253 685ZM220 621T208 609T194 578L190 554Q181 494 181 488V484Q181 469 190 459T213 449Q232 449 243 460T256 491L262 534L266 560Q269 578 269 586Q269 603 261 612T237 621Q220 621 208 609Z" />
<glyph unicode="&#xab;" glyph-name="guillemotleft" horiz-adv-x="442" d="M255 511L146 337L206 163H132L37 337L181 511H255ZM436 511L327 337L387 163H313L218 337L362 511H436Z" />
<glyph unicode="&#xac;" glyph-name="logicalnot" horiz-adv-x="621" d="M596 484L551 158H401L425 334H37L58 484H596Z" />
<glyph unicode="&#xad;" glyph-name="uni00AD" horiz-adv-x="351" d="M311 354L288 196H35L57 354H311Z" />
<glyph unicode="&#xae;" glyph-name="registered" horiz-adv-x="775" d="M491 696T572 649T701 521T749 344Q749 247 702 166T573 38T395 -10Q298 -10 217 37T89 166T41 344Q41 440 88 521T217 649T395 696Q491 696 572 649ZM310 632T248 597T151 496T117 344Q117
257 151 192T247 91T395 55Q478 55 541 90T638 191T673 344Q673 430 639 495T541 596T395 632Q310 632 248 597ZM507 547T541 519T575 445Q575 412 554 386T501 354L500 351Q534 340 550 310T567 239Q567 211 572 191T597 165V141Q569 129 525 129Q483 129 462
147T441 207Q441 249 431 276T387 303H353V135H230V547H461Q507 547 541 519ZM353 459V389H416Q429 389 437 397T446 419V429Q446 442 438 450T416 459H353Z" />
<glyph unicode="&#xaf;" glyph-name="overscore" horiz-adv-x="460" d="M389 736V662H71V736H389Z" />
<glyph unicode="&#xb0;" glyph-name="degree" horiz-adv-x="354" d="M290 696T327 659T364 566Q364 524 340 485T276 421T191 396Q134 396 98 433T61 525Q61 569 85 608T150 672T234 696Q290 696 327 659ZM193 607T171 586T148 538Q148 515 163 499T203 483Q231
483 252 504T274 554Q274 577 259 592T219 607Q193 607 171 586Z" />
<glyph unicode="&#xb1;" glyph-name="plusminus" horiz-adv-x="615" d="M402 512L387 400H579L561 272H369L353 160H225L241 272H49L67 400H259L274 512H402ZM541 128L523 0H11L29 128H541Z" />
<glyph unicode="&#xb2;" glyph-name="uni00B2" horiz-adv-x="369" d="M318 804T349 776T381 702Q381 664 363 635T320 585T250 536L214 512H355L343 422H56L58 441Q61 471 74 492T114 534L233 626Q270 654 270 689Q270 703 262 711T239 720H232Q216 720 203 710T188
683L186 668H91Q91 696 106 727T157 781T247 804H264Q318 804 349 776Z" />
<glyph unicode="&#xb3;" glyph-name="uni00B3" horiz-adv-x="354" d="M308 801T339 776T371 712Q371 681 353 655T307 616Q356 597 356 539Q356 477 310 445T200 413H178Q117 413 85 439T52 506Q52 515 55 531H150Q150 513 157 503T187 493H201Q225 493 238 507T251
546Q251 578 218 578H163L173 644H220Q237 644 249 655T262 690Q262 703 254 712T231 721H221Q205 721 193 711T179 687H89Q89 738 132 769T239 801H255Q308 801 339 776Z" />
<glyph unicode="&#xb4;" glyph-name="acute" horiz-adv-x="333" d="M294 720L295 717L149 575H31L143 720H294Z" />
<glyph unicode="&#xb5;" glyph-name="uni00B5" horiz-adv-x="650" d="M537 161T537 140Q537 126 545 119T564 111Q579 111 600 120L585 13Q548 -10 481 -10Q417 -10 386 10T345 71Q326 46 291 22T205 -8V-18Q205 -56 201 -83L190 -161H-8L87 511H285L262 352Q253
299 247 249T239 181Q239 159 251 145T285 131Q310 131 326 148T346 191L391 511H589Q537 161 537 140Z" />
<glyph unicode="&#xb6;" glyph-name="paragraph" horiz-adv-x="582" d="M592 607H526L418 -161H330L438 607H362L254 -161H166L224 253Q173 254 132 279T69 345T46 437Q46 503 80 560T172 651T294 686H603L592 607Z" />
<glyph unicode="&#xb7;" glyph-name="middot" horiz-adv-x="287" d="M251 380L226 197H35L60 380H251Z" />
<glyph unicode="&#xb8;" glyph-name="cedilla" horiz-adv-x="334" d="M229 -17T260 -34T291 -92V-100Q291 -153 249 -175T160 -197Q123 -197 91 -188T39 -161L79 -107Q88 -119 108 -129T159 -139Q204 -139 204 -100Q204 -76 170 -76H152L160 -17H181Q229 -17 260 -34Z" />
<glyph unicode="&#xb9;" glyph-name="uni00B9" horiz-adv-x="335" d="M256 504H334L322 422H57L69 504H151L175 676H93L102 738Q136 740 180 757T261 796H297L256 504Z" />
<glyph unicode="&#xba;" glyph-name="ordmasculine" horiz-adv-x="395" d="M325 696T363 661T402 567Q402 513 379 470T314 403T218 378H209Q138 378 99 413T60 507Q60 555 80 598T142 668T244 696H254Q325 696 363 661ZM225 624T212 612T196 582L189 536Q183
502 183 486Q183 471 193 461T219 450Q238 450 251 462T266 492L272 536L276 564L279 587Q279 602 269 613T243 624Q225 624 212 612Z" />
<glyph unicode="&#xbb;" glyph-name="guillemotright" horiz-adv-x="443" d="M142 511L238 337L93 163H19L129 337L68 511H142ZM323 511L419 337L274 163H200L310 337L249 511H323Z" />
<glyph unicode="&#xbc;" glyph-name="onequarter" horiz-adv-x="765" d="M706 686L192 0H103L620 686H706ZM238 393H316L304 311H39L51 393H133L157 565H75L83 627Q118 629 162 646T243 685H279L238 393ZM613 335T568 268T485 161H566L574 216Q591 236 615 276T647
339H692L667 161H720L709 81H656L644 0H543L555 81H404L415 162Q441 198 478 267T529 375H624Q613 335 568 268Z" />
<glyph unicode="&#xbd;" glyph-name="onehalf" horiz-adv-x="765" d="M235 394H313L301 312H36L48 394H130L154 566H72L81 628Q115 630 159 647T240 686H276L235 394ZM703 686L189 0H100L617 686H703ZM671 382T702 354T734 280Q734 242 716 213T673 163T603 114L567
90H708L696 0H409L411 19Q414 49 427 70T467 112L586 204Q623 232 623 267Q623 281 615 289T592 298H585Q569 298 556 288T541 261L539 246H444Q444 274 459 305T510 359T600 382H617Q671 382 702 354Z" />
<glyph unicode="&#xbe;" glyph-name="threequarters" horiz-adv-x="757" d="M299 693T330 668T362 604Q362 573 344 547T298 508Q347 489 347 431Q347 369 301 337T191 305H169Q108 305 76 331T43 398Q43 407 46 423H141Q141 405 148 395T178 385H192Q216 385
229 399T242 438Q242 470 209 470H154L164 536H211Q228 536 240 547T253 582Q253 595 245 604T222 613H212Q196 613 184 603T170 579H80Q80 630 123 661T230 693H246Q299 693 330 668ZM698 686L185 0H96L612 686H698ZM606 335T560 267T477 161H558L566 216Q583
236 607 276T639 339H684L659 161H712L701 81H648L637 0H536L547 81H396L408 162Q436 204 472 271T522 375H617Q606 335 560 267Z" />
<glyph unicode="&#xbf;" glyph-name="questiondown" horiz-adv-x="578" d="M407 511L382 328H191L216 511H407ZM360 233Q356 207 338 187T283 134Q242 99 221 73T200 12Q200 -13 215 -30T257 -48Q302 -48 319 -16T337 63H521Q521 45 518 25Q508 -39 470 -87T371
-160T238 -186H200Q142 -186 94 -163T17 -96T-12 2Q-12 56 9 96T60 160T133 212Q164 232 178 244T195 270L198 292H369L360 233Z" />
<glyph unicode="&#xc0;" glyph-name="Agrave" horiz-adv-x="709" d="M402 895L472 750H354L248 892L251 895H402ZM542 686L674 0H456L432 122H214L157 0H-44L281 686H542ZM376 475H371L283 267H405L376 475Z" />
<glyph unicode="&#xc1;" glyph-name="Aacute" horiz-adv-x="709" d="M619 895L620 892L474 750H356L468 895H619ZM542 686L674 0H456L432 122H214L157 0H-44L281 686H542ZM376 475H371L283 267H405L376 475Z" />
<glyph unicode="&#xc2;" glyph-name="Acircumflex" horiz-adv-x="709" d="M499 896L617 751H487L424 828L339 751H211L371 896H499ZM542 686L674 0H456L432 122H214L157 0H-44L281 686H542ZM376 475H371L283 267H405L376 475Z" />
<glyph unicode="&#xc3;" glyph-name="Atilde" horiz-adv-x="709" d="M647 852T625 820T569 767T492 746Q470 746 451 751T401 767Q377 776 360 781T325 786Q307 786 293 775T269 746H189Q195 783 217 815T273 868T349 889Q371 889 391 884T440 868Q488 849 516
849Q534 849 548 860T572 889H653Q647 852 625 820ZM542 686L674 0H456L432 122H214L157 0H-44L281 686H542ZM376 475H371L283 267H405L376 475Z" />
<glyph unicode="&#xc4;" glyph-name="Adieresis" horiz-adv-x="709" d="M401 897L380 750H228L249 897H401ZM621 897L600 750H448L469 897H621ZM542 686L674 0H456L432 122H214L157 0H-44L281 686H542ZM376 475H371L283 267H405L376 475Z" />
<glyph unicode="&#xc5;" glyph-name="Aring" horiz-adv-x="709" d="M477 937T501 913T526 851Q526 803 492 770T410 736Q372 736 347 760T322 823Q322 869 357 903T439 937Q477 937 501 913ZM412 871T401 860T389 831Q389 818 397 810T420 801Q436 801 448 811T460
840Q460 854 452 862T429 871Q412 871 401 860ZM542 686L674 0H456L432 122H214L157 0H-44L281 686H542ZM376 475H371L283 267H405L376 475Z" />
<glyph unicode="&#xc6;" glyph-name="AE" horiz-adv-x="1011" d="M1039 686L997 528H642V428H971L950 275H656V164H942V0H439V122H221L146 0H-53L368 686H1039ZM433 475H428L311 267H433V475Z" />
<glyph unicode="&#xc7;" glyph-name="Ccedilla" horiz-adv-x="684" d="M540 696T609 635T679 460Q679 430 675 405H478L483 440Q484 443 484 448V457Q484 495 460 517T397 540H392Q343 540 314 512T278 440L251 247Q250 244 250 240V233Q250 196 274 172T337 147H351Q449
147 465 247L470 280H658Q638 144 554 67T335 -10H307Q226 -10 163 20T63 106T27 242Q27 253 31 289T46 396Q58 485 107 553T232 658T398 696H426Q540 696 609 635ZM345 -17T376 -34T407 -92V-100Q407 -153 365 -175T276 -197Q239 -197 207 -188T155 -161L195 -107Q204
-119 224 -129T275 -139Q320 -139 320 -100Q320 -76 286 -76H268L276 -17H297Q345 -17 376 -34Z" />
<glyph unicode="&#xc8;" glyph-name="Egrave" horiz-adv-x="600" d="M370 896L440 751H322L216 893L219 896H370ZM628 686L586 528H297L282 428H560L539 275H261L245 164H531V0H16L113 686H628Z" />
<glyph unicode="&#xc9;" glyph-name="Eacute" horiz-adv-x="600" d="M571 895L572 892L426 750H308L420 895H571ZM628 686L586 528H297L282 428H560L539 275H261L245 164H531V0H16L113 686H628Z" />
<glyph unicode="&#xca;" glyph-name="Ecircumflex" horiz-adv-x="600" d="M464 896L582 751H452L389 828L304 751H176L336 896H464ZM628 686L586 528H297L282 428H560L539 275H261L245 164H531V0H16L113 686H628Z" />
<glyph unicode="&#xcb;" glyph-name="Edieresis" horiz-adv-x="600" d="M356 898L335 751H183L204 898H356ZM576 898L555 751H403L424 898H576ZM628 686L586 528H297L282 428H560L539 275H261L245 164H531V0H16L113 686H628Z" />
<glyph unicode="&#xcc;" glyph-name="Igrave" horiz-adv-x="446" d="M268 895L338 750H220L114 892L117 895H268ZM466 686L445 539H364L309 148H390L369 0H-5L16 148H97L152 539H71L92 686H466Z" />
<glyph unicode="&#xcd;" glyph-name="Iacute" horiz-adv-x="446" d="M487 895L488 892L342 750H224L336 895H487ZM466 686L445 539H364L309 148H390L369 0H-5L16 148H97L152 539H71L92 686H466Z" />
<glyph unicode="&#xce;" glyph-name="Icircumflex" horiz-adv-x="446" d="M369 895L487 750H357L294 827L209 750H81L241 895H369ZM466 686L445 539H364L309 148H390L369 0H-5L16 148H97L152 539H71L92 686H466Z" />
<glyph unicode="&#xcf;" glyph-name="Idieresis" horiz-adv-x="446" d="M271 897L250 750H98L119 897H271ZM491 897L470 750H318L339 897H491ZM466 686L445 539H364L309 148H390L369 0H-5L16 148H97L152 539H71L92 686H466Z" />
<glyph unicode="&#xd0;" glyph-name="Eth" horiz-adv-x="718" d="M518 686T577 652T670 559T704 428Q704 407 701 386L688 300Q675 215 631 147T513 40T346 0H37L79 297H5L18 391H92L134 686H443Q518 686 577 652ZM324 530L304 391H381L368 297H291L272 159H349Q398
159 427 187T463 259L488 443Q488 480 464 505T401 530H324Z" />
<glyph unicode="&#xd1;" glyph-name="Ntilde" horiz-adv-x="696" d="M651 852T629 820T573 767T496 746Q474 746 455 751T405 767Q381 776 364 781T329 786Q311 786 297 775T273 746H193Q199 783 221 815T277 868T353 889Q375 889 395 884T444 868Q491 849 520
849Q538 849 552 860T576 889H657Q651 852 629 820ZM598 0H418L282 246Q276 254 265 278L252 304L209 0H16L113 686H289L429 431L457 375L501 686H695L598 0Z" />
<glyph unicode="&#xd2;" glyph-name="Ograve" horiz-adv-x="719" d="M405 895L475 750H357L251 892L254 895H405ZM519 694T578 660T671 567T705 436Q705 422 704 410T699 377L687 290Q675 206 629 138T510 30T345 -10H289Q214 -10 155 24T62 117T28 248Q28 261
29 275T33 306T37 334Q40 348 42 363T46 394Q58 477 104 545T223 654T388 694H444Q519 694 578 660ZM392 540Q343 540 314 512T278 440L251 247Q250 244 250 240V233Q250 196 274 172T337 147H342Q391 147 420 175T456 247L483 440Q484 443 484 454Q484 490 460
515T397 540H392Z" />
<glyph unicode="&#xd3;" glyph-name="Oacute" horiz-adv-x="719" d="M633 895L634 892L488 750H370L482 895H633ZM519 694T578 660T671 567T705 436Q705 422 704 410T699 377L687 290Q675 206 629 138T510 30T345 -10H289Q214 -10 155 24T62 117T28 248Q28 261
29 275T33 306T37 334Q40 348 42 363T46 394Q58 477 104 545T223 654T388 694H444Q519 694 578 660ZM392 540Q343 540 314 512T278 440L251 247Q250 244 250 240V233Q250 196 274 172T337 147H342Q391 147 420 175T456 247L483 440Q484 443 484 454Q484 490 460
515T397 540H392Z" />
<glyph unicode="&#xd4;" glyph-name="Ocircumflex" horiz-adv-x="719" d="M510 895L628 750H498L435 827L350 750H222L382 895H510ZM519 694T578 660T671 567T705 436Q705 422 704 410T699 377L687 290Q675 206 629 138T510 30T345 -10H289Q214 -10 155 24T62
117T28 248Q28 261 29 275T33 306T37 334Q40 348 42 363T46 394Q58 477 104 545T223 654T388 694H444Q519 694 578 660ZM392 540Q343 540 314 512T278 440L251 247Q250 244 250 240V233Q250 196 274 172T337 147H342Q391 147 420 175T456 247L483 440Q484 443 484
454Q484 490 460 515T397 540H392Z" />
<glyph unicode="&#xd5;" glyph-name="Otilde" horiz-adv-x="719" d="M668 851T646 819T590 766T513 745Q491 745 472 750T422 766Q398 775 381 780T346 785Q328 785 314 774T290 745H210Q216 782 238 814T294 867T370 888Q392 888 412 883T461 867Q509 848 537
848Q555 848 569 859T593 888H674Q668 851 646 819ZM519 694T578 660T671 567T705 436Q705 422 704 410T699 377L687 290Q675 206 629 138T510 30T345 -10H289Q214 -10 155 24T62 117T28 248Q28 261 29 275T33 306T37 334Q40 348 42 363T46 394Q58 477 104 545T223
654T388 694H444Q519 694 578 660ZM392 540Q343 540 314 512T278 440L251 247Q250 244 250 240V233Q250 196 274 172T337 147H342Q391 147 420 175T456 247L483 440Q484 443 484 454Q484 490 460 515T397 540H392Z" />
<glyph unicode="&#xd6;" glyph-name="Odieresis" horiz-adv-x="719" d="M416 897L395 750H243L264 897H416ZM636 897L615 750H463L484 897H636ZM519 694T578 660T671 567T705 436Q705 422 704 410T699 377L687 290Q675 206 629 138T510 30T345 -10H289Q214 -10
155 24T62 117T28 248Q28 261 29 275T33 306T37 334Q40 348 42 363T46 394Q58 477 104 545T223 654T388 694H444Q519 694 578 660ZM392 540Q343 540 314 512T278 440L251 247Q250 244 250 240V233Q250 196 274 172T337 147H342Q391 147 420 175T456 247L483 440Q484
443 484 454Q484 490 460 515T397 540H392Z" />
<glyph unicode="&#xd7;" glyph-name="multiply" horiz-adv-x="615" d="M469 482L547 392L393 256L508 120L406 30L289 165L134 30L56 120L211 256L95 392L197 482L314 347L469 482Z" />
<glyph unicode="&#xd8;" glyph-name="Oslash" horiz-adv-x="719" d="M628 623Q665 587 685 540T705 436Q705 422 704 410T699 377L687 290Q675 206 629 138T510 30T345 -10H289Q229 -10 171 15L111 -65H4L101 64Q66 99 47 146T28 248Q28 261 29 275T33 306T37
334Q40 348 42 363T46 394Q58 477 104 545T223 654T388 694H444Q502 694 556 671L618 754H726L628 623ZM392 540Q343 540 314 512T278 440L254 268L446 525Q423 540 397 540H392ZM283 164Q306 147 337 147H342Q391 147 420 175T456 247L481 428L283 164Z" />
<glyph unicode="&#xd9;" glyph-name="Ugrave" horiz-adv-x="687" d="M393 895L463 750H345L239 892L242 895H393ZM625 218Q609 111 532 51T323 -10H280Q169 -10 104 42T39 182Q39 200 42 218L107 686H318L253 221Q252 218 252 210Q252 181 272 164T324 146Q364
146 387 166T415 221L480 686H690L625 218Z" />
<glyph unicode="&#xda;" glyph-name="Uacute" horiz-adv-x="687" d="M608 895L609 892L463 750H345L457 895H608ZM625 218Q609 111 532 51T323 -10H280Q169 -10 104 42T39 182Q39 200 42 218L107 686H318L253 221Q252 218 252 210Q252 181 272 164T324 146Q364
146 387 166T415 221L480 686H690L625 218Z" />
<glyph unicode="&#xdb;" glyph-name="Ucircumflex" horiz-adv-x="687" d="M491 895L609 750H479L416 827L331 750H203L363 895H491ZM625 218Q609 111 532 51T323 -10H280Q169 -10 104 42T39 182Q39 200 42 218L107 686H318L253 221Q252 218 252 210Q252 181 272
164T324 146Q364 146 387 166T415 221L480 686H690L625 218Z" />
<glyph unicode="&#xdc;" glyph-name="Udieresis" horiz-adv-x="687" d="M391 897L370 750H218L239 897H391ZM611 897L590 750H438L459 897H611ZM625 218Q609 111 532 51T323 -10H280Q169 -10 104 42T39 182Q39 200 42 218L107 686H318L253 221Q252 218 252 210Q252
181 272 164T324 146Q364 146 387 166T415 221L480 686H690L625 218Z" />
<glyph unicode="&#xdd;" glyph-name="Yacute" horiz-adv-x="644" d="M598 895L599 892L453 750H335L447 895H598ZM708 686L421 262L384 0H175L212 262L44 686H280L351 461H356L493 686H708Z" />
<glyph unicode="&#xde;" glyph-name="Thorn" horiz-adv-x="646" d="M307 583H463Q515 583 557 559T622 494T646 402Q646 333 614 274T526 181T402 146H246L225 0H16L113 686H322L307 583ZM285 427L267 294H370Q390 294 407 308T427 344L431 384Q431 403 419 415T388
427H285Z" />
<glyph unicode="&#xdf;" glyph-name="germandbls" horiz-adv-x="652" d="M503 728T570 689T638 569Q638 513 606 464T521 395V390Q566 373 592 333T618 242Q618 171 584 116T487 31T343 0H280L301 148H329Q365 148 394 178T423 247Q423 279 404 300T353 321H325L342
443H369Q398 443 421 466T444 521Q444 546 429 562T389 579Q362 579 341 560T316 511L235 -66H37L98 369H36L56 511H118Q131 583 175 632T281 704T410 728Q503 728 570 689Z" />
<glyph unicode="&#xe0;" glyph-name="agrave" horiz-adv-x="628" d="M339 720L409 575H291L185 717L188 720H339ZM298 521T335 503T393 450H398L432 511H581Q560 384 544 273T528 137Q528 110 554 110Q571 110 591 123L576 13Q555 2 527 -4T473 -10Q419 -10 384
6T337 68Q310 34 270 12T188 -10Q100 -10 59 46T17 193Q17 271 42 346T122 471T257 521Q298 521 335 503ZM279 396T259 376T234 326Q213 178 213 170Q213 144 228 128T266 111Q297 111 315 130T338 181L348 253L352 285Q359 329 359 338Q359 366 345 381T306 396Q279
396 259 376Z" />
<glyph unicode="&#xe1;" glyph-name="aacute" horiz-adv-x="628" d="M527 720L528 717L382 575H264L376 720H527ZM298 521T335 503T393 450H398L432 511H581Q560 384 544 273T528 137Q528 110 554 110Q571 110 591 123L576 13Q555 2 527 -4T473 -10Q419 -10 384
6T337 68Q310 34 270 12T188 -10Q100 -10 59 46T17 193Q17 271 42 346T122 471T257 521Q298 521 335 503ZM279 396T259 376T234 326Q213 178 213 170Q213 144 228 128T266 111Q297 111 315 130T338 181L348 253L352 285Q359 329 359 338Q359 366 345 381T306 396Q279
396 259 376Z" />
<glyph unicode="&#xe2;" glyph-name="acircumflex" horiz-adv-x="628" d="M436 720L554 575H424L361 652L276 575H148L308 720H436ZM298 521T335 503T393 450H398L432 511H581Q560 384 544 273T528 137Q528 110 554 110Q571 110 591 123L576 13Q555 2 527 -4T473
-10Q419 -10 384 6T337 68Q310 34 270 12T188 -10Q100 -10 59 46T17 193Q17 271 42 346T122 471T257 521Q298 521 335 503ZM279 396T259 376T234 326Q213 178 213 170Q213 144 228 128T266 111Q297 111 315 130T338 181L348 253L352 285Q359 329 359 338Q359 366
345 381T306 396Q279 396 259 376Z" />
<glyph unicode="&#xe3;" glyph-name="atilde" horiz-adv-x="628" d="M580 683T558 651T502 598T425 577Q403 577 384 582T334 598Q310 607 293 612T258 617Q240 617 226 606T202 577H122Q128 614 150 646T206 699T282 720Q304 720 324 715T373 699Q421 680 449
680Q467 680 481 691T505 720H586Q580 683 558 651ZM298 521T335 503T393 450H398L432 511H581Q560 384 544 273T528 137Q528 110 554 110Q571 110 591 123L576 13Q555 2 527 -4T473 -10Q419 -10 384 6T337 68Q310 34 270 12T188 -10Q100 -10 59 46T17 193Q17 271
42 346T122 471T257 521Q298 521 335 503ZM279 396T259 376T234 326Q213 178 213 170Q213 144 228 128T266 111Q297 111 315 130T338 181L348 253L352 285Q359 329 359 338Q359 366 345 381T306 396Q279 396 259 376Z" />
<glyph unicode="&#xe4;" glyph-name="adieresis" horiz-adv-x="628" d="M349 720L328 573H176L197 720H349ZM569 720L548 573H396L417 720H569ZM298 521T335 503T393 450H398L432 511H581Q560 384 544 273T528 137Q528 110 554 110Q571 110 591 123L576 13Q555
2 527 -4T473 -10Q419 -10 384 6T337 68Q310 34 270 12T188 -10Q100 -10 59 46T17 193Q17 271 42 346T122 471T257 521Q298 521 335 503ZM279 396T259 376T234 326Q213 178 213 170Q213 144 228 128T266 111Q297 111 315 130T338 181L348 253L352 285Q359 329 359
338Q359 366 345 381T306 396Q279 396 259 376Z" />
<glyph unicode="&#xe5;" glyph-name="aring" horiz-adv-x="628" d="M423 760T447 736T472 674Q472 626 438 593T356 559Q318 559 293 583T268 646Q268 692 303 726T385 760Q423 760 447 736ZM358 694T347 683T335 654Q335 641 343 633T366 624Q382 624 394 634T406
663Q406 677 398 685T375 694Q358 694 347 683ZM298 521T335 503T393 450H398L432 511H581Q560 384 544 273T528 137Q528 110 554 110Q571 110 591 123L576 13Q555 2 527 -4T473 -10Q419 -10 384 6T337 68Q310 34 270 12T188 -10Q100 -10 59 46T17 193Q17 271 42
346T122 471T257 521Q298 521 335 503ZM279 396T259 376T234 326Q213 178 213 170Q213 144 228 128T266 111Q297 111 315 130T338 181L348 253L352 285Q359 329 359 338Q359 366 345 381T306 396Q279 396 259 376Z" />
<glyph unicode="&#xe6;" glyph-name="ae" horiz-adv-x="924" d="M786 521T842 469T898 330L896 303Q895 288 887 229H554L547 181Q546 178 546 170Q546 142 565 127T614 111Q649 111 671 132T698 192H881Q873 135 837 89T740 17T603 -10H588Q527 -10 478 7T395
58Q356 27 298 9T175 -10Q101 -10 51 15T1 114Q1 194 44 238T166 299T362 316L364 333Q365 339 366 345T367 356Q367 379 351 392T310 405Q286 405 264 392T239 358L238 354H48Q48 399 81 437T175 498T311 521H344Q442 521 500 487Q569 521 656 521H681Q786 521
842 469ZM616 400T594 380T568 330L566 316H704Q704 323 705 329T706 339Q706 365 690 382T647 400Q616 400 594 380ZM278 225T245 205T211 149Q211 111 265 111Q292 111 315 130T343 181L349 225Q278 225 245 205Z" />
<glyph unicode="&#xe7;" glyph-name="ccedilla" horiz-adv-x="568" d="M451 521T500 466T549 340Q549 322 546 304H378Q378 312 379 323T381 339Q381 365 365 382T322 400Q288 400 268 381T243 330Q234 281 228 233T221 171Q221 144 238 128T288 111Q326 111 346
132T371 181L375 207H533Q517 104 446 47T264 -10Q182 -10 127 18T44 94T16 198Q16 288 52 361T158 478T326 521Q451 521 500 466ZM297 -17T328 -34T359 -92V-100Q359 -153 317 -175T228 -197Q192 -197 160 -188T107 -161L147 -107Q156 -119 176 -129T227 -139Q272
-139 272 -100Q272 -76 238 -76H220L228 -17H249Q297 -17 328 -34Z" />
<glyph unicode="&#xe8;" glyph-name="egrave" horiz-adv-x="600" d="M337 720L407 575H289L183 717L186 720H337ZM462 521T518 469T574 330L572 303Q571 288 563 229H230L226 204Q221 173 222 170Q222 142 241 127T290 111Q325 111 347 132T374 192H557Q549 135
513 89T416 17T279 -10H264Q192 -10 136 15T48 87T16 200Q16 299 56 371T168 482T332 521H357Q462 521 518 469ZM293 400T271 380T244 330L242 316H380Q380 319 381 325T382 339Q382 365 366 382T323 400Q293 400 271 380Z" />
<glyph unicode="&#xe9;" glyph-name="eacute" horiz-adv-x="600" d="M548 720L549 717L403 575H285L397 720H548ZM462 521T518 469T574 330L572 303Q571 288 563 229H230L226 204Q221 173 222 170Q222 142 241 127T290 111Q325 111 347 132T374 192H557Q549 135
513 89T416 17T279 -10H264Q192 -10 136 15T48 87T16 200Q16 299 56 371T168 482T332 521H357Q462 521 518 469ZM293 400T271 380T244 330L242 316H380Q380 319 381 325T382 339Q382 365 366 382T323 400Q293 400 271 380Z" />
<glyph unicode="&#xea;" glyph-name="ecircumflex" horiz-adv-x="600" d="M446 720L564 575H434L371 652L286 575H158L318 720H446ZM462 521T518 469T574 330L572 303Q571 288 563 229H230L226 204Q221 173 222 170Q222 142 241 127T290 111Q325 111 347 132T374
192H557Q549 135 513 89T416 17T279 -10H264Q192 -10 136 15T48 87T16 200Q16 299 56 371T168 482T332 521H357Q462 521 518 469ZM293 400T271 380T244 330L242 316H380Q380 319 381 325T382 339Q382 365 366 382T323 400Q293 400 271 380Z" />
<glyph unicode="&#xeb;" glyph-name="edieresis" horiz-adv-x="600" d="M337 720L316 573H164L185 720H337ZM557 720L536 573H384L405 720H557ZM462 521T518 469T574 330L572 303Q571 288 563 229H230L226 204Q221 173 222 170Q222 142 241 127T290 111Q325 111
347 132T374 192H557Q549 135 513 89T416 17T279 -10H264Q192 -10 136 15T48 87T16 200Q16 299 56 371T168 482T332 521H357Q462 521 518 469ZM293 400T271 380T244 330L242 316H380Q380 319 381 325T382 339Q382 365 366 382T323 400Q293 400 271 380Z" />
<glyph unicode="&#xec;" glyph-name="igrave" horiz-adv-x="296" d="M202 720L272 575H154L48 717L51 720H202ZM277 511L206 0H9L80 511H277Z" />
<glyph unicode="&#xed;" glyph-name="iacute" horiz-adv-x="296" d="M355 720L356 717L210 575H92L204 720H355ZM277 511L206 0H9L80 511H277Z" />
<glyph unicode="&#xee;" glyph-name="icircumflex" horiz-adv-x="296" d="M270 720L388 575H258L195 652L110 575H-18L142 720H270ZM277 511L206 0H9L80 511H277Z" />
<glyph unicode="&#xef;" glyph-name="idieresis" horiz-adv-x="296" d="M174 720L153 573H1L22 720H174ZM394 720L373 573H221L242 720H394ZM277 511L206 0H9L80 511H277Z" />
<glyph unicode="&#xf0;" glyph-name="eth" horiz-adv-x="613" d="M319 722T358 695L434 728L481 677L418 649Q495 581 540 492T586 311Q586 289 583 266L580 245Q570 170 527 112T419 22T279 -10H247Q178 -10 126 17T44 93T15 207Q15 226 18 245L21 266Q30 333
69 385T166 470T292 510Q291 522 284 541T265 580L194 549L143 600L223 635Q188 670 148 685L150 689L270 739Q319 722 358 695ZM290 400T268 380T242 330L221 181Q220 178 220 170Q220 144 237 128T280 111Q307 111 330 131T359 181L380 330V339Q380 365 363 382T320
400Q290 400 268 380Z" />
<glyph unicode="&#xf1;" glyph-name="ntilde" horiz-adv-x="597" d="M569 683T547 651T491 598T414 577Q392 577 373 582T323 598Q299 607 282 612T247 617Q229 617 215 606T191 577H111Q117 614 139 646T195 699T271 720Q293 720 313 715T362 699Q409 680 438
680Q456 680 470 691T494 720H575Q569 683 547 651ZM488 521T525 485T563 392Q563 372 546 255L536 185L527 120Q514 25 510 0H312Q326 109 340 195Q358 321 358 330Q358 352 346 366T312 380Q287 380 271 363T251 320L206 0H8L80 511H229L238 437Q302 521 419
521Q488 521 525 485Z" />
<glyph unicode="&#xf2;" glyph-name="ograve" horiz-adv-x="613" d="M329 720L399 575H281L175 717L178 720H329ZM458 521T522 463T587 305Q587 215 548 143T439 31T280 -10H265Q145 -10 81 48T16 205Q16 284 50 356T153 475T323 521H340Q458 521 522 463ZM292
400T270 380T243 330Q234 275 228 233T221 171Q221 145 238 128T281 111Q312 111 333 131T360 181L371 254L382 339Q382 363 366 381T322 400Q292 400 270 380Z" />
<glyph unicode="&#xf3;" glyph-name="oacute" horiz-adv-x="613" d="M550 720L551 717L405 575H287L399 720H550ZM458 521T522 463T587 305Q587 215 548 143T439 31T280 -10H265Q145 -10 81 48T16 205Q16 284 50 356T153 475T323 521H340Q458 521 522 463ZM292
400T270 380T243 330Q234 275 228 233T221 171Q221 145 238 128T281 111Q312 111 333 131T360 181L371 254L382 339Q382 363 366 381T322 400Q292 400 270 380Z" />
<glyph unicode="&#xf4;" glyph-name="ocircumflex" horiz-adv-x="613" d="M436 720L554 575H424L361 652L276 575H148L308 720H436ZM458 521T522 463T587 305Q587 215 548 143T439 31T280 -10H265Q145 -10 81 48T16 205Q16 284 50 356T153 475T323 521H340Q458
521 522 463ZM292 400T270 380T243 330Q234 275 228 233T221 171Q221 145 238 128T281 111Q312 111 333 131T360 181L371 254L382 339Q382 363 366 381T322 400Q292 400 270 380Z" />
<glyph unicode="&#xf5;" glyph-name="otilde" horiz-adv-x="613" d="M584 683T562 651T506 598T429 577Q407 577 388 582T338 598Q314 607 297 612T262 617Q244 617 230 606T206 577H126Q132 614 154 646T210 699T286 720Q308 720 328 715T377 699Q424 680 453
680Q471 680 485 691T509 720H590Q584 683 562 651ZM458 521T522 463T587 305Q587 215 548 143T439 31T280 -10H265Q145 -10 81 48T16 205Q16 284 50 356T153 475T323 521H340Q458 521 522 463ZM292 400T270 380T243 330Q234 275 228 233T221 171Q221 145 238 128T281
111Q312 111 333 131T360 181L371 254L382 339Q382 363 366 381T322 400Q292 400 270 380Z" />
<glyph unicode="&#xf6;" glyph-name="odieresis" horiz-adv-x="613" d="M335 720L314 573H162L183 720H335ZM555 720L534 573H382L403 720H555ZM458 521T522 463T587 305Q587 215 548 143T439 31T280 -10H265Q145 -10 81 48T16 205Q16 284 50 356T153 475T323
521H340Q458 521 522 463ZM292 400T270 380T243 330Q234 275 228 233T221 171Q221 145 238 128T281 111Q312 111 333 131T360 181L371 254L382 339Q382 363 366 381T322 400Q292 400 270 380Z" />
<glyph unicode="&#xf7;" glyph-name="divide" horiz-adv-x="615" d="M401 496L383 369H256L274 496H401ZM568 321L550 193H38L56 321H568ZM352 144L334 17H207L225 144H352Z" />
<glyph unicode="&#xf8;" glyph-name="oslash" horiz-adv-x="613" d="M513 470Q587 411 587 305Q587 215 548 143T439 31T280 -10H265Q205 -10 154 7L106 -55H14L89 41Q16 99 16 205Q16 284 50 356T153 475T323 521H340Q399 521 448 504L498 569H590L513 470ZM292
400T270 380T243 330L227 219L358 388Q343 400 322 400Q292 400 270 380ZM244 123Q259 111 281 111Q315 111 332 129T357 173T369 245Q370 253 371 267T375 292L244 123Z" />
<glyph unicode="&#xf9;" glyph-name="ugrave" horiz-adv-x="627" d="M323 720L393 575H275L169 717L172 720H323ZM527 161T527 140Q527 126 535 119T554 111Q569 111 590 120L575 13Q538 -10 471 -10Q407 -10 376 10T335 71Q312 42 271 16T168 -10Q99 -10 62 26T24
119Q24 146 40 262T77 511H275L252 352Q243 299 237 249T229 181Q229 159 241 145T275 131Q300 131 316 148T336 191L381 511H579Q527 161 527 140Z" />
<glyph unicode="&#xfa;" glyph-name="uacute" horiz-adv-x="627" d="M530 720L531 717L385 575H267L379 720H530ZM527 161T527 140Q527 126 535 119T554 111Q569 111 590 120L575 13Q538 -10 471 -10Q407 -10 376 10T335 71Q312 42 271 16T168 -10Q99 -10 62 26T24
119Q24 146 40 262T77 511H275L252 352Q243 299 237 249T229 181Q229 159 241 145T275 131Q300 131 316 148T336 191L381 511H579Q527 161 527 140Z" />
<glyph unicode="&#xfb;" glyph-name="ucircumflex" horiz-adv-x="627" d="M423 720L541 575H411L348 652L263 575H135L295 720H423ZM527 161T527 140Q527 126 535 119T554 111Q569 111 590 120L575 13Q538 -10 471 -10Q407 -10 376 10T335 71Q312 42 271 16T168
-10Q99 -10 62 26T24 119Q24 146 40 262T77 511H275L252 352Q243 299 237 249T229 181Q229 159 241 145T275 131Q300 131 316 148T336 191L381 511H579Q527 161 527 140Z" />
<glyph unicode="&#xfc;" glyph-name="udieresis" horiz-adv-x="627" d="M322 720L301 573H149L170 720H322ZM542 720L521 573H369L390 720H542ZM527 161T527 140Q527 126 535 119T554 111Q569 111 590 120L575 13Q538 -10 471 -10Q407 -10 376 10T335 71Q312 42
271 16T168 -10Q99 -10 62 26T24 119Q24 146 40 262T77 511H275L252 352Q243 299 237 249T229 181Q229 159 241 145T275 131Q300 131 316 148T336 191L381 511H579Q527 161 527 140Z" />
<glyph unicode="&#xfd;" glyph-name="yacute" horiz-adv-x="552" d="M519 720L520 717L374 575H256L368 720H519ZM347 36Q296 -65 222 -126T61 -187Q-8 -187 -34 -172L-17 -43Q-7 -48 14 -52T56 -57Q121 -57 144 15L26 511H237L278 246H286L391 511H586L347 36Z" />
<glyph unicode="&#xfe;" glyph-name="thorn" horiz-adv-x="599" d="M270 458Q319 521 411 521Q484 521 528 471T572 326Q572 299 567 261L566 250Q554 166 521 107T439 19T336 -10Q242 -10 213 53L180 -181H-17L109 720H307L270 458ZM298 400T277 380T252 330L232
185Q231 182 231 173Q231 148 246 132T284 115Q309 115 330 135T356 185L377 340Q377 366 362 383T324 400Q298 400 277 380Z" />
<glyph unicode="&#xff;" glyph-name="ydieresis" horiz-adv-x="552" d="M300 720L279 573H127L148 720H300ZM520 720L499 573H347L368 720H520ZM347 36Q296 -65 222 -126T61 -187Q-8 -187 -34 -172L-17 -43Q-7 -48 14 -52T56 -57Q121 -57 144 15L26 511H237L278
246H286L391 511H586L347 36Z" />
<glyph unicode="&#x2013;" glyph-name="endash" horiz-adv-x="597" d="M557 354L534 196H35L57 354H557Z" />
<glyph unicode="&#x2014;" glyph-name="emdash" horiz-adv-x="1015" d="M970 354L947 196H38L60 354H970Z" />
<glyph unicode="&#x2018;" glyph-name="quoteleft" horiz-adv-x="272" d="M241 686L181 521H265L239 338H48L71 499L147 686H241Z" />
<glyph unicode="&#x2019;" glyph-name="quoteright" horiz-adv-x="265" d="M282 686L259 525L183 338H89L149 503H65L91 686H282Z" />
<glyph unicode="&#x201a;" glyph-name="quotesinglbase" horiz-adv-x="286" d="M224 183L201 22L125 -165H31L91 0H7L33 183H224Z" />
<glyph unicode="&#x201c;" glyph-name="quotedblleft" horiz-adv-x="514" d="M284 686L258 503H174L188 338H94L70 525L93 686H284ZM532 686L506 503H422L436 338H342L318 525L341 686H532Z" />
<glyph unicode="&#x201d;" glyph-name="quotedblright" horiz-adv-x="513" d="M282 686L259 525L183 338H89L149 503H65L91 686H282ZM530 686L507 525L431 338H337L397 503H313L339 686H530Z" />
<glyph unicode="&#x201e;" glyph-name="quotedblbase" horiz-adv-x="534" d="M224 183L201 22L125 -165H31L91 0H7L33 183H224ZM472 183L449 22L373 -165H279L339 0H255L281 183H472Z" />
<glyph unicode="&#x2022;" glyph-name="bullet" horiz-adv-x="600" d="M374 514T408 495T462 442T481 367Q481 309 451 264T375 195T282 171Q218 171 176 212T134 317Q134 370 161 415T234 487T331 514Q374 514 408 495Z" />
<glyph unicode="&#x2039;" glyph-name="guilsinglleft" horiz-adv-x="261" d="M255 511L146 337L206 163H132L37 337L181 511H255Z" />
<glyph unicode="&#x203a;" glyph-name="guilsinglright" horiz-adv-x="262" d="M142 511L238 337L93 163H19L129 337L68 511H142Z" />
</font>
</defs>
</svg>
