<?xml version="1.0" standalone="no"?>
<!DOCTYPE svg PUBLIC "-//W3C//DTD SVG 1.1//EN" "http://www.w3.org/Graphics/SVG/1.1/DTD/svg11.dtd">
<svg xmlns="http://www.w3.org/2000/svg">
<defs >
<font id="Assistant" horiz-adv-x="458" ><font-face
    font-family="Assistant ExtraLight"
    units-per-em="1000"
    panose-1="0 0 3 0 0 0 0 0 0 0"
    ascent="1021"
    descent="-287"
    alphabetic="0" />
<glyph unicode=" " glyph-name="space" horiz-adv-x="200" />
<glyph unicode="!" glyph-name="exclam" horiz-adv-x="248" d="M108 608V670H140V608L136 172H112L108 608ZM110 -12T99 -2T88 26Q88 45 99 55T124 66Q139 66 149 56T160 26Q160 9 149 -1T124 -12Q110 -12 99 -2Z" />
<glyph unicode="&quot;" glyph-name="quotedbl" horiz-adv-x="336" d="M84 634V694H122V634L116 494H90L84 634ZM212 634V694H250V634L244 494H218L212 634Z" />
<glyph unicode="#" glyph-name="numbersign" horiz-adv-x="472" d="M120 218H36V246H124L146 424H56V452H148L174 650H202L176 452H332L358 650H386L360 452H442V424H358L336 246H422V218H332L306 0H278L304 218H148L122 0H94L120 218ZM308 246L330 424H174L152 246H308Z" />
<glyph unicode="$" glyph-name="dollar" horiz-adv-x="472" d="M412 79T369 36T258 -12V-110H228V-11Q179 -8 137 14T62 66L80 88Q156 16 244 16Q309 16 344 52T380 146Q380 195 360 228T312 280T233 325Q185 349 156 368T108 420T88 500Q88 562 127 604T228 651V750H258V652Q303
649 333 632T394 582L374 562Q341 595 314 609T242 624Q189 624 155 589T120 502Q120 461 138 434T181 389T253 349Q305 324 336 303T390 244T412 148Q412 79 369 36Z" />
<glyph unicode="%" glyph-name="percent" horiz-adv-x="798" d="M115 258T79 312T42 466Q42 564 78 618T180 672Q245 672 281 618T318 466Q318 366 282 312T180 258Q115 258 79 312ZM566 672H598L228 -12H196L566 672ZM230 284T259 332T288 466Q288 551 259 598T180
646Q130 646 101 599T72 466Q72 381 101 333T180 284Q230 284 259 332ZM553 -12T517 42T480 196Q480 294 516 348T618 402Q683 402 719 348T756 196Q756 96 720 42T618 -12Q553 -12 517 42ZM668 14T697 62T726 196Q726 281 697 328T618 376Q568 376 539 329T510
196Q510 111 539 63T618 14Q668 14 697 62Z" />
<glyph unicode="&amp;" glyph-name="ampersand" horiz-adv-x="562" d="M538 -12Q475 12 401 74Q362 33 319 11T224 -12Q174 -12 131 10T63 72T38 166Q38 223 73 267T175 362Q130 454 130 528Q130 591 166 631T260 672Q309 672 336 640T364 556Q364 517 343 483T293
424T210 357Q244 292 294 229T399 115Q470 203 508 342H538Q496 193 420 97Q490 39 550 16L538 -12ZM160 465T199 380Q244 414 271 438T316 491T334 554Q334 591 316 617T258 644Q213 644 187 611T160 530Q160 465 199 380ZM306 16T380 93Q323 146 273 209T187
339Q131 295 101 256T70 168Q70 123 91 89T148 35T226 16Q306 16 380 93Z" />
<glyph unicode="&apos;" glyph-name="quotesingle" horiz-adv-x="208" d="M84 634V694H122V634L116 494H90L84 634Z" />
<glyph unicode="(" glyph-name="parenleft" horiz-adv-x="270" d="M158 -70T124 40T90 278Q90 405 124 515T222 730L240 718Q180 624 149 511T118 278Q118 158 149 45T240 -162L222 -174Q158 -70 124 40Z" />
<glyph unicode=")" glyph-name="parenright" horiz-adv-x="270" d="M30 -162Q90 -68 121 45T152 278Q152 398 121 511T30 718L48 730Q112 626 146 516T180 278Q180 151 146 41T48 -174L30 -162Z" />
<glyph unicode="*" glyph-name="asterisk" horiz-adv-x="386" d="M108 494L162 580L74 614L82 638L174 612L180 712H206L212 614L304 638L312 614L224 580L278 494L256 478L194 560L130 478L108 494Z" />
<glyph unicode="+" glyph-name="plus" horiz-adv-x="472" d="M220 316H34V344H220V548H252V344H438V316H252V112H220V316Z" />
<glyph unicode="," glyph-name="comma" horiz-adv-x="208" d="M128 66T140 49T152 4Q152 -45 127 -85T60 -150L48 -126Q80 -107 99 -76T120 -5Q116 -6 108 -6Q92 -6 82 3T72 30Q72 47 82 56T108 66Q128 66 140 49Z" />
<glyph unicode="-" glyph-name="hyphen" horiz-adv-x="294" d="M40 264H256V234H40V264Z" />
<glyph unicode="." glyph-name="period" horiz-adv-x="208" d="M90 -12T79 -2T68 26Q68 45 79 55T104 66Q119 66 129 56T140 26Q140 9 129 -1T104 -12Q90 -12 79 -2Z" />
<glyph unicode="/" glyph-name="slash" horiz-adv-x="360" d="M328 710H358L38 -160H8L328 710Z" />
<glyph unicode="0" glyph-name="zero" horiz-adv-x="472" d="M146 -12T98 75T50 322Q50 481 98 566T236 652Q326 652 374 567T422 322Q422 162 374 75T236 -12Q146 -12 98 75ZM308 16T349 96T390 322Q390 468 349 546T236 624Q164 624 123 546T82 322Q82 176 123
96T236 16Q308 16 349 96Z" />
<glyph unicode="1" glyph-name="one" horiz-adv-x="434" d="M55 28H207V580H93V602Q165 613 211 640H237V28H379V0H55V28Z" />
<glyph unicode="2" glyph-name="two" horiz-adv-x="472" d="M42 20Q162 144 228 220T328 358T362 476Q362 542 326 583T216 624Q173 624 134 601T62 538L40 558Q79 602 122 627T218 652Q301 652 347 605T394 476Q394 414 359 350T266 218T88 24Q160 28 196 28H426V0H42V20Z"
/>
<glyph unicode="3" glyph-name="three" horiz-adv-x="472" d="M161 -12T115 13T30 78L50 100Q85 62 127 39T232 16Q300 16 344 57T388 166Q388 238 332 280T158 322V352Q265 352 314 392T364 498Q364 555 327 589T228 624Q185 624 146 604T78 552L58 574Q136 652
228 652Q301 652 348 611T396 500Q396 439 362 399T272 340V336Q335 323 377 279T420 168Q420 114 395 73T327 10T230 -12Q161 -12 115 13Z" />
<glyph unicode="4" glyph-name="four" horiz-adv-x="472" d="M440 196H342V0H312V196H16V212L322 640H342V224H440V196ZM312 224V476Q312 526 316 582H312Q307 574 299 563T285 542Q267 517 260 506L58 224H312Z" />
<glyph unicode="5" glyph-name="five" horiz-adv-x="472" d="M156 -12T111 11T26 74L46 96Q81 59 122 38T226 16Q270 16 308 39T369 104T392 198Q392 279 348 325T228 372Q193 372 166 361T106 328L80 344L104 640H390V612H132L110 366Q138 383 166 392T230 402Q316
402 370 351T424 200Q424 135 396 87T321 14T224 -12Q156 -12 111 11Z" />
<glyph unicode="6" glyph-name="six" horiz-adv-x="472" d="M336 384T382 333T428 186Q428 130 405 85T343 14T258 -12Q162 -12 108 67T54 288Q54 478 119 565T286 652Q361 652 414 592L394 570Q373 597 345 610T284 624Q197 624 142 545T86 293Q121 336 164 360T252
384Q336 384 382 333ZM298 16T329 39T378 100T396 186Q396 263 360 309T250 356Q212 356 169 332T87 255Q93 145 136 81T260 16Q298 16 329 39Z" />
<glyph unicode="7" glyph-name="seven" horiz-adv-x="472" d="M199 196T244 335T388 612H44V640H430V622Q354 521 312 427T250 233T226 0H192Q199 196 244 335Z" />
<glyph unicode="8" glyph-name="eight" horiz-adv-x="472" d="M183 -12T138 11T66 74T40 164Q40 224 78 272T170 348V352Q130 378 104 414T78 498Q78 542 99 577T158 632T240 652Q319 652 364 606T410 486Q410 438 382 394T318 320V316Q371 283 400 248T430 154Q430
108 406 70T339 10T240 -12Q183 -12 138 11ZM378 401T378 486Q378 544 341 584T240 624Q183 624 147 588T110 498Q110 453 134 422T195 372T288 330Q378 401 378 486ZM287 16T323 34T378 84T398 154Q398 202 371 234T305 286T194 334Q72 264 72 164Q72 123 93 90T153
36T240 16Q287 16 323 34Z" />
<glyph unicode="9" glyph-name="nine" horiz-adv-x="472" d="M310 652T364 573T418 352Q418 162 353 75T186 -12Q110 -12 58 48L78 70Q99 43 127 30T188 16Q275 16 330 95T386 347Q351 304 308 280T220 256Q136 256 90 307T44 454Q44 510 67 555T129 626T214 652Q310
652 364 573ZM260 284T303 308T385 385Q379 495 336 559T212 624Q174 624 143 601T94 540T76 454Q76 377 112 331T222 284Q260 284 303 308Z" />
<glyph unicode=":" glyph-name="colon" horiz-adv-x="208" d="M90 378T79 388T68 416Q68 435 79 445T104 456Q119 456 129 446T140 416Q140 399 129 389T104 378Q90 378 79 388ZM90 -12T79 -2T68 26Q68 45 79 55T104 66Q119 66 129 56T140 26Q140 9 129 -1T104
-12Q90 -12 79 -2Z" />
<glyph unicode=";" glyph-name="semicolon" horiz-adv-x="208" d="M90 378T79 388T68 416Q68 435 79 445T104 456Q119 456 129 446T140 416Q140 399 129 389T104 378Q90 378 79 388ZM128 66T140 49T152 4Q152 -45 127 -85T60 -150L48 -126Q80 -107 99 -76T120
-5Q116 -6 108 -6Q92 -6 82 3T72 30Q72 47 82 56T108 66Q128 66 140 49Z" />
<glyph unicode="&lt;" glyph-name="less" horiz-adv-x="472" d="M34 314V350L438 512V480L66 334V330L438 184V152L34 314Z" />
<glyph unicode="=" glyph-name="equal" horiz-adv-x="472" d="M34 444H438V416H34V444ZM34 500H438V472H34V500Z" />
<glyph unicode="&gt;" glyph-name="greater" horiz-adv-x="472" d="M34 184L406 330V334L34 480V512L438 350V314L34 152V184Z" />
<glyph unicode="?" glyph-name="question" horiz-adv-x="394" d="M162 192T162 202Q162 253 182 292T241 382Q276 428 293 459T310 530Q310 582 280 618T190 654Q152 654 117 637T56 588L36 606Q105 682 192 682Q262 682 302 639T342 532Q342 490 324 456T268
370Q229 319 210 282T190 197Q190 190 192 172H164Q162 192 162 202ZM168 -12T157 -2T146 26Q146 45 157 55T182 66Q197 66 207 56T218 26Q218 9 207 -1T182 -12Q168 -12 157 -2Z" />
<glyph unicode="@" glyph-name="at" horiz-adv-x="802" d="M286 -142T211 -101T94 18T52 202Q52 327 105 424T248 574T442 628Q536 628 605 590T712 481T750 316Q750 236 723 178T655 89T572 58Q531 58 506 77T478 134H476Q445 101 416 83T354 64Q306 64 274 99T242
198Q242 247 264 299T328 385T426 420Q480 420 510 372H512L520 412H546L512 228Q503 191 503 162Q503 86 574 86Q607 86 641 113T697 193T720 314Q720 401 686 465T588 565T440 600Q347 600 265 551T132 411T82 204Q82 108 119 36T225 -75T384 -114Q474 -114 554
-64L568 -88Q484 -142 382 -142Q286 -142 211 -101ZM409 92T470 162L502 340Q483 370 466 381T424 392Q379 392 345 363T291 290T272 200Q272 144 295 118T356 92Q409 92 470 162Z" />
<glyph unicode="A" glyph-name="A" horiz-adv-x="520" d="M394 236H125L42 0H10L246 660H274L510 0H476L394 236ZM384 264L338 396Q285 547 262 626H258Q235 547 182 396L135 264H384Z" />
<glyph unicode="B" glyph-name="B" horiz-adv-x="574" d="M100 660H272Q373 660 429 620T486 500Q486 447 459 409T382 356V352Q450 341 489 300T528 192Q528 99 463 50T284 0H100V660ZM252 366Q454 366 454 498Q454 570 406 601T258 632H132V366H252ZM272 28Q379
28 437 68T496 190Q496 264 438 301T272 338H132V28H272Z" />
<glyph unicode="C" glyph-name="C" horiz-adv-x="562" d="M248 -12T186 30T90 151T56 332Q56 435 90 512T188 630T334 672Q387 672 430 650T502 594L482 572Q454 605 417 623T334 642Q259 642 204 604T120 497T90 332Q90 238 119 167T202 57T330 18Q382 18 423
38T502 102L522 82Q482 36 436 12T328 -12Q248 -12 186 30Z" />
<glyph unicode="D" glyph-name="D" horiz-adv-x="600" d="M100 660H248Q396 660 470 573T544 332Q544 179 470 90T248 0H100V660ZM244 28Q379 28 444 111T510 332Q510 470 445 551T244 632H132V28H244Z" />
<glyph unicode="E" glyph-name="E" horiz-adv-x="510" d="M100 660H454V632H132V366H402V338H132V28H464V0H100V660Z" />
<glyph unicode="F" glyph-name="F" horiz-adv-x="470" d="M100 660H452V632H132V354H402V326H132V0H100V660Z" />
<glyph unicode="G" glyph-name="G" horiz-adv-x="600" d="M251 -12T188 30T91 151T56 332Q56 435 91 512T192 630T344 672Q446 672 520 594L500 572Q437 642 344 642Q266 642 209 604T121 496T90 332Q90 237 119 166T204 57T336 18Q384 18 426 32T494 72V290H330V318H526V62Q495
28 446 8T334 -12Q251 -12 188 30Z" />
<glyph unicode="H" glyph-name="H" horiz-adv-x="634" d="M100 660H132V366H502V660H534V0H502V338H132V0H100V660Z" />
<glyph unicode="I" glyph-name="I" horiz-adv-x="232" d="M100 660H132V0H100V660Z" />
<glyph unicode="J" glyph-name="J" horiz-adv-x="456" d="M148 -12T108 12T44 82L70 98Q95 55 126 37T202 18Q265 18 295 57T326 178V660H358V174Q358 90 320 39T200 -12Q148 -12 108 12Z" />
<glyph unicode="K" glyph-name="K" horiz-adv-x="550" d="M100 660H132V280H134L470 660H510L298 418L538 0H500L274 394L132 234V0H100V660Z" />
<glyph unicode="L" glyph-name="L" horiz-adv-x="460" d="M100 660H132V28H442V0H100V660Z" />
<glyph unicode="M" glyph-name="M" horiz-adv-x="698" d="M100 660H152L294 260L348 110H352Q370 160 378 185L404 260L546 660H598V0H566V460Q566 524 570 632H566L515 486L366 74H332L182 486L130 632H126Q130 524 130 460V0H100V660Z" />
<glyph unicode="N" glyph-name="N" horiz-adv-x="632" d="M100 660H134L426 176L502 46H506Q502 174 502 232V660H532V0H498L206 484L130 614H126Q130 490 130 434V0H100V660Z" />
<glyph unicode="O" glyph-name="O" horiz-adv-x="648" d="M246 -12T186 30T91 151T56 332Q56 434 90 511T185 630T324 672Q402 672 463 630T558 511T592 332Q592 230 558 152T463 31T324 -12Q246 -12 186 30ZM393 18T446 57T529 167T558 332Q558 426 529 496T447
604T324 642Q254 642 201 604T119 496T90 332Q90 238 119 167T201 57T324 18Q393 18 446 57Z" />
<glyph unicode="P" glyph-name="P" horiz-adv-x="542" d="M100 660H258Q375 660 434 618T494 480Q494 387 434 340T262 292H132V0H100V660ZM250 320Q358 320 409 358T460 480Q460 564 409 598T246 632H132V320H250Z" />
<glyph unicode="Q" glyph-name="Q" horiz-adv-x="648" d="M550 -120T582 -112L590 -142Q550 -152 514 -152Q437 -152 383 -114T304 -11Q231 -6 175 38T88 158T56 332Q56 434 90 511T185 630T324 672Q402 672 463 630T558 511T592 332Q592 233 560 157T471 37T341
-11Q363 -63 408 -91T516 -120Q550 -120 582 -112ZM90 238T119 167T202 56T324 16Q393 16 446 55T528 166T558 332Q558 426 529 496T447 604T324 642Q254 642 201 604T119 496T90 332Q90 238 119 167Z" />
<glyph unicode="R" glyph-name="R" horiz-adv-x="534" d="M466 0L280 312H132V0H100V660H282Q494 660 494 490Q494 412 447 367T316 314L504 0H466ZM270 340Q363 340 411 377T460 490Q460 566 413 599T270 632H132V340H270Z" />
<glyph unicode="S" glyph-name="S" horiz-adv-x="516" d="M134 -12T48 88L70 110Q107 67 158 43T268 18Q347 18 394 57T442 160Q442 201 427 228T386 271T320 306L218 352Q159 379 122 414T84 514Q84 560 108 596T174 652T270 672Q326 672 372 650T450 594L430
572Q400 605 360 623T270 642Q201 642 159 608T116 516Q116 478 133 452T174 412T232 382L334 336Q378 316 407 296T455 243T474 162Q474 112 449 73T376 11T268 -12Q134 -12 48 88Z" />
<glyph unicode="T" glyph-name="T" horiz-adv-x="520" d="M244 632H30V660H490V632H276V0H244V632Z" />
<glyph unicode="U" glyph-name="U" horiz-adv-x="630" d="M221 -12T160 47T98 246V660H130V254Q130 127 181 73T314 18Q397 18 449 72T502 254V660H532V246Q532 106 470 47T314 -12Q221 -12 160 47Z" />
<glyph unicode="V" glyph-name="V" horiz-adv-x="482" d="M6 660H40L168 264L186 207Q214 118 240 41H244Q270 118 298 207L316 264L444 660H476L258 0H226L6 660Z" />
<glyph unicode="W" glyph-name="W" horiz-adv-x="764" d="M30 660H64L152 260L200 44H204Q220 116 256 260L364 660H400L508 260L562 44H566Q582 116 589 152L612 260L700 660H732L580 0H548L420 474L402 548L384 622H380Q370 580 361 548Q357 534 352 516T342
474L216 0H184L30 660Z" />
<glyph unicode="X" glyph-name="X" horiz-adv-x="470" d="M218 342L32 660H66L182 456L236 368H240Q275 431 290 456L406 660H438L252 340L452 0H418L296 212Q262 269 254 282L234 316H230L172 212L50 0H18L218 342Z" />
<glyph unicode="Y" glyph-name="Y" horiz-adv-x="436" d="M202 272L4 660H38L144 446L162 410Q184 364 216 304H220L234 329Q279 412 294 446L400 660H432L234 272V0H202V272Z" />
<glyph unicode="Z" glyph-name="Z" horiz-adv-x="538" d="M52 18L444 632H86V660H484V642L92 28H488V0H52V18Z" />
<glyph unicode="[" glyph-name="bracketleft" horiz-adv-x="270" d="M100 708H252V686H124V-130H252V-152H100V708Z" />
<glyph unicode="\" glyph-name="backslash" horiz-adv-x="360" d="M2 710H32L352 -160H322L2 710Z" />
<glyph unicode="]" glyph-name="bracketright" horiz-adv-x="270" d="M18 -130H146V686H18V708H170V-152H18V-130Z" />
<glyph unicode="^" glyph-name="asciicircum" horiz-adv-x="472" d="M218 670H254L404 292H372L290 506L238 638H234L182 506L100 292H68L218 670Z" />
<glyph unicode="_" glyph-name="underscore" horiz-adv-x="500" d="M12 -82H488V-114H12V-82Z" />
<glyph unicode="`" glyph-name="grave" horiz-adv-x="532" d="M162 724L186 744L318 590L300 574L162 724Z" />
<glyph unicode="a" glyph-name="a" horiz-adv-x="486" d="M138 -12T99 20T60 117Q60 196 134 238T374 298Q376 368 350 415T256 462Q210 462 170 445T100 404L84 428Q116 452 161 471T258 490Q336 490 370 441T404 310V0H378L374 64H372Q277 -12 198 -12Q138 -12
99 20ZM242 16T283 36T374 98V272Q220 254 156 218T92 118Q92 66 122 41T200 16Q242 16 283 36Z" />
<glyph unicode="b" glyph-name="b" horiz-adv-x="538" d="M240 -12T202 4T128 48H126L122 0H96V722H126V508L124 412Q217 490 294 490Q389 490 437 425T486 246Q486 168 458 109T381 19T274 -12Q240 -12 202 4ZM327 16T367 45T431 127T454 246Q454 344 415 403T292
462Q219 462 126 378V82Q165 48 205 32T276 16Q327 16 367 45Z" />
<glyph unicode="c" glyph-name="c" horiz-adv-x="446" d="M207 -12T158 18T82 104T54 238Q54 315 83 372T161 460T268 490Q313 490 346 474T408 430L388 408Q330 462 268 462Q217 462 176 434T110 354T86 238Q86 173 108 123T172 44T268 16Q340 16 402 74L420
52Q349 -12 268 -12Q207 -12 158 18Z" />
<glyph unicode="d" glyph-name="d" horiz-adv-x="540" d="M160 -12T107 53T54 238Q54 313 83 370T161 459T268 490Q309 490 342 476T416 430L414 520V722H444V0H418L414 64H412Q336 -12 252 -12Q160 -12 107 53ZM295 16T333 37T414 100V396Q374 431 339 446T266
462Q216 462 175 432T110 351T86 238Q86 137 130 77T254 16Q295 16 333 37Z" />
<glyph unicode="e" glyph-name="e" horiz-adv-x="478" d="M440 250T438 238H86Q86 171 110 121T178 43T274 16Q345 16 406 60L420 34Q383 12 352 0T272 -12Q212 -12 162 18T83 105T54 238Q54 313 83 370T159 459T260 490Q344 490 392 433T440 270Q440 250 438
238ZM410 266Q410 362 370 412T260 462Q218 462 181 440T118 374T87 266H410Z" />
<glyph unicode="f" glyph-name="f" horiz-adv-x="252" d="M130 706T130 592V478H244V450H130V0H100V450H34V474L100 478V596Q100 665 129 699T210 734Q241 734 276 718L266 692Q238 706 208 706Q130 706 130 592Z" />
<glyph unicode="g" glyph-name="g" horiz-adv-x="480" d="M159 -234T107 -198T54 -100Q54 -69 73 -38T126 18V22Q107 33 96 52T84 98Q84 127 100 149T136 186V190Q111 212 94 247T76 322Q76 369 97 407T157 468T240 490Q274 490 302 478H462V450H346Q372 428 388
395T404 322Q404 275 382 236T323 175T240 152Q219 152 197 158T158 174Q138 158 127 141T116 100Q116 34 210 34H316Q395 34 432 8T470 -74Q470 -115 443 -151T365 -211T250 -234Q159 -234 107 -198ZM275 180T305 198T354 248T372 322Q372 384 334 423T240 462Q184
462 146 424T108 322Q108 281 126 249T174 198T240 180Q275 180 305 198ZM307 -206T349 -188T415 -139T438 -76Q438 -35 409 -17T322 2H212Q189 2 154 10Q120 -13 103 -41T86 -98Q86 -147 130 -176T252 -206Q307 -206 349 -188Z" />
<glyph unicode="h" glyph-name="h" horiz-adv-x="522" d="M96 722H126V400Q170 444 209 467T294 490Q368 490 403 446T438 308V0H408V304Q408 385 381 423T292 462Q249 462 213 440T126 366V0H96V722Z" />
<glyph unicode="i" glyph-name="i" horiz-adv-x="222" d="M96 478H126V0H96V478ZM98 600T89 610T80 636Q80 651 89 660T112 670Q126 670 135 661T144 636Q144 620 135 610T112 600Q98 600 89 610Z" />
<glyph unicode="j" glyph-name="j" horiz-adv-x="222" d="M126 670T135 661T144 636Q144 620 135 610T112 600Q98 600 89 610T80 636Q80 651 89 660T112 670Q126 670 135 661ZM96 478H126V-102Q126 -170 102 -202T28 -234Q14 -234 -2 -231T-30 -222L-22 -196Q8
-206 30 -206Q69 -206 82 -179T96 -98V478Z" />
<glyph unicode="k" glyph-name="k" horiz-adv-x="452" d="M96 722H126V174H128L376 478H412L258 290L440 0H406L240 266L126 132V0H96V722Z" />
<glyph unicode="l" glyph-name="l" horiz-adv-x="230" d="M96 -12T96 52V722H126V46Q126 31 131 24T146 16Q154 16 164 18L170 -8Q154 -12 144 -12Q96 -12 96 52Z" />
<glyph unicode="m" glyph-name="m" horiz-adv-x="806" d="M96 478H122L126 402H128Q163 442 203 466T280 490Q385 490 412 390Q502 490 576 490Q647 490 682 445T718 308V0H688V304Q688 384 660 423T574 462Q539 462 502 439T422 366V0H392V304Q392 384 364 423T278
462Q210 462 126 366V0H96V478Z" />
<glyph unicode="n" glyph-name="n" horiz-adv-x="526" d="M96 478H122L126 402H128Q171 445 209 467T294 490Q368 490 403 446T438 308V0H408V304Q408 385 381 423T292 462Q249 462 213 440T126 366V0H96V478Z" />
<glyph unicode="o" glyph-name="o" horiz-adv-x="532" d="M208 -12T160 18T83 105T54 238Q54 315 82 372T159 460T266 490Q324 490 372 460T449 373T478 238Q478 162 450 105T373 18T266 -12Q208 -12 160 18ZM317 16T358 44T422 122T446 238Q446 303 423 354T358
433T266 462Q215 462 174 434T110 354T86 238Q86 173 109 123T174 44T266 16Q317 16 358 44Z" />
<glyph unicode="p" glyph-name="p" horiz-adv-x="540" d="M96 478H122L126 416H128Q221 490 294 490Q389 490 437 425T486 246Q486 168 458 109T381 19T274 -12Q208 -12 126 48V-222H96V478ZM327 16T367 45T431 127T454 246Q454 344 415 403T292 462Q222 462 126
378V82Q167 48 206 32T276 16Q327 16 367 45Z" />
<glyph unicode="q" glyph-name="q" horiz-adv-x="540" d="M414 -32L416 66Q334 -12 252 -12Q160 -12 107 53T54 238Q54 313 83 370T161 459T268 490Q309 490 341 476T412 434H414L418 478H444V-222H414V-32ZM295 16T333 37T414 100V396Q374 431 339 446T266 462Q216
462 175 432T110 351T86 238Q86 137 130 77T254 16Q295 16 333 37Z" />
<glyph unicode="r" glyph-name="r" horiz-adv-x="306" d="M96 478H122L126 388H128Q154 435 188 462T264 490Q290 490 310 480L302 452Q289 457 281 458T260 460Q224 460 189 429T126 332V0H96V478Z" />
<glyph unicode="s" glyph-name="s" horiz-adv-x="400" d="M157 -12T113 6T34 54L54 78Q89 48 125 32T210 16Q267 16 299 45T332 118Q332 161 300 185T212 230Q161 248 131 262T78 302T56 366Q56 418 96 454T206 490Q241 490 276 477T338 442L320 418Q292 439 265
450T204 462Q148 462 118 435T88 368Q88 341 104 323T142 293T204 266Q213 262 263 244T338 195T364 120Q364 84 346 54T292 6T208 -12Q157 -12 113 6Z" />
<glyph unicode="t" glyph-name="t" horiz-adv-x="302" d="M156 -12T131 23T106 126V450H30V474L106 478L110 618H136V478H278V450H136V122Q136 70 153 43T220 16Q246 16 282 32L292 6Q242 -12 218 -12Q156 -12 131 23Z" />
<glyph unicode="u" glyph-name="u" horiz-adv-x="524" d="M158 -12T123 32T88 170V478H118V174Q118 93 145 55T234 16Q278 16 315 40T398 120V478H428V0H402L398 82H396Q357 36 318 12T232 -12Q158 -12 123 32Z" />
<glyph unicode="v" glyph-name="v" horiz-adv-x="422" d="M12 478H46L160 168Q179 113 210 32H214Q245 113 264 168L378 478H410L230 0H194L12 478Z" />
<glyph unicode="w" glyph-name="w" horiz-adv-x="672" d="M24 478H58L150 156L161 117Q182 38 184 30H188L200 72L224 156L316 478H358L450 156L474 72L486 30H490L502 72L526 156L616 478H648L508 0H466L376 312Q372 326 357 380Q347 419 338 448H334Q310 356
294 310L206 0H168L24 478Z" />
<glyph unicode="x" glyph-name="x" horiz-adv-x="392" d="M178 250L28 478H62L144 350Q160 324 196 272H200Q218 298 226 311L252 350L332 478H364L214 248L378 0H344L254 138Q229 180 196 226H192Q192 226 156 172Q137 142 134 138L46 0H14L178 250Z" />
<glyph unicode="y" glyph-name="y" horiz-adv-x="424" d="M40 -222T20 -212L28 -184Q48 -192 68 -192Q111 -192 143 -156T196 -56L210 -12L12 478H46L168 164L182 129Q211 55 222 30H226Q236 56 243 77T256 115Q259 124 272 164L380 478H412L220 -68Q199 -133
161 -177T66 -222Q40 -222 20 -212Z" />
<glyph unicode="z" glyph-name="z" horiz-adv-x="396" d="M26 16L320 450H58V478H360V462L66 28H370V0H26V16Z" />
<glyph unicode="{" glyph-name="braceleft" horiz-adv-x="270" d="M165 -152T140 -125T114 -26Q114 12 118 82Q122 150 122 184Q122 266 36 266V290Q122 290 122 370Q122 405 118 475Q114 545 114 582Q114 654 139 681T222 708H252V686H220Q174 686 157 661T140
578Q140 531 143 486Q143 471 144 440T146 382Q146 337 136 313T98 280V276Q125 267 135 243T146 174Q146 148 145 117T143 70Q140 25 140 -22Q140 -79 157 -104T220 -130H252V-152H222Q165 -152 140 -125Z" />
<glyph unicode="|" glyph-name="bar" horiz-adv-x="220" d="M96 750H124V-250H96V750Z" />
<glyph unicode="}" glyph-name="braceright" horiz-adv-x="270" d="M18 -130H50Q96 -130 113 -105T130 -22Q130 25 127 70Q127 85 126 116T124 174Q124 218 134 242T172 276V280Q145 289 135 313T124 382Q124 408 125 439T127 486Q130 531 130 578Q130 635 113
660T50 686H18V708H48Q105 708 130 681T156 582Q156 545 152 475Q148 405 148 370Q148 290 234 290V266Q148 266 148 184Q148 150 152 82Q156 12 156 -26Q156 -98 131 -125T48 -152H18V-130Z" />
<glyph unicode="~" glyph-name="asciitilde" horiz-adv-x="472" d="M299 270T276 283T222 321Q196 342 179 352T144 362Q120 362 101 348T64 298L42 310Q61 349 88 369T146 390Q173 390 196 377T250 339Q276 318 293 308T328 298Q352 298 371 312T408 362L430
348Q411 310 384 290T326 270Q299 270 276 283Z" />
<glyph unicode="&#xa0;" glyph-name="uni00A0" horiz-adv-x="198" />
<glyph unicode="&#xa1;" glyph-name="exclamdown" horiz-adv-x="248" d="M110 412T99 423T88 452Q88 469 99 479T124 490Q138 490 149 480T160 452Q160 434 150 423T124 412Q110 412 99 423ZM108 -130L112 306H136L140 -130V-192H108V-130Z" />
<glyph unicode="&#xa2;" glyph-name="cent" horiz-adv-x="472" d="M358 85T280 84V-26H252V85Q167 93 115 153T62 312Q62 379 87 428T156 505T252 539V652H280V540Q323 539 355 523T416 480L398 460Q344 511 280 512V112Q350 113 410 168L428 148Q358 85 280 84ZM94
229T137 175T252 113V510Q183 502 139 448T94 312Q94 229 137 175Z" />
<glyph unicode="&#xa3;" glyph-name="sterling" horiz-adv-x="472" d="M418 28V0H58V18Q112 49 138 102T164 218Q164 254 154 296H54V322L120 324H146L137 354Q124 401 118 428T112 486Q112 563 156 607T276 652Q362 652 416 582L394 562Q370 591 342 607T274
624Q212 624 178 585T144 488Q144 459 150 433T168 362Q177 333 179 324H346V296H185Q194 260 194 218Q194 155 175 112T118 32V28H418Z" />
<glyph unicode="&#xa4;" glyph-name="currency" horiz-adv-x="472" d="M32 140L98 208Q60 259 60 328Q60 400 98 451L32 520L52 542L118 473Q141 496 171 508T236 520Q269 520 299 508T354 473L420 542L440 520L373 451Q412 399 412 328Q412 261 374 208L440 140L420
118L354 186Q331 163 300 151T236 138Q202 138 172 150T117 186L52 118L32 140ZM275 166T308 186T360 244T380 328Q380 375 361 412T308 471T236 492Q197 492 164 471T112 413T92 328Q92 281 111 244T164 187T236 166Q275 166 308 186Z" />
<glyph unicode="&#xa5;" glyph-name="yen" horiz-adv-x="472" d="M220 168H52V196H220V270H52V298H208L32 640H66L166 438Q210 350 234 300H238L269 362Q299 421 308 438L408 640H440L262 298H420V270H250V196H420V168H250V0H220V168Z" />
<glyph unicode="&#xa6;" glyph-name="brokenbar" horiz-adv-x="220" d="M96 750H124V274H96V750ZM96 222H124V-250H96V222Z" />
<glyph unicode="&#xa7;" glyph-name="section" horiz-adv-x="472" d="M420 237T398 208T333 157Q368 122 368 72Q368 38 349 11T299 -32T232 -48Q143 -48 76 12L98 34Q126 7 156 -6T232 -20Q279 -20 308 6T338 70Q338 102 321 124T278 160T208 193Q156 215 126
233T74 281T52 356Q52 402 75 432T142 487Q108 519 108 568Q108 596 122 621T166 663T238 680Q310 680 372 628L354 606Q326 629 300 640T238 652Q188 652 163 628T138 570Q138 540 155 519T197 483T264 451Q314 430 345 412T398 362T420 284Q420 237 398 208ZM351
196T370 218T390 282Q390 320 371 346T324 388T249 425Q189 451 165 468Q123 445 103 421T82 358Q82 322 101 297T147 257T221 221Q227 218 256 205T309 176Q351 196 370 218Z" />
<glyph unicode="&#xa8;" glyph-name="dieresis" horiz-adv-x="532" d="M166 602T157 611T148 634Q148 648 157 657T180 666Q193 666 202 657T212 634Q212 621 203 612T180 602Q166 602 157 611ZM339 602T330 611T320 634Q320 648 329 657T352 666Q366 666 375
657T384 634Q384 621 375 612T352 602Q339 602 330 611Z" />
<glyph unicode="&#xa9;" glyph-name="copyright" horiz-adv-x="740" d="M284 -12T211 30T95 148T52 322Q52 419 95 494T211 611T370 652Q456 652 529 611T645 495T688 322Q688 224 645 148T529 30T370 -12Q284 -12 211 30ZM447 14T513 53T618 162T658 322Q658
410 619 479T513 587T370 626Q293 626 227 588T122 480T82 322Q82 233 121 163T227 53T370 14Q447 14 513 53ZM327 124T288 147T226 216T202 322Q202 378 226 420T291 485T380 508Q417 508 444 495T498 454L480 432Q455 456 432 467T378 478Q316 478 276 435T236
322Q236 245 274 200T376 154Q439 154 496 206L512 184Q480 154 450 139T374 124Q327 124 288 147Z" />
<glyph unicode="&#xaa;" glyph-name="ordfeminine" horiz-adv-x="334" d="M97 402T71 425T44 492Q44 544 93 571T252 610Q252 656 236 682T180 708Q151 708 121 696T70 670L58 692Q82 708 114 721T182 734Q236 734 258 703T280 612V410H258L252 450H248Q192 402
140 402Q97 402 71 425ZM197 428T252 480V588Q156 578 115 555T74 494Q74 461 93 445T146 428Q197 428 252 480Z" />
<glyph unicode="&#xab;" glyph-name="guillemotleft" horiz-adv-x="388" d="M42 238V266L180 430L200 412L76 252L200 90L180 74L42 238ZM176 238V266L314 430L334 412L210 252L334 90L314 74L176 238Z" />
<glyph unicode="&#xac;" glyph-name="logicalnot" horiz-adv-x="472" d="M406 316H34V344H438V112H406V316Z" />
<glyph unicode="&#xad;" glyph-name="uni00AD" horiz-adv-x="294" d="M40 264H256V234H40V264Z" />
<glyph unicode="&#xae;" glyph-name="registered" horiz-adv-x="392" d="M147 326T106 350T41 418T16 518Q16 575 40 619T106 687T196 712Q245 712 286 688T351 619T376 518Q376 462 352 418T286 350T196 326Q147 326 106 350ZM238 352T272 373T327 433T348 518Q348
565 328 603T273 664T196 686Q154 686 120 664T65 604T44 518Q44 471 64 433T119 374T196 352Q238 352 272 373ZM130 626H196Q229 626 250 612T272 562Q272 543 261 527T232 506L282 418H248L208 496H158V418H130V626ZM188 522Q242 522 242 560Q242 600 192 600H158V522H188Z"
/>
<glyph unicode="&#xaf;" glyph-name="overscore" horiz-adv-x="532" d="M146 636H386V608H146V636Z" />
<glyph unicode="&#xb0;" glyph-name="degree" horiz-adv-x="304" d="M108 454T75 485T42 568Q42 621 74 652T152 684Q197 684 229 653T262 568Q262 516 229 485T152 454Q108 454 75 485ZM188 480T211 505T234 568Q234 607 211 632T152 658Q116 658 93 633T70 568Q70
530 93 505T152 480Q188 480 211 505Z" />
<glyph unicode="&#xb1;" glyph-name="plusminus" horiz-adv-x="472" d="M220 312H34V340H220V548H252V340H438V312H252V102H220V312ZM34 28H438V0H34V28Z" />
<glyph unicode="&#xb4;" glyph-name="acute" horiz-adv-x="532" d="M214 590L346 744L370 724L232 574L214 590Z" />
<glyph unicode="&#xb6;" glyph-name="paragraph" horiz-adv-x="498" d="M173 250T108 299T42 454Q42 560 103 610T272 660H316V250H290Q173 250 108 299ZM370 660H402V-80H370V660Z" />
<glyph unicode="&#xb7;" glyph-name="middot" horiz-adv-x="208" d="M90 284T79 294T68 322Q68 341 79 351T104 362Q119 362 129 352T140 322Q140 305 129 295T104 284Q90 284 79 294Z" />
<glyph unicode="&#xb8;" glyph-name="cedilla" horiz-adv-x="532" d="M186 -190Q249 -186 274 -173T300 -136Q300 -114 282 -102T222 -84L262 2H290L260 -66Q294 -74 312 -90T330 -134Q330 -207 192 -216L186 -190Z" />
<glyph unicode="&#xba;" glyph-name="ordmasculine" horiz-adv-x="358" d="M116 402T75 447T34 568Q34 645 75 689T178 734Q240 734 281 690T322 568Q322 492 281 447T178 402Q116 402 75 447ZM229 428T260 467T292 568Q292 631 261 669T178 708Q127 708 96 670T64
568Q64 506 95 467T178 428Q229 428 260 467Z" />
<glyph unicode="&#xbb;" glyph-name="guillemotright" horiz-adv-x="388" d="M54 90L178 252L54 412L74 430L212 266V238L74 74L54 90ZM188 90L312 252L188 412L208 430L346 266V238L208 74L188 90Z" />
<glyph unicode="&#xbc;" glyph-name="onequarter" horiz-adv-x="758" d="M578 672L208 -12H176L546 672H578ZM158 270V600H76V622Q128 633 160 660H186V270H158ZM708 118H650V0H622V118H446V134L628 390H650V144H708V118ZM622 144V238L626 340H622L564 256L486 144H622Z" />
<glyph unicode="&#xbd;" glyph-name="onehalf" horiz-adv-x="778" d="M522 672H554L184 -12H152L522 672ZM158 600H76V622Q128 633 160 660H186V270H158V600ZM476 20Q554 93 593 135T652 211T672 278Q672 323 648 349T582 376Q555 376 531 358T488 312L468 330Q485
360 517 381T584 402Q638 402 670 371T702 280Q702 242 683 207T633 137T540 42Q540 42 524 26H726V0H476V20Z" />
<glyph unicode="&#xbe;" glyph-name="threequarters" horiz-adv-x="778" d="M304 319T268 289T176 258Q134 258 99 279T42 332L66 350Q85 321 114 303T178 284Q219 284 246 307T274 372Q274 412 236 434T130 456V480Q189 480 223 506T258 568Q258 603 234 624T170
646Q147 646 123 632T78 592L58 610Q79 638 108 655T172 672Q222 672 255 645T288 570Q288 534 267 509T210 470Q249 463 276 438T304 372Q304 319 268 289ZM628 672L258 -12H226L596 672H628ZM728 118H670V0H642V118H466V134L648 390H670V144H728V118ZM642 144V238L646
340H642L584 256L506 144H642Z" />
<glyph unicode="&#xbf;" glyph-name="questiondown" horiz-adv-x="394" d="M198 412T187 423T176 452Q176 469 187 479T212 490Q226 490 237 480T248 452Q248 434 238 423T212 412Q198 412 187 423ZM132 -204T92 -161T52 -54Q52 -12 70 22T126 108Q165 159 184
196T204 281Q204 288 202 306H230Q232 286 232 276Q232 225 212 186T153 96Q118 50 101 19T84 -52Q84 -104 114 -140T204 -176Q242 -176 277 -159T338 -110L358 -128Q289 -204 202 -204Q132 -204 92 -161Z" />
<glyph unicode="&#xc0;" glyph-name="Agrave" horiz-adv-x="520" d="M394 236H125L42 0H10L246 660H274L510 0H476L394 236ZM384 264L338 396Q285 547 262 626H258Q235 547 182 396L135 264H384ZM156 822L178 846L296 726L282 710L156 822Z" />
<glyph unicode="&#xc1;" glyph-name="Aacute" horiz-adv-x="520" d="M394 236H125L42 0H10L246 660H274L510 0H476L394 236ZM384 264L338 396Q285 547 262 626H258Q235 547 182 396L135 264H384ZM224 726L342 846L364 822L238 710L224 726Z" />
<glyph unicode="&#xc2;" glyph-name="Acircumflex" horiz-adv-x="520" d="M394 236H125L42 0H10L246 660H274L510 0H476L394 236ZM384 264L338 396Q285 547 262 626H258Q235 547 182 396L135 264H384ZM130 726L246 840H274L390 726L376 710L262 810H258L144 710L130 726Z" />
<glyph unicode="&#xc3;" glyph-name="Atilde" horiz-adv-x="520" d="M394 236H125L42 0H10L246 660H274L510 0H476L394 236ZM384 264L338 396Q285 547 262 626H258Q235 547 182 396L135 264H384ZM310 722T291 733T248 768Q227 787 214 795T182 804Q159 804 143
782T124 724L100 726Q102 771 123 801T182 832Q210 832 229 821T272 786Q293 767 306 759T338 750Q361 750 376 771T396 830L420 828Q418 783 397 753T338 722Q310 722 291 733Z" />
<glyph unicode="&#xc4;" glyph-name="Adieresis" horiz-adv-x="520" d="M394 236H125L42 0H10L246 660H274L510 0H476L394 236ZM384 264L338 396Q285 547 262 626H258Q235 547 182 396L135 264H384ZM150 728T141 736T132 760Q132 775 141 783T164 792Q178 792
187 784T196 760Q196 745 187 737T164 728Q150 728 141 736ZM342 728T333 736T324 760Q324 775 333 783T356 792Q370 792 379 784T388 760Q388 745 379 737T356 728Q342 728 333 736Z" />
<glyph unicode="&#xc5;" glyph-name="Aring" horiz-adv-x="520" d="M394 236H125L42 0H10L246 660H274L510 0H476L394 236ZM384 264L338 396Q285 547 262 626H258Q235 547 182 396L135 264H384ZM224 700T200 723T176 784Q176 822 200 845T260 868Q295 868 319
845T344 784Q344 747 320 724T260 700Q224 700 200 723ZM285 722T301 738T318 784Q318 812 301 829T260 846Q234 846 217 829T200 784Q200 754 217 738T260 722Q285 722 301 738Z" />
<glyph unicode="&#xc6;" glyph-name="AE" horiz-adv-x="804" d="M758 28V0H414V226H187L60 0H26L398 660H748V632H446V366H696V338H446V28H758ZM414 254V630H410Q331 487 280 392L203 254H414Z" />
<glyph unicode="&#xc7;" glyph-name="Ccedilla" horiz-adv-x="562" d="M248 -12T186 30T90 151T56 332Q56 435 90 512T188 630T334 672Q387 672 430 650T502 594L482 572Q454 605 417 623T334 642Q259 642 204 604T120 497T90 332Q90 238 119 167T202 57T330 18Q382
18 423 38T502 102L522 82Q482 36 436 12T328 -12Q248 -12 186 30Z" />
<glyph unicode="&#xc8;" glyph-name="Egrave" horiz-adv-x="510" d="M100 660H454V632H132V366H402V338H132V28H464V0H100V660ZM178 822L200 846L318 726L304 710L178 822Z" />
<glyph unicode="&#xc9;" glyph-name="Eacute" horiz-adv-x="510" d="M100 660H454V632H132V366H402V338H132V28H464V0H100V660ZM246 726L364 846L386 822L260 710L246 726Z" />
<glyph unicode="&#xca;" glyph-name="Ecircumflex" horiz-adv-x="510" d="M100 660H454V632H132V366H402V338H132V28H464V0H100V660ZM152 726L268 840H296L412 726L398 710L284 810H280L166 710L152 726Z" />
<glyph unicode="&#xcb;" glyph-name="Edieresis" horiz-adv-x="510" d="M100 660H454V632H132V366H402V338H132V28H464V0H100V660ZM172 728T163 736T154 760Q154 775 163 783T186 792Q200 792 209 784T218 760Q218 745 209 737T186 728Q172 728 163 736ZM364 728T355
736T346 760Q346 775 355 783T378 792Q392 792 401 784T410 760Q410 745 401 737T378 728Q364 728 355 736Z" />
<glyph unicode="&#xcc;" glyph-name="Igrave" horiz-adv-x="232" d="M100 660H132V0H100V660ZM12 822L34 846L152 726L138 710L12 822Z" />
<glyph unicode="&#xcd;" glyph-name="Iacute" horiz-adv-x="232" d="M100 660H132V0H100V660ZM80 726L198 846L220 822L94 710L80 726Z" />
<glyph unicode="&#xce;" glyph-name="Icircumflex" horiz-adv-x="232" d="M100 660H132V0H100V660ZM-14 726L102 840H130L246 726L232 710L118 810H114L0 710L-14 726Z" />
<glyph unicode="&#xcf;" glyph-name="Idieresis" horiz-adv-x="232" d="M100 660H132V0H100V660ZM6 728T-3 736T-12 760Q-12 775 -3 783T20 792Q34 792 43 784T52 760Q52 745 43 737T20 728Q6 728 -3 736ZM198 728T189 736T180 760Q180 775 189 783T212 792Q226
792 235 784T244 760Q244 745 235 737T212 728Q198 728 189 736Z" />
<glyph unicode="&#xd0;" glyph-name="Eth" horiz-adv-x="620" d="M416 660T490 573T564 332Q564 179 490 90T268 0H120V336H38V362L120 364V660H268Q416 660 490 573ZM399 28T464 111T530 332Q530 470 465 551T264 632H152V364H320V336H152V28H264Q399 28 464 111Z" />
<glyph unicode="&#xd1;" glyph-name="Ntilde" horiz-adv-x="632" d="M100 660H134L426 176L502 46H506Q502 174 502 232V660H532V0H498L206 484L130 614H126Q130 490 130 434V0H100V660ZM372 722T353 733T310 768Q289 787 276 795T244 804Q221 804 205 782T186
724L162 726Q164 771 185 801T244 832Q272 832 291 821T334 786Q355 767 368 759T400 750Q423 750 438 771T458 830L482 828Q480 783 459 753T400 722Q372 722 353 733Z" />
<glyph unicode="&#xd2;" glyph-name="Ograve" horiz-adv-x="648" d="M246 -12T186 30T91 151T56 332Q56 434 90 511T185 630T324 672Q402 672 463 630T558 511T592 332Q592 230 558 152T463 31T324 -12Q246 -12 186 30ZM393 18T446 57T529 167T558 332Q558 426
529 496T447 604T324 642Q254 642 201 604T119 496T90 332Q90 238 119 167T201 57T324 18Q393 18 446 57ZM220 822L242 846L360 726L346 710L220 822Z" />
<glyph unicode="&#xd3;" glyph-name="Oacute" horiz-adv-x="648" d="M246 -12T186 30T91 151T56 332Q56 434 90 511T185 630T324 672Q402 672 463 630T558 511T592 332Q592 230 558 152T463 31T324 -12Q246 -12 186 30ZM393 18T446 57T529 167T558 332Q558 426
529 496T447 604T324 642Q254 642 201 604T119 496T90 332Q90 238 119 167T201 57T324 18Q393 18 446 57ZM288 726L406 846L428 822L302 710L288 726Z" />
<glyph unicode="&#xd4;" glyph-name="Ocircumflex" horiz-adv-x="648" d="M246 -12T186 30T91 151T56 332Q56 434 90 511T185 630T324 672Q402 672 463 630T558 511T592 332Q592 230 558 152T463 31T324 -12Q246 -12 186 30ZM393 18T446 57T529 167T558 332Q558
426 529 496T447 604T324 642Q254 642 201 604T119 496T90 332Q90 238 119 167T201 57T324 18Q393 18 446 57ZM194 726L310 840H338L454 726L440 710L326 810H322L208 710L194 726Z" />
<glyph unicode="&#xd5;" glyph-name="Otilde" horiz-adv-x="648" d="M246 -12T186 30T91 151T56 332Q56 434 90 511T185 630T324 672Q402 672 463 630T558 511T592 332Q592 230 558 152T463 31T324 -12Q246 -12 186 30ZM393 18T446 57T529 167T558 332Q558 426
529 496T447 604T324 642Q254 642 201 604T119 496T90 332Q90 238 119 167T201 57T324 18Q393 18 446 57ZM374 722T355 733T312 768Q291 787 278 795T246 804Q223 804 207 782T188 724L164 726Q166 771 187 801T246 832Q274 832 293 821T336 786Q357 767 370 759T402
750Q425 750 440 771T460 830L484 828Q482 783 461 753T402 722Q374 722 355 733Z" />
<glyph unicode="&#xd6;" glyph-name="Odieresis" horiz-adv-x="648" d="M246 -12T186 30T91 151T56 332Q56 434 90 511T185 630T324 672Q402 672 463 630T558 511T592 332Q592 230 558 152T463 31T324 -12Q246 -12 186 30ZM393 18T446 57T529 167T558 332Q558
426 529 496T447 604T324 642Q254 642 201 604T119 496T90 332Q90 238 119 167T201 57T324 18Q393 18 446 57ZM214 728T205 736T196 760Q196 775 205 783T228 792Q242 792 251 784T260 760Q260 745 251 737T228 728Q214 728 205 736ZM406 728T397 736T388 760Q388
775 397 783T420 792Q434 792 443 784T452 760Q452 745 443 737T420 728Q406 728 397 736Z" />
<glyph unicode="&#xd7;" glyph-name="multiply" horiz-adv-x="472" d="M52 160L216 330L52 500L72 522L236 350L400 522L420 500L256 330L420 160L400 138L236 310L72 138L52 160Z" />
<glyph unicode="&#xd8;" glyph-name="Oslash" horiz-adv-x="648" d="M558 533T577 471T596 332Q596 230 562 152T467 31T328 -12Q274 -12 228 9T146 69L80 -20L58 -4L128 91Q60 186 60 332Q60 434 94 511T189 630T328 672Q379 672 424 653T504 599L564 680L586
664L522 578Q558 533 577 471ZM94 204T148 118L485 573Q424 642 328 642Q258 642 205 604T123 496T94 332Q94 204 148 118ZM397 18T450 57T533 167T562 332Q562 399 547 454T503 551L165 95Q196 58 237 38T328 18Q397 18 450 57Z" />
<glyph unicode="&#xd9;" glyph-name="Ugrave" horiz-adv-x="630" d="M221 -12T160 47T98 246V660H130V254Q130 127 181 73T314 18Q397 18 449 72T502 254V660H532V246Q532 106 470 47T314 -12Q221 -12 160 47ZM210 822L232 846L350 726L336 710L210 822Z" />
<glyph unicode="&#xda;" glyph-name="Uacute" horiz-adv-x="630" d="M221 -12T160 47T98 246V660H130V254Q130 127 181 73T314 18Q397 18 449 72T502 254V660H532V246Q532 106 470 47T314 -12Q221 -12 160 47ZM278 726L396 846L418 822L292 710L278 726Z" />
<glyph unicode="&#xdb;" glyph-name="Ucircumflex" horiz-adv-x="630" d="M221 -12T160 47T98 246V660H130V254Q130 127 181 73T314 18Q397 18 449 72T502 254V660H532V246Q532 106 470 47T314 -12Q221 -12 160 47ZM184 726L300 840H328L444 726L430 710L316 810H312L198
710L184 726Z" />
<glyph unicode="&#xdc;" glyph-name="Udieresis" horiz-adv-x="630" d="M221 -12T160 47T98 246V660H130V254Q130 127 181 73T314 18Q397 18 449 72T502 254V660H532V246Q532 106 470 47T314 -12Q221 -12 160 47ZM204 728T195 736T186 760Q186 775 195 783T218
792Q232 792 241 784T250 760Q250 745 241 737T218 728Q204 728 195 736ZM396 728T387 736T378 760Q378 775 387 783T410 792Q424 792 433 784T442 760Q442 745 433 737T410 728Q396 728 387 736Z" />
<glyph unicode="&#xdd;" glyph-name="Yacute" horiz-adv-x="436" d="M202 272L4 660H38L144 446L162 410Q184 364 216 304H220L234 329Q279 412 294 446L400 660H432L234 272V0H202V272ZM182 726L300 846L322 822L196 710L182 726Z" />
<glyph unicode="&#xde;" glyph-name="Thorn" horiz-adv-x="556" d="M100 660H132V540H272Q387 540 445 498T504 360Q504 267 444 220T272 172H132V0H100V660ZM260 200Q368 200 419 238T470 360Q470 445 420 478T260 512H132V200H260Z" />
<glyph unicode="&#xdf;" glyph-name="germandbls" horiz-adv-x="530" d="M285 -12T226 40L244 64Q273 39 300 28T360 16Q411 16 439 47T468 122Q468 157 454 180T418 217T360 250Q324 268 304 282T269 319T254 376Q254 410 267 434T307 493Q331 523 343 546T356
600Q356 647 330 675T256 704Q195 704 161 659T126 524V0H96V538Q96 628 140 680T258 732Q317 732 352 696T388 602Q388 565 374 538T333 477Q309 447 298 426T286 378Q286 341 309 321T380 276Q419 256 442 240T483 195T500 124Q500 66 460 27T360 -12Q285 -12
226 40Z" />
<glyph unicode="&#xe0;" glyph-name="agrave" horiz-adv-x="486" d="M138 -12T99 20T60 117Q60 196 134 238T374 298Q376 368 350 415T256 462Q210 462 170 445T100 404L84 428Q116 452 161 471T258 490Q336 490 370 441T404 310V0H378L374 64H372Q277 -12 198
-12Q138 -12 99 20ZM242 16T283 36T374 98V272Q220 254 156 218T92 118Q92 66 122 41T200 16Q242 16 283 36ZM156 724L180 744L312 590L294 574L156 724Z" />
<glyph unicode="&#xe1;" glyph-name="aacute" horiz-adv-x="486" d="M138 -12T99 20T60 117Q60 196 134 238T374 298Q376 368 350 415T256 462Q210 462 170 445T100 404L84 428Q116 452 161 471T258 490Q336 490 370 441T404 310V0H378L374 64H372Q277 -12 198
-12Q138 -12 99 20ZM242 16T283 36T374 98V272Q220 254 156 218T92 118Q92 66 122 41T200 16Q242 16 283 36ZM208 590L340 744L364 724L226 574L208 590Z" />
<glyph unicode="&#xe2;" glyph-name="acircumflex" horiz-adv-x="486" d="M138 -12T99 20T60 117Q60 196 134 238T374 298Q376 368 350 415T256 462Q210 462 170 445T100 404L84 428Q116 452 161 471T258 490Q336 490 370 441T404 310V0H378L374 64H372Q277 -12
198 -12Q138 -12 99 20ZM242 16T283 36T374 98V272Q220 254 156 218T92 118Q92 66 122 41T200 16Q242 16 283 36ZM128 590L246 736H274L392 590L374 574L262 704H258L146 574L128 590Z" />
<glyph unicode="&#xe3;" glyph-name="atilde" horiz-adv-x="486" d="M138 -12T99 20T60 117Q60 196 134 238T374 298Q376 368 350 415T256 462Q210 462 170 445T100 404L84 428Q116 452 161 471T258 490Q336 490 370 441T404 310V0H378L374 64H372Q277 -12 198
-12Q138 -12 99 20ZM242 16T283 36T374 98V272Q220 254 156 218T92 118Q92 66 122 41T200 16Q242 16 283 36ZM310 580T291 594T248 635Q228 658 214 669T182 680Q155 680 142 653T126 582L100 584Q109 706 184 706Q211 706 230 692T272 651Q292 628 306 617T339
606Q365 606 378 633T394 704L420 702Q411 580 337 580Q310 580 291 594Z" />
<glyph unicode="&#xe4;" glyph-name="adieresis" horiz-adv-x="486" d="M138 -12T99 20T60 117Q60 196 134 238T374 298Q376 368 350 415T256 462Q210 462 170 445T100 404L84 428Q116 452 161 471T258 490Q336 490 370 441T404 310V0H378L374 64H372Q277 -12
198 -12Q138 -12 99 20ZM242 16T283 36T374 98V272Q220 254 156 218T92 118Q92 66 122 41T200 16Q242 16 283 36ZM160 602T151 611T142 634Q142 648 151 657T174 666Q187 666 196 657T206 634Q206 621 197 612T174 602Q160 602 151 611ZM333 602T324 611T314 634Q314
648 323 657T346 666Q360 666 369 657T378 634Q378 621 369 612T346 602Q333 602 324 611Z" />
<glyph unicode="&#xe5;" glyph-name="aring" horiz-adv-x="486" d="M138 -12T99 20T60 117Q60 196 134 238T374 298Q376 368 350 415T256 462Q210 462 170 445T100 404L84 428Q116 452 161 471T258 490Q336 490 370 441T404 310V0H378L374 64H372Q277 -12 198
-12Q138 -12 99 20ZM242 16T283 36T374 98V272Q220 254 156 218T92 118Q92 66 122 41T200 16Q242 16 283 36ZM220 546T194 572T168 640Q168 682 194 708T260 734Q300 734 326 708T352 640Q352 599 326 573T260 546Q220 546 194 572ZM289 568T308 588T328 640Q328
672 309 692T260 712Q231 712 212 692T192 640Q192 608 211 588T260 568Q289 568 308 588Z" />
<glyph unicode="&#xe6;" glyph-name="ae" horiz-adv-x="784" d="M146 -12T107 20T68 116Q68 195 142 237T376 298Q378 368 352 415T258 462Q216 462 176 445T108 404L92 428Q124 451 168 470T260 490Q318 490 353 457T400 364Q426 422 471 456T570 490Q653 490
699 433T746 270Q746 250 744 238H406Q405 175 428 125T492 45T584 16Q622 16 652 27T712 60L726 34Q688 11 659 0T582 -12Q522 -12 482 16T410 90Q364 44 308 16T206 -12Q146 -12 107 20ZM716 264Q716 361 678 411T570 462Q528 462 493 437T434 366T406 264H716ZM250
16T303 43T398 116Q388 138 382 172T376 244V272Q228 254 164 218T100 118Q100 66 130 41T208 16Q250 16 303 43Z" />
<glyph unicode="&#xe7;" glyph-name="ccedilla" horiz-adv-x="446" d="M294 -74T312 -90T330 -134Q330 -207 192 -216L186 -190Q249 -186 274 -173T300 -136Q300 -114 282 -102T222 -84L256 -12Q198 -9 152 21T80 107T54 238Q54 315 83 372T161 460T268 490Q313
490 346 474T408 430L388 408Q330 462 268 462Q217 462 176 434T110 354T86 238Q86 173 108 123T172 44T268 16Q340 16 402 74L420 52Q357 -6 284 -11L260 -66Q294 -74 312 -90Z" />
<glyph unicode="&#xe8;" glyph-name="egrave" horiz-adv-x="478" d="M440 250T438 238H86Q86 171 110 121T178 43T274 16Q345 16 406 60L420 34Q383 12 352 0T272 -12Q212 -12 162 18T83 105T54 238Q54 313 83 370T159 459T260 490Q344 490 392 433T440 270Q440
250 438 238ZM410 266Q410 362 370 412T260 462Q218 462 181 440T118 374T87 266H410ZM156 724L180 744L312 590L294 574L156 724Z" />
<glyph unicode="&#xe9;" glyph-name="eacute" horiz-adv-x="478" d="M440 250T438 238H86Q86 171 110 121T178 43T274 16Q345 16 406 60L420 34Q383 12 352 0T272 -12Q212 -12 162 18T83 105T54 238Q54 313 83 370T159 459T260 490Q344 490 392 433T440 270Q440
250 438 238ZM410 266Q410 362 370 412T260 462Q218 462 181 440T118 374T87 266H410ZM208 590L340 744L364 724L226 574L208 590Z" />
<glyph unicode="&#xea;" glyph-name="ecircumflex" horiz-adv-x="478" d="M440 250T438 238H86Q86 171 110 121T178 43T274 16Q345 16 406 60L420 34Q383 12 352 0T272 -12Q212 -12 162 18T83 105T54 238Q54 313 83 370T159 459T260 490Q344 490 392 433T440 270Q440
250 438 238ZM410 266Q410 362 370 412T260 462Q218 462 181 440T118 374T87 266H410ZM128 590L246 736H274L392 590L374 574L262 704H258L146 574L128 590Z" />
<glyph unicode="&#xeb;" glyph-name="edieresis" horiz-adv-x="478" d="M440 250T438 238H86Q86 171 110 121T178 43T274 16Q345 16 406 60L420 34Q383 12 352 0T272 -12Q212 -12 162 18T83 105T54 238Q54 313 83 370T159 459T260 490Q344 490 392 433T440 270Q440
250 438 238ZM410 266Q410 362 370 412T260 462Q218 462 181 440T118 374T87 266H410ZM160 602T151 611T142 634Q142 648 151 657T174 666Q187 666 196 657T206 634Q206 621 197 612T174 602Q160 602 151 611ZM333 602T324 611T314 634Q314 648 323 657T346 666Q360
666 369 657T378 634Q378 621 369 612T346 602Q333 602 324 611Z" />
<glyph unicode="&#xec;" glyph-name="igrave" horiz-adv-x="222" d="M96 478H126V0H96V478ZM8 724L32 744L164 590L146 574L8 724Z" />
<glyph unicode="&#xed;" glyph-name="iacute" horiz-adv-x="222" d="M96 478H126V0H96V478ZM60 590L192 744L216 724L78 574L60 590Z" />
<glyph unicode="&#xee;" glyph-name="icircumflex" horiz-adv-x="222" d="M96 478H126V0H96V478ZM-20 590L98 736H126L244 590L226 574L114 704H110L-2 574L-20 590Z" />
<glyph unicode="&#xef;" glyph-name="idieresis" horiz-adv-x="222" d="M96 478H126V0H96V478ZM12 602T3 611T-6 634Q-6 648 3 657T26 666Q39 666 48 657T58 634Q58 621 49 612T26 602Q12 602 3 611ZM185 602T176 611T166 634Q166 648 175 657T198 666Q212 666
221 657T230 634Q230 621 221 612T198 602Q185 602 176 611Z" />
<glyph unicode="&#xf0;" glyph-name="eth" horiz-adv-x="532" d="M329 607Q393 542 428 455T464 250Q464 171 439 112T369 20T266 -12Q213 -12 166 16T91 96T62 218Q62 283 88 333T161 412T270 440Q314 440 353 420T423 361Q410 435 380 491T303 594L162 520L150
542L283 612Q237 653 156 700L172 722Q254 677 310 626L452 700L464 678L329 607ZM349 16T390 81T432 250Q432 285 429 315Q392 370 353 391T268 412Q213 412 174 386T114 315T94 218Q94 160 117 114T179 42T266 16Q349 16 390 81Z" />
<glyph unicode="&#xf1;" glyph-name="ntilde" horiz-adv-x="526" d="M96 478H122L126 402H128Q171 445 209 467T294 490Q368 490 403 446T438 308V0H408V304Q408 385 381 423T292 462Q249 462 213 440T126 366V0H96V478ZM328 580T309 594T266 635Q246 658 232
669T200 680Q173 680 160 653T144 582L118 584Q127 706 202 706Q229 706 248 692T290 651Q310 628 324 617T357 606Q383 606 396 633T412 704L438 702Q429 580 355 580Q328 580 309 594Z" />
<glyph unicode="&#xf2;" glyph-name="ograve" horiz-adv-x="532" d="M208 -12T160 18T83 105T54 238Q54 315 82 372T159 460T266 490Q324 490 372 460T449 373T478 238Q478 162 450 105T373 18T266 -12Q208 -12 160 18ZM317 16T358 44T422 122T446 238Q446 303
423 354T358 433T266 462Q215 462 174 434T110 354T86 238Q86 173 109 123T174 44T266 16Q317 16 358 44ZM162 724L186 744L318 590L300 574L162 724Z" />
<glyph unicode="&#xf3;" glyph-name="oacute" horiz-adv-x="532" d="M208 -12T160 18T83 105T54 238Q54 315 82 372T159 460T266 490Q324 490 372 460T449 373T478 238Q478 162 450 105T373 18T266 -12Q208 -12 160 18ZM317 16T358 44T422 122T446 238Q446 303
423 354T358 433T266 462Q215 462 174 434T110 354T86 238Q86 173 109 123T174 44T266 16Q317 16 358 44ZM214 590L346 744L370 724L232 574L214 590Z" />
<glyph unicode="&#xf4;" glyph-name="ocircumflex" horiz-adv-x="532" d="M208 -12T160 18T83 105T54 238Q54 315 82 372T159 460T266 490Q324 490 372 460T449 373T478 238Q478 162 450 105T373 18T266 -12Q208 -12 160 18ZM317 16T358 44T422 122T446 238Q446
303 423 354T358 433T266 462Q215 462 174 434T110 354T86 238Q86 173 109 123T174 44T266 16Q317 16 358 44ZM134 590L252 736H280L398 590L380 574L268 704H264L152 574L134 590Z" />
<glyph unicode="&#xf5;" glyph-name="otilde" horiz-adv-x="532" d="M208 -12T160 18T83 105T54 238Q54 315 82 372T159 460T266 490Q324 490 372 460T449 373T478 238Q478 162 450 105T373 18T266 -12Q208 -12 160 18ZM317 16T358 44T422 122T446 238Q446 303
423 354T358 433T266 462Q215 462 174 434T110 354T86 238Q86 173 109 123T174 44T266 16Q317 16 358 44ZM316 580T297 594T254 635Q234 658 220 669T188 680Q161 680 148 653T132 582L106 584Q115 706 190 706Q217 706 236 692T278 651Q298 628 312 617T345 606Q371
606 384 633T400 704L426 702Q417 580 343 580Q316 580 297 594Z" />
<glyph unicode="&#xf6;" glyph-name="odieresis" horiz-adv-x="532" d="M208 -12T160 18T83 105T54 238Q54 315 82 372T159 460T266 490Q324 490 372 460T449 373T478 238Q478 162 450 105T373 18T266 -12Q208 -12 160 18ZM317 16T358 44T422 122T446 238Q446
303 423 354T358 433T266 462Q215 462 174 434T110 354T86 238Q86 173 109 123T174 44T266 16Q317 16 358 44ZM166 602T157 611T148 634Q148 648 157 657T180 666Q193 666 202 657T212 634Q212 621 203 612T180 602Q166 602 157 611ZM339 602T330 611T320 634Q320
648 329 657T352 666Q366 666 375 657T384 634Q384 621 375 612T352 602Q339 602 330 611Z" />
<glyph unicode="&#xf7;" glyph-name="divide" horiz-adv-x="472" d="M222 474T213 484T204 510Q204 525 213 534T236 544Q250 544 259 535T268 510Q268 494 259 484T236 474Q222 474 213 484ZM34 344H438V316H34V344ZM222 114T213 124T204 150Q204 165 213 174T236
184Q250 184 259 175T268 150Q268 134 259 124T236 114Q222 114 213 124Z" />
<glyph unicode="&#xf8;" glyph-name="oslash" horiz-adv-x="532" d="M427 409Q478 342 478 238Q478 162 450 105T373 18T266 -12Q226 -12 190 3T125 46L68 -22L46 -4L106 68Q54 136 54 238Q54 315 82 372T159 460T266 490Q306 490 342 475T408 431L464 498L486
480L427 409ZM86 152T126 93L388 407Q338 462 266 462Q215 462 174 434T110 354T86 238Q86 152 126 93ZM446 323T406 384L144 70Q195 16 266 16Q317 16 358 44T422 122T446 238Q446 323 406 384Z" />
<glyph unicode="&#xf9;" glyph-name="ugrave" horiz-adv-x="524" d="M158 -12T123 32T88 170V478H118V174Q118 93 145 55T234 16Q278 16 315 40T398 120V478H428V0H402L398 82H396Q357 36 318 12T232 -12Q158 -12 123 32ZM158 724L182 744L314 590L296 574L158 724Z" />
<glyph unicode="&#xfa;" glyph-name="uacute" horiz-adv-x="524" d="M158 -12T123 32T88 170V478H118V174Q118 93 145 55T234 16Q278 16 315 40T398 120V478H428V0H402L398 82H396Q357 36 318 12T232 -12Q158 -12 123 32ZM210 590L342 744L366 724L228 574L210 590Z" />
<glyph unicode="&#xfb;" glyph-name="ucircumflex" horiz-adv-x="524" d="M158 -12T123 32T88 170V478H118V174Q118 93 145 55T234 16Q278 16 315 40T398 120V478H428V0H402L398 82H396Q357 36 318 12T232 -12Q158 -12 123 32ZM130 590L248 736H276L394 590L376
574L264 704H260L148 574L130 590Z" />
<glyph unicode="&#xfc;" glyph-name="udieresis" horiz-adv-x="524" d="M158 -12T123 32T88 170V478H118V174Q118 93 145 55T234 16Q278 16 315 40T398 120V478H428V0H402L398 82H396Q357 36 318 12T232 -12Q158 -12 123 32ZM162 602T153 611T144 634Q144 648
153 657T176 666Q189 666 198 657T208 634Q208 621 199 612T176 602Q162 602 153 611ZM335 602T326 611T316 634Q316 648 325 657T348 666Q362 666 371 657T380 634Q380 621 371 612T348 602Q335 602 326 611Z" />
<glyph unicode="&#xfd;" glyph-name="yacute" horiz-adv-x="424" d="M40 -222T20 -212L28 -184Q48 -192 68 -192Q111 -192 143 -156T196 -56L210 -12L12 478H46L168 164L182 129Q211 55 222 30H226Q236 56 243 77T256 115Q259 124 272 164L380 478H412L220 -68Q199
-133 161 -177T66 -222Q40 -222 20 -212ZM172 590L304 744L328 724L190 574L172 590Z" />
<glyph unicode="&#xfe;" glyph-name="thorn" horiz-adv-x="540" d="M96 722H126V416Q171 450 212 470T294 490Q389 490 437 425T486 246Q486 168 458 109T381 19T274 -12Q208 -12 126 48V-222H96V722ZM327 16T367 45T431 127T454 246Q454 344 415 403T292 462Q222
462 126 378V82Q167 48 206 32T276 16Q327 16 367 45Z" />
<glyph unicode="&#xff;" glyph-name="ydieresis" horiz-adv-x="424" d="M40 -222T20 -212L28 -184Q48 -192 68 -192Q111 -192 143 -156T196 -56L210 -12L12 478H46L168 164L182 129Q211 55 222 30H226Q236 56 243 77T256 115Q259 124 272 164L380 478H412L220
-68Q199 -133 161 -177T66 -222Q40 -222 20 -212ZM124 602T115 611T106 634Q106 648 115 657T138 666Q151 666 160 657T170 634Q170 621 161 612T138 602Q124 602 115 611ZM297 602T288 611T278 634Q278 648 287 657T310 666Q324 666 333 657T342 634Q342 621 333
612T310 602Q297 602 288 611Z" />
<glyph unicode="&#x2013;" glyph-name="endash" horiz-adv-x="480" d="M40 264H440V236H40V264Z" />
<glyph unicode="&#x2014;" glyph-name="emdash" horiz-adv-x="800" d="M40 264H760V236H40V264Z" />
<glyph unicode="&#x2018;" glyph-name="quoteleft" horiz-adv-x="208" d="M118 659T103 632T88 565Q90 566 96 566Q109 566 119 558T130 534Q130 518 121 509T96 500Q79 500 69 515T58 558Q58 651 136 706L152 688Q118 659 103 632Z" />
<glyph unicode="&#x2019;" glyph-name="quoteright" horiz-adv-x="208" d="M129 700T139 685T150 642Q150 549 72 494L56 512Q90 541 105 568T120 635Q118 634 112 634Q99 634 89 642T78 666Q78 682 87 691T112 700Q129 700 139 685Z" />
<glyph unicode="&#x201a;" glyph-name="quotesinglbase" horiz-adv-x="208" d="M129 80T139 65T150 22Q150 -71 72 -126L56 -108Q90 -79 105 -52T120 15Q118 14 112 14Q99 14 89 22T78 46Q78 62 87 71T112 80Q129 80 139 65Z" />
<glyph unicode="&#x201c;" glyph-name="quotedblleft" horiz-adv-x="336" d="M118 659T103 632T88 565Q90 566 96 566Q109 566 119 558T130 534Q130 518 121 509T96 500Q79 500 69 515T58 558Q58 651 136 706L152 688Q118 659 103 632ZM246 659T231 632T216 565Q218
566 224 566Q237 566 247 558T258 534Q258 518 249 509T224 500Q207 500 197 515T186 558Q186 651 264 706L280 688Q246 659 231 632Z" />
<glyph unicode="&#x201d;" glyph-name="quotedblright" horiz-adv-x="336" d="M129 700T139 685T150 642Q150 549 72 494L56 512Q90 541 105 568T120 635Q118 634 112 634Q99 634 89 642T78 666Q78 682 87 691T112 700Q129 700 139 685ZM257 700T267 685T278 642Q278
549 200 494L184 512Q218 541 233 568T248 635Q246 634 240 634Q227 634 217 642T206 666Q206 682 215 691T240 700Q257 700 267 685Z" />
<glyph unicode="&#x201e;" glyph-name="quotedblbase" horiz-adv-x="336" d="M129 80T139 65T150 22Q150 -71 72 -126L56 -108Q90 -79 105 -52T120 15Q118 14 112 14Q99 14 89 22T78 46Q78 62 87 71T112 80Q129 80 139 65ZM257 80T267 65T278 22Q278 -71 200 -126L184
-108Q218 -79 233 -52T248 15Q246 14 240 14Q227 14 217 22T206 46Q206 62 215 71T240 80Q257 80 267 65Z" />
<glyph unicode="&#x2022;" glyph-name="bullet" horiz-adv-x="272" d="M98 158T69 187T40 264Q40 311 69 340T136 370Q174 370 203 341T232 264Q232 217 203 188T136 158Q98 158 69 187Z" />
<glyph unicode="&#x2039;" glyph-name="guilsinglleft" horiz-adv-x="254" d="M42 238V266L180 430L200 412L76 252L200 90L180 74L42 238Z" />
<glyph unicode="&#x203a;" glyph-name="guilsinglright" horiz-adv-x="254" d="M54 90L178 252L54 412L74 430L212 266V238L74 74L54 90Z" />
</font>
</defs>
</svg>
