<?xml version="1.0" standalone="no"?>
<!DOCTYPE svg PUBLIC "-//W3C//DTD SVG 1.1//EN" "http://www.w3.org/Graphics/SVG/1.1/DTD/svg11.dtd">
<svg xmlns="http://www.w3.org/2000/svg">
<defs >
<font id="Exo" horiz-adv-x="545" ><font-face
    font-family="Exo Medium"
    units-per-em="1000"
    panose-1="0 0 6 0 0 0 0 0 0 0"
    ascent="1002"
    descent="-327"
    alphabetic="0" />
<glyph unicode=" " glyph-name="space" horiz-adv-x="267" />
<glyph unicode="!" glyph-name="exclam" horiz-adv-x="268" d="M82 736H183L168 201H95L82 736ZM96 -1T91 4T86 16V103Q86 121 103 121H160Q178 121 178 103V16Q178 -1 160 -1H103Q96 -1 91 4Z" />
<glyph unicode="&quot;" glyph-name="quotedbl" horiz-adv-x="320" d="M38 682V749H135V682L127 504H47L38 682ZM181 682V749H278V682L270 504H190L181 682Z" />
<glyph unicode="#" glyph-name="numbersign" horiz-adv-x="697" d="M182 223H20L30 289H195L219 441H54L65 507H232L271 732H337L298 507H440L478 732H544L506 507H679L669 441H495L471 289H644L635 223H456L418 0H352L390 223H248L210 0H144L182 223ZM405 289L429
441H285L261 289H405Z" />
<glyph unicode="$" glyph-name="dollar" horiz-adv-x="609" d="M433 416T480 368T527 239V187Q527 86 473 43T319 -5V-89H261V-6Q208 -4 151 1T61 14V92Q144 84 282 84Q353 84 392 105T431 184V227Q431 320 332 320H257Q158 320 107 363T56 506V547Q56 647 109
694T267 743L261 774L309 824L319 776L287 743Q335 742 393 736T493 721V643L472 644Q344 653 288 653Q220 653 186 629T152 542V512Q152 460 179 438T262 416H343Q433 416 480 368Z" />
<glyph unicode="%" glyph-name="percent" horiz-adv-x="960" d="M103 349T73 381T42 479V603Q42 669 72 700T176 732H277Q348 732 378 701T408 603V479Q408 412 378 381T275 349H174Q103 349 73 381ZM665 732H732L290 0H220L665 732ZM263 414Q307 414 325 431T343
492V589Q343 633 326 650T265 667H187Q145 667 126 651T107 589V492Q107 449 124 432T185 414H263ZM613 3T583 35T553 133V257Q553 323 583 354T686 386H788Q859 386 889 355T919 257V133Q919 66 889 35T786 3H684Q613 3 583 35ZM774 68Q818 68 836 85T854 146V243Q854
287 837 304T776 321H698Q656 321 637 305T618 243V146Q618 103 635 86T696 68H774Z" />
<glyph unicode="&amp;" glyph-name="ampersand" horiz-adv-x="681" d="M177 -6T133 18T64 87T39 190Q39 299 132 379L196 433L179 458Q151 499 141 532T130 598Q130 669 178 702T306 735Q402 735 484 719V646H324Q231 646 231 577Q231 555 242 530T280 469L460
223L607 359L644 315L576 219L511 157L628 0H522L446 99L411 69Q367 28 325 11T233 -6Q177 -6 133 18ZM279 87T305 98T362 139L391 167L245 364L197 322Q163 293 149 264T135 201Q135 150 166 119T249 87Q279 87 305 98Z" />
<glyph unicode="&apos;" glyph-name="quotesingle" horiz-adv-x="177" d="M38 682V749H135V682L127 504H47L38 682Z" />
<glyph unicode="(" glyph-name="parenleft" horiz-adv-x="359" d="M164 -89T119 37T74 326Q74 481 120 610T247 860H339Q262 728 219 600T175 326Q175 179 216 55T339 -210H247Q164 -89 119 37Z" />
<glyph unicode=")" glyph-name="parenright" horiz-adv-x="359" d="M100 -76T142 50T184 325Q184 473 144 596T20 860H112Q196 739 240 613T284 325Q284 167 240 40T112 -210H20Q100 -76 142 50Z" />
<glyph unicode="*" glyph-name="asterisk" horiz-adv-x="446" d="M184 723L221 735L286 610L233 589L184 723ZM259 561L374 643L397 610L296 517L259 561ZM50 580V620L191 630L193 575L50 580ZM116 413L145 549L200 536L153 401L116 413ZM211 479L240 527L356
441L333 410L211 479Z" />
<glyph unicode="+" glyph-name="plus" horiz-adv-x="609" d="M528 315H345V132H263V315H80V397H263V580H345V397H528V315Z" />
<glyph unicode="," glyph-name="comma" horiz-adv-x="210" d="M84 -82T75 -80T63 -77V-46Q75 -46 80 -42T86 -28V6H77Q69 6 65 11T60 25V101Q60 121 77 121H133Q150 121 150 101V-25Q150 -82 95 -82Q84 -82 75 -80Z" />
<glyph unicode="-" glyph-name="hyphen" horiz-adv-x="345" d="M24 331H321V249H24V331Z" />
<glyph unicode="." glyph-name="period" horiz-adv-x="210" d="M70 -1T65 4T60 16V103Q60 121 77 121H134Q152 121 152 103V16Q152 -1 134 -1H77Q70 -1 65 4Z" />
<glyph unicode="/" glyph-name="slash" horiz-adv-x="421" d="M301 770H401L120 -72H20L301 770Z" />
<glyph unicode="0" glyph-name="zero" horiz-adv-x="653" d="M169 -3T120 42T70 177V558Q70 647 120 695T256 743H403Q493 743 538 694T583 558V177Q583 88 535 43T402 -3H256Q169 -3 120 42ZM378 88Q482 88 482 191V549Q482 653 382 653H274Q225 653 198 626T170
549V191Q170 140 198 114T277 88H378Z" />
<glyph unicode="1" glyph-name="one" horiz-adv-x="365" d="M185 646L40 613V677L195 744H286V0H185V646Z" />
<glyph unicode="2" glyph-name="two" horiz-adv-x="591" d="M52 81L316 338Q373 392 397 436T421 536Q421 590 389 619T277 648H75V726Q205 743 298 743Q419 743 470 694T521 550Q521 475 492 416T394 292L187 92H547V0H52V81Z" />
<glyph unicode="3" glyph-name="three" horiz-adv-x="583" d="M159 -6T42 9V88H278Q347 88 382 109T418 187V230Q418 279 385 301T300 326L113 334V409L296 417Q350 419 379 439T409 504V546Q409 648 272 648H64V727Q188 744 311 743Q408 742 458 696T508 567V507Q508
447 478 414T406 371Q449 361 484 321T520 218V170Q520 85 466 40T314 -6Q159 -6 42 9Z" />
<glyph unicode="4" glyph-name="four" horiz-adv-x="602" d="M386 178H46L25 230L291 737H394L143 264H386V445L407 518H487V264H580V195L487 178V1H386V178Z" />
<glyph unicode="5" glyph-name="five" horiz-adv-x="623" d="M201 -5T76 7V86H333Q395 86 430 116T465 195V267Q465 314 438 340T356 366H284Q242 366 219 348T188 292H93L114 737H540V647H201L190 405Q204 426 233 439T304 452H389Q473 452 519 406T566 284V175Q566
85 504 40T330 -5Q201 -5 76 7Z" />
<glyph unicode="6" glyph-name="six" horiz-adv-x="618" d="M204 -3T159 29T90 141T65 365Q65 563 133 653T331 743Q425 743 516 731V653H337Q253 653 210 593T166 412Q238 425 358 425Q461 425 510 387T560 266V162Q560 76 513 37T386 -3H274Q204 -3 159 29ZM365
87Q410 87 435 107T460 179V248Q460 302 430 320T332 339H166Q166 241 180 186T221 109T292 87H365Z" />
<glyph unicode="7" glyph-name="seven" horiz-adv-x="547" d="M383 636H30V737H482L511 689L250 0H137L383 636Z" />
<glyph unicode="8" glyph-name="eight" horiz-adv-x="638" d="M74 -3T74 148V252Q74 299 101 332T165 374Q122 393 106 426T89 504V589Q89 668 134 705T254 742H393Q467 742 508 706T550 589V504Q550 467 532 431T478 385Q523 376 543 339T564 257V148Q564 67
519 32T393 -3H258Q74 -3 74 148ZM368 419Q412 419 432 443T452 503V566Q452 616 432 636T372 657H274Q228 657 208 636T187 566V503Q187 463 208 441T274 419H368ZM372 83Q420 83 442 103T464 164V248Q464 293 442 313T369 333H274Q238 333 207 312T175 248V164Q175
83 274 83H372Z" />
<glyph unicode="9" glyph-name="nine" horiz-adv-x="618" d="M195 -5T104 7V86H283Q367 86 410 146T454 326Q383 313 262 313Q159 313 110 351T60 472V577Q60 662 107 701T234 741H346Q416 741 461 709T530 597T555 373Q555 175 487 85T289 -5Q195 -5 104 7ZM454
399Q454 497 440 552T399 629T328 651H255Q210 651 185 631T160 559V490Q160 437 190 418T288 399H454Z" />
<glyph unicode=":" glyph-name="colon" horiz-adv-x="210" d="M70 -1T65 4T60 16V103Q60 121 77 121H134Q152 121 152 103V16Q152 -1 134 -1H77Q70 -1 65 4ZM70 414T65 419T60 431V518Q60 536 77 536H134Q152 536 152 518V431Q152 414 134 414H77Q70 414 65 419Z" />
<glyph unicode=";" glyph-name="semicolon" horiz-adv-x="210" d="M70 414T65 419T60 431V518Q60 536 77 536H134Q152 536 152 518V431Q152 414 134 414H77Q70 414 65 419ZM84 -82T75 -80T63 -77V-46Q75 -46 80 -42T86 -28V6H77Q69 6 65 11T60 25V101Q60 121 77
121H133Q150 121 150 101V-25Q150 -82 95 -82Q84 -82 75 -80Z" />
<glyph unicode="&lt;" glyph-name="less" horiz-adv-x="609" d="M96 305V394L511 528V440L193 351L511 256V169L96 305Z" />
<glyph unicode="=" glyph-name="equal" horiz-adv-x="609" d="M80 533H528V451H80V533ZM80 517H528V435H80V517Z" />
<glyph unicode="&gt;" glyph-name="greater" horiz-adv-x="609" d="M98 256L417 350L98 440V528L513 394V305L98 169V256Z" />
<glyph unicode="?" glyph-name="question" horiz-adv-x="530" d="M163 370H219Q293 370 325 393T358 474V525Q358 591 327 620T229 649Q182 649 139 640T44 612V685Q137 739 259 739Q362 739 410 687T458 540V472Q458 381 406 337T240 292V200H163V370ZM166 -1T161
4T156 16V103Q156 121 173 121H230Q248 121 248 103V16Q248 -1 230 -1H173Q166 -1 161 4Z" />
<glyph unicode="@" glyph-name="at" horiz-adv-x="876" d="M176 -171T121 -120T65 35V347Q65 423 108 480T265 538H452Q528 538 575 506T623 384V26H562L547 85Q545 84 493 51T362 17Q302 17 268 55T234 147V191Q234 252 271 285T376 318H545V378Q545 421 522
440T453 460H265Q208 460 176 434T143 342V44Q143 -28 179 -60T265 -92H584Q652 -92 683 -58T714 44V511Q714 577 680 615T584 654H188V715Q224 722 309 727T489 732H584Q674 732 733 678T792 511V44Q792 -62 743 -116T588 -171H265Q176 -171 121 -120ZM427 95T473
110T545 144V264L394 256Q359 254 338 242T316 193V162Q316 130 336 113T393 95Q427 95 473 110Z" />
<glyph unicode="A" glyph-name="A" horiz-adv-x="678" d="M275 737H403L649 0H544L479 193H197L133 0H29L275 737ZM454 284L338 650L221 284H454Z" />
<glyph unicode="B" glyph-name="B" horiz-adv-x="611" d="M73 737H347Q543 737 543 547Q543 481 515 438T440 383Q491 370 530 326T569 204Q569 93 516 47T358 0H73V737ZM350 417Q394 417 420 450T447 539Q447 647 346 647H174V417H350ZM355 90Q412 90 442 119T473
221Q473 276 440 307T355 339H174V90H355Z" />
<glyph unicode="C" glyph-name="C" horiz-adv-x="582" d="M222 -6T167 23T83 134T55 371Q55 518 84 599T170 711T321 743Q373 743 433 735T539 714V638Q507 643 451 648T339 653Q268 653 230 631T173 548T155 370Q155 250 172 190T227 107T338 84Q459 84 539 96V19Q439
-6 317 -6Q222 -6 167 23Z" />
<glyph unicode="D" glyph-name="D" horiz-adv-x="673" d="M73 737H371Q504 737 561 644T618 368Q618 189 556 95T371 0H73V737ZM362 90Q517 90 517 368Q517 473 501 534T451 621T362 647H174V90H362Z" />
<glyph unicode="E" glyph-name="E" horiz-adv-x="590" d="M165 -4T119 26T73 145V583Q73 664 117 700T223 737Q342 737 492 729L537 727V644H253Q174 644 174 565V412L492 406V328L174 321V170Q174 123 196 107T255 90H537V7Q365 -4 231 -4Q165 -4 119 26Z" />
<glyph unicode="F" glyph-name="F" horiz-adv-x="572" d="M73 583Q73 664 117 700T223 737Q405 737 537 726V644H251Q214 644 194 624T174 566V395L492 389V311L174 305V0H73V583Z" />
<glyph unicode="G" glyph-name="G" horiz-adv-x="657" d="M196 -5T146 36T75 158T55 370Q55 500 77 580T155 702T311 743Q432 743 552 716V639Q437 653 328 653Q258 653 221 626T170 538T155 369Q155 256 169 196T218 112T318 87Q395 87 487 120V315H323V392Q388
402 490 402Q534 402 584 398V0H509L494 51Q453 29 399 12T287 -5Q196 -5 146 36Z" />
<glyph unicode="H" glyph-name="H" horiz-adv-x="688" d="M73 737H174V406H515V737H615V0H515V316H174V0H73V737Z" />
<glyph unicode="I" glyph-name="I" horiz-adv-x="247" d="M73 737H174V0H73V737Z" />
<glyph unicode="J" glyph-name="J" horiz-adv-x="391" d="M113 -6T81 0T27 16V95Q89 84 122 84Q169 84 193 105T217 181V737H317V168Q317 76 275 35T143 -6Q113 -6 81 0Z" />
<glyph unicode="K" glyph-name="K" horiz-adv-x="618" d="M73 737H174V412H294L480 737H587L373 368L591 0H483L293 322H174V0H73V737Z" />
<glyph unicode="L" glyph-name="L" horiz-adv-x="533" d="M153 0T113 36T73 156V737H174V171Q174 126 195 109T253 92H508V0H229Q153 0 113 36Z" />
<glyph unicode="M" glyph-name="M" horiz-adv-x="850" d="M700 0L633 570L471 0H378L214 567L150 0H53L137 737H237L425 122L610 737H711L797 0H700Z" />
<glyph unicode="N" glyph-name="N" horiz-adv-x="689" d="M84 737H166L527 172V737H627V0H546L185 565V0H84V737Z" />
<glyph unicode="O" glyph-name="O" horiz-adv-x="690" d="M240 -6T179 22T87 130T55 366Q55 522 87 603T180 714T345 743Q451 743 512 714T604 604T636 366Q636 210 605 130T512 22T345 -6Q240 -6 179 22ZM419 84T459 105T517 186T535 366Q535 491 517 552T460
633T345 653Q273 653 234 633T175 551T155 366Q155 245 172 186T229 105T345 84Q419 84 459 105Z" />
<glyph unicode="P" glyph-name="P" horiz-adv-x="609" d="M73 737H372Q457 737 513 687T570 496Q570 354 512 302T371 249Q340 249 278 253T174 261V0H73V737ZM357 339Q469 339 469 495Q469 647 363 647H174V339H357Z" />
<glyph unicode="Q" glyph-name="Q" horiz-adv-x="690" d="M240 -6T179 22T87 130T55 366Q55 522 87 603T180 714T345 743Q451 743 512 714T604 604T636 366Q636 210 605 130T512 22T345 -6Q240 -6 179 22ZM419 84T459 105T517 186T535 366Q535 491 517 552T460
633T345 653Q273 653 234 633T175 551T155 366Q155 245 172 186T229 105T345 84Q419 84 459 105ZM443 -178T393 -141T337 -35H406Q416 -69 443 -86T505 -103Q530 -103 561 -94V-171Q529 -178 509 -178Q443 -178 393 -141Z" />
<glyph unicode="R" glyph-name="R" horiz-adv-x="614" d="M73 737H368Q458 737 511 690T565 514Q565 411 528 367T432 307L579 0H477L341 293L204 295Q193 296 174 296V0H73V737ZM352 374Q406 374 435 404T465 514Q465 591 435 619T352 647H174V374H352Z" />
<glyph unicode="S" glyph-name="S" horiz-adv-x="582" d="M235 -6T168 -1T61 14V92Q144 84 282 84Q353 84 392 105T431 184V227Q431 320 332 320H257Q158 320 107 363T56 506V547Q56 649 111 696T277 743Q325 743 387 736T493 721V643L472 644Q344 653 288 653Q220
653 186 629T152 542V512Q152 460 179 438T262 416H343Q433 416 480 368T527 239V187Q527 78 464 36T286 -6Q235 -6 168 -1Z" />
<glyph unicode="T" glyph-name="T" horiz-adv-x="573" d="M236 647H16V737H557V647H337V0H236V647Z" />
<glyph unicode="U" glyph-name="U" horiz-adv-x="679" d="M204 -6T134 46T63 231V737H164V232Q164 151 208 118T339 85Q427 85 471 118T515 232V737H616V231Q616 99 545 47T339 -6Q204 -6 134 46Z" />
<glyph unicode="V" glyph-name="V" horiz-adv-x="678" d="M29 737H133L339 107L546 737H649L403 0H275L29 737Z" />
<glyph unicode="W" glyph-name="W" horiz-adv-x="991" d="M29 737H133L279 143L448 737H545L712 143L859 737H962L777 0H671L496 594L320 0H214L29 737Z" />
<glyph unicode="X" glyph-name="X" horiz-adv-x="636" d="M376 363L604 0H493L314 285L143 0H33L261 369L30 737H140L323 446L495 737H606L376 363Z" />
<glyph unicode="Y" glyph-name="Y" horiz-adv-x="621" d="M260 238L30 737H135L312 340L490 737H591L361 238V0H260V238Z" />
<glyph unicode="Z" glyph-name="Z" horiz-adv-x="564" d="M42 81L405 647H42V737H527V656L164 90H527V0H42V81Z" />
<glyph unicode="[" glyph-name="bracketleft" horiz-adv-x="335" d="M153 -210T119 -153T85 -16V657Q85 737 122 789T248 842H316V761H275Q185 761 185 643V-11Q185 -67 207 -98T275 -129H316V-210H248Q153 -210 119 -153Z" />
<glyph unicode="\" glyph-name="backslash" horiz-adv-x="421" d="M20 770H120L401 -72H301L20 770Z" />
<glyph unicode="]" glyph-name="bracketright" horiz-adv-x="335" d="M20 -129H61Q150 -129 150 -11V643Q150 761 61 761H20V842H88Q177 842 214 790T251 657V-16Q251 -94 217 -152T88 -210H20V-129Z" />
<glyph unicode="^" glyph-name="asciicircum" horiz-adv-x="394" d="M168 666H238L345 531H285L201 617L110 531H50L168 666Z" />
<glyph unicode="_" glyph-name="underscore" horiz-adv-x="609" d="M0 -90H609V-173H0V-90Z" />
<glyph unicode="`" glyph-name="grave" horiz-adv-x="220" d="M20 769H103L201 631H142L20 769Z" />
<glyph unicode="a" glyph-name="a" horiz-adv-x="546" d="M117 -6T79 30T41 128V170Q41 234 84 272T212 311H379V367Q379 400 368 420T329 452T247 463H83V522Q171 542 281 543Q383 543 431 504T480 374V0H401L384 60Q375 52 342 36T264 7T177 -6Q117 -6 79 30ZM249
67T283 75T346 94T379 107V261L239 255Q142 249 142 169V145Q142 104 166 86T225 67Q249 67 283 75Z" />
<glyph unicode="b" glyph-name="b" horiz-adv-x="580" d="M251 -6T170 53L152 0H70V763H170V490Q209 512 254 527T337 542Q437 542 482 478T528 263Q528 131 483 63T342 -6Q251 -6 170 53ZM428 77T428 268Q428 346 413 388T371 445T307 460Q270 460 238 450T170
420V115Q203 98 235 88T307 77Q428 77 428 268Z" />
<glyph unicode="c" glyph-name="c" horiz-adv-x="490" d="M165 -6T109 54T52 266Q52 373 78 433T151 517T272 541Q373 541 451 524V465H300Q247 465 216 449T169 389T153 265Q153 187 169 145T217 87T301 71H459V14Q421 5 370 0T269 -6Q165 -6 109 54Z" />
<glyph unicode="d" glyph-name="d" horiz-adv-x="577" d="M146 -6T99 58T52 263Q52 364 71 424T135 513T254 542Q323 542 410 513V763H510V0H428L410 53Q385 31 336 13T244 -6Q146 -6 99 58ZM338 76T410 116V441Q404 443 378 450T329 461T284 465Q235 465 207
448T166 388T153 268Q153 196 165 155T204 95T276 76Q338 76 410 116Z" />
<glyph unicode="e" glyph-name="e" horiz-adv-x="540" d="M194 -6T145 19T74 103T52 268Q52 376 73 435T144 518T280 542Q356 542 401 526T467 471T488 363Q488 292 447 261T329 229H152Q153 168 165 135T211 86T306 71H473V11Q418 3 376 -1T281 -6Q194 -6 145
19ZM320 292Q361 292 379 307T398 362Q398 422 372 445T280 468Q229 468 202 453T163 401T151 292H320Z" />
<glyph unicode="f" glyph-name="f" horiz-adv-x="375" d="M102 453H22V518L102 535V588Q102 681 138 725T263 769Q313 769 368 758V686H281Q235 686 219 664T202 593V535H359V453H202V0H102V453Z" />
<glyph unicode="g" glyph-name="g" horiz-adv-x="578" d="M557 479L448 468Q475 448 491 421T508 339Q508 268 463 222T317 176H229Q147 176 147 126Q147 105 162 95T200 85H369Q462 85 508 49T555 -66V-85Q555 -162 505 -204T356 -246H203Q124 -246 76 -212T27
-115V-93Q27 -51 50 -20T113 28Q88 41 75 62T61 110Q61 149 84 174T151 208Q101 230 80 271T58 363Q58 536 269 536H557V479ZM368 253T392 279T416 351Q416 459 313 459H257Q204 459 177 435T149 357Q149 253 247 253H306Q368 253 392 279ZM225 8Q181 8 152 -13T122
-75V-94Q122 -174 229 -174H346Q400 -174 430 -153T461 -90V-71Q461 -33 436 -13T354 8H225Z" />
<glyph unicode="h" glyph-name="h" horiz-adv-x="590" d="M70 763H170V477Q208 505 258 524T358 544Q441 544 482 494T523 361V0H423V349Q423 396 396 424T322 453Q280 453 246 441T170 405V0H70V763Z" />
<glyph unicode="i" glyph-name="i" horiz-adv-x="240" d="M76 625T71 629T66 642V726Q66 744 84 744H158Q166 744 170 739T174 726V642Q174 625 158 625H84Q76 625 71 629ZM70 535H170V0H70V535Z" />
<glyph unicode="j" glyph-name="j" horiz-adv-x="240" d="M76 625T71 630T66 642V726Q66 744 83 744H158Q166 744 170 739T174 726V642Q174 625 158 625H83Q76 625 71 630ZM70 535H170V13Q170 -55 163 -122T145 -237H70V535Z" />
<glyph unicode="k" glyph-name="k" horiz-adv-x="521" d="M70 763H170V330H243L392 535H496L317 285L509 0H405L240 240H170V0H70V763Z" />
<glyph unicode="l" glyph-name="l" horiz-adv-x="300" d="M143 -1T107 39T70 172V763H170V185Q170 126 186 104T239 77L289 71V-1H219Q143 -1 107 39Z" />
<glyph unicode="m" glyph-name="m" horiz-adv-x="943" d="M70 535H150L170 477Q215 508 261 526T364 544Q412 544 447 523T502 466Q542 497 599 520T708 544Q794 544 835 494T876 357V0H776V348Q776 396 749 424T674 453Q636 453 595 439T515 400Q523 373 523
347V0H423V348Q423 396 396 424T322 453Q280 453 246 441T170 405V0H70V535Z" />
<glyph unicode="n" glyph-name="n" horiz-adv-x="590" d="M70 535H150L170 477Q209 506 258 525T358 544Q443 544 483 493T523 360V0H423V348Q423 396 396 424T322 453Q280 453 246 441T170 405V0H70V535Z" />
<glyph unicode="o" glyph-name="o" horiz-adv-x="576" d="M203 -6T152 18T77 101T52 268Q52 378 77 437T152 519T288 542Q373 542 423 519T499 437T524 268Q524 160 500 101T425 18T288 -6Q203 -6 152 18ZM338 76T366 89T409 144T424 269Q424 352 410 393T367
448T288 461Q237 461 210 448T168 394T153 269Q153 185 167 144T209 89T288 76Q338 76 366 89Z" />
<glyph unicode="p" glyph-name="p" horiz-adv-x="580" d="M70 535H152L170 481Q203 505 248 523T337 542Q435 542 481 467T528 268Q528 131 483 62T337 -7Q296 -7 252 5T170 39V-237H70V535ZM428 77T428 268Q428 367 395 413T308 460Q244 460 170 420V115Q201
97 236 87T307 77Q428 77 428 268Z" />
<glyph unicode="q" glyph-name="q" horiz-adv-x="577" d="M410 53Q373 27 329 11T244 -6Q139 -6 96 60T52 268Q52 411 100 476T253 542Q368 542 510 526V-237H410V53ZM338 76T410 116V465H280Q210 465 182 416T153 271Q153 198 164 156T201 95T270 76Q338 76 410 116Z" />
<glyph unicode="r" glyph-name="r" horiz-adv-x="416" d="M70 535H147L170 445Q208 491 250 516T344 542Q371 542 392 536V433Q360 438 332 438Q283 438 246 421T170 365V0H70V535Z" />
<glyph unicode="s" glyph-name="s" horiz-adv-x="501" d="M207 -6T143 -2T51 11V71H276Q324 71 347 84T370 139V161Q370 225 284 225H206Q129 225 87 256T45 361V390Q45 467 90 503T241 540Q285 540 344 535T435 522V462H223Q176 462 154 446T132 390V370Q132
332 153 320T223 308H303Q378 308 417 273T457 173V132Q457 55 407 25T257 -6Q207 -6 143 -2Z" />
<glyph unicode="t" glyph-name="t" horiz-adv-x="374" d="M172 0T134 41T98 178L102 453H17V518L104 535L119 685H198V535H343V453H198V179Q198 125 218 104T270 80L336 74V0H255Q172 0 134 41Z" />
<glyph unicode="u" glyph-name="u" horiz-adv-x="590" d="M150 -6T110 35T69 158V535H169V185Q169 128 195 106T274 83Q348 83 422 130V535H522V0H442L422 58Q322 -6 227 -6Q150 -6 110 35Z" />
<glyph unicode="v" glyph-name="v" d="M17 535H120L271 93L426 535H528L327 0H211L17 535Z" />
<glyph unicode="w" glyph-name="w" horiz-adv-x="806" d="M17 535H120L237 93L363 535H448L574 93L686 535H789L635 0H524L404 397L282 0H173L17 535Z" />
<glyph unicode="x" glyph-name="x" horiz-adv-x="518" d="M314 262L500 0H398L255 201L120 0H18L204 273L18 535H120L263 333L398 534L500 535L314 262Z" />
<glyph unicode="y" glyph-name="y" horiz-adv-x="550" d="M286 0Q234 1 195 32T137 131L17 535H122L230 152Q252 84 305 84L430 535H533L349 -138L301 -237H221L286 0Z" />
<glyph unicode="z" glyph-name="z" horiz-adv-x="498" d="M49 74L340 453H41V535H457V460L165 81H457V0H49V74Z" />
<glyph unicode="{" glyph-name="braceleft" horiz-adv-x="312" d="M180 -210T138 -166T95 -38V222Q95 253 73 270T20 286V381Q96 388 96 445V656Q96 842 292 842V761Q240 761 219 731T197 620V429Q197 386 172 363T106 334Q146 327 171 303T196 242V-7Q196 -76
217 -104T292 -133V-210Q180 -210 138 -166Z" />
<glyph unicode="|" glyph-name="bar" horiz-adv-x="252" d="M85 770H167V-72H85V770Z" />
<glyph unicode="}" glyph-name="braceright" horiz-adv-x="312" d="M20 -133Q73 -133 94 -105T116 -7V242Q116 278 141 302T207 334Q165 339 140 362T115 429V620Q115 700 94 730T20 761V842Q216 842 216 656V445Q216 388 292 381V286Q261 288 239 271T217 222V-38Q217
-121 175 -165T20 -210V-133Z" />
<glyph unicode="~" glyph-name="asciitilde" horiz-adv-x="442" d="M267 537T250 545T210 568Q192 580 180 586T158 592Q135 592 115 582T64 549L50 584Q78 614 105 631T164 649Q179 649 196 641T234 618Q252 606 264 600T285 593Q327 593 378 640L393 603Q366
572 341 555T284 537Q267 537 250 545Z" />
<glyph unicode="&#xa0;" glyph-name="uni00A0" horiz-adv-x="267" />
<glyph unicode="&#xa1;" glyph-name="exclamdown" horiz-adv-x="268" d="M173 536T177 532T182 519V432Q182 414 165 414H108Q90 414 90 432V519Q90 536 108 536H165Q173 536 177 532ZM186 -201H85L100 334H173L186 -201Z" />
<glyph unicode="&#xa2;" glyph-name="cent" horiz-adv-x="487" d="M234 -5Q142 -4 91 54T40 266Q40 373 64 432T130 513T236 536V625H294V535Q363 529 440 506V447Q378 459 270 459Q223 459 196 445T154 388T140 263Q140 185 154 144T197 88T273 72Q371 72 447
88V28Q406 11 371 4T293 -5V-88H234V-5Z" />
<glyph unicode="&#xa3;" glyph-name="sterling" horiz-adv-x="609" d="M62 76L166 90V328L62 336V387L166 401V511Q166 597 191 647T264 719T387 740Q440 740 539 729V650H391Q346 650 320 640T280 601T266 521V401L471 392V336L266 328V90H549V0H62V76Z" />
<glyph unicode="&#xa4;" glyph-name="currency" horiz-adv-x="609" d="M473 305T443 262L535 170L491 126L399 218Q356 188 304 188Q253 188 210 218L118 126L74 170L166 262Q137 306 137 356Q137 408 166 451L74 543L118 587L210 495Q253 525 304 525Q356 525
399 495L491 587L535 543L443 451Q473 408 473 356Q473 305 443 262ZM350 243T383 276T417 356Q417 403 384 436T304 469Q258 469 226 436T193 356Q193 310 225 277T304 243Q350 243 383 276Z" />
<glyph unicode="&#xa5;" glyph-name="yen" horiz-adv-x="609" d="M381 316H530V260H355L345 238V186H530V131H345V0H244V131H79V186H244V238L234 260H79V316H208L14 737H119L296 340L474 737H575L381 316Z" />
<glyph unicode="&#xa6;" glyph-name="brokenbar" horiz-adv-x="252" d="M85 770H167V429H85V770ZM85 256H167V-72H85V256Z" />
<glyph unicode="&#xa7;" glyph-name="section" horiz-adv-x="547" d="M261 -6T194 -3T92 5V75H297Q353 75 373 90T393 136V181Q393 201 388 211T368 225T321 230H203Q123 230 87 254T50 340V388Q50 433 66 454T119 485Q59 505 59 590V650Q59 784 227 784Q283 784
354 781T456 772V703H241Q196 703 176 689T155 636V595Q155 566 171 555T226 544H343Q430 544 464 519T499 431V383Q499 343 484 321T433 289Q466 281 478 256T491 192V133Q491 57 447 26T316 -6Q261 -6 194 -3ZM321 307Q359 307 375 310T397 325T403 363V410Q403
443 387 454T321 466H225Q180 466 163 454T146 408V362Q146 334 163 321T225 307H321Z" />
<glyph unicode="&#xa8;" glyph-name="dieresis" horiz-adv-x="409" d="M77 648T72 653T67 665V749Q67 767 84 767H130Q147 767 147 749V665Q147 648 130 648H84Q77 648 72 653ZM272 648T267 653T262 665V749Q262 767 279 767H326Q343 767 343 749V665Q343 657
339 653T326 648H279Q272 648 267 653Z" />
<glyph unicode="&#xa9;" glyph-name="copyright" horiz-adv-x="832" d="M223 0T166 53T82 191T55 368Q55 526 112 629T312 732H543Q777 732 777 368Q777 256 750 173T670 45T543 0H312Q223 0 166 53ZM538 55Q620 55 669 133T718 368Q718 507 680 592T543 678H312Q224
678 169 607T114 364Q114 283 136 213T202 99T312 55H538ZM315 147T274 195T232 365Q232 583 385 583Q420 583 470 578T559 563V517Q518 523 474 526T403 529Q346 529 319 491T291 362Q291 280 317 241T402 202Q496 202 565 218V171Q525 156 484 152T385 147Q315
147 274 195Z" />
<glyph unicode="&#xaa;" glyph-name="ordfeminine" horiz-adv-x="409" d="M29 533T60 557T152 582H274V626Q274 659 255 674T180 690H59V740Q128 757 211 758Q287 758 325 729T363 632V360H293L278 403Q271 397 247 386T192 365T130 356Q85 356 57 381T29 451V487Q29
533 60 557ZM192 415T231 426T274 441V547L175 542Q141 541 126 526T110 484V468Q110 440 126 428T169 415Q192 415 231 426ZM31 311H370V261H31V311Z" />
<glyph unicode="&#xab;" glyph-name="guillemotleft" horiz-adv-x="614" d="M50 281L265 493L317 441L154 281L321 117L269 64L50 281ZM300 281L515 493L567 441L404 281L571 117L519 64L300 281Z" />
<glyph unicode="&#xac;" glyph-name="logicalnot" horiz-adv-x="609" d="M528 517V195H446V435H80V517H528Z" />
<glyph unicode="&#xad;" glyph-name="uni00AD" horiz-adv-x="345" d="M24 331H321V249H24V331Z" />
<glyph unicode="&#xae;" glyph-name="registered" horiz-adv-x="832" d="M223 0T166 53T82 191T55 368Q55 526 112 629T312 732H543Q777 732 777 368Q777 256 750 173T670 45T543 0H312Q223 0 166 53ZM538 55Q620 55 669 133T718 368Q718 507 680 592T543 678H312Q224
678 169 607T114 364Q114 283 136 213T202 99T312 55H538ZM263 580H445Q503 580 538 552T573 449Q573 404 560 380T529 346T484 330L582 153H522L426 332L322 334V153H263V580ZM446 377Q482 377 498 391T514 448Q514 491 497 508T446 526H322V377H446Z" />
<glyph unicode="&#xaf;" glyph-name="overscore" horiz-adv-x="369" d="M50 724H320V664H50V724Z" />
<glyph unicode="&#xb0;" glyph-name="degree" horiz-adv-x="326" d="M105 492T67 530T28 628Q28 688 66 726T164 764Q223 764 260 726T298 628Q298 568 261 530T164 492Q105 492 67 530ZM202 539T226 563T251 628Q251 667 227 692T164 717Q125 717 100 692T75
628Q75 589 100 564T164 539Q202 539 226 563Z" />
<glyph unicode="&#xb1;" glyph-name="plusminus" horiz-adv-x="609" d="M80 197H528V115H80V197ZM528 465H345V282H263V465H80V547H263V730H345V547H528V465Z" />
<glyph unicode="&#xb2;" glyph-name="uni00B2" horiz-adv-x="454" d="M47 346L233 531Q272 568 289 600T307 670Q307 705 286 724T211 743H63V810Q115 817 150 820T229 824Q320 824 358 788T397 681Q397 627 376 586T300 490L165 358H415V280H47V346Z" />
<glyph unicode="&#xb3;" glyph-name="uni00B3" horiz-adv-x="454" d="M118 276T40 289V356H210Q259 356 284 371T309 423V450Q309 483 286 497T227 514L93 519V584L223 591Q262 593 282 606T302 648V676Q302 710 279 726T206 743H55V811Q137 825 239 824Q311 824
350 790T389 694V651Q389 609 368 585T316 552Q349 543 373 516T398 443V410Q398 346 356 311T238 276Q118 276 40 289Z" />
<glyph unicode="&#xb4;" glyph-name="acute" horiz-adv-x="220" d="M117 769H201L79 631H20L117 769Z" />
<glyph unicode="&#xb5;" glyph-name="uni00B5" horiz-adv-x="590" />
<glyph unicode="&#xb6;" glyph-name="paragraph" horiz-adv-x="573" d="M266 322Q258 316 238 312T189 309Q114 309 74 351T34 459V597Q34 665 80 701T196 737H563V666H491V0H422V668H335V-270H266V322ZM266 378V668H200Q103 668 103 581V469Q103 415 134 397T200
378H266Z" />
<glyph unicode="&#xb7;" glyph-name="middot" horiz-adv-x="261" d="M95 319T90 324T85 336V396Q85 414 102 414H159Q177 414 177 396V336Q177 319 159 319H102Q95 319 90 324Z" />
<glyph unicode="&#xb8;" glyph-name="cedilla" horiz-adv-x="254" d="M187 -59T187 -118Q187 -154 162 -173T88 -192H50V-151L71 -149Q122 -143 122 -107Q122 -69 62 -65L114 15H160L116 -53Q187 -59 187 -118Z" />
<glyph unicode="&#xb9;" glyph-name="uni00B9" horiz-adv-x="454" d="M407 357V280H64V357H191V741L72 717V780L200 825H280V357H407Z" />
<glyph unicode="&#xba;" glyph-name="ordmasculine" horiz-adv-x="430" d="M280 757T318 740T375 680T394 556Q394 477 376 434T320 374T215 356Q150 356 112 374T55 435T36 556Q36 637 54 680T111 740T215 757Q280 757 318 740ZM248 421T267 430T296 469T306
557Q306 616 296 645T267 683T215 692Q181 692 162 683T134 645T124 557Q124 498 133 469T162 431T215 421Q248 421 267 430ZM44 311H386V261H44V311Z" />
<glyph unicode="&#xbb;" glyph-name="guillemotright" horiz-adv-x="614" d="M48 117L211 278L45 441L99 493L316 278L98 64L48 117ZM298 117L461 278L295 441L349 493L566 278L348 64L298 117Z" />
<glyph unicode="&#xbc;" glyph-name="onequarter" horiz-adv-x="1275" d="M788 770H860L486 0H414L788 770ZM1083 125H837L824 182L1008 540H1096L922 198H1083V306L1104 378H1167V198H1232V139L1167 125V1H1083V125ZM413 357V280H70V357H197V741L78 717V780L206
825H286V357H413Z" />
<glyph unicode="&#xbd;" glyph-name="onehalf" horiz-adv-x="1275" d="M788 770H860L486 0H414L788 770ZM842 66L1028 251Q1067 288 1084 320T1102 390Q1102 425 1081 444T1006 463H858V530Q910 537 945 540T1024 544Q1115 544 1153 508T1192 401Q1192 347 1171
306T1095 210L960 78H1210V0H842V66ZM413 357V280H70V357H197V741L78 717V780L206 825H286V357H413Z" />
<glyph unicode="&#xbe;" glyph-name="threequarters" horiz-adv-x="1275" d="M788 770H860L486 0H414L788 770ZM1083 125H837L824 182L1008 540H1096L922 198H1083V306L1104 378H1167V198H1232V139L1167 125V1H1083V125ZM128 276T50 289V356H220Q269 356 294 371T319
423V450Q319 483 296 497T237 514L103 519V584L233 591Q272 593 292 606T312 648V676Q312 710 289 726T216 743H65V811Q147 825 249 824Q321 824 360 790T399 694V651Q399 609 378 585T326 552Q359 543 383 516T408 443V410Q408 346 366 311T248 276Q128 276 50
289Z" />
<glyph unicode="&#xbf;" glyph-name="questiondown" horiz-adv-x="530" d="M365 536T369 532T374 519V432Q374 414 357 414H300Q282 414 282 432V519Q282 536 300 536H357Q365 536 369 532ZM367 165H311Q237 165 205 142T172 61V10Q172 -56 203 -85T301 -114Q348
-114 391 -105T486 -77V-150Q393 -204 271 -204Q168 -204 120 -152T72 -5V63Q72 154 124 198T290 243V335H367V165Z" />
<glyph unicode="&#xc0;" glyph-name="Agrave" horiz-adv-x="678" d="M275 737H403L649 0H544L479 193H197L133 0H29L275 737ZM454 284L338 650L221 284H454ZM196 929H279L377 791H318L196 929Z" />
<glyph unicode="&#xc1;" glyph-name="Aacute" horiz-adv-x="678" d="M275 737H403L649 0H544L479 193H197L133 0H29L275 737ZM454 284L338 650L221 284H454ZM410 929H494L372 791H313L410 929Z" />
<glyph unicode="&#xc2;" glyph-name="Acircumflex" horiz-adv-x="678" d="M275 737H403L649 0H544L479 193H197L133 0H29L275 737ZM454 284L338 650L221 284H454ZM306 928H376L483 791H423L339 882L248 791H188L306 928Z" />
<glyph unicode="&#xc3;" glyph-name="Atilde" horiz-adv-x="678" d="M275 737H403L649 0H544L479 193H197L133 0H29L275 737ZM454 284L338 650L221 284H454ZM163 860T191 887T259 915Q282 915 302 907T347 884Q369 871 383 865T412 859Q437 859 451 874T467 919H518Q517
863 491 833T419 802Q397 802 378 810T333 833Q312 846 297 852T266 859Q243 859 228 844T212 801H161Q163 860 191 887Z" />
<glyph unicode="&#xc4;" glyph-name="Adieresis" horiz-adv-x="678" d="M275 737H403L649 0H544L479 193H197L133 0H29L275 737ZM454 284L338 650L221 284H454ZM185 808T181 813T176 825V909Q176 927 193 927H240Q257 927 257 909V825Q257 817 253 813T240 808H193Q185
808 181 813ZM414 808T409 813T404 825V909Q404 927 422 927H468Q485 927 485 909V825Q485 817 481 813T468 808H422Q414 808 409 813Z" />
<glyph unicode="&#xc5;" glyph-name="Aring" horiz-adv-x="678" d="M275 737H403L649 0H544L479 193H197L133 0H29L275 737ZM454 284L338 650L221 284H454ZM280 765T252 790T223 874Q223 933 251 958T339 984Q397 984 424 959T452 874Q452 814 425 790T339 765Q280
765 252 790ZM374 805T389 820T404 874Q404 913 389 928T339 944Q303 944 287 929T271 874Q271 835 287 820T339 805Q374 805 389 820Z" />
<glyph unicode="&#xc6;" glyph-name="AE" horiz-adv-x="969" d="M559 -4T520 23T477 117V192H246L128 0H29L368 585Q412 667 469 702T618 737Q735 737 915 726V644H637Q599 644 584 629T568 581V412L871 406V328L568 321V170Q568 125 590 108T658 90H915V8Q743
-4 635 -4Q559 -4 520 23ZM477 278V599L291 278H477Z" />
<glyph unicode="&#xc7;" glyph-name="Ccedilla" horiz-adv-x="582" d="M268 653T230 631T173 548T155 370Q155 250 172 190T227 107T338 84Q459 84 539 96V19Q459 -1 361 -5L330 -53Q401 -59 401 -118Q401 -154 376 -173T302 -192H264V-151L285 -149Q336 -143
336 -107Q336 -69 276 -65L314 -6Q220 -5 166 24T83 135T55 371Q55 518 84 599T170 711T321 743Q373 743 433 735T539 714V638Q507 643 451 648T339 653Q268 653 230 631Z" />
<glyph unicode="&#xc8;" glyph-name="Egrave" horiz-adv-x="590" d="M165 -4T119 26T73 145V583Q73 664 117 700T223 737Q342 737 492 729L537 727V644H253Q174 644 174 565V412L492 406V328L174 321V170Q174 123 196 107T255 90H537V7Q365 -4 231 -4Q165 -4 119
26ZM170 929H253L351 791H292L170 929Z" />
<glyph unicode="&#xc9;" glyph-name="Eacute" horiz-adv-x="590" d="M165 -4T119 26T73 145V583Q73 664 117 700T223 737Q342 737 492 729L537 727V644H253Q174 644 174 565V412L492 406V328L174 321V170Q174 123 196 107T255 90H537V7Q365 -4 231 -4Q165 -4 119
26ZM384 929H468L346 791H287L384 929Z" />
<glyph unicode="&#xca;" glyph-name="Ecircumflex" horiz-adv-x="590" d="M165 -4T119 26T73 145V583Q73 664 117 700T223 737Q342 737 492 729L537 727V644H253Q174 644 174 565V412L492 406V328L174 321V170Q174 123 196 107T255 90H537V7Q365 -4 231 -4Q165
-4 119 26ZM280 928H350L457 791H397L313 882L222 791H162L280 928Z" />
<glyph unicode="&#xcb;" glyph-name="Edieresis" horiz-adv-x="590" d="M165 -4T119 26T73 145V583Q73 664 117 700T223 737Q342 737 492 729L537 727V644H253Q174 644 174 565V412L492 406V328L174 321V170Q174 123 196 107T255 90H537V7Q365 -4 231 -4Q165 -4
119 26ZM159 808T155 813T150 825V909Q150 927 167 927H214Q231 927 231 909V825Q231 817 227 813T214 808H167Q159 808 155 813ZM388 808T383 813T378 825V909Q378 927 396 927H442Q459 927 459 909V825Q459 817 455 813T442 808H396Q388 808 383 813Z" />
<glyph unicode="&#xcc;" glyph-name="Igrave" horiz-adv-x="247" d="M73 737H174V0H73V737ZM-19 929H64L162 791H103L-19 929Z" />
<glyph unicode="&#xcd;" glyph-name="Iacute" horiz-adv-x="247" d="M73 737H174V0H73V737ZM195 929H279L157 791H98L195 929Z" />
<glyph unicode="&#xce;" glyph-name="Icircumflex" horiz-adv-x="247" d="M73 737H174V0H73V737ZM91 928H161L268 791H208L124 882L33 791H-27L91 928Z" />
<glyph unicode="&#xcf;" glyph-name="Idieresis" horiz-adv-x="247" d="M73 737H174V0H73V737ZM-30 808T-34 813T-39 825V909Q-39 927 -22 927H25Q42 927 42 909V825Q42 817 38 813T25 808H-22Q-30 808 -34 813ZM199 808T194 813T189 825V909Q189 927 207 927H253Q270
927 270 909V825Q270 817 266 813T253 808H207Q199 808 194 813Z" />
<glyph unicode="&#xd0;" glyph-name="Eth" horiz-adv-x="673" d="M504 737T561 644T618 368Q618 189 556 95T371 0H73V339H14V406H73V737H371Q504 737 561 644ZM517 90T517 368Q517 473 501 534T451 621T362 647H174V406H327V339H174V90H362Q517 90 517 368Z" />
<glyph unicode="&#xd1;" glyph-name="Ntilde" horiz-adv-x="689" d="M84 737H166L527 172V737H627V0H546L185 565V0H84V737ZM166 860T194 887T262 915Q285 915 305 907T350 884Q372 871 386 865T415 859Q440 859 454 874T470 919H521Q520 863 494 833T422 802Q400
802 381 810T336 833Q315 846 300 852T269 859Q246 859 231 844T215 801H164Q166 860 194 887Z" />
<glyph unicode="&#xd2;" glyph-name="Ograve" horiz-adv-x="690" d="M240 -6T179 22T87 130T55 366Q55 522 87 603T180 714T345 743Q451 743 512 714T604 604T636 366Q636 210 605 130T512 22T345 -6Q240 -6 179 22ZM419 84T459 105T517 186T535 366Q535 491 517
552T460 633T345 653Q273 653 234 633T175 551T155 366Q155 245 172 186T229 105T345 84Q419 84 459 105ZM203 929H286L384 791H325L203 929Z" />
<glyph unicode="&#xd3;" glyph-name="Oacute" horiz-adv-x="690" d="M240 -6T179 22T87 130T55 366Q55 522 87 603T180 714T345 743Q451 743 512 714T604 604T636 366Q636 210 605 130T512 22T345 -6Q240 -6 179 22ZM419 84T459 105T517 186T535 366Q535 491 517
552T460 633T345 653Q273 653 234 633T175 551T155 366Q155 245 172 186T229 105T345 84Q419 84 459 105ZM417 929H501L379 791H320L417 929Z" />
<glyph unicode="&#xd4;" glyph-name="Ocircumflex" horiz-adv-x="690" d="M240 -6T179 22T87 130T55 366Q55 522 87 603T180 714T345 743Q451 743 512 714T604 604T636 366Q636 210 605 130T512 22T345 -6Q240 -6 179 22ZM419 84T459 105T517 186T535 366Q535
491 517 552T460 633T345 653Q273 653 234 633T175 551T155 366Q155 245 172 186T229 105T345 84Q419 84 459 105ZM313 928H383L490 791H430L346 882L255 791H195L313 928Z" />
<glyph unicode="&#xd5;" glyph-name="Otilde" horiz-adv-x="690" d="M240 -6T179 22T87 130T55 366Q55 522 87 603T180 714T345 743Q451 743 512 714T604 604T636 366Q636 210 605 130T512 22T345 -6Q240 -6 179 22ZM419 84T459 105T517 186T535 366Q535 491 517
552T460 633T345 653Q273 653 234 633T175 551T155 366Q155 245 172 186T229 105T345 84Q419 84 459 105ZM171 860T199 887T267 915Q290 915 310 907T355 884Q377 871 391 865T420 859Q445 859 459 874T475 919H526Q525 863 499 833T427 802Q405 802 386 810T341
833Q320 846 305 852T274 859Q251 859 236 844T220 801H169Q171 860 199 887Z" />
<glyph unicode="&#xd6;" glyph-name="Odieresis" horiz-adv-x="690" d="M240 -6T179 22T87 130T55 366Q55 522 87 603T180 714T345 743Q451 743 512 714T604 604T636 366Q636 210 605 130T512 22T345 -6Q240 -6 179 22ZM419 84T459 105T517 186T535 366Q535 491
517 552T460 633T345 653Q273 653 234 633T175 551T155 366Q155 245 172 186T229 105T345 84Q419 84 459 105ZM192 808T188 813T183 825V909Q183 927 200 927H247Q264 927 264 909V825Q264 817 260 813T247 808H200Q192 808 188 813ZM421 808T416 813T411 825V909Q411
927 429 927H475Q492 927 492 909V825Q492 817 488 813T475 808H429Q421 808 416 813Z" />
<glyph unicode="&#xd7;" glyph-name="multiply" horiz-adv-x="609" d="M304 415L245 356L116 485L175 544L304 415ZM363 356L304 415L433 544L492 485L363 356ZM245 356L304 297L175 168L116 227L245 356ZM363 356L492 227L433 168L304 297L363 356Z" />
<glyph unicode="&#xd8;" glyph-name="Oslash" horiz-adv-x="690" d="M605 619T620 547T636 366Q636 210 605 130T512 22T345 -6Q282 -6 237 2T159 33L137 0H67L116 74Q85 116 70 186T55 366Q55 522 87 603T180 714T345 743Q408 743 453 734T531 703L554 737H624L574
662Q605 619 620 547ZM155 230T178 168L477 620Q456 639 425 646T345 653Q273 653 234 633T175 551T155 366Q155 230 178 168ZM419 84T459 105T517 186T535 366Q535 505 512 567L214 116Q235 98 266 91T345 84Q419 84 459 105Z" />
<glyph unicode="&#xd9;" glyph-name="Ugrave" horiz-adv-x="679" d="M204 -6T134 46T63 231V737H164V232Q164 151 208 118T339 85Q427 85 471 118T515 232V737H616V231Q616 99 545 47T339 -6Q204 -6 134 46ZM192 929H275L373 791H314L192 929Z" />
<glyph unicode="&#xda;" glyph-name="Uacute" horiz-adv-x="679" d="M204 -6T134 46T63 231V737H164V232Q164 151 208 118T339 85Q427 85 471 118T515 232V737H616V231Q616 99 545 47T339 -6Q204 -6 134 46ZM406 929H490L368 791H309L406 929Z" />
<glyph unicode="&#xdb;" glyph-name="Ucircumflex" horiz-adv-x="679" d="M204 -6T134 46T63 231V737H164V232Q164 151 208 118T339 85Q427 85 471 118T515 232V737H616V231Q616 99 545 47T339 -6Q204 -6 134 46ZM302 928H372L479 791H419L335 882L244 791H184L302 928Z" />
<glyph unicode="&#xdc;" glyph-name="Udieresis" horiz-adv-x="679" d="M204 -6T134 46T63 231V737H164V232Q164 151 208 118T339 85Q427 85 471 118T515 232V737H616V231Q616 99 545 47T339 -6Q204 -6 134 46ZM181 808T177 813T172 825V909Q172 927 189 927H236Q253
927 253 909V825Q253 817 249 813T236 808H189Q181 808 177 813ZM410 808T405 813T400 825V909Q400 927 418 927H464Q481 927 481 909V825Q481 817 477 813T464 808H418Q410 808 405 813Z" />
<glyph unicode="&#xdd;" glyph-name="Yacute" horiz-adv-x="621" d="M260 238L30 737H135L312 340L490 737H591L361 238V0H260V238ZM384 929H468L346 791H287L384 929Z" />
<glyph unicode="&#xde;" glyph-name="Thorn" horiz-adv-x="568" d="M73 737H174V607H331Q416 607 472 560T529 381Q529 247 471 198T330 149Q307 149 257 153T174 162V0H73V737ZM316 240Q428 240 428 381Q428 516 322 516H174V240H316Z" />
<glyph unicode="&#xdf;" glyph-name="germandbls" horiz-adv-x="590" d="M351 -7T307 -3T237 8V75Q305 71 372 71Q427 71 450 93T473 143V163Q473 188 454 201T395 230Q360 244 339 255T303 288T288 341Q288 378 306 406T360 472Q392 505 408 530T425 586Q425
684 297 684Q160 684 160 535V0H60V544Q60 643 119 705T297 767Q412 767 466 719T520 592Q520 546 499 514T439 444Q410 415 397 397T384 358Q384 334 402 321T459 292Q495 277 516 264T553 228T569 170V141Q569 66 518 30T396 -7Q351 -7 307 -3Z" />
<glyph unicode="&#xe0;" glyph-name="agrave" horiz-adv-x="546" d="M117 -6T79 30T41 128V170Q41 234 84 272T212 311H379V367Q379 400 368 420T329 452T247 463H83V522Q171 542 281 543Q383 543 431 504T480 374V0H401L384 60Q375 52 342 36T264 7T177 -6Q117
-6 79 30ZM249 67T283 75T346 94T379 107V261L239 255Q142 249 142 169V145Q142 104 166 86T225 67Q249 67 283 75ZM139 769H222L320 631H261L139 769Z" />
<glyph unicode="&#xe1;" glyph-name="aacute" horiz-adv-x="546" d="M117 -6T79 30T41 128V170Q41 234 84 272T212 311H379V367Q379 400 368 420T329 452T247 463H83V522Q171 542 281 543Q383 543 431 504T480 374V0H401L384 60Q375 52 342 36T264 7T177 -6Q117
-6 79 30ZM249 67T283 75T346 94T379 107V261L239 255Q142 249 142 169V145Q142 104 166 86T225 67Q249 67 283 75ZM331 769H415L293 631H234L331 769Z" />
<glyph unicode="&#xe2;" glyph-name="acircumflex" horiz-adv-x="546" d="M117 -6T79 30T41 128V170Q41 234 84 272T212 311H379V367Q379 400 368 420T329 452T247 463H83V522Q171 542 281 543Q383 543 431 504T480 374V0H401L384 60Q375 52 342 36T264 7T177
-6Q117 -6 79 30ZM249 67T283 75T346 94T379 107V261L239 255Q142 249 142 169V145Q142 104 166 86T225 67Q249 67 283 75ZM238 768H308L415 631H355L271 722L180 631H120L238 768Z" />
<glyph unicode="&#xe3;" glyph-name="atilde" horiz-adv-x="546" d="M117 -6T79 30T41 128V170Q41 234 84 272T212 311H379V367Q379 400 368 420T329 452T247 463H83V522Q171 542 281 543Q383 543 431 504T480 374V0H401L384 60Q375 52 342 36T264 7T177 -6Q117
-6 79 30ZM249 67T283 75T346 94T379 107V261L239 255Q142 249 142 169V145Q142 104 166 86T225 67Q249 67 283 75ZM103 700T131 727T199 755Q222 755 242 747T287 724Q309 711 323 705T352 699Q377 699 391 714T407 759H458Q457 703 431 673T359 642Q337 642 318
650T273 673Q252 686 237 692T206 699Q183 699 168 684T152 641H101Q103 700 131 727Z" />
<glyph unicode="&#xe4;" glyph-name="adieresis" horiz-adv-x="546" d="M117 -6T79 30T41 128V170Q41 234 84 272T212 311H379V367Q379 400 368 420T329 452T247 463H83V522Q171 542 281 543Q383 543 431 504T480 374V0H401L384 60Q375 52 342 36T264 7T177 -6Q117
-6 79 30ZM249 67T283 75T346 94T379 107V261L239 255Q142 249 142 169V145Q142 104 166 86T225 67Q249 67 283 75ZM139 648T134 653T129 665V749Q129 767 147 767H193Q210 767 210 749V665Q210 648 193 648H147Q139 648 134 653ZM334 648T330 653T325 665V749Q325
767 342 767H389Q406 767 406 749V665Q406 657 402 653T389 648H342Q334 648 330 653Z" />
<glyph unicode="&#xe5;" glyph-name="aring" horiz-adv-x="546" d="M117 -6T79 30T41 128V170Q41 234 84 272T212 311H379V367Q379 400 368 420T329 452T247 463H83V522Q171 542 281 543Q383 543 431 504T480 374V0H401L384 60Q375 52 342 36T264 7T177 -6Q117
-6 79 30ZM249 67T283 75T346 94T379 107V261L239 255Q142 249 142 169V145Q142 104 166 86T225 67Q249 67 283 75ZM212 591T184 616T155 700Q155 759 183 784T271 810Q329 810 356 785T384 700Q384 640 357 616T271 591Q212 591 184 616ZM306 631T321 646T336
700Q336 739 321 754T271 770Q235 770 219 755T203 700Q203 661 219 646T271 631Q306 631 321 646Z" />
<glyph unicode="&#xe6;" glyph-name="ae" horiz-adv-x="872" d="M113 -6T78 31T43 131V168Q43 231 85 268T211 306H381V369Q381 414 353 438T258 463H85V522Q127 532 168 537T268 543Q327 543 372 522T436 460Q457 503 500 522T609 542Q682 542 727 526T794 470T816
360Q816 293 775 266T651 239H479Q479 141 521 106T644 71H801V11Q717 -6 599 -6Q529 -6 483 23T413 96Q372 53 312 24T182 -6Q113 -6 78 31ZM649 304Q687 304 706 316T725 362Q725 419 697 442T602 465Q553 465 527 452T491 404T479 304H649ZM270 67T313 87T392
143Q380 193 380 254L229 248Q185 247 165 225T144 169V147Q144 67 225 67Q270 67 313 87Z" />
<glyph unicode="&#xe7;" glyph-name="ccedilla" horiz-adv-x="490" d="M388 -3T296 -6L265 -53Q336 -59 336 -118Q336 -154 311 -173T237 -192H199V-151L220 -149Q271 -143 271 -107Q271 -69 211 -65L250 -6Q155 -1 104 60T52 266Q52 373 78 433T151 517T272 541Q373
541 451 524V465H300Q247 465 216 449T169 389T153 265Q153 187 169 145T217 87T301 71H459V14Q388 -3 296 -6Z" />
<glyph unicode="&#xe8;" glyph-name="egrave" horiz-adv-x="540" d="M194 -6T145 19T74 103T52 268Q52 376 73 435T144 518T280 542Q356 542 401 526T467 471T488 363Q488 292 447 261T329 229H152Q153 168 165 135T211 86T306 71H473V11Q418 3 376 -1T281 -6Q194
-6 145 19ZM320 292Q361 292 379 307T398 362Q398 422 372 445T280 468Q229 468 202 453T163 401T151 292H320ZM139 769H222L320 631H261L139 769Z" />
<glyph unicode="&#xe9;" glyph-name="eacute" horiz-adv-x="540" d="M194 -6T145 19T74 103T52 268Q52 376 73 435T144 518T280 542Q356 542 401 526T467 471T488 363Q488 292 447 261T329 229H152Q153 168 165 135T211 86T306 71H473V11Q418 3 376 -1T281 -6Q194
-6 145 19ZM320 292Q361 292 379 307T398 362Q398 422 372 445T280 468Q229 468 202 453T163 401T151 292H320ZM331 769H415L293 631H234L331 769Z" />
<glyph unicode="&#xea;" glyph-name="ecircumflex" horiz-adv-x="540" d="M194 -6T145 19T74 103T52 268Q52 376 73 435T144 518T280 542Q356 542 401 526T467 471T488 363Q488 292 447 261T329 229H152Q153 168 165 135T211 86T306 71H473V11Q418 3 376 -1T281
-6Q194 -6 145 19ZM320 292Q361 292 379 307T398 362Q398 422 372 445T280 468Q229 468 202 453T163 401T151 292H320ZM238 768H308L415 631H355L271 722L180 631H120L238 768Z" />
<glyph unicode="&#xeb;" glyph-name="edieresis" horiz-adv-x="540" d="M194 -6T145 19T74 103T52 268Q52 376 73 435T144 518T280 542Q356 542 401 526T467 471T488 363Q488 292 447 261T329 229H152Q153 168 165 135T211 86T306 71H473V11Q418 3 376 -1T281
-6Q194 -6 145 19ZM320 292Q361 292 379 307T398 362Q398 422 372 445T280 468Q229 468 202 453T163 401T151 292H320ZM139 648T134 653T129 665V749Q129 767 147 767H193Q210 767 210 749V665Q210 648 193 648H147Q139 648 134 653ZM334 648T330 653T325 665V749Q325
767 342 767H389Q406 767 406 749V665Q406 657 402 653T389 648H342Q334 648 330 653Z" />
<glyph unicode="&#xec;" glyph-name="igrave" horiz-adv-x="238" d="M70 535H170V0H70V535ZM245 769H328L426 631H367L245 769Z" />
<glyph unicode="&#xed;" glyph-name="iacute" horiz-adv-x="238" d="M70 535H170V0H70V535ZM181 769H265L143 631H84L181 769Z" />
<glyph unicode="&#xee;" glyph-name="icircumflex" horiz-adv-x="238" d="M70 535H170V0H70V535ZM344 768H414L521 631H461L377 722L286 631H226L344 768Z" />
<glyph unicode="&#xef;" glyph-name="idieresis" horiz-adv-x="238" d="M70 535H170V0H70V535ZM-11 648T-16 653T-21 665V749Q-21 767 -3 767H43Q60 767 60 749V665Q60 648 43 648H-3Q-11 648 -16 653ZM184 648T180 653T175 665V749Q175 767 192 767H239Q256 767
256 749V665Q256 657 252 653T239 648H192Q184 648 180 653Z" />
<glyph unicode="&#xf0;" glyph-name="eth" horiz-adv-x="576" d="M470 610T497 513T524 268Q524 160 500 101T425 18T288 -6Q203 -6 152 17T77 100T52 264Q52 371 78 429T152 510T275 532Q370 532 414 492Q391 586 335 636L175 574L162 609L299 663Q239 698 142
704V766Q298 758 382 695L507 744L521 708L414 667Q470 610 497 513ZM338 76T366 89T409 142T424 264Q424 345 410 385T367 439T288 452Q238 452 210 439T168 386T153 264Q153 182 167 142T209 89T288 76Q338 76 366 89Z" />
<glyph unicode="&#xf1;" glyph-name="ntilde" horiz-adv-x="590" d="M70 535H150L170 477Q209 506 258 525T358 544Q443 544 483 493T523 360V0H423V348Q423 396 396 424T322 453Q280 453 246 441T170 405V0H70V535ZM128 700T156 727T224 755Q247 755 267 747T312
724Q334 711 348 705T377 699Q402 699 416 714T432 759H483Q482 703 456 673T384 642Q362 642 343 650T298 673Q277 686 262 692T231 699Q208 699 193 684T177 641H126Q128 700 156 727Z" />
<glyph unicode="&#xf2;" glyph-name="ograve" horiz-adv-x="576" d="M203 -6T152 18T77 101T52 268Q52 378 77 437T152 519T288 542Q373 542 423 519T499 437T524 268Q524 160 500 101T425 18T288 -6Q203 -6 152 18ZM338 76T366 89T409 144T424 269Q424 352 410
393T367 448T288 461Q237 461 210 448T168 394T153 269Q153 185 167 144T209 89T288 76Q338 76 366 89ZM157 769H240L338 631H279L157 769Z" />
<glyph unicode="&#xf3;" glyph-name="oacute" horiz-adv-x="576" d="M203 -6T152 18T77 101T52 268Q52 378 77 437T152 519T288 542Q373 542 423 519T499 437T524 268Q524 160 500 101T425 18T288 -6Q203 -6 152 18ZM338 76T366 89T409 144T424 269Q424 352 410
393T367 448T288 461Q237 461 210 448T168 394T153 269Q153 185 167 144T209 89T288 76Q338 76 366 89ZM349 769H433L311 631H252L349 769Z" />
<glyph unicode="&#xf4;" glyph-name="ocircumflex" horiz-adv-x="576" d="M203 -6T152 18T77 101T52 268Q52 378 77 437T152 519T288 542Q373 542 423 519T499 437T524 268Q524 160 500 101T425 18T288 -6Q203 -6 152 18ZM338 76T366 89T409 144T424 269Q424 352
410 393T367 448T288 461Q237 461 210 448T168 394T153 269Q153 185 167 144T209 89T288 76Q338 76 366 89ZM256 768H326L433 631H373L289 722L198 631H138L256 768Z" />
<glyph unicode="&#xf5;" glyph-name="otilde" horiz-adv-x="576" d="M203 -6T152 18T77 101T52 268Q52 378 77 437T152 519T288 542Q373 542 423 519T499 437T524 268Q524 160 500 101T425 18T288 -6Q203 -6 152 18ZM338 76T366 89T409 144T424 269Q424 352 410
393T367 448T288 461Q237 461 210 448T168 394T153 269Q153 185 167 144T209 89T288 76Q338 76 366 89ZM121 700T149 727T217 755Q240 755 260 747T305 724Q327 711 341 705T370 699Q395 699 409 714T425 759H476Q475 703 449 673T377 642Q355 642 336 650T291
673Q270 686 255 692T224 699Q201 699 186 684T170 641H119Q121 700 149 727Z" />
<glyph unicode="&#xf6;" glyph-name="odieresis" horiz-adv-x="576" d="M203 -6T152 18T77 101T52 268Q52 378 77 437T152 519T288 542Q373 542 423 519T499 437T524 268Q524 160 500 101T425 18T288 -6Q203 -6 152 18ZM338 76T366 89T409 144T424 269Q424 352
410 393T367 448T288 461Q237 461 210 448T168 394T153 269Q153 185 167 144T209 89T288 76Q338 76 366 89ZM157 648T152 653T147 665V749Q147 767 165 767H211Q228 767 228 749V665Q228 648 211 648H165Q157 648 152 653ZM352 648T348 653T343 665V749Q343 767
360 767H407Q424 767 424 749V665Q424 657 420 653T407 648H360Q352 648 348 653Z" />
<glyph unicode="&#xf7;" glyph-name="divide" horiz-adv-x="609" d="M265 504T259 510T252 527V586Q252 598 258 604T276 611H333Q358 611 358 586V527Q358 504 333 504H276Q265 504 259 510ZM80 397H528V315H80V397ZM265 102T259 108T252 125V183Q252 195 258
201T276 208H333Q358 208 358 183V125Q358 102 333 102H276Q265 102 259 108Z" />
<glyph unicode="&#xf8;" glyph-name="oslash" horiz-adv-x="576" d="M480 471Q503 439 513 390T524 268Q524 160 500 101T425 18T288 -6Q233 -6 193 4T124 36L95 0H44L97 65Q74 96 63 146T52 268Q52 378 77 437T152 519T288 542Q345 542 385 533T453 500L481 535H532L480
471ZM153 189T166 149L392 426Q376 446 352 453T288 461Q237 461 210 448T168 394T153 269Q153 189 166 149ZM424 347T411 387L185 110Q200 90 224 83T288 76Q338 76 366 89T409 144T424 269Q424 347 411 387Z" />
<glyph unicode="&#xf9;" glyph-name="ugrave" horiz-adv-x="590" d="M150 -6T110 35T69 158V535H169V185Q169 128 195 106T274 83Q348 83 422 130V535H522V0H442L422 58Q322 -6 227 -6Q150 -6 110 35ZM157 769H240L338 631H279L157 769Z" />
<glyph unicode="&#xfa;" glyph-name="uacute" horiz-adv-x="590" d="M150 -6T110 35T69 158V535H169V185Q169 128 195 106T274 83Q348 83 422 130V535H522V0H442L422 58Q322 -6 227 -6Q150 -6 110 35ZM349 769H433L311 631H252L349 769Z" />
<glyph unicode="&#xfb;" glyph-name="ucircumflex" horiz-adv-x="590" d="M150 -6T110 35T69 158V535H169V185Q169 128 195 106T274 83Q348 83 422 130V535H522V0H442L422 58Q322 -6 227 -6Q150 -6 110 35ZM256 768H326L433 631H373L289 722L198 631H138L256 768Z" />
<glyph unicode="&#xfc;" glyph-name="udieresis" horiz-adv-x="590" d="M150 -6T110 35T69 158V535H169V185Q169 128 195 106T274 83Q348 83 422 130V535H522V0H442L422 58Q322 -6 227 -6Q150 -6 110 35ZM157 648T152 653T147 665V749Q147 767 165 767H211Q228
767 228 749V665Q228 648 211 648H165Q157 648 152 653ZM352 648T348 653T343 665V749Q343 767 360 767H407Q424 767 424 749V665Q424 657 420 653T407 648H360Q352 648 348 653Z" />
<glyph unicode="&#xfd;" glyph-name="yacute" horiz-adv-x="550" d="M286 0Q234 1 195 32T137 131L17 535H122L230 152Q252 84 305 84L430 535H533L349 -138L301 -237H221L286 0ZM330 769H414L292 631H233L330 769Z" />
<glyph unicode="&#xfe;" glyph-name="thorn" horiz-adv-x="580" d="M70 763H170V481Q203 505 248 523T337 542Q432 542 480 466T528 268Q528 -7 337 -7Q296 -7 252 5T170 39V-237H70V763ZM428 77T428 264Q428 365 395 412T308 460Q244 460 170 420V115Q201 97
236 87T307 77Q428 77 428 264Z" />
<glyph unicode="&#xff;" glyph-name="ydieresis" horiz-adv-x="550" d="M286 0Q234 1 195 32T137 131L17 535H122L230 152Q252 84 305 84L430 535H533L349 -138L301 -237H221L286 0ZM138 648T133 653T128 665V749Q128 767 146 767H192Q209 767 209 749V665Q209
648 192 648H146Q138 648 133 653ZM333 648T329 653T324 665V749Q324 767 341 767H388Q405 767 405 749V665Q405 657 401 653T388 648H341Q333 648 329 653Z" />
<glyph unicode="&#x2013;" glyph-name="endash" horiz-adv-x="521" d="M24 331H497V248H24V331Z" />
<glyph unicode="&#x2014;" glyph-name="emdash" horiz-adv-x="744" d="M24 331H720V248H24V331Z" />
<glyph unicode="&#x2018;" glyph-name="quoteleft" horiz-adv-x="198" d="M53 519T53 540V686Q53 724 73 738T122 753Q137 753 146 750V714Q121 714 121 690V646H130Q139 646 144 641T149 626V540Q149 519 130 519H69Q53 519 53 540Z" />
<glyph unicode="&#x2019;" glyph-name="quoteright" horiz-adv-x="198" d="M63 515T52 518V554Q77 554 77 578V622H68Q60 622 55 627T49 642V728Q49 749 68 749H129Q145 749 145 728V582Q145 544 124 530T76 515Q63 515 52 518Z" />
<glyph unicode="&#x201a;" glyph-name="quotesinglbase" horiz-adv-x="198" d="M58 -113T52 -110V-74Q77 -74 77 -50V-6H68Q60 -6 55 -1T49 14V100Q49 121 68 121H129Q145 121 145 100V-46Q145 -84 124 -98T76 -113Q58 -113 52 -110Z" />
<glyph unicode="&#x201c;" glyph-name="quotedblleft" horiz-adv-x="332" d="M53 519T53 540V686Q53 724 73 738T122 753Q137 753 146 750V714Q121 714 121 690V646H130Q139 646 144 641T149 626V540Q149 519 130 519H69Q53 519 53 540ZM187 519T187 540V686Q187
724 207 738T256 753Q271 753 280 750V714Q255 714 255 690V646H264Q273 646 278 641T283 626V540Q283 519 264 519H203Q187 519 187 540Z" />
<glyph unicode="&#x201d;" glyph-name="quotedblright" horiz-adv-x="332" d="M63 515T52 518V554Q77 554 77 578V622H68Q60 622 55 627T49 642V728Q49 749 68 749H129Q145 749 145 728V582Q145 544 124 530T76 515Q63 515 52 518ZM197 515T186 518V554Q211 554
211 578V622H202Q194 622 189 627T183 642V728Q183 749 202 749H263Q279 749 279 728V582Q279 544 258 530T210 515Q197 515 186 518Z" />
<glyph unicode="&#x201e;" glyph-name="quotedblbase" horiz-adv-x="332" d="M58 -113T52 -110V-74Q77 -74 77 -50V-6H68Q60 -6 55 -1T49 14V100Q49 121 68 121H129Q145 121 145 100V-46Q145 -84 124 -98T76 -113Q58 -113 52 -110ZM192 -113T186 -110V-74Q211
-74 211 -50V-6H202Q194 -6 189 -1T183 14V100Q183 121 202 121H263Q279 121 279 100V-46Q279 -84 258 -98T210 -113Q192 -113 186 -110Z" />
<glyph unicode="&#x2022;" glyph-name="bullet" horiz-adv-x="315" d="M103 307T94 315T85 339V423Q85 439 93 448T118 458H196Q231 458 231 423V339Q231 307 196 307H118Q103 307 94 315Z" />
<glyph unicode="&#x2039;" glyph-name="guilsinglleft" horiz-adv-x="364" d="M50 281L265 493L317 441L154 281L321 117L269 64L50 281Z" />
<glyph unicode="&#x203a;" glyph-name="guilsinglright" horiz-adv-x="364" d="M48 117L211 278L45 441L99 493L316 278L98 64L48 117Z" />
</font>
</defs>
</svg>
