<?xml version="1.0" standalone="no"?>
<!DOCTYPE svg PUBLIC "-//W3C//DTD SVG 1.1//EN" "http://www.w3.org/Graphics/SVG/1.1/DTD/svg11.dtd">
<svg xmlns="http://www.w3.org/2000/svg">
<defs >
<font id="BenchNine" horiz-adv-x="590" ><font-face
    font-family="BenchNine"
    units-per-em="2048"
    panose-1="0 0 0 0 0 0 0 0 0 0"
    ascent="2020"
    descent="-720"
    alphabetic="0" />
<glyph unicode=" " horiz-adv-x="262" />
<glyph unicode="!" horiz-adv-x="402" d="M132 0Q105 0 105 51V203Q105 253 132 253H269Q282 253 288 243T295 203V51Q295 0 269 0H132ZM183 468Q163 468 160 541L116 1428V1437Q116 1465 123 1483T142 1502H260Q271 1502 278 1485T286 1441V1429L243 541Q240
468 221 468H183Z" />
<glyph unicode="&quot;" horiz-adv-x="533" d="M130 765Q110 765 107 835L69 1364Q69 1364 69 1375Q69 1401 76 1419T94 1438H192Q202 1438 209 1419T216 1373V1364L179 835Q174 765 156 765H130ZM383 765Q364 765 360 835L321 1364V1373Q321 1400 328 1419T346
1438H445Q455 1438 461 1420T468 1376V1364L431 835Q428 765 409 765H383Z" />
<glyph unicode="#" horiz-adv-x="731" d="M140 -159Q136 -159 133 -148T132 -124L170 347H113Q89 347 89 397V430Q89 480 111 480H184L213 844H147Q123 844 123 894V930Q123 980 146 980H228L273 1492Q274 1507 279 1517T289 1527H366Q377 1527 375 1492L330 980H466L512
1492Q514 1527 528 1527H602Q606 1527 609 1516T610 1492L565 980H626Q648 980 648 930V894Q648 844 627 844H551L522 480H589Q614 480 614 430V397Q614 347 591 347H507L469 -124Q466 -159 453 -159H378Q368 -159 370 -124L408 347H272L234 -124Q231 -159 218
-159H140ZM287 480H423L451 844H315L287 480Z" />
<glyph unicode="$" horiz-adv-x="776" d="M388 1283Q329 1273 293 1217T257 1084Q257 1008 291 958T388 867V1283ZM439 168Q491 189 519 243T547 371T520 493T439 583V168ZM403 -198Q388 -198 388 -132V-15H381Q169 -15 47 168Q41 177 41 191Q41 226 69 267T124
309Q134 309 142 300Q254 157 381 157H388V618L277 693Q235 721 204 751T145 823T101 923T85 1050Q85 1223 167 1336T388 1454V1578Q388 1643 403 1643H425Q439 1643 439 1578V1453Q604 1443 700 1317Q710 1304 710 1286Q710 1251 681 1212T631 1173Q625 1173 622
1177Q544 1271 439 1283V834L523 780Q724 650 724 400Q724 236 648 124T439 -10V-132Q439 -198 425 -198H403Z" />
<glyph unicode="%" horiz-adv-x="1073" d="M387 -73Q380 -73 375 -58T369 -23Q369 -16 371 -3L595 1415Q606 1485 632 1485H673Q680 1485 684 1471T689 1438Q689 1428 687 1415L464 -3Q453 -73 428 -73H387ZM226 785Q269 785 288 848T308 1051Q308 1193 289 1258T226
1323Q182 1323 163 1258T143 1051Q143 912 162 849T226 785ZM226 670Q137 670 92 761T46 1055Q46 1256 91 1347T226 1438Q315 1438 359 1347T404 1055Q404 853 359 762T226 670ZM806 115T849 115T911 178T931 381Q931 523 912 588T849 653Q805 653 786 588T766
381Q766 243 786 179ZM849 0Q760 0 715 91T669 385Q669 586 714 677T849 768Q938 768 983 677T1028 385Q1028 183 983 92T849 0Z" />
<glyph unicode="&amp;" horiz-adv-x="1181" d="M478 -18Q398 -18 334 4T219 75T140 206T112 405Q112 536 169 629T299 745Q227 764 169 844T110 1058Q110 1259 198 1359T437 1459Q535 1459 586 1430Q611 1416 611 1389Q611 1380 610 1375L604 1296Q603 1251 577
1264Q575 1264 567 1268T550 1275T521 1282T475 1285Q409 1285 359 1235T308 1072Q308 975 348 905T463 835H708Q723 835 723 865L730 1354Q731 1408 761 1408H891Q920 1408 920 1354V865Q920 835 934 835H1083Q1114 835 1114 776V731Q1114 669 1083 669H934Q920
669 920 640V365Q920 157 1024 157Q1066 157 1114 189Q1126 196 1134 185T1145 150L1146 91V81Q1146 35 1123 20Q1059 -18 993 -18Q925 -18 858 18T764 125Q763 124 748 107T728 84T704 61T673 37T637 16T593 -2T541 -13T478 -18ZM507 144Q539 144 566 149T613
162T650 182T678 205T699 229T713 252T722 271T727 283L723 641Q723 669 708 669H473Q404 668 357 593T310 407Q310 348 323 301T356 225T403 178T455 152T507 144Z" />
<glyph unicode="&apos;" horiz-adv-x="363" d="M169 765Q150 765 146 835L108 1364Q108 1364 108 1375Q108 1401 115 1419T133 1438H231Q241 1438 248 1419T255 1373V1364L218 835Q213 765 195 765H169Z" />
<glyph unicode="(" horiz-adv-x="446" d="M318 -143Q247 -117 197 10T126 313T104 698T125 1082T197 1386T318 1540H320Q329 1540 336 1519T344 1470V1399Q344 1351 339 1332T315 1286Q281 1235 261 1083T240 698Q240 221 316 112Q333 87 338 67T344 -2V-73Q344
-100 337 -121T320 -143H318Z" />
<glyph unicode=")" horiz-adv-x="450" d="M129 -143Q129 -143 127 -143Q118 -143 111 -122T103 -73V-1Q103 47 109 67T132 112Q167 163 187 314T208 698Q208 931 188 1083T132 1286Q120 1305 115 1315T107 1346T103 1400V1470Q103 1497 110 1518T127 1540H129Q201
1514 250 1386T321 1083T343 698Q343 488 322 313T251 11T129 -143Z" />
<glyph unicode="*" horiz-adv-x="709" d="M247 422Q225 422 205 432T184 460Q184 478 203 515T242 583T290 654T321 698L135 753Q119 758 109 774T99 813Q99 839 110 858T141 878Q154 878 194 850T280 786T336 743Q333 768 325 822T313 917T309 997Q309 1021 322
1033T355 1046Q400 1046 400 1001L379 743L537 843Q547 848 555 848Q575 848 589 830T604 790Q604 753 564 743L388 698Q524 548 549 517Q558 506 558 494Q558 476 542 462T506 447Q485 447 472 467L353 667L269 431Q266 422 247 422Z" />
<glyph unicode="+" horiz-adv-x="801" d="M369 271Q352 271 344 279T336 316V523Q336 537 333 541T321 545H142Q127 545 119 553T111 587V620Q111 646 119 653T142 661H321Q329 661 332 665T336 683V881Q336 909 344 917T369 926H441Q457 926 464 918T472 881V683Q472
669 476 665T489 661H665Q680 661 688 654T696 620V587Q696 561 688 553T665 545H489Q480 545 476 541T472 523V316Q472 288 465 280T441 271H369Z" />
<glyph unicode="," horiz-adv-x="400" d="M117 -316Q113 -318 111 -318Q92 -318 92 -275V-257Q92 -226 95 -218T115 -191Q137 -164 149 -116T162 -27Q162 0 156 0H111Q90 0 90 57V204Q90 264 117 264H233Q259 264 259 200V50Q259 -34 244 -103T206 -215T160 -281T117
-316Z" />
<glyph unicode="-" horiz-adv-x="656" d="M115 532Q102 532 96 542T89 583V634Q89 664 95 674T115 684H542Q567 684 567 634V583Q567 532 542 532H115Z" />
<glyph unicode="." horiz-adv-x="377" d="M120 0Q94 0 94 51V203Q94 253 120 253H257Q284 253 284 203V51Q284 0 257 0H120Z" />
<glyph unicode="/" horiz-adv-x="564" d="M93 -205Q84 -205 84 -179Q84 -178 84 -175T85 -170L319 1612Q324 1647 337 1647H474Q484 1647 484 1622Q484 1615 483 1612L248 -171Q243 -206 232 -206L93 -205Z" />
<glyph unicode="0" horiz-adv-x="891" d="M445 145Q530 145 564 276T598 724Q598 1034 564 1164T443 1294T324 1165T290 724Q290 409 324 277T445 145ZM444 -18Q387 -18 339 1T247 72T171 205T122 419T103 724Q103 854 112 959T139 1139T181 1271T234 1362T297
1418T367 1448T443 1456Q502 1456 548 1440T641 1377T717 1251T767 1038T786 724Q786 -18 444 -18Z" />
<glyph unicode="1" horiz-adv-x="539" d="M216 0Q191 0 191 67V1172Q191 1204 178 1202Q99 1182 98 1182Q76 1180 76 1226V1322Q76 1362 100 1367L364 1435Q367 1436 373 1436Q395 1436 395 1389V67Q395 0 369 0H216Z" />
<glyph unicode="2" horiz-adv-x="727" d="M611 1H111Q84 1 84 70Q84 73 84 99T85 130Q94 275 140 405T245 626T361 797T458 957T498 1107Q498 1198 452 1244T338 1290Q300 1290 263 1282T205 1266T155 1244T119 1227Q100 1209 98 1240Q80 1317 80 1334Q80 1370
89 1383Q137 1415 205 1434T342 1454Q392 1454 435 1447T523 1418T598 1363T648 1272T668 1140Q668 1074 651 1012T604 897T539 789T462 672T386 545T317 391T265 206Q264 203 264 194Q264 178 268 162T278 146H611Q629 146 629 96V48Q629 1 611 1Z" />
<glyph unicode="3" horiz-adv-x="662" d="M276 -15Q134 -15 73 35Q67 40 63 61T59 91T61 134T66 169Q67 197 74 197Q76 197 80 194Q161 146 251 146Q437 146 437 397Q436 514 392 580T262 648H226Q209 648 204 655T198 684V791Q198 815 226 815H261Q427 819 427
1053Q427 1182 387 1237T267 1292Q157 1292 78 1245Q67 1237 65 1258Q64 1263 64 1271Q62 1271 59 1304T56 1345Q56 1353 60 1375T71 1402Q154 1454 293 1454Q361 1454 415 1433T512 1368T578 1245T602 1061Q602 780 405 730Q506 707 557 612T609 363Q609 258 582
182T506 64T401 4T276 -15Z" />
<glyph unicode="4" horiz-adv-x="894" d="M571 -1Q534 -1 534 60V285H136Q115 285 101 299T87 338Q87 347 88 352L231 1370Q237 1407 244 1422T269 1438H351Q368 1438 377 1424T386 1387Q386 1376 385 1370L287 489Q286 482 291 471T305 460H534V1377Q534 1438
571 1438H668Q705 1438 705 1377V460H835Q879 460 879 404V341Q879 285 835 285H705V60Q705 -1 668 -1H571Z" />
<glyph unicode="5" horiz-adv-x="841" d="M399 -15Q356 -14 261 8T137 51Q118 64 118 104Q118 112 118 126T121 161T127 197T137 212Q140 212 145 209Q146 208 158 203T183 191T217 176T261 162T311 152T368 148Q494 148 539 227T584 477Q584 525 581 562T568
644T539 718T487 768T407 788Q366 788 335 773T286 736T255 693T230 656T203 641H155Q141 641 137 657T132 709Q132 717 132 721L112 1345V1358Q112 1438 141 1438H688Q698 1438 704 1426T710 1393L708 1310Q705 1267 693 1267H273Q250 1267 250 1217L253 822Q327
938 479 938Q624 938 692 814T761 464Q761 351 744 267T696 130T619 43T520 -2T399 -15Z" />
<glyph unicode="6" horiz-adv-x="844" d="M104 687Q104 1102 190 1278T480 1454Q542 1454 608 1435T703 1391Q710 1385 714 1366T719 1340Q719 1336 716 1300T711 1263Q709 1241 704 1233T688 1232Q600 1289 519 1289Q449 1289 404 1255T331 1130T303 884V859Q416
905 469 905Q551 905 612 870T708 771T760 625T777 441Q777 331 760 249T715 117T642 37T551 -4T442 -15Q267 -15 186 149T104 687ZM447 147Q494 147 522 171T568 265T585 456Q585 518 580 566T561 655T521 718T457 740Q393 740 302 696V576Q302 336 335 242T447
147Z" />
<glyph unicode="7" horiz-adv-x="586" d="M189 0Q179 0 172 13T165 50Q165 58 166 66L304 1210Q307 1237 293 1237H98Q72 1237 72 1283V1394Q72 1438 98 1438H490Q514 1438 514 1389Q514 1379 513 1373L357 66Q349 0 330 0H189Z" />
<glyph unicode="8" horiz-adv-x="849" d="M525 826Q537 840 550 915T563 1057Q563 1301 426 1301T289 1071Q289 942 339 893T525 826ZM426 -15Q381 -15 345 -9T271 15T204 64T153 145T118 265T106 431Q106 557 139 655T217 794Q135 880 135 1068Q135 1454 426
1454Q474 1454 514 1444T591 1407T655 1337T696 1225T712 1064Q712 969 689 887T633 767Q689 719 716 638T744 425Q744 320 727 241T680 114T609 36T523 -4T426 -15ZM427 175Q501 175 538 233T576 444Q576 501 567 541T544 604T502 646T452 672T387 694T316 721Q298
683 285 603T271 457Q271 175 427 175Z" />
<glyph unicode="9" horiz-adv-x="866" d="M408 -15Q353 -15 277 12T171 68Q157 79 157 121L163 199Q164 219 167 227T176 236T187 231Q209 212 271 186T399 160Q490 160 526 245T563 527V581Q476 527 411 527Q305 527 235 588T134 751T103 994Q103 1102 119 1184T164
1318T235 1403T325 1449T433 1462Q547 1462 617 1396T725 1172T763 749Q763 454 726 287T613 53T408 -15ZM423 692Q497 692 564 745V912Q564 1057 549 1142T505 1259T429 1292Q363 1292 330 1221T297 982Q297 843 325 768T423 692Z" />
<glyph unicode=":" horiz-adv-x="340" d="M126 0Q99 0 99 64V268Q99 332 126 332H214Q241 332 241 268V64Q241 0 214 0H126ZM126 690Q99 690 99 754V958Q99 1022 126 1022H214Q241 1022 241 958V754Q241 690 214 690H126Z" />
<glyph unicode=";" horiz-adv-x="356" d="M120 -328Q118 -329 115 -329Q96 -329 96 -283V-266Q96 -239 98 -227T103 -210T119 -191Q141 -164 153 -116T166 -27Q166 0 160 0H117Q96 0 96 57V248Q96 308 117 308H237Q263 308 263 244V50Q263 -108 216 -206T120 -328ZM125
690Q98 690 98 754V958Q98 1022 125 1022H230Q256 1022 256 958V754Q256 690 230 690H125Z" />
<glyph unicode="&lt;" horiz-adv-x="1073" d="M526 145Q519 145 500 158L209 499Q188 523 179 534T162 565T154 606V655Q154 677 162 696T178 725T210 762L500 1112Q511 1122 525 1122Q540 1122 549 1110T559 1079V1023Q559 1014 558 1007T556 994T551 981T546
970T539 959T531 950T521 939T511 928L287 648Q278 639 278 630T287 612L511 342Q514 339 521 332T530 321T538 312T546 302T551 292T556 280T558 267T559 250V187Q559 170 550 158T526 145Z" />
<glyph unicode="=" horiz-adv-x="560" d="M72 338Q59 338 54 346T48 384V425Q48 455 53 462T72 470H488Q501 470 506 463T512 425V384Q512 354 507 346T488 338H72ZM72 617Q59 617 54 625T48 663V704Q48 734 53 742T72 750H488Q501 750 506 742T512 704V663Q512
633 507 625T488 617H72Z" />
<glyph unicode="&gt;" horiz-adv-x="1073" d="M187 145Q172 145 163 157T154 189V244Q154 251 154 257T156 269T159 279T162 288T167 297T172 305T178 314T185 322T193 330T201 340L426 619Q434 628 434 638T425 655L202 925Q199 929 191 937T180 949T171 960T164
971T159 983T155 999T154 1017V1081Q154 1099 163 1110T187 1122Q197 1122 212 1110L503 768Q526 742 534 732T550 703T559 662V613Q559 605 559 599T556 585T552 574T546 562T540 552T532 541T524 530T513 518T502 506L213 156Q199 145 187 145Z" />
<glyph unicode="?" horiz-adv-x="772" d="M271 520Q268 525 261 537T251 556T245 572T240 594Q231 620 250 641Q284 708 317 743T422 827Q548 912 548 1070Q545 1176 492 1234T362 1293Q247 1293 141 1218Q121 1205 108 1247Q103 1247 93 1283T82 1329Q82 1365
106 1379Q157 1415 228 1440T365 1465Q419 1465 466 1453T558 1411T634 1338T686 1226T708 1073Q708 833 444 674Q368 628 316 525Q304 509 290 509Q279 509 271 520ZM257 0Q236 0 223 17T209 65V176Q209 206 222 223T257 241H362Q383 241 396 224T410 176V65Q410
35 397 18T362 0H257Z" />
<glyph unicode="@" horiz-adv-x="1381" d="M721 -157Q566 -157 444 -92T245 87T128 349T88 668Q88 807 111 931T185 1160T307 1341T481 1461T707 1504Q836 1504 938 1463T1109 1351T1223 1178T1289 959T1310 705Q1310 467 1247 349T1097 230Q1031 230 992 279T946
413Q942 450 935 450Q930 450 924 423Q892 317 835 262T679 207Q550 207 469 324T387 661Q387 873 465 989T670 1105Q853 1105 914 883Q918 868 922 868T926 880L938 1011Q945 1060 981 1060H989Q1005 1060 1014 1044T1024 1003V487Q1024 399 1042 365T1095 331Q1109
331 1121 340T1146 376T1168 443T1183 551T1189 705Q1189 824 1174 924T1123 1110T1033 1257T896 1352T710 1386Q609 1386 526 1346T386 1238T292 1077T236 881T218 664Q218 553 234 454T287 262T382 103T529 -4T730 -45Q848 -45 974 15L975 16Q976 16 977 16Q989
16 1004 -14T1019 -67Q1019 -81 1011 -86Q956 -117 876 -137T721 -157ZM697 327Q783 327 835 410T888 652Q888 807 836 892T698 977Q605 977 560 889T515 652T561 415T697 327Z" />
<glyph unicode="A" horiz-adv-x="822" d="M68 0Q53 0 53 29V46Q53 59 54 63L279 1388Q287 1436 316 1438H519Q547 1436 555 1388L776 63Q776 60 777 52T779 38T780 28Q780 0 763 0H598Q574 0 567 41L530 296Q527 318 519 318H277Q270 318 266 295L224 42Q220 17
214 9T196 0H68ZM306 443H510Q517 443 517 461Q517 467 515 470L416 1241Q415 1248 413 1248Q410 1248 409 1242L292 471Q291 464 291 462Q291 443 306 443Z" />
<glyph unicode="B" horiz-adv-x="896" d="M143 0Q129 0 123 8T116 44V1393Q116 1422 122 1430T143 1438H509Q794 1438 794 1041Q794 856 705 782Q696 773 696 770T706 757Q831 668 831 424Q831 304 807 220T736 89T629 21T490 0H143ZM327 150H454Q542 150 590
224T639 425Q639 538 596 611T486 684H327Q313 684 313 660V170Q313 150 327 150ZM327 833H493Q548 833 581 887T614 1035Q614 1157 572 1219T455 1282H327Q313 1282 313 1260V853Q313 833 327 833Z" />
<glyph unicode="C" horiz-adv-x="717" d="M494 -15Q442 -15 404 -10T320 12T244 61T181 147T130 278T99 466T87 720Q87 912 110 1050T170 1265T263 1386T373 1442T499 1454Q592 1454 652 1426Q653 1425 655 1424T658 1421T661 1416T662 1407V1286Q662 1272 655
1272Q654 1272 648 1274T629 1279T603 1285T571 1290T534 1292Q487 1292 454 1282T387 1237T332 1141T298 974T285 720Q285 569 296 463T326 296T376 200T440 156T520 146Q591 146 646 165Q647 165 650 155T654 144V29Q654 28 651 19T646 8Q585 -15 494 -15Z" />
<glyph unicode="D" horiz-adv-x="935" d="M326 159H449Q526 159 568 205T630 373T651 726Q651 939 628 1063T563 1233T456 1279H325Q313 1279 313 1257V181Q313 159 326 159ZM141 0Q128 0 122 8T116 44V1398Q116 1423 122 1430T141 1438H485Q573 1438 637 1403T751
1288T824 1069T849 729Q849 587 840 479T817 293T775 162T719 77T646 28T561 6T458 0H141Z" />
<glyph unicode="E" horiz-adv-x="752" d="M141 0Q128 0 122 7T116 42V1396Q116 1422 122 1430T141 1438H667Q675 1438 680 1436T688 1425T692 1398V1319Q692 1294 686 1287T667 1279H325Q313 1279 313 1246V842Q313 833 316 824T323 815H598Q623 815 623 769V692Q623
646 598 646H324Q320 646 317 636T313 616V159H670Q679 159 684 157T692 146T696 119V40Q696 15 690 8T670 0H141Z" />
<glyph unicode="F" horiz-adv-x="684" d="M141 0Q128 0 122 7T116 42V1396Q116 1422 122 1430T141 1438H632Q641 1438 645 1436T653 1425T657 1398V1319Q657 1294 651 1287T632 1279H325Q313 1279 313 1253V812Q313 792 323 792H573Q586 792 592 785T598 753V663Q598
638 592 631T573 623H324Q320 623 317 615T313 598V42Q313 15 307 8T288 0H141Z" />
<glyph unicode="G" horiz-adv-x="902" d="M792 -16Q754 -16 742 47Q742 48 728 125T714 214Q714 224 711 224T705 215Q688 103 632 44T482 -15Q437 -15 400 -9T322 16T248 68T186 156T136 287T104 473T92 720Q92 862 106 974T144 1162T205 1293T279 1378T369 1426T464
1449T564 1454Q606 1454 655 1443T734 1419Q735 1418 738 1416T744 1411T746 1400V1277Q746 1263 738 1263Q737 1263 727 1266T699 1273T661 1282T617 1289T575 1292Q522 1292 484 1282T407 1237T344 1141T305 974T290 720Q290 580 301 477T330 310T376 209T434
158T503 144Q549 144 579 171T625 254T646 377T652 544Q652 589 643 589H530Q521 589 516 591T506 604T501 632V714Q501 741 508 749T529 758H798Q824 758 824 696V51Q824 21 814 3T792 -16Z" />
<glyph unicode="H" horiz-adv-x="947" d="M142 0Q128 0 122 8T116 47V1391Q116 1421 122 1429T142 1438H287Q301 1438 307 1430T313 1391V859Q313 850 316 843T323 836H623Q626 836 630 843T634 860V1391Q634 1420 640 1429T660 1438H807Q820 1438 826 1430T832
1391V47Q832 17 826 9T807 0H660Q651 0 646 2T637 16T633 47V658Q633 679 622 679H325Q315 679 315 658V47Q315 18 309 9T289 0H142Z" />
<glyph unicode="I" horiz-adv-x="430" d="M143 0Q134 0 129 2T121 16T117 47V1391Q117 1420 123 1429T143 1438H290Q298 1438 303 1436T311 1422T315 1391V47Q315 18 309 9T290 0H143Z" />
<glyph unicode="J" horiz-adv-x="534" d="M63 -155Q50 -155 50 -124V5Q50 37 63 39Q88 40 101 42T132 50T160 67T181 99T198 149T208 224T216 327T218 464V1395Q218 1438 234 1438H399Q416 1438 416 1395V412Q416 252 396 142T348 -25T267 -113T174 -149T63 -155Z" />
<glyph unicode="K" horiz-adv-x="814" d="M141 0Q116 0 116 54V1384Q116 1438 141 1438H287Q313 1438 313 1384V725L558 1387Q576 1438 601 1438H749Q770 1438 770 1415Q770 1401 764 1386L522 770Q515 746 515 733T519 705L777 55Q784 37 784 23Q784 0 771 0H625Q598
0 578 52L314 678V52Q314 0 287 0H141Z" />
<glyph unicode="L" horiz-adv-x="652" d="M141 0Q128 0 122 8T116 47V1391Q116 1421 122 1429T141 1438H288Q301 1438 307 1430T313 1391V181Q313 159 327 159H587Q600 159 606 152T612 120V40Q612 15 606 8T587 0H141Z" />
<glyph unicode="M" horiz-adv-x="1082" d="M121 0Q97 0 97 49V54L142 1381Q143 1436 167 1438H325Q340 1437 350 1428T365 1391L534 445Q535 441 537 439T542 439T545 445L715 1388Q724 1436 754 1438H914Q938 1436 938 1381L985 54V48Q985 0 960 0H850Q826 0
824 54L793 1081Q793 1087 790 1088Q787 1089 786 1085L604 48Q596 0 570 0H505Q481 0 471 48L294 1080Q293 1086 290 1082Q289 1080 289 1076L257 54Q257 0 234 0H121Z" />
<glyph unicode="N" horiz-adv-x="962" d="M142 0Q129 0 123 10T116 50V1385Q116 1438 142 1438H294Q315 1438 330 1399L669 488Q671 481 675 492L676 501V1385Q676 1438 703 1438H822Q847 1438 847 1385V46Q847 16 841 8T822 -1H714Q704 -1 693 11T674 41L297
1025Q293 1033 291 1020Q290 1017 290 1013V50Q290 20 284 10T263 0H142Z" />
<glyph unicode="O" horiz-adv-x="924" d="M461 143Q531 143 568 190T622 362T639 726Q639 957 623 1076T571 1243T462 1292Q392 1292 355 1243T301 1073T285 726Q285 489 302 365T355 192T461 143ZM462 -15Q379 -15 322 3T217 68T143 200T102 412T87 726Q87 874
96 986T127 1179T178 1313T251 1397T345 1441T462 1454Q543 1454 600 1436T705 1370T780 1241T822 1032T837 726Q837 540 823 411T782 198T708 68T604 3T462 -15Z" />
<glyph unicode="P" horiz-adv-x="866" d="M141 0Q116 0 116 52V1391Q116 1420 122 1429T141 1438H435Q481 1438 514 1435T589 1421T660 1391T718 1336T766 1251T795 1130T807 965Q807 845 788 758T738 622T661 545T569 508T466 500H324Q313 500 313 482V52Q313
0 288 0H141ZM323 660H443Q484 660 510 666T557 691T588 744T604 831T610 964Q610 1050 601 1109T577 1202T537 1252T486 1274T424 1279H323Q313 1279 313 1259V678Q313 660 323 660Z" />
<glyph unicode="Q" horiz-adv-x="952" d="M542 -346L468 -15Q447 -17 430 -16Q356 -11 305 10T210 80T141 211T101 420T87 722Q87 903 103 1031T149 1242T228 1371T336 1436T476 1454T616 1437T724 1373T803 1244T848 1033T865 722Q865 472 838 320T758 97T617
-1Q622 -28 640 -108T672 -255T686 -333Q689 -352 686 -363T669 -379Q662 -381 625 -390T581 -399Q554 -399 542 -346ZM475 143Q547 143 586 185T646 354T667 722Q667 955 648 1078T589 1247T476 1292Q404 1292 365 1246T305 1075T285 722Q285 542 295 428T330
251T388 166T475 143Z" />
<glyph unicode="R" horiz-adv-x="924" d="M141 0Q128 0 122 8T116 45V1392Q116 1422 122 1430T141 1438H477Q540 1438 584 1431T676 1401T751 1337T798 1225T817 1054Q817 979 806 924T773 834T726 779T664 745Q661 742 661 739T664 734Q700 717 722 699T768 647T803
553T818 408Q822 330 822 50Q822 0 804 0Q649 -1 645 -1Q629 -1 628 44Q628 51 622 268T609 518Q606 559 593 586T558 626T515 643T467 648H324Q313 648 313 626V45Q313 17 307 9T288 0H141ZM323 804H452Q619 804 619 1047Q619 1176 574 1227T421 1279H324Q313
1279 313 1259V831Q313 804 323 804Z" />
<glyph unicode="S" horiz-adv-x="776" d="M407 1454Q595 1454 700 1317Q710 1304 710 1286Q710 1251 681 1212T631 1173Q625 1173 622 1177Q533 1285 410 1285Q341 1285 299 1227T257 1084Q257 1005 293 955T396 862L523 780Q724 650 724 400Q724 217 631 101T381
-15Q169 -15 47 168Q41 177 41 191Q41 226 69 267T124 309Q134 309 142 300Q254 157 381 157Q459 157 503 217T547 371Q547 455 512 507T405 607L277 693Q235 721 204 751T145 823T101 923T85 1050Q85 1230 172 1342T407 1454Z" />
<glyph unicode="T" horiz-adv-x="663" d="M260 0Q248 0 242 9T235 48V1252Q235 1277 224 1277H50Q40 1277 36 1278T28 1288T24 1315V1394Q24 1421 30 1429T50 1438H615Q628 1438 634 1430T640 1394V1315Q640 1290 635 1284T615 1277H444Q433 1277 433 1252V48Q433
18 427 9T407 0H260Z" />
<glyph unicode="U" horiz-adv-x="953" d="M480 -15Q426 -15 387 -11T306 8T235 49T179 119T135 227T110 379T100 583V1391Q100 1420 106 1429T126 1438H273Q281 1438 286 1436T294 1422T298 1391V589Q298 471 305 391T325 262T361 188T411 154T479 145Q532 145
561 157T614 214T646 348T655 589V1391Q655 1421 661 1429T680 1438H828Q836 1438 840 1436T848 1422T852 1391V583Q852 467 843 377T817 224T774 117T718 48T648 8T569 -11T480 -15Z" />
<glyph unicode="V" horiz-adv-x="800" d="M332 0Q307 2 295 64L45 1371Q43 1389 43 1396Q43 1438 59 1438H206Q232 1438 243 1373L416 326L584 1373Q594 1438 621 1438H742Q757 1438 757 1399Q757 1381 755 1371L516 64Q505 2 479 0H332Z" />
<glyph unicode="W" horiz-adv-x="1130" d="M272 0Q246 2 236 69L55 1369Q53 1379 53 1397Q53 1438 69 1438H200Q212 1438 222 1419T236 1368L347 419L482 1365Q486 1396 496 1412T519 1429H627Q653 1426 662 1365L805 399L917 1369Q921 1400 930 1419T952 1438H1065Q1081
1438 1081 1397Q1081 1384 1078 1369L901 69Q891 2 867 0H745Q719 2 709 70L559 1003L414 69Q406 5 382 0H272Z" />
<glyph unicode="X" horiz-adv-x="809" d="M61 0Q50 0 50 27Q50 40 56 57L305 698L66 1379Q60 1403 60 1411Q60 1438 71 1438H264Q291 1438 310 1385L438 1019L578 1388Q597 1438 625 1438H744Q757 1438 757 1411Q757 1396 752 1386L520 793L769 59Q774 47 774
30Q774 0 761 0H582Q555 0 537 52L389 476L223 50Q203 0 178 0H61Z" />
<glyph unicode="Y" horiz-adv-x="732" d="M295 0Q282 0 276 10T270 51V478L39 1378Q34 1393 34 1407Q34 1438 50 1438H198Q226 1438 240 1385L381 820L519 1384Q525 1408 536 1423T559 1438H684Q700 1438 700 1406Q700 1393 696 1378L468 481V51Q468 0 443 0H295Z" />
<glyph unicode="Z" horiz-adv-x="715" d="M108 0Q100 0 95 2T87 13T83 40V100Q83 135 99 185L411 1245Q415 1253 415 1263Q415 1279 408 1279H117Q108 1279 104 1281T96 1292T92 1319V1398Q92 1423 98 1430T117 1438H624Q632 1438 637 1436T645 1425T649 1398V1353Q649
1312 632 1251L316 189Q314 179 314 173Q314 159 320 159H636Q637 159 640 159Q648 159 651 158T658 149T662 125V40Q662 15 656 8T636 0H108Z" />
<glyph unicode="[" horiz-adv-x="583" d="M144 -125Q116 -125 117 -64V1408Q116 1466 144 1466H455Q481 1466 481 1415V1307Q481 1256 456 1256H326Q314 1256 314 1223V112Q314 80 326 80H455Q481 80 481 22V-71Q481 -125 455 -125H144Z" />
<glyph unicode="\" horiz-adv-x="581" d="M345 -206Q334 -206 329 -171L94 1612Q94 1613 94 1616T93 1621Q93 1647 102 1647H241Q254 1647 257 1612L491 -170Q492 -174 492 -181Q492 -205 484 -205L345 -206Z" />
<glyph unicode="]" horiz-adv-x="584" d="M129 -128Q116 -128 110 -118T103 -78V48Q103 99 129 99H258Q269 99 269 132V1210Q269 1242 258 1242H129Q103 1242 103 1301V1409Q103 1466 129 1466H441Q452 1466 460 1450T467 1402V-71Q468 -128 441 -128H129Z" />
<glyph unicode="^" horiz-adv-x="1030" d="M118 351Q90 351 90 380Q90 397 98 418L409 1290Q423 1326 439 1341T488 1357H539Q571 1357 585 1342T616 1289L933 419Q941 395 941 382Q941 351 912 351H834Q813 351 799 366T772 420L534 1100Q528 1119 524 1125T513
1131T502 1125T492 1100L263 420Q250 379 236 365T195 351H118Z" />
<glyph unicode="_" horiz-adv-x="949" d="M122 -126Q96 -126 84 -115T72 -76V-29Q72 -1 84 10T122 21H827Q852 21 864 10T876 -28V-76Q876 -126 827 -126H122Z" />
<glyph unicode="`" horiz-adv-x="597" d="M434 1169Q422 1169 415 1208L352 1549Q348 1573 348 1586Q348 1614 358 1614H440Q451 1614 456 1603T464 1559L486 1236Q487 1222 487 1201Q487 1169 472 1169H434Z" />
<glyph unicode="a" horiz-adv-x="724" d="M286 -12Q187 -12 133 52T78 238Q78 329 105 397T174 500T266 558T359 588T434 601T472 615V668Q472 775 449 828T363 882Q311 882 284 850T237 750Q228 722 213 724Q108 750 107 758Q101 761 101 781T105 818Q131 916
194 966T374 1017Q437 1017 483 997T565 929T617 802T635 605V50Q635 -1 614 -1H582Q564 -1 550 43Q548 53 531 108T511 174Q510 177 509 178T505 178T503 174Q476 82 426 35T286 -12ZM321 116Q391 116 433 208T476 428Q476 504 467 504Q449 504 437 498Q329 471
279 410T228 251Q228 116 321 116Z" />
<glyph unicode="b" horiz-adv-x="765" d="M433 -11Q273 -11 215 193Q213 198 211 198Q207 198 199 149T179 50T152 0H124Q104 0 104 62V1355Q104 1387 111 1407T129 1428H240Q251 1428 258 1408T265 1355V884Q265 869 270 869T277 876Q305 947 349 982T446 1018Q493
1018 534 992T610 908T665 747T685 500Q685 365 664 263T605 103T525 17T433 -11ZM399 125Q518 125 518 511Q518 689 486 785T398 882Q340 882 303 780T265 511T302 235T399 125Z" />
<glyph unicode="c" horiz-adv-x="582" d="M395 -11Q359 -11 330 -7T267 10T208 46T157 108T116 202T91 334T81 509Q81 634 98 727T142 875T210 963T290 1007T377 1018Q438 1018 511 995Q515 994 519 989T523 980V874Q524 867 520 862T511 858Q450 876 419 876Q390
876 370 871T327 846T289 787T265 679T255 509Q255 405 264 333T286 221T322 162T366 137T419 132Q459 132 511 148Q515 147 519 140T524 127V28Q524 11 511 7Q456 -10 395 -11Z" />
<glyph unicode="d" horiz-adv-x="789" d="M342 -11Q79 -11 79 500Q79 1018 335 1018Q446 1018 499 878Q506 868 507 868Q511 868 511 881V1368Q511 1428 536 1428H660Q685 1428 685 1368V67Q685 0 661 0H632Q610 0 598 60Q571 214 566 216Q563 213 559 204Q532
80 477 35T342 -11ZM510 511Q510 700 476 791T381 882Q351 882 330 867T290 812T263 698T254 511Q254 356 270 269T312 154T380 125Q510 125 510 511Z" />
<glyph unicode="e" horiz-adv-x="695" d="M623 242Q623 131 563 60T385 -11Q338 -11 299 -1T218 43T147 130T100 280T81 504Q81 633 99 728T145 878T213 965T291 1008T373 1018Q631 1018 631 536Q631 466 606 466H258Q250 466 250 441Q251 289 286 207T390 125Q423
125 445 140T479 184T494 234T502 288Q505 310 519 310H600Q623 310 623 258V242ZM255 572H484Q486 572 486 597Q478 883 372 883Q323 883 290 820T251 622Q251 572 255 572Z" />
<glyph unicode="f" horiz-adv-x="485" d="M152 0Q126 0 126 61V825Q126 857 119 857H67Q55 857 50 865T44 898V959Q44 1006 67 1006H119Q126 1006 126 1041Q126 1170 140 1254T186 1383T254 1443T347 1459Q416 1459 444 1453Q467 1449 467 1417V1352Q467 1324
465 1316T454 1307H391Q338 1307 316 1263T294 1100V1012Q294 1006 297 1006H438Q460 1006 460 964V898Q460 874 455 866T438 857H302Q294 857 294 825V61Q294 0 268 0H152Z" />
<glyph unicode="g" horiz-adv-x="799" d="M374 456T436 456T530 513T563 670Q563 775 526 841T427 908Q368 908 334 847T299 682Q299 573 336 515ZM425 -202Q524 -202 574 -160T624 -38Q624 27 589 48T488 69H374Q365 69 349 45T319 -21T305 -101Q305 -202 425
-202ZM411 -307Q287 -307 219 -263T151 -139Q151 -47 236 80Q240 85 240 94Q240 105 234 109Q231 110 218 115T201 122T187 128T174 135T163 143T152 153T145 165T139 180T136 198T134 219Q134 266 147 304T170 358T208 407Q215 417 215 426Q215 437 209 444Q177
479 152 541T127 674Q127 829 200 923T418 1018Q444 1018 488 1007Q498 1005 502 1008T507 1022L517 1280Q518 1300 523 1310T533 1322T548 1324H629Q636 1324 640 1308T641 1281L575 997Q571 980 574 973T591 958Q721 862 721 675Q721 518 651 432T442 346Q373
346 314 380Q300 370 286 339T272 272Q272 188 376 188H483Q633 188 699 137T765 -25Q765 -91 742 -142T684 -224T600 -273T506 -300T411 -307Z" />
<glyph unicode="h" horiz-adv-x="785" d="M130 0Q117 0 111 9T104 49V1384Q104 1437 130 1437H257Q282 1437 282 1384V878Q282 863 287 863Q290 863 294 869Q325 946 378 982T485 1018Q534 1018 570 997T635 927T679 790T694 574V49Q694 19 688 10T669 0H541Q528
0 522 9T516 49V595Q516 749 495 815T422 882Q363 882 323 800T282 588V49Q282 19 276 10T258 0H130Z" />
<glyph unicode="i" horiz-adv-x="363" d="M133 0Q108 0 108 67V940Q108 1006 133 1006H245Q269 1006 269 940V67Q269 0 245 0H133ZM129 1161Q104 1161 104 1215V1344Q104 1397 129 1397H248Q273 1397 273 1344V1215Q273 1161 248 1161H129Z" />
<glyph unicode="j" horiz-adv-x="404" d="M34 -335Q23 -335 16 -319T9 -277V-216Q9 -165 33 -165H72Q110 -165 128 -134T146 -6V940Q146 1006 171 1006H282Q307 1006 307 940V-3Q307 -91 297 -154T271 -251T229 -305T178 -330T118 -335H34ZM167 1161Q142 1161
142 1215V1344Q142 1397 167 1397H286Q311 1397 311 1344V1215Q311 1161 286 1161H167Z" />
<glyph unicode="k" horiz-adv-x="706" d="M130 0Q105 0 105 61V1402Q105 1462 130 1462H243Q268 1462 268 1402V550Q268 535 274 535Q274 535 277 538L337 680L473 953Q499 1006 521 1006H651Q660 1006 660 984Q660 968 651 953L459 575Q455 568 455 556Q455 546
458 538L668 59Q674 45 674 29Q674 0 663 0H536Q514 0 498 48L345 472Q341 482 337 482Q331 482 330 475Q326 469 313 442T287 390L275 365Q268 346 268 318V61Q268 0 243 0H130Z" />
<glyph unicode="l" horiz-adv-x="363" d="M135 0Q110 0 110 54V1402Q110 1462 135 1462H247Q272 1462 272 1402V54Q272 0 247 0H135Z" />
<glyph unicode="m" horiz-adv-x="1104" d="M129 0Q118 0 111 18T104 68V933Q104 965 110 985T128 1006H163Q188 1006 199 946L217 811Q220 799 225 799Q228 799 231 812Q282 1018 422 1018Q550 1018 600 828Q603 820 606 820Q612 820 613 828Q638 922 691 970T801
1018Q840 1018 869 1009T926 974T973 902T1002 781T1013 602V68Q1013 0 988 0H872Q847 0 847 68V620Q847 772 827 827T760 882Q709 882 676 812T642 588V68Q642 37 635 19T617 0H502Q476 0 476 68V607Q476 764 455 823T389 882Q349 882 322 840T283 731T271 577V68Q271
37 264 19T246 0H129Z" />
<glyph unicode="n" horiz-adv-x="789" d="M129 0Q117 0 111 9T104 49V946Q104 1006 128 1006H171Q185 1006 194 997T208 959L228 833Q230 822 235 822Q239 822 241 832Q258 890 284 929T343 986T403 1011T467 1018Q522 1018 562 998T633 931T681 797T697 585V49Q697
19 691 10T672 0H544Q531 0 525 9T519 49V607Q519 748 498 815T427 882Q365 882 324 802T283 600V49Q283 19 277 10T258 0H129Z" />
<glyph unicode="o" horiz-adv-x="768" d="M353 125T385 125T438 138T477 190T504 307T513 506Q513 623 504 700T477 815T437 868T385 882T333 868T293 816T265 701T256 506Q256 386 264 308T291 191T331 139ZM418 -11T385 -11T327 -8T268 7T211 40T160 100T118
192T92 325T81 506T91 685T119 818T162 909T212 968T270 1000T328 1015T385 1018T441 1015T499 1001T556 969T607 910T649 818T676 686T687 506T677 326T650 192T609 100T559 40T501 7T443 -8Z" />
<glyph unicode="p" horiz-adv-x="780" d="M127 -344Q104 -344 104 -275V937Q104 1007 127 1007H153Q178 1007 189 937Q190 932 196 900T207 836T212 800Q214 789 218 789Q221 789 224 798Q252 911 311 964T439 1017Q479 1017 515 1000T586 943T645 847T684 703T699
510Q699 238 630 114T444 -11Q393 -11 348 27T278 138Q276 144 272 144Q266 144 266 131V-275Q266 -344 242 -344H127ZM399 125Q524 125 524 500Q524 679 490 780T398 882Q338 882 302 779T266 500Q266 320 302 223T399 125Z" />
<glyph unicode="q" horiz-adv-x="769" d="M529 -344Q506 -344 506 -292L505 131Q505 144 499 144Q494 144 493 138Q467 66 424 28T330 -11Q81 -11 81 510Q81 646 103 748T163 907T245 991T341 1018Q409 1018 464 962T547 790Q550 781 553 781Q557 781 559 792Q559
798 582 947Q593 1008 618 1008H644Q667 1008 667 947V-292Q667 -323 662 -333T644 -344H529ZM376 125Q435 125 470 222T506 500Q506 677 471 779T377 882Q320 882 288 782T255 500Q255 125 376 125Z" />
<glyph unicode="r" horiz-adv-x="496" d="M129 0Q118 0 111 19T104 69V929Q104 1006 123 1006H161Q172 1006 178 992T191 942L214 806Q216 791 221 791Q225 791 227 806Q257 912 299 963T386 1016H402Q428 1016 437 1003T446 962V862Q446 838 442 831T428 824Q390
824 375 818Q320 802 293 711T266 519V69Q266 38 259 19T241 0H129Z" />
<glyph unicode="s" horiz-adv-x="596" d="M289 -11Q220 -11 155 22T40 114L99 229Q190 125 283 125Q340 125 369 164T399 261Q399 316 369 351T259 442Q212 475 184 499T128 560T89 641T76 747Q76 864 141 941T311 1018Q438 1018 529 917L467 798Q396 876 324
876Q277 876 251 843T225 759Q225 703 256 665T350 586Q395 557 426 530T487 465T532 375T547 260Q547 134 480 62T289 -11Z" />
<glyph unicode="t" horiz-adv-x="522" d="M361 -2Q321 -2 292 3T230 28T178 82T144 177T131 322V835Q131 855 120 855H58Q33 855 33 903V957Q33 1006 58 1006H120Q131 1006 131 1033L149 1422Q152 1475 175 1475H275Q300 1475 300 1422V1033Q300 1006 312 1006H440Q465
1006 465 957V903Q465 855 440 855H312Q305 855 303 852T300 835V319Q300 261 307 223T329 166T358 142T394 136H465Q492 136 492 99V39Q492 -2 463 -2H361Z" />
<glyph unicode="u" horiz-adv-x="755" d="M326 -11Q285 -11 253 -2T189 33T137 101T104 211T91 372V957Q91 987 97 996T117 1006H235Q247 1006 253 997T260 957V345Q260 226 285 176T362 125Q420 125 456 204T492 390V957Q492 987 498 996T518 1006H630Q643 1006
649 997T656 957V61Q656 0 631 0H605Q591 0 583 9T569 48L546 190Q543 203 539 203T532 191Q507 89 450 39T326 -11Z" />
<glyph unicode="v" horiz-adv-x="663" d="M275 0Q251 0 238 68L57 942Q55 952 55 970Q55 1006 70 1006H192Q217 1006 226 946L340 248Q342 238 345 238T349 248L446 946Q454 1006 482 1006H594Q609 1006 609 972Q609 964 605 943L435 67Q422 0 397 0H275Z" />
<glyph unicode="w" horiz-adv-x="922" d="M232 0Q205 0 197 57L59 941Q57 959 57 967Q57 1006 74 1006H173Q197 1006 205 944L297 222Q297 222 300 213Q304 213 304 221L398 945Q405 1006 431 1006H521Q544 1006 552 945L645 220Q645 212 649 212Q651 212 652
220L739 944Q746 1006 772 1006H849Q865 1006 865 970Q865 957 862 942L738 57Q729 0 702 0H597Q570 0 562 59L474 677Q474 684 471 684T466 677L376 59Q367 0 340 0H232Z" />
<glyph unicode="x" horiz-adv-x="677" d="M59 0Q51 0 51 26Q51 37 54 46L237 464Q240 472 240 481T238 500L50 958Q46 968 46 979Q46 1006 56 1006H191Q214 1006 234 956L334 699Q337 691 341 691Q346 691 349 698L445 958Q463 1006 489 1006H602Q611 1006 611
981Q611 968 607 960L434 567Q429 559 429 549Q429 540 433 530L635 48Q638 41 638 27Q638 0 629 0H493Q467 0 447 50L348 318Q345 328 339 328Q332 328 329 319L226 47Q218 25 206 13T181 0H59Z" />
<glyph unicode="y" horiz-adv-x="662" d="M223 -122Q246 -122 263 -85T280 22Q280 38 260 133L64 948Q62 962 62 970Q62 1006 77 1006H198Q212 1006 221 997T235 958L365 270Q369 258 370 258Q374 258 374 269L476 955Q480 985 488 995T510 1006H594Q611 1006
611 967Q611 958 609 944L431 17Q410 -98 385 -159T329 -242T247 -265H237Q156 -265 127 -222Q119 -213 119 -176Q119 -102 143 -102Q145 -102 179 -112T223 -122Z" />
<glyph unicode="z" horiz-adv-x="580" d="M100 0Q94 0 89 6T84 25V139Q84 165 97 199L329 852H97Q94 851 92 853T88 862T86 878V979Q86 1006 97 1006H493Q508 1006 508 979V851Q508 819 498 796L273 153H506Q511 155 515 148T519 127V25Q519 0 506 0H100Z" />
<glyph unicode="{" horiz-adv-x="526" d="M427 1543Q438 1543 445 1526T453 1482V1456Q453 1424 445 1409T416 1393Q381 1393 373 1353T363 1161V1005Q362 881 349 814T293 731Q289 729 289 721T293 711Q334 695 347 634T360 456V302Q361 140 370 94T416 47Q437
47 445 32T453 -16V-42Q453 -68 446 -85T427 -103H345Q268 -103 234 -16T198 290V423Q197 534 182 576T130 620Q107 621 99 637T90 696V751Q90 789 98 803T130 818Q166 819 181 868T198 1029Q198 1035 198 1100T199 1168Q200 1315 217 1398T264 1512T345 1543H427Z"
/>
<glyph unicode="|" horiz-adv-x="329" d="M143 -150Q131 -150 124 -131T116 -80V1485Q116 1517 123 1536T143 1555H185Q197 1555 204 1536T212 1485V-80Q212 -112 205 -131T185 -150H143Z" />
<glyph unicode="}" horiz-adv-x="526" d="M116 -103Q105 -103 98 -86T90 -42V-16Q90 17 98 32T127 47Q162 47 170 87T180 279V435Q181 560 194 626T250 709Q254 711 254 719T250 730Q209 745 197 806T183 984V1138Q182 1300 173 1346T127 1393Q106 1393 98 1408T90
1456V1482Q90 1508 97 1525T116 1543H198Q275 1543 309 1457T345 1151V1018Q347 907 362 864T413 820Q436 819 444 803T453 745V690Q453 651 445 637T413 623Q377 622 363 573T346 412Q344 390 344 273Q343 125 326 43T279 -71T198 -103H116Z" />
<glyph unicode="~" horiz-adv-x="949" d="M293 532Q221 532 175 561T92 653Q79 675 79 691Q79 711 101 747T141 784Q156 784 165 767Q195 711 222 693T293 675Q338 675 403 707T537 772T660 804Q787 804 863 683Q870 672 870 656Q870 628 851 596T811 563Q796
563 784 581Q751 626 729 643T674 661Q637 661 586 641T492 597T394 552T293 532Z" />
<glyph unicode="&#xa0;" horiz-adv-x="262" />
<glyph unicode="&#xa1;" horiz-adv-x="402" d="M272 1502Q299 1502 299 1451V1299Q299 1249 272 1249H135Q122 1249 116 1259T109 1299V1451Q109 1502 135 1502H272ZM221 1034Q241 1034 244 961L288 74V65Q288 37 281 19T262 0H144Q133 0 126 17T118 61V73L161
961Q164 1034 183 1034H221Z" />
<glyph unicode="&#xa2;" horiz-adv-x="582" d="M523 980V874Q524 868 520 863T512 858Q502 859 480 865T446 873V133Q476 137 511 148Q515 147 519 140T524 127V28Q524 22 522 17T513 8T502 3T487 -1T473 -4T458 -6T446 -7V-127Q446 -181 422 -181H396Q372 -181
372 -127V-11Q323 -9 286 2T208 47T141 136T98 286T81 509Q81 632 98 724T141 870T207 959T286 1005T372 1017V1177Q372 1230 396 1230H422Q446 1230 446 1177V1010Q447 1010 460 1008T481 1005T500 1000T517 991T523 980ZM372 136V871Q337 861 314 832T273 722T255
509Q255 402 263 329T289 217T325 159T372 136Z" />
<glyph unicode="&#xa3;" horiz-adv-x="963" d="M636 1467Q771 1467 876 1413Q892 1404 896 1402T909 1393T921 1380T924 1364Q924 1361 922 1351L907 1282Q902 1261 892 1255T861 1253Q843 1255 813 1268T742 1292T646 1303Q585 1303 546 1291T481 1255T441 1183T422
1075T417 918V808H701Q750 808 750 756V719Q750 667 701 667H415V194Q415 164 420 156T449 148H882Q904 148 914 138T924 103V37Q924 15 915 8T882 0H98Q69 0 59 11T49 51V94Q49 123 59 135T98 148H189Q209 148 214 152T219 171V624Q219 667 189 667H98Q49 667
49 719V756Q49 808 98 808H215Q215 822 215 881T214 958Q214 1023 217 1071T230 1176T259 1272T308 1351T384 1414T491 1452T636 1467Z" />
<glyph unicode="&#xa4;" horiz-adv-x="1193" d="M596 515Q508 515 444 535T316 596L288 568Q254 532 236 532Q223 532 213 543L183 572Q170 586 170 599Q170 616 204 650L227 673Q119 798 119 977Q119 1159 229 1286L204 1311Q168 1347 168 1363Q168 1376 180
1386L210 1415Q222 1428 237 1428Q254 1428 288 1394L319 1363Q382 1404 446 1424T596 1444Q750 1444 874 1363L904 1393Q939 1428 957 1428Q970 1428 982 1415L1013 1386Q1024 1373 1024 1363Q1024 1347 988 1311L963 1286Q1073 1161 1073 977Q1073 798 966 673L988
651Q1023 616 1023 599Q1023 586 1010 573L980 543Q967 532 958 532Q939 532 905 568L877 596Q752 515 596 515ZM520 616T596 616T734 637T836 694T904 777T944 874T956 976Q956 1045 936 1107T875 1223T762 1307T596 1339T430 1308T317 1223T256 1108T236 976Q236
924 248 875T287 778T355 695T458 638Z" />
<glyph unicode="&#xa5;" horiz-adv-x="732" d="M295 0Q282 0 276 10T270 51V329H118Q105 329 99 336T93 369V439Q93 464 99 472T118 480H260L247 570H118Q105 570 99 578T93 611V681Q93 706 99 713T118 721H212L39 1378Q34 1393 34 1407Q34 1438 50 1438H185Q198
1438 210 1424T227 1385L374 751H388L532 1384Q537 1408 548 1423T572 1438H684Q700 1438 700 1406Q700 1393 696 1378L525 721H618Q630 721 636 714T642 681V611Q642 586 636 578T618 570H491L478 480H613Q625 480 631 472T637 439V369Q637 344 631 337T613 329H468V51Q468
0 443 0H295Z" />
<glyph unicode="&#xa6;" horiz-adv-x="388" d="M170 -123Q145 -123 145 -63V506Q145 566 170 566H218Q243 566 243 506V-63Q243 -123 218 -123H170ZM170 852Q144 852 144 912V1482Q144 1542 170 1542H217Q243 1542 243 1482V912Q243 852 217 852H170Z" />
<glyph unicode="&#xa7;" horiz-adv-x="836" d="M424 -15Q247 -15 121 86Q105 97 105 124Q105 124 120 178Q126 197 139 206T164 209Q232 159 294 137T440 115Q522 115 562 161T603 282Q603 352 559 389T416 451Q377 461 356 467T301 484T249 505T206 532T168 568T141
612T122 670T116 742Q116 873 200 949Q116 1026 116 1159Q116 1229 135 1282T185 1367T256 1418T336 1445T418 1452Q500 1452 558 1434T676 1371Q693 1360 693 1335L675 1277Q670 1260 656 1254T631 1256Q596 1280 577 1290T522 1310T437 1319Q338 1319 299 1283T260
1178Q260 1114 300 1085T443 1028Q510 1011 542 1001T621 968T688 915T725 834T742 713Q742 600 665 510Q742 424 742 295Q742 141 667 63T424 -15ZM574 573Q589 582 607 627T625 705Q625 775 577 809T416 868Q332 882 291 898Q240 852 240 764Q240 708 289 676T443
610Q536 587 574 573Z" />
<glyph unicode="&#xa8;" horiz-adv-x="317" d="M52 0Q25 0 25 57V139Q25 196 52 196H112Q139 196 139 139V57Q139 0 112 0H52ZM278 0Q252 0 252 57V139Q252 196 278 196H339Q365 196 365 139V57Q365 0 339 0H278Z" />
<glyph unicode="&#xa9;" horiz-adv-x="1443" d="M736 337Q676 337 623 360T527 429T459 552T433 729Q433 830 459 907T528 1028T621 1093T725 1115Q836 1115 911 1056Q922 1046 922 1021Q922 999 913 979T892 959Q890 959 885 962Q810 1012 747 1012Q654 1012
601 939T547 728Q547 579 604 511T748 442Q774 442 797 446T828 453T858 468T883 481Q884 481 886 482H888Q901 482 912 461T923 416Q923 391 908 384Q861 358 824 348T736 337ZM724 93Q832 93 920 130T1065 227T1162 370T1218 538T1235 717Q1235 812 1218 900T1162
1070T1066 1212T920 1309T724 1346Q615 1346 527 1310T382 1213T285 1070T230 900T213 717Q213 625 229 539T285 370T381 228T527 130T724 93ZM721 -16Q597 -16 493 23T316 131T193 293T118 495T94 721T118 946T192 1148T316 1310T493 1418T721 1458Q876 1458 998
1398T1196 1235T1310 1001T1349 721T1310 441T1196 207T999 44T721 -16Z" />
<glyph unicode="&#xaa;" horiz-adv-x="650" d="M300 615Q220 615 177 666T134 815Q134 888 156 942T211 1024T284 1070T358 1094T419 1105T449 1116V1159Q449 1245 431 1287T362 1330Q320 1330 298 1304T261 1224Q257 1211 253 1207T242 1204L219 1210Q196 1217
177 1223T157 1231Q153 1233 152 1249T155 1279Q176 1357 226 1397T370 1438Q473 1438 526 1363T579 1108V664Q579 624 562 624H537Q522 624 511 659Q510 667 496 711T480 764Q476 774 474 764Q452 690 412 653T300 615ZM328 717Q384 717 418 791T452 967Q452 1028
445 1028Q431 1028 421 1023Q254 981 254 825Q254 717 328 717Z" />
<glyph unicode="&#xab;" horiz-adv-x="829" d="M396 218Q395 218 376 237T330 284T276 340T230 388L210 408Q193 425 146 490T98 575Q90 584 90 702Q90 781 105 795Q105 804 294 993L305 1004Q316 1016 330 1031T359 1061T384 1087T395 1098H397Q407 1098 410
1071Q413 1071 413 964Q413 910 398 888Q398 881 370 853T310 795T277 764Q275 763 233 715T191 664Q189 656 193 650Q193 649 210 633T249 597T288 560L306 543Q405 414 405 390Q413 382 413 265Q413 252 410 239T404 226Q403 217 398 217Q397 217 396 218ZM736
218L717 238Q698 257 671 284T616 340T570 388L550 408Q533 425 486 490T439 575Q430 584 430 702Q430 780 445 795Q445 799 490 845T583 941T634 993Q635 994 660 1020T710 1072L735 1098H737Q748 1098 750 1071Q754 1071 754 964Q754 911 738 888Q738 881 710
853T651 795T618 764Q616 763 574 715T532 664Q530 655 533 650Q533 649 550 633T589 597T629 560L647 543Q648 542 666 519T700 473T731 425T746 390Q754 382 754 265Q754 252 751 239T744 226Q743 217 739 217Q737 217 736 218Z" />
<glyph unicode="&#xac;" horiz-adv-x="1106" d="M837 239Q785 239 785 304V543Q785 558 777 566T756 575H181Q129 575 129 628V688Q129 717 142 729T181 742H915Q942 742 959 727T976 684V304Q976 239 925 239H837Z" />
<glyph unicode="&#xad;" horiz-adv-x="540" d="M98 590Q90 590 86 591T79 597T75 615V623Q75 636 78 642T86 649T98 650H462Q470 650 474 649T481 643T485 625V617Q485 604 482 598T474 591T462 590H98Z" />
<glyph unicode="&#xae;" horiz-adv-x="1443" d="M520 356Q503 356 503 388V1072Q503 1105 520 1105H724Q769 1105 796 1103T858 1089T910 1056T942 994T955 894Q955 745 863 722L862 718L863 717Q956 680 961 512Q964 452 964 382Q964 356 953 356H880Q864 356
863 391Q863 434 856 516T843 608Q835 652 812 667T745 682H612Q605 682 605 667V388Q605 356 589 356H520ZM612 771H769Q816 771 836 800T856 892Q856 968 828 992T738 1017H612Q605 1017 605 1004V785Q605 771 612 771ZM724 93Q832 93 920 130T1065 227T1162
370T1218 538T1235 717Q1235 812 1218 900T1162 1070T1066 1212T920 1309T724 1346Q615 1346 527 1310T382 1213T285 1070T230 900T213 717Q213 625 229 539T285 370T381 228T527 130T724 93ZM721 -16Q597 -16 493 23T316 131T193 293T118 495T94 721T118 946T192
1148T316 1310T493 1418T721 1458Q876 1458 998 1398T1196 1235T1310 1001T1349 721T1310 441T1196 207T999 44T721 -16Z" />
<glyph unicode="&#xaf;" horiz-adv-x="890" d="M274 707Q238 707 238 747V778Q238 819 274 819H632Q668 819 668 779V748Q668 707 632 707H274Z" />
<glyph unicode="&#xb0;" horiz-adv-x="1268" d="M651 1318Q699 1318 733 1348T767 1441Q767 1506 733 1534T651 1563Q601 1563 566 1535T532 1441Q531 1379 566 1349T651 1318ZM651 1245Q617 1245 583 1255T517 1286T464 1348T444 1441Q444 1496 463 1536T513
1597T579 1627T651 1637Q680 1637 707 1632T761 1612T809 1577T842 1520T855 1441Q855 1388 835 1348T783 1287T718 1255T651 1245Z" />
<glyph unicode="&#xb1;" horiz-adv-x="802" d="M369 395Q352 395 344 403T336 440V647Q336 661 333 665T321 669H142Q127 669 119 677T111 710V743Q111 770 118 777T142 785H321Q329 785 332 789T336 807V1004Q336 1032 344 1040T369 1049H441Q457 1049 464 1041T472
1004V807Q472 793 476 789T489 785H665Q675 785 680 783T691 771T696 743V710Q696 685 688 677T665 669H489Q480 669 476 665T472 647V440Q472 412 465 404T441 395H369ZM141 150Q126 150 118 158T110 192V225Q110 251 118 258T141 266H664Q679 266 687 259T695
225V192Q695 166 687 158T664 150H141Z" />
<glyph unicode="&#xb2;" horiz-adv-x="591" d="M487 290H87Q66 290 66 345Q66 347 66 368T67 393Q74 509 111 613T195 790T288 927T365 1055T397 1175Q397 1247 361 1284T269 1321Q239 1321 209 1315T163 1302T123 1284T94 1271Q79 1257 77 1281Q63 1341 63 1356Q63
1385 70 1395Q154 1452 272 1452Q533 1452 533 1201Q533 1130 507 1063T441 935T357 810T273 652T211 454Q210 452 210 445Q210 406 221 406H487Q502 406 502 366V327Q502 290 487 290Z" />
<glyph unicode="&#xb3;" horiz-adv-x="544" d="M225 276Q111 276 63 316Q52 324 52 361Q52 368 54 395T57 423Q58 445 63 446Q66 446 69 443L78 438Q86 433 90 431T105 424T125 417T146 411T174 407T205 405Q354 405 354 606Q353 699 318 752T214 806H185Q171
806 167 812T163 835V921Q163 940 185 940H213Q346 943 346 1130Q346 1234 314 1278T218 1322Q131 1322 67 1284Q59 1277 57 1293Q56 1297 56 1305Q55 1305 52 1332T49 1364Q49 1371 52 1388T61 1410Q126 1451 239 1451T419 1377T486 1137Q486 912 329 872Q410
854 451 778T492 578Q492 494 470 433T409 339T325 291T225 276Z" />
<glyph unicode="&#xb4;" horiz-adv-x="597" d="M363 1169Q348 1169 348 1201Q348 1208 350 1236L370 1559Q374 1614 396 1614H477Q487 1614 487 1586Q487 1573 483 1549L420 1208Q413 1169 401 1169H363Z" />
<glyph unicode="&#xb6;" horiz-adv-x="1239" d="M643 -1Q589 -1 589 73V788H565Q513 788 462 799T361 835T274 896T213 990T189 1116Q189 1288 302 1363T674 1438Q856 1438 971 1413Q1001 1407 1010 1389T1020 1335V73Q1020 -1 967 -1H931Q878 -1 878 73V767Q878
776 873 782T859 788H738V73Q738 -1 684 -1H643Z" />
<glyph unicode="&#xb8;" horiz-adv-x="551" d="M310 -591Q239 -591 194 -547T149 -424Q149 -333 179 -333H230Q253 -333 253 -367Q253 -376 251 -393T249 -418Q249 -459 266 -485T316 -511T365 -478T382 -367Q382 -308 360 -256T309 -203H279Q267 -204 267 -193V-133Q267
-116 279 -116H343Q403 -116 442 -186T482 -345Q482 -471 441 -531T310 -591Z" />
<glyph unicode="&#xb9;" horiz-adv-x="403" d="M178 288Q158 288 158 342V1226Q158 1252 148 1250Q85 1234 84 1234Q66 1232 66 1269V1346Q66 1379 85 1382L297 1436Q300 1437 304 1437Q321 1437 321 1399V342Q321 288 301 288H178Z" />
<glyph unicode="&#xba;" horiz-adv-x="691" d="M385 724Q410 724 427 735T458 777T480 870T487 1029Q487 1152 473 1220T439 1309T385 1329T331 1309T296 1221T282 1029Q282 933 289 871T310 777T342 735T385 724ZM385 615Q359 615 339 617T292 629T246 656T206
704T172 778T151 885T142 1029Q142 1139 158 1218T198 1339T257 1404T320 1433T385 1438Q411 1438 430 1436T476 1424T522 1399T562 1352T596 1279T617 1173T626 1029Q626 918 610 838T572 716T514 650T451 621T385 615Z" />
<glyph unicode="&#xbb;" horiz-adv-x="829" d="M103 214Q90 214 90 255V358Q90 423 114 450L309 632Q313 636 313 647T309 662L113 854Q90 883 90 948V1057Q90 1101 103 1101Q106 1101 113 1094L390 807Q413 783 413 712V587Q413 515 390 493L113 222Q105 214
103 214ZM443 215Q430 215 430 255V358Q430 422 454 450L650 632Q653 635 653 647Q653 658 650 662L454 854Q430 882 430 948V1057Q430 1101 444 1101Q448 1101 453 1094L730 807Q754 782 754 712V587Q754 516 730 493L453 222Q447 215 443 215Z" />
<glyph unicode="&#xbc;" horiz-adv-x="1807" d="M1550 287Q1520 287 1520 336V516H1202Q1185 516 1174 528T1162 559Q1162 566 1163 570L1278 1384Q1283 1414 1288 1426T1308 1438H1374Q1402 1438 1402 1398Q1402 1389 1401 1384L1322 679Q1321 673 1325 665T1337
656H1520V1390Q1520 1438 1550 1438H1627Q1657 1438 1657 1390V656H1761Q1796 656 1796 611V561Q1796 516 1761 516H1657V336Q1657 287 1627 287H1550ZM727 124Q721 124 721 144Q721 145 721 147T722 150L963 1579Q966 1606 978 1606H1049Q1055 1606 1055 1588L1056
1584Q1056 1579 1055 1579L814 150Q811 123 799 123L727 124ZM379 288Q359 288 359 342V1226Q359 1252 349 1250Q286 1234 285 1234Q267 1232 267 1269V1346Q267 1379 286 1382L498 1436Q501 1437 505 1437Q522 1437 522 1399V342Q522 288 502 288H379Z" />
<glyph unicode="&#xbd;" horiz-adv-x="1653" d="M358 289Q338 289 338 343V1227Q338 1253 328 1251Q265 1235 264 1235Q246 1233 246 1270V1347Q246 1380 265 1383L476 1437Q479 1438 484 1438Q501 1438 501 1400V343Q501 289 480 289H358ZM685 125Q679 125 679
145Q679 146 679 148T680 151L921 1580Q924 1607 936 1607H1007Q1013 1607 1013 1589Q1013 1583 1012 1580L772 151Q769 124 757 124L685 125ZM1560 290H1160Q1139 290 1139 345Q1139 347 1139 368T1140 393Q1147 509 1182 613T1261 790T1348 927T1420 1055T1450
1175Q1450 1247 1414 1284T1322 1321Q1283 1321 1255 1313T1200 1289T1167 1271Q1152 1257 1150 1281Q1136 1341 1136 1356Q1136 1385 1143 1395Q1227 1452 1345 1452Q1606 1452 1606 1201Q1606 1130 1582 1063T1519 935T1440 810T1359 652T1299 454Q1298 452 1298
445Q1298 406 1309 406H1560Q1575 406 1575 366V327Q1575 290 1560 290Z" />
<glyph unicode="&#xbe;" horiz-adv-x="1916" d="M1658 287Q1629 287 1629 336V516H1310Q1293 516 1282 528T1271 559Q1271 566 1272 570L1386 1384Q1391 1413 1397 1425T1417 1438H1482Q1495 1438 1503 1427T1511 1398Q1511 1394 1509 1384L1431 679Q1430 673
1434 665T1445 656H1629V1390Q1629 1438 1658 1438H1736Q1765 1438 1765 1390V656H1869Q1905 656 1905 611V561Q1905 516 1869 516H1765V336Q1765 287 1736 287H1658ZM851 124Q845 124 845 144V150L1087 1579Q1090 1606 1101 1606H1173Q1179 1606 1179 1588Q1179
1582 1178 1579L937 150Q934 123 923 123L851 124ZM437 276Q323 276 275 316Q264 324 264 361Q264 368 266 395T269 423Q270 445 275 446Q278 446 281 443L290 438Q298 433 302 431T317 424T337 417T358 411T386 407T417 405Q566 405 566 606Q565 699 530 752T426
806H397Q383 806 379 812T375 835V921Q375 940 397 940H425Q558 943 558 1130Q558 1234 526 1278T430 1322Q343 1322 279 1284Q271 1277 269 1293Q268 1297 268 1305Q267 1305 264 1332T261 1364Q261 1371 264 1388T273 1410Q338 1451 451 1451T631 1377T698 1137Q698
912 541 872Q622 854 663 778T704 578Q704 494 682 433T621 339T537 291T437 276Z" />
<glyph unicode="&#xbf;" horiz-adv-x="844" d="M561 638Q564 633 571 621T581 602T587 586T592 564Q601 538 582 517Q548 450 515 415T410 331Q284 246 284 88Q287 -18 340 -76T470 -135Q585 -135 691 -60Q711 -47 724 -89Q729 -89 739 -125T750 -171Q750 -207
726 -221Q675 -257 604 -282T467 -307Q413 -307 366 -295T274 -253T198 -180T146 -68T124 85Q124 325 388 484Q464 530 516 633Q528 649 542 649Q553 649 561 638ZM575 1158Q596 1158 609 1141T623 1093V982Q623 952 610 935T575 917H470Q449 917 436 934T422 982V1093Q422
1123 435 1140T470 1158H575Z" />
<glyph unicode="&#xc0;" horiz-adv-x="822" d="M397 1576Q385 1576 378 1615L315 1956Q311 1980 311 1993Q311 2021 321 2021H403Q414 2021 419 2010T427 1966L449 1643Q450 1629 450 1608Q450 1576 435 1576H397ZM68 0Q53 0 53 29V46Q53 59 54 63L279 1388Q287
1436 316 1438H519Q547 1436 555 1388L776 63Q776 60 777 52T779 38T780 28Q780 0 763 0H598Q574 0 567 41L530 296Q527 318 519 318H277Q270 318 266 295L224 42Q220 17 214 9T196 0H68ZM306 443H510Q517 443 517 461Q517 467 515 470L416 1241Q415 1248 413 1248Q410
1248 409 1242L292 471Q291 464 291 462Q291 443 306 443Z" />
<glyph unicode="&#xc1;" horiz-adv-x="822" d="M397 1576Q382 1576 382 1608Q382 1615 384 1643L404 1966Q408 2021 430 2021H511Q521 2021 521 1993Q521 1980 517 1956L454 1615Q447 1576 435 1576H397ZM68 0Q53 0 53 29V46Q53 59 54 63L279 1388Q287 1436 316
1438H519Q547 1436 555 1388L776 63Q776 60 777 52T779 38T780 28Q780 0 763 0H598Q574 0 567 41L530 296Q527 318 519 318H277Q270 318 266 295L224 42Q220 17 214 9T196 0H68ZM306 443H510Q517 443 517 461Q517 467 515 470L416 1241Q415 1248 413 1248Q410 1248
409 1242L292 471Q291 464 291 462Q291 443 306 443Z" />
<glyph unicode="&#xc2;" horiz-adv-x="822" d="M323 1576Q292 1576 292 1584Q276 1585 276 1611Q276 1622 280 1638L352 1837Q376 1912 404 1912H429Q457 1912 481 1837L553 1638Q557 1620 557 1607Q557 1585 542 1584Q542 1576 511 1576Q490 1576 474 1617L427
1735Q421 1752 416 1752T406 1735L359 1617Q341 1576 323 1576ZM68 0Q53 0 53 29V46Q53 59 54 63L279 1388Q287 1436 316 1438H519Q547 1436 555 1388L776 63Q776 60 777 52T779 38T780 28Q780 0 763 0H598Q574 0 567 41L530 296Q527 318 519 318H277Q270 318 266
295L224 42Q220 17 214 9T196 0H68ZM306 443H510Q517 443 517 461Q517 467 515 470L416 1241Q415 1248 413 1248Q410 1248 409 1242L292 471Q291 464 291 462Q291 443 306 443Z" />
<glyph unicode="&#xc3;" horiz-adv-x="822" d="M544 1657T525 1657T474 1637T401 1597T320 1576Q297 1576 279 1584T245 1609T222 1637T201 1669Q182 1696 182 1711T194 1737T220 1749Q235 1749 247 1738T266 1712T285 1687T310 1675Q333 1675 403 1715T516 1756Q542
1756 565 1740T600 1708T632 1662Q651 1633 651 1619Q651 1604 640 1594T615 1583Q592 1583 568 1620ZM68 0Q53 0 53 29V46Q53 59 54 63L279 1388Q287 1436 316 1438H519Q547 1436 555 1388L776 63Q776 60 777 52T779 38T780 28Q780 0 763 0H598Q574 0 567 41L530
296Q527 318 519 318H277Q270 318 266 295L224 42Q220 17 214 9T196 0H68ZM306 443H510Q517 443 517 461Q517 467 515 470L416 1241Q415 1248 413 1248Q410 1248 409 1242L292 471Q291 464 291 462Q291 443 306 443Z" />
<glyph unicode="&#xc4;" horiz-adv-x="822" d="M273 1576Q246 1576 246 1633V1715Q246 1772 273 1772H333Q360 1772 360 1715V1633Q360 1576 333 1576H273ZM499 1576Q473 1576 473 1633V1715Q473 1772 499 1772H560Q586 1772 586 1715V1633Q586 1576 560 1576H499ZM68
0Q53 0 53 29V46Q53 59 54 63L279 1388Q287 1436 316 1438H519Q547 1436 555 1388L776 63Q776 60 777 52T779 38T780 28Q780 0 763 0H598Q574 0 567 41L530 296Q527 318 519 318H277Q270 318 266 295L224 42Q220 17 214 9T196 0H68ZM306 443H510Q517 443 517 461Q517
467 515 470L416 1241Q415 1248 413 1248Q410 1248 409 1242L292 471Q291 464 291 462Q291 443 306 443Z" />
<glyph unicode="&#xc5;" horiz-adv-x="822" d="M418 1514Q466 1514 500 1544T534 1637Q534 1702 500 1730T418 1759Q368 1759 333 1731T299 1637Q298 1575 333 1545T418 1514ZM418 1441Q384 1441 350 1451T284 1482T231 1544T211 1637Q211 1692 230 1732T280 1793T346
1823T418 1833Q447 1833 474 1828T528 1808T576 1773T609 1716T622 1637Q622 1584 602 1544T550 1483T485 1451T418 1441ZM68 0Q53 0 53 29V46Q53 59 54 63L279 1388Q287 1436 316 1438H519Q547 1436 555 1388L776 63Q776 60 777 52T779 38T780 28Q780 0 763 0H598Q574
0 567 41L530 296Q527 318 519 318H277Q270 318 266 295L224 42Q220 17 214 9T196 0H68ZM306 443H510Q517 443 517 461Q517 467 515 470L416 1241Q415 1248 413 1248Q410 1248 409 1242L292 471Q291 464 291 462Q291 443 306 443Z" />
<glyph unicode="&#xc6;" horiz-adv-x="1027" d="M67 0Q53 0 53 29Q53 31 53 37T52 46Q52 57 55 63L389 1388Q399 1438 428 1438H929Q938 1438 942 1436T950 1425T954 1398V1319Q954 1294 948 1287T929 1279H735Q723 1279 723 1246V842Q723 833 726 824T733 815H889Q914
815 914 769V692Q914 646 889 646H734Q730 646 727 636T723 616V159H946Q955 159 960 157T968 146T972 119V40Q972 15 966 8T946 0H551Q538 0 532 7T526 42V318H309Q303 318 298 295L235 42Q231 17 224 9T204 0H67ZM348 443H520Q526 443 526 465V1256Q526 1268
523 1268Q519 1268 519 1258L335 471Q333 464 333 458Q333 443 348 443Z" />
<glyph unicode="&#xc7;" horiz-adv-x="717" d="M424 -591Q353 -591 308 -547T263 -424Q263 -333 293 -333H344Q367 -333 367 -367Q367 -376 365 -393T363 -418Q363 -459 380 -485T430 -511T479 -478T496 -367Q496 -308 474 -256T423 -203H393Q381 -204 381 -193V-133Q381
-116 393 -116H457Q517 -116 556 -186T596 -345Q596 -471 555 -531T424 -591ZM494 -15Q442 -15 404 -10T320 12T244 61T181 147T130 278T99 466T87 720Q87 912 110 1050T170 1265T263 1386T373 1442T499 1454Q592 1454 652 1426Q653 1425 655 1424T658 1421T661
1416T662 1407V1286Q662 1272 655 1272Q654 1272 648 1274T629 1279T603 1285T571 1290T534 1292Q487 1292 454 1282T387 1237T332 1141T298 974T285 720Q285 569 296 463T326 296T376 200T440 156T520 146Q591 146 646 165Q647 165 650 155T654 144V29Q654 28
651 19T646 8Q585 -15 494 -15Z" />
<glyph unicode="&#xc8;" horiz-adv-x="752" d="M387 1576Q375 1576 368 1615L305 1956Q301 1980 301 1993Q301 2021 311 2021H393Q404 2021 409 2010T417 1966L439 1643Q440 1629 440 1608Q440 1576 425 1576H387ZM141 0Q128 0 122 7T116 42V1396Q116 1422 122
1430T141 1438H667Q675 1438 680 1436T688 1425T692 1398V1319Q692 1294 686 1287T667 1279H325Q313 1279 313 1246V842Q313 833 316 824T323 815H598Q623 815 623 769V692Q623 646 598 646H324Q320 646 317 636T313 616V159H670Q679 159 684 157T692 146T696 119V40Q696
15 690 8T670 0H141Z" />
<glyph unicode="&#xc9;" horiz-adv-x="752" d="M387 1576Q372 1576 372 1608Q372 1615 374 1643L394 1966Q398 2021 420 2021H501Q511 2021 511 1993Q511 1980 507 1956L444 1615Q437 1576 425 1576H387ZM141 0Q128 0 122 7T116 42V1396Q116 1422 122 1430T141
1438H667Q675 1438 680 1436T688 1425T692 1398V1319Q692 1294 686 1287T667 1279H325Q313 1279 313 1246V842Q313 833 316 824T323 815H598Q623 815 623 769V692Q623 646 598 646H324Q320 646 317 636T313 616V159H670Q679 159 684 157T692 146T696 119V40Q696
15 690 8T670 0H141Z" />
<glyph unicode="&#xca;" horiz-adv-x="752" d="M312 1576Q281 1576 281 1584Q265 1585 265 1611Q265 1622 269 1638L341 1837Q365 1912 393 1912H418Q446 1912 470 1837L542 1638Q546 1620 546 1607Q546 1585 531 1584Q531 1576 500 1576Q479 1576 463 1617L416
1735Q410 1752 405 1752T395 1735L348 1617Q330 1576 312 1576ZM141 0Q128 0 122 7T116 42V1396Q116 1422 122 1430T141 1438H667Q675 1438 680 1436T688 1425T692 1398V1319Q692 1294 686 1287T667 1279H325Q313 1279 313 1246V842Q313 833 316 824T323 815H598Q623
815 623 769V692Q623 646 598 646H324Q320 646 317 636T313 616V159H670Q679 159 684 157T692 146T696 119V40Q696 15 690 8T670 0H141Z" />
<glyph unicode="&#xcb;" horiz-adv-x="752" d="M263 1576Q236 1576 236 1633V1715Q236 1772 263 1772H323Q350 1772 350 1715V1633Q350 1576 323 1576H263ZM489 1576Q463 1576 463 1633V1715Q463 1772 489 1772H550Q576 1772 576 1715V1633Q576 1576 550 1576H489ZM141
0Q128 0 122 7T116 42V1396Q116 1422 122 1430T141 1438H667Q675 1438 680 1436T688 1425T692 1398V1319Q692 1294 686 1287T667 1279H325Q313 1279 313 1246V842Q313 833 316 824T323 815H598Q623 815 623 769V692Q623 646 598 646H324Q320 646 317 636T313 616V159H670Q679
159 684 157T692 146T696 119V40Q696 15 690 8T670 0H141Z" />
<glyph unicode="&#xcc;" horiz-adv-x="430" d="M197 1576Q185 1576 178 1615L115 1956Q111 1980 111 1993Q111 2021 121 2021H203Q214 2021 219 2010T227 1966L249 1643Q250 1629 250 1608Q250 1576 235 1576H197ZM143 0Q134 0 129 2T121 16T117 47V1391Q117 1420
123 1429T143 1438H290Q298 1438 303 1436T311 1422T315 1391V47Q315 18 309 9T290 0H143Z" />
<glyph unicode="&#xcd;" horiz-adv-x="430" d="M197 1576Q182 1576 182 1608Q182 1615 184 1643L204 1966Q208 2021 230 2021H311Q321 2021 321 1993Q321 1980 317 1956L254 1615Q247 1576 235 1576H197ZM143 0Q134 0 129 2T121 16T117 47V1391Q117 1420 123 1429T143
1438H290Q298 1438 303 1436T311 1422T315 1391V47Q315 18 309 9T290 0H143Z" />
<glyph unicode="&#xce;" horiz-adv-x="430" d="M122 1576Q91 1576 91 1584Q75 1585 75 1611Q75 1622 79 1638L151 1837Q175 1912 203 1912H228Q256 1912 280 1837L352 1638Q356 1620 356 1607Q356 1585 341 1584Q341 1576 310 1576Q289 1576 273 1617L226 1735Q220
1752 215 1752T205 1735L158 1617Q140 1576 122 1576ZM143 0Q134 0 129 2T121 16T117 47V1391Q117 1420 123 1429T143 1438H290Q298 1438 303 1436T311 1422T315 1391V47Q315 18 309 9T290 0H143Z" />
<glyph unicode="&#xcf;" horiz-adv-x="430" d="M73 1576Q46 1576 46 1633V1715Q46 1772 73 1772H133Q160 1772 160 1715V1633Q160 1576 133 1576H73ZM299 1576Q273 1576 273 1633V1715Q273 1772 299 1772H360Q386 1772 386 1715V1633Q386 1576 360 1576H299ZM143
0Q134 0 129 2T121 16T117 47V1391Q117 1420 123 1429T143 1438H290Q298 1438 303 1436T311 1422T315 1391V47Q315 18 309 9T290 0H143Z" />
<glyph unicode="&#xd0;" horiz-adv-x="935" d="M326 159H449Q526 159 568 205T630 373T651 726Q651 939 628 1063T563 1233T456 1279H325Q313 1279 313 1257V794H410Q436 794 447 784T459 746V697Q458 674 446 665T410 655H313V181Q313 159 326 159ZM141 0Q128
0 122 8T116 44V655H66Q40 655 29 665T17 703V745Q17 773 28 783T66 794H116V1398Q116 1423 122 1430T141 1438H485Q573 1438 637 1403T751 1288T824 1069T849 729Q849 587 840 479T817 293T775 162T719 77T646 28T561 6T458 0H141Z" />
<glyph unicode="&#xd1;" horiz-adv-x="962" d="M609 1657T590 1657T539 1637T466 1597T385 1576Q362 1576 344 1584T310 1609T287 1637T266 1669Q247 1696 247 1711T259 1737T285 1749Q300 1749 312 1738T331 1712T350 1687T375 1675Q398 1675 468 1715T581 1756Q607
1756 630 1740T665 1708T697 1662Q716 1633 716 1619Q716 1604 705 1594T680 1583Q657 1583 633 1620ZM142 0Q129 0 123 10T116 50V1385Q116 1438 142 1438H294Q315 1438 330 1399L669 488Q671 481 675 492L676 501V1385Q676 1438 703 1438H822Q847 1438 847 1385V46Q847
16 841 8T822 -1H714Q704 -1 693 11T674 41L297 1025Q293 1033 291 1020Q290 1017 290 1013V50Q290 20 284 10T263 0H142Z" />
<glyph unicode="&#xd2;" horiz-adv-x="924" d="M443 1576Q431 1576 424 1615L361 1956Q357 1980 357 1993Q357 2021 367 2021H449Q460 2021 465 2010T473 1966L495 1643Q496 1629 496 1608Q496 1576 481 1576H443ZM461 143Q531 143 568 190T622 362T639 726Q639
957 623 1076T571 1243T462 1292Q392 1292 355 1243T301 1073T285 726Q285 489 302 365T355 192T461 143ZM462 -15Q379 -15 322 3T217 68T143 200T102 412T87 726Q87 874 96 986T127 1179T178 1313T251 1397T345 1441T462 1454Q543 1454 600 1436T705 1370T780
1241T822 1032T837 726Q837 540 823 411T782 198T708 68T604 3T462 -15Z" />
<glyph unicode="&#xd3;" horiz-adv-x="924" d="M443 1576Q428 1576 428 1608Q428 1615 430 1643L450 1966Q454 2021 476 2021H557Q567 2021 567 1993Q567 1980 563 1956L500 1615Q493 1576 481 1576H443ZM461 143Q531 143 568 190T622 362T639 726Q639 957 623
1076T571 1243T462 1292Q392 1292 355 1243T301 1073T285 726Q285 489 302 365T355 192T461 143ZM462 -15Q379 -15 322 3T217 68T143 200T102 412T87 726Q87 874 96 986T127 1179T178 1313T251 1397T345 1441T462 1454Q543 1454 600 1436T705 1370T780 1241T822
1032T837 726Q837 540 823 411T782 198T708 68T604 3T462 -15Z" />
<glyph unicode="&#xd4;" horiz-adv-x="924" d="M368 1576Q337 1576 337 1584Q321 1585 321 1611Q321 1622 325 1638L397 1837Q421 1912 449 1912H474Q502 1912 526 1837L598 1638Q602 1620 602 1607Q602 1585 587 1584Q587 1576 556 1576Q535 1576 519 1617L472
1735Q466 1752 461 1752T451 1735L404 1617Q386 1576 368 1576ZM461 143Q531 143 568 190T622 362T639 726Q639 957 623 1076T571 1243T462 1292Q392 1292 355 1243T301 1073T285 726Q285 489 302 365T355 192T461 143ZM462 -15Q379 -15 322 3T217 68T143 200T102
412T87 726Q87 874 96 986T127 1179T178 1313T251 1397T345 1441T462 1454Q543 1454 600 1436T705 1370T780 1241T822 1032T837 726Q837 540 823 411T782 198T708 68T604 3T462 -15Z" />
<glyph unicode="&#xd5;" horiz-adv-x="924" d="M589 1657T570 1657T519 1637T446 1597T365 1576Q342 1576 324 1584T290 1609T267 1637T246 1669Q227 1696 227 1711T239 1737T265 1749Q280 1749 292 1738T311 1712T330 1687T355 1675Q378 1675 448 1715T561 1756Q587
1756 610 1740T645 1708T677 1662Q696 1633 696 1619Q696 1604 685 1594T660 1583Q637 1583 613 1620ZM461 143Q531 143 568 190T622 362T639 726Q639 957 623 1076T571 1243T462 1292Q392 1292 355 1243T301 1073T285 726Q285 489 302 365T355 192T461 143ZM462
-15Q379 -15 322 3T217 68T143 200T102 412T87 726Q87 874 96 986T127 1179T178 1313T251 1397T345 1441T462 1454Q543 1454 600 1436T705 1370T780 1241T822 1032T837 726Q837 540 823 411T782 198T708 68T604 3T462 -15Z" />
<glyph unicode="&#xd6;" horiz-adv-x="924" d="M319 1576Q292 1576 292 1633V1715Q292 1772 319 1772H379Q406 1772 406 1715V1633Q406 1576 379 1576H319ZM545 1576Q519 1576 519 1633V1715Q519 1772 545 1772H606Q632 1772 632 1715V1633Q632 1576 606 1576H545ZM461
143Q531 143 568 190T622 362T639 726Q639 957 623 1076T571 1243T462 1292Q392 1292 355 1243T301 1073T285 726Q285 489 302 365T355 192T461 143ZM462 -15Q379 -15 322 3T217 68T143 200T102 412T87 726Q87 874 96 986T127 1179T178 1313T251 1397T345 1441T462
1454Q543 1454 600 1436T705 1370T780 1241T822 1032T837 726Q837 540 823 411T782 198T708 68T604 3T462 -15Z" />
<glyph unicode="&#xd7;" horiz-adv-x="801" d="M197 342L147 393Q136 404 136 412Q136 426 157 447L308 598L157 750Q136 771 136 785Q136 793 148 805L198 856Q208 866 217 866Q231 866 252 846L404 694L555 845Q576 866 590 866Q598 866 609 855L660 805Q671
794 671 784Q671 770 651 750L500 598L651 447Q672 426 672 413Q672 404 661 393L610 342Q599 331 590 331Q575 331 555 351L404 503L252 351Q232 331 218 331Q208 331 197 342Z" />
<glyph unicode="&#xd8;" horiz-adv-x="924" d="M304 -205Q301 -205 299 -191T298 -172L323 2Q239 29 189 104T113 331T87 728Q87 906 102 1032T144 1242T219 1373T324 1440T462 1459Q495 1459 528 1454L551 1614Q556 1647 566 1647H641Q645 1647 647 1636T647
1614L621 1433Q735 1385 786 1225T837 728Q837 542 823 413T782 199T708 67T604 2T462 -16Q446 -16 416 -14L394 -173Q391 -206 379 -206L304 -205ZM354 225L505 1291Q483 1296 462 1296Q392 1296 355 1246T301 1076T285 728Q285 513 301 396T354 225ZM461 145Q531
145 568 192T622 364T639 728Q639 1079 586 1184L440 147Q454 145 461 145Z" />
<glyph unicode="&#xd9;" horiz-adv-x="953" d="M457 1576Q445 1576 438 1615L375 1956Q371 1980 371 1993Q371 2021 381 2021H463Q474 2021 479 2010T487 1966L509 1643Q510 1629 510 1608Q510 1576 495 1576H457ZM480 -15Q426 -15 387 -11T306 8T235 49T179 119T135
227T110 379T100 583V1391Q100 1420 106 1429T126 1438H273Q281 1438 286 1436T294 1422T298 1391V589Q298 471 305 391T325 262T361 188T411 154T479 145Q532 145 561 157T614 214T646 348T655 589V1391Q655 1421 661 1429T680 1438H828Q836 1438 840 1436T848
1422T852 1391V583Q852 467 843 377T817 224T774 117T718 48T648 8T569 -11T480 -15Z" />
<glyph unicode="&#xda;" horiz-adv-x="953" d="M457 1576Q442 1576 442 1608Q442 1615 444 1643L464 1966Q468 2021 490 2021H571Q581 2021 581 1993Q581 1980 577 1956L514 1615Q507 1576 495 1576H457ZM480 -15Q426 -15 387 -11T306 8T235 49T179 119T135 227T110
379T100 583V1391Q100 1420 106 1429T126 1438H273Q281 1438 286 1436T294 1422T298 1391V589Q298 471 305 391T325 262T361 188T411 154T479 145Q532 145 561 157T614 214T646 348T655 589V1391Q655 1421 661 1429T680 1438H828Q836 1438 840 1436T848 1422T852
1391V583Q852 467 843 377T817 224T774 117T718 48T648 8T569 -11T480 -15Z" />
<glyph unicode="&#xdb;" horiz-adv-x="953" d="M382 1576Q351 1576 351 1584Q335 1585 335 1611Q335 1622 339 1638L411 1837Q435 1912 463 1912H488Q516 1912 540 1837L612 1638Q616 1620 616 1607Q616 1585 601 1584Q601 1576 570 1576Q549 1576 533 1617L486
1735Q480 1752 475 1752T465 1735L418 1617Q400 1576 382 1576ZM480 -15Q426 -15 387 -11T306 8T235 49T179 119T135 227T110 379T100 583V1391Q100 1420 106 1429T126 1438H273Q281 1438 286 1436T294 1422T298 1391V589Q298 471 305 391T325 262T361 188T411
154T479 145Q532 145 561 157T614 214T646 348T655 589V1391Q655 1421 661 1429T680 1438H828Q836 1438 840 1436T848 1422T852 1391V583Q852 467 843 377T817 224T774 117T718 48T648 8T569 -11T480 -15Z" />
<glyph unicode="&#xdc;" horiz-adv-x="953" d="M333 1576Q306 1576 306 1633V1715Q306 1772 333 1772H393Q420 1772 420 1715V1633Q420 1576 393 1576H333ZM559 1576Q533 1576 533 1633V1715Q533 1772 559 1772H620Q646 1772 646 1715V1633Q646 1576 620 1576H559ZM480
-15Q426 -15 387 -11T306 8T235 49T179 119T135 227T110 379T100 583V1391Q100 1420 106 1429T126 1438H273Q281 1438 286 1436T294 1422T298 1391V589Q298 471 305 391T325 262T361 188T411 154T479 145Q532 145 561 157T614 214T646 348T655 589V1391Q655 1421
661 1429T680 1438H828Q836 1438 840 1436T848 1422T852 1391V583Q852 467 843 377T817 224T774 117T718 48T648 8T569 -11T480 -15Z" />
<glyph unicode="&#xdd;" horiz-adv-x="732" d="M348 1576Q333 1576 333 1608Q333 1615 335 1643L355 1966Q359 2021 381 2021H462Q472 2021 472 1993Q472 1980 468 1956L405 1615Q398 1576 386 1576H348ZM295 0Q282 0 276 10T270 51V478L39 1378Q34 1393 34 1407Q34
1438 50 1438H198Q226 1438 240 1385L381 820L519 1384Q525 1408 536 1423T559 1438H684Q700 1438 700 1406Q700 1393 696 1378L468 481V51Q468 0 443 0H295Z" />
<glyph unicode="&#xde;" horiz-adv-x="866" d="M141 0Q116 0 116 52V1385Q116 1437 141 1437H288Q313 1437 313 1385V1216H435Q471 1216 497 1215T556 1209T614 1195T666 1170T713 1132T752 1076T782 1000T800 900T807 774Q807 692 797 627T771 516T728 439T674
389T610 360T540 346T466 343H324Q313 343 313 324V52Q313 0 288 0H141ZM323 502H443Q496 502 524 509T574 545T603 627T610 773Q610 832 605 876T593 951T571 1001T544 1033T509 1049T470 1056T424 1057H323Q313 1057 313 1037V521Q313 502 323 502Z" />
<glyph unicode="&#xdf;" horiz-adv-x="913" d="M290 0H159Q145 0 139 8T132 44V1042Q132 1100 140 1152T173 1258T234 1350T333 1413T477 1438Q607 1438 684 1346T762 1061Q762 1020 761 996T755 939T739 885T710 841T663 802Q654 792 654 789T664 777Q733 748
772 654T812 434Q812 0 432 0V150Q532 150 584 223T637 435Q637 704 438 704V853Q525 853 562 903T599 1055Q599 1180 569 1231T467 1282Q432 1282 405 1273T362 1247T335 1212T319 1168T313 1124T311 1082Q311 1074 311 1062T311 1046V50Q311 32 308 20T300 4T290
0Z" />
<glyph unicode="&#xe0;" horiz-adv-x="724" d="M594 1396Q582 1396 575 1435L512 1776Q508 1800 508 1813Q508 1841 518 1841H600Q611 1841 616 1830T624 1786L646 1463Q647 1449 647 1428Q647 1396 632 1396H594ZM286 -12Q187 -12 133 52T78 238Q78 329 105 397T174
500T266 558T359 588T434 601T472 615V668Q472 775 449 828T363 882Q311 882 284 850T237 750Q228 722 213 724Q108 750 107 758Q101 761 101 781T105 818Q131 916 194 966T374 1017Q437 1017 483 997T565 929T617 802T635 605V50Q635 -1 614 -1H582Q564 -1 550
43Q548 53 531 108T511 174Q510 177 509 178T505 178T503 174Q476 82 426 35T286 -12ZM321 116Q391 116 433 208T476 428Q476 504 467 504Q449 504 437 498Q329 471 279 410T228 251Q228 116 321 116Z" />
<glyph unicode="&#xe1;" horiz-adv-x="724" d="M593 1396Q578 1396 578 1428Q578 1435 580 1463L600 1786Q604 1841 626 1841H707Q717 1841 717 1813Q717 1800 713 1776L650 1435Q643 1396 631 1396H593ZM286 -12Q187 -12 133 52T78 238Q78 329 105 397T174 500T266
558T359 588T434 601T472 615V668Q472 775 449 828T363 882Q311 882 284 850T237 750Q228 722 213 724Q108 750 107 758Q101 761 101 781T105 818Q131 916 194 966T374 1017Q437 1017 483 997T565 929T617 802T635 605V50Q635 -1 614 -1H582Q564 -1 550 43Q548
53 531 108T511 174Q510 177 509 178T505 178T503 174Q476 82 426 35T286 -12ZM321 116Q391 116 433 208T476 428Q476 504 467 504Q449 504 437 498Q329 471 279 410T228 251Q228 116 321 116Z" />
<glyph unicode="&#xe2;" horiz-adv-x="724" d="M263 1140Q232 1140 232 1148Q216 1149 216 1175Q216 1186 220 1202L292 1401Q316 1476 344 1476H369Q397 1476 421 1401L493 1202Q497 1184 497 1171Q497 1149 482 1148Q482 1140 451 1140Q430 1140 414 1181L367
1299Q361 1316 356 1316T346 1299L299 1181Q281 1140 263 1140ZM286 -12Q187 -12 133 52T78 238Q78 329 105 397T174 500T266 558T359 588T434 601T472 615V668Q472 775 449 828T363 882Q311 882 284 850T237 750Q228 722 213 724Q108 750 107 758Q101 761 101
781T105 818Q131 916 194 966T374 1017Q437 1017 483 997T565 929T617 802T635 605V50Q635 -1 614 -1H582Q564 -1 550 43Q548 53 531 108T511 174Q510 177 509 178T505 178T503 174Q476 82 426 35T286 -12ZM321 116Q391 116 433 208T476 428Q476 504 467 504Q449
504 437 498Q329 471 279 410T228 251Q228 116 321 116Z" />
<glyph unicode="&#xe3;" horiz-adv-x="724" d="M484 1221T465 1221T414 1201T341 1161T260 1140Q237 1140 219 1148T185 1173T162 1201T141 1233Q122 1260 122 1275T134 1301T160 1313Q175 1313 187 1302T206 1276T225 1251T250 1239Q273 1239 343 1279T456 1320Q482
1320 505 1304T540 1272T572 1226Q591 1197 591 1183Q591 1168 580 1158T555 1147Q532 1147 508 1184ZM286 -12Q187 -12 133 52T78 238Q78 329 105 397T174 500T266 558T359 588T434 601T472 615V668Q472 775 449 828T363 882Q311 882 284 850T237 750Q228 722
213 724Q108 750 107 758Q101 761 101 781T105 818Q131 916 194 966T374 1017Q437 1017 483 997T565 929T617 802T635 605V50Q635 -1 614 -1H582Q564 -1 550 43Q548 53 531 108T511 174Q510 177 509 178T505 178T503 174Q476 82 426 35T286 -12ZM321 116Q391 116
433 208T476 428Q476 504 467 504Q449 504 437 498Q329 471 279 410T228 251Q228 116 321 116Z" />
<glyph unicode="&#xe4;" horiz-adv-x="724" d="M214 1140Q187 1140 187 1197V1279Q187 1336 214 1336H274Q301 1336 301 1279V1197Q301 1140 274 1140H214ZM440 1140Q414 1140 414 1197V1279Q414 1336 440 1336H501Q527 1336 527 1279V1197Q527 1140 501 1140H440ZM286
-12Q187 -12 133 52T78 238Q78 329 105 397T174 500T266 558T359 588T434 601T472 615V668Q472 775 449 828T363 882Q311 882 284 850T237 750Q228 722 213 724Q108 750 107 758Q101 761 101 781T105 818Q131 916 194 966T374 1017Q437 1017 483 997T565 929T617
802T635 605V50Q635 -1 614 -1H582Q564 -1 550 43Q548 53 531 108T511 174Q510 177 509 178T505 178T503 174Q476 82 426 35T286 -12ZM321 116Q391 116 433 208T476 428Q476 504 467 504Q449 504 437 498Q329 471 279 410T228 251Q228 116 321 116Z" />
<glyph unicode="&#xe5;" horiz-adv-x="724" d="M358 1213Q406 1213 440 1243T474 1336Q474 1401 440 1429T358 1458Q308 1458 273 1430T239 1336Q238 1274 273 1244T358 1213ZM358 1140Q324 1140 290 1150T224 1181T171 1243T151 1336Q151 1391 170 1431T220 1492T286
1522T358 1532Q387 1532 414 1527T468 1507T516 1472T549 1415T562 1336Q562 1283 542 1243T490 1182T425 1150T358 1140ZM286 -12Q187 -12 133 52T78 238Q78 329 105 397T174 500T266 558T359 588T434 601T472 615V668Q472 775 449 828T363 882Q311 882 284 850T237
750Q228 722 213 724Q108 750 107 758Q101 761 101 781T105 818Q131 916 194 966T374 1017Q437 1017 483 997T565 929T617 802T635 605V50Q635 -1 614 -1H582Q564 -1 550 43Q548 53 531 108T511 174Q510 177 509 178T505 178T503 174Q476 82 426 35T286 -12ZM321
116Q391 116 433 208T476 428Q476 504 467 504Q449 504 437 498Q329 471 279 410T228 251Q228 116 321 116Z" />
<glyph unicode="&#xe6;" horiz-adv-x="1062" d="M970 242Q970 128 918 59T749 -11Q673 -11 617 49T534 223Q500 110 437 49T282 -12Q183 -12 131 51T78 238Q78 329 104 397T171 500T259 558T348 588T421 601T458 615V662Q458 716 454 752T440 820T409 867T356
882Q267 882 237 750Q229 722 213 724Q110 750 108 757Q93 765 105 818Q126 903 192 960T356 1017Q510 1017 555 855Q580 935 630 976T737 1018Q791 1018 832 995T906 920T957 774T978 550Q978 466 953 466H630Q622 466 622 441Q622 125 755 125Q782 125 801 137T831
163T848 204T856 245T861 288Q864 310 878 310H947Q970 310 970 258V242ZM312 111Q381 111 421 205T462 428Q462 504 453 504Q435 504 423 498Q226 442 226 250Q226 111 312 111ZM626 572H842Q845 572 845 597Q837 883 736 883Q689 883 658 817T622 622Q622 572
626 572Z" />
<glyph unicode="&#xe7;" horiz-adv-x="582" d="M337 -570Q266 -570 221 -526T176 -403Q176 -312 206 -312H257Q280 -312 280 -346Q280 -355 278 -372T276 -397Q276 -438 293 -464T343 -490T392 -457T409 -346Q409 -287 387 -235T336 -182H306Q294 -183 294 -172V-112Q294
-95 306 -95H370Q430 -95 469 -165T509 -324Q509 -450 468 -510T337 -570ZM395 -11Q359 -11 330 -7T267 10T208 46T157 108T116 202T91 334T81 509Q81 634 98 727T142 875T210 963T290 1007T377 1018Q438 1018 511 995Q515 994 519 989T523 980V874Q524 867 520
862T511 858Q450 876 419 876Q390 876 370 871T327 846T289 787T265 679T255 509Q255 405 264 333T286 221T322 162T366 137T419 132Q459 132 511 148Q515 147 519 140T524 127V28Q524 11 511 7Q456 -10 395 -11Z" />
<glyph unicode="&#xe8;" horiz-adv-x="695" d="M593 1396Q581 1396 574 1435L511 1776Q507 1800 507 1813Q507 1841 517 1841H599Q610 1841 615 1830T623 1786L645 1463Q646 1449 646 1428Q646 1396 631 1396H593ZM623 242Q623 131 563 60T385 -11Q338 -11 299
-1T218 43T147 130T100 280T81 504Q81 633 99 728T145 878T213 965T291 1008T373 1018Q631 1018 631 536Q631 466 606 466H258Q250 466 250 441Q251 289 286 207T390 125Q423 125 445 140T479 184T494 234T502 288Q505 310 519 310H600Q623 310 623 258V242ZM255
572H484Q486 572 486 597Q478 883 372 883Q323 883 290 820T251 622Q251 572 255 572Z" />
<glyph unicode="&#xe9;" horiz-adv-x="695" d="M593 1396Q578 1396 578 1428Q578 1435 580 1463L600 1786Q604 1841 626 1841H707Q717 1841 717 1813Q717 1800 713 1776L650 1435Q643 1396 631 1396H593ZM623 242Q623 131 563 60T385 -11Q338 -11 299 -1T218 43T147
130T100 280T81 504Q81 633 99 728T145 878T213 965T291 1008T373 1018Q631 1018 631 536Q631 466 606 466H258Q250 466 250 441Q251 289 286 207T390 125Q423 125 445 140T479 184T494 234T502 288Q505 310 519 310H600Q623 310 623 258V242ZM255 572H484Q486
572 486 597Q478 883 372 883Q323 883 290 820T251 622Q251 572 255 572Z" />
<glyph unicode="&#xea;" horiz-adv-x="695" d="M262 1140Q231 1140 231 1148Q215 1149 215 1175Q215 1186 219 1202L291 1401Q315 1476 343 1476H368Q396 1476 420 1401L492 1202Q496 1184 496 1171Q496 1149 481 1148Q481 1140 450 1140Q429 1140 413 1181L366
1299Q360 1316 355 1316T345 1299L298 1181Q280 1140 262 1140ZM623 242Q623 131 563 60T385 -11Q338 -11 299 -1T218 43T147 130T100 280T81 504Q81 633 99 728T145 878T213 965T291 1008T373 1018Q631 1018 631 536Q631 466 606 466H258Q250 466 250 441Q251
289 286 207T390 125Q423 125 445 140T479 184T494 234T502 288Q505 310 519 310H600Q623 310 623 258V242ZM255 572H484Q486 572 486 597Q478 883 372 883Q323 883 290 820T251 622Q251 572 255 572Z" />
<glyph unicode="&#xeb;" horiz-adv-x="695" d="M213 1140Q186 1140 186 1197V1279Q186 1336 213 1336H273Q300 1336 300 1279V1197Q300 1140 273 1140H213ZM439 1140Q413 1140 413 1197V1279Q413 1336 439 1336H500Q526 1336 526 1279V1197Q526 1140 500 1140H439ZM623
242Q623 131 563 60T385 -11Q338 -11 299 -1T218 43T147 130T100 280T81 504Q81 633 99 728T145 878T213 965T291 1008T373 1018Q631 1018 631 536Q631 466 606 466H258Q250 466 250 441Q251 289 286 207T390 125Q423 125 445 140T479 184T494 234T502 288Q505
310 519 310H600Q623 310 623 258V242ZM255 572H484Q486 572 486 597Q478 883 372 883Q323 883 290 820T251 622Q251 572 255 572Z" />
<glyph unicode="&#xec;" horiz-adv-x="363" d="M170 1140Q158 1140 151 1179L88 1520Q84 1544 84 1557Q84 1585 94 1585H176Q187 1585 192 1574T200 1530L222 1207Q223 1193 223 1172Q223 1140 208 1140H170ZM133 0Q108 0 108 67V940Q108 1006 133 1006H245Q269
1006 269 940V67Q269 0 245 0H133Z" />
<glyph unicode="&#xed;" horiz-adv-x="363" d="M169 1140Q154 1140 154 1172Q154 1179 156 1207L176 1530Q180 1585 202 1585H283Q293 1585 293 1557Q293 1544 289 1520L226 1179Q219 1140 207 1140H169ZM133 0Q108 0 108 67V940Q108 1006 133 1006H245Q269 1006
269 940V67Q269 0 245 0H133Z" />
<glyph unicode="&#xee;" horiz-adv-x="363" d="M95 1396Q64 1396 64 1404Q48 1405 48 1431Q48 1442 52 1458L124 1657Q148 1732 176 1732H201Q229 1732 253 1657L325 1458Q329 1440 329 1427Q329 1405 314 1404Q314 1396 283 1396Q262 1396 246 1437L199 1555Q193
1572 188 1572T178 1555L131 1437Q113 1396 95 1396ZM133 0Q108 0 108 67V940Q108 1006 133 1006H245Q269 1006 269 940V67Q269 0 245 0H133Z" />
<glyph unicode="&#xef;" horiz-adv-x="363" d="M46 1140Q19 1140 19 1197V1279Q19 1336 46 1336H106Q133 1336 133 1279V1197Q133 1140 106 1140H46ZM272 1140Q246 1140 246 1197V1279Q246 1336 272 1336H333Q359 1336 359 1279V1197Q359 1140 333 1140H272ZM133
0Q108 0 108 67V940Q108 1006 133 1006H245Q269 1006 269 940V67Q269 0 245 0H133Z" />
<glyph unicode="&#xf0;" horiz-adv-x="805" d="M397 -18Q327 -18 273 2T172 72T100 214T74 440Q74 653 152 773T378 894Q463 894 539 839Q529 965 436 1099L318 1018Q291 1001 266 1034L251 1050Q234 1081 261 1104L353 1164Q268 1220 160 1251Q142 1254 142 1282Q142
1288 147 1306T157 1325Q160 1364 180 1364H182Q355 1325 454 1255L576 1340Q585 1349 595 1349Q612 1349 628 1325L646 1305Q667 1278 636 1251L534 1185Q722 962 722 580Q722 354 689 224T586 38T397 -18ZM400 113Q437 113 464 129T514 184T548 297T560 480Q560
604 518 683T398 763Q241 763 241 456Q241 272 279 193T400 113Z" />
<glyph unicode="&#xf1;" horiz-adv-x="789" d="M528 1221T509 1221T458 1201T385 1161T304 1140Q281 1140 263 1148T229 1173T206 1201T185 1233Q166 1260 166 1275T178 1301T204 1313Q219 1313 231 1302T250 1276T269 1251T294 1239Q317 1239 387 1279T500 1320Q526
1320 549 1304T584 1272T616 1226Q635 1197 635 1183Q635 1168 624 1158T599 1147Q576 1147 552 1184ZM129 0Q117 0 111 9T104 49V946Q104 1006 128 1006H171Q185 1006 194 997T208 959L228 833Q230 822 235 822Q239 822 241 832Q258 890 284 929T343 986T403 1011T467
1018Q522 1018 562 998T633 931T681 797T697 585V49Q697 19 691 10T672 0H544Q531 0 525 9T519 49V607Q519 748 498 815T427 882Q365 882 324 802T283 600V49Q283 19 277 10T258 0H129Z" />
<glyph unicode="&#xf2;" horiz-adv-x="768" d="M621 1396Q609 1396 602 1435L539 1776Q535 1800 535 1813Q535 1841 545 1841H627Q638 1841 643 1830T651 1786L673 1463Q674 1449 674 1428Q674 1396 659 1396H621ZM353 125T385 125T438 138T477 190T504 307T513
506Q513 623 504 700T477 815T437 868T385 882T333 868T293 816T265 701T256 506Q256 386 264 308T291 191T331 139ZM418 -11T385 -11T327 -8T268 7T211 40T160 100T118 192T92 325T81 506T91 685T119 818T162 909T212 968T270 1000T328 1015T385 1018T441 1015T499
1001T556 969T607 910T649 818T676 686T687 506T677 326T650 192T609 100T559 40T501 7T443 -8Z" />
<glyph unicode="&#xf3;" horiz-adv-x="768" d="M365 1396Q350 1396 350 1428Q350 1435 352 1463L372 1786Q376 1841 398 1841H479Q489 1841 489 1813Q489 1800 485 1776L422 1435Q415 1396 403 1396H365ZM353 125T385 125T438 138T477 190T504 307T513 506Q513
623 504 700T477 815T437 868T385 882T333 868T293 816T265 701T256 506Q256 386 264 308T291 191T331 139ZM418 -11T385 -11T327 -8T268 7T211 40T160 100T118 192T92 325T81 506T91 685T119 818T162 909T212 968T270 1000T328 1015T385 1018T441 1015T499 1001T556
969T607 910T649 818T676 686T687 506T677 326T650 192T609 100T559 40T501 7T443 -8Z" />
<glyph unicode="&#xf4;" horiz-adv-x="768" d="M290 1140Q259 1140 259 1148Q243 1149 243 1175Q243 1186 247 1202L319 1401Q343 1476 371 1476H396Q424 1476 448 1401L520 1202Q524 1184 524 1171Q524 1149 509 1148Q509 1140 478 1140Q457 1140 441 1181L394
1299Q388 1316 383 1316T373 1299L326 1181Q308 1140 290 1140ZM353 125T385 125T438 138T477 190T504 307T513 506Q513 623 504 700T477 815T437 868T385 882T333 868T293 816T265 701T256 506Q256 386 264 308T291 191T331 139ZM418 -11T385 -11T327 -8T268 7T211
40T160 100T118 192T92 325T81 506T91 685T119 818T162 909T212 968T270 1000T328 1015T385 1018T441 1015T499 1001T556 969T607 910T649 818T676 686T687 506T677 326T650 192T609 100T559 40T501 7T443 -8Z" />
<glyph unicode="&#xf5;" horiz-adv-x="768" d="M511 1221T492 1221T441 1201T368 1161T287 1140Q264 1140 246 1148T212 1173T189 1201T168 1233Q149 1260 149 1275T161 1301T187 1313Q202 1313 214 1302T233 1276T252 1251T277 1239Q300 1239 370 1279T483 1320Q509
1320 532 1304T567 1272T599 1226Q618 1197 618 1183Q618 1168 607 1158T582 1147Q559 1147 535 1184ZM353 125T385 125T438 138T477 190T504 307T513 506Q513 623 504 700T477 815T437 868T385 882T333 868T293 816T265 701T256 506Q256 386 264 308T291 191T331
139ZM418 -11T385 -11T327 -8T268 7T211 40T160 100T118 192T92 325T81 506T91 685T119 818T162 909T212 968T270 1000T328 1015T385 1018T441 1015T499 1001T556 969T607 910T649 818T676 686T687 506T677 326T650 192T609 100T559 40T501 7T443 -8Z" />
<glyph unicode="&#xf6;" horiz-adv-x="768" d="M241 1140Q214 1140 214 1197V1279Q214 1336 241 1336H301Q328 1336 328 1279V1197Q328 1140 301 1140H241ZM467 1140Q441 1140 441 1197V1279Q441 1336 467 1336H528Q554 1336 554 1279V1197Q554 1140 528 1140H467ZM353
125T385 125T438 138T477 190T504 307T513 506Q513 623 504 700T477 815T437 868T385 882T333 868T293 816T265 701T256 506Q256 386 264 308T291 191T331 139ZM418 -11T385 -11T327 -8T268 7T211 40T160 100T118 192T92 325T81 506T91 685T119 818T162 909T212
968T270 1000T328 1015T385 1018T441 1015T499 1001T556 969T607 910T649 818T676 686T687 506T677 326T650 192T609 100T559 40T501 7T443 -8Z" />
<glyph unicode="&#xf7;" horiz-adv-x="867" d="M772 638Q772 612 714 612H151Q95 612 95 638V750Q95 774 151 774H714Q772 774 772 750V638ZM378 941Q353 941 353 995V1124Q353 1177 378 1177H497Q522 1177 522 1124V995Q522 941 497 941H378ZM378 195Q353 195
353 249V378Q353 431 378 431H497Q522 431 522 378V249Q522 195 497 195H378Z" />
<glyph unicode="&#xf8;" horiz-adv-x="768" d="M177 -84L132 -68Q131 -68 131 -65Q131 -60 135 -46L182 69Q171 82 161 98T142 133T124 175T110 224T98 281T89 347T83 422T81 506Q81 606 91 685T119 818T162 909T212 968T270 1000T328 1015T385 1018Q490 1018
550 973L590 1071Q600 1090 604 1090H605L650 1075Q652 1075 652 1070Q652 1063 647 1053L596 927Q624 889 643 836T675 699T687 506Q687 406 677 326T650 192T609 100T559 40T501 7T443 -8T385 -11Q287 -11 229 27L191 -65Q185 -84 178 -84H177ZM504 701Q504 701
294 186Q309 152 331 139T385 125Q417 125 438 138T477 190T504 307T513 506Q513 566 511 614T504 701ZM481 804Q465 848 442 865T385 882Q354 882 333 868T293 816T265 701T256 506Q256 366 269 282L481 804Z" />
<glyph unicode="&#xf9;" horiz-adv-x="755" d="M610 1396Q598 1396 591 1435L528 1776Q524 1800 524 1813Q524 1841 534 1841H616Q627 1841 632 1830T640 1786L662 1463Q663 1449 663 1428Q663 1396 648 1396H610ZM326 -11Q285 -11 253 -2T189 33T137 101T104
211T91 372V957Q91 987 97 996T117 1006H235Q247 1006 253 997T260 957V345Q260 226 285 176T362 125Q420 125 456 204T492 390V957Q492 987 498 996T518 1006H630Q643 1006 649 997T656 957V61Q656 0 631 0H605Q591 0 583 9T569 48L546 190Q543 203 539 203T532
191Q507 89 450 39T326 -11Z" />
<glyph unicode="&#xfa;" horiz-adv-x="755" d="M611 1396Q596 1396 596 1428Q596 1435 598 1463L618 1786Q622 1841 644 1841H725Q735 1841 735 1813Q735 1800 731 1776L668 1435Q661 1396 649 1396H611ZM326 -11Q285 -11 253 -2T189 33T137 101T104 211T91 372V957Q91
987 97 996T117 1006H235Q247 1006 253 997T260 957V345Q260 226 285 176T362 125Q420 125 456 204T492 390V957Q492 987 498 996T518 1006H630Q643 1006 649 997T656 957V61Q656 0 631 0H605Q591 0 583 9T569 48L546 190Q543 203 539 203T532 191Q507 89 450 39T326
-11Z" />
<glyph unicode="&#xfb;" horiz-adv-x="755" d="M280 1140Q249 1140 249 1148Q233 1149 233 1175Q233 1186 237 1202L309 1401Q333 1476 361 1476H386Q414 1476 438 1401L510 1202Q514 1184 514 1171Q514 1149 499 1148Q499 1140 468 1140Q447 1140 431 1181L384
1299Q378 1316 373 1316T363 1299L316 1181Q298 1140 280 1140ZM326 -11Q285 -11 253 -2T189 33T137 101T104 211T91 372V957Q91 987 97 996T117 1006H235Q247 1006 253 997T260 957V345Q260 226 285 176T362 125Q420 125 456 204T492 390V957Q492 987 498 996T518
1006H630Q643 1006 649 997T656 957V61Q656 0 631 0H605Q591 0 583 9T569 48L546 190Q543 203 539 203T532 191Q507 89 450 39T326 -11Z" />
<glyph unicode="&#xfc;" horiz-adv-x="755" d="M230 1140Q203 1140 203 1197V1279Q203 1336 230 1336H290Q317 1336 317 1279V1197Q317 1140 290 1140H230ZM456 1140Q430 1140 430 1197V1279Q430 1336 456 1336H517Q543 1336 543 1279V1197Q543 1140 517 1140H456ZM326
-11Q285 -11 253 -2T189 33T137 101T104 211T91 372V957Q91 987 97 996T117 1006H235Q247 1006 253 997T260 957V345Q260 226 285 176T362 125Q420 125 456 204T492 390V957Q492 987 498 996T518 1006H630Q643 1006 649 997T656 957V61Q656 0 631 0H605Q591 0 583
9T569 48L546 190Q543 203 539 203T532 191Q507 89 450 39T326 -11Z" />
<glyph unicode="&#xfd;" horiz-adv-x="662" d="M573 1396Q558 1396 558 1428Q558 1435 560 1463L580 1786Q584 1841 606 1841H687Q697 1841 697 1813Q697 1800 693 1776L630 1435Q623 1396 611 1396H573ZM223 -122Q246 -122 263 -85T280 22Q280 38 260 133L64
948Q62 962 62 970Q62 1006 77 1006H198Q212 1006 221 997T235 958L365 270Q369 258 370 258Q374 258 374 269L476 955Q480 985 488 995T510 1006H594Q611 1006 611 967Q611 958 609 944L431 17Q410 -98 385 -159T329 -242T247 -265H237Q156 -265 127 -222Q119
-213 119 -176Q119 -102 143 -102Q145 -102 179 -112T223 -122Z" />
<glyph unicode="&#xfe;" horiz-adv-x="765" d="M128 -374Q118 -374 111 -353T104 -300V1355Q104 1387 111 1407T129 1428H240Q251 1428 258 1408T265 1355V884Q265 869 270 869T277 876Q305 947 349 982T446 1018Q493 1018 534 992T610 908T665 747T685 500Q685
365 664 263T605 103T525 17T433 -11Q384 -11 339 23T265 129V-300Q265 -332 258 -353T240 -374H128ZM399 125Q518 125 518 511Q518 689 486 785T398 882Q340 882 303 780T265 511T302 235T399 125Z" />
<glyph unicode="&#xff;" horiz-adv-x="662" d="M194 1140Q167 1140 167 1197V1279Q167 1336 194 1336H254Q281 1336 281 1279V1197Q281 1140 254 1140H194ZM420 1140Q394 1140 394 1197V1279Q394 1336 420 1336H481Q507 1336 507 1279V1197Q507 1140 481 1140H420ZM223
-122Q246 -122 263 -85T280 22Q280 38 260 133L64 948Q62 962 62 970Q62 1006 77 1006H198Q212 1006 221 997T235 958L365 270Q369 258 370 258Q374 258 374 269L476 955Q480 985 488 995T510 1006H594Q611 1006 611 967Q611 958 609 944L431 17Q410 -98 385 -159T329
-242T247 -265H237Q156 -265 127 -222Q119 -213 119 -176Q119 -102 143 -102Q145 -102 179 -112T223 -122Z" />
<glyph unicode="&#x2013;" horiz-adv-x="1024" d="M115 532Q102 532 96 542T89 583V634Q89 664 95 674T115 684H905Q930 684 930 634V583Q930 532 905 532H115Z" />
<glyph unicode="&#x2014;" horiz-adv-x="2048" d="M118 532Q105 532 99 542T92 583V634Q92 664 98 674T118 684H1928Q1953 684 1953 634V583Q1953 532 1928 532H118Z" />
<glyph unicode="&#x2018;" horiz-adv-x="341" d="M114 858Q88 858 88 922V1116Q88 1274 135 1372T230 1493Q232 1494 235 1494Q255 1494 255 1448V1431Q255 1420 255 1413T254 1400T253 1390T251 1383T248 1376T244 1371T239 1364T232 1356Q210 1329 198 1282T185
1193Q185 1166 191 1166H234Q255 1166 255 1109V917Q255 858 234 858H114Z" />
<glyph unicode="&#x2019;" horiz-adv-x="336" d="M114 851Q112 850 109 850Q89 850 89 896V913Q89 925 89 933T90 947T92 957T95 965T99 971T105 979T112 988Q134 1015 146 1062T159 1151Q159 1178 153 1178H110Q89 1178 89 1235V1427Q89 1486 110 1486H230Q256
1486 256 1422V1228Q256 1070 209 972T114 851Z" />
<glyph unicode="&#x201a;" horiz-adv-x="292" d="M130 -457Q110 -457 107 -387L69 142Q69 142 69 154Q69 180 76 198T94 216H192Q202 216 209 197T216 151V142L179 -387Q174 -457 156 -457H130Z" />
<glyph unicode="&#x201c;" horiz-adv-x="611" d="M114 858Q88 858 88 922V1116Q88 1274 135 1372T230 1493Q232 1494 235 1494Q255 1494 255 1448V1431Q255 1420 255 1413T254 1400T253 1390T251 1383T248 1376T244 1371T239 1364T232 1356Q210 1329 198 1282T185
1193Q185 1166 191 1166H234Q255 1166 255 1109V917Q255 858 234 858H114ZM377 858Q351 858 351 922V1116Q351 1274 398 1372T493 1493Q495 1494 498 1494Q518 1494 518 1448V1431Q518 1420 518 1413T517 1400T516 1390T514 1383T511 1376T507 1371T502 1364T495
1356Q473 1329 461 1282T448 1193Q448 1166 454 1166H497Q518 1166 518 1109V917Q518 858 497 858H377Z" />
<glyph unicode="&#x201d;" horiz-adv-x="608" d="M114 851Q112 850 109 850Q89 850 89 896V913Q89 925 89 933T90 947T92 957T95 965T99 971T105 979T112 988Q134 1015 146 1062T159 1151Q159 1178 153 1178H110Q89 1178 89 1235V1427Q89 1486 110 1486H230Q256
1486 256 1422V1228Q256 1070 209 972T114 851ZM377 851Q375 850 372 850Q353 850 353 896V913Q353 924 353 931T354 944T355 954T357 961T360 968T364 973T369 980T376 988Q397 1015 410 1063T423 1151Q423 1178 417 1178H374Q353 1178 353 1235V1427Q353 1486
374 1486H493Q520 1486 520 1422V1228Q520 1144 505 1073T467 958T420 888T377 851Z" />
<glyph unicode="&#x201e;" horiz-adv-x="533" d="M130 -457Q110 -457 107 -387L69 142Q69 142 69 154Q69 180 76 198T94 216H192Q202 216 209 197T216 151V142L179 -387Q174 -457 156 -457H130ZM383 -457Q364 -457 360 -387L321 142V151Q321 178 328 197T346 216H445Q455
216 461 198T468 154V142L431 -387Q428 -457 409 -457H383Z" />
<glyph unicode="&#x2022;" horiz-adv-x="1193" d="M672 616T596 616T458 637T356 694T288 777T248 874T236 976Q236 1045 256 1107T317 1223T430 1307T596 1339T762 1308T875 1223T936 1108T956 976Q956 924 944 875T905 778T837 695T734 638Z" />
<glyph unicode="&#x2039;" horiz-adv-x="524" d="M396 218Q395 218 376 237T330 284T276 340T230 388L210 408Q193 425 146 490T98 575Q90 584 90 702Q90 781 105 795Q105 804 294 993L305 1004Q316 1016 330 1031T359 1061T384 1087T395 1098H397Q407 1098 410
1071Q413 1071 413 964Q413 910 398 888Q398 881 370 853T310 795T277 764Q275 763 233 715T191 664Q189 656 193 650Q193 649 210 633T249 597T288 560L306 543Q405 414 405 390Q413 382 413 265Q413 252 410 239T404 226Q403 217 398 217Q397 217 396 218Z" />
<glyph unicode="&#x203a;" horiz-adv-x="524" d="M103 215Q90 215 90 255V358Q90 423 114 450L309 632Q313 636 313 647T309 662L113 854Q90 883 90 948V1057Q90 1101 103 1101Q106 1101 113 1094L390 807Q413 783 413 712V587Q413 515 390 493L113 222Q104 215 103 215Z" />
</font>
</defs>
</svg>
