<?xml version="1.0" standalone="no"?>
<!DOCTYPE svg PUBLIC "-//W3C//DTD SVG 1.1//EN" "http://www.w3.org/Graphics/SVG/1.1/DTD/svg11.dtd">
<svg xmlns="http://www.w3.org/2000/svg">
<defs >
<font id="Sarina" horiz-adv-x="1742" ><font-face
    font-family="Sarina"
    units-per-em="2048"
    panose-1="2 0 0 0 0 0 0 0 0 0"
    ascent="1916"
    descent="-644"
    alphabetic="0" />
<glyph unicode=" " glyph-name="space" horiz-adv-x="851" />
<glyph unicode="!" glyph-name="exclam" horiz-adv-x="1359" d="M382 420Q368 418 359 419T342 424Q323 432 323 449T329 481L569 1016L630 1142Q694 1269 712 1292T741 1326T766 1346Q798 1365 832 1365T908 1357T990 1334Q1086 1298 1086 1258Q1086 1192 942
927Q791 652 682 554Q563 447 382 420ZM170 119T177 137T199 178T239 228T300 276Q383 327 488 327Q608 327 653 276Q670 256 670 219T639 138T559 60Q449 -16 332 -16Q234 -16 193 40Q170 70 170 94Z" />
<glyph unicode="&quot;" glyph-name="quotedbl" horiz-adv-x="1698" d="M1217 768T1205 739T1171 693T1114 676T1050 709Q1036 735 1036 811T1039 942T1047 1055T1061 1168T1081 1272Q1105 1378 1131 1407Q1178 1461 1260 1461Q1344 1461 1390 1404Q1406 1385
1412 1360T1409 1298T1381 1215Q1381 1215 1341 1116Q1319 1063 1300 1008L1232 810Q1217 768 1205 739ZM714 768T702 739T668 693T611 676T547 709Q533 735 533 811T536 942T544 1055T558 1168T578 1272Q602 1378 628 1407Q675 1461 757 1461Q841 1461 888 1404Q903
1385 909 1360T906 1298T878 1215L838 1116Q816 1063 796 1008L728 810Q714 768 702 739Z" />
<glyph unicode="#" glyph-name="numbersign" horiz-adv-x="1703" d="M386 640Q326 640 326 679Q326 704 348 723Q385 755 430 755H652L761 950L800 1016Q817 1043 827 1054T858 1066T903 1047T948 1002Q994 939 975 907T928 836L866 755H1098L1207 950L1246 1016Q1263
1043 1273 1054T1304 1066T1349 1047T1394 1002Q1440 939 1421 907T1374 836L1312 755H1419Q1458 755 1474 741T1491 711T1486 683T1470 661Q1448 639 1416 639H1226Q1187 588 1167 556L1113 470H1256Q1295 470 1311 456T1328 426T1323 398T1307 376Q1285 354 1253
354H1044Q900 101 880 58T845 6T815 -3T787 3T765 20Q740 53 767 114L886 354L599 355Q485 155 460 108L422 33Q405 -3 368 -3Q337 -3 324 14Q298 47 308 81Q310 89 321 114L441 355H223Q163 355 163 394Q163 419 184 438Q222 470 267 470H500L590 640H386ZM946
470L1036 639L780 640Q744 593 722 558L667 470H946Z" />
<glyph unicode="$" glyph-name="dollar" horiz-adv-x="2044" d="M1515 1331Q1629 1338 1700 1338T1797 1331T1843 1310Q1886 1282 1886 1240T1872 1162T1833 1098T1777 1048T1712 1012Q1644 984 1599 984T1528 990T1482 1013Q1442 1044 1424 1123L1267 773L1404
739Q1644 677 1761 597Q1805 565 1831 511T1858 412Q1858 331 1822 284T1727 198T1593 127T1431 70T1252 24Q1079 -12 893 -30L846 -126Q827 -162 818 -174T788 -197T748 -212Q707 -223 685 -218Q652 -210 652 -175Q652 -159 657 -147L702 -43Q689 -44 677 -44H654Q366
-44 197 27Q139 66 100 236Q79 321 78 364T82 414T117 414T190 390L300 349Q561 254 829 252L930 487L660 545Q522 576 398 612Q266 656 231 794Q221 833 221 875Q221 972 273 1009Q611 1239 1281 1312L1323 1409Q1341 1451 1346 1467T1371 1496T1416 1520Q1470
1543 1511 1543T1571 1534T1585 1507T1562 1444L1515 1331ZM878 962Q849 936 849 917T866 886T912 862Q963 843 1071 818L1127 950Q1135 976 1152 1016L1188 1102Q968 1043 878 962ZM1030 258Q1300 273 1406 315Q1444 330 1444 349T1376 387T1248 420L1118 449L1030
258Z" />
<glyph unicode="%" glyph-name="percent" horiz-adv-x="1869" d="M668 1184Q686 1190 709 1190T768 1182T836 1156Q919 1112 919 1035T877 893T763 778Q611 675 411 675Q231 675 199 788Q189 824 189 862T213 940T277 1019T363 1096T456 1162Q556 1225 600 1225Q612
1225 637 1207T668 1184ZM368 -32T349 -14T330 29T363 98L659 470L1044 932Q1246 1169 1269 1187T1314 1197T1356 1164Q1402 1109 1402 1053Q1402 1030 1389 1014T1339 960Q919 540 884 503Q549 127 505 75T446 2Q421 -32 395 -32ZM369 827T384 816T448 805T553
826T654 880Q752 952 752 1033Q752 1065 722 1080Q704 1089 686 1089Q648 1089 621 1084Q464 1004 393 910Q369 879 369 853ZM1365 583Q1383 589 1406 589T1465 581T1534 555Q1616 511 1616 434T1574 292T1460 178Q1308 74 1108 74Q928 74 896 188Q886 223 886
261T910 339T974 418T1060 495T1154 562Q1253 624 1297 624Q1309 624 1334 606T1365 583ZM1090 310Q1066 278 1066 252T1081 215T1145 204T1250 225T1352 279Q1449 351 1449 432Q1449 464 1419 479Q1401 488 1383 488Q1346 488 1318 483Q1161 403 1090 310Z" />
<glyph unicode="&amp;" glyph-name="ampersand" horiz-adv-x="2382" d="M1195 -5Q976 -48 793 -48T497 -21T306 54Q149 150 149 301Q149 586 769 796Q789 1072 990 1237Q1177 1390 1415 1390Q1584 1390 1683 1328Q1774 1270 1774 1197T1726 1059T1595 932Q1444
819 1181 709Q1268 468 1484 300Q1674 363 1759 486Q1759 487 1759 487T1760 490T1742 497L1696 506Q1571 531 1530 576Q1512 597 1512 628T1534 686T1592 732T1673 766T1766 789Q1855 806 1917 806T2029 800T2120 779Q2212 745 2212 672Q2212 581 2079 440Q1933
287 1699 168Q1931 58 2165 58Q2217 58 2263 66T2317 75Q2349 75 2349 41Q2349 22 2339 15T2307 -13T2249 -61T2164 -118T2056 -174Q1917 -234 1783 -234Q1469 -234 1195 -5ZM1429 1146Q1429 1223 1335 1223Q1194 1223 1143 1104Q1127 1067 1127 1030Q1127 982
1132 919Q1338 1004 1406 1090Q1429 1119 1429 1146ZM804 545Q640 456 640 380Q640 331 698 286Q772 229 896 229H936Q955 229 974 230Q859 385 804 545Z" />
<glyph unicode="&apos;" glyph-name="quotesingle" horiz-adv-x="1021" d="M677 768T665 739T631 693T574 676T510 709Q496 735 496 811T499 942T507 1055T521 1168T541 1272Q565 1378 591 1407Q638 1461 720 1461Q804 1461 850 1404Q866 1385 872 1360T869 1298T841
1215Q841 1215 801 1116Q779 1063 760 1008L692 810Q677 768 665 739Z" />
<glyph unicode="(" glyph-name="parenleft" horiz-adv-x="1525" d="M342 125T322 189T301 325T331 477T410 643T523 816T652 985Q815 1178 879 1247L975 1346Q1006 1377 1010 1382Q1022 1396 1044 1396T1086 1381T1105 1342T1092 1302T1051 1248Q690 733 606 402Q587
324 587 275T591 187T607 106Q634 9 701 -74Q732 -110 732 -139Q732 -190 656 -190Q618 -190 608 -179T572 -149T513 -99T442 -25T373 71Z" />
<glyph unicode=")" glyph-name="parenright" horiz-adv-x="1525" d="M467 -175T448 -160T429 -121T442 -81T483 -27Q844 488 928 820Q947 897 947 946T943 1034T927 1116Q900 1212 833 1295Q802 1331 802 1360Q802 1411 878 1411Q916 1411 930 1397Q937 1390 962
1371T1021 1320T1092 1246T1161 1150Q1233 1025 1233 891Q1233 669 882 236Q719 43 655 -26L527 -158Q512 -175 490 -175Z" />
<glyph unicode="*" glyph-name="asterisk" horiz-adv-x="1531" d="M1156 1063Q1211 1063 1211 1023Q1211 1007 1198 981Q1186 969 1122 945Q992 895 943 866Q948 840 966 804L1004 731Q1053 641 1048 625T1025 592T984 561Q934 529 913 529Q896 536 852 578L723
702Q690 688 645 649L523 536Q467 486 452 485T426 487T408 498Q397 509 394 529Q397 550 449 623Q569 794 592 829Q575 846 541 874L472 930Q386 1000 380 1017T384 1054T410 1090Q435 1119 464 1140Q475 1143 502 1136L566 1118Q667 1088 725 1081Q746 1148 754
1174L790 1278Q808 1327 820 1339Q833 1349 846 1349T869 1345T889 1334Q903 1323 913 1310Q924 1292 924 1234L918 1038Q939 1038 970 1042L1034 1050Q1126 1063 1156 1063Z" />
<glyph unicode="+" glyph-name="plus" horiz-adv-x="2209" d="M542 676H1011V1170H1164V676H1633V523H1164V20H1011V523H542V676Z" />
<glyph unicode="," glyph-name="comma" horiz-adv-x="1021" d="M548 262Q567 236 567 186T541 82T474 -19T379 -103T272 -169Q88 -266 9 -230Q-2 -225 -9 -218L-28 -199Q-39 -187 -39 -176Q-39 -155 -14 -143L36 -120Q154 -64 206 -12Q116 -2 80 49Q59 77 59 117Q59
197 149 262T368 328T548 262Z" />
<glyph unicode="-" glyph-name="hyphen" horiz-adv-x="1694" d="M437 300Q402 300 402 341Q402 380 424 420T467 476T510 506Q560 532 598 532H1177Q1193 532 1207 521T1221 489Q1221 449 1195 405T1132 330T1057 299L437 300Z" />
<glyph unicode="." glyph-name="period" horiz-adv-x="1021" d="M610 268Q630 241 630 195T601 107T526 36Q432 -25 313 -25Q198 -25 150 34Q124 67 124 112Q124 201 215 270T432 339T610 268Z" />
<glyph unicode="/" glyph-name="slash" horiz-adv-x="1531" d="M97 -237T78 -219T59 -182T65 -149T106 -90L324 182L974 966L1207 1236Q1246 1280 1261 1292T1299 1296T1342 1262Q1387 1208 1387 1152Q1387 1129 1376 1116T1336 1072L799 542Q765 507 746 486L358
26Q199 -173 179 -198Q150 -237 124 -237Z" />
<glyph unicode="0" glyph-name="zero" horiz-adv-x="2039" d="M1360 1158Q1398 1173 1446 1173T1541 1166T1637 1142T1736 1100T1824 1037Q1913 954 1913 840Q1913 718 1849 595T1693 377T1481 207T1222 76Q933 -37 628 -37Q246 -37 172 178Q149 245 149 296Q149
356 154 413T200 539T305 677T450 818T620 953T798 1072T966 1168Q1135 1255 1208 1255Q1233 1255 1291 1212T1360 1158ZM587 452Q554 402 551 366T553 307T576 272Q610 246 703 246T894 270T1082 336T1251 433T1390 552Q1516 688 1530 815Q1540 909 1436 940Q1407
948 1384 948T1341 947T1302 943Q1263 939 1235 932Q997 818 793 659Q652 549 587 452Z" />
<glyph unicode="1" glyph-name="one" horiz-adv-x="1022" d="M194 712Q146 712 146 775Q146 859 227 940Q262 998 512 1120L611 1167Q778 1242 825 1242Q834 1242 851 1242T888 1239Q937 1229 958 1202T983 1159T980 1114T952 1026T906 898Q829 707 788 612Q600
188 561 115T499 15T453 -26Q418 -47 386 -47T318 -46T246 -40Q137 -28 103 4Q95 11 95 27Q95 59 114 102L455 842L294 748Q230 712 194 712Z" />
<glyph unicode="2" glyph-name="two" horiz-adv-x="1700" d="M564 -23Q367 -23 111 -7Q41 -1 13 39T-9 136T24 230T104 288T244 348Q480 456 596 514Q964 700 1096 787Q1169 835 1173 896Q1179 947 1140 990Q1103 1031 1063 1031T987 1024T912 1006Q835 982 764
948Q730 870 630 806T420 728Q355 720 302 752T226 818T207 898T266 984T410 1064T617 1137T864 1196Q1140 1251 1387 1251Q1514 1251 1589 1167Q1657 1091 1657 978Q1657 827 1543 735Q1386 613 1082 489L916 424Q727 354 527 296Q546 298 603 301T738 309T906
321T1083 340Q1285 368 1356 403Q1408 430 1438 430T1483 423T1507 405Q1538 368 1514 334Q1507 325 1488 299Q1339 96 1304 60T1257 20Q1114 -23 564 -23Z" />
<glyph unicode="3" glyph-name="three" horiz-adv-x="1703" d="M-61 85Q-84 138 -84 184T-61 254T-7 268Q2 264 51 255Q251 218 313 218T466 229T638 260T788 304T904 356Q1006 413 992 458Q971 512 930 531T834 550Q714 550 639 525Q636 524 627 524T607 531T587
550Q558 592 583 638Q591 652 608 659L823 750Q1029 841 1079 882T1127 942T1117 971T1100 988Q1079 1001 1041 999T955 993T849 980T726 958T602 928Q465 887 414 838Q394 818 367 818T321 833T304 868T318 905T345 947L408 1060Q468 1167 486 1177T539 1195T619
1211T719 1228T826 1242Q951 1256 1019 1256T1160 1253T1296 1240Q1435 1220 1491 1186Q1585 1129 1575 1013Q1566 944 1531 907T1452 841T1351 788Q1256 744 1094 691Q1367 691 1432 574Q1451 540 1446 491Q1437 399 1304 290Q1119 138 796 18Q477 -100 253 -100Q108
-100 -4 13Q-37 47 -61 85Z" />
<glyph unicode="4" glyph-name="four" horiz-adv-x="2039" d="M810 209Q524 200 416 200Q242 200 218 203T167 232T117 292Q58 380 58 446Q58 487 82 507Q615 981 1448 1247Q1505 1268 1521 1268T1553 1257T1586 1232Q1619 1204 1642 1167Q1754 1165 1807 1100Q1835
1072 1768 1005Q1573 790 1420 511L1681 519Q1706 519 1716 504T1726 478T1719 458T1692 420L1652 356Q1595 269 1571 255Q1552 244 1279 230Q1188 42 1134 -17Q1083 -74 968 -92Q933 -98 900 -98Q751 -98 751 12Q751 87 810 209ZM625 486L861 498H911Q942 498
981 499Q1112 687 1170 765L1345 990Q1030 843 768 646Q649 556 590 487Q598 486 607 486T625 486Z" />
<glyph unicode="5" glyph-name="five" horiz-adv-x="1700" d="M1285 980L1088 981Q852 981 817 967L619 771Q784 824 1129 843Q1184 846 1233 846T1334 833T1426 786Q1515 715 1515 566Q1515 540 1511 502T1470 406T1368 287T1210 168T1002 64Q746 -36 455 -36Q275
-36 172 48Q84 119 84 209Q84 254 111 285T180 317Q264 317 358 247Q400 224 461 224T588 240T720 282T847 341T957 408Q1108 513 1055 576Q1028 608 980 613T904 618L851 617Q736 617 414 540Q380 532 366 526Q337 513 293 513Q223 513 198 552Q190 565 190 582Q190
627 227 677Q310 787 356 842L627 1157Q646 1179 651 1187T670 1206T704 1224Q745 1239 794 1239H1661Q1684 1239 1692 1223T1686 1189Q1596 1073 1534 1039Q1428 980 1285 980Z" />
<glyph unicode="6" glyph-name="six" horiz-adv-x="1702" d="M673 163Q755 163 924 262Q1039 328 1096 410Q1126 453 1130 490T1119 542T1080 566Q1045 580 983 580T868 556T790 531T747 546T728 582Q728 624 778 659T890 729T1024 790Q1181 848 1326 848Q1432
848 1498 764Q1563 682 1563 569Q1563 440 1482 349T1291 183T1050 52Q771 -69 506 -69Q173 -69 95 119Q71 177 71 223T76 321T122 460T225 633T370 804T545 965T737 1105T935 1217Q1144 1317 1296 1317Q1347 1317 1374 1294Q1437 1239 1407 1205Q1394 1190 1374
1187T1336 1178T1272 1150T1170 1092T1048 1011T917 909T790 790T679 658Q554 484 554 324T673 163Z" />
<glyph unicode="7" glyph-name="seven" horiz-adv-x="1530" d="M261 803Q211 803 211 847Q211 884 256 935T336 1022L447 1129Q502 1177 548 1189T633 1208T717 1219T812 1228T908 1234Q989 1239 1053 1239H1096Q1393 1239 1478 1212Q1547 1189 1574 1112Q1599
1040 1568 1003Q1520 947 1458 926T1342 868T1233 779T1120 665T1010 536T910 404T827 280Q751 157 746 108T712 29T640 -20T547 -48T448 -62Q388 -67 337 -67T268 -64T234 -52Q165 -11 242 149Q350 372 724 668L1085 945Q1043 958 955 958T800 950T668 928T542
898T432 866Q336 836 317 823Q287 803 261 803Z" />
<glyph unicode="8" glyph-name="eight" horiz-adv-x="1702" d="M1372 1267Q1425 1267 1429 1192Q1429 1182 1426 1169Q1569 1165 1634 1105Q1656 1084 1659 1055T1662 988Q1662 894 1618 856Q1568 799 1328 696L1196 639L1372 512Q1463 443 1463 340Q1463 287
1440 241T1370 155T1236 76T1042 10Q832 -43 650 -43T377 -34T228 -12Q136 10 87 51Q34 97 34 201Q34 279 69 343Q118 415 420 546L584 615L488 691Q446 726 436 746T425 810T448 912T524 1019Q663 1166 1034 1236Q1201 1267 1372 1267ZM1007 791Q1238 893 1265
920Q1289 942 1289 974T1285 1029T1277 1071Q908 1026 899 952Q894 895 1007 791ZM446 261Q445 241 464 223T516 192Q583 166 641 166T740 171T818 190Q905 222 910 282Q913 337 777 459L656 405Q450 310 446 261Z" />
<glyph unicode="9" glyph-name="nine" horiz-adv-x="1701" d="M1062 1028Q980 1028 810 930Q697 864 638 781Q608 738 604 701T616 649T654 624Q690 611 751 611T866 635T945 660T988 644T1007 608Q1007 567 957 532T844 462T711 401Q555 343 409 343Q303 343
236 428Q172 509 172 622Q172 751 253 842T444 1008T684 1139Q963 1260 1228 1260Q1562 1260 1640 1072Q1664 1014 1664 968T1659 869T1612 728T1504 551T1353 373T1172 204T972 56T768 -63Q553 -170 402 -170Q353 -170 332 -136Q288 -63 394 7Q410 18 428 27T491
61T590 121T709 201T834 299T955 412T1061 538Q1181 707 1181 867T1062 1028Z" />
<glyph unicode=":" glyph-name="colon" horiz-adv-x="1187" d="M812 739Q831 712 831 666T802 578T727 506Q633 446 514 446Q399 446 352 505Q325 538 325 583Q325 672 416 741T633 810T812 739ZM666 268Q685 241 685 195T656 107T581 36Q487 -25 368 -25Q253
-25 206 34Q179 67 179 112Q179 201 270 270T487 339T666 268Z" />
<glyph unicode=";" glyph-name="semicolon" horiz-adv-x="1187" d="M808 739Q828 712 828 666T799 578T724 506Q630 446 511 446Q396 446 348 505Q322 538 322 583Q322 672 413 741T630 810T808 739ZM24 -199Q13 -187 13 -171T38 -143L88 -120Q206 -64 258 -12Q168
-2 132 49Q111 77 111 116T136 194T202 263Q292 328 410 328Q549 328 600 262Q619 236 619 186T593 82T526 -19T431 -103T324 -169Q140 -266 61 -230Q50 -225 43 -218L24 -199Z" />
<glyph unicode="&lt;" glyph-name="less" horiz-adv-x="2209" d="M417 620L1430 1080L1492 945L699 585L606 556L702 526L1492 168L1430 33L417 493V620Z" />
<glyph unicode="=" glyph-name="equal" horiz-adv-x="2038" d="M576 841H1425V688H576V841ZM576 323H1425V170H576V323Z" />
<glyph unicode="&gt;" glyph-name="greater" horiz-adv-x="2209" d="M176 168L966 526L1062 556L969 585L176 945L238 1080L1251 620V493L238 33L176 168Z" />
<glyph unicode="?" glyph-name="question" horiz-adv-x="1698" d="M351 602T373 643T432 723T515 800T610 871T706 932Q706 932 848 1015Q870 1028 870 1033T850 1047T795 1064Q713 1081 648 1081T546 1074T474 1056Q418 1042 364 1020Q332 1007 309 1026Q267
1062 290 1092Q317 1126 354 1159L422 1220Q543 1321 616 1350Q687 1380 818 1380T1039 1363T1200 1310Q1363 1231 1363 1100Q1363 1009 1190 874Q1141 835 1090 799L902 670Q817 612 817 591T835 555T882 534Q931 520 995 520Q1046 520 1115 529T1189 539Q1205
539 1216 531Q1240 514 1228 497L1208 467Q1138 361 764 361Q444 361 370 494Q351 528 351 565ZM365 96Q365 116 381 147T434 208Q524 281 669 281Q802 281 855 231Q875 212 875 181T854 112T798 44Q716 -29 620 -29Q483 -29 424 2T365 96Z" />
<glyph unicode="@" glyph-name="at" horiz-adv-x="2891" d="M1399 546Q1360 508 1360 481T1404 453Q1448 453 1606 545L1674 586Q1832 683 1941 683Q2033 683 2062 602L2076 559Q2101 479 2117 479T2165 496T2238 544T2320 615T2398 703Q2477 811 2477 906T2442
1066T2345 1171Q2232 1243 2031 1243Q1686 1243 1314 1104Q1065 1010 875 866Q679 716 602 524Q562 427 562 348T570 220T609 133T679 63T764 1T847 -56Q934 -118 934 -170Q934 -239 889 -290Q836 -351 740 -351Q617 -351 493 -268Q328 -156 252 29Q216 119 216
237T266 483T404 720T610 921T867 1085T1155 1213T1455 1304Q1757 1378 2016 1378Q2545 1378 2703 1124Q2759 1034 2759 904Q2759 642 2223 286L2144 236Q2007 152 1917 155Q1829 157 1788 310L1768 382L1592 274L1490 216Q1304 116 1230 116T1106 141T1020 206Q946
291 946 405Q946 524 1035 603Q1176 726 1441 828Q1699 928 1853 928Q1886 928 1896 910T1907 865Q1907 814 1849 789L1731 738Q1494 637 1399 546Z" />
<glyph unicode="A" glyph-name="A" horiz-adv-x="2551" d="M257 -67Q205 -67 159 -43T74 27Q-11 130 -11 274Q-11 333 35 392T188 500Q426 607 883 607Q883 607 1720 1256Q1762 1289 1770 1296Q1783 1310 1803 1310T1843 1306T1879 1295Q1914 1280 1914 1260Q1914
1246 1907 1238L1335 610H1579Q1595 646 1632 710L1724 860Q1778 946 1830 1022L1931 1162Q2086 1369 2155 1369Q2162 1369 2209 1351T2290 1314Q2370 1272 2370 1235Q2370 1200 2339 1162T2274 1071T2200 954T2120 815T2048 672Q1975 515 1975 460T1983 379T2004
342Q2023 323 2065 323T2150 338T2235 377T2317 428T2395 480Q2483 534 2525 534T2581 515T2596 464T2570 381T2497 272T2386 162T2246 64Q2075 -31 1911 -31Q1763 -31 1650 73Q1524 188 1524 370Q1524 379 1524 388T1525 407L1106 354Q929 180 678 56Q426 -67
257 -67Z" />
<glyph unicode="B" glyph-name="B" horiz-adv-x="2041" d="M207 69T188 114T169 193T187 273T236 379T308 511T396 656L490 801Q539 872 586 933Q386 869 290 809T141 720T55 692Q-1 692 -1 762Q-1 862 103 1008Q211 1159 326 1195T584 1263T881 1320Q1215 1372
1502 1372Q1830 1372 1921 1310Q2002 1255 2031 1158Q2045 1111 2045 1057T1993 945T1853 834Q1689 734 1423 654Q1574 625 1632 588T1715 513T1739 418T1689 299T1551 185T1342 89T1080 16Q786 -48 468 -48Q330 -48 245 33Q207 69 188 114ZM802 784Q652 524 652
424Q652 378 700 338Q745 300 794 300T902 304T1023 317T1145 336T1252 361Q1356 392 1356 424Q1356 482 1195 520Q1064 550 945 550Q899 550 879 568T859 611T883 662T950 706Q1290 791 1518 897Q1630 949 1630 976Q1630 1015 1607 1039Q1566 1082 1516 1082T1402
1078T1264 1066Q1101 1050 941 1020Q918 973 880 914L802 784Z" />
<glyph unicode="C" glyph-name="C" horiz-adv-x="1639" d="M538 470Q538 303 871 303Q1096 303 1436 473L1538 527Q1770 645 1800 578Q1808 560 1808 537T1789 489T1736 435T1659 373T1566 308L1468 247Q1418 217 1360 188L1214 116Q871 -44 567 -44Q301 -44 158
61Q30 154 30 301Q30 504 213 710Q371 887 646 1046Q886 1185 1158 1274Q1415 1359 1575 1359Q1609 1359 1632 1337Q1674 1298 1674 1260Q1674 1112 1551 1021Q1446 944 1306 944T1096 972Q835 871 672 701Q604 630 571 568T538 470Z" />
<glyph unicode="D" glyph-name="D" horiz-adv-x="2214" d="M268 201Q268 240 293 287T354 396L530 681Q530 681 727 986Q495 925 342 835Q289 804 254 771Q188 720 147 720Q72 720 72 787Q72 817 83 841T113 898T156 970T211 1052T275 1134Q351 1223 406 1249T525
1294T677 1330Q878 1367 1113 1367Q1622 1367 1913 1220Q2155 1097 2155 878Q2155 831 2142 765T2079 599T1944 406T1738 232T1454 89Q1108 -42 636 -42Q452 -42 351 40Q268 106 268 201ZM793 513T780 477T767 419T779 377T817 338Q874 301 986 301T1215 319T1431
367T1606 435T1738 514Q1848 597 1861 667Q1864 683 1864 701Q1864 906 1426 992Q1258 1026 1063 1030Q871 683 832 598Z" />
<glyph unicode="E" glyph-name="E" horiz-adv-x="1867" d="M145 61T102 112T44 208Q22 275 22 323T53 433T158 556Q318 689 649 784Q543 829 528 927Q513 1039 624 1126Q829 1287 1412 1344Q1592 1361 1673 1361T1789 1335T1830 1258T1811 1171T1737 1115Q1648
1076 1494 1076Q1381 1076 1288 1110Q1263 1120 1249 1131Q1049 1069 1022 992Q1014 972 1016 955Q1025 894 1096 865T1312 828Q1360 824 1383 802T1410 756T1407 719T1386 696Q1362 680 1291 669T1126 639T947 597T790 552T664 508Q552 461 556 433T579 383T630
346Q690 318 776 311T944 303T1119 316T1294 351T1444 395T1564 440L1646 474Q1678 488 1704 488Q1773 488 1782 415Q1794 316 1560 192Q1247 25 868 -26Q780 -38 657 -38T416 -22T222 27Z" />
<glyph unicode="F" glyph-name="F" horiz-adv-x="1700" d="M1852 1400Q1919 1400 1919 1354Q1919 1293 1826 1168Q1751 1068 1611 1034Q1569 1023 1535 1023T1460 1028Q1357 1041 1202 1045Q1080 829 1022 715L1177 719Q1224 717 1292 724L1392 733Q1422 736 1432
737Q1473 741 1483 726Q1502 699 1502 663T1497 602T1483 553Q1463 502 1438 482Q1384 439 1258 439Q1234 439 1212 441L907 465Q830 282 786 108Q752 -24 529 -24Q345 -24 294 62Q277 91 281 117T300 175T342 256L484 499Q480 499 458 501T424 506Q397 515 380
539T363 589Q363 640 393 666T455 696T526 701L610 703Q764 942 833 1041Q585 1023 402 924Q351 896 320 869T266 842T229 848T200 866Q172 891 172 920T188 975Q379 1270 614 1336Q697 1359 796 1359Q1208 1359 1450 1369T1715 1382L1808 1396Q1831 1400 1852
1400Z" />
<glyph unicode="G" glyph-name="G" horiz-adv-x="2371" d="M700 457Q700 365 907 365Q1187 365 1444 464Q1525 495 1609 532L1722 598Q1905 702 1982 702Q2015 702 2034 692Q2084 676 2114 641Q2169 577 2169 544T2152 458T2106 344T2039 216T1958 90Q1862 -47
1787 -108Q1759 -143 1718 -186T1606 -277T1457 -363T1299 -428T1144 -474Q1002 -509 926 -509T815 -479T780 -402T812 -309T900 -220T1029 -138T1184 -63Q1331 1 1511 52Q1613 192 1693 338L1644 310Q1619 297 1595 286Q1414 177 1138 92Q810 -9 513 -9Q346 -9
248 102Q159 203 159 358Q159 522 380 711Q574 877 905 1034Q1205 1178 1526 1270Q1843 1362 2038 1362Q2153 1362 2194 1284Q2210 1255 2210 1202T2170 1106T2066 1040Q1951 996 1784 996T1482 1016Q1292 954 1095 834Q930 734 810 618Q700 512 700 457Z" />
<glyph unicode="H" glyph-name="H" horiz-adv-x="2038" d="M1869 555Q1813 569 1630 569Q1481 259 1421 16Q1387 -116 1164 -116Q980 -116 930 -30Q912 -1 916 26T942 98T1002 209L1090 359L1198 536L795 503Q655 261 485 47Q402 -54 241 -54Q119 -54 26 -2Q-30
29 -28 54Q-27 89 12 124Q172 264 331 466L178 454Q63 451 34 504Q11 547 11 602Q11 640 29 665T69 696T120 703L536 754Q783 1152 815 1200T878 1282Q955 1360 1035 1360Q1091 1360 1140 1315Q1162 1295 1162 1269Q1162 1218 1106 1103L960 806L1408 862Q1596
1134 1667 1225Q1812 1410 1869 1438Q1977 1492 2026 1492T2087 1465T2095 1409T2066 1336T2002 1226Q2002 1226 1803 894Q1869 888 1894 860Q1938 812 1938 708Q1938 633 1919 568Q1911 555 1869 555Z" />
<glyph unicode="I" glyph-name="I" horiz-adv-x="1531" d="M1112 1034Q1112 1102 1062 1102T937 1084T777 1028Q583 941 426 788Q405 770 370 770T310 787T286 833T298 892T323 967T350 1054Q386 1157 417 1190Q474 1237 722 1294Q997 1357 1260 1357Q1370 1357
1442 1276Q1504 1206 1504 1129Q1504 1063 1406 816Q1251 422 1089 200Q1044 138 1000 99Q936 49 832 15Q656 -44 604 -44T500 -31T402 4T313 53T241 108Q175 167 175 204Q175 239 260 317Q347 397 403 397Q441 397 495 368L572 324Q597 311 616 311T671 339T746
415T828 523T911 648T988 777T1052 894Q1112 1009 1112 1034Z" />
<glyph unicode="J" glyph-name="J" horiz-adv-x="1879" d="M222 282Q204 274 182 274T132 306T82 386Q34 494 34 597Q34 662 59 700Q59 700 152 802Q196 852 247 890Q837 1320 1442 1352Q1527 1357 1574 1357T1650 1344T1707 1309T1758 1261T1800 1208Q1838 1155
1838 1133T1829 1082T1808 1018T1782 949L1760 891Q1611 506 1406 168Q1338 55 1293 -6T1217 -105T1151 -178T1076 -246T994 -304Q902 -358 812 -358Q752 -358 676 -295Q596 -228 596 -159Q596 -47 815 168Q930 281 1024 351T1160 447Q1317 744 1353 819L1409 938Q1451
1031 1451 1049Q1451 1094 1403 1094T1280 1071T1119 1009T941 917T760 806T591 685T448 565Q311 438 298 369Q285 307 222 282Z" />
<glyph unicode="K" glyph-name="K" horiz-adv-x="1871" d="M1554 1360Q1701 1360 1701 1279Q1701 1209 1590 1074Q1576 1057 1530 1016L1416 914L1076 631Q1101 586 1161 523T1268 420Q1370 330 1392 330T1449 347T1527 391T1618 454L1870 645Q1906 673 1942 673Q2017
673 2017 611Q2017 530 1938 422Q1914 390 1892 368L1829 310Q1555 59 1342 -22Q1276 -48 1224 -48T1124 -30T1029 18T938 87T853 171Q780 251 717 347L533 210Q239 -4 174 -4Q104 -4 39 36Q20 47 13 60Q-24 97 -24 212T-6 417T44 600T116 784T202 958T294 1112T384
1236Q474 1348 519 1348T611 1340T694 1316Q778 1278 778 1213Q778 1174 747 1129T678 1023Q576 852 536 780L469 654Q410 538 410 511Q410 488 448 488Q463 488 558 570L726 716L1251 1196Q1289 1231 1295 1237Q1356 1299 1425 1329T1554 1360Z" />
<glyph unicode="L" glyph-name="L" horiz-adv-x="1870" d="M760 796Q609 772 513 772T352 786T232 829Q105 895 85 1012Q77 1073 118 1087Q130 1091 146 1091T181 1083Q246 1036 407 1012Q444 1007 466 1007T524 1009T600 1017Q697 1031 756 1063T865 1135T957
1212L1040 1286Q1124 1361 1193 1384T1301 1407T1374 1396T1444 1364Q1532 1314 1532 1260Q1532 1188 1452 1100Q1369 1010 1251 955Q887 519 834 450L976 398Q1241 298 1374 298Q1444 298 1542 355Q1573 373 1598 400Q1647 453 1693 453T1760 426T1775 361T1744
280T1686 189T1604 94T1504 8Q1383 -76 1274 -76Q1202 -76 1047 -29L678 80Q606 101 542 116Q414 6 265 -18Q211 -26 151 -26T57 -11T5 30Q-24 72 -24 160Q-24 211 56 299Q195 450 364 508Q424 529 468 529T564 522Q739 735 760 796ZM1195 932Q1191 927 1193 928T1202
934L1195 932Z" />
<glyph unicode="M" glyph-name="M" horiz-adv-x="2725" d="M1808 243L1810 311Q1812 375 1822 451L1838 569Q1843 611 1848 645Q1753 541 1695 483L1580 371Q1194 10 1120 10Q1011 10 891 57Q826 83 817 111Q803 146 803 206T807 318T817 419T829 516T840 598Q850
677 844 677L472 220Q209 -89 173 -122Q96 -192 3 -192Q-43 -192 -73 -169T-103 -112Q-103 -44 -46 30L842 1159L946 1284Q1132 1503 1190 1503Q1271 1503 1344 1462Q1409 1426 1418 1392Q1422 1379 1401 1271L1366 1082Q1307 766 1307 675T1328 583Q1396 583 1590
806L1914 1194Q2021 1317 2056 1334Q2066 1339 2085 1339T2127 1334T2175 1321T2223 1302T2264 1279Q2303 1253 2303 1237T2294 1166T2274 1033Q2191 516 2188 433T2204 329T2265 308Q2338 308 2477 395Q2571 454 2632 454T2694 395Q2694 334 2628 247Q2533 121
2344 19Q2185 -66 2042 -66Q1808 -66 1808 243Z" />
<glyph unicode="N" glyph-name="N" horiz-adv-x="2041" d="M213 42Q151 -37 112 -45T46 -47T0 -24Q-42 12 -42 72Q-42 116 -15 160Q568 1087 619 1164Q739 1342 758 1364L783 1394Q895 1523 1074 1523Q1213 1523 1264 1462Q1276 1449 1276 1412T1280 1294L1285
1122Q1288 1031 1292 936L1298 750Q1306 570 1312 440Q1351 509 1391 601L1476 795Q1592 1055 1700 1206Q1768 1303 1924 1303Q2039 1303 2130 1253Q2185 1223 2184 1200Q2184 1179 2169 1160L2148 1131Q2077 1032 2008 925L1874 712Q1592 246 1547 177T1479 81T1418
34T1332 0Q1228 -33 1159 -33Q1043 -33 1002 0Q958 40 878 464L844 652Q828 748 815 843Q782 792 730 722L436 330L213 42Z" />
<glyph unicode="O" glyph-name="O" horiz-adv-x="2214" d="M1463 1382Q1512 1399 1572 1399T1694 1390T1824 1361T1960 1310T2082 1236Q2203 1140 2203 1008Q2203 852 2038 666Q1802 400 1362 192Q1085 62 806 8Q668 -18 538 -18T313 17T159 106T72 220T45 349T85
508T190 688T335 862T496 1019Q634 1142 761 1230T977 1370T1124 1448Q1224 1495 1246 1495T1295 1482T1356 1451Q1438 1405 1463 1382ZM532 276Q550 275 599 275T741 300T931 367T1125 466T1312 585T1478 711T1613 836Q1735 963 1735 1029Q1735 1097 1653 1130Q1598
1153 1535 1153Q1430 1153 1362 1135Q1070 998 793 777Q595 619 510 478Q466 405 466 343T532 276Z" />
<glyph unicode="P" glyph-name="P" horiz-adv-x="1870" d="M176 62Q159 91 163 118T190 190T250 302L338 452L446 630L568 822L696 1014Q455 954 328 871Q307 857 292 842L258 808Q227 777 197 777T151 784T124 804Q99 833 115 868Q158 1006 238 1150Q282 1230
308 1242Q498 1324 1100 1361Q1296 1373 1512 1373Q1653 1373 1780 1272Q1922 1157 1922 984Q1922 758 1534 556Q1319 443 1130 398Q1081 387 1055 387T995 394T934 414Q870 446 870 491Q870 555 993 621L1208 737Q1399 839 1444 885T1489 960T1478 1015T1446 1060Q1403
1103 1354 1103Q1252 1103 1108 1087L986 872Q752 447 668 108Q634 -24 411 -24Q227 -24 176 62Z" />
<glyph unicode="Q" glyph-name="Q" horiz-adv-x="2552" d="M1831 289Q2035 194 2123 194Q2135 194 2158 199L2208 210Q2235 217 2265 225T2324 239Q2433 262 2453 226Q2463 208 2463 190Q2463 134 2434 93T2368 18T2283 -49T2177 -110Q2050 -170 1928 -170Q1780
-170 1517 12L1386 100Q1239 194 1172 194T1056 169T964 111Q1006 105 1036 103T1082 97T1112 75T1125 36T1120 2T1104 -24Q1081 -50 1043 -50T946 -46T818 -31T671 -3T520 42T379 106T260 192Q148 300 148 444Q148 713 490 953Q810 1178 1285 1290Q1598 1363 1898
1363Q2119 1363 2226 1315Q2381 1245 2381 1032Q2381 836 2235 628Q2079 406 1831 289ZM1588 409Q1818 557 1906 766Q1938 841 1938 934Q1938 1123 1698 1123Q1506 1123 1208 966Q903 805 739 604Q618 456 618 331Q618 235 738 175Q823 286 1030 400Q1233 510 1308
510T1588 409Z" />
<glyph unicode="R" glyph-name="R" horiz-adv-x="2038" d="M126 843Q62 843 62 904Q62 932 91 1005T141 1120Q189 1216 239 1253Q319 1312 864 1360Q1101 1380 1209 1380T1362 1377T1457 1367T1555 1348T1648 1319Q1743 1282 1781 1227Q1900 1054 1900 945Q1900
823 1714 706Q1658 670 1594 634Q1361 508 1321 485Q1405 322 1650 148Q1679 128 1696 118Q1771 74 1873 132Q1901 149 1930 149T1981 128T2003 80Q2003 -39 1844 -176Q1726 -278 1631 -278Q1554 -278 1296 -52Q1150 76 1059 177T934 327T900 413T917 477T965 531Q1012
571 1099 616T1241 703T1336 788Q1424 881 1424 956Q1424 1005 1394 1038Q1339 1097 1292 1097Q1211 1097 1094 1086L972 870Q739 447 654 108Q620 -24 397 -24Q213 -24 162 62Q145 91 149 118T176 190T236 302L325 454L434 633L557 826L685 1018Q336 943 176 856Q152
843 126 843Z" />
<glyph unicode="S" glyph-name="S" horiz-adv-x="2044" d="M1640 1006Q1541 1006 1502 1100Q1358 1100 1186 1030Q1079 986 1042 949T1003 891T1023 856T1087 828T1184 802Q1472 735 1549 709Q1702 658 1778 597Q1850 536 1850 431Q1850 344 1797 284T1655 177T1459
94T1230 31T992 -12Q763 -44 601 -44Q306 -44 146 27Q86 54 48 162Q18 251 18 308T28 372T69 373T150 354L270 322Q549 252 860 252Q1089 252 1248 293Q1342 318 1348 349Q1352 376 1200 416Q1131 435 1040 456Q599 563 508 594T390 649T344 702Q311 759 311 810T316
890T332 942Q353 991 385 1009Q642 1153 1140 1262Q1583 1360 1869 1360Q1927 1360 1956 1340Q2006 1303 2000 1261T1975 1184T1926 1120T1862 1070T1788 1034Q1712 1006 1640 1006Z" />
<glyph unicode="T" glyph-name="T" horiz-adv-x="1868" d="M1822 1382Q1889 1382 1889 1335Q1889 1275 1796 1164L1777 1142Q1695 1042 1569 1005Q1525 992 1497 992Q1461 992 1441 994T1383 999L1298 1006Q1190 1013 1082 1019Q883 824 744 594Q693 509 693 489Q693
393 757 353T931 313T1118 324T1264 353T1391 392T1494 433T1568 467L1607 487Q1638 495 1665 480Q1713 451 1713 414Q1713 377 1670 340Q1323 41 881 -23Q737 -44 608 -44T407 -31T286 6T209 59T167 124Q146 175 146 243T165 356T214 441T277 522T333 592T382
652Q536 812 589 864L761 1028Q603 1028 542 1012T437 981T348 951T266 920Q181 886 166 874T129 861T89 868T55 890Q22 919 22 954T45 1024T118 1101T219 1186L314 1261Q358 1296 373 1318Q417 1382 584 1404Q632 1411 682 1411T820 1403T1030 1386Q1356 1360
1509 1360T1685 1364L1730 1371Q1795 1382 1822 1382Z" />
<glyph unicode="U" glyph-name="U" horiz-adv-x="2039" d="M1578 473Q1578 372 1641 372Q1669 372 1738 416Q1874 507 1926 544L2006 603Q2034 624 2061 646T2129 684T2194 701T2226 683T2233 639T2223 587T2195 530Q2147 447 2097 399T2010 320L1927 252Q1694
70 1530 15Q1485 0 1425 0T1308 29T1219 104Q1160 188 1160 332Q1160 393 1170 451Q951 216 793 116Q584 -16 355 -16Q221 -16 111 75Q-6 172 -6 308Q-6 567 334 1038L431 1168Q531 1293 588 1347Q601 1357 623 1357Q696 1357 788 1283Q887 1204 878 1135Q870 1053
774 930Q732 877 685 823T594 712Q495 582 483 485Q476 432 524 406Q538 398 579 398T691 424T836 494T982 593T1120 705T1241 816L1336 913Q1632 1241 1666 1276Q1740 1352 1757 1352T1795 1343T1841 1319T1890 1285T1936 1244Q1981 1197 1985 1161Q1991 1139
1957 1074T1882 962L1794 860Q1613 652 1586 539Q1578 505 1578 473Z" />
<glyph unicode="V" glyph-name="V" horiz-adv-x="1703" d="M383 -46T346 -26T259 47T166 186Q64 384 64 649Q64 929 214 1146Q308 1280 424 1332Q483 1358 546 1358T658 1335T738 1279T783 1213T798 1144T774 1064T716 985T641 917T570 850Q498 701 498 560Q498
412 575 335Q599 311 629 300Q743 337 960 583Q1122 777 1189 867L1302 1024Q1463 1256 1632 1332Q1697 1362 1756 1361T1851 1347T1910 1311Q1954 1267 1954 1211Q1954 1108 1884 1027Q1674 797 1564 685L1356 482L1166 308Q727 -77 556 -77Q456 -77 420 -62Z"
/>
<glyph unicode="W" glyph-name="W" horiz-adv-x="2547" d="M2506 1398Q2703 1398 2703 1236Q2703 1136 2644 1033T2518 838T2373 655T2210 479T2038 317T1867 178T1706 70Q1546 -27 1458 -27Q1295 -27 1170 102Q1064 212 1069 410Q921 250 708 123Q501 -1 384
-1Q285 -1 190 112Q98 220 98 307T124 483T195 663T298 847T418 1027T542 1193L655 1334Q678 1361 714 1361T791 1340T864 1286Q941 1211 939 1143Q934 1059 754 820L666 700Q571 564 569 512Q567 482 586 460Q620 422 644 422Q790 422 1048 670L1204 826Q1348
1102 1506 1281Q1575 1360 1600 1360Q1693 1360 1760 1290Q1818 1231 1816 1188T1796 1107T1750 1029T1686 946L1614 860Q1497 720 1474 654Q1449 581 1448 540T1465 472T1512 427Q1570 394 1653 394Q1703 394 1802 480Q1965 622 2086 834Q2127 907 2146 958T2184
1050T2228 1137T2284 1229T2350 1314Q2430 1398 2506 1398Z" />
<glyph unicode="X" glyph-name="X" horiz-adv-x="1867" d="M184 -29T171 -8T158 49T175 107T221 154L672 545L481 918Q461 955 449 970Q424 1001 387 1001T314 993T237 983T183 1002T169 1054Q169 1125 215 1155T301 1205T386 1239Q475 1266 628 1276Q690 1279
746 1222Q761 1206 769 1193L989 820L1453 1222Q1621 1365 1712 1365Q1777 1365 1851 1313Q1932 1256 1932 1190Q1932 1148 1900 1128Q1894 1125 1877 1113L1635 933L1148 552Q1306 293 1330 263Q1383 183 1488 183Q1536 183 1575 198T1646 213T1701 198T1724 157Q1724
103 1633 32Q1546 -33 1330 -112Q1216 -153 1162 -156T1074 -143T1014 -100Q970 -57 930 28L803 283L437 -3Q399 -33 362 -53T294 -73T242 -66T203 -44Z" />
<glyph unicode="Y" glyph-name="Y" horiz-adv-x="1869" d="M294 104Q237 104 185 129T96 198Q-21 332 54 534Q127 727 323 996Q424 1134 503 1219Q634 1360 665 1360T735 1340T808 1290Q886 1218 882 1152Q879 1099 783 973L695 860Q409 504 564 504Q598 504 634
521Q1026 700 1363 1038L1512 1192Q1576 1259 1618 1299T1686 1340T1739 1323T1788 1282Q1835 1230 1833 1190Q1815 942 1516 350Q1454 226 1386 104Q1207 -206 1134 -316T1008 -496Q894 -643 850 -643Q801 -643 684 -546Q560 -445 560 -384Q560 -365 632 -273L892
54Q1091 310 1163 412Q1320 636 1394 788Q1141 578 1048 507L876 380Q485 104 294 104Z" />
<glyph unicode="Z" glyph-name="Z" horiz-adv-x="1871" d="M697 402Q736 419 789 419T877 411T956 390Q1090 347 1145 327L1332 260Q1413 231 1425 231Q1488 231 1563 267T1697 345T1779 393T1825 400T1866 385T1881 341T1865 280T1830 214Q1785 143 1742 104L1652
27Q1466 -129 1260 -129Q1204 -129 1073 -87L764 13Q565 79 508 79T395 61T284 21T170 -19T68 -38T3 -26T-36 7Q-79 55 -75 92T-43 164T26 233T115 302T209 366L338 446Q351 454 394 482L918 840Q1161 1012 1161 1020Q1161 1027 1123 1027Q981 1027 882 1027T725
1026H616Q435 1024 412 1016T358 984L294 940Q216 887 164 887Q99 887 81 940Q64 990 97 1035T167 1115T251 1182T344 1238Q446 1292 493 1292T604 1295T750 1302T926 1314L1114 1326Q1209 1332 1299 1338T1464 1350L1594 1357Q1648 1360 1665 1360T1706 1343T1752
1298Q1810 1225 1803 1156Q1798 1099 1502 900L1322 782L954 554L697 402Z" />
<glyph unicode="[" glyph-name="bracketleft" horiz-adv-x="1359" d="M712 -34Q756 -34 756 -89Q756 -154 707 -185Q691 -195 672 -195L252 -194Q199 -194 199 -102Q199 91 408 554Q608 995 820 1303Q873 1382 925 1394Q943 1399 963 1399H1323Q1386 1399 1386
1354Q1386 1317 1360 1289Q1311 1238 1276 1238H1053Q716 782 514 292Q446 126 404 -34H712Z" />
<glyph unicode="\" glyph-name="backslash" horiz-adv-x="1703" d="M866 401L818 485Q801 513 766 565L422 1052Q390 1097 382 1112T379 1149T401 1194T437 1240T480 1278Q530 1313 552 1289Q560 1280 586 1236L737 966Q1181 122 1222 38L1284 -90Q1304 -135 1306
-149T1303 -180T1284 -210Q1256 -237 1232 -237Q1194 -237 1182 -210Q1171 -183 1144 -130Q911 321 866 401Z" />
<glyph unicode="]" glyph-name="bracketright" horiz-adv-x="1531" d="M127 -195Q64 -195 64 -150Q64 -113 90 -85Q139 -34 174 -34H397Q734 422 936 912Q1004 1078 1046 1238H738Q694 1238 694 1293Q694 1358 742 1389Q758 1399 778 1399L1198 1398Q1251 1398
1251 1306Q1251 1113 1042 650Q842 209 630 -99Q577 -178 525 -190Q507 -195 487 -195H127Z" />
<glyph unicode="^" glyph-name="asciicircum" horiz-adv-x="1876" d="M874 1190H1001L1461 177L1326 115L966 908L937 1001L907 905L549 115L414 177L874 1190Z" />
<glyph unicode="_" glyph-name="underscore" horiz-adv-x="1532" d="M1566 -208V-340H-40V-208H1566Z" />
<glyph unicode="`" glyph-name="grave" horiz-adv-x="849" d="M658 1072Q625 1062 538 1117T393 1216T285 1308Q172 1414 159 1482Q148 1532 174 1579Q223 1667 287 1667Q327 1667 351 1639T398 1578L446 1506Q471 1468 503 1428L634 1274Q698 1198 701 1177T705
1137Q705 1077 658 1072Z" />
<glyph unicode="a" glyph-name="a" horiz-adv-x="1530" d="M1737 751Q1769 751 1769 697Q1769 604 1639 456L1582 398Q1323 139 1094 53Q952 0 890 58Q839 107 809 216L785 303L572 172L449 102Q229 -18 119 -18Q-22 -18 -116 91Q-206 194 -206 330Q-206 464 -99
569Q54 719 384 844Q696 961 888 961Q953 961 953 897Q953 853 936 831T866 786L740 732Q460 615 330 489Q293 454 293 421T346 388Q398 388 588 500L671 549Q864 665 994 665Q1104 665 1140 568Q1149 542 1157 516T1173 468Q1191 419 1205 419T1247 433T1306 470T1374
520L1495 617Q1656 751 1737 751Z" />
<glyph unicode="b" glyph-name="b" horiz-adv-x="1360" d="M946 638T904 638T812 622T702 580T577 521T452 454Q323 381 277 343T201 275T142 222Q74 166 39 166T-24 177T-75 210Q-129 261 -129 331Q-129 455 90 818Q184 974 272 1092T441 1294T596 1436Q748 1555
838 1555Q864 1555 881 1536T898 1495Q898 1445 867 1392T783 1257L570 934Q470 780 466 762T461 735T472 727T534 750Q534 750 662 808Q951 934 1129 934Q1230 934 1298 841Q1361 754 1361 653T1330 479T1239 364T1118 286L990 210Q627 7 463 7Q236 7 236 125Q236
189 298 220Q869 529 894 545Q946 578 946 608Z" />
<glyph unicode="c" glyph-name="c" horiz-adv-x="1190" d="M1423 645Q1423 598 1300 463Q1174 326 1053 240Q819 66 534 2Q426 -23 330 -23T170 -7T56 37T-32 101T-94 177Q-143 255 -143 321T-129 437T-88 532Q3 696 278 822Q495 923 692 953Q777 966 813 966T873
959T916 938Q956 909 956 859T930 765T864 690Q786 632 690 632Q559 632 474 666Q415 645 374 589Q340 543 340 507T356 436T403 374Q469 316 562 316Q778 316 1065 545L1156 616Q1300 726 1361 726T1423 645Z" />
<glyph unicode="d" glyph-name="d" horiz-adv-x="1530" d="M1705 739Q1750 739 1750 693Q1750 620 1654 487Q1587 394 1378 229Q1129 34 978 34Q864 34 806 130Q771 188 749 300L660 236Q293 -18 112 -18Q-39 -18 -130 92Q-210 191 -210 329Q-210 481 -106 569Q106
747 421 862Q549 909 583 909T645 898T702 868Q768 823 768 781Q768 747 726 726Q713 719 682 707T606 674Q485 617 370 536Q288 466 288 425T346 383Q394 383 538 468Q538 468 623 520Q714 577 769 624Q769 624 815 774Q900 1042 1004 1217Q1188 1570 1374 1570Q1442
1570 1482 1545Q1554 1500 1554 1446T1534 1330T1482 1209T1407 1090L1236 864Q1193 809 1160 757Q1102 632 1102 543Q1102 415 1195 415Q1248 415 1386 526L1504 626Q1587 700 1668 730Q1691 739 1705 739Z" />
<glyph unicode="e" glyph-name="e" horiz-adv-x="1190" d="M1383 735Q1431 735 1431 681Q1431 645 1407 591T1336 489T1231 390T1092 283T916 172T712 73Q473 -25 249 -25Q78 -25 -50 64Q-184 157 -184 290Q-184 499 41 687Q235 849 498 938Q658 992 769 992Q859
992 921 948Q987 900 987 819Q987 692 786 538Q754 513 728 496L692 472Q592 402 388 315Q451 282 505 282T603 295T702 332T819 389T946 463Q1089 552 1194 645Q1249 696 1334 726Q1362 735 1383 735ZM280 454L335 482Q362 496 383 508Q585 624 613 651T641 688T635
713T619 738Q595 766 568 766T509 756T443 729T380 687T326 634Q273 571 273 525T280 454Z" />
<glyph unicode="f" glyph-name="f" horiz-adv-x="850" d="M481 106T383 75T198 43T4 121Q-12 34 -25 -52T-58 -218T-105 -365T-180 -482Q-281 -589 -461 -589Q-489 -589 -507 -568Q-539 -530 -533 -482T-495 -343T-414 -145T-304 86L-175 332Q-197 384 -197 425T-183
507T-144 584Q-87 669 -17 669Q-4 669 10 666Q272 1110 311 1172L366 1258Q520 1485 658 1530Q705 1545 754 1545T834 1511T866 1403Q866 1192 630 918L370 630Q301 555 238 476Q271 438 299 411T345 383T400 395T482 429T582 477T685 534Q795 598 843 639Q927
710 975 710Q1010 710 1026 694Q1052 668 1052 633T1014 534T910 404T758 272T577 157Z" />
<glyph unicode="g" glyph-name="g" horiz-adv-x="1530" d="M506 630T445 587T337 499T290 421T343 388Q380 388 451 424L668 539Q728 570 775 612L846 674Q922 743 1005 743Q1048 743 1091 695Q1134 647 1134 597Q1134 482 1040 257L1200 388L1530 645Q1583 685
1618 685Q1694 685 1694 612Q1694 537 1596 419Q1550 363 1468 298L914 -122Q859 -166 827 -195Q695 -408 573 -504Q396 -644 245 -644Q177 -644 134 -606Q95 -573 95 -529Q95 -488 117 -441T176 -345T260 -250T360 -159Q500 -48 559 -6L657 65Q715 188 757 331Q564
161 346 64Q237 15 165 15T33 45T-70 124Q-159 227 -159 363Q-159 505 -52 602Q109 748 404 856Q688 961 885 961Q950 961 950 897Q950 853 934 830T855 784T717 732T574 666Z" />
<glyph unicode="h" glyph-name="h" horiz-adv-x="1531" d="M415 647Q415 611 442 611Q475 611 527 655L614 730Q752 849 877 849Q958 849 1021 714Q1076 598 1120 368Q1128 330 1133 330T1162 348T1220 394Q1465 603 1503 627T1557 660T1588 676Q1628 691 1651
691Q1695 691 1695 645Q1695 575 1603 441Q1500 291 1330 142Q1132 -33 984 -33Q828 -33 774 177Q760 231 752 278L737 356Q731 387 722 387T682 357L608 282Q484 156 400 98Q231 -20 104 -20Q-48 -20 -75 134Q-83 180 -83 250T-63 423T-8 627Q68 845 181 999L270
1117Q593 1539 810 1539Q859 1539 881 1491Q888 1476 888 1446T862 1369T798 1270T717 1167T637 1063L562 954Q415 733 415 647Z" />
<glyph unicode="i" glyph-name="i" horiz-adv-x="1021" d="M840 1132T806 1117T730 1101T649 1115T581 1154Q518 1208 518 1292Q518 1421 734 1484Q807 1506 854 1506T924 1496T963 1468Q993 1434 993 1399T985 1334T960 1274T921 1212T869 1157ZM541 16T469 -7T328
-31T184 2T51 92Q-78 217 -78 370Q-78 511 6 656Q83 787 202 876Q321 965 423 965Q569 965 579 883Q582 858 582 825T567 750T527 665T473 582T416 508Q364 445 333 417Q333 383 384 347Q432 313 465 313T544 329T638 372T737 434T837 506L1020 649Q1129 728 1197
728Q1224 728 1238 709T1253 663T1227 592T1156 491T1049 376T917 258T770 148T617 56Z" />
<glyph unicode="j" glyph-name="j" horiz-adv-x="850" d="M645 1132T611 1116T542 1100T468 1114T399 1153Q328 1210 328 1291Q328 1431 562 1492Q648 1515 695 1515T762 1505T796 1480Q823 1451 823 1421T812 1356T781 1287T735 1218T677 1158ZM-94 91Q-29 212
16 334L80 506Q92 545 92 566T86 602L72 632Q53 674 53 717T73 793T127 850T202 893T288 922Q373 945 420 945T487 935T520 910Q548 879 548 845T537 759T505 647T456 514L397 368Q378 324 353 271L522 403L793 604Q840 637 854 648Q890 676 928 676Q997 676 1012
627Q1030 564 925 430Q892 388 860 360T790 303Q228 -104 182 -140T110 -199Q49 -301 -6 -370Q-91 -490 -199 -555Q-281 -604 -358 -604T-478 -566T-521 -465T-500 -346T-443 -236T-362 -136T-270 -46T-176 30L-94 91Z" />
<glyph unicode="k" glyph-name="k" horiz-adv-x="1531" d="M900 -48Q695 -48 496 214L380 128Q195 -4 134 -4Q65 -4 6 48Q-11 63 -19 80Q-56 117 -56 273T-21 567T70 821Q158 1005 343 1225Q447 1375 598 1471Q726 1552 812 1552Q859 1552 891 1531T924 1474T896
1395Q567 915 516 835T444 712T413 647T394 600Q373 544 373 519T411 494Q446 494 594 675L728 841Q802 934 881 969T1020 1004Q1187 1004 1187 923Q1187 850 1076 718Q1064 704 1040 680L906 556L817 477Q911 367 1002 322Q1023 312 1037 312T1090 330T1175 378T1276
445L1550 645Q1586 673 1622 673Q1697 673 1697 611Q1697 530 1618 422Q1594 390 1572 368L1508 310Q1240 61 1022 -22Q956 -48 900 -48Z" />
<glyph unicode="l" glyph-name="l" horiz-adv-x="1021" d="M1182 706Q1246 706 1246 653Q1246 588 1168 498Q1039 348 864 206Q579 -22 355 -22Q194 -22 91 118Q-16 264 -16 510Q-16 833 299 1224Q499 1473 676 1562Q731 1590 760 1590T814 1581T860 1554Q909
1513 909 1455T877 1318T784 1148Q655 957 435 782Q378 673 378 520Q378 451 422 390Q467 329 521 329Q595 329 804 482L982 619Q1091 706 1182 706Z" />
<glyph unicode="m" glyph-name="m" horiz-adv-x="2379" d="M1898 548Q1898 401 1990 401Q2054 401 2211 513Q2353 618 2380 645Q2442 697 2510 697Q2539 697 2559 678T2580 619T2561 548T2513 482T2440 406T2340 318T2218 225T2080 142Q1920 60 1791 60Q1643 60
1590 194Q1559 271 1559 379L1268 182Q969 -28 912 -41Q883 -48 854 -48T798 -43T752 -24Q706 3 706 56Q706 77 734 158L820 394Q860 508 860 531Q860 539 850 539T813 518T748 464L510 256L385 152Q193 -1 72 -1Q15 -1 -43 50Q-106 104 -106 180T-92 346T-50 519T17
676T108 804Q218 922 367 922T517 834Q517 796 476 718Q389 546 389 533T397 512T416 504Q437 504 476 538Q733 763 799 817T928 912Q1070 1005 1154 1005Q1223 1005 1266 983Q1341 944 1341 895T1328 784T1298 664L1268 562Q1254 518 1254 495T1274 471Q1322 471
1465 607L1562 698Q1729 848 1815 848Q1856 848 1888 816Q1944 760 1944 718Q1944 695 1928 656Q1898 583 1898 548Z" />
<glyph unicode="n" glyph-name="n" horiz-adv-x="1531" d="M1113 537Q1113 446 1166 446Q1296 446 1504 622L1531 645Q1612 699 1662 699T1726 684T1740 636Q1740 562 1665 479Q1553 343 1358 221Q1132 79 953 79Q828 79 796 218Q787 254 783 287Q773 367 762
376T719 375T642 340T543 280Q257 90 214 63Q111 -1 75 -1T5 14T-56 52Q-110 103 -110 156Q-110 459 22 686Q110 839 238 898Q303 929 378 929Q515 929 515 839Q515 784 450 659L420 600Q388 539 389 531Q395 501 416 501Q439 501 484 535L668 672L760 736Q919
840 994 840Q1034 840 1067 808Q1128 750 1128 707Q1128 693 1126 673T1120 630L1116 583Q1113 559 1113 537Z" />
<glyph unicode="o" glyph-name="o" horiz-adv-x="1360" d="M1060 616Q1060 562 1152 562Q1220 562 1330 628L1410 672Q1447 693 1474 693T1518 676T1534 629T1514 560T1459 477T1377 391T1276 314Q1156 239 1053 239Q944 239 879 276Q859 288 840 301Q733 179
530 77Q314 -31 153 -31Q-16 -31 -114 102Q-193 210 -193 321Q-193 481 -22 626Q104 732 221 787T434 872Q635 935 796 935Q868 935 924 908T1008 852Q1072 789 1072 691Q1072 662 1066 646T1060 616ZM242 427L241 424V423Q241 380 260 367Q306 339 357 352T454
386Q568 435 660 510Q644 542 644 576Q644 648 707 720Q627 720 491 645Q341 562 266 474Q242 444 242 427Z" />
<glyph unicode="p" glyph-name="p" horiz-adv-x="1360" d="M349 250Q382 264 441 294Q802 479 837 498L879 521Q944 563 939 587Q928 638 884 629T793 603T692 564Q581 518 497 472Q203 303 143 267Q100 170 66 74L-55 -268Q-112 -427 -170 -483Q-201 -514 -239
-514Q-333 -514 -387 -449T-441 -283T-415 -85T-343 113Q-250 315 -94 490Q1 745 222 985Q357 1131 473 1191Q531 1221 572 1221T634 1203T655 1157T638 1087T592 993T524 882L441 761Q431 746 431 734Q431 715 454 715Q480 715 550 748L710 822Q920 917 1112 917Q1212
917 1300 822Q1389 726 1389 616Q1389 446 1250 354L1126 272Q1059 230 988 189L844 110Q601 -16 469 -16T276 17T216 110Q216 191 349 250Z" />
<glyph unicode="q" glyph-name="q" horiz-adv-x="1359" d="M622 110Q659 165 680 202T702 253T684 267T633 241T537 172T406 96Q254 18 143 18Q11 18 -76 124Q-159 223 -159 359Q-159 537 -10 641Q160 759 460 880Q770 1005 939 1005Q1046 1005 1046 917Q1046
841 969 817T813 759T657 689L512 615Q290 497 259 463Q216 415 216 385T263 354T355 367T450 404T557 458L788 590Q1007 716 1082 716Q1145 716 1196 672Q1251 623 1251 551Q1251 482 1120 275L958 19Q916 -48 867 -135T759 -309T647 -459Q545 -580 470 -619Q450
-629 427 -617T392 -583Q328 -462 418 -244Q457 -149 521 -47L622 110Z" />
<glyph unicode="r" glyph-name="r" horiz-adv-x="1190" d="M-54 330Q-73 330 -91 339T-126 368Q-161 412 -161 488Q-161 569 -64 690Q30 807 155 892Q289 984 385 984Q470 984 500 936L514 914Q530 889 546 889T596 892L738 902Q771 905 790 905T833 892T877 856Q919
806 919 746Q919 684 782 551L716 485Q645 412 645 393T663 360T702 345T749 356T815 390T904 445Q1041 535 1087 569L1170 628Q1255 688 1291 688T1350 673T1373 619T1334 517T1250 406T1161 319T1060 233T930 139T780 53Q601 -34 451 -34Q232 -34 184 79Q169
113 169 155T185 245T227 342Q279 437 350 510Q410 573 410 585Q410 604 389 609T325 614Q307 614 248 562L150 472Q-6 330 -54 330Z" />
<glyph unicode="s" glyph-name="s" horiz-adv-x="1190" d="M634 974Q644 954 644 922T611 848Q637 821 677 786T756 708Q848 605 848 511Q848 449 763 360Q737 332 706 308Q810 348 956 467L1073 563Q1175 648 1209 661T1272 674T1326 660T1353 615T1343 554T1319
499Q1299 463 1261 425Q1156 326 1058 244T854 102Q632 -22 362 -22Q211 -22 100 55Q54 87 30 121T5 175T18 216T53 261T103 307T162 348Q232 389 266 389T319 381T352 362Q393 334 410 334Q451 334 451 390Q451 442 396 515Q374 545 350 574T310 631Q278 594 230
555L133 473Q32 386 -54 390Q-104 394 -104 501Q-104 520 -101 538Q-96 569 -40 613T41 673T85 703L191 775Q191 877 309 962Q421 1042 531 1042Q601 1042 634 974Z" />
<glyph unicode="t" glyph-name="t" horiz-adv-x="1020" d="M1105 685Q1203 685 1203 617Q1203 552 1111 449L1062 398Q973 307 855 219T646 80Q437 -36 267 -36Q107 -36 6 60Q-81 143 -81 235T-63 418T-16 596Q42 773 111 897Q129 931 129 941H0Q-73 941 -113
975T-153 1052T-137 1115T-97 1144Q-63 1158 3 1158L248 1157Q256 1160 280 1200L341 1305Q380 1375 419 1408T512 1441T602 1431T664 1406Q713 1374 713 1336Q713 1320 702 1293L646 1157L1121 1158Q1183 1158 1183 1094Q1183 942 912 942L546 941Q534 935 505
883L460 800Q443 769 436 753L414 704Q347 553 347 486T382 374T477 329T592 352T703 408Q801 469 857 521T950 600Q950 600 1020 649Q1074 685 1105 685Z" />
<glyph unicode="u" glyph-name="u" horiz-adv-x="1701" d="M1221 503Q1221 402 1310 402Q1399 402 1618 573L1706 645Q1793 717 1872 717Q1901 717 1910 702T1919 663T1911 614T1887 560Q1854 497 1823 462T1751 390T1652 306T1526 211T1387 122Q1229 30 1127
30Q1005 30 936 116Q871 196 863 330Q683 145 482 45Q359 -16 274 -16T125 4T13 66Q-91 153 -91 308Q-91 530 68 736Q118 800 180 848Q314 932 464 932Q530 932 558 891Q569 875 569 850T555 791T519 721T473 645T426 569Q376 481 376 443T398 386T452 368Q523
368 573 402T672 482L766 574L857 668Q954 767 1004 791T1078 810T1125 789T1172 751Q1226 699 1232 657Q1234 630 1228 577T1221 503Z" />
<glyph unicode="v" glyph-name="v" horiz-adv-x="1361" d="M1245 281T1188 266T1050 250T871 306Q724 177 606 106Q399 -18 323 -18Q192 -18 113 25Q-73 130 -73 436Q-73 616 26 773Q97 886 214 935Q273 960 326 960T413 955T477 938Q544 913 544 874Q544 828
512 786T456 718L410 668Q354 609 341 583Q321 542 321 493T330 414T354 360Q386 306 419 306Q465 306 614 442Q614 442 702 523Q698 543 698 568T712 629T750 705T808 785T880 858Q965 930 1041 930Q1176 930 1176 789Q1176 701 1126 601Q1126 564 1166 539Q1178
531 1195 531T1236 545T1282 578L1325 615Q1444 723 1509 723Q1539 723 1558 705Q1592 674 1592 658T1584 625T1563 587T1533 542Q1464 448 1437 420T1373 361T1291 306Z" />
<glyph unicode="w" glyph-name="w" horiz-adv-x="2040" d="M1903 264T1844 247T1703 230T1530 282Q1301 73 1108 -12Q1048 -38 1018 -38T961 -34T908 -24Q845 -8 825 5T784 42T746 100Q707 177 696 301Q454 87 401 51T312 -1Q248 -31 175 -31T47 1T-46 82Q-124
184 -124 307Q-124 462 -46 616Q72 850 282 930Q352 957 401 957T479 953T530 936Q584 909 584 850Q584 799 542 741T470 647T415 574Q356 488 356 425Q356 379 417 379Q512 379 715 567Q757 709 850 809Q954 921 1080 921Q1186 921 1224 872Q1237 856 1237 842T1220
800L1124 650Q1012 475 1012 388Q1012 311 1106 311Q1177 311 1359 488Q1352 515 1352 543T1365 605T1403 677T1459 753T1528 822Q1611 890 1685 890Q1820 890 1820 753Q1820 666 1770 571Q1770 540 1804 518Q1814 511 1832 511T1881 527T1941 565T1997 609T2050
654Q2139 723 2183 723Q2213 723 2232 705Q2266 674 2266 658T2258 625T2237 587T2207 542Q2138 448 2110 418T2042 353T1953 292Z" />
<glyph unicode="x" glyph-name="x" horiz-adv-x="1531" d="M837 444Q909 330 990 330Q1072 330 1299 480L1408 554Q1457 589 1490 614T1547 658Q1601 700 1671 700Q1693 700 1713 687T1734 652T1728 607T1708 560Q1680 503 1655 474T1600 416T1530 349T1435 267T1320
178T1192 93T1053 21Q895 -48 769 -48Q630 -48 541 104Q515 149 493 198L183 -24Q109 -82 50 -82Q18 -82 -5 -64Q-49 -30 -49 9T-35 67T3 107L397 446Q352 551 306 551Q239 551 170 495L126 460Q32 383 -41 383Q-70 383 -94 401Q-141 436 -141 482T-40 612L-1 645Q25
669 52 692L257 859Q405 974 500 974Q583 974 662 813Q685 766 708 714L892 872Q1052 1007 1132 1007Q1193 1007 1244 971Q1339 904 1339 843Q1339 805 1307 786Q1301 783 1286 772L1060 604L837 444Z" />
<glyph unicode="y" glyph-name="y" horiz-adv-x="1530" d="M356 425Q356 379 417 379Q541 379 839 688L936 786Q1035 883 1067 883T1124 872T1168 844Q1207 809 1207 770T1199 683T1172 576Q1139 466 1053 281L1012 193L1182 347L1530 645Q1583 685 1618 685Q1694
685 1694 612Q1694 537 1596 419Q1566 382 1531 350L1295 145L835 -244Q774 -297 743 -328Q706 -388 686 -417T645 -480T606 -538Q565 -590 524 -590Q481 -590 441 -555Q367 -490 367 -439T395 -321T468 -166L680 225Q527 87 440 43T294 -16T168 -31T51 -4T-32
70Q-96 161 -96 307Q-96 462 -18 613Q57 761 180 851Q310 947 447 947T584 840Q584 773 470 642T356 425Z" />
<glyph unicode="z" glyph-name="z" horiz-adv-x="1532" d="M714 640T714 646T676 652H546Q395 652 374 645T325 618T266 576L201 527Q78 434 23 434Q-41 434 -65 486Q-73 504 -73 531T-56 585T-11 636T52 689T123 748T198 810T277 865Q365 918 429 918Q452 918
525 924Q693 937 757 942Q1055 968 1074 968T1118 971L1170 977Q1196 980 1220 983T1255 986T1287 978T1328 951Q1377 907 1377 837Q1377 771 1099 621L790 462Q716 424 663 394Q701 388 752 374L938 322Q976 312 993 312T1049 328T1136 371T1240 433L1347 506Q1462
587 1530 649Q1562 677 1600 677Q1677 677 1677 615Q1677 534 1598 426Q1574 394 1552 372L1486 313Q1208 64 983 -22Q915 -48 860 -48T743 -30T622 10L510 49Q456 67 416 67T340 49T268 8Q173 -52 104 -52Q62 -52 31 -20Q-28 41 -28 78T-4 150T58 219T142 288Q257
371 297 397T352 433T400 462Q650 598 682 619Z" />
<glyph unicode="{" glyph-name="braceleft" horiz-adv-x="1531" d="M487 -195Q198 -195 198 -14Q198 90 298 276L338 354Q384 447 384 482Q384 541 352 556Q345 559 338 574T330 608Q330 659 386 678T478 730T540 807T588 902Q588 902 630 1004Q756 1304 993 1378Q1058
1399 1136 1399T1214 1349Q1214 1297 1146 1265Q1124 1255 1098 1253T1040 1224T978 1158Q918 1080 888 1012T825 880T750 758Q652 623 539 602Q585 569 585 499Q585 384 474 203Q427 125 427 72T449 -14T509 -56T557 -82T567 -114T562 -145T546 -170Q523 -195
487 -195Z" />
<glyph unicode="|" glyph-name="bar" horiz-adv-x="1192" d="M510 1530H682V-170H510V1530Z" />
<glyph unicode="}" glyph-name="braceright" horiz-adv-x="1531" d="M423 -174Q358 -195 280 -195T202 -145Q202 -93 270 -61Q291 -51 317 -49T375 -20T437 46Q499 127 529 193T591 324T666 446Q764 581 877 602Q831 635 831 705Q831 820 942 1001Q989 1079 989
1132T967 1218T907 1260T859 1286T849 1318T854 1349T870 1374Q893 1399 929 1399Q1218 1399 1218 1218Q1218 1114 1118 928L1078 850Q1032 757 1032 722Q1032 663 1064 648Q1071 645 1078 630T1086 596Q1086 545 1030 526T938 474T876 397T828 302L786 200Q660
-100 423 -174Z" />
<glyph unicode="~" glyph-name="asciitilde" horiz-adv-x="2208" d="M313 342Q266 342 266 373Q266 395 290 416T355 470T450 539T568 616T698 686Q849 758 931 758T1069 737T1177 685T1274 616T1364 548Q1467 474 1536 474Q1624 474 1735 520Q1763 531 1778 539T1810
548T1842 538T1857 516Q1857 493 1836 478T1777 440T1685 388T1567 330T1434 276Q1276 219 1185 219T1022 232T883 265T755 308L642 352Q520 398 483 398Q418 398 353 353Q336 342 313 342Z" />
<glyph unicode="&#xa0;" glyph-name="nbspace" horiz-adv-x="851" />
<glyph unicode="&#xa1;" glyph-name="exclamdown" horiz-adv-x="1193" d="M512 560Q495 579 495 616T526 697T606 775Q716 851 833 851Q931 851 972 796Q995 765 995 741T988 698T966 657T926 607T866 558Q782 508 677 508Q557 508 512 560ZM46 -484T18 -465T-11
-424T8 -352T60 -235T133 -92T220 56Q319 213 376 265T479 342T568 382Q752 447 752 381Q752 368 746 354L506 -180L445 -306Q381 -434 363 -457T334 -491T309 -510Q277 -530 243 -530T167 -522T86 -499Z" />
<glyph unicode="&#xa2;" glyph-name="cent" horiz-adv-x="2040" d="M856 -27Q812 -27 812 17Q812 33 817 45L865 162H854Q609 162 452 266Q384 311 350 364T315 467T327 569T364 671Q421 780 516 824L704 908Q1009 1038 1247 1097L1276 1164Q1291 1196 1302 1222L1322
1268Q1330 1288 1334 1300T1357 1326T1402 1350Q1459 1372 1514 1372T1570 1340Q1570 1326 1546 1268L1491 1133Q1715 1130 1755 1016Q1767 982 1767 947T1741 883T1675 832Q1590 784 1527 784T1431 802T1366 844L1202 481Q1378 494 1478 536Q1631 589 1694 589Q1788
589 1788 531Q1788 455 1638 366Q1524 298 1356 247T1061 177L1010 72Q989 30 980 19T955 -1T920 -16Q887 -27 856 -27ZM793 590Q793 566 809 547T853 514Q902 490 994 481L1113 780L1122 806Q1128 822 1135 839Q988 797 884 714Q793 642 793 590Z" />
<glyph unicode="&#xa3;" glyph-name="sterling" horiz-adv-x="2381" d="M981 655Q801 659 768 659T726 662T708 673Q686 691 690 705T702 736T724 770Q757 809 795 818Q833 827 1112 831Q1327 1162 1477 1291Q1647 1437 1846 1437Q1997 1437 2090 1370Q2126 1343
2141 1318T2157 1282Q2157 1088 1585 993Q1561 961 1535 922L1480 835H1562Q1884 835 1938 826Q1972 817 1972 783T1962 723T1934 675Q1892 624 1838 624Q1823 624 1791 625T1718 627T1628 629T1532 633Q1422 638 1361 643Q1257 484 1200 407L1182 386L1442 322Q1564
293 1587 293T1635 294T1684 299Q1746 309 1776 332Q1836 377 1886 377T1959 352T1976 289T1953 213T1912 136T1854 58T1777 -10Q1682 -75 1573 -75Q1511 -75 1375 -28Q1021 93 931 116Q829 29 560 -7Q470 -19 400 -19T308 -9T273 16Q254 41 254 90Q254 173 356
311Q429 409 532 454Q586 477 654 477T818 461L981 655Z" />
<glyph unicode="&#xa4;" glyph-name="currency" horiz-adv-x="2042" d="M1234 307Q1035 214 795 214Q713 214 642 231L388 -4Q362 -28 358 -32Q344 -46 324 -46Q296 -46 276 -20Q264 -8 264 22T272 66T300 101L497 304Q409 382 409 517Q409 716 651 893Q307 1242
294 1263T290 1306T323 1344Q376 1383 419 1383T476 1369T523 1316L799 982Q979 1070 1132 1070H1150Q1165 1070 1175 1065L1196 1054Q1224 1039 1239 1026Q1575 1356 1597 1371T1641 1376T1679 1343Q1718 1290 1718 1247T1705 1191T1666 1154L1434 951Q1587 901
1587 754Q1587 617 1469 480Q1429 433 1374 391L1650 110Q1677 82 1686 67T1695 32Q1695 -8 1684 -21Q1662 -45 1635 -45Q1614 -45 1606 -37L1234 307ZM702 702Q676 653 676 603T696 522T750 471Q813 433 889 433T1016 445T1112 478T1199 529T1270 594Q1334 669
1334 749Q1334 790 1275 823T1191 877T1165 925T1210 997Q808 896 702 702Z" />
<glyph unicode="&#xa5;" glyph-name="yen" horiz-adv-x="2207" d="M1589 418Q1631 418 1631 384Q1631 339 1596 291Q1530 204 1491 206Q1474 207 1442 207T1369 209T1282 210T1190 212Q1098 214 1033 214H1014L946 72Q919 17 908 -4Q887 -48 806 -48Q755 -48 707
-29T641 2Q600 30 605 60Q606 68 617 105L646 199Q587 196 532 194L432 189Q334 185 326 184T308 184T289 193Q265 209 268 225T277 258T296 292Q323 334 361 347Q385 356 511 364T705 378L746 501Q681 498 618 496T504 490Q392 485 383 484T363 484T344 493Q320
509 323 525T332 558T350 592Q378 634 416 647Q447 658 763 686L660 960Q627 1054 614 1070Q590 1103 553 1103T479 1095T402 1085Q338 1082 338 1149Q338 1180 353 1212T394 1262Q611 1388 930 1408Q991 1411 1044 1354Q1070 1327 1074 1293T1081 1216Q1088 1117
1088 976T1074 713H1077Q1233 906 1303 984Q1604 1317 1804 1390Q1835 1401 1862 1401T1927 1387T1996 1349Q2070 1292 2064 1226Q2060 1182 2010 1161Q1892 1116 1687 961L1538 845L1409 739Q1478 744 1538 748L1646 754Q1739 758 1766 756Q1792 752 1792 726T1778
670T1742 611Q1691 543 1652 545Q1618 545 1556 541T1444 533T1344 526Q1234 519 1160 515L1151 507L1102 401Q1176 405 1246 408L1376 414Q1485 418 1532 418H1589Z" />
<glyph unicode="&#xa6;" glyph-name="brokenbar" horiz-adv-x="1192" d="M510 1530H682V850H510V1530ZM510 510H682V-170H510V510Z" />
<glyph unicode="&#xa7;" glyph-name="section" horiz-adv-x="2211" d="M1559 1361L1675 1360Q1736 1360 1756 1310Q1762 1294 1759 1264T1731 1203T1673 1150Q1604 1109 1529 1109Q1514 1109 1484 1119L1414 1142Q1313 1174 1254 1174Q1133 1174 1082 1093Q1074
1079 1097 1065T1163 1035T1265 999T1384 956T1504 905T1608 843Q1763 727 1660 566Q1565 416 1314 335Q1484 243 1474 129Q1446 -115 1014 -191Q855 -219 749 -219T586 -214T470 -198T355 -169T256 -126Q161 -68 170 10Q178 94 280 116Q309 123 351 123T433 114T504
91T568 62T638 32Q727 0 850 0L976 -6Q1014 -6 1036 9T1063 76Q1067 116 878 194L768 242Q629 305 573 347T490 424T464 490T480 564T545 658T659 746Q778 815 951 856L897 878Q871 888 833 907T769 965T744 1040Q744 1205 1001 1292Q1205 1361 1559 1361ZM822
600Q904 516 1029 516Q1139 516 1233 574Q1327 632 1333 699Q1335 717 1292 736T1182 778L1176 772Q995 772 890 707Q822 664 822 600Z" />
<glyph unicode="&#xa8;" glyph-name="dieresis" horiz-adv-x="1189" d="M1003 1179T973 1165T907 1151T838 1164T778 1203Q724 1256 724 1340Q724 1457 912 1513Q975 1532 1015 1532T1076 1522T1109 1495Q1135 1461 1135 1426T1128 1365T1107 1310T1073 1253T1028
1202ZM381 1179T351 1165T285 1151T216 1164T156 1203Q102 1256 102 1340Q102 1457 290 1513Q353 1532 393 1532T454 1522T487 1495Q513 1461 513 1426T506 1365T485 1310T451 1253T406 1202Z" />
<glyph unicode="&#xa9;" glyph-name="copyright" horiz-adv-x="2387" d="M459 695Q459 822 516 955T674 1188T907 1345T1193 1403Q1345 1403 1478 1346T1712 1189T1869 956T1927 696T1901 475T1827 300T1712 151T1564 36Q1394 -64 1193 -64Q889 -64 674 151T459
695ZM558 648Q558 538 608 423T744 220Q928 35 1193 35Q1458 35 1642 220Q1828 408 1828 670Q1828 934 1642 1118Q1455 1304 1193 1304Q931 1304 744 1118Q558 934 558 648ZM1211 237Q839 237 839 666Q839 990 1052 1080Q1121 1110 1208 1110T1405 1079Q1402 1010
1378 958Q1301 986 1230 986T1116 963T1045 896Q985 809 985 666Q985 452 1116 388Q1158 368 1229 368T1392 396Q1417 357 1414 278Q1305 237 1211 237Z" />
<glyph unicode="&#xaa;" glyph-name="ordfeminine" horiz-adv-x="1868" d="M1507 866Q1549 866 1549 802Q1549 784 1524 751T1454 686Q1347 605 1234 605Q1148 605 1104 668Q1084 696 1070 733T1036 811Q778 653 713 624Q594 571 538 571T438 593T361 652Q294
729 294 832Q294 942 373 1010Q495 1118 740 1214Q970 1304 1114 1304Q1162 1304 1162 1256Q1162 1224 1150 1208T1098 1173L1004 1132Q790 1042 696 950Q667 925 667 901Q667 875 708 875Q746 875 889 958L989 1017Q1102 1082 1194 1082Q1278 1082 1303 1010L1324
950Q1345 891 1367 875T1411 859Q1455 866 1473 866H1507Z" />
<glyph unicode="&#xab;" glyph-name="guillemotleft" horiz-adv-x="2043" d="M1041 284T1017 320T993 393T1015 463T1075 534T1159 607T1255 678T1352 742Q1467 812 1494 827T1529 846T1552 849T1582 842Q1614 826 1614 805T1598 773T1557 741T1501 686T1436 612T1374
528Q1309 427 1309 358Q1309 272 1421 196Q1455 173 1455 156T1442 129T1412 115Q1369 103 1355 110T1311 129T1242 158T1158 200T1078 254ZM557 284T533 320T509 393T531 463T591 534T675 607T771 678T868 742Q983 812 1010 827T1045 846T1068 849T1098 842Q1130
826 1130 805T1114 773T1073 741T1017 686T952 612T890 528Q825 427 825 358Q825 272 937 196Q971 173 971 156T958 129T928 115Q885 103 871 110T827 129T758 158T674 200T594 254Z" />
<glyph unicode="&#xac;" glyph-name="logicalnot" horiz-adv-x="2209" d="M542 676H1633V181H1480V523H542V676Z" />
<glyph unicode="&#xad;" glyph-name="uni00AD" horiz-adv-x="1229" />
<glyph unicode="&#xae;" glyph-name="registered" horiz-adv-x="2387" d="M459 695Q459 822 516 955T674 1188T907 1345T1193 1403Q1345 1403 1478 1346T1712 1189T1869 956T1927 696T1901 475T1827 300T1712 151T1564 36Q1394 -64 1193 -64Q889 -64 674 151T459
695ZM558 648Q558 538 608 423T744 220Q928 35 1193 35Q1458 35 1642 220Q1828 408 1828 670Q1828 934 1642 1118Q1455 1304 1193 1304Q931 1304 744 1118Q558 934 558 648ZM1176 608Q1106 608 1054 615V256H916V1092H1236Q1430 1092 1482 954Q1499 911 1499 844T1457
714T1325 625L1526 256H1370L1196 608H1176ZM1162 714Q1347 714 1347 855Q1347 917 1308 950T1196 984H1054V721Q1092 714 1162 714Z" />
<glyph unicode="&#xaf;" glyph-name="overscore" horiz-adv-x="1024" d="M280 1240Q245 1240 245 1281Q245 1320 267 1360T310 1416T354 1446Q403 1472 441 1472H1020Q1036 1472 1050 1461T1064 1429Q1064 1389 1038 1345T975 1270T900 1239L280 1240Z" />
<glyph unicode="&#xb0;" glyph-name="degree" horiz-adv-x="1877" d="M1122 1285Q1147 1294 1179 1294T1244 1289T1313 1274T1384 1247T1448 1208Q1513 1154 1513 1092T1473 967T1364 845T1207 730T1020 634Q809 545 635 545Q506 545 432 610Q372 662 372 719T393
825T449 924T526 1019T611 1104Q677 1167 747 1216T864 1293T942 1335Q995 1360 1007 1360T1033 1351T1066 1330Q1102 1305 1122 1285ZM611 775T611 747T627 715T680 711T781 733T910 789T1037 867T1145 952Q1249 1045 1249 1091Q1249 1124 1208 1141Q1183 1152
1156 1152Q1091 1152 1060 1143Q923 1078 776 962Q676 883 644 829Z" />
<glyph unicode="&#xb1;" glyph-name="plusminus" horiz-adv-x="2209" d="M542 844H1012V1336H1165V844H1633V691H1165V336H1012V691H542V844ZM542 153H1633V0H542V153Z" />
<glyph unicode="&#xb2;" glyph-name="twosuperior" horiz-adv-x="1698" d="M447 1504Q447 1702 901 1826Q1136 1890 1382 1910Q1450 1916 1495 1916T1573 1903T1628 1865Q1671 1818 1671 1757T1658 1650T1618 1559Q1561 1461 1462 1394Q1275 1300 1008 1232L881
1200Q798 1180 747 1171Q765 1172 818 1173T943 1176T1097 1182T1258 1196Q1436 1217 1497 1260Q1515 1272 1529 1272T1555 1266T1571 1249T1577 1228T1570 1207L1444 1066L1389 1008Q1328 947 1300 938T1216 922T1092 910Q964 901 849 901T675 902T562 906Q434
911 394 914T337 929T308 958Q287 992 287 1037Q287 1134 333 1171Q339 1175 381 1190Q811 1341 926 1392T1106 1480Q1247 1558 1260 1614Q1274 1676 1105 1676Q992 1676 836 1556T563 1436T447 1504Z" />
<glyph unicode="&#xb3;" glyph-name="threesuperior" horiz-adv-x="1869" d="M328 1047T327 1069T330 1116T353 1187T408 1279Q493 1388 629 1388Q697 1388 718 1344Q726 1326 726 1307T724 1275Q707 1182 806 1128Q892 1082 1028 1082Q1215 1082 1308 1157Q1337
1181 1343 1212T1330 1264T1276 1297T1199 1316T1117 1324T1049 1326H1013Q1001 1326 990 1336T978 1358Q978 1384 1004 1396T1071 1425L1268 1506Q1474 1593 1481 1623Q1492 1677 1384 1686Q1352 1688 1321 1688T1245 1684T1146 1673T1032 1655T914 1633Q781 1605
736 1587T673 1569Q636 1569 679 1623Q697 1645 724 1684Q801 1795 825 1827T862 1865Q917 1891 1083 1902T1315 1914T1448 1912T1586 1904Q1754 1888 1839 1855Q1857 1825 1857 1787T1845 1708T1814 1632Q1775 1557 1738 1538Q1680 1516 1638 1498L1564 1468Q1496
1439 1459 1431Q1555 1431 1672 1382Q1764 1345 1797 1278Q1814 1244 1805 1201T1757 1120T1654 1047T1508 985T1328 937Q1124 895 944 895T664 906T498 935T396 976T344 1023Z" />
<glyph unicode="&#xb4;" glyph-name="acute" horiz-adv-x="849" d="M105 1063T84 1081T62 1121T88 1181T158 1264T255 1358T365 1446Q491 1537 557 1537Q606 1537 640 1507Q705 1451 705 1387Q705 1375 700 1350Q681 1326 623 1299L522 1254Q442 1218 371 1176L262
1112Q179 1063 142 1063Z" />
<glyph unicode="&#xb5;" glyph-name="mu" horiz-adv-x="2210" d="M1125 -1T1073 -10T930 -20T739 30L753 -436H609L610 331V1022H782V350Q782 234 830 178T1016 122T1234 188V1022H1406V154L1508 50V0H1336L1255 71Q1233 59 1212 43T1158 13Z" />
<glyph unicode="&#xb6;" glyph-name="paragraph" horiz-adv-x="2046" d="M970 519Q748 519 620 642Q499 757 499 936Q499 1125 619 1241T933 1358H1530V-160H1347V1207H1143V-160H970V519Z" />
<glyph unicode="&#xb7;" glyph-name="middot" horiz-adv-x="1187" d="M838 653Q857 626 857 580T828 492T753 420Q659 360 540 360Q425 360 378 419Q351 452 351 497Q351 586 442 655T659 724T838 653Z" />
<glyph unicode="&#xb8;" glyph-name="cedilla" horiz-adv-x="1229" d="M544 -122Q750 -179 750 -300Q750 -399 570 -524Q475 -589 413 -613T327 -637T287 -615T271 -569T294 -519L344 -466Q418 -391 418 -333Q418 -320 394 -302L343 -262Q268 -203 268 -161Q268
-125 333 -52T450 68T552 154Q671 242 733 242Q780 242 817 214Q888 163 888 110Q888 64 848 36Q808 10 752 -15L660 -57Q581 -94 544 -122Z" />
<glyph unicode="&#xb9;" glyph-name="onesuperior" horiz-adv-x="1416" d="M566 1416Q566 1501 657 1584Q675 1610 748 1651Q911 1738 980 1770L1108 1828Q1305 1914 1346 1914Q1354 1914 1369 1914T1402 1912Q1447 1903 1463 1878T1481 1840T1472 1792T1431 1693T1366
1554L1208 1254Q1109 1081 1077 1029T1020 953T975 916Q942 897 904 897H869Q715 897 672 934Q665 940 665 953Q665 979 690 1025L971 1551Q652 1377 609 1377T566 1416Z" />
<glyph unicode="&#xba;" glyph-name="ordmasculine" horiz-adv-x="1529" d="M533 565Q405 565 336 670Q284 751 284 848Q284 977 432 1086Q475 1118 532 1151T670 1212T830 1257Q985 1292 1097 1292Q1158 1292 1216 1228Q1273 1168 1273 1100T1238 964T1145 837T1011
727T852 641Q678 565 533 565ZM660 873T669 867T688 860T723 866T780 884T849 912T920 949Q998 995 1025 1040Q1028 1048 1028 1061T1022 1088Q1008 1121 973 1121T902 1111T832 1085T765 1049T706 1008Q650 963 646 943T644 909T653 884Z" />
<glyph unicode="&#xbb;" glyph-name="guillemotright" horiz-adv-x="2048" d="M928 119T919 129T909 155T925 181T966 213T1022 268T1087 342T1149 426Q1214 527 1214 596Q1214 682 1102 758Q1068 781 1068 798T1081 824T1112 839Q1154 851 1168 844T1212 825T1281
796T1365 754T1446 700Q1530 631 1530 554Q1530 436 1170 212Q1056 142 1029 127T994 108T971 105T942 112ZM446 119T437 129T427 155T443 181T484 213T540 268T605 342T667 426Q732 527 732 596Q732 682 620 758Q586 781 586 798T599 824T630 839Q672 851 686
844T730 825T799 796T883 754T964 700Q1048 631 1048 554Q1048 436 688 212Q574 142 547 127T512 108T489 105T460 112Z" />
<glyph unicode="&#xbc;" glyph-name="onequarter" horiz-adv-x="2890" d="M346 1198Q346 1284 436 1366Q454 1392 527 1433Q690 1520 759 1552L886 1610Q1084 1696 1125 1696Q1133 1696 1148 1696T1182 1694Q1226 1685 1242 1660T1261 1622T1252 1574T1210 1475T1144
1336Q1040 1131 994 1048Q890 864 857 812T800 735T754 698Q721 679 683 679H648Q494 679 451 716Q444 722 444 735Q444 761 469 807L750 1333Q431 1159 389 1159T346 1198ZM414 -53T400 -40T385 -5T396 33T450 94L921 556Q1760 1354 1821 1409T1896 1473Q1909
1482 1924 1482T1952 1471T1976 1442Q1999 1405 1999 1374Q1999 1319 1981 1303T1928 1256L1278 726Q1222 678 1165 626Q599 84 554 39L491 -26Q464 -53 439 -53ZM1510 -88Q1296 -96 1194 -96Q1042 -96 1022 -93T986 -73T958 -30Q928 28 928 69Q928 137 959 163Q1489
594 2110 787Q2159 804 2172 804T2199 795T2225 774Q2248 751 2266 718Q2393 725 2440 662Q2461 638 2399 583Q2212 398 2034 165L2282 173Q2317 173 2316 138Q2315 129 2308 121Q2301 113 2283 88L2243 36Q2187 -36 2174 -43T2135 -54T2069 -60Q1980 -68 1856
-74L1762 -200Q1677 -307 1631 -328T1556 -350Q1502 -350 1471 -319Q1450 -301 1450 -252T1510 -88ZM1311 145L1589 155H1622Q1642 155 1668 156Q1713 219 1761 280Q1954 517 2004 574Q1660 429 1397 244Q1318 189 1275 146Q1283 145 1292 145H1311Z" />
<glyph unicode="&#xbd;" glyph-name="onehalf" horiz-adv-x="2890" d="M346 1198Q346 1284 436 1366Q454 1392 527 1433Q690 1520 759 1552L886 1610Q1084 1696 1125 1696Q1133 1696 1148 1696T1182 1694Q1226 1685 1242 1660T1261 1622T1252 1574T1210 1475T1144
1336Q1040 1131 994 1048Q890 864 857 812T800 735T754 698Q721 679 683 679H648Q494 679 451 716Q444 722 444 735Q444 761 469 807L750 1333Q431 1159 389 1159T346 1198ZM414 -53T400 -40T385 -5T396 33T450 94L921 556Q1760 1354 1821 1409T1896 1473Q1909
1482 1924 1482T1952 1471T1976 1442Q1999 1405 1999 1374Q1999 1319 1981 1303T1928 1256L1278 726Q1222 678 1165 626Q599 84 554 39L491 -26Q464 -53 439 -53ZM1097 291Q1097 489 1551 613Q1786 677 2032 698Q2100 703 2145 703T2223 690T2278 652Q2321 605
2321 544T2308 437T2268 346Q2211 248 2112 181Q1857 53 1440 -34Q1404 -41 1398 -42Q1416 -40 1468 -40T1593 -37T1747 -31T1908 -16Q2088 6 2147 47Q2165 59 2179 59T2205 53T2221 36T2227 15T2220 -6Q2129 -111 2097 -145L2040 -205Q1981 -265 1952 -274T1867
-291T1744 -304Q1616 -312 1501 -312T1326 -311T1213 -308Q1082 -301 1043 -298T987 -284T958 -254Q937 -221 937 -177Q937 -78 984 -42Q990 -38 1032 -24Q1459 127 1575 179T1756 266Q1897 345 1910 401Q1924 463 1755 463Q1642 463 1486 343T1213 223T1097 291Z"
/>
<glyph unicode="&#xbe;" glyph-name="threequarters" horiz-adv-x="3572" d="M845 681Q263 681 263 867Q263 903 286 961T344 1065Q429 1174 565 1174Q633 1174 654 1130Q662 1112 662 1093T660 1061Q643 966 740 912Q826 865 961 865Q1149 865 1244 942Q1274
967 1280 998T1267 1050T1213 1083T1136 1102T1054 1110T986 1112Q986 1112 950 1112Q938 1112 927 1122T915 1145Q915 1170 941 1182T1007 1211L1204 1292Q1410 1379 1418 1409Q1429 1463 1322 1472Q1289 1474 1258 1474T1182 1470T1083 1459T969 1441T850 1419Q717
1392 672 1374T610 1355T592 1367T610 1402T644 1446L712 1546Q777 1642 794 1649T856 1665T966 1682Q1126 1700 1221 1700T1385 1698T1524 1690Q1689 1674 1775 1641Q1793 1611 1793 1573T1781 1494T1750 1418Q1711 1342 1675 1324Q1617 1302 1575 1284L1500 1254Q1430
1224 1395 1217Q1483 1217 1559 1188T1668 1136Q1744 1085 1744 1015Q1744 872 1444 771Q1177 681 845 681ZM1096 -53T1082 -40T1067 -5T1078 33T1132 94L1603 556Q2442 1354 2503 1409T2578 1473Q2591 1482 2606 1482T2634 1471T2658 1442Q2681 1405 2681 1374Q2681
1319 2663 1303T2610 1256L1960 726Q1904 678 1847 626Q1281 84 1236 39L1173 -26Q1146 -53 1121 -53ZM2192 -88Q1978 -96 1876 -96Q1724 -96 1704 -93T1668 -73T1640 -30Q1610 28 1610 69Q1610 137 1641 163Q2171 594 2792 787Q2841 804 2854 804T2881 795T2907
774Q2930 751 2948 718Q3075 725 3122 662Q3143 638 3081 583Q2894 398 2716 165L2964 173Q2999 173 2998 138Q2997 129 2990 121Q2983 113 2965 88L2925 36Q2869 -36 2856 -43T2817 -54T2751 -60Q2662 -68 2538 -74L2444 -200Q2359 -307 2313 -328T2238 -350Q2184
-350 2153 -319Q2132 -301 2132 -252T2192 -88ZM1993 145L2271 155H2304Q2324 155 2350 156Q2395 219 2443 280Q2636 517 2686 574Q2342 429 2079 244Q2000 189 1957 146Q1965 145 1974 145H1993Z" />
<glyph unicode="&#xbf;" glyph-name="questiondown" horiz-adv-x="1698" d="M698 761Q678 780 678 811T699 880T756 948Q837 1021 933 1021Q1070 1021 1129 990T1188 896Q1188 876 1172 845T1118 784Q1029 711 884 711Q751 711 698 761ZM281 -283T236 -231T190
-126T213 -35T275 41T363 118T463 193Q463 193 650 322Q736 380 736 401T718 436T672 458Q622 472 558 472Q504 472 436 463T364 453Q348 453 337 461Q313 478 325 494T345 524T372 552T419 581T498 606Q609 631 789 631Q1109 631 1184 498Q1202 464 1202 427T1180
349T1121 269T1038 192T943 121T848 60L706 -23Q683 -36 683 -41T703 -55T758 -72Q840 -89 905 -89T1007 -82T1080 -64Q1135 -50 1189 -28Q1221 -15 1244 -34Q1286 -70 1263 -100Q1236 -134 1199 -167L1130 -228Q1010 -329 937 -358Q866 -388 735 -388T514 -371T353
-318Z" />
<glyph unicode="&#xc0;" glyph-name="Agrave" horiz-adv-x="2551" d="M1754 1721T1754 1755T1760 1816T1780 1864Q1811 1913 1868 1913Q1900 1913 1951 1872L2036 1800Q2071 1771 2114 1742L2282 1630Q2365 1576 2379 1547T2394 1488T2363 1444Q2355 1439 2329
1439T2254 1450T2146 1479T2028 1523T1914 1576Q1796 1641 1775 1681ZM257 -67Q205 -67 159 -43T74 27Q-11 130 -11 274Q-11 333 35 392T188 500Q426 607 883 607L1720 1256Q1762 1289 1770 1296Q1783 1310 1803 1310T1843 1306T1879 1295Q1914 1280 1914 1260Q1914
1246 1907 1238L1335 610H1579Q1595 646 1632 710L1724 860Q1778 946 1830 1022L1931 1162Q2086 1369 2155 1369Q2162 1369 2209 1351T2290 1314Q2370 1272 2370 1235Q2370 1200 2339 1162T2274 1071T2200 954T2120 815T2048 672Q1975 515 1975 460T1983 379T2004
342Q2023 323 2065 323T2150 338T2235 377T2317 428T2395 480Q2483 534 2525 534T2581 515T2596 464T2570 381T2497 272T2386 162T2246 64Q2075 -31 1911 -31Q1763 -31 1650 73Q1524 188 1524 370Q1524 379 1524 388T1525 407L1106 354Q929 180 678 56Q426 -67
257 -67Z" />
<glyph unicode="&#xc1;" glyph-name="Aacute" horiz-adv-x="2551" d="M2182 1441T2161 1459T2139 1499T2165 1559T2235 1642T2332 1736T2442 1824Q2568 1915 2634 1915Q2683 1915 2717 1885Q2782 1829 2782 1765Q2782 1753 2777 1728Q2758 1704 2700 1677L2600
1632Q2519 1596 2448 1554L2340 1490Q2256 1441 2219 1441ZM257 -67Q205 -67 159 -43T74 27Q-11 130 -11 274Q-11 333 35 392T188 500Q426 607 883 607L1720 1256Q1762 1289 1770 1296Q1783 1310 1803 1310T1843 1306T1879 1295Q1914 1280 1914 1260Q1914 1246
1907 1238L1335 610H1579Q1595 646 1632 710L1724 860Q1778 946 1830 1022L1931 1162Q2086 1369 2155 1369Q2162 1369 2209 1351T2290 1314Q2370 1272 2370 1235Q2370 1200 2339 1162T2274 1071T2200 954T2120 815T2048 672Q1975 515 1975 460T1983 379T2004 342Q2023
323 2065 323T2150 338T2235 377T2317 428T2395 480Q2483 534 2525 534T2581 515T2596 464T2570 381T2497 272T2386 162T2246 64Q2075 -31 1911 -31Q1763 -31 1650 73Q1524 188 1524 370Q1524 379 1524 388T1525 407L1106 354Q929 180 678 56Q426 -67 257 -67Z"
/>
<glyph unicode="&#xc2;" glyph-name="Acircumflex" horiz-adv-x="2551" d="M2071 1534T2065 1547T2058 1580T2078 1621T2134 1671T2213 1729T2306 1785T2404 1834Q2512 1880 2569 1880T2666 1860T2744 1807Q2802 1759 2884 1656Q2899 1641 2899 1620T2881 1577T2834
1536Q2772 1495 2716 1495Q2676 1495 2569 1572T2436 1650T2378 1638T2307 1606Q2220 1562 2166 1514Q2152 1503 2136 1503T2106 1508T2082 1524ZM257 -67Q205 -67 159 -43T74 27Q-11 130 -11 274Q-11 333 35 392T188 500Q426 607 883 607L1720 1256Q1762 1289
1770 1296Q1783 1310 1803 1310T1843 1306T1879 1295Q1914 1280 1914 1260Q1914 1246 1907 1238L1335 610H1579Q1595 646 1632 710L1724 860Q1778 946 1830 1022L1931 1162Q2086 1369 2155 1369Q2162 1369 2209 1351T2290 1314Q2370 1272 2370 1235Q2370 1200 2339
1162T2274 1071T2200 954T2120 815T2048 672Q1975 515 1975 460T1983 379T2004 342Q2023 323 2065 323T2150 338T2235 377T2317 428T2395 480Q2483 534 2525 534T2581 515T2596 464T2570 381T2497 272T2386 162T2246 64Q2075 -31 1911 -31Q1763 -31 1650 73Q1524
188 1524 370Q1524 379 1524 388T1525 407L1106 354Q929 180 678 56Q426 -67 257 -67Z" />
<glyph unicode="&#xc3;" glyph-name="Atilde" horiz-adv-x="2551" d="M1955 1591T1937 1581T1902 1570T1871 1575T1846 1590Q1822 1610 1822 1636T1838 1678T1879 1713T1938 1750T2015 1789T2102 1824Q2203 1860 2268 1860T2380 1834T2465 1777T2539 1719T2608
1693Q2682 1693 2754 1724Q2773 1731 2794 1731T2839 1713T2862 1669T2841 1625T2775 1582T2670 1536Q2527 1483 2414 1483Q2333 1483 2218 1552L2142 1598Q2109 1620 2088 1620Q2022 1620 1989 1606ZM257 -67Q205 -67 159 -43T74 27Q-11 130 -11 274Q-11 333 35
392T188 500Q426 607 883 607L1720 1256Q1762 1289 1770 1296Q1783 1310 1803 1310T1843 1306T1879 1295Q1914 1280 1914 1260Q1914 1246 1907 1238L1335 610H1579Q1595 646 1632 710L1724 860Q1778 946 1830 1022L1931 1162Q2086 1369 2155 1369Q2162 1369 2209
1351T2290 1314Q2370 1272 2370 1235Q2370 1200 2339 1162T2274 1071T2200 954T2120 815T2048 672Q1975 515 1975 460T1983 379T2004 342Q2023 323 2065 323T2150 338T2235 377T2317 428T2395 480Q2483 534 2525 534T2581 515T2596 464T2570 381T2497 272T2386
162T2246 64Q2075 -31 1911 -31Q1763 -31 1650 73Q1524 188 1524 370Q1524 379 1524 388T1525 407L1106 354Q929 180 678 56Q426 -67 257 -67Z" />
<glyph unicode="&#xc4;" glyph-name="Adieresis" horiz-adv-x="2551" d="M2462 1592T2448 1627T2433 1702T2449 1772T2493 1826T2553 1867T2620 1895Q2684 1916 2724 1916T2785 1906T2818 1879Q2844 1845 2844 1810T2837 1746T2816 1686T2782 1625T2737 1570Q2681
1515 2631 1515T2547 1528T2488 1567ZM1840 1592T1826 1627T1811 1702T1827 1772T1871 1826T1931 1867T1998 1895Q2062 1916 2102 1916T2163 1906T2196 1879Q2222 1845 2222 1810T2215 1746T2194 1686T2160 1625T2115 1570Q2059 1515 2009 1515T1925 1528T1866
1567ZM257 -67Q205 -67 159 -43T74 27Q-11 130 -11 274Q-11 333 35 392T188 500Q426 607 883 607L1720 1256Q1762 1289 1770 1296Q1783 1310 1803 1310T1843 1306T1879 1295Q1914 1280 1914 1260Q1914 1246 1907 1238L1335 610H1579Q1595 646 1632 710L1724 860Q1778
946 1830 1022L1931 1162Q2086 1369 2155 1369Q2162 1369 2209 1351T2290 1314Q2370 1272 2370 1235Q2370 1200 2339 1162T2274 1071T2200 954T2120 815T2048 672Q1975 515 1975 460T1983 379T2004 342Q2023 323 2065 323T2150 338T2235 377T2317 428T2395 480Q2483
534 2525 534T2581 515T2596 464T2570 381T2497 272T2386 162T2246 64Q2075 -31 1911 -31Q1763 -31 1650 73Q1524 188 1524 370Q1524 379 1524 388T1525 407L1106 354Q929 180 678 56Q426 -67 257 -67Z" />
<glyph unicode="&#xc5;" glyph-name="Aring" horiz-adv-x="2551" d="M2409 1867Q2427 1873 2451 1873T2510 1866T2580 1842Q2665 1803 2665 1737Q2665 1664 2568 1579Q2420 1450 2214 1399Q2149 1383 2097 1383T2012 1395T1958 1426Q1919 1461 1919 1497T1933
1566T1969 1631T2020 1693T2075 1749T2128 1794L2169 1826Q2304 1916 2339 1916Q2350 1916 2377 1894T2409 1867ZM2137 1619T2106 1582T2075 1521T2086 1495T2120 1492T2186 1506T2271 1543T2353 1594T2424 1650Q2492 1710 2492 1740Q2492 1780 2426 1780Q2391
1780 2369 1774Q2270 1726 2204 1673ZM257 -67Q205 -67 159 -43T74 27Q-11 130 -11 274Q-11 333 35 392T188 500Q426 607 883 607L1720 1256Q1762 1289 1770 1296Q1783 1310 1803 1310T1843 1306T1879 1295Q1914 1280 1914 1260Q1914 1246 1907 1238L1335 610H1579Q1595
646 1632 710L1724 860Q1778 946 1830 1022L1931 1162Q2086 1369 2155 1369Q2162 1369 2209 1351T2290 1314Q2370 1272 2370 1235Q2370 1200 2339 1162T2274 1071T2200 954T2120 815T2048 672Q1975 515 1975 460T1983 379T2004 342Q2023 323 2065 323T2150 338T2235
377T2317 428T2395 480Q2483 534 2525 534T2581 515T2596 464T2570 381T2497 272T2386 162T2246 64Q2075 -31 1911 -31Q1763 -31 1650 73Q1524 188 1524 370Q1524 379 1524 388T1525 407L1106 354Q929 180 678 56Q426 -67 257 -67Z" />
<glyph unicode="&#xc6;" glyph-name="AE" horiz-adv-x="3739" d="M2150 412Q2150 291 2458 291Q2886 291 3253 376Q3391 408 3470 434T3582 461Q3656 461 3656 388Q3656 288 3369 173Q2988 20 2518 -27Q2407 -38 2255 -38T1970 -11T1761 69T1656 198T1627 370V406L1209
354Q1032 180 780 56Q529 -67 354 -67Q256 -67 178 27Q92 130 92 274Q92 333 138 392T290 500Q529 607 986 607L1866 1285Q1888 1302 1894 1308Q1906 1320 1931 1320T1993 1308Q2041 1369 2075 1369Q2080 1369 2081 1369T2096 1364T2146 1346T2219 1314Q2307 1272
2312 1235Q2319 1199 2286 1149Q2208 1006 2125 725Q2296 783 2507 813Q2441 851 2416 940Q2410 964 2410 984Q2410 1293 3206 1350Q3367 1361 3527 1361Q3726 1361 3726 1259Q3726 1117 3497 1085Q3432 1076 3372 1076T3259 1080T3161 1093Q3064 1110 3028 1131Q2782
1055 2782 955Q2782 887 2841 841T3028 788Q3076 786 3096 772T3117 744T3109 716T3086 690Q3053 665 3010 663Q2658 654 2383 556Q2271 516 2211 476T2150 412ZM1657 610Q1667 646 1693 712T1758 868L1834 1037L1441 610H1657Z" />
<glyph unicode="&#xc7;" glyph-name="Ccedilla" horiz-adv-x="1639" d="M318 -240T295 -215T271 -156T361 -24Q197 10 110 103Q30 187 30 298T79 512T213 709T409 889T646 1046T903 1176T1158 1274Q1415 1359 1575 1359Q1609 1359 1632 1337Q1674 1298 1674 1260Q1674
1112 1551 1021Q1446 944 1306 944T1096 972Q835 871 672 701Q604 630 571 568T538 470Q538 303 871 303Q1096 303 1436 473L1538 527Q1770 645 1800 578Q1808 560 1808 537T1789 489T1736 435T1659 373T1566 308L1468 247Q1418 217 1366 190L1240 129Q957 -5 711
-35Q591 -88 547 -122Q753 -179 753 -300Q753 -399 572 -524Q478 -589 416 -613T330 -637T290 -615T274 -569T297 -519L348 -466Q421 -391 421 -333Q421 -320 398 -302L346 -262Q318 -240 295 -215Z" />
<glyph unicode="&#xc8;" glyph-name="Egrave" horiz-adv-x="1867" d="M887 1721T887 1755T893 1816T912 1864Q944 1913 1001 1913Q1033 1913 1084 1872L1169 1800Q1204 1771 1246 1742L1415 1630Q1498 1576 1512 1547T1527 1488T1496 1444Q1488 1439 1462 1439T1387
1450T1279 1479T1161 1523T1048 1576Q929 1641 908 1681ZM145 61T102 112T44 208Q22 275 22 323T53 433T158 556Q318 689 649 784Q543 829 528 927Q513 1039 624 1126Q829 1287 1412 1344Q1592 1361 1673 1361T1789 1335T1830 1258T1811 1171T1737 1115Q1648 1076
1494 1076Q1381 1076 1288 1110Q1263 1120 1249 1131Q1049 1069 1022 992Q1014 972 1016 955Q1025 894 1096 865T1312 828Q1360 824 1383 802T1410 756T1407 719T1386 696Q1362 680 1291 669T1126 639T947 597T790 552T664 508Q552 461 556 433T579 383T630 346Q690
318 776 311T944 303T1119 316T1294 351T1444 395T1564 440L1646 474Q1678 488 1704 488Q1773 488 1782 415Q1794 316 1560 192Q1247 25 868 -26Q780 -38 657 -38T416 -22T222 27Z" />
<glyph unicode="&#xc9;" glyph-name="Eacute" horiz-adv-x="1867" d="M1315 1441T1294 1459T1272 1499T1298 1559T1368 1642T1465 1736T1575 1824Q1701 1915 1767 1915Q1816 1915 1850 1885Q1915 1829 1915 1765Q1915 1753 1910 1728Q1891 1704 1833 1677L1732
1632Q1652 1596 1581 1554L1472 1490Q1389 1441 1352 1441ZM145 61T102 112T44 208Q22 275 22 323T53 433T158 556Q318 689 649 784Q543 829 528 927Q513 1039 624 1126Q829 1287 1412 1344Q1592 1361 1673 1361T1789 1335T1830 1258T1811 1171T1737 1115Q1648
1076 1494 1076Q1381 1076 1288 1110Q1263 1120 1249 1131Q1049 1069 1022 992Q1014 972 1016 955Q1025 894 1096 865T1312 828Q1360 824 1383 802T1410 756T1407 719T1386 696Q1362 680 1291 669T1126 639T947 597T790 552T664 508Q552 461 556 433T579 383T630
346Q690 318 776 311T944 303T1119 316T1294 351T1444 395T1564 440L1646 474Q1678 488 1704 488Q1773 488 1782 415Q1794 316 1560 192Q1247 25 868 -26Q780 -38 657 -38T416 -22T222 27Z" />
<glyph unicode="&#xca;" glyph-name="Ecircumflex" horiz-adv-x="1867" d="M1402 1587T1364 1563T1306 1521T1269 1503T1239 1508T1215 1524Q1191 1546 1191 1565Q1191 1600 1211 1621T1267 1671T1346 1729T1439 1785T1538 1834Q1645 1880 1702 1880T1799 1860T1878
1807Q1935 1759 2017 1656Q2032 1641 2032 1620T2014 1577T1968 1536Q1905 1495 1849 1495Q1809 1495 1702 1572T1569 1650T1511 1638T1440 1607ZM145 61T102 112T44 208Q22 275 22 323T53 433T158 556Q318 689 649 784Q543 829 528 927Q513 1039 624 1126Q829
1287 1412 1344Q1592 1361 1673 1361T1789 1335T1830 1258T1811 1171T1737 1115Q1648 1076 1494 1076Q1381 1076 1288 1110Q1263 1120 1249 1131Q1049 1069 1022 992Q1014 972 1016 955Q1025 894 1096 865T1312 828Q1360 824 1383 802T1410 756T1407 719T1386 696Q1362
680 1291 669T1126 639T947 597T790 552T664 508Q552 461 556 433T579 383T630 346Q690 318 776 311T944 303T1119 316T1294 351T1444 395T1564 440L1646 474Q1678 488 1704 488Q1773 488 1782 415Q1794 316 1560 192Q1247 25 868 -26Q780 -38 657 -38T416 -22T222
27Z" />
<glyph unicode="&#xcb;" glyph-name="Edieresis" horiz-adv-x="1867" d="M1595 1592T1581 1627T1566 1702T1582 1772T1626 1826T1686 1867T1754 1895Q1817 1916 1857 1916T1918 1906T1951 1879Q1977 1845 1977 1810T1970 1746T1949 1686T1915 1625T1870 1570Q1814
1515 1764 1515T1680 1528T1621 1567ZM1223 1545T1193 1530T1127 1515T1058 1528T998 1567Q944 1620 944 1704Q944 1833 1132 1895Q1195 1916 1235 1916T1296 1906T1329 1879Q1355 1845 1355 1810T1348 1746T1327 1686T1293 1625T1248 1570ZM145 61T102 112T44
208Q22 275 22 323T53 433T158 556Q318 689 649 784Q543 829 528 927Q513 1039 624 1126Q829 1287 1412 1344Q1592 1361 1673 1361T1789 1335T1830 1258T1811 1171T1737 1115Q1648 1076 1494 1076Q1381 1076 1288 1110Q1263 1120 1249 1131Q1049 1069 1022 992Q1014
972 1016 955Q1025 894 1096 865T1312 828Q1360 824 1383 802T1410 756T1407 719T1386 696Q1362 680 1291 669T1126 639T947 597T790 552T664 508Q552 461 556 433T579 383T630 346Q690 318 776 311T944 303T1119 316T1294 351T1444 395T1564 440L1646 474Q1678
488 1704 488Q1773 488 1782 415Q1794 316 1560 192Q1247 25 868 -26Q780 -38 657 -38T416 -22T222 27Z" />
<glyph unicode="&#xcc;" glyph-name="Igrave" horiz-adv-x="1531" d="M643 1721T643 1755T649 1816T668 1864Q700 1913 757 1913Q789 1913 840 1872L925 1800Q960 1771 1002 1742L1171 1630Q1254 1576 1268 1547T1283 1488T1252 1444Q1244 1439 1218 1439T1143
1450T1035 1479T917 1523T804 1576Q685 1641 664 1681ZM1112 1034Q1112 1102 1062 1102T937 1084T777 1028Q583 941 426 788Q405 770 370 770T310 787T286 833T298 892T323 967T350 1054Q386 1157 417 1190Q474 1237 722 1294Q997 1357 1260 1357Q1370 1357 1442
1276Q1504 1206 1504 1129Q1504 1063 1406 816Q1251 422 1089 200Q1044 138 1000 99Q936 49 832 15Q656 -44 604 -44T500 -31T402 4T313 53T241 108Q175 167 175 204Q175 239 260 317Q347 397 403 397Q441 397 495 368L572 324Q597 311 616 311T671 339T746 415T828
523T911 648T988 777T1052 894Q1112 1009 1112 1034Z" />
<glyph unicode="&#xcd;" glyph-name="Iacute" horiz-adv-x="1531" d="M1071 1441T1050 1459T1028 1499T1054 1559T1124 1642T1221 1736T1331 1824Q1457 1915 1523 1915Q1572 1915 1606 1885Q1671 1829 1671 1765Q1671 1753 1666 1728Q1647 1704 1589 1677L1488
1632Q1408 1596 1337 1554L1228 1490Q1145 1441 1108 1441ZM1112 1034Q1112 1102 1062 1102T937 1084T777 1028Q583 941 426 788Q405 770 370 770T310 787T286 833T298 892T323 967T350 1054Q386 1157 417 1190Q474 1237 722 1294Q997 1357 1260 1357Q1370 1357
1442 1276Q1504 1206 1504 1129Q1504 1063 1406 816Q1251 422 1089 200Q1044 138 1000 99Q936 49 832 15Q656 -44 604 -44T500 -31T402 4T313 53T241 108Q175 167 175 204Q175 239 260 317Q347 397 403 397Q441 397 495 368L572 324Q597 311 616 311T671 339T746
415T828 523T911 648T988 777T1052 894Q1112 1009 1112 1034Z" />
<glyph unicode="&#xce;" glyph-name="Icircumflex" horiz-adv-x="1531" d="M1158 1587T1120 1563T1062 1521T1025 1503T995 1508T971 1524Q947 1546 947 1565Q947 1600 967 1621T1023 1671T1102 1729T1195 1785T1294 1834Q1401 1880 1458 1880T1555 1860T1634
1807Q1691 1759 1773 1656Q1788 1641 1788 1620T1770 1577T1724 1536Q1661 1495 1605 1495Q1565 1495 1458 1572T1325 1650T1267 1638T1196 1607ZM1112 1034Q1112 1102 1062 1102T937 1084T777 1028Q583 941 426 788Q405 770 370 770T310 787T286 833T298 892T323
967T350 1054Q386 1157 417 1190Q474 1237 722 1294Q997 1357 1260 1357Q1370 1357 1442 1276Q1504 1206 1504 1129Q1504 1063 1406 816Q1251 422 1089 200Q1044 138 1000 99Q936 49 832 15Q656 -44 604 -44T500 -31T402 4T313 53T241 108Q175 167 175 204Q175
239 260 317Q347 397 403 397Q441 397 495 368L572 324Q597 311 616 311T671 339T746 415T828 523T911 648T988 777T1052 894Q1112 1009 1112 1034Z" />
<glyph unicode="&#xcf;" glyph-name="Idieresis" horiz-adv-x="1531" d="M1601 1545T1571 1530T1505 1515T1436 1528T1376 1567Q1322 1620 1322 1704Q1322 1833 1510 1895Q1573 1916 1613 1916T1674 1906T1707 1879Q1733 1845 1733 1810T1726 1746T1705 1686T1671
1625T1626 1570ZM979 1545T949 1530T883 1515T814 1528T754 1567Q700 1620 700 1704Q700 1833 888 1895Q951 1916 991 1916T1052 1906T1085 1879Q1111 1845 1111 1810T1104 1746T1083 1686T1049 1625T1004 1570ZM1112 1034Q1112 1102 1062 1102T937 1084T777 1028Q583
941 426 788Q405 770 370 770T310 787T286 833T298 892T323 967T350 1054Q386 1157 417 1190Q474 1237 722 1294Q997 1357 1260 1357Q1370 1357 1442 1276Q1504 1206 1504 1129Q1504 1063 1406 816Q1251 422 1089 200Q1044 138 1000 99Q936 49 832 15Q656 -44 604
-44T500 -31T402 4T313 53T241 108Q175 167 175 204Q175 239 260 317Q347 397 403 397Q441 397 495 368L572 324Q597 311 616 311T671 339T746 415T828 523T911 648T988 777T1052 894Q1112 1009 1112 1034Z" />
<glyph unicode="&#xd0;" glyph-name="Eth" horiz-adv-x="2214" d="M430 535Q335 535 335 596Q335 637 366 668Q419 721 468 723L559 727L727 986Q495 925 342 835Q289 804 254 771Q188 720 147 720Q72 720 72 787Q72 817 83 841T113 898T156 970T211 1052T275
1134Q351 1223 406 1249T525 1294T677 1330Q878 1367 1113 1367Q1622 1367 1913 1220Q2155 1097 2155 878Q2155 831 2142 765T2079 599T1944 406T1738 232T1454 89Q1108 -42 636 -42Q452 -42 351 40Q268 106 268 203Q268 237 284 269T322 342L438 535H430ZM803
535Q767 452 767 425T779 377T817 338Q874 301 986 301T1215 319T1431 367T1606 435T1738 514Q1848 597 1861 667Q1864 683 1864 701Q1864 906 1426 992Q1258 1026 1063 1030L906 743L1222 758Q1259 760 1280 727Q1312 678 1260 600Q1217 535 1148 535H803Z" />
<glyph unicode="&#xd1;" glyph-name="Ntilde" horiz-adv-x="2041" d="M1360 1591T1342 1581T1307 1570T1276 1575T1251 1590Q1227 1610 1227 1636T1242 1678T1283 1713T1343 1750T1420 1789T1506 1824Q1608 1860 1673 1860T1785 1834T1870 1777T1944 1719T2014
1693Q2087 1693 2159 1724Q2178 1731 2199 1731T2244 1713T2267 1669T2246 1625T2180 1582T2076 1536Q1932 1483 1819 1483Q1738 1483 1624 1552L1548 1598Q1514 1620 1493 1620Q1427 1620 1394 1606ZM213 42Q151 -37 112 -45T46 -47T0 -24Q-42 12 -42 72Q-42 116
-15 160Q568 1087 619 1164Q739 1342 758 1364L783 1394Q895 1523 1074 1523Q1213 1523 1264 1462Q1276 1449 1276 1412T1280 1294L1285 1122Q1288 1031 1292 936L1298 750Q1306 570 1312 440Q1351 509 1391 601L1476 795Q1592 1055 1700 1206Q1768 1303 1924 1303Q2039
1303 2130 1253Q2185 1223 2184 1200Q2184 1179 2169 1160L2148 1131Q2077 1032 2008 925L1874 712Q1592 246 1547 177T1479 81T1418 34T1332 0Q1228 -33 1159 -33Q1043 -33 1002 0Q958 40 878 464L844 652Q828 748 815 843Q782 792 730 722L436 330L213 42Z" />
<glyph unicode="&#xd2;" glyph-name="Ograve" horiz-adv-x="2214" d="M1463 1382Q1512 1399 1572 1399T1694 1390T1824 1361T1960 1310T2082 1236Q2203 1140 2203 1008Q2203 852 2038 666Q1802 400 1362 192Q1085 62 806 8Q668 -18 538 -18T313 17T159 106T72
220T45 349T85 508T190 688T335 862T496 1019Q754 1249 1030 1400Q1114 1447 1189 1476Q973 1546 858 1634Q788 1687 788 1765Q788 1860 849 1899Q871 1913 896 1913T947 1897T1004 1856L1070 1800Q1105 1771 1148 1742L1316 1630Q1399 1576 1413 1547T1428 1488T1397
1444Q1389 1439 1377 1439L1428 1408Q1451 1393 1463 1382ZM532 276Q550 275 599 275T741 300T931 367T1125 466T1312 585T1478 711T1613 836Q1735 963 1735 1029Q1735 1097 1653 1130Q1598 1153 1535 1153Q1430 1153 1362 1135Q1070 998 793 777Q595 619 510 478Q466
405 466 343T532 276Z" />
<glyph unicode="&#xd3;" glyph-name="Oacute" horiz-adv-x="2214" d="M1463 1382Q1512 1399 1572 1399T1694 1390T1824 1361T1960 1310T2082 1236Q2203 1140 2203 1008Q2203 852 2038 666Q1802 400 1362 192Q1085 62 806 8Q668 -18 538 -18T313 17T159 106T72
220T45 349T85 508T190 688T335 862T496 1019Q745 1241 1023 1396Q1115 1448 1181 1473Q1173 1487 1173 1504T1199 1559T1269 1642T1366 1736T1476 1824Q1602 1915 1668 1915Q1717 1915 1751 1885Q1816 1829 1816 1765Q1816 1753 1811 1728Q1792 1704 1734 1677L1634
1632Q1547 1593 1459 1541T1329 1465Q1423 1413 1463 1382ZM532 276Q550 275 599 275T741 300T931 367T1125 466T1312 585T1478 711T1613 836Q1735 963 1735 1029Q1735 1097 1653 1130Q1598 1153 1535 1153Q1430 1153 1362 1135Q1070 998 793 777Q595 619 510 478Q466
405 466 343T532 276Z" />
<glyph unicode="&#xd4;" glyph-name="Ocircumflex" horiz-adv-x="2214" d="M1303 1587T1265 1563T1207 1521T1170 1503T1140 1508T1116 1524Q1092 1546 1092 1565Q1092 1600 1112 1621T1168 1671T1247 1729T1340 1785T1438 1834Q1546 1880 1603 1880T1700 1860T1778
1807Q1836 1759 1918 1656Q1933 1641 1933 1620T1915 1577T1868 1536Q1806 1495 1750 1495Q1710 1495 1603 1572T1470 1650T1412 1638T1341 1607ZM1463 1382Q1512 1399 1572 1399T1694 1390T1824 1361T1960 1310T2082 1236Q2203 1140 2203 1008Q2203 852 2038 666Q1802
400 1362 192Q1085 62 806 8Q668 -18 538 -18T313 17T159 106T72 220T45 349T85 508T190 688T335 862T496 1019Q634 1142 761 1230T977 1370T1124 1448Q1224 1495 1246 1495T1295 1482T1356 1451Q1438 1405 1463 1382ZM532 276Q550 275 599 275T741 300T931 367T1125
466T1312 585T1478 711T1613 836Q1735 963 1735 1029Q1735 1097 1653 1130Q1598 1153 1535 1153Q1430 1153 1362 1135Q1070 998 793 777Q595 619 510 478Q466 405 466 343T532 276Z" />
<glyph unicode="&#xd5;" glyph-name="Otilde" horiz-adv-x="2214" d="M989 1591T971 1581T936 1570T905 1575T880 1590Q856 1610 856 1636T871 1678T912 1713T972 1750T1049 1789T1136 1824Q1237 1860 1302 1860T1414 1834T1499 1777T1573 1719T1642 1693Q1716
1693 1788 1724Q1807 1731 1828 1731T1873 1713T1896 1669T1875 1625T1809 1582T1704 1536Q1561 1483 1448 1483Q1367 1483 1252 1552L1176 1598Q1143 1620 1122 1620Q1056 1620 1023 1606ZM1463 1382Q1512 1399 1572 1399T1694 1390T1824 1361T1960 1310T2082
1236Q2203 1140 2203 1008Q2203 852 2038 666Q1802 400 1362 192Q1085 62 806 8Q668 -18 538 -18T313 17T159 106T72 220T45 349T85 508T190 688T335 862T496 1019Q634 1142 761 1230T977 1370T1124 1448Q1224 1495 1246 1495T1295 1482T1356 1451Q1438 1405 1463
1382ZM532 276Q550 275 599 275T741 300T931 367T1125 466T1312 585T1478 711T1613 836Q1735 963 1735 1029Q1735 1097 1653 1130Q1598 1153 1535 1153Q1430 1153 1362 1135Q1070 998 793 777Q595 619 510 478Q466 405 466 343T532 276Z" />
<glyph unicode="&#xd6;" glyph-name="Odieresis" horiz-adv-x="2214" d="M1746 1545T1716 1530T1650 1515T1581 1528T1522 1567Q1467 1620 1467 1704Q1467 1833 1654 1895Q1718 1916 1758 1916T1819 1906T1852 1879Q1878 1845 1878 1810T1871 1746T1850 1686T1816
1625T1771 1570ZM1124 1545T1094 1530T1028 1515T959 1528T900 1567Q845 1620 845 1704Q845 1833 1032 1895Q1096 1916 1136 1916T1197 1906T1230 1879Q1256 1845 1256 1810T1249 1746T1228 1686T1194 1625T1149 1570ZM1463 1382Q1512 1399 1572 1399T1694 1390T1824
1361T1960 1310T2082 1236Q2203 1140 2203 1008Q2203 852 2038 666Q1802 400 1362 192Q1085 62 806 8Q668 -18 538 -18T313 17T159 106T72 220T45 349T85 508T190 688T335 862T496 1019Q634 1142 761 1230T977 1370T1124 1448Q1224 1495 1246 1495T1295 1482T1356
1451Q1438 1405 1463 1382ZM532 276Q550 275 599 275T741 300T931 367T1125 466T1312 585T1478 711T1613 836Q1735 963 1735 1029Q1735 1097 1653 1130Q1598 1153 1535 1153Q1430 1153 1362 1135Q1070 998 793 777Q595 619 510 478Q466 405 466 343T532 276Z" />
<glyph unicode="&#xd7;" glyph-name="multiply" horiz-adv-x="2038" d="M904 604L503 1000L606 1102L1000 699L1395 1102L1497 1000L1095 604L1497 209L1395 107L1000 508L606 107L503 209L904 604Z" />
<glyph unicode="&#xd8;" glyph-name="Oslash" horiz-adv-x="2214" d="M87 -169Q87 -87 242 48Q95 127 56 261Q45 299 45 358T85 508T190 688T335 862T496 1019Q634 1142 761 1230T977 1370T1124 1448Q1224 1495 1246 1495T1295 1482T1356 1451Q1438 1405 1463
1382Q1512 1399 1578 1399T1720 1385Q1891 1539 2026 1610Q2066 1631 2088 1631T2130 1623T2162 1600Q2186 1573 2186 1546T2171 1494T2130 1437T2068 1368L1994 1293Q2203 1179 2203 1008Q2203 852 2038 666Q1802 400 1362 192Q1085 62 806 8Q668 -18 542 -18H533Q405
-169 286 -232Q244 -254 201 -254T122 -232T87 -169ZM532 276Q550 275 599 275T741 300T931 367T1125 466T1312 585T1478 711T1613 836Q1735 963 1735 1029Q1735 1097 1653 1130Q1598 1153 1535 1153Q1430 1153 1362 1135Q1070 998 793 777Q595 619 510 478Q466
405 466 343T532 276Z" />
<glyph unicode="&#xd9;" glyph-name="Ugrave" horiz-adv-x="2039" d="M788 1721T788 1755T794 1816T814 1864Q845 1913 902 1913Q934 1913 985 1872L1070 1800Q1105 1771 1148 1742L1316 1630Q1399 1576 1413 1547T1428 1488T1397 1444Q1389 1439 1363 1439T1288
1450T1180 1479T1062 1523T948 1576Q830 1641 809 1681ZM1578 473Q1578 372 1641 372Q1669 372 1738 416Q1874 507 1926 544L2006 603Q2034 624 2061 646T2129 684T2194 701T2226 683T2233 639T2223 587T2195 530Q2147 447 2097 399T2010 320L1927 252Q1694 70
1530 15Q1485 0 1425 0T1308 29T1219 104Q1160 188 1160 332Q1160 393 1170 451Q951 216 793 116Q584 -16 355 -16Q221 -16 111 75Q-6 172 -6 308Q-6 567 334 1038L431 1168Q531 1293 588 1347Q601 1357 623 1357Q696 1357 788 1283Q887 1204 878 1135Q870 1053
774 930Q732 877 685 823T594 712Q495 582 483 485Q476 432 524 406Q538 398 579 398T691 424T836 494T982 593T1120 705T1241 816L1336 913Q1632 1241 1666 1276Q1740 1352 1757 1352T1795 1343T1841 1319T1890 1285T1936 1244Q1981 1197 1985 1161Q1991 1139
1957 1074T1882 962L1794 860Q1613 652 1586 539Q1578 505 1578 473Z" />
<glyph unicode="&#xda;" glyph-name="Uacute" horiz-adv-x="2039" d="M1216 1441T1195 1459T1173 1499T1199 1559T1269 1642T1366 1736T1476 1824Q1602 1915 1668 1915Q1717 1915 1751 1885Q1816 1829 1816 1765Q1816 1753 1811 1728Q1792 1704 1734 1677L1634
1632Q1553 1596 1482 1554L1374 1490Q1290 1441 1253 1441ZM1578 473Q1578 372 1641 372Q1669 372 1738 416Q1874 507 1926 544L2006 603Q2034 624 2061 646T2129 684T2194 701T2226 683T2233 639T2223 587T2195 530Q2147 447 2097 399T2010 320L1927 252Q1694
70 1530 15Q1485 0 1425 0T1308 29T1219 104Q1160 188 1160 332Q1160 393 1170 451Q951 216 793 116Q584 -16 355 -16Q221 -16 111 75Q-6 172 -6 308Q-6 567 334 1038L431 1168Q531 1293 588 1347Q601 1357 623 1357Q696 1357 788 1283Q887 1204 878 1135Q870 1053
774 930Q732 877 685 823T594 712Q495 582 483 485Q476 432 524 406Q538 398 579 398T691 424T836 494T982 593T1120 705T1241 816L1336 913Q1632 1241 1666 1276Q1740 1352 1757 1352T1795 1343T1841 1319T1890 1285T1936 1244Q1981 1197 1985 1161Q1991 1139
1957 1074T1882 962L1794 860Q1613 652 1586 539Q1578 505 1578 473Z" />
<glyph unicode="&#xdb;" glyph-name="Ucircumflex" horiz-adv-x="2039" d="M1303 1587T1265 1563T1207 1521T1170 1503T1140 1508T1116 1524Q1092 1546 1092 1565Q1092 1600 1112 1621T1168 1671T1247 1729T1340 1785T1438 1834Q1546 1880 1603 1880T1700 1860T1778
1807Q1836 1759 1918 1656Q1933 1641 1933 1620T1915 1577T1868 1536Q1806 1495 1750 1495Q1710 1495 1603 1572T1470 1650T1412 1638T1341 1607ZM1578 473Q1578 372 1641 372Q1669 372 1738 416Q1874 507 1926 544L2006 603Q2034 624 2061 646T2129 684T2194 701T2226
683T2233 639T2223 587T2195 530Q2147 447 2097 399T2010 320L1927 252Q1694 70 1530 15Q1485 0 1425 0T1308 29T1219 104Q1160 188 1160 332Q1160 393 1170 451Q951 216 793 116Q584 -16 355 -16Q221 -16 111 75Q-6 172 -6 308Q-6 567 334 1038L431 1168Q531 1293
588 1347Q601 1357 623 1357Q696 1357 788 1283Q887 1204 878 1135Q870 1053 774 930Q732 877 685 823T594 712Q495 582 483 485Q476 432 524 406Q538 398 579 398T691 424T836 494T982 593T1120 705T1241 816L1336 913Q1632 1241 1666 1276Q1740 1352 1757 1352T1795
1343T1841 1319T1890 1285T1936 1244Q1981 1197 1985 1161Q1991 1139 1957 1074T1882 962L1794 860Q1613 652 1586 539Q1578 505 1578 473Z" />
<glyph unicode="&#xdc;" glyph-name="Udieresis" horiz-adv-x="2039" d="M1746 1545T1716 1530T1650 1515T1581 1528T1522 1567Q1467 1620 1467 1704Q1467 1833 1654 1895Q1718 1916 1758 1916T1819 1906T1852 1879Q1878 1845 1878 1810T1871 1746T1850 1686T1816
1625T1771 1570ZM1124 1545T1094 1530T1028 1515T959 1528T900 1567Q845 1620 845 1704Q845 1833 1032 1895Q1096 1916 1136 1916T1197 1906T1230 1879Q1256 1845 1256 1810T1249 1746T1228 1686T1194 1625T1149 1570ZM1578 473Q1578 372 1641 372Q1669 372 1738
416Q1874 507 1926 544L2006 603Q2034 624 2061 646T2129 684T2194 701T2226 683T2233 639T2223 587T2195 530Q2147 447 2097 399T2010 320L1927 252Q1694 70 1530 15Q1485 0 1425 0T1308 29T1219 104Q1160 188 1160 332Q1160 393 1170 451Q951 216 793 116Q584
-16 355 -16Q221 -16 111 75Q-6 172 -6 308Q-6 567 334 1038L431 1168Q531 1293 588 1347Q601 1357 623 1357Q696 1357 788 1283Q887 1204 878 1135Q870 1053 774 930Q732 877 685 823T594 712Q495 582 483 485Q476 432 524 406Q538 398 579 398T691 424T836 494T982
593T1120 705T1241 816L1336 913Q1632 1241 1666 1276Q1740 1352 1757 1352T1795 1343T1841 1319T1890 1285T1936 1244Q1981 1197 1985 1161Q1991 1139 1957 1074T1882 962L1794 860Q1613 652 1586 539Q1578 505 1578 473Z" />
<glyph unicode="&#xdd;" glyph-name="Yacute" horiz-adv-x="1869" d="M1216 1441T1195 1459T1173 1499T1199 1559T1269 1642T1366 1736T1476 1824Q1602 1915 1668 1915Q1717 1915 1751 1885Q1816 1829 1816 1765Q1816 1753 1811 1728Q1792 1704 1734 1677L1634
1632Q1553 1596 1482 1554L1374 1490Q1290 1441 1253 1441ZM294 104Q237 104 185 129T96 198Q-21 332 54 534Q127 727 323 996Q424 1134 503 1219Q634 1360 665 1360T735 1340T808 1290Q886 1218 882 1152Q879 1099 783 973L695 860Q409 504 564 504Q598 504 634
521Q1026 700 1363 1038L1512 1192Q1576 1259 1618 1299T1686 1340T1739 1323T1788 1282Q1835 1230 1833 1190Q1815 942 1516 350Q1454 226 1386 104Q1207 -206 1134 -316T1008 -496Q894 -643 850 -643Q801 -643 684 -546Q560 -445 560 -384Q560 -365 632 -273L892
54Q1091 310 1163 412Q1320 636 1394 788Q1141 578 1048 507L876 380Q485 104 294 104Z" />
<glyph unicode="&#xde;" glyph-name="Thorn" horiz-adv-x="1527" d="M552 272Q391 272 344 323L268 142Q233 65 206 26Q141 -68 49 -68Q-3 -68 -49 -31Q-74 -10 -74 25T-70 92T-56 170Q-38 263 1 415Q163 925 385 1315Q452 1431 616 1431Q745 1431 822 1367Q850
1345 807 1281T726 1154L655 1026Q660 1028 664 1030T704 1048T817 1094T974 1146Q1148 1195 1284 1195Q1385 1195 1452 1102Q1516 1015 1516 894Q1516 724 1377 632L1262 561Q914 352 676 290Q607 272 552 272ZM1101 870Q1101 899 1054 899T966 890T878 864T773
820L495 690L405 475L1001 778Q1101 830 1101 870Z" />
<glyph unicode="&#xdf;" glyph-name="germandbls" horiz-adv-x="1191" d="M910 1239Q910 1277 854 1277Q780 1277 630 1185Q409 917 189 498Q93 271 26 46L-73 -283Q-129 -470 -152 -493T-197 -526Q-238 -546 -282 -546T-356 -538T-406 -513Q-454 -478 -454 -426Q-454
-165 -282 272Q-116 690 112 1010Q267 1225 407 1312Q659 1471 912 1527Q997 1546 1060 1546T1166 1521T1240 1452Q1303 1364 1303 1245Q1303 1136 1154 1033Q1129 1011 1083 991L1013 960Q988 949 972 940Q1076 822 1110 658Q1122 600 1121 538T1080 409T973 276T823
153T652 49Q464 -48 352 -48Q147 -48 147 61Q147 160 251 232Q304 268 354 292T448 340L540 390Q641 446 665 479T690 542T680 609T652 680Q616 751 566 803Q559 812 559 830T563 869T576 911Q602 985 662 1035Q692 1060 725 1084L791 1129Q910 1208 910 1239Z"
/>
<glyph unicode="&#xe0;" glyph-name="agrave" horiz-adv-x="1530" d="M982 1042Q949 1032 862 1087T717 1186T609 1278Q496 1384 483 1452Q472 1502 498 1549Q547 1637 611 1637Q651 1637 675 1609T722 1548L770 1476Q795 1438 827 1398L958 1244Q1022 1168 1025
1147T1029 1107Q1029 1047 982 1042ZM1737 751Q1769 751 1769 697Q1769 604 1639 456L1582 398Q1323 139 1094 53Q952 0 890 58Q839 107 809 216L785 303L572 172L449 102Q229 -18 119 -18Q-22 -18 -116 91Q-206 194 -206 330Q-206 464 -99 569Q54 719 384 844Q696
961 888 961Q953 961 953 897Q953 853 936 831T866 786L740 732Q460 615 330 489Q293 454 293 421T346 388Q398 388 588 500L671 549Q864 665 994 665Q1104 665 1140 568Q1149 542 1157 516T1173 468Q1191 419 1205 419T1247 433T1306 470T1374 520L1495 617Q1656
751 1737 751Z" />
<glyph unicode="&#xe1;" glyph-name="aacute" horiz-adv-x="1530" d="M945 1033T924 1051T902 1091T928 1151T998 1234T1095 1328T1205 1416Q1331 1507 1397 1507Q1446 1507 1480 1477Q1545 1421 1545 1357Q1545 1345 1540 1320Q1521 1296 1463 1269L1362 1224Q1282
1188 1211 1146L1102 1082Q1019 1033 982 1033ZM1737 751Q1769 751 1769 697Q1769 604 1639 456L1582 398Q1323 139 1094 53Q952 0 890 58Q839 107 809 216L785 303L572 172L449 102Q229 -18 119 -18Q-22 -18 -116 91Q-206 194 -206 330Q-206 464 -99 569Q54 719
384 844Q696 961 888 961Q953 961 953 897Q953 853 936 831T866 786L740 732Q460 615 330 489Q293 454 293 421T346 388Q398 388 588 500L671 549Q864 665 994 665Q1104 665 1140 568Q1149 542 1157 516T1173 468Q1191 419 1205 419T1247 433T1306 470T1374 520L1495
617Q1656 751 1737 751Z" />
<glyph unicode="&#xe2;" glyph-name="acircumflex" horiz-adv-x="1530" d="M805 1178T767 1154T709 1112T672 1094T642 1099T618 1115Q594 1137 594 1156Q594 1191 614 1212T670 1262T749 1320T842 1376T940 1424Q1048 1471 1105 1471T1202 1451T1280 1398Q1338
1350 1420 1247Q1435 1232 1435 1211T1417 1168T1370 1127Q1308 1086 1252 1086Q1212 1086 1105 1163T972 1241T914 1229T843 1198ZM1737 751Q1769 751 1769 697Q1769 604 1639 456L1582 398Q1323 139 1094 53Q952 0 890 58Q839 107 809 216L785 303L572 172L449
102Q229 -18 119 -18Q-22 -18 -116 91Q-206 194 -206 330Q-206 464 -99 569Q54 719 384 844Q696 961 888 961Q953 961 953 897Q953 853 936 831T866 786L740 732Q460 615 330 489Q293 454 293 421T346 388Q398 388 588 500L671 549Q864 665 994 665Q1104 665 1140
568Q1149 542 1157 516T1173 468Q1191 419 1205 419T1247 433T1306 470T1374 520L1495 617Q1656 751 1737 751Z" />
<glyph unicode="&#xe3;" glyph-name="atilde" horiz-adv-x="1530" d="M654 1172T636 1162T601 1151T570 1156T545 1171Q521 1191 521 1217T536 1259T577 1294T637 1331T714 1370T800 1406Q902 1441 967 1441T1079 1415T1164 1358T1238 1300T1308 1274Q1381 1274
1453 1305Q1472 1312 1493 1312T1538 1294T1561 1250T1540 1206T1474 1163T1370 1117Q1226 1064 1113 1064Q1032 1064 918 1132L842 1180Q808 1201 787 1201Q721 1201 688 1187ZM1737 751Q1769 751 1769 697Q1769 604 1639 456L1582 398Q1323 139 1094 53Q952 0
890 58Q839 107 809 216L785 303L572 172L449 102Q229 -18 119 -18Q-22 -18 -116 91Q-206 194 -206 330Q-206 464 -99 569Q54 719 384 844Q696 961 888 961Q953 961 953 897Q953 853 936 831T866 786L740 732Q460 615 330 489Q293 454 293 421T346 388Q398 388
588 500L671 549Q864 665 994 665Q1104 665 1140 568Q1149 542 1157 516T1173 468Q1191 419 1205 419T1247 433T1306 470T1374 520L1495 617Q1656 751 1737 751Z" />
<glyph unicode="&#xe4;" glyph-name="adieresis" horiz-adv-x="1530" d="M1333 1149T1303 1135T1237 1121T1168 1134T1108 1173Q1054 1226 1054 1310Q1054 1427 1242 1483Q1305 1502 1345 1502T1406 1492T1439 1465Q1465 1431 1465 1396T1458 1335T1437 1280T1403
1223T1358 1172ZM711 1149T681 1135T615 1121T546 1134T486 1173Q432 1226 432 1310Q432 1427 620 1483Q683 1502 723 1502T784 1492T817 1465Q843 1431 843 1396T836 1335T815 1280T781 1223T736 1172ZM1737 751Q1769 751 1769 697Q1769 604 1639 456L1582 398Q1323
139 1094 53Q952 0 890 58Q839 107 809 216L785 303L572 172L449 102Q229 -18 119 -18Q-22 -18 -116 91Q-206 194 -206 330Q-206 464 -99 569Q54 719 384 844Q696 961 888 961Q953 961 953 897Q953 853 936 831T866 786L740 732Q460 615 330 489Q293 454 293 421T346
388Q398 388 588 500L671 549Q864 665 994 665Q1104 665 1140 568Q1149 542 1157 516T1173 468Q1191 419 1205 419T1247 433T1306 470T1374 520L1495 617Q1656 751 1737 751Z" />
<glyph unicode="&#xe5;" glyph-name="aring" horiz-adv-x="1530" d="M1157 1522Q1175 1528 1199 1528T1258 1521T1328 1497Q1413 1458 1413 1392Q1413 1319 1316 1234Q1168 1105 962 1054Q897 1038 845 1038T760 1050T706 1080Q667 1116 667 1152T681 1221T717
1286T768 1348T823 1404T876 1450L917 1481Q1052 1571 1087 1571Q1098 1571 1125 1549T1157 1522ZM885 1274T854 1237T823 1176T834 1150T868 1147T934 1161T1019 1198T1101 1249T1172 1304Q1240 1365 1240 1395Q1240 1435 1174 1435Q1139 1435 1117 1429Q1018
1381 952 1328ZM1737 751Q1769 751 1769 697Q1769 604 1639 456L1582 398Q1323 139 1094 53Q952 0 890 58Q839 107 809 216L785 303L572 172L449 102Q229 -18 119 -18Q-22 -18 -116 91Q-206 194 -206 330Q-206 464 -99 569Q54 719 384 844Q696 961 888 961Q953
961 953 897Q953 853 936 831T866 786L740 732Q460 615 330 489Q293 454 293 421T346 388Q398 388 588 500L671 549Q864 665 994 665Q1104 665 1140 568Q1149 542 1157 516T1173 468Q1191 419 1205 419T1247 433T1306 470T1374 520L1495 617Q1656 751 1737 751Z"
/>
<glyph unicode="&#xe6;" glyph-name="ae" horiz-adv-x="2211" d="M2399 739Q2447 739 2447 685Q2447 649 2423 595T2352 493T2247 394T2110 287T1940 176T1746 77Q1520 -21 1326 -21Q1166 -21 1044 82Q1006 114 978 155Q959 175 942 200L910 246Q874 296 850 296T777
272T666 212L530 134Q251 -29 91 -29Q-38 -29 -124 80Q-206 185 -206 323Q-206 469 -108 565Q62 714 394 839Q718 961 903 961Q940 961 956 930Q962 917 962 884Q962 822 895 790Q822 759 742 729T580 662Q392 578 283 484Q250 448 250 415T299 382T401 399T506
443T610 499T712 555Q829 616 899 616Q940 616 975 555Q1078 729 1256 846Q1432 963 1710 963Q1797 963 1838 937Q1913 888 1928 790Q1944 680 1787 547Q1761 525 1740 510T1677 466Q1588 405 1424 321Q1492 286 1534 286T1619 299T1718 336T1835 393T1962 467Q2105
556 2210 649Q2265 700 2350 730Q2378 739 2399 739ZM1296 467Q1364 502 1395 521L1458 558Q1582 636 1582 668Q1582 706 1536 730Q1523 737 1496 737T1429 720T1358 674Q1289 609 1289 518Q1289 489 1296 467Z" />
<glyph unicode="&#xe7;" glyph-name="ccedilla" horiz-adv-x="1190" d="M527 -122Q733 -179 733 -300Q733 -399 552 -524Q458 -589 396 -613T310 -637T270 -615T254 -569T277 -519L328 -466Q401 -391 401 -333Q401 -320 378 -302L326 -262Q251 -203 251 -161Q251
-125 343 -22Q335 -23 326 -23H310Q31 -23 -94 177Q-143 255 -143 321T-129 437T-88 532Q3 696 278 822Q495 923 692 953Q777 966 813 966T873 959T916 938Q956 909 956 859T930 765T864 690Q786 632 690 632Q559 632 474 666Q415 645 374 589Q340 543 340 507T356
436T403 374Q469 316 562 316Q778 316 1065 545L1156 616Q1300 726 1361 726T1423 645Q1423 598 1300 463Q1174 326 1053 240Q977 182 869 124Q877 68 830 36Q791 10 735 -15L644 -57Q564 -94 527 -122Z" />
<glyph unicode="&#xe8;" glyph-name="egrave" horiz-adv-x="1190" d="M727 1042Q694 1032 607 1087T462 1186T354 1278Q241 1384 228 1452Q217 1502 243 1549Q292 1637 356 1637Q396 1637 420 1609T468 1548L515 1476Q540 1438 572 1398L702 1244Q767 1168 770
1147T774 1107Q774 1047 727 1042ZM1383 735Q1431 735 1431 681Q1431 645 1407 591T1336 489T1231 390T1092 283T916 172T712 73Q473 -25 249 -25Q78 -25 -50 64Q-184 157 -184 290Q-184 499 41 687Q235 849 498 938Q658 992 769 992Q859 992 921 948Q987 900 987
819Q987 692 786 538Q754 513 728 496L692 472Q592 402 388 315Q451 282 505 282T603 295T702 332T819 389T946 463Q1089 552 1194 645Q1249 696 1334 726Q1362 735 1383 735ZM280 454L335 482Q362 496 383 508Q585 624 613 651T641 688T635 713T619 738Q595 766
568 766T509 756T443 729T380 687T326 634Q273 571 273 525T280 454Z" />
<glyph unicode="&#xe9;" glyph-name="eacute" horiz-adv-x="1190" d="M690 1033T669 1051T647 1091T673 1151T743 1234T840 1328T950 1416Q1076 1507 1142 1507Q1191 1507 1225 1477Q1290 1421 1290 1357Q1290 1345 1285 1320Q1266 1296 1208 1269L1108 1224Q1027
1188 956 1146L848 1082Q764 1033 727 1033ZM1383 735Q1431 735 1431 681Q1431 645 1407 591T1336 489T1231 390T1092 283T916 172T712 73Q473 -25 249 -25Q78 -25 -50 64Q-184 157 -184 290Q-184 499 41 687Q235 849 498 938Q658 992 769 992Q859 992 921 948Q987
900 987 819Q987 692 786 538Q754 513 728 496L692 472Q592 402 388 315Q451 282 505 282T603 295T702 332T819 389T946 463Q1089 552 1194 645Q1249 696 1334 726Q1362 735 1383 735ZM280 454L335 482Q362 496 383 508Q585 624 613 651T641 688T635 713T619 738Q595
766 568 766T509 756T443 729T380 687T326 634Q273 571 273 525T280 454Z" />
<glyph unicode="&#xea;" glyph-name="ecircumflex" horiz-adv-x="1190" d="M550 1178T512 1154T454 1112T417 1094T387 1099T363 1115Q339 1137 339 1156Q339 1191 359 1212T415 1262T494 1320T587 1376T686 1424Q793 1471 850 1471T947 1451T1026 1398Q1083 1350
1165 1247Q1180 1232 1180 1211T1162 1168T1116 1127Q1053 1086 997 1086Q957 1086 850 1163T717 1241T659 1229T588 1198ZM1383 735Q1431 735 1431 681Q1431 645 1407 591T1336 489T1231 390T1092 283T916 172T712 73Q473 -25 249 -25Q78 -25 -50 64Q-184 157
-184 290Q-184 499 41 687Q235 849 498 938Q658 992 769 992Q859 992 921 948Q987 900 987 819Q987 692 786 538Q754 513 728 496L692 472Q592 402 388 315Q451 282 505 282T603 295T702 332T819 389T946 463Q1089 552 1194 645Q1249 696 1334 726Q1362 735 1383
735ZM280 454L335 482Q362 496 383 508Q585 624 613 651T641 688T635 713T619 738Q595 766 568 766T509 756T443 729T380 687T326 634Q273 571 273 525T280 454Z" />
<glyph unicode="&#xeb;" glyph-name="edieresis" horiz-adv-x="1190" d="M1078 1149T1048 1135T982 1121T913 1134T854 1173Q799 1226 799 1310Q799 1427 986 1483Q1050 1502 1090 1502T1151 1492T1184 1465Q1210 1431 1210 1396T1203 1335T1182 1280T1148 1223T1103
1172ZM456 1149T426 1135T360 1121T291 1134T232 1173Q177 1226 177 1310Q177 1427 364 1483Q428 1502 468 1502T529 1492T562 1465Q588 1431 588 1396T581 1335T560 1280T526 1223T481 1172ZM1383 735Q1431 735 1431 681Q1431 645 1407 591T1336 489T1231 390T1092
283T916 172T712 73Q473 -25 249 -25Q78 -25 -50 64Q-184 157 -184 290Q-184 499 41 687Q235 849 498 938Q658 992 769 992Q859 992 921 948Q987 900 987 819Q987 692 786 538Q754 513 728 496L692 472Q592 402 388 315Q451 282 505 282T603 295T702 332T819 389T946
463Q1089 552 1194 645Q1249 696 1334 726Q1362 735 1383 735ZM280 454L335 482Q362 496 383 508Q585 624 613 651T641 688T635 713T619 738Q595 766 568 766T509 756T443 729T380 687T326 634Q273 571 273 525T280 454Z" />
<glyph unicode="&#xec;" glyph-name="igrave" horiz-adv-x="1020" d="M642 1042Q609 1032 522 1087T377 1186T269 1278Q156 1384 143 1452Q132 1502 158 1549Q207 1637 271 1637Q311 1637 335 1609T382 1548L430 1476Q455 1438 487 1398L618 1244Q682 1168 685
1147T689 1107Q689 1047 642 1042ZM423 965Q652 965 652 829Q652 685 427 450Q404 426 393 417Q393 383 409 357Q437 313 463 313T531 329T621 371T723 432T828 503L1020 645Q1129 724 1197 724Q1224 724 1238 705T1253 659T1227 588T1156 488T1049 374T917 257T770
147T617 56Q451 -31 355 -31T184 2T51 92Q-78 217 -78 370Q-78 511 6 656Q83 787 202 876Q321 965 423 965Z" />
<glyph unicode="&#xed;" glyph-name="iacute" horiz-adv-x="1020" d="M605 1033T584 1051T562 1091T588 1151T658 1234T755 1328T865 1416Q991 1507 1057 1507Q1106 1507 1140 1477Q1205 1421 1205 1357Q1205 1345 1200 1320Q1181 1296 1123 1269L1022 1224Q942
1188 871 1146L762 1082Q679 1033 642 1033ZM423 965Q652 965 652 829Q652 685 427 450Q404 426 393 417Q393 383 409 357Q437 313 463 313T531 329T621 371T723 432T828 503L1020 645Q1129 724 1197 724Q1224 724 1238 705T1253 659T1227 588T1156 488T1049 374T917
257T770 147T617 56Q451 -31 355 -31T184 2T51 92Q-78 217 -78 370Q-78 511 6 656Q83 787 202 876Q321 965 423 965Z" />
<glyph unicode="&#xee;" glyph-name="icircumflex" horiz-adv-x="1020" d="M465 1178T427 1154T369 1112T332 1094T302 1099T278 1115Q254 1137 254 1156Q254 1191 274 1212T330 1262T409 1320T502 1376T600 1424Q708 1471 765 1471T862 1451T940 1398Q998 1350
1080 1247Q1095 1232 1095 1211T1077 1168T1030 1127Q968 1086 912 1086Q872 1086 765 1163T632 1241T574 1229T503 1198ZM423 965Q652 965 652 829Q652 685 427 450Q404 426 393 417Q393 383 409 357Q437 313 463 313T531 329T621 371T723 432T828 503L1020 645Q1129
724 1197 724Q1224 724 1238 705T1253 659T1227 588T1156 488T1049 374T917 257T770 147T617 56Q451 -31 355 -31T184 2T51 92Q-78 217 -78 370Q-78 511 6 656Q83 787 202 876Q321 965 423 965Z" />
<glyph unicode="&#xef;" glyph-name="idieresis" horiz-adv-x="1020" d="M993 1149T963 1135T897 1121T828 1134T768 1173Q714 1226 714 1310Q714 1427 902 1483Q965 1502 1005 1502T1066 1492T1099 1465Q1125 1431 1125 1396T1118 1335T1097 1280T1063 1223T1018
1172ZM371 1149T341 1135T275 1121T206 1134T146 1173Q92 1226 92 1310Q92 1427 280 1483Q343 1502 383 1502T444 1492T477 1465Q503 1431 503 1396T496 1335T475 1280T441 1223T396 1172ZM423 965Q652 965 652 829Q652 685 427 450Q404 426 393 417Q393 383 409
357Q437 313 463 313T531 329T621 371T723 432T828 503L1020 645Q1129 724 1197 724Q1224 724 1238 705T1253 659T1227 588T1156 488T1049 374T917 257T770 147T617 56Q451 -31 355 -31T184 2T51 92Q-78 217 -78 370Q-78 511 6 656Q83 787 202 876Q321 965 423
965Z" />
<glyph unicode="&#xf0;" glyph-name="eth" horiz-adv-x="1191" d="M140 -18Q69 -18 -3 12T-120 92Q-208 188 -208 329Q-208 487 -104 569Q128 755 360 824Q434 846 472 846T539 835T596 804Q662 760 662 718Q662 681 620 663L585 648Q374 557 298 485Q274 462
274 447T280 418T298 390Q323 360 346 360T404 369T484 396Q587 438 667 495T747 655Q747 684 731 757T660 923T536 1095Q357 1022 215 944Q199 936 184 936T156 943T134 962Q115 987 115 1020T130 1066T170 1092T231 1124L418 1215Q377 1253 338 1286L204 1394Q176
1416 160 1432Q153 1464 168 1486Q196 1526 241 1513Q461 1451 651 1323L928 1446Q1050 1499 1084 1508Q1127 1519 1141 1452Q1145 1433 1145 1413T1142 1374T1132 1339Q1118 1303 1096 1296L813 1198Q970 1059 1073 894Q1137 785 1137 685Q1137 503 963 329Q818
195 552 84Q309 -18 140 -18Z" />
<glyph unicode="&#xf1;" glyph-name="ntilde" horiz-adv-x="1531" d="M654 1172T636 1162T601 1151T570 1156T545 1171Q521 1191 521 1217T536 1259T577 1294T637 1331T714 1370T800 1406Q902 1441 967 1441T1079 1415T1164 1358T1238 1300T1308 1274Q1381 1274
1453 1305Q1472 1312 1493 1312T1538 1294T1561 1250T1540 1206T1474 1163T1370 1117Q1226 1064 1113 1064Q1032 1064 918 1132L842 1180Q808 1201 787 1201Q721 1201 688 1187ZM1113 537Q1113 446 1166 446Q1296 446 1504 622L1531 645Q1612 699 1662 699T1726
684T1740 636Q1740 562 1665 479Q1553 343 1358 221Q1132 79 953 79Q828 79 796 218Q787 254 783 287Q773 367 762 376T719 375T642 340T543 280Q257 90 214 63Q111 -1 75 -1T5 14T-56 52Q-110 103 -110 156Q-110 459 22 686Q110 839 238 898Q303 929 378 929Q515
929 515 839Q515 784 450 659L420 600Q388 539 389 531Q395 501 416 501Q439 501 484 535L668 672L760 736Q919 840 994 840Q1034 840 1067 808Q1128 750 1128 707Q1128 693 1126 673T1120 630L1116 583Q1113 559 1113 537Z" />
<glyph unicode="&#xf2;" glyph-name="ograve" horiz-adv-x="1359" d="M805 1042Q772 1032 685 1087T540 1186T432 1278Q319 1384 306 1452Q295 1502 321 1549Q370 1637 434 1637Q474 1637 498 1609T546 1548L593 1476Q618 1438 650 1398L780 1244Q845 1168 848
1147T852 1107Q852 1047 805 1042ZM1067 616Q1067 562 1159 562Q1227 562 1338 628L1416 672Q1454 693 1481 693T1525 676T1541 629T1521 560T1466 477T1384 391T1284 314Q1163 239 1060 239Q951 239 886 276Q866 288 847 301Q740 179 537 77Q321 -31 160 -31Q-9
-31 -106 102Q-186 210 -186 321Q-186 481 -15 626Q111 732 228 787T442 872Q642 935 803 935Q875 935 931 908T1016 852Q1079 789 1079 691Q1079 662 1073 646T1067 616ZM249 427L248 424V423Q248 380 268 367Q313 339 364 352T461 386Q575 435 667 510Q651 542
651 576Q651 648 714 720Q634 720 498 645Q409 596 352 547Q249 461 249 427Z" />
<glyph unicode="&#xf3;" glyph-name="oacute" horiz-adv-x="1359" d="M768 1033T747 1051T725 1091T751 1151T821 1234T918 1328T1028 1416Q1154 1507 1220 1507Q1269 1507 1303 1477Q1368 1421 1368 1357Q1368 1345 1363 1320Q1344 1296 1286 1269L1186 1224Q1105
1188 1034 1146L926 1082Q842 1033 805 1033ZM1067 616Q1067 562 1159 562Q1227 562 1338 628L1416 672Q1454 693 1481 693T1525 676T1541 629T1521 560T1466 477T1384 391T1284 314Q1163 239 1060 239Q951 239 886 276Q866 288 847 301Q740 179 537 77Q321 -31
160 -31Q-9 -31 -106 102Q-186 210 -186 321Q-186 481 -15 626Q111 732 228 787T442 872Q642 935 803 935Q875 935 931 908T1016 852Q1079 789 1079 691Q1079 662 1073 646T1067 616ZM249 427L248 424V423Q248 380 268 367Q313 339 364 352T461 386Q575 435 667
510Q651 542 651 576Q651 648 714 720Q634 720 498 645Q409 596 352 547Q249 461 249 427Z" />
<glyph unicode="&#xf4;" glyph-name="ocircumflex" horiz-adv-x="1359" d="M628 1178T590 1154T532 1112T495 1094T465 1099T441 1115Q417 1137 417 1156Q417 1191 437 1212T493 1262T572 1320T665 1376T764 1424Q871 1471 928 1471T1025 1451T1104 1398Q1161
1350 1243 1247Q1258 1232 1258 1211T1240 1168T1194 1127Q1131 1086 1075 1086Q1035 1086 928 1163T795 1241T737 1229T666 1198ZM1067 616Q1067 562 1159 562Q1227 562 1338 628L1416 672Q1454 693 1481 693T1525 676T1541 629T1521 560T1466 477T1384 391T1284
314Q1163 239 1060 239Q951 239 886 276Q866 288 847 301Q740 179 537 77Q321 -31 160 -31Q-9 -31 -106 102Q-186 210 -186 321Q-186 481 -15 626Q111 732 228 787T442 872Q642 935 803 935Q875 935 931 908T1016 852Q1079 789 1079 691Q1079 662 1073 646T1067
616ZM249 427L248 424V423Q248 380 268 367Q313 339 364 352T461 386Q575 435 667 510Q651 542 651 576Q651 648 714 720Q634 720 498 645Q409 596 352 547Q249 461 249 427Z" />
<glyph unicode="&#xf5;" glyph-name="otilde" horiz-adv-x="1359" d="M477 1172T459 1162T424 1151T393 1156T368 1171Q344 1191 344 1217T359 1259T400 1294T460 1331T537 1370T624 1406Q725 1441 790 1441T902 1415T987 1358T1061 1300T1130 1274Q1204 1274
1276 1305Q1295 1312 1316 1312T1361 1294T1384 1250T1363 1206T1297 1163T1192 1117Q1049 1064 936 1064Q855 1064 740 1132L664 1180Q631 1201 610 1201Q544 1201 511 1187ZM1067 616Q1067 562 1159 562Q1227 562 1338 628L1416 672Q1454 693 1481 693T1525 676T1541
629T1521 560T1466 477T1384 391T1284 314Q1163 239 1060 239Q951 239 886 276Q866 288 847 301Q740 179 537 77Q321 -31 160 -31Q-9 -31 -106 102Q-186 210 -186 321Q-186 481 -15 626Q111 732 228 787T442 872Q642 935 803 935Q875 935 931 908T1016 852Q1079
789 1079 691Q1079 662 1073 646T1067 616ZM249 427L248 424V423Q248 380 268 367Q313 339 364 352T461 386Q575 435 667 510Q651 542 651 576Q651 648 714 720Q634 720 498 645Q409 596 352 547Q249 461 249 427Z" />
<glyph unicode="&#xf6;" glyph-name="odieresis" horiz-adv-x="1359" d="M1156 1149T1126 1135T1060 1121T991 1134T932 1173Q877 1226 877 1310Q877 1427 1064 1483Q1128 1502 1168 1502T1229 1492T1262 1465Q1288 1431 1288 1396T1281 1335T1260 1280T1226 1223T1181
1172ZM534 1149T504 1135T438 1121T369 1134T310 1173Q255 1226 255 1310Q255 1427 442 1483Q506 1502 546 1502T607 1492T640 1465Q666 1431 666 1396T659 1335T638 1280T604 1223T559 1172ZM1067 616Q1067 562 1159 562Q1227 562 1338 628L1416 672Q1454 693
1481 693T1525 676T1541 629T1521 560T1466 477T1384 391T1284 314Q1163 239 1060 239Q951 239 886 276Q866 288 847 301Q740 179 537 77Q321 -31 160 -31Q-9 -31 -106 102Q-186 210 -186 321Q-186 481 -15 626Q111 732 228 787T442 872Q642 935 803 935Q875 935
931 908T1016 852Q1079 789 1079 691Q1079 662 1073 646T1067 616ZM249 427L248 424V423Q248 380 268 367Q313 339 364 352T461 386Q575 435 667 510Q651 542 651 576Q651 648 714 720Q634 720 498 645Q409 596 352 547Q249 461 249 427Z" />
<glyph unicode="&#xf7;" glyph-name="divide" horiz-adv-x="2209" d="M959 1065Q959 1118 986 1146Q1034 1193 1087 1193Q1140 1193 1168 1166Q1215 1118 1215 1065Q1215 1011 1188 984Q1140 936 1087 936Q1034 936 1006 964Q959 1011 959 1065ZM542 676H1633V523H542V676ZM959
128Q959 181 986 208Q1034 256 1087 256Q1140 256 1168 228Q1215 181 1215 128Q1215 74 1188 46Q1140 -1 1087 -1Q1034 -1 1006 26Q959 74 959 128Z" />
<glyph unicode="&#xf8;" glyph-name="oslash" horiz-adv-x="1359" d="M-214 -126Q-214 -53 -77 74Q-151 153 -173 266Q-179 296 -179 339T-156 435T-95 536Q61 732 383 850Q543 909 694 927Q810 1058 990 1174Q1060 1219 1088 1219T1135 1211T1166 1188Q1191 1161
1191 1132T1175 1076T1131 1016Q1072 944 994 876Q1086 811 1086 691Q1086 662 1080 646T1074 616Q1074 562 1166 562Q1234 562 1344 628L1424 672Q1461 693 1488 693T1532 676T1548 629T1528 560T1473 477T1391 391T1290 314Q1170 239 1067 239Q958 239 893 276Q873
288 854 301Q746 180 552 81Q347 -24 182 -30Q70 -149 -29 -196Q-62 -211 -103 -211T-179 -189T-214 -126ZM256 427L255 424V423Q255 380 274 367Q320 339 371 352T468 386Q582 435 674 510Q658 542 658 576Q658 648 721 720Q641 720 505 645Q355 562 280 474Q256
444 256 427Z" />
<glyph unicode="&#xf9;" glyph-name="ugrave" horiz-adv-x="1701" d="M870 1042Q837 1032 750 1087T605 1186T497 1278Q384 1384 371 1452Q360 1502 386 1549Q435 1637 499 1637Q539 1637 563 1609T610 1548L658 1476Q683 1438 715 1398L846 1244Q910 1168 913
1147T917 1107Q917 1047 870 1042ZM1265 503Q1265 402 1354 402Q1443 402 1662 573L1750 645Q1837 717 1916 717Q1945 717 1954 702T1963 663T1955 614T1931 560Q1898 497 1867 462T1795 390T1696 306T1570 211T1431 122Q1273 30 1171 30Q1049 30 980 116Q915 196
907 330Q727 145 526 45Q403 -16 318 -16T169 4T57 66Q-47 153 -47 308Q-47 530 112 736Q162 800 224 848Q358 932 508 932Q574 932 602 891Q613 875 613 850T599 791T563 721T517 645T470 569Q420 481 420 443T442 386T496 368Q567 368 617 402T716 482L810 574L901
668Q998 767 1048 791T1122 810T1169 789T1216 751Q1270 699 1276 657Q1278 630 1272 577T1265 503Z" />
<glyph unicode="&#xfa;" glyph-name="uacute" horiz-adv-x="1701" d="M833 1033T812 1051T790 1091T816 1151T886 1234T983 1328T1093 1416Q1219 1507 1285 1507Q1334 1507 1368 1477Q1433 1421 1433 1357Q1433 1345 1428 1320Q1409 1296 1351 1269L1250 1224Q1170
1188 1099 1146L990 1082Q907 1033 870 1033ZM1265 503Q1265 402 1354 402Q1443 402 1662 573L1750 645Q1837 717 1916 717Q1945 717 1954 702T1963 663T1955 614T1931 560Q1898 497 1867 462T1795 390T1696 306T1570 211T1431 122Q1273 30 1171 30Q1049 30 980
116Q915 196 907 330Q727 145 526 45Q403 -16 318 -16T169 4T57 66Q-47 153 -47 308Q-47 530 112 736Q162 800 224 848Q358 932 508 932Q574 932 602 891Q613 875 613 850T599 791T563 721T517 645T470 569Q420 481 420 443T442 386T496 368Q567 368 617 402T716
482L810 574L901 668Q998 767 1048 791T1122 810T1169 789T1216 751Q1270 699 1276 657Q1278 630 1272 577T1265 503Z" />
<glyph unicode="&#xfb;" glyph-name="ucircumflex" horiz-adv-x="1701" d="M693 1178T655 1154T597 1112T560 1094T530 1099T506 1115Q482 1137 482 1156Q482 1191 502 1212T558 1262T637 1320T730 1376T828 1424Q936 1471 993 1471T1090 1451T1168 1398Q1226
1350 1308 1247Q1323 1232 1323 1211T1305 1168T1258 1127Q1196 1086 1140 1086Q1100 1086 993 1163T860 1241T802 1229T731 1198ZM1265 503Q1265 402 1354 402Q1443 402 1662 573L1750 645Q1837 717 1916 717Q1945 717 1954 702T1963 663T1955 614T1931 560Q1898
497 1867 462T1795 390T1696 306T1570 211T1431 122Q1273 30 1171 30Q1049 30 980 116Q915 196 907 330Q727 145 526 45Q403 -16 318 -16T169 4T57 66Q-47 153 -47 308Q-47 530 112 736Q162 800 224 848Q358 932 508 932Q574 932 602 891Q613 875 613 850T599 791T563
721T517 645T470 569Q420 481 420 443T442 386T496 368Q567 368 617 402T716 482L810 574L901 668Q998 767 1048 791T1122 810T1169 789T1216 751Q1270 699 1276 657Q1278 630 1272 577T1265 503Z" />
<glyph unicode="&#xfc;" glyph-name="udieresis" horiz-adv-x="1701" d="M1221 1149T1191 1135T1125 1121T1056 1134T996 1173Q942 1226 942 1310Q942 1427 1130 1483Q1193 1502 1233 1502T1294 1492T1327 1465Q1353 1431 1353 1396T1346 1335T1325 1280T1291
1223T1246 1172ZM599 1149T569 1135T503 1121T434 1134T374 1173Q320 1226 320 1310Q320 1427 508 1483Q571 1502 611 1502T672 1492T705 1465Q731 1431 731 1396T724 1335T703 1280T669 1223T624 1172ZM1265 503Q1265 402 1354 402Q1443 402 1662 573L1750 645Q1837
717 1916 717Q1945 717 1954 702T1963 663T1955 614T1931 560Q1898 497 1867 462T1795 390T1696 306T1570 211T1431 122Q1273 30 1171 30Q1049 30 980 116Q915 196 907 330Q727 145 526 45Q403 -16 318 -16T169 4T57 66Q-47 153 -47 308Q-47 530 112 736Q162 800
224 848Q358 932 508 932Q574 932 602 891Q613 875 613 850T599 791T563 721T517 645T470 569Q420 481 420 443T442 386T496 368Q567 368 617 402T716 482L810 574L901 668Q998 767 1048 791T1122 810T1169 789T1216 751Q1270 699 1276 657Q1278 630 1272 577T1265
503Z" />
<glyph unicode="&#xfd;" glyph-name="yacute" horiz-adv-x="1530" d="M857 1033T836 1051T814 1091T840 1151T910 1234T1007 1328T1117 1416Q1243 1507 1309 1507Q1358 1507 1392 1477Q1457 1421 1457 1357Q1457 1345 1452 1320Q1433 1296 1375 1269L1274 1224Q1194
1188 1123 1146L1014 1082Q931 1033 894 1033ZM356 425Q356 379 417 379Q541 379 839 688L936 786Q1035 883 1067 883T1124 872T1168 844Q1207 809 1207 770T1199 683T1172 576Q1139 466 1053 281L1012 193L1182 347L1530 645Q1583 685 1618 685Q1694 685 1694
612Q1694 537 1596 419Q1566 382 1531 350L1295 145L835 -244Q774 -297 743 -328Q706 -388 686 -417T645 -480T606 -538Q565 -590 524 -590Q481 -590 441 -555Q367 -490 367 -439T395 -321T468 -166L680 225Q527 87 440 43T294 -16T168 -31T51 -4T-32 70Q-96 161
-96 307Q-96 462 -18 613Q57 761 180 851Q310 947 447 947T584 840Q584 773 470 642T356 425Z" />
<glyph unicode="&#xfe;" glyph-name="thorn" horiz-adv-x="1360" d="M165 97Q165 161 222 190L860 515Q965 569 965 609Q965 638 918 638T826 625T731 588T624 534L344 376L264 333Q225 313 191 300Q120 147 81 -15T24 -256T-14 -392Q-57 -514 -126 -514Q-220
-514 -274 -449T-328 -283T-315 -85T-270 113Q-202 334 -62 490Q-19 637 184 938L301 1105Q449 1306 615 1436Q767 1555 857 1555Q883 1555 900 1536T917 1495Q917 1445 886 1392T802 1257L590 934Q489 780 485 762T480 735T491 727T554 750L682 808Q970 934 1148
934Q1249 934 1316 841Q1380 754 1380 633Q1380 463 1241 371Q637 -1 401 -1T165 97Z" />
<glyph unicode="&#xff;" glyph-name="ydieresis" horiz-adv-x="1530" d="M1245 1149T1215 1135T1149 1121T1080 1134T1020 1173Q966 1226 966 1310Q966 1427 1154 1483Q1217 1502 1257 1502T1318 1492T1351 1465Q1377 1431 1377 1396T1370 1335T1349 1280T1315
1223T1270 1172ZM623 1149T593 1135T527 1121T458 1134T398 1173Q344 1226 344 1310Q344 1427 532 1483Q595 1502 635 1502T696 1492T729 1465Q755 1431 755 1396T748 1335T727 1280T693 1223T648 1172ZM356 425Q356 379 417 379Q541 379 839 688L936 786Q1035
883 1067 883T1124 872T1168 844Q1207 809 1207 770T1199 683T1172 576Q1139 466 1053 281L1012 193L1182 347L1530 645Q1583 685 1618 685Q1694 685 1694 612Q1694 537 1596 419Q1566 382 1531 350L1295 145L835 -244Q774 -297 743 -328Q706 -388 686 -417T645
-480T606 -538Q565 -590 524 -590Q481 -590 441 -555Q367 -490 367 -439T395 -321T468 -166L680 225Q527 87 440 43T294 -16T168 -31T51 -4T-32 70Q-96 161 -96 307Q-96 462 -18 613Q57 761 180 851Q310 947 447 947T584 840Q584 773 470 642T356 425Z" />
<glyph unicode="&#x2013;" glyph-name="endash" horiz-adv-x="1872" d="M387 300Q352 300 352 341Q352 380 374 420T417 476T460 506Q510 532 548 532H1460Q1476 532 1490 521T1504 489Q1504 449 1478 405T1415 330T1340 299L387 300Z" />
<glyph unicode="&#x2014;" glyph-name="emdash" horiz-adv-x="2558" d="M387 300Q352 300 352 341Q352 380 374 420T417 476T460 506Q510 532 548 532H2097Q2113 532 2127 521T2141 489Q2141 449 2115 405T2052 330T1977 299L387 300Z" />
<glyph unicode="&#x2018;" glyph-name="quoteleft" horiz-adv-x="1021" d="M755 866T701 849T601 831T518 836T450 857Q380 891 380 957T406 1077T473 1178T568 1262T674 1328Q859 1425 938 1389Q949 1384 956 1377L974 1358Q986 1346 986 1335Q986 1314 962 1302L910
1278Q793 1223 741 1171Q831 1161 868 1110Q888 1082 888 1043T863 965T797 896Z" />
<glyph unicode="&#x2019;" glyph-name="quoteright" horiz-adv-x="1021" d="M449 859Q449 859 430 878Q419 890 419 901Q419 922 444 934Q444 934 494 958Q612 1013 664 1065Q574 1075 538 1126Q517 1154 517 1193T542 1271T608 1340Q698 1405 816 1405Q955 1405
1006 1338Q1025 1313 1025 1263T999 1159T932 1058T837 974T730 908Q514 794 449 859Z" />
<glyph unicode="&#x201a;" glyph-name="quotesinglbase" horiz-adv-x="1192" d="M144 -199Q133 -187 133 -171T158 -143L208 -120Q326 -64 378 -12Q288 -2 252 49Q231 77 231 116T256 194T322 263Q412 328 530 328Q669 328 720 262Q739 236 739 186T713 82T646
-19T551 -103T444 -169Q260 -266 181 -230Q170 -225 163 -218L144 -199Z" />
<glyph unicode="&#x201c;" glyph-name="quotedblleft" horiz-adv-x="1698" d="M1058 898Q1038 923 1038 973T1064 1077T1131 1178T1226 1262T1332 1328Q1517 1425 1596 1389Q1607 1384 1614 1377L1632 1358Q1644 1346 1644 1335Q1644 1314 1620 1302L1568 1278Q1451
1223 1399 1171Q1489 1161 1526 1110Q1546 1082 1546 1043T1521 965T1454 896Q1365 831 1247 831Q1108 831 1058 898ZM765 866T711 849T611 831T528 836T460 857Q390 891 390 957T416 1077T483 1178T578 1262T684 1328Q869 1425 948 1389Q959 1384 966 1377L984
1358Q996 1346 996 1335Q996 1314 972 1302L920 1278Q803 1223 751 1171Q841 1161 878 1110Q898 1082 898 1043T873 965T807 896Z" />
<glyph unicode="&#x201d;" glyph-name="quotedblright" horiz-adv-x="1698" d="M1087 859Q1087 859 1068 878Q1057 890 1057 901Q1057 922 1082 934Q1082 934 1132 958Q1250 1013 1302 1065Q1212 1075 1176 1126Q1155 1154 1155 1193T1180 1271T1246 1340Q1336
1405 1454 1405Q1593 1405 1644 1338Q1663 1313 1663 1263T1637 1159T1570 1058T1475 974T1368 908Q1152 794 1087 859ZM439 859L420 878Q409 890 409 901Q409 922 434 934L484 958Q602 1013 654 1065Q564 1075 528 1126Q507 1154 507 1193T532 1271T598 1340Q688
1405 806 1405Q945 1405 996 1338Q1015 1313 1015 1263T989 1159T922 1058T827 974T720 908Q504 794 439 859Z" />
<glyph unicode="&#x201e;" glyph-name="quotedblbase" horiz-adv-x="1870" d="M792 -198Q781 -186 781 -170T806 -142L856 -118Q974 -63 1026 -11Q936 -1 900 50Q879 78 879 117T904 195T970 264Q1060 329 1178 329Q1317 329 1368 262Q1387 237 1387 187T1361
83T1294 -18T1199 -102T1092 -168Q908 -265 829 -229Q818 -224 811 -217L792 -198ZM144 -198Q133 -186 133 -170T158 -142L208 -118Q326 -63 378 -11Q288 -1 252 50Q231 78 231 117T256 195T322 264Q412 329 530 329Q669 329 720 262Q739 237 739 187T713 83T646
-18T551 -102T444 -168Q260 -265 181 -229Q170 -224 163 -217L144 -198Z" />
<glyph unicode="&#x2022;" glyph-name="bullet" horiz-adv-x="1359" d="M407 464T382 517T356 623T378 712T435 774T514 820T602 851Q690 875 745 875T836 860T894 818Q939 768 939 691Q939 600 867 482Q785 348 679 348Q542 348 450 426Q407 464 382 517Z" />
<glyph unicode="&#x2039;" glyph-name="guilsinglleft" horiz-adv-x="1533" d="M558 284T534 320T510 393T532 463T592 534T676 607T772 678T870 742Q984 812 1011 827T1046 846T1069 849T1098 842Q1131 826 1131 805T1115 773T1074 741T1018 686T953 612T891
528Q826 427 826 358Q826 272 938 196Q972 173 972 156T959 129T928 115Q886 103 872 110T828 129T759 158T675 200T595 254Z" />
<glyph unicode="&#x203a;" glyph-name="guilsinglright" horiz-adv-x="1533" d="M468 113T459 123T449 149T465 175T506 207T562 262T627 336T689 420Q754 521 754 590Q754 676 642 752Q608 775 608 792T621 818T652 833Q694 845 708 838T752 819T821 790T905
748T986 694Q1070 625 1070 548Q1070 430 710 206Q596 136 569 121T534 102T511 99T482 106Z" />
</font>
</defs>
</svg>
