<?xml version="1.0" standalone="no"?>
<!DOCTYPE svg PUBLIC "-//W3C//DTD SVG 1.1//EN" "http://www.w3.org/Graphics/SVG/1.1/DTD/svg11.dtd">
<svg xmlns="http://www.w3.org/2000/svg">
<defs >
<font id="Philosopher" horiz-adv-x="550" ><font-face
    font-family="Philosopher"
    units-per-em="1000"
    panose-1="0 0 5 0 0 0 0 0 0 0"
    ascent="900"
    descent="-220"
    alphabetic="0" />
<glyph unicode=" " glyph-name="space" horiz-adv-x="250" />
<glyph unicode="!" glyph-name="exclam" horiz-adv-x="239" d="M69 155L140 660H234L127 155H69ZM48 -14T36 -2T23 31Q23 55 42 74T87 94Q107 94 120 81T133 49Q133 26 113 6T68 -14Q48 -14 36 -2Z" />
<glyph unicode="&quot;" glyph-name="quotedbl" horiz-adv-x="368" d="M102 390L120 660H220L142 390H102ZM262 390L280 660H380L302 390H262Z" />
<glyph unicode="#" glyph-name="numbersign" horiz-adv-x="669" d="M78 0L143 175H13L24 235H168L236 415H116L126 475H259L337 675H402L324 475H469L547 675H612L534 475H671L661 415H511L442 235H569L558 175H418L353 0H288L353 175H208L143 0H78ZM232 235H378L446
415H301L232 235Z" />
<glyph unicode="$" glyph-name="dollar" horiz-adv-x="524" d="M185 -15Q115 -9 67 21T18 94Q18 106 38 212H56V208Q56 120 89 76T192 24L239 294L177 336Q128 369 108 399T87 472Q87 530 116 575T195 647T307 678L317 735H357L347 676Q413 670 461 642T510 570Q510
565 506 543L490 451H472V455Q472 541 440 584T340 636L295 383L371 333Q422 299 445 269T469 198Q469 136 436 88T346 13T225 -17L213 -80H173L185 -15ZM300 638Q249 634 210 601T171 517Q171 484 191 461T259 407L300 638ZM267 25T300 40T354 82T375 146Q375
179 354 205T287 263L275 270L232 23Q267 25 300 40Z" />
<glyph unicode="%" glyph-name="percent" horiz-adv-x="676" d="M139 395T107 422T75 500Q75 546 97 583T159 643T247 665Q307 665 339 638T371 560Q371 514 349 477T287 417T199 395Q139 395 107 422ZM25 0L596 660H671L100 0H25ZM254 430T282 468T311 559Q311
630 241 630Q192 630 164 592T135 500Q135 430 205 430Q254 430 282 468ZM389 -5T357 22T324 100Q324 146 346 183T408 243T496 265Q556 265 588 238T620 160Q620 114 598 77T537 17T449 -5Q389 -5 357 22ZM504 30T532 68T560 160Q560 230 490 230Q441 230 413
192T384 101Q384 30 455 30Q504 30 532 68Z" />
<glyph unicode="&amp;" glyph-name="ampersand" horiz-adv-x="614" d="M109 -20T62 16T15 112Q15 158 40 195T100 259T194 326Q176 344 158 372Q123 425 123 490Q123 544 151 587T227 655T333 680Q401 680 438 649T476 566Q476 496 426 444T292 340L455 120Q502
164 536 205Q553 225 567 245L584 230L554 188Q514 135 472 97L544 0H434L401 43Q305 -20 200 -20Q109 -20 62 16ZM324 416T357 461T390 564Q390 605 372 625T327 645Q295 645 270 623T232 567T219 498Q219 456 237 422T268 375Q324 416 357 461ZM310 15T384 66L218
291Q111 213 111 112Q111 15 225 15Q310 15 384 66Z" />
<glyph unicode="&apos;" glyph-name="quotesingle" horiz-adv-x="208" d="M102 390L120 660H220L142 390H102Z" />
<glyph unicode="(" glyph-name="parenleft" horiz-adv-x="310" d="M109 -133T64 -49T19 140Q19 312 106 444T357 690L365 675Q240 577 173 424T105 101Q105 -86 211 -195L198 -210Q109 -133 64 -49Z" />
<glyph unicode=")" glyph-name="parenright" horiz-adv-x="310" d="M-68 -195Q56 -96 123 56T191 378Q191 561 85 675L97 690Q187 613 232 529T277 339Q277 168 189 35T-61 -210L-68 -195Z" />
<glyph unicode="*" glyph-name="asterisk" horiz-adv-x="425" d="M181 330L237 480L104 375L76 445L230 495L94 545L146 615L242 510L239 660H319L262 510L396 615L424 545L270 495L406 445L354 375L257 480L261 330H181Z" />
<glyph unicode="+" glyph-name="plus" horiz-adv-x="529" d="M203 100L238 300H38L49 360H249L284 560H344L309 360H509L498 300H298L263 100H203Z" />
<glyph unicode="," glyph-name="comma" horiz-adv-x="241" d="M-10 -140Q34 -112 60 -80T94 -5L62 -15Q42 -15 29 -2T16 30Q16 57 37 78T87 100Q142 100 142 48Q142 -13 101 -67T-3 -155L-10 -140Z" />
<glyph unicode="-" glyph-name="hyphen" horiz-adv-x="389" d="M59 230L71 300H326L314 230H59Z" />
<glyph unicode="." glyph-name="period" horiz-adv-x="225" d="M42 -14T30 -2T17 31Q17 56 36 75T81 95Q102 95 114 82T127 50Q127 26 108 6T62 -14Q42 -14 30 -2Z" />
<glyph unicode="/" glyph-name="slash" horiz-adv-x="445" d="M-23 0L414 660H487L50 0H-23Z" />
<glyph unicode="0" glyph-name="zero" horiz-adv-x="587" d="M50 -20T50 201Q50 305 81 415T182 602T364 680Q555 680 555 458Q555 354 524 244T423 57T241 -20Q50 -20 50 201ZM315 20T364 96T437 284T462 499Q462 572 438 606T357 640Q290 640 242 564T169 375T144
160Q144 88 168 54T248 20Q315 20 364 96Z" />
<glyph unicode="1" glyph-name="one" horiz-adv-x="306" d="M80 0L178 560L70 497L56 520L236 660H286L170 0H80Z" />
<glyph unicode="2" glyph-name="two" horiz-adv-x="532" d="M3 50Q57 99 173 194Q265 269 310 313T383 409T410 528Q410 583 380 611T302 640Q241 640 189 596T107 470H87Q96 519 105 549T134 600Q168 634 224 657T339 680Q408 680 459 649T510 536Q510 456 460
382T339 247T161 107Q81 47 72 40H297Q358 40 394 66T440 145H460L449 80Q442 44 420 22T350 0H-5L3 50Z" />
<glyph unicode="3" glyph-name="three" horiz-adv-x="531" d="M78 -20T7 87L26 105Q56 62 98 41T196 20Q248 20 289 48T354 122T378 222Q378 278 346 309T272 340Q236 340 217 338T178 331T150 325L131 367L447 620H262Q201 620 165 594T118 515H98L110 580Q117
616 139 638T209 660H527L520 620L208 370Q242 380 300 380Q335 380 376 367T448 320T479 226Q479 158 444 102T348 13T214 -20Q78 -20 7 87Z" />
<glyph unicode="4" glyph-name="four" horiz-adv-x="549" d="M291 0L320 170H0L8 210L417 660H497L418 210H508L500 170H410L381 0H291ZM68 210H328L390 564L68 210Z" />
<glyph unicode="5" glyph-name="five" horiz-adv-x="533" d="M135 -20T90 6T9 85L31 102Q62 60 102 40T198 20Q254 20 295 48T359 122T381 225Q381 340 244 340Q198 340 158 335L118 330L85 370L146 660H521L514 620H221L169 375L202 377Q259 380 272 380Q357
380 419 345T481 226Q481 154 444 98T343 11T206 -20Q135 -20 90 6Z" />
<glyph unicode="6" glyph-name="six" horiz-adv-x="538" d="M138 -20T94 33T49 193Q49 302 80 414T185 603T374 680Q450 680 524 650L516 630Q454 640 387 640Q300 640 244 573T167 385Q201 406 238 418T325 430Q409 430 450 388T491 270Q491 198 460 131T369
22T231 -20Q138 -20 94 33ZM288 20T324 61T378 160T397 269Q397 390 288 390Q252 390 222 378T159 340Q143 248 143 183Q143 20 238 20Q288 20 324 61Z" />
<glyph unicode="7" glyph-name="seven" horiz-adv-x="477" d="M431 620H231Q170 620 134 594T87 515H67L79 580Q86 616 108 638T178 660H528L521 620L162 0H72L431 620Z" />
<glyph unicode="8" glyph-name="eight" horiz-adv-x="556" d="M135 -20T79 14T22 118Q22 192 74 243T218 335Q168 366 140 400T111 482Q111 545 143 590T228 657T348 680Q430 680 479 650T528 554Q528 490 486 440T371 355Q411 328 434 308T473 259T490 192Q490
125 453 77T355 5T225 -20Q135 -20 79 14ZM433 447T433 552Q433 599 407 619T341 640Q307 640 277 624T229 580T211 514Q211 441 331 380Q433 447 433 552ZM272 20T308 38T367 89T390 164Q390 212 357 245T259 315Q197 287 157 237T117 121Q117 72 149 46T232 20Q272
20 308 38Z" />
<glyph unicode="9" glyph-name="nine" horiz-adv-x="539" d="M139 -20T104 -12T33 10L42 30Q100 20 170 20Q257 20 313 87T390 275Q357 254 319 242T232 230Q147 230 107 271T66 390Q66 462 97 529T188 638T326 680Q419 680 463 627T508 465Q508 355 477 244T372
57T183 -20Q139 -20 104 -12ZM305 270T335 282T398 320Q414 412 414 477Q414 640 319 640Q269 640 233 599T179 499T160 390Q160 270 269 270Q305 270 335 282Z" />
<glyph unicode=":" glyph-name="colon" horiz-adv-x="243" d="M115 353T102 365T89 398Q89 422 109 441T154 461Q175 461 187 449T199 417Q199 392 180 373T135 353Q115 353 102 365ZM49 -14T37 -2T24 31Q24 56 43 75T88 95Q109 95 122 82T135 50Q135 26 115 6T69
-14Q49 -14 37 -2Z" />
<glyph unicode=";" glyph-name="semicolon" horiz-adv-x="259" d="M125 354T112 366T99 397Q99 422 118 441T164 461Q184 461 197 448T210 416Q210 393 190 374T145 354Q125 354 112 366ZM-3 -140Q45 -107 70 -77T103 0Q102 -1 93 -8T65 -15Q45 -15 35 -3T24 28Q24
57 46 78T100 100Q122 100 135 85T148 43Q148 -17 110 -64T5 -154L-3 -140Z" />
<glyph unicode="&lt;" glyph-name="less" horiz-adv-x="620" d="M518 95L38 320L43 350L603 575L592 515L144 335L529 155L518 95Z" />
<glyph unicode="=" glyph-name="equal" horiz-adv-x="662" d="M87 390L98 450H623L612 390H87ZM56 210L66 270H591L581 210H56Z" />
<glyph unicode="&gt;" glyph-name="greater" horiz-adv-x="620" d="M37 95L48 155L497 335L111 515L122 575L602 350L597 320L37 95Z" />
<glyph unicode="?" glyph-name="question" horiz-adv-x="481" d="M197 206T222 244T291 330Q324 368 343 394T376 454T389 528Q389 583 359 611T281 640Q220 640 167 596T85 470H65Q74 521 83 550T113 600Q147 634 203 657T318 680Q387 680 438 649T489 536Q489
482 471 442T425 375T353 310Q300 267 271 235T226 156H186Q197 206 222 244ZM155 -13T143 -1T131 31Q131 56 150 76T195 96Q216 96 229 83T242 50Q242 26 222 7T176 -13Q155 -13 143 -1Z" />
<glyph unicode="@" glyph-name="at" horiz-adv-x="855" d="M199 -180T112 -97T25 140Q25 276 81 400T245 602T500 680Q600 680 673 644T787 537T827 367Q827 285 802 202T721 62T576 5Q536 5 514 17T480 55H475Q422 0 336 0Q261 0 224 48T186 173Q186 241 214
315T297 440T427 490Q509 490 542 435H547L590 480H640L574 105Q573 102 573 90Q573 70 583 58T613 45Q669 45 708 99T766 229T786 362Q786 496 708 568T493 640Q361 640 264 571T116 387T65 145Q65 6 142 -67T356 -140Q453 -140 532 -119T681 -55L696 -85Q542
-180 349 -180Q199 -180 112 -97ZM407 40T433 57T484 105L534 390Q521 418 503 434T450 450Q394 450 356 403T299 290T280 166Q280 108 301 74T368 40Q407 40 433 57Z" />
<glyph unicode="A" glyph-name="A" horiz-adv-x="634" d="M528 -5T487 21T429 125L415 190H135L22 0H-23L373 660H403L529 125Q541 68 560 46T620 20L617 0Q597 -5 576 -5Q528 -5 487 21ZM157 230H402L333 520L157 230Z" />
<glyph unicode="B" glyph-name="B" horiz-adv-x="624" d="M154 540Q158 561 158 583Q158 611 145 625T101 640H81L85 660H345Q444 660 515 631T587 518Q587 454 543 409T428 340Q503 328 536 297T569 217Q569 105 480 53T259 0H59L154 540ZM306 355Q350 355 393
374T464 429T492 512Q492 567 445 596T334 625Q299 625 257 615L211 355H306ZM304 35T353 53T435 109T467 204Q467 258 425 286T299 315H204L157 49Q202 35 250 35Q304 35 353 53Z" />
<glyph unicode="C" glyph-name="C" horiz-adv-x="666" d="M222 -20T164 14T76 108T45 245Q45 342 95 444T233 613T425 680Q473 680 524 669T614 628T652 550Q652 527 644 477L640 450H620Q618 547 575 593T448 640Q351 640 283 582T180 431T145 241Q145 144 192
82T339 20Q412 20 473 55T589 160L606 145Q542 55 470 18T302 -20Q222 -20 164 14Z" />
<glyph unicode="D" glyph-name="D" horiz-adv-x="716" d="M154 540Q158 561 158 583Q158 611 145 625T101 640H81L85 660H347Q517 660 603 593T689 405Q689 290 633 198T479 53T257 0H59L154 540ZM351 35T424 87T538 222T579 398Q579 502 521 563T362 625Q316
625 259 609L160 48Q216 35 260 35Q351 35 424 87Z" />
<glyph unicode="E" glyph-name="E" horiz-adv-x="593" d="M120 348Q130 409 144 492T159 583Q159 611 146 625T102 640H82L86 660H512Q585 660 585 602Q585 600 581 576L570 505H550Q553 522 553 535Q553 620 445 620H259L213 360H483L476 320H206L157 40H332Q401
40 444 65T521 150L540 145L488 50Q462 0 405 0H60L120 348Z" />
<glyph unicode="F" glyph-name="F" horiz-adv-x="531" d="M120 348Q130 409 144 492T159 583Q159 611 146 625T102 640H82L86 660H485Q558 660 558 602Q558 600 554 576L543 505H523Q526 522 526 535Q526 620 418 620H259L212 355H438L431 315H205L150 0H60L120 348Z" />
<glyph unicode="G" glyph-name="G" horiz-adv-x="720" d="M246 -20T182 17T84 120T49 269Q49 369 97 464T231 619T425 680Q512 680 587 652T662 550Q662 519 652 465H632Q626 640 448 640Q351 640 283 580T180 426T145 236Q145 123 198 72T339 20Q390 20 427 29T500
55L531 229Q537 263 552 288T607 329T717 346L713 326Q668 326 649 303T621 231L588 43Q528 10 467 -5T332 -20Q246 -20 182 17Z" />
<glyph unicode="H" glyph-name="H" horiz-adv-x="696" d="M154 540Q158 561 158 583Q158 611 145 625T101 640H81L85 660H175Q217 660 233 648T250 599Q250 576 244 540L212 360H512L565 660H655L560 120Q555 88 555 75Q555 47 568 34T612 20H632L629 0H539Q498
0 481 12T463 61Q463 78 470 120L505 320H205L149 0H59L154 540Z" />
<glyph unicode="I" glyph-name="I" horiz-adv-x="289" d="M91 0T74 12T56 61Q56 78 63 120L158 660H248L153 120Q148 88 148 75Q148 47 161 34T205 20H225L222 0H132Q91 0 74 12Z" />
<glyph unicode="J" glyph-name="J" horiz-adv-x="264" d="M-76 -117Q-29 -117 3 -66T52 78L155 660H245L142 78Q128 0 104 -46T36 -115T-80 -137L-76 -117Z" />
<glyph unicode="K" glyph-name="K" horiz-adv-x="678" d="M525 -10T479 15T379 110L208 330L150 0H60L120 348Q130 409 144 492T159 583Q159 611 146 625T102 640H82L86 660H176Q217 660 234 648T252 599Q252 586 245 541T210 345L457 555Q476 571 477 572Q526
616 562 638T646 660H696L691 635Q648 635 615 621T534 565L305 370L492 130Q526 85 567 55T643 19L640 0Q608 -10 573 -10Q525 -10 479 15Z" />
<glyph unicode="L" glyph-name="L" horiz-adv-x="557" d="M120 348Q130 409 144 492T159 583Q159 611 146 625T102 640H82L86 660H176Q218 660 234 648T251 599Q251 585 236 493T157 40H512L505 0H60L120 348Z" />
<glyph unicode="M" glyph-name="M" horiz-adv-x="857" d="M700 -45T664 -15T628 86Q628 122 637 170L705 555L358 0H338L177 565L78 0H38L154 660H249L397 140L724 660H814L727 170Q718 122 718 84Q718 -25 788 -25L785 -45Q700 -45 664 -15Z" />
<glyph unicode="N" glyph-name="N" horiz-adv-x="687" d="M194 525L102 0H62L106 253Q160 561 160 572Q160 606 143 623T84 640H74L78 660H143Q190 660 219 645T267 600L541 165L628 660H668L550 -10H530L194 525Z" />
<glyph unicode="O" glyph-name="O" horiz-adv-x="712" d="M223 -20T166 15T78 111T48 251Q48 353 95 452T229 616T426 680Q506 680 564 645T652 548T682 407Q682 305 635 206T501 44T303 -20Q223 -20 166 15ZM399 20T461 84T553 243T584 427Q584 528 542 584T419
640Q329 640 268 575T176 415T146 231Q146 130 188 75T310 20Q399 20 461 84Z" />
<glyph unicode="P" glyph-name="P" horiz-adv-x="555" d="M120 348Q130 409 144 492T159 583Q159 611 146 625T102 640H82L86 660H346Q430 660 497 628T565 503Q565 435 530 382T436 300T307 270H197L150 0H60L120 348ZM317 305T360 327T434 393T464 499Q464 542
443 570T392 612T335 625Q300 625 258 615L205 315Q243 305 278 305Q317 305 360 327Z" />
<glyph unicode="Q" glyph-name="Q" horiz-adv-x="711" d="M471 -205T377 -160T215 -7Q135 17 92 85T48 251Q48 353 95 452T229 616T426 680Q506 680 563 645T651 549T681 409Q681 318 646 233T545 83T387 -9Q393 -57 426 -97T505 -161T594 -185L590 -205Q471 -205
377 -160ZM399 20T461 84T553 243T584 427Q584 528 542 584T419 640Q329 640 268 575T176 415T146 231Q146 130 188 75T310 20Q399 20 461 84Z" />
<glyph unicode="R" glyph-name="R" horiz-adv-x="595" d="M445 -10T411 21T343 135L273 305H203L150 0H60L120 348Q130 409 144 492T159 583Q159 611 146 625T102 640H82L86 660H346Q431 660 499 630T567 515Q567 436 514 383T374 310L448 135Q473 74 499 49T563
20L560 0Q551 -4 534 -7T498 -10Q445 -10 411 21ZM328 340T370 362T440 422T467 507Q467 547 446 573T394 612T335 625Q300 625 258 615L211 350Q249 340 284 340Q328 340 370 362Z" />
<glyph unicode="S" glyph-name="S" horiz-adv-x="534" d="M178 -17T130 -3T53 36T23 94Q23 106 43 212H61V205Q61 110 102 67T229 23Q265 23 300 37T357 80T380 146Q380 179 359 205T292 263L182 336Q133 369 113 399T92 472Q92 530 122 577T205 651T319 678Q367
678 412 665T486 627T515 570Q515 565 511 543L495 451H477V458Q477 553 437 595T312 638Q279 638 248 623T196 580T176 518Q176 486 196 463T266 406L376 333Q427 299 450 269T474 198Q474 137 441 88T351 11T231 -17Q178 -17 130 -3Z" />
<glyph unicode="T" glyph-name="T" horiz-adv-x="585" d="M315 620H225Q102 620 80 505H60L73 580Q80 616 102 638T172 660H637L630 620H405L296 0H206L315 620Z" />
<glyph unicode="U" glyph-name="U" horiz-adv-x="687" d="M188 -10T138 36T88 177Q88 222 99 285L144 540Q148 561 148 583Q148 611 135 625T91 640H71L75 660H165Q206 660 223 648T241 599Q241 582 234 540L183 255Q175 209 175 177Q175 105 210 68T321 30Q397
30 446 57T524 139T569 285L635 660H675L609 285Q590 181 558 118T464 22T302 -10Q188 -10 138 36Z" />
<glyph unicode="V" glyph-name="V" horiz-adv-x="639" d="M123 543Q108 601 90 622T32 648L35 668Q40 668 50 669T70 670Q192 670 221 543L321 140Q329 154 336 164Q424 309 471 389T633 660H681L276 -10H258L123 543Z" />
<glyph unicode="W" glyph-name="W" horiz-adv-x="867" d="M121 543Q110 601 92 622T30 648L33 668Q38 668 48 669T68 670Q124 670 162 646T216 543L282 157L445 474L433 543Q422 601 404 622T342 648L345 668Q350 668 360 669T380 670Q436 670 474 646T528 543L594
157L854 660H897L550 -10H530L456 411L238 -10H218L121 543Z" />
<glyph unicode="X" glyph-name="X" horiz-adv-x="663" d="M298 325L194 530Q178 563 163 584T121 622T53 640L57 660H177Q220 660 246 631T297 550L371 400L617 660H667L390 365L508 130Q533 83 562 53T634 20L631 0H526Q483 0 456 29T405 110L317 290L41 0H-9L298 325Z" />
<glyph unicode="Y" glyph-name="Y" horiz-adv-x="629" d="M286 273L161 530Q134 584 109 610T35 640L39 660H129Q179 660 208 631T259 550L365 325L633 660H678L377 280L328 0H238L286 273Z" />
<glyph unicode="Z" glyph-name="Z" horiz-adv-x="594" d="M-19 20L502 620H262Q139 620 117 505H97L110 580Q117 616 139 638T209 660H644L110 40H520L513 0H-22L-19 20Z" />
<glyph unicode="[" glyph-name="bracketleft" horiz-adv-x="317" d="M-8 -200L147 680H362L355 640H220L79 -160H214L207 -200H-8Z" />
<glyph unicode="\" glyph-name="backslash" horiz-adv-x="440" d="M295 0L90 660H163L368 0H295Z" />
<glyph unicode="]" glyph-name="bracketright" horiz-adv-x="317" d="M-57 -200L-50 -160H84L225 640H90L97 680H312L157 -200H-57Z" />
<glyph unicode="^" glyph-name="asciicircum" horiz-adv-x="490" d="M38 330L314 680H334L488 330H421L308 587L105 330H38Z" />
<glyph unicode="_" glyph-name="underscore" horiz-adv-x="430" d="M-41 -60L-30 0H370L359 -60H-41Z" />
<glyph unicode="`" glyph-name="grave" horiz-adv-x="200" d="M174 480L99 680H199L224 480H174Z" />
<glyph unicode="a" glyph-name="a" horiz-adv-x="525" d="M105 -10T69 38T32 163Q32 236 59 306T141 425T273 480Q355 480 388 425H393L436 470H486L419 87L404 0H354L326 45H321Q298 21 265 6T177 -10Q105 -10 69 38ZM255 30T280 46T329 90L381 380Q364 410 347
425T296 440Q239 440 201 394T145 281T127 157Q127 99 148 65T214 30Q255 30 280 46Z" />
<glyph unicode="b" glyph-name="b" horiz-adv-x="526" d="M197 -10T167 6T122 45H117L75 0H25L85 348Q95 409 109 492T124 583Q124 611 111 625T67 640H47L51 660H141Q183 660 199 648T216 599Q216 576 210 540L194 450Q258 480 324 480Q401 480 439 433T478 305Q478
238 452 165T374 41T248 -10Q197 -10 167 6ZM279 30T314 77T366 189T383 311Q383 371 360 405T287 440Q251 440 187 410L130 90Q143 63 165 47T225 30Q279 30 314 77Z" />
<glyph unicode="c" glyph-name="c" horiz-adv-x="484" d="M123 -10T78 40T32 174Q32 249 64 320T158 435T301 480Q364 480 409 466T454 402Q454 379 443 322L442 315H422Q423 323 423 337Q423 388 394 414T314 440Q253 440 211 399T148 295T127 171Q127 105 155
68T242 30Q293 30 329 49T401 110L418 95Q375 39 326 15T215 -10Q123 -10 78 40Z" />
<glyph unicode="d" glyph-name="d" horiz-adv-x="525" d="M106 -10T70 38T33 165Q33 236 60 309T141 431T273 480Q311 480 339 472T393 450Q404 514 408 542T413 583Q413 611 400 625T356 640H336L340 660H430Q472 660 488 648T505 599Q505 584 488 482T404 0H354L326
45H321Q298 21 265 6T177 -10Q106 -10 70 38ZM255 30T280 46T329 90L386 410Q360 424 339 432T296 440Q238 440 200 394T145 283T128 157Q128 97 149 64T214 30Q255 30 280 46Z" />
<glyph unicode="e" glyph-name="e" horiz-adv-x="487" d="M121 -10T77 40T32 173Q32 245 63 316T153 434T291 480Q376 480 417 449T458 366Q458 314 429 277T351 220T247 200H127Q123 180 123 159Q123 103 151 67T232 30Q279 30 315 50T386 110L403 95Q360 39
312 15T205 -10Q121 -10 77 40ZM249 240Q298 242 330 276T363 364Q363 400 343 420T284 440Q231 440 191 387T134 240H249Z" />
<glyph unicode="f" glyph-name="f" horiz-adv-x="340" d="M-81 -170Q-34 -170 -2 -119T47 25L118 430H48L55 470H125L131 500Q164 670 336 670Q399 670 418 655Q436 642 445 610L411 585Q400 608 379 619T324 630Q288 630 262 600T221 500L215 470H355L348 430H208L137
25Q123 -53 99 -99T30 -168T-85 -190L-81 -170Z" />
<glyph unicode="g" glyph-name="g" horiz-adv-x="524" d="M115 -200T75 -176T11 -95L33 -80Q55 -121 84 -140T164 -160Q221 -160 261 -111T317 25L318 30Q252 0 188 0Q111 0 73 48T34 174Q34 240 60 311T138 431T262 480Q313 480 343 464T387 425H392L435 470H485L407
25Q389 -78 328 -139T177 -200Q115 -200 75 -176ZM246 40T270 48T325 70L380 380Q366 407 344 423T285 440Q232 440 197 395T145 287T128 168Q128 109 151 75T225 40Q246 40 270 48Z" />
<glyph unicode="h" glyph-name="h" horiz-adv-x="532" d="M85 348Q95 409 109 492T124 583Q124 611 111 625T67 640H47L51 660H141Q183 660 199 648T216 599Q216 586 211 549T190 430Q217 452 252 466T329 480Q472 480 472 352Q472 338 463 278T415 0H325Q381
313 381 339Q381 388 356 411T291 435Q241 435 182 382L115 0H25L85 348Z" />
<glyph unicode="i" glyph-name="i" horiz-adv-x="251" d="M153 530T140 545T127 582Q127 606 142 622T182 639Q202 639 215 624T228 587Q228 563 213 547T173 530Q153 530 140 545ZM80 215T94 300T108 395Q108 423 95 436T51 450H31L34 470H124Q165 470 182 458T200
409Q200 400 194 359T170 220L132 0H42Q80 215 94 300Z" />
<glyph unicode="j" glyph-name="j" horiz-adv-x="251" d="M153 530T140 545T127 582Q127 606 142 622T182 639Q202 639 215 624T228 587Q228 563 213 547T173 530Q153 530 140 545ZM-82 -170Q-35 -170 -3 -119T46 25Q81 225 94 305T108 395Q108 423 95 436T51
450H31L34 470H124Q165 470 182 458T200 409Q200 400 194 363T173 240L136 25Q122 -53 98 -99T29 -168T-86 -190L-82 -170Z" />
<glyph unicode="k" glyph-name="k" horiz-adv-x="485" d="M336 -10T304 8T246 70L154 230L114 0H24L119 540Q123 561 123 583Q123 611 110 625T66 640H46L50 660H140Q182 660 198 648T215 599Q215 576 209 540L157 245L310 405Q341 437 373 453T451 470H481L477
445Q419 445 374 400L239 260L336 100Q360 61 381 43T432 19L429 0Q407 -10 377 -10Q336 -10 304 8Z" />
<glyph unicode="l" glyph-name="l" horiz-adv-x="244" d="M89 348Q99 409 113 492T128 583Q128 611 115 625T71 640H51L55 660H145Q187 660 203 648T220 599Q220 584 203 482T119 0H29L89 348Z" />
<glyph unicode="m" glyph-name="m" horiz-adv-x="789" d="M80 215T94 300T108 395Q108 423 95 436T51 450H31L34 470H124Q194 470 202 430H207Q234 452 269 466T346 480Q387 480 415 464T454 410Q486 443 529 461T616 480Q669 480 699 454T730 363Q730 347 721
286T672 0H582Q620 219 630 281T640 358Q640 399 624 417T578 435Q550 435 516 415T462 370V363Q462 350 449 269T402 0H312Q350 219 360 281T370 358Q370 399 354 417T308 435Q258 435 199 382L132 0H42Q80 215 94 300Z" />
<glyph unicode="n" glyph-name="n" horiz-adv-x="549" d="M80 215T94 300T108 395Q108 423 95 436T51 450H31L34 470H124Q194 470 202 430H207Q234 452 269 466T346 480Q489 480 489 352Q489 338 480 278T432 0H342Q398 313 398 339Q398 388 373 411T308 435Q258
435 199 382L132 0H42Q80 215 94 300Z" />
<glyph unicode="o" glyph-name="o" horiz-adv-x="529" d="M127 -10T80 42T32 179Q32 252 65 321T160 435T300 480Q387 480 434 428T482 291Q482 218 449 149T354 35T214 -10Q127 -10 80 42ZM273 30T311 74T368 182T388 297Q388 361 363 400T293 440Q241 440 203
396T146 288T126 173Q126 109 151 70T221 30Q273 30 311 74Z" />
<glyph unicode="p" glyph-name="p" horiz-adv-x="543" d="M83 241Q108 390 108 395Q108 423 95 436T51 450H31L34 470H124Q162 470 180 459T201 425H206Q261 480 351 480Q422 480 458 432T495 305Q495 234 468 161T387 39T255 -10Q189 -10 135 20L98 -190H8L83
241ZM290 30T328 76T383 187T400 313Q400 373 379 406T314 440Q276 440 249 424T199 380L142 60Q196 30 232 30Q290 30 328 76Z" />
<glyph unicode="q" glyph-name="q" horiz-adv-x="524" d="M316 20Q250 -10 186 -10Q109 -10 71 37T32 165Q32 232 58 305T137 429T262 480Q313 480 343 464T387 425H392L435 470H485L369 -190H279L316 20ZM244 30T268 38T323 60L380 380Q366 407 344 423T285 440Q231
440 196 393T144 281T127 159Q127 99 150 65T223 30Q244 30 268 38Z" />
<glyph unicode="r" glyph-name="r" horiz-adv-x="403" d="M74 215T88 300T102 395Q102 423 89 436T45 450H35L38 470H118Q156 470 174 459T195 425H200Q223 448 256 464T330 480Q369 480 387 465Q397 457 403 447T415 420L369 390Q361 405 342 412T295 420Q265
420 238 407T191 370L126 0H36Q74 215 88 300Z" />
<glyph unicode="s" glyph-name="s" horiz-adv-x="449" d="M114 -10T66 6T17 75Q17 89 20 108T25 135H45V133Q45 84 75 57T167 30Q212 30 251 50T290 113Q290 137 273 154T215 190L159 215Q111 236 86 263T61 329Q61 375 88 409T159 462T251 480Q408 480 408 397Q408
381 405 361T401 335H381V337Q381 386 352 413T264 440Q223 440 187 421T151 360Q151 314 217 285L272 260Q328 235 354 209T380 144Q380 96 352 61T277 8T180 -10Q114 -10 66 6Z" />
<glyph unicode="t" glyph-name="t" horiz-adv-x="336" d="M112 -10T86 14T59 85Q59 101 116 430H46L53 470H123L139 560L200 620H240L213 470H333L326 430H206Q149 103 149 90Q149 30 206 30Q230 30 247 35T284 50L291 30Q264 12 235 1T159 -10Q112 -10 86 14Z" />
<glyph unicode="u" glyph-name="u" horiz-adv-x="537" d="M50 -10T50 120Q50 132 58 182T87 350Q92 382 92 395Q92 423 79 436T35 450H25L28 470H108Q149 470 166 458T184 409Q184 392 177 350Q142 156 142 132Q142 82 167 59T232 35Q282 35 341 88L408 470H498L416
0H366L338 40H333Q306 18 271 4T194 -10Q50 -10 50 120Z" />
<glyph unicode="v" glyph-name="v" horiz-adv-x="498" d="M110 355Q96 411 78 433T24 458L28 478Q33 478 42 479T62 480Q115 480 153 453T210 355L262 140L460 470H510L221 -10H201L110 355Z" />
<glyph unicode="w" glyph-name="w" horiz-adv-x="749" d="M110 355Q97 411 79 433T23 458L27 478Q32 478 42 479T62 480Q116 480 153 453T205 355L253 145L376 360Q361 413 344 434T293 458L297 478Q302 478 312 479T332 480Q386 480 423 453T475 355L523 145L710
470H760L481 -10H461L390 300L211 -10H191L110 355Z" />
<glyph unicode="x" glyph-name="x" horiz-adv-x="490" d="M189 225L128 370Q98 442 39 450L42 470H127Q160 470 185 449T226 390L270 285L432 470H482L283 245L344 100Q374 27 438 20L435 0H345Q312 0 287 21T246 80L202 185L40 0H-10L189 225Z" />
<glyph unicode="y" glyph-name="y" horiz-adv-x="514" d="M23 -170Q72 -170 108 -148T176 -65L206 -10L115 380Q98 452 19 460L22 480H107Q194 480 213 400L278 123L465 470H515L226 -65Q184 -144 144 -172T47 -200H17L23 -170Z" />
<glyph unicode="z" glyph-name="z" horiz-adv-x="468" d="M0 19L332 430H217Q155 430 120 407T76 340H56L65 390Q72 426 94 448T164 470H469L124 40H394L387 0H-3L0 19Z" />
<glyph unicode="{" glyph-name="braceleft" horiz-adv-x="304" d="M118 -192T85 -157T52 -69Q52 -41 58 -10T67 28Q84 94 84 137Q84 172 64 195T1 225L6 255Q107 269 127 370L151 510Q163 580 209 623T348 690L343 660Q290 645 269 621T238 550L209 380Q198 321
167 288T79 240Q122 227 142 203T163 137Q163 110 159 85T145 18Q126 -58 126 -105Q126 -135 141 -151T195 -180L189 -210Q118 -192 85 -157Z" />
<glyph unicode="|" glyph-name="bar" horiz-adv-x="242" d="M-6 -190L147 680H237L84 -190H-6Z" />
<glyph unicode="}" glyph-name="braceright" horiz-adv-x="304" d="M-51 -180Q1 -166 22 -142T52 -70L82 100Q93 159 124 192T212 240Q169 253 149 277T128 342Q128 368 132 393T146 460Q156 506 160 531T165 586Q165 614 150 631T96 660L101 690Q172 672 205
637T238 549Q238 527 234 500T223 448Q215 413 211 390T207 342Q207 307 226 284T289 255L284 225Q184 211 164 110L139 -30Q127 -100 81 -143T-57 -210L-51 -180Z" />
<glyph unicode="~" glyph-name="asciitilde" horiz-adv-x="632" d="M399 180T367 191T292 223Q254 242 229 251T178 260Q141 260 116 241T86 190H46Q59 260 100 295T191 330Q226 330 258 319T334 287Q372 268 397 259T447 250Q484 250 509 269T539 320H579Q566
250 525 215T434 180Q399 180 367 191Z" />
<glyph unicode="&#xa0;" glyph-name="uni00A0" horiz-adv-x="250" />
<glyph unicode="&#xa1;" glyph-name="exclamdown" horiz-adv-x="222" d="M108 372T95 385T82 417Q82 440 102 460T147 480Q167 480 179 468T192 435Q192 411 173 392T128 372Q108 372 95 385ZM-19 -194L88 311H146L75 -194H-19Z" />
<glyph unicode="&#xa2;" glyph-name="cent" horiz-adv-x="485" d="M190 -10Q109 -4 68 46T27 175Q27 248 56 314T142 425T276 480L283 520H323L316 480Q368 480 408 464T449 402Q449 379 444 352T437 315H417Q418 323 418 337Q418 388 389 414T309 440L237 30Q288
30 324 49T396 110L413 95Q374 44 330 19T230 -10L223 -50H183L190 -10ZM268 435Q219 420 186 378T138 281T122 171Q122 118 141 82T198 35L268 435Z" />
<glyph unicode="&#xa3;" glyph-name="sterling" horiz-adv-x="531" d="M-10 25Q36 37 64 80T109 220L127 320H57L64 360H134L152 460Q174 583 228 626T364 670Q429 670 475 656T522 589Q522 572 517 545H472Q469 592 446 611T377 630Q326 630 293 594T242 460L224
360H364L357 320H217L199 220Q187 151 166 108T113 40H298Q421 40 443 155H463L450 80Q443 44 421 22T351 0H-14L-10 25Z" />
<glyph unicode="&#xa4;" glyph-name="currency" horiz-adv-x="577" d="M111 200H51L58 240H118L127 290H67L74 330H134L171 540Q175 561 175 583Q175 611 162 625T118 640H98L102 660H362Q459 660 521 626T583 515Q583 441 544 390T439 315T297 290H217L208 240H468L461
200H201L166 0H76L111 200ZM304 330Q353 331 394 355T459 420T483 513Q483 568 447 596T351 625Q316 625 274 615L224 330H304Z" />
<glyph unicode="&#xa5;" glyph-name="yen" horiz-adv-x="692" d="M315 145H220L227 185H322L329 225H234L241 265H336L338 273L213 530Q186 584 161 610T87 640L91 660H181Q231 660 260 631T311 550L417 325L685 660H730L429 280L426 265H521L514 225H419L412
185H507L500 145H405L380 0H290L315 145Z" />
<glyph unicode="&#xa6;" glyph-name="brokenbar" horiz-adv-x="249" d="M89 330L150 680H240L179 330H89ZM-3 -190L59 160H149L87 -190H-3Z" />
<glyph unicode="&#xa7;" glyph-name="section" horiz-adv-x="433" d="M75 -200T33 -181T-10 -116Q-10 -103 -7 -83T-2 -55H18V-61Q18 -108 41 -134T104 -160Q153 -160 187 -130T222 -49Q222 -12 200 13T134 69Q102 93 84 109T53 148T40 201Q40 258 76 301T173
370Q106 418 106 492Q106 541 130 581T197 646T291 670Q343 670 385 651T428 586Q428 573 425 553T420 525H400V531Q400 578 377 604T314 630Q265 630 231 600T196 519Q196 482 218 457T284 401Q316 377 334 361T365 322T378 269Q378 211 342 167T244 100Q312 49
312 -22Q312 -71 288 -111T221 -176T127 -200Q75 -200 33 -181ZM248 135T272 163T297 232Q297 265 274 292T208 347Q171 337 146 308T121 239Q121 206 144 178T210 123Q248 135 272 163Z" />
<glyph unicode="&#xa8;" glyph-name="dieresis" horiz-adv-x="310" d="M131 690T120 701T109 730Q109 754 126 772T169 790Q189 790 200 779T211 750Q211 726 194 708T151 690Q131 690 120 701ZM301 690T290 701T279 730Q279 754 296 772T339 790Q359 790 370
779T381 750Q381 726 364 708T321 690Q301 690 290 701Z" />
<glyph unicode="&#xa9;" glyph-name="copyright" horiz-adv-x="789" d="M252 -25T185 11T80 112T43 261Q43 369 99 467T253 625T466 685Q555 685 623 649T728 548T765 399Q765 291 708 193T554 35T341 -25Q252 -25 185 11ZM448 15T534 66T673 204T725 393Q725
469 693 526T600 614T459 645Q359 645 273 594T135 455T83 265Q83 191 115 135T208 47T348 15Q448 15 534 66ZM286 105T243 153T199 278Q199 341 231 407T319 518T445 562Q498 562 545 543T592 476Q592 455 585 415L584 412H571Q570 536 460 536Q398 536 353 498T285
400T262 277Q262 213 293 173T389 132Q437 132 476 154T551 223L562 213Q522 154 474 130T364 105Q286 105 243 153Z" />
<glyph unicode="&#xaa;" glyph-name="ordfeminine" horiz-adv-x="321" d="M123 396T103 408T82 451Q82 502 128 524T236 547H252Q256 564 256 586Q256 616 245 627T212 638Q188 638 172 628T145 593H120Q123 610 127 620T143 641Q162 660 226 660Q263 660 285
644T308 584Q308 575 297 512Q294 495 290 468T278 401H248L231 426Q201 396 150 396Q123 396 103 408ZM207 418T235 453L248 525H232Q196 525 166 507T135 453Q135 436 145 427T173 418Q207 418 235 453Z" />
<glyph unicode="&#xab;" glyph-name="guillemotleft" horiz-adv-x="375" d="M148 30L27 225L217 420H257L127 225L188 30H148ZM242 80L167 225L293 370H333L247 225L282 80H242Z" />
<glyph unicode="&#xac;" glyph-name="logicalnot" horiz-adv-x="656" d="M502 130L520 230H60L71 290H591L562 130H502Z" />
<glyph unicode="&#xad;" glyph-name="uni00AD" horiz-adv-x="389" d="M59 230L71 300H326L314 230H59Z" />
<glyph unicode="&#xae;" glyph-name="registered" horiz-adv-x="789" d="M252 -25T185 11T80 112T43 261Q43 369 99 467T253 625T466 685Q555 685 623 649T728 548T765 399Q765 291 708 193T554 35T341 -25Q252 -25 185 11ZM448 15T534 66T673 204T725 393Q725
469 693 526T600 614T459 645Q359 645 273 594T135 455T83 265Q83 191 115 135T208 47T348 15Q448 15 534 66ZM493 118T473 138T430 211L382 323H334L300 125H242L303 474Q306 491 306 504Q306 522 298 530T270 539H257L259 552H427Q483 552 526 533T570 458Q570
406 536 372T446 327L498 211Q516 171 531 156T570 137L568 125Q556 118 524 118Q493 118 473 138ZM414 345T441 359T487 398T505 454Q505 490 478 510T420 530Q400 530 370 523L340 352Q368 345 387 345Q414 345 441 359Z" />
<glyph unicode="&#xaf;" glyph-name="overscore" horiz-adv-x="250" d="M100 560V620H355V560H100Z" />
<glyph unicode="&#xb0;" glyph-name="degree" horiz-adv-x="412" d="M160 360T123 397T85 491Q85 538 111 582T181 653T276 680Q336 680 373 643T411 549Q411 502 385 458T315 387T220 360Q160 360 123 397ZM261 415T288 432T333 479T350 541Q350 578 327 601T267
625Q237 625 209 608T163 562T146 501Q146 463 169 439T230 415Q261 415 288 432Z" />
<glyph unicode="&#xb1;" glyph-name="plusminus" horiz-adv-x="575" d="M21 60L32 120H232L263 300H63L74 360H274L309 560H369L334 360H534L523 300H323L292 120H492L481 60H21Z" />
<glyph unicode="&#xb2;" glyph-name="uni00B2" horiz-adv-x="322" d="M82 400L115 427Q184 481 224 525T264 620Q264 644 252 655T218 667Q160 667 132 593H120Q124 617 128 630T142 653Q158 669 183 679T235 689Q268 689 292 675T316 623Q316 585 293 551T239
489T158 426Q139 413 122 399H213Q241 399 257 409T278 443H290L284 413Q278 377 239 377H78L82 400Z" />
<glyph unicode="&#xb3;" glyph-name="uni00B3" horiz-adv-x="312" d="M132 367T112 379T76 416L87 425Q114 389 165 389Q198 389 220 415T243 478Q243 503 230 516T196 529Q165 529 142 523L132 547L275 658H191Q133 658 126 613H117L122 643Q128 680 167 680H318L315
662L167 547Q184 551 209 551Q242 551 269 534T296 480Q296 430 257 399T165 367Q132 367 112 379Z" />
<glyph unicode="&#xb4;" glyph-name="acute" horiz-adv-x="175" d="M103 700L166 830H261L143 700H103Z" />
<glyph unicode="&#xb5;" glyph-name="uni00B5" horiz-adv-x="531" d="M108 470H198L157 235Q150 196 150 157Q150 97 171 64T236 30Q274 30 301 46T351 90L418 470H508L426 0H376L348 45H343Q319 20 291 5T219 -10Q158 -10 122 35L82 -190H-8L108 470Z" />
<glyph unicode="&#xb6;" glyph-name="paragraph" horiz-adv-x="603" d="M261 290Q172 290 116 331T60 443Q60 507 98 556T197 633T326 660H626L619 620H564L421 -190H331L474 620H409L266 -190H176L261 290Z" />
<glyph unicode="&#xb7;" glyph-name="middot" horiz-adv-x="232" d="M94 276T82 288T69 321Q69 346 88 365T133 385Q154 385 166 372T179 340Q179 316 160 296T114 276Q94 276 82 288Z" />
<glyph unicode="&#xb8;" glyph-name="cedilla" horiz-adv-x="180" d="M-28 -155H22Q41 -155 55 -145T69 -115Q69 -90 34 -90H-11L5 0H50L41 -50H51Q82 -50 100 -65T119 -108Q119 -146 92 -171T25 -196H-35L-28 -155Z" />
<glyph unicode="&#xb9;" glyph-name="uni00B9" horiz-adv-x="211" d="M106 377L150 624L104 600L96 616L172 680H211L158 377H106Z" />
<glyph unicode="&#xba;" glyph-name="ordmasculine" horiz-adv-x="336" d="M91 367T91 474Q91 529 108 578T159 658T239 689Q286 689 309 661T332 581Q332 526 314 477T262 398T182 367Q91 367 91 474ZM213 389T235 420T269 500T282 594Q282 667 235 667Q209 667
188 635T154 555T141 461Q141 389 186 389Q213 389 235 420Z" />
<glyph unicode="&#xbb;" glyph-name="guillemotright" horiz-adv-x="375" d="M100 30L229 225L169 420H209L329 225L140 30H100ZM24 80L109 225L75 370H115L189 225L64 80H24Z" />
<glyph unicode="&#xbc;" glyph-name="onequarter" horiz-adv-x="597" d="M124 377L168 624L122 600L114 616L190 680H229L176 377H124ZM-19 0L552 660H617L46 0H-19ZM412 0L425 78H273L277 97L470 304H517L481 100H522L518 78H477L464 0H412ZM311 100H429L456
255L311 100Z" />
<glyph unicode="&#xbd;" glyph-name="onehalf" horiz-adv-x="613" d="M124 377L168 624L122 600L114 616L190 680H229L176 377H124ZM-19 0L552 660H617L46 0H-19ZM319 23Q351 53 396 90Q438 125 457 144T488 188T500 244Q500 267 488 278T455 290Q426 290 404
272T369 216H357Q361 238 365 252T378 276Q394 292 420 302T472 312Q503 312 527 298T552 246Q552 212 537 185T498 136T430 80Q392 52 358 22H449Q477 22 493 32T514 66H526L521 36Q515 0 476 0H315L319 23Z" />
<glyph unicode="&#xbe;" glyph-name="threequarters" horiz-adv-x="617" d="M123 367T103 379T67 416L78 425Q105 389 156 389Q187 389 210 413T234 478Q234 503 221 516T187 529Q156 529 133 523L123 547L266 658H182Q124 658 117 613H108L113 643Q119 680 158
680H309L306 662L158 547Q175 551 200 551Q233 551 260 534T287 480Q287 438 265 413T213 378T156 367Q123 367 103 379ZM10 0L581 660H646L75 0H10ZM430 0L443 78H291L295 97L488 304H535L499 100H540L536 78H495L482 0H430ZM329 100H447L474 255L329 100Z" />
<glyph unicode="&#xbf;" glyph-name="questiondown" horiz-adv-x="478" d="M258 372T245 384T232 416Q232 442 251 461T297 481Q318 481 330 468T343 436Q343 410 323 391T278 372Q258 372 245 384ZM76 -212T25 -181T-26 -69Q-26 -13 -7 27T40 95T116 159Q170
201 201 233T248 312H288Q277 261 250 223T178 137Q143 100 123 74T89 15T75 -60Q75 -114 105 -143T182 -172Q244 -172 296 -128T378 -2H398Q398 -30 384 -71T350 -132Q316 -166 260 -189T145 -212Q76 -212 25 -181Z" />
<glyph unicode="&#xc0;" glyph-name="Agrave" horiz-adv-x="634" d="M528 -5T487 21T429 125L415 190H135L22 0H-23L373 660H403L529 125Q541 68 560 46T620 20L617 0Q597 -5 576 -5Q528 -5 487 21ZM157 230H402L333 520L157 230ZM371 715L299 845H394L411 715H371Z" />
<glyph unicode="&#xc1;" glyph-name="Aacute" horiz-adv-x="634" d="M528 -5T487 21T429 125L415 190H135L22 0H-23L373 660H403L529 125Q541 68 560 46T620 20L617 0Q597 -5 576 -5Q528 -5 487 21ZM157 230H402L333 520L157 230ZM380 700L443 830H538L420 700H380Z" />
<glyph unicode="&#xc2;" glyph-name="Acircumflex" horiz-adv-x="634" d="M528 -5T487 21T429 125L415 190H135L22 0H-23L373 660H403L529 125Q541 68 560 46T620 20L617 0Q597 -5 576 -5Q528 -5 487 21ZM157 230H402L333 520L157 230ZM257 685L357 800H467L527
685H477L406 765L307 685H257Z" />
<glyph unicode="&#xc3;" glyph-name="Atilde" horiz-adv-x="634" d="M528 -5T487 21T429 125L415 190H135L22 0H-23L373 660H403L529 125Q541 68 560 46T620 20L617 0Q597 -5 576 -5Q528 -5 487 21ZM157 230H402L333 520L157 230ZM297 752T315 773T364 795Q379
795 390 790T415 774Q417 773 426 767T444 758T462 755Q473 755 485 768T499 795H529Q520 743 502 722T452 700Q438 700 428 705T402 720Q388 730 378 735T354 740Q343 740 331 727T317 700H287Q297 752 315 773Z" />
<glyph unicode="&#xc4;" glyph-name="Adieresis" horiz-adv-x="634" d="M528 -5T487 21T429 125L415 190H135L22 0H-23L373 660H403L529 125Q541 68 560 46T620 20L617 0Q597 -5 576 -5Q528 -5 487 21ZM157 230H402L333 520L157 230ZM301 725T291 735T280 761Q280
782 295 798T334 815Q351 815 361 805T372 778Q372 758 356 742T318 725Q301 725 291 735ZM471 725T461 735T450 761Q450 782 465 798T504 815Q521 815 531 805T542 778Q542 758 526 742T488 725Q471 725 461 735Z" />
<glyph unicode="&#xc5;" glyph-name="Aring" horiz-adv-x="634" d="M528 -5T487 21T429 125L415 190H135L22 0H-23L352 625Q334 633 322 648T309 688Q309 713 323 736T361 775T411 790Q441 790 461 769T482 718Q482 688 463 664T412 625L529 125Q541 68 560 46T620
20L617 0Q597 -5 576 -5Q528 -5 487 21ZM408 660Q423 669 432 683T442 716Q442 734 432 744T405 755Q383 755 367 737T350 695Q350 674 368 660H408ZM157 230H402L333 520L157 230Z" />
<glyph unicode="&#xc6;" glyph-name="AE" horiz-adv-x="870" d="M428 660H789Q862 660 862 602Q862 600 858 576L847 505H827Q830 522 830 535Q830 620 722 620H536L490 360H760L753 320H483L434 40H609Q678 40 721 65T798 150L817 145L765 50Q739 0 682 0H337L370
190H130L-8 0H-58L428 660ZM162 230H377L445 615L162 230Z" />
<glyph unicode="&#xc7;" glyph-name="Ccedilla" horiz-adv-x="666" d="M248 -155H298Q317 -155 331 -145T345 -115Q345 -90 310 -90H265L277 -20Q205 -16 153 19T73 113T45 245Q45 342 95 444T233 613T425 680Q473 680 524 669T614 628T652 550Q652 527 644 477L640
450H620Q618 547 575 593T448 640Q351 640 283 582T180 431T145 241Q145 144 192 82T339 20Q412 20 473 55T589 160L606 145Q546 60 478 22T322 -20L317 -50H327Q358 -50 376 -65T395 -108Q395 -146 369 -170T301 -196H241L248 -155Z" />
<glyph unicode="&#xc8;" glyph-name="Egrave" horiz-adv-x="593" d="M120 348Q130 409 144 492T159 583Q159 611 146 625T102 640H82L86 660H512Q585 660 585 602Q585 600 581 576L570 505H550Q553 522 553 535Q553 620 445 620H259L213 360H483L476 320H206L157
40H332Q401 40 444 65T521 150L540 145L488 50Q462 0 405 0H60L120 348ZM351 715L279 845H374L391 715H351Z" />
<glyph unicode="&#xc9;" glyph-name="Eacute" horiz-adv-x="593" d="M120 348Q130 409 144 492T159 583Q159 611 146 625T102 640H82L86 660H512Q585 660 585 602Q585 600 581 576L570 505H550Q553 522 553 535Q553 620 445 620H259L213 360H483L476 320H206L157
40H332Q401 40 444 65T521 150L540 145L488 50Q462 0 405 0H60L120 348ZM353 700L416 830H511L393 700H353Z" />
<glyph unicode="&#xca;" glyph-name="Ecircumflex" horiz-adv-x="593" d="M120 348Q130 409 144 492T159 583Q159 611 146 625T102 640H82L86 660H512Q585 660 585 602Q585 600 581 576L570 505H550Q553 522 553 535Q553 620 445 620H259L213 360H483L476 320H206L157
40H332Q401 40 444 65T521 150L540 145L488 50Q462 0 405 0H60L120 348ZM247 721L347 836H457L517 721H467L396 801L297 721H247Z" />
<glyph unicode="&#xcb;" glyph-name="Edieresis" horiz-adv-x="593" d="M120 348Q130 409 144 492T159 583Q159 611 146 625T102 640H82L86 660H512Q585 660 585 602Q585 600 581 576L570 505H550Q553 522 553 535Q553 620 445 620H259L213 360H483L476 320H206L157
40H332Q401 40 444 65T521 150L540 145L488 50Q462 0 405 0H60L120 348ZM269 730T258 741T247 770Q247 794 264 812T307 830Q327 830 338 819T349 790Q349 766 332 748T289 730Q269 730 258 741ZM439 730T428 741T417 770Q417 794 434 812T477 830Q497 830 508
819T519 790Q519 766 502 748T459 730Q439 730 428 741Z" />
<glyph unicode="&#xcc;" glyph-name="Igrave" horiz-adv-x="289" d="M91 0T74 12T56 61Q56 78 63 120L158 660H248L153 120Q148 88 148 75Q148 47 161 34T205 20H225L222 0H132Q91 0 74 12ZM183 715L111 845H206L223 715H183Z" />
<glyph unicode="&#xcd;" glyph-name="Iacute" horiz-adv-x="289" d="M91 0T74 12T56 61Q56 78 63 120L158 660H248L153 120Q148 88 148 75Q148 47 161 34T205 20H225L222 0H132Q91 0 74 12ZM185 700L248 830H343L225 700H185Z" />
<glyph unicode="&#xce;" glyph-name="Icircumflex" horiz-adv-x="289" d="M91 0T74 12T56 61Q56 78 63 120L158 660H248L153 120Q148 88 148 75Q148 47 161 34T205 20H225L222 0H132Q91 0 74 12ZM331 695L431 810H541L601 695H551L480 775L381 695H331Z" />
<glyph unicode="&#xcf;" glyph-name="Idieresis" horiz-adv-x="289" d="M91 0T74 12T56 61Q56 78 63 120L158 660H248L153 120Q148 88 148 75Q148 47 161 34T205 20H225L222 0H132Q91 0 74 12ZM113 725T103 735T92 761Q92 782 107 798T146 815Q163 815 173 805T184
778Q184 758 168 742T130 725Q113 725 103 735ZM283 725T273 735T262 761Q262 782 277 798T316 815Q333 815 343 805T354 778Q354 758 338 742T300 725Q283 725 273 735Z" />
<glyph unicode="&#xd0;" glyph-name="Eth" horiz-adv-x="716" d="M113 310H38L45 350H120L154 540Q158 561 158 583Q158 611 145 625T101 640H81L85 660H347Q517 660 603 593T689 405Q689 290 633 198T479 53T257 0H59L113 310ZM351 35T424 87T538 222T579 398Q579
502 521 563T362 625Q316 625 259 609L213 350H300L293 310H206L160 48Q216 35 260 35Q351 35 424 87Z" />
<glyph unicode="&#xd1;" glyph-name="Ntilde" horiz-adv-x="687" d="M194 525L102 0H62L106 253Q160 561 160 572Q160 606 143 623T84 640H74L78 660H143Q190 660 219 645T267 600L541 165L628 660H668L550 -10H530L194 525ZM321 746T339 767T388 789Q403 789
414 784T439 768Q441 767 450 761T468 752T486 749Q497 749 509 762T523 789H553Q544 737 526 716T476 694Q462 694 452 699T426 714Q412 724 402 729T378 734Q367 734 355 721T341 694H311Q321 746 339 767Z" />
<glyph unicode="&#xd2;" glyph-name="Ograve" horiz-adv-x="712" d="M223 -20T166 15T78 111T48 251Q48 353 95 452T229 616T426 680Q506 680 564 645T652 548T682 407Q682 305 635 206T501 44T303 -20Q223 -20 166 15ZM399 20T461 84T553 243T584 427Q584 528
542 584T419 640Q329 640 268 575T176 415T146 231Q146 130 188 75T310 20Q399 20 461 84ZM410 715L338 845H433L450 715H410Z" />
<glyph unicode="&#xd3;" glyph-name="Oacute" horiz-adv-x="712" d="M223 -20T166 15T78 111T48 251Q48 353 95 452T229 616T426 680Q506 680 564 645T652 548T682 407Q682 305 635 206T501 44T303 -20Q223 -20 166 15ZM399 20T461 84T553 243T584 427Q584 528
542 584T419 640Q329 640 268 575T176 415T146 231Q146 130 188 75T310 20Q399 20 461 84ZM412 720L475 850H570L452 720H412Z" />
<glyph unicode="&#xd4;" glyph-name="Ocircumflex" horiz-adv-x="712" d="M223 -20T166 15T78 111T48 251Q48 353 95 452T229 616T426 680Q506 680 564 645T652 548T682 407Q682 305 635 206T501 44T303 -20Q223 -20 166 15ZM399 20T461 84T553 243T584 427Q584
528 542 584T419 640Q329 640 268 575T176 415T146 231Q146 130 188 75T310 20Q399 20 461 84ZM293 720L393 835H503L563 720H513L442 800L343 720H293Z" />
<glyph unicode="&#xd5;" glyph-name="Otilde" horiz-adv-x="712" d="M223 -20T166 15T78 111T48 251Q48 353 95 452T229 616T426 680Q506 680 564 645T652 548T682 407Q682 305 635 206T501 44T303 -20Q223 -20 166 15ZM399 20T461 84T553 243T584 427Q584 528
542 584T419 640Q329 640 268 575T176 415T146 231Q146 130 188 75T310 20Q399 20 461 84ZM333 790T351 811T400 833Q415 833 426 828T451 812Q453 811 462 805T480 796T498 793Q509 793 521 806T535 833H565Q556 781 538 760T488 738Q474 738 464 743T438 758Q424
768 414 773T390 778Q379 778 367 765T353 738H323Q333 790 351 811Z" />
<glyph unicode="&#xd6;" glyph-name="Odieresis" horiz-adv-x="712" d="M223 -20T166 15T78 111T48 251Q48 353 95 452T229 616T426 680Q506 680 564 645T652 548T682 407Q682 305 635 206T501 44T303 -20Q223 -20 166 15ZM399 20T461 84T553 243T584 427Q584
528 542 584T419 640Q329 640 268 575T176 415T146 231Q146 130 188 75T310 20Q399 20 461 84ZM340 725T330 735T319 761Q319 782 334 798T373 815Q390 815 400 805T411 778Q411 758 395 742T357 725Q340 725 330 735ZM510 725T500 735T489 761Q489 782 504 798T543
815Q560 815 570 805T581 778Q581 758 565 742T527 725Q510 725 500 735Z" />
<glyph unicode="&#xd7;" glyph-name="multiply" horiz-adv-x="471" d="M71 149L36 192L202 333L86 475L136 517L253 375L419 517L453 474L287 333L403 191L354 149L237 291L71 149Z" />
<glyph unicode="&#xd8;" glyph-name="Oslash" horiz-adv-x="712" d="M122 48Q86 85 67 136T48 251Q48 353 95 452T229 616T426 680Q498 680 555 650L577 680H650L603 615Q641 578 661 525T682 407Q682 305 635 206T501 44T303 -20Q225 -20 169 12L146 -20H73L122
48ZM522 604Q482 640 419 640Q329 640 267 575T175 414T145 229Q145 159 167 111L522 604ZM399 20T461 84T553 242T584 426Q584 503 559 554L203 59Q245 20 310 20Q399 20 461 84Z" />
<glyph unicode="&#xd9;" glyph-name="Ugrave" horiz-adv-x="687" d="M188 -10T138 36T88 177Q88 222 99 285L144 540Q148 561 148 583Q148 611 135 625T91 640H71L75 660H165Q206 660 223 648T241 599Q241 582 234 540L183 255Q175 209 175 177Q175 105 210 68T321
30Q397 30 446 57T524 139T569 285L635 660H675L609 285Q590 181 558 118T464 22T302 -10Q188 -10 138 36ZM398 715L326 845H421L438 715H398Z" />
<glyph unicode="&#xda;" glyph-name="Uacute" horiz-adv-x="687" d="M188 -10T138 36T88 177Q88 222 99 285L144 540Q148 561 148 583Q148 611 135 625T91 640H71L75 660H165Q206 660 223 648T241 599Q241 582 234 540L183 255Q175 209 175 177Q175 105 210 68T321
30Q397 30 446 57T524 139T569 285L635 660H675L609 285Q590 181 558 118T464 22T302 -10Q188 -10 138 36ZM398 681L461 811H556L438 681H398Z" />
<glyph unicode="&#xdb;" glyph-name="Ucircumflex" horiz-adv-x="687" d="M188 -10T138 36T88 177Q88 222 99 285L144 540Q148 561 148 583Q148 611 135 625T91 640H71L75 660H165Q206 660 223 648T241 599Q241 582 234 540L183 255Q175 209 175 177Q175 105 210
68T321 30Q397 30 446 57T524 139T569 285L635 660H675L609 285Q590 181 558 118T464 22T302 -10Q188 -10 138 36ZM307 671L407 786H517L577 671H527L456 751L357 671H307Z" />
<glyph unicode="&#xdc;" glyph-name="Udieresis" horiz-adv-x="687" d="M188 -10T138 36T88 177Q88 222 99 285L144 540Q148 561 148 583Q148 611 135 625T91 640H71L75 660H165Q206 660 223 648T241 599Q241 582 234 540L183 255Q175 209 175 177Q175 105 210
68T321 30Q397 30 446 57T524 139T569 285L635 660H675L609 285Q590 181 558 118T464 22T302 -10Q188 -10 138 36ZM328 725T318 735T307 761Q307 782 322 798T361 815Q378 815 388 805T399 778Q399 758 383 742T345 725Q328 725 318 735ZM498 725T488 735T477 761Q477
782 492 798T531 815Q548 815 558 805T569 778Q569 758 553 742T515 725Q498 725 488 735Z" />
<glyph unicode="&#xdd;" glyph-name="Yacute" horiz-adv-x="629" d="M286 273L161 530Q134 584 109 610T35 640L39 660H129Q179 660 208 631T259 550L365 325L633 660H678L377 280L328 0H238L286 273ZM381 671L444 801H539L421 671H381Z" />
<glyph unicode="&#xde;" glyph-name="Thorn" horiz-adv-x="537" d="M81 108T82 115Q170 617 170 623Q170 670 111 670H91L94 690H184Q227 690 244 678T262 636Q262 624 253 574L249 550Q384 550 453 504T522 364Q522 224 423 154T167 80L147 -30H57Q81 108 82
115ZM246 120T302 149T390 233T422 363Q422 433 379 471T242 510L174 120Q246 120 302 149Z" />
<glyph unicode="&#xdf;" glyph-name="germandbls" horiz-adv-x="554" d="M282 -10T241 9T199 75Q199 95 203 110H223V107Q223 76 250 53T319 30Q355 30 383 53T412 115Q412 144 393 164T336 211Q292 242 270 266T248 329Q248 368 267 394T327 454Q364 484 383
509T402 569Q402 630 325 630Q274 630 244 601T202 500L114 0H24L112 500Q129 597 187 633T337 670Q411 670 450 647T490 584Q490 549 471 524T412 465Q375 434 357 411T338 355Q338 326 357 306T414 259Q457 230 479 205T502 141Q502 97 479 63T417 9T332 -10Q282
-10 241 9Z" />
<glyph unicode="&#xe0;" glyph-name="agrave" horiz-adv-x="525" d="M105 -10T69 38T32 163Q32 236 59 306T141 425T273 480Q355 480 388 425H393L436 470H486L419 87L404 0H354L326 45H321Q298 21 265 6T177 -10Q105 -10 69 38ZM255 30T280 46T329 90L381 380Q364
410 347 425T296 440Q239 440 201 394T145 281T127 157Q127 99 148 65T214 30Q255 30 280 46ZM303 525L231 655H326L343 525H303Z" />
<glyph unicode="&#xe1;" glyph-name="aacute" horiz-adv-x="525" d="M105 -10T69 38T32 163Q32 236 59 306T141 425T273 480Q355 480 388 425H393L436 470H486L419 87L404 0H354L326 45H321Q298 21 265 6T177 -10Q105 -10 69 38ZM255 30T280 46T329 90L381 380Q364
410 347 425T296 440Q239 440 201 394T145 281T127 157Q127 99 148 65T214 30Q255 30 280 46ZM281 526L344 656H439L321 526H281Z" />
<glyph unicode="&#xe2;" glyph-name="acircumflex" horiz-adv-x="525" d="M105 -10T69 38T32 163Q32 236 59 306T141 425T273 480Q355 480 388 425H393L436 470H486L419 87L404 0H354L326 45H321Q298 21 265 6T177 -10Q105 -10 69 38ZM255 30T280 46T329 90L381
380Q364 410 347 425T296 440Q239 440 201 394T145 281T127 157Q127 99 148 65T214 30Q255 30 280 46ZM179 531L279 646H389L449 531H399L328 611L229 531H179Z" />
<glyph unicode="&#xe3;" glyph-name="atilde" horiz-adv-x="525" d="M105 -10T69 38T32 163Q32 236 59 306T141 425T273 480Q355 480 388 425H393L436 470H486L419 87L404 0H354L326 45H321Q298 21 265 6T177 -10Q105 -10 69 38ZM255 30T280 46T329 90L381 380Q364
410 347 425T296 440Q239 440 201 394T145 281T127 157Q127 99 148 65T214 30Q255 30 280 46ZM207 588T225 609T274 631Q289 631 300 626T325 610Q327 609 336 603T354 594T372 591Q383 591 395 604T409 631H439Q430 579 412 558T362 536Q348 536 338 541T312 556Q298
566 288 571T264 576Q253 576 241 563T227 536H197Q207 588 225 609Z" />
<glyph unicode="&#xe4;" glyph-name="adieresis" horiz-adv-x="525" d="M105 -10T69 38T32 163Q32 236 59 306T141 425T273 480Q355 480 388 425H393L436 470H486L419 87L404 0H354L326 45H321Q298 21 265 6T177 -10Q105 -10 69 38ZM255 30T280 46T329 90L381
380Q364 410 347 425T296 440Q239 440 201 394T145 281T127 157Q127 99 148 65T214 30Q255 30 280 46ZM233 535T223 545T212 571Q212 592 227 608T266 625Q283 625 293 615T304 588Q304 568 288 552T250 535Q233 535 223 545ZM403 535T393 545T382 571Q382 592
397 608T436 625Q453 625 463 615T474 588Q474 568 458 552T420 535Q403 535 393 545Z" />
<glyph unicode="&#xe5;" glyph-name="aring" horiz-adv-x="525" d="M105 -10T69 38T32 163Q32 236 59 306T141 425T273 480Q355 480 388 425H393L436 470H486L419 87L404 0H354L326 45H321Q298 21 265 6T177 -10Q105 -10 69 38ZM255 30T280 46T329 90L381 380Q364
410 347 425T296 440Q239 440 201 394T145 281T127 157Q127 99 148 65T214 30Q255 30 280 46ZM277 530T257 551T236 602Q236 626 250 648T288 685T337 700Q367 700 387 679T408 628Q408 604 394 582T356 545T307 530Q277 530 257 551ZM336 565T352 583T368 626Q368
644 358 654T331 665Q308 665 292 647T276 604Q276 586 286 576T313 565Q336 565 352 583Z" />
<glyph unicode="&#xe6;" glyph-name="ae" horiz-adv-x="752" d="M93 -10T52 15T10 97Q10 186 93 223T291 260H321Q330 310 330 342Q330 398 309 419T248 440Q203 440 173 421T123 355H78Q85 390 92 409T119 445Q140 463 182 471T275 480Q326 480 358 455T399 390Q421
429 464 454T555 480Q639 480 678 449T717 366Q717 289 656 250T506 210H402Q399 186 399 165Q399 103 426 67T506 30Q553 30 589 50T660 110L677 95Q634 39 586 15T479 -10Q362 -10 324 75Q292 32 252 11T149 -10Q93 -10 52 15ZM508 250Q557 250 589 280T622 364Q622
400 605 417T552 435Q522 435 493 412T442 349T411 260L409 250H508ZM222 35T245 51T292 95L314 220H284Q217 220 162 194T106 106Q106 72 129 54T187 35Q222 35 245 51Z" />
<glyph unicode="&#xe7;" glyph-name="ccedilla" horiz-adv-x="486" d="M161 -151Q198 -151 223 -142T249 -102Q249 -85 233 -78T175 -71L186 -10Q109 -2 71 48T33 174Q33 249 65 320T159 435T302 480Q365 480 410 466T455 402Q455 379 450 352T443 315H423Q424
323 424 337Q424 388 395 414T315 440Q254 440 212 399T149 295T128 171Q128 105 156 68T243 30Q294 30 330 49T402 110L419 95Q378 43 332 19T226 -10L220 -41Q255 -43 272 -55T290 -93Q290 -181 156 -181L161 -151Z" />
<glyph unicode="&#xe8;" glyph-name="egrave" horiz-adv-x="487" d="M121 -10T77 40T32 173Q32 245 63 316T153 434T291 480Q376 480 417 449T458 366Q458 314 429 277T351 220T247 200H127Q123 180 123 159Q123 103 151 67T232 30Q279 30 315 50T386 110L403
95Q360 39 312 15T205 -10Q121 -10 77 40ZM249 240Q298 242 330 276T363 364Q363 400 343 420T284 440Q231 440 191 387T134 240H249ZM284 525L212 655H307L324 525H284Z" />
<glyph unicode="&#xe9;" glyph-name="eacute" horiz-adv-x="487" d="M121 -10T77 40T32 173Q32 245 63 316T153 434T291 480Q376 480 417 449T458 366Q458 314 429 277T351 220T247 200H127Q123 180 123 159Q123 103 151 67T232 30Q279 30 315 50T386 110L403
95Q360 39 312 15T205 -10Q121 -10 77 40ZM249 240Q298 242 330 276T363 364Q363 400 343 420T284 440Q231 440 191 387T134 240H249ZM269 527L332 657H427L309 527H269Z" />
<glyph unicode="&#xea;" glyph-name="ecircumflex" horiz-adv-x="487" d="M121 -10T77 40T32 173Q32 245 63 316T153 434T291 480Q376 480 417 449T458 366Q458 314 429 277T351 220T247 200H127Q123 180 123 159Q123 103 151 67T232 30Q279 30 315 50T386 110L403
95Q360 39 312 15T205 -10Q121 -10 77 40ZM249 240Q298 242 330 276T363 364Q363 400 343 420T284 440Q231 440 191 387T134 240H249ZM169 526L269 641H379L439 526H389L318 606L219 526H169Z" />
<glyph unicode="&#xeb;" glyph-name="edieresis" horiz-adv-x="487" d="M121 -10T77 40T32 173Q32 245 63 316T153 434T291 480Q376 480 417 449T458 366Q458 314 429 277T351 220T247 200H127Q123 180 123 159Q123 103 151 67T232 30Q279 30 315 50T386 110L403
95Q360 39 312 15T205 -10Q121 -10 77 40ZM249 240Q298 242 330 276T363 364Q363 400 343 420T284 440Q231 440 191 387T134 240H249ZM214 535T204 545T193 571Q193 592 208 608T247 625Q264 625 274 615T285 588Q285 568 269 552T231 535Q214 535 204 545ZM384
535T374 545T363 571Q363 592 378 608T417 625Q434 625 444 615T455 588Q455 568 439 552T401 535Q384 535 374 545Z" />
<glyph unicode="&#xec;" glyph-name="igrave" horiz-adv-x="251" d="M80 215T94 300T108 395Q108 423 95 436T51 450H31L34 470H124Q165 470 182 458T200 409Q200 400 194 359T170 220L132 0H42Q80 215 94 300ZM116 525L44 655H139L156 525H116Z" />
<glyph unicode="&#xed;" glyph-name="iacute" horiz-adv-x="251" d="M80 215T94 300T108 395Q108 423 95 436T51 450H31L34 470H124Q165 470 182 458T200 409Q200 400 194 359T170 220L132 0H42Q80 215 94 300ZM139 526L202 656H297L179 526H139Z" />
<glyph unicode="&#xee;" glyph-name="icircumflex" horiz-adv-x="251" d="M80 215T94 300T108 395Q108 423 95 436T51 450H31L34 470H124Q165 470 182 458T200 409Q200 400 194 359T170 220L132 0H42Q80 215 94 300ZM46 531L146 646H256L316 531H266L195 611L96 531H46Z" />
<glyph unicode="&#xef;" glyph-name="idieresis" horiz-adv-x="251" d="M80 215T94 300T108 395Q108 423 95 436T51 450H31L34 470H124Q165 470 182 458T200 409Q200 400 194 359T170 220L132 0H42Q80 215 94 300ZM46 535T36 545T25 571Q25 592 40 608T79 625Q96
625 106 615T117 588Q117 568 101 552T63 535Q46 535 36 545ZM216 535T206 545T195 571Q195 592 210 608T249 625Q266 625 276 615T287 588Q287 568 271 552T233 535Q216 535 206 545Z" />
<glyph unicode="&#xf0;" glyph-name="eth" horiz-adv-x="537" d="M127 -10T80 42T32 179Q32 252 65 321T160 435T300 480Q342 480 373 459T416 400Q414 455 404 493T374 560L327 520L302 550L350 590Q331 614 308 624T247 635Q220 635 202 629L198 648Q219 661
241 665T294 670Q352 670 402 630L444 670L468 640L427 605Q494 526 494 385Q494 295 466 204T374 52T214 -10Q127 -10 80 42ZM273 30T311 74T368 182T388 297Q388 361 363 400T293 440Q241 440 203 396T146 288T126 173Q126 109 151 70T221 30Q273 30 311 74Z"
/>
<glyph unicode="&#xf1;" glyph-name="ntilde" horiz-adv-x="549" d="M80 215T94 300T108 395Q108 423 95 436T51 450H31L34 470H124Q194 470 202 430H207Q234 452 269 466T346 480Q489 480 489 352Q489 338 480 278T432 0H342Q398 313 398 339Q398 388 373 411T308
435Q258 435 199 382L132 0H42Q80 215 94 300ZM229 597T247 618T296 640Q311 640 322 635T347 619Q349 618 358 612T376 603T394 600Q405 600 417 613T431 640H461Q452 588 434 567T384 545Q370 545 360 550T334 565Q320 575 310 580T286 585Q275 585 263 572T249
545H219Q229 597 247 618Z" />
<glyph unicode="&#xf2;" glyph-name="ograve" horiz-adv-x="529" d="M127 -10T80 42T32 179Q32 252 65 321T160 435T300 480Q387 480 434 428T482 291Q482 218 449 149T354 35T214 -10Q127 -10 80 42ZM273 30T311 74T368 182T388 297Q388 361 363 400T293 440Q241
440 203 396T146 288T126 173Q126 109 151 70T221 30Q273 30 311 74ZM358 525L286 655H381L398 525H358Z" />
<glyph unicode="&#xf3;" glyph-name="oacute" horiz-adv-x="529" d="M127 -10T80 42T32 179Q32 252 65 321T160 435T300 480Q387 480 434 428T482 291Q482 218 449 149T354 35T214 -10Q127 -10 80 42ZM273 30T311 74T368 182T388 297Q388 361 363 400T293 440Q241
440 203 396T146 288T126 173Q126 109 151 70T221 30Q273 30 311 74ZM273 526L336 656H431L313 526H273Z" />
<glyph unicode="&#xf4;" glyph-name="ocircumflex" horiz-adv-x="529" d="M127 -10T80 42T32 179Q32 252 65 321T160 435T300 480Q387 480 434 428T482 291Q482 218 449 149T354 35T214 -10Q127 -10 80 42ZM273 30T311 74T368 182T388 297Q388 361 363 400T293
440Q241 440 203 396T146 288T126 173Q126 109 151 70T221 30Q273 30 311 74ZM173 526L273 641H383L443 526H393L322 606L223 526H173Z" />
<glyph unicode="&#xf5;" glyph-name="otilde" horiz-adv-x="529" d="M127 -10T80 42T32 179Q32 252 65 321T160 435T300 480Q387 480 434 428T482 291Q482 218 449 149T354 35T214 -10Q127 -10 80 42ZM273 30T311 74T368 182T388 297Q388 361 363 400T293 440Q241
440 203 396T146 288T126 173Q126 109 151 70T221 30Q273 30 311 74ZM207 588T225 609T274 631Q289 631 300 626T325 610Q327 609 336 603T354 594T372 591Q383 591 395 604T409 631H439Q430 579 412 558T362 536Q348 536 338 541T312 556Q298 566 288 571T264
576Q253 576 241 563T227 536H197Q207 588 225 609Z" />
<glyph unicode="&#xf6;" glyph-name="odieresis" horiz-adv-x="529" d="M127 -10T80 42T32 179Q32 252 65 321T160 435T300 480Q387 480 434 428T482 291Q482 218 449 149T354 35T214 -10Q127 -10 80 42ZM273 30T311 74T368 182T388 297Q388 361 363 400T293 440Q241
440 203 396T146 288T126 173Q126 109 151 70T221 30Q273 30 311 74ZM280 535T270 545T259 571Q259 592 274 608T313 625Q330 625 340 615T351 588Q351 568 335 552T297 535Q280 535 270 545ZM450 535T440 545T429 571Q429 592 444 608T483 625Q500 625 510 615T521
588Q521 568 505 552T467 535Q450 535 440 545Z" />
<glyph unicode="&#xf7;" glyph-name="divide" horiz-adv-x="565" d="M289 425T279 435T268 462Q268 483 284 499T322 515Q339 515 349 505T360 479Q360 458 345 442T306 425Q289 425 279 435ZM64 300L75 360H515L504 300H64ZM240 145T230 155T219 182Q219 203
235 219T273 235Q290 235 300 225T311 198Q311 178 295 162T257 145Q240 145 230 155Z" />
<glyph unicode="&#xf8;" glyph-name="oslash" horiz-adv-x="528" d="M151 -10T105 20L89 0H16L66 58Q32 108 32 179Q32 252 65 321T160 435T300 480Q365 480 408 450L425 470H498L447 411Q482 361 482 288Q482 216 448 147T353 34T214 -10Q151 -10 105 20ZM364
399Q337 440 293 440Q241 440 204 396T146 290T126 176Q126 151 130 131L364 399ZM273 30T310 74T368 180T388 294Q388 319 384 339L150 71Q174 30 221 30Q273 30 310 74Z" />
<glyph unicode="&#xf9;" glyph-name="ugrave" horiz-adv-x="537" d="M50 -10T50 120Q50 132 58 182T87 350Q92 382 92 395Q92 423 79 436T35 450H25L28 470H108Q149 470 166 458T184 409Q184 392 177 350Q142 156 142 132Q142 82 167 59T232 35Q282 35 341 88L408
470H498L416 0H366L338 40H333Q306 18 271 4T194 -10Q50 -10 50 120ZM289 525L217 655H312L329 525H289Z" />
<glyph unicode="&#xfa;" glyph-name="uacute" horiz-adv-x="537" d="M50 -10T50 120Q50 132 58 182T87 350Q92 382 92 395Q92 423 79 436T35 450H25L28 470H108Q149 470 166 458T184 409Q184 392 177 350Q142 156 142 132Q142 82 167 59T232 35Q282 35 341 88L408
470H498L416 0H366L338 40H333Q306 18 271 4T194 -10Q50 -10 50 120ZM280 501L343 631H438L320 501H280Z" />
<glyph unicode="&#xfb;" glyph-name="ucircumflex" horiz-adv-x="537" d="M50 -10T50 120Q50 132 58 182T87 350Q92 382 92 395Q92 423 79 436T35 450H25L28 470H108Q149 470 166 458T184 409Q184 392 177 350Q142 156 142 132Q142 82 167 59T232 35Q282 35 341
88L408 470H498L416 0H366L338 40H333Q306 18 271 4T194 -10Q50 -10 50 120ZM168 526L268 641H378L438 526H388L317 606L218 526H168Z" />
<glyph unicode="&#xfc;" glyph-name="udieresis" horiz-adv-x="537" d="M50 -10T50 120Q50 132 58 182T87 350Q92 382 92 395Q92 423 79 436T35 450H25L28 470H108Q149 470 166 458T184 409Q184 392 177 350Q142 156 142 132Q142 82 167 59T232 35Q282 35 341
88L408 470H498L416 0H366L338 40H333Q306 18 271 4T194 -10Q50 -10 50 120ZM219 535T209 545T198 571Q198 592 213 608T252 625Q269 625 279 615T290 588Q290 568 274 552T236 535Q219 535 209 545ZM389 535T379 545T368 571Q368 592 383 608T422 625Q439 625
449 615T460 588Q460 568 444 552T406 535Q389 535 379 545Z" />
<glyph unicode="&#xfd;" glyph-name="yacute" horiz-adv-x="514" d="M23 -170Q72 -170 108 -148T176 -65L206 -10L115 380Q98 452 19 460L22 480H107Q194 480 213 400L278 123L465 470H515L226 -65Q184 -144 144 -172T47 -200H17L23 -170ZM296 501L359 631H454L336
501H296Z" />
<glyph unicode="&#xfe;" glyph-name="thorn" horiz-adv-x="526" d="M80 314T102 442T124 583Q124 611 111 625T67 640H52L56 660H141Q183 660 199 648T216 599Q216 587 210 548T189 425Q244 480 334 480Q405 480 441 432T478 305Q478 234 451 161T370 39T238 -10Q172
-10 118 20L81 -190H-9Q80 314 102 442ZM273 30T311 76T366 187T383 313Q383 373 362 406T297 440Q259 440 232 424T182 380L125 60Q179 30 215 30Q273 30 311 76Z" />
<glyph unicode="&#xff;" glyph-name="ydieresis" horiz-adv-x="514" d="M23 -170Q72 -170 108 -148T176 -65L206 -10L115 380Q98 452 19 460L22 480H107Q194 480 213 400L278 123L465 470H515L226 -65Q184 -144 144 -172T47 -200H17L23 -170ZM227 535T217 545T206
571Q206 592 221 608T260 625Q277 625 287 615T298 588Q298 568 282 552T244 535Q227 535 217 545ZM397 535T387 545T376 571Q376 592 391 608T430 625Q447 625 457 615T468 588Q468 568 452 552T414 535Q397 535 387 545Z" />
<glyph unicode="&#x2013;" glyph-name="endash" horiz-adv-x="613" d="M62 230L73 290H543L532 230H62Z" />
<glyph unicode="&#x2014;" glyph-name="emdash" horiz-adv-x="883" d="M62 230L73 290H813L802 230H62Z" />
<glyph unicode="&#x2018;" glyph-name="quoteleft" horiz-adv-x="229" d="M116 425T102 438T88 477Q88 539 128 592T232 680L240 665Q196 637 170 605T136 530L168 540Q188 540 201 527T214 494Q214 467 193 446T142 425Q116 425 102 438Z" />
<glyph unicode="&#x2019;" glyph-name="quoteright" horiz-adv-x="230" d="M90 440Q134 468 160 500T194 575L162 565Q142 565 129 578T116 611Q116 638 137 659T187 680Q242 680 242 628Q242 567 201 513T97 425L90 440Z" />
<glyph unicode="&#x201a;" glyph-name="quotesinglbase" horiz-adv-x="241" d="M-10 -140Q34 -112 60 -80T94 -5L62 -15Q42 -15 29 -2T16 30Q16 57 37 78T87 100Q142 100 142 48Q142 -13 101 -67T-3 -155L-10 -140Z" />
<glyph unicode="&#x201c;" glyph-name="quotedblleft" horiz-adv-x="409" d="M116 425T102 438T88 477Q88 539 128 592T232 680L240 665Q196 637 170 605T136 530L168 540Q188 540 201 527T214 494Q214 467 193 446T142 425Q116 425 102 438ZM296 425T282 438T268
477Q268 539 308 592T412 680L420 665Q376 637 350 605T316 530L348 540Q368 540 381 527T394 494Q394 467 373 446T322 425Q296 425 282 438Z" />
<glyph unicode="&#x201d;" glyph-name="quotedblright" horiz-adv-x="410" d="M90 440Q134 468 160 500T194 575L162 565Q142 565 129 578T116 611Q116 638 137 659T187 680Q242 680 242 628Q242 567 201 513T97 425L90 440ZM270 440Q314 468 340 500T374 575L342
565Q322 565 309 578T296 611Q296 638 317 659T367 680Q422 680 422 628Q422 567 381 513T277 425L270 440Z" />
<glyph unicode="&#x201e;" glyph-name="quotedblbase" horiz-adv-x="421" d="M-10 -140Q34 -112 60 -80T94 -5L62 -15Q42 -15 29 -2T16 30Q16 57 37 78T87 100Q142 100 142 48Q142 -13 101 -67T-3 -155L-10 -140ZM170 -140Q214 -112 240 -80T274 -5L242 -15Q222
-15 209 -2T196 30Q196 57 217 78T267 100Q322 100 322 48Q322 -13 281 -67T177 -155L170 -140Z" />
<glyph unicode="&#x2022;" glyph-name="bullet" horiz-adv-x="339" d="M111 210T84 236T56 305Q56 342 75 375T126 429T199 450Q246 450 273 424T300 354Q300 317 281 284T229 230T157 210Q111 210 84 236Z" />
<glyph unicode="&#x2039;" glyph-name="guilsinglleft" horiz-adv-x="305" d="M167 30L26 225L236 420H276L131 225L207 30H167Z" />
<glyph unicode="&#x203a;" glyph-name="guilsinglright" horiz-adv-x="303" d="M10 30L154 225L79 420H119L259 225L50 30H10Z" />
</font>
</defs>
</svg>
