<?xml version="1.0" standalone="no"?>
<!DOCTYPE svg PUBLIC "-//W3C//DTD SVG 1.1//EN" "http://www.w3.org/Graphics/SVG/1.1/DTD/svg11.dtd">
<svg xmlns="http://www.w3.org/2000/svg">
<defs >
<font id="Kreon" horiz-adv-x="482" ><font-face
    font-family="Kreon"
    units-per-em="1000"
    panose-1="2 0 5 6 0 0 0 2 0 4"
    ascent="974"
    descent="-286"
    alphabetic="0" />
<glyph unicode=" " glyph-name="space" horiz-adv-x="240" />
<glyph unicode="!" glyph-name="exclam" horiz-adv-x="268" d="M108 -4T91 13T74 55T91 97T132 114T175 97T193 55T175 14T133 -4ZM66 677L183 690L204 652L167 237H98L66 677Z" />
<glyph unicode="&quot;" glyph-name="quotedbl" horiz-adv-x="323" d="M36 689L129 699L146 669L117 467H62L36 689ZM177 689L270 699L287 669L258 467H203L177 689Z" />
<glyph unicode="#" glyph-name="numbersign" horiz-adv-x="646" d="M70 483L83 506H248L317 691H383L394 677L330 506H431L498 691H564L575 677L513 506H607Q613 506 613 498V431H485L444 317H566Q572 317 572 309V242H416L346 48H280L269 61L335 242H233L162
48H96L85 61L151 242H42L29 294L42 317H179L221 431H83L70 483ZM261 317H362L403 431H303L261 317Z" />
<glyph unicode="$" glyph-name="dollar" d="M198 -3Q109 1 43 34V203H115L133 96Q176 80 219 80Q305 80 337 136Q348 155 348 185T330 240T269 286T185 324T110 364T55 422T33 502T45 576T80 627Q124 671 198 686V874H288V690Q355 684 421 661L435 489H366L322
597Q292 607 247 607T170 586T138 522Q138 472 188 440Q210 425 237 414T299 386T366 348T416 302Q452 257 452 204T439 119T404 62Q360 17 288 2V-192H198V-3Z" />
<glyph unicode="%" glyph-name="percent" horiz-adv-x="719" d="M31 517Q31 547 39 577T65 633Q104 690 172 690Q240 690 278 638Q313 589 313 518Q313 443 274 393Q235 342 172 342Q102 342 64 400Q31 449 31 517ZM140 625T123 594T105 517T123 440T172 408Q202
408 220 440T238 517T221 594T172 625ZM408 170Q408 238 442 286Q481 343 548 343Q616 343 654 290Q689 243 689 170Q689 96 651 46Q612 -4 548 -4Q480 -4 441 53Q408 102 408 170ZM516 278T500 247T483 169T501 92T549 61T596 92T614 170Q614 216 597 247T548
278ZM615 691L619 677L181 0H94L88 13L531 691H615Z" />
<glyph unicode="&amp;" glyph-name="ampersand" horiz-adv-x="672" d="M675 29Q637 -3 573 -3T431 64Q358 -4 253 -4Q157 -4 94 56Q32 114 32 201Q32 307 158 407Q104 499 104 563Q104 636 150 682Q199 731 269 731T380 692T420 591Q420 500 292 392Q335 333 381
280L433 218Q459 272 471 328H426L410 398H566L577 384Q555 253 504 161L496 148Q556 86 573 81Q577 82 585 88T604 102L633 121L675 29ZM367 128Q284 225 203 337Q172 307 154 276T136 197T169 116T261 82T367 128ZM247 457Q325 528 325 591Q325 623 308 639T261
656T215 634T199 583Q199 535 247 457Z" />
<glyph unicode="&apos;" glyph-name="quotesingle" horiz-adv-x="182" d="M36 679L129 689L146 659L117 457H62L36 679Z" />
<glyph unicode="(" glyph-name="parenleft" horiz-adv-x="276" d="M153 -147Q90 -20 62 148Q51 215 51 293T62 440T89 567Q117 665 160 742H244Q179 612 155 433Q146 366 146 290T156 146T182 20Q203 -61 244 -162H160L153 -147Z" />
<glyph unicode=")" glyph-name="parenright" horiz-adv-x="276" d="M116 742Q225 538 225 290Q225 160 188 25Q165 -57 123 -147L116 -162H32Q73 -61 91 8Q130 158 130 291Q130 546 32 742H116Z" />
<glyph unicode="*" glyph-name="asterisk" horiz-adv-x="362" d="M196 597L287 680L327 637L321 614L208 572L327 534L311 478L287 472L195 547L218 426L162 414L146 431L166 547L75 464L35 507L41 530L154 572L35 610L51 666L75 672L167 597L144 718L200 730L216
713L196 597ZM173 558H190L197 572L189 586H171L164 571L173 558Z" />
<glyph unicode="+" glyph-name="plus" horiz-adv-x="401" d="M240 518V390H365V315H240V165H178L165 177V315H34V376L47 390H165V518H240Z" />
<glyph unicode="," glyph-name="comma" horiz-adv-x="214" d="M151 133Q162 89 162 57T154 -7T132 -64Q108 -113 74 -147L22 -117V-103L72 -1L46 114L151 133Z" />
<glyph unicode="-" glyph-name="hyphen" horiz-adv-x="399" d="M58 305L70 319H335Q341 319 341 311V244H58V305Z" />
<glyph unicode="." glyph-name="period" horiz-adv-x="208" d="M79 -4T62 13T45 55T62 97T103 114T146 97T164 55T147 14T104 -4Z" />
<glyph unicode="/" glyph-name="slash" horiz-adv-x="461" d="M440 690L439 676L111 0H25L22 13L350 690H440Z" />
<glyph unicode="0" glyph-name="zero" horiz-adv-x="583" d="M46 343Q46 579 173 660Q220 690 291 690Q421 690 484 582Q537 492 537 343Q537 108 409 26Q362 -4 291 -4Q161 -4 98 105Q46 194 46 343ZM151 343Q151 162 228 102Q254 82 291 82Q362 82 399 158Q432
226 432 343Q432 525 355 584Q328 604 291 604T227 584T184 528Q151 459 151 343Z" />
<glyph unicode="1" glyph-name="one" horiz-adv-x="362" d="M154 83V579L40 556L25 628L234 693L254 684V79L347 67V0H52L41 66L154 83Z" />
<glyph unicode="2" glyph-name="two" horiz-adv-x="518" d="M40 69Q60 91 90 122T153 191T221 270T282 352Q343 441 347 500V507Q347 555 314 582Q285 604 250 604Q200 604 161 578L134 494L22 554Q57 618 114 654T244 690Q332 690 388 648Q452 601 452 510Q452
417 342 277Q284 202 239 155T174 86H375L414 193H480L459 0H52L40 69Z" />
<glyph unicode="3" glyph-name="three" horiz-adv-x="523" d="M85 144Q158 82 241 82Q307 82 338 113T370 181T357 241T320 278Q278 305 205 305H154V391Q258 391 304 411Q362 437 362 507Q362 556 329 582Q300 605 261 605T201 597T165 580L128 498L27 556Q62
620 122 655T267 690Q346 690 404 646Q467 597 467 513Q467 456 437 415T355 355Q400 340 433 303Q475 256 475 200T455 106T402 44Q338 -4 255 -4Q115 -4 32 64L85 144Z" />
<glyph unicode="4" glyph-name="four" horiz-adv-x="518" d="M398 197V82L479 69V1H161V69L299 85V197H35L2 272L290 691H398V283H480V197H398ZM299 283V568L100 283H299Z" />
<glyph unicode="5" glyph-name="five" horiz-adv-x="502" d="M167 375Q121 375 79 369V658L111 690H430V604H174V460H198Q215 460 246 459T320 443T395 402Q469 340 469 235Q469 131 391 62Q315 -4 209 -4Q148 -4 100 16T19 65L68 142Q133 82 215 82Q279 82 322
124Q364 164 364 228Q364 308 307 345Q261 375 167 375Z" />
<glyph unicode="6" glyph-name="six" horiz-adv-x="557" d="M150 639T200 667T303 696T388 686T445 660Q482 637 509 598L414 531L364 602Q340 610 312 610T254 592T202 540Q155 471 149 372Q172 398 210 417T298 437T387 423T456 380Q518 320 518 220Q518 127
458 64Q394 -4 299 -4Q170 -4 100 107Q43 199 43 339Q43 491 115 590Q150 639 200 667ZM164 210Q198 82 294 82Q353 82 384 123Q413 160 413 217Q413 276 379 314Q345 352 294 352Q239 352 202 311Q166 271 164 210Z" />
<glyph unicode="7" glyph-name="seven" horiz-adv-x="444" d="M90 483H27V690H421L439 664L230 0H127L122 27L341 604H115L90 483Z" />
<glyph unicode="8" glyph-name="eight" horiz-adv-x="532" d="M41 184Q41 302 163 370Q125 395 99 431T72 515T89 594T135 648Q194 696 268 696Q345 696 402 652Q463 603 463 528Q463 458 402 408Q385 393 366 380Q428 343 449 315Q491 261 491 194Q491 108 422
50Q358 -5 267 -5Q174 -5 110 42Q41 94 41 184ZM243 327Q146 274 146 187Q146 136 188 106Q223 81 258 81T315 89T352 112Q386 144 386 186Q386 254 296 300Q271 313 243 327ZM316 442T337 466T358 526T333 586T268 610T203 588T177 538T186 493T211 464Q234 445
284 422Q316 442 337 466Z" />
<glyph unicode="9" glyph-name="nine" horiz-adv-x="543" d="M98 143Q168 82 243 82Q377 82 391 300Q361 271 323 258T247 245T171 259T104 300Q43 357 43 458Q43 557 100 624Q161 694 268 694Q389 694 449 580Q498 487 498 338Q498 195 436 100Q406 53 359 25T260
-4T175 3T116 22Q80 37 42 65L98 143ZM262 331Q283 331 304 338T342 361Q381 396 385 447Q368 559 310 595Q289 608 261 608Q212 608 180 572T148 467Q148 400 182 364Q213 331 262 331Z" />
<glyph unicode=":" glyph-name="colon" horiz-adv-x="235" d="M92 372T75 389T58 431T75 473T117 491T159 473T177 431T160 389T117 372ZM93 136T76 153T58 195T75 237T117 254T159 237T177 195T160 154T118 136Z" />
<glyph unicode=";" glyph-name="semicolon" horiz-adv-x="244" d="M91 272T74 289T57 331T74 373T116 391T158 373T176 331T159 289T116 272ZM173 133Q184 89 184 57T176 -7T154 -64Q130 -113 96 -147L44 -117V-103L94 -1L68 114L173 133Z" />
<glyph unicode="&lt;" glyph-name="less" horiz-adv-x="423" d="M125 339L356 201V104L29 306V374L356 572V478L125 339Z" />
<glyph unicode="=" glyph-name="equal" horiz-adv-x="451" d="M390 308V232H61V308H390ZM390 434V358H61V434H390Z" />
<glyph unicode="&gt;" glyph-name="greater" horiz-adv-x="423" d="M394 374V306L67 104V201L298 339L67 478V572L394 374Z" />
<glyph unicode="?" glyph-name="question" horiz-adv-x="408" d="M128 -4T111 13T94 55T111 97T152 114T195 97T213 55T195 14T153 -4ZM190 237L111 236L109 246Q105 260 105 289T117 341T149 380T190 412T231 444Q275 482 275 532Q275 562 254 584T190 607Q147
607 127 598L100 502H39L56 661Q141 691 194 691T280 679T336 645Q379 604 379 540Q379 455 316 397Q297 380 278 366L241 340Q195 307 191 258Q190 246 190 237Z" />
<glyph unicode="@" glyph-name="at" horiz-adv-x="831" d="M438 -47Q508 -47 555 -28L573 -32L545 -118Q496 -133 418 -133T268 -106T144 -26Q31 84 31 270Q31 360 63 431T150 552Q262 653 427 653Q586 653 690 552Q740 505 768 440T797 313T784 205T745 124Q690
48 604 48Q546 48 519 79Q471 48 411 48Q330 48 277 98Q218 154 218 254Q218 367 292 424Q349 467 425 467Q478 467 524 445L560 459L587 450V164Q587 143 595 137T616 131T645 143T674 178Q703 228 703 293T684 407T630 492Q554 568 428 568Q298 568 212 484Q126
400 126 268Q126 115 216 31Q298 -47 438 -47ZM436 122Q466 122 494 145Q493 155 493 164V379Q463 394 435 394T386 386T349 362Q314 325 314 258Q314 189 350 152Q379 122 436 122Z" />
<glyph unicode="A" glyph-name="A" horiz-adv-x="608" d="M-1 62L51 80L253 691H349L562 80L608 62L597 0H362V59L450 80L402 228H188L142 80L228 60V0H12L-1 62ZM214 314H374L292 565L214 314Z" />
<glyph unicode="B" glyph-name="B" horiz-adv-x="577" d="M49 70L110 84V610L46 616V691H277Q385 691 449 640Q510 591 510 510Q510 453 478 408Q449 367 407 354Q461 343 498 304Q538 262 538 200T517 100T460 40Q400 0 298 0H59L49 70ZM405 500Q405 605 271
605H210V390H254Q331 390 368 416T405 500ZM210 86H288Q386 86 420 142Q433 164 433 196T421 249T387 282Q348 304 286 304H210V86Z" />
<glyph unicode="C" glyph-name="C" horiz-adv-x="582" d="M554 41Q491 -4 377 -4Q239 -4 141 84Q34 181 34 338Q34 504 136 602Q229 691 372 691Q436 691 520 672L539 490H471L432 598Q413 605 366 605T276 584T202 528Q139 454 139 348Q139 233 208 158Q278 82
394 82Q437 82 473 95T525 120L554 41Z" />
<glyph unicode="D" glyph-name="D" horiz-adv-x="633" d="M217 85Q492 85 492 351Q492 471 420 540Q350 606 233 606L209 605V86L217 85ZM110 85V611L50 617V691H239Q402 691 498 604Q597 515 597 350T502 92Q408 0 243 0H59L49 71L110 85Z" />
<glyph unicode="E" glyph-name="E" horiz-adv-x="539" d="M49 691H475L495 503H432L394 605H208V395H366V309H208V86H404L439 187H502L482 0H58L48 71L109 84V611L49 616V691Z" />
<glyph unicode="F" glyph-name="F" horiz-adv-x="511" d="M58 0L48 71L109 84V611L49 616V691H475L496 503H434L394 605H208V395H366V309H208V88L370 65L364 0H58Z" />
<glyph unicode="G" glyph-name="G" horiz-adv-x="615" d="M459 86L460 233L346 247L364 318H559V14Q487 -4 402 -4T252 19T137 86Q33 179 33 337Q33 497 130 594Q227 691 381 691Q456 691 537 670L552 489H479L443 600Q413 605 369 605T281 585T206 530Q138 453
138 340Q138 223 210 153Q283 82 405 82Q439 82 459 86Z" />
<glyph unicode="H" glyph-name="H" horiz-adv-x="672" d="M109 610L49 615V691H259L269 616L209 606V399H463V610L406 615V691H613L623 616L563 606V81L623 73V0H416L406 72L463 83V313H209V81L270 73V0H59L49 72L109 83V610Z" />
<glyph unicode="I" glyph-name="I" horiz-adv-x="319" d="M109 610L46 615V691H264L274 616L209 606V81L274 73V0H55L46 72L109 83V610Z" />
<glyph unicode="J" glyph-name="J" horiz-adv-x="367" d="M61 126Q105 85 134 85Q171 85 171 140V606L94 616L104 691H333V615L271 610V149Q271 60 218 21Q184 -4 139 -4Q61 -4 8 47L61 126Z" />
<glyph unicode="K" glyph-name="K" horiz-adv-x="613" d="M595 71V0H456L298 297L209 190V81L270 73V0H55L46 72L109 83V610L46 614V691H260L269 617L209 606V324L442 608L371 619V691H592V618L559 611L367 380L540 81L595 71Z" />
<glyph unicode="L" glyph-name="L" horiz-adv-x="511" d="M49 691H264L273 617L208 606V86H404L439 187H502L482 0H58L48 71L109 82V611L49 616V691Z" />
<glyph unicode="M" glyph-name="M" horiz-adv-x="854" d="M747 81L802 70L798 0H604L596 72L654 85V599L477 15H362L191 604V82L250 71V0H57L45 71L108 84V609L58 614V691H264L426 131L594 691H789L799 614L747 606V81Z" />
<glyph unicode="N" glyph-name="N" horiz-adv-x="696" d="M194 161L195 90Q195 84 196 81L253 71V0H59L47 71L110 84V609L50 615V691H259L511 96V609L449 617V691H646L659 616L595 604V0H447L194 596V161Z" />
<glyph unicode="O" glyph-name="O" horiz-adv-x="651" d="M148 342Q148 234 192 161Q239 82 325 82Q412 82 460 161Q504 233 504 342Q504 452 460 526Q411 606 325 606Q239 606 192 526Q148 452 148 342ZM325 -4Q189 -4 113 100Q43 196 43 344Q43 492 113 588Q189
692 325 692Q461 692 538 588Q609 491 609 344Q609 197 538 100Q461 -4 325 -4Z" />
<glyph unicode="P" glyph-name="P" horiz-adv-x="553" d="M210 87Q235 82 355 67L352 0H56L46 70L110 84V610L47 615V691H258Q397 691 468 628Q532 570 532 470Q532 353 453 295Q383 244 256 244H210V87ZM427 471Q427 605 245 605H210V330H252Q344 330 388 372Q427
409 427 471Z" />
<glyph unicode="Q" glyph-name="Q" horiz-adv-x="651" d="M148 342Q148 234 192 161Q239 82 325 82Q412 82 460 161Q504 233 504 342Q504 452 460 526Q411 606 325 606Q239 606 192 526Q148 452 148 342ZM325 -4Q189 -4 113 100Q43 196 43 344Q43 492 113 588Q189
692 325 692Q461 692 538 588Q609 491 609 344Q609 197 538 100Q461 -4 325 -4ZM508 -97L514 -130L425 -209Q382 -174 342 -138T259 -64L298 -22L508 -97Z" />
<glyph unicode="R" glyph-name="R" horiz-adv-x="584" d="M110 84V610L47 615V691H258Q397 691 468 628Q532 570 532 470Q532 401 497 353T402 280L499 81L556 69V0H417L305 256Q281 253 256 253H210V83L289 69V0H56L46 70L110 84ZM427 471Q427 605 245 605H210V339H252Q341
339 388 382Q427 416 427 471Z" />
<glyph unicode="S" glyph-name="S" horiz-adv-x="507" d="M52 34L59 203H129L147 96Q190 80 233 80Q319 80 351 136Q362 155 362 185T344 240T283 286T199 324T124 364T69 422T47 505T64 587T112 643Q175 691 266 691Q354 691 435 661L449 489H380L336 597Q306
607 261 607T184 586T152 522Q152 472 202 440Q224 425 251 414T313 386T380 348T430 302Q466 257 466 199T447 104T394 42Q332 -4 230 -4T52 34Z" />
<glyph unicode="T" glyph-name="T" horiz-adv-x="580" d="M125 66L239 86V605H116L75 506H14L35 691H545L567 506H506L464 605H339V86L455 66L446 0H138L125 66Z" />
<glyph unicode="U" glyph-name="U" horiz-adv-x="647" d="M411 691H613V617L556 607V230Q556 114 486 52Q425 -4 331 -4Q216 -4 154 57T92 230V610L30 616V691H261V617L192 608V233Q192 162 227 122T334 82Q427 82 460 162Q472 191 472 234V609L411 618V691Z" />
<glyph unicode="V" glyph-name="V" horiz-adv-x="579" d="M575 623L537 610L335 0H243L43 610L7 623V691H233L241 629L150 610L297 156L446 612L356 629V691H575V623Z" />
<glyph unicode="W" glyph-name="W" horiz-adv-x="894" d="M239 629L166 613L257 113L406 673H506L656 109L750 615L668 630L674 691H889V623L830 604L712 0H580L446 511L311 0H178L65 607L15 622V691H230L239 629Z" />
<glyph unicode="X" glyph-name="X" horiz-adv-x="574" d="M20 62L64 69L227 335L62 609L20 621V691H243L251 630L180 615L297 424L409 614L350 628V691H553V618L510 611L347 343L509 78L553 66V0H327V62L390 67L277 254L167 66L223 59V0H20V62Z" />
<glyph unicode="Y" glyph-name="Y" horiz-adv-x="563" d="M556 616L513 606L333 246V83L449 63L439 0H129L119 63L234 83V252L44 607L4 616V691H217L224 625L160 613L296 363L418 614L361 625V691H556V616Z" />
<glyph unicode="Z" glyph-name="Z" horiz-adv-x="553" d="M504 598Q472 549 430 484T343 350T252 212T169 86H424L443 192H507V0H53L37 77L392 605H133L113 498H50V691H492L504 598Z" />
<glyph unicode="[" glyph-name="bracketleft" horiz-adv-x="321" d="M318 702Q324 702 324 695V628H173V-105H324V-171Q324 -179 318 -179H89L78 -165V690L86 702H318Z" />
<glyph unicode="\" glyph-name="backslash" horiz-adv-x="460" d="M21 691H110L439 13L431 0H350L21 679V691Z" />
<glyph unicode="]" glyph-name="bracketright" horiz-adv-x="321" d="M243 -165L232 -179H3Q-3 -179 -3 -171V-105H148V628H-3V695Q-3 702 3 702H235L243 690V-165Z" />
<glyph unicode="^" glyph-name="asciicircum" horiz-adv-x="443" d="M235 724L391 561L389 556H308L221 615L135 556H55L52 562L209 724H235Z" />
<glyph unicode="_" glyph-name="underscore" horiz-adv-x="563" d="M5 -13L19 0H552Q558 0 558 -7V-75H5V-13Z" />
<glyph unicode="`" glyph-name="grave" horiz-adv-x="302" d="M52 632L112 703L143 695L250 537L213 500L52 632Z" />
<glyph unicode="a" glyph-name="a" horiz-adv-x="460" d="M299 41Q255 -5 187 -5T78 33T36 124T57 208T114 257Q175 288 293 290V361Q293 381 275 397T217 414Q180 414 162 398L142 333L37 364Q60 447 150 476Q182 486 222 486Q300 486 341 447T383 345V89Q383
68 397 68Q404 68 418 75L440 22Q409 -4 371 -4Q314 -4 299 41ZM168 74T180 72T207 69T237 75T264 91Q285 107 293 131V217Q227 217 196 207T148 180T131 139T138 102T157 82Z" />
<glyph unicode="b" glyph-name="b" horiz-adv-x="490" d="M144 19Q96 -5 92 -6L69 8V656L11 652L2 712L129 731L159 699V459Q201 486 251 486T337 469T399 421Q454 355 454 247Q454 111 380 46Q323 -4 240 -4Q185 -4 144 19ZM240 410Q216 410 194 401T159 377V97Q167
87 189 79T234 71T277 78T316 106Q359 150 359 241Q359 327 322 371Q290 410 240 410Z" />
<glyph unicode="c" glyph-name="c" horiz-adv-x="432" d="M396 42Q336 -4 250 -4Q160 -4 102 54Q36 118 36 233Q36 364 106 432Q162 486 251 486Q316 486 364 452Q403 425 416 395L317 348L285 406Q265 411 252 411Q131 411 131 235Q131 160 167 116T264 71Q292
71 323 81T374 112L396 42Z" />
<glyph unicode="d" glyph-name="d" horiz-adv-x="502" d="M341 29Q294 -4 242 -4T153 13T91 61Q36 127 36 235Q36 371 110 436Q167 486 250 486Q292 486 330 470V656L273 652L264 712L389 733L420 699V89Q420 68 434 68Q441 68 455 75L477 22Q446 -4 402 -4T341
29ZM330 104V386Q321 395 300 403T256 411T213 404T174 376Q131 332 131 241Q131 155 168 111Q200 72 250 72T330 104Z" />
<glyph unicode="e" glyph-name="e" horiz-adv-x="444" d="M408 354Q408 323 398 294T357 240Q289 186 135 184Q151 105 216 80Q239 71 266 71T312 75T345 86Q372 99 383 110L405 40Q394 29 368 18Q268 -23 172 11Q85 42 52 132Q35 177 35 237T53 344T101 422Q161
486 251 486Q317 486 362 451Q408 414 408 354ZM313 374T298 392T255 410T207 401T171 374Q136 333 130 258Q203 258 239 269T294 299T313 346Z" />
<glyph unicode="f" glyph-name="f" horiz-adv-x="337" d="M17 476L24 486H99V577Q99 653 140 694Q176 730 236 730Q305 730 364 688Q376 680 379 677L308 594L244 653Q238 655 230 655Q190 655 190 589V486H303Q308 486 308 480V411H190V71L304 54V0H54L42 54L99
66V411H31L17 476Z" />
<glyph unicode="g" glyph-name="g" horiz-adv-x="488" d="M116 155Q39 206 39 302Q39 382 94 434Q147 486 223 486T354 442L453 492L474 489L484 406L394 395Q418 351 418 305T402 225T358 170Q305 126 228 126Q203 126 184 130L159 91L163 74Q173 72 206 68T282
53T355 28T404 -6Q434 -39 434 -89T416 -173T369 -230Q310 -275 225 -275Q135 -275 79 -237Q18 -196 18 -126Q18 -32 101 9Q77 29 77 72T116 155ZM224 411Q183 409 159 380T134 315T142 258T163 226Q188 201 228 201T296 228T323 306Q323 357 295 384T228 411H224ZM358
-78T331 -66T254 -43T177 -24Q106 -53 106 -112Q106 -145 143 -167Q177 -187 231 -187Q284 -187 320 -164Q358 -141 358 -110Z" />
<glyph unicode="h" glyph-name="h" horiz-adv-x="521" d="M174 450Q224 486 292 486Q396 486 428 410Q440 384 440 346V70L500 54V0H301L289 54L350 68V331Q350 376 329 392T285 409T246 405T216 395Q188 383 174 369V70L233 54V0H34L22 54L84 68V656L27 652L18
712L143 733L174 699V450Z" />
<glyph unicode="i" glyph-name="i" horiz-adv-x="268" d="M184 70L243 54V0H43L32 54L94 68V408L39 404L29 464L152 486L184 454V70ZM62 666Q62 692 80 710T124 728Q150 728 168 709T186 665T168 622T124 604Q98 604 80 622T62 666Z" />
<glyph unicode="j" glyph-name="j" horiz-adv-x="243" d="M50 -196Q85 -196 85 -135V408L32 404L23 464L144 486L175 454V-124Q175 -203 143 -237T55 -272Q4 -272 -37 -246L1 -173Q8 -178 20 -187T50 -196ZM52 666Q52 692 70 710T114 728Q140 728 158 709T176
665T158 622T114 604T70 622T52 666Z" />
<glyph unicode="k" glyph-name="k" horiz-adv-x="485" d="M174 264L327 423H278L270 486H429L453 440L298 290L413 68L466 56V0H341L227 221L174 170V66L233 54V0H34L22 54L84 68V656L27 652L18 712L143 733L174 699V264Z" />
<glyph unicode="l" glyph-name="l" horiz-adv-x="260" d="M174 70L237 54V0H33L21 54L84 68V656L27 652L17 712L142 733L174 699V70Z" />
<glyph unicode="m" glyph-name="m" horiz-adv-x="797" d="M448 363L449 334V70L509 54V0H310L298 54L359 68V331Q359 376 338 392T286 409T226 396T184 370V70L242 54V0H43L31 54L94 68V408L39 404L29 464Q42 466 59 469T93 476T126 481T152 486L181 449Q229 486
306 486T421 438Q486 486 567 486Q671 486 705 410Q717 384 717 346V70L776 54V0H576L565 54L627 68V331Q627 373 602 393Q581 409 549 409T490 397T448 373V363Z" />
<glyph unicode="n" glyph-name="n" horiz-adv-x="530" d="M181 449Q229 486 301 486Q405 486 438 410Q449 384 449 346V71L509 54V0H310L298 54L359 68V331Q359 376 338 392T286 409T226 396T184 370V70L242 54V0H43L31 54L94 68V408L39 404L29 464Q42 466 59
469T93 476T126 481T152 486L181 449Z" />
<glyph unicode="o" glyph-name="o" horiz-adv-x="495" d="M131 154T163 113T247 71T332 111T365 235T334 364T248 411Q191 411 160 362Q131 315 131 235ZM36 245Q36 303 53 348T100 424Q158 486 248 486Q340 486 400 420Q460 354 460 243Q460 127 396 60Q337 -4
248 -4Q155 -4 96 64Q36 131 36 245Z" />
<glyph unicode="p" glyph-name="p" horiz-adv-x="505" d="M171 457Q216 486 266 486T352 469T414 421Q469 355 469 247Q469 111 395 46Q338 -4 255 -4Q209 -4 175 11V-199L297 -221V-274H35L23 -221L85 -206V409L28 405L19 465L144 486L171 457ZM175 378V96Q184
86 205 79T249 71T292 78T332 106Q374 150 374 241Q374 327 338 371Q305 410 256 410T175 378Z" />
<glyph unicode="q" glyph-name="q" horiz-adv-x="489" d="M330 22Q290 -4 240 -4T153 13T91 61Q36 127 36 235Q36 371 110 436Q167 486 250 486Q300 486 340 466L397 487L420 468V-182L475 -201V-274H218L207 -211L330 -187V22ZM330 104V386Q321 395 300 403T256
411T213 404T174 376Q131 332 131 241Q131 155 168 111Q200 72 250 72T330 104Z" />
<glyph unicode="r" glyph-name="r" horiz-adv-x="405" d="M178 439Q218 485 282 485Q326 485 356 463T402 409L303 359L272 407Q238 407 211 378Q183 349 183 301V85Q183 81 200 78L313 54V0H43L31 54L93 68V405H38L29 464Q85 473 147 485L178 439Z" />
<glyph unicode="s" glyph-name="s" horiz-adv-x="404" d="M206 486Q238 486 265 477T312 454Q350 428 371 387L269 348L246 399Q226 409 203 409T161 396T142 356Q142 330 167 314T236 279T303 245T340 211Q365 178 365 138T350 71T311 28Q264 -4 197 -4Q141 -4
88 27Q39 57 24 101L127 140L151 82Q174 72 193 72T225 75T247 84Q270 99 270 128Q270 165 225 184T147 220T92 254Q47 292 47 354Q47 415 96 452Q142 486 206 486Z" />
<glyph unicode="t" glyph-name="t" horiz-adv-x="325" d="M292 101Q294 94 313 35Q299 22 272 9T202 -4T130 22T100 107V411H18L4 476L11 486H100V653L180 672L185 657V486H289Q294 486 294 480V411H185V124Q185 92 194 83T218 73T243 76T262 84Q281 92 292 101Z" />
<glyph unicode="u" glyph-name="u" horiz-adv-x="510" d="M349 41Q302 -4 237 -4Q127 -4 90 86Q77 117 77 161V406H22L12 464L136 486L167 453V182Q167 88 222 76Q237 72 250 72T277 75T304 86Q333 102 342 125V406H290L281 464L403 487L432 453V100Q432 67 450
67L468 69L482 24Q454 -4 417 -4Q365 -4 349 41Z" />
<glyph unicode="v" glyph-name="v" horiz-adv-x="467" d="M277 -5H198L47 420H8L0 477L121 486L248 117L371 420H317L310 477L431 486L463 448L277 -5Z" />
<glyph unicode="w" glyph-name="w" horiz-adv-x="704" d="M146 -3L56 416H12L5 478L138 488L216 105L310 475H419L521 104L598 416H553L546 478L657 487L679 452L570 -3H452L357 354L265 -3H146Z" />
<glyph unicode="x" glyph-name="x" horiz-adv-x="464" d="M246 310L342 486H432V423H394L287 241L393 65H436V0H319L218 169L121 0H32L28 63H70L174 242L69 420H28V486H140L246 310Z" />
<glyph unicode="y" glyph-name="y" horiz-adv-x="480" d="M62 -166Q90 -200 121 -200Q153 -200 176 -140Q183 -123 189 -108L211 -49L49 416H9L1 478L125 486L260 81L386 416H334L327 477L448 486L474 452Q384 197 313 15T231 -191T204 -234Q169 -275 114 -275Q70
-275 25 -235L62 -166Z" />
<glyph unicode="z" glyph-name="z" horiz-adv-x="423" d="M272 410Q194 412 115 412L101 334H43V486H380V408L150 75H309L323 157H380V0H43V77L272 410Z" />
<glyph unicode="{" glyph-name="braceleft" horiz-adv-x="337" d="M116 38L118 135Q118 204 49 226Q29 233 7 233V316Q55 316 86 344T118 426L117 464L116 509Q116 609 142 652Q174 706 265 706Q291 706 314 702T339 697T342 696L312 600L241 624Q210 607 210
526L211 426Q211 281 106 273Q211 269 211 121L210 33Q210 -37 224 -63Q230 -74 241 -79L312 -55L342 -151Q283 -162 265 -162Q176 -162 141 -100Q116 -56 116 38Z" />
<glyph unicode="|" glyph-name="bar" horiz-adv-x="247" d="M78 -214V694H169V-214H78Z" />
<glyph unicode="}" glyph-name="braceright" horiz-adv-x="337" d="M-5 696Q55 706 88 706T150 692T195 652Q221 610 221 509L220 464L219 426Q219 372 250 344T330 316V233Q285 233 252 208Q219 182 219 135L221 38Q221 -56 196 -100Q161 -162 72 -162Q51 -162
31 -158T-5 -151L25 -55L96 -79Q127 -65 127 33L126 121Q126 270 232 276Q126 276 126 426L127 526Q127 607 96 624L25 600L-5 696Z" />
<glyph unicode="~" glyph-name="asciitilde" horiz-adv-x="410" d="M391 611Q338 552 287 552Q260 552 230 566T183 586T144 593T107 578T84 544L25 579L26 592Q43 628 63 644Q102 675 143 675Q177 675 220 652L251 637Q265 630 277 630L332 679L391 611Z" />
<glyph unicode="&#xa0;" glyph-name="space" horiz-adv-x="240" />
<glyph unicode="&#xa1;" glyph-name="exclamdown" horiz-adv-x="254" d="M101 374T84 391T67 433T84 475T125 492T168 475T186 433T168 392T126 374ZM91 251H160L197 -164L176 -202L59 -189L91 251Z" />
<glyph unicode="&#xa2;" glyph-name="cent" horiz-adv-x="437" d="M391 42Q347 9 290 0V-210H200V0Q127 15 82 71Q31 133 31 233Q31 347 82 412Q127 468 200 481V686H290V481Q337 472 372 442Q395 423 411 395L312 348L280 406Q260 411 247 411Q126 411 126 235Q126
160 162 116T259 71Q287 71 318 81T369 112L391 42Z" />
<glyph unicode="&#xa3;" glyph-name="sterling" horiz-adv-x="527" d="M150 413L148 507Q148 648 248 680Q277 690 308 690T364 684T409 670Q441 656 465 638L394 547L314 615Q267 613 253 575Q244 551 244 465V413H384Q391 413 391 405V338H241Q234 203 201 136Q256
132 355 96Q374 89 385 89L461 140L500 34Q465 -4 387 -4Q338 -4 291 11T220 34T170 41T127 27T105 -3H32Q31 -1 31 2Q30 5 30 20T40 58T72 99Q112 139 127 203T147 338H58V404L66 413H150Z" />
<glyph unicode="&#xa4;" glyph-name="currency" horiz-adv-x="602" d="M118 222Q80 277 80 346Q80 416 120 473L51 543L120 614L195 539Q243 566 300 566T406 538L482 614L552 543L480 472Q520 415 520 346Q520 278 482 223L552 155L482 84L409 156Q359 127 301
127T192 155L120 84L51 155L118 222ZM175 346Q175 291 210 255T300 219Q355 219 390 255T425 346Q425 401 390 437T300 473Q245 473 210 437T175 346Z" />
<glyph unicode="&#xa5;" glyph-name="yen" horiz-adv-x="610" d="M258 211V232H139V309H251L65 609L25 618V691H232L239 628L178 615L317 395L454 616L395 627V691H585V618L547 608L359 309H468V232H358V211H468V134H358V83L472 63L464 0H156L147 63L258 83V134H139V211H258Z"
/>
<glyph unicode="&#xa6;" glyph-name="brokenbar" horiz-adv-x="258" d="M177 194V-186H81V194H177ZM177 690V310H81V690H177Z" />
<glyph unicode="&#xa7;" glyph-name="section" horiz-adv-x="503" d="M109 406Q52 454 52 523Q52 595 110 642Q170 691 259 691Q345 691 433 661L446 489H377L334 602Q306 612 261 612T186 590T156 539T171 492T210 460T261 434T321 407T382 372T427 332Q459 293
459 236T405 124Q451 80 451 17Q451 -70 382 -119Q321 -161 225 -161Q170 -161 130 -151T48 -124L56 45H124L138 -68Q186 -82 219 -82T273 -78T310 -62Q347 -39 347 -3T326 55T271 93T201 127T130 166Q54 215 54 285T109 406ZM331 177Q354 208 354 231T339 271T299
303T244 331T183 360Q158 335 158 304T188 252T252 216Q309 189 331 177Z" />
<glyph unicode="&#xa8;" glyph-name="dieresis" horiz-adv-x="386" d="M216 609Q216 632 233 650T275 668T317 650T334 609T317 568T276 550T234 568T216 609ZM86 550T69 567T52 608T68 650T109 668T151 650T169 608T151 567T110 550Z" />
<glyph unicode="&#xa9;" glyph-name="copyright" horiz-adv-x="716" d="M260 322T290 291T364 259T445 281L471 216Q423 185 377 185T297 198T238 234Q183 285 183 367Q183 456 238 509Q290 560 371 560Q399 560 417 558L443 553L452 432H405L391 483Q391 483
373 484Q322 484 291 456T260 375ZM120 374Q120 324 138 281T190 206Q259 136 358 136T526 205T596 374T527 542T358 612T190 543T120 374ZM83 187T58 246T32 373T57 500T127 604T230 674T357 700T484 675T588 605T658 501T684 374T659 247T589 143T485 74T358
48T231 73T127 143Z" />
<glyph unicode="&#xaa;" glyph-name="ordfeminine" horiz-adv-x="342" d="M206 443Q180 417 136 417T65 441T38 498T51 550T87 579Q124 596 194 596V605Q194 628 183 635T160 642Q145 642 130 639L126 615L39 632Q48 670 84 692Q115 710 157 710T224 697T260 660T273
606T275 539T276 493T283 484L296 487L311 441Q282 419 252 419T206 443ZM194 546Q118 546 118 507Q118 497 124 488T149 478Q183 478 194 503V546Z" />
<glyph unicode="&#xab;" glyph-name="guillemotleft" horiz-adv-x="461" d="M6 339L219 553L273 499L112 338L273 176L219 123L6 339ZM176 339L368 532L422 478L282 338L422 197L368 144L176 339Z" />
<glyph unicode="&#xac;" glyph-name="logicalnot" horiz-adv-x="588" d="M49 380V444L60 455H513L524 444V242Q524 235 516 235H446V380H49Z" />
<glyph unicode="&#xad;" glyph-name="uni00AD" horiz-adv-x="403" d="M-28 312V398H430V312H-28Z" />
<glyph unicode="&#xae;" glyph-name="registered" horiz-adv-x="716" d="M83 187T58 246T32 373T57 500T127 604T230 674T357 700T484 675T588 605T658 501T684 374T659 247T589 143T485 74T358 48T231 73T127 143ZM120 374Q120 324 138 281T190 206Q259 136 358
136T526 205T596 374T527 542T358 612T190 543T120 374ZM495 436Q495 364 430 333L476 249L507 243V193H419L362 316Q351 314 341 314H321V250L367 239V193H233L229 241L252 249V496L228 501V559H328Q413 559 456 523Q495 491 495 436ZM335 379Q422 379 422 435T339
492H321V379H335Z" />
<glyph unicode="&#xaf;" glyph-name="overscore" horiz-adv-x="442" d="M57 614V690H385V614H57Z" />
<glyph unicode="&#xb0;" glyph-name="degree" horiz-adv-x="305" d="M112 596Q112 556 132 538Q139 531 151 531T171 537T184 554Q193 572 193 596Q193 634 172 652Q164 659 152 659T132 653T120 636Q112 619 112 596ZM33 538T33 596T64 691Q96 729 152 729Q207
729 240 691Q272 653 272 596T241 501T152 463T64 500Z" />
<glyph unicode="&#xb1;" glyph-name="plusminus" horiz-adv-x="455" d="M189 487V604H265V487H392V411H265V282H189V411H63V487H189ZM392 245V169H63V245H392Z" />
<glyph unicode="&#xb2;" glyph-name="twosuperior" horiz-adv-x="300" d="M172 614Q172 647 139 647Q128 647 118 643L103 607L35 628Q49 670 82 689T142 709T187 704T219 687Q251 662 251 627T239 569T211 529T177 498T149 476H201L216 510H258L247 418H56L46
461L81 492Q145 551 158 575T172 614Z" />
<glyph unicode="&#xb3;" glyph-name="threesuperior" horiz-adv-x="295" d="M248 632Q248 580 199 569Q221 564 239 549T258 507T248 463T222 435Q190 414 147 414Q77 414 35 456L66 509Q83 495 99 485T137 474T169 484T180 512Q180 541 109 541V589Q170 589 170
624Q170 632 163 640T146 648Q120 648 118 643L104 613L38 635Q67 709 152 709Q187 709 208 694Q248 665 248 632Z" />
<glyph unicode="&#xb4;" glyph-name="acute" horiz-adv-x="313" d="M168 700L200 708L261 627L93 505L52 549L168 700Z" />
<glyph unicode="&#xb5;" glyph-name="mu" horiz-adv-x="536" d="M183 147Q192 72 268 72Q303 72 338 99Q349 108 355 120V405H306L296 464L418 487L447 453V100Q447 79 451 73T466 67L483 69L497 24Q469 -4 425 -4T363 39Q320 -4 256 -4Q213 -4 179 10L182 -5V-274H90V406H36L27
464L151 486L182 454V416L183 302V147Z" />
<glyph unicode="&#xb6;" glyph-name="paragraph" horiz-adv-x="584" d="M350 133L349 100Q349 60 258 -13L192 77L260 120V299Q150 304 89 358T28 500Q28 575 74 626Q134 691 247 691H528V611H480V0H395V611H350V133Z" />
<glyph unicode="&#xb7;" glyph-name="middot" horiz-adv-x="237" d="M179 384L178 239H59V399H166L179 384Z" />
<glyph unicode="&#xb8;" glyph-name="cedilla" horiz-adv-x="406" d="M141 -82L176 15H275L252 -43Q289 -53 316 -79T344 -156T304 -241T192 -276Q120 -276 72 -249L115 -163L186 -210Q224 -210 243 -183Q250 -173 250 -155T232 -119T171 -102L158 -101L141 -82Z" />
<glyph unicode="&#xb9;" glyph-name="onesuperior" horiz-adv-x="237" d="M87 465V644L43 636L34 683L152 717L163 701V468L199 460V418H52L49 458L87 465Z" />
<glyph unicode="&#xba;" glyph-name="ordmasculine" horiz-adv-x="334" d="M141 636T128 614T114 560T127 508T167 488Q193 488 207 507T221 560T208 614T168 636ZM44 497Q34 525 34 562T44 628T73 674Q109 711 167 711Q226 711 262 674Q300 634 300 563Q300 455
220 424Q195 414 167 414Q76 414 44 497Z" />
<glyph unicode="&#xbb;" glyph-name="guillemotright" horiz-adv-x="462" d="M350 337L189 499L244 553L457 337L244 123L190 176L350 337ZM179 338L40 478L94 532L286 337L94 144L40 197L179 338Z" />
<glyph unicode="&#xbc;" glyph-name="onequarter" horiz-adv-x="656" d="M578 108V55L620 49V0H414L410 44L494 56V108H335V181L490 386H578V174H625V108H578ZM517 691L516 677L183 -11L97 0L94 2L428 691H517ZM175 371Q175 362 211 362V315H46V360L91 367V622L39
614L31 665L164 703L176 695V639Q176 633 175 627V371ZM494 174V290L404 174H494Z" />
<glyph unicode="&#xbd;" glyph-name="onehalf" horiz-adv-x="701" d="M519 691L518 677L185 -11L99 0L96 2L430 691H519ZM395 49Q413 68 440 94T494 152Q556 228 556 281Q556 304 542 312T516 320Q503 320 488 314L464 257L379 297Q401 342 433 365T507 388T573
379T612 354Q643 323 643 274Q643 205 568 122Q547 98 527 76L517 65H606L627 121H672L659 0H408L395 49ZM177 371Q177 362 213 362V315H48V360L93 367V622L41 614L33 665L166 703L178 695V639Q178 633 177 627V371Z" />
<glyph unicode="&#xbe;" glyph-name="threequarters" horiz-adv-x="706" d="M626 108V55L668 49V0H462L458 44L542 56V108H383V181L538 386H626V174H673V108H626ZM572 691L571 677L238 -11L152 0L149 2L482 691H572ZM220 427Q220 482 136 482H123V540H136Q175
540 189 547Q217 561 217 585T199 621T165 633Q148 633 128 625L105 576L29 611Q51 670 120 693Q144 701 171 701T222 695T262 676Q300 649 300 598Q300 568 284 545T239 512Q271 503 288 481T306 428Q306 370 259 338Q218 309 168 309Q87 309 40 344L94 400Q123
377 159 377Q195 377 214 404Q220 413 220 427ZM542 174V290L452 174H542Z" />
<glyph unicode="&#xbf;" glyph-name="questiondown" horiz-adv-x="391" d="M272 487T289 470T307 428T289 386T246 369T205 386T188 428T205 470T247 487Q272 487 289 470ZM211 247L290 248L292 238Q295 223 295 195T283 143T252 101T212 68T172 36Q128 -2 128
-48Q128 -96 170 -116Q185 -123 204 -123Q245 -123 270 -114L296 -19H357L340 -177Q308 -188 274 -197T195 -206Q112 -206 68 -165T23 -62T51 42T121 114T187 171T211 235V247Z" />
<glyph unicode="&#xc0;" glyph-name="Agrave" horiz-adv-x="608" d="M362 59L450 80L402 230H188L142 80L228 60V0H12L-1 62L51 80L253 691H349L562 80L608 62L597 0H362V59ZM189 843L245 925L279 919L419 764L382 720L189 843ZM214 314H374L292 565L214 314Z" />
<glyph unicode="&#xc1;" glyph-name="Aacute" horiz-adv-x="608" d="M-1 62L51 80L253 691H349L562 80L608 62L597 0H362V59L450 80L402 228H188L142 80L228 60V0H12L-1 62ZM332 928L365 932L423 841L228 729L189 780L332 928ZM214 314H374L292 565L214 314Z" />
<glyph unicode="&#xc2;" glyph-name="Acircumflex" horiz-adv-x="608" d="M-1 62L51 80L253 691H349L562 80L608 62L597 0H362V59L450 80L402 228H188L142 80L228 60V0H12L-1 62ZM317 894L473 731L471 726H390L303 785L217 726H137L134 732L291 894H317ZM214 314H374L292
565L214 314Z" />
<glyph unicode="&#xc3;" glyph-name="Atilde" horiz-adv-x="608" d="M-1 62L51 80L253 691H349L562 80L608 62L597 0H362V59L450 80L402 228H188L142 80L228 60V0H12L-1 62ZM504 791Q449 730 404 730Q380 730 363 737T331 754T299 770T257 778T214 761T190 727L134
761V778Q156 827 206 848Q228 857 261 857T323 841T375 808L384 802L445 858L504 791ZM214 314H374L292 565L214 314Z" />
<glyph unicode="&#xc4;" glyph-name="Adieresis" horiz-adv-x="608" d="M-1 62L51 80L253 691H349L562 80L608 62L597 0H362V59L450 80L402 228H188L142 80L228 60V0H12L-1 62ZM214 314H374L292 565L214 314ZM368 809T349 828T329 873T348 918T393 937T438 918T457
873Q457 847 438 828T394 809ZM152 873Q152 899 170 918T214 937T259 918T278 873T259 828T214 809T171 828T152 873Z" />
<glyph unicode="&#xc5;" glyph-name="Aring" horiz-adv-x="604" d="M357 662L560 80L606 62L595 0H360V59L448 80L400 228H186L140 80L226 60V0H10L-3 62L49 80L241 662Q199 691 199 745Q199 787 228 816Q257 845 299 845Q341 845 370 816T400 739T357 662ZM212
314H372L290 565L212 314ZM261 745Q261 727 271 717T299 707T327 717T338 745Q338 763 328 773T300 783T272 773T261 745Z" />
<glyph unicode="&#xc6;" glyph-name="AE" horiz-adv-x="786" d="M-12 62L40 80L296 691H722L742 503H679L641 605H455V395H613V309H455V86H651L686 187H749L729 0H305L295 71L356 84V258H200L129 80L217 60V0H1L-12 62ZM342 612L235 344H356V611L342 612Z" />
<glyph unicode="&#xc7;" glyph-name="Ccedilla" horiz-adv-x="583" d="M281 -76L309 2Q193 23 118 108Q35 202 35 338Q35 504 136 602Q230 691 373 691Q437 691 521 672L540 490H472L433 598Q414 605 368 605T277 584T202 528Q140 456 140 348Q140 233 209 158Q279
82 395 82Q438 82 474 95T526 120L555 41Q500 2 399 -3L385 -39Q420 -48 445 -73T471 -145T433 -225T329 -258Q280 -258 222 -234L216 -232L257 -152L323 -195Q358 -195 376 -170Q383 -161 383 -144T367 -111T309 -94L297 -93L281 -76Z" />
<glyph unicode="&#xc8;" glyph-name="Egrave" horiz-adv-x="539" d="M147 843L204 925L238 919L377 764L341 720L147 843ZM49 691H475L495 503H432L394 605H208V395H366V309H208V86H404L439 187H502L482 0H58L48 71L109 84V611L49 616V691Z" />
<glyph unicode="&#xc9;" glyph-name="Eacute" horiz-adv-x="539" d="M333 928L367 932L424 841L229 729L189 780L333 928ZM49 691H475L495 503H432L394 605H208V395H366V309H208V86H404L439 187H502L482 0H58L48 71L109 84V611L49 616V691Z" />
<glyph unicode="&#xca;" glyph-name="Ecircumflex" horiz-adv-x="539" d="M284 894L440 731L438 726H357L270 785L184 726H104L101 732L258 894H284ZM49 691H475L495 503H432L394 605H208V395H366V309H208V86H404L439 187H502L482 0H58L48 71L109 84V611L49 616V691Z" />
<glyph unicode="&#xcb;" glyph-name="Edieresis" horiz-adv-x="539" d="M49 691H475L495 503H432L394 605H208V395H366V309H208V86H404L439 187H502L482 0H58L48 71L109 84V611L49 616V691ZM342 820T323 839T303 884T322 929T367 948T412 929T431 884Q431 858
412 839T368 820ZM126 884Q126 910 144 929T188 948T233 929T252 884T233 839T188 820T145 839T126 884Z" />
<glyph unicode="&#xcc;" glyph-name="Igrave" horiz-adv-x="320" d="M38 843L95 925L127 919L267 764L231 720L38 843ZM110 610L47 615V691H265L275 616L210 606V81L275 73V0H56L38 72L110 83V610Z" />
<glyph unicode="&#xcd;" glyph-name="Iacute" horiz-adv-x="319" d="M190 928L224 932L281 841L86 729L47 780L190 928ZM109 610L46 615V691H264L274 616L209 606V81L274 73V0H55L46 72L109 83V610Z" />
<glyph unicode="&#xce;" glyph-name="Icircumflex" horiz-adv-x="319" d="M109 610L46 615V691H264L274 616L209 606V81L274 73V0H55L46 72L109 83V610ZM173 894L329 731L327 726H246L159 785L73 726H-7L-10 732L147 894H173Z" />
<glyph unicode="&#xcf;" glyph-name="Idieresis" horiz-adv-x="319" d="M109 610L46 615V691H264L274 616L209 606V81L274 73V0H55L46 72L109 83V610ZM219 735T200 753T181 797T200 842T245 861Q271 861 288 842T306 798T288 754T245 735ZM21 798Q21 824 39 842T82
861T126 843T146 798Q146 772 127 754T82 735T39 753T21 798Z" />
<glyph unicode="&#xd0;" glyph-name="Eth" horiz-adv-x="632" d="M37 379L47 390H109V611L49 617V691H238Q401 691 497 604Q596 515 596 350T501 92Q407 0 242 0H58L48 71L109 85V311H37V379ZM491 354Q491 417 471 465T412 544Q338 607 208 607V390H374Q381 390
381 382V311H208V86H232Q361 86 427 158Q491 226 491 354Z" />
<glyph unicode="&#xd1;" glyph-name="Ntilde" horiz-adv-x="696" d="M194 161L195 90Q195 84 196 81L253 71V0H59L47 71L110 84V609L50 615V691H259L511 96V609L449 617V691H646L659 616L595 604V0H478L194 597V161ZM537 791Q482 730 437 730Q413 730 396 737T364
754T332 770T290 778T247 761T223 727L167 761V778Q189 827 240 848Q261 857 294 857T356 841T408 808L417 802L478 858L537 791Z" />
<glyph unicode="&#xd2;" glyph-name="Ograve" horiz-adv-x="651" d="M148 342Q148 234 192 161Q239 82 325 82Q412 82 460 161Q504 233 504 342Q504 452 460 526Q411 606 325 606Q239 606 192 526Q148 452 148 342ZM325 -4Q189 -4 113 100Q43 196 43 344Q43 492
113 588Q189 692 325 692Q461 692 538 588Q609 491 609 344Q609 197 538 100Q461 -4 325 -4ZM209 843L265 925L298 919L438 764L402 720L209 843Z" />
<glyph unicode="&#xd3;" glyph-name="Oacute" horiz-adv-x="651" d="M148 342Q148 234 192 161Q239 82 325 82Q412 82 460 161Q504 233 504 342Q504 452 460 526Q411 606 325 606Q239 606 192 526Q148 452 148 342ZM325 -4Q189 -4 113 100Q43 196 43 344Q43 492
113 588Q189 692 325 692Q461 692 538 588Q609 491 609 344Q609 197 538 100Q461 -4 325 -4ZM362 928L396 932L453 841L258 729L219 780L362 928Z" />
<glyph unicode="&#xd4;" glyph-name="Ocircumflex" horiz-adv-x="651" d="M148 342Q148 234 192 161Q239 82 325 82Q412 82 460 161Q504 233 504 342Q504 452 460 526Q411 606 325 606Q239 606 192 526Q148 452 148 342ZM325 -4Q189 -4 113 100Q43 196 43 344Q43
492 113 588Q189 692 325 692Q461 692 538 588Q609 491 609 344Q609 197 538 100Q461 -4 325 -4ZM339 894L495 731L494 726H412L325 785L239 726H157L156 732L313 894H339Z" />
<glyph unicode="&#xd5;" glyph-name="Otilde" horiz-adv-x="651" d="M148 342Q148 234 192 161Q239 82 325 82Q412 82 460 161Q504 233 504 342Q504 452 460 526Q411 606 325 606Q239 606 192 526Q148 452 148 342ZM325 -4Q189 -4 113 100Q43 196 43 344Q43 492
113 588Q189 692 325 692Q461 692 538 588Q609 491 609 344Q609 197 538 100Q461 -4 325 -4ZM454 858L513 791Q481 751 441 736Q427 730 409 730T373 737T340 754T309 770T267 778Q226 778 199 727L145 761V778Q167 827 216 848Q238 857 273 857T339 839T393 802L454
858Z" />
<glyph unicode="&#xd6;" glyph-name="Odieresis" horiz-adv-x="651" d="M148 342Q148 234 192 161Q239 82 325 82Q412 82 460 161Q504 233 504 342Q504 452 460 526Q411 606 325 606Q239 606 192 526Q148 452 148 342ZM325 -4Q189 -4 113 100Q43 196 43 344Q43
492 113 588Q189 692 325 692Q461 692 538 588Q609 491 609 344Q609 197 538 100Q461 -4 325 -4ZM397 820T378 839T358 884T377 929T422 948T467 929T486 884Q486 858 467 839T423 820ZM181 884Q181 910 199 929T243 948T288 929T307 884T288 839T243 820T200 839T181
884Z" />
<glyph unicode="&#xd7;" glyph-name="multiply" horiz-adv-x="478" d="M293 353L426 221L373 168L240 300L105 165L52 219L187 354L49 492L102 545L240 407L374 541L428 488L293 353Z" />
<glyph unicode="&#xd8;" glyph-name="Oslash" horiz-adv-x="651" d="M552 751L551 732L502 626Q556 578 582 504T609 352T591 211T538 100Q461 -4 325 -4Q265 -4 220 15L189 -53H95L92 -35L140 69Q91 117 67 189T43 337T60 477T113 588Q189 692 325 692Q376 692
420 676L454 751H552ZM457 529L258 97Q288 82 329 82T404 103T460 161Q504 233 504 343T457 529ZM148 452T148 344T186 169L382 595Q355 606 318 606T247 584T192 526Q148 452 148 344Z" />
<glyph unicode="&#xd9;" glyph-name="Ugrave" horiz-adv-x="638" d="M205 843L261 925L295 919L435 764L398 720L205 843ZM192 233Q192 82 330 82Q422 82 452 162Q463 191 463 234V609L402 618V691H604V617L547 607V230Q547 114 480 52Q421 -4 327 -4Q212 -4 152
57T92 230V610L30 616V691H261V617L192 608V233Z" />
<glyph unicode="&#xda;" glyph-name="Uacute" horiz-adv-x="638" d="M381 928L415 932L471 841L277 729L237 780L381 928ZM192 233Q192 82 330 82Q422 82 452 162Q463 191 463 234V609L402 618V691H604V617L547 607V230Q547 114 480 52Q421 -4 327 -4Q212 -4 152
57T92 230V610L30 616V691H261V617L192 608V233Z" />
<glyph unicode="&#xdb;" glyph-name="Ucircumflex" horiz-adv-x="638" d="M192 233Q192 82 330 82Q422 82 452 162Q463 191 463 234V609L402 618V691H604V617L547 607V230Q547 114 480 52Q421 -4 327 -4Q212 -4 152 57T92 230V610L30 616V691H261V617L192 608V233ZM342
894L498 731L497 726H415L328 785L242 726H160L159 732L316 894H342Z" />
<glyph unicode="&#xdc;" glyph-name="Udieresis" horiz-adv-x="647" d="M411 691H613V617L556 607V230Q556 114 486 52Q425 -4 331 -4Q216 -4 154 57T92 230V610L30 616V691H261V617L192 608V233Q192 162 227 122T334 82Q427 82 460 162Q472 191 472 234V609L411
618V691ZM409 820T390 839T370 884T389 929T434 948T479 929T498 884Q498 858 479 839T435 820ZM193 884Q193 910 211 929T255 948T300 929T319 884T300 839T255 820T212 839T193 884Z" />
<glyph unicode="&#xdd;" glyph-name="Yacute" horiz-adv-x="563" d="M556 616L513 606L333 246V83L449 63L439 0H129L119 63L234 83V252L44 607L4 616V691H217L224 625L157 613L296 357L422 614L361 625V691H556V616ZM345 928L379 932L435 841L241 729L201 780L345 928Z" />
<glyph unicode="&#xde;" glyph-name="Thorn" horiz-adv-x="525" d="M109 610L46 615V691H264L274 616L209 606L211 569Q358 569 431 519T505 362Q505 255 426 200Q356 152 229 152H209V81L324 63V0H55L46 72L109 83V610ZM209 478V238H225Q322 238 361 269T400
354Q400 423 354 450T217 478H209Z" />
<glyph unicode="&#xdf;" glyph-name="germandbls" horiz-adv-x="527" d="M261 656Q175 656 175 550V0H32V58L83 68V531Q83 630 135 684Q182 731 263 731Q333 731 382 692Q436 649 436 578Q436 532 420 503T383 452T347 415T330 381Q334 359 375 338Q506 270 506
163Q506 85 450 36Q400 -8 331 -8Q273 -8 219 16L273 110Q286 99 299 87T323 67Q358 67 384 93T411 165Q411 208 367 244Q348 259 326 272T285 302Q241 337 241 379Q241 408 257 428T292 468T328 513T344 578Q342 610 319 633T261 656Z" />
<glyph unicode="&#xe0;" glyph-name="agrave" horiz-adv-x="460" d="M299 41Q255 -5 187 -5T78 33T36 124T57 208T114 257Q175 288 293 290V361Q293 381 275 397T217 414Q180 414 162 398L142 333L37 364Q60 447 150 476Q182 486 222 486Q300 486 341 447T383
345V89Q383 68 397 68Q404 68 418 75L440 22Q409 -4 371 -4Q314 -4 299 41ZM168 74T180 72T207 69T237 75T264 91Q285 107 293 131V217Q227 217 196 207T148 180T131 139T138 102T157 82ZM125 632L185 703L216 695L323 537L286 500L125 632Z" />
<glyph unicode="&#xe1;" glyph-name="aacute" horiz-adv-x="460" d="M299 41Q255 -5 187 -5T78 33T36 124T57 208T114 257Q175 288 293 290V361Q293 381 275 397T217 414Q180 414 162 398L142 333L37 364Q60 447 150 476Q182 486 222 486Q300 486 341 447T383
345V89Q383 68 397 68Q404 68 418 75L440 22Q409 -4 371 -4Q314 -4 299 41ZM168 74T180 72T207 69T237 75T264 91Q285 107 293 131V217Q227 217 196 207T148 180T131 139T138 102T157 82ZM247 722L279 730L339 650L173 529L132 573L247 722Z" />
<glyph unicode="&#xe2;" glyph-name="acircumflex" horiz-adv-x="460" d="M60 541L193 700H226L360 540L354 529H276L209 581L142 529H65L60 541ZM299 41Q255 -5 187 -5T78 33T36 124T57 208T114 257Q175 288 293 290V361Q293 381 275 397T217 414Q180 414 162
398L142 333L37 364Q60 447 150 476Q182 486 222 486Q300 486 341 447T383 345V89Q383 68 397 68Q404 68 418 75L440 22Q409 -4 371 -4Q314 -4 299 41ZM168 74T180 72T207 69T237 75T264 91Q285 107 293 131V217Q227 217 196 207T148 180T131 139T138 102T157 82Z"
/>
<glyph unicode="&#xe3;" glyph-name="atilde" horiz-adv-x="460" d="M178 596Q142 596 123 551L70 585Q70 613 96 641Q128 676 176 676Q212 676 262 647Q274 640 285 636L286 633L332 680L388 614Q367 591 345 575T299 559T261 565T233 577T206 590T178 596ZM299
41Q255 -5 187 -5T78 33T36 124T57 208T114 257Q175 288 293 290V361Q293 381 275 397T217 414Q180 414 162 398L142 333L37 364Q60 447 150 476Q182 486 222 486Q300 486 341 447T383 345V89Q383 68 397 68Q404 68 418 75L440 22Q409 -4 371 -4Q314 -4 299 41ZM168
74T180 72T207 69T237 75T264 91Q285 107 293 131V217Q227 217 196 207T148 180T131 139T138 102T157 82Z" />
<glyph unicode="&#xe4;" glyph-name="adieresis" horiz-adv-x="460" d="M69 624Q69 650 87 668T131 686Q157 686 175 668T193 624Q193 598 175 580T131 562Q105 562 87 580T69 624ZM230 624Q230 650 248 668T292 686Q318 686 336 668T354 624Q354 598 336 580T292
562Q266 562 248 580T230 624ZM299 41Q255 -5 187 -5T78 33T36 124T57 208T114 257Q175 288 293 290V361Q293 381 275 397T217 414Q180 414 162 398L142 333L37 364Q60 447 150 476Q182 486 222 486Q300 486 341 447T383 345V89Q383 68 397 68Q404 68 418 75L440
22Q409 -4 371 -4Q314 -4 299 41ZM168 74T180 72T207 69T237 75T264 91Q285 107 293 131V217Q227 217 196 207T148 180T131 139T138 102T157 82Z" />
<glyph unicode="&#xe5;" glyph-name="aring" horiz-adv-x="460" d="M190 630Q190 615 200 605T226 594Q241 594 252 604T263 630Q263 645 252 655T226 666Q211 666 201 656T190 630ZM131 630Q131 670 158 697T226 725T294 698T322 630Q322 590 295 563T227 535T159
562T131 630ZM299 41Q255 -5 187 -5T78 33T36 124T57 208T114 257Q175 288 293 290V361Q293 381 275 397T217 414Q180 414 162 398L142 333L37 364Q60 447 150 476Q182 486 222 486Q300 486 341 447T383 345V89Q383 68 397 68Q404 68 418 75L440 22Q409 -4 371
-4Q314 -4 299 41ZM168 74T180 72T207 69T237 75T264 91Q285 107 293 131V217Q227 217 196 207T148 180T131 139T138 102T157 82Z" />
<glyph unicode="&#xe6;" glyph-name="ae" horiz-adv-x="704" d="M362 422Q426 486 517 486Q584 486 629 452Q676 417 676 355Q676 251 540 217Q492 205 425 205H407Q398 205 388 206Q398 112 468 82Q493 71 528 71T592 85T632 108L651 40Q639 27 603 12T514 -4T412
18T330 89Q304 27 241 4Q218 -5 189 -5Q119 -5 78 33T36 123T58 207T118 256Q184 290 293 290V361Q293 381 275 397T217 414Q180 414 162 398L142 333L37 364Q60 447 150 476Q182 486 222 486Q319 486 362 422ZM293 217Q131 217 131 134Q131 99 157 82Q175 69 198
69T237 75T264 91Q285 107 293 131V217ZM560 399T547 405T513 411T473 403T435 378Q395 340 388 280H425Q491 280 521 289T566 313T581 344T578 371T568 390Z" />
<glyph unicode="&#xe7;" glyph-name="ccedilla" horiz-adv-x="431" d="M374 112L396 42Q351 6 285 -2L273 -37Q299 -44 320 -62T341 -119Q341 -157 311 -182T226 -208Q185 -208 138 -189L171 -123L225 -160Q255 -160 270 -139Q275 -131 275 -120Q275 -76 204 -76L192
-61L213 -1Q137 12 90 68Q36 131 36 233Q36 364 106 432Q162 486 251 486Q316 486 364 452Q403 425 416 395L317 348L285 406Q265 411 252 411Q131 411 131 235Q131 160 167 116T264 71Q292 71 323 81T374 112Z" />
<glyph unicode="&#xe8;" glyph-name="egrave" horiz-adv-x="453" d="M360 596L319 553L155 673L214 752L246 744L360 596ZM408 354Q408 384 396 409T362 451Q317 486 251 486Q161 486 101 422Q35 353 35 237Q35 119 100 56Q161 -4 263 -4Q332 -4 389 29Q401 36
405 40L383 110Q360 87 312 76Q293 71 266 71T216 80T176 104Q146 132 135 184Q289 186 357 240Q408 281 408 354ZM254 410Q283 410 298 392T313 346T294 300T247 272Q203 258 130 258Q136 333 171 374Q203 410 254 410Z" />
<glyph unicode="&#xe9;" glyph-name="eacute" horiz-adv-x="444" d="M408 354Q408 323 398 294T357 240Q289 186 135 184Q151 105 216 80Q239 71 266 71T312 75T345 86Q372 99 383 110L405 40Q394 29 368 18Q268 -23 172 11Q85 42 52 132Q35 177 35 237T53 344T101
422Q161 486 251 486Q317 486 362 451Q408 414 408 354ZM313 374T298 392T255 410T207 401T171 374Q136 333 130 258Q203 258 239 269T294 299T313 346ZM271 722L303 730L363 650L197 529L156 573L271 722Z" />
<glyph unicode="&#xea;" glyph-name="ecircumflex" horiz-adv-x="453" d="M97 541L230 700H263L397 540L391 529H313L246 581L179 529H102L97 541ZM408 354Q408 323 398 294T357 240Q289 186 135 184Q151 105 216 80Q239 71 266 71T312 75T345 86Q372 99 383 110L405
40Q394 29 368 18Q268 -23 172 11Q85 42 52 132Q35 177 35 237T53 344T101 422Q161 486 251 486Q317 486 362 451Q408 414 408 354ZM313 374T298 392T255 410T207 401T171 374Q136 333 130 258Q203 258 239 269T294 299T313 346Z" />
<glyph unicode="&#xeb;" glyph-name="edieresis" horiz-adv-x="453" d="M137 571T122 587T106 626T121 665T160 681T200 665T216 626T200 587T160 571ZM287 571T272 587T256 626T271 665T310 681T350 665T366 626T350 587T310 571ZM408 354Q408 323 398 294T357
240Q289 186 135 184Q151 105 216 80Q239 71 266 71T312 75T345 86Q372 99 383 110L405 40Q394 29 368 18Q268 -23 172 11Q85 42 52 132Q35 177 35 237T53 344T101 422Q161 486 251 486Q317 486 362 451Q408 414 408 354ZM313 374T298 392T255 410T207 401T171
374Q136 333 130 258Q203 258 239 269T294 299T313 346Z" />
<glyph unicode="&#xec;" glyph-name="igrave" horiz-adv-x="268" d="M195 531L29 651L89 731L121 723L235 574L195 531ZM184 454L152 486L29 464L39 404L94 408V68L32 54L43 0H243V54L184 70V454Z" />
<glyph unicode="&#xed;" glyph-name="iacute" horiz-adv-x="268" d="M147 722L179 730L238 650L73 530L32 573L147 722ZM184 70L243 54V0H43L32 54L94 68V408L39 404L29 464L152 486L184 454V70Z" />
<glyph unicode="&#xee;" glyph-name="icircumflex" horiz-adv-x="268" d="M114 695H138L263 545L258 537H191L125 591L58 537H-7L-11 544L114 695ZM184 70L243 54V0H43L32 54L94 68V408L39 404L29 464L152 486L184 454V70Z" />
<glyph unicode="&#xef;" glyph-name="idieresis" horiz-adv-x="268" d="M170 571T154 587T138 626T154 665T193 681T232 665T249 626T232 587T193 571ZM30 571T15 587T-1 626T14 665T53 681T93 665T109 626T93 587T53 571ZM184 70L243 54V0H43L32 54L94 68V408L39
404L29 464L152 486L184 454V70Z" />
<glyph unicode="&#xf0;" glyph-name="eth" horiz-adv-x="511" d="M225 582Q184 613 124 641L161 730Q236 701 309 640L416 713L465 633L368 578Q460 466 469 320V300Q469 175 417 92Q357 -4 247 -4Q143 -4 86 66Q35 127 35 214Q35 307 88 374Q144 442 231 442Q314
442 358 396Q336 472 282 530L176 470L144 527L225 582ZM248 82Q343 82 367 216Q367 285 328 324Q295 357 241 357Q185 357 156 313Q130 275 130 214T163 118T248 82Z" />
<glyph unicode="&#xf1;" glyph-name="ntilde" horiz-adv-x="530" d="M181 449Q229 486 301 486Q405 486 438 410Q449 384 449 346V71L509 54V0H310L298 54L359 68V331Q359 376 338 392T286 409T226 396T184 370V70L242 54V0H43L31 54L94 68V408L39 404L29 464Q42
466 59 469T93 476T126 481T152 486L181 449ZM228 596Q192 596 173 551L120 585Q120 613 146 641Q178 676 226 676Q262 676 312 647Q324 640 335 636L336 633L382 680L438 614Q417 591 395 575T349 559T311 565T283 577T256 590T228 596Z" />
<glyph unicode="&#xf2;" glyph-name="ograve" horiz-adv-x="495" d="M322 530L156 651L216 731L248 723L362 573L322 530ZM131 237Q131 359 197 398Q219 411 248 411Q302 411 333 365T365 235T332 112T247 71T163 112T131 237ZM36 245Q36 187 51 142T96 64Q155
-4 248 -4Q337 -4 396 60Q460 127 460 243Q460 354 400 420Q340 486 248 486Q158 486 100 424Q36 357 36 245Z" />
<glyph unicode="&#xf3;" glyph-name="oacute" horiz-adv-x="495" d="M274 722L306 730L366 650L200 529L159 573L274 722ZM131 154T163 113T247 71T332 111T365 235T334 364T248 411Q191 411 160 362Q131 315 131 235ZM36 245Q36 303 53 348T100 424Q158 486 248
486Q340 486 400 420Q460 354 460 243Q460 127 396 60Q337 -4 248 -4Q155 -4 96 64Q36 131 36 245Z" />
<glyph unicode="&#xf4;" glyph-name="ocircumflex" horiz-adv-x="494" d="M234 695H258L383 545L379 537H313L246 591L179 537H114L109 544L234 695ZM131 154T163 113T247 71T332 111T365 235T334 364T248 411Q191 411 160 362Q131 315 131 235ZM36 245Q36 303
53 348T100 424Q158 486 248 486Q340 486 400 420Q460 354 460 243Q460 127 396 60Q337 -4 248 -4Q155 -4 96 64Q36 131 36 245Z" />
<glyph unicode="&#xf5;" glyph-name="otilde" horiz-adv-x="494" d="M357 679L413 613Q391 590 370 575T324 559T285 564T257 577Q224 595 202 595T167 581T148 550L94 584Q94 612 120 640Q154 676 200 676Q235 676 286 647Q299 640 310 636L311 633L357 679ZM131
154T163 113T247 71T332 111T365 235T334 364T248 411Q191 411 160 362Q131 315 131 235ZM36 245Q36 303 53 348T100 424Q158 486 248 486Q340 486 400 420Q460 354 460 243Q460 127 396 60Q337 -4 248 -4Q155 -4 96 64Q36 131 36 245Z" />
<glyph unicode="&#xf6;" glyph-name="odieresis" horiz-adv-x="494" d="M301 571T286 587T270 626T285 665T324 681T364 665T380 626T364 587T324 571ZM151 571T136 587T120 626T135 665T174 681T214 665T230 626T214 587T174 571ZM131 154T163 113T247 71T332
111T365 235T334 364T248 411Q191 411 160 362Q131 315 131 235ZM36 245Q36 303 53 348T100 424Q158 486 248 486Q340 486 400 420Q460 354 460 243Q460 127 396 60Q337 -4 248 -4Q155 -4 96 64Q36 131 36 245Z" />
<glyph unicode="&#xf7;" glyph-name="divide" horiz-adv-x="419" d="M191 83T176 99T160 138T175 177T214 193T254 177T270 138T254 99T214 83ZM191 392T176 408T160 447T175 486T214 502T254 486T270 447T254 408T214 392ZM374 330V254H45V330H374Z" />
<glyph unicode="&#xf8;" glyph-name="oslash" horiz-adv-x="494" d="M114 45Q36 112 36 243Q36 356 100 424Q158 486 248 486Q278 486 309 477L362 593H447Q447 593 446 580L382 438Q459 370 459 243Q459 127 396 60Q336 -4 248 -4Q218 -4 186 5L140 -98H58L55
-85L114 45ZM299 71T331 111T364 228T341 348L218 75Q230 71 248 71Q299 71 331 111ZM277 405Q263 409 248 409Q190 409 161 361T131 241T152 130L277 405Z" />
<glyph unicode="&#xf9;" glyph-name="ugrave" horiz-adv-x="510" d="M450 67Q432 67 432 100V453L403 487L281 464L290 406H342V125Q333 102 304 86Q278 72 258 72T222 75T194 90Q167 116 167 182V453L136 486L12 464L22 406H77V161Q77 78 125 34Q167 -4 237 -4Q302
-4 349 41Q365 -4 417 -4Q454 -4 482 24L468 69L450 67ZM280 530L115 651L174 731L206 723L321 573L280 530Z" />
<glyph unicode="&#xfa;" glyph-name="uacute" horiz-adv-x="510" d="M349 41Q302 -4 237 -4Q127 -4 90 86Q77 117 77 161V406H22L12 464L136 486L167 453V182Q167 88 222 76Q237 72 250 72T277 75T304 86Q333 102 342 125V406H290L281 464L403 487L432 453V100Q432
67 450 67L468 69L482 24Q454 -4 417 -4Q365 -4 349 41ZM264 722L296 730L356 650L190 529L149 573L264 722Z" />
<glyph unicode="&#xfb;" glyph-name="ucircumflex" horiz-adv-x="510" d="M349 41Q302 -4 237 -4Q127 -4 90 86Q77 117 77 161V406H22L12 464L136 486L167 453V182Q167 88 222 76Q237 72 250 72T277 75T304 86Q333 102 342 125V406H290L281 464L403 487L432 453V100Q432
67 450 67L468 69L482 24Q454 -4 417 -4Q365 -4 349 41ZM223 695H247L372 545L367 537H300L234 591L167 537H102L98 544L223 695Z" />
<glyph unicode="&#xfc;" glyph-name="udieresis" horiz-adv-x="510" d="M156 571T141 587T125 626T140 665T179 681T219 665T235 626T219 587T179 571ZM306 571T291 587T275 626T290 665T329 681T369 665T385 626T369 587T329 571ZM349 41Q302 -4 237 -4Q127 -4
90 86Q77 117 77 161V406H22L12 464L136 486L167 453V182Q167 88 222 76Q237 72 250 72T277 75T304 86Q333 102 342 125V406H290L281 464L403 487L432 453V100Q432 67 450 67L468 69L482 24Q454 -4 417 -4Q365 -4 349 41Z" />
<glyph unicode="&#xfd;" glyph-name="yacute" horiz-adv-x="480" d="M62 -166Q90 -200 121 -200Q153 -200 176 -140Q183 -123 189 -108L211 -49L49 416H9L1 478L125 486L260 81L386 416H334L327 477L448 486L474 452Q384 197 313 15T231 -191T204 -234Q169 -275
114 -275Q70 -275 25 -235L62 -166ZM253 722L285 730L345 650L179 529L138 573L253 722Z" />
<glyph unicode="&#xfe;" glyph-name="thorn" horiz-adv-x="492" d="M159 12Q161 -20 161 -33V-194L281 -218V-273H22L15 -219L70 -206V660L13 656L4 716L131 735L161 703V459Q203 486 253 486T339 469T401 421Q456 355 456 247Q456 111 382 46Q325 -4 242 -4Q192
-4 159 12ZM242 409Q218 409 196 400T161 376V96Q170 86 192 79T236 71T279 78T318 106Q361 150 361 241Q361 325 324 370Q294 409 242 409Z" />
<glyph unicode="&#xff;" glyph-name="ydieresis" horiz-adv-x="478" d="M58 -166Q86 -200 117 -200Q149 -200 172 -140Q179 -123 185 -108L207 -49L45 420H8L0 478L121 486L256 81L385 420H332L325 477L447 486L472 452Q392 226 334 77T257 -120T227 -191T200
-234Q165 -275 110 -275Q66 -275 21 -235L58 -166ZM136 571T121 587T105 626T120 665T159 681T199 665T215 626T199 587T159 571ZM286 571T271 587T255 626T270 665T309 681T349 665T365 626T349 587T309 571Z" />
<glyph unicode="&#x2013;" glyph-name="endash" d="M54 376H425V301H54V376Z" />
<glyph unicode="&#x2014;" glyph-name="emdash" horiz-adv-x="632" d="M54 376H575V301H54V376Z" />
<glyph unicode="&#x2018;" glyph-name="quoteleft" horiz-adv-x="201" d="M146 702L122 588L176 486L79 441Q38 507 38 584Q38 617 51 657T87 732L142 716L146 702Z" />
<glyph unicode="&#x2019;" glyph-name="quoteright" horiz-adv-x="199" d="M159 731Q170 687 170 655T162 591T140 534Q116 485 82 451L30 481V495L80 597L54 712L159 731Z" />
<glyph unicode="&#x201a;" glyph-name="quotesinglbase" horiz-adv-x="212" d="M36 -97L77 7L40 119L139 148Q144 140 153 113T163 51T155 -11T134 -64Q112 -109 81 -140L36 -109V-97Z" />
<glyph unicode="&#x201c;" glyph-name="quotedblleft" horiz-adv-x="334" d="M189 453Q178 497 178 529T185 593T202 650Q219 695 246 733L298 703V689L268 587L294 472L189 453ZM164 689L134 587L160 452L55 431Q54 435 53 446T49 472Q44 509 44 529Q44 630 103
733L164 703V689Z" />
<glyph unicode="&#x201d;" glyph-name="quotedblright" horiz-adv-x="329" d="M148 701Q159 657 159 625T152 561T135 504Q118 459 91 421L39 451V465L69 567L43 682L148 701ZM173 465L203 567L177 702L282 723Q283 719 284 708T288 682Q293 645 293 625Q293 524
234 421L173 451V465Z" />
<glyph unicode="&#x201e;" glyph-name="quotedblbase" horiz-adv-x="346" d="M274 156Q297 87 297 23Q297 -50 246 -126Q231 -148 216 -162L161 -132V-120L212 -15L175 127L274 156ZM33 -109L74 -15L37 97L132 126Q136 117 145 85T154 21T147 -35T127 -81Q105
-121 74 -152L33 -121V-109Z" />
<glyph unicode="&#x2022;" glyph-name="bullet" horiz-adv-x="259" d="M43 383Q43 419 68 444T129 470Q165 470 190 445T216 383Q216 347 191 322T129 297Q93 297 68 322T43 383Z" />
<glyph unicode="&#x2039;" glyph-name="guilsinglleft" horiz-adv-x="349" d="M11 314L294 530L299 528V437L120 300L299 164V73L293 70L11 288V314Z" />
<glyph unicode="&#x203a;" glyph-name="guilsinglright" horiz-adv-x="350" d="M338 288L56 70L50 73V164L229 300L50 437V528L55 530L338 314V288Z" />
</font>
</defs>
</svg>
