<?xml version="1.0" standalone="no"?>
<!DOCTYPE svg PUBLIC "-//W3C//DTD SVG 1.1//EN" "http://www.w3.org/Graphics/SVG/1.1/DTD/svg11.dtd">
<svg xmlns="http://www.w3.org/2000/svg">
<defs >
<font id="Cairo" horiz-adv-x="639" ><font-face
    font-family="Cairo Black"
    units-per-em="1000"
    panose-1="0 0 10 0 0 0 0 0 0 0"
    ascent="1303"
    descent="-571"
    alphabetic="0" />
<glyph unicode=" " glyph-name="space" horiz-adv-x="220" />
<glyph unicode="!" glyph-name="exclam" horiz-adv-x="302" d="M57 672H246L226 265H76L57 672ZM58 194H243V0H58V194Z" />
<glyph unicode="&quot;" glyph-name="quotedbl" horiz-adv-x="436" d="M49 672H214L205 420H53L49 672ZM225 672H390L382 420H230L225 672Z" />
<glyph unicode="#" glyph-name="numbersign" horiz-adv-x="560" d="M97 132H11V276H97V362H11V506H97V656H245V506H315V656H463V506H549V362H463V276H549V132H463V0H315V132H245V0H97V132ZM315 276V362H245V276H315Z" />
<glyph unicode="$" glyph-name="dollar" horiz-adv-x="560" d="M181 -131T181 -127L195 -8Q148 -2 124 3T73 17L51 22L67 155Q150 144 215 140L230 263Q126 298 84 347T41 466Q41 562 104 617T274 673L281 674L299 818H389L370 666Q386 665 429 659T491 647L505
643L491 507Q414 515 350 519L337 406Q405 381 443 356T499 297T517 209Q517 99 451 43T278 -14H286L271 -134Q181 -131 181 -127ZM261 520Q241 516 227 503T213 477Q213 462 252 438L261 520ZM325 146T335 160T345 187Q345 209 316 233L305 139Q325 146 335 160Z"
/>
<glyph unicode="%" glyph-name="percent" horiz-adv-x="560" d="M105 -11L360 711L450 678L195 -41L105 -11ZM67 374T36 411T5 523Q5 673 131 673Q258 673 258 523Q258 448 227 411T131 374Q67 374 36 411ZM135 474T135 522Q135 544 134 559T131 574Q127 574 127
522Q127 474 131 474Q135 474 135 522ZM364 -13T333 24T301 135Q301 286 428 286Q492 286 523 249T555 135Q555 61 525 24T429 -13Q364 -13 333 24ZM429 86T430 100T432 136Q432 157 431 171T428 186Q427 183 426 170T425 135Q425 86 428 86Q429 86 430 100Z" />
<glyph unicode="&amp;" glyph-name="ampersand" horiz-adv-x="710" d="M156 -13T93 41T30 199Q30 266 61 315T164 395Q120 448 106 481T92 548Q92 634 151 676T318 719Q426 719 484 677T542 545Q542 491 515 447T416 342L478 278Q481 282 486 326T491 384L659
379Q645 276 605 180L706 98L609 -14L513 56Q471 31 447 19T383 -3T285 -13Q156 -13 93 41ZM346 469T355 489T365 528Q365 550 353 561T319 573Q294 573 281 561T268 530Q268 511 278 494T313 450L322 438Q346 469 355 489ZM304 141T364 146L396 148L248 296Q229
280 218 255T206 206Q206 174 228 158T292 141Q304 141 364 146Z" />
<glyph unicode="&apos;" glyph-name="quotesingle" horiz-adv-x="260" d="M49 672H214L205 420H53L49 672Z" />
<glyph unicode="(" glyph-name="parenleft" horiz-adv-x="337" d="M126 -100T97 -27T49 137T29 300Q29 420 66 546T153 750H317Q285 671 254 529T222 305Q222 206 246 102T317 -125H153Q126 -100 97 -27Z" />
<glyph unicode=")" glyph-name="parenright" horiz-adv-x="337" d="M20 -125Q116 123 116 306Q116 382 84 528T20 750H184Q239 657 273 535T308 300Q308 225 289 135T240 -28T184 -125H20Z" />
<glyph unicode="*" glyph-name="asterisk" horiz-adv-x="428" d="M189 465L88 386L31 458L134 535L34 606L90 683L188 613L226 731L318 700L281 581H400V491H283L319 374L230 348L189 465Z" />
<glyph unicode="+" glyph-name="plus" horiz-adv-x="560" d="M202 174H47V328H202V478H356V328H513V174H356V22H202V174Z" />
<glyph unicode="," glyph-name="comma" horiz-adv-x="290" d="M63 157H255L149 -123H11L63 157Z" />
<glyph unicode="-" glyph-name="hyphen" horiz-adv-x="388" d="M48 338H339V182H48V338Z" />
<glyph unicode="." glyph-name="period" horiz-adv-x="283" d="M49 201H234V0H49V201Z" />
<glyph unicode="/" glyph-name="slash" horiz-adv-x="502" d="M30 7L322 725L474 671L182 -47L30 7Z" />
<glyph unicode="0" glyph-name="zero" horiz-adv-x="560" d="M146 -10T80 74T14 333Q14 509 80 592T280 676Q416 676 481 593T547 333Q547 157 482 74T280 -10Q146 -10 80 74ZM326 145T344 188T363 333Q363 436 345 479T280 522Q234 522 216 479T197 333Q197 231
215 188T280 145Q326 145 344 188Z" />
<glyph unicode="1" glyph-name="one" horiz-adv-x="560" d="M259 457L134 379L52 512L275 660H437V0H259V457Z" />
<glyph unicode="2" glyph-name="two" horiz-adv-x="560" d="M62 152L169 255Q230 318 258 351T294 406T303 453Q303 516 243 516Q176 516 96 507L73 506L66 641Q162 673 273 673Q380 673 433 623T487 476Q487 424 474 384T427 304T333 209L258 155H494V0H62V152Z" />
<glyph unicode="3" glyph-name="three" horiz-adv-x="560" d="M221 -13T181 -6T86 17L54 25L61 158Q161 143 237 143Q284 143 300 157T316 193Q316 224 295 240T246 255H113V401H246Q272 401 289 424T306 475Q306 519 213 519Q183 519 121 509L92 505L66 502L55
631Q145 673 257 673Q377 673 433 629T490 492Q490 434 477 403T427 337Q457 316 472 300T493 261T500 201Q500 92 444 40T262 -13Q221 -13 181 -6Z" />
<glyph unicode="4" glyph-name="four" horiz-adv-x="560" d="M293 96H40V231L186 660H384L216 250H293V421H472V250H521V96H472V0H293V96Z" />
<glyph unicode="5" glyph-name="five" horiz-adv-x="560" d="M240 -14T173 -3T79 18L41 28L60 158Q179 141 268 141Q298 141 314 157T331 206Q331 237 319 253T284 270L245 271Q236 272 217 272Q199 272 178 269H167L66 294L84 660H499V507H221L205 412Q256 424
298 424Q515 424 515 223Q515 111 455 49T285 -14Q240 -14 173 -3Z" />
<glyph unicode="6" glyph-name="six" horiz-adv-x="560" d="M154 -13T90 77T25 340Q25 673 311 673Q390 673 487 645L521 636L505 502Q392 519 327 519Q265 519 237 494T208 414L227 417Q276 430 303 430Q422 430 480 378T539 211Q539 -13 278 -13Q154 -13 90
77ZM321 141T338 159T355 211Q355 244 341 260T292 276Q272 276 258 275T220 266L207 264Q207 198 228 170T292 141Q321 141 338 159Z" />
<glyph unicode="7" glyph-name="seven" horiz-adv-x="560" d="M107 31L316 466V502H64V660H494V467L271 -13L107 31Z" />
<glyph unicode="8" glyph-name="eight" horiz-adv-x="560" d="M25 -13T25 168Q25 225 38 260T88 337Q55 373 46 403T36 487Q36 571 103 623Q172 673 278 673Q350 673 405 650T492 585T524 486Q524 445 522 424T510 384T477 337Q511 293 522 262T534 179Q534 83
462 35T277 -13Q25 -13 25 168ZM321 403Q332 439 332 457Q332 513 280 513Q256 513 242 498T228 451Q228 439 245 403H321ZM342 147T342 209Q342 219 337 232T321 253H245Q232 244 225 233T217 213Q217 147 280 147Q342 147 342 209Z" />
<glyph unicode="9" glyph-name="nine" horiz-adv-x="560" d="M164 -13T74 14L39 23L55 158Q168 141 249 141Q351 141 349 258L314 248Q265 233 254 233Q143 233 81 289T19 451Q19 558 86 615T283 673Q403 673 467 585T532 323Q532 150 461 69T249 -13Q164 -13
74 14ZM306 388T341 400L350 402Q351 461 331 490T270 519Q203 519 203 451Q203 388 270 388Q306 388 341 400Z" />
<glyph unicode=":" glyph-name="colon" horiz-adv-x="282" d="M49 468H234V267H49V468ZM49 201H234V0H49V201Z" />
<glyph unicode=";" glyph-name="semicolon" horiz-adv-x="300" d="M57 468H242V267H57V468ZM66 157H257L152 -123H13L66 157Z" />
<glyph unicode="&lt;" glyph-name="less" horiz-adv-x="560" d="M69 181V321L469 490V316L260 255L469 182V8L69 181Z" />
<glyph unicode="=" glyph-name="equal" horiz-adv-x="560" d="M54 441H506V286H54V441ZM54 218H506V62H54V218Z" />
<glyph unicode="&gt;" glyph-name="greater" horiz-adv-x="560" d="M92 182L301 255L92 316V490L491 321V181L92 8V182Z" />
<glyph unicode="?" glyph-name="question" horiz-adv-x="430" d="M85 267T85 339Q85 348 97 364T127 392Q129 394 149 408Q189 437 206 455T224 494Q224 511 210 521T171 531Q103 531 34 519L26 647Q102 685 218 685Q309 685 357 646T405 532Q405 472 399 439T378
384T329 339Q298 320 282 302T265 256V228H128Q85 267 85 339ZM99 193H284V-1H99V193Z" />
<glyph unicode="@" glyph-name="at" horiz-adv-x="970" d="M387 -213T303 -189T155 -113Q29 -2 29 261Q29 408 88 514T256 677T506 733Q647 733 746 683T898 536T951 305V300Q951 161 898 83T744 4Q699 4 661 18T603 57Q534 3 473 3Q370 3 324 67T278 258Q278
381 321 439T461 497Q492 497 523 479L536 472V483H710V312Q710 195 712 188Q713 167 718 158T737 149Q763 149 771 186T779 300V306Q779 448 712 514T503 580Q410 580 343 540T239 424T202 249Q202 94 272 17T502 -60L645 -52L652 -202Q572 -213 502 -213Q387
-213 303 -189ZM524 156T540 167Q536 199 536 228V341Q516 344 503 344Q481 344 471 337T458 311T454 256Q454 156 488 156Q524 156 540 167Z" />
<glyph unicode="A" glyph-name="A" horiz-adv-x="606" d="M401 86H205L192 0H12L141 672H465L594 0H414L401 86ZM325 526H281L235 240H371L325 526Z" />
<glyph unicode="B" glyph-name="B" horiz-adv-x="604" d="M67 672H344Q455 672 507 629T560 485Q560 438 547 406T495 345Q532 328 550 294T568 204Q568 103 510 52T342 0H67V672ZM332 410Q355 410 367 423T380 464Q380 490 368 505T335 521H245V410H332ZM333
151Q362 151 374 162T387 204Q387 232 378 246T336 261H245V151H333Z" />
<glyph unicode="C" glyph-name="C" horiz-adv-x="542" d="M200 -13T142 24T61 134T39 331Q39 475 64 551T144 656T294 685Q392 685 508 655L503 515Q409 528 351 528Q298 528 270 512T232 460T221 359Q221 326 222 308Q225 234 234 201T266 156T340 144Q409 144
503 155L506 11Q398 -13 309 -13Q200 -13 142 24Z" />
<glyph unicode="D" glyph-name="D" horiz-adv-x="633" d="M412 672T475 649T567 557T595 343Q595 213 574 142T486 36T284 0H67V672H284Q412 672 475 649ZM340 155T367 177T402 242T410 361Q410 423 401 455T365 502T283 517H245V155H283Q340 155 367 177Z" />
<glyph unicode="E" glyph-name="E" horiz-adv-x="555" d="M245 517V412H459V260H245V155H519V0H67V672H519V517H245Z" />
<glyph unicode="F" glyph-name="F" horiz-adv-x="534" d="M245 517V364H459V209H245V0H67V672H514V517H245Z" />
<glyph unicode="G" glyph-name="G" horiz-adv-x="608" d="M212 -13T151 23T63 135T37 341Q37 467 65 542T153 651T315 685Q408 685 521 664L558 656L554 520Q450 528 370 528Q300 528 268 500T228 427T220 303Q220 238 229 204T264 156T339 141H382V217H356V371H558V9Q398
-13 322 -13Q212 -13 151 23Z" />
<glyph unicode="H" glyph-name="H" horiz-adv-x="678" d="M612 672V0H432V261H245V0H67V672H245V415H432V672H612Z" />
<glyph unicode="I" glyph-name="I" horiz-adv-x="313" d="M67 672H245V0H67V672Z" />
<glyph unicode="J" glyph-name="J" horiz-adv-x="311" d="M20 85Q39 85 55 98T71 131V672H249L250 128Q250 58 230 16T159 -48T20 -69V85Z" />
<glyph unicode="K" glyph-name="K" horiz-adv-x="609" d="M476 337L594 0H389L317 247L245 239V0H67V672H245V393L319 402L391 672H594L476 337Z" />
<glyph unicode="L" glyph-name="L" horiz-adv-x="467" d="M458 157V0H67V672H245V157H458Z" />
<glyph unicode="M" glyph-name="M" horiz-adv-x="870" d="M803 672V0H625V470H614L521 33H349L255 470H245V0H67V672H366L435 272L504 672H803Z" />
<glyph unicode="N" glyph-name="N" horiz-adv-x="704" d="M638 672V0H353L245 513V0H67V672H359L458 175V672H638Z" />
<glyph unicode="O" glyph-name="O" horiz-adv-x="647" d="M170 -13T103 70T35 333Q35 515 102 600T323 685Q477 685 544 600T611 334Q611 161 545 74T323 -13Q170 -13 103 70ZM362 141T384 160T417 221T427 334Q427 440 404 485T323 531Q266 531 243 485T219 333Q219
239 239 190T323 141Q362 141 384 160Z" />
<glyph unicode="P" glyph-name="P" horiz-adv-x="586" d="M67 672H315Q440 672 505 610T571 427Q571 306 505 241T315 175H245V0H67V672ZM314 326Q390 326 390 427Q390 478 372 499T314 521H245V326H314Z" />
<glyph unicode="Q" glyph-name="Q" horiz-adv-x="647" d="M341 -14H342Q341 -14 336 -14T323 -13Q219 -13 156 23T64 136T35 333Q35 515 102 600T323 685Q477 685 544 600T611 331Q611 232 585 159T512 44L594 -88L432 -163L341 -14ZM362 141T384 160T417 220T427
333Q427 440 404 485T323 531Q266 531 243 485T219 331Q219 269 226 229T255 165T323 141Q362 141 384 160Z" />
<glyph unicode="R" glyph-name="R" horiz-adv-x="623" d="M67 672H336Q462 672 525 613T589 439Q589 324 507 246L580 0H385L336 203H245V0H67V672ZM339 355Q371 355 388 379T406 439Q406 473 387 497T336 521H245V355H339Z" />
<glyph unicode="S" glyph-name="S" horiz-adv-x="545" d="M185 -14T75 15L39 23L57 159Q189 141 261 141Q339 141 339 195Q339 214 322 225T270 249Q248 257 238 262Q125 300 78 349T30 472Q30 577 94 631T268 685Q313 685 353 679T502 653L488 515Q358 530 288
530Q206 530 206 485Q206 470 226 460T289 433Q333 417 346 411Q412 384 448 359T500 297T516 206Q516 136 484 87T396 12T271 -14Q185 -14 75 15Z" />
<glyph unicode="T" glyph-name="T" horiz-adv-x="526" d="M174 515H13V672H513V515H354V0H174V515Z" />
<glyph unicode="U" glyph-name="U" horiz-adv-x="661" d="M194 -13T127 49T60 243V672H239V240Q239 141 332 141Q377 141 399 166T421 240V672H601V243Q601 112 535 50T331 -13Q194 -13 127 49Z" />
<glyph unicode="V" glyph-name="V" horiz-adv-x="617" d="M11 672H199L290 155H327L418 672H606L464 0H153L11 672Z" />
<glyph unicode="W" glyph-name="W" horiz-adv-x="959" d="M12 672H200L261 151H267L376 676H583L692 151H698L759 672H948L825 0H571L480 468L389 0H134L12 672Z" />
<glyph unicode="X" glyph-name="X" horiz-adv-x="576" d="M186 317L2 672H199L293 453L390 672H573L389 328L573 0H376L282 200L185 0H2L186 317Z" />
<glyph unicode="Y" glyph-name="Y" horiz-adv-x="570" d="M196 264L-7 672H190L284 436L378 672H575L375 264V0H196V264Z" />
<glyph unicode="Z" glyph-name="Z" horiz-adv-x="529" d="M40 140L272 502V517H40V672H490V532L258 171V155H490V1H40V140Z" />
<glyph unicode="[" glyph-name="bracketleft" horiz-adv-x="372" d="M61 749H341V594H238V32H341V-123H61V749Z" />
<glyph unicode="\" glyph-name="backslash" horiz-adv-x="539" d="M33 655L179 722L507 12L358 -51L33 655Z" />
<glyph unicode="]" glyph-name="bracketright" horiz-adv-x="372" d="M32 -123V32H134V594H32V749H312V-123H32Z" />
<glyph unicode="^" glyph-name="asciicircum" horiz-adv-x="560" d="M196 660H342L538 309H358L271 493L176 309H-4L196 660Z" />
<glyph unicode="_" glyph-name="underscore" horiz-adv-x="612" d="M92 -60H520V-206H92V-60Z" />
<glyph unicode="`" glyph-name="grave" horiz-adv-x="289" d="M-28 613L22 762L298 657L262 546L-28 613Z" />
<glyph unicode="a" glyph-name="a" horiz-adv-x="518" d="M103 -13T63 29T22 159Q22 242 66 275T211 314L285 318V341Q285 358 277 362T241 367L151 365Q65 361 59 363L55 480Q163 513 265 513Q368 513 413 473T458 341V165Q459 154 460 141T464 123T475 116L470
-13Q408 -13 378 -8T311 18Q249 -13 186 -13Q103 -13 63 29ZM242 126T275 131L285 132V201L232 197Q215 195 205 185T195 157Q195 126 226 126Q242 126 275 131Z" />
<glyph unicode="b" glyph-name="b" horiz-adv-x="556" d="M216 -14T100 -2L55 3V688H229V492Q237 495 256 501T290 510T325 513Q426 513 476 451T527 250Q527 110 471 48T291 -14Q216 -14 100 -2ZM313 142T332 165T351 247Q351 358 279 358Q256 358 229 356V145Q252
142 272 142Q313 142 332 165Z" />
<glyph unicode="c" glyph-name="c" horiz-adv-x="453" d="M131 -13T80 51T29 250Q29 357 56 414T131 492T254 513Q284 513 321 507T418 487L414 351Q321 358 298 358Q259 358 239 349T212 317T205 253Q205 208 212 185T240 152T298 142L413 149L418 12Q305 -13
237 -13Q131 -13 80 51Z" />
<glyph unicode="d" glyph-name="d" horiz-adv-x="562" d="M121 -13T76 51T30 244Q30 383 79 448T225 513Q246 513 271 509T305 504Q313 502 320 501T334 499V688H508V0H335V12Q294 -5 272 -9T225 -13Q121 -13 76 51ZM270 142T276 141T292 140Q304 140 324 143L334
142V355Q290 363 261 363Q234 363 220 337T205 245Q205 185 219 164T268 142Q270 142 276 141Z" />
<glyph unicode="e" glyph-name="e" horiz-adv-x="513" d="M137 -13T83 46T28 239Q28 376 85 444T261 513Q370 513 428 457T487 293L473 176H203Q206 158 214 150T238 141T289 139Q325 139 374 141T442 145L469 148L471 23Q360 -13 257 -13Q137 -13 83 46ZM317
306Q317 345 305 358T259 372Q225 372 214 359T202 306H317Z" />
<glyph unicode="f" glyph-name="f" horiz-adv-x="374" d="M81 353H33V500H81V507Q81 581 95 623T143 683T235 701L357 691L355 544Q303 549 280 549Q269 549 262 533T255 506V500H360V353H255V0H81V353Z" />
<glyph unicode="g" glyph-name="g" horiz-adv-x="547" d="M163 -227T96 -198T28 -100Q28 -69 46 -38T96 20Q53 50 53 95Q53 112 61 128T95 181Q65 211 50 245T34 325Q34 419 95 464T258 510Q298 510 359 497L528 503V367L467 376Q477 353 479 345T481 317Q481
226 427 187T265 148Q236 148 223 152Q218 142 218 125Q218 111 235 107T298 101Q382 98 431 88T507 47T534 -43Q534 -138 467 -182T268 -227Q163 -227 96 -198ZM283 278T297 292T311 328Q311 350 297 363T259 377Q236 377 222 364T208 329Q208 307 222 293T260
278Q283 278 297 292ZM317 -85T338 -79T359 -64Q359 -47 330 -47Q320 -47 311 -48T294 -49Q288 -49 285 -48L207 -40Q206 -49 203 -58T199 -70Q199 -76 222 -80T279 -85Q317 -85 338 -79Z" />
<glyph unicode="h" glyph-name="h" horiz-adv-x="564" d="M55 688H229V479Q262 498 286 505T342 513Q432 513 472 452T513 276V0H340V272Q340 314 328 336T283 358Q261 358 238 353L229 351V0H55V688Z" />
<glyph unicode="i" glyph-name="i" horiz-adv-x="285" d="M55 500H229V0H55V500ZM312 699H486V532H312V699Z" />
<glyph unicode="j" glyph-name="j" horiz-adv-x="286" d="M-24 -108Q14 -79 30 -61T51 -25T56 31V500H230V30Q230 -44 215 -87T161 -163T44 -235L-24 -108ZM313 699H487V532H313V699Z" />
<glyph unicode="k" glyph-name="k" horiz-adv-x="539" d="M55 688H229V307L262 320L331 500H525L417 258L532 0H337L268 170L229 157V0H55V688Z" />
<glyph unicode="l" glyph-name="l" horiz-adv-x="296" d="M61 688H235V0H61V688Z" />
<glyph unicode="m" glyph-name="m" horiz-adv-x="841" d="M55 500H228V477Q264 497 285 505T331 513Q361 513 393 502T449 469Q501 494 537 503T611 513Q706 513 748 455T791 276V0H617V270Q617 312 606 335T566 358Q564 358 554 358T522 353L510 351L508 258V0H334V256Q334
297 330 318T315 348T279 358Q261 358 237 353H229V0H55V500Z" />
<glyph unicode="n" glyph-name="n" horiz-adv-x="564" d="M55 500H228V477Q260 497 285 505T339 513Q431 513 472 452T513 276V0H339V270Q339 316 326 337T276 358Q274 358 265 358T236 353H229V0H55V500Z" />
<glyph unicode="o" glyph-name="o" horiz-adv-x="535" d="M195 -13T141 21T57 116T27 254Q27 329 56 387T139 479T267 513Q341 513 395 480T479 389T508 254Q508 176 479 116T394 21T267 -13Q195 -13 141 21ZM293 133T313 163T333 254Q333 309 314 338T267 367Q239
367 221 338T202 254Q202 194 221 164T267 133Q293 133 313 163Z" />
<glyph unicode="p" glyph-name="p" horiz-adv-x="555" d="M55 500H228V479Q266 502 286 507T329 513Q428 513 476 448T525 241Q525 145 501 90T428 11T298 -13Q263 -13 229 -7V-202H55V500ZM317 137T333 161T349 243Q349 302 333 330T276 358L265 359Q253 359
236 353L229 351V139Q247 137 275 137Q317 137 333 161Z" />
<glyph unicode="q" glyph-name="q" horiz-adv-x="554" d="M326 10Q286 -5 269 -9T225 -13Q125 -13 78 48T30 256Q30 358 55 413T134 490T286 513L500 498V-202H326V10ZM300 142T316 144H326V361Q311 363 288 363Q240 363 222 340T203 255Q203 194 220 168T272
142Q300 142 316 144Z" />
<glyph unicode="r" glyph-name="r" horiz-adv-x="389" d="M55 500H228V457Q315 502 372 513V338Q341 331 295 325Q287 324 245 317L229 314V0H55V500Z" />
<glyph unicode="s" glyph-name="s" horiz-adv-x="477" d="M169 -13T72 7L39 14L43 157Q162 142 216 142Q275 142 275 151Q275 156 263 160T224 168L179 176Q102 189 66 224T30 340Q30 422 85 467T232 512Q293 512 398 489L434 483L432 340Q303 356 261 356Q232
356 217 354T202 345Q202 337 218 332T272 322L309 316Q384 302 415 266T447 157Q447 -13 241 -13Q169 -13 72 7Z" />
<glyph unicode="t" glyph-name="t" horiz-adv-x="373" d="M171 -13T136 6T86 68T71 182V353H20V500H71V630H245V500H344V353H245V171Q245 141 267 143L335 142L341 5Q298 -6 278 -9T233 -13Q171 -13 136 6Z" />
<glyph unicode="u" glyph-name="u" horiz-adv-x="568" d="M126 -13T88 47T50 237V500H224V233Q224 192 227 175T241 150T277 142Q298 142 339 147V500H512V0H341V23Q298 1 273 -6T221 -13Q126 -13 88 47Z" />
<glyph unicode="v" glyph-name="v" horiz-adv-x="509" d="M8 500H188L244 147H266L325 500H500L394 0H114L8 500Z" />
<glyph unicode="w" glyph-name="w" horiz-adv-x="779" d="M19 500H189L224 147H253L300 490H478L526 147H554L589 500H759L680 0H414L389 249L365 0H98L19 500Z" />
<glyph unicode="x" glyph-name="x" horiz-adv-x="489" d="M132 252L9 500H192L244 372L298 500H482L351 257L482 0H299L244 125L192 0H9L132 252Z" />
<glyph unicode="y" glyph-name="y" horiz-adv-x="511" d="M228 0H120L10 500H180L248 147H265L332 500H502L348 -202H179L228 0Z" />
<glyph unicode="z" glyph-name="z" horiz-adv-x="453" d="M40 155L204 345H40V500H411V345L248 155H411V0H40V155Z" />
<glyph unicode="{" glyph-name="braceleft" horiz-adv-x="367" d="M253 -135T207 -118T140 -65T119 32L126 152Q126 185 97 209T11 248V380Q66 393 96 414T126 464L119 591Q119 656 139 692T205 745T334 765V618Q307 614 297 605T287 577L294 445Q294 401 286
378T254 341T177 315Q227 304 252 288T287 245T296 173L289 56Q289 35 297 23T330 9L332 -138Q253 -135 207 -118Z" />
<glyph unicode="|" glyph-name="bar" horiz-adv-x="293" d="M60 688H234V-202H60V688Z" />
<glyph unicode="}" glyph-name="braceright" horiz-adv-x="367" d="M37 9Q61 11 69 23T78 56L71 173Q71 219 80 245T114 287T190 315Q138 327 114 341T81 378T73 445L80 577Q80 595 70 604T33 618V765Q115 762 161 746T228 693T248 591L241 464Q241 436 271 415T356
380V248Q300 234 271 210T241 152L248 32Q248 -29 228 -65T161 -118T35 -138L37 9Z" />
<glyph unicode="~" glyph-name="asciitilde" horiz-adv-x="560" d="M355 153T275 169Q196 185 175 185Q157 185 128 177T83 159L66 152L57 289Q120 340 185 340Q215 340 289 323Q365 307 387 307Q424 307 475 331L492 340L498 202Q486 187 450 170T386 153Q355
153 275 169Z" />
<glyph unicode="&#xa0;" glyph-name="uni00A0" horiz-adv-x="220" />
<glyph unicode="&#xa1;" glyph-name="exclamdown" horiz-adv-x="288" d="M236 500V306H50V500H236ZM219 235L239 -172H50L68 235H219Z" />
<glyph unicode="&#xa2;" glyph-name="cent" horiz-adv-x="560" d="M265 24Q176 32 128 92T79 251Q79 349 126 406T265 473V563H405V469L469 455L464 328L335 329Q298 329 276 310T254 251Q254 210 278 190T353 170L464 172L468 46Q448 36 405 31V-71H265V24Z" />
<glyph unicode="&#xa3;" glyph-name="sterling" horiz-adv-x="560" d="M72 146H138V297H76V444H138V505Q138 598 180 635T316 672Q389 672 461 650L483 643L477 510Q417 516 342 516Q331 516 321 509T310 499V444H451V297H310V146H414L477 162L504 18L423 0H72V146Z" />
<glyph unicode="&#xa4;" glyph-name="currency" horiz-adv-x="560" d="M11 101L85 175Q72 211 72 253Q72 292 85 328L11 403L129 521L203 446Q242 460 281 460Q317 460 356 446L431 521L549 403L474 328Q488 289 488 253Q488 214 474 175L549 101L431 -17L356
58Q317 44 281 44Q244 44 204 58L129 -17L11 101ZM307 185T327 205T347 252Q347 279 327 299T280 319Q253 319 233 299T213 252Q213 227 234 206Q255 185 280 185Q307 185 327 205Z" />
<glyph unicode="&#xa5;" glyph-name="yen" horiz-adv-x="560" d="M193 115H58V258H193V275H59V418H119L-7 660H191L281 488L371 660H569L444 418H502V275H372V258H501V115H372V0H193V115Z" />
<glyph unicode="&#xa6;" glyph-name="brokenbar" horiz-adv-x="297" d="M62 688H236V317H62V688ZM62 179H236V-202H62V179Z" />
<glyph unicode="&#xa7;" glyph-name="section" horiz-adv-x="529" d="M201 -217T85 -195L53 -190L70 -52Q178 -67 231 -67Q278 -67 297 -61T316 -39Q316 -22 293 -13Q262 -1 180 24Q117 42 85 60T40 107T27 185Q27 218 46 259T95 324Q51 356 51 430Q51 629 285
629Q358 629 439 608L469 601L461 463Q350 479 295 479Q260 479 245 476T224 463T219 432Q219 425 236 420T292 406Q342 395 355 390Q415 373 444 356T485 312T496 238Q496 166 442 91Q465 69 473 48T481 -24Q481 -95 458 -137T383 -198T247 -217Q201 -217 85 -195ZM316
163T318 172T320 191T320 205Q320 218 315 226T304 239T297 245Q300 246 253 257T208 267Q202 261 202 218Q202 198 205 193T228 179Q255 167 307 151Q316 163 318 172Z" />
<glyph unicode="&#xa8;" glyph-name="dieresis" horiz-adv-x="289" d="M-42 739H123V579H-42V739ZM185 739H349V579H185V739Z" />
<glyph unicode="&#xa9;" glyph-name="copyright" horiz-adv-x="642" d="M242 143T177 181T74 287T37 437Q37 520 73 585T176 688T325 725Q407 725 470 687T569 581T604 431Q604 349 569 283T470 180T324 143Q242 143 177 181ZM381 213T428 242T503 322T530 432Q530
492 503 543T427 624T321 654Q234 654 173 590Q111 525 111 434Q111 374 139 324T215 243T322 213Q381 213 428 242ZM258 264T228 301T197 436Q197 502 211 538T256 588T339 603Q376 603 411 587L421 584L412 476Q379 482 358 482Q338 482 333 475T328 441Q328
417 334 401T347 385L412 388L421 286Q397 264 323 264Q258 264 228 301Z" />
<glyph unicode="&#xaa;" glyph-name="ordfeminine" horiz-adv-x="351" d="M16 379T16 471Q16 517 45 535T141 555L188 557V562Q188 572 164 572L31 565L29 647Q98 666 174 666Q249 666 283 644T318 571V468Q324 464 334 463L332 385Q289 379 274 379Q236 379 207
398Q172 379 126 379Q16 379 16 471ZM177 463T188 471V491L170 490Q147 488 147 474Q147 463 163 463Q177 463 188 471Z" />
<glyph unicode="&#xab;" glyph-name="guillemotleft" horiz-adv-x="642" d="M37 178V298L282 476V302L183 240L282 167V-6L37 178ZM350 178V298L595 476V302L496 240L595 167V-6L350 178Z" />
<glyph unicode="&#xac;" glyph-name="logicalnot" horiz-adv-x="560" d="M340 214H52V369H493V95H340V214Z" />
<glyph unicode="&#xae;" glyph-name="registered" horiz-adv-x="642" d="M243 143T177 180T74 284T37 435Q37 518 73 584T175 688T323 725Q405 725 469 686T568 580T604 431Q604 348 570 283T472 180T326 143Q243 143 177 180ZM380 213T427 243T502 323T530 434Q530
493 503 543T427 624T321 654Q260 654 212 623T138 540T111 433Q111 374 139 324T216 243T323 213Q380 213 427 243ZM193 595H346Q396 595 428 567T460 492Q460 444 455 422T431 379L463 272H337L323 356H314V272H193V595ZM321 443Q343 443 343 475Q343 506 326
506H313V443H321Z" />
<glyph unicode="&#xaf;" glyph-name="overscore" horiz-adv-x="289" d="M1 706H296V579H1V706Z" />
<glyph unicode="&#xb0;" glyph-name="degree" horiz-adv-x="560" d="M210 375T168 417T125 529Q125 599 168 642T280 685Q349 685 392 642T435 529Q435 460 392 418T280 375Q210 375 168 417ZM309 465T327 483T346 529Q346 558 328 577T280 596Q248 596 232 577T216
529Q216 501 234 483T280 465Q309 465 327 483Z" />
<glyph unicode="&#xb1;" glyph-name="plusminus" horiz-adv-x="560" d="M202 255H47V409H202V505H356V409H513V255H356V173H202V255ZM47 161H513V6H47V161Z" />
<glyph unicode="&#xb2;" glyph-name="uni00B2" horiz-adv-x="280" d="M15 591L78 632Q121 660 121 671Q119 671 112 671T92 672L22 668L16 795Q114 802 155 802Q263 802 263 714Q263 666 252 644T211 604L189 598H261V478H15V591Z" />
<glyph unicode="&#xb3;" glyph-name="uni00B3" horiz-adv-x="350" d="M117 433T54 445L33 449L36 550Q104 544 128 544Q159 544 169 546T179 564Q179 581 148 582H66V684H143Q174 684 174 702Q174 720 134 720L39 715L36 814Q109 830 151 830Q239 830 276 806T314
720Q314 689 306 672T278 641Q301 623 310 607T319 561Q319 491 283 462T165 433Q117 433 54 445Z" />
<glyph unicode="&#xb4;" glyph-name="acute" horiz-adv-x="268" d="M-9 657L267 762L316 613L27 546L-9 657Z" />
<glyph unicode="&#xb5;" glyph-name="uni00B5" horiz-adv-x="560" d="M49 500H222V192Q224 166 233 154T269 142Q274 142 290 142T328 147H338V500H511V0H339V23Q273 -13 224 -13Q228 -13 228 -15T222 -20V-202H49V500Z" />
<glyph unicode="&#xb6;" glyph-name="paragraph" horiz-adv-x="603" d="M216 261H209Q124 261 74 317T23 465Q23 526 46 573T112 646T212 672H544V525H532V0H388V525H362V0H216V261Z" />
<glyph unicode="&#xb7;" glyph-name="middot" horiz-adv-x="282" d="M49 326H234V126H49V326Z" />
<glyph unicode="&#xb8;" glyph-name="cedilla" horiz-adv-x="265" d="M80 -257T37 -247L22 -243L27 -145Q39 -146 49 -146T63 -145Q97 -145 97 -127Q97 -113 63 -113H51V1H112V-29Q183 -31 213 -51T243 -130Q243 -191 211 -224T120 -257Q80 -257 37 -247Z" />
<glyph unicode="&#xb9;" glyph-name="uni00B9" horiz-adv-x="280" d="M91 642L58 620L-5 712L105 790H225V478H91V642Z" />
<glyph unicode="&#xba;" glyph-name="ordmasculine" horiz-adv-x="447" d="M31 285T31 472Q31 564 79 611T224 659Q320 659 368 612T416 472Q416 285 224 285Q31 285 31 472ZM247 420T253 431T260 473Q260 504 254 515T224 526Q201 526 193 514T185 473Q185 445
193 433T224 420Q247 420 253 431Z" />
<glyph unicode="&#xbb;" glyph-name="guillemotright" horiz-adv-x="646" d="M47 167L146 240L47 302V476L293 298V178L47 -6V167ZM360 167L459 240L360 302V476L606 298V178L360 -6V167Z" />
<glyph unicode="&#xbc;" glyph-name="onequarter" horiz-adv-x="596" d="M122 790H242V478H142L-162 -14L-224 30L108 563V642L75 620L12 712L122 790ZM584 14V-81H572V-122H448V-81H310V1L356 213H489L423 14H448V60L572 76V14H584Z" />
<glyph unicode="&#xbd;" glyph-name="onehalf" horiz-adv-x="577" d="M122 790H242V478H142L-162 -14L-224 30L108 563V642L75 620L12 712L122 790ZM486 20H558V-100H312V13L375 54Q418 82 418 93Q416 93 409 93T389 94L319 90L313 217Q411 224 452 224Q560 224
560 136Q560 88 549 66T508 26L486 20Z" />
<glyph unicode="&#xbe;" glyph-name="threequarters" horiz-adv-x="666" d="M-224 30L170 662L231 621L-162 -14L-224 30ZM168 -81H30V1L76 213H209L143 14H168V60L292 76V14H304V-81H292V-122H168V-81ZM433 433T370 445L349 449L352 550Q420 544 444 544Q475
544 485 546T495 564Q495 581 464 582H382V684H459Q490 684 490 702Q490 720 450 720L355 715L352 814Q425 830 467 830Q555 830 592 806T630 720Q630 689 622 672T594 641Q617 623 626 607T635 561Q635 491 599 462T481 433Q433 433 370 445Z" />
<glyph unicode="&#xbf;" glyph-name="questiondown" horiz-adv-x="428" d="M329 306H144V500H329V306ZM343 232T343 160Q343 151 331 135T301 107Q299 105 279 91Q239 62 222 44T204 5Q204 -12 218 -22T257 -32Q325 -32 394 -20L402 -148Q326 -186 210 -186Q119
-186 71 -147T23 -33Q23 27 29 60T50 115T99 160Q130 179 146 197T163 243V271H300Q343 232 343 160Z" />
<glyph unicode="&#xc0;" glyph-name="Agrave" horiz-adv-x="606" d="M128 798L179 954L455 844L416 725L128 798ZM401 86H205L192 0H12L141 672H465L594 0H414L401 86ZM325 526H281L235 240H371L325 526Z" />
<glyph unicode="&#xc1;" glyph-name="Aacute" horiz-adv-x="606" d="M401 86H205L192 0H12L141 672H465L594 0H414L401 86ZM325 526H281L235 240H371L325 526ZM146 844L422 954L473 798L185 725L146 844Z" />
<glyph unicode="&#xc2;" glyph-name="Acircumflex" horiz-adv-x="606" d="M401 86H205L192 0H12L141 672H465L594 0H414L401 86ZM325 526H281L235 240H371L325 526ZM226 906H378L512 748H331L304 788L273 748H92L226 906Z" />
<glyph unicode="&#xc3;" glyph-name="Atilde" horiz-adv-x="606" d="M401 86H205L192 0H12L141 672H465L594 0H414L401 86ZM325 526H281L235 240H371L325 526ZM351 728T286 748L261 755Q214 769 207 769Q183 769 136 739L122 731L85 853Q108 881 142 901T210 921Q241
921 304 901Q367 881 377 881Q402 881 450 911L465 920L502 796Q501 795 464 762T379 728Q351 728 286 748Z" />
<glyph unicode="&#xc4;" glyph-name="Adieresis" horiz-adv-x="606" d="M401 86H205L192 0H12L141 672H465L594 0H414L401 86ZM325 526H281L235 240H371L325 526ZM109 895H273V735H109V895ZM333 895H498V735H333V895Z" />
<glyph unicode="&#xc5;" glyph-name="Aring" horiz-adv-x="606" d="M401 86H205L192 0H12L139 663Q133 683 133 705Q133 772 181 808T303 845Q377 845 426 809T475 705Q475 681 467 659L594 0H414L401 86ZM281 738T264 729T246 705Q246 690 263 682T303 673Q326
673 343 681T360 705Q360 721 344 729T303 738Q281 738 264 729ZM235 240H371L325 526H281L235 240Z" />
<glyph unicode="&#xc6;" glyph-name="AE" horiz-adv-x="868" d="M164 686H831V515H557V430H771V260H557V171H831V0H381V77H194L184 0H7L164 686ZM381 249L382 515H288L236 249H381Z" />
<glyph unicode="&#xc7;" glyph-name="Ccedilla" horiz-adv-x="542" d="M400 -13T311 -13V-29Q382 -31 412 -51T442 -130Q442 -191 410 -224T319 -257Q279 -257 236 -247L221 -243L226 -145Q238 -146 248 -146T262 -145Q296 -145 296 -127Q296 -113 262 -113H250V-10Q165
0 120 40T57 149T39 331Q39 475 64 551T144 656T294 685Q392 685 508 655L503 515Q409 528 351 528Q298 528 270 512T232 460T221 359Q221 326 222 308Q225 234 234 201T266 156T340 144Q409 144 503 155L506 11Q400 -13 311 -13Z" />
<glyph unicode="&#xc8;" glyph-name="Egrave" horiz-adv-x="555" d="M245 517V412H459V260H245V155H519V0H67V672H519V517H245ZM119 798L170 954L446 844L407 725L119 798Z" />
<glyph unicode="&#xc9;" glyph-name="Eacute" horiz-adv-x="555" d="M245 517V412H459V260H245V155H519V0H67V672H519V517H245ZM140 844L416 954L467 798L179 725L140 844Z" />
<glyph unicode="&#xca;" glyph-name="Ecircumflex" horiz-adv-x="555" d="M245 517V412H459V260H245V155H519V0H67V672H519V517H245ZM224 906H376L510 748H329L302 788L271 748H90L224 906Z" />
<glyph unicode="&#xcb;" glyph-name="Edieresis" horiz-adv-x="555" d="M245 517V412H459V260H245V155H519V0H67V672H519V517H245ZM101 895H265V735H101V895ZM325 895H490V735H325V895Z" />
<glyph unicode="&#xcc;" glyph-name="Igrave" horiz-adv-x="313" d="M67 672H245V0H67V672ZM229 798L280 954L556 844L517 725L229 798Z" />
<glyph unicode="&#xcd;" glyph-name="Iacute" horiz-adv-x="313" d="M67 672H245V0H67V672ZM4 844L280 954L331 798L43 725L4 844Z" />
<glyph unicode="&#xce;" glyph-name="Icircumflex" horiz-adv-x="313" d="M67 672H245V0H67V672ZM338 906H490L624 748H443L416 788L385 748H204L338 906Z" />
<glyph unicode="&#xcf;" glyph-name="Idieresis" horiz-adv-x="313" d="M67 672H245V0H67V672ZM-36 895H128V735H-36V895ZM188 895H353V735H188V895Z" />
<glyph unicode="&#xd0;" glyph-name="Eth" d="M73 254H28V426H73V686H287Q419 686 484 657T574 558T598 354Q598 219 577 146T489 37T287 0H73V254ZM287 170Q345 170 367 176T401 220T414 351L415 391Q416 403 416 423Q416 456 407 475T370 505T287 516H249V426H360V254H249V170H287Z"
/>
<glyph unicode="&#xd1;" glyph-name="Ntilde" horiz-adv-x="704" d="M638 672V0H353L245 513V0H67V672H359L458 175V672H638ZM403 728T338 748L313 755Q266 769 259 769Q235 769 188 739L174 731L137 853Q160 881 194 901T262 921Q293 921 356 901Q419 881 429
881Q454 881 502 911L517 920L554 796Q553 795 516 762T431 728Q403 728 338 748Z" />
<glyph unicode="&#xd2;" glyph-name="Ograve" horiz-adv-x="647" d="M170 -13T103 70T35 333Q35 515 102 600T323 685Q477 685 544 600T611 334Q611 161 545 74T323 -13Q170 -13 103 70ZM362 141T384 160T417 221T427 334Q427 440 404 485T323 531Q266 531 243
485T219 333Q219 239 239 190T323 141Q362 141 384 160ZM137 798L188 954L464 844L425 725L137 798Z" />
<glyph unicode="&#xd3;" glyph-name="Oacute" horiz-adv-x="647" d="M170 -13T103 70T35 333Q35 515 102 600T323 685Q477 685 544 600T611 334Q611 161 545 74T323 -13Q170 -13 103 70ZM362 141T384 160T417 221T427 334Q427 440 404 485T323 531Q266 531 243
485T219 333Q219 239 239 190T323 141Q362 141 384 160ZM147 844L423 954L474 798L186 725L147 844Z" />
<glyph unicode="&#xd4;" glyph-name="Ocircumflex" horiz-adv-x="647" d="M170 -13T103 70T35 333Q35 515 102 600T323 685Q477 685 544 600T611 334Q611 161 545 74T323 -13Q170 -13 103 70ZM362 141T384 160T417 221T427 334Q427 440 404 485T323 531Q266 531
243 485T219 333Q219 239 239 190T323 141Q362 141 384 160ZM250 906H402L536 748H355L328 788L297 748H116L250 906Z" />
<glyph unicode="&#xd5;" glyph-name="Otilde" horiz-adv-x="647" d="M170 -13T103 70T35 333Q35 515 102 600T323 685Q477 685 544 600T611 334Q611 161 545 74T323 -13Q170 -13 103 70ZM362 141T384 160T417 221T427 334Q427 440 404 485T323 531Q266 531 243
485T219 333Q219 239 239 190T323 141Q362 141 384 160ZM382 728T317 748L292 755Q245 769 238 769Q214 769 167 739L153 731L116 853Q139 881 173 901T241 921Q272 921 335 901Q398 881 408 881Q433 881 481 911L496 920L533 796Q532 795 495 762T410 728Q382
728 317 748Z" />
<glyph unicode="&#xd6;" glyph-name="Odieresis" horiz-adv-x="647" d="M170 -13T103 70T35 333Q35 515 102 600T323 685Q477 685 544 600T611 334Q611 161 545 74T323 -13Q170 -13 103 70ZM362 141T384 160T417 221T427 334Q427 440 404 485T323 531Q266 531
243 485T219 333Q219 239 239 190T323 141Q362 141 384 160ZM131 895H295V735H131V895ZM355 895H520V735H355V895Z" />
<glyph unicode="&#xd7;" glyph-name="multiply" horiz-adv-x="558" d="M413 250L539 124L429 14L303 140L177 14L67 124L193 250L67 376L177 486L303 360L429 486L539 376L413 250Z" />
<glyph unicode="&#xd8;" glyph-name="Oslash" horiz-adv-x="647" d="M59 -70L117 53Q78 92 57 163T35 331Q35 514 102 599T323 685Q369 685 408 679L472 817L600 762L531 613Q611 529 611 331Q611 154 544 71T323 -13Q279 -13 243 -8L185 -134L59 -70ZM339 532L323
531Q268 531 244 487T219 366Q219 295 210 251L339 532ZM427 141T427 299Q427 370 436 409L311 139L323 141Q427 141 427 299Z" />
<glyph unicode="&#xd9;" glyph-name="Ugrave" horiz-adv-x="661" d="M194 -13T127 49T60 243V672H239V240Q239 141 332 141Q377 141 399 166T421 240V672H601V243Q601 112 535 50T331 -13Q194 -13 127 49ZM161 798L212 954L488 844L449 725L161 798Z" />
<glyph unicode="&#xda;" glyph-name="Uacute" horiz-adv-x="661" d="M194 -13T127 49T60 243V672H239V240Q239 141 332 141Q377 141 399 166T421 240V672H601V243Q601 112 535 50T331 -13Q194 -13 127 49ZM159 844L435 954L486 798L198 725L159 844Z" />
<glyph unicode="&#xdb;" glyph-name="Ucircumflex" horiz-adv-x="661" d="M194 -13T127 49T60 243V672H239V240Q239 141 332 141Q377 141 399 166T421 240V672H601V243Q601 112 535 50T331 -13Q194 -13 127 49ZM256 906H408L542 748H361L334 788L303 748H122L256 906Z" />
<glyph unicode="&#xdc;" glyph-name="Udieresis" horiz-adv-x="661" d="M194 -13T127 49T60 243V672H239V240Q239 141 332 141Q377 141 399 166T421 240V672H601V243Q601 112 535 50T331 -13Q194 -13 127 49ZM138 895H302V735H138V895ZM362 895H527V735H362V895Z" />
<glyph unicode="&#xdd;" glyph-name="Yacute" horiz-adv-x="570" d="M196 264L-7 672H190L284 436L378 672H575L375 264V0H196V264ZM111 844L387 954L438 798L150 725L111 844Z" />
<glyph unicode="&#xde;" glyph-name="Thorn" horiz-adv-x="594" d="M67 686H245V597H315Q443 597 508 534T573 348Q573 223 506 154T315 84H245V0H67V686ZM314 258Q350 258 371 283T393 348Q393 385 372 406T314 427H245V258H314Z" />
<glyph unicode="&#xdf;" glyph-name="germandbls" horiz-adv-x="636" d="M549 278T574 260T610 217T621 155Q621 88 602 52T539 2T418 -13Q360 -13 275 9L249 15L253 151Q359 139 395 139Q413 139 428 138T443 134Q443 144 431 150T394 163Q361 174 354 177Q299
198 269 228T229 301V0H55V507Q55 609 114 655T304 701Q437 701 500 662T564 536Q564 501 554 480T526 445T471 415Q432 398 418 389T403 363Q403 345 439 325T502 299Q549 278 574 260ZM343 500Q367 507 376 512T386 527Q386 542 368 546T332 550T309 549Q229
549 229 508V395Q235 430 253 451T307 487L343 500Z" />
<glyph unicode="&#xe0;" glyph-name="agrave" horiz-adv-x="518" d="M103 -13T63 29T22 159Q22 242 66 275T211 314L285 318V341Q285 358 277 362T241 367L151 365Q65 361 59 363L55 480Q163 513 265 513Q368 513 413 473T458 341V165Q459 154 460 141T464 123T475
116L470 -13Q408 -13 378 -8T311 18Q249 -13 186 -13Q103 -13 63 29ZM242 126T275 131L285 132V201L232 197Q215 195 205 185T195 157Q195 126 226 126Q242 126 275 131ZM91 613L141 762L417 657L381 546L91 613Z" />
<glyph unicode="&#xe1;" glyph-name="aacute" horiz-adv-x="518" d="M103 -13T63 29T22 159Q22 242 66 275T211 314L285 318V341Q285 358 277 362T241 367L151 365Q65 361 59 363L55 480Q163 513 265 513Q368 513 413 473T458 341V165Q459 154 460 141T464 123T475
116L470 -13Q408 -13 378 -8T311 18Q249 -13 186 -13Q103 -13 63 29ZM242 126T275 131L285 132V201L232 197Q215 195 205 185T195 157Q195 126 226 126Q242 126 275 131ZM81 657L357 762L406 613L117 546L81 657Z" />
<glyph unicode="&#xe2;" glyph-name="acircumflex" horiz-adv-x="518" d="M103 -13T63 29T22 159Q22 242 66 275T211 314L285 318V341Q285 358 277 362T241 367L151 365Q65 361 59 363L55 480Q163 513 265 513Q368 513 413 473T458 341V165Q459 154 460 141T464
123T475 116L470 -13Q408 -13 378 -8T311 18Q249 -13 186 -13Q103 -13 63 29ZM242 126T275 131L285 132V201L232 197Q215 195 205 185T195 157Q195 126 226 126Q242 126 275 131ZM203 730H309L439 572H284L256 626L230 572H75L203 730Z" />
<glyph unicode="&#xe3;" glyph-name="atilde" horiz-adv-x="518" d="M103 -13T63 29T22 159Q22 242 66 275T211 314L285 318V341Q285 358 277 362T241 367L151 365Q65 361 59 363L55 480Q163 513 265 513Q368 513 413 473T458 341V165Q459 154 460 141T464 123T475
116L470 -13Q408 -13 378 -8T311 18Q249 -13 186 -13Q103 -13 63 29ZM242 126T275 131L285 132V201L232 197Q215 195 205 185T195 157Q195 126 226 126Q242 126 275 131ZM256 567T211 581Q169 596 156 596Q126 596 88 577L75 571L38 664Q56 686 92 707T151 729Q175
729 217 714Q258 700 271 700Q302 700 343 722L357 731L394 636Q390 629 369 612T323 581T278 567Q256 567 211 581Z" />
<glyph unicode="&#xe4;" glyph-name="adieresis" horiz-adv-x="518" d="M103 -13T63 29T22 159Q22 242 66 275T211 314L285 318V341Q285 358 277 362T241 367L151 365Q65 361 59 363L55 480Q163 513 265 513Q368 513 413 473T458 341V165Q459 154 460 141T464
123T475 116L470 -13Q408 -13 378 -8T311 18Q249 -13 186 -13Q103 -13 63 29ZM242 126T275 131L285 132V201L232 197Q215 195 205 185T195 157Q195 126 226 126Q242 126 275 131ZM38 739H203V579H38V739ZM265 739H429V579H265V739Z" />
<glyph unicode="&#xe5;" glyph-name="aring" horiz-adv-x="518" d="M459 154T460 141T464 123T475 116L470 -13Q408 -13 378 -8T311 18Q249 -13 186 -13Q103 -13 63 29T22 159Q22 242 66 275T211 314L285 318V341Q285 358 277 362T241 367L151 365Q65 361 59 363L55
480Q152 509 237 512Q196 523 170 556T144 633Q144 687 181 723T272 759Q326 759 363 723T400 633Q400 588 373 555T303 512Q385 505 421 464T458 341V165Q459 154 460 141ZM255 670T245 660T234 633Q234 616 244 606T272 596Q289 596 299 606T310 633Q310 650
300 660T272 670Q255 670 245 660ZM285 201L232 197Q215 195 205 185T195 157Q195 126 226 126Q242 126 275 131L285 132V201Z" />
<glyph unicode="&#xe6;" glyph-name="ae" horiz-adv-x="771" d="M104 -13T63 32T22 159Q22 236 66 274T191 314L285 318V332Q285 336 276 341T251 346Q181 346 96 338L63 335L58 485Q202 512 282 512Q347 512 395 499Q448 512 515 512Q626 512 684 456T742 293L728
175H458Q459 159 476 153T530 146Q610 146 698 153L726 155L728 23Q614 -13 510 -13Q406 -13 353 31L336 22Q257 -13 191 -13Q104 -13 63 32ZM572 306Q572 336 560 347T512 358Q479 358 469 347T458 306H572ZM219 135T224 133T241 131Q257 131 286 135L285 188L232
190Q216 190 206 183T195 163Q195 150 200 143T216 135Q219 135 224 133Z" />
<glyph unicode="&#xe7;" glyph-name="ccedilla" horiz-adv-x="453" d="M320 -9T259 -12V-29Q330 -31 360 -51T390 -130Q390 -191 358 -224T267 -257Q227 -257 184 -247L169 -243L174 -145Q186 -146 196 -146T210 -145Q244 -145 244 -127Q244 -113 210 -113H198V-11Q112
0 71 64T29 250Q29 357 56 414T131 492T254 513Q284 513 321 507T418 487L414 351Q321 358 298 358Q259 358 239 349T212 317T205 253Q205 208 212 185T240 152T298 142L413 149L418 12Q320 -9 259 -12Z" />
<glyph unicode="&#xe8;" glyph-name="egrave" horiz-adv-x="513" d="M137 -13T83 46T28 239Q28 376 85 444T261 513Q370 513 428 457T487 293L473 176H203Q206 158 214 150T238 141T289 139Q325 139 374 141T442 145L469 148L471 23Q360 -13 257 -13Q137 -13 83
46ZM317 306Q317 345 305 358T259 372Q225 372 214 359T202 306H317ZM102 613L152 762L428 657L392 546L102 613Z" />
<glyph unicode="&#xe9;" glyph-name="eacute" horiz-adv-x="513" d="M137 -13T83 46T28 239Q28 376 85 444T261 513Q370 513 428 457T487 293L473 176H203Q206 158 214 150T238 141T289 139Q325 139 374 141T442 145L469 148L471 23Q360 -13 257 -13Q137 -13 83
46ZM317 306Q317 345 305 358T259 372Q225 372 214 359T202 306H317ZM78 657L354 762L403 613L114 546L78 657Z" />
<glyph unicode="&#xea;" glyph-name="ecircumflex" horiz-adv-x="513" d="M137 -13T83 46T28 239Q28 376 85 444T261 513Q370 513 428 457T487 293L473 176H203Q206 158 214 150T238 141T289 139Q325 139 374 141T442 145L469 148L471 23Q360 -13 257 -13Q137
-13 83 46ZM317 306Q317 345 305 358T259 372Q225 372 214 359T202 306H317ZM202 730H308L438 572H283L255 626L229 572H74L202 730Z" />
<glyph unicode="&#xeb;" glyph-name="edieresis" horiz-adv-x="513" d="M137 -13T83 46T28 239Q28 376 85 444T261 513Q370 513 428 457T487 293L473 176H203Q206 158 214 150T238 141T289 139Q325 139 374 141T442 145L469 148L471 23Q360 -13 257 -13Q137 -13
83 46ZM317 306Q317 345 305 358T259 372Q225 372 214 359T202 306H317ZM60 739H225V579H60V739ZM287 739H451V579H287V739Z" />
<glyph unicode="&#xec;" glyph-name="igrave" horiz-adv-x="285" d="M55 500H229V0H55V500ZM197 613L247 762L523 657L487 546L197 613Z" />
<glyph unicode="&#xed;" glyph-name="iacute" horiz-adv-x="285" d="M55 500H229V0H55V500ZM26 657L302 762L351 613L62 546L26 657Z" />
<glyph unicode="&#xee;" glyph-name="icircumflex" horiz-adv-x="285" d="M55 500H229V0H55V500ZM337 730H443L573 572H418L390 626L364 572H209L337 730Z" />
<glyph unicode="&#xef;" glyph-name="idieresis" horiz-adv-x="285" d="M55 500H229V0H55V500ZM197 739H362V579H197V739ZM424 739H588V579H424V739Z" />
<glyph unicode="&#xf0;" glyph-name="eth" horiz-adv-x="580" d="M549 531T549 350Q549 166 485 79T278 -9Q153 -9 94 46T35 220Q35 304 70 358T175 433L107 527L170 569L73 582L93 701Q225 700 326 672L418 734L486 638L447 613Q549 531 549 350ZM365 427Q358
466 348 486T308 521L177 433Q211 443 259 443Q318 443 354 431L365 427ZM317 146T341 180T365 279Q345 291 267 291Q245 291 232 269T219 220Q219 180 233 163T274 146Q317 146 341 180Z" />
<glyph unicode="&#xf1;" glyph-name="ntilde" horiz-adv-x="564" d="M55 500H228V477Q260 497 285 505T339 513Q431 513 472 452T513 276V0H339V270Q339 316 326 337T276 358Q274 358 265 358T236 353H229V0H55V500ZM323 567T278 581Q236 596 223 596Q193 596
155 577L142 571L105 664Q123 686 159 707T218 729Q242 729 284 714Q325 700 338 700Q369 700 410 722L424 731L461 636Q457 629 436 612T390 581T345 567Q323 567 278 581Z" />
<glyph unicode="&#xf2;" glyph-name="ograve" horiz-adv-x="535" d="M195 -13T141 21T57 116T27 254Q27 329 56 387T139 479T267 513Q341 513 395 480T479 389T508 254Q508 176 479 116T394 21T267 -13Q195 -13 141 21ZM293 133T313 163T333 254Q333 309 314 338T267
367Q239 367 221 338T202 254Q202 194 221 164T267 133Q293 133 313 163ZM111 613L161 762L437 657L401 546L111 613Z" />
<glyph unicode="&#xf3;" glyph-name="oacute" horiz-adv-x="535" d="M195 -13T141 21T57 116T27 254Q27 329 56 387T139 479T267 513Q341 513 395 480T479 389T508 254Q508 176 479 116T394 21T267 -13Q195 -13 141 21ZM293 133T313 163T333 254Q333 309 314 338T267
367Q239 367 221 338T202 254Q202 194 221 164T267 133Q293 133 313 163ZM91 657L367 762L416 613L127 546L91 657Z" />
<glyph unicode="&#xf4;" glyph-name="ocircumflex" horiz-adv-x="535" d="M195 -13T141 21T57 116T27 254Q27 329 56 387T139 479T267 513Q341 513 395 480T479 389T508 254Q508 176 479 116T394 21T267 -13Q195 -13 141 21ZM293 133T313 163T333 254Q333 309
314 338T267 367Q239 367 221 338T202 254Q202 194 221 164T267 133Q293 133 313 163ZM205 730H311L441 572H286L258 626L232 572H77L205 730Z" />
<glyph unicode="&#xf5;" glyph-name="otilde" horiz-adv-x="535" d="M195 -13T141 21T57 116T27 254Q27 329 56 387T139 479T267 513Q341 513 395 480T479 389T508 254Q508 176 479 116T394 21T267 -13Q195 -13 141 21ZM293 133T313 163T333 254Q333 309 314 338T267
367Q239 367 221 338T202 254Q202 194 221 164T267 133Q293 133 313 163ZM299 567T254 581Q212 596 199 596Q169 596 131 577L118 571L81 664Q99 686 135 707T194 729Q218 729 260 714Q301 700 314 700Q345 700 386 722L400 731L437 636Q433 629 412 612T366 581T321
567Q299 567 254 581Z" />
<glyph unicode="&#xf6;" glyph-name="odieresis" horiz-adv-x="535" d="M195 -13T141 21T57 116T27 254Q27 329 56 387T139 479T267 513Q341 513 395 480T479 389T508 254Q508 176 479 116T394 21T267 -13Q195 -13 141 21ZM293 133T313 163T333 254Q333 309 314
338T267 367Q239 367 221 338T202 254Q202 194 221 164T267 133Q293 133 313 163ZM72 739H237V579H72V739ZM299 739H463V579H299V739Z" />
<glyph unicode="&#xf7;" glyph-name="divide" horiz-adv-x="550" d="M175 500H375V360H175V500ZM43 340H507V170H43V340ZM175 150H375V10H175V150Z" />
<glyph unicode="&#xf8;" glyph-name="oslash" horiz-adv-x="535" d="M508 412T508 248Q508 125 443 56T267 -13Q234 -13 213 -9L173 -105L73 -67L116 32Q74 64 51 120T27 248Q27 372 85 442T267 513Q287 513 311 510L349 608L451 570L411 476Q508 412 508 248ZM255
366Q226 361 214 332T202 248L203 230L255 366ZM333 277T337 305L268 133Q299 134 316 163T333 234Q333 277 337 305Z" />
<glyph unicode="&#xf9;" glyph-name="ugrave" horiz-adv-x="568" d="M126 -13T88 47T50 237V500H224V233Q224 192 227 175T241 150T277 142Q298 142 339 147V500H512V0H341V23Q298 1 273 -6T221 -13Q126 -13 88 47ZM87 613L137 762L413 657L377 546L87 613Z" />
<glyph unicode="&#xfa;" glyph-name="uacute" horiz-adv-x="568" d="M126 -13T88 47T50 237V500H224V233Q224 192 227 175T241 150T277 142Q298 142 339 147V500H512V0H341V23Q298 1 273 -6T221 -13Q126 -13 88 47ZM113 657L389 762L438 613L149 546L113 657Z" />
<glyph unicode="&#xfb;" glyph-name="ucircumflex" horiz-adv-x="568" d="M126 -13T88 47T50 237V500H224V233Q224 192 227 175T241 150T277 142Q298 142 339 147V500H512V0H341V23Q298 1 273 -6T221 -13Q126 -13 88 47ZM195 730H301L431 572H276L248 626L222
572H67L195 730Z" />
<glyph unicode="&#xfc;" glyph-name="udieresis" horiz-adv-x="568" d="M126 -13T88 47T50 237V500H224V233Q224 192 227 175T241 150T277 142Q298 142 339 147V500H512V0H341V23Q298 1 273 -6T221 -13Q126 -13 88 47ZM89 739H254V579H89V739ZM316 739H480V579H316V739Z" />
<glyph unicode="&#xfd;" glyph-name="yacute" horiz-adv-x="511" d="M228 0H120L10 500H180L248 147H265L332 500H502L348 -202H179L228 0ZM101 657L377 762L426 613L137 546L101 657Z" />
<glyph unicode="&#xfe;" glyph-name="thorn" horiz-adv-x="555" d="M55 688H229V492Q286 513 311 513Q385 513 432 488T502 405T526 247Q526 148 502 91T429 11T300 -13L229 -5V-202H55V688ZM321 137T336 163T351 257Q351 300 333 329T286 358Q252 358 239 356H229V143Q261
137 286 137Q321 137 336 163Z" />
<glyph unicode="&#xff;" glyph-name="ydieresis" horiz-adv-x="511" d="M228 0H120L10 500H180L248 147H265L332 500H502L348 -202H179L228 0ZM62 739H227V579H62V739ZM289 739H453V579H289V739Z" />
<glyph unicode="&#x2013;" glyph-name="endash" horiz-adv-x="603" d="M51 338H551V192H51V338Z" />
<glyph unicode="&#x2014;" glyph-name="emdash" horiz-adv-x="1103" d="M51 338H1051V192H51V338Z" />
<glyph unicode="&#x2018;" glyph-name="quoteleft" horiz-adv-x="286" d="M123 660H256L205 394H24L123 660Z" />
<glyph unicode="&#x2019;" glyph-name="quoteright" horiz-adv-x="279" d="M165 396H33L84 661H264L165 396Z" />
<glyph unicode="&#x201a;" glyph-name="quotesinglbase" horiz-adv-x="281" d="M156 -210H-24L62 231H306L156 -210Z" />
<glyph unicode="&#x201c;" glyph-name="quotedblleft" horiz-adv-x="490" d="M123 660H256L205 394H24L123 660ZM328 660H460L410 394H229L328 660Z" />
<glyph unicode="&#x201d;" glyph-name="quotedblright" horiz-adv-x="480" d="M59 395H-74L-23 661H158L59 395ZM467 395H335L386 661H566L467 395Z" />
<glyph unicode="&#x201e;" glyph-name="quotedblbase" horiz-adv-x="462" d="M73 120H205L154 -145H-26L73 120ZM277 120H410L359 -145H178L277 120Z" />
<glyph unicode="&#x2022;" glyph-name="bullet" horiz-adv-x="435" d="M93 372H343V96H93V372Z" />
<glyph unicode="&#x2039;" glyph-name="guilsinglleft" horiz-adv-x="329" d="M37 178V298L282 476V302L183 240L282 167V-6L37 178Z" />
<glyph unicode="&#x203a;" glyph-name="guilsinglright" horiz-adv-x="329" d="M45 183L144 257L45 319V493L291 315V195L45 10V183Z" />
</font>
</defs>
</svg>
