<?xml version="1.0" standalone="no"?>
<!DOCTYPE svg PUBLIC "-//W3C//DTD SVG 1.1//EN" "http://www.w3.org/Graphics/SVG/1.1/DTD/svg11.dtd">
<svg xmlns="http://www.w3.org/2000/svg">
<defs >
<font id="JacquesFrancois" horiz-adv-x="1212" ><font-face
    font-family="Jacques Francois"
    units-per-em="2048"
    panose-1="2 0 0 0 0 0 0 0 0 0"
    ascent="2095"
    descent="-606"
    alphabetic="0" />
<glyph unicode=" " glyph-name="space" horiz-adv-x="532" />
<glyph unicode="!" glyph-name="exclam" horiz-adv-x="717" d="M397 348H319L313 489Q304 745 268 1039T231 1389Q231 1425 245 1450T282 1485T323 1499T358 1503Q376 1503 393 1500T434 1486T471 1450T485 1389Q485 1320 453 1026T406 489L397 348ZM269 7Q233
44 233 96T269 184T358 221T446 185T483 96T447 8T358 -29T269 7Z" />
<glyph unicode="&quot;" glyph-name="quotedbl" horiz-adv-x="831" d="M205 1030L143 1427Q143 1464 170 1483T242 1503Q284 1503 312 1484T340 1427L281 1030H205ZM553 1030L492 1427Q492 1464 519 1483T590 1503Q632 1503 660 1484T688 1427L629 1030H553Z" />
<glyph unicode="#" glyph-name="numbersign" horiz-adv-x="1065" d="M713 0H590L655 412H324L254 0H129L190 412H-80L-66 510H207L285 981H8L20 1083H297L360 1470H485L422 1083H760L817 1470H948L885 1083H1145L1128 981H866L793 510H1057L1042 412H778L713 0ZM336
510H668L737 981H408L336 510Z" />
<glyph unicode="$" glyph-name="dollar" horiz-adv-x="1065" d="M887 1071Q854 1238 775 1327T580 1430V854Q647 835 700 815T812 758T909 678T973 568T999 420Q999 318 962 234T862 95T729 9T580 -35V-174H498V-41Q297 -36 86 74Q90 176 90 221Q90 337 70 477Q82
483 90 483Q100 483 113 477Q128 376 158 298T225 171T309 91T402 47T498 33V674Q406 701 340 734T219 815T138 933T111 1092Q111 1198 145 1278T238 1403T361 1472T498 1501V1630H580V1501Q730 1495 918 1411Q909 1353 909 1272Q909 1151 928 1071Q916 1067 909
1067Q903 1067 887 1071ZM803 330Q803 458 756 531T580 649V39Q687 59 745 137T803 330ZM279 1190Q279 1147 280 1122T288 1063T309 1006T346 958T408 914T498 877V1427Q393 1415 336 1352T279 1190Z" />
<glyph unicode="%" glyph-name="percent" horiz-adv-x="1966" d="M133 1124Q133 1281 242 1391T506 1501Q662 1501 772 1391T883 1124Q883 970 773 861T506 752Q351 752 242 860T133 1124ZM236 1122Q236 1012 315 931T504 850Q617 850 698 930T780 1122Q780 1237
699 1318T504 1399Q394 1399 315 1318T236 1122ZM1083 344Q1083 501 1192 611T1456 721Q1612 721 1722 611T1833 344Q1833 189 1723 80T1456 -29Q1301 -29 1192 80T1083 344ZM1186 342Q1186 232 1265 151T1454 70Q1568 70 1649 150T1731 342Q1731 457 1650 537T1454
618Q1344 618 1265 538T1186 342ZM1309 1559L1397 1526L639 -98L551 -61L1309 1559Z" />
<glyph unicode="&amp;" glyph-name="ampersand" horiz-adv-x="1544" d="M1061 866Q1057 882 1057 889Q1057 901 1061 913Q1196 907 1237 907Q1332 907 1481 913Q1485 901 1485 893Q1485 888 1481 866Q1414 858 1381 836T1321 772Q1279 707 1207 571T1053 315Q1066
300 1102 251T1162 174T1226 122T1309 96Q1363 96 1396 129T1456 227Q1489 227 1503 215Q1491 164 1475 126T1429 50T1351 -10T1235 -31Q1208 -31 1192 -30T1142 -18T1080 12T1014 72T938 170Q869 106 805 64T686 2T592 -24T510 -31Q426 -31 359 -7T248 54T176
141T135 240T123 338Q123 375 130 415T160 506T217 605T313 701T453 788Q405 835 379 865T325 936T286 1022T274 1122Q274 1248 371 1334T608 1421Q743 1421 821 1353T899 1149Q899 1039 837 963T655 819Q765 708 837 617T1012 377Q1157 600 1173 772Q1175 784
1174 803Q1174 829 1148 844T1061 866ZM895 240Q807 383 725 487T510 731Q429 696 373 604T317 387Q317 257 397 188T602 119Q782 119 895 240ZM602 868Q673 905 728 975T784 1145Q784 1238 736 1284T618 1331Q537 1331 493 1272T449 1124Q449 994 602 868Z" />
<glyph unicode="&apos;" glyph-name="quotesingle" horiz-adv-x="483" d="M205 1030L143 1427Q143 1464 170 1483T242 1503Q284 1503 312 1484T340 1427L281 1030H205Z" />
<glyph unicode="(" glyph-name="parenleft" horiz-adv-x="868" d="M784 -397L752 -428Q620 -340 527 -240T371 -37T271 165T215 350T190 501T184 604Q184 644 190 711T215 864T272 1047T373 1246T529 1448T752 1636L784 1606Q721 1529 692 1488T629 1391T562 1273T507
1145Q477 1060 459 989T432 855T419 730T416 604Q416 371 466 182T616 -164Q658 -230 718 -310T784 -397Z" />
<glyph unicode=")" glyph-name="parenright" horiz-adv-x="868" d="M117 -428L84 -397Q190 -263 252 -164Q317 -60 356 53T417 272T446 464T453 604Q453 656 446 743T418 935T357 1153T252 1372Q214 1433 184 1477T119 1562T84 1606L117 1636Q248 1548 341 1448T498
1244T598 1042T654 858T678 707T684 604Q684 566 679 500T655 349T600 166T500 -34T344 -237T117 -428Z" />
<glyph unicode="*" glyph-name="asterisk" horiz-adv-x="995" d="M410 1083Q410 1100 412 1106L240 1149Q185 1161 154 1191T123 1268Q123 1289 143 1311T190 1333Q203 1333 214 1332T234 1328T251 1322T265 1315T278 1305T289 1295T300 1283T311 1272L434 1145Q450
1161 475 1167L424 1339Q414 1377 414 1405Q414 1450 436 1476T498 1503Q536 1503 558 1475T580 1401Q580 1369 571 1339L518 1165Q548 1152 557 1141L684 1272Q704 1292 716 1302T750 1321T799 1331Q835 1331 853 1311T872 1268Q872 1224 841 1193T756 1149L575
1106Q580 1093 580 1083Q580 1069 578 1063L756 1018Q872 987 872 905Q872 875 854 856T799 836Q768 836 743 847T684 893L555 1024Q542 1011 518 1004L571 829Q580 803 580 770Q580 723 559 693T498 662Q456 662 435 690T414 764Q414 792 424 829L475 1001Q453
1005 436 1022L311 893Q251 831 213 831T149 848T123 899Q123 987 240 1018L412 1061Q410 1069 410 1083Z" />
<glyph unicode="+" glyph-name="plus" horiz-adv-x="1464" d="M791 143H674V653H164V768H674V1280H791V768H1300V653H791V143Z" />
<glyph unicode="," glyph-name="comma" horiz-adv-x="578" d="M215 -262L164 -217Q213 -174 243 -135T281 -75T297 -27L293 -20Q226 -20 195 9T164 98Q164 145 197 183T281 221Q338 221 376 189T414 86Q414 -8 356 -108T215 -262Z" />
<glyph unicode="-" glyph-name="hyphen" horiz-adv-x="936" d="M164 412V537H772V412H164Z" />
<glyph unicode="." glyph-name="period" horiz-adv-x="578" d="M289 221Q314 221 337 211T377 184T404 144T414 96Q414 71 405 49T378 9T338 -19T289 -29Q263 -29 240 -20T200 7T174 47T164 96Q164 122 174 145T201 185T240 211T289 221Z" />
<glyph unicode="/" glyph-name="slash" horiz-adv-x="640" d="M-17 -426H-150L653 1620H790L-17 -426Z" />
<glyph unicode="0" glyph-name="zero" horiz-adv-x="1065" d="M29 475Q29 612 95 728T277 913T530 981Q739 981 887 833T1036 475Q1036 267 888 119T530 -29Q428 -29 335 11T175 118T69 279T29 475ZM164 473Q164 322 271 214T528 106Q683 106 792 214T901 473Q901
628 792 737T528 846Q378 846 271 737T164 473Z" />
<glyph unicode="1" glyph-name="one" horiz-adv-x="1065" d="M805 41Q811 29 811 16T805 -6Q673 0 530 0Q390 0 258 -6Q254 10 254 16Q254 21 258 41Q294 46 314 49T368 63T419 92T438 137Q442 236 442 377V573Q442 715 438 813Q437 839 420 857T368 886T314 900T258
909Q254 931 254 934Q254 940 258 956Q390 950 530 950Q673 950 805 956Q811 947 811 934Q811 922 805 909Q784 906 774 904T741 897T705 886T677 869T653 845T645 813Q637 644 637 475T645 137Q645 119 653 105T676 81T705 65T741 53T774 46T805 41Z" />
<glyph unicode="2" glyph-name="two" horiz-adv-x="1065" d="M117 82L516 358Q610 423 650 489T690 657Q690 714 673 756T629 820T579 850T524 860Q422 860 361 813T299 678Q299 625 316 581T350 520L367 502Q358 468 324 465Q318 467 308 471T272 495T226 538T190
606T174 700Q174 792 227 857T363 951T549 981Q717 981 814 903T911 692Q911 629 890 575T831 479T760 412T682 358L436 207V197H674Q744 197 802 242T893 344Q924 344 942 330L852 0H150Q128 15 117 82Z" />
<glyph unicode="3" glyph-name="three" horiz-adv-x="1065" d="M264 309L428 389Q490 419 531 455T594 532T624 605T633 694Q633 760 583 810T455 860Q350 860 298 813T246 690Q246 589 285 530Q272 507 246 504Q135 575 135 709Q135 829 227 905T494 981Q658
981 757 913T856 698Q856 600 781 517T598 401V391Q657 386 708 366T807 306T881 197T909 37Q909 -73 860 -171T735 -335T569 -437T393 -475Q318 -475 257 -457T157 -412T93 -349T57 -283T47 -225Q47 -164 84 -125T176 -86Q241 -86 279 -119T317 -221Q317 -267
286 -299T223 -340Q223 -351 240 -367T297 -397T391 -412Q522 -412 603 -296T684 10Q684 88 664 144T607 230T531 272T444 285Q376 285 289 250L264 309Z" />
<glyph unicode="4" glyph-name="four" horiz-adv-x="1044" d="M805 958V186H1069Q1040 4 1039 0H805V-438H600V0H35Q8 13 8 59L741 981Q784 981 805 958ZM604 662L227 186H604V662Z" />
<glyph unicode="5" glyph-name="five" horiz-adv-x="1065" d="M303 950H680Q732 950 769 960T829 991T863 1029T889 1075Q920 1075 938 1061L858 754H373L330 502Q433 502 515 490T672 447T798 365T879 235T909 47Q909 -64 864 -162T743 -328T570 -435T367 -475Q268
-475 193 -451T79 -389T22 -313T4 -238Q4 -181 41 -143T139 -104Q196 -104 232 -141T268 -236Q268 -270 247 -298T182 -348Q187 -357 198 -368T252 -395T356 -410Q409 -410 458 -398T554 -355T637 -278T693 -159T715 6Q715 69 698 117T647 197T573 249T477 280T371
295T256 299Q233 304 220 315T193 356Q255 580 279 765T303 950Z" />
<glyph unicode="6" glyph-name="six" horiz-adv-x="1065" d="M1001 1421L1026 1382Q834 1289 671 1164T393 889Q520 889 621 866T802 792T925 654T969 446Q969 334 929 242T821 91T673 2T506 -29Q446 -29 386 -17T260 28T144 113T62 253T29 455Q29 849 423 1139Q648
1305 944 1403Q1001 1421 1001 1421ZM743 446Q742 542 724 608T661 722T542 793T354 817Q308 769 275 666T242 416Q242 237 311 137T504 37Q535 37 564 46T627 82T685 153T726 271T743 446Z" />
<glyph unicode="7" glyph-name="seven" horiz-adv-x="1065" d="M820 756H428Q401 756 377 751T334 737T290 708T252 667T234 641T219 613T207 590Q171 590 150 614Q174 678 191 782T211 956Q227 981 250 981L299 950H995Q1012 950 1024 933T1038 899L365 -123Q313
-197 297 -240Q340 -240 373 -273T406 -358Q406 -406 369 -440T264 -475Q200 -475 164 -440T127 -342Q127 -307 151 -257T200 -174L820 756Z" />
<glyph unicode="8" glyph-name="eight" horiz-adv-x="1065" d="M362 709Q357 710 348 712T314 725T265 750T213 790T164 849T129 930T115 1036Q115 1111 135 1172T186 1273T259 1341T340 1385T420 1408T485 1419T526 1421Q555 1421 585 1418T656 1406T733 1381T806
1338T869 1273T911 1181T928 1059Q928 1004 916 955T883 871T838 808T789 761T744 731T698 709V696Q704 695 714 693T752 681T807 656T864 616T919 558T957 476T973 369Q973 286 945 218T872 105T766 29T645 -15T522 -29Q472 -29 417 -17T303 23T198 94T122 202T92
350Q92 409 107 460T145 546T198 607T256 650T308 676T362 694V709ZM524 735Q579 735 618 766T676 848T704 951T713 1059Q713 1199 665 1277T522 1356Q433 1356 382 1275T330 1034Q330 958 344 901T379 814T428 764T478 740T524 735ZM524 670Q488 670 453 653T383
602T328 502T307 350Q307 261 326 197T379 99T448 52T524 37Q575 37 614 51T688 101T740 202T758 365Q758 447 739 507T694 597T632 645T572 666T524 670Z" />
<glyph unicode="9" glyph-name="nine" horiz-adv-x="1065" d="M4 -469L-20 -430Q385 -231 612 63Q511 63 427 77T268 124T143 207T63 333T33 506Q33 618 73 710T180 861T328 950T496 981Q538 981 580 975T670 954T760 916T842 854T910 767T956 649T973 498Q973
104 580 -187Q356 -353 61 -451Q4 -469 4 -469ZM258 506Q259 410 278 344T342 231T463 160T651 135Q697 181 728 285T760 537Q760 716 691 815T498 915Q467 915 438 906T374 870T316 799T275 680T258 506Z" />
<glyph unicode=":" glyph-name="colon" horiz-adv-x="578" d="M164 770Q164 796 174 819T201 859T240 885T289 895Q314 895 337 885T377 858T404 818T414 770Q414 745 405 723T378 683T338 655T289 645Q263 645 241 655T201 682T174 721T164 770ZM289 221Q314
221 337 211T377 184T404 144T414 96Q414 71 405 49T378 9T338 -19T289 -29Q263 -29 240 -20T200 7T174 47T164 96Q164 122 174 145T201 185T240 211T289 221Z" />
<glyph unicode=";" glyph-name="semicolon" horiz-adv-x="578" d="M215 -262L164 -217Q213 -174 243 -135T281 -75T297 -27L293 -20Q226 -20 195 9T164 98Q164 145 197 183T281 221Q338 221 376 189T414 86Q414 -8 356 -108T215 -262ZM289 896Q314 896 337 886T377
859T404 819T414 771Q414 746 405 724T378 684T338 656T289 646Q263 646 240 655T200 682T174 722T164 771Q164 797 174 820T201 860T240 886T289 896Z" />
<glyph unicode="&lt;" glyph-name="less" horiz-adv-x="1563" d="M453 715L1399 307L1350 199L164 713L1350 1227L1399 1118L453 715Z" />
<glyph unicode="=" glyph-name="equal" horiz-adv-x="1464" d="M1300 469H164V584H1300V469ZM1300 838H164V952H1300V838Z" />
<glyph unicode="&gt;" glyph-name="greater" horiz-adv-x="1563" d="M164 307L1110 715L164 1118L213 1227L1399 713L213 199L164 307Z" />
<glyph unicode="?" glyph-name="question" horiz-adv-x="1030" d="M442 348H365V489Q365 612 398 683Q431 753 484 802T569 885T629 962Q688 1053 688 1196Q688 1236 678 1277T643 1353T577 1408T473 1430Q368 1430 307 1390Q246 1351 246 1315Q307 1290 307 1223Q307
1199 299 1179T275 1144T240 1121T195 1112Q137 1112 105 1143T72 1235Q72 1281 97 1327T170 1413T297 1478T475 1503Q598 1503 696 1467Q745 1449 786 1421T856 1355T902 1272T918 1174Q918 1100 896 1041T844 943T773 867T643 766T498 618T442 459V348ZM335 3Q303
37 303 82Q303 128 335 160Q368 193 414 193Q460 193 492 160Q524 128 524 82Q524 37 492 3Q460 -29 414 -29Q369 -29 335 3Z" />
<glyph unicode="@" glyph-name="at" horiz-adv-x="2038" d="M1479 971Q1305 415 1299 384T1292 332Q1292 273 1318 247T1382 221Q1421 221 1469 236T1574 290T1675 383T1751 527T1782 723Q1782 866 1729 992T1582 1209T1356 1352T1069 1405Q911 1405 776 1357T548
1227T389 1039T291 819T260 588Q260 464 297 347T406 129T575 -46T801 -164T1073 -207Q1194 -207 1325 -160T1548 -29L1608 -129Q1469 -231 1354 -273T1083 -315Q910 -315 757 -266T492 -132T299 66T176 310T135 578Q135 773 204 943T394 1236T690 1430T1069 1501Q1251
1501 1408 1439T1672 1271T1841 1023T1903 723Q1903 603 1867 501T1772 331T1642 215T1498 145T1362 123Q1290 123 1228 152T1135 248Q1031 150 887 150Q830 150 778 172T684 235T617 345T592 498Q592 633 652 749T824 935T1071 1006Q1098 1006 1132 997T1215 956T1296
874L1425 969L1479 971ZM1120 330L1245 770Q1232 848 1182 897T1067 946Q982 946 911 855T801 598Q780 503 780 377Q780 313 815 265T924 217Q1038 217 1120 330Z" />
<glyph unicode="A" glyph-name="A" horiz-adv-x="1628" d="M791 1485Q806 1496 823 1499L1370 133Q1380 108 1403 91T1460 64T1520 50T1583 41Q1587 25 1587 14Q1587 2 1583 -8Q1367 0 1260 0Q1144 0 924 -8Q920 4 920 16Q920 29 924 41Q1126 63 1126 117Q1126
134 1122 152L977 524Q911 526 799 526Q746 526 524 522L371 133V121Q371 111 374 102T386 86T403 74T425 65T450 58T479 52T508 48T537 44T565 41Q569 25 569 14Q569 8 565 -8Q341 0 313 0Q259 0 35 -8Q31 4 31 16Q31 29 35 41Q243 65 272 143L702 1227L680 1286Q737
1324 759 1368T791 1485ZM799 604Q891 604 944 606L754 1098H750L559 608Q653 604 799 604Z" />
<glyph unicode="B" glyph-name="B" horiz-adv-x="1481" d="M78 1468Q246 1462 428 1462Q514 1462 592 1466T672 1470Q726 1470 771 1468T874 1457T977 1435T1067 1396T1143 1337T1193 1253T1212 1141Q1212 958 993 866V858Q1157 828 1267 722T1378 451Q1378 363
1347 293T1266 176T1143 96T999 44T839 16T684 3T541 0Q270 0 76 -6Q72 6 72 14Q72 21 76 41Q106 44 124 46T173 53T224 64T265 81T296 105T307 137Q319 450 319 768Q319 1092 309 1327Q308 1353 287 1371T222 1399T153 1412T78 1421Q74 1439 74 1446Q74 1452 78
1468ZM530 768V694L541 68Q608 68 660 70T774 82T882 108T974 152T1049 220T1096 316T1114 446Q1114 516 1091 571T1027 664T926 727T797 763T645 774Q588 774 530 768ZM543 1399L530 829Q938 829 938 1141Q938 1277 854 1341T629 1405Q598 1405 543 1399Z" />
<glyph unicode="C" glyph-name="C" horiz-adv-x="1552" d="M891 1503Q970 1503 1048 1493T1199 1468T1337 1439T1454 1419Q1442 1383 1442 1292Q1442 1115 1495 985Q1489 967 1458 963L1415 1055Q1383 1124 1338 1191T1230 1312T1084 1399T891 1432Q797 1432 724
1401T596 1318T503 1196T442 1048T408 888T397 729Q397 601 430 484T535 278T715 135T977 82Q1268 82 1417 264Q1433 264 1443 255T1454 233Q1406 162 1338 110T1192 25T1037 -25T891 -41Q818 -41 734 -26T565 26T403 120T265 264T169 465T133 729Q133 879 169
994T265 1196T404 1340T567 1435T735 1487T891 1503Z" />
<glyph unicode="D" glyph-name="D" horiz-adv-x="1720" d="M78 1470Q302 1462 436 1462Q686 1470 743 1470Q836 1470 918 1462T1087 1433T1246 1377T1382 1285T1491 1153T1561 973T1587 739Q1579 616 1545 513T1457 335T1330 201T1178 105T1006 44T826 10T645
0Q270 0 76 -6Q72 6 72 14Q72 21 76 41Q106 44 124 46T173 53T224 64T265 81T296 105T307 137Q319 450 319 768Q319 1092 309 1327Q308 1353 286 1371T223 1400T153 1414T78 1423Q74 1441 74 1448Q74 1454 78 1470ZM543 1327Q530 987 530 694Q530 532 541 74Q584
72 664 72Q826 72 952 121T1159 260T1281 470T1323 739Q1323 815 1311 888T1273 1037T1201 1177T1092 1291T936 1370T731 1399Q628 1399 543 1386V1327Z" />
<glyph unicode="E" glyph-name="E" horiz-adv-x="1608" d="M78 1470Q302 1462 428 1462Q1286 1467 1378 1470Q1391 1370 1429 1281T1526 1090Q1518 1073 1491 1063Q1455 1131 1404 1184T1276 1284T1083 1361T819 1401H543Q530 978 530 764H815Q844 764 869 768T917
784T956 806T992 838T1022 874T1051 919T1077 966T1104 1019T1133 1073Q1164 1061 1171 1047Q1129 973 1100 883T1071 733Q1071 591 1171 420Q1163 404 1133 393Q1122 413 1103 450T1072 508T1042 559T1009 607T972 645T927 676T877 694T815 702H530Q530 543 541
61H860Q1008 71 1123 101T1316 178T1445 278T1532 399Q1559 389 1567 373Q1562 363 1541 325T1513 274T1490 227T1465 173T1447 121T1430 61T1419 0H541Q270 0 76 -6Q72 6 72 14Q72 21 76 41Q122 45 150 49T220 64T284 92T307 137Q319 450 319 768Q319 1092 309
1327Q308 1353 286 1371T223 1400T153 1414T78 1423Q74 1441 74 1448Q74 1454 78 1470Z" />
<glyph unicode="F" glyph-name="F" horiz-adv-x="1503" d="M78 1468Q246 1462 428 1462H543Q616 1463 795 1463T1102 1465T1356 1470Q1364 1401 1390 1327T1440 1205T1503 1090Q1495 1073 1468 1063Q1432 1131 1381 1184T1253 1284T1060 1361T797 1401H543Q530
969 530 748H815Q840 748 862 752T903 768T937 789T968 821T995 857T1020 901T1043 948T1067 1001T1092 1055Q1127 1040 1130 1030Q1071 876 1071 717Q1071 559 1130 403Q1123 389 1092 377Q1031 524 999 574Q925 685 815 686H530Q530 471 541 137Q542 111 564
93T627 64T697 50T772 41Q776 21 776 14Q776 6 772 -6Q602 0 424 0Q244 0 76 -6Q72 6 72 14Q72 21 76 41Q106 44 124 46T173 53T224 64T265 81T296 105T307 137Q319 450 319 768Q319 1092 309 1327Q308 1353 287 1371T222 1399T153 1412T78 1421Q74 1439 74 1446Q74
1452 78 1468Z" />
<glyph unicode="G" glyph-name="G" horiz-adv-x="1737" d="M1477 1016Q1445 1087 1414 1140T1333 1252T1226 1347T1086 1408T903 1432Q795 1432 707 1388T563 1273T468 1109T413 921T397 729Q397 633 414 539T470 351T568 188T714 75T911 31Q1131 31 1217 129V535Q1217
556 1200 572T1161 598T1103 614T1043 625T985 631Q981 647 981 655Q981 662 985 678Q1211 670 1333 670Q1457 670 1681 678Q1686 658 1686 655Q1686 651 1681 631Q1646 628 1623 625T1564 615T1506 598T1467 573T1450 535V387Q1450 197 1495 76Q1330 15 1202 -13T911
-41Q814 -41 716 -21T511 54T322 192T187 414T133 729Q133 856 160 964T234 1151T343 1291T476 1392T621 1456T767 1492T903 1503Q1015 1503 1116 1490T1319 1457T1479 1430Q1464 1385 1464 1303Q1464 1167 1513 1038Q1507 1020 1477 1016Z" />
<glyph unicode="H" glyph-name="H" horiz-adv-x="1765" d="M78 1470Q302 1462 426 1462T774 1470Q778 1454 778 1448Q778 1441 774 1423Q728 1419 700 1415T630 1400T566 1372T543 1327Q530 1028 530 770Q641 766 866 766Q1050 766 1235 772Q1231 1144 1225 1327Q1224
1353 1202 1371T1138 1400T1068 1414T993 1423Q989 1441 989 1448Q989 1454 993 1470Q1219 1462 1341 1462Q1464 1462 1690 1470Q1694 1454 1694 1448Q1694 1441 1690 1423Q1644 1419 1616 1415T1545 1400T1481 1372T1458 1327Q1448 1078 1448 731Q1448 386 1458
137Q1459 111 1481 93T1545 64T1615 50T1690 41Q1694 25 1694 14Q1694 6 1690 -6Q1520 0 1341 0T993 -6Q989 6 989 14Q989 31 993 41Q1039 45 1068 49T1139 64T1203 92T1225 137Q1233 494 1235 678Q1050 684 866 684Q752 684 530 680Q530 467 541 137Q542 111 564
93T627 64T697 50T772 41Q776 21 776 14Q776 6 772 -6Q602 0 424 0Q244 0 76 -6Q72 6 72 14Q72 31 76 41Q122 45 150 49T220 64T284 92T307 137Q319 450 319 768Q319 1092 309 1327Q308 1353 286 1371T223 1400T153 1414T78 1423Q74 1441 74 1448Q74 1458 78 1470Z"
/>
<glyph unicode="I" glyph-name="I" horiz-adv-x="850" d="M78 1470Q302 1462 426 1462T774 1470Q778 1454 778 1448Q778 1437 774 1423Q728 1419 700 1415T630 1400T566 1372T543 1327Q530 987 530 694Q530 480 541 137Q542 111 564 93T627 64T697 50T772 41Q776
29 776 14Q776 6 772 -6Q602 0 424 0Q244 0 76 -6Q72 6 72 14Q72 31 76 41Q106 44 124 46T173 53T224 64T265 81T296 105T307 137Q319 450 319 768Q319 1092 309 1327Q308 1353 286 1371T223 1400T153 1414T78 1423Q74 1441 74 1448Q74 1458 78 1470Z" />
<glyph unicode="J" glyph-name="J" horiz-adv-x="905" d="M147 1470Q373 1462 502 1462Q624 1462 850 1470Q854 1454 854 1448Q854 1437 850 1423Q804 1419 775 1415T704 1400T640 1372T618 1327Q617 1262 616 1022T612 573Q610 406 607 300T593 64T564 -144T513
-305T436 -432T324 -504T172 -532Q27 -532 -53 -461T-133 -293Q-133 -210 -89 -165T27 -119Q86 -119 128 -151T170 -246Q170 -280 153 -306T116 -345T78 -368T61 -383Q61 -421 90 -445T172 -469Q228 -469 266 -448T329 -389T367 -283T384 -138T389 55Q389 1043
379 1327Q378 1353 356 1371T292 1400T222 1414T147 1423Q143 1441 143 1448Q143 1458 147 1470Z" />
<glyph unicode="K" glyph-name="K" horiz-adv-x="1636" d="M78 1470Q302 1462 426 1462T774 1470Q778 1454 778 1448Q778 1437 774 1423Q728 1419 700 1415T630 1400T566 1372T543 1327Q530 1031 530 780H559L1126 1327Q1139 1346 1139 1356Q1139 1375 1129 1387T1091
1406T1036 1416T954 1423Q950 1441 950 1448Q950 1454 954 1470Q1180 1462 1251 1462Q1300 1462 1526 1470Q1530 1454 1530 1448Q1530 1441 1526 1423Q1483 1419 1458 1415T1393 1402T1318 1374T1249 1327L733 836L1368 190Q1528 47 1649 41Q1653 25 1653 14Q1653
2 1649 -8Q1504 0 1329 0Q1172 0 950 -8Q946 4 946 16Q946 29 950 41Q1047 44 1078 58T1110 109Q1110 122 1103 134T1079 165T1057 190L569 696L530 694Q530 480 541 137Q542 111 564 93T627 64T697 50T772 41Q776 29 776 14Q776 6 772 -6Q602 0 424 0Q244 0 76
-6Q72 6 72 14Q72 31 76 41Q106 44 124 46T173 53T224 64T265 81T296 105T307 137Q319 450 319 768Q319 1092 309 1327Q308 1353 286 1371T223 1400T153 1414T78 1423Q74 1441 74 1448Q74 1458 78 1470Z" />
<glyph unicode="L" glyph-name="L" horiz-adv-x="1597" d="M78 1470Q302 1462 426 1462T774 1470Q778 1454 778 1448Q778 1441 774 1423Q728 1419 700 1415T630 1400T566 1372T543 1327Q530 987 530 694Q530 543 541 61H850Q997 71 1113 104T1306 188T1434 295T1522
420Q1548 410 1556 393Q1515 317 1493 270T1444 147T1409 0H541Q270 0 76 -6Q72 6 72 14Q72 21 76 41Q122 45 150 49T220 64T284 92T307 137Q319 450 319 768Q319 1092 309 1327Q308 1353 286 1371T223 1400T153 1414T78 1423Q74 1441 74 1448Q74 1458 78 1470Z"
/>
<glyph unicode="M" glyph-name="M" horiz-adv-x="1909" d="M98 1470Q286 1462 571 1462L958 414H963L1366 1462H1481Q1605 1462 1831 1470Q1835 1454 1835 1448Q1835 1441 1831 1423Q1795 1420 1773 1417T1715 1407T1656 1391T1617 1365T1599 1327Q1589 1092 1589
768Q1589 439 1602 137Q1603 111 1625 93T1688 64T1758 50T1833 41Q1837 25 1837 14Q1837 6 1833 -6Q1664 0 1485 0Q1305 0 1137 -6Q1133 6 1133 14Q1133 31 1137 41Q1183 45 1211 49T1281 64T1345 92T1368 137Q1378 449 1378 694Q1378 929 1368 1229H1360L903
25H893L406 1253H395Q387 1010 387 694Q387 462 397 152Q399 61 618 41Q623 24 623 14T618 -6Q459 0 334 0Q254 0 66 -6Q61 4 61 14Q61 31 66 41Q287 62 287 152Q299 464 299 768Q299 987 293 1233Q292 1275 288 1303T273 1353T250 1386T213 1407T165 1421T98 1432Q94
1440 94 1450Q94 1462 98 1470Z" />
<glyph unicode="N" glyph-name="N" horiz-adv-x="1704" d="M78 1470Q242 1462 492 1462Q1199 576 1252 519T1305 461H1313Q1317 653 1317 770Q1317 1001 1307 1313Q1305 1403 1085 1423Q1081 1445 1081 1450Q1081 1458 1085 1470Q1246 1464 1370 1464Q1450 1464
1638 1470Q1642 1458 1642 1450Q1642 1434 1638 1423Q1419 1403 1417 1313Q1405 1000 1405 696Q1405 231 1415 -4L1397 -6L403 1217H393Q387 958 387 694Q387 462 397 152Q399 61 618 41Q623 24 623 14T618 -6Q459 0 334 0Q254 0 66 -6Q61 4 61 14Q61 31 66 41Q287
62 287 152Q299 464 299 768Q299 1098 291 1341Q207 1414 78 1423Q72 1436 72 1446Q72 1461 78 1470Z" />
<glyph unicode="O" glyph-name="O" horiz-adv-x="1782" d="M896 1504Q973 1504 1058 1488T1227 1436T1387 1340T1522 1194T1614 993T1649 729Q1649 579 1615 464T1523 263T1389 119T1228 25T1055 -26T887 -42Q811 -42 726 -27T556 24T396 118T261 262T168 463T133
729Q133 883 169 1000T264 1204T402 1347T565 1440T735 1489T896 1504ZM891 1432Q797 1432 724 1401T596 1318T503 1196T442 1048T408 888T397 729Q397 655 407 575T440 418T500 270T593 147T721 63T891 31Q985 31 1058 61T1186 144T1278 266T1339 413T1373 572T1384
729Q1384 806 1374 888T1340 1048T1278 1195T1185 1317T1057 1401T891 1432Z" />
<glyph unicode="P" glyph-name="P" horiz-adv-x="1313" d="M315 678Q315 750 305 1337Q302 1360 282 1376T222 1402T159 1415T90 1423Q86 1441 86 1448Q86 1454 90 1470Q116 1469 214 1466T365 1462Q410 1462 535 1466T715 1470Q971 1470 1106 1351T1241 1034Q1241
846 1120 727T776 608Q642 608 535 664Q535 420 541 137Q542 111 564 93T627 64T697 50T772 41Q776 21 776 14Q776 6 772 -6Q602 0 424 0Q244 0 76 -6Q72 6 72 14Q72 31 76 41Q122 45 150 49T220 64T284 92T307 137Q315 394 315 678ZM541 1401Q535 1041 535 731Q617
694 698 694Q839 694 910 785T981 1036Q981 1405 616 1405Q593 1405 541 1401Z" />
<glyph unicode="Q" glyph-name="Q" horiz-adv-x="1782" d="M1649 729Q1649 607 1626 509T1563 332T1467 194T1348 92T1215 22T1075 -20Q1091 -55 1109 -91T1154 -164T1216 -236T1305 -307T1429 -375T1597 -440Q1606 -452 1606 -465Q1606 -481 1599 -487Q1465 -487
1336 -460T1093 -377T887 -234T735 -27Q666 -16 595 8T457 73T331 172T228 311T159 495T133 729Q133 887 170 1006T270 1211T411 1353T575 1443T741 1489T891 1503Q965 1503 1049 1489T1218 1439T1380 1347T1518 1203T1613 1000T1649 729ZM1384 729Q1384 806 1374
888T1340 1048T1278 1195T1185 1317T1057 1401T891 1432Q797 1432 724 1401T596 1318T503 1196T442 1048T408 888T397 729Q397 655 407 575T440 418T500 270T593 147T721 63T891 31Q985 31 1058 61T1186 144T1278 266T1339 413T1373 572T1384 729Z" />
<glyph unicode="R" glyph-name="R" horiz-adv-x="1552" d="M78 1470Q294 1462 426 1462Q476 1462 587 1466T758 1470Q980 1470 1107 1358T1235 1067Q1235 923 1150 810T918 647Q985 527 1102 375Q1215 224 1317 138T1538 41Q1542 25 1542 16Q1542 6 1538 -6Q1478
-3 1410 -2T1259 -1T1130 0Q861 313 698 616Q625 616 530 639Q530 445 541 137Q542 111 564 93T627 64T697 50T772 41Q776 21 776 14Q776 6 772 -6Q602 0 424 0Q244 0 76 -6Q72 6 72 14Q72 31 76 41Q106 44 124 46T173 53T224 64T265 81T296 105T307 137Q319 450
319 768Q319 1092 309 1327Q308 1353 286 1371T223 1400T153 1414T78 1423Q74 1441 74 1448Q74 1454 78 1470ZM543 1401H541Q530 1032 530 715Q600 692 672 692Q738 692 790 714T877 774T933 861T965 962T975 1067Q975 1216 894 1310T662 1405Q588 1405 543 1401Z"
/>
<glyph unicode="S" glyph-name="S" horiz-adv-x="1284" d="M1040 1047Q1002 1230 901 1331T657 1432Q518 1432 442 1366T365 1190Q365 1129 376 1089T421 1012T520 946T690 891Q747 877 789 865T883 832T972 787T1047 728T1108 649T1146 548T1161 420Q1161 328
1127 251T1038 120T911 30T765 -24T618 -41Q396 -41 145 74Q150 182 150 207Q150 370 123 532Q134 539 145 539Q159 539 170 532Q191 403 239 304T351 148T481 62T618 33Q775 33 859 114T944 330Q944 465 882 533T643 645Q423 700 300 807T176 1092Q176 1185 206
1258T285 1376T399 1450T527 1491T657 1503Q855 1503 1069 1411Q1063 1352 1063 1288Q1063 1138 1087 1047Q1074 1042 1065 1042Q1055 1042 1040 1047Z" />
<glyph unicode="T" glyph-name="T" horiz-adv-x="1628" d="M158 1470Q267 1466 430 1464T813 1462Q1033 1462 1196 1464T1470 1470Q1476 1427 1485 1388T1515 1300L1545 1232L1618 1090Q1611 1074 1583 1063Q1549 1126 1500 1183T1376 1286T1192 1363T930 1405Q925
1280 923 1123T920 772Q920 578 922 420T930 137Q931 113 949 97T998 69T1071 52T1161 41Q1165 24 1165 14Q1165 5 1161 -6Q993 0 813 0Q634 0 465 -6Q461 5 461 14Q461 24 465 41L513 46Q539 49 571 54T630 70T677 95T696 132V137Q701 320 704 478T707 772Q707
907 704 1064T696 1405Q552 1397 446 1367T261 1291T131 1187T45 1063Q17 1074 10 1090L55 1175L76 1218Q89 1245 102 1273T126 1331T146 1396T158 1470Z" />
<glyph unicode="U" glyph-name="U" horiz-adv-x="1767" d="M45 1470Q214 1464 393 1464Q573 1464 741 1470Q745 1454 745 1448Q745 1441 741 1423Q711 1420 693 1418T644 1411T593 1400T552 1383T521 1359T510 1327Q506 1194 506 596Q506 311 601 182T926 53Q1157
53 1282 193T1407 596Q1407 1073 1401 1313Q1399 1403 1180 1423Q1176 1445 1176 1450Q1176 1458 1180 1470Q1339 1464 1464 1464Q1544 1464 1733 1470Q1737 1458 1737 1450Q1737 1434 1733 1423Q1516 1403 1511 1313Q1501 1075 1501 596Q1501 450 1463 336T1366
152T1229 38T1077 -24T930 -41Q831 -41 752 -30T598 7T468 81T371 198T308 367T287 596V760Q287 1095 276 1327Q275 1353 253 1371T190 1400T120 1414T45 1423Q41 1441 41 1448Q41 1454 45 1470Z" />
<glyph unicode="V" glyph-name="V" horiz-adv-x="1604" d="M4 1470Q230 1462 360 1462Q549 1462 698 1470Q702 1454 702 1448Q702 1437 698 1423Q566 1419 520 1404T473 1350Q473 1349 487 1300L903 334H913L1303 1313Q1309 1328 1309 1352Q1309 1385 1273 1399T1149
1423Q1145 1445 1145 1450Q1145 1458 1149 1470Q1278 1464 1382 1464Q1496 1464 1610 1470Q1614 1458 1614 1450Q1614 1434 1610 1423Q1535 1416 1486 1393T1409 1313L868 -29H821L240 1300Q194 1405 4 1423Q0 1441 0 1448Q0 1458 4 1470Z" />
<glyph unicode="W" glyph-name="W" horiz-adv-x="2144" d="M4 1470Q218 1462 340 1462Q457 1462 598 1470Q602 1454 602 1448Q602 1437 598 1423Q511 1419 479 1402T446 1356Q446 1348 448 1338T854 334H864L1059 854L883 1300Q841 1408 682 1423Q678 1441 678
1448Q678 1458 682 1470Q823 1462 995 1462Q1153 1462 1294 1470Q1298 1454 1298 1448Q1298 1437 1294 1423Q1173 1419 1138 1405T1102 1350Q1102 1349 1116 1300L1485 334H1495L1860 1313Q1866 1328 1866 1352Q1866 1384 1827 1398T1700 1423Q1696 1445 1696 1450Q1696
1458 1700 1470Q1823 1464 1935 1464Q2044 1464 2150 1470Q2154 1458 2154 1450Q2154 1434 2150 1423Q2079 1416 2033 1393T1960 1313L1452 -29H1407L1106 733L821 -29H776L227 1300Q183 1406 4 1423Q0 1441 0 1448Q0 1458 4 1470Z" />
<glyph unicode="X" glyph-name="X" horiz-adv-x="1524" d="M51 1470Q277 1462 414 1462Q580 1462 731 1470Q735 1454 735 1448Q735 1437 731 1423Q619 1418 573 1403T526 1350Q526 1332 553 1288L799 897L1096 1313Q1106 1330 1106 1354Q1106 1385 1067 1399T948
1423Q944 1445 944 1450Q944 1458 948 1470Q1077 1464 1182 1464Q1316 1464 1430 1470Q1434 1458 1434 1450Q1434 1434 1430 1423Q1265 1408 1200 1313L848 821L1268 152Q1340 56 1520 39Q1524 23 1524 14Q1524 4 1520 -8Q1294 0 1147 0Q948 0 799 -8Q795 8 795
14Q795 27 799 39Q1030 49 1030 109Q1030 134 1020 152L715 637L362 154Q348 132 348 111Q348 80 391 65T516 41Q520 21 520 14Q520 6 516 -6Q387 0 272 0Q138 0 25 -6Q20 9 20 14Q20 31 25 41Q184 56 254 152L668 713L283 1327Q261 1356 235 1374T174 1402T117
1415T51 1423Q47 1441 47 1448Q47 1458 51 1470Z" />
<glyph unicode="Y" glyph-name="Y" horiz-adv-x="1466" d="M4 1470Q230 1462 367 1462Q554 1462 705 1470Q709 1454 709 1448Q709 1437 705 1423Q588 1418 534 1402T479 1350Q479 1337 496 1305L803 754H811L1147 1313Q1159 1333 1159 1354Q1159 1385 1120 1399T1001
1423Q997 1445 997 1450Q997 1458 1001 1470Q1130 1464 1235 1464Q1348 1464 1462 1470Q1466 1458 1466 1450Q1466 1434 1462 1423Q1389 1416 1339 1393T1253 1313L838 643Q838 427 848 137Q849 111 871 93T934 64T1004 50T1079 41Q1083 29 1083 14Q1083 6 1079
-6Q911 0 731 0Q552 0 383 -6Q379 6 379 14Q379 31 383 41Q429 45 457 49T527 64T591 92T614 137Q624 388 627 643L236 1327Q197 1376 140 1396T4 1423Q0 1441 0 1448Q0 1458 4 1470Z" />
<glyph unicode="Z" glyph-name="Z" horiz-adv-x="1468" d="M311 1470Q375 1469 645 1466T1047 1462Q1147 1462 1247 1470Q1280 1459 1280 1425Q788 730 334 61H664Q801 61 906 81T1087 138T1219 236T1315 369T1389 539Q1418 535 1427 518Q1380 396 1364 273T1348
0H285Q180 0 72 -6Q57 9 57 33Q526 689 1008 1405Q886 1404 794 1397T623 1369T488 1326T366 1258T253 1172T123 1057Q95 1057 82 1079Q239 1245 311 1470Z" />
<glyph unicode="[" glyph-name="bracketleft" horiz-adv-x="823" d="M741 1620V1534H444V-340H741V-426H246V1620H741Z" />
<glyph unicode="\" glyph-name="backslash" horiz-adv-x="640" d="M657 -426L-150 1620H-13L790 -426H657Z" />
<glyph unicode="]" glyph-name="bracketright" horiz-adv-x="823" d="M82 1620H578V-426H82V-340H379V1534H82V1620Z" />
<glyph unicode="^" glyph-name="asciicircum" horiz-adv-x="1227" d="M612 1323L344 1055H164L612 1505L1063 1055H881L612 1323Z" />
<glyph unicode="_" glyph-name="underscore" horiz-adv-x="1257" d="M0 -532V-424H1257V-532H0Z" />
<glyph unicode="`" glyph-name="grave" horiz-adv-x="993" d="M465 1421L707 1120L678 1083L395 1260Q338 1296 324 1309Q287 1341 287 1382Q287 1421 311 1444T373 1468Q424 1468 465 1421Z" />
<glyph unicode="a" glyph-name="a" horiz-adv-x="1038" d="M170 657Q170 767 270 838T508 909Q676 909 744 842T813 616V201Q813 145 854 145Q887 145 938 225Q974 222 987 193Q980 183 963 157T938 120T913 87T886 53T858 27T826 5T792 -8T754 -14Q704 -14 672
22T633 133Q632 132 602 104T561 67T518 34T464 0T409 -19T344 -29Q293 -29 254 -15T192 19T156 65T138 114T133 158Q133 225 155 271T239 357T391 428T633 498V637Q633 738 589 788T469 838Q402 838 357 812T301 750Q399 735 399 643Q399 601 369 569T285 537Q240
537 205 568T170 657ZM633 225V434Q541 413 481 389T390 335T346 276T334 205Q334 155 363 127T436 98Q536 98 633 225Z" />
<glyph unicode="b" glyph-name="b" horiz-adv-x="1161" d="M4 1438Q195 1456 342 1520Q370 1508 377 1493V758Q532 909 690 909Q844 909 941 795T1038 485Q1038 412 1022 342T969 204T878 85T741 3T557 -29Q458 -29 364 4T197 98Q199 197 199 580Q199 739 198
1013T197 1350Q141 1383 4 1391Q0 1407 0 1415Q0 1422 4 1438ZM594 778Q527 778 478 754T377 680Q377 356 381 156Q450 37 592 37Q622 37 652 47T717 85T776 156T819 272T836 438Q836 534 811 609T730 731T594 778Z" />
<glyph unicode="c" glyph-name="c" horiz-adv-x="983" d="M883 260Q907 255 922 238Q872 104 767 38T539 -29Q478 -29 420 -14T308 37T213 123T148 252T123 424Q123 641 256 775T588 909Q728 909 816 849T905 694Q905 641 870 606T784 571Q730 571 697 602T664
676Q664 752 741 772Q734 795 696 819T588 844Q552 844 520 836T452 800T390 729T347 607T330 424Q330 354 344 297T390 194T475 122T602 96Q648 96 689 108T755 135T810 177T850 218T883 260Z" />
<glyph unicode="d" glyph-name="d" horiz-adv-x="1192" d="M586 1438Q775 1456 924 1520Q950 1509 958 1493Q958 360 967 137Q968 111 982 93T1024 64T1069 50T1116 41Q1120 25 1120 16Q1120 10 1116 -6Q1081 -4 1045 -2T987 1T948 2Q933 2 914 1T862 -2T797 -6Q792
-4 789 -2T784 2T780 7T777 12T775 18T772 25Q776 49 776 133Q611 -29 471 -29Q317 -29 220 87T123 403Q123 472 139 541T192 677T283 795T420 877T604 909Q679 909 780 877Q778 1067 778 1350Q721 1383 586 1391Q582 1407 582 1415Q582 1422 586 1438ZM567 102Q667
102 778 209Q780 307 780 580V725Q711 844 569 844Q539 844 509 835T445 799T386 730T343 614T326 442Q326 294 387 198T567 102Z" />
<glyph unicode="e" glyph-name="e" horiz-adv-x="999" d="M860 530H315Q311 470 311 424Q314 275 398 186T623 96Q661 96 694 104T748 124T793 156T826 189T855 227T879 260Q903 255 918 238Q868 104 763 38T535 -29Q474 -29 417 -14T305 37T211 123T147 252T123
424Q123 635 252 772T569 909Q652 909 713 886T809 822T860 735T877 633Q877 583 860 530ZM545 844Q476 844 415 783T326 598H686Q696 636 696 664Q696 742 660 793T545 844Z" />
<glyph unicode="f" glyph-name="f" horiz-adv-x="741" d="M639 -6Q507 0 330 0Q208 0 76 -6Q72 10 72 16Q72 21 76 41Q109 45 129 49T181 64T229 92T246 137Q250 236 250 788H115Q109 804 109 823Q109 845 115 860H250V965Q250 1075 278 1173T361 1350T505 1474T707
1520Q811 1520 881 1468T952 1329Q952 1276 917 1237T827 1198Q774 1198 743 1224T711 1292Q711 1321 728 1348T778 1386Q758 1419 730 1428T643 1438Q551 1438 490 1372T428 1198V860H645Q651 845 651 823Q651 804 645 788H428Q428 293 436 137Q437 111 456 93T511
64T573 50T639 41Q643 21 643 14Q643 6 639 -6Z" />
<glyph unicode="g" glyph-name="g" horiz-adv-x="1053" d="M844 596Q844 438 742 343T494 248Q425 248 365 258Q305 220 305 164Q305 119 361 99T555 78Q577 78 638 80T735 82Q1014 82 1014 -147Q1014 -212 976 -284T871 -418T704 -522T492 -563Q317 -563 227
-499T137 -338Q137 -271 186 -204T334 -84Q141 -56 141 66Q141 124 184 175T303 283Q201 340 162 414T123 582Q123 640 150 698T225 803T340 879T485 909Q555 909 600 899T712 862T838 819Q843 858 869 885T936 913Q973 913 1002 882T1032 811Q1032 770 1007 741T942
711Q919 711 896 719T859 735T816 763T772 793L768 788Q805 755 824 704T844 596ZM322 -266Q322 -306 334 -342T372 -410T445 -460T557 -479Q639 -479 702 -454T799 -390T848 -317T864 -252Q864 -212 857 -185T831 -132T770 -93T666 -80Q632 -80 539 -84T420 -88Q374
-120 348 -167T322 -266ZM326 580Q326 313 485 313Q561 313 601 379T641 598Q641 668 625 719T584 796T533 833T481 844Q414 844 370 781T326 580Z" />
<glyph unicode="h" glyph-name="h" horiz-adv-x="1225" d="M66 1438Q256 1456 403 1520Q430 1509 438 1493V725Q537 809 624 859T801 909Q914 909 962 845T1012 645L1020 137Q1021 111 1035 93T1077 64T1122 50T1169 41Q1174 16 1174 14Q1174 9 1169 -6Q1040 0
934 0Q827 0 698 -6Q694 10 694 18Q694 25 698 41Q724 45 741 49T781 64T815 92T827 137L829 612Q829 793 721 793Q620 793 438 662Q442 246 446 137Q447 116 458 100T484 74T522 57T559 47T596 41Q602 29 602 16T596 -6Q464 0 340 0Q218 0 86 -6Q82 10 82 16Q82
21 86 41Q119 45 139 49T191 64T239 92T256 137Q260 236 260 580Q260 739 259 1013T258 1350Q201 1383 66 1391Q61 1404 61 1415Q61 1425 66 1438Z" />
<glyph unicode="i" glyph-name="i" horiz-adv-x="674" d="M76 823Q270 843 414 905Q439 895 449 879Q449 360 457 137Q458 111 472 93T514 64T559 50T606 41Q612 29 612 16T606 -6Q474 0 350 0Q228 0 96 -6Q92 10 92 16Q92 21 96 41Q129 45 150 49T202 64T249
92T266 137Q270 236 270 377Q270 424 269 537T268 735Q211 770 76 776Q72 792 72 801Q72 807 76 823ZM233 1241Q233 1292 269 1328T356 1364Q407 1364 443 1328T479 1241Q479 1191 443 1155T356 1118Q306 1118 270 1154T233 1241Z" />
<glyph unicode="j" glyph-name="j" horiz-adv-x="631" d="M250 137L246 735Q189 770 53 776Q49 792 49 801Q49 807 53 823Q249 843 391 905Q418 896 426 879Q426 652 428 378T430 -72Q430 -166 416 -246T369 -401T271 -519T115 -563Q11 -563 -56 -505T-123 -358Q-123
-300 -88 -263T6 -225Q60 -225 90 -254T121 -336Q121 -372 99 -401T33 -438Q46 -498 123 -498Q188 -498 219 -439T250 -236V137ZM211 1241Q211 1292 247 1328T334 1364Q384 1364 420 1328T457 1241Q457 1191 421 1155T334 1118Q283 1118 247 1154T211 1241Z" />
<glyph unicode="k" glyph-name="k" horiz-adv-x="1118" d="M696 41Q784 50 784 88Q784 110 762 137L489 487H440Q440 248 446 137Q446 111 459 93T499 64T543 50T590 41Q596 29 596 16T590 -6Q458 0 340 0Q218 0 86 -6Q82 10 82 16Q82 21 86 41Q119 45 139 49T191
64T239 92T256 137Q260 236 259 761T258 1350Q201 1383 66 1391Q61 1404 61 1415Q61 1425 66 1438Q256 1456 403 1520Q430 1509 438 1493L440 551H492L694 743Q713 765 713 788Q713 830 618 840Q614 856 614 862Q614 871 618 887Q748 881 825 881Q909 881 1038
887Q1042 875 1042 866Q1042 860 1038 840Q949 830 891 811T786 743L627 582L979 137Q1039 59 1159 41Q1163 21 1163 14Q1163 6 1159 -6Q1030 0 926 0Q825 0 696 -6Q692 10 692 18Q692 25 696 41Z" />
<glyph unicode="l" glyph-name="l" horiz-adv-x="664" d="M66 1438Q256 1456 403 1520Q430 1509 438 1493Q438 360 446 137Q447 116 458 100T484 74T522 57T559 47T596 41Q602 29 602 16T596 -6Q464 0 340 0Q218 0 86 -6Q82 10 82 16Q82 21 86 41Q119 45 139 49T191
64T239 92T256 137Q260 236 260 580Q260 739 259 1013T258 1350Q201 1383 66 1391Q61 1404 61 1415Q61 1425 66 1438Z" />
<glyph unicode="m" glyph-name="m" horiz-adv-x="1780" d="M1262 41Q1287 45 1303 49T1340 64T1370 92T1380 137L1382 612Q1382 793 1274 793Q1220 793 1157 759T1006 657V645L1014 137Q1015 111 1029 93T1071 64T1116 50T1163 41Q1167 21 1167 14Q1167 6 1163
-6Q1034 0 928 0Q831 0 702 -6Q698 10 698 18Q698 25 702 41Q727 45 744 49T781 64T811 92T821 137L823 612Q823 793 715 793Q661 793 601 760T449 659Q449 366 457 137Q458 111 471 93T508 64T551 50T596 41Q602 29 602 16Q602 6 596 -6Q464 0 350 0Q228 0 96
-6Q92 10 92 16Q92 21 96 41Q129 45 150 49T202 64T249 92T266 137Q270 236 270 377Q270 424 269 537T268 735Q211 770 76 776Q72 792 72 801Q72 807 76 823Q270 843 414 905Q439 895 449 879V721Q496 764 528 790T606 848T699 894T795 909Q893 909 941 863T1001
717Q1052 763 1082 788T1162 846T1258 894T1354 909Q1467 909 1515 845T1565 645L1575 137Q1576 111 1590 93T1632 64T1677 50T1724 41Q1729 16 1729 14Q1729 9 1724 -6Q1595 0 1487 0Q1391 0 1262 -6Q1257 14 1257 18Q1257 21 1262 41Z" />
<glyph unicode="n" glyph-name="n" horiz-adv-x="1241" d="M606 41Q612 29 612 16Q612 6 606 -6Q474 0 350 0Q228 0 96 -6Q92 10 92 16Q92 21 96 41Q129 45 150 49T202 64T249 92T266 137Q270 236 270 377Q270 424 269 537T268 735Q211 770 76 776Q72 792 72 801Q72
807 76 823Q270 843 414 905Q439 895 449 879V721Q546 806 635 857T815 909Q929 909 976 845T1026 645L1036 137Q1037 111 1051 93T1093 64T1139 50T1186 41Q1190 21 1190 14Q1190 6 1186 -6Q1057 0 948 0Q842 0 713 -6Q709 10 709 18Q709 25 713 41Q739 45 756
49T796 64T830 92T842 137L844 612Q844 793 735 793Q633 793 449 657Q449 366 457 137Q458 111 472 93T514 64T559 50T606 41Z" />
<glyph unicode="o" glyph-name="o" horiz-adv-x="1106" d="M553 909Q652 909 731 874T867 777T953 629T983 440Q983 232 866 102Q750 -29 553 -29Q455 -29 376 5T240 102T154 251T123 440Q123 542 153 628T238 777T374 874T553 909ZM553 844Q451 844 390 745Q330
646 330 440Q330 234 390 136T553 37Q655 37 715 136T776 440Q776 543 760 619T715 745T645 819T553 844Z" />
<glyph unicode="p" glyph-name="p" horiz-adv-x="1167" d="M14 823Q210 843 352 905Q379 896 387 879V762Q541 909 696 909Q850 909 947 795T1044 485Q1044 412 1028 342T976 204T886 85T750 3T569 -29Q476 -29 389 6Q389 -266 395 -395Q396 -416 412 -432T449
-458T506 -475T565 -485T627 -492Q633 -504 633 -516T627 -539Q419 -532 289 -532Q189 -532 35 -539Q31 -521 31 -516Q31 -512 35 -492Q70 -487 89 -483T140 -469T188 -440T205 -395Q209 -297 209 47Q209 207 208 440T207 735Q150 770 14 776Q10 792 10 801Q10
807 14 823ZM600 778Q535 778 486 754T387 684V164Q446 37 598 37Q628 37 658 47T723 85T782 156T825 272T842 438Q842 534 817 609T736 731T600 778Z" />
<glyph unicode="q" glyph-name="q" horiz-adv-x="1145" d="M969 -395Q969 -413 975 -427T996 -451T1022 -467T1056 -479T1087 -486T1118 -492Q1124 -504 1124 -516T1118 -539Q964 -532 862 -532Q732 -532 547 -539Q543 -521 543 -516Q543 -512 547 -492Q579 -489
595 -487T644 -480T695 -468T736 -451T768 -427T778 -395Q782 -297 782 47V150Q613 -29 471 -29Q317 -29 220 87T123 403Q123 472 139 541T192 677T283 795T420 877T604 909Q667 909 780 879T930 844Q952 833 961 809Q961 -172 969 -395ZM567 102Q661 102 782 227Q780
424 780 715Q710 844 569 844Q539 844 509 835T445 799T386 730T343 614T326 442Q326 294 387 198T567 102Z" />
<glyph unicode="r" glyph-name="r" horiz-adv-x="899" d="M76 823Q270 843 414 905Q439 895 449 879V707Q486 777 559 843T713 909Q773 909 810 874T848 776Q848 717 813 684T725 651Q676 651 645 682T610 766Q568 748 515 686T449 563Q449 340 457 137Q458 111
476 93T529 64T587 50T647 41Q653 29 653 16Q653 6 647 -6Q497 0 350 0Q228 0 96 -6Q92 10 92 16Q92 21 96 41Q129 45 150 49T202 64T249 92T266 137Q270 236 270 377Q270 424 269 537T268 735Q211 770 76 776Q72 792 72 801Q72 807 76 823Z" />
<glyph unicode="s" glyph-name="s" horiz-adv-x="897" d="M463 -29Q414 -29 375 -21T314 -4T256 23Q217 23 141 -6Q128 2 123 12Q128 28 135 121T143 287Q156 293 190 293Q208 235 227 194T277 115T351 57T451 37Q538 37 587 82T637 184Q637 227 623 257T561 320T422
387Q366 407 327 424T247 466T180 517T139 581T123 662Q123 694 130 725T159 791T213 850T300 892T424 909Q452 909 473 906T525 896T559 887Q581 892 604 900T631 909H657Q681 765 719 664Q707 651 680 651Q597 751 539 797T406 844Q348 844 304 818T260 739Q260
672 313 634T512 537Q579 510 617 492T695 449T752 398T783 334T795 248Q795 142 698 57T463 -29Z" />
<glyph unicode="t" glyph-name="t" horiz-adv-x="801" d="M360 1079Q370 1083 383 1083T410 1079V860H713Q719 845 719 823Q719 804 713 788H410V254Q410 96 555 96Q610 96 649 117T737 180Q762 177 770 156Q726 77 640 24T451 -29Q209 -29 209 264V788H86Q82
806 82 811Q82 812 86 834Q134 858 159 873T224 918T296 986T360 1079Z" />
<glyph unicode="u" glyph-name="u" horiz-adv-x="1245" d="M59 887Q95 885 131 883T188 880T227 879Q242 879 262 880T316 883T383 887Q401 881 412 856Q411 848 409 833T405 796T403 743L401 268Q401 88 510 88Q611 88 797 221Q797 519 788 743Q788 761 781 775T760
799T734 815T700 827T669 834T639 840Q635 856 635 864Q635 871 639 887Q674 885 710 883T768 880T807 879Q822 879 842 880T896 883T963 887Q968 884 971 882T977 876T981 871T984 864T987 856Q979 802 979 743Q973 596 973 504Q973 456 975 343T977 145Q1034
112 1169 104Q1174 79 1174 78Q1174 72 1169 57Q980 39 831 -25Q805 -14 797 2V158Q697 72 609 22T430 -29Q316 -29 269 35T219 236L211 743Q209 766 203 777T182 799T155 815T121 827T90 834T59 840Q55 856 55 864Q55 871 59 887Z" />
<glyph unicode="v" glyph-name="v" horiz-adv-x="977" d="M-37 887Q95 881 229 881Q342 881 471 887Q475 871 475 862Q475 856 471 840Q443 838 426 836T382 827T343 809T330 780Q330 771 338 743L520 238H526L739 743Q750 770 750 786Q750 832 635 840Q631 856
631 862Q631 871 635 887Q752 881 780 881Q864 881 993 887Q997 875 997 866Q997 860 993 840Q874 835 831 743L489 -29H440L137 743Q127 769 108 787T58 816T11 831T-37 840Q-41 848 -41 862Q-41 877 -37 887Z" />
<glyph unicode="w" glyph-name="w" horiz-adv-x="1485" d="M-37 887Q89 881 213 881Q303 881 426 887Q430 871 430 862Q430 856 426 840Q402 838 386 836T350 827T320 809T309 780Q309 771 317 743L522 233H526L709 635L668 743Q658 769 642 787T603 816T564 831T522
840Q518 848 518 862Q518 877 522 887Q648 881 754 881Q858 881 981 887Q985 871 985 862Q985 856 981 840Q954 838 938 836T898 827T861 809T848 780Q848 771 856 743L1040 233H1044L1260 743Q1270 768 1270 786Q1270 831 1161 840Q1157 856 1157 862Q1157 871
1161 887Q1272 881 1298 881Q1378 881 1501 887Q1505 875 1505 866Q1505 860 1501 840Q1385 835 1348 743L1012 -29H965L748 532L494 -29H446L129 743Q118 768 99 786T52 815T8 830T-37 840Q-41 848 -41 862Q-41 877 -37 887Z" />
<glyph unicode="x" glyph-name="x" horiz-adv-x="1010" d="M18 887Q150 881 274 881Q367 881 496 887Q500 871 500 862Q500 856 496 840Q471 838 455 836T419 828T391 811T381 784Q381 775 383 767T389 752T393 743L547 528L709 743Q731 774 731 786Q731 837 629
840Q625 856 625 862Q625 871 629 887Q746 881 774 881Q858 881 987 887Q991 875 991 866Q991 860 987 840Q943 838 905 821T849 787T803 743L590 471L831 137Q855 108 877 89T925 61T963 48T1006 41Q1010 33 1010 18Q1010 4 1006 -6Q874 0 750 0Q657 0 528 -6Q524
10 524 18Q524 25 528 41Q563 44 583 47T623 62T643 96T631 137L465 367L283 137Q260 109 260 94Q260 44 362 41Q367 28 367 18Q367 7 362 -6Q248 0 217 0Q133 0 4 -6Q0 6 0 14Q0 21 4 41Q48 43 86 60T143 93T188 137L422 426L193 743Q169 772 147 791T99 819T61
832T18 840Q14 848 14 862Q14 877 18 887Z" />
<glyph unicode="y" glyph-name="y" horiz-adv-x="926" d="M-68 887Q64 881 199 881Q322 881 451 887Q455 871 455 862Q455 856 451 840Q421 838 403 836T357 827T314 809T299 780Q299 771 307 743L510 238H516L709 743Q719 768 719 786Q719 832 604 840Q600 856
600 862Q600 871 604 887Q721 881 750 881Q834 881 963 887Q967 875 967 866Q967 860 963 840Q838 835 801 743L492 4H494L383 -287Q321 -449 268 -506T131 -563Q64 -563 20 -523T-25 -418Q-25 -359 8 -325T90 -291Q135 -291 159 -318T184 -379Q184 -427 141 -455Q146
-477 174 -477Q206 -477 234 -441T307 -285L418 0L106 743Q95 768 75 786T27 815T-21 830T-68 840Q-72 848 -72 862Q-72 877 -68 887Z" />
<glyph unicode="z" glyph-name="z" horiz-adv-x="952" d="M168 887Q312 879 475 879Q653 879 801 887Q819 868 819 850L303 72H524Q577 72 619 84T690 114T749 167T796 232T846 315Q864 315 881 307L817 -6Q642 0 467 0Q283 0 109 -6Q90 5 82 35L606 825H473Q247
825 145 618Q138 618 121 625T98 637L168 887Z" />
<glyph unicode="{" glyph-name="braceleft" horiz-adv-x="807" d="M102 604V649Q151 656 190 674T254 717T297 775T324 839T339 908T345 973T346 1034Q346 1056 343 1129T340 1231Q340 1267 341 1289T345 1346T356 1402T377 1454T411 1504T460 1546T528 1584T617
1614T731 1636L745 1587Q710 1583 678 1570T615 1534T566 1471T547 1378Q547 1345 555 1243T563 1073Q563 1042 562 1018T553 953T534 880T497 806T439 731T353 663T236 604Q301 579 353 545T438 478T496 403T533 329T553 256T561 191T563 135Q563 68 555 -34T547
-170Q547 -222 565 -262T614 -325T677 -362T745 -379L731 -428Q669 -420 618 -406T528 -377T461 -339T411 -296T378 -247T357 -195T346 -138T341 -82T340 -23Q340 6 343 79T346 180T345 234T339 299T325 369T297 433T254 491T190 533T102 559V604Z" />
<glyph unicode="|" glyph-name="bar" horiz-adv-x="444" d="M164 -477V1817H281V-477H164Z" />
<glyph unicode="}" glyph-name="braceright" horiz-adv-x="807" d="M571 604Q506 629 454 663T369 730T311 805T274 880T254 953T246 1017T244 1073Q244 1140 252 1242T260 1378Q260 1430 242 1470T192 1534T129 1570T61 1587L76 1636Q138 1628 189 1614T279 1585T346
1547T396 1504T429 1455T450 1403T461 1346T466 1290T467 1231Q467 1202 464 1129T461 1034Q461 999 462 974T468 909T482 839T510 775T553 717T617 675T705 649V559Q656 552 617 534T553 491T510 433T483 369T468 300T462 235T461 174Q461 152 464 79T467 -23Q467
-59 466 -81T462 -138T451 -194T430 -246T396 -296T347 -338T279 -376T190 -406T76 -428L61 -379Q96 -375 129 -362T192 -326T241 -262T260 -170Q260 -137 252 -35T244 135Q244 166 245 190T254 255T273 329T310 403T368 477T454 545T571 604Z" />
<glyph unicode="~" glyph-name="asciitilde" horiz-adv-x="1378" d="M164 401Q177 436 193 469T240 546T307 623T397 679T512 702Q626 702 799 612Q892 567 954 567Q1089 567 1133 727H1214Q1182 579 1086 490T870 401Q787 401 662 461Q645 469 605 488T543 516T488
534T428 543Q363 543 321 508T244 401H164Z" />
<glyph unicode="&#xa0;" glyph-name="nbspace" horiz-adv-x="532" />
<glyph unicode="&#xa1;" glyph-name="exclamdown" horiz-adv-x="717" d="M319 1126H397L403 985Q408 857 419 721T449 436Q485 143 485 86Q485 50 471 25T434 -10Q411 -21 394 -25T358 -29Q341 -29 323 -25T282 -10Q260 0 246 25T231 86Q231 155 264 449Q281 597
292 730T311 985L319 1126ZM446 1466Q483 1430 483 1378Q483 1326 446 1289Q410 1253 358 1253Q306 1253 269 1289Q233 1326 233 1378Q233 1430 269 1466Q306 1503 358 1503Q410 1503 446 1466Z" />
<glyph unicode="&#xa2;" glyph-name="cent" horiz-adv-x="1065" d="M913 260Q939 255 952 238Q907 117 816 51T614 -27V-164H537V-27Q463 -22 397 6T275 87T187 226T154 424Q154 620 260 749T537 903V1051H614V909Q754 907 845 847T936 694Q936 641 901 606T815
571Q761 571 734 600T707 674Q707 755 772 772Q766 794 724 818T614 844V92Q664 92 708 105T780 132T838 175T880 217T913 260ZM537 834Q356 776 356 424Q356 306 400 221T537 106V834Z" />
<glyph unicode="&#xa3;" glyph-name="sterling" horiz-adv-x="1065" d="M348 838V774Q584 774 715 780V696Q584 700 348 700V694Q348 412 356 61H527Q637 61 714 86T836 138T920 209T982 292T1032 389Q1036 387 1042 386T1052 383T1059 380T1065 373Q984 197 963
0H356Q109 0 -59 -6Q-63 6 -63 14Q-63 21 -59 41Q-20 45 4 49T65 64T121 92T141 137Q152 423 152 700Q83 700 -51 696V780Q50 774 152 774V838Q152 962 168 1062T212 1231T279 1349T361 1429T455 1475T551 1497T647 1503Q729 1503 782 1494T888 1470T985 1448Q973
1390 973 1323Q973 1220 999 1106Q998 1101 991 1099T971 1095T956 1094Q904 1254 873 1308Q819 1403 724 1424Q690 1432 647 1432Q590 1432 545 1415T468 1369T415 1294T380 1202T360 1090T350 968T348 838Z" />
<glyph unicode="&#xa4;" glyph-name="currency" horiz-adv-x="1065" d="M932 1178L1016 1098L868 952Q954 851 954 696Q954 547 866 440L1016 293L932 213L786 360Q731 315 663 294T532 272Q401 272 274 360L131 213L49 293L197 440Q109 564 109 696Q109 838 197
950L49 1098L131 1178L274 1030Q393 1116 532 1116Q682 1116 786 1032L932 1178ZM532 1006Q468 1006 412 982T314 915T248 817T223 696Q223 632 247 576T313 477T411 410T532 385Q596 385 652 409T751 476T817 575T842 696Q842 760 818 816T751 915T653 981T532
1006Z" />
<glyph unicode="&#xa5;" glyph-name="yen" horiz-adv-x="1065" d="M354 1307L590 754H602L858 1313Q870 1333 870 1354Q870 1386 837 1400T731 1423Q727 1445 727 1450Q727 1458 731 1470Q854 1464 940 1464Q1018 1464 1124 1470Q1128 1458 1128 1450Q1128 1434
1124 1423Q1008 1411 958 1313L666 717Q795 717 924 723V639Q726 643 629 643V520Q776 520 924 526V442Q726 446 629 446Q633 246 637 137Q638 111 658 93T718 64T785 50T856 41Q860 29 860 14Q860 6 856 -6Q697 0 528 0Q362 0 203 -6Q199 6 199 14Q199 31 203
41Q246 45 273 49T340 64T400 92T422 137Q426 246 430 446Q335 446 137 442V526Q286 520 432 520V643Q335 643 137 639V723Q266 717 399 717L125 1327Q88 1378 47 1397T-59 1423Q-63 1441 -63 1448Q-63 1458 -59 1470Q153 1462 242 1462Q392 1462 535 1470Q539
1454 539 1448Q539 1437 535 1423Q429 1418 387 1403T344 1350Q344 1333 354 1307Z" />
<glyph unicode="&#xa6;" glyph-name="brokenbar" horiz-adv-x="444" d="M281 1817V864H164V1817H281ZM164 -477V475H281V-477H164Z" />
<glyph unicode="&#xa7;" glyph-name="section" horiz-adv-x="1233" d="M811 1339Q787 1385 739 1408T629 1432Q545 1432 488 1385T430 1274Q430 1148 565 1042L801 854Q851 815 880 791T950 725T1013 650T1052 570T1069 477Q1069 417 1047 362T987 264T912 191T834
137Q932 35 932 -102Q932 -234 831 -331T588 -428Q440 -428 347 -354T254 -180Q254 -127 283 -95T375 -63Q418 -63 446 -92T475 -164Q475 -197 459 -224T416 -264Q463 -356 588 -356Q630 -356 675 -338T758 -275T795 -168Q795 -98 753 -41T625 90L342 326Q305 356
279 382T224 446T180 532T164 633Q164 736 219 812T393 958Q360 997 337 1038T306 1115T294 1169T291 1204Q291 1335 382 1419T629 1503Q778 1503 875 1429T973 1255Q973 1202 944 1171T852 1139Q808 1139 780 1168T752 1239Q752 1272 768 1299T811 1339ZM748 657L451
907Q301 827 301 717Q301 679 314 645T355 577T403 525T461 473L786 193Q930 279 930 403Q930 439 916 473T873 540T818 597T748 657Z" />
<glyph unicode="&#xa8;" glyph-name="dieresis" horiz-adv-x="1124" d="M256 1239Q256 1263 265 1285T291 1323T330 1348T377 1358Q401 1358 423 1349T461 1323T486 1285T496 1239Q496 1214 487 1192T461 1154T423 1128T377 1118Q351 1118 329 1127T291 1153T266
1191T256 1239ZM629 1239Q629 1264 638 1285T664 1323T701 1348T748 1358Q772 1358 794 1349T832 1323T858 1286T868 1239Q868 1213 859 1191T833 1153T795 1128T748 1118Q723 1118 701 1127T663 1153T638 1191T629 1239Z" />
<glyph unicode="&#xa9;" glyph-name="copyright" horiz-adv-x="1862" d="M102 791Q102 905 131 1010T215 1208T345 1375T513 1505T711 1588T932 1618Q1047 1618 1153 1588T1352 1503T1519 1372T1647 1204T1730 1008T1759 791Q1759 678 1730 573T1648 375T1520
207T1353 76T1155 -9T932 -39Q818 -39 713 -10T515 73T347 202T217 369T132 568T102 791ZM201 791Q201 634 261 496T422 263T656 112T932 57Q1074 57 1207 112T1440 263T1602 497T1663 791Q1663 944 1602 1081T1441 1314T1207 1466T932 1522Q789 1522 656 1467T423
1317T262 1085T201 791ZM1251 545L1284 514Q1227 453 1155 413T1027 360T922 346Q844 346 780 365T673 416T597 489T547 571T518 656T503 731T500 788Q500 992 618 1119T924 1247Q976 1247 1018 1243T1083 1233T1149 1217T1223 1200Q1221 1188 1221 1161Q1221 1053
1260 936L1229 926Q1167 1073 1093 1132T930 1192Q880 1192 840 1175T775 1132T730 1068T702 996T688 919T681 851T680 795Q680 600 756 509T965 418Q1114 418 1251 545Z" />
<glyph unicode="&#xaa;" glyph-name="ordfeminine" horiz-adv-x="819" d="M109 1296Q109 1380 179 1437T356 1503Q375 1505 391 1505Q530 1505 586 1450T643 1262V915Q643 870 678 870Q699 870 748 936Q777 933 788 909Q784 903 766 876T741 839T707 798T651 751T594
737Q553 737 527 766T494 858Q465 829 449 816T399 776T328 738T252 725Q199 725 162 741T108 784T85 834T78 881Q78 988 162 1043T494 1163V1278Q494 1363 456 1404T356 1446Q301 1446 263 1424T217 1372Q299 1361 299 1284Q299 1248 274 1221T205 1194Q167 1194
138 1221T109 1296ZM494 936V1110Q393 1087 337 1058T264 997T246 920Q246 877 269 853T330 829Q412 829 494 936Z" />
<glyph unicode="&#xab;" glyph-name="guillemotleft" horiz-adv-x="1114" d="M358 424L571 90L514 43L162 424L514 803L571 758L358 424ZM739 424L950 90L893 43L541 424L893 803L950 758L739 424Z" />
<glyph unicode="&#xac;" glyph-name="logicalnot" horiz-adv-x="1604" d="M164 414V526H1440V172H1325V414H164Z" />
<glyph unicode="&#xad;" glyph-name="uni00AD" horiz-adv-x="936" d="M164 412V537H772V412H164Z" />
<glyph unicode="&#xae;" glyph-name="registered" horiz-adv-x="1862" d="M102 791Q102 905 131 1010T215 1208T345 1375T513 1505T711 1588T932 1618Q1047 1618 1153 1588T1352 1503T1519 1372T1647 1204T1730 1008T1759 791Q1759 678 1730 573T1648 375T1520
207T1353 76T1155 -9T932 -39Q818 -39 713 -10T515 73T347 202T217 369T132 568T102 791ZM201 791Q201 634 261 496T422 263T656 112T932 57Q1074 57 1207 112T1440 263T1602 497T1663 791Q1663 944 1602 1081T1441 1314T1207 1466T932 1522Q789 1522 656 1467T423
1317T262 1085T201 791ZM639 440Q649 652 649 819Q649 931 641 1153Q634 1198 506 1208Q502 1217 502 1227Q502 1229 508 1241Q638 1237 723 1237Q751 1237 822 1239T946 1241Q1084 1241 1163 1174T1243 999Q1243 914 1191 845T1051 745Q1075 702 1161 586Q1228
496 1290 444T1423 385Q1427 377 1427 369Q1427 360 1425 352Q1384 354 1292 354Q1202 354 1161 352Q1028 505 905 725Q845 725 795 735Q795 592 801 440Q808 395 938 385Q942 377 942 367Q942 360 938 352Q802 356 723 356Q636 356 502 352Q502 353 501 358T500
367Q500 377 504 385Q639 396 639 440ZM891 1198Q821 1198 801 1196Q795 1012 795 786Q834 774 895 774Q957 774 997 810T1052 894T1067 999Q1067 1087 1023 1142T891 1198Z" />
<glyph unicode="&#xaf;" glyph-name="overscore" horiz-adv-x="1106" d="M870 1286V1163H236V1286H870Z" />
<glyph unicode="&#xb0;" glyph-name="degree" horiz-adv-x="791" d="M164 1280Q164 1327 182 1369T232 1442T306 1492T395 1511Q442 1511 484 1493T558 1443T608 1369T627 1280Q627 1233 609 1191T559 1118T485 1069T395 1051Q347 1051 305 1069T232 1118T182
1190T164 1280ZM250 1280Q250 1224 292 1180T395 1135Q452 1135 496 1178T541 1280Q541 1335 501 1380T395 1425Q328 1425 289 1379T250 1280Z" />
<glyph unicode="&#xb1;" glyph-name="plusminus" horiz-adv-x="1464" d="M791 328H674V735H164V850H674V1260H791V850H1300V735H791V328ZM1300 121H164V236H1300V121Z" />
<glyph unicode="&#xb2;" glyph-name="twosuperior" horiz-adv-x="717" d="M57 795L326 1013Q394 1068 422 1120T451 1260Q451 1338 409 1373T311 1408Q253 1408 221 1371T188 1264Q188 1222 201 1188T227 1139L240 1125Q233 1100 207 1097Q203 1099 196 1102T169
1121T136 1155T110 1208T98 1281Q98 1389 167 1445T350 1502Q471 1502 541 1441T612 1275Q612 1229 597 1188T553 1113T502 1059T447 1013L262 865V857H418Q469 857 516 898T588 984Q610 984 623 972L574 732H82Q66 745 57 795Z" />
<glyph unicode="&#xb3;" glyph-name="threesuperior" horiz-adv-x="717" d="M230 1130L314 1157Q429 1194 429 1309Q429 1349 397 1379T314 1409Q254 1409 227 1379T199 1309Q199 1266 207 1241Q203 1234 201 1231T189 1224T164 1217Q136 1252 126 1273T115 1323Q115
1404 176 1453T369 1503Q467 1503 535 1457T603 1329Q603 1271 568 1229T459 1167V1165Q535 1152 585 1108T635 989Q635 910 583 848T456 756T304 725Q236 725 186 738T112 774T77 817T66 858Q66 894 89 923T150 952Q250 952 250 874Q250 850 242 838T211 811Q230
784 287 784Q365 784 413 833T461 975Q461 1037 425 1064T336 1092Q294 1092 257 1075L230 1130Z" />
<glyph unicode="&#xb4;" glyph-name="acute" horiz-adv-x="1382" d="M481 1120L723 1421Q764 1468 815 1468Q853 1468 877 1445T901 1382Q901 1341 864 1309Q850 1296 793 1260L510 1083L481 1120Z" />
<glyph unicode="&#xb5;" glyph-name="mu" horiz-adv-x="1245" d="M59 887Q95 885 131 883T188 880T227 879Q242 879 262 880T316 883T383 887Q401 881 412 856Q403 730 401 317Q401 219 454 158T567 96Q666 96 797 213Q797 517 788 743Q788 761 781 775T760 799T734
815T700 827T669 834T639 840Q635 856 635 864Q635 871 639 887Q674 885 710 883T768 880T807 879Q822 879 842 880T896 883T963 887Q968 884 971 882T977 876T981 871T984 864T987 856Q973 733 973 504Q973 456 975 343T977 145Q1034 112 1169 104Q1174 79 1174
78Q1174 72 1169 57Q980 39 831 -25Q805 -14 797 2V137Q729 54 669 15T518 -25Q439 -25 390 5T313 119H301Q304 4 324 -97T363 -272T381 -401Q381 -491 345 -528T264 -565Q217 -565 181 -526T145 -410Q145 -345 163 -256T200 -40T221 238L211 743Q209 761 203 775T182
799T155 815T121 827T90 834T59 840Q55 856 55 864Q55 871 59 887Z" />
<glyph unicode="&#xb6;" glyph-name="paragraph" horiz-adv-x="1331" d="M526 -457V889Q491 889 459 891T385 902T308 923T238 960T178 1015T138 1094T123 1198Q123 1503 492 1503H1147V1430H1018V-457H887V1430H659V-457H526Z" />
<glyph unicode="&#xb7;" glyph-name="middot" horiz-adv-x="578" d="M289 878Q314 878 337 868T377 841T404 801T414 753Q414 728 405 706T378 666T338 638T289 628Q263 628 240 637T200 664T174 704T164 753Q164 779 174 802T201 842T240 868T289 878Z" />
<glyph unicode="&#xb8;" glyph-name="cedilla" horiz-adv-x="1055" d="M449 0H541L504 -113Q532 -109 569 -109Q647 -109 692 -146T737 -252Q737 -324 677 -376T510 -428Q378 -428 317 -334L344 -303Q389 -350 475 -350Q525 -350 554 -324T584 -256Q584 -216 559
-195T487 -174Q443 -174 391 -188L449 0Z" />
<glyph unicode="&#xb9;" glyph-name="onesuperior" horiz-adv-x="717" d="M568 1434Q492 1421 468 1401Q449 1384 448 1360Q441 1196 441 1102T448 844Q449 824 460 810T495 787T531 777T568 770Q573 764 573 752Q573 737 568 733Q501 737 357 737Q216 737 151
733Q147 745 147 752Q147 758 151 770Q179 774 194 776T235 787T275 809T288 844Q290 918 290 1028Q290 1286 288 1360Q288 1379 276 1393T241 1414T200 1426T159 1433Q153 1434 151 1434Q147 1446 147 1452T151 1470Q216 1466 357 1466Q501 1466 568 1470Q573
1466 573 1452Q573 1440 568 1434Z" />
<glyph unicode="&#xba;" glyph-name="ordmasculine" horiz-adv-x="819" d="M410 1503Q491 1503 557 1475T669 1394T741 1271T766 1114Q766 942 670 833Q574 725 410 725Q328 725 262 753T150 834T78 957T53 1114Q53 1200 78 1271T150 1394T263 1474T410 1503ZM410
1448Q326 1448 276 1367T225 1114Q225 943 275 862T410 780Q495 780 545 861T596 1114Q596 1285 546 1366T410 1448Z" />
<glyph unicode="&#xbb;" glyph-name="guillemotright" horiz-adv-x="1116" d="M377 424L164 758L221 803L573 424L221 43L164 90L377 424ZM756 424L543 758L602 803L952 424L602 43L543 90L756 424Z" />
<glyph unicode="&#xbc;" glyph-name="onequarter" horiz-adv-x="1597" d="M573 1434Q497 1421 473 1401Q454 1384 453 1360Q446 1196 446 1102T453 844Q454 824 465 810T500 787T536 777T573 770Q578 764 578 752Q578 737 573 733Q506 737 362 737Q221 737 156
733Q152 745 152 752Q152 758 156 770Q184 774 199 776T240 787T280 809T293 844Q295 918 295 1028Q295 1286 293 1360Q293 1379 281 1393T246 1414T205 1426T164 1433Q158 1434 156 1434Q152 1446 152 1452T156 1470Q221 1466 362 1466Q506 1466 573 1470Q578
1466 578 1452Q578 1440 573 1434ZM447 -135L355 -111L1093 1565L1189 1540L447 -135ZM847 202V245L1273 738H1336V292H1447V202H1336V1H1179V202H847ZM972 292H1179V515L972 292Z" />
<glyph unicode="&#xbd;" glyph-name="onehalf" horiz-adv-x="1597" d="M447 -135L355 -111L1093 1565L1189 1540L447 -135ZM575 1434Q499 1421 475 1401Q456 1384 455 1360Q448 1196 448 1102T455 844Q456 824 467 810T502 787T538 777T575 770Q580 764 580 752Q580
737 575 733Q508 737 364 737Q223 737 158 733Q154 745 154 752Q154 758 158 770Q186 774 201 776T242 787T282 809T295 844Q297 918 297 1028Q297 1286 295 1360Q295 1379 283 1393T248 1414T207 1426T166 1433Q160 1434 158 1434Q154 1446 154 1452T158 1470Q223
1466 364 1466Q508 1466 575 1470Q580 1466 580 1452Q580 1440 575 1434ZM913 65L1182 283Q1250 338 1278 390T1307 530Q1307 608 1265 643T1167 678Q1109 678 1077 641T1044 534Q1044 492 1057 458T1083 409L1096 395Q1089 370 1063 367Q1059 369 1052 372T1025
391T992 425T966 478T954 551Q954 659 1023 715T1206 772Q1327 772 1397 711T1468 545Q1468 499 1453 458T1409 383T1358 329T1303 283L1118 135V127H1274Q1325 127 1372 168T1444 254Q1466 254 1479 242L1430 2H938Q922 15 913 65Z" />
<glyph unicode="&#xbe;" glyph-name="threequarters" horiz-adv-x="1597" d="M496 -135L404 -111L1142 1565L1238 1540L496 -135ZM868 202V245L1294 738H1357V292H1468V202H1357V1H1200V202H868ZM993 292H1200V515L993 292ZM252 1130L336 1157Q451 1194 451 1309Q451
1349 419 1379T336 1409Q276 1409 249 1379T221 1309Q221 1266 229 1241Q225 1234 223 1231T211 1224T186 1217Q158 1252 148 1273T137 1323Q137 1404 198 1453T391 1503Q489 1503 557 1457T625 1329Q625 1271 590 1229T481 1167V1165Q557 1152 607 1108T657 989Q657
910 605 848T478 756T326 725Q258 725 208 738T134 774T99 817T88 858Q88 894 111 923T172 952Q272 952 272 874Q272 850 264 838T233 811Q252 784 309 784Q387 784 435 833T483 975Q483 1037 447 1064T358 1092Q316 1092 279 1075L252 1130Z" />
<glyph unicode="&#xbf;" glyph-name="questiondown" horiz-adv-x="1030" d="M578 1126H655V985Q655 862 622 791Q589 721 536 672T451 589T391 512Q332 421 332 278Q332 238 342 197T377 121T443 66T547 44Q652 44 713 84Q774 123 774 159Q713 184 713 251Q713
275 721 295T745 330T780 353T825 362Q883 362 915 331T948 239Q948 193 923 147T850 61T723 -4T545 -29Q422 -29 324 7Q275 25 234 53T164 119T118 202T102 300Q102 374 124 433T176 531T247 607T377 708T522 856T578 1015V1126ZM685 1471Q717 1437 717 1392Q717
1346 685 1314Q652 1281 606 1281Q560 1281 528 1314Q496 1346 496 1392Q496 1437 528 1471Q560 1503 606 1503Q651 1503 685 1471Z" />
<glyph unicode="&#xc0;" glyph-name="Agrave" horiz-adv-x="1628" d="M791 1485Q806 1496 823 1499L1370 133Q1380 108 1403 91T1460 64T1520 50T1583 41Q1587 25 1587 14Q1587 2 1583 -8Q1367 0 1260 0Q1144 0 924 -8Q920 4 920 16Q920 29 924 41Q1126 63 1126
117Q1126 134 1122 152L977 524Q911 526 799 526Q746 526 524 522L371 133V121Q371 111 374 102T386 86T403 74T425 65T450 58T479 52T508 48T537 44T565 41Q569 25 569 14Q569 8 565 -8Q341 0 313 0Q259 0 35 -8Q31 4 31 16Q31 29 35 41Q243 65 272 143L702 1227L680
1286Q737 1324 759 1368T791 1485ZM799 604Q891 604 944 606L754 1098H750L559 608Q653 604 799 604ZM670 2007L912 1706L883 1669L600 1846Q543 1882 529 1895Q492 1927 492 1968Q492 2007 516 2030T578 2054Q629 2054 670 2007Z" />
<glyph unicode="&#xc1;" glyph-name="Aacute" horiz-adv-x="1628" d="M791 1485Q806 1496 823 1499L1370 133Q1380 108 1403 91T1460 64T1520 50T1583 41Q1587 25 1587 14Q1587 2 1583 -8Q1367 0 1260 0Q1144 0 924 -8Q920 4 920 16Q920 29 924 41Q1126 63 1126
117Q1126 134 1122 152L977 524Q911 526 799 526Q746 526 524 522L371 133V121Q371 111 374 102T386 86T403 74T425 65T450 58T479 52T508 48T537 44T565 41Q569 25 569 14Q569 8 565 -8Q341 0 313 0Q259 0 35 -8Q31 4 31 16Q31 29 35 41Q243 65 272 143L702 1227L680
1286Q737 1324 759 1368T791 1485ZM799 604Q891 604 944 606L754 1098H750L559 608Q653 604 799 604ZM696 1706L938 2007Q979 2054 1030 2054Q1068 2054 1092 2031T1116 1968Q1116 1927 1079 1895Q1065 1882 1008 1846L725 1669L696 1706Z" />
<glyph unicode="&#xc2;" glyph-name="Acircumflex" horiz-adv-x="1628" d="M791 1485Q806 1496 823 1499L1370 133Q1380 108 1403 91T1460 64T1520 50T1583 41Q1587 25 1587 14Q1587 2 1583 -8Q1367 0 1260 0Q1144 0 924 -8Q920 4 920 16Q920 29 924 41Q1126 63
1126 117Q1126 134 1122 152L977 524Q911 526 799 526Q746 526 524 522L371 133V121Q371 111 374 102T386 86T403 74T425 65T450 58T479 52T508 48T537 44T565 41Q569 25 569 14Q569 8 565 -8Q341 0 313 0Q259 0 35 -8Q31 4 31 16Q31 29 35 41Q243 65 272 143L702
1227L680 1286Q737 1324 759 1368T791 1485ZM799 604Q891 604 944 606L754 1098H750L559 608Q653 604 799 604ZM805 1831L563 1653H490L746 1985H864L1120 1653H1047L805 1831Z" />
<glyph unicode="&#xc3;" glyph-name="Atilde" horiz-adv-x="1628" d="M791 1485Q806 1496 823 1499L1370 133Q1380 108 1403 91T1460 64T1520 50T1583 41Q1587 25 1587 14Q1587 2 1583 -8Q1367 0 1260 0Q1144 0 924 -8Q920 4 920 16Q920 29 924 41Q1126 63 1126
117Q1126 134 1122 152L977 524Q911 526 799 526Q746 526 524 522L371 133V121Q371 111 374 102T386 86T403 74T425 65T450 58T479 52T508 48T537 44T565 41Q569 25 569 14Q569 8 565 -8Q341 0 313 0Q259 0 35 -8Q31 4 31 16Q31 29 35 41Q243 65 272 143L702 1227L680
1286Q737 1324 759 1368T791 1485ZM799 604Q891 604 944 606L754 1098H750L559 608Q653 604 799 604ZM1098 1927H1159Q1094 1714 936 1714Q917 1714 894 1718T854 1726T769 1753T659 1776Q595 1776 547 1714H492Q572 1915 707 1915Q755 1915 859 1885T995 1854Q1028
1854 1057 1872T1098 1927Z" />
<glyph unicode="&#xc4;" glyph-name="Adieresis" horiz-adv-x="1628" d="M791 1485Q806 1496 823 1499L1370 133Q1380 108 1403 91T1460 64T1520 50T1583 41Q1587 25 1587 14Q1587 2 1583 -8Q1367 0 1260 0Q1144 0 924 -8Q920 4 920 16Q920 29 924 41Q1126 63
1126 117Q1126 134 1122 152L977 524Q911 526 799 526Q746 526 524 522L371 133V121Q371 111 374 102T386 86T403 74T425 65T450 58T479 52T508 48T537 44T565 41Q569 25 569 14Q569 8 565 -8Q341 0 313 0Q259 0 35 -8Q31 4 31 16Q31 29 35 41Q243 65 272 143L702
1227L680 1286Q737 1324 759 1368T791 1485ZM799 604Q891 604 944 606L754 1098H750L559 608Q653 604 799 604ZM518 1825Q518 1849 527 1871T553 1909T592 1934T639 1944Q663 1944 685 1935T723 1909T748 1871T758 1825Q758 1800 749 1778T723 1740T685 1714T639
1704Q613 1704 591 1713T553 1739T528 1777T518 1825ZM891 1825Q891 1850 900 1871T926 1909T963 1934T1010 1944Q1034 1944 1056 1935T1094 1909T1120 1872T1130 1825Q1130 1799 1121 1777T1095 1739T1057 1714T1010 1704Q985 1704 963 1713T925 1739T900 1777T891
1825Z" />
<glyph unicode="&#xc5;" glyph-name="Aring" horiz-adv-x="1651" d="M791 1485Q806 1496 823 1499L1370 133Q1380 108 1403 91T1460 64T1520 50T1583 41Q1587 25 1587 14Q1587 2 1583 -8Q1367 0 1260 0Q1144 0 924 -8Q920 4 920 16Q920 29 924 41Q1126 63 1126
117Q1126 134 1122 152L977 524Q911 526 799 526Q746 526 524 522L371 133V121Q371 111 374 102T386 86T403 74T425 65T450 58T479 52T508 48T537 44T565 41Q569 25 569 14Q569 8 565 -8Q341 0 313 0Q259 0 35 -8Q31 4 31 16Q31 29 35 41Q243 65 272 143L702 1227L680
1286Q737 1324 759 1368T791 1485ZM799 604Q891 604 944 606L754 1098H750L559 608Q653 604 799 604ZM621 1849Q621 1942 683 1996T823 2051Q902 2051 965 1997T1028 1849Q1028 1760 970 1702T823 1644Q736 1644 679 1702T621 1849ZM703 1847Q703 1798 740 1762T823
1726Q872 1726 909 1762T946 1847Q946 1893 911 1931T823 1969Q774 1969 739 1933T703 1847Z" />
<glyph unicode="&#xc6;" glyph-name="AE" horiz-adv-x="2298" d="M809 1470Q894 1467 981 1465T1159 1462H1274Q1378 1463 1476 1463T1671 1463T1866 1465T2068 1470Q2075 1414 2090 1363T2126 1264T2169 1174T2216 1090Q2208 1073 2181 1063Q2147 1126 2096 1183T1965
1285T1774 1360T1509 1401H1274Q1271 1303 1269 1218T1265 1056T1263 906T1262 764H1505Q1572 764 1617 788T1697 855T1761 954T1823 1073Q1835 1068 1846 1062T1862 1047Q1841 1011 1823 969T1791 884T1769 803T1761 733Q1761 650 1790 571T1862 420Q1857 411
1846 405T1823 393Q1791 451 1762 507T1699 606T1618 675T1505 702H1262Q1262 625 1262 555T1264 407T1268 245T1272 61H1550Q1703 71 1814 101T2005 177T2136 279T2222 399Q2234 394 2243 388T2257 373Q2234 330 2211 288T2167 200T2132 106T2109 0H1272Q1221
0 1161 0T1038 -1T915 -3T807 -6Q805 -1 804 4T803 14Q803 21 804 27T807 41Q839 44 879 49T954 64T1013 92T1038 137Q1043 278 1046 418T1051 702H668L342 145Q339 137 336 127T332 113Q332 89 352 76T403 57T469 48T535 41Q537 35 538 28T539 14Q539 9 538 4T535
-8Q493 -7 458 -6T393 -3T336 -1T283 0Q230 0 160 -2T4 -8Q2 -3 1 4T0 16Q0 23 1 29T4 41Q83 50 146 73T238 143L975 1393Q938 1407 892 1412T809 1423Q807 1430 806 1436T805 1448Q805 1454 806 1459T809 1470ZM1036 1335L705 764H1051V768Q1051 907 1049 1050T1040
1335H1036Z" />
<glyph unicode="&#xc7;" glyph-name="Ccedilla" horiz-adv-x="1552" d="M891 1503Q970 1503 1048 1493T1199 1468T1337 1439T1454 1419Q1442 1383 1442 1292Q1442 1115 1495 985Q1489 967 1458 963L1415 1055Q1383 1124 1338 1191T1230 1312T1084 1399T891 1432Q797
1432 724 1401T596 1318T503 1196T442 1048T408 888T397 729Q397 601 430 484T535 278T715 135T977 82Q1268 82 1417 264Q1433 264 1443 255T1454 233Q1406 162 1338 110T1192 25T1049 -22T934 -39L910 -113Q938 -109 975 -109Q1053 -109 1098 -146T1143 -252Q1143
-324 1083 -376T916 -428Q784 -428 723 -334L750 -303Q795 -350 881 -350Q931 -350 960 -324T990 -256Q990 -216 965 -195T893 -174Q849 -174 797 -188L843 -39Q791 -36 720 -23T565 26T403 120T265 264T169 465T133 729Q133 879 169 994T265 1196T404 1340T567
1435T735 1487T891 1503Z" />
<glyph unicode="&#xc8;" glyph-name="Egrave" horiz-adv-x="1608" d="M78 1470Q302 1462 428 1462Q1286 1467 1378 1470Q1391 1370 1429 1281T1526 1090Q1518 1073 1491 1063Q1455 1131 1404 1184T1276 1284T1083 1361T819 1401H543Q530 978 530 764H815Q844 764
869 768T917 784T956 806T992 838T1022 874T1051 919T1077 966T1104 1019T1133 1073Q1164 1061 1171 1047Q1129 973 1100 883T1071 733Q1071 591 1171 420Q1163 404 1133 393Q1122 413 1103 450T1072 508T1042 559T1009 607T972 645T927 676T877 694T815 702H530Q530
543 541 61H860Q1008 71 1123 101T1316 178T1445 278T1532 399Q1559 389 1567 373Q1562 363 1541 325T1513 274T1490 227T1465 173T1447 121T1430 61T1419 0H541Q270 0 76 -6Q72 6 72 14Q72 21 76 41Q122 45 150 49T220 64T284 92T307 137Q319 450 319 768Q319
1092 309 1327Q308 1353 286 1371T223 1400T153 1414T78 1423Q74 1441 74 1448Q74 1454 78 1470ZM630 2007L872 1706L843 1669L560 1846Q503 1882 489 1895Q452 1927 452 1968Q452 2007 476 2030T538 2054Q589 2054 630 2007Z" />
<glyph unicode="&#xc9;" glyph-name="Eacute" horiz-adv-x="1608" d="M78 1470Q302 1462 428 1462Q1286 1467 1378 1470Q1391 1370 1429 1281T1526 1090Q1518 1073 1491 1063Q1455 1131 1404 1184T1276 1284T1083 1361T819 1401H543Q530 978 530 764H815Q844 764
869 768T917 784T956 806T992 838T1022 874T1051 919T1077 966T1104 1019T1133 1073Q1164 1061 1171 1047Q1129 973 1100 883T1071 733Q1071 591 1171 420Q1163 404 1133 393Q1122 413 1103 450T1072 508T1042 559T1009 607T972 645T927 676T877 694T815 702H530Q530
543 541 61H860Q1008 71 1123 101T1316 178T1445 278T1532 399Q1559 389 1567 373Q1562 363 1541 325T1513 274T1490 227T1465 173T1447 121T1430 61T1419 0H541Q270 0 76 -6Q72 6 72 14Q72 21 76 41Q122 45 150 49T220 64T284 92T307 137Q319 450 319 768Q319
1092 309 1327Q308 1353 286 1371T223 1400T153 1414T78 1423Q74 1441 74 1448Q74 1454 78 1470ZM696 1706L938 2007Q979 2054 1030 2054Q1068 2054 1092 2031T1116 1968Q1116 1927 1079 1895Q1065 1882 1008 1846L725 1669L696 1706Z" />
<glyph unicode="&#xca;" glyph-name="Ecircumflex" horiz-adv-x="1608" d="M78 1470Q302 1462 428 1462Q1286 1467 1378 1470Q1391 1370 1429 1281T1526 1090Q1518 1073 1491 1063Q1455 1131 1404 1184T1276 1284T1083 1361T819 1401H543Q530 978 530 764H815Q844
764 869 768T917 784T956 806T992 838T1022 874T1051 919T1077 966T1104 1019T1133 1073Q1164 1061 1171 1047Q1129 973 1100 883T1071 733Q1071 591 1171 420Q1163 404 1133 393Q1122 413 1103 450T1072 508T1042 559T1009 607T972 645T927 676T877 694T815 702H530Q530
543 541 61H860Q1008 71 1123 101T1316 178T1445 278T1532 399Q1559 389 1567 373Q1562 363 1541 325T1513 274T1490 227T1465 173T1447 121T1430 61T1419 0H541Q270 0 76 -6Q72 6 72 14Q72 21 76 41Q122 45 150 49T220 64T284 92T307 137Q319 450 319 768Q319
1092 309 1327Q308 1353 286 1371T223 1400T153 1414T78 1423Q74 1441 74 1448Q74 1454 78 1470ZM865 1831L623 1653H550L806 1985H924L1180 1653H1107L865 1831Z" />
<glyph unicode="&#xcb;" glyph-name="Edieresis" horiz-adv-x="1608" d="M78 1470Q302 1462 428 1462Q1286 1467 1378 1470Q1391 1370 1429 1281T1526 1090Q1518 1073 1491 1063Q1455 1131 1404 1184T1276 1284T1083 1361T819 1401H543Q530 978 530 764H815Q844
764 869 768T917 784T956 806T992 838T1022 874T1051 919T1077 966T1104 1019T1133 1073Q1164 1061 1171 1047Q1129 973 1100 883T1071 733Q1071 591 1171 420Q1163 404 1133 393Q1122 413 1103 450T1072 508T1042 559T1009 607T972 645T927 676T877 694T815 702H530Q530
543 541 61H860Q1008 71 1123 101T1316 178T1445 278T1532 399Q1559 389 1567 373Q1562 363 1541 325T1513 274T1490 227T1465 173T1447 121T1430 61T1419 0H541Q270 0 76 -6Q72 6 72 14Q72 21 76 41Q122 45 150 49T220 64T284 92T307 137Q319 450 319 768Q319
1092 309 1327Q308 1353 286 1371T223 1400T153 1414T78 1423Q74 1441 74 1448Q74 1454 78 1470ZM538 1825Q538 1849 547 1871T573 1909T612 1934T659 1944Q683 1944 705 1935T743 1909T768 1871T778 1825Q778 1800 769 1778T743 1740T705 1714T659 1704Q633 1704
611 1713T573 1739T548 1777T538 1825ZM911 1825Q911 1850 920 1871T946 1909T983 1934T1030 1944Q1054 1944 1076 1935T1114 1909T1140 1872T1150 1825Q1150 1799 1141 1777T1115 1739T1077 1714T1030 1704Q1005 1704 983 1713T945 1739T920 1777T911 1825Z" />
<glyph unicode="&#xcc;" glyph-name="Igrave" horiz-adv-x="850" d="M78 1470Q302 1462 426 1462T774 1470Q778 1454 778 1448Q778 1437 774 1423Q728 1419 700 1415T630 1400T566 1372T543 1327Q530 987 530 694Q530 480 541 137Q542 111 564 93T627 64T697 50T772
41Q776 29 776 14Q776 6 772 -6Q602 0 424 0Q244 0 76 -6Q72 6 72 14Q72 31 76 41Q106 44 124 46T173 53T224 64T265 81T296 105T307 137Q319 450 319 768Q319 1092 309 1327Q308 1353 286 1371T223 1400T153 1414T78 1423Q74 1441 74 1448Q74 1458 78 1470ZM335
2007L577 1706L548 1669L265 1846Q208 1882 194 1895Q157 1927 157 1968Q157 2007 181 2030T243 2054Q294 2054 335 2007Z" />
<glyph unicode="&#xcd;" glyph-name="Iacute" horiz-adv-x="850" d="M78 1470Q302 1462 426 1462T774 1470Q778 1454 778 1448Q778 1437 774 1423Q728 1419 700 1415T630 1400T566 1372T543 1327Q530 987 530 694Q530 480 541 137Q542 111 564 93T627 64T697 50T772
41Q776 29 776 14Q776 6 772 -6Q602 0 424 0Q244 0 76 -6Q72 6 72 14Q72 31 76 41Q106 44 124 46T173 53T224 64T265 81T296 105T307 137Q319 450 319 768Q319 1092 309 1327Q308 1353 286 1371T223 1400T153 1414T78 1423Q74 1441 74 1448Q74 1458 78 1470ZM277
1706L519 2007Q560 2054 611 2054Q649 2054 673 2031T697 1968Q697 1927 660 1895Q646 1882 589 1846L306 1669L277 1706Z" />
<glyph unicode="&#xce;" glyph-name="Icircumflex" horiz-adv-x="850" d="M78 1470Q302 1462 426 1462T774 1470Q778 1454 778 1448Q778 1437 774 1423Q728 1419 700 1415T630 1400T566 1372T543 1327Q530 987 530 694Q530 480 541 137Q542 111 564 93T627 64T697
50T772 41Q776 29 776 14Q776 6 772 -6Q602 0 424 0Q244 0 76 -6Q72 6 72 14Q72 31 76 41Q106 44 124 46T173 53T224 64T265 81T296 105T307 137Q319 450 319 768Q319 1092 309 1327Q308 1353 286 1371T223 1400T153 1414T78 1423Q74 1441 74 1448Q74 1458 78 1470ZM431
1831L189 1653H116L372 1985H490L746 1653H673L431 1831Z" />
<glyph unicode="&#xcf;" glyph-name="Idieresis" horiz-adv-x="850" d="M78 1470Q302 1462 426 1462T774 1470Q778 1454 778 1448Q778 1437 774 1423Q728 1419 700 1415T630 1400T566 1372T543 1327Q530 987 530 694Q530 480 541 137Q542 111 564 93T627 64T697
50T772 41Q776 29 776 14Q776 6 772 -6Q602 0 424 0Q244 0 76 -6Q72 6 72 14Q72 31 76 41Q106 44 124 46T173 53T224 64T265 81T296 105T307 137Q319 450 319 768Q319 1092 309 1327Q308 1353 286 1371T223 1400T153 1414T78 1423Q74 1441 74 1448Q74 1458 78 1470ZM119
1825Q119 1849 128 1871T154 1909T193 1934T240 1944Q264 1944 286 1935T324 1909T349 1871T359 1825Q359 1800 350 1778T324 1740T286 1714T240 1704Q214 1704 192 1713T154 1739T129 1777T119 1825ZM492 1825Q492 1850 501 1871T527 1909T564 1934T611 1944Q635
1944 657 1935T695 1909T721 1872T731 1825Q731 1799 722 1777T696 1739T658 1714T611 1704Q586 1704 564 1713T526 1739T501 1777T492 1825Z" />
<glyph unicode="&#xd0;" glyph-name="Eth" horiz-adv-x="1720" d="M78 1470Q302 1462 428 1462Q686 1470 743 1470Q836 1470 918 1462T1087 1433T1246 1377T1382 1285T1491 1153T1561 973T1587 739Q1579 616 1545 513T1457 335T1330 201T1178 105T1006 44T826
10T645 0Q270 0 76 -6Q72 6 72 14Q72 21 76 41Q122 45 150 49T220 64T284 92T307 137Q316 406 319 682Q238 682 82 678V774Q159 770 319 766V768Q319 1092 309 1327Q308 1353 286 1371T223 1400T153 1414T78 1423Q74 1441 74 1448Q74 1454 78 1470ZM541 137V74Q584
72 664 72Q826 72 952 121T1159 260T1281 470T1323 739Q1323 815 1311 888T1273 1037T1201 1177T1092 1291T936 1370T731 1399Q628 1399 543 1386Q530 988 530 766Q719 766 868 774V678Q532 684 530 684Q530 471 541 137Z" />
<glyph unicode="&#xd1;" glyph-name="Ntilde" horiz-adv-x="1704" d="M78 1470Q242 1462 492 1462Q1199 576 1252 519T1305 461H1313Q1317 653 1317 770Q1317 1001 1307 1313Q1305 1403 1085 1423Q1081 1445 1081 1450Q1081 1458 1085 1470Q1246 1464 1370 1464Q1450
1464 1638 1470Q1642 1458 1642 1450Q1642 1434 1638 1423Q1419 1403 1417 1313Q1405 1000 1405 696Q1405 231 1415 -4L1397 -6L403 1217H393Q387 958 387 694Q387 462 397 152Q399 61 618 41Q623 24 623 14T618 -6Q459 0 334 0Q254 0 66 -6Q61 4 61 14Q61 31 66
41Q287 62 287 152Q299 464 299 768Q299 1098 291 1341Q207 1414 78 1423Q72 1436 72 1446Q72 1461 78 1470ZM1123 1927H1184Q1119 1714 961 1714Q942 1714 919 1718T879 1726T794 1753T684 1776Q620 1776 572 1714H517Q597 1915 732 1915Q780 1915 884 1885T1020
1854Q1053 1854 1082 1872T1123 1927Z" />
<glyph unicode="&#xd2;" glyph-name="Ograve" horiz-adv-x="1782" d="M896 1504Q973 1504 1058 1488T1227 1436T1387 1340T1522 1194T1614 993T1649 729Q1649 579 1615 464T1523 263T1389 119T1228 25T1055 -26T887 -42Q811 -42 726 -27T556 24T396 118T261 262T168
463T133 729Q133 883 169 1000T264 1204T402 1347T565 1440T735 1489T896 1504ZM891 1432Q797 1432 724 1401T596 1318T503 1196T442 1048T408 888T397 729Q397 655 407 575T440 418T500 270T593 147T721 63T891 31Q985 31 1058 61T1186 144T1278 266T1339 413T1373
572T1384 729Q1384 806 1374 888T1340 1048T1278 1195T1185 1317T1057 1401T891 1432ZM755 2007L997 1706L968 1669L685 1846Q628 1882 614 1895Q577 1927 577 1968Q577 2007 601 2030T663 2054Q714 2054 755 2007Z" />
<glyph unicode="&#xd3;" glyph-name="Oacute" horiz-adv-x="1782" d="M896 1504Q973 1504 1058 1488T1227 1436T1387 1340T1522 1194T1614 993T1649 729Q1649 579 1615 464T1523 263T1389 119T1228 25T1055 -26T887 -42Q811 -42 726 -27T556 24T396 118T261 262T168
463T133 729Q133 883 169 1000T264 1204T402 1347T565 1440T735 1489T896 1504ZM891 1432Q797 1432 724 1401T596 1318T503 1196T442 1048T408 888T397 729Q397 655 407 575T440 418T500 270T593 147T721 63T891 31Q985 31 1058 61T1186 144T1278 266T1339 413T1373
572T1384 729Q1384 806 1374 888T1340 1048T1278 1195T1185 1317T1057 1401T891 1432ZM766 1706L1008 2007Q1049 2054 1100 2054Q1138 2054 1162 2031T1186 1968Q1186 1927 1149 1895Q1135 1882 1078 1846L795 1669L766 1706Z" />
<glyph unicode="&#xd4;" glyph-name="Ocircumflex" horiz-adv-x="1782" d="M896 1504Q973 1504 1058 1488T1227 1436T1387 1340T1522 1194T1614 993T1649 729Q1649 579 1615 464T1523 263T1389 119T1228 25T1055 -26T887 -42Q811 -42 726 -27T556 24T396 118T261
262T168 463T133 729Q133 883 169 1000T264 1204T402 1347T565 1440T735 1489T896 1504ZM891 1432Q797 1432 724 1401T596 1318T503 1196T442 1048T408 888T397 729Q397 655 407 575T440 418T500 270T593 147T721 63T891 31Q985 31 1058 61T1186 144T1278 266T1339
413T1373 572T1384 729Q1384 806 1374 888T1340 1048T1278 1195T1185 1317T1057 1401T891 1432ZM895 1831L653 1653H580L836 1985H954L1210 1653H1137L895 1831Z" />
<glyph unicode="&#xd5;" glyph-name="Otilde" horiz-adv-x="1782" d="M896 1504Q973 1504 1058 1488T1227 1436T1387 1340T1522 1194T1614 993T1649 729Q1649 579 1615 464T1523 263T1389 119T1228 25T1055 -26T887 -42Q811 -42 726 -27T556 24T396 118T261 262T168
463T133 729Q133 883 169 1000T264 1204T402 1347T565 1440T735 1489T896 1504ZM891 1432Q797 1432 724 1401T596 1318T503 1196T442 1048T408 888T397 729Q397 655 407 575T440 418T500 270T593 147T721 63T891 31Q985 31 1058 61T1186 144T1278 266T1339 413T1373
572T1384 729Q1384 806 1374 888T1340 1048T1278 1195T1185 1317T1057 1401T891 1432ZM1168 1927H1229Q1164 1714 1006 1714Q987 1714 964 1718T924 1726T839 1753T729 1776Q665 1776 617 1714H562Q642 1915 777 1915Q825 1915 929 1885T1065 1854Q1098 1854 1127
1872T1168 1927Z" />
<glyph unicode="&#xd6;" glyph-name="Odieresis" horiz-adv-x="1782" d="M896 1504Q973 1504 1058 1488T1227 1436T1387 1340T1522 1194T1614 993T1649 729Q1649 579 1615 464T1523 263T1389 119T1228 25T1055 -26T887 -42Q811 -42 726 -27T556 24T396 118T261
262T168 463T133 729Q133 883 169 1000T264 1204T402 1347T565 1440T735 1489T896 1504ZM891 1432Q797 1432 724 1401T596 1318T503 1196T442 1048T408 888T397 729Q397 655 407 575T440 418T500 270T593 147T721 63T891 31Q985 31 1058 61T1186 144T1278 266T1339
413T1373 572T1384 729Q1384 806 1374 888T1340 1048T1278 1195T1185 1317T1057 1401T891 1432ZM584 1825Q584 1849 593 1871T619 1909T658 1934T705 1944Q729 1944 751 1935T789 1909T814 1871T824 1825Q824 1800 815 1778T789 1740T751 1714T705 1704Q679 1704
657 1713T619 1739T594 1777T584 1825ZM957 1825Q957 1850 966 1871T992 1909T1029 1934T1076 1944Q1100 1944 1122 1935T1160 1909T1186 1872T1196 1825Q1196 1799 1187 1777T1161 1739T1123 1714T1076 1704Q1051 1704 1029 1713T991 1739T966 1777T957 1825Z"
/>
<glyph unicode="&#xd7;" glyph-name="multiply" horiz-adv-x="1464" d="M371 268L289 350L649 711L289 1073L371 1153L731 793L1094 1155L1176 1073L813 711L1174 350L1094 268L731 629L371 268Z" />
<glyph unicode="&#xd8;" glyph-name="Oslash" horiz-adv-x="1782" d="M1397 1331Q1649 1125 1649 729Q1649 602 1623 494T1551 308T1444 169T1314 69T1170 5T1026 -31T891 -41Q668 -41 483 59L311 -182L223 -117L393 121Q133 325 133 729Q133 856 159 964T231
1151T338 1291T468 1392T612 1456T756 1492T891 1503Q1121 1503 1307 1395L1468 1620L1556 1554L1397 1331ZM397 729Q397 459 500 270L1223 1276Q1094 1432 891 1432Q800 1432 725 1402T596 1318T504 1196T442 1048T408 888T397 729ZM1384 729Q1384 990 1286 1178L567
174Q693 31 891 31Q999 31 1085 74T1227 188T1318 351T1369 538T1384 729Z" />
<glyph unicode="&#xd9;" glyph-name="Ugrave" horiz-adv-x="1767" d="M45 1470Q214 1464 393 1464Q573 1464 741 1470Q745 1454 745 1448Q745 1441 741 1423Q711 1420 693 1418T644 1411T593 1400T552 1383T521 1359T510 1327Q506 1194 506 596Q506 311 601 182T926
53Q1157 53 1282 193T1407 596Q1407 1073 1401 1313Q1399 1403 1180 1423Q1176 1445 1176 1450Q1176 1458 1180 1470Q1339 1464 1464 1464Q1544 1464 1733 1470Q1737 1458 1737 1450Q1737 1434 1733 1423Q1516 1403 1511 1313Q1501 1075 1501 596Q1501 450 1463
336T1366 152T1229 38T1077 -24T930 -41Q831 -41 752 -30T598 7T468 81T371 198T308 367T287 596V760Q287 1095 276 1327Q275 1353 253 1371T190 1400T120 1414T45 1423Q41 1441 41 1448Q41 1454 45 1470ZM770 2007L1012 1706L983 1669L700 1846Q643 1882 629 1895Q592
1927 592 1968Q592 2007 616 2030T678 2054Q729 2054 770 2007Z" />
<glyph unicode="&#xda;" glyph-name="Uacute" horiz-adv-x="1767" d="M45 1470Q214 1464 393 1464Q573 1464 741 1470Q745 1454 745 1448Q745 1441 741 1423Q711 1420 693 1418T644 1411T593 1400T552 1383T521 1359T510 1327Q506 1194 506 596Q506 311 601 182T926
53Q1157 53 1282 193T1407 596Q1407 1073 1401 1313Q1399 1403 1180 1423Q1176 1445 1176 1450Q1176 1458 1180 1470Q1339 1464 1464 1464Q1544 1464 1733 1470Q1737 1458 1737 1450Q1737 1434 1733 1423Q1516 1403 1511 1313Q1501 1075 1501 596Q1501 450 1463
336T1366 152T1229 38T1077 -24T930 -41Q831 -41 752 -30T598 7T468 81T371 198T308 367T287 596V760Q287 1095 276 1327Q275 1353 253 1371T190 1400T120 1414T45 1423Q41 1441 41 1448Q41 1454 45 1470ZM856 1706L1098 2007Q1139 2054 1190 2054Q1228 2054 1252
2031T1276 1968Q1276 1927 1239 1895Q1225 1882 1168 1846L885 1669L856 1706Z" />
<glyph unicode="&#xdb;" glyph-name="Ucircumflex" horiz-adv-x="1767" d="M45 1470Q214 1464 393 1464Q573 1464 741 1470Q745 1454 745 1448Q745 1441 741 1423Q711 1420 693 1418T644 1411T593 1400T552 1383T521 1359T510 1327Q506 1194 506 596Q506 311 601
182T926 53Q1157 53 1282 193T1407 596Q1407 1073 1401 1313Q1399 1403 1180 1423Q1176 1445 1176 1450Q1176 1458 1180 1470Q1339 1464 1464 1464Q1544 1464 1733 1470Q1737 1458 1737 1450Q1737 1434 1733 1423Q1516 1403 1511 1313Q1501 1075 1501 596Q1501
450 1463 336T1366 152T1229 38T1077 -24T930 -41Q831 -41 752 -30T598 7T468 81T371 198T308 367T287 596V760Q287 1095 276 1327Q275 1353 253 1371T190 1400T120 1414T45 1423Q41 1441 41 1448Q41 1454 45 1470ZM965 1831L723 1653H650L906 1985H1024L1280 1653H1207L965
1831Z" />
<glyph unicode="&#xdc;" glyph-name="Udieresis" horiz-adv-x="1767" d="M45 1470Q214 1464 393 1464Q573 1464 741 1470Q745 1454 745 1448Q745 1441 741 1423Q711 1420 693 1418T644 1411T593 1400T552 1383T521 1359T510 1327Q506 1194 506 596Q506 311 601
182T926 53Q1157 53 1282 193T1407 596Q1407 1073 1401 1313Q1399 1403 1180 1423Q1176 1445 1176 1450Q1176 1458 1180 1470Q1339 1464 1464 1464Q1544 1464 1733 1470Q1737 1458 1737 1450Q1737 1434 1733 1423Q1516 1403 1511 1313Q1501 1075 1501 596Q1501
450 1463 336T1366 152T1229 38T1077 -24T930 -41Q831 -41 752 -30T598 7T468 81T371 198T308 367T287 596V760Q287 1095 276 1327Q275 1353 253 1371T190 1400T120 1414T45 1423Q41 1441 41 1448Q41 1454 45 1470ZM661 1825Q661 1849 670 1871T696 1909T735 1934T782
1944Q806 1944 828 1935T866 1909T891 1871T901 1825Q901 1800 892 1778T866 1740T828 1714T782 1704Q756 1704 734 1713T696 1739T671 1777T661 1825ZM1034 1825Q1034 1850 1043 1871T1069 1909T1106 1934T1153 1944Q1177 1944 1199 1935T1237 1909T1263 1872T1273
1825Q1273 1799 1264 1777T1238 1739T1200 1714T1153 1704Q1128 1704 1106 1713T1068 1739T1043 1777T1034 1825Z" />
<glyph unicode="&#xdd;" glyph-name="Yacute" horiz-adv-x="1466" d="M4 1470Q230 1462 367 1462Q554 1462 705 1470Q709 1454 709 1448Q709 1437 705 1423Q588 1418 534 1402T479 1350Q479 1337 496 1305L803 754H811L1147 1313Q1159 1333 1159 1354Q1159 1385
1120 1399T1001 1423Q997 1445 997 1450Q997 1458 1001 1470Q1130 1464 1235 1464Q1348 1464 1462 1470Q1466 1458 1466 1450Q1466 1434 1462 1423Q1389 1416 1339 1393T1253 1313L838 643Q838 427 848 137Q849 111 871 93T934 64T1004 50T1079 41Q1083 29 1083
14Q1083 6 1079 -6Q911 0 731 0Q552 0 383 -6Q379 6 379 14Q379 31 383 41Q429 45 457 49T527 64T591 92T614 137Q624 388 627 643L236 1327Q197 1376 140 1396T4 1423Q0 1441 0 1448Q0 1458 4 1470ZM706 1706L948 2007Q989 2054 1040 2054Q1078 2054 1102 2031T1126
1968Q1126 1927 1089 1895Q1075 1882 1018 1846L735 1669L706 1706Z" />
<glyph unicode="&#xde;" glyph-name="Thorn" horiz-adv-x="1335" d="M78 1470Q190 1466 276 1464T426 1462Q489 1462 575 1464T774 1470Q778 1455 778 1448Q778 1435 774 1423L726 1418Q702 1415 671 1410T611 1395T563 1370T543 1331L537 1153Q631 1194 801 1194Q904
1194 988 1164T1130 1079T1221 945T1253 772Q1253 682 1224 602T1137 462T991 367T788 332Q636 332 532 375Q532 370 532 346T541 137Q542 113 560 97T610 69T682 52T772 41Q776 30 776 14Q776 5 772 -6Q602 0 424 0Q244 0 76 -6Q72 5 72 14Q72 32 76 41Q115 45
155 50T229 66T284 94T307 137Q312 295 315 451T319 768Q319 931 317 1070T309 1327Q308 1350 291 1366T243 1393T170 1411T78 1423Q74 1439 74 1448Q74 1459 78 1470ZM721 1108Q607 1108 535 1081Q530 952 530 694Q530 526 532 440Q603 418 711 418Q850 418 921
515T993 774Q993 1108 721 1108Z" />
<glyph unicode="&#xdf;" glyph-name="germandbls" horiz-adv-x="1184" d="M240 1122Q240 1224 269 1300T339 1416T436 1482T534 1513T618 1520Q681 1520 740 1503T855 1450T943 1346T977 1190Q977 895 729 825V817Q890 808 975 703T1061 414Q1061 335 1040 258T980
116T878 11T737 -29Q637 -29 590 18T543 129Q543 182 571 205T637 229Q672 229 698 208T725 150Q725 118 713 98T670 59Q689 33 731 33Q762 33 781 45T819 95T845 212T854 414Q854 452 852 482T843 550T822 618T785 678T729 727T647 759T537 772H508V834H532Q593
834 638 854T709 907T750 988T771 1084T776 1190Q776 1220 775 1243T769 1299T753 1358T726 1406T682 1441T618 1454Q418 1454 418 1200V909Q418 317 426 137L434 0H319Q198 0 66 -6Q61 7 61 16Q61 24 66 41Q99 45 119 49T171 64T218 92T236 137Q240 236 240 1122Z"
/>
<glyph unicode="&#xe0;" glyph-name="agrave" horiz-adv-x="1038" d="M170 657Q170 767 270 838T508 909Q676 909 744 842T813 616V201Q813 145 854 145Q887 145 938 225Q974 222 987 193Q980 183 963 157T938 120T913 87T886 53T858 27T826 5T792 -8T754 -14Q704
-14 672 22T633 133Q632 132 602 104T561 67T518 34T464 0T409 -19T344 -29Q293 -29 254 -15T192 19T156 65T138 114T133 158Q133 225 155 271T239 357T391 428T633 498V637Q633 738 589 788T469 838Q402 838 357 812T301 750Q399 735 399 643Q399 601 369 569T285
537Q240 537 205 568T170 657ZM633 225V434Q541 413 481 389T390 335T346 276T334 205Q334 155 363 127T436 98Q536 98 633 225ZM622 1421L864 1120L835 1083L552 1260Q495 1296 481 1309Q444 1341 444 1382Q444 1421 468 1444T530 1468Q581 1468 622 1421Z" />
<glyph unicode="&#xe1;" glyph-name="aacute" horiz-adv-x="1038" d="M170 657Q170 767 270 838T508 909Q676 909 744 842T813 616V201Q813 145 854 145Q887 145 938 225Q974 222 987 193Q980 183 963 157T938 120T913 87T886 53T858 27T826 5T792 -8T754 -14Q704
-14 672 22T633 133Q632 132 602 104T561 67T518 34T464 0T409 -19T344 -29Q293 -29 254 -15T192 19T156 65T138 114T133 158Q133 225 155 271T239 357T391 428T633 498V637Q633 738 589 788T469 838Q402 838 357 812T301 750Q399 735 399 643Q399 601 369 569T285
537Q240 537 205 568T170 657ZM633 225V434Q541 413 481 389T390 335T346 276T334 205Q334 155 363 127T436 98Q536 98 633 225ZM708 1120L950 1421Q991 1468 1042 1468Q1080 1468 1104 1445T1128 1382Q1128 1341 1091 1309Q1077 1296 1020 1260L737 1083L708 1120Z"
/>
<glyph unicode="&#xe2;" glyph-name="acircumflex" horiz-adv-x="1038" d="M170 657Q170 767 270 838T508 909Q676 909 744 842T813 616V201Q813 145 854 145Q887 145 938 225Q974 222 987 193Q980 183 963 157T938 120T913 87T886 53T858 27T826 5T792 -8T754
-14Q704 -14 672 22T633 133Q632 132 602 104T561 67T518 34T464 0T409 -19T344 -29Q293 -29 254 -15T192 19T156 65T138 114T133 158Q133 225 155 271T239 357T391 428T633 498V637Q633 738 589 788T469 838Q402 838 357 812T301 750Q399 735 399 643Q399 601
369 569T285 537Q240 537 205 568T170 657ZM633 225V434Q541 413 481 389T390 335T346 276T334 205Q334 155 363 127T436 98Q536 98 633 225ZM778 1245L536 1067H463L719 1399H837L1093 1067H1020L778 1245Z" />
<glyph unicode="&#xe3;" glyph-name="atilde" horiz-adv-x="1038" d="M170 657Q170 767 270 838T508 909Q676 909 744 842T813 616V201Q813 145 854 145Q887 145 938 225Q974 222 987 193Q980 183 963 157T938 120T913 87T886 53T858 27T826 5T792 -8T754 -14Q704
-14 672 22T633 133Q632 132 602 104T561 67T518 34T464 0T409 -19T344 -29Q293 -29 254 -15T192 19T156 65T138 114T133 158Q133 225 155 271T239 357T391 428T633 498V637Q633 738 589 788T469 838Q402 838 357 812T301 750Q399 735 399 643Q399 601 369 569T285
537Q240 537 205 568T170 657ZM633 225V434Q541 413 481 389T390 335T346 276T334 205Q334 155 363 127T436 98Q536 98 633 225ZM1057 1341H1118Q1053 1128 895 1128Q876 1128 853 1132T813 1140T728 1167T618 1190Q554 1190 506 1128H451Q531 1329 666 1329Q714
1329 818 1299T954 1268Q987 1268 1016 1286T1057 1341Z" />
<glyph unicode="&#xe4;" glyph-name="adieresis" horiz-adv-x="1038" d="M170 657Q170 767 270 838T508 909Q676 909 744 842T813 616V201Q813 145 854 145Q887 145 938 225Q974 222 987 193Q980 183 963 157T938 120T913 87T886 53T858 27T826 5T792 -8T754 -14Q704
-14 672 22T633 133Q632 132 602 104T561 67T518 34T464 0T409 -19T344 -29Q293 -29 254 -15T192 19T156 65T138 114T133 158Q133 225 155 271T239 357T391 428T633 498V637Q633 738 589 788T469 838Q402 838 357 812T301 750Q399 735 399 643Q399 601 369 569T285
537Q240 537 205 568T170 657ZM633 225V434Q541 413 481 389T390 335T346 276T334 205Q334 155 363 127T436 98Q536 98 633 225ZM470 1239Q470 1263 479 1285T505 1323T544 1348T591 1358Q615 1358 637 1349T675 1323T700 1285T710 1239Q710 1214 701 1192T675
1154T637 1128T591 1118Q565 1118 543 1127T505 1153T480 1191T470 1239ZM843 1239Q843 1264 852 1285T878 1323T915 1348T962 1358Q986 1358 1008 1349T1046 1323T1072 1286T1082 1239Q1082 1213 1073 1191T1047 1153T1009 1128T962 1118Q937 1118 915 1127T877
1153T852 1191T843 1239Z" />
<glyph unicode="&#xe5;" glyph-name="aring" horiz-adv-x="1038" d="M170 657Q170 767 270 838T508 909Q676 909 744 842T813 616V201Q813 145 854 145Q887 145 938 225Q974 222 987 193Q980 183 963 157T938 120T913 87T886 53T858 27T826 5T792 -8T754 -14Q704
-14 672 22T633 133Q632 132 602 104T561 67T518 34T464 0T409 -19T344 -29Q293 -29 254 -15T192 19T156 65T138 114T133 158Q133 225 155 271T239 357T391 428T633 498V637Q633 738 589 788T469 838Q402 838 357 812T301 750Q399 735 399 643Q399 601 369 569T285
537Q240 537 205 568T170 657ZM633 225V434Q541 413 481 389T390 335T346 276T334 205Q334 155 363 127T436 98Q536 98 633 225ZM573 1262Q573 1355 635 1409T775 1464Q854 1464 917 1410T980 1262Q980 1173 922 1115T775 1057Q688 1057 631 1115T573 1262ZM655
1260Q655 1211 692 1175T775 1139Q824 1139 861 1175T898 1260Q898 1306 863 1344T775 1382Q726 1382 691 1346T655 1260Z" />
<glyph unicode="&#xe6;" glyph-name="ae" horiz-adv-x="1501" d="M170 657Q170 758 255 827T469 907Q489 909 508 909Q617 909 682 882T780 793Q891 900 1071 909Q1153 909 1215 886T1311 822T1361 735T1378 633Q1378 580 1362 530H817Q813 470 813 424Q816 275
900 186T1124 96Q1162 96 1195 105T1250 124T1295 156T1328 189T1356 228T1380 260Q1406 255 1419 238Q1370 104 1265 38T1036 -29Q936 -29 849 12T707 139Q660 100 637 82T574 37T504 0T433 -20T344 -29Q293 -29 254 -15T192 19T156 65T138 114T133 158Q133 225
155 271T239 357T391 428T633 498V637Q633 738 589 788T469 838Q402 838 357 812T301 750Q399 735 399 643Q399 601 369 569T285 537Q240 537 205 568T170 657ZM633 178V434Q541 413 481 389T390 335T346 276T334 205Q334 155 363 127T436 98Q498 98 543 118T633
178ZM1047 844Q978 844 916 783T827 598H1188Q1198 636 1198 664Q1198 742 1162 793T1047 844Z" />
<glyph unicode="&#xe7;" glyph-name="ccedilla" horiz-adv-x="983" d="M883 260Q907 255 922 238Q872 104 767 37Q679 -18 579 -27L551 -113Q579 -109 616 -109Q694 -109 739 -146T784 -252Q784 -324 724 -376T557 -428Q425 -428 364 -334L391 -303Q436 -350 522
-350Q572 -350 601 -324T631 -256Q631 -216 606 -195T534 -174Q490 -174 438 -188L488 -26Q453 -22 408 -10T308 37T213 123T148 252T123 424Q123 641 256 775T588 909Q728 909 816 849T905 694Q905 641 870 606T784 571Q730 571 697 602T664 676Q664 752 741 772Q734
795 696 819T588 844Q552 844 520 836T452 800T390 729T347 607T330 424Q330 354 344 297T390 194T475 122T602 96Q648 96 689 108T755 135T810 177T850 218T883 260Z" />
<glyph unicode="&#xe8;" glyph-name="egrave" horiz-adv-x="999" d="M860 530H315Q311 470 311 424Q314 275 398 186T623 96Q661 96 694 104T748 124T793 156T826 189T855 227T879 260Q903 255 918 238Q868 104 763 38T535 -29Q474 -29 417 -14T305 37T211 123T147
252T123 424Q123 635 252 772T569 909Q652 909 713 886T809 822T860 735T877 633Q877 583 860 530ZM545 844Q476 844 415 783T326 598H686Q696 636 696 664Q696 742 660 793T545 844ZM662 1421L904 1120L875 1083L592 1260Q535 1296 521 1309Q484 1341 484 1382Q484
1421 508 1444T570 1468Q621 1468 662 1421Z" />
<glyph unicode="&#xe9;" glyph-name="eacute" horiz-adv-x="999" d="M860 530H315Q311 470 311 424Q314 275 398 186T623 96Q661 96 694 104T748 124T793 156T826 189T855 227T879 260Q903 255 918 238Q868 104 763 38T535 -29Q474 -29 417 -14T305 37T211 123T147
252T123 424Q123 635 252 772T569 909Q652 909 713 886T809 822T860 735T877 633Q877 583 860 530ZM545 844Q476 844 415 783T326 598H686Q696 636 696 664Q696 742 660 793T545 844ZM712 1120L954 1421Q995 1468 1046 1468Q1084 1468 1108 1445T1132 1382Q1132
1341 1095 1309Q1081 1296 1024 1260L741 1083L712 1120Z" />
<glyph unicode="&#xea;" glyph-name="ecircumflex" horiz-adv-x="999" d="M860 530H315Q311 470 311 424Q314 275 398 186T623 96Q661 96 694 104T748 124T793 156T826 189T855 227T879 260Q903 255 918 238Q868 104 763 38T535 -29Q474 -29 417 -14T305 37T211
123T147 252T123 424Q123 635 252 772T569 909Q652 909 713 886T809 822T860 735T877 633Q877 583 860 530ZM545 844Q476 844 415 783T326 598H686Q696 636 696 664Q696 742 660 793T545 844ZM798 1245L556 1067H483L739 1399H857L1113 1067H1040L798 1245Z" />
<glyph unicode="&#xeb;" glyph-name="edieresis" horiz-adv-x="999" d="M860 530H315Q311 470 311 424Q314 275 398 186T623 96Q661 96 694 104T748 124T793 156T826 189T855 227T879 260Q903 255 918 238Q868 104 763 38T535 -29Q474 -29 417 -14T305 37T211
123T147 252T123 424Q123 635 252 772T569 909Q652 909 713 886T809 822T860 735T877 633Q877 583 860 530ZM545 844Q476 844 415 783T326 598H686Q696 636 696 664Q696 742 660 793T545 844ZM470 1239Q470 1263 479 1285T505 1323T544 1348T591 1358Q615 1358
637 1349T675 1323T700 1285T710 1239Q710 1214 701 1192T675 1154T637 1128T591 1118Q565 1118 543 1127T505 1153T480 1191T470 1239ZM843 1239Q843 1264 852 1285T878 1323T915 1348T962 1358Q986 1358 1008 1349T1046 1323T1072 1286T1082 1239Q1082 1213 1073
1191T1047 1153T1009 1128T962 1118Q937 1118 915 1127T877 1153T852 1191T843 1239Z" />
<glyph unicode="&#xec;" glyph-name="igrave" horiz-adv-x="674" d="M76 823Q270 843 414 905Q439 895 449 879Q449 360 457 137Q458 111 472 93T514 64T559 50T606 41Q612 29 612 16T606 -6Q474 0 350 0Q228 0 96 -6Q92 10 92 16Q92 21 96 41Q129 45 150 49T202
64T249 92T266 137Q270 236 270 330T269 537T268 735Q211 770 76 776Q72 792 72 801Q72 807 76 823ZM143 1421L385 1120L356 1083L73 1260Q16 1296 2 1309Q-35 1341 -35 1382Q-35 1421 -11 1444T51 1468Q102 1468 143 1421Z" />
<glyph unicode="&#xed;" glyph-name="iacute" horiz-adv-x="674" d="M76 823Q270 843 414 905Q439 895 449 879Q449 360 457 137Q458 111 472 93T514 64T559 50T606 41Q612 29 612 16T606 -6Q474 0 350 0Q228 0 96 -6Q92 10 92 16Q92 21 96 41Q129 45 150 49T202
64T249 92T266 137Q270 236 270 330T269 537T268 735Q211 770 76 776Q72 792 72 801Q72 807 76 823ZM188 1120L430 1421Q471 1468 522 1468Q560 1468 584 1445T608 1382Q608 1341 571 1309Q557 1296 500 1260L217 1083L188 1120Z" />
<glyph unicode="&#xee;" glyph-name="icircumflex" horiz-adv-x="674" d="M76 823Q270 843 414 905Q439 895 449 879Q449 360 457 137Q458 111 472 93T514 64T559 50T606 41Q612 29 612 16T606 -6Q474 0 350 0Q228 0 96 -6Q92 10 92 16Q92 21 96 41Q129 45 150
49T202 64T249 92T266 137Q270 236 270 330T269 537T268 735Q211 770 76 776Q72 792 72 801Q72 807 76 823ZM329 1245L87 1067H14L270 1399H388L644 1067H571L329 1245Z" />
<glyph unicode="&#xef;" glyph-name="idieresis" horiz-adv-x="674" d="M76 823Q270 843 414 905Q439 895 449 879Q449 360 457 137Q458 111 472 93T514 64T559 50T606 41Q612 29 612 16T606 -6Q474 0 350 0Q228 0 96 -6Q92 10 92 16Q92 21 96 41Q129 45 150 49T202
64T249 92T266 137Q270 236 270 330T269 537T268 735Q211 770 76 776Q72 792 72 801Q72 807 76 823ZM12 1239Q12 1263 21 1285T47 1323T86 1348T133 1358Q157 1358 179 1349T217 1323T242 1285T252 1239Q252 1214 243 1192T217 1154T179 1128T133 1118Q107 1118
85 1127T47 1153T22 1191T12 1239ZM385 1239Q385 1264 394 1285T420 1323T457 1348T504 1358Q528 1358 550 1349T588 1323T614 1286T624 1239Q624 1213 615 1191T589 1153T551 1128T504 1118Q479 1118 457 1127T419 1153T394 1191T385 1239Z" />
<glyph unicode="&#xf0;" glyph-name="eth" horiz-adv-x="1126" d="M391 1065L332 1128L496 1288Q475 1310 451 1331T397 1373T350 1406T301 1439T264 1464L295 1516Q451 1446 569 1360L729 1516L791 1462L639 1311Q746 1210 816 1105T922 887T970 673T983 438Q983
337 956 256T884 122T782 35T666 -14T551 -29Q496 -29 441 -16T328 30T225 115T152 250T123 440Q123 499 135 559T177 683T254 797T378 877T551 909Q603 909 654 896T735 862Q723 948 676 1048T557 1233L391 1065ZM551 844Q505 844 468 825T408 772T368 699T344
611T333 522T330 438Q330 390 333 345T350 241T386 140T451 67T551 37Q600 37 638 57T700 112T740 187T763 276T773 362T776 438Q776 648 715 746T551 844Z" />
<glyph unicode="&#xf1;" glyph-name="ntilde" horiz-adv-x="1241" d="M606 41Q612 29 612 16Q612 6 606 -6Q474 0 350 0Q228 0 96 -6Q92 10 92 16Q92 21 96 41Q129 45 150 49T202 64T249 92T266 137Q270 236 270 377Q270 424 269 537T268 735Q211 770 76 776Q72
792 72 801Q72 807 76 823Q270 843 414 905Q439 895 449 879V721Q546 806 635 857T815 909Q929 909 976 845T1026 645L1036 137Q1037 111 1051 93T1093 64T1139 50T1186 41Q1190 21 1190 14Q1190 6 1186 -6Q1057 0 948 0Q842 0 713 -6Q709 10 709 18Q709 25 713
41Q739 45 756 49T796 64T830 92T842 137L844 612Q844 793 735 793Q633 793 449 657Q449 366 457 137Q458 111 472 93T514 64T559 50T606 41ZM955 1341H1016Q951 1128 793 1128Q774 1128 751 1132T711 1140T626 1167T516 1190Q452 1190 404 1128H349Q429 1329 564
1329Q612 1329 716 1299T852 1268Q885 1268 914 1286T955 1341Z" />
<glyph unicode="&#xf2;" glyph-name="ograve" horiz-adv-x="1106" d="M553 909Q652 909 731 874T867 777T953 629T983 440Q983 232 866 102Q750 -29 553 -29Q455 -29 376 5T240 102T154 251T123 440Q123 542 153 628T238 777T374 874T553 909ZM553 844Q451 844
390 745Q330 646 330 440Q330 234 390 136T553 37Q655 37 715 136T776 440Q776 543 760 619T715 745T645 819T553 844ZM676 1421L918 1120L889 1083L606 1260Q549 1296 535 1309Q498 1341 498 1382Q498 1421 522 1444T584 1468Q635 1468 676 1421Z" />
<glyph unicode="&#xf3;" glyph-name="oacute" horiz-adv-x="1106" d="M553 909Q652 909 731 874T867 777T953 629T983 440Q983 232 866 102Q750 -29 553 -29Q455 -29 376 5T240 102T154 251T123 440Q123 542 153 628T238 777T374 874T553 909ZM553 844Q451 844
390 745Q330 646 330 440Q330 234 390 136T553 37Q655 37 715 136T776 440Q776 543 760 619T715 745T645 819T553 844ZM703 1120L945 1421Q986 1468 1037 1468Q1075 1468 1099 1445T1123 1382Q1123 1341 1086 1309Q1072 1296 1015 1260L732 1083L703 1120Z" />
<glyph unicode="&#xf4;" glyph-name="ocircumflex" horiz-adv-x="1106" d="M553 909Q652 909 731 874T867 777T953 629T983 440Q983 232 866 102Q750 -29 553 -29Q455 -29 376 5T240 102T154 251T123 440Q123 542 153 628T238 777T374 874T553 909ZM553 844Q451
844 390 745Q330 646 330 440Q330 234 390 136T553 37Q655 37 715 136T776 440Q776 543 760 619T715 745T645 819T553 844ZM557 1245L315 1067H242L498 1399H616L872 1067H799L557 1245Z" />
<glyph unicode="&#xf5;" glyph-name="otilde" horiz-adv-x="1106" d="M553 909Q652 909 731 874T867 777T953 629T983 440Q983 232 866 102Q750 -29 553 -29Q455 -29 376 5T240 102T154 251T123 440Q123 542 153 628T238 777T374 874T553 909ZM553 844Q451 844
390 745Q330 646 330 440Q330 234 390 136T553 37Q655 37 715 136T776 440Q776 543 760 619T715 745T645 819T553 844ZM1087 1341H1148Q1083 1128 925 1128Q906 1128 883 1132T843 1140T758 1167T648 1190Q584 1190 536 1128H481Q561 1329 696 1329Q744 1329 848
1299T984 1268Q1017 1268 1046 1286T1087 1341Z" />
<glyph unicode="&#xf6;" glyph-name="odieresis" horiz-adv-x="1106" d="M553 909Q652 909 731 874T867 777T953 629T983 440Q983 232 866 102Q750 -29 553 -29Q455 -29 376 5T240 102T154 251T123 440Q123 542 153 628T238 777T374 874T553 909ZM553 844Q451
844 390 745Q330 646 330 440Q330 234 390 136T553 37Q655 37 715 136T776 440Q776 543 760 619T715 745T645 819T553 844ZM510 1239Q510 1263 519 1285T545 1323T584 1348T631 1358Q655 1358 677 1349T715 1323T740 1285T750 1239Q750 1214 741 1192T715 1154T677
1128T631 1118Q605 1118 583 1127T545 1153T520 1191T510 1239ZM883 1239Q883 1264 892 1285T918 1323T955 1348T1002 1358Q1026 1358 1048 1349T1086 1323T1112 1286T1122 1239Q1122 1213 1113 1191T1087 1153T1049 1128T1002 1118Q977 1118 955 1127T917 1153T892
1191T883 1239Z" />
<glyph unicode="&#xf7;" glyph-name="divide" horiz-adv-x="1464" d="M606 1042Q606 1069 616 1094T645 1137T687 1167T739 1178Q767 1178 792 1167T835 1138T863 1094T874 1042Q874 1015 864 991T835 948T792 918T739 907Q712 907 688 918T645 947T617 990T606
1042ZM606 381Q606 408 616 432T645 475T687 503T739 514Q767 514 791 504T834 476T863 434T874 381Q874 354 864 330T835 287T793 257T739 246Q711 246 687 257T644 286T616 329T606 381ZM1300 653H164V768H1300V653Z" />
<glyph unicode="&#xf8;" glyph-name="oslash" horiz-adv-x="1106" d="M137 -43L242 100Q123 228 123 440Q123 647 239 778T553 909Q685 909 784 848L887 989L963 934L856 788Q983 659 983 440Q983 233 867 102T553 -29Q415 -29 311 39L213 -98L137 -43ZM553 37Q655
37 715 135T776 440Q776 559 754 645L387 141Q443 37 553 37ZM330 440Q330 328 348 248L713 750Q654 844 553 844Q451 844 391 745T330 440Z" />
<glyph unicode="&#xf9;" glyph-name="ugrave" horiz-adv-x="1245" d="M59 887Q95 885 131 883T188 880T227 879Q242 879 262 880T316 883T383 887Q401 881 412 856Q411 848 409 833T405 796T403 743L401 268Q401 88 510 88Q611 88 797 221Q797 519 788 743Q788
761 781 775T760 799T734 815T700 827T669 834T639 840Q635 856 635 864Q635 871 639 887Q674 885 710 883T768 880T807 879Q822 879 842 880T896 883T963 887Q968 884 971 882T977 876T981 871T984 864T987 856Q979 802 979 743Q973 596 973 504Q973 456 975 343T977
145Q1034 112 1169 104Q1174 79 1174 78Q1174 72 1169 57Q980 39 831 -25Q805 -14 797 2V158Q697 72 609 22T430 -29Q316 -29 269 35T219 236L211 743Q209 766 203 777T182 799T155 815T121 827T90 834T59 840Q55 856 55 864Q55 871 59 887ZM663 1421L905 1120L876
1083L593 1260Q536 1296 522 1309Q485 1341 485 1382Q485 1421 509 1444T571 1468Q622 1468 663 1421Z" />
<glyph unicode="&#xfa;" glyph-name="uacute" horiz-adv-x="1245" d="M59 887Q95 885 131 883T188 880T227 879Q242 879 262 880T316 883T383 887Q401 881 412 856Q411 848 409 833T405 796T403 743L401 268Q401 88 510 88Q611 88 797 221Q797 519 788 743Q788
761 781 775T760 799T734 815T700 827T669 834T639 840Q635 856 635 864Q635 871 639 887Q674 885 710 883T768 880T807 879Q822 879 842 880T896 883T963 887Q968 884 971 882T977 876T981 871T984 864T987 856Q979 802 979 743Q973 596 973 504Q973 456 975 343T977
145Q1034 112 1169 104Q1174 79 1174 78Q1174 72 1169 57Q980 39 831 -25Q805 -14 797 2V158Q697 72 609 22T430 -29Q316 -29 269 35T219 236L211 743Q209 766 203 777T182 799T155 815T121 827T90 834T59 840Q55 856 55 864Q55 871 59 887ZM496 1120L738 1421Q779
1468 830 1468Q868 1468 892 1445T916 1382Q916 1341 879 1309Q865 1296 808 1260L525 1083L496 1120Z" />
<glyph unicode="&#xfb;" glyph-name="ucircumflex" horiz-adv-x="1245" d="M59 887Q95 885 131 883T188 880T227 879Q242 879 262 880T316 883T383 887Q401 881 412 856Q411 848 409 833T405 796T403 743L401 268Q401 88 510 88Q611 88 797 221Q797 519 788 743Q788
761 781 775T760 799T734 815T700 827T669 834T639 840Q635 856 635 864Q635 871 639 887Q674 885 710 883T768 880T807 879Q822 879 842 880T896 883T963 887Q968 884 971 882T977 876T981 871T984 864T987 856Q979 802 979 743Q973 596 973 504Q973 456 975 343T977
145Q1034 112 1169 104Q1174 79 1174 78Q1174 72 1169 57Q980 39 831 -25Q805 -14 797 2V158Q697 72 609 22T430 -29Q316 -29 269 35T219 236L211 743Q209 766 203 777T182 799T155 815T121 827T90 834T59 840Q55 856 55 864Q55 871 59 887ZM586 1245L344 1067H271L527
1399H645L901 1067H828L586 1245Z" />
<glyph unicode="&#xfc;" glyph-name="udieresis" horiz-adv-x="1245" d="M59 887Q95 885 131 883T188 880T227 879Q242 879 262 880T316 883T383 887Q401 881 412 856Q411 848 409 833T405 796T403 743L401 268Q401 88 510 88Q611 88 797 221Q797 519 788 743Q788
761 781 775T760 799T734 815T700 827T669 834T639 840Q635 856 635 864Q635 871 639 887Q674 885 710 883T768 880T807 879Q822 879 842 880T896 883T963 887Q968 884 971 882T977 876T981 871T984 864T987 856Q979 802 979 743Q973 596 973 504Q973 456 975 343T977
145Q1034 112 1169 104Q1174 79 1174 78Q1174 72 1169 57Q980 39 831 -25Q805 -14 797 2V158Q697 72 609 22T430 -29Q316 -29 269 35T219 236L211 743Q209 766 203 777T182 799T155 815T121 827T90 834T59 840Q55 856 55 864Q55 871 59 887ZM268 1239Q268 1263
277 1285T303 1323T342 1348T389 1358Q413 1358 435 1349T473 1323T498 1285T508 1239Q508 1214 499 1192T473 1154T435 1128T389 1118Q363 1118 341 1127T303 1153T278 1191T268 1239ZM641 1239Q641 1264 650 1285T676 1323T713 1348T760 1358Q784 1358 806 1349T844
1323T870 1286T880 1239Q880 1213 871 1191T845 1153T807 1128T760 1118Q735 1118 713 1127T675 1153T650 1191T641 1239Z" />
<glyph unicode="&#xfd;" glyph-name="yacute" horiz-adv-x="926" d="M-68 887Q64 881 199 881Q322 881 451 887Q455 871 455 862Q455 856 451 840Q421 838 403 836T357 827T314 809T299 780Q299 771 307 743L510 238H516L709 743Q719 768 719 786Q719 832 604
840Q600 856 600 862Q600 871 604 887Q721 881 750 881Q834 881 963 887Q967 875 967 866Q967 860 963 840Q838 835 801 743L492 4H494L383 -287Q321 -449 268 -506T131 -563Q64 -563 20 -523T-25 -418Q-25 -359 8 -325T90 -291Q135 -291 159 -318T184 -379Q184
-427 141 -455Q146 -477 174 -477Q206 -477 234 -441T307 -285L418 0L106 743Q95 768 75 786T27 815T-21 830T-68 840Q-72 848 -72 862Q-72 877 -68 887ZM675 1120L917 1421Q958 1468 1009 1468Q1047 1468 1071 1445T1095 1382Q1095 1341 1058 1309Q1044 1296 987
1260L704 1083L675 1120Z" />
<glyph unicode="&#xfe;" glyph-name="thorn" horiz-adv-x="1167" d="M545 -492Q551 -504 551 -516T545 -539Q391 -532 289 -532Q189 -532 35 -539Q31 -521 31 -516Q31 -512 35 -492Q70 -487 89 -483T140 -469T188 -440T205 -395Q209 -297 209 354Q209 514 208
900T207 1350Q151 1383 14 1391Q10 1407 10 1415Q10 1422 14 1438Q205 1456 352 1520Q379 1509 387 1493Q387 1427 386 1175T385 760Q541 909 696 909Q850 909 947 795T1044 485Q1044 412 1028 342T976 204T886 85T750 3T569 -29Q476 -29 385 6Q388 -283 395 -395Q395
-413 401 -427T423 -451T449 -467T483 -479T514 -486T545 -492ZM385 162L387 166Q446 37 598 37Q628 37 658 47T723 85T782 156T825 272T842 438Q842 534 817 609T736 731T600 778Q534 778 485 754T385 682V162Z" />
<glyph unicode="&#xff;" glyph-name="ydieresis" horiz-adv-x="926" d="M-68 887Q64 881 199 881Q322 881 451 887Q455 871 455 862Q455 856 451 840Q421 838 403 836T357 827T314 809T299 780Q299 771 307 743L510 238H516L709 743Q719 768 719 786Q719 832 604
840Q600 856 600 862Q600 871 604 887Q721 881 750 881Q834 881 963 887Q967 875 967 866Q967 860 963 840Q838 835 801 743L492 4H494L383 -287Q321 -449 268 -506T131 -563Q64 -563 20 -523T-25 -418Q-25 -359 8 -325T90 -291Q135 -291 159 -318T184 -379Q184
-427 141 -455Q146 -477 174 -477Q206 -477 234 -441T307 -285L418 0L106 743Q95 768 75 786T27 815T-21 830T-68 840Q-72 848 -72 862Q-72 877 -68 887ZM456 1239Q456 1263 465 1285T491 1323T530 1348T577 1358Q601 1358 623 1349T661 1323T686 1285T696 1239Q696
1214 687 1192T661 1154T623 1128T577 1118Q551 1118 529 1127T491 1153T466 1191T456 1239ZM829 1239Q829 1264 838 1285T864 1323T901 1348T948 1358Q972 1358 994 1349T1032 1323T1058 1286T1068 1239Q1068 1213 1059 1191T1033 1153T995 1128T948 1118Q923
1118 901 1127T863 1153T838 1191T829 1239Z" />
<glyph unicode="&#x2013;" glyph-name="endash" horiz-adv-x="1755" d="M164 412V526H1591V412H164Z" />
<glyph unicode="&#x2014;" glyph-name="emdash" horiz-adv-x="2439" d="M164 412V526H2275V412H164Z" />
<glyph unicode="&#x2018;" glyph-name="quoteleft" horiz-adv-x="618" d="M383 1503L434 1458Q385 1415 355 1376T317 1316T301 1268L305 1262Q372 1262 403 1233T434 1143Q434 1096 401 1058T317 1020Q260 1020 222 1052T184 1155Q184 1249 242 1349T383 1503Z" />
<glyph unicode="&#x2019;" glyph-name="quoteright" horiz-adv-x="618" d="M236 1020L184 1065Q233 1108 263 1147T302 1207T317 1255L313 1262Q246 1262 215 1291T184 1380Q184 1427 217 1465T301 1503Q359 1503 396 1471T434 1368Q434 1275 376 1175T236 1020Z" />
<glyph unicode="&#x201a;" glyph-name="quotesinglbase" horiz-adv-x="618" d="M236 -262L184 -217Q233 -174 263 -135T302 -75T317 -27L313 -20Q246 -20 215 9T184 98Q184 145 217 183T301 221Q359 221 396 189T434 86Q434 -8 376 -108T236 -262Z" />
<glyph unicode="&#x201c;" glyph-name="quotedblleft" horiz-adv-x="989" d="M754 1503L805 1458Q756 1415 726 1376T687 1316T672 1268L676 1262Q743 1262 774 1233T805 1143Q805 1096 772 1058T688 1020Q631 1020 593 1052T555 1155Q555 1249 613 1349T754 1503ZM383
1503L434 1458Q385 1415 355 1376T317 1316T301 1268L305 1262Q372 1262 403 1233T434 1143Q434 1096 401 1058T317 1020Q260 1020 222 1052T184 1155Q184 1249 242 1349T383 1503Z" />
<glyph unicode="&#x201d;" glyph-name="quotedblright" horiz-adv-x="989" d="M236 1020L184 1065Q233 1108 263 1147T302 1207T317 1255L313 1262Q246 1262 215 1291T184 1380Q184 1427 217 1465T301 1503Q359 1503 396 1471T434 1368Q434 1275 376 1175T236
1020ZM606 1020L555 1065Q604 1108 634 1147T673 1207T688 1255L684 1262Q617 1262 586 1291T555 1380Q555 1427 588 1465T672 1503Q729 1503 767 1471T805 1368Q805 1274 747 1174T606 1020Z" />
<glyph unicode="&#x201e;" glyph-name="quotedblbase" horiz-adv-x="989" d="M236 -262L184 -217Q233 -174 263 -135T302 -75T317 -27L313 -20Q246 -20 215 9T184 98Q184 145 217 183T301 221Q359 221 396 189T434 86Q434 -8 376 -108T236 -262ZM606 -262L555
-217Q604 -174 634 -135T673 -75T688 -27L684 -20Q617 -20 586 9T555 98Q555 145 588 183T672 221Q729 221 767 189T805 86Q805 -8 747 -108T606 -262Z" />
<glyph unicode="&#x2022;" glyph-name="bullet" horiz-adv-x="721" d="M164 729Q164 812 220 869T360 926Q442 926 499 870T557 729Q557 648 500 590T360 532Q277 532 221 589T164 729Z" />
<glyph unicode="&#x2039;" glyph-name="guilsinglleft" horiz-adv-x="737" d="M365 424L573 90L516 43L164 424L516 803L573 758L365 424Z" />
<glyph unicode="&#x203a;" glyph-name="guilsinglright" horiz-adv-x="737" d="M164 90L373 424L164 758L221 803L573 424L221 43L164 90Z" />
</font>
</defs>
</svg>
