<?xml version="1.0" standalone="no"?>
<!DOCTYPE svg PUBLIC "-//W3C//DTD SVG 1.1//EN" "http://www.w3.org/Graphics/SVG/1.1/DTD/svg11.dtd">
<svg xmlns="http://www.w3.org/2000/svg">
<defs >
<font id="AnonymousPro" horiz-adv-x="1118" ><font-face
    font-family="Anonymous Pro"
    units-per-em="2048"
    panose-1="2 6 6 9 3 2 2 0 5 4"
    ascent="1675"
    descent="-373"
    alphabetic="0" />
<glyph unicode=" " glyph-name="space" />
<glyph unicode="!" glyph-name="exclam" d="M735 1305L485 367H403L551 1305H735ZM461 0H274L313 186H500L461 0Z" />
<glyph unicode="&quot;" glyph-name="quotedbl" d="M924 1305L784 840H682L737 1305H924ZM551 1305L410 840H309L365 1305H551Z" />
<glyph unicode="#" glyph-name="numbersign" d="M880 222H659L612 1H495L543 222H287L239 1H123L170 222H-51L-28 332H193L251 596H30L51 705H272L321 933H438L389 705H645L694 933H811L762 705H983L961 596H740L683 332H904L880 222ZM566 332L623 596H367L310 332H566Z" />
<glyph unicode="$" glyph-name="dollar" d="M295 -16Q213 -6 151 25T48 104T-10 213T-27 342L109 375Q111 274 159 200T319 104L432 631Q354 662 296 694T201 769T152 865T156 993Q168 1057 205 1113T296 1214T422 1288T580 1327L614 1491H752L717 1327Q791 1317
847 1283T939 1200T990 1092T997 971L850 946Q856 1034 819 1107T690 1200L590 729Q758 662 830 575T872 340Q858 272 820 212T725 105T594 25T432 -16L395 -186H258L295 -16ZM721 328Q737 414 696 474T559 582L457 104Q578 121 639 183T721 328ZM297 995Q281 918
327 867T463 776L553 1202Q496 1194 451 1173T374 1123T323 1061T297 995Z" />
<glyph unicode="%" glyph-name="percent" d="M610 1073Q600 1022 571 976T499 896T407 842T305 821Q254 821 212 841T144 896T108 976T109 1073Q119 1124 148 1171T219 1252T310 1306T412 1327Q463 1327 505 1307T574 1253T611 1172T610 1073ZM1102 1272L-8 -27L-90
33L1024 1335L1102 1272ZM909 229Q899 176 869 131T797 51T705 -3T602 -23Q551 -23 509 -4T441 50T404 130T403 229Q416 281 445 327T516 406T607 459T709 479Q760 479 802 460T871 407T910 327T909 229ZM508 1073Q520 1137 488 1181T391 1225Q328 1225 275 1181T209
1073Q195 1010 228 966T326 922Q389 922 441 966T508 1073ZM807 229Q821 293 787 336T688 379Q625 379 573 336T506 229Q494 166 527 122T625 78Q688 78 741 122T807 229Z" />
<glyph unicode="&amp;" glyph-name="ampersand" d="M977 565Q940 479 882 392T748 227L874 80L758 -27L633 127Q545 61 446 19T242 -23Q166 -23 105 5T3 81T-53 193T-53 334Q-39 397 -15 449T42 544T113 619T195 682Q150 760 133 836T131 991Q164 1145 272 1236T530
1327Q598 1327 653 1307T744 1248T793 1156T793 1032Q776 954 733 899T634 802T511 726T381 655L668 317Q729 383 775 455T854 598L977 565ZM270 109Q348 109 422 138T559 217L287 553L262 582Q201 537 157 479T94 334Q74 238 123 174T270 109ZM272 991Q262 944
267 885T313 750Q371 780 427 809T529 870T608 943T651 1036Q668 1114 625 1159T504 1204Q461 1204 423 1187T355 1140T304 1071T272 991Z" />
<glyph unicode="&apos;" glyph-name="quotesingle" d="M737 1305L594 836H492L551 1305H737Z" />
<glyph unicode="(" glyph-name="parenleft" d="M455 -371Q367 -287 307 -181T215 47T182 300T209 567Q238 702 296 833T436 1085T623 1312T854 1503L905 1413Q795 1337 700 1241T531 1036T405 807T326 567Q301 444 302 326T330 99T411 -107T545 -281L455 -371Z" />
<glyph unicode=")" glyph-name="parenright" d="M768 565Q739 430 682 299T542 47T354 -180T123 -371L70 -281Q180 -205 275 -109T446 97T574 325T651 565Q678 686 677 806T646 1035T562 1241T430 1413L522 1503Q610 1419 670 1313T763 1086T796 833T768 565Z" />
<glyph unicode="*" glyph-name="asterisk" d="M938 652L557 468L858 279L782 185L493 388L426 1H309L405 388L31 185L-4 279L379 468L76 652L151 748L440 543L508 933H624L528 543L903 748L938 652Z" />
<glyph unicode="+" glyph-name="plus" d="M922 420H514L428 13H311L397 420H-10L16 537H424L510 944H627L541 537H948L922 420Z" />
<glyph unicode="," glyph-name="comma" d="M512 186L119 -373H22L328 186H512Z" />
<glyph unicode="-" glyph-name="hyphen" d="M922 420H-10L16 537H948L922 420Z" />
<glyph unicode="." glyph-name="period" d="M461 0H274L313 186H500L461 0Z" />
<glyph unicode="/" glyph-name="slash" d="M1083 1303L-10 -240L-98 -188L995 1354L1083 1303Z" />
<glyph unicode="0" glyph-name="zero" d="M143 651Q113 506 121 379L868 1024Q840 1114 780 1162T625 1210Q449 1210 324 1061T143 651ZM143 268Q205 92 387 92Q559 92 686 241T868 651Q885 723 889 787T889 911L143 268ZM6 651Q35 782 88 904T221 1120T407 1270T649
1327Q784 1327 868 1271T992 1120T1033 904T1006 651Q977 520 925 398T794 183T608 34T362 -23Q225 -23 142 33T20 183T-21 398T6 651Z" />
<glyph unicode="1" glyph-name="one" d="M647 0H88L113 117H324L512 1008Q485 967 436 921T326 836T196 771T59 745L90 887Q152 887 228 925T378 1022T505 1156T575 1305H713L461 117H672L647 0Z" />
<glyph unicode="2" glyph-name="two" d="M989 967Q977 913 959 870T906 783T822 690T696 578L145 117H696L750 373H866L788 0H-59L-35 121L584 637Q631 676 675 715T755 794T816 877T852 967Q877 1087 810 1148T627 1210Q463 1210 360 1119T219 856H92Q139 1077
283 1202T651 1327Q735 1327 804 1303T922 1232T989 1120T989 967Z" />
<glyph unicode="3" glyph-name="three" d="M897 360Q879 274 829 204T710 83T558 5T391 -23Q297 -23 220 3T92 79T19 205T8 379L145 397Q125 246 202 170T416 94Q475 94 531 113T635 169T715 253T760 360Q776 440 762 490T706 569T595 608T434 618L459 735Q526
735 591 746T713 784T810 855T864 967Q887 1077 829 1143T653 1210Q508 1210 404 1134T264 893H135Q158 995 208 1076T328 1212T488 1297T678 1327Q762 1327 829 1303T942 1232T1003 1120T1001 967Q977 856 895 783T686 690Q754 680 800 651T871 576T903 475T897
360Z" />
<glyph unicode="4" glyph-name="four" d="M834 0H274L299 117H510L563 373H-20L6 492L725 1305H899L727 492H938L911 373H700L647 117H858L834 0ZM590 492L727 1143L152 492H590Z" />
<glyph unicode="5" glyph-name="five" d="M932 438Q911 342 858 258T729 112T557 13T356 -23Q262 -23 189 5T66 85T-5 213T-12 387L125 408Q117 340 130 282T176 182T261 118T381 94Q461 94 529 120T652 194T743 304T795 438Q811 512 801 575T757 685T667 757T535
784Q455 784 374 751T225 653H88L227 1305H1044L1020 1188H340L252 780Q324 838 408 869T571 901Q672 901 748 869T874 777T939 631T932 438Z" />
<glyph unicode="6" glyph-name="six" d="M954 444Q930 336 877 250T747 104T576 10T381 -23Q242 -23 160 33T40 183T2 398T31 651Q59 784 119 906T269 1122T473 1272T727 1327Q922 1327 1022 1192L915 1112Q846 1210 702 1210Q598 1210 509 1170T352 1059T235
887T162 666Q186 717 234 762T341 839T462 891T586 911Q688 911 767 877T894 781T958 633T954 444ZM817 444Q831 518 823 582T783 694T695 768T561 795Q485 795 417 770T294 700T202 594T147 457Q131 383 138 318T176 202T263 123T406 94Q479 94 545 118T667 188T761
299T817 444Z" />
<glyph unicode="7" glyph-name="seven" d="M1071 1184Q922 1051 821 922T650 653T531 353T440 0H297Q336 182 388 343T515 650T694 930T942 1188H319L264 932H147L227 1305H1098L1071 1184Z" />
<glyph unicode="8" glyph-name="eight" d="M922 367Q899 264 847 192T720 71T553 0T362 -23Q262 -23 181 0T46 71T-29 191T-29 367Q-18 420 12 474T90 574T195 651T319 690Q266 696 230 726T172 796T144 883T145 973Q166 1061 214 1127T331 1238T483 1304T649
1327Q733 1327 807 1305T930 1238T1000 1128T1001 973Q993 930 967 883T902 796T814 726T707 690Q768 682 814 652T886 575T922 474T922 367ZM864 973Q889 1083 825 1146T625 1210Q489 1210 398 1147T283 973Q262 870 322 809T526 748Q670 748 757 809T864 973ZM784
367Q799 438 782 488T724 570T627 616T502 631Q434 631 371 617T253 571T161 489T109 367Q92 297 109 246T167 161T263 111T387 94Q455 94 519 110T638 161T730 246T784 367Z" />
<glyph unicode="9" glyph-name="nine" d="M61 860Q84 969 138 1055T268 1201T438 1294T633 1327Q770 1327 854 1271T975 1120T1012 905T983 653Q954 520 894 398T746 182T541 33T287 -23Q92 -23 -8 113L98 193Q133 143 187 119T311 94Q416 94 505 134T662 245T779
417T854 639Q827 588 779 543T673 465T550 413T428 393Q326 393 248 428T121 524T56 672T61 860ZM199 860Q182 786 191 722T232 610T319 537T453 510Q528 510 598 534T722 603T814 709T866 848Q883 922 877 987T839 1103T751 1181T608 1210Q535 1210 468 1186T347
1116T254 1006T199 860Z" />
<glyph unicode=":" glyph-name="colon" d="M618 745H432L471 932H657L618 745ZM461 0H274L313 186H500L461 0Z" />
<glyph unicode=";" glyph-name="semicolon" d="M618 745H432L471 932H657L618 745ZM551 186L158 -373H61L367 186H551Z" />
<glyph unicode="&lt;" glyph-name="less" d="M700 45L604 -34L201 478L823 990L883 910L358 478L700 45Z" />
<glyph unicode="=" glyph-name="equal" d="M969 641H37L61 758H993L969 641ZM874 199H-57L-31 316H901L874 199Z" />
<glyph unicode="&gt;" glyph-name="greater" d="M735 478L115 -34L55 45L577 478L237 910L334 990L735 478Z" />
<glyph unicode="?" glyph-name="question" d="M461 0H274L313 186H500L461 0ZM1028 1022Q1010 944 969 886T875 778T761 686T648 597T555 497T500 373H354Q371 451 414 512T511 626T627 727T742 820T836 915T889 1022Q907 1110 863 1160T717 1210Q653 1210 602
1190T511 1135T442 1052T393 946L274 965Q328 1133 445 1230T739 1327Q905 1327 981 1242T1028 1022Z" />
<glyph unicode="@" glyph-name="at" d="M1013 684Q998 616 973 546T908 420T816 327T696 291Q667 291 643 301T601 330T577 374T576 432L582 460Q544 385 487 338T368 291Q302 291 265 320T211 397T196 506T212 631Q227 705 258 772T335 891T437 973T561 1004Q596
1004 631 987T683 932L694 985H825L713 460Q706 428 715 414T748 400Q776 400 801 427T848 495T885 587T911 684Q926 753 932 821T932 951T905 1065T849 1156T759 1216T631 1238Q518 1238 432 1190T282 1061T176 874T108 651Q83 536 81 431T108 244T203 115T382
67Q464 67 535 96T669 174L714 106Q559 -23 363 -23Q271 -23 204 2T91 74T19 183T-16 321T-19 480T6 651Q25 740 55 824T126 984T219 1122T338 1230T481 1301T650 1327Q785 1327 868 1272T992 1125T1035 919T1013 684ZM656 808Q644 857 617 876T551 896Q513 896
481 874T422 814T378 729T349 632Q326 523 342 468T411 413Q448 413 483 435T546 494T596 576T626 667L656 808Z" />
<glyph unicode="A" glyph-name="A" d="M897 0H750L705 373H188L-10 0H-158L553 1305H739L897 0ZM692 494L616 1167L254 494H692Z" />
<glyph unicode="B" glyph-name="B" d="M909 373Q870 186 730 93T367 0H-49L227 1305H621Q702 1305 778 1292T908 1241T988 1139T991 967Q948 764 729 690Q961 614 909 373ZM854 967Q868 1036 849 1080T790 1147T698 1179T596 1188H340L246 745H502Q557 745 613
753T718 786T803 854T854 967ZM772 373Q801 508 727 569T500 631H221L113 117H391Q545 117 645 181T772 373Z" />
<glyph unicode="C" glyph-name="C" d="M913 342Q827 174 690 76T377 -23Q240 -23 157 33T33 183T-9 398T18 651Q47 782 99 904T232 1120T419 1270T664 1327Q784 1327 861 1284T961 1153L993 1305H1110L1018 877H901Q918 946 904 1007T854 1114T763 1184T639 1210Q532
1210 453 1160T314 1029T215 849T156 651Q135 553 131 454T152 275T236 145T401 94Q645 94 805 389L913 342Z" />
<glyph unicode="D" glyph-name="D" d="M1014 651Q985 520 933 402T801 194T616 52T375 0H-49L227 1305H651Q784 1305 868 1252T993 1108T1038 900T1014 651ZM877 651Q932 907 866 1047T627 1188H340L113 117H399Q571 117 697 256T877 651Z" />
<glyph unicode="E" glyph-name="E" d="M784 0H-49L227 1305H1061L1036 1188H340L240 721H754L729 604H215L113 117H809L784 0Z" />
<glyph unicode="F" glyph-name="F" d="M1036 1188H340L240 721H754L729 604H215L88 0H-49L227 1305H1061L1036 1188Z" />
<glyph unicode="G" glyph-name="G" d="M1022 649Q993 516 940 395T807 181T620 33T377 -23Q240 -23 157 33T33 183T-9 398T18 651Q47 782 99 904T232 1120T419 1270T664 1327Q784 1327 861 1284T961 1153L993 1305H1110L1018 877H901Q918 948 905 1009T855 1115T763
1184T639 1210Q532 1210 453 1160T314 1029T215 849T156 651Q135 553 131 454T152 275T236 145T401 94Q559 94 677 216T858 559H569L594 676H1028L1022 649Z" />
<glyph unicode="H" glyph-name="H" d="M784 0H647L774 604H215L88 0H-49L227 1305H365L240 721H799L924 1305H1061L784 0Z" />
<glyph unicode="I" glyph-name="I" d="M647 0H88L113 117H324L551 1188H340L365 1305H924L899 1188H688L461 117H672L647 0Z" />
<glyph unicode="J" glyph-name="J" d="M889 498Q836 250 702 114T350 -23Q176 -23 78 68T-29 342L100 387Q109 225 179 160T375 94Q467 94 532 131T641 225T710 354T752 498L924 1305H1061L889 498Z" />
<glyph unicode="K" glyph-name="K" d="M827 0H659L360 639L190 485L88 0H-49L227 1305H365L229 670L924 1305H1104L471 735L827 0Z" />
<glyph unicode="L" glyph-name="L" d="M784 0H-49L227 1305H365L113 117H809L784 0Z" />
<glyph unicode="M" glyph-name="M" d="M784 0H647L877 1087L502 414H403L317 1087L88 0H-49L227 1305H406L498 623L883 1305H1061L784 0Z" />
<glyph unicode="N" glyph-name="N" d="M784 0H614L322 1104L88 0H-49L227 1305H420L700 252L924 1305H1061L784 0Z" />
<glyph unicode="O" glyph-name="O" d="M1006 651Q977 520 925 398T794 183T608 34T362 -23Q225 -23 142 33T20 183T-21 398T6 651Q35 782 87 904T220 1120T407 1270T649 1327Q784 1327 868 1271T991 1120T1032 904T1006 651ZM868 651Q895 780 893 883T860 1060T770
1171T625 1210Q518 1210 438 1160T299 1029T202 849T143 651Q123 553 118 454T138 275T222 145T387 94Q494 94 574 144T713 274T810 453T868 651Z" />
<glyph unicode="P" glyph-name="P" d="M1028 932Q989 743 852 651T502 559H207L88 0H-49L227 1305H657Q872 1305 970 1212T1028 932ZM891 932Q920 1067 848 1127T635 1188H340L231 676H526Q668 676 765 736T891 932Z" />
<glyph unicode="Q" glyph-name="Q" d="M1006 651Q979 526 931 411T811 204T643 54T426 -18Q420 -152 478 -203T672 -254Q707 -254 731 -253T780 -250L754 -367Q725 -369 699 -370T647 -371Q442 -371 357 -284T289 -16Q180 -2 112 55T12 202T-20 406T6 651Q35 782
87 904T220 1120T407 1270T649 1327Q784 1327 868 1271T991 1120T1032 904T1006 651ZM868 651Q889 750 893 849T874 1029T790 1160T625 1210Q518 1210 438 1160T299 1029T202 849T143 651Q88 391 150 243T387 94Q559 94 686 242T868 651Z" />
<glyph unicode="R" glyph-name="R" d="M846 0H672L410 559H207L88 0H-49L227 1305H657Q872 1305 970 1212T1028 932Q1012 850 969 785T867 673T731 599T571 565L846 0ZM887 932Q915 1065 846 1126T633 1188H340L231 676H524Q668 676 763 736T887 932Z" />
<glyph unicode="S" glyph-name="S" d="M872 340Q854 258 806 192T691 77T544 3T385 -23Q274 -23 192 18T72 139L43 0H-74L10 397H127Q113 330 131 275T189 179T286 117T410 94Q467 94 520 110T616 157T690 232T733 332Q748 395 730 440T671 517T578 571T469 616Q403
641 339 668T226 738T157 840T154 991Q172 1071 219 1133T330 1239T472 1304T627 1327Q721 1327 793 1288T895 1169L924 1305H1044L965 932H844Q856 991 843 1042T796 1130T712 1188T602 1210Q549 1210 499 1198T407 1160T334 1091T291 991Q281 940 299 904T354
841T442 791T549 745Q616 719 683 687T798 610T869 500T872 340Z" />
<glyph unicode="T" glyph-name="T" d="M1016 864H899L969 1188H688L461 117H672L647 0H88L113 117H324L551 1188H270L201 864H84L178 1305H1110L1016 864Z" />
<glyph unicode="U" glyph-name="U" d="M883 465Q858 354 815 264T707 111T555 12T360 -23Q252 -23 181 12T73 110T31 265T49 467L227 1305H365L186 465Q174 406 170 340T185 220T251 130T385 94Q473 94 536 130T642 220T708 340T745 465L924 1305H1061L883 465Z" />
<glyph unicode="V" glyph-name="V" d="M1174 1305L461 0H274L119 1305H264L397 139L1024 1305H1174Z" />
<glyph unicode="W" glyph-name="W" d="M1174 1305L662 0H500L502 637L231 0H72L115 1305H260L217 231L496 932H631L614 231L1026 1305H1174Z" />
<glyph unicode="X" glyph-name="X" d="M856 0H485L510 117H598L483 545L186 117H274L250 0H-121L-96 117H31L428 657L262 1188H154L178 1305H551L526 1188H418L530 770L817 1188H713L737 1305H1110L1085 1188H973L588 657L754 117H881L856 0Z" />
<glyph unicode="Y" glyph-name="Y" d="M1106 1188H999L555 563L461 117H672L647 0H88L113 117H324L418 563L240 1188H133L158 1305H526L502 1188H393L516 696L846 1188H737L762 1305H1130L1106 1188Z" />
<glyph unicode="Z" glyph-name="Z" d="M788 0H-49L-25 117L858 1188H319L252 868H135L227 1305H1044L1020 1188L143 117H696L764 442H881L788 0Z" />
<glyph unicode="[" glyph-name="bracketleft" d="M567 -373H195L590 1491H963L940 1380H678L330 -260H592L567 -373Z" />
<glyph unicode="\" glyph-name="backslash" d="M858 -188L750 -240L311 1303L420 1354L858 -188Z" />
<glyph unicode="]" glyph-name="bracketright" d="M381 -373H8L33 -260H295L643 1380H381L403 1491H776L381 -373Z" />
<glyph unicode="^" glyph-name="asciicircum" d="M955 559H803L619 1172L175 559H23L555 1305H739L955 559Z" />
<glyph unicode="_" glyph-name="underscore" d="M795 -186H-137L-113 -76H819L795 -186Z" />
<glyph unicode="`" glyph-name="grave" d="M829 1077L776 1012L397 1255L485 1364L829 1077Z" />
<glyph unicode="a" glyph-name="a" d="M-47 252Q-29 340 27 399T163 493T338 543T530 559Q567 559 596 558T651 555T703 550T762 543L776 610Q791 678 771 722T712 791T629 827T551 838Q446 838 353 810T174 735L133 838Q229 889 341 921T578 954Q653 954 723
935T842 875T911 768T913 610L784 0H647L680 156Q633 111 581 77T474 22T367 -11T268 -23Q84 -23 4 48T-47 252ZM293 94Q379 94 453 119T583 183T675 264T719 342L737 430Q672 440 611 441T504 442Q430 442 360 432T234 400T139 341T90 252Q76 193 123 144T293
94Z" />
<glyph unicode="b" glyph-name="b" d="M932 465Q909 358 857 268T730 114T560 13T356 -23Q281 -23 218 4T104 84L88 0H-49L227 1305H365L266 846Q338 897 413 925T565 954Q674 954 752 918T879 817T941 662T932 465ZM793 465Q809 545 803 612T765 730T677 809T539
838Q381 838 238 713L133 215Q178 150 240 122T381 94Q463 94 530 123T651 202T740 319T793 465Z" />
<glyph unicode="c" glyph-name="c" d="M836 178Q756 86 642 32T387 -23Q279 -23 196 13T62 113T-7 267T0 465Q23 571 75 661T201 816T372 917T578 954Q621 954 663 944T740 914T801 865T836 797L864 932H987L909 559H786Q799 621 788 672T745 760T663 817T551
838Q467 838 399 809T278 730T190 613T137 465Q119 385 129 318T175 201T270 123T412 94Q516 94 606 135T754 244L836 178Z" />
<glyph unicode="d" glyph-name="d" d="M784 0H647L664 86Q594 33 517 5T367 -23Q256 -23 176 13T49 113T-11 268T-2 465Q20 571 72 661T198 816T368 917T575 954Q649 954 713 928T825 848L899 1188H713L737 1305H1061L784 0ZM799 715Q752 780 689 809T547 838Q465
838 397 809T276 730T188 613T135 465Q117 385 124 318T163 200T251 121T389 92Q547 92 692 217L799 715Z" />
<glyph unicode="e" glyph-name="e" d="M127 418Q111 270 184 182T408 94Q512 94 603 137T750 244L831 178Q741 80 633 29T383 -23Q274 -23 193 13T59 113T-11 267T-4 465Q18 571 69 660T196 815T368 917T573 954Q692 954 772 914T897 804T949 635T932 418H127ZM811
535Q821 688 749 763T547 838Q481 838 421 817T309 755T217 659T154 535H811Z" />
<glyph unicode="f" glyph-name="f" d="M1006 815H608L461 117H672L647 0H88L113 117H324L471 815H260L285 932H496Q537 1124 657 1225T979 1327Q1026 1327 1059 1324T1112 1317L1087 1200Q1059 1204 1028 1207T954 1210Q823 1210 744 1144T633 932H1030L1006 815Z" />
<glyph unicode="g" glyph-name="g" d="M786 10Q766 -86 717 -161T597 -288T439 -367T254 -395Q115 -395 29 -343T-104 -193L4 -119Q33 -184 104 -228T281 -272Q422 -272 520 -201T647 6L670 106Q522 -2 367 -2Q147 -2 49 123T-2 465Q20 571 71 660T197 815T367
917T571 954Q647 954 712 928T825 848L844 932H981L786 10ZM799 715Q752 780 688 809T545 838Q463 838 395 809T275 730T188 612T135 465Q100 305 162 210T391 115Q469 115 547 144T696 240L799 715Z" />
<glyph unicode="h" glyph-name="h" d="M784 0H647L768 575Q795 700 755 769T594 838Q518 838 450 803T326 710T232 576T176 418L88 0H-49L227 1305H365L236 698Q389 954 643 954Q987 954 905 575L784 0Z" />
<glyph unicode="i" glyph-name="i" d="M698 1118H512L551 1305H737L698 1118ZM647 0H88L113 117H324L471 815H260L285 932H633L461 117H672L647 0Z" />
<glyph unicode="j" glyph-name="j" d="M885 1118H698L737 1305H924L885 1118ZM164 -395Q-82 -395 -133 -193L-16 -121Q4 -197 54 -238T190 -279Q258 -279 308 -260T392 -204T448 -117T485 0L657 815H446L471 932H819L623 0Q584 -180 466 -287T164 -395Z" />
<glyph unicode="k" glyph-name="k" d="M831 0H637L344 418L143 264L88 0H-49L227 1305H365L178 430L815 932H1012L455 504L831 0Z" />
<glyph unicode="l" glyph-name="l" d="M647 0H88L113 117H324L551 1188H340L365 1305H713L461 117H672L647 0Z" />
<glyph unicode="m" glyph-name="m" d="M834 0H696L838 670Q854 750 836 794T764 838Q686 838 632 756T547 526L436 0H299L440 670Q457 750 438 794T365 838Q315 838 281 809T221 735T179 635T150 526L39 0H-98L98 932H236L207 797Q285 954 428 954Q565 954 584
817Q682 954 807 954Q926 954 966 884T975 670L834 0Z" />
<glyph unicode="n" glyph-name="n" d="M784 0H647L768 575Q795 700 755 769T594 838Q518 838 450 803T326 710T232 576T176 418L88 0H-49L147 932H285L236 698Q389 954 643 954Q987 954 905 575L784 0Z" />
<glyph unicode="o" glyph-name="o" d="M956 463Q932 354 879 265T748 113T572 13T362 -23Q254 -23 172 13T39 112T-28 265T-20 463Q2 569 56 660T188 816T364 917T571 954Q682 954 764 918T897 817T963 661T956 463ZM819 463Q836 543 827 610T781 729T686 809T545
838Q463 838 391 809T264 729T171 611T117 463Q98 383 107 316T151 199T245 122T387 94Q469 94 540 122T668 199T763 315T819 463Z" />
<glyph unicode="p" glyph-name="p" d="M932 465Q907 356 855 267T728 114T558 13T354 -23Q281 -23 218 4T104 84L8 -373H-127L147 932H285L266 846Q418 954 563 954Q672 954 750 919T877 818T940 662T932 465ZM795 465Q811 543 804 611T764 730T675 809T537 838Q459
838 385 809T240 715L133 215Q178 150 239 122T379 94Q461 94 529 123T652 202T742 319T795 465Z" />
<glyph unicode="q" glyph-name="q" d="M0 465Q23 571 76 661T204 817T374 918T578 954Q723 954 825 846L844 932H981L705 -373H567L664 84Q594 31 518 4T369 -23Q260 -23 181 13T54 113T-9 267T0 465ZM137 465Q121 387 128 320T167 202T255 123T393 94Q471 94
544 122T692 215L799 715Q752 780 691 809T551 838Q469 838 401 809T279 730T190 612T137 465Z" />
<glyph unicode="r" glyph-name="r" d="M952 801Q885 838 782 838Q698 838 626 802T495 708T395 574T338 418L274 117H485L461 0H-98L-74 117H137L285 815H74L98 932H446L397 698Q547 954 809 954Q881 954 931 945T1020 913L952 801Z" />
<glyph unicode="s" glyph-name="s" d="M862 258Q846 176 794 122T670 36T515 -9T356 -23Q229 -23 112 14T-86 111L0 229Q90 164 182 129T381 94Q690 94 725 254Q733 293 713 317T652 357T559 382T446 399Q371 410 297 425T166 470T81 550T70 682Q86 752 132 803T244
888T395 938T565 954Q688 954 779 926T936 844L858 737Q791 793 713 815T539 838Q496 838 443 831T340 805T254 757T207 682Q199 643 219 620T279 581T372 556T485 539Q559 528 634 513T766 469T852 390T862 258Z" />
<glyph unicode="t" glyph-name="t" d="M905 297Q858 150 741 64T473 -23Q391 -23 330 4T231 79T181 194T184 342L285 815H74L98 932H309L389 1305H526L446 932H844L819 815H422L322 342Q311 291 317 246T346 167T406 114T498 94Q600 94 682 157T797 322L905 297Z" />
<glyph unicode="u" glyph-name="u" d="M147 932H285L162 356Q137 231 176 163T336 94Q412 94 481 129T606 222T699 356T756 514L844 932H981L784 0H647L696 233Q543 -23 289 -23Q-55 -23 25 356L147 932Z" />
<glyph unicode="v" glyph-name="v" d="M1061 932L461 0H276L68 932H231L391 115L897 932H1061Z" />
<glyph unicode="w" glyph-name="w" d="M1061 932L676 0H516L510 684L225 0H66L72 932H217L195 186L498 932H633L625 186L918 932H1061Z" />
<glyph unicode="x" glyph-name="x" d="M856 0H471L496 121H578L451 391L211 121H287L262 0H-119L-94 121H51L383 473L207 809H72L98 932H481L455 809H369L485 555L711 809H616L643 932H1030L1004 809H872L557 473L737 121H881L856 0Z" />
<glyph unicode="y" glyph-name="y" d="M1059 932L307 -236Q248 -334 170 -364T6 -395Q-90 -395 -176 -360L-125 -242Q-84 -262 -40 -270T33 -279Q100 -279 132 -246T193 -168L281 -27L68 932H229L393 117L895 932H1059Z" />
<glyph unicode="z" glyph-name="z" d="M788 0H-51L-27 117L756 815H240L186 559H70L147 932H963L938 815L156 117H696L750 373H866L788 0Z" />
<glyph unicode="{" glyph-name="braceleft" d="M565 -373H473Q412 -373 365 -352T289 -293T251 -204T254 -90L344 334Q381 502 195 502L217 614Q403 614 440 782L530 1212Q545 1274 575 1325T651 1413T751 1470T868 1491H961L938 1380H846Q676 1380 639 1212L549
782Q541 748 520 711T469 642T404 587T328 557Q365 551 390 529T432 474T455 406T453 334L362 -90Q328 -260 498 -260H590L565 -373Z" />
<glyph unicode="|" glyph-name="bar" d="M395 -186H258L614 1491H752L395 -186Z" />
<glyph unicode="}" glyph-name="braceright" d="M752 502Q567 502 530 334L440 -92Q428 -154 397 -205T319 -294T217 -352T100 -373H8L33 -260H125Q293 -260 328 -92L418 334Q426 369 447 406T498 476T565 529T639 557Q604 565 577 587T533 642T511 711T514 782L604
1212Q641 1380 473 1380H381L403 1491H496Q557 1491 604 1470T681 1411T720 1323T717 1212L627 782Q590 614 774 614L752 502Z" />
<glyph unicode="~" glyph-name="asciitilde" d="M633 373Q670 373 699 396T754 461T802 559T848 682L979 668Q954 578 917 501T832 368T726 279T604 246Q543 246 506 269T448 328T414 403T388 477T356 535T301 559Q264 559 234 536T177 471T130 374T86 252L-47
267Q-21 355 17 432T101 566T204 655T328 688Q389 688 426 665T485 607T521 531T546 455T578 397T633 373Z" />
<glyph unicode="&#xa0;" glyph-name="uni00A0" />
<glyph unicode="&#xa1;" glyph-name="exclamdown" d="M463 0L713 938H795L647 0H463ZM737 1305H924L885 1118H698L737 1305Z" />
<glyph unicode="&#xa2;" glyph-name="cent" d="M334 170Q164 203 85 331T47 651Q68 745 113 826T222 969T366 1073T539 1130L575 1305H713L678 1139Q803 1133 885 1080T1006 940L895 874Q868 936 806 976T653 1022L494 279Q588 287 666 326T801 428L883 362Q807
276 703 223T469 162L436 0H299L334 170ZM184 651Q156 518 201 421T360 291L512 1010Q385 979 299 882T184 651Z" />
<glyph unicode="&#xa3;" glyph-name="sterling" d="M100 711H287L344 975Q360 1051 396 1116T484 1228T602 1300T745 1327Q797 1327 841 1310T915 1261T963 1182T981 1075L850 1047Q846 1137 813 1173T721 1210Q623 1210 564 1149T481 975L424 711H610L586 594H399L342
324Q326 244 289 192T207 117H414Q684 117 844 340L940 281Q844 139 700 70T389 0H-49L-25 117H37Q72 117 98 133T145 174T178 227T195 279L262 594H76L100 711Z" />
<glyph unicode="&#xa4;" glyph-name="currency" d="M1104 1079L961 963Q997 901 1006 821T997 649Q977 557 934 478T831 338L922 223L825 145L733 258Q662 211 578 187T401 162Q307 162 235 188T111 262L-29 145L-90 223L49 340Q14 401 6 479T18 649Q57 834 182
961L92 1079L186 1157L276 1038Q426 1141 610 1141Q702 1141 775 1114T897 1040L1040 1157L1104 1079ZM858 649Q874 729 865 796T821 915T727 995T586 1024Q504 1024 432 996T304 916T210 797T156 649Q139 569 148 502T191 385T285 309T428 281Q510 281 580 308T708
385T804 501T858 649Z" />
<glyph unicode="&#xa5;" glyph-name="yen" d="M920 408H522L436 0H301L387 408H-12L12 528H412L420 563L356 778H66L92 899H322L203 1305H356L518 709H520L936 1305H1090L799 899H1024L997 778H711L555 563L547 528H944L920 408Z" />
<glyph unicode="&#xa6;" glyph-name="brokenbar" d="M395 -186H258L418 559H555L395 -186ZM594 745H457L614 1491H752L594 745Z" />
<glyph unicode="&#xa7;" glyph-name="section" d="M145 829Q160 905 206 970T336 1090Q285 1130 259 1190T254 1343Q270 1423 315 1484T423 1588T564 1652T723 1675Q803 1675 873 1654T996 1588T1075 1478T1094 1319L961 1298Q967 1430 901 1494T698 1559Q653
1559 604 1548T512 1511T436 1444T391 1343Q375 1270 419 1225T535 1145T693 1077T848 996T955 876T969 688Q952 616 911 550T799 430Q842 387 860 326T860 176Q842 96 795 29T682 -86T536 -159T373 -186Q287 -186 213 -165T83 -99T-7 13T-41 178L92 211Q92 72
170 1T397 -70Q453 -70 506 -55T603 -10T678 63T721 164Q739 252 697 306T584 397T426 465T270 540T160 651T145 829ZM283 831Q266 758 304 712T406 633T551 572T702 504Q750 537 783 581T829 676Q846 754 814 805T726 892T596 956T453 1018Q377 983 336 936T283
831Z" />
<glyph unicode="&#xa8;" glyph-name="dieresis" d="M885 1118H698L737 1305H924L885 1118ZM512 1118H326L365 1305H551L512 1118Z" />
<glyph unicode="&#xa9;" glyph-name="copyright" d="M881 530Q752 383 547 383Q467 383 407 409T308 484T258 599T262 745Q279 821 317 886T414 1001T544 1079T700 1108Q905 1108 971 961L850 889Q815 989 676 989Q573 989 501 920T406 745Q383 645 425 574T573
502Q713 502 788 602L881 530ZM1182 743Q1157 633 1094 532T939 353T737 230T504 184Q395 184 302 224T147 338T59 514T61 743Q86 858 151 960T309 1140T513 1261T741 1305Q854 1305 946 1262T1098 1144T1182 966T1182 743ZM1116 743Q1137 844 1118 934T1046 1091T911
1199T727 1239Q625 1239 527 1200T346 1095T206 938T127 743Q104 639 123 549T195 393T330 288T516 250Q616 250 714 288T895 392T1035 549T1116 743Z" />
<glyph unicode="&#xaa;" glyph-name="ordfeminine" d="M53 760Q70 829 115 878T224 958T364 1002T518 1016Q549 1016 567 1016T601 1014T631 1010T674 1004L690 1079Q696 1116 682 1140T643 1179T588 1200T530 1206Q444 1206 374 1189T229 1126L199 1235Q268 1276
354 1299T555 1323Q616 1323 671 1310T767 1267T825 1191T831 1079L721 559H580L602 670Q459 541 291 541Q229 541 181 555T102 598T57 667T53 760ZM315 657Q383 657 439 673T537 713T603 764T633 813L649 893Q598 901 564 902T494 903Q375 903 293 870T195 760Q186
715 216 686T315 657ZM655 256H-45L-20 373H680L655 256Z" />
<glyph unicode="&#xab;" glyph-name="guillemotleft" d="M737 229L643 150L387 477L782 807L844 727L545 477L737 229ZM367 229L270 150L16 477L410 807L473 727L172 477L367 229Z" />
<glyph unicode="&#xac;" glyph-name="logicalnot" d="M833 0H721L815 447H-4L20 559H952L833 0Z" />
<glyph unicode="&#xad;" glyph-name="uni00AD" d="M922 420H-10L16 537H948L922 420Z" />
<glyph unicode="&#xae;" glyph-name="registered" d="M1217 932Q1194 821 1131 720T977 542T775 419T541 373Q432 373 339 413T185 526T98 702T98 932Q123 1047 188 1149T346 1327T550 1447T778 1491Q891 1491 983 1449T1135 1331T1219 1153T1217 932ZM1151 932Q1174
1032 1155 1121T1083 1278T948 1385T764 1425Q662 1425 565 1388T385 1284T245 1127T164 932Q141 827 161 737T234 581T369 476T555 438Q655 438 753 476T933 580T1071 737T1151 932ZM893 596H707L584 838H549L498 596H354L498 1272H766Q817 1272 862 1259T937
1218T979 1150T979 1055Q963 975 901 915T741 844L893 596ZM838 1055Q848 1100 826 1131T743 1163H618L573 948H698Q754 948 790 978T838 1055Z" />
<glyph unicode="&#xaf;" glyph-name="overscore" d="M881 1106H322L346 1219H905L881 1106Z" />
<glyph unicode="&#xb0;" glyph-name="degree" d="M139 1118Q154 1194 199 1262T304 1381T438 1461T590 1491Q666 1491 728 1462T830 1382T884 1263T885 1118Q866 1040 822 973T718 855T583 775T432 745Q354 745 293 775T192 855T137 972T139 1118ZM231 1118Q217
1059 228 1009T270 920T346 860T451 838Q508 838 564 859T668 919T746 1008T793 1118Q805 1176 794 1227T752 1317T675 1377T571 1399Q512 1399 457 1378T354 1317T276 1227T231 1118Z" />
<glyph unicode="&#xb1;" glyph-name="plusminus" d="M924 422H514L424 0H311L401 422H-8L14 535H424L512 944H625L536 535H946L924 422ZM795 -186H-137L-115 -73H817L795 -186Z" />
<glyph unicode="&#xb2;" glyph-name="twosuperior" d="M594 1151Q582 1096 541 1051Q518 1022 446 969Q418 946 376 915T279 836H426L442 909H541L506 745H100L117 823L420 1063Q477 1110 485 1151Q494 1186 469 1204T403 1223Q289 1223 260 1085H158Q207 1317
424 1317Q508 1317 555 1276Q610 1227 594 1151Z" />
<glyph unicode="&#xb3;" glyph-name="threesuperior" d="M528 909Q514 840 446 787T285 733Q80 733 98 936L207 950Q195 827 303 827Q344 827 378 852T420 909Q432 965 401 975Q387 985 319 985L340 1085Q446 1085 461 1151Q477 1225 389 1225Q276 1225 250 1102H145Q168
1208 244 1264Q317 1315 408 1315Q500 1315 542 1269T569 1151Q553 1075 479 1040Q545 987 528 909Z" />
<glyph unicode="&#xb4;" glyph-name="acute" d="M879 1255L395 1012L371 1077L836 1364L879 1255Z" />
<glyph unicode="&#xb5;" glyph-name="mu" d="M784 0H647L696 236Q545 -23 289 -23Q166 -23 94 33L8 -373H-127L147 932H285L164 358Q137 233 176 164T336 94Q412 94 481 129T606 222T699 356T756 514L844 932H981L784 0Z" />
<glyph unicode="&#xb6;" glyph-name="paragraph" d="M809 0H672L791 559H555L436 0H299L418 567Q59 606 129 932Q209 1305 709 1305H1085L809 0ZM815 682L924 1188H688L580 682H815ZM549 1178Q430 1159 361 1097T268 932Q225 731 444 692L549 1178Z" />
<glyph unicode="&#xb7;" glyph-name="middot" d="M541 385H354L395 571H582L541 385Z" />
<glyph unicode="&#xb8;" glyph-name="cedilla" d="M451 -41Q420 -188 319 -276Q211 -371 63 -371L88 -254Q291 -254 336 -41L346 0H461L451 -41Z" />
<glyph unicode="&#xb9;" glyph-name="onesuperior" d="M449 745H160L178 836H268L330 1126Q299 1075 243 1038T113 1001L135 1100Q166 1100 203 1114T272 1155T331 1219T369 1305H477L377 836H467L449 745Z" />
<glyph unicode="&#xba;" glyph-name="ordmasculine" d="M864 932Q846 846 800 773T692 649T550 570T389 541Q305 541 240 568T132 647T76 770T80 932Q98 1020 143 1092T252 1217T394 1297T555 1325Q637 1325 703 1298T811 1218T867 1093T864 932ZM727 932Q741
993 731 1044T695 1132T626 1188T530 1208Q477 1208 427 1189T334 1133T261 1045T217 932Q190 807 246 732T414 657Q469 657 519 676T611 732T684 819T727 932ZM700 256H-45L-20 373H725L700 256Z" />
<glyph unicode="&#xbb;" glyph-name="guillemotright" d="M922 477L524 150L463 227L764 477L569 727L664 805L922 477ZM547 477L154 150L90 227L391 477L197 727L293 805L547 477Z" />
<glyph unicode="&#xbc;" glyph-name="onequarter" d="M1102 1272L-8 -27L-90 33L1024 1335L1102 1272ZM449 745H160L178 836H268L330 1126Q299 1075 243 1038T113 1001L135 1100Q166 1100 203 1114T272 1155T331 1219T369 1305H477L377 836H467L449 745ZM834 0H547L565
90H657L670 150H420L436 225L752 559H862L795 242H885L864 150H774L762 90H852L834 0ZM690 242L723 401L571 242H690Z" />
<glyph unicode="&#xbd;" glyph-name="onehalf" d="M1102 1272L-8 -27L-90 33L1024 1335L1102 1272ZM922 406Q909 350 866 305Q844 276 774 223Q743 201 703 169T606 90H754L770 164H868L834 0H428L444 78L745 317Q803 365 813 406Q819 440 796 458T731 477Q616
477 588 340H485Q535 571 752 571Q836 571 883 530Q936 481 922 406ZM449 745H160L178 836H268L330 1126Q299 1075 243 1038T113 1001L135 1100Q166 1100 203 1114T272 1155T331 1219T369 1305H477L377 836H467L449 745Z" />
<glyph unicode="&#xbe;" glyph-name="threequarters" d="M528 909Q514 840 446 787T285 733Q80 733 98 936L207 950Q195 827 303 827Q344 827 378 852T420 909Q432 965 401 975Q387 985 319 985L340 1085Q446 1085 461 1151Q477 1225 389 1225Q276 1225 250 1102H145Q168
1208 244 1264Q317 1315 408 1315Q500 1315 542 1269T569 1151Q553 1075 479 1040Q545 987 528 909ZM1102 1272L-8 -27L-90 33L1024 1335L1102 1272ZM834 0H547L565 90H657L670 150H420L436 225L752 559H862L795 242H885L864 150H774L762 90H852L834 0ZM690 242L723
401L571 242H690Z" />
<glyph unicode="&#xbf;" glyph-name="questiondown" d="M737 1305H924L885 1118H698L737 1305ZM170 283Q186 360 227 418T321 526T435 618T549 708T642 808T696 932H842Q825 854 782 793T685 678T570 578T455 484T362 389T309 283Q291 195 334 145T479 94Q606
94 686 169T805 358L924 340Q868 172 751 75T457 -23Q291 -23 216 62T170 283Z" />
<glyph unicode="&#xc0;" glyph-name="Agrave" d="M897 0H750L705 373H188L-10 0H-158L553 1305H739L897 0ZM692 494L616 1167L254 494H692ZM909 1450L856 1385L477 1628L565 1737L909 1450Z" />
<glyph unicode="&#xc1;" glyph-name="Aacute" d="M897 0H750L705 373H188L-10 0H-158L553 1305H739L897 0ZM692 494L616 1167L254 494H692ZM959 1626L475 1383L451 1448L916 1735L959 1626Z" />
<glyph unicode="&#xc2;" glyph-name="Acircumflex" d="M897 0H750L705 373H188L-10 0H-158L553 1305H739L897 0ZM692 494L616 1167L254 494H692ZM975 1452L907 1385L709 1590L420 1383L379 1448L737 1739L975 1452Z" />
<glyph unicode="&#xc3;" glyph-name="Atilde" d="M897 0H750L705 373H188L-10 0H-158L553 1305H739L897 0ZM692 494L616 1167L254 494H692ZM1088 1600Q965 1442 809 1442Q752 1442 719 1460T664 1500T619 1540T557 1559Q455 1559 367 1448L297 1495Q422 1651 576
1651Q633 1651 665 1633T721 1593T766 1553T828 1534Q930 1534 1018 1647L1088 1600Z" />
<glyph unicode="&#xc4;" glyph-name="Adieresis" d="M897 0H750L705 373H188L-10 0H-158L553 1305H739L897 0ZM692 494L616 1167L254 494H692ZM965 1489H778L817 1676H1004L965 1489ZM592 1489H406L445 1676H631L592 1489Z" />
<glyph unicode="&#xc5;" glyph-name="Aring" d="M451 1450Q461 1497 486 1538T550 1609T632 1657T723 1675Q770 1675 808 1658T869 1610T902 1538T901 1450Q887 1384 845 1333T745 1253L897 0H750L705 373H188L-10 0H-158L522 1251Q477 1280 457 1332T451 1450ZM692
494L616 1167L254 494H692ZM541 1450Q528 1395 560 1355T647 1315Q702 1315 750 1355T811 1450Q823 1505 792 1545T705 1585Q649 1585 601 1545T541 1450Z" />
<glyph unicode="&#xc6;" glyph-name="AE" d="M834 0H328L406 373H172L-16 0H-162L510 1305H1110L1083 1184H717L621 727H897L870 606H594L492 123H858L834 0ZM432 494L571 1153L236 494H432Z" />
<glyph unicode="&#xc7;" glyph-name="Ccedilla" d="M913 342Q836 193 720 99T457 -16L451 -41Q420 -188 319 -276Q211 -371 63 -371L88 -254Q291 -254 336 -41L340 -20Q215 -12 138 46T26 196T-9 406T18 651Q47 782 99 904T232 1120T419 1270T664 1327Q784 1327
861 1284T961 1153L993 1305H1110L1018 877H901Q918 946 904 1007T854 1114T763 1184T639 1210Q532 1210 453 1160T314 1029T215 849T156 651Q135 553 131 454T152 275T236 145T401 94Q645 94 805 389L913 342Z" />
<glyph unicode="&#xc8;" glyph-name="Egrave" d="M784 0H-49L227 1305H1061L1036 1188H340L240 721H754L729 604H215L113 117H809L784 0ZM909 1450L856 1385L477 1628L565 1737L909 1450Z" />
<glyph unicode="&#xc9;" glyph-name="Eacute" d="M784 0H-49L227 1305H1061L1036 1188H340L240 721H754L729 604H215L113 117H809L784 0ZM959 1626L475 1383L451 1448L916 1735L959 1626Z" />
<glyph unicode="&#xca;" glyph-name="Ecircumflex" d="M784 0H-49L227 1305H1061L1036 1188H340L240 721H754L729 604H215L113 117H809L784 0ZM975 1452L907 1385L709 1590L420 1383L379 1448L737 1739L975 1452Z" />
<glyph unicode="&#xcb;" glyph-name="Edieresis" d="M784 0H-49L227 1305H1061L1036 1188H340L240 721H754L729 604H215L113 117H809L784 0ZM965 1489H778L817 1676H1004L965 1489ZM592 1489H406L445 1676H631L592 1489Z" />
<glyph unicode="&#xcc;" glyph-name="Igrave" d="M647 0H88L113 117H324L551 1188H340L365 1305H924L899 1188H688L461 117H672L647 0ZM909 1450L856 1385L477 1628L565 1737L909 1450Z" />
<glyph unicode="&#xcd;" glyph-name="Iacute" d="M647 0H88L113 117H324L551 1188H340L365 1305H924L899 1188H688L461 117H672L647 0ZM959 1626L475 1383L451 1448L916 1735L959 1626Z" />
<glyph unicode="&#xce;" glyph-name="Icircumflex" d="M647 0H88L113 117H324L551 1188H340L365 1305H924L899 1188H688L461 117H672L647 0ZM975 1452L907 1385L709 1590L420 1383L379 1448L737 1739L975 1452Z" />
<glyph unicode="&#xcf;" glyph-name="Idieresis" d="M647 0H88L113 117H324L551 1188H340L365 1305H924L899 1188H688L461 117H672L647 0ZM965 1489H778L817 1676H1004L965 1489ZM592 1489H406L445 1676H631L592 1489Z" />
<glyph unicode="&#xd0;" glyph-name="Eth" d="M1014 653Q985 518 931 400T796 192T610 51T375 0H-49L78 606H-88L-61 723H104L227 1305H651Q788 1305 872 1252T997 1108T1040 900T1014 653ZM877 653Q932 909 866 1048T627 1188H340L242 723H496L469 606H215L113
117H399Q571 117 697 257T877 653Z" />
<glyph unicode="&#xd1;" glyph-name="Ntilde" d="M784 0H614L322 1104L88 0H-49L227 1305H420L700 252L924 1305H1061L784 0ZM1088 1600Q965 1442 809 1442Q752 1442 719 1460T664 1500T619 1540T557 1559Q455 1559 367 1448L297 1495Q422 1651 576 1651Q633 1651
665 1633T721 1593T766 1553T828 1534Q930 1534 1018 1647L1088 1600Z" />
<glyph unicode="&#xd2;" glyph-name="Ograve" d="M1006 651Q977 520 925 398T794 183T608 34T362 -23Q225 -23 142 33T20 183T-21 398T6 651Q35 782 87 904T220 1120T407 1270T649 1327Q784 1327 868 1271T991 1120T1032 904T1006 651ZM868 651Q895 780 893 883T860
1060T770 1171T625 1210Q518 1210 438 1160T299 1029T202 849T143 651Q123 553 118 454T138 275T222 145T387 94Q494 94 574 144T713 274T810 453T868 651ZM909 1450L856 1385L477 1628L565 1737L909 1450Z" />
<glyph unicode="&#xd3;" glyph-name="Oacute" d="M1006 651Q977 520 925 398T794 183T608 34T362 -23Q225 -23 142 33T20 183T-21 398T6 651Q35 782 87 904T220 1120T407 1270T649 1327Q784 1327 868 1271T991 1120T1032 904T1006 651ZM868 651Q895 780 893 883T860
1060T770 1171T625 1210Q518 1210 438 1160T299 1029T202 849T143 651Q123 553 118 454T138 275T222 145T387 94Q494 94 574 144T713 274T810 453T868 651ZM959 1626L475 1383L451 1448L916 1735L959 1626Z" />
<glyph unicode="&#xd4;" glyph-name="Ocircumflex" d="M1006 651Q977 520 925 398T794 183T608 34T362 -23Q225 -23 142 33T20 183T-21 398T6 651Q35 782 87 904T220 1120T407 1270T649 1327Q784 1327 868 1271T991 1120T1032 904T1006 651ZM868 651Q895 780 893
883T860 1060T770 1171T625 1210Q518 1210 438 1160T299 1029T202 849T143 651Q123 553 118 454T138 275T222 145T387 94Q494 94 574 144T713 274T810 453T868 651ZM975 1452L907 1385L709 1590L420 1383L379 1448L737 1739L975 1452Z" />
<glyph unicode="&#xd5;" glyph-name="Otilde" d="M1006 651Q977 520 925 398T794 183T608 34T362 -23Q225 -23 142 33T20 183T-21 398T6 651Q35 782 87 904T220 1120T407 1270T649 1327Q784 1327 868 1271T991 1120T1032 904T1006 651ZM868 651Q895 780 893 883T860
1060T770 1171T625 1210Q518 1210 438 1160T299 1029T202 849T143 651Q123 553 118 454T138 275T222 145T387 94Q494 94 574 144T713 274T810 453T868 651ZM1088 1600Q965 1442 809 1442Q752 1442 719 1460T664 1500T619 1540T557 1559Q455 1559 367 1448L297 1495Q422
1651 576 1651Q633 1651 665 1633T721 1593T766 1553T828 1534Q930 1534 1018 1647L1088 1600Z" />
<glyph unicode="&#xd6;" glyph-name="Odieresis" d="M1006 651Q977 520 925 398T794 183T608 34T362 -23Q225 -23 142 33T20 183T-21 398T6 651Q35 782 87 904T220 1120T407 1270T649 1327Q784 1327 868 1271T991 1120T1032 904T1006 651ZM868 651Q895 780 893
883T860 1060T770 1171T625 1210Q518 1210 438 1160T299 1029T202 849T143 651Q123 553 118 454T138 275T222 145T387 94Q494 94 574 144T713 274T810 453T868 651ZM965 1489H778L817 1676H1004L965 1489ZM592 1489H406L445 1676H631L592 1489Z" />
<glyph unicode="&#xd7;" glyph-name="multiply" d="M901 768L547 478L776 187L680 109L453 400L100 109L39 187L389 478L164 768L258 846L485 555L838 846L901 768Z" />
<glyph unicode="&#xd8;" glyph-name="Oslash" d="M-102 188L-8 272Q-27 356 -22 451T6 651Q35 782 87 904T220 1120T407 1270T649 1327Q780 1327 862 1274T985 1130L1151 1276L1116 1116L1016 1030Q1034 946 1031 851T1006 651Q977 520 925 398T794 183T608 34T362
-23Q227 -23 147 28T25 170L-137 29L-102 188ZM868 651Q901 801 891 922L137 268Q162 190 221 142T387 94Q494 94 574 144T713 274T810 453T868 651ZM143 651Q129 582 122 513T119 381L870 1032Q842 1118 781 1164T625 1210Q518 1210 438 1160T299 1029T202 849T143
651Z" />
<glyph unicode="&#xd9;" glyph-name="Ugrave" d="M883 465Q858 354 815 264T707 111T555 12T360 -23Q252 -23 181 12T73 110T31 265T49 467L227 1305H365L186 465Q174 406 170 340T185 220T251 130T385 94Q473 94 536 130T642 220T708 340T745 465L924 1305H1061L883
465ZM909 1450L856 1385L477 1628L565 1737L909 1450Z" />
<glyph unicode="&#xda;" glyph-name="Uacute" d="M883 465Q858 354 815 264T707 111T555 12T360 -23Q252 -23 181 12T73 110T31 265T49 467L227 1305H365L186 465Q174 406 170 340T185 220T251 130T385 94Q473 94 536 130T642 220T708 340T745 465L924 1305H1061L883
465ZM959 1626L475 1383L451 1448L916 1735L959 1626Z" />
<glyph unicode="&#xdb;" glyph-name="Ucircumflex" d="M883 465Q858 354 815 264T707 111T555 12T360 -23Q252 -23 181 12T73 110T31 265T49 467L227 1305H365L186 465Q174 406 170 340T185 220T251 130T385 94Q473 94 536 130T642 220T708 340T745 465L924 1305H1061L883
465ZM975 1452L907 1385L709 1590L420 1383L379 1448L737 1739L975 1452Z" />
<glyph unicode="&#xdc;" glyph-name="Udieresis" d="M883 465Q858 354 815 264T707 111T555 12T360 -23Q252 -23 181 12T73 110T31 265T49 467L227 1305H365L186 465Q174 406 170 340T185 220T251 130T385 94Q473 94 536 130T642 220T708 340T745 465L924 1305H1061L883
465ZM965 1489H778L817 1676H1004L965 1489ZM592 1489H406L445 1676H631L592 1489Z" />
<glyph unicode="&#xdd;" glyph-name="Yacute" d="M1106 1188H999L555 563L461 117H672L647 0H88L113 117H324L418 563L240 1188H133L158 1305H526L502 1188H393L516 696L846 1188H737L762 1305H1130L1106 1188ZM959 1626L475 1383L451 1448L916 1735L959 1626Z" />
<glyph unicode="&#xde;" glyph-name="Thorn" d="M971 664Q893 291 393 291H150L88 0H-49L227 1305H365L307 1036H551Q1051 1036 971 664ZM831 664Q887 918 526 918H283L174 406H418Q598 406 701 471T831 664Z" />
<glyph unicode="&#xdf;" glyph-name="germandbls" d="M889 268Q877 207 839 154T746 62T621 0T475 -23Q377 -23 312 5T190 86L291 190Q334 141 383 118T500 94Q592 94 661 137T752 270Q762 326 741 363T682 429T598 481T514 534T456 602T446 698Q461 766 502 804T589
873T676 942T729 1040Q745 1110 715 1160T584 1210Q510 1210 457 1181T366 1100T306 984T266 846L88 0H-49L129 844Q145 920 176 1005T261 1161T400 1280T608 1327Q684 1327 739 1305T827 1244T870 1154T866 1040Q850 958 807 909T717 828T632 769T586 709Q580
682 605 661T670 616T754 564T834 495T887 400T889 268Z" />
<glyph unicode="&#xe0;" glyph-name="agrave" d="M-45 252Q-27 340 29 399T165 493T340 543T532 559Q569 559 598 558T653 555T705 550T764 543L778 610Q793 678 773 722T714 791T631 827T553 838Q448 838 355 810T176 735L135 838Q231 889 343 921T580 954Q655
954 725 935T844 875T913 768T915 610L786 0H649L682 156Q635 111 583 77T476 22T369 -11T270 -23Q86 -23 6 48T-45 252ZM295 94Q381 94 455 119T585 183T677 264T721 342L739 430Q674 440 613 441T506 442Q432 442 362 432T236 400T141 341T92 252Q78 193 125
144T295 94ZM829 1077L776 1012L397 1255L485 1364L829 1077Z" />
<glyph unicode="&#xe1;" glyph-name="aacute" d="M-45 252Q-27 340 29 399T165 493T340 543T532 559Q569 559 598 558T653 555T705 550T764 543L778 610Q793 678 773 722T714 791T631 827T553 838Q448 838 355 810T176 735L135 838Q231 889 343 921T580 954Q655
954 725 935T844 875T913 768T915 610L786 0H649L682 156Q635 111 583 77T476 22T369 -11T270 -23Q86 -23 6 48T-45 252ZM295 94Q381 94 455 119T585 183T677 264T721 342L739 430Q674 440 613 441T506 442Q432 442 362 432T236 400T141 341T92 252Q78 193 125
144T295 94ZM879 1510L395 1267L371 1332L836 1619L879 1510Z" />
<glyph unicode="&#xe2;" glyph-name="acircumflex" d="M-45 252Q-27 340 29 399T165 493T340 543T532 559Q569 559 598 558T653 555T705 550T764 543L778 610Q793 678 773 722T714 791T631 827T553 838Q448 838 355 810T176 735L135 838Q231 889 343 921T580 954Q655
954 725 935T844 875T913 768T915 610L786 0H649L682 156Q635 111 583 77T476 22T369 -11T270 -23Q86 -23 6 48T-45 252ZM295 94Q381 94 455 119T585 183T677 264T721 342L739 430Q674 440 613 441T506 442Q432 442 362 432T236 400T141 341T92 252Q78 193 125
144T295 94ZM895 1336L827 1269L629 1474L340 1267L299 1332L657 1623L895 1336Z" />
<glyph unicode="&#xe3;" glyph-name="atilde" d="M-45 252Q-27 340 29 399T165 493T340 543T532 559Q569 559 598 558T653 555T705 550T764 543L778 610Q793 678 773 722T714 791T631 827T553 838Q448 838 355 810T176 735L135 838Q231 889 343 921T580 954Q655
954 725 935T844 875T913 768T915 610L786 0H649L682 156Q635 111 583 77T476 22T369 -11T270 -23Q86 -23 6 48T-45 252ZM295 94Q381 94 455 119T585 183T677 264T721 342L739 430Q674 440 613 441T506 442Q432 442 362 432T236 400T141 341T92 252Q78 193 125
144T295 94ZM1008 1484Q885 1326 729 1326Q672 1326 639 1344T584 1384T539 1424T477 1443Q375 1443 287 1332L217 1379Q342 1535 496 1535Q553 1535 585 1517T641 1477T686 1437T748 1418Q850 1418 938 1531L1008 1484Z" />
<glyph unicode="&#xe4;" glyph-name="adieresis" d="M-45 252Q-27 340 29 399T165 493T340 543T532 559Q569 559 598 558T653 555T705 550T764 543L778 610Q793 678 773 722T714 791T631 827T553 838Q448 838 355 810T176 735L135 838Q231 889 343 921T580 954Q655
954 725 935T844 875T913 768T915 610L786 0H649L682 156Q635 111 583 77T476 22T369 -11T270 -23Q86 -23 6 48T-45 252ZM295 94Q381 94 455 119T585 183T677 264T721 342L739 430Q674 440 613 441T506 442Q432 442 362 432T236 400T141 341T92 252Q78 193 125
144T295 94ZM885 1118H698L737 1305H924L885 1118ZM512 1118H326L365 1305H551L512 1118Z" />
<glyph unicode="&#xe5;" glyph-name="aring" d="M-45 252Q-27 340 29 399T165 493T340 543T532 559Q569 559 598 558T653 555T705 550T764 543L778 610Q793 678 773 722T714 791T631 827T553 838Q448 838 355 810T176 735L135 838Q231 889 343 921T580 954Q655
954 725 935T844 875T913 768T915 610L786 0H649L682 156Q635 111 583 77T476 22T369 -11T270 -23Q86 -23 6 48T-45 252ZM295 94Q381 94 455 119T585 183T677 264T721 342L739 430Q674 440 613 441T506 442Q432 442 362 432T236 400T141 341T92 252Q78 193 125
144T295 94ZM410 1512Q420 1560 445 1600T509 1672T591 1720T682 1738Q729 1738 767 1721T828 1672T861 1601T860 1512Q850 1465 825 1424T761 1353T679 1305T588 1287Q541 1287 503 1304T442 1352T409 1424T410 1512ZM500 1512Q487 1457 519 1417T606 1377Q662
1377 710 1417T770 1512Q782 1568 751 1608T664 1648Q608 1648 560 1608T500 1512Z" />
<glyph unicode="&#xe6;" glyph-name="ae" d="M385 170Q367 135 338 102T273 40T193 -5T100 -23Q-16 -23 -60 56T-82 254Q-66 334 -25 392T70 487T189 541T317 559Q340 559 362 558T408 553L428 649Q444 725 422 782T328 840Q287 840 232 804T129 709L61 793Q96
836 138 866T219 916T293 945T352 954Q430 954 478 920T532 807Q578 885 651 919T795 954Q887 954 928 898T977 760T973 585T944 418H516Q481 252 503 178T604 104Q651 104 693 133T768 227L877 190Q819 82 746 30T569 -23Q494 -23 442 27T385 170ZM821 539Q856
702 840 771T752 840Q686 840 632 774T541 539H821ZM383 438Q371 440 349 441T303 442Q217 442 146 394T53 244Q41 190 61 147T141 104Q174 104 209 119T272 161T322 224T354 301L383 438Z" />
<glyph unicode="&#xe7;" glyph-name="ccedilla" d="M836 178Q764 96 669 45T457 -18L451 -41Q420 -188 319 -276Q211 -371 63 -371L88 -254Q291 -254 336 -41L340 -20Q242 -12 168 25T49 126T-9 276T0 465Q23 571 75 661T201 816T372 917T578 954Q621 954 663
944T740 914T801 865T836 797L864 932H987L909 559H786Q799 621 788 672T745 760T663 817T551 838Q467 838 399 809T278 730T190 613T137 465Q119 385 129 318T175 201T270 123T412 94Q516 94 606 135T754 244L836 178Z" />
<glyph unicode="&#xe8;" glyph-name="egrave" d="M127 418Q111 270 184 182T408 94Q512 94 603 137T750 244L831 178Q741 80 633 29T383 -23Q274 -23 193 13T59 113T-11 267T-4 465Q18 571 69 660T196 815T368 917T573 954Q692 954 772 914T897 804T949 635T932
418H127ZM811 535Q821 688 749 763T547 838Q481 838 421 817T309 755T217 659T154 535H811ZM829 1077L776 1012L397 1255L485 1364L829 1077Z" />
<glyph unicode="&#xe9;" glyph-name="eacute" d="M127 418Q111 270 184 182T408 94Q512 94 603 137T750 244L831 178Q741 80 633 29T383 -23Q274 -23 193 13T59 113T-11 267T-4 465Q18 571 69 660T196 815T368 917T573 954Q692 954 772 914T897 804T949 635T932
418H127ZM811 535Q821 688 749 763T547 838Q481 838 421 817T309 755T217 659T154 535H811ZM879 1510L395 1267L371 1332L836 1619L879 1510Z" />
<glyph unicode="&#xea;" glyph-name="ecircumflex" d="M127 418Q111 270 184 182T408 94Q512 94 603 137T750 244L831 178Q741 80 633 29T383 -23Q274 -23 193 13T59 113T-11 267T-4 465Q18 571 69 660T196 815T368 917T573 954Q692 954 772 914T897 804T949 635T932
418H127ZM811 535Q821 688 749 763T547 838Q481 838 421 817T309 755T217 659T154 535H811ZM895 1336L827 1269L629 1474L340 1267L299 1332L657 1623L895 1336Z" />
<glyph unicode="&#xeb;" glyph-name="edieresis" d="M127 418Q111 270 184 182T408 94Q512 94 603 137T750 244L831 178Q741 80 633 29T383 -23Q274 -23 193 13T59 113T-11 267T-4 465Q18 571 69 660T196 815T368 917T573 954Q692 954 772 914T897 804T949 635T932
418H127ZM811 535Q821 688 749 763T547 838Q481 838 421 817T309 755T217 659T154 535H811ZM885 1118H698L737 1305H924L885 1118ZM512 1118H326L365 1305H551L512 1118Z" />
<glyph unicode="&#xec;" glyph-name="igrave" d="M647 0H88L113 117H324L471 811H260L285 932H633L461 117H672L647 0ZM829 1077L776 1012L397 1255L485 1364L829 1077Z" />
<glyph unicode="&#xed;" glyph-name="iacute" d="M647 0H88L113 117H324L471 811H260L285 932H633L461 117H672L647 0ZM879 1510L395 1267L371 1332L836 1619L879 1510Z" />
<glyph unicode="&#xee;" glyph-name="icircumflex" d="M647 0H88L113 117H324L471 811H260L285 932H633L461 117H672L647 0ZM895 1336L827 1269L629 1474L340 1267L299 1332L657 1623L895 1336Z" />
<glyph unicode="&#xef;" glyph-name="idieresis" d="M647 0H88L113 117H324L471 811H260L285 932H633L461 117H672L647 0ZM885 1118H698L737 1305H924L885 1118ZM512 1118H326L365 1305H551L512 1118Z" />
<glyph unicode="&#xf0;" glyph-name="eth" d="M342 977L535 1137Q500 1159 460 1176T377 1210L446 1327Q555 1282 645 1229L819 1372L881 1292L733 1169Q803 1118 856 1055T941 914T981 743T965 537Q938 408 880 305T738 128T551 16T326 -23Q121 -23 19 73T-45
354Q-23 459 53 540T243 682T502 785T809 852Q782 922 734 977T625 1079L403 897L342 977ZM827 537Q840 592 842 642T838 739Q690 723 560 688T332 604T171 493T92 354Q68 238 136 166T350 94Q442 94 520 126T659 216T764 356T827 537Z" />
<glyph unicode="&#xf1;" glyph-name="ntilde" d="M784 0H647L768 575Q795 700 755 769T594 838Q518 838 450 803T326 710T232 576T176 418L88 0H-49L147 932H285L236 698Q389 954 643 954Q987 954 905 575L784 0ZM1008 1484Q885 1326 729 1326Q672 1326 639 1344T584
1384T539 1424T477 1443Q375 1443 287 1332L217 1379Q342 1535 496 1535Q553 1535 585 1517T641 1477T686 1437T748 1418Q850 1418 938 1531L1008 1484Z" />
<glyph unicode="&#xf2;" glyph-name="ograve" d="M956 463Q932 354 879 265T748 113T572 13T362 -23Q254 -23 172 13T39 112T-28 265T-20 463Q2 569 56 660T188 816T364 917T571 954Q682 954 764 918T897 817T963 661T956 463ZM819 463Q836 543 827 610T781 729T686
809T545 838Q463 838 391 809T264 729T171 611T117 463Q98 383 107 316T151 199T245 122T387 94Q469 94 540 122T668 199T763 315T819 463ZM829 1077L776 1012L397 1255L485 1364L829 1077Z" />
<glyph unicode="&#xf3;" glyph-name="oacute" d="M956 463Q932 354 879 265T748 113T572 13T362 -23Q254 -23 172 13T39 112T-28 265T-20 463Q2 569 56 660T188 816T364 917T571 954Q682 954 764 918T897 817T963 661T956 463ZM819 463Q836 543 827 610T781 729T686
809T545 838Q463 838 391 809T264 729T171 611T117 463Q98 383 107 316T151 199T245 122T387 94Q469 94 540 122T668 199T763 315T819 463ZM879 1510L395 1267L371 1332L836 1619L879 1510Z" />
<glyph unicode="&#xf4;" glyph-name="ocircumflex" d="M956 463Q932 354 879 265T748 113T572 13T362 -23Q254 -23 172 13T39 112T-28 265T-20 463Q2 569 56 660T188 816T364 917T571 954Q682 954 764 918T897 817T963 661T956 463ZM819 463Q836 543 827 610T781
729T686 809T545 838Q463 838 391 809T264 729T171 611T117 463Q98 383 107 316T151 199T245 122T387 94Q469 94 540 122T668 199T763 315T819 463ZM895 1336L827 1269L629 1474L340 1267L299 1332L657 1623L895 1336Z" />
<glyph unicode="&#xf5;" glyph-name="otilde" d="M956 463Q932 354 879 265T748 113T572 13T362 -23Q254 -23 172 13T39 112T-28 265T-20 463Q2 569 56 660T188 816T364 917T571 954Q682 954 764 918T897 817T963 661T956 463ZM819 463Q836 543 827 610T781 729T686
809T545 838Q463 838 391 809T264 729T171 611T117 463Q98 383 107 316T151 199T245 122T387 94Q469 94 540 122T668 199T763 315T819 463ZM1008 1484Q885 1326 729 1326Q672 1326 639 1344T584 1384T539 1424T477 1443Q375 1443 287 1332L217 1379Q342 1535 496
1535Q553 1535 585 1517T641 1477T686 1437T748 1418Q850 1418 938 1531L1008 1484Z" />
<glyph unicode="&#xf6;" glyph-name="odieresis" d="M956 463Q932 354 879 265T748 113T572 13T362 -23Q254 -23 172 13T39 112T-28 265T-20 463Q2 569 56 660T188 816T364 917T571 954Q682 954 764 918T897 817T963 661T956 463ZM819 463Q836 543 827 610T781
729T686 809T545 838Q463 838 391 809T264 729T171 611T117 463Q98 383 107 316T151 199T245 122T387 94Q469 94 540 122T668 199T763 315T819 463ZM885 1118H698L737 1305H924L885 1118ZM512 1118H326L365 1305H551L512 1118Z" />
<glyph unicode="&#xf7;" glyph-name="divide" d="M620 758H434L475 944H661L620 758ZM463 13H276L315 199H502L463 13ZM922 420H-10L16 537H948L922 420Z" />
<glyph unicode="&#xf8;" glyph-name="oslash" d="M-115 119L-10 193Q-53 309 -20 463Q2 569 56 660T188 816T364 917T571 954Q684 954 766 917T899 811L1075 932L1051 813L940 737Q987 616 956 463Q932 354 879 265T748 113T572 13T362 -23Q250 -23 167 14T33
119L-141 0L-115 119ZM819 463Q842 569 815 653L152 201Q188 152 245 123T387 94Q469 94 540 122T668 199T763 315T819 463ZM117 463Q92 356 115 279L780 731Q743 780 685 809T545 838Q463 838 391 809T264 729T171 611T117 463Z" />
<glyph unicode="&#xf9;" glyph-name="ugrave" d="M147 932H285L162 356Q137 231 176 163T336 94Q412 94 481 129T606 222T699 356T756 514L844 932H981L784 0H647L696 233Q543 -23 289 -23Q-55 -23 25 356L147 932ZM829 1079L776 1014L397 1257L485 1366L829 1079Z" />
<glyph unicode="&#xfa;" glyph-name="uacute" d="M147 932H285L162 356Q137 231 176 163T336 94Q412 94 481 129T606 222T699 356T756 514L844 932H981L784 0H647L696 233Q543 -23 289 -23Q-55 -23 25 356L147 932ZM879 1255L395 1012L371 1077L836 1364L879 1255Z" />
<glyph unicode="&#xfb;" glyph-name="ucircumflex" d="M147 932H285L162 356Q137 231 176 163T336 94Q412 94 481 129T606 222T699 356T756 514L844 932H981L784 0H647L696 233Q543 -23 289 -23Q-55 -23 25 356L147 932ZM895 1081L827 1014L629 1219L340 1012L299
1077L657 1368L895 1081Z" />
<glyph unicode="&#xfc;" glyph-name="udieresis" d="M147 932H285L162 356Q137 231 176 163T336 94Q412 94 481 129T606 222T699 356T756 514L844 932H981L784 0H647L696 233Q543 -23 289 -23Q-55 -23 25 356L147 932ZM885 1118H698L737 1305H924L885 1118ZM512
1118H326L365 1305H551L512 1118Z" />
<glyph unicode="&#xfd;" glyph-name="yacute" d="M1059 932L307 -236Q248 -334 170 -364T6 -395Q-90 -395 -176 -360L-125 -242Q-84 -262 -40 -270T33 -279Q100 -279 132 -246T193 -168L281 -27L68 932H229L393 117L895 932H1059ZM879 1255L395 1012L371 1077L836
1364L879 1255Z" />
<glyph unicode="&#xfe;" glyph-name="thorn" d="M934 465Q909 356 858 267T732 113T562 11T356 -25Q207 -25 102 74L8 -373H-127L227 1305H365L268 856Q416 954 565 954Q672 954 751 920T879 822T942 668T934 465ZM795 465Q811 547 804 615T767 734T680 813T541
842Q385 842 240 715L133 215Q223 86 379 86Q461 86 530 114T652 194T740 315T795 465Z" />
<glyph unicode="&#xff;" glyph-name="ydieresis" d="M1059 932L307 -236Q248 -334 170 -364T6 -395Q-90 -395 -176 -360L-125 -242Q-84 -262 -40 -270T33 -279Q100 -279 132 -246T193 -168L281 -27L68 932H229L393 117L895 932H1059ZM885 1118H698L737 1305H924L885
1118ZM512 1118H326L365 1305H551L512 1118Z" />
<glyph unicode="&#x2013;" glyph-name="endash" d="M-10 424L14 532H946L922 424H-10Z" />
<glyph unicode="&#x2014;" glyph-name="emdash" d="M1016 424H-100L-78 532H1040L1016 424Z" />
<glyph unicode="&#x2018;" glyph-name="quoteleft" d="M805 745H485L530 963Q547 1032 579 1093T662 1201T778 1275T924 1303L899 1186Q696 1186 647 963L641 932H844L805 745Z" />
<glyph unicode="&#x2019;" glyph-name="quoteright" d="M365 1305H684L637 1087Q623 1018 589 957T506 849T392 776T246 748L270 864Q473 864 520 1087L528 1118H326L365 1305Z" />
<glyph unicode="&#x201a;" glyph-name="quotesinglbase" d="M499 187H818L771 -31Q757 -100 723 -161T640 -269T526 -342T380 -370L404 -254Q607 -254 654 -31L662 0H460L499 187Z" />
<glyph unicode="&#x201c;" glyph-name="quotedblleft" d="M991 745H672L717 963Q733 1032 766 1093T849 1201T964 1275T1110 1303L1085 1186Q883 1186 834 963L827 932H1030L991 745ZM432 745H115L160 963Q176 1032 208 1093T290 1201T405 1275T551 1303L526 1186Q326
1186 276 963L270 932H471L432 745Z" />
<glyph unicode="&#x201d;" glyph-name="quotedblright" d="M178 1305H498L451 1087Q436 1018 403 957T320 849T205 776T59 748L84 864Q287 864 334 1087L342 1118H139L178 1305ZM737 1305H1055L1008 1087Q993 1018 961 957T879 849T764 776T618 748L643 864Q844
864 891 1087L899 1118H698L737 1305Z" />
<glyph unicode="&#x201e;" glyph-name="quotedblbase" d="M-59 187H261L214 -31Q199 -100 166 -161T83 -269T-32 -342T-178 -370L-153 -254Q50 -254 97 -31L105 0H-98L-59 187ZM500 187H818L771 -31Q756 -100 724 -161T642 -269T527 -342T381 -370L406 -254Q607
-254 654 -31L662 0H461L500 187Z" />
<glyph unicode="&#x2022;" glyph-name="bullet" d="M207 559Q221 635 266 703T371 822T506 902T657 932Q733 932 795 902T898 822T952 704T952 559Q934 481 890 414T786 296T650 216T500 186Q422 186 361 216T259 296T204 413T207 559Z" />
<glyph unicode="&#x2039;" glyph-name="guilsinglleft" d="M553 229L459 150L201 477L598 807L659 727L358 477L553 229Z" />
<glyph unicode="&#x203a;" glyph-name="guilsinglright" d="M735 477L340 150L276 227L578 477L383 727L479 805L735 477Z" />
</font>
</defs>
</svg>
