<?xml version="1.0" standalone="no"?>
<!DOCTYPE svg PUBLIC "-//W3C//DTD SVG 1.1//EN" "http://www.w3.org/Graphics/SVG/1.1/DTD/svg11.dtd">
<svg xmlns="http://www.w3.org/2000/svg">
<defs >
<font id="InknutAntiqua" horiz-adv-x="779" ><font-face
    font-family="Inknut Antiqua Light"
    units-per-em="1000"
    panose-1="0 0 4 0 0 0 0 0 0 0"
    ascent="1703"
    descent="-876"
    alphabetic="0" />
<glyph unicode=" " glyph-name="space" horiz-adv-x="284" />
<glyph unicode="!" glyph-name="exclam" horiz-adv-x="350" d="M145 236L86 714V740L215 786H248L197 236H145ZM207 147T225 126T243 74Q243 52 230 33T198 2T160 -10Q133 -10 115 11T97 63Q97 85 110 104T142 135T179 147Q207 147 225 126Z" />
<glyph unicode="&quot;" glyph-name="quotedbl" horiz-adv-x="456" d="M120 444L60 722V748L160 786H193L159 445L120 444ZM324 444L264 722V748L364 786H397L363 445L324 444Z" />
<glyph unicode="#" glyph-name="numbersign" horiz-adv-x="780" d="M468 181H630L607 141H445L358 -10L324 10L400 141H238L151 -10L117 10L193 141H32L55 181H216L311 346H149L173 386H334L423 540L457 520L380 386H542L631 540L665 520L588 386H749L725 346H563L468
181ZM355 346L260 181H422L517 346H355Z" />
<glyph unicode="$" glyph-name="dollar" horiz-adv-x="700" d="M626 173T583 116T478 20T363 -21V-200H314V-19Q251 -14 182 -1T81 26V215H108Q152 148 204 106T314 50V346Q241 383 195 411T118 478T86 562Q86 608 121 661T210 755T314 804V986H363V805Q424 802
493 789T596 759V570H569Q475 720 362 739V454L394 438Q469 401 515 373T593 307T625 223H626Q626 173 583 116ZM202 570T231 540T314 480V740Q262 734 232 698T202 606Q202 570 231 540ZM409 44T442 63T494 113T512 180Q512 219 474 251T364 321V44H365Q409 44
442 63Z" />
<glyph unicode="%" glyph-name="percent" horiz-adv-x="1069" d="M637 883T685 857T761 787T788 689Q788 631 746 581T641 500T519 470Q459 470 411 495T335 566T308 665Q308 722 350 772T454 853T576 883Q637 883 685 857ZM403 818T403 698Q403 629 444 583T565
536Q693 536 693 656Q693 725 651 771T529 818Q403 818 403 698ZM167 -139L136 -116L930 947L963 925L167 -139ZM867 298T915 272T991 202T1018 104Q1018 46 976 -4T871 -85T749 -115Q689 -115 641 -90T565 -19T538 80Q538 137 580 187T684 268T806 298Q867 298
915 272ZM633 233T633 113Q633 44 674 -3T795 -50Q923 -50 923 71Q923 140 881 186T759 233Q633 233 633 113Z" />
<glyph unicode="&amp;" glyph-name="ampersand" horiz-adv-x="1249" d="M1034 70T1132 155L1162 121L1006 -1Q970 -8 920 -8Q865 -8 821 16T751 80T726 169Q726 210 743 249L425 -2Q381 -9 315 -9Q246 -9 192 27T106 127T75 268Q75 351 124 423T247 538T391 581Q420
581 447 564T493 521T519 471Q561 520 616 550T721 581Q760 581 789 571T861 539Q903 517 935 506T1009 495Q1032 495 1058 507T1103 540T1122 587Q1122 624 1085 659T983 721V747L1089 790Q1120 758 1152 703T1185 609Q1185 562 1146 511T1053 425T966 390Q937
390 911 393Q877 368 861 325T844 213Q844 150 878 109T976 68L978 70Q1034 70 1132 155ZM408 70T448 87T553 156L868 403Q830 412 770 439Q728 457 704 464T650 472Q616 472 586 460T519 416Q509 373 475 334T396 263T269 176L251 211Q334 264 364 313T394 417Q394
453 371 478T321 504Q259 504 227 457T195 317Q195 212 241 141T375 70H374Q408 70 448 87Z" />
<glyph unicode="&apos;" glyph-name="quotesingle" horiz-adv-x="253" d="M120 444L60 722V748L160 786H193L159 445L120 444Z" />
<glyph unicode="(" glyph-name="parenleft" horiz-adv-x="518" d="M331 829T265 705T198 403Q198 220 261 66T450 -176L427 -210Q320 -169 241 -89T117 105T73 355Q73 709 431 953L451 919Q331 829 265 705Z" />
<glyph unicode=")" glyph-name="parenright" horiz-adv-x="518" d="M187 -86T253 38T320 340Q320 523 257 677T68 919L91 953Q198 912 277 832T401 638T445 388Q445 34 87 -210L67 -176Q187 -86 253 38Z" />
<glyph unicode="*" glyph-name="asterisk" horiz-adv-x="698" d="M352 548L369 712L489 813L555 685L543 662L469 711L369 538L352 548ZM348 549L331 539L197 635L170 790L314 784L327 761L249 721L348 549ZM30 503L108 624H134L128 536H328V516L178 448L30 503ZM590
426H564L570 514H370V534L520 602L668 548L590 426ZM346 503L330 339L209 238L143 365L155 388L229 340L329 512L346 503ZM528 260L384 266L371 289L450 329L350 501L367 511L501 415L528 260Z" />
<glyph unicode="+" glyph-name="plus" horiz-adv-x="525" d="M280 290V86H244V290H40V326H244V530H280V326H484V290H280Z" />
<glyph unicode="," glyph-name="comma" horiz-adv-x="370" d="M86 -264L53 -238Q106 -175 127 -130T153 -29L76 16V42L239 125L273 -20L86 -264Z" />
<glyph unicode="-" glyph-name="hyphen" horiz-adv-x="513" d="M84 295L124 346H429V321L389 270H84V295Z" />
<glyph unicode="." glyph-name="period" horiz-adv-x="341" d="M208 147T225 126T243 74Q243 52 231 33T199 2T161 -10Q134 -10 116 11T98 63Q98 85 110 104T142 135T180 147Q208 147 225 126Z" />
<glyph unicode="/" glyph-name="slash" horiz-adv-x="355" d="M69 -139L23 -131L285 943L333 934L69 -139Z" />
<glyph unicode="0" glyph-name="zero" horiz-adv-x="745" d="M484 580T544 543T639 443T673 302Q673 220 621 148T489 33T337 -10Q261 -10 201 26T107 126T73 267Q73 350 125 422T256 537T408 580Q484 580 544 543ZM192 501T192 315Q192 248 214 192T282 103T395
69Q554 69 554 255Q554 322 532 378T463 467T350 501Q192 501 192 315Z" />
<glyph unicode="1" glyph-name="one" horiz-adv-x="492" d="M389 0H94V26L191 102V497L85 535L103 570H398V544L301 468V73L407 35L389 0Z" />
<glyph unicode="2" glyph-name="two" horiz-adv-x="578" d="M524 -18L474 0H44V26Q172 133 238 197T331 301T357 377Q357 432 320 467T222 502Q161 502 76 424L46 458L191 573Q214 580 250 580Q317 580 368 562T447 510T475 434Q475 335 213 111H468L499 191L524
182V-18Z" />
<glyph unicode="3" glyph-name="three" horiz-adv-x="560" d="M424 207T454 168T485 84Q485 -23 383 -105T54 -264L41 -221Q174 -172 242 -135T338 -58T366 37Q366 64 355 85T316 131T232 191V211Q288 281 306 313T324 377Q324 432 293 466T211 501Q148 501 59
423L29 457L174 572Q193 580 213 580Q275 580 328 560T412 507T443 434Q440 399 418 361T342 264Q424 207 454 168Z" />
<glyph unicode="4" glyph-name="four" horiz-adv-x="693" d="M510 64V-155L400 -214V64H30V90L400 540L510 599V130H663L628 64H510ZM400 450L144 130H400V450Z" />
<glyph unicode="5" glyph-name="five" horiz-adv-x="626" d="M274 302T352 254T461 168T492 87Q492 -3 430 -69T278 -178T64 -264L50 -221Q188 -169 256 -130T349 -53T373 40Q373 81 350 113T263 185T71 284L134 570H425L455 649L480 641V441L430 459H146L127
371V370Q274 302 352 254Z" />
<glyph unicode="6" glyph-name="six" horiz-adv-x="725" d="M385 718T299 595T212 345Q212 269 233 207T298 107T405 69Q468 69 500 111T533 236Q533 326 472 390T316 485L345 525Q432 525 502 494T612 406T652 281Q652 212 607 144T492 33T348 -10Q274 -10 216
30T126 141T93 296Q93 410 131 503T271 690T557 883L578 847Q385 718 299 595Z" />
<glyph unicode="7" glyph-name="seven" horiz-adv-x="658" d="M592 537L195 -264L151 -244L502 458H125L96 390L71 399V588L121 570H592V537Z" />
<glyph unicode="8" glyph-name="eight" horiz-adv-x="725" d="M518 446T559 415T627 344T654 254Q654 200 610 138T503 33T388 -10Q298 -10 227 21T115 107T74 228Q74 279 116 329T260 458Q197 502 162 547T126 650Q126 698 167 753T267 846T376 884Q439 884 489
860T567 793T595 703Q591 658 562 611T454 484H455Q518 446 559 415ZM306 818T275 783T244 695Q244 641 287 599T413 508Q460 565 473 593T486 655Q486 701 469 738T420 796T350 818Q306 818 275 783ZM437 56T469 77T520 134T538 209Q538 247 513 280T450 339T348
404L302 432Q256 396 233 370T201 322T193 276Q193 219 221 168T295 86T393 55L394 56Q437 56 469 77Z" />
<glyph unicode="9" glyph-name="nine" horiz-adv-x="725" d="M451 580T509 544T599 445T632 307Q632 196 593 105T453 -78T167 -264L145 -228Q339 -102 426 17T513 258Q513 325 492 380T426 468T319 501Q192 501 192 334Q192 243 249 179T397 85L369 45Q285 45
218 76T112 163T73 288Q73 357 117 425T233 537T377 580Q451 580 509 544Z" />
<glyph unicode=":" glyph-name="colon" horiz-adv-x="341" d="M208 540T225 519T243 467Q243 445 231 426T199 395T161 383Q134 383 116 404T98 456Q98 478 110 497T142 528T180 540Q208 540 225 519ZM208 147T225 126T243 74Q243 52 231 33T199 2T161 -10Q134
-10 116 11T98 63Q98 85 110 104T142 135T180 147Q208 147 225 126Z" />
<glyph unicode=";" glyph-name="semicolon" horiz-adv-x="370" d="M86 -264L53 -238Q106 -175 127 -130T153 -29L76 16V42L239 125L273 -20L86 -264ZM208 540T225 519T243 467Q243 445 231 426T199 395T161 383Q134 383 116 404T98 456Q98 478 110 497T142 528T180
540Q208 540 225 519Z" />
<glyph unicode="&lt;" glyph-name="less" horiz-adv-x="468" d="M326 84L30 308L393 554L424 526L160 347L438 137L326 84Z" />
<glyph unicode="=" glyph-name="equal" horiz-adv-x="524" d="M40 416H484V380H40V416ZM40 492H484V456H40V492Z" />
<glyph unicode="&gt;" glyph-name="greater" horiz-adv-x="468" d="M75 63L45 91L308 268L30 479L142 532L438 308L75 63Z" />
<glyph unicode="?" glyph-name="question" horiz-adv-x="477" d="M234 806T283 781T368 716T404 637Q404 600 376 570T295 500Q258 472 241 455T223 421Q223 380 262 339V313L162 266Q123 313 123 368Q123 402 150 431T228 498Q267 527 286 545T305 582Q305 608
281 643T220 704T145 730Q105 730 41 691L11 725L106 798Q145 806 200 806Q234 806 283 781ZM232 147T250 126T268 74Q268 52 255 33T223 2T185 -10Q158 -10 140 11T122 63Q122 85 135 104T167 135T204 147Q232 147 250 126Z" />
<glyph unicode="@" glyph-name="at" horiz-adv-x="1323" d="M881 816T999 758T1184 595T1250 360Q1250 267 1199 189T1066 61T896 1H786V73L693 -1Q661 -9 616 -9Q550 -9 498 25T416 119T386 249Q386 326 433 393T550 501T687 541Q724 541 756 525T814 478L863
552H896V49Q1013 74 1072 142T1131 312Q1131 429 1081 525T927 678T669 736Q532 736 423 680T253 522T192 292Q192 162 238 52T380 -134T620 -229L603 -264Q431 -265 312 -202T133 -24T73 244Q73 406 174 537T429 741T727 815V816Q881 816 999 758ZM694 66T722
75T786 110V346Q780 397 738 430T624 463Q506 463 506 297Q506 199 547 133T664 66H663Q694 66 722 75Z" />
<glyph unicode="A" glyph-name="A" horiz-adv-x="861" d="M842 0H552V26L642 100L562 293H222L134 92L314 35L297 0H-3V26L88 98L376 754L466 805L760 98L860 35L842 0ZM397 692L239 332H546L397 692Z" />
<glyph unicode="B" glyph-name="B" horiz-adv-x="788" d="M631 402T676 350T722 229Q722 166 673 111T549 22T407 -11Q357 -11 309 -6Q229 -1 185 -1H63V25L157 99V716L54 751L71 786H184Q275 786 363 792Q431 796 463 796Q528 796 578 770T655 700T682 600Q682
550 647 504T555 425L554 423Q631 402 676 350ZM558 632T515 683T385 735Q320 735 269 695V430H419Q484 430 520 462T557 552H558Q558 632 515 683ZM508 57T552 94T597 194Q597 274 550 323T410 375Q403 374 391 374H269V84Q337 57 435 57H434Q508 57 552 94Z"
/>
<glyph unicode="C" glyph-name="C" horiz-adv-x="817" d="M549 806T617 791T717 759V569H690Q596 728 440 728Q371 728 315 689T227 580T195 423Q195 323 226 240T321 106T481 56Q564 56 722 190L750 145L566 2Q530 -11 497 -15T425 -20Q322 -20 242 31T118 171T73
375Q73 492 140 591T307 748T498 806Q549 806 617 791Z" />
<glyph unicode="D" glyph-name="D" horiz-adv-x="883" d="M569 795T647 746T767 608T810 409Q810 295 745 199T582 46T397 -11Q350 -11 303 -6Q225 -1 183 -1H63V25L157 99V717L54 751L71 786H182Q276 786 368 792Q436 796 468 796V795Q569 795 647 746ZM500 60T560
99T654 208T689 363Q689 466 657 551T557 686T391 737Q325 737 270 698V86Q335 59 425 59L426 60Q500 60 560 99Z" />
<glyph unicode="E" glyph-name="E" horiz-adv-x="813" d="M657 0H63V26L157 100V715L54 751L71 786H647L697 804V579L672 572L554 747H270V421H435L508 552H534V246L499 228L437 382H270V39H550L682 235L707 227V-18L657 0Z" />
<glyph unicode="F" glyph-name="F" horiz-adv-x="773" d="M697 579L672 572L554 747H270V421H435L508 552H534V282L499 264L439 382H270V79L422 35L404 0H63V26L157 100V715L54 751L71 786H647L697 804V579Z" />
<glyph unicode="G" glyph-name="G" horiz-adv-x="904" d="M761 155L788 115L604 2Q563 -12 525 -16T443 -20Q334 -20 250 31T120 171T73 375Q73 492 143 591T317 748T516 806Q572 806 646 791T755 759V574H729Q626 728 458 728Q384 728 324 689T230 580T195 423Q195
324 228 241T330 109T499 59Q504 59 530 59T586 65T648 87V327L495 371L512 406H856V380L761 307V155Z" />
<glyph unicode="H" glyph-name="H" horiz-adv-x="948" d="M877 -2H583V24L677 97V370H270V70L374 33L357 -2H63V24L157 97V713L54 750L71 785H365V759L270 686V410H677V713L574 750L591 785H885V759L790 686V72L894 33L877 -2Z" />
<glyph unicode="I" glyph-name="I" horiz-adv-x="428" d="M357 -2H63V24L157 97V713L54 750L71 785H365V759L270 686V72L374 33L357 -2Z" />
<glyph unicode="J" glyph-name="J" horiz-adv-x="422" d="M273 99Q273 59 275 26T282 -20L97 -264L64 -238Q120 -166 139 -116T159 7V711L36 751L54 786H368V760L273 686V99Z" />
<glyph unicode="K" glyph-name="K" horiz-adv-x="851" d="M374 34L357 -1H63V25L157 98V714L54 751L71 786H365V760L270 687V71L374 34ZM821 -1H646L331 393L641 663L526 750L543 785H806V759L439 439L720 92L838 34L821 -1Z" />
<glyph unicode="L" glyph-name="L" horiz-adv-x="782" d="M655 0H63V26L157 100V714L54 751L71 786H365V760L270 686V39H535L680 255L705 247V-18L655 0Z" />
<glyph unicode="M" glyph-name="M" horiz-adv-x="1064" d="M992 -3H698V23L792 97V665L522 -2H473L205 673V88L309 33L292 -2H63V24L157 98V691L54 750L71 785H275L529 142L784 785H1001V759L906 685V72L1010 32L992 -3Z" />
<glyph unicode="N" glyph-name="N" horiz-adv-x="869" d="M730 687V0H682L205 614V88L303 35L285 0H63V26L157 99V696L54 751L71 786H217L682 187V698L585 751L603 786H825V760L730 687Z" />
<glyph unicode="O" glyph-name="O" horiz-adv-x="923" d="M601 806T681 755T806 614T850 410Q850 293 783 194T617 38T426 -20Q322 -20 242 31T118 171T73 375Q73 492 140 591T306 748T497 806Q601 806 681 755ZM371 728T315 689T227 580T195 423Q195 323 226
240T323 108T484 58Q552 58 608 97T696 206T728 363Q728 464 697 546T600 678T439 728Q371 728 315 689Z" />
<glyph unicode="P" glyph-name="P" horiz-adv-x="777" d="M504 381T545 418T587 520Q587 614 539 674T399 735Q328 735 270 694V78L422 34L404 -1H63V25L157 99V717L54 751L71 786H177Q276 786 372 792Q442 796 476 796Q545 796 598 767T680 686T710 571Q710 502
660 441T533 344T379 313L331 348L349 383H435L434 381Q504 381 545 418Z" />
<glyph unicode="Q" glyph-name="Q" horiz-adv-x="923" d="M906 -264T849 -264Q813 -264 737 -187T559 9Q490 -20 426 -20Q322 -20 242 31T118 171T73 375Q73 492 140 591T306 748T497 806Q601 806 681 755T806 614T850 410Q850 295 785 197T621 40Q717 -33 801
-91T903 -150H1038L1056 -190Q906 -264 849 -264ZM196 322T227 239T324 107T485 57Q530 57 573 76Q643 108 685 185T728 363Q728 464 697 546T600 678T439 728Q371 728 315 689T227 580T195 423L196 422Q196 322 227 239Z" />
<glyph unicode="R" glyph-name="R" horiz-adv-x="801" d="M782 -3H602L376 354L329 389L342 415H400Q471 415 512 449T553 545Q553 626 508 680T376 734Q318 734 270 700V70L374 33L357 -2H63V24L157 97V714L54 750L71 785H177Q268 785 358 791Q422 795 454 795Q519
795 570 768T649 696T677 595Q677 545 645 499T563 420T456 369L519 347L679 94L799 32L782 -3Z" />
<glyph unicode="S" glyph-name="S" horiz-adv-x="700" d="M510 211T485 238T423 287T320 343Q243 382 197 410T118 476T85 562Q85 612 126 669T226 766T336 806Q397 806 477 791T595 759V570H568Q518 652 458 696T332 741Q271 741 236 704T201 606Q201 573 227
545T291 493T396 437Q471 399 516 372T593 307T625 223Q625 173 581 116T474 19T358 -21Q294 -21 206 -6T80 26V215H107Q160 133 226 89T363 44Q407 44 440 63T492 113T510 180Q510 211 485 238Z" />
<glyph unicode="T" glyph-name="T" horiz-adv-x="830" d="M755 559L730 552L598 747H470V72L574 35L556 0H262V26L356 100V747H232L100 552L75 559V804L125 786H705L755 804V559Z" />
<glyph unicode="U" glyph-name="U" horiz-adv-x="898" d="M771 686V310Q771 205 721 130T597 18T453 -20Q365 -20 296 19T188 128T149 285V714L46 751L64 786H358V760L263 686V336Q263 204 327 131T521 58Q569 58 615 89T692 182T722 326V697L620 751L638 786H866V760L771
686Z" />
<glyph unicode="V" glyph-name="V" horiz-adv-x="864" d="M772 688L484 32L394 -19L100 688L0 751L18 786H308V760L218 686L464 94L727 694L547 751L564 786H864L863 760L772 688Z" />
<glyph unicode="W" glyph-name="W" horiz-adv-x="1178" d="M1093 692L850 31L760 -20L597 466L441 31L351 -20L96 690L1 750L19 785H283V759L210 703L420 106L575 534L522 693L429 751L446 786H729V760L643 689L830 109L1042 694L860 751L878 786H1178V759L1093 692Z" />
<glyph unicode="X" glyph-name="X" horiz-adv-x="871" d="M819 -1H524V25L603 88L408 338L191 90L340 35L323 0H23V26L131 90L381 372L138 688L34 751L51 786H347V760L269 695L462 449L661 695L510 751L528 786H828V760L727 700L490 414L729 103L837 34L819 -1Z" />
<glyph unicode="Y" glyph-name="Y" horiz-adv-x="794" d="M450 72L554 35L536 0H241V26L335 100V288L81 700L0 751L20 786H317V760L221 686L425 351L639 690L477 751L494 786H794V760L715 714L450 294V72Z" />
<glyph unicode="Z" glyph-name="Z" horiz-adv-x="790" d="M536 39L676 245L701 237V-18L651 0H74V39L578 747H257L130 562L105 569V804L155 786H711V747L208 39H536Z" />
<glyph unicode="[" glyph-name="bracketleft" horiz-adv-x="435" d="M235 -170H380V-210H125V954H380V914H235V-170Z" />
<glyph unicode="\" glyph-name="backslash" horiz-adv-x="355" d="M286 -139L332 -131L70 943L22 934L286 -139Z" />
<glyph unicode="]" glyph-name="bracketright" horiz-adv-x="435" d="M200 914H55V954H310V-210H55V-170H200V914Z" />
<glyph unicode="^" glyph-name="asciicircum" horiz-adv-x="588" d="M537 282H435L272 620L91 282H51V307L248 673L338 724L537 317V282Z" />
<glyph unicode="_" glyph-name="underscore" horiz-adv-x="493" d="M40 -96H453V-132H40V-96Z" />
<glyph unicode="`" glyph-name="grave" horiz-adv-x="380" d="M279 677L66 854L84 873L208 892L315 696L279 677Z" />
<glyph unicode="a" glyph-name="a" horiz-adv-x="612" d="M567 0H385V87L272 -2Q252 -10 222 -10Q138 -10 101 32T63 133Q63 169 89 203T164 269H385V342Q385 409 350 436T252 463Q191 463 106 384L76 418L221 533Q260 540 313 540Q399 540 447 497T495 371V70L585
35L567 0ZM313 65T385 124V233H205Q190 216 185 199T179 161Q179 122 198 94T250 65Q313 65 385 124Z" />
<glyph unicode="b" glyph-name="b" horiz-adv-x="700" d="M496 541T538 507T605 413T629 283Q629 206 583 139T468 31T333 -9Q291 -9 255 9T192 62L150 0H117V723L28 786V812L194 873H227V423L365 532Q397 540 443 540L444 541Q496 541 538 507ZM449 68T478 110T508
234Q508 330 478 396T394 463Q355 463 319 448T228 382V202Q228 145 270 107T391 69L390 68Q449 68 478 110Z" />
<glyph unicode="c" glyph-name="c" horiz-adv-x="608" d="M389 540T441 529T518 503V355H485Q445 405 394 433T289 462Q193 462 193 295Q193 198 235 133T356 68Q412 68 513 153L543 119L386 -3Q349 -10 298 -10Q234 -10 183 24T102 117T73 247Q73 324 115 392T223
500T349 540Q389 540 441 529Z" />
<glyph unicode="d" glyph-name="d" horiz-adv-x="700" d="M655 0H473V72L380 -2Q348 -10 303 -10Q237 -10 185 24T103 117T73 247Q73 324 119 392T234 500T369 540Q427 540 473 506V723L384 786V812L550 873H583V71L673 35L655 0ZM381 66T409 75T473 110V345Q467
396 425 429T311 462Q193 462 193 295Q193 198 234 132T351 65L350 66Q381 66 409 75Z" />
<glyph unicode="e" glyph-name="e" horiz-adv-x="640" d="M385 -3Q348 -10 298 -10Q234 -10 183 24T102 117T73 247Q73 324 119 392T234 500T369 540Q461 540 512 466T565 272H194Q199 183 240 126T356 68Q421 68 537 175L567 140L385 -3ZM199 462T194 308H436Q426
365 417 394T383 443T310 462H311Q199 462 194 308Z" />
<glyph unicode="f" glyph-name="f" horiz-adv-x="429" d="M439 883T472 879T520 869V720H487Q462 759 426 782T353 805Q257 805 257 636V500H439V464H257V78L394 35L377 0H58V26L147 95V464H25V500H147V591Q147 668 188 735T291 843T413 883Q439 883 472 879Z" />
<glyph unicode="g" glyph-name="g" horiz-adv-x="640" d="M483 465Q514 423 514 370Q514 325 489 283T422 208T330 161Q304 135 304 105Q304 88 329 74T411 38Q484 10 522 -13T560 -70Q560 -100 522 -147T427 -228T318 -263Q263 -263 188 -244T63 -206V-57H96Q154
-127 213 -163T348 -199Q376 -199 399 -188T435 -158T448 -124Q448 -97 415 -76T316 -28Q252 -2 222 16T191 60Q191 84 222 109T295 153Q279 150 262 150Q211 150 168 173T101 235T76 320Q76 375 113 426T209 508T330 540Q398 540 449 500H605L604 465H483ZM415
229T415 323Q415 385 375 424T270 463Q223 463 199 440T174 370Q174 307 214 268T318 229Q415 229 415 323Z" />
<glyph unicode="h" glyph-name="h" horiz-adv-x="694" d="M649 -1H467V340Q467 397 449 419T386 441Q351 441 318 429T237 378V70L327 34L309 -1H38V25L127 94V723L38 786V812L204 873H237V420L379 532Q400 540 432 540Q499 540 538 499T577 386V71L667 34L649 -1Z" />
<glyph unicode="i" glyph-name="i" horiz-adv-x="385" d="M329 0H58V26L147 95V399L58 462V488L224 549H257V71L347 35L329 0ZM225 848T242 827T260 775Q260 753 248 734T216 703T178 691Q151 691 133 712T115 765Q115 787 127 806T159 836T197 848Q225 848 242 827Z" />
<glyph unicode="j" glyph-name="j" horiz-adv-x="378" d="M259 59T261 26T268 -20L81 -264L48 -238Q108 -167 128 -117T149 7V397L60 459V485L226 549H259V99Q259 59 261 26ZM228 850T245 829T263 777Q263 755 251 736T219 705T181 693Q154 693 136 714T118 767Q118
789 130 808T162 838T200 850Q228 850 245 829Z" />
<glyph unicode="k" glyph-name="k" horiz-adv-x="680" d="M327 34L309 -1H38V25L127 94V723L38 786V812L204 873H237V70L327 34ZM647 0H485L292 263L481 424L391 495L408 530H637V504L400 303L577 68L664 35L647 0Z" />
<glyph unicode="l" glyph-name="l" horiz-adv-x="365" d="M309 -1H38V25L127 94V723L38 786V812L204 873H237V71L327 34L309 -1Z" />
<glyph unicode="m" glyph-name="m" horiz-adv-x="1037" d="M991 0H808V338Q808 396 790 419T726 442Q694 442 662 430T587 380V71L678 35L661 0H477V338Q477 396 459 419T395 442Q363 442 331 430T256 380V71L347 35L329 0H57V26L146 95V389L57 440V466L220 550L251
419L386 533Q408 541 441 541Q500 541 538 509T585 420L719 532Q740 540 774 540Q841 540 880 499T919 386V71L1008 35L991 0Z" />
<glyph unicode="n" glyph-name="n" horiz-adv-x="714" d="M669 -1H487V340Q487 397 469 419T406 441Q371 441 338 429T257 378V70L347 34L329 -1H58V25L147 94V388L58 439V465L221 549L253 416L399 532Q420 540 452 540Q519 540 558 499T597 386V71L687 34L669 -1Z" />
<glyph unicode="o" glyph-name="o" horiz-adv-x="666" d="M434 540T485 506T565 412T594 282Q594 205 548 138T433 30T298 -10Q234 -10 183 24T102 117T73 247Q73 324 119 392T234 500T369 540Q434 540 485 506ZM192 462T192 295Q192 198 234 133T356 68Q474 68
474 235Q474 332 432 397T311 462Q192 462 192 295Z" />
<glyph unicode="p" glyph-name="p" horiz-adv-x="730" d="M303 -11T257 23V-177L394 -220L377 -255H58V-229L147 -160V388L58 439V465L221 549L253 416L400 532Q432 540 473 540Q525 540 567 506T634 412T658 282Q658 205 612 138T497 30T362 -10V-11Q303 -11
257 23ZM384 451T348 436T257 370V200Q257 143 299 105T420 67Q479 67 508 109T538 233Q538 325 508 388T424 452L423 451Q384 451 348 436Z" />
<glyph unicode="q" glyph-name="q" horiz-adv-x="700" d="M654 -254H336V-228L473 -153V72L380 -2Q348 -10 303 -10Q237 -10 185 24T103 118T73 248Q73 325 120 392T237 500T374 540Q411 540 443 524T501 477L550 551H583V-183L671 -219L654 -254ZM381 65T409
74T473 109V345Q467 396 425 429T311 462Q193 462 193 296Q193 198 234 132T351 65Q381 65 409 74Z" />
<glyph unicode="r" glyph-name="r" horiz-adv-x="509" d="M441 539T464 522T501 475L440 399H407Q403 421 393 431T364 441Q340 441 315 429T257 381V77L394 34L377 -1H58V25L147 94V388L58 439V465L221 549L251 423L357 532Q379 540 414 540L413 539Q441 539 464 522Z" />
<glyph unicode="s" glyph-name="s" horiz-adv-x="559" d="M386 134T355 157T256 216Q178 255 137 288T96 366Q96 402 125 443T197 512T277 540Q321 540 380 529T466 503V351H433Q399 415 357 451T269 487Q235 487 215 469T195 425Q195 392 227 368T329 308Q380
282 411 264T463 220T485 164Q485 127 454 87T379 18T298 -10Q250 -10 184 2T90 27V177H123Q158 113 207 78T307 43Q342 43 364 61T386 104Q386 134 355 157Z" />
<glyph unicode="t" glyph-name="t" horiz-adv-x="449" d="M332 -2Q311 -10 281 -10Q200 -10 163 33T126 168V464H18V502L203 721H236V500H416V464H236V152Q236 69 314 69Q335 69 354 78T403 112L433 78L332 -2Z" />
<glyph unicode="u" glyph-name="u" horiz-adv-x="695" d="M639 0H456V108L326 -2Q305 -10 272 -10Q205 -10 167 31T128 144V388L39 440V466L205 550H238V189Q238 132 255 110T318 88Q350 88 381 100T456 150V388L367 440V466L533 550H566V71L656 35L639 0Z" />
<glyph unicode="v" glyph-name="v" horiz-adv-x="614" d="M575 504L323 0H257L98 386L7 439V465L168 549L206 398L330 93L476 398L345 495L362 530H575V504Z" />
<glyph unicode="w" glyph-name="w" horiz-adv-x="888" d="M850 504L629 0H563L455 262L324 0H258L99 386L8 439V465L169 549L207 398L331 94L433 316L404 386L313 439V465L474 549L512 398L633 102L756 394L618 495L636 530H850V504Z" />
<glyph unicode="x" glyph-name="x" horiz-adv-x="609" d="M576 0H436L275 213L160 105L253 34L235 -1H19V25L249 247L102 439L16 495L33 530H173L330 320L441 425L348 496L365 531H582V505L356 286L507 90L594 35L576 0Z" />
<glyph unicode="y" glyph-name="y" horiz-adv-x="614" d="M573 505L321 1L118 -263L85 -237Q143 -176 173 -130T215 -37T226 75L98 386L7 439V465L168 549L206 398L330 93L476 398L345 495L362 530L573 531V505Z" />
<glyph unicode="z" glyph-name="z" horiz-adv-x="604" d="M451 110L494 191L519 182V-18L469 0H71V33L412 420H150L110 349L85 358V548L135 530H533V497L195 110H451Z" />
<glyph unicode="{" glyph-name="braceleft" horiz-adv-x="496" d="M340 -145T391 -174L370 -208Q310 -167 270 -100T230 45V173Q230 335 137 335H92Q86 334 74 334L72 335H40V413H72L74 414Q86 414 92 413H137Q230 413 230 575V703Q230 780 270 847T370 956L391
922Q340 893 340 766V623Q340 546 300 480T197 373Q259 333 299 267T340 123V-18Q340 -145 391 -174Z" />
<glyph unicode="|" glyph-name="bar" horiz-adv-x="373" d="M211 -200H162V986H211V-200Z" />
<glyph unicode="}" glyph-name="braceright" horiz-adv-x="496" d="M156 889T105 918L126 952Q186 911 226 844T266 699V571Q266 409 359 409H404Q410 410 422 410L424 409H456V331H424L422 330Q410 330 404 331H359Q266 331 266 169V41Q266 -36 226 -103T126
-212L105 -178Q156 -149 156 -22V121Q156 198 196 264T299 371Q237 411 197 477T156 621V762Q156 889 105 918Z" />
<glyph unicode="~" glyph-name="asciitilde" horiz-adv-x="608" d="M222 408T252 395T323 356Q362 332 389 320T445 307Q485 307 529 374L554 337Q530 284 491 247T417 210Q385 210 355 223T284 262Q245 286 218 298T163 311Q142 311 120 293T79 244L54 281Q78
333 117 370T191 408Q222 408 252 395Z" />
<glyph unicode="&#xa0;" glyph-name="uni00A0" horiz-adv-x="284" />
<glyph unicode="&#xa1;" glyph-name="exclamdown" horiz-adv-x="351" d="M222 540T240 519T258 466Q258 444 245 425T213 395T175 383Q148 383 130 404T112 456Q112 478 125 497T157 528T195 540Q222 540 240 519ZM265 -208L136 -254H103L155 295H206L265 -182V-208Z" />
<glyph unicode="&#xa2;" glyph-name="cent" horiz-adv-x="608" d="M362 -7T350 -8V-200H301V-10H298Q234 -10 183 24T102 117T73 247Q73 314 106 375T192 478T301 534V749H350V540Q390 540 442 529T518 503V355H485Q428 428 350 452V68H356Q412 68 513 153L543
119L386 -3Q362 -7 350 -8ZM193 217T220 158T301 78V462H289Q193 462 193 295Q193 217 220 158Z" />
<glyph unicode="&#xa3;" glyph-name="sterling" horiz-adv-x="721" d="M636 -18L586 0H43V33L169 165V353H11L30 389H169V514Q169 591 212 658T319 766T445 806Q486 806 538 795T614 769V621H581Q542 671 491 699T385 728Q279 728 279 562V389H479L460 353H279V307Q279
259 255 206T188 111H580L611 191L636 182V-18Z" />
<glyph unicode="&#xa4;" glyph-name="currency" horiz-adv-x="900" d="M763 355T737 303T664 208L828 44L801 17L634 183Q584 145 526 123T415 101Q312 101 240 156L100 16L73 43L211 181Q175 218 156 268T137 375Q137 432 163 484T235 579L73 742L100 769L265
604Q315 642 374 664T485 686Q587 686 660 629L800 769L827 742L688 604Q724 567 743 517T762 410L763 412Q763 355 737 303ZM522 181T563 205T629 272T654 365Q654 472 597 540T428 609Q378 609 337 585T271 518T246 425Q246 357 271 302T347 214T473 181Q522
181 563 205Z" />
<glyph unicode="&#xa5;" glyph-name="yen" horiz-adv-x="794" d="M477 336H721L703 300H454L450 294V198H721L703 162H450V72L554 35L536 0H241V26L335 100V162H66L84 198H335V288L328 300H66L84 336H305L81 700L0 751L20 786H317V760L221 686L425 351L639 690L477
751L494 786H794V760L714 714L477 336Z" />
<glyph unicode="&#xa6;" glyph-name="brokenbar" horiz-adv-x="373" d="M162 523V986H211V523H162ZM162 -200V263H211V-200H162Z" />
<glyph unicode="&#xa7;" glyph-name="section" horiz-adv-x="663" d="M247 158T227 201T165 307Q116 385 91 441T65 562Q65 612 106 669T206 766T315 806Q375 806 455 791T571 759V590H538Q524 639 502 665T456 691Q439 691 430 669T421 611Q421 565 441 522T505
412Q538 359 557 325T589 249T603 163Q603 114 560 57T453 -41T337 -81Q273 -81 185 -66T59 -34V135H92Q111 89 140 62T197 34Q219 34 233 57T247 115Q247 158 227 201ZM330 645T355 678T443 745Q403 753 324 753Q288 753 246 725T176 654T147 574Q147 521 171
468T245 335Q290 261 312 214T334 123Q334 81 308 47T221 -20Q261 -28 340 -28Q375 -28 417 0T488 71T517 151Q517 203 493 255T421 384Q376 456 353 505T330 603Q330 645 355 678Z" />
<glyph unicode="&#xa8;" glyph-name="dieresis" horiz-adv-x="601" d="M208 844T223 824T239 774Q239 753 228 734T199 704T165 693Q140 693 124 713T108 763Q108 784 119 803T148 833T182 844Q208 844 223 824ZM473 844T488 824T504 774Q504 753 493 734T464
704T430 693Q405 693 389 713T373 763Q373 784 384 803T413 833T447 844Q473 844 488 824Z" />
<glyph unicode="&#xa9;" glyph-name="copyright" horiz-adv-x="1000" d="M653 806T742 755T881 614T930 410Q930 293 857 194T674 38T465 -20Q349 -20 259 31T120 171T70 375Q70 492 143 591T327 748T536 806Q653 806 742 755ZM393 727T325 688T218 580T179 423Q179
323 216 241T331 109T523 59Q608 59 676 98T783 207T822 363Q822 464 785 546T670 678T478 727Q393 727 325 688ZM558 626T598 615T656 589V436H623Q593 487 551 516T464 546Q438 546 424 516T410 429Q410 352 442 302T533 251Q576 251 651 306L681 272L564 178Q527
171 475 171Q422 171 379 199T311 276T286 381Q286 446 323 502T416 592T526 626Q558 626 598 615Z" />
<glyph unicode="&#xaa;" glyph-name="ordfeminine" horiz-adv-x="534" d="M491 415H336V480L240 414Q223 408 198 408Q126 408 95 439T63 515Q63 542 85 568T148 617H336V672Q336 722 306 742T223 762Q171 762 99 703L74 729L197 815Q230 820 275 820Q348 820
389 788T430 693V468L506 441L491 415ZM275 464T336 508V590H183Q170 577 166 565T161 536Q161 507 177 486T221 464Q275 464 336 508Z" />
<glyph unicode="&#xab;" glyph-name="guillemotleft" horiz-adv-x="655" d="M330 48L300 27L53 266L300 506L330 485L203 288L330 48ZM543 105L512 84L324 266L512 448L543 428L477 289L543 105Z" />
<glyph unicode="&#xac;" glyph-name="logicalnot" horiz-adv-x="578" d="M485 85H449V290H40V326H484V309H485V85Z" />
<glyph unicode="&#xad;" glyph-name="softhyphen" horiz-adv-x="513" d="M84 295L124 346H429V321L389 270H84V295Z" />
<glyph unicode="&#xae;" glyph-name="registered" horiz-adv-x="1005" d="M655 806T744 755T883 614T933 410Q933 293 860 194T676 38T467 -20Q351 -20 262 30T123 171T73 375Q73 492 146 591T329 748T538 806Q655 806 744 755ZM610 59T678 98T785 206T824 363Q824
464 787 546T672 678T480 727Q395 727 327 688T220 579T181 423Q181 324 218 241T333 109T525 59Q610 59 678 98ZM735 180H590L522 318Q512 337 502 347T474 363L459 366V180H281V208L347 264V549L271 575L291 611H360Q419 611 494 618Q540 622 563 622Q625 622
662 592T700 515Q700 471 653 431T544 373L637 342L681 252L755 217L735 180ZM581 514T557 536T484 559Q471 559 460 553V420Q484 412 511 412Q544 412 562 428T581 476V477Q581 514 557 536Z" />
<glyph unicode="&#xaf;" glyph-name="overscore" horiz-adv-x="600" d="M100 792H508V751H100V792Z" />
<glyph unicode="&#xb0;" glyph-name="degree" horiz-adv-x="431" d="M296 883T332 844T369 749Q369 698 341 659T268 597T177 575Q115 575 79 614T43 710Q43 760 71 799T143 861T234 883Q296 883 332 844ZM165 822T142 801T118 741Q118 716 130 692T163 652T211
636Q245 636 269 658T294 718Q294 742 283 766T250 806T199 822Q165 822 142 801Z" />
<glyph unicode="&#xb1;" glyph-name="plusminus" horiz-adv-x="524" d="M280 290V86H244V290H40V326H244V530H280V326H484V290H280ZM40 -32H484V-68H40V-32Z" />
<glyph unicode="&#xb2;" glyph-name="twosuperior" horiz-adv-x="482" d="M427 403L382 416H43V442Q145 514 199 557T275 629T296 680Q296 714 266 736T186 758Q138 758 69 705L45 737L161 817Q182 822 208 822Q289 822 338 794T388 720Q388 651 190 493H377L403
551L427 543V403Z" />
<glyph unicode="&#xb3;" glyph-name="threesuperior" horiz-adv-x="468" d="M343 560T367 533T392 474Q392 399 310 341T47 230L36 271Q143 303 198 327T275 378T297 441Q297 467 276 486T190 538V563Q234 611 248 634T263 679Q263 713 238 734T173 755Q121 755
52 701L28 735L143 815Q156 821 174 821Q224 821 266 807T333 770T358 719Q356 695 339 668T279 600H277Q343 560 367 533Z" />
<glyph unicode="&#xb4;" glyph-name="acute" horiz-adv-x="380" d="M354 854L142 677L105 696L212 892L336 873L354 854Z" />
<glyph unicode="&#xb5;" glyph-name="uni00B5" horiz-adv-x="695" d="M573 154T589 121T631 59L496 -10H463V108L332 -2Q311 -10 279 -10Q261 -10 244 -7V-63Q243 -89 259 -122T302 -185L167 -254H134V359Q135 385 119 418T76 481L211 550H244V189Q244 132 262
110T325 88Q357 88 388 100T463 150V359Q463 386 447 419T405 481L540 550H573V181Q573 154 589 121Z" />
<glyph unicode="&#xb6;" glyph-name="paragraph" horiz-adv-x="829" d="M361 796T401 791Q468 786 503 786H525V-254H348V-228L476 -129V323Q392 322 338 317Q278 313 250 313Q193 313 149 342T80 423T55 537Q55 606 97 665T201 760T321 796Q361 796 401 791ZM758
-255H623V785H767V759L672 686V-183L775 -220L758 -255Z" />
<glyph unicode="&#xb7;" glyph-name="middot" horiz-adv-x="341" d="M208 346T225 325T243 273Q243 251 231 232T199 201T161 189Q134 189 116 210T98 262Q98 284 110 303T142 334T180 346Q208 346 225 325Z" />
<glyph unicode="&#xb8;" glyph-name="cedilla" horiz-adv-x="600" d="M374 -84T391 -109T409 -163Q409 -210 364 -234T222 -264V-238Q320 -206 320 -145Q320 -123 305 -105T254 -65Q348 12 406 56L430 36Q363 -15 326 -45H327Q374 -84 391 -109Z" />
<glyph unicode="&#xb9;" glyph-name="onesuperior" horiz-adv-x="427" d="M328 415H92V444L170 497V753L85 780L99 814H335V786L258 733V476L342 450L328 415Z" />
<glyph unicode="&#xba;" glyph-name="ordmasculine" horiz-adv-x="588" d="M379 820T422 794T490 724T515 627Q515 569 476 519T378 438T263 408Q209 408 165 433T97 503T72 600Q72 658 111 709T209 790T324 820Q379 820 422 794ZM173 762T173 636Q173 564 209
515T313 466Q413 466 413 591Q413 664 377 713T274 762Q173 762 173 636Z" />
<glyph unicode="&#xbb;" glyph-name="guillemotright" horiz-adv-x="655" d="M355 26L325 47L452 244L325 485L355 505L603 266L355 26ZM143 83L113 104L178 243L113 427L143 447L332 265L143 83Z" />
<glyph unicode="&#xbc;" glyph-name="onequarter" horiz-adv-x="1041" d="M328 415H92V444L170 497V753L85 780L99 814H335V786L258 733V476L342 450L328 415ZM246 -191L212 -174L833 995L868 979L246 -191ZM889 -44V-187L801 -229V-44H505V-17L801 299L889 340V11H1011L983
-44H889ZM801 225L606 11H801V225Z" />
<glyph unicode="&#xbd;" glyph-name="onehalf" horiz-adv-x="1115" d="M328 415H92V444L170 497V753L85 780L99 814H335V786L258 733V476L342 450L328 415ZM246 -191L212 -174L833 995L868 979L246 -191ZM1061 -91L1016 -78H677V-52Q779 20 833 63T909 135T930
186Q930 220 900 242T820 264Q772 264 703 211L679 243L795 323Q816 328 842 328Q923 328 972 300T1022 226Q1022 157 824 -1H1011L1037 57L1061 49V-91Z" />
<glyph unicode="&#xbe;" glyph-name="threequarters" horiz-adv-x="1082" d="M343 560T367 533T392 474Q392 399 310 341T47 230L36 271Q143 303 198 327T275 378T297 441Q297 467 276 486T190 538V563Q234 611 248 634T263 679Q263 713 238 734T173 755Q121 755
52 701L28 735L143 815Q156 821 174 821Q224 821 266 807T333 770T358 719Q356 695 339 668T279 600H277Q343 560 367 533ZM287 -191L253 -174L874 995L909 979L287 -191ZM930 -44V-187L842 -229V-44H546V-17L842 299L930 340V11H1052L1024 -44H930ZM842 225L647
11H842V225Z" />
<glyph unicode="&#xbf;" glyph-name="questiondown" horiz-adv-x="397" d="M249 540T267 519T285 466Q285 444 272 425T240 395T202 383Q175 383 157 404T139 456Q139 478 152 497T184 528T221 540Q249 540 267 519ZM284 231T284 175Q284 140 257 111T178 44Q139
15 120 -3T101 -40Q101 -66 125 -101T186 -162T262 -188Q302 -188 366 -149L396 -183L301 -256Q262 -264 207 -264Q173 -264 124 -239T39 -174T3 -95Q3 -58 31 -28T112 42Q149 70 166 87T184 121Q184 162 145 203V229L245 276Q284 231 284 175Z" />
<glyph unicode="&#xc0;" glyph-name="Agrave" horiz-adv-x="861" d="M842 0H552V26L642 100L562 293H222L134 92L314 35L297 0H-3V26L88 98L376 754L466 805L760 98L860 35L842 0ZM397 692L239 332H546L397 692ZM451 934L238 1111L256 1130L380 1149L487 953L451 934Z" />
<glyph unicode="&#xc1;" glyph-name="Aacute" horiz-adv-x="861" d="M842 0H552V26L642 100L562 293H222L134 92L314 35L297 0H-3V26L88 98L376 754L466 805L760 98L860 35L842 0ZM397 692L239 332H546L397 692ZM625 1111L413 934L376 953L483 1149L607 1130L625 1111Z" />
<glyph unicode="&#xc2;" glyph-name="Acircumflex" horiz-adv-x="861" d="M842 0H552V26L642 100L562 293H222L134 92L314 35L297 0H-3V26L88 98L376 754L466 805L760 98L860 35L842 0ZM397 692L239 332H546L397 692ZM631 937L518 918L393 1054L240 928L212 962L429
1139L649 956L631 937Z" />
<glyph unicode="&#xc3;" glyph-name="Atilde" horiz-adv-x="861" d="M842 0H552V26L642 100L562 293H222L134 92L314 35L297 0H-3V26L88 98L376 754L466 805L760 98L860 35L842 0ZM397 692L239 332H546L397 692ZM446 1063T513 1063Q549 1063 578 1085L609 1110L637
1076L488 953Q418 1025 350 1025Q312 1025 281 1001L252 979L224 1013L374 1136Q446 1063 513 1063Z" />
<glyph unicode="&#xc4;" glyph-name="Adieresis" horiz-adv-x="861" d="M246 951T230 971T214 1020Q214 1041 225 1059T254 1089T288 1100Q313 1100 329 1080T345 1030Q345 1009 334 991T305 962T271 951Q246 951 230 971ZM548 951T532 971T516 1020Q516 1041
527 1059T556 1089T590 1100Q615 1100 631 1080T647 1030Q647 1009 636 991T607 962T573 951Q548 951 532 971ZM842 0H552V26L642 100L562 293H222L134 92L314 35L297 0H-3V26L88 98L376 754L466 805L760 98L860 35L842 0ZM397 692L239 332H546L397 692Z" />
<glyph unicode="&#xc5;" glyph-name="Aring" horiz-adv-x="861" d="M842 0H552V26L642 100L562 293H222L134 92L314 35L297 0H-3V26L88 98L376 754L466 805L760 98L860 35L842 0ZM397 692L239 332H546L397 692ZM511 1139T541 1111T571 1042Q571 1008 544 978T476
929T395 910Q351 910 321 938T290 1007Q290 1041 317 1071T385 1120T466 1139Q511 1139 541 1111ZM353 1099T353 1056Q353 1010 379 981T453 951Q480 951 494 962T509 994Q509 1040 483 1069T408 1099Q353 1099 353 1056Z" />
<glyph unicode="&#xc6;" glyph-name="AE" horiz-adv-x="1096" d="M940 0H375V26L469 100V382H287L121 95L286 35L268 0H-3V26L65 80L423 706L293 751L311 786H930L980 804V579L955 572L837 747H582V421H719L791 552H817V246L782 228L721 382H582V39H833L965 235L990
227V-18L940 0ZM469 697L310 421H469V697Z" />
<glyph unicode="&#xc7;" glyph-name="Ccedilla" horiz-adv-x="817" d="M528 -11T486 -16L451 -45Q498 -84 515 -109T533 -163Q533 -210 488 -234T346 -264V-238Q444 -206 444 -145Q444 -123 429 -105T378 -65L434 -20H425Q322 -20 242 31T118 171T73 375Q73 492
140 591T307 748T498 806Q549 806 617 791T717 759V569H690Q596 728 440 728Q371 728 315 689T227 580T195 423Q195 323 226 240T321 106T481 56Q564 56 722 190L750 145L566 2V4Q528 -11 486 -16Z" />
<glyph unicode="&#xc8;" glyph-name="Egrave" horiz-adv-x="813" d="M657 0H63V26L157 100V715L54 751L71 786H647L697 804V579L672 572L554 747H270V421H435L508 552H534V246L499 228L437 382H270V39H550L682 235L707 227V-18L657 0ZM425 934L212 1111L230 1130L354
1149L461 953L425 934Z" />
<glyph unicode="&#xc9;" glyph-name="Eacute" horiz-adv-x="813" d="M657 0H63V26L157 100V715L54 751L71 786H647L697 804V579L672 572L554 747H270V421H435L508 552H534V246L499 228L437 382H270V39H550L682 235L707 227V-18L657 0ZM599 1111L387 934L350 953L457
1149L581 1130L599 1111Z" />
<glyph unicode="&#xca;" glyph-name="Ecircumflex" horiz-adv-x="813" d="M657 0H63V26L157 100V715L54 751L71 786H647L697 804V579L672 572L554 747H270V421H435L508 552H534V246L499 228L437 382H270V39H550L682 235L707 227V-18L657 0ZM605 937L492 918L367
1054L214 928L186 962L403 1139L623 956L605 937Z" />
<glyph unicode="&#xcb;" glyph-name="Edieresis" horiz-adv-x="813" d="M220 951T204 971T188 1020Q188 1041 199 1059T228 1089T262 1100Q287 1100 303 1080T319 1030Q319 1009 308 991T279 962T245 951Q220 951 204 971ZM522 951T506 971T490 1020Q490 1041
501 1059T530 1089T564 1100Q589 1100 605 1080T621 1030Q621 1009 610 991T581 962T547 951Q522 951 506 971ZM657 0H63V26L157 100V715L54 751L71 786H647L697 804V579L672 572L554 747H270V421H435L508 552H534V246L499 228L437 382H270V39H550L682 235L707
227V-18L657 0Z" />
<glyph unicode="&#xcc;" glyph-name="Igrave" horiz-adv-x="428" d="M357 -2H63V24L157 97V713L54 750L71 785H365V759L270 686V72L374 33L357 -2ZM234 934L21 1111L39 1130L163 1149L270 953L234 934Z" />
<glyph unicode="&#xcd;" glyph-name="Iacute" horiz-adv-x="428" d="M357 -2H63V24L157 97V713L54 750L71 785H365V759L270 686V72L374 33L357 -2ZM408 1111L196 934L159 953L266 1149L390 1130L408 1111Z" />
<glyph unicode="&#xce;" glyph-name="Icircumflex" horiz-adv-x="428" d="M357 -2H63V24L157 97V713L54 750L71 785H365V759L270 686V72L374 33L357 -2ZM414 937L301 918L176 1054L23 928L-5 962L212 1139L432 956L414 937Z" />
<glyph unicode="&#xcf;" glyph-name="Idieresis" horiz-adv-x="428" d="M357 -2H63V24L157 97V713L54 750L71 785H365V759L270 686V72L374 33L357 -2ZM116 1101T131 1081T147 1031Q147 1010 136 991T107 961T73 950Q48 950 32 970T16 1020Q16 1041 27 1060T56
1090T90 1101Q116 1101 131 1081ZM381 1101T396 1081T412 1031Q412 1010 401 991T372 961T338 950Q313 950 297 970T281 1020Q281 1041 292 1060T321 1090T355 1101Q381 1101 396 1081Z" />
<glyph unicode="&#xd0;" glyph-name="Eth" horiz-adv-x="883" d="M569 795T647 746T767 608T810 409Q810 295 745 199T582 46T397 -11Q350 -11 303 -6Q225 -1 183 -1H63V25L157 99V717L54 751L71 786H182Q276 786 368 792Q436 796 468 796V795Q569 795 647 746ZM500
60T560 99T654 208T689 363Q689 466 657 551T557 686T391 737Q325 737 270 698V86Q335 59 425 59L426 60Q500 60 560 99ZM248 411V411V411V411V411ZM276 411H220V415H276V411Z" />
<glyph unicode="&#xd1;" glyph-name="Ntilde" horiz-adv-x="869" d="M730 687V0H682L205 614V88L303 35L285 0H63V26L157 99V696L54 751L71 786H217L682 187V698L585 751L603 786H825V760L730 687ZM449 1063T516 1063Q552 1063 581 1085L612 1110L640 1076L491
953Q421 1025 353 1025Q315 1025 284 1001L255 979L227 1013L377 1136Q449 1063 516 1063Z" />
<glyph unicode="&#xd2;" glyph-name="Ograve" horiz-adv-x="923" d="M601 806T681 755T806 614T850 410Q850 293 783 194T617 38T426 -20Q322 -20 242 31T118 171T73 375Q73 492 140 591T306 748T497 806Q601 806 681 755ZM371 728T315 689T227 580T195 423Q195
323 226 240T323 108T484 58Q552 58 608 97T696 206T728 363Q728 464 697 546T600 678T439 728Q371 728 315 689ZM482 934L269 1111L287 1130L411 1149L518 953L482 934Z" />
<glyph unicode="&#xd3;" glyph-name="Oacute" horiz-adv-x="923" d="M601 806T681 755T806 614T850 410Q850 293 783 194T617 38T426 -20Q322 -20 242 31T118 171T73 375Q73 492 140 591T306 748T497 806Q601 806 681 755ZM371 728T315 689T227 580T195 423Q195
323 226 240T323 108T484 58Q552 58 608 97T696 206T728 363Q728 464 697 546T600 678T439 728Q371 728 315 689ZM656 1111L444 934L407 953L514 1149L638 1130L656 1111Z" />
<glyph unicode="&#xd4;" glyph-name="Ocircumflex" horiz-adv-x="923" d="M601 806T681 755T806 614T850 410Q850 293 783 194T617 38T426 -20Q322 -20 242 31T118 171T73 375Q73 492 140 591T306 748T497 806Q601 806 681 755ZM371 728T315 689T227 580T195 423Q195
323 226 240T323 108T484 58Q552 58 608 97T696 206T728 363Q728 464 697 546T600 678T439 728Q371 728 315 689ZM662 937L549 918L424 1054L271 928L243 962L460 1139L680 956L662 937Z" />
<glyph unicode="&#xd5;" glyph-name="Otilde" horiz-adv-x="923" d="M601 806T681 755T806 614T850 410Q850 293 783 194T617 38T426 -20Q322 -20 242 31T118 171T73 375Q73 492 140 591T306 748T497 806Q601 806 681 755ZM371 728T315 689T227 580T195 423Q195
323 226 240T323 108T484 58Q552 58 608 97T696 206T728 363Q728 464 697 546T600 678T439 728Q371 728 315 689ZM477 1063T544 1063Q580 1063 609 1085L640 1110L668 1076L519 953Q449 1025 381 1025Q343 1025 312 1001L283 979L255 1013L405 1136Q477 1063 544
1063Z" />
<glyph unicode="&#xd6;" glyph-name="Odieresis" horiz-adv-x="923" d="M344 1100T360 1080T376 1030Q376 1009 365 991T336 962T302 951Q277 951 261 971T245 1020Q245 1041 256 1059T285 1089T319 1100Q344 1100 360 1080ZM646 1100T662 1080T678 1030Q678 1009
667 991T638 962T604 951Q579 951 563 971T547 1020Q547 1041 558 1059T587 1089T621 1100Q646 1100 662 1080ZM601 806T681 755T806 614T850 410Q850 293 783 194T617 38T426 -20Q322 -20 242 31T118 171T73 375Q73 492 140 591T306 748T497 806Q601 806 681 755ZM371
728T315 689T227 580T195 423Q195 323 226 240T323 108T484 58Q552 58 608 97T696 206T728 363Q728 464 697 546T600 678T439 728Q371 728 315 689Z" />
<glyph unicode="&#xd7;" glyph-name="multiply" horiz-adv-x="505" d="M465 121L440 95L252 283L64 95L39 121L226 308L39 495L64 520L252 333L440 520L465 495L278 308L465 121Z" />
<glyph unicode="&#xd8;" glyph-name="Oslash" horiz-adv-x="923" d="M766 698T808 609T850 409Q850 292 783 193T617 37T426 -21Q338 -21 266 16L171 -149L137 -129L232 36Q156 87 114 175T72 374Q72 491 139 590T305 747T496 805Q584 805 656 768L752 934L786
914L690 748V749Q766 698 808 609ZM196 336T220 262T291 137L603 677Q534 728 439 728Q371 728 315 689T227 580T195 423H196Q196 336 220 262ZM553 58T609 97T697 206T729 363Q729 451 705 525T634 649L322 109Q391 58 485 58Q553 58 609 97Z" />
<glyph unicode="&#xd9;" glyph-name="Ugrave" horiz-adv-x="898" d="M771 686V310Q771 205 721 130T597 18T453 -20Q365 -20 296 19T188 128T149 285V714L46 751L64 786H358V760L263 686V336Q263 204 327 131T521 58Q569 58 615 89T692 182T722 326V697L620 751L638
786H866V760L771 686ZM482 934L269 1111L287 1130L411 1149L518 953L482 934Z" />
<glyph unicode="&#xda;" glyph-name="Uacute" horiz-adv-x="898" d="M771 686V310Q771 205 721 130T597 18T453 -20Q365 -20 296 19T188 128T149 285V714L46 751L64 786H358V760L263 686V336Q263 204 327 131T521 58Q569 58 615 89T692 182T722 326V697L620 751L638
786H866V760L771 686ZM656 1111L444 934L407 953L514 1149L638 1130L656 1111Z" />
<glyph unicode="&#xdb;" glyph-name="Ucircumflex" horiz-adv-x="898" d="M771 686V310Q771 205 721 130T597 18T453 -20Q365 -20 296 19T188 128T149 285V714L46 751L64 786H358V760L263 686V336Q263 204 327 131T521 58Q569 58 615 89T692 182T722 326V697L620
751L638 786H866V760L771 686ZM662 937L549 918L424 1054L271 928L243 962L460 1139L680 956L662 937Z" />
<glyph unicode="&#xdc;" glyph-name="Udieresis" horiz-adv-x="898" d="M277 951T261 971T245 1020Q245 1041 256 1059T285 1089T319 1100Q344 1100 360 1080T376 1030Q376 1009 365 991T336 962T302 951Q277 951 261 971ZM579 951T563 971T547 1020Q547 1041
558 1059T587 1089T621 1100Q646 1100 662 1080T678 1030Q678 1009 667 991T638 962T604 951Q579 951 563 971ZM771 686V310Q771 205 721 130T597 18T453 -20Q365 -20 296 19T188 128T149 285V714L46 751L64 786H358V760L263 686V336Q263 204 327 131T521 58Q569
58 615 89T692 182T722 326V697L620 751L638 786H866V760L771 686Z" />
<glyph unicode="&#xdd;" glyph-name="Yacute" horiz-adv-x="794" d="M450 72L554 35L536 0H241V26L335 100V288L81 700L0 751L20 786H317V760L221 686L425 351L639 690L477 751L494 786H794V760L715 714L450 294V72ZM591 1111L379 934L342 953L449 1149L573 1130L591
1111Z" />
<glyph unicode="&#xde;" glyph-name="Thorn" d="M545 606T599 580T682 509T712 410Q712 349 661 294T532 208T378 180L330 216L348 251H434Q506 251 547 280T589 361Q589 443 541 495T399 547Q328 547 270 506V70L374 33L357 -2H63V24L157 97V713L54 750L71 785H365V759L270
686V599Q313 600 370 604Q442 608 476 608L475 606Q545 606 599 580Z" />
<glyph unicode="&#xdf;" glyph-name="germandbls" horiz-adv-x="772" d="M458 437T485 410T568 345Q611 316 636 295T680 246T698 184Q698 144 671 98T605 21T533 -10Q490 -10 432 -2T350 17V167H383Q411 109 453 76T538 43Q563 43 579 68T595 127Q595 161 568
188T486 252Q443 282 417 303T373 354T354 419Q354 456 376 487T440 559Q476 594 493 616T510 664Q510 689 486 722T424 780T349 804Q301 804 277 762T253 638V0H54V26L143 96V464H25V500H143V590Q143 667 183 735T285 843T404 883Q440 883 489 858T574 793T610
715Q610 676 589 647T527 578Q491 543 475 521T458 472Q458 437 485 410Z" />
<glyph unicode="&#xe0;" glyph-name="agrave" horiz-adv-x="612" d="M567 0H385V87L272 -2Q252 -10 222 -10Q138 -10 101 32T63 133Q63 169 89 203T164 269H385V342Q385 409 350 436T252 463Q191 463 106 384L76 418L221 533Q260 540 313 540Q399 540 447 497T495
371V70L585 35L567 0ZM313 65T385 124V233H205Q190 216 185 199T179 161Q179 122 198 94T250 65Q313 65 385 124ZM316 677L103 854L121 873L245 892L352 696L316 677Z" />
<glyph unicode="&#xe1;" glyph-name="aacute" horiz-adv-x="612" d="M567 0H385V87L272 -2Q252 -10 222 -10Q138 -10 101 32T63 133Q63 169 89 203T164 269H385V342Q385 409 350 436T252 463Q191 463 106 384L76 418L221 533Q260 540 313 540Q399 540 447 497T495
371V70L585 35L567 0ZM313 65T385 124V233H205Q190 216 185 199T179 161Q179 122 198 94T250 65Q313 65 385 124ZM490 854L278 677L241 696L348 892L472 873L490 854Z" />
<glyph unicode="&#xe2;" glyph-name="acircumflex" horiz-adv-x="612" d="M567 0H385V87L272 -2Q252 -10 222 -10Q138 -10 101 32T63 133Q63 169 89 203T164 269H385V342Q385 409 350 436T252 463Q191 463 106 384L76 418L221 533Q260 540 313 540Q399 540 447
497T495 371V70L585 35L567 0ZM313 65T385 124V233H205Q190 216 185 199T179 161Q179 122 198 94T250 65Q313 65 385 124ZM496 680L383 661L258 797L105 671L77 705L294 882L514 699L496 680Z" />
<glyph unicode="&#xe3;" glyph-name="atilde" horiz-adv-x="612" d="M567 0H385V87L272 -2Q252 -10 222 -10Q138 -10 101 32T63 133Q63 169 89 203T164 269H385V342Q385 409 350 436T252 463Q191 463 106 384L76 418L221 533Q260 540 313 540Q399 540 447 497T495
371V70L585 35L567 0ZM313 65T385 124V233H205Q190 216 185 199T179 161Q179 122 198 94T250 65Q313 65 385 124ZM311 806T378 806Q414 806 443 828L474 853L502 819L353 696Q283 768 215 768Q177 768 146 744L117 722L89 756L239 879Q311 806 378 806Z" />
<glyph unicode="&#xe4;" glyph-name="adieresis" horiz-adv-x="612" d="M129 693T113 713T96 763Q96 784 108 802T137 832T171 843Q196 843 212 824T228 774Q228 753 217 734T188 704T154 693Q129 693 113 713ZM394 693T378 713T361 763Q361 784 373 802T402 832T436
843Q461 843 477 824T493 774Q493 753 482 734T453 704T419 693Q394 693 378 713ZM567 0H385V87L272 -2Q252 -10 222 -10Q138 -10 101 32T63 133Q63 169 89 203T164 269H385V342Q385 409 350 436T252 463Q191 463 106 384L76 418L221 533Q260 540 313 540Q399 540
447 497T495 371V70L585 35L567 0ZM313 65T385 124V233H205Q190 216 185 199T179 161Q179 122 198 94T250 65Q313 65 385 124Z" />
<glyph unicode="&#xe5;" glyph-name="aring" horiz-adv-x="612" d="M567 0H385V87L272 -2Q252 -10 222 -10Q138 -10 101 32T63 133Q63 169 89 203T164 269H385V342Q385 409 350 436T252 463Q191 463 106 384L76 418L221 533Q260 540 313 540Q399 540 447 497T495
371V70L585 35L567 0ZM313 65T385 124V233H205Q190 216 185 199T179 161Q179 122 198 94T250 65Q313 65 385 124ZM376 882T406 854T436 785Q436 751 409 721T341 672T260 653Q216 653 186 681T155 750Q155 784 182 814T250 863T331 882Q376 882 406 854ZM218 842T218
799Q218 753 244 724T318 694Q345 694 359 705T374 737Q374 783 348 812T273 842Q218 842 218 799Z" />
<glyph unicode="&#xe6;" glyph-name="ae" horiz-adv-x="910" d="M702 67T804 158L834 124L674 -4Q636 -11 585 -11Q532 -11 487 17T413 94L298 -3Q267 -11 221 -11Q137 -11 100 31T62 132Q62 204 163 266H375V269V342Q375 409 343 436T252 463Q191 463 105 384L75
418L220 533Q260 540 313 540Q371 540 411 518T470 454Q512 494 563 517T661 540Q744 540 790 466T836 272H496Q501 184 539 126T644 68L643 67Q702 67 804 158ZM501 461T496 307H708Q699 367 692 395T664 442T603 461H604Q501 461 496 307ZM287 67T319 81T394
137Q376 183 375 232H205Q190 215 185 198T179 160Q179 122 201 95T260 67Q287 67 319 81Z" />
<glyph unicode="&#xe7;" glyph-name="ccedilla" horiz-adv-x="608" d="M372 -15T335 -45Q382 -84 399 -109T417 -163Q417 -210 372 -234T230 -264V-238Q328 -206 328 -145Q328 -123 313 -105T262 -65L331 -9Q319 -10 298 -10Q234 -10 183 24T102 117T73 247Q73
324 115 392T223 500T349 540Q389 540 441 529T518 503V355H485Q445 405 394 433T289 462Q193 462 193 295Q193 198 235 133T356 68Q412 68 513 153L543 119L437 36H439Q372 -15 335 -45Z" />
<glyph unicode="&#xe8;" glyph-name="egrave" horiz-adv-x="640" d="M385 -3Q348 -10 298 -10Q234 -10 183 24T102 117T73 247Q73 324 119 392T234 500T369 540Q461 540 512 466T565 272H194Q199 183 240 126T356 68Q421 68 537 175L567 140L385 -3ZM199 462T194
308H436Q426 365 417 394T383 443T310 462H311Q199 462 194 308ZM340 677L127 854L145 873L269 892L376 696L340 677Z" />
<glyph unicode="&#xe9;" glyph-name="eacute" horiz-adv-x="640" d="M385 -3Q348 -10 298 -10Q234 -10 183 24T102 117T73 247Q73 324 119 392T234 500T369 540Q461 540 512 466T565 272H194Q199 183 240 126T356 68Q421 68 537 175L567 140L385 -3ZM199 462T194
308H436Q426 365 417 394T383 443T310 462H311Q199 462 194 308ZM514 854L302 677L265 696L372 892L496 873L514 854Z" />
<glyph unicode="&#xea;" glyph-name="ecircumflex" horiz-adv-x="640" d="M385 -3Q348 -10 298 -10Q234 -10 183 24T102 117T73 247Q73 324 119 392T234 500T369 540Q461 540 512 466T565 272H194Q199 183 240 126T356 68Q421 68 537 175L567 140L385 -3ZM199
462T194 308H436Q426 365 417 394T383 443T310 462H311Q199 462 194 308ZM520 680L407 661L282 797L129 671L101 705L318 882L538 699L520 680Z" />
<glyph unicode="&#xeb;" glyph-name="edieresis" horiz-adv-x="640" d="M153 693T137 713T120 763Q120 784 132 802T161 832T195 843Q220 843 236 824T252 774Q252 753 241 734T212 704T178 693Q153 693 137 713ZM418 693T402 713T385 763Q385 784 397 802T426
832T460 843Q485 843 501 824T517 774Q517 753 506 734T477 704T443 693Q418 693 402 713ZM385 -3Q348 -10 298 -10Q234 -10 183 24T102 117T73 247Q73 324 119 392T234 500T369 540Q461 540 512 466T565 272H194Q199 183 240 126T356 68Q421 68 537 175L567 140L385
-3ZM199 462T194 308H436Q426 365 417 394T383 443T310 462H311Q199 462 194 308Z" />
<glyph unicode="&#xec;" glyph-name="igrave" horiz-adv-x="385" d="M329 0H58V26L147 95V399L58 462V488L224 549H257V71L347 35L329 0ZM463 677L250 854L268 873L392 892L499 696L463 677Z" />
<glyph unicode="&#xed;" glyph-name="iacute" horiz-adv-x="385" d="M329 0H58V26L147 95V399L58 462V488L224 549H257V71L347 35L329 0ZM382 854L170 677L133 696L240 892L364 873L382 854Z" />
<glyph unicode="&#xee;" glyph-name="icircumflex" horiz-adv-x="385" d="M329 0H58V26L147 95V399L58 462V488L224 549H257V71L347 35L329 0ZM643 680L530 661L405 797L252 671L224 705L441 882L661 699L643 680Z" />
<glyph unicode="&#xef;" glyph-name="idieresis" horiz-adv-x="385" d="M120 753T109 734T80 704T46 693Q21 693 5 713T-12 763Q-12 784 0 802T29 832T63 843Q88 843 104 824T120 774Q120 753 109 734ZM353 843T369 824T385 774Q385 753 374 734T345 704T311 693Q286
693 270 713T253 763Q253 784 265 802T294 832T328 843Q353 843 369 824ZM347 35L329 0H58V26L147 95V399L58 462V488L224 549H257V71L347 35Z" />
<glyph unicode="&#xf0;" glyph-name="eth" horiz-adv-x="671" d="M489 664T542 556T596 343Q596 251 555 170T446 39T301 -10Q238 -10 187 23T107 116T77 247Q77 318 120 386T232 497T372 540Q392 540 416 537Q371 621 299 687L128 581L106 617L265 715Q174 786
67 815V841L173 883Q275 854 366 778L536 883L559 847L399 749L400 748Q489 664 542 556ZM421 68T451 121T481 286Q481 374 450 461H314Q196 461 196 294Q196 226 216 175T273 95T359 67L358 68Q421 68 451 121Z" />
<glyph unicode="&#xf1;" glyph-name="ntilde" horiz-adv-x="714" d="M669 -1H487V340Q487 397 469 419T406 441Q371 441 338 429T257 378V70L347 34L329 -1H58V25L147 94V388L58 439V465L221 549L253 416L399 532Q420 540 452 540Q519 540 558 499T597 386V71L687
34L669 -1ZM363 806T430 806Q466 806 495 828L526 853L554 819L405 696Q335 768 267 768Q229 768 198 744L169 722L141 756L291 879Q363 806 430 806Z" />
<glyph unicode="&#xf2;" glyph-name="ograve" horiz-adv-x="666" d="M434 540T485 506T565 412T594 282Q594 205 548 138T433 30T298 -10Q234 -10 183 24T102 117T73 247Q73 324 119 392T234 500T369 540Q434 540 485 506ZM192 462T192 295Q192 198 234 133T356
68Q474 68 474 235Q474 332 432 397T311 462Q192 462 192 295ZM354 677L141 854L159 873L283 892L390 696L354 677Z" />
<glyph unicode="&#xf3;" glyph-name="oacute" horiz-adv-x="666" d="M434 540T485 506T565 412T594 282Q594 205 548 138T433 30T298 -10Q234 -10 183 24T102 117T73 247Q73 324 119 392T234 500T369 540Q434 540 485 506ZM192 462T192 295Q192 198 234 133T356
68Q474 68 474 235Q474 332 432 397T311 462Q192 462 192 295ZM528 854L316 677L279 696L386 892L510 873L528 854Z" />
<glyph unicode="&#xf4;" glyph-name="ocircumflex" horiz-adv-x="666" d="M434 540T485 506T565 412T594 282Q594 205 548 138T433 30T298 -10Q234 -10 183 24T102 117T73 247Q73 324 119 392T234 500T369 540Q434 540 485 506ZM192 462T192 295Q192 198 234 133T356
68Q474 68 474 235Q474 332 432 397T311 462Q192 462 192 295ZM534 680L421 661L296 797L143 671L115 705L332 882L552 699L534 680Z" />
<glyph unicode="&#xf5;" glyph-name="otilde" horiz-adv-x="666" d="M434 540T485 506T565 412T594 282Q594 205 548 138T433 30T298 -10Q234 -10 183 24T102 117T73 247Q73 324 119 392T234 500T369 540Q434 540 485 506ZM192 462T192 295Q192 198 234 133T356
68Q474 68 474 235Q474 332 432 397T311 462Q192 462 192 295ZM349 806T416 806Q452 806 481 828L512 853L540 819L391 696Q321 768 253 768Q215 768 184 744L155 722L127 756L277 879Q349 806 416 806Z" />
<glyph unicode="&#xf6;" glyph-name="odieresis" horiz-adv-x="666" d="M234 843T250 824T266 774Q266 753 255 734T226 704T192 693Q167 693 151 713T134 763Q134 784 146 802T175 832T209 843Q234 843 250 824ZM499 843T515 824T531 774Q531 753 520 734T491
704T457 693Q432 693 416 713T399 763Q399 784 411 802T440 832T474 843Q499 843 515 824ZM434 540T485 506T565 412T594 282Q594 205 548 138T433 30T298 -10Q234 -10 183 24T102 117T73 247Q73 324 119 392T234 500T369 540Q434 540 485 506ZM192 462T192 295Q192
198 234 133T356 68Q474 68 474 235Q474 332 432 397T311 462Q192 462 192 295Z" />
<glyph unicode="&#xf7;" glyph-name="divide" horiz-adv-x="524" d="M40 326H484V290H40V326ZM299 195T316 174T334 122Q334 100 322 81T290 50T252 38Q225 38 207 59T189 111Q189 133 201 152T233 183T271 195Q299 195 316 174ZM299 577T316 556T334 504Q334
482 322 463T290 432T252 420Q225 420 207 441T189 493Q189 515 201 534T233 565T271 577Q299 577 316 556Z" />
<glyph unicode="&#xf8;" glyph-name="oslash" horiz-adv-x="666" d="M539 468T566 410T594 283Q594 206 548 139T433 31T298 -9Q249 -9 207 11L117 -145L85 -126L175 30Q127 64 100 121T73 247Q73 324 119 392T234 500T369 540Q417 540 459 520L548 675L580 657L491
502Q539 468 566 410ZM191 247T202 205T234 132L405 427Q365 462 311 462Q192 462 192 295H191Q191 247 202 205ZM472 68T472 235Q472 283 461 325T429 399L259 103Q299 68 355 68H354Q472 68 472 235Z" />
<glyph unicode="&#xf9;" glyph-name="ugrave" horiz-adv-x="695" d="M639 0H456V108L326 -2Q305 -10 272 -10Q205 -10 167 31T128 144V388L39 440V466L205 550H238V189Q238 132 255 110T318 88Q350 88 381 100T456 150V388L367 440V466L533 550H566V71L656 35L639
0ZM373 677L160 854L178 873L302 892L409 696L373 677Z" />
<glyph unicode="&#xfa;" glyph-name="uacute" horiz-adv-x="695" d="M639 0H456V108L326 -2Q305 -10 272 -10Q205 -10 167 31T128 144V388L39 440V466L205 550H238V189Q238 132 255 110T318 88Q350 88 381 100T456 150V388L367 440V466L533 550H566V71L656 35L639
0ZM547 854L335 677L298 696L405 892L529 873L547 854Z" />
<glyph unicode="&#xfb;" glyph-name="ucircumflex" horiz-adv-x="695" d="M639 0H456V108L326 -2Q305 -10 272 -10Q205 -10 167 31T128 144V388L39 440V466L205 550H238V189Q238 132 255 110T318 88Q350 88 381 100T456 150V388L367 440V466L533 550H566V71L656
35L639 0ZM553 680L440 661L315 797L162 671L134 705L351 882L571 699L553 680Z" />
<glyph unicode="&#xfc;" glyph-name="udieresis" horiz-adv-x="695" d="M186 693T170 713T153 763Q153 784 165 802T194 832T228 843Q253 843 269 824T285 774Q285 753 274 734T245 704T211 693Q186 693 170 713ZM451 693T435 713T418 763Q418 784 430 802T459
832T493 843Q518 843 534 824T550 774Q550 753 539 734T510 704T476 693Q451 693 435 713ZM639 0H456V108L326 -2Q305 -10 272 -10Q205 -10 167 31T128 144V388L39 440V466L205 550H238V189Q238 132 255 110T318 88Q350 88 381 100T456 150V388L367 440V466L533
550H566V71L656 35L639 0Z" />
<glyph unicode="&#xfd;" glyph-name="yacute" horiz-adv-x="614" d="M573 505L321 1L118 -263L85 -237Q143 -176 173 -130T215 -37T226 75L98 386L7 439V465L168 549L206 398L330 93L476 398L345 495L362 530L573 531V505ZM490 854L278 677L241 696L348 892L472
873L490 854Z" />
<glyph unicode="&#xfe;" glyph-name="thorn" horiz-adv-x="709" d="M284 -11T237 22V-177L374 -220L357 -255H38V-229L127 -160V723L38 786V812L204 873H237V424L374 532Q406 540 451 540Q503 540 545 506T612 412T636 282Q636 205 590 138T475 30T340 -10V-11Q284
-11 237 22ZM363 463T327 448T236 383V177Q245 128 286 98T398 67Q516 67 516 233Q516 330 487 396T403 463H402Q363 463 327 448Z" />
<glyph unicode="&#xff;" glyph-name="ydieresis" horiz-adv-x="614" d="M130 693T114 713T97 763Q97 784 109 802T138 832T172 843Q197 843 213 824T229 774Q229 753 218 734T189 704T155 693Q130 693 114 713ZM395 693T379 713T362 763Q362 784 374 802T403 832T437
843Q462 843 478 824T494 774Q494 753 483 734T454 704T420 693Q395 693 379 713ZM573 505L321 1L118 -263L85 -237Q143 -176 173 -130T215 -37T226 75L98 386L7 439V465L168 549L206 398L330 93L476 398L345 495L362 530L573 531V505Z" />
<glyph unicode="&#x2013;" glyph-name="endash" horiz-adv-x="714" d="M40 326H674V290H40V326Z" />
<glyph unicode="&#x2014;" glyph-name="emdash" horiz-adv-x="1037" d="M40 326H997V290H40V326Z" />
<glyph unicode="&#x2018;" glyph-name="quoteleft" horiz-adv-x="362" d="M257 735T236 690T210 588L286 545V519L123 436L90 581L277 825L310 799V798Q257 735 236 690Z" />
<glyph unicode="&#x2019;" glyph-name="quoteright" horiz-adv-x="370" d="M86 436L53 462Q106 525 127 570T153 672L76 716V742L239 825L273 680L86 436Z" />
<glyph unicode="&#x201a;" glyph-name="quotesinglbase" horiz-adv-x="362" d="M86 -264L53 -238Q106 -175 127 -130T153 -29L76 16V42L239 125L273 -20L86 -264Z" />
<glyph unicode="&#x201c;" glyph-name="quotedblleft" horiz-adv-x="612" d="M517 735T496 690T470 588L546 545V519L383 436L350 581L537 825L570 799V798Q517 735 496 690ZM267 735T246 690T220 588L296 545V519L133 436L100 581L287 825L320 799V798Q267 735 246 690Z" />
<glyph unicode="&#x201d;" glyph-name="quotedblright" horiz-adv-x="620" d="M336 436L303 462Q356 525 377 570T403 672L326 716V742L489 825L523 680L336 436ZM86 436L53 462Q106 525 127 570T153 672L76 716V742L239 825L273 680L86 436Z" />
<glyph unicode="&#x201e;" glyph-name="quotedblbase" horiz-adv-x="612" d="M336 -264L303 -238Q356 -175 377 -130T403 -29L326 16V42L489 125L523 -20L336 -264ZM86 -264L53 -238Q106 -175 127 -130T153 -29L76 16V42L239 125L273 -20L86 -264Z" />
<glyph unicode="&#x2022;" glyph-name="bullet" horiz-adv-x="476" d="M324 426T359 384T394 280Q394 235 369 197T305 135T230 112Q175 112 140 154T104 258Q104 303 129 341T193 403T268 426Q324 426 359 384Z" />
<glyph unicode="&#x2039;" glyph-name="guilsinglleft" horiz-adv-x="403" d="M330 48L300 27L53 266L300 506L330 485L203 288L330 48Z" />
<glyph unicode="&#x203a;" glyph-name="guilsinglright" horiz-adv-x="403" d="M103 26L73 47L200 244L73 484L103 505L350 265L103 26Z" />
</font>
</defs>
</svg>
