<?xml version="1.0" standalone="no"?>
<!DOCTYPE svg PUBLIC "-//W3C//DTD SVG 1.1//EN" "http://www.w3.org/Graphics/SVG/1.1/DTD/svg11.dtd">
<svg xmlns="http://www.w3.org/2000/svg">
<defs >
<font id="Stalemate" horiz-adv-x="422" ><font-face
    font-family="Stalemate"
    units-per-em="2048"
    panose-1="2 0 5 3 0 0 0 2 0 2"
    ascent="1837"
    descent="-1165"
    alphabetic="0" />
<glyph unicode=" " glyph-name="space" horiz-adv-x="348" />
<glyph unicode="!" glyph-name="exclam" horiz-adv-x="348" d="M139 1184Q137 1187 137 1191T137 1198Q137 1220 148 1232T180 1245Q193 1245 203 1239T213 1214Q213 1158 211 1088T206 937T198 772T189 600T180 430T174 272Q176 269 176 267T176 262Q176 250
166 242T145 233Q140 233 137 236T133 246Q131 410 131 582T131 932Q131 995 132 1058T139 1184ZM160 154Q185 154 196 137T207 94Q207 65 191 49T152 33Q135 33 119 46T102 88Q102 120 118 137T160 154Z" />
<glyph unicode="&quot;" glyph-name="quotedbl" horiz-adv-x="414" d="M166 979Q166 971 152 966T125 961Q109 961 109 969Q109 1028 106 1079T102 1190Q102 1219 103 1250T109 1311Q109 1315 115 1320T129 1329T146 1336T162 1339Q168 1339 168 1335Q162 1267
162 1196Q162 1136 164 1084T166 979ZM309 979Q309 971 295 966T268 961Q252 961 252 969Q252 1028 249 1079T246 1190Q246 1219 247 1250T252 1311Q252 1315 258 1320T272 1329T290 1336T305 1339Q311 1339 311 1335Q305 1267 305 1196Q305 1136 307 1084T309
979Z" />
<glyph unicode="#" glyph-name="numbersign" horiz-adv-x="860" d="M158 805Q152 805 153 813T161 831T175 849T190 858H350Q373 932 398 1006T451 1155Q449 1166 461 1171T486 1177T510 1175T514 1165Q447 1011 395 860H598Q618 939 641 1013T690 1155Q696 1165
707 1170T730 1177T749 1175T754 1165Q722 1088 695 1012T645 860Q730 857 819 854Q825 854 823 846T814 828T800 810T786 801Q746 803 707 805T629 807Q606 732 587 656T549 506L727 500Q732 500 730 492T722 473T708 455T694 446Q656 448 617 450T537 453Q517
372 497 293T455 135Q451 123 439 112T416 96T398 95T397 117Q423 192 448 278T496 455Q379 458 268 455Q247 377 226 299T182 135Q183 127 173 119T152 107T131 104T125 117Q151 203 177 287T227 455Q185 453 146 453T68 451Q56 450 58 458T67 475T85 493T100
502H242Q263 579 286 654T334 805H158ZM377 807Q351 732 328 657T281 504Q338 504 394 505T508 506Q526 580 545 656T584 807Q531 809 480 808T377 807Z" />
<glyph unicode="$" glyph-name="dollar" horiz-adv-x="741" d="M596 905Q600 911 605 918T616 935T624 961T627 997Q627 1047 590 1064T487 1081Q461 1081 435 1076T381 1061Q379 1001 379 945T379 829Q379 764 379 688T381 528Q409 518 433 506T475 478T503 439T514
389Q514 350 504 319T477 264T437 224T389 197Q391 150 392 107T397 23Q397 6 388 -9T356 -25Q351 -25 348 -24T344 -20Q344 -18 348 -14Q348 32 347 81T346 182Q308 176 272 180T207 201Q194 210 196 225T209 252T231 267T250 254Q268 243 293 239T344 238Q342
296 341 355T338 475Q292 487 243 502T154 541T87 602T61 698Q61 750 83 804T143 911T230 1008T336 1085Q338 1126 339 1165T346 1239Q344 1239 343 1240Q340 1241 340 1243Q340 1248 345 1256T356 1273T371 1286T385 1292Q388 1292 391 1289T395 1276Q390 1229
388 1189T383 1110Q455 1145 524 1145Q557 1145 585 1138T635 1115T668 1078T680 1024Q680 999 673 980T654 946T629 920T604 899L596 905ZM332 825Q332 876 332 930T334 1038Q286 1014 243 978T166 899T113 812T92 723Q90 679 111 651T168 603T248 571T336 543Q334
617 333 688T332 825ZM383 461Q383 407 384 354T387 246Q429 260 458 290T487 371Q487 406 458 426T383 461Z" />
<glyph unicode="%" glyph-name="percent" horiz-adv-x="946" d="M289 778Q361 778 397 830T434 975Q434 1013 425 1048T398 1111T352 1154T287 1171Q260 1171 234 1163T186 1133T152 1077T139 987Q139 950 148 913T175 846T222 797T289 778ZM268 729Q230 729 197
745T138 789T97 858T82 946Q82 1010 102 1061T155 1149T231 1204T319 1223Q355 1223 387 1207T444 1163T482 1094T496 1006Q496 941 478 890T428 803T355 748T268 729ZM811 1272Q811 1275 826 1276T850 1274Q858 1276 862 1272T864 1260Q865 1258 865 1255Q865
1254 864 1253Q763 1065 676 900T507 580T346 274T180 -39Q174 -59 160 -55Q146 -55 135 -47T131 -25Q221 137 302 293T463 606T628 928T811 1272ZM698 43Q771 43 807 95T844 240Q844 278 835 313T808 376T762 419T696 436Q669 436 643 428T596 398T562 342T549
252Q549 215 558 178T585 111T632 62T698 43ZM678 -6Q640 -6 607 10T548 54T507 123T492 211Q492 275 512 326T565 413T641 468T729 487Q765 487 797 471T853 427T891 358T905 270Q905 205 887 154T837 68T765 13T678 -6Z" />
<glyph unicode="&amp;" glyph-name="ampersand" horiz-adv-x="1233" d="M1274 -16Q1248 -38 1220 -59T1160 -97T1095 -124T1028 -135Q980 -135 940 -114T864 -56T800 32T745 143Q642 75 536 35T336 -6Q259 -6 204 11T112 61T59 139T41 240Q41 310 67 367T138 472T241
560T362 639T490 713T610 791Q605 842 604 883T602 956Q602 992 610 1039T637 1128T688 1199T770 1229Q792 1229 808 1220T835 1195T851 1161T856 1122Q856 1071 842 1027T804 943T747 871T676 807Q682 742 692 668T717 517T752 364T799 221Q869 271 929 332T1034
459T1103 595T1128 731Q1128 784 1117 816T1079 868L1085 879Q1141 860 1164 819T1188 721Q1188 661 1158 592T1077 453T956 315T809 188Q833 131 861 84T922 2T995 -52T1079 -72Q1104 -72 1125 -70T1167 -60T1211 -38T1262 0L1274 -16ZM338 59Q438 57 538 89T733
178Q708 247 689 322T654 474T629 623T612 762Q557 725 498 691T383 621T276 549T187 468T127 374T104 262Q104 201 125 162T181 100T256 68T338 59ZM664 1020Q664 991 665 945T672 842Q731 894 766 955T801 1098Q801 1108 799 1121T791 1145T775 1163T748 1171Q721
1171 705 1158T679 1123T667 1074T664 1020Z" />
<glyph unicode="&apos;" glyph-name="quotesingle" horiz-adv-x="270" d="M166 979Q166 971 152 966T125 961Q109 961 109 969Q109 1028 106 1079T102 1190Q102 1219 103 1250T109 1311Q109 1315 115 1320T129 1329T146 1336T162 1339Q168 1339 168 1335Q162 1267
162 1196Q162 1136 164 1084T166 979Z" />
<glyph unicode="(" glyph-name="parenleft" horiz-adv-x="717" d="M502 1421Q427 1335 368 1239T268 1040T204 826T182 602Q182 385 267 191T510 -164Q513 -166 517 -166T522 -172Q522 -178 517 -187T503 -205T485 -220T467 -227Q458 -227 446 -217Q369 -137 308
-48T203 140T138 344T115 561Q115 672 145 791T226 1026T344 1247T485 1436L502 1421Z" />
<glyph unicode=")" glyph-name="parenright" horiz-adv-x="717" d="M176 -201Q248 -112 308 -13T410 193T476 411T500 637Q500 733 479 832T417 1029T313 1218T170 1391Q164 1394 164 1399Q164 1406 170 1415T186 1434T204 1449T221 1456Q228 1456 231 1444Q309
1363 370 1273T475 1084T542 880T565 666Q565 549 535 429T454 195T335 -24T190 -215L176 -201Z" />
<glyph unicode="*" glyph-name="asterisk" horiz-adv-x="692" d="M156 1229Q145 1233 145 1244T151 1264T167 1277T188 1270Q230 1245 266 1222T346 1174Q346 1216 345 1256T344 1339Q337 1348 345 1358T365 1373T389 1379T401 1366Q395 1329 393 1280T391 1176Q431
1202 474 1228T573 1286Q572 1291 583 1288T602 1277T609 1258T582 1235Q526 1209 484 1186T403 1139Q438 1120 479 1099T573 1055Q592 1049 594 1039T590 1021T570 1010T543 1016Q498 1037 462 1058T391 1102Q391 1055 392 1012T395 928Q395 913 386 907T367 901T350
904T348 913Q346 961 346 1007T346 1102Q308 1077 269 1051T180 997Q178 992 169 996T153 1010T147 1029T168 1047Q216 1071 254 1094T330 1139Q292 1160 250 1183T156 1229Z" />
<glyph unicode="+" glyph-name="plus" horiz-adv-x="860" d="M475 244Q475 230 461 221T434 211Q418 211 418 225Q418 303 416 373T412 516Q337 514 266 513T119 512Q115 512 115 520Q115 526 117 535T123 552T131 565T141 571Q213 571 279 572T412 575V637Q412
745 418 856Q418 860 424 866T438 877T456 885T471 889Q477 889 477 885Q471 762 471 633V578H565Q573 578 592 578T636 578T687 577T736 575T772 572T786 567Q786 562 782 553T772 535T760 519T748 512Q637 518 526 518H471Q471 446 473 379T475 244Z" />
<glyph unicode="," glyph-name="comma" horiz-adv-x="268" d="M137 154Q163 154 175 133T188 82Q188 67 186 45T173 -1T143 -53T88 -106Q82 -111 79 -111T74 -107T74 -100T78 -94Q93 -85 106 -65T127 -25T137 12T129 31Q107 36 95 50T82 88Q82 120 98 137T137 154Z" />
<glyph unicode="-" glyph-name="hyphen" horiz-adv-x="471" d="M264 248Q207 248 157 247T53 246Q51 247 50 248Q47 249 47 254Q47 260 49 270T54 290T60 307T66 315Q123 315 174 317T283 319Q289 319 307 319T346 320T381 317T397 311Q397 306 395 296T390 274T384
255T377 246Q349 249 321 249T264 248Z" />
<glyph unicode="." glyph-name="period" horiz-adv-x="268" d="M139 154Q164 154 175 137T186 94Q186 65 170 49T131 33Q114 33 98 46T82 88Q82 120 98 137T139 154Z" />
<glyph unicode="/" glyph-name="slash" horiz-adv-x="623" d="M627 1356Q628 1358 632 1360T642 1363T654 1365T664 1366Q672 1366 678 1363T684 1354Q684 1353 684 1352T683 1350Q682 1349 682 1348Q603 1149 535 975T402 638T276 315T145 -14Q142 -35 125 -35Q113
-35 102 -28T96 -4Q167 167 229 330T354 658T483 996T627 1356Z" />
<glyph unicode="0" glyph-name="zero" horiz-adv-x="956" d="M512 1264Q624 1264 701 1211T825 1071T894 871T915 641Q915 574 906 495T877 337T824 184T743 53T630 -38T481 -72Q403 -72 343 -45T239 28T164 137T116 271T90 419T82 569Q82 647 91 729T122 888T177
1033T259 1153T369 1234T512 1264ZM485 1198Q418 1198 367 1174T278 1107T213 1007T171 885T148 751T141 614Q141 561 147 495T169 359T211 225T279 109T376 27T508 -4Q576 -4 628 22T719 94T782 199T823 326T845 463T852 600Q852 653 845 717T821 848T777 978T709
1090T613 1168T485 1198Z" />
<glyph unicode="1" glyph-name="one" horiz-adv-x="489" d="M276 -41Q273 -18 272 18T269 97T268 186T267 277T266 360T266 428Q266 583 270 699T279 901T289 1042T293 1133Q293 1142 291 1149T281 1157Q266 1157 238 1136T176 1082T106 1010T37 934L20 952Q62
1002 109 1057T199 1158T278 1235T334 1266Q346 1266 356 1262T367 1249Q367 1243 367 1232T365 1204Q360 1136 356 1083T347 978T341 874T336 753T333 599T332 393Q332 364 333 325T337 241T343 152T348 69T352 3T354 -37Q354 -42 348 -47T334 -57T315 -65T295
-68Q286 -68 282 -62T276 -41Z" />
<glyph unicode="2" glyph-name="two" horiz-adv-x="1004" d="M788 57Q778 39 768 17T744 -25T709 -58T655 -72Q621 -72 592 -62T536 -36T483 -4T430 29Q392 1 358 -12T301 -25Q263 -25 240 -11T217 29Q217 44 227 55T252 73T287 84T324 88Q350 88 377 82T434 66Q480
100 531 152T631 269T725 411T804 571T859 742T879 918Q879 984 860 1036T805 1124T722 1179T618 1198Q526 1198 435 1170T271 1090T150 963T100 797Q100 755 122 733T182 711Q210 711 225 719T250 733L256 731Q253 723 247 709T231 681T205 656T168 645Q139 645
120 658T89 693T73 742T68 795Q68 862 93 923T162 1036T261 1130T379 1202T504 1248T625 1264Q701 1264 762 1243T866 1181T931 1079T954 938Q954 850 932 762T873 590T786 427T682 280T572 154T465 55Q516 37 567 19T668 0Q697 0 715 5T745 19T764 39T780 61L788
57ZM303 18Q320 18 346 23T399 43Q363 61 317 61Q272 58 272 39Q272 28 280 23T303 18Z" />
<glyph unicode="3" glyph-name="three" horiz-adv-x="954" d="M168 100Q180 84 199 64T247 25T317 -5T412 -18Q448 -18 478 -8T531 21T565 65T578 121Q578 167 557 206T502 272Q465 252 427 242T352 231Q334 231 317 234T287 245T265 263T256 289Q256 305 267
316T297 333T336 343T379 346Q414 346 449 336T516 309Q578 343 634 404T732 543T800 715T825 907Q825 957 809 1008T758 1100T672 1168T549 1194Q461 1194 376 1167T224 1090T116 973T74 823Q74 791 81 766T98 721T119 685T141 657L131 647Q116 659 101 679T72
724T50 777T41 834Q41 901 67 959T137 1065T235 1150T349 1212T463 1251T563 1264Q655 1264 720 1237T826 1163T886 1052T905 915Q905 832 875 742T795 568T678 413T541 295Q587 263 616 216T645 113Q645 74 631 40T591 -19T528 -59T444 -74Q384 -74 337 -56T255
-11T197 43T158 90L168 100ZM373 270Q399 270 424 275T475 291Q427 322 373 322Q350 322 331 316T311 297Q311 285 325 278T373 270Z" />
<glyph unicode="4" glyph-name="four" horiz-adv-x="874" d="M772 272Q755 273 741 273T714 275T686 277T653 279V-16Q653 -30 645 -40T626 -58T604 -70T586 -74Q575 -74 573 -64T571 -41Q573 41 574 121T578 281H532Q511 281 478 280T404 277T320 273T236 269T161
265T106 262Q97 261 87 262T68 267T53 279T47 303Q47 314 68 353T125 450T207 580T304 730T406 886T501 1033T579 1158T631 1247Q631 1250 631 1254T633 1262Q642 1280 655 1278T678 1265T692 1239T688 1221Q666 1000 660 779T653 338Q668 338 681 338T708 337T740
336T782 334Q806 341 810 333T810 311T793 285T772 272ZM578 338Q581 555 588 759T618 1161Q584 1104 534 1027T429 864T319 692T220 532T149 404T121 328Q121 323 144 322T203 322T285 325T376 330T461 335T528 338H578Z" />
<glyph unicode="5" glyph-name="five" horiz-adv-x="600" d="M254 -74Q207 -74 174 -66T118 -45T86 -21T76 0Q76 7 80 17T91 36T104 51T115 57Q124 57 124 48T129 29Q133 23 143 15T172 -1T216 -13T281 -18Q334 -18 372 -2T436 40T474 99T487 166Q487 210 469
246T420 308T351 348T270 362Q244 362 222 360T182 352Q173 312 159 288T119 264Q100 264 94 276T88 297Q88 317 105 343T158 389Q160 415 161 445T162 504T162 558T162 600Q162 671 159 742T151 879T139 1003T125 1106T111 1181T98 1221Q90 1229 90 1237Q90 1245
97 1246T109 1253Q115 1262 136 1262T188 1259T256 1246T330 1231T402 1218T465 1212Q508 1212 536 1225T578 1276L590 1274Q586 1246 577 1221T553 1178T517 1148T467 1137Q424 1137 391 1145T325 1164T256 1183T170 1192Q178 1100 183 1031T191 910T195 818T196
748T197 689T197 633Q197 577 196 517T188 403Q210 413 237 417T295 422Q341 422 384 408T461 366T515 296T535 197Q535 135 514 85T456 0T367 -54T254 -74ZM137 307Q148 307 154 342Q129 330 129 315Q129 307 137 307Z" />
<glyph unicode="6" glyph-name="six" horiz-adv-x="963" d="M1008 1098Q987 1122 965 1144T912 1184T841 1211T741 1221Q627 1221 538 1180T382 1069T267 910T191 724T148 531T135 354Q135 323 138 290T147 225Q156 264 176 299T226 361T296 402T387 418Q429 418
469 403T541 359T591 291T610 203Q610 145 590 95T537 9T459 -49T367 -70Q298 -70 243 -40T148 43T89 169T68 330Q68 423 89 530T152 745T254 951T393 1127T566 1248T772 1294Q827 1294 869 1276T943 1230T995 1169T1024 1106L1008 1098ZM176 131Q202 68 251 27T377
-14Q412 -14 443 -6T497 20T533 67T547 139Q547 183 532 222T489 290T426 337T348 354Q301 354 269 337T216 292T186 228T176 154V131Z" />
<glyph unicode="7" glyph-name="seven" horiz-adv-x="891" d="M61 1049Q55 1061 51 1075T47 1106Q47 1132 56 1158T85 1206T134 1241T203 1255Q279 1255 347 1244T483 1218T623 1192T782 1180Q838 1232 886 1261T973 1290Q990 1290 1002 1280T1014 1249Q1014 1222
991 1201T931 1164T849 1140T758 1126Q705 1065 652 980T549 794T457 585T382 368T332 159T311 -27V-31Q311 -39 304 -46T288 -58T267 -66T246 -70Q225 -70 225 -55Q237 62 264 178T329 405T415 620T515 815T623 985T731 1124H705Q635 1124 565 1136T426 1163T288
1190T152 1202Q130 1202 114 1194T86 1172T69 1141T63 1106Q63 1094 65 1082T74 1059L61 1049ZM942 1245Q911 1245 878 1228T809 1180Q837 1181 864 1183T913 1192T948 1208T961 1233Q961 1239 955 1242T942 1245Z" />
<glyph unicode="8" glyph-name="eight" horiz-adv-x="942" d="M535 1264Q596 1264 641 1247T717 1206Q729 1202 750 1194T796 1170T846 1132T891 1078T925 1006T938 913Q938 824 903 746T811 600T683 475T541 373Q568 347 590 321T630 266T656 206T666 141Q666
101 650 65T606 0T536 -44T446 -61Q399 -61 360 -48T292 -12T247 43T231 113Q231 158 248 192T294 253T362 305T446 356Q388 402 325 450T208 553T121 676T86 829Q86 919 122 998T219 1136T361 1230T535 1264ZM737 1096Q728 1107 710 1125T665 1161T601 1191T518
1204Q434 1204 365 1181T245 1114T167 1006T139 860Q139 781 175 718T268 600T389 497T514 397Q582 439 645 490T756 603T833 742T862 911Q862 976 843 1024T793 1104Q789 1097 782 1091T767 1082T751 1082T737 1096ZM616 115Q616 147 605 176T576 232T531 284T475
334Q434 310 401 289T345 245T308 194T295 131Q295 99 308 73T344 29T394 2T451 -8Q483 -8 513 -1T566 22T602 60T616 115Z" />
<glyph unicode="9" glyph-name="nine" horiz-adv-x="932" d="M627 -49Q627 -37 627 -4T628 77T631 184T637 309T647 443T662 578Q603 536 526 505T356 473Q280 473 230 497T149 560T107 647T94 743Q94 806 114 869T169 990T251 1098T355 1185T471 1243T594 1264Q654
1264 697 1248T770 1205T817 1140T844 1059Q842 1017 827 999T799 981Q786 981 784 991Q784 1048 768 1087T723 1151T652 1187T559 1198Q456 1198 379 1157T249 1053T171 916T145 774Q145 715 165 672T221 600T302 559T401 545Q486 545 552 564T668 616Q678 684
692 744T725 849T768 920T821 946Q840 946 855 929T870 883Q870 860 863 834T842 779T812 725T774 676Q765 665 752 653T725 627Q719 568 716 504T710 374T706 246T705 127T705 25T705 -51Q705 -57 699 -61T684 -70T665 -76T645 -78Q634 -78 629 -73T627 -49ZM801
891Q787 891 776 875T757 828T741 757T729 668Q772 714 793 766T815 864Q815 872 813 881T801 891Z" />
<glyph unicode=":" glyph-name="colon" horiz-adv-x="309" d="M160 154Q185 154 196 137T207 94Q207 65 191 49T152 33Q135 33 119 46T102 88Q102 120 118 137T160 154ZM160 440Q185 440 196 423T207 381Q207 352 191 336T152 319Q135 319 119 332T102 375Q102
407 118 423T160 440Z" />
<glyph unicode=";" glyph-name="semicolon" horiz-adv-x="309" d="M158 154Q184 154 196 133T209 82Q209 67 207 45T194 -1T164 -53T109 -106Q103 -111 99 -111T94 -107T94 -100T98 -94Q113 -85 126 -65T147 -25T157 12T150 31Q128 36 115 50T102 88Q102 120 118
137T158 154ZM160 440Q185 440 196 423T207 381Q207 352 191 336T152 319Q135 319 119 332T102 375Q102 407 118 423T160 440Z" />
<glyph unicode="&lt;" glyph-name="less" horiz-adv-x="860" d="M166 559Q166 567 184 580T233 609T303 644T385 682T468 719T543 754T602 782T633 801Q636 804 643 803T657 798T670 789T676 778Q676 764 670 757T662 748Q639 735 600 717T516 679T425 639T342
601T282 571T258 553Q258 546 282 532T343 498T427 455T517 409T599 364T657 324Q665 318 662 308T652 288T636 274T623 272Q616 280 589 296T523 333T439 378T349 427T266 473T203 512Q192 510 185 517T174 532T168 549T166 559Z" />
<glyph unicode="=" glyph-name="equal" horiz-adv-x="860" d="M139 614Q135 614 135 623Q135 629 137 637T144 654T152 668T162 674Q218 674 264 675T354 677T443 679T545 680Q552 680 571 680T615 680T666 679T715 677T751 675T766 670Q766 665 762 656T752 637T739
621T727 614Q671 617 617 619T506 621Q451 621 406 620T319 618T234 615T139 614ZM139 410Q135 410 135 418Q135 424 136 432T140 449T147 463T156 469Q212 469 255 469T340 470T425 470T524 471Q532 471 551 471T595 472T646 472T695 471T731 469T745 465Q745
460 742 451T733 433T722 417T711 410Q655 413 598 413T485 412Q431 412 389 412T309 411T231 411T139 410Z" />
<glyph unicode="&gt;" glyph-name="greater" horiz-adv-x="860" d="M694 510Q694 502 676 489T627 460T557 425T475 387T392 350T317 315T258 287T227 268Q224 265 217 266T203 271T190 280T184 291Q184 305 190 312T199 322Q222 335 261 353T344 390T435 430T518
468T578 498T602 516Q602 523 578 537T517 571T433 614T343 660T261 705T203 745Q195 751 198 761T208 781T225 795T238 797Q245 789 272 773T337 736T421 691T511 642T594 596T657 557Q668 558 675 552T686 537T692 520T694 510Z" />
<glyph unicode="?" glyph-name="question" horiz-adv-x="809" d="M307 766Q281 734 252 711T180 688Q151 688 129 699T92 729T69 772T61 823Q61 876 81 928T135 1027T216 1115T315 1184T422 1230T530 1247Q588 1247 629 1230T696 1185T735 1118T748 1036Q748 962
720 897T649 772T557 658T465 553T394 453T365 354Q365 319 383 299T430 279Q450 279 470 286T510 317L518 311Q512 300 501 287T476 261T445 241T408 233Q366 233 340 262T313 338Q313 383 339 430T406 529T492 635T579 750T645 874T672 1010Q672 1044 662 1075T630
1131T576 1169T500 1184Q414 1184 341 1154T215 1075T131 965T100 842Q100 797 125 766T201 735Q242 735 263 747T299 774L307 766ZM410 133Q434 133 445 116T457 74Q457 45 441 29T401 12Q384 12 368 25T352 68Q352 100 368 116T410 133Z" />
<glyph unicode="@" glyph-name="at" horiz-adv-x="1323" d="M782 498Q782 451 793 416Q814 453 825 493T836 565Q836 581 832 590T821 600Q807 600 795 571T782 498ZM922 240Q874 240 834 267T774 350Q734 301 681 269T565 236Q531 236 505 251T460 291T432 351T422
424Q422 489 451 555T528 674T639 760T770 793Q819 793 852 782T906 756T935 726T944 702Q944 694 939 689T927 681T911 677T895 676Q889 676 883 682T870 696Q862 705 852 716T826 737T791 753T745 760Q690 760 643 732T561 660T507 567T487 471Q487 436 496 407T524
356T566 322T621 309Q669 309 704 327T766 377Q761 395 759 418T756 467Q756 521 764 554T784 607T807 634T827 641Q837 641 849 628T862 580Q862 535 846 486T801 389Q818 349 858 323T948 297Q1011 297 1057 331T1134 417T1179 531T1194 651Q1194 755 1153 835T1044
971T893 1056T723 1085Q595 1085 486 1042T297 921T171 739T125 512Q125 411 161 321T267 162T439 54T674 14Q758 14 833 28T987 72L993 51Q959 33 919 16T834 -15T738 -37T635 -45Q499 -45 394 -4T218 109T109 277T72 485Q72 573 97 656T167 813T276 948T415 1054T579
1122T760 1147Q890 1147 983 1106T1135 999T1223 850T1251 680Q1251 631 1240 580T1208 479T1158 387T1092 311T1012 259T922 240Z" />
<glyph unicode="A" glyph-name="A" horiz-adv-x="1577" d="M12 293Q17 251 30 206T68 125T133 65T231 41Q289 41 344 62T451 123T554 215T651 334Q596 332 541 330T428 324Q416 324 401 321T383 317Q373 317 373 330Q373 336 376 344T387 359T404 372T428 377Q456
377 524 379T686 387Q757 491 821 611T942 849T1050 1077T1145 1270T1226 1404T1294 1454Q1313 1454 1324 1442T1341 1409T1348 1362T1350 1307Q1350 1189 1341 1077T1319 854T1294 633T1274 408Q1302 410 1328 410T1378 410H1421Q1444 410 1461 409T1479 397Q1479
385 1468 372T1430 358Q1388 356 1349 356T1270 356Q1268 318 1268 281T1268 205Q1268 173 1272 141T1288 84T1321 42T1378 25Q1403 25 1427 37T1474 70T1514 116T1544 166L1556 160Q1544 134 1527 98T1485 29T1429 -27T1354 -51Q1279 -51 1247 7T1214 184Q1214
226 1214 268T1219 354Q1084 351 956 347T694 336Q640 256 583 188T466 69T345 -10T221 -39Q175 -39 142 -23T86 21T48 84T23 155T9 227T0 291L12 293ZM731 389Q789 391 851 393T976 398T1101 403T1221 408Q1227 518 1236 633T1254 864T1269 1091T1276 1307Q1276
1314 1276 1327T1274 1352T1271 1373T1266 1382Q1252 1382 1226 1338T1162 1218T1079 1043T977 833T860 608T731 389Z" />
<glyph unicode="B" glyph-name="B" horiz-adv-x="1503" d="M442 106Q458 95 472 86T502 68Q499 116 498 162T494 254Q453 257 427 267T401 297Q401 319 425 330T492 344V463Q492 583 494 695T501 917T515 1138T539 1366Q436 1328 343 1274T178 1151T65 997T23
815Q23 794 30 767T51 711T86 656T135 610L123 596Q92 617 69 645T31 704T8 765T0 823Q0 925 46 1015T168 1181T343 1318T545 1423Q547 1434 549 1446T553 1470Q555 1483 557 1497T559 1513Q559 1523 559 1533T567 1544Q573 1544 580 1540T593 1530T603 1517T608
1503Q606 1488 604 1474T600 1446Q699 1481 792 1500T961 1520Q1064 1520 1156 1495T1319 1417T1429 1279T1470 1075Q1470 969 1443 875T1368 700T1254 550T1111 428T947 336T772 276Q797 253 809 224T821 160Q821 131 811 103T781 51T729 13T655 -2Q631 -2 608
2T565 12Q567 -6 568 -24T571 -59Q571 -64 572 -73T573 -86Q573 -95 566 -102T553 -109Q520 -109 514 -59Q511 -33 509 -9T504 41Q481 55 463 69T432 94L442 106ZM551 629Q551 572 550 500T551 348H569Q623 348 668 336T745 301Q831 317 913 349T1067 429T1200
540T1304 681T1372 852T1397 1053Q1397 1142 1366 1215T1279 1339T1143 1419T967 1448Q880 1448 785 1433T594 1386Q578 1237 569 1125T556 924T552 765T551 629ZM553 252Q555 198 557 146T563 43Q577 38 591 37T623 35Q696 35 730 74T764 170Q764 231 729 268Q687
259 645 256T563 252H553ZM553 283H557Q592 283 627 285T696 293Q673 305 643 312T573 319H553V283ZM494 285Q494 293 493 300T492 315Q457 309 457 297Q457 291 467 289T494 285Z" />
<glyph unicode="C" glyph-name="C" horiz-adv-x="1120" d="M1081 371Q1076 343 1063 298T1026 201T966 98T878 5T757 -63T600 -90Q500 -90 407 -42T242 96T127 316T84 612Q84 729 105 841T165 1052T261 1234T390 1378T548 1471T731 1505Q804 1505 862 1483T960
1423T1022 1334T1044 1223Q1044 1184 1033 1147T1005 1077T972 1018T942 975L930 985Q942 1001 952 1022T971 1069T984 1121T989 1178Q989 1231 971 1278T917 1360T832 1417T717 1438Q621 1438 541 1410T396 1330T284 1207T203 1049T155 866T139 666Q139 585 152
503T193 343T260 199T354 81T475 2T623 -27Q729 -27 805 10T933 106T1015 236T1061 375L1081 371Z" />
<glyph unicode="D" glyph-name="D" horiz-adv-x="1444" d="M627 350Q627 376 627 405T629 467Q595 456 556 450T473 444Q354 444 266 483T118 587T30 739T0 920Q0 1018 29 1102T108 1257T228 1381T378 1473T545 1530T721 1550Q877 1550 1004 1502T1221 1362T1360
1134T1409 823Q1409 745 1398 650T1361 458T1296 270T1199 107T1066 -8T895 -51Q832 -51 779 -30T680 12Q660 -31 623 -55T537 -80Q522 -80 504 -75T469 -60T443 -35T432 2Q432 23 442 38T468 64T506 80T551 86Q573 86 594 83T637 74V92Q637 142 632 205T627 350ZM729
852Q712 780 704 694T690 522Q732 535 760 549T811 580L817 569Q799 552 767 531T690 489Q688 452 688 419T688 354Q688 311 689 278T693 217T696 163T698 109Q698 95 697 83T694 59Q744 42 792 26T895 10Q984 10 1052 42T1170 130T1253 259T1306 414T1334 581T1343
745Q1343 905 1301 1042T1177 1281T975 1439T698 1497Q550 1497 431 1458T227 1345T97 1161T51 911Q51 824 86 748T181 616T316 528T473 496Q567 496 629 508Q634 579 642 659T670 831Q672 844 674 858T676 874Q676 884 676 894T684 905Q689 905 697 899T712 885T724
867T729 852ZM549 -33Q590 -33 608 -13T633 35Q611 43 592 48T553 53Q524 53 501 43T477 10Q477 -10 498 -21T549 -33Z" />
<glyph unicode="E" glyph-name="E" horiz-adv-x="1061" d="M1137 299Q1126 282 1103 249T1045 174T967 89T869 10T756 -49T631 -72Q529 -72 471 -15T410 158Q312 171 236 214T108 323T28 476T0 664Q0 773 36 878T137 1077T289 1250T479 1386T693 1476T920 1509Q968
1509 1024 1498T1130 1459T1212 1385T1245 1270Q1245 1217 1212 1152T1110 1028L1102 1036Q1150 1086 1169 1137T1188 1247Q1188 1302 1160 1339T1089 1400T999 1432T909 1442Q798 1442 690 1415T486 1337T307 1217T165 1062T71 879T37 676Q37 593 65 518T145 381T265
278T416 219Q426 263 448 302T501 370T569 417T647 434Q691 434 720 411T750 336Q750 287 726 252T665 195T582 163T494 152Q481 152 469 152T446 154Q449 118 466 89T509 39T570 7T641 -4Q774 -4 898 75T1124 307L1137 299ZM643 381Q601 381 568 368T511 333T472
280T451 213Q465 211 478 211T506 211Q540 211 578 217T647 238T698 274T719 326Q719 341 712 351T694 368T670 378T643 381Z" />
<glyph unicode="F" glyph-name="F" horiz-adv-x="1108" d="M838 389Q843 389 867 389T919 388T967 382T989 369Q989 342 967 342Q926 344 890 344T819 344Q817 340 817 334Q802 261 783 191T734 65T658 -25T545 -59Q495 -59 457 -40T391 9T345 72T317 135L330
141Q348 98 369 69T413 23T460 -2T510 -10Q564 -10 601 8T665 67T713 176T754 344Q688 344 622 340T479 328Q467 328 452 325T434 322Q424 322 424 334Q424 346 438 361T479 377Q495 377 523 378T587 381T668 384T762 387Q773 441 784 501T807 633Q833 786 870
929T961 1188Q932 1188 892 1190T807 1196T714 1201T621 1204Q499 1204 391 1172T202 1073T73 908T25 674Q25 619 31 577T48 503T71 449T96 412L84 399Q71 414 56 439T29 500T8 582T0 688Q0 816 48 923T179 1106T374 1225T614 1268Q666 1268 717 1265T813 1257T898
1249T965 1245H989Q1015 1295 1044 1335T1106 1405T1175 1450T1251 1466Q1308 1466 1331 1443T1354 1391Q1354 1357 1328 1323T1256 1260T1145 1212T1004 1188Q972 1109 948 1011T903 808T864 595T827 389H838ZM1223 1411Q1160 1411 1113 1366T1028 1245Q1112 1249
1164 1263T1246 1296T1286 1335T1296 1370Q1296 1390 1276 1400T1223 1411Z" />
<glyph unicode="G" glyph-name="G" horiz-adv-x="893" d="M494 -354Q521 -353 543 -340T581 -300T607 -231T616 -129Q616 -92 611 -35T600 94Q558 51 503 26T373 0Q304 0 247 21T148 88T84 201T61 365Q61 465 90 568T170 772T292 966T443 1144T614 1297T794 1417T973
1494T1139 1522Q1182 1522 1229 1511T1315 1470T1379 1391T1405 1264Q1405 1211 1372 1146T1270 1022L1262 1030Q1310 1080 1329 1131T1348 1241Q1348 1292 1329 1333T1280 1402T1213 1446T1139 1462Q1017 1462 895 1416T659 1289T448 1102T278 871T165 617T123
358Q123 306 138 253T187 156T274 86T401 59Q476 59 521 77T598 127Q590 217 584 315T578 510Q578 557 578 608T581 710T590 806T608 885T636 940T678 961Q716 961 734 894T752 686Q752 605 742 503T705 295Q688 229 657 174Q664 93 670 24T676 -88Q676 -140 661
-199T616 -307T543 -389T444 -422Q426 -422 411 -417T385 -403T368 -386T362 -369Q362 -361 366 -351T377 -332T390 -317T401 -311Q406 -311 407 -314T408 -322T410 -332T416 -340Q427 -346 442 -351T494 -354ZM639 516Q639 448 643 373T653 223Q658 236 662 248T672
274Q697 347 702 434T707 616Q707 685 704 740T695 833T680 892T659 913Q648 913 643 890T635 830T632 748T634 659T637 577T639 516Z" />
<glyph unicode="H" glyph-name="H" horiz-adv-x="1008" d="M920 369Q943 369 960 368T977 356Q977 338 965 330T934 319T892 316T846 317H823V209Q823 145 825 101T833 24T844 -33T858 -82Q864 -88 864 -92Q864 -101 848 -110T815 -119Q803 -119 797 -114T786
-92Q779 -70 774 -34T766 42T762 118T760 178Q760 212 760 247T762 317Q649 317 550 320T352 324H313Q308 228 290 135T237 -44T149 -203T18 -332L2 -319Q72 -267 119 -191T194 -29T235 148T248 322Q195 322 142 319T31 311Q18 309 4 307T-14 305Q-25 305 -25 317Q-25
340 -11 352T33 369T107 374T211 375H248Q246 504 238 623T219 863T201 1109T193 1378Q193 1395 194 1416T199 1456T206 1488T215 1501Q220 1501 231 1496T253 1482T272 1465T281 1450Q281 1447 279 1441T274 1423T269 1393T266 1346Q266 1251 269 1176T278 1035T290
905T302 769T311 609T315 410V375Q421 373 537 371T762 369Q765 487 771 608T784 841T798 1053T811 1227T821 1349T825 1401Q825 1410 821 1426T817 1456Q817 1459 824 1461T840 1466T859 1469T872 1470Q885 1470 894 1455T903 1427Q903 1389 898 1330T886 1193T869
1023T851 824T835 605T825 369H920Z" />
<glyph unicode="I" glyph-name="I" horiz-adv-x="872" d="M653 43Q638 46 624 49T594 55Q560 6 511 -21T393 -49Q350 -49 331 -35T311 0Q311 14 323 28T359 53T417 72T494 80Q509 80 524 79T553 76Q591 137 610 229T638 430T651 659T660 894T679 1114T721 1296Q654
1289 579 1282T431 1258T292 1214T174 1138T93 1020T63 848Q63 806 75 765T111 692T171 641T256 621Q299 621 330 633T384 662T422 697T449 729L459 723Q450 708 432 681T386 627T320 581T231 561Q174 561 131 583T59 642T15 722T0 811Q0 919 36 998T133 1134T272
1228T434 1290T598 1328T748 1354Q777 1406 819 1435T922 1464Q940 1464 957 1450T975 1407Q975 1380 960 1362T916 1332T851 1313T768 1300Q745 1228 737 1128T724 914T718 679T704 446T671 236T604 70Q617 67 630 64T657 57L653 43ZM489 10Q503 20 516 32T541
59Q531 61 522 61T502 61Q464 61 440 57T401 46T381 31T375 14Q375 3 384 -3T416 -10Q433 -10 451 -6T489 10ZM915 1432Q875 1432 845 1416T793 1362Q856 1373 895 1385T934 1421Q934 1429 927 1430T915 1432Z" />
<glyph unicode="J" glyph-name="J" horiz-adv-x="807" d="M82 -92Q87 -123 100 -155T137 -213T194 -257T276 -274Q348 -274 396 -230T476 -110T526 67T555 285Q518 272 477 264T391 256Q307 256 235 279T111 347T30 457T0 608Q0 704 31 781T113 921T232 1032T373
1120T519 1189T657 1245Q688 1336 737 1390T864 1444Q872 1444 883 1442T904 1434T922 1415T930 1382Q930 1349 911 1323T859 1276T781 1235T684 1198Q672 1116 666 1015T656 804T645 577T629 350Q692 378 734 415T811 483L825 469Q813 457 795 439T751 400T694
357T625 315Q611 185 587 70T520 -133T413 -271T256 -322Q213 -322 170 -307T93 -265T38 -198T16 -109Q16 -97 22 -88T37 -72T58 -61T82 -57Q90 -57 90 -66Q90 -71 86 -77T82 -92ZM416 309Q496 309 559 326Q568 435 573 551T586 779T606 994T639 1184Q576 1163
509 1140T378 1087T257 1019T156 931T88 817T63 670Q63 592 79 535T122 438T185 373T260 333T340 314T416 309ZM842 1397Q819 1397 797 1390T756 1366T721 1325T696 1262Q733 1277 764 1291T818 1319T853 1347T866 1376Q866 1382 860 1389T842 1397Z" />
<glyph unicode="K" glyph-name="K" horiz-adv-x="848" d="M184 2Q184 -4 185 -12T186 -28T181 -41T166 -47Q150 -47 142 -41T131 -18Q128 14 124 50T117 125Q95 100 80 94T51 88Q28 88 14 102T0 137Q0 154 9 169T34 195T69 212T109 219Q101 322 96 437T90 676Q90
755 90 826T92 975T99 1144T113 1354Q115 1365 116 1377T117 1391Q117 1399 116 1407T123 1415Q128 1415 139 1413T161 1407T180 1398T188 1389Q178 1247 172 1140T163 951T159 804T158 682Q158 639 158 587T160 476T163 357T168 236Q211 297 266 385T388 578T530
794T686 1014T852 1218T1025 1388T1199 1505T1370 1548Q1412 1548 1444 1535T1499 1501T1532 1450T1544 1389Q1544 1344 1527 1302T1489 1226T1448 1171T1423 1145L1411 1153Q1421 1165 1433 1180T1457 1217T1475 1271T1483 1348Q1483 1375 1474 1399T1447 1441T1406
1469T1350 1479Q1276 1479 1197 1439T1036 1331T874 1171T714 978T560 767T417 558T290 366T182 209Q227 197 267 174T344 122T417 65T489 12T563 -27T643 -43Q680 -43 705 -30T747 3T774 46T793 88L807 82Q802 70 796 52T779 14T754 -27T720 -64T675 -91T616 -102Q567
-102 524 -87T443 -47T369 9T301 70T236 126T172 168Q174 123 176 81T184 2ZM63 137Q76 137 88 143T115 166Q113 171 113 175T113 184Q110 184 107 185T100 186Q66 186 55 175T43 154Q43 137 63 137Z" />
<glyph unicode="L" glyph-name="L" horiz-adv-x="750" d="M954 954Q984 974 1011 1002T1059 1064T1092 1138T1104 1221Q1104 1286 1076 1338T998 1427T885 1483T748 1503Q658 1503 573 1479T413 1410T276 1304T168 1167T97 1006T72 827Q72 763 83 704T110 588T145
476T181 364T208 250T219 131Q219 116 218 101T211 72Q245 59 278 42T344 9T408 -18T469 -29Q500 -29 522 -21T561 4T588 41T608 88L629 84Q598 -8 552 -46T440 -84Q403 -84 370 -74T306 -48T247 -14T193 18Q174 -17 144 -42T74 -68Q39 -68 20 -48T0 -6Q0 15 10
33T36 64T73 84T115 92Q148 92 184 80Q184 86 185 91T186 102Q186 155 173 209T139 319T94 432T50 549T16 669T2 795Q2 894 31 989T114 1169T239 1327T398 1451T581 1533T778 1563Q872 1563 943 1539T1063 1473T1135 1374T1159 1251Q1159 1200 1144 1157T1103 1075T1042
1004T965 942L954 954ZM94 -14Q120 -14 137 -1T166 33Q147 42 129 48T94 55Q71 55 60 43T49 18Q49 4 60 -5T94 -14Z" />
<glyph unicode="M" glyph-name="M" horiz-adv-x="1675" d="M1679 158Q1676 147 1665 123T1638 67T1600 3T1556 -58T1508 -103T1460 -121Q1425 -121 1401 -89T1361 -9T1340 96T1333 203Q1333 358 1353 509T1405 810T1479 1105T1563 1397Q1542 1397 1505 1347T1419
1215T1315 1027T1202 810T1089 590T985 393Q980 384 972 371T954 345T930 324T903 315Q888 315 882 325T874 352Q869 411 865 485T857 637T847 790T836 928T822 1034T803 1092Q803 1084 804 1074Q804 1066 804 1054T805 1028Q805 978 795 905T765 747T716 569T647
387T560 218T454 77T330 -19T188 -55Q137 -55 103 -36T48 11T16 68T0 117L10 121Q22 92 43 73T89 43T143 28T201 23Q267 23 327 53T439 136T537 259T620 410T686 575T734 744T763 903T772 1040Q772 1054 770 1072T766 1106Q767 1110 770 1117T780 1131T794 1142T815
1147Q843 1147 861 1107T891 1002T908 855T918 687T925 522T934 383Q940 383 957 414T1002 497T1064 620T1138 770T1221 933T1308 1096T1395 1245T1477 1368T1550 1452T1610 1483Q1618 1478 1626 1472T1634 1456Q1597 1321 1556 1170T1481 859T1424 538T1401 219Q1401
181 1407 136T1425 51T1454 -14T1493 -41Q1512 -41 1538 -17T1590 39T1637 106T1669 162L1679 158Z" />
<glyph unicode="N" glyph-name="N" horiz-adv-x="1305" d="M2075 1411Q2055 1441 2033 1470T1980 1524T1907 1562T1806 1577Q1701 1577 1618 1526T1471 1388T1360 1185T1279 940T1222 675T1184 414T1159 178T1141 -10Q1136 -26 1119 -38T1090 -51Q1076 -51 1073
-25Q1065 30 1055 106T1031 268T999 446T957 626T900 792T827 932Q807 861 780 774T721 593T650 401T569 212T481 42T387 -97T288 -190T186 -225Q138 -225 105 -207T49 -166T16 -120T0 -90L8 -84Q17 -94 30 -106T65 -130T116 -148T188 -156Q243 -156 295 -121T395
-25T488 116T571 287T644 473T708 659T759 830T799 971Q761 1019 713 1046T608 1073Q558 1073 519 1057T454 1015T413 953T399 881Q399 841 411 810T440 755T476 715T510 690L502 680Q492 685 469 702T422 746T380 811T362 893Q362 954 383 998T439 1072T517 1115T606
1130Q669 1130 721 1106T817 1038Q820 1048 823 1058T829 1075Q834 1090 841 1097T856 1108T868 1111T874 1112Q871 1095 864 1068T848 1006Q893 950 928 877T990 721T1036 553T1070 386T1094 234T1114 111Q1122 195 1135 306T1167 541T1213 796T1279 1049T1367
1282T1481 1474T1624 1603T1802 1651Q1849 1651 1887 1638T1954 1604T2005 1557T2042 1505T2068 1455T2083 1415L2075 1411Z" />
<glyph unicode="O" glyph-name="O" horiz-adv-x="1174" d="M602 -4Q685 -4 752 25T872 103T964 216T1028 353T1065 499T1077 641Q1077 744 1063 843T1024 1032Q1024 1034 1017 1036T1010 1047Q1010 1052 1015 1060T1029 1075T1047 1088T1065 1094Q1074 1094 1082
1075T1097 1025T1109 955T1119 875T1126 796T1128 729Q1128 652 1116 563T1076 384T1007 213T903 67T762 -34T580 -72Q492 -72 421 -42T293 40T197 163T130 316T91 488T78 668Q78 766 96 868T149 1066T238 1248T363 1396T525 1497T723 1534Q803 1534 862 1507T960
1436T1018 1339T1038 1235Q1038 1175 1015 1120T938 1014L926 1030Q963 1067 974 1110T985 1196Q985 1249 962 1298T897 1385T802 1445T686 1468Q585 1468 506 1434T365 1342T261 1208T190 1048T150 876T137 709Q137 639 148 559T182 399T242 247T330 119T449 30T602
-4Z" />
<glyph unicode="P" glyph-name="P" horiz-adv-x="1153" d="M334 1372Q334 1380 336 1386T346 1397Q352 1400 361 1405T379 1411Q384 1411 388 1409T393 1401Q395 1364 394 1278T387 1075Q448 1169 515 1250T652 1392T789 1486T922 1520Q970 1520 1008 1506T1075
1458T1118 1369T1133 1231Q1133 1159 1114 1072T1061 895T978 721T872 572T747 468T608 428Q558 428 523 445T462 490T421 551T396 619T384 681T379 729L399 733Q425 611 476 552T621 492Q696 492 758 526T870 616T956 745T1017 894T1053 1046T1065 1182Q1065 1229
1057 1275T1030 1359T979 1419T899 1442Q834 1442 767 1411T633 1325T504 1193T385 1026Q380 915 372 790T352 542T323 307T284 108T233 -29T170 -80Q135 -80 116 -50T88 24T76 115T74 197Q74 279 92 373T143 568T221 769T322 967Q328 1085 331 1191T334 1372ZM174
6Q191 6 206 43T236 146T262 300T284 488T303 696T317 909Q275 825 241 736T181 555T143 374T129 197Q129 161 132 127T141 65T155 22T174 6Z" />
<glyph unicode="Q" glyph-name="Q" horiz-adv-x="981" d="M989 143Q986 134 975 113T946 64T904 8T849 -45T782 -84T705 -100Q672 -100 635 -89T559 -60T482 -23T408 12Q367 -12 332 -25T270 -39Q257 -39 244 -37T220 -28T202 -13T195 12Q195 28 204 42T231 67T272
84T324 90Q350 90 377 84T432 66Q495 111 565 179T705 331T837 510T948 703T1024 899T1053 1085Q1053 1159 1030 1217T967 1317T872 1379T754 1401Q658 1401 569 1380T400 1323T256 1236T144 1129T71 1008T45 881Q45 833 55 795T80 729T115 682T152 651L145 643Q118
657 92 679T46 730T13 797T0 877Q0 948 33 1020T123 1158T256 1281T418 1380T595 1446T774 1470Q845 1470 908 1451T1020 1388T1096 1276T1124 1108Q1124 1022 1094 925T1014 727T897 529T757 342T607 179T463 53Q495 38 527 22T592 -7T656 -30T719 -39Q786 -39
830 -18T904 34T951 96T981 150L989 143ZM272 -6Q292 -6 318 2T373 27Q333 43 305 43Q273 43 255 35T236 12Q236 1 248 -2T272 -6Z" />
<glyph unicode="R" glyph-name="R" horiz-adv-x="1300" d="M1227 37Q1221 25 1200 1T1149 -48T1079 -91T995 -109Q939 -109 889 -77T793 2T707 103T629 201Q613 198 597 198T565 197Q536 197 512 200T471 213Q466 156 462 99T451 -16Q451 -30 440 -36T414 -43Q403
-43 394 -39T385 -29Q385 -22 395 -14Q417 326 429 669T453 1364Q364 1335 285 1292T146 1192T51 1068T16 926Q16 901 21 880T35 843T51 815T66 797L53 788Q48 794 39 806T22 838T7 882T0 938Q0 1026 37 1102T138 1241T283 1350T455 1430Q457 1464 458 1498T461
1567Q461 1576 474 1580T500 1585Q511 1585 519 1582T528 1573Q528 1569 524 1565Q522 1536 521 1507T518 1450Q646 1485 760 1485Q863 1485 955 1457T1118 1370T1229 1218T1270 995Q1270 916 1249 833T1190 669T1099 515T981 381T842 276T688 211Q727 172 764
127T842 43T927 -21T1028 -47Q1058 -47 1088 -39T1145 -19T1191 10T1221 41L1227 37ZM516 1380Q507 1114 502 848T477 305Q482 307 488 308T502 309Q548 309 587 290T662 238Q741 253 811 289T942 377T1050 495T1132 633T1184 783T1202 938Q1202 1039 1177 1125T1097
1275T954 1373T739 1409Q629 1409 516 1380ZM565 229Q575 229 584 229T602 231Q579 254 558 269T518 285Q500 285 490 278T479 260Q479 246 504 238T565 229Z" />
<glyph unicode="S" glyph-name="S" horiz-adv-x="946" d="M528 -74Q510 -74 495 -69T469 -55T452 -38T446 -20Q446 -13 450 -3T461 16T474 31T485 37Q490 37 491 34T492 26T494 16T500 8Q511 2 526 -2T578 -6Q624 -6 664 8T735 47T783 105T801 176Q801 228 769
259T683 309T561 341T421 367T282 404T160 466T74 566T41 719Q41 822 83 915T196 1089T359 1233T551 1342T752 1411T942 1436Q1084 1436 1158 1386T1233 1235Q1233 1190 1212 1149T1165 1076T1116 1022T1087 995L1081 1004Q1082 1005 1099 1023T1135 1069T1170
1131T1186 1200Q1186 1281 1119 1320T924 1360Q792 1360 678 1329T470 1247T302 1128T178 990T101 849T74 721Q74 643 107 594T194 513T316 464T457 434T597 408T720 371T807 309T840 207Q840 149 822 106T774 32T710 -19T639 -52T575 -69T528 -74Z" />
<glyph unicode="T" glyph-name="T" horiz-adv-x="1294" d="M1632 1348Q1641 1342 1653 1333T1676 1309T1696 1277T1704 1237Q1704 1211 1695 1187T1667 1145T1617 1117T1544 1106Q1492 1106 1441 1116T1337 1142T1231 1180T1122 1223Q1119 886 1101 575T1042 -31Q1030
-65 1019 -78T997 -92Q989 -92 985 -86T981 -70V-63Q999 82 1008 221T1023 499T1031 779T1038 1071Q1040 1121 1041 1164T1042 1253Q962 1281 875 1301T690 1321Q549 1321 431 1295T228 1209T96 1056T49 825Q49 775 64 723T113 629T203 559T340 532Q410 532 459
552T542 602T597 662T633 717L647 709Q640 695 628 673T596 624T549 571T487 522T407 487T309 473Q240 473 183 497T86 566T23 674T0 815Q0 910 27 990T103 1134T218 1246T360 1327T520 1376T688 1393Q788 1393 876 1374T1044 1327V1436Q1044 1450 1050 1460T1065
1477T1086 1487T1106 1491Q1114 1491 1119 1488T1124 1479V1298Q1182 1276 1237 1254T1348 1214T1458 1185T1571 1174Q1590 1174 1609 1179T1644 1193T1669 1218T1679 1253Q1679 1285 1662 1304T1626 1337L1632 1348Z" />
<glyph unicode="U" glyph-name="U" horiz-adv-x="1348" d="M1286 285Q1272 263 1248 227T1188 147Q1194 109 1201 75T1219 12H1223Q1227 12 1227 8Q1227 3 1222 -5T1208 -22T1189 -36T1169 -43Q1157 -43 1145 -11T1120 78Q1085 45 1045 15T957 -39T858 -76T748
-90Q694 -90 639 -73T538 -15T465 92T436 256Q436 320 449 391T483 539T526 694T569 852T602 1008T616 1159Q616 1205 605 1243T571 1309T513 1352T430 1368Q387 1368 341 1355T251 1317T167 1261T98 1192T51 1115T33 1034Q33 1016 43 998T78 979Q96 979 113 988T141
1014L152 1008Q146 996 139 983T121 958T98 939T66 932Q46 932 34 939T14 959T3 985T0 1014Q0 1061 21 1110T78 1206T160 1294T257 1367T359 1416T455 1434Q498 1434 540 1420T614 1375T666 1299T686 1188Q686 1116 673 1040T641 886T599 727T557 567T525 407T512
252Q512 195 528 145T578 56T660 -5T774 -27Q831 -27 880 -17T972 12T1050 53T1116 104Q1108 150 1101 204T1088 317T1080 434T1077 549Q1077 784 1101 943T1166 1200T1258 1340T1364 1382Q1389 1382 1407 1372T1438 1345T1461 1311T1479 1276L1466 1268Q1446 1288
1423 1302T1362 1317Q1281 1317 1238 1259T1174 1097T1151 851T1147 541Q1147 457 1156 361T1182 174Q1211 209 1233 241T1272 295L1286 285Z" />
<glyph unicode="V" glyph-name="V" horiz-adv-x="831" d="M1348 1325Q1354 1344 1360 1370T1366 1430Q1366 1472 1342 1497T1266 1522Q1181 1522 1109 1479T976 1360T865 1181T774 960T701 713T645 456T602 206T571 -20Q570 -27 570 -37T566 -59T555 -82T532 -100Q495
-121 492 -96Q485 -30 477 53T456 228T428 414T392 597T347 764T292 900T225 992T145 1026Q96 1026 64 999T31 920Q31 889 42 867T76 825L72 821Q35 838 18 870T0 936Q0 966 11 992T44 1038T93 1069T156 1081Q209 1081 252 1046T330 951T392 812T441 647T477 471T504
300T524 150T539 39Q555 143 575 264T623 514T684 771T760 1019T855 1241T969 1421T1106 1541T1268 1585Q1294 1585 1318 1577T1362 1553T1393 1513T1405 1456Q1405 1434 1399 1412T1384 1372T1367 1340T1354 1321L1348 1325Z" />
<glyph unicode="W" glyph-name="W" horiz-adv-x="1374" d="M393 68Q421 88 471 136T582 251T707 396T829 555Q824 605 823 646T821 719Q821 776 831 828T862 919T913 981T985 1004Q1017 1004 1033 982T1049 922Q1049 892 1037 854T1004 773T954 682T891 584Q898
498 909 404T936 221T970 53T1010 -80Q1043 60 1079 204T1155 489T1242 763T1343 1013T1461 1229T1598 1398T1758 1508T1946 1548Q2005 1548 2049 1528T2124 1477T2174 1409T2202 1339L2193 1333Q2185 1343 2169 1368T2124 1418T2050 1463T1939 1483Q1823 1483
1727 1432T1549 1283T1399 1047T1269 731T1153 344T1042 -104Q1040 -114 1032 -124T1013 -143T993 -156T979 -162Q974 -162 971 -161T966 -157T962 -148T954 -131Q933 -81 915 -6T881 156T853 334T834 506Q787 443 736 382T635 266T539 163T456 80T392 26T354 6Q346
6 342 13T336 29T333 47T332 59Q332 147 344 233T371 406T398 578T410 752Q410 781 403 811T378 867T328 908T248 924Q203 924 164 908T97 864T52 803T35 731Q35 685 60 650T125 606L123 598Q102 602 80 615T40 649T11 694T0 748Q0 802 27 845T96 918T185 963T274
979Q316 979 352 966T414 926T456 855T471 752Q471 675 459 591T432 418T405 242T393 68ZM883 762Q883 734 883 704T887 641Q932 713 960 778T989 891Q989 898 988 907T983 924T973 938T958 944Q931 944 916 925T893 877T885 817T883 762Z" />
<glyph unicode="X" glyph-name="X" horiz-adv-x="1153" d="M1925 1290Q1915 1299 1896 1315T1849 1348T1782 1377T1694 1389Q1609 1389 1530 1341T1374 1211T1226 1019T1085 788T949 537T817 287Q826 215 836 155T862 50T897 -18T946 -43Q968 -43 991 -31T1036
-4T1074 25T1098 45L1102 43Q1098 36 1088 22T1061 -9T1027 -44T988 -77T949 -101T913 -111Q881 -111 858 -89T817 -27T787 68T766 190Q710 91 656 6T548 -143T441 -243T334 -279Q295 -279 263 -261T207 -217T167 -167T141 -129L150 -121Q164 -136 181 -151T220
-180T272 -202T340 -211Q391 -211 442 -175T544 -77T649 71T756 254Q744 354 733 465T705 686T663 895T598 1071T498 1192T356 1237Q275 1237 220 1207T129 1129T79 1022T63 905Q63 854 73 814T101 744T140 693T186 662L180 649Q146 655 114 675T57 726T16 798T0
891Q0 976 34 1050T122 1180T245 1266T381 1298Q468 1298 530 1256T637 1141T709 975T757 775T788 562T811 354Q875 475 941 604T1076 855T1217 1087T1366 1279T1523 1410T1690 1458Q1743 1458 1783 1442T1853 1401T1902 1348T1931 1296L1925 1290Z" />
<glyph unicode="Y" glyph-name="Y" horiz-adv-x="788" d="M203 809Q177 812 142 821T76 851T22 909T0 1004Q0 1057 21 1097T78 1163T157 1203T246 1217Q318 1217 372 1192T466 1122T532 1020T573 897T596 765T604 633Q628 730 663 834T747 1037T855 1225T989 1382T1153
1488T1346 1528Q1387 1528 1427 1516T1498 1480T1548 1421T1567 1337Q1567 1277 1544 1229T1488 1144T1423 1084T1372 1049L1364 1059Q1381 1071 1405 1090T1452 1138T1491 1208T1507 1305Q1507 1334 1497 1363T1466 1415T1411 1453T1333 1468Q1226 1468 1137 1426T974
1313T842 1147T738 946T659 729T602 514Q600 443 597 366T589 215T578 79T565 -27Q564 -38 557 -46T539 -60T519 -69T502 -72Q496 -72 491 -68T485 -55Q489 -24 495 23T509 125T523 242T536 363T545 479T549 580Q549 636 545 701T529 830T495 955T437 1060T350
1133T227 1161Q191 1161 158 1151T99 1119T58 1067T43 993Q43 948 59 918T99 868T152 837T207 819L203 809Z" />
<glyph unicode="Z" glyph-name="Z" horiz-adv-x="1102" d="M1204 82Q1181 44 1155 7T1094 -61T1017 -110T918 -129Q839 -129 765 -110T620 -64T479 -12T338 27Q300 -4 260 -25T186 -47Q165 -47 149 -38T133 -6Q133 6 140 18T164 40T205 56T266 63Q282 63 297 62T328
61Q380 121 441 216T570 426T713 665T865 912T1024 1143T1188 1333Q1131 1333 1070 1338T943 1348T803 1359T649 1364Q521 1364 407 1337T206 1255T69 1117T18 920Q18 878 25 844T47 781T82 728T129 682L121 672Q106 682 86 703T46 755T14 824T0 907Q0 1000 27
1075T104 1210T221 1312T372 1383T546 1424T737 1438Q792 1438 852 1432T974 1420T1094 1407T1208 1401H1266Q1320 1444 1370 1469T1470 1495Q1489 1495 1501 1484T1513 1456Q1513 1430 1486 1409T1417 1373T1328 1349T1239 1335Q1186 1280 1132 1207T1024 1050T916
872T808 685T699 500T591 326T482 175T373 57Q452 48 524 30T666 -7T809 -39T961 -53Q1015 -53 1052 -38T1116 0T1160 47T1192 90L1204 82ZM209 4Q226 4 252 8T301 33Q286 35 270 36T238 37Q210 37 196 31T182 16Q182 8 190 6T209 4ZM1430 1452Q1397 1452 1372
1441T1317 1407Q1345 1410 1369 1414T1411 1423T1439 1435T1450 1448Q1450 1451 1443 1451T1430 1452Z" />
<glyph unicode="[" glyph-name="bracketleft" horiz-adv-x="799" d="M520 1413Q471 1411 425 1407Q386 1403 346 1396T279 1376Q279 1199 277 1011T271 634T265 260T262 -94Q262 -122 264 -143T275 -180T300 -203T342 -211Q384 -211 426 -208T506 -193L512 -215Q492
-222 466 -230T411 -245T353 -257T299 -262Q265 -262 244 -250T210 -218T193 -173T188 -123Q188 -59 189 24T192 203T196 403T200 615T203 828T205 1032Q205 1137 203 1230T201 1397Q201 1413 211 1420T256 1431T353 1434T520 1436V1413Z" />
<glyph unicode="\" glyph-name="backslash" horiz-adv-x="623" d="M29 1356Q107 1168 173 996T301 659T425 330T559 -4Q565 -20 554 -27T530 -35Q513 -35 510 -14Q442 155 380 314T253 637T121 975T-27 1348Q-28 1349 -28 1350Q-29 1351 -29 1354Q-29 1360 -23
1363T-8 1366Q0 1366 13 1364T29 1356Z" />
<glyph unicode="]" glyph-name="bracketright" horiz-adv-x="799" d="M238 -227Q256 -225 290 -225T359 -223T424 -215T463 -193Q464 -177 465 -123T467 12T470 194T472 407T474 633T475 856T473 1059T470 1225T463 1337T453 1378Q408 1378 357 1376T229 1362L227
1382Q256 1390 296 1399T377 1416T449 1429T496 1434Q509 1434 517 1428T530 1412T537 1392T539 1372Q539 1174 541 980T543 591T540 201T526 -195Q525 -209 525 -220T521 -238T508 -248T481 -252H240L238 -227Z" />
<glyph unicode="^" glyph-name="asciicircum" horiz-adv-x="860" d="M264 1065Q259 1060 249 1062T228 1070T210 1082T207 1094Q233 1129 274 1180T358 1290Q388 1330 405 1357T433 1402T455 1426T483 1434Q484 1434 491 1434T506 1432T520 1425T528 1411Q542
1367 561 1327T602 1247T651 1167T705 1083Q714 1068 699 1055T653 1042Q633 1065 615 1096T581 1162T549 1230T521 1290T496 1333T475 1350Q465 1350 442 1322T390 1252T327 1160T264 1065Z" />
<glyph unicode="_" glyph-name="underscore" horiz-adv-x="512" d="M268 -195Q223 -195 186 -196T115 -198T44 -200T-35 -201Q-37 -201 -39 -200T-41 -193Q-41 -187 -38 -178T-29 -161T-16 -147T-2 -141Q44 -141 81 -140T153 -138T225 -136T307 -135Q317 -135
344 -135T399 -136T449 -139T471 -145Q471 -150 468 -159T459 -178T449 -194T438 -201Q392 -198 354 -197T268 -195Z" />
<glyph unicode="`" glyph-name="grave" horiz-adv-x="614" d="M213 680Q203 680 203 688Q203 694 207 703T217 720T230 733T244 739Q248 739 250 737Q272 713 291 690T330 645T368 602T410 561Q412 559 412 551Q412 542 405 532T389 522Q381 522 379 526Q339 573
293 611T213 680Z" />
<glyph unicode="a" glyph-name="a" horiz-adv-x="514" d="M371 346Q362 346 355 356T335 379T305 401T256 412Q214 412 178 391T116 337T76 266T61 193Q61 140 88 106T160 72Q195 72 221 85T266 121Q260 148 260 188Q260 231 266 258T282 300T302 320T319 326Q327
326 337 315T348 276Q348 241 336 203T301 129Q313 98 338 84T395 70Q423 70 447 82T493 116T534 164T569 221L575 217Q563 179 543 143T497 79T441 35T377 18Q352 18 323 34T274 94Q243 57 203 33T117 8Q91 8 70 20T35 52T12 99T4 156Q4 207 26 258T86 350T172
416T274 442Q313 442 339 434T382 414T405 390T412 371Q412 357 398 352T371 346ZM287 213Q287 180 293 156Q308 184 315 213T322 264Q322 289 313 289Q304 289 296 267T287 213Z" />
<glyph unicode="b" glyph-name="b" horiz-adv-x="516" d="M184 8Q150 8 124 14T79 37T51 82T41 152Q41 178 44 236T51 385T58 595T61 864Q61 937 61 1004T59 1124T58 1209T57 1245Q57 1253 59 1259T70 1270Q76 1273 84 1278T102 1284Q113 1284 119 1278Q125 1273
128 1260T134 1214T136 1124T137 975Q137 891 133 801T124 624T112 457T100 313T90 207T86 152Q86 127 96 107T122 71T160 48T203 39Q245 39 280 60T342 114T382 185T397 258Q397 311 371 345T299 379Q255 379 225 358T175 307T146 244T137 186Q137 177 137 173T141
156Q144 143 140 138T130 135T117 147T111 174Q111 216 129 263T178 349T251 415T342 442Q368 442 389 431T424 399T447 352T455 295Q455 244 433 193T373 101T286 34T184 8Z" />
<glyph unicode="c" glyph-name="c" horiz-adv-x="436" d="M266 449Q281 449 297 445T326 434T347 415T356 389Q356 357 337 333T294 292Q267 273 233 258L227 268Q245 278 259 291Q271 302 281 318T291 356Q291 376 273 393T223 410Q191 410 166 394T122 351T94
291T84 223Q84 194 92 168T118 121T162 90T227 78Q264 78 292 87T339 108Q361 121 377 139L385 133Q365 101 337 76Q312 55 275 38T186 20Q158 20 129 29T75 58T36 108T20 180Q20 233 38 282T90 368T168 427T266 449Z" />
<glyph unicode="d" glyph-name="d" horiz-adv-x="602" d="M295 432Q292 461 292 492T291 557Q291 629 294 708T305 865T324 1012T351 1135T387 1219T432 1251Q470 1251 488 1184T506 977Q506 895 496 794T459 586Q437 495 418 427T381 307Q390 259 403 216T434
141T472 91T518 72Q539 72 560 89T599 129T632 176T655 215L664 211Q664 211 659 197T644 162T620 115T587 69T547 33T500 18Q446 18 405 64T336 197Q322 165 301 135T254 81T197 43T131 29Q105 29 82 38T41 64T14 106T4 160Q4 211 27 259T89 346T178 408T285 432H295ZM414
1204Q403 1204 395 1176T379 1100T367 992T359 867T354 741T352 627Q352 568 357 499T373 360Q388 408 404 468T432 598T453 745T461 907Q461 976 458 1031T450 1124T435 1183T414 1204ZM170 90Q201 90 225 103T268 137T301 183T326 231Q316 267 310 305T299 387Q284
393 266 393Q214 393 177 377T115 334T80 276T68 213Q68 160 96 125T170 90Z" />
<glyph unicode="e" glyph-name="e" horiz-adv-x="446" d="M317 494Q330 491 330 477Q330 473 328 467T322 454T314 443T307 438Q302 438 295 441T275 449T241 457T186 461Q138 461 106 443T74 393Q74 370 93 355T139 330T193 317T236 313Q247 313 250 310T254
303Q254 295 248 294T231 289Q205 280 178 267T129 235T92 193T78 143Q78 98 114 69T217 39Q292 39 342 61T424 114T475 174T502 221L508 217Q491 168 465 126T401 54T313 6T199 -12Q160 -12 127 -3T70 24T33 66T20 123Q20 160 37 187T76 231T119 258T150 272Q119
277 95 289Q75 300 58 319T41 373Q41 404 56 429T96 472T155 498T227 508Q249 508 271 505T317 494Z" />
<glyph unicode="f" glyph-name="f" horiz-adv-x="338" d="M139 -741Q112 -741 91 -729T55 -684T33 -598T25 -461Q25 -281 25 -149T25 81T26 246T26 366T27 462T27 553Q27 629 33 711T51 872T84 1022T132 1147T197 1232T281 1264Q299 1264 317 1253T349 1218T372
1159T381 1077Q381 995 364 910T318 743T256 586T190 449T131 342T90 276Q90 273 90 269T89 255T89 229T90 184Q93 155 103 133T129 95T163 71T201 63Q241 63 271 79T326 121T368 178T401 240L408 236Q399 213 383 176T341 104T279 44T195 18Q181 18 165 20T131
33Q156 -30 177 -90T213 -215T237 -349T246 -504Q246 -557 238 -600T215 -675T181 -724T139 -741ZM94 559Q94 530 94 497T92 433T91 372T90 322Q107 354 131 401T182 504T234 626T280 759T313 897T326 1034Q326 1070 323 1102T310 1159T284 1197T240 1212Q212 1212
190 1187T152 1116T125 1008T107 874T97 721T94 559ZM205 -469Q205 -390 195 -318T169 -180T132 -51T90 72V-98Q90 -170 90 -242T90 -382T93 -507T101 -608T115 -675T139 -700Q154 -700 166 -689T187 -651T200 -580T205 -469Z" />
<glyph unicode="g" glyph-name="g" horiz-adv-x="516" d="M352 440Q380 440 399 436T429 426T444 412T449 397Q449 386 439 372T420 358Q416 358 410 361T391 368T360 375T313 379Q198 379 135 329T72 190Q72 175 78 157T98 124T133 99T186 88Q245 88 286 110T356
160Q356 165 357 169T360 178Q367 212 378 241T403 292T429 326T451 338Q462 338 463 331T465 319Q465 301 445 260T389 172Q381 124 373 51T358 -116T347 -322T342 -561Q342 -666 346 -763T354 -936T363 -1057T367 -1108Q367 -1122 365 -1129T354 -1145Q348 -1151
340 -1158T322 -1165Q310 -1165 305 -1157Q299 -1150 292 -1128T280 -1055T270 -914T266 -682Q266 -556 274 -439T294 -218T322 -27T350 127Q308 85 258 56T150 27Q124 27 100 34T57 58T27 98T16 154Q16 197 40 247T109 340T216 411T352 440ZM408 248Q404 243 401
233T395 209Q399 214 402 217T407 224Q409 228 410 231Q414 245 416 253Q418 260 417 260T408 248Z" />
<glyph unicode="h" glyph-name="h" horiz-adv-x="434" d="M41 152Q41 178 44 236T51 385T58 595T61 864Q61 937 61 1004T59 1124T58 1209T57 1245Q57 1253 59 1259T70 1270Q76 1273 84 1278T102 1284Q113 1284 119 1278Q125 1273 128 1260T134 1214T136 1124T137
975Q137 891 133 801T124 624T112 457T100 313T90 207T86 152Q86 147 86 140T87 127T90 116T96 111Q106 111 117 143T145 229Q156 263 170 298T199 361T231 408T264 426Q276 426 284 419T299 402T308 379T313 356Q314 344 316 320T320 265T324 200T330 135Q335
79 357 54T414 29Q428 29 436 31T451 33Q456 33 453 23Q451 19 436 10T383 0Q351 0 330 10T296 43T277 102T268 190Q266 219 265 250T260 308T250 350T233 367Q224 367 213 347T192 299T172 244T158 201Q154 189 146 161T127 104T103 53T76 31Q64 31 57 44T47 77T42
117T41 152Z" />
<glyph unicode="i" glyph-name="i" horiz-adv-x="260" d="M68 416Q76 416 83 412T96 402T105 392T109 385Q109 384 107 375T101 343T95 286T92 197Q92 126 109 98T152 70Q177 70 201 85T248 124T289 178T324 240L330 236Q326 226 318 206T298 161T270 112T232
66T185 32T129 18Q108 18 91 26T60 55T39 115T31 213Q31 244 33 279T40 345T52 396T68 416ZM92 664Q117 664 128 647T139 604Q139 575 123 559T84 543Q67 543 51 556T35 598Q35 630 51 647T92 664Z" />
<glyph unicode="j" glyph-name="j" horiz-adv-x="262" d="M-203 -772Q-203 -671 -183 -594T-129 -450T-50 -324T47 -197Q45 -149 44 -105T41 -13T38 90T37 215Q37 235 38 271T40 342T42 405T43 436Q43 446 46 453T53 463Q56 467 63 473T78 486T94 497T104 502Q111
502 112 498T113 492Q113 490 112 469T108 409T104 319T102 205Q102 143 102 96T104 12T107 -55T111 -115Q156 -53 201 19T291 184L305 170Q259 67 210 -10T113 -152Q115 -192 116 -239T117 -358Q117 -509 101 -622T57 -811T-5 -925T-78 -963Q-102 -963 -125 -951T-165
-914T-192 -855T-203 -772ZM51 -389Q51 -344 50 -307T49 -236Q8 -290 -27 -341T-88 -450T-130 -576T-145 -731Q-145 -760 -140 -793T-124 -854T-95 -900T-51 -918Q-31 -918 -15 -897T12 -838T30 -749T42 -639T49 -517T51 -389ZM94 721Q117 721 131 705T145 657Q145
622 129 606T90 590Q75 590 59 603T43 651Q43 683 58 702T94 721Z" />
<glyph unicode="k" glyph-name="k" horiz-adv-x="473" d="M39 23Q36 23 31 28T25 41Q25 55 31 67T49 98V205Q49 233 46 313T43 535Q43 611 49 693T67 854T100 1004T148 1128T213 1213T297 1245Q315 1245 333 1234T365 1199T388 1141T397 1059Q397 979 380 896T337
733T277 579T212 444T153 336T111 266Q109 245 109 224T109 186Q131 218 161 259T227 336T300 397T377 422Q411 422 423 409T436 373Q436 343 420 317T381 269T330 229T279 198T239 176T223 164Q223 156 240 144T280 119T320 98T340 88Q346 85 352 83T358 74Q358
72 355 65T347 51T335 39T319 33Q302 33 276 45T227 74Q203 89 188 108T172 143Q172 148 177 156T193 170Q196 171 210 180T243 202T284 232T324 267T355 304T367 338Q367 352 359 362T330 373Q316 373 301 365T269 345T236 316T205 281Q192 265 173 238T137 184T106
133T90 100Q88 92 86 80T77 54T62 32T39 23ZM106 541Q106 512 107 481T108 420T110 361T111 311Q138 361 177 440T253 614T316 813T342 1016Q342 1052 339 1084T326 1141T300 1179T256 1194Q228 1194 206 1168T167 1097T139 989T120 855T110 702T106 541Z" />
<glyph unicode="l" glyph-name="l" horiz-adv-x="344" d="M403 217Q401 210 388 180T351 115T295 53T221 25Q168 25 125 65T52 180T5 361T-12 598Q-12 670 -7 749T9 906T36 1053T76 1176T129 1260T197 1292Q252 1292 277 1225T303 1018Q303 936 291 835T250 627Q212
493 171 399T100 248Q111 209 124 177T155 122T192 85T236 72Q266 72 292 90T338 132T374 181T397 221L403 217ZM49 668Q49 626 51 578T59 479T71 379T90 283Q111 327 139 396T194 551T239 739T258 948Q258 1016 253 1072T236 1169T209 1232T170 1255Q149 1255
132 1226T102 1148T78 1038T62 911T52 783T49 668Z" />
<glyph unicode="m" glyph-name="m" horiz-adv-x="694" d="M53 512Q59 518 68 518Q86 518 96 500T106 432Q106 417 106 391T106 333T105 268T105 207T104 158T104 131Q104 109 111 109Q115 109 121 121T136 154T155 198T176 248Q194 288 208 322T235 382T264 422T301
436Q330 436 343 410T356 322Q356 298 356 264T355 197T355 140T354 111Q354 98 356 98Q358 98 362 108T373 135T388 174T406 221Q424 268 437 303T462 363T486 399T514 412Q518 412 527 411T547 404T564 388T571 358Q571 347 572 315T575 246T578 173T582 121Q583
98 591 85T607 63T622 50T629 43Q629 38 617 34T592 29Q553 29 537 53T517 119T512 217T508 338Q506 349 504 354T494 360Q487 360 478 343T459 301T439 245T418 188Q411 170 401 141T380 85T355 38T328 18Q313 18 307 29T298 66T296 130T297 223V336Q297 364 291
370T276 377Q265 377 257 368T238 332Q233 321 224 299T202 248T177 190T152 132T131 85T117 57Q104 40 95 35T74 29Q69 29 64 31T53 40T45 59T41 92V434Q41 455 35 462T22 472T8 474T2 479Q2 484 9 489T26 499T43 507T53 512Z" />
<glyph unicode="n" glyph-name="n" horiz-adv-x="455" d="M86 446Q91 446 94 438T98 419T100 396T100 373Q100 347 99 320T96 267T93 220T92 184Q92 158 94 143T104 127Q109 127 117 140T134 171T153 211T170 248Q180 269 192 294T219 342T248 380T281 395Q292
395 300 389T315 374T324 354T330 334Q333 311 336 262T346 156Q351 100 373 75T430 49Q444 49 452 51T467 53Q472 53 469 43Q468 41 465 38T453 30T432 23T399 20Q367 20 346 30T312 64T293 123T285 211Q283 235 282 257T277 297T267 325T250 336Q241 336 229
318T204 276T182 225T164 184Q142 137 128 107T96 49Q91 41 86 36T72 31Q60 31 53 51T43 97T38 149T37 190Q37 206 37 229T39 274T40 314T41 338Q41 344 41 354T40 375T40 394T39 406Q39 414 43 419T53 428Q58 431 69 438T86 446Z" />
<glyph unicode="o" glyph-name="o" horiz-adv-x="451" d="M205 63Q229 63 252 73T293 104T321 155T332 225Q332 258 324 287T301 339T261 374T203 387Q180 387 157 379T116 352T87 305T76 236Q76 204 84 174T107 118T147 78T205 63ZM170 12Q104 12 62 55T20 182Q20
238 41 285T95 367T170 421T250 440Q313 440 351 397T389 270Q389 214 370 167T319 86T248 32T170 12Z" />
<glyph unicode="p" glyph-name="p" horiz-adv-x="489" d="M113 604Q118 604 117 585T112 535T104 467T100 395Q100 324 101 262T106 141Q139 196 173 241T243 318T313 367T383 385Q411 385 430 370T449 315Q449 287 438 259T407 202T363 146T313 95Q253 39 178
-14L168 -2Q227 49 274 98Q294 119 313 141T347 186T371 229T381 268Q381 274 380 284T372 303T355 319T324 326Q301 326 275 310T222 265T166 193T109 98Q113 26 118 -41T127 -174T134 -310T137 -455Q137 -631 118 -763T68 -983T-1 -1116T-78 -1161Q-100 -1161
-121 -1143T-159 -1091T-186 -1006T-197 -891Q-197 -796 -179 -680T-129 -443T-52 -201T43 25V125Q43 243 52 332T74 482T97 573T113 604ZM66 -496Q66 -408 64 -349T58 -241T51 -144T45 -31Q7 -117 -26 -215T-84 -419T-124 -631T-139 -840Q-139 -879 -135 -927T-121
-1017T-94 -1087T-51 -1116Q-31 -1116 -14 -1091T16 -1022T38 -919T54 -790T63 -646T66 -496Z" />
<glyph unicode="q" glyph-name="q" horiz-adv-x="504" d="M295 428Q300 496 304 535T313 575Q322 575 329 571T342 562T351 551T354 545Q354 534 353 502T352 420Q390 411 416 389T442 330Q442 299 426 278T381 236L367 240Q375 260 380 275T385 305Q385 327 376
342T350 369Q348 282 347 169T342 -72Q370 -130 394 -179T439 -276T475 -371T502 -473T518 -591T524 -735Q524 -760 522 -791T513 -856T496 -922T469 -978T429 -1018T375 -1034Q324 -1034 297 -966T270 -784Q270 -712 271 -611T273 -394T277 -156T283 80Q274 68
261 54T230 28T190 8T139 0Q116 0 92 9T49 38T17 88T4 160Q4 213 29 261T94 347T186 406T291 428H295ZM467 -766Q467 -678 464 -609T453 -483T436 -380T412 -292T381 -209T342 -123Q340 -218 339 -313T337 -498T335 -669T334 -815Q334 -912 351 -962T391 -1012Q416
-1012 431 -988T454 -928T464 -849T467 -766ZM283 104Q286 185 288 256T293 387Q285 387 277 388T260 389Q215 389 179 373T119 330T81 270T68 203Q68 174 74 148T93 101T128 69T178 57Q218 57 244 73T283 104Z" />
<glyph unicode="r" glyph-name="r" horiz-adv-x="471" d="M223 422Q248 422 263 412T285 387T295 357T297 332Q297 320 294 294T288 240T282 188T279 156Q279 136 282 120T293 90T315 70T352 63Q394 63 440 105T526 221L532 217Q521 180 498 142T445 71T381 19T315
-2Q288 -2 272 9T246 38T234 76T231 115Q231 137 235 166T243 225T252 281T256 322Q256 335 252 343T240 355T226 361T215 362Q204 362 187 359T137 356Q128 356 119 357T100 360Q97 321 88 284T67 216T43 163T23 131Q10 131 10 143Q11 149 20 167T41 215T63 284T76
373Q29 400 29 469Q29 488 36 501T59 514Q81 514 90 489T102 420Q109 418 115 417T131 416Q157 416 179 419T223 422ZM70 446Q70 442 74 438Q73 443 73 448T71 456Q70 460 70 463Q67 463 65 460T70 446Z" />
<glyph unicode="s" glyph-name="s" horiz-adv-x="338" d="M-4 121Q30 175 57 231T102 342Q78 376 62 411T45 485Q45 522 52 552T71 603T98 635T129 647Q151 647 164 625T176 569Q174 529 166 483T141 389Q161 366 182 344T221 297T250 246T262 186Q262 142 246
105T206 41T158 -1T115 -16Q84 -16 68 0T51 35Q51 50 56 65T67 92T80 113T90 121Q95 121 96 118T98 111Q98 106 97 97T96 82Q96 65 107 54T145 43Q156 43 170 48T197 64T218 91T227 131Q227 152 217 175T191 222T156 271T117 322Q94 265 67 212T8 113L-4 121ZM72
537Q72 499 86 470T123 412Q131 443 134 471T137 526Q137 596 106 596Q97 596 85 583T72 537Z" />
<glyph unicode="t" glyph-name="t" horiz-adv-x="330" d="M389 217Q382 197 367 163T327 97T265 41T180 20Q137 23 108 45T61 112T35 227T27 395Q27 489 32 564T45 698Q-1 696 -35 696T-84 696Q-113 696 -141 700T-195 714T-241 740T-276 782L-272 791Q-271 789
-263 782T-232 766T-172 752T-74 745H51Q67 835 83 879T106 936Q114 953 129 965T156 977Q177 977 190 937T203 813Q203 798 202 782T201 748Q249 749 292 750T370 752T428 754T459 756Q464 756 476 757T492 758Q508 758 508 748Q508 734 500 723T465 709Q460 708
436 708T374 706T291 704T197 700Q187 615 161 515T88 299Q92 233 99 189T120 119T152 81T199 70Q228 70 253 81T298 108T334 144T360 181T376 209T383 221L389 217ZM158 700Q141 700 125 699T92 698Q89 641 88 581T86 467V354Q115 445 133 531T158 700ZM96 745Q112
745 128 746T162 748V782Q162 832 159 862T153 908T145 930T137 936Q129 936 123 921T112 881T103 820T96 745Z" />
<glyph unicode="u" glyph-name="u" horiz-adv-x="494" d="M309 205Q309 212 309 222T310 242T310 259T311 270Q311 277 309 279T303 268Q301 264 295 245T278 200T252 143T215 87T168 44T111 27Q64 27 45 52T25 129Q25 144 28 172T35 231T42 289T45 332Q45 375
23 375Q18 375 14 374T8 373Q0 373 0 381Q0 384 8 391T45 399Q77 399 89 375T102 319Q102 305 100 280T94 226T89 173T86 135Q86 97 98 82T133 66Q154 66 174 82T212 122T243 171T264 213Q272 235 278 261T289 313T299 364T307 406Q309 415 326 418T360 422Q369
422 369 416Q369 391 368 348T367 260Q367 148 380 99T434 49Q443 49 449 51T461 53Q465 53 465 49Q465 52 465 48T461 38T444 26T406 20Q379 20 362 29T333 61T317 118T309 205Z" />
<glyph unicode="v" glyph-name="v" horiz-adv-x="428" d="M137 49Q152 49 173 66T216 112T260 178T295 258Q264 275 248 307T231 373Q231 394 236 413T252 446T274 469T301 477Q320 477 334 459T348 395Q348 374 343 346T326 285H346Q370 285 390 293T426 315T455
347T477 383L489 377Q483 363 471 341T439 299T395 263T338 248Q332 248 326 248T313 250Q297 206 274 163T224 84T165 28T100 6Q87 6 77 8T59 22T46 57T36 121T31 223T29 373Q29 416 6 416Q1 416 -2 415T-8 414Q-16 414 -16 422Q-16 425 -4 432T37 440Q69 440
79 426T90 379Q90 295 91 238T96 144T103 88T112 60T124 50T137 49ZM256 381Q256 353 266 329T303 293Q308 311 310 328T313 365Q313 375 312 386T308 407T299 422T283 428Q272 428 264 415T256 381Z" />
<glyph unicode="w" glyph-name="w" horiz-adv-x="676" d="M352 0Q329 0 317 24T297 84T287 162T279 240T269 300T250 324Q241 324 229 307T204 266T182 218T164 178Q153 155 145 137T128 104T113 76T96 49Q91 41 84 36T68 31Q56 31 49 51T39 97T34 149T33 190Q33
206 33 229T35 274T36 314T37 338Q37 356 36 368T32 387T29 397T27 403Q27 411 35 418T49 428Q54 431 65 438T82 446Q87 446 90 438T94 419T96 396T96 373Q96 347 95 320T92 267T89 220T88 184Q88 158 90 140T100 121Q105 121 113 134T132 166T152 206T170 242Q180
262 191 286T216 332T244 368T276 383Q299 383 309 367T324 324Q325 314 327 289T332 233T340 169T350 107T365 61T385 43Q399 43 417 57T454 95T491 150T524 217Q500 236 490 267T479 334Q479 365 486 390T503 433T527 461T553 471Q576 471 586 448T596 395Q596
369 587 330T561 246Q572 241 584 240T610 238Q637 238 658 244T697 263T733 296T768 344L780 338Q767 319 749 295T706 250T652 214T586 199Q563 199 545 205Q528 166 507 129T461 64T409 18T352 0ZM500 360Q500 326 509 301T541 258Q549 284 554 311T559 362Q559
422 532 422Q521 422 511 406T500 360Z" />
<glyph unicode="x" glyph-name="x" horiz-adv-x="516" d="M35 352Q32 341 25 345T20 358Q25 373 32 390T48 422T72 445T104 455Q126 455 143 439T174 393Q194 351 215 305T258 215Q283 243 303 272T340 330Q318 347 306 374T293 434Q293 456 299 475T315 508T340
530T369 539Q390 539 404 522T418 467Q418 444 407 413T375 346Q391 338 418 338Q439 338 459 346Q461 346 462 347T465 348Q469 348 469 344Q469 341 464 336T450 325T427 315T397 311Q375 311 358 319Q340 289 317 258T268 195Q284 164 300 137T331 90T359 59T383
47Q411 47 436 66T483 129Q486 137 492 132T496 121Q467 67 432 32T356 -4Q324 -4 292 36T225 145Q199 118 173 96T123 56T77 30T37 20Q36 20 31 20T21 25T11 37T6 61Q6 72 10 84T20 96Q26 96 30 91T39 80T47 68T57 63Q86 63 128 92T215 166Q190 214 165 269T111
387Q106 396 96 404T78 412Q64 412 54 398T35 352ZM311 444Q311 420 322 397T354 358Q367 383 374 404T381 444Q381 464 373 479T348 494Q331 494 321 479T311 444Z" />
<glyph unicode="y" glyph-name="y" horiz-adv-x="459" d="M-49 -791Q-49 -732 -26 -703T35 -674Q52 -674 62 -681T72 -700Q72 -707 66 -707Q62 -707 58 -705T45 -702Q34 -702 23 -712T12 -752Q12 -786 21 -822T49 -889T96 -938T160 -958Q191 -958 215 -937T256
-878T284 -789T302 -680T312 -557T315 -430Q315 -368 314 -318T312 -222T308 -135T305 -46T302 54T301 174V260Q287 218 267 173T221 91T168 30T111 6Q64 6 45 32T25 109Q25 124 28 155T35 221T42 286T45 332Q45 375 29 375Q27 375 26 375T23 374Q21 373 20 373Q14
373 14 381Q14 384 29 391T72 399Q85 399 91 394T99 380T102 357T102 328Q102 314 100 284T94 220T89 157T86 115Q86 76 98 61T133 45Q150 45 169 63T207 112T242 179T273 255T295 327T307 385V387V395Q307 407 313 416T329 430T349 437T369 440Q375 440 376 436T377
430Q377 427 372 358T367 164Q367 88 368 35T370 -60T374 -136T377 -208T380 -291T381 -399Q381 -550 360 -663T302 -852T220 -966T125 -1004Q91 -1004 60 -987T4 -941T-34 -874T-49 -791Z" />
<glyph unicode="z" glyph-name="z" horiz-adv-x="467" d="M223 217Q228 215 244 200T279 155T319 82T354 -20Q396 32 438 91T518 223L532 215Q490 138 447 75T360 -43Q367 -75 371 -111T375 -190Q375 -257 369 -330T350 -473T318 -606T273 -717T214 -793T141 -821Q117
-821 94 -811T54 -779T27 -727T16 -653Q16 -559 39 -484T102 -344T192 -216T301 -86Q290 -22 272 27T232 109T190 162T154 186Q144 191 138 193T131 205Q131 210 135 214T150 219Q165 219 189 228T235 254T274 295T291 350Q291 384 268 406T209 428Q158 428 123
410T65 369T29 328T10 309Q4 309 2 312T0 319Q0 324 17 349T66 402T145 452T250 475Q299 475 330 449T362 379Q362 333 340 303T292 253Q261 231 223 217ZM313 -233Q313 -199 311 -170T305 -113Q257 -170 215 -224T142 -337T92 -462T74 -612Q74 -638 79 -667T95
-720T124 -760T168 -776Q202 -776 225 -748T265 -673T291 -568T305 -449T311 -332T313 -233Z" />
<glyph unicode="{" glyph-name="braceleft" horiz-adv-x="778" d="M481 1425Q416 1415 374 1392T307 1336T272 1263T262 1180Q262 1126 276 1075T307 977T338 885T352 799Q352 754 340 715T299 633Q324 611 337 581T350 492Q350 457 337 403T308 288T279 166T266
57Q266 8 277 -36T312 -114T372 -171T457 -201L453 -223Q395 -216 351 -189T276 -121T231 -28T215 78Q215 132 225 189T249 300T272 401T283 485Q283 497 282 511T277 539T263 567T236 592Q231 592 221 592T211 598Q211 605 215 614T226 631T243 643T266 647Q285
681 285 778Q285 826 274 867T248 951T223 1039T211 1141Q211 1186 223 1235T265 1328T347 1404T479 1446L481 1425Z" />
<glyph unicode="|" glyph-name="bar" horiz-adv-x="410" d="M203 1491Q201 1491 200 1492Q197 1493 197 1495Q197 1500 203 1508T217 1525T234 1538T250 1544Q253 1544 256 1541T260 1528Q256 1483 254 1424T250 1299T247 1165T245 1035T244 919T244 829Q244 788
244 720T245 567T246 385T248 189T251 -9T254 -193T258 -350T262 -465Q262 -482 249 -497T213 -512Q208 -512 205 -511T201 -508Q201 -506 205 -502Q205 -437 204 -332T201 -100T197 161T193 423T190 654T188 825Q188 858 188 911T189 1029T191 1161T193 1292T197
1407T203 1491Z" />
<glyph unicode="}" glyph-name="braceright" horiz-adv-x="778" d="M240 -205Q304 -195 345 -172T409 -115T440 -42T449 41Q449 95 437 145T409 243T382 335T369 422Q369 467 381 506T422 588Q397 600 380 633T362 723Q362 774 376 831T406 946T437 1059T451 1163Q451
1212 440 1256T407 1334T349 1391T264 1421L268 1444Q326 1437 371 1410T448 1341T497 1249T514 1143Q514 1088 500 1031T468 919T437 817T422 733Q422 721 423 707T430 678T446 649T473 625Q475 625 481 625T493 626T505 626T510 623Q510 616 506 607T495 589T477
576T455 573Q445 556 434 524T422 444Q422 396 436 356T467 273T498 183T512 72Q512 27 500 -21T457 -112T374 -185T242 -225L240 -205Z" />
<glyph unicode="~" glyph-name="asciitilde" horiz-adv-x="860" d="M180 465Q174 447 163 444T142 445T126 459T123 477Q136 506 155 536T199 590T254 629T319 645Q349 645 385 623T460 575T535 526T602 504Q626 504 643 516T674 546T698 587T719 629Q717 636
726 640T748 643T769 637T774 621Q760 582 742 550T701 494T650 457T588 444Q553 444 518 466T447 515T375 564T303 586Q282 586 263 573T227 540T198 501T180 465Z" />
<glyph unicode="&#xa0;" glyph-name="nbspace" horiz-adv-x="348" />
<glyph unicode="&#xa1;" glyph-name="exclamdown" horiz-adv-x="348" d="M154 -686Q156 -689 156 -693T156 -700Q156 -722 145 -735T113 -748Q100 -748 90 -742T80 -717Q80 -661 82 -591T87 -440T95 -275T104 -103T112 67T119 225Q117 229 117 236Q117 248 126
256T147 264Q160 264 160 252Q162 88 162 -85T162 -434Q162 -497 161 -560T154 -686ZM133 344Q108 344 97 361T86 403Q86 432 102 448T141 465Q158 465 174 452T190 410Q190 378 174 361T133 344Z" />
<glyph unicode="&#xa2;" glyph-name="cent" horiz-adv-x="436" d="M274 645Q284 656 291 674T299 709Q299 729 282 744T223 760H215Q215 715 216 670T217 571Q217 533 217 495T219 420H227Q264 420 292 430T339 454Q361 469 377 489L385 483Q368 456 344 434Q324
414 293 397T219 373Q222 295 224 222T227 78Q227 55 213 46T188 37Q178 37 178 41Q178 64 180 87T182 133Q182 193 181 252T178 371Q150 372 122 381T72 410T35 459T20 530Q20 571 31 609T62 680T112 739T176 780Q176 858 178 936T190 1085Q188 1085 187 1086Q184
1087 184 1090Q184 1096 188 1104T199 1120T213 1133T225 1139Q236 1139 236 1122Q223 1025 219 947T215 793Q239 799 266 799Q281 799 297 795T326 784T347 765T356 739Q356 705 334 680T287 637L274 645ZM178 424Q176 478 176 531T176 639V750Q154 739 136 720T105
678T85 627T78 573Q78 512 102 474T178 424Z" />
<glyph unicode="&#xa3;" glyph-name="sterling" horiz-adv-x="1100" d="M281 254Q290 223 295 193T301 131Q301 116 300 101T293 72Q327 59 360 42T426 9T490 -18T551 -29Q582 -29 604 -21T643 4T670 41T690 88L711 84Q680 -8 634 -46T522 -84Q485 -84 452 -74T388
-48T329 -14T274 18Q256 -17 226 -42T156 -68Q121 -68 102 -48T82 -6Q82 15 92 33T118 64T155 84T197 92Q230 92 266 80Q266 86 267 91T268 102Q268 140 257 177T229 252H100Q98 253 97 254Q94 255 94 260Q94 272 101 287T113 303Q137 303 159 303T205 305Q185
345 164 386T125 469T96 555T84 645Q84 722 108 797T176 938T276 1061T400 1159T537 1224T678 1247Q772 1247 843 1223T963 1158T1035 1059T1059 936Q1059 885 1044 842T1003 760T942 689T864 627L854 639Q884 659 911 687T959 749T992 822T1004 905Q1004 970 976
1022T898 1111T784 1168T647 1188Q588 1188 529 1169T415 1116T313 1035T230 929T174 805T154 668Q154 618 165 572T192 481T228 393T264 305Q280 307 296 307T330 307Q336 307 354 307T393 307T428 305T444 299Q444 294 442 287T437 271T431 258T424 252Q396 255
368 255T311 254H281ZM176 -14Q202 -14 219 -1T248 33Q229 42 211 48T176 55Q153 55 142 43T131 18Q131 4 142 -5T176 -14Z" />
<glyph unicode="&#xa4;" glyph-name="currency" horiz-adv-x="780" d="M680 950Q679 952 679 954Q679 959 680 961Q684 965 692 968T710 972T728 972T741 967Q750 964 739 950Q693 910 660 879T600 821Q635 786 656 739T678 641Q678 587 661 542T614 461Q639 438
664 413T721 358Q729 350 732 342T735 326T731 312T725 301Q720 299 718 298T713 297Q696 312 681 329T649 362Q631 381 614 397T582 428Q540 390 489 369T383 348Q340 348 298 360T221 399Q182 351 129 295Q114 278 97 280T72 291Q69 294 69 296T68 301Q85 318
101 334T133 367Q149 384 162 398T188 428Q159 459 141 502T123 602Q123 712 195 799Q172 822 148 848T98 907Q96 906 95 906Q92 906 90 907Q85 911 84 920T82 940T84 960T92 975Q94 977 98 977T109 969Q146 922 174 889T227 829Q262 861 305 881T397 901Q447 901
490 887T569 848Q594 873 621 897T680 950ZM418 401Q458 401 495 416T560 458T606 522T623 602Q623 648 604 692T553 771T477 827T383 848Q337 848 299 830T234 783T191 716T176 637Q176 581 197 537T253 463T331 417T418 401Z" />
<glyph unicode="&#xa5;" glyph-name="yen" horiz-adv-x="1272" d="M594 313Q592 262 589 213T582 120T574 39T565 -27Q564 -38 557 -46T539 -60T519 -69T502 -72Q496 -72 491 -68T485 -55Q489 -28 494 12T506 102T518 205T530 313Q479 311 429 311T330 311L326
313Q322 315 322 319Q322 332 331 344T346 356Q393 356 440 357T535 358Q538 390 540 420T545 479Q489 477 435 477T330 477L326 479Q322 481 322 485Q322 498 332 510T348 522Q398 522 447 523T547 524Q549 540 549 553T549 580Q549 636 545 701T529 830T495 955T437
1060T350 1133T227 1161Q191 1161 158 1151T99 1119T58 1067T43 993Q43 948 59 918T99 868T152 837T207 819L203 809Q177 812 142 821T76 851T22 909T0 1004Q0 1057 21 1097T78 1163T157 1203T246 1217Q320 1217 375 1190T471 1117T536 1011T577 883T598 746T604
612V602Q619 671 641 744T692 886T759 1016T843 1123T944 1196T1065 1223Q1102 1223 1136 1213T1195 1180T1236 1123T1251 1040Q1251 980 1228 932T1173 847T1108 787T1057 752L1049 762Q1066 774 1090 793T1137 841T1176 911T1192 1008Q1192 1037 1184 1065T1158
1114T1114 1149T1051 1163Q986 1163 933 1136T835 1062T757 953T695 820T647 674T612 526H680Q688 526 715 526T770 526T821 524T844 518Q844 513 841 507T834 493T824 482T815 477Q775 480 735 480T653 479H604Q602 474 602 471T602 463Q600 438 600 412T598 360H645Q653
360 678 360T731 360T779 358T801 352Q801 347 798 341T791 327T783 316T774 311Q739 314 699 314T621 313H594Z" />
<glyph unicode="&#xa6;" glyph-name="brokenbar" horiz-adv-x="410" d="M203 350Q201 350 200 351Q197 352 197 354Q197 360 203 368T217 384T234 397T250 403Q253 403 256 401T260 393Q256 366 254 331T250 257T247 178T245 100T244 30T244 -23Q244 -72 245 -127T248
-240T254 -355T262 -465Q262 -482 249 -497T213 -512Q208 -512 205 -511T201 -508Q201 -506 205 -502Q205 -387 197 -274T188 -43Q188 -24 188 8T189 77T191 155T193 232T197 301T203 350ZM203 1491Q201 1491 200 1492Q197 1493 197 1495Q197 1500 203 1508T217
1525T234 1538T250 1544Q253 1544 256 1542T260 1534Q255 1494 252 1436T247 1318T245 1204T244 1118Q244 1069 245 1014T248 901T254 786T262 676Q262 659 249 644T213 629Q208 629 205 630T201 633Q201 635 205 639Q205 754 197 867T188 1098Q188 1117 188 1149T189
1218T191 1296T193 1373T197 1442T203 1491Z" />
<glyph unicode="&#xa7;" glyph-name="section" horiz-adv-x="752" d="M248 176Q231 151 218 123T205 68Q205 37 220 15T259 -23T311 -45T367 -53Q403 -53 443 -41T516 -6T572 53T594 133Q594 158 583 182T554 228T516 269T477 307Q450 333 415 360T341 417T267
477T201 540T155 605T137 674Q137 720 162 759T229 821Q174 871 138 924T102 1042Q102 1080 118 1119T163 1194T229 1261T307 1315T390 1351T471 1364Q516 1364 549 1353T605 1321T638 1273T649 1214Q649 1159 618 1098L602 1104Q610 1122 615 1139T621 1174Q621
1202 609 1226T575 1267T522 1295T451 1305Q406 1305 352 1288T251 1239T173 1164T141 1067Q141 1028 161 994T212 929T276 871T340 821Q382 787 435 747T535 664T614 575T647 485Q647 437 621 397T549 334Q586 296 609 254T633 164Q633 109 609 60T545 -28T455
-88T352 -111Q320 -111 287 -104T227 -80T183 -37T166 25Q166 52 180 92T233 182L248 176ZM590 444Q590 495 557 541T474 630T364 717T250 805Q224 792 210 769T195 717Q195 662 229 615T315 525T425 439T532 350Q547 357 557 368T575 393T586 419T590 444Z" />
<glyph unicode="&#xa8;" glyph-name="dieresis" horiz-adv-x="614" d="M176 596Q176 615 189 628T221 641Q240 641 253 628T266 596Q266 577 253 564T221 551Q203 551 190 564T176 596ZM348 596Q348 615 361 628T393 641Q412 641 425 628T438 596Q438 577 425
564T393 551Q375 551 362 564T348 596Z" />
<glyph unicode="&#xa9;" glyph-name="copyright" horiz-adv-x="1706" d="M840 -31Q743 -31 651 -6T477 66T327 179T210 326T134 501T106 700Q106 804 131 901T202 1083T316 1238T468 1357T654 1434T868 1462Q968 1462 1061 1436T1236 1361T1384 1245T1499 1094T1573
913T1599 711Q1599 616 1571 524T1491 350T1370 197T1215 77T1036 -2T840 -31ZM868 29Q956 29 1040 51T1199 115T1336 217T1444 351T1514 514T1540 700Q1540 801 1513 892T1437 1062T1322 1204T1176 1312T1009 1381T829 1405Q684 1405 562 1359T352 1226T215 1015T166
737Q166 640 189 550T255 382T360 238T500 127T670 55T868 29ZM1251 555Q1247 537 1237 509T1207 449T1158 383T1086 324T988 281T860 264Q773 264 691 291T546 370T444 496T406 666Q406 733 424 798T475 922T557 1031T664 1118T793 1175T940 1196Q1004 1196 1061
1178T1161 1130T1228 1060T1253 977Q1253 948 1243 921T1219 870T1190 827T1163 797L1151 805Q1173 828 1188 863T1204 940Q1204 977 1182 1012T1122 1075T1034 1120T928 1137Q800 1137 711 1100T564 1002T481 862T455 698Q455 632 481 565T561 443T694 354T881
319Q966 319 1027 341T1131 398T1198 475T1235 559L1251 555Z" />
<glyph unicode="&#xaa;" glyph-name="ordfeminine" horiz-adv-x="541" d="M541 938Q524 906 496 883T434 860Q409 860 381 876T338 934Q309 899 270 876T186 852Q162 852 142 863T109 893T88 937T80 991Q80 1039 101 1088T158 1176T240 1239T336 1264Q373 1264
398 1256T439 1236T460 1214T467 1196Q467 1182 454 1177T428 1171Q420 1171 413 1181T394 1203T365 1225T319 1235Q278 1235 245 1215T187 1163T149 1095T135 1026Q135 977 160 944T227 911Q261 911 286 924T330 958Q324 986 324 1022Q324 1064 330 1089T345 1129T363
1148T379 1153Q387 1153 396 1143T406 1106Q406 1074 393 1038T360 967Q373 935 396 919T451 903Q498 903 535 940L541 938ZM96 733Q90 733 89 740T89 757T97 774T111 782Q174 782 239 784T367 786Q396 786 426 785T485 782Q491 782 490 774T485 757T473 741T461
735Q430 738 398 738T334 739Q272 739 209 737T96 733ZM348 1047Q348 1031 349 1019T352 993Q366 1019 373 1046T381 1096Q381 1105 380 1111T373 1118Q365 1118 357 1098T348 1047Z" />
<glyph unicode="&#xab;" glyph-name="guillemotleft" horiz-adv-x="528" d="M233 451Q218 436 197 412T155 361T117 307T94 258Q96 243 111 222T147 178T190 135T227 100Q229 98 229 96T229 92Q229 80 218 67T188 53Q185 53 181 54T172 61Q154 78 132 99T90 144T57
193T43 244Q43 257 52 276T77 316T111 360T150 402T187 440T217 467L233 451ZM438 451Q423 436 402 412T359 361T322 307T299 258Q301 243 316 222T352 178T395 135T432 100Q434 98 434 96T434 92Q434 80 423 67T393 53Q390 53 386 54T377 61Q359 78 337 99T295
144T262 193T248 244Q248 257 257 276T282 316T316 360T355 402T392 440T422 467L438 451Z" />
<glyph unicode="&#xac;" glyph-name="logicalnot" horiz-adv-x="860" d="M766 254Q766 245 752 238T725 231Q709 231 709 240Q709 275 708 304T706 362T703 419T702 483Q702 514 702 539T707 594Q660 597 618 598T526 600Q417 600 320 597T119 594Q115 594 115
602Q115 608 117 616T123 633T131 647T141 653Q253 653 354 656T565 659Q576 659 605 659T667 657T728 655T764 651Q768 651 768 647Q765 606 764 572T762 494Q762 458 762 428T764 369T765 313T766 254Z" />
<glyph unicode="&#xad;" glyph-name="uni00AD" horiz-adv-x="471" d="M264 248Q207 248 157 247T53 246Q51 247 50 248Q47 249 47 254Q47 260 49 270T54 290T60 307T66 315Q123 315 174 317T283 319Q289 319 307 319T346 320T381 317T397 311Q397 306 395 296T390
274T384 255T377 246Q349 249 321 249T264 248Z" />
<glyph unicode="&#xae;" glyph-name="registered" horiz-adv-x="1176" d="M561 473Q449 473 364 513T220 618T133 768T102 940Q102 1038 141 1128T249 1287T410 1397T608 1438Q717 1438 803 1397T950 1286T1041 1128T1073 944Q1073 877 1053 817T997 704T913 609T807
536T687 490T561 473ZM600 524Q683 524 759 554T893 639T985 770T1020 940Q1020 1037 980 1119T875 1262T728 1357T559 1391Q477 1391 404 1358T275 1268T188 1136T156 975Q155 883 189 802T283 659T424 562T600 524ZM819 682Q814 675 804 661T780 633T747 609T709
598Q678 598 654 624T611 688T574 767T541 838H520Q511 838 502 838T485 842Q482 792 478 743T471 641Q469 625 462 622T446 621T430 631T424 643Q430 717 435 783T446 913T455 1039T461 1167Q463 1184 464 1201T465 1237Q427 1225 395 1208T338 1167T299 1116T285
1055Q285 1032 294 1019T309 997L301 987Q296 993 284 1010T272 1059Q272 1096 287 1128T330 1187T392 1235T467 1270Q467 1285 467 1302T469 1337Q469 1347 474 1349T486 1349T498 1343T504 1335Q504 1323 504 1310T502 1282Q531 1290 559 1294T614 1298Q662 1298
701 1286T769 1250T813 1190T829 1106Q829 1054 810 1010T756 931T676 873T578 842Q598 813 613 777T644 709T678 655T723 633Q749 633 773 648T815 686L819 682ZM500 1161Q500 1092 497 1026T489 891Q494 893 500 893Q521 893 537 882T567 854Q623 861 666 884T737
939T780 1007T795 1079Q795 1117 785 1149T752 1206T691 1243T598 1257Q573 1257 549 1255T500 1247V1161ZM535 852Q527 864 519 871T502 879Q492 879 489 877Q489 872 488 868T487 858Q494 852 520 852H535Z" />
<glyph unicode="&#xaf;" glyph-name="overscore" horiz-adv-x="614" d="M186 567Q179 567 178 575T178 594T186 612T201 621Q239 621 279 623T358 625Q377 625 395 624T432 621Q438 620 437 611T431 593T418 575T406 569Q387 572 368 572T330 573Q293 573 254
571T186 567Z" />
<glyph unicode="&#xb0;" glyph-name="degree" horiz-adv-x="522" d="M113 1083Q113 1126 130 1159T175 1216T237 1252T303 1264Q331 1264 357 1254T405 1224T438 1174T451 1102Q451 1063 435 1032T392 978T333 944T266 932Q239 932 212 940T162 967T127 1014T113
1083ZM158 1106Q158 1074 171 1049T204 1007T250 982T299 973Q320 973 339 980T373 1000T397 1035T406 1083Q406 1114 394 1139T362 1182T318 1209T268 1219Q248 1219 229 1213T193 1193T168 1158T158 1106Z" />
<glyph unicode="&#xb1;" glyph-name="plusminus" horiz-adv-x="860" d="M475 305Q475 291 461 282T434 272Q418 272 418 287Q418 359 416 414T412 526Q337 524 266 523T119 522Q115 522 115 530Q115 536 117 545T123 562T131 576T141 582Q213 582 279 583T412
586V657Q412 684 412 705T413 746T415 787T418 836Q418 840 424 846T438 856T456 864T471 868Q477 868 477 864Q475 833 474 809T473 760T472 711T471 653V588H565Q573 588 592 588T636 588T687 587T736 585T772 583T786 578Q786 573 782 564T772 545T760 529T748
522Q637 528 526 528H471Q472 472 473 420T475 305ZM139 133Q135 133 135 141Q135 147 136 156T140 173T147 187T156 193Q212 193 255 193T340 194T425 194T524 195Q532 195 551 195T595 195T646 196T695 195T731 193T745 188Q745 183 742 174T733 156T722 140T711
133Q655 136 598 136T485 135Q431 135 389 135T309 134T231 134T139 133Z" />
<glyph unicode="&#xb2;" glyph-name="twosuperior" horiz-adv-x="670" d="M528 522Q522 511 515 496T496 467T470 444T434 434Q413 434 394 440T358 456T324 477T291 498Q265 479 241 472T205 465Q150 465 150 498Q150 509 156 517T173 530T195 538T219 541Q236
541 254 537T291 526Q336 558 384 613T473 738T540 887T567 1049Q567 1086 555 1116T522 1167T473 1199T410 1210Q350 1210 291 1192T185 1139T109 1058T80 952Q80 932 91 919T127 905Q146 905 157 913T174 924L180 920Q178 915 174 905T161 885T142 866T117 858Q99
858 86 866T66 888T55 918T51 952Q51 993 67 1032T112 1106T177 1170T254 1220T335 1252T414 1264Q514 1264 571 1212T629 1061Q629 980 599 899T522 746T420 615T315 516Q347 504 379 494T442 483Q461 483 474 487T495 497T509 510T520 526L528 522ZM205 496Q216
496 231 499T264 510Q243 522 215 522Q195 522 190 518T184 508Q184 502 190 499T205 496Z" />
<glyph unicode="&#xb3;" glyph-name="threesuperior" horiz-adv-x="664" d="M147 547Q155 537 167 525T197 502T242 484T303 477Q350 477 376 497T403 555Q403 583 392 605T362 643Q312 618 264 618Q241 618 220 628T199 657Q199 667 207 674T227 687T253 695T281
698Q325 698 371 676Q408 698 442 735T503 821T545 925T561 1042Q561 1073 551 1102T519 1155T466 1193T391 1208Q334 1208 280 1193T183 1150T114 1081T88 989Q88 951 103 927T133 887L121 881Q111 888 101 900T81 928T67 960T61 995Q61 1037 78 1073T123 1139T187
1192T261 1231T335 1255T401 1264Q461 1264 503 1247T572 1201T611 1132T623 1047Q623 996 604 941T553 833T479 737T391 662Q420 642 439 613T459 549Q459 525 450 504T423 468T380 443T324 434Q285 434 254 445T201 473T162 506T137 535L147 547ZM276 647Q305
647 340 659Q309 678 276 678Q262 678 250 675T238 664Q238 656 246 652T276 647Z" />
<glyph unicode="&#xb4;" glyph-name="acute" horiz-adv-x="614" d="M221 528Q215 522 207 522Q201 522 197 527T190 539Q190 546 197 553Q246 596 290 643T365 725Q367 727 369 727Q374 727 382 723T399 712T412 698T418 684Q418 682 417 682T414 680Q370 643
320 605T221 528Z" />
<glyph unicode="&#xb5;" glyph-name="mu" horiz-adv-x="494" d="M350 205Q350 212 350 222T351 242T351 259T352 270Q352 277 350 279T344 268Q342 264 338 245T326 200T306 143T278 87T241 44T193 27Q172 27 159 39T139 68T130 104T127 137Q127 145 123 143T119
137Q119 28 121 -52T125 -189T129 -279T131 -330Q131 -338 129 -341T119 -350Q113 -353 108 -357T94 -362Q86 -362 78 -358Q73 -355 72 -320T71 -233T74 -118T79 3T84 106T86 170Q86 191 87 229T89 304T83 368T63 395Q58 395 55 394T49 393Q41 393 41 401Q41 405
49 412T86 420Q118 420 130 396T143 340Q143 307 143 263T147 180T162 114T195 86Q216 86 233 99T264 132T288 174T305 213Q314 234 320 260T331 313T340 363T348 406Q350 415 367 418T401 422Q410 422 410 416Q410 391 409 348T408 260Q408 148 421 99T475 49Q484
49 490 51T502 53Q506 53 506 49Q506 47 504 42T496 32T478 24T446 20Q419 20 402 29T374 61T358 118T350 205Z" />
<glyph unicode="&#xb6;" glyph-name="paragraph" horiz-adv-x="752" d="M541 1311Q522 1313 503 1313T463 1313Q458 1151 457 1001T456 703T462 409T475 104Q475 87 466 72T434 57Q429 57 426 58T422 61Q422 62 422 67T421 79T421 91T422 98Q422 257 419 416T412
737H395Q352 737 301 751T206 800T132 893T102 1042Q102 1114 135 1173T223 1274T346 1340T485 1364Q525 1364 562 1359T627 1340T673 1303T690 1243Q690 1225 683 1198T659 1139L649 1143Q657 1161 661 1180T666 1217Q666 1257 644 1277T588 1305Q576 1157 574
1009T574 712T583 410T598 104Q598 87 589 72T557 57Q552 57 549 58T545 61Q545 62 545 72T544 96T543 119T543 131Q543 278 540 425T534 721T531 1016T541 1311Z" />
<glyph unicode="&#xb7;" glyph-name="middot" horiz-adv-x="268" d="M154 553Q178 553 189 536T201 494Q201 465 185 449T145 432Q128 432 112 445T96 487Q96 519 112 536T154 553Z" />
<glyph unicode="&#xb8;" glyph-name="cedilla" horiz-adv-x="614" d="M330 10Q322 -16 317 -37T311 -78Q317 -75 328 -72T356 -68Q390 -68 409 -88T428 -143Q428 -158 423 -177T404 -214T367 -242T307 -254Q299 -254 287 -253T262 -248T236 -240T213 -227Q208
-223 209 -213T214 -192T224 -178T231 -184Q248 -195 268 -199T319 -203Q331 -203 344 -202T368 -195T386 -180T393 -154Q393 -109 340 -109Q317 -109 305 -114T285 -119Q282 -119 279 -118T276 -111Q276 -104 279 -90T288 -58T298 -23T309 10H330Z" />
<glyph unicode="&#xb9;" glyph-name="onesuperior" horiz-adv-x="356" d="M188 455Q185 476 184 514T181 594T180 677T180 745Q180 841 183 911T189 1032T196 1116T199 1171Q199 1186 190 1186Q180 1186 163 1174T124 1143T79 1101T35 1055L20 1069Q48 1100 78
1134T137 1198T188 1245T225 1264Q233 1264 239 1261T246 1253V1227Q242 1184 240 1151T237 1086T236 1021T235 946T235 850T236 723Q236 696 238 655T243 573T248 500T250 457Q250 453 245 450T231 444T215 440T201 438Q188 438 188 455Z" />
<glyph unicode="&#xba;" glyph-name="ordmasculine" horiz-adv-x="463" d="M268 905Q291 905 313 915T352 944T379 992T389 1059Q389 1090 382 1118T359 1167T321 1200T266 1212Q245 1212 223 1204T184 1179T156 1134T145 1069Q145 1039 152 1010T175 957T213
920T268 905ZM236 858Q173 858 133 898T92 1018Q92 1072 112 1117T164 1194T234 1245T311 1264Q371 1264 406 1223T442 1102Q442 1049 424 1005T376 928T310 877T236 858ZM88 733Q82 733 81 740T81 757T89 774T102 782Q133 782 156 782T200 784T243 785T297 786Q326
786 356 785T416 782Q422 782 421 774T415 757T404 741T391 735Q360 738 328 738T264 739Q233 739 211 739T170 737T132 735T88 733Z" />
<glyph unicode="&#xbb;" glyph-name="guillemotright" horiz-adv-x="528" d="M53 49Q68 64 89 87T132 138T170 192T193 242Q190 257 175 278T139 322T96 364T59 399Q57 401 57 403T57 408Q57 420 68 433T98 446Q101 446 105 445T115 438Q133 421 155 400T197 356T230
307T244 256Q244 243 235 224T210 184T176 140T137 98T100 60T70 33L53 49ZM258 49Q273 64 294 87T337 138T374 192T397 242Q395 257 380 278T344 322T301 364T264 399Q262 401 262 403T262 408Q262 420 273 433T303 446Q306 446 310 445T319 438Q338 421 360 400T402
356T435 307T449 256Q449 236 429 205T380 140T323 78T274 33L258 49Z" />
<glyph unicode="&#xbc;" glyph-name="onequarter" horiz-adv-x="1040" d="M973 160Q954 162 940 163T907 164V-10Q907 -19 900 -25T884 -36T866 -43T852 -45Q844 -45 843 -39T842 -25Q844 23 844 70T846 166H817Q796 166 758 165T679 162T599 158T541 154Q528
154 515 162T502 188Q502 197 526 237T587 333T670 456T758 584T833 698T881 776Q881 778 882 779T883 782Q889 794 899 793T918 784T931 769T930 758Q916 622 912 487T907 215Q921 215 937 214T979 213Q994 217 997 210T997 191T986 170T973 160ZM831 1272Q831
1275 846 1276T870 1274Q878 1276 883 1272T885 1260Q886 1258 886 1255Q886 1254 885 1253Q783 1065 696 900T528 580T367 274T201 -39Q198 -50 192 -53T180 -55Q166 -55 155 -47T152 -25Q242 137 322 293T483 606T648 928T831 1272ZM846 215Q848 342 852 461T870
696Q846 659 814 612T748 515T680 416T620 325T577 253T561 209Q561 206 575 206T612 206T663 208T719 211T773 214T815 215H846ZM229 455Q226 476 225 514T222 594T221 677T221 745Q221 841 224 911T230 1032T237 1116T240 1171Q240 1186 231 1186Q221 1186 204
1174T165 1143T120 1101T76 1055L61 1069Q89 1100 119 1134T178 1198T229 1245T266 1264Q274 1264 280 1261T287 1253V1227Q283 1184 281 1151T278 1086T276 1021T275 946T276 850T276 723Q276 696 278 655T283 573T288 500T291 457Q291 453 286 450T272 444T256
440T242 438Q229 438 229 455Z" />
<glyph unicode="&#xbd;" glyph-name="onehalf" horiz-adv-x="1227" d="M1075 37Q1069 25 1062 10T1043 -18T1017 -41T981 -51Q960 -51 941 -45T905 -29T871 -8T838 12Q812 -5 788 -12T752 -20Q726 -20 711 -12T696 12Q696 24 702 32T719 45T742 52T766 55Q783
55 801 51T838 41Q882 73 931 128T1020 252T1087 402T1114 563Q1114 601 1102 631T1069 682T1019 714T956 725Q896 725 838 707T732 654T656 573T627 467Q627 447 638 434T674 420Q692 420 703 427T721 438L727 434Q725 429 721 419T708 399T688 381T664 373Q645
373 633 381T613 403T602 433T598 467Q598 508 614 547T659 621T724 685T801 734T882 766T961 778Q1061 778 1118 727T1176 575Q1176 521 1162 467T1124 361T1069 261T1002 170T931 93T862 31Q894 18 926 8T989 -2Q1008 -2 1020 2T1041 12T1056 25T1067 41L1075
37ZM831 1272Q831 1275 846 1276T870 1274Q878 1276 883 1272T885 1260Q886 1258 886 1255Q886 1254 885 1253Q783 1065 696 900T528 580T367 274T201 -39Q198 -50 192 -53T180 -55Q166 -55 155 -47T152 -25Q242 137 322 293T483 606T648 928T831 1272ZM229 455Q226
476 225 514T222 594T221 677T221 745Q221 841 224 911T230 1032T237 1116T240 1171Q240 1186 231 1186Q221 1186 204 1174T165 1143T120 1101T76 1055L61 1069Q89 1100 119 1134T178 1198T229 1245T266 1264Q274 1264 280 1261T287 1253V1227Q283 1184 281 1151T278
1086T276 1021T275 946T276 850T276 723Q276 696 278 655T283 573T288 500T291 457Q291 453 286 450T272 444T256 440T242 438Q229 438 229 455ZM752 10Q763 10 778 13T811 25Q790 37 762 37Q742 37 737 33T731 23Q731 10 752 10Z" />
<glyph unicode="&#xbe;" glyph-name="threequarters" horiz-adv-x="1210" d="M1143 160Q1124 162 1110 163T1077 164V-10Q1077 -19 1070 -25T1054 -36T1036 -43T1022 -45Q1014 -45 1013 -39T1012 -25Q1014 23 1014 70T1016 166H987Q966 166 928 165T849 162T769
158T711 154Q698 154 685 162T672 188Q672 197 696 237T757 333T840 456T928 584T1003 698T1051 776Q1051 778 1052 779T1053 782Q1059 794 1069 793T1088 784T1101 769T1100 758Q1086 622 1082 487T1077 215Q1091 215 1107 214T1149 213Q1164 217 1167 210T1167
191T1156 170T1143 160ZM147 547Q155 537 167 525T197 502T242 484T303 477Q350 477 376 497T403 555Q403 583 392 605T362 643Q312 618 264 618Q241 618 220 628T199 657Q199 667 207 674T227 687T253 695T281 698Q325 698 371 676Q408 698 442 735T503 821T545
925T561 1042Q561 1073 551 1102T519 1155T466 1193T391 1208Q334 1208 280 1193T183 1150T114 1081T88 989Q88 951 103 927T133 887L121 881Q111 888 101 900T81 928T67 960T61 995Q61 1037 78 1073T123 1139T187 1192T261 1231T335 1255T401 1264Q461 1264 503
1247T572 1201T611 1132T623 1047Q623 996 604 941T553 833T479 737T391 662Q420 642 439 613T459 549Q459 525 450 504T423 468T380 443T324 434Q285 434 254 445T201 473T162 506T137 535L147 547ZM1001 1272Q1001 1275 1016 1276T1040 1274Q1048 1276 1053 1272T1055
1260Q1056 1258 1056 1255Q1056 1254 1055 1253Q953 1065 866 900T698 580T537 274T371 -39Q368 -50 362 -53T350 -55Q336 -55 325 -47T322 -25Q412 137 492 293T653 606T818 928T1001 1272ZM1016 215Q1018 342 1022 461T1040 696Q1016 659 984 612T918 515T850
416T790 325T747 253T731 209Q731 206 745 206T782 206T833 208T889 211T943 214T985 215H1016ZM276 647Q305 647 340 659Q309 678 276 678Q262 678 250 675T238 664Q238 656 246 652T276 647Z" />
<glyph unicode="&#xbf;" glyph-name="questiondown" horiz-adv-x="809" d="M459 -248Q472 -232 485 -218T514 -193T546 -176T586 -170Q614 -170 636 -181T674 -211T697 -254T705 -305Q705 -358 685 -410T630 -509T549 -597T451 -666T344 -712T236 -729Q178 -729
137 -712T70 -667T31 -600T18 -518Q18 -444 46 -379T117 -254T209 -140T301 -35T372 65T401 164Q401 199 383 219T336 240Q316 240 296 232T256 201L248 207Q254 218 265 231T290 257T321 277T358 285Q400 285 426 256T453 180Q453 135 427 88T360 -11T274 -117T187
-232T121 -356T94 -492Q94 -527 104 -558T136 -614T190 -652T266 -666Q351 -666 424 -636T551 -556T635 -446T666 -324Q666 -279 641 -248T565 -217Q524 -217 503 -229T467 -256L459 -248ZM356 385Q332 385 321 402T309 444Q309 473 325 489T365 506Q382 506 398
493T414 451Q414 419 398 402T356 385Z" />
<glyph unicode="&#xc0;" glyph-name="Agrave" horiz-adv-x="1577" d="M12 293Q17 251 30 206T68 125T133 65T231 41Q289 41 344 62T451 123T554 215T651 334Q596 332 541 330T428 324Q416 324 401 321T383 317Q373 317 373 330Q373 336 376 344T387 359T404 372T428
377Q456 377 524 379T686 387Q757 491 821 611T942 849T1050 1077T1145 1270T1226 1404T1294 1454Q1313 1454 1324 1442T1341 1409T1348 1362T1350 1307Q1350 1189 1341 1077T1319 854T1294 633T1274 408Q1302 410 1328 410T1378 410H1421Q1444 410 1461 409T1479
397Q1479 385 1468 372T1430 358Q1388 356 1349 356T1270 356Q1268 318 1268 281T1268 205Q1268 173 1272 141T1288 84T1321 42T1378 25Q1403 25 1427 37T1474 70T1514 116T1544 166L1556 160Q1544 134 1527 98T1485 29T1429 -27T1354 -51Q1279 -51 1247 7T1214
184Q1214 226 1214 268T1219 354Q1084 351 956 347T694 336Q640 256 583 188T466 69T345 -10T221 -39Q175 -39 142 -23T86 21T48 84T23 155T9 227T0 291L12 293ZM731 389Q789 391 851 393T976 398T1101 403T1221 408Q1227 518 1236 633T1254 864T1269 1091T1276
1307Q1276 1314 1276 1327T1274 1352T1271 1373T1266 1382Q1252 1382 1226 1338T1162 1218T1079 1043T977 833T860 608T731 389ZM1163 1681Q1153 1681 1153 1689Q1153 1695 1157 1704T1167 1721T1180 1734T1194 1740Q1198 1740 1200 1738Q1222 1714 1241 1691T1280
1646T1318 1603T1360 1562Q1362 1560 1362 1552Q1362 1543 1355 1533T1339 1523Q1331 1523 1329 1527Q1289 1574 1243 1612T1163 1681Z" />
<glyph unicode="&#xc1;" glyph-name="Aacute" horiz-adv-x="1577" d="M12 293Q17 251 30 206T68 125T133 65T231 41Q289 41 344 62T451 123T554 215T651 334Q596 332 541 330T428 324Q416 324 401 321T383 317Q373 317 373 330Q373 336 376 344T387 359T404 372T428
377Q456 377 524 379T686 387Q757 491 821 611T942 849T1050 1077T1145 1270T1226 1404T1294 1454Q1313 1454 1324 1442T1341 1409T1348 1362T1350 1307Q1350 1189 1341 1077T1319 854T1294 633T1274 408Q1302 410 1328 410T1378 410H1421Q1444 410 1461 409T1479
397Q1479 385 1468 372T1430 358Q1388 356 1349 356T1270 356Q1268 318 1268 281T1268 205Q1268 173 1272 141T1288 84T1321 42T1378 25Q1403 25 1427 37T1474 70T1514 116T1544 166L1556 160Q1544 134 1527 98T1485 29T1429 -27T1354 -51Q1279 -51 1247 7T1214
184Q1214 226 1214 268T1219 354Q1084 351 956 347T694 336Q640 256 583 188T466 69T345 -10T221 -39Q175 -39 142 -23T86 21T48 84T23 155T9 227T0 291L12 293ZM731 389Q789 391 851 393T976 398T1101 403T1221 408Q1227 518 1236 633T1254 864T1269 1091T1276
1307Q1276 1314 1276 1327T1274 1352T1271 1373T1266 1382Q1252 1382 1226 1338T1162 1218T1079 1043T977 833T860 608T731 389ZM1284 1529Q1278 1523 1270 1523Q1264 1523 1260 1528T1253 1540Q1253 1547 1260 1554Q1309 1597 1353 1644T1428 1726Q1430 1728 1432
1728Q1437 1728 1445 1724T1462 1713T1475 1699T1481 1685Q1481 1683 1480 1683T1477 1681Q1433 1644 1383 1606T1284 1529Z" />
<glyph unicode="&#xc2;" glyph-name="Acircumflex" horiz-adv-x="1577" d="M12 293Q17 251 30 206T68 125T133 65T231 41Q289 41 344 62T451 123T554 215T651 334Q596 332 541 330T428 324Q416 324 401 321T383 317Q373 317 373 330Q373 336 376 344T387 359T404
372T428 377Q456 377 524 379T686 387Q757 491 821 611T942 849T1050 1077T1145 1270T1226 1404T1294 1454Q1313 1454 1324 1442T1341 1409T1348 1362T1350 1307Q1350 1189 1341 1077T1319 854T1294 633T1274 408Q1302 410 1328 410T1378 410H1421Q1444 410 1461
409T1479 397Q1479 385 1468 372T1430 358Q1388 356 1349 356T1270 356Q1268 318 1268 281T1268 205Q1268 173 1272 141T1288 84T1321 42T1378 25Q1403 25 1427 37T1474 70T1514 116T1544 166L1556 160Q1544 134 1527 98T1485 29T1429 -27T1354 -51Q1279 -51 1247
7T1214 184Q1214 226 1214 268T1219 354Q1084 351 956 347T694 336Q640 256 583 188T466 69T345 -10T221 -39Q175 -39 142 -23T86 21T48 84T23 155T9 227T0 291L12 293ZM731 389Q789 391 851 393T976 398T1101 403T1221 408Q1227 518 1236 633T1254 864T1269 1091T1276
1307Q1276 1314 1276 1327T1274 1352T1271 1373T1266 1382Q1252 1382 1226 1338T1162 1218T1079 1043T977 833T860 608T731 389ZM1163 1527Q1159 1523 1157 1523Q1151 1523 1147 1530T1142 1546Q1142 1551 1154 1566T1184 1600T1224 1640T1265 1678T1297 1707T1314
1718Q1316 1718 1323 1718T1337 1716T1351 1709T1359 1695Q1373 1661 1394 1629T1450 1568Q1453 1565 1455 1561T1458 1554Q1458 1543 1445 1535T1411 1527Q1395 1540 1380 1561T1351 1603T1326 1639T1306 1654Q1298 1654 1282 1641T1245 1609T1203 1568T1163 1527Z"
/>
<glyph unicode="&#xc3;" glyph-name="Atilde" horiz-adv-x="1577" d="M12 293Q17 251 30 206T68 125T133 65T231 41Q289 41 344 62T451 123T554 215T651 334Q596 332 541 330T428 324Q416 324 401 321T383 317Q373 317 373 330Q373 336 376 344T387 359T404 372T428
377Q456 377 524 379T686 387Q757 491 821 611T942 849T1050 1077T1145 1270T1226 1404T1294 1454Q1313 1454 1324 1442T1341 1409T1348 1362T1350 1307Q1350 1189 1341 1077T1319 854T1294 633T1274 408Q1302 410 1328 410T1378 410H1421Q1444 410 1461 409T1479
397Q1479 385 1468 372T1430 358Q1388 356 1349 356T1270 356Q1268 318 1268 281T1268 205Q1268 173 1272 141T1288 84T1321 42T1378 25Q1403 25 1427 37T1474 70T1514 116T1544 166L1556 160Q1544 134 1527 98T1485 29T1429 -27T1354 -51Q1279 -51 1247 7T1214
184Q1214 226 1214 268T1219 354Q1084 351 956 347T694 336Q640 256 583 188T466 69T345 -10T221 -39Q175 -39 142 -23T86 21T48 84T23 155T9 227T0 291L12 293ZM731 389Q789 391 851 393T976 398T1101 403T1221 408Q1227 518 1236 633T1254 864T1269 1091T1276
1307Q1276 1314 1276 1327T1274 1352T1271 1373T1266 1382Q1252 1382 1226 1338T1162 1218T1079 1043T977 833T860 608T731 389ZM1147 1568Q1147 1556 1139 1548T1122 1540Q1113 1540 1110 1552Q1117 1586 1131 1611T1162 1652T1195 1675T1223 1683Q1243 1683 1263
1669T1302 1638T1340 1607T1374 1593Q1391 1593 1403 1600T1424 1617T1438 1640T1448 1663V1665Q1448 1670 1454 1673T1468 1677Q1479 1677 1479 1669Q1469 1633 1455 1609T1424 1570T1391 1550T1362 1544Q1338 1544 1318 1557T1279 1586T1243 1615T1210 1628Q1184
1628 1169 1609T1147 1568Z" />
<glyph unicode="&#xc4;" glyph-name="Adieresis" horiz-adv-x="1577" d="M12 293Q17 251 30 206T68 125T133 65T231 41Q289 41 344 62T451 123T554 215T651 334Q596 332 541 330T428 324Q416 324 401 321T383 317Q373 317 373 330Q373 336 376 344T387 359T404
372T428 377Q456 377 524 379T686 387Q757 491 821 611T942 849T1050 1077T1145 1270T1226 1404T1294 1454Q1313 1454 1324 1442T1341 1409T1348 1362T1350 1307Q1350 1189 1341 1077T1319 854T1294 633T1274 408Q1302 410 1328 410T1378 410H1421Q1444 410 1461
409T1479 397Q1479 385 1468 372T1430 358Q1388 356 1349 356T1270 356Q1268 318 1268 281T1268 205Q1268 173 1272 141T1288 84T1321 42T1378 25Q1403 25 1427 37T1474 70T1514 116T1544 166L1556 160Q1544 134 1527 98T1485 29T1429 -27T1354 -51Q1279 -51 1247
7T1214 184Q1214 226 1214 268T1219 354Q1084 351 956 347T694 336Q640 256 583 188T466 69T345 -10T221 -39Q175 -39 142 -23T86 21T48 84T23 155T9 227T0 291L12 293ZM731 389Q789 391 851 393T976 398T1101 403T1221 408Q1227 518 1236 633T1254 864T1269 1091T1276
1307Q1276 1314 1276 1327T1274 1352T1271 1373T1266 1382Q1252 1382 1226 1338T1162 1218T1079 1043T977 833T860 608T731 389ZM1163 1597Q1163 1616 1176 1629T1208 1642Q1227 1642 1240 1629T1253 1597Q1253 1578 1240 1565T1208 1552Q1190 1552 1177 1565T1163
1597ZM1335 1597Q1335 1616 1348 1629T1380 1642Q1399 1642 1412 1629T1425 1597Q1425 1578 1412 1565T1380 1552Q1362 1552 1349 1565T1335 1597Z" />
<glyph unicode="&#xc5;" glyph-name="Aring" horiz-adv-x="1577" d="M12 293Q17 251 30 206T68 125T133 65T231 41Q289 41 344 62T451 123T554 215T651 334Q596 332 541 330T428 324Q416 324 401 321T383 317Q373 317 373 330Q373 336 376 344T387 359T404 372T428
377Q456 377 524 379T686 387Q757 491 821 611T942 849T1050 1077T1145 1270T1226 1404T1294 1454Q1313 1454 1324 1442T1341 1409T1348 1362T1350 1307Q1350 1189 1341 1077T1319 854T1294 633T1274 408Q1302 410 1328 410T1378 410H1421Q1444 410 1461 409T1479
397Q1479 385 1468 372T1430 358Q1388 356 1349 356T1270 356Q1268 318 1268 281T1268 205Q1268 173 1272 141T1288 84T1321 42T1378 25Q1403 25 1427 37T1474 70T1514 116T1544 166L1556 160Q1544 134 1527 98T1485 29T1429 -27T1354 -51Q1279 -51 1247 7T1214
184Q1214 226 1214 268T1219 354Q1084 351 956 347T694 336Q640 256 583 188T466 69T345 -10T221 -39Q175 -39 142 -23T86 21T48 84T23 155T9 227T0 291L12 293ZM731 389Q789 391 851 393T976 398T1101 403T1221 408Q1227 518 1236 633T1254 864T1269 1091T1276
1307Q1276 1314 1276 1327T1274 1352T1271 1373T1266 1382Q1252 1382 1226 1338T1162 1218T1079 1043T977 833T860 608T731 389ZM1148 1658Q1148 1697 1164 1727T1205 1777T1260 1809T1318 1820Q1342 1820 1365 1812T1408 1785T1438 1740T1450 1675Q1450 1640 1436
1612T1398 1565T1346 1534T1286 1523Q1261 1523 1237 1531T1193 1555T1161 1597T1148 1658ZM1187 1681Q1188 1652 1198 1630T1226 1592T1264 1568T1310 1560Q1329 1560 1347 1566T1378 1585T1400 1616T1409 1658Q1409 1714 1375 1747T1292 1781Q1274 1781 1255
1775T1221 1757T1196 1725T1187 1681Z" />
<glyph unicode="&#xc6;" glyph-name="AE" horiz-adv-x="2335" d="M1481 31Q1450 -13 1418 -32T1354 -51Q1317 -51 1291 -41T1247 -7T1222 57T1214 156Q1214 202 1215 251T1219 352H1214Q1124 350 1055 349T926 347T811 343T696 338Q641 257 583 188T466 69T345
-10T221 -39Q175 -39 142 -23T86 21T48 84T23 155T9 227T0 291L12 293Q17 251 30 206T68 125T133 65T231 41Q289 41 344 62T451 123T554 215T651 334Q603 332 550 330T428 324Q416 324 401 321T383 317Q373 317 373 330Q373 336 376 344T387 359T404 372T428 377Q462
377 530 379T688 387Q758 492 822 612T943 850T1050 1078T1145 1270T1226 1404T1294 1454Q1313 1454 1324 1442T1341 1409T1348 1362T1350 1307Q1350 1208 1345 1116T1331 930Q1365 1010 1417 1084T1535 1222T1678 1340T1840 1430T2013 1488T2193 1509Q2241 1509
2297 1498T2403 1459T2486 1385T2519 1270Q2519 1217 2486 1152T2384 1028L2376 1036Q2424 1086 2443 1137T2462 1247Q2462 1302 2434 1339T2363 1400T2273 1432T2183 1442Q2072 1442 1964 1415T1760 1337T1581 1217T1439 1062T1345 879T1311 676Q1311 593 1339
518T1419 381T1539 278T1690 219Q1700 263 1722 302T1775 370T1843 417T1921 434Q1964 434 1993 411T2023 336Q2023 287 1999 252T1938 195T1856 163T1767 152Q1755 152 1743 152T1720 154Q1722 118 1739 89T1783 39T1844 7T1915 -4Q2048 -4 2172 75T2398 307L2410
299Q2399 282 2376 249T2318 174T2240 89T2143 10T2031 -49T1905 -72Q1803 -72 1744 -14T1683 158Q1606 168 1542 197T1429 272T1345 376T1292 506Q1287 432 1284 357T1280 205Q1280 173 1282 138T1293 74T1323 26T1378 6Q1415 6 1434 16T1466 39L1481 31ZM1221
403Q1227 514 1236 631T1254 864T1269 1093T1276 1307Q1276 1314 1276 1327T1274 1352T1271 1373T1266 1382Q1252 1382 1226 1338T1162 1218T1079 1043T977 833T860 609T731 389Q833 394 945 398T1163 403H1206H1221ZM1917 381Q1875 381 1842 368T1785 333T1746
280T1724 213Q1738 211 1752 211T1780 211Q1814 211 1852 217T1921 238T1972 274T1993 326Q1993 341 1986 351T1968 368T1944 378T1917 381Z" />
<glyph unicode="&#xc7;" glyph-name="Ccedilla" horiz-adv-x="1120" d="M1081 371Q1076 343 1063 299T1027 205T969 103T883 10T766 -59T614 -88Q606 -113 602 -133T598 -172Q604 -169 615 -166T643 -162Q677 -162 696 -183T715 -238Q715 -253 710 -272T691 -308T654
-336T594 -348Q585 -348 573 -347T548 -343T523 -335T500 -322Q494 -318 495 -307T501 -287T510 -273T518 -279Q535 -290 555 -293T606 -297Q618 -297 631 -296T655 -289T673 -274T680 -248Q680 -203 627 -203Q604 -203 592 -208T571 -213Q563 -213 563 -205Q563
-198 566 -185T574 -155T584 -122T594 -90Q495 -89 403 -41T240 98T127 318T84 612Q84 729 105 841T165 1052T261 1234T390 1378T548 1471T731 1505Q804 1505 862 1483T960 1423T1022 1334T1044 1223Q1044 1184 1033 1147T1005 1077T972 1018T942 975L930 985Q942
1001 952 1022T971 1069T984 1121T989 1178Q989 1231 971 1278T917 1360T832 1417T717 1438Q621 1438 541 1410T396 1330T284 1207T203 1049T155 866T139 666Q139 585 152 503T193 343T260 199T354 81T475 2T623 -27Q729 -27 805 10T933 106T1015 236T1061 375L1081
371Z" />
<glyph unicode="&#xc8;" glyph-name="Egrave" horiz-adv-x="1061" d="M1137 299Q1126 282 1103 249T1045 174T967 89T869 10T756 -49T631 -72Q529 -72 471 -15T410 158Q312 171 236 214T108 323T28 476T0 664Q0 773 36 878T137 1077T289 1250T479 1386T693 1476T920
1509Q968 1509 1024 1498T1130 1459T1212 1385T1245 1270Q1245 1217 1212 1152T1110 1028L1102 1036Q1150 1086 1169 1137T1188 1247Q1188 1302 1160 1339T1089 1400T999 1432T909 1442Q798 1442 690 1415T486 1337T307 1217T165 1062T71 879T37 676Q37 593 65
518T145 381T265 278T416 219Q426 263 448 302T501 370T569 417T647 434Q691 434 720 411T750 336Q750 287 726 252T665 195T582 163T494 152Q481 152 469 152T446 154Q449 118 466 89T509 39T570 7T641 -4Q774 -4 898 75T1124 307L1137 299ZM643 381Q601 381 568
368T511 333T472 280T451 213Q465 211 478 211T506 211Q540 211 578 217T647 238T698 274T719 326Q719 341 712 351T694 368T670 378T643 381ZM737 1739Q727 1739 727 1747Q727 1753 731 1762T741 1779T754 1792T768 1798Q772 1798 774 1796Q796 1772 815 1749T854
1704T892 1661T934 1620Q936 1618 936 1610Q936 1601 929 1591T913 1581Q905 1581 903 1585Q863 1632 817 1670T737 1739Z" />
<glyph unicode="&#xc9;" glyph-name="Eacute" horiz-adv-x="1061" d="M1137 299Q1126 282 1103 249T1045 174T967 89T869 10T756 -49T631 -72Q529 -72 471 -15T410 158Q312 171 236 214T108 323T28 476T0 664Q0 773 36 878T137 1077T289 1250T479 1386T693 1476T920
1509Q968 1509 1024 1498T1130 1459T1212 1385T1245 1270Q1245 1217 1212 1152T1110 1028L1102 1036Q1150 1086 1169 1137T1188 1247Q1188 1302 1160 1339T1089 1400T999 1432T909 1442Q798 1442 690 1415T486 1337T307 1217T165 1062T71 879T37 676Q37 593 65
518T145 381T265 278T416 219Q426 263 448 302T501 370T569 417T647 434Q691 434 720 411T750 336Q750 287 726 252T665 195T582 163T494 152Q481 152 469 152T446 154Q449 118 466 89T509 39T570 7T641 -4Q774 -4 898 75T1124 307L1137 299ZM643 381Q601 381 568
368T511 333T472 280T451 213Q465 211 478 211T506 211Q540 211 578 217T647 238T698 274T719 326Q719 341 712 351T694 368T670 378T643 381ZM858 1587Q852 1581 844 1581Q838 1581 834 1586T827 1598Q827 1605 834 1612Q883 1655 927 1702T1002 1784Q1004 1786
1006 1786Q1011 1786 1019 1782T1036 1771T1049 1757T1055 1743Q1055 1741 1054 1741T1051 1739Q1007 1702 957 1664T858 1587Z" />
<glyph unicode="&#xca;" glyph-name="Ecircumflex" horiz-adv-x="1061" d="M1137 299Q1126 282 1103 249T1045 174T967 89T869 10T756 -49T631 -72Q529 -72 471 -15T410 158Q312 171 236 214T108 323T28 476T0 664Q0 773 36 878T137 1077T289 1250T479 1386T693
1476T920 1509Q968 1509 1024 1498T1130 1459T1212 1385T1245 1270Q1245 1217 1212 1152T1110 1028L1102 1036Q1150 1086 1169 1137T1188 1247Q1188 1302 1160 1339T1089 1400T999 1432T909 1442Q798 1442 690 1415T486 1337T307 1217T165 1062T71 879T37 676Q37
593 65 518T145 381T265 278T416 219Q426 263 448 302T501 370T569 417T647 434Q691 434 720 411T750 336Q750 287 726 252T665 195T582 163T494 152Q481 152 469 152T446 154Q449 118 466 89T509 39T570 7T641 -4Q774 -4 898 75T1124 307L1137 299ZM643 381Q601
381 568 368T511 333T472 280T451 213Q465 211 478 211T506 211Q540 211 578 217T647 238T698 274T719 326Q719 341 712 351T694 368T670 378T643 381ZM737 1585Q733 1581 731 1581Q725 1581 721 1588T716 1604Q716 1609 728 1624T758 1658T798 1698T839 1736T871
1765T888 1776Q890 1776 897 1776T911 1774T925 1767T933 1753Q947 1719 968 1687T1024 1626Q1027 1623 1029 1619T1032 1612Q1032 1601 1019 1593T985 1585Q969 1598 954 1619T925 1661T900 1697T880 1712Q872 1712 856 1699T819 1667T777 1626T737 1585Z" />
<glyph unicode="&#xcb;" glyph-name="Edieresis" horiz-adv-x="1061" d="M1137 299Q1126 282 1103 249T1045 174T967 89T869 10T756 -49T631 -72Q529 -72 471 -15T410 158Q312 171 236 214T108 323T28 476T0 664Q0 773 36 878T137 1077T289 1250T479 1386T693
1476T920 1509Q968 1509 1024 1498T1130 1459T1212 1385T1245 1270Q1245 1217 1212 1152T1110 1028L1102 1036Q1150 1086 1169 1137T1188 1247Q1188 1302 1160 1339T1089 1400T999 1432T909 1442Q798 1442 690 1415T486 1337T307 1217T165 1062T71 879T37 676Q37
593 65 518T145 381T265 278T416 219Q426 263 448 302T501 370T569 417T647 434Q691 434 720 411T750 336Q750 287 726 252T665 195T582 163T494 152Q481 152 469 152T446 154Q449 118 466 89T509 39T570 7T641 -4Q774 -4 898 75T1124 307L1137 299ZM643 381Q601
381 568 368T511 333T472 280T451 213Q465 211 478 211T506 211Q540 211 578 217T647 238T698 274T719 326Q719 341 712 351T694 368T670 378T643 381ZM737 1655Q737 1674 750 1687T782 1700Q801 1700 814 1687T827 1655Q827 1636 814 1623T782 1610Q764 1610 751
1623T737 1655ZM909 1655Q909 1674 922 1687T954 1700Q973 1700 986 1687T999 1655Q999 1636 986 1623T954 1610Q936 1610 923 1623T909 1655Z" />
<glyph unicode="&#xcc;" glyph-name="Igrave" horiz-adv-x="872" d="M653 43Q638 46 624 49T594 55Q560 6 511 -21T393 -49Q350 -49 331 -35T311 0Q311 14 323 28T359 53T417 72T494 80Q509 80 524 79T553 76Q591 137 610 229T638 430T651 659T660 894T679 1114T721
1296Q654 1289 579 1282T431 1258T292 1214T174 1138T93 1020T63 848Q63 806 75 765T111 692T171 641T256 621Q299 621 330 633T384 662T422 697T449 729L459 723Q450 708 432 681T386 627T320 581T231 561Q174 561 131 583T59 642T15 722T0 811Q0 919 36 998T133
1134T272 1228T434 1290T598 1328T748 1354Q777 1406 819 1435T922 1464Q940 1464 957 1450T975 1407Q975 1380 960 1362T916 1332T851 1313T768 1300Q745 1228 737 1128T724 914T718 679T704 446T671 236T604 70Q617 67 630 64T657 57L653 43ZM489 10Q503 20 516
32T541 59Q531 61 522 61T502 61Q464 61 440 57T401 46T381 31T375 14Q375 3 384 -3T416 -10Q433 -10 451 -6T489 10ZM915 1432Q875 1432 845 1416T793 1362Q856 1373 895 1385T934 1421Q934 1429 927 1430T915 1432ZM428 1614Q418 1614 418 1622Q418 1628 422
1637T432 1654T445 1667T459 1673Q463 1673 465 1671Q487 1647 506 1624T545 1579T583 1536T625 1495Q627 1493 627 1485Q627 1476 620 1466T604 1456Q596 1456 594 1460Q554 1507 508 1545T428 1614Z" />
<glyph unicode="&#xcd;" glyph-name="Iacute" horiz-adv-x="872" d="M653 43Q638 46 624 49T594 55Q560 6 511 -21T393 -49Q350 -49 331 -35T311 0Q311 14 323 28T359 53T417 72T494 80Q509 80 524 79T553 76Q591 137 610 229T638 430T651 659T660 894T679 1114T721
1296Q654 1289 579 1282T431 1258T292 1214T174 1138T93 1020T63 848Q63 806 75 765T111 692T171 641T256 621Q299 621 330 633T384 662T422 697T449 729L459 723Q450 708 432 681T386 627T320 581T231 561Q174 561 131 583T59 642T15 722T0 811Q0 919 36 998T133
1134T272 1228T434 1290T598 1328T748 1354Q777 1406 819 1435T922 1464Q940 1464 957 1450T975 1407Q975 1380 960 1362T916 1332T851 1313T768 1300Q745 1228 737 1128T724 914T718 679T704 446T671 236T604 70Q617 67 630 64T657 57L653 43ZM489 10Q503 20 516
32T541 59Q531 61 522 61T502 61Q464 61 440 57T401 46T381 31T375 14Q375 3 384 -3T416 -10Q433 -10 451 -6T489 10ZM915 1432Q875 1432 845 1416T793 1362Q856 1373 895 1385T934 1421Q934 1429 927 1430T915 1432ZM549 1462Q543 1456 535 1456Q529 1456 525
1461T518 1473Q518 1480 525 1487Q574 1530 618 1577T693 1659Q695 1661 697 1661Q702 1661 710 1657T727 1646T740 1632T746 1618Q746 1616 745 1616T742 1614Q698 1577 648 1539T549 1462Z" />
<glyph unicode="&#xce;" glyph-name="Icircumflex" horiz-adv-x="872" d="M653 43Q638 46 624 49T594 55Q560 6 511 -21T393 -49Q350 -49 331 -35T311 0Q311 14 323 28T359 53T417 72T494 80Q509 80 524 79T553 76Q591 137 610 229T638 430T651 659T660 894T679
1114T721 1296Q654 1289 579 1282T431 1258T292 1214T174 1138T93 1020T63 848Q63 806 75 765T111 692T171 641T256 621Q299 621 330 633T384 662T422 697T449 729L459 723Q450 708 432 681T386 627T320 581T231 561Q174 561 131 583T59 642T15 722T0 811Q0 919
36 998T133 1134T272 1228T434 1290T598 1328T748 1354Q777 1406 819 1435T922 1464Q940 1464 957 1450T975 1407Q975 1380 960 1362T916 1332T851 1313T768 1300Q745 1228 737 1128T724 914T718 679T704 446T671 236T604 70Q617 67 630 64T657 57L653 43ZM489
10Q503 20 516 32T541 59Q531 61 522 61T502 61Q464 61 440 57T401 46T381 31T375 14Q375 3 384 -3T416 -10Q433 -10 451 -6T489 10ZM915 1432Q875 1432 845 1416T793 1362Q856 1373 895 1385T934 1421Q934 1429 927 1430T915 1432ZM428 1460Q424 1456 422 1456Q416
1456 412 1463T407 1479Q407 1484 419 1499T449 1533T489 1573T530 1611T562 1640T579 1651Q581 1651 588 1651T602 1649T616 1642T624 1628Q638 1594 659 1562T715 1501Q718 1498 720 1494T723 1487Q723 1476 710 1468T676 1460Q660 1473 645 1494T616 1536T591
1572T571 1587Q563 1587 547 1574T510 1542T468 1501T428 1460Z" />
<glyph unicode="&#xcf;" glyph-name="Idieresis" horiz-adv-x="872" d="M653 43Q638 46 624 49T594 55Q560 6 511 -21T393 -49Q350 -49 331 -35T311 0Q311 14 323 28T359 53T417 72T494 80Q509 80 524 79T553 76Q591 137 610 229T638 430T651 659T660 894T679
1114T721 1296Q654 1289 579 1282T431 1258T292 1214T174 1138T93 1020T63 848Q63 806 75 765T111 692T171 641T256 621Q299 621 330 633T384 662T422 697T449 729L459 723Q450 708 432 681T386 627T320 581T231 561Q174 561 131 583T59 642T15 722T0 811Q0 919
36 998T133 1134T272 1228T434 1290T598 1328T748 1354Q777 1406 819 1435T922 1464Q940 1464 957 1450T975 1407Q975 1380 960 1362T916 1332T851 1313T768 1300Q745 1228 737 1128T724 914T718 679T704 446T671 236T604 70Q617 67 630 64T657 57L653 43ZM489
10Q503 20 516 32T541 59Q531 61 522 61T502 61Q464 61 440 57T401 46T381 31T375 14Q375 3 384 -3T416 -10Q433 -10 451 -6T489 10ZM915 1432Q875 1432 845 1416T793 1362Q856 1373 895 1385T934 1421Q934 1429 927 1430T915 1432ZM428 1530Q428 1549 441 1562T473
1575Q492 1575 505 1562T518 1530Q518 1511 505 1498T473 1485Q455 1485 442 1498T428 1530ZM600 1530Q600 1549 613 1562T645 1575Q664 1575 677 1562T690 1530Q690 1511 677 1498T645 1485Q627 1485 614 1498T600 1530Z" />
<glyph unicode="&#xd0;" glyph-name="Eth" horiz-adv-x="1444" d="M627 350Q627 376 627 405T629 467Q595 456 556 450T473 444Q354 444 266 483T118 587T30 739T0 920Q0 1018 29 1102T108 1257T228 1381T378 1473T545 1530T721 1550Q877 1550 1004 1502T1221
1362T1360 1134T1409 823Q1409 745 1398 650T1361 458T1296 270T1199 107T1066 -8T895 -51Q832 -51 779 -30T680 12Q660 -31 623 -55T537 -80Q522 -80 504 -75T469 -60T443 -35T432 2Q432 23 442 38T468 64T506 80T551 86Q573 86 594 83T637 74V92Q637 126 634
168T629 260Q575 257 525 255T430 252Q428 253 427 254Q424 255 424 260Q424 272 430 283T442 295Q476 295 526 296T627 297V350ZM897 272Q847 272 795 271T690 266Q692 220 695 185T698 109Q698 95 697 83T694 59Q744 42 792 26T895 10Q984 10 1052 42T1170 130T1253
259T1306 414T1334 581T1343 745Q1343 905 1301 1042T1177 1281T975 1439T698 1497Q550 1497 431 1458T227 1345T97 1161T51 911Q51 824 86 748T181 616T316 528T473 496Q567 496 629 508Q634 579 642 659T670 831Q672 844 674 858T676 874Q676 884 676 894T684
905Q689 905 697 899T712 885T724 867T729 852Q712 780 704 694T690 522Q732 535 760 549T811 580L817 569Q799 552 767 531T690 489Q688 452 688 419T688 354V299H741Q745 299 760 299T794 299T836 299T876 298T906 295T918 291Q918 282 911 277T897 272ZM549
-33Q590 -33 608 -13T633 35Q611 43 592 48T553 53Q524 53 501 43T477 10Q477 -10 498 -21T549 -33Z" />
<glyph unicode="&#xd1;" glyph-name="Ntilde" horiz-adv-x="1305" d="M2075 1411Q2055 1441 2033 1470T1980 1524T1907 1562T1806 1577Q1701 1577 1618 1526T1471 1388T1360 1185T1279 940T1222 675T1184 414T1159 178T1141 -10Q1136 -26 1119 -38T1090 -51Q1076
-51 1073 -25Q1065 30 1055 106T1031 268T999 446T957 626T900 792T827 932Q807 861 780 774T721 593T650 401T569 212T481 42T387 -97T288 -190T186 -225Q138 -225 105 -207T49 -166T16 -120T0 -90L8 -84Q17 -94 30 -106T65 -130T116 -148T188 -156Q243 -156 295
-121T395 -25T488 116T571 287T644 473T708 659T759 830T799 971Q761 1019 713 1046T608 1073Q558 1073 519 1057T454 1015T413 953T399 881Q399 841 411 810T440 755T476 715T510 690L502 680Q492 685 469 702T422 746T380 811T362 893Q362 954 383 998T439 1072T517
1115T606 1130Q669 1130 721 1106T817 1038Q820 1048 823 1058T829 1075Q834 1090 841 1097T856 1108T868 1111T874 1112Q871 1095 864 1068T848 1006Q893 950 928 877T990 721T1036 553T1070 386T1094 234T1114 111Q1122 195 1135 306T1167 541T1213 796T1279
1049T1367 1282T1481 1474T1624 1603T1802 1651Q1849 1651 1887 1638T1954 1604T2005 1557T2042 1505T2068 1455T2083 1415L2075 1411ZM942 1274Q942 1262 934 1254T917 1246Q908 1246 905 1258Q912 1292 926 1317T957 1358T990 1381T1018 1389Q1038 1389 1058
1375T1097 1344T1135 1313T1169 1299Q1186 1299 1198 1306T1219 1323T1233 1346T1243 1369V1371Q1243 1376 1249 1379T1263 1383Q1274 1383 1274 1375Q1264 1339 1250 1315T1219 1276T1186 1256T1157 1250Q1133 1250 1113 1263T1074 1292T1038 1321T1005 1334Q979
1334 964 1315T942 1274Z" />
<glyph unicode="&#xd2;" glyph-name="Ograve" horiz-adv-x="1174" d="M602 -4Q685 -4 752 25T872 103T964 216T1028 353T1065 499T1077 641Q1077 744 1063 843T1024 1032Q1024 1034 1017 1036T1010 1047Q1010 1052 1015 1060T1029 1075T1047 1088T1065 1094Q1074
1094 1082 1075T1097 1025T1109 955T1119 875T1126 796T1128 729Q1128 652 1116 563T1076 384T1007 213T903 67T762 -34T580 -72Q492 -72 421 -42T293 40T197 163T130 316T91 488T78 668Q78 766 96 868T149 1066T238 1248T363 1396T525 1497T723 1534Q803 1534
862 1507T960 1436T1018 1339T1038 1235Q1038 1175 1015 1120T938 1014L926 1030Q963 1067 974 1110T985 1196Q985 1249 962 1298T897 1385T802 1445T686 1468Q585 1468 506 1434T365 1342T261 1208T190 1048T150 876T137 709Q137 639 148 559T182 399T242 247T330
119T449 30T602 -4ZM580 1761Q570 1761 570 1769Q570 1775 574 1784T584 1801T597 1814T611 1820Q615 1820 617 1818Q639 1794 658 1771T697 1726T735 1683T777 1642Q779 1640 779 1632Q779 1623 772 1613T756 1603Q748 1603 746 1607Q706 1654 660 1692T580 1761Z"
/>
<glyph unicode="&#xd3;" glyph-name="Oacute" horiz-adv-x="1174" d="M602 -4Q685 -4 752 25T872 103T964 216T1028 353T1065 499T1077 641Q1077 744 1063 843T1024 1032Q1024 1034 1017 1036T1010 1047Q1010 1052 1015 1060T1029 1075T1047 1088T1065 1094Q1074
1094 1082 1075T1097 1025T1109 955T1119 875T1126 796T1128 729Q1128 652 1116 563T1076 384T1007 213T903 67T762 -34T580 -72Q492 -72 421 -42T293 40T197 163T130 316T91 488T78 668Q78 766 96 868T149 1066T238 1248T363 1396T525 1497T723 1534Q803 1534
862 1507T960 1436T1018 1339T1038 1235Q1038 1175 1015 1120T938 1014L926 1030Q963 1067 974 1110T985 1196Q985 1249 962 1298T897 1385T802 1445T686 1468Q585 1468 506 1434T365 1342T261 1208T190 1048T150 876T137 709Q137 639 148 559T182 399T242 247T330
119T449 30T602 -4ZM700 1609Q694 1603 686 1603Q680 1603 676 1608T669 1620Q669 1627 676 1634Q725 1677 769 1724T844 1806Q846 1808 848 1808Q853 1808 861 1804T878 1793T891 1779T897 1765Q897 1763 896 1763T893 1761Q849 1724 799 1686T700 1609Z" />
<glyph unicode="&#xd4;" glyph-name="Ocircumflex" horiz-adv-x="1174" d="M602 -4Q685 -4 752 25T872 103T964 216T1028 353T1065 499T1077 641Q1077 744 1063 843T1024 1032Q1024 1034 1017 1036T1010 1047Q1010 1052 1015 1060T1029 1075T1047 1088T1065 1094Q1074
1094 1082 1075T1097 1025T1109 955T1119 875T1126 796T1128 729Q1128 652 1116 563T1076 384T1007 213T903 67T762 -34T580 -72Q492 -72 421 -42T293 40T197 163T130 316T91 488T78 668Q78 766 96 868T149 1066T238 1248T363 1396T525 1497T723 1534Q803 1534
862 1507T960 1436T1018 1339T1038 1235Q1038 1175 1015 1120T938 1014L926 1030Q963 1067 974 1110T985 1196Q985 1249 962 1298T897 1385T802 1445T686 1468Q585 1468 506 1434T365 1342T261 1208T190 1048T150 876T137 709Q137 639 148 559T182 399T242 247T330
119T449 30T602 -4ZM580 1607Q576 1603 574 1603Q568 1603 564 1610T559 1626Q559 1631 571 1646T601 1680T641 1720T682 1758T714 1787T731 1798Q733 1798 740 1798T754 1796T768 1789T776 1775Q790 1741 811 1709T867 1648Q870 1645 872 1641T875 1634Q875 1623
862 1615T828 1607Q812 1620 797 1641T768 1683T743 1719T723 1734Q715 1734 699 1721T662 1689T620 1648T580 1607Z" />
<glyph unicode="&#xd5;" glyph-name="Otilde" horiz-adv-x="1174" d="M602 -4Q685 -4 752 25T872 103T964 216T1028 353T1065 499T1077 641Q1077 744 1063 843T1024 1032Q1024 1034 1017 1036T1010 1047Q1010 1052 1015 1060T1029 1075T1047 1088T1065 1094Q1074
1094 1082 1075T1097 1025T1109 955T1119 875T1126 796T1128 729Q1128 652 1116 563T1076 384T1007 213T903 67T762 -34T580 -72Q492 -72 421 -42T293 40T197 163T130 316T91 488T78 668Q78 766 96 868T149 1066T238 1248T363 1396T525 1497T723 1534Q803 1534
862 1507T960 1436T1018 1339T1038 1235Q1038 1175 1015 1120T938 1014L926 1030Q963 1067 974 1110T985 1196Q985 1249 962 1298T897 1385T802 1445T686 1468Q585 1468 506 1434T365 1342T261 1208T190 1048T150 876T137 709Q137 639 148 559T182 399T242 247T330
119T449 30T602 -4ZM563 1648Q563 1636 555 1628T538 1620Q529 1620 526 1632Q533 1666 547 1691T578 1732T611 1755T639 1763Q659 1763 679 1749T718 1718T756 1687T790 1673Q807 1673 819 1680T840 1697T854 1720T864 1743V1745Q864 1750 870 1753T884 1757Q895
1757 895 1749Q885 1713 871 1689T840 1650T807 1630T778 1624Q754 1624 734 1637T695 1666T659 1695T626 1708Q600 1708 585 1689T563 1648Z" />
<glyph unicode="&#xd6;" glyph-name="Odieresis" horiz-adv-x="1174" d="M602 -4Q685 -4 752 25T872 103T964 216T1028 353T1065 499T1077 641Q1077 744 1063 843T1024 1032Q1024 1034 1017 1036T1010 1047Q1010 1052 1015 1060T1029 1075T1047 1088T1065 1094Q1074
1094 1082 1075T1097 1025T1109 955T1119 875T1126 796T1128 729Q1128 652 1116 563T1076 384T1007 213T903 67T762 -34T580 -72Q492 -72 421 -42T293 40T197 163T130 316T91 488T78 668Q78 766 96 868T149 1066T238 1248T363 1396T525 1497T723 1534Q803 1534
862 1507T960 1436T1018 1339T1038 1235Q1038 1175 1015 1120T938 1014L926 1030Q963 1067 974 1110T985 1196Q985 1249 962 1298T897 1385T802 1445T686 1468Q585 1468 506 1434T365 1342T261 1208T190 1048T150 876T137 709Q137 639 148 559T182 399T242 247T330
119T449 30T602 -4ZM579 1677Q579 1696 592 1709T624 1722Q643 1722 656 1709T669 1677Q669 1658 656 1645T624 1632Q606 1632 593 1645T579 1677ZM751 1677Q751 1696 764 1709T796 1722Q815 1722 828 1709T841 1677Q841 1658 828 1645T796 1632Q778 1632 765 1645T751
1677Z" />
<glyph unicode="&#xd7;" glyph-name="multiply" horiz-adv-x="860" d="M737 297Q747 288 739 276T721 254Q716 249 711 249T700 254Q642 311 576 374T444 500Q412 467 380 433T317 367T256 304T199 246Q196 243 190 248Q185 252 178 258T165 272T156 284T156 293L403
541Q392 552 381 562T360 584Q341 603 313 632T254 692T195 754T147 805Q144 808 147 813T157 825T169 837T180 848Q185 851 188 848Q209 825 237 796T295 736T354 676T406 623Q415 613 424 603T444 582Q461 600 479 617T512 649Q517 655 533 672T572 711T620 757T666
801T702 833T719 844Q722 840 728 833T739 819T746 804T745 793Q725 774 696 746T635 688T575 630T526 582Q517 571 507 562T485 541Q517 509 551 477T618 413T681 352T737 297Z" />
<glyph unicode="&#xd8;" glyph-name="Oslash" horiz-adv-x="1174" d="M1096 1634Q1099 1637 1113 1638T1135 1638Q1143 1638 1148 1634T1153 1624Q1153 1622 1151 1620L1149 1618Q1117 1559 1082 1496T1008 1364Q1038 1299 1038 1235Q1038 1175 1015 1120T938
1014L926 1030Q963 1067 974 1110T985 1196Q985 1219 980 1242T965 1288Q887 1150 803 1002T634 704T467 411T311 139Q365 74 436 35T602 -4Q685 -4 752 25T872 103T964 216T1028 353T1065 499T1077 641Q1077 744 1063 843T1024 1032Q1024 1034 1017 1036T1010
1047Q1010 1052 1015 1060T1029 1075T1047 1088T1065 1094Q1074 1094 1082 1075T1097 1025T1109 955T1119 875T1126 796T1128 729Q1128 652 1116 563T1076 384T1007 213T903 67T762 -34T580 -72Q481 -72 405 -35T270 63Q235 0 203 -56T143 -164Q141 -175 135 -178T121
-180Q108 -178 98 -170T96 -147Q127 -93 162 -31T238 102Q196 156 166 222T117 361T88 512T78 668Q78 766 96 868T149 1066T238 1248T363 1396T525 1497T723 1534Q810 1534 872 1502T973 1419Q1007 1478 1037 1531T1096 1634ZM137 709Q137 647 145 578T170 439T215
303T281 180Q355 312 438 460T605 759T773 1061T932 1346Q912 1373 885 1395T827 1433T759 1459T686 1468Q585 1468 506 1434T365 1342T261 1208T190 1048T150 876T137 709Z" />
<glyph unicode="&#xd9;" glyph-name="Ugrave" horiz-adv-x="1348" d="M1286 285Q1272 263 1248 227T1188 147Q1194 109 1201 75T1219 12H1223Q1227 12 1227 8Q1227 3 1222 -5T1208 -22T1189 -36T1169 -43Q1157 -43 1145 -11T1120 78Q1085 45 1045 15T957 -39T858
-76T748 -90Q694 -90 639 -73T538 -15T465 92T436 256Q436 320 449 391T483 539T526 694T569 852T602 1008T616 1159Q616 1205 605 1243T571 1309T513 1352T430 1368Q387 1368 341 1355T251 1317T167 1261T98 1192T51 1115T33 1034Q33 1016 43 998T78 979Q96 979
113 988T141 1014L152 1008Q146 996 139 983T121 958T98 939T66 932Q46 932 34 939T14 959T3 985T0 1014Q0 1061 21 1110T78 1206T160 1294T257 1367T359 1416T455 1434Q498 1434 540 1420T614 1375T666 1299T686 1188Q686 1116 673 1040T641 886T599 727T557 567T525
407T512 252Q512 195 528 145T578 56T660 -5T774 -27Q831 -27 880 -17T972 12T1050 53T1116 104Q1108 150 1101 204T1088 317T1080 434T1077 549Q1077 784 1101 943T1166 1200T1258 1340T1364 1382Q1389 1382 1407 1372T1438 1345T1461 1311T1479 1276L1466 1268Q1446
1288 1423 1302T1362 1317Q1281 1317 1238 1259T1174 1097T1151 851T1147 541Q1147 457 1156 361T1182 174Q1211 209 1233 241T1272 295L1286 285ZM840 1628Q830 1628 830 1636Q830 1642 834 1651T844 1668T857 1681T871 1687Q875 1687 877 1685Q899 1661 918 1638T957
1593T995 1550T1037 1509Q1039 1507 1039 1499Q1039 1490 1032 1480T1016 1470Q1008 1470 1006 1474Q966 1521 920 1559T840 1628Z" />
<glyph unicode="&#xda;" glyph-name="Uacute" horiz-adv-x="1348" d="M1286 285Q1272 263 1248 227T1188 147Q1194 109 1201 75T1219 12H1223Q1227 12 1227 8Q1227 3 1222 -5T1208 -22T1189 -36T1169 -43Q1157 -43 1145 -11T1120 78Q1085 45 1045 15T957 -39T858
-76T748 -90Q694 -90 639 -73T538 -15T465 92T436 256Q436 320 449 391T483 539T526 694T569 852T602 1008T616 1159Q616 1205 605 1243T571 1309T513 1352T430 1368Q387 1368 341 1355T251 1317T167 1261T98 1192T51 1115T33 1034Q33 1016 43 998T78 979Q96 979
113 988T141 1014L152 1008Q146 996 139 983T121 958T98 939T66 932Q46 932 34 939T14 959T3 985T0 1014Q0 1061 21 1110T78 1206T160 1294T257 1367T359 1416T455 1434Q498 1434 540 1420T614 1375T666 1299T686 1188Q686 1116 673 1040T641 886T599 727T557 567T525
407T512 252Q512 195 528 145T578 56T660 -5T774 -27Q831 -27 880 -17T972 12T1050 53T1116 104Q1108 150 1101 204T1088 317T1080 434T1077 549Q1077 784 1101 943T1166 1200T1258 1340T1364 1382Q1389 1382 1407 1372T1438 1345T1461 1311T1479 1276L1466 1268Q1446
1288 1423 1302T1362 1317Q1281 1317 1238 1259T1174 1097T1151 851T1147 541Q1147 457 1156 361T1182 174Q1211 209 1233 241T1272 295L1286 285ZM960 1476Q954 1470 946 1470Q940 1470 936 1475T929 1487Q929 1494 936 1501Q985 1544 1029 1591T1104 1673Q1106
1675 1108 1675Q1113 1675 1121 1671T1138 1660T1151 1646T1157 1632Q1157 1630 1156 1630T1153 1628Q1109 1591 1059 1553T960 1476Z" />
<glyph unicode="&#xdb;" glyph-name="Ucircumflex" horiz-adv-x="1348" d="M1286 285Q1272 263 1248 227T1188 147Q1194 109 1201 75T1219 12H1223Q1227 12 1227 8Q1227 3 1222 -5T1208 -22T1189 -36T1169 -43Q1157 -43 1145 -11T1120 78Q1085 45 1045 15T957
-39T858 -76T748 -90Q694 -90 639 -73T538 -15T465 92T436 256Q436 320 449 391T483 539T526 694T569 852T602 1008T616 1159Q616 1205 605 1243T571 1309T513 1352T430 1368Q387 1368 341 1355T251 1317T167 1261T98 1192T51 1115T33 1034Q33 1016 43 998T78 979Q96
979 113 988T141 1014L152 1008Q146 996 139 983T121 958T98 939T66 932Q46 932 34 939T14 959T3 985T0 1014Q0 1061 21 1110T78 1206T160 1294T257 1367T359 1416T455 1434Q498 1434 540 1420T614 1375T666 1299T686 1188Q686 1116 673 1040T641 886T599 727T557
567T525 407T512 252Q512 195 528 145T578 56T660 -5T774 -27Q831 -27 880 -17T972 12T1050 53T1116 104Q1108 150 1101 204T1088 317T1080 434T1077 549Q1077 784 1101 943T1166 1200T1258 1340T1364 1382Q1389 1382 1407 1372T1438 1345T1461 1311T1479 1276L1466
1268Q1446 1288 1423 1302T1362 1317Q1281 1317 1238 1259T1174 1097T1151 851T1147 541Q1147 457 1156 361T1182 174Q1211 209 1233 241T1272 295L1286 285ZM840 1474Q836 1470 834 1470Q828 1470 824 1477T819 1493Q819 1498 831 1513T861 1547T901 1587T942
1625T974 1654T991 1665Q993 1665 1000 1665T1014 1663T1028 1656T1036 1642Q1050 1608 1071 1576T1127 1515Q1130 1512 1132 1508T1135 1501Q1135 1490 1122 1482T1088 1474Q1072 1487 1057 1508T1028 1550T1003 1586T983 1601Q975 1601 959 1588T922 1556T880
1515T840 1474Z" />
<glyph unicode="&#xdc;" glyph-name="Udieresis" horiz-adv-x="1348" d="M1286 285Q1272 263 1248 227T1188 147Q1194 109 1201 75T1219 12H1223Q1227 12 1227 8Q1227 3 1222 -5T1208 -22T1189 -36T1169 -43Q1157 -43 1145 -11T1120 78Q1085 45 1045 15T957 -39T858
-76T748 -90Q694 -90 639 -73T538 -15T465 92T436 256Q436 320 449 391T483 539T526 694T569 852T602 1008T616 1159Q616 1205 605 1243T571 1309T513 1352T430 1368Q387 1368 341 1355T251 1317T167 1261T98 1192T51 1115T33 1034Q33 1016 43 998T78 979Q96 979
113 988T141 1014L152 1008Q146 996 139 983T121 958T98 939T66 932Q46 932 34 939T14 959T3 985T0 1014Q0 1061 21 1110T78 1206T160 1294T257 1367T359 1416T455 1434Q498 1434 540 1420T614 1375T666 1299T686 1188Q686 1116 673 1040T641 886T599 727T557 567T525
407T512 252Q512 195 528 145T578 56T660 -5T774 -27Q831 -27 880 -17T972 12T1050 53T1116 104Q1108 150 1101 204T1088 317T1080 434T1077 549Q1077 784 1101 943T1166 1200T1258 1340T1364 1382Q1389 1382 1407 1372T1438 1345T1461 1311T1479 1276L1466 1268Q1446
1288 1423 1302T1362 1317Q1281 1317 1238 1259T1174 1097T1151 851T1147 541Q1147 457 1156 361T1182 174Q1211 209 1233 241T1272 295L1286 285ZM840 1544Q840 1563 853 1576T885 1589Q904 1589 917 1576T930 1544Q930 1525 917 1512T885 1499Q867 1499 854 1512T840
1544ZM1012 1544Q1012 1563 1025 1576T1057 1589Q1076 1589 1089 1576T1102 1544Q1102 1525 1089 1512T1057 1499Q1039 1499 1026 1512T1012 1544Z" />
<glyph unicode="&#xdd;" glyph-name="Yacute" horiz-adv-x="788" d="M203 809Q177 812 142 821T76 851T22 909T0 1004Q0 1057 21 1097T78 1163T157 1203T246 1217Q318 1217 372 1192T466 1122T532 1020T573 897T596 765T604 633Q628 730 663 834T747 1037T855
1225T989 1382T1153 1488T1346 1528Q1387 1528 1427 1516T1498 1480T1548 1421T1567 1337Q1567 1277 1544 1229T1488 1144T1423 1084T1372 1049L1364 1059Q1381 1071 1405 1090T1452 1138T1491 1208T1507 1305Q1507 1334 1497 1363T1466 1415T1411 1453T1333 1468Q1226
1468 1137 1426T974 1313T842 1147T738 946T659 729T602 514Q600 443 597 366T589 215T578 79T565 -27Q564 -38 557 -46T539 -60T519 -69T502 -72Q496 -72 491 -68T485 -55Q489 -24 495 23T509 125T523 242T536 363T545 479T549 580Q549 636 545 701T529 830T495
955T437 1060T350 1133T227 1161Q191 1161 158 1151T99 1119T58 1067T43 993Q43 948 59 918T99 868T152 837T207 819L203 809ZM643 1323Q637 1317 629 1317Q623 1317 619 1322T612 1334Q612 1341 619 1348Q668 1391 712 1438T787 1520Q789 1522 791 1522Q796 1522
804 1518T821 1507T834 1493T840 1479Q840 1477 839 1477T836 1475Q792 1438 742 1400T643 1323Z" />
<glyph unicode="&#xde;" glyph-name="Thorn" horiz-adv-x="1133" d="M334 1372Q334 1380 336 1386T346 1397Q352 1400 361 1405T379 1411Q384 1411 388 1409T393 1401Q394 1374 394 1319T391 1190T385 1027T375 840Q437 920 506 988T645 1107T786 1185T922 1214Q970
1214 1008 1202T1075 1163T1118 1089T1133 973Q1133 913 1114 840T1061 693T978 548T872 424T747 336T608 303Q558 303 523 320T462 365T421 426T396 494T384 556T379 604L399 608Q425 486 476 427T621 367Q696 367 758 394T870 468T956 572T1017 693T1053 816T1065
926Q1065 964 1057 1002T1030 1070T979 1118T899 1137Q831 1137 762 1111T625 1040T493 931T373 795Q366 692 357 587T335 385T306 203T269 55T224 -44T170 -80Q135 -80 116 -55T88 5T76 78T74 143Q74 207 91 281T139 433T213 590T307 745Q313 834 318 922T326
1092T332 1245T334 1372ZM174 6Q195 6 213 63T248 217T279 436T303 692Q264 628 232 561T177 426T142 289T129 156Q129 127 132 100T141 52T155 19T174 6Z" />
<glyph unicode="&#xdf;" glyph-name="germandbls" horiz-adv-x="479" d="M25 395Q25 433 25 490T25 615T32 758T48 905T77 1042T123 1156T190 1235T281 1264Q299 1264 317 1253T349 1218T372 1159T381 1077Q381 982 357 896T304 739T251 616T227 537Q227 507 241
480T276 425T322 371T368 315T404 254T418 186Q418 142 402 105T362 41T313 -1T270 -16Q239 -16 223 0T207 35Q207 50 212 65T223 92T236 113T246 121Q251 121 252 118T254 111Q254 106 253 97T252 82Q252 65 263 54T301 43Q312 43 326 48T353 64T374 91T383 131Q383
161 369 187T334 238T288 289T242 347T207 417T193 506Q193 557 214 615T259 738T305 878T326 1034Q326 1070 323 1102T310 1159T284 1197T240 1212Q201 1212 175 1172T133 1068T107 922T95 759T91 600T90 469Q90 243 96 66T108 -231T121 -408T127 -451Q127 -462
125 -468T115 -481Q108 -486 100 -492T82 -498Q72 -498 66 -492Q62 -487 57 -476T48 -433T39 -344T32 -189T27 50T25 395Z" />
<glyph unicode="&#xe0;" glyph-name="agrave" horiz-adv-x="514" d="M371 346Q362 346 355 356T335 379T305 401T256 412Q214 412 178 391T116 337T76 266T61 193Q61 140 88 106T160 72Q195 72 221 85T266 121Q260 148 260 188Q260 231 266 258T282 300T302 320T319
326Q327 326 337 315T348 276Q348 241 336 203T301 129Q313 98 338 84T395 70Q423 70 447 82T493 116T534 164T569 221L575 217Q563 179 543 143T497 79T441 35T377 18Q352 18 323 34T274 94Q243 57 203 33T117 8Q91 8 70 20T35 52T12 99T4 156Q4 207 26 258T86
350T172 416T274 442Q313 442 339 434T382 414T405 390T412 371Q412 357 398 352T371 346ZM287 213Q287 180 293 156Q308 184 315 213T322 264Q322 289 313 289Q304 289 296 267T287 213ZM380 680Q370 680 370 688Q370 694 374 703T384 720T397 733T411 739Q415
739 417 737Q439 713 458 690T497 645T535 602T577 561Q579 559 579 551Q579 542 572 532T556 522Q548 522 546 526Q506 573 460 611T380 680Z" />
<glyph unicode="&#xe1;" glyph-name="aacute" horiz-adv-x="514" d="M371 346Q362 346 355 356T335 379T305 401T256 412Q214 412 178 391T116 337T76 266T61 193Q61 140 88 106T160 72Q195 72 221 85T266 121Q260 148 260 188Q260 231 266 258T282 300T302 320T319
326Q327 326 337 315T348 276Q348 241 336 203T301 129Q313 98 338 84T395 70Q423 70 447 82T493 116T534 164T569 221L575 217Q563 179 543 143T497 79T441 35T377 18Q352 18 323 34T274 94Q243 57 203 33T117 8Q91 8 70 20T35 52T12 99T4 156Q4 207 26 258T86
350T172 416T274 442Q313 442 339 434T382 414T405 390T412 371Q412 357 398 352T371 346ZM287 213Q287 180 293 156Q308 184 315 213T322 264Q322 289 313 289Q304 289 296 267T287 213ZM244 528Q238 522 230 522Q224 522 220 527T213 539Q213 546 220 553Q269
596 313 643T388 725Q390 727 392 727Q397 727 405 723T422 712T435 698T441 684Q441 682 440 682T437 680Q393 643 343 605T244 528Z" />
<glyph unicode="&#xe2;" glyph-name="acircumflex" horiz-adv-x="514" d="M371 346Q362 346 355 356T335 379T305 401T256 412Q214 412 178 391T116 337T76 266T61 193Q61 140 88 106T160 72Q195 72 221 85T266 121Q260 148 260 188Q260 231 266 258T282 300T302
320T319 326Q327 326 337 315T348 276Q348 241 336 203T301 129Q313 98 338 84T395 70Q423 70 447 82T493 116T534 164T569 221L575 217Q563 179 543 143T497 79T441 35T377 18Q352 18 323 34T274 94Q243 57 203 33T117 8Q91 8 70 20T35 52T12 99T4 156Q4 207 26
258T86 350T172 416T274 442Q313 442 339 434T382 414T405 390T412 371Q412 357 398 352T371 346ZM287 213Q287 180 293 156Q308 184 315 213T322 264Q322 289 313 289Q304 289 296 267T287 213ZM380 526Q376 522 374 522Q368 522 364 529T359 545Q359 550 371
565T401 599T441 639T482 677T514 706T531 717Q533 717 540 717T554 715T568 708T576 694Q590 660 611 628T667 567Q670 564 672 560T675 553Q675 542 662 534T628 526Q612 539 597 560T568 602T543 638T523 653Q515 653 499 640T462 608T420 567T380 526Z" />
<glyph unicode="&#xe3;" glyph-name="atilde" horiz-adv-x="514" d="M371 346Q362 346 355 356T335 379T305 401T256 412Q214 412 178 391T116 337T76 266T61 193Q61 140 88 106T160 72Q195 72 221 85T266 121Q260 148 260 188Q260 231 266 258T282 300T302 320T319
326Q327 326 337 315T348 276Q348 241 336 203T301 129Q313 98 338 84T395 70Q423 70 447 82T493 116T534 164T569 221L575 217Q563 179 543 143T497 79T441 35T377 18Q352 18 323 34T274 94Q243 57 203 33T117 8Q91 8 70 20T35 52T12 99T4 156Q4 207 26 258T86
350T172 416T274 442Q313 442 339 434T382 414T405 390T412 371Q412 357 398 352T371 346ZM287 213Q287 180 293 156Q308 184 315 213T322 264Q322 289 313 289Q304 289 296 267T287 213ZM364 567Q364 555 356 547T339 539Q330 539 327 551Q334 585 348 610T379
651T412 674T440 682Q460 682 480 668T519 637T557 606T591 592Q608 592 620 599T641 616T655 639T665 662V664Q665 669 671 672T685 676Q696 676 696 668Q686 632 672 608T641 569T608 549T579 543Q555 543 535 556T496 585T460 614T427 627Q401 627 386 608T364
567Z" />
<glyph unicode="&#xe4;" glyph-name="adieresis" horiz-adv-x="514" d="M371 346Q362 346 355 356T335 379T305 401T256 412Q214 412 178 391T116 337T76 266T61 193Q61 140 88 106T160 72Q195 72 221 85T266 121Q260 148 260 188Q260 231 266 258T282 300T302
320T319 326Q327 326 337 315T348 276Q348 241 336 203T301 129Q313 98 338 84T395 70Q423 70 447 82T493 116T534 164T569 221L575 217Q563 179 543 143T497 79T441 35T377 18Q352 18 323 34T274 94Q243 57 203 33T117 8Q91 8 70 20T35 52T12 99T4 156Q4 207 26
258T86 350T172 416T274 442Q313 442 339 434T382 414T405 390T412 371Q412 357 398 352T371 346ZM287 213Q287 180 293 156Q308 184 315 213T322 264Q322 289 313 289Q304 289 296 267T287 213ZM380 596Q380 615 393 628T425 641Q444 641 457 628T470 596Q470
577 457 564T425 551Q407 551 394 564T380 596ZM552 596Q552 615 565 628T597 641Q616 641 629 628T642 596Q642 577 629 564T597 551Q579 551 566 564T552 596Z" />
<glyph unicode="&#xe5;" glyph-name="aring" horiz-adv-x="514" d="M371 346Q362 346 355 356T335 379T305 401T256 412Q214 412 178 391T116 337T76 266T61 193Q61 140 88 106T160 72Q195 72 221 85T266 121Q260 148 260 188Q260 231 266 258T282 300T302 320T319
326Q327 326 337 315T348 276Q348 241 336 203T301 129Q313 98 338 84T395 70Q423 70 447 82T493 116T534 164T569 221L575 217Q563 179 543 143T497 79T441 35T377 18Q352 18 323 34T274 94Q243 57 203 33T117 8Q91 8 70 20T35 52T12 99T4 156Q4 207 26 258T86
350T172 416T274 442Q313 442 339 434T382 414T405 390T412 371Q412 357 398 352T371 346ZM287 213Q287 180 293 156Q308 184 315 213T322 264Q322 289 313 289Q304 289 296 267T287 213ZM365 657Q365 696 381 726T422 776T477 808T535 819Q559 819 582 811T625
784T655 739T667 674Q667 639 653 611T615 564T563 533T503 522Q478 522 454 530T410 554T378 596T365 657ZM404 680Q405 651 415 629T443 591T481 567T527 559Q546 559 564 565T595 584T617 615T626 657Q626 713 592 746T509 780Q491 780 472 774T438 756T413
724T404 680Z" />
<glyph unicode="&#xe6;" glyph-name="ae" horiz-adv-x="705" d="M475 39Q550 39 600 61T682 114T733 174T760 221L766 217Q749 168 723 126T659 54T571 6T457 -12Q394 -12 353 11T297 76Q268 39 231 16T150 -8Q112 -8 85 2T39 29T13 68T4 115Q4 150 19 186T64
250T133 297T225 315Q236 315 256 313T297 299Q294 365 271 397T195 430Q159 430 129 420T68 381L61 387Q70 400 84 416T117 445T156 468T201 477Q243 477 270 464T313 428Q335 466 381 487T485 508Q507 508 529 505T575 494Q588 491 588 477Q588 473 586 467T580
454T572 443T565 438Q560 438 553 441T534 449T500 457T444 461Q396 461 364 443T332 393Q332 370 351 355T397 330T451 317T494 313Q505 313 508 310T512 303Q512 295 506 294T489 289Q463 280 436 267T387 235T350 193T336 143Q336 98 372 69T475 39ZM272 92Q281
109 285 133T292 181T294 224T295 252Q278 257 259 265T215 274Q140 274 97 244T53 150Q53 124 63 105T91 72T128 52T170 45Q202 45 230 54T272 92ZM348 291Q348 277 348 265T346 238Q365 253 381 260T408 272Q399 273 389 276Q381 278 370 281T348 291Z" />
<glyph unicode="&#xe7;" glyph-name="ccedilla" horiz-adv-x="436" d="M266 449Q281 449 297 445T326 434T347 415T356 389Q356 357 337 333T294 292Q267 273 233 258L227 268Q245 278 259 291Q271 302 281 318T291 356Q291 376 273 393T223 410Q191 410 166 394T122
351T94 291T84 223Q84 194 92 168T118 121T162 90T227 78Q264 78 292 87T339 108Q361 121 377 139L385 133Q366 103 338 78Q314 57 278 39T190 20Q184 -1 180 -20T176 -57Q182 -54 193 -51T221 -47Q255 -47 274 -68T293 -123Q293 -138 288 -157T269 -193T232 -221T172
-233Q155 -233 127 -228T78 -207Q72 -203 73 -192T79 -172T88 -158T96 -164Q113 -175 133 -178T184 -182Q196 -182 209 -181T233 -174T251 -159T258 -133Q258 -88 205 -88Q182 -88 170 -93T150 -98Q141 -98 141 -90Q141 -83 144 -71T151 -43T160 -11T170 20Q143
23 116 33T68 63T34 112T20 180Q20 233 38 282T90 368T168 427T266 449Z" />
<glyph unicode="&#xe8;" glyph-name="egrave" horiz-adv-x="446" d="M317 494Q330 491 330 477Q330 473 328 467T322 454T314 443T307 438Q302 438 295 441T275 449T241 457T186 461Q138 461 106 443T74 393Q74 370 93 355T139 330T193 317T236 313Q247 313 250
310T254 303Q254 295 248 294T231 289Q205 280 178 267T129 235T92 193T78 143Q78 98 114 69T217 39Q292 39 342 61T424 114T475 174T502 221L508 217Q491 168 465 126T401 54T313 6T199 -12Q160 -12 127 -3T70 24T33 66T20 123Q20 160 37 187T76 231T119 258T150
272Q119 277 95 289Q75 300 58 319T41 373Q41 404 56 429T96 472T155 498T227 508Q249 508 271 505T317 494ZM357 748Q347 748 347 756Q347 762 351 771T361 788T374 801T388 807Q392 807 394 805Q416 781 435 758T474 713T512 670T554 629Q556 627 556 619Q556
610 549 600T533 590Q525 590 523 594Q483 641 437 679T357 748Z" />
<glyph unicode="&#xe9;" glyph-name="eacute" horiz-adv-x="446" d="M317 494Q330 491 330 477Q330 473 328 467T322 454T314 443T307 438Q302 438 295 441T275 449T241 457T186 461Q138 461 106 443T74 393Q74 370 93 355T139 330T193 317T236 313Q247 313 250
310T254 303Q254 295 248 294T231 289Q205 280 178 267T129 235T92 193T78 143Q78 98 114 69T217 39Q292 39 342 61T424 114T475 174T502 221L508 217Q491 168 465 126T401 54T313 6T199 -12Q160 -12 127 -3T70 24T33 66T20 123Q20 160 37 187T76 231T119 258T150
272Q119 277 95 289Q75 300 58 319T41 373Q41 404 56 429T96 472T155 498T227 508Q249 508 271 505T317 494ZM221 596Q215 590 207 590Q201 590 197 595T190 607Q190 614 197 621Q246 664 290 711T365 793Q367 795 369 795Q374 795 382 791T399 780T412 766T418
752Q418 750 417 750T414 748Q370 711 320 673T221 596Z" />
<glyph unicode="&#xea;" glyph-name="ecircumflex" horiz-adv-x="446" d="M317 494Q330 491 330 477Q330 473 328 467T322 454T314 443T307 438Q302 438 295 441T275 449T241 457T186 461Q138 461 106 443T74 393Q74 370 93 355T139 330T193 317T236 313Q247 313
250 310T254 303Q254 295 248 294T231 289Q205 280 178 267T129 235T92 193T78 143Q78 98 114 69T217 39Q292 39 342 61T424 114T475 174T502 221L508 217Q491 168 465 126T401 54T313 6T199 -12Q160 -12 127 -3T70 24T33 66T20 123Q20 160 37 187T76 231T119 258T150
272Q119 277 95 289Q75 300 58 319T41 373Q41 404 56 429T96 472T155 498T227 508Q249 508 271 505T317 494ZM357 594Q353 590 351 590Q345 590 341 597T336 613Q336 618 348 633T378 667T418 707T459 745T491 774T508 785Q510 785 517 785T531 783T545 776T553
762Q567 728 588 696T644 635Q647 632 649 628T652 621Q652 610 639 602T605 594Q589 607 574 628T545 670T520 706T500 721Q492 721 476 708T439 676T397 635T357 594Z" />
<glyph unicode="&#xeb;" glyph-name="edieresis" horiz-adv-x="446" d="M317 494Q330 491 330 477Q330 473 328 467T322 454T314 443T307 438Q302 438 295 441T275 449T241 457T186 461Q138 461 106 443T74 393Q74 370 93 355T139 330T193 317T236 313Q247 313
250 310T254 303Q254 295 248 294T231 289Q205 280 178 267T129 235T92 193T78 143Q78 98 114 69T217 39Q292 39 342 61T424 114T475 174T502 221L508 217Q491 168 465 126T401 54T313 6T199 -12Q160 -12 127 -3T70 24T33 66T20 123Q20 160 37 187T76 231T119 258T150
272Q119 277 95 289Q75 300 58 319T41 373Q41 404 56 429T96 472T155 498T227 508Q249 508 271 505T317 494ZM357 664Q357 683 370 696T402 709Q421 709 434 696T447 664Q447 645 434 632T402 619Q384 619 371 632T357 664ZM529 664Q529 683 542 696T574 709Q593
709 606 696T619 664Q619 645 606 632T574 619Q556 619 543 632T529 664Z" />
<glyph unicode="&#xec;" glyph-name="igrave" horiz-adv-x="260" d="M68 416Q76 416 83 412T96 402T105 392T109 385Q109 384 107 375T101 343T95 286T92 197Q92 126 109 98T152 70Q177 70 201 85T248 124T289 178T324 240L330 236Q326 226 318 206T298 161T270
112T232 66T185 32T129 18Q108 18 91 26T60 55T39 115T31 213Q31 244 33 279T40 345T52 396T68 416ZM-34 656Q-44 656 -44 664Q-44 670 -40 679T-30 696T-17 709T-3 715Q1 715 3 713Q25 689 44 666T83 621T121 578T163 537Q165 535 165 527Q165 518 158 508T142
498Q134 498 132 502Q92 549 46 587T-34 656Z" />
<glyph unicode="&#xed;" glyph-name="iacute" horiz-adv-x="260" d="M68 416Q76 416 83 412T96 402T105 392T109 385Q109 384 107 375T101 343T95 286T92 197Q92 126 109 98T152 70Q177 70 201 85T248 124T289 178T324 240L330 236Q326 226 318 206T298 161T270
112T232 66T185 32T129 18Q108 18 91 26T60 55T39 115T31 213Q31 244 33 279T40 345T52 396T68 416ZM87 504Q81 498 73 498Q67 498 63 503T56 515Q56 522 63 529Q112 572 156 619T231 701Q233 703 235 703Q240 703 248 699T265 688T278 674T284 660Q284 658 283
658T280 656Q236 619 186 581T87 504Z" />
<glyph unicode="&#xee;" glyph-name="icircumflex" horiz-adv-x="260" d="M68 416Q76 416 83 412T96 402T105 392T109 385Q109 384 107 375T101 343T95 286T92 197Q92 126 109 98T152 70Q177 70 201 85T248 124T289 178T324 240L330 236Q326 226 318 206T298 161T270
112T232 66T185 32T129 18Q108 18 91 26T60 55T39 115T31 213Q31 244 33 279T40 345T52 396T68 416ZM-34 502Q-38 498 -40 498Q-46 498 -50 505T-55 521Q-55 526 -43 541T-13 575T27 615T68 653T100 682T117 693Q119 693 126 693T140 691T154 684T162 670Q176 636
197 604T253 543Q256 540 258 536T261 529Q261 518 248 510T214 502Q198 515 183 536T154 578T129 614T109 629Q101 629 85 616T48 584T6 543T-34 502Z" />
<glyph unicode="&#xef;" glyph-name="idieresis" horiz-adv-x="260" d="M68 416Q76 416 83 412T96 402T105 392T109 385Q109 384 107 375T101 343T95 286T92 197Q92 126 109 98T152 70Q177 70 201 85T248 124T289 178T324 240L330 236Q326 226 318 206T298 161T270
112T232 66T185 32T129 18Q108 18 91 26T60 55T39 115T31 213Q31 244 33 279T40 345T52 396T68 416ZM-34 572Q-34 591 -21 604T11 617Q30 617 43 604T56 572Q56 553 43 540T11 527Q-7 527 -20 540T-34 572ZM138 572Q138 591 151 604T183 617Q202 617 215 604T228
572Q228 553 215 540T183 527Q165 527 152 540T138 572Z" />
<glyph unicode="&#xf0;" glyph-name="eth" horiz-adv-x="451" d="M14 729Q11 727 10 726T6 725Q0 725 -3 730T-6 743Q-6 749 2 760T24 785T55 814T90 844Q56 879 21 910T-55 967L-47 977Q-2 954 39 926T119 866Q130 876 140 883T158 899Q164 904 176 914T202 935T229
953T248 961Q254 961 254 950Q254 939 249 927T236 911Q214 897 190 881T143 844Q261 732 325 583T389 270Q389 214 370 167T319 86T248 32T170 12Q104 12 62 55T20 182Q20 238 41 285T95 367T170 421T250 440Q286 440 315 424Q292 536 241 636T115 819Q87 794
62 771T14 729ZM205 63Q229 63 252 73T293 104T321 155T332 225Q332 258 324 287T301 339T261 374T203 387Q180 387 157 379T116 352T87 305T76 236Q76 204 84 174T107 118T147 78T205 63Z" />
<glyph unicode="&#xf1;" glyph-name="ntilde" horiz-adv-x="455" d="M86 446Q91 446 94 438T98 419T100 396T100 373Q100 347 99 320T96 267T93 220T92 184Q92 158 94 143T104 127Q109 127 117 140T134 171T153 211T170 248Q180 269 192 294T219 342T248 380T281
395Q292 395 300 389T315 374T324 354T330 334Q333 311 336 262T346 156Q351 100 373 75T430 49Q444 49 452 51T467 53Q472 53 469 43Q468 41 465 38T453 30T432 23T399 20Q367 20 346 30T312 64T293 123T285 211Q283 235 282 257T277 297T267 325T250 336Q241
336 229 318T204 276T182 225T164 184Q142 137 128 107T96 49Q91 41 86 36T72 31Q60 31 53 51T43 97T38 149T37 190Q37 206 37 229T39 274T40 314T41 338Q41 344 41 354T40 375T40 394T39 406Q39 414 43 419T53 428Q58 431 69 438T86 446ZM317 581Q317 569 309
561T292 553Q283 553 280 565Q287 599 301 624T332 665T365 688T393 696Q413 696 433 682T472 651T510 620T544 606Q561 606 573 613T594 630T608 653T618 676V678Q618 683 624 686T638 690Q649 690 649 682Q639 646 625 622T594 583T561 563T532 557Q508 557 488
570T449 599T413 628T380 641Q354 641 339 622T317 581Z" />
<glyph unicode="&#xf2;" glyph-name="ograve" horiz-adv-x="451" d="M205 63Q229 63 252 73T293 104T321 155T332 225Q332 258 324 287T301 339T261 374T203 387Q180 387 157 379T116 352T87 305T76 236Q76 204 84 174T107 118T147 78T205 63ZM170 12Q104 12 62
55T20 182Q20 238 41 285T95 367T170 421T250 440Q313 440 351 397T389 270Q389 214 370 167T319 86T248 32T170 12ZM349 680Q339 680 339 688Q339 694 343 703T353 720T366 733T380 739Q384 739 386 737Q408 713 427 690T466 645T504 602T546 561Q548 559 548
551Q548 542 541 532T525 522Q517 522 515 526Q475 573 429 611T349 680Z" />
<glyph unicode="&#xf3;" glyph-name="oacute" horiz-adv-x="451" d="M205 63Q229 63 252 73T293 104T321 155T332 225Q332 258 324 287T301 339T261 374T203 387Q180 387 157 379T116 352T87 305T76 236Q76 204 84 174T107 118T147 78T205 63ZM170 12Q104 12 62
55T20 182Q20 238 41 285T95 367T170 421T250 440Q313 440 351 397T389 270Q389 214 370 167T319 86T248 32T170 12ZM470 528Q464 522 456 522Q450 522 446 527T439 539Q439 546 446 553Q495 596 539 643T614 725Q616 727 618 727Q623 727 631 723T648 712T661
698T667 684Q667 682 666 682T663 680Q619 643 569 605T470 528Z" />
<glyph unicode="&#xf4;" glyph-name="ocircumflex" horiz-adv-x="451" d="M205 63Q229 63 252 73T293 104T321 155T332 225Q332 258 324 287T301 339T261 374T203 387Q180 387 157 379T116 352T87 305T76 236Q76 204 84 174T107 118T147 78T205 63ZM170 12Q104
12 62 55T20 182Q20 238 41 285T95 367T170 421T250 440Q313 440 351 397T389 270Q389 214 370 167T319 86T248 32T170 12ZM349 526Q345 522 343 522Q337 522 333 529T328 545Q328 550 340 565T370 599T410 639T451 677T483 706T500 717Q502 717 509 717T523 715T537
708T545 694Q559 660 580 628T636 567Q639 564 641 560T644 553Q644 542 631 534T597 526Q581 539 566 560T537 602T512 638T492 653Q484 653 468 640T431 608T389 567T349 526Z" />
<glyph unicode="&#xf5;" glyph-name="otilde" horiz-adv-x="451" d="M205 63Q229 63 252 73T293 104T321 155T332 225Q332 258 324 287T301 339T261 374T203 387Q180 387 157 379T116 352T87 305T76 236Q76 204 84 174T107 118T147 78T205 63ZM170 12Q104 12 62
55T20 182Q20 238 41 285T95 367T170 421T250 440Q313 440 351 397T389 270Q389 214 370 167T319 86T248 32T170 12ZM333 567Q333 555 325 547T308 539Q299 539 296 551Q303 585 317 610T348 651T381 674T409 682Q429 682 449 668T488 637T526 606T560 592Q577
592 589 599T610 616T624 639T634 662V664Q634 669 640 672T654 676Q665 676 665 668Q655 632 641 608T610 569T577 549T548 543Q524 543 504 556T465 585T429 614T396 627Q370 627 355 608T333 567Z" />
<glyph unicode="&#xf6;" glyph-name="odieresis" horiz-adv-x="451" d="M205 63Q229 63 252 73T293 104T321 155T332 225Q332 258 324 287T301 339T261 374T203 387Q180 387 157 379T116 352T87 305T76 236Q76 204 84 174T107 118T147 78T205 63ZM170 12Q104 12
62 55T20 182Q20 238 41 285T95 367T170 421T250 440Q313 440 351 397T389 270Q389 214 370 167T319 86T248 32T170 12ZM349 596Q349 615 362 628T394 641Q413 641 426 628T439 596Q439 577 426 564T394 551Q376 551 363 564T349 596ZM521 596Q521 615 534 628T566
641Q585 641 598 628T611 596Q611 577 598 564T566 551Q548 551 535 564T521 596Z" />
<glyph unicode="&#xf7;" glyph-name="divide" horiz-adv-x="860" d="M139 512Q135 512 135 520Q135 526 137 535T144 552T152 565T162 571Q218 571 267 572T364 574T461 577T565 578Q577 578 609 578T677 577T739 574T766 567Q766 562 762 553T752 535T739 519T727
512Q699 513 675 514T627 516T579 517T526 518Q472 518 424 517T330 515T237 513T139 512ZM453 375Q477 375 488 360T500 324Q500 299 484 286T444 272Q427 272 411 283T395 319Q395 347 411 361T453 375ZM446 829Q471 829 482 815T494 778Q494 753 478 740T438
727Q421 727 405 738T389 774Q389 802 405 815T446 829Z" />
<glyph unicode="&#xf8;" glyph-name="oslash" horiz-adv-x="451" d="M354 537Q356 540 364 540T379 541Q385 539 390 537T393 530Q393 529 393 528T392 526Q391 525 391 524Q358 468 328 416Q357 396 373 360T389 270Q389 214 370 167T319 86T248 32T170 12Q137
12 109 23Q95 -2 80 -28T51 -80Q48 -98 35 -92Q26 -92 18 -86T16 -68Q32 -40 47 -14T78 41Q50 61 35 97T20 182Q20 238 41 285T95 367T170 421T250 440Q262 440 274 439T297 432Q324 484 354 537ZM205 63Q229 63 252 73T293 104T321 155T332 225Q332 262 322 294T291
350Q253 281 216 215T141 82Q155 73 170 68T205 63ZM76 236Q76 200 85 166T115 106Q153 176 190 241T262 373Q250 379 235 383T203 387Q180 387 157 379T116 352T87 305T76 236Z" />
<glyph unicode="&#xf9;" glyph-name="ugrave" horiz-adv-x="494" d="M309 205Q309 212 309 222T310 242T310 259T311 270Q311 277 309 279T303 268Q301 264 295 245T278 200T252 143T215 87T168 44T111 27Q64 27 45 52T25 129Q25 144 28 172T35 231T42 289T45
332Q45 375 23 375Q18 375 14 374T8 373Q0 373 0 381Q0 384 8 391T45 399Q77 399 89 375T102 319Q102 305 100 280T94 226T89 173T86 135Q86 97 98 82T133 66Q154 66 174 82T212 122T243 171T264 213Q272 235 278 261T289 313T299 364T307 406Q309 415 326 418T360
422Q369 422 369 416Q369 391 368 348T367 260Q367 148 380 99T434 49Q443 49 449 51T461 53Q465 53 465 49Q465 52 465 48T461 38T444 26T406 20Q379 20 362 29T333 61T317 118T309 205ZM69 650Q59 650 59 658Q59 664 63 673T73 690T86 703T100 709Q104 709 106
707Q128 683 147 660T186 615T224 572T266 531Q268 529 268 521Q268 512 261 502T245 492Q237 492 235 496Q195 543 149 581T69 650Z" />
<glyph unicode="&#xfa;" glyph-name="uacute" horiz-adv-x="494" d="M309 205Q309 212 309 222T310 242T310 259T311 270Q311 277 309 279T303 268Q301 264 295 245T278 200T252 143T215 87T168 44T111 27Q64 27 45 52T25 129Q25 144 28 172T35 231T42 289T45
332Q45 375 23 375Q18 375 14 374T8 373Q0 373 0 381Q0 384 8 391T45 399Q77 399 89 375T102 319Q102 305 100 280T94 226T89 173T86 135Q86 97 98 82T133 66Q154 66 174 82T212 122T243 171T264 213Q272 235 278 261T289 313T299 364T307 406Q309 415 326 418T360
422Q369 422 369 416Q369 391 368 348T367 260Q367 148 380 99T434 49Q443 49 449 51T461 53Q465 53 465 49Q465 52 465 48T461 38T444 26T406 20Q379 20 362 29T333 61T317 118T309 205ZM445 754Q439 748 431 748Q425 748 421 753T414 765Q414 772 421 779Q470
822 514 869T589 951Q591 953 593 953Q598 953 606 949T623 938T636 924T642 910Q642 908 641 908T638 906Q594 869 544 831T445 754Z" />
<glyph unicode="&#xfb;" glyph-name="ucircumflex" horiz-adv-x="494" d="M309 205Q309 212 309 222T310 242T310 259T311 270Q311 277 309 279T303 268Q301 264 295 245T278 200T252 143T215 87T168 44T111 27Q64 27 45 52T25 129Q25 144 28 172T35 231T42 289T45
332Q45 375 23 375Q18 375 14 374T8 373Q0 373 0 381Q0 384 8 391T45 399Q77 399 89 375T102 319Q102 305 100 280T94 226T89 173T86 135Q86 97 98 82T133 66Q154 66 174 82T212 122T243 171T264 213Q272 235 278 261T289 313T299 364T307 406Q309 415 326 418T360
422Q369 422 369 416Q369 391 368 348T367 260Q367 148 380 99T434 49Q443 49 449 51T461 53Q465 53 465 49Q465 52 465 48T461 38T444 26T406 20Q379 20 362 29T333 61T317 118T309 205ZM325 752Q321 748 319 748Q313 748 309 755T304 771Q304 776 316 791T346
825T386 865T427 903T459 932T476 943Q478 943 485 943T499 941T513 934T521 920Q535 886 556 854T612 793Q615 790 617 786T620 779Q620 768 607 760T573 752Q557 765 542 786T513 828T488 864T468 879Q460 879 444 866T407 834T365 793T325 752Z" />
<glyph unicode="&#xfc;" glyph-name="udieresis" horiz-adv-x="494" d="M309 205Q309 212 309 222T310 242T310 259T311 270Q311 277 309 279T303 268Q301 264 295 245T278 200T252 143T215 87T168 44T111 27Q64 27 45 52T25 129Q25 144 28 172T35 231T42 289T45
332Q45 375 23 375Q18 375 14 374T8 373Q0 373 0 381Q0 384 8 391T45 399Q77 399 89 375T102 319Q102 305 100 280T94 226T89 173T86 135Q86 97 98 82T133 66Q154 66 174 82T212 122T243 171T264 213Q272 235 278 261T289 313T299 364T307 406Q309 415 326 418T360
422Q369 422 369 416Q369 391 368 348T367 260Q367 148 380 99T434 49Q443 49 449 51T461 53Q465 53 465 49Q465 52 465 48T461 38T444 26T406 20Q379 20 362 29T333 61T317 118T309 205ZM324 822Q324 841 337 854T369 867Q388 867 401 854T414 822Q414 803 401
790T369 777Q351 777 338 790T324 822ZM496 822Q496 841 509 854T541 867Q560 867 573 854T586 822Q586 803 573 790T541 777Q523 777 510 790T496 822Z" />
<glyph unicode="&#xfd;" glyph-name="yacute" horiz-adv-x="459" d="M-49 -791Q-49 -732 -26 -703T35 -674Q52 -674 62 -681T72 -700Q72 -707 66 -707Q62 -707 58 -705T45 -702Q34 -702 23 -712T12 -752Q12 -786 21 -822T49 -889T96 -938T160 -958Q191 -958 215
-937T256 -878T284 -789T302 -680T312 -557T315 -430Q315 -368 314 -318T312 -222T308 -135T305 -46T302 54T301 174V260Q287 218 267 173T221 91T168 30T111 6Q64 6 45 32T25 109Q25 124 28 155T35 221T42 286T45 332Q45 375 29 375Q27 375 26 375T23 374Q21 373
20 373Q14 373 14 381Q14 384 29 391T72 399Q85 399 91 394T99 380T102 357T102 328Q102 314 100 284T94 220T89 157T86 115Q86 76 98 61T133 45Q150 45 169 63T207 112T242 179T273 255T295 327T307 385V387V395Q307 407 313 416T329 430T349 437T369 440Q375
440 376 436T377 430Q377 427 372 358T367 164Q367 88 368 35T370 -60T374 -136T377 -208T380 -291T381 -399Q381 -550 360 -663T302 -852T220 -966T125 -1004Q91 -1004 60 -987T4 -941T-34 -874T-49 -791ZM453 765Q447 759 439 759Q433 759 429 764T422 776Q422
783 429 790Q478 833 522 880T597 962Q599 964 601 964Q606 964 614 960T631 949T644 935T650 921Q650 919 649 919T646 917Q602 880 552 842T453 765Z" />
<glyph unicode="&#xfe;" glyph-name="thorn" horiz-adv-x="489" d="M137 -455Q137 -631 118 -763T68 -983T-1 -1116T-78 -1161Q-100 -1161 -121 -1143T-159 -1091T-186 -1006T-197 -891Q-197 -796 -179 -680T-128 -442T-51 -199T45 27Q40 89 36 156T28 305T22
489T20 725Q20 790 21 850T25 958T29 1034T31 1067Q31 1073 33 1079T43 1090Q49 1093 57 1097T76 1102Q86 1102 92 1096Q98 1092 98 1080T97 1038T93 957T90 825Q90 704 91 604T95 421T100 269T106 141Q139 196 173 241T243 318T313 367T383 385Q411 385 430 370T449
315Q449 287 438 259T407 202T363 146T313 95Q253 39 178 -14L168 -2Q227 49 274 98Q294 119 313 141T347 186T371 229T381 268Q381 274 380 284T372 303T355 319T324 326Q301 326 276 310T222 265T166 194T109 100Q113 26 118 -38T127 -166T134 -300T137 -455ZM66
-496Q66 -415 65 -349T61 -226T55 -119T49 -20Q11 -107 -23 -207T-83 -413T-124 -627T-139 -840Q-139 -879 -135 -927T-121 -1017T-94 -1087T-51 -1116Q-31 -1116 -14 -1091T16 -1022T38 -919T54 -790T63 -646T66 -496Z" />
<glyph unicode="&#xff;" glyph-name="ydieresis" horiz-adv-x="459" d="M-49 -791Q-49 -732 -26 -703T35 -674Q52 -674 62 -681T72 -700Q72 -707 66 -707Q62 -707 58 -705T45 -702Q34 -702 23 -712T12 -752Q12 -786 21 -822T49 -889T96 -938T160 -958Q191 -958
215 -937T256 -878T284 -789T302 -680T312 -557T315 -430Q315 -368 314 -318T312 -222T308 -135T305 -46T302 54T301 174V260Q287 218 267 173T221 91T168 30T111 6Q64 6 45 32T25 109Q25 124 28 155T35 221T42 286T45 332Q45 375 29 375Q27 375 26 375T23 374Q21
373 20 373Q14 373 14 381Q14 384 29 391T72 399Q85 399 91 394T99 380T102 357T102 328Q102 314 100 284T94 220T89 157T86 115Q86 76 98 61T133 45Q150 45 169 63T207 112T242 179T273 255T295 327T307 385V387V395Q307 407 313 416T329 430T349 437T369 440Q375
440 376 436T377 430Q377 427 372 358T367 164Q367 88 368 35T370 -60T374 -136T377 -208T380 -291T381 -399Q381 -550 360 -663T302 -852T220 -966T125 -1004Q91 -1004 60 -987T4 -941T-34 -874T-49 -791ZM333 833Q333 852 346 865T378 878Q397 878 410 865T423
833Q423 814 410 801T378 788Q360 788 347 801T333 833ZM505 833Q505 852 518 865T550 878Q569 878 582 865T595 833Q595 814 582 801T550 788Q532 788 519 801T505 833Z" />
<glyph unicode="&#x2013;" glyph-name="endash" horiz-adv-x="1024" d="M606 256Q523 256 456 255T325 253T197 251T53 250Q51 250 49 251T47 258Q47 264 50 272T59 289T72 303T86 309Q170 309 237 310T369 312T501 314T651 315Q663 315 689 315T749 315T818 314T883
312T931 309T950 305Q950 300 946 291T936 273T924 257T911 250Q869 251 832 252T759 254T686 255T606 256Z" />
<glyph unicode="&#x2014;" glyph-name="emdash" horiz-adv-x="1536" d="M958 256Q862 256 779 256T620 255T472 253T325 252T170 251T0 250Q-3 250 -6 251T-10 258Q-10 264 -4 272T11 289T32 303T55 309Q150 309 232 309T391 310T539 312T687 313T843 314T1018
315Q1038 315 1083 315T1185 315T1302 314T1412 312T1494 309T1526 305Q1526 300 1522 291T1512 273T1499 257T1487 250Q1414 251 1350 252T1223 254T1096 255T958 256Z" />
<glyph unicode="&#x2018;" glyph-name="quoteleft" horiz-adv-x="205" d="M162 1116Q136 1116 124 1137T111 1188Q111 1203 113 1225T126 1271T156 1323T211 1376Q217 1381 220 1381T225 1377T225 1370T221 1364Q206 1355 193 1335T172 1295T162 1258T170 1239Q192
1234 204 1220T217 1182Q217 1150 201 1133T162 1116Z" />
<glyph unicode="&#x2019;" glyph-name="quoteright" horiz-adv-x="205" d="M137 1374Q163 1374 175 1353T188 1303Q188 1288 186 1266T173 1219T143 1167T88 1114Q82 1109 79 1109T74 1113T74 1120T78 1126Q93 1135 106 1155T127 1195T137 1232T129 1251Q107 1256
95 1271T82 1309Q82 1341 98 1357T137 1374Z" />
<glyph unicode="&#x201a;" glyph-name="quotesinglbase" horiz-adv-x="205" d="M137 154Q163 154 175 133T188 82Q188 67 186 45T173 -1T143 -53T88 -106Q82 -111 79 -111T74 -107T74 -100T78 -94Q93 -85 106 -65T127 -25T137 12T129 31Q107 36 95 50T82 88Q82
120 98 137T137 154Z" />
<glyph unicode="&#x201c;" glyph-name="quotedblleft" horiz-adv-x="369" d="M162 1116Q136 1116 124 1137T111 1188Q111 1203 113 1225T126 1271T156 1323T211 1376Q217 1381 220 1381T225 1377T225 1370T221 1364Q206 1355 193 1335T172 1295T162 1258T170 1239Q192
1234 204 1220T217 1182Q217 1150 201 1133T162 1116ZM326 1116Q300 1116 287 1137T274 1188Q274 1203 276 1225T289 1271T319 1323T375 1376Q381 1381 384 1381T389 1377T389 1370T385 1364Q370 1355 357 1335T336 1295T326 1258T334 1239Q355 1234 368 1220T381
1182Q381 1150 365 1133T326 1116Z" />
<glyph unicode="&#x201d;" glyph-name="quotedblright" horiz-adv-x="369" d="M301 1374Q327 1374 339 1353T352 1303Q352 1288 350 1266T337 1219T307 1167T252 1114Q246 1109 243 1109T238 1113T237 1120T242 1126Q257 1135 270 1155T291 1195T300 1232T293
1251Q271 1256 259 1271T246 1309Q246 1341 262 1357T301 1374ZM137 1374Q163 1374 175 1353T188 1303Q188 1288 186 1266T173 1219T143 1167T88 1114Q82 1109 79 1109T74 1113T74 1120T78 1126Q93 1135 106 1155T127 1195T137 1232T129 1251Q107 1256 95 1271T82
1309Q82 1341 98 1357T137 1374Z" />
<glyph unicode="&#x201e;" glyph-name="quotedblbase" horiz-adv-x="369" d="M301 154Q327 154 339 133T352 82Q352 67 350 45T337 -1T307 -53T252 -106Q246 -111 243 -111T238 -107T237 -100T242 -94Q257 -85 270 -65T291 -25T300 12T293 31Q271 36 259 50T246
88Q246 120 262 137T301 154ZM137 154Q163 154 175 133T188 82Q188 67 186 45T173 -1T143 -53T88 -106Q82 -111 79 -111T74 -107T74 -100T78 -94Q93 -85 106 -65T127 -25T137 12T129 31Q107 36 95 50T82 88Q82 120 98 137T137 154Z" />
<glyph unicode="&#x2022;" glyph-name="bullet" horiz-adv-x="616" d="M131 657Q131 696 146 731T187 792T248 833T322 848Q361 848 395 833T456 792T497 731T512 657Q512 618 497 584T456 523T396 482T322 467Q283 467 248 482T187 523T146 583T131 657Z" />
<glyph unicode="&#x2039;" glyph-name="guilsinglleft" horiz-adv-x="324" d="M233 451Q218 436 197 412T155 361T117 307T94 258Q96 243 111 222T147 178T190 135T227 100Q229 98 229 96T229 92Q229 80 218 67T188 53Q185 53 181 54T172 61Q154 78 132 99T90
144T57 193T43 244Q43 257 52 276T77 316T111 360T150 402T187 440T217 467L233 451Z" />
<glyph unicode="&#x203a;" glyph-name="guilsinglright" horiz-adv-x="324" d="M55 49Q70 64 91 87T134 138T172 192T195 242Q192 257 177 278T141 322T98 364T61 399Q59 401 59 403T59 408Q59 420 70 433T100 446Q103 446 107 445T117 438Q135 421 157 400T199
356T232 307T246 256Q246 243 237 224T212 184T178 140T139 98T102 60T72 33L55 49Z" />
</font>
</defs>
</svg>
