<?xml version="1.0" standalone="no"?>
<!DOCTYPE svg PUBLIC "-//W3C//DTD SVG 1.1//EN" "http://www.w3.org/Graphics/SVG/1.1/DTD/svg11.dtd">
<svg xmlns="http://www.w3.org/2000/svg">
<defs >
<font id="SairaExtraCondensed" horiz-adv-x="363" ><font-face
    font-family="Saira ExtraCondensed Thin"
    units-per-em="1000"
    panose-1="0 0 3 8 0 0 0 0 0 0"
    ascent="1135"
    descent="-439"
    alphabetic="0" />
<glyph unicode=" " glyph-name="space" horiz-adv-x="170" />
<glyph unicode="!" glyph-name="exclam" horiz-adv-x="160" d="M61 416T61 541V688H99V541Q99 416 94 173H66Q61 416 61 541ZM58 0V65H102V0H58Z" />
<glyph unicode="&quot;" glyph-name="quotedbl" horiz-adv-x="220" d="M48 454L40 599V688H79V599L71 454H48ZM149 454L141 599V688H180V599L172 454H149Z" />
<glyph unicode="#" glyph-name="numbersign" horiz-adv-x="398" d="M206 0L234 202H121L94 0H59L87 202H35V236H92L121 442H57V476H125L155 688H189L160 476H272L302 688H336L307 476H363V442H302L273 236H341V202H268L241 0H206ZM268 442H155L126 236H239L268 442Z" />
<glyph unicode="$" glyph-name="dollar" d="M313 140T286 107T203 68V-8H169V67Q96 69 60 79V113Q92 102 169 100V332L127 339Q83 346 67 375T50 468Q50 545 78 579T169 619V696H203V620Q229 619 255 616T296 607V573Q281 577 254 580T203 585V362L234 357Q267
351 283 339T306 298T313 215Q313 140 286 107ZM169 368V586Q128 584 107 560T86 476Q86 433 91 413T106 384T139 373L169 368ZM241 105T259 131T277 215Q277 261 273 282T258 311T227 322L203 326V101Q241 105 259 131Z" />
<glyph unicode="%" glyph-name="percent" horiz-adv-x="509" d="M98 311T81 325T57 379T50 503Q50 587 56 627T80 681T134 696Q170 696 187 682T210 627T217 503Q217 419 211 380T187 326T134 311Q98 311 81 325ZM104 0L374 688H405L135 0H104ZM158 342T168 351T182
394T187 503Q187 579 183 612T168 655T134 665Q110 665 100 655T86 612T81 503Q81 427 85 394T100 352T134 342Q158 342 168 351ZM340 -8T323 6T299 60T292 184Q292 268 298 308T322 362T376 377Q412 377 429 363T452 308T459 184Q459 100 453 61T429 7T376 -8Q340
-8 323 6ZM400 23T410 32T424 75T429 184Q429 260 425 293T410 336T376 346Q352 346 342 336T328 293T323 184Q323 108 327 75T342 33T376 23Q400 23 410 32Z" />
<glyph unicode="&amp;" glyph-name="ampersand" horiz-adv-x="423" d="M413 366V332H339V8Q314 1 280 -3T217 -8Q144 -8 107 13T58 75T45 184Q45 263 64 298T125 349V353Q86 368 68 405T49 515Q49 577 62 615T111 675T216 696Q243 696 277 692T337 680V648Q309
655 279 659T229 664Q166 664 135 649T94 602T84 513Q84 450 101 408T178 366H242V332H178Q135 332 114 314T87 263T80 177Q80 114 95 81T139 36T217 24Q271 24 304 35V366H413Z" />
<glyph unicode="&apos;" glyph-name="quotesingle" horiz-adv-x="119" d="M48 454L40 599V688H79V599L71 454H48Z" />
<glyph unicode="(" glyph-name="parenleft" horiz-adv-x="195" d="M112 -79T94 -30T68 92T60 297Q60 426 68 499T95 622T151 743H185Q148 671 131 627T105 507T95 297Q95 163 104 87T131 -34T185 -150H151Q112 -79 94 -30Z" />
<glyph unicode=")" glyph-name="parenright" horiz-adv-x="195" d="M47 -79T64 -34T90 87T100 297Q100 431 91 507T64 627T10 743H44Q82 671 100 622T126 500T135 297Q135 166 127 93T101 -30T44 -150H10Q47 -79 64 -34Z" />
<glyph unicode="*" glyph-name="asterisk" horiz-adv-x="386" d="M205 510L212 376H174L180 510L67 437L49 470L168 531L48 594L67 626L180 553L174 688H212L205 553L319 627L337 594L218 532L338 470L319 438L205 510Z" />
<glyph unicode="+" glyph-name="plus" horiz-adv-x="460" d="M214 83V237H60V269H214V423H245V269H400V237H245V83H214Z" />
<glyph unicode="," glyph-name="comma" horiz-adv-x="152" d="M49 -80T58 -75T69 -57T72 -17V0H52V65H98V-10Q98 -47 93 -66T72 -93T28 -101V-80Q49 -80 58 -75Z" />
<glyph unicode="-" glyph-name="hyphen" horiz-adv-x="285" d="M60 268V304H225V268H60Z" />
<glyph unicode="." glyph-name="period" horiz-adv-x="152" d="M54 0V65H98V0H54Z" />
<glyph unicode="/" glyph-name="slash" horiz-adv-x="237" d="M30 -55L172 743H207L65 -55H30Z" />
<glyph unicode="0" glyph-name="zero" horiz-adv-x="398" d="M129 -8T99 17T60 111T50 344Q50 507 59 576T99 671T199 696Q274 696 303 671T340 581T348 344Q348 181 339 112T299 17T199 -8Q129 -8 99 17ZM254 26T275 44T304 124T312 344Q312 501 305 563T276
644T199 662Q144 662 123 644T94 564T86 344Q86 187 93 125T122 44T199 26Q254 26 275 44Z" />
<glyph unicode="1" glyph-name="one" horiz-adv-x="211" d="M105 0V636L30 592V630L114 688H141V0H105Z" />
<glyph unicode="2" glyph-name="two" horiz-adv-x="348" d="M75 34H308V0H40V71Q40 157 43 191T59 248T107 295L224 381Q254 402 263 432T273 523Q273 581 265 610T235 650T173 662Q119 662 48 651V683Q71 689 107 692T178 696Q222 696 249 685T292 639T308 532Q308
476 302 443T280 390T236 348L111 257Q91 243 83 221Q78 207 77 183T75 100V34Z" />
<glyph unicode="3" glyph-name="three" horiz-adv-x="333" d="M111 -8T79 -4T20 6V38Q90 26 137 26Q177 26 201 37T238 82T252 177Q252 260 232 296T166 332H92V366H166Q200 366 223 398T247 513Q247 575 235 607T199 650T131 662Q108 662 78 659T23 650V682Q48
688 80 692T137 696Q193 696 224 678T269 620T283 515Q283 442 265 404T209 354V350Q247 340 267 302T288 184Q288 118 277 77T232 14T137 -8Q111 -8 79 -4Z" />
<glyph unicode="4" glyph-name="four" horiz-adv-x="382" d="M246 0V176H30V207L187 688H224L67 210H247V510H282V210H347V176H282V0H246Z" />
<glyph unicode="5" glyph-name="five" horiz-adv-x="348" d="M115 26T162 26Q210 26 234 42T268 94T277 197Q277 270 268 303T232 348T150 360Q116 360 50 345V688H282V654H86V384Q119 394 173 394Q234 394 264 374T303 315T313 204Q313 122 301 77T256 12T162
-8Q136 -8 104 -4T45 6V38Q115 26 162 26Z" />
<glyph unicode="6" glyph-name="six" horiz-adv-x="388" d="M142 -8T110 13T59 96Q53 117 52 168T50 334Q50 439 52 492T62 575Q79 641 114 668T220 696Q242 696 272 692T326 682V650Q305 655 277 658T225 662Q161 662 133 638T95 550T85 345H89Q100 370 125 383T204
397Q263 397 292 385T335 333T348 210Q348 122 338 77T297 12T206 -8Q142 -8 110 13ZM249 26T272 38T304 84T313 191Q313 274 305 308T275 353T201 363Q150 363 126 350T95 310T87 228Q87 141 97 99T130 41T201 26Q249 26 272 38Z" />
<glyph unicode="7" glyph-name="seven" horiz-adv-x="318" d="M78 0L256 654H20V688H293V659L114 0H78Z" />
<glyph unicode="8" glyph-name="eight" horiz-adv-x="398" d="M134 -8T101 12T57 73T45 184Q45 243 53 275T77 324T120 349V353Q83 364 66 402T49 515Q49 582 62 620T107 677T199 696Q259 696 291 678T336 621T349 515Q349 440 332 402T278 353V349Q305 340 320
324T344 276T353 184Q353 113 342 73T297 13T199 -8Q134 -8 101 12ZM246 365T270 378T303 422T313 513Q313 573 304 604T271 649T199 662Q151 662 127 649T94 605T85 513Q85 453 94 422T128 378T199 365Q246 365 270 378ZM246 26T271 38T306 82T317 177Q317 245
308 276T274 319T199 331Q148 331 124 320T91 277T81 177Q81 114 91 82T127 38T199 26Q246 26 271 38Z" />
<glyph unicode="9" glyph-name="nine" horiz-adv-x="388" d="M144 -8T115 -4T62 6V38Q83 33 111 30T163 26Q227 26 255 50T293 138T303 343H299Q288 318 263 305T184 291Q125 291 96 303T53 355T40 478Q40 566 50 611T91 676T182 696Q249 696 281 674T328 592Q335
564 336 513T338 354Q338 237 336 181T322 94Q303 39 268 16T168 -8Q144 -8 115 -4ZM238 325T262 338T293 378T301 460Q301 547 291 589T258 647T187 662Q139 662 116 650T84 604T75 497Q75 414 83 380T113 335T187 325Q238 325 262 338Z" />
<glyph unicode=":" glyph-name="colon" horiz-adv-x="152" d="M54 445V510H98V445H54ZM54 0V65H98V0H54Z" />
<glyph unicode=";" glyph-name="semicolon" horiz-adv-x="152" d="M54 445V510H98V445H54ZM49 -80T58 -75T69 -57T72 -17V0H52V65H98V-10Q98 -47 93 -66T72 -93T28 -101V-80Q49 -80 58 -75Z" />
<glyph unicode="&lt;" glyph-name="less" horiz-adv-x="461" d="M401 76L61 231V275L401 430V393L95 253L401 113V76Z" />
<glyph unicode="=" glyph-name="equal" horiz-adv-x="460" d="M60 322V354H400V322H60ZM60 152V184H400V152H60Z" />
<glyph unicode="&gt;" glyph-name="greater" horiz-adv-x="461" d="M60 76V113L366 253L60 393V430L400 275V231L60 76Z" />
<glyph unicode="?" glyph-name="question" horiz-adv-x="281" d="M78 260Q78 296 84 315T99 344T129 366L143 375Q166 390 177 402T194 442T200 526Q200 581 196 607T173 648T113 662Q76 662 10 650V682Q72 696 116 696Q168 696 194 678T228 626T236 537Q236 465
228 423T184 358L171 350Q145 334 133 321T118 295T114 258V173H78V260ZM74 0V65H118V0H74Z" />
<glyph unicode="@" glyph-name="at" horiz-adv-x="556" d="M165 -108T121 -80T66 22T55 294Q55 491 65 565T120 668T278 696Q391 696 435 668T490 566T501 294Q501 190 494 145T473 87T427 75H355L351 136H347Q340 95 319 82T267 68Q232 68 212 78T182 115T172
193Q172 241 179 268T205 307T258 319Q289 319 347 315V352Q347 414 342 441T322 477T274 486Q256 486 231 483T191 475V508Q224 518 282 518Q325 518 346 504T374 457T382 358V105H434Q447 105 453 114T463 164T467 294Q467 458 462 525T436 623T363 661Q329 666
277 666Q233 666 204 664Q147 659 124 630T95 533T89 294Q89 129 95 61T125 -37T209 -74Q233 -77 278 -77Q355 -77 382 -74V-106Q363 -108 278 -108Q165 -108 121 -80ZM297 100T314 113T339 160T347 254V287H263Q239 287 228 281T212 255T207 193Q207 153 212 134T229
108T266 100Q297 100 314 113Z" />
<glyph unicode="A" glyph-name="A" horiz-adv-x="401" d="M344 0L294 217H105L56 0H20L180 688H221L381 0H344ZM202 617H197L113 251H286L202 617Z" />
<glyph unicode="B" glyph-name="B" horiz-adv-x="403" d="M65 688H210Q290 688 321 644T353 516Q353 446 330 406T257 354V350Q317 338 337 294T358 180Q358 98 327 49T204 0H65V688ZM258 366T287 402T317 510Q317 588 293 621T205 654H101V366H205Q258 366 287
402ZM271 34T296 69T322 183Q322 262 295 297T207 332H101V34H207Q271 34 296 69Z" />
<glyph unicode="C" glyph-name="C" horiz-adv-x="318" d="M256 -8T210 -8Q138 -8 106 16T62 112T50 344Q50 503 61 574T105 671T210 696Q230 696 253 693T291 684V652Q256 662 216 662Q154 662 128 641T94 558T86 344Q86 193 94 131T128 47T216 26Q234 26 256
29T293 36V2Q256 -8 210 -8Z" />
<glyph unicode="D" glyph-name="D" horiz-adv-x="407" d="M65 688H193Q269 688 302 664T346 571T357 344Q357 186 346 118T302 25T193 0H65V688ZM193 34Q253 34 277 51T311 130T321 344Q321 495 312 557T278 637T193 654H101V34H193Z" />
<glyph unicode="E" glyph-name="E" horiz-adv-x="351" d="M65 0V688H321V654H102V365H293V331H102V34H321V0H65Z" />
<glyph unicode="F" glyph-name="F" horiz-adv-x="334" d="M65 0V688H309V654H102V351H287V317H102V0H65Z" />
<glyph unicode="G" glyph-name="G" horiz-adv-x="392" d="M207 315V349H345V9Q316 1 281 -3T219 -8Q147 -8 113 17T64 116T50 344Q50 498 63 570T110 669T219 696Q250 696 285 691T344 678V646Q318 653 288 657T237 662Q167 662 138 645T98 564T86 344Q86 201
94 138T130 50T218 26Q241 26 267 29T309 38V315H207Z" />
<glyph unicode="H" glyph-name="H" horiz-adv-x="434" d="M333 0V331H101V0H65V688H101V365H333V688H369V0H333Z" />
<glyph unicode="I" glyph-name="I" horiz-adv-x="176" d="M70 0V688H106V0H70Z" />
<glyph unicode="J" glyph-name="J" horiz-adv-x="177" d="M49 36T61 46T77 90T81 226V688H117V224Q117 111 111 69T85 15T10 0V34Q49 36 61 46Z" />
<glyph unicode="K" glyph-name="K" horiz-adv-x="386" d="M332 0L185 332H101V0H65V688H101V366H185L331 688H369L216 349L371 0H332Z" />
<glyph unicode="L" glyph-name="L" horiz-adv-x="302" d="M65 0V688H102V34H297V0H65Z" />
<glyph unicode="M" glyph-name="M" horiz-adv-x="541" d="M440 0V595H436L290 0H248L104 595H100V0H65V688H117L268 73H273L425 688H476V0H440Z" />
<glyph unicode="N" glyph-name="N" horiz-adv-x="434" d="M326 0L104 595H100V0H65V688H108L330 93H334V688H369V0H326Z" />
<glyph unicode="O" glyph-name="O" horiz-adv-x="428" d="M138 -8T105 17T61 112T50 344Q50 505 61 575T105 671T214 696Q290 696 323 671T367 576T378 344Q378 183 367 113T323 17T214 -8Q138 -8 105 17ZM274 26T298 43T332 125T342 344Q342 499 333 563T299
644T214 662Q154 662 130 645T96 563T86 344Q86 189 95 125T129 44T214 26Q274 26 298 43Z" />
<glyph unicode="P" glyph-name="P" horiz-adv-x="375" d="M65 688H214Q276 688 305 661T342 592T350 481Q350 415 342 372T304 302T214 274H101V0H65V688ZM213 308Q258 308 280 328T308 383T314 481Q314 543 308 578T280 634T213 654H101V308H213Z" />
<glyph unicode="Q" glyph-name="Q" horiz-adv-x="428" d="M387 -113V-115H349L294 1Q267 -8 214 -8Q138 -8 105 17T61 112T50 344Q50 505 61 575T105 671T214 696Q290 696 323 671T367 576T378 344Q378 238 374 176T359 75T325 18L387 -113ZM233 26T250 27T279
32L191 218H230L309 51Q329 76 335 139T342 344Q342 499 333 563T299 644T214 662Q154 662 130 645T96 563T86 344Q86 189 95 125T129 44T214 26Q233 26 250 27Z" />
<glyph unicode="R" glyph-name="R" horiz-adv-x="405" d="M327 0L244 295Q236 294 219 294H101V0H65V688H219Q281 688 310 662T347 596T355 491Q355 413 341 367T279 303L365 0H327ZM263 328T285 347T313 399T319 491Q319 550 313 583T285 635T218 654H101V328H218Q263
328 285 347Z" />
<glyph unicode="S" glyph-name="S" horiz-adv-x="356" d="M146 -8T110 -5T47 4V39Q74 34 108 30T165 26Q200 26 222 32T260 55Q275 69 280 100T285 183Q285 252 281 278T263 314T210 332L104 352Q71 358 57 378T39 427T35 515Q35 607 67 651T183 696Q219 696 251
693T300 683V650Q278 655 248 658T191 662Q149 662 126 652T90 622Q79 603 75 577T71 513Q71 458 75 434T90 400T127 385L223 366Q262 359 282 346T314 300Q319 287 320 264T321 188Q321 119 312 79T272 15T177 -8Q146 -8 110 -5Z" />
<glyph unicode="T" glyph-name="T" horiz-adv-x="332" d="M148 0V654H15V688H317V654H184V0H148Z" />
<glyph unicode="U" glyph-name="U" horiz-adv-x="425" d="M365 688V294Q365 162 356 102T315 17T213 -8Q142 -8 111 17T70 102T60 294V688H96V264Q96 158 102 112T133 46T213 26Q268 26 292 45T322 111T329 264V688H365Z" />
<glyph unicode="V" glyph-name="V" horiz-adv-x="359" d="M159 0L5 688H43L178 71H183L319 688H354L200 0H159Z" />
<glyph unicode="W" glyph-name="W" horiz-adv-x="539" d="M378 0L271 609H267L161 0H120L8 688H45L139 79H144L248 688H291L396 79H401L495 688H531L419 0H378Z" />
<glyph unicode="X" glyph-name="X" horiz-adv-x="386" d="M332 0L194 307H190L53 0H15L170 346L17 688H56L192 384H196L331 688H369L216 347L371 0H332Z" />
<glyph unicode="Y" glyph-name="Y" horiz-adv-x="335" d="M149 0V281L0 688H38L166 334H171L299 688H335L185 281V0H149Z" />
<glyph unicode="Z" glyph-name="Z" horiz-adv-x="332" d="M20 0V32L268 654H27V688H307V656L60 34H312V0H20Z" />
<glyph unicode="[" glyph-name="bracketleft" horiz-adv-x="188" d="M65 -150V743H168V710L100 706V-113L168 -117V-150H65Z" />
<glyph unicode="\" glyph-name="backslash" horiz-adv-x="237" d="M172 -55L30 743H65L207 -55H172Z" />
<glyph unicode="]" glyph-name="bracketright" horiz-adv-x="188" d="M20 -150V-117L88 -113V706L20 710V743H123V-150H20Z" />
<glyph unicode="^" glyph-name="asciicircum" horiz-adv-x="400" d="M303 491L200 720L97 491H60L178 750H222L340 491H303Z" />
<glyph unicode="_" glyph-name="underscore" horiz-adv-x="280" d="M0 -160V-128H280V-160H0Z" />
<glyph unicode="`" glyph-name="grave" horiz-adv-x="73" d="M50 605L0 738V743H40L73 610V605H50Z" />
<glyph unicode="a" glyph-name="a" horiz-adv-x="359" d="M109 -8T83 3T43 46T30 138Q30 195 40 226T74 270T142 283Q176 283 268 278V324Q268 399 260 431T230 475T159 486Q136 486 104 482T51 473V506Q103 518 167 518Q223 518 251 503T291 448T303 330V0H276L272
75H268Q257 24 227 8T154 -8Q109 -8 83 3ZM194 24T218 35T254 84Q262 113 265 142T268 210V251H148Q113 251 96 243T72 212T65 138Q65 90 72 66T98 33T154 24Q194 24 218 35Z" />
<glyph unicode="b" glyph-name="b" horiz-adv-x="386" d="M163 -8T135 8T95 75H91L87 0H60V743H95V444H99Q109 484 135 501T206 518Q264 518 292 497T330 421T341 255Q341 144 331 90T292 14T206 -8Q163 -8 135 8ZM248 24T269 40T298 102T306 255Q306 361 299
407T270 470T200 486Q160 486 137 468T106 409Q95 354 95 255Q95 203 97 169T105 103Q113 62 136 43T200 24Q248 24 269 40Z" />
<glyph unicode="c" glyph-name="c" horiz-adv-x="302" d="M256 -1T232 -4T184 -8Q121 -8 92 17T54 94T45 254Q45 363 56 418T95 496T181 518Q202 518 227 515T269 507V474Q228 486 185 486Q139 486 117 468T88 402T80 256Q80 154 87 107T117 42T187 24Q209 24
233 27T272 37V4Q256 -1 232 -4Z" />
<glyph unicode="d" glyph-name="d" horiz-adv-x="386" d="M122 -8T94 13T56 89T45 255Q45 367 55 421T94 496T180 518Q225 518 251 501T287 444H291V743H326V0H299L295 75H291Q279 25 251 9T180 -8Q122 -8 94 13ZM226 24T249 42T281 100Q287 133 289 170T291 269Q291
354 282 400Q272 446 249 466T182 486Q136 486 116 470T88 407T80 255Q80 149 87 103T116 40T186 24Q226 24 249 42Z" />
<glyph unicode="e" glyph-name="e" horiz-adv-x="366" d="M321 243H80Q80 147 87 104T119 42T196 24Q223 24 254 28T309 38V5Q290 0 257 -4T193 -8Q128 -8 97 13T56 89T45 254Q45 368 53 419T91 494T191 518Q252 518 279 496T313 422T321 256V243ZM138 486T116
471T87 415T80 275H286V296Q286 382 278 421T250 473T189 486Q138 486 116 471Z" />
<glyph unicode="f" glyph-name="f" horiz-adv-x="221" d="M85 478H20V510H85V625Q85 676 97 701T134 735T201 743V713Q168 713 151 707T127 683T120 631V510H201V478H120V0H85V478Z" />
<glyph unicode="g" glyph-name="g" horiz-adv-x="386" d="M109 -196T52 -193V-160Q104 -164 161 -164Q219 -164 246 -145T282 -80T291 62V66H287Q277 26 251 9T180 -8Q122 -8 94 13T56 89T45 255Q45 367 55 421T94 496T180 518Q223 518 251 502T291 435H295L299
510H326V82Q326 -31 315 -88T269 -170T164 -196Q109 -196 52 -193ZM226 24T249 43T281 105Q291 156 291 255Q291 357 283 398Q273 446 250 466T186 486Q138 486 117 470T88 408T80 255Q80 149 87 103T116 40T186 24Q226 24 249 43Z" />
<glyph unicode="h" glyph-name="h" horiz-adv-x="386" d="M295 315Q295 392 288 427T262 474T200 486Q151 486 128 458T100 387T95 264V0H60V743H95V449H99Q109 478 132 498T209 518Q261 518 287 499T321 439T330 320V0H295V315Z" />
<glyph unicode="i" glyph-name="i" horiz-adv-x="155" d="M58 682V743H97V682H58ZM60 0V510H95V0H60Z" />
<glyph unicode="j" glyph-name="j" horiz-adv-x="155" d="M58 682V743H97V682H58ZM-1 -160Q27 -160 39 -155T56 -139T60 -103V510H95V-93Q95 -138 85 -158T56 -184T-1 -190V-160Z" />
<glyph unicode="k" glyph-name="k" horiz-adv-x="334" d="M276 0L156 243H95V0H60V743H95V277H156L272 510H311L185 262L316 0H276Z" />
<glyph unicode="l" glyph-name="l" horiz-adv-x="155" d="M60 0V743H95V0H60Z" />
<glyph unicode="m" glyph-name="m" horiz-adv-x="607" d="M516 315Q516 392 510 427T485 474T428 486Q378 486 356 460T328 391T323 264V0H288V315Q288 392 282 427T258 474T201 486Q152 486 129 458T101 386T95 264V0H60V510H87L91 435H96Q103 472 127 495T205
518Q259 518 283 500T316 435H321Q339 518 432 518Q483 518 508 499T542 439T551 320V0H516V315Z" />
<glyph unicode="n" glyph-name="n" horiz-adv-x="386" d="M295 315Q295 392 288 427T262 474T200 486Q151 486 128 458T100 387T95 264V0H60V510H87L91 435H95Q104 473 129 495T209 518Q261 518 287 499T321 439T330 320V0H295V315Z" />
<glyph unicode="o" glyph-name="o" horiz-adv-x="376" d="M122 -8T93 12T54 85T45 254Q45 371 54 424T92 497T188 518Q254 518 283 498T322 424T331 254Q331 137 322 85T284 13T188 -8Q122 -8 93 12ZM240 24T262 41T290 102T296 254Q296 362 290 406T262 468T188
486Q136 486 114 469T86 407T80 254Q80 147 86 103T114 41T188 24Q240 24 262 41Z" />
<glyph unicode="p" glyph-name="p" horiz-adv-x="386" d="M60 510H87L91 435H95Q107 485 135 501T206 518Q264 518 292 497T330 421T341 255Q341 143 331 89T292 14T206 -8Q161 -8 135 9T99 66H95V-190H60V510ZM248 24T269 40T298 102T306 255Q306 361 299 407T270
470T200 486Q159 486 136 467T104 404Q98 375 97 341T95 255Q95 156 103 115Q113 66 136 45T200 24Q248 24 269 40Z" />
<glyph unicode="q" glyph-name="q" horiz-adv-x="386" d="M291 66H287Q277 26 251 9T180 -8Q122 -8 94 13T56 89T45 255Q45 366 55 420T94 496T180 518Q223 518 251 502T291 435H295L299 510H326V-190H291V66ZM226 24T249 44T282 109Q291 157 291 255Q291 307
289 342T281 410Q273 449 250 467T186 486Q138 486 117 470T88 408T80 255Q80 149 87 103T116 40T186 24Q226 24 249 44Z" />
<glyph unicode="r" glyph-name="r" horiz-adv-x="230" d="M60 510H87L91 411H95Q106 473 136 495T215 518V482Q145 482 120 428T95 259V0H60V510Z" />
<glyph unicode="s" glyph-name="s" horiz-adv-x="320" d="M124 -8T94 -5T45 3V36Q61 31 94 28T162 24Q214 24 232 51T250 133Q250 179 246 199T232 225T200 235L109 250Q67 257 51 284T35 373Q35 458 68 488T169 518Q195 518 223 515T268 506V473Q253 479 223
482T159 486Q116 486 93 464T70 380Q70 340 74 321T89 294T120 283L210 269Q240 264 256 252T278 213T285 133Q285 57 255 25T153 -8Q124 -8 94 -5Z" />
<glyph unicode="t" glyph-name="t" horiz-adv-x="215" d="M85 0V478H20V510H85V658H120V510H195V478H120V0H85Z" />
<glyph unicode="u" glyph-name="u" horiz-adv-x="386" d="M295 75H291Q282 37 257 15T177 -8Q125 -8 99 11T65 70T56 190V510H91V195Q91 118 98 83T124 36T186 24Q235 24 258 52T286 123T291 246V510H326V0H299L295 75Z" />
<glyph unicode="v" glyph-name="v" horiz-adv-x="339" d="M154 0L20 510H57L168 69H172L283 510H319L185 0H154Z" />
<glyph unicode="w" glyph-name="w" horiz-adv-x="501" d="M334 0L253 445H249L167 0H126L20 510H57L145 62H149L229 510H273L355 62H359L446 510H481L375 0H334Z" />
<glyph unicode="x" glyph-name="x" horiz-adv-x="339" d="M281 0L171 221H167L56 0H18L149 258L23 510H63L168 299H172L277 510H316L190 262L321 0H281Z" />
<glyph unicode="y" glyph-name="y" horiz-adv-x="386" d="M112 -196T60 -193V-160Q108 -164 165 -164Q221 -164 248 -142T283 -74T291 58V67H287Q278 33 255 13T174 -8Q123 -8 98 11T65 71T56 190V510H91V195Q91 118 98 83T124 36T186 24Q235 24 258 52T286 123T291
246V510H326V77Q326 -31 314 -88T268 -170T168 -196Q112 -196 60 -193Z" />
<glyph unicode="z" glyph-name="z" horiz-adv-x="298" d="M26 0V28L231 478H33V510H271V482L66 32H272V0H26Z" />
<glyph unicode="{" glyph-name="braceleft" horiz-adv-x="204" d="M127 -127T107 -75T86 37V152Q86 206 71 244T20 282V311Q54 311 70 349T86 441V556Q86 615 106 667T158 743H194Q162 715 142 666T121 568V447Q121 322 65 299V294Q121 271 121 146V25Q121 -23
141 -72T194 -150H158Q127 -127 107 -75Z" />
<glyph unicode="|" glyph-name="bar" horiz-adv-x="195" d="M80 -161V743H115V-161H80Z" />
<glyph unicode="}" glyph-name="braceright" horiz-adv-x="204" d="M42 -122T62 -73T83 25V146Q83 271 139 294V299Q83 322 83 447V568Q83 616 63 665T10 743H46Q77 720 97 668T118 556V441Q118 387 134 349T184 311V282Q149 282 134 244T118 152V37Q118 -22 98
-74T46 -150H10Q42 -122 62 -73Z" />
<glyph unicode="~" glyph-name="asciitilde" horiz-adv-x="403" d="M343 300T331 280T281 260Q262 260 243 266T194 287Q168 300 153 305T122 311Q101 311 94 298T87 249H60Q60 304 72 324T122 344Q139 344 155 339T187 326T211 315Q215 313 230 307T257 297T281
293Q302 293 309 306T316 355H343Q343 300 331 280Z" />
<glyph unicode="&#xa0;" glyph-name="uni00A0" horiz-adv-x="170" />
<glyph unicode="&#xa1;" glyph-name="exclamdown" horiz-adv-x="160" d="M58 445V510H102V445H58ZM61 -31Q61 94 66 337H94Q99 94 99 -31V-178H61V-31Z" />
<glyph unicode="&#xa2;" glyph-name="cent" horiz-adv-x="334" d="M289 79Q272 74 255 71T214 66V-8H180V66Q122 68 95 96T59 179T50 342Q50 454 61 511T99 592T180 619V696H214V620Q255 617 286 608V573Q253 583 214 585V101Q247 102 289 114V79ZM87 244T94 195T120
125T180 100V584Q140 581 121 560T94 491T87 344Q87 244 94 195Z" />
<glyph unicode="&#xa3;" glyph-name="sterling" horiz-adv-x="368" d="M323 34V0H40V34H85V341H40V375H85V460Q85 547 100 598T149 673T238 696Q258 696 280 693T316 684V652Q279 662 237 662Q188 662 163 638Q140 617 131 576T121 469V375H271V341H121V34H323Z" />
<glyph unicode="&#xa4;" glyph-name="currency" horiz-adv-x="512" d="M46 19L142 115Q124 142 119 194T113 348Q113 445 118 496T141 574L45 670L68 693L164 597Q192 616 256 616Q321 616 349 596L445 692L467 669L371 573Q388 546 393 496T399 348Q399 247 394
195T371 115L467 20L444 -3L349 93Q321 73 256 73Q192 73 164 92L69 -3L46 19ZM308 105T330 123T358 188T364 348Q364 457 358 503T330 566T256 584Q204 584 182 567T154 503T148 348Q148 235 154 188T182 123T256 105Q308 105 330 123Z" />
<glyph unicode="&#xa5;" glyph-name="yen" horiz-adv-x="395" d="M365 688L276 448H349V414H264L220 295H349V261H215V0H179V261H45V295H174L130 414H45V448H118L30 688H68L152 448H245L329 688H365ZM201 324L233 414H164L196 324H201Z" />
<glyph unicode="&#xa6;" glyph-name="brokenbar" horiz-adv-x="195" d="M80 390V743H115V390H80ZM80 -161V192H115V-161H80Z" />
<glyph unicode="&#xa7;" glyph-name="section" horiz-adv-x="423" d="M163 -171T134 -168T87 -158V-123Q105 -129 138 -133T205 -137Q252 -137 277 -113T302 -22Q302 16 297 35T281 64T250 81L145 119Q103 134 85 147T59 190T50 283Q50 345 68 378T128 424Q104
440 94 466T84 540Q84 603 101 637T150 683T229 696Q260 696 289 693T336 683V648Q318 654 285 658T218 662Q171 662 146 638T121 547Q121 509 126 490T142 461T173 444L275 407Q318 391 337 378T364 335T373 242Q373 180 355 146T295 100Q319 85 329 59T339 -15Q339
-78 322 -112T273 -158T194 -171Q163 -171 134 -168ZM295 116T316 145T337 234Q337 285 332 311T319 346T298 359L179 401Q159 408 154 408Q128 408 107 379T86 289Q86 238 91 212T106 177T132 162L248 121Q264 116 269 116Q295 116 316 145Z" />
<glyph unicode="&#xa8;" glyph-name="dieresis" horiz-adv-x="263" d="M26 669V730H67V669H26ZM196 669V730H237V669H196Z" />
<glyph unicode="&#xa9;" glyph-name="copyright" horiz-adv-x="490" d="M159 -8T125 16T80 108T70 344Q70 512 80 580T124 672T245 696Q331 696 365 672T410 580T420 344Q420 176 410 108T366 16T245 -8Q159 -8 125 16ZM318 18T346 38T383 121T392 344Q392 504
384 567T347 650T245 670Q172 670 144 650T107 567T98 344Q98 184 106 121T143 38T245 18Q318 18 346 38ZM222 154T205 167T181 218T174 344Q174 429 180 468T204 520T261 534Q292 534 305 528V500Q285 505 265 505Q236 505 224 495T208 452T204 344Q204 268 208
236T224 194T265 183Q286 183 306 188V159Q286 154 261 154Q222 154 205 167Z" />
<glyph unicode="&#xaa;" glyph-name="ordfeminine" horiz-adv-x="288" d="M88 314T69 323T40 355T30 422Q30 464 37 487T62 519T113 529Q124 529 199 526V554Q199 605 194 628T173 658T125 666Q94 666 44 656V686Q82 696 131 696Q173 696 194 685T223 645T232
558V320H205L201 364H197Q184 337 164 326T121 314Q88 314 69 323ZM146 346T161 356T189 388Q199 408 199 474V498H117Q94 498 83 493T67 471T62 422Q62 390 67 374T84 352T121 346Q146 346 161 356Z" />
<glyph unicode="&#xab;" glyph-name="guillemotleft" horiz-adv-x="288" d="M108 99L25 304L108 510H137L65 304L137 99H108ZM209 99L126 304L209 510H238L167 304L238 99H209Z" />
<glyph unicode="&#xac;" glyph-name="logicalnot" horiz-adv-x="459" d="M365 83V238H60V272H399V83H365Z" />
<glyph unicode="&#xad;" glyph-name="uni00AD" horiz-adv-x="285" d="M60 268V304H225V268H60Z" />
<glyph unicode="&#xae;" glyph-name="registered" horiz-adv-x="490" d="M331 696T365 672T410 580T420 344Q420 176 410 108T366 16T245 -8Q159 -8 125 16T80 108T70 344Q70 512 80 580T124 672T245 696Q331 696 365 672ZM318 18T346 38T383 121T392 344Q392
504 384 567T347 650T245 670Q172 670 144 650T107 567T98 344Q98 184 106 121T143 38T245 18Q318 18 346 38ZM327 380T319 354T287 317L332 157H301L258 311H200V157H170V529H253Q287 529 303 515T323 480T327 422Q327 380 319 354ZM281 340T289 358T297 422Q297
465 289 482T249 500H200V340H249Q281 340 289 358Z" />
<glyph unicode="&#xaf;" glyph-name="overscore" horiz-adv-x="285" d="M60 707V743H225V707H60Z" />
<glyph unicode="&#xb0;" glyph-name="degree" horiz-adv-x="275" d="M97 397T79 409T55 451T50 546Q50 611 55 641T78 683T138 696Q179 696 197 684T220 641T225 546Q225 481 220 452T197 410T138 397Q97 397 79 409ZM164 428T175 437T188 469T191 546Q191 601
189 623T175 655T138 665Q111 665 100 655T87 623T84 546Q84 491 86 469T100 438T138 428Q164 428 175 437Z" />
<glyph unicode="&#xb1;" glyph-name="plusminus" horiz-adv-x="460" d="M214 200V354H60V386H214V540H245V386H400V354H245V200H214ZM60 45V77H400V45H60Z" />
<glyph unicode="&#xb2;" glyph-name="uni00B2" horiz-adv-x="256" d="M81 348H206V318H50V357Q50 403 51 422T59 454T82 478Q127 511 150 527Q165 538 170 553T175 597Q175 637 165 651T127 666Q103 666 54 659V688Q92 696 130 696Q156 696 172 690T197 663T206
602Q206 559 197 538T163 499L138 481Q107 459 99 453Q88 444 85 432T81 383V348Z" />
<glyph unicode="&#xb3;" glyph-name="uni00B3" horiz-adv-x="256" d="M90 310T50 318V347Q94 340 119 340Q147 340 161 355T175 414Q175 491 133 491H88V521H133Q149 521 160 537T172 592Q172 635 159 650T116 666Q97 666 52 658V687Q88 696 120 696Q167 696 185
673T203 593Q203 559 194 540T161 510V506Q183 498 194 477T206 418Q206 362 189 336T120 310Q90 310 50 318Z" />
<glyph unicode="&#xb4;" glyph-name="acute" horiz-adv-x="73" d="M0 605V610L33 743H73V738L23 605H0Z" />
<glyph unicode="&#xb5;" glyph-name="uni00B5" horiz-adv-x="390" d="M330 510V0H303L299 75H295Q286 37 262 15T185 -8Q128 -8 99 25H95V-190H60V510H95V195Q95 118 102 83T128 36T190 24Q239 24 262 52T290 123T295 246V510H330Z" />
<glyph unicode="&#xb6;" glyph-name="paragraph" horiz-adv-x="334" d="M162 222Q97 222 71 238T37 298T30 454Q30 566 37 610T70 671T162 688H198V-144H162V222ZM238 -144V688H274V-144H238Z" />
<glyph unicode="&#xb7;" glyph-name="middot" horiz-adv-x="152" d="M54 267V332H98V267H54Z" />
<glyph unicode="&#xb8;" glyph-name="cedilla" horiz-adv-x="124" d="M20 -190V-185L78 8H104V3L60 -190H20Z" />
<glyph unicode="&#xb9;" glyph-name="uni00B9" horiz-adv-x="188" d="M92 318V646L50 623V654L99 688H123V318H92Z" />
<glyph unicode="&#xba;" glyph-name="ordmasculine" horiz-adv-x="301" d="M102 314T80 329T52 381T45 504Q45 590 51 628T80 681T151 696Q200 696 221 681T249 628T256 504Q256 419 250 382T222 329T151 314Q102 314 80 329ZM186 345T201 356T220 399T224 504Q224
579 220 610T201 654T151 666Q116 666 101 654T82 611T78 504Q78 430 82 399T101 357T151 345Q186 345 201 356Z" />
<glyph unicode="&#xbb;" glyph-name="guillemotright" horiz-adv-x="288" d="M50 99L121 304L50 510H79L162 304L79 99H50ZM151 99L223 304L151 510H180L263 304L180 99H151Z" />
<glyph unicode="&#xbc;" glyph-name="onequarter" horiz-adv-x="436" d="M50 0L320 688H351L81 0H50ZM93 318V646L51 623V654L100 688H124V318H93ZM326 0V84H205V109L285 372H316L238 114H326V276H357V114H391V84H357V0H326Z" />
<glyph unicode="&#xbd;" glyph-name="onehalf" horiz-adv-x="480" d="M320 688H351L81 0H50L320 688ZM93 318V646L51 623V654L100 688H124V318H93ZM305 30H430V0H274V39Q274 85 275 104T283 136T306 160Q351 193 374 209Q389 220 394 235T399 279Q399 319 389
333T351 348Q327 348 278 341V370Q316 378 354 378Q380 378 396 372T421 345T430 284Q430 241 421 220T387 181L365 166Q356 159 346 152T324 135Q310 125 308 112T305 65V30Z" />
<glyph unicode="&#xbe;" glyph-name="threequarters" horiz-adv-x="493" d="M94 340T119 340Q147 340 161 355T175 414Q175 491 133 491H88V521H133Q149 521 160 537T172 592Q172 635 159 650T116 666Q97 666 52 658V687Q88 696 120 696Q167 696 185 673T203 593Q203
559 194 540T161 510V506Q183 498 194 477T206 418Q206 362 189 336T120 310Q90 310 50 318V347Q94 340 119 340ZM107 0L377 688H408L138 0H107ZM383 0V84H262V109L342 372H373L295 114H383V276H414V114H448V84H414V0H383Z" />
<glyph unicode="&#xbf;" glyph-name="questiondown" horiz-adv-x="251" d="M163 445V510H207V445H163ZM115 -186T89 -169T54 -118T45 -27Q45 45 54 88T98 153L129 172Q153 187 160 203T167 252V337H203V250Q203 214 198 195T182 166T152 143L139 135Q116 120 105
108T88 68T81 -16Q81 -72 85 -98T108 -138T168 -152Q204 -152 271 -140V-172Q210 -186 165 -186Q115 -186 89 -169Z" />
<glyph unicode="&#xc0;" glyph-name="Agrave" horiz-adv-x="401" d="M344 0L294 217H105L56 0H20L180 688H221L381 0H344ZM202 617H197L113 251H286L202 617ZM193 750L143 883V888H183L216 755V750H193Z" />
<glyph unicode="&#xc1;" glyph-name="Aacute" horiz-adv-x="401" d="M344 0L294 217H105L56 0H20L180 688H221L381 0H344ZM202 617H197L113 251H286L202 617ZM185 750V755L218 888H258V883L208 750H185Z" />
<glyph unicode="&#xc2;" glyph-name="Acircumflex" horiz-adv-x="401" d="M344 0L294 217H105L56 0H20L180 688H221L381 0H344ZM202 617H197L113 251H286L202 617ZM110 750V755L177 888H223L290 755V750H263L200 858L137 750H110Z" />
<glyph unicode="&#xc3;" glyph-name="Atilde" horiz-adv-x="401" d="M344 0L294 217H105L56 0H20L180 688H221L381 0H344ZM202 617H197L113 251H286L202 617ZM314 802T305 782T266 761Q250 761 235 767T197 787Q177 799 163 805T135 812Q122 812 118 799T114 750H87Q87
804 96 824T135 845Q152 845 168 838T208 817Q246 794 266 794Q279 794 283 807T287 856H314Q314 802 305 782Z" />
<glyph unicode="&#xc4;" glyph-name="Adieresis" horiz-adv-x="401" d="M344 0L294 217H105L56 0H20L180 688H221L381 0H344ZM202 617H197L113 251H286L202 617ZM95 770V831H136V770H95ZM265 770V831H306V770H265Z" />
<glyph unicode="&#xc5;" glyph-name="Aring" horiz-adv-x="401" d="M381 0H344L294 217H105L56 0H20L179 687Q152 689 140 698T124 723T120 772Q120 807 125 824T147 850T200 858Q236 858 253 850T275 825T281 772Q281 727 270 709T221 687L381 0ZM153 747T156
736T168 720T200 715Q231 715 239 726T248 772Q248 807 240 818T200 830Q178 830 169 825T156 809T153 772Q153 747 156 736ZM113 251H286L202 617H197L113 251Z" />
<glyph unicode="&#xc6;" glyph-name="AE" horiz-adv-x="545" d="M324 0L291 217H103L36 0H0L215 688H515V654H261L305 365H487V331H310L356 34H515V0H324ZM232 617H227L113 251H286L232 617Z" />
<glyph unicode="&#xc7;" glyph-name="Ccedilla" horiz-adv-x="318" d="M234 26T256 29T293 36V2Q256 -8 210 -8Q194 -8 170 -6L128 -190H88V-185L143 -2Q104 9 84 42T57 144T50 344Q50 503 61 574T105 671T210 696Q230 696 253 693T291 684V652Q256 662 216 662Q154
662 128 641T94 558T86 344Q86 193 94 131T128 47T216 26Q234 26 256 29Z" />
<glyph unicode="&#xc8;" glyph-name="Egrave" horiz-adv-x="351" d="M65 0V688H321V654H102V365H293V331H102V34H321V0H65ZM193 750L143 883V888H183L216 755V750H193Z" />
<glyph unicode="&#xc9;" glyph-name="Eacute" horiz-adv-x="351" d="M65 0V688H321V654H102V365H293V331H102V34H321V0H65ZM186 750V755L219 888H259V883L209 750H186Z" />
<glyph unicode="&#xca;" glyph-name="Ecircumflex" horiz-adv-x="351" d="M65 0V688H321V654H102V365H293V331H102V34H321V0H65ZM103 750V755L170 888H216L283 755V750H256L193 858L130 750H103Z" />
<glyph unicode="&#xcb;" glyph-name="Edieresis" horiz-adv-x="351" d="M65 0V688H321V654H102V365H293V331H102V34H321V0H65ZM88 770V831H129V770H88ZM258 770V831H299V770H258Z" />
<glyph unicode="&#xcc;" glyph-name="Igrave" horiz-adv-x="176" d="M70 0V688H106V0H70ZM83 750L33 883V888H73L106 755V750H83Z" />
<glyph unicode="&#xcd;" glyph-name="Iacute" horiz-adv-x="176" d="M70 0V688H106V0H70ZM70 750V755L103 888H143V883L93 750H70Z" />
<glyph unicode="&#xce;" glyph-name="Icircumflex" horiz-adv-x="176" d="M70 0V688H106V0H70ZM-2 750V755L65 888H111L178 755V750H151L88 858L25 750H-2Z" />
<glyph unicode="&#xcf;" glyph-name="Idieresis" horiz-adv-x="176" d="M70 0V688H106V0H70ZM239 770V831H280V770H239ZM409 770V831H450V770H409Z" />
<glyph unicode="&#xd0;" glyph-name="Eth" horiz-adv-x="407" d="M65 331H11V367H65V688H193Q269 688 302 664T346 571T357 344Q357 186 346 118T302 25T193 0H65V331ZM253 34T277 51T311 130T321 344Q321 495 312 557T278 637T193 654H101V367H216V331H101V34H193Q253
34 277 51Z" />
<glyph unicode="&#xd1;" glyph-name="Ntilde" horiz-adv-x="434" d="M326 0L104 595H100V0H65V688H108L330 93H334V688H369V0H326ZM331 802T322 782T283 761Q267 761 252 767T214 787Q194 799 180 805T152 812Q139 812 135 799T131 750H104Q104 804 113 824T152
845Q169 845 185 838T225 817Q263 794 283 794Q296 794 300 807T304 856H331Q331 802 322 782Z" />
<glyph unicode="&#xd2;" glyph-name="Ograve" horiz-adv-x="428" d="M138 -8T105 17T61 112T50 344Q50 505 61 575T105 671T214 696Q290 696 323 671T367 576T378 344Q378 183 367 113T323 17T214 -8Q138 -8 105 17ZM274 26T298 43T332 125T342 344Q342 499 333
563T299 644T214 662Q154 662 130 645T96 563T86 344Q86 189 95 125T129 44T214 26Q274 26 298 43ZM207 750L157 883V888H197L230 755V750H207Z" />
<glyph unicode="&#xd3;" glyph-name="Oacute" horiz-adv-x="428" d="M138 -8T105 17T61 112T50 344Q50 505 61 575T105 671T214 696Q290 696 323 671T367 576T378 344Q378 183 367 113T323 17T214 -8Q138 -8 105 17ZM274 26T298 43T332 125T342 344Q342 499 333
563T299 644T214 662Q154 662 130 645T96 563T86 344Q86 189 95 125T129 44T214 26Q274 26 298 43ZM199 750V755L232 888H272V883L222 750H199Z" />
<glyph unicode="&#xd4;" glyph-name="Ocircumflex" horiz-adv-x="428" d="M138 -8T105 17T61 112T50 344Q50 505 61 575T105 671T214 696Q290 696 323 671T367 576T378 344Q378 183 367 113T323 17T214 -8Q138 -8 105 17ZM274 26T298 43T332 125T342 344Q342 499
333 563T299 644T214 662Q154 662 130 645T96 563T86 344Q86 189 95 125T129 44T214 26Q274 26 298 43ZM124 750V755L191 888H237L304 755V750H277L214 858L151 750H124Z" />
<glyph unicode="&#xd5;" glyph-name="Otilde" horiz-adv-x="428" d="M138 -8T105 17T61 112T50 344Q50 505 61 575T105 671T214 696Q290 696 323 671T367 576T378 344Q378 183 367 113T323 17T214 -8Q138 -8 105 17ZM274 26T298 43T332 125T342 344Q342 499 333
563T299 644T214 662Q154 662 130 645T96 563T86 344Q86 189 95 125T129 44T214 26Q274 26 298 43ZM327 802T318 782T279 761Q263 761 248 767T210 787Q190 799 176 805T148 812Q135 812 131 799T127 750H100Q100 804 109 824T148 845Q165 845 181 838T221 817Q259
794 279 794Q292 794 296 807T300 856H327Q327 802 318 782Z" />
<glyph unicode="&#xd6;" glyph-name="Odieresis" horiz-adv-x="428" d="M138 -8T105 17T61 112T50 344Q50 505 61 575T105 671T214 696Q290 696 323 671T367 576T378 344Q378 183 367 113T323 17T214 -8Q138 -8 105 17ZM274 26T298 43T332 125T342 344Q342 499
333 563T299 644T214 662Q154 662 130 645T96 563T86 344Q86 189 95 125T129 44T214 26Q274 26 298 43ZM108 770V831H149V770H108ZM278 770V831H319V770H278Z" />
<glyph unicode="&#xd7;" glyph-name="multiply" horiz-adv-x="402" d="M202 230L84 112L61 134L179 252L60 371L83 394L202 275L320 393L342 370L224 252L342 135L319 112L202 230Z" />
<glyph unicode="&#xd8;" glyph-name="Oslash" horiz-adv-x="428" d="M343 648Q364 615 371 548T378 344Q378 183 367 113T323 17T214 -8Q142 -8 110 13L85 -55H50L85 40Q64 73 57 140T50 344Q50 505 61 575T105 671T214 696Q287 696 318 675L343 743H378L343 648ZM86
230T89 172T100 82L307 644Q294 656 274 659T214 662Q154 662 130 645T96 563T86 344Q86 230 89 172ZM342 458T339 516T328 606L121 44Q134 32 154 29T214 26Q274 26 298 43T332 125T342 344Q342 458 339 516Z" />
<glyph unicode="&#xd9;" glyph-name="Ugrave" horiz-adv-x="425" d="M365 688V294Q365 162 356 102T315 17T213 -8Q142 -8 111 17T70 102T60 294V688H96V264Q96 158 102 112T133 46T213 26Q268 26 292 45T322 111T329 264V688H365ZM209 750L159 883V888H199L232
755V750H209Z" />
<glyph unicode="&#xda;" glyph-name="Uacute" horiz-adv-x="425" d="M365 688V294Q365 162 356 102T315 17T213 -8Q142 -8 111 17T70 102T60 294V688H96V264Q96 158 102 112T133 46T213 26Q268 26 292 45T322 111T329 264V688H365ZM202 750V755L235 888H275V883L225
750H202Z" />
<glyph unicode="&#xdb;" glyph-name="Ucircumflex" horiz-adv-x="425" d="M365 688V294Q365 162 356 102T315 17T213 -8Q142 -8 111 17T70 102T60 294V688H96V264Q96 158 102 112T133 46T213 26Q268 26 292 45T322 111T329 264V688H365ZM122 750V755L189 888H235L302
755V750H275L212 858L149 750H122Z" />
<glyph unicode="&#xdc;" glyph-name="Udieresis" horiz-adv-x="425" d="M365 688V294Q365 162 356 102T315 17T213 -8Q142 -8 111 17T70 102T60 294V688H96V264Q96 158 102 112T133 46T213 26Q268 26 292 45T322 111T329 264V688H365ZM107 770V831H148V770H107ZM277
770V831H318V770H277Z" />
<glyph unicode="&#xdd;" glyph-name="Yacute" horiz-adv-x="335" d="M149 0V281L0 688H38L166 334H171L299 688H335L185 281V0H149ZM158 750V755L191 888H231V883L181 750H158Z" />
<glyph unicode="&#xde;" glyph-name="Thorn" horiz-adv-x="375" d="M65 688H101V557H214Q276 557 305 530T342 461T350 350Q350 284 342 241T304 171T214 143H101V0H65V688ZM213 177Q258 177 280 197T308 252T314 350Q314 412 308 447T280 503T213 523H101V177H213Z" />
<glyph unicode="&#xdf;" glyph-name="germandbls" horiz-adv-x="398" d="M167 0V32H201Q254 32 277 45T307 100T315 237Q315 312 306 352T276 410T216 427H191V459H216Q267 459 288 489T310 589Q310 661 286 689T202 718Q143 718 119 685T94 571V0H60V563Q60 636
75 676T121 733T202 750Q277 750 311 715T345 588Q345 521 326 490T265 448V444Q309 434 329 389T350 246Q350 146 340 96T302 23T213 0H167Z" />
<glyph unicode="&#xe0;" glyph-name="agrave" horiz-adv-x="359" d="M109 -8T83 3T43 46T30 138Q30 195 40 226T74 270T142 283Q176 283 268 278V324Q268 399 260 431T230 475T159 486Q136 486 104 482T51 473V506Q103 518 167 518Q223 518 251 503T291 448T303
330V0H276L272 75H268Q257 24 227 8T154 -8Q109 -8 83 3ZM194 24T218 35T254 84Q262 113 265 142T268 210V251H148Q113 251 96 243T72 212T65 138Q65 90 72 66T98 33T154 24Q194 24 218 35ZM169 605L119 738V743H159L192 610V605H169Z" />
<glyph unicode="&#xe1;" glyph-name="aacute" horiz-adv-x="359" d="M109 -8T83 3T43 46T30 138Q30 195 40 226T74 270T142 283Q176 283 268 278V324Q268 399 260 431T230 475T159 486Q136 486 104 482T51 473V506Q103 518 167 518Q223 518 251 503T291 448T303
330V0H276L272 75H268Q257 24 227 8T154 -8Q109 -8 83 3ZM194 24T218 35T254 84Q262 113 265 142T268 210V251H148Q113 251 96 243T72 212T65 138Q65 90 72 66T98 33T154 24Q194 24 218 35ZM162 605V610L195 743H235V738L185 605H162Z" />
<glyph unicode="&#xe2;" glyph-name="acircumflex" horiz-adv-x="359" d="M109 -8T83 3T43 46T30 138Q30 195 40 226T74 270T142 283Q176 283 268 278V324Q268 399 260 431T230 475T159 486Q136 486 104 482T51 473V506Q103 518 167 518Q223 518 251 503T291 448T303
330V0H276L272 75H268Q257 24 227 8T154 -8Q109 -8 83 3ZM194 24T218 35T254 84Q262 113 265 142T268 210V251H148Q113 251 96 243T72 212T65 138Q65 90 72 66T98 33T154 24Q194 24 218 35ZM90 605V610L157 743H203L270 610V605H243L180 713L117 605H90Z" />
<glyph unicode="&#xe3;" glyph-name="atilde" horiz-adv-x="359" d="M109 -8T83 3T43 46T30 138Q30 195 40 226T74 270T142 283Q176 283 268 278V324Q268 399 260 431T230 475T159 486Q136 486 104 482T51 473V506Q103 518 167 518Q223 518 251 503T291 448T303
330V0H276L272 75H268Q257 24 227 8T154 -8Q109 -8 83 3ZM194 24T218 35T254 84Q262 113 265 142T268 210V251H148Q113 251 96 243T72 212T65 138Q65 90 72 66T98 33T154 24Q194 24 218 35ZM293 689T284 669T245 648Q229 648 214 654T176 674Q156 686 142 692T114
699Q101 699 97 686T93 637H66Q66 691 75 711T114 732Q131 732 147 725T187 704Q225 681 245 681Q258 681 262 694T266 743H293Q293 689 284 669Z" />
<glyph unicode="&#xe4;" glyph-name="adieresis" horiz-adv-x="359" d="M109 -8T83 3T43 46T30 138Q30 195 40 226T74 270T142 283Q176 283 268 278V324Q268 399 260 431T230 475T159 486Q136 486 104 482T51 473V506Q103 518 167 518Q223 518 251 503T291 448T303
330V0H276L272 75H268Q257 24 227 8T154 -8Q109 -8 83 3ZM194 24T218 35T254 84Q262 113 265 142T268 210V251H148Q113 251 96 243T72 212T65 138Q65 90 72 66T98 33T154 24Q194 24 218 35ZM75 669V730H116V669H75ZM245 669V730H286V669H245Z" />
<glyph unicode="&#xe5;" glyph-name="aring" horiz-adv-x="359" d="M109 -8T83 3T43 46T30 138Q30 195 40 226T74 270T142 283Q176 283 268 278V324Q268 399 260 431T230 475T159 486Q136 486 104 482T51 473V506Q103 518 167 518Q223 518 251 503T291 448T303
330V0H276L272 75H268Q257 24 227 8T154 -8Q109 -8 83 3ZM194 24T218 35T254 84Q262 113 265 142T268 210V251H148Q113 251 96 243T72 212T65 138Q65 90 72 66T98 33T154 24Q194 24 218 35ZM143 620T127 628T105 653T99 705Q99 740 104 757T126 783T179 791Q215
791 232 783T254 758T260 705Q260 670 255 653T232 628T179 620Q143 620 127 628ZM210 648T218 659T227 705Q227 740 219 751T179 763Q157 763 148 758T135 742T132 705Q132 680 135 669T147 653T179 648Q210 648 218 659Z" />
<glyph unicode="&#xe6;" glyph-name="ae" horiz-adv-x="589" d="M544 247H303Q303 150 310 105T342 42T419 24Q446 24 477 28T532 38V5Q513 0 480 -4T416 -8Q356 -8 325 12T281 83Q266 27 234 10T154 -8Q109 -8 83 3T43 46T30 138Q30 193 40 223T74 266T142 279H268V324Q268
399 260 431T230 475T159 486Q136 486 104 482T51 473V506Q103 518 167 518Q218 518 246 504T287 452Q301 487 331 502T414 518Q475 518 502 496T536 423T544 260V247ZM361 486T339 472T310 416T303 279H509V296Q509 382 501 421T473 473T412 486Q361 486 339 472ZM268
247H148Q113 247 96 240T72 209T65 138Q65 90 72 66T98 33T154 24Q194 24 219 35T255 87Q268 135 268 210V247Z" />
<glyph unicode="&#xe7;" glyph-name="ccedilla" horiz-adv-x="302" d="M209 24T233 27T272 37V4Q256 -1 232 -4T184 -8Q169 -8 162 -7L120 -190H80V-185L135 -3Q95 6 76 35T51 113T45 254Q45 363 56 418T95 496T181 518Q202 518 227 515T269 507V474Q228 486 185
486Q139 486 117 468T88 402T80 256Q80 154 87 107T117 42T187 24Q209 24 233 27Z" />
<glyph unicode="&#xe8;" glyph-name="egrave" horiz-adv-x="366" d="M321 243H80Q80 147 87 104T119 42T196 24Q223 24 254 28T309 38V5Q290 0 257 -4T193 -8Q128 -8 97 13T56 89T45 254Q45 368 53 419T91 494T191 518Q252 518 279 496T313 422T321 256V243ZM138
486T116 471T87 415T80 275H286V296Q286 382 278 421T250 473T189 486Q138 486 116 471ZM180 605L130 738V743H170L203 610V605H180Z" />
<glyph unicode="&#xe9;" glyph-name="eacute" horiz-adv-x="366" d="M321 243H80Q80 147 87 104T119 42T196 24Q223 24 254 28T309 38V5Q290 0 257 -4T193 -8Q128 -8 97 13T56 89T45 254Q45 368 53 419T91 494T191 518Q252 518 279 496T313 422T321 256V243ZM138
486T116 471T87 415T80 275H286V296Q286 382 278 421T250 473T189 486Q138 486 116 471ZM179 605V610L212 743H252V738L202 605H179Z" />
<glyph unicode="&#xea;" glyph-name="ecircumflex" horiz-adv-x="366" d="M321 243H80Q80 147 87 104T119 42T196 24Q223 24 254 28T309 38V5Q290 0 257 -4T193 -8Q128 -8 97 13T56 89T45 254Q45 368 53 419T91 494T191 518Q252 518 279 496T313 422T321 256V243ZM138
486T116 471T87 415T80 275H286V296Q286 382 278 421T250 473T189 486Q138 486 116 471ZM96 605V610L163 743H209L276 610V605H249L186 713L123 605H96Z" />
<glyph unicode="&#xeb;" glyph-name="edieresis" horiz-adv-x="366" d="M321 243H80Q80 147 87 104T119 42T196 24Q223 24 254 28T309 38V5Q290 0 257 -4T193 -8Q128 -8 97 13T56 89T45 254Q45 368 53 419T91 494T191 518Q252 518 279 496T313 422T321 256V243ZM138
486T116 471T87 415T80 275H286V296Q286 382 278 421T250 473T189 486Q138 486 116 471ZM83 669V730H124V669H83ZM253 669V730H294V669H253Z" />
<glyph unicode="&#xec;" glyph-name="igrave" horiz-adv-x="155" d="M60 0V510H95V0H60ZM72 605L22 738V743H62L95 610V605H72Z" />
<glyph unicode="&#xed;" glyph-name="iacute" horiz-adv-x="155" d="M60 0V510H95V0H60ZM60 605V610L93 743H133V738L83 605H60Z" />
<glyph unicode="&#xee;" glyph-name="icircumflex" horiz-adv-x="155" d="M60 0V510H95V0H60ZM244 605V610L311 743H357L424 610V605H397L334 713L271 605H244Z" />
<glyph unicode="&#xef;" glyph-name="idieresis" horiz-adv-x="155" d="M60 0V510H95V0H60ZM228 669V730H269V669H228ZM398 669V730H439V669H398Z" />
<glyph unicode="&#xf0;" glyph-name="eth" horiz-adv-x="376" d="M120 -8T91 13T53 86T45 254Q45 374 53 425T90 497T188 518Q248 518 277 482L281 484Q261 581 229 649L135 634V666L214 678Q197 709 175 739V743H215Q238 712 252 684L320 695V663L267 655Q290
600 305 533T326 404Q331 343 331 279Q331 147 324 93T288 16T188 -8Q120 -8 91 13ZM242 24T264 42T291 104T296 254Q296 349 291 393T263 461T188 486Q133 486 112 469T85 409T80 254Q80 147 85 104T112 43T188 24Q242 24 264 42Z" />
<glyph unicode="&#xf1;" glyph-name="ntilde" horiz-adv-x="386" d="M295 315Q295 392 288 427T262 474T200 486Q151 486 128 458T100 387T95 264V0H60V510H87L91 435H95Q104 473 129 495T209 518Q261 518 287 499T321 439T330 320V0H295V315ZM312 689T303 669T264
648Q248 648 233 654T195 674Q175 686 161 692T133 699Q120 699 116 686T112 637H85Q85 691 94 711T133 732Q150 732 166 725T206 704Q244 681 264 681Q277 681 281 694T285 743H312Q312 689 303 669Z" />
<glyph unicode="&#xf2;" glyph-name="ograve" horiz-adv-x="376" d="M122 -8T93 12T54 85T45 254Q45 371 54 424T92 497T188 518Q254 518 283 498T322 424T331 254Q331 137 322 85T284 13T188 -8Q122 -8 93 12ZM240 24T262 41T290 102T296 254Q296 362 290 406T262
468T188 486Q136 486 114 469T86 407T80 254Q80 147 86 103T114 41T188 24Q240 24 262 41ZM181 605L131 738V743H171L204 610V605H181Z" />
<glyph unicode="&#xf3;" glyph-name="oacute" horiz-adv-x="376" d="M122 -8T93 12T54 85T45 254Q45 371 54 424T92 497T188 518Q254 518 283 498T322 424T331 254Q331 137 322 85T284 13T188 -8Q122 -8 93 12ZM240 24T262 41T290 102T296 254Q296 362 290 406T262
468T188 486Q136 486 114 469T86 407T80 254Q80 147 86 103T114 41T188 24Q240 24 262 41ZM165 605V610L198 743H238V738L188 605H165Z" />
<glyph unicode="&#xf4;" glyph-name="ocircumflex" horiz-adv-x="376" d="M122 -8T93 12T54 85T45 254Q45 371 54 424T92 497T188 518Q254 518 283 498T322 424T331 254Q331 137 322 85T284 13T188 -8Q122 -8 93 12ZM240 24T262 41T290 102T296 254Q296 362 290
406T262 468T188 486Q136 486 114 469T86 407T80 254Q80 147 86 103T114 41T188 24Q240 24 262 41ZM100 605V610L167 743H213L280 610V605H253L190 713L127 605H100Z" />
<glyph unicode="&#xf5;" glyph-name="otilde" horiz-adv-x="376" d="M122 -8T93 12T54 85T45 254Q45 371 54 424T92 497T188 518Q254 518 283 498T322 424T331 254Q331 137 322 85T284 13T188 -8Q122 -8 93 12ZM240 24T262 41T290 102T296 254Q296 362 290 406T262
468T188 486Q136 486 114 469T86 407T80 254Q80 147 86 103T114 41T188 24Q240 24 262 41ZM302 689T293 669T254 648Q238 648 223 654T185 674Q165 686 151 692T123 699Q110 699 106 686T102 637H75Q75 691 84 711T123 732Q140 732 156 725T196 704Q234 681 254
681Q267 681 271 694T275 743H302Q302 689 293 669Z" />
<glyph unicode="&#xf6;" glyph-name="odieresis" horiz-adv-x="376" d="M122 -8T93 12T54 85T45 254Q45 371 54 424T92 497T188 518Q254 518 283 498T322 424T331 254Q331 137 322 85T284 13T188 -8Q122 -8 93 12ZM240 24T262 41T290 102T296 254Q296 362 290
406T262 468T188 486Q136 486 114 469T86 407T80 254Q80 147 86 103T114 41T188 24Q240 24 262 41ZM85 669V730H126V669H85ZM255 669V730H296V669H255Z" />
<glyph unicode="&#xf7;" glyph-name="divide" horiz-adv-x="460" d="M209 389V441H251V389H209ZM60 237V269H400V237H60ZM209 65V117H251V65H209Z" />
<glyph unicode="&#xf8;" glyph-name="oslash" horiz-adv-x="376" d="M298 484Q318 459 324 408T331 254Q331 137 322 85T284 13T188 -8Q131 -8 104 5L80 -55H45L78 26Q58 51 52 101T45 254Q45 371 54 424T92 497T188 518Q243 518 271 504L296 565H331L298 484ZM80
168T82 127T93 64L259 473Q238 486 188 486Q136 486 114 469T86 407T80 254Q80 168 82 127ZM296 344T294 383T282 445L117 35Q135 24 188 24Q240 24 262 41T290 102T296 254Q296 344 294 383Z" />
<glyph unicode="&#xf9;" glyph-name="ugrave" horiz-adv-x="386" d="M295 75H291Q282 37 257 15T177 -8Q125 -8 99 11T65 70T56 190V510H91V195Q91 118 98 83T124 36T186 24Q235 24 258 52T286 123T291 246V510H326V0H299L295 75ZM189 605L139 738V743H179L212
610V605H189Z" />
<glyph unicode="&#xfa;" glyph-name="uacute" horiz-adv-x="386" d="M295 75H291Q282 37 257 15T177 -8Q125 -8 99 11T65 70T56 190V510H91V195Q91 118 98 83T124 36T186 24Q235 24 258 52T286 123T291 246V510H326V0H299L295 75ZM179 605V610L212 743H252V738L202
605H179Z" />
<glyph unicode="&#xfb;" glyph-name="ucircumflex" horiz-adv-x="386" d="M295 75H291Q282 37 257 15T177 -8Q125 -8 99 11T65 70T56 190V510H91V195Q91 118 98 83T124 36T186 24Q235 24 258 52T286 123T291 246V510H326V0H299L295 75ZM102 605V610L169 743H215L282
610V605H255L192 713L129 605H102Z" />
<glyph unicode="&#xfc;" glyph-name="udieresis" horiz-adv-x="386" d="M295 75H291Q282 37 257 15T177 -8Q125 -8 99 11T65 70T56 190V510H91V195Q91 118 98 83T124 36T186 24Q235 24 258 52T286 123T291 246V510H326V0H299L295 75ZM85 669V730H126V669H85ZM255
669V730H296V669H255Z" />
<glyph unicode="&#xfd;" glyph-name="yacute" horiz-adv-x="386" d="M112 -196T60 -193V-160Q108 -164 165 -164Q221 -164 248 -142T283 -74T291 58V67H287Q278 33 255 13T174 -8Q123 -8 98 11T65 71T56 190V510H91V195Q91 118 98 83T124 36T186 24Q235 24 258
52T286 123T291 246V510H326V77Q326 -31 314 -88T268 -170T168 -196Q112 -196 60 -193ZM182 605V610L215 743H255V738L205 605H182Z" />
<glyph unicode="&#xfe;" glyph-name="thorn" horiz-adv-x="386" d="M60 743H95V444H99Q109 484 135 501T206 518Q264 518 292 497T330 421T341 255Q341 143 331 89T292 14T206 -8Q161 -8 135 9T99 66H95V-190H60V743ZM248 24T269 40T298 102T306 255Q306 361 299
407T270 470T200 486Q159 486 136 466T103 399Q95 357 95 255Q95 157 102 119Q113 67 136 46T200 24Q248 24 269 40Z" />
<glyph unicode="&#xff;" glyph-name="ydieresis" horiz-adv-x="386" d="M112 -196T60 -193V-160Q108 -164 165 -164Q221 -164 248 -142T283 -74T291 58V67H287Q278 33 255 13T174 -8Q123 -8 98 11T65 71T56 190V510H91V195Q91 118 98 83T124 36T186 24Q235 24
258 52T286 123T291 246V510H326V77Q326 -31 314 -88T268 -170T168 -196Q112 -196 60 -193ZM85 669V730H126V669H85ZM255 669V730H296V669H255Z" />
<glyph unicode="&#x2013;" glyph-name="endash" horiz-adv-x="400" d="M60 287V321H340V287H60Z" />
<glyph unicode="&#x2014;" glyph-name="emdash" horiz-adv-x="801" d="M60 287V321H741V287H60Z" />
<glyph unicode="&#x2018;" glyph-name="quoteleft" horiz-adv-x="125" d="M35 597Q35 634 40 653T61 680T105 688V667Q84 667 75 662T64 644T61 604V587H81V522H35V597Z" />
<glyph unicode="&#x2019;" glyph-name="quoteright" horiz-adv-x="125" d="M41 543T50 548T61 566T64 606V623H44V688H90V613Q90 576 85 557T64 530T20 522V543Q41 543 50 548Z" />
<glyph unicode="&#x201a;" glyph-name="quotesinglbase" horiz-adv-x="152" d="M49 -80T58 -75T69 -57T72 -17V0H52V65H98V-10Q98 -47 93 -66T72 -93T28 -101V-80Q49 -80 58 -75Z" />
<glyph unicode="&#x201c;" glyph-name="quotedblleft" horiz-adv-x="225" d="M35 597Q35 634 40 653T61 680T105 688V667Q84 667 75 662T64 644T61 604V587H81V522H35V597ZM135 597Q135 634 140 653T161 680T205 688V667Q184 667 175 662T164 644T161 604V587H181V522H135V597Z"
/>
<glyph unicode="&#x201d;" glyph-name="quotedblright" horiz-adv-x="225" d="M41 543T50 548T61 566T64 606V623H44V688H90V613Q90 576 85 557T64 530T20 522V543Q41 543 50 548ZM141 543T150 548T161 566T164 606V623H144V688H190V613Q190 576 185 557T164 530T120
522V543Q141 543 150 548Z" />
<glyph unicode="&#x201e;" glyph-name="quotedblbase" horiz-adv-x="252" d="M49 -80T58 -75T69 -57T72 -17V0H52V65H98V-10Q98 -47 93 -66T72 -93T28 -101V-80Q49 -80 58 -75ZM149 -80T158 -75T169 -57T172 -17V0H152V65H198V-10Q198 -47 193 -66T172 -93T128
-101V-80Q149 -80 158 -75Z" />
<glyph unicode="&#x2022;" glyph-name="bullet" horiz-adv-x="261" d="M206 307T202 293T182 274T129 268Q93 268 78 273T59 293T55 342Q55 378 59 393T78 413T129 419Q167 419 182 414T201 393T206 342Q206 307 202 293Z" />
<glyph unicode="&#x2039;" glyph-name="guilsinglleft" horiz-adv-x="187" d="M108 99L25 304L108 510H137L65 304L137 99H108Z" />
<glyph unicode="&#x203a;" glyph-name="guilsinglright" horiz-adv-x="187" d="M50 99L121 304L50 510H79L162 304L79 99H50Z" />
</font>
</defs>
</svg>
