<?xml version="1.0" standalone="no"?>
<!DOCTYPE svg PUBLIC "-//W3C//DTD SVG 1.1//EN" "http://www.w3.org/Graphics/SVG/1.1/DTD/svg11.dtd">
<svg xmlns="http://www.w3.org/2000/svg">
<defs >
<font id="QuattrocentoSans" horiz-adv-x="439" ><font-face
    font-family="Quattrocento Sans"
    units-per-em="1000"
    panose-1="2 11 8 2 5 0 0 2 0 3"
    ascent="848"
    descent="-260"
    alphabetic="0" />
<glyph unicode=" " glyph-name="space" horiz-adv-x="245" />
<glyph unicode="!" glyph-name="exclam" horiz-adv-x="271" d="M72 180L155 682H292L159 180H72ZM16 47Q16 63 23 77T43 103T70 121T103 128Q129 128 146 111T163 69Q163 53 155 39T133 13T104 -5T72 -12Q47 -12 32 5T16 47Z" />
<glyph unicode="&quot;" glyph-name="quotedbl" horiz-adv-x="375" d="M120 516L145 732H266L196 516H120ZM277 516L302 732H423L353 516H277Z" />
<glyph unicode="#" glyph-name="numbersign" horiz-adv-x="620" d="M523 461H624L591 379H488L450 290H558L523 207H415L327 0H223L311 207H225L137 0H33L121 207H24L59 290H156L194 379H92L125 461H229L311 654H415L333 461H419L501 654H605L523 461ZM346 290L384
379H298L260 290H346Z" />
<glyph unicode="$" glyph-name="dollar" horiz-adv-x="524" d="M390 662Q431 658 465 649T524 627L475 521Q454 537 426 548T369 565L332 392Q358 381 383 367T427 332T458 285T470 221Q470 165 452 125T403 56T332 13T247 -8L229 -96H149L167 -11Q111 -8 66 7T-10
43L41 146Q67 121 103 105T187 84L232 293Q209 301 186 313T143 343T111 387T98 452Q98 506 114 544T160 607T227 646T311 663L329 750H409L390 662ZM354 185Q354 211 340 230T305 261L268 90Q312 101 333 126T354 185ZM209 487Q209 464 222 449T259 422L290 567Q254
561 232 542T209 487Z" />
<glyph unicode="%" glyph-name="percent" horiz-adv-x="843" d="M171 -24H81L696 691H786L171 -24ZM279 665Q310 665 333 654T371 623T394 577T402 522Q402 480 387 439T345 366T279 314T196 294Q165 294 143 305T105 334T83 378T76 433Q76 479 91 521T134 595T198
646T279 665ZM211 359Q238 359 258 374T291 412T310 464T317 520Q317 555 304 577T263 600Q231 600 212 582T181 537T166 483T162 436Q162 359 211 359ZM669 366Q700 366 723 355T761 324T784 278T792 223Q792 181 777 140T735 67T669 15T586 -5Q555 -5 533 6T495
35T473 79T466 134Q466 180 481 222T524 296T588 347T669 366ZM601 60Q628 60 648 75T681 113T700 165T707 221Q707 256 694 278T653 301Q621 301 602 283T571 238T556 184T552 137Q552 60 601 60Z" />
<glyph unicode="&amp;" glyph-name="ampersand" horiz-adv-x="701" d="M703 442L687 365L541 354Q553 316 553 275Q553 201 510 137L614 0H489L441 62Q398 28 343 8T221 -12Q172 -12 136 1T75 36T40 86T28 146Q28 176 40 209T75 272T131 328T207 371Q173 424 173
483Q173 527 188 561T229 618T288 653T357 665Q391 665 426 654T491 621L442 525Q435 533 424 541T399 556T372 567T345 572Q316 572 294 551T272 491Q272 465 284 443T313 398L449 218Q458 243 458 272Q458 289 454 308T442 346L392 343L406 405L703 442ZM250
84Q291 84 325 96T388 132L254 307Q230 301 210 287T177 254T156 212T148 168Q148 126 176 105T250 84Z" />
<glyph unicode="&apos;" glyph-name="quotesingle" horiz-adv-x="218" d="M120 516L145 732H266L196 516H120Z" />
<glyph unicode="(" glyph-name="parenleft" horiz-adv-x="326" d="M413 746Q332 670 282 599T205 460T168 328T159 203Q159 174 162 138T175 62T198 -17T234 -92L162 -117Q102 -51 72 40T41 228Q41 307 63 381T125 524T223 655T350 771L413 746Z" />
<glyph unicode=")" glyph-name="parenright" horiz-adv-x="326" d="M187 771Q216 738 238 698T276 613T300 521T308 425Q308 347 286 272T224 129T126 -2T-1 -117L-63 -92Q-2 -33 45 27T125 153T174 293T191 457Q191 538 172 612T114 746L187 771Z" />
<glyph unicode="*" glyph-name="asterisk" d="M307 578L417 665L450 576L322 538L434 500L363 411L290 497V374H188L241 497L131 411L98 500L225 538L114 576L185 665L258 578V702H360L307 578Z" />
<glyph unicode="+" glyph-name="plus" horiz-adv-x="483" d="M288 280H440L423 198H271L238 41H146L179 198H28L45 280H196L228 427H320L288 280Z" />
<glyph unicode="," glyph-name="comma" horiz-adv-x="260" d="M-31 -118L38 -5H13L42 132H161L129 -20L0 -143L-31 -118Z" />
<glyph unicode="-" glyph-name="hyphen" horiz-adv-x="469" d="M405 280L388 198H50L67 280H405Z" />
<glyph unicode="." glyph-name="period" horiz-adv-x="252" d="M10 47Q10 63 17 78T37 105T65 124T98 132Q123 132 140 113T157 69Q157 53 149 39T128 13T99 -5T67 -12Q41 -12 26 5T10 47Z" />
<glyph unicode="/" glyph-name="slash" horiz-adv-x="467" d="M81 -57H-34L405 702H520L81 -57Z" />
<glyph unicode="0" glyph-name="zero" horiz-adv-x="641" d="M404 665Q456 665 494 645T558 589T597 508T610 409Q610 332 584 257T511 122T399 25T254 -12Q203 -12 165 7T103 61T66 140T54 237Q54 320 80 397T152 533T263 629T404 665ZM278 84Q330 84 369 114T435
191T475 296T489 410Q489 480 463 524T380 569Q323 569 285 536T222 454T188 347T177 239Q177 164 202 124T278 84Z" />
<glyph unicode="1" glyph-name="one" horiz-adv-x="334" d="M188 0H73L176 486L87 450V550L328 660L188 0Z" />
<glyph unicode="2" glyph-name="two" horiz-adv-x="503" d="M122 613Q143 623 169 632T224 649T280 661T334 665Q409 665 453 628T497 530Q497 493 482 457T440 385T378 314T304 243T225 171T148 100H415L394 0H-11L10 100Q46 138 87 174T170 246T249 315T316
382T363 446T381 509Q381 543 357 557T295 572Q252 572 207 559T127 527L122 613Z" />
<glyph unicode="3" glyph-name="three" horiz-adv-x="530" d="M142 612Q185 635 237 650T339 665Q414 665 457 628T500 530Q500 498 490 473T463 426T421 389T370 359Q416 342 441 310T467 228Q467 182 448 139T391 62T299 8T174 -12Q50 -12 -16 56L31 147Q60
118 99 101T188 84Q265 84 304 122T344 226Q344 265 319 287T236 310H209L227 397H258Q285 397 306 406T343 432T366 470T374 515Q374 547 354 560T303 573Q284 573 263 569T221 558T182 541T149 520L142 612Z" />
<glyph unicode="4" glyph-name="four" horiz-adv-x="538" d="M477 190H408L368 0H253L293 190H9L28 280L388 660H508L427 280H496L477 190ZM312 280L364 522L141 280H312Z" />
<glyph unicode="5" glyph-name="five" horiz-adv-x="534" d="M81 302L197 665H536L513 560H267L219 402Q241 408 264 410T307 413Q386 413 432 371T479 253Q479 202 460 154T403 70T309 11T181 -12Q120 -12 72 5T-8 55L41 150Q53 136 70 125T107 105T151 91T197
86Q227 86 255 94T305 120T340 165T354 232Q354 267 331 289T250 312Q219 312 181 306T106 287L81 302Z" />
<glyph unicode="6" glyph-name="six" horiz-adv-x="545" d="M183 331Q207 367 246 384T334 401Q379 401 409 386T456 347T481 295T488 239Q488 199 473 155T425 73T342 12T224 -12Q177 -12 145 3T91 45T61 111T51 196Q51 234 57 283T79 385T120 487T183 576T272
640T390 664Q408 664 429 662T472 653T512 637T543 612L499 524Q471 549 437 559T374 569Q332 569 300 551T245 502T208 435T185 361Q183 353 182 347T180 332L183 331ZM370 232Q370 264 354 287T298 310Q267 310 243 298T203 266T177 220T168 165Q168 126 187
103T244 79Q272 79 295 90T335 122T361 171T370 232Z" />
<glyph unicode="7" glyph-name="seven" horiz-adv-x="459" d="M18 0Q20 9 21 19T25 39Q33 78 53 123T103 215T167 309T239 402T315 487T388 560H97L119 665H524L502 560Q467 529 429 488T355 401T286 305T225 209T179 118T153 40L145 0H18Z" />
<glyph unicode="8" glyph-name="eight" horiz-adv-x="546" d="M392 362Q437 351 459 316T481 229Q481 182 465 139T414 62T330 8T211 -12Q161 -12 126 1T70 35T38 85T28 146Q28 225 72 282T192 361L193 365Q166 376 148 404T130 474Q130 515 146 550T191 610T262
650T356 665Q432 665 473 630T515 537Q515 506 505 479T478 430T439 392T393 366L392 362ZM364 215Q364 234 360 251T345 282T318 304T280 313Q246 313 221 298T178 260T152 211T143 160Q143 118 166 97T230 75Q287 75 325 112T364 215ZM398 513Q398 542 383 559T336
576Q291 576 265 548T239 471Q239 440 255 422T300 403Q321 403 339 411T370 434T390 469T398 513Z" />
<glyph unicode="9" glyph-name="nine" horiz-adv-x="545" d="M384 321Q360 285 321 268T233 251Q188 251 158 266T111 305T86 357T79 413Q79 453 94 497T142 579T225 640T343 664Q389 664 422 649T476 607T506 541T516 456Q516 418 510 369T488 267T447 165T383
76T294 12T177 -12Q159 -12 138 -10T95 -1T55 15T24 40L68 128Q96 103 130 93T193 83Q240 83 273 105T329 162T365 239T387 320L384 321ZM322 573Q292 573 269 558T230 520T206 469T197 412Q197 382 212 362T268 342Q299 342 323 354T364 386T390 432T399 487Q399
526 380 549T322 573Z" />
<glyph unicode=":" glyph-name="colon" horiz-adv-x="275" d="M18 47Q18 63 25 78T45 105T73 124T106 132Q131 132 148 113T165 69Q165 53 157 39T136 13T107 -5T75 -12Q49 -12 34 5T18 47ZM87 370Q87 386 94 401T114 428T142 447T175 455Q200 455 217 436T234
392Q234 376 226 362T204 336T175 318T144 311Q118 311 103 328T87 370Z" />
<glyph unicode=";" glyph-name="semicolon" horiz-adv-x="280" d="M91 370Q91 386 98 401T118 428T146 447T179 455Q204 455 221 436T238 392Q238 376 230 362T208 336T179 318T148 311Q122 311 107 328T91 370ZM-23 -118L46 -5H21L50 132H169L137 -20L8 -143L-23 -118Z" />
<glyph unicode="&lt;" glyph-name="less" horiz-adv-x="395" d="M137 238L307 105L269 11L25 208L39 273L363 467V374L138 243L137 238Z" />
<glyph unicode="=" glyph-name="equal" horiz-adv-x="477" d="M392 204L375 122H37L54 204H392ZM425 356L407 274H69L87 356H425Z" />
<glyph unicode="&gt;" glyph-name="greater" horiz-adv-x="396" d="M244 243L75 374L113 467L357 273L343 208L17 11V105L243 238L244 243Z" />
<glyph unicode="?" glyph-name="question" horiz-adv-x="412" d="M113 634Q145 655 190 670T280 686Q344 686 381 650T419 556Q419 521 407 493T376 439T333 387T287 331T245 265T215 181H111Q121 230 140 268T180 336T224 391T265 439T294 484T306 532Q306 563
287 575T241 588Q209 588 175 574T118 538L113 634ZM67 47Q67 63 74 77T94 103T122 121T154 128Q180 128 197 111T214 69Q214 53 206 39T184 13T155 -5T123 -12Q98 -12 83 5T67 47Z" />
<glyph unicode="@" glyph-name="at" horiz-adv-x="722" d="M421 320Q413 324 403 324Q380 324 360 308T324 268T299 220T289 175Q289 150 305 150Q314 150 326 157T350 178T374 209T394 248L421 320ZM509 -23Q497 -32 473 -45T415 -71T343 -92T263 -101Q212 -101
168 -85T92 -39T42 33T24 128Q24 167 37 213T75 307T138 397T224 474T332 528T460 548Q521 548 564 531T634 484T674 419T687 345Q687 292 665 244T606 157T524 97T432 74Q403 74 386 87T368 127Q368 136 371 147Q347 113 314 93T254 73Q229 73 210 95T190 163Q190
213 213 254T270 326T346 372T424 389Q437 389 452 387T481 380T506 368T523 350L462 208Q456 194 452 180T448 161Q448 155 451 150T465 145Q485 145 506 162T544 207T573 267T584 333Q584 360 577 384T552 428T508 459T443 471Q372 471 314 439T215 356T150 247T127
132Q127 91 139 62T174 14T227 -14T294 -23Q333 -23 369 -15T436 6T489 33T526 57L509 -23Z" />
<glyph unicode="A" glyph-name="A" horiz-adv-x="631" d="M585 0H460L425 192H176L68 0H-52L344 660H443L585 0ZM227 282H409L365 525L227 282Z" />
<glyph unicode="B" glyph-name="B" horiz-adv-x="571" d="M221 -12Q166 -12 116 -9T30 0L170 660Q182 661 202 661T245 663T291 664T332 665Q424 665 472 630T520 528Q520 477 495 435T419 365Q465 348 490 314T516 228Q516 182 497 139T440 62T347 8T221 -12ZM285
311Q266 311 247 311T210 309L163 86Q180 84 199 84T239 84Q311 84 353 121T396 225Q396 264 370 287T285 311ZM331 571Q311 571 295 570T265 566L228 395Q240 394 253 394T279 394Q305 394 327 404T364 430T388 469T397 514Q397 539 380 555T331 571Z" />
<glyph unicode="C" glyph-name="C" horiz-adv-x="630" d="M607 518Q580 540 538 553T439 567Q367 567 317 541T236 472T191 374T177 260Q177 175 217 131T335 86Q395 86 448 104T539 148L548 49Q503 25 443 7T311 -12Q243 -12 195 8T115 64T68 147T53 248Q53 329
81 404T162 537T292 630T466 665Q520 665 571 654T658 622L607 518Z" />
<glyph unicode="D" glyph-name="D" horiz-adv-x="712" d="M170 660Q184 661 212 662T271 663T330 664T375 665Q471 665 530 645T622 590Q651 559 664 509T678 405Q678 306 649 229T562 99T417 17T213 -11Q171 -11 124 -8T30 0L170 660ZM261 84Q349 84 406 107T496
173T543 274T556 403Q556 484 510 526T353 569Q339 569 316 569T265 568L163 88Q191 86 217 85T261 84Z" />
<glyph unicode="E" glyph-name="E" horiz-adv-x="528" d="M409 300H208L166 100H453L432 0H30L170 660H552L531 560H263L229 400H430L409 300Z" />
<glyph unicode="F" glyph-name="F" horiz-adv-x="490" d="M398 300H208L145 0H30L170 660H547L526 560H263L229 400H419L398 300Z" />
<glyph unicode="G" glyph-name="G" horiz-adv-x="660" d="M556 55Q505 25 443 7T312 -12Q244 -12 195 8T115 64T68 147T53 248Q53 329 81 404T162 537T292 630T468 665Q524 665 576 654T668 622L614 518Q584 538 542 552T443 567Q360 567 308 539T227 465T187
365T176 257Q176 86 342 86Q379 86 402 92T452 106L487 272H602L556 55Z" />
<glyph unicode="H" glyph-name="H" horiz-adv-x="722" d="M576 0H461L522 290H206L145 0H30L170 660H285L227 390H543L601 660H716L576 0Z" />
<glyph unicode="I" glyph-name="I" horiz-adv-x="291" d="M145 0H30L170 660H285L145 0Z" />
<glyph unicode="J" glyph-name="J" horiz-adv-x="291" d="M167 101Q156 48 135 2T82 -80T10 -135T-81 -156L-85 -69Q-50 -69 -27 -53T12 -13T37 42T52 102L171 660H286L167 101Z" />
<glyph unicode="K" glyph-name="K" horiz-adv-x="605" d="M145 0H30L170 660H285L224 372Q257 398 288 424T348 477Q400 525 444 570T522 660H648Q592 600 541 550T431 446Q409 426 386 405T337 363L555 0H422L248 289Q235 278 223 269T198 250L145 0Z" />
<glyph unicode="L" glyph-name="L" horiz-adv-x="492" d="M166 100H441L420 0H30L170 660H285L166 100Z" />
<glyph unicode="M" glyph-name="M" horiz-adv-x="882" d="M419 156L745 660H876L736 0H622L714 435L432 0H340L237 435L145 0H30L170 660H301L419 156Z" />
<glyph unicode="N" glyph-name="N" horiz-adv-x="722" d="M498 175L601 660H716L576 0H435L248 484L145 0H30L170 660H311L498 175Z" />
<glyph unicode="O" glyph-name="O" horiz-adv-x="748" d="M173 251Q173 177 213 132T335 86Q401 86 451 114T534 186T583 286T600 398Q600 435 590 466T559 519T506 554T429 567Q360 567 312 539T233 465T188 363T173 251ZM458 665Q524 665 572 644T653 587T702
502T718 398Q718 323 690 250T609 119T479 24T307 -12Q241 -12 193 8T114 64T68 147T53 249Q53 331 82 406T164 538T292 630T458 665Z" />
<glyph unicode="P" glyph-name="P" horiz-adv-x="533" d="M263 248Q246 248 230 248T198 249L145 0H30L170 660Q185 661 205 662T246 663T289 664T330 665Q428 665 484 622T541 495Q541 447 523 403T470 324T383 269T263 248ZM326 569Q310 569 295 569T265 568L218
345Q232 344 247 344T280 344Q349 344 383 384T418 489Q418 524 397 546T326 569Z" />
<glyph unicode="Q" glyph-name="Q" horiz-adv-x="750" d="M459 665Q525 665 573 644T654 587T703 502T719 398Q719 325 692 254T615 125T492 30T327 -11Q362 -15 392 -27T453 -51T514 -74T584 -84Q629 -84 685 -64L638 -162Q618 -169 600 -171T565 -174Q523 -174
488 -161T418 -132T351 -103T280 -89Q258 -89 223 -97T152 -128L148 -56Q180 -34 215 -24T279 -11Q220 -7 178 15T108 73T67 153T54 249Q54 331 83 406T165 538T293 630T459 665ZM173 251Q173 177 213 132T335 86Q401 86 451 114T534 186T583 286T600 398Q600 435
590 466T559 519T506 554T429 567Q360 567 312 539T233 465T188 363T173 251Z" />
<glyph unicode="R" glyph-name="R" horiz-adv-x="600" d="M252 282Q241 282 230 282T205 283L145 0H30L170 660Q186 661 207 662T249 663T288 664T318 665Q430 665 487 626T545 511Q545 478 536 446T506 385T454 333T376 297L555 0H422L252 282ZM308 569Q300 569
289 569T265 568L225 378H287Q353 378 388 413T423 503Q423 536 397 552T308 569Z" />
<glyph unicode="S" glyph-name="S" horiz-adv-x="547" d="M222 488Q222 471 230 458T252 435T287 417T331 399Q360 388 388 374T439 339T476 289T490 220Q490 156 466 112T401 40T310 0T206 -12Q140 -12 86 4T-4 43L49 151Q81 122 123 103T226 84Q300 84 334 112T368
183Q368 207 357 225T328 255T292 276T257 290Q231 299 205 311T156 341T119 387T105 454Q105 511 125 551T179 617T260 653T359 665Q414 665 463 654T544 627L495 521Q464 544 420 557T335 570Q284 570 253 550T222 488Z" />
<glyph unicode="T" glyph-name="T" horiz-adv-x="535" d="M578 560H387L268 0H153L272 560H81L102 660H599L578 560Z" />
<glyph unicode="U" glyph-name="U" horiz-adv-x="705" d="M192 256Q188 240 187 226T185 198Q185 138 219 112T315 86Q390 86 440 125T511 256L597 660H707L616 232Q605 183 580 139T514 62T417 9T288 -11Q228 -11 186 3T116 41T77 98T65 169Q65 201 72 232L163
660H278L192 256Z" />
<glyph unicode="V" glyph-name="V" horiz-adv-x="637" d="M69 660H194L294 140L594 660H714L310 0H219L69 660Z" />
<glyph unicode="W" glyph-name="W" horiz-adv-x="1044" d="M734 0H639L566 502L280 0H185L79 660H204L265 148L543 660H656L717 148L994 660H1119L734 0Z" />
<glyph unicode="X" glyph-name="X" horiz-adv-x="637" d="M315 267L79 0H-47L269 340L108 660H237L349 402L569 660H695L397 339L568 0H439L315 267Z" />
<glyph unicode="Y" glyph-name="Y" horiz-adv-x="562" d="M67 660H196L301 361L527 660H654L336 271L279 0H164L220 267L67 660Z" />
<glyph unicode="Z" glyph-name="Z" horiz-adv-x="553" d="M453 0H-15L6 100L432 560H119L140 660H578L557 560L131 100H474L453 0Z" />
<glyph unicode="[" glyph-name="bracketleft" horiz-adv-x="282" d="M160 -95H0L179 749H339L324 677H269L120 -23H175L160 -95Z" />
<glyph unicode="\" glyph-name="backslash" horiz-adv-x="449" d="M120 702H233L350 -57H237L120 702Z" />
<glyph unicode="]" glyph-name="bracketright" horiz-adv-x="282" d="M145 749H305L126 -95H-34L-19 -23H36L185 677H130L145 749Z" />
<glyph unicode="^" glyph-name="asciicircum" horiz-adv-x="348" d="M322 673L410 574L412 567L390 538L382 535L297 576L194 535L188 538L178 567L182 574L314 673H322Z" />
<glyph unicode="_" glyph-name="underscore" horiz-adv-x="463" d="M398 0L381 -82H-52L-35 0H398Z" />
<glyph unicode="`" glyph-name="grave" horiz-adv-x="219" d="M314 533L141 602Q133 605 133 621Q133 630 136 641T146 661T159 677T175 683Q179 683 185 680L343 579L345 572L322 536L314 533Z" />
<glyph unicode="a" glyph-name="a" horiz-adv-x="576" d="M547 460L449 0H361L366 63H362Q327 32 287 10T193 -12Q154 -12 123 2T71 42T39 103T28 179Q28 233 46 286T98 381T181 449T294 475Q342 475 380 459T436 414H440L461 460H547ZM225 71Q241 71 260 75T298
88T336 107T368 134L409 326Q386 363 358 376T301 390Q262 390 232 373T181 327T149 263T138 190Q138 167 143 146T158 108T185 81T225 71Z" />
<glyph unicode="b" glyph-name="b" horiz-adv-x="575" d="M261 -12Q207 -12 177 10T124 63H120L99 0H11L168 740H277L208 414Q237 443 278 459T368 475Q411 475 441 460T492 420T521 361T531 291Q531 229 510 174T453 78T367 12T261 -12ZM265 71Q301 71 329 90T378
138T409 203T420 273Q420 321 397 355T324 390Q295 390 261 377T189 326L148 134Q156 119 169 108T198 88T231 76T265 71Z" />
<glyph unicode="c" glyph-name="c" horiz-adv-x="489" d="M441 346Q422 363 384 376T309 389Q265 389 235 371T185 325T158 263T149 198Q149 147 173 112T249 77Q285 77 328 91T405 132V38Q373 20 321 4T214 -12Q166 -12 131 3T73 44T39 106T28 180Q28 234 46
287T101 381T194 449T325 475Q373 475 416 464T484 435L441 346Z" />
<glyph unicode="d" glyph-name="d" horiz-adv-x="575" d="M193 -12Q154 -12 123 2T71 42T39 103T28 179Q28 233 46 286T98 381T181 449T294 475Q342 475 376 459T428 414L497 740H606L449 0H361L366 63H362Q327 32 287 10T193 -12ZM225 71Q241 71 260 75T298 88T336
107T368 134L409 326Q386 363 358 376T301 390Q262 390 232 373T181 327T149 263T138 190Q138 167 143 146T158 108T185 81T225 71Z" />
<glyph unicode="e" glyph-name="e" horiz-adv-x="505" d="M322 475Q397 475 436 441T475 343Q475 324 471 305T461 270T447 240T433 220H140Q139 214 139 208T139 196Q139 171 145 149T165 111T198 85T247 75Q284 75 328 89T407 124V42Q392 34 371 25T324 7T270
-6T211 -12Q164 -12 130 3T72 45T38 106T26 180Q26 236 47 289T107 383T200 450T322 475ZM300 389Q256 389 220 365T163 298H358Q361 305 363 312T366 328Q366 355 348 372T300 389Z" />
<glyph unicode="f" glyph-name="f" horiz-adv-x="310" d="M116 393H59L71 450L130 459Q142 516 154 556T178 623T201 668T222 696Q247 722 282 733T356 745Q361 745 372 745T396 742T422 736T447 724L404 639Q396 645 375 655T332 666Q319 666 309 660T289 638T272
595T254 526L240 460H328L314 393H226L87 -261H-23L116 393Z" />
<glyph unicode="g" glyph-name="g" horiz-adv-x="573" d="M542 461L441 -19Q428 -82 408 -126T356 -198T283 -239T186 -252Q160 -252 137 -249T92 -240T45 -224T-6 -200L11 -116Q54 -142 104 -157T201 -172Q233 -172 256 -163T297 -133T326 -77T350 12L360 63Q327
32 286 10T192 -12Q152 -12 121 2T69 42T37 103T26 179Q26 233 44 286T96 381T179 449T291 475Q339 475 378 459T434 414H438L459 460L542 461ZM224 71Q239 71 257 75T295 87T333 107T366 134L407 326Q384 363 356 376T298 390Q260 390 230 373T179 327T147 264T136
191Q136 167 141 146T156 108T183 81T224 71Z" />
<glyph unicode="h" glyph-name="h" horiz-adv-x="551" d="M204 392Q242 436 283 455T376 475Q402 475 425 469T465 450T492 416T502 363Q502 340 496 313L429 0H319L384 304Q387 319 387 331Q387 358 373 372T334 386Q315 386 294 380T252 362T213 333T184 295L121
0H11L168 740H278L204 392Z" />
<glyph unicode="i" glyph-name="i" horiz-adv-x="247" d="M120 0H10L108 460H218L120 0ZM122 596Q122 612 129 627T149 654T177 673T210 681Q235 681 252 662T269 618Q269 602 261 588T239 562T210 544T179 537Q153 537 138 554T122 596Z" />
<glyph unicode="j" glyph-name="j" horiz-adv-x="246" d="M119 -3Q108 -54 87 -100T37 -181T-30 -237T-110 -258Q-118 -258 -124 -258T-133 -255L-137 -188Q-131 -191 -117 -191Q-87 -191 -66 -173T-30 -126T-6 -64T10 -2L108 460H217L119 -3ZM122 596Q122 612
129 627T149 654T177 673T210 681Q235 681 251 662T268 618Q268 602 260 588T239 562T210 544T178 537Q153 537 138 554T122 596Z" />
<glyph unicode="k" glyph-name="k" horiz-adv-x="491" d="M296 297L429 0H309L208 226L161 187L121 0H11L168 740H278L187 312L372 460H495L296 297Z" />
<glyph unicode="l" glyph-name="l" horiz-adv-x="259" d="M127 0H17L174 740H284L127 0Z" />
<glyph unicode="m" glyph-name="m" horiz-adv-x="838" d="M308 0L373 304Q376 320 376 333Q376 386 325 386Q309 386 289 380T249 363T212 334T183 295L120 0H10L108 460H194L184 392H188Q217 434 265 454T362 475Q409 475 443 457T488 394Q517 435 564 455T660
475Q687 475 710 469T751 450T779 416T789 363Q789 340 783 313L716 0H606L671 304Q674 320 674 333Q674 386 623 386Q607 386 587 380T547 363T510 334T482 295V299L418 0H308Z" />
<glyph unicode="n" glyph-name="n" horiz-adv-x="550" d="M318 0L383 304Q386 319 386 331Q386 386 330 386Q313 386 293 380T252 363T213 334T183 295L120 0H10L108 460H194L184 392H188Q218 434 267 454T367 475Q395 475 419 469T462 450T490 415T501 362Q501
340 495 313L428 0H318Z" />
<glyph unicode="o" glyph-name="o" horiz-adv-x="552" d="M318 475Q368 475 403 460T462 418T495 357T506 283Q506 227 488 174T433 80T343 13T217 -12Q167 -12 131 3T72 44T38 104T27 178Q27 233 46 286T101 382T192 449T318 475ZM234 71Q271 71 299 89T347 135T376
199T386 271Q386 295 381 316T365 354T338 379T297 389Q260 389 232 371T185 325T157 260T147 188Q147 165 152 144T167 106T194 81T234 71Z" />
<glyph unicode="p" glyph-name="p" horiz-adv-x="576" d="M367 475Q410 475 441 460T492 420T521 361T530 290Q530 233 513 179T462 83T378 14T262 -12Q217 -12 181 1T128 43L64 -260H-45L108 460H196L191 397H195Q211 413 232 427T276 452T323 469T367 475ZM331
391Q316 391 298 387T260 374T222 353T189 326L147 131Q170 94 199 85T254 75Q295 75 325 91T376 135T407 198T418 271Q418 294 414 316T399 354T372 381T331 391Z" />
<glyph unicode="q" glyph-name="q" horiz-adv-x="576" d="M294 475Q315 475 335 469T375 453T409 428T434 397H438L459 460H547L394 -260H285L349 43Q320 14 279 1T193 -12Q149 -12 118 2T67 41T37 99T27 170Q27 224 44 278T94 376T178 447T294 475ZM294 391Q257
391 228 372T179 322T149 256T138 187Q138 163 143 143T161 107T192 82T237 73Q263 73 297 85T368 131L410 326Q402 341 389 353T359 373T326 386T294 391Z" />
<glyph unicode="r" glyph-name="r" horiz-adv-x="374" d="M350 360Q342 368 322 373T286 378Q266 378 251 369T223 344T199 308T177 267L120 0H10L108 460H194L178 364H182Q197 385 212 405T245 440T282 465T328 475Q368 475 397 449L350 360Z" />
<glyph unicode="s" glyph-name="s" horiz-adv-x="434" d="M235 393Q197 393 176 378T154 337Q154 325 163 315T201 297L268 281Q299 273 319 260T352 231T368 198T373 164Q373 127 357 95T311 39T242 2T153 -12Q100 -12 59 3T-6 38L40 133Q67 100 106 84T181 68Q226
68 250 88T274 140Q274 153 265 162T232 178L142 202Q117 209 101 220T74 246T60 277T56 308Q56 347 71 378T114 430T178 463T258 475Q277 475 298 473T340 465T378 452T409 434L361 344Q345 360 312 376T235 393Z" />
<glyph unicode="t" glyph-name="t" horiz-adv-x="329" d="M115 393H58L70 453L137 463L184 599H268L239 460H327L313 393H224L168 129Q164 113 164 100Q164 87 169 83T187 78Q200 78 214 83T257 102V23Q234 7 198 -2T127 -12Q82 -12 65 5T47 54Q47 65 49 78T54
106L115 393Z" />
<glyph unicode="u" glyph-name="u" horiz-adv-x="537" d="M214 460L150 161Q147 147 147 137Q147 108 163 93T209 77Q244 77 278 100T335 168L397 460H508L410 0H324L332 64H328Q312 41 292 27T250 4T205 -8T161 -12Q133 -12 110 -7T69 11T41 45T31 96Q31 118
37 147L104 460H214Z" />
<glyph unicode="v" glyph-name="v" horiz-adv-x="522" d="M264 0H131L45 460H160L221 91L444 460H552L264 0Z" />
<glyph unicode="w" glyph-name="w" horiz-adv-x="821" d="M418 320L251 0H118L49 460H164L209 107L393 460H503L536 107L732 460H845L580 0H449L418 320Z" />
<glyph unicode="x" glyph-name="x" horiz-adv-x="506" d="M188 460L263 305L399 460H524L308 237L436 0H311L230 168L80 0H-45L182 235L63 460H188Z" />
<glyph unicode="y" glyph-name="y" horiz-adv-x="518" d="M239 133L436 460H543L254 -4Q233 -39 199 -82T124 -164T34 -229T-63 -256Q-71 -256 -75 -256T-84 -253V-167Q-81 -168 -78 -169T-61 -170Q5 -170 59 -122T168 15L33 460H148L239 133Z" />
<glyph unicode="z" glyph-name="z" horiz-adv-x="417" d="M273 371H73L92 460H406L387 371L111 89H337L318 0H-16L3 89L273 371Z" />
<glyph unicode="{" glyph-name="braceleft" horiz-adv-x="290" d="M338 709Q313 706 303 685T288 641Q285 629 282 609T274 568T266 528T260 498Q245 426 214 383T129 327Q164 318 180 289T196 214Q196 188 189 154T173 87T157 26T150 -15Q150 -29 155 -41T175
-55L162 -106Q127 -106 104 -99T67 -80T47 -50T41 -10Q41 13 48 46T65 114T81 180T89 230Q89 242 87 254T78 277T62 294T35 302L46 352Q73 353 90 366T117 396T133 431T141 463Q145 484 150 507T159 551T166 589T172 617Q179 649 189 675T219 720T269 749T346 760L338
709Z" />
<glyph unicode="|" glyph-name="bar" horiz-adv-x="256" d="M97 -114H-5L182 768H284L97 -114Z" />
<glyph unicode="}" glyph-name="braceright" horiz-adv-x="290" d="M-24 -55Q1 -52 10 -31T25 13Q28 25 32 45T40 86T48 126T54 156Q69 228 99 271T184 327Q149 336 134 365T118 440Q118 466 125 500T140 567T156 627T163 669Q163 683 158 695T138 709L151 760Q186
760 209 753T246 734T266 704T272 664Q272 641 265 608T248 540T232 474T224 424Q224 412 226 400T235 377T251 360T278 352L268 302Q241 300 224 288T196 258T180 223T172 191Q167 170 163 147T154 103T147 65T141 37Q134 5 124 -21T94 -67T44 -96T-33 -106L-24
-55Z" />
<glyph unicode="~" glyph-name="asciitilde" horiz-adv-x="474" d="M414 288Q413 283 406 269T384 238T349 209T304 196Q296 196 272 197T218 200T162 203T120 205Q97 205 84 200T58 183L49 202Q50 210 59 225T83 256T118 282T164 294Q173 294 193 293T239 290T289
287T335 285Q354 285 372 288T407 308L414 288Z" />
<glyph unicode="&#xa0;" glyph-name="uni00A0" horiz-adv-x="245" />
<glyph unicode="&#xa1;" glyph-name="exclamdown" horiz-adv-x="256" d="M174 284L91 -218H-46L87 284H174ZM230 417Q230 401 223 387T203 361T175 343T143 336Q117 336 100 353T83 395Q83 411 91 425T113 451T142 469T174 476Q199 476 214 459T230 417Z" />
<glyph unicode="&#xa2;" glyph-name="cent" horiz-adv-x="498" d="M370 441Q404 436 432 427T478 405L432 312Q421 325 399 335T351 352L293 79Q323 86 352 99T405 131V38Q382 24 348 12T275 -6L247 -137H155L182 -10Q141 -6 112 10T64 50T35 105T26 171Q26 218
41 264T88 347T166 411T278 443L307 577H399L370 441ZM136 193Q136 155 152 126T201 82L259 354Q231 347 208 331T169 292T145 244T136 193Z" />
<glyph unicode="&#xa3;" glyph-name="sterling" horiz-adv-x="583" d="M187 76Q214 74 240 68T292 54T345 40T402 34Q449 34 499 53L454 -45Q426 -58 409 -61T374 -65Q334 -65 299 -55T231 -32T165 -10T98 1Q77 1 50 -5T-10 -35L-17 36Q65 65 110 118T169 235L172
250H79L97 332H186Q191 376 191 414T200 487Q210 535 235 569T292 624T362 655T434 665Q479 665 520 651T583 616L542 525Q534 535 521 544T491 559T455 570T418 574Q371 574 350 550T320 488Q313 457 311 417T303 332H425L407 250H287Q277 208 252 163T185 79L187
76Z" />
<glyph unicode="&#xa4;" glyph-name="currency" horiz-adv-x="591" d="M87 112Q77 129 73 151T68 194Q68 228 81 263T138 346L78 418L145 473L203 402Q238 422 268 431T330 441Q395 441 440 402L528 473L572 419L485 346Q504 305 504 262Q504 228 491 193T436
112L494 40L426 -15L367 56Q304 16 242 16Q211 16 185 25T131 56L43 -15L1 40L87 112ZM315 363Q284 363 255 351T202 317T164 267T150 205Q150 158 180 127T259 95Q290 95 319 107T372 141T408 192T422 253Q422 299 393 331T315 363Z" />
<glyph unicode="&#xa5;" glyph-name="yen" horiz-adv-x="650" d="M261 255L264 267L248 308H117L134 390H216L111 660H240L345 361L571 660H698L477 390H553L536 308H410L380 271L376 255H524L507 173H359L322 0H207L244 173H88L105 255H261Z" />
<glyph unicode="&#xa6;" glyph-name="brokenbar" horiz-adv-x="260" d="M181 274L99 -114H-3L79 274H181ZM102 380L184 768H286L204 380H102Z" />
<glyph unicode="&#xa7;" glyph-name="section" horiz-adv-x="434" d="M257 533Q257 497 278 471T325 420T372 366T394 297Q394 275 387 253T366 211T336 174T300 144Q303 130 303 114Q303 69 285 36T240 -20T181 -53T122 -64Q89 -64 57 -51T5 -18L54 59Q70 45
89 37T126 29Q142 29 155 36T178 56T192 84T197 116Q197 139 187 157T162 192T129 225T96 260T71 299T61 348Q61 369 68 391T88 433T118 471T155 501Q152 514 152 531Q152 576 170 609T215 665T273 698T333 709Q366 709 398 696T450 663L400 586Q384 600 365 608T329
616Q297 616 277 592T257 533ZM156 381Q156 354 169 333T200 290T240 248T277 201Q286 215 292 231T299 264Q299 290 286 312T254 354T215 396T178 443Q168 430 162 414T156 381Z" />
<glyph unicode="&#xa8;" glyph-name="dieresis" horiz-adv-x="220" d="M130 609Q130 622 136 634T152 655T175 671T201 677Q221 677 234 662T248 626Q248 613 242 602T225 581T202 567T176 561Q156 561 143 575T130 609ZM266 609Q266 622 272 634T288 655T311
671T337 677Q357 677 370 662T384 626Q384 613 378 602T361 581T337 567T312 561Q292 561 279 575T266 609Z" />
<glyph unicode="&#xa9;" glyph-name="copyright" horiz-adv-x="713" d="M437 654Q492 654 537 635T615 582T666 503T684 405Q684 333 652 269T568 157T447 80T305 52Q252 52 208 71T131 125T82 205T64 303Q64 373 95 437T179 549T299 625T437 654ZM488 427Q476
436 448 443T393 451Q364 451 344 440T310 412T290 373T283 333Q283 301 300 278T354 254Q382 254 413 265T466 290L463 219Q440 206 404 195T330 184Q296 184 272 194T231 223T208 266T200 318Q200 356 212 393T250 459T315 507T407 525Q440 525 471 518T519 497L488
427ZM428 600Q369 600 315 577T218 514T151 422T126 309Q126 266 139 229T177 165T237 122T314 106Q374 106 429 129T527 192T594 285T619 398Q619 440 606 477T567 541T507 584T428 600Z" />
<glyph unicode="&#xaa;" glyph-name="ordfeminine" horiz-adv-x="364" d="M259 369L263 406H259Q239 386 209 374T149 361Q117 361 100 378T83 424Q83 481 130 513T258 546H283L285 555Q286 559 286 562T287 569Q287 586 272 595T234 604Q208 604 188 595T147
574L145 629Q191 658 250 658Q297 658 328 639T360 574Q360 562 357 550L319 369H259ZM186 415Q206 415 227 424T262 449L274 504H263Q204 504 180 488T156 441Q156 415 186 415Z" />
<glyph unicode="&#xab;" glyph-name="guillemotleft" horiz-adv-x="528" d="M135 238L242 61H129L34 239L35 244L206 420H318L136 243L135 238ZM329 238L436 61H323L228 239L229 244L400 420H512L330 243L329 238Z" />
<glyph unicode="&#xac;" glyph-name="logicalnot" horiz-adv-x="621" d="M563 356L513 117H420L453 274H66L83 356H563Z" />
<glyph unicode="&#xad;" glyph-name="uni00AD" horiz-adv-x="467" d="M403 280L386 198H50L67 280H403Z" />
<glyph unicode="&#xae;" glyph-name="registered" horiz-adv-x="713" d="M437 654Q492 654 537 635T615 582T666 503T684 405Q684 333 652 269T568 157T447 80T305 52Q252 52 208 71T131 125T82 205T64 303Q64 373 95 437T179 549T299 625T437 654ZM428 600Q369
600 315 577T218 514T151 422T126 309Q126 266 139 229T177 165T237 122T314 106Q374 106 429 129T527 192T594 285T619 398Q619 440 606 477T567 541T507 584T428 600ZM300 201H233L303 529Q311 530 323 530T347 531T370 532T387 532Q421 532 443 526T479 509T498
483T504 450Q504 413 483 383T427 336L474 201H403L367 320H325L300 201ZM360 484L335 368H365Q397 368 417 391T438 441Q438 459 425 471T376 484H360Z" />
<glyph unicode="&#xaf;" glyph-name="overscore" horiz-adv-x="833" />
<glyph unicode="&#xb0;" glyph-name="degree" horiz-adv-x="369" d="M263 658Q322 658 349 628T377 552Q377 523 367 496T335 447T283 412T208 399Q178 399 157 407T122 429T102 461T96 500Q96 531 107 559T141 610T194 645T263 658ZM221 460Q242 460 257 467T283
486T297 513T302 543Q302 563 290 578T250 594Q229 594 214 587T188 569T173 544T168 516Q168 493 180 477T221 460Z" />
<glyph unicode="&#xb1;" glyph-name="plusminus" horiz-adv-x="462" d="M93 366H209L228 455H320L301 366H412L395 284H284L262 183H170L192 284H76L93 366ZM361 123L344 41H23L40 123H361Z" />
<glyph unicode="&#xb2;" glyph-name="twosuperior" horiz-adv-x="375" d="M142 606Q181 635 216 650T286 665Q329 665 351 643T374 587Q374 557 359 530T315 476T249 421T164 361H327L314 299H62L75 361Q107 390 146 415T219 465T276 515T299 571Q299 582 292
593T265 605Q239 605 207 588T146 542L142 606Z" />
<glyph unicode="&#xb3;" glyph-name="threesuperior" horiz-adv-x="339" d="M147 635Q173 649 195 657T245 665Q289 665 312 645T336 592Q336 559 318 538T271 501Q294 493 307 475T321 431Q321 406 311 382T280 338T228 306T154 294Q117 294 98 304T59 332L84
392Q101 375 117 365T163 354Q209 354 230 375T251 428Q251 448 235 459T177 471H165L176 525H191Q228 525 246 540T265 580Q265 591 258 598T230 605Q204 605 183 596T146 576L147 635Z" />
<glyph unicode="&#xb4;" glyph-name="acute" horiz-adv-x="219" d="M129 536L122 572L127 579L328 680Q334 683 339 683Q350 683 354 671T359 644Q359 630 354 618T338 602L136 533L129 536Z" />
<glyph unicode="&#xb5;" glyph-name="mu" horiz-adv-x="574" d="M258 460L194 161Q191 147 191 137Q191 108 207 93T253 77Q288 77 322 101T380 169L441 460H552L455 0H369L376 64H372Q356 41 336 27T294 4T250 -8T206 -12Q164 -12 134 0L130 -8Q120 -29 111 -47T91
-82T70 -118T44 -158L-50 -111Q-25 -77 -5 -47T32 15T61 78T81 147L148 460H258Z" />
<glyph unicode="&#xb6;" glyph-name="paragraph" horiz-adv-x="562" d="M246 248H225Q186 248 157 261T109 296T79 347T69 411Q69 471 90 518T151 597T243 647T360 665Q398 665 451 664T553 660L394 -86H309L448 569H404L265 -86H175L246 248Z" />
<glyph unicode="&#xb7;" glyph-name="middot" horiz-adv-x="264" d="M52 231Q52 247 59 262T79 289T108 308T140 316Q165 316 182 297T199 253Q199 237 191 223T170 197T141 179T110 172Q84 172 68 189T52 231Z" />
<glyph unicode="&#xb8;" glyph-name="cedilla" horiz-adv-x="202" d="M-41 -193L-3 -145H4Q15 -150 31 -153T65 -157Q85 -157 100 -150T116 -121Q116 -107 105 -102T80 -96Q68 -96 55 -98T30 -103L17 -77L84 0H138L105 -41Q120 -37 134 -37Q164 -37 181 -55T198
-103Q198 -126 186 -146T154 -183T107 -208T50 -218Q24 -218 1 -213T-41 -199V-193Z" />
<glyph unicode="&#xb9;" glyph-name="onesuperior" horiz-adv-x="249" d="M182 299H107L164 565L101 537L99 589L260 665L182 299Z" />
<glyph unicode="&#xba;" glyph-name="ordmasculine" horiz-adv-x="392" d="M277 668Q307 668 330 658T368 631T390 590T398 542Q398 508 386 476T349 417T291 375T212 359Q180 359 158 369T121 396T99 435T92 481Q92 517 106 551T144 611T203 652T277 668ZM228
430Q252 430 268 439T295 462T310 495T315 531Q315 557 302 575T259 594Q233 594 217 584T191 558T178 525T174 492Q174 466 187 448T228 430Z" />
<glyph unicode="&#xbb;" glyph-name="guillemotright" horiz-adv-x="528" d="M379 243L271 420H383L480 244L479 239L308 61H195L378 238L379 243ZM185 243L77 420H189L286 244L285 239L114 61H1L184 238L185 243Z" />
<glyph unicode="&#xbc;" glyph-name="onequarter" horiz-adv-x="773" d="M695 91H661L642 0H574L593 91H411L424 153L616 366H719L674 153H708L695 91ZM606 153L639 307L496 153H606ZM115 -24H25L640 691H730L115 -24ZM184 299H109L166 565L103 537L101 589L262
665L184 299Z" />
<glyph unicode="&#xbd;" glyph-name="onehalf" horiz-adv-x="778" d="M117 -24H27L642 691H732L117 -24ZM184 299H109L166 565L103 537L101 589L262 665L184 299ZM504 307Q543 336 578 351T648 366Q691 366 713 344T736 288Q736 258 721 231T677 177T611 122T526
62H689L676 0H424L437 62Q469 91 508 116T581 166T638 216T661 272Q661 283 654 294T627 306Q601 306 569 289T508 243L504 307Z" />
<glyph unicode="&#xbe;" glyph-name="threequarters" horiz-adv-x="773" d="M136 635Q162 649 184 657T234 665Q278 665 301 645T325 592Q325 559 307 538T260 501Q283 493 296 475T310 431Q310 406 300 382T269 338T217 306T143 294Q106 294 87 304T48 332L73
392Q90 375 106 365T152 354Q198 354 219 375T240 428Q240 448 224 459T166 471H154L165 525H180Q217 525 235 540T254 580Q254 591 247 598T219 605Q193 605 172 596T135 576L136 635ZM136 -24H46L661 691H751L136 -24ZM696 91H662L643 0H575L594 91H412L425 153L617
366H720L675 153H709L696 91ZM607 153L640 307L497 153H607Z" />
<glyph unicode="&#xbf;" glyph-name="questiondown" horiz-adv-x="406" d="M277 -170Q245 -191 200 -206T110 -222Q46 -222 9 -186T-29 -92Q-29 -57 -17 -29T14 25T57 77T103 133T145 199T175 283H279Q269 234 250 196T210 128T166 73T125 25T96 -20T84 -68Q84
-99 103 -111T149 -124Q181 -124 215 -110T272 -74L277 -170ZM323 417Q323 401 316 387T296 361T268 343T236 336Q210 336 193 353T176 395Q176 411 184 425T206 451T235 469T267 476Q292 476 307 459T323 417Z" />
<glyph unicode="&#xc0;" glyph-name="Agrave" horiz-adv-x="631" d="M586 1H461L427 193H178L69 1H-51L345 661H444L586 1ZM229 283H410L367 526L229 283ZM501 698L328 767Q320 770 320 786Q320 795 323 806T333 826T346 842T362 848Q366 848 371 845L530 744L531
737L509 701L501 698Z" />
<glyph unicode="&#xc1;" glyph-name="Aacute" horiz-adv-x="631" d="M585 0H460L426 192H177L68 0H-52L344 660H443L585 0ZM228 282H409L366 525L228 282ZM312 702L305 738L309 745L511 846Q517 849 521 849Q532 849 537 837T542 810Q542 796 537 784T521 768L319
699L312 702Z" />
<glyph unicode="&#xc2;" glyph-name="Acircumflex" horiz-adv-x="631" d="M585 0H460L426 192H177L68 0H-52L344 660H443L585 0ZM228 282H409L366 525L228 282ZM448 842L537 743L538 736L516 707L509 704L423 745L321 704L314 707L304 736L309 743L440 842H448Z" />
<glyph unicode="&#xc3;" glyph-name="Atilde" horiz-adv-x="631" d="M585 0H460L426 192H177L68 0H-52L344 660H443L585 0ZM228 282H409L366 525L228 282ZM593 818Q587 802 577 786T554 756T523 735T483 726Q471 726 456 728T424 733T388 738T353 740Q330 740
310 735T273 715L265 738Q274 756 284 772T308 801T339 821T382 829Q411 829 444 822T504 815Q522 815 542 820T586 841L593 818Z" />
<glyph unicode="&#xc4;" glyph-name="Adieresis" horiz-adv-x="631" d="M585 0H460L426 192H177L68 0H-52L344 660H443L585 0ZM228 282H409L366 525L228 282ZM303 774Q303 787 309 799T325 820T348 836T374 842Q394 842 408 827T422 791Q422 778 416 767T399 746T375
732T349 726Q329 726 316 740T303 774ZM439 774Q439 787 445 799T461 820T484 836T510 842Q530 842 544 827T558 791Q558 778 551 767T534 746T510 732T485 726Q465 726 452 740T439 774Z" />
<glyph unicode="&#xc5;" glyph-name="Aring" horiz-adv-x="637" d="M424 792Q462 792 482 770T503 717Q503 691 487 670T448 635L592 0H463L431 202H182L71 0H-53L335 635Q321 643 314 658T307 691Q307 710 316 728T341 761T378 783T424 792ZM233 292H414L369
525L233 292ZM398 664Q415 664 428 678T442 710Q442 724 435 733T413 742Q393 742 380 729T367 699Q367 685 375 675T398 664Z" />
<glyph unicode="&#xc6;" glyph-name="AE" horiz-adv-x="760" d="M663 0H332L372 190H195L54 0H-68L424 660H783L762 558H559L526 401H661L640 299H504L462 102H685L663 0ZM393 290L443 524L269 290H393Z" />
<glyph unicode="&#xc7;" glyph-name="Ccedilla" horiz-adv-x="631" d="M161 -193L200 -145H207Q217 -150 233 -153T267 -157Q287 -157 302 -150T318 -121Q318 -107 308 -102T282 -96Q270 -96 257 -98T233 -103L219 -77L277 -10Q219 -5 177 17T108 74T67 153T54
248Q54 329 82 404T163 537T293 630T467 665Q521 665 572 654T659 622L608 518Q581 540 539 553T440 567Q368 567 318 541T237 472T192 374T178 260Q178 175 218 131T336 86Q396 86 449 104T540 148L549 49Q507 26 452 9T330 -11L307 -41Q315 -39 323 -38T337 -37Q366
-37 383 -55T400 -103Q400 -126 388 -146T356 -183T309 -208T252 -218Q226 -218 203 -213T161 -199V-193Z" />
<glyph unicode="&#xc8;" glyph-name="Egrave" horiz-adv-x="528" d="M409 300H208L166 100H453L432 0H30L170 660H552L531 560H263L229 400H430L409 300ZM465 698L292 767Q284 770 284 786Q284 795 287 806T297 826T310 842T326 848Q330 848 336 845L494 744L496
737L473 701L465 698Z" />
<glyph unicode="&#xc9;" glyph-name="Eacute" horiz-adv-x="528" d="M409 300H208L166 100H453L432 0H30L170 660H552L531 560H263L229 400H430L409 300ZM292 701L285 737L289 744L491 845Q497 848 501 848Q512 848 517 836T522 809Q522 795 517 783T501 767L299
698L292 701Z" />
<glyph unicode="&#xca;" glyph-name="Ecircumflex" horiz-adv-x="528" d="M409 300H208L166 100H453L432 0H30L170 660H552L531 560H263L229 400H430L409 300ZM421 842L510 743L511 736L489 707L482 704L396 745L294 704L287 707L277 736L282 743L413 842H421Z" />
<glyph unicode="&#xcb;" glyph-name="Edieresis" horiz-adv-x="528" d="M409 300H208L166 100H453L432 0H30L170 660H552L531 560H263L229 400H430L409 300ZM268 775Q268 788 274 800T291 821T313 837T339 843Q359 843 373 828T387 792Q387 779 381 768T364 747T340
733T315 727Q294 727 281 741T268 775ZM404 775Q404 788 410 800T427 821T449 837T475 843Q495 843 509 828T523 792Q523 779 517 768T500 747T476 733T451 727Q430 727 417 741T404 775Z" />
<glyph unicode="&#xcc;" glyph-name="Igrave" horiz-adv-x="291" d="M145 0H30L170 660H285L145 0ZM313 698L140 767Q132 770 132 786Q132 795 135 806T145 826T158 842T174 848Q178 848 184 845L342 744L344 737L321 701L313 698Z" />
<glyph unicode="&#xcd;" glyph-name="Iacute" horiz-adv-x="291" d="M170 660H285L145 0H30L170 660ZM152 701L145 737L149 744L351 845Q357 848 361 848Q372 848 377 836T382 809Q382 795 377 783T361 767L159 698L152 701Z" />
<glyph unicode="&#xce;" glyph-name="Icircumflex" horiz-adv-x="291" d="M145 0H30L170 660H285L145 0ZM268 842L357 743L358 736L336 707L329 704L243 745L141 704L134 707L124 736L129 743L260 842H268Z" />
<glyph unicode="&#xcf;" glyph-name="Idieresis" horiz-adv-x="291" d="M145 0H30L170 660H285L145 0ZM128 774Q128 787 134 799T150 820T173 836T199 842Q219 842 233 827T247 791Q247 778 241 767T224 746T200 732T174 726Q154 726 141 740T128 774ZM264 774Q264
787 270 799T286 820T309 836T335 842Q355 842 369 827T383 791Q383 778 377 767T360 746T336 732T310 726Q290 726 277 740T264 774Z" />
<glyph unicode="&#xd0;" glyph-name="Eth" horiz-adv-x="717" d="M176 660Q190 661 218 662T277 663T336 664T381 665Q477 665 536 645T628 590Q657 559 670 509T683 405Q683 306 654 229T567 99T422 17T219 -11Q177 -11 129 -8T36 0L102 311H28L44 385H118L176
660ZM381 385L365 311H217L170 88Q197 86 223 85T267 84Q355 84 412 107T502 173T549 274T562 403Q562 484 516 526T359 569Q345 569 322 569T272 568L233 385H381Z" />
<glyph unicode="&#xd1;" glyph-name="Ntilde" horiz-adv-x="722" d="M498 175L601 660H716L576 0H435L248 484L145 0H30L170 660H311L498 175ZM616 818Q610 802 600 786T577 756T546 735T506 726Q494 726 479 728T447 733T411 738T376 740Q353 740 333 735T296
715L288 738Q297 756 307 772T331 801T362 821T405 829Q434 829 467 822T527 815Q545 815 565 820T609 841L616 818Z" />
<glyph unicode="&#xd2;" glyph-name="Ograve" horiz-adv-x="748" d="M458 665Q524 665 572 644T653 587T702 502T718 398Q718 323 690 250T609 119T479 24T307 -12Q241 -12 193 8T114 64T68 147T53 249Q53 331 82 406T164 538T292 630T458 665ZM524 698L351 767Q343
770 343 786Q343 795 347 806T357 826T370 842T386 848Q390 848 395 845L554 744L555 737L532 701L524 698ZM173 251Q173 177 213 132T335 86Q401 86 451 114T534 186T583 286T600 398Q600 435 590 466T559 519T506 554T429 567Q360 567 312 539T233 465T188 363T173
251Z" />
<glyph unicode="&#xd3;" glyph-name="Oacute" horiz-adv-x="748" d="M458 665Q524 665 572 644T653 587T702 502T718 398Q718 323 690 250T609 119T479 24T307 -12Q241 -12 193 8T114 64T68 147T53 249Q53 331 82 406T164 538T292 630T458 665ZM407 701L400 737L405
744L606 845Q612 848 617 848Q628 848 632 836T637 809Q637 795 632 783T617 767L415 698L407 701ZM173 251Q173 177 213 132T335 86Q401 86 451 114T534 186T583 286T600 398Q600 435 590 466T559 519T506 554T429 567Q360 567 312 539T233 465T188 363T173 251Z"
/>
<glyph unicode="&#xd4;" glyph-name="Ocircumflex" horiz-adv-x="748" d="M458 665Q524 665 572 644T653 587T702 502T718 398Q718 323 690 250T609 119T479 24T307 -12Q241 -12 193 8T114 64T68 147T53 249Q53 331 82 406T164 538T292 630T458 665ZM509 842L598
743L600 736L578 707L570 704L485 745L382 704L376 707L366 736L370 743L501 842H509ZM173 251Q173 177 213 132T335 86Q401 86 451 114T534 186T583 286T600 398Q600 435 590 466T559 519T506 554T429 567Q360 567 312 539T233 465T188 363T173 251Z" />
<glyph unicode="&#xd5;" glyph-name="Otilde" horiz-adv-x="748" d="M458 665Q524 665 572 644T653 587T702 502T718 398Q718 323 690 250T609 119T479 24T307 -12Q241 -12 193 8T114 64T68 147T53 249Q53 331 82 406T164 538T292 630T458 665ZM646 818Q640 802
630 786T607 756T576 735T537 726Q525 726 510 728T478 733T442 738T407 740Q384 740 364 735T326 715L318 738Q328 756 338 772T361 801T393 821T436 829Q465 829 498 822T558 815Q576 815 596 820T639 841L646 818ZM173 251Q173 177 213 132T335 86Q401 86 451
114T534 186T583 286T600 398Q600 435 590 466T559 519T506 554T429 567Q360 567 312 539T233 465T188 363T173 251Z" />
<glyph unicode="&#xd6;" glyph-name="Odieresis" horiz-adv-x="748" d="M458 665Q524 665 572 644T653 587T702 502T718 398Q718 323 690 250T609 119T479 24T307 -12Q241 -12 193 8T114 64T68 147T53 249Q53 331 82 406T164 538T292 630T458 665ZM357 774Q357
787 363 799T379 820T401 836T427 842Q447 842 461 827T475 791Q475 778 469 767T452 746T428 732T403 726Q383 726 370 740T357 774ZM493 774Q493 787 499 799T515 820T537 836T563 842Q583 842 597 827T611 791Q611 778 605 767T588 746T564 732T539 726Q519
726 506 740T493 774ZM173 251Q173 177 213 132T335 86Q401 86 451 114T534 186T583 286T600 398Q600 435 590 466T559 519T506 554T429 567Q360 567 312 539T233 465T188 363T173 251Z" />
<glyph unicode="&#xd7;" glyph-name="multiply" horiz-adv-x="454" d="M208 187L71 74L30 126L167 239L78 351L141 403L230 291L368 405L409 353L271 239L361 124L299 73L208 187Z" />
<glyph unicode="&#xd8;" glyph-name="Oslash" horiz-adv-x="749" d="M459 665Q509 665 548 653T619 618L705 699L773 637L681 550Q719 483 719 398Q719 323 691 250T610 119T480 24T308 -12Q254 -12 213 1T140 40L47 -48L-15 20L83 112Q68 142 61 176T54 249Q54
331 83 406T165 538T293 630T459 665ZM600 398Q600 436 590 465L225 120Q267 86 335 86Q401 86 451 114T534 186T583 286T600 398ZM173 251Q173 237 174 225T178 202L535 539Q495 567 429 567Q360 567 312 539T233 465T188 363T173 251Z" />
<glyph unicode="&#xd9;" glyph-name="Ugrave" horiz-adv-x="705" d="M192 256Q188 240 187 226T185 198Q185 138 219 112T315 86Q390 86 440 125T511 256L597 660H707L616 232Q605 183 580 139T514 62T417 9T288 -11Q228 -11 186 3T116 41T77 98T65 169Q65 201
72 232L163 660H278L192 256ZM518 698L346 767Q337 770 337 786Q337 795 341 806T351 826T364 842T380 848Q384 848 389 845L548 744L549 737L527 701L518 698Z" />
<glyph unicode="&#xda;" glyph-name="Uacute" horiz-adv-x="705" d="M192 256Q188 240 187 226T185 198Q185 138 219 112T315 86Q390 86 440 125T511 256L597 660H707L616 232Q605 183 580 139T514 62T417 9T288 -11Q228 -11 186 3T116 41T77 98T65 169Q65 201
72 232L163 660H278L192 256ZM363 701L355 737L360 744L561 845Q567 848 572 848Q583 848 587 836T592 809Q592 795 587 783T572 767L370 698L363 701Z" />
<glyph unicode="&#xdb;" glyph-name="Ucircumflex" horiz-adv-x="705" d="M192 256Q188 240 187 226T185 198Q185 138 219 112T315 86Q390 86 440 125T511 256L597 660H707L616 232Q605 183 580 139T514 62T417 9T288 -11Q228 -11 186 3T116 41T77 98T65 169Q65
201 72 232L163 660H278L192 256ZM474 842L562 743L564 736L542 707L534 704L449 745L346 704L340 707L330 736L334 743L466 842H474Z" />
<glyph unicode="&#xdc;" glyph-name="Udieresis" horiz-adv-x="705" d="M192 256Q188 240 187 226T185 198Q185 138 219 112T315 86Q390 86 440 125T511 256L597 660H707L616 232Q605 183 580 139T514 62T417 9T288 -11Q228 -11 186 3T116 41T77 98T65 169Q65
201 72 232L163 660H278L192 256ZM346 774Q346 787 352 799T368 820T391 836T417 842Q437 842 450 827T464 791Q464 778 458 767T441 746T417 732T392 726Q372 726 359 740T346 774ZM482 774Q482 787 488 799T504 820T527 836T553 842Q573 842 586 827T600 791Q600
778 594 767T577 746T553 732T528 726Q508 726 495 740T482 774Z" />
<glyph unicode="&#xdd;" glyph-name="Yacute" horiz-adv-x="562" d="M67 660H196L301 361L527 660H654L336 271L279 0H164L220 267L67 660ZM314 701L306 737L311 744L512 845Q518 848 523 848Q534 848 539 836T544 809Q544 795 539 783T523 767L321 698L314 701Z" />
<glyph unicode="&#xde;" glyph-name="Thorn" horiz-adv-x="533" d="M262 550H306Q404 550 460 507T517 380Q517 332 499 288T446 209T359 154T238 133Q221 133 205 133T173 134L145 0H30L170 660H285L262 550ZM302 454Q286 454 271 454T241 453L194 230Q208 229
223 229T256 229Q325 229 359 269T393 374Q393 409 373 431T302 454Z" />
<glyph unicode="&#xdf;" glyph-name="germandbls" horiz-adv-x="553" d="M111 0H11L114 486Q126 542 148 588T203 667T276 718T367 736Q400 736 425 727T467 702T494 665T503 621Q503 594 492 571T464 527T428 487T392 451T364 416T353 382Q353 365 364 351T391
323T427 295T463 262T491 221T502 166Q502 114 481 78T429 18T364 -16T302 -27Q266 -27 239 -14T195 17L246 122Q257 93 277 74T327 55Q352 55 373 79T395 150Q395 177 385 196T359 231T325 260T291 287T265 320T254 363Q254 406 276 437T325 495T374 548T396 608Q396
628 384 641T346 655Q314 655 293 641T256 604T231 550T214 486L111 0Z" />
<glyph unicode="&#xe0;" glyph-name="agrave" horiz-adv-x="576" d="M418 531L246 600Q237 603 237 619Q237 628 241 639T251 659T264 675T280 681Q284 681 289 678L448 577L449 570L427 534L418 531ZM547 460L449 0H361L366 63H362Q327 32 287 10T193 -12Q154
-12 123 2T71 42T39 103T28 179Q28 233 46 286T98 381T181 449T294 475Q342 475 380 459T436 414H440L461 460H547ZM225 71Q241 71 260 75T298 88T336 107T368 134L409 326Q386 363 358 376T301 390Q262 390 232 373T181 327T149 263T138 190Q138 167 143 146T158
108T185 81T225 71Z" />
<glyph unicode="&#xe1;" glyph-name="aacute" horiz-adv-x="576" d="M308 535L300 571L305 578L506 679Q512 682 517 682Q528 682 533 670T538 643Q538 629 533 617T517 601L315 532L308 535ZM547 460L449 0H361L366 63H362Q327 32 287 10T193 -12Q154 -12 123
2T71 42T39 103T28 179Q28 233 46 286T98 381T181 449T294 475Q342 475 380 459T436 414H440L461 460H547ZM225 71Q241 71 260 75T298 88T336 107T368 134L409 326Q386 363 358 376T301 390Q262 390 232 373T181 327T149 263T138 190Q138 167 143 146T158 108T185
81T225 71Z" />
<glyph unicode="&#xe2;" glyph-name="acircumflex" horiz-adv-x="576" d="M389 673L478 574L480 567L457 538L450 535L365 576L262 535L255 538L246 567L250 574L381 673H389ZM547 460L449 0H361L366 63H362Q327 32 287 10T193 -12Q154 -12 123 2T71 42T39 103T28
179Q28 233 46 286T98 381T181 449T294 475Q342 475 380 459T436 414H440L461 460H547ZM225 71Q241 71 260 75T298 88T336 107T368 134L409 326Q386 363 358 376T301 390Q262 390 232 373T181 327T149 263T138 190Q138 167 143 146T158 108T185 81T225 71Z" />
<glyph unicode="&#xe3;" glyph-name="atilde" horiz-adv-x="576" d="M545 658Q539 642 529 626T506 596T475 575T435 566Q423 566 408 568T376 573T340 578T305 580Q282 580 262 575T225 555L217 578Q226 596 236 612T260 641T291 661T334 669Q363 669 396 662T456
655Q474 655 494 660T538 681L545 658ZM547 460L449 0H361L366 63H362Q327 32 287 10T193 -12Q154 -12 123 2T71 42T39 103T28 179Q28 233 46 286T98 381T181 449T294 475Q342 475 380 459T436 414H440L461 460H547ZM225 71Q241 71 260 75T298 88T336 107T368 134L409
326Q386 363 358 376T301 390Q262 390 232 373T181 327T149 263T138 190Q138 167 143 146T158 108T185 81T225 71Z" />
<glyph unicode="&#xe4;" glyph-name="adieresis" horiz-adv-x="576" d="M255 603Q255 616 261 628T277 649T300 665T326 671Q346 671 359 656T373 620Q373 607 367 596T350 575T326 561T301 555Q281 555 268 569T255 603ZM391 603Q391 616 397 628T413 649T436
665T462 671Q482 671 495 656T509 620Q509 607 503 596T486 575T462 561T437 555Q417 555 404 569T391 603ZM547 460L449 0H361L366 63H362Q327 32 287 10T193 -12Q154 -12 123 2T71 42T39 103T28 179Q28 233 46 286T98 381T181 449T294 475Q342 475 380 459T436
414H440L461 460H547ZM225 71Q241 71 260 75T298 88T336 107T368 134L409 326Q386 363 358 376T301 390Q262 390 232 373T181 327T149 263T138 190Q138 167 143 146T158 108T185 81T225 71Z" />
<glyph unicode="&#xe5;" glyph-name="aring" horiz-adv-x="576" d="M403 693Q441 693 460 671T480 621Q480 604 472 588T450 558T415 536T369 528Q328 528 310 549T292 597Q292 615 300 632T323 662T358 684T403 693ZM379 572Q396 572 408 586T421 615Q421 628
414 638T393 649Q374 649 362 634T350 604Q350 592 357 582T379 572ZM547 460L449 0H361L366 63H362Q327 32 287 10T193 -12Q154 -12 123 2T71 42T39 103T28 179Q28 233 46 286T98 381T181 449T294 475Q342 475 380 459T436 414H440L461 460H547ZM225 71Q241 71
260 75T298 88T336 107T368 134L409 326Q386 363 358 376T301 390Q262 390 232 373T181 327T149 263T138 190Q138 167 143 146T158 108T185 81T225 71Z" />
<glyph unicode="&#xe6;" glyph-name="ae" horiz-adv-x="802" d="M619 475Q694 475 733 441T772 343Q772 324 768 305T758 270T745 240T730 220H439Q436 203 436 187Q436 139 461 107T544 75Q581 75 625 89T704 124V42Q689 34 668 25T621 7T567 -6T508 -12Q446
-12 406 11T345 74Q292 26 233 7T113 -12Q55 -12 27 18T-1 93Q-1 137 14 169T53 223T109 260T173 282T236 293T291 296H333L335 305Q338 318 338 330Q338 386 256 386Q212 386 177 377T107 353L104 436Q183 475 281 475Q303 475 326 472T370 462T408 442T436 410Q473
440 519 457T619 475ZM171 77Q185 77 202 80T236 91T269 109T299 134L318 227H311Q278 227 245 224T183 209T138 177T120 119Q120 99 133 88T171 77ZM598 389Q553 389 519 364T464 298H632Q653 298 656 299Q658 304 660 310T662 330Q662 359 644 374T598 389Z"
/>
<glyph unicode="&#xe7;" glyph-name="ccedilla" horiz-adv-x="489" d="M441 346Q422 363 384 376T309 389Q265 389 235 371T185 325T158 263T149 198Q149 147 173 112T249 77Q285 77 328 91T405 132V38Q376 21 331 7T235 -11L211 -41Q219 -39 227 -38T241 -37Q270
-37 287 -55T304 -103Q304 -126 292 -146T260 -183T213 -208T156 -218Q130 -218 107 -213T65 -199L66 -193L104 -145H111Q121 -150 137 -153T171 -157Q191 -157 206 -150T222 -121Q222 -107 212 -102T186 -96Q174 -96 161 -98T137 -103L123 -77L182 -10Q142 -5
113 11T65 53T37 111T28 180Q28 234 46 287T101 381T194 449T325 475Q373 475 416 464T484 435L441 346Z" />
<glyph unicode="&#xe8;" glyph-name="egrave" horiz-adv-x="505" d="M322 475Q397 475 436 441T475 343Q475 324 471 305T461 270T447 240T433 220H140Q139 214 139 208T139 196Q139 171 145 149T165 111T198 85T247 75Q284 75 328 89T407 124V42Q392 34 371 25T324
7T270 -6T211 -12Q164 -12 130 3T72 45T38 106T26 180Q26 236 47 289T107 383T200 450T322 475ZM386 531L213 600Q205 603 205 619Q205 628 208 639T218 659T232 675T248 681Q251 681 257 678L415 577L417 570L394 534L386 531ZM300 389Q253 389 218 363T163 298H358Q360
303 362 309T365 330Q365 359 346 374T300 389Z" />
<glyph unicode="&#xe9;" glyph-name="eacute" horiz-adv-x="505" d="M322 475Q397 475 436 441T475 343Q475 324 471 305T461 270T447 240T433 220H140Q139 214 139 208T139 196Q139 171 145 149T165 111T198 85T247 75Q284 75 328 89T407 124V42Q392 34 371 25T324
7T270 -6T211 -12Q164 -12 130 3T72 45T38 106T26 180Q26 236 47 289T107 383T200 450T322 475ZM300 389Q253 389 218 363T163 298H358Q360 303 362 309T365 330Q365 359 346 374T300 389ZM257 535L249 571L254 578L455 679Q461 682 466 682Q477 682 482 670T487
643Q487 629 482 617T466 601L264 532L257 535Z" />
<glyph unicode="&#xea;" glyph-name="ecircumflex" horiz-adv-x="505" d="M322 475Q397 475 436 441T475 343Q475 324 471 305T461 270T447 240T433 220H140Q139 214 139 208T139 196Q139 171 145 149T165 111T198 85T247 75Q284 75 328 89T407 124V42Q392 34
371 25T324 7T270 -6T211 -12Q164 -12 130 3T72 45T38 106T26 180Q26 236 47 289T107 383T200 450T322 475ZM355 673L444 574L445 567L423 538L415 535L330 576L227 535L221 538L211 567L216 574L347 673H355ZM300 389Q253 389 218 363T163 298H358Q360 303 362
309T365 330Q365 359 346 374T300 389Z" />
<glyph unicode="&#xeb;" glyph-name="edieresis" horiz-adv-x="505" d="M322 475Q397 475 436 441T475 343Q475 324 471 305T461 270T447 240T433 220H140Q139 214 139 208T139 196Q139 171 145 149T165 111T198 85T247 75Q284 75 328 89T407 124V42Q392 34 371
25T324 7T270 -6T211 -12Q164 -12 130 3T72 45T38 106T26 180Q26 236 47 289T107 383T200 450T322 475ZM300 389Q253 389 218 363T163 298H358Q360 303 362 309T365 330Q365 359 346 374T300 389ZM210 603Q210 616 216 628T232 649T254 665T280 671Q300 671 314
656T328 620Q328 607 322 596T305 575T281 561T256 555Q236 555 223 569T210 603ZM346 603Q346 616 352 628T368 649T390 665T416 671Q436 671 450 656T464 620Q464 607 458 596T441 575T417 561T392 555Q372 555 359 569T346 603Z" />
<glyph unicode="&#xec;" glyph-name="igrave" horiz-adv-x="247" d="M120 0H10L108 460H218L120 0ZM230 531L58 600Q49 603 49 619Q49 628 53 639T63 659T76 675T92 681Q96 681 101 678L260 577L261 570L239 534L230 531Z" />
<glyph unicode="&#xed;" glyph-name="iacute" horiz-adv-x="247" d="M120 0H10L108 460H218L120 0ZM94 535L86 571L91 578L292 679Q298 682 303 682Q314 682 319 670T324 643Q324 629 319 617T303 601L101 532L94 535Z" />
<glyph unicode="&#xee;" glyph-name="icircumflex" horiz-adv-x="247" d="M120 0H10L108 460H218L120 0ZM209 673L298 574L300 567L277 538L270 535L184 576L82 535L75 538L66 567L70 574L201 673H209Z" />
<glyph unicode="&#xef;" glyph-name="idieresis" horiz-adv-x="247" d="M120 0H10L108 460H218L120 0ZM67 603Q67 616 73 628T89 649T112 665T138 671Q158 671 171 656T185 620Q185 607 179 596T162 575T138 561T113 555Q93 555 80 569T67 603ZM203 603Q203 616
209 628T225 649T248 665T274 671Q294 671 307 656T321 620Q321 607 315 596T298 575T274 561T249 555Q229 555 216 569T203 603Z" />
<glyph unicode="&#xf0;" glyph-name="eth" horiz-adv-x="572" d="M273 607L376 632Q357 667 334 695T284 740H431Q459 707 482 659L613 692L620 624L505 596Q518 554 525 507T532 408Q532 367 527 320T509 227T473 137T415 60T331 8T217 -12Q165 -12 129 4T70
46T37 107T27 178Q27 235 47 288T103 383T190 450T305 475Q356 475 386 458T428 410L431 411Q431 416 431 420T432 429Q432 461 425 497T403 571L280 542L273 607ZM234 71Q271 71 299 89T347 135T376 199T386 271Q386 295 381 316T365 354T338 379T297 389Q260
389 232 371T184 325T156 260T146 188Q146 165 151 144T166 106T194 81T234 71Z" />
<glyph unicode="&#xf1;" glyph-name="ntilde" horiz-adv-x="550" d="M506 658Q500 642 490 626T467 596T436 575T396 566Q384 566 369 568T337 573T301 578T266 580Q243 580 223 575T186 555L178 578Q187 596 197 612T221 641T252 661T295 669Q324 669 357 662T417
655Q435 655 455 660T499 681L506 658ZM318 0L383 304Q386 319 386 331Q386 386 330 386Q313 386 293 380T252 363T213 334T183 295L120 0H10L108 460H194L184 392H188Q218 434 267 454T367 475Q395 475 419 469T462 450T490 415T501 362Q501 340 495 313L428 0H318Z"
/>
<glyph unicode="&#xf2;" glyph-name="ograve" horiz-adv-x="552" d="M318 475Q368 475 403 460T462 418T495 357T506 283Q506 227 488 174T433 80T343 13T217 -12Q167 -12 131 3T72 44T38 104T27 178Q27 233 46 286T101 382T192 449T318 475ZM234 71Q271 71 299
89T347 135T376 199T386 271Q386 295 381 316T365 354T338 379T297 389Q260 389 232 371T185 325T157 260T147 188Q147 165 152 144T167 106T194 81T234 71ZM385 531L212 600Q204 603 204 619Q204 628 208 639T218 659T231 675T247 681Q251 681 256 678L415 577L416
570L393 534L385 531Z" />
<glyph unicode="&#xf3;" glyph-name="oacute" horiz-adv-x="552" d="M318 475Q368 475 403 460T462 418T495 357T506 283Q506 227 488 174T433 80T343 13T217 -12Q167 -12 131 3T72 44T38 104T27 178Q27 233 46 286T101 382T192 449T318 475ZM234 71Q271 71 299
89T347 135T376 199T386 271Q386 295 381 316T365 354T338 379T297 389Q260 389 232 371T185 325T157 260T147 188Q147 165 152 144T167 106T194 81T234 71ZM264 535L256 571L261 578L462 679Q468 682 473 682Q484 682 489 670T494 643Q494 629 489 617T473 601L271
532L264 535Z" />
<glyph unicode="&#xf4;" glyph-name="ocircumflex" horiz-adv-x="552" d="M318 475Q368 475 403 460T462 418T495 357T506 283Q506 227 488 174T433 80T343 13T217 -12Q167 -12 131 3T72 44T38 104T27 178Q27 233 46 286T101 382T192 449T318 475ZM234 71Q271
71 299 89T347 135T376 199T386 271Q386 295 381 316T365 354T338 379T297 389Q260 389 232 371T185 325T157 260T147 188Q147 165 152 144T167 106T194 81T234 71ZM373 673L462 574L463 567L441 538L434 535L348 576L246 535L239 538L229 567L234 574L365 673H373Z"
/>
<glyph unicode="&#xf5;" glyph-name="otilde" horiz-adv-x="552" d="M318 475Q368 475 403 460T462 418T495 357T506 283Q506 227 488 174T433 80T343 13T217 -12Q167 -12 131 3T72 44T38 104T27 178Q27 233 46 286T101 382T192 449T318 475ZM234 71Q271 71 299
89T347 135T376 199T386 271Q386 295 381 316T365 354T338 379T297 389Q260 389 232 371T185 325T157 260T147 188Q147 165 152 144T167 106T194 81T234 71ZM503 658Q497 642 487 626T464 596T433 575T393 566Q381 566 366 568T334 573T298 578T263 580Q240 580
220 575T183 555L175 578Q184 596 194 612T218 641T249 661T292 669Q321 669 354 662T414 655Q432 655 452 660T496 681L503 658Z" />
<glyph unicode="&#xf6;" glyph-name="odieresis" horiz-adv-x="552" d="M318 475Q368 475 403 460T462 418T495 357T506 283Q506 227 488 174T433 80T343 13T217 -12Q167 -12 131 3T72 44T38 104T27 178Q27 233 46 286T101 382T192 449T318 475ZM234 71Q271 71
299 89T347 135T376 199T386 271Q386 295 381 316T365 354T338 379T297 389Q260 389 232 371T185 325T157 260T147 188Q147 165 152 144T167 106T194 81T234 71ZM222 603Q222 616 228 628T244 649T267 665T293 671Q313 671 326 656T340 620Q340 607 334 596T317
575T293 561T268 555Q248 555 235 569T222 603ZM358 603Q358 616 364 628T380 649T403 665T429 671Q449 671 462 656T476 620Q476 607 470 596T453 575T429 561T404 555Q384 555 371 569T358 603Z" />
<glyph unicode="&#xf7;" glyph-name="divide" horiz-adv-x="509" d="M463 280L446 198H32L49 280H463ZM148 52Q148 68 155 83T175 110T203 129T236 137Q261 137 278 118T295 74Q295 58 287 44T265 18T236 0T205 -7Q179 -7 164 10T148 52ZM222 400Q222 416 229
431T249 458T277 477T310 485Q335 485 352 466T369 422Q369 406 361 392T340 366T311 348T279 341Q253 341 238 358T222 400Z" />
<glyph unicode="&#xf8;" glyph-name="oslash" horiz-adv-x="552" d="M557 453L483 385Q495 362 500 337T506 283Q506 227 488 174T433 80T343 13T218 -12Q177 -12 146 -2T92 25L23 -38L-22 12L49 77Q27 121 27 178Q27 233 46 286T101 382T192 449T318 475Q358
475 388 465T441 437L507 497L557 453ZM235 71Q272 71 300 89T348 135T377 199T387 271Q387 287 384 304L168 105Q179 89 195 80T235 71ZM147 188Q147 180 147 173T149 159L364 357Q353 371 337 380T297 389Q260 389 232 371T185 325T157 260T147 188Z" />
<glyph unicode="&#xf9;" glyph-name="ugrave" horiz-adv-x="537" d="M214 460L150 161Q148 156 148 151T148 140Q148 114 162 96T209 77Q244 77 278 100T335 168L397 460H508L410 0H324L332 64H328Q312 41 292 27T250 4T205 -8T161 -12Q133 -12 110 -7T69 11T41
45T31 96Q31 118 37 147L104 460H214ZM377 531L204 600Q196 603 196 619Q196 628 199 639T209 659T222 675T238 681Q242 681 248 678L406 577L408 570L385 534L377 531Z" />
<glyph unicode="&#xfa;" glyph-name="uacute" horiz-adv-x="537" d="M214 460L150 161Q148 156 148 151T148 140Q148 114 162 96T209 77Q244 77 278 100T335 168L397 460H508L410 0H324L332 64H328Q312 41 292 27T250 4T205 -8T161 -12Q133 -12 110 -7T69 11T41
45T31 96Q31 118 37 147L104 460H214ZM229 535L222 571L226 578L428 679Q434 682 438 682Q449 682 454 670T459 643Q459 629 454 617T438 601L236 532L229 535Z" />
<glyph unicode="&#xfb;" glyph-name="ucircumflex" horiz-adv-x="537" d="M214 460L150 161Q148 156 148 151T148 140Q148 114 162 96T209 77Q244 77 278 100T335 168L397 460H508L410 0H324L332 64H328Q312 41 292 27T250 4T205 -8T161 -12Q133 -12 110 -7T69
12T41 46T31 97Q31 118 37 147L104 460H214ZM351 673L439 574L441 567L419 538L411 535L326 576L223 535L217 538L207 567L211 574L343 673H351Z" />
<glyph unicode="&#xfc;" glyph-name="udieresis" horiz-adv-x="537" d="M214 460L150 161Q147 147 147 136Q147 107 163 92T209 77Q244 77 278 100T335 168L397 460H508L410 0H324L332 64H328Q312 41 292 27T250 4T205 -8T161 -12Q133 -12 110 -7T69 12T41 46T31
97Q31 118 37 147L104 460H214ZM206 603Q206 616 212 628T228 649T251 665T277 671Q297 671 311 656T325 620Q325 607 318 596T301 575T277 561T252 555Q232 555 219 569T206 603ZM342 603Q342 616 348 628T364 649T387 665T413 671Q433 671 447 656T461 620Q461
607 455 596T438 575T414 561T388 555Q368 555 355 569T342 603Z" />
<glyph unicode="&#xfd;" glyph-name="yacute" horiz-adv-x="518" d="M239 133L436 460H543L254 -4Q233 -39 199 -82T124 -164T34 -229T-63 -256Q-71 -256 -75 -256T-84 -253V-167Q-81 -168 -78 -169T-61 -170Q-42 -170 -22 -166T19 -150Q60 -127 95 -86T168 15L33
460H148L239 133ZM258 535L251 571L255 578L457 679Q463 682 467 682Q478 682 483 670T488 643Q488 629 483 617T467 601L265 532L258 535Z" />
<glyph unicode="&#xfe;" glyph-name="thorn" horiz-adv-x="576" d="M367 475Q410 475 441 460T492 420T521 361T530 290Q530 233 513 179T462 83T378 14T262 -12Q217 -12 181 1T128 43L64 -260H-45L168 740H274L203 407H207Q222 421 241 433T282 455T326 469T367
475ZM331 391Q316 391 298 387T260 374T222 353T189 326L147 131Q170 94 199 85T254 75Q295 75 325 91T376 135T407 198T418 271Q418 294 414 316T399 354T372 381T331 391Z" />
<glyph unicode="&#xff;" glyph-name="ydieresis" horiz-adv-x="518" d="M239 133L436 460H543L254 -4Q233 -39 199 -82T124 -164T34 -229T-63 -256Q-71 -256 -75 -256T-84 -253V-167Q-81 -168 -78 -169T-61 -170Q-42 -170 -22 -166T19 -150Q60 -127 95 -86T168
15L33 460H148L239 133ZM329 603Q329 616 335 628T351 649T374 665T400 671Q420 671 434 656T448 620Q448 607 441 596T424 575T400 561T375 555Q355 555 342 569T329 603ZM193 603Q193 616 199 628T215 649T238 665T264 671Q284 671 298 656T312 620Q312 607 305
596T288 575T264 561T239 555Q219 555 206 569T193 603Z" />
<glyph unicode="&#x2013;" glyph-name="endash" horiz-adv-x="545" d="M481 280L464 198H50L67 280H481Z" />
<glyph unicode="&#x2014;" glyph-name="emdash" horiz-adv-x="773" d="M709 280L692 198H50L67 280H709Z" />
<glyph unicode="&#x2018;" glyph-name="quoteleft" horiz-adv-x="251" d="M296 710L227 597H252L223 460H104L136 612L265 735L296 710Z" />
<glyph unicode="&#x2019;" glyph-name="quoteright" horiz-adv-x="234" d="M95 485L164 598H139L168 735H287L255 583L126 460L95 485Z" />
<glyph unicode="&#x201a;" glyph-name="quotesinglbase" horiz-adv-x="260" d="M-31 -118L38 -5H13L42 132H161L129 -20L0 -143L-31 -118Z" />
<glyph unicode="&#x201c;" glyph-name="quotedblleft" horiz-adv-x="410" d="M455 710L386 597H411L382 460H263L295 612L424 735L455 710ZM296 710L227 597H252L223 460H104L136 612L265 735L296 710Z" />
<glyph unicode="&#x201d;" glyph-name="quotedblright" horiz-adv-x="393" d="M95 485L164 598H139L168 735H287L255 583L126 460L95 485ZM254 485L323 598H298L327 735H446L414 583L285 460L254 485Z" />
<glyph unicode="&#x201e;" glyph-name="quotedblbase" horiz-adv-x="419" d="M-31 -118L38 -5H13L42 132H161L129 -20L0 -143L-31 -118ZM128 -118L197 -5H172L201 132H320L288 -20L159 -143L128 -118Z" />
<glyph unicode="&#x2022;" glyph-name="bullet" horiz-adv-x="324" d="M82 231Q82 247 89 262T109 289T138 308T170 316Q195 316 212 297T229 253Q229 237 221 223T200 197T171 179T140 172Q114 172 98 189T82 231Z" />
<glyph unicode="&#x2039;" glyph-name="guilsinglleft" horiz-adv-x="334" d="M135 238L242 61H129L34 239L35 244L206 420H318L136 243L135 238Z" />
<glyph unicode="&#x203a;" glyph-name="guilsinglright" horiz-adv-x="334" d="M185 243L77 420H189L286 244L285 239L114 61H1L184 238L185 243Z" />
</font>
</defs>
</svg>
