<?xml version="1.0" standalone="no"?>
<!DOCTYPE svg PUBLIC "-//W3C//DTD SVG 1.1//EN" "http://www.w3.org/Graphics/SVG/1.1/DTD/svg11.dtd">
<svg xmlns="http://www.w3.org/2000/svg">
<defs >
<font id="Yantramanav" horiz-adv-x="1037" ><font-face
    font-family="Yantramanav"
    units-per-em="2048"
    panose-1="2 0 0 0 0 0 0 0 0 0"
    ascent="1923"
    descent="-733"
    alphabetic="0" />
<glyph unicode=" " horiz-adv-x="520" />
<glyph unicode="!" horiz-adv-x="667" d="M404 184V0H226V184H404ZM403 1310V430H226V1310H403Z" />
<glyph unicode="&quot;" horiz-adv-x="847" d="M198 936V1404H375V1161L284 936H198ZM476 936V1404H653V1161L562 936H476Z" />
<glyph unicode="#" horiz-adv-x="1148" d="M63 369V495H301L362 808H131V936H387L461 1310H597L523 936H752L826 1310H962L888 936H1067V808H864L803 495H1000V369H778L706 0H569L641 369H411L339 0H203L275 369H63ZM498 808L437 495H666L727 808H498Z" />
<glyph unicode="$" horiz-adv-x="1038" d="M764 319Q764 400 707 457T518 559Q330 616 240 708T150 949T234 1192T470 1305V1504H612V1304Q764 1283 847 1175T930 887H753Q753 1011 696 1085T537 1160T381 1106T328 959T382 811T579 708Q769 647 855 558T942 318T850
74T594 -35V-208H453V-36Q289 -19 194 80T103 361L104 365H275Q275 233 341 171T517 109L518 110Q634 110 699 165T764 319Z" />
<glyph unicode="%" horiz-adv-x="1348" d="M860 319V249Q860 179 897 134T999 89T1102 134T1139 249V319Q1139 388 1101 433T999 479T897 434T860 319ZM728 249V319Q728 436 802 512T998 589T1195 513T1270 319V249Q1270 132 1196 56T1000 -21T803 55T728 249ZM1052
1121L412 97L314 157L954 1181L1052 1121ZM225 1056V987Q225 917 262 873T365 828T467 872T504 987V1056Q504 1126 467 1171T364 1217T262 1172T225 1056ZM94 987V1056Q94 1174 168 1250T365 1327T561 1251T635 1056V987Q635 870 562 794T366 718T169 794T94 987Z"
/>
<glyph unicode="&amp;" horiz-adv-x="1148" d="M824 90Q676 -21 483 -21T174 81T58 351Q58 457 118 538T311 707Q237 799 205 868T172 1009Q172 1162 258 1244T493 1326T732 1246T822 1047Q822 962 778 899T635 763L536 691L842 323Q921 446 921 603H1079Q1079
366 942 203L1109 2L1107 -2H901L824 90ZM235 351Q235 246 300 182T490 118T731 203L406 595L370 569Q235 467 235 351ZM659 1105T615 1146T500 1188T390 1139T349 1007T446 800L571 885Q659 946 659 1048Q659 1105 615 1146Z" />
<glyph unicode="&apos;" horiz-adv-x="569" d="M198 949V1404H375V1203L284 949H198Z" />
<glyph unicode="(" horiz-adv-x="821" d="M179 524V533Q179 670 205 801T274 1036T376 1229Q488 1401 622 1472L628 1471L662 1367Q529 1263 443 1047T356 534V522Q356 226 441 11T662 -320L628 -417H622Q541 -373 464 -288T323 -85T219 193T179 524Z" />
<glyph unicode=")" horiz-adv-x="822" d="M643 532V523Q643 351 604 192T500 -85T358 -289T199 -418H194L159 -321Q291 -218 378 2T465 521V533Q465 821 376 1042T159 1374L194 1471H199Q280 1428 357 1343T499 1139T603 862T643 532Z" />
<glyph unicode="*" horiz-adv-x="796" d="M113 698L292 945L25 1025L69 1163L336 1063L327 1371H472L463 1058L726 1157L770 1017L498 936L671 693L554 607L391 865L232 614L113 698Z" />
<glyph unicode="+" horiz-adv-x="1046" d="M609 1100V719H968V559H609V146H432V559H70V719H432V1100H609Z" />
<glyph unicode="," horiz-adv-x="364" d="M284 173V17L149 -258H43L106 26V173H284Z" />
<glyph unicode="-" horiz-adv-x="505" d="M473 677V538H32V677H473Z" />
<glyph unicode="." horiz-adv-x="493" d="M322 182V0H145V182H322Z" />
<glyph unicode="/" horiz-adv-x="765" d="M712 1298L166 -125H14L562 1298H712Z" />
<glyph unicode="0" horiz-adv-x="1039" d="M759 461V846Q759 1016 698 1102T518 1188Q279 1188 279 846V461Q279 291 340 205T520 118Q759 118 759 461ZM936 808V497Q936 247 827 113T521 -21T213 113T102 497V808Q102 1057 212 1192T519 1327T825 1192T936 808Z" />
<glyph unicode="1" horiz-adv-x="1038" d="M613 0H436V1138L167 1134V1262L613 1310V0Z" />
<glyph unicode="2" horiz-adv-x="1038" d="M956 139V-1H106V121L536 598Q651 726 692 801T733 966T675 1123T524 1189Q259 1189 259 923H89L87 929Q83 1102 202 1215T524 1328Q699 1328 804 1227T910 963Q910 861 851 756T669 518L324 143L326 139H956Z" />
<glyph unicode="3" horiz-adv-x="1038" d="M503 736Q618 736 668 792T719 960T664 1130T502 1189T333 1128T270 966H100L98 972Q94 1123 207 1225T502 1328T791 1231T897 956Q897 870 846 791T701 670Q917 600 917 363Q917 186 802 83T501 -21T201 77T90 338L93
344H262Q262 239 325 179T501 118T677 179T740 361T683 539T504 596H349L348 736H503Z" />
<glyph unicode="4" horiz-adv-x="1038" d="M638 441V1056L633 1057L616 1012L239 441H638ZM815 1310V441H995V302H815V0H638V302H50V402L627 1310H815Z" />
<glyph unicode="5" horiz-adv-x="1038" d="M890 1309V1152H384L341 784Q438 853 551 857Q732 858 836 739T940 417T833 96T526 -21Q352 -21 245 72T141 337L143 343H303Q303 238 364 178T531 118T699 196T761 409T698 622T529 702T376 672T305 574L159 590L234 1309H890Z" />
<glyph unicode="6" horiz-adv-x="1038" d="M793 439H794Q794 572 728 654T547 736Q370 736 294 601V495Q294 317 368 218T556 118T731 208T793 439ZM119 762H118Q118 1013 256 1170T607 1327Q750 1327 850 1273L812 1137Q715 1188 607 1188Q466 1188 380 1077T294
782V761Q417 868 588 868T865 748T971 431T860 106T557 -21T242 121T119 512V762Z" />
<glyph unicode="7" horiz-adv-x="1038" d="M956 1310V1171Q837 1029 760 911T635 668T561 427T515 141L500 0H323L338 141Q375 446 481 689T782 1171H69V1310H956Z" />
<glyph unicode="8" horiz-adv-x="1038" d="M269 245T337 182T518 118T700 182T769 355T698 533T517 603T338 534T269 355ZM306 863T364 803T518 742T673 802T732 961T671 1124T517 1188T365 1126T306 964ZM129 1138T233 1232T516 1327T801 1232T909 966Q909 865
853 788T696 672Q811 631 878 547T945 353Q945 174 829 77T518 -21T207 76T92 353Q92 462 158 546T338 672Q239 711 184 787T129 966Q129 1138 233 1232Z" />
<glyph unicode="9" horiz-adv-x="1038" d="M460 118Q593 118 669 217T745 507V567Q656 437 487 437Q295 437 185 554T74 873T190 1200T480 1327Q690 1327 806 1198T922 821V509Q922 257 796 118T459 -21Q303 -21 191 32L218 168Q311 118 460 118ZM387 1188T320
1101T252 877T315 659T481 576T648 616T745 726V839Q745 1011 680 1099T486 1188Q387 1188 320 1101Z" />
<glyph unicode=":" horiz-adv-x="465" d="M290 164V0H131V164H290ZM290 952V788H131V952H290Z" />
<glyph unicode=";" horiz-adv-x="473" d="M302 130V-11L180 -258H85L141 -3V130H302ZM291 927V763H132V927H291Z" />
<glyph unicode="&lt;" horiz-adv-x="936" d="M798 722L295 512L219 496V490L295 473L798 268V87L64 428V562L798 902V722Z" />
<glyph unicode="=" horiz-adv-x="1038" d="M887 555V407H137V555H887ZM887 929V781H137V929H887Z" />
<glyph unicode="&gt;" horiz-adv-x="965" d="M661 516L122 727V902L893 562V428L122 87V263L661 478L737 493V498L661 516Z" />
<glyph unicode="?" horiz-adv-x="1142" d="M654 186V-1H469V186H654ZM771 981Q771 1076 720 1127T579 1179T434 1134T378 1003H209L206 1009Q203 1153 306 1240T581 1328T850 1238T948 985Q948 877 891 784T717 577Q670 530 659 494T648 369L470 368Q471 498 492
548T606 682Q664 751 684 776T730 841T764 911T771 981Z" />
<glyph unicode="@" horiz-adv-x="1650" d="M761 67Q883 67 955 168Q954 190 958 218L1000 703Q945 726 896 726L895 725Q784 725 724 628T646 328Q626 67 761 67ZM1150 -64Q1084 -64 1037 -27T969 79Q880 -64 708 -64Q595 -64 534 44T488 329Q508 562 611 703T863
844Q953 844 1009 823T1140 749L1137 745H1142L1096 218Q1082 45 1189 45Q1299 45 1366 145T1440 407Q1454 757 1309 946T864 1135Q681 1135 542 1041T324 778T237 385Q221 43 372 -152T806 -347Q885 -347 966 -328T1103 -277L1138 -373Q1078 -410 986 -431T802
-453Q459 -453 273 -230T103 385Q112 575 170 734T326 1005T563 1180T869 1243Q1095 1243 1254 1142T1490 853T1558 407Q1550 205 1450 75Q1401 10 1324 -27T1150 -64Z" />
<glyph unicode="A" horiz-adv-x="1193" d="M995 0L872 338H323L199 0H18L525 1310H677L1175 0H995ZM598 1083L378 486H819L603 1083H598Z" />
<glyph unicode="B" horiz-adv-x="1178" d="M672 615H339V139H646Q768 139 835 198T902 372T845 550T672 615ZM339 1171V753H626Q727 753 788 808T850 959Q850 1171 590 1171H339ZM646 0H162V1310H590Q800 1310 913 1221T1027 956Q1027 869 972 800T824 698Q942
672 1010 583T1079 370Q1079 191 965 96T646 0Z" />
<glyph unicode="C" horiz-adv-x="1167" d="M918 417H1087L1089 412Q1093 224 959 102T605 -21T245 135T105 536V769Q105 1013 245 1170T608 1327T962 1210T1090 895L1088 890H918Q918 1030 837 1109T609 1188T373 1070T284 771V536Q284 353 373 236T609 118T837
196T918 417Z" />
<glyph unicode="D" horiz-adv-x="1214" d="M564 1171H339V139H564Q745 139 850 256T956 565V746Q956 936 850 1053T564 1171ZM564 0H162V1310H564Q822 1310 977 1154T1133 744V565Q1133 312 978 156T564 0Z" />
<glyph unicode="E" horiz-adv-x="1077" d="M940 747V608H339V139H1031V0H162V1310H1022V1171H339V747H940Z" />
<glyph unicode="F" horiz-adv-x="1074" d="M937 719V580H339V0H162V1310H1029V1171H339V719H937Z" />
<glyph unicode="G" horiz-adv-x="1256" d="M1112 652V173Q1059 92 940 36T650 -20Q413 -20 261 130T108 519V789Q108 1029 250 1178T618 1328T973 1219T1106 931L1104 926H935Q926 1045 846 1116T618 1188T378 1077T286 790V518Q286 343 388 231T650 118Q755 118
828 145T934 215V513H647V652H1112Z" />
<glyph unicode="H" horiz-adv-x="1315" d="M1153 1310V0H976V579H339V0H162V1310H339V718H976V1310H1153Z" />
<glyph unicode="I" horiz-adv-x="521" d="M349 1310V0H171V1310H349Z" />
<glyph unicode="J" horiz-adv-x="1017" d="M689 361V1308H867V361Q867 186 757 83T461 -21T165 76T59 353L61 359H231Q231 239 292 179T459 118T627 184T689 361Z" />
<glyph unicode="K" horiz-adv-x="1185" d="M339 591V0H162V1310H339V731H476L945 1310H1141L1144 1306L635 677L1181 5L1178 0H967L492 591H339Z" />
<glyph unicode="L" horiz-adv-x="995" d="M339 1310V139H959V0H162V1310H339Z" />
<glyph unicode="M" horiz-adv-x="1619" d="M162 1310H389L806 246H812L1229 1310H1456V0H1279V518L1297 1051L1292 1052L868 0H750L327 1049H322L339 518V0H162V1310Z" />
<glyph unicode="N" horiz-adv-x="1315" d="M1153 1310V0H976L345 1013L339 1012V0H162V1310H339L970 299L976 301V1310H1153Z" />
<glyph unicode="O" horiz-adv-x="1256" d="M977 536V771Q977 954 879 1067T623 1181T372 1067T279 771V536Q279 352 371 238T623 124T879 237T977 536ZM1154 769V536Q1154 293 1005 136T623 -21T246 136T102 536V769Q102 1012 245 1169T622 1327T1005 1170T1154 769Z" />
<glyph unicode="P" horiz-adv-x="1181" d="M339 1171V664H663Q793 664 860 733T928 916T860 1100T663 1171H339ZM663 526H339V0H162V1310H663Q871 1310 988 1204T1105 917T989 631T663 526Z" />
<glyph unicode="Q" horiz-adv-x="1256" d="M977 516V751Q977 934 879 1047T623 1161T372 1047T279 751V516Q279 332 371 218T623 104T879 217T977 516ZM1154 748V516Q1154 388 1110 279T983 94L1205 -116L1084 -232L835 -1Q733 -42 618 -42Q389 -42 246 115T102
515V748Q102 991 245 1148T618 1306Q775 1306 897 1234T1087 1035T1154 748Z" />
<glyph unicode="R" horiz-adv-x="1221" d="M669 568H339V0H162V1310H636Q852 1310 965 1215T1078 937Q1078 733 872 643Q1075 577 1075 334V211Q1075 77 1135 22V0H952Q897 49 897 212V332Q897 439 835 503T669 568ZM339 1171V707H618Q768 707 834 763T901 939Q901
1171 636 1171H339Z" />
<glyph unicode="S" horiz-adv-x="1149" d="M263 252T352 185T581 118T798 174T876 326T807 481T569 581Q128 687 128 969Q128 1124 254 1225T584 1327T919 1212T1044 936L1042 930H873Q873 1048 796 1118T584 1188T377 1130T305 979T381 830T630 729Q1053 622
1053 330Q1053 171 924 75T585 -21Q452 -21 340 25T158 163T92 370L94 375H263Q263 252 352 185Z" />
<glyph unicode="T" horiz-adv-x="1080" d="M1049 1310V1171H628V0H451V1171H31V1310H1049Z" />
<glyph unicode="U" horiz-adv-x="1247" d="M942 1308H1121V420Q1121 209 985 94T622 -21T264 94T132 420V1308H310V420Q310 274 392 196T621 118T854 196T942 420V1308Z" />
<glyph unicode="V" horiz-adv-x="1166" d="M212 1310L551 326L581 222H586L616 326L954 1310H1146L659 0H507L20 1310H212Z" />
<glyph unicode="W" horiz-adv-x="1628" d="M225 1310L425 454L449 290L455 289L490 454L730 1310H887L1129 454L1165 285H1170L1196 454L1391 1310H1569L1253 0H1094L836 909L813 1027H807L785 909L522 0H364L49 1310H225Z" />
<glyph unicode="X" horiz-adv-x="1166" d="M281 1310L585 799L891 1310H1105L689 661L1114 0H903L589 520L274 0H59L484 661L68 1310H281Z" />
<glyph unicode="Y" horiz-adv-x="1125" d="M647 0H471V473L18 1310H221L563 644L905 1310H1107L647 461V0Z" />
<glyph unicode="Z" horiz-adv-x="1103" d="M1020 139V0H87V131L788 1171H97V1310H990V1184L287 139H1020Z" />
<glyph unicode="[" horiz-adv-x="698" d="M536 1498V1358H367V-141H536V-281H190V1498H536Z" />
<glyph unicode="\" horiz-adv-x="761" d="M582 -125L35 1298H203L750 -125H582Z" />
<glyph unicode="]" horiz-adv-x="699" d="M162 1358V1498H509V-281H162V-141H332V1358H162Z" />
<glyph unicode="^" horiz-adv-x="770" d="M366 1106L220 729H55L324 1383H445L713 729H550L401 1106L386 1169H381L366 1106Z" />
<glyph unicode="_" horiz-adv-x="838" d="M834 -15V-154H4V-15H834Z" />
<glyph unicode="`" horiz-adv-x="577" d="M284 1450L441 1211H299L74 1445L77 1450H284Z" />
<glyph unicode="a" horiz-adv-x="1013" d="M406 -21Q254 -21 174 56T94 272T206 490T514 569H706V665Q706 751 654 800T512 850T368 808T314 702H145L143 707Q138 817 245 903T519 990T785 905T884 663V194Q884 81 909 -2H726Q707 91 706 144Q654 70 575 25T406
-21ZM273 268H272Q272 202 313 165T440 128T604 176T707 290V449H509Q403 449 338 397T273 268Z" />
<glyph unicode="b" horiz-adv-x="1048" d="M532 846Q376 846 304 698V276Q377 123 535 123Q658 123 720 209T783 448L781 467Q781 641 718 743T532 846ZM960 467V448Q960 234 859 107T581 -21Q390 -21 295 127L274 -2H129V1402H306V857Q402 990 580 990T859 848T960 467Z" />
<glyph unicode="c" horiz-adv-x="978" d="M266 466Q266 309 324 218Q387 118 525 118Q615 118 681 173T747 306H906L908 300Q913 173 797 76T525 -21Q317 -21 202 114T87 466V504Q87 720 202 855T525 990Q695 990 804 890T909 641L907 636H747Q747 726 684 788T528
850T375 803T291 681T266 504V466Z" />
<glyph unicode="d" horiz-adv-x="1048" d="M87 706T188 848T464 990T733 866V1402H911V-2H766L745 118Q648 -21 469 -21T189 106T88 448L87 467Q87 706 188 848ZM266 467V448Q266 295 327 209T513 123Q663 123 735 260V714Q661 846 515 846Q390 846 328 745T266 467Z" />
<glyph unicode="e" horiz-adv-x="975" d="M726 605Q726 715 669 782T505 850Q417 850 354 776T275 587L277 582H726V605ZM532 -21Q329 -21 209 113T88 466V506Q88 711 210 850T505 990Q699 990 801 874T904 554V443H272L269 439Q272 295 341 207T532 118Q702 118
808 214L878 99H877Q755 -21 532 -21Z" />
<glyph unicode="f" horiz-adv-x="636" d="M380 0H202V842H49V974H202V1097Q202 1253 282 1338T510 1423Q561 1423 642 1404L620 1269Q582 1278 533 1278Q380 1278 380 1097V974H582V842H380V0Z" />
<glyph unicode="g" horiz-adv-x="1048" d="M90 406V425Q90 664 193 806T477 948T756 803L778 930H919V-49Q919 -237 811 -337T496 -437Q425 -437 344 -418T201 -365L246 -227Q294 -254 361 -271T494 -288Q623 -288 682 -230T742 -49V61Q645 -63 471 -63T193 65T90
406ZM267 425V406Q267 255 330 168T518 81Q670 81 743 221V669Q667 804 520 804Q396 804 332 702T267 425Z" />
<glyph unicode="h" horiz-adv-x="1048" d="M306 1404V843Q411 992 592 992Q752 992 837 897T922 610V0H744V612Q744 733 693 790T538 848Q390 848 306 719V0H129V1404H306Z" />
<glyph unicode="i" horiz-adv-x="464" d="M320 974V0H143V974H320ZM320 1404V1223H143V1404H320Z" />
<glyph unicode="j" horiz-adv-x="477" d="M156 930H335V-124Q335 -274 259 -355T43 -437Q-7 -437 -58 -421L-46 -281Q-19 -292 28 -292Q156 -292 156 -124V930ZM328 1360V1183H150V1360H328Z" />
<glyph unicode="k" horiz-adv-x="945" d="M307 449V0H130V1404H307V590H420L687 974H899L566 531L947 0H738L422 449H307Z" />
<glyph unicode="l" horiz-adv-x="464" d="M320 1404V0H143V1404H320Z" />
<glyph unicode="m" horiz-adv-x="1611" d="M306 0H130V974H288L301 846Q401 992 597 992T864 812Q965 992 1162 992Q1315 992 1399 889T1483 582V0H1306V584Q1306 725 1258 786T1115 848T963 787T896 626V0H717V584Q717 720 668 784T520 848Q366 848 306 721V0Z" />
<glyph unicode="n" horiz-adv-x="1048" d="M129 974H287L300 829Q401 992 589 992Q749 992 834 899T919 615V0H742V611Q742 738 692 793T536 848Q460 848 401 812T306 710V0H129V974Z" />
<glyph unicode="o" horiz-adv-x="1048" d="M265 494V474Q265 312 331 215T523 118T715 215T782 474V494Q782 653 715 751T523 850T332 752T265 494ZM87 474V494Q87 714 205 852T523 990T841 853T959 494V474Q959 252 842 116T524 -21T205 116T87 474Z" />
<glyph unicode="p" horiz-adv-x="1048" d="M959 427V408Q959 195 858 68T579 -60T306 60V-416H129V932H265L293 806Q390 950 573 950T858 809T959 427ZM781 408V427Q781 599 715 702T524 806Q377 806 306 677V206Q376 78 526 78Q649 78 715 168T781 408Z" />
<glyph unicode="q" horiz-adv-x="1048" d="M266 427V408Q266 255 328 167T513 78Q649 78 725 201V693Q648 811 520 811T329 707T266 427ZM88 408V427Q88 666 189 808T467 950T741 818L767 932H902V-416H725V50Q631 -60 461 -60T190 67T88 408Z" />
<glyph unicode="r" horiz-adv-x="632" d="M306 -1H129V973H287L304 831Q393 992 546 992Q582 992 614 982L590 816L499 822Q362 822 306 695V-1Z" />
<glyph unicode="s" horiz-adv-x="964" d="M585 120T639 157T693 257T647 355T480 420Q296 460 210 526T123 710T225 909T491 992T756 906T853 691L851 686H682Q682 753 628 802T485 851T348 812T300 711T342 618T507 560Q695 519 783 451T871 269Q871 139 767
59T486 -21T202 71T98 294L100 299H269Q274 209 336 164T493 118L491 120Q585 120 639 157Z" />
<glyph unicode="t" horiz-adv-x="637" d="M185 1207H364V972H548V840H364V249Q364 125 467 125Q499 125 533 137L556 16Q508 -21 421 -21Q309 -21 247 46T185 249V840H31V972H185V1207Z" />
<glyph unicode="u" horiz-adv-x="1048" d="M463 -21Q299 -21 212 82T125 398V972H302V396Q302 243 346 183T491 123Q674 123 741 270V972H918V-2H759L747 142Q651 -21 463 -21Z" />
<glyph unicode="v" horiz-adv-x="927" d="M223 974L454 287L469 219H474L491 287L716 974H896L538 0H404L41 974H223Z" />
<glyph unicode="w" horiz-adv-x="1395" d="M217 974L378 355L399 237H404L429 355L624 974H766L961 355L989 223H995L1021 355L1174 974H1350L1067 0H924L736 593L696 759L690 758L652 593L466 0H323L41 974H217Z" />
<glyph unicode="x" horiz-adv-x="927" d="M255 974L459 615L666 974H873L557 492L882 0H679L463 368L247 0H41L366 492L50 974H255Z" />
<glyph unicode="y" horiz-adv-x="927" d="M199 -437Q161 -437 94 -423L112 -283Q178 -288 191 -288Q243 -288 278 -244T343 -126L385 -24L23 930H221L428 317L459 195H465L704 930H901L492 -193Q399 -437 199 -437Z" />
<glyph unicode="z" horiz-adv-x="927" d="M859 139V0H85V124L611 833H91V974H828V853L296 139H859Z" />
<glyph unicode="{" horiz-adv-x="834" d="M305 91V275Q305 378 258 433T117 489V621Q211 621 258 675T305 833V1019Q305 1180 381 1284T628 1437L664 1332Q482 1273 482 1019V833Q482 636 329 554Q482 472 482 275V91Q482 -33 525 -111T664 -221L628 -328Q457
-279 381 -174T305 91Z" />
<glyph unicode="|" horiz-adv-x="577" d="M360 1310V-243H217V1310H360Z" />
<glyph unicode="}" horiz-adv-x="835" d="M353 91V275Q353 480 518 554Q353 627 353 833V1019Q353 1272 170 1332L207 1437Q376 1389 453 1284T530 1019V833Q530 621 718 621V489Q530 489 530 275V91Q530 -69 453 -174T207 -328L170 -221Q353 -161 353 91Z" />
<glyph unicode="~" horiz-adv-x="1252" d="M864 401Q783 401 718 430T574 527Q469 613 388 613Q328 613 285 566T242 451L115 467Q115 591 192 677T388 763Q465 763 532 733T679 638Q732 591 774 571T870 550T967 601T1011 722L1138 706Q1138 581 1059 491T864 401Z" />
<glyph unicode="&#xa0;" horiz-adv-x="520" />
<glyph unicode="&#xa1;" horiz-adv-x="449" d="M141 -360L153 580H304L316 -360H141ZM125 902T151 928T224 955T297 929T322 860T297 791T225 764T151 791T125 860Z" />
<glyph unicode="&#xa2;" horiz-adv-x="1008" d="M526 94Q617 94 683 148T757 283H914Q909 170 820 80T601 -34V-244H435V-33Q273 -3 184 124T94 450V481Q94 674 184 801T435 958V1162H601V961Q737 940 823 846T914 615H757Q750 710 686 770T527 831Q399 831 330
740T261 475V444L260 445Q260 276 329 185T526 94Z" />
<glyph unicode="&#xa3;" horiz-adv-x="1071" d="M86 -1V140H155Q191 148 213 207T238 354V361L230 560H82V701H226L218 935Q218 1114 327 1221T613 1328T889 1234T989 978H817Q817 1076 760 1131T606 1186T450 1117T392 935L400 701H687V560L404 559L411 361Q411
224 356 140H1015L1014 -1H86Z" />
<glyph unicode="&#xa4;" horiz-adv-x="1314" d="M332 748Q280 653 280 543T331 337T471 186T661 130T851 187Q940 242 990 337T1041 543T991 748T851 897T661 952T471 898T332 749V748ZM848 -22T662 -22T332 95L212 -27L95 94L220 221Q126 363 126 546T227 876L95
1012L212 1134L344 999Q487 1107 661 1107T981 998L1115 1135L1234 1012L1098 873Q1197 728 1197 548T1105 225L1234 95L1115 -27L993 97Q848 -22 662 -22Z" />
<glyph unicode="&#xa5;" horiz-adv-x="1116" d="M982 662V550H636V401H982V290H636V0H463V290H122V401H463V550H122V662H404L28 1310H226L553 704L880 1310H1077L701 662H982Z" />
<glyph unicode="&#xa6;" horiz-adv-x="442" d="M300 -270H132V442H300V-270ZM300 1283V601H132V1283H300Z" />
<glyph unicode="&#xa7;" horiz-adv-x="1130" d="M1033 337Q1033 167 865 91Q992 1 992 -166Q992 -318 875 -407T545 -496T209 -394Q84 -292 84 -109L251 -107Q251 -225 331 -292T544 -360T751 -308T826 -171T763 -41T510 62Q347 105 261 154T132 275T89 445Q89
612 253 693Q130 785 130 950Q130 1100 249 1189T575 1279T897 1178T1013 891H846Q846 1005 771 1074T568 1143T369 1092T296 951Q296 890 321 854T397 793T601 722T803 654Q955 590 1006 477Q1033 415 1033 337ZM863 336H865Q865 391 840 427T746 498T544 572Q462
594 394 618Q324 601 290 557T255 449T279 349T356 287T560 214T717 165Q787 183 825 228T863 336Z" />
<glyph unicode="&#xa8;" horiz-adv-x="770" d="M625 1264T577 1264T504 1290T479 1359T504 1428T577 1455T650 1428T676 1359T651 1290ZM238 1266T190 1266T117 1292T92 1360T117 1429T190 1456T263 1430T289 1361T264 1292Z" />
<glyph unicode="&#xa9;" horiz-adv-x="1444" d="M869 534H1000L1002 529Q1005 394 928 323T706 252T477 347T392 600V707Q392 865 477 960T705 1055T927 984T1003 779L1001 774H869Q869 859 829 898T706 938T576 876T529 708V600Q529 493 575 431T706 369T829
408T869 534ZM864 1217T718 1217T451 1143T259 940T188 654T258 367T450 163T718 88T985 162T1177 367T1248 653T1178 939T986 1143ZM718 -21Q587 -21 469 31T265 173T129 388T79 654Q79 841 164 995T395 1238T718 1326T1040 1238T1271 996T1356 654T1271 312T1040
68T718 -21Z" />
<glyph unicode="&#xaa;" horiz-adv-x="824" d="M542 767Q473 690 362 690T192 745T133 894Q133 1102 438 1102H536V1149Q536 1271 424 1271Q361 1271 326 1247T291 1176L146 1187Q146 1281 223 1339T423 1397T614 1332T682 1147V863Q682 775 706 703H558Q548 731
542 767ZM393 813Q430 813 469 830T536 875V1002H435Q361 1002 320 974T279 899L280 898Q280 813 393 813Z" />
<glyph unicode="&#xab;" horiz-adv-x="865" d="M475 867L242 508L475 151H348L82 500V517L348 867H475ZM805 867L572 508L805 151H678L412 500V517L678 867H805Z" />
<glyph unicode="&#xac;" horiz-adv-x="1021" d="M862 758V375H695V613H114V758H862Z" />
<glyph unicode="&#xad;" horiz-adv-x="509" d="M470 677V538H29V677H470Z" />
<glyph unicode="&#xae;" horiz-adv-x="1449" d="M588 586V281H461V1045H709Q849 1045 924 986T999 816T884 646Q994 600 995 462V407Q995 327 1010 296V281H879Q869 307 867 400T864 495Q851 582 746 586H588ZM588 932V701H728Q794 703 833 733T872 812Q872 878
837 905T712 932H588ZM185 809T185 654T256 368T451 161T719 85T988 160T1183 367T1254 653T1184 936T990 1141T720 1217T451 1143T256 937V938Q185 809 185 654ZM163 319Q81 476 81 657T165 993T398 1238Q548 1327 720 1327T1041 1238T1274 993T1358 656T1277
321T1047 73T722 -21T395 71T163 320V319Z" />
<glyph unicode="&#xaf;" horiz-adv-x="844" d="M751 1442V1313H108V1442H751Z" />
<glyph unicode="&#xb0;" horiz-adv-x="689" d="M297 1310T264 1275T230 1191T263 1109T346 1075T429 1107T462 1191T429 1276T347 1310ZM572 1095T507 1028T347 960T185 1027T117 1190T184 1354T345 1424T506 1355T572 1191Z" />
<glyph unicode="&#xb1;" horiz-adv-x="985" d="M873 137V0H121V137H873ZM584 1140V769H912V633H584V260H434V633H87V769H434V1140H584Z" />
<glyph unicode="&#xb4;" horiz-adv-x="578" d="M111 1240L284 1505H486L245 1240H111Z" />
<glyph unicode="&#xb5;" horiz-adv-x="1044" d="M139 932H305V363Q306 214 352 145T502 75Q681 75 738 212V932H905V-42H755L747 62Q664 -60 510 -60Q380 -60 305 6V-416H139V932Z" />
<glyph unicode="&#xb6;" horiz-adv-x="901" d="M749 0H581V468H506Q299 468 180 581T60 888T180 1196T507 1310H749V0Z" />
<glyph unicode="&#xb7;" horiz-adv-x="481" d="M284 619T235 619T159 646T132 718T159 791T235 819T312 791T339 719T312 647Z" />
<glyph unicode="&#xb8;" horiz-adv-x="456" d="M383 -247Q383 -335 311 -385T111 -436L104 -340Q176 -340 215 -317T254 -251T224 -191T108 -164L137 -44L257 -46L246 -92Q383 -116 383 -247Z" />
<glyph unicode="&#xba;" horiz-adv-x="838" d="M342 815T418 815T537 867T580 1010V1080Q580 1169 537 1220T419 1271T301 1222T257 1085L255 1008Q255 918 298 867ZM110 1013V1080Q110 1223 194 1310T419 1397T642 1311T726 1074V1008Q726 864 642 777T419 690T195
777T110 1013Z" />
<glyph unicode="&#xbb;" horiz-adv-x="864" d="M83 869H211L476 519V502L211 152H83L315 510L83 869ZM432 869H560L825 519V502L560 152H432L664 510L432 869Z" />
<glyph unicode="&#xbc;" horiz-adv-x="1350" d="M1033 1142L393 118L299 177L939 1202L1033 1142Z" />
<glyph unicode="&#xbd;" horiz-adv-x="1430" d="M994 1142L354 118L260 177L900 1202L994 1142Z" />
<glyph unicode="&#xbe;" horiz-adv-x="1434" d="M1147 1142L507 118L413 177L1053 1202L1147 1142Z" />
<glyph unicode="&#xbf;" horiz-adv-x="872" d="M228 -138T280 -189T426 -241T577 -191T633 -58H799Q797 -204 696 -295T425 -386T158 -297T61 -48T205 270L303 372Q363 442 363 574L529 573Q528 478 510 421T448 310Q443 304 376 232T272 104T230 -6L228 -40Q228
-138 280 -189ZM339 900T365 926T439 952T511 926T536 858T511 790T439 763T365 789T339 858Z" />
<glyph unicode="&#xc0;" horiz-adv-x="1202" d="M992 0L869 338H320L196 0H15L522 1310H674L1172 0H992ZM595 1083L375 486H816L600 1083H595ZM585 1760L742 1521H600L375 1755L378 1760H585Z" />
<glyph unicode="&#xc1;" horiz-adv-x="1202" d="M992 0L869 338H320L196 0H15L522 1310H674L1172 0H992ZM595 1083L375 486H816L600 1083H595ZM555 1550L728 1815H930L689 1550H555Z" />
<glyph unicode="&#xc2;" horiz-adv-x="1202" d="M992 0L869 338H320L196 0H15L522 1310H674L1172 0H992ZM595 1083L375 486H816L600 1083H595ZM896 1562H758L623 1715L489 1562H351V1573L573 1818H673L896 1571V1562Z" />
<glyph unicode="&#xc3;" horiz-adv-x="1202" d="M991 0L868 338H319L195 0H14L521 1310H673L1171 0H991ZM594 1083L374 486H815L599 1083H594ZM748 1570Q710 1570 684 1579T614 1615T552 1649T501 1656T442 1627T416 1555L305 1561Q305 1658 359 1721T497 1784Q529
1784 554 1775T622 1740T689 1706T745 1697T804 1727T830 1799L941 1788Q941 1692 886 1631T748 1570Z" />
<glyph unicode="&#xc4;" horiz-adv-x="1202" d="M992 0L869 338H320L196 0H15L522 1310H674L1172 0H992ZM595 1083L375 486H816L600 1083H595ZM872 1574T824 1574T751 1600T726 1669T751 1738T824 1765T897 1738T923 1669T898 1600ZM485 1576T437 1576T364 1602T339
1670T364 1739T437 1766T510 1740T536 1671T511 1602Z" />
<glyph unicode="&#xc5;" horiz-adv-x="1202" d="M992 0L869 338H320L196 0H15L522 1310H674L1172 0H992ZM595 1083L375 486H816L600 1083H595ZM740 1754T710 1784T636 1815T561 1784T531 1709T561 1635T635 1605T709 1635T740 1709ZM442 1787T497 1841T635 1896T773
1842T829 1709T774 1578T635 1525T497 1577T442 1708Z" />
<glyph unicode="&#xc6;" horiz-adv-x="1723" d="M1691 136V0H896L883 318H375L191 0H-13L779 1310H1635V1174H1013L1031 750H1562V614H1037L1057 136H1691ZM849 1134L466 474H877L849 1134Z" />
<glyph unicode="&#xc7;" horiz-adv-x="1200" d="M836 -256Q836 -344 764 -394T564 -445L557 -349Q629 -349 668 -326T707 -260T677 -200T561 -173L590 -53L710 -55L699 -101Q836 -125 836 -256ZM906 417H1075L1077 412Q1081 224 947 102T593 -21T233 135T93 536V769Q93
1013 233 1170T596 1327T950 1210T1078 895L1076 890H906Q906 1030 825 1109T597 1188T361 1070T272 771V536Q272 353 361 236T597 118T825 196T906 417Z" />
<glyph unicode="&#xc8;" horiz-adv-x="1048" d="M925 747V608H324V139H1016V0H147V1310H1007V1171H324V747H925ZM520 1772L677 1533H535L310 1767L313 1772H520Z" />
<glyph unicode="&#xc9;" horiz-adv-x="1048" d="M925 747V608H324V139H1016V0H147V1310H1007V1171H324V747H925ZM490 1562L663 1827H865L624 1562H490Z" />
<glyph unicode="&#xca;" horiz-adv-x="1048" d="M925 747V608H324V139H1016V0H147V1310H1007V1171H324V747H925ZM830 1574H692L557 1727L423 1574H285V1585L507 1830H607L830 1583V1574Z" />
<glyph unicode="&#xcb;" horiz-adv-x="1048" d="M925 747V608H324V139H1016V0H147V1310H1007V1171H324V747H925ZM806 1586T758 1586T685 1612T660 1681T685 1750T758 1777T831 1750T857 1681T832 1612ZM419 1588T371 1588T298 1614T273 1682T298 1751T371 1778T444
1752T470 1683T445 1614Z" />
<glyph unicode="&#xcc;" horiz-adv-x="501" d="M353 1310V0H175V1310H353ZM199 1772L356 1533H214L-11 1767L-8 1772H199Z" />
<glyph unicode="&#xcd;" horiz-adv-x="501" d="M333 1310V0H155V1310H333ZM148 1562L321 1827H523L282 1562H148Z" />
<glyph unicode="&#xce;" horiz-adv-x="501" d="M351 1310V0H173V1310H351ZM507 1574H369L234 1727L100 1574H-38V1585L184 1830H284L507 1583V1574Z" />
<glyph unicode="&#xcf;" horiz-adv-x="501" d="M353 1310V0H175V1310H353ZM485 1586T437 1586T364 1612T339 1681T364 1750T437 1777T510 1750T536 1681T511 1612ZM98 1588T50 1588T-23 1614T-48 1682T-23 1751T50 1778T123 1752T149 1683T124 1614Z" />
<glyph unicode="&#xd0;" horiz-adv-x="1236" d="M607 735V598H353V140H534Q735 140 845 263T957 611V695Q957 919 853 1042T555 1168H353V735H607ZM180 0V599H34V735H180V1310H550Q722 1310 853 1235T1055 1021T1127 699V616Q1127 429 1056 290T851 77Q721 2 542 0H180Z" />
<glyph unicode="&#xd1;" horiz-adv-x="1314" d="M1135 1310V0H958L327 1013L321 1012V0H144V1310H321L952 299L958 301V1310H1135ZM787 1570Q749 1570 723 1579T653 1615T591 1649T540 1656T481 1627T455 1555L344 1561Q344 1658 398 1721T536 1784Q568 1784 593
1775T661 1740T728 1706T784 1697T843 1727T869 1799L980 1788Q980 1692 925 1631T787 1570Z" />
<glyph unicode="&#xd2;" horiz-adv-x="1267" d="M966 536V771Q966 954 868 1067T612 1181T361 1067T268 771V536Q268 352 360 238T612 124T868 237T966 536ZM1143 769V536Q1143 293 994 136T612 -21T235 136T91 536V769Q91 1012 234 1169T611 1327T994 1170T1143
769ZM611 1762L768 1523H626L401 1757L404 1762H611Z" />
<glyph unicode="&#xd3;" horiz-adv-x="1267" d="M965 536V771Q965 954 867 1067T611 1181T360 1067T267 771V536Q267 352 359 238T611 124T867 237T965 536ZM1142 769V536Q1142 293 993 136T611 -21T234 136T90 536V769Q90 1012 233 1169T610 1327T993 1170T1142
769ZM580 1552L753 1817H955L714 1552H580Z" />
<glyph unicode="&#xd4;" horiz-adv-x="1267" d="M965 536V771Q965 954 867 1067T611 1181T360 1067T267 771V536Q267 352 359 238T611 124T867 237T965 536ZM1142 769V536Q1142 293 993 136T611 -21T234 136T90 536V769Q90 1012 233 1169T610 1327T993 1170T1142
769ZM920 1564H782L647 1717L513 1564H375V1575L597 1820H697L920 1573V1564Z" />
<glyph unicode="&#xd5;" horiz-adv-x="1267" d="M964 536V771Q964 954 866 1067T610 1181T359 1067T266 771V536Q266 352 358 238T610 124T866 237T964 536ZM1141 769V536Q1141 293 992 136T610 -21T233 136T89 536V769Q89 1012 232 1169T609 1327T992 1170T1141
769ZM772 1572Q734 1572 708 1581T638 1617T576 1651T525 1658T466 1629T440 1557L329 1563Q329 1660 383 1723T521 1786Q553 1786 578 1777T646 1742T713 1708T769 1699T828 1729T854 1801L965 1790Q965 1694 910 1633T772 1572Z" />
<glyph unicode="&#xd6;" horiz-adv-x="1267" d="M965 536V771Q965 954 867 1067T611 1181T360 1067T267 771V536Q267 352 359 238T611 124T867 237T965 536ZM1142 769V536Q1142 293 993 136T611 -21T234 136T90 536V769Q90 1012 233 1169T610 1327T993 1170T1142
769ZM896 1576T848 1576T775 1602T750 1671T775 1740T848 1767T921 1740T947 1671T922 1602ZM509 1578T461 1578T388 1604T363 1672T388 1741T461 1768T534 1742T560 1673T535 1604Z" />
<glyph unicode="&#xd7;" horiz-adv-x="986" d="M193 225L79 338L374 639L79 940L193 1053L486 753L780 1053L894 940L599 639L894 338L780 225L486 524L193 225Z" />
<glyph unicode="&#xd8;" horiz-adv-x="1267" d="M911 48Q791 -27 635 -27T362 47L274 -93H147L276 115Q105 288 105 612V686Q105 876 170 1020T357 1242Q475 1319 632 1319Q825 1319 959 1207L1051 1355H1178L1035 1126Q1159 956 1160 693L1159 605Q1159 411 1095
268T911 48ZM988 688Q988 852 937 970L443 177Q525 119 634 119Q802 119 894 240T988 591V688ZM278 604Q278 385 366 257L874 1071Q781 1171 633 1171Q468 1171 375 1047T278 700V604Z" />
<glyph unicode="&#xd9;" horiz-adv-x="1195" d="M929 1308H1108V420Q1108 209 972 94T609 -21T251 94T119 420V1308H297V420Q297 274 379 196T608 118T841 196T929 420V1308ZM570 1760L727 1521H585L360 1755L363 1760H570Z" />
<glyph unicode="&#xda;" horiz-adv-x="1195" d="M928 1308H1107V420Q1107 209 971 94T608 -21T250 94T118 420V1308H296V420Q296 274 378 196T607 118T840 196T928 420V1308ZM539 1550L712 1815H914L673 1550H539Z" />
<glyph unicode="&#xdb;" horiz-adv-x="1195" d="M928 1308H1107V420Q1107 209 971 94T608 -21T250 94T118 420V1308H296V420Q296 274 378 196T607 118T840 196T928 420V1308ZM879 1562H741L606 1715L472 1562H334V1573L556 1818H656L879 1571V1562Z" />
<glyph unicode="&#xdc;" horiz-adv-x="1195" d="M928 1308H1107V420Q1107 209 971 94T608 -21T250 94T118 420V1308H296V420Q296 274 378 196T607 118T840 196T928 420V1308ZM855 1574T807 1574T734 1600T709 1669T734 1738T807 1765T880 1738T906 1669T881 1600ZM468
1576T420 1576T347 1602T322 1670T347 1739T420 1766T493 1740T519 1671T494 1602Z" />
<glyph unicode="&#xdd;" horiz-adv-x="1107" d="M645 0H469V473L16 1310H219L561 644L903 1310H1105L645 461V0ZM502 1550L675 1815H877L636 1550H502Z" />
<glyph unicode="&#xde;" horiz-adv-x="1089" d="M317 910V419H566Q693 419 765 485T838 663T766 841T572 910H317ZM149 1310H317V1047H568Q700 1047 799 1000T951 866T1005 664Q1005 488 887 385T563 282H317V0H149V1310Z" />
<glyph unicode="&#xdf;" horiz-adv-x="1096" d="M126 -4V996Q126 1185 219 1290T477 1395T730 1315T819 1090Q819 1039 801 983T762 886Q704 779 704 733T737 645T855 538T979 412T1018 282Q1018 138 927 59T672 -21Q599 -21 518 -1T401 45L439 184Q484 155 545
136T653 116Q749 116 800 158T851 274Q851 321 818 364T699 474T575 602T536 737Q536 804 598 910T661 1079Q661 1164 615 1212T488 1260Q292 1260 292 996L293 -4H126Z" />
<glyph unicode="&#xe0;" horiz-adv-x="1003" d="M396 -21Q244 -21 164 56T84 272T196 490T504 569H696V665Q696 751 644 800T502 850T358 808T304 702H135L133 707Q128 817 235 903T509 990T775 905T874 663V194Q874 81 899 -2H716Q697 91 696 144Q644 70 565
25T396 -21ZM263 268H262Q262 202 303 165T430 128T594 176T697 290V449H499Q393 449 328 397T263 268ZM487 1450L644 1211H502L277 1445L280 1450H487Z" />
<glyph unicode="&#xe1;" horiz-adv-x="1003" d="M396 -21Q244 -21 164 56T84 272T196 490T504 569H696V665Q696 751 644 800T502 850T358 808T304 702H135L133 707Q128 817 235 903T509 990T775 905T874 663V194Q874 81 899 -2H716Q697 91 696 144Q644 70 565
25T396 -21ZM263 268H262Q262 202 303 165T430 128T594 176T697 290V449H499Q393 449 328 397T263 268ZM457 1240L630 1505H832L591 1240H457Z" />
<glyph unicode="&#xe2;" horiz-adv-x="1003" d="M396 -21Q244 -21 164 56T84 272T196 490T504 569H696V665Q696 751 644 800T502 850T358 808T304 702H135L133 707Q128 817 235 903T509 990T775 905T874 663V194Q874 81 899 -2H716Q697 91 696 144Q644 70 565
25T396 -21ZM263 268H262Q262 202 303 165T430 128T594 176T697 290V449H499Q393 449 328 397T263 268ZM797 1252H659L524 1405L390 1252H252V1263L474 1508H574L797 1261V1252Z" />
<glyph unicode="&#xe3;" horiz-adv-x="1003" d="M395 -21Q243 -21 163 56T83 272T195 490T503 569H695V665Q695 751 643 800T501 850T357 808T303 702H134L132 707Q127 817 234 903T508 990T774 905T873 663V194Q873 81 898 -2H715Q696 91 695 144Q643 70 564
25T395 -21ZM262 268H261Q261 202 302 165T429 128T593 176T696 290V449H498Q392 449 327 397T262 268ZM649 1260Q611 1260 585 1269T515 1305T453 1339T402 1346T343 1317T317 1245L206 1251Q206 1348 260 1411T398 1474Q430 1474 455 1465T523 1430T590 1396T646
1387T705 1417T731 1489L842 1478Q842 1382 787 1321T649 1260Z" />
<glyph unicode="&#xe4;" horiz-adv-x="1003" d="M396 -21Q244 -21 164 56T84 272T196 490T504 569H696V665Q696 751 644 800T502 850T358 808T304 702H135L133 707Q128 817 235 903T509 990T775 905T874 663V194Q874 81 899 -2H716Q697 91 696 144Q644 70 565
25T396 -21ZM263 268H262Q262 202 303 165T430 128T594 176T697 290V449H499Q393 449 328 397T263 268ZM773 1264T725 1264T652 1290T627 1359T652 1428T725 1455T798 1428T824 1359T799 1290ZM386 1266T338 1266T265 1292T240 1360T265 1429T338 1456T411 1430T437
1361T412 1292Z" />
<glyph unicode="&#xe5;" horiz-adv-x="1003" d="M395 -21Q243 -21 163 56T83 272T195 490T503 569H695V665Q695 751 643 800T501 850T357 808T303 702H134L132 707Q127 817 234 903T508 990T774 905T873 663V194Q873 81 898 -2H715Q696 91 695 144Q643 70 564
25T395 -21ZM262 268H261Q261 202 302 165T429 128T593 176T696 290V449H498Q392 449 327 397T262 268ZM641 1444T611 1474T537 1505T462 1474T432 1399T462 1325T536 1295T610 1325T641 1399ZM343 1477T398 1531T536 1586T674 1532T730 1399T675 1268T536 1215T398
1267T343 1398Z" />
<glyph unicode="&#xe6;" horiz-adv-x="1556" d="M1328 575V604Q1328 724 1268 789T1101 855T927 779T843 575H1328ZM1478 89V90V89ZM674 447H469Q364 445 301 396T238 274T286 159T422 118Q486 118 557 151T674 233V447ZM1136 -19Q901 -19 779 143Q720 66 619
24T390 -19Q239 -19 155 58T70 276T173 493T473 571H674V647Q674 745 625 799T481 854T324 805T261 682L95 699Q95 828 203 909T482 991Q698 991 788 840Q907 990 1096 990T1390 875T1494 549V445H839Q845 287 922 201T1134 115T1378 183L1420 211L1478 90Q1338
-19 1136 -19Z" />
<glyph unicode="&#xe7;" horiz-adv-x="965" d="M693 -256Q693 -344 621 -394T421 -445L414 -349Q486 -349 525 -326T564 -260T534 -200T418 -173L447 -53L567 -55L556 -101Q693 -125 693 -256ZM257 466Q257 309 315 218Q378 118 516 118Q606 118 672 173T738 306H897L899
300Q904 173 788 76T516 -21Q308 -21 193 114T78 466V504Q78 720 193 855T516 990Q686 990 795 890T900 641L898 636H738Q738 726 675 788T519 850T366 803T282 681T257 504V466Z" />
<glyph unicode="&#xe8;" horiz-adv-x="977" d="M717 605Q717 715 660 782T496 850Q408 850 345 776T266 587L268 582H717V605ZM523 -21Q320 -21 200 113T79 466V506Q79 711 201 850T496 990Q690 990 792 874T895 554V443H263L260 439Q263 295 332 207T523 118Q693
118 799 214L869 99H868Q746 -21 523 -21ZM472 1450L629 1211H487L262 1445L265 1450H472Z" />
<glyph unicode="&#xe9;" horiz-adv-x="977" d="M717 605Q717 715 660 782T496 850Q408 850 345 776T266 587L268 582H717V605ZM523 -21Q320 -21 200 113T79 466V506Q79 711 201 850T496 990Q690 990 792 874T895 554V443H263L260 439Q263 295 332 207T523 118Q693
118 799 214L869 99H868Q746 -21 523 -21ZM442 1240L615 1505H817L576 1240H442Z" />
<glyph unicode="&#xea;" horiz-adv-x="977" d="M717 605Q717 715 660 782T496 850Q408 850 345 776T266 587L268 582H717V605ZM523 -21Q320 -21 200 113T79 466V506Q79 711 201 850T496 990Q690 990 792 874T895 554V443H263L260 439Q263 295 332 207T523 118Q693
118 799 214L869 99H868Q746 -21 523 -21ZM782 1252H644L509 1405L375 1252H237V1263L459 1508H559L782 1261V1252Z" />
<glyph unicode="&#xeb;" horiz-adv-x="977" d="M717 605Q717 715 660 782T496 850Q408 850 345 776T266 587L268 582H717V605ZM523 -21Q320 -21 200 113T79 466V506Q79 711 201 850T496 990Q690 990 792 874T895 554V443H263L260 439Q263 295 332 207T523 118Q693
118 799 214L869 99H868Q746 -21 523 -21ZM758 1264T710 1264T637 1290T612 1359T637 1428T710 1455T783 1428T809 1359T784 1290ZM371 1266T323 1266T250 1292T225 1360T250 1429T323 1456T396 1430T422 1361T397 1292Z" />
<glyph unicode="&#xec;" horiz-adv-x="455" d="M313 974V0H146V974H313ZM175 1449L332 1210H190L-35 1444L-32 1449H175Z" />
<glyph unicode="&#xed;" horiz-adv-x="455" d="M293 974V0H126V974H293ZM124 1239L297 1504H499L258 1239H124Z" />
<glyph unicode="&#xee;" horiz-adv-x="455" d="M314 974V0H147V974H314ZM486 1251H348L213 1404L79 1251H-59V1262L163 1507H263L486 1260V1251Z" />
<glyph unicode="&#xef;" horiz-adv-x="455" d="M314 974V0H147V974H314ZM462 1263T414 1263T341 1289T316 1358T341 1427T414 1454T487 1427T513 1358T488 1289ZM75 1265T27 1265T-46 1291T-71 1359T-46 1428T27 1455T100 1429T126 1360T101 1291Z" />
<glyph unicode="&#xf0;" horiz-adv-x="1080" d="M795 484V569L793 619Q763 675 700 707T555 740Q425 740 352 655T279 417Q279 289 354 202T543 115T726 216T795 484ZM961 562V479Q961 335 909 222T759 44T541 -21T321 36T168 196Q113 298 113 424T163 655T307
817T517 876Q664 876 772 774Q730 951 602 1076L406 943L340 1032L513 1150Q394 1233 230 1276L281 1419Q497 1371 653 1246L824 1362L889 1272L737 1168Q961 931 961 562Z" />
<glyph unicode="&#xf1;" horiz-adv-x="1017" d="M114 974H272L285 829Q386 992 574 992Q734 992 819 899T904 615V0H727V611Q727 738 677 793T521 848Q445 848 386 812T291 710V0H114V974ZM636 1260Q598 1260 572 1269T502 1305T440 1339T389 1346T330 1317T304
1245L193 1251Q193 1348 247 1411T385 1474Q417 1474 442 1465T510 1430T577 1396T633 1387T692 1417T718 1489L829 1478Q829 1382 774 1321T636 1260Z" />
<glyph unicode="&#xf2;" horiz-adv-x="1051" d="M257 494V474Q257 312 323 215T515 118T707 215T774 474V494Q774 653 707 751T515 850T324 752T257 494ZM79 474V494Q79 714 197 852T515 990T833 853T951 494V474Q951 252 834 116T516 -21T197 116T79 474ZM483
1450L640 1211H498L273 1445L276 1450H483Z" />
<glyph unicode="&#xf3;" horiz-adv-x="1051" d="M257 494V474Q257 312 323 215T515 118T707 215T774 474V494Q774 653 707 751T515 850T324 752T257 494ZM79 474V494Q79 714 197 852T515 990T833 853T951 494V474Q951 252 834 116T516 -21T197 116T79 474ZM453
1240L626 1505H828L587 1240H453Z" />
<glyph unicode="&#xf4;" horiz-adv-x="1051" d="M256 494V474Q256 312 322 215T514 118T706 215T773 474V494Q773 653 706 751T514 850T323 752T256 494ZM78 474V494Q78 714 196 852T514 990T832 853T950 494V474Q950 252 833 116T515 -21T196 116T78 474ZM792
1252H654L519 1405L385 1252H247V1263L469 1508H569L792 1261V1252Z" />
<glyph unicode="&#xf5;" horiz-adv-x="1051" d="M256 494V474Q256 312 322 215T514 118T706 215T773 474V494Q773 653 706 751T514 850T323 752T256 494ZM78 474V494Q78 714 196 852T514 990T832 853T950 494V474Q950 252 833 116T515 -21T196 116T78 474ZM645
1260Q607 1260 581 1269T511 1305T449 1339T398 1346T339 1317T313 1245L202 1251Q202 1348 256 1411T394 1474Q426 1474 451 1465T519 1430T586 1396T642 1387T701 1417T727 1489L838 1478Q838 1382 783 1321T645 1260Z" />
<glyph unicode="&#xf6;" horiz-adv-x="1051" d="M257 494V474Q257 312 323 215T515 118T707 215T774 474V494Q774 653 707 751T515 850T324 752T257 494ZM79 474V494Q79 714 197 852T515 990T833 853T951 494V474Q951 252 834 116T516 -21T197 116T79 474ZM769
1264T721 1264T648 1290T623 1359T648 1428T721 1455T794 1428T820 1359T795 1290ZM382 1266T334 1266T261 1292T236 1360T261 1429T334 1456T407 1430T433 1361T408 1292Z" />
<glyph unicode="&#xf7;" horiz-adv-x="1053" d="M603 363V180H425V363H603ZM962 725V555H64V725H962ZM603 1100V917H425V1100H603Z" />
<glyph unicode="&#xf8;" horiz-adv-x="1044" d="M81 483Q81 627 136 740T292 915T523 978Q623 978 706 941L772 1074H884L792 889Q967 753 967 463Q967 320 912 206T755 30Q658 -31 525 -31Q429 -31 354 0L287 -134H175L265 49Q81 184 81 483ZM525 105Q651 105
726 203T801 468L800 483Q800 645 722 746L416 127Q463 105 525 105ZM524 842Q397 842 323 743T248 466T336 188L644 813Q589 842 524 842Z" />
<glyph unicode="&#xf9;" horiz-adv-x="1016" d="M449 -21Q285 -21 198 82T111 398V972H288V396Q288 243 332 183T477 123Q660 123 727 270V972H904V-2H745L733 142Q637 -21 449 -21ZM469 1450L626 1211H484L259 1445L262 1450H469Z" />
<glyph unicode="&#xfa;" horiz-adv-x="1016" d="M449 -21Q285 -21 198 82T111 398V972H288V396Q288 243 332 183T477 123Q660 123 727 270V972H904V-2H745L733 142Q637 -21 449 -21ZM439 1240L612 1505H814L573 1240H439Z" />
<glyph unicode="&#xfb;" horiz-adv-x="1016" d="M449 -21Q285 -21 198 82T111 398V972H288V396Q288 243 332 183T477 123Q660 123 727 270V972H904V-2H745L733 142Q637 -21 449 -21ZM779 1252H641L506 1405L372 1252H234V1263L456 1508H556L779 1261V1252Z" />
<glyph unicode="&#xfc;" horiz-adv-x="1016" d="M449 -21Q285 -21 198 82T111 398V972H288V396Q288 243 332 183T477 123Q660 123 727 270V972H904V-2H745L733 142Q637 -21 449 -21ZM755 1264T707 1264T634 1290T609 1359T634 1428T707 1455T780 1428T806 1359T781
1290ZM368 1266T320 1266T247 1292T222 1360T247 1429T320 1456T393 1430T419 1361T394 1292Z" />
<glyph unicode="&#xfd;" horiz-adv-x="872" d="M197 -437Q159 -437 92 -423L110 -283Q176 -288 189 -288Q241 -288 276 -244T341 -126L383 -24L21 930H219L426 317L457 195H463L702 930H899L490 -193Q397 -437 197 -437ZM392 1240L565 1505H767L526 1240H392Z" />
<glyph unicode="&#xfe;" horiz-adv-x="1062" d="M957 210T855 75T578 -60T301 53V-416H134V1341H301V831Q401 950 577 950T856 818T958 450L957 435Q957 210 855 75ZM529 76H530Q653 76 722 172T791 443T721 714T528 809Q375 809 301 675V210Q375 76 529 76Z" />
<glyph unicode="&#xff;" horiz-adv-x="872" d="M197 -437Q159 -437 92 -423L110 -283Q176 -288 189 -288Q241 -288 276 -244T341 -126L383 -24L21 930H219L426 317L457 195H463L702 930H899L490 -193Q397 -437 197 -437ZM708 1264T660 1264T587 1290T562 1359T587
1428T660 1455T733 1428T759 1359T734 1290ZM321 1266T273 1266T200 1292T175 1360T200 1429T273 1456T346 1430T372 1361T347 1292Z" />
<glyph unicode="&#x2013;" horiz-adv-x="1274" d="M1023 774V648H143V774H1023Z" />
<glyph unicode="&#x2014;" horiz-adv-x="1494" d="M1228 774V648H145V774H1228Z" />
<glyph unicode="&#x2018;" horiz-adv-x="585" d="M177 918V1084L321 1404H408L354 1078V918H177Z" />
<glyph unicode="&#x2019;" horiz-adv-x="585" d="M408 1404V1230L264 919H177L231 1228V1404H408Z" />
<glyph unicode="&#x201a;" horiz-adv-x="366" d="M284 45Q284 -45 240 -136T127 -283L32 -217Q116 -102 117 28V135H284V45Z" />
<glyph unicode="&#x201c;" horiz-adv-x="881" d="M177 918V1084L321 1404H408L354 1078V918H177ZM473 918V1084L617 1404H704L650 1078V918H473Z" />
<glyph unicode="&#x201d;" horiz-adv-x="888" d="M408 1404V1230L264 919H177L231 1228V1404H408ZM711 1404V1230L567 919H480L534 1228V1404H711Z" />
<glyph unicode="&#x201e;" horiz-adv-x="635" d="M284 44Q284 -52 240 -146T127 -301L32 -236Q116 -111 117 25V191H284V44ZM551 44Q551 -53 508 -147T393 -301L299 -236Q382 -113 383 25V191H551V44Z" />
<glyph unicode="&#x2022;" horiz-adv-x="626" d="M123 713V767Q123 847 173 897T309 947T445 897T496 767V713Q496 632 446 584T310 535T174 584T123 713Z" />
<glyph unicode="&#x2039;" horiz-adv-x="553" d="M490 869L257 510L490 153H363L97 502V519L363 869H490Z" />
<glyph unicode="&#x203a;" horiz-adv-x="553" d="M80 869H208L473 519V502L208 152H80L312 510L80 869Z" />
</font>
</defs>
</svg>
